MFile 1 2 1024
MTrk
0 TimeSig 1/4 24 8
0 KeySig -5 major
0 Tempo 300000
1024 TimeSig 3/4 24 8
1024 Tempo 428571
1707 Tempo 300000
4096 Tempo 428571
4437 Tempo 300000
6144 Tempo 428571
6485 Tempo 333333
7168 Tempo 375000
7509 Tempo 300000
10240 Tempo 333333
10581 Tempo 300000
12971 Tempo 600000
13312 Tempo 428571
13653 Tempo 300000
16043 Tempo 428571
16725 Tempo 300000
22528 Tempo 428571
22869 Tempo 333333
24576 Tempo 428571
25259 Tempo 600000
25600 Tempo 428571
26283 Tempo 300000
28672 Tempo 428571
29013 Tempo 300000
30720 Tempo 428571
31061 Tempo 333333
31744 Tempo 375000
32085 Tempo 300000
34816 Tempo 333333
35157 Tempo 300000
37547 Tempo 600000
37888 Tempo 428571
38229 Tempo 300000
40619 Tempo 428571
41301 Tempo 300000
44032 Tempo 428571
44373 Tempo 300000
46763 Tempo 428571
47445 Tempo 300000
50176 Tempo 428571
50517 Tempo 300000
52907 Tempo 428571
53589 Tempo 300000
56320 Tempo 428571
56661 Tempo 300000
59051 Tempo 428571
59392 Tempo 500000
59733 Tempo 300000
65536 Tempo 428571
65877 Tempo 333333
66901 Tempo 300000
68949 Tempo 375000
69291 Tempo 333333
69973 Tempo 300000
71680 Tempo 375000
72021 Tempo 333333
72704 Tempo 375000
73045 Tempo 333333
74069 Tempo 375000
74411 Tempo 428571
74752 Tempo 500000
75093 Tempo 333333
75776 Tempo 300000
76800 Tempo 375000
77568 Tempo 333333
78165 Tempo 300000
79872 Tempo 375000
80640 Tempo 333333
81237 Tempo 300000
82944 Tempo 375000
83712 Tempo 333333
84309 Tempo 300000
84992 Tempo 375000
85333 Tempo 333333
86016 Tempo 300000
87040 Tempo 428571
87381 Tempo 333333
87723 Tempo 300000
90112 Tempo 428571
90453 Tempo 300000
93184 Tempo 428571
93525 Tempo 333333
93867 Tempo 300000
96256 Tempo 428571
96597 Tempo 300000
105472 Tempo 428571
105813 Tempo 300000
107179 Tempo 375000
107861 Tempo 300000
108544 Tempo 333333
109568 Tempo 375000
110592 Tempo 428571
110933 Tempo 375000
111616 KeySig 5 major
111957 Tempo 333333
112640 Tempo 375000
112981 Tempo 300000
114688 Tempo 375000
115029 Tempo 300000
117760 Tempo 375000
118443 Tempo 300000
120832 Tempo 333333
121515 Tempo 300000
123563 Tempo 600000
123904 KeySig -2 major
124245 Tempo 300000
125269 Tempo 300000
125952 Tempo 428571
126293 Tempo 300000
126976 Tempo 375000
127317 Tempo 300000
128000 Tempo 285714
128341 Tempo 272727
130048 Tempo 272727
131072 Tempo 260869
135168 Tempo 333333
135509 Tempo 375000
136533 Tempo 333333
137216 Tempo 375000
137557 Tempo 300000
139264 Tempo 375000
139605 Tempo 300000
142336 Tempo 375000
143019 Tempo 300000
145408 Tempo 333333
146091 Tempo 300000
148139 Tempo 600000
148821 Tempo 300000
149845 Tempo 300000
150528 Tempo 428571
150869 Tempo 300000
151552 Tempo 375000
151893 Tempo 272727
152576 Tempo 260869
157696 Tempo 285714
158720 Tempo 300000
159744 Tempo 333333
160768 KeySig 3 major
160768 Tempo 375000
161109 Tempo 300000
161451 Tempo 285714
163840 Tempo 333333
164181 Tempo 285714
166912 Tempo 375000
167253 Tempo 300000
167595 Tempo 285714
169984 Tempo 333333
170325 Tempo 285714
173056 Tempo 375000
173397 Tempo 285714
176128 Tempo 375000
176469 Tempo 300000
177152 Tempo 333333
177493 Tempo 285714
179200 Tempo 375000
179541 Tempo 285714
182272 Tempo 375000
182613 Tempo 300000
183296 Tempo 333333
183637 Tempo 285714
185344 Tempo 375000
185685 Tempo 285714
187392 Tempo 333333
187733 Tempo 285714
188416 Tempo 375000
188757 Tempo 300000
190464 Tempo 333333
191147 Tempo 375000
191829 Tempo 300000
192171 Tempo 285714
194560 Tempo 333333
194901 Tempo 300000
195584 Tempo 333333
195925 Tempo 375000
197291 Tempo 428571
197632 KeySig -5 major
197632 Tempo 333333
197973 Tempo 285714
200704 Tempo 375000
201045 Tempo 285714
202240 Tempo 333333
204117 Tempo 285714
219136 Tempo 333333
219477 Tempo 300000
221184 Tempo 333333
222208 Tempo 333333
222549 Tempo 285714
225280 Tempo 375000
225621 Tempo 285714
226816 Tempo 333333
228693 Tempo 285714
234496 Tempo 333333
234837 Tempo 285714
237227 Tempo 333333
237909 Tempo 285714
240640 Tempo 333333
240981 Tempo 285714
246784 Tempo 333333
247467 Tempo 300000
248832 Tempo 333333
249515 Tempo 375000
250197 Tempo 300000
252928 Tempo 333333
253611 Tempo 300000
254976 Tempo 333333
255659 Tempo 375000
256341 Tempo 285714
259072 Tempo 333333
259413 Tempo 285714
262144 Tempo 333333
262485 Tempo 285714
265216 Tempo 300000
265557 Tempo 285714
271360 Tempo 500000
271701 Tempo 333333
272384 Tempo 300000
273408 Tempo 375000
274176 Tempo 333333
274773 Tempo 300000
276480 Tempo 375000
277845 Tempo 300000
279552 Tempo 375000
280320 Tempo 333333
280917 Tempo 300000
281600 Tempo 375000
281941 Tempo 333333
282624 Tempo 300000
283648 Tempo 428571
283989 Tempo 333333
284331 Tempo 300000
286720 Tempo 428571
287061 Tempo 300000
289792 Tempo 428571
290133 Tempo 333333
290475 Tempo 300000
292864 Tempo 428571
293205 Tempo 300000
296277 Tempo 285714
299008 Tempo 272727
301056 Tempo 300000
302080 Tempo 333333
302421 Tempo 300000
304128 Tempo 333333
304811 Tempo 375000
304896 Tempo 857142
305152 Tempo 300000
307200 Tempo 333333
307883 Tempo 375000
308565 Tempo 260869
310272 Tempo 250000
314368 Tempo 333333
315392 Tempo 300000
317440 Tempo 333333
318123 Tempo 272727
319147 Tempo 260869
320853 Tempo 260869
322560 Tempo 250000
326656 Tempo 333333
327680 Tempo 300000
329728 Tempo 333333
330411 Tempo 272727
331435 Tempo 260869
331776 Tempo 333333
332800 Tempo 375000
333824 Tempo 300000
334848 Tempo 333333
335872 Tempo 333333
336555 Tempo 300000
337920 Tempo 375000
338603 Tempo 428571
338944 Tempo 375000
339627 Tempo 428571
340309 Tempo 500000
340992 Tempo 600000
341675 Tempo 857142
342016 Tempo 333333
342699 Tempo 300000
343381 Tempo 285714
344064 Tempo 260869
345088 Tempo 333333
345429 Tempo 260869
351232 Tempo 857142
357376 Meta TrkEnd
TrkEnd
MTrk
0 Meta TrkName "Instrument  1"
0 PrCh ch=1 p=1
0 Par ch=1 c=64 v=0
0 Par ch=1 c=64 v=0
1024 Par ch=1 c=64 v=127
1024 Par ch=1 c=64 v=0
1024 On ch=1 n=f#4 v=26
1114 On ch=1 n=a#5 v=40
1133 Par ch=1 c=64 v=0
1351 Par ch=1 c=64 v=127
1365 On ch=1 n=c5 v=40
1638 On ch=1 n=g#3 v=26
1707 On ch=1 n=a5 v=41
1727 Off ch=1 n=c5 v=0
1727 Off ch=1 n=a#5 v=0
2048 On ch=1 n=f6 v=49
2253 On ch=1 n=c#3 v=26
2273 Off ch=1 n=g#3 v=0
2273 Off ch=1 n=f#4 v=0
2298 Par ch=1 c=64 v=0
2389 On ch=1 n=a#5 v=44
2409 Off ch=1 n=a5 v=0
2640 Par ch=1 c=64 v=127
2731 On ch=1 n=c5 v=40
2867 On ch=1 n=g#3 v=26
2887 Off ch=1 n=c#3 v=0
3072 Off ch=1 n=a#5 v=0
3072 On ch=1 n=a5 v=44
3092 Off ch=1 n=c5 v=0
3413 Off ch=1 n=f6 v=0
3413 On ch=1 n=d#6 v=33
3482 On ch=1 n=f#4 v=26
3502 Off ch=1 n=g#3 v=0
3755 Off ch=1 n=a5 v=0
3755 On ch=1 n=g#5 v=45
3775 Off ch=1 n=d#6 v=0
4096 Par ch=1 c=64 v=127
4096 Par ch=1 c=64 v=0
4096 On ch=1 n=f4 v=26
4116 Off ch=1 n=g#5 v=0
4116 Off ch=1 n=f#4 v=0
4186 On ch=1 n=a5 v=45
4227 Par ch=1 c=64 v=0
4437 On ch=1 n=c#5 v=40
4466 Par ch=1 c=64 v=127
4710 On ch=1 n=g#3 v=26
4779 On ch=1 n=g#5 v=41
4799 Off ch=1 n=a5 v=0
5097 Par ch=1 c=64 v=0
5120 On ch=1 n=c#6 v=49
5140 Off ch=1 n=g#5 v=0
5325 Par ch=1 c=64 v=127
5325 On ch=1 n=c#3 v=26
5345 Off ch=1 n=g#3 v=0
5345 Off ch=1 n=f4 v=0
5461 On ch=1 n=c#5 v=40
5481 Off ch=1 n=c#5 v=0
5803 On ch=1 n=f5 v=40
5823 Off ch=1 n=c#5 v=0
5939 On ch=1 n=a3 v=42
5970 Par ch=1 c=64 v=0
6144 On ch=1 n=g#5 v=49
6275 Par ch=1 c=64 v=127
6485 On ch=1 n=c#5 v=40
6505 Off ch=1 n=f5 v=0
6505 Off ch=1 n=c#6 v=0
6554 On ch=1 n=f4 v=26
6574 Off ch=1 n=c#3 v=0
6827 On ch=1 n=g5 v=45
6847 Off ch=1 n=c#5 v=0
6847 Off ch=1 n=g#5 v=0
7168 Par ch=1 c=64 v=127
7168 Par ch=1 c=64 v=0
7168 Par ch=1 c=64 v=0
7168 On ch=1 n=f#4 v=26
7188 Off ch=1 n=g5 v=0
7188 Off ch=1 n=f4 v=0
7258 On ch=1 n=a#5 v=37
7277 Par ch=1 c=64 v=0
7495 Par ch=1 c=64 v=127
7509 On ch=1 n=c5 v=33
7782 Off ch=1 n=a3 v=0
7782 On ch=1 n=g#3 v=26
7851 On ch=1 n=a5 v=33
7871 Off ch=1 n=a#5 v=0
8192 On ch=1 n=f6 v=49
8397 Off ch=1 n=f#4 v=0
8397 On ch=1 n=c#3 v=26
8417 Off ch=1 n=g#3 v=0
8442 Par ch=1 c=64 v=0
8533 On ch=1 n=a#5 v=35
8553 Off ch=1 n=c5 v=0
8553 Off ch=1 n=a5 v=0
8784 Par ch=1 c=64 v=127
8875 On ch=1 n=c5 v=40
9011 On ch=1 n=g#3 v=26
9031 Off ch=1 n=c#3 v=0
9216 On ch=1 n=a5 v=44
9236 Off ch=1 n=c5 v=0
9236 Off ch=1 n=a#5 v=0
9557 On ch=1 n=d#6 v=40
9577 Off ch=1 n=f6 v=0
9626 On ch=1 n=f#4 v=26
9899 On ch=1 n=g#5 v=40
9919 Off ch=1 n=a5 v=0
9919 Off ch=1 n=d#6 v=0
10240 Par ch=1 c=64 v=127
10240 Par ch=1 c=64 v=0
10240 Par ch=1 c=64 v=0
10240 On ch=1 n=a5 v=42
10240 On ch=1 n=f4 v=26
10260 Off ch=1 n=g#5 v=0
10260 Off ch=1 n=g#3 v=0
10260 Off ch=1 n=f#4 v=0
10371 Par ch=1 c=64 v=0
10581 On ch=1 n=c#5 v=33
10610 Par ch=1 c=64 v=127
10854 On ch=1 n=g#3 v=27
10874 Off ch=1 n=f4 v=0
10923 On ch=1 n=g#5 v=39
10943 Off ch=1 n=c#5 v=0
10943 Off ch=1 n=a5 v=0
11241 Par ch=1 c=64 v=0
11264 On ch=1 n=c#6 v=50
11284 Off ch=1 n=g#5 v=0
11469 Par ch=1 c=64 v=127
11469 On ch=1 n=c#3 v=27
11489 Off ch=1 n=g#3 v=0
11605 On ch=1 n=c#5 v=42
11947 On ch=1 n=f5 v=42
11967 Off ch=1 n=c#5 v=0
12083 On ch=1 n=g#3 v=28
12103 Off ch=1 n=c#3 v=0
12114 Par ch=1 c=64 v=0
12288 Off ch=1 n=c#6 v=0
12288 On ch=1 n=a5 v=52
12308 Off ch=1 n=f5 v=0
12419 Par ch=1 c=64 v=127
12629 On ch=1 n=f5 v=43
12698 On ch=1 n=g#4 v=28
12971 On ch=1 n=g#5 v=49
12991 Off ch=1 n=f5 v=0
12991 Off ch=1 n=a5 v=0
13312 Par ch=1 c=64 v=127
13312 Par ch=1 c=64 v=0
13312 Par ch=1 c=64 v=0
13312 Par ch=1 c=64 v=0
13312 On ch=1 n=b5 v=52
13312 On ch=1 n=g4 v=30
13332 Off ch=1 n=g#5 v=0
13332 Off ch=1 n=g#3 v=0
13332 Off ch=1 n=g#4 v=0
13421 Par ch=1 c=64 v=0
13639 Par ch=1 c=64 v=127
13653 On ch=1 n=c#5 v=46
13926 Off ch=1 n=g4 v=0
13926 On ch=1 n=a3 v=30
13995 Off ch=1 n=c#5 v=0
13995 Off ch=1 n=b5 v=0
13995 On ch=1 n=a#5 v=47
14336 On ch=1 n=f#6 v=56
14541 Off ch=1 n=a3 v=0
14541 On ch=1 n=a2 v=30
14586 Par ch=1 c=64 v=0
14677 Off ch=1 n=a#5 v=0
14677 On ch=1 n=b5 v=56
14928 Par ch=1 c=64 v=127
15019 On ch=1 n=c#5 v=46
15155 Off ch=1 n=a2 v=0
15155 On ch=1 n=a3 v=30
15360 Off ch=1 n=c#5 v=0
15360 Off ch=1 n=b5 v=0
15360 On ch=1 n=a#5 v=56
15701 Off ch=1 n=f#6 v=0
15701 On ch=1 n=e6 v=38
15770 Off ch=1 n=a3 v=0
15770 On ch=1 n=g4 v=30
16043 Off ch=1 n=a#5 v=0
16043 Off ch=1 n=e6 v=0
16043 On ch=1 n=a5 v=52
16384 Par ch=1 c=64 v=127
16384 Par ch=1 c=64 v=0
16384 Par ch=1 c=64 v=0
16384 Par ch=1 c=64 v=0
16384 Off ch=1 n=a5 v=0
16384 Off ch=1 n=g4 v=0
16384 On ch=1 n=b5 v=52
16384 On ch=1 n=g4 v=30
16515 Par ch=1 c=64 v=0
16725 Off ch=1 n=b5 v=0
16725 On ch=1 n=c#5 v=46
16754 Par ch=1 c=64 v=127
16998 Off ch=1 n=g4 v=0
16998 On ch=1 n=a3 v=30
17067 Off ch=1 n=c#5 v=0
17067 On ch=1 n=a#5 v=47
17385 Par ch=1 c=64 v=0
17408 Off ch=1 n=a#5 v=0
17408 On ch=1 n=e6 v=56
17613 Par ch=1 c=64 v=127
17613 Off ch=1 n=a3 v=0
17613 On ch=1 n=d3 v=30
17749 Off ch=1 n=e6 v=0
17749 On ch=1 n=b5 v=56
18091 Off ch=1 n=b5 v=0
18091 On ch=1 n=d5 v=46
18227 Off ch=1 n=d3 v=0
18227 On ch=1 n=a3 v=30
18258 Par ch=1 c=64 v=0
18432 Off ch=1 n=d5 v=0
18432 On ch=1 n=a#5 v=56
18563 Par ch=1 c=64 v=127
18773 Off ch=1 n=a#5 v=0
18773 On ch=1 n=d6 v=38
18842 Off ch=1 n=a3 v=0
18842 On ch=1 n=f#4 v=30
19115 Off ch=1 n=d6 v=0
19115 On ch=1 n=a5 v=52
19456 Par ch=1 c=64 v=0
19456 Par ch=1 c=64 v=0
19456 Off ch=1 n=a5 v=0
19456 Off ch=1 n=f#4 v=0
19456 On ch=1 n=g5 v=53
19456 On ch=1 n=a4 v=35
19797 On ch=1 n=d5 v=52
20070 On ch=1 n=a3 v=34
20139 Off ch=1 n=d5 v=0
20139 Off ch=1 n=g5 v=0
20139 On ch=1 n=f#5 v=53
20480 Off ch=1 n=f#5 v=0
20480 On ch=1 n=d6 v=56
20685 Off ch=1 n=a3 v=0
20685 Off ch=1 n=a4 v=0
20685 On ch=1 n=d3 v=33
20821 On ch=1 n=f5 v=55
21163 Off ch=1 n=f5 v=0
21163 Off ch=1 n=d6 v=0
21163 On ch=1 n=d5 v=50
21299 On ch=1 n=a3 v=33
21504 Off ch=1 n=d5 v=0
21504 On ch=1 n=f#5 v=53
21845 Off ch=1 n=f#5 v=0
21845 On ch=1 n=d6 v=41
21914 Off ch=1 n=a3 v=0
21914 On ch=1 n=f#4 v=32
22187 Off ch=1 n=d6 v=0
22187 On ch=1 n=c#6 v=48
22528 Par ch=1 c=64 v=0
22528 Par ch=1 c=64 v=0
22528 Off ch=1 n=c#6 v=0
22528 Off ch=1 n=d3 v=0
22528 Off ch=1 n=f#4 v=0
22528 On ch=1 n=c6 v=48
22528 On ch=1 n=f#4 v=32
22869 Off ch=1 n=c6 v=0
22869 On ch=1 n=d#5 v=48
23142 On ch=1 n=g#3 v=31
23211 Off ch=1 n=d#5 v=0
23211 On ch=1 n=f#5 v=48
23552 Off ch=1 n=f#5 v=0
23552 On ch=1 n=c6 v=50
23757 Off ch=1 n=g#3 v=0
23757 Off ch=1 n=f#4 v=0
23757 On ch=1 n=g#2 v=30
23893 Off ch=1 n=c6 v=0
23893 On ch=1 n=g#4 v=50
24235 Off ch=1 n=g#4 v=0
24235 On ch=1 n=c5 v=46
24371 On ch=1 n=g#3 v=30
24576 Off ch=1 n=c5 v=0
24576 On ch=1 n=f5 v=48
24917 On ch=1 n=c5 v=37
24986 Off ch=1 n=g#2 v=0
24986 Off ch=1 n=g#3 v=0
24986 On ch=1 n=f#4 v=29
25259 Off ch=1 n=c5 v=0
25259 Off ch=1 n=f5 v=0
25259 On ch=1 n=d#5 v=43
25600 Par ch=1 c=64 v=127
25600 Par ch=1 c=64 v=0
25600 Par ch=1 c=64 v=0
25600 Par ch=1 c=64 v=0
25600 Off ch=1 n=d#5 v=0
25600 Off ch=1 n=f#4 v=0
25600 On ch=1 n=a#5 v=38
25600 On ch=1 n=f#4 v=17
25709 Par ch=1 c=64 v=0
25927 Par ch=1 c=64 v=127
25941 Off ch=1 n=a#5 v=0
25941 On ch=1 n=c5 v=38
26214 Off ch=1 n=f#4 v=0
26214 On ch=1 n=g#3 v=17
26283 Off ch=1 n=c5 v=0
26283 On ch=1 n=a5 v=34
26624 Off ch=1 n=a5 v=0
26624 On ch=1 n=f6 v=43
26829 Off ch=1 n=g#3 v=0
26829 On ch=1 n=c#3 v=17
26874 Par ch=1 c=64 v=0
26965 Off ch=1 n=f6 v=0
26965 On ch=1 n=a#5 v=38
27216 Par ch=1 c=64 v=127
27307 Off ch=1 n=a#5 v=0
27307 On ch=1 n=c5 v=34
27443 Off ch=1 n=c#3 v=0
27443 On ch=1 n=g#3 v=17
27648 Off ch=1 n=c5 v=0
27648 On ch=1 n=a5 v=38
27989 Off ch=1 n=a5 v=0
27989 On ch=1 n=d#6 v=34
28058 Off ch=1 n=g#3 v=0
28058 On ch=1 n=f#4 v=17
28331 Off ch=1 n=d#6 v=0
28331 On ch=1 n=g#5 v=34
28672 Par ch=1 c=64 v=127
28672 Par ch=1 c=64 v=0
28672 Par ch=1 c=64 v=0
28672 Par ch=1 c=64 v=0
28672 Off ch=1 n=g#5 v=0
28672 Off ch=1 n=f#4 v=0
28672 On ch=1 n=a5 v=39
28672 On ch=1 n=f4 v=17
28803 Par ch=1 c=64 v=0
29013 Off ch=1 n=a5 v=0
29013 On ch=1 n=c#5 v=34
29042 Par ch=1 c=64 v=127
29286 Off ch=1 n=f4 v=0
29286 On ch=1 n=g#3 v=17
29355 Off ch=1 n=c#5 v=0
29355 On ch=1 n=g#5 v=35
29673 Par ch=1 c=64 v=0
29696 Off ch=1 n=g#5 v=0
29696 On ch=1 n=c#6 v=38
29901 Par ch=1 c=64 v=127
29901 Off ch=1 n=g#3 v=0
29901 On ch=1 n=c#3 v=17
30037 Off ch=1 n=c#6 v=0
30037 On ch=1 n=c#5 v=34
30379 Off ch=1 n=c#5 v=0
30379 On ch=1 n=f5 v=34
30515 Off ch=1 n=c#3 v=0
30515 On ch=1 n=a3 v=32
30546 Par ch=1 c=64 v=0
30720 Off ch=1 n=f5 v=0
30720 On ch=1 n=g#5 v=38
30851 Par ch=1 c=64 v=127
31061 Off ch=1 n=g#5 v=0
31061 On ch=1 n=c#5 v=34
31130 On ch=1 n=f4 v=17
31403 Off ch=1 n=c#5 v=0
31403 On ch=1 n=g5 v=34
31744 Par ch=1 c=64 v=127
31744 Par ch=1 c=64 v=0
31744 Par ch=1 c=64 v=0
31744 Par ch=1 c=64 v=0
31744 Par ch=1 c=64 v=0
31744 Off ch=1 n=g5 v=0
31744 Off ch=1 n=f4 v=0
31744 On ch=1 n=a#5 v=38
31744 On ch=1 n=f#4 v=17
31853 Par ch=1 c=64 v=0
32071 Par ch=1 c=64 v=127
32085 Off ch=1 n=a#5 v=0
32085 On ch=1 n=c5 v=34
32358 Off ch=1 n=a3 v=0
32358 Off ch=1 n=f#4 v=0
32358 On ch=1 n=g#3 v=17
32427 Off ch=1 n=c5 v=0
32427 On ch=1 n=a5 v=34
32768 Off ch=1 n=a5 v=0
32768 On ch=1 n=f6 v=43
32973 Off ch=1 n=g#3 v=0
32973 On ch=1 n=c#3 v=17
33018 Par ch=1 c=64 v=0
33109 Off ch=1 n=f6 v=0
33109 On ch=1 n=a#5 v=34
33360 Par ch=1 c=64 v=127
33451 Off ch=1 n=a#5 v=0
33451 On ch=1 n=c5 v=34
33587 Off ch=1 n=c#3 v=0
33587 On ch=1 n=g#3 v=17
33792 Off ch=1 n=c5 v=0
33792 On ch=1 n=a5 v=38
34133 Off ch=1 n=a5 v=0
34133 On ch=1 n=d#6 v=34
34202 Off ch=1 n=g#3 v=0
34202 On ch=1 n=f#4 v=17
34475 Off ch=1 n=d#6 v=0
34475 On ch=1 n=g#5 v=39
34816 Par ch=1 c=64 v=127
34816 Par ch=1 c=64 v=0
34816 Par ch=1 c=64 v=0
34816 Par ch=1 c=64 v=0
34816 Par ch=1 c=64 v=0
34816 Off ch=1 n=g#5 v=0
34816 Off ch=1 n=f#4 v=0
34816 On ch=1 n=a5 v=36
34816 On ch=1 n=f4 v=17
34947 Par ch=1 c=64 v=0
35157 Off ch=1 n=a5 v=0
35157 On ch=1 n=c#5 v=27
35186 Par ch=1 c=64 v=127
35430 Off ch=1 n=f4 v=0
35430 On ch=1 n=g#3 v=18
35499 Off ch=1 n=c#5 v=0
35499 On ch=1 n=g#5 v=33
35817 Par ch=1 c=64 v=0
35840 Off ch=1 n=g#5 v=0
35840 On ch=1 n=c#6 v=39
36045 Par ch=1 c=64 v=127
36045 Off ch=1 n=g#3 v=0
36045 On ch=1 n=c#3 v=18
36181 Off ch=1 n=c#6 v=0
36181 On ch=1 n=c#5 v=36
36523 Off ch=1 n=c#5 v=0
36523 On ch=1 n=f5 v=36
36659 Off ch=1 n=c#3 v=0
36659 On ch=1 n=g#3 v=19
36690 Par ch=1 c=64 v=0
36864 Off ch=1 n=f5 v=0
36864 On ch=1 n=a5 v=41
36995 Par ch=1 c=64 v=127
37205 Off ch=1 n=a5 v=0
37205 On ch=1 n=f5 v=37
37274 Off ch=1 n=g#3 v=0
37274 On ch=1 n=f4 v=19
37547 Off ch=1 n=f5 v=0
37547 On ch=1 n=g#5 v=43
37888 Par ch=1 c=64 v=127
37888 Par ch=1 c=64 v=0
37888 Par ch=1 c=64 v=0
37888 Par ch=1 c=64 v=0
37888 Par ch=1 c=64 v=0
37888 Par ch=1 c=64 v=0
37888 Off ch=1 n=g#5 v=0
37888 Off ch=1 n=f4 v=0
37888 On ch=1 n=d#6 v=42
37997 Par ch=1 c=64 v=0
38215 Par ch=1 c=64 v=127
38229 Off ch=1 n=d#6 v=0
38229 On ch=1 n=f5 v=38
38502 On ch=1 n=b4 v=25
38571 Off ch=1 n=f5 v=0
38571 On ch=1 n=d6 v=39
38912 Off ch=1 n=d6 v=0
38912 On ch=1 n=a#6 v=49
39117 Off ch=1 n=b4 v=0
39117 On ch=1 n=c#4 v=26
39162 Par ch=1 c=64 v=0
39253 On ch=1 n=d#6 v=50
39504 Par ch=1 c=64 v=127
39595 Off ch=1 n=d#6 v=0
39595 Off ch=1 n=a#6 v=0
39595 On ch=1 n=f5 v=42
39731 Off ch=1 n=c#4 v=0
39731 On ch=1 n=b4 v=28
39936 Off ch=1 n=f5 v=0
39936 On ch=1 n=d6 v=52
40277 Off ch=1 n=d6 v=0
40277 On ch=1 n=g#6 v=36
40346 Off ch=1 n=b4 v=0
40346 On ch=1 n=f5 v=29
40619 On ch=1 n=c#6 v=51
40960 Par ch=1 c=64 v=127
40960 Par ch=1 c=64 v=0
40960 Par ch=1 c=64 v=0
40960 Par ch=1 c=64 v=0
40960 Par ch=1 c=64 v=0
40960 Par ch=1 c=64 v=0
40960 Off ch=1 n=c#6 v=0
40960 Off ch=1 n=g#6 v=0
40960 Off ch=1 n=f5 v=0
40960 On ch=1 n=f#6 v=52
40960 On ch=1 n=c#6 v=30
41091 Par ch=1 c=64 v=0
41301 Off ch=1 n=f#6 v=0
41301 On ch=1 n=g5 v=46
41330 Par ch=1 c=64 v=127
41574 Off ch=1 n=c#6 v=0
41574 On ch=1 n=c#5 v=30
41643 Off ch=1 n=g5 v=0
41643 On ch=1 n=f6 v=47
41961 Par ch=1 c=64 v=0
41984 Off ch=1 n=f6 v=0
41984 On ch=1 n=b6 v=56
42189 Par ch=1 c=64 v=127
42189 Off ch=1 n=c#5 v=0
42189 On ch=1 n=g4 v=30
42325 On ch=1 n=f#6 v=56
42667 Off ch=1 n=f#6 v=0
42667 Off ch=1 n=b6 v=0
42667 On ch=1 n=g5 v=46
42803 Off ch=1 n=g4 v=0
42803 On ch=1 n=a3 v=30
42834 Par ch=1 c=64 v=0
43008 Off ch=1 n=g5 v=0
43008 On ch=1 n=f6 v=56
43139 Par ch=1 c=64 v=127
43349 Off ch=1 n=f6 v=0
43349 On ch=1 n=a6 v=38
43418 Off ch=1 n=a3 v=0
43691 On ch=1 n=e6 v=52
44032 Par ch=1 c=64 v=127
44032 Par ch=1 c=64 v=0
44032 Par ch=1 c=64 v=0
44032 Par ch=1 c=64 v=0
44032 Par ch=1 c=64 v=0
44032 Par ch=1 c=64 v=0
44032 Par ch=1 c=64 v=0
44032 Par ch=1 c=64 v=0
44032 Off ch=1 n=e6 v=0
44032 Off ch=1 n=a6 v=0
44032 On ch=1 n=f6 v=49
44141 Par ch=1 c=64 v=0
44359 Par ch=1 c=64 v=127
44373 Off ch=1 n=f6 v=0
44373 On ch=1 n=g5 v=45
44646 On ch=1 n=c#5 v=32
44715 Off ch=1 n=g5 v=0
44715 On ch=1 n=e6 v=46
45056 Off ch=1 n=e6 v=0
45056 On ch=1 n=c7 v=56
45261 Off ch=1 n=c#5 v=0
45261 On ch=1 n=d#4 v=33
45306 Par ch=1 c=64 v=0
45397 On ch=1 n=f6 v=57
45648 Par ch=1 c=64 v=127
45739 Off ch=1 n=f6 v=0
45739 Off ch=1 n=c7 v=0
45739 On ch=1 n=g5 v=49
45875 Off ch=1 n=d#4 v=0
45875 On ch=1 n=c#5 v=35
46080 Off ch=1 n=g5 v=0
46080 On ch=1 n=e6 v=59
46421 Off ch=1 n=e6 v=0
46421 On ch=1 n=a#6 v=43
46490 Off ch=1 n=c#5 v=0
46490 On ch=1 n=g5 v=36
46763 On ch=1 n=d#6 v=58
47104 Par ch=1 c=64 v=127
47104 Par ch=1 c=64 v=0
47104 Par ch=1 c=64 v=0
47104 Par ch=1 c=64 v=0
47104 Par ch=1 c=64 v=0
47104 Par ch=1 c=64 v=0
47104 Par ch=1 c=64 v=0
47104 Par ch=1 c=64 v=0
47104 Off ch=1 n=d#6 v=0
47104 Off ch=1 n=a#6 v=0
47104 Off ch=1 n=g5 v=0
47104 On ch=1 n=g#6 v=59
47104 On ch=1 n=d#6 v=37
47235 Par ch=1 c=64 v=0
47445 Off ch=1 n=g#6 v=0
47445 On ch=1 n=a5 v=53
47474 Par ch=1 c=64 v=127
47718 Off ch=1 n=d#6 v=0
47718 On ch=1 n=d#5 v=37
47787 Off ch=1 n=a5 v=0
47787 On ch=1 n=g6 v=54
48105 Par ch=1 c=64 v=0
48128 Off ch=1 n=g6 v=0
48128 On ch=1 n=c#7 v=63
48333 Par ch=1 c=64 v=127
48333 Off ch=1 n=d#5 v=0
48333 On ch=1 n=a4 v=37
48469 On ch=1 n=g#6 v=63
48811 Off ch=1 n=g#6 v=0
48811 Off ch=1 n=c#7 v=0
48811 On ch=1 n=a5 v=53
48947 Off ch=1 n=a4 v=0
48947 On ch=1 n=b3 v=37
48978 Par ch=1 c=64 v=0
49152 Off ch=1 n=a5 v=0
49152 On ch=1 n=g6 v=63
49283 Par ch=1 c=64 v=127
49493 Off ch=1 n=g6 v=0
49493 On ch=1 n=b6 v=45
49562 Off ch=1 n=b3 v=0
49835 On ch=1 n=f#6 v=59
50176 Par ch=1 c=64 v=127
50176 Par ch=1 c=64 v=0
50176 Par ch=1 c=64 v=0
50176 Par ch=1 c=64 v=0
50176 Par ch=1 c=64 v=127
50176 Par ch=1 c=64 v=0
50176 Par ch=1 c=64 v=0
50176 Par ch=1 c=64 v=0
50176 Par ch=1 c=64 v=127
50176 Par ch=1 c=64 v=0
50176 Par ch=1 c=64 v=0
50176 Par ch=1 c=64 v=0
50176 Par ch=1 c=64 v=0
50176 Par ch=1 c=64 v=0
50176 Par ch=1 c=64 v=0
50176 Par ch=1 c=64 v=0
50176 Par ch=1 c=64 v=0
50176 Par ch=1 c=64 v=0
50176 Par ch=1 c=64 v=0
50176 Par ch=1 c=64 v=0
50176 Par ch=1 c=64 v=0
50176 Par ch=1 c=64 v=0
50176 Off ch=1 n=f#6 v=0
50176 Off ch=1 n=b6 v=0
50176 On ch=1 n=c#6 v=48
50285 Par ch=1 c=64 v=0
50285 Par ch=1 c=64 v=0
50285 Par ch=1 c=64 v=0
50503 Par ch=1 c=64 v=127
50503 Par ch=1 c=64 v=127
50503 Par ch=1 c=64 v=127
50517 On ch=1 n=d#5 v=43
50790 On ch=1 n=a4 v=30
50859 Off ch=1 n=d#5 v=0
50859 Off ch=1 n=c#6 v=0
50859 On ch=1 n=c6 v=49
51200 On ch=1 n=f#6 v=50
51405 Off ch=1 n=a4 v=0
51405 On ch=1 n=b3 v=31
51450 Par ch=1 c=64 v=0
51450 Par ch=1 c=64 v=0
51450 Par ch=1 c=64 v=0
51541 Off ch=1 n=c6 v=0
51541 On ch=1 n=b5 v=51
51792 Par ch=1 c=64 v=127
51792 Par ch=1 c=64 v=127
51792 Par ch=1 c=64 v=127
51883 On ch=1 n=d#5 v=45
52019 Off ch=1 n=b3 v=0
52019 On ch=1 n=d#4 v=32
52224 Off ch=1 n=d#5 v=0
52224 Off ch=1 n=b5 v=0
52224 Off ch=1 n=f#6 v=0
52224 On ch=1 n=a#5 v=52
52565 On ch=1 n=g6 v=53
52634 Off ch=1 n=d#4 v=0
52634 On ch=1 n=d#5 v=33
52907 Off ch=1 n=a#5 v=0
52907 Off ch=1 n=g6 v=0
52907 On ch=1 n=a5 v=47
53248 Par ch=1 c=64 v=127
53248 Par ch=1 c=64 v=0
53248 Par ch=1 c=64 v=0
53248 Par ch=1 c=64 v=0
53248 Par ch=1 c=64 v=127
53248 Par ch=1 c=64 v=0
53248 Par ch=1 c=64 v=0
53248 Par ch=1 c=64 v=0
53248 Par ch=1 c=64 v=127
53248 Par ch=1 c=64 v=0
53248 Par ch=1 c=64 v=0
53248 Par ch=1 c=64 v=0
53248 Par ch=1 c=64 v=0
53248 Par ch=1 c=64 v=0
53248 Par ch=1 c=64 v=0
53248 Par ch=1 c=64 v=0
53248 Par ch=1 c=64 v=0
53248 Par ch=1 c=64 v=0
53248 Par ch=1 c=64 v=0
53248 Par ch=1 c=64 v=0
53248 Par ch=1 c=64 v=0
53248 Par ch=1 c=64 v=0
53248 Off ch=1 n=a5 v=0
53248 Off ch=1 n=d#5 v=0
53248 On ch=1 n=f#5 v=34
53357 Par ch=1 c=64 v=0
53379 Par ch=1 c=64 v=0
53379 Par ch=1 c=64 v=0
53575 Par ch=1 c=64 v=127
53589 On ch=1 n=g#5 v=45
53618 Par ch=1 c=64 v=127
53618 Par ch=1 c=64 v=127
53862 Off ch=1 n=f#5 v=0
53862 On ch=1 n=g#4 v=34
53931 Off ch=1 n=g#5 v=0
53931 On ch=1 n=d6 v=51
54249 Par ch=1 c=64 v=0
54249 Par ch=1 c=64 v=0
54272 Off ch=1 n=d6 v=0
54272 On ch=1 n=g#6 v=52
54477 Par ch=1 c=64 v=127
54477 Par ch=1 c=64 v=127
54477 Off ch=1 n=g#4 v=0
54477 On ch=1 n=c4 v=35
54522 Par ch=1 c=64 v=0
54613 On ch=1 n=f6 v=53
54864 Par ch=1 c=64 v=127
54955 On ch=1 n=g#5 v=47
55091 Off ch=1 n=c4 v=0
55091 On ch=1 n=g#4 v=36
55122 Par ch=1 c=64 v=0
55122 Par ch=1 c=64 v=0
55296 Off ch=1 n=g#5 v=0
55296 Off ch=1 n=f6 v=0
55296 Off ch=1 n=g#6 v=0
55296 On ch=1 n=e6 v=54
55427 Par ch=1 c=64 v=127
55427 Par ch=1 c=64 v=127
55637 On ch=1 n=g#6 v=55
55706 Off ch=1 n=g#4 v=0
55706 On ch=1 n=f#5 v=37
55979 Off ch=1 n=e6 v=0
55979 Off ch=1 n=g#6 v=0
55979 On ch=1 n=d#6 v=55
56320 Par ch=1 c=64 v=127
56320 Par ch=1 c=64 v=0
56320 Par ch=1 c=64 v=0
56320 Par ch=1 c=64 v=0
56320 Par ch=1 c=64 v=127
56320 Par ch=1 c=64 v=0
56320 Par ch=1 c=64 v=0
56320 Par ch=1 c=64 v=0
56320 Par ch=1 c=64 v=0
56320 Par ch=1 c=64 v=0
56320 Par ch=1 c=64 v=0
56320 Par ch=1 c=64 v=0
56320 Par ch=1 c=64 v=0
56320 Par ch=1 c=64 v=0
56320 Off ch=1 n=d#6 v=0
56320 Off ch=1 n=f#5 v=0
56320 On ch=1 n=a#5 v=54
56429 Par ch=1 c=64 v=0
56429 Par ch=1 c=64 v=0
56647 Par ch=1 c=64 v=127
56647 Par ch=1 c=64 v=127
56661 On ch=1 n=f#5 v=54
56934 On ch=1 n=g#4 v=39
57003 Off ch=1 n=f#5 v=0
57003 Off ch=1 n=a#5 v=0
57003 On ch=1 n=a5 v=54
57344 On ch=1 n=d#6 v=55
57549 On ch=1 n=c4 v=40
57594 Par ch=1 c=64 v=0
57594 Par ch=1 c=64 v=0
57685 Off ch=1 n=a5 v=0
57685 On ch=1 n=g#5 v=49
57936 Par ch=1 c=64 v=127
57936 Par ch=1 c=64 v=127
58027 Off ch=1 n=g#5 v=0
58027 On ch=1 n=g#4 v=50
58027 On ch=1 n=g5 v=48
58163 Off ch=1 n=g#4 v=0
58163 On ch=1 n=g#4 v=41
58368 Off ch=1 n=g#4 v=0
58368 Off ch=1 n=g5 v=0
58368 Off ch=1 n=d#6 v=0
58368 On ch=1 n=g5 v=51
58709 On ch=1 n=e6 v=57
58778 Off ch=1 n=c4 v=0
58778 Off ch=1 n=g#4 v=0
59051 Off ch=1 n=g5 v=0
59051 On ch=1 n=f#5 v=52
59392 Par ch=1 c=64 v=127
59392 Par ch=1 c=64 v=0
59392 Par ch=1 c=64 v=0
59392 Par ch=1 c=64 v=0
59392 Par ch=1 c=64 v=127
59392 Par ch=1 c=64 v=0
59392 Par ch=1 c=64 v=0
59392 Par ch=1 c=64 v=0
59392 Par ch=1 c=64 v=0
59392 Par ch=1 c=64 v=0
59392 Par ch=1 c=64 v=0
59392 Par ch=1 c=64 v=0
59392 Par ch=1 c=64 v=0
59392 Par ch=1 c=64 v=0
59392 Off ch=1 n=f#5 v=0
59392 Off ch=1 n=e6 v=0
59392 On ch=1 n=f5 v=43
59501 Par ch=1 c=64 v=0
59523 Par ch=1 c=64 v=0
59719 Par ch=1 c=64 v=127
59733 On ch=1 n=f5 v=46
59762 Par ch=1 c=64 v=127
60006 On ch=1 n=g#4 v=43
60075 On ch=1 n=g#5 v=53
60393 Par ch=1 c=64 v=0
60416 Off ch=1 n=f5 v=0
60416 Off ch=1 n=g#5 v=0
60416 On ch=1 n=f6 v=54
60621 Par ch=1 c=64 v=127
60621 Off ch=1 n=g#4 v=0
60621 Off ch=1 n=f5 v=0
60621 On ch=1 n=c#4 v=44
60666 Par ch=1 c=64 v=0
60757 On ch=1 n=c#6 v=54
61008 Par ch=1 c=64 v=127
61099 On ch=1 n=f5 v=49
61235 On ch=1 n=g#4 v=45
61266 Par ch=1 c=64 v=0
61440 Off ch=1 n=f5 v=0
61440 Off ch=1 n=c#6 v=0
61440 Off ch=1 n=f6 v=0
61440 On ch=1 n=c6 v=56
61571 Par ch=1 c=64 v=127
61781 Off ch=1 n=c6 v=0
61781 On ch=1 n=f6 v=56
61850 Off ch=1 n=g#4 v=0
61850 On ch=1 n=f5 v=46
62123 Off ch=1 n=f6 v=0
62123 On ch=1 n=b5 v=51
62464 Par ch=1 c=64 v=127
62464 Par ch=1 c=64 v=0
62464 Par ch=1 c=64 v=0
62464 Par ch=1 c=64 v=0
62464 Par ch=1 c=64 v=0
62464 Par ch=1 c=64 v=0
62464 Off ch=1 n=b5 v=0
62464 Off ch=1 n=c#4 v=0
62464 Off ch=1 n=f5 v=0
62464 On ch=1 n=g#5 v=47
62573 Par ch=1 c=64 v=0
62791 Par ch=1 c=64 v=127
62805 On ch=1 n=a#5 v=52
63078 On ch=1 n=a#4 v=48
63147 Off ch=1 n=a#5 v=0
63147 On ch=1 n=e6 v=59
63488 Off ch=1 n=e6 v=0
63488 On ch=1 n=a#6 v=60
63693 Off ch=1 n=a#4 v=0
63693 Off ch=1 n=g#5 v=0
63693 On ch=1 n=d4 v=49
63738 Par ch=1 c=64 v=0
63829 Off ch=1 n=a#6 v=0
63829 On ch=1 n=g6 v=60
64080 Par ch=1 c=64 v=127
64171 Off ch=1 n=g6 v=0
64171 On ch=1 n=g#5 v=55
64307 On ch=1 n=a#4 v=50
64512 Off ch=1 n=g#5 v=0
64512 On ch=1 n=f#6 v=62
64853 Off ch=1 n=f#6 v=0
64853 On ch=1 n=a#6 v=62
64922 Off ch=1 n=a#4 v=0
64922 On ch=1 n=g#5 v=51
65195 Off ch=1 n=a#6 v=0
65195 On ch=1 n=f6 v=57
65536 Par ch=1 c=64 v=127
65536 Par ch=1 c=64 v=0
65536 Off ch=1 n=f6 v=0
65536 Off ch=1 n=d4 v=0
65536 Off ch=1 n=g#5 v=0
65536 On ch=1 n=g#5 v=52
65718 Par ch=1 c=64 v=0
65877 On ch=1 n=c#6 v=62
65900 Par ch=1 c=64 v=127
66150 On ch=1 n=c#5 v=51
66219 Off ch=1 n=c#6 v=0
66219 On ch=1 n=c7 v=62
66560 Off ch=1 n=c7 v=0
66560 On ch=1 n=f7 v=76
66765 Off ch=1 n=c#5 v=0
66765 Off ch=1 n=g#5 v=0
66765 On ch=1 n=d#4 v=50
66901 Off ch=1 n=f7 v=0
66901 On ch=1 n=a6 v=68
67243 Off ch=1 n=a6 v=0
67243 On ch=1 n=c#6 v=60
67379 On ch=1 n=c#5 v=50
67584 Off ch=1 n=c#6 v=0
67584 On ch=1 n=c7 v=67
67925 Off ch=1 n=c7 v=0
67925 On ch=1 n=f7 v=73
67994 Off ch=1 n=c#5 v=0
67994 On ch=1 n=g#5 v=49
68267 Off ch=1 n=f7 v=0
68267 On ch=1 n=a#6 v=59
68608 Par ch=1 c=64 v=127
68608 Par ch=1 c=64 v=0
68608 Par ch=1 c=64 v=0
68608 Off ch=1 n=a#6 v=0
68608 Off ch=1 n=g#5 v=0
68608 On ch=1 n=g#5 v=48
68790 Par ch=1 c=64 v=0
68949 On ch=1 n=g#5 v=51
68972 Par ch=1 c=64 v=127
69222 On ch=1 n=c#5 v=47
69291 Off ch=1 n=g#5 v=0
69291 On ch=1 n=g6 v=58
69632 Off ch=1 n=g6 v=0
69632 On ch=1 n=d#7 v=70
69837 Off ch=1 n=d#4 v=0
69837 Off ch=1 n=c#5 v=0
69837 Off ch=1 n=g#5 v=0
69837 On ch=1 n=d#4 v=47
69973 Off ch=1 n=d#7 v=0
69973 On ch=1 n=e6 v=63
70315 Off ch=1 n=e6 v=0
70315 On ch=1 n=g#5 v=56
70451 On ch=1 n=c#5 v=46
70656 Off ch=1 n=g#5 v=0
70656 On ch=1 n=g6 v=63
70997 Off ch=1 n=g6 v=0
70997 On ch=1 n=c#7 v=68
71066 Off ch=1 n=d#4 v=0
71066 Off ch=1 n=c#5 v=0
71066 On ch=1 n=g#5 v=46
71339 Off ch=1 n=c#7 v=0
71339 On ch=1 n=f6 v=55
71680 Par ch=1 c=64 v=127
71680 Par ch=1 c=64 v=0
71680 Par ch=1 c=64 v=0
71680 Par ch=1 c=64 v=0
71680 Off ch=1 n=f6 v=0
71680 Off ch=1 n=g#5 v=0
71680 On ch=1 n=g5 v=52
71862 Par ch=1 c=64 v=0
72021 On ch=1 n=g5 v=48
72044 Par ch=1 c=64 v=127
72294 On ch=1 n=c#5 v=52
72363 Off ch=1 n=g5 v=0
72363 On ch=1 n=c#6 v=54
72704 Off ch=1 n=c#6 v=0
72704 On ch=1 n=c7 v=65
72909 Off ch=1 n=c#5 v=0
72909 Off ch=1 n=g5 v=0
72909 On ch=1 n=d#4 v=51
73045 Off ch=1 n=c7 v=0
73045 On ch=1 n=f6 v=59
73387 Off ch=1 n=f6 v=0
73387 On ch=1 n=g5 v=52
73523 On ch=1 n=c#5 v=50
73728 Off ch=1 n=g5 v=0
73728 On ch=1 n=f6 v=58
74069 Off ch=1 n=f6 v=0
74069 On ch=1 n=c7 v=63
74138 Off ch=1 n=d#4 v=0
74138 Off ch=1 n=c#5 v=0
74138 On ch=1 n=g5 v=49
74411 Off ch=1 n=c7 v=0
74411 On ch=1 n=d#6 v=51
74752 Par ch=1 c=64 v=127
74752 Par ch=1 c=64 v=0
74752 Off ch=1 n=d#6 v=0
74752 Off ch=1 n=g5 v=0
74752 On ch=1 n=f6 v=71
74752 On ch=1 n=d#4 v=56
74752 On ch=1 n=c#5 v=68
74905 Par ch=1 c=64 v=0
75093 Off ch=1 n=f6 v=0
75093 On ch=1 n=g5 v=59
75166 Par ch=1 c=64 v=127
75435 Off ch=1 n=g5 v=0
75435 On ch=1 n=e6 v=64
75776 Off ch=1 n=e6 v=0
75776 On ch=1 n=c7 v=70
75776 Off ch=1 n=d#4 v=0
75776 Off ch=1 n=c#5 v=0
75776 On ch=1 n=g#2 v=61
75776 On ch=1 n=g#3 v=55
76117 Off ch=1 n=c7 v=0
76117 On ch=1 n=d#6 v=64
76459 Off ch=1 n=d#6 v=0
76459 On ch=1 n=g5 v=58
76800 Par ch=1 c=64 v=0
76800 Off ch=1 n=g5 v=0
76800 On ch=1 n=d6 v=63
76800 On ch=1 n=d#4 v=54
76800 On ch=1 n=e5 v=75
77040 Par ch=1 c=64 v=127
77141 Off ch=1 n=d6 v=0
77141 On ch=1 n=a#6 v=68
77483 Off ch=1 n=a#6 v=0
77483 On ch=1 n=c#6 v=63
77568 Off ch=1 n=g#2 v=0
77568 Off ch=1 n=g#3 v=0
77568 Off ch=1 n=d#4 v=0
77568 Off ch=1 n=e5 v=0
77568 On ch=1 n=d#5 v=73
77824 Par ch=1 c=64 v=127
77824 Par ch=1 c=64 v=0
77824 Par ch=1 c=64 v=0
77824 Off ch=1 n=c#6 v=0
77824 Off ch=1 n=d#5 v=0
77824 On ch=1 n=c6 v=62
77824 On ch=1 n=d#4 v=53
77824 On ch=1 n=d5 v=73
77977 Par ch=1 c=64 v=0
78165 Off ch=1 n=c6 v=0
78165 On ch=1 n=g#5 v=57
78238 Par ch=1 c=64 v=127
78507 Off ch=1 n=g#5 v=0
78507 On ch=1 n=a#5 v=57
78848 Off ch=1 n=a#5 v=0
78848 On ch=1 n=g#6 v=66
78848 Off ch=1 n=d#4 v=0
78848 Off ch=1 n=d5 v=0
78848 On ch=1 n=g#2 v=58
78848 On ch=1 n=g#3 v=52
79189 Off ch=1 n=g#6 v=0
79189 On ch=1 n=b5 v=61
79531 Off ch=1 n=b5 v=0
79531 On ch=1 n=g#5 v=56
79872 Par ch=1 c=64 v=0
79872 Off ch=1 n=g#5 v=0
79872 On ch=1 n=c#6 v=60
79872 On ch=1 n=d#4 v=52
79872 On ch=1 n=b4 v=71
80112 Par ch=1 c=64 v=127
80213 Off ch=1 n=c#6 v=0
80213 On ch=1 n=g#6 v=65
80555 Off ch=1 n=g#6 v=0
80555 On ch=1 n=d6 v=55
80640 Off ch=1 n=g#2 v=0
80640 Off ch=1 n=g#3 v=0
80640 Off ch=1 n=d#4 v=0
80640 Off ch=1 n=b4 v=0
80640 On ch=1 n=c5 v=70
80896 Par ch=1 c=64 v=127
80896 Par ch=1 c=64 v=0
80896 Par ch=1 c=64 v=0
80896 Off ch=1 n=d6 v=0
80896 Off ch=1 n=c5 v=0
80896 On ch=1 n=c6 v=64
80896 On ch=1 n=d#4 v=51
80896 On ch=1 n=d5 v=70
81049 Par ch=1 c=64 v=0
81237 Off ch=1 n=c6 v=0
81237 On ch=1 n=g#5 v=54
81310 Par ch=1 c=64 v=127
81579 Off ch=1 n=g#5 v=0
81579 On ch=1 n=a#5 v=58
81920 Off ch=1 n=a#5 v=0
81920 On ch=1 n=g6 v=63
81920 Off ch=1 n=d#4 v=0
81920 Off ch=1 n=d5 v=0
81920 On ch=1 n=g#2 v=55
81920 On ch=1 n=g#3 v=50
82261 Off ch=1 n=g6 v=0
82261 On ch=1 n=b5 v=58
82603 Off ch=1 n=b5 v=0
82603 On ch=1 n=g#5 v=53
82944 Par ch=1 c=64 v=0
82944 Off ch=1 n=g#5 v=0
82944 On ch=1 n=c#6 v=57
82944 On ch=1 n=d#4 v=49
82944 On ch=1 n=b4 v=68
83184 Par ch=1 c=64 v=127
83285 Off ch=1 n=c#6 v=0
83285 On ch=1 n=f6 v=62
83627 Off ch=1 n=f6 v=0
83627 On ch=1 n=d6 v=57
83712 Off ch=1 n=g#2 v=0
83712 Off ch=1 n=g#3 v=0
83712 Off ch=1 n=d#4 v=0
83712 Off ch=1 n=b4 v=0
83712 On ch=1 n=c5 v=66
83968 Par ch=1 c=64 v=127
83968 Par ch=1 c=64 v=0
83968 Par ch=1 c=64 v=0
83968 Off ch=1 n=d6 v=0
83968 Off ch=1 n=c5 v=0
83968 On ch=1 n=f6 v=56
83968 On ch=1 n=d#4 v=48
83968 On ch=1 n=c#5 v=66
84121 Par ch=1 c=64 v=0
84309 Off ch=1 n=f6 v=0
84309 On ch=1 n=g5 v=51
84382 Par ch=1 c=64 v=127
84651 Off ch=1 n=g5 v=0
84651 On ch=1 n=a5 v=51
84992 Off ch=1 n=a5 v=0
84992 On ch=1 n=f6 v=60
84992 Off ch=1 n=d#4 v=0
84992 Off ch=1 n=c#5 v=0
84992 On ch=1 n=g#2 v=52
84992 On ch=1 n=g#3 v=47
85333 Off ch=1 n=f6 v=0
85333 On ch=1 n=c6 v=55
85675 Off ch=1 n=c6 v=0
85675 On ch=1 n=g5 v=50
86016 Par ch=1 c=64 v=0
86016 Off ch=1 n=g5 v=0
86016 On ch=1 n=c6 v=54
86016 Off ch=1 n=g#2 v=0
86016 Off ch=1 n=g#3 v=0
86256 Par ch=1 c=64 v=127
86357 Off ch=1 n=c6 v=0
86357 On ch=1 n=d#6 v=58
86699 Off ch=1 n=d#6 v=0
86699 On ch=1 n=a#5 v=50
87040 Par ch=1 c=64 v=127
87040 Par ch=1 c=64 v=0
87040 Off ch=1 n=a#5 v=0
87040 On ch=1 n=f5 v=52
87040 On ch=1 n=d#3 v=26
87040 On ch=1 n=d#4 v=35
87177 Par ch=1 c=64 v=0
87381 On ch=1 n=c#5 v=44
87450 Par ch=1 c=64 v=127
87723 Off ch=1 n=c#5 v=0
87723 Off ch=1 n=f5 v=0
87723 On ch=1 n=e5 v=49
88064 On ch=1 n=c6 v=57
88064 Off ch=1 n=d#3 v=0
88064 Off ch=1 n=d#4 v=0
88064 On ch=1 n=g#2 v=28
88064 On ch=1 n=g#3 v=38
88405 Off ch=1 n=e5 v=0
88405 Off ch=1 n=c6 v=0
88405 On ch=1 n=d#5 v=54
88747 Off ch=1 n=d#5 v=0
88747 On ch=1 n=g4 v=49
89088 Par ch=1 c=64 v=0
89088 On ch=1 n=d5 v=57
89088 Off ch=1 n=g#2 v=0
89088 Off ch=1 n=g#3 v=0
89429 Off ch=1 n=g4 v=0
89429 On ch=1 n=a#5 v=57
89771 Off ch=1 n=d5 v=0
89771 Off ch=1 n=a#5 v=0
89771 On ch=1 n=c#5 v=60
90112 Par ch=1 c=64 v=127
90112 Par ch=1 c=64 v=0
90112 Par ch=1 c=64 v=0
90112 Off ch=1 n=c#5 v=0
90112 On ch=1 n=c5 v=61
90112 On ch=1 n=e3 v=38
90112 On ch=1 n=e4 v=50
90249 Par ch=1 c=64 v=0
90453 On ch=1 n=g#4 v=53
90522 Par ch=1 c=64 v=127
90795 Off ch=1 n=g#4 v=0
90795 Off ch=1 n=c5 v=0
90795 On ch=1 n=a#4 v=52
91136 Off ch=1 n=a#4 v=0
91136 On ch=1 n=g#5 v=52
91136 Off ch=1 n=e3 v=0
91136 Off ch=1 n=e4 v=0
91136 On ch=1 n=g#2 v=36
91136 On ch=1 n=g#3 v=47
91477 Off ch=1 n=g#5 v=0
91477 On ch=1 n=b4 v=52
91819 On ch=1 n=g#4 v=46
92160 Par ch=1 c=64 v=0
92160 Off ch=1 n=g#4 v=0
92160 Off ch=1 n=b4 v=0
92160 On ch=1 n=c#5 v=48
92160 Off ch=1 n=g#2 v=0
92160 Off ch=1 n=g#3 v=0
92501 On ch=1 n=g#5 v=50
92843 Off ch=1 n=c#5 v=0
92843 Off ch=1 n=g#5 v=0
92843 On ch=1 n=d5 v=41
93184 Par ch=1 c=64 v=127
93184 Par ch=1 c=64 v=0
93184 Par ch=1 c=64 v=0
93184 Off ch=1 n=d5 v=0
93184 On ch=1 n=f5 v=46
93184 On ch=1 n=d#3 v=27
93184 On ch=1 n=d#4 v=39
93321 Par ch=1 c=64 v=0
93525 On ch=1 n=c#5 v=38
93594 Par ch=1 c=64 v=127
93867 Off ch=1 n=c#5 v=0
93867 Off ch=1 n=f5 v=0
93867 On ch=1 n=e5 v=43
94208 On ch=1 n=c6 v=51
94208 Off ch=1 n=d#3 v=0
94208 Off ch=1 n=d#4 v=0
94208 On ch=1 n=g#2 v=27
94208 On ch=1 n=g#3 v=39
94549 Off ch=1 n=e5 v=0
94549 Off ch=1 n=c6 v=0
94549 On ch=1 n=d#5 v=48
94891 On ch=1 n=g4 v=43
95232 Par ch=1 c=64 v=0
95232 Off ch=1 n=d#5 v=0
95232 On ch=1 n=d5 v=51
95232 Off ch=1 n=g#2 v=0
95232 Off ch=1 n=g#3 v=0
95573 Off ch=1 n=g4 v=0
95573 On ch=1 n=a#5 v=51
95915 Off ch=1 n=d5 v=0
95915 Off ch=1 n=a#5 v=0
95915 On ch=1 n=c#5 v=54
96256 Par ch=1 c=64 v=127
96256 Par ch=1 c=64 v=0
96256 Par ch=1 c=64 v=0
96256 Off ch=1 n=c#5 v=0
96256 On ch=1 n=c5 v=42
96256 On ch=1 n=e3 v=32
96256 On ch=1 n=e4 v=44
96393 Par ch=1 c=64 v=0
96597 On ch=1 n=g#4 v=47
96666 Par ch=1 c=64 v=127
96939 Off ch=1 n=g#4 v=0
96939 Off ch=1 n=c5 v=0
96939 On ch=1 n=a#4 v=46
97280 Off ch=1 n=a#4 v=0
97280 On ch=1 n=g#5 v=46
97280 Off ch=1 n=e3 v=0
97280 Off ch=1 n=e4 v=0
97280 On ch=1 n=g#2 v=32
97280 On ch=1 n=g#3 v=44
97621 Off ch=1 n=g#5 v=0
97621 On ch=1 n=b4 v=46
97963 On ch=1 n=g#4 v=40
98304 Par ch=1 c=64 v=0
98304 Off ch=1 n=g#4 v=0
98304 Off ch=1 n=b4 v=0
98304 On ch=1 n=c#5 v=42
98304 Off ch=1 n=g#2 v=0
98304 Off ch=1 n=g#3 v=0
98645 On ch=1 n=g#5 v=44
98987 Off ch=1 n=c#5 v=0
98987 Off ch=1 n=g#5 v=0
98987 On ch=1 n=d5 v=35
99328 Par ch=1 c=64 v=0
99328 Par ch=1 c=64 v=0
99328 Off ch=1 n=d5 v=0
99328 On ch=1 n=d#5 v=48
99328 On ch=1 n=d#3 v=29
99328 On ch=1 n=d#4 v=38
99669 On ch=1 n=g#4 v=41
99699 Off ch=1 n=d#5 v=0
100011 On ch=1 n=c5 v=42
100041 Off ch=1 n=g#4 v=0
100352 On ch=1 n=g#5 v=45
100352 Off ch=1 n=d#3 v=0
100352 Off ch=1 n=d#4 v=0
100352 On ch=1 n=g#2 v=25
100352 On ch=1 n=g#3 v=34
100382 Off ch=1 n=c5 v=0
100693 On ch=1 n=c5 v=42
100723 Off ch=1 n=g#5 v=0
101035 On ch=1 n=g#4 v=41
101065 Off ch=1 n=c5 v=0
101376 On ch=1 n=c5 v=45
101376 Off ch=1 n=g#2 v=0
101376 Off ch=1 n=g#3 v=0
101376 On ch=1 n=d3 v=21
101376 On ch=1 n=d4 v=30
101406 Off ch=1 n=g#4 v=0
101717 On ch=1 n=g5 v=45
101747 Off ch=1 n=c5 v=0
102059 On ch=1 n=f5 v=39
102089 Off ch=1 n=g5 v=0
102400 Par ch=1 c=64 v=0
102400 Par ch=1 c=64 v=0
102400 Off ch=1 n=d3 v=0
102400 Off ch=1 n=d4 v=0
102400 On ch=1 n=c5 v=48
102400 On ch=1 n=d#3 v=29
102400 On ch=1 n=d#4 v=38
102430 Off ch=1 n=f5 v=0
102741 On ch=1 n=g#4 v=41
102771 Off ch=1 n=c5 v=0
103083 On ch=1 n=c5 v=42
103113 Off ch=1 n=g#4 v=0
103424 On ch=1 n=g#5 v=45
103424 Off ch=1 n=d#3 v=0
103424 Off ch=1 n=d#4 v=0
103424 On ch=1 n=g#2 v=25
103424 On ch=1 n=g#3 v=34
103454 Off ch=1 n=c5 v=0
103765 On ch=1 n=c5 v=42
103795 Off ch=1 n=g#5 v=0
104107 On ch=1 n=g#4 v=41
104137 Off ch=1 n=c5 v=0
104448 On ch=1 n=c5 v=45
104448 Off ch=1 n=g#2 v=0
104448 Off ch=1 n=g#3 v=0
104448 On ch=1 n=d3 v=21
104448 On ch=1 n=d4 v=30
104478 Off ch=1 n=g#4 v=0
104789 On ch=1 n=g5 v=45
104819 Off ch=1 n=c5 v=0
105131 On ch=1 n=f5 v=39
105161 Off ch=1 n=g5 v=0
105472 Par ch=1 c=64 v=0
105472 Par ch=1 c=64 v=0
105472 Off ch=1 n=d3 v=0
105472 Off ch=1 n=d4 v=0
105472 On ch=1 n=d#3 v=24
105472 On ch=1 n=d#4 v=33
105502 Off ch=1 n=f5 v=0
105791 Par ch=1 c=64 v=127
105813 On ch=1 n=g#4 v=38
106155 Off ch=1 n=g#4 v=0
106155 On ch=1 n=c5 v=39
106496 Off ch=1 n=c5 v=0
106496 On ch=1 n=f5 v=43
106496 Off ch=1 n=d#3 v=0
106496 Off ch=1 n=d#4 v=0
106496 On ch=1 n=g#2 v=24
106496 On ch=1 n=g#3 v=33
106837 On ch=1 n=c5 v=44
107179 Off ch=1 n=c5 v=0
107179 Off ch=1 n=f5 v=0
107179 On ch=1 n=d#5 v=46
107520 Off ch=1 n=d#5 v=0
107520 On ch=1 n=a#5 v=47
107520 Off ch=1 n=g#2 v=0
107520 Off ch=1 n=g#3 v=0
107861 On ch=1 n=d#5 v=46
108203 Off ch=1 n=a#5 v=0
108203 On ch=1 n=g#5 v=42
108362 Par ch=1 c=64 v=0
108544 Par ch=1 c=64 v=0
108544 Par ch=1 c=64 v=0
108544 Par ch=1 c=64 v=0
108544 Off ch=1 n=d#5 v=0
108544 Off ch=1 n=g#5 v=0
108544 On ch=1 n=g#3 v=24
108544 On ch=1 n=g#4 v=33
108863 Par ch=1 c=64 v=127
108885 On ch=1 n=d#5 v=42
109227 Off ch=1 n=d#5 v=0
109227 On ch=1 n=g#5 v=44
109568 Off ch=1 n=g#5 v=0
109568 On ch=1 n=c#6 v=47
109568 Off ch=1 n=g#3 v=0
109568 Off ch=1 n=g#4 v=0
109909 Off ch=1 n=c#6 v=0
109909 On ch=1 n=g#5 v=49
110251 Off ch=1 n=g#5 v=0
110251 On ch=1 n=c6 v=50
110592 Off ch=1 n=c6 v=0
110592 On ch=1 n=f6 v=52
110933 Off ch=1 n=f6 v=0
110933 On ch=1 n=c6 v=50
111275 Off ch=1 n=c6 v=0
111275 On ch=1 n=d#6 v=47
111434 Par ch=1 c=64 v=0
111616 Par ch=1 c=64 v=0
111616 Par ch=1 c=64 v=0
111616 Par ch=1 c=64 v=0
111616 Off ch=1 n=d#6 v=0
111616 On ch=1 n=f#4 v=36
111943 Par ch=1 c=64 v=127
111943 Par ch=1 c=64 v=127
111957 On ch=1 n=d#5 v=51
112128 Off ch=1 n=f#4 v=0
112128 On ch=1 n=b3 v=38
112299 Off ch=1 n=d#5 v=0
112299 On ch=1 n=f#5 v=52
112640 Off ch=1 n=f#5 v=0
112640 On ch=1 n=c#6 v=54
112640 Off ch=1 n=b3 v=0
112640 On ch=1 n=d#5 v=40
112981 Off ch=1 n=c#6 v=0
112981 On ch=1 n=f#5 v=55
113152 Off ch=1 n=d#5 v=0
113152 On ch=1 n=f#4 v=42
113323 Off ch=1 n=f#5 v=0
113323 On ch=1 n=b5 v=51
113664 Off ch=1 n=b5 v=0
113664 On ch=1 n=e6 v=58
113664 Off ch=1 n=f#4 v=0
113664 On ch=1 n=f#5 v=43
114005 Off ch=1 n=e6 v=0
114005 On ch=1 n=b5 v=53
114176 Off ch=1 n=f#5 v=0
114176 On ch=1 n=d#5 v=45
114347 Off ch=1 n=b5 v=0
114347 On ch=1 n=d#6 v=55
114688 Par ch=1 c=64 v=127
114688 Par ch=1 c=64 v=127
114688 Off ch=1 n=d#6 v=0
114688 Off ch=1 n=d#5 v=0
114688 On ch=1 n=g#6 v=59
114688 On ch=1 n=b5 v=52
115029 Off ch=1 n=g#6 v=0
115029 On ch=1 n=f#6 v=56
115371 Off ch=1 n=f#6 v=0
115371 On ch=1 n=b6 v=59
115712 Off ch=1 n=b6 v=0
115712 On ch=1 n=g#6 v=60
115712 Off ch=1 n=b5 v=0
116053 Off ch=1 n=g#6 v=0
116053 On ch=1 n=f#6 v=58
116395 Off ch=1 n=f#6 v=0
116395 On ch=1 n=b5 v=53
116714 Par ch=1 c=64 v=0
116714 Par ch=1 c=64 v=0
116736 Off ch=1 n=b5 v=0
116736 On ch=1 n=d#6 v=53
116895 Par ch=1 c=64 v=127
116895 Par ch=1 c=64 v=127
117077 Off ch=1 n=d#6 v=0
117077 On ch=1 n=g#5 v=50
117419 Off ch=1 n=g#5 v=0
117419 On ch=1 n=f#5 v=43
117760 Par ch=1 c=64 v=0
117760 Par ch=1 c=64 v=0
117760 Off ch=1 n=f#5 v=0
117760 On ch=1 n=f#5 v=58
117760 On ch=1 n=g3 v=37
117760 On ch=1 n=g4 v=49
118079 Par ch=1 c=64 v=127
118101 On ch=1 n=b4 v=50
118443 Off ch=1 n=b4 v=0
118443 Off ch=1 n=f#5 v=0
118443 On ch=1 n=f5 v=55
118647 Par ch=1 c=64 v=0
118784 On ch=1 n=b5 v=54
119125 Off ch=1 n=f5 v=0
119125 Off ch=1 n=b5 v=0
119125 On ch=1 n=e5 v=53
119467 On ch=1 n=b4 v=44
119808 Off ch=1 n=b4 v=0
119808 Off ch=1 n=e5 v=0
119808 On ch=1 n=d5 v=50
119808 Off ch=1 n=g3 v=0
119808 Off ch=1 n=g4 v=0
119808 On ch=1 n=b3 v=28
119808 On ch=1 n=f#4 v=40
120149 On ch=1 n=b5 v=48
120491 Off ch=1 n=d5 v=0
120491 Off ch=1 n=b5 v=0
120491 On ch=1 n=d#5 v=40
120832 Par ch=1 c=64 v=0
120832 Par ch=1 c=64 v=0
120832 Par ch=1 c=64 v=0
120832 Off ch=1 n=d#5 v=0
120832 Off ch=1 n=b3 v=0
120832 Off ch=1 n=f#4 v=0
120832 On ch=1 n=f#5 v=58
120832 On ch=1 n=g3 v=37
120832 On ch=1 n=g4 v=49
121151 Par ch=1 c=64 v=127
121173 On ch=1 n=b4 v=50
121515 Off ch=1 n=b4 v=0
121515 Off ch=1 n=f#5 v=0
121515 On ch=1 n=f5 v=55
121719 Par ch=1 c=64 v=0
121856 On ch=1 n=b5 v=54
122197 Off ch=1 n=f5 v=0
122197 Off ch=1 n=b5 v=0
122197 On ch=1 n=e5 v=53
122539 On ch=1 n=b4 v=44
122880 Off ch=1 n=b4 v=0
122880 Off ch=1 n=e5 v=0
122880 On ch=1 n=d5 v=50
122880 Off ch=1 n=g3 v=0
122880 Off ch=1 n=g4 v=0
122880 On ch=1 n=b3 v=28
122880 On ch=1 n=f#4 v=40
123221 On ch=1 n=b5 v=48
123563 Off ch=1 n=d5 v=0
123563 Off ch=1 n=b5 v=0
123563 On ch=1 n=d#5 v=40
123904 Par ch=1 c=64 v=0
123904 Par ch=1 c=64 v=0
123904 Par ch=1 c=64 v=0
123904 Off ch=1 n=d#5 v=0
123904 Off ch=1 n=b3 v=0
123904 Off ch=1 n=f#4 v=0
123904 On ch=1 n=b2 v=55
123904 On ch=1 n=b3 v=67
124100 Par ch=1 c=64 v=127
124100 Par ch=1 c=64 v=12
124100 Par ch=1 c=64 v=127
124100 Par ch=1 c=64 v=12
124245 On ch=1 n=d#5 v=59
124587 Off ch=1 n=d#5 v=0
124587 On ch=1 n=b5 v=61
124928 On ch=1 n=d#6 v=64
125269 Off ch=1 n=b5 v=0
125269 Off ch=1 n=d#6 v=0
125269 On ch=1 n=a#5 v=66
125611 On ch=1 n=d#5 v=61
125952 Off ch=1 n=d#5 v=0
125952 Off ch=1 n=a#5 v=0
125952 On ch=1 n=a5 v=63
125952 Off ch=1 n=b2 v=0
125952 Off ch=1 n=b3 v=0
125952 On ch=1 n=f3 v=55
125952 On ch=1 n=f4 v=67
125996 Par ch=1 c=64 v=0
125996 Par ch=1 c=64 v=0
126213 Par ch=1 c=64 v=127
126235 Par ch=1 c=64 v=127
126235 Par ch=1 c=64 v=127
126257 Par ch=1 c=64 v=127
126293 On ch=1 n=f#6 v=64
126635 Off ch=1 n=a5 v=0
126635 Off ch=1 n=f#6 v=0
126635 On ch=1 n=f6 v=66
126976 Par ch=1 c=64 v=127
126976 Par ch=1 c=64 v=127
126976 Off ch=1 n=f6 v=0
126976 Off ch=1 n=f3 v=0
126976 Off ch=1 n=f4 v=0
126976 On ch=1 n=a6 v=74
127317 On ch=1 n=f6 v=68
127659 Off ch=1 n=f6 v=0
127659 Off ch=1 n=a6 v=0
127659 On ch=1 n=d#6 v=68
128000 Off ch=1 n=d#6 v=0
128000 On ch=1 n=f6 v=74
128341 Off ch=1 n=f6 v=0
128341 On ch=1 n=d#6 v=71
128683 Off ch=1 n=d#6 v=0
128683 On ch=1 n=a5 v=67
129024 Off ch=1 n=a5 v=0
129024 On ch=1 n=d#6 v=64
129365 Off ch=1 n=d#6 v=0
129365 On ch=1 n=a5 v=60
129460 Par ch=1 c=64 v=0
129460 Par ch=1 c=64 v=0
129707 Off ch=1 n=a5 v=0
129707 On ch=1 n=f5 v=60
130048 Par ch=1 c=64 v=0
130048 Par ch=1 c=64 v=0
130048 Off ch=1 n=f5 v=0
130048 On ch=1 n=a5 v=60
130048 On ch=1 n=b2 v=64
130048 On ch=1 n=b3 v=76
130179 Par ch=1 c=64 v=127
130389 Off ch=1 n=a5 v=0
130389 On ch=1 n=f5 v=60
130731 Off ch=1 n=f5 v=0
130731 On ch=1 n=d#5 v=60
131072 Off ch=1 n=d#5 v=0
131072 On ch=1 n=f5 v=60
131072 Off ch=1 n=b2 v=0
131072 Off ch=1 n=b3 v=0
131072 On ch=1 n=f4 v=64
131413 Off ch=1 n=f5 v=0
131413 On ch=1 n=d#5 v=60
131755 Off ch=1 n=d#5 v=0
131755 On ch=1 n=a4 v=60
131922 Par ch=1 c=64 v=0
132096 Off ch=1 n=a4 v=0
132096 On ch=1 n=d#5 v=60
132096 Off ch=1 n=f4 v=0
132233 Par ch=1 c=64 v=127
132437 Off ch=1 n=d#5 v=0
132437 On ch=1 n=a4 v=60
132779 Off ch=1 n=a4 v=0
132779 On ch=1 n=f4 v=60
133120 Par ch=1 c=64 v=127
133120 Par ch=1 c=64 v=0
133120 Off ch=1 n=f4 v=0
133120 On ch=1 n=a4 v=60
133234 Par ch=1 c=64 v=0
133461 Off ch=1 n=a4 v=0
133461 On ch=1 n=d#5 v=60
133484 Par ch=1 c=64 v=127
133803 Off ch=1 n=d#5 v=0
133803 On ch=1 n=f5 v=60
134144 Off ch=1 n=f5 v=0
134144 On ch=1 n=d#5 v=60
134485 Off ch=1 n=d#5 v=0
134485 On ch=1 n=f5 v=60
134827 Off ch=1 n=f5 v=0
134827 On ch=1 n=a5 v=60
135168 Off ch=1 n=a5 v=0
135168 On ch=1 n=f5 v=60
135509 Off ch=1 n=f5 v=0
135509 On ch=1 n=a5 v=60
135851 Off ch=1 n=a5 v=0
135851 On ch=1 n=f6 v=60
136010 Par ch=1 c=64 v=0
136192 Par ch=1 c=64 v=0
136192 Par ch=1 c=64 v=0
136192 Par ch=1 c=64 v=0
136192 Par ch=1 c=64 v=0
136192 Par ch=1 c=64 v=0
136192 Off ch=1 n=f6 v=0
136192 On ch=1 n=f4 v=33
136519 Par ch=1 c=64 v=127
136519 Par ch=1 c=64 v=127
136533 Par ch=1 c=64 v=127
136533 Par ch=1 c=64 v=127
136533 On ch=1 n=d5 v=44
136704 Off ch=1 n=f4 v=0
136704 On ch=1 n=a#3 v=35
136875 Off ch=1 n=d5 v=0
136875 On ch=1 n=f5 v=45
137216 Off ch=1 n=f5 v=0
137216 On ch=1 n=c6 v=47
137216 Off ch=1 n=a#3 v=0
137216 On ch=1 n=d5 v=37
137557 Off ch=1 n=c6 v=0
137557 On ch=1 n=f5 v=48
137728 Off ch=1 n=d5 v=0
137728 On ch=1 n=f4 v=39
137899 Off ch=1 n=f5 v=0
137899 On ch=1 n=a#5 v=44
138240 Off ch=1 n=a#5 v=0
138240 On ch=1 n=d#6 v=51
138240 Off ch=1 n=f4 v=0
138240 On ch=1 n=f5 v=40
138581 Off ch=1 n=d#6 v=0
138581 On ch=1 n=a#5 v=53
138752 Off ch=1 n=f5 v=0
138752 On ch=1 n=d5 v=42
138923 Off ch=1 n=a#5 v=0
138923 On ch=1 n=d6 v=48
139264 Par ch=1 c=64 v=127
139264 Par ch=1 c=64 v=127
139264 Off ch=1 n=d6 v=0
139264 Off ch=1 n=d5 v=0
139264 On ch=1 n=g6 v=56
139264 On ch=1 n=a#5 v=49
139605 Off ch=1 n=g6 v=0
139605 On ch=1 n=f6 v=53
139947 Off ch=1 n=f6 v=0
139947 On ch=1 n=a#6 v=59
140288 Off ch=1 n=a#6 v=0
140288 On ch=1 n=g6 v=60
140288 Off ch=1 n=a#5 v=0
140629 Off ch=1 n=g6 v=0
140629 On ch=1 n=f6 v=57
140971 Off ch=1 n=f6 v=0
140971 On ch=1 n=a#5 v=50
141290 Par ch=1 c=64 v=0
141290 Par ch=1 c=64 v=0
141312 Off ch=1 n=a#5 v=0
141312 On ch=1 n=d6 v=50
141471 Par ch=1 c=64 v=127
141471 Par ch=1 c=64 v=127
141653 Off ch=1 n=d6 v=0
141653 On ch=1 n=g5 v=47
141995 Off ch=1 n=g5 v=0
141995 On ch=1 n=f5 v=40
142336 Par ch=1 c=64 v=0
142336 Par ch=1 c=64 v=0
142336 Par ch=1 c=64 v=0
142336 Par ch=1 c=64 v=0
142336 Off ch=1 n=f5 v=0
142336 On ch=1 n=f5 v=58
142336 On ch=1 n=f#3 v=37
142336 On ch=1 n=f#4 v=49
142655 Par ch=1 c=64 v=127
142677 On ch=1 n=a#4 v=50
143019 Off ch=1 n=a#4 v=0
143019 Off ch=1 n=f5 v=0
143019 On ch=1 n=e5 v=52
143223 Par ch=1 c=64 v=0
143360 On ch=1 n=a#5 v=54
143701 Off ch=1 n=e5 v=0
143701 Off ch=1 n=a#5 v=0
143701 On ch=1 n=d#5 v=53
144043 On ch=1 n=a#4 v=44
144384 Off ch=1 n=a#4 v=0
144384 Off ch=1 n=d#5 v=0
144384 On ch=1 n=c#5 v=50
144384 Off ch=1 n=f#3 v=0
144384 Off ch=1 n=f#4 v=0
144384 On ch=1 n=a#3 v=28
144384 On ch=1 n=f4 v=40
144725 On ch=1 n=a#5 v=48
145067 Off ch=1 n=c#5 v=0
145067 Off ch=1 n=a#5 v=0
145067 On ch=1 n=d5 v=40
145408 Par ch=1 c=64 v=0
145408 Par ch=1 c=64 v=0
145408 Par ch=1 c=64 v=0
145408 Par ch=1 c=64 v=0
145408 Par ch=1 c=64 v=0
145408 Off ch=1 n=d5 v=0
145408 Off ch=1 n=a#3 v=0
145408 Off ch=1 n=f4 v=0
145408 On ch=1 n=f5 v=58
145408 On ch=1 n=f#3 v=37
145408 On ch=1 n=f#4 v=49
145727 Par ch=1 c=64 v=127
145749 On ch=1 n=a#4 v=50
146091 Off ch=1 n=a#4 v=0
146091 Off ch=1 n=f5 v=0
146091 On ch=1 n=e5 v=52
146295 Par ch=1 c=64 v=0
146432 On ch=1 n=a#5 v=54
146773 Off ch=1 n=e5 v=0
146773 Off ch=1 n=a#5 v=0
146773 On ch=1 n=d#5 v=53
147115 Off ch=1 n=d#5 v=0
147115 On ch=1 n=a#4 v=44
147115 On ch=1 n=d5 v=58
147456 Off ch=1 n=a#4 v=0
147456 Off ch=1 n=d5 v=0
147456 On ch=1 n=c#5 v=50
147456 Off ch=1 n=f#3 v=0
147456 Off ch=1 n=f#4 v=0
147456 On ch=1 n=a#3 v=28
147456 On ch=1 n=f4 v=40
147797 On ch=1 n=a#5 v=48
148139 Off ch=1 n=c#5 v=0
148139 Off ch=1 n=a#5 v=0
148139 On ch=1 n=d5 v=40
148480 Par ch=1 c=64 v=0
148480 Par ch=1 c=64 v=0
148480 Par ch=1 c=64 v=0
148480 Par ch=1 c=64 v=0
148480 Par ch=1 c=64 v=0
148480 Par ch=1 c=64 v=0
148480 Off ch=1 n=d5 v=0
148480 Off ch=1 n=a#3 v=0
148480 Off ch=1 n=f4 v=0
148480 On ch=1 n=a#2 v=55
148480 On ch=1 n=a#3 v=67
148662 Par ch=1 c=64 v=127
148662 Par ch=1 c=64 v=127
148821 On ch=1 n=d5 v=63
149163 Off ch=1 n=d5 v=0
149163 On ch=1 n=a#5 v=61
149504 On ch=1 n=d6 v=64
149845 Off ch=1 n=a#5 v=0
149845 Off ch=1 n=d6 v=0
149845 On ch=1 n=a5 v=66
150187 On ch=1 n=d5 v=61
150528 Off ch=1 n=d5 v=0
150528 Off ch=1 n=a5 v=0
150528 On ch=1 n=g#5 v=63
150528 Off ch=1 n=a#2 v=0
150528 Off ch=1 n=a#3 v=0
150528 On ch=1 n=e3 v=55
150528 On ch=1 n=e4 v=67
150572 Par ch=1 c=64 v=0
150572 Par ch=1 c=64 v=0
150869 On ch=1 n=f6 v=64
150920 Par ch=1 c=64 v=127
150920 Par ch=1 c=64 v=127
151211 Off ch=1 n=g#5 v=0
151211 Off ch=1 n=f6 v=0
151211 On ch=1 n=e6 v=66
151552 Par ch=1 c=64 v=127
151552 Par ch=1 c=64 v=127
151552 Off ch=1 n=e6 v=0
151552 Off ch=1 n=e3 v=0
151552 Off ch=1 n=e4 v=0
151552 On ch=1 n=g#6 v=74
151893 On ch=1 n=e6 v=68
152235 Off ch=1 n=e6 v=0
152235 Off ch=1 n=g#6 v=0
152235 On ch=1 n=d6 v=68
152576 Off ch=1 n=d6 v=0
152576 On ch=1 n=e6 v=74
152917 Off ch=1 n=e6 v=0
152917 On ch=1 n=d6 v=71
153259 Off ch=1 n=d6 v=0
153259 On ch=1 n=g#5 v=67
153600 Off ch=1 n=g#5 v=0
153600 On ch=1 n=d6 v=64
153941 Off ch=1 n=d6 v=0
153941 On ch=1 n=g#5 v=60
154036 Par ch=1 c=64 v=0
154036 Par ch=1 c=64 v=0
154283 Off ch=1 n=g#5 v=0
154283 On ch=1 n=e5 v=60
154624 Par ch=1 c=64 v=0
154624 Par ch=1 c=64 v=0
154624 Par ch=1 c=64 v=0
154624 Par ch=1 c=64 v=0
154624 Off ch=1 n=e5 v=0
154624 On ch=1 n=g#5 v=60
154624 On ch=1 n=a#2 v=64
154624 On ch=1 n=a#3 v=76
154755 Par ch=1 c=64 v=127
154965 On ch=1 n=e5 v=60
155307 Off ch=1 n=e5 v=0
155307 Off ch=1 n=g#5 v=0
155307 On ch=1 n=d5 v=60
155648 Off ch=1 n=d5 v=0
155648 On ch=1 n=e5 v=60
155648 Off ch=1 n=a#2 v=0
155648 Off ch=1 n=a#3 v=0
155648 On ch=1 n=e4 v=64
155989 Off ch=1 n=e5 v=0
155989 On ch=1 n=d5 v=60
156331 Off ch=1 n=d5 v=0
156331 On ch=1 n=g#4 v=60
156498 Par ch=1 c=64 v=0
156672 Off ch=1 n=g#4 v=0
156672 On ch=1 n=d5 v=60
156672 Off ch=1 n=e4 v=0
156809 Par ch=1 c=64 v=127
157013 Off ch=1 n=d5 v=0
157013 On ch=1 n=g#4 v=60
157355 Off ch=1 n=g#4 v=0
157355 On ch=1 n=e4 v=60
157696 Par ch=1 c=64 v=127
157696 Par ch=1 c=64 v=0
157696 Par ch=1 c=64 v=0
157696 Par ch=1 c=64 v=0
157696 Off ch=1 n=e4 v=0
157696 On ch=1 n=g#4 v=55
157810 Par ch=1 c=64 v=0
158037 On ch=1 n=d5 v=56
158060 Par ch=1 c=64 v=127
158379 Off ch=1 n=g#4 v=0
158379 Off ch=1 n=d5 v=0
158379 On ch=1 n=e5 v=58
158720 Off ch=1 n=e5 v=0
158720 On ch=1 n=d5 v=59
159061 Off ch=1 n=d5 v=0
159061 On ch=1 n=e5 v=60
159403 Off ch=1 n=e5 v=0
159403 On ch=1 n=g#5 v=62
159744 Off ch=1 n=g#5 v=0
159744 On ch=1 n=e5 v=63
160085 Off ch=1 n=e5 v=0
160085 On ch=1 n=g#5 v=60
160427 Off ch=1 n=g#5 v=0
160427 On ch=1 n=e6 v=56
160586 Par ch=1 c=64 v=0
160768 Par ch=1 c=64 v=0
160768 Par ch=1 c=64 v=0
160768 Par ch=1 c=64 v=0
160768 Par ch=1 c=64 v=0
160768 Off ch=1 n=e6 v=0
160768 On ch=1 n=f#5 v=51
160768 On ch=1 n=e3 v=37
160768 On ch=1 n=e4 v=49
161087 Par ch=1 c=64 v=127
161109 On ch=1 n=d5 v=50
161451 Off ch=1 n=d5 v=0
161451 Off ch=1 n=f#5 v=0
161451 On ch=1 n=f5 v=52
161655 Par ch=1 c=64 v=0
161792 Off ch=1 n=f5 v=0
161792 On ch=1 n=c#6 v=54
161792 Off ch=1 n=e3 v=0
161792 Off ch=1 n=e4 v=0
161792 On ch=1 n=a2 v=31
161792 On ch=1 n=a3 v=43
162133 On ch=1 n=e5 v=53
162475 On ch=1 n=g#4 v=44
162816 Off ch=1 n=g#4 v=0
162816 Off ch=1 n=e5 v=0
162816 Off ch=1 n=c#6 v=0
162816 On ch=1 n=d#5 v=50
162816 Off ch=1 n=a2 v=0
162816 Off ch=1 n=a3 v=0
163157 On ch=1 n=b5 v=48
163499 Off ch=1 n=d#5 v=0
163499 Off ch=1 n=b5 v=0
163499 On ch=1 n=d5 v=40
163840 Par ch=1 c=64 v=0
163840 Par ch=1 c=64 v=0
163840 Par ch=1 c=64 v=0
163840 Par ch=1 c=64 v=0
163840 Par ch=1 c=64 v=0
163840 Off ch=1 n=d5 v=0
163840 On ch=1 n=c#5 v=51
163840 On ch=1 n=f3 v=37
163840 On ch=1 n=f4 v=49
164159 Par ch=1 c=64 v=127
164181 On ch=1 n=a4 v=50
164523 Off ch=1 n=a4 v=0
164523 Off ch=1 n=c#5 v=0
164523 On ch=1 n=b4 v=52
164727 Par ch=1 c=64 v=0
164864 Off ch=1 n=b4 v=0
164864 On ch=1 n=a5 v=54
164864 Off ch=1 n=f3 v=0
164864 Off ch=1 n=f4 v=0
164864 On ch=1 n=a2 v=31
164864 On ch=1 n=a3 v=43
165205 On ch=1 n=c5 v=53
165547 Off ch=1 n=a5 v=0
165547 On ch=1 n=a4 v=44
165888 Off ch=1 n=a4 v=0
165888 Off ch=1 n=c5 v=0
165888 On ch=1 n=d5 v=50
165888 Off ch=1 n=a2 v=0
165888 Off ch=1 n=a3 v=0
166229 On ch=1 n=a5 v=48
166571 Off ch=1 n=d5 v=0
166571 Off ch=1 n=a5 v=0
166571 On ch=1 n=d#5 v=40
166912 Par ch=1 c=64 v=0
166912 Par ch=1 c=64 v=0
166912 Par ch=1 c=64 v=0
166912 Par ch=1 c=64 v=0
166912 Par ch=1 c=64 v=0
166912 Off ch=1 n=d#5 v=0
166912 On ch=1 n=f#5 v=51
166912 On ch=1 n=e3 v=37
166912 On ch=1 n=e4 v=49
167231 Par ch=1 c=64 v=127
167253 On ch=1 n=d5 v=50
167595 Off ch=1 n=d5 v=0
167595 Off ch=1 n=f#5 v=0
167595 On ch=1 n=f5 v=52
167799 Par ch=1 c=64 v=0
167936 Off ch=1 n=f5 v=0
167936 On ch=1 n=c#6 v=54
167936 Off ch=1 n=e3 v=0
167936 Off ch=1 n=e4 v=0
167936 On ch=1 n=a2 v=31
167936 On ch=1 n=a3 v=43
168277 On ch=1 n=e5 v=53
168619 On ch=1 n=g#4 v=44
168960 Off ch=1 n=g#4 v=0
168960 Off ch=1 n=e5 v=0
168960 Off ch=1 n=c#6 v=0
168960 On ch=1 n=d#5 v=50
168960 Off ch=1 n=a2 v=0
168960 Off ch=1 n=a3 v=0
169301 On ch=1 n=b5 v=48
169643 Off ch=1 n=d#5 v=0
169643 Off ch=1 n=b5 v=0
169643 On ch=1 n=d5 v=40
169984 Par ch=1 c=64 v=0
169984 Par ch=1 c=64 v=0
169984 Par ch=1 c=64 v=0
169984 Par ch=1 c=64 v=0
169984 Par ch=1 c=64 v=0
169984 Par ch=1 c=64 v=0
169984 Par ch=1 c=64 v=0
169984 Off ch=1 n=d5 v=0
169984 On ch=1 n=c#5 v=51
169984 On ch=1 n=e3 v=37
169984 On ch=1 n=e4 v=49
170303 Par ch=1 c=64 v=127
170325 Off ch=1 n=c#5 v=0
170325 On ch=1 n=a4 v=50
170667 Off ch=1 n=a4 v=0
170667 On ch=1 n=c#5 v=52
170871 Par ch=1 c=64 v=0
171008 Off ch=1 n=c#5 v=0
171008 On ch=1 n=a5 v=54
171008 Off ch=1 n=e3 v=0
171008 Off ch=1 n=e4 v=0
171008 On ch=1 n=a2 v=31
171008 On ch=1 n=a3 v=43
171349 Off ch=1 n=a5 v=0
171349 On ch=1 n=c#5 v=53
171691 Off ch=1 n=c#5 v=0
171691 On ch=1 n=a4 v=49
172032 Off ch=1 n=a4 v=0
172032 On ch=1 n=c#5 v=55
172032 Off ch=1 n=a2 v=0
172032 Off ch=1 n=a3 v=0
172373 Off ch=1 n=c#5 v=0
172373 On ch=1 n=a5 v=53
172715 Off ch=1 n=a5 v=0
172715 On ch=1 n=g#5 v=45
173056 Par ch=1 c=64 v=0
173056 Par ch=1 c=64 v=0
173056 Off ch=1 n=g#5 v=0
173056 On ch=1 n=g#5 v=55
173056 On ch=1 n=a3 v=32
173056 On ch=1 n=d#4 v=44
173329 Par ch=1 c=64 v=127
173397 On ch=1 n=c#5 v=48
173739 Off ch=1 n=c#5 v=0
173739 Off ch=1 n=g#5 v=0
173739 On ch=1 n=g5 v=51
174080 On ch=1 n=c#6 v=55
174103 Par ch=1 c=64 v=0
174399 Par ch=1 c=64 v=127
174421 Off ch=1 n=g5 v=0
174421 Off ch=1 n=c#6 v=0
174421 On ch=1 n=f#5 v=51
174763 On ch=1 n=c5 v=48
175104 Off ch=1 n=f#5 v=0
175104 On ch=1 n=a5 v=55
175104 Off ch=1 n=a3 v=0
175104 Off ch=1 n=d#4 v=0
175104 On ch=1 n=g#3 v=32
175104 On ch=1 n=f#4 v=44
175127 Par ch=1 c=64 v=0
175445 On ch=1 n=d#6 v=55
175491 Par ch=1 c=64 v=127
175787 Off ch=1 n=c5 v=0
175787 Off ch=1 n=a5 v=0
175787 Off ch=1 n=d#6 v=0
175787 On ch=1 n=g#5 v=51
176128 Par ch=1 c=64 v=127
176128 Par ch=1 c=64 v=0
176128 Off ch=1 n=g#5 v=0
176128 Off ch=1 n=g#3 v=0
176128 Off ch=1 n=f#4 v=0
176128 On ch=1 n=a5 v=55
176128 On ch=1 n=f4 v=44
176242 Par ch=1 c=64 v=0
176469 Off ch=1 n=a5 v=0
176469 On ch=1 n=c#5 v=48
176515 Par ch=1 c=64 v=127
176640 On ch=1 n=g#3 v=40
176811 Off ch=1 n=c#5 v=0
176811 On ch=1 n=g#5 v=51
177152 Par ch=1 c=64 v=0
177152 Off ch=1 n=g#5 v=0
177152 On ch=1 n=f6 v=55
177152 Off ch=1 n=g#3 v=0
177152 Off ch=1 n=f4 v=0
177152 On ch=1 n=c#3 v=36
177425 Par ch=1 c=64 v=127
177493 On ch=1 n=c#6 v=51
177664 Off ch=1 n=c#3 v=0
177835 Off ch=1 n=c#6 v=0
177835 Off ch=1 n=f6 v=0
177835 On ch=1 n=f5 v=48
178176 Off ch=1 n=f5 v=0
178176 On ch=1 n=c#5 v=48
178290 Par ch=1 c=64 v=0
178517 Off ch=1 n=c#5 v=0
178517 On ch=1 n=f5 v=51
178859 Off ch=1 n=f5 v=0
178859 On ch=1 n=g#5 v=55
179200 Par ch=1 c=64 v=0
179200 Par ch=1 c=64 v=0
179200 Par ch=1 c=64 v=0
179200 Par ch=1 c=64 v=0
179200 Off ch=1 n=g#5 v=0
179200 On ch=1 n=b5 v=60
179200 On ch=1 n=c4 v=37
179200 On ch=1 n=f#4 v=49
179473 Par ch=1 c=64 v=127
179541 Off ch=1 n=b5 v=0
179541 On ch=1 n=e5 v=53
179883 Off ch=1 n=e5 v=0
179883 On ch=1 n=a#5 v=56
180224 Off ch=1 n=a#5 v=0
180224 On ch=1 n=e6 v=60
180247 Par ch=1 c=64 v=0
180543 Par ch=1 c=64 v=127
180565 Off ch=1 n=e6 v=0
180565 On ch=1 n=a5 v=56
180907 Off ch=1 n=a5 v=0
180907 On ch=1 n=d#5 v=53
181248 On ch=1 n=c6 v=60
181248 Off ch=1 n=c4 v=0
181248 Off ch=1 n=f#4 v=0
181248 On ch=1 n=b3 v=37
181248 On ch=1 n=a4 v=49
181271 Par ch=1 c=64 v=0
181589 Off ch=1 n=c6 v=0
181589 On ch=1 n=f#6 v=60
181635 Par ch=1 c=64 v=127
181931 Off ch=1 n=d#5 v=0
181931 Off ch=1 n=f#6 v=0
181931 On ch=1 n=b5 v=56
182272 Par ch=1 c=64 v=127
182272 Par ch=1 c=64 v=0
182272 Par ch=1 c=64 v=0
182272 Par ch=1 c=64 v=0
182272 Off ch=1 n=b5 v=0
182272 Off ch=1 n=b3 v=0
182272 Off ch=1 n=a4 v=0
182272 On ch=1 n=c6 v=60
182272 On ch=1 n=g#4 v=49
182386 Par ch=1 c=64 v=0
182613 Off ch=1 n=c6 v=0
182613 On ch=1 n=e5 v=53
182659 Par ch=1 c=64 v=127
182784 On ch=1 n=b3 v=45
182955 Off ch=1 n=e5 v=0
182955 On ch=1 n=b5 v=56
183296 Par ch=1 c=64 v=0
183296 Off ch=1 n=b5 v=0
183296 On ch=1 n=g#6 v=60
183296 Off ch=1 n=b3 v=0
183296 Off ch=1 n=g#4 v=0
183296 On ch=1 n=e3 v=41
183569 Par ch=1 c=64 v=127
183637 On ch=1 n=e6 v=56
183808 Off ch=1 n=e3 v=0
183979 Off ch=1 n=e6 v=0
183979 Off ch=1 n=g#6 v=0
183979 On ch=1 n=g#5 v=53
184320 Off ch=1 n=g#5 v=0
184320 On ch=1 n=e5 v=53
184434 Par ch=1 c=64 v=0
184661 Off ch=1 n=e5 v=0
184661 On ch=1 n=g#5 v=56
185003 Off ch=1 n=g#5 v=0
185003 On ch=1 n=b5 v=60
185344 Par ch=1 c=64 v=0
185344 Par ch=1 c=64 v=0
185344 Off ch=1 n=b5 v=0
185344 On ch=1 n=d#6 v=55
185344 On ch=1 n=e4 v=32
185344 On ch=1 n=a#4 v=44
185584 Par ch=1 c=64 v=127
185685 On ch=1 n=g#5 v=49
186027 Off ch=1 n=g#5 v=0
186027 Off ch=1 n=d#6 v=0
186027 On ch=1 n=d6 v=57
186368 On ch=1 n=g#6 v=58
186390 Par ch=1 c=64 v=0
186586 Par ch=1 c=64 v=127
186709 Off ch=1 n=d6 v=0
186709 On ch=1 n=c#6 v=58
187051 Off ch=1 n=c#6 v=0
187051 Off ch=1 n=g#6 v=0
187051 On ch=1 n=g#5 v=52
187392 Off ch=1 n=g#5 v=0
187392 On ch=1 n=c6 v=60
187414 Par ch=1 c=64 v=0
187675 Par ch=1 c=64 v=127
187733 On ch=1 n=g#6 v=61
188075 Off ch=1 n=c6 v=0
188075 Off ch=1 n=g#6 v=0
188075 On ch=1 n=c#6 v=62
188416 Par ch=1 c=64 v=0
188416 Par ch=1 c=64 v=0
188416 Off ch=1 n=c#6 v=0
188416 Off ch=1 n=e4 v=0
188416 Off ch=1 n=a#4 v=0
188416 On ch=1 n=f6 v=63
188416 On ch=1 n=d#4 v=40
188416 On ch=1 n=c#5 v=52
188460 Par ch=1 c=64 v=127
188612 Par ch=1 c=64 v=0
188757 On ch=1 n=g5 v=56
188830 Par ch=1 c=64 v=127
189099 Off ch=1 n=g5 v=0
189099 Off ch=1 n=f6 v=0
189099 On ch=1 n=e6 v=64
189440 On ch=1 n=a#6 v=65
189462 Par ch=1 c=64 v=0
189680 Par ch=1 c=64 v=127
189781 Off ch=1 n=e6 v=0
189781 On ch=1 n=d#6 v=66
190123 Off ch=1 n=a#6 v=0
190123 On ch=1 n=g5 v=60
190442 Par ch=1 c=64 v=0
190464 Off ch=1 n=g5 v=0
190464 Off ch=1 n=d#6 v=0
190464 On ch=1 n=d6 v=68
190725 Par ch=1 c=64 v=127
190805 On ch=1 n=b6 v=68
190956 On ch=1 n=g#3 v=48
191147 Off ch=1 n=d6 v=0
191147 On ch=1 n=d#6 v=69
191222 On ch=1 n=d#4 v=48
191338 On ch=1 n=g#5 v=65
191488 Par ch=1 c=64 v=127
191488 Par ch=1 c=64 v=0
191488 Off ch=1 n=d#6 v=0
191488 Off ch=1 n=b6 v=0
191488 Off ch=1 n=d#4 v=0
191488 Off ch=1 n=c#5 v=0
191488 On ch=1 n=d#6 v=65
191488 On ch=1 n=c7 v=79
191488 On ch=1 n=c5 v=60
191619 Par ch=1 c=64 v=0
191829 Off ch=1 n=g#5 v=0
191829 Off ch=1 n=d#6 v=0
191829 Off ch=1 n=c7 v=0
191829 On ch=1 n=d#5 v=50
191880 Par ch=1 c=64 v=127
192000 Off ch=1 n=g#3 v=0
192000 Off ch=1 n=d#4 v=0
192000 Off ch=1 n=c5 v=0
192171 Off ch=1 n=d#5 v=0
192171 On ch=1 n=g#5 v=51
192512 Off ch=1 n=g#5 v=0
192512 On ch=1 n=c#6 v=53
192853 Off ch=1 n=c#6 v=0
192853 On ch=1 n=g#5 v=54
193195 Off ch=1 n=g#5 v=0
193195 On ch=1 n=c6 v=55
193536 Par ch=1 c=64 v=0
193536 Off ch=1 n=c6 v=0
193536 On ch=1 n=f6 v=56
193809 Par ch=1 c=64 v=127
193877 Off ch=1 n=f6 v=0
193877 On ch=1 n=c6 v=57
194219 Off ch=1 n=c6 v=0
194219 On ch=1 n=d#6 v=59
194560 Par ch=1 c=64 v=127
194560 Par ch=1 c=64 v=0
194560 Off ch=1 n=d#6 v=0
194560 On ch=1 n=a#6 v=60
194719 Par ch=1 c=64 v=0
194901 Off ch=1 n=a#6 v=0
194901 On ch=1 n=d#6 v=58
194924 Par ch=1 c=64 v=127
195243 Off ch=1 n=d#6 v=0
195243 On ch=1 n=g#6 v=56
195584 Off ch=1 n=g#6 v=0
195584 On ch=1 n=f6 v=54
195925 Off ch=1 n=f6 v=0
195925 On ch=1 n=g#5 v=52
196267 Off ch=1 n=g#5 v=0
196267 On ch=1 n=d#6 v=50
196608 Off ch=1 n=d#6 v=0
196608 On ch=1 n=a#5 v=48
196654 Par ch=1 c=64 v=0
196858 Par ch=1 c=64 v=127
197291 Off ch=1 n=a#5 v=0
197291 On ch=1 n=a#5 v=44
197632 Par ch=1 c=64 v=127
197632 Par ch=1 c=64 v=0
197632 Off ch=1 n=a#5 v=0
197632 On ch=1 n=a#5 v=35
197632 On ch=1 n=f#4 v=26
197769 Par ch=1 c=64 v=0
197973 Par ch=1 c=64 v=127
197973 Off ch=1 n=a#5 v=0
197973 On ch=1 n=c5 v=33
198144 On ch=1 n=g#3 v=26
198315 Off ch=1 n=c5 v=0
198315 On ch=1 n=a5 v=35
198656 Off ch=1 n=a5 v=0
198656 On ch=1 n=f6 v=40
198656 On ch=1 n=c#3 v=26
198702 Par ch=1 c=64 v=0
198736 Off ch=1 n=g#3 v=0
198736 Off ch=1 n=f#4 v=0
198793 Par ch=1 c=64 v=0
198997 On ch=1 n=a#5 v=35
199168 On ch=1 n=g#3 v=26
199339 Off ch=1 n=a#5 v=0
199339 Off ch=1 n=f6 v=0
199339 On ch=1 n=c5 v=33
199680 Off ch=1 n=c5 v=0
199680 On ch=1 n=a5 v=35
199680 On ch=1 n=f#4 v=26
199760 Off ch=1 n=c#3 v=0
199760 Off ch=1 n=g#3 v=0
200021 Off ch=1 n=a5 v=0
200021 On ch=1 n=d#6 v=40
200192 On ch=1 n=c5 v=26
200272 Off ch=1 n=f#4 v=0
200363 Off ch=1 n=d#6 v=0
200363 On ch=1 n=g#5 v=35
200704 Par ch=1 c=64 v=127
200704 Par ch=1 c=64 v=0
200704 Par ch=1 c=64 v=0
200704 Off ch=1 n=g#5 v=0
200704 On ch=1 n=a5 v=35
200704 On ch=1 n=f4 v=26
200784 Off ch=1 n=c5 v=0
200841 Par ch=1 c=64 v=0
201045 Par ch=1 c=64 v=127
201045 Off ch=1 n=a5 v=0
201045 On ch=1 n=c#5 v=33
201216 On ch=1 n=g#3 v=26
201296 Off ch=1 n=f4 v=0
201387 Off ch=1 n=c#5 v=0
201387 On ch=1 n=g#5 v=35
201728 Off ch=1 n=g#5 v=0
201728 On ch=1 n=c#6 v=40
201728 On ch=1 n=c#3 v=26
201774 Par ch=1 c=64 v=0
201808 Off ch=1 n=g#3 v=0
201865 Par ch=1 c=64 v=0
202069 On ch=1 n=c#5 v=33
202240 On ch=1 n=a3 v=38
202320 Off ch=1 n=c#3 v=0
202411 Off ch=1 n=c#5 v=0
202411 Off ch=1 n=c#6 v=0
202411 On ch=1 n=f5 v=35
202752 Off ch=1 n=f5 v=0
202752 On ch=1 n=g#5 v=35
202752 On ch=1 n=f4 v=26
203093 On ch=1 n=c#5 v=33
203264 On ch=1 n=c#5 v=26
203344 Off ch=1 n=f4 v=0
203435 Off ch=1 n=c#5 v=0
203435 Off ch=1 n=g#5 v=0
203435 On ch=1 n=g5 v=35
203776 Par ch=1 c=64 v=127
203776 Par ch=1 c=64 v=0
203776 Par ch=1 c=64 v=0
203776 Par ch=1 c=64 v=0
203776 Off ch=1 n=g5 v=0
203776 Off ch=1 n=a3 v=0
203776 On ch=1 n=a#5 v=35
203776 On ch=1 n=f#4 v=26
203856 Off ch=1 n=c#5 v=0
203913 Par ch=1 c=64 v=0
204117 Par ch=1 c=64 v=127
204117 Off ch=1 n=a#5 v=0
204117 On ch=1 n=c5 v=33
204288 On ch=1 n=g#3 v=26
204368 Off ch=1 n=f#4 v=0
204459 Off ch=1 n=c5 v=0
204459 On ch=1 n=a5 v=40
204800 Off ch=1 n=a5 v=0
204800 On ch=1 n=f6 v=40
204800 On ch=1 n=c#3 v=26
204846 Par ch=1 c=64 v=0
204880 Off ch=1 n=g#3 v=0
204937 Par ch=1 c=64 v=0
205141 On ch=1 n=a#5 v=35
205312 On ch=1 n=g#3 v=26
205392 Off ch=1 n=c#3 v=0
205483 Off ch=1 n=a#5 v=0
205483 Off ch=1 n=f6 v=0
205483 On ch=1 n=c5 v=33
205824 Off ch=1 n=c5 v=0
205824 On ch=1 n=a5 v=35
205824 On ch=1 n=f#4 v=26
205904 Off ch=1 n=g#3 v=0
206165 Off ch=1 n=a5 v=0
206165 On ch=1 n=d#6 v=40
206336 On ch=1 n=c5 v=26
206416 Off ch=1 n=f#4 v=0
206507 Off ch=1 n=d#6 v=0
206507 On ch=1 n=g#5 v=35
206848 Par ch=1 c=64 v=127
206848 Par ch=1 c=64 v=0
206848 Par ch=1 c=64 v=0
206848 Par ch=1 c=64 v=0
206848 Off ch=1 n=g#5 v=0
206848 On ch=1 n=a5 v=35
206848 On ch=1 n=f4 v=26
206928 Off ch=1 n=c5 v=0
206985 Par ch=1 c=64 v=0
207189 Par ch=1 c=64 v=127
207189 On ch=1 n=c#5 v=33
207360 On ch=1 n=g#3 v=26
207440 Off ch=1 n=f4 v=0
207531 Off ch=1 n=c#5 v=0
207531 Off ch=1 n=a5 v=0
207531 On ch=1 n=g#5 v=35
207872 Off ch=1 n=g#5 v=0
207872 On ch=1 n=c#6 v=40
207872 On ch=1 n=c#3 v=26
207918 Par ch=1 c=64 v=0
207952 Off ch=1 n=g#3 v=0
208009 Par ch=1 c=64 v=0
208213 Off ch=1 n=c#6 v=0
208213 On ch=1 n=c#5 v=33
208384 On ch=1 n=g#3 v=26
208464 Off ch=1 n=c#3 v=0
208555 Off ch=1 n=c#5 v=0
208555 On ch=1 n=f5 v=35
208896 Off ch=1 n=f5 v=0
208896 On ch=1 n=a5 v=35
208896 On ch=1 n=f4 v=26
208976 Off ch=1 n=g#3 v=0
209237 On ch=1 n=f5 v=35
209408 On ch=1 n=c#5 v=26
209488 Off ch=1 n=f4 v=0
209579 Off ch=1 n=f5 v=0
209579 Off ch=1 n=a5 v=0
209579 On ch=1 n=g#5 v=35
209920 Par ch=1 c=64 v=127
209920 Par ch=1 c=64 v=0
209920 Par ch=1 c=64 v=0
209920 Par ch=1 c=64 v=0
209920 Par ch=1 c=64 v=0
209920 Off ch=1 n=g#5 v=0
209920 On ch=1 n=b5 v=35
209920 On ch=1 n=g4 v=33
210000 Off ch=1 n=c#5 v=0
210057 Par ch=1 c=64 v=0
210261 Par ch=1 c=64 v=127
210261 On ch=1 n=c#5 v=33
210432 Off ch=1 n=g4 v=0
210432 On ch=1 n=a3 v=35
210603 Off ch=1 n=c#5 v=0
210603 Off ch=1 n=b5 v=0
210603 On ch=1 n=a#5 v=42
210944 Off ch=1 n=a#5 v=0
210944 On ch=1 n=f#6 v=42
210944 Off ch=1 n=a3 v=0
210944 On ch=1 n=a2 v=35
210990 Par ch=1 c=64 v=0
211081 Par ch=1 c=64 v=0
211285 On ch=1 n=b5 v=37
211456 Off ch=1 n=a2 v=0
211456 On ch=1 n=a3 v=37
211627 Off ch=1 n=b5 v=0
211627 Off ch=1 n=f#6 v=0
211627 On ch=1 n=c#5 v=37
211968 Off ch=1 n=c#5 v=0
211968 On ch=1 n=a#5 v=40
211968 Off ch=1 n=a3 v=0
211968 On ch=1 n=g4 v=37
212105 Par ch=1 c=64 v=127
212309 Off ch=1 n=a#5 v=0
212309 On ch=1 n=e6 v=46
212480 Off ch=1 n=g4 v=0
212480 On ch=1 n=c#5 v=39
212651 Off ch=1 n=e6 v=0
212651 On ch=1 n=a5 v=41
212810 Par ch=1 c=64 v=0
212992 Par ch=1 c=64 v=127
212992 Par ch=1 c=64 v=0
212992 Par ch=1 c=64 v=0
212992 Par ch=1 c=64 v=0
212992 Par ch=1 c=64 v=127
212992 Par ch=1 c=64 v=0
212992 Par ch=1 c=64 v=0
212992 Par ch=1 c=64 v=0
212992 Par ch=1 c=64 v=0
212992 Off ch=1 n=a5 v=0
212992 Off ch=1 n=c#5 v=0
212992 On ch=1 n=b5 v=48
212992 On ch=1 n=g4 v=40
213129 Par ch=1 c=64 v=0
213129 Par ch=1 c=64 v=0
213333 Par ch=1 c=64 v=127
213333 Par ch=1 c=64 v=127
213333 Off ch=1 n=b5 v=0
213333 On ch=1 n=c#5 v=45
213504 Off ch=1 n=g4 v=0
213504 On ch=1 n=a3 v=40
213675 Off ch=1 n=c#5 v=0
213675 On ch=1 n=a#5 v=53
214016 Off ch=1 n=a#5 v=0
214016 On ch=1 n=e6 v=53
214016 Off ch=1 n=a3 v=0
214016 On ch=1 n=d3 v=40
214062 Par ch=1 c=64 v=0
214062 Par ch=1 c=64 v=0
214153 Par ch=1 c=64 v=0
214153 Par ch=1 c=64 v=0
214357 On ch=1 n=b5 v=48
214528 Off ch=1 n=d3 v=0
214528 On ch=1 n=a3 v=40
214699 Off ch=1 n=b5 v=0
214699 Off ch=1 n=e6 v=0
214699 On ch=1 n=d5 v=45
215040 Off ch=1 n=d5 v=0
215040 On ch=1 n=a#5 v=48
215040 Off ch=1 n=a3 v=0
215040 On ch=1 n=f#4 v=40
215177 Par ch=1 c=64 v=127
215381 Off ch=1 n=a#5 v=0
215381 On ch=1 n=d6 v=53
215552 Off ch=1 n=f#4 v=0
215552 On ch=1 n=d5 v=40
215723 Off ch=1 n=d6 v=0
215723 On ch=1 n=a5 v=48
215882 Par ch=1 c=64 v=0
216064 Par ch=1 c=64 v=127
216064 Par ch=1 c=64 v=0
216064 Par ch=1 c=64 v=0
216064 Par ch=1 c=64 v=0
216064 Par ch=1 c=64 v=127
216064 Par ch=1 c=64 v=0
216064 Par ch=1 c=64 v=0
216064 Par ch=1 c=64 v=0
216064 Par ch=1 c=64 v=0
216064 Off ch=1 n=a5 v=0
216064 Off ch=1 n=d5 v=0
216064 On ch=1 n=g5 v=50
216064 On ch=1 n=a4 v=40
216201 Par ch=1 c=64 v=0
216201 Par ch=1 c=64 v=0
216405 Par ch=1 c=64 v=127
216405 Par ch=1 c=64 v=127
216405 Off ch=1 n=g5 v=0
216405 On ch=1 n=d5 v=46
216576 Off ch=1 n=a4 v=0
216576 On ch=1 n=a3 v=38
216747 Off ch=1 n=d5 v=0
216747 On ch=1 n=f#5 v=55
217088 Off ch=1 n=f#5 v=0
217088 On ch=1 n=d6 v=53
217088 Off ch=1 n=a3 v=0
217088 On ch=1 n=d3 v=37
217134 Par ch=1 c=64 v=0
217134 Par ch=1 c=64 v=0
217225 Par ch=1 c=64 v=0
217225 Par ch=1 c=64 v=0
217429 Off ch=1 n=d6 v=0
217429 On ch=1 n=f5 v=46
217600 Off ch=1 n=d3 v=0
217600 On ch=1 n=a3 v=35
217771 Off ch=1 n=f5 v=0
217771 On ch=1 n=d5 v=43
218112 Off ch=1 n=d5 v=0
218112 On ch=1 n=f#5 v=45
218112 Off ch=1 n=a3 v=0
218112 On ch=1 n=f#4 v=34
218249 Par ch=1 c=64 v=127
218453 Off ch=1 n=f#5 v=0
218453 On ch=1 n=d6 v=50
218624 Off ch=1 n=f#4 v=0
218624 On ch=1 n=d5 v=32
218795 Off ch=1 n=d6 v=0
218795 On ch=1 n=c#6 v=43
218954 Par ch=1 c=64 v=0
219136 Par ch=1 c=64 v=127
219136 Par ch=1 c=64 v=0
219136 Par ch=1 c=64 v=0
219136 Par ch=1 c=64 v=0
219136 Par ch=1 c=64 v=127
219136 Par ch=1 c=64 v=0
219136 Par ch=1 c=64 v=0
219136 Par ch=1 c=64 v=0
219136 Par ch=1 c=64 v=0
219136 Off ch=1 n=c#6 v=0
219136 Off ch=1 n=d5 v=0
219136 On ch=1 n=c6 v=41
219136 On ch=1 n=f#4 v=31
219273 Par ch=1 c=64 v=0
219273 Par ch=1 c=64 v=0
219477 Par ch=1 c=64 v=127
219477 Par ch=1 c=64 v=127
219477 Off ch=1 n=c6 v=0
219477 On ch=1 n=d#5 v=39
219648 Off ch=1 n=f#4 v=0
219648 On ch=1 n=g#3 v=29
219819 Off ch=1 n=d#5 v=0
219819 On ch=1 n=f#5 v=46
220160 Off ch=1 n=f#5 v=0
220160 On ch=1 n=c6 v=45
220160 Off ch=1 n=g#3 v=0
220160 On ch=1 n=g#2 v=28
220206 Par ch=1 c=64 v=0
220206 Par ch=1 c=64 v=0
220297 Par ch=1 c=64 v=0
220297 Par ch=1 c=64 v=0
220501 Off ch=1 n=c6 v=0
220501 On ch=1 n=g#4 v=39
220672 Off ch=1 n=g#2 v=0
220843 Off ch=1 n=g#4 v=0
220843 On ch=1 n=c5 v=35
221184 Off ch=1 n=c5 v=0
221184 On ch=1 n=f5 v=37
221321 Par ch=1 c=64 v=127
221525 Off ch=1 n=f5 v=0
221525 On ch=1 n=c5 v=40
221867 Off ch=1 n=c5 v=0
221867 On ch=1 n=d#5 v=35
222026 Par ch=1 c=64 v=0
222208 Par ch=1 c=64 v=127
222208 Par ch=1 c=64 v=0
222208 Par ch=1 c=64 v=0
222208 Par ch=1 c=64 v=0
222208 Off ch=1 n=d#5 v=0
222208 On ch=1 n=a#5 v=35
222208 On ch=1 n=f#4 v=26
222345 Par ch=1 c=64 v=0
222549 Par ch=1 c=64 v=127
222549 Off ch=1 n=a#5 v=0
222549 On ch=1 n=c5 v=33
222720 Off ch=1 n=f#4 v=0
222720 On ch=1 n=g#3 v=26
222891 Off ch=1 n=c5 v=0
222891 On ch=1 n=a5 v=35
223232 Off ch=1 n=a5 v=0
223232 On ch=1 n=f6 v=40
223232 Off ch=1 n=g#3 v=0
223232 On ch=1 n=c#3 v=26
223278 Par ch=1 c=64 v=0
223369 Par ch=1 c=64 v=0
223573 Off ch=1 n=f6 v=0
223573 On ch=1 n=a#5 v=35
223744 Off ch=1 n=c#3 v=0
223744 On ch=1 n=g#3 v=26
223915 Off ch=1 n=a#5 v=0
223915 On ch=1 n=c5 v=33
224256 Off ch=1 n=c5 v=0
224256 On ch=1 n=a5 v=35
224256 Off ch=1 n=g#3 v=0
224256 On ch=1 n=f#4 v=26
224597 Off ch=1 n=a5 v=0
224597 On ch=1 n=d#6 v=40
224768 Off ch=1 n=f#4 v=0
224768 On ch=1 n=c5 v=26
224939 Off ch=1 n=d#6 v=0
224939 On ch=1 n=g#5 v=35
225280 Par ch=1 c=64 v=127
225280 Par ch=1 c=64 v=0
225280 Par ch=1 c=64 v=0
225280 Par ch=1 c=64 v=0
225280 Par ch=1 c=64 v=0
225280 Off ch=1 n=g#5 v=0
225280 Off ch=1 n=c5 v=0
225280 On ch=1 n=a5 v=35
225280 On ch=1 n=f4 v=26
225417 Par ch=1 c=64 v=0
225621 Par ch=1 c=64 v=127
225621 Off ch=1 n=a5 v=0
225621 On ch=1 n=c#5 v=33
225792 Off ch=1 n=f4 v=0
225792 On ch=1 n=g#3 v=26
225963 Off ch=1 n=c#5 v=0
225963 On ch=1 n=g#5 v=35
226304 Off ch=1 n=g#5 v=0
226304 On ch=1 n=c#6 v=40
226304 Off ch=1 n=g#3 v=0
226304 On ch=1 n=c#3 v=26
226350 Par ch=1 c=64 v=0
226441 Par ch=1 c=64 v=0
226645 Off ch=1 n=c#6 v=0
226645 On ch=1 n=c#5 v=33
226816 Off ch=1 n=c#3 v=0
226816 On ch=1 n=a3 v=38
226987 Off ch=1 n=c#5 v=0
226987 On ch=1 n=f5 v=35
227328 Off ch=1 n=f5 v=0
227328 On ch=1 n=g#5 v=35
227328 Off ch=1 n=a3 v=0
227328 On ch=1 n=f4 v=26
227669 Off ch=1 n=g#5 v=0
227669 On ch=1 n=c#5 v=33
227840 Off ch=1 n=f4 v=0
227840 On ch=1 n=c#5 v=26
228011 Off ch=1 n=c#5 v=0
228011 On ch=1 n=g5 v=35
228352 Par ch=1 c=64 v=127
228352 Par ch=1 c=64 v=0
228352 Par ch=1 c=64 v=0
228352 Par ch=1 c=64 v=0
228352 Par ch=1 c=64 v=0
228352 Par ch=1 c=64 v=0
228352 Off ch=1 n=g5 v=0
228352 Off ch=1 n=c#5 v=0
228352 On ch=1 n=a#5 v=35
228352 On ch=1 n=f#4 v=26
228489 Par ch=1 c=64 v=0
228693 Par ch=1 c=64 v=127
228693 Off ch=1 n=a#5 v=0
228693 On ch=1 n=c5 v=33
228864 Off ch=1 n=f#4 v=0
228864 On ch=1 n=g#3 v=26
229035 Off ch=1 n=c5 v=0
229035 On ch=1 n=a5 v=40
229376 Off ch=1 n=a5 v=0
229376 On ch=1 n=f6 v=40
229376 Off ch=1 n=g#3 v=0
229376 On ch=1 n=c#3 v=26
229422 Par ch=1 c=64 v=0
229513 Par ch=1 c=64 v=0
229717 Off ch=1 n=f6 v=0
229717 On ch=1 n=a#5 v=35
229888 Off ch=1 n=c#3 v=0
229888 On ch=1 n=g#3 v=26
230059 Off ch=1 n=a#5 v=0
230059 On ch=1 n=c5 v=33
230400 Off ch=1 n=c5 v=0
230400 On ch=1 n=a5 v=35
230400 Off ch=1 n=g#3 v=0
230400 On ch=1 n=f#4 v=26
230741 Off ch=1 n=a5 v=0
230741 On ch=1 n=d#6 v=40
230912 Off ch=1 n=f#4 v=0
230912 On ch=1 n=c5 v=26
231083 Off ch=1 n=d#6 v=0
231083 On ch=1 n=g#5 v=35
231424 Par ch=1 c=64 v=127
231424 Par ch=1 c=64 v=0
231424 Par ch=1 c=64 v=0
231424 Par ch=1 c=64 v=0
231424 Par ch=1 c=64 v=0
231424 Par ch=1 c=64 v=0
231424 Off ch=1 n=g#5 v=0
231424 Off ch=1 n=c5 v=0
231424 On ch=1 n=a5 v=35
231424 On ch=1 n=f4 v=26
231561 Par ch=1 c=64 v=0
231765 Par ch=1 c=64 v=127
231765 Off ch=1 n=a5 v=0
231765 On ch=1 n=c#5 v=33
231936 Off ch=1 n=f4 v=0
231936 On ch=1 n=g#3 v=26
232107 Off ch=1 n=c#5 v=0
232107 On ch=1 n=g#5 v=35
232448 Off ch=1 n=g#5 v=0
232448 On ch=1 n=c#6 v=40
232448 Off ch=1 n=g#3 v=0
232448 On ch=1 n=c#3 v=26
232494 Par ch=1 c=64 v=0
232585 Par ch=1 c=64 v=0
232789 Off ch=1 n=c#6 v=0
232789 On ch=1 n=c#5 v=33
232960 Off ch=1 n=c#3 v=0
233131 Off ch=1 n=c#5 v=0
233131 On ch=1 n=f5 v=35
233472 Off ch=1 n=f5 v=0
233472 On ch=1 n=a#5 v=35
233813 Off ch=1 n=a#5 v=0
233813 On ch=1 n=f5 v=35
234155 Off ch=1 n=f5 v=0
234155 On ch=1 n=g#5 v=35
234496 Par ch=1 c=64 v=0
234496 Par ch=1 c=64 v=0
234496 Off ch=1 n=g#5 v=0
234496 On ch=1 n=g#5 v=40
234496 On ch=1 n=e4 v=33
234837 On ch=1 n=a#4 v=33
234887 Off ch=1 n=g#5 v=0
235008 On ch=1 n=f#3 v=34
235058 Off ch=1 n=e4 v=0
235179 On ch=1 n=g5 v=36
235229 Off ch=1 n=a#4 v=0
235520 On ch=1 n=d#6 v=42
235520 On ch=1 n=f#2 v=34
235570 Off ch=1 n=g5 v=0
235570 Off ch=1 n=f#3 v=0
235861 On ch=1 n=g#5 v=37
235911 Off ch=1 n=d#6 v=0
236032 On ch=1 n=f#3 v=35
236082 Off ch=1 n=f#2 v=0
236203 On ch=1 n=a#4 v=35
236253 Off ch=1 n=g#5 v=0
236544 On ch=1 n=g5 v=44
236544 On ch=1 n=e4 v=36
236594 Off ch=1 n=a#4 v=0
236594 Off ch=1 n=f#3 v=0
236885 On ch=1 n=c#6 v=44
236935 Off ch=1 n=g5 v=0
237056 On ch=1 n=a#4 v=37
237106 Off ch=1 n=e4 v=0
237227 On ch=1 n=f#5 v=39
237277 Off ch=1 n=c#6 v=0
237568 On ch=1 n=b5 v=45
237568 On ch=1 n=f#5 v=37
237618 Off ch=1 n=f#5 v=0
237618 Off ch=1 n=a#4 v=0
237630 Par ch=1 c=64 v=127
237909 On ch=1 n=c5 v=38
237959 Off ch=1 n=b5 v=0
238080 On ch=1 n=f#4 v=38
238130 Off ch=1 n=f#5 v=0
238251 On ch=1 n=a#5 v=41
238301 Off ch=1 n=c5 v=0
238328 Par ch=1 c=64 v=0
238592 On ch=1 n=e6 v=47
238592 On ch=1 n=c4 v=39
238642 Off ch=1 n=a#5 v=0
238642 Off ch=1 n=f#4 v=0
238933 On ch=1 n=b5 v=42
238983 Off ch=1 n=e6 v=0
239104 On ch=1 n=d3 v=40
239154 Off ch=1 n=c4 v=0
239181 Par ch=1 c=64 v=0
239259 Par ch=1 c=64 v=127
239275 On ch=1 n=c5 v=40
239325 Off ch=1 n=b5 v=0
239616 On ch=1 n=a#5 v=49
239616 On ch=1 n=d2 v=40
239666 Off ch=1 n=c5 v=0
239666 Off ch=1 n=d3 v=0
239941 Par ch=1 c=64 v=0
239957 On ch=1 n=d6 v=50
240007 Off ch=1 n=a#5 v=0
240178 Off ch=1 n=d2 v=0
240299 On ch=1 n=a5 v=44
240349 Off ch=1 n=d6 v=0
240640 On ch=1 n=a#5 v=51
240640 On ch=1 n=f#4 v=42
240690 Off ch=1 n=a5 v=0
240702 Par ch=1 c=64 v=127
240981 On ch=1 n=c5 v=42
241031 Off ch=1 n=a#5 v=0
241152 On ch=1 n=g#3 v=43
241202 Off ch=1 n=f#4 v=0
241323 On ch=1 n=a5 v=46
241373 Off ch=1 n=c5 v=0
241400 Par ch=1 c=64 v=0
241664 On ch=1 n=f6 v=52
241664 On ch=1 n=g#2 v=43
241714 Off ch=1 n=a5 v=0
241714 Off ch=1 n=g#3 v=0
242005 On ch=1 n=a#5 v=47
242055 Off ch=1 n=f6 v=0
242176 On ch=1 n=g#3 v=44
242226 Off ch=1 n=g#2 v=0
242253 Par ch=1 c=64 v=0
242331 Par ch=1 c=64 v=127
242347 On ch=1 n=c5 v=44
242397 Off ch=1 n=a#5 v=0
242688 On ch=1 n=a5 v=54
242688 On ch=1 n=f#4 v=45
242738 Off ch=1 n=c5 v=0
242738 Off ch=1 n=g#3 v=0
243013 Par ch=1 c=64 v=0
243029 On ch=1 n=d#6 v=55
243079 Off ch=1 n=a5 v=0
243200 On ch=1 n=c5 v=46
243250 Off ch=1 n=f#4 v=0
243371 On ch=1 n=g#5 v=49
243421 Off ch=1 n=d#6 v=0
243712 On ch=1 n=c#6 v=56
243712 On ch=1 n=g#5 v=46
243762 Off ch=1 n=g#5 v=0
243762 Off ch=1 n=c5 v=0
243774 Par ch=1 c=64 v=127
244053 On ch=1 n=d5 v=46
244103 Off ch=1 n=c#6 v=0
244224 On ch=1 n=g#4 v=45
244274 Off ch=1 n=g#5 v=0
244395 On ch=1 n=c6 v=48
244445 Off ch=1 n=d5 v=0
244472 Par ch=1 c=64 v=0
244736 On ch=1 n=f#6 v=53
244736 On ch=1 n=d4 v=44
244786 Off ch=1 n=c6 v=0
244786 Off ch=1 n=g#4 v=0
245077 On ch=1 n=c#6 v=46
245127 Off ch=1 n=f#6 v=0
245248 On ch=1 n=e3 v=43
245298 Off ch=1 n=d4 v=0
245325 Par ch=1 c=64 v=0
245403 Par ch=1 c=64 v=127
245419 On ch=1 n=d5 v=43
245469 Off ch=1 n=c#6 v=0
245760 On ch=1 n=c6 v=51
245760 On ch=1 n=e2 v=42
245810 Off ch=1 n=d5 v=0
245810 Off ch=1 n=e3 v=0
246085 Par ch=1 c=64 v=0
246101 On ch=1 n=e6 v=50
246151 Off ch=1 n=c6 v=0
246322 Off ch=1 n=e2 v=0
246443 On ch=1 n=b5 v=43
246493 Off ch=1 n=e6 v=0
246784 On ch=1 n=f#5 v=40
246784 On ch=1 n=d4 v=33
246834 Off ch=1 n=b5 v=0
246943 Par ch=1 c=64 v=127
247125 On ch=1 n=g#4 v=33
247296 Off ch=1 n=d4 v=0
247296 On ch=1 n=e3 v=34
247467 Off ch=1 n=g#4 v=0
247467 Off ch=1 n=f#5 v=0
247467 On ch=1 n=f5 v=36
247717 Par ch=1 c=64 v=0
247808 On ch=1 n=b5 v=42
247808 Off ch=1 n=e3 v=0
247808 On ch=1 n=e2 v=34
248149 Off ch=1 n=f5 v=0
248149 Off ch=1 n=b5 v=0
248149 On ch=1 n=e5 v=37
248320 Off ch=1 n=e2 v=0
248320 On ch=1 n=e3 v=35
248491 On ch=1 n=g#4 v=35
248832 Off ch=1 n=g#4 v=0
248832 Off ch=1 n=e5 v=0
248832 On ch=1 n=d#5 v=37
248832 Off ch=1 n=e3 v=0
248832 On ch=1 n=g#3 v=36
249014 Par ch=1 c=64 v=127
249173 Off ch=1 n=d#5 v=0
249173 On ch=1 n=d5 v=48
249173 On ch=1 n=c6 v=37
249344 Off ch=1 n=g#3 v=0
249344 On ch=1 n=g#4 v=32
249515 Off ch=1 n=d5 v=0
249515 Off ch=1 n=c6 v=0
249515 On ch=1 n=d5 v=39
249628 Par ch=1 c=64 v=0
249856 Off ch=1 n=g#4 v=0
249856 On ch=1 n=b4 v=37
250106 Par ch=1 c=64 v=127
250197 Off ch=1 n=d5 v=0
250197 On ch=1 n=c#5 v=38
250368 Off ch=1 n=b4 v=0
250368 On ch=1 n=c#4 v=38
250539 On ch=1 n=g5 v=41
250880 Off ch=1 n=g5 v=0
250880 On ch=1 n=c#6 v=47
250880 Off ch=1 n=c#4 v=0
250880 On ch=1 n=f3 v=39
251221 Off ch=1 n=c#5 v=0
251221 Off ch=1 n=c#6 v=0
251221 On ch=1 n=a#5 v=42
251392 Off ch=1 n=f3 v=0
251392 On ch=1 n=f3 v=40
251563 Off ch=1 n=a#5 v=0
251563 On ch=1 n=c#5 v=40
251881 Par ch=1 c=64 v=0
251904 Off ch=1 n=c#5 v=0
251904 On ch=1 n=a5 v=49
251904 Off ch=1 n=f3 v=0
251904 On ch=1 n=f2 v=40
252245 Off ch=1 n=a5 v=0
252245 On ch=1 n=c#6 v=50
252416 Off ch=1 n=f2 v=0
252587 Off ch=1 n=c#6 v=0
252587 On ch=1 n=g#5 v=44
252928 Off ch=1 n=g#5 v=0
252928 On ch=1 n=d#5 v=44
252928 On ch=1 n=c#4 v=25
253087 Par ch=1 c=64 v=127
253269 On ch=1 n=b4 v=33
253440 Off ch=1 n=c#4 v=0
253440 On ch=1 n=f3 v=25
253611 Off ch=1 n=b4 v=0
253611 Off ch=1 n=d#5 v=0
253611 On ch=1 n=d5 v=47
253861 Par ch=1 c=64 v=0
253952 On ch=1 n=g#5 v=38
253952 Off ch=1 n=f3 v=0
253952 On ch=1 n=f2 v=26
254293 Off ch=1 n=d5 v=0
254293 Off ch=1 n=g#5 v=0
254293 On ch=1 n=c#5 v=49
254464 Off ch=1 n=f2 v=0
254464 On ch=1 n=f3 v=26
254635 On ch=1 n=f4 v=36
254976 Off ch=1 n=f4 v=0
254976 Off ch=1 n=c#5 v=0
254976 On ch=1 n=c5 v=54
254976 Off ch=1 n=f3 v=0
254976 On ch=1 n=c#4 v=26
255158 Par ch=1 c=64 v=127
255317 On ch=1 n=a5 v=39
255488 Off ch=1 n=c#4 v=0
255659 Off ch=1 n=c5 v=0
255659 Off ch=1 n=a5 v=0
255659 On ch=1 n=b4 v=57
255772 Par ch=1 c=64 v=0
256000 Off ch=1 n=b4 v=0
256000 On ch=1 n=a#4 v=42
256000 On ch=1 n=a#4 v=46
256250 Par ch=1 c=64 v=127
256341 Off ch=1 n=a#4 v=0
256341 On ch=1 n=a#4 v=47
256512 Off ch=1 n=a#4 v=0
256512 On ch=1 n=c#4 v=47
256683 On ch=1 n=c#5 v=51
257024 Off ch=1 n=c#5 v=0
257024 On ch=1 n=a#5 v=58
257024 Off ch=1 n=c#4 v=0
257024 On ch=1 n=f#3 v=49
257365 Off ch=1 n=a#5 v=0
257365 On ch=1 n=f#5 v=53
257536 Off ch=1 n=f#3 v=0
257536 On ch=1 n=f#3 v=50
257707 Off ch=1 n=a#4 v=0
257707 Off ch=1 n=f#5 v=0
257707 On ch=1 n=a#4 v=51
258025 Par ch=1 c=64 v=0
258048 Off ch=1 n=a#4 v=0
258048 On ch=1 n=f5 v=61
258048 Off ch=1 n=f#3 v=0
258048 On ch=1 n=f#2 v=51
258389 On ch=1 n=a#5 v=63
258560 Off ch=1 n=f#2 v=0
258731 Off ch=1 n=f5 v=0
258731 Off ch=1 n=a#5 v=0
258731 On ch=1 n=e5 v=56
259072 Par ch=1 c=64 v=127
259072 Off ch=1 n=e5 v=0
259072 On ch=1 n=c#5 v=51
259209 Par ch=1 c=64 v=0
259413 On ch=1 n=d#5 v=54
259482 Par ch=1 c=64 v=127
259584 On ch=1 n=d#4 v=46
259755 Off ch=1 n=d#5 v=0
259755 On ch=1 n=a5 v=59
260096 Off ch=1 n=a5 v=0
260096 On ch=1 n=d#6 v=66
260096 Off ch=1 n=d#4 v=0
260096 Off ch=1 n=c#5 v=0
260096 On ch=1 n=g3 v=44
260437 Off ch=1 n=d#6 v=0
260437 On ch=1 n=c6 v=60
260608 Off ch=1 n=g3 v=0
260608 On ch=1 n=g3 v=44
260779 Off ch=1 n=c6 v=0
260779 On ch=1 n=d#5 v=56
260824 Par ch=1 c=64 v=127
261120 Off ch=1 n=d#5 v=0
261120 On ch=1 n=b5 v=68
261120 Off ch=1 n=g3 v=0
261120 On ch=1 n=g2 v=44
261461 Off ch=1 n=b5 v=0
261461 On ch=1 n=d#6 v=69
261632 Off ch=1 n=g2 v=0
261803 Off ch=1 n=d#6 v=0
261803 On ch=1 n=a#5 v=62
262144 Par ch=1 c=64 v=127
262144 Par ch=1 c=64 v=0
262144 Off ch=1 n=a#5 v=0
262144 On ch=1 n=c#5 v=62
262281 Par ch=1 c=64 v=0
262440 Par ch=1 c=64 v=127
262485 On ch=1 n=f#5 v=54
262554 Par ch=1 c=64 v=127
262656 On ch=1 n=f#4 v=48
262827 Off ch=1 n=f#5 v=0
262827 On ch=1 n=f6 v=58
263168 Off ch=1 n=f6 v=0
263168 On ch=1 n=a#6 v=65
263168 Off ch=1 n=f#4 v=0
263168 Off ch=1 n=c#5 v=0
263168 On ch=1 n=g#3 v=48
263509 Off ch=1 n=a#6 v=0
263509 On ch=1 n=d6 v=59
263680 Off ch=1 n=g#3 v=0
263680 On ch=1 n=g#3 v=48
263851 Off ch=1 n=d6 v=0
263851 On ch=1 n=f#5 v=56
263896 Par ch=1 c=64 v=127
264192 Off ch=1 n=f#5 v=0
264192 On ch=1 n=f6 v=67
264192 Off ch=1 n=g#3 v=0
264192 On ch=1 n=g#2 v=48
264533 Off ch=1 n=f6 v=0
264533 On ch=1 n=a#6 v=68
264704 Off ch=1 n=g#2 v=0
264875 Off ch=1 n=a#6 v=0
264875 On ch=1 n=d#6 v=61
265216 Par ch=1 c=64 v=127
265216 Par ch=1 c=64 v=0
265216 Off ch=1 n=d#6 v=0
265216 On ch=1 n=c#5 v=66
265353 Par ch=1 c=64 v=0
265512 Par ch=1 c=64 v=127
265557 On ch=1 n=d#5 v=53
265626 Par ch=1 c=64 v=127
265728 On ch=1 n=f#4 v=52
265899 Off ch=1 n=d#5 v=0
265899 On ch=1 n=c6 v=58
266240 Off ch=1 n=c6 v=0
266240 On ch=1 n=g#6 v=64
266240 Off ch=1 n=f#4 v=0
266240 Off ch=1 n=c#5 v=0
266240 On ch=1 n=g#3 v=52
266581 Off ch=1 n=g#6 v=0
266581 On ch=1 n=a5 v=58
266752 Off ch=1 n=g#3 v=0
266752 On ch=1 n=g#3 v=52
266923 Off ch=1 n=a5 v=0
266923 On ch=1 n=d#5 v=54
266968 Par ch=1 c=64 v=127
267264 Off ch=1 n=d#5 v=0
267264 On ch=1 n=c6 v=66
267264 Off ch=1 n=g#3 v=0
267264 On ch=1 n=g#2 v=52
267605 Off ch=1 n=c6 v=0
267605 On ch=1 n=f#6 v=66
267776 Off ch=1 n=g#2 v=0
267947 Off ch=1 n=f#6 v=0
267947 On ch=1 n=a#5 v=60
268288 Par ch=1 c=64 v=127
268288 Par ch=1 c=64 v=0
268288 Off ch=1 n=a#5 v=0
268288 On ch=1 n=c5 v=69
268425 Par ch=1 c=64 v=0
268584 Par ch=1 c=64 v=127
268629 On ch=1 n=f#5 v=52
268698 Par ch=1 c=64 v=127
268800 On ch=1 n=f#4 v=55
268971 Off ch=1 n=f#5 v=0
268971 On ch=1 n=a#5 v=55
269312 Off ch=1 n=a#5 v=0
269312 On ch=1 n=f6 v=63
269312 Off ch=1 n=f#4 v=0
269312 Off ch=1 n=c5 v=0
269312 On ch=1 n=g#3 v=55
269653 Off ch=1 n=f6 v=0
269653 On ch=1 n=a#5 v=57
269824 Off ch=1 n=g#3 v=0
269824 On ch=1 n=g#3 v=55
269995 Off ch=1 n=a#5 v=0
269995 On ch=1 n=f#5 v=53
270040 Par ch=1 c=64 v=127
270336 Off ch=1 n=f#5 v=0
270336 On ch=1 n=a#5 v=64
270336 Off ch=1 n=g#3 v=0
270336 On ch=1 n=g#2 v=55
270677 Off ch=1 n=a#5 v=0
270677 On ch=1 n=d#6 v=65
270848 Off ch=1 n=g#2 v=0
271019 Off ch=1 n=d#6 v=0
271019 On ch=1 n=g#5 v=58
271360 Par ch=1 c=64 v=127
271360 Par ch=1 c=64 v=0
271360 Off ch=1 n=g#5 v=0
271360 On ch=1 n=a#5 v=71
271360 On ch=1 n=g#3 v=56
271360 On ch=1 n=f#4 v=68
271513 Par ch=1 c=64 v=0
271701 Off ch=1 n=a#5 v=0
271701 On ch=1 n=c5 v=66
271774 Par ch=1 c=64 v=127
272043 Off ch=1 n=c5 v=0
272043 On ch=1 n=a5 v=71
272384 Off ch=1 n=a5 v=0
272384 On ch=1 n=f6 v=70
272384 Off ch=1 n=g#3 v=0
272384 Off ch=1 n=f#4 v=0
272384 On ch=1 n=c#2 v=61
272384 On ch=1 n=c#3 v=61
272725 Off ch=1 n=f6 v=0
272725 On ch=1 n=g#5 v=71
273067 Off ch=1 n=g#5 v=0
273067 On ch=1 n=c5 v=65
273408 Par ch=1 c=64 v=0
273408 Off ch=1 n=c5 v=0
273408 On ch=1 n=g5 v=70
273408 Off ch=1 n=c#2 v=0
273408 Off ch=1 n=c#3 v=0
273408 On ch=1 n=g#3 v=54
273408 On ch=1 n=a4 v=75
273648 Par ch=1 c=64 v=127
273749 Off ch=1 n=g5 v=0
273749 On ch=1 n=d#6 v=68
274091 Off ch=1 n=d#6 v=0
274091 On ch=1 n=f#5 v=70
274176 Off ch=1 n=g#3 v=0
274176 Off ch=1 n=a4 v=0
274176 On ch=1 n=g#4 v=73
274432 Par ch=1 c=64 v=127
274432 Par ch=1 c=64 v=0
274432 Par ch=1 c=64 v=0
274432 Off ch=1 n=f#5 v=0
274432 Off ch=1 n=g#4 v=0
274432 On ch=1 n=f5 v=69
274432 On ch=1 n=g#3 v=53
274432 On ch=1 n=g4 v=73
274585 Par ch=1 c=64 v=0
274773 Off ch=1 n=f5 v=0
274773 On ch=1 n=c#5 v=64
274846 Par ch=1 c=64 v=127
275115 Off ch=1 n=c#5 v=0
275115 On ch=1 n=d#5 v=64
275456 Off ch=1 n=d#5 v=0
275456 On ch=1 n=c#6 v=66
275456 Off ch=1 n=g#3 v=0
275456 Off ch=1 n=g4 v=0
275456 On ch=1 n=c#2 v=58
275456 On ch=1 n=c#3 v=52
275797 Off ch=1 n=c#6 v=0
275797 On ch=1 n=e5 v=68
276139 Off ch=1 n=e5 v=0
276139 On ch=1 n=c#5 v=63
276480 Par ch=1 c=64 v=0
276480 Off ch=1 n=c#5 v=0
276480 On ch=1 n=f#5 v=67
276480 Off ch=1 n=c#2 v=0
276480 Off ch=1 n=c#3 v=0
276480 On ch=1 n=g#3 v=52
276480 On ch=1 n=e4 v=71
276720 Par ch=1 c=64 v=127
276821 Off ch=1 n=f#5 v=0
276821 On ch=1 n=c#6 v=65
277163 Off ch=1 n=c#6 v=0
277163 On ch=1 n=g5 v=62
277248 Off ch=1 n=g#3 v=0
277248 Off ch=1 n=e4 v=0
277248 On ch=1 n=f4 v=66
277504 Par ch=1 c=64 v=127
277504 Par ch=1 c=64 v=0
277504 Par ch=1 c=64 v=0
277504 Off ch=1 n=g5 v=0
277504 Off ch=1 n=f4 v=0
277504 On ch=1 n=f5 v=57
277504 On ch=1 n=g#3 v=51
277504 On ch=1 n=g4 v=70
277657 Par ch=1 c=64 v=0
277845 Off ch=1 n=f5 v=0
277845 On ch=1 n=c#5 v=54
277918 Par ch=1 c=64 v=127
278187 Off ch=1 n=c#5 v=0
278187 On ch=1 n=d#5 v=58
278528 Off ch=1 n=d#5 v=0
278528 On ch=1 n=c6 v=56
278528 Off ch=1 n=g#3 v=0
278528 Off ch=1 n=g4 v=0
278528 On ch=1 n=c#2 v=55
278528 On ch=1 n=c#3 v=50
278869 Off ch=1 n=c6 v=0
278869 On ch=1 n=e5 v=58
279211 Off ch=1 n=e5 v=0
279211 On ch=1 n=c#5 v=53
279552 Par ch=1 c=64 v=0
279552 Off ch=1 n=c#5 v=0
279552 On ch=1 n=f#5 v=57
279552 Off ch=1 n=c#2 v=0
279552 Off ch=1 n=c#3 v=0
279552 On ch=1 n=g#3 v=49
279552 On ch=1 n=e4 v=68
279792 Par ch=1 c=64 v=127
279893 Off ch=1 n=f#5 v=0
279893 On ch=1 n=a#5 v=55
280235 Off ch=1 n=a#5 v=0
280235 On ch=1 n=g5 v=57
280320 Off ch=1 n=g#3 v=0
280320 Off ch=1 n=e4 v=0
280320 On ch=1 n=f4 v=66
280576 Par ch=1 c=64 v=127
280576 Par ch=1 c=64 v=0
280576 Par ch=1 c=64 v=0
280576 Off ch=1 n=g5 v=0
280576 Off ch=1 n=f4 v=0
280576 On ch=1 n=a#5 v=49
280576 On ch=1 n=g#3 v=48
280576 On ch=1 n=f#4 v=66
280729 Par ch=1 c=64 v=0
280917 Off ch=1 n=a#5 v=0
280917 On ch=1 n=c5 v=51
280990 Par ch=1 c=64 v=127
281259 Off ch=1 n=c5 v=0
281259 On ch=1 n=d5 v=51
281600 Off ch=1 n=d5 v=0
281600 On ch=1 n=a#5 v=53
281600 Off ch=1 n=g#3 v=0
281600 Off ch=1 n=f#4 v=0
281600 On ch=1 n=c#2 v=52
281600 On ch=1 n=c#3 v=47
281941 Off ch=1 n=a#5 v=0
281941 On ch=1 n=f5 v=55
282283 Off ch=1 n=f5 v=0
282283 On ch=1 n=c5 v=50
282624 Par ch=1 c=64 v=0
282624 Off ch=1 n=c5 v=0
282624 On ch=1 n=f5 v=54
282624 Off ch=1 n=c#2 v=0
282624 Off ch=1 n=c#3 v=0
282864 Par ch=1 c=64 v=127
282965 Off ch=1 n=f5 v=0
282965 On ch=1 n=g#5 v=51
283307 Off ch=1 n=g#5 v=0
283307 On ch=1 n=d#5 v=50
283648 Par ch=1 c=64 v=127
283648 Par ch=1 c=64 v=0
283648 Off ch=1 n=d#5 v=0
283648 On ch=1 n=a#5 v=52
283648 On ch=1 n=g#3 v=26
283648 On ch=1 n=f#4 v=35
283785 Par ch=1 c=64 v=0
283989 Off ch=1 n=a#5 v=0
283989 On ch=1 n=c5 v=44
284058 Par ch=1 c=64 v=127
284331 Off ch=1 n=c5 v=0
284331 On ch=1 n=a5 v=49
284672 Off ch=1 n=a5 v=0
284672 On ch=1 n=f6 v=53
284672 Off ch=1 n=g#3 v=0
284672 Off ch=1 n=f#4 v=0
284672 On ch=1 n=c#2 v=28
284672 On ch=1 n=c#3 v=38
285013 Off ch=1 n=f6 v=0
285013 On ch=1 n=g#5 v=54
285355 Off ch=1 n=g#5 v=0
285355 On ch=1 n=c5 v=49
285696 Par ch=1 c=64 v=0
285696 Off ch=1 n=c5 v=0
285696 On ch=1 n=g5 v=51
285696 Off ch=1 n=c#2 v=0
285696 Off ch=1 n=c#3 v=0
286037 Off ch=1 n=g5 v=0
286037 On ch=1 n=d#6 v=47
286379 Off ch=1 n=d#6 v=0
286379 On ch=1 n=f#5 v=48
286720 Par ch=1 c=64 v=127
286720 Par ch=1 c=64 v=0
286720 Par ch=1 c=64 v=0
286720 Off ch=1 n=f#5 v=0
286720 On ch=1 n=f5 v=55
286720 On ch=1 n=a3 v=31
286720 On ch=1 n=g4 v=43
286857 Par ch=1 c=64 v=0
287061 Off ch=1 n=f5 v=0
287061 On ch=1 n=c#5 v=53
287130 Par ch=1 c=64 v=127
287403 Off ch=1 n=c#5 v=0
287403 On ch=1 n=d#5 v=52
287744 Off ch=1 n=d#5 v=0
287744 On ch=1 n=c#6 v=52
287744 Off ch=1 n=a3 v=0
287744 Off ch=1 n=g4 v=0
287744 On ch=1 n=c#2 v=29
287744 On ch=1 n=c#3 v=40
288085 Off ch=1 n=c#6 v=0
288085 On ch=1 n=e5 v=52
288427 Off ch=1 n=e5 v=0
288427 On ch=1 n=c#5 v=46
288768 Par ch=1 c=64 v=0
288768 Off ch=1 n=c#5 v=0
288768 On ch=1 n=f#5 v=48
288768 Off ch=1 n=c#2 v=0
288768 Off ch=1 n=c#3 v=0
289109 Off ch=1 n=f#5 v=0
289109 On ch=1 n=c#6 v=50
289451 Off ch=1 n=c#6 v=0
289451 On ch=1 n=g5 v=41
289792 Par ch=1 c=64 v=127
289792 Par ch=1 c=64 v=0
289792 Off ch=1 n=g5 v=0
289792 On ch=1 n=a#5 v=47
289792 On ch=1 n=g#3 v=21
289792 On ch=1 n=f#4 v=30
289929 Par ch=1 c=64 v=0
290133 Off ch=1 n=a#5 v=0
290133 On ch=1 n=c5 v=39
290202 Par ch=1 c=64 v=127
290475 Off ch=1 n=c5 v=0
290475 On ch=1 n=a5 v=44
290816 Off ch=1 n=a5 v=0
290816 On ch=1 n=f6 v=48
290816 Off ch=1 n=g#3 v=0
290816 Off ch=1 n=f#4 v=0
290816 On ch=1 n=c#2 v=23
290816 On ch=1 n=c#3 v=33
291157 Off ch=1 n=f6 v=0
291157 On ch=1 n=g#5 v=49
291499 Off ch=1 n=g#5 v=0
291499 On ch=1 n=c5 v=44
291840 Par ch=1 c=64 v=0
291840 Off ch=1 n=c5 v=0
291840 On ch=1 n=g5 v=47
291840 Off ch=1 n=c#2 v=0
291840 Off ch=1 n=c#3 v=0
292181 Off ch=1 n=g5 v=0
292181 On ch=1 n=d#6 v=43
292523 Off ch=1 n=d#6 v=0
292523 On ch=1 n=f#5 v=44
292864 Par ch=1 c=64 v=127
292864 Par ch=1 c=64 v=0
292864 Par ch=1 c=64 v=0
292864 Off ch=1 n=f#5 v=0
292864 On ch=1 n=f5 v=44
292864 On ch=1 n=a3 v=20
292864 On ch=1 n=g4 v=32
293001 Par ch=1 c=64 v=0
293205 Off ch=1 n=f5 v=0
293205 On ch=1 n=c#5 v=42
293274 Par ch=1 c=64 v=127
293547 Off ch=1 n=c#5 v=0
293547 On ch=1 n=d#5 v=41
293888 Off ch=1 n=d#5 v=0
293888 On ch=1 n=c#6 v=41
293888 Off ch=1 n=a3 v=0
293888 Off ch=1 n=g4 v=0
293888 On ch=1 n=c#2 v=18
293888 On ch=1 n=c#3 v=29
294229 Off ch=1 n=c#6 v=0
294229 On ch=1 n=e5 v=41
294571 Off ch=1 n=e5 v=0
294571 On ch=1 n=c#5 v=35
294912 Par ch=1 c=64 v=0
294912 Off ch=1 n=c#5 v=0
294912 On ch=1 n=f#5 v=37
294912 Off ch=1 n=c#2 v=0
294912 Off ch=1 n=c#3 v=0
295253 Off ch=1 n=f#5 v=0
295253 On ch=1 n=c#6 v=39
295595 Off ch=1 n=c#6 v=0
295595 On ch=1 n=g5 v=30
295936 Off ch=1 n=g5 v=0
295936 On ch=1 n=g#5 v=42
295936 On ch=1 n=g#3 v=27
295936 On ch=1 n=f4 v=27
295936 On ch=1 n=g#4 v=37
296277 Off ch=1 n=g#5 v=0
296277 On ch=1 n=c#5 v=43
296619 Off ch=1 n=c#5 v=0
296619 On ch=1 n=f5 v=44
296960 Off ch=1 n=f5 v=0
296960 On ch=1 n=c#6 v=46
296960 Off ch=1 n=g#3 v=0
296960 Off ch=1 n=f4 v=0
296960 Off ch=1 n=g#4 v=0
296960 On ch=1 n=c#2 v=27
296960 On ch=1 n=c#3 v=36
297301 Off ch=1 n=c#6 v=0
297301 On ch=1 n=f5 v=47
297643 Off ch=1 n=f5 v=0
297643 On ch=1 n=c#5 v=45
297984 Off ch=1 n=c#5 v=0
297984 On ch=1 n=f5 v=46
297984 Off ch=1 n=c#2 v=0
297984 Off ch=1 n=c#3 v=0
297984 On ch=1 n=g#3 v=26
297984 On ch=1 n=g4 v=35
298325 Off ch=1 n=f5 v=0
298325 On ch=1 n=c6 v=43
298667 Off ch=1 n=c6 v=0
298667 On ch=1 n=a#5 v=42
299008 Off ch=1 n=a#5 v=0
299008 Off ch=1 n=g#3 v=0
299008 Off ch=1 n=g4 v=0
299008 On ch=1 n=f5 v=41
299008 On ch=1 n=g#3 v=24
299008 On ch=1 n=g#4 v=33
299349 Off ch=1 n=f5 v=0
299349 On ch=1 n=c#5 v=40
299691 Off ch=1 n=c#5 v=0
299691 On ch=1 n=f5 v=39
300032 Off ch=1 n=f5 v=0
300032 On ch=1 n=c#6 v=38
300032 Off ch=1 n=g#3 v=0
300032 Off ch=1 n=g#4 v=0
300032 On ch=1 n=c#2 v=24
300032 On ch=1 n=c#3 v=32
300373 Off ch=1 n=c#6 v=0
300373 On ch=1 n=f5 v=38
300715 Off ch=1 n=f5 v=0
300715 On ch=1 n=c#5 v=37
301056 Off ch=1 n=c#5 v=0
301056 On ch=1 n=f5 v=36
301056 Off ch=1 n=c#2 v=0
301056 Off ch=1 n=c#3 v=0
301056 On ch=1 n=g#3 v=23
301056 On ch=1 n=g4 v=31
301397 Off ch=1 n=f5 v=0
301397 On ch=1 n=c6 v=35
301739 Off ch=1 n=c6 v=0
301739 On ch=1 n=a#5 v=34
302080 Off ch=1 n=a#5 v=0
302080 Off ch=1 n=g#3 v=0
302080 Off ch=1 n=g4 v=0
302080 On ch=1 n=g#3 v=29
302080 On ch=1 n=g#4 v=37
302353 Par ch=1 c=64 v=127
302421 On ch=1 n=g#4 v=44
302763 Off ch=1 n=g#4 v=0
302763 On ch=1 n=c#5 v=46
303104 Off ch=1 n=c#5 v=0
303104 On ch=1 n=f#5 v=47
303104 Off ch=1 n=g#3 v=0
303104 Off ch=1 n=g#4 v=0
303104 On ch=1 n=c#2 v=28
303104 On ch=1 n=c#3 v=35
303445 Off ch=1 n=f#5 v=0
303445 On ch=1 n=c#5 v=49
303718 Par ch=1 c=64 v=0
303787 Off ch=1 n=c#5 v=0
303787 On ch=1 n=f5 v=44
304128 Off ch=1 n=f5 v=0
304128 On ch=1 n=a#5 v=52
304128 Off ch=1 n=c#2 v=0
304128 Off ch=1 n=c#3 v=0
304196 Par ch=1 c=64 v=127
304469 Off ch=1 n=a#5 v=0
304469 On ch=1 n=f5 v=53
304811 Off ch=1 n=f5 v=0
304811 On ch=1 n=g#5 v=49
304896 On ch=1 n=c#3 v=33
304924 Par ch=1 c=64 v=0
305024 On ch=1 n=g#3 v=33
305152 Off ch=1 n=g#5 v=0
305152 On ch=1 n=f4 v=45
305425 Par ch=1 c=64 v=127
305493 On ch=1 n=c#5 v=40
305835 Off ch=1 n=c#5 v=0
305835 On ch=1 n=f5 v=41
306176 Off ch=1 n=f5 v=0
306176 On ch=1 n=a#5 v=43
306176 Off ch=1 n=c#3 v=0
306176 Off ch=1 n=g#3 v=0
306176 Off ch=1 n=f4 v=0
306517 Off ch=1 n=a#5 v=0
306517 On ch=1 n=f5 v=44
306790 Par ch=1 c=64 v=0
306859 Off ch=1 n=f5 v=0
306859 On ch=1 n=g#5 v=40
307200 Off ch=1 n=g#5 v=0
307200 On ch=1 n=d#6 v=47
307268 Par ch=1 c=64 v=127
307541 Off ch=1 n=d#6 v=0
307541 On ch=1 n=g#5 v=49
307883 Off ch=1 n=g#5 v=0
307883 On ch=1 n=c#6 v=44
307996 Par ch=1 c=64 v=0
308224 Par ch=1 c=64 v=0
308224 Off ch=1 n=c#6 v=0
308224 On ch=1 n=b4 v=31
308361 Par ch=1 c=64 v=127
308565 On ch=1 n=f5 v=23
308736 On ch=1 n=c#4 v=22
308907 On ch=1 n=g#5 v=23
309007 Off ch=1 n=f5 v=0
309248 On ch=1 n=d#6 v=28
309248 Off ch=1 n=b4 v=0
309248 On ch=1 n=f5 v=22
309348 Off ch=1 n=g#5 v=0
309589 On ch=1 n=g#5 v=28
309689 Off ch=1 n=d#6 v=0
309760 Off ch=1 n=c#4 v=0
309760 On ch=1 n=b4 v=22
309931 On ch=1 n=c#6 v=30
309960 Off ch=1 n=f5 v=0
310031 Off ch=1 n=g#5 v=0
310272 On ch=1 n=f#6 v=37
310272 On ch=1 n=g#5 v=22
310372 Off ch=1 n=c#6 v=0
310613 On ch=1 n=c#6 v=37
310713 Off ch=1 n=f#6 v=0
310784 On ch=1 n=f5 v=22
310955 On ch=1 n=f6 v=39
310984 Off ch=1 n=g#5 v=0
311055 Off ch=1 n=c#6 v=0
311296 Par ch=1 c=64 v=127
311296 On ch=1 n=a#6 v=44
311296 On ch=1 n=c#6 v=22
311396 Off ch=1 n=f6 v=0
311433 Par ch=1 c=64 v=0
311615 Par ch=1 c=64 v=127
311637 On ch=1 n=g#6 v=42
311737 Off ch=1 n=a#6 v=0
311979 On ch=1 n=c#7 v=46
312079 Off ch=1 n=g#6 v=0
312320 On ch=1 n=a#6 v=44
312320 Off ch=1 n=b4 v=0
312320 Off ch=1 n=f5 v=0
312420 Off ch=1 n=c#7 v=0
312479 Par ch=1 c=64 v=127
312520 Off ch=1 n=c#6 v=0
312661 On ch=1 n=g#6 v=40
312761 Off ch=1 n=a#6 v=0
313003 On ch=1 n=c#6 v=37
313103 Off ch=1 n=g#6 v=0
313344 On ch=1 n=f6 v=39
313444 Off ch=1 n=c#6 v=0
313640 Par ch=1 c=64 v=0
313685 On ch=1 n=a#5 v=35
313785 Off ch=1 n=f6 v=0
314027 On ch=1 n=g#5 v=32
314127 Off ch=1 n=a#5 v=0
314368 Off ch=1 n=g#5 v=0
314368 On ch=1 n=g#5 v=42
314368 On ch=1 n=d4 v=28
314368 On ch=1 n=a#4 v=37
314596 Par ch=1 c=64 v=127
314709 On ch=1 n=c#5 v=37
315051 Off ch=1 n=c#5 v=0
315051 Off ch=1 n=g#5 v=0
315051 On ch=1 n=g5 v=39
315392 On ch=1 n=c#6 v=39
315392 Off ch=1 n=d4 v=0
315392 On ch=1 n=d#4 v=23
315438 Par ch=1 c=64 v=0
315733 Off ch=1 n=g5 v=0
315733 On ch=1 n=f#5 v=31
315847 Par ch=1 c=64 v=127
316075 Off ch=1 n=c#6 v=0
316075 On ch=1 n=c#5 v=34
316416 Off ch=1 n=c#5 v=0
316416 Off ch=1 n=f#5 v=0
316416 On ch=1 n=f5 v=38
316416 Off ch=1 n=d#4 v=0
316416 Off ch=1 n=a#4 v=0
316416 On ch=1 n=g#3 v=18
316416 On ch=1 n=f#4 v=27
316439 Par ch=1 c=64 v=0
316757 On ch=1 n=c5 v=32
316928 Off ch=1 n=g#3 v=0
316928 Off ch=1 n=f#4 v=0
316928 On ch=1 n=c#3 v=22
317099 Off ch=1 n=c5 v=0
317099 Off ch=1 n=f5 v=0
317099 On ch=1 n=e5 v=32
317184 On ch=1 n=g#3 v=22
317440 Off ch=1 n=e5 v=0
317440 On ch=1 n=d#5 v=33
317440 On ch=1 n=f4 v=31
317759 Par ch=1 c=64 v=127
317781 On ch=1 n=g#4 v=29
318123 Off ch=1 n=g#4 v=0
318123 Off ch=1 n=d#5 v=0
318123 On ch=1 n=d5 v=30
318464 Par ch=1 c=64 v=0
318464 On ch=1 n=g#5 v=33
318464 Off ch=1 n=c#3 v=0
318464 Off ch=1 n=g#3 v=0
318464 Off ch=1 n=f4 v=0
318805 Par ch=1 c=64 v=127
318805 Off ch=1 n=d5 v=0
318805 Off ch=1 n=g#5 v=0
318805 On ch=1 n=c#5 v=28
319147 On ch=1 n=g#4 v=26
319488 Off ch=1 n=g#4 v=0
319488 Off ch=1 n=c#5 v=0
319488 On ch=1 n=c#5 v=30
319829 Off ch=1 n=c#5 v=0
319829 On ch=1 n=f5 v=26
319898 Par ch=1 c=64 v=0
320171 Off ch=1 n=f5 v=0
320171 On ch=1 n=g#5 v=25
320512 Off ch=1 n=g#5 v=0
320512 On ch=1 n=b4 v=31
320853 On ch=1 n=f5 v=25
321024 On ch=1 n=c#4 v=22
321195 On ch=1 n=g#5 v=25
321295 Off ch=1 n=f5 v=0
321536 On ch=1 n=d#6 v=30
321536 Off ch=1 n=b4 v=0
321536 On ch=1 n=f5 v=22
321636 Off ch=1 n=g#5 v=0
321877 On ch=1 n=g#5 v=30
321977 Off ch=1 n=d#6 v=0
322048 Off ch=1 n=c#4 v=0
322048 On ch=1 n=b4 v=22
322219 On ch=1 n=c#6 v=31
322248 Off ch=1 n=f5 v=0
322319 Off ch=1 n=g#5 v=0
322560 On ch=1 n=f#6 v=37
322560 On ch=1 n=g#5 v=22
322660 Off ch=1 n=c#6 v=0
322901 On ch=1 n=c#6 v=37
323001 Off ch=1 n=f#6 v=0
323072 On ch=1 n=f5 v=22
323243 On ch=1 n=f6 v=39
323272 Off ch=1 n=g#5 v=0
323343 Off ch=1 n=c#6 v=0
323584 On ch=1 n=a#6 v=44
323584 On ch=1 n=c#6 v=22
323684 Off ch=1 n=f6 v=0
323925 On ch=1 n=g#6 v=42
324025 Off ch=1 n=a#6 v=0
324267 On ch=1 n=c#7 v=46
324367 Off ch=1 n=g#6 v=0
324608 On ch=1 n=a#6 v=44
324608 Off ch=1 n=b4 v=0
324608 Off ch=1 n=f5 v=0
324708 Off ch=1 n=c#7 v=0
324808 Off ch=1 n=c#6 v=0
324949 On ch=1 n=g#6 v=40
325049 Off ch=1 n=a#6 v=0
325291 On ch=1 n=c#6 v=37
325391 Off ch=1 n=g#6 v=0
325632 On ch=1 n=f6 v=39
325732 Off ch=1 n=c#6 v=0
325973 On ch=1 n=a#5 v=33
326073 Off ch=1 n=f6 v=0
326315 On ch=1 n=g#5 v=40
326415 Off ch=1 n=a#5 v=0
326656 Off ch=1 n=g#5 v=0
326656 On ch=1 n=g#5 v=48
326656 On ch=1 n=d4 v=21
326656 On ch=1 n=a#4 v=30
326884 Par ch=1 c=64 v=127
326997 On ch=1 n=c#5 v=30
327339 Off ch=1 n=c#5 v=0
327339 Off ch=1 n=g#5 v=0
327339 On ch=1 n=g5 v=45
327680 On ch=1 n=c#6 v=39
327680 Off ch=1 n=d4 v=0
327680 On ch=1 n=d#4 v=16
327726 Par ch=1 c=64 v=0
328021 Off ch=1 n=g5 v=0
328021 On ch=1 n=f#5 v=43
328135 Par ch=1 c=64 v=127
328363 Off ch=1 n=c#6 v=0
328363 On ch=1 n=c#5 v=34
328704 Off ch=1 n=c#5 v=0
328704 Off ch=1 n=f#5 v=0
328704 On ch=1 n=f5 v=41
328704 Off ch=1 n=d#4 v=0
328704 Off ch=1 n=a#4 v=0
328704 On ch=1 n=g#3 v=18
328704 On ch=1 n=f#4 v=27
328727 Par ch=1 c=64 v=0
329045 On ch=1 n=c5 v=32
329216 Off ch=1 n=g#3 v=0
329216 Off ch=1 n=f#4 v=0
329216 On ch=1 n=c#3 v=22
329387 Off ch=1 n=c5 v=0
329387 Off ch=1 n=f5 v=0
329387 On ch=1 n=e5 v=38
329472 On ch=1 n=g#3 v=22
329728 Off ch=1 n=e5 v=0
329728 On ch=1 n=d#5 v=33
329728 On ch=1 n=f4 v=31
330047 Par ch=1 c=64 v=127
330069 On ch=1 n=g#4 v=29
330411 Off ch=1 n=g#4 v=0
330411 Off ch=1 n=d#5 v=0
330411 On ch=1 n=d5 v=30
330752 Par ch=1 c=64 v=0
330752 On ch=1 n=g#5 v=33
330752 Off ch=1 n=c#3 v=0
330752 Off ch=1 n=g#3 v=0
330752 Off ch=1 n=f4 v=0
331093 Par ch=1 c=64 v=127
331093 Off ch=1 n=d5 v=0
331093 Off ch=1 n=g#5 v=0
331093 On ch=1 n=c#5 v=28
331435 On ch=1 n=g#4 v=26
331776 Off ch=1 n=g#4 v=0
331776 Off ch=1 n=c#5 v=0
331776 On ch=1 n=c#5 v=39
332117 Off ch=1 n=c#5 v=0
332117 On ch=1 n=f5 v=36
332186 Par ch=1 c=64 v=0
332459 Off ch=1 n=f5 v=0
332459 On ch=1 n=g#5 v=40
332800 Off ch=1 n=g#5 v=0
332800 On ch=1 n=g#5 v=42
332800 On ch=1 n=d4 v=21
332800 On ch=1 n=a#4 v=30
333028 Par ch=1 c=64 v=127
333141 On ch=1 n=c#5 v=30
333483 Off ch=1 n=c#5 v=0
333483 Off ch=1 n=g#5 v=0
333483 On ch=1 n=g5 v=39
333824 On ch=1 n=c#6 v=39
333824 Off ch=1 n=d4 v=0
333824 On ch=1 n=d#4 v=16
333870 Par ch=1 c=64 v=0
334165 Off ch=1 n=g5 v=0
334165 On ch=1 n=f#5 v=31
334279 Par ch=1 c=64 v=127
334507 Off ch=1 n=c#6 v=0
334507 On ch=1 n=c#5 v=34
334848 Off ch=1 n=c#5 v=0
334848 Off ch=1 n=f#5 v=0
334848 On ch=1 n=f5 v=38
334848 Off ch=1 n=d#4 v=0
334848 Off ch=1 n=a#4 v=0
334848 On ch=1 n=g#3 v=18
334848 On ch=1 n=f#4 v=27
334871 Par ch=1 c=64 v=0
335189 On ch=1 n=c5 v=32
335360 Off ch=1 n=g#3 v=0
335360 Off ch=1 n=f#4 v=0
335360 On ch=1 n=c#3 v=17
335531 Off ch=1 n=c5 v=0
335531 Off ch=1 n=f5 v=0
335531 On ch=1 n=e5 v=32
335616 On ch=1 n=g#3 v=17
335872 Off ch=1 n=e5 v=0
335872 On ch=1 n=d#5 v=33
335872 On ch=1 n=f4 v=28
336191 Par ch=1 c=64 v=127
336213 On ch=1 n=g#4 v=26
336555 Off ch=1 n=g#4 v=0
336555 Off ch=1 n=d#5 v=0
336555 On ch=1 n=d5 v=32
336896 Par ch=1 c=64 v=0
336896 On ch=1 n=g#5 v=31
336896 Off ch=1 n=c#3 v=0
336896 Off ch=1 n=g#3 v=0
336896 Off ch=1 n=f4 v=0
337237 Par ch=1 c=64 v=127
337237 Off ch=1 n=d5 v=0
337237 Off ch=1 n=g#5 v=0
337237 On ch=1 n=c#5 v=30
337579 On ch=1 n=g#4 v=24
337920 Off ch=1 n=g#4 v=0
337920 Off ch=1 n=c#5 v=0
337920 On ch=1 n=f5 v=29
337920 On ch=1 n=g#3 v=18
337920 On ch=1 n=f#4 v=27
338261 On ch=1 n=c5 v=28
338330 Par ch=1 c=64 v=0
338432 Off ch=1 n=g#3 v=0
338432 Off ch=1 n=f#4 v=0
338432 On ch=1 n=c#3 v=17
338603 Off ch=1 n=c5 v=0
338603 Off ch=1 n=f5 v=0
338603 On ch=1 n=d#5 v=28
338688 On ch=1 n=g#3 v=17
338944 Off ch=1 n=d#5 v=0
338944 On ch=1 n=d#5 v=27
338944 On ch=1 n=f4 v=20
339263 Par ch=1 c=64 v=127
339285 On ch=1 n=g#4 v=21
339627 Off ch=1 n=g#4 v=0
339627 On ch=1 n=d5 v=26
339657 Off ch=1 n=d#5 v=0
339968 Par ch=1 c=64 v=0
339968 On ch=1 n=g#5 v=25
339968 Off ch=1 n=c#3 v=0
339968 Off ch=1 n=g#3 v=0
339968 Off ch=1 n=f4 v=0
340196 Par ch=1 c=64 v=0
340309 Off ch=1 n=g#5 v=0
340309 On ch=1 n=c#5 v=25
340339 Off ch=1 n=d5 v=0
340651 Off ch=1 n=c#5 v=0
340651 On ch=1 n=g#4 v=18
340992 Off ch=1 n=g#4 v=0
340992 On ch=1 n=f5 v=23
340992 On ch=1 n=g#3 v=12
340992 On ch=1 n=f#4 v=24
341333 On ch=1 n=c5 v=23
341675 Off ch=1 n=c5 v=0
341675 Off ch=1 n=f5 v=0
341675 On ch=1 n=d#5 v=22
342016 Off ch=1 n=d#5 v=0
342016 Off ch=1 n=g#3 v=0
342016 Off ch=1 n=f#4 v=0
342016 On ch=1 n=g#3 v=24
342321 Par ch=1 c=64 v=127
342357 On ch=1 n=f4 v=25
342528 Off ch=1 n=g#3 v=0
342528 On ch=1 n=c#3 v=23
342699 On ch=1 n=g#4 v=26
342799 Off ch=1 n=f4 v=0
343040 On ch=1 n=d#5 v=26
343040 Off ch=1 n=c#3 v=0
343040 On ch=1 n=f4 v=22
343140 Off ch=1 n=g#4 v=0
343381 On ch=1 n=g#4 v=27
343481 Off ch=1 n=d#5 v=0
343552 Off ch=1 n=f4 v=0
343552 On ch=1 n=g#3 v=21
343723 On ch=1 n=c#5 v=24
343823 Off ch=1 n=g#4 v=0
344064 On ch=1 n=f#5 v=28
344064 Off ch=1 n=g#3 v=0
344064 On ch=1 n=g#4 v=20
344164 Off ch=1 n=c#5 v=0
344405 On ch=1 n=c#5 v=29
344505 Off ch=1 n=f#5 v=0
344576 Off ch=1 n=g#4 v=0
344576 On ch=1 n=f4 v=19
344747 On ch=1 n=f5 v=26
344847 Off ch=1 n=c#5 v=0
345088 Par ch=1 c=64 v=127
345088 Par ch=1 c=64 v=127
345088 Par ch=1 c=64 v=0
345088 Off ch=1 n=f4 v=0
345088 On ch=1 n=a#5 v=30
345088 On ch=1 n=c#5 v=18
345188 Off ch=1 n=f5 v=0
345241 Par ch=1 c=64 v=0
345241 Par ch=1 c=64 v=0
345429 Off ch=1 n=a#5 v=0
345429 On ch=1 n=f5 v=30
345502 Par ch=1 c=64 v=127
345502 Par ch=1 c=64 v=127
345600 Off ch=1 n=c#5 v=0
345600 On ch=1 n=g#4 v=17
345771 Off ch=1 n=f5 v=0
345771 On ch=1 n=g#5 v=28
346112 Off ch=1 n=g#5 v=0
346112 On ch=1 n=d#6 v=31
346112 Off ch=1 n=g#4 v=0
346112 On ch=1 n=f5 v=16
346453 Off ch=1 n=d#6 v=0
346453 On ch=1 n=g#5 v=32
346624 Off ch=1 n=f5 v=0
346624 On ch=1 n=c#5 v=15
346795 Off ch=1 n=g#5 v=0
346795 On ch=1 n=c#6 v=30
347136 Off ch=1 n=c#6 v=0
347136 On ch=1 n=f#6 v=27
347136 Off ch=1 n=c#5 v=0
347136 On ch=1 n=g#5 v=14
347250 Par ch=1 c=64 v=0
347250 Par ch=1 c=64 v=0
347477 Off ch=1 n=f#6 v=0
347477 On ch=1 n=c#6 v=30
347523 Par ch=1 c=64 v=0
347523 Par ch=1 c=64 v=0
347648 Off ch=1 n=g#5 v=0
347648 On ch=1 n=f5 v=13
347750 Par ch=1 c=64 v=0
347750 Par ch=1 c=64 v=0
347819 Par ch=1 c=64 v=0
347819 Par ch=1 c=64 v=0
347819 Off ch=1 n=c#6 v=0
347819 On ch=1 n=f6 v=27
348160 Par ch=1 c=64 v=0
348160 Par ch=1 c=64 v=0
348160 Off ch=1 n=f6 v=0
348160 Off ch=1 n=f5 v=0
348160 On ch=1 n=f6 v=11
348160 On ch=1 n=c#7 v=23
348774 Par ch=1 c=64 v=127
349184 Off ch=1 n=f6 v=0
349184 Off ch=1 n=c#7 v=0
351530 Par ch=1 c=64 v=127
351744 On ch=1 n=c#3 v=14
351808 Off ch=1 n=c#3 v=0
351808 On ch=1 n=g#3 v=16
351872 Off ch=1 n=g#3 v=0
351872 On ch=1 n=c#4 v=17
351936 Off ch=1 n=c#4 v=0
351936 On ch=1 n=f4 v=19
352000 Off ch=1 n=f4 v=0
352000 On ch=1 n=g#4 v=21
352064 Off ch=1 n=g#4 v=0
352064 On ch=1 n=c#5 v=22
352128 Off ch=1 n=c#5 v=0
352128 On ch=1 n=f5 v=24
352192 Off ch=1 n=f5 v=0
352192 On ch=1 n=c#6 v=25
353792 Off ch=1 n=c#6 v=0
354189 Par ch=1 c=64 v=0
357376 Meta TrkEnd
TrkEnd
