MFile 1 3 1024
MTrk
0 TimeSig 2/4 24 8
0 KeySig 7 major
0 Tempo 352941
1024 Tempo 400000
1365 Tempo 375000
2048 TimeSig 4/4 24 8
2048 Tempo 428571
2389 Tempo 352941
3072 Tempo 375000
3413 Tempo 333333
4096 Tempo 375000
4437 Tempo 333333
5120 Tempo 375000
5461 Tempo 333333
6144 Tempo 600000
6485 Tempo 461538
7168 Tempo 500000
7509 Tempo 428571
7851 Tempo 375000
8192 Tempo 352941
9216 Tempo 375000
9557 Tempo 333333
10240 Tempo 428571
10581 Tempo 352941
11264 Tempo 375000
11605 Tempo 333333
12288 Tempo 333333
13312 Tempo 375000
13653 Tempo 333333
14336 Tempo 375000
14677 Tempo 333333
15360 Tempo 600000
15701 Tempo 400000
15872 Tempo 500000
16384 Tempo 500000
16725 Tempo 375000
17408 Tempo 461538
17749 Tempo 428571
18091 Tempo 333333
18432 Tempo 428571
18773 Tempo 352941
19115 Tempo 461538
19456 Tempo 428571
19797 Tempo 375000
20480 Tempo 375000
20821 Tempo 333333
21504 Tempo 461538
21845 Tempo 428571
22187 Tempo 375000
22528 Tempo 428571
22869 Tempo 352941
23211 Tempo 461538
23552 Tempo 400000
23893 Tempo 333333
24576 Tempo 375000
24917 Tempo 333333
25600 Tempo 400000
25941 Tempo 352941
26624 Tempo 375000
26965 Tempo 333333
27648 Tempo 375000
28331 Tempo 461538
28672 Tempo 461538
29013 Tempo 400000
29355 Tempo 375000
29696 Tempo 461538
30037 Tempo 400000
31061 Tempo 375000
31744 Tempo 461538
32085 Tempo 375000
32768 Tempo 400000
33109 Tempo 375000
33792 Tempo 461538
34133 Tempo 400000
34816 Tempo 428571
35157 Tempo 352941
35840 Tempo 375000
36181 Tempo 333333
36864 Tempo 375000
37205 Tempo 333333
37888 Tempo 375000
38229 Tempo 333333
38912 Tempo 600000
39253 Tempo 400000
39936 Tempo 428571
40619 Tempo 375000
40960 Tempo 352941
41984 Tempo 375000
42325 Tempo 333333
43008 Tempo 428571
43349 Tempo 352941
44032 Tempo 375000
44373 Tempo 333333
45056 Tempo 333333
46080 Tempo 375000
46421 Tempo 333333
47104 Tempo 375000
47445 Tempo 333333
48128 Tempo 600000
48469 Tempo 400000
48640 Tempo 500000
49152 Tempo 500000
49493 Tempo 375000
50176 Tempo 461538
50517 Tempo 428571
50859 Tempo 333333
51200 Tempo 428571
51541 Tempo 352941
52224 Tempo 400000
52565 Tempo 333333
53248 Tempo 375000
53589 Tempo 333333
55296 Tempo 428571
55637 Tempo 352941
55979 Tempo 461538
56320 Tempo 400000
56661 Tempo 333333
57344 Tempo 375000
57685 Tempo 333333
58368 Tempo 400000
58709 Tempo 352941
59392 Tempo 375000
59733 Tempo 333333
60416 Tempo 375000
61099 Tempo 461538
61440 Tempo 461538
61781 Tempo 400000
62123 Tempo 375000
62464 Tempo 400000
63147 Tempo 600000
63829 Tempo 428571
64512 Tempo 461538
64853 Tempo 375000
65536 Tempo 428571
65877 Tempo 461538
66219 Tempo 600000
66901 Tempo 461538
67584 Tempo 428571
67925 Tempo 352941
68608 Tempo 461538
69120 Tempo 400000
69632 Tempo 461538
70144 Tempo 400000
71168 Tempo 461538
71680 Tempo 500000
72021 Tempo 400000
72704 Tempo 400000
73045 Tempo 352941
73728 Tempo 461538
74069 Tempo 428571
74411 Tempo 666666
74752 Tempo 600000
75093 Tempo 461538
75776 Tempo 600000
76288 Tempo 461538
77141 Tempo 428571
77824 Tempo 461538
78336 Tempo 428571
79189 Tempo 375000
79872 Tempo 400000
80213 Tempo 352941
80896 Tempo 400000
81237 Tempo 352941
81920 Tempo 428571
82261 Tempo 400000
82603 Tempo 500000
82944 Tempo 461538
83285 Tempo 428571
83968 Tempo 500000
84309 Tempo 461538
84992 Tempo 600000
85504 Tempo 428571
86016 Tempo 461538
86528 Tempo 428571
87552 Tempo 500000
88064 Tempo 461538
88405 Tempo 400000
89088 Tempo 400000
89429 Tempo 352941
90112 Tempo 461538
90453 Tempo 428571
90795 Tempo 600000
91136 Tempo 666666
91477 Tempo 461538
92160 Tempo 500000
92672 Tempo 461538
93184 Tempo 400000
93525 Tempo 375000
94208 Tempo 461538
94720 Tempo 400000
95573 Tempo 375000
96256 Tempo 400000
96597 Tempo 352941
97280 Tempo 400000
97621 Tempo 352941
98304 Tempo 428571
98645 Tempo 400000
98987 Tempo 666666
99669 Tempo 461538
100352 Tempo 428571
100693 Tempo 400000
101376 Tempo 666666
101888 Tempo 428571
102400 Tempo 461538
102912 Tempo 428571
103424 Tempo 500000
103936 Tempo 461538
104448 Tempo 500000
104789 Tempo 400000
105472 Tempo 400000
105813 Tempo 352941
107179 Tempo 666666
107861 Tempo 500000
108885 Tempo 461538
109568 Tempo 666666
110080 Tempo 461538
110592 Tempo 461538
111104 Tempo 428571
111616 Tempo 500000
112128 Tempo 461538
112640 Tempo 500000
112981 Tempo 400000
113664 Tempo 400000
114005 Tempo 352941
115371 Tempo 500000
116053 Tempo 428571
116736 Tempo 500000
117077 Tempo 400000
117760 Tempo 400000
118101 Tempo 352941
119467 Tempo 400000
120149 Tempo 428571
120832 Tempo 461538
121173 Tempo 352941
123392 Tempo 461538
123904 Tempo 428571
124587 Tempo 666666
125269 Tempo 400000
125952 Tempo 352941
126976 Tempo 461538
127317 Tempo 400000
128000 Tempo 352941
129024 Tempo 400000
130731 Tempo 428571
131072 Tempo 461538
131413 Tempo 500000
131755 Tempo 600000
132437 Tempo 375000
133120 Tempo 428571
133461 Tempo 352941
134144 Tempo 375000
134485 Tempo 333333
135168 Tempo 375000
135509 Tempo 333333
136192 Tempo 375000
136533 Tempo 333333
137216 Tempo 666666
137557 Tempo 500000
138240 Tempo 600000
138581 Tempo 428571
138923 Tempo 375000
139264 Tempo 352941
140288 Tempo 375000
140629 Tempo 333333
141312 Tempo 428571
141653 Tempo 352941
142336 Tempo 375000
142677 Tempo 333333
143360 Tempo 333333
144384 Tempo 375000
144725 Tempo 333333
145408 Tempo 375000
145749 Tempo 333333
146432 Tempo 600000
146773 Tempo 400000
146944 Tempo 500000
147456 Tempo 500000
147797 Tempo 375000
148480 Tempo 461538
148821 Tempo 428571
149163 Tempo 333333
149504 Tempo 428571
149845 Tempo 352941
150187 Tempo 461538
150528 Tempo 428571
150869 Tempo 375000
151552 Tempo 375000
151893 Tempo 333333
153600 Tempo 428571
153941 Tempo 352941
154283 Tempo 461538
154624 Tempo 428571
154965 Tempo 375000
155307 Tempo 500000
155648 Tempo 375000
155989 Tempo 333333
156672 Tempo 400000
157013 Tempo 352941
157696 Tempo 500000
158037 Tempo 352941
159232 Tempo 461538
160085 Tempo 352941
161280 Tempo 428571
162133 Tempo 352941
163328 Tempo 428571
164181 Tempo 352941
164864 Tempo 375000
165888 Tempo 461538
166229 Tempo 428571
166912 Tempo 461538
167253 Tempo 375000
167936 Tempo 400000
168277 Tempo 352941
173056 Tempo 375000
173397 Tempo 400000
173739 Tempo 428571
174080 Tempo 461538
175104 Tempo 461538
175445 Tempo 375000
176128 Tempo 400000
176469 Tempo 352941
177152 Tempo 375000
177493 Tempo 333333
178176 Tempo 375000
178517 Tempo 333333
179200 Tempo 375000
179541 Tempo 333333
180224 Tempo 375000
180565 Tempo 333333
181248 Tempo 428571
181589 Tempo 375000
182272 Tempo 375000
182613 Tempo 428571
182955 Tempo 500000
183296 Tempo 600000
183637 Tempo 428571
184320 Tempo 400000
184661 Tempo 352941
185344 Tempo 375000
185685 Tempo 333333
186368 Tempo 375000
186709 Tempo 333333
187392 Tempo 375000
187733 Tempo 333333
188416 Tempo 375000
188757 Tempo 333333
189440 Tempo 428571
189781 Tempo 375000
190464 Tempo 400000
190805 Tempo 352941
191488 Tempo 600000
191829 Tempo 375000
192171 Tempo 461538
192512 Tempo 461538
192853 Tempo 400000
193536 Tempo 400000
193877 Tempo 375000
194560 Tempo 400000
194901 Tempo 352941
195584 Tempo 600000
195925 Tempo 375000
196267 Tempo 666666
196608 Tempo 500000
196949 Tempo 461538
197291 Tempo 428571
197632 Tempo 428571
197973 Tempo 500000
198315 Tempo 666666
198997 Tempo 400000
199680 Tempo 375000
200704 Tempo 352941
201728 Tempo 333333
206848 Tempo 400000
208896 Tempo 461538
209920 Tempo 666666
215040 Tempo 333333
219137 Meta TrkEnd
TrkEnd
MTrk
0 Meta TrkName "Instrument  1"
0 PrCh ch=1 p=1
0 Par ch=1 c=64 v=0
1024 On ch=1 n=f#5 v=35
1024 On ch=1 n=g#5 v=49
1365 Off ch=1 n=f#5 v=0
1365 Off ch=1 n=g#5 v=0
1365 On ch=1 n=f#5 v=41
1365 On ch=1 n=g#5 v=55
1707 Off ch=1 n=f#5 v=0
1707 Off ch=1 n=g#5 v=0
1707 On ch=1 n=f6 v=54
2048 Par ch=1 c=64 v=0
2048 Off ch=1 n=f6 v=0
2048 On ch=1 n=f5 v=35
2048 On ch=1 n=g#5 v=49
2389 Off ch=1 n=f5 v=0
2389 Off ch=1 n=g#5 v=0
2389 On ch=1 n=f5 v=41
2389 On ch=1 n=g#5 v=55
2731 Off ch=1 n=f5 v=0
2731 Off ch=1 n=g#5 v=0
2731 On ch=1 n=c#6 v=54
3072 Off ch=1 n=c#6 v=0
3072 On ch=1 n=f#5 v=37
3072 On ch=1 n=a#5 v=51
3413 Off ch=1 n=f#5 v=0
3413 Off ch=1 n=a#5 v=0
3413 On ch=1 n=f#5 v=41
3413 On ch=1 n=a#5 v=55
3755 Off ch=1 n=f#5 v=0
3755 Off ch=1 n=a#5 v=0
3755 On ch=1 n=d#6 v=54
4096 Off ch=1 n=d#6 v=0
4096 On ch=1 n=d#5 v=35
4096 On ch=1 n=f#5 v=49
4437 Off ch=1 n=d#5 v=0
4437 Off ch=1 n=f#5 v=0
4437 On ch=1 n=d#5 v=41
4437 On ch=1 n=f#5 v=55
4779 Off ch=1 n=d#5 v=0
4779 Off ch=1 n=f#5 v=0
4779 On ch=1 n=c6 v=54
5120 Off ch=1 n=c6 v=0
5120 On ch=1 n=f5 v=35
5120 On ch=1 n=g#5 v=49
5461 Off ch=1 n=f5 v=0
5461 Off ch=1 n=g#5 v=0
5461 On ch=1 n=f5 v=41
5461 On ch=1 n=g#5 v=55
5803 Off ch=1 n=f5 v=0
5803 Off ch=1 n=g#5 v=0
5803 On ch=1 n=c#6 v=54
6144 Par ch=1 c=64 v=0
6144 Off ch=1 n=c#6 v=0
6144 On ch=1 n=d#5 v=35
6144 On ch=1 n=g#5 v=49
6485 Off ch=1 n=d#5 v=0
6485 Off ch=1 n=g#5 v=0
6485 On ch=1 n=d#5 v=34
6485 On ch=1 n=g#5 v=48
6827 Off ch=1 n=d#5 v=0
6827 Off ch=1 n=g#5 v=0
6827 On ch=1 n=a#5 v=54
7168 Off ch=1 n=a#5 v=0
7168 On ch=1 n=c#5 v=35
7168 On ch=1 n=g5 v=49
7509 Off ch=1 n=c#5 v=0
7509 Off ch=1 n=g5 v=0
7509 On ch=1 n=c#5 v=41
7509 On ch=1 n=g5 v=55
7851 Off ch=1 n=c#5 v=0
7851 Off ch=1 n=g5 v=0
7851 On ch=1 n=a#5 v=54
8192 Off ch=1 n=a#5 v=0
8192 On ch=1 n=c5 v=35
8192 On ch=1 n=f#5 v=49
8533 Off ch=1 n=c5 v=0
8533 Off ch=1 n=f#5 v=0
8533 On ch=1 n=c5 v=41
8533 On ch=1 n=f#5 v=55
8875 Off ch=1 n=c5 v=0
8875 Off ch=1 n=f#5 v=0
8875 On ch=1 n=g#5 v=49
9216 Off ch=1 n=g#5 v=0
9216 On ch=1 n=f#5 v=35
9216 On ch=1 n=g#5 v=49
9557 Off ch=1 n=f#5 v=0
9557 Off ch=1 n=g#5 v=0
9557 On ch=1 n=f#5 v=47
9557 On ch=1 n=g#5 v=55
9899 Off ch=1 n=f#5 v=0
9899 Off ch=1 n=g#5 v=0
9899 On ch=1 n=f6 v=54
10240 Par ch=1 c=64 v=0
10240 Par ch=1 c=64 v=0
10240 Off ch=1 n=f6 v=0
10240 On ch=1 n=f5 v=37
10240 On ch=1 n=g#5 v=51
10581 Off ch=1 n=f5 v=0
10581 Off ch=1 n=g#5 v=0
10581 On ch=1 n=f5 v=41
10581 On ch=1 n=g#5 v=55
10923 Off ch=1 n=f5 v=0
10923 Off ch=1 n=g#5 v=0
10923 On ch=1 n=c#6 v=54
11264 Off ch=1 n=c#6 v=0
11264 On ch=1 n=e5 v=39
11264 On ch=1 n=f#5 v=53
11605 Off ch=1 n=e5 v=0
11605 Off ch=1 n=f#5 v=0
11605 On ch=1 n=e5 v=41
11605 On ch=1 n=f#5 v=55
11947 Off ch=1 n=e5 v=0
11947 Off ch=1 n=f#5 v=0
11947 On ch=1 n=d#6 v=54
12288 Off ch=1 n=d#6 v=0
12288 On ch=1 n=d#5 v=37
12288 On ch=1 n=f#5 v=51
12629 Off ch=1 n=d#5 v=0
12629 Off ch=1 n=f#5 v=0
12629 On ch=1 n=d#5 v=41
12629 On ch=1 n=f#5 v=55
12971 Off ch=1 n=d#5 v=0
12971 Off ch=1 n=f#5 v=0
12971 On ch=1 n=b5 v=54
13312 Off ch=1 n=b5 v=0
13312 On ch=1 n=d5 v=37
13312 On ch=1 n=e5 v=51
13653 Off ch=1 n=d5 v=0
13653 Off ch=1 n=e5 v=0
13653 On ch=1 n=d5 v=41
13653 On ch=1 n=e5 v=55
13995 Off ch=1 n=d5 v=0
13995 Off ch=1 n=e5 v=0
13995 On ch=1 n=c#6 v=54
14336 Par ch=1 c=64 v=0
14336 Off ch=1 n=c#6 v=0
14336 On ch=1 n=c#5 v=37
14336 On ch=1 n=e5 v=51
14677 Off ch=1 n=c#5 v=0
14677 Off ch=1 n=e5 v=0
14677 On ch=1 n=c#5 v=41
14677 On ch=1 n=e5 v=55
15019 Off ch=1 n=c#5 v=0
15019 Off ch=1 n=e5 v=0
15019 On ch=1 n=a5 v=54
15360 On ch=1 n=c#5 v=39
15360 On ch=1 n=e5 v=53
15701 Off ch=1 n=c#5 v=0
15701 Off ch=1 n=e5 v=0
15701 On ch=1 n=c#5 v=41
15701 On ch=1 n=e5 v=55
16043 Off ch=1 n=c#5 v=0
16043 Off ch=1 n=e5 v=0
16043 Off ch=1 n=a5 v=0
16043 On ch=1 n=g#5 v=54
16384 On ch=1 n=c#5 v=37
16384 On ch=1 n=d#5 v=51
16725 Off ch=1 n=c#5 v=0
16725 Off ch=1 n=d#5 v=0
16725 Off ch=1 n=g#5 v=0
16725 On ch=1 n=c#5 v=41
16725 On ch=1 n=d#5 v=55
17067 Off ch=1 n=c#5 v=0
17067 Off ch=1 n=d#5 v=0
17067 On ch=1 n=g5 v=54
17408 Off ch=1 n=g5 v=0
17408 On ch=1 n=g#4 v=37
17408 On ch=1 n=d#5 v=56
17749 Off ch=1 n=g#4 v=0
17749 Off ch=1 n=d#5 v=0
17749 On ch=1 n=g#4 v=41
17749 On ch=1 n=d#5 v=60
18091 Off ch=1 n=g#4 v=0
18091 Off ch=1 n=d#5 v=0
18091 On ch=1 n=g#5 v=54
18432 Par ch=1 c=64 v=0
18432 Off ch=1 n=g#5 v=0
18432 On ch=1 n=a#4 v=48
18432 On ch=1 n=d#5 v=62
18773 Off ch=1 n=a#4 v=0
18773 Off ch=1 n=d#5 v=0
18773 On ch=1 n=a#4 v=54
18773 On ch=1 n=d#5 v=68
19115 Off ch=1 n=a#4 v=0
19115 Off ch=1 n=d#5 v=0
19115 On ch=1 n=a#5 v=62
19456 Off ch=1 n=a#5 v=0
19456 On ch=1 n=f5 v=45
19456 On ch=1 n=a#5 v=59
19797 Off ch=1 n=f5 v=0
19797 Off ch=1 n=a#5 v=0
19797 On ch=1 n=f5 v=50
19797 On ch=1 n=a#5 v=64
20139 Off ch=1 n=f5 v=0
20139 Off ch=1 n=a#5 v=0
20139 On ch=1 n=f6 v=66
20480 On ch=1 n=d#5 v=45
20480 On ch=1 n=a#5 v=59
20821 Off ch=1 n=d#5 v=0
20821 Off ch=1 n=a#5 v=0
20821 On ch=1 n=d#5 v=46
20821 On ch=1 n=a#5 v=60
21163 Off ch=1 n=d#5 v=0
21163 Off ch=1 n=a#5 v=0
21163 Off ch=1 n=f6 v=0
21163 On ch=1 n=d#6 v=54
21504 Off ch=1 n=d#6 v=0
21504 On ch=1 n=g#4 v=40
21504 On ch=1 n=d#5 v=54
21845 Off ch=1 n=g#4 v=0
21845 Off ch=1 n=d#5 v=0
21845 On ch=1 n=g#4 v=46
21845 On ch=1 n=d#5 v=60
22187 Off ch=1 n=g#4 v=0
22187 Off ch=1 n=d#5 v=0
22187 On ch=1 n=g#5 v=54
22528 Par ch=1 c=64 v=0
22528 Off ch=1 n=g#5 v=0
22528 On ch=1 n=a#4 v=48
22528 On ch=1 n=d#5 v=62
22869 Off ch=1 n=a#4 v=0
22869 Off ch=1 n=d#5 v=0
22869 On ch=1 n=a#4 v=54
22869 On ch=1 n=d#5 v=68
23211 On ch=1 n=a#5 v=62
23552 Off ch=1 n=a#4 v=0
23552 Off ch=1 n=d#5 v=0
23552 Off ch=1 n=a#5 v=0
23552 On ch=1 n=f5 v=47
23552 On ch=1 n=a#5 v=59
23893 Off ch=1 n=f5 v=0
23893 Off ch=1 n=a#5 v=0
23893 On ch=1 n=f5 v=50
23893 On ch=1 n=a#5 v=64
24235 On ch=1 n=f6 v=64
24576 Off ch=1 n=f5 v=0
24576 Off ch=1 n=a#5 v=0
24576 On ch=1 n=d#5 v=45
24576 On ch=1 n=a#5 v=59
24917 Off ch=1 n=d#5 v=0
24917 Off ch=1 n=a#5 v=0
24917 On ch=1 n=d#5 v=46
24917 On ch=1 n=a#5 v=60
25259 Off ch=1 n=f6 v=0
25259 On ch=1 n=d#6 v=54
25600 Off ch=1 n=d#5 v=0
25600 Off ch=1 n=a#5 v=0
25600 Off ch=1 n=d#6 v=0
25600 On ch=1 n=g#4 v=40
25600 On ch=1 n=d#5 v=54
25941 Off ch=1 n=g#4 v=0
25941 Off ch=1 n=d#5 v=0
25941 On ch=1 n=g#4 v=46
25941 On ch=1 n=d#5 v=60
26283 On ch=1 n=g#5 v=54
26624 Par ch=1 c=64 v=0
26624 Off ch=1 n=g#4 v=0
26624 Off ch=1 n=d#5 v=0
26624 Off ch=1 n=g#5 v=0
26624 On ch=1 n=a4 v=48
26624 On ch=1 n=d#5 v=62
26965 Off ch=1 n=a4 v=0
26965 Off ch=1 n=d#5 v=0
26965 On ch=1 n=a4 v=54
26965 On ch=1 n=d#5 v=68
27307 On ch=1 n=a5 v=62
27648 Off ch=1 n=a4 v=0
27648 Off ch=1 n=d#5 v=0
27648 On ch=1 n=a#4 v=52
27648 On ch=1 n=d#5 v=64
27989 Off ch=1 n=a#4 v=0
27989 Off ch=1 n=d#5 v=0
27989 Off ch=1 n=a5 v=0
27989 On ch=1 n=a#4 v=55
27989 On ch=1 n=d#5 v=69
28331 On ch=1 n=a#5 v=69
28672 Off ch=1 n=a#4 v=0
28672 Off ch=1 n=d#5 v=0
28672 Off ch=1 n=a#5 v=0
28672 On ch=1 n=f#5 v=49
28672 On ch=1 n=a#5 v=63
29013 Off ch=1 n=f#5 v=0
29013 Off ch=1 n=a#5 v=0
29013 On ch=1 n=f#5 v=55
29013 On ch=1 n=a#5 v=69
29355 On ch=1 n=f#6 v=63
29696 Off ch=1 n=f#5 v=0
29696 Off ch=1 n=a#5 v=0
29696 On ch=1 n=f5 v=44
29696 On ch=1 n=a#5 v=44
30037 Off ch=1 n=f5 v=0
30037 Off ch=1 n=a#5 v=0
30037 On ch=1 n=f5 v=46
30037 On ch=1 n=a#5 v=60
30379 Off ch=1 n=f#6 v=0
30379 On ch=1 n=f6 v=54
30720 Par ch=1 c=64 v=0
30720 Off ch=1 n=f5 v=0
30720 Off ch=1 n=a#5 v=0
30720 Off ch=1 n=f6 v=0
30720 On ch=1 n=f#5 v=39
30720 On ch=1 n=a#5 v=55
31061 Off ch=1 n=f#5 v=0
31061 Off ch=1 n=a#5 v=0
31061 On ch=1 n=f#5 v=41
31061 On ch=1 n=a#5 v=57
31403 On ch=1 n=d#6 v=59
31744 Off ch=1 n=f#5 v=0
31744 Off ch=1 n=a#5 v=0
31744 Off ch=1 n=d#6 v=0
31744 On ch=1 n=f#5 v=33
31744 On ch=1 n=c#6 v=49
32085 Off ch=1 n=f#5 v=0
32085 Off ch=1 n=c#6 v=0
32085 On ch=1 n=f#5 v=39
32085 On ch=1 n=c#6 v=54
32427 On ch=1 n=d#6 v=57
32768 Off ch=1 n=f#5 v=0
32768 Off ch=1 n=c#6 v=0
32768 Off ch=1 n=d#6 v=0
32768 On ch=1 n=f#5 v=36
32768 On ch=1 n=c6 v=50
33109 Off ch=1 n=f#5 v=0
33109 Off ch=1 n=c6 v=0
33109 On ch=1 n=f#5 v=44
33109 On ch=1 n=c6 v=58
33451 On ch=1 n=d#6 v=54
33792 Off ch=1 n=f#5 v=0
33792 Off ch=1 n=c6 v=0
33792 Off ch=1 n=d#6 v=0
33792 On ch=1 n=f#5 v=40
33792 On ch=1 n=g#5 v=41
34133 Off ch=1 n=f#5 v=0
34133 Off ch=1 n=g#5 v=0
34133 On ch=1 n=f#5 v=37
34133 On ch=1 n=g#5 v=49
34475 On ch=1 n=f6 v=47
34816 Par ch=1 c=64 v=0
34816 Par ch=1 c=64 v=0
34816 Off ch=1 n=f#5 v=0
34816 Off ch=1 n=g#5 v=0
34816 On ch=1 n=f5 v=32
34816 On ch=1 n=g#5 v=45
35157 Off ch=1 n=f5 v=0
35157 Off ch=1 n=g#5 v=0
35157 Off ch=1 n=f6 v=0
35157 On ch=1 n=f5 v=37
35157 On ch=1 n=g#5 v=50
35499 On ch=1 n=c#6 v=50
35840 Off ch=1 n=f5 v=0
35840 Off ch=1 n=g#5 v=0
35840 On ch=1 n=f#5 v=34
35840 On ch=1 n=a#5 v=47
36181 Off ch=1 n=f#5 v=0
36181 Off ch=1 n=a#5 v=0
36181 Off ch=1 n=c#6 v=0
36181 On ch=1 n=f#5 v=39
36181 On ch=1 n=a#5 v=52
36523 On ch=1 n=d#6 v=51
36864 Off ch=1 n=f#5 v=0
36864 Off ch=1 n=a#5 v=0
36864 On ch=1 n=d#5 v=34
36864 On ch=1 n=f#5 v=47
37205 Off ch=1 n=d#5 v=0
37205 Off ch=1 n=f#5 v=0
37205 Off ch=1 n=d#6 v=0
37205 On ch=1 n=d#5 v=40
37205 On ch=1 n=f#5 v=53
37547 On ch=1 n=c6 v=52
37888 Off ch=1 n=d#5 v=0
37888 Off ch=1 n=f#5 v=0
37888 On ch=1 n=f5 v=34
37888 On ch=1 n=g#5 v=48
38229 Off ch=1 n=f5 v=0
38229 Off ch=1 n=g#5 v=0
38229 Off ch=1 n=c6 v=0
38229 On ch=1 n=f5 v=41
38229 On ch=1 n=g#5 v=54
38571 On ch=1 n=c#6 v=54
38912 Par ch=1 c=64 v=0
38912 Par ch=1 c=64 v=0
38912 Off ch=1 n=f5 v=0
38912 Off ch=1 n=g#5 v=0
38912 On ch=1 n=d#5 v=35
38912 On ch=1 n=g#5 v=49
39253 Off ch=1 n=d#5 v=0
39253 Off ch=1 n=g#5 v=0
39253 Off ch=1 n=c#6 v=0
39253 On ch=1 n=d#5 v=34
39253 On ch=1 n=g#5 v=48
39595 On ch=1 n=a#5 v=54
39936 Off ch=1 n=d#5 v=0
39936 Off ch=1 n=g#5 v=0
39936 Off ch=1 n=a#5 v=0
39936 On ch=1 n=c#5 v=35
39936 On ch=1 n=g5 v=49
40277 Off ch=1 n=c#5 v=0
40277 Off ch=1 n=g5 v=0
40277 On ch=1 n=c#5 v=41
40277 On ch=1 n=g5 v=55
40619 On ch=1 n=a#5 v=54
40960 Off ch=1 n=c#5 v=0
40960 Off ch=1 n=g5 v=0
40960 Off ch=1 n=a#5 v=0
40960 On ch=1 n=c5 v=35
40960 On ch=1 n=f#5 v=49
41301 Off ch=1 n=c5 v=0
41301 Off ch=1 n=f#5 v=0
41301 On ch=1 n=c5 v=41
41301 On ch=1 n=f#5 v=55
41643 On ch=1 n=g#5 v=52
41984 Off ch=1 n=c5 v=0
41984 Off ch=1 n=f#5 v=0
41984 Off ch=1 n=g#5 v=0
41984 On ch=1 n=f#5 v=35
41984 On ch=1 n=g#5 v=49
42325 Off ch=1 n=f#5 v=0
42325 Off ch=1 n=g#5 v=0
42325 On ch=1 n=f#5 v=47
42325 On ch=1 n=g#5 v=55
42667 On ch=1 n=f6 v=54
43008 Par ch=1 c=64 v=0
43008 Par ch=1 c=64 v=0
43008 Par ch=1 c=64 v=0
43008 Off ch=1 n=f#5 v=0
43008 Off ch=1 n=g#5 v=0
43008 Off ch=1 n=f6 v=0
43008 On ch=1 n=f5 v=37
43008 On ch=1 n=g#5 v=51
43349 Off ch=1 n=f5 v=0
43349 Off ch=1 n=g#5 v=0
43349 On ch=1 n=f5 v=41
43349 On ch=1 n=g#5 v=55
43691 On ch=1 n=c#6 v=54
44032 Off ch=1 n=f5 v=0
44032 Off ch=1 n=g#5 v=0
44032 Off ch=1 n=c#6 v=0
44032 On ch=1 n=e5 v=39
44032 On ch=1 n=f#5 v=53
44373 Off ch=1 n=e5 v=0
44373 Off ch=1 n=f#5 v=0
44373 On ch=1 n=e5 v=41
44373 On ch=1 n=f#5 v=55
44715 On ch=1 n=d#6 v=54
45056 Off ch=1 n=e5 v=0
45056 Off ch=1 n=f#5 v=0
45056 Off ch=1 n=d#6 v=0
45056 On ch=1 n=d#5 v=37
45056 On ch=1 n=f#5 v=51
45397 Off ch=1 n=d#5 v=0
45397 Off ch=1 n=f#5 v=0
45397 On ch=1 n=d#5 v=41
45397 On ch=1 n=f#5 v=55
45739 On ch=1 n=b5 v=54
46080 Off ch=1 n=d#5 v=0
46080 Off ch=1 n=f#5 v=0
46080 Off ch=1 n=b5 v=0
46080 On ch=1 n=d5 v=37
46080 On ch=1 n=e5 v=51
46421 Off ch=1 n=d5 v=0
46421 Off ch=1 n=e5 v=0
46421 On ch=1 n=d5 v=41
46421 On ch=1 n=e5 v=55
46763 On ch=1 n=c#6 v=54
47104 Par ch=1 c=64 v=0
47104 Off ch=1 n=d5 v=0
47104 Off ch=1 n=e5 v=0
47104 Off ch=1 n=c#6 v=0
47104 On ch=1 n=c#5 v=37
47104 On ch=1 n=e5 v=51
47445 Off ch=1 n=c#5 v=0
47445 Off ch=1 n=e5 v=0
47445 On ch=1 n=c#5 v=41
47445 On ch=1 n=e5 v=55
47787 Off ch=1 n=c#5 v=0
47787 Off ch=1 n=e5 v=0
47787 On ch=1 n=a5 v=54
48128 On ch=1 n=c#5 v=39
48128 On ch=1 n=e5 v=53
48469 Off ch=1 n=c#5 v=0
48469 Off ch=1 n=e5 v=0
48469 On ch=1 n=c#5 v=41
48469 On ch=1 n=e5 v=55
48811 Off ch=1 n=c#5 v=0
48811 Off ch=1 n=e5 v=0
48811 Off ch=1 n=a5 v=0
48811 On ch=1 n=g#5 v=54
49152 On ch=1 n=c#5 v=37
49152 On ch=1 n=d#5 v=51
49493 Off ch=1 n=c#5 v=0
49493 Off ch=1 n=d#5 v=0
49493 Off ch=1 n=g#5 v=0
49493 On ch=1 n=c#5 v=41
49493 On ch=1 n=d#5 v=55
49835 Off ch=1 n=c#5 v=0
49835 Off ch=1 n=d#5 v=0
49835 On ch=1 n=g5 v=54
50176 Off ch=1 n=g5 v=0
50176 On ch=1 n=g#4 v=37
50176 On ch=1 n=d#5 v=56
50517 Off ch=1 n=g#4 v=0
50517 Off ch=1 n=d#5 v=0
50517 On ch=1 n=g#4 v=41
50517 On ch=1 n=d#5 v=60
50859 Off ch=1 n=g#4 v=0
50859 Off ch=1 n=d#5 v=0
50859 On ch=1 n=g#5 v=54
51200 Par ch=1 c=64 v=0
51200 Par ch=1 c=64 v=0
51200 Off ch=1 n=g#5 v=0
51200 On ch=1 n=a#4 v=48
51200 On ch=1 n=d#5 v=62
51541 Off ch=1 n=a#4 v=0
51541 Off ch=1 n=d#5 v=0
51541 On ch=1 n=a#4 v=54
51541 On ch=1 n=d#5 v=68
51883 On ch=1 n=a#5 v=62
52224 Off ch=1 n=a#4 v=0
52224 Off ch=1 n=d#5 v=0
52224 Off ch=1 n=a#5 v=0
52224 On ch=1 n=f5 v=47
52224 On ch=1 n=a#5 v=59
52565 Off ch=1 n=f5 v=0
52565 Off ch=1 n=a#5 v=0
52565 On ch=1 n=f5 v=50
52565 On ch=1 n=a#5 v=64
52907 On ch=1 n=f6 v=64
53248 Off ch=1 n=f5 v=0
53248 Off ch=1 n=a#5 v=0
53248 On ch=1 n=d#5 v=45
53248 On ch=1 n=a#5 v=59
53589 Off ch=1 n=d#5 v=0
53589 Off ch=1 n=a#5 v=0
53589 Off ch=1 n=f6 v=0
53589 On ch=1 n=d#5 v=46
53589 On ch=1 n=a#5 v=60
53931 On ch=1 n=d#6 v=54
54272 Off ch=1 n=d#5 v=0
54272 Off ch=1 n=a#5 v=0
54272 Off ch=1 n=d#6 v=0
54272 On ch=1 n=c5 v=47
54272 On ch=1 n=f#5 v=61
54272 On ch=1 n=g#5 v=47
54613 Off ch=1 n=c5 v=0
54613 Off ch=1 n=f#5 v=0
54613 Off ch=1 n=g#5 v=0
54613 On ch=1 n=c5 v=53
54613 On ch=1 n=f#5 v=67
54613 On ch=1 n=g#5 v=53
54955 On ch=1 n=c6 v=59
55296 Par ch=1 c=64 v=0
55296 Par ch=1 c=64 v=0
55296 Off ch=1 n=c5 v=0
55296 Off ch=1 n=f#5 v=0
55296 Off ch=1 n=g#5 v=0
55296 Off ch=1 n=c6 v=0
55296 On ch=1 n=c#5 v=55
55296 On ch=1 n=e5 v=69
55296 On ch=1 n=a5 v=55
55637 Off ch=1 n=c#5 v=0
55637 Off ch=1 n=e5 v=0
55637 Off ch=1 n=a5 v=0
55637 On ch=1 n=c#5 v=61
55637 On ch=1 n=e5 v=75
55637 On ch=1 n=a5 v=61
55979 On ch=1 n=c#6 v=67
56320 Off ch=1 n=c#5 v=0
56320 Off ch=1 n=e5 v=0
56320 Off ch=1 n=a5 v=0
56320 Off ch=1 n=c#6 v=0
56320 On ch=1 n=f#5 v=61
56320 On ch=1 n=c#6 v=70
56661 Off ch=1 n=f#5 v=0
56661 Off ch=1 n=c#6 v=0
56661 On ch=1 n=f#5 v=59
56661 On ch=1 n=c#6 v=73
57003 On ch=1 n=f#6 v=64
57344 Off ch=1 n=f#5 v=0
57344 Off ch=1 n=c#6 v=0
57344 On ch=1 n=e5 v=45
57344 On ch=1 n=c#6 v=59
57685 Off ch=1 n=e5 v=0
57685 Off ch=1 n=c#6 v=0
57685 Off ch=1 n=f#6 v=0
57685 On ch=1 n=e5 v=46
57685 On ch=1 n=c#6 v=60
58027 On ch=1 n=e6 v=54
58368 Off ch=1 n=e5 v=0
58368 Off ch=1 n=c#6 v=0
58368 Off ch=1 n=e6 v=0
58368 On ch=1 n=d5 v=40
58368 On ch=1 n=g#5 v=54
58709 Off ch=1 n=d5 v=0
58709 Off ch=1 n=g#5 v=0
58709 On ch=1 n=d5 v=46
58709 On ch=1 n=g#5 v=60
59051 On ch=1 n=d6 v=54
59392 Par ch=1 c=64 v=0
59392 Par ch=1 c=64 v=0
59392 Off ch=1 n=d5 v=0
59392 Off ch=1 n=g#5 v=0
59392 Off ch=1 n=d6 v=0
59392 On ch=1 n=d5 v=48
59392 On ch=1 n=g#5 v=62
59733 Off ch=1 n=d5 v=0
59733 Off ch=1 n=g#5 v=0
59733 On ch=1 n=d5 v=54
59733 On ch=1 n=g#5 v=68
60075 On ch=1 n=d6 v=62
60416 Off ch=1 n=d5 v=0
60416 Off ch=1 n=g#5 v=0
60416 On ch=1 n=d#5 v=52
60416 On ch=1 n=g#5 v=64
60757 Off ch=1 n=d#5 v=0
60757 Off ch=1 n=g#5 v=0
60757 Off ch=1 n=d6 v=0
60757 On ch=1 n=d#5 v=55
60757 On ch=1 n=g#5 v=69
61099 On ch=1 n=d#6 v=62
61440 Off ch=1 n=d#5 v=0
61440 Off ch=1 n=g#5 v=0
61440 Off ch=1 n=d#6 v=0
61440 On ch=1 n=c6 v=49
61440 On ch=1 n=d#6 v=63
61781 Off ch=1 n=c6 v=0
61781 Off ch=1 n=d#6 v=0
61781 On ch=1 n=c6 v=55
61781 On ch=1 n=d#6 v=69
62123 On ch=1 n=c7 v=63
62464 Off ch=1 n=c6 v=0
62464 Off ch=1 n=d#6 v=0
62464 On ch=1 n=a#5 v=40
62464 On ch=1 n=d#6 v=54
62805 Off ch=1 n=a#5 v=0
62805 Off ch=1 n=d#6 v=0
62805 Off ch=1 n=c7 v=0
62805 On ch=1 n=a#5 v=46
62805 On ch=1 n=d#6 v=60
63147 On ch=1 n=a#6 v=54
63488 Par ch=1 c=64 v=0
63488 Par ch=1 c=64 v=0
63488 Off ch=1 n=a#5 v=0
63488 Off ch=1 n=d#6 v=0
63488 Off ch=1 n=a#6 v=0
63488 On ch=1 n=a#5 v=35
63488 On ch=1 n=d#6 v=51
63829 Off ch=1 n=a#5 v=0
63829 Off ch=1 n=d#6 v=0
63829 On ch=1 n=a#5 v=39
63829 On ch=1 n=d#6 v=55
64171 On ch=1 n=a#6 v=49
64512 Off ch=1 n=a#5 v=0
64512 Off ch=1 n=d#6 v=0
64512 Off ch=1 n=a#6 v=0
64512 On ch=1 n=a#5 v=35
64512 On ch=1 n=g6 v=47
64853 Off ch=1 n=a#5 v=0
64853 Off ch=1 n=g6 v=0
64853 On ch=1 n=a#5 v=38
64853 On ch=1 n=g6 v=49
65195 On ch=1 n=a#6 v=47
65536 Off ch=1 n=a#5 v=0
65536 Off ch=1 n=g6 v=0
65536 Off ch=1 n=a#6 v=0
65536 On ch=1 n=g#5 v=30
65536 On ch=1 n=d#6 v=44
65877 Off ch=1 n=g#5 v=0
65877 Off ch=1 n=d#6 v=0
65877 On ch=1 n=g#5 v=35
65877 On ch=1 n=d#6 v=49
66219 On ch=1 n=g#6 v=42
66560 Off ch=1 n=g#5 v=0
66560 Off ch=1 n=d#6 v=0
66560 Off ch=1 n=g#6 v=0
66560 On ch=1 n=d#6 v=66
67584 Par ch=1 c=64 v=0
67584 On ch=1 n=c#6 v=59
68608 Off ch=1 n=d#6 v=0
68608 On ch=1 n=b5 v=62
68658 Off ch=1 n=c#6 v=0
69120 On ch=1 n=a#5 v=60
69170 Off ch=1 n=b5 v=0
69632 On ch=1 n=g#5 v=62
69682 Off ch=1 n=a#5 v=0
70144 On ch=1 n=d#5 v=60
70194 Off ch=1 n=g#5 v=0
70656 On ch=1 n=f5 v=60
70706 Off ch=1 n=d#5 v=0
71168 On ch=1 n=f#5 v=60
71218 Off ch=1 n=f5 v=0
71680 Par ch=1 c=64 v=0
71680 Off ch=1 n=f#5 v=0
71680 On ch=1 n=f#5 v=60
72704 On ch=1 n=d#5 v=54
72754 Off ch=1 n=f#5 v=0
74752 Off ch=1 n=d#5 v=0
74752 On ch=1 n=a#4 v=39
74752 On ch=1 n=d#5 v=46
75093 Off ch=1 n=a#4 v=0
75093 Off ch=1 n=d#5 v=0
75093 On ch=1 n=a#4 v=44
75093 On ch=1 n=d#5 v=51
75435 On ch=1 n=a#5 v=49
75776 Par ch=1 c=64 v=0
75776 Off ch=1 n=a#4 v=0
75776 Off ch=1 n=d#5 v=0
75776 On ch=1 n=a4 v=38
75776 On ch=1 n=d#5 v=45
76117 Off ch=1 n=a4 v=0
76117 Off ch=1 n=d#5 v=0
76117 Off ch=1 n=a#5 v=0
76117 On ch=1 n=a4 v=43
76117 On ch=1 n=d#5 v=50
76459 On ch=1 n=a5 v=50
76800 Off ch=1 n=a4 v=0
76800 Off ch=1 n=d#5 v=0
76800 On ch=1 n=g#4 v=38
76800 On ch=1 n=d#5 v=45
77141 Off ch=1 n=g#4 v=0
77141 Off ch=1 n=d#5 v=0
77141 Off ch=1 n=a5 v=0
77141 On ch=1 n=g#4 v=43
77141 On ch=1 n=d#5 v=50
77483 On ch=1 n=g#5 v=50
77824 Off ch=1 n=g#4 v=0
77824 Off ch=1 n=d#5 v=0
77824 On ch=1 n=f#4 v=38
77824 On ch=1 n=d5 v=45
78165 Off ch=1 n=f#4 v=0
78165 Off ch=1 n=d5 v=0
78165 Off ch=1 n=g#5 v=0
78165 On ch=1 n=f#4 v=43
78165 On ch=1 n=d5 v=50
78507 On ch=1 n=f#5 v=50
78848 Off ch=1 n=f#4 v=0
78848 Off ch=1 n=d5 v=0
78848 Off ch=1 n=f#5 v=0
78848 On ch=1 n=f4 v=38
78848 On ch=1 n=d5 v=45
79189 Off ch=1 n=f4 v=0
79189 Off ch=1 n=d5 v=0
79189 On ch=1 n=f4 v=43
79189 On ch=1 n=d5 v=50
79531 On ch=1 n=f5 v=50
79872 Par ch=1 c=64 v=0
79872 Off ch=1 n=f4 v=0
79872 Off ch=1 n=d5 v=0
79872 Off ch=1 n=f5 v=0
79872 On ch=1 n=f4 v=38
79872 On ch=1 n=d5 v=45
80213 Off ch=1 n=f4 v=0
80213 Off ch=1 n=d5 v=0
80213 On ch=1 n=f4 v=43
80213 On ch=1 n=d5 v=50
80555 On ch=1 n=f5 v=50
80896 Off ch=1 n=f4 v=0
80896 Off ch=1 n=d5 v=0
80896 Off ch=1 n=f5 v=0
80896 On ch=1 n=f#4 v=38
80896 On ch=1 n=d#5 v=45
81237 Off ch=1 n=f#4 v=0
81237 Off ch=1 n=d#5 v=0
81237 On ch=1 n=f#4 v=43
81237 On ch=1 n=d#5 v=50
81579 On ch=1 n=f#5 v=50
81920 Off ch=1 n=f#4 v=0
81920 Off ch=1 n=d#5 v=0
81920 Off ch=1 n=f#5 v=0
81920 On ch=1 n=f#4 v=38
81920 On ch=1 n=a#4 v=38
82261 Off ch=1 n=f#4 v=0
82261 Off ch=1 n=a#4 v=0
82261 On ch=1 n=f#4 v=43
82261 On ch=1 n=a#4 v=43
82603 On ch=1 n=d#5 v=55
82944 Off ch=1 n=f#4 v=0
82944 Off ch=1 n=a#4 v=0
82944 Off ch=1 n=d#5 v=0
82944 On ch=1 n=a#6 v=66
83968 Par ch=1 c=64 v=0
83968 Par ch=1 c=64 v=0
83968 On ch=1 n=g#6 v=66
84018 Off ch=1 n=a#6 v=0
84992 On ch=1 n=f#6 v=66
85042 Off ch=1 n=g#6 v=0
85504 On ch=1 n=f6 v=64
85554 Off ch=1 n=f#6 v=0
86016 On ch=1 n=d#6 v=63
86066 Off ch=1 n=f6 v=0
86528 On ch=1 n=a#5 v=63
86578 Off ch=1 n=d#6 v=0
87040 On ch=1 n=c6 v=63
87090 Off ch=1 n=a#5 v=0
87552 On ch=1 n=c#6 v=63
87602 Off ch=1 n=c6 v=0
88064 Par ch=1 c=64 v=0
88064 Par ch=1 c=64 v=0
88064 Off ch=1 n=c#6 v=0
88064 On ch=1 n=c#6 v=63
89088 On ch=1 n=a#5 v=52
89138 Off ch=1 n=c#6 v=0
91136 Off ch=1 n=a#5 v=0
91136 On ch=1 n=f5 v=39
91136 On ch=1 n=a#5 v=46
91477 Off ch=1 n=f5 v=0
91477 Off ch=1 n=a#5 v=0
91477 On ch=1 n=f5 v=44
91477 On ch=1 n=a#5 v=51
91819 On ch=1 n=f6 v=53
92160 Par ch=1 c=64 v=0
92160 Par ch=1 c=64 v=0
92160 Off ch=1 n=f5 v=0
92160 Off ch=1 n=a#5 v=0
92160 On ch=1 n=e5 v=38
92160 On ch=1 n=a#5 v=45
92501 Off ch=1 n=e5 v=0
92501 Off ch=1 n=a#5 v=0
92501 Off ch=1 n=f6 v=0
92501 On ch=1 n=e5 v=43
92501 On ch=1 n=a#5 v=50
92843 On ch=1 n=e6 v=51
93184 Off ch=1 n=e5 v=0
93184 Off ch=1 n=a#5 v=0
93184 On ch=1 n=d#5 v=38
93184 On ch=1 n=a#5 v=45
93525 Off ch=1 n=d#5 v=0
93525 Off ch=1 n=a#5 v=0
93525 Off ch=1 n=e6 v=0
93525 On ch=1 n=d#5 v=43
93525 On ch=1 n=a#5 v=50
93867 On ch=1 n=d#6 v=51
94208 Off ch=1 n=d#5 v=0
94208 Off ch=1 n=a#5 v=0
94208 On ch=1 n=c#5 v=38
94208 On ch=1 n=a5 v=45
94549 Off ch=1 n=c#5 v=0
94549 Off ch=1 n=a5 v=0
94549 Off ch=1 n=d#6 v=0
94549 On ch=1 n=c#5 v=43
94549 On ch=1 n=a5 v=50
94891 On ch=1 n=c#6 v=51
95232 Off ch=1 n=c#5 v=0
95232 Off ch=1 n=a5 v=0
95232 On ch=1 n=c5 v=38
95232 On ch=1 n=a5 v=45
95573 Off ch=1 n=c5 v=0
95573 Off ch=1 n=a5 v=0
95573 Off ch=1 n=c#6 v=0
95573 On ch=1 n=c5 v=43
95573 On ch=1 n=a5 v=50
95915 On ch=1 n=c6 v=51
96256 Par ch=1 c=64 v=0
96256 Par ch=1 c=64 v=0
96256 Off ch=1 n=c5 v=0
96256 Off ch=1 n=a5 v=0
96256 On ch=1 n=c5 v=38
96256 On ch=1 n=a5 v=45
96597 Off ch=1 n=c5 v=0
96597 Off ch=1 n=a5 v=0
96597 Off ch=1 n=c6 v=0
96597 On ch=1 n=c5 v=43
96597 On ch=1 n=a5 v=50
96939 On ch=1 n=c6 v=49
97280 Off ch=1 n=c5 v=0
97280 Off ch=1 n=a5 v=0
97280 On ch=1 n=c#5 v=33
97280 On ch=1 n=a#5 v=39
97621 Off ch=1 n=c#5 v=0
97621 Off ch=1 n=a#5 v=0
97621 Off ch=1 n=c6 v=0
97621 On ch=1 n=c#5 v=41
97621 On ch=1 n=a#5 v=48
97963 On ch=1 n=c#6 v=48
98304 Off ch=1 n=c#5 v=0
98304 Off ch=1 n=a#5 v=0
98304 On ch=1 n=c#5 v=35
98304 On ch=1 n=f5 v=35
98645 Off ch=1 n=c#5 v=0
98645 Off ch=1 n=f5 v=0
98645 Off ch=1 n=c#6 v=0
98645 On ch=1 n=c#5 v=39
98645 On ch=1 n=f5 v=39
98987 On ch=1 n=a#5 v=46
99328 Off ch=1 n=c#5 v=0
99328 Off ch=1 n=f5 v=0
99328 Off ch=1 n=a#5 v=0
99328 On ch=1 n=a#5 v=66
99328 On ch=1 n=f#6 v=66
99328 On ch=1 n=c#7 v=82
100352 Par ch=1 c=64 v=0
100352 On ch=1 n=g#5 v=60
100352 On ch=1 n=f#6 v=60
100352 On ch=1 n=b6 v=73
100402 Off ch=1 n=a#5 v=0
100402 Off ch=1 n=f#6 v=0
100402 Off ch=1 n=c#7 v=0
101376 Off ch=1 n=g#5 v=0
101376 Off ch=1 n=f#6 v=0
101376 Off ch=1 n=b6 v=0
101376 On ch=1 n=a#5 v=56
101376 On ch=1 n=f#6 v=56
101376 On ch=1 n=a#6 v=74
101888 Off ch=1 n=a#5 v=0
101888 Off ch=1 n=f#6 v=0
101888 Off ch=1 n=a#6 v=0
101888 On ch=1 n=b5 v=55
101888 On ch=1 n=c#6 v=55
101888 On ch=1 n=g#6 v=73
102400 Off ch=1 n=b5 v=0
102400 Off ch=1 n=c#6 v=0
102400 Off ch=1 n=g#6 v=0
102400 On ch=1 n=a#5 v=54
102400 On ch=1 n=c#6 v=54
102400 On ch=1 n=f#6 v=72
102912 Off ch=1 n=c#6 v=0
102912 Off ch=1 n=f#6 v=0
102912 On ch=1 n=c#6 v=70
103424 Off ch=1 n=a#5 v=0
103424 Off ch=1 n=c#6 v=0
103424 On ch=1 n=a5 v=55
103424 On ch=1 n=c#6 v=55
103424 On ch=1 n=d#6 v=72
103936 Off ch=1 n=d#6 v=0
103936 On ch=1 n=f6 v=70
104448 Par ch=1 c=64 v=0
104448 Off ch=1 n=a5 v=0
104448 Off ch=1 n=c#6 v=0
104448 Off ch=1 n=f6 v=0
104448 On ch=1 n=g#5 v=51
104448 On ch=1 n=c#6 v=51
104448 On ch=1 n=f6 v=69
105472 Off ch=1 n=g#5 v=0
105472 Off ch=1 n=c#6 v=0
105472 Off ch=1 n=f6 v=0
105472 On ch=1 n=f5 v=45
105472 On ch=1 n=g#5 v=45
105472 On ch=1 n=c#6 v=63
107188 On ch=1 n=d#5 v=37
107354 On ch=1 n=b5 v=37
107520 Off ch=1 n=f5 v=0
107520 Off ch=1 n=g#5 v=0
107520 Off ch=1 n=c#6 v=0
107520 On ch=1 n=f#6 v=59
108212 On ch=1 n=d5 v=37
108378 On ch=1 n=b5 v=37
108544 Par ch=1 c=64 v=0
108544 Par ch=1 c=64 v=0
108544 Off ch=1 n=d#5 v=0
108544 Off ch=1 n=b5 v=0
108544 Off ch=1 n=f#6 v=0
108544 On ch=1 n=f6 v=59
109568 Off ch=1 n=d5 v=0
109568 Off ch=1 n=b5 v=0
109568 Off ch=1 n=f6 v=0
109568 On ch=1 n=d#5 v=33
109568 On ch=1 n=b5 v=33
109568 On ch=1 n=d#6 v=55
110080 Off ch=1 n=d#5 v=0
110080 Off ch=1 n=b5 v=0
110080 Off ch=1 n=d#6 v=0
110080 On ch=1 n=e5 v=32
110080 On ch=1 n=b5 v=32
110080 On ch=1 n=c#6 v=54
110592 Off ch=1 n=e5 v=0
110592 Off ch=1 n=b5 v=0
110592 Off ch=1 n=c#6 v=0
110592 On ch=1 n=d#5 v=34
110592 On ch=1 n=f#5 v=34
110592 On ch=1 n=b5 v=52
111104 Off ch=1 n=f#5 v=0
111104 Off ch=1 n=b5 v=0
111104 On ch=1 n=f#5 v=50
111616 Off ch=1 n=d#5 v=0
111616 Off ch=1 n=f#5 v=0
111616 On ch=1 n=d5 v=34
111616 On ch=1 n=f#5 v=34
111616 On ch=1 n=g#5 v=51
112128 Off ch=1 n=g#5 v=0
112128 On ch=1 n=a#5 v=52
112640 Par ch=1 c=64 v=0
112640 Par ch=1 c=64 v=0
112640 Off ch=1 n=d5 v=0
112640 Off ch=1 n=f#5 v=0
112640 Off ch=1 n=a#5 v=0
112640 On ch=1 n=c#5 v=33
112640 On ch=1 n=f#5 v=33
112640 On ch=1 n=a#5 v=51
113664 Off ch=1 n=c#5 v=0
113664 Off ch=1 n=f#5 v=0
113664 Off ch=1 n=a#5 v=0
113664 On ch=1 n=a#4 v=28
113664 On ch=1 n=f#5 v=48
115200 Off ch=1 n=a#4 v=0
115200 Off ch=1 n=f#5 v=0
115200 On ch=1 n=f#5 v=51
115712 Off ch=1 n=f#5 v=0
115712 On ch=1 n=c#5 v=39
115712 On ch=1 n=f#5 v=39
115712 On ch=1 n=g#5 v=57
116224 Off ch=1 n=g#5 v=0
116224 On ch=1 n=a#5 v=60
116736 Par ch=1 c=64 v=0
116736 Par ch=1 c=64 v=0
116736 Par ch=1 c=64 v=0
116736 Off ch=1 n=c#5 v=0
116736 Off ch=1 n=f#5 v=0
116736 Off ch=1 n=a#5 v=0
116736 On ch=1 n=c#5 v=41
116736 On ch=1 n=f#5 v=41
116736 On ch=1 n=a#5 v=59
117760 Off ch=1 n=c#5 v=0
117760 Off ch=1 n=f#5 v=0
117760 Off ch=1 n=a#5 v=0
117760 On ch=1 n=a#4 v=36
117760 On ch=1 n=f#5 v=51
119296 Off ch=1 n=a#4 v=0
119296 Off ch=1 n=f#5 v=0
119296 On ch=1 n=a#5 v=61
119808 Off ch=1 n=a#5 v=0
119808 On ch=1 n=f5 v=46
119808 On ch=1 n=a#5 v=46
119808 On ch=1 n=c6 v=64
120320 Off ch=1 n=c6 v=0
120320 On ch=1 n=c#6 v=67
120832 Par ch=1 c=64 v=0
120832 Par ch=1 c=64 v=0
120832 Par ch=1 c=64 v=0
120832 Off ch=1 n=f5 v=0
120832 Off ch=1 n=a#5 v=0
120832 Off ch=1 n=c#6 v=0
120832 On ch=1 n=f5 v=52
120832 On ch=1 n=a#5 v=52
120832 On ch=1 n=c#6 v=70
121856 Off ch=1 n=f5 v=0
121856 Off ch=1 n=a#5 v=0
121856 Off ch=1 n=c#6 v=0
121856 On ch=1 n=c#5 v=47
121856 On ch=1 n=a#5 v=62
123392 Off ch=1 n=c#5 v=0
123392 Off ch=1 n=a#5 v=0
123392 On ch=1 n=a#5 v=68
123904 Off ch=1 n=a#5 v=0
123904 On ch=1 n=f5 v=53
123904 On ch=1 n=a#5 v=53
123904 On ch=1 n=c6 v=71
124416 Off ch=1 n=c6 v=0
124416 On ch=1 n=c#6 v=74
124928 Par ch=1 c=64 v=0
124928 Off ch=1 n=f5 v=0
124928 Off ch=1 n=a#5 v=0
124928 Off ch=1 n=c#6 v=0
124928 On ch=1 n=f#5 v=55
124928 On ch=1 n=a#5 v=68
125269 Off ch=1 n=f#5 v=0
125269 Off ch=1 n=a#5 v=0
125269 On ch=1 n=f#5 v=59
125269 On ch=1 n=a#5 v=73
125611 On ch=1 n=f6 v=72
125952 Off ch=1 n=f#5 v=0
125952 Off ch=1 n=a#5 v=0
125952 Off ch=1 n=f6 v=0
125952 On ch=1 n=f#5 v=54
125952 On ch=1 n=c6 v=67
126293 Off ch=1 n=f#5 v=0
126293 Off ch=1 n=c6 v=0
126293 On ch=1 n=f#5 v=58
126293 On ch=1 n=c6 v=72
126635 On ch=1 n=d#6 v=71
126976 Off ch=1 n=f#5 v=0
126976 Off ch=1 n=c6 v=0
126976 Off ch=1 n=d#6 v=0
126976 On ch=1 n=d#5 v=53
126976 On ch=1 n=f#5 v=66
127317 Off ch=1 n=d#5 v=0
127317 Off ch=1 n=f#5 v=0
127317 On ch=1 n=d#5 v=57
127317 On ch=1 n=f#5 v=70
127659 On ch=1 n=c#6 v=69
128000 Off ch=1 n=d#5 v=0
128000 Off ch=1 n=f#5 v=0
128000 Off ch=1 n=c#6 v=0
128000 On ch=1 n=d#5 v=52
128000 On ch=1 n=f#5 v=64
128341 Off ch=1 n=d#5 v=0
128341 Off ch=1 n=f#5 v=0
128341 On ch=1 n=d#5 v=56
128341 On ch=1 n=f#5 v=68
128683 On ch=1 n=c6 v=67
129024 Par ch=1 c=64 v=0
129024 Off ch=1 n=d#5 v=0
129024 Off ch=1 n=f#5 v=0
129024 Off ch=1 n=c6 v=0
129024 On ch=1 n=c5 v=50
129024 On ch=1 n=d#5 v=62
129365 Off ch=1 n=c5 v=0
129365 Off ch=1 n=d#5 v=0
129365 On ch=1 n=c5 v=54
129365 On ch=1 n=d#5 v=66
129707 On ch=1 n=a#5 v=65
130048 Off ch=1 n=c5 v=0
130048 Off ch=1 n=d#5 v=0
130048 On ch=1 n=c5 v=40
130048 On ch=1 n=d#5 v=54
130389 Off ch=1 n=c5 v=0
130389 Off ch=1 n=d#5 v=0
130389 On ch=1 n=c5 v=46
130389 On ch=1 n=d#5 v=60
130731 Off ch=1 n=a#5 v=0
130731 On ch=1 n=g5 v=59
131072 Off ch=1 n=c5 v=0
131072 Off ch=1 n=d#5 v=0
131072 On ch=1 n=c5 v=46
131072 On ch=1 n=d#5 v=57
131413 Off ch=1 n=c5 v=0
131413 Off ch=1 n=d#5 v=0
131413 On ch=1 n=c5 v=51
131413 On ch=1 n=d#5 v=61
131755 Off ch=1 n=g5 v=0
131755 On ch=1 n=g#5 v=60
132096 Off ch=1 n=c5 v=0
132096 Off ch=1 n=d#5 v=0
132096 On ch=1 n=f#5 v=47
132437 Off ch=1 n=f#5 v=0
132437 On ch=1 n=f#5 v=47
132779 On ch=1 n=f6 v=59
133120 Par ch=1 c=64 v=0
133120 Off ch=1 n=f#5 v=0
133120 Off ch=1 n=g#5 v=0
133120 Off ch=1 n=f6 v=0
133120 On ch=1 n=f5 v=35
133120 On ch=1 n=g#5 v=49
133461 Off ch=1 n=f5 v=0
133461 Off ch=1 n=g#5 v=0
133461 On ch=1 n=f5 v=41
133461 On ch=1 n=g#5 v=55
133803 Off ch=1 n=f5 v=0
133803 Off ch=1 n=g#5 v=0
133803 On ch=1 n=c#6 v=54
134144 Off ch=1 n=c#6 v=0
134144 On ch=1 n=f#5 v=37
134144 On ch=1 n=a#5 v=51
134485 Off ch=1 n=f#5 v=0
134485 Off ch=1 n=a#5 v=0
134485 On ch=1 n=f#5 v=41
134485 On ch=1 n=a#5 v=55
134827 Off ch=1 n=f#5 v=0
134827 Off ch=1 n=a#5 v=0
134827 On ch=1 n=d#6 v=54
135168 Off ch=1 n=d#6 v=0
135168 On ch=1 n=d#5 v=35
135168 On ch=1 n=f#5 v=49
135509 Off ch=1 n=d#5 v=0
135509 Off ch=1 n=f#5 v=0
135509 On ch=1 n=d#5 v=41
135509 On ch=1 n=f#5 v=55
135851 Off ch=1 n=d#5 v=0
135851 Off ch=1 n=f#5 v=0
135851 On ch=1 n=c6 v=54
136192 Off ch=1 n=c6 v=0
136192 On ch=1 n=f5 v=35
136192 On ch=1 n=g#5 v=49
136533 Off ch=1 n=f5 v=0
136533 Off ch=1 n=g#5 v=0
136533 On ch=1 n=f5 v=41
136533 On ch=1 n=g#5 v=55
136875 Off ch=1 n=f5 v=0
136875 Off ch=1 n=g#5 v=0
136875 On ch=1 n=c#6 v=54
137216 Par ch=1 c=64 v=0
137216 Off ch=1 n=c#6 v=0
137216 On ch=1 n=d#5 v=35
137216 On ch=1 n=g#5 v=49
137557 Off ch=1 n=d#5 v=0
137557 Off ch=1 n=g#5 v=0
137557 On ch=1 n=d#5 v=34
137557 On ch=1 n=g#5 v=48
137899 Off ch=1 n=d#5 v=0
137899 Off ch=1 n=g#5 v=0
137899 On ch=1 n=a#5 v=54
138240 Off ch=1 n=a#5 v=0
138240 On ch=1 n=c#5 v=35
138240 On ch=1 n=g5 v=49
138581 Off ch=1 n=c#5 v=0
138581 Off ch=1 n=g5 v=0
138581 On ch=1 n=c#5 v=41
138581 On ch=1 n=g5 v=55
138923 Off ch=1 n=c#5 v=0
138923 Off ch=1 n=g5 v=0
138923 On ch=1 n=a#5 v=54
139264 Off ch=1 n=a#5 v=0
139264 On ch=1 n=c5 v=35
139264 On ch=1 n=f#5 v=49
139605 Off ch=1 n=c5 v=0
139605 Off ch=1 n=f#5 v=0
139605 On ch=1 n=c5 v=41
139605 On ch=1 n=f#5 v=55
139947 Off ch=1 n=c5 v=0
139947 Off ch=1 n=f#5 v=0
139947 On ch=1 n=g#5 v=49
140288 Off ch=1 n=g#5 v=0
140288 On ch=1 n=f#5 v=35
140288 On ch=1 n=g#5 v=49
140629 Off ch=1 n=f#5 v=0
140629 Off ch=1 n=g#5 v=0
140629 On ch=1 n=f#5 v=47
140629 On ch=1 n=g#5 v=55
140971 Off ch=1 n=f#5 v=0
140971 Off ch=1 n=g#5 v=0
140971 On ch=1 n=f6 v=54
141312 Par ch=1 c=64 v=0
141312 Par ch=1 c=64 v=0
141312 Off ch=1 n=f6 v=0
141312 On ch=1 n=f5 v=37
141312 On ch=1 n=g#5 v=51
141653 Off ch=1 n=f5 v=0
141653 Off ch=1 n=g#5 v=0
141653 On ch=1 n=f5 v=41
141653 On ch=1 n=g#5 v=55
141995 Off ch=1 n=f5 v=0
141995 Off ch=1 n=g#5 v=0
141995 On ch=1 n=c#6 v=54
142336 Off ch=1 n=c#6 v=0
142336 On ch=1 n=e5 v=39
142336 On ch=1 n=f#5 v=53
142677 Off ch=1 n=e5 v=0
142677 Off ch=1 n=f#5 v=0
142677 On ch=1 n=e5 v=41
142677 On ch=1 n=f#5 v=55
143019 Off ch=1 n=e5 v=0
143019 Off ch=1 n=f#5 v=0
143019 On ch=1 n=d#6 v=54
143360 Off ch=1 n=d#6 v=0
143360 On ch=1 n=d#5 v=37
143360 On ch=1 n=f#5 v=51
143701 Off ch=1 n=d#5 v=0
143701 Off ch=1 n=f#5 v=0
143701 On ch=1 n=d#5 v=41
143701 On ch=1 n=f#5 v=55
144043 Off ch=1 n=d#5 v=0
144043 Off ch=1 n=f#5 v=0
144043 On ch=1 n=b5 v=54
144384 Off ch=1 n=b5 v=0
144384 On ch=1 n=d5 v=37
144384 On ch=1 n=e5 v=51
144725 Off ch=1 n=d5 v=0
144725 Off ch=1 n=e5 v=0
144725 On ch=1 n=d5 v=41
144725 On ch=1 n=e5 v=55
145067 Off ch=1 n=d5 v=0
145067 Off ch=1 n=e5 v=0
145067 On ch=1 n=c#6 v=54
145408 Par ch=1 c=64 v=0
145408 Off ch=1 n=c#6 v=0
145408 On ch=1 n=c#5 v=37
145408 On ch=1 n=e5 v=51
145749 Off ch=1 n=c#5 v=0
145749 Off ch=1 n=e5 v=0
145749 On ch=1 n=c#5 v=41
145749 On ch=1 n=e5 v=55
146091 Off ch=1 n=c#5 v=0
146091 Off ch=1 n=e5 v=0
146091 On ch=1 n=a5 v=54
146432 On ch=1 n=c#5 v=39
146432 On ch=1 n=e5 v=53
146773 Off ch=1 n=c#5 v=0
146773 Off ch=1 n=e5 v=0
146773 On ch=1 n=c#5 v=41
146773 On ch=1 n=e5 v=55
147115 Off ch=1 n=c#5 v=0
147115 Off ch=1 n=e5 v=0
147115 Off ch=1 n=a5 v=0
147115 On ch=1 n=g#5 v=54
147456 On ch=1 n=c#5 v=37
147456 On ch=1 n=d#5 v=51
147797 Off ch=1 n=c#5 v=0
147797 Off ch=1 n=d#5 v=0
147797 Off ch=1 n=g#5 v=0
147797 On ch=1 n=c#5 v=41
147797 On ch=1 n=d#5 v=55
148139 Off ch=1 n=c#5 v=0
148139 Off ch=1 n=d#5 v=0
148139 On ch=1 n=g5 v=54
148480 Off ch=1 n=g5 v=0
148480 On ch=1 n=g#4 v=37
148480 On ch=1 n=d#5 v=56
148821 Off ch=1 n=g#4 v=0
148821 Off ch=1 n=d#5 v=0
148821 On ch=1 n=g#4 v=41
148821 On ch=1 n=d#5 v=60
149163 Off ch=1 n=g#4 v=0
149163 Off ch=1 n=d#5 v=0
149163 On ch=1 n=g#5 v=54
149504 Par ch=1 c=64 v=0
149504 Par ch=1 c=64 v=0
149504 Off ch=1 n=g#5 v=0
149504 On ch=1 n=a#4 v=48
149504 On ch=1 n=d#5 v=62
149845 Off ch=1 n=a#4 v=0
149845 Off ch=1 n=d#5 v=0
149845 On ch=1 n=a#4 v=49
149845 On ch=1 n=d#5 v=63
150187 On ch=1 n=a#5 v=62
150528 Off ch=1 n=a#4 v=0
150528 Off ch=1 n=d#5 v=0
150528 Off ch=1 n=a#5 v=0
150528 On ch=1 n=f5 v=54
150528 On ch=1 n=a#5 v=68
150869 Off ch=1 n=f5 v=0
150869 Off ch=1 n=a#5 v=0
150869 On ch=1 n=f5 v=54
150869 On ch=1 n=a#5 v=68
151211 On ch=1 n=f6 v=68
151552 Off ch=1 n=f5 v=0
151552 Off ch=1 n=a#5 v=0
151552 Off ch=1 n=f6 v=0
151552 On ch=1 n=d#5 v=49
151552 On ch=1 n=a#5 v=63
151893 Off ch=1 n=d#5 v=0
151893 Off ch=1 n=a#5 v=0
151893 On ch=1 n=d#5 v=50
151893 On ch=1 n=a#5 v=64
152235 On ch=1 n=d#6 v=63
152576 Off ch=1 n=d#5 v=0
152576 Off ch=1 n=a#5 v=0
152576 Off ch=1 n=d#6 v=0
152576 On ch=1 n=c5 v=49
152576 On ch=1 n=g#5 v=63
152917 Off ch=1 n=c5 v=0
152917 Off ch=1 n=g#5 v=0
152917 On ch=1 n=c5 v=50
152917 On ch=1 n=g#5 v=64
153259 On ch=1 n=c6 v=63
153600 Par ch=1 c=64 v=0
153600 Par ch=1 c=64 v=0
153600 Off ch=1 n=c5 v=0
153600 Off ch=1 n=g#5 v=0
153600 Off ch=1 n=c6 v=0
153600 On ch=1 n=c#5 v=45
153600 On ch=1 n=g#5 v=45
153600 On ch=1 n=b5 v=67
153941 Off ch=1 n=c#5 v=0
153941 Off ch=1 n=g#5 v=0
153941 Off ch=1 n=b5 v=0
153941 On ch=1 n=c#5 v=50
153941 On ch=1 n=g#5 v=50
153941 On ch=1 n=b5 v=66
154283 On ch=1 n=c#6 v=72
154624 Off ch=1 n=c#5 v=0
154624 Off ch=1 n=g#5 v=0
154624 Off ch=1 n=b5 v=0
154624 Off ch=1 n=c#6 v=0
154624 On ch=1 n=a#5 v=59
154624 On ch=1 n=c#6 v=71
154965 Off ch=1 n=a#5 v=0
154965 Off ch=1 n=c#6 v=0
154965 On ch=1 n=a#5 v=62
154965 On ch=1 n=c#6 v=76
155307 On ch=1 n=a#6 v=76
155648 Off ch=1 n=a#5 v=0
155648 Off ch=1 n=c#6 v=0
155648 Off ch=1 n=a#6 v=0
155648 On ch=1 n=g#5 v=52
155648 On ch=1 n=c#6 v=66
155989 Off ch=1 n=g#5 v=0
155989 Off ch=1 n=c#6 v=0
155989 On ch=1 n=g#5 v=58
155989 On ch=1 n=c#6 v=72
156331 On ch=1 n=g#6 v=66
156672 Off ch=1 n=g#5 v=0
156672 Off ch=1 n=c#6 v=0
156672 Off ch=1 n=g#6 v=0
156672 On ch=1 n=a#5 v=57
156672 On ch=1 n=c#6 v=71
157013 Off ch=1 n=a#5 v=0
157013 Off ch=1 n=c#6 v=0
157013 On ch=1 n=a#5 v=63
157013 On ch=1 n=c#6 v=77
157355 On ch=1 n=a#6 v=71
157696 Par ch=1 c=64 v=0
157696 Off ch=1 n=a#5 v=0
157696 Off ch=1 n=c#6 v=0
157696 Off ch=1 n=a#6 v=0
157696 On ch=1 n=a#5 v=57
157696 On ch=1 n=e6 v=69
158037 Off ch=1 n=a#5 v=0
158037 Off ch=1 n=e6 v=0
158037 On ch=1 n=a#5 v=61
158037 On ch=1 n=e6 v=73
158379 On ch=1 n=a#6 v=73
158720 Off ch=1 n=a#5 v=0
158720 Off ch=1 n=e6 v=0
158720 Off ch=1 n=a#6 v=0
158720 On ch=1 n=a#5 v=57
158720 On ch=1 n=e6 v=69
159061 Off ch=1 n=a#5 v=0
159061 Off ch=1 n=e6 v=0
159061 On ch=1 n=a#5 v=61
159061 On ch=1 n=e6 v=73
159403 On ch=1 n=c7 v=73
159744 Off ch=1 n=a#5 v=0
159744 Off ch=1 n=e6 v=0
159744 Off ch=1 n=c7 v=0
159744 On ch=1 n=g#5 v=57
159744 On ch=1 n=d#6 v=69
160085 Off ch=1 n=g#5 v=0
160085 Off ch=1 n=d#6 v=0
160085 On ch=1 n=g#5 v=61
160085 On ch=1 n=d#6 v=73
160427 On ch=1 n=g#6 v=73
160768 Off ch=1 n=g#5 v=0
160768 Off ch=1 n=d#6 v=0
160768 Off ch=1 n=g#6 v=0
160768 On ch=1 n=g#5 v=57
160768 On ch=1 n=d#6 v=69
161109 Off ch=1 n=g#5 v=0
161109 Off ch=1 n=d#6 v=0
161109 On ch=1 n=g#5 v=61
161109 On ch=1 n=d#6 v=73
161451 On ch=1 n=g#6 v=73
161792 Par ch=1 c=64 v=0
161792 Off ch=1 n=g#5 v=0
161792 Off ch=1 n=d#6 v=0
161792 Off ch=1 n=g#6 v=0
161792 On ch=1 n=g#5 v=57
161792 On ch=1 n=d6 v=69
162133 Off ch=1 n=g#5 v=0
162133 Off ch=1 n=d6 v=0
162133 On ch=1 n=g#5 v=61
162133 On ch=1 n=d6 v=73
162475 On ch=1 n=g#6 v=73
162816 Off ch=1 n=g#5 v=0
162816 Off ch=1 n=d6 v=0
162816 Off ch=1 n=g#6 v=0
162816 On ch=1 n=g#5 v=57
162816 On ch=1 n=d6 v=69
163157 Off ch=1 n=g#5 v=0
163157 Off ch=1 n=d6 v=0
163157 On ch=1 n=g#5 v=61
163157 On ch=1 n=d6 v=73
163499 On ch=1 n=a#6 v=73
163840 Off ch=1 n=g#5 v=0
163840 Off ch=1 n=d6 v=0
163840 Off ch=1 n=a#6 v=0
163840 On ch=1 n=f#5 v=57
163840 On ch=1 n=a#5 v=69
164181 Off ch=1 n=f#5 v=0
164181 Off ch=1 n=a#5 v=0
164181 On ch=1 n=f#5 v=60
164181 On ch=1 n=a#5 v=72
164523 On ch=1 n=f#6 v=72
164864 Off ch=1 n=f#5 v=0
164864 Off ch=1 n=a#5 v=0
164864 Off ch=1 n=f#6 v=0
164864 On ch=1 n=d#5 v=57
164864 On ch=1 n=a#5 v=69
165205 Off ch=1 n=d#5 v=0
165205 Off ch=1 n=a#5 v=0
165205 On ch=1 n=d#5 v=60
165205 On ch=1 n=a#5 v=72
165547 On ch=1 n=d#6 v=72
165888 Par ch=1 c=64 v=0
165888 Off ch=1 n=d#5 v=0
165888 Off ch=1 n=a#5 v=0
165888 Off ch=1 n=d#6 v=0
165888 On ch=1 n=g#5 v=52
165888 On ch=1 n=c#6 v=63
166229 Off ch=1 n=g#5 v=0
166229 Off ch=1 n=c#6 v=0
166229 On ch=1 n=g#5 v=61
166229 On ch=1 n=c#6 v=72
166571 On ch=1 n=g#6 v=69
166912 Off ch=1 n=g#5 v=0
166912 Off ch=1 n=c#6 v=0
166912 Off ch=1 n=g#6 v=0
166912 On ch=1 n=g#5 v=53
166912 On ch=1 n=c#6 v=65
167253 Off ch=1 n=g#5 v=0
167253 Off ch=1 n=c#6 v=0
167253 On ch=1 n=g#5 v=62
167253 On ch=1 n=c#6 v=74
167595 On ch=1 n=g#6 v=71
167936 Off ch=1 n=g#5 v=0
167936 Off ch=1 n=c#6 v=0
167936 Off ch=1 n=g#6 v=0
167936 On ch=1 n=a5 v=55
167936 On ch=1 n=c#6 v=55
167936 On ch=1 n=g6 v=67
168277 Off ch=1 n=a5 v=0
168277 Off ch=1 n=c#6 v=0
168277 Off ch=1 n=g6 v=0
168277 On ch=1 n=a5 v=65
168277 On ch=1 n=c#6 v=65
168277 On ch=1 n=g6 v=77
168619 Off ch=1 n=g6 v=0
168619 On ch=1 n=a6 v=74
168960 Off ch=1 n=a5 v=0
168960 Off ch=1 n=c#6 v=0
168960 Off ch=1 n=a6 v=0
168960 On ch=1 n=a5 v=57
168960 On ch=1 n=c#6 v=57
168960 On ch=1 n=g6 v=69
169301 Off ch=1 n=a5 v=0
169301 Off ch=1 n=c#6 v=0
169301 Off ch=1 n=g6 v=0
169301 On ch=1 n=a5 v=67
169301 On ch=1 n=c#6 v=67
169301 On ch=1 n=g6 v=79
169643 Off ch=1 n=g6 v=0
169643 On ch=1 n=a6 v=76
169984 Par ch=1 c=64 v=0
169984 Off ch=1 n=a5 v=0
169984 Off ch=1 n=c#6 v=0
169984 Off ch=1 n=a6 v=0
169984 On ch=1 n=a#5 v=59
169984 On ch=1 n=c#6 v=59
169984 On ch=1 n=g6 v=71
170325 Off ch=1 n=a#5 v=0
170325 Off ch=1 n=c#6 v=0
170325 Off ch=1 n=g6 v=0
170325 On ch=1 n=a#5 v=68
170325 On ch=1 n=c#6 v=68
170325 On ch=1 n=g6 v=81
170667 On ch=1 n=a#6 v=77
171008 Off ch=1 n=a#5 v=0
171008 Off ch=1 n=c#6 v=0
171008 Off ch=1 n=g6 v=0
171008 Off ch=1 n=a#6 v=0
171008 On ch=1 n=a#5 v=60
171008 On ch=1 n=c#6 v=60
171008 On ch=1 n=g6 v=73
171349 Off ch=1 n=a#5 v=0
171349 Off ch=1 n=c#6 v=0
171349 Off ch=1 n=g6 v=0
171349 On ch=1 n=a#5 v=70
171349 On ch=1 n=c#6 v=70
171349 On ch=1 n=g6 v=83
171691 On ch=1 n=a#6 v=79
172032 Off ch=1 n=a#5 v=0
172032 Off ch=1 n=c#6 v=0
172032 Off ch=1 n=g6 v=0
172032 Off ch=1 n=a#6 v=0
172032 On ch=1 n=c6 v=62
172032 On ch=1 n=f#6 v=67
172032 On ch=1 n=g#6 v=75
172373 Off ch=1 n=c6 v=0
172373 Off ch=1 n=f#6 v=0
172373 Off ch=1 n=g#6 v=0
172373 On ch=1 n=c6 v=73
172373 On ch=1 n=f#6 v=73
172373 On ch=1 n=g#6 v=86
172715 On ch=1 n=c7 v=82
173056 Off ch=1 n=c6 v=0
173056 Off ch=1 n=f#6 v=0
173056 Off ch=1 n=g#6 v=0
173056 Off ch=1 n=c7 v=0
173056 On ch=1 n=c6 v=64
173056 On ch=1 n=f#6 v=74
173056 On ch=1 n=g#6 v=77
173397 Off ch=1 n=c6 v=0
173397 Off ch=1 n=f#6 v=0
173397 Off ch=1 n=g#6 v=0
173397 On ch=1 n=c6 v=74
173397 On ch=1 n=f#6 v=74
173397 On ch=1 n=g#6 v=88
173739 On ch=1 n=c7 v=84
174080 Par ch=1 c=64 v=0
174080 Off ch=1 n=c6 v=0
174080 Off ch=1 n=f#6 v=0
174080 Off ch=1 n=g#6 v=0
174080 Off ch=1 n=c7 v=0
174080 On ch=1 n=c#6 v=75
174080 On ch=1 n=f6 v=75
174080 On ch=1 n=g#6 v=75
174080 On ch=1 n=c#7 v=87
175104 Off ch=1 n=c#6 v=0
175104 Off ch=1 n=f6 v=0
175104 Off ch=1 n=g#6 v=0
175104 Off ch=1 n=c#7 v=0
175104 On ch=1 n=f#5 v=47
175104 On ch=1 n=g#5 v=56
175445 Off ch=1 n=f#5 v=0
175445 Off ch=1 n=g#5 v=0
175445 On ch=1 n=f#5 v=51
175445 On ch=1 n=g#5 v=61
175787 Off ch=1 n=f#5 v=0
175787 On ch=1 n=f6 v=60
176128 Off ch=1 n=g#5 v=0
176128 On ch=1 n=f5 v=46
176128 On ch=1 n=g#5 v=56
176469 Off ch=1 n=f5 v=0
176469 Off ch=1 n=g#5 v=0
176469 Off ch=1 n=f6 v=0
176469 On ch=1 n=f5 v=50
176469 On ch=1 n=g#5 v=59
176811 On ch=1 n=c#6 v=58
177152 Off ch=1 n=f5 v=0
177152 Off ch=1 n=g#5 v=0
177152 On ch=1 n=e5 v=52
177152 On ch=1 n=f#5 v=55
177493 Off ch=1 n=e5 v=0
177493 Off ch=1 n=f#5 v=0
177493 Off ch=1 n=c#6 v=0
177493 On ch=1 n=e5 v=49
177493 On ch=1 n=f#5 v=58
177835 On ch=1 n=d#6 v=58
178176 Par ch=1 c=64 v=0
178176 Off ch=1 n=e5 v=0
178176 Off ch=1 n=f#5 v=0
178176 On ch=1 n=d#5 v=45
178176 On ch=1 n=f#5 v=54
178517 Off ch=1 n=d#5 v=0
178517 Off ch=1 n=f#5 v=0
178517 Off ch=1 n=d#6 v=0
178517 On ch=1 n=d#5 v=48
178517 On ch=1 n=f#5 v=57
178859 On ch=1 n=b5 v=56
179200 Off ch=1 n=d#5 v=0
179200 Off ch=1 n=f#5 v=0
179200 On ch=1 n=d5 v=44
179200 On ch=1 n=e5 v=53
179541 Off ch=1 n=d5 v=0
179541 Off ch=1 n=e5 v=0
179541 Off ch=1 n=b5 v=0
179541 On ch=1 n=d5 v=47
179541 On ch=1 n=e5 v=56
179883 On ch=1 n=c#6 v=56
180224 Off ch=1 n=d5 v=0
180224 Off ch=1 n=e5 v=0
180224 On ch=1 n=c#5 v=43
180224 On ch=1 n=e5 v=52
180565 Off ch=1 n=c#5 v=0
180565 Off ch=1 n=e5 v=0
180565 Off ch=1 n=c#6 v=0
180565 On ch=1 n=c#5 v=46
180565 On ch=1 n=e5 v=55
180907 On ch=1 n=a5 v=54
181248 Off ch=1 n=c#5 v=0
181248 Off ch=1 n=e5 v=0
181248 On ch=1 n=c5 v=42
181248 On ch=1 n=f#5 v=51
181589 Off ch=1 n=c5 v=0
181589 Off ch=1 n=f#5 v=0
181589 Off ch=1 n=a5 v=0
181589 On ch=1 n=c5 v=46
181589 On ch=1 n=f#5 v=54
181931 On ch=1 n=g#5 v=54
182272 Par ch=1 c=64 v=0
182272 Off ch=1 n=c5 v=0
182272 Off ch=1 n=f#5 v=0
182272 On ch=1 n=c#5 v=39
182272 On ch=1 n=f5 v=51
182613 Off ch=1 n=c#5 v=0
182613 Off ch=1 n=f5 v=0
182613 Off ch=1 n=g#5 v=0
182613 On ch=1 n=c#5 v=38
182613 On ch=1 n=f5 v=50
182955 On ch=1 n=g#5 v=50
183296 Off ch=1 n=c#5 v=0
183296 Off ch=1 n=f5 v=0
183296 Off ch=1 n=g#5 v=0
183296 On ch=1 n=f#5 v=36
183296 On ch=1 n=g#5 v=45
183637 Off ch=1 n=f#5 v=0
183637 Off ch=1 n=g#5 v=0
183637 On ch=1 n=f#5 v=40
183637 On ch=1 n=g#5 v=50
183979 On ch=1 n=f6 v=54
184320 Off ch=1 n=f#5 v=0
184320 Off ch=1 n=g#5 v=0
184320 On ch=1 n=f5 v=35
184320 On ch=1 n=g#5 v=45
184661 Off ch=1 n=f5 v=0
184661 Off ch=1 n=g#5 v=0
184661 Off ch=1 n=f6 v=0
184661 On ch=1 n=f5 v=39
184661 On ch=1 n=g#5 v=48
185003 On ch=1 n=c#6 v=52
185344 Off ch=1 n=f5 v=0
185344 Off ch=1 n=g#5 v=0
185344 On ch=1 n=e5 v=41
185344 On ch=1 n=f#5 v=44
185685 Off ch=1 n=e5 v=0
185685 Off ch=1 n=f#5 v=0
185685 Off ch=1 n=c#6 v=0
185685 On ch=1 n=e5 v=38
185685 On ch=1 n=f#5 v=47
186027 On ch=1 n=d#6 v=52
186368 Par ch=1 c=64 v=0
186368 Off ch=1 n=e5 v=0
186368 Off ch=1 n=f#5 v=0
186368 On ch=1 n=d#5 v=34
186368 On ch=1 n=f#5 v=43
186709 Off ch=1 n=d#5 v=0
186709 Off ch=1 n=f#5 v=0
186709 Off ch=1 n=d#6 v=0
186709 On ch=1 n=d#5 v=37
186709 On ch=1 n=f#5 v=46
187051 On ch=1 n=b5 v=50
187392 Off ch=1 n=d#5 v=0
187392 Off ch=1 n=f#5 v=0
187392 On ch=1 n=d5 v=33
187392 On ch=1 n=e5 v=42
187733 Off ch=1 n=d5 v=0
187733 Off ch=1 n=e5 v=0
187733 Off ch=1 n=b5 v=0
187733 On ch=1 n=d5 v=36
187733 On ch=1 n=e5 v=45
188075 On ch=1 n=c#6 v=50
188416 Off ch=1 n=d5 v=0
188416 Off ch=1 n=e5 v=0
188416 On ch=1 n=c#5 v=32
188416 On ch=1 n=e5 v=41
188757 Off ch=1 n=c#5 v=0
188757 Off ch=1 n=e5 v=0
188757 Off ch=1 n=c#6 v=0
188757 On ch=1 n=c#5 v=35
188757 On ch=1 n=e5 v=44
189099 On ch=1 n=a5 v=43
189440 Off ch=1 n=c#5 v=0
189440 Off ch=1 n=e5 v=0
189440 On ch=1 n=c5 v=31
189440 On ch=1 n=f#5 v=45
189781 Off ch=1 n=c5 v=0
189781 Off ch=1 n=f#5 v=0
189781 Off ch=1 n=a5 v=0
189781 On ch=1 n=c5 v=35
189781 On ch=1 n=f#5 v=48
190123 On ch=1 n=g#5 v=48
190464 Par ch=1 c=64 v=0
190464 Off ch=1 n=c5 v=0
190464 Off ch=1 n=f#5 v=0
190464 Off ch=1 n=g#5 v=0
190464 On ch=1 n=c#5 v=40
190464 On ch=1 n=f5 v=49
190805 Off ch=1 n=c#5 v=0
190805 Off ch=1 n=f5 v=0
190805 On ch=1 n=c#5 v=43
190805 On ch=1 n=f5 v=52
191147 On ch=1 n=g#5 v=49
191488 Off ch=1 n=c#5 v=0
191488 Off ch=1 n=f5 v=0
191488 Off ch=1 n=g#5 v=0
191488 On ch=1 n=c#5 v=39
191488 On ch=1 n=e5 v=48
191829 Off ch=1 n=c#5 v=0
191829 Off ch=1 n=e5 v=0
191829 On ch=1 n=c#5 v=42
191829 On ch=1 n=e5 v=51
192171 On ch=1 n=a5 v=61
192512 Off ch=1 n=c#5 v=0
192512 Off ch=1 n=e5 v=0
192512 On ch=1 n=c#5 v=38
192512 On ch=1 n=e5 v=47
192853 Off ch=1 n=c#5 v=0
192853 Off ch=1 n=e5 v=0
192853 On ch=1 n=c#5 v=41
192853 On ch=1 n=e5 v=50
193195 Off ch=1 n=a5 v=0
193195 On ch=1 n=a5 v=49
193536 Off ch=1 n=c#5 v=0
193536 Off ch=1 n=e5 v=0
193536 On ch=1 n=c5 v=37
193536 On ch=1 n=f#5 v=51
193877 Off ch=1 n=c5 v=0
193877 Off ch=1 n=f#5 v=0
193877 On ch=1 n=c5 v=41
193877 On ch=1 n=f#5 v=54
194219 Off ch=1 n=a5 v=0
194219 On ch=1 n=g#5 v=54
194560 Par ch=1 c=64 v=0
194560 Off ch=1 n=c5 v=0
194560 Off ch=1 n=f#5 v=0
194560 On ch=1 n=c#5 v=40
194560 On ch=1 n=f5 v=49
194901 Off ch=1 n=c#5 v=0
194901 Off ch=1 n=f5 v=0
194901 Off ch=1 n=g#5 v=0
194901 On ch=1 n=c#5 v=43
194901 On ch=1 n=f5 v=52
195243 On ch=1 n=g#5 v=49
195584 Off ch=1 n=c#5 v=0
195584 Off ch=1 n=f5 v=0
195584 Off ch=1 n=g#5 v=0
195584 On ch=1 n=c#5 v=33
195584 On ch=1 n=e5 v=42
195925 Off ch=1 n=c#5 v=0
195925 Off ch=1 n=e5 v=0
195925 On ch=1 n=c#5 v=36
195925 On ch=1 n=e5 v=45
196267 On ch=1 n=a#5 v=50
196608 Off ch=1 n=c#5 v=0
196608 Off ch=1 n=e5 v=0
196608 On ch=1 n=c#5 v=28
196608 On ch=1 n=e5 v=36
196949 Off ch=1 n=c#5 v=0
196949 Off ch=1 n=e5 v=0
196949 On ch=1 n=c#5 v=30
196949 On ch=1 n=e5 v=37
197291 Off ch=1 n=a#5 v=0
197291 On ch=1 n=a#5 v=35
197632 Off ch=1 n=c#5 v=0
197632 Off ch=1 n=e5 v=0
197632 On ch=1 n=c5 v=25
197632 On ch=1 n=f#5 v=36
197973 Off ch=1 n=c5 v=0
197973 Off ch=1 n=f#5 v=0
197973 On ch=1 n=c5 v=27
197973 On ch=1 n=f#5 v=37
198315 Off ch=1 n=a#5 v=0
198315 On ch=1 n=g#5 v=29
198656 Par ch=1 c=64 v=0
198656 Off ch=1 n=c5 v=0
198656 Off ch=1 n=f#5 v=0
198656 Off ch=1 n=g#5 v=0
198656 On ch=1 n=c#5 v=34
198656 On ch=1 n=f5 v=46
198997 Off ch=1 n=c#5 v=0
198997 Off ch=1 n=f5 v=0
198997 On ch=1 n=c#5 v=33
198997 On ch=1 n=f5 v=45
199339 On ch=1 n=g#5 v=45
199680 Off ch=1 n=c#5 v=0
199680 Off ch=1 n=f5 v=0
199680 Off ch=1 n=g#5 v=0
199680 On ch=1 n=f5 v=32
199680 On ch=1 n=g#5 v=44
200021 Off ch=1 n=f5 v=0
200021 Off ch=1 n=g#5 v=0
200021 On ch=1 n=f5 v=32
200021 On ch=1 n=g#5 v=44
200363 On ch=1 n=c#6 v=43
200704 Off ch=1 n=f5 v=0
200704 Off ch=1 n=g#5 v=0
200704 Off ch=1 n=c#6 v=0
200704 On ch=1 n=g#5 v=30
200704 On ch=1 n=c#6 v=42
201045 Off ch=1 n=g#5 v=0
201045 Off ch=1 n=c#6 v=0
201045 On ch=1 n=g#5 v=30
201045 On ch=1 n=c#6 v=42
201387 On ch=1 n=f6 v=41
201728 Off ch=1 n=g#5 v=0
201728 Off ch=1 n=c#6 v=0
201728 Off ch=1 n=f6 v=0
201728 On ch=1 n=c#6 v=29
201728 On ch=1 n=f6 v=41
202069 Off ch=1 n=c#6 v=0
202069 Off ch=1 n=f6 v=0
202069 On ch=1 n=c#6 v=28
202069 On ch=1 n=f6 v=40
202411 On ch=1 n=g#6 v=39
202752 Par ch=1 c=64 v=0
202752 Off ch=1 n=c#6 v=0
202752 Off ch=1 n=f6 v=0
202752 Off ch=1 n=g#6 v=0
202752 On ch=1 n=f6 v=27
202752 On ch=1 n=g#6 v=39
203093 Off ch=1 n=f6 v=0
203093 Off ch=1 n=g#6 v=0
203093 On ch=1 n=f6 v=26
203093 On ch=1 n=g#6 v=38
203435 On ch=1 n=c#7 v=37
203776 Off ch=1 n=f6 v=0
203776 Off ch=1 n=g#6 v=0
203776 Off ch=1 n=c#7 v=0
203776 On ch=1 n=g#6 v=25
203776 On ch=1 n=c#7 v=37
204117 Off ch=1 n=g#6 v=0
204117 Off ch=1 n=c#7 v=0
204117 On ch=1 n=g#6 v=24
204117 On ch=1 n=c#7 v=36
204459 On ch=1 n=f7 v=36
204800 Off ch=1 n=g#6 v=0
204800 Off ch=1 n=c#7 v=0
204800 Off ch=1 n=f7 v=0
204800 On ch=1 n=c#7 v=23
204800 On ch=1 n=f7 v=35
205141 Off ch=1 n=c#7 v=0
205141 Off ch=1 n=f7 v=0
205141 On ch=1 n=c#7 v=22
205141 On ch=1 n=f7 v=34
205483 On ch=1 n=g#7 v=34
205824 Off ch=1 n=c#7 v=0
205824 Off ch=1 n=f7 v=0
205824 Off ch=1 n=g#7 v=0
205824 On ch=1 n=f7 v=21
205824 On ch=1 n=g#7 v=33
206165 Off ch=1 n=f7 v=0
206165 Off ch=1 n=g#7 v=0
206165 On ch=1 n=f7 v=21
206165 On ch=1 n=g#7 v=33
206507 On ch=1 n=c#8 v=32
206848 Par ch=1 c=64 v=0
206848 Off ch=1 n=f7 v=0
206848 Off ch=1 n=g#7 v=0
206848 Off ch=1 n=c#8 v=0
206848 On ch=1 n=g#7 v=29
206848 On ch=1 n=f8 v=44
207872 Off ch=1 n=g#7 v=0
207872 Off ch=1 n=f8 v=0
208896 On ch=1 n=g#5 v=32
208896 On ch=1 n=c#6 v=32
208896 On ch=1 n=g#6 v=48
209920 Off ch=1 n=g#5 v=0
209920 Off ch=1 n=c#6 v=0
209920 Off ch=1 n=g#6 v=0
210944 Par ch=1 c=64 v=0
210944 On ch=1 n=f4 v=23
210944 On ch=1 n=g#4 v=23
210944 On ch=1 n=c#5 v=40
215040 Par ch=1 c=64 v=0
215040 Off ch=1 n=f4 v=0
215040 Off ch=1 n=g#4 v=0
215040 Off ch=1 n=c#5 v=0
219136 Par ch=1 c=64 v=0
219137 Meta TrkEnd
TrkEnd
MTrk
0 Meta TrkName "Instrument  2"
0 PrCh ch=1 p=1
0 Par ch=1 c=64 v=0
774 On ch=1 n=g#3 v=36
1024 On ch=1 n=c5 v=48
1642 Par ch=1 c=64 v=127
2048 Par ch=1 c=64 v=127
2048 Off ch=1 n=g#3 v=0
2048 Off ch=1 n=c5 v=0
2048 On ch=1 n=c#4 v=36
2048 On ch=1 n=b4 v=48
2165 Par ch=1 c=64 v=0
2302 Par ch=1 c=64 v=127
2822 On ch=1 n=f#3 v=36
2848 Par ch=1 c=64 v=0
3072 Off ch=1 n=c#4 v=0
3072 Off ch=1 n=b4 v=0
3072 On ch=1 n=a#4 v=48
3101 Par ch=1 c=64 v=0
3218 Par ch=1 c=64 v=127
3901 Par ch=1 c=64 v=0
4096 Off ch=1 n=f#3 v=0
4096 Off ch=1 n=a#4 v=0
4096 On ch=1 n=g#3 v=36
4096 On ch=1 n=g#4 v=48
4135 Par ch=1 c=64 v=0
4252 Par ch=1 c=64 v=127
5013 Par ch=1 c=64 v=0
5120 Off ch=1 n=g#3 v=0
5120 Off ch=1 n=g#4 v=0
5120 On ch=1 n=c#4 v=36
5120 On ch=1 n=g#4 v=48
5169 Par ch=1 c=64 v=0
5325 Par ch=1 c=64 v=127
5500 Par ch=1 c=64 v=127
6144 Par ch=1 c=64 v=127
6144 Par ch=1 c=64 v=0
6144 Off ch=1 n=c#4 v=0
6144 Off ch=1 n=g#4 v=0
6144 On ch=1 n=d#4 v=39
6144 On ch=1 n=c#5 v=61
6261 Par ch=1 c=64 v=0
6398 Par ch=1 c=64 v=127
6656 Off ch=1 n=c#5 v=0
6656 On ch=1 n=c5 v=58
6944 Par ch=1 c=64 v=0
7168 Off ch=1 n=c5 v=0
7168 On ch=1 n=c5 v=55
7197 Par ch=1 c=64 v=0
7314 Par ch=1 c=64 v=127
7680 Off ch=1 n=c5 v=0
7680 On ch=1 n=a#4 v=53
7997 Par ch=1 c=64 v=0
8192 Off ch=1 n=d#4 v=0
8192 Off ch=1 n=a#4 v=0
8192 On ch=1 n=g#4 v=50
8231 Par ch=1 c=64 v=0
8348 Par ch=1 c=64 v=127
8966 On ch=1 n=g#3 v=39
9109 Par ch=1 c=64 v=0
9216 Off ch=1 n=g#4 v=0
9216 On ch=1 n=c5 v=51
9265 Par ch=1 c=64 v=0
9421 Par ch=1 c=64 v=127
9596 Par ch=1 c=64 v=127
10240 Par ch=1 c=64 v=127
10240 Par ch=1 c=64 v=0
10240 Off ch=1 n=g#3 v=0
10240 Off ch=1 n=c5 v=0
10240 On ch=1 n=c#4 v=36
10240 On ch=1 n=b4 v=48
10357 Par ch=1 c=64 v=0
10494 Par ch=1 c=64 v=127
11014 On ch=1 n=f#3 v=36
11040 Par ch=1 c=64 v=0
11264 Off ch=1 n=c#4 v=0
11264 Off ch=1 n=b4 v=0
11264 On ch=1 n=a#4 v=48
11293 Par ch=1 c=64 v=0
11410 Par ch=1 c=64 v=127
12093 Par ch=1 c=64 v=0
12288 Off ch=1 n=f#3 v=0
12288 Off ch=1 n=a#4 v=0
12288 On ch=1 n=b3 v=36
12288 On ch=1 n=a4 v=48
12327 Par ch=1 c=64 v=0
12444 Par ch=1 c=64 v=127
13062 On ch=1 n=e3 v=36
13205 Par ch=1 c=64 v=0
13312 Off ch=1 n=b3 v=0
13312 Off ch=1 n=a4 v=0
13312 On ch=1 n=g#4 v=48
13361 Par ch=1 c=64 v=0
13517 Par ch=1 c=64 v=127
13995 Par ch=1 c=64 v=127
14336 Par ch=1 c=64 v=127
14336 Par ch=1 c=64 v=0
14336 Par ch=1 c=64 v=0
14336 Off ch=1 n=e3 v=0
14336 Off ch=1 n=g#4 v=0
14336 On ch=1 n=a3 v=36
14336 On ch=1 n=a4 v=48
14453 Par ch=1 c=64 v=0
14590 Par ch=1 c=64 v=127
15136 Par ch=1 c=64 v=0
15360 Off ch=1 n=a3 v=0
15360 Off ch=1 n=a4 v=0
15360 On ch=1 n=a3 v=39
15360 On ch=1 n=e4 v=55
15389 Par ch=1 c=64 v=0
15506 Par ch=1 c=64 v=127
15872 Off ch=1 n=e4 v=0
15872 On ch=1 n=e4 v=51
16189 Par ch=1 c=64 v=0
16384 Off ch=1 n=a3 v=0
16384 Off ch=1 n=e4 v=0
16384 On ch=1 n=a#3 v=36
16384 On ch=1 n=d#4 v=51
16423 Par ch=1 c=64 v=0
16501 Par ch=1 c=64 v=0
16774 Par ch=1 c=64 v=127
17301 Par ch=1 c=64 v=0
17408 Off ch=1 n=a#3 v=0
17408 Off ch=1 n=d#4 v=0
17408 On ch=1 n=c3 v=45
17408 On ch=1 n=c4 v=57
17457 Par ch=1 c=64 v=0
17613 Par ch=1 c=64 v=127
17920 On ch=1 n=f#4 v=55
17983 Par ch=1 c=64 v=127
18432 Par ch=1 c=64 v=127
18432 Off ch=1 n=c3 v=0
18432 Off ch=1 n=c4 v=0
18432 Off ch=1 n=f#4 v=0
18432 On ch=1 n=c#3 v=48
18432 On ch=1 n=c#4 v=60
18588 Par ch=1 c=64 v=0
18783 Par ch=1 c=64 v=127
18944 On ch=1 n=f#4 v=53
19456 Off ch=1 n=f#4 v=0
19456 On ch=1 n=f#4 v=53
19456 On ch=1 n=a#4 v=53
19456 On ch=1 n=f#5 v=65
21494 Par ch=1 c=64 v=0
21504 Off ch=1 n=c#3 v=0
21504 Off ch=1 n=c#4 v=0
21504 Off ch=1 n=f#4 v=0
21504 Off ch=1 n=a#4 v=0
21504 Off ch=1 n=f#5 v=0
21504 On ch=1 n=c3 v=44
21504 On ch=1 n=c4 v=56
21748 Par ch=1 c=64 v=127
22016 On ch=1 n=f#4 v=57
22528 Par ch=1 c=64 v=127
22528 Par ch=1 c=64 v=0
22528 Off ch=1 n=f#4 v=0
22528 Off ch=1 n=c3 v=0
22528 Off ch=1 n=c4 v=0
22528 On ch=1 n=c#3 v=48
22528 On ch=1 n=c#4 v=60
22684 Par ch=1 c=64 v=0
22879 Par ch=1 c=64 v=127
23040 On ch=1 n=f#4 v=53
23552 Off ch=1 n=f#4 v=0
23552 On ch=1 n=f#4 v=53
23552 On ch=1 n=a#4 v=53
23552 On ch=1 n=f#5 v=65
25590 Par ch=1 c=64 v=0
25600 Off ch=1 n=c#3 v=0
25600 Off ch=1 n=c#4 v=0
25600 Off ch=1 n=f#4 v=0
25600 Off ch=1 n=a#4 v=0
25600 Off ch=1 n=f#5 v=0
25600 On ch=1 n=c4 v=44
25600 On ch=1 n=f#4 v=56
25844 Par ch=1 c=64 v=127
26624 Par ch=1 c=64 v=127
26624 Par ch=1 c=64 v=0
26624 Par ch=1 c=64 v=0
26624 Par ch=1 c=64 v=0
26624 Off ch=1 n=c4 v=0
26624 Off ch=1 n=f#4 v=0
26624 On ch=1 n=b3 v=48
26624 On ch=1 n=f#4 v=36
26780 Par ch=1 c=64 v=0
26975 Par ch=1 c=64 v=127
27648 Off ch=1 n=b3 v=0
27648 On ch=1 n=a#3 v=53
27658 Par ch=1 c=64 v=0
27833 Par ch=1 c=64 v=127
28132 Off ch=1 n=a#3 v=0
28340 On ch=1 n=a#3 v=51
28506 On ch=1 n=g#4 v=55
28672 Off ch=1 n=f#4 v=0
28672 On ch=1 n=d#5 v=67
28692 Par ch=1 c=64 v=0
28828 Par ch=1 c=64 v=127
29686 Par ch=1 c=64 v=0
29696 Off ch=1 n=d#5 v=0
29696 On ch=1 n=d5 v=55
29940 Par ch=1 c=64 v=127
30720 Par ch=1 c=64 v=127
30720 Par ch=1 c=64 v=0
30720 Par ch=1 c=64 v=0
30720 Par ch=1 c=64 v=0
30720 Par ch=1 c=64 v=0
30720 Par ch=1 c=64 v=0
30720 Par ch=1 c=64 v=0
30720 Off ch=1 n=a#3 v=0
30720 Off ch=1 n=g#4 v=0
30720 Off ch=1 n=d5 v=0
30720 On ch=1 n=d#4 v=39
30720 On ch=1 n=a#4 v=39
30720 On ch=1 n=d#5 v=54
30876 Par ch=1 c=64 v=0
31071 Par ch=1 c=64 v=127
31754 Par ch=1 c=64 v=0
31929 Par ch=1 c=64 v=127
32768 Off ch=1 n=d#4 v=0
32768 Off ch=1 n=a#4 v=0
32768 Off ch=1 n=d#5 v=0
32768 On ch=1 n=g#4 v=29
32768 On ch=1 n=d#5 v=38
32788 Par ch=1 c=64 v=0
32924 Par ch=1 c=64 v=127
33542 On ch=1 n=g#3 v=30
33782 Par ch=1 c=64 v=0
33792 Off ch=1 n=g#4 v=0
33792 Off ch=1 n=d#5 v=0
33792 On ch=1 n=c5 v=40
34036 Par ch=1 c=64 v=127
34816 Par ch=1 c=64 v=127
34816 Par ch=1 c=64 v=0
34816 Off ch=1 n=g#3 v=0
34816 Off ch=1 n=c5 v=0
34816 On ch=1 n=c#4 v=32
34816 On ch=1 n=b4 v=42
34933 Par ch=1 c=64 v=0
35070 Par ch=1 c=64 v=127
35590 On ch=1 n=f#3 v=33
35616 Par ch=1 c=64 v=0
35840 Off ch=1 n=c#4 v=0
35840 Off ch=1 n=b4 v=0
35840 On ch=1 n=a#4 v=44
35869 Par ch=1 c=64 v=0
35986 Par ch=1 c=64 v=127
36669 Par ch=1 c=64 v=0
36864 Off ch=1 n=f#3 v=0
36864 Off ch=1 n=a#4 v=0
36864 On ch=1 n=g#3 v=35
36864 On ch=1 n=g#4 v=46
36903 Par ch=1 c=64 v=0
37020 Par ch=1 c=64 v=127
37781 Par ch=1 c=64 v=0
37888 Off ch=1 n=g#3 v=0
37888 Off ch=1 n=g#4 v=0
37888 On ch=1 n=c#4 v=36
37888 On ch=1 n=g#4 v=48
37937 Par ch=1 c=64 v=0
38093 Par ch=1 c=64 v=127
38522 Par ch=1 c=64 v=127
38912 Par ch=1 c=64 v=127
38912 Par ch=1 c=64 v=0
38912 Par ch=1 c=64 v=0
38912 Off ch=1 n=c#4 v=0
38912 Off ch=1 n=g#4 v=0
38912 On ch=1 n=d#4 v=33
38912 On ch=1 n=c#5 v=61
39029 Par ch=1 c=64 v=0
39166 Par ch=1 c=64 v=127
39424 Off ch=1 n=c#5 v=0
39424 On ch=1 n=c5 v=58
39712 Par ch=1 c=64 v=0
39936 Off ch=1 n=c5 v=0
39936 On ch=1 n=c5 v=55
39965 Par ch=1 c=64 v=0
40082 Par ch=1 c=64 v=127
40448 Off ch=1 n=c5 v=0
40448 On ch=1 n=a#4 v=53
40765 Par ch=1 c=64 v=0
40960 Off ch=1 n=d#4 v=0
40960 Off ch=1 n=a#4 v=0
40960 On ch=1 n=g#4 v=59
40999 Par ch=1 c=64 v=0
41116 Par ch=1 c=64 v=127
41734 On ch=1 n=g#3 v=34
41877 Par ch=1 c=64 v=0
41984 Off ch=1 n=g#4 v=0
41984 On ch=1 n=c5 v=46
42033 Par ch=1 c=64 v=0
42189 Par ch=1 c=64 v=127
42618 Par ch=1 c=64 v=127
43008 Par ch=1 c=64 v=127
43008 Par ch=1 c=64 v=0
43008 Par ch=1 c=64 v=0
43008 Off ch=1 n=g#3 v=0
43008 Off ch=1 n=c5 v=0
43008 On ch=1 n=c#4 v=36
43008 On ch=1 n=b4 v=48
43125 Par ch=1 c=64 v=0
43262 Par ch=1 c=64 v=127
43782 On ch=1 n=f#3 v=36
43808 Par ch=1 c=64 v=0
44032 Off ch=1 n=c#4 v=0
44032 Off ch=1 n=b4 v=0
44032 On ch=1 n=a#4 v=48
44061 Par ch=1 c=64 v=0
44178 Par ch=1 c=64 v=127
44861 Par ch=1 c=64 v=0
45056 Off ch=1 n=f#3 v=0
45056 Off ch=1 n=a#4 v=0
45056 On ch=1 n=b3 v=36
45056 On ch=1 n=a4 v=48
45095 Par ch=1 c=64 v=0
45212 Par ch=1 c=64 v=127
45830 On ch=1 n=e3 v=36
45973 Par ch=1 c=64 v=0
46080 Off ch=1 n=b3 v=0
46080 Off ch=1 n=a4 v=0
46080 On ch=1 n=g#4 v=48
46129 Par ch=1 c=64 v=0
46285 Par ch=1 c=64 v=127
46985 Par ch=1 c=64 v=127
47104 Par ch=1 c=64 v=127
47104 Par ch=1 c=64 v=0
47104 Par ch=1 c=64 v=0
47104 Off ch=1 n=e3 v=0
47104 Off ch=1 n=g#4 v=0
47104 On ch=1 n=a3 v=36
47104 On ch=1 n=a4 v=48
47221 Par ch=1 c=64 v=0
47358 Par ch=1 c=64 v=127
47904 Par ch=1 c=64 v=0
48128 Off ch=1 n=a3 v=0
48128 Off ch=1 n=a4 v=0
48128 On ch=1 n=a3 v=39
48128 On ch=1 n=e4 v=55
48157 Par ch=1 c=64 v=0
48274 Par ch=1 c=64 v=127
48640 Off ch=1 n=e4 v=0
48640 On ch=1 n=e4 v=51
48957 Par ch=1 c=64 v=0
49152 Off ch=1 n=a3 v=0
49152 Off ch=1 n=e4 v=0
49152 On ch=1 n=a#3 v=36
49152 On ch=1 n=d#4 v=51
49191 Par ch=1 c=64 v=0
49269 Par ch=1 c=64 v=0
49542 Par ch=1 c=64 v=127
50069 Par ch=1 c=64 v=0
50176 Off ch=1 n=a#3 v=0
50176 Off ch=1 n=d#4 v=0
50176 On ch=1 n=c3 v=45
50176 On ch=1 n=c4 v=57
50225 Par ch=1 c=64 v=0
50381 Par ch=1 c=64 v=127
50688 On ch=1 n=f#4 v=55
50751 Par ch=1 c=64 v=127
51200 Par ch=1 c=64 v=127
51200 Par ch=1 c=64 v=127
51200 Par ch=1 c=64 v=0
51200 Par ch=1 c=64 v=0
51200 Par ch=1 c=64 v=0
51200 Par ch=1 c=64 v=0
51200 Par ch=1 c=64 v=0
51200 Off ch=1 n=c3 v=0
51200 Off ch=1 n=c4 v=0
51200 Off ch=1 n=f#4 v=0
51200 On ch=1 n=c#3 v=48
51200 On ch=1 n=c#4 v=60
51317 Par ch=1 c=64 v=0
51356 Par ch=1 c=64 v=0
51454 Par ch=1 c=64 v=127
51551 Par ch=1 c=64 v=127
51712 On ch=1 n=f#4 v=62
52000 Par ch=1 c=64 v=0
52224 Off ch=1 n=f#4 v=0
52224 On ch=1 n=f#4 v=62
52224 On ch=1 n=a#4 v=62
52224 On ch=1 n=f#5 v=62
52253 Par ch=1 c=64 v=0
52370 Par ch=1 c=64 v=127
53053 Par ch=1 c=64 v=0
53287 Par ch=1 c=64 v=0
53365 Par ch=1 c=64 v=0
53638 Par ch=1 c=64 v=127
54165 Par ch=1 c=64 v=0
54262 Par ch=1 c=64 v=0
54272 Off ch=1 n=c#3 v=0
54272 Off ch=1 n=c#4 v=0
54272 Off ch=1 n=f#4 v=0
54272 Off ch=1 n=a#4 v=0
54272 Off ch=1 n=f#5 v=0
54272 On ch=1 n=d#3 v=44
54272 On ch=1 n=d#4 v=56
54321 Par ch=1 c=64 v=0
54477 Par ch=1 c=64 v=127
54516 Par ch=1 c=64 v=127
54784 On ch=1 n=g#4 v=57
55179 Par ch=1 c=64 v=0
55296 Par ch=1 c=64 v=127
55296 Par ch=1 c=64 v=0
55296 Par ch=1 c=64 v=127
55296 Par ch=1 c=64 v=0
55296 Par ch=1 c=64 v=0
55296 Par ch=1 c=64 v=0
55296 Par ch=1 c=64 v=0
55296 Par ch=1 c=64 v=0
55296 Off ch=1 n=g#4 v=0
55296 Off ch=1 n=d#3 v=0
55296 Off ch=1 n=d#4 v=0
55296 On ch=1 n=e3 v=48
55296 On ch=1 n=e4 v=60
55413 Par ch=1 c=64 v=0
55452 Par ch=1 c=64 v=0
55550 Par ch=1 c=64 v=127
55647 Par ch=1 c=64 v=127
55808 On ch=1 n=a4 v=53
56096 Par ch=1 c=64 v=0
56320 On ch=1 n=c#5 v=53
56320 On ch=1 n=a5 v=65
56349 Par ch=1 c=64 v=0
56466 Par ch=1 c=64 v=127
57149 Par ch=1 c=64 v=0
57383 Par ch=1 c=64 v=0
57461 Par ch=1 c=64 v=0
57734 Par ch=1 c=64 v=127
58261 Par ch=1 c=64 v=0
58358 Par ch=1 c=64 v=0
58368 Off ch=1 n=e3 v=0
58368 Off ch=1 n=e4 v=0
58368 Off ch=1 n=a4 v=0
58368 Off ch=1 n=c#5 v=0
58368 Off ch=1 n=a5 v=0
58368 On ch=1 n=e4 v=44
58368 On ch=1 n=b4 v=56
58417 Par ch=1 c=64 v=0
58573 Par ch=1 c=64 v=127
58612 Par ch=1 c=64 v=127
59275 Par ch=1 c=64 v=0
59392 Par ch=1 c=64 v=127
59392 Par ch=1 c=64 v=0
59392 Par ch=1 c=64 v=0
59392 Par ch=1 c=64 v=0
59392 Par ch=1 c=64 v=0
59392 Par ch=1 c=64 v=0
59392 Par ch=1 c=64 v=0
59509 Par ch=1 c=64 v=0
59646 Par ch=1 c=64 v=127
60192 Par ch=1 c=64 v=0
60416 Off ch=1 n=e4 v=0
60416 Off ch=1 n=b4 v=0
60416 On ch=1 n=d#4 v=41
60416 On ch=1 n=c5 v=53
60445 Par ch=1 c=64 v=0
60562 Par ch=1 c=64 v=127
61040 Off ch=1 n=d#4 v=0
61108 On ch=1 n=d#4 v=44
61245 Par ch=1 c=64 v=0
61274 On ch=1 n=c#5 v=44
61440 Off ch=1 n=c5 v=0
61440 On ch=1 n=g#5 v=63
61479 Par ch=1 c=64 v=0
61557 Par ch=1 c=64 v=0
61830 Par ch=1 c=64 v=127
62357 Par ch=1 c=64 v=0
62464 Off ch=1 n=g#5 v=0
62464 On ch=1 n=g5 v=43
62513 Par ch=1 c=64 v=0
62669 Par ch=1 c=64 v=127
63137 Par ch=1 c=64 v=127
63488 Par ch=1 c=64 v=127
63488 Par ch=1 c=64 v=0
63488 Par ch=1 c=64 v=0
63488 Par ch=1 c=64 v=0
63488 Par ch=1 c=64 v=0
63488 Par ch=1 c=64 v=0
63488 Par ch=1 c=64 v=0
63488 Par ch=1 c=64 v=0
63488 Off ch=1 n=d#4 v=0
63488 Off ch=1 n=c#5 v=0
63488 Off ch=1 n=g5 v=0
63488 On ch=1 n=g#4 v=27
63488 On ch=1 n=c#5 v=27
63488 On ch=1 n=g5 v=49
63605 Par ch=1 c=64 v=0
63742 Par ch=1 c=64 v=127
64288 Par ch=1 c=64 v=0
64512 Off ch=1 n=c#5 v=0
64512 On ch=1 n=d#5 v=34
64541 Par ch=1 c=64 v=0
64658 Par ch=1 c=64 v=127
65341 Par ch=1 c=64 v=0
65536 Off ch=1 n=g#4 v=0
65536 Off ch=1 n=d#5 v=0
65536 Off ch=1 n=g5 v=0
65536 On ch=1 n=g#4 v=19
65536 On ch=1 n=c5 v=31
65536 On ch=1 n=g#5 v=19
65575 Par ch=1 c=64 v=0
65653 Par ch=1 c=64 v=0
65926 Par ch=1 c=64 v=127
66453 Par ch=1 c=64 v=0
66560 Off ch=1 n=g#4 v=0
66560 Off ch=1 n=c5 v=0
66560 Off ch=1 n=g#5 v=0
66560 On ch=1 n=g#4 v=27
66560 On ch=1 n=b4 v=39
66609 Par ch=1 c=64 v=0
66765 Par ch=1 c=64 v=127
66901 Off ch=1 n=g#4 v=0
66901 Off ch=1 n=b4 v=0
66901 On ch=1 n=g#4 v=28
66901 On ch=1 n=b4 v=40
67243 On ch=1 n=g#5 v=48
67272 Par ch=1 c=64 v=127
67584 Par ch=1 c=64 v=127
67584 Par ch=1 c=64 v=0
67584 Par ch=1 c=64 v=0
67584 Par ch=1 c=64 v=0
67584 Par ch=1 c=64 v=0
67584 Par ch=1 c=64 v=0
67584 Par ch=1 c=64 v=0
67584 Par ch=1 c=64 v=0
67584 Par ch=1 c=64 v=0
67584 Off ch=1 n=g#4 v=0
67584 Off ch=1 n=b4 v=0
67584 Off ch=1 n=g#5 v=0
67584 On ch=1 n=g#4 v=42
67584 On ch=1 n=d#5 v=42
67701 Par ch=1 c=64 v=0
67838 Par ch=1 c=64 v=127
67925 Off ch=1 n=g#4 v=0
67925 Off ch=1 n=d#5 v=0
67925 On ch=1 n=g#4 v=43
67925 On ch=1 n=d#5 v=43
68267 On ch=1 n=g#5 v=51
68384 Par ch=1 c=64 v=0
68608 Off ch=1 n=g#4 v=0
68608 Off ch=1 n=d#5 v=0
68608 On ch=1 n=d#4 v=45
68608 On ch=1 n=g#4 v=45
68637 Par ch=1 c=64 v=0
68754 Par ch=1 c=64 v=127
68949 Off ch=1 n=d#4 v=0
68949 Off ch=1 n=g#4 v=0
68949 Off ch=1 n=g#5 v=0
68949 On ch=1 n=d#4 v=46
68949 On ch=1 n=g#4 v=46
69291 On ch=1 n=f#5 v=54
69437 Par ch=1 c=64 v=0
69632 Off ch=1 n=d#4 v=0
69632 Off ch=1 n=g#4 v=0
69632 On ch=1 n=b3 v=48
69632 On ch=1 n=g#4 v=48
69671 Par ch=1 c=64 v=0
69749 Par ch=1 c=64 v=0
69973 Off ch=1 n=b3 v=0
69973 Off ch=1 n=g#4 v=0
69973 Off ch=1 n=f#5 v=0
69973 On ch=1 n=b3 v=49
69973 On ch=1 n=g#4 v=49
70022 Par ch=1 c=64 v=127
70315 On ch=1 n=d#5 v=41
70549 Par ch=1 c=64 v=0
70656 Off ch=1 n=b3 v=0
70656 Off ch=1 n=g#4 v=0
70656 On ch=1 n=g#3 v=51
70656 On ch=1 n=d#4 v=51
70705 Par ch=1 c=64 v=0
70861 Par ch=1 c=64 v=127
70997 Off ch=1 n=g#3 v=0
70997 Off ch=1 n=d#4 v=0
70997 Off ch=1 n=d#5 v=0
70997 On ch=1 n=g#3 v=52
70997 On ch=1 n=d#4 v=52
71339 On ch=1 n=b4 v=60
71368 Par ch=1 c=64 v=127
71680 Par ch=1 c=64 v=127
71680 Off ch=1 n=g#3 v=0
71680 Off ch=1 n=d#4 v=0
71680 On ch=1 n=g#3 v=53
71680 On ch=1 n=d#4 v=53
71817 Par ch=1 c=64 v=0
72021 Off ch=1 n=g#3 v=0
72021 Off ch=1 n=d#4 v=0
72021 Off ch=1 n=b4 v=0
72021 On ch=1 n=g#3 v=51
72021 On ch=1 n=d#4 v=51
72363 On ch=1 n=b4 v=56
72704 Off ch=1 n=g#3 v=0
72704 Off ch=1 n=d#4 v=0
72704 On ch=1 n=f#3 v=47
72704 On ch=1 n=d#4 v=47
73045 Off ch=1 n=f#3 v=0
73045 Off ch=1 n=d#4 v=0
73045 Off ch=1 n=b4 v=0
73045 On ch=1 n=f#3 v=45
73045 On ch=1 n=d#4 v=45
73387 On ch=1 n=a#4 v=51
73728 Off ch=1 n=f#3 v=0
73728 Off ch=1 n=d#4 v=0
73728 On ch=1 n=f3 v=42
73728 On ch=1 n=d#4 v=42
74069 Off ch=1 n=f3 v=0
74069 Off ch=1 n=d#4 v=0
74069 Off ch=1 n=a#4 v=0
74069 On ch=1 n=f3 v=40
74069 On ch=1 n=d#4 v=40
74411 On ch=1 n=a4 v=45
74752 Off ch=1 n=f3 v=0
74752 Off ch=1 n=d#4 v=0
74752 Off ch=1 n=a4 v=0
74752 On ch=1 n=f#2 v=41
74752 On ch=1 n=f#3 v=53
74957 Par ch=1 c=64 v=127
75776 Par ch=1 c=64 v=127
75776 Par ch=1 c=64 v=0
75776 Par ch=1 c=64 v=0
75776 Par ch=1 c=64 v=0
75776 Par ch=1 c=64 v=0
75776 Par ch=1 c=64 v=0
75776 Par ch=1 c=64 v=0
75776 Par ch=1 c=64 v=0
75776 Par ch=1 c=64 v=0
75776 Par ch=1 c=64 v=0
75776 Off ch=1 n=f#2 v=0
75776 Off ch=1 n=f#3 v=0
75776 On ch=1 n=f#2 v=48
75776 On ch=1 n=f#3 v=60
75893 Par ch=1 c=64 v=0
76030 Par ch=1 c=64 v=127
76288 On ch=1 n=f2 v=44
76288 On ch=1 n=f3 v=56
76368 Off ch=1 n=f#2 v=0
76368 Off ch=1 n=f#3 v=0
76576 Par ch=1 c=64 v=0
76800 Off ch=1 n=f2 v=0
76800 Off ch=1 n=f3 v=0
76800 On ch=1 n=b2 v=50
76800 On ch=1 n=b3 v=62
76829 Par ch=1 c=64 v=0
76946 Par ch=1 c=64 v=127
77629 Par ch=1 c=64 v=0
77824 Off ch=1 n=b2 v=0
77824 Off ch=1 n=b3 v=0
77824 On ch=1 n=b2 v=39
77824 On ch=1 n=b3 v=51
77863 Par ch=1 c=64 v=0
77941 Par ch=1 c=64 v=0
78214 Par ch=1 c=64 v=127
78336 Off ch=1 n=b2 v=0
78336 Off ch=1 n=b3 v=0
78336 On ch=1 n=a#2 v=34
78336 On ch=1 n=a#3 v=46
78741 Par ch=1 c=64 v=0
78897 Par ch=1 c=64 v=0
79053 Par ch=1 c=64 v=127
79360 Off ch=1 n=a#2 v=0
79360 Off ch=1 n=a#3 v=0
79360 On ch=1 n=a#2 v=33
79360 On ch=1 n=a#3 v=45
79560 Par ch=1 c=64 v=127
79872 Par ch=1 c=64 v=127
79872 Par ch=1 c=64 v=0
79872 Par ch=1 c=64 v=0
79872 Par ch=1 c=64 v=0
79872 Par ch=1 c=64 v=0
79872 Par ch=1 c=64 v=0
79872 Par ch=1 c=64 v=0
79872 Par ch=1 c=64 v=0
79872 Par ch=1 c=64 v=0
79872 Par ch=1 c=64 v=0
79872 Off ch=1 n=a#2 v=0
79872 Off ch=1 n=a#3 v=0
79872 On ch=1 n=a#2 v=39
79872 On ch=1 n=a#3 v=51
79989 Par ch=1 c=64 v=0
80126 Par ch=1 c=64 v=127
80672 Par ch=1 c=64 v=0
80896 Off ch=1 n=a#2 v=0
80896 Off ch=1 n=a#3 v=0
80896 On ch=1 n=d#3 v=27
80896 On ch=1 n=a#3 v=39
80925 Par ch=1 c=64 v=0
81042 Par ch=1 c=64 v=127
81725 Par ch=1 c=64 v=0
81959 Par ch=1 c=64 v=0
82037 Par ch=1 c=64 v=0
82310 Par ch=1 c=64 v=127
82837 Par ch=1 c=64 v=0
82944 Off ch=1 n=d#3 v=0
82944 Off ch=1 n=a#3 v=0
82944 On ch=1 n=d#4 v=32
82944 On ch=1 n=a#4 v=39
82993 Par ch=1 c=64 v=0
83149 Par ch=1 c=64 v=127
83285 Off ch=1 n=d#4 v=0
83285 Off ch=1 n=a#4 v=0
83285 On ch=1 n=d#4 v=32
83285 On ch=1 n=a#4 v=39
83627 On ch=1 n=f#5 v=39
83792 Par ch=1 c=64 v=127
83968 Par ch=1 c=64 v=127
83968 Par ch=1 c=64 v=0
83968 Par ch=1 c=64 v=0
83968 Par ch=1 c=64 v=0
83968 Par ch=1 c=64 v=0
83968 Par ch=1 c=64 v=0
83968 Par ch=1 c=64 v=0
83968 Par ch=1 c=64 v=0
83968 Par ch=1 c=64 v=0
83968 Par ch=1 c=64 v=0
83968 Off ch=1 n=d#4 v=0
83968 Off ch=1 n=a#4 v=0
83968 Off ch=1 n=f#5 v=0
83968 On ch=1 n=d#5 v=42
83968 On ch=1 n=a#5 v=42
84085 Par ch=1 c=64 v=0
84222 Par ch=1 c=64 v=127
84309 Off ch=1 n=d#5 v=0
84309 Off ch=1 n=a#5 v=0
84309 On ch=1 n=d#5 v=43
84309 On ch=1 n=a#5 v=43
84651 On ch=1 n=d#6 v=46
84768 Par ch=1 c=64 v=0
84992 Off ch=1 n=d#5 v=0
84992 Off ch=1 n=a#5 v=0
84992 On ch=1 n=a#4 v=45
84992 On ch=1 n=d#5 v=45
85021 Par ch=1 c=64 v=0
85138 Par ch=1 c=64 v=127
85333 Off ch=1 n=a#4 v=0
85333 Off ch=1 n=d#5 v=0
85333 Off ch=1 n=d#6 v=0
85333 On ch=1 n=a#4 v=46
85333 On ch=1 n=d#5 v=46
85675 On ch=1 n=c#6 v=49
85821 Par ch=1 c=64 v=0
86016 Off ch=1 n=a#4 v=0
86016 Off ch=1 n=d#5 v=0
86016 On ch=1 n=f#4 v=48
86016 On ch=1 n=d#5 v=48
86055 Par ch=1 c=64 v=0
86133 Par ch=1 c=64 v=0
86357 Off ch=1 n=f#4 v=0
86357 Off ch=1 n=d#5 v=0
86357 Off ch=1 n=c#6 v=0
86357 On ch=1 n=f#4 v=49
86357 On ch=1 n=d#5 v=49
86406 Par ch=1 c=64 v=127
86699 On ch=1 n=a#5 v=36
86933 Par ch=1 c=64 v=0
87040 Off ch=1 n=f#4 v=0
87040 Off ch=1 n=d#5 v=0
87040 On ch=1 n=d#4 v=51
87040 On ch=1 n=a#4 v=51
87089 Par ch=1 c=64 v=0
87245 Par ch=1 c=64 v=127
87381 Off ch=1 n=d#4 v=0
87381 Off ch=1 n=a#4 v=0
87381 Off ch=1 n=a#5 v=0
87381 On ch=1 n=d#4 v=52
87381 On ch=1 n=a#4 v=52
87723 On ch=1 n=f#5 v=55
87752 Par ch=1 c=64 v=127
88064 Par ch=1 c=64 v=127
88064 Off ch=1 n=d#4 v=0
88064 Off ch=1 n=a#4 v=0
88064 On ch=1 n=d#4 v=49
88064 On ch=1 n=a#4 v=49
88220 Par ch=1 c=64 v=0
88405 Off ch=1 n=d#4 v=0
88405 Off ch=1 n=a#4 v=0
88405 Off ch=1 n=f#5 v=0
88405 On ch=1 n=d#4 v=51
88405 On ch=1 n=a#4 v=51
88747 On ch=1 n=f#5 v=56
89088 Off ch=1 n=d#4 v=0
89088 Off ch=1 n=a#4 v=0
89088 On ch=1 n=c#4 v=43
89088 On ch=1 n=a#4 v=43
89429 Off ch=1 n=c#4 v=0
89429 Off ch=1 n=a#4 v=0
89429 Off ch=1 n=f#5 v=0
89429 On ch=1 n=c#4 v=45
89429 On ch=1 n=a#4 v=45
89771 On ch=1 n=f5 v=51
90112 Off ch=1 n=c#4 v=0
90112 Off ch=1 n=a#4 v=0
90112 On ch=1 n=c4 v=38
90112 On ch=1 n=a#4 v=38
90453 Off ch=1 n=c4 v=0
90453 Off ch=1 n=a#4 v=0
90453 Off ch=1 n=f5 v=0
90453 On ch=1 n=c4 v=40
90453 On ch=1 n=a#4 v=40
90795 On ch=1 n=e5 v=45
91136 Off ch=1 n=c4 v=0
91136 Off ch=1 n=a#4 v=0
91136 Off ch=1 n=e5 v=0
91136 On ch=1 n=c#3 v=41
91136 On ch=1 n=c#4 v=53
91341 Par ch=1 c=64 v=127
92160 Par ch=1 c=64 v=127
92160 Par ch=1 c=64 v=0
92160 Par ch=1 c=64 v=0
92160 Par ch=1 c=64 v=0
92160 Par ch=1 c=64 v=0
92160 Par ch=1 c=64 v=0
92160 Par ch=1 c=64 v=0
92160 Par ch=1 c=64 v=0
92160 Par ch=1 c=64 v=0
92160 Par ch=1 c=64 v=0
92160 Par ch=1 c=64 v=0
92160 Off ch=1 n=c#3 v=0
92160 Off ch=1 n=c#4 v=0
92160 On ch=1 n=c#3 v=43
92160 On ch=1 n=c#4 v=55
92277 Par ch=1 c=64 v=0
92414 Par ch=1 c=64 v=127
92672 Off ch=1 n=c#3 v=0
92672 Off ch=1 n=c#4 v=0
92672 On ch=1 n=c3 v=46
92672 On ch=1 n=c4 v=58
92960 Par ch=1 c=64 v=0
93184 Off ch=1 n=c3 v=0
93184 Off ch=1 n=c4 v=0
93184 On ch=1 n=f#3 v=51
93184 On ch=1 n=f#4 v=63
93213 Par ch=1 c=64 v=0
93330 Par ch=1 c=64 v=127
94013 Par ch=1 c=64 v=0
94208 Off ch=1 n=f#3 v=0
94208 Off ch=1 n=f#4 v=0
94208 On ch=1 n=f#3 v=39
94208 On ch=1 n=f#4 v=51
94247 Par ch=1 c=64 v=0
94325 Par ch=1 c=64 v=0
94598 Par ch=1 c=64 v=127
94720 Off ch=1 n=f#3 v=0
94720 Off ch=1 n=f#4 v=0
94720 On ch=1 n=f3 v=34
94720 On ch=1 n=f4 v=46
95125 Par ch=1 c=64 v=0
95281 Par ch=1 c=64 v=0
95437 Par ch=1 c=64 v=127
95744 Off ch=1 n=f3 v=0
95744 Off ch=1 n=f4 v=0
95744 On ch=1 n=f3 v=33
95744 On ch=1 n=f4 v=45
95963 Par ch=1 c=64 v=127
96256 Par ch=1 c=64 v=127
96256 Par ch=1 c=64 v=0
96256 Par ch=1 c=64 v=0
96256 Par ch=1 c=64 v=0
96256 Par ch=1 c=64 v=0
96256 Par ch=1 c=64 v=0
96256 Par ch=1 c=64 v=0
96256 Par ch=1 c=64 v=0
96256 Par ch=1 c=64 v=0
96256 Par ch=1 c=64 v=0
96256 Par ch=1 c=64 v=0
96256 Off ch=1 n=f3 v=0
96256 Off ch=1 n=f4 v=0
96256 On ch=1 n=f3 v=39
96256 On ch=1 n=f4 v=51
96373 Par ch=1 c=64 v=0
96510 Par ch=1 c=64 v=127
97056 Par ch=1 c=64 v=0
97280 Off ch=1 n=f3 v=0
97280 Off ch=1 n=f4 v=0
97280 On ch=1 n=a#3 v=27
97280 On ch=1 n=f4 v=39
97309 Par ch=1 c=64 v=0
97426 Par ch=1 c=64 v=127
98109 Par ch=1 c=64 v=0
98343 Par ch=1 c=64 v=0
98421 Par ch=1 c=64 v=0
98694 Par ch=1 c=64 v=127
99221 Par ch=1 c=64 v=0
99328 Off ch=1 n=a#3 v=0
99328 Off ch=1 n=f4 v=0
99328 On ch=1 n=f#3 v=49
99328 On ch=1 n=c#4 v=61
99377 Par ch=1 c=64 v=0
99533 Par ch=1 c=64 v=127
99669 Off ch=1 n=f#3 v=0
99669 Off ch=1 n=c#4 v=0
99669 On ch=1 n=f#3 v=49
99669 On ch=1 n=c#4 v=61
100011 On ch=1 n=f#4 v=61
100059 Par ch=1 c=64 v=127
100352 Par ch=1 c=64 v=127
100352 Par ch=1 c=64 v=0
100352 Par ch=1 c=64 v=0
100352 Par ch=1 c=64 v=0
100352 Par ch=1 c=64 v=0
100352 Par ch=1 c=64 v=0
100352 Par ch=1 c=64 v=0
100352 Par ch=1 c=64 v=0
100352 Par ch=1 c=64 v=0
100352 Par ch=1 c=64 v=0
100352 Par ch=1 c=64 v=0
100352 Par ch=1 c=64 v=0
100352 Off ch=1 n=f#3 v=0
100352 Off ch=1 n=c#4 v=0
100352 Off ch=1 n=f#4 v=0
100352 On ch=1 n=f#3 v=49
100352 On ch=1 n=c#4 v=61
100469 Par ch=1 c=64 v=0
100606 Par ch=1 c=64 v=127
100693 Off ch=1 n=f#3 v=0
100693 Off ch=1 n=c#4 v=0
100693 On ch=1 n=f#3 v=49
100693 On ch=1 n=c#4 v=61
100937 Par ch=1 c=64 v=127
101035 On ch=1 n=f#4 v=56
101376 Off ch=1 n=f#3 v=0
101376 Off ch=1 n=c#4 v=0
101376 Off ch=1 n=f#4 v=0
101376 On ch=1 n=c#4 v=43
101376 On ch=1 n=f#4 v=55
101717 Off ch=1 n=c#4 v=0
101717 Off ch=1 n=f#4 v=0
101717 On ch=1 n=c#4 v=43
101717 On ch=1 n=f#4 v=55
102059 On ch=1 n=c#5 v=50
102185 Par ch=1 c=64 v=127
102400 Off ch=1 n=c#4 v=0
102400 Off ch=1 n=f#4 v=0
102400 Off ch=1 n=c#5 v=0
102400 On ch=1 n=f#4 v=49
102400 On ch=1 n=c#5 v=61
102439 Par ch=1 c=64 v=0
102478 Par ch=1 c=64 v=0
102615 Par ch=1 c=64 v=127
102741 Off ch=1 n=f#4 v=0
102741 Off ch=1 n=c#5 v=0
102741 On ch=1 n=f#4 v=49
102741 On ch=1 n=c#5 v=61
103083 On ch=1 n=f#5 v=56
103219 Par ch=1 c=64 v=127
103424 Off ch=1 n=f#4 v=0
103424 Off ch=1 n=c#5 v=0
103424 Off ch=1 n=f#5 v=0
103424 On ch=1 n=c#4 v=43
103424 On ch=1 n=f#4 v=55
103765 Off ch=1 n=c#4 v=0
103765 Off ch=1 n=f#4 v=0
103765 On ch=1 n=c#4 v=43
103765 On ch=1 n=f#4 v=55
104107 On ch=1 n=c#5 v=50
104155 Par ch=1 c=64 v=127
104448 Par ch=1 c=64 v=127
104448 Par ch=1 c=64 v=0
104448 Par ch=1 c=64 v=0
104448 Par ch=1 c=64 v=0
104448 Par ch=1 c=64 v=0
104448 Par ch=1 c=64 v=0
104448 Par ch=1 c=64 v=0
104448 Par ch=1 c=64 v=0
104448 Par ch=1 c=64 v=0
104448 Par ch=1 c=64 v=0
104448 Par ch=1 c=64 v=0
104448 Par ch=1 c=64 v=0
104448 Off ch=1 n=c#4 v=0
104448 Off ch=1 n=f#4 v=0
104448 Off ch=1 n=c#5 v=0
104448 On ch=1 n=f#3 v=47
104448 On ch=1 n=c#4 v=59
104565 Par ch=1 c=64 v=0
104702 Par ch=1 c=64 v=127
104789 Off ch=1 n=f#3 v=0
104789 Off ch=1 n=c#4 v=0
104789 On ch=1 n=f#3 v=46
104789 On ch=1 n=c#4 v=58
105131 On ch=1 n=g#4 v=51
105150 Par ch=1 c=64 v=127
105472 Off ch=1 n=f#3 v=0
105472 Off ch=1 n=c#4 v=0
105472 Off ch=1 n=g#4 v=0
105472 On ch=1 n=c#4 v=45
105472 On ch=1 n=g#4 v=56
105813 Off ch=1 n=c#4 v=0
105813 Off ch=1 n=g#4 v=0
105813 On ch=1 n=c#4 v=44
105813 On ch=1 n=g#4 v=54
106145 Par ch=1 c=64 v=127
106155 On ch=1 n=c#5 v=48
106496 Off ch=1 n=c#4 v=0
106496 Off ch=1 n=g#4 v=0
106496 Off ch=1 n=c#5 v=0
106496 On ch=1 n=g#4 v=42
106496 On ch=1 n=c#5 v=52
106837 Off ch=1 n=g#4 v=0
106837 Off ch=1 n=c#5 v=0
106837 On ch=1 n=g#4 v=41
106837 On ch=1 n=c#5 v=51
107179 On ch=1 n=f5 v=37
107413 Par ch=1 c=64 v=0
107520 Off ch=1 n=g#4 v=0
107520 Off ch=1 n=c#5 v=0
107520 Off ch=1 n=f5 v=0
107520 On ch=1 n=f#3 v=30
107520 On ch=1 n=b3 v=42
107569 Par ch=1 c=64 v=0
107725 Par ch=1 c=64 v=127
107861 Off ch=1 n=f#3 v=0
107861 Off ch=1 n=b3 v=0
107861 On ch=1 n=f#3 v=30
107861 On ch=1 n=b3 v=42
108203 On ch=1 n=f#4 v=42
108251 Par ch=1 c=64 v=127
108544 Par ch=1 c=64 v=127
108544 Par ch=1 c=64 v=0
108544 Par ch=1 c=64 v=0
108544 Par ch=1 c=64 v=0
108544 Par ch=1 c=64 v=0
108544 Par ch=1 c=64 v=0
108544 Par ch=1 c=64 v=0
108544 Par ch=1 c=64 v=0
108544 Par ch=1 c=64 v=0
108544 Par ch=1 c=64 v=0
108544 Par ch=1 c=64 v=0
108544 Par ch=1 c=64 v=0
108544 Par ch=1 c=64 v=0
108544 Off ch=1 n=f#3 v=0
108544 Off ch=1 n=b3 v=0
108544 Off ch=1 n=f#4 v=0
108544 On ch=1 n=f#3 v=25
108544 On ch=1 n=b3 v=37
108661 Par ch=1 c=64 v=0
108798 Par ch=1 c=64 v=127
108885 Off ch=1 n=f#3 v=0
108885 Off ch=1 n=b3 v=0
108885 On ch=1 n=f#3 v=25
108885 On ch=1 n=b3 v=37
109129 Par ch=1 c=64 v=127
109227 On ch=1 n=f#4 v=37
109568 Off ch=1 n=f#3 v=0
109568 Off ch=1 n=b3 v=0
109568 Off ch=1 n=f#4 v=0
109568 On ch=1 n=b3 v=25
109568 On ch=1 n=f#4 v=37
109909 Off ch=1 n=b3 v=0
109909 Off ch=1 n=f#4 v=0
109909 On ch=1 n=b3 v=25
109909 On ch=1 n=f#4 v=37
110251 On ch=1 n=b4 v=37
110260 Par ch=1 c=64 v=127
110592 Off ch=1 n=b3 v=0
110592 Off ch=1 n=f#4 v=0
110592 Off ch=1 n=b4 v=0
110592 On ch=1 n=f#4 v=25
110592 On ch=1 n=b4 v=37
110631 Par ch=1 c=64 v=0
110709 Par ch=1 c=64 v=127
110709 Par ch=1 c=64 v=0
110933 Off ch=1 n=f#4 v=0
110933 Off ch=1 n=b4 v=0
110933 On ch=1 n=f#4 v=25
110933 On ch=1 n=b4 v=37
111275 On ch=1 n=f#5 v=10
111411 Par ch=1 c=64 v=127
111616 Off ch=1 n=f#4 v=0
111616 Off ch=1 n=b4 v=0
111616 Off ch=1 n=f#5 v=0
111616 On ch=1 n=b3 v=25
111616 On ch=1 n=f#4 v=37
111957 Off ch=1 n=b3 v=0
111957 Off ch=1 n=f#4 v=0
111957 On ch=1 n=b3 v=25
111957 On ch=1 n=f#4 v=37
112299 On ch=1 n=b4 v=37
112347 Par ch=1 c=64 v=127
112640 Par ch=1 c=64 v=127
112640 Par ch=1 c=64 v=0
112640 Par ch=1 c=64 v=0
112640 Par ch=1 c=64 v=0
112640 Par ch=1 c=64 v=0
112640 Par ch=1 c=64 v=0
112640 Par ch=1 c=64 v=0
112640 Par ch=1 c=64 v=0
112640 Par ch=1 c=64 v=0
112640 Par ch=1 c=64 v=0
112640 Par ch=1 c=64 v=0
112640 Par ch=1 c=64 v=0
112640 Par ch=1 c=64 v=0
112640 Off ch=1 n=b3 v=0
112640 Off ch=1 n=f#4 v=0
112640 Off ch=1 n=b4 v=0
112640 On ch=1 n=f#3 v=21
112640 On ch=1 n=c#4 v=33
112757 Par ch=1 c=64 v=0
112894 Par ch=1 c=64 v=127
112981 Off ch=1 n=f#3 v=0
112981 Off ch=1 n=c#4 v=0
112981 On ch=1 n=f#3 v=25
112981 On ch=1 n=c#4 v=36
113323 Par ch=1 c=64 v=127
113323 On ch=1 n=f#4 v=36
113664 Off ch=1 n=f#3 v=0
113664 Off ch=1 n=c#4 v=0
113664 Off ch=1 n=f#4 v=0
113664 On ch=1 n=c#4 v=17
113664 On ch=1 n=f#4 v=28
114005 Off ch=1 n=c#4 v=0
114005 Off ch=1 n=f#4 v=0
114005 On ch=1 n=c#4 v=23
114005 On ch=1 n=f#4 v=34
114347 On ch=1 n=c#5 v=34
114688 Off ch=1 n=c#4 v=0
114688 Off ch=1 n=f#4 v=0
114688 Off ch=1 n=c#5 v=0
114688 On ch=1 n=c#4 v=18
114688 On ch=1 n=f#4 v=29
115029 Off ch=1 n=c#4 v=0
115029 Off ch=1 n=f#4 v=0
115029 On ch=1 n=c#4 v=22
115029 On ch=1 n=f#4 v=32
115371 On ch=1 n=c#5 v=31
115605 Par ch=1 c=64 v=0
115712 Off ch=1 n=c#4 v=0
115712 Off ch=1 n=f#4 v=0
115712 Off ch=1 n=c#5 v=0
115712 On ch=1 n=f#3 v=23
115712 On ch=1 n=c#4 v=35
115761 Par ch=1 c=64 v=0
115917 Par ch=1 c=64 v=127
116053 Off ch=1 n=f#3 v=0
116053 Off ch=1 n=c#4 v=0
116053 On ch=1 n=f#3 v=27
116053 On ch=1 n=c#4 v=39
116395 On ch=1 n=f#4 v=39
116443 Par ch=1 c=64 v=127
116736 Par ch=1 c=64 v=127
116736 Par ch=1 c=64 v=0
116736 Par ch=1 c=64 v=0
116736 Par ch=1 c=64 v=0
116736 Par ch=1 c=64 v=0
116736 Par ch=1 c=64 v=0
116736 Par ch=1 c=64 v=0
116736 Par ch=1 c=64 v=0
116736 Par ch=1 c=64 v=0
116736 Par ch=1 c=64 v=0
116736 Par ch=1 c=64 v=0
116736 Par ch=1 c=64 v=0
116736 Par ch=1 c=64 v=0
116736 Par ch=1 c=64 v=0
116736 Off ch=1 n=f#3 v=0
116736 Off ch=1 n=c#4 v=0
116736 Off ch=1 n=f#4 v=0
116736 On ch=1 n=f#3 v=21
116736 On ch=1 n=c#4 v=33
116853 Par ch=1 c=64 v=0
116990 Par ch=1 c=64 v=127
117077 Off ch=1 n=f#3 v=0
117077 Off ch=1 n=c#4 v=0
117077 On ch=1 n=f#3 v=25
117077 On ch=1 n=c#4 v=36
117419 On ch=1 n=f#4 v=36
117458 Par ch=1 c=64 v=127
117760 Off ch=1 n=f#3 v=0
117760 Off ch=1 n=c#4 v=0
117760 Off ch=1 n=f#4 v=0
117760 On ch=1 n=c#4 v=17
117760 On ch=1 n=f#4 v=28
118101 Off ch=1 n=c#4 v=0
118101 Off ch=1 n=f#4 v=0
118101 On ch=1 n=c#4 v=23
118101 On ch=1 n=f#4 v=34
118443 On ch=1 n=c#5 v=34
118784 Off ch=1 n=c#4 v=0
118784 Off ch=1 n=f#4 v=0
118784 Off ch=1 n=c#5 v=0
118784 On ch=1 n=c#4 v=18
118784 On ch=1 n=f#4 v=29
119125 Off ch=1 n=c#4 v=0
119125 Off ch=1 n=f#4 v=0
119125 On ch=1 n=c#4 v=22
119125 On ch=1 n=f#4 v=32
119467 On ch=1 n=c#5 v=31
119701 Par ch=1 c=64 v=0
119808 Off ch=1 n=c#4 v=0
119808 Off ch=1 n=f#4 v=0
119808 Off ch=1 n=c#5 v=0
119808 On ch=1 n=g3 v=40
119808 On ch=1 n=c#4 v=35
119857 Par ch=1 c=64 v=0
120013 Par ch=1 c=64 v=127
120149 Off ch=1 n=g3 v=0
120149 Off ch=1 n=c#4 v=0
120149 On ch=1 n=g3 v=27
120149 On ch=1 n=c#4 v=39
120491 On ch=1 n=a#4 v=39
120539 Par ch=1 c=64 v=127
120832 Par ch=1 c=64 v=127
120832 Par ch=1 c=64 v=0
120832 Par ch=1 c=64 v=0
120832 Par ch=1 c=64 v=0
120832 Par ch=1 c=64 v=0
120832 Par ch=1 c=64 v=0
120832 Par ch=1 c=64 v=0
120832 Par ch=1 c=64 v=0
120832 Par ch=1 c=64 v=0
120832 Par ch=1 c=64 v=0
120832 Par ch=1 c=64 v=0
120832 Par ch=1 c=64 v=0
120832 Par ch=1 c=64 v=0
120832 Par ch=1 c=64 v=0
120832 Par ch=1 c=64 v=127
120832 Par ch=1 c=64 v=0
120832 Par ch=1 c=64 v=0
120832 Par ch=1 c=64 v=0
120832 Par ch=1 c=64 v=0
120832 Par ch=1 c=64 v=0
120832 Par ch=1 c=64 v=0
120832 Par ch=1 c=64 v=0
120832 Par ch=1 c=64 v=0
120832 Par ch=1 c=64 v=0
120832 Par ch=1 c=64 v=0
120832 Par ch=1 c=64 v=0
120832 Par ch=1 c=64 v=0
120832 Par ch=1 c=64 v=0
120832 Off ch=1 n=g3 v=0
120832 Off ch=1 n=c#4 v=0
120832 Off ch=1 n=a#4 v=0
120832 On ch=1 n=g3 v=41
120832 On ch=1 n=c#4 v=54
120949 Par ch=1 c=64 v=0
120949 Par ch=1 c=64 v=0
121086 Par ch=1 c=64 v=127
121086 Par ch=1 c=64 v=127
121173 Off ch=1 n=g3 v=0
121173 Off ch=1 n=c#4 v=0
121173 On ch=1 n=g3 v=42
121173 On ch=1 n=c#4 v=54
121515 On ch=1 n=a#4 v=55
121554 Par ch=1 c=64 v=127
121632 Par ch=1 c=64 v=0
121856 Off ch=1 n=g3 v=0
121856 Off ch=1 n=c#4 v=0
121856 Off ch=1 n=a#4 v=0
121856 On ch=1 n=f4 v=42
121856 On ch=1 n=a#4 v=55
121885 Par ch=1 c=64 v=0
122002 Par ch=1 c=64 v=127
122197 Off ch=1 n=f4 v=0
122197 Off ch=1 n=a#4 v=0
122197 On ch=1 n=f4 v=43
122197 On ch=1 n=a#4 v=56
122539 On ch=1 n=f5 v=56
122685 Par ch=1 c=64 v=0
122880 Off ch=1 n=f4 v=0
122880 Off ch=1 n=a#4 v=0
122880 Off ch=1 n=f5 v=0
122880 On ch=1 n=f4 v=43
122880 On ch=1 n=a#4 v=57
122919 Par ch=1 c=64 v=0
122997 Par ch=1 c=64 v=0
123221 Off ch=1 n=f4 v=0
123221 Off ch=1 n=a#4 v=0
123221 On ch=1 n=f4 v=44
123221 On ch=1 n=a#4 v=57
123270 Par ch=1 c=64 v=127
123563 On ch=1 n=f5 v=58
123797 Par ch=1 c=64 v=0
123797 Par ch=1 c=64 v=0
123904 Off ch=1 n=f4 v=0
123904 Off ch=1 n=a#4 v=0
123904 Off ch=1 n=f5 v=0
123904 On ch=1 n=g3 v=47
123904 On ch=1 n=c#4 v=60
123953 Par ch=1 c=64 v=0
123953 Par ch=1 c=64 v=0
124109 Par ch=1 c=64 v=127
124109 Par ch=1 c=64 v=127
124245 Off ch=1 n=g3 v=0
124245 Off ch=1 n=c#4 v=0
124245 On ch=1 n=g3 v=47
124245 On ch=1 n=c#4 v=61
124587 On ch=1 n=a#4 v=61
124635 Par ch=1 c=64 v=127
124928 Par ch=1 c=64 v=127
124928 Off ch=1 n=g3 v=0
124928 Off ch=1 n=c#4 v=0
124928 Off ch=1 n=a#4 v=0
124928 On ch=1 n=g#3 v=54
124928 On ch=1 n=c#5 v=66
125042 Par ch=1 c=64 v=0
125212 Par ch=1 c=64 v=127
125440 Off ch=1 n=c#5 v=0
125440 On ch=1 n=d#4 v=66
125952 Off ch=1 n=d#4 v=0
125952 On ch=1 n=g#4 v=66
126976 Par ch=1 c=64 v=0
126976 Off ch=1 n=g#3 v=0
126976 Off ch=1 n=g#4 v=0
126976 On ch=1 n=a#4 v=66
126976 On ch=1 n=g#3 v=54
127223 Par ch=1 c=64 v=127
127488 Off ch=1 n=a#4 v=0
127488 On ch=1 n=d#4 v=66
128000 Off ch=1 n=d#4 v=0
128000 On ch=1 n=g#4 v=66
129024 Par ch=1 c=64 v=127
129024 Off ch=1 n=g#4 v=0
129024 Off ch=1 n=g#3 v=0
129024 On ch=1 n=g#3 v=54
129024 On ch=1 n=f#4 v=66
129138 Par ch=1 c=64 v=0
129308 Par ch=1 c=64 v=127
130058 Par ch=1 c=64 v=0
130233 Par ch=1 c=64 v=127
131072 Par ch=1 c=64 v=0
131267 Par ch=1 c=64 v=127
131846 On ch=1 n=g#3 v=54
132096 Off ch=1 n=g#3 v=0
132096 Off ch=1 n=f#4 v=0
132096 On ch=1 n=c5 v=66
132106 Par ch=1 c=64 v=0
132301 Par ch=1 c=64 v=127
133120 Par ch=1 c=64 v=127
133120 Off ch=1 n=g#3 v=0
133120 Off ch=1 n=c5 v=0
133120 On ch=1 n=c#4 v=36
133120 On ch=1 n=b4 v=60
133237 Par ch=1 c=64 v=0
133374 Par ch=1 c=64 v=127
133894 On ch=1 n=f#3 v=36
133920 Par ch=1 c=64 v=0
134144 Off ch=1 n=c#4 v=0
134144 Off ch=1 n=b4 v=0
134144 On ch=1 n=a#4 v=55
134173 Par ch=1 c=64 v=0
134290 Par ch=1 c=64 v=127
134973 Par ch=1 c=64 v=0
135168 Off ch=1 n=f#3 v=0
135168 Off ch=1 n=a#4 v=0
135168 On ch=1 n=g#3 v=36
135168 On ch=1 n=g#4 v=49
135207 Par ch=1 c=64 v=0
135324 Par ch=1 c=64 v=127
136085 Par ch=1 c=64 v=0
136192 Off ch=1 n=g#3 v=0
136192 Off ch=1 n=g#4 v=0
136192 On ch=1 n=c#4 v=36
136192 On ch=1 n=g#4 v=44
136241 Par ch=1 c=64 v=0
136397 Par ch=1 c=64 v=127
136923 Par ch=1 c=64 v=127
137216 Par ch=1 c=64 v=127
137216 Par ch=1 c=64 v=0
137216 Off ch=1 n=c#4 v=0
137216 Off ch=1 n=g#4 v=0
137216 On ch=1 n=d#4 v=39
137216 On ch=1 n=c#5 v=61
137333 Par ch=1 c=64 v=0
137470 Par ch=1 c=64 v=127
137728 Off ch=1 n=c#5 v=0
137728 On ch=1 n=c5 v=58
138016 Par ch=1 c=64 v=0
138240 Off ch=1 n=c5 v=0
138240 On ch=1 n=c5 v=55
138269 Par ch=1 c=64 v=0
138386 Par ch=1 c=64 v=127
138752 Off ch=1 n=c5 v=0
138752 On ch=1 n=a#4 v=53
139069 Par ch=1 c=64 v=0
139264 Off ch=1 n=d#4 v=0
139264 Off ch=1 n=a#4 v=0
139264 On ch=1 n=g#4 v=56
139303 Par ch=1 c=64 v=0
139420 Par ch=1 c=64 v=127
140038 On ch=1 n=g#3 v=39
140181 Par ch=1 c=64 v=0
140288 Off ch=1 n=g#4 v=0
140288 On ch=1 n=c5 v=56
140337 Par ch=1 c=64 v=0
140493 Par ch=1 c=64 v=127
141019 Par ch=1 c=64 v=127
141312 Par ch=1 c=64 v=127
141312 Par ch=1 c=64 v=0
141312 Off ch=1 n=g#3 v=0
141312 Off ch=1 n=c5 v=0
141312 On ch=1 n=c#4 v=36
141312 On ch=1 n=b4 v=48
141429 Par ch=1 c=64 v=0
141566 Par ch=1 c=64 v=127
142086 On ch=1 n=f#3 v=36
142112 Par ch=1 c=64 v=0
142336 Off ch=1 n=c#4 v=0
142336 Off ch=1 n=b4 v=0
142336 On ch=1 n=a#4 v=48
142365 Par ch=1 c=64 v=0
142482 Par ch=1 c=64 v=127
143165 Par ch=1 c=64 v=0
143360 Off ch=1 n=f#3 v=0
143360 Off ch=1 n=a#4 v=0
143360 On ch=1 n=b3 v=36
143360 On ch=1 n=a4 v=48
143399 Par ch=1 c=64 v=0
143516 Par ch=1 c=64 v=127
144134 On ch=1 n=e3 v=36
144277 Par ch=1 c=64 v=0
144384 Off ch=1 n=b3 v=0
144384 Off ch=1 n=a4 v=0
144384 On ch=1 n=g#4 v=48
144433 Par ch=1 c=64 v=0
144589 Par ch=1 c=64 v=127
145221 Par ch=1 c=64 v=127
145408 Par ch=1 c=64 v=127
145408 Par ch=1 c=64 v=0
145408 Par ch=1 c=64 v=0
145408 Off ch=1 n=e3 v=0
145408 Off ch=1 n=g#4 v=0
145408 On ch=1 n=a3 v=36
145408 On ch=1 n=a4 v=48
145525 Par ch=1 c=64 v=0
145662 Par ch=1 c=64 v=127
146208 Par ch=1 c=64 v=0
146432 Off ch=1 n=a3 v=0
146432 Off ch=1 n=a4 v=0
146432 On ch=1 n=a3 v=39
146432 On ch=1 n=e4 v=55
146461 Par ch=1 c=64 v=0
146578 Par ch=1 c=64 v=127
146944 Off ch=1 n=e4 v=0
146944 On ch=1 n=e4 v=51
147261 Par ch=1 c=64 v=0
147456 Off ch=1 n=a3 v=0
147456 Off ch=1 n=e4 v=0
147456 On ch=1 n=a#3 v=36
147456 On ch=1 n=d#4 v=51
147495 Par ch=1 c=64 v=0
147573 Par ch=1 c=64 v=0
147846 Par ch=1 c=64 v=127
148373 Par ch=1 c=64 v=0
148480 Off ch=1 n=a#3 v=0
148480 Off ch=1 n=d#4 v=0
148480 On ch=1 n=c3 v=45
148480 On ch=1 n=c4 v=57
148529 Par ch=1 c=64 v=0
148685 Par ch=1 c=64 v=127
148992 On ch=1 n=f#4 v=55
149055 Par ch=1 c=64 v=127
149504 Par ch=1 c=64 v=127
149504 Par ch=1 c=64 v=0
149504 Par ch=1 c=64 v=0
149504 Par ch=1 c=64 v=0
149504 Off ch=1 n=c3 v=0
149504 Off ch=1 n=c4 v=0
149504 Off ch=1 n=f#4 v=0
149504 On ch=1 n=c#3 v=48
149504 On ch=1 n=c#4 v=60
149660 Par ch=1 c=64 v=0
149855 Par ch=1 c=64 v=127
150016 On ch=1 n=f#4 v=53
150528 Off ch=1 n=f#4 v=0
150528 On ch=1 n=f#4 v=53
150528 On ch=1 n=a#4 v=53
150528 On ch=1 n=f#5 v=59
152566 Par ch=1 c=64 v=0
152576 Off ch=1 n=c#3 v=0
152576 Off ch=1 n=c#4 v=0
152576 Off ch=1 n=f#4 v=0
152576 Off ch=1 n=a#4 v=0
152576 Off ch=1 n=f#5 v=0
152576 On ch=1 n=d#3 v=44
152576 On ch=1 n=d#4 v=56
152820 Par ch=1 c=64 v=127
153088 On ch=1 n=g#4 v=57
153600 Par ch=1 c=64 v=127
153600 Par ch=1 c=64 v=0
153600 Par ch=1 c=64 v=0
153600 Par ch=1 c=64 v=0
153600 Par ch=1 c=64 v=0
153600 Off ch=1 n=g#4 v=0
153600 Off ch=1 n=d#3 v=0
153600 Off ch=1 n=d#4 v=0
153600 On ch=1 n=f3 v=57
153600 On ch=1 n=f4 v=69
153756 Par ch=1 c=64 v=0
153951 Par ch=1 c=64 v=127
154112 On ch=1 n=c#5 v=62
154624 Off ch=1 n=c#5 v=0
154624 On ch=1 n=c#5 v=62
154624 On ch=1 n=b5 v=68
156662 Par ch=1 c=64 v=0
156672 Off ch=1 n=f3 v=0
156672 Off ch=1 n=f4 v=0
156672 Off ch=1 n=c#5 v=0
156672 Off ch=1 n=b5 v=0
156672 On ch=1 n=f#3 v=53
156672 On ch=1 n=f#4 v=65
156916 Par ch=1 c=64 v=127
157184 On ch=1 n=c#5 v=75
157696 Par ch=1 c=64 v=127
157696 Off ch=1 n=c#5 v=0
157696 Off ch=1 n=f#3 v=0
157696 Off ch=1 n=f#4 v=0
157696 On ch=1 n=f#3 v=54
157696 On ch=1 n=f#4 v=66
157794 Par ch=1 c=64 v=0
157950 Par ch=1 c=64 v=127
158208 On ch=1 n=e5 v=54
158720 On ch=1 n=a#4 v=42
158720 On ch=1 n=a#5 v=54
159232 Off ch=1 n=f#3 v=0
159232 Off ch=1 n=f#4 v=0
159232 Off ch=1 n=a#4 v=0
159232 Off ch=1 n=e5 v=0
159232 Off ch=1 n=a#5 v=0
159232 On ch=1 n=c4 v=54
159232 On ch=1 n=c5 v=66
159256 Par ch=1 c=64 v=0
159393 Par ch=1 c=64 v=127
159744 Par ch=1 c=64 v=0
159744 Off ch=1 n=c4 v=0
159744 Off ch=1 n=c5 v=0
159744 On ch=1 n=f3 v=54
159744 On ch=1 n=f4 v=66
159900 Par ch=1 c=64 v=127
160256 On ch=1 n=d#5 v=54
160768 On ch=1 n=b4 v=42
160768 On ch=1 n=b5 v=54
161280 Off ch=1 n=b4 v=0
161280 Off ch=1 n=d#5 v=0
161280 Off ch=1 n=b5 v=0
161280 Off ch=1 n=f3 v=0
161280 Off ch=1 n=f4 v=0
161280 On ch=1 n=f3 v=54
161280 On ch=1 n=f4 v=66
161304 Par ch=1 c=64 v=0
161441 Par ch=1 c=64 v=127
161792 Par ch=1 c=64 v=127
161792 Par ch=1 c=64 v=0
161792 Off ch=1 n=f3 v=0
161792 Off ch=1 n=f4 v=0
161792 On ch=1 n=a#3 v=54
161792 On ch=1 n=a#4 v=66
161890 Par ch=1 c=64 v=0
162046 Par ch=1 c=64 v=127
162304 On ch=1 n=f5 v=54
162816 On ch=1 n=a#4 v=42
162816 On ch=1 n=a#5 v=54
163328 Off ch=1 n=a#3 v=0
163328 Off ch=1 n=a#4 v=0
163328 Off ch=1 n=a#4 v=0
163328 Off ch=1 n=f5 v=0
163328 Off ch=1 n=a#5 v=0
163328 On ch=1 n=a#3 v=54
163328 On ch=1 n=a#4 v=66
163352 Par ch=1 c=64 v=0
163489 Par ch=1 c=64 v=127
163840 Par ch=1 c=64 v=0
163840 Off ch=1 n=a#3 v=0
163840 Off ch=1 n=a#4 v=0
163840 On ch=1 n=d#3 v=54
163840 On ch=1 n=d#4 v=66
163996 Par ch=1 c=64 v=127
164352 On ch=1 n=d#4 v=42
164352 On ch=1 n=a#4 v=42
164352 On ch=1 n=d#5 v=54
164864 Off ch=1 n=d#4 v=0
164864 Off ch=1 n=a#4 v=0
164864 Off ch=1 n=d#5 v=0
164864 Off ch=1 n=d#3 v=0
164864 Off ch=1 n=d#4 v=0
164864 On ch=1 n=f#3 v=54
164864 On ch=1 n=f#4 v=66
165376 On ch=1 n=d#4 v=42
165376 On ch=1 n=a#4 v=42
165376 On ch=1 n=d#5 v=54
165400 Par ch=1 c=64 v=0
165537 Par ch=1 c=64 v=127
165888 Par ch=1 c=64 v=127
165888 Off ch=1 n=d#4 v=0
165888 Off ch=1 n=a#4 v=0
165888 Off ch=1 n=d#5 v=0
165888 Off ch=1 n=f#3 v=0
165888 Off ch=1 n=f#4 v=0
165888 On ch=1 n=g#3 v=64
165888 On ch=1 n=g#4 v=52
166021 Par ch=1 c=64 v=0
166153 Par ch=1 c=64 v=127
166400 Off ch=1 n=g#4 v=0
166400 On ch=1 n=g#4 v=53
166912 Off ch=1 n=g#4 v=0
166912 On ch=1 n=f4 v=54
166912 On ch=1 n=c#5 v=54
166912 On ch=1 n=f5 v=66
167424 Off ch=1 n=f4 v=0
167424 Off ch=1 n=c#5 v=0
167424 Off ch=1 n=f5 v=0
167424 On ch=1 n=f4 v=55
167917 Par ch=1 c=64 v=0
167936 Off ch=1 n=g#3 v=0
167936 Off ch=1 n=f4 v=0
167936 On ch=1 n=g#4 v=56
167936 On ch=1 n=g#3 v=68
168126 Par ch=1 c=64 v=127
168448 Off ch=1 n=g#4 v=0
168448 On ch=1 n=a4 v=57
168585 On ch=1 n=e4 v=58
168835 On ch=1 n=c#5 v=58
168960 On ch=1 n=g5 v=70
169472 Off ch=1 n=e4 v=0
169472 Off ch=1 n=a4 v=0
169472 Off ch=1 n=c#5 v=0
169472 Off ch=1 n=g5 v=0
169472 On ch=1 n=e4 v=59
169984 Par ch=1 c=64 v=127
169984 Par ch=1 c=64 v=0
169984 Off ch=1 n=e4 v=0
169984 Off ch=1 n=g#3 v=0
169984 On ch=1 n=g#3 v=72
169984 On ch=1 n=g#4 v=60
170117 Par ch=1 c=64 v=0
170249 Par ch=1 c=64 v=127
170496 Off ch=1 n=g#4 v=0
170496 On ch=1 n=a#4 v=61
170633 On ch=1 n=d#4 v=68
170883 On ch=1 n=c#5 v=68
171008 On ch=1 n=g5 v=80
171520 Off ch=1 n=d#4 v=0
171520 Off ch=1 n=a#4 v=0
171520 Off ch=1 n=c#5 v=0
171520 Off ch=1 n=g5 v=0
171520 On ch=1 n=d#4 v=63
172013 Par ch=1 c=64 v=0
172032 Off ch=1 n=g#3 v=0
172032 Off ch=1 n=d#4 v=0
172032 On ch=1 n=g#4 v=64
172032 On ch=1 n=g#3 v=76
172222 Par ch=1 c=64 v=127
172544 Off ch=1 n=g#4 v=0
172544 On ch=1 n=g#4 v=65
172681 On ch=1 n=d#4 v=72
172931 On ch=1 n=c5 v=72
173056 On ch=1 n=f#5 v=84
173568 Off ch=1 n=d#4 v=0
173568 Off ch=1 n=g#4 v=0
173568 Off ch=1 n=c5 v=0
173568 Off ch=1 n=f#5 v=0
173568 On ch=1 n=g#3 v=55
173568 On ch=1 n=g#4 v=67
174080 Par ch=1 c=64 v=127
174080 Off ch=1 n=g#3 v=0
174080 Off ch=1 n=g#4 v=0
174080 Off ch=1 n=g#3 v=0
174080 On ch=1 n=c#3 v=66
174080 On ch=1 n=c#4 v=78
174451 Par ch=1 c=64 v=0
175104 Off ch=1 n=c#3 v=0
175104 Off ch=1 n=c#4 v=0
175104 On ch=1 n=c5 v=54
176128 On ch=1 n=b4 v=48
176178 Off ch=1 n=c5 v=0
177152 On ch=1 n=a#4 v=47
177202 Off ch=1 n=b4 v=0
178176 Par ch=1 c=64 v=0
178176 On ch=1 n=a4 v=45
178226 Off ch=1 n=a#4 v=0
179200 On ch=1 n=g#4 v=43
179250 Off ch=1 n=a4 v=0
180224 On ch=1 n=g4 v=42
180274 Off ch=1 n=g#4 v=0
181248 On ch=1 n=g#4 v=40
181298 Off ch=1 n=g4 v=0
181760 On ch=1 n=g#3 v=39
182272 Par ch=1 c=64 v=0
182272 Off ch=1 n=g#3 v=0
182272 On ch=1 n=c#4 v=36
183296 Off ch=1 n=c#4 v=0
183296 Off ch=1 n=g#4 v=0
183296 On ch=1 n=c5 v=59
184320 Off ch=1 n=c5 v=0
184320 On ch=1 n=b4 v=53
185344 Off ch=1 n=b4 v=0
185344 On ch=1 n=a#4 v=52
186368 Par ch=1 c=64 v=0
186368 Off ch=1 n=a#4 v=0
186368 On ch=1 n=a4 v=50
187392 Off ch=1 n=a4 v=0
187392 On ch=1 n=g#4 v=48
188416 Off ch=1 n=g#4 v=0
188416 On ch=1 n=g4 v=47
189440 Off ch=1 n=g4 v=0
189440 On ch=1 n=g#4 v=45
189952 On ch=1 n=g#3 v=44
190464 Par ch=1 c=64 v=0
190464 Off ch=1 n=g#3 v=0
190464 On ch=1 n=c#4 v=39
190542 Par ch=1 c=64 v=0
191488 Off ch=1 n=c#4 v=0
191488 Off ch=1 n=g#4 v=0
191488 On ch=1 n=g4 v=50
191507 Par ch=1 c=64 v=0
191716 Par ch=1 c=64 v=127
192668 Par ch=1 c=64 v=0
193536 Off ch=1 n=g4 v=0
193536 On ch=1 n=g#4 v=39
193574 Par ch=1 c=64 v=0
194048 On ch=1 n=g#3 v=39
194560 Par ch=1 c=64 v=0
194560 Par ch=1 c=64 v=0
194560 Off ch=1 n=g#3 v=0
194560 On ch=1 n=c#4 v=39
194638 Par ch=1 c=64 v=0
195584 Off ch=1 n=c#4 v=0
195584 Off ch=1 n=g#4 v=0
195584 On ch=1 n=g4 v=41
195603 Par ch=1 c=64 v=0
195812 Par ch=1 c=64 v=127
196764 Par ch=1 c=64 v=0
197632 Off ch=1 n=g4 v=0
197632 On ch=1 n=g#4 v=34
197670 Par ch=1 c=64 v=0
198144 On ch=1 n=g#3 v=29
198656 Par ch=1 c=64 v=0
198656 Off ch=1 n=g#3 v=0
198656 On ch=1 n=c#4 v=31
198871 Par ch=1 c=64 v=127
199680 Off ch=1 n=c#4 v=0
199680 Off ch=1 n=g#4 v=0
199680 On ch=1 n=g#4 v=33
199680 On ch=1 n=c#5 v=39
200021 Off ch=1 n=g#4 v=0
200021 Off ch=1 n=c#5 v=0
200021 On ch=1 n=g#4 v=32
200021 On ch=1 n=c#5 v=38
200363 On ch=1 n=c#4 v=32
200704 Off ch=1 n=c#4 v=0
200704 Off ch=1 n=g#4 v=0
200704 Off ch=1 n=c#5 v=0
200704 On ch=1 n=c#5 v=31
200704 On ch=1 n=f5 v=37
201045 Off ch=1 n=c#5 v=0
201045 Off ch=1 n=f5 v=0
201045 On ch=1 n=c#5 v=30
201045 On ch=1 n=f5 v=36
201387 On ch=1 n=f4 v=29
201728 Off ch=1 n=f4 v=0
201728 Off ch=1 n=c#5 v=0
201728 Off ch=1 n=f5 v=0
201728 On ch=1 n=f5 v=29
201728 On ch=1 n=g#5 v=35
202069 Off ch=1 n=f5 v=0
202069 Off ch=1 n=g#5 v=0
202069 On ch=1 n=f5 v=28
202069 On ch=1 n=g#5 v=34
202411 On ch=1 n=g#4 v=27
202752 Par ch=1 c=64 v=0
202752 Off ch=1 n=g#4 v=0
202752 Off ch=1 n=f5 v=0
202752 Off ch=1 n=g#5 v=0
202752 On ch=1 n=g#5 v=27
202752 On ch=1 n=c#6 v=33
202772 Par ch=1 c=64 v=127
203093 Off ch=1 n=g#5 v=0
203093 Off ch=1 n=c#6 v=0
203093 On ch=1 n=g#5 v=26
203093 On ch=1 n=c#6 v=32
203435 On ch=1 n=c#5 v=25
203776 Off ch=1 n=c#5 v=0
203776 Off ch=1 n=g#5 v=0
203776 Off ch=1 n=c#6 v=0
203776 On ch=1 n=c#6 v=24
203776 On ch=1 n=f6 v=30
204117 Off ch=1 n=c#6 v=0
204117 Off ch=1 n=f6 v=0
204117 On ch=1 n=c#6 v=24
204117 On ch=1 n=f6 v=30
204459 On ch=1 n=f5 v=23
204800 Off ch=1 n=f5 v=0
204800 Off ch=1 n=c#6 v=0
204800 Off ch=1 n=f6 v=0
204800 On ch=1 n=f6 v=22
204800 On ch=1 n=g#6 v=28
205141 Off ch=1 n=f6 v=0
205141 Off ch=1 n=g#6 v=0
205141 On ch=1 n=f6 v=22
205141 On ch=1 n=g#6 v=28
205483 On ch=1 n=g#5 v=21
205824 Off ch=1 n=g#5 v=0
205824 Off ch=1 n=f6 v=0
205824 Off ch=1 n=g#6 v=0
205824 On ch=1 n=g#6 v=26
205824 On ch=1 n=c#7 v=26
206165 Off ch=1 n=g#6 v=0
206165 Off ch=1 n=c#7 v=0
206165 On ch=1 n=g#6 v=25
206165 On ch=1 n=c#7 v=25
206507 On ch=1 n=c#6 v=19
206848 Par ch=1 c=64 v=0
206848 Off ch=1 n=c#6 v=0
206848 Off ch=1 n=g#6 v=0
206848 Off ch=1 n=c#7 v=0
206848 On ch=1 n=f6 v=24
206848 On ch=1 n=c#7 v=24
206868 Par ch=1 c=64 v=127
207804 Par ch=1 c=64 v=0
207872 Off ch=1 n=f6 v=0
207872 Off ch=1 n=c#7 v=0
208896 On ch=1 n=f4 v=18
208896 On ch=1 n=c#5 v=18
208896 On ch=1 n=f5 v=18
209013 Par ch=1 c=64 v=127
209920 Off ch=1 n=f4 v=0
209920 Off ch=1 n=c#5 v=0
209920 Off ch=1 n=f5 v=0
210398 Par ch=1 c=64 v=0
210944 Par ch=1 c=64 v=0
210944 On ch=1 n=c#3 v=15
210944 On ch=1 n=g#3 v=15
210944 On ch=1 n=c#4 v=15
215040 Par ch=1 c=64 v=0
215040 Off ch=1 n=c#3 v=0
215040 Off ch=1 n=g#3 v=0
215040 Off ch=1 n=c#4 v=0
219136 Par ch=1 c=64 v=0
219137 Meta TrkEnd
TrkEnd
