MFile 1 3 1024
MTrk
0 TimeSig 1/4 24 8
0 KeySig -5 minor
0 Tempo 1000000
768 Tempo 1200000
1024 TimeSig 3/4 72 8
1024 Tempo 1500000
1536 Tempo 1200000
2048 Tempo 1132075
3072 Tempo 1714285
3328 Tempo 1333333
3584 Tempo 1500000
3755 Tempo 1200000
5120 Tempo 1714285
5376 Tempo 1333333
5632 Tempo 1200000
6144 Tempo 1132075
7040 Tempo 1714285
7168 Tempo 1714285
7424 Tempo 1200000
7680 Tempo 1132075
7936 Tempo 1200000
8192 Tempo 1500000
8448 Tempo 1132075
8960 Tempo 1200000
9216 Tempo 1333333
9472 Tempo 1132075
9728 Tempo 1333333
9984 Tempo 1714285
10240 Tempo 1500000
10752 Tempo 1200000
11776 Tempo 1132075
12800 Tempo 1333333
13312 Tempo 1500000
13824 Tempo 1200000
14080 Tempo 1333333
14336 Tempo 1200000
14848 Tempo 1132075
16384 Tempo 1500000
16896 Tempo 1200000
17152 Tempo 1333333
17408 Tempo 1200000
17920 Tempo 1132075
19456 Tempo 1714285
19712 Tempo 1200000
19968 Tempo 1132075
20224 Tempo 1200000
20480 Tempo 1500000
20736 Tempo 1132075
21248 Tempo 1200000
21504 Tempo 1333333
21760 Tempo 1132075
22016 Tempo 1333333
22272 Tempo 1714285
22528 Tempo 1500000
23040 Tempo 1200000
25088 Tempo 1333333
25344 Tempo 1714285
25600 Tempo 1500000
26112 Tempo 1200000
26624 Tempo 1132075
27648 Tempo 1714285
27904 Tempo 1333333
28160 Tempo 1500000
28331 Tempo 1200000
29696 Tempo 1333333
30208 Tempo 1200000
30720 Tempo 1132075
31744 Tempo 2000000
32000 Tempo 1200000
32256 Tempo 1132075
32512 Tempo 1200000
32768 Tempo 1500000
33024 Tempo 1132075
33536 Tempo 1200000
33792 Tempo 1333333
34048 Tempo 1132075
34304 Tempo 1333333
34560 Tempo 1714285
35072 Tempo 1200000
35328 Tempo 1200000
35840 Tempo 1333333
36096 Tempo 1200000
36352 Tempo 1132075
36608 Tempo 1333333
36864 Tempo 1714285
37120 Tempo 1333333
37376 Tempo 1714285
37632 Tempo 1500000
37888 Tempo 1714285
38144 Tempo 1200000
38400 Tempo 1132075
38656 Tempo 1200000
38912 Tempo 1500000
39168 Tempo 1132075
39680 Tempo 1200000
39936 Tempo 1333333
40192 Tempo 1132075
40448 Tempo 1333333
40704 Tempo 1714285
40960 Tempo 1714285
41216 Tempo 1200000
41472 Tempo 1132075
41728 Tempo 1200000
41984 Tempo 1500000
42240 Tempo 1132075
42752 Tempo 1500000
43008 Tempo 2000000
43264 Tempo 1714285
43520 Tempo 2000000
43776 Tempo 2400000
44032 Tempo 1714285
44288 Tempo 1200000
44544 Tempo 1714285
45056 Tempo 1714285
45312 Tempo 1132075
45824 Tempo 1333333
46592 Tempo 1200000
47104 Tempo 1714285
47275 Tempo 1132075
47787 Tempo 1333333
47957 Tempo 1714285
48128 Tempo 2000000
48384 Tempo 1500000
48896 Tempo 1714285
49152 Tempo 2000000
49664 Tempo 1500000
49920 Tempo 1333333
50176 Tempo 1714285
50432 Tempo 1200000
50688 Tempo 1714285
51200 Tempo 1500000
51456 Tempo 1132075
51968 Tempo 1333333
52736 Tempo 1200000
53248 Tempo 1714285
53419 Tempo 1132075
53589 Tempo 1200000
53931 Tempo 1333333
54101 Tempo 1714285
54272 Tempo 2000000
54528 Tempo 1714285
54784 Tempo 1500000
55040 Tempo 1714285
55296 Tempo 2400000
55808 Tempo 1500000
56064 Tempo 1333333
56320 KeySig 4 minor
56320 Tempo 1333333
56832 Tempo 1132075
57088 Tempo 1200000
57344 Tempo 1333333
57600 Tempo 1200000
57856 Tempo 1132075
58368 Tempo 1333333
58880 Tempo 1200000
59392 Tempo 1714285
59563 Tempo 1132075
59904 Tempo 1200000
60075 Tempo 1132075
60245 Tempo 1000000
60416 Tempo 1333333
60928 Tempo 1090909
61440 Tempo 1132075
61952 Tempo 1200000
62464 KeySig -5 minor
62464 Tempo 1333333
62976 Tempo 1000000
63232 Tempo 1132075
63488 Tempo 1333333
63744 Tempo 1132075
64000 Tempo 1000000
64512 Tempo 1200000
65024 Tempo 1132075
65536 Tempo 1500000
65707 Tempo 1132075
65877 Tempo 1000000
66560 Tempo 1200000
67584 Tempo 1500000
68096 Tempo 1714285
68608 Tempo 1333333
69120 Tempo 1714285
69632 Tempo 1500000
69888 Tempo 1200000
70656 Tempo 1714285
70912 Tempo 1333333
71339 Tempo 1200000
71680 Tempo 1714285
71936 Tempo 1333333
72363 Tempo 1200000
72704 Tempo 1333333
73216 Tempo 1200000
74752 Tempo 1333333
75264 Tempo 1714285
75776 Tempo 1500000
76032 Tempo 1200000
76800 Tempo 1500000
77056 Tempo 1333333
77483 Tempo 1200000
77824 Tempo 1714285
78080 Tempo 1333333
78507 Tempo 1200000
78848 Tempo 1132075
79360 Tempo 1090909
80896 Tempo 1333333
81152 Tempo 1200000
81408 Tempo 1200000
81579 Tempo 1132075
81920 Tempo 1000000
82944 Tempo 1200000
83456 Tempo 1333333
83968 Tempo 1714285
84480 Tempo 1333333
84992 Tempo 1200000
86016 Tempo 1500000
86357 Tempo 1333333
87040 Tempo 1500000
87296 Tempo 1200000
87552 Tempo 1132075
88064 Tempo 1132075
89088 Tempo 1714285
89344 Tempo 1333333
89600 Tempo 1500000
89771 Tempo 1200000
90112 Tempo 1333333
90368 Tempo 1132075
91136 Tempo 1714285
91392 Tempo 1333333
91648 Tempo 1200000
91904 Tempo 1132075
92160 Tempo 1132075
93184 Tempo 1714285
93440 Tempo 1200000
93696 Tempo 1132075
93952 Tempo 1200000
94208 Tempo 1500000
94464 Tempo 1132075
94976 Tempo 1200000
95232 Tempo 1333333
95488 Tempo 1132075
95744 Tempo 1333333
96000 Tempo 1714285
96256 Tempo 1500000
96512 Tempo 1132075
96768 Tempo 1200000
97280 Tempo 1132075
97792 Tempo 1132075
98048 Tempo 1333333
98304 Tempo 1200000
98816 Tempo 1500000
99328 Tempo 1714285
99584 Tempo 1132075
100096 Tempo 1333333
100352 Tempo 1200000
100608 Tempo 1132075
100864 Tempo 1132075
102400 Tempo 1714285
102656 Tempo 1132075
103168 Tempo 1333333
103424 Tempo 1200000
103680 Tempo 1132075
103936 Tempo 1132075
104704 Tempo 1200000
105472 Tempo 1714285
105728 Tempo 1200000
105984 Tempo 1132075
106240 Tempo 1200000
106496 Tempo 1500000
106752 Tempo 1132075
107264 Tempo 1200000
107520 Tempo 1333333
107776 Tempo 1132075
108032 Tempo 1333333
108288 Tempo 1714285
108544 Tempo 1500000
108800 Tempo 1132075
109568 Tempo 1333333
109824 Tempo 1132075
110592 Tempo 1714285
110848 Tempo 1333333
111104 Tempo 1500000
111360 Tempo 2000000
111616 Tempo 1500000
111872 Tempo 1200000
112128 Tempo 1132075
112640 Tempo 1132075
112896 Tempo 1090909
113664 Tempo 1714285
113920 Tempo 1333333
114176 Tempo 1500000
114347 Tempo 1200000
114688 Tempo 1333333
114944 Tempo 1090909
115200 Tempo 1333333
115712 Tempo 1714285
115968 Tempo 1090909
116224 Tempo 1200000
116480 Tempo 1090909
117248 Tempo 1333333
117504 Tempo 1714285
117760 Tempo 1714285
118016 Tempo 1132075
118272 Tempo 1090909
118784 Tempo 1333333
119040 Tempo 1132075
119296 Tempo 1090909
119552 Tempo 1200000
119808 Tempo 1333333
120064 Tempo 1132075
120320 Tempo 1200000
120576 Tempo 1500000
120832 Tempo 1714285
121088 Tempo 1132075
121344 Tempo 1090909
121856 Tempo 1333333
122112 Tempo 1132075
122368 Tempo 1090909
122880 Tempo 1333333
123136 Tempo 1500000
123392 Tempo 1714285
123648 Tempo 2000000
124160 Tempo 1090909
124928 Tempo 1333333
125184 Tempo 1090909
125952 Tempo 1200000
126208 Tempo 1333333
127488 Tempo 1090909
127744 Tempo 1200000
128000 Tempo 1333333
128512 Tempo 1200000
129024 Tempo 1500000
129536 Tempo 1714285
130048 Tempo 1714285
130304 Tempo 1132075
131072 Tempo 1200000
132096 Tempo 1333333
132608 Tempo 1500000
133120 Tempo 1500000
133632 Tempo 1200000
133888 Tempo 1500000
134144 Tempo 1333333
134656 Tempo 1200000
135168 Tempo 1333333
135680 Tempo 1714285
136192 Tempo 2000000
136448 Tempo 1500000
136704 Tempo 1714285
136960 Tempo 2400000
137216 Tempo 1500000
138240 Tempo 1090909
139264 Tempo 1090909
142336 Tempo 1500000
142848 Tempo 1200000
143360 Tempo 1090909
144896 Tempo 1333333
145408 Tempo 1333333
145920 Tempo 1200000
146432 Tempo 1090909
147968 Tempo 1333333
148992 Tempo 1090909
151040 Tempo 1333333
151552 Tempo 1200000
152576 Tempo 1333333
153088 Tempo 1200000
154112 Tempo 2000000
154624 Tempo 1200000
156672 Tempo 1500000
157696 Tempo 1333333
160768 Tempo 1500000
166912 Tempo 270270
169987 Meta TrkEnd
TrkEnd
MTrk
0 Meta TrkName "Instrument  1"
0 PrCh ch=1 p=1
0 Par ch=1 c=64 v=0
1024 Par ch=1 c=64 v=0
1024 On ch=1 n=c#5 v=15
1024 On ch=1 n=a#5 v=24
1024 On ch=1 n=c#6 v=54
1536 Off ch=1 n=c#5 v=0
1536 Off ch=1 n=a#5 v=0
1536 On ch=1 n=c#5 v=15
1536 On ch=1 n=a#5 v=24
1792 Off ch=1 n=c#6 v=0
1792 On ch=1 n=c#6 v=51
2048 Off ch=1 n=c#6 v=0
2048 On ch=1 n=c#6 v=48
2048 Off ch=1 n=c#5 v=0
2048 Off ch=1 n=a#5 v=0
2048 On ch=1 n=c#5 v=16
2048 On ch=1 n=a#5 v=25
2560 Off ch=1 n=c#5 v=0
2560 Off ch=1 n=a#5 v=0
2560 On ch=1 n=c#5 v=17
2560 On ch=1 n=a#5 v=26
3072 Off ch=1 n=c#6 v=0
3072 On ch=1 n=f6 v=57
3072 Off ch=1 n=c#5 v=0
3072 Off ch=1 n=a#5 v=0
3072 On ch=1 n=d#5 v=20
3072 On ch=1 n=a#5 v=29
3328 On ch=1 n=c#6 v=53
3368 Off ch=1 n=f6 v=0
3584 On ch=1 n=f6 v=54
3584 Off ch=1 n=d#5 v=0
3584 Off ch=1 n=a#5 v=0
3584 On ch=1 n=d#5 v=15
3584 On ch=1 n=a#5 v=24
3624 Off ch=1 n=c#6 v=0
3755 On ch=1 n=d#6 v=51
3795 Off ch=1 n=f6 v=0
3925 On ch=1 n=a#5 v=49
3965 Off ch=1 n=d#6 v=0
4096 Par ch=1 c=64 v=0
4096 Off ch=1 n=a#5 v=0
4096 Off ch=1 n=d#5 v=0
4096 Off ch=1 n=a#5 v=0
4096 On ch=1 n=c#5 v=14
4096 On ch=1 n=a#5 v=46
4608 Off ch=1 n=c#5 v=0
4608 On ch=1 n=c#5 v=14
4779 On ch=1 n=b5 v=49
4819 Off ch=1 n=a#5 v=0
4949 On ch=1 n=c6 v=50
4989 Off ch=1 n=b5 v=0
5120 On ch=1 n=d#6 v=52
5120 Off ch=1 n=c#5 v=0
5120 On ch=1 n=c#5 v=14
5120 On ch=1 n=a#5 v=23
5160 Off ch=1 n=c6 v=0
5376 On ch=1 n=c#6 v=48
5416 Off ch=1 n=d#6 v=0
5632 Off ch=1 n=c#5 v=0
5632 Off ch=1 n=a#5 v=0
5632 On ch=1 n=c#5 v=14
5632 On ch=1 n=a#5 v=23
6144 Off ch=1 n=c#5 v=0
6144 Off ch=1 n=a#5 v=0
6144 On ch=1 n=c#5 v=12
6144 On ch=1 n=a#5 v=20
6656 Off ch=1 n=c#5 v=0
6656 Off ch=1 n=a#5 v=0
6656 On ch=1 n=c#5 v=9
6656 On ch=1 n=a#5 v=17
7168 Par ch=1 c=64 v=0
7168 Off ch=1 n=c#6 v=0
7168 Off ch=1 n=c#5 v=0
7168 Off ch=1 n=a#5 v=0
7168 On ch=1 n=a#5 v=26
7168 On ch=1 n=d#5 v=32
7168 On ch=1 n=d#6 v=53
7424 Off ch=1 n=d#5 v=0
7424 Off ch=1 n=d#6 v=0
7424 On ch=1 n=d5 v=30
7424 On ch=1 n=d6 v=51
7680 Off ch=1 n=a#5 v=0
7680 On ch=1 n=d5 v=32
7680 On ch=1 n=a#5 v=38
7936 Off ch=1 n=d5 v=0
7936 Off ch=1 n=d6 v=0
7936 On ch=1 n=d5 v=43
7936 On ch=1 n=d6 v=54
8192 Off ch=1 n=d5 v=0
8192 Off ch=1 n=d6 v=0
8192 On ch=1 n=d5 v=34
8192 On ch=1 n=d6 v=55
8192 Off ch=1 n=d5 v=0
8192 Off ch=1 n=a#5 v=0
8192 On ch=1 n=a#5 v=38
8448 Off ch=1 n=d5 v=0
8448 Off ch=1 n=d6 v=0
8448 On ch=1 n=c#5 v=44
8448 On ch=1 n=c#6 v=53
8704 Off ch=1 n=a#5 v=0
8704 On ch=1 n=c#5 v=31
8704 On ch=1 n=a#5 v=37
8960 Off ch=1 n=c#5 v=0
8960 Off ch=1 n=c#6 v=0
8960 On ch=1 n=c#5 v=42
8960 On ch=1 n=c#6 v=52
9216 Off ch=1 n=c#5 v=0
9216 Off ch=1 n=c#6 v=0
9216 On ch=1 n=c#5 v=29
9216 On ch=1 n=c#6 v=56
9216 Off ch=1 n=c#5 v=0
9216 Off ch=1 n=a#5 v=0
9216 On ch=1 n=f#5 v=39
9472 Off ch=1 n=c#5 v=0
9472 Off ch=1 n=c#6 v=0
9472 On ch=1 n=c5 v=43
9472 On ch=1 n=c6 v=52
9728 Off ch=1 n=f#5 v=0
9728 On ch=1 n=c5 v=33
9728 On ch=1 n=f#5 v=38
9984 Off ch=1 n=c5 v=0
9984 Off ch=1 n=c6 v=0
9984 On ch=1 n=c5 v=44
9984 On ch=1 n=c6 v=53
10240 Par ch=1 c=64 v=0
10240 Off ch=1 n=c5 v=0
10240 Off ch=1 n=c6 v=0
10240 Off ch=1 n=c5 v=0
10240 Off ch=1 n=f#5 v=0
10240 On ch=1 n=b4 v=22
10240 On ch=1 n=f#5 v=31
10240 On ch=1 n=b5 v=50
10752 Off ch=1 n=b4 v=0
10752 Off ch=1 n=f#5 v=0
10752 On ch=1 n=b4 v=20
11008 Off ch=1 n=b5 v=0
11008 On ch=1 n=f#5 v=40
11264 Off ch=1 n=f#5 v=0
11264 On ch=1 n=b5 v=46
11264 Off ch=1 n=b4 v=0
11264 On ch=1 n=b4 v=18
11264 On ch=1 n=f#5 v=25
11776 Off ch=1 n=b4 v=0
11776 Off ch=1 n=f#5 v=0
11776 On ch=1 n=b4 v=15
11776 On ch=1 n=f#5 v=22
12288 Off ch=1 n=b4 v=0
12288 Off ch=1 n=f#5 v=0
12288 On ch=1 n=b4 v=13
12288 On ch=1 n=f#5 v=19
12800 Off ch=1 n=b5 v=0
12800 On ch=1 n=a#5 v=41
12800 Off ch=1 n=b4 v=0
12800 Off ch=1 n=f#5 v=0
12800 On ch=1 n=a#4 v=11
12800 On ch=1 n=f#5 v=16
13312 Par ch=1 c=64 v=0
13312 Off ch=1 n=a#5 v=0
13312 Off ch=1 n=a#4 v=0
13312 Off ch=1 n=f#5 v=0
13312 On ch=1 n=a4 v=13
13312 On ch=1 n=d#5 v=22
13312 On ch=1 n=a5 v=41
13824 Off ch=1 n=a4 v=0
13824 Off ch=1 n=d#5 v=0
13824 On ch=1 n=a4 v=18
13824 On ch=1 n=d#5 v=18
14080 Off ch=1 n=a5 v=0
14080 On ch=1 n=a5 v=36
14336 Off ch=1 n=a5 v=0
14336 On ch=1 n=a5 v=37
14336 Off ch=1 n=a4 v=0
14336 Off ch=1 n=d#5 v=0
14336 On ch=1 n=a4 v=17
14336 On ch=1 n=d#5 v=17
14848 Off ch=1 n=a4 v=0
14848 Off ch=1 n=d#5 v=0
14848 On ch=1 n=a4 v=16
14848 On ch=1 n=d#5 v=16
15360 Off ch=1 n=a5 v=0
15360 On ch=1 n=a#5 v=27
15360 Off ch=1 n=a4 v=0
15360 Off ch=1 n=d#5 v=0
15360 On ch=1 n=a#4 v=16
15360 On ch=1 n=d#5 v=16
15872 Off ch=1 n=a#4 v=0
15872 Off ch=1 n=d#5 v=0
15872 On ch=1 n=a#4 v=15
15872 On ch=1 n=d#5 v=15
16384 Par ch=1 c=64 v=0
16384 Par ch=1 c=64 v=0
16384 Off ch=1 n=a#5 v=0
16384 Off ch=1 n=a#4 v=0
16384 Off ch=1 n=d#5 v=0
16384 On ch=1 n=a#4 v=13
16384 On ch=1 n=d#5 v=41
16896 Off ch=1 n=a#4 v=0
16896 On ch=1 n=a#4 v=18
17152 Off ch=1 n=d#5 v=0
17152 On ch=1 n=f5 v=36
17408 Off ch=1 n=f5 v=0
17408 On ch=1 n=f#5 v=37
17408 Off ch=1 n=a#4 v=0
17408 On ch=1 n=f#4 v=17
17408 On ch=1 n=d#5 v=17
17920 Off ch=1 n=f#4 v=0
17920 Off ch=1 n=d#5 v=0
17920 On ch=1 n=f#4 v=16
17920 On ch=1 n=d#5 v=16
18432 Off ch=1 n=f#4 v=0
18432 Off ch=1 n=d#5 v=0
18432 On ch=1 n=f#4 v=16
18432 On ch=1 n=d#5 v=16
18944 Off ch=1 n=f#4 v=0
18944 Off ch=1 n=d#5 v=0
18944 On ch=1 n=f#4 v=15
18944 On ch=1 n=d#5 v=15
19456 Par ch=1 c=64 v=0
19456 Par ch=1 c=64 v=0
19456 Off ch=1 n=f#5 v=0
19456 Off ch=1 n=f#4 v=0
19456 Off ch=1 n=d#5 v=0
19456 On ch=1 n=c#5 v=21
19456 On ch=1 n=f#4 v=26
19456 On ch=1 n=f#5 v=42
19712 Off ch=1 n=f#4 v=0
19712 Off ch=1 n=f#5 v=0
19712 On ch=1 n=f4 v=25
19712 On ch=1 n=f5 v=42
19968 Off ch=1 n=c#5 v=0
19968 On ch=1 n=f4 v=27
19968 On ch=1 n=c#5 v=32
20224 Off ch=1 n=f4 v=0
20224 Off ch=1 n=f5 v=0
20224 On ch=1 n=f4 v=37
20224 On ch=1 n=f5 v=45
20480 Off ch=1 n=f4 v=0
20480 Off ch=1 n=f5 v=0
20480 On ch=1 n=g#4 v=29
20480 On ch=1 n=g#5 v=47
20480 Off ch=1 n=f4 v=0
20480 Off ch=1 n=c#5 v=0
20480 On ch=1 n=c#5 v=27
20736 Off ch=1 n=g#4 v=0
20736 Off ch=1 n=g#5 v=0
20736 On ch=1 n=f#4 v=38
20736 On ch=1 n=f#5 v=46
20992 Off ch=1 n=c#5 v=0
20992 On ch=1 n=f#4 v=27
20992 On ch=1 n=c#5 v=32
21248 Off ch=1 n=f#4 v=0
21248 Off ch=1 n=f#5 v=0
21248 On ch=1 n=f#4 v=38
21248 On ch=1 n=f#5 v=46
21504 Off ch=1 n=f#4 v=0
21504 Off ch=1 n=f#5 v=0
21504 On ch=1 n=f4 v=26
21504 On ch=1 n=f5 v=50
21504 Off ch=1 n=f#4 v=0
21504 Off ch=1 n=c#5 v=0
21504 On ch=1 n=c5 v=35
21760 Off ch=1 n=f4 v=0
21760 Off ch=1 n=f5 v=0
21760 On ch=1 n=e4 v=39
21760 On ch=1 n=e5 v=48
22016 Off ch=1 n=c5 v=0
22016 On ch=1 n=e4 v=31
22016 On ch=1 n=c5 v=36
22272 Off ch=1 n=e4 v=0
22272 Off ch=1 n=e5 v=0
22272 On ch=1 n=e4 v=41
22272 On ch=1 n=e5 v=50
22528 Par ch=1 c=64 v=0
22528 Par ch=1 c=64 v=0
22528 Off ch=1 n=e4 v=0
22528 Off ch=1 n=e5 v=0
22528 Off ch=1 n=e4 v=0
22528 Off ch=1 n=c5 v=0
22528 On ch=1 n=f4 v=22
22528 On ch=1 n=c5 v=31
22528 On ch=1 n=f5 v=50
23040 Off ch=1 n=f4 v=0
23040 Off ch=1 n=c5 v=0
23040 On ch=1 n=c5 v=20
23296 Off ch=1 n=f5 v=0
23296 On ch=1 n=f5 v=35
23552 Off ch=1 n=f5 v=0
23552 Off ch=1 n=c5 v=0
23552 On ch=1 n=c5 v=18
23552 On ch=1 n=f5 v=37
24576 Off ch=1 n=c5 v=0
24576 Off ch=1 n=f5 v=0
25600 Par ch=1 c=64 v=0
25600 Par ch=1 c=64 v=0
25600 On ch=1 n=c#5 v=15
25600 On ch=1 n=a#5 v=24
25600 On ch=1 n=c#6 v=54
26112 Off ch=1 n=c#5 v=0
26112 Off ch=1 n=a#5 v=0
26112 On ch=1 n=c#5 v=15
26112 On ch=1 n=a#5 v=24
26368 Off ch=1 n=c#6 v=0
26368 On ch=1 n=c#6 v=51
26624 Off ch=1 n=c#6 v=0
26624 On ch=1 n=c#6 v=48
26624 Off ch=1 n=c#5 v=0
26624 Off ch=1 n=a#5 v=0
26624 On ch=1 n=c#5 v=16
26624 On ch=1 n=a#5 v=25
27136 Off ch=1 n=c#5 v=0
27136 Off ch=1 n=a#5 v=0
27136 On ch=1 n=c#5 v=17
27136 On ch=1 n=a#5 v=26
27648 Off ch=1 n=c#6 v=0
27648 On ch=1 n=f6 v=57
27648 Off ch=1 n=c#5 v=0
27648 Off ch=1 n=a#5 v=0
27648 On ch=1 n=d#5 v=20
27648 On ch=1 n=a#5 v=29
27904 On ch=1 n=c#6 v=53
27944 Off ch=1 n=f6 v=0
28160 On ch=1 n=f6 v=54
28160 Off ch=1 n=d#5 v=0
28160 Off ch=1 n=a#5 v=0
28160 On ch=1 n=d#5 v=15
28160 On ch=1 n=a#5 v=24
28200 Off ch=1 n=c#6 v=0
28331 On ch=1 n=d#6 v=51
28371 Off ch=1 n=f6 v=0
28501 On ch=1 n=a#5 v=49
28541 Off ch=1 n=d#6 v=0
28672 Par ch=1 c=64 v=0
28672 Par ch=1 c=64 v=0
28672 Off ch=1 n=a#5 v=0
28672 Off ch=1 n=d#5 v=0
28672 Off ch=1 n=a#5 v=0
28672 On ch=1 n=c#5 v=14
28672 On ch=1 n=a#5 v=46
29184 Off ch=1 n=c#5 v=0
29184 On ch=1 n=c#5 v=14
29355 On ch=1 n=b5 v=49
29395 Off ch=1 n=a#5 v=0
29525 On ch=1 n=c6 v=50
29565 Off ch=1 n=b5 v=0
29696 On ch=1 n=c#6 v=52
29696 Off ch=1 n=c#5 v=0
29696 On ch=1 n=c#5 v=14
29696 On ch=1 n=a#5 v=23
29736 Off ch=1 n=c6 v=0
30208 Off ch=1 n=c#5 v=0
30208 Off ch=1 n=a#5 v=0
30208 On ch=1 n=c#5 v=14
30208 On ch=1 n=a#5 v=23
30720 Off ch=1 n=c#5 v=0
30720 Off ch=1 n=a#5 v=0
30720 On ch=1 n=c#5 v=12
30720 On ch=1 n=a#5 v=20
31232 Off ch=1 n=c#5 v=0
31232 Off ch=1 n=a#5 v=0
31232 On ch=1 n=c#5 v=9
31232 On ch=1 n=a#5 v=17
31744 Par ch=1 c=64 v=0
31744 Par ch=1 c=64 v=0
31744 Off ch=1 n=c#6 v=0
31744 Off ch=1 n=c#5 v=0
31744 Off ch=1 n=a#5 v=0
31744 On ch=1 n=a#5 v=26
31744 On ch=1 n=c#5 v=32
31744 On ch=1 n=c#6 v=53
32000 Off ch=1 n=c#5 v=0
32000 Off ch=1 n=c#6 v=0
32000 On ch=1 n=c5 v=25
32000 On ch=1 n=c6 v=46
32256 Off ch=1 n=a#5 v=0
32256 On ch=1 n=c5 v=32
32256 On ch=1 n=f#5 v=38
32512 Off ch=1 n=c5 v=0
32512 Off ch=1 n=c6 v=0
32512 On ch=1 n=c5 v=43
32512 On ch=1 n=c6 v=53
32768 Off ch=1 n=c5 v=0
32768 Off ch=1 n=c6 v=0
32768 On ch=1 n=c5 v=33
32768 On ch=1 n=c6 v=54
32768 Off ch=1 n=c5 v=0
32768 Off ch=1 n=f#5 v=0
32768 On ch=1 n=f#5 v=31
33024 Off ch=1 n=c5 v=0
33024 Off ch=1 n=c6 v=0
33024 On ch=1 n=a#4 v=43
33024 On ch=1 n=a#5 v=52
33280 Off ch=1 n=f#5 v=0
33280 On ch=1 n=a#4 v=30
33280 On ch=1 n=f#5 v=36
33536 Off ch=1 n=a#4 v=0
33536 Off ch=1 n=a#5 v=0
33536 On ch=1 n=a#4 v=41
33536 On ch=1 n=a#5 v=50
33792 Off ch=1 n=a#4 v=0
33792 Off ch=1 n=a#5 v=0
33792 On ch=1 n=a#4 v=28
33792 On ch=1 n=a#5 v=54
33792 Off ch=1 n=a#4 v=0
33792 Off ch=1 n=f#5 v=0
33792 On ch=1 n=f5 v=38
34048 Off ch=1 n=a#4 v=0
34048 Off ch=1 n=a#5 v=0
34048 On ch=1 n=a4 v=41
34048 On ch=1 n=a5 v=50
34304 Off ch=1 n=f5 v=0
34304 On ch=1 n=a4 v=32
34304 On ch=1 n=f5 v=37
34560 Off ch=1 n=a4 v=0
34560 Off ch=1 n=a5 v=0
34560 On ch=1 n=a#4 v=42
34560 On ch=1 n=a#5 v=51
34816 Par ch=1 c=64 v=0
34816 Par ch=1 c=64 v=0
34816 Off ch=1 n=a#4 v=0
34816 Off ch=1 n=a#5 v=0
34816 Off ch=1 n=a4 v=0
34816 Off ch=1 n=f5 v=0
34816 On ch=1 n=e5 v=21
34816 On ch=1 n=c#5 v=27
34816 On ch=1 n=c#6 v=53
35072 Off ch=1 n=c#5 v=0
35072 Off ch=1 n=c#6 v=0
35072 On ch=1 n=c5 v=30
35072 On ch=1 n=c6 v=51
35328 Off ch=1 n=e5 v=0
35328 On ch=1 n=c5 v=32
35328 On ch=1 n=e5 v=38
35584 Off ch=1 n=c5 v=0
35584 Off ch=1 n=c6 v=0
35584 On ch=1 n=c5 v=43
35584 On ch=1 n=c6 v=53
35840 Off ch=1 n=c5 v=0
35840 Off ch=1 n=c6 v=0
35840 On ch=1 n=c5 v=33
35840 On ch=1 n=c6 v=54
35840 Off ch=1 n=c5 v=0
35840 Off ch=1 n=e5 v=0
35840 On ch=1 n=e5 v=31
36096 Off ch=1 n=c5 v=0
36096 Off ch=1 n=c6 v=0
36096 On ch=1 n=a#4 v=43
36096 On ch=1 n=a#5 v=52
36352 Off ch=1 n=e5 v=0
36352 On ch=1 n=a#4 v=30
36352 On ch=1 n=e5 v=36
36608 Off ch=1 n=a#4 v=0
36608 Off ch=1 n=a#5 v=0
36608 On ch=1 n=a#4 v=41
36608 On ch=1 n=a#5 v=48
36864 Off ch=1 n=a#4 v=0
36864 Off ch=1 n=a#5 v=0
36864 On ch=1 n=a#4 v=28
36864 On ch=1 n=a#5 v=54
36864 Off ch=1 n=a#4 v=0
36864 Off ch=1 n=e5 v=0
36864 On ch=1 n=d#5 v=38
37120 Off ch=1 n=a#4 v=0
37120 Off ch=1 n=a#5 v=0
37120 On ch=1 n=a4 v=37
37120 On ch=1 n=a5 v=49
37376 Off ch=1 n=a4 v=0
37376 Off ch=1 n=a5 v=0
37376 On ch=1 n=c5 v=40
37376 On ch=1 n=c6 v=52
37376 Off ch=1 n=d#5 v=0
37376 On ch=1 n=d#5 v=31
37632 Off ch=1 n=c5 v=0
37632 Off ch=1 n=c6 v=0
37632 On ch=1 n=a#4 v=35
37632 On ch=1 n=a#5 v=44
37888 Par ch=1 c=64 v=0
37888 Off ch=1 n=a#4 v=0
37888 Off ch=1 n=a#5 v=0
37888 Off ch=1 n=d#5 v=0
37888 On ch=1 n=c#5 v=23
37888 On ch=1 n=a#4 v=29
37888 On ch=1 n=a#5 v=48
38144 Off ch=1 n=a#4 v=0
38144 Off ch=1 n=a#5 v=0
38144 On ch=1 n=a4 v=27
38144 On ch=1 n=a5 v=45
38400 Off ch=1 n=c#5 v=0
38400 On ch=1 n=a#4 v=28
38400 On ch=1 n=c#5 v=34
38656 Off ch=1 n=a4 v=0
38656 Off ch=1 n=a5 v=0
38656 On ch=1 n=a4 v=38
38656 On ch=1 n=a5 v=47
38912 Off ch=1 n=a4 v=0
38912 Off ch=1 n=a5 v=0
38912 On ch=1 n=a4 v=29
38912 On ch=1 n=a5 v=47
38912 Off ch=1 n=a#4 v=0
38912 Off ch=1 n=c#5 v=0
38912 On ch=1 n=c#5 v=27
39168 Off ch=1 n=a4 v=0
39168 Off ch=1 n=a5 v=0
39168 On ch=1 n=g#4 v=37
39168 On ch=1 n=g#5 v=45
39424 Off ch=1 n=c#5 v=0
39424 On ch=1 n=g#4 v=26
39424 On ch=1 n=c#5 v=31
39680 Off ch=1 n=g#4 v=0
39680 Off ch=1 n=g#5 v=0
39680 On ch=1 n=g#4 v=35
39680 On ch=1 n=g#5 v=44
39936 Off ch=1 n=g#4 v=0
39936 Off ch=1 n=g#5 v=0
39936 On ch=1 n=g#4 v=22
39936 On ch=1 n=g#5 v=44
39936 Off ch=1 n=g#4 v=0
39936 Off ch=1 n=c#5 v=0
39936 On ch=1 n=c#5 v=30
40192 Off ch=1 n=g#4 v=0
40192 Off ch=1 n=g#5 v=0
40192 On ch=1 n=g4 v=34
40192 On ch=1 n=g5 v=43
40448 Off ch=1 n=c#5 v=0
40448 On ch=1 n=g4 v=27
40448 On ch=1 n=c#5 v=31
40704 Off ch=1 n=g4 v=0
40704 Off ch=1 n=g5 v=0
40704 On ch=1 n=g4 v=35
40704 On ch=1 n=g5 v=42
40960 Par ch=1 c=64 v=127
40960 Par ch=1 c=64 v=0
40960 Par ch=1 c=64 v=0
40960 Par ch=1 c=64 v=0
40960 Off ch=1 n=g4 v=0
40960 Off ch=1 n=g5 v=0
40960 Off ch=1 n=g4 v=0
40960 Off ch=1 n=c#5 v=0
40960 On ch=1 n=c#5 v=21
40960 On ch=1 n=g4 v=26
40960 On ch=1 n=g5 v=43
41060 Par ch=1 c=64 v=0
41188 Par ch=1 c=64 v=127
41216 Off ch=1 n=g4 v=0
41216 Off ch=1 n=g5 v=0
41216 On ch=1 n=f#4 v=25
41216 On ch=1 n=f#5 v=42
41259 Par ch=1 c=64 v=0
41372 Par ch=1 c=64 v=127
41472 Off ch=1 n=c#5 v=0
41472 On ch=1 n=f#4 v=26
41472 On ch=1 n=c#5 v=31
41728 Off ch=1 n=f#4 v=0
41728 Off ch=1 n=f#5 v=0
41728 On ch=1 n=f#4 v=34
41728 On ch=1 n=f#5 v=42
41984 Off ch=1 n=f#4 v=0
41984 Off ch=1 n=f#5 v=0
41984 On ch=1 n=f#4 v=26
41984 On ch=1 n=f#5 v=43
41984 Off ch=1 n=f#4 v=0
41984 Off ch=1 n=c#5 v=0
41984 On ch=1 n=c5 v=25
42041 Par ch=1 c=64 v=0
42169 Par ch=1 c=64 v=127
42240 Off ch=1 n=f#4 v=0
42240 Off ch=1 n=f#5 v=0
42240 On ch=1 n=f4 v=34
42240 On ch=1 n=f5 v=41
42325 Par ch=1 c=64 v=0
42425 Par ch=1 c=64 v=127
42496 Off ch=1 n=c5 v=0
42496 On ch=1 n=f4 v=23
42496 On ch=1 n=c5 v=28
42752 Off ch=1 n=f4 v=0
42752 Off ch=1 n=f5 v=0
42752 On ch=1 n=f4 v=32
42752 On ch=1 n=f5 v=41
43008 Off ch=1 n=f4 v=0
43008 Off ch=1 n=f5 v=0
43008 On ch=1 n=f4 v=22
43008 On ch=1 n=f5 v=42
43008 Off ch=1 n=f4 v=0
43008 Off ch=1 n=c5 v=0
43008 On ch=1 n=c5 v=38
43065 Par ch=1 c=64 v=0
43164 Par ch=1 c=64 v=127
43264 Off ch=1 n=f4 v=0
43264 Off ch=1 n=f5 v=0
43264 On ch=1 n=e4 v=25
43264 On ch=1 n=e5 v=34
43349 Par ch=1 c=64 v=0
43463 Par ch=1 c=64 v=127
43520 Off ch=1 n=c5 v=0
43520 On ch=1 n=c5 v=24
43776 Off ch=1 n=e4 v=0
43776 Off ch=1 n=e5 v=0
43776 On ch=1 n=g#4 v=23
44032 Par ch=1 c=64 v=0
44032 Off ch=1 n=g#4 v=0
44032 Off ch=1 n=c5 v=0
44032 On ch=1 n=f#4 v=21
44032 On ch=1 n=c5 v=28
44032 On ch=1 n=f5 v=49
44544 Off ch=1 n=f#4 v=0
44544 Off ch=1 n=c5 v=0
44544 On ch=1 n=f#4 v=26
44544 On ch=1 n=c5 v=33
45056 Off ch=1 n=f#4 v=0
45056 Off ch=1 n=c5 v=0
45056 On ch=1 n=f#4 v=26
45056 On ch=1 n=c5 v=33
45312 Off ch=1 n=f5 v=0
45312 On ch=1 n=f#5 v=51
45568 Off ch=1 n=f#5 v=0
45568 On ch=1 n=e5 v=50
45568 Off ch=1 n=f#4 v=0
45568 Off ch=1 n=c5 v=0
45568 On ch=1 n=f#4 v=18
45568 On ch=1 n=c5 v=25
45824 Off ch=1 n=e5 v=0
45824 On ch=1 n=f5 v=51
46080 Off ch=1 n=f5 v=0
46080 Off ch=1 n=f#4 v=0
46080 Off ch=1 n=c5 v=0
46080 On ch=1 n=f#4 v=22
46080 On ch=1 n=c5 v=22
46080 On ch=1 n=g#5 v=49
46592 Off ch=1 n=f#4 v=0
46592 Off ch=1 n=c5 v=0
46592 Off ch=1 n=g#5 v=0
46592 On ch=1 n=f#4 v=29
46592 On ch=1 n=g#4 v=36
47104 Par ch=1 c=64 v=0
47104 Off ch=1 n=f#4 v=0
47104 Off ch=1 n=g#4 v=0
47104 On ch=1 n=f4 v=28
47104 On ch=1 n=g#4 v=28
47104 On ch=1 n=c#5 v=48
47275 Off ch=1 n=c#5 v=0
47275 On ch=1 n=d#5 v=47
47445 Off ch=1 n=d#5 v=0
47445 On ch=1 n=c#5 v=46
47616 Off ch=1 n=f4 v=0
47616 Off ch=1 n=g#4 v=0
47616 Off ch=1 n=c#5 v=0
47616 On ch=1 n=c5 v=43
47616 On ch=1 n=f4 v=28
47616 On ch=1 n=g#4 v=28
47787 Off ch=1 n=c5 v=0
47787 On ch=1 n=c#5 v=46
47957 Off ch=1 n=c#5 v=0
47957 On ch=1 n=d#5 v=48
48128 Off ch=1 n=d#5 v=0
48128 Off ch=1 n=f4 v=0
48128 Off ch=1 n=g#4 v=0
48128 On ch=1 n=g4 v=17
48128 On ch=1 n=c#5 v=17
48128 On ch=1 n=e5 v=39
48384 On ch=1 n=c#6 v=22
48384 On ch=1 n=a6 v=45
48640 Off ch=1 n=c#6 v=0
48640 Off ch=1 n=a6 v=0
48640 On ch=1 n=b5 v=21
48640 On ch=1 n=g6 v=36
48896 Off ch=1 n=b5 v=0
48896 Off ch=1 n=g6 v=0
48896 On ch=1 n=g5 v=19
48896 On ch=1 n=f#6 v=33
49152 Off ch=1 n=g5 v=0
49152 Off ch=1 n=f#6 v=0
49152 On ch=1 n=a5 v=22
49152 On ch=1 n=f#6 v=38
49408 Off ch=1 n=f#6 v=0
49408 On ch=1 n=e6 v=31
49664 Off ch=1 n=a5 v=0
49664 Off ch=1 n=e6 v=0
49664 On ch=1 n=g4 v=33
49664 On ch=1 n=c#5 v=33
49664 On ch=1 n=d#5 v=42
49920 On ch=1 n=e5 v=48
49960 Off ch=1 n=d#5 v=0
50176 Par ch=1 c=64 v=0
50176 Par ch=1 c=64 v=0
50176 Off ch=1 n=g4 v=0
50176 Off ch=1 n=c#5 v=0
50176 Off ch=1 n=e5 v=0
50176 Off ch=1 n=g4 v=0
50176 Off ch=1 n=c#5 v=0
50176 On ch=1 n=g#4 v=21
50176 On ch=1 n=c5 v=28
50176 On ch=1 n=f5 v=49
50216 Off ch=1 n=e5 v=0
50688 Off ch=1 n=g#4 v=0
50688 Off ch=1 n=c5 v=0
50688 On ch=1 n=f#4 v=26
50688 On ch=1 n=c5 v=33
51200 Off ch=1 n=f#4 v=0
51200 Off ch=1 n=c5 v=0
51200 On ch=1 n=f#4 v=26
51200 On ch=1 n=c5 v=33
51456 Off ch=1 n=f5 v=0
51456 On ch=1 n=f#5 v=51
51712 Off ch=1 n=f#5 v=0
51712 On ch=1 n=e5 v=50
51712 Off ch=1 n=f#4 v=0
51712 Off ch=1 n=c5 v=0
51712 On ch=1 n=f#4 v=18
51712 On ch=1 n=c5 v=25
51968 Off ch=1 n=e5 v=0
51968 On ch=1 n=f5 v=51
52224 Off ch=1 n=f5 v=0
52224 Off ch=1 n=f#4 v=0
52224 Off ch=1 n=c5 v=0
52224 On ch=1 n=f#4 v=22
52224 On ch=1 n=c5 v=22
52224 On ch=1 n=g#5 v=49
52736 Off ch=1 n=f#4 v=0
52736 Off ch=1 n=c5 v=0
52736 Off ch=1 n=g#5 v=0
52736 On ch=1 n=f#4 v=29
52736 On ch=1 n=g#4 v=36
53248 Par ch=1 c=64 v=0
53248 Par ch=1 c=64 v=0
53248 Off ch=1 n=f#4 v=0
53248 Off ch=1 n=g#4 v=0
53248 On ch=1 n=f4 v=28
53248 On ch=1 n=g#4 v=28
53248 On ch=1 n=c#5 v=48
53419 Off ch=1 n=c#5 v=0
53419 On ch=1 n=d#5 v=47
53589 Off ch=1 n=d#5 v=0
53589 On ch=1 n=c#5 v=46
53760 Off ch=1 n=f4 v=0
53760 Off ch=1 n=g#4 v=0
53760 Off ch=1 n=c#5 v=0
53760 On ch=1 n=c5 v=43
53760 On ch=1 n=f4 v=28
53760 On ch=1 n=g#4 v=28
53931 Off ch=1 n=c5 v=0
53931 On ch=1 n=c#5 v=46
54101 Off ch=1 n=c#5 v=0
54101 On ch=1 n=d#5 v=48
54272 Off ch=1 n=d#5 v=0
54272 Off ch=1 n=f4 v=0
54272 Off ch=1 n=g#4 v=0
54272 On ch=1 n=g4 v=17
54272 On ch=1 n=c#5 v=17
54272 On ch=1 n=e5 v=39
54528 On ch=1 n=c#6 v=22
54528 On ch=1 n=b6 v=45
54784 Off ch=1 n=c#6 v=0
54784 Off ch=1 n=b6 v=0
54784 On ch=1 n=b5 v=21
54784 On ch=1 n=g6 v=36
55040 Off ch=1 n=b5 v=0
55040 Off ch=1 n=g6 v=0
55040 On ch=1 n=g5 v=19
55040 On ch=1 n=f#6 v=33
55296 Off ch=1 n=g5 v=0
55296 Off ch=1 n=f#6 v=0
55296 On ch=1 n=a5 v=22
55296 On ch=1 n=f#6 v=38
55552 Off ch=1 n=f#6 v=0
55552 On ch=1 n=e6 v=31
55808 Off ch=1 n=a5 v=0
55808 Off ch=1 n=e6 v=0
55808 On ch=1 n=g4 v=26
55808 On ch=1 n=c#5 v=26
55808 On ch=1 n=e5 v=35
56064 On ch=1 n=f5 v=41
56104 Off ch=1 n=e5 v=0
56320 Par ch=1 c=64 v=0
56320 Off ch=1 n=g4 v=0
56320 Off ch=1 n=c#5 v=0
56320 Off ch=1 n=e5 v=0
56320 Off ch=1 n=g4 v=0
56320 Off ch=1 n=c#5 v=0
56320 On ch=1 n=a4 v=21
56320 On ch=1 n=d5 v=28
56320 On ch=1 n=f#5 v=49
56360 Off ch=1 n=f5 v=0
56832 Off ch=1 n=a4 v=0
56832 Off ch=1 n=d5 v=0
56832 On ch=1 n=a4 v=26
56832 On ch=1 n=d5 v=33
57344 Off ch=1 n=a4 v=0
57344 Off ch=1 n=d5 v=0
57344 On ch=1 n=a4 v=26
57344 On ch=1 n=e5 v=33
57600 Off ch=1 n=f#5 v=0
57600 On ch=1 n=g5 v=51
57856 Off ch=1 n=g5 v=0
57856 On ch=1 n=f5 v=50
57856 Off ch=1 n=a4 v=0
57856 Off ch=1 n=e5 v=0
57856 On ch=1 n=a4 v=18
57856 On ch=1 n=e5 v=25
58112 Off ch=1 n=f5 v=0
58112 On ch=1 n=f#5 v=51
58368 Off ch=1 n=f#5 v=0
58368 Off ch=1 n=a4 v=0
58368 Off ch=1 n=e5 v=0
58368 On ch=1 n=a4 v=22
58368 On ch=1 n=d#5 v=22
58368 On ch=1 n=b5 v=49
58880 Off ch=1 n=a4 v=0
58880 On ch=1 n=a4 v=29
58880 On ch=1 n=b4 v=36
59392 Par ch=1 c=64 v=0
59392 Par ch=1 c=64 v=0
59392 Par ch=1 c=64 v=0
59392 Off ch=1 n=a4 v=0
59392 Off ch=1 n=b4 v=0
59392 Off ch=1 n=d#5 v=0
59392 Off ch=1 n=b5 v=0
59392 On ch=1 n=g#4 v=26
59392 On ch=1 n=b4 v=34
59392 On ch=1 n=e5 v=50
59563 Off ch=1 n=e5 v=0
59563 On ch=1 n=f#5 v=51
59733 Off ch=1 n=f#5 v=0
59733 On ch=1 n=e5 v=52
59904 Off ch=1 n=g#4 v=0
59904 Off ch=1 n=b4 v=0
59904 Off ch=1 n=e5 v=0
59904 On ch=1 n=d#5 v=53
59904 On ch=1 n=g#4 v=26
59904 On ch=1 n=b4 v=34
60075 Off ch=1 n=d#5 v=0
60075 On ch=1 n=e5 v=54
60245 Off ch=1 n=e5 v=0
60245 On ch=1 n=f#5 v=54
60416 Off ch=1 n=f#5 v=0
60416 On ch=1 n=g#5 v=53
60416 Off ch=1 n=g#4 v=0
60416 Off ch=1 n=b4 v=0
60416 On ch=1 n=b4 v=33
60416 On ch=1 n=f#5 v=33
60928 Off ch=1 n=b4 v=0
60928 Off ch=1 n=f#5 v=0
60928 On ch=1 n=b4 v=30
60928 On ch=1 n=f#5 v=38
61440 Off ch=1 n=b4 v=0
61440 Off ch=1 n=f#5 v=0
61440 On ch=1 n=b4 v=31
61440 On ch=1 n=f5 v=40
61952 Off ch=1 n=b4 v=0
61952 Off ch=1 n=f5 v=0
61952 On ch=1 n=b4 v=24
61952 On ch=1 n=f5 v=32
62464 Par ch=1 c=64 v=0
62464 Par ch=1 c=64 v=0
62464 Off ch=1 n=g#5 v=0
62464 Off ch=1 n=b4 v=0
62464 Off ch=1 n=f5 v=0
62464 On ch=1 n=c#5 v=27
62464 On ch=1 n=f#5 v=34
62464 On ch=1 n=a#5 v=55
62976 Off ch=1 n=c#5 v=0
62976 Off ch=1 n=f#5 v=0
62976 On ch=1 n=c#5 v=28
62976 On ch=1 n=f#5 v=35
63488 Off ch=1 n=c#5 v=0
63488 Off ch=1 n=f#5 v=0
63488 On ch=1 n=c#5 v=29
63488 On ch=1 n=g#5 v=37
63744 Off ch=1 n=a#5 v=0
63744 On ch=1 n=b5 v=57
64000 Off ch=1 n=b5 v=0
64000 On ch=1 n=a5 v=57
64000 Off ch=1 n=c#5 v=0
64000 Off ch=1 n=g#5 v=0
64000 On ch=1 n=c#5 v=22
64000 On ch=1 n=g#5 v=29
64256 Off ch=1 n=a5 v=0
64256 On ch=1 n=a#5 v=59
64512 Off ch=1 n=a#5 v=0
64512 Off ch=1 n=c#5 v=0
64512 Off ch=1 n=g#5 v=0
64512 On ch=1 n=c#5 v=27
64512 On ch=1 n=g5 v=27
64512 On ch=1 n=d#6 v=57
65024 Off ch=1 n=c#5 v=0
65024 Off ch=1 n=g5 v=0
65024 Off ch=1 n=d#6 v=0
65024 On ch=1 n=c#5 v=36
65024 On ch=1 n=d#5 v=48
65536 Par ch=1 c=64 v=0
65536 Par ch=1 c=64 v=0
65536 Par ch=1 c=64 v=0
65536 Par ch=1 c=64 v=0
65536 Off ch=1 n=c#5 v=0
65536 Off ch=1 n=d#5 v=0
65536 On ch=1 n=c5 v=24
65536 On ch=1 n=d#5 v=33
65536 On ch=1 n=g#5 v=51
65707 Off ch=1 n=g#5 v=0
65707 On ch=1 n=a#5 v=51
65877 Off ch=1 n=a#5 v=0
65877 On ch=1 n=g#5 v=52
66048 Off ch=1 n=c5 v=0
66048 Off ch=1 n=d#5 v=0
66048 Off ch=1 n=g#5 v=0
66048 On ch=1 n=g5 v=51
66048 On ch=1 n=c5 v=24
66048 On ch=1 n=d#5 v=32
66219 Off ch=1 n=g5 v=0
66219 On ch=1 n=g#5 v=56
66389 Off ch=1 n=g#5 v=0
66389 On ch=1 n=a#5 v=56
66560 Off ch=1 n=a#5 v=0
66560 On ch=1 n=c6 v=58
66560 Off ch=1 n=c5 v=0
66560 Off ch=1 n=d#5 v=0
66560 On ch=1 n=c5 v=23
66560 On ch=1 n=e5 v=23
66560 On ch=1 n=a#5 v=23
67072 Off ch=1 n=c5 v=0
67072 Off ch=1 n=e5 v=0
67072 Off ch=1 n=a#5 v=0
67072 On ch=1 n=c5 v=21
67072 On ch=1 n=e5 v=29
67072 On ch=1 n=a#5 v=21
67584 Off ch=1 n=c5 v=0
67584 Off ch=1 n=e5 v=0
67584 Off ch=1 n=a#5 v=0
67584 On ch=1 n=c5 v=19
67584 On ch=1 n=e5 v=27
67584 On ch=1 n=a#5 v=19
68096 Off ch=1 n=c5 v=0
68096 Off ch=1 n=e5 v=0
68096 Off ch=1 n=a#5 v=0
68096 On ch=1 n=a#4 v=17
68096 On ch=1 n=e5 v=24
68408 On ch=1 n=a4 v=27
68508 On ch=1 n=f5 v=27
68608 Par ch=1 c=64 v=0
68608 Off ch=1 n=c6 v=0
68608 Off ch=1 n=a#4 v=0
68608 Off ch=1 n=e5 v=0
68608 On ch=1 n=c6 v=44
69120 Off ch=1 n=a4 v=0
69120 Off ch=1 n=f5 v=0
69120 On ch=1 n=a4 v=18
69120 On ch=1 n=f5 v=25
69632 Off ch=1 n=a4 v=0
69632 Off ch=1 n=f5 v=0
69632 On ch=1 n=a4 v=18
69632 On ch=1 n=f5 v=18
69888 Off ch=1 n=c6 v=0
69888 On ch=1 n=d6 v=47
70144 Off ch=1 n=d6 v=0
70144 On ch=1 n=b5 v=47
70144 Off ch=1 n=a4 v=0
70144 Off ch=1 n=f5 v=0
70144 On ch=1 n=a4 v=18
70144 On ch=1 n=f5 v=18
70400 Off ch=1 n=b5 v=0
70400 On ch=1 n=c6 v=44
70656 Off ch=1 n=c6 v=0
70656 On ch=1 n=f6 v=52
70656 Off ch=1 n=a4 v=0
70656 Off ch=1 n=f5 v=0
70656 On ch=1 n=a4 v=18
70656 On ch=1 n=c5 v=18
70656 On ch=1 n=f5 v=18
70656 On ch=1 n=a5 v=27
70912 Off ch=1 n=f6 v=0
70912 On ch=1 n=d6 v=47
71168 Off ch=1 n=d6 v=0
71168 On ch=1 n=c6 v=44
71339 Off ch=1 n=c6 v=0
71339 On ch=1 n=f5 v=42
71509 Off ch=1 n=f5 v=0
71509 On ch=1 n=a4 v=40
71680 Par ch=1 c=64 v=0
71680 Off ch=1 n=a4 v=0
71680 Off ch=1 n=a4 v=0
71680 Off ch=1 n=c5 v=0
71680 Off ch=1 n=f5 v=0
71680 Off ch=1 n=a5 v=0
71680 On ch=1 n=a#4 v=34
71680 On ch=1 n=e5 v=34
71680 On ch=1 n=c6 v=50
72192 Off ch=1 n=a#4 v=0
72192 Off ch=1 n=e5 v=0
72192 On ch=1 n=a#4 v=26
72192 On ch=1 n=e5 v=26
72704 Off ch=1 n=a#4 v=0
72704 Off ch=1 n=e5 v=0
72704 Off ch=1 n=c6 v=0
73216 On ch=1 n=e5 v=22
73216 On ch=1 n=a#5 v=22
73216 On ch=1 n=c6 v=38
73728 Off ch=1 n=e5 v=0
73728 Off ch=1 n=a#5 v=0
73728 Off ch=1 n=c6 v=0
73728 On ch=1 n=e5 v=27
73728 On ch=1 n=a#5 v=27
73728 On ch=1 n=c#6 v=43
74240 Off ch=1 n=e5 v=0
74240 Off ch=1 n=a#5 v=0
74240 Off ch=1 n=c#6 v=0
74240 On ch=1 n=e5 v=19
74240 On ch=1 n=a#5 v=19
74240 On ch=1 n=c6 v=35
74752 Par ch=1 c=64 v=0
74752 Par ch=1 c=64 v=0
74752 Off ch=1 n=e5 v=0
74752 Off ch=1 n=a#5 v=0
74752 Off ch=1 n=c6 v=0
74752 On ch=1 n=a4 v=27
74752 On ch=1 n=f5 v=27
74752 On ch=1 n=c6 v=44
75264 Off ch=1 n=a4 v=0
75264 Off ch=1 n=f5 v=0
75264 On ch=1 n=a4 v=18
75264 On ch=1 n=f5 v=25
75776 Off ch=1 n=a4 v=0
75776 Off ch=1 n=f5 v=0
75776 On ch=1 n=a4 v=18
75776 On ch=1 n=f5 v=18
76032 Off ch=1 n=c6 v=0
76032 On ch=1 n=d6 v=42
76288 Off ch=1 n=d6 v=0
76288 On ch=1 n=b5 v=42
76288 Off ch=1 n=a4 v=0
76288 Off ch=1 n=f5 v=0
76288 On ch=1 n=a4 v=18
76288 On ch=1 n=f5 v=18
76544 Off ch=1 n=b5 v=0
76544 On ch=1 n=c6 v=44
76800 Off ch=1 n=c6 v=0
76800 On ch=1 n=f6 v=52
76800 Off ch=1 n=a4 v=0
76800 Off ch=1 n=f5 v=0
76800 On ch=1 n=a4 v=18
76800 On ch=1 n=c5 v=18
76800 On ch=1 n=f5 v=18
76800 On ch=1 n=a5 v=27
77056 Off ch=1 n=f6 v=0
77056 On ch=1 n=d6 v=47
77312 Off ch=1 n=d6 v=0
77312 On ch=1 n=c6 v=44
77483 Off ch=1 n=c6 v=0
77483 On ch=1 n=f5 v=42
77653 Off ch=1 n=f5 v=0
77653 On ch=1 n=c5 v=40
77824 Par ch=1 c=64 v=0
77824 Par ch=1 c=64 v=0
77824 Off ch=1 n=c5 v=0
77824 Off ch=1 n=a4 v=0
77824 Off ch=1 n=c5 v=0
77824 Off ch=1 n=f5 v=0
77824 Off ch=1 n=a5 v=0
77824 On ch=1 n=a#4 v=34
77824 On ch=1 n=e5 v=34
77824 On ch=1 n=c6 v=46
78336 Off ch=1 n=a#4 v=0
78336 Off ch=1 n=e5 v=0
78336 On ch=1 n=a#4 v=26
78336 On ch=1 n=e5 v=26
78848 Off ch=1 n=a#4 v=0
78848 Off ch=1 n=e5 v=0
78848 Off ch=1 n=c6 v=0
79360 On ch=1 n=e5 v=30
79360 On ch=1 n=a#5 v=30
79360 On ch=1 n=c6 v=46
79872 Off ch=1 n=e5 v=0
79872 Off ch=1 n=a#5 v=0
79872 Off ch=1 n=c6 v=0
79872 On ch=1 n=e5 v=35
79872 On ch=1 n=a#5 v=35
79872 On ch=1 n=c#6 v=51
80384 Off ch=1 n=e5 v=0
80384 Off ch=1 n=a#5 v=0
80384 Off ch=1 n=c#6 v=0
80384 On ch=1 n=e5 v=34
80384 On ch=1 n=a#5 v=34
80384 On ch=1 n=c6 v=50
80896 Par ch=1 c=64 v=0
80896 Par ch=1 c=64 v=0
80896 Par ch=1 c=64 v=0
80896 Off ch=1 n=e5 v=0
80896 Off ch=1 n=a#5 v=0
80896 Off ch=1 n=c6 v=0
80896 On ch=1 n=a#4 v=42
80896 On ch=1 n=d#5 v=42
80896 On ch=1 n=c6 v=54
81408 Off ch=1 n=a#4 v=0
81408 Off ch=1 n=d#5 v=0
81408 On ch=1 n=a#4 v=34
81408 On ch=1 n=d#5 v=34
81920 Off ch=1 n=a#4 v=0
81920 Off ch=1 n=d#5 v=0
81920 Off ch=1 n=c6 v=0
82432 On ch=1 n=d#5 v=39
82432 On ch=1 n=a#5 v=39
82432 On ch=1 n=c6 v=55
82944 Off ch=1 n=d#5 v=0
82944 Off ch=1 n=a#5 v=0
82944 Off ch=1 n=c6 v=0
82944 On ch=1 n=d#5 v=44
82944 On ch=1 n=a#5 v=44
82944 On ch=1 n=c#6 v=60
83456 Off ch=1 n=d#5 v=0
83456 Off ch=1 n=a#5 v=0
83456 Off ch=1 n=c#6 v=0
83456 On ch=1 n=d#5 v=47
83456 On ch=1 n=a#5 v=47
83456 On ch=1 n=c6 v=63
83968 Par ch=1 c=64 v=0
83968 Off ch=1 n=d#5 v=0
83968 Off ch=1 n=a#5 v=0
83968 Off ch=1 n=c6 v=0
83968 On ch=1 n=d#5 v=50
83968 On ch=1 n=a5 v=50
83968 On ch=1 n=f#6 v=66
84480 Off ch=1 n=d#5 v=0
84480 Off ch=1 n=a5 v=0
84480 Off ch=1 n=f#6 v=0
84480 On ch=1 n=f5 v=48
84480 On ch=1 n=a5 v=48
84480 On ch=1 n=f6 v=63
84992 Off ch=1 n=f5 v=0
84992 Off ch=1 n=a5 v=0
84992 Off ch=1 n=f6 v=0
84992 On ch=1 n=f#5 v=46
84992 On ch=1 n=a#5 v=46
84992 On ch=1 n=e6 v=60
85504 Off ch=1 n=f#5 v=0
85504 Off ch=1 n=a#5 v=0
85504 Off ch=1 n=e6 v=0
85504 On ch=1 n=f#5 v=43
85504 On ch=1 n=a#5 v=43
85504 On ch=1 n=d#6 v=57
86016 Off ch=1 n=f#5 v=0
86016 Off ch=1 n=a#5 v=0
86016 Off ch=1 n=d#6 v=0
86016 On ch=1 n=f#5 v=41
86016 On ch=1 n=a#5 v=41
86016 On ch=1 n=c#6 v=54
86528 Off ch=1 n=f#5 v=0
86528 Off ch=1 n=a#5 v=0
86528 Off ch=1 n=c#6 v=0
86528 On ch=1 n=f#5 v=39
86528 On ch=1 n=a#5 v=39
86528 On ch=1 n=c6 v=51
87040 Par ch=1 c=64 v=0
87040 Par ch=1 c=64 v=0
87040 Off ch=1 n=f#5 v=0
87040 Off ch=1 n=a#5 v=0
87040 Off ch=1 n=c6 v=0
87040 On ch=1 n=c#5 v=15
87040 On ch=1 n=a#5 v=24
87040 On ch=1 n=c#6 v=54
87552 Off ch=1 n=c#5 v=0
87552 Off ch=1 n=a#5 v=0
87552 On ch=1 n=c#5 v=15
87552 On ch=1 n=a#5 v=24
87808 Off ch=1 n=c#6 v=0
87808 On ch=1 n=c#6 v=51
88064 Off ch=1 n=c#6 v=0
88064 On ch=1 n=c#6 v=48
88064 Off ch=1 n=c#5 v=0
88064 Off ch=1 n=a#5 v=0
88064 On ch=1 n=c#5 v=16
88064 On ch=1 n=a#5 v=25
88576 Off ch=1 n=c#5 v=0
88576 Off ch=1 n=a#5 v=0
88576 On ch=1 n=c#5 v=17
88576 On ch=1 n=a#5 v=26
89088 Off ch=1 n=c#6 v=0
89088 On ch=1 n=f6 v=57
89088 Off ch=1 n=c#5 v=0
89088 Off ch=1 n=a#5 v=0
89088 On ch=1 n=d#5 v=20
89088 On ch=1 n=a#5 v=29
89344 Off ch=1 n=f6 v=0
89344 On ch=1 n=c#6 v=53
89600 Off ch=1 n=c#6 v=0
89600 On ch=1 n=f6 v=54
89600 Off ch=1 n=d#5 v=0
89600 Off ch=1 n=a#5 v=0
89600 On ch=1 n=d#5 v=15
89600 On ch=1 n=a#5 v=24
89771 Off ch=1 n=f6 v=0
89771 On ch=1 n=d#6 v=51
89941 Off ch=1 n=d#6 v=0
89941 On ch=1 n=a#5 v=49
90112 Par ch=1 c=64 v=0
90112 Par ch=1 c=64 v=0
90112 Off ch=1 n=a#5 v=0
90112 Off ch=1 n=d#5 v=0
90112 Off ch=1 n=a#5 v=0
90112 On ch=1 n=c#5 v=14
90112 On ch=1 n=a#5 v=46
90624 Off ch=1 n=c#5 v=0
90624 On ch=1 n=c#5 v=14
90795 Off ch=1 n=a#5 v=0
90795 On ch=1 n=b5 v=49
90965 Off ch=1 n=b5 v=0
90965 On ch=1 n=c6 v=50
91136 Off ch=1 n=c6 v=0
91136 On ch=1 n=d#6 v=52
91136 Off ch=1 n=c#5 v=0
91136 On ch=1 n=c#5 v=14
91136 On ch=1 n=a#5 v=23
91392 Off ch=1 n=d#6 v=0
91392 On ch=1 n=c#6 v=48
91648 Off ch=1 n=c#5 v=0
91648 Off ch=1 n=a#5 v=0
91648 On ch=1 n=c#5 v=14
91648 On ch=1 n=a#5 v=23
92160 Off ch=1 n=c#5 v=0
92160 Off ch=1 n=a#5 v=0
92160 On ch=1 n=c#5 v=12
92160 On ch=1 n=a#5 v=20
92672 Off ch=1 n=c#5 v=0
92672 Off ch=1 n=a#5 v=0
92672 On ch=1 n=c#5 v=9
92672 On ch=1 n=a#5 v=17
93184 Par ch=1 c=64 v=0
93184 Par ch=1 c=64 v=0
93184 Off ch=1 n=c#6 v=0
93184 Off ch=1 n=c#5 v=0
93184 Off ch=1 n=a#5 v=0
93184 On ch=1 n=a#5 v=29
93184 On ch=1 n=d#5 v=35
93184 On ch=1 n=d#6 v=58
93440 Off ch=1 n=d#5 v=0
93440 Off ch=1 n=d#6 v=0
93440 On ch=1 n=d5 v=33
93440 On ch=1 n=d6 v=56
93696 Off ch=1 n=a#5 v=0
93696 On ch=1 n=d5 v=35
93696 On ch=1 n=a#5 v=41
93952 Off ch=1 n=d5 v=0
93952 Off ch=1 n=d6 v=0
93952 On ch=1 n=d5 v=46
93952 On ch=1 n=d6 v=57
94208 Off ch=1 n=d5 v=0
94208 Off ch=1 n=d6 v=0
94208 On ch=1 n=d5 v=35
94208 On ch=1 n=d6 v=57
94208 Off ch=1 n=d5 v=0
94208 Off ch=1 n=a#5 v=0
94208 On ch=1 n=a#5 v=39
94464 Off ch=1 n=d5 v=0
94464 Off ch=1 n=d6 v=0
94464 On ch=1 n=c#5 v=45
94464 On ch=1 n=c#6 v=55
94720 Off ch=1 n=a#5 v=0
94720 On ch=1 n=c#5 v=32
94720 On ch=1 n=a#5 v=38
94976 Off ch=1 n=c#5 v=0
94976 Off ch=1 n=c#6 v=0
94976 On ch=1 n=c#5 v=43
94976 On ch=1 n=c#6 v=55
95232 Off ch=1 n=c#5 v=0
95232 Off ch=1 n=c#6 v=0
95232 On ch=1 n=c#5 v=29
95232 On ch=1 n=c#6 v=56
95232 Off ch=1 n=c#5 v=0
95232 Off ch=1 n=a#5 v=0
95232 On ch=1 n=f#5 v=39
95488 Off ch=1 n=c#5 v=0
95488 Off ch=1 n=c#6 v=0
95488 On ch=1 n=c5 v=42
95488 On ch=1 n=c6 v=51
95744 Off ch=1 n=f#5 v=0
95744 On ch=1 n=c5 v=32
95744 On ch=1 n=f#5 v=37
96000 Off ch=1 n=c5 v=0
96000 Off ch=1 n=c6 v=0
96000 On ch=1 n=c5 v=42
96000 On ch=1 n=c6 v=51
96256 Par ch=1 c=64 v=0
96256 Par ch=1 c=64 v=0
96256 Off ch=1 n=c5 v=0
96256 Off ch=1 n=c6 v=0
96256 Off ch=1 n=c5 v=0
96256 Off ch=1 n=f#5 v=0
96256 On ch=1 n=b4 v=27
96256 On ch=1 n=d#5 v=36
96256 On ch=1 n=b5 v=55
96768 Off ch=1 n=b4 v=0
96768 Off ch=1 n=d#5 v=0
96768 On ch=1 n=b4 v=20
96768 On ch=1 n=d#5 v=20
97024 Off ch=1 n=b5 v=0
97024 On ch=1 n=f#5 v=45
97280 Off ch=1 n=f#5 v=0
97280 On ch=1 n=b5 v=46
97280 Off ch=1 n=b4 v=0
97280 Off ch=1 n=d#5 v=0
97280 On ch=1 n=d#5 v=18
97792 Off ch=1 n=d#5 v=0
97792 On ch=1 n=d#5 v=15
98304 Off ch=1 n=d#5 v=0
98304 On ch=1 n=d#5 v=13
98816 Off ch=1 n=b5 v=0
98816 On ch=1 n=a#4 v=22
98816 On ch=1 n=d#5 v=22
98816 On ch=1 n=a#5 v=37
98816 Off ch=1 n=d#5 v=0
99328 Par ch=1 c=64 v=0
99328 Off ch=1 n=a#4 v=0
99328 Off ch=1 n=d#5 v=0
99328 Off ch=1 n=a#5 v=0
99328 On ch=1 n=a4 v=18
99328 On ch=1 n=d#5 v=27
99328 On ch=1 n=a5 v=46
99840 Off ch=1 n=a4 v=0
99840 Off ch=1 n=d#5 v=0
99840 On ch=1 n=a4 v=23
99840 On ch=1 n=d#5 v=23
100096 Off ch=1 n=a5 v=0
100096 On ch=1 n=a5 v=41
100352 Off ch=1 n=a5 v=0
100352 On ch=1 n=a5 v=42
100352 Off ch=1 n=a4 v=0
100352 Off ch=1 n=d#5 v=0
100352 On ch=1 n=a4 v=22
100352 On ch=1 n=d#5 v=22
100864 Off ch=1 n=a4 v=0
100864 Off ch=1 n=d#5 v=0
100864 On ch=1 n=a4 v=21
100864 On ch=1 n=d#5 v=21
101376 Off ch=1 n=a5 v=0
101376 On ch=1 n=a#5 v=32
101376 Off ch=1 n=a4 v=0
101376 Off ch=1 n=d#5 v=0
101376 On ch=1 n=a#4 v=21
101376 On ch=1 n=d#5 v=21
101888 Off ch=1 n=a#4 v=0
101888 Off ch=1 n=d#5 v=0
101888 On ch=1 n=a#4 v=20
101888 On ch=1 n=d#5 v=20
102400 Par ch=1 c=64 v=0
102400 Off ch=1 n=a#5 v=0
102400 Off ch=1 n=a#4 v=0
102400 Off ch=1 n=d#5 v=0
102400 On ch=1 n=a#4 v=18
102400 On ch=1 n=d#5 v=46
102912 Off ch=1 n=a#4 v=0
102912 On ch=1 n=a#4 v=23
103168 Off ch=1 n=d#5 v=0
103168 On ch=1 n=f5 v=41
103424 Off ch=1 n=f5 v=0
103424 On ch=1 n=f#5 v=42
103424 Off ch=1 n=a#4 v=0
103424 On ch=1 n=f#4 v=22
103424 On ch=1 n=d#5 v=22
103936 Off ch=1 n=f#4 v=0
103936 Off ch=1 n=d#5 v=0
103936 On ch=1 n=f#4 v=21
103936 On ch=1 n=d#5 v=21
104448 Off ch=1 n=f#4 v=0
104448 Off ch=1 n=d#5 v=0
104448 On ch=1 n=f#4 v=21
104448 On ch=1 n=d#5 v=21
104960 Off ch=1 n=f#4 v=0
104960 Off ch=1 n=d#5 v=0
104960 On ch=1 n=f#4 v=20
104960 On ch=1 n=d#5 v=20
105472 Par ch=1 c=64 v=0
105472 Off ch=1 n=f#5 v=0
105472 Off ch=1 n=f#4 v=0
105472 Off ch=1 n=d#5 v=0
105472 On ch=1 n=c#5 v=25
105472 On ch=1 n=f#4 v=30
105472 On ch=1 n=f#5 v=46
105728 Off ch=1 n=f#4 v=0
105728 Off ch=1 n=f#5 v=0
105728 On ch=1 n=f4 v=29
105728 On ch=1 n=f5 v=46
105984 Off ch=1 n=c#5 v=0
105984 On ch=1 n=c#5 v=31
106240 Off ch=1 n=f4 v=0
106240 Off ch=1 n=f5 v=0
106240 On ch=1 n=f4 v=41
106240 On ch=1 n=f5 v=49
106496 Off ch=1 n=f4 v=0
106496 Off ch=1 n=f5 v=0
106496 On ch=1 n=g#4 v=33
106496 On ch=1 n=g#5 v=51
106496 Off ch=1 n=c#5 v=0
106496 On ch=1 n=c#5 v=31
106752 Off ch=1 n=g#4 v=0
106752 Off ch=1 n=g#5 v=0
106752 On ch=1 n=f#4 v=42
106752 On ch=1 n=f#5 v=50
107008 Off ch=1 n=c#5 v=0
107008 On ch=1 n=f#4 v=31
107008 On ch=1 n=c#5 v=36
107264 Off ch=1 n=f#4 v=0
107264 Off ch=1 n=f#5 v=0
107264 On ch=1 n=f#4 v=42
107264 On ch=1 n=f#5 v=50
107520 Off ch=1 n=f#4 v=0
107520 Off ch=1 n=f#5 v=0
107520 On ch=1 n=f4 v=30
107520 On ch=1 n=f5 v=48
107520 Off ch=1 n=f#4 v=0
107520 Off ch=1 n=c#5 v=0
107520 On ch=1 n=c5 v=39
107776 Off ch=1 n=f4 v=0
107776 Off ch=1 n=f5 v=0
107776 On ch=1 n=e4 v=43
107776 On ch=1 n=e5 v=52
108032 Off ch=1 n=c5 v=0
108032 On ch=1 n=e4 v=35
108032 On ch=1 n=c5 v=40
108288 Off ch=1 n=e4 v=0
108288 Off ch=1 n=e5 v=0
108288 On ch=1 n=e4 v=36
108288 On ch=1 n=e5 v=45
108544 Par ch=1 c=64 v=0
108544 Off ch=1 n=e4 v=0
108544 Off ch=1 n=e5 v=0
108544 Off ch=1 n=e4 v=0
108544 Off ch=1 n=c5 v=0
108544 On ch=1 n=f4 v=22
108544 On ch=1 n=c5 v=22
108544 On ch=1 n=f5 v=38
109056 Off ch=1 n=f4 v=0
109056 Off ch=1 n=c5 v=0
109056 On ch=1 n=c5 v=22
109568 Off ch=1 n=c5 v=0
110080 Off ch=1 n=f5 v=0
111616 Par ch=1 c=64 v=0
111616 Par ch=1 c=64 v=0
111616 Par ch=1 c=64 v=0
111616 On ch=1 n=c#5 v=15
111616 On ch=1 n=a#5 v=24
111616 On ch=1 n=c#6 v=54
112128 Off ch=1 n=c#5 v=0
112128 Off ch=1 n=a#5 v=0
112128 On ch=1 n=c#5 v=15
112128 On ch=1 n=a#5 v=24
112384 Off ch=1 n=c#6 v=0
112384 On ch=1 n=c#6 v=51
112640 Off ch=1 n=c#6 v=0
112640 On ch=1 n=c#6 v=48
112640 Off ch=1 n=c#5 v=0
112640 Off ch=1 n=a#5 v=0
112640 On ch=1 n=c#5 v=16
112640 On ch=1 n=a#5 v=25
113152 Off ch=1 n=c#5 v=0
113152 Off ch=1 n=a#5 v=0
113152 On ch=1 n=c#5 v=17
113152 On ch=1 n=a#5 v=26
113664 Off ch=1 n=c#6 v=0
113664 On ch=1 n=f6 v=57
113664 Off ch=1 n=c#5 v=0
113664 Off ch=1 n=a#5 v=0
113664 On ch=1 n=d#5 v=20
113664 On ch=1 n=a#5 v=29
113920 Off ch=1 n=f6 v=0
113920 On ch=1 n=c#6 v=53
114176 Off ch=1 n=c#6 v=0
114176 On ch=1 n=f6 v=54
114176 Off ch=1 n=d#5 v=0
114176 Off ch=1 n=a#5 v=0
114176 On ch=1 n=d#5 v=15
114176 On ch=1 n=a#5 v=24
114347 Off ch=1 n=f6 v=0
114347 On ch=1 n=d#6 v=51
114517 Off ch=1 n=d#6 v=0
114517 On ch=1 n=a#5 v=49
114688 Par ch=1 c=64 v=0
114688 Par ch=1 c=64 v=0
114688 Par ch=1 c=64 v=0
114688 Off ch=1 n=a#5 v=0
114688 Off ch=1 n=d#5 v=0
114688 Off ch=1 n=a#5 v=0
114688 On ch=1 n=c#5 v=14
114688 On ch=1 n=a#5 v=46
115200 Off ch=1 n=c#5 v=0
115200 On ch=1 n=c#5 v=14
115371 Off ch=1 n=a#5 v=0
115371 On ch=1 n=b5 v=49
115541 Off ch=1 n=b5 v=0
115541 On ch=1 n=c6 v=50
115712 Off ch=1 n=c6 v=0
115712 On ch=1 n=c#6 v=52
115712 Off ch=1 n=c#5 v=0
115712 On ch=1 n=c#5 v=14
115712 On ch=1 n=a#5 v=23
116224 Off ch=1 n=c#5 v=0
116224 Off ch=1 n=a#5 v=0
116224 On ch=1 n=c#5 v=14
116224 On ch=1 n=a#5 v=23
116736 Off ch=1 n=c#5 v=0
116736 Off ch=1 n=a#5 v=0
116736 On ch=1 n=c#5 v=12
116736 On ch=1 n=a#5 v=20
117248 Off ch=1 n=c#5 v=0
117248 Off ch=1 n=a#5 v=0
117248 On ch=1 n=c#5 v=9
117248 On ch=1 n=a#5 v=17
117760 Par ch=1 c=64 v=0
117760 Par ch=1 c=64 v=0
117760 Par ch=1 c=64 v=0
117760 Off ch=1 n=c#6 v=0
117760 Off ch=1 n=c#5 v=0
117760 Off ch=1 n=a#5 v=0
117760 On ch=1 n=a#5 v=29
117760 On ch=1 n=c#5 v=35
117760 On ch=1 n=c#6 v=56
118016 Off ch=1 n=c#5 v=0
118016 Off ch=1 n=c#6 v=0
118016 On ch=1 n=c5 v=30
118016 On ch=1 n=c6 v=51
118272 Off ch=1 n=a#5 v=0
118272 On ch=1 n=c5 v=35
118272 On ch=1 n=f#5 v=41
118528 Off ch=1 n=c5 v=0
118528 Off ch=1 n=c6 v=0
118528 On ch=1 n=c5 v=42
118528 On ch=1 n=c6 v=52
118694 Off ch=1 n=c5 v=0
118784 Off ch=1 n=c5 v=0
118784 Off ch=1 n=c6 v=0
118784 On ch=1 n=c5 v=32
118784 On ch=1 n=c6 v=53
118784 Off ch=1 n=f#5 v=0
118784 On ch=1 n=f#5 v=30
119040 Off ch=1 n=c5 v=0
119040 Off ch=1 n=c6 v=0
119040 On ch=1 n=a#4 v=42
119040 On ch=1 n=a#5 v=51
119296 Off ch=1 n=f#5 v=0
119296 On ch=1 n=a#4 v=33
119296 On ch=1 n=f#5 v=39
119552 Off ch=1 n=a#4 v=0
119552 Off ch=1 n=a#5 v=0
119552 On ch=1 n=a#4 v=44
119552 On ch=1 n=a#5 v=53
119718 Off ch=1 n=a#4 v=0
119808 Off ch=1 n=a#4 v=0
119808 Off ch=1 n=a#5 v=0
119808 On ch=1 n=a#4 v=27
119808 On ch=1 n=a#5 v=53
119808 Off ch=1 n=f#5 v=0
119808 On ch=1 n=f5 v=37
120064 Off ch=1 n=a#4 v=0
120064 Off ch=1 n=a#5 v=0
120064 On ch=1 n=a4 v=40
120064 On ch=1 n=a5 v=49
120320 Off ch=1 n=f5 v=0
120320 On ch=1 n=a4 v=35
120320 On ch=1 n=f5 v=40
120576 Off ch=1 n=a4 v=0
120576 Off ch=1 n=a5 v=0
120576 On ch=1 n=a#4 v=40
120576 On ch=1 n=a#5 v=49
120832 Par ch=1 c=64 v=0
120832 Par ch=1 c=64 v=0
120832 Par ch=1 c=64 v=0
120832 Off ch=1 n=a#4 v=0
120832 Off ch=1 n=a#5 v=0
120832 Off ch=1 n=a4 v=0
120832 Off ch=1 n=f5 v=0
120832 On ch=1 n=e5 v=21
120832 On ch=1 n=c#5 v=27
120832 On ch=1 n=c#6 v=53
121088 Off ch=1 n=c#5 v=0
121088 Off ch=1 n=c#6 v=0
121088 On ch=1 n=c5 v=30
121088 On ch=1 n=c6 v=51
121344 Off ch=1 n=e5 v=0
121344 On ch=1 n=c5 v=32
121344 On ch=1 n=e5 v=38
121600 Off ch=1 n=c5 v=0
121600 Off ch=1 n=c6 v=0
121600 On ch=1 n=c5 v=43
121600 On ch=1 n=c6 v=53
121856 Off ch=1 n=c5 v=0
121856 Off ch=1 n=c6 v=0
121856 On ch=1 n=c5 v=33
121856 On ch=1 n=c6 v=54
121856 Off ch=1 n=c5 v=0
121856 Off ch=1 n=e5 v=0
121856 On ch=1 n=e5 v=31
122112 Off ch=1 n=c5 v=0
122112 Off ch=1 n=c6 v=0
122112 On ch=1 n=a#4 v=40
122112 On ch=1 n=a#5 v=49
122368 Off ch=1 n=e5 v=0
122368 On ch=1 n=a#4 v=30
122368 On ch=1 n=e5 v=36
122624 Off ch=1 n=a#4 v=0
122624 Off ch=1 n=a#5 v=0
122624 On ch=1 n=a#4 v=41
122624 On ch=1 n=a#5 v=48
122880 Off ch=1 n=a#4 v=0
122880 Off ch=1 n=a#5 v=0
122880 On ch=1 n=a#4 v=28
122880 On ch=1 n=a#5 v=54
122880 Off ch=1 n=a#4 v=0
122880 Off ch=1 n=e5 v=0
122880 On ch=1 n=e5 v=38
123136 Off ch=1 n=a#4 v=0
123136 Off ch=1 n=a#5 v=0
123136 On ch=1 n=a4 v=39
123136 On ch=1 n=a5 v=51
123392 Off ch=1 n=a4 v=0
123392 Off ch=1 n=a5 v=0
123392 On ch=1 n=c5 v=40
123392 On ch=1 n=c6 v=52
123392 Off ch=1 n=e5 v=0
123392 On ch=1 n=e5 v=31
123648 Off ch=1 n=c5 v=0
123648 Off ch=1 n=c6 v=0
123648 On ch=1 n=a#4 v=34
123648 On ch=1 n=a#5 v=43
123904 Par ch=1 c=64 v=0
123904 Off ch=1 n=a#4 v=0
123904 Off ch=1 n=a#5 v=0
123904 Off ch=1 n=e5 v=0
123904 On ch=1 n=a#4 v=34
123904 On ch=1 n=c#5 v=34
123904 On ch=1 n=a#5 v=50
124416 Off ch=1 n=a#4 v=0
124416 Off ch=1 n=c#5 v=0
124416 On ch=1 n=a#4 v=25
124416 On ch=1 n=c#5 v=25
124928 Off ch=1 n=a#4 v=0
124928 Off ch=1 n=c#5 v=0
124928 Off ch=1 n=a#5 v=0
124928 On ch=1 n=a#4 v=25
124928 On ch=1 n=f5 v=25
124928 On ch=1 n=a#5 v=41
125440 Off ch=1 n=a#4 v=0
125440 Off ch=1 n=f5 v=0
125440 On ch=1 n=a#4 v=25
125440 On ch=1 n=f5 v=25
125952 Off ch=1 n=a#4 v=0
125952 Off ch=1 n=f5 v=0
125952 Off ch=1 n=a#5 v=0
125952 On ch=1 n=f5 v=25
125952 On ch=1 n=a#5 v=41
126464 Off ch=1 n=f5 v=0
126464 On ch=1 n=f5 v=25
126976 Par ch=1 c=64 v=0
126976 Off ch=1 n=f5 v=0
126976 Off ch=1 n=a#5 v=0
126976 On ch=1 n=a#5 v=50
127744 Off ch=1 n=a#5 v=0
127744 On ch=1 n=c6 v=50
128000 Off ch=1 n=c6 v=0
128000 On ch=1 n=c#6 v=50
130048 Par ch=1 c=64 v=0
130048 Par ch=1 c=64 v=0
130048 Off ch=1 n=c#6 v=0
130048 On ch=1 n=a#4 v=16
130048 On ch=1 n=f#5 v=30
130560 Off ch=1 n=a#4 v=0
130560 On ch=1 n=a#4 v=14
131072 Off ch=1 n=a#4 v=0
131072 Off ch=1 n=f#5 v=0
131072 On ch=1 n=a#4 v=13
131072 On ch=1 n=f#5 v=25
131584 Off ch=1 n=a#4 v=0
131584 On ch=1 n=a#4 v=11
132096 Off ch=1 n=a#4 v=0
132096 Off ch=1 n=f#5 v=0
132096 On ch=1 n=a#4 v=9
132096 On ch=1 n=f#5 v=22
132608 Off ch=1 n=a#4 v=0
132608 On ch=1 n=a#4 v=8
133120 Par ch=1 c=64 v=0
133120 Par ch=1 c=64 v=0
133120 Off ch=1 n=a#4 v=0
133120 Off ch=1 n=f#5 v=0
133120 On ch=1 n=f#5 v=47
133888 Off ch=1 n=f#5 v=0
133888 On ch=1 n=g#5 v=38
134144 Off ch=1 n=g#5 v=0
134144 On ch=1 n=a#5 v=40
136192 Par ch=1 c=64 v=0
136192 Off ch=1 n=a#5 v=0
136192 On ch=1 n=b4 v=26
136192 On ch=1 n=f#5 v=26
136192 On ch=1 n=b5 v=44
136960 Off ch=1 n=b4 v=0
136960 Off ch=1 n=f#5 v=0
136960 Off ch=1 n=b5 v=0
136960 On ch=1 n=c#6 v=35
137216 Off ch=1 n=c#6 v=0
137216 On ch=1 n=d#6 v=34
138240 Off ch=1 n=d#6 v=0
142336 Par ch=1 c=64 v=0
142336 On ch=1 n=f4 v=22
142336 On ch=1 n=a4 v=22
142336 On ch=1 n=d#5 v=22
142336 On ch=1 n=f5 v=35
142848 Off ch=1 n=f4 v=0
142848 Off ch=1 n=a4 v=0
142848 Off ch=1 n=d#5 v=0
142848 On ch=1 n=f4 v=20
142848 On ch=1 n=a4 v=20
142848 On ch=1 n=d#5 v=20
143360 Off ch=1 n=f4 v=0
143360 Off ch=1 n=a4 v=0
143360 Off ch=1 n=d#5 v=0
143360 Off ch=1 n=f5 v=0
143360 On ch=1 n=f4 v=19
143360 On ch=1 n=a4 v=19
143360 On ch=1 n=d#5 v=19
143360 On ch=1 n=f5 v=32
143872 Off ch=1 n=f4 v=0
143872 Off ch=1 n=a4 v=0
143872 Off ch=1 n=d#5 v=0
143872 On ch=1 n=f4 v=17
143872 On ch=1 n=a4 v=17
143872 On ch=1 n=d#5 v=17
144384 Off ch=1 n=f4 v=0
144384 Off ch=1 n=a4 v=0
144384 Off ch=1 n=d#5 v=0
144384 Off ch=1 n=f5 v=0
144384 On ch=1 n=f4 v=15
144384 On ch=1 n=a4 v=15
144384 On ch=1 n=d#5 v=15
144384 On ch=1 n=f5 v=28
144896 Off ch=1 n=f4 v=0
144896 Off ch=1 n=a4 v=0
144896 Off ch=1 n=d#5 v=0
144896 On ch=1 n=f4 v=14
144896 On ch=1 n=a4 v=14
144896 On ch=1 n=d#5 v=14
145408 Par ch=1 c=64 v=0
145408 Off ch=1 n=f4 v=0
145408 Off ch=1 n=a4 v=0
145408 Off ch=1 n=d#5 v=0
145408 Off ch=1 n=f5 v=0
145408 On ch=1 n=f4 v=12
145408 On ch=1 n=a#4 v=12
145408 On ch=1 n=d5 v=12
145408 On ch=1 n=f5 v=25
145920 Off ch=1 n=f4 v=0
145920 Off ch=1 n=a#4 v=0
145920 Off ch=1 n=d5 v=0
145920 On ch=1 n=f4 v=12
145920 On ch=1 n=a#4 v=12
145920 On ch=1 n=d5 v=12
146432 Off ch=1 n=f4 v=0
146432 Off ch=1 n=a#4 v=0
146432 Off ch=1 n=d5 v=0
146432 Off ch=1 n=f5 v=0
146944 On ch=1 n=a#4 v=12
146944 On ch=1 n=d5 v=17
147456 Off ch=1 n=a#4 v=0
147456 Off ch=1 n=d5 v=0
147456 On ch=1 n=a#4 v=12
147456 On ch=1 n=d5 v=17
147968 Off ch=1 n=a#4 v=0
147968 Off ch=1 n=d5 v=0
147968 On ch=1 n=a#4 v=12
147968 On ch=1 n=d5 v=17
148480 Par ch=1 c=64 v=0
148480 Par ch=1 c=64 v=0
148480 Off ch=1 n=a#4 v=0
148480 Off ch=1 n=d5 v=0
148480 On ch=1 n=f4 v=22
148480 On ch=1 n=a4 v=22
148480 On ch=1 n=d#5 v=22
148480 On ch=1 n=f5 v=35
148992 Off ch=1 n=f4 v=0
148992 Off ch=1 n=a4 v=0
148992 Off ch=1 n=d#5 v=0
148992 On ch=1 n=f4 v=20
148992 On ch=1 n=a4 v=20
148992 On ch=1 n=d#5 v=20
149504 Off ch=1 n=f4 v=0
149504 Off ch=1 n=a4 v=0
149504 Off ch=1 n=d#5 v=0
149504 Off ch=1 n=f5 v=0
149504 On ch=1 n=f4 v=19
149504 On ch=1 n=a4 v=19
149504 On ch=1 n=d#5 v=19
149504 On ch=1 n=f5 v=32
150016 Off ch=1 n=f4 v=0
150016 Off ch=1 n=a4 v=0
150016 Off ch=1 n=d#5 v=0
150016 On ch=1 n=f4 v=17
150016 On ch=1 n=a4 v=17
150016 On ch=1 n=d#5 v=17
150528 Off ch=1 n=f4 v=0
150528 Off ch=1 n=a4 v=0
150528 Off ch=1 n=d#5 v=0
150528 Off ch=1 n=f5 v=0
150528 On ch=1 n=f4 v=15
150528 On ch=1 n=a4 v=15
150528 On ch=1 n=d#5 v=15
150528 On ch=1 n=f5 v=28
151040 Off ch=1 n=f4 v=0
151040 Off ch=1 n=a4 v=0
151040 Off ch=1 n=d#5 v=0
151040 On ch=1 n=f4 v=14
151040 On ch=1 n=a4 v=14
151040 On ch=1 n=d#5 v=14
151552 Par ch=1 c=64 v=0
151552 Par ch=1 c=64 v=0
151552 Off ch=1 n=f4 v=0
151552 Off ch=1 n=a4 v=0
151552 Off ch=1 n=d#5 v=0
151552 Off ch=1 n=f5 v=0
151552 On ch=1 n=f4 v=12
151552 On ch=1 n=a#4 v=12
151552 On ch=1 n=d5 v=12
151552 On ch=1 n=f5 v=25
152064 Off ch=1 n=f4 v=0
152064 Off ch=1 n=a#4 v=0
152064 Off ch=1 n=d5 v=0
152064 On ch=1 n=f4 v=12
152064 On ch=1 n=a#4 v=12
152064 On ch=1 n=d5 v=12
152576 Off ch=1 n=f4 v=0
152576 Off ch=1 n=a#4 v=0
152576 Off ch=1 n=d5 v=0
152576 Off ch=1 n=f5 v=0
153088 On ch=1 n=a#4 v=12
153088 On ch=1 n=d5 v=17
153600 Off ch=1 n=a#4 v=0
153600 Off ch=1 n=d5 v=0
153600 On ch=1 n=a#4 v=12
153600 On ch=1 n=d5 v=17
154112 Off ch=1 n=a#4 v=0
154112 Off ch=1 n=d5 v=0
154112 On ch=1 n=a#4 v=12
154112 On ch=1 n=d5 v=17
154624 Par ch=1 c=64 v=0
154624 Off ch=1 n=a#4 v=0
154624 Off ch=1 n=d5 v=0
154624 On ch=1 n=b4 v=26
154624 On ch=1 n=d#5 v=26
154624 On ch=1 n=f5 v=21
154624 On ch=1 n=a5 v=21
154624 On ch=1 n=f6 v=21
154624 On ch=1 n=a6 v=21
154624 On ch=1 n=f7 v=38
155648 Off ch=1 n=b4 v=0
155648 Off ch=1 n=d#5 v=0
155648 Off ch=1 n=f5 v=0
155648 Off ch=1 n=a5 v=0
155648 Off ch=1 n=f6 v=0
155648 Off ch=1 n=a6 v=0
155648 Off ch=1 n=f7 v=0
157696 Par ch=1 c=64 v=0
157696 On ch=1 n=a#4 v=9
157696 On ch=1 n=d5 v=9
157696 On ch=1 n=f5 v=9
157696 On ch=1 n=a#5 v=9
157696 On ch=1 n=f6 v=9
157696 On ch=1 n=a#6 v=9
157696 On ch=1 n=f7 v=28
158720 Off ch=1 n=a#4 v=0
158720 Off ch=1 n=d5 v=0
158720 Off ch=1 n=f5 v=0
158720 Off ch=1 n=a#5 v=0
158720 Off ch=1 n=f6 v=0
158720 Off ch=1 n=a#6 v=0
158720 Off ch=1 n=f7 v=0
163840 Par ch=1 c=64 v=0
166912 Par ch=1 c=64 v=0
169984 Par ch=1 c=64 v=0
169987 Meta TrkEnd
TrkEnd
MTrk
0 Meta TrkName "Instrument  2"
0 PrCh ch=1 p=1
0 Par ch=1 c=64 v=0
768 On ch=1 n=a#3 v=30
1024 Par ch=1 c=64 v=0
1024 On ch=1 n=f4 v=9
1024 On ch=1 n=f5 v=18
1195 Par ch=1 c=64 v=127
1536 Off ch=1 n=f4 v=0
1536 Off ch=1 n=f5 v=0
1536 On ch=1 n=f4 v=9
1536 On ch=1 n=f5 v=18
2048 Off ch=1 n=f4 v=0
2048 Off ch=1 n=f5 v=0
2048 On ch=1 n=f4 v=9
2048 On ch=1 n=f5 v=18
2560 Off ch=1 n=f4 v=0
2560 Off ch=1 n=f5 v=0
2560 On ch=1 n=f4 v=11
2560 On ch=1 n=f5 v=20
2816 Off ch=1 n=a#3 v=0
2816 On ch=1 n=a#3 v=23
3072 Off ch=1 n=f4 v=0
3072 Off ch=1 n=f5 v=0
3072 On ch=1 n=f#4 v=13
3072 On ch=1 n=f#5 v=22
3115 Par ch=1 c=64 v=0
3285 Par ch=1 c=64 v=127
3584 Off ch=1 n=f#4 v=0
3584 Off ch=1 n=f#5 v=0
3584 On ch=1 n=f#4 v=9
3584 On ch=1 n=f#5 v=18
3968 Off ch=1 n=a#3 v=0
3968 On ch=1 n=a#3 v=23
4096 Par ch=1 c=64 v=127
4096 Off ch=1 n=f#4 v=0
4096 Off ch=1 n=f#5 v=0
4096 On ch=1 n=f4 v=9
4096 On ch=1 n=f5 v=9
4181 Par ch=1 c=64 v=0
4324 Par ch=1 c=64 v=127
4608 Off ch=1 n=f4 v=0
4608 Off ch=1 n=f5 v=0
4608 On ch=1 n=f4 v=9
4608 On ch=1 n=f5 v=18
5120 Off ch=1 n=f4 v=0
5120 Off ch=1 n=f5 v=0
5120 On ch=1 n=f4 v=9
5120 On ch=1 n=f5 v=18
5177 Par ch=1 c=64 v=0
5333 Par ch=1 c=64 v=127
5476 Par ch=1 c=64 v=0
5604 Par ch=1 c=64 v=127
5632 Off ch=1 n=f4 v=0
5632 Off ch=1 n=f5 v=0
5632 On ch=1 n=f4 v=9
5632 On ch=1 n=f5 v=18
6144 Off ch=1 n=f4 v=0
6144 Off ch=1 n=f5 v=0
6144 On ch=1 n=f4 v=9
6144 On ch=1 n=f5 v=18
6656 Off ch=1 n=f4 v=0
6656 Off ch=1 n=f5 v=0
6656 On ch=1 n=f4 v=9
6656 On ch=1 n=f5 v=18
7040 Off ch=1 n=a#3 v=0
7040 On ch=1 n=a#3 v=23
7168 Par ch=1 c=64 v=127
7168 Off ch=1 n=f4 v=0
7168 Off ch=1 n=f5 v=0
7168 On ch=1 n=f#4 v=22
7168 On ch=1 n=f#5 v=29
7268 Par ch=1 c=64 v=0
7396 Par ch=1 c=64 v=127
7467 Par ch=1 c=64 v=0
7580 Par ch=1 c=64 v=127
7680 Off ch=1 n=f#4 v=0
7680 Off ch=1 n=f#5 v=0
7680 On ch=1 n=f#4 v=31
7680 On ch=1 n=f#5 v=37
8060 Par ch=1 c=64 v=127
8192 Off ch=1 n=f#4 v=0
8192 Off ch=1 n=f#5 v=0
8192 On ch=1 n=f#4 v=31
8192 On ch=1 n=f#5 v=37
8704 Off ch=1 n=f#4 v=0
8704 Off ch=1 n=f#5 v=0
8704 On ch=1 n=f#4 v=29
8704 On ch=1 n=f#5 v=36
9088 Off ch=1 n=a#3 v=0
9088 On ch=1 n=a#3 v=35
9216 Off ch=1 n=f#4 v=0
9216 Off ch=1 n=f#5 v=0
9216 On ch=1 n=f#4 v=29
9216 On ch=1 n=d#5 v=36
9216 Off ch=1 n=a#3 v=0
9216 On ch=1 n=a#3 v=35
9273 Par ch=1 c=64 v=0
9372 Par ch=1 c=64 v=127
9557 Par ch=1 c=64 v=0
9671 Par ch=1 c=64 v=127
9728 Off ch=1 n=f#4 v=0
9728 Off ch=1 n=d#5 v=0
9728 On ch=1 n=f#4 v=29
9728 On ch=1 n=d#5 v=35
10240 Par ch=1 c=64 v=127
10240 Off ch=1 n=f#4 v=0
10240 Off ch=1 n=d#5 v=0
10240 Off ch=1 n=a#3 v=0
10240 On ch=1 n=a#3 v=29
10240 On ch=1 n=f#4 v=22
10240 On ch=1 n=d#5 v=29
10311 Par ch=1 c=64 v=0
10425 Par ch=1 c=64 v=127
10752 Off ch=1 n=f#4 v=0
10752 Off ch=1 n=d#5 v=0
10752 On ch=1 n=f#4 v=21
10752 On ch=1 n=d#5 v=28
11264 Off ch=1 n=f#4 v=0
11264 Off ch=1 n=d#5 v=0
11264 On ch=1 n=f#4 v=20
11264 On ch=1 n=d#5 v=26
11776 Off ch=1 n=f#4 v=0
11776 Off ch=1 n=d#5 v=0
11776 On ch=1 n=f#4 v=19
11776 On ch=1 n=d#5 v=25
12288 Off ch=1 n=f#4 v=0
12288 Off ch=1 n=d#5 v=0
12288 On ch=1 n=f#4 v=18
12288 On ch=1 n=d#5 v=24
12800 Off ch=1 n=f#4 v=0
12800 Off ch=1 n=d#5 v=0
12800 On ch=1 n=f#4 v=17
12800 On ch=1 n=d#5 v=22
12828 Par ch=1 c=64 v=0
12956 Par ch=1 c=64 v=127
13312 Par ch=1 c=64 v=127
13312 Par ch=1 c=64 v=0
13312 Off ch=1 n=a#3 v=0
13312 Off ch=1 n=f#4 v=0
13312 Off ch=1 n=d#5 v=0
13312 On ch=1 n=a#3 v=22
13312 On ch=1 n=f#4 v=13
13312 On ch=1 n=c#5 v=25
13383 Par ch=1 c=64 v=0
13497 Par ch=1 c=64 v=127
13824 Off ch=1 n=a#3 v=0
13824 Off ch=1 n=f#4 v=0
13824 On ch=1 n=a#3 v=12
13824 On ch=1 n=f#4 v=12
14336 On ch=1 n=b4 v=23
14336 Off ch=1 n=a#3 v=0
14336 Off ch=1 n=f#4 v=0
14336 On ch=1 n=a#3 v=11
14336 On ch=1 n=f#4 v=11
14395 Par ch=1 c=64 v=0
14396 Off ch=1 n=c#5 v=0
14541 Par ch=1 c=64 v=127
14848 Off ch=1 n=a#3 v=0
14848 Off ch=1 n=f#4 v=0
14848 On ch=1 n=a#3 v=9
14848 On ch=1 n=f#4 v=9
15360 On ch=1 n=a#4 v=14
15360 Off ch=1 n=a#3 v=0
15360 Off ch=1 n=f#4 v=0
15360 On ch=1 n=a#3 v=8
15360 On ch=1 n=f#4 v=8
15389 Par ch=1 c=64 v=0
15420 Off ch=1 n=b4 v=0
15448 Par ch=1 c=64 v=0
15696 Par ch=1 c=64 v=127
15872 Off ch=1 n=a#3 v=0
15872 Off ch=1 n=f#4 v=0
15872 On ch=1 n=a#3 v=7
15872 On ch=1 n=f#4 v=7
16384 Par ch=1 c=64 v=127
16384 Par ch=1 c=64 v=0
16384 Par ch=1 c=64 v=0
16384 Off ch=1 n=a#4 v=0
16384 Off ch=1 n=a#3 v=0
16384 Off ch=1 n=f#4 v=0
16384 On ch=1 n=a#3 v=22
16384 On ch=1 n=f#4 v=25
16455 Par ch=1 c=64 v=0
16569 Par ch=1 c=64 v=127
16896 Off ch=1 n=a#3 v=0
16896 On ch=1 n=a#3 v=12
17152 Off ch=1 n=f#4 v=0
17152 On ch=1 n=f4 v=22
17408 Off ch=1 n=f4 v=0
17408 On ch=1 n=d#4 v=23
17408 Off ch=1 n=a#3 v=0
17408 On ch=1 n=a#3 v=11
17408 On ch=1 n=a#4 v=11
17467 Par ch=1 c=64 v=0
17613 Par ch=1 c=64 v=127
17920 Off ch=1 n=a#3 v=0
17920 Off ch=1 n=a#4 v=0
17920 On ch=1 n=a#3 v=9
17920 On ch=1 n=a#4 v=9
18432 Off ch=1 n=a#3 v=0
18432 Off ch=1 n=a#4 v=0
18432 On ch=1 n=a#3 v=8
18432 On ch=1 n=a#4 v=8
18461 Par ch=1 c=64 v=0
18520 Par ch=1 c=64 v=0
18768 Par ch=1 c=64 v=127
18944 Off ch=1 n=a#3 v=0
18944 Off ch=1 n=a#4 v=0
18944 On ch=1 n=a#3 v=7
18944 On ch=1 n=a#4 v=7
19456 Par ch=1 c=64 v=127
19456 Par ch=1 c=64 v=0
19456 Off ch=1 n=d#4 v=0
19456 Off ch=1 n=a#3 v=0
19456 Off ch=1 n=a#4 v=0
19456 On ch=1 n=a#3 v=25
19456 On ch=1 n=a#4 v=18
19556 Par ch=1 c=64 v=0
19684 Par ch=1 c=64 v=127
19755 Par ch=1 c=64 v=0
19868 Par ch=1 c=64 v=127
19968 Off ch=1 n=a#4 v=0
19968 On ch=1 n=a#3 v=25
19968 On ch=1 n=a#4 v=30
20148 On ch=1 n=d#3 v=30
20314 On ch=1 n=a#3 v=25
20480 Off ch=1 n=a#3 v=0
20480 Off ch=1 n=a#3 v=0
20480 Off ch=1 n=a#4 v=0
20480 On ch=1 n=a#4 v=30
20537 Par ch=1 c=64 v=0
20665 Par ch=1 c=64 v=127
20821 Par ch=1 c=64 v=0
20921 Par ch=1 c=64 v=127
20992 Off ch=1 n=a#3 v=0
20992 Off ch=1 n=a#4 v=0
20992 On ch=1 n=a#3 v=24
20992 On ch=1 n=a#4 v=30
21504 Off ch=1 n=d#3 v=0
21504 Off ch=1 n=a#3 v=0
21504 Off ch=1 n=a#4 v=0
21504 On ch=1 n=c4 v=24
21504 On ch=1 n=a#4 v=30
21504 On ch=1 n=f#3 v=36
21561 Par ch=1 c=64 v=0
21660 Par ch=1 c=64 v=127
21845 Par ch=1 c=64 v=0
21959 Par ch=1 c=64 v=127
22016 Off ch=1 n=c4 v=0
22016 Off ch=1 n=a#4 v=0
22016 On ch=1 n=c4 v=24
22016 On ch=1 n=a#4 v=29
22528 Par ch=1 c=64 v=127
22528 Par ch=1 c=64 v=0
22528 Off ch=1 n=c4 v=0
22528 Off ch=1 n=a#4 v=0
22528 Off ch=1 n=f#3 v=0
22528 On ch=1 n=f3 v=22
22528 On ch=1 n=c4 v=15
22528 On ch=1 n=a#4 v=22
22599 Par ch=1 c=64 v=0
22713 Par ch=1 c=64 v=127
23040 Off ch=1 n=c4 v=0
23040 Off ch=1 n=a#4 v=0
23040 On ch=1 n=c4 v=21
23040 On ch=1 n=a#4 v=28
23552 Off ch=1 n=f3 v=0
23552 Off ch=1 n=c4 v=0
23552 Off ch=1 n=a#4 v=0
23552 On ch=1 n=f4 v=16
23552 On ch=1 n=a4 v=22
23611 Par ch=1 c=64 v=0
23801 Par ch=1 c=64 v=127
24064 Off ch=1 n=f4 v=0
24064 On ch=1 n=f4 v=19
24064 On ch=1 n=f5 v=25
24576 Off ch=1 n=f4 v=0
24576 Off ch=1 n=f5 v=0
24576 On ch=1 n=f4 v=18
24576 On ch=1 n=f5 v=24
25015 Par ch=1 c=64 v=127
25088 Off ch=1 n=f4 v=0
25088 Off ch=1 n=a4 v=0
25088 Off ch=1 n=f5 v=0
25088 On ch=1 n=f4 v=17
25088 On ch=1 n=f5 v=22
25344 On ch=1 n=a#3 v=22
25600 Par ch=1 c=64 v=0
25600 Par ch=1 c=64 v=0
25600 Off ch=1 n=f4 v=0
25600 Off ch=1 n=f5 v=0
25600 On ch=1 n=f4 v=9
25600 On ch=1 n=f5 v=18
25771 Par ch=1 c=64 v=127
26112 Off ch=1 n=f4 v=0
26112 Off ch=1 n=f5 v=0
26112 On ch=1 n=f4 v=9
26112 On ch=1 n=f5 v=18
26624 Off ch=1 n=f4 v=0
26624 Off ch=1 n=f5 v=0
26624 On ch=1 n=f4 v=9
26624 On ch=1 n=f5 v=18
27136 Off ch=1 n=f4 v=0
27136 Off ch=1 n=f5 v=0
27136 On ch=1 n=f4 v=11
27136 On ch=1 n=f5 v=20
27392 Off ch=1 n=a#3 v=0
27392 On ch=1 n=a#3 v=23
27648 Off ch=1 n=f4 v=0
27648 Off ch=1 n=f5 v=0
27648 On ch=1 n=f#4 v=13
27648 On ch=1 n=f#5 v=22
27691 Par ch=1 c=64 v=0
27861 Par ch=1 c=64 v=127
28160 Off ch=1 n=f#4 v=0
28160 Off ch=1 n=f#5 v=0
28160 On ch=1 n=f#4 v=9
28160 On ch=1 n=f#5 v=18
28544 Off ch=1 n=a#3 v=0
28544 On ch=1 n=a#3 v=23
28672 Par ch=1 c=64 v=127
28672 Par ch=1 c=64 v=0
28672 Off ch=1 n=f#4 v=0
28672 Off ch=1 n=f#5 v=0
28672 On ch=1 n=f4 v=9
28672 On ch=1 n=f5 v=9
28757 Par ch=1 c=64 v=0
28900 Par ch=1 c=64 v=127
29184 Off ch=1 n=f4 v=0
29184 Off ch=1 n=f5 v=0
29184 On ch=1 n=a#4 v=9
29184 On ch=1 n=f5 v=18
29696 Off ch=1 n=a#3 v=0
29696 Off ch=1 n=a#4 v=0
29696 Off ch=1 n=f5 v=0
29696 On ch=1 n=a#4 v=9
29696 On ch=1 n=f#5 v=18
29696 On ch=1 n=d#4 v=23
29753 Par ch=1 c=64 v=0
29909 Par ch=1 c=64 v=127
30052 Par ch=1 c=64 v=0
30180 Par ch=1 c=64 v=127
30208 Off ch=1 n=a#4 v=0
30208 Off ch=1 n=f#5 v=0
30208 On ch=1 n=a#4 v=9
30208 On ch=1 n=f#5 v=18
30720 Off ch=1 n=a#4 v=0
30720 Off ch=1 n=f#5 v=0
30720 On ch=1 n=a#4 v=9
30720 On ch=1 n=f#5 v=18
31232 Off ch=1 n=a#4 v=0
31232 Off ch=1 n=f#5 v=0
31232 On ch=1 n=a#4 v=9
31232 On ch=1 n=f#5 v=18
31412 On ch=1 n=e4 v=22
31578 On ch=1 n=a#4 v=22
31744 Par ch=1 c=64 v=127
31744 Par ch=1 c=64 v=0
31744 Off ch=1 n=a#4 v=0
31744 Off ch=1 n=f#5 v=0
31744 Off ch=1 n=d#4 v=0
31744 On ch=1 n=f#5 v=34
31844 Par ch=1 c=64 v=0
31972 Par ch=1 c=64 v=127
32043 Par ch=1 c=64 v=0
32156 Par ch=1 c=64 v=127
32256 Off ch=1 n=e4 v=0
32256 Off ch=1 n=a#4 v=0
32256 Off ch=1 n=f#5 v=0
32256 On ch=1 n=e3 v=31
32256 On ch=1 n=c#4 v=22
32768 Off ch=1 n=c#4 v=0
32768 On ch=1 n=c#4 v=23
32768 On ch=1 n=f#4 v=30
32825 Par ch=1 c=64 v=0
32953 Par ch=1 c=64 v=127
33109 Par ch=1 c=64 v=0
33209 Par ch=1 c=64 v=127
33280 Off ch=1 n=c#4 v=0
33280 Off ch=1 n=f#4 v=0
33280 On ch=1 n=e4 v=23
33280 On ch=1 n=c#5 v=30
33792 Off ch=1 n=e4 v=0
33792 Off ch=1 n=c#5 v=0
33792 On ch=1 n=f4 v=23
33792 On ch=1 n=c#5 v=30
33849 Par ch=1 c=64 v=0
33948 Par ch=1 c=64 v=127
34133 Par ch=1 c=64 v=0
34247 Par ch=1 c=64 v=127
34304 Off ch=1 n=e3 v=0
34304 Off ch=1 n=f4 v=0
34304 Off ch=1 n=c#5 v=0
34304 On ch=1 n=f3 v=31
34304 On ch=1 n=c#4 v=24
34816 Par ch=1 c=64 v=127
34816 Par ch=1 c=64 v=0
34816 Par ch=1 c=64 v=0
34816 Off ch=1 n=f3 v=0
34816 Off ch=1 n=c#4 v=0
34816 On ch=1 n=f#4 v=28
34916 Par ch=1 c=64 v=0
35044 Par ch=1 c=64 v=127
35115 Par ch=1 c=64 v=0
35228 Par ch=1 c=64 v=127
35328 Off ch=1 n=f#4 v=0
35328 On ch=1 n=f#3 v=32
35328 On ch=1 n=e4 v=24
35840 Off ch=1 n=e4 v=0
35840 On ch=1 n=e4 v=24
35840 On ch=1 n=c#5 v=32
35897 Par ch=1 c=64 v=0
36025 Par ch=1 c=64 v=127
36181 Par ch=1 c=64 v=0
36281 Par ch=1 c=64 v=127
36352 Off ch=1 n=e4 v=0
36352 Off ch=1 n=c#5 v=0
36352 On ch=1 n=c#4 v=25
36352 On ch=1 n=a#4 v=32
36864 Off ch=1 n=c#4 v=0
36864 Off ch=1 n=a#4 v=0
36864 On ch=1 n=d#4 v=25
36864 On ch=1 n=c#5 v=33
36921 Par ch=1 c=64 v=0
37020 Par ch=1 c=64 v=127
37205 Par ch=1 c=64 v=0
37319 Par ch=1 c=64 v=127
37376 Off ch=1 n=f#3 v=0
37376 Off ch=1 n=d#4 v=0
37376 Off ch=1 n=c#5 v=0
37376 On ch=1 n=g3 v=33
37376 On ch=1 n=d#4 v=25
37888 Par ch=1 c=64 v=127
37888 Par ch=1 c=64 v=0
37888 Par ch=1 c=64 v=0
37888 Off ch=1 n=g3 v=0
37888 Off ch=1 n=d#4 v=0
37888 On ch=1 n=f4 v=49
37988 Par ch=1 c=64 v=0
38116 Par ch=1 c=64 v=127
38187 Par ch=1 c=64 v=0
38229 On ch=1 n=g#3 v=38
38300 Par ch=1 c=64 v=127
38571 Off ch=1 n=g#3 v=0
38571 On ch=1 n=g#2 v=37
38912 Off ch=1 n=f4 v=0
38912 On ch=1 n=f4 v=44
38969 Par ch=1 c=64 v=0
39097 Par ch=1 c=64 v=127
39253 Par ch=1 c=64 v=0
39253 Off ch=1 n=g#2 v=0
39253 On ch=1 n=g#3 v=33
39353 Par ch=1 c=64 v=127
39595 Off ch=1 n=g#3 v=0
39595 On ch=1 n=g#2 v=32
39936 On ch=1 n=e4 v=39
39993 Par ch=1 c=64 v=0
39996 Off ch=1 n=f4 v=0
40092 Par ch=1 c=64 v=127
40277 Par ch=1 c=64 v=0
40277 Off ch=1 n=g#2 v=0
40277 On ch=1 n=g#3 v=28
40391 Par ch=1 c=64 v=127
40619 Off ch=1 n=g#3 v=0
40619 On ch=1 n=g#2 v=26
40960 Par ch=1 c=64 v=0
40960 Off ch=1 n=g#2 v=0
40960 On ch=1 n=d#4 v=34
41020 Off ch=1 n=e4 v=0
41301 On ch=1 n=g#3 v=23
41643 Off ch=1 n=g#3 v=0
41643 On ch=1 n=g#2 v=21
41984 Off ch=1 n=d#4 v=0
41984 On ch=1 n=g#4 v=25
42496 Off ch=1 n=g#2 v=0
42496 On ch=1 n=g#3 v=17
43008 Off ch=1 n=g#3 v=0
43008 On ch=1 n=g#3 v=15
43520 Off ch=1 n=g#3 v=0
43520 On ch=1 n=g#3 v=12
44032 Par ch=1 c=64 v=127
44032 Par ch=1 c=64 v=0
44032 Par ch=1 c=64 v=0
44032 Par ch=1 c=64 v=0
44032 Par ch=1 c=64 v=127
44032 Par ch=1 c=64 v=0
44032 Par ch=1 c=64 v=0
44032 Off ch=1 n=g#3 v=0
44032 Off ch=1 n=g#4 v=0
44032 On ch=1 n=c#3 v=24
44032 On ch=1 n=g#3 v=33
44134 Par ch=1 c=64 v=0
44134 Par ch=1 c=64 v=0
44266 Par ch=1 c=64 v=127
44266 Par ch=1 c=64 v=127
44288 On ch=1 n=g#4 v=39
44544 Off ch=1 n=c#3 v=0
44544 Off ch=1 n=g#3 v=0
44544 On ch=1 n=c4 v=40
44715 Off ch=1 n=c4 v=0
44715 On ch=1 n=a#3 v=38
44971 Off ch=1 n=a#3 v=0
44971 On ch=1 n=g#3 v=34
45056 Off ch=1 n=g#3 v=0
45056 On ch=1 n=g#3 v=33
45085 Par ch=1 c=64 v=0
45085 Par ch=1 c=64 v=0
45275 Par ch=1 c=64 v=127
45275 Par ch=1 c=64 v=127
45583 Par ch=1 c=64 v=0
45583 Par ch=1 c=64 v=0
45773 Par ch=1 c=64 v=127
45861 Par ch=1 c=64 v=0
46036 Par ch=1 c=64 v=127
46036 Par ch=1 c=64 v=127
46168 Par ch=1 c=64 v=0
46373 Par ch=1 c=64 v=127
46592 Off ch=1 n=g#3 v=0
46592 On ch=1 n=g#3 v=22
47104 Par ch=1 c=64 v=127
47104 Off ch=1 n=g#4 v=0
47104 Off ch=1 n=g#3 v=0
47104 On ch=1 n=c#3 v=17
47104 On ch=1 n=g#3 v=24
47206 Par ch=1 c=64 v=0
47382 Par ch=1 c=64 v=127
47733 Par ch=1 c=64 v=0
47909 Par ch=1 c=64 v=127
48128 Par ch=1 c=64 v=0
48128 Off ch=1 n=c#3 v=0
48128 Off ch=1 n=g#3 v=0
48128 On ch=1 n=a2 v=10
48128 On ch=1 n=a3 v=22
48362 Par ch=1 c=64 v=127
48384 On ch=1 n=a3 v=13
48640 Off ch=1 n=a3 v=0
48640 On ch=1 n=e4 v=17
48896 Off ch=1 n=e4 v=0
48896 On ch=1 n=c#5 v=20
49152 Off ch=1 n=c#5 v=0
49152 On ch=1 n=g5 v=24
49664 Off ch=1 n=g5 v=0
49664 On ch=1 n=a3 v=26
49723 Par ch=1 c=64 v=0
50044 Par ch=1 c=64 v=127
50176 Par ch=1 c=64 v=127
50176 Par ch=1 c=64 v=0
50176 Par ch=1 c=64 v=0
50176 Par ch=1 c=64 v=0
50176 Par ch=1 c=64 v=127
50176 Par ch=1 c=64 v=0
50176 Par ch=1 c=64 v=0
50176 Par ch=1 c=64 v=0
50176 Off ch=1 n=a2 v=0
50176 Off ch=1 n=a3 v=0
50176 Off ch=1 n=a3 v=0
50176 On ch=1 n=g#2 v=24
50176 On ch=1 n=g#3 v=33
50278 Par ch=1 c=64 v=0
50278 Par ch=1 c=64 v=0
50410 Par ch=1 c=64 v=127
50410 Par ch=1 c=64 v=127
50432 On ch=1 n=g#4 v=39
50688 Off ch=1 n=g#2 v=0
50688 Off ch=1 n=g#3 v=0
50688 On ch=1 n=c4 v=40
50859 Off ch=1 n=c4 v=0
50859 On ch=1 n=a#3 v=38
51115 Off ch=1 n=a#3 v=0
51115 On ch=1 n=g#3 v=34
51200 Off ch=1 n=g#3 v=0
51200 On ch=1 n=g#3 v=33
51229 Par ch=1 c=64 v=0
51229 Par ch=1 c=64 v=0
51419 Par ch=1 c=64 v=127
51419 Par ch=1 c=64 v=127
51727 Par ch=1 c=64 v=0
51727 Par ch=1 c=64 v=0
51917 Par ch=1 c=64 v=127
52005 Par ch=1 c=64 v=0
52180 Par ch=1 c=64 v=127
52180 Par ch=1 c=64 v=127
52312 Par ch=1 c=64 v=0
52517 Par ch=1 c=64 v=127
52736 Off ch=1 n=g#3 v=0
52736 On ch=1 n=g#3 v=22
53248 Par ch=1 c=64 v=127
53248 Par ch=1 c=64 v=0
53248 Off ch=1 n=g#4 v=0
53248 Off ch=1 n=g#3 v=0
53248 On ch=1 n=c#3 v=18
53248 On ch=1 n=g#3 v=25
53350 Par ch=1 c=64 v=0
53526 Par ch=1 c=64 v=127
53877 Par ch=1 c=64 v=0
54053 Par ch=1 c=64 v=127
54272 Par ch=1 c=64 v=0
54272 Off ch=1 n=c#3 v=0
54272 Off ch=1 n=g#3 v=0
54272 On ch=1 n=a2 v=10
54272 On ch=1 n=a3 v=22
54506 Par ch=1 c=64 v=127
54528 On ch=1 n=a3 v=13
54784 Off ch=1 n=a3 v=0
54784 On ch=1 n=e4 v=17
55040 Off ch=1 n=e4 v=0
55040 On ch=1 n=c#5 v=20
55296 Off ch=1 n=c#5 v=0
55296 On ch=1 n=g5 v=24
55808 Off ch=1 n=g5 v=0
55808 On ch=1 n=a3 v=27
55867 Par ch=1 c=64 v=0
56188 Par ch=1 c=64 v=127
56320 Par ch=1 c=64 v=127
56320 Off ch=1 n=a2 v=0
56320 Off ch=1 n=a3 v=0
56320 Off ch=1 n=a3 v=0
56320 On ch=1 n=d4 v=33
56408 Par ch=1 c=64 v=0
56554 Par ch=1 c=64 v=127
57088 Off ch=1 n=d4 v=0
57088 On ch=1 n=d4 v=33
57344 On ch=1 n=c4 v=33
57384 Off ch=1 n=d4 v=0
57388 Par ch=1 c=64 v=0
57578 Par ch=1 c=64 v=127
58368 On ch=1 n=b3 v=33
58408 Off ch=1 n=c4 v=0
58441 Par ch=1 c=64 v=0
58631 Par ch=1 c=64 v=127
59392 Par ch=1 c=64 v=127
59392 Par ch=1 c=64 v=0
59392 Par ch=1 c=64 v=0
59392 On ch=1 n=e4 v=33
59432 Off ch=1 n=b3 v=0
59494 Par ch=1 c=64 v=0
59670 Par ch=1 c=64 v=127
60021 Par ch=1 c=64 v=0
60197 Par ch=1 c=64 v=127
60416 Par ch=1 c=64 v=0
60416 On ch=1 n=d4 v=39
60466 Off ch=1 n=e4 v=0
60650 Par ch=1 c=64 v=127
60928 On ch=1 n=g#4 v=41
60978 Off ch=1 n=d4 v=0
61440 Par ch=1 c=64 v=0
61440 On ch=1 n=d4 v=41
61490 Off ch=1 n=g#4 v=0
61596 Par ch=1 c=64 v=127
61952 On ch=1 n=c#4 v=31
62002 Off ch=1 n=d4 v=0
62011 Par ch=1 c=64 v=0
62332 Par ch=1 c=64 v=127
62464 Par ch=1 c=64 v=127
62464 Par ch=1 c=64 v=0
62464 On ch=1 n=f#4 v=38
62514 Off ch=1 n=c#4 v=0
62552 Par ch=1 c=64 v=0
62698 Par ch=1 c=64 v=127
63232 Off ch=1 n=f#4 v=0
63232 On ch=1 n=f#4 v=40
63488 On ch=1 n=e4 v=41
63528 Off ch=1 n=f#4 v=0
63532 Par ch=1 c=64 v=0
63722 Par ch=1 c=64 v=127
64512 On ch=1 n=d#4 v=43
64552 Off ch=1 n=e4 v=0
64585 Par ch=1 c=64 v=0
64775 Par ch=1 c=64 v=127
65536 Par ch=1 c=64 v=127
65536 Par ch=1 c=64 v=0
65536 Par ch=1 c=64 v=0
65536 Par ch=1 c=64 v=0
65536 On ch=1 n=g#4 v=40
65576 Off ch=1 n=d#4 v=0
65638 Par ch=1 c=64 v=0
65814 Par ch=1 c=64 v=127
66165 Par ch=1 c=64 v=0
66341 Par ch=1 c=64 v=127
66560 Par ch=1 c=64 v=0
66560 On ch=1 n=g4 v=38
66610 Off ch=1 n=g#4 v=0
66794 Par ch=1 c=64 v=127
67584 Par ch=1 c=64 v=0
67584 On ch=1 n=f#4 v=34
67634 Off ch=1 n=g4 v=0
67740 Par ch=1 c=64 v=127
68096 On ch=1 n=f#3 v=22
68096 On ch=1 n=c4 v=22
68146 Off ch=1 n=f#4 v=0
68155 Par ch=1 c=64 v=0
68476 Par ch=1 c=64 v=127
68608 Par ch=1 c=64 v=127
68608 On ch=1 n=f3 v=22
68608 On ch=1 n=c4 v=22
68658 Off ch=1 n=f#3 v=0
68658 Off ch=1 n=c4 v=0
68750 Par ch=1 c=64 v=0
68864 On ch=1 n=c5 v=32
68892 Par ch=1 c=64 v=127
69120 Off ch=1 n=f3 v=0
69120 Off ch=1 n=c4 v=0
69120 On ch=1 n=f4 v=33
69291 Off ch=1 n=f4 v=0
69291 On ch=1 n=d4 v=29
69547 Off ch=1 n=d4 v=0
69547 On ch=1 n=c4 v=22
69632 Off ch=1 n=c4 v=0
69632 On ch=1 n=c4 v=22
69675 Par ch=1 c=64 v=0
69860 Par ch=1 c=64 v=127
70656 Off ch=1 n=c5 v=0
71680 Par ch=1 c=64 v=127
71680 Off ch=1 n=c4 v=0
71680 On ch=1 n=f3 v=30
71751 Par ch=1 c=64 v=0
71936 On ch=1 n=c4 v=33
71950 Par ch=1 c=64 v=127
72192 Off ch=1 n=c4 v=0
72192 On ch=1 n=f#4 v=37
72363 Off ch=1 n=f#4 v=0
72363 On ch=1 n=e5 v=39
72533 Off ch=1 n=e5 v=0
72533 On ch=1 n=a#5 v=43
72704 Off ch=1 n=a#5 v=0
72704 On ch=1 n=a#5 v=44
73728 Off ch=1 n=f3 v=0
73728 Off ch=1 n=a#5 v=0
73728 On ch=1 n=f#4 v=24
73742 Par ch=1 c=64 v=0
73970 Par ch=1 c=64 v=127
74752 Par ch=1 c=64 v=127
74752 Par ch=1 c=64 v=0
74752 Off ch=1 n=f#4 v=0
74752 On ch=1 n=f3 v=22
74752 On ch=1 n=c4 v=22
74894 Par ch=1 c=64 v=0
75008 On ch=1 n=c5 v=32
75036 Par ch=1 c=64 v=127
75264 Off ch=1 n=f3 v=0
75264 Off ch=1 n=c4 v=0
75264 On ch=1 n=f4 v=33
75435 Off ch=1 n=f4 v=0
75435 On ch=1 n=d4 v=29
75691 Off ch=1 n=d4 v=0
75691 On ch=1 n=c4 v=22
75776 Off ch=1 n=c4 v=0
75776 On ch=1 n=c4 v=22
75819 Par ch=1 c=64 v=0
76004 Par ch=1 c=64 v=127
76800 Off ch=1 n=c5 v=0
77824 Par ch=1 c=64 v=127
77824 Par ch=1 c=64 v=0
77824 Off ch=1 n=c4 v=0
77824 On ch=1 n=f3 v=30
77895 Par ch=1 c=64 v=0
78080 On ch=1 n=c4 v=33
78094 Par ch=1 c=64 v=127
78336 Off ch=1 n=c4 v=0
78336 On ch=1 n=f#4 v=37
78507 Off ch=1 n=f#4 v=0
78507 On ch=1 n=e5 v=39
78677 Off ch=1 n=e5 v=0
78677 On ch=1 n=a#5 v=43
78848 Off ch=1 n=a#5 v=0
78848 On ch=1 n=a#5 v=44
79872 Off ch=1 n=f3 v=0
79872 Off ch=1 n=a#5 v=0
79872 On ch=1 n=f#4 v=24
79886 Par ch=1 c=64 v=0
80114 Par ch=1 c=64 v=127
80896 Par ch=1 c=64 v=127
80896 Par ch=1 c=64 v=0
80896 Par ch=1 c=64 v=0
80896 Off ch=1 n=f#4 v=0
80896 On ch=1 n=f3 v=38
80967 Par ch=1 c=64 v=0
81152 On ch=1 n=c4 v=41
81166 Par ch=1 c=64 v=127
81408 Off ch=1 n=c4 v=0
81408 On ch=1 n=f#4 v=45
81579 Off ch=1 n=f#4 v=0
81579 On ch=1 n=d#5 v=47
81749 Off ch=1 n=d#5 v=0
81749 On ch=1 n=a#5 v=51
81920 Off ch=1 n=a#5 v=0
81920 On ch=1 n=a#5 v=52
82944 Off ch=1 n=f3 v=0
82944 Off ch=1 n=a#5 v=0
82944 On ch=1 n=f#4 v=32
82958 Par ch=1 c=64 v=0
83186 Par ch=1 c=64 v=127
83968 Par ch=1 c=64 v=127
83968 Par ch=1 c=64 v=0
83968 Off ch=1 n=f#4 v=0
83968 On ch=1 n=f4 v=33
84070 Par ch=1 c=64 v=0
84202 Par ch=1 c=64 v=127
84495 Par ch=1 c=64 v=0
84626 Par ch=1 c=64 v=127
84992 Off ch=1 n=f4 v=0
84992 On ch=1 n=c5 v=39
85021 Par ch=1 c=64 v=0
85153 Par ch=1 c=64 v=127
85533 Par ch=1 c=64 v=0
85680 Par ch=1 c=64 v=127
86016 Off ch=1 n=c5 v=0
86016 On ch=1 n=c#5 v=50
86045 Par ch=1 c=64 v=0
86235 Par ch=1 c=64 v=127
86357 Off ch=1 n=c#5 v=0
86357 On ch=1 n=d#5 v=48
86557 Par ch=1 c=64 v=0
86699 Off ch=1 n=d#5 v=0
86699 On ch=1 n=e5 v=50
86747 Par ch=1 c=64 v=127
87040 Par ch=1 c=64 v=0
87040 Par ch=1 c=64 v=0
87040 Off ch=1 n=e5 v=0
87040 On ch=1 n=f5 v=50
87211 Par ch=1 c=64 v=127
87296 On ch=1 n=a#4 v=34
87552 Off ch=1 n=a#4 v=0
87552 On ch=1 n=f4 v=34
87808 Off ch=1 n=f4 v=0
87808 On ch=1 n=a#3 v=34
88064 Off ch=1 n=f5 v=0
88064 On ch=1 n=g#5 v=50
88320 Off ch=1 n=a#3 v=0
88320 On ch=1 n=a#4 v=34
88576 Off ch=1 n=a#4 v=0
88576 On ch=1 n=f4 v=34
88832 Off ch=1 n=f4 v=0
88832 On ch=1 n=a#3 v=34
89088 Off ch=1 n=g#5 v=0
89088 On ch=1 n=f#5 v=47
89131 Par ch=1 c=64 v=0
89301 Par ch=1 c=64 v=127
89344 Off ch=1 n=a#3 v=0
89344 On ch=1 n=a#4 v=34
89600 Off ch=1 n=a#4 v=0
89600 On ch=1 n=d#4 v=34
89856 Off ch=1 n=d#4 v=0
89856 On ch=1 n=a#3 v=30
90112 Par ch=1 c=64 v=127
90112 Par ch=1 c=64 v=0
90112 Off ch=1 n=f#5 v=0
90112 On ch=1 n=f5 v=44
90197 Par ch=1 c=64 v=0
90340 Par ch=1 c=64 v=127
90368 On ch=1 n=a#4 v=30
90624 Off ch=1 n=a#4 v=0
90624 On ch=1 n=f4 v=27
90880 Off ch=1 n=f4 v=0
90880 On ch=1 n=a#3 v=25
91136 Off ch=1 n=a#3 v=0
91136 Off ch=1 n=f5 v=0
91136 Off ch=1 n=a#3 v=0
91136 On ch=1 n=f3 v=22
91193 Par ch=1 c=64 v=0
91349 Par ch=1 c=64 v=127
91392 Off ch=1 n=f3 v=0
91392 On ch=1 n=a#2 v=20
91392 On ch=1 n=a#3 v=20
91492 Par ch=1 c=64 v=0
91620 Par ch=1 c=64 v=127
91648 On ch=1 n=f3 v=22
91904 Off ch=1 n=f3 v=0
91904 Off ch=1 n=a#3 v=0
91904 On ch=1 n=a#3 v=23
92160 Off ch=1 n=a#3 v=0
92160 On ch=1 n=f4 v=28
92416 Off ch=1 n=a#2 v=0
92416 Off ch=1 n=f4 v=0
92416 On ch=1 n=a#3 v=31
92672 Off ch=1 n=a#3 v=0
92672 On ch=1 n=f4 v=34
92928 Off ch=1 n=f4 v=0
92928 On ch=1 n=f5 v=38
93184 Par ch=1 c=64 v=127
93184 Par ch=1 c=64 v=0
93184 Off ch=1 n=f5 v=0
93184 On ch=1 n=f#5 v=30
93284 Par ch=1 c=64 v=0
93412 Par ch=1 c=64 v=127
93440 On ch=1 n=a#4 v=30
93483 Par ch=1 c=64 v=0
93596 Par ch=1 c=64 v=127
93696 On ch=1 n=f#4 v=29
93952 Off ch=1 n=a#4 v=0
93952 Off ch=1 n=f#5 v=0
93952 On ch=1 n=a#3 v=28
94208 On ch=1 n=a#4 v=27
94265 Par ch=1 c=64 v=0
94393 Par ch=1 c=64 v=127
94464 Off ch=1 n=a#3 v=0
94464 Off ch=1 n=f#4 v=0
94464 On ch=1 n=d#4 v=27
94549 Par ch=1 c=64 v=0
94649 Par ch=1 c=64 v=127
94720 Off ch=1 n=a#4 v=0
94720 On ch=1 n=a#3 v=26
94976 On ch=1 n=d#3 v=25
95232 Off ch=1 n=a#3 v=0
95232 Off ch=1 n=d#4 v=0
95232 On ch=1 n=f#4 v=24
95289 Par ch=1 c=64 v=0
95388 Par ch=1 c=64 v=127
95488 On ch=1 n=a#3 v=24
95573 Par ch=1 c=64 v=0
95687 Par ch=1 c=64 v=127
95744 Off ch=1 n=d#3 v=0
95744 On ch=1 n=d#3 v=22
96000 Off ch=1 n=d#3 v=0
96000 Off ch=1 n=f#4 v=0
96000 On ch=1 n=a#2 v=22
96256 Par ch=1 c=64 v=127
96256 Par ch=1 c=64 v=0
96256 Off ch=1 n=a#3 v=0
96256 On ch=1 n=f#3 v=31
96327 Par ch=1 c=64 v=0
96441 Par ch=1 c=64 v=127
96512 Off ch=1 n=f#3 v=0
96512 On ch=1 n=d#4 v=22
96768 Off ch=1 n=d#4 v=0
96768 On ch=1 n=f#3 v=22
97024 Off ch=1 n=f#3 v=0
97024 On ch=1 n=d#4 v=22
97280 Off ch=1 n=d#4 v=0
97280 On ch=1 n=b4 v=22
97536 Off ch=1 n=b4 v=0
97536 On ch=1 n=d#4 v=22
97792 On ch=1 n=b4 v=25
98048 On ch=1 n=f#5 v=27
98304 Off ch=1 n=f#5 v=0
98304 On ch=1 n=f#5 v=30
98844 Par ch=1 c=64 v=0
98972 Par ch=1 c=64 v=127
99328 Par ch=1 c=64 v=127
99328 Par ch=1 c=64 v=0
99328 Par ch=1 c=64 v=0
99328 Off ch=1 n=a#2 v=0
99328 Off ch=1 n=d#4 v=0
99328 Off ch=1 n=b4 v=0
99328 Off ch=1 n=f#5 v=0
99328 On ch=1 n=c#5 v=42
99399 Par ch=1 c=64 v=0
99513 Par ch=1 c=64 v=127
99584 On ch=1 n=d#4 v=27
99840 Off ch=1 n=d#4 v=0
99840 On ch=1 n=f#3 v=27
100096 Off ch=1 n=f#3 v=0
100096 On ch=1 n=a#2 v=26
100352 On ch=1 n=b4 v=40
100392 Off ch=1 n=c#5 v=0
100411 Par ch=1 c=64 v=0
100557 Par ch=1 c=64 v=127
100608 Off ch=1 n=a#2 v=0
100608 On ch=1 n=d#4 v=25
100864 Off ch=1 n=d#4 v=0
100864 On ch=1 n=f#3 v=25
101120 Off ch=1 n=f#3 v=0
101120 On ch=1 n=a#2 v=24
101376 On ch=1 n=a#4 v=37
101405 Par ch=1 c=64 v=0
101416 Off ch=1 n=b4 v=0
101464 Par ch=1 c=64 v=0
101632 Off ch=1 n=a#2 v=0
101632 On ch=1 n=d#4 v=23
101712 Par ch=1 c=64 v=127
101888 Off ch=1 n=d#4 v=0
101888 On ch=1 n=f#3 v=23
102144 Off ch=1 n=f#3 v=0
102144 On ch=1 n=a#2 v=22
102400 Par ch=1 c=64 v=127
102400 Par ch=1 c=64 v=0
102400 Par ch=1 c=64 v=0
102400 Par ch=1 c=64 v=0
102400 Off ch=1 n=a#2 v=0
102400 On ch=1 n=f#4 v=35
102440 Off ch=1 n=a#4 v=0
102471 Par ch=1 c=64 v=0
102585 Par ch=1 c=64 v=127
102656 On ch=1 n=a#3 v=21
102912 Off ch=1 n=a#3 v=0
102912 On ch=1 n=a#2 v=21
103168 On ch=1 n=f4 v=34
103208 Off ch=1 n=f#4 v=0
103424 On ch=1 n=d#4 v=33
103464 Off ch=1 n=f4 v=0
103483 Par ch=1 c=64 v=0
103629 Par ch=1 c=64 v=127
103680 Off ch=1 n=a#2 v=0
103680 On ch=1 n=a#3 v=19
103936 Off ch=1 n=a#3 v=0
103936 On ch=1 n=d#3 v=19
104192 Off ch=1 n=d#3 v=0
104192 On ch=1 n=a#2 v=18
104448 Off ch=1 n=a#2 v=0
104448 On ch=1 n=d#3 v=22
104477 Par ch=1 c=64 v=0
104536 Par ch=1 c=64 v=0
104704 Off ch=1 n=d#3 v=0
104704 On ch=1 n=a#3 v=25
104784 Par ch=1 c=64 v=127
104960 Off ch=1 n=a#3 v=0
104960 On ch=1 n=d#4 v=29
105216 Off ch=1 n=d#4 v=0
105216 On ch=1 n=a#4 v=32
105472 Par ch=1 c=64 v=127
105472 Par ch=1 c=64 v=0
105472 Par ch=1 c=64 v=0
105472 Off ch=1 n=a#4 v=0
105472 Off ch=1 n=d#4 v=0
105472 On ch=1 n=a#4 v=26
105572 Par ch=1 c=64 v=0
105700 Par ch=1 c=64 v=127
105771 Par ch=1 c=64 v=0
105813 Off ch=1 n=a#4 v=0
105813 On ch=1 n=a#3 v=26
105884 Par ch=1 c=64 v=127
106155 Off ch=1 n=a#3 v=0
106155 On ch=1 n=a#2 v=32
106496 On ch=1 n=a#4 v=26
106553 Par ch=1 c=64 v=0
106681 Par ch=1 c=64 v=127
106837 Par ch=1 c=64 v=0
106837 Off ch=1 n=a#4 v=0
106837 On ch=1 n=a#3 v=26
106937 Par ch=1 c=64 v=127
107179 Off ch=1 n=a#2 v=0
107179 Off ch=1 n=a#3 v=0
107179 On ch=1 n=d#3 v=32
107520 On ch=1 n=a#4 v=26
107577 Par ch=1 c=64 v=0
107676 Par ch=1 c=64 v=127
107861 Par ch=1 c=64 v=0
107861 Off ch=1 n=a#4 v=0
107861 On ch=1 n=c4 v=26
107975 Par ch=1 c=64 v=127
108203 Off ch=1 n=d#3 v=0
108203 Off ch=1 n=c4 v=0
108203 On ch=1 n=f#3 v=32
108544 Par ch=1 c=64 v=127
108544 Par ch=1 c=64 v=0
108544 Par ch=1 c=64 v=0
108544 Off ch=1 n=f#3 v=0
108544 On ch=1 n=a#4 v=22
108615 Par ch=1 c=64 v=0
108729 Par ch=1 c=64 v=127
108800 Off ch=1 n=a#4 v=0
108800 On ch=1 n=c4 v=24
109056 Off ch=1 n=c4 v=0
109056 On ch=1 n=f3 v=26
109312 On ch=1 n=c4 v=28
109568 Off ch=1 n=c4 v=0
109568 On ch=1 n=a4 v=30
109627 Par ch=1 c=64 v=0
109817 Par ch=1 c=64 v=127
109824 Off ch=1 n=a4 v=0
109824 On ch=1 n=f4 v=32
110080 Off ch=1 n=f4 v=0
110080 On ch=1 n=b4 v=34
110336 Off ch=1 n=b4 v=0
110336 On ch=1 n=c5 v=36
110592 Off ch=1 n=f3 v=0
110592 Off ch=1 n=c5 v=0
110592 On ch=1 n=d#5 v=38
110621 Par ch=1 c=64 v=0
110782 Par ch=1 c=64 v=127
110848 Off ch=1 n=d#5 v=0
110848 On ch=1 n=c5 v=40
111031 Par ch=1 c=64 v=127
111104 Off ch=1 n=c5 v=0
111104 On ch=1 n=c#5 v=42
111360 Off ch=1 n=c#5 v=0
111360 On ch=1 n=e5 v=44
111616 Par ch=1 c=64 v=0
111616 Par ch=1 c=64 v=0
111616 Par ch=1 c=64 v=0
111616 Off ch=1 n=e5 v=0
111616 On ch=1 n=f5 v=50
111787 Par ch=1 c=64 v=127
111872 On ch=1 n=a#4 v=34
112128 Off ch=1 n=a#4 v=0
112128 On ch=1 n=f4 v=34
112384 Off ch=1 n=f4 v=0
112384 On ch=1 n=a#3 v=34
112640 Off ch=1 n=f5 v=0
112640 On ch=1 n=g#5 v=50
112896 Off ch=1 n=a#3 v=0
112896 On ch=1 n=a#4 v=34
113152 Off ch=1 n=a#4 v=0
113152 On ch=1 n=f4 v=34
113408 Off ch=1 n=f4 v=0
113408 On ch=1 n=a#3 v=34
113664 Off ch=1 n=g#5 v=0
113664 On ch=1 n=f#5 v=47
113707 Par ch=1 c=64 v=0
113877 Par ch=1 c=64 v=127
113920 Off ch=1 n=a#3 v=0
113920 On ch=1 n=a#4 v=34
114176 Off ch=1 n=a#4 v=0
114176 On ch=1 n=d#4 v=34
114432 Off ch=1 n=d#4 v=0
114432 On ch=1 n=a#3 v=33
114688 Par ch=1 c=64 v=127
114688 Par ch=1 c=64 v=0
114688 Par ch=1 c=64 v=0
114688 Off ch=1 n=a#3 v=0
114688 Off ch=1 n=f#5 v=0
114688 On ch=1 n=f5 v=44
114773 Par ch=1 c=64 v=0
114916 Par ch=1 c=64 v=127
114944 On ch=1 n=a#4 v=30
115200 Off ch=1 n=a#4 v=0
115200 On ch=1 n=f4 v=27
115456 Off ch=1 n=f4 v=0
115456 On ch=1 n=a#3 v=25
115712 Off ch=1 n=f5 v=0
115712 On ch=1 n=f#5 v=50
115769 Par ch=1 c=64 v=0
115925 Par ch=1 c=64 v=127
115968 Off ch=1 n=a#3 v=0
115968 On ch=1 n=a#4 v=20
116068 Par ch=1 c=64 v=0
116196 Par ch=1 c=64 v=127
116224 Off ch=1 n=a#4 v=0
116224 On ch=1 n=d#4 v=23
116480 Off ch=1 n=d#4 v=0
116480 On ch=1 n=f#4 v=25
116736 Off ch=1 n=f#4 v=0
116736 On ch=1 n=a#3 v=28
116736 Off ch=1 n=f#5 v=0
116992 Off ch=1 n=a#3 v=0
116992 On ch=1 n=d#3 v=31
117248 Off ch=1 n=d#3 v=0
117248 On ch=1 n=a#3 v=33
117504 Off ch=1 n=a#3 v=0
117504 On ch=1 n=a#4 v=36
117760 Par ch=1 c=64 v=127
117760 Par ch=1 c=64 v=0
117760 Par ch=1 c=64 v=0
117760 Off ch=1 n=a#4 v=0
117760 On ch=1 n=f#5 v=37
117860 Par ch=1 c=64 v=0
117988 Par ch=1 c=64 v=127
118016 On ch=1 n=c#5 v=29
118059 Par ch=1 c=64 v=0
118172 Par ch=1 c=64 v=127
118272 Off ch=1 n=c#5 v=0
118272 Off ch=1 n=f#5 v=0
118272 On ch=1 n=e4 v=30
118528 On ch=1 n=f#4 v=30
118784 Off ch=1 n=f#4 v=0
118784 On ch=1 n=c#4 v=31
118841 Par ch=1 c=64 v=0
118969 Par ch=1 c=64 v=127
119040 Off ch=1 n=c#4 v=0
119040 Off ch=1 n=e4 v=0
119040 On ch=1 n=e3 v=37
119125 Par ch=1 c=64 v=0
119225 Par ch=1 c=64 v=127
119296 On ch=1 n=c#4 v=32
119552 Off ch=1 n=c#4 v=0
119552 On ch=1 n=c#5 v=32
119808 Off ch=1 n=c#5 v=0
119808 On ch=1 n=c#4 v=33
119865 Par ch=1 c=64 v=0
119964 Par ch=1 c=64 v=127
120064 Off ch=1 n=e3 v=0
120064 Off ch=1 n=c#4 v=0
120064 On ch=1 n=f3 v=39
120149 Par ch=1 c=64 v=0
120263 Par ch=1 c=64 v=127
120320 On ch=1 n=c#4 v=34
120576 Off ch=1 n=c#4 v=0
120576 On ch=1 n=c#5 v=34
120832 Par ch=1 c=64 v=127
120832 Par ch=1 c=64 v=0
120832 Par ch=1 c=64 v=0
120832 Par ch=1 c=64 v=0
120832 Off ch=1 n=f3 v=0
120832 Off ch=1 n=c#5 v=0
120832 On ch=1 n=e5 v=34
120932 Par ch=1 c=64 v=0
121060 Par ch=1 c=64 v=127
121088 On ch=1 n=c#5 v=28
121131 Par ch=1 c=64 v=0
121244 Par ch=1 c=64 v=127
121344 Off ch=1 n=c#5 v=0
121344 On ch=1 n=f#4 v=29
121600 Off ch=1 n=e5 v=0
121600 On ch=1 n=c#5 v=29
121856 Off ch=1 n=f#4 v=0
121856 Off ch=1 n=c#5 v=0
121856 On ch=1 n=c#4 v=30
121913 Par ch=1 c=64 v=0
122041 Par ch=1 c=64 v=127
122112 Off ch=1 n=c#4 v=0
122112 On ch=1 n=f#3 v=36
122197 Par ch=1 c=64 v=0
122297 Par ch=1 c=64 v=127
122368 On ch=1 n=c#4 v=31
122624 Off ch=1 n=c#4 v=0
122624 On ch=1 n=c#5 v=31
122880 Off ch=1 n=c#5 v=0
122880 On ch=1 n=f#4 v=32
122937 Par ch=1 c=64 v=0
123036 Par ch=1 c=64 v=127
123136 Off ch=1 n=f#4 v=0
123136 On ch=1 n=c#4 v=32
123221 Par ch=1 c=64 v=0
123335 Par ch=1 c=64 v=127
123392 Off ch=1 n=f#3 v=0
123392 Off ch=1 n=c#4 v=0
123392 On ch=1 n=f#3 v=39
123648 Off ch=1 n=f#3 v=0
123648 On ch=1 n=c#4 v=33
123904 Par ch=1 c=64 v=127
123904 Off ch=1 n=c#4 v=0
123904 On ch=1 n=f3 v=34
123989 Par ch=1 c=64 v=0
124103 Par ch=1 c=64 v=127
124160 On ch=1 n=c#4 v=24
124416 Off ch=1 n=c#4 v=0
124416 On ch=1 n=f#4 v=25
124672 Off ch=1 n=f#4 v=0
124672 On ch=1 n=f4 v=27
124928 Off ch=1 n=f4 v=0
124928 On ch=1 n=c4 v=28
125184 Off ch=1 n=c4 v=0
125184 On ch=1 n=c#4 v=30
125212 Par ch=1 c=64 v=0
125397 Par ch=1 c=64 v=127
125440 Off ch=1 n=c#4 v=0
125440 On ch=1 n=c#5 v=31
125696 Off ch=1 n=c#5 v=0
125696 On ch=1 n=c#4 v=33
125952 Off ch=1 n=c#4 v=0
125952 On ch=1 n=f4 v=35
126208 On ch=1 n=c5 v=38
126464 Off ch=1 n=c5 v=0
126464 On ch=1 n=c#5 v=40
126720 Off ch=1 n=c#5 v=0
126720 On ch=1 n=c5 v=37
126976 Par ch=1 c=64 v=127
126976 Off ch=1 n=f3 v=0
126976 Off ch=1 n=f4 v=0
126976 Off ch=1 n=c5 v=0
126976 On ch=1 n=f4 v=22
126976 On ch=1 n=c#5 v=22
126976 On ch=1 n=f5 v=31
127078 Par ch=1 c=64 v=0
127225 Par ch=1 c=64 v=127
127488 Off ch=1 n=c#5 v=0
127488 Off ch=1 n=f5 v=0
127488 On ch=1 n=c#5 v=22
127488 On ch=1 n=f5 v=31
128000 Off ch=1 n=c#5 v=0
128000 Off ch=1 n=f5 v=0
128000 On ch=1 n=c#5 v=21
128000 On ch=1 n=f5 v=21
128000 On ch=1 n=a#5 v=30
128059 Par ch=1 c=64 v=0
128249 Par ch=1 c=64 v=127
128512 Off ch=1 n=c#5 v=0
128512 Off ch=1 n=f5 v=0
128512 Off ch=1 n=a#5 v=0
128512 On ch=1 n=c#5 v=20
128512 On ch=1 n=f5 v=20
128512 On ch=1 n=a#5 v=28
129024 Off ch=1 n=c#5 v=0
129024 Off ch=1 n=f5 v=0
129024 Off ch=1 n=a#5 v=0
129024 On ch=1 n=c#5 v=18
129024 On ch=1 n=f5 v=18
129024 On ch=1 n=a#5 v=26
129536 Off ch=1 n=c#5 v=0
129536 Off ch=1 n=f5 v=0
129536 Off ch=1 n=a#5 v=0
129536 On ch=1 n=c#5 v=17
129536 On ch=1 n=f5 v=17
129536 On ch=1 n=a#5 v=24
130048 Par ch=1 c=64 v=127
130048 Par ch=1 c=64 v=0
130048 Off ch=1 n=f4 v=0
130048 Off ch=1 n=c#5 v=0
130048 Off ch=1 n=f5 v=0
130048 Off ch=1 n=a#5 v=0
130048 On ch=1 n=e3 v=27
130133 Par ch=1 c=64 v=0
130247 Par ch=1 c=64 v=127
130304 On ch=1 n=c#4 v=15
130560 Off ch=1 n=c#4 v=0
130560 On ch=1 n=f#4 v=17
130816 Off ch=1 n=f#4 v=0
130816 On ch=1 n=c#4 v=18
131072 Off ch=1 n=c#4 v=0
131072 On ch=1 n=c4 v=20
131328 Off ch=1 n=c4 v=0
131328 On ch=1 n=c#4 v=21
131356 Par ch=1 c=64 v=0
131541 Par ch=1 c=64 v=127
131584 Off ch=1 n=c#4 v=0
131584 On ch=1 n=c#5 v=23
131840 Off ch=1 n=c#5 v=0
131840 On ch=1 n=c#4 v=24
132096 Off ch=1 n=c#4 v=0
132096 On ch=1 n=e4 v=27
132352 On ch=1 n=c5 v=28
132608 Off ch=1 n=c5 v=0
132608 On ch=1 n=c#5 v=31
132864 Off ch=1 n=c#5 v=0
132864 On ch=1 n=c5 v=26
133120 Par ch=1 c=64 v=127
133120 Par ch=1 c=64 v=0
133120 Off ch=1 n=e3 v=0
133120 Off ch=1 n=e4 v=0
133120 Off ch=1 n=c5 v=0
133120 On ch=1 n=e4 v=22
133120 On ch=1 n=a#4 v=13
133120 On ch=1 n=c#5 v=22
133222 Par ch=1 c=64 v=0
133369 Par ch=1 c=64 v=127
133632 Off ch=1 n=a#4 v=0
133632 Off ch=1 n=c#5 v=0
133632 On ch=1 n=a#4 v=13
133632 On ch=1 n=c#5 v=22
134144 Off ch=1 n=a#4 v=0
134144 Off ch=1 n=c#5 v=0
134144 On ch=1 n=a#4 v=12
134144 On ch=1 n=c#5 v=12
134144 On ch=1 n=f#5 v=21
134203 Par ch=1 c=64 v=0
134393 Par ch=1 c=64 v=127
134656 Off ch=1 n=a#4 v=0
134656 Off ch=1 n=c#5 v=0
134656 Off ch=1 n=f#5 v=0
134656 On ch=1 n=a#4 v=11
134656 On ch=1 n=c#5 v=11
134656 On ch=1 n=f#5 v=19
135168 Off ch=1 n=a#4 v=0
135168 Off ch=1 n=c#5 v=0
135168 Off ch=1 n=f#5 v=0
135168 On ch=1 n=a#4 v=9
135168 On ch=1 n=c#5 v=9
135168 On ch=1 n=f#5 v=17
135680 Off ch=1 n=a#4 v=0
135680 Off ch=1 n=c#5 v=0
135680 Off ch=1 n=f#5 v=0
135680 On ch=1 n=a#4 v=8
135680 On ch=1 n=c#5 v=8
135680 On ch=1 n=f#5 v=15
136192 Par ch=1 c=64 v=0
136192 Off ch=1 n=e4 v=0
136192 Off ch=1 n=a#4 v=0
136192 Off ch=1 n=c#5 v=0
136192 Off ch=1 n=f#5 v=0
136192 On ch=1 n=d#4 v=13
136192 On ch=1 n=d#5 v=16
136206 Par ch=1 c=64 v=127
136448 On ch=1 n=d#3 v=13
136704 On ch=1 n=b3 v=13
136960 On ch=1 n=f#4 v=13
137216 Off ch=1 n=d#4 v=0
137216 Off ch=1 n=d#5 v=0
137216 On ch=1 n=f#5 v=22
137273 Par ch=1 c=64 v=0
137628 Par ch=1 c=64 v=127
138240 Off ch=1 n=d#3 v=0
138240 Off ch=1 n=b3 v=0
138240 Off ch=1 n=f#4 v=0
138240 Off ch=1 n=f#5 v=0
139384 Par ch=1 c=64 v=127
142336 Par ch=1 c=64 v=127
142336 On ch=1 n=f3 v=21
142421 Par ch=1 c=64 v=0
142620 Par ch=1 c=64 v=127
143360 Off ch=1 n=f3 v=0
143360 On ch=1 n=c3 v=23
143360 On ch=1 n=f3 v=18
143388 Par ch=1 c=64 v=0
143388 Par ch=1 c=64 v=127
143616 Par ch=1 c=64 v=127
144384 Off ch=1 n=c3 v=0
144384 Off ch=1 n=f3 v=0
144384 On ch=1 n=b2 v=20
144384 On ch=1 n=f3 v=15
144441 Par ch=1 c=64 v=0
144668 Par ch=1 c=64 v=127
145408 Par ch=1 c=64 v=0
145408 Off ch=1 n=b2 v=0
145408 Off ch=1 n=f3 v=0
145408 On ch=1 n=a#2 v=17
145408 On ch=1 n=f3 v=12
145436 Par ch=1 c=64 v=127
145508 Par ch=1 c=64 v=0
145721 Par ch=1 c=64 v=127
146176 On ch=1 n=f4 v=33
146432 Off ch=1 n=f4 v=0
146432 On ch=1 n=f4 v=33
148480 Par ch=1 c=64 v=127
148480 Par ch=1 c=64 v=0
148480 Off ch=1 n=a#2 v=0
148480 Off ch=1 n=f3 v=0
148480 Off ch=1 n=f4 v=0
148480 On ch=1 n=b2 v=26
148480 On ch=1 n=f3 v=26
148565 Par ch=1 c=64 v=0
148764 Par ch=1 c=64 v=127
149504 Off ch=1 n=b2 v=0
149504 Off ch=1 n=f3 v=0
149504 On ch=1 n=b2 v=23
149504 On ch=1 n=f3 v=18
149532 Par ch=1 c=64 v=0
149532 Par ch=1 c=64 v=127
149760 Par ch=1 c=64 v=127
150528 Off ch=1 n=b2 v=0
150528 Off ch=1 n=f3 v=0
150528 On ch=1 n=b2 v=20
150528 On ch=1 n=f3 v=15
150585 Par ch=1 c=64 v=0
150812 Par ch=1 c=64 v=127
151552 Par ch=1 c=64 v=0
151552 Par ch=1 c=64 v=0
151552 Off ch=1 n=b2 v=0
151552 Off ch=1 n=f3 v=0
151552 On ch=1 n=a#2 v=17
151552 On ch=1 n=f3 v=12
151580 Par ch=1 c=64 v=127
151652 Par ch=1 c=64 v=0
151865 Par ch=1 c=64 v=127
152320 On ch=1 n=f4 v=33
152576 Off ch=1 n=f4 v=0
152576 On ch=1 n=f4 v=33
154624 Par ch=1 c=64 v=127
154624 Off ch=1 n=a#2 v=0
154624 Off ch=1 n=f3 v=0
154726 Par ch=1 c=64 v=0
154917 Par ch=1 c=64 v=127
155392 Off ch=1 n=f4 v=0
155392 On ch=1 n=f4 v=20
155648 Off ch=1 n=f4 v=0
155648 On ch=1 n=f4 v=20
155677 Par ch=1 c=64 v=127
155688 Par ch=1 c=64 v=126
155698 Par ch=1 c=64 v=125
155709 Par ch=1 c=64 v=124
155720 Par ch=1 c=64 v=123
155731 Par ch=1 c=64 v=122
155741 Par ch=1 c=64 v=121
155752 Par ch=1 c=64 v=120
155763 Par ch=1 c=64 v=119
155773 Par ch=1 c=64 v=118
155784 Par ch=1 c=64 v=117
155795 Par ch=1 c=64 v=116
155806 Par ch=1 c=64 v=115
155816 Par ch=1 c=64 v=114
155827 Par ch=1 c=64 v=113
155838 Par ch=1 c=64 v=112
155848 Par ch=1 c=64 v=111
155859 Par ch=1 c=64 v=110
155870 Par ch=1 c=64 v=109
155881 Par ch=1 c=64 v=108
155891 Par ch=1 c=64 v=107
155902 Par ch=1 c=64 v=106
155913 Par ch=1 c=64 v=105
155923 Par ch=1 c=64 v=104
155934 Par ch=1 c=64 v=103
155945 Par ch=1 c=64 v=102
155956 Par ch=1 c=64 v=101
155966 Par ch=1 c=64 v=100
155977 Par ch=1 c=64 v=99
155988 Par ch=1 c=64 v=98
155998 Par ch=1 c=64 v=97
156009 Par ch=1 c=64 v=96
156020 Par ch=1 c=64 v=95
156031 Par ch=1 c=64 v=94
156041 Par ch=1 c=64 v=93
156052 Par ch=1 c=64 v=92
156063 Par ch=1 c=64 v=91
156074 Par ch=1 c=64 v=90
156084 Par ch=1 c=64 v=89
156095 Par ch=1 c=64 v=88
156106 Par ch=1 c=64 v=87
156116 Par ch=1 c=64 v=86
156127 Par ch=1 c=64 v=85
156138 Par ch=1 c=64 v=84
156149 Par ch=1 c=64 v=83
156159 Par ch=1 c=64 v=82
156170 Par ch=1 c=64 v=81
156181 Par ch=1 c=64 v=80
156191 Par ch=1 c=64 v=79
156202 Par ch=1 c=64 v=78
156213 Par ch=1 c=64 v=77
156224 Par ch=1 c=64 v=76
156234 Par ch=1 c=64 v=75
156245 Par ch=1 c=64 v=74
156256 Par ch=1 c=64 v=73
156266 Par ch=1 c=64 v=72
156277 Par ch=1 c=64 v=71
156288 Par ch=1 c=64 v=70
156299 Par ch=1 c=64 v=69
156309 Par ch=1 c=64 v=68
156320 Par ch=1 c=64 v=67
156331 Par ch=1 c=64 v=66
156341 Par ch=1 c=64 v=65
156352 Par ch=1 c=64 v=64
156363 Par ch=1 c=64 v=63
156374 Par ch=1 c=64 v=62
156384 Par ch=1 c=64 v=61
156395 Par ch=1 c=64 v=60
156406 Par ch=1 c=64 v=59
156416 Par ch=1 c=64 v=58
156427 Par ch=1 c=64 v=57
156438 Par ch=1 c=64 v=56
156449 Par ch=1 c=64 v=55
156459 Par ch=1 c=64 v=54
156470 Par ch=1 c=64 v=53
156481 Par ch=1 c=64 v=52
156491 Par ch=1 c=64 v=51
156502 Par ch=1 c=64 v=50
156513 Par ch=1 c=64 v=49
156524 Par ch=1 c=64 v=48
156534 Par ch=1 c=64 v=47
156545 Par ch=1 c=64 v=46
156556 Par ch=1 c=64 v=45
156566 Par ch=1 c=64 v=44
156577 Par ch=1 c=64 v=43
156588 Par ch=1 c=64 v=42
156599 Par ch=1 c=64 v=41
156609 Par ch=1 c=64 v=40
156620 Par ch=1 c=64 v=39
156631 Par ch=1 c=64 v=38
156641 Par ch=1 c=64 v=37
156652 Par ch=1 c=64 v=36
156663 Par ch=1 c=64 v=35
156674 Par ch=1 c=64 v=34
156684 Par ch=1 c=64 v=33
156695 Par ch=1 c=64 v=32
156706 Par ch=1 c=64 v=31
156717 Par ch=1 c=64 v=30
156727 Par ch=1 c=64 v=29
156738 Par ch=1 c=64 v=28
156749 Par ch=1 c=64 v=27
156759 Par ch=1 c=64 v=26
156770 Par ch=1 c=64 v=25
156781 Par ch=1 c=64 v=24
156792 Par ch=1 c=64 v=23
156802 Par ch=1 c=64 v=22
156813 Par ch=1 c=64 v=21
156824 Par ch=1 c=64 v=20
156834 Par ch=1 c=64 v=19
156845 Par ch=1 c=64 v=18
156856 Par ch=1 c=64 v=17
156867 Par ch=1 c=64 v=16
156877 Par ch=1 c=64 v=15
156888 Par ch=1 c=64 v=14
156899 Par ch=1 c=64 v=13
156909 Par ch=1 c=64 v=12
156920 Par ch=1 c=64 v=11
156931 Par ch=1 c=64 v=10
156942 Par ch=1 c=64 v=9
156952 Par ch=1 c=64 v=8
156963 Par ch=1 c=64 v=7
156974 Par ch=1 c=64 v=6
156984 Par ch=1 c=64 v=5
156995 Par ch=1 c=64 v=4
157006 Par ch=1 c=64 v=3
157017 Par ch=1 c=64 v=2
157027 Par ch=1 c=64 v=1
157696 Par ch=1 c=64 v=127
157696 Par ch=1 c=64 v=0
157798 Par ch=1 c=64 v=0
157989 Par ch=1 c=64 v=127
158749 Par ch=1 c=64 v=127
158760 Par ch=1 c=64 v=126
158770 Par ch=1 c=64 v=125
158781 Par ch=1 c=64 v=124
158792 Par ch=1 c=64 v=123
158803 Par ch=1 c=64 v=122
158813 Par ch=1 c=64 v=121
158824 Par ch=1 c=64 v=120
158835 Par ch=1 c=64 v=119
158845 Par ch=1 c=64 v=118
158856 Par ch=1 c=64 v=117
158867 Par ch=1 c=64 v=116
158878 Par ch=1 c=64 v=115
158888 Par ch=1 c=64 v=114
158899 Par ch=1 c=64 v=113
158910 Par ch=1 c=64 v=112
158920 Par ch=1 c=64 v=111
158931 Par ch=1 c=64 v=110
158942 Par ch=1 c=64 v=109
158953 Par ch=1 c=64 v=108
158963 Par ch=1 c=64 v=107
158974 Par ch=1 c=64 v=106
158985 Par ch=1 c=64 v=105
158995 Par ch=1 c=64 v=104
159006 Par ch=1 c=64 v=103
159017 Par ch=1 c=64 v=102
159028 Par ch=1 c=64 v=101
159038 Par ch=1 c=64 v=100
159049 Par ch=1 c=64 v=99
159060 Par ch=1 c=64 v=98
159070 Par ch=1 c=64 v=97
159081 Par ch=1 c=64 v=96
159092 Par ch=1 c=64 v=95
159103 Par ch=1 c=64 v=94
159113 Par ch=1 c=64 v=93
159124 Par ch=1 c=64 v=92
159135 Par ch=1 c=64 v=91
159146 Par ch=1 c=64 v=90
159156 Par ch=1 c=64 v=89
159167 Par ch=1 c=64 v=88
159178 Par ch=1 c=64 v=87
159188 Par ch=1 c=64 v=86
159199 Par ch=1 c=64 v=85
159210 Par ch=1 c=64 v=84
159221 Par ch=1 c=64 v=83
159231 Par ch=1 c=64 v=82
159242 Par ch=1 c=64 v=81
159253 Par ch=1 c=64 v=80
159263 Par ch=1 c=64 v=79
159274 Par ch=1 c=64 v=78
159285 Par ch=1 c=64 v=77
159296 Par ch=1 c=64 v=76
159306 Par ch=1 c=64 v=75
159317 Par ch=1 c=64 v=74
159328 Par ch=1 c=64 v=73
159338 Par ch=1 c=64 v=72
159349 Par ch=1 c=64 v=71
159360 Par ch=1 c=64 v=70
159371 Par ch=1 c=64 v=69
159381 Par ch=1 c=64 v=68
159392 Par ch=1 c=64 v=67
159403 Par ch=1 c=64 v=66
159413 Par ch=1 c=64 v=65
159424 Par ch=1 c=64 v=64
159435 Par ch=1 c=64 v=63
159446 Par ch=1 c=64 v=62
159456 Par ch=1 c=64 v=61
159467 Par ch=1 c=64 v=60
159478 Par ch=1 c=64 v=59
159488 Par ch=1 c=64 v=58
159499 Par ch=1 c=64 v=57
159510 Par ch=1 c=64 v=56
159521 Par ch=1 c=64 v=55
159531 Par ch=1 c=64 v=54
159542 Par ch=1 c=64 v=53
159553 Par ch=1 c=64 v=52
159563 Par ch=1 c=64 v=51
159574 Par ch=1 c=64 v=50
159585 Par ch=1 c=64 v=49
159596 Par ch=1 c=64 v=48
159606 Par ch=1 c=64 v=47
159617 Par ch=1 c=64 v=46
159628 Par ch=1 c=64 v=45
159638 Par ch=1 c=64 v=44
159649 Par ch=1 c=64 v=43
159660 Par ch=1 c=64 v=42
159671 Par ch=1 c=64 v=41
159681 Par ch=1 c=64 v=40
159692 Par ch=1 c=64 v=39
159703 Par ch=1 c=64 v=38
159713 Par ch=1 c=64 v=37
159724 Par ch=1 c=64 v=36
159735 Par ch=1 c=64 v=35
159744 Off ch=1 n=f4 v=0
159746 Par ch=1 c=64 v=34
159756 Par ch=1 c=64 v=33
159767 Par ch=1 c=64 v=32
159778 Par ch=1 c=64 v=31
159789 Par ch=1 c=64 v=30
159799 Par ch=1 c=64 v=29
159810 Par ch=1 c=64 v=28
159821 Par ch=1 c=64 v=27
159831 Par ch=1 c=64 v=26
159842 Par ch=1 c=64 v=25
159853 Par ch=1 c=64 v=24
159864 Par ch=1 c=64 v=23
159874 Par ch=1 c=64 v=22
159885 Par ch=1 c=64 v=21
159896 Par ch=1 c=64 v=20
159906 Par ch=1 c=64 v=19
159917 Par ch=1 c=64 v=18
159928 Par ch=1 c=64 v=17
159939 Par ch=1 c=64 v=16
159949 Par ch=1 c=64 v=15
159960 Par ch=1 c=64 v=14
159971 Par ch=1 c=64 v=13
159981 Par ch=1 c=64 v=12
159992 Par ch=1 c=64 v=11
160003 Par ch=1 c=64 v=10
160014 Par ch=1 c=64 v=9
160024 Par ch=1 c=64 v=8
160035 Par ch=1 c=64 v=7
160046 Par ch=1 c=64 v=6
160056 Par ch=1 c=64 v=5
160067 Par ch=1 c=64 v=4
160078 Par ch=1 c=64 v=3
160089 Par ch=1 c=64 v=2
160099 Par ch=1 c=64 v=1
160768 On ch=1 n=a#2 v=12
160768 On ch=1 n=f3 v=12
161792 Off ch=1 n=a#2 v=0
161792 Off ch=1 n=f3 v=0
163840 Par ch=1 c=64 v=0
163840 On ch=1 n=a#2 v=3
163840 On ch=1 n=f3 v=3
164864 Off ch=1 n=a#2 v=0
164864 Off ch=1 n=f3 v=0
166912 Par ch=1 c=64 v=0
169984 Par ch=1 c=64 v=0
169987 Meta TrkEnd
TrkEnd
