MFile 1 3 1024
MTrk
0 TimeSig 1/4 24 8
0 KeySig 6 minor
0 Tempo 571428
768 Tempo 618556
1024 TimeSig 4/4 24 8
1024 Tempo 895522
1365 Tempo 535714
2048 Tempo 500000
3840 Tempo 571428
4096 Tempo 571428
4437 Tempo 535714
4779 Tempo 731707
4864 Tempo 500000
5461 Tempo 500000
7168 Tempo 731707
7509 Tempo 618556
7851 Tempo 571428
8192 Tempo 535714
8704 Tempo 895522
9088 Tempo 618556
9216 Tempo 800000
9557 Tempo 535714
10240 Tempo 500000
12032 Tempo 535714
13056 Tempo 500000
13653 Tempo 500000
15360 Tempo 731707
15701 Tempo 618556
16043 Tempo 571428
16896 Tempo 800000
17280 Tempo 618556
17408 Tempo 800000
17749 Tempo 535714
18432 Tempo 500000
20224 Tempo 535714
21248 Tempo 500000
21845 Tempo 500000
23552 Tempo 731707
23893 Tempo 618556
24235 Tempo 571428
25088 Tempo 800000
25472 Tempo 618556
25600 Tempo 800000
25941 Tempo 535714
26624 Tempo 500000
28672 Tempo 618556
29696 Tempo 895522
30037 Tempo 618556
30720 Tempo 666666
31232 Tempo 618556
31744 Tempo 800000
32256 Tempo 571428
33451 Tempo 800000
34133 Tempo 535714
35157 Tempo 500000
36608 Tempo 535714
36864 Tempo 666666
37205 Tempo 731707
37632 Tempo 500000
37888 Tempo 666666
38229 Tempo 500000
39936 Tempo 731707
40277 Tempo 618556
40619 Tempo 571428
41472 Tempo 800000
41856 Tempo 618556
41984 Tempo 800000
42325 Tempo 535714
43008 Tempo 500000
44800 Tempo 535714
45824 Tempo 500000
48128 Tempo 731707
48469 Tempo 618556
48811 Tempo 571428
49152 Tempo 535714
49664 Tempo 1000000
50048 Tempo 618556
50176 Tempo 800000
50517 Tempo 571428
51200 Tempo 500000
52992 Tempo 535714
54016 Tempo 500000
56320 Tempo 731707
56661 Tempo 618556
57003 Tempo 571428
57856 Tempo 800000
58240 Tempo 618556
58368 Tempo 800000
58709 Tempo 618556
59733 Tempo 500000
62464 Tempo 895522
62805 Tempo 618556
63488 Tempo 731707
64000 Tempo 618556
64512 Tempo 895522
65024 Tempo 571428
65536 Tempo 618556
65877 Tempo 666666
66219 Tempo 895522
66901 Tempo 535714
67925 Tempo 500000
69291 Tempo 618556
69632 Tempo 666666
69973 Tempo 535714
70656 Tempo 895522
70997 Tempo 535714
71680 Tempo 500000
72704 Tempo 731707
73045 Tempo 618556
74240 Tempo 731707
75093 Tempo 500000
76800 Tempo 895522
77141 Tempo 618556
77483 Tempo 571428
77824 Tempo 618556
78165 Tempo 535714
78848 Tempo 666666
79189 Tempo 535714
79872 Tempo 618556
80213 Tempo 500000
80896 Tempo 618556
81237 Tempo 500000
81920 Tempo 535714
82603 Tempo 618556
82944 Tempo 731707
83285 Tempo 500000
83968 Tempo 618556
84309 Tempo 535714
84992 Tempo 800000
85333 Tempo 535714
86699 Tempo 618556
87040 Tempo 895522
87381 Tempo 535714
88064 Tempo 500000
89088 Tempo 731707
89429 Tempo 618556
90624 Tempo 731707
91477 Tempo 500000
93184 Tempo 895522
93525 Tempo 618556
93867 Tempo 571428
94208 Tempo 618556
94549 Tempo 535714
95232 Tempo 666666
95573 Tempo 535714
96256 Tempo 618556
96597 Tempo 500000
97280 Tempo 618556
97621 Tempo 500000
98304 Tempo 535714
98987 Tempo 618556
99328 Tempo 731707
99669 Tempo 500000
100352 Tempo 618556
100693 Tempo 535714
101376 Tempo 571428
101717 Tempo 535714
103083 Tempo 618556
103424 Tempo 731707
103765 Tempo 535714
104789 Tempo 500000
106837 Tempo 666666
107179 Tempo 800000
107861 Tempo 571428
108544 Tempo 500000
110592 Tempo 571428
110933 Tempo 500000
111616 Tempo 731707
111957 Tempo 535714
112981 Tempo 500000
115029 Tempo 666666
115371 Tempo 800000
116053 Tempo 571428
116736 Tempo 500000
118443 Tempo 571428
119125 Tempo 500000
119808 Tempo 618556
120149 Tempo 535714
120832 Tempo 500000
121856 Tempo 535714
122880 Tempo 571428
123221 Tempo 618556
123904 Tempo 731707
124245 Tempo 500000
125952 Tempo 618556
126293 Tempo 444444
128000 Tempo 618556
128341 Tempo 444444
129024 Tempo 666666
129365 Tempo 500000
129707 Tempo 618556
130389 Tempo 500000
131413 Tempo 444444
132096 Tempo 618556
132437 Tempo 444444
133120 Tempo 666666
133461 Tempo 571428
134912 Tempo 618556
135168 Tempo 666666
135509 Tempo 731707
135851 Tempo 895522
135936 Tempo 535714
136192 Tempo 731707
136533 Tempo 444444
138240 Tempo 618556
138581 Tempo 535714
139264 Tempo 571428
139776 Tempo 618556
140629 Tempo 444444
141653 Tempo 422535
143104 Tempo 535714
144384 Tempo 731707
144725 Tempo 444444
146432 Tempo 618556
146773 Tempo 535714
147456 Tempo 571428
147968 Tempo 666666
148821 Tempo 444444
149504 Tempo 422535
149845 Tempo 422535
151552 Tempo 618556
152235 Tempo 535714
152576 Tempo 731707
152917 Tempo 444444
154624 Tempo 618556
154965 Tempo 535714
155648 Tempo 571428
156160 Tempo 666666
157013 Tempo 444444
157696 Tempo 422535
158037 Tempo 422535
159744 Tempo 618556
160427 Tempo 666666
160768 Tempo 731707
161109 Tempo 618556
161792 Tempo 666666
162304 Tempo 535714
162816 Tempo 618556
163157 Tempo 535714
164181 Tempo 618556
164523 Tempo 800000
165205 Tempo 535714
165888 Tempo 500000
166229 Tempo 444444
166912 Tempo 422535
168619 Tempo 618556
169301 Tempo 444444
169984 Tempo 382165
172715 Tempo 571428
173056 Tempo 731707
173397 Tempo 382165
174080 Tempo 357142
175445 Tempo 422535
175787 Tempo 500000
176128 Tempo 535714
176469 Tempo 571428
176811 Tempo 895522
177493 Tempo 666666
177835 Tempo 535714
178176 Tempo 500000
178517 Tempo 444444
178859 Tempo 422535
179200 Tempo 382165
180224 Tempo 535714
180565 Tempo 444444
180907 Tempo 422535
181248 Tempo 535714
181589 Tempo 444444
181931 Tempo 422535
182272 Tempo 382165
183296 Tempo 535714
183637 Tempo 444444
183979 Tempo 422535
184320 Tempo 382165
185344 Tempo 535714
185685 Tempo 444444
186027 Tempo 422535
186368 Tempo 382165
186880 Tempo 500000
187392 Tempo 535714
187733 Tempo 444444
188075 Tempo 422535
188416 Tempo 382165
189440 Tempo 500000
189781 Tempo 444444
190123 Tempo 422535
190464 Tempo 382165
191488 Tempo 422535
192512 Tempo 444444
193536 Tempo 800000
193877 Tempo 422535
194560 Tempo 571428
194901 Tempo 422535
195584 Tempo 535714
195925 Tempo 382165
196267 Tempo 357142
197632 Tempo 535714
197973 Tempo 382165
199680 Tempo 500000
200448 Tempo 535714
200704 Tempo 666666
201045 Tempo 571428
201472 Tempo 618556
201728 Tempo 666666
202069 Tempo 422535
202752 Tempo 382165
203776 Tempo 500000
204117 Tempo 382165
204544 Tempo 618556
205141 Tempo 422535
205568 Tempo 535714
206165 Tempo 382165
208640 Tempo 618556
209237 Tempo 444444
209664 Tempo 571428
209920 Tempo 618556
210261 Tempo 382165
211285 Tempo 357142
217088 Tempo 422535
217429 Tempo 444444
217771 Tempo 535714
218112 Tempo 618556
220160 Tempo 666666
222208 Tempo 800000
226304 Tempo 133333
230404 Meta TrkEnd
TrkEnd
MTrk
0 Meta TrkName "Instrument  1"
0 PrCh ch=1 p=1
0 Par ch=1 c=64 v=0
1024 Par ch=1 c=64 v=0
3840 On ch=1 n=a#5 v=46
3840 On ch=1 n=a#6 v=65
4096 Off ch=1 n=a#5 v=0
4096 Off ch=1 n=a#6 v=0
4096 On ch=1 n=a#4 v=50
4096 On ch=1 n=a#5 v=69
4864 Off ch=1 n=a#4 v=0
4864 Off ch=1 n=a#5 v=0
4864 On ch=1 n=f5 v=50
4864 On ch=1 n=f6 v=69
5120 Par ch=1 c=64 v=0
5120 Off ch=1 n=f5 v=0
5120 Off ch=1 n=f6 v=0
5120 On ch=1 n=f5 v=55
5120 On ch=1 n=a#5 v=55
5120 On ch=1 n=f6 v=74
7168 Off ch=1 n=f5 v=0
7168 Off ch=1 n=a#5 v=0
7168 Off ch=1 n=f6 v=0
7168 On ch=1 n=a#5 v=44
7168 On ch=1 n=d#5 v=44
7168 On ch=1 n=d#6 v=60
7509 Off ch=1 n=d#5 v=0
7509 Off ch=1 n=d#6 v=0
7509 On ch=1 n=d5 v=45
7509 On ch=1 n=d6 v=61
7851 Off ch=1 n=d5 v=0
7851 Off ch=1 n=d6 v=0
7851 On ch=1 n=d#5 v=46
7851 On ch=1 n=d#6 v=63
8192 Off ch=1 n=a#5 v=0
8192 Off ch=1 n=d#5 v=0
8192 Off ch=1 n=d#6 v=0
8192 On ch=1 n=f5 v=48
8192 On ch=1 n=f6 v=65
8192 On ch=1 n=a#5 v=48
8448 Off ch=1 n=f5 v=0
8448 Off ch=1 n=f6 v=0
8448 On ch=1 n=f#5 v=48
8448 On ch=1 n=f#6 v=65
8704 Off ch=1 n=f#5 v=0
8704 Off ch=1 n=f#6 v=0
8704 On ch=1 n=a#5 v=49
8704 On ch=1 n=a#6 v=67
8704 Off ch=1 n=a#5 v=0
8704 On ch=1 n=d#6 v=49
8960 Off ch=1 n=a#5 v=0
8960 Off ch=1 n=a#6 v=0
8960 Off ch=1 n=d#6 v=0
9088 On ch=1 n=c#6 v=51
9088 On ch=1 n=c#7 v=68
9216 Par ch=1 c=64 v=0
9216 Off ch=1 n=c#6 v=0
9216 Off ch=1 n=c#7 v=0
9216 On ch=1 n=c#6 v=51
9216 On ch=1 n=f#6 v=51
9216 On ch=1 n=c#7 v=69
10240 Off ch=1 n=c#6 v=0
10240 Off ch=1 n=c#7 v=0
10240 On ch=1 n=b5 v=44
10240 On ch=1 n=b6 v=60
11264 Off ch=1 n=b5 v=0
11264 Off ch=1 n=f#6 v=0
11264 Off ch=1 n=b6 v=0
12032 On ch=1 n=b5 v=50
12032 On ch=1 n=b6 v=62
12288 Off ch=1 n=b5 v=0
12288 Off ch=1 n=b6 v=0
12288 On ch=1 n=b4 v=53
12288 On ch=1 n=b5 v=65
13056 Off ch=1 n=b4 v=0
13056 Off ch=1 n=b5 v=0
13056 On ch=1 n=f#5 v=53
13056 On ch=1 n=f#6 v=65
13312 Par ch=1 c=64 v=0
13312 Par ch=1 c=64 v=0
13312 Off ch=1 n=f#5 v=0
13312 Off ch=1 n=f#6 v=0
13312 On ch=1 n=f#5 v=55
13312 On ch=1 n=b5 v=55
13312 On ch=1 n=f#6 v=69
15360 Off ch=1 n=f#5 v=0
15360 Off ch=1 n=b5 v=0
15360 Off ch=1 n=f#6 v=0
15360 On ch=1 n=b5 v=51
15360 On ch=1 n=e5 v=51
15360 On ch=1 n=e6 v=66
15701 Off ch=1 n=e5 v=0
15701 Off ch=1 n=e6 v=0
15701 On ch=1 n=d#5 v=52
15701 On ch=1 n=d#6 v=68
16043 Off ch=1 n=d#5 v=0
16043 Off ch=1 n=d#6 v=0
16043 On ch=1 n=e5 v=53
16043 On ch=1 n=e6 v=70
16384 Off ch=1 n=b5 v=0
16384 Off ch=1 n=e5 v=0
16384 Off ch=1 n=e6 v=0
16384 On ch=1 n=f#5 v=55
16384 On ch=1 n=f#6 v=72
16384 On ch=1 n=b5 v=55
16640 Off ch=1 n=f#5 v=0
16640 Off ch=1 n=f#6 v=0
16640 On ch=1 n=g#5 v=55
16640 On ch=1 n=g#6 v=72
16896 Off ch=1 n=g#5 v=0
16896 Off ch=1 n=g#6 v=0
16896 On ch=1 n=b5 v=56
16896 On ch=1 n=b6 v=74
16896 Off ch=1 n=b5 v=0
16896 On ch=1 n=e6 v=56
17152 Off ch=1 n=b5 v=0
17152 Off ch=1 n=b6 v=0
17152 Off ch=1 n=e6 v=0
17280 On ch=1 n=d#6 v=58
17280 On ch=1 n=d#7 v=75
17408 Par ch=1 c=64 v=0
17408 Par ch=1 c=64 v=0
17408 Off ch=1 n=d#6 v=0
17408 Off ch=1 n=d#7 v=0
17408 On ch=1 n=d#6 v=58
17408 On ch=1 n=g#6 v=58
17408 On ch=1 n=d#7 v=76
18432 Off ch=1 n=d#6 v=0
18432 Off ch=1 n=d#7 v=0
18432 On ch=1 n=d6 v=44
18432 On ch=1 n=d7 v=67
19456 Off ch=1 n=d6 v=0
19456 Off ch=1 n=g#6 v=0
19456 Off ch=1 n=d7 v=0
20224 On ch=1 n=d#6 v=55
20224 On ch=1 n=d#7 v=67
20480 Off ch=1 n=d#6 v=0
20480 Off ch=1 n=d#7 v=0
20480 On ch=1 n=d#5 v=58
20480 On ch=1 n=d#6 v=70
21248 Off ch=1 n=d#5 v=0
21248 Off ch=1 n=d#6 v=0
21248 On ch=1 n=a#5 v=58
21248 On ch=1 n=a#6 v=70
21504 Par ch=1 c=64 v=0
21504 Par ch=1 c=64 v=0
21504 Par ch=1 c=64 v=0
21504 Off ch=1 n=a#5 v=0
21504 Off ch=1 n=a#6 v=0
21504 On ch=1 n=a#5 v=60
21504 On ch=1 n=d#6 v=60
21504 On ch=1 n=a#6 v=74
23552 Off ch=1 n=a#5 v=0
23552 Off ch=1 n=d#6 v=0
23552 Off ch=1 n=a#6 v=0
23552 On ch=1 n=d#6 v=56
23552 On ch=1 n=g#5 v=56
23552 On ch=1 n=g#6 v=71
23893 Off ch=1 n=g#5 v=0
23893 Off ch=1 n=g#6 v=0
23893 On ch=1 n=g5 v=57
23893 On ch=1 n=g6 v=73
24235 Off ch=1 n=g5 v=0
24235 Off ch=1 n=g6 v=0
24235 On ch=1 n=g#5 v=58
24235 On ch=1 n=g#6 v=75
24576 Off ch=1 n=d#6 v=0
24576 Off ch=1 n=g#5 v=0
24576 Off ch=1 n=g#6 v=0
24576 On ch=1 n=a#5 v=60
24576 On ch=1 n=a#6 v=77
24576 On ch=1 n=d#6 v=60
24832 Off ch=1 n=a#5 v=0
24832 Off ch=1 n=a#6 v=0
24832 On ch=1 n=b5 v=60
24832 On ch=1 n=b6 v=77
25088 Off ch=1 n=b5 v=0
25088 Off ch=1 n=b6 v=0
25088 On ch=1 n=d#6 v=61
25088 On ch=1 n=d#7 v=79
25088 Off ch=1 n=d#6 v=0
25088 On ch=1 n=g#6 v=61
25344 Off ch=1 n=d#6 v=0
25344 Off ch=1 n=d#7 v=0
25344 Off ch=1 n=g#6 v=0
25472 On ch=1 n=f#6 v=63
25472 On ch=1 n=f#7 v=80
25600 Par ch=1 c=64 v=0
25600 Par ch=1 c=64 v=0
25600 Par ch=1 c=64 v=0
25600 Off ch=1 n=f#6 v=0
25600 Off ch=1 n=f#7 v=0
25600 On ch=1 n=f#6 v=61
25600 On ch=1 n=b6 v=61
25600 On ch=1 n=f#7 v=79
26624 Off ch=1 n=f#6 v=0
26624 Off ch=1 n=b6 v=0
26624 Off ch=1 n=f#7 v=0
26624 On ch=1 n=f6 v=47
26624 On ch=1 n=b6 v=47
26624 On ch=1 n=f7 v=70
28672 Off ch=1 n=f6 v=0
28672 Off ch=1 n=b6 v=0
28672 Off ch=1 n=f7 v=0
28672 On ch=1 n=e6 v=58
28672 On ch=1 n=g#6 v=58
28672 On ch=1 n=b6 v=58
28672 On ch=1 n=e7 v=73
29696 Par ch=1 c=64 v=0
29696 Off ch=1 n=e6 v=0
29696 Off ch=1 n=g#6 v=0
29696 Off ch=1 n=b6 v=0
29696 Off ch=1 n=e7 v=0
29696 On ch=1 n=d#6 v=60
29696 On ch=1 n=g#6 v=60
29696 On ch=1 n=b6 v=60
29696 On ch=1 n=d#7 v=76
30720 Off ch=1 n=d#6 v=0
30720 Off ch=1 n=g#6 v=0
30720 Off ch=1 n=b6 v=0
30720 Off ch=1 n=d#7 v=0
30720 On ch=1 n=c#6 v=53
30720 On ch=1 n=d#6 v=53
30720 On ch=1 n=g#6 v=53
30720 On ch=1 n=c#7 v=69
31232 Off ch=1 n=c#6 v=0
31232 Off ch=1 n=c#7 v=0
31232 On ch=1 n=b5 v=53
31232 On ch=1 n=b6 v=69
31744 Off ch=1 n=b5 v=0
31744 Off ch=1 n=d#6 v=0
31744 Off ch=1 n=g#6 v=0
31744 Off ch=1 n=b6 v=0
31744 On ch=1 n=a#5 v=54
31744 On ch=1 n=d#6 v=54
31744 On ch=1 n=a#6 v=70
32256 Off ch=1 n=a#5 v=0
32256 Off ch=1 n=a#6 v=0
32256 On ch=1 n=g#5 v=50
32256 On ch=1 n=g#6 v=66
33451 Off ch=1 n=g#5 v=0
33451 Off ch=1 n=d#6 v=0
33451 Off ch=1 n=g#6 v=0
33451 On ch=1 n=f#5 v=50
33451 On ch=1 n=b5 v=50
33451 On ch=1 n=d#6 v=50
33451 On ch=1 n=f#6 v=66
33792 Par ch=1 c=64 v=0
33792 Off ch=1 n=f#5 v=0
33792 Off ch=1 n=b5 v=0
33792 Off ch=1 n=d#6 v=0
33792 Off ch=1 n=f#6 v=0
33792 On ch=1 n=f#5 v=53
33792 On ch=1 n=a#5 v=53
33792 On ch=1 n=d6 v=53
33792 On ch=1 n=f#6 v=69
34816 Off ch=1 n=f#5 v=0
34816 Off ch=1 n=f#6 v=0
34816 On ch=1 n=f5 v=44
34816 On ch=1 n=f6 v=60
35840 Off ch=1 n=f5 v=0
35840 Off ch=1 n=a#5 v=0
35840 Off ch=1 n=d6 v=0
35840 Off ch=1 n=f6 v=0
36608 On ch=1 n=a#5 v=55
36608 On ch=1 n=a#6 v=70
36864 Off ch=1 n=a#5 v=0
36864 Off ch=1 n=a#6 v=0
36864 On ch=1 n=a#4 v=60
36864 On ch=1 n=a#5 v=75
37376 Off ch=1 n=a#4 v=0
37376 Off ch=1 n=a#5 v=0
37632 On ch=1 n=f5 v=55
37632 On ch=1 n=f6 v=70
37888 Par ch=1 c=64 v=0
37888 Par ch=1 c=64 v=0
37888 Off ch=1 n=f5 v=0
37888 Off ch=1 n=f6 v=0
37888 On ch=1 n=f5 v=61
37888 On ch=1 n=a#5 v=61
37888 On ch=1 n=f6 v=81
39936 Off ch=1 n=f5 v=0
39936 Off ch=1 n=a#5 v=0
39936 Off ch=1 n=f6 v=0
39936 On ch=1 n=a#5 v=50
39936 On ch=1 n=d#5 v=50
39936 On ch=1 n=d#6 v=66
40277 Off ch=1 n=d#5 v=0
40277 Off ch=1 n=d#6 v=0
40277 On ch=1 n=d5 v=51
40277 On ch=1 n=d6 v=67
40619 Off ch=1 n=d5 v=0
40619 Off ch=1 n=d6 v=0
40619 On ch=1 n=d#5 v=52
40619 On ch=1 n=d#6 v=69
40960 Off ch=1 n=a#5 v=0
40960 Off ch=1 n=d#5 v=0
40960 Off ch=1 n=d#6 v=0
40960 On ch=1 n=f5 v=54
40960 On ch=1 n=f6 v=71
40960 On ch=1 n=a#5 v=54
41216 Off ch=1 n=f5 v=0
41216 Off ch=1 n=f6 v=0
41216 On ch=1 n=f#5 v=54
41216 On ch=1 n=f#6 v=71
41472 Off ch=1 n=f#5 v=0
41472 Off ch=1 n=f#6 v=0
41472 On ch=1 n=a#5 v=55
41472 On ch=1 n=a#6 v=73
41472 Off ch=1 n=a#5 v=0
41472 On ch=1 n=d#6 v=55
41728 Off ch=1 n=a#5 v=0
41728 Off ch=1 n=a#6 v=0
41728 Off ch=1 n=d#6 v=0
41856 On ch=1 n=c#6 v=57
41856 On ch=1 n=c#7 v=74
41984 Par ch=1 c=64 v=0
41984 Par ch=1 c=64 v=0
41984 Off ch=1 n=c#6 v=0
41984 Off ch=1 n=c#7 v=0
41984 On ch=1 n=c#6 v=57
41984 On ch=1 n=f#6 v=57
41984 On ch=1 n=c#7 v=75
43008 Off ch=1 n=c#6 v=0
43008 Off ch=1 n=c#7 v=0
43008 On ch=1 n=b5 v=50
43008 On ch=1 n=b6 v=66
44032 Off ch=1 n=b5 v=0
44032 Off ch=1 n=f#6 v=0
44032 Off ch=1 n=b6 v=0
44800 On ch=1 n=b5 v=56
44800 On ch=1 n=b6 v=68
45056 Off ch=1 n=b5 v=0
45056 Off ch=1 n=b6 v=0
45056 On ch=1 n=b4 v=59
45056 On ch=1 n=b5 v=71
45824 Off ch=1 n=b4 v=0
45824 Off ch=1 n=b5 v=0
45824 On ch=1 n=f#5 v=59
45824 On ch=1 n=f#6 v=71
46080 Par ch=1 c=64 v=0
46080 Par ch=1 c=64 v=0
46080 Par ch=1 c=64 v=0
46080 Off ch=1 n=f#5 v=0
46080 Off ch=1 n=f#6 v=0
46080 On ch=1 n=f#5 v=66
46080 On ch=1 n=b5 v=66
46080 On ch=1 n=f#6 v=80
48128 Off ch=1 n=f#5 v=0
48128 Off ch=1 n=b5 v=0
48128 Off ch=1 n=f#6 v=0
48128 On ch=1 n=b5 v=56
48128 On ch=1 n=e5 v=56
48128 On ch=1 n=e6 v=71
48469 Off ch=1 n=e5 v=0
48469 Off ch=1 n=e6 v=0
48469 On ch=1 n=d#5 v=57
48469 On ch=1 n=d#6 v=73
48811 Off ch=1 n=d#5 v=0
48811 Off ch=1 n=d#6 v=0
48811 On ch=1 n=e5 v=58
48811 On ch=1 n=e6 v=75
49152 Off ch=1 n=b5 v=0
49152 Off ch=1 n=e5 v=0
49152 Off ch=1 n=e6 v=0
49152 On ch=1 n=f#5 v=60
49152 On ch=1 n=f#6 v=77
49152 On ch=1 n=b5 v=60
49408 Off ch=1 n=f#5 v=0
49408 Off ch=1 n=f#6 v=0
49408 On ch=1 n=g#5 v=60
49408 On ch=1 n=g#6 v=77
49664 Off ch=1 n=g#5 v=0
49664 Off ch=1 n=g#6 v=0
49664 On ch=1 n=b5 v=61
49664 On ch=1 n=b6 v=79
49664 Off ch=1 n=b5 v=0
49664 On ch=1 n=e6 v=61
49920 Off ch=1 n=b5 v=0
49920 Off ch=1 n=b6 v=0
49920 Off ch=1 n=e6 v=0
50048 On ch=1 n=d#6 v=63
50048 On ch=1 n=d#7 v=80
50176 Par ch=1 c=64 v=0
50176 Par ch=1 c=64 v=0
50176 Par ch=1 c=64 v=0
50176 Off ch=1 n=d#6 v=0
50176 Off ch=1 n=d#7 v=0
50176 On ch=1 n=d#6 v=63
50176 On ch=1 n=g#6 v=63
50176 On ch=1 n=d#7 v=81
51200 Off ch=1 n=d#6 v=0
51200 Off ch=1 n=d#7 v=0
51200 On ch=1 n=d6 v=49
51200 On ch=1 n=d7 v=72
52224 Off ch=1 n=d6 v=0
52224 Off ch=1 n=g#6 v=0
52224 Off ch=1 n=d7 v=0
52992 On ch=1 n=d#6 v=60
52992 On ch=1 n=d#7 v=72
53248 Off ch=1 n=d#6 v=0
53248 Off ch=1 n=d#7 v=0
53248 On ch=1 n=d#5 v=63
53248 On ch=1 n=d#6 v=75
54016 Off ch=1 n=d#5 v=0
54016 Off ch=1 n=d#6 v=0
54016 On ch=1 n=a#5 v=63
54016 On ch=1 n=a#6 v=75
54272 Par ch=1 c=64 v=0
54272 Par ch=1 c=64 v=0
54272 Par ch=1 c=64 v=0
54272 Par ch=1 c=64 v=0
54272 Off ch=1 n=a#5 v=0
54272 Off ch=1 n=a#6 v=0
54272 On ch=1 n=a#5 v=65
54272 On ch=1 n=d#6 v=65
54272 On ch=1 n=a#6 v=79
56320 Off ch=1 n=a#5 v=0
56320 Off ch=1 n=d#6 v=0
56320 Off ch=1 n=a#6 v=0
56320 On ch=1 n=d#6 v=60
56320 On ch=1 n=g#5 v=60
56320 On ch=1 n=g#6 v=75
56661 Off ch=1 n=g#5 v=0
56661 Off ch=1 n=g#6 v=0
56661 On ch=1 n=g5 v=61
56661 On ch=1 n=g6 v=77
57003 Off ch=1 n=g5 v=0
57003 Off ch=1 n=g6 v=0
57003 On ch=1 n=g#5 v=62
57003 On ch=1 n=g#6 v=79
57344 Off ch=1 n=d#6 v=0
57344 Off ch=1 n=g#5 v=0
57344 Off ch=1 n=g#6 v=0
57344 On ch=1 n=a#5 v=64
57344 On ch=1 n=a#6 v=81
57344 On ch=1 n=d#6 v=64
57600 Off ch=1 n=a#5 v=0
57600 Off ch=1 n=a#6 v=0
57600 On ch=1 n=b5 v=64
57600 On ch=1 n=b6 v=81
57856 Off ch=1 n=b5 v=0
57856 Off ch=1 n=b6 v=0
57856 On ch=1 n=d#6 v=65
57856 On ch=1 n=d#7 v=83
57856 Off ch=1 n=d#6 v=0
57856 On ch=1 n=g#6 v=65
58112 Off ch=1 n=d#6 v=0
58112 Off ch=1 n=d#7 v=0
58112 Off ch=1 n=g#6 v=0
58240 On ch=1 n=f#6 v=67
58240 On ch=1 n=f#7 v=84
58368 Par ch=1 c=64 v=0
58368 Par ch=1 c=64 v=0
58368 Par ch=1 c=64 v=0
58368 Par ch=1 c=64 v=0
58368 Off ch=1 n=f#6 v=0
58368 Off ch=1 n=f#7 v=0
58368 On ch=1 n=f#6 v=65
58368 On ch=1 n=b6 v=65
58368 On ch=1 n=f#7 v=83
59392 Off ch=1 n=f#6 v=0
59392 Off ch=1 n=b6 v=0
59392 Off ch=1 n=f#7 v=0
59392 On ch=1 n=f6 v=51
59392 On ch=1 n=b6 v=51
59392 On ch=1 n=f7 v=74
61440 Off ch=1 n=f6 v=0
61440 Off ch=1 n=b6 v=0
61440 Off ch=1 n=f7 v=0
61440 On ch=1 n=e6 v=58
61440 On ch=1 n=g#6 v=58
61440 On ch=1 n=b6 v=58
61440 On ch=1 n=e7 v=79
62464 Par ch=1 c=64 v=0
62464 Par ch=1 c=64 v=0
62464 Off ch=1 n=e6 v=0
62464 Off ch=1 n=g#6 v=0
62464 Off ch=1 n=b6 v=0
62464 Off ch=1 n=e7 v=0
62464 On ch=1 n=d#6 v=67
62464 On ch=1 n=g#6 v=67
62464 On ch=1 n=b6 v=67
62464 On ch=1 n=d#7 v=84
63488 Off ch=1 n=d#6 v=0
63488 Off ch=1 n=g#6 v=0
63488 Off ch=1 n=b6 v=0
63488 Off ch=1 n=d#7 v=0
63488 On ch=1 n=c#6 v=58
63488 On ch=1 n=d#6 v=58
63488 On ch=1 n=g#6 v=58
63488 On ch=1 n=c#7 v=73
64000 Off ch=1 n=c#6 v=0
64000 Off ch=1 n=c#7 v=0
64000 On ch=1 n=b5 v=56
64000 On ch=1 n=b6 v=71
64512 Off ch=1 n=b5 v=0
64512 Off ch=1 n=d#6 v=0
64512 Off ch=1 n=g#6 v=0
64512 Off ch=1 n=b6 v=0
64512 On ch=1 n=a#5 v=57
64512 On ch=1 n=c#6 v=57
64512 On ch=1 n=f6 v=57
64512 On ch=1 n=a#6 v=74
65024 Off ch=1 n=a#5 v=0
65024 Off ch=1 n=a#6 v=0
65024 On ch=1 n=g#5 v=49
65024 On ch=1 n=g#6 v=69
65536 Off ch=1 n=c#6 v=0
65536 Off ch=1 n=f6 v=0
65536 On ch=1 n=c#6 v=47
65536 On ch=1 n=f6 v=59
66219 Off ch=1 n=g#5 v=0
66219 Off ch=1 n=g#6 v=0
66219 On ch=1 n=a#5 v=44
66219 On ch=1 n=a#6 v=57
66560 Par ch=1 c=64 v=0
66560 Par ch=1 c=64 v=0
66560 Off ch=1 n=a#5 v=0
66560 Off ch=1 n=c#6 v=0
66560 Off ch=1 n=f6 v=0
66560 Off ch=1 n=a#6 v=0
66560 On ch=1 n=g#5 v=41
66560 On ch=1 n=c#6 v=41
66560 On ch=1 n=g#6 v=57
67584 Off ch=1 n=g#5 v=0
67584 Off ch=1 n=g#6 v=0
67584 On ch=1 n=f#5 v=32
67584 On ch=1 n=f#6 v=48
68608 Off ch=1 n=f#5 v=0
68608 Off ch=1 n=c#6 v=0
68608 Off ch=1 n=f#6 v=0
69291 On ch=1 n=c#6 v=48
69291 On ch=1 n=c#7 v=60
69632 Off ch=1 n=c#6 v=0
69632 Off ch=1 n=c#7 v=0
69632 On ch=1 n=g#5 v=48
69632 On ch=1 n=g#6 v=63
69973 Off ch=1 n=g#5 v=0
69973 Off ch=1 n=g#6 v=0
69973 On ch=1 n=f#5 v=48
69973 On ch=1 n=f#6 v=60
70315 Off ch=1 n=f#5 v=0
70315 Off ch=1 n=f#6 v=0
70315 On ch=1 n=g#5 v=48
70315 On ch=1 n=g#6 v=60
70656 Par ch=1 c=64 v=0
70656 Off ch=1 n=g#5 v=0
70656 Off ch=1 n=g#6 v=0
70656 On ch=1 n=c#5 v=39
70656 On ch=1 n=c#6 v=52
70997 Off ch=1 n=c#5 v=0
70997 Off ch=1 n=c#6 v=0
70997 On ch=1 n=d#5 v=41
70997 On ch=1 n=d#6 v=55
71339 Off ch=1 n=d#5 v=0
71339 Off ch=1 n=d#6 v=0
71339 On ch=1 n=e5 v=43
71339 On ch=1 n=e6 v=57
71680 Off ch=1 n=e5 v=0
71680 Off ch=1 n=e6 v=0
71680 On ch=1 n=g#5 v=45
71680 On ch=1 n=g#6 v=60
73045 Off ch=1 n=g#5 v=0
73045 Off ch=1 n=g#6 v=0
73045 On ch=1 n=f#5 v=42
73045 On ch=1 n=f#6 v=56
73387 Off ch=1 n=f#5 v=0
73387 Off ch=1 n=f#6 v=0
73387 On ch=1 n=g#5 v=43
73387 On ch=1 n=g#6 v=58
73728 Off ch=1 n=g#5 v=0
73728 Off ch=1 n=g#6 v=0
73728 On ch=1 n=a5 v=45
73728 On ch=1 n=a6 v=59
73984 Off ch=1 n=a5 v=0
73984 Off ch=1 n=a6 v=0
73984 On ch=1 n=c#6 v=45
73984 On ch=1 n=c#7 v=61
74240 Off ch=1 n=c#6 v=0
74240 Off ch=1 n=c#7 v=0
74240 On ch=1 n=e6 v=47
74240 On ch=1 n=e7 v=62
74496 Off ch=1 n=e6 v=0
74496 Off ch=1 n=e7 v=0
74624 On ch=1 n=g#6 v=48
74624 On ch=1 n=g#7 v=64
74752 Par ch=1 c=64 v=0
74752 Off ch=1 n=g#6 v=0
74752 Off ch=1 n=g#7 v=0
74752 On ch=1 n=g#6 v=49
74752 On ch=1 n=g#7 v=65
75776 Off ch=1 n=g#6 v=0
75776 Off ch=1 n=g#7 v=0
75776 On ch=1 n=f#6 v=45
75776 On ch=1 n=f#7 v=60
77141 Off ch=1 n=f#6 v=0
77141 Off ch=1 n=f#7 v=0
77141 On ch=1 n=e6 v=46
77141 On ch=1 n=e7 v=60
77483 Off ch=1 n=e6 v=0
77483 Off ch=1 n=e7 v=0
77483 On ch=1 n=c#6 v=45
77483 On ch=1 n=c#7 v=59
77824 Off ch=1 n=c#6 v=0
77824 Off ch=1 n=c#7 v=0
77824 On ch=1 n=a5 v=49
77824 On ch=1 n=a6 v=62
78165 Off ch=1 n=a5 v=0
78165 Off ch=1 n=a6 v=0
78165 On ch=1 n=g#5 v=43
78165 On ch=1 n=g#6 v=56
78507 Off ch=1 n=g#5 v=0
78507 Off ch=1 n=g#6 v=0
78507 On ch=1 n=a5 v=42
78507 On ch=1 n=a6 v=55
78848 Par ch=1 c=64 v=0
78848 Off ch=1 n=a5 v=0
78848 Off ch=1 n=a6 v=0
78848 On ch=1 n=f#5 v=42
78848 On ch=1 n=f#6 v=55
79189 Off ch=1 n=f#5 v=0
79189 Off ch=1 n=f#6 v=0
79189 On ch=1 n=g#5 v=44
79189 On ch=1 n=g#6 v=58
79531 Off ch=1 n=g#5 v=0
79531 Off ch=1 n=g#6 v=0
79531 On ch=1 n=a5 v=47
79531 On ch=1 n=a6 v=61
79872 Off ch=1 n=a5 v=0
79872 Off ch=1 n=a6 v=0
79872 On ch=1 n=f#6 v=49
79872 On ch=1 n=f#7 v=64
81920 Off ch=1 n=f#6 v=0
81920 Off ch=1 n=f#7 v=0
81920 On ch=1 n=e6 v=50
81920 On ch=1 n=e7 v=65
82603 Off ch=1 n=e6 v=0
82603 Off ch=1 n=e7 v=0
82603 On ch=1 n=f#6 v=51
82603 On ch=1 n=f#7 v=66
82944 Par ch=1 c=64 v=0
82944 Off ch=1 n=f#6 v=0
82944 Off ch=1 n=f#7 v=0
82944 On ch=1 n=e6 v=54
82944 On ch=1 n=e7 v=69
83968 Off ch=1 n=e6 v=0
83968 Off ch=1 n=e7 v=0
83968 On ch=1 n=d#6 v=50
83968 On ch=1 n=d#7 v=65
84651 Off ch=1 n=d#6 v=0
84651 Off ch=1 n=d#7 v=0
84651 On ch=1 n=c#6 v=50
84651 On ch=1 n=c#7 v=65
84992 Off ch=1 n=c#6 v=0
84992 Off ch=1 n=c#7 v=0
84992 On ch=1 n=b5 v=46
84992 On ch=1 n=b6 v=61
85333 Off ch=1 n=b5 v=0
85333 Off ch=1 n=b6 v=0
85333 On ch=1 n=a5 v=45
85333 On ch=1 n=a6 v=59
85675 Off ch=1 n=a5 v=0
85675 Off ch=1 n=a6 v=0
85675 On ch=1 n=g#5 v=43
85675 On ch=1 n=g#6 v=57
86016 Off ch=1 n=g#5 v=0
86016 Off ch=1 n=g#6 v=0
86016 On ch=1 n=f#5 v=43
86016 On ch=1 n=f#6 v=56
86357 Off ch=1 n=f#5 v=0
86357 Off ch=1 n=f#6 v=0
86357 On ch=1 n=e5 v=42
86357 On ch=1 n=e6 v=55
86699 Off ch=1 n=e5 v=0
86699 Off ch=1 n=e6 v=0
86699 On ch=1 n=f#5 v=40
86699 On ch=1 n=f#6 v=53
87040 Par ch=1 c=64 v=0
87040 Par ch=1 c=64 v=0
87040 Off ch=1 n=f#5 v=0
87040 Off ch=1 n=f#6 v=0
87040 On ch=1 n=b4 v=39
87040 On ch=1 n=b5 v=52
87381 Off ch=1 n=b4 v=0
87381 Off ch=1 n=b5 v=0
87381 On ch=1 n=c#5 v=41
87381 On ch=1 n=c#6 v=55
87723 Off ch=1 n=c#5 v=0
87723 Off ch=1 n=c#6 v=0
87723 On ch=1 n=d5 v=43
87723 On ch=1 n=d6 v=57
88064 Off ch=1 n=d5 v=0
88064 Off ch=1 n=d6 v=0
88064 On ch=1 n=f#5 v=45
88064 On ch=1 n=f#6 v=61
89429 Off ch=1 n=f#5 v=0
89429 Off ch=1 n=f#6 v=0
89429 On ch=1 n=e5 v=50
89429 On ch=1 n=e6 v=64
89771 Off ch=1 n=e5 v=0
89771 Off ch=1 n=e6 v=0
89771 On ch=1 n=f#5 v=51
89771 On ch=1 n=f#6 v=66
90112 Off ch=1 n=f#5 v=0
90112 Off ch=1 n=f#6 v=0
90112 On ch=1 n=g5 v=53
90112 On ch=1 n=g6 v=67
90368 Off ch=1 n=g5 v=0
90368 Off ch=1 n=g6 v=0
90368 On ch=1 n=b5 v=53
90368 On ch=1 n=b6 v=69
90624 Off ch=1 n=b5 v=0
90624 Off ch=1 n=b6 v=0
90624 On ch=1 n=d6 v=55
90624 On ch=1 n=d7 v=70
90880 Off ch=1 n=d6 v=0
90880 Off ch=1 n=d7 v=0
91008 On ch=1 n=f#6 v=56
91008 On ch=1 n=f#7 v=72
91136 Par ch=1 c=64 v=0
91136 Par ch=1 c=64 v=0
91136 Off ch=1 n=f#6 v=0
91136 Off ch=1 n=f#7 v=0
91136 On ch=1 n=f#6 v=57
91136 On ch=1 n=f#7 v=73
92160 Off ch=1 n=f#6 v=0
92160 Off ch=1 n=f#7 v=0
92160 On ch=1 n=e6 v=53
92160 On ch=1 n=e7 v=69
93525 Off ch=1 n=e6 v=0
93525 Off ch=1 n=e7 v=0
93525 On ch=1 n=d6 v=47
93525 On ch=1 n=d7 v=61
93867 Off ch=1 n=d6 v=0
93867 Off ch=1 n=d7 v=0
93867 On ch=1 n=b5 v=46
93867 On ch=1 n=b6 v=60
94208 Off ch=1 n=b5 v=0
94208 Off ch=1 n=b6 v=0
94208 On ch=1 n=g5 v=50
94208 On ch=1 n=g6 v=63
94549 Off ch=1 n=g5 v=0
94549 Off ch=1 n=g6 v=0
94549 On ch=1 n=f#5 v=44
94549 On ch=1 n=f#6 v=57
94891 Off ch=1 n=f#5 v=0
94891 Off ch=1 n=f#6 v=0
94891 On ch=1 n=g5 v=43
94891 On ch=1 n=g6 v=56
95232 Par ch=1 c=64 v=0
95232 Par ch=1 c=64 v=0
95232 Off ch=1 n=g5 v=0
95232 Off ch=1 n=g6 v=0
95232 On ch=1 n=e5 v=43
95232 On ch=1 n=e6 v=56
95573 Off ch=1 n=e5 v=0
95573 Off ch=1 n=e6 v=0
95573 On ch=1 n=f#5 v=45
95573 On ch=1 n=f#6 v=59
95915 Off ch=1 n=f#5 v=0
95915 Off ch=1 n=f#6 v=0
95915 On ch=1 n=g5 v=48
95915 On ch=1 n=g6 v=62
96256 Off ch=1 n=g5 v=0
96256 Off ch=1 n=g6 v=0
96256 On ch=1 n=e6 v=50
96256 On ch=1 n=e7 v=65
98304 Off ch=1 n=e6 v=0
98304 Off ch=1 n=e7 v=0
98304 On ch=1 n=d6 v=50
98304 On ch=1 n=d7 v=65
98987 Off ch=1 n=d6 v=0
98987 Off ch=1 n=d7 v=0
98987 On ch=1 n=e6 v=51
98987 On ch=1 n=e7 v=66
99328 Par ch=1 c=64 v=0
99328 Par ch=1 c=64 v=0
99328 Off ch=1 n=e6 v=0
99328 Off ch=1 n=e7 v=0
99328 On ch=1 n=d6 v=54
99328 On ch=1 n=d7 v=69
100352 Off ch=1 n=d6 v=0
100352 Off ch=1 n=d7 v=0
100352 On ch=1 n=c#6 v=47
100352 On ch=1 n=c#7 v=62
101035 Off ch=1 n=c#6 v=0
101035 Off ch=1 n=c#7 v=0
101035 On ch=1 n=b5 v=46
101035 On ch=1 n=b6 v=61
101376 Off ch=1 n=b5 v=0
101376 Off ch=1 n=b6 v=0
101376 On ch=1 n=a5 v=45
101376 On ch=1 n=a6 v=60
101717 Off ch=1 n=a5 v=0
101717 Off ch=1 n=a6 v=0
101717 On ch=1 n=g5 v=45
101717 On ch=1 n=g6 v=59
102059 Off ch=1 n=g5 v=0
102059 Off ch=1 n=g6 v=0
102059 On ch=1 n=f#5 v=43
102059 On ch=1 n=f#6 v=57
102400 Off ch=1 n=f#5 v=0
102400 Off ch=1 n=f#6 v=0
102400 On ch=1 n=e5 v=43
102400 On ch=1 n=e6 v=56
102741 Off ch=1 n=e5 v=0
102741 Off ch=1 n=e6 v=0
102741 On ch=1 n=d5 v=42
102741 On ch=1 n=d6 v=55
103083 Off ch=1 n=d5 v=0
103083 Off ch=1 n=d6 v=0
103083 On ch=1 n=e5 v=40
103083 On ch=1 n=e6 v=53
103424 Par ch=1 c=64 v=0
103424 Off ch=1 n=e5 v=0
103424 Off ch=1 n=e6 v=0
103424 On ch=1 n=a4 v=39
103424 On ch=1 n=a5 v=55
103765 Off ch=1 n=a4 v=0
103765 Off ch=1 n=a5 v=0
103765 On ch=1 n=c#5 v=43
103765 On ch=1 n=c#6 v=59
104107 Off ch=1 n=c#5 v=0
104107 Off ch=1 n=c#6 v=0
104107 On ch=1 n=d5 v=46
104107 On ch=1 n=d6 v=62
104448 Off ch=1 n=d5 v=0
104448 Off ch=1 n=d6 v=0
104448 On ch=1 n=a5 v=50
104448 On ch=1 n=d6 v=50
104448 On ch=1 n=a6 v=66
105984 Off ch=1 n=a5 v=0
105984 Off ch=1 n=d6 v=0
105984 Off ch=1 n=a6 v=0
105984 On ch=1 n=a5 v=48
105984 On ch=1 n=c#6 v=48
105984 On ch=1 n=f#6 v=48
105984 On ch=1 n=a6 v=66
106837 Off ch=1 n=a5 v=0
106837 Off ch=1 n=c#6 v=0
106837 Off ch=1 n=f#6 v=0
106837 Off ch=1 n=a6 v=0
107179 On ch=1 n=a5 v=52
107179 On ch=1 n=c#6 v=52
107179 On ch=1 n=f#6 v=52
107179 On ch=1 n=a6 v=71
107520 Par ch=1 c=64 v=0
107520 Off ch=1 n=a5 v=0
107520 Off ch=1 n=c#6 v=0
107520 Off ch=1 n=f#6 v=0
107520 Off ch=1 n=a6 v=0
107520 On ch=1 n=a5 v=53
107520 On ch=1 n=c6 v=53
107520 On ch=1 n=f#6 v=53
107520 On ch=1 n=a6 v=72
108544 Off ch=1 n=a5 v=0
108544 Off ch=1 n=c6 v=0
108544 Off ch=1 n=f#6 v=0
108544 Off ch=1 n=a6 v=0
108544 On ch=1 n=g#5 v=51
108544 On ch=1 n=c6 v=51
108544 On ch=1 n=f#6 v=51
108544 On ch=1 n=g#6 v=67
109568 Off ch=1 n=g#5 v=0
109568 Off ch=1 n=c6 v=0
109568 Off ch=1 n=f#6 v=0
109568 Off ch=1 n=g#6 v=0
110251 On ch=1 n=g#5 v=56
110251 On ch=1 n=g#6 v=68
110592 Off ch=1 n=g#5 v=0
110592 Off ch=1 n=g#6 v=0
110592 On ch=1 n=d#5 v=56
110592 On ch=1 n=d#6 v=68
110933 Off ch=1 n=d#5 v=0
110933 Off ch=1 n=d#6 v=0
110933 On ch=1 n=c#5 v=53
110933 On ch=1 n=c#6 v=64
111275 Off ch=1 n=c#5 v=0
111275 Off ch=1 n=c#6 v=0
111275 On ch=1 n=d#5 v=50
111275 On ch=1 n=d#6 v=61
111616 Par ch=1 c=64 v=0
111616 Par ch=1 c=64 v=0
111616 Off ch=1 n=d#5 v=0
111616 Off ch=1 n=d#6 v=0
111616 On ch=1 n=g#4 v=48
111616 On ch=1 n=g#5 v=64
111957 Off ch=1 n=g#4 v=0
111957 Off ch=1 n=g#5 v=0
111957 On ch=1 n=c5 v=52
111957 On ch=1 n=c6 v=68
112299 Off ch=1 n=c5 v=0
112299 Off ch=1 n=c6 v=0
112299 On ch=1 n=c#5 v=55
112299 On ch=1 n=c#6 v=71
112640 Off ch=1 n=c#5 v=0
112640 Off ch=1 n=c#6 v=0
112640 On ch=1 n=g#5 v=59
112640 On ch=1 n=c#6 v=59
112640 On ch=1 n=g#6 v=75
114176 Off ch=1 n=g#5 v=0
114176 Off ch=1 n=c#6 v=0
114176 Off ch=1 n=g#6 v=0
114176 On ch=1 n=g5 v=57
114176 On ch=1 n=b5 v=57
114176 On ch=1 n=e6 v=57
114176 On ch=1 n=g6 v=75
115029 Off ch=1 n=g5 v=0
115029 Off ch=1 n=b5 v=0
115029 Off ch=1 n=e6 v=0
115029 Off ch=1 n=g6 v=0
115371 On ch=1 n=g5 v=61
115371 On ch=1 n=b5 v=61
115371 On ch=1 n=e6 v=61
115371 On ch=1 n=g6 v=80
115712 Par ch=1 c=64 v=0
115712 Par ch=1 c=64 v=0
115712 Off ch=1 n=g5 v=0
115712 Off ch=1 n=b5 v=0
115712 Off ch=1 n=e6 v=0
115712 Off ch=1 n=g6 v=0
115712 On ch=1 n=g5 v=62
115712 On ch=1 n=a#5 v=62
115712 On ch=1 n=e6 v=62
115712 On ch=1 n=g6 v=81
116736 Off ch=1 n=g5 v=0
116736 Off ch=1 n=a#5 v=0
116736 Off ch=1 n=e6 v=0
116736 Off ch=1 n=g6 v=0
116736 On ch=1 n=f#5 v=55
116736 On ch=1 n=a#5 v=55
116736 On ch=1 n=e6 v=55
116736 On ch=1 n=f#6 v=71
117760 Off ch=1 n=f#5 v=0
117760 Off ch=1 n=a#5 v=0
117760 Off ch=1 n=e6 v=0
117760 Off ch=1 n=f#6 v=0
118443 On ch=1 n=f#5 v=65
118443 On ch=1 n=f#6 v=77
118784 Off ch=1 n=f#5 v=0
118784 Off ch=1 n=f#6 v=0
118784 On ch=1 n=c#5 v=65
118784 On ch=1 n=c#6 v=77
119125 Off ch=1 n=c#5 v=0
119125 Off ch=1 n=c#6 v=0
119125 On ch=1 n=b4 v=62
119125 On ch=1 n=b5 v=73
119467 Off ch=1 n=b4 v=0
119467 Off ch=1 n=b5 v=0
119467 On ch=1 n=c#5 v=59
119467 On ch=1 n=c#6 v=70
119808 Par ch=1 c=64 v=0
119808 Off ch=1 n=c#5 v=0
119808 Off ch=1 n=c#6 v=0
119808 On ch=1 n=f#4 v=54
119808 On ch=1 n=f#5 v=70
120149 Off ch=1 n=f#4 v=0
120149 Off ch=1 n=f#5 v=0
120149 On ch=1 n=a#4 v=52
120149 On ch=1 n=a#5 v=68
120491 Off ch=1 n=a#4 v=0
120491 Off ch=1 n=a#5 v=0
120491 On ch=1 n=b4 v=57
120491 On ch=1 n=b5 v=73
120832 Off ch=1 n=b4 v=0
120832 Off ch=1 n=b5 v=0
120832 On ch=1 n=f#5 v=61
120832 On ch=1 n=b5 v=61
120832 On ch=1 n=f#6 v=77
122880 Off ch=1 n=f#5 v=0
122880 Off ch=1 n=b5 v=0
122880 Off ch=1 n=f#6 v=0
122880 On ch=1 n=f5 v=60
122880 On ch=1 n=a5 v=60
122880 On ch=1 n=f6 v=76
123563 Off ch=1 n=f5 v=0
123563 Off ch=1 n=a5 v=0
123563 Off ch=1 n=f6 v=0
123563 On ch=1 n=d#5 v=53
123563 On ch=1 n=a5 v=53
123563 On ch=1 n=d#6 v=69
123904 Par ch=1 c=64 v=0
123904 Off ch=1 n=d#5 v=0
123904 Off ch=1 n=a5 v=0
123904 Off ch=1 n=d#6 v=0
123904 On ch=1 n=a#4 v=50
123904 On ch=1 n=d#5 v=50
123904 On ch=1 n=a#5 v=66
124245 Off ch=1 n=a#4 v=0
124245 Off ch=1 n=d#5 v=0
124245 Off ch=1 n=a#5 v=0
124245 On ch=1 n=d5 v=54
124245 On ch=1 n=d6 v=70
124587 Off ch=1 n=d5 v=0
124587 Off ch=1 n=d6 v=0
124587 On ch=1 n=d#5 v=57
124587 On ch=1 n=d#6 v=73
124928 Off ch=1 n=d#5 v=0
124928 Off ch=1 n=d#6 v=0
124928 On ch=1 n=a#5 v=61
124928 On ch=1 n=d#6 v=61
124928 On ch=1 n=a#6 v=77
125952 Off ch=1 n=a#5 v=0
125952 Off ch=1 n=d#6 v=0
125952 Off ch=1 n=a#6 v=0
125952 On ch=1 n=a#4 v=53
125952 On ch=1 n=d#5 v=53
125952 On ch=1 n=a#5 v=69
126293 Off ch=1 n=a#4 v=0
126293 Off ch=1 n=d#5 v=0
126293 Off ch=1 n=a#5 v=0
126293 On ch=1 n=d5 v=57
126293 On ch=1 n=d6 v=73
126635 Off ch=1 n=d5 v=0
126635 Off ch=1 n=d6 v=0
126635 On ch=1 n=d#5 v=60
126635 On ch=1 n=d#6 v=76
126976 Off ch=1 n=d#5 v=0
126976 Off ch=1 n=d#6 v=0
126976 On ch=1 n=b5 v=64
126976 On ch=1 n=d#6 v=64
126976 On ch=1 n=b6 v=80
128000 Par ch=1 c=64 v=0
128000 Off ch=1 n=b5 v=0
128000 Off ch=1 n=d#6 v=0
128000 Off ch=1 n=b6 v=0
128000 On ch=1 n=b4 v=60
128000 On ch=1 n=b5 v=76
128341 Off ch=1 n=b4 v=0
128341 Off ch=1 n=b5 v=0
128341 On ch=1 n=d#5 v=63
128341 On ch=1 n=d#6 v=79
128683 Off ch=1 n=d#5 v=0
128683 Off ch=1 n=d#6 v=0
128683 On ch=1 n=f5 v=67
128683 On ch=1 n=f6 v=83
129024 Off ch=1 n=f5 v=0
129024 Off ch=1 n=f6 v=0
129024 On ch=1 n=b5 v=70
129024 On ch=1 n=d#6 v=70
129024 On ch=1 n=b6 v=86
129707 Off ch=1 n=b5 v=0
129707 Off ch=1 n=d#6 v=0
129707 Off ch=1 n=b6 v=0
129707 On ch=1 n=a#5 v=67
129707 On ch=1 n=d#6 v=67
129707 On ch=1 n=a#6 v=83
130048 Off ch=1 n=a#5 v=0
130048 Off ch=1 n=d#6 v=0
130048 Off ch=1 n=a#6 v=0
130048 On ch=1 n=a#5 v=66
130048 On ch=1 n=d#6 v=66
130048 On ch=1 n=a#6 v=82
130389 Off ch=1 n=d#6 v=0
130389 On ch=1 n=d#6 v=65
130731 Off ch=1 n=a#5 v=0
130731 Off ch=1 n=d#6 v=0
130731 Off ch=1 n=a#6 v=0
130731 On ch=1 n=g#5 v=64
130731 On ch=1 n=d#6 v=64
130731 On ch=1 n=g#6 v=80
131072 Off ch=1 n=g#5 v=0
131072 Off ch=1 n=d#6 v=0
131072 Off ch=1 n=g#6 v=0
131072 On ch=1 n=g#5 v=63
131072 On ch=1 n=d#6 v=63
131072 On ch=1 n=g#6 v=79
131413 Off ch=1 n=d#6 v=0
131413 On ch=1 n=d#6 v=62
131755 Off ch=1 n=d#6 v=0
131755 On ch=1 n=d#6 v=61
132096 Par ch=1 c=64 v=0
132096 Par ch=1 c=64 v=0
132096 Off ch=1 n=g#5 v=0
132096 Off ch=1 n=d#6 v=0
132096 Off ch=1 n=g#6 v=0
132096 On ch=1 n=a#4 v=61
132096 On ch=1 n=a#5 v=77
132437 Off ch=1 n=a#4 v=0
132437 Off ch=1 n=a#5 v=0
132437 On ch=1 n=c#5 v=64
132437 On ch=1 n=c#6 v=80
132779 Off ch=1 n=c#5 v=0
132779 Off ch=1 n=c#6 v=0
132779 On ch=1 n=d5 v=68
132779 On ch=1 n=d6 v=84
133120 Off ch=1 n=d5 v=0
133120 Off ch=1 n=d6 v=0
133120 On ch=1 n=a#5 v=71
133120 On ch=1 n=a#6 v=87
134144 Off ch=1 n=a#5 v=0
134144 Off ch=1 n=a#6 v=0
134912 On ch=1 n=a#5 v=73
134912 On ch=1 n=a#6 v=89
135168 Off ch=1 n=a#5 v=0
135168 Off ch=1 n=a#6 v=0
135168 On ch=1 n=a#4 v=76
135168 On ch=1 n=a#5 v=92
135936 Off ch=1 n=a#4 v=0
135936 Off ch=1 n=a#5 v=0
135936 On ch=1 n=f5 v=73
135936 On ch=1 n=f6 v=89
136192 Off ch=1 n=f5 v=0
136192 Off ch=1 n=f6 v=0
136192 On ch=1 n=f5 v=90
136192 On ch=1 n=f6 v=99
136533 On ch=1 n=f5 v=60
136533 On ch=1 n=a#5 v=72
136875 Off ch=1 n=f5 v=0
136875 Off ch=1 n=a#5 v=0
136875 On ch=1 n=f5 v=60
136875 On ch=1 n=a#5 v=72
137216 Off ch=1 n=f5 v=0
137216 Off ch=1 n=a#5 v=0
137216 On ch=1 n=f5 v=60
137216 On ch=1 n=a#5 v=72
137557 Off ch=1 n=f5 v=0
137557 Off ch=1 n=a#5 v=0
137557 On ch=1 n=f5 v=60
137557 On ch=1 n=a#5 v=72
137899 Off ch=1 n=f5 v=0
137899 Off ch=1 n=a#5 v=0
137899 On ch=1 n=f5 v=60
137899 On ch=1 n=a#5 v=72
138240 Off ch=1 n=f5 v=0
138240 Off ch=1 n=f6 v=0
138240 Off ch=1 n=f5 v=0
138240 Off ch=1 n=a#5 v=0
138240 On ch=1 n=d#5 v=72
138240 On ch=1 n=a#5 v=72
138240 On ch=1 n=d#6 v=84
138581 Off ch=1 n=d#5 v=0
138581 Off ch=1 n=a#5 v=0
138581 Off ch=1 n=d#6 v=0
138581 On ch=1 n=d5 v=72
138581 On ch=1 n=a#5 v=72
138581 On ch=1 n=d6 v=84
138923 Off ch=1 n=d5 v=0
138923 Off ch=1 n=a#5 v=0
138923 Off ch=1 n=d6 v=0
138923 On ch=1 n=d#5 v=72
138923 On ch=1 n=a#5 v=72
138923 On ch=1 n=d#6 v=84
139264 Off ch=1 n=d#5 v=0
139264 Off ch=1 n=a#5 v=0
139264 Off ch=1 n=d#6 v=0
139264 On ch=1 n=f5 v=65
139264 On ch=1 n=f6 v=84
139264 On ch=1 n=a#5 v=65
139520 Off ch=1 n=f5 v=0
139520 Off ch=1 n=f6 v=0
139520 On ch=1 n=f#5 v=68
139520 On ch=1 n=f#6 v=88
139776 Off ch=1 n=a#5 v=0
139776 On ch=1 n=d#6 v=71
139776 Off ch=1 n=f#5 v=0
139776 Off ch=1 n=f#6 v=0
139776 On ch=1 n=a#5 v=71
139776 On ch=1 n=a#6 v=92
140032 Off ch=1 n=d#6 v=0
140032 Off ch=1 n=a#5 v=0
140032 Off ch=1 n=a#6 v=0
140160 On ch=1 n=c#6 v=76
140160 On ch=1 n=c#7 v=98
140288 Off ch=1 n=c#6 v=0
140288 Off ch=1 n=c#7 v=0
140288 On ch=1 n=c#6 v=70
140288 On ch=1 n=c#7 v=92
140629 On ch=1 n=c#6 v=60
140629 On ch=1 n=f#6 v=72
140971 Off ch=1 n=c#6 v=0
140971 Off ch=1 n=f#6 v=0
140971 On ch=1 n=c#6 v=60
140971 On ch=1 n=f#6 v=72
141312 Off ch=1 n=c#6 v=0
141312 Off ch=1 n=c#7 v=0
141312 Off ch=1 n=c#6 v=0
141312 Off ch=1 n=f#6 v=0
141312 On ch=1 n=f#6 v=63
141312 On ch=1 n=b5 v=71
141312 On ch=1 n=b6 v=87
141653 Off ch=1 n=f#6 v=0
141653 On ch=1 n=b5 v=60
141653 On ch=1 n=f#6 v=72
141995 Off ch=1 n=b5 v=0
141995 Off ch=1 n=f#6 v=0
141995 On ch=1 n=b5 v=60
141995 On ch=1 n=f#6 v=72
142336 Off ch=1 n=b5 v=0
142336 Off ch=1 n=f#6 v=0
142336 On ch=1 n=b5 v=60
142336 On ch=1 n=f#6 v=72
142336 Off ch=1 n=b5 v=0
142336 Off ch=1 n=b6 v=0
143104 On ch=1 n=b5 v=66
143104 On ch=1 n=b6 v=82
143360 Off ch=1 n=b5 v=0
143360 Off ch=1 n=f#6 v=0
143360 Off ch=1 n=b5 v=0
143360 Off ch=1 n=b6 v=0
143360 On ch=1 n=b4 v=71
143360 On ch=1 n=b5 v=87
144128 Off ch=1 n=b4 v=0
144128 Off ch=1 n=b5 v=0
144128 On ch=1 n=f#5 v=66
144128 On ch=1 n=f#6 v=82
144384 Off ch=1 n=f#5 v=0
144384 Off ch=1 n=f#6 v=0
144384 On ch=1 n=f#5 v=83
144384 On ch=1 n=f#6 v=92
144725 On ch=1 n=f#5 v=60
144725 On ch=1 n=b5 v=72
145067 Off ch=1 n=f#5 v=0
145067 Off ch=1 n=b5 v=0
145067 On ch=1 n=f#5 v=60
145067 On ch=1 n=b5 v=72
145408 Off ch=1 n=f#5 v=0
145408 Off ch=1 n=b5 v=0
145408 On ch=1 n=f#5 v=60
145408 On ch=1 n=b5 v=72
145749 Off ch=1 n=f#5 v=0
145749 Off ch=1 n=b5 v=0
145749 On ch=1 n=f#5 v=60
145749 On ch=1 n=b5 v=72
146091 Off ch=1 n=f#5 v=0
146091 Off ch=1 n=b5 v=0
146091 On ch=1 n=f#5 v=60
146091 On ch=1 n=b5 v=72
146432 Off ch=1 n=f#5 v=0
146432 Off ch=1 n=f#6 v=0
146432 Off ch=1 n=f#5 v=0
146432 Off ch=1 n=b5 v=0
146432 On ch=1 n=e5 v=72
146432 On ch=1 n=b5 v=72
146432 On ch=1 n=e6 v=84
146773 Off ch=1 n=e5 v=0
146773 Off ch=1 n=b5 v=0
146773 Off ch=1 n=e6 v=0
146773 On ch=1 n=d#5 v=72
146773 On ch=1 n=b5 v=72
146773 On ch=1 n=d#6 v=84
147115 Off ch=1 n=d#5 v=0
147115 Off ch=1 n=b5 v=0
147115 Off ch=1 n=d#6 v=0
147115 On ch=1 n=e5 v=72
147115 On ch=1 n=b5 v=72
147115 On ch=1 n=e6 v=84
147456 Off ch=1 n=e5 v=0
147456 Off ch=1 n=b5 v=0
147456 Off ch=1 n=e6 v=0
147456 On ch=1 n=f#5 v=65
147456 On ch=1 n=f#6 v=84
147456 On ch=1 n=b5 v=65
147712 Off ch=1 n=f#5 v=0
147712 Off ch=1 n=f#6 v=0
147712 On ch=1 n=g#5 v=68
147712 On ch=1 n=g#6 v=88
147968 Off ch=1 n=b5 v=0
147968 On ch=1 n=e6 v=71
147968 Off ch=1 n=g#5 v=0
147968 Off ch=1 n=g#6 v=0
147968 On ch=1 n=b5 v=71
147968 On ch=1 n=b6 v=92
148224 Off ch=1 n=e6 v=0
148224 Off ch=1 n=b5 v=0
148224 Off ch=1 n=b6 v=0
148352 On ch=1 n=d#6 v=76
148352 On ch=1 n=d#7 v=98
148480 Off ch=1 n=d#6 v=0
148480 Off ch=1 n=d#7 v=0
148480 On ch=1 n=d#6 v=77
148480 On ch=1 n=d#7 v=99
148821 On ch=1 n=d#6 v=60
148821 On ch=1 n=g#6 v=72
149163 Off ch=1 n=d#6 v=0
149163 Off ch=1 n=g#6 v=0
149163 On ch=1 n=d#6 v=60
149163 On ch=1 n=g#6 v=72
149504 Off ch=1 n=d#6 v=0
149504 Off ch=1 n=d#7 v=0
149504 Off ch=1 n=d#6 v=0
149504 Off ch=1 n=g#6 v=0
149504 On ch=1 n=g#6 v=63
149504 On ch=1 n=d6 v=71
149504 On ch=1 n=d7 v=87
149845 Off ch=1 n=g#6 v=0
149845 On ch=1 n=d6 v=60
149845 On ch=1 n=g#6 v=72
150187 Off ch=1 n=d6 v=0
150187 Off ch=1 n=g#6 v=0
150187 On ch=1 n=d6 v=60
150187 On ch=1 n=g#6 v=72
150528 Off ch=1 n=d6 v=0
150528 Off ch=1 n=g#6 v=0
150528 Off ch=1 n=d6 v=0
150528 Off ch=1 n=d7 v=0
150528 On ch=1 n=d6 v=60
150528 On ch=1 n=g#6 v=72
150869 Off ch=1 n=d6 v=0
150869 Off ch=1 n=g#6 v=0
150869 On ch=1 n=d6 v=60
150869 On ch=1 n=g#6 v=72
151211 Off ch=1 n=d6 v=0
151211 Off ch=1 n=g#6 v=0
151211 On ch=1 n=d#6 v=82
151211 On ch=1 n=g#6 v=82
151211 On ch=1 n=d#7 v=94
151552 Off ch=1 n=d#6 v=0
151552 Off ch=1 n=g#6 v=0
151552 Off ch=1 n=d#7 v=0
151552 On ch=1 n=d#5 v=78
151552 On ch=1 n=b5 v=94
151552 On ch=1 n=d#6 v=78
151893 Off ch=1 n=d#5 v=0
151893 On ch=1 n=d#5 v=60
152235 Off ch=1 n=d#5 v=0
152235 Off ch=1 n=b5 v=0
152235 Off ch=1 n=d#6 v=0
152235 On ch=1 n=a#5 v=72
152235 On ch=1 n=d#6 v=72
152235 On ch=1 n=a#6 v=88
152576 Off ch=1 n=a#5 v=0
152576 Off ch=1 n=d#6 v=0
152576 Off ch=1 n=a#6 v=0
152576 On ch=1 n=a#5 v=83
152576 On ch=1 n=a#6 v=92
152917 On ch=1 n=a#5 v=60
152917 On ch=1 n=d#6 v=72
153259 Off ch=1 n=a#5 v=0
153259 Off ch=1 n=d#6 v=0
153259 On ch=1 n=a#5 v=60
153259 On ch=1 n=d#6 v=72
153600 Off ch=1 n=a#5 v=0
153600 Off ch=1 n=d#6 v=0
153600 On ch=1 n=a#5 v=60
153600 On ch=1 n=d#6 v=72
153941 Off ch=1 n=a#5 v=0
153941 Off ch=1 n=d#6 v=0
153941 On ch=1 n=a#5 v=60
153941 On ch=1 n=d#6 v=72
154283 Off ch=1 n=a#5 v=0
154283 Off ch=1 n=d#6 v=0
154283 On ch=1 n=a#5 v=60
154283 On ch=1 n=d#6 v=72
154624 Off ch=1 n=a#5 v=0
154624 Off ch=1 n=a#6 v=0
154624 Off ch=1 n=a#5 v=0
154624 Off ch=1 n=d#6 v=0
154624 On ch=1 n=g#5 v=72
154624 On ch=1 n=d#6 v=72
154624 On ch=1 n=g#6 v=84
154965 Off ch=1 n=g#5 v=0
154965 Off ch=1 n=d#6 v=0
154965 Off ch=1 n=g#6 v=0
154965 On ch=1 n=g5 v=72
154965 On ch=1 n=d#6 v=72
154965 On ch=1 n=g6 v=84
155307 Off ch=1 n=g5 v=0
155307 Off ch=1 n=d#6 v=0
155307 Off ch=1 n=g6 v=0
155307 On ch=1 n=g#5 v=72
155307 On ch=1 n=d#6 v=72
155307 On ch=1 n=g#6 v=84
155648 Off ch=1 n=g#5 v=0
155648 Off ch=1 n=d#6 v=0
155648 Off ch=1 n=g#6 v=0
155648 On ch=1 n=a#5 v=65
155648 On ch=1 n=a#6 v=84
155648 On ch=1 n=d#6 v=65
155904 Off ch=1 n=a#5 v=0
155904 Off ch=1 n=a#6 v=0
155904 On ch=1 n=b5 v=68
155904 On ch=1 n=b6 v=88
156160 Off ch=1 n=d#6 v=0
156160 On ch=1 n=g#6 v=71
156160 Off ch=1 n=b5 v=0
156160 Off ch=1 n=b6 v=0
156160 On ch=1 n=d#6 v=71
156160 On ch=1 n=d#7 v=92
156416 Off ch=1 n=g#6 v=0
156416 Off ch=1 n=d#6 v=0
156416 Off ch=1 n=d#7 v=0
156544 On ch=1 n=f#6 v=76
156544 On ch=1 n=f#7 v=98
156672 Off ch=1 n=f#6 v=0
156672 Off ch=1 n=f#7 v=0
156672 On ch=1 n=f#6 v=77
156672 On ch=1 n=f#7 v=99
157013 On ch=1 n=f#6 v=60
157013 On ch=1 n=b6 v=72
157355 Off ch=1 n=f#6 v=0
157355 Off ch=1 n=b6 v=0
157355 On ch=1 n=f#6 v=60
157355 On ch=1 n=b6 v=72
157696 Off ch=1 n=f#6 v=0
157696 Off ch=1 n=f#7 v=0
157696 Off ch=1 n=f#6 v=0
157696 Off ch=1 n=b6 v=0
157696 On ch=1 n=b6 v=63
157696 On ch=1 n=f6 v=71
157696 On ch=1 n=f7 v=87
158037 Off ch=1 n=b6 v=0
158037 On ch=1 n=f6 v=60
158037 On ch=1 n=b6 v=72
158379 Off ch=1 n=f6 v=0
158379 Off ch=1 n=b6 v=0
158379 On ch=1 n=f6 v=60
158379 On ch=1 n=b6 v=72
158720 Off ch=1 n=f6 v=0
158720 Off ch=1 n=b6 v=0
158720 On ch=1 n=f6 v=60
158720 On ch=1 n=b6 v=72
159061 Off ch=1 n=f6 v=0
159061 Off ch=1 n=b6 v=0
159061 On ch=1 n=f6 v=60
159061 On ch=1 n=b6 v=72
159403 Off ch=1 n=f6 v=0
159403 Off ch=1 n=b6 v=0
159403 On ch=1 n=f6 v=60
159403 On ch=1 n=b6 v=72
159744 Off ch=1 n=f6 v=0
159744 Off ch=1 n=b6 v=0
159744 On ch=1 n=b6 v=60
159744 Off ch=1 n=f6 v=0
159744 Off ch=1 n=f7 v=0
159744 On ch=1 n=e6 v=78
159744 On ch=1 n=e7 v=94
160085 Off ch=1 n=b6 v=0
160085 On ch=1 n=e6 v=60
160085 On ch=1 n=b6 v=72
160427 Off ch=1 n=e6 v=0
160427 Off ch=1 n=b6 v=0
160427 On ch=1 n=e6 v=60
160427 On ch=1 n=b6 v=72
160768 Off ch=1 n=e6 v=0
160768 Off ch=1 n=b6 v=0
160768 Off ch=1 n=e6 v=0
160768 Off ch=1 n=e7 v=0
160768 On ch=1 n=d#6 v=75
160768 On ch=1 n=d#7 v=95
161109 On ch=1 n=g#6 v=51
161109 On ch=1 n=b6 v=63
161451 Off ch=1 n=g#6 v=0
161451 Off ch=1 n=b6 v=0
161451 On ch=1 n=d#6 v=51
161451 On ch=1 n=g#6 v=51
161451 On ch=1 n=b6 v=63
161792 Off ch=1 n=d#6 v=0
161792 Off ch=1 n=d#7 v=0
161792 Off ch=1 n=d#6 v=0
161792 Off ch=1 n=g#6 v=0
161792 Off ch=1 n=b6 v=0
161792 On ch=1 n=d#6 v=47
161792 On ch=1 n=g#6 v=47
161792 On ch=1 n=c#6 v=67
161792 On ch=1 n=c#7 v=86
162133 Off ch=1 n=d#6 v=0
162133 Off ch=1 n=g#6 v=0
162133 On ch=1 n=d#6 v=51
162133 On ch=1 n=g#6 v=63
162304 Off ch=1 n=c#6 v=0
162304 Off ch=1 n=c#7 v=0
162304 On ch=1 n=b5 v=64
162304 On ch=1 n=b6 v=82
162475 Off ch=1 n=d#6 v=0
162475 Off ch=1 n=g#6 v=0
162475 On ch=1 n=d#6 v=51
162475 On ch=1 n=g#6 v=63
162816 Off ch=1 n=d#6 v=0
162816 Off ch=1 n=g#6 v=0
162816 On ch=1 n=d#6 v=60
162816 Off ch=1 n=b5 v=0
162816 Off ch=1 n=b6 v=0
162816 On ch=1 n=a#5 v=67
162816 On ch=1 n=a#6 v=84
163157 Off ch=1 n=d#6 v=0
163157 On ch=1 n=a#5 v=60
163157 On ch=1 n=d#6 v=72
163499 Off ch=1 n=a#5 v=0
163499 Off ch=1 n=d#6 v=0
163499 On ch=1 n=d#6 v=60
163499 Off ch=1 n=a#5 v=0
163499 Off ch=1 n=a#6 v=0
163499 On ch=1 n=g#5 v=64
163499 On ch=1 n=g#6 v=81
163840 Off ch=1 n=d#6 v=0
163840 On ch=1 n=g#5 v=63
163840 On ch=1 n=d#6 v=60
164181 Off ch=1 n=g#5 v=0
164181 Off ch=1 n=d#6 v=0
164181 On ch=1 n=g#5 v=60
164181 On ch=1 n=d#6 v=72
164523 Off ch=1 n=g#5 v=0
164523 Off ch=1 n=d#6 v=0
164523 On ch=1 n=b5 v=60
164523 On ch=1 n=d#6 v=60
164523 Off ch=1 n=g#5 v=0
164523 Off ch=1 n=g#6 v=0
164523 On ch=1 n=f#5 v=60
164523 On ch=1 n=f#6 v=76
164864 Off ch=1 n=b5 v=0
164864 Off ch=1 n=d#6 v=0
164864 Off ch=1 n=f#5 v=0
164864 Off ch=1 n=f#6 v=0
164864 On ch=1 n=f#5 v=60
164864 On ch=1 n=f#6 v=76
165205 On ch=1 n=f#5 v=38
165205 On ch=1 n=b5 v=38
165205 On ch=1 n=d#6 v=50
165547 Off ch=1 n=f#5 v=0
165547 Off ch=1 n=b5 v=0
165547 Off ch=1 n=d#6 v=0
165547 On ch=1 n=f#5 v=39
165547 On ch=1 n=b5 v=39
165547 On ch=1 n=d#6 v=51
165888 Off ch=1 n=f#5 v=0
165888 Off ch=1 n=b5 v=0
165888 Off ch=1 n=d#6 v=0
165888 On ch=1 n=f#5 v=40
165888 On ch=1 n=b5 v=40
165888 On ch=1 n=d#6 v=52
166229 Off ch=1 n=f#5 v=0
166229 Off ch=1 n=b5 v=0
166229 Off ch=1 n=d#6 v=0
166229 On ch=1 n=f#5 v=41
166229 On ch=1 n=b5 v=41
166229 On ch=1 n=d#6 v=53
166571 Off ch=1 n=f#5 v=0
166571 Off ch=1 n=b5 v=0
166571 Off ch=1 n=d#6 v=0
166571 On ch=1 n=f#5 v=42
166571 On ch=1 n=b5 v=42
166571 On ch=1 n=d#6 v=54
166912 Off ch=1 n=f#5 v=0
166912 Off ch=1 n=f#6 v=0
166912 Off ch=1 n=f#5 v=0
166912 Off ch=1 n=b5 v=0
166912 Off ch=1 n=d#6 v=0
166912 On ch=1 n=b5 v=37
166912 On ch=1 n=d#6 v=53
166912 On ch=1 n=f5 v=53
166912 On ch=1 n=f6 v=69
167253 Off ch=1 n=b5 v=0
167253 Off ch=1 n=d#6 v=0
167253 On ch=1 n=f5 v=45
167253 On ch=1 n=b5 v=45
167253 On ch=1 n=d#6 v=57
167595 Off ch=1 n=f5 v=0
167595 Off ch=1 n=b5 v=0
167595 Off ch=1 n=d#6 v=0
167595 On ch=1 n=f5 v=46
167595 On ch=1 n=b5 v=46
167595 On ch=1 n=d#6 v=58
167936 Off ch=1 n=f5 v=0
167936 Off ch=1 n=b5 v=0
167936 Off ch=1 n=d#6 v=0
167936 On ch=1 n=f5 v=47
167936 On ch=1 n=b5 v=47
167936 On ch=1 n=d#6 v=59
167936 Off ch=1 n=f5 v=0
167936 Off ch=1 n=f6 v=0
168277 Off ch=1 n=f5 v=0
168277 Off ch=1 n=b5 v=0
168277 Off ch=1 n=d#6 v=0
168277 On ch=1 n=f5 v=48
168277 On ch=1 n=b5 v=48
168277 On ch=1 n=d#6 v=60
168619 Off ch=1 n=f5 v=0
168619 Off ch=1 n=b5 v=0
168619 Off ch=1 n=d#6 v=0
168619 On ch=1 n=a#5 v=64
168619 On ch=1 n=d#6 v=52
168619 On ch=1 n=f#6 v=52
168619 On ch=1 n=a#6 v=80
168960 Off ch=1 n=a#5 v=0
168960 Off ch=1 n=d#6 v=0
168960 Off ch=1 n=f#6 v=0
168960 Off ch=1 n=a#6 v=0
168960 On ch=1 n=a#5 v=72
168960 On ch=1 n=a#6 v=88
169301 On ch=1 n=a#5 v=50
169301 On ch=1 n=d#6 v=50
169301 On ch=1 n=f#6 v=62
169643 Off ch=1 n=a#5 v=0
169643 Off ch=1 n=d#6 v=0
169643 Off ch=1 n=f#6 v=0
169643 On ch=1 n=a#5 v=51
169643 On ch=1 n=d#6 v=51
169643 On ch=1 n=f#6 v=63
169984 Off ch=1 n=a#5 v=0
169984 Off ch=1 n=d#6 v=0
169984 Off ch=1 n=f#6 v=0
169984 On ch=1 n=a#5 v=52
169984 On ch=1 n=d#6 v=52
169984 On ch=1 n=f#6 v=64
170325 Off ch=1 n=a#5 v=0
170325 Off ch=1 n=d#6 v=0
170325 Off ch=1 n=f#6 v=0
170325 On ch=1 n=a#5 v=53
170325 On ch=1 n=d#6 v=53
170325 On ch=1 n=f#6 v=65
170667 Off ch=1 n=a#5 v=0
170667 Off ch=1 n=d#6 v=0
170667 Off ch=1 n=f#6 v=0
170667 On ch=1 n=a#5 v=54
170667 On ch=1 n=d#6 v=54
170667 On ch=1 n=f#6 v=66
171008 Off ch=1 n=a#5 v=0
171008 Off ch=1 n=a#6 v=0
171008 Off ch=1 n=a#5 v=0
171008 Off ch=1 n=d#6 v=0
171008 Off ch=1 n=f#6 v=0
171008 On ch=1 n=d#6 v=48
171008 On ch=1 n=f6 v=48
171008 On ch=1 n=g#5 v=64
171008 On ch=1 n=g#6 v=80
171349 Off ch=1 n=d#6 v=0
171349 Off ch=1 n=f6 v=0
171349 On ch=1 n=g#5 v=57
171349 On ch=1 n=d#6 v=57
171349 On ch=1 n=f6 v=69
171691 Off ch=1 n=g#5 v=0
171691 Off ch=1 n=d#6 v=0
171691 Off ch=1 n=f6 v=0
171691 On ch=1 n=g#5 v=58
171691 On ch=1 n=d#6 v=58
171691 On ch=1 n=f6 v=70
172032 Off ch=1 n=g#5 v=0
172032 Off ch=1 n=d#6 v=0
172032 Off ch=1 n=f6 v=0
172032 On ch=1 n=g#5 v=59
172032 On ch=1 n=d#6 v=59
172032 On ch=1 n=f6 v=71
172032 Off ch=1 n=g#5 v=0
172032 Off ch=1 n=g#6 v=0
172373 Off ch=1 n=g#5 v=0
172373 Off ch=1 n=d#6 v=0
172373 Off ch=1 n=f6 v=0
172373 On ch=1 n=g#5 v=60
172373 On ch=1 n=d#6 v=60
172373 On ch=1 n=f6 v=60
172715 Off ch=1 n=g#5 v=0
172715 Off ch=1 n=d#6 v=0
172715 Off ch=1 n=f6 v=0
172715 On ch=1 n=c#6 v=76
172715 On ch=1 n=d#6 v=64
172715 On ch=1 n=g#6 v=64
172715 On ch=1 n=c#7 v=92
173056 Off ch=1 n=c#6 v=0
173056 Off ch=1 n=d#6 v=0
173056 Off ch=1 n=g#6 v=0
173056 Off ch=1 n=c#7 v=0
173056 On ch=1 n=c#6 v=72
173056 On ch=1 n=c#7 v=88
173397 On ch=1 n=c#6 v=62
173397 On ch=1 n=d#6 v=62
173397 On ch=1 n=g#6 v=74
173739 Off ch=1 n=c#6 v=0
173739 Off ch=1 n=d#6 v=0
173739 Off ch=1 n=g#6 v=0
173739 On ch=1 n=c#6 v=63
173739 On ch=1 n=d#6 v=63
173739 On ch=1 n=g#6 v=75
174080 Off ch=1 n=c#6 v=0
174080 Off ch=1 n=d#6 v=0
174080 Off ch=1 n=g#6 v=0
174080 On ch=1 n=c#6 v=64
174080 On ch=1 n=d#6 v=64
174080 On ch=1 n=g#6 v=76
174421 Off ch=1 n=c#6 v=0
174421 Off ch=1 n=d#6 v=0
174421 Off ch=1 n=g#6 v=0
174421 On ch=1 n=c#6 v=65
174421 On ch=1 n=d#6 v=65
174421 On ch=1 n=g#6 v=77
174763 Off ch=1 n=c#6 v=0
174763 Off ch=1 n=d#6 v=0
174763 Off ch=1 n=g#6 v=0
174763 On ch=1 n=c#6 v=66
174763 On ch=1 n=d#6 v=66
174763 On ch=1 n=g#6 v=78
175104 Off ch=1 n=c#6 v=0
175104 Off ch=1 n=c#7 v=0
175104 Off ch=1 n=c#6 v=0
175104 Off ch=1 n=d#6 v=0
175104 Off ch=1 n=g#6 v=0
175104 On ch=1 n=d#6 v=53
175104 On ch=1 n=g#6 v=53
175104 On ch=1 n=b5 v=69
175104 On ch=1 n=b6 v=85
175445 Off ch=1 n=d#6 v=0
175445 Off ch=1 n=g#6 v=0
175445 On ch=1 n=b5 v=69
175445 On ch=1 n=d#6 v=69
175445 On ch=1 n=g#6 v=81
175787 Off ch=1 n=b5 v=0
175787 Off ch=1 n=d#6 v=0
175787 Off ch=1 n=g#6 v=0
175787 On ch=1 n=b5 v=70
175787 On ch=1 n=d#6 v=70
175787 On ch=1 n=g#6 v=82
176128 Off ch=1 n=b5 v=0
176128 Off ch=1 n=d#6 v=0
176128 Off ch=1 n=g#6 v=0
176128 On ch=1 n=b5 v=71
176128 On ch=1 n=d#6 v=71
176128 On ch=1 n=g#6 v=83
176128 Off ch=1 n=b5 v=0
176128 Off ch=1 n=b6 v=0
176469 Off ch=1 n=b5 v=0
176469 Off ch=1 n=d#6 v=0
176469 Off ch=1 n=g#6 v=0
176469 On ch=1 n=b5 v=72
176469 On ch=1 n=d#6 v=72
176469 On ch=1 n=g#6 v=72
176811 Off ch=1 n=b5 v=0
176811 Off ch=1 n=d#6 v=0
176811 Off ch=1 n=g#6 v=0
176811 On ch=1 n=f#6 v=88
176811 On ch=1 n=b6 v=76
176811 On ch=1 n=f#7 v=76
177152 Off ch=1 n=f#6 v=0
177152 Off ch=1 n=b6 v=0
177152 Off ch=1 n=f#7 v=0
177152 On ch=1 n=f#6 v=76
177152 On ch=1 n=f#7 v=92
177152 On ch=1 n=b6 v=76
177493 Off ch=1 n=b6 v=0
177493 On ch=1 n=f#6 v=54
177493 On ch=1 n=b6 v=65
177835 Off ch=1 n=f#6 v=0
177835 Off ch=1 n=b6 v=0
177835 On ch=1 n=f#6 v=54
177835 On ch=1 n=b6 v=65
178176 Off ch=1 n=f#6 v=0
178176 Off ch=1 n=f#7 v=0
178176 Off ch=1 n=f#6 v=0
178176 Off ch=1 n=b6 v=0
178176 On ch=1 n=b6 v=65
178176 On ch=1 n=f6 v=76
178176 On ch=1 n=f7 v=92
178517 Off ch=1 n=b6 v=0
178517 On ch=1 n=f6 v=55
178517 On ch=1 n=b6 v=65
178859 Off ch=1 n=f6 v=0
178859 Off ch=1 n=b6 v=0
178859 On ch=1 n=f6 v=55
178859 On ch=1 n=b6 v=65
179200 Off ch=1 n=f6 v=0
179200 Off ch=1 n=b6 v=0
179200 On ch=1 n=f6 v=56
179200 On ch=1 n=b6 v=66
179541 Off ch=1 n=f6 v=0
179541 Off ch=1 n=b6 v=0
179541 On ch=1 n=f6 v=56
179541 On ch=1 n=b6 v=66
179883 Off ch=1 n=f6 v=0
179883 Off ch=1 n=b6 v=0
179883 On ch=1 n=f6 v=56
179883 On ch=1 n=b6 v=66
180224 Off ch=1 n=f6 v=0
180224 Off ch=1 n=b6 v=0
180224 On ch=1 n=b6 v=62
180224 Off ch=1 n=f6 v=0
180224 Off ch=1 n=f7 v=0
180224 On ch=1 n=e6 v=70
180224 On ch=1 n=e7 v=86
180565 Off ch=1 n=b6 v=0
180565 On ch=1 n=e6 v=56
180565 On ch=1 n=b6 v=67
180907 Off ch=1 n=e6 v=0
180907 Off ch=1 n=b6 v=0
180907 On ch=1 n=e6 v=56
180907 On ch=1 n=b6 v=67
181248 Off ch=1 n=b6 v=0
181248 Off ch=1 n=e6 v=0
181248 On ch=1 n=b6 v=68
181589 Off ch=1 n=b6 v=0
181589 On ch=1 n=e6 v=57
181589 On ch=1 n=b6 v=68
181931 Off ch=1 n=e6 v=0
181931 Off ch=1 n=b6 v=0
181931 On ch=1 n=e6 v=57
181931 On ch=1 n=b6 v=68
182272 Off ch=1 n=e6 v=0
182272 Off ch=1 n=e7 v=0
182272 Off ch=1 n=e6 v=0
182272 Off ch=1 n=b6 v=0
182272 On ch=1 n=g#6 v=63
182272 On ch=1 n=b6 v=63
182272 On ch=1 n=d#6 v=70
182272 On ch=1 n=d#7 v=86
182613 Off ch=1 n=g#6 v=0
182613 Off ch=1 n=b6 v=0
182613 On ch=1 n=d#6 v=58
182613 On ch=1 n=g#6 v=58
182613 On ch=1 n=b6 v=68
182955 Off ch=1 n=d#6 v=0
182955 Off ch=1 n=g#6 v=0
182955 Off ch=1 n=b6 v=0
182955 On ch=1 n=d#6 v=58
182955 On ch=1 n=g#6 v=58
182955 On ch=1 n=b6 v=68
183296 Off ch=1 n=d#6 v=0
183296 Off ch=1 n=g#6 v=0
183296 Off ch=1 n=b6 v=0
183296 On ch=1 n=d#6 v=58
183296 On ch=1 n=g#6 v=58
183296 On ch=1 n=b6 v=69
183637 Off ch=1 n=d#6 v=0
183637 Off ch=1 n=g#6 v=0
183637 Off ch=1 n=b6 v=0
183637 On ch=1 n=d#6 v=58
183637 On ch=1 n=g#6 v=58
183637 On ch=1 n=b6 v=69
183979 Off ch=1 n=d#6 v=0
183979 Off ch=1 n=g#6 v=0
183979 Off ch=1 n=b6 v=0
183979 On ch=1 n=d#6 v=58
183979 On ch=1 n=g#6 v=58
183979 On ch=1 n=b6 v=69
184320 Off ch=1 n=d#6 v=0
184320 Off ch=1 n=g#6 v=0
184320 Off ch=1 n=b6 v=0
184320 On ch=1 n=g#6 v=53
184320 On ch=1 n=b6 v=86
184320 Off ch=1 n=d#6 v=0
184320 Off ch=1 n=d#7 v=0
184320 On ch=1 n=d6 v=70
184320 On ch=1 n=d7 v=70
184661 Off ch=1 n=g#6 v=0
184661 Off ch=1 n=b6 v=0
184661 On ch=1 n=d6 v=59
184661 On ch=1 n=g#6 v=59
184661 On ch=1 n=b6 v=70
185003 Off ch=1 n=d6 v=0
185003 Off ch=1 n=g#6 v=0
185003 Off ch=1 n=b6 v=0
185003 On ch=1 n=d6 v=59
185003 On ch=1 n=g#6 v=59
185003 On ch=1 n=b6 v=70
185344 Off ch=1 n=g#6 v=0
185344 Off ch=1 n=b6 v=0
185344 Off ch=1 n=d6 v=0
185344 On ch=1 n=g#6 v=71
185344 On ch=1 n=b6 v=71
185685 Off ch=1 n=g#6 v=0
185685 Off ch=1 n=b6 v=0
185685 On ch=1 n=d6 v=60
185685 On ch=1 n=g#6 v=60
185685 On ch=1 n=b6 v=71
186027 Off ch=1 n=d6 v=0
186027 Off ch=1 n=g#6 v=0
186027 Off ch=1 n=b6 v=0
186027 On ch=1 n=d6 v=64
186027 On ch=1 n=g#6 v=64
186027 On ch=1 n=b6 v=76
186368 Off ch=1 n=d6 v=0
186368 Off ch=1 n=d7 v=0
186368 Off ch=1 n=d6 v=0
186368 Off ch=1 n=g#6 v=0
186368 Off ch=1 n=b6 v=0
186368 On ch=1 n=b6 v=65
186368 On ch=1 n=d#6 v=70
186368 On ch=1 n=d#7 v=86
186709 Off ch=1 n=b6 v=0
186709 On ch=1 n=d#6 v=60
186709 On ch=1 n=b6 v=71
187051 Off ch=1 n=d#6 v=0
187051 Off ch=1 n=b6 v=0
187051 On ch=1 n=d#6 v=60
187051 On ch=1 n=b6 v=71
187392 Off ch=1 n=d#6 v=0
187392 Off ch=1 n=b6 v=0
187392 On ch=1 n=d#6 v=60
187392 On ch=1 n=b6 v=71
187733 Off ch=1 n=d#6 v=0
187733 Off ch=1 n=b6 v=0
187733 On ch=1 n=d#6 v=61
187733 On ch=1 n=b6 v=72
188075 Off ch=1 n=d#6 v=0
188075 Off ch=1 n=b6 v=0
188075 On ch=1 n=d#6 v=61
188075 On ch=1 n=b6 v=72
188416 Off ch=1 n=d#6 v=0
188416 Off ch=1 n=b6 v=0
188416 On ch=1 n=a#6 v=67
188416 Off ch=1 n=d#6 v=0
188416 Off ch=1 n=d#7 v=0
188416 On ch=1 n=c#6 v=70
188416 On ch=1 n=c#7 v=86
188757 Off ch=1 n=a#6 v=0
188757 On ch=1 n=c#6 v=61
188757 On ch=1 n=a#6 v=73
189099 Off ch=1 n=c#6 v=0
189099 Off ch=1 n=a#6 v=0
189099 On ch=1 n=c#6 v=61
189099 On ch=1 n=a#6 v=73
189440 Off ch=1 n=a#6 v=0
189440 Off ch=1 n=c#6 v=0
189440 On ch=1 n=a#6 v=73
189781 Off ch=1 n=a#6 v=0
189781 On ch=1 n=c#6 v=62
189781 On ch=1 n=a#6 v=74
190123 Off ch=1 n=c#6 v=0
190123 Off ch=1 n=a#6 v=0
190123 On ch=1 n=c#6 v=62
190123 On ch=1 n=e6 v=62
190123 On ch=1 n=a#6 v=74
190464 Off ch=1 n=c#6 v=0
190464 Off ch=1 n=c#7 v=0
190464 Off ch=1 n=c#6 v=0
190464 Off ch=1 n=e6 v=0
190464 Off ch=1 n=a#6 v=0
190464 On ch=1 n=e6 v=56
190464 On ch=1 n=g#6 v=68
190464 On ch=1 n=b5 v=70
190464 On ch=1 n=b6 v=86
190805 Off ch=1 n=e6 v=0
190805 Off ch=1 n=g#6 v=0
190805 On ch=1 n=b5 v=63
190805 On ch=1 n=e6 v=63
190805 On ch=1 n=g#6 v=74
191147 Off ch=1 n=b5 v=0
191147 Off ch=1 n=e6 v=0
191147 Off ch=1 n=g#6 v=0
191147 On ch=1 n=b5 v=63
191147 On ch=1 n=e6 v=63
191147 On ch=1 n=g#6 v=74
191488 Off ch=1 n=b5 v=0
191488 Off ch=1 n=e6 v=0
191488 Off ch=1 n=g#6 v=0
191488 On ch=1 n=b5 v=63
191488 On ch=1 n=e6 v=63
191488 On ch=1 n=g#6 v=74
191829 Off ch=1 n=b5 v=0
191829 Off ch=1 n=e6 v=0
191829 Off ch=1 n=g#6 v=0
191829 On ch=1 n=b5 v=63
191829 On ch=1 n=e6 v=63
191829 On ch=1 n=g#6 v=75
192171 Off ch=1 n=b5 v=0
192171 Off ch=1 n=e6 v=0
192171 Off ch=1 n=g#6 v=0
192171 On ch=1 n=b5 v=63
192171 On ch=1 n=e6 v=63
192171 On ch=1 n=g#6 v=75
192512 Off ch=1 n=b5 v=0
192512 Off ch=1 n=e6 v=0
192512 Off ch=1 n=g#6 v=0
192512 On ch=1 n=d#6 v=57
192512 On ch=1 n=f#6 v=69
192512 Off ch=1 n=b5 v=0
192512 Off ch=1 n=b6 v=0
192512 On ch=1 n=b5 v=70
192512 On ch=1 n=b6 v=86
192853 Off ch=1 n=d#6 v=0
192853 Off ch=1 n=f#6 v=0
192853 On ch=1 n=b5 v=64
192853 On ch=1 n=d#6 v=64
192853 On ch=1 n=f#6 v=76
193195 Off ch=1 n=b5 v=0
193195 Off ch=1 n=d#6 v=0
193195 Off ch=1 n=f#6 v=0
193195 On ch=1 n=b5 v=64
193195 On ch=1 n=d#6 v=64
193195 On ch=1 n=f#6 v=76
193536 Off ch=1 n=d#6 v=0
193536 Off ch=1 n=f#6 v=0
193536 Off ch=1 n=b5 v=0
193536 On ch=1 n=d#6 v=60
193536 On ch=1 n=f#6 v=72
193877 Off ch=1 n=d#6 v=0
193877 Off ch=1 n=f#6 v=0
193877 On ch=1 n=b5 v=61
193877 On ch=1 n=d#6 v=61
193877 On ch=1 n=f#6 v=73
194219 Off ch=1 n=b5 v=0
194219 Off ch=1 n=d#6 v=0
194219 Off ch=1 n=f#6 v=0
194219 On ch=1 n=b5 v=61
194219 On ch=1 n=d#6 v=61
194219 On ch=1 n=f#6 v=73
194560 Off ch=1 n=b5 v=0
194560 Off ch=1 n=b6 v=0
194560 Off ch=1 n=b5 v=0
194560 Off ch=1 n=d#6 v=0
194560 Off ch=1 n=f#6 v=0
194560 On ch=1 n=d#6 v=53
194560 On ch=1 n=f#6 v=65
194560 On ch=1 n=a#5 v=65
194560 On ch=1 n=a#6 v=82
194901 Off ch=1 n=d#6 v=0
194901 Off ch=1 n=f#6 v=0
194901 On ch=1 n=a#5 v=62
194901 On ch=1 n=d#6 v=62
194901 On ch=1 n=f#6 v=74
195243 Off ch=1 n=a#5 v=0
195243 Off ch=1 n=d#6 v=0
195243 Off ch=1 n=f#6 v=0
195243 On ch=1 n=a#5 v=62
195243 On ch=1 n=d#6 v=62
195243 On ch=1 n=f#6 v=75
195584 Off ch=1 n=a#5 v=0
195584 Off ch=1 n=d#6 v=0
195584 Off ch=1 n=f#6 v=0
195584 On ch=1 n=d#6 v=67
195584 Off ch=1 n=a#5 v=0
195584 Off ch=1 n=a#6 v=0
195584 On ch=1 n=b5 v=67
195584 On ch=1 n=b6 v=83
195925 Off ch=1 n=d#6 v=0
195925 On ch=1 n=b5 v=64
195925 On ch=1 n=d#6 v=76
196267 Off ch=1 n=b5 v=0
196267 Off ch=1 n=d#6 v=0
196267 On ch=1 n=b5 v=64
196267 On ch=1 n=d#6 v=77
196608 Off ch=1 n=b5 v=0
196608 Off ch=1 n=d#6 v=0
196608 On ch=1 n=b5 v=56
196608 On ch=1 n=d#6 v=69
196608 Off ch=1 n=b5 v=0
196608 Off ch=1 n=b6 v=0
196608 On ch=1 n=f#5 v=69
196608 On ch=1 n=f#6 v=86
196949 Off ch=1 n=b5 v=0
196949 Off ch=1 n=d#6 v=0
196949 On ch=1 n=b5 v=65
196949 On ch=1 n=d#6 v=78
197291 Off ch=1 n=b5 v=0
197291 Off ch=1 n=d#6 v=0
197291 On ch=1 n=b5 v=65
197291 On ch=1 n=d#6 v=78
197632 Off ch=1 n=b5 v=0
197632 Off ch=1 n=d#6 v=0
197632 Off ch=1 n=f#5 v=0
197632 Off ch=1 n=f#6 v=0
197632 On ch=1 n=g#5 v=70
197632 On ch=1 n=g#6 v=88
197632 On ch=1 n=b5 v=48
197632 On ch=1 n=d#6 v=61
197973 Off ch=1 n=b5 v=0
197973 Off ch=1 n=d#6 v=0
197973 On ch=1 n=b5 v=58
197973 On ch=1 n=d#6 v=71
198315 Off ch=1 n=b5 v=0
198315 Off ch=1 n=d#6 v=0
198315 On ch=1 n=b5 v=58
198315 On ch=1 n=d#6 v=72
198656 Off ch=1 n=b5 v=0
198656 Off ch=1 n=d#6 v=0
198656 On ch=1 n=b5 v=59
198656 On ch=1 n=d#6 v=72
198997 Off ch=1 n=b5 v=0
198997 Off ch=1 n=d#6 v=0
198997 On ch=1 n=b5 v=59
198997 On ch=1 n=d#6 v=72
199339 Off ch=1 n=b5 v=0
199339 Off ch=1 n=d#6 v=0
199339 On ch=1 n=b5 v=59
199339 On ch=1 n=d#6 v=73
199680 Off ch=1 n=g#5 v=0
199680 Off ch=1 n=g#6 v=0
199680 Off ch=1 n=b5 v=0
199680 Off ch=1 n=d#6 v=0
199680 On ch=1 n=a#5 v=60
199680 On ch=1 n=d6 v=74
200448 On ch=1 n=a#5 v=72
200448 On ch=1 n=a#6 v=88
200704 Off ch=1 n=a#5 v=0
200704 Off ch=1 n=d6 v=0
200704 Off ch=1 n=a#5 v=0
200704 Off ch=1 n=a#6 v=0
200704 On ch=1 n=a#4 v=72
200704 On ch=1 n=a#5 v=88
201472 Off ch=1 n=a#4 v=0
201472 Off ch=1 n=a#5 v=0
201472 On ch=1 n=f5 v=72
201472 On ch=1 n=f6 v=88
201728 Off ch=1 n=f5 v=0
201728 Off ch=1 n=f6 v=0
201728 On ch=1 n=f5 v=73
201728 On ch=1 n=f6 v=89
202069 On ch=1 n=f5 v=60
202069 On ch=1 n=a#5 v=72
202411 Off ch=1 n=f5 v=0
202411 Off ch=1 n=a#5 v=0
202411 On ch=1 n=f5 v=60
202411 On ch=1 n=a#5 v=72
202752 Off ch=1 n=f5 v=0
202752 Off ch=1 n=a#5 v=0
202752 On ch=1 n=f5 v=60
202752 On ch=1 n=a#5 v=72
203093 Off ch=1 n=f5 v=0
203093 Off ch=1 n=a#5 v=0
203093 On ch=1 n=f5 v=60
203093 On ch=1 n=a#5 v=72
203435 Off ch=1 n=f5 v=0
203435 Off ch=1 n=a#5 v=0
203435 On ch=1 n=f5 v=60
203435 On ch=1 n=a#5 v=72
203776 Off ch=1 n=f5 v=0
203776 Off ch=1 n=f6 v=0
203776 Off ch=1 n=f5 v=0
203776 Off ch=1 n=a#5 v=0
203776 On ch=1 n=a#5 v=68
203776 On ch=1 n=d#5 v=68
203776 On ch=1 n=d#6 v=84
204288 Off ch=1 n=d#5 v=0
204288 Off ch=1 n=d#6 v=0
204544 On ch=1 n=a#5 v=80
204800 Off ch=1 n=a#5 v=0
204800 Off ch=1 n=a#5 v=0
204800 On ch=1 n=a#4 v=84
205568 Off ch=1 n=a#4 v=0
205568 On ch=1 n=f5 v=80
205824 Off ch=1 n=f5 v=0
205824 On ch=1 n=f5 v=88
207872 Off ch=1 n=f5 v=0
207872 On ch=1 n=d#5 v=77
208384 Off ch=1 n=d#5 v=0
208640 On ch=1 n=a#4 v=79
208896 Off ch=1 n=a#4 v=0
208896 On ch=1 n=a#3 v=83
209664 Off ch=1 n=a#3 v=0
209664 On ch=1 n=f4 v=77
209920 Off ch=1 n=f4 v=0
209920 On ch=1 n=f4 v=60
209920 On ch=1 n=a#3 v=60
209920 On ch=1 n=a#4 v=75
210261 Off ch=1 n=f4 v=0
210261 On ch=1 n=d#4 v=61
210603 Off ch=1 n=d#4 v=0
210603 On ch=1 n=a#3 v=56
210603 On ch=1 n=f4 v=56
210603 On ch=1 n=a#4 v=71
210944 Off ch=1 n=a#3 v=0
210944 Off ch=1 n=a#4 v=0
210944 On ch=1 n=a#3 v=62
210944 On ch=1 n=a#4 v=78
210944 Off ch=1 n=a#3 v=0
210944 Off ch=1 n=f4 v=0
210944 Off ch=1 n=a#4 v=0
210944 On ch=1 n=f4 v=62
211285 Off ch=1 n=f4 v=0
211285 On ch=1 n=d#4 v=63
211627 Off ch=1 n=d#4 v=0
211627 On ch=1 n=d#4 v=58
211627 On ch=1 n=b4 v=58
211627 On ch=1 n=d#5 v=74
211968 Off ch=1 n=a#3 v=0
211968 Off ch=1 n=a#4 v=0
211968 On ch=1 n=d#4 v=65
211968 On ch=1 n=d#5 v=81
211968 Off ch=1 n=d#4 v=0
211968 Off ch=1 n=b4 v=0
211968 Off ch=1 n=d#5 v=0
211968 On ch=1 n=b4 v=65
212309 Off ch=1 n=b4 v=0
212309 On ch=1 n=a#4 v=65
212651 Off ch=1 n=a#4 v=0
212651 On ch=1 n=a#4 v=60
212651 On ch=1 n=f5 v=60
212651 On ch=1 n=a#5 v=77
212992 Off ch=1 n=d#4 v=0
212992 Off ch=1 n=d#5 v=0
212992 On ch=1 n=a#5 v=84
212992 Off ch=1 n=a#4 v=0
212992 Off ch=1 n=f5 v=0
212992 Off ch=1 n=a#5 v=0
212992 On ch=1 n=f5 v=67
213333 Off ch=1 n=f5 v=0
213333 On ch=1 n=d#5 v=68
213675 Off ch=1 n=d#5 v=0
213675 On ch=1 n=d#5 v=62
213675 On ch=1 n=b5 v=62
213675 On ch=1 n=d#6 v=80
214016 Off ch=1 n=a#5 v=0
214016 Off ch=1 n=d#5 v=0
214016 Off ch=1 n=b5 v=0
214016 Off ch=1 n=d#6 v=0
214016 On ch=1 n=b5 v=70
214016 On ch=1 n=d#5 v=70
214016 On ch=1 n=d#6 v=87
214357 Off ch=1 n=b5 v=0
214357 On ch=1 n=a#5 v=70
214699 Off ch=1 n=a#5 v=0
214699 On ch=1 n=a#5 v=65
214699 On ch=1 n=f6 v=65
214699 On ch=1 n=a#6 v=83
215040 Off ch=1 n=d#5 v=0
215040 Off ch=1 n=d#6 v=0
215040 On ch=1 n=a#5 v=72
215040 On ch=1 n=a#6 v=90
215040 Off ch=1 n=a#5 v=0
215040 Off ch=1 n=f6 v=0
215040 Off ch=1 n=a#6 v=0
215040 On ch=1 n=f6 v=72
215381 Off ch=1 n=f6 v=0
215381 On ch=1 n=d#6 v=73
215723 Off ch=1 n=d#6 v=0
215723 On ch=1 n=d#6 v=67
215723 On ch=1 n=b6 v=67
215723 On ch=1 n=d#7 v=86
216064 Off ch=1 n=a#5 v=0
216064 Off ch=1 n=a#6 v=0
216064 On ch=1 n=d#6 v=74
216064 On ch=1 n=d#7 v=92
216064 Off ch=1 n=d#6 v=0
216064 Off ch=1 n=b6 v=0
216064 Off ch=1 n=d#7 v=0
216064 On ch=1 n=b6 v=74
216405 Off ch=1 n=b6 v=0
216405 On ch=1 n=a#6 v=75
216747 Off ch=1 n=a#6 v=0
216747 On ch=1 n=a#6 v=70
216747 On ch=1 n=f7 v=70
216747 On ch=1 n=a#7 v=89
217088 Off ch=1 n=d#6 v=0
217088 Off ch=1 n=d#7 v=0
217088 On ch=1 n=a#6 v=76
217088 On ch=1 n=a#7 v=95
217088 Off ch=1 n=a#6 v=0
217088 Off ch=1 n=f7 v=0
217088 Off ch=1 n=a#7 v=0
217088 On ch=1 n=f7 v=76
217429 Off ch=1 n=f7 v=0
217429 On ch=1 n=d#7 v=77
217771 Off ch=1 n=d#7 v=0
217771 On ch=1 n=d#7 v=72
217771 On ch=1 n=a#7 v=72
217771 On ch=1 n=d#8 v=93
218112 Off ch=1 n=a#6 v=0
218112 Off ch=1 n=a#7 v=0
218112 Off ch=1 n=d#7 v=0
218112 Off ch=1 n=a#7 v=0
218112 Off ch=1 n=d#8 v=0
218112 On ch=1 n=d#7 v=82
218112 On ch=1 n=a#7 v=82
218112 On ch=1 n=d#8 v=98
219136 Off ch=1 n=d#7 v=0
219136 Off ch=1 n=a#7 v=0
219136 Off ch=1 n=d#8 v=0
220160 On ch=1 n=f#4 v=69
220160 On ch=1 n=d#5 v=69
220160 On ch=1 n=a#5 v=87
222208 Off ch=1 n=f#4 v=0
222208 Off ch=1 n=d#5 v=0
222208 Off ch=1 n=a#5 v=0
222208 On ch=1 n=f#4 v=72
222208 On ch=1 n=a#4 v=72
222208 On ch=1 n=d#5 v=72
222208 On ch=1 n=f#5 v=90
226304 Off ch=1 n=f#4 v=0
226304 Off ch=1 n=a#4 v=0
226304 Off ch=1 n=d#5 v=0
226304 Off ch=1 n=f#5 v=0
230404 Meta TrkEnd
TrkEnd
MTrk
0 Meta TrkName "Instrument  2"
0 PrCh ch=1 p=1
0 Par ch=1 c=64 v=0
768 On ch=1 n=d#3 v=54
768 On ch=1 n=d#4 v=75
1024 Par ch=1 c=64 v=0
1024 Off ch=1 n=d#3 v=0
1024 Off ch=1 n=d#4 v=0
1024 On ch=1 n=d#3 v=54
1024 On ch=1 n=d#4 v=74
1200 Par ch=1 c=64 v=127
1365 Off ch=1 n=d#3 v=0
1365 Off ch=1 n=d#4 v=0
1365 On ch=1 n=a#4 v=57
1707 Off ch=1 n=a#4 v=0
1707 On ch=1 n=a#3 v=56
2048 Off ch=1 n=a#3 v=0
2048 On ch=1 n=f#4 v=56
2389 Off ch=1 n=f#4 v=0
2389 On ch=1 n=d#5 v=55
2731 Off ch=1 n=d#5 v=0
2731 On ch=1 n=a#3 v=55
3072 Off ch=1 n=a#3 v=0
3072 On ch=1 n=d#3 v=51
3072 On ch=1 n=d#4 v=64
3413 Off ch=1 n=d#3 v=0
3413 Off ch=1 n=d#4 v=0
3413 On ch=1 n=a#4 v=54
3755 Off ch=1 n=a#4 v=0
3755 On ch=1 n=a#3 v=53
4096 Off ch=1 n=a#3 v=0
4096 On ch=1 n=f#4 v=53
4437 Off ch=1 n=f#4 v=0
4437 On ch=1 n=d#5 v=52
4779 Off ch=1 n=d#5 v=0
4779 On ch=1 n=a#3 v=52
5120 Par ch=1 c=64 v=127
5120 Off ch=1 n=a#3 v=0
5120 On ch=1 n=d#3 v=48
5120 On ch=1 n=f#4 v=57
5177 Par ch=1 c=64 v=0
5348 Par ch=1 c=64 v=127
5461 Off ch=1 n=d#3 v=0
5461 Off ch=1 n=f#4 v=0
5461 On ch=1 n=a#4 v=51
5803 Off ch=1 n=a#4 v=0
5803 On ch=1 n=a#3 v=51
6144 Off ch=1 n=a#3 v=0
6144 On ch=1 n=f#4 v=51
6485 Off ch=1 n=f#4 v=0
6485 On ch=1 n=a#5 v=51
6827 Off ch=1 n=a#5 v=0
6827 On ch=1 n=a#3 v=51
7168 Off ch=1 n=a#3 v=0
7168 On ch=1 n=d#3 v=48
7168 On ch=1 n=f#4 v=57
7509 Off ch=1 n=d#3 v=0
7509 Off ch=1 n=f#4 v=0
7509 On ch=1 n=a#4 v=51
7851 Off ch=1 n=a#4 v=0
7851 On ch=1 n=a#3 v=51
8192 Off ch=1 n=a#3 v=0
8192 On ch=1 n=f#4 v=51
8533 Off ch=1 n=f#4 v=0
8533 On ch=1 n=d#5 v=51
8875 Off ch=1 n=d#5 v=0
8875 On ch=1 n=d#4 v=51
9216 Par ch=1 c=64 v=127
9216 Par ch=1 c=64 v=0
9216 Off ch=1 n=d#4 v=0
9216 On ch=1 n=d#3 v=48
9216 On ch=1 n=f#4 v=57
9273 Par ch=1 c=64 v=0
9444 Par ch=1 c=64 v=127
9557 Off ch=1 n=d#3 v=0
9557 Off ch=1 n=f#4 v=0
9557 On ch=1 n=b4 v=51
9899 Off ch=1 n=b4 v=0
9899 On ch=1 n=b3 v=51
10240 Off ch=1 n=b3 v=0
10240 On ch=1 n=f#4 v=51
10581 Off ch=1 n=f#4 v=0
10581 On ch=1 n=f#5 v=51
10923 Off ch=1 n=f#5 v=0
10923 On ch=1 n=b3 v=51
11264 Off ch=1 n=b3 v=0
11264 On ch=1 n=d#3 v=48
11264 On ch=1 n=f#4 v=57
11605 Off ch=1 n=d#3 v=0
11605 Off ch=1 n=f#4 v=0
11605 On ch=1 n=b4 v=51
11947 Off ch=1 n=b4 v=0
11947 On ch=1 n=b3 v=51
12288 Off ch=1 n=b3 v=0
12288 On ch=1 n=f#4 v=51
12629 Off ch=1 n=f#4 v=0
12629 On ch=1 n=d#5 v=51
12971 Off ch=1 n=d#5 v=0
12971 On ch=1 n=b3 v=51
13084 On ch=1 n=d#3 v=49
13312 Par ch=1 c=64 v=127
13312 Par ch=1 c=64 v=0
13312 Off ch=1 n=b3 v=0
13312 On ch=1 n=g#4 v=61
13369 Par ch=1 c=64 v=0
13540 Par ch=1 c=64 v=127
13653 Off ch=1 n=d#3 v=0
13653 Off ch=1 n=g#4 v=0
13653 On ch=1 n=b4 v=56
13995 Off ch=1 n=b4 v=0
13995 On ch=1 n=b3 v=56
14336 Off ch=1 n=b3 v=0
14336 On ch=1 n=g#4 v=56
14677 Off ch=1 n=g#4 v=0
14677 On ch=1 n=b5 v=56
15019 Off ch=1 n=b5 v=0
15019 On ch=1 n=b3 v=56
15132 On ch=1 n=d#3 v=49
15360 Off ch=1 n=b3 v=0
15360 On ch=1 n=g#4 v=61
15701 Off ch=1 n=d#3 v=0
15701 Off ch=1 n=g#4 v=0
15701 On ch=1 n=b4 v=56
16043 Off ch=1 n=b4 v=0
16043 On ch=1 n=b3 v=56
16384 Off ch=1 n=b3 v=0
16384 On ch=1 n=g#4 v=56
16725 Off ch=1 n=g#4 v=0
16725 On ch=1 n=e5 v=56
17067 Off ch=1 n=e5 v=0
17067 On ch=1 n=b3 v=56
17180 On ch=1 n=d#3 v=49
17408 Par ch=1 c=64 v=127
17408 Par ch=1 c=64 v=0
17408 Par ch=1 c=64 v=0
17408 Off ch=1 n=b3 v=0
17408 On ch=1 n=g#4 v=61
17465 Par ch=1 c=64 v=0
17636 Par ch=1 c=64 v=127
17749 Off ch=1 n=d#3 v=0
17749 Off ch=1 n=g#4 v=0
17749 On ch=1 n=b4 v=56
18091 Off ch=1 n=b4 v=0
18091 On ch=1 n=f4 v=56
18432 Off ch=1 n=f4 v=0
18432 On ch=1 n=g#4 v=56
18773 Off ch=1 n=g#4 v=0
18773 On ch=1 n=g#5 v=56
19115 Off ch=1 n=g#5 v=0
19115 On ch=1 n=b3 v=56
19228 On ch=1 n=d#3 v=49
19456 Off ch=1 n=b3 v=0
19456 On ch=1 n=g#4 v=61
19797 Off ch=1 n=d#3 v=0
19797 Off ch=1 n=g#4 v=0
19797 On ch=1 n=b4 v=56
20139 Off ch=1 n=b4 v=0
20139 On ch=1 n=d#4 v=56
20480 Off ch=1 n=d#4 v=0
20480 On ch=1 n=g#4 v=56
20821 Off ch=1 n=g#4 v=0
20821 On ch=1 n=g#5 v=56
21163 Off ch=1 n=g#5 v=0
21163 On ch=1 n=b3 v=56
21276 On ch=1 n=d#3 v=49
21504 Par ch=1 c=64 v=127
21504 Par ch=1 c=64 v=0
21504 Par ch=1 c=64 v=0
21504 Off ch=1 n=b3 v=0
21504 On ch=1 n=g#4 v=61
21561 Par ch=1 c=64 v=0
21732 Par ch=1 c=64 v=127
21845 Off ch=1 n=d#3 v=0
21845 Off ch=1 n=g#4 v=0
21845 On ch=1 n=d#5 v=56
22187 Off ch=1 n=d#5 v=0
22187 On ch=1 n=d#4 v=56
22528 Off ch=1 n=d#4 v=0
22528 On ch=1 n=b4 v=56
22869 Off ch=1 n=b4 v=0
22869 On ch=1 n=d#6 v=56
23211 Off ch=1 n=d#6 v=0
23211 On ch=1 n=b3 v=56
23324 On ch=1 n=d#3 v=49
23552 Off ch=1 n=b3 v=0
23552 On ch=1 n=g#4 v=61
23893 Off ch=1 n=d#3 v=0
23893 Off ch=1 n=g#4 v=0
23893 On ch=1 n=d#5 v=56
24235 Off ch=1 n=d#5 v=0
24235 On ch=1 n=d#4 v=56
24576 Off ch=1 n=d#4 v=0
24576 On ch=1 n=b4 v=56
24917 Off ch=1 n=b4 v=0
24917 On ch=1 n=g#5 v=56
25259 Off ch=1 n=g#5 v=0
25259 On ch=1 n=b3 v=56
25600 Par ch=1 c=64 v=127
25600 Par ch=1 c=64 v=0
25600 Par ch=1 c=64 v=0
25600 Par ch=1 c=64 v=0
25600 Off ch=1 n=b3 v=0
25600 On ch=1 n=d#3 v=49
25600 On ch=1 n=d#4 v=61
25657 Par ch=1 c=64 v=0
25828 Par ch=1 c=64 v=127
25941 Off ch=1 n=d#3 v=0
25941 Off ch=1 n=d#4 v=0
25941 On ch=1 n=b4 v=56
26283 Off ch=1 n=b4 v=0
26283 On ch=1 n=d4 v=56
26624 Off ch=1 n=d4 v=0
26624 On ch=1 n=g#4 v=56
26965 Off ch=1 n=g#4 v=0
26965 On ch=1 n=f5 v=56
27307 Off ch=1 n=f5 v=0
27307 On ch=1 n=b3 v=56
27648 Off ch=1 n=b3 v=0
27648 On ch=1 n=d#3 v=49
27648 On ch=1 n=d#4 v=61
27989 Off ch=1 n=d#3 v=0
27989 Off ch=1 n=d#4 v=0
27989 On ch=1 n=b4 v=56
28331 Off ch=1 n=b4 v=0
28331 On ch=1 n=d4 v=56
28672 Off ch=1 n=d4 v=0
28672 On ch=1 n=g#4 v=56
29013 Off ch=1 n=g#4 v=0
29013 On ch=1 n=e5 v=56
29355 Off ch=1 n=e5 v=0
29355 On ch=1 n=d#3 v=47
29355 On ch=1 n=d#4 v=56
29696 Par ch=1 c=64 v=127
29696 Off ch=1 n=d#3 v=0
29696 Off ch=1 n=d#4 v=0
29696 On ch=1 n=g#2 v=54
29696 On ch=1 n=g#3 v=66
29833 Par ch=1 c=64 v=0
30008 Par ch=1 c=64 v=127
30037 On ch=1 n=b4 v=54
30379 Off ch=1 n=b4 v=0
30379 On ch=1 n=d#4 v=54
30720 Off ch=1 n=d#4 v=0
30720 On ch=1 n=g#4 v=54
31061 Off ch=1 n=g#4 v=0
31061 On ch=1 n=d#5 v=54
31403 Off ch=1 n=d#5 v=0
31403 On ch=1 n=g#2 v=54
31403 On ch=1 n=g#3 v=63
31744 Off ch=1 n=g#2 v=0
31744 Off ch=1 n=g#3 v=0
31744 Off ch=1 n=g#2 v=0
31744 Off ch=1 n=g#3 v=0
31744 On ch=1 n=f2 v=54
31744 On ch=1 n=f3 v=66
31783 Par ch=1 c=64 v=0
32017 Par ch=1 c=64 v=127
32085 On ch=1 n=b4 v=54
32427 Off ch=1 n=b4 v=0
32427 On ch=1 n=d#4 v=54
32768 Off ch=1 n=d#4 v=0
32768 On ch=1 n=g#4 v=54
33109 Off ch=1 n=g#4 v=0
33109 On ch=1 n=d#5 v=54
33451 Off ch=1 n=d#5 v=0
33451 On ch=1 n=f2 v=47
33451 On ch=1 n=f3 v=59
33792 Par ch=1 c=64 v=127
33792 Off ch=1 n=f2 v=0
33792 Off ch=1 n=f3 v=0
33792 Off ch=1 n=f2 v=0
33792 Off ch=1 n=f3 v=0
33792 On ch=1 n=a#2 v=53
33792 On ch=1 n=a#3 v=65
33929 Par ch=1 c=64 v=0
34124 Par ch=1 c=64 v=127
34133 On ch=1 n=a#4 v=51
34475 Off ch=1 n=a#4 v=0
34475 On ch=1 n=a#3 v=52
34816 Off ch=1 n=a#3 v=0
34816 On ch=1 n=g#4 v=53
34845 Par ch=1 c=64 v=0
35118 Par ch=1 c=64 v=127
35157 Off ch=1 n=g#4 v=0
35157 On ch=1 n=d5 v=54
35499 Off ch=1 n=d5 v=0
35499 On ch=1 n=f3 v=53
35499 On ch=1 n=f4 v=62
35840 Off ch=1 n=a#2 v=0
35840 Off ch=1 n=a#3 v=0
35840 Off ch=1 n=f3 v=0
35840 Off ch=1 n=f4 v=0
35840 On ch=1 n=a#2 v=53
35840 On ch=1 n=a#3 v=65
36181 On ch=1 n=a#4 v=57
36523 Off ch=1 n=a#4 v=0
36523 On ch=1 n=a#3 v=58
36864 Off ch=1 n=a#3 v=0
36864 On ch=1 n=g#4 v=59
36864 Off ch=1 n=a#2 v=0
36864 Off ch=1 n=a#3 v=0
37205 Off ch=1 n=g#4 v=0
37205 On ch=1 n=d5 v=60
37547 Off ch=1 n=d5 v=0
37547 On ch=1 n=a#2 v=60
37547 On ch=1 n=a#3 v=72
37888 Par ch=1 c=64 v=127
37888 Par ch=1 c=64 v=0
37888 Off ch=1 n=a#2 v=0
37888 Off ch=1 n=a#3 v=0
37888 On ch=1 n=d#2 v=64
37888 On ch=1 n=d#3 v=76
37945 Par ch=1 c=64 v=0
38116 Par ch=1 c=64 v=127
38229 On ch=1 n=a#4 v=60
38571 Off ch=1 n=a#4 v=0
38571 On ch=1 n=a#3 v=60
38912 Off ch=1 n=a#3 v=0
38912 On ch=1 n=f#4 v=60
39253 Off ch=1 n=f#4 v=0
39253 On ch=1 n=a#5 v=60
39595 Off ch=1 n=a#5 v=0
39595 On ch=1 n=a#3 v=60
39936 Off ch=1 n=a#3 v=0
39936 On ch=1 n=d#3 v=56
39936 On ch=1 n=f#4 v=65
40277 Off ch=1 n=d#3 v=0
40277 Off ch=1 n=f#4 v=0
40277 On ch=1 n=a#4 v=60
40619 Off ch=1 n=a#4 v=0
40619 On ch=1 n=a#3 v=60
40960 Off ch=1 n=a#3 v=0
40960 On ch=1 n=f#4 v=60
41301 Off ch=1 n=f#4 v=0
41301 On ch=1 n=d#5 v=60
41643 Off ch=1 n=d#5 v=0
41643 On ch=1 n=d#3 v=60
41643 On ch=1 n=d#4 v=69
41984 Par ch=1 c=64 v=127
41984 Par ch=1 c=64 v=0
41984 Par ch=1 c=64 v=0
41984 Off ch=1 n=d#2 v=0
41984 Off ch=1 n=d#3 v=0
41984 Off ch=1 n=d#3 v=0
41984 Off ch=1 n=d#4 v=0
41984 On ch=1 n=d#2 v=64
41984 On ch=1 n=d#3 v=76
42041 Par ch=1 c=64 v=0
42212 Par ch=1 c=64 v=127
42325 On ch=1 n=b4 v=60
42667 Off ch=1 n=b4 v=0
42667 On ch=1 n=b3 v=60
43008 Off ch=1 n=b3 v=0
43008 On ch=1 n=f#4 v=60
43349 Off ch=1 n=f#4 v=0
43349 On ch=1 n=b4 v=56
43349 On ch=1 n=f#5 v=65
43691 Off ch=1 n=b4 v=0
43691 Off ch=1 n=f#5 v=0
43691 On ch=1 n=b3 v=60
44032 Off ch=1 n=b3 v=0
44032 On ch=1 n=d#3 v=56
44032 On ch=1 n=f#4 v=65
44373 Off ch=1 n=d#3 v=0
44373 Off ch=1 n=f#4 v=0
44373 On ch=1 n=b4 v=60
44715 Off ch=1 n=b4 v=0
44715 On ch=1 n=b3 v=60
45056 Off ch=1 n=b3 v=0
45056 On ch=1 n=f#4 v=60
45397 Off ch=1 n=f#4 v=0
45397 On ch=1 n=d#5 v=60
45739 Off ch=1 n=d#5 v=0
45739 On ch=1 n=b3 v=60
45739 On ch=1 n=b4 v=69
46080 Par ch=1 c=64 v=127
46080 Par ch=1 c=64 v=0
46080 Par ch=1 c=64 v=0
46080 Off ch=1 n=d#2 v=0
46080 Off ch=1 n=d#3 v=0
46080 Off ch=1 n=b3 v=0
46080 Off ch=1 n=b4 v=0
46080 On ch=1 n=d#2 v=63
46080 On ch=1 n=d#3 v=75
46137 Par ch=1 c=64 v=0
46308 Par ch=1 c=64 v=127
46421 On ch=1 n=b4 v=60
46763 Off ch=1 n=b4 v=0
46763 On ch=1 n=b3 v=60
47104 Off ch=1 n=b3 v=0
47104 On ch=1 n=g#4 v=60
47445 Off ch=1 n=g#4 v=0
47445 On ch=1 n=b5 v=60
47787 Off ch=1 n=b5 v=0
47787 On ch=1 n=b3 v=60
48128 Off ch=1 n=b3 v=0
48128 On ch=1 n=d#3 v=56
48128 On ch=1 n=g#4 v=68
48469 Off ch=1 n=d#3 v=0
48469 Off ch=1 n=g#4 v=0
48469 On ch=1 n=b4 v=60
48811 Off ch=1 n=b4 v=0
48811 On ch=1 n=b3 v=60
49152 Off ch=1 n=b3 v=0
49152 On ch=1 n=g#4 v=60
49493 Off ch=1 n=g#4 v=0
49493 On ch=1 n=e5 v=60
49835 Off ch=1 n=e5 v=0
49835 On ch=1 n=b3 v=60
49835 On ch=1 n=b4 v=72
50176 Par ch=1 c=64 v=127
50176 Par ch=1 c=64 v=0
50176 Par ch=1 c=64 v=0
50176 Par ch=1 c=64 v=0
50176 Off ch=1 n=d#2 v=0
50176 Off ch=1 n=d#3 v=0
50176 Off ch=1 n=b3 v=0
50176 Off ch=1 n=b4 v=0
50176 On ch=1 n=d#2 v=65
50176 On ch=1 n=d#3 v=77
50233 Par ch=1 c=64 v=0
50404 Par ch=1 c=64 v=127
50517 On ch=1 n=b4 v=60
50859 Off ch=1 n=b4 v=0
50859 On ch=1 n=f4 v=60
51200 Off ch=1 n=f4 v=0
51200 On ch=1 n=g#4 v=60
51541 Off ch=1 n=g#4 v=0
51541 On ch=1 n=d5 v=51
51541 On ch=1 n=g#5 v=60
51883 Off ch=1 n=d5 v=0
51883 Off ch=1 n=g#5 v=0
51883 On ch=1 n=b3 v=60
52224 Off ch=1 n=d#2 v=0
52224 Off ch=1 n=d#3 v=0
52224 Off ch=1 n=b3 v=0
52224 On ch=1 n=d#3 v=51
52224 On ch=1 n=g#4 v=60
52565 Off ch=1 n=d#3 v=0
52565 Off ch=1 n=g#4 v=0
52565 On ch=1 n=b4 v=60
52907 Off ch=1 n=b4 v=0
52907 On ch=1 n=b3 v=60
53248 Off ch=1 n=b3 v=0
53248 On ch=1 n=g#4 v=60
53589 Off ch=1 n=g#4 v=0
53589 On ch=1 n=b4 v=51
53589 On ch=1 n=g#5 v=60
53931 Off ch=1 n=b4 v=0
53931 Off ch=1 n=g#5 v=0
53931 On ch=1 n=b3 v=51
53931 On ch=1 n=b4 v=60
54272 Par ch=1 c=64 v=127
54272 Par ch=1 c=64 v=0
54272 Par ch=1 c=64 v=0
54272 Par ch=1 c=64 v=0
54272 Off ch=1 n=b3 v=0
54272 Off ch=1 n=b4 v=0
54272 On ch=1 n=d#2 v=61
54272 On ch=1 n=d#3 v=73
54329 Par ch=1 c=64 v=0
54500 Par ch=1 c=64 v=127
54613 On ch=1 n=d#5 v=60
54955 Off ch=1 n=d#5 v=0
54955 On ch=1 n=d#4 v=60
55296 Off ch=1 n=d#4 v=0
55296 On ch=1 n=b4 v=60
55637 Off ch=1 n=b4 v=0
55637 On ch=1 n=d#6 v=60
55979 Off ch=1 n=d#6 v=0
55979 On ch=1 n=b3 v=60
56320 Off ch=1 n=d#2 v=0
56320 Off ch=1 n=d#3 v=0
56320 Off ch=1 n=b3 v=0
56320 On ch=1 n=d#3 v=51
56320 On ch=1 n=g#4 v=60
56661 Off ch=1 n=d#3 v=0
56661 Off ch=1 n=g#4 v=0
56661 On ch=1 n=d#5 v=60
57003 Off ch=1 n=d#5 v=0
57003 On ch=1 n=d#4 v=60
57344 Off ch=1 n=d#4 v=0
57344 On ch=1 n=b4 v=60
57685 Off ch=1 n=b4 v=0
57685 On ch=1 n=g#5 v=60
58027 Off ch=1 n=g#5 v=0
58027 On ch=1 n=g#3 v=51
58027 On ch=1 n=g#4 v=60
58368 Par ch=1 c=64 v=127
58368 Par ch=1 c=64 v=0
58368 Par ch=1 c=64 v=0
58368 Par ch=1 c=64 v=0
58368 Par ch=1 c=64 v=0
58368 Off ch=1 n=g#3 v=0
58368 Off ch=1 n=g#4 v=0
58368 On ch=1 n=d#3 v=65
58368 On ch=1 n=d#4 v=77
58425 Par ch=1 c=64 v=0
58596 Par ch=1 c=64 v=127
58709 On ch=1 n=b4 v=60
59051 Off ch=1 n=b4 v=0
59051 On ch=1 n=d4 v=60
59392 Off ch=1 n=d4 v=0
59392 On ch=1 n=g#4 v=60
59733 Off ch=1 n=g#4 v=0
59733 On ch=1 n=b4 v=51
59733 On ch=1 n=g#5 v=60
60075 Off ch=1 n=b4 v=0
60075 Off ch=1 n=g#5 v=0
60075 On ch=1 n=g#3 v=51
60075 On ch=1 n=g#4 v=60
60416 Off ch=1 n=d#3 v=0
60416 Off ch=1 n=d#4 v=0
60416 Off ch=1 n=g#3 v=0
60416 Off ch=1 n=g#4 v=0
60416 On ch=1 n=d#3 v=58
60416 On ch=1 n=d#4 v=70
60757 On ch=1 n=b4 v=60
61099 Off ch=1 n=b4 v=0
61099 On ch=1 n=d4 v=60
61440 Off ch=1 n=d4 v=0
61440 On ch=1 n=g#4 v=60
61781 Off ch=1 n=g#4 v=0
61781 On ch=1 n=b4 v=51
61781 On ch=1 n=g#5 v=60
62123 Off ch=1 n=b4 v=0
62123 Off ch=1 n=g#5 v=0
62123 On ch=1 n=d#3 v=51
62123 On ch=1 n=d#4 v=60
62464 Par ch=1 c=64 v=127
62464 Par ch=1 c=64 v=0
62464 Off ch=1 n=d#3 v=0
62464 Off ch=1 n=d#4 v=0
62464 Off ch=1 n=d#3 v=0
62464 Off ch=1 n=d#4 v=0
62464 On ch=1 n=g#2 v=58
62464 On ch=1 n=g#3 v=69
62601 Par ch=1 c=64 v=0
62776 Par ch=1 c=64 v=127
62805 On ch=1 n=b4 v=56
63147 Off ch=1 n=b4 v=0
63147 On ch=1 n=d#4 v=55
63488 Off ch=1 n=d#4 v=0
63488 On ch=1 n=g#4 v=53
63829 Off ch=1 n=g#4 v=0
63829 On ch=1 n=d#5 v=52
64171 Off ch=1 n=d#5 v=0
64171 On ch=1 n=g#2 v=50
64171 On ch=1 n=g#3 v=58
64512 Off ch=1 n=g#2 v=0
64512 Off ch=1 n=g#3 v=0
64512 Off ch=1 n=g#2 v=0
64512 Off ch=1 n=g#3 v=0
64512 On ch=1 n=c#3 v=49
64512 On ch=1 n=c#4 v=59
64551 Par ch=1 c=64 v=0
64785 Par ch=1 c=64 v=127
64853 On ch=1 n=c#5 v=47
65195 Off ch=1 n=c#5 v=0
65195 On ch=1 n=c#4 v=46
65536 Off ch=1 n=c#4 v=0
65536 On ch=1 n=b4 v=45
65877 Off ch=1 n=b4 v=0
65877 On ch=1 n=f5 v=43
66219 Off ch=1 n=f5 v=0
66219 On ch=1 n=c#3 v=42
66219 On ch=1 n=c#4 v=50
66560 Par ch=1 c=64 v=127
66560 Par ch=1 c=64 v=0
66560 Off ch=1 n=c#3 v=0
66560 Off ch=1 n=c#4 v=0
66560 Off ch=1 n=c#3 v=0
66560 Off ch=1 n=c#4 v=0
66560 On ch=1 n=f#2 v=42
66560 On ch=1 n=f#3 v=54
66697 Par ch=1 c=64 v=0
66892 Par ch=1 c=64 v=127
66901 On ch=1 n=c#5 v=42
67243 Off ch=1 n=c#5 v=0
67243 On ch=1 n=c#4 v=42
67584 Off ch=1 n=c#4 v=0
67584 On ch=1 n=a#4 v=42
67613 Par ch=1 c=64 v=0
67886 Par ch=1 c=64 v=127
67925 Off ch=1 n=a#4 v=0
67925 On ch=1 n=f#5 v=42
68267 Off ch=1 n=f#5 v=0
68267 On ch=1 n=c#4 v=42
68608 Off ch=1 n=f#2 v=0
68608 Off ch=1 n=f#3 v=0
68608 Off ch=1 n=c#4 v=0
68608 On ch=1 n=f#3 v=33
68608 On ch=1 n=f#4 v=42
68949 Off ch=1 n=f#3 v=0
68949 Off ch=1 n=f#4 v=0
68949 On ch=1 n=a4 v=42
69291 Off ch=1 n=a4 v=0
69291 On ch=1 n=c#4 v=42
69632 Off ch=1 n=c#4 v=0
69632 On ch=1 n=f#4 v=42
69973 Off ch=1 n=f#4 v=0
69973 On ch=1 n=c#5 v=42
70315 Off ch=1 n=c#5 v=0
70315 On ch=1 n=c#4 v=44
70656 Par ch=1 c=64 v=127
70656 Off ch=1 n=c#4 v=0
70656 On ch=1 n=f#3 v=51
70656 On ch=1 n=f#4 v=44
70789 Par ch=1 c=64 v=0
70921 Par ch=1 c=64 v=127
70997 Off ch=1 n=f#3 v=0
70997 Off ch=1 n=f#4 v=0
70997 On ch=1 n=c#5 v=44
71339 Off ch=1 n=c#5 v=0
71339 On ch=1 n=c#4 v=44
71680 Off ch=1 n=c#4 v=0
71680 On ch=1 n=a4 v=44
71699 Par ch=1 c=64 v=0
71889 Par ch=1 c=64 v=127
72021 Off ch=1 n=a4 v=0
72021 On ch=1 n=e5 v=44
72363 Off ch=1 n=e5 v=0
72363 On ch=1 n=c#4 v=44
72704 Off ch=1 n=c#4 v=0
72704 On ch=1 n=f#3 v=51
72704 On ch=1 n=f#4 v=44
73045 Off ch=1 n=f#3 v=0
73045 Off ch=1 n=f#4 v=0
73045 On ch=1 n=c#5 v=44
73387 Off ch=1 n=c#5 v=0
73387 On ch=1 n=c#4 v=44
73728 Off ch=1 n=c#4 v=0
73728 On ch=1 n=f#4 v=44
74069 Off ch=1 n=f#4 v=0
74069 On ch=1 n=a4 v=35
74069 On ch=1 n=e5 v=44
74411 Off ch=1 n=a4 v=0
74411 Off ch=1 n=e5 v=0
74411 On ch=1 n=f#3 v=35
74411 On ch=1 n=f#4 v=44
74752 Par ch=1 c=64 v=127
74752 Off ch=1 n=f#3 v=0
74752 Off ch=1 n=f#4 v=0
74752 On ch=1 n=c#3 v=51
74752 On ch=1 n=c#4 v=44
74885 Par ch=1 c=64 v=0
75074 Par ch=1 c=64 v=127
75093 On ch=1 n=a4 v=44
75435 Off ch=1 n=c#3 v=0
75435 Off ch=1 n=c#4 v=0
75435 Off ch=1 n=a4 v=0
75435 On ch=1 n=c#4 v=44
75776 Off ch=1 n=c#4 v=0
75776 On ch=1 n=f#4 v=44
75795 Par ch=1 c=64 v=0
76023 Par ch=1 c=64 v=127
76117 Off ch=1 n=f#4 v=0
76117 On ch=1 n=a4 v=35
76117 On ch=1 n=e5 v=44
76459 Off ch=1 n=a4 v=0
76459 Off ch=1 n=e5 v=0
76459 On ch=1 n=c#4 v=44
76800 Par ch=1 c=64 v=0
76800 Off ch=1 n=c#4 v=0
76800 On ch=1 n=c#3 v=53
77009 Par ch=1 c=64 v=127
77141 On ch=1 n=a4 v=44
77483 Off ch=1 n=a4 v=0
77483 On ch=1 n=c#4 v=44
77824 Par ch=1 c=64 v=0
77824 Off ch=1 n=c#4 v=0
77824 On ch=1 n=f#4 v=44
77995 Par ch=1 c=64 v=127
78165 Off ch=1 n=f#4 v=0
78165 On ch=1 n=a4 v=35
78165 On ch=1 n=e5 v=44
78507 Off ch=1 n=a4 v=0
78507 Off ch=1 n=e5 v=0
78507 On ch=1 n=f#3 v=35
78507 On ch=1 n=f#4 v=44
78848 Par ch=1 c=64 v=127
78848 Par ch=1 c=64 v=0
78848 Off ch=1 n=f#3 v=0
78848 Off ch=1 n=f#4 v=0
78848 On ch=1 n=c#3 v=51
78848 On ch=1 n=c#4 v=44
78981 Par ch=1 c=64 v=0
79170 Par ch=1 c=64 v=127
79189 Off ch=1 n=c#3 v=0
79189 On ch=1 n=a4 v=44
79531 Off ch=1 n=c#4 v=0
79531 Off ch=1 n=a4 v=0
79531 On ch=1 n=c#4 v=45
79872 Off ch=1 n=c#4 v=0
79872 On ch=1 n=f#4 v=46
79891 Par ch=1 c=64 v=0
80119 Par ch=1 c=64 v=127
80213 Off ch=1 n=f#4 v=0
80213 On ch=1 n=a4 v=37
80213 On ch=1 n=e5 v=46
80555 Off ch=1 n=a4 v=0
80555 Off ch=1 n=e5 v=0
80555 On ch=1 n=f#3 v=37
80555 On ch=1 n=f#4 v=47
80725 Off ch=1 n=c#3 v=0
80896 Par ch=1 c=64 v=0
80896 Off ch=1 n=f#3 v=0
80896 Off ch=1 n=f#4 v=0
80896 On ch=1 n=c3 v=54
80896 On ch=1 n=c4 v=48
81105 Par ch=1 c=64 v=127
81237 On ch=1 n=a4 v=48
81579 Off ch=1 n=a4 v=0
81579 On ch=1 n=c4 v=49
81920 Par ch=1 c=64 v=0
81920 Off ch=1 n=c4 v=0
81920 On ch=1 n=f#4 v=49
82091 Par ch=1 c=64 v=127
82261 Off ch=1 n=f#4 v=0
82261 On ch=1 n=a4 v=40
82261 On ch=1 n=e5 v=50
82603 Off ch=1 n=a4 v=0
82603 Off ch=1 n=e5 v=0
82603 On ch=1 n=f#3 v=40
82603 On ch=1 n=f#4 v=51
82773 Off ch=1 n=c3 v=0
82773 Off ch=1 n=c4 v=0
82944 Par ch=1 c=64 v=127
82944 Par ch=1 c=64 v=0
82944 Par ch=1 c=64 v=0
82944 Off ch=1 n=f#3 v=0
82944 Off ch=1 n=f#4 v=0
82944 On ch=1 n=b2 v=57
82944 On ch=1 n=b3 v=51
83077 Par ch=1 c=64 v=0
83266 Par ch=1 c=64 v=127
83285 Off ch=1 n=b3 v=0
83285 On ch=1 n=a4 v=49
83627 Off ch=1 n=a4 v=0
83627 On ch=1 n=b3 v=48
83968 Off ch=1 n=b3 v=0
83968 On ch=1 n=f#4 v=47
83987 Par ch=1 c=64 v=0
84215 Par ch=1 c=64 v=127
84309 Off ch=1 n=f#4 v=0
84309 On ch=1 n=a4 v=36
84309 On ch=1 n=d#5 v=46
84651 Off ch=1 n=a4 v=0
84651 Off ch=1 n=d#5 v=0
84651 On ch=1 n=b3 v=44
84992 Par ch=1 c=64 v=0
84992 Off ch=1 n=b2 v=0
84992 Off ch=1 n=b3 v=0
84992 On ch=1 n=b2 v=44
85201 Par ch=1 c=64 v=127
85333 Off ch=1 n=b2 v=0
85333 On ch=1 n=a4 v=42
85675 Off ch=1 n=a4 v=0
85675 On ch=1 n=b3 v=42
86016 Par ch=1 c=64 v=0
86016 Off ch=1 n=b3 v=0
86016 On ch=1 n=f#4 v=40
86187 Par ch=1 c=64 v=127
86357 Off ch=1 n=f#4 v=0
86357 On ch=1 n=a4 v=30
86357 On ch=1 n=c5 v=39
86699 Off ch=1 n=a4 v=0
86699 Off ch=1 n=c5 v=0
86699 On ch=1 n=b3 v=38
87040 Par ch=1 c=64 v=127
87040 Par ch=1 c=64 v=0
87040 Off ch=1 n=b3 v=0
87040 On ch=1 n=e3 v=51
87040 On ch=1 n=e4 v=44
87173 Par ch=1 c=64 v=0
87305 Par ch=1 c=64 v=127
87381 Off ch=1 n=e3 v=0
87381 Off ch=1 n=e4 v=0
87381 On ch=1 n=g4 v=44
87723 Off ch=1 n=g4 v=0
87723 On ch=1 n=b3 v=44
88064 Off ch=1 n=b3 v=0
88064 On ch=1 n=e4 v=44
88083 Par ch=1 c=64 v=0
88273 Par ch=1 c=64 v=127
88405 Off ch=1 n=e4 v=0
88405 On ch=1 n=g4 v=44
88405 On ch=1 n=d5 v=44
88747 Off ch=1 n=g4 v=0
88747 Off ch=1 n=d5 v=0
88747 On ch=1 n=b3 v=44
89088 Off ch=1 n=b3 v=0
89088 On ch=1 n=e3 v=51
89088 On ch=1 n=e4 v=44
89429 Off ch=1 n=e3 v=0
89429 Off ch=1 n=e4 v=0
89429 On ch=1 n=g4 v=44
89771 Off ch=1 n=g4 v=0
89771 On ch=1 n=b3 v=44
90112 Off ch=1 n=b3 v=0
90112 On ch=1 n=e4 v=44
90453 Off ch=1 n=e4 v=0
90453 On ch=1 n=g4 v=35
90453 On ch=1 n=d5 v=44
90795 Off ch=1 n=g4 v=0
90795 Off ch=1 n=d5 v=0
90795 On ch=1 n=e3 v=35
90795 On ch=1 n=e4 v=44
91136 Par ch=1 c=64 v=127
91136 Par ch=1 c=64 v=0
91136 Off ch=1 n=e3 v=0
91136 Off ch=1 n=e4 v=0
91136 On ch=1 n=b2 v=51
91136 On ch=1 n=b3 v=44
91269 Par ch=1 c=64 v=0
91458 Par ch=1 c=64 v=127
91477 Off ch=1 n=b2 v=0
91477 Off ch=1 n=b3 v=0
91477 On ch=1 n=g4 v=44
91819 Off ch=1 n=g4 v=0
91819 On ch=1 n=b3 v=44
92160 Off ch=1 n=b3 v=0
92160 On ch=1 n=e4 v=44
92179 Par ch=1 c=64 v=0
92407 Par ch=1 c=64 v=127
92501 Off ch=1 n=e4 v=0
92501 On ch=1 n=g4 v=35
92501 On ch=1 n=d5 v=44
92843 Off ch=1 n=g4 v=0
92843 Off ch=1 n=d5 v=0
92843 On ch=1 n=b3 v=44
93184 Par ch=1 c=64 v=0
93184 Off ch=1 n=b3 v=0
93184 On ch=1 n=b2 v=60
93393 Par ch=1 c=64 v=127
93525 Off ch=1 n=b2 v=0
93525 On ch=1 n=g4 v=44
93867 Off ch=1 n=g4 v=0
93867 On ch=1 n=b3 v=44
94208 Par ch=1 c=64 v=0
94208 Off ch=1 n=b3 v=0
94208 On ch=1 n=e4 v=44
94379 Par ch=1 c=64 v=127
94549 Off ch=1 n=e4 v=0
94549 On ch=1 n=g4 v=35
94549 On ch=1 n=d5 v=44
94891 Off ch=1 n=g4 v=0
94891 Off ch=1 n=d5 v=0
94891 On ch=1 n=e3 v=35
94891 On ch=1 n=e4 v=44
95232 Par ch=1 c=64 v=127
95232 Par ch=1 c=64 v=0
95232 Par ch=1 c=64 v=0
95232 Off ch=1 n=e3 v=0
95232 Off ch=1 n=e4 v=0
95232 On ch=1 n=b2 v=51
95232 On ch=1 n=b3 v=44
95365 Par ch=1 c=64 v=0
95554 Par ch=1 c=64 v=127
95573 Off ch=1 n=b2 v=0
95573 Off ch=1 n=b3 v=0
95573 On ch=1 n=g4 v=44
95915 Off ch=1 n=g4 v=0
95915 On ch=1 n=b3 v=45
96256 Off ch=1 n=b3 v=0
96256 On ch=1 n=e4 v=46
96275 Par ch=1 c=64 v=0
96503 Par ch=1 c=64 v=127
96597 Off ch=1 n=e4 v=0
96597 On ch=1 n=g4 v=37
96597 On ch=1 n=d5 v=46
96939 Off ch=1 n=g4 v=0
96939 Off ch=1 n=d5 v=0
96939 On ch=1 n=e3 v=37
96939 On ch=1 n=e4 v=47
97280 Par ch=1 c=64 v=0
97280 Off ch=1 n=e3 v=0
97280 Off ch=1 n=e4 v=0
97280 On ch=1 n=a#2 v=54
97280 On ch=1 n=a#3 v=48
97489 Par ch=1 c=64 v=127
97621 Off ch=1 n=a#2 v=0
97621 Off ch=1 n=a#3 v=0
97621 On ch=1 n=g4 v=48
97963 Off ch=1 n=g4 v=0
97963 On ch=1 n=a#3 v=49
98304 Par ch=1 c=64 v=0
98304 Off ch=1 n=a#3 v=0
98304 On ch=1 n=e4 v=49
98475 Par ch=1 c=64 v=127
98645 Off ch=1 n=e4 v=0
98645 On ch=1 n=g4 v=40
98645 On ch=1 n=d5 v=50
98987 Off ch=1 n=g4 v=0
98987 Off ch=1 n=d5 v=0
98987 On ch=1 n=e3 v=40
98987 On ch=1 n=e4 v=51
99328 Par ch=1 c=64 v=127
99328 Par ch=1 c=64 v=0
99328 Par ch=1 c=64 v=0
99328 Par ch=1 c=64 v=0
99328 Off ch=1 n=e3 v=0
99328 Off ch=1 n=e4 v=0
99328 On ch=1 n=a2 v=57
99328 On ch=1 n=a3 v=51
99461 Par ch=1 c=64 v=0
99650 Par ch=1 c=64 v=127
99669 Off ch=1 n=a2 v=0
99669 Off ch=1 n=a3 v=0
99669 On ch=1 n=g4 v=49
100011 Off ch=1 n=g4 v=0
100011 On ch=1 n=a3 v=48
100352 Off ch=1 n=a3 v=0
100352 On ch=1 n=e4 v=47
100371 Par ch=1 c=64 v=0
100599 Par ch=1 c=64 v=127
100693 Off ch=1 n=e4 v=0
100693 On ch=1 n=g4 v=36
100693 On ch=1 n=c#5 v=46
101035 Off ch=1 n=g4 v=0
101035 Off ch=1 n=c#5 v=0
101035 On ch=1 n=e3 v=44
101035 On ch=1 n=e4 v=44
101376 Par ch=1 c=64 v=0
101376 Off ch=1 n=e3 v=0
101376 Off ch=1 n=e4 v=0
101376 On ch=1 n=a2 v=60
101376 On ch=1 n=a3 v=44
101585 Par ch=1 c=64 v=127
101717 Off ch=1 n=a2 v=0
101717 Off ch=1 n=a3 v=0
101717 On ch=1 n=g4 v=42
102059 Off ch=1 n=g4 v=0
102059 On ch=1 n=a3 v=42
102400 Par ch=1 c=64 v=0
102400 Off ch=1 n=a3 v=0
102400 On ch=1 n=e4 v=40
102571 Par ch=1 c=64 v=127
102741 Off ch=1 n=e4 v=0
102741 On ch=1 n=g4 v=30
102741 On ch=1 n=a#4 v=39
103083 Off ch=1 n=g4 v=0
103083 Off ch=1 n=a#4 v=0
103083 On ch=1 n=a3 v=38
103424 Par ch=1 c=64 v=0
103424 Off ch=1 n=a3 v=0
103424 On ch=1 n=d3 v=55
103424 On ch=1 n=d4 v=48
103462 Par ch=1 c=64 v=127
103652 Par ch=1 c=64 v=0
103765 Off ch=1 n=d3 v=0
103765 Off ch=1 n=d4 v=0
103765 On ch=1 n=a4 v=40
103822 Par ch=1 c=64 v=127
104107 Off ch=1 n=a4 v=0
104107 On ch=1 n=a3 v=41
104448 Off ch=1 n=a3 v=0
104448 On ch=1 n=f#4 v=42
104789 Off ch=1 n=f#4 v=0
104789 On ch=1 n=d5 v=43
105131 Off ch=1 n=d5 v=0
105131 On ch=1 n=a2 v=56
105131 On ch=1 n=a3 v=49
105472 Par ch=1 c=64 v=0
105472 Off ch=1 n=a2 v=0
105472 Off ch=1 n=a3 v=0
105472 On ch=1 n=d2 v=50
105472 On ch=1 n=d3 v=59
105624 Par ch=1 c=64 v=127
105813 Off ch=1 n=d2 v=0
105813 Off ch=1 n=d3 v=0
105813 On ch=1 n=a4 v=45
106155 Off ch=1 n=a4 v=0
106155 On ch=1 n=a3 v=46
106496 Off ch=1 n=a3 v=0
106496 On ch=1 n=f#4 v=47
106837 Off ch=1 n=f#4 v=0
106837 On ch=1 n=c#5 v=48
107179 Off ch=1 n=c#5 v=0
107179 On ch=1 n=d2 v=56
107179 On ch=1 n=d3 v=49
107520 Par ch=1 c=64 v=127
107520 Off ch=1 n=d2 v=0
107520 Off ch=1 n=d3 v=0
107520 On ch=1 n=g#2 v=50
107520 On ch=1 n=g#3 v=62
107676 Par ch=1 c=64 v=0
107823 Par ch=1 c=64 v=0
107861 On ch=1 n=f#4 v=59
108013 Par ch=1 c=64 v=127
108203 Off ch=1 n=g#2 v=0
108203 Off ch=1 n=g#3 v=0
108203 Off ch=1 n=f#4 v=0
108203 On ch=1 n=g#3 v=58
108534 Par ch=1 c=64 v=0
108544 Off ch=1 n=g#3 v=0
108544 On ch=1 n=d#4 v=57
108749 Par ch=1 c=64 v=127
108885 Off ch=1 n=d#4 v=0
108885 On ch=1 n=c5 v=56
109227 Off ch=1 n=c5 v=0
109227 On ch=1 n=d#3 v=46
109227 On ch=1 n=d#4 v=55
109568 Off ch=1 n=d#3 v=0
109568 Off ch=1 n=d#4 v=0
109568 On ch=1 n=g#2 v=50
109568 On ch=1 n=g#3 v=58
109909 Off ch=1 n=g#2 v=0
109909 Off ch=1 n=g#3 v=0
109909 On ch=1 n=f#4 v=52
110251 Off ch=1 n=f#4 v=0
110251 On ch=1 n=g#3 v=51
110592 Off ch=1 n=g#3 v=0
110592 On ch=1 n=d#4 v=50
110933 Off ch=1 n=d#4 v=0
110933 On ch=1 n=a4 v=49
111275 Off ch=1 n=a4 v=0
111275 On ch=1 n=g#3 v=48
111616 Par ch=1 c=64 v=0
111616 Par ch=1 c=64 v=0
111616 Off ch=1 n=g#3 v=0
111616 On ch=1 n=c#3 v=65
111616 On ch=1 n=c#4 v=57
111654 Par ch=1 c=64 v=127
111844 Par ch=1 c=64 v=0
111957 Off ch=1 n=c#3 v=0
111957 Off ch=1 n=c#4 v=0
111957 On ch=1 n=g#4 v=49
112014 Par ch=1 c=64 v=127
112299 Off ch=1 n=g#4 v=0
112299 On ch=1 n=g#3 v=50
112640 Off ch=1 n=g#3 v=0
112640 On ch=1 n=e4 v=51
112981 Off ch=1 n=e4 v=0
112981 On ch=1 n=c#5 v=52
113323 Off ch=1 n=c#5 v=0
113323 On ch=1 n=g#2 v=49
113323 On ch=1 n=g#3 v=58
113664 Par ch=1 c=64 v=0
113664 Off ch=1 n=g#2 v=0
113664 Off ch=1 n=g#3 v=0
113664 On ch=1 n=c#2 v=59
113664 On ch=1 n=c#3 v=68
113816 Par ch=1 c=64 v=127
114005 Off ch=1 n=c#2 v=0
114005 Off ch=1 n=c#3 v=0
114005 On ch=1 n=e4 v=54
114347 Off ch=1 n=e4 v=0
114347 On ch=1 n=g3 v=55
114688 Off ch=1 n=g3 v=0
114688 On ch=1 n=e4 v=56
115029 Off ch=1 n=e4 v=0
115029 On ch=1 n=b4 v=57
115371 Off ch=1 n=b4 v=0
115371 On ch=1 n=c#2 v=56
115371 On ch=1 n=c#3 v=65
115712 Par ch=1 c=64 v=127
115712 Par ch=1 c=64 v=0
115712 Off ch=1 n=c#2 v=0
115712 Off ch=1 n=c#3 v=0
115712 On ch=1 n=f#2 v=59
115712 On ch=1 n=f#3 v=71
115868 Par ch=1 c=64 v=0
116053 Off ch=1 n=f#2 v=0
116053 Off ch=1 n=f#3 v=0
116053 On ch=1 n=e4 v=68
116063 Par ch=1 c=64 v=127
116395 Off ch=1 n=e4 v=0
116395 On ch=1 n=f#3 v=67
116726 Par ch=1 c=64 v=0
116736 Off ch=1 n=f#3 v=0
116736 On ch=1 n=c#4 v=66
116941 Par ch=1 c=64 v=127
117077 Off ch=1 n=c#4 v=0
117077 On ch=1 n=a#4 v=65
117419 Off ch=1 n=a#4 v=0
117419 On ch=1 n=c#3 v=55
117419 On ch=1 n=c#4 v=64
117760 Off ch=1 n=c#3 v=0
117760 Off ch=1 n=c#4 v=0
117760 On ch=1 n=f#2 v=75
117760 On ch=1 n=f#3 v=67
118101 Off ch=1 n=f#2 v=0
118101 Off ch=1 n=f#3 v=0
118101 On ch=1 n=e4 v=61
118443 Off ch=1 n=e4 v=0
118443 On ch=1 n=f#3 v=60
118784 Off ch=1 n=f#3 v=0
118784 On ch=1 n=c#4 v=59
119125 Off ch=1 n=c#4 v=0
119125 On ch=1 n=f#4 v=58
119467 Off ch=1 n=f#4 v=0
119467 On ch=1 n=f#2 v=73
119467 On ch=1 n=f#3 v=66
119808 Par ch=1 c=64 v=127
119808 Off ch=1 n=f#2 v=0
119808 Off ch=1 n=f#3 v=0
119808 On ch=1 n=b1 v=69
119808 On ch=1 n=b2 v=81
119960 Par ch=1 c=64 v=0
120149 On ch=1 n=f#4 v=60
120187 Par ch=1 c=64 v=127
120491 Off ch=1 n=f#4 v=0
120491 On ch=1 n=f#3 v=60
120832 Off ch=1 n=f#3 v=0
120832 On ch=1 n=d#4 v=60
120851 Par ch=1 c=64 v=0
121003 Par ch=1 c=64 v=127
121173 Off ch=1 n=d#4 v=0
121173 On ch=1 n=b4 v=60
121515 Off ch=1 n=b4 v=0
121515 On ch=1 n=f#3 v=59
121515 On ch=1 n=f#4 v=68
121856 Off ch=1 n=f#3 v=0
121856 Off ch=1 n=f#4 v=0
121856 On ch=1 n=b2 v=60
121856 On ch=1 n=b3 v=72
122197 Off ch=1 n=b2 v=0
122197 Off ch=1 n=b3 v=0
122197 On ch=1 n=f#4 v=60
122539 Off ch=1 n=f#4 v=0
122539 On ch=1 n=f#3 v=60
122880 Off ch=1 n=f#3 v=0
122880 On ch=1 n=d#4 v=60
122918 Par ch=1 c=64 v=0
123108 Par ch=1 c=64 v=127
123221 Off ch=1 n=d#4 v=0
123221 On ch=1 n=a4 v=60
123563 Off ch=1 n=a4 v=0
123563 On ch=1 n=f#3 v=51
123563 On ch=1 n=f#4 v=60
123904 Par ch=1 c=64 v=0
123904 Off ch=1 n=b1 v=0
123904 Off ch=1 n=b2 v=0
123904 Off ch=1 n=f#3 v=0
123904 Off ch=1 n=f#4 v=0
123904 On ch=1 n=a#2 v=60
123904 On ch=1 n=a#3 v=72
123923 Par ch=1 c=64 v=127
124037 Par ch=1 c=64 v=0
124151 Par ch=1 c=64 v=127
124245 Off ch=1 n=a#2 v=0
124245 Off ch=1 n=a#3 v=0
124245 On ch=1 n=a#4 v=60
124587 Off ch=1 n=a#4 v=0
124587 On ch=1 n=a#3 v=60
124928 Off ch=1 n=a#3 v=0
124928 On ch=1 n=f#4 v=60
125269 Off ch=1 n=f#4 v=0
125269 On ch=1 n=d#5 v=60
125611 Off ch=1 n=d#5 v=0
125611 On ch=1 n=f#3 v=60
125611 On ch=1 n=f#4 v=69
125933 Par ch=1 c=64 v=0
125952 Off ch=1 n=f#3 v=0
125952 Off ch=1 n=f#4 v=0
125952 On ch=1 n=a#2 v=60
125952 On ch=1 n=a#3 v=72
126123 Par ch=1 c=64 v=127
126293 Off ch=1 n=a#2 v=0
126293 Off ch=1 n=a#3 v=0
126293 On ch=1 n=a#4 v=60
126635 Off ch=1 n=a#4 v=0
126635 On ch=1 n=a#3 v=60
126976 Off ch=1 n=a#3 v=0
126976 On ch=1 n=f#4 v=60
127317 Off ch=1 n=f#4 v=0
127317 On ch=1 n=d#5 v=60
127659 Off ch=1 n=d#5 v=0
127659 On ch=1 n=f#3 v=60
127659 On ch=1 n=f#4 v=69
128000 Par ch=1 c=64 v=127
128000 Off ch=1 n=f#3 v=0
128000 Off ch=1 n=f#4 v=0
128000 On ch=1 n=a#2 v=60
128000 On ch=1 n=a#3 v=72
128114 Par ch=1 c=64 v=0
128247 Par ch=1 c=64 v=127
128341 On ch=1 n=b4 v=52
128683 Off ch=1 n=b4 v=0
128683 On ch=1 n=f4 v=55
129024 Off ch=1 n=f4 v=0
129024 On ch=1 n=g#4 v=56
129365 Off ch=1 n=g#4 v=0
129365 On ch=1 n=d#5 v=59
129707 Off ch=1 n=d#5 v=0
129707 On ch=1 n=b4 v=52
129707 On ch=1 n=d#5 v=52
129707 On ch=1 n=b5 v=61
130048 Par ch=1 c=64 v=0
130048 Off ch=1 n=b4 v=0
130048 Off ch=1 n=d#5 v=0
130048 Off ch=1 n=b5 v=0
130048 On ch=1 n=b4 v=54
130048 On ch=1 n=d#5 v=54
130048 On ch=1 n=b5 v=63
130238 Par ch=1 c=64 v=127
130389 Off ch=1 n=b4 v=0
130389 Off ch=1 n=d#5 v=0
130389 Off ch=1 n=b5 v=0
130389 On ch=1 n=b4 v=51
130389 On ch=1 n=d#5 v=51
130389 On ch=1 n=b5 v=60
130731 Off ch=1 n=b4 v=0
130731 Off ch=1 n=d#5 v=0
130731 Off ch=1 n=b5 v=0
130731 On ch=1 n=b4 v=51
130731 On ch=1 n=d#5 v=51
130731 On ch=1 n=b5 v=60
131072 Off ch=1 n=b4 v=0
131072 Off ch=1 n=d#5 v=0
131072 Off ch=1 n=b5 v=0
131072 On ch=1 n=b4 v=51
131072 On ch=1 n=d#5 v=51
131072 On ch=1 n=b5 v=60
131413 Off ch=1 n=b4 v=0
131413 Off ch=1 n=d#5 v=0
131413 Off ch=1 n=b5 v=0
131413 On ch=1 n=b4 v=51
131413 On ch=1 n=d#5 v=51
131413 On ch=1 n=b5 v=60
131755 Off ch=1 n=b4 v=0
131755 Off ch=1 n=d#5 v=0
131755 Off ch=1 n=b5 v=0
131755 On ch=1 n=f3 v=59
131755 On ch=1 n=f4 v=68
132096 Par ch=1 c=64 v=127
132096 Par ch=1 c=64 v=0
132096 Off ch=1 n=a#2 v=0
132096 Off ch=1 n=a#3 v=0
132096 Off ch=1 n=f3 v=0
132096 Off ch=1 n=f4 v=0
132096 On ch=1 n=a#2 v=72
132096 On ch=1 n=a#3 v=84
132210 Par ch=1 c=64 v=0
132343 Par ch=1 c=64 v=127
132437 On ch=1 n=a#4 v=70
132779 Off ch=1 n=a#4 v=0
132779 On ch=1 n=f4 v=73
133120 Off ch=1 n=f4 v=0
133120 On ch=1 n=g#4 v=74
133461 Off ch=1 n=g#4 v=0
133461 On ch=1 n=d5 v=77
133803 Off ch=1 n=d5 v=0
133803 On ch=1 n=g#4 v=70
133803 On ch=1 n=d5 v=70
133803 On ch=1 n=a#5 v=79
134144 Par ch=1 c=64 v=0
134144 Off ch=1 n=g#4 v=0
134144 Off ch=1 n=d5 v=0
134144 Off ch=1 n=a#5 v=0
134144 On ch=1 n=g#4 v=72
134144 On ch=1 n=d5 v=72
134144 On ch=1 n=a#5 v=81
134334 Par ch=1 c=64 v=127
134485 Off ch=1 n=g#4 v=0
134485 Off ch=1 n=d5 v=0
134485 Off ch=1 n=a#5 v=0
134485 On ch=1 n=g#4 v=69
134485 On ch=1 n=d5 v=81
134827 Off ch=1 n=g#4 v=0
134827 Off ch=1 n=d5 v=0
134827 On ch=1 n=g#4 v=69
134827 On ch=1 n=d5 v=81
135168 Off ch=1 n=g#4 v=0
135168 Off ch=1 n=d5 v=0
135168 On ch=1 n=g#4 v=69
135168 On ch=1 n=d5 v=81
135509 Off ch=1 n=g#4 v=0
135509 Off ch=1 n=d5 v=0
135509 On ch=1 n=g#4 v=69
135509 On ch=1 n=d5 v=81
135851 Off ch=1 n=g#4 v=0
135851 Off ch=1 n=d5 v=0
135851 On ch=1 n=a#2 v=77
135851 On ch=1 n=a#3 v=86
136192 Par ch=1 c=64 v=127
136192 Off ch=1 n=a#2 v=0
136192 Off ch=1 n=a#3 v=0
136192 Off ch=1 n=a#2 v=0
136192 Off ch=1 n=a#3 v=0
136192 On ch=1 n=d#2 v=82
136192 On ch=1 n=d#3 v=90
136348 Par ch=1 c=64 v=0
136465 Par ch=1 c=64 v=127
136533 Off ch=1 n=d#2 v=0
136533 Off ch=1 n=d#3 v=0
136533 On ch=1 n=a#3 v=51
136533 On ch=1 n=f#4 v=51
136533 On ch=1 n=a#4 v=63
136875 Off ch=1 n=a#3 v=0
136875 Off ch=1 n=f#4 v=0
136875 Off ch=1 n=a#4 v=0
136875 On ch=1 n=a#3 v=51
136875 On ch=1 n=f#4 v=51
136875 On ch=1 n=a#4 v=63
137216 Off ch=1 n=a#3 v=0
137216 Off ch=1 n=f#4 v=0
137216 Off ch=1 n=a#4 v=0
137216 On ch=1 n=a#3 v=51
137216 On ch=1 n=f#4 v=51
137216 On ch=1 n=a#4 v=63
137557 Off ch=1 n=a#3 v=0
137557 Off ch=1 n=f#4 v=0
137557 Off ch=1 n=a#4 v=0
137557 On ch=1 n=a#3 v=51
137557 On ch=1 n=f#4 v=51
137557 On ch=1 n=a#4 v=63
137899 Off ch=1 n=a#3 v=0
137899 Off ch=1 n=f#4 v=0
137899 Off ch=1 n=a#4 v=0
137899 On ch=1 n=a#3 v=51
137899 On ch=1 n=f#4 v=51
137899 On ch=1 n=a#4 v=63
138240 Off ch=1 n=a#3 v=0
138240 Off ch=1 n=f#4 v=0
138240 Off ch=1 n=a#4 v=0
138240 On ch=1 n=f#4 v=51
138240 On ch=1 n=a#4 v=51
138240 On ch=1 n=f#5 v=63
138581 Off ch=1 n=f#4 v=0
138581 Off ch=1 n=a#4 v=0
138581 Off ch=1 n=f#5 v=0
138581 On ch=1 n=a#3 v=51
138581 On ch=1 n=f#4 v=51
138581 On ch=1 n=a#4 v=63
138923 Off ch=1 n=a#3 v=0
138923 Off ch=1 n=f#4 v=0
138923 Off ch=1 n=a#4 v=0
138923 On ch=1 n=a#3 v=51
138923 On ch=1 n=f#4 v=51
138923 On ch=1 n=a#4 v=63
139264 Off ch=1 n=a#3 v=0
139264 Off ch=1 n=f#4 v=0
139264 Off ch=1 n=a#4 v=0
139264 On ch=1 n=d#4 v=51
139264 On ch=1 n=a#4 v=51
139264 On ch=1 n=d#5 v=63
139605 Off ch=1 n=d#4 v=0
139605 Off ch=1 n=a#4 v=0
139605 Off ch=1 n=d#5 v=0
139605 On ch=1 n=d#5 v=51
139605 On ch=1 n=f#5 v=63
139947 Off ch=1 n=d#5 v=0
139947 Off ch=1 n=f#5 v=0
139947 On ch=1 n=d#3 v=71
139947 On ch=1 n=d#4 v=83
140288 Par ch=1 c=64 v=127
140288 Off ch=1 n=d#3 v=0
140288 Off ch=1 n=d#4 v=0
140288 On ch=1 n=d#2 v=77
140288 On ch=1 n=d#3 v=89
140444 Par ch=1 c=64 v=0
140561 Par ch=1 c=64 v=127
140629 On ch=1 n=f#4 v=51
140629 On ch=1 n=b4 v=51
140629 On ch=1 n=f#5 v=63
140971 Off ch=1 n=f#4 v=0
140971 Off ch=1 n=b4 v=0
140971 Off ch=1 n=f#5 v=0
140971 On ch=1 n=f#4 v=53
140971 On ch=1 n=b4 v=53
140971 On ch=1 n=f#5 v=65
141312 Off ch=1 n=f#4 v=0
141312 Off ch=1 n=b4 v=0
141312 Off ch=1 n=f#5 v=0
141312 On ch=1 n=f#4 v=54
141312 On ch=1 n=b4 v=54
141312 On ch=1 n=f#5 v=67
141653 Off ch=1 n=f#4 v=0
141653 Off ch=1 n=b4 v=0
141653 Off ch=1 n=f#5 v=0
141653 On ch=1 n=b3 v=56
141653 On ch=1 n=f#4 v=56
141653 On ch=1 n=b4 v=69
141995 Off ch=1 n=b3 v=0
141995 Off ch=1 n=f#4 v=0
141995 Off ch=1 n=b4 v=0
141995 On ch=1 n=b3 v=57
141995 On ch=1 n=f#4 v=57
141995 On ch=1 n=b4 v=70
142336 Off ch=1 n=b3 v=0
142336 Off ch=1 n=f#4 v=0
142336 Off ch=1 n=b4 v=0
142336 On ch=1 n=b3 v=58
142336 On ch=1 n=f#4 v=58
142336 On ch=1 n=b4 v=72
142677 Off ch=1 n=b3 v=0
142677 Off ch=1 n=f#4 v=0
142677 Off ch=1 n=b4 v=0
142677 On ch=1 n=b3 v=60
142677 On ch=1 n=f#4 v=60
142677 On ch=1 n=b4 v=74
143019 Off ch=1 n=b3 v=0
143019 Off ch=1 n=f#4 v=0
143019 Off ch=1 n=b4 v=0
143019 On ch=1 n=b3 v=61
143019 On ch=1 n=f#4 v=61
143019 On ch=1 n=b4 v=76
143360 Off ch=1 n=b3 v=0
143360 Off ch=1 n=f#4 v=0
143360 Off ch=1 n=b4 v=0
143360 On ch=1 n=f#4 v=61
143360 On ch=1 n=d#5 v=76
143701 Off ch=1 n=f#4 v=0
143701 Off ch=1 n=d#5 v=0
143701 On ch=1 n=f#4 v=61
143701 On ch=1 n=f#5 v=76
144043 Off ch=1 n=f#4 v=0
144043 Off ch=1 n=f#5 v=0
144043 On ch=1 n=b3 v=61
144043 On ch=1 n=b4 v=76
144384 Par ch=1 c=64 v=127
144384 Off ch=1 n=d#2 v=0
144384 Off ch=1 n=d#3 v=0
144384 Off ch=1 n=b3 v=0
144384 Off ch=1 n=b4 v=0
144384 On ch=1 n=d#2 v=82
144384 On ch=1 n=d#3 v=90
144540 Par ch=1 c=64 v=0
144657 Par ch=1 c=64 v=127
144725 Off ch=1 n=d#2 v=0
144725 Off ch=1 n=d#3 v=0
144725 On ch=1 n=b3 v=51
144725 On ch=1 n=g#4 v=51
144725 On ch=1 n=b4 v=63
145067 Off ch=1 n=b3 v=0
145067 Off ch=1 n=g#4 v=0
145067 Off ch=1 n=b4 v=0
145067 On ch=1 n=b3 v=51
145067 On ch=1 n=g#4 v=51
145067 On ch=1 n=b4 v=63
145408 Off ch=1 n=b3 v=0
145408 Off ch=1 n=g#4 v=0
145408 Off ch=1 n=b4 v=0
145408 On ch=1 n=b3 v=51
145408 On ch=1 n=g#4 v=51
145408 On ch=1 n=b4 v=63
145749 Off ch=1 n=b3 v=0
145749 Off ch=1 n=g#4 v=0
145749 Off ch=1 n=b4 v=0
145749 On ch=1 n=b3 v=51
145749 On ch=1 n=g#4 v=51
145749 On ch=1 n=b4 v=63
146091 Off ch=1 n=b3 v=0
146091 Off ch=1 n=g#4 v=0
146091 Off ch=1 n=b4 v=0
146091 On ch=1 n=b3 v=51
146091 On ch=1 n=g#4 v=51
146091 On ch=1 n=b4 v=63
146432 Off ch=1 n=b3 v=0
146432 Off ch=1 n=g#4 v=0
146432 Off ch=1 n=b4 v=0
146432 On ch=1 n=g#4 v=51
146432 On ch=1 n=b4 v=51
146432 On ch=1 n=g#5 v=63
146773 Off ch=1 n=g#4 v=0
146773 Off ch=1 n=b4 v=0
146773 Off ch=1 n=g#5 v=0
146773 On ch=1 n=b3 v=51
146773 On ch=1 n=g#4 v=51
146773 On ch=1 n=b4 v=63
147115 Off ch=1 n=b3 v=0
147115 Off ch=1 n=g#4 v=0
147115 Off ch=1 n=b4 v=0
147115 On ch=1 n=b3 v=51
147115 On ch=1 n=g#4 v=51
147115 On ch=1 n=b4 v=63
147456 Off ch=1 n=b3 v=0
147456 Off ch=1 n=g#4 v=0
147456 Off ch=1 n=b4 v=0
147456 On ch=1 n=e4 v=51
147456 On ch=1 n=b4 v=51
147456 On ch=1 n=e5 v=63
147797 Off ch=1 n=e4 v=0
147797 Off ch=1 n=b4 v=0
147797 Off ch=1 n=e5 v=0
147797 On ch=1 n=g#4 v=51
147797 On ch=1 n=e5 v=63
147797 On ch=1 n=g#5 v=51
148139 Off ch=1 n=g#4 v=0
148139 Off ch=1 n=e5 v=0
148139 Off ch=1 n=g#5 v=0
148139 On ch=1 n=b3 v=71
148139 On ch=1 n=b4 v=83
148480 Par ch=1 c=64 v=127
148480 Off ch=1 n=b3 v=0
148480 Off ch=1 n=b4 v=0
148480 On ch=1 n=d#2 v=72
148480 On ch=1 n=d#3 v=84
148636 Par ch=1 c=64 v=0
148753 Par ch=1 c=64 v=127
148821 Off ch=1 n=d#2 v=0
148821 Off ch=1 n=d#3 v=0
148821 On ch=1 n=b3 v=51
148821 On ch=1 n=f4 v=51
148821 On ch=1 n=g#4 v=63
148821 On ch=1 n=b4 v=51
149163 Off ch=1 n=b3 v=0
149163 Off ch=1 n=f4 v=0
149163 Off ch=1 n=g#4 v=0
149163 Off ch=1 n=b4 v=0
149163 On ch=1 n=b3 v=53
149163 On ch=1 n=f4 v=53
149163 On ch=1 n=g#4 v=65
149163 On ch=1 n=b4 v=53
149504 Off ch=1 n=b3 v=0
149504 Off ch=1 n=f4 v=0
149504 Off ch=1 n=g#4 v=0
149504 Off ch=1 n=b4 v=0
149504 On ch=1 n=f4 v=54
149504 On ch=1 n=g#4 v=54
149504 On ch=1 n=b4 v=67
149504 On ch=1 n=f5 v=54
149845 Off ch=1 n=f4 v=0
149845 Off ch=1 n=g#4 v=0
149845 Off ch=1 n=b4 v=0
149845 Off ch=1 n=f5 v=0
149845 On ch=1 n=f4 v=56
149845 On ch=1 n=g#4 v=56
149845 On ch=1 n=b4 v=69
149845 On ch=1 n=f5 v=56
150187 Off ch=1 n=f4 v=0
150187 Off ch=1 n=g#4 v=0
150187 Off ch=1 n=b4 v=0
150187 Off ch=1 n=f5 v=0
150187 On ch=1 n=f4 v=57
150187 On ch=1 n=g#4 v=57
150187 On ch=1 n=b4 v=70
150187 On ch=1 n=f5 v=57
150528 Off ch=1 n=f4 v=0
150528 Off ch=1 n=g#4 v=0
150528 Off ch=1 n=b4 v=0
150528 Off ch=1 n=f5 v=0
150528 On ch=1 n=f4 v=58
150528 On ch=1 n=g#4 v=58
150528 On ch=1 n=b4 v=72
150528 On ch=1 n=f5 v=58
150869 Off ch=1 n=f4 v=0
150869 Off ch=1 n=g#4 v=0
150869 Off ch=1 n=b4 v=0
150869 Off ch=1 n=f5 v=0
150869 On ch=1 n=f4 v=60
150869 On ch=1 n=g#4 v=60
150869 On ch=1 n=b4 v=74
150869 On ch=1 n=f5 v=60
151211 Off ch=1 n=f4 v=0
151211 Off ch=1 n=g#4 v=0
151211 Off ch=1 n=b4 v=0
151211 Off ch=1 n=f5 v=0
151211 On ch=1 n=d#4 v=61
151211 On ch=1 n=g#4 v=61
151211 On ch=1 n=b4 v=76
151211 On ch=1 n=d#5 v=61
151552 Off ch=1 n=d#4 v=0
151552 Off ch=1 n=g#4 v=0
151552 Off ch=1 n=b4 v=0
151552 Off ch=1 n=d#5 v=0
151552 On ch=1 n=g#4 v=61
151552 On ch=1 n=b4 v=76
151552 On ch=1 n=g#5 v=61
151893 Off ch=1 n=g#4 v=0
151893 Off ch=1 n=b4 v=0
151893 Off ch=1 n=g#5 v=0
151893 On ch=1 n=g#4 v=61
151893 On ch=1 n=b4 v=76
151893 On ch=1 n=g#5 v=61
152235 Off ch=1 n=g#4 v=0
152235 Off ch=1 n=b4 v=0
152235 Off ch=1 n=g#5 v=0
152235 On ch=1 n=d#4 v=61
152235 On ch=1 n=b4 v=76
152235 On ch=1 n=d#5 v=61
152576 Par ch=1 c=64 v=127
152576 Off ch=1 n=d#4 v=0
152576 Off ch=1 n=b4 v=0
152576 Off ch=1 n=d#5 v=0
152576 On ch=1 n=d#3 v=70
152576 On ch=1 n=d#4 v=78
152732 Par ch=1 c=64 v=0
152849 Par ch=1 c=64 v=127
152917 Off ch=1 n=d#3 v=0
152917 Off ch=1 n=d#4 v=0
152917 On ch=1 n=d#4 v=51
152917 On ch=1 n=b4 v=51
152917 On ch=1 n=d#5 v=63
153259 Off ch=1 n=d#4 v=0
153259 Off ch=1 n=b4 v=0
153259 Off ch=1 n=d#5 v=0
153259 On ch=1 n=d#4 v=51
153259 On ch=1 n=b4 v=51
153259 On ch=1 n=d#5 v=63
153600 Off ch=1 n=d#4 v=0
153600 Off ch=1 n=b4 v=0
153600 Off ch=1 n=d#5 v=0
153600 On ch=1 n=d#4 v=51
153600 On ch=1 n=b4 v=51
153600 On ch=1 n=d#5 v=63
153941 Off ch=1 n=d#4 v=0
153941 Off ch=1 n=b4 v=0
153941 Off ch=1 n=d#5 v=0
153941 On ch=1 n=d#4 v=51
153941 On ch=1 n=b4 v=51
153941 On ch=1 n=d#5 v=63
154283 Off ch=1 n=d#4 v=0
154283 Off ch=1 n=b4 v=0
154283 Off ch=1 n=d#5 v=0
154283 On ch=1 n=d#4 v=51
154283 On ch=1 n=b4 v=51
154283 On ch=1 n=d#5 v=63
154624 Off ch=1 n=d#4 v=0
154624 Off ch=1 n=b4 v=0
154624 Off ch=1 n=d#5 v=0
154624 On ch=1 n=b4 v=51
154624 On ch=1 n=d#5 v=51
154624 On ch=1 n=b5 v=72
154965 Off ch=1 n=b4 v=0
154965 Off ch=1 n=d#5 v=0
154965 Off ch=1 n=b5 v=0
154965 On ch=1 n=d#4 v=51
154965 On ch=1 n=b4 v=51
154965 On ch=1 n=d#5 v=63
155307 Off ch=1 n=d#4 v=0
155307 Off ch=1 n=b4 v=0
155307 Off ch=1 n=d#5 v=0
155307 On ch=1 n=d#4 v=51
155307 On ch=1 n=b4 v=51
155307 On ch=1 n=d#5 v=63
155648 Off ch=1 n=d#4 v=0
155648 Off ch=1 n=b4 v=0
155648 Off ch=1 n=d#5 v=0
155648 On ch=1 n=g#4 v=51
155648 On ch=1 n=d#5 v=51
155648 On ch=1 n=g#5 v=63
155989 Off ch=1 n=g#4 v=0
155989 Off ch=1 n=d#5 v=0
155989 Off ch=1 n=g#5 v=0
155989 On ch=1 n=b4 v=51
155989 On ch=1 n=g#5 v=63
155989 On ch=1 n=b5 v=51
156331 Off ch=1 n=b4 v=0
156331 Off ch=1 n=g#5 v=0
156331 Off ch=1 n=b5 v=0
156331 On ch=1 n=g#3 v=71
156331 On ch=1 n=g#4 v=83
156672 Par ch=1 c=64 v=127
156672 Off ch=1 n=g#3 v=0
156672 Off ch=1 n=g#4 v=0
156672 On ch=1 n=d#3 v=72
156672 On ch=1 n=d#4 v=84
156828 Par ch=1 c=64 v=0
156945 Par ch=1 c=64 v=127
157013 Off ch=1 n=d#3 v=0
157013 Off ch=1 n=d#4 v=0
157013 On ch=1 n=d4 v=51
157013 On ch=1 n=g#4 v=51
157013 On ch=1 n=b4 v=63
157355 Off ch=1 n=d4 v=0
157355 Off ch=1 n=g#4 v=0
157355 Off ch=1 n=b4 v=0
157355 On ch=1 n=d4 v=53
157355 On ch=1 n=g#4 v=53
157355 On ch=1 n=b4 v=65
157696 Off ch=1 n=d4 v=0
157696 Off ch=1 n=g#4 v=0
157696 Off ch=1 n=b4 v=0
157696 On ch=1 n=g#4 v=54
157696 On ch=1 n=b4 v=54
157696 On ch=1 n=f5 v=67
158037 Off ch=1 n=g#4 v=0
158037 Off ch=1 n=b4 v=0
158037 Off ch=1 n=f5 v=0
158037 On ch=1 n=g#4 v=56
158037 On ch=1 n=b4 v=56
158037 On ch=1 n=f5 v=69
158379 Off ch=1 n=g#4 v=0
158379 Off ch=1 n=b4 v=0
158379 Off ch=1 n=f5 v=0
158379 On ch=1 n=g#3 v=66
158379 On ch=1 n=g#4 v=78
158720 Off ch=1 n=g#3 v=0
158720 Off ch=1 n=g#4 v=0
158720 On ch=1 n=d#3 v=67
158720 On ch=1 n=d#4 v=79
159061 Off ch=1 n=d#3 v=0
159061 Off ch=1 n=d#4 v=0
159061 On ch=1 n=d4 v=60
159061 On ch=1 n=g#4 v=60
159061 On ch=1 n=b4 v=74
159403 Off ch=1 n=d4 v=0
159403 Off ch=1 n=g#4 v=0
159403 Off ch=1 n=b4 v=0
159403 On ch=1 n=d4 v=61
159403 On ch=1 n=g#4 v=61
159403 On ch=1 n=b4 v=76
159744 Off ch=1 n=d4 v=0
159744 Off ch=1 n=g#4 v=0
159744 Off ch=1 n=b4 v=0
159744 On ch=1 n=g#4 v=61
159744 On ch=1 n=b4 v=76
159744 On ch=1 n=e5 v=61
160085 Off ch=1 n=g#4 v=0
160085 Off ch=1 n=b4 v=0
160085 Off ch=1 n=e5 v=0
160085 On ch=1 n=g#4 v=61
160085 On ch=1 n=b4 v=76
160085 On ch=1 n=e5 v=61
160427 Off ch=1 n=g#4 v=0
160427 Off ch=1 n=b4 v=0
160427 Off ch=1 n=e5 v=0
160427 On ch=1 n=d#3 v=70
160427 On ch=1 n=d#4 v=85
160768 Par ch=1 c=64 v=127
160768 Off ch=1 n=d#3 v=0
160768 Off ch=1 n=d#4 v=0
160768 On ch=1 n=g#2 v=85
160768 On ch=1 n=g#3 v=79
160939 Par ch=1 c=64 v=0
161109 On ch=1 n=d#4 v=60
161109 On ch=1 n=g#4 v=60
161109 On ch=1 n=d#5 v=72
161128 Par ch=1 c=64 v=127
161451 Off ch=1 n=d#4 v=0
161451 Off ch=1 n=g#4 v=0
161451 Off ch=1 n=d#5 v=0
161451 On ch=1 n=d#4 v=58
161451 On ch=1 n=g#4 v=58
161451 On ch=1 n=d#5 v=70
161792 Off ch=1 n=d#4 v=0
161792 Off ch=1 n=g#4 v=0
161792 Off ch=1 n=d#5 v=0
161792 On ch=1 n=d#4 v=57
161792 On ch=1 n=g#4 v=57
161792 On ch=1 n=d#5 v=68
162133 Off ch=1 n=d#4 v=0
162133 Off ch=1 n=g#4 v=0
162133 Off ch=1 n=d#5 v=0
162133 On ch=1 n=d#4 v=56
162133 On ch=1 n=g#4 v=56
162133 On ch=1 n=d#5 v=67
162475 Off ch=1 n=d#4 v=0
162475 Off ch=1 n=g#4 v=0
162475 Off ch=1 n=d#5 v=0
162475 On ch=1 n=d#4 v=54
162475 On ch=1 n=g#4 v=54
162475 On ch=1 n=d#5 v=65
162797 Par ch=1 c=64 v=0
162816 Off ch=1 n=d#4 v=0
162816 Off ch=1 n=g#4 v=0
162816 Off ch=1 n=d#5 v=0
162816 On ch=1 n=b4 v=52
162816 On ch=1 n=d#5 v=52
162816 On ch=1 n=b5 v=63
162930 Par ch=1 c=64 v=127
163157 Off ch=1 n=b4 v=0
163157 Off ch=1 n=d#5 v=0
163157 Off ch=1 n=b5 v=0
163157 On ch=1 n=b4 v=51
163157 On ch=1 n=d#5 v=51
163157 On ch=1 n=b5 v=61
163499 Off ch=1 n=b4 v=0
163499 Off ch=1 n=d#5 v=0
163499 Off ch=1 n=b5 v=0
163499 On ch=1 n=b4 v=49
163499 On ch=1 n=d#5 v=49
163499 On ch=1 n=b5 v=59
163840 Off ch=1 n=b4 v=0
163840 Off ch=1 n=d#5 v=0
163840 Off ch=1 n=b5 v=0
163840 On ch=1 n=d#4 v=48
163840 On ch=1 n=b4 v=48
163840 On ch=1 n=d#5 v=58
164181 Off ch=1 n=d#4 v=0
164181 Off ch=1 n=b4 v=0
164181 Off ch=1 n=d#5 v=0
164181 On ch=1 n=d#4 v=47
164181 On ch=1 n=b4 v=47
164181 On ch=1 n=d#5 v=56
164523 Off ch=1 n=d#4 v=0
164523 Off ch=1 n=b4 v=0
164523 Off ch=1 n=d#5 v=0
164523 On ch=1 n=g#2 v=45
164523 On ch=1 n=g#3 v=54
164864 Par ch=1 c=64 v=127
164864 Off ch=1 n=g#2 v=0
164864 Off ch=1 n=g#3 v=0
164864 Off ch=1 n=g#2 v=0
164864 Off ch=1 n=g#3 v=0
164864 On ch=1 n=d#2 v=48
164864 On ch=1 n=d#3 v=60
164978 Par ch=1 c=64 v=0
165129 Par ch=1 c=64 v=127
165205 Off ch=1 n=d#2 v=0
165205 Off ch=1 n=d#3 v=0
165205 On ch=1 n=b3 v=32
165205 On ch=1 n=f#4 v=32
165205 On ch=1 n=b4 v=44
165547 Off ch=1 n=b3 v=0
165547 Off ch=1 n=f#4 v=0
165547 Off ch=1 n=b4 v=0
165547 On ch=1 n=b3 v=33
165547 On ch=1 n=f#4 v=33
165547 On ch=1 n=b4 v=45
165888 Off ch=1 n=b3 v=0
165888 Off ch=1 n=f#4 v=0
165888 Off ch=1 n=b4 v=0
165888 On ch=1 n=b3 v=34
165888 On ch=1 n=f#4 v=34
165888 On ch=1 n=b4 v=46
166229 Off ch=1 n=b3 v=0
166229 Off ch=1 n=f#4 v=0
166229 Off ch=1 n=b4 v=0
166229 On ch=1 n=b3 v=35
166229 On ch=1 n=f#4 v=35
166229 On ch=1 n=b4 v=47
166571 Off ch=1 n=b3 v=0
166571 Off ch=1 n=f#4 v=0
166571 Off ch=1 n=b4 v=0
166571 On ch=1 n=b3 v=36
166571 On ch=1 n=f#4 v=36
166571 On ch=1 n=b4 v=48
166912 Off ch=1 n=b3 v=0
166912 Off ch=1 n=f#4 v=0
166912 Off ch=1 n=b4 v=0
166912 On ch=1 n=b3 v=38
166912 On ch=1 n=f4 v=38
166912 On ch=1 n=b4 v=50
167253 Off ch=1 n=b3 v=0
167253 Off ch=1 n=f4 v=0
167253 Off ch=1 n=b4 v=0
167253 On ch=1 n=g#3 v=39
167253 On ch=1 n=g#4 v=51
167595 Off ch=1 n=g#3 v=0
167595 Off ch=1 n=g#4 v=0
167595 On ch=1 n=g#3 v=40
167595 On ch=1 n=g#4 v=52
167936 Off ch=1 n=g#3 v=0
167936 Off ch=1 n=g#4 v=0
167936 On ch=1 n=g#3 v=41
167936 On ch=1 n=g#4 v=53
168277 Off ch=1 n=g#3 v=0
168277 Off ch=1 n=g#4 v=0
168277 On ch=1 n=g#3 v=42
168277 On ch=1 n=g#4 v=54
168619 Off ch=1 n=g#3 v=0
168619 Off ch=1 n=g#4 v=0
168619 On ch=1 n=g#2 v=43
168619 On ch=1 n=g#3 v=55
168960 Par ch=1 c=64 v=127
168960 Off ch=1 n=g#2 v=0
168960 Off ch=1 n=g#3 v=0
168960 On ch=1 n=d#2 v=60
168960 On ch=1 n=d#3 v=60
169074 Par ch=1 c=64 v=0
169225 Par ch=1 c=64 v=127
169301 Off ch=1 n=d#2 v=0
169301 Off ch=1 n=d#3 v=0
169301 On ch=1 n=b3 v=44
169301 On ch=1 n=f#4 v=44
169301 On ch=1 n=b4 v=56
169643 Off ch=1 n=b3 v=0
169643 Off ch=1 n=f#4 v=0
169643 Off ch=1 n=b4 v=0
169643 On ch=1 n=b3 v=45
169643 On ch=1 n=f#4 v=45
169643 On ch=1 n=b4 v=57
169984 Off ch=1 n=b3 v=0
169984 Off ch=1 n=f#4 v=0
169984 Off ch=1 n=b4 v=0
169984 On ch=1 n=b3 v=46
169984 On ch=1 n=f#4 v=46
169984 On ch=1 n=b4 v=58
170325 Off ch=1 n=b3 v=0
170325 Off ch=1 n=f#4 v=0
170325 Off ch=1 n=b4 v=0
170325 On ch=1 n=b3 v=47
170325 On ch=1 n=f#4 v=47
170325 On ch=1 n=b4 v=59
170667 Off ch=1 n=b3 v=0
170667 Off ch=1 n=f#4 v=0
170667 Off ch=1 n=b4 v=0
170667 On ch=1 n=b3 v=48
170667 On ch=1 n=f#4 v=48
170667 On ch=1 n=b4 v=60
171008 Off ch=1 n=b3 v=0
171008 Off ch=1 n=f#4 v=0
171008 Off ch=1 n=b4 v=0
171008 On ch=1 n=b3 v=50
171008 On ch=1 n=f4 v=50
171008 On ch=1 n=b4 v=62
171349 Off ch=1 n=b3 v=0
171349 Off ch=1 n=f4 v=0
171349 Off ch=1 n=b4 v=0
171349 On ch=1 n=g#3 v=51
171349 On ch=1 n=g#4 v=63
171691 Off ch=1 n=g#3 v=0
171691 Off ch=1 n=g#4 v=0
171691 On ch=1 n=g#3 v=52
171691 On ch=1 n=g#4 v=64
172032 Off ch=1 n=g#3 v=0
172032 Off ch=1 n=g#4 v=0
172032 On ch=1 n=g#3 v=53
172032 On ch=1 n=g#4 v=65
172373 Off ch=1 n=g#3 v=0
172373 Off ch=1 n=g#4 v=0
172373 On ch=1 n=g#3 v=54
172373 On ch=1 n=g#4 v=66
172715 Off ch=1 n=g#3 v=0
172715 Off ch=1 n=g#4 v=0
172715 On ch=1 n=g#2 v=55
172715 On ch=1 n=g#3 v=67
173056 Par ch=1 c=64 v=127
173056 Off ch=1 n=g#2 v=0
173056 Off ch=1 n=g#3 v=0
173056 On ch=1 n=d#2 v=60
173056 On ch=1 n=d#3 v=72
173170 Par ch=1 c=64 v=0
173321 Par ch=1 c=64 v=127
173397 Off ch=1 n=d#2 v=0
173397 Off ch=1 n=d#3 v=0
173397 On ch=1 n=d#4 v=56
173397 On ch=1 n=g#4 v=56
173397 On ch=1 n=d#5 v=68
173739 Off ch=1 n=d#4 v=0
173739 Off ch=1 n=g#4 v=0
173739 Off ch=1 n=d#5 v=0
173739 On ch=1 n=d#4 v=57
173739 On ch=1 n=g#4 v=57
173739 On ch=1 n=d#5 v=69
174080 Off ch=1 n=d#4 v=0
174080 Off ch=1 n=g#4 v=0
174080 Off ch=1 n=d#5 v=0
174080 On ch=1 n=d#4 v=58
174080 On ch=1 n=g#4 v=58
174080 On ch=1 n=d#5 v=70
174421 Off ch=1 n=d#4 v=0
174421 Off ch=1 n=g#4 v=0
174421 Off ch=1 n=d#5 v=0
174421 On ch=1 n=d#4 v=59
174421 On ch=1 n=g#4 v=59
174421 On ch=1 n=d#5 v=71
174763 Off ch=1 n=d#4 v=0
174763 Off ch=1 n=g#4 v=0
174763 Off ch=1 n=d#5 v=0
174763 On ch=1 n=d#4 v=60
174763 On ch=1 n=g#4 v=60
174763 On ch=1 n=d#5 v=72
175104 Off ch=1 n=d#4 v=0
175104 Off ch=1 n=g#4 v=0
175104 Off ch=1 n=d#5 v=0
175104 On ch=1 n=g#4 v=62
175104 On ch=1 n=d#5 v=62
175104 On ch=1 n=g#5 v=74
175445 Off ch=1 n=g#4 v=0
175445 Off ch=1 n=d#5 v=0
175445 Off ch=1 n=g#5 v=0
175445 On ch=1 n=b3 v=63
175445 On ch=1 n=b4 v=75
175787 Off ch=1 n=b3 v=0
175787 Off ch=1 n=b4 v=0
175787 On ch=1 n=b3 v=64
175787 On ch=1 n=b4 v=76
176128 Off ch=1 n=b3 v=0
176128 Off ch=1 n=b4 v=0
176128 On ch=1 n=b3 v=65
176128 On ch=1 n=b4 v=77
176469 Off ch=1 n=b3 v=0
176469 Off ch=1 n=b4 v=0
176469 On ch=1 n=b3 v=66
176469 On ch=1 n=b4 v=78
176811 Off ch=1 n=b3 v=0
176811 Off ch=1 n=b4 v=0
176811 On ch=1 n=b3 v=79
176811 On ch=1 n=b4 v=91
177152 Par ch=1 c=64 v=127
177152 Off ch=1 n=b3 v=0
177152 Off ch=1 n=b4 v=0
177152 On ch=1 n=d2 v=99
177152 On ch=1 n=d3 v=93
177285 Par ch=1 c=64 v=0
177493 Par ch=1 c=64 v=127
177664 Off ch=1 n=d2 v=0
177664 Off ch=1 n=d3 v=0
177664 On ch=1 n=b3 v=60
177664 On ch=1 n=b4 v=72
178176 Off ch=1 n=b3 v=0
178176 Off ch=1 n=b4 v=0
178176 On ch=1 n=f4 v=60
178176 On ch=1 n=b4 v=60
178176 On ch=1 n=f5 v=72
178688 Off ch=1 n=f4 v=0
178688 Off ch=1 n=b4 v=0
178688 Off ch=1 n=f5 v=0
178688 On ch=1 n=b3 v=60
178688 On ch=1 n=b4 v=72
179200 Par ch=1 c=64 v=0
179200 Off ch=1 n=b3 v=0
179200 Off ch=1 n=b4 v=0
179200 On ch=1 n=d#2 v=90
179200 On ch=1 n=d#3 v=84
179390 Par ch=1 c=64 v=127
179712 Off ch=1 n=d#2 v=0
179712 Off ch=1 n=d#3 v=0
179712 On ch=1 n=b3 v=60
179712 On ch=1 n=b4 v=72
180224 Off ch=1 n=b3 v=0
180224 Off ch=1 n=b4 v=0
180224 On ch=1 n=e4 v=60
180224 On ch=1 n=b4 v=60
180224 On ch=1 n=e5 v=72
180736 Off ch=1 n=e4 v=0
180736 Off ch=1 n=b4 v=0
180736 Off ch=1 n=e5 v=0
180736 On ch=1 n=b3 v=60
180736 On ch=1 n=b4 v=72
181248 Par ch=1 c=64 v=127
181248 Off ch=1 n=b3 v=0
181248 Off ch=1 n=b4 v=0
181248 On ch=1 n=e2 v=90
181248 On ch=1 n=e3 v=84
181381 Par ch=1 c=64 v=0
181589 Par ch=1 c=64 v=127
181760 Off ch=1 n=e2 v=0
181760 Off ch=1 n=e3 v=0
181760 On ch=1 n=g#3 v=60
181760 On ch=1 n=g#4 v=72
182272 Off ch=1 n=g#3 v=0
182272 Off ch=1 n=g#4 v=0
182272 On ch=1 n=d#4 v=60
182272 On ch=1 n=g#4 v=60
182272 On ch=1 n=b4 v=60
182272 On ch=1 n=d#5 v=72
182784 Off ch=1 n=d#4 v=0
182784 Off ch=1 n=g#4 v=0
182784 Off ch=1 n=b4 v=0
182784 Off ch=1 n=d#5 v=0
182784 On ch=1 n=b3 v=60
182784 On ch=1 n=b4 v=72
183296 Par ch=1 c=64 v=0
183296 Off ch=1 n=b3 v=0
183296 Off ch=1 n=b4 v=0
183296 On ch=1 n=f2 v=90
183296 On ch=1 n=f3 v=84
183486 Par ch=1 c=64 v=127
183808 On ch=1 n=b3 v=60
183808 On ch=1 n=b4 v=72
184320 Off ch=1 n=b3 v=0
184320 Off ch=1 n=b4 v=0
184320 On ch=1 n=d4 v=60
184320 On ch=1 n=g#4 v=60
184320 On ch=1 n=b4 v=60
184320 On ch=1 n=d5 v=72
184339 Par ch=1 c=64 v=0
184472 Par ch=1 c=64 v=127
185344 Par ch=1 c=64 v=127
185344 Off ch=1 n=f2 v=0
185344 Off ch=1 n=f3 v=0
185344 Off ch=1 n=d4 v=0
185344 Off ch=1 n=g#4 v=0
185344 Off ch=1 n=b4 v=0
185344 Off ch=1 n=d5 v=0
185344 On ch=1 n=f#2 v=90
185344 On ch=1 n=f#3 v=84
185477 Par ch=1 c=64 v=0
185685 Par ch=1 c=64 v=127
185856 On ch=1 n=d4 v=60
185856 On ch=1 n=g#4 v=60
185856 On ch=1 n=b4 v=60
185856 On ch=1 n=d5 v=72
186368 Off ch=1 n=d4 v=0
186368 Off ch=1 n=g#4 v=0
186368 Off ch=1 n=b4 v=0
186368 Off ch=1 n=d5 v=0
186368 On ch=1 n=d#4 v=60
186368 On ch=1 n=f#4 v=60
186368 On ch=1 n=b4 v=60
186368 On ch=1 n=d#5 v=72
186387 Par ch=1 c=64 v=0
186596 Par ch=1 c=64 v=127
186880 Off ch=1 n=d#4 v=0
186880 Off ch=1 n=f#4 v=0
186880 Off ch=1 n=b4 v=0
186880 Off ch=1 n=d#5 v=0
186880 On ch=1 n=d#3 v=60
186880 On ch=1 n=d#4 v=72
187392 Par ch=1 c=64 v=0
187392 Off ch=1 n=f#2 v=0
187392 Off ch=1 n=f#3 v=0
187392 Off ch=1 n=d#3 v=0
187392 Off ch=1 n=d#4 v=0
187392 On ch=1 n=g2 v=90
187392 On ch=1 n=g3 v=84
187582 Par ch=1 c=64 v=127
187904 On ch=1 n=d#4 v=60
187904 On ch=1 n=f#4 v=60
187904 On ch=1 n=b4 v=60
187904 On ch=1 n=d#5 v=72
188416 Off ch=1 n=d#4 v=0
188416 Off ch=1 n=f#4 v=0
188416 Off ch=1 n=b4 v=0
188416 Off ch=1 n=d#5 v=0
188416 On ch=1 n=e4 v=60
188416 On ch=1 n=a#4 v=60
188416 On ch=1 n=c#5 v=60
188416 On ch=1 n=e5 v=72
188435 Par ch=1 c=64 v=0
188606 Par ch=1 c=64 v=127
188928 Off ch=1 n=e4 v=0
188928 Off ch=1 n=a#4 v=0
188928 Off ch=1 n=c#5 v=0
188928 Off ch=1 n=e5 v=0
188928 On ch=1 n=e3 v=60
188928 On ch=1 n=e4 v=72
189440 Par ch=1 c=64 v=127
189440 Off ch=1 n=g2 v=0
189440 Off ch=1 n=g3 v=0
189440 Off ch=1 n=e3 v=0
189440 Off ch=1 n=e4 v=0
189440 On ch=1 n=g#2 v=90
189440 On ch=1 n=g#3 v=84
189573 Par ch=1 c=64 v=0
189781 Par ch=1 c=64 v=127
189952 On ch=1 n=e4 v=60
189952 On ch=1 n=a#4 v=60
189952 On ch=1 n=c#5 v=60
189952 On ch=1 n=e5 v=72
190464 Off ch=1 n=e4 v=0
190464 Off ch=1 n=a#4 v=0
190464 Off ch=1 n=c#5 v=0
190464 Off ch=1 n=e5 v=0
190464 On ch=1 n=e4 v=60
190464 On ch=1 n=g#4 v=60
190464 On ch=1 n=b4 v=60
190464 On ch=1 n=e5 v=72
190483 Par ch=1 c=64 v=0
190729 Par ch=1 c=64 v=127
190976 Off ch=1 n=e4 v=0
190976 Off ch=1 n=g#4 v=0
190976 Off ch=1 n=b4 v=0
190976 Off ch=1 n=e5 v=0
190976 On ch=1 n=e3 v=60
190976 On ch=1 n=e4 v=72
191488 Par ch=1 c=64 v=0
191488 Off ch=1 n=g#2 v=0
191488 Off ch=1 n=g#3 v=0
191488 Off ch=1 n=e3 v=0
191488 Off ch=1 n=e4 v=0
191488 On ch=1 n=a2 v=90
191488 On ch=1 n=a3 v=84
191678 Par ch=1 c=64 v=127
192000 On ch=1 n=e4 v=60
192000 On ch=1 n=g#4 v=60
192000 On ch=1 n=b4 v=60
192000 On ch=1 n=e5 v=72
192512 Off ch=1 n=e4 v=0
192512 Off ch=1 n=g#4 v=0
192512 Off ch=1 n=b4 v=0
192512 Off ch=1 n=e5 v=0
192512 On ch=1 n=d#4 v=60
192512 On ch=1 n=f#4 v=60
192512 On ch=1 n=b4 v=60
192512 On ch=1 n=d#5 v=72
192550 Par ch=1 c=64 v=0
192759 Par ch=1 c=64 v=127
193024 Off ch=1 n=d#4 v=0
193024 Off ch=1 n=f#4 v=0
193024 Off ch=1 n=b4 v=0
193024 Off ch=1 n=d#5 v=0
193024 On ch=1 n=a2 v=78
193024 On ch=1 n=a3 v=72
193536 Off ch=1 n=a2 v=0
193536 Off ch=1 n=a3 v=0
193536 Off ch=1 n=a2 v=0
193536 Off ch=1 n=a3 v=0
193536 On ch=1 n=a#2 v=78
193536 On ch=1 n=a#3 v=72
193555 Par ch=1 c=64 v=127
193650 Par ch=1 c=64 v=0
193896 Par ch=1 c=64 v=127
194048 On ch=1 n=f#4 v=48
194048 On ch=1 n=b4 v=48
194048 On ch=1 n=d#5 v=48
194048 On ch=1 n=f#5 v=58
194560 Off ch=1 n=f#4 v=0
194560 Off ch=1 n=b4 v=0
194560 Off ch=1 n=d#5 v=0
194560 Off ch=1 n=f#5 v=0
194560 On ch=1 n=f#4 v=49
194560 On ch=1 n=a#4 v=49
194560 On ch=1 n=d#5 v=49
194560 On ch=1 n=f#5 v=58
194901 Off ch=1 n=f#4 v=0
194901 Off ch=1 n=a#4 v=0
194901 Off ch=1 n=d#5 v=0
194901 Off ch=1 n=f#5 v=0
194901 On ch=1 n=f#4 v=49
194901 On ch=1 n=a#4 v=49
194901 On ch=1 n=d#5 v=49
194901 On ch=1 n=f#5 v=59
195243 Off ch=1 n=f#4 v=0
195243 Off ch=1 n=a#4 v=0
195243 Off ch=1 n=d#5 v=0
195243 Off ch=1 n=f#5 v=0
195243 On ch=1 n=f#4 v=50
195243 On ch=1 n=a#4 v=50
195243 On ch=1 n=d#5 v=50
195243 On ch=1 n=f#5 v=60
195584 Off ch=1 n=f#4 v=0
195584 Off ch=1 n=a#4 v=0
195584 Off ch=1 n=d#5 v=0
195584 Off ch=1 n=f#5 v=0
195584 On ch=1 n=f#4 v=50
195584 On ch=1 n=a4 v=50
195584 On ch=1 n=b4 v=50
195584 On ch=1 n=d#5 v=50
195584 On ch=1 n=f#5 v=60
195925 Off ch=1 n=f#4 v=0
195925 Off ch=1 n=a4 v=0
195925 Off ch=1 n=b4 v=0
195925 Off ch=1 n=d#5 v=0
195925 Off ch=1 n=f#5 v=0
195925 On ch=1 n=f#4 v=51
195925 On ch=1 n=a4 v=51
195925 On ch=1 n=b4 v=51
195925 On ch=1 n=d#5 v=51
195925 On ch=1 n=f#5 v=61
196267 Off ch=1 n=f#4 v=0
196267 Off ch=1 n=a4 v=0
196267 Off ch=1 n=b4 v=0
196267 Off ch=1 n=d#5 v=0
196267 Off ch=1 n=f#5 v=0
196267 On ch=1 n=f#4 v=52
196267 On ch=1 n=a4 v=52
196267 On ch=1 n=b4 v=52
196267 On ch=1 n=d#5 v=52
196267 On ch=1 n=f#5 v=62
196608 Off ch=1 n=f#4 v=0
196608 Off ch=1 n=a4 v=0
196608 Off ch=1 n=b4 v=0
196608 Off ch=1 n=d#5 v=0
196608 Off ch=1 n=f#5 v=0
196608 On ch=1 n=f#4 v=52
196608 On ch=1 n=a4 v=52
196608 On ch=1 n=b4 v=52
196608 On ch=1 n=d#5 v=52
196608 On ch=1 n=f#5 v=63
196949 Off ch=1 n=f#4 v=0
196949 Off ch=1 n=a4 v=0
196949 Off ch=1 n=b4 v=0
196949 Off ch=1 n=d#5 v=0
196949 Off ch=1 n=f#5 v=0
196949 On ch=1 n=f#4 v=53
196949 On ch=1 n=a4 v=53
196949 On ch=1 n=b4 v=53
196949 On ch=1 n=d#5 v=53
196949 On ch=1 n=f#5 v=63
197291 Off ch=1 n=f#4 v=0
197291 Off ch=1 n=a4 v=0
197291 Off ch=1 n=b4 v=0
197291 Off ch=1 n=d#5 v=0
197291 Off ch=1 n=f#5 v=0
197291 On ch=1 n=f#4 v=53
197291 On ch=1 n=a4 v=53
197291 On ch=1 n=b4 v=53
197291 On ch=1 n=d#5 v=53
197291 On ch=1 n=f#5 v=64
197632 Par ch=1 c=64 v=127
197632 Off ch=1 n=a#2 v=0
197632 Off ch=1 n=a#3 v=0
197632 Off ch=1 n=f#4 v=0
197632 Off ch=1 n=a4 v=0
197632 Off ch=1 n=b4 v=0
197632 Off ch=1 n=d#5 v=0
197632 Off ch=1 n=f#5 v=0
197632 On ch=1 n=f#4 v=56
197632 On ch=1 n=g#4 v=56
197632 On ch=1 n=d#5 v=56
197632 On ch=1 n=f#5 v=68
197727 Par ch=1 c=64 v=0
197860 Par ch=1 c=64 v=127
197973 Off ch=1 n=f#4 v=0
197973 Off ch=1 n=g#4 v=0
197973 Off ch=1 n=d#5 v=0
197973 Off ch=1 n=f#5 v=0
197973 On ch=1 n=f#4 v=56
197973 On ch=1 n=g#4 v=56
197973 On ch=1 n=d#5 v=56
197973 On ch=1 n=f#5 v=67
198315 Off ch=1 n=f#4 v=0
198315 Off ch=1 n=g#4 v=0
198315 Off ch=1 n=d#5 v=0
198315 Off ch=1 n=f#5 v=0
198315 On ch=1 n=f#4 v=53
198315 On ch=1 n=g#4 v=53
198315 On ch=1 n=d#5 v=53
198315 On ch=1 n=f#5 v=64
198656 Off ch=1 n=f#4 v=0
198656 Off ch=1 n=g#4 v=0
198656 Off ch=1 n=d#5 v=0
198656 Off ch=1 n=f#5 v=0
198656 On ch=1 n=f#4 v=53
198656 On ch=1 n=g#4 v=53
198656 On ch=1 n=d#5 v=53
198656 On ch=1 n=f#5 v=63
198997 Off ch=1 n=f#4 v=0
198997 Off ch=1 n=g#4 v=0
198997 Off ch=1 n=d#5 v=0
198997 Off ch=1 n=f#5 v=0
198997 On ch=1 n=f#4 v=51
198997 On ch=1 n=g#4 v=51
198997 On ch=1 n=d#5 v=51
198997 On ch=1 n=f#5 v=61
199339 Off ch=1 n=f#4 v=0
199339 Off ch=1 n=g#4 v=0
199339 Off ch=1 n=d#5 v=0
199339 Off ch=1 n=f#5 v=0
199339 On ch=1 n=f#4 v=49
199339 On ch=1 n=g#4 v=49
199339 On ch=1 n=d#5 v=49
199339 On ch=1 n=f#5 v=59
199680 Par ch=1 c=64 v=0
199680 Off ch=1 n=f#4 v=0
199680 Off ch=1 n=g#4 v=0
199680 Off ch=1 n=d#5 v=0
199680 Off ch=1 n=f#5 v=0
199680 On ch=1 n=f4 v=48
199680 On ch=1 n=g#4 v=48
199680 On ch=1 n=d5 v=48
199680 On ch=1 n=f5 v=57
199870 Par ch=1 c=64 v=127
200021 Off ch=1 n=f4 v=0
200021 Off ch=1 n=g#4 v=0
200021 Off ch=1 n=d5 v=0
200021 Off ch=1 n=f5 v=0
200021 On ch=1 n=g#4 v=52
200021 On ch=1 n=d5 v=52
200021 On ch=1 n=f5 v=63
200363 Off ch=1 n=g#4 v=0
200363 Off ch=1 n=d5 v=0
200363 Off ch=1 n=f5 v=0
200363 On ch=1 n=g#4 v=57
200363 On ch=1 n=d5 v=57
200363 On ch=1 n=f5 v=68
200704 Off ch=1 n=g#4 v=0
200704 Off ch=1 n=d5 v=0
200704 Off ch=1 n=f5 v=0
200704 On ch=1 n=g#4 v=59
200704 On ch=1 n=d5 v=71
201045 Off ch=1 n=g#4 v=0
201045 Off ch=1 n=d5 v=0
201045 On ch=1 n=g#4 v=59
201045 On ch=1 n=d5 v=71
201387 Off ch=1 n=g#4 v=0
201387 Off ch=1 n=d5 v=0
201387 On ch=1 n=a#2 v=69
201387 On ch=1 n=a#3 v=81
201728 Par ch=1 c=64 v=127
201728 Off ch=1 n=a#2 v=0
201728 Off ch=1 n=a#3 v=0
201728 On ch=1 n=d#2 v=69
201728 On ch=1 n=d#3 v=81
201861 Par ch=1 c=64 v=0
202012 Par ch=1 c=64 v=127
202069 Off ch=1 n=d#2 v=0
202069 Off ch=1 n=d#3 v=0
202069 On ch=1 n=a#3 v=60
202069 On ch=1 n=f#4 v=60
202069 On ch=1 n=a#4 v=72
202411 Off ch=1 n=a#3 v=0
202411 Off ch=1 n=f#4 v=0
202411 Off ch=1 n=a#4 v=0
202411 On ch=1 n=a#3 v=58
202411 On ch=1 n=f#4 v=58
202411 On ch=1 n=a#4 v=70
202752 Off ch=1 n=a#3 v=0
202752 Off ch=1 n=f#4 v=0
202752 Off ch=1 n=a#4 v=0
202752 On ch=1 n=a#3 v=57
202752 On ch=1 n=f#4 v=57
202752 On ch=1 n=a#4 v=68
203093 Off ch=1 n=a#3 v=0
203093 Off ch=1 n=f#4 v=0
203093 Off ch=1 n=a#4 v=0
203093 On ch=1 n=a#3 v=55
203093 On ch=1 n=f#4 v=55
203093 On ch=1 n=a#4 v=66
203435 Off ch=1 n=a#3 v=0
203435 Off ch=1 n=f#4 v=0
203435 Off ch=1 n=a#4 v=0
203435 On ch=1 n=a#3 v=54
203435 On ch=1 n=f#4 v=54
203435 On ch=1 n=a#4 v=65
203776 Off ch=1 n=a#3 v=0
203776 Off ch=1 n=f#4 v=0
203776 Off ch=1 n=a#4 v=0
203776 On ch=1 n=f#4 v=52
203776 On ch=1 n=a#4 v=52
203776 On ch=1 n=f#5 v=63
204117 Off ch=1 n=f#4 v=0
204117 Off ch=1 n=a#4 v=0
204117 Off ch=1 n=f#5 v=0
204117 On ch=1 n=a#3 v=54
204117 On ch=1 n=a#4 v=65
204459 Off ch=1 n=a#3 v=0
204459 Off ch=1 n=a#4 v=0
204459 On ch=1 n=a#3 v=56
204459 On ch=1 n=a#4 v=68
204800 Off ch=1 n=a#3 v=0
204800 Off ch=1 n=a#4 v=0
204800 On ch=1 n=a#3 v=59
204800 On ch=1 n=a#4 v=71
205141 Off ch=1 n=a#3 v=0
205141 Off ch=1 n=a#4 v=0
205141 On ch=1 n=a#3 v=61
205141 On ch=1 n=a#4 v=73
205483 Off ch=1 n=a#3 v=0
205483 Off ch=1 n=a#4 v=0
205483 On ch=1 n=a#3 v=63
205483 On ch=1 n=a#4 v=76
205824 Par ch=1 c=64 v=127
205824 Off ch=1 n=a#3 v=0
205824 Off ch=1 n=a#4 v=0
205824 On ch=1 n=d#2 v=69
205824 On ch=1 n=d#3 v=81
205957 Par ch=1 c=64 v=0
206108 Par ch=1 c=64 v=127
206165 Off ch=1 n=d#2 v=0
206165 Off ch=1 n=d#3 v=0
206165 On ch=1 n=a#3 v=48
206165 On ch=1 n=f#4 v=48
206165 On ch=1 n=a#4 v=60
206507 Off ch=1 n=a#3 v=0
206507 Off ch=1 n=f#4 v=0
206507 Off ch=1 n=a#4 v=0
206507 On ch=1 n=a#3 v=48
206507 On ch=1 n=f#4 v=48
206507 On ch=1 n=a#4 v=60
206848 Off ch=1 n=a#3 v=0
206848 Off ch=1 n=f#4 v=0
206848 Off ch=1 n=a#4 v=0
206848 On ch=1 n=a#3 v=48
206848 On ch=1 n=f#4 v=48
206848 On ch=1 n=a#4 v=60
207189 Off ch=1 n=a#3 v=0
207189 Off ch=1 n=f#4 v=0
207189 Off ch=1 n=a#4 v=0
207189 On ch=1 n=a#3 v=48
207189 On ch=1 n=f#4 v=48
207189 On ch=1 n=a#4 v=60
207531 Off ch=1 n=a#3 v=0
207531 Off ch=1 n=f#4 v=0
207531 Off ch=1 n=a#4 v=0
207531 On ch=1 n=a#3 v=48
207531 On ch=1 n=f#4 v=48
207531 On ch=1 n=a#4 v=60
207872 Off ch=1 n=a#3 v=0
207872 Off ch=1 n=f#4 v=0
207872 Off ch=1 n=a#4 v=0
207872 On ch=1 n=a#3 v=48
207872 On ch=1 n=a#4 v=60
208213 Off ch=1 n=a#3 v=0
208213 Off ch=1 n=a#4 v=0
208213 On ch=1 n=a#2 v=48
208213 On ch=1 n=a#3 v=60
208555 Off ch=1 n=a#2 v=0
208555 Off ch=1 n=a#3 v=0
208555 On ch=1 n=a#2 v=48
208555 On ch=1 n=a#3 v=60
208896 Off ch=1 n=a#2 v=0
208896 Off ch=1 n=a#3 v=0
208896 On ch=1 n=a#2 v=48
209237 Off ch=1 n=a#2 v=0
209237 On ch=1 n=a#2 v=48
209237 On ch=1 n=a#3 v=60
209579 Off ch=1 n=a#2 v=0
209579 Off ch=1 n=a#3 v=0
209579 On ch=1 n=a#2 v=48
209579 On ch=1 n=a#3 v=60
209920 Par ch=1 c=64 v=127
209920 Off ch=1 n=a#2 v=0
209920 Off ch=1 n=a#3 v=0
209920 On ch=1 n=a#2 v=60
210053 Par ch=1 c=64 v=0
210204 Par ch=1 c=64 v=127
210261 Off ch=1 n=a#2 v=0
210261 On ch=1 n=d#2 v=49
210261 On ch=1 n=d#3 v=61
210603 Off ch=1 n=d#2 v=0
210603 Off ch=1 n=d#3 v=0
210603 On ch=1 n=a#2 v=56
210944 Off ch=1 n=a#2 v=0
210944 On ch=1 n=a#2 v=63
211285 Off ch=1 n=a#2 v=0
211285 On ch=1 n=d#2 v=51
211285 On ch=1 n=d#3 v=63
211627 Off ch=1 n=d#2 v=0
211627 Off ch=1 n=d#3 v=0
211627 On ch=1 n=d#3 v=58
211968 Off ch=1 n=d#3 v=0
211968 On ch=1 n=d#3 v=65
212309 Off ch=1 n=d#3 v=0
212309 On ch=1 n=a#2 v=54
212309 On ch=1 n=a#3 v=66
212651 Off ch=1 n=a#2 v=0
212651 Off ch=1 n=a#3 v=0
212651 On ch=1 n=a#3 v=61
212992 Off ch=1 n=a#3 v=0
212992 On ch=1 n=a#3 v=68
213333 Off ch=1 n=a#3 v=0
213333 On ch=1 n=d#3 v=56
213333 On ch=1 n=d#4 v=68
213675 Off ch=1 n=d#3 v=0
213675 Off ch=1 n=d#4 v=0
213675 On ch=1 n=d#4 v=63
214016 Par ch=1 c=64 v=127
214016 Off ch=1 n=d#4 v=0
214016 On ch=1 n=d#4 v=70
214149 Par ch=1 c=64 v=0
214300 Par ch=1 c=64 v=127
214357 Off ch=1 n=d#4 v=0
214357 On ch=1 n=a#3 v=59
214357 On ch=1 n=a#4 v=71
214699 Off ch=1 n=a#3 v=0
214699 Off ch=1 n=a#4 v=0
214699 On ch=1 n=a#4 v=66
215040 Off ch=1 n=a#4 v=0
215040 On ch=1 n=a#4 v=73
215381 Off ch=1 n=a#4 v=0
215381 On ch=1 n=d#4 v=61
215381 On ch=1 n=d#5 v=73
215723 Off ch=1 n=d#4 v=0
215723 Off ch=1 n=d#5 v=0
215723 On ch=1 n=d#5 v=68
216064 Off ch=1 n=d#5 v=0
216064 On ch=1 n=d#5 v=75
216405 Off ch=1 n=d#5 v=0
216405 On ch=1 n=a#4 v=64
216405 On ch=1 n=a#5 v=76
216747 Off ch=1 n=a#4 v=0
216747 Off ch=1 n=a#5 v=0
216747 On ch=1 n=a#5 v=71
217088 Off ch=1 n=a#5 v=0
217088 On ch=1 n=a#5 v=78
217429 Off ch=1 n=a#5 v=0
217429 On ch=1 n=d#5 v=66
217429 On ch=1 n=d#6 v=78
217771 Off ch=1 n=d#5 v=0
217771 Off ch=1 n=d#6 v=0
217771 On ch=1 n=a#5 v=68
217771 On ch=1 n=d#6 v=68
217771 On ch=1 n=a#6 v=80
218112 Par ch=1 c=64 v=127
218112 Off ch=1 n=a#5 v=0
218112 Off ch=1 n=d#6 v=0
218112 Off ch=1 n=a#6 v=0
218112 On ch=1 n=a#5 v=68
218112 On ch=1 n=d#6 v=68
218112 On ch=1 n=a#6 v=80
218307 Par ch=1 c=64 v=0
218483 Par ch=1 c=64 v=127
219136 Off ch=1 n=a#5 v=0
219136 Off ch=1 n=d#6 v=0
219136 Off ch=1 n=a#6 v=0
220032 On ch=1 n=d#2 v=88
220160 On ch=1 n=d#3 v=60
220160 On ch=1 n=a#3 v=72
222208 Par ch=1 c=64 v=127
222208 Off ch=1 n=d#2 v=0
222208 Off ch=1 n=d#3 v=0
222208 Off ch=1 n=a#3 v=0
222208 On ch=1 n=d#3 v=72
222208 On ch=1 n=a#3 v=72
222208 On ch=1 n=d#4 v=84
222403 Par ch=1 c=64 v=0
226304 Off ch=1 n=d#3 v=0
226304 Off ch=1 n=a#3 v=0
226304 Off ch=1 n=d#4 v=0
230404 Meta TrkEnd
TrkEnd
