MFile 1 3 1024
MTrk
0 TimeSig 1/4 24 8
0 KeySig 3 minor
0 Tempo 666666
1024 TimeSig 4/4 24 8
1024 Tempo 1000000
1229 Tempo 857142
1434 Tempo 1000000
1638 Tempo 750000
1843 Tempo 750000
2048 Tempo 1000000
2219 Tempo 750000
2389 Tempo 666666
3072 Tempo 1000000
3328 Tempo 750000
3584 Tempo 857142
3968 Tempo 750000
4096 Tempo 1000000
4352 Tempo 750000
5120 Tempo 857142
5325 Tempo 750000
5530 Tempo 666666
5734 Tempo 750000
5939 Tempo 750000
6144 Tempo 1000000
6315 Tempo 750000
6485 Tempo 666666
7168 Tempo 1000000
7424 Tempo 750000
7680 Tempo 857142
8064 Tempo 750000
8192 Tempo 1000000
8448 Tempo 750000
9216 Tempo 857142
9421 Tempo 750000
9626 Tempo 666666
10240 Tempo 857142
10445 Tempo 750000
11469 Tempo 666666
13312 Tempo 857142
13517 Tempo 750000
13722 Tempo 666666
14336 Tempo 857142
14541 Tempo 1000000
14950 Tempo 1200000
15155 Tempo 1000000
15360 Tempo 1000000
15616 Tempo 750000
15872 Tempo 857142
16256 Tempo 750000
16384 Tempo 1000000
16640 Tempo 857142
17408 Tempo 1000000
17613 Tempo 857142
17818 Tempo 1000000
18022 Tempo 750000
18227 Tempo 750000
18432 Tempo 1000000
18603 Tempo 750000
18773 Tempo 666666
19456 Tempo 1000000
19712 Tempo 750000
19968 Tempo 857142
20352 Tempo 750000
20480 Tempo 1000000
20736 Tempo 750000
21504 Tempo 857142
21709 Tempo 750000
21914 Tempo 666666
22118 Tempo 750000
22323 Tempo 750000
22528 Tempo 1000000
22699 Tempo 750000
22869 Tempo 666666
23552 Tempo 1000000
23808 Tempo 750000
24064 Tempo 857142
24448 Tempo 750000
24576 Tempo 1000000
24832 Tempo 750000
25600 Tempo 857142
25805 Tempo 750000
26010 Tempo 666666
26624 Tempo 857142
26829 Tempo 750000
27853 Tempo 666666
29696 Tempo 857142
29901 Tempo 750000
30106 Tempo 666666
30720 Tempo 857142
30925 Tempo 1000000
31130 Tempo 1200000
31334 Tempo 1500000
31949 Tempo 1000000
33024 Tempo 857142
33280 Tempo 1000000
33536 Tempo 1500000
33792 Tempo 1000000
33997 Tempo 857142
34406 Tempo 750000
34611 Tempo 750000
34816 Tempo 1000000
34987 Tempo 750000
35328 Tempo 857142
35669 Tempo 1500000
36096 Tempo 750000
36864 Tempo 1000000
37120 Tempo 750000
37632 Tempo 1500000
37888 Tempo 1000000
38093 Tempo 750000
38912 Tempo 857142
39322 Tempo 666666
40141 Tempo 600000
41574 Tempo 857142
41779 Tempo 750000
41984 Tempo 1000000
42189 Tempo 857142
42598 Tempo 750000
42803 Tempo 750000
43008 Tempo 1000000
43179 Tempo 750000
43520 Tempo 857142
43861 Tempo 1500000
44288 Tempo 750000
45056 Tempo 1000000
45312 Tempo 750000
45824 Tempo 1500000
46080 Tempo 1000000
46285 Tempo 750000
47104 Tempo 857142
47514 Tempo 666666
48333 Tempo 600000
49766 Tempo 857142
49971 Tempo 750000
50176 Tempo 1000000
50381 Tempo 666666
51200 Tempo 600000
52224 Tempo 750000
52429 Tempo 545454
54272 Tempo 750000
54477 Tempo 500000
56320 Tempo 750000
56525 Tempo 500000
58368 Tempo 857142
58573 Tempo 545454
59392 Tempo 750000
59597 Tempo 600000
60416 Tempo 666666
62464 Tempo 750000
63488 Tempo 600000
64512 Tempo 545454
65536 Tempo 750000
66150 Tempo 857142
66355 Tempo 1000000
66560 Tempo 750000
66765 Tempo 600000
67584 Tempo 857142
67755 Tempo 600000
68608 Tempo 1000000
68864 Tempo 750000
69120 Tempo 857142
69504 Tempo 750000
69632 Tempo 1000000
69888 Tempo 750000
70656 Tempo 750000
70861 Tempo 600000
71680 Tempo 857142
71851 Tempo 600000
72704 Tempo 1000000
72960 Tempo 750000
73216 Tempo 857142
73600 Tempo 750000
73728 Tempo 1000000
73984 Tempo 750000
74752 Tempo 857142
74957 Tempo 750000
75162 Tempo 600000
75776 Tempo 666666
75981 Tempo 545454
76390 Tempo 600000
76800 Tempo 750000
77005 Tempo 666666
78438 Tempo 750000
78848 Tempo 857142
79053 Tempo 750000
79258 Tempo 666666
79872 Tempo 857142
80077 Tempo 1000000
80486 Tempo 1200000
80896 Tempo 1500000
81152 Tempo 857142
81920 Tempo 1200000
82176 Tempo 1000000
82944 Tempo 857142
83149 Tempo 750000
83354 Tempo 666666
83968 Tempo 857142
84173 Tempo 750000
85197 Tempo 666666
87040 Tempo 857142
87245 Tempo 750000
87450 Tempo 666666
88064 Tempo 857142
88269 Tempo 1000000
88678 Tempo 1200000
88883 Tempo 1500000
89344 Tempo 1000000
89600 Tempo 857142
91136 Tempo 857142
91341 Tempo 750000
91546 Tempo 666666
92160 Tempo 857142
92365 Tempo 1000000
92774 Tempo 1200000
93184 Tempo 1500000
93440 Tempo 857142
94208 Tempo 1200000
94464 Tempo 1000000
95232 Tempo 1200000
95437 Tempo 1000000
95642 Tempo 857142
96256 Tempo 1000000
96461 Tempo 1200000
96870 Tempo 1500000
97280 Tempo 1500000
97536 Tempo 1000000
98304 Tempo 1200000
98560 Tempo 1000000
99328 Tempo 1500000
99584 Tempo 1000000
101376 Tempo 1090909
102400 Tempo 1200000
102656 Tempo 1500000
102912 Tempo 2000000
103168 Tempo 2727272
103424 Tempo 1000000
103680 Tempo 2000000
107520 Tempo 352941
111617 Meta TrkEnd
TrkEnd
MTrk
0 Meta TrkName "Instrument  1"
0 PrCh ch=1 p=1
0 Par ch=1 c=64 v=0
1024 Par ch=1 c=64 v=0
1024 On ch=1 n=f#5 v=57
1229 On ch=1 n=g#5 v=55
1434 Off ch=1 n=f#5 v=0
1434 Off ch=1 n=g#5 v=0
1434 On ch=1 n=c#6 v=57
1638 Off ch=1 n=c#6 v=0
1638 On ch=1 n=f#5 v=51
1843 Off ch=1 n=f#5 v=0
1843 On ch=1 n=b5 v=49
2048 Off ch=1 n=b5 v=0
2048 On ch=1 n=a5 v=52
2219 On ch=1 n=e5 v=50
2389 Off ch=1 n=e5 v=0
2389 On ch=1 n=d#5 v=52
2560 Off ch=1 n=d#5 v=0
2560 Off ch=1 n=a5 v=0
2560 On ch=1 n=g#5 v=53
2731 Off ch=1 n=g#5 v=0
2731 On ch=1 n=d5 v=54
2901 Off ch=1 n=d5 v=0
2901 On ch=1 n=f#5 v=56
3072 Off ch=1 n=f#5 v=0
3072 On ch=1 n=c#5 v=64
5120 Par ch=1 c=64 v=0
5120 Par ch=1 c=64 v=0
5120 Off ch=1 n=c#5 v=0
5120 On ch=1 n=b5 v=57
5325 On ch=1 n=c#6 v=55
5530 Off ch=1 n=b5 v=0
5530 Off ch=1 n=c#6 v=0
5530 On ch=1 n=f#6 v=57
5734 Off ch=1 n=f#6 v=0
5734 On ch=1 n=b5 v=51
5939 Off ch=1 n=b5 v=0
5939 On ch=1 n=e6 v=49
6144 Off ch=1 n=e6 v=0
6144 On ch=1 n=d6 v=52
6315 On ch=1 n=a5 v=50
6485 Off ch=1 n=a5 v=0
6485 On ch=1 n=g#5 v=52
6656 Off ch=1 n=g#5 v=0
6656 Off ch=1 n=d6 v=0
6656 On ch=1 n=c#6 v=53
6827 Off ch=1 n=c#6 v=0
6827 On ch=1 n=g5 v=54
6997 Off ch=1 n=g5 v=0
6997 On ch=1 n=b5 v=56
7168 Off ch=1 n=b5 v=0
7168 On ch=1 n=f#5 v=64
9216 Par ch=1 c=64 v=0
9216 Off ch=1 n=f#5 v=0
9216 On ch=1 n=c#6 v=53
9421 On ch=1 n=d6 v=55
9626 Off ch=1 n=c#6 v=0
9626 Off ch=1 n=d6 v=0
9626 On ch=1 n=g#6 v=57
9830 Off ch=1 n=g#6 v=0
9830 On ch=1 n=d6 v=51
10035 Off ch=1 n=d6 v=0
10035 On ch=1 n=f#6 v=49
10240 Off ch=1 n=f#6 v=0
10240 On ch=1 n=f6 v=52
10445 On ch=1 n=g#5 v=46
10650 Off ch=1 n=g#5 v=0
10650 On ch=1 n=a5 v=48
10854 Off ch=1 n=a5 v=0
10854 Off ch=1 n=f6 v=0
10854 On ch=1 n=c#6 v=50
11059 Off ch=1 n=c#6 v=0
11059 On ch=1 n=b5 v=52
11264 Off ch=1 n=b5 v=0
11264 On ch=1 n=a5 v=52
11469 On ch=1 n=b5 v=54
11674 Off ch=1 n=b5 v=0
11674 On ch=1 n=e6 v=59
11878 Off ch=1 n=a5 v=0
11878 Off ch=1 n=e6 v=0
11878 On ch=1 n=a5 v=53
12083 Off ch=1 n=a5 v=0
12083 On ch=1 n=d6 v=52
12288 Off ch=1 n=d6 v=0
12288 On ch=1 n=c#6 v=54
12493 On ch=1 n=f#5 v=51
12698 Off ch=1 n=f#5 v=0
12698 On ch=1 n=g#5 v=53
12902 Off ch=1 n=g#5 v=0
12902 Off ch=1 n=c#6 v=0
12902 On ch=1 n=b5 v=48
13107 Off ch=1 n=b5 v=0
13107 On ch=1 n=a5 v=47
13312 Par ch=1 c=64 v=0
13312 Off ch=1 n=a5 v=0
13312 On ch=1 n=g5 v=53
13517 On ch=1 n=a5 v=55
13722 Off ch=1 n=g5 v=0
13722 Off ch=1 n=a5 v=0
13722 On ch=1 n=d6 v=57
13926 Off ch=1 n=d6 v=0
13926 On ch=1 n=g5 v=51
14131 Off ch=1 n=g5 v=0
14131 On ch=1 n=c#6 v=49
14336 Off ch=1 n=c#6 v=0
14336 On ch=1 n=b5 v=52
14541 On ch=1 n=d5 v=46
14746 Off ch=1 n=d5 v=0
14746 Off ch=1 n=b5 v=0
14746 On ch=1 n=e5 v=48
14950 Off ch=1 n=e5 v=0
14950 On ch=1 n=a5 v=50
15155 Off ch=1 n=a5 v=0
15155 On ch=1 n=g5 v=52
15360 Off ch=1 n=g5 v=0
15360 On ch=1 n=f#5 v=52
16384 Off ch=1 n=f#5 v=0
16384 On ch=1 n=f5 v=42
17408 Par ch=1 c=64 v=0
17408 Off ch=1 n=f5 v=0
17408 On ch=1 n=f#5 v=66
17613 On ch=1 n=g#5 v=64
17818 Off ch=1 n=f#5 v=0
17818 Off ch=1 n=g#5 v=0
17818 On ch=1 n=c#6 v=66
18022 Off ch=1 n=c#6 v=0
18022 On ch=1 n=f#5 v=60
18227 Off ch=1 n=f#5 v=0
18227 On ch=1 n=b5 v=58
18432 Off ch=1 n=b5 v=0
18432 On ch=1 n=a5 v=61
18603 On ch=1 n=e5 v=59
18773 Off ch=1 n=e5 v=0
18773 Off ch=1 n=a5 v=0
18773 On ch=1 n=d#5 v=61
18944 Off ch=1 n=d#5 v=0
18944 On ch=1 n=g#5 v=62
19115 Off ch=1 n=g#5 v=0
19115 On ch=1 n=d5 v=63
19285 Off ch=1 n=d5 v=0
19285 On ch=1 n=f#5 v=65
19456 Off ch=1 n=f#5 v=0
19456 On ch=1 n=c#5 v=73
21504 Par ch=1 c=64 v=0
21504 Par ch=1 c=64 v=0
21504 Off ch=1 n=c#5 v=0
21504 On ch=1 n=b5 v=66
21709 On ch=1 n=c#6 v=64
21914 Off ch=1 n=b5 v=0
21914 Off ch=1 n=c#6 v=0
21914 On ch=1 n=f#6 v=66
22118 Off ch=1 n=f#6 v=0
22118 On ch=1 n=b5 v=60
22323 Off ch=1 n=b5 v=0
22323 On ch=1 n=e6 v=58
22528 Off ch=1 n=e6 v=0
22528 On ch=1 n=d6 v=61
22699 On ch=1 n=a5 v=59
22869 Off ch=1 n=a5 v=0
22869 Off ch=1 n=d6 v=0
22869 On ch=1 n=g#5 v=61
23040 Off ch=1 n=g#5 v=0
23040 On ch=1 n=c#6 v=62
23211 Off ch=1 n=c#6 v=0
23211 On ch=1 n=g5 v=63
23381 Off ch=1 n=g5 v=0
23381 On ch=1 n=b5 v=65
23552 Off ch=1 n=b5 v=0
23552 On ch=1 n=f#5 v=73
25600 Par ch=1 c=64 v=0
25600 Par ch=1 c=64 v=0
25600 Off ch=1 n=f#5 v=0
25600 On ch=1 n=f#5 v=55
25805 On ch=1 n=g#5 v=51
26010 Off ch=1 n=f#5 v=0
26010 Off ch=1 n=g#5 v=0
26010 On ch=1 n=c#6 v=53
26214 Off ch=1 n=c#6 v=0
26214 On ch=1 n=f#5 v=49
26419 Off ch=1 n=f#5 v=0
26419 On ch=1 n=b5 v=49
26624 Off ch=1 n=b5 v=0
26624 On ch=1 n=a5 v=51
26829 On ch=1 n=c#5 v=48
27034 Off ch=1 n=c#5 v=0
27034 Off ch=1 n=a5 v=0
27034 On ch=1 n=d#5 v=50
27238 Off ch=1 n=d#5 v=0
27238 On ch=1 n=g#5 v=52
27443 Off ch=1 n=g#5 v=0
27443 On ch=1 n=f#5 v=53
27648 Off ch=1 n=f#5 v=0
27648 On ch=1 n=e5 v=53
27853 On ch=1 n=f#5 v=51
28058 Off ch=1 n=e5 v=0
28058 Off ch=1 n=f#5 v=0
28058 On ch=1 n=b5 v=56
28262 Off ch=1 n=b5 v=0
28262 On ch=1 n=e5 v=52
28467 Off ch=1 n=e5 v=0
28467 On ch=1 n=a5 v=52
28672 Off ch=1 n=a5 v=0
28672 On ch=1 n=g#5 v=54
28877 On ch=1 n=c#5 v=52
29082 Off ch=1 n=c#5 v=0
29082 Off ch=1 n=g#5 v=0
29082 On ch=1 n=d#5 v=54
29286 Off ch=1 n=d#5 v=0
29286 On ch=1 n=f#5 v=51
29491 Off ch=1 n=f#5 v=0
29491 On ch=1 n=e5 v=51
29696 Par ch=1 c=64 v=0
29696 Par ch=1 c=64 v=0
29696 Off ch=1 n=e5 v=0
29696 On ch=1 n=d5 v=54
29901 On ch=1 n=e5 v=56
30106 Off ch=1 n=d5 v=0
30106 Off ch=1 n=e5 v=0
30106 On ch=1 n=a5 v=58
30310 Off ch=1 n=a5 v=0
30310 On ch=1 n=d5 v=55
30515 Off ch=1 n=d5 v=0
30515 On ch=1 n=g#5 v=55
30720 Off ch=1 n=g#5 v=0
30720 On ch=1 n=f#5 v=58
30925 On ch=1 n=a4 v=55
31130 Off ch=1 n=a4 v=0
31130 Off ch=1 n=f#5 v=0
31130 On ch=1 n=c5 v=57
31334 Off ch=1 n=c5 v=0
31334 On ch=1 n=e5 v=60
31539 Off ch=1 n=e5 v=0
31539 On ch=1 n=d5 v=62
31744 Off ch=1 n=d5 v=0
31744 On ch=1 n=c#5 v=64
33792 Par ch=1 c=64 v=0
33792 Off ch=1 n=c#5 v=0
33792 On ch=1 n=c#5 v=51
33997 On ch=1 n=a5 v=49
34202 Off ch=1 n=c#5 v=0
34202 Off ch=1 n=a5 v=0
34202 On ch=1 n=e6 v=51
34406 Off ch=1 n=e6 v=0
34406 On ch=1 n=a5 v=50
34611 Off ch=1 n=a5 v=0
34611 On ch=1 n=d6 v=48
34816 Off ch=1 n=d6 v=0
34816 On ch=1 n=c#6 v=51
34987 Off ch=1 n=c#6 v=0
34987 On ch=1 n=e5 v=49
35157 Off ch=1 n=e5 v=0
35157 On ch=1 n=f#5 v=51
35328 Off ch=1 n=f#5 v=0
35328 On ch=1 n=a5 v=52
35499 Off ch=1 n=a5 v=0
35499 On ch=1 n=g5 v=53
35669 Off ch=1 n=g5 v=0
35669 On ch=1 n=f#5 v=55
35740 On ch=1 n=f#4 v=42
35740 On ch=1 n=d#5 v=42
35840 Off ch=1 n=f#5 v=0
35840 On ch=1 n=b5 v=58
37888 Par ch=1 c=64 v=0
37888 Off ch=1 n=f#4 v=0
37888 Off ch=1 n=d#5 v=0
37888 Off ch=1 n=b5 v=0
37888 On ch=1 n=b4 v=50
38093 On ch=1 n=e5 v=49
38298 Off ch=1 n=e5 v=0
38298 On ch=1 n=c6 v=56
38502 On ch=1 n=e5 v=45
38707 Off ch=1 n=e5 v=0
38707 Off ch=1 n=c6 v=0
38707 On ch=1 n=b5 v=46
38912 Off ch=1 n=b4 v=0
38912 Off ch=1 n=b5 v=0
38912 On ch=1 n=a4 v=54
39117 On ch=1 n=d#5 v=53
39322 Off ch=1 n=d#5 v=0
39322 On ch=1 n=a#5 v=60
39526 On ch=1 n=d#5 v=49
39731 Off ch=1 n=d#5 v=0
39731 Off ch=1 n=a#5 v=0
39731 On ch=1 n=a5 v=49
39936 Off ch=1 n=a5 v=0
39936 Off ch=1 n=a4 v=0
39936 On ch=1 n=g4 v=58
40141 On ch=1 n=b4 v=57
40346 Off ch=1 n=b4 v=0
40346 On ch=1 n=g5 v=64
40550 On ch=1 n=b4 v=52
40755 Off ch=1 n=b4 v=0
40755 Off ch=1 n=g5 v=0
40755 On ch=1 n=f#5 v=53
40960 Off ch=1 n=f#5 v=0
40960 Off ch=1 n=g4 v=0
40960 On ch=1 n=g4 v=62
41165 On ch=1 n=b4 v=61
41370 Off ch=1 n=b4 v=0
41370 On ch=1 n=d#5 v=69
41574 On ch=1 n=b4 v=56
41779 Off ch=1 n=b4 v=0
41779 Off ch=1 n=d#5 v=0
41779 On ch=1 n=e5 v=56
41984 Par ch=1 c=64 v=0
41984 Par ch=1 c=64 v=0
41984 Off ch=1 n=e5 v=0
41984 Off ch=1 n=g4 v=0
41984 On ch=1 n=e5 v=68
42189 On ch=1 n=c6 v=66
42394 Off ch=1 n=e5 v=0
42394 Off ch=1 n=c6 v=0
42394 On ch=1 n=g6 v=68
42598 Off ch=1 n=g6 v=0
42598 On ch=1 n=c6 v=67
42803 Off ch=1 n=c6 v=0
42803 On ch=1 n=f6 v=65
43008 Off ch=1 n=f6 v=0
43008 On ch=1 n=e6 v=68
43179 Off ch=1 n=e6 v=0
43179 On ch=1 n=g5 v=66
43349 Off ch=1 n=g5 v=0
43349 On ch=1 n=a5 v=68
43520 Off ch=1 n=a5 v=0
43520 On ch=1 n=c6 v=69
43691 Off ch=1 n=c6 v=0
43691 On ch=1 n=a#5 v=70
43861 Off ch=1 n=a#5 v=0
43861 On ch=1 n=a5 v=72
43932 On ch=1 n=a4 v=59
43932 On ch=1 n=f#5 v=59
44032 Off ch=1 n=a5 v=0
44032 On ch=1 n=d6 v=75
46080 Par ch=1 c=64 v=0
46080 Par ch=1 c=64 v=0
46080 Off ch=1 n=a4 v=0
46080 Off ch=1 n=f#5 v=0
46080 Off ch=1 n=d6 v=0
46080 On ch=1 n=d5 v=64
46285 On ch=1 n=g5 v=63
46490 Off ch=1 n=g5 v=0
46490 On ch=1 n=d#6 v=70
46694 On ch=1 n=g5 v=58
46899 Off ch=1 n=g5 v=0
46899 Off ch=1 n=d#6 v=0
46899 On ch=1 n=d6 v=59
47104 Off ch=1 n=d5 v=0
47104 Off ch=1 n=d6 v=0
47104 On ch=1 n=c5 v=67
47309 On ch=1 n=f#5 v=66
47514 Off ch=1 n=f#5 v=0
47514 On ch=1 n=c#6 v=73
47718 On ch=1 n=f#5 v=61
47923 Off ch=1 n=f#5 v=0
47923 Off ch=1 n=c#6 v=0
47923 On ch=1 n=c6 v=61
48128 Off ch=1 n=c6 v=0
48128 Off ch=1 n=c5 v=0
48128 On ch=1 n=a#4 v=70
48333 On ch=1 n=d5 v=68
48538 Off ch=1 n=d5 v=0
48538 On ch=1 n=a#5 v=76
48742 On ch=1 n=d5 v=63
48947 Off ch=1 n=d5 v=0
48947 Off ch=1 n=a#5 v=0
48947 On ch=1 n=a5 v=64
49152 Off ch=1 n=a5 v=0
49152 Off ch=1 n=a#4 v=0
49152 On ch=1 n=a#4 v=72
49357 On ch=1 n=e5 v=71
49562 Off ch=1 n=e5 v=0
49562 On ch=1 n=f#5 v=79
49766 On ch=1 n=e5 v=66
49971 Off ch=1 n=e5 v=0
49971 Off ch=1 n=f#5 v=0
49971 On ch=1 n=g5 v=66
50176 Par ch=1 c=64 v=0
50176 Par ch=1 c=64 v=0
50176 Par ch=1 c=64 v=0
50176 Off ch=1 n=g5 v=0
50176 Off ch=1 n=a#4 v=0
50176 On ch=1 n=f#5 v=77
50381 On ch=1 n=d6 v=75
50586 Off ch=1 n=d6 v=0
50586 On ch=1 n=a6 v=83
50790 On ch=1 n=d6 v=68
50995 Off ch=1 n=d6 v=0
50995 Off ch=1 n=a6 v=0
50995 On ch=1 n=g#6 v=69
51200 Off ch=1 n=f#5 v=0
51200 Off ch=1 n=g#6 v=0
51200 On ch=1 n=a5 v=77
51405 On ch=1 n=d6 v=76
51610 Off ch=1 n=d6 v=0
51610 On ch=1 n=g6 v=82
51814 On ch=1 n=d6 v=69
52019 Off ch=1 n=d6 v=0
52019 Off ch=1 n=g6 v=0
52019 On ch=1 n=f#6 v=67
52224 Off ch=1 n=f#6 v=0
52224 Off ch=1 n=a5 v=0
52224 On ch=1 n=a#5 v=78
52429 On ch=1 n=d6 v=74
52634 Off ch=1 n=d6 v=0
52634 On ch=1 n=f#6 v=82
52838 On ch=1 n=d6 v=67
53043 Off ch=1 n=d6 v=0
53043 Off ch=1 n=f#6 v=0
53043 On ch=1 n=f6 v=68
53248 Off ch=1 n=f6 v=0
53248 Off ch=1 n=a#5 v=0
53248 On ch=1 n=e5 v=74
53453 On ch=1 n=g5 v=73
53658 Off ch=1 n=g5 v=0
53658 On ch=1 n=e6 v=81
53862 On ch=1 n=g5 v=68
54067 Off ch=1 n=g5 v=0
54067 Off ch=1 n=e6 v=0
54067 On ch=1 n=c#6 v=66
54272 Par ch=1 c=64 v=0
54272 Par ch=1 c=64 v=0
54272 Par ch=1 c=64 v=0
54272 Par ch=1 c=64 v=0
54272 Off ch=1 n=c#6 v=0
54272 Off ch=1 n=e5 v=0
54272 On ch=1 n=c5 v=77
54477 On ch=1 n=f#5 v=75
54682 Off ch=1 n=f#5 v=0
54682 On ch=1 n=d#6 v=83
54886 On ch=1 n=f#5 v=68
55091 Off ch=1 n=f#5 v=0
55091 Off ch=1 n=d#6 v=0
55091 On ch=1 n=f#5 v=69
55091 On ch=1 n=d6 v=69
55296 Off ch=1 n=c5 v=0
55296 Off ch=1 n=f#5 v=0
55296 Off ch=1 n=d6 v=0
55296 On ch=1 n=c5 v=77
55501 On ch=1 n=f#5 v=76
55706 Off ch=1 n=f#5 v=0
55706 On ch=1 n=c#6 v=82
55910 On ch=1 n=f#5 v=69
56115 Off ch=1 n=f#5 v=0
56115 Off ch=1 n=c#6 v=0
56115 On ch=1 n=c6 v=67
56320 Off ch=1 n=c6 v=0
56320 Off ch=1 n=c5 v=0
56320 On ch=1 n=a#4 v=78
56525 On ch=1 n=g5 v=74
56730 Off ch=1 n=g5 v=0
56730 On ch=1 n=c6 v=82
56934 On ch=1 n=g5 v=67
57139 Off ch=1 n=g5 v=0
57139 Off ch=1 n=c6 v=0
57139 On ch=1 n=a#5 v=68
57344 Off ch=1 n=a#5 v=0
57344 Off ch=1 n=a#4 v=0
57344 On ch=1 n=g4 v=74
57549 On ch=1 n=d#5 v=73
57754 Off ch=1 n=d#5 v=0
57754 On ch=1 n=a5 v=81
57958 On ch=1 n=d#5 v=68
58163 Off ch=1 n=d#5 v=0
58163 Off ch=1 n=a5 v=0
58163 On ch=1 n=d#5 v=66
58163 On ch=1 n=g5 v=66
58368 Par ch=1 c=64 v=0
58368 Par ch=1 c=64 v=0
58368 Par ch=1 c=64 v=0
58368 Par ch=1 c=64 v=0
58368 Par ch=1 c=64 v=0
58368 Off ch=1 n=d#5 v=0
58368 Off ch=1 n=g5 v=0
58368 Off ch=1 n=g4 v=0
58368 On ch=1 n=f#4 v=77
58573 On ch=1 n=d5 v=75
58778 On ch=1 n=a5 v=81
58808 Off ch=1 n=d5 v=0
58982 On ch=1 n=d5 v=67
59187 On ch=1 n=g#5 v=67
59217 Off ch=1 n=d5 v=0
59217 Off ch=1 n=a5 v=0
59392 Off ch=1 n=g#5 v=0
59392 On ch=1 n=a4 v=73
59442 Off ch=1 n=f#4 v=0
59597 On ch=1 n=d5 v=72
59802 On ch=1 n=g5 v=76
59832 Off ch=1 n=d5 v=0
60006 On ch=1 n=d5 v=65
60211 On ch=1 n=f#5 v=62
60241 Off ch=1 n=d5 v=0
60241 Off ch=1 n=g5 v=0
60416 Off ch=1 n=f#5 v=0
60416 On ch=1 n=a#4 v=77
60466 Off ch=1 n=a4 v=0
60621 On ch=1 n=d5 v=66
60826 On ch=1 n=f#5 v=71
60856 Off ch=1 n=d5 v=0
61030 On ch=1 n=d5 v=59
61235 On ch=1 n=f5 v=59
61265 Off ch=1 n=d5 v=0
61265 Off ch=1 n=f#5 v=0
61440 Off ch=1 n=f5 v=0
61440 On ch=1 n=e4 v=63
61490 Off ch=1 n=a#4 v=0
61645 On ch=1 n=g4 v=61
61850 On ch=1 n=e5 v=66
61880 Off ch=1 n=g4 v=0
62054 On ch=1 n=g4 v=56
62259 On ch=1 n=c#5 v=54
62289 Off ch=1 n=g4 v=0
62289 Off ch=1 n=e5 v=0
62464 Par ch=1 c=64 v=0
62464 Par ch=1 c=64 v=0
62464 Par ch=1 c=64 v=0
62464 Par ch=1 c=64 v=0
62464 Par ch=1 c=64 v=0
62464 Par ch=1 c=64 v=0
62464 Off ch=1 n=c#5 v=0
62464 On ch=1 n=f#4 v=60
62514 Off ch=1 n=e4 v=0
62669 On ch=1 n=c5 v=59
62874 Off ch=1 n=c5 v=0
62874 On ch=1 n=c#5 v=66
63078 On ch=1 n=c5 v=55
63283 Off ch=1 n=c5 v=0
63283 Off ch=1 n=c#5 v=0
63283 On ch=1 n=d5 v=57
63488 Off ch=1 n=f#4 v=0
63488 Off ch=1 n=d5 v=0
63488 On ch=1 n=f#4 v=65
63693 On ch=1 n=c5 v=65
63898 Off ch=1 n=c5 v=0
63898 On ch=1 n=f5 v=71
64102 On ch=1 n=c5 v=60
64307 Off ch=1 n=c5 v=0
64307 Off ch=1 n=f5 v=0
64307 On ch=1 n=f#5 v=59
64512 Off ch=1 n=f#5 v=0
64512 Off ch=1 n=f#4 v=0
64512 On ch=1 n=c5 v=70
64717 On ch=1 n=f#5 v=67
64922 Off ch=1 n=f#5 v=0
64922 On ch=1 n=g#5 v=75
65126 On ch=1 n=f#5 v=62
65331 Off ch=1 n=f#5 v=0
65331 Off ch=1 n=g#5 v=0
65331 On ch=1 n=a5 v=64
65536 Off ch=1 n=a5 v=0
65536 Off ch=1 n=c5 v=0
65536 On ch=1 n=c5 v=70
65741 On ch=1 n=f#5 v=71
65946 Off ch=1 n=f#5 v=0
65946 On ch=1 n=b5 v=79
66150 On ch=1 n=f#5 v=67
66355 Off ch=1 n=f#5 v=0
66355 Off ch=1 n=b5 v=0
66355 On ch=1 n=c6 v=75
66560 Par ch=1 c=64 v=0
66560 Par ch=1 c=64 v=0
66560 Off ch=1 n=c6 v=0
66560 Off ch=1 n=c5 v=0
66560 On ch=1 n=f#5 v=78
66765 On ch=1 n=g#5 v=76
66970 Off ch=1 n=f#5 v=0
66970 Off ch=1 n=g#5 v=0
66970 On ch=1 n=c#6 v=78
67174 Off ch=1 n=c#6 v=0
67174 On ch=1 n=f#5 v=72
67379 Off ch=1 n=f#5 v=0
67379 On ch=1 n=b5 v=70
67584 Off ch=1 n=b5 v=0
67584 On ch=1 n=a5 v=73
67755 On ch=1 n=e5 v=71
67925 Off ch=1 n=e5 v=0
67925 Off ch=1 n=a5 v=0
67925 On ch=1 n=d#5 v=73
68096 Off ch=1 n=d#5 v=0
68096 On ch=1 n=g#5 v=74
68267 Off ch=1 n=g#5 v=0
68267 On ch=1 n=d5 v=75
68437 Off ch=1 n=d5 v=0
68437 On ch=1 n=f#5 v=77
68608 Off ch=1 n=f#5 v=0
68608 On ch=1 n=c#5 v=85
70656 Par ch=1 c=64 v=0
70656 Par ch=1 c=64 v=0
70656 Par ch=1 c=64 v=0
70656 Off ch=1 n=c#5 v=0
70656 On ch=1 n=b5 v=78
70861 On ch=1 n=c#6 v=76
71066 Off ch=1 n=b5 v=0
71066 Off ch=1 n=c#6 v=0
71066 On ch=1 n=f#6 v=78
71270 Off ch=1 n=f#6 v=0
71270 On ch=1 n=b5 v=72
71475 Off ch=1 n=b5 v=0
71475 On ch=1 n=e6 v=70
71680 Off ch=1 n=e6 v=0
71680 On ch=1 n=d6 v=73
71851 On ch=1 n=a5 v=71
72021 Off ch=1 n=a5 v=0
72021 Off ch=1 n=d6 v=0
72021 On ch=1 n=g#5 v=73
72192 Off ch=1 n=g#5 v=0
72192 On ch=1 n=c#6 v=74
72363 Off ch=1 n=c#6 v=0
72363 On ch=1 n=g5 v=75
72533 Off ch=1 n=g5 v=0
72533 On ch=1 n=b5 v=77
72704 Off ch=1 n=b5 v=0
72704 On ch=1 n=f#5 v=85
74752 Par ch=1 c=64 v=0
74752 Par ch=1 c=64 v=0
74752 Off ch=1 n=f#5 v=0
74752 On ch=1 n=e6 v=71
74957 On ch=1 n=f#6 v=73
75162 Off ch=1 n=f#6 v=0
75162 On ch=1 n=b6 v=75
75366 Off ch=1 n=e6 v=0
75366 Off ch=1 n=b6 v=0
75366 On ch=1 n=e6 v=69
75571 Off ch=1 n=e6 v=0
75571 On ch=1 n=a6 v=67
75776 Off ch=1 n=a6 v=0
75776 On ch=1 n=g6 v=70
75981 Off ch=1 n=g6 v=0
75981 On ch=1 n=b5 v=64
76186 Off ch=1 n=b5 v=0
76186 On ch=1 n=c#6 v=66
76390 Off ch=1 n=c#6 v=0
76390 On ch=1 n=f#6 v=68
76595 Off ch=1 n=f#6 v=0
76595 On ch=1 n=e6 v=70
76800 Off ch=1 n=e6 v=0
76800 On ch=1 n=b5 v=70
77005 On ch=1 n=c#6 v=72
77210 Off ch=1 n=b5 v=0
77210 Off ch=1 n=c#6 v=0
77210 On ch=1 n=f#6 v=77
77414 Off ch=1 n=f#6 v=0
77414 On ch=1 n=b5 v=71
77619 Off ch=1 n=b5 v=0
77619 On ch=1 n=e6 v=70
77824 Off ch=1 n=e6 v=0
77824 On ch=1 n=d6 v=72
78029 Off ch=1 n=d6 v=0
78029 On ch=1 n=f#5 v=69
78234 Off ch=1 n=f#5 v=0
78234 On ch=1 n=g#5 v=71
78438 Off ch=1 n=g#5 v=0
78438 On ch=1 n=c#6 v=66
78643 Off ch=1 n=c#6 v=0
78643 On ch=1 n=b5 v=65
78848 Par ch=1 c=64 v=0
78848 Par ch=1 c=64 v=0
78848 Off ch=1 n=b5 v=0
78848 On ch=1 n=b4 v=71
79053 On ch=1 n=g5 v=73
79258 Off ch=1 n=g5 v=0
79258 On ch=1 n=d6 v=75
79462 Off ch=1 n=b4 v=0
79462 Off ch=1 n=d6 v=0
79462 On ch=1 n=g5 v=69
79667 Off ch=1 n=g5 v=0
79667 On ch=1 n=c#6 v=67
79872 Off ch=1 n=c#6 v=0
79872 On ch=1 n=b5 v=70
80077 On ch=1 n=d5 v=64
80282 Off ch=1 n=d5 v=0
80282 Off ch=1 n=b5 v=0
80282 On ch=1 n=f5 v=66
80486 Off ch=1 n=f5 v=0
80486 On ch=1 n=a5 v=68
80691 Off ch=1 n=a5 v=0
80691 On ch=1 n=g#5 v=70
80896 Off ch=1 n=g#5 v=0
80896 On ch=1 n=a4 v=51
80896 On ch=1 n=f#5 v=66
82944 Par ch=1 c=64 v=0
82944 Off ch=1 n=a4 v=0
82944 Off ch=1 n=f#5 v=0
82944 On ch=1 n=a#5 v=48
83149 On ch=1 n=c#6 v=55
83354 Off ch=1 n=c#6 v=0
83354 On ch=1 n=a#6 v=57
83558 Off ch=1 n=a#5 v=0
83558 Off ch=1 n=a#6 v=0
83558 On ch=1 n=c#6 v=46
83763 Off ch=1 n=c#6 v=0
83763 On ch=1 n=g6 v=49
83968 Off ch=1 n=g6 v=0
83968 On ch=1 n=f#6 v=52
84173 Off ch=1 n=f#6 v=0
84173 On ch=1 n=a#5 v=41
84378 Off ch=1 n=a#5 v=0
84378 On ch=1 n=b5 v=43
84582 Off ch=1 n=b5 v=0
84582 On ch=1 n=c#6 v=45
84787 Off ch=1 n=c#6 v=0
84787 On ch=1 n=f#5 v=47
84992 Off ch=1 n=f#5 v=0
84992 On ch=1 n=b5 v=47
85197 Off ch=1 n=b5 v=0
85197 On ch=1 n=d6 v=49
85402 Off ch=1 n=d6 v=0
85402 On ch=1 n=b6 v=59
85606 Off ch=1 n=b6 v=0
85606 On ch=1 n=d6 v=48
85811 Off ch=1 n=d6 v=0
85811 On ch=1 n=a6 v=52
86016 Off ch=1 n=a6 v=0
86016 On ch=1 n=g6 v=54
86221 Off ch=1 n=g6 v=0
86221 On ch=1 n=b5 v=46
86426 Off ch=1 n=b5 v=0
86426 On ch=1 n=c#6 v=48
86630 Off ch=1 n=c#6 v=0
86630 On ch=1 n=d6 v=48
86835 Off ch=1 n=d6 v=0
86835 On ch=1 n=a5 v=47
87040 Par ch=1 c=64 v=0
87040 Off ch=1 n=a5 v=0
87040 On ch=1 n=g5 v=53
87245 On ch=1 n=e6 v=55
87450 Off ch=1 n=e6 v=0
87450 On ch=1 n=b6 v=57
87654 Off ch=1 n=g5 v=0
87654 Off ch=1 n=b6 v=0
87654 On ch=1 n=e6 v=51
87859 Off ch=1 n=e6 v=0
87859 On ch=1 n=a6 v=49
88064 Off ch=1 n=a6 v=0
88064 On ch=1 n=g6 v=52
88269 Off ch=1 n=g6 v=0
88269 On ch=1 n=b5 v=46
88474 Off ch=1 n=b5 v=0
88474 On ch=1 n=c#6 v=48
88678 Off ch=1 n=c#6 v=0
88678 On ch=1 n=f#6 v=50
88883 Off ch=1 n=f#6 v=0
88883 On ch=1 n=e6 v=47
89088 Off ch=1 n=e6 v=0
89088 On ch=1 n=c#5 v=26
89088 On ch=1 n=f#5 v=26
89088 On ch=1 n=a#5 v=42
91136 Par ch=1 c=64 v=0
91136 Par ch=1 c=64 v=0
91136 Par ch=1 c=64 v=0
91136 Off ch=1 n=c#5 v=0
91136 Off ch=1 n=f#5 v=0
91136 Off ch=1 n=a#5 v=0
91136 On ch=1 n=b4 v=59
91341 On ch=1 n=g5 v=61
91546 Off ch=1 n=g5 v=0
91546 On ch=1 n=d6 v=63
91750 Off ch=1 n=b4 v=0
91750 Off ch=1 n=d6 v=0
91750 On ch=1 n=g5 v=57
91955 Off ch=1 n=g5 v=0
91955 On ch=1 n=c#6 v=55
92160 Off ch=1 n=c#6 v=0
92160 On ch=1 n=b5 v=58
92365 On ch=1 n=d5 v=52
92570 Off ch=1 n=d5 v=0
92570 Off ch=1 n=b5 v=0
92570 On ch=1 n=f5 v=54
92774 Off ch=1 n=f5 v=0
92774 On ch=1 n=a5 v=56
92979 Off ch=1 n=a5 v=0
92979 On ch=1 n=g5 v=58
93184 Off ch=1 n=g5 v=0
93184 On ch=1 n=a#4 v=39
93184 On ch=1 n=f#5 v=54
95232 Par ch=1 c=64 v=0
95232 Par ch=1 c=64 v=0
95232 Par ch=1 c=64 v=0
95232 Par ch=1 c=64 v=0
95232 Off ch=1 n=a#4 v=0
95232 Off ch=1 n=f#5 v=0
95232 On ch=1 n=b4 v=50
95437 On ch=1 n=g5 v=52
95642 Off ch=1 n=g5 v=0
95642 On ch=1 n=d6 v=54
95846 Off ch=1 n=b4 v=0
95846 Off ch=1 n=d6 v=0
95846 On ch=1 n=g5 v=48
96051 Off ch=1 n=g5 v=0
96051 On ch=1 n=c#6 v=46
96256 Off ch=1 n=c#6 v=0
96256 On ch=1 n=b5 v=49
96461 On ch=1 n=d5 v=43
96666 Off ch=1 n=d5 v=0
96666 Off ch=1 n=b5 v=0
96666 On ch=1 n=f5 v=45
96870 Off ch=1 n=f5 v=0
96870 On ch=1 n=a5 v=47
97075 Off ch=1 n=a5 v=0
97075 On ch=1 n=g5 v=49
97280 Off ch=1 n=g5 v=0
97280 On ch=1 n=a#4 v=30
97280 On ch=1 n=f#5 v=45
99328 Par ch=1 c=64 v=0
99328 Off ch=1 n=a#4 v=0
99328 Off ch=1 n=f#5 v=0
99584 On ch=1 n=a#4 v=31
99840 On ch=1 n=c#5 v=31
100096 On ch=1 n=f#5 v=30
100096 On ch=1 n=a#5 v=42
100608 Off ch=1 n=a#4 v=0
100608 On ch=1 n=a#4 v=29
100864 Off ch=1 n=c#5 v=0
100864 On ch=1 n=c#5 v=29
101120 Off ch=1 n=f#5 v=0
101120 Off ch=1 n=a#5 v=0
101120 On ch=1 n=f#5 v=28
101120 On ch=1 n=a#5 v=39
101632 Off ch=1 n=a#4 v=0
101632 On ch=1 n=a#4 v=26
101888 Off ch=1 n=c#5 v=0
101888 On ch=1 n=c#5 v=26
102144 Off ch=1 n=f#5 v=0
102144 Off ch=1 n=a#5 v=0
102144 On ch=1 n=f#5 v=26
102144 On ch=1 n=a#5 v=35
102656 Off ch=1 n=a#4 v=0
102656 On ch=1 n=a#4 v=24
102912 Off ch=1 n=c#5 v=0
102912 On ch=1 n=c#5 v=24
103168 Off ch=1 n=a#5 v=0
103168 On ch=1 n=a#5 v=33
103424 Par ch=1 c=64 v=0
103680 Off ch=1 n=a#4 v=0
103680 Off ch=1 n=c#5 v=0
103680 Off ch=1 n=a#5 v=0
103680 On ch=1 n=a#4 v=22
107520 Par ch=1 c=64 v=0
107520 Off ch=1 n=a#4 v=0
107520 Off ch=1 n=f#5 v=0
111616 Par ch=1 c=64 v=0
111617 Meta TrkEnd
TrkEnd
MTrk
0 Meta TrkName "Instrument  2"
0 PrCh ch=1 p=1
0 Par ch=1 c=64 v=0
1024 Par ch=1 c=64 v=0
1024 On ch=1 n=f#3 v=46
1040 Par ch=1 c=64 v=127
1365 On ch=1 n=c#4 v=42
1707 Off ch=1 n=c#4 v=0
1707 On ch=1 n=c#5 v=39
2040 Par ch=1 c=64 v=0
2048 Off ch=1 n=c#5 v=0
2048 On ch=1 n=c5 v=44
2246 Par ch=1 c=64 v=127
2389 Off ch=1 n=f#3 v=0
2389 Off ch=1 n=c5 v=0
2389 On ch=1 n=f#4 v=35
2731 Off ch=1 n=f#4 v=0
2731 On ch=1 n=c#4 v=35
3072 Par ch=1 c=64 v=0
3072 Off ch=1 n=c#4 v=0
3072 On ch=1 n=f#3 v=46
3263 Par ch=1 c=64 v=127
3328 Off ch=1 n=f#3 v=0
3328 On ch=1 n=c#4 v=40
3584 Off ch=1 n=c#4 v=0
3584 On ch=1 n=a4 v=35
3968 Off ch=1 n=a4 v=0
3968 On ch=1 n=f5 v=46
4096 Off ch=1 n=f5 v=0
4096 On ch=1 n=f#5 v=51
4352 Off ch=1 n=f#5 v=0
4352 On ch=1 n=a4 v=41
4608 Off ch=1 n=a4 v=0
4608 On ch=1 n=c#4 v=36
4864 Off ch=1 n=c#4 v=0
4864 On ch=1 n=f#3 v=31
5120 Par ch=1 c=64 v=0
5120 Par ch=1 c=64 v=0
5120 Off ch=1 n=f#3 v=0
5120 On ch=1 n=f#3 v=46
5136 Par ch=1 c=64 v=127
5237 Par ch=1 c=64 v=0
5354 Par ch=1 c=64 v=127
5461 On ch=1 n=d4 v=42
5803 Off ch=1 n=d4 v=0
5803 On ch=1 n=b4 v=39
6136 Par ch=1 c=64 v=0
6144 Off ch=1 n=b4 v=0
6144 On ch=1 n=f#5 v=44
6342 Par ch=1 c=64 v=127
6400 Off ch=1 n=f#3 v=0
6400 Off ch=1 n=f#5 v=0
6400 On ch=1 n=f5 v=39
6656 Off ch=1 n=f5 v=0
6656 On ch=1 n=b4 v=39
6912 Off ch=1 n=b4 v=0
6912 On ch=1 n=d4 v=39
7168 Par ch=1 c=64 v=0
7168 Off ch=1 n=d4 v=0
7168 On ch=1 n=f#3 v=46
7359 Par ch=1 c=64 v=127
7424 Off ch=1 n=f#3 v=0
7424 On ch=1 n=d4 v=40
7680 Off ch=1 n=d4 v=0
7680 On ch=1 n=b4 v=51
8064 Off ch=1 n=b4 v=0
8064 On ch=1 n=f#5 v=46
8192 Off ch=1 n=f#5 v=0
8192 On ch=1 n=g#5 v=51
8448 Off ch=1 n=g#5 v=0
8448 On ch=1 n=b4 v=41
8704 Off ch=1 n=b4 v=0
8704 On ch=1 n=d4 v=36
8960 Off ch=1 n=d4 v=0
8960 On ch=1 n=f#3 v=31
9216 Par ch=1 c=64 v=0
9216 Par ch=1 c=64 v=0
9216 Par ch=1 c=64 v=0
9216 Off ch=1 n=f#3 v=0
9216 On ch=1 n=f#3 v=39
9232 Par ch=1 c=64 v=127
9352 Par ch=1 c=64 v=0
9489 Par ch=1 c=64 v=127
9557 Off ch=1 n=f#3 v=0
9557 On ch=1 n=c#4 v=37
9899 Off ch=1 n=c#4 v=0
9899 On ch=1 n=b4 v=34
10232 Par ch=1 c=64 v=0
10240 Off ch=1 n=b4 v=0
10240 On ch=1 n=g#5 v=39
10438 Par ch=1 c=64 v=127
10496 Off ch=1 n=g#5 v=0
10496 On ch=1 n=f5 v=37
10752 Off ch=1 n=f5 v=0
10752 On ch=1 n=b4 v=36
11008 Off ch=1 n=b4 v=0
11008 On ch=1 n=c#4 v=34
11264 Par ch=1 c=64 v=0
11264 Off ch=1 n=c#4 v=0
11264 On ch=1 n=f#3 v=39
11455 Par ch=1 c=64 v=127
11605 Off ch=1 n=f#3 v=0
11605 On ch=1 n=c#4 v=37
11947 Off ch=1 n=c#4 v=0
11947 On ch=1 n=a4 v=34
12288 Off ch=1 n=a4 v=0
12288 On ch=1 n=e5 v=39
12629 Off ch=1 n=e5 v=0
12629 On ch=1 n=c#5 v=37
12971 Off ch=1 n=c#5 v=0
12971 On ch=1 n=f#4 v=34
13312 Par ch=1 c=64 v=0
13312 Par ch=1 c=64 v=0
13312 Par ch=1 c=64 v=0
13312 Par ch=1 c=64 v=0
13312 Off ch=1 n=f#4 v=0
13312 On ch=1 n=f#3 v=39
13328 Par ch=1 c=64 v=127
13429 Par ch=1 c=64 v=0
13527 Par ch=1 c=64 v=127
13653 Off ch=1 n=f#3 v=0
13653 On ch=1 n=d4 v=37
13995 Off ch=1 n=d4 v=0
13995 On ch=1 n=b4 v=34
14328 Par ch=1 c=64 v=0
14336 Off ch=1 n=b4 v=0
14336 On ch=1 n=d5 v=39
14534 Par ch=1 c=64 v=127
14677 Off ch=1 n=d5 v=0
14677 On ch=1 n=b4 v=35
15019 Off ch=1 n=b4 v=0
15019 On ch=1 n=d4 v=35
15360 Par ch=1 c=64 v=0
15360 Off ch=1 n=d4 v=0
15360 On ch=1 n=f#3 v=39
15551 Par ch=1 c=64 v=127
15616 Off ch=1 n=f#3 v=0
15616 On ch=1 n=c#4 v=39
15872 Off ch=1 n=c#4 v=0
15872 On ch=1 n=b4 v=39
16256 Off ch=1 n=b4 v=0
16256 On ch=1 n=f#5 v=42
16384 Off ch=1 n=f#5 v=0
16384 On ch=1 n=g#5 v=42
16394 Par ch=1 c=64 v=0
16569 Par ch=1 c=64 v=127
16640 Off ch=1 n=g#5 v=0
16640 On ch=1 n=b4 v=37
16896 Off ch=1 n=b4 v=0
16896 On ch=1 n=c#4 v=31
17152 Off ch=1 n=c#4 v=0
17152 On ch=1 n=f#3 v=26
17408 Par ch=1 c=64 v=0
17408 Off ch=1 n=f#3 v=0
17408 On ch=1 n=f#3 v=55
17424 Par ch=1 c=64 v=127
17749 On ch=1 n=c#4 v=51
18091 Off ch=1 n=c#4 v=0
18091 On ch=1 n=c#5 v=48
18424 Par ch=1 c=64 v=0
18432 Off ch=1 n=c#5 v=0
18432 On ch=1 n=c5 v=53
18630 Par ch=1 c=64 v=127
18773 Off ch=1 n=f#3 v=0
18773 Off ch=1 n=c5 v=0
18773 On ch=1 n=f#4 v=44
19115 Off ch=1 n=f#4 v=0
19115 On ch=1 n=c#4 v=44
19456 Par ch=1 c=64 v=0
19456 Off ch=1 n=c#4 v=0
19456 On ch=1 n=f#3 v=55
19647 Par ch=1 c=64 v=127
19712 Off ch=1 n=f#3 v=0
19712 On ch=1 n=c#4 v=49
19968 Off ch=1 n=c#4 v=0
19968 On ch=1 n=a4 v=44
20352 Off ch=1 n=a4 v=0
20352 On ch=1 n=f5 v=62
20480 Off ch=1 n=f5 v=0
20480 On ch=1 n=f#5 v=67
20736 Off ch=1 n=f#5 v=0
20736 On ch=1 n=a4 v=50
20992 Off ch=1 n=a4 v=0
20992 On ch=1 n=c#4 v=45
21248 Off ch=1 n=c#4 v=0
21248 On ch=1 n=f#3 v=40
21504 Par ch=1 c=64 v=0
21504 Par ch=1 c=64 v=0
21504 Off ch=1 n=f#3 v=0
21504 On ch=1 n=f#3 v=55
21520 Par ch=1 c=64 v=127
21621 Par ch=1 c=64 v=0
21738 Par ch=1 c=64 v=127
21845 On ch=1 n=d4 v=51
22187 Off ch=1 n=d4 v=0
22187 On ch=1 n=b4 v=48
22520 Par ch=1 c=64 v=0
22528 Off ch=1 n=b4 v=0
22528 On ch=1 n=f#5 v=53
22726 Par ch=1 c=64 v=127
22784 Off ch=1 n=f#3 v=0
22784 Off ch=1 n=f#5 v=0
22784 On ch=1 n=f5 v=48
23040 Off ch=1 n=f5 v=0
23040 On ch=1 n=b4 v=48
23296 Off ch=1 n=b4 v=0
23296 On ch=1 n=d4 v=48
23552 Par ch=1 c=64 v=0
23552 Off ch=1 n=d4 v=0
23552 On ch=1 n=f#3 v=55
23743 Par ch=1 c=64 v=127
23808 Off ch=1 n=f#3 v=0
23808 On ch=1 n=d4 v=49
24064 Off ch=1 n=d4 v=0
24064 On ch=1 n=b4 v=60
24448 Off ch=1 n=b4 v=0
24448 On ch=1 n=f#5 v=55
24576 Off ch=1 n=f#5 v=0
24576 On ch=1 n=g#5 v=60
24832 Off ch=1 n=g#5 v=0
24832 On ch=1 n=b4 v=50
25088 Off ch=1 n=b4 v=0
25088 On ch=1 n=d4 v=45
25344 Off ch=1 n=d4 v=0
25344 On ch=1 n=f#3 v=40
25600 Par ch=1 c=64 v=0
25600 Par ch=1 c=64 v=0
25600 Par ch=1 c=64 v=0
25600 Par ch=1 c=64 v=0
25600 Off ch=1 n=f#3 v=0
25600 On ch=1 n=f#3 v=36
25616 Par ch=1 c=64 v=127
25736 Par ch=1 c=64 v=0
25873 Par ch=1 c=64 v=127
25941 Off ch=1 n=f#3 v=0
25941 On ch=1 n=d#4 v=28
26283 Off ch=1 n=d#4 v=0
26283 On ch=1 n=a4 v=27
26616 Par ch=1 c=64 v=0
26624 Off ch=1 n=a4 v=0
26624 On ch=1 n=c#5 v=31
26822 Par ch=1 c=64 v=127
26965 Off ch=1 n=c#5 v=0
26965 On ch=1 n=a4 v=31
27307 Off ch=1 n=a4 v=0
27307 On ch=1 n=d#4 v=32
27648 Par ch=1 c=64 v=0
27648 Off ch=1 n=d#4 v=0
27648 On ch=1 n=g#3 v=39
27839 Par ch=1 c=64 v=127
27989 Off ch=1 n=g#3 v=0
27989 On ch=1 n=e4 v=31
28331 Off ch=1 n=e4 v=0
28331 On ch=1 n=c#5 v=30
28672 Off ch=1 n=c#5 v=0
28672 On ch=1 n=b4 v=34
29013 Off ch=1 n=b4 v=0
29013 On ch=1 n=a4 v=33
29355 Off ch=1 n=a4 v=0
29355 On ch=1 n=g#4 v=31
29696 Par ch=1 c=64 v=0
29696 Par ch=1 c=64 v=0
29696 Par ch=1 c=64 v=0
29696 Par ch=1 c=64 v=0
29696 Par ch=1 c=64 v=0
29696 Off ch=1 n=g#4 v=0
29696 On ch=1 n=g#3 v=44
29712 Par ch=1 c=64 v=127
29813 Par ch=1 c=64 v=0
29911 Par ch=1 c=64 v=127
30037 Off ch=1 n=g#3 v=0
30037 On ch=1 n=f#4 v=35
30379 Off ch=1 n=f#4 v=0
30379 On ch=1 n=g#3 v=33
30712 Par ch=1 c=64 v=0
30720 Off ch=1 n=g#3 v=0
30720 On ch=1 n=c5 v=43
30918 Par ch=1 c=64 v=127
31061 Off ch=1 n=c5 v=0
31061 On ch=1 n=f#4 v=35
31403 Off ch=1 n=f#4 v=0
31403 On ch=1 n=g#3 v=35
31744 Par ch=1 c=64 v=0
31744 Off ch=1 n=g#3 v=0
31744 On ch=1 n=c#3 v=39
31935 Par ch=1 c=64 v=127
31949 Off ch=1 n=c#3 v=0
31949 On ch=1 n=g#3 v=40
32154 Off ch=1 n=g#3 v=0
32154 On ch=1 n=e4 v=41
32358 Off ch=1 n=e4 v=0
32358 On ch=1 n=c#5 v=41
32407 Par ch=1 c=64 v=127
32563 Off ch=1 n=c#5 v=0
32563 On ch=1 n=g#4 v=42
32768 Off ch=1 n=g#4 v=0
32768 On ch=1 n=g#5 v=43
33024 Off ch=1 n=g#5 v=0
33024 On ch=1 n=c#5 v=40
33280 Off ch=1 n=c#5 v=0
33280 On ch=1 n=e4 v=35
33536 Off ch=1 n=e4 v=0
33536 On ch=1 n=b2 v=31
33792 Par ch=1 c=64 v=0
33792 Par ch=1 c=64 v=0
33792 Par ch=1 c=64 v=0
33792 Off ch=1 n=b2 v=0
33792 On ch=1 n=a2 v=40
33808 Par ch=1 c=64 v=127
33909 Par ch=1 c=64 v=0
34026 Par ch=1 c=64 v=127
34048 On ch=1 n=e4 v=45
34304 Off ch=1 n=e4 v=0
34304 On ch=1 n=c#5 v=45
34560 Off ch=1 n=c#5 v=0
34560 On ch=1 n=g4 v=45
34631 Par ch=1 c=64 v=127
34816 Off ch=1 n=g4 v=0
34816 On ch=1 n=g5 v=45
35072 Off ch=1 n=a2 v=0
35072 Off ch=1 n=g5 v=0
35072 On ch=1 n=c#5 v=40
35328 Off ch=1 n=c#5 v=0
35328 On ch=1 n=e4 v=40
35584 Off ch=1 n=e4 v=0
35584 On ch=1 n=a3 v=40
35840 Par ch=1 c=64 v=0
35840 On ch=1 n=a2 v=47
36031 Par ch=1 c=64 v=127
36096 Off ch=1 n=a2 v=0
36096 Off ch=1 n=a3 v=0
36096 On ch=1 n=d#4 v=41
36352 Off ch=1 n=d#4 v=0
36352 On ch=1 n=b4 v=45
36608 Off ch=1 n=b4 v=0
36608 On ch=1 n=f#4 v=45
36864 Off ch=1 n=f#4 v=0
36864 On ch=1 n=f#5 v=45
37120 Off ch=1 n=f#5 v=0
37120 On ch=1 n=b4 v=35
37376 Off ch=1 n=b4 v=0
37376 On ch=1 n=d#4 v=30
37632 Off ch=1 n=d#4 v=0
37632 On ch=1 n=a2 v=25
37632 On ch=1 n=a3 v=25
37888 Par ch=1 c=64 v=127
37888 Off ch=1 n=a2 v=0
37888 Off ch=1 n=a3 v=0
37888 On ch=1 n=g2 v=46
37888 On ch=1 n=g3 v=35
37986 Par ch=1 c=64 v=0
38181 Par ch=1 c=64 v=127
38229 On ch=1 n=b3 v=41
38571 On ch=1 n=b4 v=41
38912 Off ch=1 n=g2 v=0
38912 Off ch=1 n=g3 v=0
38912 Off ch=1 n=b3 v=0
38912 Off ch=1 n=b4 v=0
38912 On ch=1 n=f#2 v=50
38912 On ch=1 n=f#3 v=38
38922 Par ch=1 c=64 v=0
39097 Par ch=1 c=64 v=127
39253 On ch=1 n=b3 v=44
39595 On ch=1 n=b4 v=45
39916 Par ch=1 c=64 v=0
39936 Off ch=1 n=b3 v=0
39936 Off ch=1 n=b4 v=0
39936 Off ch=1 n=f#2 v=0
39936 Off ch=1 n=f#3 v=0
39936 On ch=1 n=e2 v=53
39936 On ch=1 n=e3 v=41
40131 Par ch=1 c=64 v=127
40277 On ch=1 n=b3 v=47
40619 On ch=1 n=b4 v=49
40960 Off ch=1 n=b3 v=0
40960 Off ch=1 n=b4 v=0
40960 Off ch=1 n=e2 v=0
40960 Off ch=1 n=e3 v=0
40960 On ch=1 n=d2 v=58
40960 On ch=1 n=d3 v=44
40970 Par ch=1 c=64 v=0
41165 Par ch=1 c=64 v=127
41301 On ch=1 n=b3 v=50
41643 On ch=1 n=b4 v=51
41984 Par ch=1 c=64 v=0
41984 Par ch=1 c=64 v=0
41984 Par ch=1 c=64 v=0
41984 Par ch=1 c=64 v=0
41984 Off ch=1 n=b3 v=0
41984 Off ch=1 n=b4 v=0
41984 Off ch=1 n=d2 v=0
41984 Off ch=1 n=d3 v=0
41984 On ch=1 n=c3 v=69
42000 Par ch=1 c=64 v=127
42101 Par ch=1 c=64 v=0
42218 Par ch=1 c=64 v=127
42240 On ch=1 n=g4 v=62
42496 Off ch=1 n=g4 v=0
42496 On ch=1 n=e5 v=62
42752 Off ch=1 n=e5 v=0
42752 On ch=1 n=a#4 v=62
42764 Par ch=1 c=64 v=127
43008 Off ch=1 n=a#4 v=0
43008 On ch=1 n=a#5 v=62
43264 Off ch=1 n=c3 v=0
43264 Off ch=1 n=a#5 v=0
43264 On ch=1 n=e5 v=57
43520 Off ch=1 n=e5 v=0
43520 On ch=1 n=g4 v=57
43776 Off ch=1 n=g4 v=0
43776 On ch=1 n=c4 v=57
44032 Par ch=1 c=64 v=0
44032 On ch=1 n=c3 v=55
44223 Par ch=1 c=64 v=127
44288 Off ch=1 n=c3 v=0
44288 Off ch=1 n=c4 v=0
44288 On ch=1 n=f#4 v=58
44544 Off ch=1 n=f#4 v=0
44544 On ch=1 n=d5 v=62
44800 Off ch=1 n=d5 v=0
44800 On ch=1 n=a4 v=62
45056 Off ch=1 n=a4 v=0
45056 On ch=1 n=a5 v=62
45312 Off ch=1 n=a5 v=0
45312 On ch=1 n=d5 v=52
45568 Off ch=1 n=d5 v=0
45568 On ch=1 n=f#4 v=47
45824 Off ch=1 n=f#4 v=0
45824 On ch=1 n=c3 v=45
45824 On ch=1 n=c4 v=54
46080 Par ch=1 c=64 v=127
46080 Par ch=1 c=64 v=0
46080 Off ch=1 n=c3 v=0
46080 Off ch=1 n=c4 v=0
46080 On ch=1 n=a#2 v=60
46080 On ch=1 n=a#3 v=48
46178 Par ch=1 c=64 v=0
46373 Par ch=1 c=64 v=127
46421 On ch=1 n=d4 v=54
46763 On ch=1 n=d5 v=54
47104 Off ch=1 n=a#2 v=0
47104 Off ch=1 n=a#3 v=0
47104 Off ch=1 n=d4 v=0
47104 Off ch=1 n=d5 v=0
47104 On ch=1 n=a2 v=63
47104 On ch=1 n=a3 v=50
47114 Par ch=1 c=64 v=0
47289 Par ch=1 c=64 v=127
47445 On ch=1 n=d4 v=56
47787 On ch=1 n=d5 v=57
48108 Par ch=1 c=64 v=0
48128 Off ch=1 n=d4 v=0
48128 Off ch=1 n=d5 v=0
48128 Off ch=1 n=a2 v=0
48128 Off ch=1 n=a3 v=0
48128 On ch=1 n=g2 v=65
48128 On ch=1 n=g3 v=52
48323 Par ch=1 c=64 v=127
48469 On ch=1 n=d4 v=58
48811 On ch=1 n=d5 v=59
49152 Off ch=1 n=d4 v=0
49152 Off ch=1 n=d5 v=0
49152 Off ch=1 n=g2 v=0
49152 Off ch=1 n=g3 v=0
49152 On ch=1 n=g2 v=68
49152 On ch=1 n=g3 v=54
49162 Par ch=1 c=64 v=0
49357 Par ch=1 c=64 v=127
49493 On ch=1 n=c#4 v=60
49835 On ch=1 n=c#5 v=61
50176 Par ch=1 c=64 v=127
50176 Par ch=1 c=64 v=0
50176 Par ch=1 c=64 v=0
50176 Off ch=1 n=c#4 v=0
50176 Off ch=1 n=c#5 v=0
50176 Off ch=1 n=g2 v=0
50176 Off ch=1 n=g3 v=0
50176 On ch=1 n=d2 v=69
50176 On ch=1 n=d3 v=57
50274 Par ch=1 c=64 v=0
50469 Par ch=1 c=64 v=127
50517 On ch=1 n=a3 v=63
50859 Off ch=1 n=a3 v=0
50859 On ch=1 n=f#4 v=63
50956 Par ch=1 c=64 v=127
51200 Off ch=1 n=f#4 v=0
51200 On ch=1 n=c5 v=69
51541 Off ch=1 n=c5 v=0
51541 On ch=1 n=f#4 v=65
51883 Off ch=1 n=f#4 v=0
51883 On ch=1 n=a3 v=66
52204 Par ch=1 c=64 v=0
52224 Off ch=1 n=d2 v=0
52224 Off ch=1 n=d3 v=0
52224 Off ch=1 n=a3 v=0
52224 On ch=1 n=d2 v=74
52224 On ch=1 n=d3 v=61
52419 Par ch=1 c=64 v=127
52565 On ch=1 n=g3 v=67
52907 Off ch=1 n=g3 v=0
52907 On ch=1 n=d4 v=68
53082 Par ch=1 c=64 v=127
53248 Off ch=1 n=d4 v=0
53248 On ch=1 n=a#4 v=75
53589 Off ch=1 n=a#4 v=0
53589 On ch=1 n=c#4 v=69
53931 Off ch=1 n=c#4 v=0
53931 On ch=1 n=g3 v=70
54272 Par ch=1 c=64 v=127
54272 Par ch=1 c=64 v=0
54272 Par ch=1 c=64 v=0
54272 Par ch=1 c=64 v=0
54272 Off ch=1 n=g3 v=0
54272 Off ch=1 n=d2 v=0
54272 Off ch=1 n=d3 v=0
54272 On ch=1 n=d2 v=69
54272 On ch=1 n=d3 v=57
54370 Par ch=1 c=64 v=0
54528 On ch=1 n=a3 v=60
54565 Par ch=1 c=64 v=127
54784 Off ch=1 n=a3 v=0
54784 On ch=1 n=d4 v=60
55040 Off ch=1 n=d4 v=0
55040 On ch=1 n=a4 v=60
55052 Par ch=1 c=64 v=127
55296 Off ch=1 n=a4 v=0
55296 On ch=1 n=d#5 v=69
55637 Off ch=1 n=d#5 v=0
55637 On ch=1 n=f#4 v=65
55979 Off ch=1 n=f#4 v=0
55979 On ch=1 n=a3 v=66
56300 Par ch=1 c=64 v=0
56320 Off ch=1 n=d2 v=0
56320 Off ch=1 n=d3 v=0
56320 Off ch=1 n=a3 v=0
56320 On ch=1 n=d2 v=74
56320 On ch=1 n=d3 v=61
56515 Par ch=1 c=64 v=127
56661 On ch=1 n=a#3 v=67
57003 Off ch=1 n=a#3 v=0
57003 On ch=1 n=d#4 v=68
57178 Par ch=1 c=64 v=127
57344 Off ch=1 n=d#4 v=0
57344 On ch=1 n=c#5 v=75
57685 Off ch=1 n=c#5 v=0
57685 On ch=1 n=d#4 v=69
58027 Off ch=1 n=d#4 v=0
58027 On ch=1 n=a#3 v=70
58368 Par ch=1 c=64 v=0
58368 Off ch=1 n=a#3 v=0
58368 Off ch=1 n=d2 v=0
58368 Off ch=1 n=d3 v=0
58368 On ch=1 n=d2 v=69
58368 On ch=1 n=d3 v=57
58709 On ch=1 n=a3 v=59
59051 Off ch=1 n=a3 v=0
59051 On ch=1 n=f#4 v=58
59392 Off ch=1 n=f#4 v=0
59392 On ch=1 n=c5 v=65
59733 Off ch=1 n=c5 v=0
59733 On ch=1 n=f#4 v=60
60075 Off ch=1 n=f#4 v=0
60075 On ch=1 n=a3 v=59
60416 Off ch=1 n=d2 v=0
60416 Off ch=1 n=d3 v=0
60416 Off ch=1 n=a3 v=0
60416 On ch=1 n=d2 v=64
60416 On ch=1 n=d3 v=53
60757 On ch=1 n=g3 v=57
61099 Off ch=1 n=g3 v=0
61099 On ch=1 n=d4 v=56
61440 Off ch=1 n=d4 v=0
61440 On ch=1 n=a#4 v=61
61781 Off ch=1 n=a#4 v=0
61781 On ch=1 n=c#4 v=55
62123 Off ch=1 n=c#4 v=0
62123 On ch=1 n=g3 v=54
62464 Par ch=1 c=64 v=0
62464 Off ch=1 n=g3 v=0
62464 Off ch=1 n=d2 v=0
62464 Off ch=1 n=d3 v=0
62464 On ch=1 n=d2 v=53
62464 On ch=1 n=d3 v=44
62640 Par ch=1 c=64 v=127
62805 On ch=1 n=a3 v=47
63147 Off ch=1 n=a3 v=0
63147 On ch=1 n=d4 v=49
63488 Off ch=1 n=d4 v=0
63488 On ch=1 n=a4 v=57
63829 Off ch=1 n=a4 v=0
63829 On ch=1 n=d4 v=55
64171 Off ch=1 n=d4 v=0
64171 On ch=1 n=a3 v=57
64278 Par ch=1 c=64 v=0
64512 Off ch=1 n=d2 v=0
64512 Off ch=1 n=d3 v=0
64512 Off ch=1 n=a3 v=0
64512 On ch=1 n=d2 v=67
64512 On ch=1 n=d3 v=55
64590 Par ch=1 c=64 v=127
64768 On ch=1 n=a3 v=55
65024 Off ch=1 n=a3 v=0
65024 On ch=1 n=d4 v=56
65280 Off ch=1 n=d4 v=0
65280 On ch=1 n=a4 v=56
65536 Off ch=1 n=a4 v=0
65536 On ch=1 n=d5 v=72
65877 Off ch=1 n=d5 v=0
65877 On ch=1 n=a4 v=68
66219 Off ch=1 n=a4 v=0
66219 On ch=1 n=d4 v=70
66560 Par ch=1 c=64 v=0
66560 Par ch=1 c=64 v=0
66560 Off ch=1 n=d4 v=0
66560 Off ch=1 n=d2 v=0
66560 Off ch=1 n=d3 v=0
66560 On ch=1 n=c#2 v=63
66560 On ch=1 n=c#3 v=72
66576 Par ch=1 c=64 v=127
66901 On ch=1 n=c#4 v=63
67243 Off ch=1 n=c#4 v=0
67243 On ch=1 n=c#5 v=60
67576 Par ch=1 c=64 v=0
67584 Off ch=1 n=c#5 v=0
67584 On ch=1 n=c5 v=65
67782 Par ch=1 c=64 v=127
67925 Off ch=1 n=c5 v=0
67925 On ch=1 n=f#4 v=56
68267 Off ch=1 n=f#4 v=0
68267 On ch=1 n=c#4 v=56
68608 Par ch=1 c=64 v=0
68608 Off ch=1 n=c#4 v=0
68608 On ch=1 n=c#3 v=58
68608 On ch=1 n=c#4 v=67
68799 Par ch=1 c=64 v=127
68864 Off ch=1 n=c#3 v=0
68864 Off ch=1 n=c#4 v=0
68864 On ch=1 n=c#4 v=61
69120 Off ch=1 n=c#4 v=0
69120 On ch=1 n=a4 v=56
69504 Off ch=1 n=a4 v=0
69504 On ch=1 n=f5 v=67
69632 Off ch=1 n=f5 v=0
69632 On ch=1 n=f#5 v=72
69888 Off ch=1 n=f#5 v=0
69888 On ch=1 n=a4 v=62
70144 Off ch=1 n=a4 v=0
70144 On ch=1 n=c#4 v=57
70400 Off ch=1 n=c#4 v=0
70400 On ch=1 n=c#3 v=43
70400 On ch=1 n=c#4 v=52
70656 Par ch=1 c=64 v=0
70656 Par ch=1 c=64 v=0
70656 Par ch=1 c=64 v=0
70656 Off ch=1 n=c#2 v=0
70656 Off ch=1 n=c#3 v=0
70656 Off ch=1 n=c#3 v=0
70656 Off ch=1 n=c#4 v=0
70656 On ch=1 n=c#3 v=60
70656 On ch=1 n=c#4 v=72
70672 Par ch=1 c=64 v=127
70997 On ch=1 n=d4 v=63
71339 Off ch=1 n=d4 v=0
71339 On ch=1 n=b4 v=60
71672 Par ch=1 c=64 v=0
71680 Off ch=1 n=b4 v=0
71680 On ch=1 n=f#5 v=65
71878 Par ch=1 c=64 v=127
71936 Off ch=1 n=f#5 v=0
71936 On ch=1 n=f5 v=60
72192 Off ch=1 n=f5 v=0
72192 On ch=1 n=b4 v=60
72448 Off ch=1 n=b4 v=0
72448 On ch=1 n=d4 v=60
72704 Par ch=1 c=64 v=0
72704 Off ch=1 n=d4 v=0
72704 On ch=1 n=c#3 v=55
72704 On ch=1 n=c#4 v=67
72895 Par ch=1 c=64 v=127
72960 Off ch=1 n=c#3 v=0
72960 Off ch=1 n=c#4 v=0
72960 On ch=1 n=d4 v=61
73216 Off ch=1 n=d4 v=0
73216 On ch=1 n=b4 v=60
73600 Off ch=1 n=b4 v=0
73600 On ch=1 n=f#5 v=67
73728 Off ch=1 n=f#5 v=0
73728 On ch=1 n=g#5 v=72
73984 Off ch=1 n=g#5 v=0
73984 On ch=1 n=b4 v=62
74240 Off ch=1 n=b4 v=0
74240 On ch=1 n=d4 v=57
74496 Off ch=1 n=d4 v=0
74496 On ch=1 n=c#3 v=40
74496 On ch=1 n=c#4 v=52
74752 Par ch=1 c=64 v=0
74752 Par ch=1 c=64 v=0
74752 Par ch=1 c=64 v=0
74752 Par ch=1 c=64 v=0
74752 Off ch=1 n=c#3 v=0
74752 Off ch=1 n=c#4 v=0
74752 Off ch=1 n=c#3 v=0
74752 Off ch=1 n=c#4 v=0
74752 On ch=1 n=c#3 v=60
74752 On ch=1 n=c#4 v=48
74768 Par ch=1 c=64 v=127
74888 Par ch=1 c=64 v=0
75008 On ch=1 n=g4 v=53
75025 Par ch=1 c=64 v=127
75264 Off ch=1 n=g4 v=0
75264 On ch=1 n=e5 v=53
75520 Off ch=1 n=e5 v=0
75520 On ch=1 n=b4 v=53
75768 Par ch=1 c=64 v=0
75776 Off ch=1 n=b4 v=0
75776 On ch=1 n=b5 v=53
75974 Par ch=1 c=64 v=127
76117 Off ch=1 n=b5 v=0
76117 On ch=1 n=c#5 v=53
76459 Off ch=1 n=c#5 v=0
76459 On ch=1 n=g4 v=53
76800 Par ch=1 c=64 v=0
76800 Off ch=1 n=c#3 v=0
76800 Off ch=1 n=c#4 v=0
76800 Off ch=1 n=g4 v=0
76800 On ch=1 n=d3 v=60
76800 On ch=1 n=d4 v=48
76991 Par ch=1 c=64 v=127
77056 On ch=1 n=g#4 v=53
77312 Off ch=1 n=g#4 v=0
77312 On ch=1 n=f#5 v=53
77568 Off ch=1 n=f#5 v=0
77568 On ch=1 n=b4 v=53
77824 Off ch=1 n=b4 v=0
77824 On ch=1 n=b5 v=53
78165 Off ch=1 n=b5 v=0
78165 On ch=1 n=f#5 v=53
78507 Off ch=1 n=f#5 v=0
78507 On ch=1 n=g#4 v=53
78848 Par ch=1 c=64 v=0
78848 Par ch=1 c=64 v=0
78848 Par ch=1 c=64 v=0
78848 Par ch=1 c=64 v=0
78848 Par ch=1 c=64 v=0
78848 Off ch=1 n=g#4 v=0
78848 Off ch=1 n=d3 v=0
78848 Off ch=1 n=d4 v=0
78848 On ch=1 n=c#3 v=60
78848 On ch=1 n=c#4 v=48
78864 Par ch=1 c=64 v=127
78965 Par ch=1 c=64 v=0
79063 Par ch=1 c=64 v=127
79189 On ch=1 n=b4 v=50
79531 Off ch=1 n=b4 v=0
79531 On ch=1 n=c#4 v=47
79864 Par ch=1 c=64 v=0
79872 Off ch=1 n=c#4 v=0
79872 On ch=1 n=f5 v=43
80070 Par ch=1 c=64 v=127
80213 Off ch=1 n=f5 v=0
80213 On ch=1 n=b4 v=40
80555 Off ch=1 n=b4 v=0
80555 On ch=1 n=c#3 v=37
80555 On ch=1 n=c#4 v=37
80896 Par ch=1 c=64 v=0
80896 Off ch=1 n=c#3 v=0
80896 Off ch=1 n=c#4 v=0
80896 Off ch=1 n=c#3 v=0
80896 Off ch=1 n=c#4 v=0
80896 On ch=1 n=f#2 v=43
80896 On ch=1 n=f#3 v=31
81087 Par ch=1 c=64 v=127
81152 On ch=1 n=c#4 v=38
81408 Off ch=1 n=c#4 v=0
81408 On ch=1 n=a4 v=42
81664 Off ch=1 n=a4 v=0
81664 On ch=1 n=f#5 v=45
81920 Off ch=1 n=f#5 v=0
81920 On ch=1 n=f#5 v=49
81930 Par ch=1 c=64 v=0
82105 Par ch=1 c=64 v=127
82176 Off ch=1 n=f#5 v=0
82176 On ch=1 n=a4 v=44
82432 Off ch=1 n=a4 v=0
82432 On ch=1 n=c#4 v=40
82688 Off ch=1 n=c#4 v=0
82688 On ch=1 n=f#3 v=35
82944 Par ch=1 c=64 v=127
82944 Off ch=1 n=f#2 v=0
82944 Off ch=1 n=f#3 v=0
82944 Off ch=1 n=f#3 v=0
82944 On ch=1 n=f#2 v=42
82944 On ch=1 n=f#3 v=33
83039 Par ch=1 c=64 v=0
83247 Par ch=1 c=64 v=127
83285 On ch=1 n=e4 v=33
83627 Off ch=1 n=e4 v=0
83627 On ch=1 n=a#4 v=33
83968 Off ch=1 n=a#4 v=0
83968 On ch=1 n=f#5 v=33
84309 Off ch=1 n=f#5 v=0
84309 On ch=1 n=a#4 v=33
84651 Off ch=1 n=a#4 v=0
84651 On ch=1 n=e4 v=33
84992 Off ch=1 n=f#2 v=0
84992 Off ch=1 n=f#3 v=0
84992 Off ch=1 n=e4 v=0
84992 On ch=1 n=f#2 v=42
84992 On ch=1 n=f#3 v=33
85333 On ch=1 n=d4 v=33
85675 Off ch=1 n=d4 v=0
85675 On ch=1 n=b4 v=33
86016 Off ch=1 n=b4 v=0
86016 On ch=1 n=g5 v=33
86357 Off ch=1 n=g5 v=0
86357 On ch=1 n=b4 v=33
86699 Off ch=1 n=b4 v=0
86699 On ch=1 n=d4 v=33
87040 Par ch=1 c=64 v=127
87040 Par ch=1 c=64 v=0
87040 Off ch=1 n=d4 v=0
87040 Off ch=1 n=f#2 v=0
87040 Off ch=1 n=f#3 v=0
87040 On ch=1 n=f#2 v=42
87040 On ch=1 n=f#3 v=33
87135 Par ch=1 c=64 v=0
87296 On ch=1 n=c#4 v=33
87343 Par ch=1 c=64 v=127
87552 Off ch=1 n=c#4 v=0
87552 On ch=1 n=b4 v=33
87808 Off ch=1 n=b4 v=0
87808 On ch=1 n=e5 v=33
88064 Off ch=1 n=e5 v=0
88064 On ch=1 n=b5 v=33
88320 Off ch=1 n=b5 v=0
88320 On ch=1 n=e5 v=33
88576 Off ch=1 n=e5 v=0
88576 On ch=1 n=b4 v=33
88832 Off ch=1 n=b4 v=0
88832 On ch=1 n=c#4 v=33
89088 Off ch=1 n=f#2 v=0
89088 Off ch=1 n=f#3 v=0
89088 Off ch=1 n=c#4 v=0
89088 On ch=1 n=f#2 v=33
89088 On ch=1 n=f#3 v=24
89108 Par ch=1 c=64 v=0
89344 On ch=1 n=c#4 v=24
89381 Par ch=1 c=64 v=127
89600 Off ch=1 n=c#4 v=0
89600 On ch=1 n=a#4 v=33
89856 Off ch=1 n=a#4 v=0
89856 On ch=1 n=f#5 v=33
90112 Off ch=1 n=f#5 v=0
90112 On ch=1 n=a#5 v=33
90368 Off ch=1 n=a#5 v=0
90368 On ch=1 n=f#5 v=33
90624 Off ch=1 n=f#5 v=0
90624 On ch=1 n=a#4 v=33
90880 Off ch=1 n=a#4 v=0
90880 On ch=1 n=c#4 v=33
91136 Par ch=1 c=64 v=0
91136 Par ch=1 c=64 v=0
91136 Par ch=1 c=64 v=0
91136 Par ch=1 c=64 v=0
91136 Par ch=1 c=64 v=0
91136 Par ch=1 c=64 v=0
91136 Off ch=1 n=c#4 v=0
91136 Off ch=1 n=f#2 v=0
91136 Off ch=1 n=f#3 v=0
91136 On ch=1 n=f#2 v=48
91136 On ch=1 n=f#3 v=36
91152 Par ch=1 c=64 v=127
91253 Par ch=1 c=64 v=0
91351 Par ch=1 c=64 v=127
91477 On ch=1 n=d4 v=38
91819 Off ch=1 n=d4 v=0
91819 On ch=1 n=b4 v=35
92152 Par ch=1 c=64 v=0
92160 Off ch=1 n=b4 v=0
92160 On ch=1 n=f5 v=31
92358 Par ch=1 c=64 v=127
92501 Off ch=1 n=f5 v=0
92501 On ch=1 n=b4 v=28
92843 Off ch=1 n=b4 v=0
92843 On ch=1 n=d4 v=25
93184 Par ch=1 c=64 v=0
93184 Off ch=1 n=f#2 v=0
93184 Off ch=1 n=f#3 v=0
93184 Off ch=1 n=d4 v=0
93184 On ch=1 n=f#2 v=31
93184 On ch=1 n=f#3 v=19
93375 Par ch=1 c=64 v=127
93440 On ch=1 n=c#4 v=26
93696 Off ch=1 n=c#4 v=0
93696 On ch=1 n=a#4 v=30
93952 Off ch=1 n=a#4 v=0
93952 On ch=1 n=f#5 v=33
94062 Par ch=1 c=64 v=127
94208 Off ch=1 n=f#5 v=0
94208 On ch=1 n=c#6 v=37
94464 Off ch=1 n=c#6 v=0
94464 On ch=1 n=f#5 v=32
94720 Off ch=1 n=f#5 v=0
94720 On ch=1 n=a#4 v=28
94976 Off ch=1 n=a#4 v=0
94976 On ch=1 n=c#4 v=23
95232 Par ch=1 c=64 v=0
95232 Par ch=1 c=64 v=0
95232 Par ch=1 c=64 v=0
95232 Par ch=1 c=64 v=0
95232 Par ch=1 c=64 v=0
95232 Par ch=1 c=64 v=0
95232 Par ch=1 c=64 v=0
95232 Off ch=1 n=c#4 v=0
95232 Off ch=1 n=f#2 v=0
95232 Off ch=1 n=f#3 v=0
95232 On ch=1 n=f#2 v=39
95232 On ch=1 n=f#3 v=27
95248 Par ch=1 c=64 v=127
95349 Par ch=1 c=64 v=0
95447 Par ch=1 c=64 v=127
95573 On ch=1 n=d4 v=29
95915 Off ch=1 n=d4 v=0
95915 On ch=1 n=b4 v=26
96248 Par ch=1 c=64 v=0
96256 Off ch=1 n=b4 v=0
96256 On ch=1 n=f5 v=22
96454 Par ch=1 c=64 v=127
96597 Off ch=1 n=f5 v=0
96597 On ch=1 n=b4 v=19
96939 Off ch=1 n=b4 v=0
96939 On ch=1 n=d4 v=16
97280 Par ch=1 c=64 v=0
97280 Off ch=1 n=f#2 v=0
97280 Off ch=1 n=f#3 v=0
97280 Off ch=1 n=d4 v=0
97280 On ch=1 n=f#2 v=22
97280 On ch=1 n=f#3 v=10
97471 Par ch=1 c=64 v=127
97536 On ch=1 n=c#4 v=17
97792 Off ch=1 n=c#4 v=0
97792 On ch=1 n=a#4 v=21
98048 Off ch=1 n=a#4 v=0
98048 On ch=1 n=f#5 v=24
98158 Par ch=1 c=64 v=127
98304 Off ch=1 n=f#5 v=0
98304 On ch=1 n=c#6 v=28
98560 Off ch=1 n=c#6 v=0
98560 On ch=1 n=f#5 v=23
98816 Off ch=1 n=f#5 v=0
98816 On ch=1 n=a#4 v=19
99072 Off ch=1 n=a#4 v=0
99072 On ch=1 n=c#3 v=25
99072 Off ch=1 n=f#2 v=0
99072 Off ch=1 n=f#3 v=0
99072 On ch=1 n=c#4 v=25
99328 Par ch=1 c=64 v=0
99328 Off ch=1 n=c#3 v=0
99328 On ch=1 n=f#3 v=25
99366 Par ch=1 c=64 v=127
99480 Par ch=1 c=64 v=0
99650 Par ch=1 c=64 v=127
100096 Off ch=1 n=f#3 v=0
100096 On ch=1 n=c#3 v=22
100352 Off ch=1 n=c#3 v=0
100352 On ch=1 n=f#3 v=21
101120 Off ch=1 n=f#3 v=0
101120 On ch=1 n=c#3 v=19
101376 Off ch=1 n=c#3 v=0
101376 On ch=1 n=f#3 v=18
102144 Off ch=1 n=f#3 v=0
102144 On ch=1 n=c#3 v=15
102400 Off ch=1 n=c#3 v=0
102400 On ch=1 n=f#3 v=14
103168 Off ch=1 n=f#3 v=0
103168 On ch=1 n=c#3 v=12
103424 Par ch=1 c=64 v=127
103424 Off ch=1 n=c#4 v=0
103424 Off ch=1 n=c#3 v=0
103424 On ch=1 n=f#2 v=11
103552 On ch=1 n=f#3 v=10
103680 On ch=1 n=c#4 v=10
103765 Par ch=1 c=64 v=0
107520 Par ch=1 c=64 v=0
107520 Off ch=1 n=f#2 v=0
107520 Off ch=1 n=f#3 v=0
107520 Off ch=1 n=c#4 v=0
111616 Par ch=1 c=64 v=0
111617 Meta TrkEnd
TrkEnd
