MFile 1 7 480
MTrk
0 TimeSig 6/4 24 8
0 KeySig -6 major
0 Tempo 250000
5200 Tempo 576923
112316 Tempo 555556
114140 Tempo 560748
115956 Tempo 566038
116220 Tempo 552995
116580 Tempo 555556
116940 Tempo 558140
117280 Tempo 560748
117640 Tempo 563380
118000 Tempo 566038
118360 Tempo 568720
118700 Tempo 571429
119060 Tempo 574163
119420 Tempo 576923
119760 Tempo 579710
120120 Tempo 582524
120480 Tempo 585366
120820 Tempo 588235
120920 Tempo 576923
120920 Meta TrkEnd
TrkEnd
MTrk
0 SeqSpec 43 00 01 00
0 SysEx f0 41 10 42 12 40 00 7f 00 41 f7
0 SysEx f0 41 10 42 12 40 01 30 03 0c f7
0 Meta TrkEnd
TrkEnd
MTrk
0 SeqSpec 43 00 01 00
0 Meta TrkName "Etude No. 6"
0 Meta 0x21 00
480 Par ch=1 c=0 v=0
480 Par ch=1 c=91 v=64
480 Par ch=1 c=0 v=0
480 Par ch=1 c=93 v=20
488 PrCh ch=1 p=0
492 Par ch=1 c=7 v=127
5280 On ch=1 n=f#5 v=58
5732 On ch=1 n=f#5 v=0
5760 On ch=1 n=d#4 v=56
5764 On ch=1 n=f#5 v=57
5764 On ch=1 n=a#4 v=34
5840 Par ch=1 c=64 v=127
6004 On ch=1 n=b4 v=36
6040 On ch=1 n=a#4 v=0
6244 On ch=1 n=a4 v=35
6276 On ch=1 n=b4 v=0
6484 On ch=1 n=b4 v=34
6524 On ch=1 n=a4 v=0
6724 On ch=1 n=a#4 v=35
6732 Par ch=1 c=64 v=0
6768 On ch=1 n=b4 v=0
6956 On ch=1 n=f#4 v=34
6980 On ch=1 n=a#4 v=0
7196 On ch=1 n=a#4 v=33
7236 On ch=1 n=f#4 v=0
7436 On ch=1 n=b4 v=32
7468 On ch=1 n=a#4 v=0
7684 On ch=1 n=a4 v=33
7704 On ch=1 n=b4 v=0
7920 On ch=1 n=b4 v=33
7968 On ch=1 n=a4 v=0
8156 On ch=1 n=a#4 v=36
8164 On ch=1 n=f5 v=58
8176 On ch=1 n=b4 v=0
8216 On ch=1 n=f#5 v=0
8404 On ch=1 n=d#5 v=57
8440 On ch=1 n=f5 v=0
8472 On ch=1 n=a#4 v=0
8488 On ch=1 n=d#4 v=0
8636 On ch=1 n=f4 v=58
8644 On ch=1 n=a#5 v=63
8644 On ch=1 n=b4 v=33
8660 Par ch=1 c=64 v=127
8884 On ch=1 n=c#5 v=37
8936 On ch=1 n=b4 v=0
9108 On ch=1 n=c#5 v=0
9124 On ch=1 n=a#4 v=34
9148 Par ch=1 c=64 v=0
9356 On ch=1 n=c#5 v=31
9400 On ch=1 n=a#4 v=0
9596 On ch=1 n=b4 v=29
9648 On ch=1 n=c#5 v=0
9836 On ch=1 n=g#4 v=32
9880 On ch=1 n=b4 v=0
10036 On ch=1 n=a#5 v=0
10084 On ch=1 n=g#5 v=60
10084 On ch=1 n=b4 v=32
10144 On ch=1 n=g#4 v=0
10324 On ch=1 n=c#5 v=31
10408 On ch=1 n=b4 v=0
10552 On ch=1 n=c#5 v=0
10560 On ch=1 n=a#4 v=33
10796 On ch=1 n=c#5 v=36
10828 On ch=1 n=a#4 v=0
11036 On ch=1 n=b4 v=34
11092 On ch=1 n=c#5 v=0
11252 On ch=1 n=d#5 v=0
11256 Par ch=1 c=64 v=127
11276 On ch=1 n=f5 v=58
11276 On ch=1 n=g#4 v=32
11284 On ch=1 n=b4 v=0
11284 On ch=1 n=g#5 v=0
11384 On ch=1 n=f4 v=0
11516 On ch=1 n=b5 v=56
11516 On ch=1 n=d4 v=59
11756 On ch=1 n=a#4 v=30
11788 On ch=1 n=g#4 v=0
11996 On ch=1 n=g4 v=31
12036 On ch=1 n=a#4 v=0
12236 On ch=1 n=a#4 v=34
12284 On ch=1 n=g4 v=0
12476 On ch=1 n=g#4 v=33
12480 Par ch=1 c=64 v=0
12580 On ch=1 n=a#4 v=0
12716 On ch=1 n=f4 v=30
12720 On ch=1 n=g#4 v=0
12956 On ch=1 n=g#4 v=32
13040 On ch=1 n=f4 v=0
13196 On ch=1 n=a#4 v=35
13220 On ch=1 n=g#4 v=0
13432 On ch=1 n=a#4 v=0
13436 On ch=1 n=g4 v=37
13676 On ch=1 n=a#4 v=35
13740 On ch=1 n=g4 v=0
13916 On ch=1 n=a#5 v=59
13916 On ch=1 n=g#4 v=33
13924 Par ch=1 c=64 v=127
13968 On ch=1 n=a#4 v=0
14020 On ch=1 n=b5 v=0
14028 On ch=1 n=f5 v=0
14156 On ch=1 n=f5 v=59
14168 On ch=1 n=g#4 v=0
14180 On ch=1 n=a#5 v=0
14276 On ch=1 n=d4 v=0
14292 Par ch=1 c=64 v=0
14388 Par ch=1 c=64 v=127
14396 On ch=1 n=c#4 v=66
14400 On ch=1 n=e5 v=50
14404 On ch=1 n=f5 v=0
14404 On ch=1 n=a#5 v=64
14404 On ch=1 n=g4 v=33
14644 On ch=1 n=g#4 v=31
14708 On ch=1 n=g4 v=0
14884 On ch=1 n=f#4 v=34
14900 Par ch=1 c=64 v=0
14936 On ch=1 n=g#4 v=0
15124 On ch=1 n=g#4 v=35
15176 On ch=1 n=f#4 v=0
15364 On ch=1 n=g4 v=34
15504 On ch=1 n=g#4 v=0
15604 On ch=1 n=e4 v=33
15612 On ch=1 n=g4 v=0
15844 On ch=1 n=g4 v=34
15960 On ch=1 n=e4 v=0
16084 On ch=1 n=g#4 v=32
16148 On ch=1 n=g4 v=0
16324 On ch=1 n=f#4 v=39
16376 On ch=1 n=g#4 v=0
16564 On ch=1 n=g#4 v=38
16612 On ch=1 n=f#4 v=0
16804 On ch=1 n=g4 v=37
16808 Par ch=1 c=64 v=127
16888 On ch=1 n=g#4 v=0
17036 On ch=1 n=d#5 v=69
17068 On ch=1 n=e5 v=0
17160 On ch=1 n=a#5 v=0
17200 Par ch=1 c=64 v=0
17208 On ch=1 n=c#4 v=0
17276 On ch=1 n=b3 v=77
17284 On ch=1 n=d#6 v=82
17292 Par ch=1 c=64 v=127
17464 On ch=1 n=g4 v=0
17524 On ch=1 n=g#4 v=34
17764 On ch=1 n=f#4 v=38
17768 On ch=1 n=g#4 v=0
17800 Par ch=1 c=64 v=0
18004 On ch=1 n=g#4 v=39
18008 On ch=1 n=f#4 v=0
18240 On ch=1 n=g4 v=41
18288 On ch=1 n=g#4 v=0
18456 On ch=1 n=g4 v=0
18476 On ch=1 n=d#4 v=41
18716 On ch=1 n=g#4 v=40
18724 Par ch=1 c=64 v=127
18772 On ch=1 n=d#4 v=0
18956 On ch=1 n=a#4 v=37
18996 On ch=1 n=g#4 v=0
19192 Par ch=1 c=64 v=0
19196 On ch=1 n=g4 v=44
19204 On ch=1 n=c#6 v=77
19212 On ch=1 n=a#4 v=0
19216 On ch=1 n=d#6 v=0
19436 On ch=1 n=a#4 v=44
19444 On ch=1 n=b5 v=76
19464 On ch=1 n=g4 v=0
19564 On ch=1 n=c#6 v=0
19664 Par ch=1 c=64 v=127
19676 On ch=1 n=g#4 v=42
19680 On ch=1 n=g#5 v=73
19712 On ch=1 n=d#5 v=0
19720 On ch=1 n=a#4 v=0
19748 On ch=1 n=b5 v=0
19916 On ch=1 n=d#5 v=70
19944 On ch=1 n=b3 v=0
19960 On ch=1 n=g#5 v=0
20076 Par ch=1 c=64 v=0
20156 On ch=1 n=a#3 v=70
20164 On ch=1 n=f#5 v=69
20164 On ch=1 n=d5 v=49
20236 On ch=1 n=d#5 v=0
20388 On ch=1 n=g#4 v=0
20396 On ch=1 n=a#4 v=44
20632 On ch=1 n=a#4 v=0
20636 On ch=1 n=g4 v=44
20876 On ch=1 n=a#4 v=41
20904 On ch=1 n=g4 v=0
21116 On ch=1 n=g#4 v=45
21148 Par ch=1 c=64 v=127
21236 On ch=1 n=a#4 v=0
21356 On ch=1 n=d5 v=0
21356 On ch=1 n=f5 v=63
21356 On ch=1 n=f4 v=35
21380 On ch=1 n=g#4 v=0
21396 On ch=1 n=f#5 v=0
21548 On ch=1 n=a#3 v=0
21596 On ch=1 n=d#5 v=54
21596 On ch=1 n=f#4 v=43
21604 On ch=1 n=b3 v=51
21608 Par ch=1 c=64 v=0
21616 On ch=1 n=f5 v=0
21668 On ch=1 n=f4 v=0
21836 On ch=1 n=g#4 v=41
21896 On ch=1 n=f#4 v=0
22076 On ch=1 n=f4 v=41
22092 On ch=1 n=g#4 v=0
22316 On ch=1 n=g#4 v=41
22368 On ch=1 n=f4 v=0
22556 On ch=1 n=f#4 v=39
22560 Par ch=1 c=64 v=127
22660 On ch=1 n=g#4 v=0
22796 On ch=1 n=f#4 v=0
22796 On ch=1 n=d#4 v=37
22824 On ch=1 n=d#5 v=0
22952 On ch=1 n=b3 v=0
23024 Par ch=1 c=64 v=0
23036 On ch=1 n=e5 v=65
23036 On ch=1 n=g#4 v=49
23044 On ch=1 n=b4 v=44
23044 On ch=1 n=g#3 v=66
23056 On ch=1 n=d#4 v=0
23276 On ch=1 n=a#4 v=46
23300 On ch=1 n=g#4 v=0
23516 On ch=1 n=g4 v=48
23544 On ch=1 n=a#4 v=0
23756 On ch=1 n=a#4 v=49
23792 On ch=1 n=g4 v=0
23996 On ch=1 n=g#4 v=49
23996 Par ch=1 c=64 v=127
24168 On ch=1 n=a#4 v=0
24236 On ch=1 n=e4 v=45
24284 On ch=1 n=g#4 v=0
24372 On ch=1 n=g#3 v=0
24476 On ch=1 n=f#4 v=49
24476 On ch=1 n=a3 v=64
24480 Par ch=1 c=64 v=0
24484 On ch=1 n=d#5 v=67
24484 On ch=1 n=c5 v=45
24548 On ch=1 n=b4 v=0
24548 On ch=1 n=e5 v=0
24580 On ch=1 n=e4 v=0
24716 On ch=1 n=g#4 v=46
24776 On ch=1 n=f#4 v=0
24956 On ch=1 n=f4 v=44
24988 On ch=1 n=g#4 v=0
25196 On ch=1 n=g#4 v=46
25276 On ch=1 n=f4 v=0
25404 Par ch=1 c=64 v=127
25440 On ch=1 n=f#4 v=48
25588 On ch=1 n=g#4 v=0
25656 On ch=1 n=d#5 v=0
25680 On ch=1 n=b4 v=48
25692 On ch=1 n=c5 v=0
25848 On ch=1 n=a3 v=0
25904 Par ch=1 c=64 v=0
25916 On ch=1 n=a#4 v=48
25916 On ch=1 n=d#5 v=55
25916 On ch=1 n=a#3 v=61
25920 On ch=1 n=f#4 v=0
25924 On ch=1 n=f4 v=40
25948 On ch=1 n=b4 v=0
26048 On ch=1 n=d5 v=56
26100 On ch=1 n=d#5 v=0
26164 On ch=1 n=f#4 v=41
26200 On ch=1 n=f4 v=0
26396 On ch=1 n=e4 v=41
26404 On ch=1 n=f#4 v=0
26636 On ch=1 n=f#4 v=38
26676 On ch=1 n=e4 v=0
26876 On ch=1 n=f4 v=40
26944 On ch=1 n=f#4 v=0
27116 On ch=1 n=f4 v=0
27124 On ch=1 n=g#4 v=35
27256 On ch=1 n=a#4 v=0
27268 On ch=1 n=d5 v=0
27292 Par ch=1 c=64 v=127
27356 On ch=1 n=g#4 v=0
27356 On ch=1 n=f#4 v=41
27364 On ch=1 n=b4 v=43
27364 On ch=1 n=d#5 v=53
27596 On ch=1 n=a4 v=37
27628 On ch=1 n=f#4 v=0
27684 Par ch=1 c=64 v=0
27812 Par ch=1 c=64 v=127
27820 On ch=1 n=d#5 v=0
27836 On ch=1 n=c5 v=45
27836 On ch=1 n=e5 v=55
27836 On ch=1 n=g4 v=44
27848 On ch=1 n=a4 v=0
27960 On ch=1 n=b4 v=0
28076 On ch=1 n=a#4 v=37
28080 On ch=1 n=g4 v=0
28300 Par ch=1 c=64 v=0
28316 On ch=1 n=c#5 v=46
28316 On ch=1 n=g#4 v=40
28320 On ch=1 n=f5 v=58
28356 On ch=1 n=a#4 v=0
28372 On ch=1 n=c5 v=0
28416 On ch=1 n=e5 v=0
28556 On ch=1 n=a#3 v=0
28556 On ch=1 n=b4 v=34
28564 On ch=1 n=d5 v=46
28564 Par ch=1 c=64 v=127
28588 On ch=1 n=c#5 v=0
28612 On ch=1 n=g#4 v=0
28704 On ch=1 n=b4 v=0
28728 On ch=1 n=f5 v=0
28788 Par ch=1 c=64 v=0
28796 On ch=1 n=a#4 v=44
28804 On ch=1 n=d#5 v=48
28804 On ch=1 n=f#5 v=58
28804 On ch=1 n=d#4 v=55
28860 Par ch=1 c=64 v=127
28888 On ch=1 n=d5 v=0
29036 On ch=1 n=b4 v=35
29108 On ch=1 n=a#4 v=0
29276 On ch=1 n=a4 v=36
29292 On ch=1 n=b4 v=0
29516 On ch=1 n=b4 v=37
29520 On ch=1 n=a4 v=0
29756 On ch=1 n=a#4 v=35
29780 Par ch=1 c=64 v=0
29824 On ch=1 n=b4 v=0
29996 On ch=1 n=f#4 v=33
30024 On ch=1 n=a#4 v=0
30164 On ch=1 n=d#5 v=0
30236 On ch=1 n=a#4 v=28
30312 On ch=1 n=f#4 v=0
30476 On ch=1 n=b4 v=33
30552 On ch=1 n=a#4 v=0
30716 On ch=1 n=a4 v=30
30728 On ch=1 n=b4 v=0
30956 On ch=1 n=b4 v=35
30992 On ch=1 n=a4 v=0
31196 On ch=1 n=a#4 v=34
31204 On ch=1 n=f5 v=52
31272 On ch=1 n=f#5 v=0
31312 On ch=1 n=b4 v=0
31444 On ch=1 n=d#5 v=59
31468 On ch=1 n=d#4 v=0
31472 On ch=1 n=f5 v=0
31516 On ch=1 n=a#4 v=0
31668 Par ch=1 c=64 v=127
31684 On ch=1 n=a#5 v=65
31684 On ch=1 n=b4 v=33
31684 On ch=1 n=f4 v=57
31916 On ch=1 n=c#5 v=36
31960 On ch=1 n=b4 v=0
32136 Par ch=1 c=64 v=0
32156 On ch=1 n=c#5 v=0
32156 On ch=1 n=a#4 v=33
32400 On ch=1 n=c#5 v=38
32444 On ch=1 n=a#4 v=0
32640 On ch=1 n=b4 v=36
32700 On ch=1 n=c#5 v=0
32884 On ch=1 n=b4 v=0
32884 On ch=1 n=g#4 v=35
33124 On ch=1 n=g#5 v=60
33124 On ch=1 n=b4 v=33
33164 On ch=1 n=g#4 v=0
33172 On ch=1 n=a#5 v=0
33364 On ch=1 n=c#5 v=34
33432 On ch=1 n=b4 v=0
33564 On ch=1 n=c#5 v=0
33596 On ch=1 n=a#4 v=34
33840 On ch=1 n=c#5 v=36
33892 On ch=1 n=a#4 v=0
34076 On ch=1 n=b4 v=33
34120 On ch=1 n=c#5 v=0
34316 On ch=1 n=f5 v=58
34316 On ch=1 n=g#4 v=37
34324 On ch=1 n=b4 v=0
34324 Par ch=1 c=64 v=127
34344 On ch=1 n=g#5 v=0
34344 On ch=1 n=d#5 v=0
34516 On ch=1 n=f4 v=0
34556 On ch=1 n=b5 v=60
34564 On ch=1 n=d4 v=57
34796 On ch=1 n=a#4 v=37
34824 On ch=1 n=g#4 v=0
35036 On ch=1 n=g4 v=37
35092 On ch=1 n=a#4 v=0
35276 On ch=1 n=a#4 v=36
35332 On ch=1 n=g4 v=0
35508 Par ch=1 c=64 v=0
35516 On ch=1 n=g#4 v=34
35616 On ch=1 n=a#4 v=0
35756 On ch=1 n=f4 v=35
35792 On ch=1 n=g#4 v=0
35996 On ch=1 n=g#4 v=34
36068 On ch=1 n=f4 v=0
36236 On ch=1 n=a#4 v=37
36300 On ch=1 n=g#4 v=0
36476 On ch=1 n=g4 v=34
36516 On ch=1 n=a#4 v=0
36716 On ch=1 n=a#4 v=37
36816 On ch=1 n=g4 v=0
36920 Par ch=1 c=64 v=127
36956 On ch=1 n=g#4 v=39
36964 On ch=1 n=a#5 v=56
37020 On ch=1 n=b5 v=0
37040 On ch=1 n=a#4 v=0
37068 On ch=1 n=f5 v=0
37196 On ch=1 n=f5 v=65
37252 On ch=1 n=g#4 v=0
37272 Par ch=1 c=64 v=0
37288 On ch=1 n=a#5 v=0
37408 Par ch=1 c=64 v=127
37432 On ch=1 n=d4 v=0
37436 On ch=1 n=c#4 v=58
37444 On ch=1 n=e5 v=50
37444 On ch=1 n=a#5 v=69
37444 On ch=1 n=g4 v=36
37512 On ch=1 n=f5 v=0
37684 On ch=1 n=g#4 v=33
37688 On ch=1 n=g4 v=0
37912 Par ch=1 c=64 v=0
37924 On ch=1 n=f#4 v=34
37968 On ch=1 n=g#4 v=0
38164 On ch=1 n=g#4 v=36
38168 On ch=1 n=f#4 v=0
38404 On ch=1 n=g4 v=33
38456 On ch=1 n=g#4 v=0
38644 On ch=1 n=e4 v=32
38648 On ch=1 n=g4 v=0
38888 On ch=1 n=g4 v=36
38916 On ch=1 n=e4 v=0
39104 On ch=1 n=g4 v=0
39124 On ch=1 n=g#4 v=37
39364 On ch=1 n=f#4 v=38
39376 On ch=1 n=g#4 v=0
39596 On ch=1 n=g#4 v=39
39616 On ch=1 n=f#4 v=0
39804 Par ch=1 c=64 v=127
39844 On ch=1 n=g4 v=37
39868 On ch=1 n=g#4 v=0
40064 On ch=1 n=a#5 v=0
40068 On ch=1 n=e5 v=0
40076 On ch=1 n=d#5 v=73
40196 Par ch=1 c=64 v=0
40300 Par ch=1 c=64 v=127
40324 On ch=1 n=d#6 v=78
40324 On ch=1 n=b3 v=67
40360 On ch=1 n=c#4 v=0
40532 On ch=1 n=g4 v=0
40556 On ch=1 n=g#4 v=49
40780 Par ch=1 c=64 v=0
40796 On ch=1 n=f#4 v=41
40832 On ch=1 n=g#4 v=0
41036 On ch=1 n=g#4 v=45
41080 On ch=1 n=f#4 v=0
41280 On ch=1 n=g4 v=43
41360 On ch=1 n=g#4 v=0
41512 On ch=1 n=g4 v=0
41524 On ch=1 n=d#4 v=44
41708 Par ch=1 c=64 v=127
41764 On ch=1 n=g#4 v=47
41812 On ch=1 n=d#4 v=0
42004 On ch=1 n=a#4 v=47
42020 On ch=1 n=g#4 v=0
42192 On ch=1 n=d#6 v=0
42244 On ch=1 n=c#6 v=79
42244 On ch=1 n=g4 v=48
42256 Par ch=1 c=64 v=0
42284 On ch=1 n=a#4 v=0
42476 On ch=1 n=a#4 v=46
42480 On ch=1 n=g4 v=0
42484 On ch=1 n=b5 v=79
42524 On ch=1 n=c#6 v=0
42720 Par ch=1 c=64 v=127
42724 On ch=1 n=g#5 v=76
42724 On ch=1 n=g#4 v=46
42752 On ch=1 n=b5 v=0
42768 On ch=1 n=a#4 v=0
42952 On ch=1 n=d#5 v=0
42960 On ch=1 n=d#5 v=74
43016 On ch=1 n=g#5 v=0
43160 On ch=1 n=b3 v=0
43204 On ch=1 n=d5 v=49
43204 On ch=1 n=f#5 v=69
43204 On ch=1 n=a#3 v=63
43236 On ch=1 n=d#5 v=0
43292 Par ch=1 c=64 v=0
43340 On ch=1 n=g#4 v=0
43444 On ch=1 n=a#4 v=50
43684 On ch=1 n=g4 v=45
43708 On ch=1 n=a#4 v=0
43920 On ch=1 n=g4 v=0
43924 On ch=1 n=a#4 v=47
44164 On ch=1 n=g#4 v=42
44200 Par ch=1 c=64 v=127
44260 On ch=1 n=a#4 v=0
44404 On ch=1 n=f5 v=58
44404 On ch=1 n=f4 v=38
44408 On ch=1 n=g#4 v=0
44516 On ch=1 n=d5 v=0
44536 On ch=1 n=f#5 v=0
44596 On ch=1 n=a#3 v=0
44644 On ch=1 n=d#5 v=51
44644 On ch=1 n=f#4 v=47
44644 On ch=1 n=b3 v=51
44652 Par ch=1 c=64 v=0
44688 On ch=1 n=f4 v=0
44720 On ch=1 n=f5 v=0
44876 On ch=1 n=g#4 v=36
44880 On ch=1 n=f#4 v=0
45124 On ch=1 n=f4 v=36
45168 On ch=1 n=g#4 v=0
45364 On ch=1 n=g#4 v=39
45372 On ch=1 n=f4 v=0
45604 On ch=1 n=f#4 v=39
45604 Par ch=1 c=64 v=127
45692 On ch=1 n=g#4 v=0
45844 On ch=1 n=f#4 v=0
45844 On ch=1 n=d#4 v=37
45968 On ch=1 n=d#5 v=0
46020 On ch=1 n=d#4 v=0
46084 On ch=1 n=b3 v=0
46084 On ch=1 n=e5 v=69
46084 On ch=1 n=b4 v=52
46084 On ch=1 n=g#4 v=34
46084 On ch=1 n=g#3 v=59
46084 Par ch=1 c=64 v=0
46316 On ch=1 n=a#4 v=44
46344 On ch=1 n=g#4 v=0
46560 On ch=1 n=g4 v=44
46600 On ch=1 n=a#4 v=0
46796 On ch=1 n=a#4 v=47
46828 On ch=1 n=g4 v=0
47036 On ch=1 n=g#4 v=42
47040 On ch=1 n=a#4 v=0
47060 Par ch=1 c=64 v=127
47276 On ch=1 n=e4 v=46
47288 On ch=1 n=g#4 v=0
47468 On ch=1 n=e4 v=0
47508 Par ch=1 c=64 v=0
47516 On ch=1 n=f4 v=43
47516 On ch=1 n=a#3 v=60
47520 On ch=1 n=e5 v=0
47520 On ch=1 n=g#4 v=50
47524 On ch=1 n=g#3 v=0
47524 On ch=1 n=d5 v=67
47528 On ch=1 n=b4 v=0
47756 On ch=1 n=f#4 v=48
47780 On ch=1 n=f4 v=0
47996 On ch=1 n=e4 v=46
48040 On ch=1 n=f#4 v=0
48244 On ch=1 n=f#4 v=44
48284 On ch=1 n=e4 v=0
48484 On ch=1 n=f4 v=40
48500 Par ch=1 c=64 v=127
48620 On ch=1 n=f#4 v=0
48684 On ch=1 n=a#3 v=0
48716 On ch=1 n=f4 v=0
48724 On ch=1 n=d#5 v=61
48724 On ch=1 n=a#3 v=50
48800 On ch=1 n=d5 v=0
48840 On ch=1 n=g#4 v=0
48900 On ch=1 n=d#5 v=0
48968 On ch=1 n=d#5 v=60
48968 On ch=1 n=f#4 v=50
48968 On ch=1 n=d#3 v=52
48980 Par ch=1 c=64 v=0
49064 Par ch=1 c=64 v=127
49104 On ch=1 n=a#3 v=0
49204 On ch=1 n=c4 v=41
49444 On ch=1 n=a3 v=41
49476 On ch=1 n=c4 v=0
49528 Par ch=1 c=64 v=0
49684 On ch=1 n=c4 v=41
49724 On ch=1 n=a3 v=0
49924 On ch=1 n=a#3 v=41
50040 On ch=1 n=c4 v=0
50164 On ch=1 n=f#3 v=41
50176 On ch=1 n=a#3 v=0
50312 On ch=1 n=d#5 v=0
50316 On ch=1 n=d#3 v=0
50316 On ch=1 n=f#4 v=0
50368 On ch=1 n=f#3 v=0
50404 On ch=1 n=d#3 v=52
50644 On ch=1 n=f3 v=54
50704 On ch=1 n=d#3 v=0
50884 On ch=1 n=d3 v=52
50888 On ch=1 n=f3 v=0
51116 On ch=1 n=f3 v=51
51152 On ch=1 n=d3 v=0
51364 On ch=1 n=d#3 v=50
51376 On ch=1 n=f3 v=0
51596 On ch=1 n=b2 v=49
51604 On ch=1 n=d#3 v=0
51764 On ch=1 n=b2 v=0
51844 On ch=1 n=f5 v=58
51844 On ch=1 n=d#5 v=48
51844 On ch=1 n=a#4 v=41
51844 On ch=1 n=a#3 v=57
51844 On ch=1 n=a#2 v=56
51896 Par ch=1 c=64 v=127
52076 On ch=1 n=b4 v=35
52116 On ch=1 n=a#4 v=0
52324 On ch=1 n=a4 v=38
52332 Par ch=1 c=64 v=0
52344 On ch=1 n=b4 v=0
52544 On ch=1 n=a4 v=0
52556 On ch=1 n=b4 v=39
52796 On ch=1 n=a#4 v=40
52796 Par ch=1 c=64 v=127
52900 On ch=1 n=b4 v=0
53044 On ch=1 n=f4 v=40
53080 On ch=1 n=a#4 v=0
53132 On ch=1 n=a#3 v=0
53144 On ch=1 n=a#2 v=0
53152 On ch=1 n=d#5 v=0
53176 On ch=1 n=f5 v=0
53180 Par ch=1 c=64 v=0
53276 On ch=1 n=a#3 v=57
53276 Par ch=1 c=64 v=127
53284 On ch=1 n=a#4 v=37
53288 On ch=1 n=f5 v=55
53288 On ch=1 n=d5 v=45
53340 On ch=1 n=f4 v=0
53516 On ch=1 n=b4 v=41
53556 On ch=1 n=a#4 v=0
53764 On ch=1 n=a4 v=40
53796 On ch=1 n=b4 v=0
53988 On ch=1 n=a4 v=0
53996 On ch=1 n=b4 v=41
54056 Par ch=1 c=64 v=0
54184 On ch=1 n=d5 v=0
54184 Par ch=1 c=64 v=127
54236 On ch=1 n=f5 v=0
54236 On ch=1 n=a#4 v=42
54244 On ch=1 n=c#5 v=50
54244 On ch=1 n=g5 v=60
54260 On ch=1 n=b4 v=0
54460 On ch=1 n=a#3 v=0
54476 On ch=1 n=f4 v=41
54492 On ch=1 n=a#4 v=0
54540 On ch=1 n=c#5 v=0
54548 On ch=1 n=g5 v=0
54592 Par ch=1 c=64 v=0
54696 Par ch=1 c=64 v=127
54716 On ch=1 n=f3 v=55
54724 On ch=1 n=g#5 v=64
54724 On ch=1 n=g#4 v=52
54724 On ch=1 n=c5 v=51
54724 On ch=1 n=g5 v=39
54960 On ch=1 n=g4 v=44
54964 On ch=1 n=f4 v=0
55196 On ch=1 n=e4 v=45
55212 On ch=1 n=g4 v=0
55436 On ch=1 n=g4 v=45
55496 On ch=1 n=e4 v=0
55656 Par ch=1 c=64 v=0
55676 On ch=1 n=f4 v=44
55760 On ch=1 n=g4 v=0
55916 On ch=1 n=c4 v=43
55932 On ch=1 n=f4 v=0
55996 On ch=1 n=c5 v=0
56004 On ch=1 n=g5 v=0
56012 On ch=1 n=g#4 v=0
56032 On ch=1 n=g#5 v=0
56092 On ch=1 n=f3 v=0
56148 On ch=1 n=c4 v=0
56160 On ch=1 n=b3 v=44
56164 On ch=1 n=g#5 v=62
56164 On ch=1 n=f5 v=50
56164 On ch=1 n=g#4 v=57
56164 On ch=1 n=d5 v=44
56396 On ch=1 n=c4 v=42
56416 On ch=1 n=b3 v=0
56644 On ch=1 n=a#3 v=41
56704 On ch=1 n=c4 v=0
56884 On ch=1 n=c4 v=42
56912 On ch=1 n=a#3 v=0
57124 On ch=1 n=b3 v=43
57168 On ch=1 n=c4 v=0
57364 On ch=1 n=b2 v=40
57380 On ch=1 n=b3 v=0
57452 Par ch=1 c=64 v=127
57516 On ch=1 n=d5 v=0
57516 On ch=1 n=f5 v=0
57540 On ch=1 n=g#5 v=0
57544 On ch=1 n=g#4 v=0
57548 On ch=1 n=b2 v=0
57604 On ch=1 n=f5 v=46
57604 On ch=1 n=g5 v=56
57604 On ch=1 n=d5 v=36
57604 On ch=1 n=c3 v=56
57652 Par ch=1 c=64 v=0
57752 Par ch=1 c=64 v=127
57832 On ch=1 n=d5 v=0
57844 On ch=1 n=d#5 v=35
58084 On ch=1 n=c#5 v=32
58104 Par ch=1 c=64 v=0
58120 On ch=1 n=d#5 v=0
58320 On ch=1 n=d#5 v=36
58340 On ch=1 n=c#5 v=0
58548 Par ch=1 c=64 v=127
58564 On ch=1 n=d5 v=34
58604 On ch=1 n=d#5 v=0
58800 On ch=1 n=g4 v=34
58804 On ch=1 n=d5 v=0
58856 Par ch=1 c=64 v=0
58888 On ch=1 n=f5 v=0
58900 On ch=1 n=c3 v=0
58928 On ch=1 n=g5 v=0
59000 On ch=1 n=g4 v=0
59020 Par ch=1 c=64 v=127
59036 On ch=1 n=g5 v=61
59036 On ch=1 n=e5 v=51
59044 On ch=1 n=c5 v=44
59044 On ch=1 n=c4 v=56
59284 On ch=1 n=d5 v=41
59312 On ch=1 n=c5 v=0
59524 On ch=1 n=b4 v=41
59556 On ch=1 n=d5 v=0
59764 On ch=1 n=d5 v=42
59792 On ch=1 n=b4 v=0
60004 On ch=1 n=a5 v=62
60004 On ch=1 n=d#5 v=52
60004 On ch=1 n=c5 v=50
60016 On ch=1 n=e5 v=0
60020 On ch=1 n=d5 v=0
60060 On ch=1 n=g5 v=0
60088 Par ch=1 c=64 v=0
60192 Par ch=1 c=64 v=127
60228 On ch=1 n=c5 v=0
60244 On ch=1 n=g4 v=42
60280 On ch=1 n=d#5 v=0
60280 On ch=1 n=a5 v=0
60340 On ch=1 n=c4 v=0
60352 Par ch=1 c=64 v=0
60480 Par ch=1 c=64 v=127
60484 On ch=1 n=a#5 v=67
60484 On ch=1 n=a5 v=44
60484 On ch=1 n=g3 v=58
60488 On ch=1 n=a#4 v=64
60488 On ch=1 n=d5 v=51
60648 On ch=1 n=g4 v=0
60728 On ch=1 n=a4 v=41
60964 On ch=1 n=f#4 v=40
60988 On ch=1 n=a4 v=0
61204 On ch=1 n=a4 v=38
61248 On ch=1 n=f#4 v=0
61432 Par ch=1 c=64 v=0
61444 On ch=1 n=g4 v=43
61476 On ch=1 n=a4 v=0
61684 On ch=1 n=d4 v=43
61696 On ch=1 n=g4 v=0
61764 On ch=1 n=d5 v=0
61780 On ch=1 n=a#4 v=0
61792 On ch=1 n=a5 v=0
61812 On ch=1 n=a#5 v=0
61836 On ch=1 n=g3 v=0
61908 On ch=1 n=d4 v=0
61924 On ch=1 n=a#4 v=58
61928 On ch=1 n=a#5 v=58
61928 On ch=1 n=e5 v=48
61928 On ch=1 n=g5 v=45
61928 On ch=1 n=c#4 v=53
62164 On ch=1 n=d4 v=53
62208 On ch=1 n=c#4 v=0
62408 On ch=1 n=c4 v=51
62424 On ch=1 n=d4 v=0
62644 On ch=1 n=d4 v=50
62648 On ch=1 n=c4 v=0
62752 On ch=1 n=a#5 v=0
62752 On ch=1 n=a#4 v=0
62776 On ch=1 n=g5 v=0
62884 On ch=1 n=c#4 v=52
62888 On ch=1 n=a#4 v=60
62888 On ch=1 n=a#5 v=64
62904 Par ch=1 c=64 v=127
62932 On ch=1 n=d4 v=0
63120 On ch=1 n=a#5 v=0
63124 On ch=1 n=g3 v=48
63132 On ch=1 n=e5 v=0
63148 On ch=1 n=a#4 v=0
63148 On ch=1 n=c#4 v=0
63228 Par ch=1 c=64 v=0
63324 On ch=1 n=g3 v=0
63364 On ch=1 n=b4 v=56
63364 On ch=1 n=e5 v=56
63364 On ch=1 n=g#3 v=73
63364 Par ch=1 c=64 v=127
63368 On ch=1 n=b5 v=79
63604 On ch=1 n=f#5 v=45
63620 On ch=1 n=e5 v=0
63692 On ch=1 n=b4 v=0
63848 On ch=1 n=d#5 v=47
63888 On ch=1 n=f#5 v=0
64084 On ch=1 n=f#5 v=47
64088 Par ch=1 c=64 v=0
64120 On ch=1 n=d#5 v=0
64324 On ch=1 n=e5 v=48
64324 Par ch=1 c=64 v=127
64408 On ch=1 n=f#5 v=0
64564 On ch=1 n=b4 v=51
64588 On ch=1 n=e5 v=0
64704 On ch=1 n=g#3 v=0
64720 On ch=1 n=b5 v=0
64776 Par ch=1 c=64 v=0
64804 On ch=1 n=a5 v=68
64804 On ch=1 n=c#4 v=69
64808 On ch=1 n=e5 v=55
64808 On ch=1 n=c#3 v=69
64868 On ch=1 n=b4 v=0
65036 On ch=1 n=e5 v=0
65044 On ch=1 n=f#5 v=48
65284 On ch=1 n=d#5 v=47
65316 On ch=1 n=f#5 v=0
65520 On ch=1 n=d#5 v=0
65524 On ch=1 n=f#5 v=49
65764 On ch=1 n=g#5 v=61
65764 On ch=1 n=e5 v=47
65804 Par ch=1 c=64 v=127
65856 On ch=1 n=f#5 v=0
65864 On ch=1 n=a5 v=0
65940 On ch=1 n=c#3 v=0
65984 On ch=1 n=c#4 v=0
65996 On ch=1 n=b4 v=45
66020 On ch=1 n=e5 v=0
66136 On ch=1 n=g#5 v=0
66216 Par ch=1 c=64 v=0
66240 On ch=1 n=c#5 v=57
66244 On ch=1 n=g#5 v=65
66244 On ch=1 n=e5 v=44
66244 On ch=1 n=f#3 v=60
66244 On ch=1 n=f#2 v=60
66264 On ch=1 n=b4 v=0
66484 On ch=1 n=d#5 v=50
66520 On ch=1 n=c#5 v=0
66724 On ch=1 n=c5 v=48
66752 On ch=1 n=d#5 v=0
66964 On ch=1 n=d#5 v=48
66968 On ch=1 n=c5 v=0
67208 On ch=1 n=c#5 v=49
67224 Par ch=1 c=64 v=127
67248 On ch=1 n=d#5 v=0
67448 On ch=1 n=a4 v=46
67472 On ch=1 n=c#5 v=0
67540 On ch=1 n=f#2 v=0
67592 On ch=1 n=e5 v=0
67600 On ch=1 n=f#3 v=0
67600 On ch=1 n=g#5 v=0
67660 Par ch=1 c=64 v=0
67684 On ch=1 n=e5 v=41
67684 On ch=1 n=f#5 v=57
67688 On ch=1 n=c#5 v=51
67688 On ch=1 n=g#2 v=56
67688 On ch=1 n=g#3 v=56
67728 On ch=1 n=a4 v=0
67920 On ch=1 n=c#5 v=0
67928 On ch=1 n=d#5 v=52
68168 On ch=1 n=c5 v=52
68200 On ch=1 n=d#5 v=0
68404 On ch=1 n=c5 v=0
68408 On ch=1 n=d#5 v=50
68552 On ch=1 n=g#3 v=0
68552 On ch=1 n=g#2 v=0
68636 On ch=1 n=e5 v=0
68640 On ch=1 n=f#5 v=0
68644 On ch=1 n=a3 v=58
68644 On ch=1 n=a2 v=58
68648 On ch=1 n=c#5 v=49
68672 Par ch=1 c=64 v=127
68688 On ch=1 n=d#5 v=0
68884 On ch=1 n=f#4 v=50
68888 On ch=1 n=c#5 v=0
68980 Par ch=1 c=64 v=0
69016 On ch=1 n=a2 v=0
69036 On ch=1 n=a3 v=0
69072 On ch=1 n=f#4 v=0
69124 On ch=1 n=e5 v=49
69124 On ch=1 n=a5 v=64
69128 On ch=1 n=c#5 v=55
69128 On ch=1 n=b3 v=64
69128 On ch=1 n=b2 v=64
69140 Par ch=1 c=64 v=127
69364 On ch=1 n=d#5 v=55
69392 On ch=1 n=c#5 v=0
69572 Par ch=1 c=64 v=0
69608 On ch=1 n=c5 v=55
69648 On ch=1 n=d#5 v=0
69836 On ch=1 n=c5 v=0
69844 On ch=1 n=d#5 v=54
70084 On ch=1 n=c#5 v=53
70096 Par ch=1 c=64 v=127
70164 On ch=1 n=d#5 v=0
70324 On ch=1 n=f#4 v=52
70348 On ch=1 n=c#5 v=0
70436 On ch=1 n=b3 v=0
70460 On ch=1 n=e5 v=0
70464 On ch=1 n=a5 v=0
70532 On ch=1 n=f#4 v=0
70540 Par ch=1 c=64 v=0
70564 On ch=1 n=d#5 v=47
70564 On ch=1 n=g#5 v=69
70564 On ch=1 n=b4 v=55
70564 On ch=1 n=b3 v=65
70804 On ch=1 n=c#5 v=46
70836 On ch=1 n=b4 v=0
71044 On ch=1 n=a4 v=51
71068 On ch=1 n=c#5 v=0
71284 On ch=1 n=a4 v=0
71284 On ch=1 n=c#5 v=52
71344 On ch=1 n=b3 v=0
71380 On ch=1 n=g#5 v=0
71412 On ch=1 n=d#5 v=0
71512 Par ch=1 c=64 v=127
71524 On ch=1 n=d#5 v=43
71524 On ch=1 n=f#5 v=63
71524 On ch=1 n=b4 v=50
71524 On ch=1 n=b3 v=61
71596 On ch=1 n=c#5 v=0
71748 On ch=1 n=b4 v=0
71756 On ch=1 n=f#4 v=51
71820 On ch=1 n=b2 v=0
71856 On ch=1 n=b3 v=0
71864 Par ch=1 c=64 v=0
71884 On ch=1 n=f#5 v=0
71884 On ch=1 n=d#5 v=0
71960 On ch=1 n=f#4 v=0
71984 Par ch=1 c=64 v=127
72004 On ch=1 n=d#5 v=43
72004 On ch=1 n=f#5 v=63
72004 On ch=1 n=b4 v=50
72004 On ch=1 n=b3 v=60
72004 On ch=1 n=e3 v=60
72244 On ch=1 n=c#5 v=48
72268 On ch=1 n=b4 v=0
72484 On ch=1 n=a4 v=49
72508 On ch=1 n=c#5 v=0
72716 On ch=1 n=c#5 v=49
72744 On ch=1 n=a4 v=0
72784 Par ch=1 c=64 v=0
72920 Par ch=1 c=64 v=127
72960 On ch=1 n=b4 v=37
72964 On ch=1 n=g#5 v=59
72964 On ch=1 n=e5 v=41
73016 On ch=1 n=c#5 v=0
73040 On ch=1 n=f#5 v=0
73044 On ch=1 n=d#5 v=0
73196 On ch=1 n=b4 v=0
73204 On ch=1 n=g#4 v=48
73296 On ch=1 n=e5 v=0
73296 On ch=1 n=g#5 v=0
73436 On ch=1 n=e5 v=37
73436 On ch=1 n=g#5 v=57
73440 On ch=1 n=b4 v=47
73464 On ch=1 n=g#4 v=0
73656 On ch=1 n=b4 v=0
73676 On ch=1 n=c#5 v=47
73916 On ch=1 n=a4 v=45
73936 Par ch=1 c=64 v=0
73944 On ch=1 n=c#5 v=0
74156 On ch=1 n=c#5 v=47
74160 On ch=1 n=a4 v=0
74396 On ch=1 n=b4 v=43
74396 Par ch=1 c=64 v=127
74508 On ch=1 n=c#5 v=0
74600 On ch=1 n=b4 v=0
74636 On ch=1 n=g#4 v=42
74736 On ch=1 n=g#5 v=0
74740 On ch=1 n=e5 v=0
74772 On ch=1 n=e3 v=0
74800 On ch=1 n=b3 v=0
74876 On ch=1 n=f#5 v=43
74880 On ch=1 n=g#5 v=54
74884 On ch=1 n=g#4 v=0
74884 On ch=1 n=d#5 v=43
74884 On ch=1 n=c4 v=60
74884 On ch=1 n=c3 v=60
74912 Par ch=1 c=64 v=0
75124 On ch=1 n=e5 v=42
75152 On ch=1 n=d#5 v=0
75364 On ch=1 n=d5 v=41
75392 On ch=1 n=e5 v=0
75604 On ch=1 n=e5 v=42
75632 On ch=1 n=d5 v=0
75844 On ch=1 n=d#5 v=43
75844 Par ch=1 c=64 v=127
75948 On ch=1 n=e5 v=0
76084 On ch=1 n=g#4 v=43
76112 On ch=1 n=d#5 v=0
76148 On ch=1 n=c3 v=0
76168 On ch=1 n=c4 v=0
76280 On ch=1 n=g#5 v=0
76280 On ch=1 n=f#5 v=0
76312 Par ch=1 c=64 v=0
76324 On ch=1 n=g#5 v=54
76324 On ch=1 n=e5 v=54
76324 On ch=1 n=c#5 v=44
76324 On ch=1 n=c#3 v=61
76324 On ch=1 n=c#4 v=61
76328 On ch=1 n=g#4 v=0
76556 On ch=1 n=d#5 v=45
76588 On ch=1 n=c#5 v=0
76796 On ch=1 n=c5 v=46
76804 On ch=1 n=d#5 v=0
77044 On ch=1 n=d#5 v=46
77112 On ch=1 n=c5 v=0
77160 On ch=1 n=e5 v=0
77180 On ch=1 n=g#5 v=0
77264 Par ch=1 c=64 v=127
77280 On ch=1 n=g#5 v=59
77284 On ch=1 n=e5 v=59
77284 On ch=1 n=c#5 v=47
77304 On ch=1 n=d#5 v=0
77524 On ch=1 n=g#4 v=49
77576 On ch=1 n=c#5 v=0
77608 Par ch=1 c=64 v=0
77684 On ch=1 n=e5 v=0
77688 On ch=1 n=g#5 v=0
77692 On ch=1 n=c#4 v=0
77728 On ch=1 n=c#3 v=0
77732 Par ch=1 c=64 v=127
77764 On ch=1 n=g#4 v=0
77764 On ch=1 n=c#6 v=62
77764 On ch=1 n=g#5 v=62
77764 On ch=1 n=d#5 v=50
77764 On ch=1 n=g#3 v=60
78004 On ch=1 n=e5 v=49
78028 On ch=1 n=d#5 v=0
78212 Par ch=1 c=64 v=0
78244 On ch=1 n=d5 v=49
78272 On ch=1 n=e5 v=0
78476 On ch=1 n=e5 v=47
78488 On ch=1 n=d5 v=0
78724 On ch=1 n=d#5 v=46
78772 Par ch=1 c=64 v=127
78832 On ch=1 n=e5 v=0
78964 On ch=1 n=g#4 v=47
78996 On ch=1 n=d#5 v=0
79180 On ch=1 n=g#5 v=0
79204 On ch=1 n=g#5 v=53
79204 On ch=1 n=d#5 v=42
79208 On ch=1 n=c#6 v=0
79208 On ch=1 n=c6 v=54
79264 Par ch=1 c=64 v=0
79300 On ch=1 n=g#4 v=0
79444 On ch=1 n=e5 v=40
79464 On ch=1 n=d#5 v=0
79684 On ch=1 n=d5 v=40
79728 On ch=1 n=e5 v=0
79924 On ch=1 n=e5 v=43
79936 On ch=1 n=d5 v=0
80112 On ch=1 n=c6 v=0
80140 On ch=1 n=g#5 v=0
80164 On ch=1 n=d#5 v=43
80180 Par ch=1 c=64 v=127
80224 On ch=1 n=e5 v=0
80404 On ch=1 n=g#4 v=42
80436 On ch=1 n=d#5 v=0
80508 On ch=1 n=g#3 v=0
80612 On ch=1 n=g#4 v=0
80644 On ch=1 n=g#5 v=63
80644 On ch=1 n=f#5 v=44
80644 On ch=1 n=d#5 v=44
80644 On ch=1 n=c4 v=52
80644 On ch=1 n=c3 v=52
80880 On ch=1 n=e5 v=47
80904 On ch=1 n=d#5 v=0
81120 On ch=1 n=d5 v=51
81132 On ch=1 n=e5 v=0
81360 On ch=1 n=e5 v=40
81392 On ch=1 n=d5 v=0
81480 Par ch=1 c=64 v=0
81568 Par ch=1 c=64 v=127
81596 On ch=1 n=d#5 v=47
81644 On ch=1 n=e5 v=0
81840 On ch=1 n=g#4 v=49
81876 On ch=1 n=d#5 v=0
81924 On ch=1 n=c3 v=0
81928 On ch=1 n=c4 v=0
81960 On ch=1 n=f#5 v=0
81968 On ch=1 n=g#5 v=0
82076 On ch=1 n=g#5 v=62
82076 On ch=1 n=e5 v=52
82084 On ch=1 n=c#5 v=55
82084 On ch=1 n=c#3 v=62
82084 On ch=1 n=c#4 v=62
82084 Par ch=1 c=64 v=0
82168 On ch=1 n=g#4 v=0
82316 On ch=1 n=d#5 v=53
82344 On ch=1 n=c#5 v=0
82556 On ch=1 n=d#5 v=0
82556 On ch=1 n=c5 v=52
82796 On ch=1 n=d#5 v=52
82832 On ch=1 n=c5 v=0
82916 On ch=1 n=e5 v=0
82948 On ch=1 n=g#5 v=0
83036 On ch=1 n=g#5 v=64
83036 On ch=1 n=e5 v=54
83036 On ch=1 n=c#5 v=49
83036 Par ch=1 c=64 v=127
83064 On ch=1 n=d#5 v=0
83276 On ch=1 n=g#4 v=52
83308 On ch=1 n=c#5 v=0
83312 On ch=1 n=c#4 v=0
83372 On ch=1 n=e5 v=0
83384 On ch=1 n=g#5 v=0
83400 On ch=1 n=c#3 v=0
83500 On ch=1 n=g#4 v=0
83500 Par ch=1 c=64 v=0
83516 On ch=1 n=e6 v=68
83516 On ch=1 n=g#3 v=71
83520 On ch=1 n=g#2 v=71
83524 On ch=1 n=c6 v=49
83524 On ch=1 n=g#5 v=48
83544 Par ch=1 c=64 v=127
83764 On ch=1 n=a5 v=43
83804 On ch=1 n=g#5 v=0
84004 On ch=1 n=g5 v=44
84032 On ch=1 n=a5 v=0
84044 Par ch=1 c=64 v=0
84244 On ch=1 n=a5 v=40
84264 On ch=1 n=g5 v=0
84484 On ch=1 n=g#5 v=42
84484 Par ch=1 c=64 v=127
84552 On ch=1 n=a5 v=0
84724 On ch=1 n=d#5 v=45
84752 On ch=1 n=g#5 v=0
84840 On ch=1 n=c6 v=0
84880 On ch=1 n=e6 v=0
84964 On ch=1 n=c6 v=46
84964 On ch=1 n=d#6 v=56
84964 On ch=1 n=g#5 v=47
85000 Par ch=1 c=64 v=0
85028 On ch=1 n=d#5 v=0
85204 On ch=1 n=a5 v=40
85252 On ch=1 n=g#5 v=0
85444 On ch=1 n=g5 v=41
85476 On ch=1 n=a5 v=0
85684 On ch=1 n=a5 v=40
85732 On ch=1 n=g5 v=0
85912 Par ch=1 c=64 v=127
85924 On ch=1 n=g#5 v=35
85960 On ch=1 n=a5 v=0
86144 On ch=1 n=g#3 v=0
86148 On ch=1 n=g#2 v=0
86160 On ch=1 n=d#5 v=32
86200 On ch=1 n=g#5 v=0
86252 On ch=1 n=d#6 v=0
86272 On ch=1 n=c6 v=0
86344 On ch=1 n=d#5 v=0
86404 On ch=1 n=f#5 v=42
86404 On ch=1 n=g#5 v=52
86404 On ch=1 n=d#5 v=42
86404 On ch=1 n=c4 v=50
86404 On ch=1 n=c3 v=50
86412 Par ch=1 c=64 v=0
86644 On ch=1 n=e5 v=41
86688 On ch=1 n=d#5 v=0
86884 On ch=1 n=d5 v=43
86900 On ch=1 n=e5 v=0
87116 On ch=1 n=e5 v=42
87132 On ch=1 n=d5 v=0
87352 Par ch=1 c=64 v=127
87356 On ch=1 n=d#5 v=44
87400 On ch=1 n=e5 v=0
87596 On ch=1 n=g#4 v=41
87604 On ch=1 n=c3 v=0
87632 On ch=1 n=d#5 v=0
87640 On ch=1 n=c4 v=0
87720 On ch=1 n=f#5 v=0
87740 On ch=1 n=g#5 v=0
87812 Par ch=1 c=64 v=0
87816 On ch=1 n=g#4 v=0
87844 On ch=1 n=g#5 v=43
87844 On ch=1 n=b5 v=53
87844 On ch=1 n=f5 v=43
87844 On ch=1 n=d#4 v=54
87844 On ch=1 n=d#3 v=54
88084 On ch=1 n=f5 v=0
88084 On ch=1 n=f#5 v=37
88324 On ch=1 n=e5 v=37
88344 On ch=1 n=f#5 v=0
88564 On ch=1 n=f#5 v=36
88608 On ch=1 n=e5 v=0
88652 On ch=1 n=b5 v=0
88660 On ch=1 n=g#5 v=0
88756 Par ch=1 c=64 v=127
88796 On ch=1 n=g#5 v=42
88796 On ch=1 n=b5 v=55
88804 On ch=1 n=f5 v=47
88852 On ch=1 n=f#5 v=0
89044 On ch=1 n=b4 v=49
89064 On ch=1 n=f5 v=0
89148 On ch=1 n=d#4 v=0
89164 On ch=1 n=d#3 v=0
89192 On ch=1 n=b5 v=0
89192 On ch=1 n=g#5 v=0
89232 On ch=1 n=b4 v=0
89236 Par ch=1 c=64 v=0
89284 On ch=1 n=b5 v=58
89284 On ch=1 n=g#5 v=45
89284 On ch=1 n=f5 v=52
89284 On ch=1 n=d4 v=57
89284 On ch=1 n=d3 v=57
89524 On ch=1 n=f#5 v=42
89528 On ch=1 n=f5 v=0
89764 On ch=1 n=e5 v=42
89788 On ch=1 n=f#5 v=0
90000 On ch=1 n=f#5 v=46
90024 On ch=1 n=e5 v=0
90120 On ch=1 n=b5 v=0
90136 On ch=1 n=g#5 v=0
90188 Par ch=1 c=64 v=127
90244 On ch=1 n=g#5 v=42
90244 On ch=1 n=a#5 v=59
90244 On ch=1 n=f5 v=52
90316 On ch=1 n=f#5 v=0
90476 On ch=1 n=a#4 v=52
90484 On ch=1 n=f5 v=0
90496 On ch=1 n=d3 v=0
90536 On ch=1 n=d4 v=0
90620 On ch=1 n=g#5 v=0
90632 On ch=1 n=a#5 v=0
90652 Par ch=1 c=64 v=0
90716 On ch=1 n=g5 v=49
90724 On ch=1 n=a#5 v=42
90724 On ch=1 n=f4 v=61
90724 On ch=1 n=f3 v=61
90728 On ch=1 n=a#4 v=0
90728 On ch=1 n=c#6 v=62
90944 On ch=1 n=g5 v=0
90956 On ch=1 n=g#5 v=50
91196 On ch=1 n=f#5 v=52
91240 On ch=1 n=g#5 v=0
91436 On ch=1 n=g#5 v=52
91464 On ch=1 n=f#5 v=0
91484 On ch=1 n=a#5 v=0
91504 On ch=1 n=c#6 v=0
91612 Par ch=1 c=64 v=127
91676 On ch=1 n=c#6 v=64
91676 On ch=1 n=a#5 v=44
91676 On ch=1 n=g5 v=52
91720 On ch=1 n=g#5 v=0
91916 On ch=1 n=c#5 v=52
91940 On ch=1 n=g5 v=0
91980 On ch=1 n=f4 v=0
91988 On ch=1 n=f3 v=0
92036 On ch=1 n=a#5 v=0
92044 On ch=1 n=c#6 v=0
92072 Par ch=1 c=64 v=0
92144 On ch=1 n=c#5 v=0
92156 On ch=1 n=c#6 v=65
92156 On ch=1 n=a#5 v=41
92160 On ch=1 n=g5 v=52
92164 On ch=1 n=e4 v=65
92164 On ch=1 n=e3 v=65
92388 On ch=1 n=g5 v=0
92396 On ch=1 n=g#5 v=55
92636 On ch=1 n=f#5 v=54
92684 On ch=1 n=g#5 v=0
92876 On ch=1 n=g#5 v=53
92908 On ch=1 n=f#5 v=0
93036 On ch=1 n=a#5 v=0
93068 On ch=1 n=c#6 v=0
93100 Par ch=1 c=64 v=127
93116 On ch=1 n=a#5 v=40
93116 On ch=1 n=g5 v=54
93124 On ch=1 n=c6 v=70
93208 On ch=1 n=g#5 v=0
93356 On ch=1 n=c5 v=57
93384 On ch=1 n=e3 v=0
93388 On ch=1 n=g5 v=0
93444 On ch=1 n=e4 v=0
93472 On ch=1 n=a#5 v=0
93496 On ch=1 n=c6 v=0
93560 Par ch=1 c=64 v=0
93564 On ch=1 n=c5 v=0
93596 On ch=1 n=d#6 v=71
93596 On ch=1 n=g4 v=66
93600 On ch=1 n=c6 v=51
93600 On ch=1 n=g3 v=66
93604 On ch=1 n=a5 v=56
93836 On ch=1 n=a#5 v=59
93856 On ch=1 n=a5 v=0
94084 On ch=1 n=g#5 v=59
94120 On ch=1 n=a#5 v=0
94316 On ch=1 n=a#5 v=60
94340 On ch=1 n=g#5 v=0
94428 On ch=1 n=c6 v=0
94428 On ch=1 n=d#6 v=0
94452 On ch=1 n=g3 v=0
94472 On ch=1 n=g4 v=0
94556 On ch=1 n=d#6 v=76
94556 On ch=1 n=c6 v=46
94556 On ch=1 n=a5 v=62
94568 On ch=1 n=f#4 v=69
94568 On ch=1 n=f#3 v=69
94576 Par ch=1 c=64 v=127
94620 On ch=1 n=a#5 v=0
94788 On ch=1 n=a5 v=0
94796 On ch=1 n=d#5 v=63
94868 On ch=1 n=f#4 v=0
94876 Par ch=1 c=64 v=0
94960 On ch=1 n=d#6 v=0
94964 On ch=1 n=f#3 v=0
95020 On ch=1 n=c6 v=0
95044 On ch=1 n=f#6 v=81
95044 On ch=1 n=c6 v=51
95044 On ch=1 n=a5 v=65
95044 On ch=1 n=d#4 v=78
95044 On ch=1 n=d#3 v=78
95056 Par ch=1 c=64 v=127
95112 On ch=1 n=d#5 v=0
95280 On ch=1 n=a#5 v=66
95288 On ch=1 n=a5 v=0
95524 On ch=1 n=g#5 v=64
95560 On ch=1 n=a#5 v=0
95708 Par ch=1 c=64 v=0
95760 On ch=1 n=a#5 v=59
95784 On ch=1 n=g#5 v=0
95828 Par ch=1 c=64 v=127
96000 On ch=1 n=a5 v=60
96132 On ch=1 n=a#5 v=0
96244 On ch=1 n=f#5 v=60
96272 On ch=1 n=a5 v=0
96384 On ch=1 n=f#6 v=0
96396 On ch=1 n=c6 v=0
96468 On ch=1 n=f#5 v=0
96472 Par ch=1 c=64 v=0
96484 On ch=1 n=c6 v=54
96488 On ch=1 n=f6 v=74
96488 On ch=1 n=a5 v=60
96724 On ch=1 n=a#5 v=60
96752 On ch=1 n=a5 v=0
96964 On ch=1 n=g#5 v=61
96988 On ch=1 n=a#5 v=0
97204 On ch=1 n=a#5 v=57
97216 On ch=1 n=g#5 v=0
97444 On ch=1 n=a5 v=57
97488 Par ch=1 c=64 v=127
97504 On ch=1 n=a#5 v=0
97652 On ch=1 n=f6 v=0
97660 On ch=1 n=c6 v=0
97676 On ch=1 n=f#5 v=56
97680 On ch=1 n=a5 v=0
97700 On ch=1 n=d#3 v=0
97700 On ch=1 n=d#4 v=0
97872 On ch=1 n=f#5 v=0
97916 On ch=1 n=f5 v=52
97924 On ch=1 n=g#5 v=44
97924 On ch=1 n=a#5 v=70
97924 On ch=1 n=d4 v=65
97924 On ch=1 n=d3 v=57
97924 Par ch=1 c=64 v=0
98156 On ch=1 n=f#5 v=48
98188 On ch=1 n=f5 v=0
98396 On ch=1 n=e5 v=47
98404 On ch=1 n=f#5 v=0
98636 On ch=1 n=f#5 v=50
98644 On ch=1 n=e5 v=0
98876 On ch=1 n=f5 v=49
98892 Par ch=1 c=64 v=127
98976 On ch=1 n=f#5 v=0
99116 On ch=1 n=f5 v=0
99116 On ch=1 n=a#4 v=51
99188 On ch=1 n=a#5 v=0
99192 On ch=1 n=g#5 v=0
99224 On ch=1 n=d4 v=0
99248 On ch=1 n=d3 v=0
99332 Par ch=1 c=64 v=0
99356 On ch=1 n=a#5 v=67
99356 On ch=1 n=g#5 v=47
99356 On ch=1 n=e5 v=46
99364 On ch=1 n=c#4 v=69
99364 On ch=1 n=c#3 v=72
99384 On ch=1 n=a#4 v=0
99596 On ch=1 n=f#5 v=52
99608 On ch=1 n=e5 v=0
99840 On ch=1 n=d#5 v=52
99884 On ch=1 n=f#5 v=0
100076 On ch=1 n=f#5 v=51
100128 On ch=1 n=d#5 v=0
100200 On ch=1 n=g#5 v=0
100204 On ch=1 n=a#5 v=0
100300 Par ch=1 c=64 v=127
100316 On ch=1 n=a#5 v=64
100316 On ch=1 n=g5 v=44
100324 On ch=1 n=e5 v=49
100408 On ch=1 n=f#5 v=0
100556 On ch=1 n=a#4 v=52
100576 On ch=1 n=e5 v=0
100704 On ch=1 n=g5 v=0
100724 On ch=1 n=a#5 v=0
100756 Par ch=1 c=64 v=0
100764 On ch=1 n=c#3 v=0
100768 On ch=1 n=c#4 v=0
100780 On ch=1 n=a#4 v=0
100800 On ch=1 n=a#5 v=67
100804 On ch=1 n=g5 v=47
100804 On ch=1 n=e5 v=51
100804 On ch=1 n=c4 v=66
100804 On ch=1 n=c3 v=66
101044 On ch=1 n=f5 v=46
101080 On ch=1 n=e5 v=0
101284 On ch=1 n=d5 v=48
101308 On ch=1 n=f5 v=0
101520 On ch=1 n=f5 v=49
101532 On ch=1 n=d5 v=0
101744 Par ch=1 c=64 v=127
101764 On ch=1 n=e5 v=52
101884 On ch=1 n=f5 v=0
101996 On ch=1 n=a#4 v=52
102008 On ch=1 n=e5 v=0
102196 On ch=1 n=g5 v=0
102200 Par ch=1 c=64 v=0
102224 On ch=1 n=a#5 v=0
102244 On ch=1 n=a5 v=63
102244 On ch=1 n=f#5 v=43
102244 On ch=1 n=d#5 v=48
102312 On ch=1 n=a#4 v=0
102476 On ch=1 n=f5 v=43
102496 On ch=1 n=d#5 v=0
102716 On ch=1 n=d5 v=39
102744 On ch=1 n=f5 v=0
102956 On ch=1 n=f5 v=39
102996 On ch=1 n=d5 v=0
103196 On ch=1 n=d#5 v=38
103224 Par ch=1 c=64 v=127
103292 On ch=1 n=f5 v=0
103436 On ch=1 n=a4 v=41
103452 On ch=1 n=d#5 v=0
103452 On ch=1 n=c4 v=0
103532 On ch=1 n=f#5 v=0
103556 On ch=1 n=a5 v=0
103668 On ch=1 n=c3 v=0
103668 Par ch=1 c=64 v=0
103672 On ch=1 n=a4 v=0
103676 On ch=1 n=b2 v=60
103676 On ch=1 n=b3 v=60
103680 On ch=1 n=a5 v=61
103684 On ch=1 n=f#5 v=43
103684 On ch=1 n=d#5 v=52
103924 On ch=1 n=f5 v=45
103972 On ch=1 n=d#5 v=0
104164 On ch=1 n=d5 v=41
104204 On ch=1 n=f5 v=0
104404 On ch=1 n=f5 v=39
104428 On ch=1 n=d5 v=0
104640 Par ch=1 c=64 v=127
104644 On ch=1 n=d#5 v=42
104680 On ch=1 n=f5 v=0
104884 On ch=1 n=a4 v=51
104904 On ch=1 n=d#5 v=0
105012 On ch=1 n=f#5 v=0
105028 On ch=1 n=a5 v=0
105104 Par ch=1 c=64 v=0
105116 On ch=1 n=g#5 v=65
105120 On ch=1 n=f5 v=45
105124 On ch=1 n=d5 v=50
105128 On ch=1 n=a4 v=0
105352 On ch=1 n=d5 v=0
105364 On ch=1 n=d#5 v=48
105604 On ch=1 n=c#5 v=45
105628 On ch=1 n=d#5 v=0
105840 On ch=1 n=d#5 v=47
105860 On ch=1 n=c#5 v=0
105988 On ch=1 n=g#5 v=0
105996 On ch=1 n=f5 v=0
106068 Par ch=1 c=64 v=127
106084 On ch=1 n=g#5 v=62
106084 On ch=1 n=f5 v=42
106084 On ch=1 n=d5 v=48
106156 On ch=1 n=d#5 v=0
106308 On ch=1 n=d5 v=0
106324 On ch=1 n=g#4 v=41
106460 On ch=1 n=b3 v=0
106488 On ch=1 n=g#5 v=0
106492 On ch=1 n=f5 v=0
106512 Par ch=1 c=64 v=0
106540 On ch=1 n=b2 v=0
106564 On ch=1 n=g#5 v=54
106564 On ch=1 n=c#5 v=49
106564 On ch=1 n=a#2 v=60
106564 On ch=1 n=a#3 v=60
106568 On ch=1 n=e5 v=44
106572 On ch=1 n=g#4 v=0
106800 On ch=1 n=d#5 v=45
106816 On ch=1 n=c#5 v=0
107036 On ch=1 n=c5 v=44
107040 On ch=1 n=d#5 v=0
107280 On ch=1 n=d#5 v=47
107296 On ch=1 n=c5 v=0
107520 On ch=1 n=c#5 v=47
107524 Par ch=1 c=64 v=127
107584 On ch=1 n=d#5 v=0
107756 On ch=1 n=g#4 v=47
107792 On ch=1 n=c#5 v=0
107904 On ch=1 n=g#5 v=0
107912 On ch=1 n=e5 v=0
107972 Par ch=1 c=64 v=0
107996 On ch=1 n=c#5 v=50
108004 On ch=1 n=e5 v=42
108004 On ch=1 n=g5 v=52
108020 On ch=1 n=g#4 v=0
108244 On ch=1 n=d#5 v=47
108276 On ch=1 n=c#5 v=0
108476 On ch=1 n=c5 v=47
108500 On ch=1 n=d#5 v=0
108720 On ch=1 n=d#5 v=48
108748 On ch=1 n=c5 v=0
108956 Par ch=1 c=64 v=127
108964 On ch=1 n=c#5 v=47
109012 On ch=1 n=d#5 v=0
109196 On ch=1 n=g4 v=45
109204 On ch=1 n=c#5 v=0
109288 On ch=1 n=e5 v=0
109296 On ch=1 n=g5 v=0
109372 On ch=1 n=a#3 v=0
109384 Par ch=1 c=64 v=0
109420 On ch=1 n=a#2 v=0
109444 On ch=1 n=g5 v=49
109444 On ch=1 n=e5 v=49
109444 On ch=1 n=c#5 v=43
109444 On ch=1 n=a2 v=57
109444 On ch=1 n=a3 v=57
109528 On ch=1 n=g4 v=0
109684 On ch=1 n=d#5 v=44
109704 On ch=1 n=c#5 v=0
109920 On ch=1 n=c5 v=44
109928 On ch=1 n=d#5 v=0
110156 On ch=1 n=d#5 v=43
110192 On ch=1 n=c5 v=0
110400 On ch=1 n=c#5 v=44
110404 Par ch=1 c=64 v=127
110424 On ch=1 n=d#5 v=0
110636 On ch=1 n=c#5 v=0
110636 On ch=1 n=g4 v=42
110748 On ch=1 n=e5 v=0
110760 On ch=1 n=g5 v=0
110848 On ch=1 n=g4 v=0
110868 Par ch=1 c=64 v=0
110876 On ch=1 n=e5 v=51
110876 On ch=1 n=g5 v=51
110876 On ch=1 n=c5 v=42
111116 On ch=1 n=d5 v=43
111132 On ch=1 n=c5 v=0
111356 On ch=1 n=b4 v=43
111388 On ch=1 n=d5 v=0
111596 On ch=1 n=d5 v=44
111660 On ch=1 n=b4 v=0
111732 On ch=1 n=g5 v=0
111760 On ch=1 n=e5 v=0
111804 Par ch=1 c=64 v=127
111836 On ch=1 n=c5 v=45
111840 On ch=1 n=e5 v=49
111844 On ch=1 n=g5 v=49
111876 On ch=1 n=d5 v=0
112076 On ch=1 n=g4 v=45
112084 On ch=1 n=c5 v=0
112204 On ch=1 n=g5 v=0
112232 On ch=1 n=e5 v=0
112292 Par ch=1 c=64 v=0
112304 On ch=1 n=g4 v=0
112324 On ch=1 n=d#5 v=49
112324 On ch=1 n=g5 v=49
112324 On ch=1 n=b4 v=45
112564 On ch=1 n=c5 v=40
112584 On ch=1 n=b4 v=0
112804 On ch=1 n=a#4 v=41
112816 On ch=1 n=c5 v=0
113044 On ch=1 n=c5 v=39
113104 On ch=1 n=a#4 v=0
113284 On ch=1 n=b4 v=41
113300 Par ch=1 c=64 v=127
113320 On ch=1 n=c5 v=0
113516 On ch=1 n=f#4 v=41
113520 On ch=1 n=b4 v=0
113660 On ch=1 n=d#5 v=0
113736 Par ch=1 c=64 v=0
113764 On ch=1 n=f#5 v=53
113764 On ch=1 n=d#5 v=53
113764 On ch=1 n=b4 v=39
113796 On ch=1 n=f#4 v=0
113848 On ch=1 n=g5 v=0
113980 On ch=1 n=b4 v=0
113996 On ch=1 n=c5 v=41
114236 On ch=1 n=a#4 v=44
114252 On ch=1 n=c5 v=0
114476 On ch=1 n=c5 v=41
114512 On ch=1 n=a#4 v=0
114704 Par ch=1 c=64 v=127
114716 On ch=1 n=b4 v=40
114740 On ch=1 n=c5 v=0
114772 On ch=1 n=d#5 v=0
114780 On ch=1 n=f#5 v=0
114932 On ch=1 n=a3 v=0
114944 On ch=1 n=b4 v=0
114956 On ch=1 n=f#4 v=40
115156 Par ch=1 c=64 v=0
115164 On ch=1 n=a2 v=0
115176 On ch=1 n=f#4 v=0
115200 On ch=1 n=a#2 v=49
115204 On ch=1 n=d5 v=42
115204 On ch=1 n=f#5 v=42
115204 On ch=1 n=a#4 v=39
115204 On ch=1 n=a#3 v=49
115444 On ch=1 n=b4 v=39
115488 On ch=1 n=a#4 v=0
115684 On ch=1 n=a4 v=38
115704 On ch=1 n=b4 v=0
115916 On ch=1 n=b4 v=41
115936 On ch=1 n=a4 v=0
116132 Par ch=1 c=64 v=127
116156 On ch=1 n=a#4 v=42
116208 On ch=1 n=b4 v=0
116396 On ch=1 n=f4 v=41
116400 On ch=1 n=a#4 v=0
116528 On ch=1 n=f#5 v=0
116544 On ch=1 n=d5 v=0
116576 Par ch=1 c=64 v=0
116636 On ch=1 n=a#4 v=40
116644 On ch=1 n=f5 v=44
116644 On ch=1 n=d5 v=44
116672 On ch=1 n=f4 v=0
116872 On ch=1 n=a#4 v=0
116876 On ch=1 n=b4 v=39
117116 On ch=1 n=a4 v=41
117156 On ch=1 n=b4 v=0
117356 On ch=1 n=b4 v=39
117376 On ch=1 n=a4 v=0
117456 On ch=1 n=f5 v=0
117460 On ch=1 n=d5 v=0
117596 On ch=1 n=d5 v=43
117596 On ch=1 n=f5 v=43
117596 On ch=1 n=a#4 v=39
117608 Par ch=1 c=64 v=127
117632 On ch=1 n=b4 v=0
117836 On ch=1 n=f4 v=38
117848 On ch=1 n=a#4 v=0
118024 On ch=1 n=f5 v=0
118032 On ch=1 n=d5 v=0
118056 On ch=1 n=f4 v=0
118084 On ch=1 n=f5 v=45
118084 On ch=1 n=c5 v=45
118084 On ch=1 n=a4 v=36
118088 Par ch=1 c=64 v=0
118316 On ch=1 n=a#4 v=36
118324 On ch=1 n=a4 v=0
118556 On ch=1 n=g#4 v=37
118584 On ch=1 n=a#4 v=0
118796 On ch=1 n=a#4 v=39
118820 On ch=1 n=g#4 v=0
119036 On ch=1 n=a4 v=39
119048 Par ch=1 c=64 v=127
119136 On ch=1 n=a#4 v=0
119280 On ch=1 n=a4 v=0
119280 On ch=1 n=f4 v=42
119364 On ch=1 n=f5 v=0
119516 On ch=1 n=c5 v=0
119516 Par ch=1 c=64 v=0
119520 On ch=1 n=a#4 v=38
119524 On ch=1 n=f5 v=45
119524 On ch=1 n=d5 v=45
119568 On ch=1 n=f4 v=0
119756 On ch=1 n=b4 v=39
119828 On ch=1 n=a#4 v=0
119996 On ch=1 n=a4 v=38
120012 On ch=1 n=b4 v=0
120240 On ch=1 n=b4 v=39
120272 On ch=1 n=a4 v=0
120476 On ch=1 n=a#4 v=41
120504 On ch=1 n=b4 v=0
120512 Par ch=1 c=64 v=127
120664 On ch=1 n=a#3 v=0
120688 On ch=1 n=a#2 v=0
120716 On ch=1 n=f4 v=39
120768 On ch=1 n=a#4 v=0
120840 Par ch=1 c=64 v=0
120868 On ch=1 n=d5 v=0
120884 On ch=1 n=f5 v=0
120924 On ch=1 n=f4 v=0
120956 On ch=1 n=a#4 v=43
120964 On ch=1 n=f#5 v=53
120964 On ch=1 n=d#4 v=53
120988 Par ch=1 c=64 v=127
121196 On ch=1 n=b4 v=33
121236 On ch=1 n=a#4 v=0
121444 On ch=1 n=a4 v=35
121480 On ch=1 n=b4 v=0
121684 On ch=1 n=b4 v=36
121720 On ch=1 n=a4 v=0
121924 On ch=1 n=a#4 v=35
121948 Par ch=1 c=64 v=0
122000 On ch=1 n=b4 v=0
122164 On ch=1 n=f#4 v=37
122180 On ch=1 n=a#4 v=0
122404 On ch=1 n=a#4 v=41
122468 On ch=1 n=f#4 v=0
122644 On ch=1 n=b4 v=40
122656 On ch=1 n=a#4 v=0
122884 On ch=1 n=a4 v=38
122920 On ch=1 n=b4 v=0
123116 On ch=1 n=b4 v=41
123132 On ch=1 n=a4 v=0
123356 On ch=1 n=a#4 v=43
123364 On ch=1 n=f5 v=54
123392 On ch=1 n=b4 v=0
123424 On ch=1 n=f#5 v=0
123576 On ch=1 n=a#4 v=0
123596 On ch=1 n=d#5 v=58
123600 On ch=1 n=f5 v=0
123680 On ch=1 n=d#4 v=0
123844 On ch=1 n=a#5 v=64
123844 On ch=1 n=b4 v=40
123844 On ch=1 n=f4 v=55
123856 Par ch=1 c=64 v=127
124076 On ch=1 n=b4 v=0
124084 On ch=1 n=c#5 v=44
124324 On ch=1 n=a#4 v=39
124336 Par ch=1 c=64 v=0
124360 On ch=1 n=c#5 v=0
124564 On ch=1 n=c#5 v=39
124592 On ch=1 n=a#4 v=0
124804 On ch=1 n=b4 v=41
124848 On ch=1 n=c#5 v=0
125020 On ch=1 n=b4 v=0
125044 On ch=1 n=g#4 v=38
125284 On ch=1 n=g#5 v=55
125284 On ch=1 n=b4 v=41
125336 On ch=1 n=g#4 v=0
125368 On ch=1 n=a#5 v=0
125496 On ch=1 n=b4 v=0
125524 On ch=1 n=c#5 v=41
125764 On ch=1 n=a#4 v=40
125780 On ch=1 n=c#5 v=0
126004 On ch=1 n=c#5 v=42
126048 On ch=1 n=a#4 v=0
126244 On ch=1 n=b4 v=42
126312 On ch=1 n=c#5 v=0
126476 On ch=1 n=b4 v=0
126484 On ch=1 n=f5 v=56
126484 On ch=1 n=g#4 v=43
126488 Par ch=1 c=64 v=127
126524 On ch=1 n=g#5 v=0
126584 On ch=1 n=d#5 v=0
126724 On ch=1 n=b5 v=65
126724 On ch=1 n=d4 v=53
126808 On ch=1 n=f4 v=0
126948 On ch=1 n=g#4 v=0
126956 On ch=1 n=a#4 v=45
127204 On ch=1 n=g4 v=42
127208 On ch=1 n=a#4 v=0
127436 On ch=1 n=a#4 v=41
127440 On ch=1 n=g4 v=0
127676 On ch=1 n=g#4 v=41
127680 Par ch=1 c=64 v=0
127732 On ch=1 n=a#4 v=0
127916 On ch=1 n=f4 v=43
127920 On ch=1 n=g#4 v=0
128164 On ch=1 n=g#4 v=41
128212 On ch=1 n=f4 v=0
128388 On ch=1 n=g#4 v=0
128396 On ch=1 n=a#4 v=41
128644 On ch=1 n=g4 v=40
128672 On ch=1 n=a#4 v=0
128872 On ch=1 n=g4 v=0
128876 On ch=1 n=a#4 v=43
129108 On ch=1 n=b5 v=0
129116 On ch=1 n=a#5 v=58
129116 On ch=1 n=g#4 v=52
129120 On ch=1 n=a#4 v=0
129212 Par ch=1 c=64 v=127
129272 On ch=1 n=f5 v=0
129332 On ch=1 n=g#4 v=0
129356 On ch=1 n=f5 v=65
129432 On ch=1 n=a#5 v=0
129520 Par ch=1 c=64 v=0
129604 On ch=1 n=e5 v=55
129604 On ch=1 n=a#5 v=69
129604 On ch=1 n=g4 v=56
129604 On ch=1 n=c#4 v=53
129628 On ch=1 n=d4 v=0
129680 On ch=1 n=f5 v=0
129684 Par ch=1 c=64 v=127
129824 On ch=1 n=g4 v=0
129836 On ch=1 n=g#4 v=42
130076 On ch=1 n=f#4 v=41
130096 On ch=1 n=g#4 v=0
130104 Par ch=1 c=64 v=0
130316 On ch=1 n=g#4 v=44
130352 On ch=1 n=f#4 v=0
130564 On ch=1 n=g4 v=45
130608 On ch=1 n=g#4 v=0
130804 On ch=1 n=g4 v=0
130804 On ch=1 n=e4 v=46
131044 On ch=1 n=g4 v=44
131084 On ch=1 n=e4 v=0
131252 On ch=1 n=g4 v=0
131284 On ch=1 n=g#4 v=43
131516 On ch=1 n=f#4 v=41
131528 On ch=1 n=g#4 v=0
131756 On ch=1 n=g#4 v=45
131764 On ch=1 n=f#4 v=0
131964 Par ch=1 c=64 v=127
131996 On ch=1 n=g4 v=47
132028 On ch=1 n=g#4 v=0
132236 On ch=1 n=d#5 v=67
132264 On ch=1 n=a#5 v=0
132288 On ch=1 n=e5 v=0
132328 Par ch=1 c=64 v=0
132476 On ch=1 n=b3 v=64
132476 Par ch=1 c=64 v=127
132484 On ch=1 n=d#6 v=78
132500 On ch=1 n=c#4 v=0
132672 On ch=1 n=g4 v=0
132728 On ch=1 n=g#4 v=53
132912 Par ch=1 c=64 v=0
132968 On ch=1 n=f#4 v=50
132984 On ch=1 n=g#4 v=0
133204 On ch=1 n=g#4 v=50
133236 On ch=1 n=f#4 v=0
133448 On ch=1 n=g4 v=53
133504 On ch=1 n=g#4 v=0
133664 On ch=1 n=g4 v=0
133688 On ch=1 n=d#4 v=45
133924 On ch=1 n=g#4 v=39
133940 Par ch=1 c=64 v=127
133944 On ch=1 n=d#4 v=0
134152 On ch=1 n=g#4 v=0
134164 On ch=1 n=a#4 v=40
134368 On ch=1 n=d#6 v=0
134396 Par ch=1 c=64 v=0
134404 On ch=1 n=c#6 v=71
134404 On ch=1 n=g4 v=41
134432 On ch=1 n=a#4 v=0
134644 On ch=1 n=b5 v=69
134644 On ch=1 n=a#4 v=40
134668 On ch=1 n=g4 v=0
134752 On ch=1 n=c#6 v=0
134876 Par ch=1 c=64 v=127
134884 On ch=1 n=g#5 v=67
134884 On ch=1 n=g#4 v=42
134924 On ch=1 n=a#4 v=0
134924 On ch=1 n=b5 v=0
135052 On ch=1 n=d#5 v=0
135124 On ch=1 n=d#5 v=65
135152 On ch=1 n=g#5 v=0
135344 Par ch=1 c=64 v=0
135364 On ch=1 n=f#5 v=61
135364 On ch=1 n=d5 v=41
135368 On ch=1 n=a#3 v=62
135452 On ch=1 n=b3 v=0
135456 On ch=1 n=d#5 v=0
135536 On ch=1 n=g#4 v=0
135608 On ch=1 n=a#4 v=52
135844 On ch=1 n=a#4 v=0
135844 On ch=1 n=g4 v=49
136084 On ch=1 n=a#4 v=53
136100 On ch=1 n=g4 v=0
136324 On ch=1 n=g#4 v=52
136360 On ch=1 n=a#4 v=0
136372 Par ch=1 c=64 v=127
136544 On ch=1 n=g#4 v=0
136556 On ch=1 n=f5 v=55
136564 On ch=1 n=f4 v=49
136644 On ch=1 n=f#5 v=0
136668 On ch=1 n=d5 v=0
136764 On ch=1 n=a#3 v=0
136772 Par ch=1 c=64 v=0
136800 On ch=1 n=f#4 v=46
136804 On ch=1 n=d#5 v=44
136804 On ch=1 n=b3 v=52
136828 On ch=1 n=f4 v=0
136840 On ch=1 n=f5 v=0
137040 On ch=1 n=g#4 v=40
137056 On ch=1 n=f#4 v=0
137284 On ch=1 n=f4 v=40
137304 On ch=1 n=g#4 v=0
137524 On ch=1 n=g#4 v=41
137548 On ch=1 n=f4 v=0
137760 Par ch=1 c=64 v=127
137764 On ch=1 n=f#4 v=42
137792 On ch=1 n=g#4 v=0
138004 On ch=1 n=d#4 v=41
138016 On ch=1 n=f#4 v=0
138220 Par ch=1 c=64 v=0
138228 On ch=1 n=d#5 v=0
138240 On ch=1 n=d#4 v=0
138244 On ch=1 n=g#3 v=63
138248 On ch=1 n=e5 v=59
138248 On ch=1 n=b4 v=39
138248 On ch=1 n=g#4 v=54
138276 On ch=1 n=b3 v=0
138484 On ch=1 n=a#4 v=53
138512 On ch=1 n=g#4 v=0
138728 On ch=1 n=g4 v=51
138760 On ch=1 n=a#4 v=0
138964 On ch=1 n=a#4 v=51
138976 On ch=1 n=g4 v=0
139204 On ch=1 n=g#4 v=49
139216 Par ch=1 c=64 v=127
139244 On ch=1 n=a#4 v=0
139444 On ch=1 n=e4 v=50
139472 On ch=1 n=g#4 v=0
139592 On ch=1 n=b4 v=0
139644 On ch=1 n=e5 v=0
139668 On ch=1 n=e4 v=0
139676 Par ch=1 c=64 v=0
139684 On ch=1 n=f4 v=38
139684 On ch=1 n=a#3 v=52
139688 On ch=1 n=g#3 v=0
139688 On ch=1 n=a#4 v=43
139688 On ch=1 n=d5 v=43
139908 On ch=1 n=f4 v=0
139924 On ch=1 n=f#4 v=40
140164 On ch=1 n=e4 v=45
140184 On ch=1 n=f#4 v=0
140404 On ch=1 n=f#4 v=43
140412 On ch=1 n=e4 v=0
140644 On ch=1 n=f4 v=41
140708 On ch=1 n=f#4 v=0
140832 Par ch=1 c=64 v=127
140840 On ch=1 n=a#3 v=0
140868 On ch=1 n=f4 v=0
140884 On ch=1 n=a#3 v=40
141004 On ch=1 n=d#5 v=61
141052 On ch=1 n=d5 v=0
141052 On ch=1 n=a#4 v=0
141088 Par ch=1 c=64 v=0
141108 On ch=1 n=a#3 v=0
141124 On ch=1 n=e5 v=65
141124 On ch=1 n=b4 v=46
141124 On ch=1 n=g#4 v=48
141124 On ch=1 n=g#3 v=62
141176 On ch=1 n=d#5 v=0
141364 On ch=1 n=a#4 v=44
141380 On ch=1 n=g#4 v=0
141604 On ch=1 n=g4 v=42
141632 On ch=1 n=a#4 v=0
141844 On ch=1 n=a#4 v=46
141872 On ch=1 n=g4 v=0
142084 On ch=1 n=g#4 v=48
142088 Par ch=1 c=64 v=127
142168 On ch=1 n=a#4 v=0
142324 On ch=1 n=e4 v=50
142348 On ch=1 n=g#4 v=0
142508 On ch=1 n=b4 v=0
142520 Par ch=1 c=64 v=0
142532 On ch=1 n=g#3 v=0
142544 On ch=1 n=e4 v=0
142564 On ch=1 n=a#4 v=39
142564 On ch=1 n=d5 v=49
142564 On ch=1 n=f4 v=53
142564 On ch=1 n=a#3 v=50
142596 On ch=1 n=e5 v=0
142804 On ch=1 n=f#4 v=45
142808 On ch=1 n=f4 v=0
143044 On ch=1 n=e4 v=41
143056 On ch=1 n=f#4 v=0
143276 On ch=1 n=f#4 v=43
143280 On ch=1 n=e4 v=0
143524 On ch=1 n=f4 v=46
143580 On ch=1 n=f#4 v=0
143636 Par ch=1 c=64 v=127
143712 On ch=1 n=a#3 v=0
143764 On ch=1 n=a#3 v=45
143780 On ch=1 n=f4 v=0
143884 On ch=1 n=d#5 v=60
143908 On ch=1 n=d5 v=0
143940 On ch=1 n=a#4 v=0
144004 On ch=1 n=a#3 v=0
144004 On ch=1 n=b4 v=46
144004 On ch=1 n=e5 v=66
144004 On ch=1 n=g#4 v=45
144004 On ch=1 n=g#3 v=64
144012 Par ch=1 c=64 v=0
144072 On ch=1 n=d#5 v=0
144244 On ch=1 n=g#4 v=0
144244 On ch=1 n=a#4 v=49
144484 On ch=1 n=g4 v=49
144512 On ch=1 n=a#4 v=0
144724 On ch=1 n=a#4 v=45
144768 On ch=1 n=g4 v=0
144964 On ch=1 n=g#4 v=47
144996 Par ch=1 c=64 v=127
145012 On ch=1 n=a#4 v=0
145196 On ch=1 n=e4 v=45
145236 On ch=1 n=g#4 v=0
145284 On ch=1 n=b4 v=0
145316 On ch=1 n=e5 v=0
145328 Par ch=1 c=64 v=0
145420 On ch=1 n=e4 v=0
145432 On ch=1 n=g#3 v=0
145432 Par ch=1 c=64 v=127
145444 On ch=1 n=c#6 v=64
145444 On ch=1 n=c#5 v=40
145444 On ch=1 n=e5 v=47
145444 On ch=1 n=a4 v=60
145444 On ch=1 n=a3 v=62
145684 On ch=1 n=e4 v=61
145696 On ch=1 n=a4 v=0
145796 On ch=1 n=c#6 v=0
145804 On ch=1 n=c#5 v=0
145808 On ch=1 n=e5 v=0
145832 Par ch=1 c=64 v=0
145924 On ch=1 n=e5 v=48
145924 On ch=1 n=g#5 v=68
145924 On ch=1 n=b4 v=61
145924 On ch=1 n=b3 v=63
145924 Par ch=1 c=64 v=127
145960 On ch=1 n=e4 v=0
145984 On ch=1 n=a3 v=0
146164 On ch=1 n=e4 v=64
146168 On ch=1 n=b4 v=0
146256 On ch=1 n=g#5 v=0
146256 Par ch=1 c=64 v=0
146260 On ch=1 n=e5 v=0
146388 Par ch=1 c=64 v=127
146396 On ch=1 n=e5 v=50
146404 On ch=1 n=a5 v=70
146404 On ch=1 n=c#5 v=61
146404 On ch=1 n=c#4 v=67
146420 On ch=1 n=e4 v=0
146464 On ch=1 n=b3 v=0
146644 On ch=1 n=e4 v=58
146652 On ch=1 n=c#5 v=0
146700 Par ch=1 c=64 v=0
146736 On ch=1 n=a5 v=0
146788 On ch=1 n=e5 v=0
146860 Par ch=1 c=64 v=127
146868 On ch=1 n=c#4 v=0
146884 On ch=1 n=b4 v=48
146884 On ch=1 n=g#5 v=68
146884 On ch=1 n=g#3 v=72
147072 On ch=1 n=e4 v=0
147124 On ch=1 n=f#5 v=70
147124 On ch=1 n=e4 v=60
147132 Par ch=1 c=64 v=0
147192 On ch=1 n=g#5 v=0
147356 On ch=1 n=e4 v=0
147364 On ch=1 n=e5 v=72
147364 On ch=1 n=d#4 v=59
147376 Par ch=1 c=64 v=127
147432 On ch=1 n=f#5 v=0
147604 On ch=1 n=e4 v=60
147636 Par ch=1 c=64 v=0
147668 On ch=1 n=d#4 v=0
147844 On ch=1 n=f#4 v=61
147888 On ch=1 n=e4 v=0
148084 On ch=1 n=g#4 v=61
148124 On ch=1 n=f#4 v=0
148280 On ch=1 n=e5 v=0
148288 On ch=1 n=b4 v=0
148316 On ch=1 n=a#3 v=64
148324 On ch=1 n=g#4 v=0
148324 On ch=1 n=d#5 v=74
148324 On ch=1 n=b4 v=64
148360 Par ch=1 c=64 v=127
148376 On ch=1 n=g#3 v=0
148564 On ch=1 n=a#4 v=57
148636 Par ch=1 c=64 v=0
148684 On ch=1 n=b4 v=0
148804 On ch=1 n=a4 v=51
148836 Par ch=1 c=64 v=127
148848 On ch=1 n=a#4 v=0
149044 On ch=1 n=a#4 v=56
149076 On ch=1 n=a4 v=0
149284 On ch=1 n=d5 v=74
149284 On ch=1 n=f4 v=65
149312 On ch=1 n=d#5 v=0
149492 Par ch=1 c=64 v=0
149524 On ch=1 n=f#4 v=65
149532 On ch=1 n=f4 v=0
149712 On ch=1 n=a#4 v=0
149720 On ch=1 n=d5 v=0
149764 On ch=1 n=d#3 v=78
149764 On ch=1 n=d#5 v=78
149944 On ch=1 n=a#3 v=0
150000 On ch=1 n=b3 v=47
150256 On ch=1 n=a#3 v=49
150280 On ch=1 n=b3 v=0
150496 On ch=1 n=d4 v=47
150544 On ch=1 n=a#3 v=0
150720 On ch=1 n=d#4 v=49
150740 On ch=1 n=f#4 v=0
150796 On ch=1 n=d4 v=0
150912 On ch=1 n=f4 v=50
151000 On ch=1 n=d#4 v=0
151120 On ch=1 n=f#4 v=55
151180 On ch=1 n=f4 v=0
151324 On ch=1 n=b3 v=51
151352 On ch=1 n=f#4 v=0
151532 On ch=1 n=a#3 v=51
151572 On ch=1 n=b3 v=0
151756 On ch=1 n=d4 v=53
151824 On ch=1 n=a#3 v=0
151972 On ch=1 n=d#4 v=50
152056 On ch=1 n=d4 v=0
152172 On ch=1 n=f4 v=49
152260 On ch=1 n=d#4 v=0
152392 On ch=1 n=f#4 v=51
152448 On ch=1 n=f4 v=0
152580 On ch=1 n=f#4 v=0
152584 On ch=1 n=b3 v=48
152812 On ch=1 n=a#3 v=54
152864 On ch=1 n=b3 v=0
153056 On ch=1 n=d4 v=48
153128 On ch=1 n=a#3 v=0
153300 On ch=1 n=d#4 v=51
153420 On ch=1 n=d4 v=0
153572 On ch=1 n=f4 v=49
153628 On ch=1 n=d#4 v=0
153844 On ch=1 n=f#4 v=46
153912 On ch=1 n=f4 v=0
154108 On ch=1 n=b3 v=44
154204 On ch=1 n=f#4 v=0
154416 On ch=1 n=a#3 v=52
154452 On ch=1 n=b3 v=0
154756 On ch=1 n=d4 v=40
155172 On ch=1 n=d#4 v=42
155268 On ch=1 n=d4 v=0
155692 On ch=1 n=f4 v=43
155756 On ch=1 n=d#4 v=0
156416 On ch=1 n=g4 v=37
156488 On ch=1 n=f4 v=0
156896 Par ch=1 c=64 v=127
160052 On ch=1 n=d#5 v=0
160148 On ch=1 n=d#3 v=0
160152 On ch=1 n=g4 v=0
160152 On ch=1 n=a#3 v=0
160408 Par ch=1 c=64 v=0
160408 Meta TrkEnd
TrkEnd
MTrk
0 SeqSpec 43 00 01 00
0 Meta TrkName "in Eb Minor"
0 Meta 0x21 00
0 Meta TrkEnd
TrkEnd
MTrk
0 SeqSpec 43 00 01 00
0 Meta TrkName "Op. 10, No"
