MFile 1 7 480
MTrk
0 TimeSig 4/4 24 8
0 KeySig 4 major
0 Tempo 361446
137108 Tempo 368098
137548 Tempo 392157
137964 Tempo 400000
138244 Tempo 361446
158944 Tempo 591133
159360 Tempo 315789
159360 Meta TrkEnd
TrkEnd
MTrk
0 SeqSpec 43 00 01 00
0 SysEx f0 41 10 42 12 40 00 7f 00 41 f7
0 SysEx f0 41 10 42 12 40 01 30 03 0c f7
0 Meta TrkEnd
TrkEnd
MTrk
0 SeqSpec 43 00 01 00
0 Meta TrkName "Etude No. 4"
0 Meta 0x21 00
480 Par ch=1 c=0 v=0
480 Par ch=1 c=93 v=20
480 Par ch=1 c=0 v=0
480 Par ch=1 c=91 v=64
488 PrCh ch=1 p=0
492 Par ch=1 c=7 v=127
1432 Par ch=1 c=64 v=127
3360 On ch=1 n=g#4 v=99
3360 On ch=1 n=g#3 v=90
3364 On ch=1 n=g#5 v=90
3364 On ch=1 n=g#6 v=95
3476 On ch=1 n=f#6 v=83
3512 On ch=1 n=g#5 v=0
3560 On ch=1 n=g#6 v=0
3596 On ch=1 n=e6 v=81
3640 On ch=1 n=f#6 v=0
3708 On ch=1 n=g#4 v=0
3724 On ch=1 n=d#6 v=77
3744 On ch=1 n=e6 v=0
3760 On ch=1 n=g#3 v=0
3836 On ch=1 n=c#4 v=87
3836 On ch=1 n=c#3 v=92
3844 On ch=1 n=c#6 v=74
3844 On ch=1 n=c#7 v=87
3844 Par ch=1 c=64 v=0
3856 On ch=1 n=d#6 v=0
3908 On ch=1 n=c#3 v=0
3920 On ch=1 n=c#4 v=0
3968 On ch=1 n=d#6 v=65
3972 On ch=1 n=c#7 v=0
3992 On ch=1 n=c#6 v=0
4088 On ch=1 n=c6 v=69
4092 On ch=1 n=d#6 v=0
4204 On ch=1 n=c#6 v=69
4232 On ch=1 n=c6 v=0
4320 On ch=1 n=d#6 v=62
4324 On ch=1 n=f#5 v=57
4324 On ch=1 n=a5 v=61
4372 On ch=1 n=c#6 v=0
4416 On ch=1 n=a5 v=0
4416 On ch=1 n=f#5 v=0
4436 On ch=1 n=e6 v=69
4532 On ch=1 n=d#6 v=0
4564 On ch=1 n=c#6 v=65
4584 On ch=1 n=e6 v=0
4684 On ch=1 n=d#6 v=71
4724 On ch=1 n=c#6 v=0
4804 On ch=1 n=e6 v=73
4804 On ch=1 n=e5 v=63
4804 On ch=1 n=g#5 v=66
4840 On ch=1 n=d#6 v=0
4856 On ch=1 n=g#5 v=0
4864 On ch=1 n=e5 v=0
4924 On ch=1 n=f#6 v=74
4964 On ch=1 n=e6 v=0
5048 On ch=1 n=d#6 v=73
5056 On ch=1 n=f#6 v=0
5164 On ch=1 n=e6 v=72
5180 On ch=1 n=d#6 v=0
5284 On ch=1 n=f#6 v=75
5288 On ch=1 n=f#5 v=67
5288 On ch=1 n=d#5 v=71
5312 On ch=1 n=e6 v=0
5328 On ch=1 n=f#5 v=0
5332 On ch=1 n=d#5 v=0
5408 On ch=1 n=g#6 v=75
5460 On ch=1 n=f#6 v=0
5528 On ch=1 n=e6 v=75
5532 On ch=1 n=g#6 v=0
5648 On ch=1 n=f#6 v=78
5684 On ch=1 n=e6 v=0
5768 On ch=1 n=g#6 v=73
5768 On ch=1 n=c#5 v=71
5768 On ch=1 n=e5 v=64
5820 On ch=1 n=e5 v=0
5820 On ch=1 n=f#6 v=0
5832 On ch=1 n=c#5 v=0
5888 On ch=1 n=a6 v=76
5920 On ch=1 n=g#6 v=0
5988 On ch=1 n=a6 v=0
6004 On ch=1 n=g#6 v=70
6120 On ch=1 n=g#6 v=0
6128 On ch=1 n=c#7 v=84
6244 On ch=1 n=c#5 v=72
6244 On ch=1 n=f#5 v=76
6248 On ch=1 n=f#6 v=69
6248 On ch=1 n=a4 v=69
6256 On ch=1 n=c#7 v=0
6296 On ch=1 n=a4 v=0
6300 On ch=1 n=f#5 v=0
6320 On ch=1 n=c#5 v=0
6368 On ch=1 n=g#6 v=79
6384 On ch=1 n=f#6 v=0
6488 On ch=1 n=f#6 v=78
6496 On ch=1 n=g#6 v=0
6608 On ch=1 n=c#7 v=79
6616 On ch=1 n=f#6 v=0
6728 On ch=1 n=e6 v=70
6728 On ch=1 n=c#5 v=76
6728 On ch=1 n=e5 v=66
6728 On ch=1 n=g#4 v=63
6740 On ch=1 n=c#7 v=0
6784 On ch=1 n=g#4 v=0
6788 On ch=1 n=e5 v=0
6804 On ch=1 n=c#5 v=0
6848 On ch=1 n=f#6 v=71
6860 On ch=1 n=e6 v=0
6968 On ch=1 n=e6 v=71
6984 On ch=1 n=f#6 v=0
7080 On ch=1 n=e6 v=0
7088 On ch=1 n=c#7 v=74
7204 On ch=1 n=d#5 v=73
7204 On ch=1 n=f#4 v=65
7204 On ch=1 n=c#5 v=82
7208 On ch=1 n=d#6 v=70
7212 On ch=1 n=c#7 v=0
7280 On ch=1 n=d#5 v=0
7284 On ch=1 n=c#5 v=0
7284 On ch=1 n=f#4 v=0
7328 On ch=1 n=e6 v=68
7340 On ch=1 n=d#6 v=0
7444 On ch=1 n=d#6 v=73
7456 On ch=1 n=e6 v=0
7568 On ch=1 n=c#7 v=82
7588 Par ch=1 c=64 v=127
7592 On ch=1 n=d#6 v=0
7624 On ch=1 n=c#4 v=72
7644 On ch=1 n=c#7 v=0
7664 On ch=1 n=g#4 v=83
7680 On ch=1 n=c#4 v=0
7684 On ch=1 n=c#6 v=82
7720 On ch=1 n=e5 v=83
7760 On ch=1 n=g#4 v=0
7772 On ch=1 n=e5 v=0
7804 On ch=1 n=g#6 v=87
7828 On ch=1 n=c#6 v=0
7924 On ch=1 n=e7 v=79
7968 On ch=1 n=g#6 v=0
7972 Par ch=1 c=64 v=0
8036 On ch=1 n=e7 v=0
8036 On ch=1 n=g#3 v=76
8044 On ch=1 n=a6 v=74
8092 On ch=1 n=f#4 v=81
8104 Par ch=1 c=64 v=127
8108 On ch=1 n=g#3 v=0
8136 On ch=1 n=a6 v=0
8164 On ch=1 n=c6 v=70
8188 On ch=1 n=f#4 v=0
8188 On ch=1 n=c5 v=87
8248 On ch=1 n=c5 v=0
8284 On ch=1 n=f#6 v=72
8300 On ch=1 n=c6 v=0
8404 On ch=1 n=d#7 v=82
8472 Par ch=1 c=64 v=0
8496 On ch=1 n=f#6 v=0
8520 On ch=1 n=d#7 v=0
8524 On ch=1 n=g#6 v=79
8580 On ch=1 n=g#6 v=0
8580 Par ch=1 c=64 v=127
8636 On ch=1 n=c#4 v=53
8636 On ch=1 n=c#5 v=75
8636 On ch=1 n=e4 v=86
8644 On ch=1 n=g#5 v=66
8720 On ch=1 n=c#4 v=0
8724 On ch=1 n=e4 v=0
8732 On ch=1 n=c#5 v=0
8756 On ch=1 n=g#5 v=0
8764 On ch=1 n=e6 v=75
8884 On ch=1 n=c#7 v=74
8972 On ch=1 n=e6 v=0
8972 Par ch=1 c=64 v=0
8996 On ch=1 n=f#6 v=74
9004 On ch=1 n=c#7 v=0
9068 On ch=1 n=f#6 v=0
9092 Par ch=1 c=64 v=127
9116 On ch=1 n=g#5 v=79
9124 On ch=1 n=g#3 v=88
9124 On ch=1 n=g#4 v=93
9164 On ch=1 n=g#4 v=0
9168 On ch=1 n=g#3 v=0
9216 On ch=1 n=g#5 v=0
9236 On ch=1 n=d#6 v=71
9356 On ch=1 n=c7 v=76
9388 On ch=1 n=d#6 v=0
9424 On ch=1 n=c7 v=0
9464 Par ch=1 c=64 v=0
9476 On ch=1 n=e6 v=72
9512 On ch=1 n=e6 v=0
9604 On ch=1 n=c#6 v=88
9604 On ch=1 n=c#7 v=92
9604 On ch=1 n=c#3 v=86
9604 On ch=1 n=c#4 v=92
9656 On ch=1 n=c#3 v=0
9660 On ch=1 n=c#4 v=0
9700 On ch=1 n=c#7 v=0
9704 On ch=1 n=c#6 v=0
9844 On ch=1 n=a5 v=80
9848 On ch=1 n=a4 v=90
9848 On ch=1 n=a3 v=97
9888 On ch=1 n=a4 v=0
9892 On ch=1 n=a3 v=0
9960 On ch=1 n=a6 v=82
9972 On ch=1 n=a5 v=0
10016 On ch=1 n=a6 v=0
10084 On ch=1 n=g#5 v=78
10084 On ch=1 n=g#4 v=88
10084 On ch=1 n=g#3 v=92
10120 On ch=1 n=g#3 v=0
10120 On ch=1 n=g#4 v=0
10204 On ch=1 n=g#6 v=83
10236 On ch=1 n=g#5 v=0
10260 On ch=1 n=g#6 v=0
10324 On ch=1 n=g5 v=78
10324 On ch=1 n=g4 v=97
10324 On ch=1 n=g3 v=97
10360 On ch=1 n=g3 v=0
10360 On ch=1 n=g4 v=0
10440 On ch=1 n=g6 v=75
10460 On ch=1 n=g5 v=0
10488 On ch=1 n=g6 v=0
10564 On ch=1 n=g#5 v=75
10564 On ch=1 n=g#4 v=93
10564 On ch=1 n=g#3 v=93
10588 On ch=1 n=g#3 v=0
10596 On ch=1 n=g#4 v=0
10676 On ch=1 n=g#6 v=79
10724 On ch=1 n=g#5 v=0
10732 On ch=1 n=g#6 v=0
10804 On ch=1 n=c#5 v=83
10808 On ch=1 n=c#3 v=95
10808 On ch=1 n=c#4 v=101
10836 On ch=1 n=c#4 v=0
10840 On ch=1 n=c#3 v=0
10924 On ch=1 n=c#6 v=82
10952 On ch=1 n=c#5 v=0
10980 On ch=1 n=c#6 v=0
11044 On ch=1 n=d#3 v=93
11044 On ch=1 n=d#4 v=97
11048 On ch=1 n=d#6 v=79
11048 On ch=1 n=c#5 v=82
11048 On ch=1 n=a#5 v=92
11048 On ch=1 n=d#5 v=82
11048 On ch=1 n=g5 v=93
11064 Par ch=1 c=64 v=127
11156 On ch=1 n=d#4 v=0
11164 On ch=1 n=c#4 v=82
11188 On ch=1 n=d#3 v=0
11264 On ch=1 n=c#4 v=0
11284 On ch=1 n=b3 v=89
11376 On ch=1 n=d#5 v=0
11388 On ch=1 n=a#5 v=0
11388 On ch=1 n=c#5 v=0
11392 On ch=1 n=g5 v=0
11392 On ch=1 n=d#6 v=0
11396 On ch=1 n=b3 v=0
11404 On ch=1 n=a#3 v=86
11508 On ch=1 n=a#3 v=0
11520 Par ch=1 c=64 v=0
11524 On ch=1 n=g#5 v=74
11524 On ch=1 n=d#5 v=72
11524 On ch=1 n=b4 v=65
11524 On ch=1 n=b5 v=70
11524 On ch=1 n=g#3 v=87
11596 On ch=1 n=d#5 v=0
11600 On ch=1 n=b5 v=0
11604 On ch=1 n=g#5 v=0
11620 On ch=1 n=b4 v=0
11632 On ch=1 n=g#3 v=0
11644 On ch=1 n=a#3 v=82
11732 On ch=1 n=a#3 v=0
11764 On ch=1 n=g3 v=81
11884 On ch=1 n=g#3 v=82
11900 On ch=1 n=g3 v=0
12004 On ch=1 n=g#3 v=0
12004 On ch=1 n=g5 v=72
12004 On ch=1 n=d#5 v=73
12004 On ch=1 n=c#5 v=64
12004 On ch=1 n=a#3 v=79
12080 On ch=1 n=c#5 v=0
12084 On ch=1 n=d#5 v=0
12096 On ch=1 n=a#3 v=0
12096 On ch=1 n=g5 v=0
12124 On ch=1 n=b3 v=77
12228 On ch=1 n=b3 v=0
12244 On ch=1 n=g#3 v=78
12364 On ch=1 n=a#3 v=79
12376 On ch=1 n=g#3 v=0
12476 On ch=1 n=a#3 v=0
12484 On ch=1 n=b4 v=63
12484 On ch=1 n=g#5 v=70
12484 On ch=1 n=d#5 v=74
12484 On ch=1 n=b3 v=79
12540 On ch=1 n=d#5 v=0
12572 On ch=1 n=b3 v=0
12572 On ch=1 n=g#5 v=0
12584 On ch=1 n=b4 v=0
12600 On ch=1 n=c#4 v=75
12716 On ch=1 n=a#3 v=75
12720 On ch=1 n=c#4 v=0
12840 On ch=1 n=a#3 v=0
12844 On ch=1 n=b3 v=74
12948 On ch=1 n=b3 v=0
12956 On ch=1 n=e5 v=78
12956 On ch=1 n=g#5 v=75
12956 On ch=1 n=c#5 v=73
12964 On ch=1 n=c#4 v=75
13032 On ch=1 n=e5 v=0
13040 On ch=1 n=c#5 v=0
13048 On ch=1 n=g#5 v=0
13072 On ch=1 n=c#4 v=0
13084 On ch=1 n=d#4 v=75
13180 On ch=1 n=d#4 v=0
13204 On ch=1 n=b3 v=74
13324 On ch=1 n=c#4 v=72
13332 On ch=1 n=b3 v=0
13436 On ch=1 n=c#4 v=0
13436 On ch=1 n=d#5 v=77
13436 On ch=1 n=b4 v=62
13436 On ch=1 n=g#5 v=72
13444 On ch=1 n=d#4 v=70
13508 On ch=1 n=b4 v=0
13516 On ch=1 n=d#5 v=0
13524 On ch=1 n=g#5 v=0
13544 On ch=1 n=d#4 v=0
13556 On ch=1 n=e4 v=67
13676 On ch=1 n=e4 v=0
13680 On ch=1 n=d#4 v=67
13792 On ch=1 n=d#4 v=0
13804 On ch=1 n=g#4 v=72
13916 On ch=1 n=g#4 v=0
13916 On ch=1 n=g#5 v=67
13916 On ch=1 n=c#5 v=62
13916 On ch=1 n=e5 v=72
13924 On ch=1 n=c#4 v=71
13980 On ch=1 n=c#5 v=0
13988 On ch=1 n=e5 v=0
14008 On ch=1 n=g#5 v=0
14040 On ch=1 n=c#4 v=0
14040 On ch=1 n=d#4 v=74
14132 On ch=1 n=d#4 v=0
14152 On ch=1 n=c#4 v=71
14260 On ch=1 n=c#4 v=0
14272 On ch=1 n=g#4 v=72
14392 On ch=1 n=g#4 v=0
14396 On ch=1 n=g#5 v=72
14396 On ch=1 n=d#5 v=60
14396 On ch=1 n=b3 v=72
14456 On ch=1 n=d#5 v=0
14476 On ch=1 n=g#5 v=0
14500 On ch=1 n=b3 v=0
14516 On ch=1 n=c#4 v=69
14628 On ch=1 n=c#4 v=0
14640 On ch=1 n=b3 v=72
14728 On ch=1 n=b3 v=0
14764 On ch=1 n=g#4 v=67
14860 On ch=1 n=g#4 v=0
14872 On ch=1 n=a#5 v=64
14872 On ch=1 n=d#5 v=75
14872 On ch=1 n=c#5 v=64
14876 On ch=1 n=a#3 v=66
14952 On ch=1 n=c#5 v=0
14952 On ch=1 n=d#5 v=0
14960 On ch=1 n=a#5 v=0
14992 On ch=1 n=b3 v=68
15000 On ch=1 n=a#3 v=0
15120 On ch=1 n=a#3 v=77
15128 On ch=1 n=b3 v=0
15236 On ch=1 n=a#3 v=0
15236 On ch=1 n=g4 v=71
15356 On ch=1 n=d#5 v=74
15356 On ch=1 n=g#5 v=73
15356 On ch=1 n=b5 v=61
15356 On ch=1 n=b4 v=49
15360 On ch=1 n=g4 v=0
15364 On ch=1 n=g#3 v=83
15436 On ch=1 n=g#5 v=0
15436 On ch=1 n=d#5 v=0
15444 On ch=1 n=b5 v=0
15460 On ch=1 n=b4 v=0
15484 On ch=1 n=e4 v=80
15504 On ch=1 n=g#3 v=0
15600 On ch=1 n=b4 v=72
15688 On ch=1 n=e4 v=0
15724 On ch=1 n=d#4 v=75
15744 On ch=1 n=b4 v=0
15780 Par ch=1 c=64 v=127
15820 On ch=1 n=d#4 v=0
15844 On ch=1 n=d#6 v=74
15844 On ch=1 n=a#6 v=83
15844 On ch=1 n=d#7 v=63
15844 On ch=1 n=g3 v=76
15964 On ch=1 n=g3 v=0
15964 On ch=1 n=e4 v=48
16084 On ch=1 n=a#4 v=70
16152 On ch=1 n=a#4 v=0
16180 On ch=1 n=e4 v=0
16204 On ch=1 n=d#4 v=67
16296 Par ch=1 c=64 v=0
16320 On ch=1 n=g#6 v=80
16324 On ch=1 n=b6 v=76
16324 On ch=1 n=g#3 v=78
16328 On ch=1 n=d#4 v=0
16348 On ch=1 n=d#7 v=0
16368 On ch=1 n=a#6 v=0
16416 On ch=1 n=d#6 v=0
16428 On ch=1 n=b6 v=0
16428 On ch=1 n=g#6 v=0
16444 On ch=1 n=e4 v=75
16456 On ch=1 n=g#3 v=0
16564 On ch=1 n=b4 v=80
16636 On ch=1 n=e4 v=0
16676 On ch=1 n=d#4 v=73
16680 On ch=1 n=b4 v=0
16732 Par ch=1 c=64 v=127
16772 On ch=1 n=d#4 v=0
16796 On ch=1 n=a#5 v=77
16796 On ch=1 n=d#5 v=68
16796 On ch=1 n=d#6 v=60
16796 On ch=1 n=g3 v=84
16908 On ch=1 n=g3 v=0
16916 On ch=1 n=e4 v=76
17036 On ch=1 n=a#4 v=69
17108 On ch=1 n=e4 v=0
17156 On ch=1 n=d#4 v=75
17172 On ch=1 n=a#4 v=0
17232 On ch=1 n=d#4 v=0
17232 Par ch=1 c=64 v=0
17272 On ch=1 n=b5 v=71
17272 On ch=1 n=g#3 v=92
17276 On ch=1 n=g#5 v=70
17276 On ch=1 n=g#4 v=90
17320 On ch=1 n=g#3 v=0
17328 On ch=1 n=g#4 v=0
17328 On ch=1 n=a#5 v=0
17336 On ch=1 n=d#6 v=0
17352 On ch=1 n=g#5 v=0
17356 On ch=1 n=d#5 v=0
17376 On ch=1 n=b5 v=0
17520 On ch=1 n=c#5 v=70
17524 On ch=1 n=e5 v=57
17648 On ch=1 n=g5 v=61
17752 On ch=1 n=b4 v=65
17756 On ch=1 n=g5 v=0
17756 On ch=1 n=e5 v=0
17760 On ch=1 n=c#5 v=0
17768 On ch=1 n=d#5 v=60
17856 On ch=1 n=b4 v=0
17888 On ch=1 n=g#5 v=64
17956 On ch=1 n=d#5 v=0
17996 On ch=1 n=e5 v=63
18000 On ch=1 n=g#5 v=0
18008 On ch=1 n=g5 v=60
18128 On ch=1 n=a#5 v=57
18204 On ch=1 n=g5 v=0
18240 On ch=1 n=a#5 v=0
18248 On ch=1 n=f#5 v=60
18248 On ch=1 n=d#5 v=67
18264 On ch=1 n=e5 v=0
18352 On ch=1 n=d#5 v=0
18368 On ch=1 n=b5 v=63
18452 On ch=1 n=f#5 v=0
18484 On ch=1 n=b5 v=0
18484 On ch=1 n=f#5 v=65
18488 On ch=1 n=a5 v=65
18608 On ch=1 n=c6 v=58
18696 On ch=1 n=a5 v=0
18716 On ch=1 n=c6 v=0
18716 On ch=1 n=f#5 v=0
18724 On ch=1 n=e5 v=64
18728 On ch=1 n=g#5 v=65
18836 On ch=1 n=e5 v=0
18848 On ch=1 n=c#6 v=60
18932 On ch=1 n=g#5 v=0
18952 On ch=1 n=c#6 v=0
18956 On ch=1 n=d#5 v=54
18956 On ch=1 n=f#5 v=67
18960 On ch=1 n=g#4 v=53
18968 On ch=1 n=c6 v=56
19084 On ch=1 n=d#6 v=53
19164 On ch=1 n=c6 v=0
19192 On ch=1 n=d#6 v=0
19204 On ch=1 n=e5 v=64
19204 On ch=1 n=c#5 v=52
19208 On ch=1 n=c#6 v=66
19232 On ch=1 n=f#5 v=0
19256 On ch=1 n=g#4 v=0
19260 On ch=1 n=d#5 v=0
19300 On ch=1 n=c#5 v=0
19304 On ch=1 n=e5 v=0
19328 On ch=1 n=d#6 v=62
19336 On ch=1 n=c#6 v=0
19448 On ch=1 n=c6 v=58
19452 On ch=1 n=d#6 v=0
19568 On ch=1 n=c#6 v=59
19632 On ch=1 n=c6 v=0
19684 On ch=1 n=a5 v=61
19688 On ch=1 n=d#6 v=58
19688 On ch=1 n=f#5 v=66
19752 On ch=1 n=c#6 v=0
19764 On ch=1 n=a5 v=0
19768 On ch=1 n=f#5 v=0
19808 On ch=1 n=e6 v=59
19864 On ch=1 n=d#6 v=0
19928 On ch=1 n=c#6 v=51
19932 On ch=1 n=e6 v=0
20044 On ch=1 n=d#6 v=58
20108 On ch=1 n=c#6 v=0
20164 On ch=1 n=g#5 v=60
20164 On ch=1 n=e5 v=62
20168 On ch=1 n=e6 v=60
20216 On ch=1 n=d#6 v=0
20236 On ch=1 n=g#5 v=0
20240 On ch=1 n=e5 v=0
20284 On ch=1 n=f#6 v=55
20312 On ch=1 n=e6 v=0
20404 On ch=1 n=d#6 v=61
20436 On ch=1 n=f#6 v=0
20528 On ch=1 n=e6 v=54
20556 On ch=1 n=d#6 v=0
20644 On ch=1 n=f#5 v=63
20644 On ch=1 n=d#5 v=63
20648 On ch=1 n=f#6 v=60
20688 On ch=1 n=e6 v=0
20724 On ch=1 n=f#5 v=0
20728 On ch=1 n=d#5 v=0
20768 On ch=1 n=g#6 v=58
20832 On ch=1 n=f#6 v=0
20892 On ch=1 n=e6 v=60
20900 On ch=1 n=g#6 v=0
21008 On ch=1 n=f#6 v=61
21040 On ch=1 n=e6 v=0
21124 On ch=1 n=c#5 v=77
21124 On ch=1 n=e5 v=72
21128 On ch=1 n=g#6 v=67
21192 On ch=1 n=f#6 v=0
21204 On ch=1 n=e5 v=0
21208 On ch=1 n=c#5 v=0
21248 On ch=1 n=a6 v=67
21284 On ch=1 n=g#6 v=0
21368 On ch=1 n=g#6 v=70
21372 On ch=1 n=a6 v=0
21488 On ch=1 n=c#7 v=66
21504 On ch=1 n=g#6 v=0
21604 On ch=1 n=c#5 v=82
21604 On ch=1 n=f#5 v=82
21608 On ch=1 n=f#6 v=64
21608 On ch=1 n=a4 v=76
21616 On ch=1 n=c#7 v=0
21664 On ch=1 n=a4 v=0
21668 On ch=1 n=f#5 v=0
21672 On ch=1 n=c#5 v=0
21728 On ch=1 n=g#6 v=76
21732 On ch=1 n=f#6 v=0
21848 On ch=1 n=f#6 v=69
21852 On ch=1 n=g#6 v=0
21968 On ch=1 n=c#7 v=75
21992 On ch=1 n=f#6 v=0
22088 On ch=1 n=e6 v=69
22088 On ch=1 n=c#5 v=80
22088 On ch=1 n=e5 v=68
22088 On ch=1 n=g#4 v=80
22092 On ch=1 n=c#7 v=0
22156 On ch=1 n=e5 v=0
22156 On ch=1 n=c#5 v=0
22160 On ch=1 n=g#4 v=0
22208 On ch=1 n=f#6 v=76
22224 On ch=1 n=e6 v=0
22328 On ch=1 n=e6 v=72
22344 On ch=1 n=f#6 v=0
22448 On ch=1 n=c#7 v=72
22452 On ch=1 n=e6 v=0
22564 On ch=1 n=c#5 v=82
22564 On ch=1 n=f#4 v=75
22564 On ch=1 n=d#5 v=75
22568 On ch=1 n=d#6 v=67
22580 On ch=1 n=c#7 v=0
22616 On ch=1 n=d#5 v=0
22636 On ch=1 n=f#4 v=0
22640 On ch=1 n=c#5 v=0
22688 On ch=1 n=e6 v=72
22708 On ch=1 n=d#6 v=0
22808 On ch=1 n=d#6 v=75
22820 On ch=1 n=e6 v=0
22928 On ch=1 n=c#7 v=82
22972 On ch=1 n=d#6 v=0
22972 On ch=1 n=c#4 v=75
22980 Par ch=1 c=64 v=127
23004 On ch=1 n=c#7 v=0
23016 On ch=1 n=g#4 v=78
23032 On ch=1 n=c#4 v=0
23036 On ch=1 n=c#6 v=76
23064 On ch=1 n=e5 v=74
23112 On ch=1 n=e5 v=0
23124 On ch=1 n=g#4 v=0
23156 On ch=1 n=g#6 v=79
23164 On ch=1 n=c#6 v=0
23284 On ch=1 n=e7 v=80
23336 Par ch=1 c=64 v=0
23344 On ch=1 n=g#6 v=0
23388 On ch=1 n=e7 v=0
23396 On ch=1 n=g#3 v=65
23404 On ch=1 n=a6 v=80
23452 Par ch=1 c=64 v=127
23468 On ch=1 n=f#4 v=70
23480 On ch=1 n=g#3 v=0
23524 On ch=1 n=a6 v=0
23524 On ch=1 n=c6 v=82
23540 On ch=1 n=c5 v=80
23580 On ch=1 n=f#4 v=0
23616 On ch=1 n=c5 v=0
23644 On ch=1 n=f#6 v=86
23672 On ch=1 n=c6 v=0
23764 On ch=1 n=d#7 v=87
23812 Par ch=1 c=64 v=0
23840 On ch=1 n=f#6 v=0
23868 On ch=1 n=d#7 v=0
23868 On ch=1 n=a3 v=72
23884 On ch=1 n=g#6 v=86
23932 On ch=1 n=e4 v=74
23948 On ch=1 n=a3 v=0
23952 On ch=1 n=g#6 v=0
23960 Par ch=1 c=64 v=127
24004 On ch=1 n=a5 v=85
24012 On ch=1 n=c#5 v=84
24040 On ch=1 n=e4 v=0
24060 On ch=1 n=c#5 v=0
24124 On ch=1 n=a5 v=0
24124 On ch=1 n=d#6 v=87
24244 On ch=1 n=c#7 v=89
24260 Par ch=1 c=64 v=0
24344 On ch=1 n=c#7 v=0
24364 On ch=1 n=e6 v=91
24400 On ch=1 n=d#6 v=0
24432 On ch=1 n=e6 v=0
24444 Par ch=1 c=64 v=127
24484 On ch=1 n=g#5 v=93
24484 On ch=1 n=f4 v=71
24484 On ch=1 n=f5 v=76
24488 On ch=1 n=d5 v=84
24488 On ch=1 n=b4 v=83
24604 On ch=1 n=c#6 v=95
24636 On ch=1 n=g#5 v=0
24724 On ch=1 n=b6 v=94
24752 On ch=1 n=c#6 v=0
24796 On ch=1 n=d5 v=0
24800 On ch=1 n=b4 v=0
24804 On ch=1 n=f5 v=0
24812 On ch=1 n=f4 v=0
24844 On ch=1 n=d6 v=93
24860 On ch=1 n=b6 v=0
24860 Par ch=1 c=64 v=0
24928 On ch=1 n=d6 v=0
24952 Par ch=1 c=64 v=127
24960 On ch=1 n=f#4 v=96
24960 On ch=1 n=a4 v=96
24960 On ch=1 n=c#5 v=96
24960 On ch=1 n=f#5 v=96
24984 On ch=1 n=a5 v=92
25024 On ch=1 n=f#5 v=0
25024 On ch=1 n=a4 v=0
25028 On ch=1 n=c#5 v=0
25028 On ch=1 n=f#4 v=0
25096 On ch=1 n=c#6 v=94
25132 On ch=1 n=a5 v=0
25212 On ch=1 n=d4 v=102
25212 On ch=1 n=d5 v=102
25212 Par ch=1 c=64 v=0
25216 On ch=1 n=a6 v=94
25240 On ch=1 n=c#6 v=0
25264 On ch=1 n=d5 v=0
25272 On ch=1 n=d4 v=0
25332 On ch=1 n=f#6 v=92
25340 On ch=1 n=a6 v=0
25400 On ch=1 n=f#6 v=0
25428 Par ch=1 c=64 v=127
25444 On ch=1 n=a6 v=93
25448 On ch=1 n=c#4 v=102
25448 On ch=1 n=c#5 v=102
25480 On ch=1 n=c#5 v=0
25500 On ch=1 n=c#4 v=0
25568 On ch=1 n=c#7 v=91
25592 On ch=1 n=c#7 v=0
25632 On ch=1 n=a6 v=0
25684 On ch=1 n=a3 v=107
25684 On ch=1 n=a4 v=107
25696 On ch=1 n=a7 v=92
25728 On ch=1 n=a4 v=0
25736 On ch=1 n=a3 v=0
25816 On ch=1 n=f#7 v=94
25844 On ch=1 n=a7 v=0
25924 On ch=1 n=f#3 v=102
25924 On ch=1 n=f#4 v=102
25932 On ch=1 n=c#7 v=98
25956 On ch=1 n=f#4 v=0
25968 On ch=1 n=f#7 v=0
25972 On ch=1 n=f#3 v=0
26012 Par ch=1 c=64 v=0
26056 On ch=1 n=a6 v=95
26060 On ch=1 n=c#7 v=0
26124 On ch=1 n=a6 v=0
26164 On ch=1 n=c#4 v=102
26164 On ch=1 n=c#3 v=102
26176 On ch=1 n=f#6 v=94
26208 On ch=1 n=c#4 v=0
26220 On ch=1 n=c#3 v=0
26300 On ch=1 n=c#6 v=96
26304 On ch=1 n=f#6 v=0
26404 On ch=1 n=d3 v=105
26404 On ch=1 n=d4 v=105
26424 On ch=1 n=c#6 v=0
26428 On ch=1 n=a5 v=96
26520 On ch=1 n=a5 v=0
26552 On ch=1 n=f#5 v=97
26664 On ch=1 n=f#5 v=0
26672 On ch=1 n=d5 v=96
26764 On ch=1 n=d4 v=0
26768 On ch=1 n=d3 v=0
26772 On ch=1 n=a4 v=97
26792 On ch=1 n=d5 v=0
26828 On ch=1 n=a4 v=0
26884 On ch=1 n=g#5 v=78
26884 On ch=1 n=b4 v=55
26884 On ch=1 n=d5 v=57
26888 On ch=1 n=f3 v=69
26952 Par ch=1 c=64 v=127
27004 On ch=1 n=f#3 v=66
27008 On ch=1 n=f3 v=0
27108 On ch=1 n=f#3 v=0
27124 On ch=1 n=e3 v=69
27244 On ch=1 n=f3 v=73
27264 On ch=1 n=e3 v=0
27352 Par ch=1 c=64 v=0
27364 On ch=1 n=f#5 v=78
27364 On ch=1 n=f#3 v=79
27376 On ch=1 n=f3 v=0
27384 On ch=1 n=g#5 v=0
27476 On ch=1 n=f#3 v=0
27484 On ch=1 n=g#3 v=65
27588 On ch=1 n=g#3 v=0
27604 On ch=1 n=f3 v=61
27720 On ch=1 n=f#3 v=69
27736 On ch=1 n=f3 v=0
27840 On ch=1 n=g#3 v=74
27844 On ch=1 n=f5 v=72
27856 On ch=1 n=f#3 v=0
27868 On ch=1 n=f#5 v=0
27960 On ch=1 n=g#3 v=0
27964 On ch=1 n=a3 v=70
28080 On ch=1 n=f#3 v=80
28092 On ch=1 n=a3 v=0
28196 On ch=1 n=g#3 v=74
28200 On ch=1 n=b4 v=0
28204 On ch=1 n=d5 v=0
28224 On ch=1 n=f#3 v=0
28272 On ch=1 n=f5 v=0
28316 On ch=1 n=d5 v=54
28316 On ch=1 n=a4 v=52
28316 On ch=1 n=f#5 v=78
28316 On ch=1 n=a3 v=74
28324 On ch=1 n=g#3 v=0
28436 On ch=1 n=b3 v=70
28440 On ch=1 n=a3 v=0
28556 On ch=1 n=b3 v=0
28556 On ch=1 n=a3 v=75
28668 On ch=1 n=a3 v=0
28676 On ch=1 n=b3 v=58
28724 On ch=1 n=a4 v=0
28728 On ch=1 n=f#5 v=0
28756 On ch=1 n=d5 v=0
28796 On ch=1 n=b4 v=55
28796 On ch=1 n=g#5 v=75
28796 On ch=1 n=d5 v=57
28796 Par ch=1 c=64 v=127
28804 On ch=1 n=b3 v=0
28804 On ch=1 n=f3 v=65
28920 On ch=1 n=f#3 v=71
28936 On ch=1 n=f3 v=0
29044 On ch=1 n=f#3 v=0
29044 On ch=1 n=e3 v=72
29156 On ch=1 n=f3 v=75
29196 On ch=1 n=e3 v=0
29260 Par ch=1 c=64 v=0
29276 On ch=1 n=f#5 v=76
29280 On ch=1 n=f#3 v=69
29300 On ch=1 n=f3 v=0
29308 On ch=1 n=g#5 v=0
29404 On ch=1 n=g#3 v=66
29428 On ch=1 n=f#3 v=0
29524 On ch=1 n=f3 v=66
29528 On ch=1 n=g#3 v=0
29644 On ch=1 n=f#3 v=76
29668 On ch=1 n=f3 v=0
29756 On ch=1 n=f5 v=72
29760 On ch=1 n=g#3 v=67
29784 On ch=1 n=f#3 v=0
29792 On ch=1 n=f#5 v=0
29876 On ch=1 n=g#3 v=0
29884 On ch=1 n=a3 v=66
29996 On ch=1 n=f#3 v=80
30008 On ch=1 n=d5 v=0
30012 On ch=1 n=a3 v=0
30036 On ch=1 n=b4 v=0
30116 On ch=1 n=g#3 v=68
30152 On ch=1 n=f#3 v=0
30212 On ch=1 n=f5 v=0
30236 On ch=1 n=f#5 v=74
30236 On ch=1 n=c#5 v=56
30236 On ch=1 n=a3 v=76
30256 On ch=1 n=g#3 v=0
30356 On ch=1 n=a3 v=0
30356 On ch=1 n=b3 v=68
30476 On ch=1 n=a3 v=66
30496 On ch=1 n=b3 v=0
30516 On ch=1 n=c#5 v=0
30520 On ch=1 n=f#5 v=0
30596 On ch=1 n=b3 v=73
30640 On ch=1 n=a3 v=0
30708 Par ch=1 c=64 v=127
30716 On ch=1 n=c4 v=68
30724 On ch=1 n=a5 v=52
30724 On ch=1 n=f#5 v=54
30724 On ch=1 n=d#6 v=74
30752 On ch=1 n=b3 v=0
30836 On ch=1 n=c#4 v=72
30840 On ch=1 n=c4 v=0
30956 On ch=1 n=b3 v=63
30960 On ch=1 n=c#4 v=0
31076 On ch=1 n=c4 v=70
31116 On ch=1 n=b3 v=0
31160 Par ch=1 c=64 v=0
31184 On ch=1 n=d#6 v=0
31196 On ch=1 n=c#6 v=74
31196 On ch=1 n=c#4 v=67
31216 On ch=1 n=c4 v=0
31316 On ch=1 n=d#4 v=60
31332 On ch=1 n=c#4 v=0
31436 On ch=1 n=c4 v=65
31444 On ch=1 n=d#4 v=0
31556 On ch=1 n=c#4 v=69
31596 On ch=1 n=c4 v=0
31672 On ch=1 n=d#4 v=68
31676 On ch=1 n=c6 v=75
31692 On ch=1 n=c#6 v=0
31708 On ch=1 n=c#4 v=0
31796 On ch=1 n=e4 v=65
31804 On ch=1 n=d#4 v=0
31900 On ch=1 n=f#5 v=0
31916 On ch=1 n=c#4 v=62
31932 On ch=1 n=e4 v=0
31960 On ch=1 n=a5 v=0
32032 On ch=1 n=d#4 v=67
32112 Par ch=1 c=64 v=127
32128 On ch=1 n=c#4 v=0
32132 On ch=1 n=c6 v=0
32152 On ch=1 n=e4 v=72
32156 On ch=1 n=e5 v=53
32156 On ch=1 n=c#6 v=73
32156 On ch=1 n=g#5 v=57
32196 On ch=1 n=d#4 v=0
32260 On ch=1 n=e4 v=0
32272 On ch=1 n=f#4 v=65
32392 On ch=1 n=d#4 v=64
32404 On ch=1 n=f#4 v=0
32516 On ch=1 n=e4 v=72
32576 On ch=1 n=d#4 v=0
32596 On ch=1 n=e5 v=0
32600 On ch=1 n=g#5 v=0
32624 Par ch=1 c=64 v=0
32636 On ch=1 n=f#4 v=67
32640 On ch=1 n=e4 v=0
32648 On ch=1 n=d#5 v=57
32648 On ch=1 n=a5 v=65
32752 On ch=1 n=f#4 v=0
32756 On ch=1 n=g#4 v=60
32888 On ch=1 n=g#4 v=0
32888 On ch=1 n=e4 v=69
32984 On ch=1 n=e4 v=0
33004 On ch=1 n=f#4 v=68
33008 On ch=1 n=c#6 v=0
33124 On ch=1 n=c6 v=78
33124 On ch=1 n=g#5 v=55
33124 On ch=1 n=g#4 v=76
33136 On ch=1 n=f#4 v=0
33152 On ch=1 n=a5 v=0
33232 On ch=1 n=g#4 v=0
33244 On ch=1 n=a4 v=76
33364 On ch=1 n=g#4 v=75
33372 On ch=1 n=a4 v=0
33392 On ch=1 n=d#5 v=0
33420 On ch=1 n=c6 v=0
33476 On ch=1 n=g#5 v=0
33484 On ch=1 n=f#4 v=75
33508 On ch=1 n=g#4 v=0
33584 On ch=1 n=f#4 v=0
33596 On ch=1 n=c#6 v=74
33596 On ch=1 n=e5 v=59
33596 On ch=1 n=g#5 v=61
33604 On ch=1 n=e4 v=77
33676 On ch=1 n=g#5 v=0
33692 On ch=1 n=c#6 v=0
33696 On ch=1 n=e5 v=0
33724 On ch=1 n=d#4 v=71
33748 On ch=1 n=e4 v=0
33844 On ch=1 n=c#4 v=72
33880 On ch=1 n=d#4 v=0
33952 On ch=1 n=c#4 v=0
33968 On ch=1 n=b3 v=75
34036 Par ch=1 c=64 v=127
34076 On ch=1 n=c#6 v=98
34076 On ch=1 n=c#7 v=98
34088 On ch=1 n=a3 v=80
34100 On ch=1 n=b3 v=0
34204 On ch=1 n=g#3 v=81
34216 On ch=1 n=a3 v=0
34320 On ch=1 n=f#3 v=81
34368 On ch=1 n=g#3 v=0
34416 On ch=1 n=c#6 v=0
34420 On ch=1 n=c#7 v=0
34436 On ch=1 n=e3 v=84
34460 On ch=1 n=f#3 v=0
34552 Par ch=1 c=64 v=0
34556 On ch=1 n=g5 v=75
34556 On ch=1 n=d#3 v=85
34560 On ch=1 n=e3 v=0
34620 On ch=1 n=d#3 v=0
34628 On ch=1 n=g5 v=0
34684 On ch=1 n=g#5 v=53
34800 On ch=1 n=g#5 v=0
34804 On ch=1 n=f5 v=52
34920 On ch=1 n=g5 v=57
34924 On ch=1 n=f5 v=0
35036 On ch=1 n=g#5 v=58
35040 On ch=1 n=d#5 v=61
35044 On ch=1 n=b4 v=68
35060 On ch=1 n=g5 v=0
35112 On ch=1 n=b4 v=0
35116 On ch=1 n=d#5 v=0
35152 On ch=1 n=a#5 v=53
35200 On ch=1 n=g#5 v=0
35268 On ch=1 n=a#5 v=0
35276 On ch=1 n=g5 v=55
35396 On ch=1 n=g#5 v=64
35440 On ch=1 n=g5 v=0
35512 On ch=1 n=a#5 v=62
35516 On ch=1 n=c#5 v=62
35520 On ch=1 n=a#4 v=66
35560 On ch=1 n=g#5 v=0
35572 On ch=1 n=c#5 v=0
35580 On ch=1 n=a#4 v=0
35636 On ch=1 n=b5 v=54
35688 On ch=1 n=a#5 v=0
35740 On ch=1 n=b5 v=0
35756 On ch=1 n=g#5 v=51
35876 On ch=1 n=a#5 v=57
35920 On ch=1 n=g#5 v=0
35996 On ch=1 n=g#4 v=66
35996 On ch=1 n=b4 v=63
36004 On ch=1 n=b5 v=57
36064 On ch=1 n=b4 v=0
36072 On ch=1 n=g#4 v=0
36088 On ch=1 n=a#5 v=0
36124 On ch=1 n=c#6 v=52
36152 On ch=1 n=b5 v=0
36240 On ch=1 n=c#6 v=0
36244 On ch=1 n=a#5 v=53
36360 On ch=1 n=a#5 v=0
36364 On ch=1 n=b5 v=60
36476 On ch=1 n=a#4 v=60
36484 On ch=1 n=c#6 v=54
36484 On ch=1 n=d#4 v=53
36484 On ch=1 n=g4 v=65
36520 On ch=1 n=b5 v=0
36548 On ch=1 n=g4 v=0
36560 On ch=1 n=a#4 v=0
36564 On ch=1 n=d#4 v=0
36604 On ch=1 n=d#6 v=55
36648 On ch=1 n=c#6 v=0
36692 On ch=1 n=d#6 v=0
36724 On ch=1 n=c#6 v=55
36844 On ch=1 n=a#6 v=62
36868 On ch=1 n=c#6 v=0
36948 On ch=1 n=a#6 v=0
36964 On ch=1 n=b5 v=56
36964 On ch=1 n=b4 v=60
36964 On ch=1 n=g#4 v=66
36968 On ch=1 n=d#4 v=53
37012 On ch=1 n=d#4 v=0
37028 On ch=1 n=g#4 v=0
37032 On ch=1 n=b4 v=0
37084 On ch=1 n=c#6 v=49
37092 On ch=1 n=b5 v=0
37204 On ch=1 n=b5 v=59
37224 On ch=1 n=c#6 v=0
37320 On ch=1 n=b5 v=0
37324 On ch=1 n=g#6 v=61
37444 On ch=1 n=a#5 v=53
37444 On ch=1 n=c#5 v=63
37444 On ch=1 n=d#4 v=60
37444 On ch=1 n=a#4 v=63
37468 On ch=1 n=g#6 v=0
37496 On ch=1 n=d#4 v=0
37504 On ch=1 n=a#4 v=0
37508 On ch=1 n=c#5 v=0
37556 On ch=1 n=a#5 v=0
37564 On ch=1 n=b5 v=58
37680 On ch=1 n=a#5 v=64
37688 On ch=1 n=b5 v=0
37792 On ch=1 n=a#5 v=0
37796 On ch=1 n=g6 v=63
37896 On ch=1 n=g6 v=0
37904 Par ch=1 c=64 v=127
37916 On ch=1 n=g#5 v=100
37916 On ch=1 n=e4 v=96
37920 On ch=1 n=e5 v=96
38036 On ch=1 n=a#5 v=88
38040 On ch=1 n=g#5 v=0
38156 On ch=1 n=g#5 v=87
38168 On ch=1 n=a#5 v=0
38236 On ch=1 n=e5 v=0
38240 On ch=1 n=e4 v=0
38276 On ch=1 n=g#6 v=86
38292 On ch=1 n=g#5 v=0
38340 On ch=1 n=g#6 v=0
38396 On ch=1 n=g3 v=78
38400 On ch=1 n=e5 v=55
38404 On ch=1 n=c#6 v=44
38404 On ch=1 n=a#5 v=60
38416 Par ch=1 c=64 v=0
38480 On ch=1 n=a#5 v=0
38480 On ch=1 n=c#6 v=0
38488 On ch=1 n=e5 v=0
38524 On ch=1 n=g#3 v=53
38548 On ch=1 n=g3 v=0
38644 On ch=1 n=f3 v=57
38652 On ch=1 n=g#3 v=0
38756 On ch=1 n=g3 v=60
38816 On ch=1 n=f3 v=0
38876 On ch=1 n=g#3 v=59
38884 On ch=1 n=g3 v=0
38884 On ch=1 n=d#5 v=54
38884 On ch=1 n=g#5 v=64
38884 On ch=1 n=b5 v=64
38952 On ch=1 n=g#5 v=0
38956 On ch=1 n=b5 v=0
38968 On ch=1 n=d#5 v=0
38996 On ch=1 n=a#3 v=56
39012 On ch=1 n=g#3 v=0
39108 On ch=1 n=a#3 v=0
39116 On ch=1 n=g3 v=60
39232 On ch=1 n=g#3 v=58
39264 On ch=1 n=g3 v=0
39352 On ch=1 n=a#3 v=54
39356 On ch=1 n=c#5 v=51
39360 On ch=1 n=a#5 v=64
39364 On ch=1 n=g5 v=61
39384 On ch=1 n=g#3 v=0
39412 On ch=1 n=g5 v=0
39436 On ch=1 n=a#5 v=0
39436 On ch=1 n=c#5 v=0
39476 On ch=1 n=b3 v=59
39488 On ch=1 n=a#3 v=0
39596 On ch=1 n=g#3 v=58
39616 On ch=1 n=b3 v=0
39716 On ch=1 n=a#3 v=60
39760 On ch=1 n=g#3 v=0
39836 On ch=1 n=g#5 v=61
39836 On ch=1 n=d#5 v=60
39836 On ch=1 n=b4 v=45
39836 On ch=1 n=b3 v=64
39864 On ch=1 n=a#3 v=0
39904 On ch=1 n=d#5 v=0
39908 On ch=1 n=b4 v=0
39928 On ch=1 n=g#5 v=0
39944 On ch=1 n=b3 v=0
39956 On ch=1 n=c#4 v=57
40076 On ch=1 n=c#4 v=0
40076 On ch=1 n=a#3 v=61
40196 On ch=1 n=b3 v=57
40244 On ch=1 n=a#3 v=0
40316 On ch=1 n=c#4 v=58
40324 On ch=1 n=a#4 v=52
40324 On ch=1 n=e5 v=58
40324 On ch=1 n=g5 v=47
40332 On ch=1 n=b3 v=0
40384 On ch=1 n=g5 v=0
40392 On ch=1 n=a#4 v=0
40396 On ch=1 n=e5 v=0
40436 On ch=1 n=d#4 v=64
40440 On ch=1 n=c#4 v=0
40564 On ch=1 n=c#4 v=57
40568 On ch=1 n=d#4 v=0
40664 On ch=1 n=c#4 v=0
40680 On ch=1 n=a#4 v=64
40804 On ch=1 n=g#5 v=63
40804 On ch=1 n=b4 v=50
40804 On ch=1 n=d#5 v=58
40804 On ch=1 n=b3 v=60
40808 On ch=1 n=a#4 v=0
40860 On ch=1 n=d#5 v=0
40860 On ch=1 n=b4 v=0
40888 On ch=1 n=g#5 v=0
40928 On ch=1 n=c#4 v=58
40956 On ch=1 n=b3 v=0
41048 On ch=1 n=b3 v=64
41072 On ch=1 n=c#4 v=0
41156 On ch=1 n=b3 v=0
41164 On ch=1 n=g#4 v=66
41284 On ch=1 n=a#5 v=60
41284 On ch=1 n=c#5 v=52
41284 On ch=1 n=d#5 v=63
41284 On ch=1 n=a#3 v=63
41300 On ch=1 n=g#4 v=0
41352 On ch=1 n=d#5 v=0
41360 On ch=1 n=c#5 v=0
41376 On ch=1 n=a#5 v=0
41400 On ch=1 n=b3 v=60
41404 On ch=1 n=a#3 v=0
41512 On ch=1 n=b3 v=0
41516 On ch=1 n=a#3 v=67
41636 On ch=1 n=g4 v=68
41640 On ch=1 n=a#3 v=0
41756 On ch=1 n=a3 v=103
41764 On ch=1 n=g4 v=0
41764 On ch=1 n=d#7 v=102
41764 On ch=1 n=d#6 v=102
41768 Par ch=1 c=64 v=127
41876 On ch=1 n=a3 v=0
41876 On ch=1 n=a#3 v=85
42004 On ch=1 n=a3 v=86
42032 On ch=1 n=a#3 v=0
42108 On ch=1 n=a3 v=0
42124 On ch=1 n=f#4 v=84
42136 On ch=1 n=d#6 v=0
42160 On ch=1 n=d#7 v=0
42244 On ch=1 n=f#4 v=0
42244 On ch=1 n=a5 v=63
42244 On ch=1 n=f4 v=54
42244 On ch=1 n=f3 v=54
42252 Par ch=1 c=64 v=0
42336 On ch=1 n=f3 v=0
42336 On ch=1 n=f4 v=0
42348 On ch=1 n=a5 v=0
42356 On ch=1 n=a#5 v=59
42480 On ch=1 n=g#5 v=60
42492 On ch=1 n=a#5 v=0
42588 On ch=1 n=g#5 v=0
42596 On ch=1 n=a5 v=62
42716 On ch=1 n=a#5 v=59
42720 On ch=1 n=c#5 v=53
42724 On ch=1 n=f5 v=49
42732 On ch=1 n=a5 v=0
42768 On ch=1 n=c#5 v=0
42788 On ch=1 n=f5 v=0
42836 On ch=1 n=c6 v=60
42860 On ch=1 n=a#5 v=0
42940 On ch=1 n=c6 v=0
42956 On ch=1 n=a5 v=55
43076 On ch=1 n=a#5 v=59
43104 On ch=1 n=a5 v=0
43196 On ch=1 n=c6 v=57
43196 On ch=1 n=d#5 v=60
43196 On ch=1 n=c5 v=57
43216 On ch=1 n=a#5 v=0
43252 On ch=1 n=c5 v=0
43252 On ch=1 n=d#5 v=0
43316 On ch=1 n=c#6 v=56
43336 On ch=1 n=c6 v=0
43432 On ch=1 n=c#6 v=0
43436 On ch=1 n=a#5 v=49
43556 On ch=1 n=a#5 v=0
43556 On ch=1 n=c6 v=52
43672 On ch=1 n=c#6 v=56
43676 On ch=1 n=a#4 v=57
43676 On ch=1 n=c#5 v=60
43680 On ch=1 n=c6 v=0
43728 On ch=1 n=c#5 v=0
43732 On ch=1 n=a#4 v=0
43796 On ch=1 n=d#6 v=53
43824 On ch=1 n=c#6 v=0
43900 On ch=1 n=d#6 v=0
43912 On ch=1 n=c6 v=55
44036 On ch=1 n=c#6 v=53
44072 On ch=1 n=c6 v=0
44156 On ch=1 n=d#6 v=56
44160 On ch=1 n=a4 v=60
44160 On ch=1 n=c5 v=52
44164 On ch=1 n=f4 v=52
44204 On ch=1 n=c#6 v=0
44212 On ch=1 n=f4 v=0
44212 On ch=1 n=a4 v=0
44232 On ch=1 n=c5 v=0
44276 On ch=1 n=f6 v=55
44312 On ch=1 n=d#6 v=0
44396 On ch=1 n=d#6 v=59
44404 On ch=1 n=f6 v=0
44516 On ch=1 n=c7 v=68
44524 On ch=1 n=d#6 v=0
44608 On ch=1 n=c7 v=0
44644 On ch=1 n=c#6 v=58
44644 On ch=1 n=a#4 v=61
44644 On ch=1 n=c#5 v=61
44644 On ch=1 n=f4 v=57
44692 On ch=1 n=f4 v=0
44696 On ch=1 n=c#5 v=0
44708 On ch=1 n=a#4 v=0
44764 On ch=1 n=c#6 v=0
44764 On ch=1 n=d#6 v=61
44880 On ch=1 n=c#6 v=66
44900 On ch=1 n=d#6 v=0
45000 On ch=1 n=a#6 v=70
45004 On ch=1 n=c#6 v=0
45120 On ch=1 n=c6 v=64
45120 On ch=1 n=f4 v=69
45124 On ch=1 n=a#6 v=0
45124 On ch=1 n=c5 v=72
45124 On ch=1 n=d#5 v=60
45184 On ch=1 n=d#5 v=0
45188 On ch=1 n=c5 v=0
45192 On ch=1 n=f4 v=0
45236 On ch=1 n=c#6 v=56
45248 On ch=1 n=c6 v=0
45356 On ch=1 n=c6 v=60
45372 On ch=1 n=c#6 v=0
45484 On ch=1 n=a6 v=71
45492 On ch=1 n=c6 v=0
45588 On ch=1 n=a6 v=0
45596 On ch=1 n=f#4 v=96
45600 On ch=1 n=f#5 v=96
45604 On ch=1 n=a#5 v=96
45620 Par ch=1 c=64 v=127
45716 On ch=1 n=a#5 v=0
45724 On ch=1 n=c6 v=82
45840 On ch=1 n=a#5 v=79
45848 On ch=1 n=c6 v=0
45912 On ch=1 n=f#5 v=0
45912 On ch=1 n=f#4 v=0
45960 On ch=1 n=a#6 v=85
45984 On ch=1 n=a#5 v=0
46028 On ch=1 n=a#6 v=0
46076 On ch=1 n=a3 v=65
46084 On ch=1 n=c6 v=69
46084 On ch=1 n=f#5 v=60
46084 On ch=1 n=d#6 v=54
46084 Par ch=1 c=64 v=0
46132 On ch=1 n=d#6 v=0
46144 On ch=1 n=c6 v=0
46148 On ch=1 n=f#5 v=0
46204 On ch=1 n=a#3 v=63
46220 On ch=1 n=a3 v=0
46320 On ch=1 n=a#3 v=0
46320 On ch=1 n=g#3 v=58
46440 On ch=1 n=a3 v=67
46456 On ch=1 n=g#3 v=0
46556 On ch=1 n=c#6 v=63
46556 On ch=1 n=f5 v=59
46556 On ch=1 n=a#5 v=70
46560 On ch=1 n=a#3 v=65
46576 On ch=1 n=a3 v=0
46624 On ch=1 n=a#5 v=0
46628 On ch=1 n=f5 v=0
46640 On ch=1 n=c#6 v=0
46680 On ch=1 n=c4 v=63
46684 On ch=1 n=a#3 v=0
46800 On ch=1 n=a3 v=63
46808 On ch=1 n=c4 v=0
46916 On ch=1 n=a#3 v=70
46936 On ch=1 n=a3 v=0
47036 On ch=1 n=c6 v=68
47036 On ch=1 n=d#5 v=60
47036 On ch=1 n=a5 v=75
47040 On ch=1 n=c4 v=68
47076 On ch=1 n=a#3 v=0
47100 On ch=1 n=a5 v=0
47104 On ch=1 n=d#5 v=0
47108 On ch=1 n=c6 v=0
47156 On ch=1 n=c#4 v=58
47164 On ch=1 n=c4 v=0
47284 On ch=1 n=a#3 v=59
47328 On ch=1 n=c#4 v=0
47404 On ch=1 n=c4 v=61
47432 On ch=1 n=a#3 v=0
47516 On ch=1 n=c#5 v=64
47516 On ch=1 n=c#4 v=63
47520 On ch=1 n=a#5 v=76
47524 On ch=1 n=f5 v=37
47536 On ch=1 n=c4 v=0
47580 On ch=1 n=f5 v=0
47608 On ch=1 n=c#5 v=0
47612 On ch=1 n=a#5 v=0
47648 On ch=1 n=d#4 v=69
47696 On ch=1 n=c#4 v=0
47768 On ch=1 n=c4 v=60
47788 On ch=1 n=d#4 v=0
47884 On ch=1 n=c#4 v=55
47896 On ch=1 n=c4 v=0
48004 On ch=1 n=b4 v=68
48004 On ch=1 n=g#5 v=73
48004 On ch=1 n=f5 v=86
48008 On ch=1 n=d4 v=68
48052 On ch=1 n=c#4 v=0
48068 On ch=1 n=f5 v=0
48084 On ch=1 n=g#5 v=0
48088 On ch=1 n=b4 v=0
48112 On ch=1 n=d4 v=0
48124 On ch=1 n=d#4 v=66
48240 On ch=1 n=c#4 v=63
48256 On ch=1 n=d#4 v=0
48356 On ch=1 n=d4 v=67
48428 On ch=1 n=c#4 v=0
48476 On ch=1 n=d#4 v=69
48484 On ch=1 n=f#5 v=77
48484 On ch=1 n=a#4 v=60
48484 On ch=1 n=d#5 v=78
48496 On ch=1 n=d4 v=0
48552 On ch=1 n=d#5 v=0
48556 On ch=1 n=a#4 v=0
48572 On ch=1 n=f#5 v=0
48596 On ch=1 n=f4 v=64
48612 On ch=1 n=d#4 v=0
48720 On ch=1 n=d4 v=66
48724 On ch=1 n=f4 v=0
48836 On ch=1 n=d#4 v=71
48856 On ch=1 n=d4 v=0
48956 On ch=1 n=f4 v=68
48964 On ch=1 n=a#4 v=57
48964 On ch=1 n=f5 v=76
48964 On ch=1 n=c#5 v=76
48992 On ch=1 n=d#4 v=0
49040 On ch=1 n=c#5 v=0
49048 On ch=1 n=f5 v=0
49052 On ch=1 n=a#4 v=0
49076 On ch=1 n=f#4 v=60
49080 On ch=1 n=f4 v=0
49196 On ch=1 n=d#4 v=58
49212 On ch=1 n=f#4 v=0
49316 On ch=1 n=f4 v=66
49336 On ch=1 n=d#4 v=0
49436 On ch=1 n=f4 v=0
49436 On ch=1 n=e5 v=69
49436 On ch=1 n=b4 v=60
49436 On ch=1 n=f#4 v=62
49440 On ch=1 n=c#5 v=73
49520 On ch=1 n=c#5 v=0
49532 On ch=1 n=b4 v=0
49536 On ch=1 n=e5 v=0
49556 On ch=1 n=g#4 v=58
49564 On ch=1 n=f#4 v=0
49676 On ch=1 n=f4 v=68
49688 On ch=1 n=g#4 v=0
49796 On ch=1 n=f#4 v=70
49808 On ch=1 n=f4 v=0
49916 On ch=1 n=f4 v=77
49916 On ch=1 n=a4 v=76
49920 On ch=1 n=f#4 v=0
49928 On ch=1 n=f5 v=76
49936 On ch=1 n=c5 v=61
50004 On ch=1 n=c5 v=0
50016 On ch=1 n=a4 v=0
50020 On ch=1 n=f4 v=0
50048 On ch=1 n=f#5 v=72
50072 On ch=1 n=f5 v=0
50168 On ch=1 n=e5 v=65
50172 On ch=1 n=f#5 v=0
50292 On ch=1 n=f5 v=68
50312 On ch=1 n=e5 v=0
50404 On ch=1 n=c#5 v=67
50404 On ch=1 n=a#4 v=64
50404 On ch=1 n=e4 v=64
50408 On ch=1 n=f#5 v=67
50432 On ch=1 n=f5 v=0
50460 On ch=1 n=c#5 v=0
50480 On ch=1 n=e4 v=0
50488 On ch=1 n=a#4 v=0
50528 On ch=1 n=g#5 v=58
50556 On ch=1 n=f#5 v=0
50640 On ch=1 n=g#5 v=0
50648 On ch=1 n=f5 v=61
50764 On ch=1 n=f#5 v=73
50776 On ch=1 n=f5 v=0
50876 On ch=1 n=d#4 v=65
50880 On ch=1 n=a#4 v=65
50884 On ch=1 n=g5 v=78
50888 On ch=1 n=c#5 v=68
50908 On ch=1 n=f#5 v=0
50944 On ch=1 n=c#5 v=0
50948 On ch=1 n=a#4 v=0
50952 On ch=1 n=d#4 v=0
51004 On ch=1 n=g#5 v=74
51020 On ch=1 n=g5 v=0
51124 On ch=1 n=f#5 v=66
51128 On ch=1 n=g#5 v=0
51244 On ch=1 n=f#5 v=0
51244 On ch=1 n=g5 v=67
51292 On ch=1 n=g5 v=0
51364 On ch=1 n=g#5 v=83
51364 On ch=1 n=g#6 v=88
51364 On ch=1 n=g#4 v=92
51364 On ch=1 n=g#3 v=93
51364 Par ch=1 c=64 v=127
51456 On ch=1 n=g#6 v=0
51484 On ch=1 n=a#5 v=71
51504 On ch=1 n=g#5 v=0
51552 On ch=1 n=a#5 v=0
51600 On ch=1 n=g#3 v=0
51604 On ch=1 n=g5 v=70
51608 On ch=1 n=g#4 v=0
51728 On ch=1 n=g#5 v=68
51748 On ch=1 n=g5 v=0
51800 Par ch=1 c=64 v=0
51844 On ch=1 n=d#5 v=62
51844 On ch=1 n=g#4 v=62
51844 On ch=1 n=c5 v=62
51900 On ch=1 n=d#5 v=0
51908 On ch=1 n=g#4 v=0
51924 On ch=1 n=c5 v=0
51968 On ch=1 n=a#5 v=76
52004 On ch=1 n=g#5 v=0
52084 On ch=1 n=a#5 v=0
52084 On ch=1 n=g5 v=68
52204 On ch=1 n=g#5 v=80
52208 On ch=1 n=g5 v=0
52316 On ch=1 n=a5 v=77
52324 On ch=1 n=g4 v=60
52324 On ch=1 n=c#5 v=60
52332 On ch=1 n=e5 v=64
52360 On ch=1 n=g#5 v=0
52388 On ch=1 n=e5 v=0
52388 On ch=1 n=g4 v=0
52392 On ch=1 n=c#5 v=0
52436 On ch=1 n=a#5 v=67
52444 On ch=1 n=a5 v=0
52564 On ch=1 n=g#5 v=75
52580 On ch=1 n=a#5 v=0
52684 On ch=1 n=a5 v=74
52700 On ch=1 n=g#5 v=0
52800 On ch=1 n=a#5 v=68
52800 On ch=1 n=f#4 v=59
52804 On ch=1 n=c#5 v=63
52812 On ch=1 n=e5 v=65
52824 On ch=1 n=a5 v=0
52868 On ch=1 n=e5 v=0
52872 On ch=1 n=c#5 v=0
52876 On ch=1 n=f#4 v=0
52924 On ch=1 n=b5 v=70
52964 On ch=1 n=a#5 v=0
53028 On ch=1 n=b5 v=0
53044 On ch=1 n=a5 v=60
53164 On ch=1 n=a#5 v=77
53172 On ch=1 n=a5 v=0
53204 On ch=1 n=a#5 v=0
53272 Par ch=1 c=64 v=127
53284 On ch=1 n=b5 v=86
53284 On ch=1 n=b6 v=86
53284 On ch=1 n=b4 v=97
53284 On ch=1 n=b3 v=101
53356 On ch=1 n=b6 v=0
53404 On ch=1 n=c6 v=76
53432 On ch=1 n=b5 v=0
53508 On ch=1 n=c6 v=0
53512 On ch=1 n=b3 v=0
53512 On ch=1 n=b4 v=0
53524 On ch=1 n=a#5 v=80
53636 On ch=1 n=a#5 v=0
53636 On ch=1 n=b5 v=70
53736 Par ch=1 c=64 v=0
53756 On ch=1 n=d#5 v=47
53756 On ch=1 n=b4 v=47
53764 On ch=1 n=f#5 v=66
53880 On ch=1 n=b4 v=0
53884 On ch=1 n=c6 v=76
53896 On ch=1 n=d#5 v=0
53912 On ch=1 n=b5 v=0
53968 On ch=1 n=f#5 v=0
53988 On ch=1 n=c6 v=0
54004 On ch=1 n=a#5 v=65
54100 On ch=1 n=a#5 v=0
54120 On ch=1 n=b5 v=62
54236 On ch=1 n=b4 v=52
54236 On ch=1 n=e5 v=52
54244 On ch=1 n=c6 v=72
54248 On ch=1 n=g5 v=66
54276 On ch=1 n=b5 v=0
54364 On ch=1 n=c#6 v=60
54376 On ch=1 n=b4 v=0
54388 On ch=1 n=c6 v=0
54388 On ch=1 n=e5 v=0
54408 On ch=1 n=g5 v=0
54484 On ch=1 n=b5 v=69
54488 On ch=1 n=c#6 v=0
54604 On ch=1 n=c6 v=72
54620 On ch=1 n=b5 v=0
54720 On ch=1 n=g#5 v=61
54720 On ch=1 n=b4 v=55
54724 On ch=1 n=c#6 v=67
54724 On ch=1 n=f5 v=55
54740 On ch=1 n=c6 v=0
54844 On ch=1 n=d6 v=68
54856 On ch=1 n=b4 v=0
54872 On ch=1 n=c#6 v=0
54876 On ch=1 n=f5 v=0
54908 On ch=1 n=g#5 v=0
54944 On ch=1 n=d6 v=0
54964 On ch=1 n=c6 v=62
55084 On ch=1 n=c#6 v=73
55108 On ch=1 n=c6 v=0
55200 On ch=1 n=a5 v=63
55200 On ch=1 n=b4 v=54
55204 On ch=1 n=d6 v=65
55204 On ch=1 n=f#5 v=54
55252 On ch=1 n=c#6 v=0
55324 On ch=1 n=d#6 v=67
55328 On ch=1 n=b4 v=0
55332 On ch=1 n=d6 v=0
55344 On ch=1 n=f#5 v=0
55360 On ch=1 n=a5 v=0
55444 On ch=1 n=d#6 v=0
55444 On ch=1 n=c#6 v=64
55564 On ch=1 n=d6 v=59
55568 On ch=1 n=c#6 v=0
55676 On ch=1 n=a#5 v=69
55676 On ch=1 n=b4 v=55
55680 On ch=1 n=g5 v=55
55684 On ch=1 n=d#6 v=72
55712 On ch=1 n=d6 v=0
55804 On ch=1 n=e6 v=72
55812 On ch=1 n=b4 v=0
55820 On ch=1 n=d#6 v=0
55820 On ch=1 n=g5 v=0
55836 On ch=1 n=a#5 v=0
55908 On ch=1 n=e6 v=0
55920 On ch=1 n=d6 v=68
56036 On ch=1 n=d#6 v=72
56060 On ch=1 n=d6 v=0
56160 On ch=1 n=e6 v=73
56160 On ch=1 n=b4 v=61
56164 On ch=1 n=b5 v=65
56164 On ch=1 n=g#5 v=61
56184 On ch=1 n=d#6 v=0
56276 On ch=1 n=f6 v=75
56284 On ch=1 n=e6 v=0
56292 On ch=1 n=b4 v=0
56296 On ch=1 n=g#5 v=0
56328 On ch=1 n=b5 v=0
56376 On ch=1 n=f6 v=0
56396 On ch=1 n=d#6 v=69
56512 On ch=1 n=d#6 v=0
56516 On ch=1 n=e6 v=68
56636 On ch=1 n=f6 v=65
56636 On ch=1 n=c6 v=64
56636 On ch=1 n=b4 v=61
56636 On ch=1 n=a5 v=61
56656 On ch=1 n=e6 v=0
56676 Par ch=1 c=64 v=127
56756 On ch=1 n=f#6 v=65
56776 On ch=1 n=f6 v=0
56780 On ch=1 n=a5 v=0
56788 On ch=1 n=b4 v=0
56844 On ch=1 n=c6 v=0
56876 On ch=1 n=e6 v=62
56888 On ch=1 n=f#6 v=0
56996 On ch=1 n=f6 v=70
57004 Par ch=1 c=64 v=0
57016 On ch=1 n=e6 v=0
57092 Par ch=1 c=64 v=127
57116 On ch=1 n=f#6 v=65
57116 On ch=1 n=b4 v=62
57116 On ch=1 n=a#5 v=62
57124 On ch=1 n=c#6 v=64
57136 On ch=1 n=f6 v=0
57236 On ch=1 n=g6 v=73
57248 On ch=1 n=f#6 v=0
57268 On ch=1 n=a#5 v=0
57268 On ch=1 n=b4 v=0
57304 On ch=1 n=c#6 v=0
57356 On ch=1 n=f#6 v=65
57376 On ch=1 n=g6 v=0
57452 Par ch=1 c=64 v=0
57476 On ch=1 n=e6 v=65
57480 On ch=1 n=f#6 v=0
57588 On ch=1 n=e6 v=0
57588 Par ch=1 c=64 v=127
57600 On ch=1 n=d#6 v=72
57604 On ch=1 n=b5 v=81
57604 On ch=1 n=b4 v=81
57716 On ch=1 n=e6 v=76
57740 On ch=1 n=d#6 v=0
57836 On ch=1 n=d6 v=74
57844 On ch=1 n=e6 v=0
57844 On ch=1 n=b5 v=0
57868 On ch=1 n=b4 v=0
57956 On ch=1 n=d#6 v=72
58000 On ch=1 n=d6 v=0
58076 Par ch=1 c=64 v=0
58080 On ch=1 n=e6 v=72
58084 On ch=1 n=g5 v=68
58088 On ch=1 n=b5 v=65
58112 On ch=1 n=d#6 v=0
58184 On ch=1 n=b5 v=0
58204 On ch=1 n=f#6 v=71
58204 On ch=1 n=f#5 v=68
58212 On ch=1 n=g5 v=0
58232 On ch=1 n=e6 v=0
58324 On ch=1 n=d#6 v=72
58324 On ch=1 n=g5 v=73
58348 On ch=1 n=f#5 v=0
58352 On ch=1 n=f#6 v=0
58428 On ch=1 n=g5 v=0
58436 On ch=1 n=b4 v=70
58444 On ch=1 n=e6 v=71
58456 On ch=1 n=d#6 v=0
58528 On ch=1 n=e6 v=0
58564 On ch=1 n=a6 v=68
58564 On ch=1 n=e6 v=64
58564 On ch=1 n=c5 v=68
58576 Par ch=1 c=64 v=127
58592 On ch=1 n=b4 v=0
58684 On ch=1 n=b6 v=76
58700 On ch=1 n=e6 v=0
58708 On ch=1 n=a6 v=0
58808 On ch=1 n=g#6 v=74
58832 On ch=1 n=b6 v=0
58912 On ch=1 n=c5 v=0
58928 On ch=1 n=a6 v=73
58960 On ch=1 n=g#6 v=0
59000 On ch=1 n=a6 v=0
59036 Par ch=1 c=64 v=0
59044 On ch=1 n=f#5 v=67
59048 On ch=1 n=a5 v=65
59048 On ch=1 n=d6 v=69
59164 On ch=1 n=e6 v=70
59164 On ch=1 n=f5 v=71
59176 On ch=1 n=a5 v=0
59184 On ch=1 n=d6 v=0
59188 On ch=1 n=f#5 v=0
59276 On ch=1 n=e6 v=0
59280 On ch=1 n=f5 v=0
59284 On ch=1 n=c#6 v=70
59288 On ch=1 n=f#5 v=67
59388 On ch=1 n=f#5 v=0
59404 On ch=1 n=d6 v=69
59404 On ch=1 n=a4 v=69
59408 On ch=1 n=c#6 v=0
59492 On ch=1 n=d6 v=0
59524 On ch=1 n=g6 v=66
59524 On ch=1 n=b4 v=72
59528 On ch=1 n=d6 v=65
59544 Par ch=1 c=64 v=127
59548 On ch=1 n=a4 v=0
59624 On ch=1 n=g6 v=0
59644 On ch=1 n=a6 v=66
59688 On ch=1 n=d6 v=0
59756 On ch=1 n=f#6 v=71
59768 On ch=1 n=a6 v=0
59848 On ch=1 n=b4 v=0
59880 On ch=1 n=g6 v=68
59904 On ch=1 n=f#6 v=0
59980 On ch=1 n=g6 v=0
59984 Par ch=1 c=64 v=0
59996 On ch=1 n=e5 v=69
60004 On ch=1 n=c6 v=50
60008 On ch=1 n=g5 v=61
60116 On ch=1 n=d#5 v=71
60120 On ch=1 n=d6 v=67
60132 On ch=1 n=e5 v=0
60136 On ch=1 n=c6 v=0
60160 On ch=1 n=g5 v=0
60236 On ch=1 n=b5 v=70
60236 On ch=1 n=e5 v=72
60240 On ch=1 n=d6 v=0
60264 On ch=1 n=d#5 v=0
60352 On ch=1 n=e5 v=0
60356 On ch=1 n=c6 v=69
60356 On ch=1 n=g4 v=69
60392 On ch=1 n=b5 v=0
60448 On ch=1 n=c6 v=0
60476 On ch=1 n=f#6 v=67
60476 On ch=1 n=a4 v=87
60476 Par ch=1 c=64 v=127
60480 On ch=1 n=c6 v=64
60508 On ch=1 n=g4 v=0
60596 On ch=1 n=g6 v=70
60608 On ch=1 n=c6 v=0
60628 On ch=1 n=f#6 v=0
60680 On ch=1 n=g6 v=0
60716 On ch=1 n=f6 v=75
60772 On ch=1 n=a4 v=0
60836 On ch=1 n=f#6 v=71
60840 On ch=1 n=f6 v=0
60912 On ch=1 n=f#6 v=0
60964 On ch=1 n=b5 v=73
60964 On ch=1 n=d#5 v=73
60976 Par ch=1 c=64 v=0
61076 On ch=1 n=c6 v=72
61076 On ch=1 n=d5 v=71
61092 On ch=1 n=d#5 v=0
61096 On ch=1 n=b5 v=0
61196 On ch=1 n=d5 v=0
61196 On ch=1 n=c6 v=0
61196 On ch=1 n=a#5 v=71
61196 On ch=1 n=d#5 v=71
61304 On ch=1 n=d#5 v=0
61312 On ch=1 n=b5 v=68
61316 On ch=1 n=f#4 v=72
61328 On ch=1 n=a#5 v=0
61372 On ch=1 n=b5 v=0
61412 Par ch=1 c=64 v=127
61416 On ch=1 n=f#4 v=0
61436 On ch=1 n=e6 v=86
61436 On ch=1 n=b5 v=86
61444 On ch=1 n=g4 v=74
61556 On ch=1 n=c6 v=73
61564 On ch=1 n=a4 v=56
61588 On ch=1 n=g4 v=0
61608 On ch=1 n=b5 v=0
61624 On ch=1 n=e6 v=0
61660 On ch=1 n=a4 v=0
61672 On ch=1 n=c6 v=0
61676 On ch=1 n=a5 v=73
61676 On ch=1 n=f#4 v=59
61696 Par ch=1 c=64 v=0
61788 On ch=1 n=f#4 v=0
61792 On ch=1 n=g4 v=58
61796 On ch=1 n=b5 v=74
61804 On ch=1 n=a5 v=0
61892 Par ch=1 c=64 v=127
61912 On ch=1 n=f#4 v=74
61916 On ch=1 n=d6 v=89
61916 On ch=1 n=a5 v=89
61932 On ch=1 n=b5 v=0
61932 On ch=1 n=g4 v=0
62032 On ch=1 n=g4 v=55
62036 On ch=1 n=b5 v=74
62056 On ch=1 n=f#4 v=0
62060 On ch=1 n=a5 v=0
62076 On ch=1 n=d6 v=0
62144 On ch=1 n=g4 v=0
62152 On ch=1 n=e4 v=55
62156 On ch=1 n=b5 v=0
62156 On ch=1 n=g5 v=73
62156 Par ch=1 c=64 v=0
62272 On ch=1 n=f#4 v=57
62276 On ch=1 n=a5 v=73
62288 On ch=1 n=g5 v=0
62288 On ch=1 n=e4 v=0
62380 Par ch=1 c=64 v=127
62392 On ch=1 n=e4 v=74
62396 On ch=1 n=c6 v=89
62396 On ch=1 n=g5 v=89
62400 On ch=1 n=f#4 v=0
62408 On ch=1 n=a5 v=0
62512 On ch=1 n=f#4 v=61
62516 On ch=1 n=a5 v=77
62532 On ch=1 n=e4 v=0
62564 On ch=1 n=g5 v=0
62596 On ch=1 n=c6 v=0
62632 On ch=1 n=d4 v=63
62636 On ch=1 n=f#5 v=75
62648 On ch=1 n=a5 v=0
62652 Par ch=1 c=64 v=0
62656 On ch=1 n=f#4 v=0
62752 On ch=1 n=e4 v=59
62756 On ch=1 n=g5 v=75
62768 On ch=1 n=d4 v=0
62772 On ch=1 n=f#5 v=0
62864 Par ch=1 c=64 v=127
62872 On ch=1 n=e4 v=0
62872 On ch=1 n=d4 v=78
62876 On ch=1 n=b5 v=91
62876 On ch=1 n=f#5 v=91
62888 On ch=1 n=g5 v=0
62992 On ch=1 n=e4 v=63
62996 On ch=1 n=g5 v=76
63000 On ch=1 n=d4 v=0
63036 On ch=1 n=f#5 v=0
63084 On ch=1 n=b5 v=0
63100 On ch=1 n=g5 v=0
63112 On ch=1 n=c4 v=66
63116 On ch=1 n=e5 v=77
63116 Par ch=1 c=64 v=0
63140 On ch=1 n=e4 v=0
63232 On ch=1 n=d4 v=65
63236 On ch=1 n=f#5 v=78
63248 On ch=1 n=c4 v=0
63256 On ch=1 n=e5 v=0
63328 Par ch=1 c=64 v=127
63356 On ch=1 n=a5 v=89
63356 On ch=1 n=e5 v=89
63356 On ch=1 n=c4 v=84
63364 On ch=1 n=d4 v=0
63368 On ch=1 n=f#5 v=0
63476 On ch=1 n=f#5 v=81
63476 On ch=1 n=d4 v=69
63488 On ch=1 n=c4 v=0
63504 On ch=1 n=e5 v=0
63552 On ch=1 n=a5 v=0
63564 Par ch=1 c=64 v=0
63588 On ch=1 n=d4 v=0
63596 On ch=1 n=d5 v=81
63596 On ch=1 n=b3 v=73
63624 On ch=1 n=f#5 v=0
63712 On ch=1 n=c4 v=72
63716 On ch=1 n=e5 v=82
63724 On ch=1 n=b3 v=0
63728 On ch=1 n=d5 v=0
63808 Par ch=1 c=64 v=127
63832 On ch=1 n=g5 v=95
63836 On ch=1 n=d5 v=95
63836 On ch=1 n=b3 v=88
63844 On ch=1 n=c4 v=0
63848 On ch=1 n=e5 v=0
63952 On ch=1 n=c4 v=75
63956 On ch=1 n=e5 v=84
63964 On ch=1 n=d5 v=0
63972 On ch=1 n=b3 v=0
64032 On ch=1 n=g5 v=0
64036 Par ch=1 c=64 v=0
64076 On ch=1 n=a3 v=72
64080 On ch=1 n=c5 v=89
64092 On ch=1 n=e5 v=0
64092 On ch=1 n=c4 v=0
64196 On ch=1 n=b3 v=77
64204 On ch=1 n=d5 v=86
64208 On ch=1 n=a3 v=0
64220 On ch=1 n=c5 v=0
64288 Par ch=1 c=64 v=127
64312 On ch=1 n=f#5 v=100
64316 On ch=1 n=a3 v=91
64324 On ch=1 n=d5 v=0
64324 On ch=1 n=c5 v=100
64332 On ch=1 n=b3 v=0
64436 On ch=1 n=b3 v=80
64444 On ch=1 n=d5 v=89
64452 On ch=1 n=c5 v=0
64464 On ch=1 n=a3 v=0
64508 On ch=1 n=f#5 v=0
64528 Par ch=1 c=64 v=0
64552 On ch=1 n=g3 v=82
64556 On ch=1 n=b3 v=0
64564 On ch=1 n=b4 v=89
64576 On ch=1 n=d5 v=0
64676 On ch=1 n=a3 v=79
64684 On ch=1 n=c5 v=93
64692 On ch=1 n=g3 v=0
64696 On ch=1 n=b4 v=0
64752 Par ch=1 c=64 v=127
64796 On ch=1 n=e5 v=98
64796 On ch=1 n=g3 v=91
64804 On ch=1 n=b4 v=98
64808 On ch=1 n=c5 v=0
64808 On ch=1 n=a3 v=0
64916 On ch=1 n=a3 v=82
64924 On ch=1 n=c5 v=90
64940 On ch=1 n=b4 v=0
64940 On ch=1 n=e5 v=0
64944 On ch=1 n=g3 v=0
64984 Par ch=1 c=64 v=0
65040 On ch=1 n=a4 v=89
65040 On ch=1 n=f#3 v=83
65044 On ch=1 n=c5 v=0
65056 On ch=1 n=a3 v=0
65156 On ch=1 n=g3 v=86
65160 On ch=1 n=f#3 v=0
65164 On ch=1 n=b4 v=97
65172 On ch=1 n=a4 v=0
65268 On ch=1 n=b4 v=0
65276 On ch=1 n=f3 v=98
65280 On ch=1 n=g3 v=0
65284 On ch=1 n=g#4 v=100
65284 On ch=1 n=d5 v=100
65284 On ch=1 n=g#5 v=100
65288 On ch=1 n=b4 v=100
65492 On ch=1 n=f3 v=0
65500 On ch=1 n=g#4 v=0
65508 On ch=1 n=d5 v=0
65512 On ch=1 n=g#5 v=0
65516 On ch=1 n=b4 v=0
65756 On ch=1 n=c#4 v=84
65756 Par ch=1 c=64 v=127
65768 On ch=1 n=g#5 v=85
65768 On ch=1 n=b5 v=85
65768 On ch=1 n=b4 v=85
65876 On ch=1 n=d4 v=72
65912 On ch=1 n=c#4 v=0
66004 On ch=1 n=c4 v=72
66008 On ch=1 n=d4 v=0
66124 On ch=1 n=c#4 v=68
66156 On ch=1 n=c4 v=0
66200 On ch=1 n=c#4 v=0
66244 On ch=1 n=c#4 v=87
66364 On ch=1 n=d4 v=72
66372 On ch=1 n=c#4 v=0
66468 On ch=1 n=d4 v=0
66484 On ch=1 n=c4 v=72
66540 Par ch=1 c=64 v=0
66572 On ch=1 n=g#5 v=0
66580 On ch=1 n=b4 v=0
66580 On ch=1 n=b5 v=0
66604 On ch=1 n=c#4 v=75
66636 On ch=1 n=c4 v=0
66660 Par ch=1 c=64 v=127
66676 On ch=1 n=c#4 v=0
66712 On ch=1 n=g#6 v=89
66712 On ch=1 n=g#5 v=89
66712 On ch=1 n=b5 v=89
66724 On ch=1 n=c#4 v=88
66836 On ch=1 n=d4 v=78
66848 On ch=1 n=c#4 v=0
66952 On ch=1 n=d4 v=0
66956 On ch=1 n=c4 v=78
67076 On ch=1 n=c#4 v=67
67100 On ch=1 n=c4 v=0
67152 On ch=1 n=c#4 v=0
67196 On ch=1 n=c#4 v=86
67316 On ch=1 n=d4 v=70
67328 On ch=1 n=c#4 v=0
67428 On ch=1 n=b5 v=0
67432 On ch=1 n=g#5 v=0
67436 On ch=1 n=c4 v=72
67444 On ch=1 n=g#6 v=0
67452 On ch=1 n=d4 v=0
67556 On ch=1 n=c#4 v=68
67576 On ch=1 n=c4 v=0
67576 Par ch=1 c=64 v=0
67628 On ch=1 n=c#4 v=0
67676 On ch=1 n=c#4 v=94
67688 On ch=1 n=b5 v=93
67688 On ch=1 n=g#6 v=93
67688 On ch=1 n=b6 v=93
67760 On ch=1 n=b5 v=0
67764 On ch=1 n=g#6 v=0
67768 On ch=1 n=b6 v=0
67796 On ch=1 n=d4 v=72
67824 On ch=1 n=c#4 v=0
67908 On ch=1 n=d4 v=0
67916 On ch=1 n=c4 v=81
68036 On ch=1 n=c#4 v=84
68068 On ch=1 n=c4 v=0
68112 On ch=1 n=c#4 v=0
68128 Par ch=1 c=64 v=127
68156 On ch=1 n=g#7 v=97
68156 On ch=1 n=g#6 v=97
68156 On ch=1 n=b6 v=97
68156 On ch=1 n=c#4 v=93
68276 On ch=1 n=d4 v=82
68292 On ch=1 n=c#4 v=0
68384 On ch=1 n=d4 v=0
68396 On ch=1 n=c4 v=83
68516 On ch=1 n=c#4 v=90
68544 On ch=1 n=c4 v=0
68580 On ch=1 n=c#4 v=0
68636 On ch=1 n=c#4 v=103
68756 On ch=1 n=d4 v=86
68772 On ch=1 n=c#4 v=0
68776 On ch=1 n=b6 v=0
68784 On ch=1 n=g#7 v=0
68796 On ch=1 n=g#6 v=0
68860 On ch=1 n=d4 v=0
68872 On ch=1 n=c4 v=87
68876 On ch=1 n=f#7 v=95
68880 On ch=1 n=f#6 v=95
68880 On ch=1 n=b6 v=95
68992 On ch=1 n=c#4 v=88
69016 Par ch=1 c=64 v=0
69020 On ch=1 n=c4 v=0
69060 On ch=1 n=b6 v=0
69068 On ch=1 n=f#6 v=0
69068 On ch=1 n=f#7 v=0
69112 On ch=1 n=b6 v=100
69112 On ch=1 n=d4 v=100
69116 On ch=1 n=f6 v=100
69116 On ch=1 n=f7 v=100
69128 On ch=1 n=c#4 v=0
69164 Par ch=1 c=64 v=127
69216 On ch=1 n=d4 v=0
69404 On ch=1 n=b6 v=0
69408 On ch=1 n=f6 v=0
69416 On ch=1 n=f7 v=0
69592 On ch=1 n=g#6 v=72
69604 On ch=1 n=b6 v=78
69724 On ch=1 n=d6 v=68
69728 On ch=1 n=c#7 v=78
69748 On ch=1 n=b6 v=0
69768 On ch=1 n=g#6 v=0
69844 On ch=1 n=b5 v=65
69848 On ch=1 n=b6 v=74
69852 On ch=1 n=c#7 v=0
69868 On ch=1 n=d6 v=0
69964 On ch=1 n=b6 v=0
69964 On ch=1 n=f5 v=64
69968 On ch=1 n=g#7 v=70
69992 On ch=1 n=b5 v=0
70020 On ch=1 n=f5 v=0
70060 On ch=1 n=g#7 v=0
70088 On ch=1 n=g#6 v=79
70088 On ch=1 n=f6 v=70
70204 On ch=1 n=f6 v=0
70208 On ch=1 n=g#6 v=0
70208 On ch=1 n=a#6 v=75
70208 On ch=1 n=b5 v=67
70324 On ch=1 n=g#5 v=63
70328 On ch=1 n=g#6 v=71
70344 On ch=1 n=b5 v=0
70356 On ch=1 n=a#6 v=0
70436 On ch=1 n=d5 v=62
70448 On ch=1 n=g#5 v=0
70448 On ch=1 n=e7 v=68
70464 On ch=1 n=g#6 v=0
70492 On ch=1 n=d5 v=0
70544 On ch=1 n=e7 v=0
70564 On ch=1 n=d6 v=67
70568 On ch=1 n=f6 v=80
70680 On ch=1 n=g#5 v=65
70684 On ch=1 n=f#6 v=76
70696 On ch=1 n=f6 v=0
70704 On ch=1 n=d6 v=0
70796 On ch=1 n=f5 v=64
70804 On ch=1 n=f6 v=72
70820 On ch=1 n=f#6 v=0
70848 On ch=1 n=g#5 v=0
70916 On ch=1 n=b4 v=60
70924 On ch=1 n=f5 v=0
70924 On ch=1 n=d7 v=70
70936 On ch=1 n=f6 v=0
70972 On ch=1 n=b4 v=0
70980 On ch=1 n=d7 v=0
71036 On ch=1 n=b5 v=72
71048 On ch=1 n=d6 v=78
71160 On ch=1 n=f5 v=68
71168 On ch=1 n=e6 v=73
71180 On ch=1 n=d6 v=0
71188 On ch=1 n=b5 v=0
71276 On ch=1 n=d5 v=61
71284 On ch=1 n=d6 v=71
71304 On ch=1 n=f5 v=0
71308 On ch=1 n=e6 v=0
71396 On ch=1 n=g#4 v=61
71404 On ch=1 n=b6 v=67
71412 On ch=1 n=d6 v=0
71420 On ch=1 n=d5 v=0
71452 On ch=1 n=g#4 v=0
71496 On ch=1 n=b6 v=0
71516 On ch=1 n=g#5 v=68
71524 On ch=1 n=b5 v=79
71636 On ch=1 n=d5 v=66
71644 On ch=1 n=c#6 v=76
71660 On ch=1 n=b5 v=0
71664 On ch=1 n=g#5 v=0
71756 On ch=1 n=b4 v=62
71764 On ch=1 n=b5 v=73
71768 On ch=1 n=d5 v=0
71776 On ch=1 n=c#6 v=0
71876 On ch=1 n=f4 v=59
71880 On ch=1 n=g#6 v=66
71888 On ch=1 n=b4 v=0
71900 On ch=1 n=b5 v=0
71928 On ch=1 n=f4 v=0
71944 On ch=1 n=g#6 v=0
71996 On ch=1 n=f5 v=63
72004 On ch=1 n=g#5 v=78
72120 On ch=1 n=b4 v=63
72124 On ch=1 n=a#5 v=76
72136 On ch=1 n=g#5 v=0
72140 On ch=1 n=f5 v=0
72236 On ch=1 n=g#5 v=73
72240 On ch=1 n=g#4 v=71
72252 On ch=1 n=a#5 v=0
72268 On ch=1 n=b4 v=0
72356 On ch=1 n=f6 v=70
72356 On ch=1 n=d4 v=68
72372 On ch=1 n=g#4 v=0
72372 On ch=1 n=g#5 v=0
72396 On ch=1 n=d4 v=0
72456 On ch=1 n=f6 v=0
72476 On ch=1 n=f5 v=77
72476 On ch=1 n=d5 v=83
72516 Par ch=1 c=64 v=0
72596 On ch=1 n=f#5 v=75
72596 On ch=1 n=g#4 v=73
72612 On ch=1 n=f5 v=0
72624 On ch=1 n=d5 v=0
72716 On ch=1 n=f5 v=71
72716 On ch=1 n=f4 v=70
72724 On ch=1 n=f#5 v=0
72744 On ch=1 n=g#4 v=0
72836 On ch=1 n=b3 v=79
72840 On ch=1 n=d6 v=67
72852 On ch=1 n=f5 v=0
72860 On ch=1 n=f4 v=0
72956 On ch=1 n=g3 v=96
72964 On ch=1 n=a#5 v=84
72964 On ch=1 n=e5 v=84
72964 On ch=1 n=c#6 v=84
72968 On ch=1 n=d6 v=0
72976 On ch=1 n=b3 v=0
73148 On ch=1 n=g3 v=0
73184 On ch=1 n=a#5 v=0
73188 On ch=1 n=c#6 v=0
73192 On ch=1 n=e5 v=0
73436 On ch=1 n=d#4 v=97
73448 On ch=1 n=c#6 v=79
73448 On ch=1 n=c#5 v=79
73448 On ch=1 n=a#5 v=79
73468 Par ch=1 c=64 v=127
73564 On ch=1 n=e4 v=77
73596 On ch=1 n=d#4 v=0
73684 On ch=1 n=e4 v=0
73684 On ch=1 n=d4 v=73
73804 On ch=1 n=d#4 v=77
73828 On ch=1 n=d4 v=0
73868 On ch=1 n=d#4 v=0
73924 On ch=1 n=d#4 v=87
74044 On ch=1 n=e4 v=76
74072 On ch=1 n=d#4 v=0
74136 On ch=1 n=c#5 v=0
74140 On ch=1 n=c#6 v=0
74152 On ch=1 n=a#5 v=0
74168 On ch=1 n=e4 v=0
74168 On ch=1 n=d4 v=72
74244 Par ch=1 c=64 v=0
74284 On ch=1 n=d#4 v=77
74304 On ch=1 n=d4 v=0
74344 On ch=1 n=d#4 v=0
74348 Par ch=1 c=64 v=127
74404 On ch=1 n=a#6 v=89
74404 On ch=1 n=a#5 v=89
74408 On ch=1 n=c#6 v=89
74408 On ch=1 n=d#4 v=90
74524 On ch=1 n=e4 v=71
74536 On ch=1 n=d#4 v=0
74644 On ch=1 n=e4 v=0
74644 On ch=1 n=d4 v=72
74764 On ch=1 n=d#4 v=85
74784 On ch=1 n=d4 v=0
74832 On ch=1 n=d#4 v=0
74884 On ch=1 n=d#4 v=99
75004 On ch=1 n=d#4 v=0
75004 On ch=1 n=e4 v=76
75044 On ch=1 n=a#5 v=0
75048 On ch=1 n=c#6 v=0
75064 On ch=1 n=a#6 v=0
75124 On ch=1 n=d4 v=76
75128 On ch=1 n=e4 v=0
75244 On ch=1 n=d#4 v=87
75268 On ch=1 n=d4 v=0
75280 Par ch=1 c=64 v=0
75316 On ch=1 n=d#4 v=0
75364 On ch=1 n=d#4 v=99
75368 On ch=1 n=c#7 v=95
75368 On ch=1 n=c#6 v=95
75372 On ch=1 n=a#6 v=95
75444 On ch=1 n=c#6 v=0
75452 On ch=1 n=a#6 v=0
75456 On ch=1 n=c#7 v=0
75484 On ch=1 n=e4 v=78
75496 On ch=1 n=d#4 v=0
75604 On ch=1 n=d4 v=80
75628 On ch=1 n=e4 v=0
75720 On ch=1 n=d#4 v=103
75732 On ch=1 n=d4 v=0
75792 On ch=1 n=d#4 v=0
75840 On ch=1 n=d#4 v=105
75840 Par ch=1 c=64 v=127
75844 On ch=1 n=a#7 v=100
75844 On ch=1 n=a#6 v=100
75844 On ch=1 n=c#7 v=100
75956 On ch=1 n=e4 v=89
75968 On ch=1 n=d#4 v=0
76060 On ch=1 n=e4 v=0
76080 On ch=1 n=d4 v=91
76196 On ch=1 n=d#4 v=101
76220 On ch=1 n=d4 v=0
76252 On ch=1 n=d#4 v=0
76316 On ch=1 n=d#4 v=105
76436 On ch=1 n=a#7 v=0
76436 On ch=1 n=e4 v=83
76444 On ch=1 n=c#7 v=0
76448 On ch=1 n=d#4 v=0
76448 On ch=1 n=a#6 v=0
76556 On ch=1 n=d4 v=91
76560 On ch=1 n=e4 v=0
76568 On ch=1 n=g#7 v=94
76568 On ch=1 n=g#6 v=94
76568 On ch=1 n=c#7 v=94
76648 Par ch=1 c=64 v=0
76680 On ch=1 n=d#4 v=103
76712 On ch=1 n=d4 v=0
76744 On ch=1 n=c#7 v=0
76752 On ch=1 n=g#6 v=0
76760 On ch=1 n=d#4 v=0
76772 On ch=1 n=g#7 v=0
76804 On ch=1 n=e4 v=108
76808 On ch=1 n=g7 v=100
76808 On ch=1 n=g6 v=100
76808 On ch=1 n=c#7 v=100
76820 Par ch=1 c=64 v=127
76924 On ch=1 n=e4 v=0
77044 On ch=1 n=c#7 v=0
77052 On ch=1 n=g6 v=0
77060 On ch=1 n=g7 v=0
77276 On ch=1 n=c#7 v=80
77276 On ch=1 n=g6 v=74
77404 On ch=1 n=c#7 v=0
77404 On ch=1 n=d#7 v=77
77404 On ch=1 n=c#6 v=72
77428 On ch=1 n=g6 v=0
77516 On ch=1 n=c#7 v=74
77524 On ch=1 n=a#5 v=69
77532 On ch=1 n=d#7 v=0
77552 On ch=1 n=c#6 v=0
77636 On ch=1 n=a#7 v=72
77640 On ch=1 n=c#7 v=0
77640 On ch=1 n=e5 v=69
77648 On ch=1 n=a#5 v=0
77740 On ch=1 n=e5 v=0
77740 On ch=1 n=a#7 v=0
77756 On ch=1 n=a#6 v=79
77756 On ch=1 n=e6 v=70
77876 On ch=1 n=a#5 v=69
77884 On ch=1 n=c7 v=74
77888 On ch=1 n=a#6 v=0
77904 On ch=1 n=e6 v=0
77996 On ch=1 n=a#6 v=69
77996 On ch=1 n=g5 v=68
78012 On ch=1 n=c7 v=0
78024 On ch=1 n=a#5 v=0
78116 On ch=1 n=g7 v=66
78120 On ch=1 n=c#5 v=65
78128 On ch=1 n=g5 v=0
78144 On ch=1 n=a#6 v=0
78176 On ch=1 n=g7 v=0
78208 On ch=1 n=c#5 v=0
78236 On ch=1 n=g6 v=79
78236 On ch=1 n=c#6 v=72
78356 On ch=1 n=g#6 v=74
78356 On ch=1 n=g5 v=72
78360 On ch=1 n=g6 v=0
78364 On ch=1 n=c#6 v=0
78476 On ch=1 n=g6 v=69
78480 On ch=1 n=g5 v=0
78484 On ch=1 n=e5 v=70
78488 On ch=1 n=g#6 v=0
78596 On ch=1 n=e5 v=0
78596 On ch=1 n=e7 v=66
78596 On ch=1 n=a#4 v=66
78604 On ch=1 n=g6 v=0
78692 On ch=1 n=a#4 v=0
78700 On ch=1 n=e7 v=0
78716 On ch=1 n=e6 v=78
78720 On ch=1 n=a#5 v=67
78836 On ch=1 n=f#6 v=73
78836 On ch=1 n=e5 v=68
78844 On ch=1 n=a#5 v=0
78852 On ch=1 n=e6 v=0
78956 On ch=1 n=e6 v=68
78956 On ch=1 n=c#5 v=65
78968 On ch=1 n=f#6 v=0
78980 On ch=1 n=e5 v=0
79076 On ch=1 n=c#7 v=63
79076 On ch=1 n=g4 v=63
79088 On ch=1 n=c#5 v=0
79100 On ch=1 n=e6 v=0
79120 On ch=1 n=g4 v=0
79128 On ch=1 n=c#7 v=0
79196 On ch=1 n=g5 v=66
79204 On ch=1 n=c#6 v=78
79316 On ch=1 n=d#6 v=79
79316 On ch=1 n=c#5 v=64
79324 On ch=1 n=c#6 v=0
79332 On ch=1 n=g5 v=0
79436 On ch=1 n=a#4 v=61
79440 On ch=1 n=c#6 v=73
79464 On ch=1 n=d#6 v=0
79476 On ch=1 n=c#5 v=0
79556 On ch=1 n=e4 v=61
79560 On ch=1 n=c#6 v=0
79560 On ch=1 n=a#6 v=73
79572 On ch=1 n=a#4 v=0
79648 On ch=1 n=e4 v=0
79652 On ch=1 n=a#6 v=0
79676 On ch=1 n=a#5 v=69
79676 On ch=1 n=e5 v=52
79796 On ch=1 n=c6 v=70
79796 On ch=1 n=a#4 v=50
79800 On ch=1 n=a#5 v=0
79824 On ch=1 n=e5 v=0
79912 On ch=1 n=g4 v=51
79916 On ch=1 n=a#5 v=66
79924 On ch=1 n=c6 v=0
79948 On ch=1 n=a#4 v=0
80036 On ch=1 n=a#5 v=0
80036 On ch=1 n=g6 v=65
80036 On ch=1 n=c#4 v=52
80060 On ch=1 n=g4 v=0
80124 On ch=1 n=g6 v=0
80140 On ch=1 n=c#4 v=0
80156 On ch=1 n=g5 v=63
80156 On ch=1 n=c#5 v=52
80204 Par ch=1 c=64 v=0
80276 On ch=1 n=g#5 v=62
80280 On ch=1 n=g4 v=51
80300 On ch=1 n=g5 v=0
80312 On ch=1 n=c#5 v=0
80396 On ch=1 n=g5 v=63
80400 On ch=1 n=e4 v=49
80412 On ch=1 n=g4 v=0
80424 On ch=1 n=g#5 v=0
80516 On ch=1 n=e6 v=64
80516 On ch=1 n=a#3 v=50
80524 On ch=1 n=g5 v=0
80536 On ch=1 n=e4 v=0
80632 On ch=1 n=e6 v=0
80636 On ch=1 n=a#3 v=0
80636 On ch=1 n=d#5 v=62
80644 On ch=1 n=b3 v=48
80648 Par ch=1 c=64 v=127
80760 On ch=1 n=d#6 v=62
80764 On ch=1 n=d#4 v=49
80776 On ch=1 n=d#5 v=0
80844 On ch=1 n=b3 v=0
80884 On ch=1 n=e6 v=66
80884 On ch=1 n=g4 v=52
80888 On ch=1 n=d#4 v=0
80900 On ch=1 n=d#6 v=0
81000 On ch=1 n=d#6 v=68
81004 On ch=1 n=g#4 v=53
81016 On ch=1 n=e6 v=0
81032 On ch=1 n=g4 v=0
81080 Par ch=1 c=64 v=0
81120 On ch=1 n=c#6 v=69
81124 On ch=1 n=a#4 v=56
81140 On ch=1 n=d#6 v=0
81152 On ch=1 n=g#4 v=0
81244 On ch=1 n=b5 v=69
81244 On ch=1 n=b4 v=59
81248 On ch=1 n=a#4 v=0
81252 On ch=1 n=c#6 v=0
81360 On ch=1 n=a#5 v=72
81364 On ch=1 n=c#5 v=63
81388 On ch=1 n=b5 v=0
81396 On ch=1 n=b4 v=0
81484 On ch=1 n=g#5 v=75
81484 On ch=1 n=d#5 v=64
81492 On ch=1 n=a#5 v=0
81508 On ch=1 n=c#5 v=0
81580 Par ch=1 c=64 v=127
81600 On ch=1 n=d#5 v=0
81600 On ch=1 n=g5 v=79
81608 On ch=1 n=e5 v=57
81612 On ch=1 n=g#5 v=0
81720 On ch=1 n=g#5 v=77
81724 On ch=1 n=a#4 v=64
81740 On ch=1 n=g5 v=0
81764 On ch=1 n=e5 v=0
81832 On ch=1 n=g5 v=76
81844 On ch=1 n=g4 v=59
81860 On ch=1 n=a#4 v=0
81860 On ch=1 n=g#5 v=0
81944 On ch=1 n=g4 v=0
81944 On ch=1 n=e6 v=75
81956 On ch=1 n=c#4 v=58
81988 On ch=1 n=g5 v=0
81996 On ch=1 n=e6 v=0
82004 On ch=1 n=c#4 v=0
82028 Par ch=1 c=64 v=0
82072 On ch=1 n=e5 v=67
82076 On ch=1 n=c#5 v=57
82196 On ch=1 n=g4 v=56
82200 On ch=1 n=f#5 v=65
82216 On ch=1 n=e5 v=0
82228 On ch=1 n=c#5 v=0
82312 On ch=1 n=e5 v=63
82316 On ch=1 n=e4 v=56
82332 On ch=1 n=f#5 v=0
82348 On ch=1 n=g4 v=0
82420 On ch=1 n=c#6 v=62
82436 On ch=1 n=a#3 v=50
82448 On ch=1 n=e5 v=0
82460 On ch=1 n=e4 v=0
82504 Par ch=1 c=64 v=127
82532 On ch=1 n=c#6 v=0
82548 On ch=1 n=a#3 v=0
82556 On ch=1 n=b3 v=49
82560 On ch=1 n=d#5 v=54
82676 On ch=1 n=d#4 v=49
82680 On ch=1 n=d#6 v=59
82692 On ch=1 n=d#5 v=0
82732 On ch=1 n=b3 v=0
82792 On ch=1 n=d#4 v=0
82796 On ch=1 n=g4 v=53
82800 On ch=1 n=e6 v=62
82816 On ch=1 n=d#6 v=0
82916 On ch=1 n=g#4 v=53
82920 On ch=1 n=d#6 v=64
82932 On ch=1 n=e6 v=0
82940 On ch=1 n=g4 v=0
82984 Par ch=1 c=64 v=0
83036 On ch=1 n=a#4 v=57
83040 On ch=1 n=c#6 v=68
83044 On ch=1 n=g#4 v=0
83056 On ch=1 n=d#6 v=0
83156 On ch=1 n=b4 v=60
83164 On ch=1 n=c#6 v=0
83168 On ch=1 n=b5 v=70
83172 On ch=1 n=a#4 v=0
83276 On ch=1 n=a#5 v=74
83276 On ch=1 n=c#5 v=62
83292 On ch=1 n=b4 v=0
83300 On ch=1 n=b5 v=0
83364 On ch=1 n=c#5 v=0
83392 On ch=1 n=d#5 v=64
83396 On ch=1 n=g#5 v=77
83400 On ch=1 n=a#5 v=0
83504 On ch=1 n=d#5 v=0
83512 On ch=1 n=g#5 v=0
83516 On ch=1 n=f#5 v=64
83516 Par ch=1 c=64 v=127
83520 On ch=1 n=a5 v=79
83612 On ch=1 n=f#5 v=0
83636 On ch=1 n=c5 v=58
83648 On ch=1 n=a#5 v=77
83656 On ch=1 n=a5 v=0
83756 On ch=1 n=a5 v=74
83756 On ch=1 n=a4 v=58
83772 On ch=1 n=c5 v=0
83780 On ch=1 n=a#5 v=0
83880 On ch=1 n=f#6 v=72
83880 On ch=1 n=d#4 v=56
83884 On ch=1 n=a5 v=0
83900 On ch=1 n=a4 v=0
83940 On ch=1 n=d#4 v=0
83940 On ch=1 n=f#6 v=0
83968 Par ch=1 c=64 v=0
84000 On ch=1 n=d#5 v=54
84004 On ch=1 n=f#5 v=65
84120 On ch=1 n=a4 v=53
84128 On ch=1 n=g#5 v=64
84132 On ch=1 n=f#5 v=0
84140 On ch=1 n=d#5 v=0
84236 On ch=1 n=g#5 v=0
84240 On ch=1 n=f#4 v=52
84244 On ch=1 n=f#5 v=63
84268 On ch=1 n=a4 v=0
84356 On ch=1 n=c4 v=49
84360 On ch=1 n=d#6 v=60
84368 On ch=1 n=f#5 v=0
84380 On ch=1 n=f#4 v=0
84460 On ch=1 n=c4 v=0
84472 On ch=1 n=d#6 v=0
84480 On ch=1 n=c#4 v=48
84480 Par ch=1 c=64 v=127
84484 On ch=1 n=f5 v=55
84588 On ch=1 n=f5 v=0
84600 On ch=1 n=f4 v=51
84604 On ch=1 n=f6 v=57
84712 On ch=1 n=c#4 v=0
84716 On ch=1 n=f4 v=0
84720 On ch=1 n=a4 v=51
84724 On ch=1 n=f#6 v=62
84740 On ch=1 n=f6 v=0
84840 On ch=1 n=a#4 v=53
84844 On ch=1 n=f6 v=63
84852 On ch=1 n=f#6 v=0
84860 On ch=1 n=a4 v=0
84956 Par ch=1 c=64 v=0
84964 On ch=1 n=d#6 v=67
84964 On ch=1 n=c5 v=56
84968 On ch=1 n=a#4 v=0
84984 On ch=1 n=f6 v=0
85084 On ch=1 n=c#6 v=70
85084 On ch=1 n=c#5 v=59
85104 On ch=1 n=d#6 v=0
85108 On ch=1 n=c5 v=0
85204 On ch=1 n=c6 v=72
85204 On ch=1 n=d#5 v=62
85212 On ch=1 n=c#6 v=0
85236 On ch=1 n=c#5 v=0
85316 On ch=1 n=a#5 v=73
85324 On ch=1 n=f5 v=64
85328 On ch=1 n=c6 v=0
85344 On ch=1 n=d#5 v=0
85424 Par ch=1 c=64 v=127
85436 On ch=1 n=b5 v=90
85436 On ch=1 n=g#5 v=60
85440 On ch=1 n=f5 v=0
85444 On ch=1 n=a#5 v=0
85556 On ch=1 n=c#6 v=73
85556 On ch=1 n=d5 v=56
85564 On ch=1 n=b5 v=0
85588 On ch=1 n=g#5 v=0
85676 On ch=1 n=b5 v=73
85676 On ch=1 n=b4 v=58
85696 On ch=1 n=c#6 v=0
85708 On ch=1 n=d5 v=0
85792 On ch=1 n=g#6 v=69
85796 On ch=1 n=b5 v=0
85800 On ch=1 n=f4 v=56
85820 On ch=1 n=b4 v=0
85848 On ch=1 n=g#6 v=0
85856 On ch=1 n=f4 v=0
85916 On ch=1 n=g#5 v=89
85916 On ch=1 n=e5 v=69
86036 On ch=1 n=e5 v=0
86036 On ch=1 n=b4 v=53
86040 On ch=1 n=a#5 v=66
86056 On ch=1 n=g#5 v=0
86156 On ch=1 n=g#5 v=70
86156 On ch=1 n=g#4 v=55
86176 On ch=1 n=b4 v=0
86184 On ch=1 n=a#5 v=0
86276 On ch=1 n=f6 v=72
86276 On ch=1 n=d4 v=55
86280 On ch=1 n=g#5 v=0
86292 On ch=1 n=g#4 v=0
86328 Par ch=1 c=64 v=0
86384 Par ch=1 c=64 v=127
86388 On ch=1 n=f6 v=0
86392 On ch=1 n=d4 v=0
86400 On ch=1 n=c6 v=80
86404 On ch=1 n=a5 v=68
86516 On ch=1 n=c#6 v=72
86520 On ch=1 n=d#5 v=59
86524 On ch=1 n=c6 v=0
86536 On ch=1 n=a5 v=0
86636 On ch=1 n=c6 v=74
86636 On ch=1 n=c5 v=57
86648 On ch=1 n=d#5 v=0
86660 On ch=1 n=c#6 v=0
86752 On ch=1 n=c6 v=0
86756 On ch=1 n=a6 v=75
86760 On ch=1 n=f#4 v=60
86768 On ch=1 n=c5 v=0
86808 On ch=1 n=f#4 v=0
86808 On ch=1 n=a6 v=0
86876 On ch=1 n=a5 v=92
86876 On ch=1 n=f#5 v=76
86996 On ch=1 n=a#5 v=79
87000 On ch=1 n=c5 v=64
87004 On ch=1 n=a5 v=0
87040 On ch=1 n=f#5 v=0
87116 On ch=1 n=a5 v=80
87120 On ch=1 n=a4 v=60
87124 On ch=1 n=c5 v=0
87144 On ch=1 n=a#5 v=0
87236 On ch=1 n=f#6 v=82
87236 On ch=1 n=d#4 v=66
87240 On ch=1 n=a4 v=0
87252 On ch=1 n=a5 v=0
87264 Par ch=1 c=64 v=0
87272 On ch=1 n=f#6 v=0
87292 On ch=1 n=d#4 v=0
87344 Par ch=1 c=64 v=127
87356 On ch=1 n=a#5 v=81
87364 On ch=1 n=c#6 v=96
87476 On ch=1 n=c#6 v=0
87476 On ch=1 n=d#6 v=84
87476 On ch=1 n=e5 v=69
87488 On ch=1 n=a#5 v=0
87596 On ch=1 n=c#6 v=85
87596 On ch=1 n=c#5 v=67
87604 On ch=1 n=d#6 v=0
87620 On ch=1 n=e5 v=0
87716 On ch=1 n=a#6 v=86
87716 On ch=1 n=g4 v=70
87720 On ch=1 n=c#6 v=0
87744 On ch=1 n=c#5 v=0
87756 On ch=1 n=a#6 v=0
87776 On ch=1 n=g4 v=0
87836 On ch=1 n=a#5 v=97
87836 On ch=1 n=g5 v=83
87956 On ch=1 n=a#5 v=0
87956 On ch=1 n=c6 v=87
87956 On ch=1 n=c#5 v=68
87972 On ch=1 n=g5 v=0
88072 On ch=1 n=a#4 v=72
88076 On ch=1 n=a#5 v=86
88092 On ch=1 n=c6 v=0
88100 On ch=1 n=c#5 v=0
88196 On ch=1 n=f#6 v=83
88196 On ch=1 n=e4 v=73
88212 On ch=1 n=a#5 v=0
88220 On ch=1 n=a#4 v=0
88236 On ch=1 n=f#6 v=0
88236 Par ch=1 c=64 v=0
88256 On ch=1 n=e4 v=0
88312 Par ch=1 c=64 v=127
88324 On ch=1 n=g#4 v=101
88324 On ch=1 n=f#5 v=95
88324 On ch=1 n=d#5 v=95
88324 On ch=1 n=a5 v=105
88328 On ch=1 n=c6 v=92
88436 On ch=1 n=d#6 v=96
88464 On ch=1 n=c6 v=0
88552 On ch=1 n=f#6 v=102
88592 On ch=1 n=d#6 v=0
88672 On ch=1 n=a6 v=100
88708 On ch=1 n=a5 v=0
88712 On ch=1 n=f#6 v=0
88716 Par ch=1 c=64 v=0
88740 On ch=1 n=a6 v=0
88776 Par ch=1 c=64 v=127
88792 On ch=1 n=c7 v=99
88796 On ch=1 n=g#5 v=101
88912 On ch=1 n=d#7 v=98
88972 On ch=1 n=c7 v=0
89028 On ch=1 n=f#7 v=103
89044 On ch=1 n=g#5 v=0
89080 On ch=1 n=d#7 v=0
89140 On ch=1 n=f#5 v=0
89140 On ch=1 n=a7 v=103
89144 On ch=1 n=d#5 v=0
89144 On ch=1 n=g#4 v=0
89264 On ch=1 n=f#7 v=0
89264 On ch=1 n=c8 v=97
89292 On ch=1 n=a7 v=0
89380 On ch=1 n=c8 v=0
89396 On ch=1 n=d#7 v=95
89524 On ch=1 n=e7 v=103
89544 On ch=1 n=d#7 v=0
89644 On ch=1 n=g#7 v=101
89664 On ch=1 n=e7 v=0
89768 On ch=1 n=f#7 v=97
89796 On ch=1 n=g#7 v=0
89884 On ch=1 n=c6 v=91
89888 On ch=1 n=c7 v=96
89904 On ch=1 n=f#7 v=0
90004 On ch=1 n=c#6 v=89
90008 On ch=1 n=c#7 v=93
90032 On ch=1 n=c7 v=0
90036 On ch=1 n=c6 v=0
90124 On ch=1 n=e7 v=100
90124 On ch=1 n=e6 v=91
90144 On ch=1 n=c#7 v=0
90148 On ch=1 n=c#6 v=0
90244 On ch=1 n=d#7 v=95
90244 On ch=1 n=d#6 v=86
90260 On ch=1 n=e7 v=0
90264 On ch=1 n=e6 v=0
90356 On ch=1 n=d#6 v=0
90360 On ch=1 n=f#5 v=86
90364 On ch=1 n=f#6 v=95
90368 On ch=1 n=d#7 v=0
90480 On ch=1 n=g#5 v=87
90484 On ch=1 n=g#6 v=100
90508 On ch=1 n=f#6 v=0
90516 On ch=1 n=f#5 v=0
90592 On ch=1 n=g#5 v=0
90596 On ch=1 n=b5 v=83
90600 On ch=1 n=g#6 v=0
90604 On ch=1 n=b6 v=103
90716 On ch=1 n=a5 v=85
90724 On ch=1 n=a6 v=99
90728 On ch=1 n=b5 v=0
90748 On ch=1 n=b6 v=0
90836 On ch=1 n=a5 v=0
90836 On ch=1 n=c5 v=88
90840 On ch=1 n=a6 v=0
90844 On ch=1 n=c6 v=95
90956 On ch=1 n=c#5 v=88
90964 On ch=1 n=c#6 v=93
90976 On ch=1 n=c5 v=0
90992 On ch=1 n=c6 v=0
91076 On ch=1 n=e5 v=89
91080 On ch=1 n=c#5 v=0
91084 On ch=1 n=e6 v=98
91096 On ch=1 n=c#6 v=0
91196 On ch=1 n=d#5 v=87
91204 On ch=1 n=d#6 v=95
91228 On ch=1 n=e6 v=0
91228 On ch=1 n=e5 v=0
91308 On ch=1 n=d#5 v=0
91316 On ch=1 n=f#4 v=88
91324 On ch=1 n=f#5 v=97
91328 On ch=1 n=d#6 v=0
91440 On ch=1 n=g#4 v=92
91444 On ch=1 n=g#5 v=93
91480 On ch=1 n=f#5 v=0
91480 On ch=1 n=f#4 v=0
91552 On ch=1 n=g#4 v=0
91556 On ch=1 n=b4 v=89
91564 On ch=1 n=b5 v=100
91572 On ch=1 n=g#5 v=0
91676 On ch=1 n=a4 v=91
91684 On ch=1 n=a5 v=96
91712 On ch=1 n=b5 v=0
91720 On ch=1 n=b4 v=0
91804 On ch=1 n=a5 v=0
91804 On ch=1 n=f#5 v=94
91804 On ch=1 n=f#4 v=87
91812 On ch=1 n=a4 v=0
91920 On ch=1 n=f#4 v=0
91924 On ch=1 n=d5 v=91
91924 On ch=1 n=d4 v=90
91944 On ch=1 n=f#5 v=0
91948 Par ch=1 c=64 v=0
92044 On ch=1 n=c#5 v=93
92044 On ch=1 n=c#4 v=89
92052 On ch=1 n=d5 v=0
92076 On ch=1 n=d4 v=0
92144 On ch=1 n=c#5 v=0
92148 On ch=1 n=c#4 v=0
92164 On ch=1 n=g#5 v=99
92164 On ch=1 n=f#5 v=99
92164 On ch=1 n=d#5 v=99
92164 On ch=1 n=g#4 v=99
92164 On ch=1 n=c3 v=101
92164 On ch=1 n=c4 v=101
92336 On ch=1 n=d#5 v=0
92348 On ch=1 n=f#5 v=0
92356 On ch=1 n=g#4 v=0
92356 On ch=1 n=g#5 v=0
92392 On ch=1 n=c4 v=0
92404 On ch=1 n=c3 v=0
92404 On ch=1 n=d#5 v=64
92516 On ch=1 n=e5 v=62
92524 On ch=1 n=d#5 v=0
92644 On ch=1 n=f5 v=68
92672 On ch=1 n=e5 v=0
92764 On ch=1 n=f#5 v=68
92788 On ch=1 n=f5 v=0
92884 On ch=1 n=f5 v=74
92900 On ch=1 n=f#5 v=0
93004 On ch=1 n=f#5 v=73
93028 On ch=1 n=f5 v=0
93124 On ch=1 n=g5 v=73
93144 On ch=1 n=f#5 v=0
93244 On ch=1 n=g#5 v=80
93272 On ch=1 n=g5 v=0
93364 On ch=1 n=f#5 v=80
93392 On ch=1 n=g#5 v=0
93484 On ch=1 n=f#5 v=0
93484 On ch=1 n=g5 v=81
93604 On ch=1 n=g#5 v=85
93612 On ch=1 n=g5 v=0
93716 On ch=1 n=g#5 v=0
93724 On ch=1 n=a5 v=86
93812 Par ch=1 c=64 v=127
93836 On ch=1 n=a5 v=0
93844 On ch=1 n=d#5 v=88
93920 On ch=1 n=g#3 v=100
93960 On ch=1 n=e5 v=94
93964 On ch=1 n=d#5 v=0
93984 On ch=1 n=d#4 v=101
94012 On ch=1 n=g#3 v=0
94036 On ch=1 n=f#4 v=100
94084 On ch=1 n=f5 v=97
94092 On ch=1 n=c5 v=103
94112 On ch=1 n=e5 v=0
94192 On ch=1 n=d#4 v=0
94204 On ch=1 n=f#5 v=96
94224 On ch=1 n=f5 v=0
94248 On ch=1 n=c5 v=0
94264 On ch=1 n=f#4 v=0
94324 On ch=1 n=e5 v=65
94328 On ch=1 n=f#5 v=0
94408 Par ch=1 c=64 v=0
94444 On ch=1 n=f5 v=63
94460 On ch=1 n=e5 v=0
94564 On ch=1 n=f#5 v=68
94600 On ch=1 n=f5 v=0
94684 On ch=1 n=g5 v=68
94720 On ch=1 n=f#5 v=0
94796 On ch=1 n=g5 v=0
94804 On ch=1 n=f5 v=71
94924 On ch=1 n=f#5 v=70
94948 On ch=1 n=f5 v=0
95040 On ch=1 n=g5 v=74
95076 On ch=1 n=f#5 v=0
95164 On ch=1 n=g#5 v=75
95188 On ch=1 n=g5 v=0
95284 On ch=1 n=f#5 v=79
95308 On ch=1 n=g#5 v=0
95404 On ch=1 n=f#5 v=0
95404 On ch=1 n=g5 v=82
95516 On ch=1 n=g#5 v=85
95536 On ch=1 n=g5 v=0
95636 On ch=1 n=a5 v=89
95704 On ch=1 n=g#5 v=0
95756 On ch=1 n=d#5 v=93
95764 On ch=1 n=a5 v=0
95784 Par ch=1 c=64 v=127
95804 On ch=1 n=g#3 v=98
95852 On ch=1 n=d#4 v=99
95876 On ch=1 n=e5 v=96
95884 On ch=1 n=d#5 v=0
95904 On ch=1 n=f#4 v=99
95920 On ch=1 n=g#3 v=0
95976 On ch=1 n=c5 v=100
95992 On ch=1 n=d#4 v=0
96004 On ch=1 n=e5 v=0
96004 On ch=1 n=f5 v=99
96080 On ch=1 n=c5 v=0
96080 On ch=1 n=f#4 v=0
96120 On ch=1 n=f#5 v=100
96168 On ch=1 n=f5 v=0
96236 On ch=1 n=e5 v=79
96276 On ch=1 n=f#5 v=0
96308 Par ch=1 c=64 v=0
96356 On ch=1 n=f5 v=80
96380 On ch=1 n=e5 v=0
96476 On ch=1 n=f#5 v=83
96516 On ch=1 n=f5 v=0
96596 On ch=1 n=g5 v=81
96636 On ch=1 n=f#5 v=0
96700 On ch=1 n=g5 v=0
96716 On ch=1 n=f5 v=81
96836 On ch=1 n=f#5 v=82
96876 On ch=1 n=f5 v=0
96956 On ch=1 n=g5 v=81
96964 On ch=1 n=f#5 v=0
97076 On ch=1 n=g#5 v=84
97092 On ch=1 n=g5 v=0
97196 On ch=1 n=f#5 v=87
97220 On ch=1 n=g#5 v=0
97312 On ch=1 n=f#5 v=0
97316 On ch=1 n=g5 v=86
97436 On ch=1 n=g#5 v=87
97452 On ch=1 n=g5 v=0
97556 On ch=1 n=a5 v=88
97608 On ch=1 n=g#5 v=0
97664 On ch=1 n=a5 v=0
97680 On ch=1 n=g5 v=91
97796 On ch=1 n=g#5 v=87
97808 On ch=1 n=g5 v=0
97904 On ch=1 n=g#5 v=0
97916 On ch=1 n=a5 v=90
98036 On ch=1 n=a#5 v=88
98064 On ch=1 n=a5 v=0
98160 On ch=1 n=g#5 v=89
98184 On ch=1 n=a#5 v=0
98284 On ch=1 n=a5 v=92
98292 On ch=1 n=g#5 v=0
98396 On ch=1 n=a#5 v=91
98408 On ch=1 n=a5 v=0
98524 On ch=1 n=b5 v=93
98568 On ch=1 n=a#5 v=0
98636 On ch=1 n=b5 v=0
98640 On ch=1 n=a5 v=94
98756 On ch=1 n=a#5 v=93
98776 On ch=1 n=a5 v=0
98876 On ch=1 n=b5 v=94
98912 On ch=1 n=a#5 v=0
99000 On ch=1 n=c6 v=94
99024 On ch=1 n=b5 v=0
99124 On ch=1 n=a#5 v=94
99128 On ch=1 n=c6 v=0
99236 On ch=1 n=a#5 v=0
99240 On ch=1 n=b5 v=94
99356 Par ch=1 c=64 v=127
99364 On ch=1 n=c6 v=90
99364 On ch=1 n=g#3 v=99
99396 On ch=1 n=b5 v=0
99476 On ch=1 n=f#3 v=104
99484 On ch=1 n=g#3 v=0
99484 On ch=1 n=c#6 v=89
99516 On ch=1 n=c6 v=0
99576 On ch=1 n=f#3 v=0
99596 On ch=1 n=e3 v=107
99600 On ch=1 n=b5 v=87
99620 On ch=1 n=c#6 v=0
99712 On ch=1 n=d#3 v=103
99720 On ch=1 n=c6 v=87
99740 On ch=1 n=b5 v=0
99740 On ch=1 n=e3 v=0
99836 On ch=1 n=c6 v=0
99844 On ch=1 n=c#6 v=98
99844 On ch=1 n=c#3 v=110
99856 On ch=1 n=d#3 v=0
99856 Par ch=1 c=64 v=0
99928 On ch=1 n=c#3 v=0
99968 On ch=1 n=d#6 v=64
99992 On ch=1 n=c#6 v=0
100088 On ch=1 n=c6 v=60
100092 On ch=1 n=d#6 v=0
100204 On ch=1 n=c#6 v=66
100232 On ch=1 n=c6 v=0
100320 On ch=1 n=d#6 v=54
100324 On ch=1 n=f#5 v=58
100324 On ch=1 n=a5 v=62
100372 On ch=1 n=c#6 v=0
100416 On ch=1 n=a5 v=0
100416 On ch=1 n=f#5 v=0
100436 On ch=1 n=e6 v=59
100532 On ch=1 n=d#6 v=0
100564 On ch=1 n=c#6 v=51
100584 On ch=1 n=e6 v=0
100684 On ch=1 n=d#6 v=66
100724 On ch=1 n=c#6 v=0
100804 On ch=1 n=e6 v=66
100804 On ch=1 n=e5 v=63
100804 On ch=1 n=g#5 v=66
100840 On ch=1 n=d#6 v=0
100856 On ch=1 n=g#5 v=0
100864 On ch=1 n=e5 v=0
100924 On ch=1 n=f#6 v=56
100964 On ch=1 n=e6 v=0
101048 On ch=1 n=d#6 v=56
101056 On ch=1 n=f#6 v=0
101164 On ch=1 n=e6 v=67
101180 On ch=1 n=d#6 v=0
101284 On ch=1 n=f#6 v=51
101288 On ch=1 n=f#5 v=67
101288 On ch=1 n=d#5 v=71
101312 On ch=1 n=e6 v=0
101328 On ch=1 n=f#5 v=0
101332 On ch=1 n=d#5 v=0
101408 On ch=1 n=g#6 v=67
101460 On ch=1 n=f#6 v=0
101528 On ch=1 n=e6 v=61
101532 On ch=1 n=g#6 v=0
101648 On ch=1 n=f#6 v=64
101684 On ch=1 n=e6 v=0
101768 On ch=1 n=g#6 v=64
101768 On ch=1 n=c#5 v=70
101768 On ch=1 n=e5 v=63
101820 On ch=1 n=e5 v=0
101820 On ch=1 n=f#6 v=0
101832 On ch=1 n=c#5 v=0
101888 On ch=1 n=a6 v=66
101920 On ch=1 n=g#6 v=0
101988 On ch=1 n=a6 v=0
102004 On ch=1 n=g#6 v=62
102120 On ch=1 n=g#6 v=0
102128 On ch=1 n=c#7 v=74
102244 On ch=1 n=c#5 v=71
102244 On ch=1 n=f#5 v=74
102248 On ch=1 n=f#6 v=62
102248 On ch=1 n=a4 v=67
102256 On ch=1 n=c#7 v=0
102296 On ch=1 n=a4 v=0
102300 On ch=1 n=f#5 v=0
102320 On ch=1 n=c#5 v=0
102368 On ch=1 n=g#6 v=71
102384 On ch=1 n=f#6 v=0
102488 On ch=1 n=f#6 v=70
102496 On ch=1 n=g#6 v=0
102608 On ch=1 n=c#7 v=71
102616 On ch=1 n=f#6 v=0
102728 On ch=1 n=e6 v=64
102728 On ch=1 n=c#5 v=73
102728 On ch=1 n=e5 v=64
102728 On ch=1 n=g#4 v=61
102740 On ch=1 n=c#7 v=0
102784 On ch=1 n=g#4 v=0
102788 On ch=1 n=e5 v=0
102804 On ch=1 n=c#5 v=0
102848 On ch=1 n=f#6 v=65
102860 On ch=1 n=e6 v=0
102968 On ch=1 n=e6 v=66
102984 On ch=1 n=f#6 v=0
103080 On ch=1 n=e6 v=0
103088 On ch=1 n=c#7 v=69
103204 On ch=1 n=d#5 v=70
103204 On ch=1 n=f#4 v=62
103204 On ch=1 n=c#5 v=78
103208 On ch=1 n=d#6 v=65
103212 On ch=1 n=c#7 v=0
103280 On ch=1 n=d#5 v=0
103284 On ch=1 n=c#5 v=0
103284 On ch=1 n=f#4 v=0
103328 On ch=1 n=e6 v=64
103340 On ch=1 n=d#6 v=0
103444 On ch=1 n=d#6 v=69
103456 On ch=1 n=e6 v=0
103568 On ch=1 n=c#7 v=78
103592 On ch=1 n=d#6 v=0
103624 On ch=1 n=c#4 v=69
103632 Par ch=1 c=64 v=127
103644 On ch=1 n=c#7 v=0
103664 On ch=1 n=g#4 v=79
103680 On ch=1 n=c#4 v=0
103684 On ch=1 n=c#6 v=78
103720 On ch=1 n=e5 v=67
103760 On ch=1 n=g#4 v=0
103772 On ch=1 n=e5 v=0
103804 On ch=1 n=g#6 v=84
103828 On ch=1 n=c#6 v=0
103924 On ch=1 n=e7 v=76
103968 On ch=1 n=g#6 v=0
104000 Par ch=1 c=64 v=0
104036 On ch=1 n=e7 v=0
104036 On ch=1 n=g#3 v=76
104044 On ch=1 n=a6 v=72
104092 On ch=1 n=f#4 v=78
104108 On ch=1 n=g#3 v=0
104116 Par ch=1 c=64 v=127
104136 On ch=1 n=a6 v=0
104164 On ch=1 n=c6 v=68
104188 On ch=1 n=f#4 v=0
104188 On ch=1 n=c5 v=85
104248 On ch=1 n=c5 v=0
104284 On ch=1 n=f#6 v=71
104300 On ch=1 n=c6 v=0
104404 On ch=1 n=d#7 v=81
104460 Par ch=1 c=64 v=0
104496 On ch=1 n=f#6 v=0
104520 On ch=1 n=d#7 v=0
104524 On ch=1 n=g#6 v=79
104580 On ch=1 n=g#6 v=0
104604 Par ch=1 c=64 v=127
104636 On ch=1 n=c#4 v=53
104636 On ch=1 n=c#5 v=75
104636 On ch=1 n=e4 v=86
104644 On ch=1 n=g#5 v=66
104720 On ch=1 n=c#4 v=0
104724 On ch=1 n=e4 v=0
104732 On ch=1 n=c#5 v=0
104756 On ch=1 n=g#5 v=0
104764 On ch=1 n=e6 v=75
104884 On ch=1 n=c#7 v=75
104956 Par ch=1 c=64 v=0
104972 On ch=1 n=e6 v=0
104996 On ch=1 n=f#6 v=75
105004 On ch=1 n=c#7 v=0
105068 On ch=1 n=f#6 v=0
105104 Par ch=1 c=64 v=127
105116 On ch=1 n=g#5 v=81
105124 On ch=1 n=g#3 v=90
105124 On ch=1 n=g#4 v=95
105164 On ch=1 n=g#4 v=0
105168 On ch=1 n=g#3 v=0
105216 On ch=1 n=g#5 v=0
105236 On ch=1 n=d#6 v=73
105356 On ch=1 n=c7 v=79
105388 On ch=1 n=d#6 v=0
105424 On ch=1 n=c7 v=0
105448 Par ch=1 c=64 v=0
105476 On ch=1 n=e6 v=68
105512 On ch=1 n=e6 v=0
105604 On ch=1 n=c#6 v=88
105604 On ch=1 n=c#7 v=92
105604 On ch=1 n=c#3 v=86
105604 On ch=1 n=c#4 v=92
105656 On ch=1 n=c#3 v=0
105660 On ch=1 n=c#4 v=0
105700 On ch=1 n=c#7 v=0
105704 On ch=1 n=c#6 v=0
105844 On ch=1 n=a5 v=77
105848 On ch=1 n=a4 v=90
105848 On ch=1 n=a3 v=97
105888 On ch=1 n=a4 v=0
105892 On ch=1 n=a3 v=0
105960 On ch=1 n=a6 v=82
105972 On ch=1 n=a5 v=0
106016 On ch=1 n=a6 v=0
106084 On ch=1 n=g#5 v=81
106084 On ch=1 n=g#4 v=88
106084 On ch=1 n=g#3 v=92
106120 On ch=1 n=g#3 v=0
106120 On ch=1 n=g#4 v=0
106204 On ch=1 n=g#6 v=83
106236 On ch=1 n=g#5 v=0
106260 On ch=1 n=g#6 v=0
106324 On ch=1 n=g5 v=79
106324 On ch=1 n=g4 v=97
106324 On ch=1 n=g3 v=97
106360 On ch=1 n=g3 v=0
106360 On ch=1 n=g4 v=0
106440 On ch=1 n=g6 v=80
106460 On ch=1 n=g5 v=0
106488 On ch=1 n=g6 v=0
106564 On ch=1 n=g#5 v=81
106564 On ch=1 n=g#4 v=93
106564 On ch=1 n=g#3 v=93
106588 On ch=1 n=g#3 v=0
106596 On ch=1 n=g#4 v=0
106676 On ch=1 n=g#6 v=79
106724 On ch=1 n=g#5 v=0
106732 On ch=1 n=g#6 v=0
106804 On ch=1 n=c#5 v=83
106808 On ch=1 n=c#3 v=95
106808 On ch=1 n=c#4 v=101
106836 On ch=1 n=c#4 v=0
106840 On ch=1 n=c#3 v=0
106924 On ch=1 n=c#6 v=82
106952 On ch=1 n=c#5 v=0
106980 On ch=1 n=c#6 v=0
107040 Par ch=1 c=64 v=127
107044 On ch=1 n=d#3 v=93
107044 On ch=1 n=d#4 v=97
107048 On ch=1 n=d#6 v=79
107048 On ch=1 n=c#5 v=82
107048 On ch=1 n=a#5 v=92
107048 On ch=1 n=d#5 v=82
107048 On ch=1 n=g5 v=93
107156 On ch=1 n=d#4 v=0
107164 On ch=1 n=c#4 v=77
107188 On ch=1 n=d#3 v=0
107264 On ch=1 n=c#4 v=0
107284 On ch=1 n=b3 v=80
107376 On ch=1 n=d#5 v=0
107388 On ch=1 n=a#5 v=0
107388 On ch=1 n=c#5 v=0
107392 On ch=1 n=g5 v=0
107392 On ch=1 n=d#6 v=0
107396 On ch=1 n=b3 v=0
107404 On ch=1 n=a#3 v=73
107508 On ch=1 n=a#3 v=0
107516 Par ch=1 c=64 v=0
107524 On ch=1 n=g#5 v=59
107524 On ch=1 n=d#5 v=57
107524 On ch=1 n=b4 v=52
107524 On ch=1 n=b5 v=56
107524 On ch=1 n=g#3 v=69
107596 On ch=1 n=d#5 v=0
107600 On ch=1 n=b5 v=0
107604 On ch=1 n=g#5 v=0
107620 On ch=1 n=b4 v=0
107632 On ch=1 n=g#3 v=0
107644 On ch=1 n=a#3 v=65
107732 On ch=1 n=a#3 v=0
107764 On ch=1 n=g3 v=65
107884 On ch=1 n=g#3 v=66
107900 On ch=1 n=g3 v=0
108004 On ch=1 n=g#3 v=0
108004 On ch=1 n=g5 v=59
108004 On ch=1 n=d#5 v=59
108004 On ch=1 n=c#5 v=52
108004 On ch=1 n=a#3 v=64
108080 On ch=1 n=c#5 v=0
108084 On ch=1 n=d#5 v=0
108096 On ch=1 n=a#3 v=0
108096 On ch=1 n=g5 v=0
108124 On ch=1 n=b3 v=63
108228 On ch=1 n=b3 v=0
108244 On ch=1 n=g#3 v=64
108364 On ch=1 n=a#3 v=65
108376 On ch=1 n=g#3 v=0
108476 On ch=1 n=a#3 v=0
108484 On ch=1 n=b4 v=52
108484 On ch=1 n=g#5 v=58
108484 On ch=1 n=d#5 v=62
108484 On ch=1 n=b3 v=66
108540 On ch=1 n=d#5 v=0
108572 On ch=1 n=b3 v=0
108572 On ch=1 n=g#5 v=0
108584 On ch=1 n=b4 v=0
108600 On ch=1 n=c#4 v=63
108716 On ch=1 n=a#3 v=63
108720 On ch=1 n=c#4 v=0
108840 On ch=1 n=a#3 v=0
108844 On ch=1 n=b3 v=62
108948 On ch=1 n=b3 v=0
108956 On ch=1 n=e5 v=67
108956 On ch=1 n=g#5 v=64
108956 On ch=1 n=c#5 v=62
108964 On ch=1 n=c#4 v=64
109032 On ch=1 n=e5 v=0
109040 On ch=1 n=c#5 v=0
109048 On ch=1 n=g#5 v=0
109072 On ch=1 n=c#4 v=0
109084 On ch=1 n=d#4 v=64
109180 On ch=1 n=d#4 v=0
109204 On ch=1 n=b3 v=64
109324 On ch=1 n=c#4 v=62
109332 On ch=1 n=b3 v=0
109436 On ch=1 n=c#4 v=0
109436 On ch=1 n=d#5 v=67
109436 On ch=1 n=b4 v=54
109436 On ch=1 n=g#5 v=63
109444 On ch=1 n=d#4 v=61
109508 On ch=1 n=b4 v=0
109516 On ch=1 n=d#5 v=0
109524 On ch=1 n=g#5 v=0
109544 On ch=1 n=d#4 v=0
109556 On ch=1 n=e4 v=58
109676 On ch=1 n=e4 v=0
109680 On ch=1 n=d#4 v=59
109792 On ch=1 n=d#4 v=0
109804 On ch=1 n=g#4 v=64
109916 On ch=1 n=g#4 v=0
109916 On ch=1 n=g#5 v=60
109916 On ch=1 n=c#5 v=55
109916 On ch=1 n=e5 v=64
109924 On ch=1 n=c#4 v=63
109980 On ch=1 n=c#5 v=0
109988 On ch=1 n=e5 v=0
110008 On ch=1 n=g#5 v=0
110040 On ch=1 n=c#4 v=0
110040 On ch=1 n=d#4 v=67
110132 On ch=1 n=d#4 v=0
110152 On ch=1 n=c#4 v=64
110260 On ch=1 n=c#4 v=0
110272 On ch=1 n=g#4 v=66
110392 On ch=1 n=g#4 v=0
110396 On ch=1 n=g#5 v=66
110396 On ch=1 n=d#5 v=55
110396 On ch=1 n=b3 v=66
110456 On ch=1 n=d#5 v=0
110476 On ch=1 n=g#5 v=0
110500 On ch=1 n=b3 v=0
110516 On ch=1 n=c#4 v=64
110628 On ch=1 n=c#4 v=0
110640 On ch=1 n=b3 v=66
110728 On ch=1 n=b3 v=0
110764 On ch=1 n=g#4 v=62
110860 On ch=1 n=g#4 v=0
110872 On ch=1 n=a#5 v=60
110872 On ch=1 n=d#5 v=70
110872 On ch=1 n=c#5 v=60
110876 On ch=1 n=a#3 v=62
110952 On ch=1 n=c#5 v=0
110952 On ch=1 n=d#5 v=0
110960 On ch=1 n=a#5 v=0
110992 On ch=1 n=b3 v=64
111000 On ch=1 n=a#3 v=0
111120 On ch=1 n=a#3 v=73
111128 On ch=1 n=b3 v=0
111236 On ch=1 n=a#3 v=0
111236 On ch=1 n=g4 v=68
111356 On ch=1 n=d#5 v=71
111356 On ch=1 n=g#5 v=70
111356 On ch=1 n=b5 v=58
111356 On ch=1 n=b4 v=47
111360 On ch=1 n=g4 v=0
111364 On ch=1 n=g#3 v=79
111436 On ch=1 n=g#5 v=0
111436 On ch=1 n=d#5 v=0
111444 On ch=1 n=b5 v=0
111460 On ch=1 n=b4 v=0
111484 On ch=1 n=e4 v=77
111504 On ch=1 n=g#3 v=0
111600 On ch=1 n=b4 v=69
111688 On ch=1 n=e4 v=0
111724 On ch=1 n=d#4 v=73
111744 On ch=1 n=b4 v=0
111792 Par ch=1 c=64 v=127
111820 On ch=1 n=d#4 v=0
111844 On ch=1 n=d#6 v=72
111844 On ch=1 n=a#6 v=81
111844 On ch=1 n=d#7 v=61
111844 On ch=1 n=g3 v=74
111964 On ch=1 n=g3 v=0
111964 On ch=1 n=e4 v=70
112084 On ch=1 n=a#4 v=69
112152 On ch=1 n=a#4 v=0
112180 On ch=1 n=e4 v=0
112204 On ch=1 n=d#4 v=67
112276 Par ch=1 c=64 v=0
112320 On ch=1 n=g#6 v=80
112324 On ch=1 n=b6 v=76
112324 On ch=1 n=g#3 v=78
112328 On ch=1 n=d#4 v=0
112348 On ch=1 n=d#7 v=0
112368 On ch=1 n=a#6 v=0
112416 On ch=1 n=d#6 v=0
112428 On ch=1 n=b6 v=0
112428 On ch=1 n=g#6 v=0
112444 On ch=1 n=e4 v=75
112456 On ch=1 n=g#3 v=0
112564 On ch=1 n=b4 v=81
112636 On ch=1 n=e4 v=0
112676 On ch=1 n=d#4 v=74
112680 On ch=1 n=b4 v=0
112744 Par ch=1 c=64 v=127
112772 On ch=1 n=d#4 v=0
112796 On ch=1 n=a#5 v=79
112796 On ch=1 n=d#5 v=70
112796 On ch=1 n=d#6 v=61
112796 On ch=1 n=g3 v=86
112908 On ch=1 n=g3 v=0
112916 On ch=1 n=e4 v=78
113036 On ch=1 n=a#4 v=71
113108 On ch=1 n=e4 v=0
113156 On ch=1 n=d#4 v=78
113172 On ch=1 n=a#4 v=0
113220 Par ch=1 c=64 v=0
113232 On ch=1 n=d#4 v=0
113272 On ch=1 n=b5 v=71
113272 On ch=1 n=g#3 v=94
113276 On ch=1 n=g#5 v=70
113276 On ch=1 n=g#4 v=94
113320 On ch=1 n=g#3 v=0
113328 On ch=1 n=g#4 v=0
113328 On ch=1 n=a#5 v=0
113336 On ch=1 n=d#6 v=0
113352 On ch=1 n=g#5 v=0
113356 On ch=1 n=d#5 v=0
113376 On ch=1 n=b5 v=0
113520 On ch=1 n=c#5 v=50
113524 On ch=1 n=e5 v=71
113648 On ch=1 n=g5 v=61
113752 On ch=1 n=b4 v=55
113756 On ch=1 n=g5 v=0
113756 On ch=1 n=e5 v=0
113760 On ch=1 n=c#5 v=0
113768 On ch=1 n=d#5 v=73
113856 On ch=1 n=b4 v=0
113888 On ch=1 n=g#5 v=64
113956 On ch=1 n=d#5 v=0
113996 On ch=1 n=e5 v=53
114000 On ch=1 n=g#5 v=0
114008 On ch=1 n=g5 v=72
114128 On ch=1 n=a#5 v=57
114204 On ch=1 n=g5 v=0
114240 On ch=1 n=a#5 v=0
114248 On ch=1 n=f#5 v=70
114248 On ch=1 n=d#5 v=54
114264 On ch=1 n=e5 v=0
114352 On ch=1 n=d#5 v=0
114368 On ch=1 n=b5 v=63
114432 On ch=1 n=f#5 v=0
114484 On ch=1 n=b5 v=0
114484 On ch=1 n=f#5 v=51
114488 On ch=1 n=a5 v=73
114608 On ch=1 n=c6 v=58
114696 On ch=1 n=a5 v=0
114716 On ch=1 n=c6 v=0
114716 On ch=1 n=f#5 v=0
114724 On ch=1 n=e5 v=53
114728 On ch=1 n=g#5 v=73
114836 On ch=1 n=e5 v=0
114848 On ch=1 n=c#6 v=60
114932 On ch=1 n=g#5 v=0
114952 On ch=1 n=c#6 v=0
114956 On ch=1 n=d#5 v=54
114956 On ch=1 n=f#5 v=69
114960 On ch=1 n=g#4 v=53
114968 On ch=1 n=c6 v=56
115084 On ch=1 n=d#6 v=53
115164 On ch=1 n=c6 v=0
115192 On ch=1 n=d#6 v=0
115204 On ch=1 n=e5 v=67
115204 On ch=1 n=c#5 v=52
115208 On ch=1 n=c#6 v=66
115232 On ch=1 n=f#5 v=0
115256 On ch=1 n=g#4 v=0
115260 On ch=1 n=d#5 v=0
115300 On ch=1 n=c#5 v=0
115304 On ch=1 n=e5 v=0
115328 On ch=1 n=d#6 v=69
115336 On ch=1 n=c#6 v=0
115448 On ch=1 n=c6 v=57
115452 On ch=1 n=d#6 v=0
115568 On ch=1 n=c#6 v=54
115632 On ch=1 n=c6 v=0
115684 On ch=1 n=a5 v=68
115688 On ch=1 n=d#6 v=64
115688 On ch=1 n=f#5 v=73
115752 On ch=1 n=c#6 v=0
115764 On ch=1 n=a5 v=0
115768 On ch=1 n=f#5 v=0
115808 On ch=1 n=e6 v=66
115864 On ch=1 n=d#6 v=0
115928 On ch=1 n=c#6 v=57
115932 On ch=1 n=e6 v=0
116044 On ch=1 n=d#6 v=64
116108 On ch=1 n=c#6 v=0
116164 On ch=1 n=g#5 v=66
116164 On ch=1 n=e5 v=68
116168 On ch=1 n=e6 v=66
116216 On ch=1 n=d#6 v=0
116236 On ch=1 n=g#5 v=0
116240 On ch=1 n=e5 v=0
116284 On ch=1 n=f#6 v=61
116312 On ch=1 n=e6 v=0
116404 On ch=1 n=d#6 v=53
116436 On ch=1 n=f#6 v=0
116528 On ch=1 n=e6 v=59
116556 On ch=1 n=d#6 v=0
116644 On ch=1 n=f#5 v=69
116644 On ch=1 n=d#5 v=69
116648 On ch=1 n=f#6 v=66
116688 On ch=1 n=e6 v=0
116724 On ch=1 n=f#5 v=0
116728 On ch=1 n=d#5 v=0
116768 On ch=1 n=g#6 v=63
116832 On ch=1 n=f#6 v=0
116892 On ch=1 n=e6 v=56
116900 On ch=1 n=g#6 v=0
117008 On ch=1 n=f#6 v=67
117040 On ch=1 n=e6 v=0
117124 On ch=1 n=c#5 v=67
117124 On ch=1 n=e5 v=62
117128 On ch=1 n=g#6 v=58
117192 On ch=1 n=f#6 v=0
117204 On ch=1 n=e5 v=0
117208 On ch=1 n=c#5 v=0
117248 On ch=1 n=a6 v=58
117284 On ch=1 n=g#6 v=0
117368 On ch=1 n=g#6 v=61
117372 On ch=1 n=a6 v=0
117488 On ch=1 n=c#7 v=57
117504 On ch=1 n=g#6 v=0
117604 On ch=1 n=c#5 v=73
117604 On ch=1 n=f#5 v=73
117608 On ch=1 n=f#6 v=56
117608 On ch=1 n=a4 v=67
117616 On ch=1 n=c#7 v=0
117664 On ch=1 n=a4 v=0
117668 On ch=1 n=f#5 v=0
117672 On ch=1 n=c#5 v=0
117728 On ch=1 n=g#6 v=68
117732 On ch=1 n=f#6 v=0
117848 On ch=1 n=f#6 v=62
117852 On ch=1 n=g#6 v=0
117968 On ch=1 n=c#7 v=68
117992 On ch=1 n=f#6 v=0
118088 On ch=1 n=e6 v=63
118088 On ch=1 n=c#5 v=74
118088 On ch=1 n=e5 v=62
118088 On ch=1 n=g#4 v=74
118092 On ch=1 n=c#7 v=0
118156 On ch=1 n=e5 v=0
118156 On ch=1 n=c#5 v=0
118160 On ch=1 n=g#4 v=0
118208 On ch=1 n=f#6 v=69
118224 On ch=1 n=e6 v=0
118328 On ch=1 n=e6 v=65
118344 On ch=1 n=f#6 v=0
118448 On ch=1 n=c#7 v=65
118452 On ch=1 n=e6 v=0
118564 On ch=1 n=c#5 v=76
118564 On ch=1 n=f#4 v=70
118564 On ch=1 n=d#5 v=70
118568 On ch=1 n=d#6 v=62
118580 On ch=1 n=c#7 v=0
118616 On ch=1 n=d#5 v=0
118636 On ch=1 n=f#4 v=0
118640 On ch=1 n=c#5 v=0
118688 On ch=1 n=e6 v=68
118708 On ch=1 n=d#6 v=0
118808 On ch=1 n=d#6 v=71
118820 On ch=1 n=e6 v=0
118928 On ch=1 n=c#7 v=77
118972 On ch=1 n=d#6 v=0
118972 On ch=1 n=c#4 v=70
118976 Par ch=1 c=64 v=127
119004 On ch=1 n=c#7 v=0
119016 On ch=1 n=g#4 v=73
119032 On ch=1 n=c#4 v=0
119036 On ch=1 n=c#6 v=70
119064 On ch=1 n=e5 v=70
119112 On ch=1 n=e5 v=0
119124 On ch=1 n=g#4 v=0
119156 On ch=1 n=g#6 v=74
119164 On ch=1 n=c#6 v=0
119284 On ch=1 n=e7 v=75
119288 Par ch=1 c=64 v=0
119344 On ch=1 n=g#6 v=0
119388 On ch=1 n=e7 v=0
119396 On ch=1 n=g#3 v=70
119404 On ch=1 n=a6 v=75
119468 On ch=1 n=f#4 v=77
119480 On ch=1 n=g#3 v=0
119484 Par ch=1 c=64 v=127
119524 On ch=1 n=a6 v=0
119524 On ch=1 n=c6 v=79
119540 On ch=1 n=c5 v=81
119580 On ch=1 n=f#4 v=0
119616 On ch=1 n=c5 v=0
119644 On ch=1 n=f#6 v=79
119672 On ch=1 n=c6 v=0
119760 Par ch=1 c=64 v=0
119764 On ch=1 n=d#7 v=78
119840 On ch=1 n=f#6 v=0
119868 On ch=1 n=d#7 v=0
119868 On ch=1 n=a3 v=71
119884 On ch=1 n=g#6 v=81
119932 On ch=1 n=e4 v=81
119940 Par ch=1 c=64 v=127
119948 On ch=1 n=a3 v=0
119952 On ch=1 n=g#6 v=0
120004 On ch=1 n=a5 v=81
120012 On ch=1 n=c#5 v=79
120040 On ch=1 n=e4 v=0
120060 On ch=1 n=c#5 v=0
120124 On ch=1 n=a5 v=0
120124 On ch=1 n=d#6 v=86
120184 Par ch=1 c=64 v=0
120244 On ch=1 n=c#7 v=88
120344 On ch=1 n=c#7 v=0
120364 On ch=1 n=e6 v=88
120392 Par ch=1 c=64 v=127
120400 On ch=1 n=d#6 v=0
120432 On ch=1 n=e6 v=0
120484 On ch=1 n=g#5 v=92
120484 On ch=1 n=f4 v=71
120484 On ch=1 n=f5 v=76
120488 On ch=1 n=d5 v=85
120488 On ch=1 n=b4 v=84
120604 On ch=1 n=c#6 v=93
120636 On ch=1 n=g#5 v=0
120724 On ch=1 n=b6 v=94
120748 Par ch=1 c=64 v=0
120752 On ch=1 n=c#6 v=0
120796 On ch=1 n=d5 v=0
120800 On ch=1 n=b4 v=0
120804 On ch=1 n=f5 v=0
120812 On ch=1 n=f4 v=0
120844 On ch=1 n=d6 v=95
120860 On ch=1 n=b6 v=0
120928 On ch=1 n=d6 v=0
120940 Par ch=1 c=64 v=127
120960 On ch=1 n=f#4 v=95
120960 On ch=1 n=a4 v=95
120960 On ch=1 n=c#5 v=95
120960 On ch=1 n=f#5 v=95
120984 On ch=1 n=a5 v=98
121024 On ch=1 n=f#5 v=0
121024 On ch=1 n=a4 v=0
121028 On ch=1 n=c#5 v=0
121028 On ch=1 n=f#4 v=0
121096 On ch=1 n=c#6 v=96
121132 On ch=1 n=a5 v=0
121200 Par ch=1 c=64 v=0
121212 On ch=1 n=d4 v=97
121212 On ch=1 n=d5 v=97
121216 On ch=1 n=a6 v=88
121240 On ch=1 n=c#6 v=0
121264 On ch=1 n=d5 v=0
121272 On ch=1 n=d4 v=0
121332 On ch=1 n=f#6 v=89
121340 On ch=1 n=a6 v=0
121400 On ch=1 n=f#6 v=0
121420 Par ch=1 c=64 v=127
121444 On ch=1 n=a6 v=94
121448 On ch=1 n=c#4 v=98
121448 On ch=1 n=c#5 v=98
121480 On ch=1 n=c#5 v=0
121500 On ch=1 n=c#4 v=0
121568 On ch=1 n=c#7 v=91
121592 On ch=1 n=c#7 v=0
121632 On ch=1 n=a6 v=0
121684 On ch=1 n=a3 v=102
121684 On ch=1 n=a4 v=102
121696 On ch=1 n=a7 v=94
121728 On ch=1 n=a4 v=0
121736 On ch=1 n=a3 v=0
121816 On ch=1 n=f#7 v=89
121844 On ch=1 n=a7 v=0
121924 On ch=1 n=f#3 v=103
121924 On ch=1 n=f#4 v=103
121932 On ch=1 n=c#7 v=89
121956 On ch=1 n=f#4 v=0
121968 On ch=1 n=f#7 v=0
121972 On ch=1 n=f#3 v=0
122020 Par ch=1 c=64 v=0
122056 On ch=1 n=a6 v=91
122060 On ch=1 n=c#7 v=0
122124 On ch=1 n=a6 v=0
122164 On ch=1 n=c#4 v=102
122164 On ch=1 n=c#3 v=102
122176 On ch=1 n=f#6 v=91
122208 On ch=1 n=c#4 v=0
122220 On ch=1 n=c#3 v=0
122300 On ch=1 n=c#6 v=92
122304 On ch=1 n=f#6 v=0
122404 On ch=1 n=d3 v=106
122404 On ch=1 n=d4 v=106
122424 On ch=1 n=c#6 v=0
122428 On ch=1 n=a5 v=93
122520 On ch=1 n=a5 v=0
122552 On ch=1 n=f#5 v=97
122664 On ch=1 n=f#5 v=0
122672 On ch=1 n=d5 v=91
122764 On ch=1 n=d4 v=0
122768 On ch=1 n=d3 v=0
122772 On ch=1 n=a4 v=91
122792 On ch=1 n=d5 v=0
122828 On ch=1 n=a4 v=0
122884 On ch=1 n=g#5 v=88
122884 On ch=1 n=b4 v=55
122884 On ch=1 n=d5 v=57
122888 On ch=1 n=f3 v=69
122912 Par ch=1 c=64 v=127
123004 On ch=1 n=f#3 v=66
123008 On ch=1 n=f3 v=0
123108 On ch=1 n=f#3 v=0
123124 On ch=1 n=e3 v=69
123244 On ch=1 n=f3 v=73
123264 On ch=1 n=e3 v=0
123304 Par ch=1 c=64 v=0
123364 On ch=1 n=f#5 v=78
123364 On ch=1 n=f#3 v=79
123376 On ch=1 n=f3 v=0
123384 On ch=1 n=g#5 v=0
123476 On ch=1 n=f#3 v=0
123484 On ch=1 n=g#3 v=65
123588 On ch=1 n=g#3 v=0
123604 On ch=1 n=f3 v=61
123720 On ch=1 n=f#3 v=69
123736 On ch=1 n=f3 v=0
123840 On ch=1 n=g#3 v=74
123844 On ch=1 n=f5 v=72
123856 On ch=1 n=f#3 v=0
123868 On ch=1 n=f#5 v=0
123960 On ch=1 n=g#3 v=0
123964 On ch=1 n=a3 v=70
124080 On ch=1 n=f#3 v=80
124092 On ch=1 n=a3 v=0
124196 On ch=1 n=g#3 v=74
124200 On ch=1 n=b4 v=0
124204 On ch=1 n=d5 v=0
124224 On ch=1 n=f#3 v=0
124272 On ch=1 n=f5 v=0
124316 On ch=1 n=d5 v=54
124316 On ch=1 n=a4 v=52
124316 On ch=1 n=f#5 v=78
124316 On ch=1 n=a3 v=74
124324 On ch=1 n=g#3 v=0
124436 On ch=1 n=b3 v=70
124440 On ch=1 n=a3 v=0
124556 On ch=1 n=b3 v=0
124556 On ch=1 n=a3 v=75
124668 On ch=1 n=a3 v=0
124676 On ch=1 n=b3 v=58
124724 On ch=1 n=a4 v=0
124728 On ch=1 n=f#5 v=0
124756 On ch=1 n=d5 v=0
124768 Par ch=1 c=64 v=127
124796 On ch=1 n=b4 v=55
124796 On ch=1 n=g#5 v=75
124796 On ch=1 n=d5 v=57
124804 On ch=1 n=b3 v=0
124804 On ch=1 n=f3 v=65
124920 On ch=1 n=f#3 v=71
124936 On ch=1 n=f3 v=0
125044 On ch=1 n=f#3 v=0
125044 On ch=1 n=e3 v=72
125156 On ch=1 n=f3 v=75
125196 On ch=1 n=e3 v=0
125228 Par ch=1 c=64 v=0
125276 On ch=1 n=f#5 v=76
125280 On ch=1 n=f#3 v=69
125300 On ch=1 n=f3 v=0
125308 On ch=1 n=g#5 v=0
125404 On ch=1 n=g#3 v=68
125428 On ch=1 n=f#3 v=0
125524 On ch=1 n=f3 v=69
125528 On ch=1 n=g#3 v=0
125644 On ch=1 n=f#3 v=76
125668 On ch=1 n=f3 v=0
125756 On ch=1 n=f5 v=72
125760 On ch=1 n=g#3 v=67
125784 On ch=1 n=f#3 v=0
125792 On ch=1 n=f#5 v=0
125876 On ch=1 n=g#3 v=0
125884 On ch=1 n=a3 v=66
125996 On ch=1 n=f#3 v=80
126008 On ch=1 n=d5 v=0
126012 On ch=1 n=a3 v=0
126036 On ch=1 n=b4 v=0
126116 On ch=1 n=g#3 v=68
126152 On ch=1 n=f#3 v=0
126212 On ch=1 n=f5 v=0
126236 On ch=1 n=f#5 v=74
126236 On ch=1 n=c#5 v=56
126236 On ch=1 n=a3 v=76
126256 On ch=1 n=g#3 v=0
126356 On ch=1 n=a3 v=0
126356 On ch=1 n=b3 v=68
126476 On ch=1 n=a3 v=66
126496 On ch=1 n=b3 v=0
126516 On ch=1 n=c#5 v=0
126520 On ch=1 n=f#5 v=0
126596 On ch=1 n=b3 v=73
126640 On ch=1 n=a3 v=0
126688 Par ch=1 c=64 v=127
126716 On ch=1 n=c4 v=68
126724 On ch=1 n=a5 v=52
126724 On ch=1 n=f#5 v=54
126724 On ch=1 n=d#6 v=84
126752 On ch=1 n=b3 v=0
126836 On ch=1 n=c#4 v=72
126840 On ch=1 n=c4 v=0
126956 On ch=1 n=b3 v=63
126960 On ch=1 n=c#4 v=0
127076 On ch=1 n=c4 v=70
127116 On ch=1 n=b3 v=0
127156 Par ch=1 c=64 v=0
127184 On ch=1 n=d#6 v=0
127196 On ch=1 n=c#6 v=74
127196 On ch=1 n=c#4 v=67
127216 On ch=1 n=c4 v=0
127316 On ch=1 n=d#4 v=60
127332 On ch=1 n=c#4 v=0
127436 On ch=1 n=c4 v=65
127444 On ch=1 n=d#4 v=0
127556 On ch=1 n=c#4 v=69
127596 On ch=1 n=c4 v=0
127600 On ch=1 n=a5 v=0
127672 On ch=1 n=d#4 v=68
127676 On ch=1 n=c6 v=75
127692 On ch=1 n=c#6 v=0
127708 On ch=1 n=c#4 v=0
127796 On ch=1 n=e4 v=65
127804 On ch=1 n=d#4 v=0
127900 On ch=1 n=f#5 v=0
127916 On ch=1 n=c#4 v=62
127932 On ch=1 n=e4 v=0
128032 On ch=1 n=d#4 v=67
128128 On ch=1 n=c#4 v=0
128132 On ch=1 n=c6 v=0
128152 On ch=1 n=e4 v=72
128156 On ch=1 n=e5 v=53
128156 On ch=1 n=c#6 v=73
128156 On ch=1 n=a5 v=57
128196 On ch=1 n=d#4 v=0
128260 On ch=1 n=e4 v=0
128272 On ch=1 n=f#4 v=67
128392 On ch=1 n=e4 v=68
128404 On ch=1 n=f#4 v=0
128516 On ch=1 n=f#4 v=72
128576 On ch=1 n=e4 v=0
128584 On ch=1 n=c#6 v=0
128596 On ch=1 n=e5 v=0
128600 On ch=1 n=a5 v=0
128620 Par ch=1 c=64 v=127
128640 On ch=1 n=f#4 v=0
128640 On ch=1 n=c4 v=78
128644 On ch=1 n=d#6 v=77
128644 On ch=1 n=f#5 v=64
128644 On ch=1 n=a5 v=70
128760 On ch=1 n=c#4 v=75
128784 On ch=1 n=c4 v=0
128884 On ch=1 n=b3 v=72
128916 On ch=1 n=c#4 v=0
129004 On ch=1 n=c4 v=76
129036 On ch=1 n=b3 v=0
129064 Par ch=1 c=64 v=0
129120 On ch=1 n=c#6 v=62
129124 On ch=1 n=c#4 v=67
129152 On ch=1 n=d#6 v=0
129156 On ch=1 n=c4 v=0
129244 On ch=1 n=d#4 v=72
129280 On ch=1 n=c#4 v=0
129364 On ch=1 n=c4 v=72
129388 On ch=1 n=d#4 v=0
129484 On ch=1 n=c#4 v=77
129536 On ch=1 n=c4 v=0
129540 Par ch=1 c=64 v=127
129596 On ch=1 n=c6 v=72
129604 On ch=1 n=d#4 v=75
129636 On ch=1 n=c#6 v=0
129640 On ch=1 n=c#4 v=0
129724 On ch=1 n=e4 v=73
129752 On ch=1 n=d#4 v=0
129840 On ch=1 n=f#5 v=0
129844 On ch=1 n=e4 v=0
129844 On ch=1 n=c#4 v=71
129864 On ch=1 n=a5 v=0
129964 On ch=1 n=d#4 v=72
130008 On ch=1 n=c#4 v=0
130032 Par ch=1 c=64 v=0
130076 On ch=1 n=c#6 v=71
130080 On ch=1 n=g#5 v=61
130080 On ch=1 n=f4 v=82
130084 On ch=1 n=c#5 v=61
130084 On ch=1 n=b5 v=61
130096 On ch=1 n=c6 v=0
130108 On ch=1 n=d#4 v=0
130204 On ch=1 n=f#4 v=72
130216 On ch=1 n=f4 v=0
130316 On ch=1 n=e4 v=74
130356 On ch=1 n=g#5 v=0
130364 On ch=1 n=b5 v=0
130364 On ch=1 n=c#5 v=0
130372 On ch=1 n=f#4 v=0
130436 On ch=1 n=f4 v=75
130444 On ch=1 n=c#6 v=0
130468 On ch=1 n=e4 v=0
130492 Par ch=1 c=64 v=127
130560 On ch=1 n=f#4 v=75
130564 On ch=1 n=c#6 v=74
130564 On ch=1 n=c#5 v=64
130564 On ch=1 n=f#5 v=64
130564 On ch=1 n=a5 v=64
130580 On ch=1 n=f4 v=0
130680 On ch=1 n=g#4 v=77
130720 On ch=1 n=f#4 v=0
130760 On ch=1 n=f#5 v=0
130764 On ch=1 n=a5 v=0
130776 On ch=1 n=c#5 v=0
130788 On ch=1 n=c#6 v=0
130804 On ch=1 n=f4 v=73
130824 On ch=1 n=g#4 v=0
130924 On ch=1 n=f#4 v=80
130944 On ch=1 n=f4 v=0
130984 Par ch=1 c=64 v=0
131040 On ch=1 n=g#4 v=77
131044 On ch=1 n=c#6 v=73
131044 On ch=1 n=f5 v=63
131044 On ch=1 n=b5 v=63
131084 On ch=1 n=f#4 v=0
131164 On ch=1 n=a4 v=77
131200 On ch=1 n=g#4 v=0
131220 On ch=1 n=b5 v=0
131236 On ch=1 n=c#6 v=0
131244 On ch=1 n=f5 v=0
131276 On ch=1 n=a4 v=0
131288 On ch=1 n=f#4 v=73
131404 On ch=1 n=g#4 v=78
131440 Par ch=1 c=64 v=127
131508 On ch=1 n=f#4 v=0
131524 On ch=1 n=c#6 v=78
131524 On ch=1 n=a5 v=68
131524 On ch=1 n=f#5 v=68
131524 On ch=1 n=a4 v=71
131556 On ch=1 n=g#4 v=0
131644 On ch=1 n=b4 v=72
131652 On ch=1 n=a4 v=0
131688 On ch=1 n=f#5 v=0
131720 On ch=1 n=a5 v=0
131736 On ch=1 n=c#6 v=0
131764 On ch=1 n=b4 v=0
131764 On ch=1 n=g#4 v=77
131884 On ch=1 n=a4 v=79
131916 On ch=1 n=g#4 v=0
131932 Par ch=1 c=64 v=0
132004 On ch=1 n=d#6 v=78
132004 On ch=1 n=f#5 v=68
132004 On ch=1 n=a5 v=68
132004 On ch=1 n=c5 v=72
132012 On ch=1 n=a4 v=0
132124 On ch=1 n=c#5 v=78
132140 On ch=1 n=c5 v=0
132176 On ch=1 n=a5 v=0
132216 On ch=1 n=f#5 v=0
132216 On ch=1 n=d#6 v=0
132244 On ch=1 n=b4 v=69
132272 On ch=1 n=c#5 v=0
132356 On ch=1 n=c5 v=70
132372 On ch=1 n=b4 v=0
132380 Par ch=1 c=64 v=127
132464 On ch=1 n=c5 v=0
132476 On ch=1 n=c#5 v=78
132484 On ch=1 n=e6 v=86
132484 On ch=1 n=g#5 v=76
132484 On ch=1 n=e5 v=76
132596 On ch=1 n=d#5 v=77
132616 On ch=1 n=c#5 v=0
132660 On ch=1 n=g#5 v=0
132684 On ch=1 n=e5 v=0
132692 On ch=1 n=e6 v=0
132716 On ch=1 n=c5 v=73
132724 On ch=1 n=d#5 v=0
132832 On ch=1 n=c#5 v=76
132856 On ch=1 n=c5 v=0
132952 On ch=1 n=d#5 v=78
132964 On ch=1 n=f#6 v=91
132964 On ch=1 n=c6 v=81
132964 On ch=1 n=g#5 v=81
132988 On ch=1 n=c#5 v=0
133076 On ch=1 n=e5 v=78
133112 On ch=1 n=d#5 v=0
133136 On ch=1 n=c6 v=0
133140 On ch=1 n=g#5 v=0
133164 On ch=1 n=f#6 v=0
133196 On ch=1 n=c#5 v=74
133204 On ch=1 n=e5 v=0
133316 On ch=1 n=d#5 v=75
133352 Par ch=1 c=64 v=0
133384 On ch=1 n=c#5 v=0
133408 Par ch=1 c=64 v=127
133436 On ch=1 n=e5 v=76
133444 On ch=1 n=g#6 v=95
133444 On ch=1 n=g#5 v=85
133444 On ch=1 n=c#6 v=85
133452 On ch=1 n=d#5 v=0
133556 On ch=1 n=f#5 v=76
133580 On ch=1 n=e5 v=0
133604 On ch=1 n=c#6 v=0
133608 On ch=1 n=g#5 v=0
133620 On ch=1 n=g#6 v=0
133676 On ch=1 n=d#5 v=76
133692 On ch=1 n=f#5 v=0
133796 On ch=1 n=e5 v=75
133808 On ch=1 n=d#5 v=0
133812 Par ch=1 c=64 v=0
133860 Par ch=1 c=64 v=127
133916 On ch=1 n=f#5 v=75
133924 On ch=1 n=a6 v=96
133924 On ch=1 n=c#6 v=86
133924 On ch=1 n=d#6 v=86
133932 On ch=1 n=e5 v=0
134036 On ch=1 n=g#5 v=74
134080 On ch=1 n=d#6 v=0
134092 On ch=1 n=f#5 v=0
134096 On ch=1 n=c#6 v=0
134096 On ch=1 n=a6 v=0
134156 On ch=1 n=e5 v=75
134164 On ch=1 n=g#5 v=0
134280 On ch=1 n=f#5 v=77
134300 On ch=1 n=e5 v=0
134300 Par ch=1 c=64 v=0
134372 Par ch=1 c=64 v=127
134400 On ch=1 n=g#5 v=79
134404 On ch=1 n=g#6 v=96
134404 On ch=1 n=e6 v=76
134404 On ch=1 n=c#6 v=80
134436 On ch=1 n=f#5 v=0
134516 On ch=1 n=a5 v=81
134540 On ch=1 n=g#5 v=0
134636 On ch=1 n=g#5 v=81
134656 On ch=1 n=a5 v=0
134760 On ch=1 n=f#5 v=79
134784 On ch=1 n=g#5 v=0
134804 Par ch=1 c=64 v=0
134876 On ch=1 n=f#5 v=0
134884 On ch=1 n=e5 v=80
134996 On ch=1 n=d#5 v=80
135008 On ch=1 n=e5 v=0
135116 On ch=1 n=c#5 v=81
135132 On ch=1 n=d#5 v=0
135208 On ch=1 n=c#6 v=0
135208 On ch=1 n=e6 v=0
135208 On ch=1 n=g#6 v=0
135236 On ch=1 n=b4 v=81
135264 On ch=1 n=c#5 v=0
135308 Par ch=1 c=64 v=127
135356 On ch=1 n=a4 v=82
135364 On ch=1 n=b4 v=0
135364 On ch=1 n=c#7 v=96
135364 On ch=1 n=g#6 v=86
135364 On ch=1 n=e6 v=86
135364 On ch=1 n=c#6 v=96
135480 On ch=1 n=g#4 v=84
135500 On ch=1 n=a4 v=0
135512 On ch=1 n=e6 v=0
135516 On ch=1 n=c#6 v=0
135528 On ch=1 n=g#6 v=0
135552 On ch=1 n=c#7 v=0
135604 On ch=1 n=f#4 v=85
135624 On ch=1 n=g#4 v=0
135724 On ch=1 n=e4 v=85
135724 Par ch=1 c=64 v=0
135728 On ch=1 n=f#4 v=0
135796 Par ch=1 c=64 v=127
135844 On ch=1 n=e7 v=100
135844 On ch=1 n=c#7 v=88
135844 On ch=1 n=g#6 v=91
135844 On ch=1 n=e6 v=98
135844 On ch=1 n=d#4 v=85
135864 On ch=1 n=e4 v=0
135964 On ch=1 n=c#4 v=88
135968 On ch=1 n=d#4 v=0
136028 On ch=1 n=g#6 v=0
136040 On ch=1 n=e6 v=0
136056 On ch=1 n=c#7 v=0
136064 On ch=1 n=e7 v=0
136084 On ch=1 n=b3 v=88
136104 On ch=1 n=c#4 v=0
136192 Par ch=1 c=64 v=0
136204 On ch=1 n=a3 v=89
136208 On ch=1 n=b3 v=0
136272 Par ch=1 c=64 v=127
136324 On ch=1 n=g#7 v=88
136324 On ch=1 n=e7 v=98
136324 On ch=1 n=g#6 v=95
136324 On ch=1 n=c#7 v=91
136324 On ch=1 n=g#3 v=89
136356 On ch=1 n=a3 v=0
136444 On ch=1 n=f#3 v=89
136468 On ch=1 n=g#3 v=0
136472 On ch=1 n=g#6 v=0
136488 On ch=1 n=c#7 v=0
136520 On ch=1 n=e7 v=0
136520 On ch=1 n=g#7 v=0
136564 On ch=1 n=e3 v=93
136572 On ch=1 n=f#3 v=0
136660 Par ch=1 c=64 v=0
136684 On ch=1 n=d#3 v=94
136696 On ch=1 n=e3 v=0
136744 Par ch=1 c=64 v=127
136796 On ch=1 n=c#8 v=98
136796 On ch=1 n=g#7 v=98
136796 On ch=1 n=c#7 v=98
136796 On ch=1 n=e7 v=98
136804 On ch=1 n=c#3 v=94
136840 On ch=1 n=d#3 v=0
136924 On ch=1 n=b2 v=95
136944 On ch=1 n=c#3 v=0
136944 On ch=1 n=e7 v=0
136992 On ch=1 n=c#7 v=0
136996 On ch=1 n=g#7 v=0
137008 On ch=1 n=c#8 v=0
137044 On ch=1 n=a2 v=96
137052 On ch=1 n=b2 v=0
137120 Par ch=1 c=64 v=0
137156 On ch=1 n=g#2 v=96
137168 On ch=1 n=a2 v=0
137204 Par ch=1 c=64 v=127
137272 On ch=1 n=g#2 v=0
137276 On ch=1 n=a7 v=99
137276 On ch=1 n=a6 v=98
137276 On ch=1 n=d#7 v=93
137276 On ch=1 n=c#7 v=88
137284 On ch=1 n=f#3 v=97
137284 On ch=1 n=f#2 v=97
137408 On ch=1 n=d#7 v=0
137412 On ch=1 n=a7 v=0
137416 On ch=1 n=c#7 v=0
137416 On ch=1 n=a6 v=0
137424 On ch=1 n=f#3 v=0
137432 On ch=1 n=f#2 v=0
137616 Par ch=1 c=64 v=0
137680 Par ch=1 c=64 v=127
137756 On ch=1 n=g#5 v=93
137756 On ch=1 n=c5 v=103
137756 On ch=1 n=c6 v=103
137756 On ch=1 n=f#5 v=90
137760 On ch=1 n=g#2 v=100
137764 On ch=1 n=g#3 v=101
137892 On ch=1 n=g#3 v=0
137892 On ch=1 n=g#2 v=0
137932 On ch=1 n=f#5 v=0
137944 On ch=1 n=c6 v=0
137948 On ch=1 n=c5 v=0
137948 On ch=1 n=g#5 v=0
138236 On ch=1 n=c#5 v=104
138236 On ch=1 n=c#6 v=106
138240 On ch=1 n=e5 v=93
138240 On ch=1 n=g#5 v=96
138244 On ch=1 n=c#3 v=98
138244 On ch=1 n=c#2 v=98
138272 Par ch=1 c=64 v=0
138276 Par ch=1 c=64 v=127
138384 On ch=1 n=c#2 v=0
138388 On ch=1 n=c#3 v=0
138428 On ch=1 n=e5 v=0
138436 On ch=1 n=g#5 v=0
138436 On ch=1 n=c#5 v=0
138444 On ch=1 n=c#6 v=0
138652 Par ch=1 c=64 v=0
138700 On ch=1 n=g#4 v=101
138704 On ch=1 n=g#3 v=101
138724 On ch=1 n=g#6 v=83
138724 Par ch=1 c=64 v=127
138748 On ch=1 n=g#4 v=0
138760 On ch=1 n=g#3 v=0
138844 On ch=1 n=a6 v=73
138848 On ch=1 n=g#6 v=0
138960 On ch=1 n=a6 v=0
138960 On ch=1 n=g#6 v=73
138964 On ch=1 n=c#3 v=90
139000 On ch=1 n=c#3 v=0
139076 On ch=1 n=e7 v=80
139084 On ch=1 n=g#6 v=0
139100 Par ch=1 c=64 v=0
139136 On ch=1 n=e7 v=0
139156 Par ch=1 c=64 v=127
139196 On ch=1 n=g6 v=75
139196 On ch=1 n=a#3 v=103
139196 On ch=1 n=a#4 v=103
139224 On ch=1 n=a#4 v=0
139228 On ch=1 n=a#3 v=0
139316 On ch=1 n=g6 v=0
139316 On ch=1 n=g#6 v=76
139436 On ch=1 n=g6 v=72
139440 On ch=1 n=c#3 v=92
139456 On ch=1 n=g#6 v=0
139468 On ch=1 n=c#3 v=0
139552 Par ch=1 c=64 v=0
139556 On ch=1 n=e7 v=76
139568 On ch=1 n=g6 v=0
139600 On ch=1 n=e7 v=0
139636 Par ch=1 c=64 v=127
139676 On ch=1 n=a4 v=104
139676 On ch=1 n=a3 v=104
139680 On ch=1 n=f#6 v=70
139704 On ch=1 n=a4 v=0
139712 On ch=1 n=a3 v=0
139800 On ch=1 n=g#6 v=76
139812 On ch=1 n=f#6 v=0
139912 On ch=1 n=c#3 v=93
139924 On ch=1 n=f#6 v=72
139944 On ch=1 n=c#3 v=0
139944 On ch=1 n=g#6 v=0
140036 Par ch=1 c=64 v=0
140040 On ch=1 n=d#7 v=79
140044 On ch=1 n=f#6 v=0
140096 On ch=1 n=d#7 v=0
140128 Par ch=1 c=64 v=127
140152 On ch=1 n=g#3 v=107
140156 On ch=1 n=g#4 v=107
140164 On ch=1 n=f6 v=71
140184 On ch=1 n=g#4 v=0
140188 On ch=1 n=g#3 v=0
140284 On ch=1 n=f#6 v=78
140308 On ch=1 n=f6 v=0
140400 On ch=1 n=c#3 v=93
140404 On ch=1 n=f6 v=76
140420 On ch=1 n=f#6 v=0
140432 On ch=1 n=c#3 v=0
140520 Par ch=1 c=64 v=0
140524 On ch=1 n=f6 v=0
140524 On ch=1 n=d7 v=78
140568 On ch=1 n=d7 v=0
140604 Par ch=1 c=64 v=127
140628 On ch=1 n=g4 v=105
140628 On ch=1 n=g#3 v=105
140644 On ch=1 n=e6 v=74
140660 On ch=1 n=g4 v=0
140676 On ch=1 n=g#3 v=0
140764 On ch=1 n=f#6 v=75
140772 On ch=1 n=e6 v=0
140860 On ch=1 n=c#3 v=93
140884 On ch=1 n=e6 v=71
140892 On ch=1 n=c#3 v=0
140916 On ch=1 n=f#6 v=0
140996 On ch=1 n=e6 v=0
141004 On ch=1 n=c#7 v=74
141028 Par ch=1 c=64 v=0
141052 On ch=1 n=c#7 v=0
141084 Par ch=1 c=64 v=127
141108 On ch=1 n=g#3 v=103
141112 On ch=1 n=f#4 v=103
141124 On ch=1 n=d#6 v=75
141136 On ch=1 n=f#4 v=0
141144 On ch=1 n=g#3 v=0
141244 On ch=1 n=e6 v=76
141248 On ch=1 n=d#6 v=0
141352 On ch=1 n=c#3 v=87
141364 On ch=1 n=d#6 v=73
141372 On ch=1 n=e6 v=0
141380 On ch=1 n=c#3 v=0
141484 On ch=1 n=c#7 v=79
141484 Par ch=1 c=64 v=0
141492 On ch=1 n=d#6 v=0
141544 On ch=1 n=c#7 v=0
141564 Par ch=1 c=64 v=127
141584 On ch=1 n=d#4 v=102
141592 On ch=1 n=g#3 v=102
141604 On ch=1 n=d#6 v=80
141612 On ch=1 n=d#4 v=0
141616 On ch=1 n=g#3 v=0
141724 On ch=1 n=e6 v=76
141732 On ch=1 n=d#6 v=0
141844 On ch=1 n=d#6 v=76
141844 On ch=1 n=c#3 v=88
141860 On ch=1 n=e6 v=0
141872 On ch=1 n=c#3 v=0
141956 Par ch=1 c=64 v=0
141964 On ch=1 n=c7 v=80
141972 On ch=1 n=d#6 v=0
142004 On ch=1 n=c7 v=0
142036 Par ch=1 c=64 v=127
142080 On ch=1 n=e4 v=104
142084 On ch=1 n=c#6 v=77
142084 On ch=1 n=g#3 v=104
142108 On ch=1 n=g#3 v=0
142108 On ch=1 n=e4 v=0
142200 On ch=1 n=c#6 v=0
142204 On ch=1 n=d#6 v=83
142312 On ch=1 n=c#3 v=90
142324 On ch=1 n=c#6 v=77
142332 On ch=1 n=d#6 v=0
142340 On ch=1 n=c#3 v=0
142444 On ch=1 n=c#7 v=80
142448 On ch=1 n=c#6 v=0
142448 Par ch=1 c=64 v=0
142492 On ch=1 n=c#7 v=0
142516 Par ch=1 c=64 v=127
142544 On ch=1 n=g#3 v=109
142544 On ch=1 n=g#4 v=109
142564 On ch=1 n=g#6 v=76
142568 On ch=1 n=g#4 v=0
142576 On ch=1 n=g#3 v=0
142684 On ch=1 n=a6 v=73
142692 On ch=1 n=g#6 v=0
142792 On ch=1 n=c#3 v=90
142804 On ch=1 n=g#6 v=75
142820 On ch=1 n=a6 v=0
142824 On ch=1 n=c#3 v=0
142896 Par ch=1 c=64 v=0
142928 On ch=1 n=e7 v=81
142936 On ch=1 n=g#6 v=0
142984 On ch=1 n=e7 v=0
142992 Par ch=1 c=64 v=127
143036 On ch=1 n=a#3 v=103
143040 On ch=1 n=a#4 v=103
143048 On ch=1 n=g6 v=75
143064 On ch=1 n=a#4 v=0
143068 On ch=1 n=a#3 v=0
143164 On ch=1 n=g6 v=0
143164 On ch=1 n=g#6 v=71
143272 On ch=1 n=c#3 v=90
143284 On ch=1 n=g6 v=70
143308 On ch=1 n=c#3 v=0
143316 On ch=1 n=g#6 v=0
143384 Par ch=1 c=64 v=0
143404 On ch=1 n=e7 v=78
143412 On ch=1 n=g6 v=0
143452 On ch=1 n=e7 v=0
143456 Par ch=1 c=64 v=127
143512 On ch=1 n=a3 v=104
143512 On ch=1 n=a4 v=104
143524 On ch=1 n=f#6 v=78
143544 On ch=1 n=a4 v=0
143548 On ch=1 n=a3 v=0
143648 On ch=1 n=g#6 v=78
143656 On ch=1 n=f#6 v=0
143744 On ch=1 n=c#3 v=87
143764 On ch=1 n=f#6 v=77
143776 On ch=1 n=g#6 v=0
143784 On ch=1 n=c#3 v=0
143884 On ch=1 n=f#6 v=0
143884 On ch=1 n=d#7 v=78
143904 Par ch=1 c=64 v=0
143936 On ch=1 n=d#7 v=0
143968 Par ch=1 c=64 v=127
143988 On ch=1 n=g#3 v=105
143988 On ch=1 n=g#4 v=105
144004 On ch=1 n=f6 v=79
144008 On ch=1 n=g#4 v=0
144016 On ch=1 n=g#3 v=0
144128 On ch=1 n=f#6 v=79
144132 On ch=1 n=f6 v=0
144228 On ch=1 n=c#3 v=88
144244 On ch=1 n=f6 v=80
144264 On ch=1 n=c#3 v=0
144276 On ch=1 n=f#6 v=0
144364 On ch=1 n=d7 v=81
144364 Par ch=1 c=64 v=0
144372 On ch=1 n=f6 v=0
144412 On ch=1 n=d7 v=0
144432 Par ch=1 c=64 v=127
144476 On ch=1 n=g4 v=108
144480 On ch=1 n=g#3 v=108
144484 On ch=1 n=e6 v=76
144508 On ch=1 n=g4 v=0
144516 On ch=1 n=g#3 v=0
144604 On ch=1 n=f#6 v=73
144608 On ch=1 n=e6 v=0
144720 On ch=1 n=c#3 v=82
144724 On ch=1 n=e6 v=79
144740 On ch=1 n=f#6 v=0
144760 On ch=1 n=c#3 v=0
144844 On ch=1 n=c#7 v=70
144856 Par ch=1 c=64 v=0
144860 On ch=1 n=e6 v=0
144892 On ch=1 n=c#7 v=0
144916 Par ch=1 c=64 v=127
144956 On ch=1 n=g#3 v=104
144956 On ch=1 n=f#4 v=104
144964 On ch=1 n=d#6 v=75
144980 On ch=1 n=f#4 v=0
144984 On ch=1 n=g#3 v=0
145084 On ch=1 n=e6 v=84
145096 On ch=1 n=d#6 v=0
145188 On ch=1 n=c#3 v=84
145204 On ch=1 n=d#6 v=83
145220 On ch=1 n=e6 v=0
145224 On ch=1 n=c#3 v=0
145288 Par ch=1 c=64 v=0
145324 On ch=1 n=c#7 v=77
145340 On ch=1 n=d#6 v=0
145376 Par ch=1 c=64 v=127
145380 On ch=1 n=c#7 v=0
145432 On ch=1 n=d#4 v=103
145436 On ch=1 n=g#3 v=103
145444 On ch=1 n=d#6 v=82
145460 On ch=1 n=g#3 v=0
145460 On ch=1 n=d#4 v=0
145564 On ch=1 n=e6 v=81
145576 On ch=1 n=d#6 v=0
145676 On ch=1 n=c#3 v=87
145684 On ch=1 n=d#6 v=77
145700 On ch=1 n=e6 v=0
145724 On ch=1 n=c#3 v=0
145772 Par ch=1 c=64 v=0
145804 On ch=1 n=c7 v=76
145828 On ch=1 n=d#6 v=0
145852 On ch=1 n=c7 v=0
145852 Par ch=1 c=64 v=127
145924 On ch=1 n=c#6 v=80
145924 On ch=1 n=c#3 v=104
145924 On ch=1 n=e4 v=104
145928 On ch=1 n=g#3 v=104
146040 On ch=1 n=c#6 v=0
146044 On ch=1 n=d#6 v=75
146056 On ch=1 n=e4 v=0
146060 On ch=1 n=g#3 v=0
146068 On ch=1 n=c#3 v=0
146164 On ch=1 n=c#6 v=76
146176 On ch=1 n=d#6 v=0
146260 Par ch=1 c=64 v=0
146284 On ch=1 n=c#7 v=82
146292 On ch=1 n=c#6 v=0
146332 On ch=1 n=c#7 v=0
146352 Par ch=1 c=64 v=127
146404 On ch=1 n=g#5 v=68
146412 On ch=1 n=g#6 v=78
146520 On ch=1 n=a6 v=78
146524 On ch=1 n=g5 v=71
146536 On ch=1 n=g#6 v=0
146544 On ch=1 n=g#5 v=0
146640 On ch=1 n=g5 v=0
146644 On ch=1 n=g#5 v=70
146648 On ch=1 n=g#6 v=81
146668 On ch=1 n=a6 v=0
146752 On ch=1 n=g#5 v=0
146760 On ch=1 n=e7 v=94
146764 On ch=1 n=g#4 v=88
146772 On ch=1 n=g#6 v=0
146804 On ch=1 n=e7 v=0
146868 Par ch=1 c=64 v=0
146876 On ch=1 n=g#4 v=0
146880 On ch=1 n=g5 v=70
146884 On ch=1 n=g6 v=78
146924 Par ch=1 c=64 v=127
146996 On ch=1 n=f#5 v=67
147000 On ch=1 n=g5 v=0
147008 On ch=1 n=g#6 v=78
147016 On ch=1 n=g6 v=0
147124 On ch=1 n=g5 v=66
147128 On ch=1 n=g6 v=82
147136 On ch=1 n=f#5 v=0
147148 On ch=1 n=g#6 v=0
147244 On ch=1 n=g5 v=0
147244 On ch=1 n=e7 v=97
147244 On ch=1 n=g#4 v=84
147256 On ch=1 n=g6 v=0
147284 On ch=1 n=e7 v=0
147348 Par ch=1 c=64 v=0
147356 On ch=1 n=g#4 v=0
147364 On ch=1 n=f#6 v=87
147364 On ch=1 n=f#5 v=69
147412 Par ch=1 c=64 v=127
147484 On ch=1 n=g#6 v=86
147484 On ch=1 n=f5 v=68
147492 On ch=1 n=f#5 v=0
147492 On ch=1 n=f#6 v=0
147600 On ch=1 n=f#6 v=86
147600 On ch=1 n=f#5 v=70
147604 On ch=1 n=f5 v=0
147616 On ch=1 n=g#6 v=0
147712 On ch=1 n=d#7 v=96
147716 On ch=1 n=f#5 v=0
147716 On ch=1 n=f#6 v=0
147720 On ch=1 n=g#4 v=85
147760 On ch=1 n=d#7 v=0
147832 On ch=1 n=g#4 v=0
147832 On ch=1 n=f6 v=78
147836 On ch=1 n=f5 v=75
147844 Par ch=1 c=64 v=0
147908 Par ch=1 c=64 v=127
147952 On ch=1 n=f#6 v=81
147956 On ch=1 n=e5 v=64
147960 On ch=1 n=f6 v=0
147964 On ch=1 n=f5 v=0
148076 On ch=1 n=f6 v=80
148076 On ch=1 n=f5 v=70
148092 On ch=1 n=f#6 v=0
148104 On ch=1 n=e5 v=0
148184 On ch=1 n=f5 v=0
148192 On ch=1 n=d7 v=94
148196 On ch=1 n=f6 v=0
148196 On ch=1 n=g#4 v=89
148236 On ch=1 n=d7 v=0
148276 On ch=1 n=g#4 v=0
148316 On ch=1 n=e6 v=80
148316 On ch=1 n=e5 v=70
148340 Par ch=1 c=64 v=0
148388 Par ch=1 c=64 v=127
148432 On ch=1 n=f#6 v=77
148436 On ch=1 n=d#5 v=67
148440 On ch=1 n=e6 v=0
148444 On ch=1 n=e5 v=0
148556 On ch=1 n=e5 v=66
148560 On ch=1 n=e6 v=77
148576 On ch=1 n=d#5 v=0
148584 On ch=1 n=f#6 v=0
148664 On ch=1 n=e5 v=0
148676 On ch=1 n=g#4 v=87
148680 On ch=1 n=c#7 v=94
148684 On ch=1 n=e6 v=0
148728 On ch=1 n=c#7 v=0
148772 On ch=1 n=g#4 v=0
148796 On ch=1 n=d#5 v=62
148796 Par ch=1 c=64 v=0
148804 On ch=1 n=d#6 v=79
148852 Par ch=1 c=64 v=127
148916 On ch=1 n=d5 v=65
148920 On ch=1 n=e6 v=76
148924 On ch=1 n=d#5 v=0
148932 On ch=1 n=d#6 v=0
149036 On ch=1 n=d5 v=0
149036 On ch=1 n=d#6 v=77
149036 On ch=1 n=d#5 v=64
149056 On ch=1 n=e6 v=0
149148 On ch=1 n=d#6 v=0
149148 On ch=1 n=c7 v=95
149156 On ch=1 n=g#4 v=86
149160 On ch=1 n=d#5 v=0
149196 On ch=1 n=c7 v=0
149260 On ch=1 n=g#4 v=0
149276 On ch=1 n=d6 v=82
149276 On ch=1 n=d5 v=62
149276 Par ch=1 c=64 v=0
149332 Par ch=1 c=64 v=127
149392 On ch=1 n=d5 v=0
149396 On ch=1 n=d#6 v=79
149396 On ch=1 n=c#5 v=64
149404 On ch=1 n=d6 v=0
149516 On ch=1 n=d5 v=70
149524 On ch=1 n=c#5 v=0
149524 On ch=1 n=d6 v=79
149552 On ch=1 n=d#6 v=0
149620 On ch=1 n=d5 v=0
149636 On ch=1 n=b6 v=93
149640 On ch=1 n=g#4 v=91
149656 On ch=1 n=d6 v=0
149672 On ch=1 n=b6 v=0
149704 On ch=1 n=g#4 v=0
149756 On ch=1 n=c#5 v=70
149764 On ch=1 n=c#6 v=78
149784 Par ch=1 c=64 v=0
149832 Par ch=1 c=64 v=127
149868 On ch=1 n=c#5 v=0
149876 On ch=1 n=c5 v=70
149884 On ch=1 n=d6 v=76
149888 On ch=1 n=c#6 v=0
149996 On ch=1 n=c5 v=0
149996 On ch=1 n=c#6 v=77
149996 On ch=1 n=c#5 v=68
150000 On ch=1 n=d6 v=0
150036 On ch=1 n=c#5 v=0
150112 On ch=1 n=c#6 v=0
150116 On ch=1 n=g#3 v=96
150120 On ch=1 n=a#6 v=95
150144 On ch=1 n=g#3 v=0
150180 On ch=1 n=a#6 v=0
150236 On ch=1 n=c5 v=68
150244 On ch=1 n=c6 v=82
150264 Par ch=1 c=64 v=0
150328 Par ch=1 c=64 v=127
150356 On ch=1 n=b4 v=65
150360 On ch=1 n=c#6 v=80
150372 On ch=1 n=c6 v=0
150376 On ch=1 n=c5 v=0
150476 On ch=1 n=c5 v=70
150480 On ch=1 n=b4 v=0
150484 On ch=1 n=c6 v=82
150520 On ch=1 n=c5 v=0
150524 On ch=1 n=c#6 v=0
150596 On ch=1 n=g#3 v=98
150604 On ch=1 n=a6 v=95
150616 On ch=1 n=c6 v=0
150620 On ch=1 n=g#3 v=0
150648 On ch=1 n=a6 v=0
150716 On ch=1 n=b4 v=65
150724 On ch=1 n=b5 v=78
150752 Par ch=1 c=64 v=0
150808 Par ch=1 c=64 v=127
150836 On ch=1 n=a#4 v=62
150844 On ch=1 n=c6 v=80
150848 On ch=1 n=b4 v=0
150852 On ch=1 n=b5 v=0
150956 On ch=1 n=b4 v=72
150964 On ch=1 n=b5 v=82
150968 On ch=1 n=a#4 v=0
150988 On ch=1 n=c6 v=0
150992 On ch=1 n=b4 v=0
151076 On ch=1 n=g#3 v=99
151084 On ch=1 n=g#6 v=96
151092 On ch=1 n=b5 v=0
151108 On ch=1 n=g#3 v=0
151136 On ch=1 n=g#6 v=0
151204 On ch=1 n=a#5 v=74
151204 On ch=1 n=a#4 v=58
151232 Par ch=1 c=64 v=0
151288 Par ch=1 c=64 v=127
151308 On ch=1 n=a#4 v=0
151320 On ch=1 n=a4 v=63
151324 On ch=1 n=b5 v=79
151336 On ch=1 n=a#5 v=0
151432 On ch=1 n=a4 v=0
151436 On ch=1 n=a#4 v=67
151444 On ch=1 n=a#5 v=79
151472 On ch=1 n=a#4 v=0
151472 On ch=1 n=b5 v=0
151556 On ch=1 n=g#3 v=98
151564 On ch=1 n=g6 v=96
151576 On ch=1 n=a#5 v=0
151580 On ch=1 n=g#3 v=0
151612 On ch=1 n=g6 v=0
151676 On ch=1 n=a4 v=66
151684 On ch=1 n=a5 v=80
151744 Par ch=1 c=64 v=0
151760 Par ch=1 c=64 v=1
151796 On ch=1 n=g#4 v=66
151800 On ch=1 n=a4 v=0
151804 On ch=1 n=a#5 v=78
151808 Par ch=1 c=64 v=127
151824 On ch=1 n=a5 v=0
151916 On ch=1 n=g#4 v=0
151916 On ch=1 n=a4 v=76
151928 On ch=1 n=a5 v=77
151956 On ch=1 n=a4 v=0
151964 On ch=1 n=a#5 v=0
152036 On ch=1 n=g#3 v=101
152048 On ch=1 n=f#6 v=97
152052 On ch=1 n=a5 v=0
152064 On ch=1 n=g#3 v=0
152088 On ch=1 n=f#6 v=0
152156 On ch=1 n=g#4 v=68
152168 On ch=1 n=g#5 v=78
152192 Par ch=1 c=64 v=0
152248 Par ch=1 c=64 v=127
152276 On ch=1 n=g#4 v=0
152280 On ch=1 n=g4 v=66
152288 On ch=1 n=a5 v=80
152304 On ch=1 n=g#5 v=0
152384 On ch=1 n=g4 v=0
152396 On ch=1 n=g#4 v=73
152408 On ch=1 n=g#5 v=79
152444 On ch=1 n=g#4 v=0
152444 On ch=1 n=a5 v=0
152516 On ch=1 n=g#3 v=98
152532 On ch=1 n=f6 v=99
152536 On ch=1 n=g#5 v=0
152556 On ch=1 n=g#3 v=0
152580 On ch=1 n=f6 v=0
152640 On ch=1 n=g4 v=70
152652 On ch=1 n=g5 v=79
152680 Par ch=1 c=64 v=0
152728 Par ch=1 c=64 v=127
152760 On ch=1 n=g4 v=0
152764 On ch=1 n=g5 v=0
152764 On ch=1 n=f#4 v=68
152768 On ch=1 n=g#5 v=84
152876 On ch=1 n=f#4 v=0
152880 On ch=1 n=g4 v=67
152888 On ch=1 n=g5 v=80
152904 On ch=1 n=g#5 v=0
152924 On ch=1 n=g4 v=0
152996 On ch=1 n=g#3 v=102
153008 On ch=1 n=e6 v=99
153016 On ch=1 n=g5 v=0
153044 On ch=1 n=e6 v=0
153056 On ch=1 n=g#3 v=0
153116 On ch=1 n=f#4 v=69
153136 Par ch=1 c=64 v=0
153140 On ch=1 n=f#5 v=79
153192 Par ch=1 c=64 v=127
153232 On ch=1 n=f#4 v=0
153240 On ch=1 n=f4 v=66
153264 On ch=1 n=f#5 v=0
153264 On ch=1 n=g#5 v=79
153332 On ch=1 n=f4 v=0
153360 On ch=1 n=f#4 v=72
153376 On ch=1 n=f#5 v=80
153416 On ch=1 n=f#4 v=0
153416 On ch=1 n=g#5 v=0
153484 On ch=1 n=f#5 v=0
153484 On ch=1 n=g#3 v=101
153488 On ch=1 n=g#3 v=0
153496 On ch=1 n=d#6 v=95
153496 Par ch=1 c=64 v=0
153560 Par ch=1 c=64 v=127
153588 On ch=1 n=c#3 v=96
153604 On ch=1 n=d#6 v=0
153620 On ch=1 n=c#6 v=96
153624 On ch=1 n=e5 v=86
153632 On ch=1 n=c#3 v=0
153632 On ch=1 n=g#3 v=99
153688 On ch=1 n=e4 v=102
153724 On ch=1 n=c#6 v=0
153728 On ch=1 n=e5 v=0
153740 On ch=1 n=g#3 v=0
153776 On ch=1 n=e4 v=0
153856 On ch=1 n=g#4 v=86
153980 On ch=1 n=e5 v=86
153988 On ch=1 n=g#4 v=0
154092 On ch=1 n=c#5 v=82
154116 On ch=1 n=e5 v=0
154132 On ch=1 n=c#5 v=0
154200 On ch=1 n=c#5 v=92
154324 On ch=1 n=g#5 v=74
154380 On ch=1 n=c#5 v=0
154440 On ch=1 n=e6 v=80
154444 On ch=1 n=g#5 v=0
154556 On ch=1 n=c#6 v=75
154572 On ch=1 n=e6 v=0
154592 On ch=1 n=c#6 v=0
154668 On ch=1 n=c#6 v=82
154812 On ch=1 n=g#6 v=78
154872 On ch=1 n=c#6 v=0
154924 On ch=1 n=e7 v=80
154932 On ch=1 n=g#6 v=0
155016 On ch=1 n=c#7 v=80
155032 On ch=1 n=e7 v=0
155064 On ch=1 n=c#7 v=0
155136 On ch=1 n=c#7 v=82
155268 On ch=1 n=g#7 v=74
155320 On ch=1 n=c#7 v=0
155388 On ch=1 n=g#7 v=0
155388 On ch=1 n=c#8 v=78
155440 On ch=1 n=c#4 v=100
155484 On ch=1 n=g#4 v=103
155500 On ch=1 n=c#4 v=0
155504 On ch=1 n=c#8 v=0
155504 On ch=1 n=e8 v=79
155524 On ch=1 n=e5 v=106
155584 On ch=1 n=e8 v=0
155604 On ch=1 n=g#4 v=0
155612 On ch=1 n=e5 v=0
155616 On ch=1 n=g#7 v=71
155736 On ch=1 n=c#7 v=92
155748 On ch=1 n=g#7 v=0
155772 On ch=1 n=c#7 v=0
155860 On ch=1 n=c#7 v=85
155896 On ch=1 n=c#7 v=0
155984 On ch=1 n=e7 v=78
156104 On ch=1 n=g#6 v=73
156112 On ch=1 n=e7 v=0
156224 On ch=1 n=c#6 v=75
156236 On ch=1 n=g#6 v=0
156260 On ch=1 n=c#6 v=0
156344 On ch=1 n=c#6 v=84
156452 On ch=1 n=c#6 v=0
156468 On ch=1 n=e6 v=78
156596 On ch=1 n=g#5 v=72
156616 On ch=1 n=e6 v=0
156712 On ch=1 n=c#5 v=82
156724 On ch=1 n=g#5 v=0
156756 On ch=1 n=c#5 v=0
156840 On ch=1 n=c#5 v=76
156960 On ch=1 n=e5 v=80
156968 On ch=1 n=c#5 v=0
157080 On ch=1 n=g#4 v=74
157088 On ch=1 n=e5 v=0
157212 On ch=1 n=g#4 v=0
157220 On ch=1 n=c#4 v=84
157240 On ch=1 n=c#4 v=0
157332 On ch=1 n=c#4 v=82
157380 On ch=1 n=c#4 v=0
157460 On ch=1 n=c#3 v=108
157492 On ch=1 n=c#3 v=0
158200 Par ch=1 c=64 v=0
158280 Par ch=1 c=64 v=127
158304 On ch=1 n=c#4 v=79
158364 On ch=1 n=g#4 v=82
158424 On ch=1 n=c#4 v=0
158448 On ch=1 n=c#6 v=99
158448 On ch=1 n=e5 v=91
158448 On ch=1 n=e6 v=86
158448 On ch=1 n=c#7 v=103
158448 On ch=1 n=g#6 v=78
158520 On ch=1 n=g#4 v=0
158540 On ch=1 n=e5 v=0
158564 On ch=1 n=e6 v=0
158572 On ch=1 n=g#6 v=0
158572 On ch=1 n=c#6 v=0
158580 On ch=1 n=c#7 v=0
159172 Par ch=1 c=64 v=0
159280 Par ch=1 c=64 v=127
159348 On ch=1 n=c#3 v=97
159352 On ch=1 n=c#2 v=97
159356 On ch=1 n=c#4 v=93
159364 On ch=1 n=c#5 v=101
159416 On ch=1 n=c#2 v=0
159424 On ch=1 n=c#3 v=0
159432 On ch=1 n=c#5 v=0
159432 On ch=1 n=c#4 v=0
159488 On ch=1 n=c#2 v=107
159496 On ch=1 n=c#3 v=105
159504 On ch=1 n=c#4 v=108
159524 On ch=1 n=c#5 v=105
165464 Par ch=1 c=64 v=0
166716 On ch=1 n=c#5 v=0
166768 On ch=1 n=c#4 v=0
166768 On ch=1 n=c#2 v=0
166780 On ch=1 n=c#3 v=0
166780 Meta TrkEnd
TrkEnd
MTrk
0 SeqSpec 43 00 01 00
0 Meta TrkName "In C# Minor"
0 Meta 0x21 00
0 Meta TrkEnd
TrkEnd
MTrk
0 SeqSpec 43 00 01 00
0 Meta TrkName "Op. 10, No"
