MFile 0 1 480
MTrk
0 TimeSig 6/8 12 8
0 Tempo 240000
0 Par ch=1 c=7 v=80
2 Par ch=1 c=99 v=1
2 Par ch=1 c=98 v=8
2 Par ch=1 c=6 v=64
3 Par ch=1 c=99 v=1
3 Par ch=1 c=98 v=9
3 Par ch=1 c=6 v=64
4 Par ch=1 c=99 v=1
4 Par ch=1 c=98 v=10
4 Par ch=1 c=6 v=64
5 Par ch=1 c=99 v=1
5 Par ch=1 c=98 v=32
5 Par ch=1 c=6 v=64
6 Par ch=1 c=99 v=1
6 Par ch=1 c=98 v=33
6 Par ch=1 c=6 v=64
7 Par ch=1 c=99 v=1
7 Par ch=1 c=98 v=99
7 Par ch=1 c=6 v=64
8 Par ch=1 c=99 v=1
8 Par ch=1 c=98 v=100
8 Par ch=1 c=6 v=64
9 Par ch=1 c=99 v=1
9 Par ch=1 c=98 v=102
9 Par ch=1 c=6 v=64
11 Par ch=1 c=0 v=0
11 Par ch=1 c=32 v=0
11 PrCh ch=1 p=0
13 Par ch=1 c=10 v=64
14 Par ch=1 c=91 v=40
15 Par ch=1 c=93 v=0
16 Par ch=1 c=5 v=0
17 Par ch=1 c=101 v=0
17 Par ch=1 c=100 v=0
17 Par ch=1 c=6 v=2
229 Tempo 240000
1440 Tempo 1428571
1672 Par ch=1 c=64 v=96
1680 Par ch=1 c=7 v=80
1680 On ch=1 n=c#5 v=64
1680 On ch=1 n=c#6 v=64
1680 On ch=1 n=c#6 v=64
1708 On ch=1 n=c#5 v=0
1710 On ch=1 n=f5 v=64
1738 On ch=1 n=f5 v=0
1740 On ch=1 n=c#5 v=64
1768 On ch=1 n=c#5 v=0
1770 On ch=1 n=f5 v=64
1798 On ch=1 n=f5 v=0
1800 On ch=1 n=c#5 v=64
1828 On ch=1 n=c#5 v=0
1830 On ch=1 n=f5 v=64
1858 On ch=1 n=f5 v=0
1860 On ch=1 n=c#5 v=64
1888 On ch=1 n=c#5 v=0
1890 On ch=1 n=f5 v=64
1918 On ch=1 n=f5 v=0
1918 On ch=1 n=c#6 v=0
1918 On ch=1 n=c#6 v=0
1920 On ch=1 n=c#5 v=64
1920 On ch=1 n=c6 v=64
1920 On ch=1 n=c6 v=64
1948 On ch=1 n=c#5 v=0
1950 On ch=1 n=f5 v=64
1978 On ch=1 n=f5 v=0
1980 On ch=1 n=c#5 v=64
2008 On ch=1 n=c#5 v=0
2010 On ch=1 n=f5 v=64
2038 On ch=1 n=f5 v=0
2040 On ch=1 n=c#5 v=64
2068 On ch=1 n=c#5 v=0
2070 On ch=1 n=f5 v=64
2098 On ch=1 n=f5 v=0
2100 On ch=1 n=c#5 v=64
2128 On ch=1 n=c#5 v=0
2130 On ch=1 n=f5 v=64
2158 On ch=1 n=f5 v=0
2158 On ch=1 n=c6 v=0
2158 On ch=1 n=c6 v=0
2160 On ch=1 n=c#5 v=64
2160 On ch=1 n=a#5 v=64
2160 On ch=1 n=a#5 v=64
2188 On ch=1 n=c#5 v=0
2190 On ch=1 n=f5 v=64
2218 On ch=1 n=f5 v=0
2220 On ch=1 n=c#5 v=64
2248 On ch=1 n=c#5 v=0
2250 On ch=1 n=f5 v=64
2278 On ch=1 n=f5 v=0
2280 On ch=1 n=c#5 v=64
2308 On ch=1 n=c#5 v=0
2310 On ch=1 n=f5 v=64
2338 On ch=1 n=f5 v=0
2340 On ch=1 n=c#5 v=64
2368 On ch=1 n=c#5 v=0
2370 On ch=1 n=f5 v=64
2398 On ch=1 n=f5 v=0
2398 On ch=1 n=a#5 v=0
2398 On ch=1 n=a#5 v=0
2400 On ch=1 n=c#5 v=64
2400 On ch=1 n=a5 v=64
2400 On ch=1 n=a5 v=64
2428 On ch=1 n=c#5 v=0
2430 On ch=1 n=f5 v=64
2458 On ch=1 n=f5 v=0
2460 On ch=1 n=c#5 v=64
2488 On ch=1 n=c#5 v=0
2490 On ch=1 n=f5 v=64
2518 On ch=1 n=f5 v=0
2520 On ch=1 n=c#5 v=64
2548 On ch=1 n=c#5 v=0
2550 On ch=1 n=f5 v=64
2578 On ch=1 n=f5 v=0
2580 On ch=1 n=c#5 v=64
2608 On ch=1 n=c#5 v=0
2610 On ch=1 n=f5 v=64
2638 On ch=1 n=f5 v=0
2638 On ch=1 n=a5 v=0
2638 On ch=1 n=a5 v=0
2640 On ch=1 n=c#5 v=64
2640 On ch=1 n=a#5 v=64
2640 On ch=1 n=a#5 v=64
2668 On ch=1 n=c#5 v=0
2670 On ch=1 n=f5 v=64
2698 On ch=1 n=f5 v=0
2700 On ch=1 n=c#5 v=64
2728 On ch=1 n=c#5 v=0
2730 On ch=1 n=f5 v=64
2758 On ch=1 n=f5 v=0
2760 On ch=1 n=c#5 v=64
2788 On ch=1 n=c#5 v=0
2790 On ch=1 n=f5 v=64
2818 On ch=1 n=f5 v=0
2820 On ch=1 n=c#5 v=64
2848 On ch=1 n=c#5 v=0
2850 On ch=1 n=f5 v=64
2878 On ch=1 n=f5 v=0
2878 On ch=1 n=a#5 v=0
2878 On ch=1 n=a#5 v=0
2880 On ch=1 n=d#5 v=64
2880 On ch=1 n=d#6 v=64
2880 On ch=1 n=d#6 v=64
2908 On ch=1 n=d#5 v=0
2910 On ch=1 n=f#5 v=64
2938 On ch=1 n=f#5 v=0
2940 On ch=1 n=d#5 v=64
2968 On ch=1 n=d#5 v=0
2970 On ch=1 n=f#5 v=64
2998 On ch=1 n=f#5 v=0
3000 On ch=1 n=d#5 v=64
3028 On ch=1 n=d#5 v=0
3030 On ch=1 n=f#5 v=64
3058 On ch=1 n=f#5 v=0
3060 On ch=1 n=d#5 v=64
3080 Par ch=1 c=64 v=0
3088 On ch=1 n=d#5 v=0
3090 On ch=1 n=f#5 v=64
3112 Par ch=1 c=64 v=96
3118 On ch=1 n=f#5 v=0
3120 On ch=1 n=d#5 v=64
3120 On ch=1 n=b4 v=64
3120 On ch=1 n=b4 v=64
3148 On ch=1 n=d#5 v=0
3150 On ch=1 n=f#5 v=64
3178 On ch=1 n=f#5 v=0
3180 On ch=1 n=d#5 v=64
3208 On ch=1 n=d#5 v=0
3210 On ch=1 n=f#5 v=64
3238 On ch=1 n=f#5 v=0
3238 On ch=1 n=b4 v=0
3238 On ch=1 n=b4 v=0
3240 On ch=1 n=d#5 v=64
3268 On ch=1 n=d#5 v=0
3270 On ch=1 n=f#5 v=64
3298 On ch=1 n=f#5 v=0
3300 On ch=1 n=d#5 v=64
3328 On ch=1 n=d#5 v=0
3330 On ch=1 n=f#5 v=64
3358 On ch=1 n=f#5 v=0
3360 On ch=1 n=d#5 v=64
3360 On ch=1 n=a#4 v=64
3360 On ch=1 n=a#4 v=64
3388 On ch=1 n=d#5 v=0
3390 On ch=1 n=f#5 v=64
3418 On ch=1 n=f#5 v=0
3420 On ch=1 n=d#5 v=64
3448 On ch=1 n=d#5 v=0
3450 On ch=1 n=f#5 v=64
3478 On ch=1 n=f#5 v=0
3478 On ch=1 n=a#4 v=0
3478 On ch=1 n=a#4 v=0
3480 On ch=1 n=d#5 v=64
3508 On ch=1 n=d#5 v=0
3510 On ch=1 n=f#5 v=64
3538 On ch=1 n=f#5 v=0
3540 On ch=1 n=d#5 v=64
3568 On ch=1 n=d#5 v=0
3570 On ch=1 n=f#5 v=64
3598 On ch=1 n=f#5 v=0
3600 On ch=1 n=d#5 v=64
3600 On ch=1 n=a4 v=64
3600 On ch=1 n=a4 v=64
3628 On ch=1 n=d#5 v=0
3630 On ch=1 n=f#5 v=64
3658 On ch=1 n=f#5 v=0
3660 On ch=1 n=d#5 v=64
3688 On ch=1 n=d#5 v=0
3690 On ch=1 n=f#5 v=64
3718 On ch=1 n=f#5 v=0
3718 On ch=1 n=a4 v=0
3718 On ch=1 n=a4 v=0
3720 On ch=1 n=d#5 v=64
3748 On ch=1 n=d#5 v=0
3750 On ch=1 n=f#5 v=64
3778 On ch=1 n=f#5 v=0
3780 On ch=1 n=d#5 v=64
3808 On ch=1 n=d#5 v=0
3810 On ch=1 n=f#5 v=64
3838 On ch=1 n=f#5 v=0
3840 On ch=1 n=d#5 v=64
3840 On ch=1 n=a#4 v=64
3840 On ch=1 n=a#4 v=64
3868 On ch=1 n=d#5 v=0
3870 On ch=1 n=f#5 v=64
3898 On ch=1 n=f#5 v=0
3900 On ch=1 n=d#5 v=64
3928 On ch=1 n=d#5 v=0
3930 On ch=1 n=f#5 v=64
3958 On ch=1 n=f#5 v=0
3958 On ch=1 n=a#4 v=0
3958 On ch=1 n=a#4 v=0
3960 On ch=1 n=d#5 v=64
3988 On ch=1 n=d#5 v=0
3990 On ch=1 n=f#5 v=64
4018 On ch=1 n=f#5 v=0
4020 On ch=1 n=d#5 v=64
4048 On ch=1 n=d#5 v=0
4050 On ch=1 n=f#5 v=64
4078 On ch=1 n=f#5 v=0
4080 On ch=1 n=d#5 v=64
4080 On ch=1 n=f#4 v=64
4080 On ch=1 n=f#4 v=64
4108 On ch=1 n=d#5 v=0
4110 On ch=1 n=f#5 v=64
4138 On ch=1 n=f#5 v=0
4140 On ch=1 n=d#5 v=64
4168 On ch=1 n=d#5 v=0
4170 On ch=1 n=f#5 v=64
4198 On ch=1 n=f#5 v=0
4198 On ch=1 n=f#4 v=0
4198 On ch=1 n=f#4 v=0
4200 On ch=1 n=d#5 v=64
4228 On ch=1 n=d#5 v=0
4230 On ch=1 n=f#5 v=64
4258 On ch=1 n=f#5 v=0
4260 On ch=1 n=d#5 v=64
4288 On ch=1 n=d#5 v=0
4290 On ch=1 n=f#5 v=64
4318 On ch=1 n=f#5 v=0
4318 On ch=1 n=d#6 v=0
4318 On ch=1 n=d#6 v=0
4320 On ch=1 n=d#5 v=64
4320 On ch=1 n=a#3 v=64
4320 On ch=1 n=a#3 v=64
4348 On ch=1 n=d#5 v=0
4350 On ch=1 n=f#5 v=64
4378 On ch=1 n=f#5 v=0
4380 On ch=1 n=d#5 v=64
4408 On ch=1 n=d#5 v=0
4410 On ch=1 n=f#5 v=64
4438 On ch=1 n=f#5 v=0
4438 On ch=1 n=a#3 v=0
4438 On ch=1 n=a#3 v=0
4440 On ch=1 n=d#5 v=64
4468 On ch=1 n=d#5 v=0
4470 On ch=1 n=f#5 v=64
4498 On ch=1 n=f#5 v=0
4500 On ch=1 n=d#5 v=64
4520 Par ch=1 c=64 v=0
4528 On ch=1 n=d#5 v=0
4530 On ch=1 n=f#5 v=64
4552 Par ch=1 c=64 v=95
4558 On ch=1 n=f#5 v=0
4560 On ch=1 n=d#5 v=64
4574 On ch=1 n=f#6 v=63
4574 On ch=1 n=f#6 v=63
4588 On ch=1 n=d#5 v=0
4590 On ch=1 n=f#5 v=64
4618 On ch=1 n=f#5 v=0
4620 On ch=1 n=d#5 v=64
4648 On ch=1 n=d#5 v=0
4650 On ch=1 n=f#5 v=64
4678 On ch=1 n=f#5 v=0
4680 On ch=1 n=d#5 v=64
4708 On ch=1 n=d#5 v=0
4710 On ch=1 n=f#5 v=64
4738 On ch=1 n=f#5 v=0
4740 On ch=1 n=d#5 v=64
4768 On ch=1 n=d#5 v=0
4770 On ch=1 n=f#5 v=64
4798 On ch=1 n=f#5 v=0
4798 On ch=1 n=f#6 v=0
4798 On ch=1 n=f#6 v=0
4800 On ch=1 n=d#5 v=64
4800 On ch=1 n=f6 v=64
4800 On ch=1 n=f6 v=64
4828 On ch=1 n=d#5 v=0
4830 On ch=1 n=f#5 v=64
4858 On ch=1 n=f#5 v=0
4860 On ch=1 n=d#5 v=64
4888 On ch=1 n=d#5 v=0
4890 On ch=1 n=f#5 v=64
4918 On ch=1 n=f#5 v=0
4920 On ch=1 n=d#5 v=64
4948 On ch=1 n=d#5 v=0
4950 On ch=1 n=f#5 v=64
4978 On ch=1 n=f#5 v=0
4980 On ch=1 n=d#5 v=64
5000 Par ch=1 c=64 v=0
5008 On ch=1 n=d#5 v=0
5010 On ch=1 n=f#5 v=64
5032 Par ch=1 c=64 v=96
5038 On ch=1 n=f#5 v=0
5038 On ch=1 n=f6 v=0
5038 On ch=1 n=f6 v=0
5040 On ch=1 n=d#5 v=64
5040 On ch=1 n=d#6 v=64
5040 On ch=1 n=d#6 v=64
5068 On ch=1 n=d#5 v=0
5070 On ch=1 n=a5 v=64
5070 On ch=1 n=f#5 v=64
5098 On ch=1 n=f#5 v=0
5098 On ch=1 n=a5 v=0
5100 On ch=1 n=d#5 v=64
5128 On ch=1 n=d#5 v=0
5130 On ch=1 n=a5 v=64
5130 On ch=1 n=f#5 v=64
5158 On ch=1 n=f#5 v=0
5158 On ch=1 n=a5 v=0
5160 On ch=1 n=d#5 v=64
5188 On ch=1 n=d#5 v=0
5190 On ch=1 n=a5 v=64
5190 On ch=1 n=f#5 v=64
5218 On ch=1 n=f#5 v=0
5218 On ch=1 n=a5 v=0
5220 On ch=1 n=d#5 v=64
5248 On ch=1 n=d#5 v=0
5250 On ch=1 n=a5 v=64
5250 On ch=1 n=f#5 v=64
5278 On ch=1 n=f#5 v=0
5278 On ch=1 n=a5 v=0
5278 On ch=1 n=d#6 v=0
5278 On ch=1 n=d#6 v=0
5280 On ch=1 n=d#5 v=64
5280 On ch=1 n=c#6 v=64
5280 On ch=1 n=c#6 v=64
5308 On ch=1 n=d#5 v=0
5310 On ch=1 n=a5 v=64
5310 On ch=1 n=f#5 v=64
5338 On ch=1 n=f#5 v=0
5338 On ch=1 n=a5 v=0
5340 On ch=1 n=d#5 v=64
5368 On ch=1 n=d#5 v=0
5370 On ch=1 n=a5 v=64
5370 On ch=1 n=f#5 v=64
5398 On ch=1 n=f#5 v=0
5398 On ch=1 n=a5 v=0
5400 On ch=1 n=d#5 v=64
5428 On ch=1 n=d#5 v=0
5430 On ch=1 n=a5 v=64
5430 On ch=1 n=f#5 v=64
5458 On ch=1 n=f#5 v=0
5458 On ch=1 n=a5 v=0
5460 On ch=1 n=d#5 v=64
5488 On ch=1 n=d#5 v=0
5490 On ch=1 n=a5 v=64
5490 On ch=1 n=f#5 v=64
5518 On ch=1 n=f#5 v=0
5518 On ch=1 n=a5 v=0
5518 On ch=1 n=c#6 v=0
5518 On ch=1 n=c#6 v=0
5520 On ch=1 n=d#5 v=64
5520 On ch=1 n=c6 v=64
5520 On ch=1 n=c6 v=64
5548 On ch=1 n=d#5 v=0
5550 On ch=1 n=a5 v=64
5550 On ch=1 n=f#5 v=64
5578 On ch=1 n=f#5 v=0
5578 On ch=1 n=a5 v=0
5580 On ch=1 n=d#5 v=64
5608 On ch=1 n=d#5 v=0
5610 On ch=1 n=a5 v=64
5610 On ch=1 n=f#5 v=64
5638 On ch=1 n=f#5 v=0
5638 On ch=1 n=a5 v=0
5640 On ch=1 n=d#5 v=64
5668 On ch=1 n=d#5 v=0
5670 On ch=1 n=a5 v=64
5670 On ch=1 n=f#5 v=64
5698 On ch=1 n=f#5 v=0
5698 On ch=1 n=a5 v=0
5700 On ch=1 n=d#5 v=64
5728 On ch=1 n=d#5 v=0
5730 On ch=1 n=a5 v=64
5730 On ch=1 n=f#5 v=64
5758 On ch=1 n=f#5 v=0
5758 On ch=1 n=a5 v=0
5758 On ch=1 n=c6 v=0
5758 On ch=1 n=c6 v=0
5760 On ch=1 n=c#5 v=64
5760 On ch=1 n=a#5 v=64
5760 On ch=1 n=a#5 v=64
5788 On ch=1 n=c#5 v=0
5790 On ch=1 n=f5 v=64
5818 On ch=1 n=f5 v=0
5820 On ch=1 n=c#5 v=64
5848 On ch=1 n=c#5 v=0
5850 On ch=1 n=f5 v=64
5878 On ch=1 n=f5 v=0
5880 On ch=1 n=c#5 v=64
5908 On ch=1 n=c#5 v=0
5910 On ch=1 n=f5 v=64
5938 On ch=1 n=f5 v=0
5940 On ch=1 n=c#5 v=64
5960 Par ch=1 c=64 v=0
5968 On ch=1 n=c#5 v=0
5970 On ch=1 n=f5 v=64
5992 Par ch=1 c=64 v=96
5998 On ch=1 n=f5 v=0
6000 On ch=1 n=c#5 v=64
6000 On ch=1 n=f#4 v=64
6000 On ch=1 n=f#4 v=64
6028 On ch=1 n=c#5 v=0
6030 On ch=1 n=f5 v=64
6058 On ch=1 n=f5 v=0
6060 On ch=1 n=c#5 v=64
6088 On ch=1 n=c#5 v=0
6090 On ch=1 n=f5 v=64
6118 On ch=1 n=f5 v=0
6118 On ch=1 n=f#4 v=0
6118 On ch=1 n=f#4 v=0
6120 On ch=1 n=c#5 v=64
6148 On ch=1 n=c#5 v=0
6150 On ch=1 n=f5 v=64
6178 On ch=1 n=f5 v=0
6180 On ch=1 n=c#5 v=64
6208 On ch=1 n=c#5 v=0
6210 On ch=1 n=f5 v=64
6238 On ch=1 n=f5 v=0
6240 On ch=1 n=c#5 v=64
6240 On ch=1 n=f4 v=64
6240 On ch=1 n=f4 v=64
6268 On ch=1 n=c#5 v=0
6270 On ch=1 n=f5 v=64
6298 On ch=1 n=f5 v=0
6300 On ch=1 n=c#5 v=64
6328 On ch=1 n=c#5 v=0
6330 On ch=1 n=f5 v=64
6358 On ch=1 n=f5 v=0
6358 On ch=1 n=f4 v=0
6358 On ch=1 n=f4 v=0
6360 On ch=1 n=c#5 v=64
6388 On ch=1 n=c#5 v=0
6390 On ch=1 n=f5 v=64
6418 On ch=1 n=f5 v=0
6420 On ch=1 n=c#5 v=64
6448 On ch=1 n=c#5 v=0
6450 On ch=1 n=f5 v=64
6478 On ch=1 n=f5 v=0
6480 On ch=1 n=c#5 v=64
6480 On ch=1 n=e4 v=64
6480 On ch=1 n=e4 v=64
6508 On ch=1 n=c#5 v=0
6510 On ch=1 n=f5 v=64
6538 On ch=1 n=f5 v=0
6540 On ch=1 n=c#5 v=64
6568 On ch=1 n=c#5 v=0
6570 On ch=1 n=f5 v=64
6598 On ch=1 n=f5 v=0
6598 On ch=1 n=e4 v=0
6598 On ch=1 n=e4 v=0
6600 On ch=1 n=c#5 v=64
6628 On ch=1 n=c#5 v=0
6630 On ch=1 n=f5 v=64
6658 On ch=1 n=f5 v=0
6660 On ch=1 n=c#5 v=64
6688 On ch=1 n=c#5 v=0
6690 On ch=1 n=f5 v=64
6718 On ch=1 n=f5 v=0
6720 On ch=1 n=c#5 v=64
6720 On ch=1 n=f4 v=64
6720 On ch=1 n=f4 v=64
6748 On ch=1 n=c#5 v=0
6750 On ch=1 n=f5 v=64
6778 On ch=1 n=f5 v=0
6780 On ch=1 n=c#5 v=64
6808 On ch=1 n=c#5 v=0
6810 On ch=1 n=f5 v=64
6838 On ch=1 n=f5 v=0
6838 On ch=1 n=f4 v=0
6838 On ch=1 n=f4 v=0
6840 On ch=1 n=c#5 v=64
6868 On ch=1 n=c#5 v=0
6870 On ch=1 n=f5 v=64
6898 On ch=1 n=f5 v=0
6900 On ch=1 n=c#5 v=64
6928 On ch=1 n=c#5 v=0
6930 On ch=1 n=f5 v=64
6958 On ch=1 n=f5 v=0
6960 On ch=1 n=c#5 v=64
6960 On ch=1 n=c#4 v=64
6960 On ch=1 n=c#4 v=64
6988 On ch=1 n=c#5 v=0
6990 On ch=1 n=f5 v=64
7018 On ch=1 n=f5 v=0
7020 On ch=1 n=c#5 v=64
7048 On ch=1 n=c#5 v=0
7050 On ch=1 n=f5 v=64
7078 On ch=1 n=f5 v=0
7078 On ch=1 n=c#4 v=0
7078 On ch=1 n=c#4 v=0
7080 On ch=1 n=c#5 v=64
7108 On ch=1 n=c#5 v=0
7110 On ch=1 n=f5 v=64
7138 On ch=1 n=f5 v=0
7140 On ch=1 n=c#5 v=64
7168 On ch=1 n=c#5 v=0
7170 On ch=1 n=f5 v=64
7198 On ch=1 n=f5 v=0
7198 On ch=1 n=a#5 v=0
7198 On ch=1 n=a#5 v=0
7200 On ch=1 n=c#5 v=64
7200 On ch=1 n=a#3 v=64
7200 On ch=1 n=a#3 v=64
7228 On ch=1 n=c#5 v=0
7230 On ch=1 n=f5 v=64
7258 On ch=1 n=f5 v=0
7260 On ch=1 n=c#5 v=64
7288 On ch=1 n=c#5 v=0
7290 On ch=1 n=f5 v=64
7318 On ch=1 n=f5 v=0
7318 On ch=1 n=a#3 v=0
7318 On ch=1 n=a#3 v=0
7320 On ch=1 n=c#5 v=64
7348 On ch=1 n=c#5 v=0
7350 On ch=1 n=f5 v=64
7378 On ch=1 n=f5 v=0
7380 On ch=1 n=c#5 v=64
7400 Par ch=1 c=64 v=0
7408 On ch=1 n=c#5 v=0
7410 On ch=1 n=f5 v=64
7432 Par ch=1 c=64 v=96
7438 On ch=1 n=f5 v=0
7440 On ch=1 n=f4 v=64
7448 On ch=1 n=c#5 v=64
7454 On ch=1 n=f5 v=63
7462 On ch=1 n=c#7 v=63
7462 On ch=1 n=c#7 v=63
7478 On ch=1 n=f4 v=0
7480 On ch=1 n=f5 v=0
7480 On ch=1 n=c#5 v=0
7480 On ch=1 n=f4 v=64
7480 On ch=1 n=c#6 v=64
7518 On ch=1 n=c#6 v=0
7518 On ch=1 n=f4 v=0
7520 On ch=1 n=c#5 v=64
7520 On ch=1 n=f5 v=64
7558 On ch=1 n=f5 v=0
7558 On ch=1 n=c#5 v=0
7560 On ch=1 n=f4 v=64
7560 On ch=1 n=c#6 v=64
7598 On ch=1 n=c#6 v=0
7598 On ch=1 n=f4 v=0
7600 On ch=1 n=c#5 v=64
7600 On ch=1 n=f5 v=64
7622 On ch=1 n=c#7 v=0
7622 On ch=1 n=c#7 v=0
7638 On ch=1 n=f5 v=0
7638 On ch=1 n=c#5 v=0
7640 On ch=1 n=f4 v=64
7640 On ch=1 n=c#6 v=64
7678 On ch=1 n=c#6 v=0
7678 On ch=1 n=f4 v=0
7680 On ch=1 n=d#4 v=64
7689 On ch=1 n=c5 v=64
7695 On ch=1 n=f5 v=62
7703 On ch=1 n=c7 v=66
7703 On ch=1 n=c7 v=66
7718 On ch=1 n=d#4 v=0
7720 On ch=1 n=f5 v=0
7720 On ch=1 n=d#4 v=64
7720 On ch=1 n=c6 v=64
7721 On ch=1 n=c5 v=0
7758 On ch=1 n=c6 v=0
7758 On ch=1 n=d#4 v=0
7760 On ch=1 n=c5 v=64
7760 On ch=1 n=f5 v=64
7798 On ch=1 n=f5 v=0
7798 On ch=1 n=c5 v=0
7800 On ch=1 n=d#4 v=64
7800 On ch=1 n=c6 v=64
7838 On ch=1 n=c6 v=0
7838 On ch=1 n=d#4 v=0
7840 On ch=1 n=c5 v=64
7840 On ch=1 n=f5 v=64
7863 On ch=1 n=c7 v=0
7863 On ch=1 n=c7 v=0
7878 On ch=1 n=f5 v=0
7878 On ch=1 n=c5 v=0
7880 On ch=1 n=d#4 v=64
7880 On ch=1 n=c6 v=64
7918 On ch=1 n=c6 v=0
7918 On ch=1 n=d#4 v=0
7920 On ch=1 n=c#4 v=64
7930 On ch=1 n=a#4 v=64
7937 On ch=1 n=f5 v=63
7944 On ch=1 n=a#6 v=60
7944 On ch=1 n=a#6 v=60
7958 On ch=1 n=c#4 v=0
7959 On ch=1 n=a#4 v=0
7960 On ch=1 n=c#4 v=64
7960 On ch=1 n=a#5 v=64
7962 On ch=1 n=f5 v=0
7998 On ch=1 n=a#5 v=0
7998 On ch=1 n=c#4 v=0
8000 On ch=1 n=a#4 v=64
8000 On ch=1 n=f5 v=64
8038 On ch=1 n=f5 v=0
8038 On ch=1 n=a#4 v=0
8040 On ch=1 n=c#4 v=64
8040 On ch=1 n=a#5 v=64
8078 On ch=1 n=a#5 v=0
8078 On ch=1 n=c#4 v=0
8080 On ch=1 n=a#4 v=64
8080 On ch=1 n=f5 v=64
8101 On ch=1 n=a#6 v=0
8101 On ch=1 n=a#6 v=0
8118 On ch=1 n=f5 v=0
8118 On ch=1 n=a#4 v=0
8120 On ch=1 n=c#4 v=64
8120 On ch=1 n=a#5 v=64
8120 Par ch=1 c=64 v=0
8152 Par ch=1 c=64 v=96
8158 On ch=1 n=a#5 v=0
8158 On ch=1 n=c#4 v=0
8160 On ch=1 n=c4 v=64
8169 On ch=1 n=a4 v=64
8176 On ch=1 n=f5 v=62
8183 On ch=1 n=a6 v=62
8183 On ch=1 n=a6 v=62
8198 On ch=1 n=c4 v=0
8200 On ch=1 n=f5 v=0
8200 On ch=1 n=c4 v=64
8200 On ch=1 n=a5 v=64
8201 On ch=1 n=a4 v=0
8238 On ch=1 n=a5 v=0
8238 On ch=1 n=c4 v=0
8240 On ch=1 n=a4 v=64
8240 On ch=1 n=f5 v=64
8278 On ch=1 n=f5 v=0
8278 On ch=1 n=a4 v=0
8280 On ch=1 n=c4 v=64
8280 On ch=1 n=a5 v=64
8318 On ch=1 n=a5 v=0
8318 On ch=1 n=c4 v=0
8320 On ch=1 n=a4 v=64
8320 On ch=1 n=f5 v=64
8340 On ch=1 n=a6 v=0
8340 On ch=1 n=a6 v=0
8358 On ch=1 n=f5 v=0
8358 On ch=1 n=a4 v=0
8360 On ch=1 n=c4 v=64
8360 On ch=1 n=a5 v=64
8360 Par ch=1 c=64 v=0
8392 Par ch=1 c=64 v=96
8398 On ch=1 n=a5 v=0
8398 On ch=1 n=c4 v=0
8400 On ch=1 n=c#4 v=64
8409 On ch=1 n=a#4 v=64
8415 On ch=1 n=f5 v=62
8425 On ch=1 n=a#6 v=62
8425 On ch=1 n=a#6 v=62
8435 On ch=1 n=a#4 v=0
8435 On ch=1 n=c#4 v=0
8436 On ch=1 n=f5 v=0
8437 On ch=1 n=c#4 v=64
8437 On ch=1 n=a#5 v=64
8475 On ch=1 n=a#5 v=0
8475 On ch=1 n=c#4 v=0
8477 On ch=1 n=a#4 v=64
8477 On ch=1 n=f5 v=64
8515 On ch=1 n=f5 v=0
8515 On ch=1 n=a#4 v=0
8517 On ch=1 n=c#4 v=64
8517 On ch=1 n=a#5 v=64
8555 On ch=1 n=a#5 v=0
8555 On ch=1 n=c#4 v=0
8557 On ch=1 n=a#4 v=64
8557 On ch=1 n=f5 v=64
8577 On ch=1 n=a#6 v=0
8577 On ch=1 n=a#6 v=0
8595 On ch=1 n=f5 v=0
8595 On ch=1 n=a#4 v=0
8597 On ch=1 n=c#4 v=64
8597 On ch=1 n=a#5 v=64
8597 Par ch=1 c=64 v=0
8629 Par ch=1 c=64 v=96
8635 On ch=1 n=a#5 v=0
8635 On ch=1 n=c#4 v=0
8637 On ch=1 n=f#4 v=64
8647 On ch=1 n=d#5 v=62
8654 On ch=1 n=f#5 v=63
8661 On ch=1 n=d#7 v=61
8661 On ch=1 n=d#7 v=61
8675 On ch=1 n=f#4 v=0
8677 On ch=1 n=d#5 v=0
8677 On ch=1 n=d#6 v=64
8677 On ch=1 n=f#4 v=64
8678 On ch=1 n=f#5 v=0
8715 On ch=1 n=f#4 v=0
8715 On ch=1 n=d#6 v=0
8717 On ch=1 n=a#5 v=64
8717 On ch=1 n=f#5 v=64
8717 On ch=1 n=d#5 v=64
8755 On ch=1 n=d#5 v=0
8755 On ch=1 n=f#5 v=0
8755 On ch=1 n=a#5 v=0
8757 On ch=1 n=d#6 v=64
8757 On ch=1 n=f#4 v=64
8795 On ch=1 n=f#4 v=0
8795 On ch=1 n=d#6 v=0
8797 On ch=1 n=a#5 v=64
8797 On ch=1 n=f#5 v=64
8797 On ch=1 n=d#5 v=64
8835 On ch=1 n=d#5 v=0
8835 On ch=1 n=f#5 v=0
8835 On ch=1 n=a#5 v=0
8837 On ch=1 n=d#6 v=64
8837 On ch=1 n=f#4 v=64
8875 On ch=1 n=f#4 v=0
8875 On ch=1 n=d#6 v=0
8877 Par ch=1 c=7 v=80
8877 On ch=1 n=a#5 v=64
8877 On ch=1 n=f#5 v=64
8877 On ch=1 n=b3 v=64
8877 On ch=1 n=b3 v=64
8915 On ch=1 n=f#5 v=0
8915 On ch=1 n=a#5 v=0
8917 On ch=1 n=d#6 v=64
8917 On ch=1 n=d#5 v=64
8955 On ch=1 n=d#5 v=0
8955 On ch=1 n=d#6 v=0
8957 On ch=1 n=a#5 v=64
8957 On ch=1 n=f#5 v=64
8957 On ch=1 n=a#4 v=64
8957 On ch=1 n=f#4 v=64
8972 Par ch=1 c=7 v=81
8995 On ch=1 n=f#4 v=0
8995 On ch=1 n=a#4 v=0
8995 On ch=1 n=f#5 v=0
8995 On ch=1 n=a#5 v=0
8997 On ch=1 n=d#6 v=64
8997 On ch=1 n=d#5 v=64
9035 On ch=1 n=d#5 v=0
9035 On ch=1 n=d#6 v=0
9037 On ch=1 n=a#5 v=64
9037 On ch=1 n=f#5 v=64
9037 On ch=1 n=a#4 v=64
9037 On ch=1 n=f#4 v=64
9055 On ch=1 n=b3 v=0
9055 On ch=1 n=b3 v=0
9065 Par ch=1 c=7 v=82
9072 On ch=1 n=f#4 v=0
9072 On ch=1 n=a#4 v=0
9072 On ch=1 n=f#5 v=0
9072 On ch=1 n=a#5 v=0
9074 On ch=1 n=d#6 v=64
9074 On ch=1 n=d#5 v=64
9112 On ch=1 n=d#5 v=0
9112 On ch=1 n=d#6 v=0
9114 On ch=1 n=a#5 v=64
9114 On ch=1 n=f#5 v=64
9114 On ch=1 n=a#3 v=64
9114 On ch=1 n=a#3 v=64
9152 On ch=1 n=f#5 v=0
9152 On ch=1 n=a#5 v=0
9154 On ch=1 n=d#6 v=64
9154 On ch=1 n=d#5 v=64
9161 Par ch=1 c=7 v=83
9192 On ch=1 n=d#5 v=0
9192 On ch=1 n=d#6 v=0
9194 On ch=1 n=a#5 v=64
9194 On ch=1 n=f#5 v=64
9194 On ch=1 n=a#4 v=64
9194 On ch=1 n=f#4 v=64
9232 On ch=1 n=f#4 v=0
9232 On ch=1 n=a#4 v=0
9232 On ch=1 n=f#5 v=0
9232 On ch=1 n=a#5 v=0
9234 On ch=1 n=d#6 v=64
9234 On ch=1 n=d#5 v=64
9257 Par ch=1 c=7 v=84
9272 On ch=1 n=d#5 v=0
9272 On ch=1 n=d#6 v=0
9274 On ch=1 n=a#5 v=64
9274 On ch=1 n=f#5 v=64
9274 On ch=1 n=a#4 v=64
9274 On ch=1 n=f#4 v=64
9292 On ch=1 n=a#3 v=0
9292 On ch=1 n=a#3 v=0
9312 On ch=1 n=f#4 v=0
9312 On ch=1 n=a#4 v=0
9312 On ch=1 n=f#5 v=0
9312 On ch=1 n=a#5 v=0
9314 On ch=1 n=d#6 v=64
9314 On ch=1 n=d#5 v=64
9352 On ch=1 n=d#5 v=0
9352 On ch=1 n=d#6 v=0
9353 On ch=1 n=d#7 v=0
9353 On ch=1 n=d#7 v=0
9353 Par ch=1 c=7 v=85
9354 On ch=1 n=a#5 v=64
9354 On ch=1 n=f#5 v=64
9354 On ch=1 n=a3 v=64
9354 On ch=1 n=a3 v=64
9392 On ch=1 n=f#5 v=0
9392 On ch=1 n=a#5 v=0
9394 On ch=1 n=d#6 v=64
9394 On ch=1 n=d#5 v=64
9432 On ch=1 n=d#5 v=0
9432 On ch=1 n=d#6 v=0
9434 On ch=1 n=a#5 v=64
9434 On ch=1 n=f#5 v=64
9434 On ch=1 n=a#4 v=64
9434 On ch=1 n=f#4 v=64
9472 On ch=1 n=f#4 v=0
9472 On ch=1 n=a#4 v=0
9472 On ch=1 n=f#5 v=0
9472 On ch=1 n=a#5 v=0
9474 On ch=1 n=d#6 v=64
9474 On ch=1 n=d#5 v=64
9512 On ch=1 n=d#5 v=0
9512 On ch=1 n=d#6 v=0
9514 On ch=1 n=a#5 v=64
9514 On ch=1 n=f#5 v=64
9514 On ch=1 n=a#4 v=64
9514 On ch=1 n=f#4 v=64
9532 On ch=1 n=a3 v=0
9532 On ch=1 n=a3 v=0
9552 On ch=1 n=f#4 v=0
9552 On ch=1 n=a#4 v=0
9552 On ch=1 n=f#5 v=0
9552 On ch=1 n=a#5 v=0
9554 On ch=1 n=d#6 v=64
9554 On ch=1 n=d#5 v=64
9554 Par ch=1 c=64 v=0
9586 Par ch=1 c=64 v=96
9592 On ch=1 n=d#5 v=0
9592 On ch=1 n=d#6 v=0
9594 Par ch=1 c=7 v=85
9594 On ch=1 n=a#5 v=64
9594 On ch=1 n=f#5 v=64
9594 On ch=1 n=a#3 v=64
9594 On ch=1 n=a#3 v=64
9632 On ch=1 n=f#5 v=0
9632 On ch=1 n=a#5 v=0
9634 On ch=1 n=d#6 v=64
9634 On ch=1 n=d#5 v=64
9672 On ch=1 n=d#5 v=0
9672 On ch=1 n=d#6 v=0
9674 On ch=1 n=a#5 v=64
9674 On ch=1 n=f#5 v=64
9674 On ch=1 n=f#4 v=64
9674 On ch=1 n=a#4 v=64
9689 Par ch=1 c=7 v=84
9712 On ch=1 n=a#4 v=0
9712 On ch=1 n=f#4 v=0
9712 On ch=1 n=f#5 v=0
9712 On ch=1 n=a#5 v=0
9714 On ch=1 n=d#6 v=64
9714 On ch=1 n=d#5 v=64
9752 On ch=1 n=d#5 v=0
9752 On ch=1 n=d#6 v=0
9754 On ch=1 n=a#5 v=64
9754 On ch=1 n=f#5 v=64
9754 On ch=1 n=f#4 v=64
9754 On ch=1 n=a#4 v=64
9772 On ch=1 n=a#3 v=0
9772 On ch=1 n=a#3 v=0
9782 Par ch=1 c=7 v=83
9789 On ch=1 n=a#4 v=0
9789 On ch=1 n=f#4 v=0
9789 On ch=1 n=f#5 v=0
9789 On ch=1 n=a#5 v=0
9791 On ch=1 n=d#6 v=64
9791 On ch=1 n=d#5 v=64
9829 On ch=1 n=d#5 v=0
9829 On ch=1 n=d#6 v=0
9831 On ch=1 n=a#5 v=64
9831 On ch=1 n=f#5 v=64
9831 On ch=1 n=f#3 v=64
9831 On ch=1 n=f#3 v=64
9869 On ch=1 n=f#5 v=0
9869 On ch=1 n=a#5 v=0
9871 On ch=1 n=d#6 v=64
9871 On ch=1 n=d#5 v=64
9878 Par ch=1 c=7 v=82
9909 On ch=1 n=d#5 v=0
9909 On ch=1 n=d#6 v=0
9911 On ch=1 n=a#5 v=64
9911 On ch=1 n=f#5 v=64
9911 On ch=1 n=f#4 v=64
9911 On ch=1 n=a#4 v=64
9949 On ch=1 n=a#4 v=0
9949 On ch=1 n=f#4 v=0
9949 On ch=1 n=f#5 v=0
9949 On ch=1 n=a#5 v=0
9951 On ch=1 n=d#6 v=64
9951 On ch=1 n=d#5 v=64
9974 Par ch=1 c=7 v=81
9989 On ch=1 n=d#5 v=0
9989 On ch=1 n=d#6 v=0
9991 On ch=1 n=a#5 v=64
9991 On ch=1 n=f#5 v=64
9991 On ch=1 n=f#4 v=64
9991 On ch=1 n=a#4 v=64
10009 On ch=1 n=f#3 v=0
10009 On ch=1 n=f#3 v=0
10029 On ch=1 n=a#4 v=0
10029 On ch=1 n=f#4 v=0
10029 On ch=1 n=f#5 v=0
10029 On ch=1 n=a#5 v=0
10031 On ch=1 n=d#6 v=64
10031 On ch=1 n=d#5 v=64
10069 On ch=1 n=d#5 v=0
10069 On ch=1 n=d#6 v=0
10070 Par ch=1 c=7 v=80
10071 On ch=1 n=a#5 v=64
10071 On ch=1 n=f#5 v=64
10071 On ch=1 n=a#2 v=64
10071 On ch=1 n=a#2 v=64
10109 On ch=1 n=f#5 v=0
10109 On ch=1 n=a#5 v=0
10111 On ch=1 n=d#5 v=64
10111 On ch=1 n=d#6 v=64
10149 On ch=1 n=d#6 v=0
10149 On ch=1 n=d#5 v=0
10151 On ch=1 n=a#4 v=64
10151 On ch=1 n=f#4 v=64
10151 On ch=1 n=a#5 v=64
10151 On ch=1 n=f#5 v=64
10189 On ch=1 n=f#5 v=0
10189 On ch=1 n=a#5 v=0
10189 On ch=1 n=f#4 v=0
10189 On ch=1 n=a#4 v=0
10191 On ch=1 n=d#5 v=64
10191 On ch=1 n=d#6 v=64
10229 On ch=1 n=d#6 v=0
10229 On ch=1 n=d#5 v=0
10231 On ch=1 n=a#4 v=64
10231 On ch=1 n=f#4 v=64
10231 On ch=1 n=a#5 v=64
10231 On ch=1 n=f#5 v=64
10249 On ch=1 n=a#2 v=0
10249 On ch=1 n=a#2 v=0
10269 On ch=1 n=f#5 v=0
10269 On ch=1 n=a#5 v=0
10269 On ch=1 n=f#4 v=0
10269 On ch=1 n=a#4 v=0
10271 On ch=1 n=d#5 v=64
10271 On ch=1 n=d#6 v=64
10271 Par ch=1 c=64 v=0
10303 Par ch=1 c=64 v=96
10309 On ch=1 n=d#6 v=0
10309 On ch=1 n=d#5 v=0
10311 On ch=1 n=a#4 v=64
10319 On ch=1 n=f#5 v=64
10325 On ch=1 n=a#5 v=63
10333 On ch=1 n=f#7 v=62
10333 On ch=1 n=f#7 v=62
10349 On ch=1 n=f#5 v=0
10349 On ch=1 n=a#4 v=0
10350 On ch=1 n=a#5 v=0
10351 On ch=1 n=a#4 v=64
10351 On ch=1 n=f#6 v=64
10389 On ch=1 n=f#6 v=0
10389 On ch=1 n=a#4 v=0
10391 On ch=1 n=f#5 v=64
10391 On ch=1 n=a#5 v=64
10429 On ch=1 n=a#5 v=0
10429 On ch=1 n=f#5 v=0
10431 On ch=1 n=a#4 v=64
10431 On ch=1 n=f#6 v=64
10469 On ch=1 n=f#6 v=0
10469 On ch=1 n=a#4 v=0
10471 On ch=1 n=f#5 v=64
10471 On ch=1 n=a#5 v=64
10490 On ch=1 n=f#7 v=0
10490 On ch=1 n=f#7 v=0
10509 On ch=1 n=a#5 v=0
10509 On ch=1 n=f#5 v=0
10511 On ch=1 n=a#4 v=64
10511 On ch=1 n=f#6 v=64
10549 On ch=1 n=f#6 v=0
10549 On ch=1 n=a#4 v=0
10551 On ch=1 n=a4 v=64
10560 On ch=1 n=f5 v=64
10568 On ch=1 n=a5 v=62
10574 On ch=1 n=f7 v=64
10574 On ch=1 n=f7 v=64
10589 On ch=1 n=a4 v=0
10591 On ch=1 n=f6 v=64
10591 On ch=1 n=a4 v=64
10593 On ch=1 n=a5 v=0
10593 On ch=1 n=f5 v=0
10629 On ch=1 n=a4 v=0
10629 On ch=1 n=f6 v=0
10631 On ch=1 n=f5 v=64
10631 On ch=1 n=a5 v=64
10669 On ch=1 n=a5 v=0
10669 On ch=1 n=f5 v=0
10671 On ch=1 n=f6 v=64
10671 On ch=1 n=a4 v=64
10709 On ch=1 n=a4 v=0
10709 On ch=1 n=f6 v=0
10711 On ch=1 n=f5 v=64
10711 On ch=1 n=a5 v=64
10734 On ch=1 n=f7 v=0
10734 On ch=1 n=f7 v=0
10749 On ch=1 n=a5 v=0
10749 On ch=1 n=f5 v=0
10751 On ch=1 n=f6 v=64
10751 On ch=1 n=a4 v=64
10789 On ch=1 n=a4 v=0
10789 On ch=1 n=f6 v=0
10791 On ch=1 n=f#4 v=64
10799 On ch=1 n=d#5 v=64
10806 On ch=1 n=f#5 v=62
10817 On ch=1 n=d#7 v=63
10817 On ch=1 n=d#7 v=63
10829 On ch=1 n=f#4 v=0
10831 On ch=1 n=d#5 v=0
10831 On ch=1 n=f#4 v=64
10831 On ch=1 n=d#6 v=64
10832 On ch=1 n=f#5 v=0
10869 On ch=1 n=d#6 v=0
10869 On ch=1 n=f#4 v=0
10871 On ch=1 n=d#5 v=64
10871 On ch=1 n=f#5 v=64
10909 On ch=1 n=f#5 v=0
10909 On ch=1 n=d#5 v=0
10911 On ch=1 n=f#4 v=64
10911 On ch=1 n=d#6 v=64
10949 On ch=1 n=d#6 v=0
10949 On ch=1 n=f#4 v=0
10951 On ch=1 n=d#5 v=64
10951 On ch=1 n=f#5 v=64
10969 On ch=1 n=d#7 v=0
10969 On ch=1 n=d#7 v=0
10989 On ch=1 n=f#5 v=0
10989 On ch=1 n=d#5 v=0
10991 On ch=1 n=f#4 v=64
10991 On ch=1 n=d#6 v=64
10991 Par ch=1 c=64 v=0
11023 Par ch=1 c=64 v=96
11029 On ch=1 n=d#6 v=0
11029 On ch=1 n=f#4 v=0
11031 On ch=1 n=f4 v=64
11041 On ch=1 n=c#5 v=64
11046 On ch=1 n=f5 v=65
11052 On ch=1 n=c#7 v=62
11052 On ch=1 n=c#7 v=62
11069 On ch=1 n=f4 v=0
11071 On ch=1 n=f4 v=64
11071 On ch=1 n=c#6 v=64
11073 On ch=1 n=f5 v=0
11073 On ch=1 n=c#5 v=0
11109 On ch=1 n=c#6 v=0
11109 On ch=1 n=f4 v=0
11111 On ch=1 n=c#5 v=64
11111 On ch=1 n=f5 v=64
11149 On ch=1 n=f5 v=0
11149 On ch=1 n=c#5 v=0
11151 On ch=1 n=f4 v=64
11151 On ch=1 n=c#6 v=64
11189 On ch=1 n=c#6 v=0
11189 On ch=1 n=f4 v=0
11191 On ch=1 n=c#5 v=64
11191 On ch=1 n=f5 v=64
11209 On ch=1 n=c#7 v=0
11209 On ch=1 n=c#7 v=0
11229 On ch=1 n=f5 v=0
11229 On ch=1 n=c#5 v=0
11231 On ch=1 n=f4 v=64
11231 On ch=1 n=c#6 v=64
11269 On ch=1 n=c#6 v=0
11269 On ch=1 n=f4 v=0
11271 On ch=1 n=d#4 v=64
11280 On ch=1 n=c5 v=64
11288 On ch=1 n=f5 v=63
11294 On ch=1 n=c7 v=64
11294 On ch=1 n=c7 v=64
11309 On ch=1 n=d#4 v=0
11311 On ch=1 n=f5 v=0
11311 On ch=1 n=d#4 v=64
11311 On ch=1 n=c6 v=64
11314 On ch=1 n=c5 v=0
11349 On ch=1 n=c6 v=0
11349 On ch=1 n=d#4 v=0
11351 On ch=1 n=c5 v=64
11351 On ch=1 n=f5 v=64
11389 On ch=1 n=f5 v=0
11389 On ch=1 n=c5 v=0
11391 On ch=1 n=d#4 v=64
11391 On ch=1 n=c6 v=64
11429 On ch=1 n=c6 v=0
11429 On ch=1 n=d#4 v=0
11431 On ch=1 n=c5 v=64
11431 On ch=1 n=f5 v=64
11450 On ch=1 n=c7 v=0
11450 On ch=1 n=c7 v=0
11469 On ch=1 n=f5 v=0
11469 On ch=1 n=c5 v=0
11471 On ch=1 n=d#4 v=64
11471 On ch=1 n=c6 v=64
11471 Par ch=1 c=64 v=0
11503 Par ch=1 c=64 v=96
11509 On ch=1 n=c6 v=0
11509 On ch=1 n=d#4 v=0
11511 On ch=1 n=c#4 v=64
11520 On ch=1 n=a#4 v=64
11526 On ch=1 n=f5 v=63
11534 On ch=1 n=a#6 v=62
11534 On ch=1 n=a#6 v=62
11549 On ch=1 n=f5 v=0
11549 On ch=1 n=c#4 v=0
11550 On ch=1 n=a#4 v=0
11551 On ch=1 n=c#4 v=64
11551 On ch=1 n=a#5 v=64
11589 On ch=1 n=a#5 v=0
11589 On ch=1 n=c#4 v=0
11591 On ch=1 n=a#4 v=64
11591 On ch=1 n=f5 v=64
11629 On ch=1 n=f5 v=0
11629 On ch=1 n=a#4 v=0
11631 On ch=1 n=c#4 v=64
11631 On ch=1 n=a#5 v=64
11669 On ch=1 n=a#5 v=0
11669 On ch=1 n=c#4 v=0
11671 On ch=1 n=a#4 v=64
11671 On ch=1 n=f5 v=64
11709 On ch=1 n=f5 v=0
11709 On ch=1 n=a#4 v=0
11711 On ch=1 n=c#4 v=64
11711 On ch=1 n=a#5 v=64
11749 On ch=1 n=a#5 v=0
11749 On ch=1 n=c#4 v=0
11751 On ch=1 n=f5 v=64
11751 On ch=1 n=c#5 v=64
11751 On ch=1 n=f#3 v=64
11751 On ch=1 n=f#3 v=64
11789 On ch=1 n=c#5 v=0
11789 On ch=1 n=f5 v=0
11791 On ch=1 n=a#4 v=64
11791 On ch=1 n=a#5 v=64
11829 On ch=1 n=a#5 v=0
11829 On ch=1 n=a#4 v=0
11831 On ch=1 n=c#4 v=64
11831 On ch=1 n=f4 v=64
11831 On ch=1 n=f5 v=64
11831 On ch=1 n=c#5 v=64
11869 On ch=1 n=c#5 v=0
11869 On ch=1 n=f5 v=0
11869 On ch=1 n=f4 v=0
11869 On ch=1 n=c#4 v=0
11871 On ch=1 n=a#4 v=64
11871 On ch=1 n=a#5 v=64
11909 On ch=1 n=a#5 v=0
11909 On ch=1 n=a#4 v=0
11911 On ch=1 n=c#4 v=64
11911 On ch=1 n=f4 v=64
11911 On ch=1 n=f5 v=64
11911 On ch=1 n=c#5 v=64
11929 On ch=1 n=f#3 v=0
11929 On ch=1 n=f#3 v=0
11949 On ch=1 n=c#5 v=0
11949 On ch=1 n=f5 v=0
11949 On ch=1 n=f4 v=0
11949 On ch=1 n=c#4 v=0
11951 On ch=1 n=a#4 v=64
11951 On ch=1 n=a#5 v=64
11989 On ch=1 n=a#5 v=0
11989 On ch=1 n=a#4 v=0
11990 On ch=1 n=a#6 v=0
11990 On ch=1 n=a#6 v=0
11991 On ch=1 n=f5 v=64
11991 On ch=1 n=c#5 v=64
11991 On ch=1 n=f3 v=64
11991 On ch=1 n=f3 v=64
12029 On ch=1 n=c#5 v=0
12029 On ch=1 n=f5 v=0
12031 On ch=1 n=a#4 v=64
12031 On ch=1 n=a#5 v=64
12069 On ch=1 n=a#5 v=0
12069 On ch=1 n=a#4 v=0
12071 On ch=1 n=c#4 v=64
12071 On ch=1 n=f4 v=64
12071 On ch=1 n=f5 v=64
12071 On ch=1 n=c#5 v=64
12109 On ch=1 n=c#5 v=0
12109 On ch=1 n=f5 v=0
12109 On ch=1 n=f4 v=0
12109 On ch=1 n=c#4 v=0
12111 On ch=1 n=a#4 v=64
12111 On ch=1 n=a#5 v=64
12149 On ch=1 n=a#5 v=0
12149 On ch=1 n=a#4 v=0
12151 On ch=1 n=c#4 v=64
12151 On ch=1 n=f4 v=64
12151 On ch=1 n=f5 v=64
12151 On ch=1 n=c#5 v=64
12169 On ch=1 n=f3 v=0
12169 On ch=1 n=f3 v=0
12189 On ch=1 n=c#5 v=0
12189 On ch=1 n=f5 v=0
12189 On ch=1 n=f4 v=0
12189 On ch=1 n=c#4 v=0
12191 On ch=1 n=a#4 v=64
12191 On ch=1 n=a#5 v=64
12229 On ch=1 n=a#5 v=0
12229 On ch=1 n=a#4 v=0
12231 On ch=1 n=f5 v=64
12231 On ch=1 n=c#5 v=64
12231 On ch=1 n=e3 v=64
12231 On ch=1 n=e3 v=64
12269 On ch=1 n=c#5 v=0
12269 On ch=1 n=f5 v=0
12271 On ch=1 n=a#4 v=64
12271 On ch=1 n=a#5 v=64
12309 On ch=1 n=a#5 v=0
12309 On ch=1 n=a#4 v=0
12311 On ch=1 n=c#4 v=64
12311 On ch=1 n=f4 v=64
12311 On ch=1 n=f5 v=64
12311 On ch=1 n=c#5 v=64
12349 On ch=1 n=c#5 v=0
12349 On ch=1 n=f5 v=0
12349 On ch=1 n=f4 v=0
12349 On ch=1 n=c#4 v=0
12351 On ch=1 n=a#4 v=64
12351 On ch=1 n=a#5 v=64
12389 On ch=1 n=a#5 v=0
12389 On ch=1 n=a#4 v=0
12391 On ch=1 n=c#4 v=64
12391 On ch=1 n=f4 v=64
12391 On ch=1 n=f5 v=64
12391 On ch=1 n=c#5 v=64
12409 On ch=1 n=e3 v=0
12409 On ch=1 n=e3 v=0
12429 On ch=1 n=c#5 v=0
12429 On ch=1 n=f5 v=0
12429 On ch=1 n=f4 v=0
12429 On ch=1 n=c#4 v=0
12431 On ch=1 n=a#4 v=64
12431 On ch=1 n=a#5 v=64
12431 Par ch=1 c=64 v=0
12463 Par ch=1 c=64 v=96
12469 On ch=1 n=a#5 v=0
12469 On ch=1 n=a#4 v=0
12471 On ch=1 n=f5 v=64
12471 On ch=1 n=c#5 v=64
12471 On ch=1 n=f3 v=64
12471 On ch=1 n=f3 v=64
12509 On ch=1 n=c#5 v=0
12509 On ch=1 n=f5 v=0
12511 On ch=1 n=a#4 v=64
12511 On ch=1 n=a#5 v=64
12549 On ch=1 n=a#5 v=0
12549 On ch=1 n=a#4 v=0
12551 On ch=1 n=c#4 v=64
12551 On ch=1 n=f4 v=64
12551 On ch=1 n=f5 v=64
12551 On ch=1 n=c#5 v=64
12589 On ch=1 n=c#5 v=0
12589 On ch=1 n=f5 v=0
12589 On ch=1 n=f4 v=0
12589 On ch=1 n=c#4 v=0
12591 On ch=1 n=a#4 v=64
12591 On ch=1 n=a#5 v=64
12629 On ch=1 n=a#5 v=0
12629 On ch=1 n=a#4 v=0
12631 On ch=1 n=c#4 v=64
12631 On ch=1 n=f4 v=64
12631 On ch=1 n=f5 v=64
12631 On ch=1 n=c#5 v=64
12649 On ch=1 n=f3 v=0
12649 On ch=1 n=f3 v=0
12669 On ch=1 n=c#5 v=0
12669 On ch=1 n=f5 v=0
12669 On ch=1 n=f4 v=0
12669 On ch=1 n=c#4 v=0
12671 On ch=1 n=a#4 v=64
12671 On ch=1 n=a#5 v=64
12709 On ch=1 n=a#5 v=0
12709 On ch=1 n=a#4 v=0
12711 Par ch=1 c=7 v=80
12711 On ch=1 n=a#2 v=64
12711 On ch=1 n=a#5 v=64
12711 On ch=1 n=a#6 v=64
12711 On ch=1 n=a#2 v=64
12711 On ch=1 n=a#5 v=64
12711 On ch=1 n=a#6 v=64
12751 On ch=1 n=f6 v=64
12751 On ch=1 n=c#6 v=64
12758 Par ch=1 c=7 v=81
12789 On ch=1 n=c#6 v=0
12789 On ch=1 n=f6 v=0
12791 On ch=1 n=a#5 v=64
12806 Par ch=1 c=7 v=82
12829 On ch=1 n=a#5 v=0
12831 On ch=1 n=f4 v=64
12831 On ch=1 n=c#5 v=64
12831 On ch=1 n=f5 v=64
12831 On ch=1 n=f6 v=64
12831 On ch=1 n=c#6 v=64
12854 Par ch=1 c=7 v=83
12869 On ch=1 n=c#6 v=0
12869 On ch=1 n=f6 v=0
12871 On ch=1 n=a#5 v=64
12902 Par ch=1 c=7 v=84
12909 On ch=1 n=a#5 v=0
12911 On ch=1 n=f6 v=64
12911 On ch=1 n=c#6 v=64
12911 Par ch=1 c=64 v=0
12943 Par ch=1 c=64 v=96
12949 On ch=1 n=c#6 v=0
12949 On ch=1 n=f6 v=0
12949 On ch=1 n=a#5 v=0
12949 On ch=1 n=f5 v=0
12949 On ch=1 n=c#5 v=0
12949 On ch=1 n=f4 v=0
12949 On ch=1 n=a#5 v=0
12949 On ch=1 n=a#6 v=0
12949 On ch=1 n=a#2 v=0
12949 On ch=1 n=a#6 v=0
12949 On ch=1 n=a#2 v=0
12950 Par ch=1 c=7 v=85
12951 On ch=1 n=a#5 v=64
12951 On ch=1 n=a#6 v=64
12951 On ch=1 n=c3 v=64
12951 On ch=1 n=a#5 v=64
12951 On ch=1 n=a#6 v=64
12951 On ch=1 n=c3 v=64
12991 On ch=1 n=f#6 v=64
12991 On ch=1 n=d#6 v=64
13029 On ch=1 n=d#6 v=0
13029 On ch=1 n=f#6 v=0
13031 On ch=1 n=a#5 v=64
13069 On ch=1 n=a#5 v=0
13071 On ch=1 n=f#5 v=64
13071 On ch=1 n=d#5 v=64
13071 On ch=1 n=f#4 v=64
13071 On ch=1 n=f#6 v=64
13071 On ch=1 n=d#6 v=64
13109 On ch=1 n=d#6 v=0
13109 On ch=1 n=f#6 v=0
13111 On ch=1 n=a#5 v=64
13149 On ch=1 n=a#5 v=0
13151 On ch=1 n=f#6 v=64
13151 On ch=1 n=d#6 v=64
13189 On ch=1 n=d#6 v=0
13189 On ch=1 n=f#6 v=0
13189 On ch=1 n=a#5 v=0
13189 On ch=1 n=f#4 v=0
13189 On ch=1 n=d#5 v=0
13189 On ch=1 n=f#5 v=0
13189 On ch=1 n=a#5 v=0
13189 On ch=1 n=c3 v=0
13189 On ch=1 n=a#6 v=0
13189 On ch=1 n=c3 v=0
13189 On ch=1 n=a#6 v=0
13191 On ch=1 n=g5 v=64
13191 On ch=1 n=g6 v=64
13191 On ch=1 n=d#3 v=64
13191 On ch=1 n=g5 v=64
13191 On ch=1 n=g6 v=64
13191 On ch=1 n=d#3 v=64
13231 On ch=1 n=f#6 v=64
13231 On ch=1 n=d#6 v=64
13269 On ch=1 n=d#6 v=0
13269 On ch=1 n=f#6 v=0
13271 On ch=1 n=g5 v=64
13309 On ch=1 n=g5 v=0
13311 On ch=1 n=f#5 v=64
13311 On ch=1 n=d#5 v=64
13311 On ch=1 n=f#4 v=64
13311 On ch=1 n=f#6 v=64
13311 On ch=1 n=d#6 v=64
13349 On ch=1 n=d#6 v=0
13349 On ch=1 n=f#6 v=0
13351 On ch=1 n=g5 v=64
13389 On ch=1 n=g5 v=0
13391 On ch=1 n=f#6 v=64
13391 On ch=1 n=d#6 v=64
13391 Par ch=1 c=64 v=0
13423 Par ch=1 c=64 v=96
13429 On ch=1 n=d#6 v=0
13429 On ch=1 n=f#6 v=0
13429 On ch=1 n=g5 v=0
13429 On ch=1 n=f#4 v=0
13429 On ch=1 n=d#5 v=0
13429 On ch=1 n=f#5 v=0
13429 On ch=1 n=g5 v=0
13429 On ch=1 n=d#3 v=0
13429 On ch=1 n=g6 v=0
13429 On ch=1 n=d#3 v=0
13429 On ch=1 n=g6 v=0
13431 On ch=1 n=g#5 v=64
13431 On ch=1 n=g#6 v=64
13431 On ch=1 n=g#3 v=64
13431 On ch=1 n=g#5 v=64
13431 On ch=1 n=g#6 v=64
13431 On ch=1 n=g#3 v=64
13471 On ch=1 n=d#6 v=64
13471 On ch=1 n=c6 v=64
13509 On ch=1 n=c6 v=0
13509 On ch=1 n=d#6 v=0
13511 On ch=1 n=g#5 v=64
13549 On ch=1 n=g#5 v=0
13551 On ch=1 n=f#5 v=64
13551 On ch=1 n=d#5 v=64
13551 On ch=1 n=f#4 v=64
13551 On ch=1 n=d#6 v=64
13551 On ch=1 n=c6 v=64
13589 On ch=1 n=c6 v=0
13589 On ch=1 n=d#6 v=0
13591 On ch=1 n=g#5 v=64
13629 On ch=1 n=g#5 v=0
13631 On ch=1 n=d#6 v=64
13631 On ch=1 n=c6 v=64
13631 Par ch=1 c=64 v=0
13663 Par ch=1 c=64 v=96
13669 On ch=1 n=c6 v=0
13669 On ch=1 n=d#6 v=0
13669 On ch=1 n=g#5 v=0
13669 On ch=1 n=f#4 v=0
13669 On ch=1 n=d#5 v=0
13669 On ch=1 n=f#5 v=0
13669 On ch=1 n=g#5 v=0
13669 On ch=1 n=g#3 v=0
13669 On ch=1 n=g#6 v=0
13669 On ch=1 n=g#3 v=0
13669 On ch=1 n=g#6 v=0
13671 Par ch=1 c=7 v=85
13671 On ch=1 n=a5 v=64
13671 On ch=1 n=a6 v=64
13671 On ch=1 n=c3 v=64
13671 On ch=1 n=a5 v=64
13671 On ch=1 n=a6 v=64
13671 On ch=1 n=c3 v=64
13711 On ch=1 n=f#6 v=64
13711 On ch=1 n=d#6 v=64
13718 Par ch=1 c=7 v=84
13749 On ch=1 n=d#6 v=0
13749 On ch=1 n=f#6 v=0
13751 On ch=1 n=a5 v=64
13766 Par ch=1 c=7 v=83
13789 On ch=1 n=a5 v=0
13791 On ch=1 n=f#5 v=64
13791 On ch=1 n=d#5 v=64
13791 On ch=1 n=f#4 v=64
13791 On ch=1 n=f#6 v=64
13791 On ch=1 n=d#6 v=64
13814 Par ch=1 c=7 v=82
13829 On ch=1 n=d#6 v=0
13829 On ch=1 n=f#6 v=0
13831 On ch=1 n=a5 v=64
13862 Par ch=1 c=7 v=81
13869 On ch=1 n=a5 v=0
13871 On ch=1 n=f#6 v=64
13871 On ch=1 n=d#6 v=64
13909 On ch=1 n=d#6 v=0
13909 On ch=1 n=f#6 v=0
13909 On ch=1 n=a5 v=0
13909 On ch=1 n=f#4 v=0
13909 On ch=1 n=d#5 v=0
13909 On ch=1 n=f#5 v=0
13909 On ch=1 n=a5 v=0
13909 On ch=1 n=c3 v=0
13909 On ch=1 n=a6 v=0
13909 On ch=1 n=c3 v=0
13909 On ch=1 n=a6 v=0
13910 Par ch=1 c=7 v=80
13911 On ch=1 n=g5 v=64
13911 On ch=1 n=g6 v=64
13911 On ch=1 n=d#3 v=64
13911 On ch=1 n=g5 v=64
13911 On ch=1 n=g6 v=64
13911 On ch=1 n=d#3 v=64
13951 On ch=1 n=f#6 v=64
13951 On ch=1 n=d#6 v=64
13989 On ch=1 n=d#6 v=0
13989 On ch=1 n=f#6 v=0
13991 On ch=1 n=g5 v=64
14029 On ch=1 n=g5 v=0
14031 On ch=1 n=f#5 v=64
14031 On ch=1 n=d#5 v=64
14031 On ch=1 n=f#4 v=64
14031 On ch=1 n=f#6 v=64
14031 On ch=1 n=d#6 v=64
14069 On ch=1 n=d#6 v=0
14069 On ch=1 n=f#6 v=0
14071 On ch=1 n=g5 v=64
14109 On ch=1 n=g5 v=0
14111 On ch=1 n=f#6 v=64
14111 On ch=1 n=d#6 v=64
14111 Par ch=1 c=64 v=0
14143 Par ch=1 c=64 v=96
14149 On ch=1 n=d#6 v=0
14149 On ch=1 n=f#6 v=0
14149 On ch=1 n=g5 v=0
14149 On ch=1 n=f#4 v=0
14149 On ch=1 n=d#5 v=0
14149 On ch=1 n=f#5 v=0
14149 On ch=1 n=g5 v=0
14149 On ch=1 n=d#3 v=0
14149 On ch=1 n=g6 v=0
14149 On ch=1 n=d#3 v=0
14149 On ch=1 n=g6 v=0
14151 Par ch=1 c=7 v=80
14151 On ch=1 n=g#5 v=64
14151 On ch=1 n=g#6 v=64
14151 On ch=1 n=g#3 v=64
14151 On ch=1 n=g#5 v=64
14151 On ch=1 n=g#6 v=64
14151 On ch=1 n=g#3 v=64
14191 On ch=1 n=d#6 v=64
14191 On ch=1 n=c6 v=64
14198 Par ch=1 c=7 v=81
14229 On ch=1 n=c6 v=0
14229 On ch=1 n=d#6 v=0
14231 On ch=1 n=g#5 v=64
14246 Par ch=1 c=7 v=82
14269 On ch=1 n=g#5 v=0
14271 On ch=1 n=d#5 v=64
14271 On ch=1 n=c5 v=64
14271 On ch=1 n=f#4 v=64
14271 On ch=1 n=d#6 v=64
14271 On ch=1 n=c6 v=64
14294 Par ch=1 c=7 v=83
14309 On ch=1 n=c6 v=0
14309 On ch=1 n=d#6 v=0
14311 On ch=1 n=g#5 v=64
14342 Par ch=1 c=7 v=84
14349 On ch=1 n=g#5 v=0
14351 On ch=1 n=d#6 v=64
14351 On ch=1 n=c6 v=64
14351 Par ch=1 c=64 v=0
14383 Par ch=1 c=64 v=96
14389 On ch=1 n=c6 v=0
14389 On ch=1 n=d#6 v=0
14389 On ch=1 n=g#5 v=0
14389 On ch=1 n=f#4 v=0
14389 On ch=1 n=c5 v=0
14389 On ch=1 n=d#5 v=0
14389 On ch=1 n=g#5 v=0
14389 On ch=1 n=g#3 v=0
14389 On ch=1 n=g#6 v=0
14389 On ch=1 n=g#3 v=0
14389 On ch=1 n=g#6 v=0
14390 Par ch=1 c=7 v=85
14391 On ch=1 n=c#3 v=64
14391 On ch=1 n=c#3 v=64
14431 On ch=1 n=e6 v=64
14431 On ch=1 n=e7 v=64
14431 On ch=1 n=e6 v=64
14431 On ch=1 n=e7 v=64
14471 On ch=1 n=c5 v=64
14471 On ch=1 n=g#4 v=64
14509 On ch=1 n=g#4 v=0
14509 On ch=1 n=c5 v=0
14511 On ch=1 n=g#5 v=64
14511 On ch=1 n=e5 v=64
14549 On ch=1 n=e5 v=0
14549 On ch=1 n=g#5 v=0
14551 On ch=1 n=c5 v=64
14551 On ch=1 n=g#4 v=64
14589 On ch=1 n=g#4 v=0
14589 On ch=1 n=c5 v=0
14591 On ch=1 n=g#5 v=64
14591 On ch=1 n=e5 v=64
14629 On ch=1 n=e5 v=0
14629 On ch=1 n=g#5 v=0
14631 On ch=1 n=c5 v=64
14631 On ch=1 n=g#4 v=64
14669 On ch=1 n=g#4 v=0
14669 On ch=1 n=c5 v=0
14671 On ch=1 n=g#5 v=64
14671 On ch=1 n=e5 v=64
14709 On ch=1 n=e5 v=0
14709 On ch=1 n=g#5 v=0
14711 On ch=1 n=c5 v=64
14711 On ch=1 n=g#4 v=64
14749 On ch=1 n=g#4 v=0
14749 On ch=1 n=c5 v=0
14751 On ch=1 n=g#5 v=64
14751 On ch=1 n=e5 v=64
14789 On ch=1 n=e5 v=0
14789 On ch=1 n=g#5 v=0
14791 On ch=1 n=c5 v=64
14791 On ch=1 n=g#4 v=64
14829 On ch=1 n=g#4 v=0
14829 On ch=1 n=c5 v=0
14831 On ch=1 n=g#5 v=64
14831 On ch=1 n=e5 v=64
14869 On ch=1 n=e5 v=0
14869 On ch=1 n=g#5 v=0
14869 On ch=1 n=e7 v=0
14869 On ch=1 n=e6 v=0
14869 On ch=1 n=e7 v=0
14869 On ch=1 n=e6 v=0
14869 On ch=1 n=c#3 v=0
14869 On ch=1 n=c#3 v=0
14871 On ch=1 n=c5 v=64
14871 On ch=1 n=g#4 v=64
14909 On ch=1 n=g#4 v=0
14909 On ch=1 n=c5 v=0
14911 On ch=1 n=g#5 v=64
14911 On ch=1 n=e5 v=64
14949 On ch=1 n=e5 v=0
14949 On ch=1 n=g#5 v=0
14951 On ch=1 n=c5 v=64
14951 On ch=1 n=g#4 v=64
14989 On ch=1 n=g#4 v=0
14989 On ch=1 n=c5 v=0
14991 On ch=1 n=g#5 v=64
14991 On ch=1 n=e5 v=64
15029 On ch=1 n=e5 v=0
15029 On ch=1 n=g#5 v=0
15031 On ch=1 n=c5 v=64
15031 On ch=1 n=g#4 v=64
15069 On ch=1 n=g#4 v=0
15069 On ch=1 n=c5 v=0
15071 On ch=1 n=g#5 v=64
15071 On ch=1 n=e5 v=64
15071 Par ch=1 c=64 v=0
15103 Par ch=1 c=64 v=96
15109 On ch=1 n=e5 v=0
15109 On ch=1 n=g#5 v=0
15111 On ch=1 n=c#3 v=64
15111 On ch=1 n=c#3 v=64
15151 On ch=1 n=f6 v=64
15151 On ch=1 n=f7 v=64
15151 On ch=1 n=f6 v=64
15151 On ch=1 n=f7 v=64
15191 On ch=1 n=c#5 v=64
15191 On ch=1 n=g#4 v=64
15229 On ch=1 n=g#4 v=0
15229 On ch=1 n=c#5 v=0
15231 On ch=1 n=g#5 v=64
15231 On ch=1 n=f5 v=64
15269 On ch=1 n=f5 v=0
15269 On ch=1 n=g#5 v=0
15271 On ch=1 n=c#5 v=64
15271 On ch=1 n=g#4 v=64
15309 On ch=1 n=g#4 v=0
15309 On ch=1 n=c#5 v=0
15311 On ch=1 n=g#5 v=64
15311 On ch=1 n=f5 v=64
15349 On ch=1 n=f5 v=0
15349 On ch=1 n=g#5 v=0
15351 On ch=1 n=c#5 v=64
15351 On ch=1 n=g#4 v=64
15389 On ch=1 n=g#4 v=0
15389 On ch=1 n=c#5 v=0
15391 On ch=1 n=g#5 v=64
15391 On ch=1 n=f5 v=64
15429 On ch=1 n=f5 v=0
15429 On ch=1 n=g#5 v=0
15431 On ch=1 n=c#5 v=64
15431 On ch=1 n=g#4 v=64
15469 On ch=1 n=g#4 v=0
15469 On ch=1 n=c#5 v=0
15471 On ch=1 n=g#5 v=64
15471 On ch=1 n=f5 v=64
15509 On ch=1 n=f5 v=0
15509 On ch=1 n=g#5 v=0
15511 On ch=1 n=c#5 v=64
15511 On ch=1 n=g#4 v=64
15549 On ch=1 n=g#4 v=0
15549 On ch=1 n=c#5 v=0
15551 On ch=1 n=g#5 v=64
15551 On ch=1 n=f5 v=64
15551 Par ch=1 c=64 v=0
15583 Par ch=1 c=64 v=96
15589 On ch=1 n=f5 v=0
15589 On ch=1 n=g#5 v=0
15589 On ch=1 n=f7 v=0
15589 On ch=1 n=f6 v=0
15589 On ch=1 n=f7 v=0
15589 On ch=1 n=f6 v=0
15589 On ch=1 n=c#3 v=0
15589 On ch=1 n=c#3 v=0
15591 On ch=1 n=f3 v=64
15591 On ch=1 n=f3 v=64
15631 On ch=1 n=c#6 v=64
15631 On ch=1 n=c#7 v=64
15631 On ch=1 n=c#6 v=64
15631 On ch=1 n=c#7 v=64
15671 On ch=1 n=c#5 v=64
15671 On ch=1 n=g#4 v=64
15709 On ch=1 n=g#4 v=0
15709 On ch=1 n=c#5 v=0
15711 On ch=1 n=g#5 v=64
15711 On ch=1 n=f5 v=64
15749 On ch=1 n=f5 v=0
15749 On ch=1 n=g#5 v=0
15751 On ch=1 n=c#5 v=64
15751 On ch=1 n=g#4 v=64
15789 On ch=1 n=g#4 v=0
15789 On ch=1 n=c#5 v=0
15791 On ch=1 n=g#5 v=64
15791 On ch=1 n=f5 v=64
15791 Par ch=1 c=64 v=0
15823 Par ch=1 c=64 v=96
15829 On ch=1 n=f5 v=0
15829 On ch=1 n=g#5 v=0
15829 On ch=1 n=c#7 v=0
15829 On ch=1 n=c#6 v=0
15829 On ch=1 n=c#7 v=0
15829 On ch=1 n=c#6 v=0
15829 On ch=1 n=f3 v=0
15829 On ch=1 n=f3 v=0
15831 On ch=1 n=a#5 v=64
15831 On ch=1 n=a#6 v=64
15831 On ch=1 n=c3 v=64
15831 On ch=1 n=a#5 v=64
15831 On ch=1 n=a#6 v=64
15831 On ch=1 n=c3 v=64
15871 On ch=1 n=f#6 v=64
15871 On ch=1 n=d#6 v=64
15909 On ch=1 n=d#6 v=0
15909 On ch=1 n=f#6 v=0
15911 On ch=1 n=a#5 v=64
15949 On ch=1 n=a#5 v=0
15951 On ch=1 n=f#5 v=64
15951 On ch=1 n=d#5 v=64
15951 On ch=1 n=f#4 v=64
15951 On ch=1 n=f#6 v=64
15951 On ch=1 n=d#6 v=64
15989 On ch=1 n=d#6 v=0
15989 On ch=1 n=f#6 v=0
15991 On ch=1 n=a#5 v=64
16029 On ch=1 n=a#5 v=0
16031 On ch=1 n=f#6 v=64
16031 On ch=1 n=d#6 v=64
16069 On ch=1 n=d#6 v=0
16069 On ch=1 n=f#6 v=0
16069 On ch=1 n=a#5 v=0
16069 On ch=1 n=f#4 v=0
16069 On ch=1 n=d#5 v=0
16069 On ch=1 n=f#5 v=0
16069 On ch=1 n=a#5 v=0
16069 On ch=1 n=c3 v=0
16069 On ch=1 n=a#6 v=0
16069 On ch=1 n=c3 v=0
16069 On ch=1 n=a#6 v=0
16071 On ch=1 n=g5 v=64
16071 On ch=1 n=g6 v=64
16071 On ch=1 n=d#3 v=64
16071 On ch=1 n=g5 v=64
16071 On ch=1 n=g6 v=64
16071 On ch=1 n=d#3 v=64
16111 On ch=1 n=f#6 v=64
16111 On ch=1 n=d#6 v=64
16149 On ch=1 n=d#6 v=0
16149 On ch=1 n=f#6 v=0
16151 On ch=1 n=g5 v=64
16189 On ch=1 n=g5 v=0
16191 On ch=1 n=f#5 v=64
16191 On ch=1 n=d#5 v=64
16191 On ch=1 n=f#4 v=64
16191 On ch=1 n=f#6 v=64
16191 On ch=1 n=d#6 v=64
16229 On ch=1 n=d#6 v=0
16229 On ch=1 n=f#6 v=0
16231 On ch=1 n=g5 v=64
16269 On ch=1 n=g5 v=0
16271 On ch=1 n=f#6 v=64
16271 On ch=1 n=d#6 v=64
16271 Par ch=1 c=64 v=0
16303 Par ch=1 c=64 v=96
16309 On ch=1 n=d#6 v=0
16309 On ch=1 n=f#6 v=0
16309 On ch=1 n=g5 v=0
16309 On ch=1 n=f#4 v=0
16309 On ch=1 n=d#5 v=0
16309 On ch=1 n=f#5 v=0
16309 On ch=1 n=g5 v=0
16309 On ch=1 n=d#3 v=0
16309 On ch=1 n=g6 v=0
16309 On ch=1 n=d#3 v=0
16309 On ch=1 n=g6 v=0
16311 On ch=1 n=g#5 v=64
16311 On ch=1 n=g#6 v=64
16311 On ch=1 n=g#3 v=64
16311 On ch=1 n=g#5 v=64
16311 On ch=1 n=g#6 v=64
16311 On ch=1 n=g#3 v=64
16351 On ch=1 n=d#6 v=64
16351 On ch=1 n=c6 v=64
16389 On ch=1 n=c6 v=0
16389 On ch=1 n=d#6 v=0
16391 On ch=1 n=g#5 v=64
16429 On ch=1 n=g#5 v=0
16431 On ch=1 n=f#5 v=64
16431 On ch=1 n=d#5 v=64
16431 On ch=1 n=f#4 v=64
16431 On ch=1 n=d#6 v=64
16431 On ch=1 n=c6 v=64
16469 On ch=1 n=c6 v=0
16469 On ch=1 n=d#6 v=0
16471 On ch=1 n=g#5 v=64
16509 On ch=1 n=g#5 v=0
16511 On ch=1 n=d#6 v=64
16511 On ch=1 n=c6 v=64
16511 Par ch=1 c=64 v=0
16543 Par ch=1 c=64 v=96
16549 On ch=1 n=c6 v=0
16549 On ch=1 n=d#6 v=0
16549 On ch=1 n=g#5 v=0
16549 On ch=1 n=f#4 v=0
16549 On ch=1 n=d#5 v=0
16549 On ch=1 n=f#5 v=0
16549 On ch=1 n=g#5 v=0
16549 On ch=1 n=g#3 v=0
16549 On ch=1 n=g#6 v=0
16549 On ch=1 n=g#3 v=0
16549 On ch=1 n=g#6 v=0
16551 Par ch=1 c=7 v=80
16551 On ch=1 n=a5 v=64
16551 On ch=1 n=a6 v=64
16551 On ch=1 n=c3 v=64
16551 On ch=1 n=a5 v=64
16551 On ch=1 n=a6 v=64
16551 On ch=1 n=c3 v=64
16591 On ch=1 n=f#6 v=64
16591 On ch=1 n=d#6 v=64
16598 Par ch=1 c=7 v=81
16629 On ch=1 n=d#6 v=0
16629 On ch=1 n=f#6 v=0
16631 On ch=1 n=a5 v=64
16646 Par ch=1 c=7 v=82
16669 On ch=1 n=a5 v=0
16671 On ch=1 n=f#5 v=64
16671 On ch=1 n=d#5 v=64
16671 On ch=1 n=f#4 v=64
16671 On ch=1 n=f#6 v=64
16671 On ch=1 n=d#6 v=64
16694 Par ch=1 c=7 v=83
16709 On ch=1 n=d#6 v=0
16709 On ch=1 n=f#6 v=0
16711 On ch=1 n=a5 v=64
16742 Par ch=1 c=7 v=84
16749 On ch=1 n=a5 v=0
16751 On ch=1 n=f#6 v=64
16751 On ch=1 n=d#6 v=64
16789 On ch=1 n=d#6 v=0
16789 On ch=1 n=f#6 v=0
16789 On ch=1 n=a5 v=0
16789 On ch=1 n=f#4 v=0
16789 On ch=1 n=d#5 v=0
16789 On ch=1 n=f#5 v=0
16789 On ch=1 n=a5 v=0
16789 On ch=1 n=c3 v=0
16789 On ch=1 n=a6 v=0
16789 On ch=1 n=c3 v=0
16789 On ch=1 n=a6 v=0
16790 Par ch=1 c=7 v=85
16791 On ch=1 n=g5 v=64
16791 On ch=1 n=g6 v=64
16791 On ch=1 n=d#3 v=64
16791 On ch=1 n=g5 v=64
16791 On ch=1 n=g6 v=64
16791 On ch=1 n=d#3 v=64
16831 On ch=1 n=f#6 v=64
16831 On ch=1 n=d#6 v=64
16869 On ch=1 n=d#6 v=0
16869 On ch=1 n=f#6 v=0
16871 On ch=1 n=g5 v=64
16909 On ch=1 n=g5 v=0
16911 On ch=1 n=f#5 v=64
16911 On ch=1 n=d#5 v=64
16911 On ch=1 n=f#4 v=64
16911 On ch=1 n=f#6 v=64
16911 On ch=1 n=d#6 v=64
16949 On ch=1 n=d#6 v=0
16949 On ch=1 n=f#6 v=0
16951 On ch=1 n=g5 v=64
16989 On ch=1 n=g5 v=0
16991 On ch=1 n=f#6 v=64
16991 On ch=1 n=d#6 v=64
16991 Par ch=1 c=64 v=0
17023 Par ch=1 c=64 v=96
17029 On ch=1 n=d#6 v=0
17029 On ch=1 n=f#6 v=0
17029 On ch=1 n=g5 v=0
17029 On ch=1 n=f#4 v=0
17029 On ch=1 n=d#5 v=0
17029 On ch=1 n=f#5 v=0
17029 On ch=1 n=g5 v=0
17029 On ch=1 n=d#3 v=0
17029 On ch=1 n=g6 v=0
17029 On ch=1 n=d#3 v=0
17029 On ch=1 n=g6 v=0
17031 On ch=1 n=g#5 v=64
17031 On ch=1 n=g#6 v=64
17031 On ch=1 n=g#3 v=64
17031 On ch=1 n=g#5 v=64
17031 On ch=1 n=g#6 v=64
17031 On ch=1 n=g#3 v=64
17071 On ch=1 n=d#6 v=64
17071 On ch=1 n=c6 v=64
17109 On ch=1 n=c6 v=0
17109 On ch=1 n=d#6 v=0
17111 On ch=1 n=g#5 v=64
17149 On ch=1 n=g#5 v=0
17151 On ch=1 n=d#5 v=64
17151 On ch=1 n=c5 v=64
17151 On ch=1 n=f#4 v=64
17151 On ch=1 n=d#6 v=64
17151 On ch=1 n=c6 v=64
17189 On ch=1 n=c6 v=0
17189 On ch=1 n=d#6 v=0
17191 On ch=1 n=g#5 v=64
17229 On ch=1 n=g#5 v=0
17231 On ch=1 n=d#6 v=64
17231 On ch=1 n=c6 v=64
17231 Par ch=1 c=64 v=0
17263 Par ch=1 c=64 v=96
17269 On ch=1 n=c6 v=0
17269 On ch=1 n=d#6 v=0
17269 On ch=1 n=g#5 v=0
17269 On ch=1 n=f#4 v=0
17269 On ch=1 n=c5 v=0
17269 On ch=1 n=d#5 v=0
17269 On ch=1 n=g#5 v=0
17269 On ch=1 n=g#3 v=0
17269 On ch=1 n=g#6 v=0
17269 On ch=1 n=g#3 v=0
17269 On ch=1 n=g#6 v=0
17271 On ch=1 n=c#3 v=64
17271 On ch=1 n=c#3 v=64
17311 On ch=1 n=e6 v=64
17311 On ch=1 n=e7 v=64
17311 On ch=1 n=e6 v=64
17311 On ch=1 n=e7 v=64
17351 On ch=1 n=c5 v=64
17351 On ch=1 n=g#4 v=64
17389 On ch=1 n=g#4 v=0
17389 On ch=1 n=c5 v=0
17391 On ch=1 n=g#5 v=64
17391 On ch=1 n=e5 v=64
17429 On ch=1 n=e5 v=0
17429 On ch=1 n=g#5 v=0
17431 On ch=1 n=c5 v=64
17431 On ch=1 n=g#4 v=64
17469 On ch=1 n=g#4 v=0
17469 On ch=1 n=c5 v=0
17471 On ch=1 n=g#5 v=64
17471 On ch=1 n=e5 v=64
17509 On ch=1 n=e5 v=0
17509 On ch=1 n=g#5 v=0
17511 On ch=1 n=c5 v=64
17511 On ch=1 n=g#4 v=64
17549 On ch=1 n=g#4 v=0
17549 On ch=1 n=c5 v=0
17551 On ch=1 n=g#5 v=64
17551 On ch=1 n=e5 v=64
17589 On ch=1 n=e5 v=0
17589 On ch=1 n=g#5 v=0
17591 On ch=1 n=c5 v=64
17591 On ch=1 n=g#4 v=64
17629 On ch=1 n=g#4 v=0
17629 On ch=1 n=c5 v=0
17631 On ch=1 n=g#5 v=64
17631 On ch=1 n=e5 v=64
17669 On ch=1 n=e5 v=0
17669 On ch=1 n=g#5 v=0
17671 On ch=1 n=c5 v=64
17671 On ch=1 n=g#4 v=64
17709 On ch=1 n=g#4 v=0
17709 On ch=1 n=c5 v=0
17711 On ch=1 n=g#5 v=64
17711 On ch=1 n=e5 v=64
17711 Par ch=1 c=64 v=0
17743 Par ch=1 c=64 v=96
17749 On ch=1 n=e5 v=0
17749 On ch=1 n=g#5 v=0
17749 On ch=1 n=e7 v=0
17749 On ch=1 n=e6 v=0
17749 On ch=1 n=e7 v=0
17749 On ch=1 n=e6 v=0
17749 On ch=1 n=c#3 v=0
17749 On ch=1 n=c#3 v=0
17751 On ch=1 n=c#3 v=64
17751 On ch=1 n=c#3 v=64
17791 On ch=1 n=f6 v=64
17791 On ch=1 n=f7 v=64
17791 On ch=1 n=f6 v=64
17791 On ch=1 n=f7 v=64
17831 On ch=1 n=c#5 v=64
17831 On ch=1 n=g#4 v=64
17869 On ch=1 n=g#4 v=0
17869 On ch=1 n=c#5 v=0
17871 On ch=1 n=g#5 v=64
17871 On ch=1 n=f5 v=64
17909 On ch=1 n=f5 v=0
17909 On ch=1 n=g#5 v=0
17911 On ch=1 n=c#5 v=64
17911 On ch=1 n=g#4 v=64
17949 On ch=1 n=g#4 v=0
17949 On ch=1 n=c#5 v=0
17951 On ch=1 n=g#5 v=64
17951 On ch=1 n=f5 v=64
17989 On ch=1 n=f5 v=0
17989 On ch=1 n=g#5 v=0
17989 On ch=1 n=f7 v=0
17989 On ch=1 n=f6 v=0
17989 On ch=1 n=f7 v=0
17989 On ch=1 n=f6 v=0
17989 On ch=1 n=c#3 v=0
17989 On ch=1 n=c#3 v=0
17991 On ch=1 n=c#3 v=64
17991 On ch=1 n=c#3 v=64
18031 On ch=1 n=f6 v=64
18031 On ch=1 n=f7 v=64
18031 On ch=1 n=f6 v=64
18031 On ch=1 n=f7 v=64
18071 On ch=1 n=c#5 v=64
18071 On ch=1 n=g#4 v=64
18109 On ch=1 n=g#4 v=0
18109 On ch=1 n=c#5 v=0
18111 On ch=1 n=g#5 v=64
18111 On ch=1 n=f5 v=64
18149 On ch=1 n=f5 v=0
18149 On ch=1 n=g#5 v=0
18151 On ch=1 n=c#5 v=64
18151 On ch=1 n=g#4 v=64
18189 On ch=1 n=g#4 v=0
18189 On ch=1 n=c#5 v=0
18191 On ch=1 n=g#5 v=64
18191 On ch=1 n=f5 v=64
18191 Par ch=1 c=64 v=0
18223 Par ch=1 c=64 v=96
18229 On ch=1 n=f5 v=0
18229 On ch=1 n=g#5 v=0
18229 On ch=1 n=f7 v=0
18229 On ch=1 n=f6 v=0
18229 On ch=1 n=f7 v=0
18229 On ch=1 n=f6 v=0
18229 On ch=1 n=c#3 v=0
18229 On ch=1 n=c#3 v=0
18231 Par ch=1 c=7 v=85
18231 On ch=1 n=d#3 v=64
18231 On ch=1 n=d#3 v=64
18271 On ch=1 n=d#6 v=64
18271 On ch=1 n=d#7 v=64
18271 On ch=1 n=d#6 v=64
18271 On ch=1 n=d#7 v=64
18311 On ch=1 n=c5 v=64
18311 On ch=1 n=g#4 v=64
18326 Par ch=1 c=7 v=86
18349 On ch=1 n=g#4 v=0
18349 On ch=1 n=c5 v=0
18351 On ch=1 n=g#5 v=64
18351 On ch=1 n=f#5 v=64
18389 On ch=1 n=f#5 v=0
18389 On ch=1 n=g#5 v=0
18391 On ch=1 n=c5 v=64
18391 On ch=1 n=g#4 v=64
18422 Par ch=1 c=7 v=87
18429 On ch=1 n=g#4 v=0
18429 On ch=1 n=c5 v=0
18431 On ch=1 n=g#5 v=64
18431 On ch=1 n=f#5 v=64
18431 Par ch=1 c=64 v=0
18463 Par ch=1 c=64 v=96
18469 On ch=1 n=f#5 v=0
18469 On ch=1 n=g#5 v=0
18471 On ch=1 n=c5 v=64
18471 On ch=1 n=a4 v=64
18509 On ch=1 n=a4 v=0
18509 On ch=1 n=c5 v=0
18511 On ch=1 n=f#5 v=64
18511 On ch=1 n=a5 v=64
18518 Par ch=1 c=7 v=88
18549 On ch=1 n=a5 v=0
18549 On ch=1 n=f#5 v=0
18551 On ch=1 n=c5 v=64
18551 On ch=1 n=a4 v=64
18589 On ch=1 n=a4 v=0
18589 On ch=1 n=c5 v=0
18591 On ch=1 n=f#5 v=64
18591 On ch=1 n=a5 v=64
18614 Par ch=1 c=7 v=89
18629 On ch=1 n=a5 v=0
18629 On ch=1 n=f#5 v=0
18631 On ch=1 n=c5 v=64
18631 On ch=1 n=a4 v=64
18669 On ch=1 n=a4 v=0
18669 On ch=1 n=c5 v=0
18671 On ch=1 n=f#5 v=64
18671 On ch=1 n=a5 v=64
18709 On ch=1 n=a5 v=0
18709 On ch=1 n=f#5 v=0
18709 On ch=1 n=d#7 v=0
18709 On ch=1 n=d#6 v=0
18709 On ch=1 n=d#7 v=0
18709 On ch=1 n=d#6 v=0
18709 On ch=1 n=d#3 v=0
18709 On ch=1 n=d#3 v=0
18710 Par ch=1 c=7 v=90
18711 On ch=1 n=d#3 v=64
18711 On ch=1 n=d#3 v=64
18751 On ch=1 n=d#6 v=64
18751 On ch=1 n=d#7 v=64
18751 On ch=1 n=d#6 v=64
18751 On ch=1 n=d#7 v=64
18791 On ch=1 n=c5 v=64
18791 On ch=1 n=a4 v=64
18829 On ch=1 n=a4 v=0
18829 On ch=1 n=c5 v=0
18831 On ch=1 n=f#5 v=64
18831 On ch=1 n=a5 v=64
18869 On ch=1 n=a5 v=0
18869 On ch=1 n=f#5 v=0
18871 On ch=1 n=c5 v=64
18871 On ch=1 n=a4 v=64
18909 On ch=1 n=a4 v=0
18909 On ch=1 n=c5 v=0
18911 On ch=1 n=f#5 v=64
18911 On ch=1 n=a5 v=64
18911 Par ch=1 c=64 v=0
18943 Par ch=1 c=64 v=96
18949 On ch=1 n=a5 v=0
18949 On ch=1 n=f#5 v=0
18949 On ch=1 n=d#7 v=0
18949 On ch=1 n=d#6 v=0
18949 On ch=1 n=d#7 v=0
18949 On ch=1 n=d#6 v=0
18949 On ch=1 n=d#3 v=0
18949 On ch=1 n=d#3 v=0
18951 Par ch=1 c=7 v=85
18951 On ch=1 n=e3 v=64
18951 On ch=1 n=e3 v=64
18991 On ch=1 n=c#7 v=64
18991 On ch=1 n=c#6 v=64
18991 On ch=1 n=c#7 v=64
18991 On ch=1 n=c#6 v=64
19031 On ch=1 n=c#5 v=64
19031 On ch=1 n=a4 v=64
19046 Par ch=1 c=7 v=86
19069 On ch=1 n=a4 v=0
19069 On ch=1 n=c#5 v=0
19071 On ch=1 n=a5 v=64
19071 On ch=1 n=g5 v=64
19109 On ch=1 n=g5 v=0
19109 On ch=1 n=a5 v=0
19111 On ch=1 n=c#5 v=64
19111 On ch=1 n=a4 v=64
19142 Par ch=1 c=7 v=87
19149 On ch=1 n=a4 v=0
19149 On ch=1 n=c#5 v=0
19151 On ch=1 n=a5 v=64
19151 On ch=1 n=g5 v=64
19151 Par ch=1 c=64 v=0
19183 Par ch=1 c=64 v=96
19189 On ch=1 n=g5 v=0
19189 On ch=1 n=a5 v=0
19191 On ch=1 n=c#5 v=64
19191 On ch=1 n=a#4 v=64
19229 On ch=1 n=a#4 v=0
19229 On ch=1 n=c#5 v=0
19231 On ch=1 n=a#5 v=64
19231 On ch=1 n=g5 v=64
19238 Par ch=1 c=7 v=88
19269 On ch=1 n=g5 v=0
19269 On ch=1 n=a#5 v=0
19271 On ch=1 n=c#5 v=64
19271 On ch=1 n=a#4 v=64
19309 On ch=1 n=a#4 v=0
19309 On ch=1 n=c#5 v=0
19311 On ch=1 n=a#5 v=64
19311 On ch=1 n=g5 v=64
19334 Par ch=1 c=7 v=89
19349 On ch=1 n=g5 v=0
19349 On ch=1 n=a#5 v=0
19351 On ch=1 n=c#5 v=64
19351 On ch=1 n=a#4 v=64
19389 On ch=1 n=a#4 v=0
19389 On ch=1 n=c#5 v=0
19391 On ch=1 n=a#5 v=64
19391 On ch=1 n=g5 v=64
19429 On ch=1 n=g5 v=0
19429 On ch=1 n=a#5 v=0
19429 On ch=1 n=c#6 v=0
19429 On ch=1 n=c#7 v=0
19429 On ch=1 n=c#6 v=0
19429 On ch=1 n=c#7 v=0
19429 On ch=1 n=e3 v=0
19429 On ch=1 n=e3 v=0
19430 Par ch=1 c=7 v=90
19431 On ch=1 n=e3 v=64
19431 On ch=1 n=e3 v=64
19471 On ch=1 n=c#6 v=64
19471 On ch=1 n=c#7 v=64
19471 On ch=1 n=c#6 v=64
19471 On ch=1 n=c#7 v=64
19511 On ch=1 n=c#5 v=64
19511 On ch=1 n=a#4 v=64
19549 On ch=1 n=a#4 v=0
19549 On ch=1 n=c#5 v=0
19551 On ch=1 n=a#5 v=64
19551 On ch=1 n=g5 v=64
19589 On ch=1 n=g5 v=0
19589 On ch=1 n=a#5 v=0
19591 On ch=1 n=c#5 v=64
19591 On ch=1 n=a#4 v=64
19629 On ch=1 n=a#4 v=0
19629 On ch=1 n=c#5 v=0
19631 On ch=1 n=a#5 v=64
19631 On ch=1 n=g5 v=64
19631 Par ch=1 c=64 v=0
19663 Par ch=1 c=64 v=96
19669 On ch=1 n=g5 v=0
19669 On ch=1 n=a#5 v=0
19669 On ch=1 n=c#7 v=0
19669 On ch=1 n=c#6 v=0
19669 On ch=1 n=c#7 v=0
19669 On ch=1 n=c#6 v=0
19669 On ch=1 n=e3 v=0
19669 On ch=1 n=e3 v=0
19671 Par ch=1 c=7 v=85
19671 On ch=1 n=f3 v=64
19671 On ch=1 n=f3 v=64
19711 On ch=1 n=c#6 v=64
19711 On ch=1 n=c#7 v=64
19711 On ch=1 n=c#6 v=64
19711 On ch=1 n=c#7 v=64
19751 On ch=1 n=c#5 v=64
19751 On ch=1 n=b4 v=64
19766 Par ch=1 c=7 v=86
19789 On ch=1 n=b4 v=0
19789 On ch=1 n=c#5 v=0
19791 On ch=1 n=g#5 v=64
19791 On ch=1 n=b5 v=64
19829 On ch=1 n=b5 v=0
19829 On ch=1 n=g#5 v=0
19831 On ch=1 n=c#5 v=64
19831 On ch=1 n=b4 v=64
19862 Par ch=1 c=7 v=87
19869 On ch=1 n=b4 v=0
19869 On ch=1 n=c#5 v=0
19871 On ch=1 n=g#5 v=64
19871 On ch=1 n=b5 v=64
19871 Par ch=1 c=64 v=0
19903 Par ch=1 c=64 v=96
19909 On ch=1 n=b5 v=0
19909 On ch=1 n=g#5 v=0
19911 On ch=1 n=c#5 v=64
19911 On ch=1 n=c5 v=64
19943 On ch=1 n=c5 v=0
19943 On ch=1 n=c#5 v=0
19945 On ch=1 n=c6 v=64
19945 On ch=1 n=g#5 v=64
19955 Par ch=1 c=7 v=88
19975 On ch=1 n=g#5 v=0
19975 On ch=1 n=c6 v=0
19977 On ch=1 n=c#5 v=64
19977 On ch=1 n=c5 v=64
20009 On ch=1 n=c5 v=0
20009 On ch=1 n=c#5 v=0
20011 On ch=1 n=c6 v=64
20011 On ch=1 n=g#5 v=64
20043 On ch=1 n=g#5 v=0
20043 On ch=1 n=c6 v=0
20045 On ch=1 n=c#5 v=64
20045 On ch=1 n=c5 v=64
20051 Par ch=1 c=7 v=89
20077 On ch=1 n=c5 v=0
20077 On ch=1 n=c#5 v=0
20079 On ch=1 n=c6 v=64
20079 On ch=1 n=g#5 v=64
20108 Par ch=1 c=64 v=0
20112 On ch=1 n=g#5 v=0
20112 On ch=1 n=c6 v=0
20112 On ch=1 n=c#7 v=0
20112 On ch=1 n=c#7 v=0
20114 On ch=1 n=c#6 v=0
20114 On ch=1 n=c#6 v=0
20114 On ch=1 n=c6 v=64
20114 On ch=1 n=c7 v=64
20114 On ch=1 n=c6 v=64
20114 On ch=1 n=c7 v=64
20140 Par ch=1 c=64 v=96
20146 On ch=1 n=c7 v=0
20146 On ch=1 n=c6 v=0
20146 On ch=1 n=c7 v=0
20146 On ch=1 n=c6 v=0
20146 On ch=1 n=f3 v=0
20146 On ch=1 n=f3 v=0
20147 Par ch=1 c=7 v=90
20148 On ch=1 n=c6 v=64
20148 On ch=1 n=c7 v=64
20148 On ch=1 n=f#3 v=64
20148 On ch=1 n=c6 v=64
20148 On ch=1 n=c7 v=64
20148 On ch=1 n=f#3 v=64
20188 On ch=1 n=f#6 v=64
20188 On ch=1 n=c#6 v=64
20226 On ch=1 n=c#6 v=0
20226 On ch=1 n=f#6 v=0
20228 On ch=1 n=c6 v=64
20266 On ch=1 n=c6 v=0
20268 On ch=1 n=c5 v=64
20268 On ch=1 n=a5 v=64
20268 On ch=1 n=f#6 v=64
20268 On ch=1 n=c#6 v=64
20306 On ch=1 n=c#6 v=0
20306 On ch=1 n=f#6 v=0
20308 On ch=1 n=c6 v=64
20346 On ch=1 n=c6 v=0
20348 On ch=1 n=f#6 v=64
20348 On ch=1 n=c#6 v=64
20386 On ch=1 n=c#6 v=0
20386 On ch=1 n=f#6 v=0
20386 On ch=1 n=c6 v=0
20386 On ch=1 n=a5 v=0
20386 On ch=1 n=c5 v=0
20386 On ch=1 n=c6 v=0
20386 On ch=1 n=f#3 v=0
20386 On ch=1 n=c7 v=0
20386 On ch=1 n=f#3 v=0
20386 On ch=1 n=c7 v=0
20388 On ch=1 n=a5 v=64
20388 On ch=1 n=a6 v=64
20388 On ch=1 n=c#4 v=64
20388 On ch=1 n=a5 v=64
20388 On ch=1 n=a6 v=64
20388 On ch=1 n=c#4 v=64
20428 On ch=1 n=f#6 v=64
20428 On ch=1 n=c#6 v=64
20466 On ch=1 n=c#6 v=0
20466 On ch=1 n=f#6 v=0
20468 On ch=1 n=a5 v=64
20506 On ch=1 n=a5 v=0
20508 On ch=1 n=f#5 v=64
20508 On ch=1 n=a4 v=64
20508 On ch=1 n=f#6 v=64
20508 On ch=1 n=c#6 v=64
20546 On ch=1 n=c#6 v=0
20546 On ch=1 n=f#6 v=0
20548 On ch=1 n=a5 v=64
20586 On ch=1 n=a5 v=0
20588 On ch=1 n=f#6 v=64
20588 On ch=1 n=c#6 v=64
20588 Par ch=1 c=64 v=0
20620 Par ch=1 c=64 v=96
20626 On ch=1 n=c#6 v=0
20626 On ch=1 n=f#6 v=0
20626 On ch=1 n=a5 v=0
20626 On ch=1 n=a4 v=0
20626 On ch=1 n=f#5 v=0
20626 On ch=1 n=a5 v=0
20626 On ch=1 n=c#4 v=0
20626 On ch=1 n=a6 v=0
20626 On ch=1 n=c#4 v=0
20626 On ch=1 n=a6 v=0
20628 On ch=1 n=a#5 v=64
20628 On ch=1 n=a#6 v=64
20628 On ch=1 n=f#3 v=64
20628 On ch=1 n=a#5 v=64
20628 On ch=1 n=a#6 v=64
20628 On ch=1 n=f#3 v=64
20668 On ch=1 n=c#6 v=64
20668 On ch=1 n=f#6 v=64
20706 On ch=1 n=f#6 v=0
20706 On ch=1 n=c#6 v=0
20708 On ch=1 n=a#5 v=64
20746 On ch=1 n=a#5 v=0
20748 On ch=1 n=c#5 v=64
20748 On ch=1 n=a#4 v=64
20748 On ch=1 n=c#6 v=64
20748 On ch=1 n=f#6 v=64
20786 On ch=1 n=f#6 v=0
20786 On ch=1 n=c#6 v=0
20788 On ch=1 n=a#5 v=64
20826 On ch=1 n=a#5 v=0
20828 On ch=1 n=c#6 v=64
20828 On ch=1 n=f#6 v=64
20828 Par ch=1 c=64 v=0
20860 Par ch=1 c=64 v=96
20866 On ch=1 n=f#6 v=0
20866 On ch=1 n=c#6 v=0
20866 On ch=1 n=a#5 v=0
20866 On ch=1 n=a#4 v=0
20866 On ch=1 n=c#5 v=0
20866 On ch=1 n=a#5 v=0
20866 On ch=1 n=f#3 v=0
20866 On ch=1 n=a#6 v=0
20866 On ch=1 n=f#3 v=0
20866 On ch=1 n=a#6 v=0
20868 Par ch=1 c=7 v=90
20868 On ch=1 n=b5 v=64
20868 On ch=1 n=b6 v=64
20868 On ch=1 n=f3 v=64
20868 On ch=1 n=b5 v=64
20868 On ch=1 n=b6 v=64
20868 On ch=1 n=f3 v=64
20908 On ch=1 n=g#6 v=64
20908 On ch=1 n=d6 v=64
20915 Par ch=1 c=7 v=89
20946 On ch=1 n=d6 v=0
20946 On ch=1 n=g#6 v=0
20948 On ch=1 n=b5 v=64
20963 Par ch=1 c=7 v=88
20986 On ch=1 n=b5 v=0
20988 On ch=1 n=g#4 v=64
20988 On ch=1 n=d5 v=64
20988 On ch=1 n=g#6 v=64
20988 On ch=1 n=d6 v=64
21011 Par ch=1 c=7 v=87
21026 On ch=1 n=d6 v=0
21026 On ch=1 n=g#6 v=0
21028 On ch=1 n=b5 v=64
21059 Par ch=1 c=7 v=86
21066 On ch=1 n=b5 v=0
21068 On ch=1 n=g#6 v=64
21068 On ch=1 n=d6 v=64
21100 Par ch=1 c=64 v=96
21106 On ch=1 n=d6 v=0
21106 On ch=1 n=g#6 v=0
21106 On ch=1 n=b5 v=0
21106 On ch=1 n=d5 v=0
21106 On ch=1 n=g#4 v=0
21106 On ch=1 n=b5 v=0
21106 On ch=1 n=f3 v=0
21106 On ch=1 n=b6 v=0
21106 On ch=1 n=f3 v=0
21106 On ch=1 n=b6 v=0
21107 Par ch=1 c=7 v=85
21108 Par ch=1 c=7 v=85
21108 On ch=1 n=a5 v=64
21108 On ch=1 n=a6 v=64
21108 On ch=1 n=d4 v=64
21108 On ch=1 n=a5 v=64
21108 On ch=1 n=a6 v=64
21108 On ch=1 n=d4 v=64
21148 On ch=1 n=f6 v=64
21148 On ch=1 n=d6 v=64
21186 On ch=1 n=d6 v=0
21186 On ch=1 n=f6 v=0
21188 On ch=1 n=a5 v=64
21203 Par ch=1 c=7 v=86
21226 On ch=1 n=a5 v=0
21228 On ch=1 n=f5 v=64
21228 On ch=1 n=g#4 v=64
21228 On ch=1 n=f6 v=64
21228 On ch=1 n=d6 v=64
21266 On ch=1 n=d6 v=0
21266 On ch=1 n=f6 v=0
21268 On ch=1 n=a5 v=64
21299 Par ch=1 c=7 v=87
21306 On ch=1 n=a5 v=0
21308 On ch=1 n=f6 v=64
21308 On ch=1 n=d6 v=64
21308 Par ch=1 c=64 v=0
21340 Par ch=1 c=64 v=96
21346 On ch=1 n=d6 v=0
21346 On ch=1 n=f6 v=0
21346 On ch=1 n=a5 v=0
21346 On ch=1 n=g#4 v=0
21346 On ch=1 n=f5 v=0
21346 On ch=1 n=a5 v=0
21346 On ch=1 n=d4 v=0
21346 On ch=1 n=a6 v=0
21346 On ch=1 n=d4 v=0
21346 On ch=1 n=a6 v=0
21348 On ch=1 n=a#5 v=64
21348 On ch=1 n=a#6 v=64
21348 On ch=1 n=f3 v=64
21348 On ch=1 n=a#5 v=64
21348 On ch=1 n=a#6 v=64
21348 On ch=1 n=f3 v=64
21388 On ch=1 n=f6 v=64
21388 On ch=1 n=d6 v=64
21395 Par ch=1 c=7 v=88
21426 On ch=1 n=d6 v=0
21426 On ch=1 n=f6 v=0
21428 On ch=1 n=a#5 v=64
21466 On ch=1 n=a#5 v=0
21468 On ch=1 n=g#5 v=64
21468 On ch=1 n=g#4 v=64
21468 On ch=1 n=d5 v=64
21468 On ch=1 n=f6 v=64
21468 On ch=1 n=d6 v=64
21491 Par ch=1 c=7 v=89
21506 On ch=1 n=d6 v=0
21506 On ch=1 n=f6 v=0
21508 On ch=1 n=a#5 v=64
21546 On ch=1 n=a#5 v=0
21548 On ch=1 n=f6 v=64
21548 On ch=1 n=d6 v=64
21548 Par ch=1 c=64 v=0
21580 Par ch=1 c=64 v=96
21586 On ch=1 n=d6 v=0
21586 On ch=1 n=f6 v=0
21586 On ch=1 n=a#5 v=0
21586 On ch=1 n=d5 v=0
21586 On ch=1 n=g#4 v=0
21586 On ch=1 n=g#5 v=0
21586 On ch=1 n=a#5 v=0
21586 On ch=1 n=f3 v=0
21586 On ch=1 n=a#6 v=0
21586 On ch=1 n=f3 v=0
21586 On ch=1 n=a#6 v=0
21587 Par ch=1 c=7 v=90
21588 Par ch=1 c=7 v=90
21588 On ch=1 n=a#5 v=64
21588 On ch=1 n=a#6 v=64
21588 On ch=1 n=d#3 v=64
21588 On ch=1 n=a#5 v=64
21588 On ch=1 n=a#6 v=64
21588 On ch=1 n=d#3 v=64
21628 On ch=1 n=f#6 v=64
21628 On ch=1 n=d#6 v=64
21666 On ch=1 n=d#6 v=0
21666 On ch=1 n=f#6 v=0
21668 On ch=1 n=f#5 v=64
21668 On ch=1 n=d#5 v=64
21668 On ch=1 n=a#5 v=64
21706 On ch=1 n=d#5 v=0
21706 On ch=1 n=f#5 v=0
21706 On ch=1 n=a#5 v=0
21708 On ch=1 n=a#4 v=64
21708 On ch=1 n=f#6 v=64
21708 On ch=1 n=d#6 v=64
21746 On ch=1 n=d#6 v=0
21746 On ch=1 n=f#6 v=0
21746 On ch=1 n=a#4 v=0
21748 On ch=1 n=f#5 v=64
21748 On ch=1 n=d#5 v=64
21748 On ch=1 n=a#5 v=64
21786 On ch=1 n=d#5 v=0
21786 On ch=1 n=f#5 v=0
21786 On ch=1 n=a#5 v=0
21788 On ch=1 n=a#4 v=64
21788 On ch=1 n=f#6 v=64
21788 On ch=1 n=d#6 v=64
21803 Par ch=1 c=7 v=91
21826 On ch=1 n=d#6 v=0
21826 On ch=1 n=f#6 v=0
21826 On ch=1 n=a#4 v=0
21828 On ch=1 n=f#5 v=64
21828 On ch=1 n=d#5 v=64
21828 On ch=1 n=a#5 v=64
21866 On ch=1 n=d#5 v=0
21866 On ch=1 n=f#5 v=0
21866 On ch=1 n=a#5 v=0
21868 On ch=1 n=a#4 v=64
21868 On ch=1 n=f#6 v=64
21868 On ch=1 n=d#6 v=64
21906 On ch=1 n=d#6 v=0
21906 On ch=1 n=f#6 v=0
21906 On ch=1 n=a#4 v=0
21908 On ch=1 n=f#5 v=64
21908 On ch=1 n=d#5 v=64
21908 On ch=1 n=a#5 v=64
21946 On ch=1 n=d#5 v=0
21946 On ch=1 n=f#5 v=0
21946 On ch=1 n=a#5 v=0
21948 On ch=1 n=a#4 v=64
21948 On ch=1 n=f#6 v=64
21948 On ch=1 n=d#6 v=64
21986 On ch=1 n=d#6 v=0
21986 On ch=1 n=f#6 v=0
21986 On ch=1 n=a#4 v=0
21988 On ch=1 n=f#5 v=64
21988 On ch=1 n=d#5 v=64
21988 On ch=1 n=a#5 v=64
22019 Par ch=1 c=7 v=92
22026 On ch=1 n=d#5 v=0
22026 On ch=1 n=f#5 v=0
22026 On ch=1 n=a#5 v=0
22028 On ch=1 n=a#4 v=64
22028 On ch=1 n=f#6 v=64
22028 On ch=1 n=d#6 v=64
22066 On ch=1 n=d#6 v=0
22066 On ch=1 n=f#6 v=0
22066 On ch=1 n=a#4 v=0
22066 On ch=1 n=a#5 v=0
22066 On ch=1 n=a#5 v=0
22066 On ch=1 n=d#3 v=0
22066 On ch=1 n=a#6 v=0
22066 On ch=1 n=d#3 v=0
22066 On ch=1 n=a#6 v=0
22068 On ch=1 n=d#3 v=64
22068 On ch=1 n=d#3 v=64
22108 On ch=1 n=f#6 v=64
22108 On ch=1 n=f#7 v=64
22108 On ch=1 n=f#6 v=64
22108 On ch=1 n=f#7 v=64
22148 On ch=1 n=d#5 v=64
22148 On ch=1 n=a#4 v=64
22186 On ch=1 n=a#4 v=0
22186 On ch=1 n=d#5 v=0
22188 On ch=1 n=a#5 v=64
22188 On ch=1 n=f#5 v=64
22226 On ch=1 n=f#5 v=0
22226 On ch=1 n=a#5 v=0
22228 On ch=1 n=d#5 v=64
22228 On ch=1 n=a#4 v=64
22235 Par ch=1 c=7 v=93
22266 On ch=1 n=a#4 v=0
22266 On ch=1 n=d#5 v=0
22268 On ch=1 n=a#5 v=64
22268 On ch=1 n=f#5 v=64
22306 On ch=1 n=f#5 v=0
22306 On ch=1 n=a#5 v=0
22306 On ch=1 n=f#7 v=0
22306 On ch=1 n=f#6 v=0
22306 On ch=1 n=f#7 v=0
22306 On ch=1 n=f#6 v=0
22306 On ch=1 n=d#3 v=0
22306 On ch=1 n=d#3 v=0
22308 On ch=1 n=d#3 v=64
22308 On ch=1 n=d#3 v=64
22348 On ch=1 n=f#6 v=64
22348 On ch=1 n=f#7 v=64
22348 On ch=1 n=f#6 v=64
22348 On ch=1 n=f#7 v=64
22388 On ch=1 n=d#5 v=64
22388 On ch=1 n=a#4 v=64
22426 On ch=1 n=a#4 v=0
22426 On ch=1 n=d#5 v=0
22428 On ch=1 n=a#5 v=64
22428 On ch=1 n=f#5 v=64
22451 Par ch=1 c=7 v=94
22466 On ch=1 n=f#5 v=0
22466 On ch=1 n=a#5 v=0
22468 On ch=1 n=d#5 v=64
22468 On ch=1 n=a#4 v=64
22506 On ch=1 n=a#4 v=0
22506 On ch=1 n=d#5 v=0
22508 On ch=1 n=a#5 v=64
22508 On ch=1 n=f#5 v=64
22508 Par ch=1 c=64 v=0
22540 Par ch=1 c=64 v=96
22546 On ch=1 n=f#5 v=0
22546 On ch=1 n=a#5 v=0
22546 On ch=1 n=f#7 v=0
22546 On ch=1 n=f#6 v=0
22546 On ch=1 n=f#7 v=0
22546 On ch=1 n=f#6 v=0
22546 On ch=1 n=d#3 v=0
22546 On ch=1 n=d#3 v=0
22548 On ch=1 n=f3 v=64
22548 On ch=1 n=f3 v=64
22588 On ch=1 n=f6 v=64
22588 On ch=1 n=f7 v=64
22588 On ch=1 n=f6 v=64
22588 On ch=1 n=f7 v=64
22628 On ch=1 n=a#4 v=64
22628 On ch=1 n=d5 v=64
22666 On ch=1 n=d5 v=0
22666 On ch=1 n=a#4 v=0
22667 Par ch=1 c=7 v=95
22668 On ch=1 n=a#5 v=64
22668 On ch=1 n=g#5 v=64
22706 On ch=1 n=g#5 v=0
22706 On ch=1 n=a#5 v=0
22708 On ch=1 n=a#4 v=64
22708 On ch=1 n=d5 v=64
22746 On ch=1 n=d5 v=0
22746 On ch=1 n=a#4 v=0
22748 On ch=1 n=a#5 v=64
22748 On ch=1 n=g#5 v=64
22748 Par ch=1 c=64 v=0
22780 Par ch=1 c=64 v=96
22786 On ch=1 n=g#5 v=0
22786 On ch=1 n=a#5 v=0
22788 On ch=1 n=d5 v=64
22788 On ch=1 n=b4 v=64
22826 On ch=1 n=b4 v=0
22826 On ch=1 n=d5 v=0
22828 On ch=1 n=g#5 v=64
22828 On ch=1 n=b5 v=64
22866 On ch=1 n=b5 v=0
22866 On ch=1 n=g#5 v=0
22868 On ch=1 n=d5 v=64
22868 On ch=1 n=b4 v=64
22883 Par ch=1 c=7 v=96
22906 On ch=1 n=b4 v=0
22906 On ch=1 n=d5 v=0
22908 On ch=1 n=g#5 v=64
22908 On ch=1 n=b5 v=64
22946 On ch=1 n=b5 v=0
22946 On ch=1 n=g#5 v=0
22948 On ch=1 n=d5 v=64
22948 On ch=1 n=b4 v=64
22986 On ch=1 n=b4 v=0
22986 On ch=1 n=d5 v=0
22988 On ch=1 n=g#5 v=64
22988 On ch=1 n=b5 v=64
23026 On ch=1 n=b5 v=0
23026 On ch=1 n=g#5 v=0
23026 On ch=1 n=f7 v=0
23026 On ch=1 n=f6 v=0
23026 On ch=1 n=f7 v=0
23026 On ch=1 n=f6 v=0
23026 On ch=1 n=f3 v=0
23026 On ch=1 n=f3 v=0
23028 On ch=1 n=f3 v=64
23028 On ch=1 n=f3 v=64
23068 On ch=1 n=f6 v=64
23068 On ch=1 n=f7 v=64
23068 On ch=1 n=f6 v=64
23068 On ch=1 n=f7 v=64
23099 Par ch=1 c=7 v=97
23108 On ch=1 n=d5 v=64
23108 On ch=1 n=b4 v=64
23146 On ch=1 n=b4 v=0
23146 On ch=1 n=d5 v=0
23148 On ch=1 n=g#5 v=64
23148 On ch=1 n=b5 v=64
23186 On ch=1 n=b5 v=0
23186 On ch=1 n=g#5 v=0
23188 On ch=1 n=d5 v=64
23188 On ch=1 n=b4 v=64
23226 On ch=1 n=b4 v=0
23226 On ch=1 n=d5 v=0
23228 On ch=1 n=g#5 v=64
23228 On ch=1 n=b5 v=64
23228 Par ch=1 c=64 v=0
23260 Par ch=1 c=64 v=96
23266 On ch=1 n=b5 v=0
23266 On ch=1 n=g#5 v=0
23266 On ch=1 n=f7 v=0
23266 On ch=1 n=f6 v=0
23266 On ch=1 n=f7 v=0
23266 On ch=1 n=f6 v=0
23266 On ch=1 n=f3 v=0
23266 On ch=1 n=f3 v=0
23268 On ch=1 n=f#3 v=64
23268 On ch=1 n=f#3 v=64
23308 On ch=1 n=d#6 v=64
23308 On ch=1 n=d#7 v=64
23308 On ch=1 n=d#6 v=64
23308 On ch=1 n=d#7 v=64
23315 Par ch=1 c=7 v=98
23348 On ch=1 n=d#5 v=64
23348 On ch=1 n=b4 v=64
23386 On ch=1 n=b4 v=0
23386 On ch=1 n=d#5 v=0
23388 On ch=1 n=g#5 v=64
23388 On ch=1 n=b5 v=64
23426 On ch=1 n=b5 v=0
23426 On ch=1 n=g#5 v=0
23428 On ch=1 n=d#5 v=64
23428 On ch=1 n=b4 v=64
23466 On ch=1 n=b4 v=0
23466 On ch=1 n=d#5 v=0
23468 On ch=1 n=g#5 v=64
23468 On ch=1 n=b5 v=64
23468 Par ch=1 c=64 v=0
23500 Par ch=1 c=64 v=96
23506 On ch=1 n=b5 v=0
23506 On ch=1 n=g#5 v=0
23508 On ch=1 n=c5 v=64
23508 On ch=1 n=d#5 v=64
23531 Par ch=1 c=7 v=99
23546 On ch=1 n=d#5 v=0
23546 On ch=1 n=c5 v=0
23548 On ch=1 n=c6 v=64
23548 On ch=1 n=g#5 v=64
23586 On ch=1 n=g#5 v=0
23586 On ch=1 n=c6 v=0
23588 On ch=1 n=c5 v=64
23588 On ch=1 n=d#5 v=64
23626 On ch=1 n=d#5 v=0
23626 On ch=1 n=c5 v=0
23628 On ch=1 n=c6 v=64
23628 On ch=1 n=g#5 v=64
23666 On ch=1 n=g#5 v=0
23666 On ch=1 n=c6 v=0
23668 On ch=1 n=c5 v=64
23668 On ch=1 n=d#5 v=64
23706 On ch=1 n=d#5 v=0
23706 On ch=1 n=c5 v=0
23708 On ch=1 n=c6 v=64
23708 On ch=1 n=g#5 v=64
23746 On ch=1 n=g#5 v=0
23746 On ch=1 n=c6 v=0
23746 On ch=1 n=d#7 v=0
23746 On ch=1 n=d#6 v=0
23746 On ch=1 n=d#7 v=0
23746 On ch=1 n=d#6 v=0
23746 On ch=1 n=f#3 v=0
23746 On ch=1 n=f#3 v=0
23747 Par ch=1 c=7 v=100
23748 On ch=1 n=f#3 v=64
23748 On ch=1 n=f#3 v=64
23788 On ch=1 n=d#6 v=64
23788 On ch=1 n=d#7 v=64
23788 On ch=1 n=d#6 v=64
23788 On ch=1 n=d#7 v=64
23828 On ch=1 n=d#5 v=64
23828 On ch=1 n=c5 v=64
23866 On ch=1 n=c5 v=0
23866 On ch=1 n=d#5 v=0
23868 On ch=1 n=c6 v=64
23868 On ch=1 n=g#5 v=64
23906 On ch=1 n=g#5 v=0
23906 On ch=1 n=c6 v=0
23908 On ch=1 n=d#5 v=64
23908 On ch=1 n=c5 v=64
23946 On ch=1 n=c5 v=0
23946 On ch=1 n=d#5 v=0
23948 On ch=1 n=c6 v=64
23948 On ch=1 n=g#5 v=64
23948 Par ch=1 c=64 v=0
23963 Par ch=1 c=7 v=101
23980 Par ch=1 c=64 v=96
23986 On ch=1 n=g#5 v=0
23986 On ch=1 n=c6 v=0
23986 On ch=1 n=d#7 v=0
23986 On ch=1 n=d#6 v=0
23986 On ch=1 n=d#7 v=0
23986 On ch=1 n=d#6 v=0
23986 On ch=1 n=f#3 v=0
23986 On ch=1 n=f#3 v=0
23988 On ch=1 n=g3 v=64
23988 On ch=1 n=g3 v=64
24028 On ch=1 n=d#6 v=64
24028 On ch=1 n=d#7 v=63
24028 On ch=1 n=d#6 v=64
24028 On ch=1 n=d#7 v=63
24068 On ch=1 n=d#5 v=64
24068 On ch=1 n=c5 v=64
24106 On ch=1 n=c5 v=0
24106 On ch=1 n=d#5 v=0
24108 On ch=1 n=c6 v=64
24108 On ch=1 n=a#5 v=64
24146 On ch=1 n=a#5 v=0
24146 On ch=1 n=c6 v=0
24148 On ch=1 n=d#5 v=64
24148 On ch=1 n=c5 v=64
24179 Par ch=1 c=7 v=102
24186 On ch=1 n=c5 v=0
24186 On ch=1 n=d#5 v=0
24188 On ch=1 n=c6 v=64
24188 On ch=1 n=a#5 v=64
24188 Par ch=1 c=64 v=0
24220 Par ch=1 c=64 v=96
24226 On ch=1 n=a#5 v=0
24226 On ch=1 n=c6 v=0
24228 On ch=1 n=c#5 v=64
24228 On ch=1 n=e5 v=64
24260 On ch=1 n=e5 v=0
24260 On ch=1 n=c#5 v=0
24262 On ch=1 n=c#6 v=64
24262 On ch=1 n=a#5 v=64
24295 On ch=1 n=a#5 v=0
24295 On ch=1 n=c#6 v=0
24297 On ch=1 n=c#5 v=64
24297 On ch=1 n=e5 v=64
24329 On ch=1 n=e5 v=0
24329 On ch=1 n=c#5 v=0
24331 On ch=1 n=c#6 v=64
24331 On ch=1 n=a#5 v=64
24363 On ch=1 n=a#5 v=0
24363 On ch=1 n=c#6 v=0
24365 On ch=1 n=c#5 v=64
24365 On ch=1 n=e5 v=64
24395 Par ch=1 c=7 v=103
24397 On ch=1 n=e5 v=0
24397 On ch=1 n=c#5 v=0
24399 On ch=1 n=c#6 v=64
24399 On ch=1 n=a#5 v=64
24428 Par ch=1 c=64 v=0
24431 On ch=1 n=d#7 v=0
24431 On ch=1 n=d#7 v=0
24432 On ch=1 n=a#5 v=0
24432 On ch=1 n=c#6 v=0
24432 On ch=1 n=d#6 v=0
24432 On ch=1 n=d#6 v=0
24434 On ch=1 n=c#6 v=64
24434 On ch=1 n=c#7 v=64
24434 On ch=1 n=c#6 v=64
24434 On ch=1 n=c#7 v=64
24460 Par ch=1 c=64 v=96
24466 On ch=1 n=c#7 v=0
24466 On ch=1 n=c#6 v=0
24466 On ch=1 n=c#7 v=0
24466 On ch=1 n=c#6 v=0
24466 On ch=1 n=g3 v=0
24466 On ch=1 n=g3 v=0
24468 On ch=1 n=g#3 v=64
24468 On ch=1 n=c#6 v=64
24468 On ch=1 n=c#7 v=64
24468 On ch=1 n=g#3 v=64
24468 On ch=1 n=c#6 v=64
24468 On ch=1 n=c#7 v=64
24508 On ch=1 n=g6 v=64
24508 On ch=1 n=e6 v=64
24546 On ch=1 n=e6 v=0
24546 On ch=1 n=g6 v=0
24548 On ch=1 n=c#6 v=64
24586 On ch=1 n=c#6 v=0
24588 On ch=1 n=a#5 v=64
24588 On ch=1 n=e5 v=64
24588 On ch=1 n=g5 v=64
24588 On ch=1 n=g6 v=64
24588 On ch=1 n=e6 v=64
24611 Par ch=1 c=7 v=104
24626 On ch=1 n=e6 v=0
24626 On ch=1 n=g6 v=0
24628 On ch=1 n=c#6 v=64
24666 On ch=1 n=c#6 v=0
24668 On ch=1 n=g6 v=64
24668 On ch=1 n=e6 v=64
24668 Par ch=1 c=64 v=0
24700 Par ch=1 c=64 v=96
24706 On ch=1 n=e6 v=0
24706 On ch=1 n=g6 v=0
24706 On ch=1 n=c#6 v=0
24706 On ch=1 n=g5 v=0
24706 On ch=1 n=e5 v=0
24706 On ch=1 n=a#5 v=0
24706 On ch=1 n=c#6 v=0
24706 On ch=1 n=c#7 v=0
24706 On ch=1 n=g#3 v=0
24706 On ch=1 n=c#7 v=0
24706 On ch=1 n=g#3 v=0
24708 On ch=1 n=g#4 v=64
24708 On ch=1 n=c6 v=64
24708 On ch=1 n=c7 v=64
24708 On ch=1 n=g#4 v=64
24708 On ch=1 n=c6 v=64
24708 On ch=1 n=c7 v=64
24748 On ch=1 n=g#6 v=64
24748 On ch=1 n=d#6 v=64
24786 On ch=1 n=d#6 v=0
24786 On ch=1 n=g#6 v=0
24788 On ch=1 n=c6 v=64
24826 On ch=1 n=c6 v=0
24827 Par ch=1 c=7 v=105
24828 On ch=1 n=g#5 v=64
24828 On ch=1 n=d#5 v=64
24828 On ch=1 n=g#6 v=64
24828 On ch=1 n=d#6 v=64
24866 On ch=1 n=d#6 v=0
24866 On ch=1 n=g#6 v=0
24868 On ch=1 n=c6 v=64
24906 On ch=1 n=c6 v=0
24908 On ch=1 n=g#6 v=64
24908 On ch=1 n=d#6 v=64
24908 Par ch=1 c=64 v=0
24940 Par ch=1 c=64 v=96
24946 On ch=1 n=d#6 v=0
24946 On ch=1 n=g#6 v=0
24946 On ch=1 n=c6 v=0
24946 On ch=1 n=d#5 v=0
24946 On ch=1 n=g#5 v=0
24946 On ch=1 n=c6 v=0
24946 On ch=1 n=c7 v=0
24946 On ch=1 n=g#4 v=0
24946 On ch=1 n=c7 v=0
24946 On ch=1 n=g#4 v=0
24948 On ch=1 n=e4 v=64
24948 On ch=1 n=a#5 v=64
24948 On ch=1 n=a#6 v=64
24948 On ch=1 n=e4 v=64
24948 On ch=1 n=a#5 v=64
24948 On ch=1 n=a#6 v=64
24988 On ch=1 n=c#6 v=64
24988 On ch=1 n=e6 v=64
25026 On ch=1 n=e6 v=0
25026 On ch=1 n=c#6 v=0
25028 On ch=1 n=a#5 v=64
25043 Par ch=1 c=7 v=106
25066 On ch=1 n=a#5 v=0
25068 On ch=1 n=c#5 v=64
25068 On ch=1 n=a#4 v=64
25068 On ch=1 n=g5 v=64
25068 On ch=1 n=c#6 v=64
25068 On ch=1 n=e6 v=64
25106 On ch=1 n=e6 v=0
25106 On ch=1 n=c#6 v=0
25108 On ch=1 n=a#5 v=64
25146 On ch=1 n=a#5 v=0
25148 On ch=1 n=c#6 v=64
25148 On ch=1 n=e6 v=64
25148 Par ch=1 c=64 v=0
25180 Par ch=1 c=64 v=96
25186 On ch=1 n=e6 v=0
25186 On ch=1 n=c#6 v=0
25186 On ch=1 n=a#5 v=0
25186 On ch=1 n=g5 v=0
25186 On ch=1 n=a#4 v=0
25186 On ch=1 n=c#5 v=0
25186 On ch=1 n=a#5 v=0
25186 On ch=1 n=a#6 v=0
25186 On ch=1 n=e4 v=0
25186 On ch=1 n=a#6 v=0
25186 On ch=1 n=e4 v=0
25188 On ch=1 n=d#4 v=64
25188 On ch=1 n=g#5 v=64
25188 On ch=1 n=g#6 v=64
25188 On ch=1 n=d#4 v=64
25188 On ch=1 n=g#5 v=64
25188 On ch=1 n=g#6 v=64
25228 On ch=1 n=d#6 v=64
25228 On ch=1 n=c6 v=64
25259 Par ch=1 c=7 v=107
25266 On ch=1 n=c6 v=0
25266 On ch=1 n=d#6 v=0
25268 On ch=1 n=g#5 v=64
25306 On ch=1 n=g#5 v=0
25308 On ch=1 n=d#5 v=64
25308 On ch=1 n=c5 v=64
25308 On ch=1 n=d#6 v=64
25308 On ch=1 n=c6 v=64
25346 On ch=1 n=c6 v=0
25346 On ch=1 n=d#6 v=0
25348 On ch=1 n=g#5 v=64
25386 On ch=1 n=g#5 v=0
25388 On ch=1 n=d#6 v=64
25388 On ch=1 n=c6 v=64
25426 On ch=1 n=c6 v=0
25426 On ch=1 n=d#6 v=0
25426 On ch=1 n=g#5 v=0
25426 On ch=1 n=c5 v=0
25426 On ch=1 n=d#5 v=0
25426 On ch=1 n=g#5 v=0
25426 On ch=1 n=g#6 v=0
25426 On ch=1 n=d#4 v=0
25426 On ch=1 n=g#6 v=0
25426 On ch=1 n=d#4 v=0
25428 On ch=1 n=c4 v=64
25428 On ch=1 n=g5 v=64
25428 On ch=1 n=g6 v=64
25428 On ch=1 n=c4 v=64
25428 On ch=1 n=g5 v=64
25428 On ch=1 n=g6 v=64
25468 On ch=1 n=d#6 v=64
25468 On ch=1 n=c6 v=64
25475 Par ch=1 c=7 v=108
25506 On ch=1 n=c6 v=0
25506 On ch=1 n=d#6 v=0
25508 On ch=1 n=g5 v=64
25546 On ch=1 n=g5 v=0
25548 On ch=1 n=d#5 v=64
25548 On ch=1 n=c5 v=64
25548 On ch=1 n=d#6 v=64
25548 On ch=1 n=c6 v=64
25586 On ch=1 n=c6 v=0
25586 On ch=1 n=d#6 v=0
25588 On ch=1 n=g5 v=64
25626 On ch=1 n=g5 v=0
25628 On ch=1 n=d#6 v=64
25628 On ch=1 n=c6 v=64
25628 Par ch=1 c=64 v=0
25660 Par ch=1 c=64 v=96
25666 On ch=1 n=c6 v=0
25666 On ch=1 n=d#6 v=0
25666 On ch=1 n=g5 v=0
25666 On ch=1 n=c5 v=0
25666 On ch=1 n=d#5 v=0
25666 On ch=1 n=g5 v=0
25666 On ch=1 n=g6 v=0
25666 On ch=1 n=c4 v=0
25666 On ch=1 n=g6 v=0
25666 On ch=1 n=c4 v=0
25668 On ch=1 n=g#3 v=64
25668 On ch=1 n=g#5 v=64
25668 On ch=1 n=g#6 v=64
25668 On ch=1 n=g#3 v=64
25668 On ch=1 n=g#5 v=64
25668 On ch=1 n=g#6 v=64
25691 Par ch=1 c=7 v=109
25708 On ch=1 n=d#6 v=64
25708 On ch=1 n=c6 v=64
25746 On ch=1 n=c6 v=0
25746 On ch=1 n=d#6 v=0
25748 On ch=1 n=g#5 v=64
25786 On ch=1 n=g#5 v=0
25788 On ch=1 n=d#5 v=64
25788 On ch=1 n=c5 v=64
25788 On ch=1 n=d#6 v=64
25788 On ch=1 n=c6 v=64
25826 On ch=1 n=c6 v=0
25826 On ch=1 n=d#6 v=0
25828 On ch=1 n=g#5 v=64
25866 On ch=1 n=g#5 v=0
25868 On ch=1 n=d#6 v=64
25868 On ch=1 n=c6 v=64
25868 Par ch=1 c=64 v=0
25900 Par ch=1 c=64 v=96
25906 On ch=1 n=c6 v=0
25906 On ch=1 n=d#6 v=0
25906 On ch=1 n=g#5 v=0
25906 On ch=1 n=c5 v=0
25906 On ch=1 n=d#5 v=0
25906 On ch=1 n=g#5 v=0
25906 On ch=1 n=g#6 v=0
25906 On ch=1 n=g#3 v=0
25906 On ch=1 n=g#6 v=0
25906 On ch=1 n=g#3 v=0
25907 Par ch=1 c=7 v=110
25908 On ch=1 n=a3 v=64
25908 On ch=1 n=f#7 v=64
25908 On ch=1 n=a3 v=64
25908 On ch=1 n=f#7 v=64
25948 On ch=1 n=f#5 v=64
25948 On ch=1 n=a5 v=64
25986 On ch=1 n=a5 v=0
25986 On ch=1 n=f#5 v=0
25988 On ch=1 n=d#5 v=64
25988 On ch=1 n=c#5 v=64
25988 On ch=1 n=f#6 v=64
25988 On ch=1 n=d#6 v=64
25988 On ch=1 n=c#6 v=64
26026 On ch=1 n=c#6 v=0
26026 On ch=1 n=d#6 v=0
26026 On ch=1 n=f#6 v=0
26026 On ch=1 n=c#5 v=0
26026 On ch=1 n=d#5 v=0
26028 On ch=1 n=f#5 v=64
26028 On ch=1 n=a5 v=64
26066 On ch=1 n=a5 v=0
26066 On ch=1 n=f#5 v=0
26068 On ch=1 n=d#5 v=64
26068 On ch=1 n=c#5 v=64
26068 On ch=1 n=f#6 v=64
26068 On ch=1 n=d#6 v=64
26068 On ch=1 n=c#6 v=64
26106 On ch=1 n=c#6 v=0
26106 On ch=1 n=d#6 v=0
26106 On ch=1 n=f#6 v=0
26106 On ch=1 n=c#5 v=0
26106 On ch=1 n=d#5 v=0
26108 On ch=1 n=f#5 v=64
26108 On ch=1 n=a5 v=64
26146 On ch=1 n=a5 v=0
26146 On ch=1 n=f#5 v=0
26146 On ch=1 n=a3 v=0
26146 On ch=1 n=a3 v=0
26148 On ch=1 n=f#6 v=64
26148 On ch=1 n=d#6 v=64
26148 On ch=1 n=c#6 v=64
26148 On ch=1 n=f#4 v=64
26148 On ch=1 n=f#4 v=64
26186 On ch=1 n=c#6 v=0
26186 On ch=1 n=d#6 v=0
26186 On ch=1 n=f#6 v=0
26188 On ch=1 n=f#5 v=64
26188 On ch=1 n=a5 v=64
26226 On ch=1 n=a5 v=0
26226 On ch=1 n=f#5 v=0
26228 On ch=1 n=d#5 v=64
26228 On ch=1 n=c#5 v=64
26228 On ch=1 n=f#6 v=64
26228 On ch=1 n=d#6 v=64
26228 On ch=1 n=c#6 v=64
26266 On ch=1 n=c#6 v=0
26266 On ch=1 n=d#6 v=0
26266 On ch=1 n=f#6 v=0
26266 On ch=1 n=c#5 v=0
26266 On ch=1 n=d#5 v=0
26268 On ch=1 n=f#5 v=64
26268 On ch=1 n=a5 v=64
26306 On ch=1 n=a5 v=0
26306 On ch=1 n=f#5 v=0
26308 On ch=1 n=d#5 v=64
26308 On ch=1 n=c#5 v=64
26308 On ch=1 n=f#6 v=64
26308 On ch=1 n=d#6 v=64
26308 On ch=1 n=c#6 v=64
26346 On ch=1 n=c#6 v=0
26346 On ch=1 n=d#6 v=0
26346 On ch=1 n=f#6 v=0
26346 On ch=1 n=c#5 v=0
26346 On ch=1 n=d#5 v=0
26348 On ch=1 n=f#5 v=64
26348 On ch=1 n=a5 v=64
26386 On ch=1 n=a5 v=0
26386 On ch=1 n=f#5 v=0
26386 On ch=1 n=f#4 v=0
26386 On ch=1 n=f#4 v=0
26386 On ch=1 n=f#7 v=0
26386 On ch=1 n=f#7 v=0
26388 Par ch=1 c=7 v=110
26388 On ch=1 n=f#6 v=64
26388 On ch=1 n=d#6 v=64
26388 On ch=1 n=c#6 v=64
26388 On ch=1 n=e4 v=64
26388 On ch=1 n=e4 v=64
26426 On ch=1 n=c#6 v=0
26426 On ch=1 n=d#6 v=0
26426 On ch=1 n=f#6 v=0
26428 On ch=1 n=f#5 v=64
26428 On ch=1 n=a5 v=64
26466 On ch=1 n=a5 v=0
26466 On ch=1 n=f#5 v=0
26468 On ch=1 n=d#5 v=64
26468 On ch=1 n=c#5 v=64
26468 On ch=1 n=f#6 v=64
26468 On ch=1 n=d#6 v=64
26468 On ch=1 n=c#6 v=64
26506 On ch=1 n=c#6 v=0
26506 On ch=1 n=d#6 v=0
26506 On ch=1 n=f#6 v=0
26506 On ch=1 n=c#5 v=0
26506 On ch=1 n=d#5 v=0
26508 On ch=1 n=f#5 v=64
26508 On ch=1 n=a5 v=64
26546 On ch=1 n=a5 v=0
26546 On ch=1 n=f#5 v=0
26548 On ch=1 n=d#5 v=64
26548 On ch=1 n=c#5 v=64
26548 On ch=1 n=f#6 v=64
26548 On ch=1 n=d#6 v=64
26548 On ch=1 n=c#6 v=64
26579 Par ch=1 c=7 v=109
26586 On ch=1 n=c#6 v=0
26586 On ch=1 n=d#6 v=0
26586 On ch=1 n=f#6 v=0
26586 On ch=1 n=c#5 v=0
26586 On ch=1 n=d#5 v=0
26588 On ch=1 n=f#5 v=64
26588 On ch=1 n=a5 v=64
26588 Par ch=1 c=64 v=0
26620 Par ch=1 c=64 v=96
26626 On ch=1 n=a5 v=0
26626 On ch=1 n=f#5 v=0
26626 On ch=1 n=e4 v=0
26626 On ch=1 n=e4 v=0
26628 On ch=1 n=f#6 v=64
26628 On ch=1 n=d#6 v=64
26628 On ch=1 n=c#6 v=64
26628 On ch=1 n=d#4 v=64
26628 On ch=1 n=d#4 v=64
26666 On ch=1 n=c#6 v=0
26666 On ch=1 n=d#6 v=0
26666 On ch=1 n=f#6 v=0
26668 On ch=1 n=f#5 v=64
26668 On ch=1 n=a5 v=64
26706 On ch=1 n=a5 v=0
26706 On ch=1 n=f#5 v=0
26708 On ch=1 n=d#5 v=64
26708 On ch=1 n=c#5 v=64
26708 On ch=1 n=f#6 v=64
26708 On ch=1 n=d#6 v=64
26708 On ch=1 n=c#6 v=64
26746 On ch=1 n=c#6 v=0
26746 On ch=1 n=d#6 v=0
26746 On ch=1 n=f#6 v=0
26746 On ch=1 n=c#5 v=0
26746 On ch=1 n=d#5 v=0
26748 On ch=1 n=f#5 v=64
26748 On ch=1 n=a5 v=64
26771 Par ch=1 c=7 v=108
26786 On ch=1 n=a5 v=0
26786 On ch=1 n=f#5 v=0
26788 On ch=1 n=d#5 v=64
26788 On ch=1 n=c#5 v=64
26788 On ch=1 n=f#6 v=64
26788 On ch=1 n=c#6 v=64
26788 On ch=1 n=d#6 v=64
26826 On ch=1 n=d#6 v=0
26826 On ch=1 n=c#6 v=0
26826 On ch=1 n=f#6 v=0
26826 On ch=1 n=c#5 v=0
26826 On ch=1 n=d#5 v=0
26828 On ch=1 n=f#5 v=64
26828 On ch=1 n=a5 v=64
26866 On ch=1 n=a5 v=0
26866 On ch=1 n=f#5 v=0
26866 On ch=1 n=d#4 v=0
26866 On ch=1 n=d#4 v=0
26868 On ch=1 n=f#6 v=64
26868 On ch=1 n=d#6 v=64
26868 On ch=1 n=c#6 v=64
26868 On ch=1 n=d4 v=64
26868 On ch=1 n=d4 v=64
26906 On ch=1 n=c#6 v=0
26906 On ch=1 n=d#6 v=0
26906 On ch=1 n=f#6 v=0
26908 On ch=1 n=f#5 v=64
26908 On ch=1 n=a5 v=64
26946 On ch=1 n=a5 v=0
26946 On ch=1 n=f#5 v=0
26948 On ch=1 n=d#5 v=64
26948 On ch=1 n=c#5 v=64
26948 On ch=1 n=f#6 v=64
26948 On ch=1 n=d#6 v=64
26948 On ch=1 n=c#6 v=64
26963 Par ch=1 c=7 v=107
26986 On ch=1 n=c#6 v=0
26986 On ch=1 n=d#6 v=0
26986 On ch=1 n=f#6 v=0
26986 On ch=1 n=c#5 v=0
26986 On ch=1 n=d#5 v=0
26988 On ch=1 n=f#5 v=64
26988 On ch=1 n=a5 v=64
27026 On ch=1 n=a5 v=0
27026 On ch=1 n=f#5 v=0
27028 On ch=1 n=d#5 v=64
27028 On ch=1 n=c#5 v=64
27028 On ch=1 n=f#6 v=64
27028 On ch=1 n=d#6 v=64
27028 On ch=1 n=c#6 v=64
27066 On ch=1 n=c#6 v=0
27066 On ch=1 n=d#6 v=0
27066 On ch=1 n=f#6 v=0
27066 On ch=1 n=c#5 v=0
27066 On ch=1 n=d#5 v=0
27068 On ch=1 n=f#5 v=64
27068 On ch=1 n=a5 v=64
27106 On ch=1 n=a5 v=0
27106 On ch=1 n=f#5 v=0
27106 On ch=1 n=d4 v=0
27106 On ch=1 n=d4 v=0
27108 On ch=1 n=d#4 v=64
27108 On ch=1 n=d#7 v=64
27108 On ch=1 n=d#4 v=64
27108 On ch=1 n=d#7 v=64
27148 On ch=1 n=f#5 v=64
27148 On ch=1 n=a5 v=64
27155 Par ch=1 c=7 v=106
27186 On ch=1 n=a5 v=0
27186 On ch=1 n=f#5 v=0
27188 On ch=1 n=d#5 v=64
27188 On ch=1 n=c#5 v=64
27188 On ch=1 n=f#6 v=64
27188 On ch=1 n=d#6 v=64
27188 On ch=1 n=c#6 v=64
27226 On ch=1 n=c#6 v=0
27226 On ch=1 n=d#6 v=0
27226 On ch=1 n=f#6 v=0
27226 On ch=1 n=c#5 v=0
27226 On ch=1 n=d#5 v=0
27228 On ch=1 n=f#5 v=64
27228 On ch=1 n=a5 v=64
27266 On ch=1 n=a5 v=0
27266 On ch=1 n=f#5 v=0
27268 On ch=1 n=d#5 v=64
27268 On ch=1 n=c#5 v=64
27268 On ch=1 n=f#6 v=64
27268 On ch=1 n=d#6 v=64
27268 On ch=1 n=c#6 v=64
27286 On ch=1 n=d#7 v=0
27286 On ch=1 n=d#7 v=0
27306 On ch=1 n=c#6 v=0
27306 On ch=1 n=d#6 v=0
27306 On ch=1 n=f#6 v=0
27306 On ch=1 n=c#5 v=0
27306 On ch=1 n=d#5 v=0
27308 On ch=1 n=f#5 v=64
27308 On ch=1 n=a5 v=64
27308 Par ch=1 c=64 v=0
27340 Par ch=1 c=64 v=96
27346 On ch=1 n=a5 v=0
27346 On ch=1 n=f#5 v=0
27346 On ch=1 n=d#4 v=0
27346 On ch=1 n=d#4 v=0
27347 Par ch=1 c=7 v=105
27348 Par ch=1 c=7 v=105
27348 On ch=1 n=g#3 v=64
27348 On ch=1 n=c7 v=64
27348 On ch=1 n=g#3 v=64
27348 On ch=1 n=c7 v=64
27388 On ch=1 n=a5 v=64
27388 On ch=1 n=c6 v=64
27426 On ch=1 n=c6 v=0
27426 On ch=1 n=a5 v=0
27428 On ch=1 n=f#5 v=64
27428 On ch=1 n=d#5 v=64
27428 On ch=1 n=c5 v=64
27428 On ch=1 n=f#6 v=64
27428 On ch=1 n=d#6 v=64
27466 On ch=1 n=d#6 v=0
27466 On ch=1 n=f#6 v=0
27466 On ch=1 n=c5 v=0
27466 On ch=1 n=d#5 v=0
27466 On ch=1 n=f#5 v=0
27468 On ch=1 n=a5 v=64
27468 On ch=1 n=c6 v=64
27506 On ch=1 n=c6 v=0
27506 On ch=1 n=a5 v=0
27508 On ch=1 n=f#5 v=64
27508 On ch=1 n=d#5 v=64
27508 On ch=1 n=c5 v=64
27508 On ch=1 n=f#6 v=64
27508 On ch=1 n=d#6 v=64
27526 On ch=1 n=c7 v=0
27526 On ch=1 n=c7 v=0
27546 On ch=1 n=d#6 v=0
27546 On ch=1 n=f#6 v=0
27546 On ch=1 n=c5 v=0
27546 On ch=1 n=d#5 v=0
27546 On ch=1 n=f#5 v=0
27548 On ch=1 n=a5 v=64
27548 On ch=1 n=c6 v=64
27586 On ch=1 n=c6 v=0
27586 On ch=1 n=a5 v=0
27588 On ch=1 n=f#5 v=64
27588 On ch=1 n=d#5 v=64
27588 On ch=1 n=c5 v=64
27588 On ch=1 n=a7 v=64
27588 On ch=1 n=a7 v=64
27626 On ch=1 n=c5 v=0
27626 On ch=1 n=d#5 v=0
27626 On ch=1 n=f#5 v=0
27628 On ch=1 n=a5 v=64
27628 On ch=1 n=c6 v=64
27635 Par ch=1 c=7 v=106
27666 On ch=1 n=c6 v=0
27666 On ch=1 n=a5 v=0
27668 On ch=1 n=f#5 v=64
27668 On ch=1 n=d#5 v=64
27668 On ch=1 n=c5 v=64
27668 On ch=1 n=d#6 v=64
27668 On ch=1 n=a6 v=64
27706 On ch=1 n=a6 v=0
27706 On ch=1 n=d#6 v=0
27706 On ch=1 n=c5 v=0
27706 On ch=1 n=d#5 v=0
27706 On ch=1 n=f#5 v=0
27708 On ch=1 n=a5 v=64
27708 On ch=1 n=c6 v=64
27746 On ch=1 n=c6 v=0
27746 On ch=1 n=a5 v=0
27748 On ch=1 n=f#5 v=64
27748 On ch=1 n=d#5 v=64
27748 On ch=1 n=c5 v=64
27748 On ch=1 n=d#6 v=64
27748 On ch=1 n=a6 v=64
27766 On ch=1 n=a7 v=0
27766 On ch=1 n=a7 v=0
27786 On ch=1 n=a6 v=0
27786 On ch=1 n=d#6 v=0
27786 On ch=1 n=c5 v=0
27786 On ch=1 n=d#5 v=0
27786 On ch=1 n=f#5 v=0
27788 On ch=1 n=a5 v=64
27788 On ch=1 n=c6 v=64
27826 On ch=1 n=c6 v=0
27826 On ch=1 n=a5 v=0
27826 On ch=1 n=g#3 v=0
27826 On ch=1 n=g#3 v=0
27828 On ch=1 n=f#5 v=64
27828 On ch=1 n=d#5 v=64
27828 On ch=1 n=c5 v=64
27828 On ch=1 n=g#7 v=64
27828 On ch=1 n=g#7 v=64
27866 On ch=1 n=c5 v=0
27866 On ch=1 n=d#5 v=0
27866 On ch=1 n=f#5 v=0
27868 On ch=1 n=a5 v=64
27868 On ch=1 n=c6 v=64
27906 On ch=1 n=c6 v=0
27906 On ch=1 n=a5 v=0
27908 On ch=1 n=f#5 v=64
27908 On ch=1 n=d#5 v=64
27908 On ch=1 n=c5 v=64
27908 On ch=1 n=g#6 v=64
27908 On ch=1 n=d#6 v=64
27923 Par ch=1 c=7 v=107
27946 On ch=1 n=d#6 v=0
27946 On ch=1 n=g#6 v=0
27946 On ch=1 n=c5 v=0
27946 On ch=1 n=d#5 v=0
27946 On ch=1 n=f#5 v=0
27948 On ch=1 n=a5 v=64
27948 On ch=1 n=c6 v=64
27986 On ch=1 n=c6 v=0
27986 On ch=1 n=a5 v=0
27988 On ch=1 n=f#5 v=64
27988 On ch=1 n=d#5 v=64
27988 On ch=1 n=c5 v=64
27988 On ch=1 n=g#6 v=64
27988 On ch=1 n=d#6 v=64
28006 On ch=1 n=g#7 v=0
28006 On ch=1 n=g#7 v=0
28026 On ch=1 n=d#6 v=0
28026 On ch=1 n=g#6 v=0
28026 On ch=1 n=c5 v=0
28026 On ch=1 n=d#5 v=0
28026 On ch=1 n=f#5 v=0
28028 On ch=1 n=a5 v=64
28028 On ch=1 n=c6 v=64
28066 On ch=1 n=c6 v=0
28066 On ch=1 n=a5 v=0
28068 On ch=1 n=f#5 v=64
28068 On ch=1 n=d#5 v=64
28068 On ch=1 n=c5 v=64
28068 On ch=1 n=f#7 v=64
28068 On ch=1 n=f#7 v=64
28106 On ch=1 n=c5 v=0
28106 On ch=1 n=d#5 v=0
28106 On ch=1 n=f#5 v=0
28108 On ch=1 n=a5 v=64
28108 On ch=1 n=c6 v=64
28146 On ch=1 n=c6 v=0
28146 On ch=1 n=a5 v=0
28148 On ch=1 n=f#5 v=64
28148 On ch=1 n=d#5 v=64
28148 On ch=1 n=c5 v=64
28148 On ch=1 n=f#6 v=64
28148 On ch=1 n=d#6 v=64
28186 On ch=1 n=d#6 v=0
28186 On ch=1 n=f#6 v=0
28186 On ch=1 n=c5 v=0
28186 On ch=1 n=d#5 v=0
28186 On ch=1 n=f#5 v=0
28188 On ch=1 n=a5 v=64
28188 On ch=1 n=c6 v=64
28211 Par ch=1 c=7 v=108
28226 On ch=1 n=c6 v=0
28226 On ch=1 n=a5 v=0
28228 On ch=1 n=f#5 v=64
28228 On ch=1 n=d#5 v=64
28228 On ch=1 n=c5 v=64
28228 On ch=1 n=f#6 v=64
28228 On ch=1 n=d#6 v=64
28246 On ch=1 n=f#7 v=0
28246 On ch=1 n=f#7 v=0
28266 On ch=1 n=d#6 v=0
28266 On ch=1 n=f#6 v=0
28266 On ch=1 n=c5 v=0
28266 On ch=1 n=d#5 v=0
28266 On ch=1 n=f#5 v=0
28268 On ch=1 n=a5 v=64
28268 On ch=1 n=c6 v=64
28306 On ch=1 n=c6 v=0
28306 On ch=1 n=a5 v=0
28308 On ch=1 n=f#5 v=64
28308 On ch=1 n=d#5 v=64
28308 On ch=1 n=c5 v=64
28308 On ch=1 n=f7 v=64
28308 On ch=1 n=f7 v=64
28346 On ch=1 n=c5 v=0
28346 On ch=1 n=d#5 v=0
28346 On ch=1 n=f#5 v=0
28348 On ch=1 n=a5 v=64
28348 On ch=1 n=c6 v=64
28386 On ch=1 n=c6 v=0
28386 On ch=1 n=a5 v=0
28388 On ch=1 n=f#5 v=64
28388 On ch=1 n=d#5 v=64
28388 On ch=1 n=c5 v=64
28388 On ch=1 n=f6 v=64
28388 On ch=1 n=d#6 v=64
28426 On ch=1 n=d#6 v=0
28426 On ch=1 n=f6 v=0
28426 On ch=1 n=c5 v=0
28426 On ch=1 n=d#5 v=0
28426 On ch=1 n=f#5 v=0
28428 On ch=1 n=a5 v=64
28428 On ch=1 n=c6 v=64
28466 On ch=1 n=c6 v=0
28466 On ch=1 n=a5 v=0
28468 On ch=1 n=f#5 v=64
28468 On ch=1 n=d#5 v=64
28468 On ch=1 n=c5 v=64
28468 On ch=1 n=f6 v=64
28468 On ch=1 n=d#6 v=64
28486 On ch=1 n=f7 v=0
28486 On ch=1 n=f7 v=0
28496 Par ch=1 c=7 v=109
28503 On ch=1 n=d#6 v=0
28503 On ch=1 n=f6 v=0
28503 On ch=1 n=c5 v=0
28503 On ch=1 n=d#5 v=0
28503 On ch=1 n=f#5 v=0
28505 On ch=1 n=a5 v=64
28505 On ch=1 n=c6 v=64
28543 On ch=1 n=c6 v=0
28543 On ch=1 n=a5 v=0
28545 On ch=1 n=g#3 v=64
28545 On ch=1 n=f#7 v=64
28545 On ch=1 n=g#3 v=64
28545 On ch=1 n=f#7 v=64
28585 On ch=1 n=f#5 v=64
28585 On ch=1 n=c6 v=64
28623 On ch=1 n=c6 v=0
28623 On ch=1 n=f#5 v=0
28625 On ch=1 n=d#5 v=64
28625 On ch=1 n=g#4 v=64
28625 On ch=1 n=f#6 v=64
28625 On ch=1 n=d#6 v=64
28663 On ch=1 n=d#6 v=0
28663 On ch=1 n=f#6 v=0
28663 On ch=1 n=g#4 v=0
28663 On ch=1 n=d#5 v=0
28665 On ch=1 n=f#5 v=64
28665 On ch=1 n=c6 v=64
28703 On ch=1 n=c6 v=0
28703 On ch=1 n=f#5 v=0
28705 On ch=1 n=d#5 v=64
28705 On ch=1 n=g#4 v=64
28705 On ch=1 n=f#6 v=64
28705 On ch=1 n=d#6 v=64
28723 On ch=1 n=f#7 v=0
28723 On ch=1 n=f#7 v=0
28743 On ch=1 n=d#6 v=0
28743 On ch=1 n=f#6 v=0
28743 On ch=1 n=g#4 v=0
28743 On ch=1 n=d#5 v=0
28745 On ch=1 n=f#5 v=64
28745 On ch=1 n=c6 v=64
28745 Par ch=1 c=64 v=0
28777 Par ch=1 c=64 v=96
28783 On ch=1 n=c6 v=0
28783 On ch=1 n=f#5 v=0
28783 On ch=1 n=g#3 v=0
28783 On ch=1 n=g#3 v=0
28784 Par ch=1 c=7 v=110
28785 On ch=1 n=a3 v=64
28785 On ch=1 n=f#7 v=64
28785 On ch=1 n=a3 v=64
28785 On ch=1 n=f#7 v=64
28825 On ch=1 n=f#5 v=64
28825 On ch=1 n=a5 v=64
28863 On ch=1 n=a5 v=0
28863 On ch=1 n=f#5 v=0
28865 On ch=1 n=d#5 v=64
28865 On ch=1 n=c#5 v=64
28865 On ch=1 n=f#6 v=64
28865 On ch=1 n=d#6 v=64
28865 On ch=1 n=c#6 v=64
28903 On ch=1 n=c#6 v=0
28903 On ch=1 n=d#6 v=0
28903 On ch=1 n=f#6 v=0
28903 On ch=1 n=c#5 v=0
28903 On ch=1 n=d#5 v=0
28905 On ch=1 n=f#5 v=64
28905 On ch=1 n=a5 v=64
28943 On ch=1 n=a5 v=0
28943 On ch=1 n=f#5 v=0
28945 On ch=1 n=d#5 v=64
28945 On ch=1 n=c#5 v=64
28945 On ch=1 n=f#6 v=64
28945 On ch=1 n=d#6 v=64
28945 On ch=1 n=c#6 v=64
28983 On ch=1 n=c#6 v=0
28983 On ch=1 n=d#6 v=0
28983 On ch=1 n=f#6 v=0
28983 On ch=1 n=c#5 v=0
28983 On ch=1 n=d#5 v=0
28985 On ch=1 n=f#5 v=64
28985 On ch=1 n=a5 v=64
29023 On ch=1 n=a5 v=0
29023 On ch=1 n=f#5 v=0
29023 On ch=1 n=a3 v=0
29023 On ch=1 n=a3 v=0
29025 On ch=1 n=f#6 v=64
29025 On ch=1 n=d#6 v=64
29025 On ch=1 n=c#6 v=64
29025 On ch=1 n=f#4 v=64
29025 On ch=1 n=f#4 v=64
29063 On ch=1 n=c#6 v=0
29063 On ch=1 n=d#6 v=0
29063 On ch=1 n=f#6 v=0
29065 On ch=1 n=f#5 v=64
29065 On ch=1 n=a5 v=64
29103 On ch=1 n=a5 v=0
29103 On ch=1 n=f#5 v=0
29105 On ch=1 n=d#5 v=64
29105 On ch=1 n=c#5 v=64
29105 On ch=1 n=f#6 v=64
29105 On ch=1 n=d#6 v=64
29105 On ch=1 n=c#6 v=64
29143 On ch=1 n=c#6 v=0
29143 On ch=1 n=d#6 v=0
29143 On ch=1 n=f#6 v=0
29143 On ch=1 n=c#5 v=0
29143 On ch=1 n=d#5 v=0
29145 On ch=1 n=f#5 v=64
29145 On ch=1 n=a5 v=64
29183 On ch=1 n=a5 v=0
29183 On ch=1 n=f#5 v=0
29185 On ch=1 n=d#5 v=64
29185 On ch=1 n=c#5 v=64
29185 On ch=1 n=f#6 v=64
29185 On ch=1 n=d#6 v=64
29185 On ch=1 n=c#6 v=64
29223 On ch=1 n=c#6 v=0
29223 On ch=1 n=d#6 v=0
29223 On ch=1 n=f#6 v=0
29223 On ch=1 n=c#5 v=0
29223 On ch=1 n=d#5 v=0
29225 On ch=1 n=f#5 v=64
29225 On ch=1 n=a5 v=64
29263 On ch=1 n=a5 v=0
29263 On ch=1 n=f#5 v=0
29263 On ch=1 n=f#4 v=0
29263 On ch=1 n=f#4 v=0
29263 On ch=1 n=f#7 v=0
29263 On ch=1 n=f#7 v=0
29265 Par ch=1 c=7 v=110
29265 On ch=1 n=f#6 v=64
29265 On ch=1 n=d#6 v=64
29265 On ch=1 n=c#6 v=64
29265 On ch=1 n=e4 v=64
29265 On ch=1 n=e4 v=64
29303 On ch=1 n=c#6 v=0
29303 On ch=1 n=d#6 v=0
29303 On ch=1 n=f#6 v=0
29305 On ch=1 n=f#5 v=64
29305 On ch=1 n=a5 v=64
29343 On ch=1 n=a5 v=0
29343 On ch=1 n=f#5 v=0
29345 On ch=1 n=d#5 v=64
29345 On ch=1 n=c#5 v=64
29345 On ch=1 n=f#6 v=64
29345 On ch=1 n=d#6 v=64
29345 On ch=1 n=c#6 v=64
29383 On ch=1 n=c#6 v=0
29383 On ch=1 n=d#6 v=0
29383 On ch=1 n=f#6 v=0
29383 On ch=1 n=c#5 v=0
29383 On ch=1 n=d#5 v=0
29385 On ch=1 n=f#5 v=64
29385 On ch=1 n=a5 v=64
29423 On ch=1 n=a5 v=0
29423 On ch=1 n=f#5 v=0
29425 On ch=1 n=d#5 v=64
29425 On ch=1 n=c#5 v=64
29425 On ch=1 n=f#6 v=64
29425 On ch=1 n=d#6 v=64
29425 On ch=1 n=c#6 v=64
29456 Par ch=1 c=7 v=109
29463 On ch=1 n=c#6 v=0
29463 On ch=1 n=d#6 v=0
29463 On ch=1 n=f#6 v=0
29463 On ch=1 n=c#5 v=0
29463 On ch=1 n=d#5 v=0
29465 On ch=1 n=f#5 v=64
29465 On ch=1 n=a5 v=64
29503 On ch=1 n=a5 v=0
29503 On ch=1 n=f#5 v=0
29503 On ch=1 n=e4 v=0
29503 On ch=1 n=e4 v=0
29505 On ch=1 n=f#6 v=64
29505 On ch=1 n=d#6 v=64
29505 On ch=1 n=c#6 v=64
29505 On ch=1 n=d#4 v=64
29505 On ch=1 n=d#4 v=64
29543 On ch=1 n=c#6 v=0
29543 On ch=1 n=d#6 v=0
29543 On ch=1 n=f#6 v=0
29545 On ch=1 n=f#5 v=64
29545 On ch=1 n=a5 v=64
29583 On ch=1 n=a5 v=0
29583 On ch=1 n=f#5 v=0
29585 On ch=1 n=d#5 v=64
29585 On ch=1 n=c#5 v=64
29585 On ch=1 n=f#6 v=64
29585 On ch=1 n=d#6 v=64
29585 On ch=1 n=c#6 v=64
29623 On ch=1 n=c#6 v=0
29623 On ch=1 n=d#6 v=0
29623 On ch=1 n=f#6 v=0
29623 On ch=1 n=c#5 v=0
29623 On ch=1 n=d#5 v=0
29625 On ch=1 n=f#5 v=64
29625 On ch=1 n=a5 v=64
29648 Par ch=1 c=7 v=108
29663 On ch=1 n=a5 v=0
29663 On ch=1 n=f#5 v=0
29665 On ch=1 n=d#5 v=64
29665 On ch=1 n=c#5 v=64
29665 On ch=1 n=f#6 v=64
29665 On ch=1 n=c#6 v=64
29665 On ch=1 n=d#6 v=64
29703 On ch=1 n=d#6 v=0
29703 On ch=1 n=c#6 v=0
29703 On ch=1 n=f#6 v=0
29703 On ch=1 n=c#5 v=0
29703 On ch=1 n=d#5 v=0
29705 On ch=1 n=f#5 v=64
29705 On ch=1 n=a5 v=64
29705 Par ch=1 c=64 v=0
29737 Par ch=1 c=64 v=96
29743 On ch=1 n=a5 v=0
29743 On ch=1 n=f#5 v=0
29743 On ch=1 n=d#4 v=0
29743 On ch=1 n=d#4 v=0
29745 On ch=1 n=f#6 v=64
29745 On ch=1 n=d#6 v=64
29745 On ch=1 n=c#6 v=64
29745 On ch=1 n=d4 v=64
29745 On ch=1 n=d4 v=64
29783 On ch=1 n=c#6 v=0
29783 On ch=1 n=d#6 v=0
29783 On ch=1 n=f#6 v=0
29785 On ch=1 n=f#5 v=64
29785 On ch=1 n=a5 v=64
29823 On ch=1 n=a5 v=0
29823 On ch=1 n=f#5 v=0
29825 On ch=1 n=d#5 v=64
29825 On ch=1 n=c#5 v=64
29825 On ch=1 n=f#6 v=64
29825 On ch=1 n=d#6 v=64
29825 On ch=1 n=c#6 v=64
29840 Par ch=1 c=7 v=107
29863 On ch=1 n=c#6 v=0
29863 On ch=1 n=d#6 v=0
29863 On ch=1 n=f#6 v=0
29863 On ch=1 n=c#5 v=0
29863 On ch=1 n=d#5 v=0
29865 On ch=1 n=f#5 v=64
29865 On ch=1 n=a5 v=64
29903 On ch=1 n=a5 v=0
29903 On ch=1 n=f#5 v=0
29905 On ch=1 n=d#5 v=64
29905 On ch=1 n=c#5 v=64
29905 On ch=1 n=f#6 v=64
29905 On ch=1 n=d#6 v=64
29905 On ch=1 n=c#6 v=64
29943 On ch=1 n=c#6 v=0
29943 On ch=1 n=d#6 v=0
29943 On ch=1 n=f#6 v=0
29943 On ch=1 n=c#5 v=0
29943 On ch=1 n=d#5 v=0
29945 On ch=1 n=f#5 v=64
29945 On ch=1 n=a5 v=64
29983 On ch=1 n=a5 v=0
29983 On ch=1 n=f#5 v=0
29983 On ch=1 n=d4 v=0
29983 On ch=1 n=d4 v=0
29985 On ch=1 n=d#4 v=64
29985 On ch=1 n=d#7 v=64
29985 On ch=1 n=d#4 v=64
29985 On ch=1 n=d#7 v=64
30025 On ch=1 n=f#5 v=64
30025 On ch=1 n=a5 v=64
30032 Par ch=1 c=7 v=106
30063 On ch=1 n=a5 v=0
30063 On ch=1 n=f#5 v=0
30065 On ch=1 n=d#5 v=64
30065 On ch=1 n=c#5 v=64
30065 On ch=1 n=f#6 v=64
30065 On ch=1 n=d#6 v=64
30065 On ch=1 n=c#6 v=64
30103 On ch=1 n=c#6 v=0
30103 On ch=1 n=d#6 v=0
30103 On ch=1 n=f#6 v=0
30103 On ch=1 n=c#5 v=0
30103 On ch=1 n=d#5 v=0
30105 On ch=1 n=f#5 v=64
30105 On ch=1 n=a5 v=64
30143 On ch=1 n=a5 v=0
30143 On ch=1 n=f#5 v=0
30145 On ch=1 n=d#5 v=64
30145 On ch=1 n=c#5 v=64
30145 On ch=1 n=f#6 v=64
30145 On ch=1 n=d#6 v=64
30145 On ch=1 n=c#6 v=64
30163 On ch=1 n=d#7 v=0
30163 On ch=1 n=d#7 v=0
30183 On ch=1 n=c#6 v=0
30183 On ch=1 n=d#6 v=0
30183 On ch=1 n=f#6 v=0
30183 On ch=1 n=c#5 v=0
30183 On ch=1 n=d#5 v=0
30185 On ch=1 n=f#5 v=64
30185 On ch=1 n=a5 v=64
30185 Par ch=1 c=64 v=0
30217 Par ch=1 c=64 v=96
30223 On ch=1 n=a5 v=0
30223 On ch=1 n=f#5 v=0
30223 On ch=1 n=d#4 v=0
30223 On ch=1 n=d#4 v=0
30224 Par ch=1 c=7 v=105
30225 Par ch=1 c=7 v=105
30225 On ch=1 n=g#3 v=64
30225 On ch=1 n=c7 v=64
30225 On ch=1 n=g#3 v=64
30225 On ch=1 n=c7 v=64
30265 On ch=1 n=a5 v=64
30265 On ch=1 n=c6 v=64
30303 On ch=1 n=c6 v=0
30303 On ch=1 n=a5 v=0
30305 On ch=1 n=f#5 v=64
30305 On ch=1 n=d#5 v=64
30305 On ch=1 n=c5 v=64
30305 On ch=1 n=f#6 v=64
30305 On ch=1 n=d#6 v=64
30320 Par ch=1 c=7 v=106
30343 On ch=1 n=d#6 v=0
30343 On ch=1 n=f#6 v=0
30343 On ch=1 n=c5 v=0
30343 On ch=1 n=d#5 v=0
30343 On ch=1 n=f#5 v=0
30345 On ch=1 n=a5 v=64
30345 On ch=1 n=c6 v=64
30383 On ch=1 n=c6 v=0
30383 On ch=1 n=a5 v=0
30385 On ch=1 n=f#5 v=64
30385 On ch=1 n=d#5 v=64
30385 On ch=1 n=c5 v=64
30385 On ch=1 n=f#6 v=64
30385 On ch=1 n=d#6 v=64
30403 On ch=1 n=c7 v=0
30403 On ch=1 n=c7 v=0
30413 Par ch=1 c=7 v=107
30420 On ch=1 n=d#6 v=0
30420 On ch=1 n=f#6 v=0
30420 On ch=1 n=c5 v=0
30420 On ch=1 n=d#5 v=0
30420 On ch=1 n=f#5 v=0
30422 On ch=1 n=a5 v=64
30422 On ch=1 n=c6 v=64
30460 On ch=1 n=c6 v=0
30460 On ch=1 n=a5 v=0
30462 On ch=1 n=f#5 v=64
30462 On ch=1 n=d#5 v=64
30462 On ch=1 n=c5 v=64
30462 On ch=1 n=a7 v=64
30462 On ch=1 n=a7 v=64
30500 On ch=1 n=c5 v=0
30500 On ch=1 n=d#5 v=0
30500 On ch=1 n=f#5 v=0
30502 On ch=1 n=a5 v=64
30502 On ch=1 n=c6 v=64
30509 Par ch=1 c=7 v=108
30540 On ch=1 n=c6 v=0
30540 On ch=1 n=a5 v=0
30542 On ch=1 n=f#5 v=64
30542 On ch=1 n=d#5 v=64
30542 On ch=1 n=c5 v=64
30542 On ch=1 n=d#6 v=64
30542 On ch=1 n=a6 v=64
30580 On ch=1 n=a6 v=0
30580 On ch=1 n=d#6 v=0
30580 On ch=1 n=c5 v=0
30580 On ch=1 n=d#5 v=0
30580 On ch=1 n=f#5 v=0
30582 On ch=1 n=a5 v=64
30582 On ch=1 n=c6 v=64
30605 Par ch=1 c=7 v=109
30620 On ch=1 n=c6 v=0
30620 On ch=1 n=a5 v=0
30622 On ch=1 n=f#5 v=64
30622 On ch=1 n=d#5 v=64
30622 On ch=1 n=c5 v=64
30622 On ch=1 n=d#6 v=64
30622 On ch=1 n=a6 v=64
30640 On ch=1 n=a7 v=0
30640 On ch=1 n=a7 v=0
30660 On ch=1 n=a6 v=0
30660 On ch=1 n=d#6 v=0
30660 On ch=1 n=c5 v=0
30660 On ch=1 n=d#5 v=0
30660 On ch=1 n=f#5 v=0
30662 On ch=1 n=a5 v=64
30662 On ch=1 n=c6 v=64
30700 On ch=1 n=c6 v=0
30700 On ch=1 n=a5 v=0
30700 On ch=1 n=g#3 v=0
30700 On ch=1 n=g#3 v=0
30701 Par ch=1 c=7 v=110
30702 On ch=1 n=f#5 v=64
30702 On ch=1 n=d#5 v=64
30702 On ch=1 n=c5 v=64
30702 On ch=1 n=g#7 v=64
30702 On ch=1 n=g#7 v=64
30740 On ch=1 n=c5 v=0
30740 On ch=1 n=d#5 v=0
30740 On ch=1 n=f#5 v=0
30742 On ch=1 n=a5 v=64
30742 On ch=1 n=c6 v=64
30780 On ch=1 n=c6 v=0
30780 On ch=1 n=a5 v=0
30782 On ch=1 n=f#5 v=64
30782 On ch=1 n=d#5 v=64
30782 On ch=1 n=c5 v=64
30782 On ch=1 n=g#6 v=64
30782 On ch=1 n=d#6 v=64
30797 Par ch=1 c=7 v=111
30820 On ch=1 n=d#6 v=0
30820 On ch=1 n=g#6 v=0
30820 On ch=1 n=c5 v=0
30820 On ch=1 n=d#5 v=0
30820 On ch=1 n=f#5 v=0
30822 On ch=1 n=a5 v=64
30822 On ch=1 n=c6 v=64
30860 On ch=1 n=c6 v=0
30860 On ch=1 n=a5 v=0
30862 On ch=1 n=f#5 v=64
30862 On ch=1 n=d#5 v=64
30862 On ch=1 n=c5 v=64
30862 On ch=1 n=g#6 v=64
30862 On ch=1 n=d#6 v=64
30880 On ch=1 n=g#7 v=0
30880 On ch=1 n=g#7 v=0
30890 Par ch=1 c=7 v=112
30897 On ch=1 n=d#6 v=0
30897 On ch=1 n=g#6 v=0
30897 On ch=1 n=c5 v=0
30897 On ch=1 n=d#5 v=0
30897 On ch=1 n=f#5 v=0
30899 On ch=1 n=a5 v=64
30899 On ch=1 n=c6 v=64
30899 Par ch=1 c=64 v=0
30931 Par ch=1 c=64 v=96
30937 On ch=1 n=c6 v=0
30937 On ch=1 n=a5 v=0
30939 On ch=1 n=a3 v=64
30939 On ch=1 n=f#7 v=64
30939 On ch=1 n=f#7 v=64
30939 On ch=1 n=a3 v=64
30979 On ch=1 n=f#5 v=64
30979 On ch=1 n=b5 v=64
30986 Par ch=1 c=7 v=113
31017 On ch=1 n=b5 v=0
31017 On ch=1 n=f#5 v=0
31019 On ch=1 n=d#5 v=64
31019 On ch=1 n=f#6 v=64
31019 On ch=1 n=d#6 v=64
31019 On ch=1 n=a4 v=64
31057 On ch=1 n=a4 v=0
31057 On ch=1 n=d#6 v=0
31057 On ch=1 n=f#6 v=0
31057 On ch=1 n=d#5 v=0
31059 On ch=1 n=f#5 v=64
31059 On ch=1 n=b5 v=64
31082 Par ch=1 c=7 v=114
31097 On ch=1 n=b5 v=0
31097 On ch=1 n=f#5 v=0
31099 On ch=1 n=d#5 v=64
31099 On ch=1 n=f#6 v=64
31099 On ch=1 n=d#6 v=64
31099 On ch=1 n=a4 v=64
31117 On ch=1 n=f#7 v=0
31117 On ch=1 n=f#7 v=0
31137 On ch=1 n=a4 v=0
31137 On ch=1 n=d#6 v=0
31137 On ch=1 n=f#6 v=0
31137 On ch=1 n=d#5 v=0
31139 On ch=1 n=f#5 v=64
31139 On ch=1 n=b5 v=64
31177 On ch=1 n=b5 v=0
31177 On ch=1 n=f#5 v=0
31178 Par ch=1 c=7 v=115
31179 On ch=1 n=d#5 v=64
31179 On ch=1 n=d#7 v=64
31179 On ch=1 n=d#7 v=64
31179 On ch=1 n=a4 v=64
31217 On ch=1 n=a4 v=0
31217 On ch=1 n=d#5 v=0
31219 On ch=1 n=f#5 v=64
31219 On ch=1 n=b5 v=64
31257 On ch=1 n=b5 v=0
31257 On ch=1 n=f#5 v=0
31259 On ch=1 n=d#5 v=64
31259 On ch=1 n=f#6 v=64
31259 On ch=1 n=d#6 v=64
31259 On ch=1 n=a4 v=64
31274 Par ch=1 c=7 v=116
31297 On ch=1 n=a4 v=0
31297 On ch=1 n=d#6 v=0
31297 On ch=1 n=f#6 v=0
31297 On ch=1 n=d#5 v=0
31299 On ch=1 n=f#5 v=64
31299 On ch=1 n=b5 v=64
31337 On ch=1 n=b5 v=0
31337 On ch=1 n=f#5 v=0
31339 On ch=1 n=d#5 v=64
31339 On ch=1 n=f#6 v=64
31339 On ch=1 n=d#6 v=64
31339 On ch=1 n=a4 v=64
31357 On ch=1 n=d#7 v=0
31357 On ch=1 n=d#7 v=0
31367 Par ch=1 c=7 v=117
31374 On ch=1 n=a4 v=0
31374 On ch=1 n=d#6 v=0
31374 On ch=1 n=f#6 v=0
31374 On ch=1 n=d#5 v=0
31376 On ch=1 n=f#5 v=64
31376 On ch=1 n=b5 v=64
31414 On ch=1 n=b5 v=0
31414 On ch=1 n=f#5 v=0
31414 On ch=1 n=a3 v=0
31414 On ch=1 n=a3 v=0
31416 On ch=1 n=d#5 v=64
31416 On ch=1 n=b6 v=64
31416 On ch=1 n=b6 v=64
31416 On ch=1 n=a4 v=64
31454 On ch=1 n=a4 v=0
31454 On ch=1 n=d#5 v=0
31456 On ch=1 n=f#5 v=64
31456 On ch=1 n=b5 v=64
31463 Par ch=1 c=7 v=118
31494 On ch=1 n=b5 v=0
31494 On ch=1 n=f#5 v=0
31496 On ch=1 n=d#5 v=64
31496 On ch=1 n=f#6 v=64
31496 On ch=1 n=d#6 v=64
31496 On ch=1 n=a4 v=64
31534 On ch=1 n=a4 v=0
31534 On ch=1 n=d#6 v=0
31534 On ch=1 n=f#6 v=0
31534 On ch=1 n=d#5 v=0
31536 On ch=1 n=f#5 v=64
31536 On ch=1 n=b5 v=64
31559 Par ch=1 c=7 v=119
31574 On ch=1 n=b5 v=0
31574 On ch=1 n=f#5 v=0
31576 On ch=1 n=d#5 v=64
31576 On ch=1 n=f#6 v=64
31576 On ch=1 n=d#6 v=64
31576 On ch=1 n=a4 v=64
31594 On ch=1 n=b6 v=0
31594 On ch=1 n=b6 v=0
31614 On ch=1 n=a4 v=0
31614 On ch=1 n=d#6 v=0
31614 On ch=1 n=f#6 v=0
31614 On ch=1 n=d#5 v=0
31616 On ch=1 n=f#5 v=64
31616 On ch=1 n=b5 v=64
31616 Par ch=1 c=64 v=0
31648 Par ch=1 c=64 v=96
31654 On ch=1 n=b5 v=0
31654 On ch=1 n=f#5 v=0
31655 Par ch=1 c=7 v=120
31656 On ch=1 n=g#3 v=64
31656 On ch=1 n=g#4 v=64
31656 On ch=1 n=g#3 v=64
31656 On ch=1 n=g#4 v=64
31696 On ch=1 n=b6 v=64
31696 On ch=1 n=b7 v=64
31696 On ch=1 n=b6 v=64
31696 On ch=1 n=b7 v=64
31736 On ch=1 n=g#5 v=64
31736 On ch=1 n=e5 v=64
31736 On ch=1 n=b4 v=64
31774 On ch=1 n=b4 v=0
31774 On ch=1 n=e5 v=0
31774 On ch=1 n=g#5 v=0
31776 On ch=1 n=g#6 v=64
31776 On ch=1 n=e6 v=64
31776 On ch=1 n=b5 v=64
31814 On ch=1 n=b5 v=0
31814 On ch=1 n=e6 v=0
31814 On ch=1 n=g#6 v=0
31816 On ch=1 n=g#5 v=64
31816 On ch=1 n=e5 v=64
31816 On ch=1 n=b4 v=64
31854 On ch=1 n=b4 v=0
31854 On ch=1 n=e5 v=0
31854 On ch=1 n=g#5 v=0
31856 On ch=1 n=g#6 v=64
31856 On ch=1 n=e6 v=64
31856 On ch=1 n=b5 v=64
31894 On ch=1 n=b5 v=0
31894 On ch=1 n=e6 v=0
31894 On ch=1 n=g#6 v=0
31896 On ch=1 n=g#5 v=64
31896 On ch=1 n=e5 v=64
31896 On ch=1 n=b4 v=64
31934 On ch=1 n=b4 v=0
31934 On ch=1 n=e5 v=0
31934 On ch=1 n=g#5 v=0
31936 On ch=1 n=g#6 v=64
31936 On ch=1 n=e6 v=64
31936 On ch=1 n=b5 v=64
31974 On ch=1 n=b5 v=0
31974 On ch=1 n=e6 v=0
31974 On ch=1 n=g#6 v=0
31976 On ch=1 n=g#5 v=64
31976 On ch=1 n=e5 v=64
31976 On ch=1 n=b4 v=64
32014 On ch=1 n=b4 v=0
32014 On ch=1 n=e5 v=0
32014 On ch=1 n=g#5 v=0
32016 On ch=1 n=g#6 v=64
32016 On ch=1 n=e6 v=64
32016 On ch=1 n=b5 v=64
32054 On ch=1 n=b5 v=0
32054 On ch=1 n=e6 v=0
32054 On ch=1 n=g#6 v=0
32056 On ch=1 n=g#5 v=64
32056 On ch=1 n=e5 v=64
32056 On ch=1 n=b4 v=64
32094 On ch=1 n=b4 v=0
32094 On ch=1 n=e5 v=0
32094 On ch=1 n=g#5 v=0
32096 On ch=1 n=g#6 v=64
32096 On ch=1 n=e6 v=64
32096 On ch=1 n=b5 v=64
32134 On ch=1 n=b5 v=0
32134 On ch=1 n=e6 v=0
32134 On ch=1 n=g#6 v=0
32134 On ch=1 n=b7 v=0
32134 On ch=1 n=b6 v=0
32134 On ch=1 n=b7 v=0
32134 On ch=1 n=b6 v=0
32134 On ch=1 n=g#4 v=0
32134 On ch=1 n=g#3 v=0
32134 On ch=1 n=g#4 v=0
32134 On ch=1 n=g#3 v=0
32136 On ch=1 n=e3 v=64
32136 On ch=1 n=e4 v=64
32136 On ch=1 n=e3 v=64
32136 On ch=1 n=e4 v=64
32176 On ch=1 n=g#6 v=64
32176 On ch=1 n=g#7 v=64
32176 On ch=1 n=g#6 v=64
32176 On ch=1 n=g#7 v=64
32216 On ch=1 n=e5 v=64
32216 On ch=1 n=b4 v=64
32216 On ch=1 n=g#4 v=64
32254 On ch=1 n=g#4 v=0
32254 On ch=1 n=b4 v=0
32254 On ch=1 n=e5 v=0
32256 On ch=1 n=e6 v=64
32256 On ch=1 n=b5 v=64
32256 On ch=1 n=g#5 v=64
32294 On ch=1 n=g#5 v=0
32294 On ch=1 n=b5 v=0
32294 On ch=1 n=e6 v=0
32296 On ch=1 n=e5 v=64
32296 On ch=1 n=b4 v=64
32296 On ch=1 n=g#4 v=64
32334 On ch=1 n=g#4 v=0
32334 On ch=1 n=b4 v=0
32334 On ch=1 n=e5 v=0
32336 On ch=1 n=e6 v=64
32336 On ch=1 n=b5 v=64
32336 On ch=1 n=g#5 v=64
32336 Par ch=1 c=64 v=0
32368 Par ch=1 c=64 v=96
32374 On ch=1 n=g#5 v=0
32374 On ch=1 n=b5 v=0
32374 On ch=1 n=e6 v=0
32374 On ch=1 n=g#7 v=0
32374 On ch=1 n=g#6 v=0
32374 On ch=1 n=g#7 v=0
32374 On ch=1 n=g#6 v=0
32374 On ch=1 n=e4 v=0
32374 On ch=1 n=e3 v=0
32374 On ch=1 n=e4 v=0
32374 On ch=1 n=e3 v=0
32376 On ch=1 n=c3 v=64
32376 On ch=1 n=c4 v=64
32376 On ch=1 n=c3 v=64
32376 On ch=1 n=c4 v=64
32416 On ch=1 n=e7 v=64
32416 On ch=1 n=e8 v=64
32416 On ch=1 n=e7 v=64
32416 On ch=1 n=e8 v=64
32456 On ch=1 n=e5 v=64
32456 On ch=1 n=a#4 v=64
32456 On ch=1 n=g4 v=64
32494 On ch=1 n=g4 v=0
32494 On ch=1 n=a#4 v=0
32494 On ch=1 n=e5 v=0
32496 On ch=1 n=e6 v=64
32496 On ch=1 n=a#5 v=64
32496 On ch=1 n=g5 v=64
32534 On ch=1 n=g5 v=0
32534 On ch=1 n=a#5 v=0
32534 On ch=1 n=e6 v=0
32536 On ch=1 n=e5 v=64
32536 On ch=1 n=a#4 v=64
32536 On ch=1 n=g4 v=64
32574 On ch=1 n=g4 v=0
32574 On ch=1 n=a#4 v=0
32574 On ch=1 n=e5 v=0
32576 On ch=1 n=e6 v=64
32576 On ch=1 n=a#5 v=64
32576 On ch=1 n=g5 v=64
32614 On ch=1 n=g5 v=0
32614 On ch=1 n=a#5 v=0
32614 On ch=1 n=e6 v=0
32616 On ch=1 n=e5 v=64
32616 On ch=1 n=a#4 v=64
32616 On ch=1 n=g4 v=64
32654 On ch=1 n=g4 v=0
32654 On ch=1 n=a#4 v=0
32654 On ch=1 n=e5 v=0
32656 On ch=1 n=e6 v=64
32656 On ch=1 n=a#5 v=64
32656 On ch=1 n=g5 v=64
32694 On ch=1 n=g5 v=0
32694 On ch=1 n=a#5 v=0
32694 On ch=1 n=e6 v=0
32696 On ch=1 n=e5 v=64
32696 On ch=1 n=a#4 v=64
32696 On ch=1 n=g4 v=64
32734 On ch=1 n=g4 v=0
32734 On ch=1 n=a#4 v=0
32734 On ch=1 n=e5 v=0
32736 On ch=1 n=e6 v=64
32736 On ch=1 n=a#5 v=64
32736 On ch=1 n=g5 v=64
32774 On ch=1 n=g5 v=0
32774 On ch=1 n=a#5 v=0
32774 On ch=1 n=e6 v=0
32776 On ch=1 n=e5 v=64
32776 On ch=1 n=a#4 v=64
32776 On ch=1 n=g4 v=64
32814 On ch=1 n=g4 v=0
32814 On ch=1 n=a#4 v=0
32814 On ch=1 n=e5 v=0
32816 On ch=1 n=e6 v=64
32816 On ch=1 n=a#5 v=64
32816 On ch=1 n=g5 v=64
32854 On ch=1 n=g5 v=0
32854 On ch=1 n=a#5 v=0
32854 On ch=1 n=e6 v=0
32854 On ch=1 n=e8 v=0
32854 On ch=1 n=e7 v=0
32854 On ch=1 n=e8 v=0
32854 On ch=1 n=e7 v=0
32854 On ch=1 n=c4 v=0
32854 On ch=1 n=c3 v=0
32854 On ch=1 n=c4 v=0
32854 On ch=1 n=c3 v=0
32856 On ch=1 n=c3 v=64
32856 On ch=1 n=c4 v=64
32856 On ch=1 n=c3 v=64
32856 On ch=1 n=c4 v=64
32896 On ch=1 n=a#6 v=64
32896 On ch=1 n=a#7 v=64
32896 On ch=1 n=a#6 v=64
32896 On ch=1 n=a#7 v=64
32936 On ch=1 n=e5 v=64
32936 On ch=1 n=a#4 v=64
32936 On ch=1 n=g4 v=64
32974 On ch=1 n=g4 v=0
32974 On ch=1 n=a#4 v=0
32974 On ch=1 n=e5 v=0
32976 On ch=1 n=e6 v=64
32976 On ch=1 n=a#5 v=64
32976 On ch=1 n=g5 v=64
33014 On ch=1 n=g5 v=0
33014 On ch=1 n=a#5 v=0
33014 On ch=1 n=e6 v=0
33016 On ch=1 n=e5 v=64
33016 On ch=1 n=a#4 v=64
33016 On ch=1 n=g4 v=64
33054 On ch=1 n=g4 v=0
33054 On ch=1 n=a#4 v=0
33054 On ch=1 n=e5 v=0
33056 On ch=1 n=e6 v=64
33056 On ch=1 n=a#5 v=64
33056 On ch=1 n=g5 v=64
33056 Par ch=1 c=64 v=0
33088 Par ch=1 c=64 v=96
33094 On ch=1 n=g5 v=0
33094 On ch=1 n=a#5 v=0
33094 On ch=1 n=e6 v=0
33094 On ch=1 n=a#7 v=0
33094 On ch=1 n=a#6 v=0
33094 On ch=1 n=a#7 v=0
33094 On ch=1 n=a#6 v=0
33094 On ch=1 n=c4 v=0
33094 On ch=1 n=c3 v=0
33094 On ch=1 n=c4 v=0
33094 On ch=1 n=c3 v=0
33096 On ch=1 n=b2 v=64
33096 On ch=1 n=b3 v=64
33096 On ch=1 n=b2 v=64
33096 On ch=1 n=b3 v=64
33136 On ch=1 n=b6 v=64
33136 On ch=1 n=b7 v=64
33136 On ch=1 n=b6 v=64
33136 On ch=1 n=b7 v=64
33176 On ch=1 n=e5 v=64
33176 On ch=1 n=b4 v=64
33176 On ch=1 n=g#4 v=64
33214 On ch=1 n=g#4 v=0
33214 On ch=1 n=b4 v=0
33214 On ch=1 n=e5 v=0
33216 On ch=1 n=e6 v=64
33216 On ch=1 n=g#5 v=64
33216 On ch=1 n=b5 v=64
33254 On ch=1 n=b5 v=0
33254 On ch=1 n=g#5 v=0
33254 On ch=1 n=e6 v=0
33256 On ch=1 n=e5 v=64
33256 On ch=1 n=b4 v=64
33256 On ch=1 n=g#4 v=64
33294 On ch=1 n=g#4 v=0
33294 On ch=1 n=b4 v=0
33294 On ch=1 n=e5 v=0
33296 On ch=1 n=e6 v=64
33296 On ch=1 n=b5 v=64
33296 On ch=1 n=g#5 v=64
33334 On ch=1 n=g#5 v=0
33334 On ch=1 n=b5 v=0
33334 On ch=1 n=e6 v=0
33334 On ch=1 n=b7 v=0
33334 On ch=1 n=b6 v=0
33334 On ch=1 n=b7 v=0
33334 On ch=1 n=b6 v=0
33334 On ch=1 n=b3 v=0
33334 On ch=1 n=b2 v=0
33334 On ch=1 n=b3 v=0
33334 On ch=1 n=b2 v=0
33336 On ch=1 n=g#3 v=64
33336 On ch=1 n=g#4 v=64
33336 On ch=1 n=g#3 v=64
33336 On ch=1 n=g#4 v=64
33376 On ch=1 n=g#6 v=64
33376 On ch=1 n=g#7 v=64
33376 On ch=1 n=g#6 v=64
33376 On ch=1 n=g#7 v=64
33416 On ch=1 n=g#5 v=64
33416 On ch=1 n=e5 v=64
33416 On ch=1 n=b4 v=64
33454 On ch=1 n=b4 v=0
33454 On ch=1 n=e5 v=0
33454 On ch=1 n=g#5 v=0
33456 On ch=1 n=e6 v=64
33456 On ch=1 n=b5 v=64
33494 On ch=1 n=b5 v=0
33494 On ch=1 n=e6 v=0
33496 On ch=1 n=g#5 v=64
33496 On ch=1 n=e5 v=64
33496 On ch=1 n=b4 v=64
33534 On ch=1 n=b4 v=0
33534 On ch=1 n=e5 v=0
33534 On ch=1 n=g#5 v=0
33536 On ch=1 n=e6 v=64
33536 On ch=1 n=b5 v=64
33536 Par ch=1 c=64 v=0
33568 Par ch=1 c=64 v=96
33574 On ch=1 n=b5 v=0
33574 On ch=1 n=e6 v=0
33574 On ch=1 n=g#7 v=0
33574 On ch=1 n=g#6 v=0
33574 On ch=1 n=g#7 v=0
33574 On ch=1 n=g#6 v=0
33574 On ch=1 n=g#4 v=0
33574 On ch=1 n=g#3 v=0
33574 On ch=1 n=g#4 v=0
33574 On ch=1 n=g#3 v=0
33576 On ch=1 n=d#3 v=64
33576 On ch=1 n=d#4 v=64
33576 On ch=1 n=d#3 v=64
33576 On ch=1 n=d#4 v=64
33616 On ch=1 n=d#6 v=64
33616 On ch=1 n=d#7 v=64
33616 On ch=1 n=d#6 v=64
33616 On ch=1 n=d#7 v=64
33656 On ch=1 n=d#5 v=64
33656 On ch=1 n=b4 v=64
33656 On ch=1 n=g#4 v=64
33694 On ch=1 n=g#4 v=0
33694 On ch=1 n=b4 v=0
33694 On ch=1 n=d#5 v=0
33696 On ch=1 n=b5 v=64
33696 On ch=1 n=g#5 v=64
33734 On ch=1 n=g#5 v=0
33734 On ch=1 n=b5 v=0
33736 On ch=1 n=d#5 v=64
33736 On ch=1 n=b4 v=64
33736 On ch=1 n=g#4 v=64
33774 On ch=1 n=g#4 v=0
33774 On ch=1 n=b4 v=0
33774 On ch=1 n=d#5 v=0
33776 On ch=1 n=b5 v=64
33776 On ch=1 n=g#5 v=64
33776 Par ch=1 c=64 v=0
33808 Par ch=1 c=64 v=96
33814 On ch=1 n=g#5 v=0
33814 On ch=1 n=b5 v=0
33814 On ch=1 n=d#7 v=0
33814 On ch=1 n=d#6 v=0
33814 On ch=1 n=d#7 v=0
33814 On ch=1 n=d#6 v=0
33814 On ch=1 n=d#4 v=0
33814 On ch=1 n=d#3 v=0
33814 On ch=1 n=d#4 v=0
33814 On ch=1 n=d#3 v=0
33816 On ch=1 n=e3 v=64
33816 On ch=1 n=e4 v=64
33816 On ch=1 n=e3 v=64
33816 On ch=1 n=e4 v=64
33856 On ch=1 n=e6 v=64
33856 On ch=1 n=e7 v=64
33856 On ch=1 n=e6 v=64
33856 On ch=1 n=e7 v=64
33896 On ch=1 n=e5 v=64
33896 On ch=1 n=b4 v=64
33896 On ch=1 n=g#4 v=64
33934 On ch=1 n=g#4 v=0
33934 On ch=1 n=b4 v=0
33934 On ch=1 n=e5 v=0
33936 On ch=1 n=b5 v=64
33936 On ch=1 n=g#5 v=64
33974 On ch=1 n=g#5 v=0
33974 On ch=1 n=b5 v=0
33976 On ch=1 n=e5 v=64
33976 On ch=1 n=b4 v=64
33976 On ch=1 n=g#4 v=64
34014 On ch=1 n=g#4 v=0
34014 On ch=1 n=b4 v=0
34014 On ch=1 n=e5 v=0
34016 On ch=1 n=b5 v=64
34016 On ch=1 n=g#5 v=64
34054 On ch=1 n=g#5 v=0
34054 On ch=1 n=b5 v=0
34054 On ch=1 n=e7 v=0
34054 On ch=1 n=e6 v=0
34054 On ch=1 n=e7 v=0
34054 On ch=1 n=e6 v=0
34054 On ch=1 n=e4 v=0
34054 On ch=1 n=e3 v=0
34054 On ch=1 n=e4 v=0
34054 On ch=1 n=e3 v=0
34056 On ch=1 n=a#2 v=64
34056 On ch=1 n=a#3 v=64
34056 On ch=1 n=a#2 v=64
34056 On ch=1 n=a#3 v=64
34096 On ch=1 n=a#5 v=64
34096 On ch=1 n=a#6 v=64
34096 On ch=1 n=a#5 v=64
34096 On ch=1 n=a#6 v=64
34136 On ch=1 n=g#4 v=64
34136 On ch=1 n=e4 v=64
34136 On ch=1 n=a#4 v=64
34174 On ch=1 n=a#4 v=0
34174 On ch=1 n=e4 v=0
34174 On ch=1 n=g#4 v=0
34176 On ch=1 n=g#5 v=64
34176 On ch=1 n=e5 v=64
34214 On ch=1 n=e5 v=0
34214 On ch=1 n=g#5 v=0
34216 On ch=1 n=g#4 v=64
34216 On ch=1 n=e4 v=64
34216 On ch=1 n=a#4 v=64
34254 On ch=1 n=a#4 v=0
34254 On ch=1 n=e4 v=0
34254 On ch=1 n=g#4 v=0
34256 On ch=1 n=g#5 v=64
34256 On ch=1 n=e5 v=64
34256 Par ch=1 c=64 v=0
34288 Par ch=1 c=64 v=96
34294 On ch=1 n=e5 v=0
34294 On ch=1 n=g#5 v=0
34294 On ch=1 n=a#6 v=0
34294 On ch=1 n=a#5 v=0
34294 On ch=1 n=a#6 v=0
34294 On ch=1 n=a#5 v=0
34294 On ch=1 n=a#3 v=0
34294 On ch=1 n=a#2 v=0
34294 On ch=1 n=a#3 v=0
34294 On ch=1 n=a#2 v=0
34296 On ch=1 n=b2 v=64
34296 On ch=1 n=b3 v=64
34296 On ch=1 n=b2 v=64
34296 On ch=1 n=b3 v=64
34336 On ch=1 n=b5 v=64
34336 On ch=1 n=b6 v=64
34336 On ch=1 n=b5 v=64
34336 On ch=1 n=b6 v=64
34376 On ch=1 n=b4 v=64
34376 On ch=1 n=g#4 v=64
34376 On ch=1 n=e4 v=64
34414 On ch=1 n=e4 v=0
34414 On ch=1 n=g#4 v=0
34414 On ch=1 n=b4 v=0
34416 On ch=1 n=g#5 v=64
34416 On ch=1 n=e5 v=64
34454 On ch=1 n=e5 v=0
34454 On ch=1 n=g#5 v=0
34456 On ch=1 n=b4 v=64
34456 On ch=1 n=g#4 v=64
34456 On ch=1 n=e4 v=64
34494 On ch=1 n=e4 v=0
34494 On ch=1 n=g#4 v=0
34494 On ch=1 n=b4 v=0
34496 On ch=1 n=g#5 v=64
34496 On ch=1 n=e5 v=64
34496 Par ch=1 c=64 v=0
34528 Par ch=1 c=64 v=96
34534 On ch=1 n=e5 v=0
34534 On ch=1 n=g#5 v=0
34534 On ch=1 n=b6 v=0
34534 On ch=1 n=b5 v=0
34534 On ch=1 n=b6 v=0
34534 On ch=1 n=b5 v=0
34534 On ch=1 n=b3 v=0
34534 On ch=1 n=b2 v=0
34534 On ch=1 n=b3 v=0
34534 On ch=1 n=b2 v=0
34536 On ch=1 n=c3 v=64
34536 On ch=1 n=c4 v=64
34536 On ch=1 n=c3 v=64
34536 On ch=1 n=c4 v=64
34576 On ch=1 n=c6 v=64
34576 On ch=1 n=c7 v=64
34576 On ch=1 n=c6 v=64
34576 On ch=1 n=c7 v=64
34616 On ch=1 n=e4 v=64
34616 On ch=1 n=c5 v=64
34616 On ch=1 n=a4 v=64
34654 On ch=1 n=a4 v=0
34654 On ch=1 n=c5 v=0
34654 On ch=1 n=e4 v=0
34656 On ch=1 n=a5 v=64
34656 On ch=1 n=e5 v=64
34694 On ch=1 n=e5 v=0
34694 On ch=1 n=a5 v=0
34696 On ch=1 n=e4 v=64
34696 On ch=1 n=c5 v=64
34696 On ch=1 n=a4 v=64
34734 On ch=1 n=a4 v=0
34734 On ch=1 n=c5 v=0
34734 On ch=1 n=e4 v=0
34736 On ch=1 n=a5 v=64
34736 On ch=1 n=e5 v=64
34774 On ch=1 n=e5 v=0
34774 On ch=1 n=a5 v=0
34776 On ch=1 n=e4 v=64
34776 On ch=1 n=c5 v=64
34776 On ch=1 n=a4 v=64
34814 On ch=1 n=a4 v=0
34814 On ch=1 n=c5 v=0
34814 On ch=1 n=e4 v=0
34816 On ch=1 n=a5 v=64
34816 On ch=1 n=e5 v=64
34854 On ch=1 n=e5 v=0
34854 On ch=1 n=a5 v=0
34856 On ch=1 n=e4 v=64
34856 On ch=1 n=c5 v=64
34856 On ch=1 n=a4 v=64
34894 On ch=1 n=a4 v=0
34894 On ch=1 n=c5 v=0
34894 On ch=1 n=e4 v=0
34896 On ch=1 n=a5 v=64
34896 On ch=1 n=e5 v=64
34934 On ch=1 n=e5 v=0
34934 On ch=1 n=a5 v=0
34936 On ch=1 n=e4 v=64
34936 On ch=1 n=c5 v=64
34936 On ch=1 n=a4 v=64
34974 On ch=1 n=a4 v=0
34974 On ch=1 n=c5 v=0
34974 On ch=1 n=e4 v=0
34976 On ch=1 n=a5 v=64
34976 On ch=1 n=e5 v=64
35014 On ch=1 n=e5 v=0
35014 On ch=1 n=a5 v=0
35014 On ch=1 n=c7 v=0
35014 On ch=1 n=c6 v=0
35014 On ch=1 n=c7 v=0
35014 On ch=1 n=c6 v=0
35014 On ch=1 n=c4 v=0
35014 On ch=1 n=c3 v=0
35014 On ch=1 n=c4 v=0
35014 On ch=1 n=c3 v=0
35016 On ch=1 n=e4 v=64
35016 On ch=1 n=c5 v=64
35016 On ch=1 n=a4 v=64
35054 On ch=1 n=a4 v=0
35054 On ch=1 n=c5 v=0
35054 On ch=1 n=e4 v=0
35056 On ch=1 n=a5 v=64
35056 On ch=1 n=e5 v=64
35094 On ch=1 n=e5 v=0
35094 On ch=1 n=a5 v=0
35096 On ch=1 n=e4 v=64
35096 On ch=1 n=c5 v=64
35096 On ch=1 n=a4 v=64
35134 On ch=1 n=a4 v=0
35134 On ch=1 n=c5 v=0
35134 On ch=1 n=e4 v=0
35136 On ch=1 n=a5 v=64
35136 On ch=1 n=e5 v=64
35174 On ch=1 n=e5 v=0
35174 On ch=1 n=a5 v=0
35176 On ch=1 n=e4 v=64
35176 On ch=1 n=c5 v=64
35176 On ch=1 n=a4 v=64
35214 On ch=1 n=a4 v=0
35214 On ch=1 n=c5 v=0
35214 On ch=1 n=e4 v=0
35216 On ch=1 n=a5 v=64
35216 On ch=1 n=e5 v=64
35216 Par ch=1 c=64 v=0
35248 Par ch=1 c=64 v=96
35254 On ch=1 n=e5 v=0
35254 On ch=1 n=a5 v=0
35256 Tempo 1428571
35256 On ch=1 n=f3 v=64
35256 On ch=1 n=f2 v=64
35256 On ch=1 n=f3 v=64
35256 On ch=1 n=f2 v=64
35296 On ch=1 n=f5 v=64
35296 On ch=1 n=f6 v=64
35296 On ch=1 n=f5 v=64
35296 On ch=1 n=f6 v=64
35327 Tempo 1463415
35336 On ch=1 n=e4 v=64
35336 On ch=1 n=a4 v=64
35374 On ch=1 n=a4 v=0
35374 On ch=1 n=e4 v=0
35376 On ch=1 n=e5 v=64
35376 On ch=1 n=c5 v=64
35399 Tempo 1500000
35414 On ch=1 n=c5 v=0
35414 On ch=1 n=e5 v=0
35416 On ch=1 n=e4 v=64
35416 On ch=1 n=a4 v=64
35454 On ch=1 n=a4 v=0
35454 On ch=1 n=e4 v=0
35456 On ch=1 n=e5 v=64
35456 On ch=1 n=c5 v=64
35456 Par ch=1 c=64 v=0
35471 Tempo 1538462
35488 Par ch=1 c=64 v=96
35494 On ch=1 n=c5 v=0
35494 On ch=1 n=e5 v=0
35494 On ch=1 n=f6 v=0
35494 On ch=1 n=f5 v=0
35494 On ch=1 n=f6 v=0
35494 On ch=1 n=f5 v=0
35494 On ch=1 n=f2 v=0
35494 On ch=1 n=f3 v=0
35494 On ch=1 n=f2 v=0
35494 On ch=1 n=f3 v=0
35496 On ch=1 n=f#3 v=64
35496 On ch=1 n=f#2 v=64
35496 On ch=1 n=f#3 v=64
35496 On ch=1 n=f#2 v=64
35536 On ch=1 n=f#5 v=64
35536 On ch=1 n=f#6 v=64
35536 On ch=1 n=f#5 v=64
35536 On ch=1 n=f#6 v=64
35543 Tempo 1578947
35576 On ch=1 n=e4 v=64
35576 On ch=1 n=a4 v=64
35614 On ch=1 n=a4 v=0
35614 On ch=1 n=e4 v=0
35615 Tempo 1621622
35616 On ch=1 n=e5 v=64
35616 On ch=1 n=c5 v=64
35654 On ch=1 n=c5 v=0
35654 On ch=1 n=e5 v=0
35656 On ch=1 n=e4 v=64
35656 On ch=1 n=a4 v=64
35687 Tempo 1666667
35694 On ch=1 n=a4 v=0
35694 On ch=1 n=e4 v=0
35696 On ch=1 n=e5 v=64
35696 On ch=1 n=c5 v=64
35734 On ch=1 n=c5 v=0
35734 On ch=1 n=e5 v=0
35734 On ch=1 n=f#6 v=0
35734 On ch=1 n=f#5 v=0
35734 On ch=1 n=f#6 v=0
35734 On ch=1 n=f#5 v=0
35734 On ch=1 n=f#2 v=0
35734 On ch=1 n=f#3 v=0
35734 On ch=1 n=f#2 v=0
35734 On ch=1 n=f#3 v=0
35736 On ch=1 n=b3 v=64
35736 On ch=1 n=b2 v=64
35736 On ch=1 n=b3 v=64
35736 On ch=1 n=b2 v=64
35759 Tempo 1714286
35776 On ch=1 n=b5 v=64
35776 On ch=1 n=b6 v=64
35776 On ch=1 n=b5 v=64
35776 On ch=1 n=b6 v=64
35816 On ch=1 n=f#4 v=64
35816 On ch=1 n=a4 v=64
35831 Tempo 1764706
35854 On ch=1 n=a4 v=0
35854 On ch=1 n=f#4 v=0
35856 On ch=1 n=f#5 v=64
35856 On ch=1 n=d#5 v=64
35894 On ch=1 n=d#5 v=0
35894 On ch=1 n=f#5 v=0
35896 On ch=1 n=f#4 v=64
35896 On ch=1 n=a4 v=64
35903 Tempo 1818182
35934 On ch=1 n=a4 v=0
35934 On ch=1 n=f#4 v=0
35936 On ch=1 n=f#5 v=64
35936 On ch=1 n=d#5 v=64
35974 On ch=1 n=d#5 v=0
35974 On ch=1 n=f#5 v=0
35974 On ch=1 n=b6 v=0
35974 On ch=1 n=b5 v=0
35974 On ch=1 n=b6 v=0
35974 On ch=1 n=b5 v=0
35974 On ch=1 n=b2 v=0
35974 On ch=1 n=b3 v=0
35974 On ch=1 n=b2 v=0
35974 On ch=1 n=b3 v=0
35975 Tempo 1875000
35976 Tempo 1428571
35976 On ch=1 n=g#4 v=64
35976 On ch=1 n=b3 v=64
35976 On ch=1 n=e3 v=64
35976 On ch=1 n=e6 v=64
35976 On ch=1 n=e5 v=64
35976 On ch=1 n=g#4 v=64
35976 On ch=1 n=b3 v=64
35976 On ch=1 n=e3 v=64
35976 On ch=1 n=e6 v=64
35976 On ch=1 n=e5 v=64
36094 On ch=1 n=e5 v=0
36094 On ch=1 n=e6 v=0
36094 On ch=1 n=e3 v=0
36094 On ch=1 n=b3 v=0
36094 On ch=1 n=g#4 v=0
36094 On ch=1 n=e5 v=0
36094 On ch=1 n=e6 v=0
36094 On ch=1 n=e3 v=0
36094 On ch=1 n=b3 v=0
36094 On ch=1 n=g#4 v=0
36096 Par ch=1 c=64 v=0
36208 Par ch=1 c=64 v=96
36216 Par ch=1 c=7 v=110
36216 On ch=1 n=g#4 v=64
36216 On ch=1 n=g#5 v=64
36216 On ch=1 n=g#4 v=64
36216 On ch=1 n=g#5 v=64
36264 On ch=1 n=b4 v=64
36310 On ch=1 n=b4 v=0
36312 On ch=1 n=e5 v=64
36358 On ch=1 n=e5 v=0
36360 On ch=1 n=b4 v=64
36406 On ch=1 n=b4 v=0
36408 On ch=1 n=e5 v=64
36454 On ch=1 n=e5 v=0
36454 On ch=1 n=g#5 v=0
36454 On ch=1 n=g#4 v=0
36454 On ch=1 n=g#5 v=0
36454 On ch=1 n=g#4 v=0
36456 On ch=1 n=f#4 v=64
36456 On ch=1 n=f#5 v=64
36456 On ch=1 n=f#4 v=64
36456 On ch=1 n=f#5 v=64
36504 On ch=1 n=g#4 v=64
36550 On ch=1 n=g#4 v=0
36552 On ch=1 n=b4 v=64
36598 On ch=1 n=b4 v=0
36600 On ch=1 n=g#4 v=64
36646 On ch=1 n=g#4 v=0
36648 On ch=1 n=b4 v=64
36694 On ch=1 n=b4 v=0
36694 On ch=1 n=f#5 v=0
36694 On ch=1 n=f#4 v=0
36694 On ch=1 n=f#5 v=0
36694 On ch=1 n=f#4 v=0
36696 On ch=1 n=e4 v=64
36696 On ch=1 n=e5 v=64
36696 On ch=1 n=e4 v=64
36696 On ch=1 n=e5 v=64
36744 On ch=1 n=g#4 v=64
36790 On ch=1 n=g#4 v=0
36792 On ch=1 n=b4 v=64
36838 On ch=1 n=b4 v=0
36840 On ch=1 n=g#4 v=64
36886 On ch=1 n=g#4 v=0
36888 On ch=1 n=b4 v=64
36934 On ch=1 n=b4 v=0
36934 On ch=1 n=e5 v=0
36934 On ch=1 n=e4 v=0
36934 On ch=1 n=e5 v=0
36934 On ch=1 n=e4 v=0
36936 On ch=1 n=d#4 v=64
36936 On ch=1 n=d#5 v=64
36936 On ch=1 n=d#4 v=64
36936 On ch=1 n=d#5 v=64
36984 On ch=1 n=g#4 v=64
37030 On ch=1 n=g#4 v=0
37032 On ch=1 n=b4 v=64
37078 On ch=1 n=b4 v=0
37080 On ch=1 n=g#4 v=64
37126 On ch=1 n=g#4 v=0
37128 On ch=1 n=b4 v=64
37174 On ch=1 n=b4 v=0
37174 On ch=1 n=d#5 v=0
37174 On ch=1 n=d#4 v=0
37174 On ch=1 n=d#5 v=0
37174 On ch=1 n=d#4 v=0
37176 On ch=1 n=g#3 v=64
37176 On ch=1 n=e4 v=64
37176 On ch=1 n=e5 v=64
37176 On ch=1 n=g#3 v=64
37176 On ch=1 n=e4 v=64
37176 On ch=1 n=e5 v=64
37224 On ch=1 n=g#4 v=64
37270 On ch=1 n=g#4 v=0
37272 On ch=1 n=b4 v=64
37294 On ch=1 n=g#3 v=0
37294 On ch=1 n=g#3 v=0
37318 On ch=1 n=b4 v=0
37320 On ch=1 n=g#4 v=64
37366 On ch=1 n=g#4 v=0
37368 On ch=1 n=b4 v=64
37376 Par ch=1 c=64 v=0
37408 Par ch=1 c=64 v=96
37414 On ch=1 n=b4 v=0
37414 On ch=1 n=e5 v=0
37414 On ch=1 n=e4 v=0
37414 On ch=1 n=e5 v=0
37414 On ch=1 n=e4 v=0
37416 On ch=1 n=f#3 v=64
37416 On ch=1 n=a5 v=64
37416 On ch=1 n=a4 v=64
37416 On ch=1 n=f#3 v=64
37416 On ch=1 n=a5 v=64
37416 On ch=1 n=a4 v=64
37464 On ch=1 n=c5 v=64
37510 On ch=1 n=c5 v=0
37512 On ch=1 n=e5 v=64
37534 On ch=1 n=f#3 v=0
37534 On ch=1 n=f#3 v=0
37558 On ch=1 n=e5 v=0
37560 On ch=1 n=c5 v=64
37606 On ch=1 n=c5 v=0
37608 On ch=1 n=e5 v=64
37654 On ch=1 n=e5 v=0
37656 On ch=1 n=c5 v=64
37656 On ch=1 n=e3 v=64
37656 On ch=1 n=e3 v=64
37694 On ch=1 n=c5 v=0
37696 On ch=1 n=e5 v=64
37734 On ch=1 n=e5 v=0
37736 On ch=1 n=c5 v=64
37774 On ch=1 n=c5 v=0
37774 On ch=1 n=e3 v=0
37774 On ch=1 n=e3 v=0
37776 On ch=1 n=e5 v=64
37814 On ch=1 n=e5 v=0
37816 On ch=1 n=c5 v=64
37854 On ch=1 n=c5 v=0
37856 On ch=1 n=e5 v=64
37894 On ch=1 n=e5 v=0
37896 Par ch=1 c=7 v=110
37896 On ch=1 n=c5 v=64
37896 On ch=1 n=d#3 v=64
37896 On ch=1 n=d#3 v=64
37934 On ch=1 n=c5 v=0
37936 On ch=1 n=e5 v=64
37974 On ch=1 n=e5 v=0
37976 On ch=1 n=c5 v=64
37991 Par ch=1 c=7 v=111
38014 On ch=1 n=c5 v=0
38014 On ch=1 n=d#3 v=0
38014 On ch=1 n=d#3 v=0
38016 On ch=1 n=e5 v=64
38054 On ch=1 n=e5 v=0
38056 On ch=1 n=c5 v=64
38087 Par ch=1 c=7 v=112
38094 On ch=1 n=c5 v=0
38096 On ch=1 n=e5 v=64
38134 On ch=1 n=e5 v=0
38134 On ch=1 n=a4 v=0
38134 On ch=1 n=a5 v=0
38134 On ch=1 n=a4 v=0
38134 On ch=1 n=a5 v=0
38136 On ch=1 n=c5 v=64
38136 On ch=1 n=e3 v=64
38136 On ch=1 n=e3 v=64
38174 On ch=1 n=c5 v=0
38176 On ch=1 n=e5 v=64
38183 Par ch=1 c=7 v=113
38214 On ch=1 n=e5 v=0
38216 On ch=1 n=c5 v=64
38254 On ch=1 n=c5 v=0
38254 On ch=1 n=e3 v=0
38254 On ch=1 n=e3 v=0
38256 On ch=1 n=e5 v=64
38279 Par ch=1 c=7 v=114
38294 On ch=1 n=e5 v=0
38296 On ch=1 n=c5 v=64
38334 On ch=1 n=c5 v=0
38336 On ch=1 n=e5 v=64
38336 Par ch=1 c=64 v=0
38368 Par ch=1 c=64 v=96
38374 On ch=1 n=e5 v=0
38375 Par ch=1 c=7 v=115
38376 On ch=1 n=c5 v=64
38376 On ch=1 n=c6 v=64
38376 On ch=1 n=a3 v=64
38376 On ch=1 n=c5 v=64
38376 On ch=1 n=c6 v=64
38376 On ch=1 n=a3 v=64
38424 On ch=1 n=e5 v=64
38470 On ch=1 n=e5 v=0
38472 On ch=1 n=a5 v=64
38518 On ch=1 n=a5 v=0
38520 On ch=1 n=e5 v=64
38566 On ch=1 n=e5 v=0
38568 On ch=1 n=a5 v=64
38614 On ch=1 n=a5 v=0
38614 On ch=1 n=c6 v=0
38614 On ch=1 n=c5 v=0
38614 On ch=1 n=c6 v=0
38614 On ch=1 n=c5 v=0
38616 On ch=1 n=b4 v=64
38616 On ch=1 n=b5 v=64
38616 On ch=1 n=b4 v=64
38616 On ch=1 n=b5 v=64
38664 On ch=1 n=c5 v=64
38710 On ch=1 n=c5 v=0
38712 On ch=1 n=e5 v=64
38758 On ch=1 n=e5 v=0
38760 On ch=1 n=c5 v=64
38806 On ch=1 n=c5 v=0
38808 On ch=1 n=e5 v=64
38854 On ch=1 n=e5 v=0
38854 On ch=1 n=b5 v=0
38854 On ch=1 n=b4 v=0
38854 On ch=1 n=b5 v=0
38854 On ch=1 n=b4 v=0
38854 On ch=1 n=a3 v=0
38854 On ch=1 n=a3 v=0
38856 On ch=1 n=a4 v=64
38856 On ch=1 n=a5 v=64
38856 On ch=1 n=a4 v=64
38856 On ch=1 n=a5 v=64
38904 On ch=1 n=c5 v=64
38950 On ch=1 n=c5 v=0
38952 On ch=1 n=e5 v=64
38998 On ch=1 n=e5 v=0
39000 On ch=1 n=c5 v=64
39046 On ch=1 n=c5 v=0
39048 On ch=1 n=e5 v=64
39094 On ch=1 n=e5 v=0
39094 On ch=1 n=a5 v=0
39094 On ch=1 n=a4 v=0
39094 On ch=1 n=a5 v=0
39094 On ch=1 n=a4 v=0
39096 On ch=1 n=g#4 v=64
39096 On ch=1 n=g#5 v=64
39096 On ch=1 n=g#4 v=64
39096 On ch=1 n=g#5 v=64
39144 On ch=1 n=c5 v=64
39190 On ch=1 n=c5 v=0
39192 On ch=1 n=e5 v=64
39238 On ch=1 n=e5 v=0
39240 On ch=1 n=c5 v=64
39286 On ch=1 n=c5 v=0
39288 On ch=1 n=e5 v=64
39296 Par ch=1 c=64 v=0
39328 Par ch=1 c=64 v=96
39334 On ch=1 n=e5 v=0
39334 On ch=1 n=g#5 v=0
39334 On ch=1 n=g#4 v=0
39334 On ch=1 n=g#5 v=0
39334 On ch=1 n=g#4 v=0
39336 On ch=1 n=c3 v=64
39336 On ch=1 n=f#4 v=64
39336 On ch=1 n=f#5 v=64
39336 On ch=1 n=c3 v=64
39336 On ch=1 n=f#4 v=64
39336 On ch=1 n=f#5 v=64
39346 On ch=1 n=d#3 v=64
39346 On ch=1 n=d#3 v=64
39351 On ch=1 n=f#3 v=64
39351 On ch=1 n=f#3 v=64
39360 On ch=1 n=a3 v=62
39360 On ch=1 n=a3 v=62
39368 On ch=1 n=c4 v=60
39368 On ch=1 n=c4 v=60
39384 On ch=1 n=a4 v=64
39430 On ch=1 n=a4 v=0
39432 On ch=1 n=d#5 v=64
39454 On ch=1 n=c3 v=0
39454 On ch=1 n=c3 v=0
39455 On ch=1 n=a3 v=0
39455 On ch=1 n=a3 v=0
39456 On ch=1 n=c4 v=0
39456 On ch=1 n=c4 v=0
39456 On ch=1 n=d#3 v=0
39456 On ch=1 n=d#3 v=0
39457 On ch=1 n=f#3 v=0
39457 On ch=1 n=f#3 v=0
39478 On ch=1 n=d#5 v=0
39480 On ch=1 n=a4 v=64
39526 On ch=1 n=a4 v=0
39528 On ch=1 n=d#5 v=64
39536 Par ch=1 c=64 v=0
39568 Par ch=1 c=64 v=96
39574 On ch=1 n=d#5 v=0
39574 On ch=1 n=f#5 v=0
39574 On ch=1 n=f#4 v=0
39574 On ch=1 n=f#5 v=0
39574 On ch=1 n=f#4 v=0
39576 On ch=1 n=b3 v=64
39576 On ch=1 n=g#3 v=64
39576 On ch=1 n=e3 v=64
39576 On ch=1 n=b2 v=64
39576 On ch=1 n=e4 v=64
39576 On ch=1 n=e5 v=64
39576 On ch=1 n=b3 v=64
39576 On ch=1 n=g#3 v=64
39576 On ch=1 n=e3 v=64
39576 On ch=1 n=b2 v=64
39576 On ch=1 n=e4 v=64
39576 On ch=1 n=e5 v=64
39624 On ch=1 n=g#4 v=64
39670 On ch=1 n=g#4 v=0
39672 On ch=1 n=b4 v=64
39694 On ch=1 n=b2 v=0
39694 On ch=1 n=e3 v=0
39694 On ch=1 n=g#3 v=0
39694 On ch=1 n=b3 v=0
39694 On ch=1 n=b2 v=0
39694 On ch=1 n=e3 v=0
39694 On ch=1 n=g#3 v=0
39694 On ch=1 n=b3 v=0
39718 On ch=1 n=b4 v=0
39720 On ch=1 n=g#4 v=64
39766 On ch=1 n=g#4 v=0
39768 On ch=1 n=b4 v=64
39814 On ch=1 n=b4 v=0
39816 On ch=1 n=g#4 v=64
39816 On ch=1 n=a3 v=64
39816 On ch=1 n=e3 v=64
39816 On ch=1 n=b2 v=64
39816 On ch=1 n=a2 v=64
39816 On ch=1 n=a3 v=64
39816 On ch=1 n=e3 v=64
39816 On ch=1 n=b2 v=64
39816 On ch=1 n=a2 v=64
39854 On ch=1 n=g#4 v=0
39856 On ch=1 n=b4 v=64
39894 On ch=1 n=b4 v=0
39896 On ch=1 n=g#4 v=64
39934 On ch=1 n=g#4 v=0
39934 On ch=1 n=a2 v=0
39934 On ch=1 n=b2 v=0
39934 On ch=1 n=e3 v=0
39934 On ch=1 n=a3 v=0
39934 On ch=1 n=a2 v=0
39934 On ch=1 n=b2 v=0
39934 On ch=1 n=e3 v=0
39934 On ch=1 n=a3 v=0
39936 On ch=1 n=b4 v=64
39974 On ch=1 n=b4 v=0
39976 On ch=1 n=g#4 v=64
40014 On ch=1 n=g#4 v=0
40016 On ch=1 n=b4 v=64
40054 On ch=1 n=b4 v=0
40054 On ch=1 n=e5 v=0
40054 On ch=1 n=e4 v=0
40054 On ch=1 n=e5 v=0
40054 On ch=1 n=e4 v=0
40056 On ch=1 n=g#4 v=64
40056 On ch=1 n=g#3 v=64
40056 On ch=1 n=e3 v=64
40056 On ch=1 n=b2 v=64
40056 On ch=1 n=g#2 v=64
40056 On ch=1 n=g#3 v=64
40056 On ch=1 n=e3 v=64
40056 On ch=1 n=b2 v=64
40056 On ch=1 n=g#2 v=64
40094 On ch=1 n=g#4 v=0
40096 On ch=1 n=b4 v=64
40134 On ch=1 n=b4 v=0
40136 On ch=1 n=g#4 v=64
40174 On ch=1 n=g#4 v=0
40174 On ch=1 n=g#2 v=0
40174 On ch=1 n=b2 v=0
40174 On ch=1 n=e3 v=0
40174 On ch=1 n=g#3 v=0
40174 On ch=1 n=g#2 v=0
40174 On ch=1 n=b2 v=0
40174 On ch=1 n=e3 v=0
40174 On ch=1 n=g#3 v=0
40176 On ch=1 n=b4 v=64
40214 On ch=1 n=b4 v=0
40216 On ch=1 n=g#4 v=64
40254 On ch=1 n=g#4 v=0
40256 On ch=1 n=b4 v=64
40294 On ch=1 n=b4 v=0
40296 On ch=1 n=g#4 v=64
40296 On ch=1 n=f#3 v=64
40296 On ch=1 n=b2 v=64
40296 On ch=1 n=g#2 v=64
40296 On ch=1 n=f#2 v=64
40296 On ch=1 n=f#3 v=64
40296 On ch=1 n=b2 v=64
40296 On ch=1 n=g#2 v=64
40296 On ch=1 n=f#2 v=64
40334 On ch=1 n=g#4 v=0
40336 On ch=1 n=b4 v=64
40374 On ch=1 n=b4 v=0
40376 On ch=1 n=g#4 v=64
40414 On ch=1 n=g#4 v=0
40414 On ch=1 n=f#2 v=0
40414 On ch=1 n=g#2 v=0
40414 On ch=1 n=b2 v=0
40414 On ch=1 n=f#3 v=0
40414 On ch=1 n=f#2 v=0
40414 On ch=1 n=g#2 v=0
40414 On ch=1 n=b2 v=0
40414 On ch=1 n=f#3 v=0
40416 On ch=1 n=b4 v=64
40454 On ch=1 n=b4 v=0
40456 On ch=1 n=g#4 v=64
40494 On ch=1 n=g#4 v=0
40496 On ch=1 n=b4 v=64
40496 Par ch=1 c=64 v=0
40528 Par ch=1 c=64 v=96
40534 On ch=1 n=b4 v=0
40536 Par ch=1 c=7 v=100
40536 On ch=1 n=g#5 v=64
40536 On ch=1 n=g#6 v=64
40536 On ch=1 n=e3 v=64
40536 On ch=1 n=b2 v=64
40536 On ch=1 n=g#2 v=64
40536 On ch=1 n=e2 v=64
40536 On ch=1 n=g#5 v=64
40536 On ch=1 n=g#6 v=64
40536 On ch=1 n=e3 v=64
40536 On ch=1 n=b2 v=64
40536 On ch=1 n=g#2 v=64
40536 On ch=1 n=e2 v=64
40584 On ch=1 n=b5 v=64
40630 On ch=1 n=b5 v=0
40632 On ch=1 n=e6 v=64
40654 On ch=1 n=e2 v=0
40654 On ch=1 n=g#2 v=0
40654 On ch=1 n=b2 v=0
40654 On ch=1 n=e3 v=0
40654 On ch=1 n=g#6 v=0
40654 On ch=1 n=g#5 v=0
40654 On ch=1 n=e2 v=0
40654 On ch=1 n=g#2 v=0
40654 On ch=1 n=b2 v=0
40654 On ch=1 n=e3 v=0
40654 On ch=1 n=g#6 v=0
40654 On ch=1 n=g#5 v=0
40678 On ch=1 n=e6 v=0
40680 On ch=1 n=b5 v=64
40726 On ch=1 n=b5 v=0
40728 On ch=1 n=e6 v=64
40774 On ch=1 n=e6 v=0
40776 On ch=1 n=f#5 v=64
40776 On ch=1 n=f#6 v=64
40776 On ch=1 n=f#5 v=64
40776 On ch=1 n=f#6 v=64
40824 On ch=1 n=g#5 v=64
40870 On ch=1 n=g#5 v=0
40872 On ch=1 n=b5 v=64
40894 On ch=1 n=f#6 v=0
40894 On ch=1 n=f#5 v=0
40894 On ch=1 n=f#6 v=0
40894 On ch=1 n=f#5 v=0
40918 On ch=1 n=b5 v=0
40920 On ch=1 n=g#5 v=64
40966 On ch=1 n=g#5 v=0
40968 On ch=1 n=b5 v=64
41014 On ch=1 n=b5 v=0
41016 On ch=1 n=e5 v=64
41016 On ch=1 n=e6 v=64
41016 On ch=1 n=e5 v=64
41016 On ch=1 n=e6 v=64
41064 On ch=1 n=g#5 v=64
41110 On ch=1 n=g#5 v=0
41112 On ch=1 n=b5 v=64
41134 On ch=1 n=e6 v=0
41134 On ch=1 n=e5 v=0
41134 On ch=1 n=e6 v=0
41134 On ch=1 n=e5 v=0
41158 On ch=1 n=b5 v=0
41160 On ch=1 n=g#5 v=64
41206 On ch=1 n=g#5 v=0
41208 On ch=1 n=b5 v=64
41254 On ch=1 n=b5 v=0
41256 On ch=1 n=d#5 v=64
41256 On ch=1 n=d#6 v=64
41256 On ch=1 n=d#5 v=64
41256 On ch=1 n=d#6 v=64
41304 On ch=1 n=g#5 v=64
41350 On ch=1 n=g#5 v=0
41352 On ch=1 n=b5 v=64
41374 On ch=1 n=d#6 v=0
41374 On ch=1 n=d#5 v=0
41374 On ch=1 n=d#6 v=0
41374 On ch=1 n=d#5 v=0
41398 On ch=1 n=b5 v=0
41400 On ch=1 n=g#5 v=64
41446 On ch=1 n=g#5 v=0
41448 On ch=1 n=b5 v=64
41494 On ch=1 n=b5 v=0
41496 On ch=1 n=e5 v=64
41496 On ch=1 n=e6 v=64
41496 On ch=1 n=g#3 v=64
41496 On ch=1 n=g#4 v=64
41496 On ch=1 n=e5 v=64
41496 On ch=1 n=e6 v=64
41496 On ch=1 n=g#3 v=64
41496 On ch=1 n=g#4 v=64
41544 On ch=1 n=b3 v=64
41544 On ch=1 n=g#5 v=64
41590 On ch=1 n=g#5 v=0
41590 On ch=1 n=b3 v=0
41592 On ch=1 n=e4 v=64
41592 On ch=1 n=b5 v=64
41614 On ch=1 n=g#4 v=0
41614 On ch=1 n=g#3 v=0
41614 On ch=1 n=e6 v=0
41614 On ch=1 n=e5 v=0
41614 On ch=1 n=g#4 v=0
41614 On ch=1 n=g#3 v=0
41614 On ch=1 n=e6 v=0
41614 On ch=1 n=e5 v=0
41638 On ch=1 n=b5 v=0
41638 On ch=1 n=e4 v=0
41640 On ch=1 n=b3 v=64
41640 On ch=1 n=g#5 v=64
41686 On ch=1 n=g#5 v=0
41686 On ch=1 n=b3 v=0
41688 On ch=1 n=e4 v=64
41688 On ch=1 n=b5 v=64
41696 Par ch=1 c=64 v=0
41728 Par ch=1 c=64 v=96
41734 On ch=1 n=b5 v=0
41734 On ch=1 n=e4 v=0
41736 On ch=1 n=f#3 v=64
41736 On ch=1 n=f#4 v=64
41736 On ch=1 n=a5 v=64
41736 On ch=1 n=a6 v=64
41736 On ch=1 n=f#3 v=64
41736 On ch=1 n=f#4 v=64
41736 On ch=1 n=a5 v=64
41736 On ch=1 n=a6 v=64
41784 On ch=1 n=a3 v=64
41784 On ch=1 n=c6 v=64
41830 On ch=1 n=c6 v=0
41830 On ch=1 n=a3 v=0
41832 On ch=1 n=c4 v=64
41832 On ch=1 n=e6 v=64
41854 On ch=1 n=f#4 v=0
41854 On ch=1 n=f#3 v=0
41854 On ch=1 n=f#4 v=0
41854 On ch=1 n=f#3 v=0
41878 On ch=1 n=e6 v=0
41878 On ch=1 n=c4 v=0
41880 On ch=1 n=a3 v=64
41880 On ch=1 n=c6 v=64
41926 On ch=1 n=c6 v=0
41926 On ch=1 n=a3 v=0
41928 On ch=1 n=c4 v=64
41928 On ch=1 n=e6 v=64
41974 On ch=1 n=e6 v=0
41974 On ch=1 n=c4 v=0
41976 On ch=1 n=c6 v=64
41976 On ch=1 n=e3 v=64
41976 On ch=1 n=e4 v=64
41976 On ch=1 n=e3 v=64
41976 On ch=1 n=e4 v=64
42014 On ch=1 n=c6 v=0
42016 On ch=1 n=e6 v=64
42024 On ch=1 n=a3 v=64
42054 On ch=1 n=e6 v=0
42056 On ch=1 n=c6 v=64
42070 On ch=1 n=a3 v=0
42072 On ch=1 n=c4 v=64
42094 On ch=1 n=c6 v=0
42094 On ch=1 n=e4 v=0
42094 On ch=1 n=e3 v=0
42094 On ch=1 n=e4 v=0
42094 On ch=1 n=e3 v=0
42096 On ch=1 n=e6 v=64
42118 On ch=1 n=c4 v=0
42120 On ch=1 n=a3 v=64
42134 On ch=1 n=e6 v=0
42136 On ch=1 n=c6 v=64
42166 On ch=1 n=a3 v=0
42168 On ch=1 n=c4 v=64
42174 On ch=1 n=c6 v=0
42176 On ch=1 n=e6 v=64
42214 On ch=1 n=e6 v=0
42214 On ch=1 n=c4 v=0
42214 On ch=1 n=a6 v=0
42214 On ch=1 n=a5 v=0
42214 On ch=1 n=a6 v=0
42214 On ch=1 n=a5 v=0
42216 On ch=1 n=c6 v=64
42216 On ch=1 n=d#3 v=64
42216 On ch=1 n=d#4 v=64
42216 On ch=1 n=d#3 v=64
42216 On ch=1 n=d#4 v=64
42254 On ch=1 n=c6 v=0
42256 On ch=1 n=e6 v=64
42264 On ch=1 n=a3 v=64
42294 On ch=1 n=e6 v=0
42296 On ch=1 n=c6 v=64
42310 On ch=1 n=a3 v=0
42312 On ch=1 n=c4 v=64
42334 On ch=1 n=c6 v=0
42334 On ch=1 n=d#4 v=0
42334 On ch=1 n=d#3 v=0
42334 On ch=1 n=d#4 v=0
42334 On ch=1 n=d#3 v=0
42336 On ch=1 n=e6 v=64
42358 On ch=1 n=c4 v=0
42360 On ch=1 n=a3 v=64
42374 On ch=1 n=e6 v=0
42376 On ch=1 n=c6 v=64
42406 On ch=1 n=a3 v=0
42408 On ch=1 n=c4 v=64
42414 On ch=1 n=c6 v=0
42416 On ch=1 n=e6 v=64
42454 On ch=1 n=e6 v=0
42454 On ch=1 n=c4 v=0
42456 On ch=1 n=c6 v=64
42456 On ch=1 n=e3 v=64
42456 On ch=1 n=e4 v=64
42456 On ch=1 n=e3 v=64
42456 On ch=1 n=e4 v=64
42494 On ch=1 n=c6 v=0
42496 On ch=1 n=e6 v=64
42504 On ch=1 n=a3 v=64
42534 On ch=1 n=e6 v=0
42536 On ch=1 n=c6 v=64
42550 On ch=1 n=a3 v=0
42552 On ch=1 n=c4 v=64
42574 On ch=1 n=c6 v=0
42574 On ch=1 n=e4 v=0
42574 On ch=1 n=e3 v=0
42574 On ch=1 n=e4 v=0
42574 On ch=1 n=e3 v=0
42576 On ch=1 n=e6 v=64
42598 On ch=1 n=c4 v=0
42600 On ch=1 n=a3 v=64
42614 On ch=1 n=e6 v=0
42616 On ch=1 n=c6 v=64
42646 On ch=1 n=a3 v=0
42648 On ch=1 n=c4 v=64
42654 On ch=1 n=c6 v=0
42656 On ch=1 n=e6 v=64
42656 Par ch=1 c=64 v=0
42688 Par ch=1 c=64 v=96
42694 On ch=1 n=e6 v=0
42694 On ch=1 n=c4 v=0
42696 On ch=1 n=a3 v=64
42696 On ch=1 n=a4 v=64
42696 On ch=1 n=c6 v=64
42696 On ch=1 n=c7 v=64
42696 On ch=1 n=a3 v=64
42696 On ch=1 n=a4 v=64
42696 On ch=1 n=c6 v=64
42696 On ch=1 n=c7 v=64
42744 On ch=1 n=c4 v=64
42744 On ch=1 n=e6 v=64
42790 On ch=1 n=e6 v=0
42790 On ch=1 n=c4 v=0
42792 On ch=1 n=e4 v=64
42792 On ch=1 n=a6 v=64
42814 On ch=1 n=c7 v=0
42814 On ch=1 n=c6 v=0
42814 On ch=1 n=c7 v=0
42814 On ch=1 n=c6 v=0
42838 On ch=1 n=a6 v=0
42838 On ch=1 n=e4 v=0
42840 On ch=1 n=c4 v=64
42840 On ch=1 n=e6 v=64
42886 On ch=1 n=e6 v=0
42886 On ch=1 n=c4 v=0
42888 On ch=1 n=e4 v=64
42888 On ch=1 n=a6 v=64
42934 On ch=1 n=a6 v=0
42934 On ch=1 n=e4 v=0
42936 On ch=1 n=c4 v=64
42936 On ch=1 n=b5 v=64
42936 On ch=1 n=b6 v=64
42936 On ch=1 n=b5 v=64
42936 On ch=1 n=b6 v=64
42974 On ch=1 n=c4 v=0
42976 On ch=1 n=e4 v=64
42984 On ch=1 n=c6 v=64
43014 On ch=1 n=e4 v=0
43016 On ch=1 n=c4 v=64
43030 On ch=1 n=c6 v=0
43032 On ch=1 n=e6 v=64
43054 On ch=1 n=c4 v=0
43054 On ch=1 n=b6 v=0
43054 On ch=1 n=b5 v=0
43054 On ch=1 n=b6 v=0
43054 On ch=1 n=b5 v=0
43056 On ch=1 n=e4 v=64
43078 On ch=1 n=e6 v=0
43080 On ch=1 n=c6 v=64
43094 On ch=1 n=e4 v=0
43096 On ch=1 n=c4 v=64
43126 On ch=1 n=c6 v=0
43128 On ch=1 n=e6 v=64
43134 On ch=1 n=c4 v=0
43136 On ch=1 n=e4 v=64
43174 On ch=1 n=e4 v=0
43174 On ch=1 n=e6 v=0
43174 On ch=1 n=a4 v=0
43174 On ch=1 n=a3 v=0
43174 On ch=1 n=a4 v=0
43174 On ch=1 n=a3 v=0
43176 On ch=1 n=c4 v=64
43176 On ch=1 n=a5 v=64
43176 On ch=1 n=a6 v=64
43176 On ch=1 n=a5 v=64
43176 On ch=1 n=a6 v=64
43214 On ch=1 n=c4 v=0
43216 On ch=1 n=e4 v=64
43224 On ch=1 n=c6 v=64
43254 On ch=1 n=e4 v=0
43256 On ch=1 n=c4 v=64
43270 On ch=1 n=c6 v=0
43272 On ch=1 n=e6 v=64
43294 On ch=1 n=c4 v=0
43294 On ch=1 n=a6 v=0
43294 On ch=1 n=a5 v=0
43294 On ch=1 n=a6 v=0
43294 On ch=1 n=a5 v=0
43296 On ch=1 n=e4 v=64
43318 On ch=1 n=e6 v=0
43320 On ch=1 n=c6 v=64
43334 On ch=1 n=e4 v=0
43336 On ch=1 n=c4 v=64
43366 On ch=1 n=c6 v=0
43368 On ch=1 n=e6 v=64
43374 On ch=1 n=c4 v=0
43376 On ch=1 n=e4 v=64
43414 On ch=1 n=e4 v=0
43414 On ch=1 n=e6 v=0
43416 On ch=1 n=c4 v=64
43416 On ch=1 n=g#5 v=64
43416 On ch=1 n=g#6 v=64
43416 On ch=1 n=g#5 v=64
43416 On ch=1 n=g#6 v=64
43454 On ch=1 n=c4 v=0
43456 On ch=1 n=e4 v=64
43464 On ch=1 n=c6 v=64
43494 On ch=1 n=e4 v=0
43496 On ch=1 n=c4 v=64
43510 On ch=1 n=c6 v=0
43512 On ch=1 n=e6 v=64
43534 On ch=1 n=c4 v=0
43534 On ch=1 n=g#6 v=0
43534 On ch=1 n=g#5 v=0
43534 On ch=1 n=g#6 v=0
43534 On ch=1 n=g#5 v=0
43536 On ch=1 n=e4 v=64
43558 On ch=1 n=e6 v=0
43560 On ch=1 n=c6 v=64
43574 On ch=1 n=e4 v=0
43576 On ch=1 n=c4 v=64
43606 On ch=1 n=c6 v=0
43608 On ch=1 n=e6 v=64
43614 On ch=1 n=c4 v=0
43616 On ch=1 n=e4 v=64
43616 Par ch=1 c=64 v=0
43648 Par ch=1 c=64 v=96
43654 On ch=1 n=e4 v=0
43654 On ch=1 n=e6 v=0
43656 Par ch=1 c=7 v=100
43656 On ch=1 n=c4 v=64
43656 On ch=1 n=c5 v=64
43656 On ch=1 n=f#5 v=64
43656 On ch=1 n=f#6 v=64
43656 On ch=1 n=c4 v=64
43656 On ch=1 n=c5 v=64
43656 On ch=1 n=f#5 v=64
43656 On ch=1 n=f#6 v=64
43704 On ch=1 n=f#4 v=64
43704 On ch=1 n=d#4 v=64
43704 On ch=1 n=a5 v=64
43704 On ch=1 n=c6 v=64
43750 On ch=1 n=c6 v=0
43750 On ch=1 n=a5 v=0
43750 On ch=1 n=d#4 v=0
43750 On ch=1 n=f#4 v=0
43752 On ch=1 n=a4 v=64
43752 On ch=1 n=d#6 v=64
43774 On ch=1 n=f#6 v=0
43774 On ch=1 n=f#5 v=0
43774 On ch=1 n=c5 v=0
43774 On ch=1 n=c4 v=0
43774 On ch=1 n=f#6 v=0
43774 On ch=1 n=f#5 v=0
43774 On ch=1 n=c5 v=0
43774 On ch=1 n=c4 v=0
43798 On ch=1 n=d#6 v=0
43798 On ch=1 n=a4 v=0
43800 On ch=1 n=f#4 v=64
43800 On ch=1 n=d#4 v=64
43800 On ch=1 n=a5 v=64
43800 On ch=1 n=c6 v=64
43846 On ch=1 n=c6 v=0
43846 On ch=1 n=a5 v=0
43846 On ch=1 n=d#4 v=0
43846 On ch=1 n=f#4 v=0
43848 On ch=1 n=a4 v=64
43848 On ch=1 n=d#6 v=64
43856 Par ch=1 c=64 v=0
43888 Par ch=1 c=64 v=96
43894 On ch=1 n=d#6 v=0
43894 On ch=1 n=a4 v=0
43896 On ch=1 n=f5 v=64
43896 On ch=1 n=f6 v=64
43896 On ch=1 n=b3 v=64
43896 On ch=1 n=b4 v=64
43896 On ch=1 n=f5 v=64
43896 On ch=1 n=f6 v=64
43896 On ch=1 n=b3 v=64
43896 On ch=1 n=b4 v=64
43944 On ch=1 n=f4 v=64
43944 On ch=1 n=d4 v=64
43944 On ch=1 n=b5 v=64
43944 On ch=1 n=g#5 v=64
43990 On ch=1 n=g#5 v=0
43990 On ch=1 n=b5 v=0
43990 On ch=1 n=d4 v=0
43990 On ch=1 n=f4 v=0
43992 On ch=1 n=g#4 v=64
43992 On ch=1 n=d6 v=64
44014 On ch=1 n=b4 v=0
44014 On ch=1 n=b3 v=0
44014 On ch=1 n=b4 v=0
44014 On ch=1 n=b3 v=0
44038 On ch=1 n=d6 v=0
44038 On ch=1 n=g#4 v=0
44040 On ch=1 n=f4 v=64
44040 On ch=1 n=d4 v=64
44040 On ch=1 n=b5 v=64
44040 On ch=1 n=g#5 v=64
44086 On ch=1 n=g#5 v=0
44086 On ch=1 n=b5 v=0
44086 On ch=1 n=d4 v=0
44086 On ch=1 n=f4 v=0
44088 On ch=1 n=g#4 v=64
44088 On ch=1 n=d6 v=64
44134 On ch=1 n=d6 v=0
44134 On ch=1 n=g#4 v=0
44136 On ch=1 n=b5 v=64
44136 On ch=1 n=g#5 v=64
44136 On ch=1 n=a3 v=64
44136 On ch=1 n=a4 v=64
44136 On ch=1 n=a3 v=64
44136 On ch=1 n=a4 v=64
44174 On ch=1 n=g#5 v=0
44174 On ch=1 n=b5 v=0
44176 On ch=1 n=d6 v=64
44183 Par ch=1 c=7 v=101
44184 On ch=1 n=d4 v=64
44214 On ch=1 n=d6 v=0
44216 On ch=1 n=b5 v=64
44216 On ch=1 n=g#5 v=64
44230 On ch=1 n=d4 v=0
44232 On ch=1 n=f4 v=64
44254 On ch=1 n=g#5 v=0
44254 On ch=1 n=b5 v=0
44254 On ch=1 n=a4 v=0
44254 On ch=1 n=a3 v=0
44254 On ch=1 n=a4 v=0
44254 On ch=1 n=a3 v=0
44256 On ch=1 n=d6 v=64
44278 On ch=1 n=f4 v=0
44280 On ch=1 n=d4 v=64
44294 On ch=1 n=d6 v=0
44296 On ch=1 n=b5 v=64
44296 On ch=1 n=g#5 v=64
44326 On ch=1 n=d4 v=0
44328 On ch=1 n=f4 v=64
44334 On ch=1 n=g#5 v=0
44334 On ch=1 n=b5 v=0
44336 On ch=1 n=d6 v=64
44374 On ch=1 n=d6 v=0
44374 On ch=1 n=f4 v=0
44374 On ch=1 n=f6 v=0
44374 On ch=1 n=f5 v=0
44374 On ch=1 n=f6 v=0
44374 On ch=1 n=f5 v=0
44376 On ch=1 n=b5 v=64
44376 On ch=1 n=g#5 v=64
44376 On ch=1 n=g#3 v=64
44376 On ch=1 n=g#4 v=64
44376 On ch=1 n=g#3 v=64
44376 On ch=1 n=g#4 v=64
44414 On ch=1 n=g#5 v=0
44414 On ch=1 n=b5 v=0
44416 On ch=1 n=d6 v=64
44424 On ch=1 n=b3 v=64
44424 On ch=1 n=d4 v=64
44454 On ch=1 n=d6 v=0
44456 On ch=1 n=b5 v=64
44456 On ch=1 n=g#5 v=64
44470 On ch=1 n=d4 v=0
44470 On ch=1 n=b3 v=0
44472 On ch=1 n=f4 v=64
44494 On ch=1 n=g#5 v=0
44494 On ch=1 n=b5 v=0
44494 On ch=1 n=g#4 v=0
44494 On ch=1 n=g#3 v=0
44494 On ch=1 n=g#4 v=0
44494 On ch=1 n=g#3 v=0
44496 On ch=1 n=d6 v=64
44518 On ch=1 n=f4 v=0
44520 On ch=1 n=b3 v=64
44520 On ch=1 n=d4 v=64
44534 On ch=1 n=d6 v=0
44536 On ch=1 n=b5 v=64
44536 On ch=1 n=g#5 v=64
44566 On ch=1 n=d4 v=0
44566 On ch=1 n=b3 v=0
44568 On ch=1 n=f4 v=64
44574 On ch=1 n=g#5 v=0
44574 On ch=1 n=b5 v=0
44576 On ch=1 n=d6 v=64
44614 On ch=1 n=d6 v=0
44614 On ch=1 n=f4 v=0
44616 On ch=1 n=b5 v=64
44616 On ch=1 n=g#5 v=64
44616 On ch=1 n=f#3 v=64
44616 On ch=1 n=f#4 v=64
44616 On ch=1 n=f#3 v=64
44616 On ch=1 n=f#4 v=64
44654 On ch=1 n=g#5 v=0
44654 On ch=1 n=b5 v=0
44656 On ch=1 n=d6 v=64
44664 On ch=1 n=b3 v=64
44664 On ch=1 n=g#3 v=64
44694 On ch=1 n=d6 v=0
44696 On ch=1 n=b5 v=64
44696 On ch=1 n=g#5 v=64
44710 On ch=1 n=g#3 v=0
44710 On ch=1 n=b3 v=0
44711 Par ch=1 c=7 v=102
44712 On ch=1 n=d4 v=64
44734 On ch=1 n=g#5 v=0
44734 On ch=1 n=b5 v=0
44734 On ch=1 n=f#4 v=0
44734 On ch=1 n=f#3 v=0
44734 On ch=1 n=f#4 v=0
44734 On ch=1 n=f#3 v=0
44736 On ch=1 n=d6 v=64
44758 On ch=1 n=d4 v=0
44760 On ch=1 n=b3 v=64
44760 On ch=1 n=g#3 v=64
44774 On ch=1 n=d6 v=0
44776 On ch=1 n=b5 v=64
44776 On ch=1 n=g#5 v=64
44806 On ch=1 n=g#3 v=0
44806 On ch=1 n=b3 v=0
44808 On ch=1 n=d4 v=64
44814 On ch=1 n=g#5 v=0
44814 On ch=1 n=b5 v=0
44816 On ch=1 n=d6 v=64
44816 Par ch=1 c=64 v=0
44848 Par ch=1 c=64 v=96
44854 On ch=1 n=d6 v=0
44854 On ch=1 n=d4 v=0
44856 Tempo 1428571
44856 On ch=1 n=f3 v=64
44856 On ch=1 n=f4 v=64
44856 On ch=1 n=f3 v=64
44856 On ch=1 n=f4 v=64
44856 On ch=1 n=d6 v=64
44856 On ch=1 n=d7 v=64
44856 On ch=1 n=d6 v=64
44856 On ch=1 n=d7 v=64
44904 On ch=1 n=b3 v=64
44904 On ch=1 n=g#3 v=64
44904 On ch=1 n=f6 v=64
44950 On ch=1 n=f6 v=0
44950 On ch=1 n=g#3 v=0
44950 On ch=1 n=b3 v=0
44952 On ch=1 n=d4 v=64
44952 On ch=1 n=g#6 v=64
44974 On ch=1 n=d7 v=0
44974 On ch=1 n=d6 v=0
44974 On ch=1 n=d7 v=0
44974 On ch=1 n=d6 v=0
44998 On ch=1 n=g#6 v=0
44998 On ch=1 n=d4 v=0
45000 On ch=1 n=b3 v=64
45000 On ch=1 n=g#3 v=64
45000 On ch=1 n=f6 v=64
45046 On ch=1 n=f6 v=0
45046 On ch=1 n=g#3 v=0
45046 On ch=1 n=b3 v=0
45048 On ch=1 n=d4 v=64
45048 On ch=1 n=g#6 v=64
45094 On ch=1 n=g#6 v=0
45094 On ch=1 n=d4 v=0
45096 On ch=1 n=g#3 v=64
45096 On ch=1 n=b3 v=64
45096 On ch=1 n=c#6 v=64
45096 On ch=1 n=c#7 v=64
45096 On ch=1 n=c#6 v=64
45096 On ch=1 n=c#7 v=64
45134 On ch=1 n=b3 v=0
45134 On ch=1 n=g#3 v=0
45136 On ch=1 n=d4 v=64
45144 On ch=1 n=f6 v=64
45174 On ch=1 n=d4 v=0
45176 On ch=1 n=g#3 v=64
45176 On ch=1 n=b3 v=64
45190 On ch=1 n=f6 v=0
45192 On ch=1 n=g#6 v=64
45214 On ch=1 n=b3 v=0
45214 On ch=1 n=g#3 v=0
45214 On ch=1 n=c#7 v=0
45214 On ch=1 n=c#6 v=0
45214 On ch=1 n=c#7 v=0
45214 On ch=1 n=c#6 v=0
45216 On ch=1 n=d4 v=64
45238 On ch=1 n=g#6 v=0
45239 Par ch=1 c=7 v=103
45240 On ch=1 n=f6 v=64
45254 On ch=1 n=d4 v=0
45256 On ch=1 n=g#3 v=64
45256 On ch=1 n=b3 v=64
45286 On ch=1 n=f6 v=0
45288 On ch=1 n=g#6 v=64
45294 On ch=1 n=b3 v=0
45294 On ch=1 n=g#3 v=0
45296 On ch=1 n=d4 v=64
45334 On ch=1 n=d4 v=0
45334 On ch=1 n=g#6 v=0
45334 On ch=1 n=f4 v=0
45334 On ch=1 n=f3 v=0
45334 On ch=1 n=f4 v=0
45334 On ch=1 n=f3 v=0
45336 On ch=1 n=g#3 v=64
45336 On ch=1 n=b3 v=64
45336 On ch=1 n=b5 v=64
45336 On ch=1 n=b6 v=64
45336 On ch=1 n=b5 v=64
45336 On ch=1 n=b6 v=64
45374 On ch=1 n=b3 v=0
45374 On ch=1 n=g#3 v=0
45376 On ch=1 n=d4 v=64
45384 On ch=1 n=d6 v=64
45414 On ch=1 n=d4 v=0
45416 On ch=1 n=g#3 v=64
45416 On ch=1 n=b3 v=64
45430 On ch=1 n=d6 v=0
45432 On ch=1 n=f6 v=64
45454 On ch=1 n=b3 v=0
45454 On ch=1 n=g#3 v=0
45454 On ch=1 n=b6 v=0
45454 On ch=1 n=b5 v=0
45454 On ch=1 n=b6 v=0
45454 On ch=1 n=b5 v=0
45456 On ch=1 n=d4 v=64
45478 On ch=1 n=f6 v=0
45480 On ch=1 n=d6 v=64
45494 On ch=1 n=d4 v=0
45496 On ch=1 n=g#3 v=64
45496 On ch=1 n=b3 v=64
45526 On ch=1 n=d6 v=0
45528 On ch=1 n=f6 v=64
45534 On ch=1 n=b3 v=0
45534 On ch=1 n=g#3 v=0
45536 On ch=1 n=d4 v=64
45545 Tempo 1395349
45574 On ch=1 n=d4 v=0
45574 On ch=1 n=f6 v=0
45576 On ch=1 n=g#3 v=64
45576 On ch=1 n=b3 v=64
45576 On ch=1 n=a5 v=64
45576 On ch=1 n=a6 v=64
45576 On ch=1 n=a5 v=64
45576 On ch=1 n=a6 v=64
45614 On ch=1 n=b3 v=0
45614 On ch=1 n=g#3 v=0
45616 On ch=1 n=d4 v=64
45624 On ch=1 n=d6 v=64
45654 On ch=1 n=d4 v=0
45656 On ch=1 n=g#3 v=64
45656 On ch=1 n=b3 v=64
45670 On ch=1 n=d6 v=0
45672 On ch=1 n=f6 v=64
45694 On ch=1 n=b3 v=0
45694 On ch=1 n=g#3 v=0
45694 On ch=1 n=a6 v=0
45694 On ch=1 n=a5 v=0
45694 On ch=1 n=a6 v=0
45694 On ch=1 n=a5 v=0
45696 On ch=1 n=d4 v=64
45718 On ch=1 n=f6 v=0
45720 On ch=1 n=d6 v=64
45734 On ch=1 n=d4 v=0
45736 On ch=1 n=g#3 v=64
45736 On ch=1 n=b3 v=64
45766 On ch=1 n=d6 v=0
45767 Par ch=1 c=7 v=104
45768 On ch=1 n=f6 v=64
45774 On ch=1 n=b3 v=0
45774 On ch=1 n=g#3 v=0
45776 On ch=1 n=d4 v=64
45776 Par ch=1 c=64 v=0
45808 Par ch=1 c=64 v=96
45814 On ch=1 n=d4 v=0
45814 On ch=1 n=f6 v=0
45816 On ch=1 n=d4 v=64
45816 On ch=1 n=d5 v=64
45816 On ch=1 n=d4 v=64
45816 On ch=1 n=d5 v=64
45816 On ch=1 n=g#5 v=64
45816 On ch=1 n=g#6 v=64
45816 On ch=1 n=g#5 v=64
45816 On ch=1 n=g#6 v=64
45864 On ch=1 n=g#4 v=64
45864 On ch=1 n=f4 v=64
45864 On ch=1 n=b5 v=64
45864 On ch=1 n=d6 v=64
45910 On ch=1 n=d6 v=0
45910 On ch=1 n=b5 v=0
45910 On ch=1 n=f4 v=0
45910 On ch=1 n=g#4 v=0
45912 On ch=1 n=b4 v=64
45912 On ch=1 n=f6 v=64
45934 On ch=1 n=g#6 v=0
45934 On ch=1 n=g#5 v=0
45934 On ch=1 n=g#6 v=0
45934 On ch=1 n=g#5 v=0
45934 On ch=1 n=d5 v=0
45934 On ch=1 n=d4 v=0
45934 On ch=1 n=d5 v=0
45934 On ch=1 n=d4 v=0
45958 On ch=1 n=f6 v=0
45958 On ch=1 n=b4 v=0
45960 On ch=1 n=g#4 v=64
45960 On ch=1 n=f4 v=64
45960 On ch=1 n=b5 v=64
45960 On ch=1 n=d6 v=64
46006 On ch=1 n=d6 v=0
46006 On ch=1 n=b5 v=0
46006 On ch=1 n=f4 v=0
46006 On ch=1 n=g#4 v=0
46008 On ch=1 n=b4 v=64
46008 On ch=1 n=f6 v=64
46016 Par ch=1 c=64 v=0
46048 Par ch=1 c=64 v=96
46054 On ch=1 n=f6 v=0
46054 On ch=1 n=b4 v=0
46056 On ch=1 n=g5 v=64
46056 On ch=1 n=g6 v=64
46056 On ch=1 n=c#4 v=64
46056 On ch=1 n=c#5 v=64
46056 On ch=1 n=g5 v=64
46056 On ch=1 n=g6 v=64
46056 On ch=1 n=c#4 v=64
46056 On ch=1 n=c#5 v=64
46104 On ch=1 n=e4 v=64
46104 On ch=1 n=g4 v=64
46104 On ch=1 n=c#6 v=64
46104 On ch=1 n=a#5 v=64
46150 On ch=1 n=a#5 v=0
46150 On ch=1 n=c#6 v=0
46150 On ch=1 n=g4 v=0
46150 On ch=1 n=e4 v=0
46152 On ch=1 n=a#4 v=64
46152 On ch=1 n=e6 v=64
46174 On ch=1 n=c#5 v=0
46174 On ch=1 n=c#4 v=0
46174 On ch=1 n=c#5 v=0
46174 On ch=1 n=c#4 v=0
46198 On ch=1 n=e6 v=0
46198 On ch=1 n=a#4 v=0
46200 On ch=1 n=e4 v=64
46200 On ch=1 n=g4 v=64
46200 On ch=1 n=c#6 v=64
46200 On ch=1 n=a#5 v=64
46235 Tempo 1363636
46246 On ch=1 n=a#5 v=0
46246 On ch=1 n=c#6 v=0
46246 On ch=1 n=g4 v=0
46246 On ch=1 n=e4 v=0
46248 On ch=1 n=a#4 v=64
46248 On ch=1 n=e6 v=64
46294 On ch=1 n=e6 v=0
46294 On ch=1 n=a#4 v=0
46295 Par ch=1 c=7 v=105
46296 On ch=1 n=c#6 v=64
46296 On ch=1 n=a#5 v=64
46296 On ch=1 n=b3 v=64
46296 On ch=1 n=b4 v=64
46296 On ch=1 n=b3 v=64
46296 On ch=1 n=b4 v=64
46334 On ch=1 n=a#5 v=0
46334 On ch=1 n=c#6 v=0
46336 On ch=1 n=e6 v=64
46344 On ch=1 n=e4 v=64
46374 On ch=1 n=e6 v=0
46376 On ch=1 n=c#6 v=64
46376 On ch=1 n=a#5 v=64
46390 On ch=1 n=e4 v=0
46392 On ch=1 n=g4 v=64
46414 On ch=1 n=a#5 v=0
46414 On ch=1 n=c#6 v=0
46414 On ch=1 n=b4 v=0
46414 On ch=1 n=b3 v=0
46414 On ch=1 n=b4 v=0
46414 On ch=1 n=b3 v=0
46416 On ch=1 n=e6 v=64
46438 On ch=1 n=g4 v=0
46440 On ch=1 n=e4 v=64
46454 On ch=1 n=e6 v=0
46456 On ch=1 n=c#6 v=64
46456 On ch=1 n=a#5 v=64
46486 On ch=1 n=e4 v=0
46488 On ch=1 n=g4 v=64
46494 On ch=1 n=a#5 v=0
46494 On ch=1 n=c#6 v=0
46496 On ch=1 n=e6 v=64
46534 On ch=1 n=e6 v=0
46534 On ch=1 n=g4 v=0
46534 On ch=1 n=g6 v=0
46534 On ch=1 n=g5 v=0
46534 On ch=1 n=g6 v=0
46534 On ch=1 n=g5 v=0
46536 On ch=1 n=c#6 v=64
46536 On ch=1 n=a#5 v=64
46536 On ch=1 n=a#3 v=64
46536 On ch=1 n=a#4 v=64
46536 On ch=1 n=a#3 v=64
46536 On ch=1 n=a#4 v=64
46574 On ch=1 n=a#5 v=0
46574 On ch=1 n=c#6 v=0
46576 On ch=1 n=e6 v=64
46584 On ch=1 n=e4 v=64
46614 On ch=1 n=e6 v=0
46616 On ch=1 n=c#6 v=64
46616 On ch=1 n=a#5 v=64
46630 On ch=1 n=e4 v=0
46632 On ch=1 n=g4 v=64
46654 On ch=1 n=a#5 v=0
46654 On ch=1 n=c#6 v=0
46654 On ch=1 n=a#4 v=0
46654 On ch=1 n=a#3 v=0
46654 On ch=1 n=a#4 v=0
46654 On ch=1 n=a#3 v=0
46656 On ch=1 n=e6 v=64
46678 On ch=1 n=g4 v=0
46680 On ch=1 n=e4 v=64
46694 On ch=1 n=e6 v=0
46696 On ch=1 n=c#6 v=64
46696 On ch=1 n=a#5 v=64
46726 On ch=1 n=e4 v=0
46728 On ch=1 n=g4 v=64
46734 On ch=1 n=a#5 v=0
46734 On ch=1 n=c#6 v=0
46736 On ch=1 n=e6 v=64
46774 On ch=1 n=e6 v=0
46774 On ch=1 n=g4 v=0
46776 On ch=1 n=c#6 v=64
46776 On ch=1 n=a#5 v=64
46776 On ch=1 n=g#3 v=64
46776 On ch=1 n=g#4 v=64
46776 On ch=1 n=g#3 v=64
46776 On ch=1 n=g#4 v=64
46814 On ch=1 n=a#5 v=0
46814 On ch=1 n=c#6 v=0
46816 On ch=1 n=e6 v=64
46823 Par ch=1 c=7 v=106
46824 On ch=1 n=c#4 v=64
46854 On ch=1 n=e6 v=0
46856 On ch=1 n=c#6 v=64
46856 On ch=1 n=a#5 v=64
46870 On ch=1 n=c#4 v=0
46872 On ch=1 n=e4 v=64
46894 On ch=1 n=a#5 v=0
46894 On ch=1 n=c#6 v=0
46894 On ch=1 n=g#4 v=0
46894 On ch=1 n=g#3 v=0
46894 On ch=1 n=g#4 v=0
46894 On ch=1 n=g#3 v=0
46896 On ch=1 n=e6 v=64
46918 On ch=1 n=e4 v=0
46920 On ch=1 n=c#4 v=64
46925 Tempo 1333333
46934 On ch=1 n=e6 v=0
46936 On ch=1 n=c#6 v=64
46936 On ch=1 n=a#5 v=64
46966 On ch=1 n=c#4 v=0
46968 On ch=1 n=e4 v=64
46974 On ch=1 n=a#5 v=0
46974 On ch=1 n=c#6 v=0
46976 On ch=1 n=e6 v=64
46976 Par ch=1 c=64 v=0
47008 Par ch=1 c=64 v=96
47014 On ch=1 n=e6 v=0
47014 On ch=1 n=e4 v=0
47016 On ch=1 n=e6 v=64
47016 On ch=1 n=e7 v=64
47016 On ch=1 n=g3 v=64
47016 On ch=1 n=g4 v=64
47016 On ch=1 n=e6 v=64
47016 On ch=1 n=e7 v=64
47016 On ch=1 n=g3 v=64
47016 On ch=1 n=g4 v=64
47064 On ch=1 n=c#4 v=64
47064 On ch=1 n=a#3 v=64
47064 On ch=1 n=g6 v=64
47110 On ch=1 n=g6 v=0
47110 On ch=1 n=a#3 v=0
47110 On ch=1 n=c#4 v=0
47112 On ch=1 n=e4 v=64
47112 On ch=1 n=a#6 v=64
47134 On ch=1 n=e7 v=0
47134 On ch=1 n=e6 v=0
47134 On ch=1 n=e7 v=0
47134 On ch=1 n=e6 v=0
47158 On ch=1 n=a#6 v=0
47158 On ch=1 n=e4 v=0
47160 On ch=1 n=c#4 v=64
47160 On ch=1 n=a#3 v=64
47160 On ch=1 n=g6 v=64
47206 On ch=1 n=g6 v=0
47206 On ch=1 n=a#3 v=0
47206 On ch=1 n=c#4 v=0
47208 On ch=1 n=e4 v=64
47208 On ch=1 n=a#6 v=64
47254 On ch=1 n=a#6 v=0
47254 On ch=1 n=e4 v=0
47256 On ch=1 n=c#4 v=64
47256 On ch=1 n=a#3 v=64
47256 On ch=1 n=d#6 v=64
47256 On ch=1 n=d#7 v=64
47256 On ch=1 n=d#6 v=64
47256 On ch=1 n=d#7 v=64
47294 On ch=1 n=a#3 v=0
47294 On ch=1 n=c#4 v=0
47296 On ch=1 n=e4 v=64
47304 On ch=1 n=g6 v=64
47334 On ch=1 n=e4 v=0
47336 On ch=1 n=c#4 v=64
47336 On ch=1 n=a#3 v=64
47350 On ch=1 n=g6 v=0
47351 Par ch=1 c=7 v=107
47352 On ch=1 n=a#6 v=64
47374 On ch=1 n=a#3 v=0
47374 On ch=1 n=c#4 v=0
47374 On ch=1 n=d#7 v=0
47374 On ch=1 n=d#6 v=0
47374 On ch=1 n=d#7 v=0
47374 On ch=1 n=d#6 v=0
47376 On ch=1 n=e4 v=64
47398 On ch=1 n=a#6 v=0
47400 On ch=1 n=g6 v=64
47414 On ch=1 n=e4 v=0
47416 On ch=1 n=c#4 v=64
47416 On ch=1 n=a#3 v=64
47446 On ch=1 n=g6 v=0
47448 On ch=1 n=a#6 v=64
47454 On ch=1 n=a#3 v=0
47454 On ch=1 n=c#4 v=0
47456 On ch=1 n=e4 v=64
47456 Par ch=1 c=64 v=0
47488 Par ch=1 c=64 v=96
47494 On ch=1 n=e4 v=0
47494 On ch=1 n=a#6 v=0
47494 On ch=1 n=g4 v=0
47494 On ch=1 n=g3 v=0
47494 On ch=1 n=g4 v=0
47494 On ch=1 n=g3 v=0
47496 On ch=1 n=e4 v=64
47496 On ch=1 n=e5 v=64
47496 On ch=1 n=c#6 v=64
47496 On ch=1 n=c#7 v=64
47496 On ch=1 n=e4 v=64
47496 On ch=1 n=e5 v=64
47496 On ch=1 n=c#6 v=64
47496 On ch=1 n=c#7 v=64
47544 On ch=1 n=a#4 v=64
47544 On ch=1 n=g4 v=64
47544 On ch=1 n=e6 v=64
47590 On ch=1 n=e6 v=0
47590 On ch=1 n=g4 v=0
47590 On ch=1 n=a#4 v=0
47592 On ch=1 n=c#5 v=64
47592 On ch=1 n=g6 v=64
47614 On ch=1 n=c#7 v=0
47614 On ch=1 n=c#6 v=0
47614 On ch=1 n=e5 v=0
47614 On ch=1 n=e4 v=0
47614 On ch=1 n=c#7 v=0
47614 On ch=1 n=c#6 v=0
47614 On ch=1 n=e5 v=0
47614 On ch=1 n=e4 v=0
47615 Tempo 1304348
47638 On ch=1 n=g6 v=0
47638 On ch=1 n=c#5 v=0
47640 On ch=1 n=a#4 v=64
47640 On ch=1 n=g4 v=64
47640 On ch=1 n=e6 v=64
47686 On ch=1 n=e6 v=0
47686 On ch=1 n=g4 v=0
47686 On ch=1 n=a#4 v=0
47688 On ch=1 n=c#5 v=64
47688 On ch=1 n=g6 v=64
47734 On ch=1 n=g6 v=0
47734 On ch=1 n=c#5 v=0
47736 On ch=1 n=d#4 v=64
47736 On ch=1 n=d#5 v=64
47736 On ch=1 n=b5 v=64
47736 On ch=1 n=b6 v=64
47736 On ch=1 n=d#4 v=64
47736 On ch=1 n=d#5 v=64
47736 On ch=1 n=b5 v=64
47736 On ch=1 n=b6 v=64
47784 On ch=1 n=g4 v=64
47784 On ch=1 n=d#6 v=64
47830 On ch=1 n=d#6 v=0
47830 On ch=1 n=g4 v=0
47832 On ch=1 n=b4 v=64
47832 On ch=1 n=g6 v=64
47854 On ch=1 n=b6 v=0
47854 On ch=1 n=b5 v=0
47854 On ch=1 n=d#5 v=0
47854 On ch=1 n=d#4 v=0
47854 On ch=1 n=b6 v=0
47854 On ch=1 n=b5 v=0
47854 On ch=1 n=d#5 v=0
47854 On ch=1 n=d#4 v=0
47878 On ch=1 n=g6 v=0
47878 On ch=1 n=b4 v=0
47879 Par ch=1 c=7 v=108
47880 On ch=1 n=g4 v=64
47880 On ch=1 n=d#6 v=64
47926 On ch=1 n=d#6 v=0
47926 On ch=1 n=g4 v=0
47928 On ch=1 n=b4 v=64
47928 On ch=1 n=g6 v=64
47974 On ch=1 n=g6 v=0
47974 On ch=1 n=b4 v=0
47976 On ch=1 n=c#4 v=64
47976 On ch=1 n=c#5 v=64
47976 On ch=1 n=a#5 v=64
47976 On ch=1 n=a#6 v=64
47976 On ch=1 n=c#4 v=64
47976 On ch=1 n=c#5 v=64
47976 On ch=1 n=a#5 v=64
47976 On ch=1 n=a#6 v=64
48024 On ch=1 n=e4 v=64
48024 On ch=1 n=g4 v=64
48024 On ch=1 n=e6 v=64
48024 On ch=1 n=c#6 v=64
48070 On ch=1 n=c#6 v=0
48070 On ch=1 n=e6 v=0
48070 On ch=1 n=g4 v=0
48070 On ch=1 n=e4 v=0
48072 On ch=1 n=a#4 v=64
48072 On ch=1 n=g6 v=64
48094 On ch=1 n=a#6 v=0
48094 On ch=1 n=a#5 v=0
48094 On ch=1 n=c#5 v=0
48094 On ch=1 n=c#4 v=0
48094 On ch=1 n=a#6 v=0
48094 On ch=1 n=a#5 v=0
48094 On ch=1 n=c#5 v=0
48094 On ch=1 n=c#4 v=0
48118 On ch=1 n=g6 v=0
48118 On ch=1 n=a#4 v=0
48120 On ch=1 n=e4 v=64
48120 On ch=1 n=g4 v=64
48120 On ch=1 n=e6 v=64
48120 On ch=1 n=c#6 v=64
48166 On ch=1 n=c#6 v=0
48166 On ch=1 n=e6 v=0
48166 On ch=1 n=g4 v=0
48166 On ch=1 n=e4 v=0
48168 On ch=1 n=a#4 v=64
48168 On ch=1 n=g6 v=64
48176 Par ch=1 c=64 v=0
48208 Par ch=1 c=64 v=96
48214 On ch=1 n=g6 v=0
48214 On ch=1 n=a#4 v=0
48216 On ch=1 n=c4 v=64
48216 On ch=1 n=c5 v=64
48216 On ch=1 n=a5 v=64
48216 On ch=1 n=a6 v=64
48216 On ch=1 n=c4 v=64
48216 On ch=1 n=c5 v=64
48216 On ch=1 n=a5 v=64
48216 On ch=1 n=a6 v=64
48264 On ch=1 n=d#4 v=64
48264 On ch=1 n=g4 v=64
48264 On ch=1 n=d#6 v=64
48264 On ch=1 n=c6 v=64
48305 Tempo 1276596
48310 On ch=1 n=c6 v=0
48310 On ch=1 n=d#6 v=0
48310 On ch=1 n=g4 v=0
48310 On ch=1 n=d#4 v=0
48312 On ch=1 n=a#4 v=64
48312 On ch=1 n=g6 v=64
48334 On ch=1 n=a6 v=0
48334 On ch=1 n=a5 v=0
48334 On ch=1 n=c5 v=0
48334 On ch=1 n=c4 v=0
48334 On ch=1 n=a6 v=0
48334 On ch=1 n=a5 v=0
48334 On ch=1 n=c5 v=0
48334 On ch=1 n=c4 v=0
48358 On ch=1 n=g6 v=0
48358 On ch=1 n=a#4 v=0
48360 On ch=1 n=d#4 v=64
48360 On ch=1 n=g4 v=64
48360 On ch=1 n=d#6 v=64
48360 On ch=1 n=c6 v=64
48406 On ch=1 n=c6 v=0
48406 On ch=1 n=d#6 v=0
48406 On ch=1 n=g4 v=0
48406 On ch=1 n=d#4 v=0
48407 Par ch=1 c=7 v=109
48408 On ch=1 n=a#4 v=64
48408 On ch=1 n=g6 v=64
48416 Par ch=1 c=64 v=0
48448 Par ch=1 c=64 v=96
48454 On ch=1 n=g6 v=0
48454 On ch=1 n=a#4 v=0
48456 On ch=1 n=f#6 v=64
48456 On ch=1 n=f#7 v=64
48456 On ch=1 n=a#3 v=64
48456 On ch=1 n=a#4 v=64
48456 On ch=1 n=f#6 v=64
48456 On ch=1 n=f#7 v=64
48456 On ch=1 n=a#3 v=64
48456 On ch=1 n=a#4 v=64
48504 On ch=1 n=d#4 v=64
48504 On ch=1 n=a6 v=64
48550 On ch=1 n=a6 v=0
48550 On ch=1 n=d#4 v=0
48552 On ch=1 n=g4 v=64
48552 On ch=1 n=c7 v=64
48574 On ch=1 n=a#4 v=0
48574 On ch=1 n=a#3 v=0
48574 On ch=1 n=f#7 v=0
48574 On ch=1 n=f#6 v=0
48574 On ch=1 n=a#4 v=0
48574 On ch=1 n=a#3 v=0
48574 On ch=1 n=f#7 v=0
48574 On ch=1 n=f#6 v=0
48598 On ch=1 n=c7 v=0
48598 On ch=1 n=g4 v=0
48600 On ch=1 n=d#4 v=64
48600 On ch=1 n=a6 v=64
48646 On ch=1 n=a6 v=0
48646 On ch=1 n=d#4 v=0
48648 On ch=1 n=g4 v=64
48648 On ch=1 n=c7 v=64
48694 On ch=1 n=c7 v=0
48694 On ch=1 n=g4 v=0
48696 On ch=1 n=a3 v=64
48696 On ch=1 n=a4 v=64
48696 On ch=1 n=f6 v=64
48696 On ch=1 n=f7 v=64
48696 On ch=1 n=a3 v=64
48696 On ch=1 n=a4 v=64
48696 On ch=1 n=f6 v=64
48696 On ch=1 n=f7 v=64
48744 On ch=1 n=c4 v=64
48744 On ch=1 n=a6 v=64
48790 On ch=1 n=a6 v=0
48790 On ch=1 n=c4 v=0
48792 On ch=1 n=f4 v=64
48792 On ch=1 n=c7 v=64
48814 On ch=1 n=f7 v=0
48814 On ch=1 n=f6 v=0
48814 On ch=1 n=a4 v=0
48814 On ch=1 n=a3 v=0
48814 On ch=1 n=f7 v=0
48814 On ch=1 n=f6 v=0
48814 On ch=1 n=a4 v=0
48814 On ch=1 n=a3 v=0
48838 On ch=1 n=c7 v=0
48838 On ch=1 n=f4 v=0
48840 On ch=1 n=c4 v=64
48840 On ch=1 n=a6 v=64
48886 On ch=1 n=a6 v=0
48886 On ch=1 n=c4 v=0
48888 On ch=1 n=f4 v=64
48888 On ch=1 n=c7 v=64
48896 Par ch=1 c=64 v=0
48928 Par ch=1 c=64 v=96
48934 On ch=1 n=c7 v=0
48934 On ch=1 n=f4 v=0
48935 Par ch=1 c=7 v=110
48936 Par ch=1 c=7 v=110
48936 On ch=1 n=f#4 v=64
48936 On ch=1 n=f#5 v=64
48936 On ch=1 n=d#6 v=64
48936 On ch=1 n=d#7 v=64
48936 On ch=1 n=f#4 v=64
48936 On ch=1 n=f#5 v=64
48936 On ch=1 n=d#6 v=64
48936 On ch=1 n=d#7 v=64
48959 Par ch=1 c=7 v=109
48983 Par ch=1 c=7 v=108
48984 On ch=1 n=a4 v=64
48984 On ch=1 n=f#6 v=64
48995 Tempo 1250000
49007 Par ch=1 c=7 v=107
49030 On ch=1 n=f#6 v=0
49030 On ch=1 n=a4 v=0
49031 Par ch=1 c=7 v=106
49032 On ch=1 n=d#5 v=64
49032 On ch=1 n=a6 v=64
49054 On ch=1 n=d#7 v=0
49054 On ch=1 n=d#6 v=0
49054 On ch=1 n=f#5 v=0
49054 On ch=1 n=f#4 v=0
49054 On ch=1 n=d#7 v=0
49054 On ch=1 n=d#6 v=0
49054 On ch=1 n=f#5 v=0
49054 On ch=1 n=f#4 v=0
49055 Par ch=1 c=7 v=105
49078 On ch=1 n=a6 v=0
49078 On ch=1 n=d#5 v=0
49079 Par ch=1 c=7 v=104
49080 On ch=1 n=a4 v=64
49080 On ch=1 n=f#6 v=64
49103 Par ch=1 c=7 v=103
49126 On ch=1 n=f#6 v=0
49126 On ch=1 n=a4 v=0
49127 Par ch=1 c=7 v=102
49128 On ch=1 n=d#5 v=64
49128 On ch=1 n=a6 v=64
49151 Par ch=1 c=7 v=101
49174 On ch=1 n=a6 v=0
49174 On ch=1 n=d#5 v=0
49175 Par ch=1 c=7 v=100
49176 On ch=1 n=f4 v=64
49176 On ch=1 n=f5 v=64
49176 On ch=1 n=c#6 v=64
49176 On ch=1 n=c#7 v=64
49176 On ch=1 n=f4 v=64
49176 On ch=1 n=f5 v=64
49176 On ch=1 n=c#6 v=64
49176 On ch=1 n=c#7 v=64
49199 Par ch=1 c=7 v=99
49223 Par ch=1 c=7 v=98
49224 On ch=1 n=a4 v=64
49224 On ch=1 n=f6 v=64
49247 Par ch=1 c=7 v=97
49270 On ch=1 n=f6 v=0
49270 On ch=1 n=a4 v=0
49271 Par ch=1 c=7 v=96
49272 On ch=1 n=c#5 v=64
49272 On ch=1 n=a6 v=64
49294 On ch=1 n=c#7 v=0
49294 On ch=1 n=c#6 v=0
49294 On ch=1 n=f5 v=0
49294 On ch=1 n=f4 v=0
49294 On ch=1 n=c#7 v=0
49294 On ch=1 n=c#6 v=0
49294 On ch=1 n=f5 v=0
49294 On ch=1 n=f4 v=0
49295 Par ch=1 c=7 v=95
49318 On ch=1 n=a6 v=0
49318 On ch=1 n=c#5 v=0
49319 Par ch=1 c=7 v=94
49320 On ch=1 n=a4 v=64
49320 On ch=1 n=f6 v=64
49343 Par ch=1 c=7 v=93
49366 On ch=1 n=f6 v=0
49366 On ch=1 n=a4 v=0
49367 Par ch=1 c=7 v=92
49368 On ch=1 n=c#5 v=64
49368 On ch=1 n=a6 v=64
49391 Par ch=1 c=7 v=91
49414 On ch=1 n=a6 v=0
49414 On ch=1 n=c#5 v=0
49415 Par ch=1 c=7 v=90
49416 On ch=1 n=d#4 v=64
49416 On ch=1 n=d#5 v=64
49416 On ch=1 n=c6 v=64
49416 On ch=1 n=c7 v=64
49416 On ch=1 n=d#4 v=64
49416 On ch=1 n=d#5 v=64
49416 On ch=1 n=c6 v=64
49416 On ch=1 n=c7 v=64
49439 Par ch=1 c=7 v=89
49463 Par ch=1 c=7 v=88
49464 On ch=1 n=f#4 v=64
49464 On ch=1 n=a4 v=64
49464 On ch=1 n=f#6 v=64
49464 On ch=1 n=d#6 v=64
49487 Par ch=1 c=7 v=87
49510 On ch=1 n=d#6 v=0
49510 On ch=1 n=f#6 v=0
49510 On ch=1 n=a4 v=0
49510 On ch=1 n=f#4 v=0
49511 Par ch=1 c=7 v=86
49512 On ch=1 n=c5 v=64
49512 On ch=1 n=a6 v=64
49534 On ch=1 n=c7 v=0
49534 On ch=1 n=c6 v=0
49534 On ch=1 n=d#5 v=0
49534 On ch=1 n=d#4 v=0
49534 On ch=1 n=c7 v=0
49534 On ch=1 n=c6 v=0
49534 On ch=1 n=d#5 v=0
49534 On ch=1 n=d#4 v=0
49535 Par ch=1 c=7 v=85
49558 On ch=1 n=a6 v=0
49558 On ch=1 n=c5 v=0
49559 Par ch=1 c=7 v=84
49560 On ch=1 n=f#4 v=64
49560 On ch=1 n=a4 v=64
49560 On ch=1 n=f#6 v=64
49560 On ch=1 n=d#6 v=64
49583 Par ch=1 c=7 v=83
49606 On ch=1 n=d#6 v=0
49606 On ch=1 n=f#6 v=0
49606 On ch=1 n=a4 v=0
49606 On ch=1 n=f#4 v=0
49607 Par ch=1 c=7 v=82
49608 On ch=1 n=c5 v=64
49608 On ch=1 n=a6 v=64
49616 Par ch=1 c=64 v=0
49631 Par ch=1 c=7 v=81
49648 Par ch=1 c=64 v=96
49654 On ch=1 n=a6 v=0
49654 On ch=1 n=c5 v=0
49655 Par ch=1 c=7 v=80
49656 Par ch=1 c=7 v=80
49656 On ch=1 n=c#4 v=64
49656 On ch=1 n=c#5 v=64
49656 On ch=1 n=a#5 v=64
49656 On ch=1 n=a#6 v=64
49656 On ch=1 n=c#4 v=64
49656 On ch=1 n=c#5 v=64
49656 On ch=1 n=a#5 v=64
49656 On ch=1 n=a#6 v=64
49685 Tempo 1224490
49715 Par ch=1 c=7 v=81
49716 On ch=1 n=a#4 v=64
49716 On ch=1 n=f4 v=64
49716 On ch=1 n=f6 v=64
49716 On ch=1 n=c#6 v=64
49774 On ch=1 n=c#6 v=0
49774 On ch=1 n=f6 v=0
49774 On ch=1 n=f4 v=0
49774 On ch=1 n=a#4 v=0
49775 Par ch=1 c=7 v=82
49776 On ch=1 n=c#5 v=64
49776 On ch=1 n=a#5 v=64
49834 On ch=1 n=a#5 v=0
49834 On ch=1 n=c#5 v=0
49835 Par ch=1 c=7 v=83
49836 On ch=1 n=a#4 v=64
49836 On ch=1 n=f4 v=64
49836 On ch=1 n=f6 v=64
49836 On ch=1 n=c#6 v=64
49856 Par ch=1 c=64 v=0
49888 Par ch=1 c=64 v=96
49894 On ch=1 n=c#6 v=0
49894 On ch=1 n=f6 v=0
49894 On ch=1 n=f4 v=0
49894 On ch=1 n=a#4 v=0
49894 On ch=1 n=a#5 v=0
49894 On ch=1 n=c#5 v=0
49894 On ch=1 n=a#6 v=0
49894 On ch=1 n=a#5 v=0
49894 On ch=1 n=c#5 v=0
49894 On ch=1 n=c#4 v=0
49894 On ch=1 n=a#6 v=0
49894 On ch=1 n=c#4 v=0
49895 Par ch=1 c=7 v=84
49896 On ch=1 n=c4 v=64
49896 On ch=1 n=c5 v=64
49896 On ch=1 n=c6 v=64
49896 On ch=1 n=c7 v=64
49896 On ch=1 n=c4 v=64
49896 On ch=1 n=c5 v=64
49896 On ch=1 n=c6 v=64
49896 On ch=1 n=c7 v=64
49955 Par ch=1 c=7 v=85
49956 On ch=1 n=f4 v=64
49956 On ch=1 n=d#6 v=64
49956 On ch=1 n=a4 v=64
49956 On ch=1 n=a6 v=64
50014 On ch=1 n=a6 v=0
50014 On ch=1 n=a4 v=0
50014 On ch=1 n=d#6 v=0
50014 On ch=1 n=f4 v=0
50015 Par ch=1 c=7 v=86
50016 On ch=1 n=c5 v=64
50016 On ch=1 n=c6 v=64
50074 On ch=1 n=c6 v=0
50074 On ch=1 n=c5 v=0
50075 Par ch=1 c=7 v=87
50076 On ch=1 n=f4 v=64
50076 On ch=1 n=d#6 v=64
50076 On ch=1 n=a4 v=64
50076 On ch=1 n=a6 v=64
50096 Par ch=1 c=64 v=0
50128 Par ch=1 c=64 v=96
50134 On ch=1 n=a6 v=0
50134 On ch=1 n=a4 v=0
50134 On ch=1 n=d#6 v=0
50134 On ch=1 n=f4 v=0
50134 On ch=1 n=c6 v=0
50134 On ch=1 n=c5 v=0
50134 On ch=1 n=c7 v=0
50134 On ch=1 n=c6 v=0
50134 On ch=1 n=c5 v=0
50134 On ch=1 n=c4 v=0
50134 On ch=1 n=c7 v=0
50134 On ch=1 n=c4 v=0
50135 Par ch=1 c=7 v=88
50136 On ch=1 n=a#3 v=64
50136 On ch=1 n=a#4 v=64
50136 On ch=1 n=c#6 v=64
50136 On ch=1 n=c#7 v=64
50136 On ch=1 n=a#3 v=64
50136 On ch=1 n=a#4 v=64
50136 On ch=1 n=c#6 v=64
50136 On ch=1 n=c#7 v=64
50195 Par ch=1 c=7 v=89
50196 On ch=1 n=f4 v=64
50196 On ch=1 n=c#4 v=64
50196 On ch=1 n=a#6 v=64
50196 On ch=1 n=f6 v=64
50254 On ch=1 n=f6 v=0
50254 On ch=1 n=a#6 v=0
50254 On ch=1 n=c#4 v=0
50254 On ch=1 n=f4 v=0
50255 Par ch=1 c=7 v=90
50256 On ch=1 n=a#4 v=64
50256 On ch=1 n=c#6 v=64
50314 On ch=1 n=c#6 v=0
50314 On ch=1 n=a#4 v=0
50315 Par ch=1 c=7 v=91
50316 On ch=1 n=f4 v=64
50316 On ch=1 n=c#4 v=64
50316 On ch=1 n=a#6 v=64
50316 On ch=1 n=f6 v=64
50336 Par ch=1 c=64 v=0
50368 Par ch=1 c=64 v=96
50374 On ch=1 n=f6 v=0
50374 On ch=1 n=a#6 v=0
50374 On ch=1 n=c#4 v=0
50374 On ch=1 n=f4 v=0
50374 On ch=1 n=c#6 v=0
50374 On ch=1 n=a#4 v=0
50374 On ch=1 n=c#7 v=0
50374 On ch=1 n=c#6 v=0
50374 On ch=1 n=a#4 v=0
50374 On ch=1 n=a#3 v=0
50374 On ch=1 n=c#7 v=0
50374 On ch=1 n=a#3 v=0
50375 Tempo 1200000
50375 Par ch=1 c=7 v=92
50376 Tempo 1200000
50376 On ch=1 n=g#3 v=64
50376 On ch=1 n=g#4 v=64
50376 On ch=1 n=d6 v=64
50376 On ch=1 n=d7 v=64
50376 On ch=1 n=g#3 v=64
50376 On ch=1 n=g#4 v=64
50376 On ch=1 n=d6 v=64
50376 On ch=1 n=d7 v=64
50435 Par ch=1 c=7 v=93
50436 On ch=1 n=f4 v=64
50436 On ch=1 n=f6 v=64
50436 On ch=1 n=d4 v=64
50436 On ch=1 n=b6 v=64
50494 On ch=1 n=b6 v=0
50494 On ch=1 n=d4 v=0
50494 On ch=1 n=f6 v=0
50494 On ch=1 n=f4 v=0
50495 Par ch=1 c=7 v=94
50496 On ch=1 n=g#4 v=64
50496 On ch=1 n=d6 v=64
50554 On ch=1 n=d6 v=0
50554 On ch=1 n=g#4 v=0
50555 Par ch=1 c=7 v=95
50556 On ch=1 n=f4 v=64
50556 On ch=1 n=f6 v=64
50556 On ch=1 n=d4 v=64
50556 On ch=1 n=b6 v=64
50576 Par ch=1 c=64 v=0
50585 Tempo 1176471
50608 Par ch=1 c=64 v=96
50614 On ch=1 n=b6 v=0
50614 On ch=1 n=d4 v=0
50614 On ch=1 n=f6 v=0
50614 On ch=1 n=f4 v=0
50614 On ch=1 n=d6 v=0
50614 On ch=1 n=g#4 v=0
50614 On ch=1 n=d7 v=0
50614 On ch=1 n=d6 v=0
50614 On ch=1 n=g#4 v=0
50614 On ch=1 n=g#3 v=0
50614 On ch=1 n=d7 v=0
50614 On ch=1 n=g#3 v=0
50615 Par ch=1 c=7 v=96
50616 On ch=1 n=d#6 v=64
50616 On ch=1 n=d#7 v=64
50616 On ch=1 n=g3 v=64
50616 On ch=1 n=g4 v=64
50616 On ch=1 n=d#6 v=64
50616 On ch=1 n=d#7 v=64
50616 On ch=1 n=g3 v=64
50616 On ch=1 n=g4 v=64
50675 Par ch=1 c=7 v=97
50676 On ch=1 n=d#4 v=64
50676 On ch=1 n=a#3 v=64
50676 On ch=1 n=a#6 v=64
50676 On ch=1 n=g6 v=64
50734 On ch=1 n=g6 v=0
50734 On ch=1 n=a#6 v=0
50734 On ch=1 n=a#3 v=0
50734 On ch=1 n=d#4 v=0
50735 Par ch=1 c=7 v=98
50736 On ch=1 n=d#6 v=64
50736 On ch=1 n=g4 v=64
50794 On ch=1 n=g4 v=0
50794 On ch=1 n=d#6 v=0
50795 Tempo 1153846
50795 Par ch=1 c=7 v=99
50796 On ch=1 n=d#4 v=64
50796 On ch=1 n=a#3 v=64
50796 On ch=1 n=a#6 v=64
50796 On ch=1 n=g6 v=64
50816 Par ch=1 c=64 v=0
50848 Par ch=1 c=64 v=96
50854 On ch=1 n=g6 v=0
50854 On ch=1 n=a#6 v=0
50854 On ch=1 n=a#3 v=0
50854 On ch=1 n=d#4 v=0
50854 On ch=1 n=g4 v=0
50854 On ch=1 n=d#6 v=0
50854 On ch=1 n=g4 v=0
50854 On ch=1 n=g3 v=0
50854 On ch=1 n=d#7 v=0
50854 On ch=1 n=d#6 v=0
50854 On ch=1 n=g3 v=0
50854 On ch=1 n=d#7 v=0
50855 Par ch=1 c=7 v=100
50856 On ch=1 n=f#3 v=64
50856 On ch=1 n=f#4 v=64
50856 On ch=1 n=e6 v=64
50856 On ch=1 n=e7 v=64
50856 On ch=1 n=f#3 v=64
50856 On ch=1 n=f#4 v=64
50856 On ch=1 n=e6 v=64
50856 On ch=1 n=e7 v=64
50915 Par ch=1 c=7 v=101
50916 On ch=1 n=c#4 v=64
50916 On ch=1 n=a#3 v=64
50916 On ch=1 n=c#7 v=64
50916 On ch=1 n=a#6 v=64
50974 On ch=1 n=a#6 v=0
50974 On ch=1 n=c#7 v=0
50974 On ch=1 n=a#3 v=0
50974 On ch=1 n=c#4 v=0
50975 Par ch=1 c=7 v=102
50976 On ch=1 n=f#4 v=64
50976 On ch=1 n=e6 v=64
51005 Tempo 1132075
51034 On ch=1 n=e6 v=0
51034 On ch=1 n=f#4 v=0
51035 Par ch=1 c=7 v=103
51036 On ch=1 n=c#4 v=64
51036 On ch=1 n=a#3 v=64
51036 On ch=1 n=c#7 v=64
51036 On ch=1 n=a#6 v=64
51056 Par ch=1 c=64 v=0
51088 Par ch=1 c=64 v=96
51094 On ch=1 n=a#6 v=0
51094 On ch=1 n=c#7 v=0
51094 On ch=1 n=a#3 v=0
51094 On ch=1 n=c#4 v=0
51094 On ch=1 n=e6 v=0
51094 On ch=1 n=f#4 v=0
51094 On ch=1 n=e7 v=0
51094 On ch=1 n=e6 v=0
51094 On ch=1 n=f#4 v=0
51094 On ch=1 n=f#3 v=0
51094 On ch=1 n=e7 v=0
51094 On ch=1 n=f#3 v=0
51095 Par ch=1 c=7 v=104
51096 On ch=1 n=f3 v=64
51096 On ch=1 n=f4 v=64
51096 On ch=1 n=f6 v=64
51096 On ch=1 n=f7 v=64
51096 On ch=1 n=f3 v=64
51096 On ch=1 n=f4 v=64
51096 On ch=1 n=f6 v=64
51096 On ch=1 n=f7 v=64
51155 Par ch=1 c=7 v=105
51156 On ch=1 n=c#4 v=64
51156 On ch=1 n=a#3 v=64
51156 On ch=1 n=c#7 v=64
51156 On ch=1 n=a#6 v=64
51214 On ch=1 n=a#6 v=0
51214 On ch=1 n=c#7 v=0
51214 On ch=1 n=a#3 v=0
51214 On ch=1 n=c#4 v=0
51215 Tempo 1111111
51215 Par ch=1 c=7 v=106
51216 On ch=1 n=f4 v=64
51216 On ch=1 n=f6 v=64
51274 On ch=1 n=f6 v=0
51274 On ch=1 n=f4 v=0
51275 Par ch=1 c=7 v=107
51276 On ch=1 n=c#4 v=64
51276 On ch=1 n=a#3 v=64
51276 On ch=1 n=c#7 v=64
51276 On ch=1 n=a#6 v=64
51296 Par ch=1 c=64 v=0
51328 Par ch=1 c=64 v=96
51334 On ch=1 n=a#6 v=0
51334 On ch=1 n=c#7 v=0
51334 On ch=1 n=a#3 v=0
51334 On ch=1 n=c#4 v=0
51334 On ch=1 n=f6 v=0
51334 On ch=1 n=f4 v=0
51334 On ch=1 n=f7 v=0
51334 On ch=1 n=f6 v=0
51334 On ch=1 n=f4 v=0
51334 On ch=1 n=f3 v=0
51334 On ch=1 n=f7 v=0
51334 On ch=1 n=f3 v=0
51335 Par ch=1 c=7 v=108
51336 On ch=1 n=e3 v=64
51336 On ch=1 n=e4 v=64
51336 On ch=1 n=g6 v=64
51336 On ch=1 n=g7 v=64
51336 On ch=1 n=e3 v=64
51336 On ch=1 n=e4 v=64
51336 On ch=1 n=g6 v=64
51336 On ch=1 n=g7 v=64
51395 Par ch=1 c=7 v=109
51396 On ch=1 n=c#4 v=64
51396 On ch=1 n=a#3 v=64
51396 On ch=1 n=c#7 v=64
51396 On ch=1 n=a#6 v=64
51425 Tempo 1090909
51454 On ch=1 n=a#6 v=0
51454 On ch=1 n=c#7 v=0
51454 On ch=1 n=a#3 v=0
51454 On ch=1 n=c#4 v=0
51455 Par ch=1 c=7 v=110
51456 On ch=1 n=e4 v=64
51456 On ch=1 n=g6 v=64
51514 On ch=1 n=g6 v=0
51514 On ch=1 n=e4 v=0
51515 Par ch=1 c=7 v=111
51516 On ch=1 n=c#4 v=64
51516 On ch=1 n=a#3 v=64
51516 On ch=1 n=c#7 v=64
51516 On ch=1 n=a#6 v=64
51536 Par ch=1 c=64 v=0
51568 Par ch=1 c=64 v=96
51574 On ch=1 n=a#6 v=0
51574 On ch=1 n=c#7 v=0
51574 On ch=1 n=a#3 v=0
51574 On ch=1 n=c#4 v=0
51574 On ch=1 n=g6 v=0
51574 On ch=1 n=e4 v=0
51574 On ch=1 n=g7 v=0
51574 On ch=1 n=g6 v=0
51574 On ch=1 n=e4 v=0
51574 On ch=1 n=e3 v=0
51574 On ch=1 n=g7 v=0
51574 On ch=1 n=e3 v=0
51575 Par ch=1 c=7 v=112
51576 On ch=1 n=d#3 v=64
51576 On ch=1 n=d#4 v=64
51576 On ch=1 n=a6 v=64
51576 On ch=1 n=a7 v=64
51576 On ch=1 n=d#3 v=64
51576 On ch=1 n=d#4 v=64
51576 On ch=1 n=a6 v=64
51576 On ch=1 n=a7 v=64
51635 Tempo 1071429
51635 Par ch=1 c=7 v=113
51636 On ch=1 n=c4 v=64
51636 On ch=1 n=f#7 v=64
51636 On ch=1 n=c7 v=64
51636 On ch=1 n=a3 v=64
51694 On ch=1 n=a3 v=0
51694 On ch=1 n=c7 v=0
51694 On ch=1 n=f#7 v=0
51694 On ch=1 n=c4 v=0
51695 Par ch=1 c=7 v=114
51696 On ch=1 n=d#4 v=64
51696 On ch=1 n=a6 v=64
51754 On ch=1 n=a6 v=0
51754 On ch=1 n=d#4 v=0
51755 Par ch=1 c=7 v=115
51756 On ch=1 n=c4 v=64
51756 On ch=1 n=f#7 v=64
51756 On ch=1 n=c7 v=64
51756 On ch=1 n=a3 v=64
51776 Par ch=1 c=64 v=0
51808 Par ch=1 c=64 v=96
51814 On ch=1 n=a3 v=0
51814 On ch=1 n=c7 v=0
51814 On ch=1 n=f#7 v=0
51814 On ch=1 n=c4 v=0
51814 On ch=1 n=a6 v=0
51814 On ch=1 n=d#4 v=0
51814 On ch=1 n=a7 v=0
51814 On ch=1 n=a6 v=0
51814 On ch=1 n=d#4 v=0
51814 On ch=1 n=d#3 v=0
51814 On ch=1 n=a7 v=0
51814 On ch=1 n=d#3 v=0
51815 Par ch=1 c=7 v=116
51816 On ch=1 n=c#3 v=64
51816 On ch=1 n=c#4 v=64
51816 On ch=1 n=a#6 v=64
51816 On ch=1 n=a#7 v=64
51816 On ch=1 n=c#3 v=64
51816 On ch=1 n=c#4 v=64
51816 On ch=1 n=a#6 v=64
51816 On ch=1 n=a#7 v=64
51845 Tempo 1052632
51875 Par ch=1 c=7 v=117
51876 On ch=1 n=a#3 v=64
51876 On ch=1 n=f3 v=64
51876 On ch=1 n=f7 v=64
51876 On ch=1 n=c#7 v=64
51934 On ch=1 n=c#7 v=0
51934 On ch=1 n=f7 v=0
51934 On ch=1 n=f3 v=0
51934 On ch=1 n=a#3 v=0
51935 Par ch=1 c=7 v=118
51936 On ch=1 n=c#4 v=64
51936 On ch=1 n=a#6 v=64
51994 On ch=1 n=a#6 v=0
51994 On ch=1 n=c#4 v=0
51995 Par ch=1 c=7 v=119
51996 On ch=1 n=a#3 v=64
51996 On ch=1 n=f3 v=64
51996 On ch=1 n=f7 v=64
51996 On ch=1 n=c#7 v=64
52016 Par ch=1 c=64 v=0
52048 Par ch=1 c=64 v=96
52054 On ch=1 n=c#7 v=0
52054 On ch=1 n=f7 v=0
52054 On ch=1 n=f3 v=0
52054 On ch=1 n=a#3 v=0
52054 On ch=1 n=a#6 v=0
52054 On ch=1 n=c#4 v=0
52054 On ch=1 n=a#7 v=0
52054 On ch=1 n=a#6 v=0
52054 On ch=1 n=c#4 v=0
52054 On ch=1 n=c#3 v=0
52054 On ch=1 n=a#7 v=0
52054 On ch=1 n=c#3 v=0
52055 Tempo 1034483
52055 Par ch=1 c=7 v=120
52056 Tempo 1428571
52056 On ch=1 n=a#2 v=64
52056 On ch=1 n=a#3 v=64
52056 On ch=1 n=c#8 v=64
52056 On ch=1 n=c#7 v=64
52056 On ch=1 n=a#2 v=64
52056 On ch=1 n=a#3 v=64
52056 On ch=1 n=c#8 v=64
52056 On ch=1 n=c#7 v=64
52174 On ch=1 n=c#7 v=0
52174 On ch=1 n=c#8 v=0
52174 On ch=1 n=a#3 v=0
52174 On ch=1 n=a#2 v=0
52174 On ch=1 n=c#7 v=0
52174 On ch=1 n=c#8 v=0
52174 On ch=1 n=a#3 v=0
52174 On ch=1 n=a#2 v=0
52176 On ch=1 n=c#7 v=64
52176 On ch=1 n=c#6 v=64
52176 On ch=1 n=g4 v=64
52176 On ch=1 n=e5 v=64
52176 On ch=1 n=g5 v=64
52176 On ch=1 n=e6 v=64
52176 On ch=1 n=c#7 v=64
52176 On ch=1 n=c#6 v=64
52176 On ch=1 n=g4 v=64
52176 On ch=1 n=e5 v=64
52176 On ch=1 n=g5 v=64
52176 On ch=1 n=e6 v=64
52294 On ch=1 n=e6 v=0
52294 On ch=1 n=g5 v=0
52294 On ch=1 n=e5 v=0
52294 On ch=1 n=g4 v=0
52294 On ch=1 n=c#6 v=0
52294 On ch=1 n=c#7 v=0
52294 On ch=1 n=e6 v=0
52294 On ch=1 n=g5 v=0
52294 On ch=1 n=e5 v=0
52294 On ch=1 n=g4 v=0
52294 On ch=1 n=c#6 v=0
52294 On ch=1 n=c#7 v=0
52296 On ch=1 n=c3 v=64
52296 On ch=1 n=c4 v=64
52296 On ch=1 n=c7 v=64
52296 On ch=1 n=c8 v=64
52296 On ch=1 n=c3 v=64
52296 On ch=1 n=c4 v=64
52296 On ch=1 n=c7 v=64
52296 On ch=1 n=c8 v=64
52414 On ch=1 n=c8 v=0
52414 On ch=1 n=c7 v=0
52414 On ch=1 n=c4 v=0
52414 On ch=1 n=c3 v=0
52414 On ch=1 n=c8 v=0
52414 On ch=1 n=c7 v=0
52414 On ch=1 n=c4 v=0
52414 On ch=1 n=c3 v=0
52416 On ch=1 n=c7 v=64
52416 On ch=1 n=c6 v=64
52416 On ch=1 n=g4 v=64
52416 On ch=1 n=e5 v=64
52416 On ch=1 n=g5 v=64
52416 On ch=1 n=e6 v=64
52416 On ch=1 n=c7 v=64
52416 On ch=1 n=c6 v=64
52416 On ch=1 n=g4 v=64
52416 On ch=1 n=e5 v=64
52416 On ch=1 n=g5 v=64
52416 On ch=1 n=e6 v=64
52534 On ch=1 n=e6 v=0
52534 On ch=1 n=g5 v=0
52534 On ch=1 n=e5 v=0
52534 On ch=1 n=g4 v=0
52534 On ch=1 n=c6 v=0
52534 On ch=1 n=c7 v=0
52534 On ch=1 n=e6 v=0
52534 On ch=1 n=g5 v=0
52534 On ch=1 n=e5 v=0
52534 On ch=1 n=g4 v=0
52534 On ch=1 n=c6 v=0
52534 On ch=1 n=c7 v=0
52536 On ch=1 n=c#3 v=64
52536 On ch=1 n=c#4 v=64
52536 On ch=1 n=a#6 v=64
52536 On ch=1 n=a#7 v=64
52536 On ch=1 n=c#3 v=64
52536 On ch=1 n=c#4 v=64
52536 On ch=1 n=a#6 v=64
52536 On ch=1 n=a#7 v=64
52654 On ch=1 n=a#7 v=0
52654 On ch=1 n=a#6 v=0
52654 On ch=1 n=c#4 v=0
52654 On ch=1 n=c#3 v=0
52654 On ch=1 n=a#7 v=0
52654 On ch=1 n=a#6 v=0
52654 On ch=1 n=c#4 v=0
52654 On ch=1 n=c#3 v=0
52656 On ch=1 n=a#5 v=64
52656 On ch=1 n=a#6 v=64
52656 On ch=1 n=g4 v=64
52656 On ch=1 n=e5 v=64
52656 On ch=1 n=g5 v=64
52656 On ch=1 n=e6 v=64
52656 On ch=1 n=a#5 v=64
52656 On ch=1 n=a#6 v=64
52656 On ch=1 n=g4 v=64
52656 On ch=1 n=e5 v=64
52656 On ch=1 n=g5 v=64
52656 On ch=1 n=e6 v=64
52774 On ch=1 n=e6 v=0
52774 On ch=1 n=g5 v=0
52774 On ch=1 n=e5 v=0
52774 On ch=1 n=g4 v=0
52774 On ch=1 n=a#6 v=0
52774 On ch=1 n=a#5 v=0
52774 On ch=1 n=e6 v=0
52774 On ch=1 n=g5 v=0
52774 On ch=1 n=e5 v=0
52774 On ch=1 n=g4 v=0
52774 On ch=1 n=a#6 v=0
52774 On ch=1 n=a#5 v=0
52776 Tempo 1428571
52776 On ch=1 n=c3 v=64
52776 On ch=1 n=c4 v=64
52776 On ch=1 n=a7 v=64
52776 On ch=1 n=a6 v=64
52776 On ch=1 n=c3 v=64
52776 On ch=1 n=c4 v=64
52776 On ch=1 n=a7 v=64
52776 On ch=1 n=a6 v=64
52823 Tempo 1463415
52871 Tempo 1500000
52894 On ch=1 n=a6 v=0
52894 On ch=1 n=a7 v=0
52894 On ch=1 n=c4 v=0
52894 On ch=1 n=c3 v=0
52894 On ch=1 n=a6 v=0
52894 On ch=1 n=a7 v=0
52894 On ch=1 n=c4 v=0
52894 On ch=1 n=c3 v=0
52896 On ch=1 n=g4 v=64
52896 On ch=1 n=e5 v=64
52896 On ch=1 n=g5 v=64
52896 On ch=1 n=a6 v=64
52896 On ch=1 n=e6 v=64
52896 On ch=1 n=a5 v=64
52896 On ch=1 n=g4 v=64
52896 On ch=1 n=e5 v=64
52896 On ch=1 n=g5 v=64
52896 On ch=1 n=a6 v=64
52896 On ch=1 n=e6 v=64
52896 On ch=1 n=a5 v=64
52919 Tempo 1538462
52967 Tempo 1578947
53014 On ch=1 n=a5 v=0
53014 On ch=1 n=e6 v=0
53014 On ch=1 n=a6 v=0
53014 On ch=1 n=g5 v=0
53014 On ch=1 n=e5 v=0
53014 On ch=1 n=g4 v=0
53014 On ch=1 n=a5 v=0
53014 On ch=1 n=e6 v=0
53014 On ch=1 n=a6 v=0
53014 On ch=1 n=g5 v=0
53014 On ch=1 n=e5 v=0
53014 On ch=1 n=g4 v=0
53015 Tempo 1621622
53016 On ch=1 n=a#2 v=64
53016 On ch=1 n=a#3 v=64
53016 On ch=1 n=a#6 v=64
53016 On ch=1 n=a#7 v=64
53016 On ch=1 n=a#2 v=64
53016 On ch=1 n=a#3 v=64
53016 On ch=1 n=a#6 v=64
53016 On ch=1 n=a#7 v=64
53063 Tempo 1666667
53111 Tempo 1714286
53134 On ch=1 n=a#7 v=0
53134 On ch=1 n=a#6 v=0
53134 On ch=1 n=a#3 v=0
53134 On ch=1 n=a#2 v=0
53134 On ch=1 n=a#7 v=0
53134 On ch=1 n=a#6 v=0
53134 On ch=1 n=a#3 v=0
53134 On ch=1 n=a#2 v=0
53136 On ch=1 n=f5 v=64
53136 On ch=1 n=a#6 v=64
53136 On ch=1 n=c#6 v=64
53136 On ch=1 n=a#5 v=64
53136 On ch=1 n=g4 v=64
53136 On ch=1 n=e5 v=64
53136 On ch=1 n=g5 v=64
53136 On ch=1 n=f5 v=64
53136 On ch=1 n=a#6 v=64
53136 On ch=1 n=c#6 v=64
53136 On ch=1 n=a#5 v=64
53136 On ch=1 n=g4 v=64
53136 On ch=1 n=e5 v=64
53136 On ch=1 n=g5 v=64
53159 Tempo 1764706
53207 Tempo 1818182
53254 On ch=1 n=g5 v=0
53254 On ch=1 n=e5 v=0
53254 On ch=1 n=g4 v=0
53254 On ch=1 n=a#5 v=0
53254 On ch=1 n=c#6 v=0
53254 On ch=1 n=a#6 v=0
53254 On ch=1 n=f5 v=0
53254 On ch=1 n=g5 v=0
53254 On ch=1 n=e5 v=0
53254 On ch=1 n=g4 v=0
53254 On ch=1 n=a#5 v=0
53254 On ch=1 n=c#6 v=0
53254 On ch=1 n=a#6 v=0
53254 On ch=1 n=f5 v=0
53255 Tempo 1875000
53256 Tempo 1428571
53256 On ch=1 n=f7 v=64
53256 On ch=1 n=f8 v=64
53256 On ch=1 n=f3 v=64
53256 On ch=1 n=f2 v=64
53256 On ch=1 n=f7 v=64
53256 On ch=1 n=f8 v=64
53256 On ch=1 n=f3 v=64
53256 On ch=1 n=f2 v=64
53374 On ch=1 n=f2 v=0
53374 On ch=1 n=f3 v=0
53374 On ch=1 n=f8 v=0
53374 On ch=1 n=f7 v=0
53374 On ch=1 n=f2 v=0
53374 On ch=1 n=f3 v=0
53374 On ch=1 n=f8 v=0
53374 On ch=1 n=f7 v=0
53376 Par ch=1 c=64 v=0
53488 Par ch=1 c=64 v=96
53496 On ch=1 n=a5 v=64
53496 On ch=1 n=b4 v=64
53496 On ch=1 n=b4 v=64
53534 On ch=1 n=a5 v=0
53536 On ch=1 n=c6 v=64
53536 On ch=1 n=f5 v=64
53574 On ch=1 n=f5 v=0
53574 On ch=1 n=c6 v=0
53576 On ch=1 n=a5 v=64
53576 On ch=1 n=b4 v=64
53614 On ch=1 n=a5 v=0
53614 On ch=1 n=b4 v=0
53616 On ch=1 n=c6 v=64
53616 On ch=1 n=f5 v=64
53654 On ch=1 n=f5 v=0
53654 On ch=1 n=c6 v=0
53656 On ch=1 n=a5 v=64
53656 On ch=1 n=b4 v=64
53694 On ch=1 n=a5 v=0
53694 On ch=1 n=b4 v=0
53696 On ch=1 n=c6 v=64
53696 On ch=1 n=f5 v=64
53734 On ch=1 n=f5 v=0
53734 On ch=1 n=c6 v=0
53734 On ch=1 n=b4 v=0
53734 On ch=1 n=b4 v=0
53736 Par ch=1 c=7 v=120
53736 On ch=1 n=a5 v=64
53736 On ch=1 n=c5 v=64
53736 On ch=1 n=c5 v=64
53755 Par ch=1 c=7 v=119
53774 On ch=1 n=a5 v=0
53774 Par ch=1 c=7 v=118
53776 On ch=1 n=c6 v=64
53776 On ch=1 n=f5 v=64
53793 Par ch=1 c=7 v=117
53812 Par ch=1 c=7 v=116
53814 On ch=1 n=f5 v=0
53814 On ch=1 n=c6 v=0
53816 On ch=1 n=a5 v=64
53816 On ch=1 n=c5 v=64
53831 Par ch=1 c=7 v=115
53851 Par ch=1 c=7 v=114
53854 On ch=1 n=a5 v=0
53854 On ch=1 n=c5 v=0
53856 On ch=1 n=c6 v=64
53856 On ch=1 n=f5 v=64
53870 Par ch=1 c=7 v=113
53889 Par ch=1 c=7 v=112
53894 On ch=1 n=f5 v=0
53894 On ch=1 n=c6 v=0
53896 On ch=1 n=a5 v=64
53896 On ch=1 n=c5 v=64
53908 Par ch=1 c=7 v=111
53927 Par ch=1 c=7 v=110
53934 On ch=1 n=a5 v=0
53934 On ch=1 n=c5 v=0
53936 On ch=1 n=c6 v=64
53936 On ch=1 n=f5 v=64
53946 Par ch=1 c=7 v=109
53966 Par ch=1 c=7 v=108
53974 On ch=1 n=f5 v=0
53974 On ch=1 n=c6 v=0
53974 On ch=1 n=c5 v=0
53974 On ch=1 n=c5 v=0
53976 On ch=1 n=a5 v=64
53976 On ch=1 n=c#5 v=64
53976 On ch=1 n=c#5 v=64
53985 Par ch=1 c=7 v=107
54004 Par ch=1 c=7 v=106
54014 On ch=1 n=a5 v=0
54016 On ch=1 n=c6 v=64
54016 On ch=1 n=f5 v=64
54023 Par ch=1 c=7 v=105
54042 Par ch=1 c=7 v=104
54054 On ch=1 n=f5 v=0
54054 On ch=1 n=c6 v=0
54056 On ch=1 n=a5 v=64
54056 On ch=1 n=c#5 v=64
54062 Par ch=1 c=7 v=103
54081 Par ch=1 c=7 v=102
54091 On ch=1 n=a5 v=0
54091 On ch=1 n=c#5 v=0
54093 On ch=1 n=c6 v=64
54093 On ch=1 n=f5 v=64
54097 Par ch=1 c=7 v=101
54116 Par ch=1 c=7 v=100
54131 On ch=1 n=f5 v=0
54131 On ch=1 n=c6 v=0
54133 On ch=1 n=a5 v=64
54133 On ch=1 n=c#5 v=64
54135 Par ch=1 c=7 v=99
54154 Par ch=1 c=7 v=98
54171 On ch=1 n=a5 v=0
54171 On ch=1 n=c#5 v=0
54173 On ch=1 n=c6 v=64
54173 On ch=1 n=f5 v=64
54174 Par ch=1 c=7 v=97
54193 Par ch=1 c=7 v=96
54211 On ch=1 n=f5 v=0
54211 On ch=1 n=c6 v=0
54211 On ch=1 n=c#5 v=0
54211 On ch=1 n=c#5 v=0
54212 Par ch=1 c=7 v=95
54213 On ch=1 n=a5 v=64
54213 On ch=1 n=c5 v=64
54213 On ch=1 n=c5 v=64
54231 Par ch=1 c=7 v=94
54250 Par ch=1 c=7 v=93
54251 On ch=1 n=a5 v=0
54253 On ch=1 n=c6 v=64
54253 On ch=1 n=f5 v=64
54270 Par ch=1 c=7 v=92
54289 Par ch=1 c=7 v=91
54291 On ch=1 n=f5 v=0
54291 On ch=1 n=c6 v=0
54293 On ch=1 n=a5 v=64
54293 On ch=1 n=c5 v=64
54308 Par ch=1 c=7 v=90
54327 Par ch=1 c=7 v=89
54331 On ch=1 n=a5 v=0
54331 On ch=1 n=c5 v=0
54333 On ch=1 n=c6 v=64
54333 On ch=1 n=f5 v=64
54343 Par ch=1 c=7 v=88
54362 Par ch=1 c=7 v=87
54368 On ch=1 n=f5 v=0
54368 On ch=1 n=c6 v=0
54370 On ch=1 n=a5 v=64
54370 On ch=1 n=c5 v=64
54382 Par ch=1 c=7 v=86
54401 Par ch=1 c=7 v=85
54408 On ch=1 n=a5 v=0
54408 On ch=1 n=c5 v=0
54410 On ch=1 n=c6 v=64
54410 On ch=1 n=f5 v=64
54410 Par ch=1 c=64 v=0
54420 Par ch=1 c=7 v=84
54439 Par ch=1 c=7 v=83
54442 Par ch=1 c=64 v=96
54448 On ch=1 n=f5 v=0
54448 On ch=1 n=c6 v=0
54448 On ch=1 n=c5 v=0
54448 On ch=1 n=c5 v=0
54450 On ch=1 n=a4 v=64
54450 On ch=1 n=a6 v=64
54450 On ch=1 n=a4 v=64
54450 On ch=1 n=a6 v=64
54458 Par ch=1 c=7 v=82
54478 Par ch=1 c=7 v=81
54490 On ch=1 n=a5 v=64
54490 On ch=1 n=f5 v=64
54497 Par ch=1 c=7 v=80
54516 Par ch=1 c=7 v=79
54528 On ch=1 n=f5 v=0
54528 On ch=1 n=a5 v=0
54530 On ch=1 n=c6 v=64
54530 On ch=1 n=c5 v=64
54535 Par ch=1 c=7 v=78
54554 Par ch=1 c=7 v=77
54568 On ch=1 n=c5 v=0
54568 On ch=1 n=c6 v=0
54570 On ch=1 n=a5 v=64
54570 On ch=1 n=f5 v=64
54573 Par ch=1 c=7 v=76
54593 Par ch=1 c=7 v=75
54608 On ch=1 n=f5 v=0
54608 On ch=1 n=a5 v=0
54610 On ch=1 n=c6 v=64
54610 On ch=1 n=c5 v=64
54612 Par ch=1 c=7 v=74
54631 Par ch=1 c=7 v=73
54648 On ch=1 n=c5 v=0
54648 On ch=1 n=c6 v=0
54650 Par ch=1 c=7 v=72
54650 On ch=1 n=a5 v=64
54650 On ch=1 n=f5 v=64
54650 Par ch=1 c=64 v=0
54669 Par ch=1 c=7 v=71
54679 Par ch=1 c=64 v=96
54685 On ch=1 n=f5 v=0
54685 On ch=1 n=a5 v=0
54685 On ch=1 n=a6 v=0
54685 On ch=1 n=a4 v=0
54685 On ch=1 n=a6 v=0
54685 On ch=1 n=a4 v=0
54686 Par ch=1 c=7 v=70
54687 On ch=1 n=a6 v=64
54687 On ch=1 n=f4 v=64
54687 On ch=1 n=a6 v=64
54687 On ch=1 n=f4 v=64
54727 On ch=1 n=c#6 v=64
54765 On ch=1 n=c#6 v=0
54767 On ch=1 n=a#5 v=64
54805 On ch=1 n=a#5 v=0
54805 On ch=1 n=f4 v=0
54805 On ch=1 n=f4 v=0
54807 On ch=1 n=c#6 v=64
54845 On ch=1 n=c#6 v=0
54847 On ch=1 n=a#5 v=64
54865 On ch=1 n=a6 v=0
54865 On ch=1 n=a6 v=0
54885 On ch=1 n=a#5 v=0
54887 On ch=1 n=c#6 v=64
54887 Par ch=1 c=64 v=0
54919 Par ch=1 c=64 v=96
54925 On ch=1 n=c#6 v=0
54927 Par ch=1 c=7 v=70
54927 On ch=1 n=c#5 v=64
54927 On ch=1 n=a#5 v=64
54927 On ch=1 n=f#6 v=64
54927 On ch=1 n=f#6 v=64
54959 On ch=1 n=c#5 v=0
54961 On ch=1 n=d5 v=64
54965 On ch=1 n=a#5 v=0
54967 On ch=1 n=c#6 v=64
54974 Par ch=1 c=7 v=71
54994 On ch=1 n=d5 v=0
54996 On ch=1 n=d#5 v=64
55005 On ch=1 n=c#6 v=0
55007 On ch=1 n=a#5 v=64
55022 Par ch=1 c=7 v=72
55028 On ch=1 n=d#5 v=0
55030 On ch=1 n=e5 v=64
55045 On ch=1 n=a#5 v=0
55047 On ch=1 n=c#6 v=64
55062 On ch=1 n=e5 v=0
55064 On ch=1 n=f5 v=64
55070 Par ch=1 c=7 v=73
55085 On ch=1 n=c#6 v=0
55087 On ch=1 n=a#5 v=64
55096 On ch=1 n=f5 v=0
55098 On ch=1 n=f#5 v=64
55105 On ch=1 n=f#6 v=0
55105 On ch=1 n=f#6 v=0
55115 Par ch=1 c=7 v=74
55122 On ch=1 n=a#5 v=0
55124 On ch=1 n=c#6 v=64
55128 On ch=1 n=f#5 v=0
55130 On ch=1 n=g5 v=64
55162 On ch=1 n=g5 v=0
55162 On ch=1 n=c#6 v=0
55163 Par ch=1 c=7 v=75
55164 On ch=1 n=a5 v=64
55164 On ch=1 n=a#5 v=64
55164 On ch=1 n=g6 v=64
55164 On ch=1 n=g6 v=64
55192 On ch=1 n=a5 v=0
55194 On ch=1 n=g5 v=64
55202 On ch=1 n=a#5 v=0
55204 On ch=1 n=c#6 v=64
55222 On ch=1 n=g5 v=0
55224 On ch=1 n=f#5 v=64
55242 On ch=1 n=c#6 v=0
55244 On ch=1 n=a#5 v=64
55252 On ch=1 n=f#5 v=0
55254 On ch=1 n=f5 v=64
55282 On ch=1 n=f5 v=0
55282 On ch=1 n=a#5 v=0
55284 On ch=1 n=e5 v=64
55284 On ch=1 n=c#6 v=64
55312 On ch=1 n=e5 v=0
55314 On ch=1 n=d#5 v=64
55322 On ch=1 n=c#6 v=0
55324 On ch=1 n=a#5 v=64
55342 On ch=1 n=d#5 v=0
55342 On ch=1 n=g6 v=0
55342 On ch=1 n=g6 v=0
55344 On ch=1 n=d5 v=64
55362 On ch=1 n=a#5 v=0
55364 On ch=1 n=c#6 v=64
55372 On ch=1 n=d5 v=0
55374 On ch=1 n=c#5 v=64
55402 On ch=1 n=c#5 v=0
55402 On ch=1 n=c#6 v=0
55404 On ch=1 n=a#4 v=64
55404 On ch=1 n=a6 v=64
55404 On ch=1 n=a#4 v=64
55404 On ch=1 n=a6 v=64
55444 On ch=1 n=c#6 v=64
55482 On ch=1 n=c#6 v=0
55484 On ch=1 n=a#5 v=64
55522 On ch=1 n=a#5 v=0
55522 On ch=1 n=a#4 v=0
55522 On ch=1 n=a#4 v=0
55524 On ch=1 n=c#6 v=64
55562 On ch=1 n=c#6 v=0
55564 On ch=1 n=a#5 v=64
55582 On ch=1 n=a6 v=0
55582 On ch=1 n=a6 v=0
55602 On ch=1 n=a#5 v=0
55604 On ch=1 n=c#6 v=64
55604 Par ch=1 c=64 v=0
55636 Par ch=1 c=64 v=96
55642 On ch=1 n=c#6 v=0
55644 Par ch=1 c=7 v=70
55644 On ch=1 n=c#5 v=64
55644 On ch=1 n=a#5 v=64
55644 On ch=1 n=g6 v=64
55644 On ch=1 n=g6 v=64
55676 On ch=1 n=c#5 v=0
55678 On ch=1 n=d5 v=64
55682 On ch=1 n=a#5 v=0
55684 On ch=1 n=c#6 v=64
55691 Par ch=1 c=7 v=71
55711 On ch=1 n=d5 v=0
55713 On ch=1 n=d#5 v=64
55722 On ch=1 n=c#6 v=0
55724 On ch=1 n=a#5 v=64
55739 Par ch=1 c=7 v=72
55745 On ch=1 n=d#5 v=0
55747 On ch=1 n=e5 v=64
55762 On ch=1 n=a#5 v=0
55764 On ch=1 n=c#6 v=64
55779 On ch=1 n=e5 v=0
55781 On ch=1 n=f5 v=64
55787 Par ch=1 c=7 v=73
55802 On ch=1 n=c#6 v=0
55804 On ch=1 n=a#5 v=64
55813 On ch=1 n=f5 v=0
55815 On ch=1 n=f#5 v=64
55822 On ch=1 n=g6 v=0
55822 On ch=1 n=g6 v=0
55832 Par ch=1 c=7 v=74
55839 On ch=1 n=a#5 v=0
55841 On ch=1 n=c#6 v=64
55845 On ch=1 n=f#5 v=0
55847 On ch=1 n=g5 v=64
55879 On ch=1 n=g5 v=0
55879 On ch=1 n=c#6 v=0
55880 Par ch=1 c=7 v=75
55881 On ch=1 n=a5 v=64
55881 On ch=1 n=a#5 v=64
55881 On ch=1 n=f6 v=64
55881 On ch=1 n=f6 v=64
55909 On ch=1 n=a5 v=0
55911 On ch=1 n=g5 v=64
55919 On ch=1 n=a#5 v=0
55921 On ch=1 n=c#6 v=64
55939 On ch=1 n=g5 v=0
55941 On ch=1 n=f#5 v=64
55959 On ch=1 n=c#6 v=0
55961 On ch=1 n=a#5 v=64
55969 On ch=1 n=f#5 v=0
55971 On ch=1 n=f5 v=64
55999 On ch=1 n=f5 v=0
55999 On ch=1 n=a#5 v=0
56001 On ch=1 n=e5 v=64
56001 On ch=1 n=c#6 v=64
56029 On ch=1 n=e5 v=0
56031 On ch=1 n=d#5 v=64
56039 On ch=1 n=c#6 v=0
56041 On ch=1 n=a#5 v=64
56059 On ch=1 n=d#5 v=0
56059 On ch=1 n=f6 v=0
56059 On ch=1 n=f6 v=0
56061 On ch=1 n=d5 v=64
56079 On ch=1 n=a#5 v=0
56081 On ch=1 n=c#6 v=64
56081 Par ch=1 c=64 v=0
56089 On ch=1 n=d5 v=0
56091 On ch=1 n=c#5 v=64
56113 Par ch=1 c=64 v=96
56119 On ch=1 n=c#5 v=0
56119 On ch=1 n=c#6 v=0
56121 On ch=1 n=f4 v=64
56121 On ch=1 n=c7 v=64
56121 On ch=1 n=f4 v=64
56121 On ch=1 n=c7 v=64
56169 On ch=1 n=f5 v=64
56169 On ch=1 n=a5 v=64
56215 On ch=1 n=a5 v=0
56215 On ch=1 n=f5 v=0
56217 On ch=1 n=c5 v=64
56217 On ch=1 n=a4 v=64
56217 On ch=1 n=c6 v=64
56263 On ch=1 n=c6 v=0
56263 On ch=1 n=a4 v=0
56263 On ch=1 n=c5 v=0
56265 On ch=1 n=f5 v=64
56265 On ch=1 n=a5 v=64
56299 On ch=1 n=f4 v=0
56299 On ch=1 n=f4 v=0
56311 On ch=1 n=a5 v=0
56311 On ch=1 n=f5 v=0
56313 On ch=1 n=c5 v=64
56313 On ch=1 n=a4 v=64
56313 On ch=1 n=c6 v=64
56359 On ch=1 n=c6 v=0
56359 On ch=1 n=a4 v=0
56359 On ch=1 n=c5 v=0
56361 Par ch=1 c=7 v=70
56361 On ch=1 n=a5 v=64
56361 On ch=1 n=e4 v=64
56361 On ch=1 n=e4 v=64
56399 On ch=1 n=a5 v=0
56401 On ch=1 n=f5 v=64
56401 On ch=1 n=c6 v=64
56439 On ch=1 n=c6 v=0
56439 On ch=1 n=f5 v=0
56441 On ch=1 n=c5 v=64
56441 On ch=1 n=a4 v=64
56441 On ch=1 n=a5 v=64
56456 Par ch=1 c=7 v=71
56479 On ch=1 n=a5 v=0
56479 On ch=1 n=a4 v=0
56479 On ch=1 n=c5 v=0
56481 On ch=1 n=f5 v=64
56481 On ch=1 n=c6 v=64
56519 On ch=1 n=c6 v=0
56519 On ch=1 n=f5 v=0
56521 On ch=1 n=c5 v=64
56521 On ch=1 n=a4 v=64
56521 On ch=1 n=a5 v=64
56539 On ch=1 n=e4 v=0
56539 On ch=1 n=e4 v=0
56549 Par ch=1 c=7 v=72
56556 On ch=1 n=a5 v=0
56556 On ch=1 n=a4 v=0
56556 On ch=1 n=c5 v=0
56558 On ch=1 n=f5 v=64
56558 On ch=1 n=c6 v=64
56596 On ch=1 n=c6 v=0
56596 On ch=1 n=f5 v=0
56596 On ch=1 n=c7 v=0
56596 On ch=1 n=c7 v=0
56598 On ch=1 n=a5 v=64
56598 On ch=1 n=f4 v=64
56598 On ch=1 n=f4 v=64
56636 On ch=1 n=a5 v=0
56638 On ch=1 n=f5 v=64
56638 On ch=1 n=c6 v=64
56645 Par ch=1 c=7 v=73
56676 On ch=1 n=c6 v=0
56676 On ch=1 n=f5 v=0
56678 On ch=1 n=c5 v=64
56678 On ch=1 n=a4 v=64
56678 On ch=1 n=a5 v=64
56716 On ch=1 n=a5 v=0
56716 On ch=1 n=a4 v=0
56716 On ch=1 n=c5 v=0
56718 On ch=1 n=f5 v=64
56718 On ch=1 n=c6 v=64
56741 Par ch=1 c=7 v=74
56756 On ch=1 n=c6 v=0
56756 On ch=1 n=f5 v=0
56758 On ch=1 n=c5 v=64
56758 On ch=1 n=a4 v=64
56758 On ch=1 n=a5 v=64
56776 On ch=1 n=f4 v=0
56776 On ch=1 n=f4 v=0
56796 On ch=1 n=a5 v=0
56796 On ch=1 n=a4 v=0
56796 On ch=1 n=c5 v=0
56798 On ch=1 n=f5 v=64
56798 On ch=1 n=c6 v=64
56836 On ch=1 n=c6 v=0
56836 On ch=1 n=f5 v=0
56837 Par ch=1 c=7 v=75
56838 On ch=1 n=a5 v=64
56838 On ch=1 n=f#4 v=64
56838 On ch=1 n=f#4 v=64
56876 On ch=1 n=a5 v=0
56878 On ch=1 n=f5 v=64
56878 On ch=1 n=c6 v=64
56916 On ch=1 n=c6 v=0
56916 On ch=1 n=f5 v=0
56918 On ch=1 n=c5 v=64
56918 On ch=1 n=a4 v=64
56918 On ch=1 n=a5 v=64
56956 On ch=1 n=a5 v=0
56956 On ch=1 n=a4 v=0
56956 On ch=1 n=c5 v=0
56958 On ch=1 n=f5 v=64
56958 On ch=1 n=c6 v=64
56996 On ch=1 n=c6 v=0
56996 On ch=1 n=f5 v=0
56998 On ch=1 n=c5 v=64
56998 On ch=1 n=a4 v=64
56998 On ch=1 n=a5 v=64
57016 On ch=1 n=f#4 v=0
57016 On ch=1 n=f#4 v=0
57036 On ch=1 n=a5 v=0
57036 On ch=1 n=a4 v=0
57036 On ch=1 n=c5 v=0
57038 On ch=1 n=f5 v=64
57038 On ch=1 n=c6 v=64
57076 On ch=1 n=c6 v=0
57076 On ch=1 n=f5 v=0
57078 On ch=1 n=a5 v=64
57078 On ch=1 n=f4 v=64
57078 On ch=1 n=f4 v=64
57116 On ch=1 n=a5 v=0
57118 On ch=1 n=f5 v=64
57118 On ch=1 n=c6 v=64
57156 On ch=1 n=c6 v=0
57156 On ch=1 n=f5 v=0
57158 On ch=1 n=c5 v=64
57158 On ch=1 n=a4 v=64
57158 On ch=1 n=a5 v=64
57196 On ch=1 n=a5 v=0
57196 On ch=1 n=a4 v=0
57196 On ch=1 n=c5 v=0
57198 On ch=1 n=f5 v=64
57198 On ch=1 n=c6 v=64
57236 On ch=1 n=c6 v=0
57236 On ch=1 n=f5 v=0
57238 On ch=1 n=c5 v=64
57238 On ch=1 n=a4 v=64
57238 On ch=1 n=a5 v=64
57256 On ch=1 n=f4 v=0
57256 On ch=1 n=f4 v=0
57276 On ch=1 n=a5 v=0
57276 On ch=1 n=a4 v=0
57276 On ch=1 n=c5 v=0
57278 On ch=1 n=f5 v=64
57278 On ch=1 n=c6 v=64
57278 Par ch=1 c=64 v=0
57310 Par ch=1 c=64 v=96
57316 On ch=1 n=c6 v=0
57316 On ch=1 n=f5 v=0
57318 On ch=1 n=c4 v=64
57318 On ch=1 n=a6 v=64
57318 On ch=1 n=c4 v=64
57318 On ch=1 n=a6 v=64
57366 On ch=1 n=f5 v=64
57366 On ch=1 n=a5 v=64
57412 On ch=1 n=a5 v=0
57412 On ch=1 n=f5 v=0
57414 On ch=1 n=c5 v=64
57414 On ch=1 n=a4 v=64
57414 On ch=1 n=c6 v=64
57460 On ch=1 n=c6 v=0
57460 On ch=1 n=a4 v=0
57460 On ch=1 n=c5 v=0
57462 On ch=1 n=f5 v=64
57462 On ch=1 n=a5 v=64
57496 On ch=1 n=c4 v=0
57496 On ch=1 n=c4 v=0
57508 On ch=1 n=a5 v=0
57508 On ch=1 n=f5 v=0
57510 On ch=1 n=c5 v=64
57510 On ch=1 n=a4 v=64
57510 On ch=1 n=c6 v=64
57526 Par ch=1 c=64 v=0
57550 Par ch=1 c=64 v=96
57556 On ch=1 n=c6 v=0
57556 On ch=1 n=a4 v=0
57556 On ch=1 n=c5 v=0
57556 On ch=1 n=a6 v=0
57556 On ch=1 n=a6 v=0
57558 On ch=1 n=a#3 v=64
57558 On ch=1 n=a#3 v=64
57558 On ch=1 n=a6 v=64
57558 On ch=1 n=a6 v=64
57606 On ch=1 n=a5 v=64
57652 On ch=1 n=a5 v=0
57654 On ch=1 n=c#6 v=64
57654 On ch=1 n=a#5 v=64
57676 On ch=1 n=a#3 v=0
57676 On ch=1 n=a#3 v=0
57700 On ch=1 n=a#5 v=0
57700 On ch=1 n=c#6 v=0
57702 On ch=1 n=a5 v=64
57736 On ch=1 n=a6 v=0
57736 On ch=1 n=a6 v=0
57748 On ch=1 n=a5 v=0
57750 On ch=1 n=c#6 v=64
57750 On ch=1 n=a#5 v=64
57758 Par ch=1 c=64 v=0
57790 Par ch=1 c=64 v=96
57796 On ch=1 n=a#5 v=0
57796 On ch=1 n=c#6 v=0
57798 Par ch=1 c=7 v=70
57798 On ch=1 n=a4 v=64
57798 On ch=1 n=f#6 v=64
57798 On ch=1 n=f#6 v=64
57826 On ch=1 n=a4 v=0
57828 On ch=1 n=a#4 v=64
57845 Par ch=1 c=7 v=71
57846 On ch=1 n=f#5 v=64
57856 On ch=1 n=a#4 v=0
57858 On ch=1 n=b4 v=64
57886 On ch=1 n=b4 v=0
57888 On ch=1 n=c5 v=64
57892 On ch=1 n=f#5 v=0
57893 Par ch=1 c=7 v=72
57894 On ch=1 n=c#6 v=64
57894 On ch=1 n=a#5 v=64
57916 On ch=1 n=c5 v=0
57918 On ch=1 n=c#5 v=64
57940 On ch=1 n=a#5 v=0
57940 On ch=1 n=c#6 v=0
57941 Par ch=1 c=7 v=73
57942 On ch=1 n=f#5 v=64
57946 On ch=1 n=c#5 v=0
57948 On ch=1 n=d5 v=64
57976 On ch=1 n=d5 v=0
57976 On ch=1 n=f#6 v=0
57976 On ch=1 n=f#6 v=0
57978 On ch=1 n=d#5 v=64
57988 On ch=1 n=f#5 v=0
57989 Par ch=1 c=7 v=74
57990 On ch=1 n=c#6 v=64
57990 On ch=1 n=a#5 v=64
58006 On ch=1 n=d#5 v=0
58008 On ch=1 n=e5 v=64
58036 On ch=1 n=e5 v=0
58036 On ch=1 n=a#5 v=0
58036 On ch=1 n=c#6 v=0
58037 Par ch=1 c=7 v=75
58038 On ch=1 n=f5 v=64
58038 On ch=1 n=g6 v=64
58038 On ch=1 n=g6 v=64
58066 On ch=1 n=f5 v=0
58068 On ch=1 n=e5 v=64
58086 On ch=1 n=g5 v=64
58096 On ch=1 n=e5 v=0
58098 On ch=1 n=d#5 v=64
58126 On ch=1 n=d#5 v=0
58128 On ch=1 n=d5 v=64
58132 On ch=1 n=g5 v=0
58134 On ch=1 n=c#6 v=64
58134 On ch=1 n=a#5 v=64
58156 On ch=1 n=d5 v=0
58158 On ch=1 n=c#5 v=64
58180 On ch=1 n=a#5 v=0
58180 On ch=1 n=c#6 v=0
58182 On ch=1 n=g5 v=64
58186 On ch=1 n=c#5 v=0
58188 On ch=1 n=c5 v=64
58216 On ch=1 n=c5 v=0
58216 On ch=1 n=g6 v=0
58216 On ch=1 n=g6 v=0
58218 On ch=1 n=b4 v=64
58228 On ch=1 n=g5 v=0
58230 On ch=1 n=c#6 v=64
58230 On ch=1 n=a#5 v=64
58246 On ch=1 n=b4 v=0
58248 On ch=1 n=a#4 v=64
58276 On ch=1 n=a#4 v=0
58276 On ch=1 n=a#5 v=0
58276 On ch=1 n=c#6 v=0
58278 On ch=1 n=c#4 v=64
58278 On ch=1 n=c#4 v=64
58278 On ch=1 n=a6 v=64
58278 On ch=1 n=a6 v=64
58326 On ch=1 n=a5 v=64
58372 On ch=1 n=a5 v=0
58374 On ch=1 n=c#6 v=64
58374 On ch=1 n=a#5 v=64
58396 On ch=1 n=c#4 v=0
58396 On ch=1 n=c#4 v=0
58420 On ch=1 n=a#5 v=0
58420 On ch=1 n=c#6 v=0
58422 On ch=1 n=a5 v=64
58456 On ch=1 n=a6 v=0
58456 On ch=1 n=a6 v=0
58468 On ch=1 n=a5 v=0
58470 On ch=1 n=c#6 v=64
58470 On ch=1 n=a#5 v=64
58478 Par ch=1 c=64 v=0
58510 Par ch=1 c=64 v=96
58516 On ch=1 n=a#5 v=0
58516 On ch=1 n=c#6 v=0
58518 Par ch=1 c=7 v=70
58518 On ch=1 n=a4 v=64
58518 On ch=1 n=g6 v=64
58518 On ch=1 n=g6 v=64
58546 On ch=1 n=a4 v=0
58548 On ch=1 n=a#4 v=64
58565 Par ch=1 c=7 v=71
58566 On ch=1 n=g5 v=64
58576 On ch=1 n=a#4 v=0
58578 On ch=1 n=b4 v=64
58606 On ch=1 n=b4 v=0
58608 On ch=1 n=c5 v=64
58612 On ch=1 n=g5 v=0
58613 Par ch=1 c=7 v=72
58614 On ch=1 n=c#6 v=64
58614 On ch=1 n=a#5 v=64
58636 On ch=1 n=c5 v=0
58638 On ch=1 n=c#5 v=64
58660 On ch=1 n=a#5 v=0
58660 On ch=1 n=c#6 v=0
58661 Par ch=1 c=7 v=73
58662 On ch=1 n=g5 v=64
58666 On ch=1 n=c#5 v=0
58668 On ch=1 n=d5 v=64
58696 On ch=1 n=d5 v=0
58696 On ch=1 n=g6 v=0
58696 On ch=1 n=g6 v=0
58698 On ch=1 n=d#5 v=64
58708 On ch=1 n=g5 v=0
58709 Par ch=1 c=7 v=74
58710 On ch=1 n=c#6 v=64
58710 On ch=1 n=a#5 v=64
58726 On ch=1 n=d#5 v=0
58728 On ch=1 n=e5 v=64
58756 On ch=1 n=e5 v=0
58756 On ch=1 n=a#5 v=0
58756 On ch=1 n=c#6 v=0
58757 Par ch=1 c=7 v=75
58758 On ch=1 n=f5 v=64
58758 On ch=1 n=f6 v=64
58758 On ch=1 n=f6 v=64
58786 On ch=1 n=f5 v=0
58788 On ch=1 n=e5 v=64
58806 On ch=1 n=g5 v=64
58816 On ch=1 n=e5 v=0
58818 On ch=1 n=d#5 v=64
58846 On ch=1 n=d#5 v=0
58848 On ch=1 n=d5 v=64
58852 On ch=1 n=g5 v=0
58854 On ch=1 n=c#6 v=64
58854 On ch=1 n=a#5 v=64
58876 On ch=1 n=d5 v=0
58878 On ch=1 n=c#5 v=64
58900 On ch=1 n=a#5 v=0
58900 On ch=1 n=c#6 v=0
58902 On ch=1 n=g5 v=64
58906 On ch=1 n=c#5 v=0
58908 On ch=1 n=c5 v=64
58936 On ch=1 n=c5 v=0
58936 On ch=1 n=f6 v=0
58936 On ch=1 n=f6 v=0
58938 On ch=1 n=b4 v=64
58948 On ch=1 n=g5 v=0
58950 On ch=1 n=c#6 v=64
58950 On ch=1 n=a#5 v=64
58958 Par ch=1 c=64 v=0
58966 On ch=1 n=b4 v=0
58968 On ch=1 n=a#4 v=64
58990 Par ch=1 c=64 v=96
58996 On ch=1 n=a#4 v=0
58996 On ch=1 n=a#5 v=0
58996 On ch=1 n=c#6 v=0
58998 On ch=1 n=a5 v=64
58998 On ch=1 n=f3 v=64
58998 On ch=1 n=c6 v=64
58998 On ch=1 n=f3 v=64
58998 On ch=1 n=c6 v=64
59044 On ch=1 n=a5 v=0
59046 On ch=1 n=a4 v=64
59046 On ch=1 n=c5 v=64
59092 On ch=1 n=c5 v=0
59092 On ch=1 n=a4 v=0
59094 On ch=1 n=f4 v=64
59094 On ch=1 n=f5 v=64
59140 On ch=1 n=f5 v=0
59140 On ch=1 n=f4 v=0
59142 On ch=1 n=a4 v=64
59142 On ch=1 n=c5 v=64
59188 On ch=1 n=c5 v=0
59188 On ch=1 n=a4 v=0
59190 On ch=1 n=f4 v=64
59190 On ch=1 n=f5 v=64
59236 On ch=1 n=f5 v=0
59236 On ch=1 n=f4 v=0
59236 On ch=1 n=f3 v=0
59236 On ch=1 n=f3 v=0
59238 Par ch=1 c=7 v=70
59238 On ch=1 n=c5 v=64
59238 On ch=1 n=b3 v=64
59238 On ch=1 n=b3 v=64
59276 On ch=1 n=c5 v=0
59278 On ch=1 n=f5 v=64
59286 On ch=1 n=a4 v=64
59316 On ch=1 n=f5 v=0
59318 On ch=1 n=c5 v=64
59332 On ch=1 n=a4 v=0
59333 Par ch=1 c=7 v=71
59334 On ch=1 n=f4 v=64
59356 On ch=1 n=c5 v=0
59358 On ch=1 n=f5 v=64
59380 On ch=1 n=f4 v=0
59382 On ch=1 n=a4 v=64
59396 On ch=1 n=f5 v=0
59398 On ch=1 n=c5 v=64
59416 On ch=1 n=b3 v=0
59416 On ch=1 n=b3 v=0
59428 On ch=1 n=a4 v=0
59429 Par ch=1 c=7 v=72
59430 On ch=1 n=f4 v=64
59436 On ch=1 n=c5 v=0
59438 On ch=1 n=f5 v=64
59476 On ch=1 n=f5 v=0
59476 On ch=1 n=f4 v=0
59476 On ch=1 n=c6 v=0
59476 On ch=1 n=c6 v=0
59478 On ch=1 n=c5 v=64
59478 On ch=1 n=c4 v=64
59478 On ch=1 n=c4 v=64
59516 On ch=1 n=c5 v=0
59518 On ch=1 n=f5 v=64
59525 Par ch=1 c=7 v=73
59526 On ch=1 n=a4 v=64
59556 On ch=1 n=f5 v=0
59558 On ch=1 n=c5 v=64
59572 On ch=1 n=a4 v=0
59574 On ch=1 n=f4 v=64
59596 On ch=1 n=c5 v=0
59598 On ch=1 n=f5 v=64
59620 On ch=1 n=f4 v=0
59621 Par ch=1 c=7 v=74
59622 On ch=1 n=a4 v=64
59636 On ch=1 n=f5 v=0
59638 On ch=1 n=c5 v=64
59656 On ch=1 n=c4 v=0
59656 On ch=1 n=c4 v=0
59668 On ch=1 n=a4 v=0
59670 On ch=1 n=f4 v=64
59676 On ch=1 n=c5 v=0
59678 On ch=1 n=f5 v=64
59716 On ch=1 n=f5 v=0
59716 On ch=1 n=f4 v=0
59717 Par ch=1 c=7 v=75
59718 On ch=1 n=c5 v=64
59718 On ch=1 n=c#4 v=64
59718 On ch=1 n=c#4 v=64
59756 On ch=1 n=c5 v=0
59758 On ch=1 n=f5 v=64
59766 On ch=1 n=a4 v=64
59796 On ch=1 n=f5 v=0
59798 On ch=1 n=c5 v=64
59812 On ch=1 n=a4 v=0
59814 On ch=1 n=f4 v=64
59836 On ch=1 n=c5 v=0
59838 On ch=1 n=f5 v=64
59860 On ch=1 n=f4 v=0
59862 On ch=1 n=a4 v=64
59876 On ch=1 n=f5 v=0
59878 On ch=1 n=c5 v=64
59896 On ch=1 n=c#4 v=0
59896 On ch=1 n=c#4 v=0
59908 On ch=1 n=a4 v=0
59910 On ch=1 n=f4 v=64
59916 On ch=1 n=c5 v=0
59918 On ch=1 n=f5 v=64
59956 On ch=1 n=f5 v=0
59956 On ch=1 n=f4 v=0
59958 On ch=1 n=c5 v=64
59958 On ch=1 n=c4 v=64
59958 On ch=1 n=c4 v=64
59996 On ch=1 n=c5 v=0
59998 On ch=1 n=f5 v=64
60006 On ch=1 n=a4 v=64
60036 On ch=1 n=f5 v=0
60038 On ch=1 n=c5 v=64
60052 On ch=1 n=a4 v=0
60054 On ch=1 n=f4 v=64
60076 On ch=1 n=c5 v=0
60078 On ch=1 n=f5 v=64
60100 On ch=1 n=f4 v=0
60102 On ch=1 n=a4 v=64
60116 On ch=1 n=f5 v=0
60118 On ch=1 n=c5 v=64
60136 On ch=1 n=c4 v=0
60136 On ch=1 n=c4 v=0
60148 On ch=1 n=a4 v=0
60150 On ch=1 n=f4 v=64
60156 On ch=1 n=c5 v=0
60158 On ch=1 n=f5 v=64
60158 Par ch=1 c=64 v=0
60190 Par ch=1 c=64 v=96
60196 On ch=1 n=f5 v=0
60196 On ch=1 n=f4 v=0
60198 On ch=1 n=a5 v=64
60198 On ch=1 n=a3 v=64
60198 On ch=1 n=c6 v=64
60198 On ch=1 n=a5 v=64
60198 On ch=1 n=a3 v=64
60198 On ch=1 n=c6 v=64
60244 On ch=1 n=a5 v=0
60244 On ch=1 n=a5 v=0
60246 On ch=1 n=a4 v=64
60246 On ch=1 n=c5 v=64
60292 On ch=1 n=c5 v=0
60292 On ch=1 n=a4 v=0
60294 On ch=1 n=f4 v=64
60294 On ch=1 n=f5 v=64
60340 On ch=1 n=f5 v=0
60340 On ch=1 n=f4 v=0
60342 On ch=1 n=a4 v=64
60342 On ch=1 n=c5 v=64
60376 On ch=1 n=a3 v=0
60376 On ch=1 n=a3 v=0
60388 On ch=1 n=c5 v=0
60388 On ch=1 n=a4 v=0
60390 On ch=1 n=f4 v=64
60390 On ch=1 n=f5 v=64
60398 Par ch=1 c=64 v=0
60430 Par ch=1 c=64 v=96
60436 On ch=1 n=f5 v=0
60436 On ch=1 n=f4 v=0
60436 On ch=1 n=c6 v=0
60436 On ch=1 n=c6 v=0
60438 On ch=1 n=f3 v=64
60438 On ch=1 n=c6 v=64
60438 On ch=1 n=a5 v=64
60438 On ch=1 n=f3 v=64
60438 On ch=1 n=c6 v=64
60438 On ch=1 n=a5 v=64
60484 On ch=1 n=a5 v=0
60484 On ch=1 n=a5 v=0
60486 On ch=1 n=c#5 v=64
60532 On ch=1 n=c#5 v=0
60534 On ch=1 n=f5 v=64
60580 On ch=1 n=f5 v=0
60582 On ch=1 n=c#5 v=64
60616 On ch=1 n=c6 v=0
60616 On ch=1 n=c6 v=0
60628 On ch=1 n=c#5 v=0
60630 On ch=1 n=f5 v=64
60638 Par ch=1 c=64 v=0
60670 Par ch=1 c=64 v=96
60676 On ch=1 n=f5 v=0
60676 On ch=1 n=f3 v=0
60676 On ch=1 n=f3 v=0
60678 Par ch=1 c=7 v=70
60678 On ch=1 n=c#4 v=64
60678 On ch=1 n=f#5 v=64
60678 On ch=1 n=a5 v=64
60678 On ch=1 n=f#5 v=64
60678 On ch=1 n=a5 v=64
60710 On ch=1 n=c#4 v=0
60712 On ch=1 n=d4 v=64
60724 On ch=1 n=f#5 v=0
60724 On ch=1 n=f#5 v=0
60725 Par ch=1 c=7 v=71
60726 On ch=1 n=c#5 v=64
60745 On ch=1 n=d4 v=0
60747 On ch=1 n=d#4 v=64
60772 On ch=1 n=c#5 v=0
60773 Par ch=1 c=7 v=72
60774 On ch=1 n=f5 v=64
60779 On ch=1 n=d#4 v=0
60781 On ch=1 n=e4 v=64
60813 On ch=1 n=e4 v=0
60815 On ch=1 n=f4 v=64
60820 On ch=1 n=f5 v=0
60821 Par ch=1 c=7 v=73
60822 On ch=1 n=c#5 v=64
60847 On ch=1 n=f4 v=0
60849 On ch=1 n=f#4 v=64
60856 On ch=1 n=a5 v=0
60856 On ch=1 n=a5 v=0
60868 On ch=1 n=c#5 v=0
60869 Par ch=1 c=7 v=74
60870 On ch=1 n=f5 v=64
60882 On ch=1 n=f#4 v=0
60884 On ch=1 n=g4 v=64
60916 On ch=1 n=g4 v=0
60916 On ch=1 n=f5 v=0
60917 Par ch=1 c=7 v=75
60918 On ch=1 n=a4 v=64
60918 On ch=1 n=a#5 v=64
60918 On ch=1 n=g5 v=64
60918 On ch=1 n=a#5 v=64
60918 On ch=1 n=g5 v=64
60946 On ch=1 n=a4 v=0
60948 On ch=1 n=g4 v=64
60964 On ch=1 n=g5 v=0
60964 On ch=1 n=g5 v=0
60966 On ch=1 n=c#5 v=64
60976 On ch=1 n=g4 v=0
60978 On ch=1 n=f#4 v=64
61006 On ch=1 n=f#4 v=0
61008 On ch=1 n=f4 v=64
61012 On ch=1 n=c#5 v=0
61014 On ch=1 n=f5 v=64
61036 On ch=1 n=f4 v=0
61038 On ch=1 n=e4 v=64
61060 On ch=1 n=f5 v=0
61062 On ch=1 n=c#5 v=64
61066 On ch=1 n=e4 v=0
61068 On ch=1 n=d#4 v=64
61096 On ch=1 n=d#4 v=0
61096 On ch=1 n=a#5 v=0
61096 On ch=1 n=a#5 v=0
61098 On ch=1 n=d4 v=64
61108 On ch=1 n=c#5 v=0
61110 On ch=1 n=f5 v=64
61126 On ch=1 n=d4 v=0
61128 On ch=1 n=c#4 v=64
61156 On ch=1 n=c#4 v=0
61156 On ch=1 n=f5 v=0
61158 On ch=1 n=a#3 v=64
61158 On ch=1 n=c6 v=64
61158 On ch=1 n=a5 v=64
61158 On ch=1 n=a#3 v=64
61158 On ch=1 n=c6 v=64
61158 On ch=1 n=a5 v=64
61204 On ch=1 n=a5 v=0
61204 On ch=1 n=a5 v=0
61206 On ch=1 n=c#5 v=64
61252 On ch=1 n=c#5 v=0
61254 On ch=1 n=f5 v=64
61300 On ch=1 n=f5 v=0
61302 On ch=1 n=c#5 v=64
61336 On ch=1 n=c6 v=0
61336 On ch=1 n=c6 v=0
61348 On ch=1 n=c#5 v=0
61350 On ch=1 n=f5 v=64
61358 Par ch=1 c=64 v=0
61390 Par ch=1 c=64 v=96
61396 On ch=1 n=f5 v=0
61396 On ch=1 n=a#3 v=0
61396 On ch=1 n=a#3 v=0
61398 Par ch=1 c=7 v=70
61398 On ch=1 n=c#4 v=64
61398 On ch=1 n=a#5 v=64
61398 On ch=1 n=g5 v=64
61398 On ch=1 n=a#5 v=64
61398 On ch=1 n=g5 v=64
61430 On ch=1 n=c#4 v=0
61432 On ch=1 n=d4 v=64
61444 On ch=1 n=g5 v=0
61444 On ch=1 n=g5 v=0
61445 Par ch=1 c=7 v=71
61446 On ch=1 n=c#5 v=64
61465 On ch=1 n=d4 v=0
61467 On ch=1 n=d#4 v=64
61492 On ch=1 n=c#5 v=0
61493 Par ch=1 c=7 v=72
61494 On ch=1 n=f5 v=64
61499 On ch=1 n=d#4 v=0
61501 On ch=1 n=e4 v=64
61533 On ch=1 n=e4 v=0
61535 On ch=1 n=f4 v=64
61540 On ch=1 n=f5 v=0
61541 Par ch=1 c=7 v=73
61542 On ch=1 n=c#5 v=64
61567 On ch=1 n=f4 v=0
61569 On ch=1 n=f#4 v=64
61576 On ch=1 n=a#5 v=0
61576 On ch=1 n=a#5 v=0
61588 On ch=1 n=c#5 v=0
61589 Par ch=1 c=7 v=74
61590 On ch=1 n=f5 v=64
61602 On ch=1 n=f#4 v=0
61604 On ch=1 n=g4 v=64
61636 On ch=1 n=g4 v=0
61636 On ch=1 n=f5 v=0
61637 Par ch=1 c=7 v=75
61638 On ch=1 n=a4 v=64
61638 On ch=1 n=a5 v=64
61638 On ch=1 n=a5 v=64
61666 On ch=1 n=a4 v=0
61668 On ch=1 n=g4 v=64
61686 On ch=1 n=c#5 v=64
61696 On ch=1 n=g4 v=0
61698 On ch=1 n=f#4 v=64
61726 On ch=1 n=f#4 v=0
61728 On ch=1 n=f4 v=64
61732 On ch=1 n=c#5 v=0
61734 On ch=1 n=f5 v=64
61756 On ch=1 n=f4 v=0
61758 On ch=1 n=e4 v=64
61780 On ch=1 n=f5 v=0
61782 On ch=1 n=c#5 v=64
61786 On ch=1 n=e4 v=0
61788 On ch=1 n=d#4 v=64
61816 On ch=1 n=d#4 v=0
61816 On ch=1 n=a5 v=0
61816 On ch=1 n=a5 v=0
61818 On ch=1 n=d4 v=64
61828 On ch=1 n=c#5 v=0
61830 On ch=1 n=f5 v=64
61838 Par ch=1 c=64 v=0
61846 On ch=1 n=d4 v=0
61848 On ch=1 n=c#4 v=64
61870 Par ch=1 c=64 v=96
61876 On ch=1 n=c#4 v=0
61876 On ch=1 n=f5 v=0
61878 On ch=1 n=a5 v=64
61878 On ch=1 n=f3 v=64
61878 On ch=1 n=c6 v=64
61878 On ch=1 n=f3 v=64
61878 On ch=1 n=c6 v=64
61924 On ch=1 n=a5 v=0
61926 On ch=1 n=a4 v=64
61926 On ch=1 n=c5 v=64
61972 On ch=1 n=c5 v=0
61972 On ch=1 n=a4 v=0
61974 On ch=1 n=c4 v=64
61974 On ch=1 n=f5 v=64
62020 On ch=1 n=f5 v=0
62020 On ch=1 n=c4 v=0
62022 On ch=1 n=a4 v=64
62022 On ch=1 n=c5 v=64
62056 On ch=1 n=f3 v=0
62056 On ch=1 n=f3 v=0
62068 On ch=1 n=c5 v=0
62068 On ch=1 n=a4 v=0
62070 On ch=1 n=c4 v=64
62070 On ch=1 n=f5 v=64
62116 On ch=1 n=f5 v=0
62116 On ch=1 n=c4 v=0
62118 Par ch=1 c=7 v=70
62118 On ch=1 n=c5 v=64
62118 On ch=1 n=a4 v=64
62118 On ch=1 n=e3 v=64
62118 On ch=1 n=e3 v=64
62156 On ch=1 n=a4 v=0
62156 On ch=1 n=c5 v=0
62158 On ch=1 n=f5 v=64
62166 On ch=1 n=f4 v=64
62196 On ch=1 n=f5 v=0
62198 On ch=1 n=c5 v=64
62198 On ch=1 n=a4 v=64
62212 On ch=1 n=f4 v=0
62213 Par ch=1 c=7 v=71
62214 On ch=1 n=c4 v=64
62214 On ch=1 n=a3 v=64
62236 On ch=1 n=a4 v=0
62236 On ch=1 n=c5 v=0
62238 On ch=1 n=f5 v=64
62260 On ch=1 n=a3 v=0
62260 On ch=1 n=c4 v=0
62262 On ch=1 n=f4 v=64
62276 On ch=1 n=f5 v=0
62278 On ch=1 n=c5 v=64
62278 On ch=1 n=a4 v=64
62296 On ch=1 n=e3 v=0
62296 On ch=1 n=e3 v=0
62308 On ch=1 n=f4 v=0
62309 Par ch=1 c=7 v=72
62310 On ch=1 n=c4 v=64
62310 On ch=1 n=a3 v=64
62316 On ch=1 n=a4 v=0
62316 On ch=1 n=c5 v=0
62318 On ch=1 n=f5 v=64
62356 On ch=1 n=f5 v=0
62356 On ch=1 n=a3 v=0
62356 On ch=1 n=c4 v=0
62356 On ch=1 n=c6 v=0
62356 On ch=1 n=c6 v=0
62358 On ch=1 n=c5 v=64
62358 On ch=1 n=a4 v=64
62358 On ch=1 n=f3 v=64
62358 On ch=1 n=f3 v=64
62396 On ch=1 n=a4 v=0
62396 On ch=1 n=c5 v=0
62398 On ch=1 n=f5 v=64
62405 Par ch=1 c=7 v=73
62406 On ch=1 n=f4 v=64
62436 On ch=1 n=f5 v=0
62438 On ch=1 n=c5 v=64
62438 On ch=1 n=a4 v=64
62452 On ch=1 n=f4 v=0
62454 On ch=1 n=c4 v=64
62454 On ch=1 n=a3 v=64
62476 On ch=1 n=a4 v=0
62476 On ch=1 n=c5 v=0
62478 On ch=1 n=f5 v=64
62500 On ch=1 n=a3 v=0
62500 On ch=1 n=c4 v=0
62501 Par ch=1 c=7 v=74
62502 On ch=1 n=f4 v=64
62516 On ch=1 n=f5 v=0
62518 On ch=1 n=c5 v=64
62518 On ch=1 n=a4 v=64
62536 On ch=1 n=f3 v=0
62536 On ch=1 n=f3 v=0
62548 On ch=1 n=f4 v=0
62550 On ch=1 n=c4 v=64
62550 On ch=1 n=a3 v=64
62556 On ch=1 n=a4 v=0
62556 On ch=1 n=c5 v=0
62558 On ch=1 n=f5 v=64
62596 On ch=1 n=f5 v=0
62596 On ch=1 n=a3 v=0
62596 On ch=1 n=c4 v=0
62597 Par ch=1 c=7 v=75
62598 On ch=1 n=c5 v=64
62598 On ch=1 n=a4 v=64
62598 On ch=1 n=f#3 v=64
62598 On ch=1 n=f#3 v=64
62636 On ch=1 n=a4 v=0
62636 On ch=1 n=c5 v=0
62638 On ch=1 n=f5 v=64
62646 On ch=1 n=f4 v=64
62676 On ch=1 n=f5 v=0
62678 On ch=1 n=c5 v=64
62678 On ch=1 n=a4 v=64
62692 On ch=1 n=f4 v=0
62694 On ch=1 n=c4 v=64
62694 On ch=1 n=a3 v=64
62716 On ch=1 n=a4 v=0
62716 On ch=1 n=c5 v=0
62718 On ch=1 n=f5 v=64
62740 On ch=1 n=a3 v=0
62740 On ch=1 n=c4 v=0
62742 On ch=1 n=f4 v=64
62756 On ch=1 n=f5 v=0
62758 On ch=1 n=c5 v=64
62758 On ch=1 n=a4 v=64
62776 On ch=1 n=f#3 v=0
62776 On ch=1 n=f#3 v=0
62788 On ch=1 n=f4 v=0
62790 On ch=1 n=c4 v=64
62790 On ch=1 n=a3 v=64
62796 On ch=1 n=a4 v=0
62796 On ch=1 n=c5 v=0
62798 On ch=1 n=f5 v=64
62836 On ch=1 n=f5 v=0
62836 On ch=1 n=a3 v=0
62836 On ch=1 n=c4 v=0
62838 On ch=1 n=c5 v=64
62838 On ch=1 n=a4 v=64
62838 On ch=1 n=f3 v=64
62838 On ch=1 n=f3 v=64
62876 On ch=1 n=a4 v=0
62876 On ch=1 n=c5 v=0
62878 On ch=1 n=f5 v=64
62886 On ch=1 n=f4 v=64
62916 On ch=1 n=f5 v=0
62918 On ch=1 n=c5 v=64
62918 On ch=1 n=a4 v=64
62932 On ch=1 n=f4 v=0
62934 On ch=1 n=c4 v=64
62934 On ch=1 n=a3 v=64
62956 On ch=1 n=a4 v=0
62956 On ch=1 n=c5 v=0
62958 On ch=1 n=f5 v=64
62980 On ch=1 n=a3 v=0
62980 On ch=1 n=c4 v=0
62982 On ch=1 n=f4 v=64
62996 On ch=1 n=f5 v=0
62998 On ch=1 n=c5 v=64
62998 On ch=1 n=a4 v=64
63016 On ch=1 n=f3 v=0
63016 On ch=1 n=f3 v=0
63028 On ch=1 n=f4 v=0
63030 On ch=1 n=c4 v=64
63030 On ch=1 n=a3 v=64
63036 On ch=1 n=a4 v=0
63036 On ch=1 n=c5 v=0
63038 On ch=1 n=f5 v=64
63038 Par ch=1 c=64 v=0
63070 Par ch=1 c=64 v=96
63076 On ch=1 n=f5 v=0
63076 On ch=1 n=a3 v=0
63076 On ch=1 n=c4 v=0
63078 On ch=1 n=c3 v=64
63078 On ch=1 n=a4 v=64
63078 On ch=1 n=a5 v=64
63078 On ch=1 n=c3 v=64
63078 On ch=1 n=a4 v=64
63078 On ch=1 n=a5 v=64
63126 On ch=1 n=f4 v=64
63126 On ch=1 n=c5 v=64
63172 On ch=1 n=c5 v=0
63172 On ch=1 n=f4 v=0
63174 On ch=1 n=c4 v=64
63174 On ch=1 n=a3 v=64
63174 On ch=1 n=f5 v=64
63220 On ch=1 n=f5 v=0
63220 On ch=1 n=a3 v=0
63220 On ch=1 n=c4 v=0
63222 On ch=1 n=f4 v=64
63222 On ch=1 n=c5 v=64
63256 On ch=1 n=c3 v=0
63256 On ch=1 n=c3 v=0
63268 On ch=1 n=c5 v=0
63268 On ch=1 n=f4 v=0
63270 On ch=1 n=c4 v=64
63270 On ch=1 n=a3 v=64
63270 On ch=1 n=f5 v=64
63278 Par ch=1 c=64 v=0
63310 Par ch=1 c=64 v=96
63316 On ch=1 n=f5 v=0
63316 On ch=1 n=a3 v=0
63316 On ch=1 n=c4 v=0
63316 On ch=1 n=a5 v=0
63316 On ch=1 n=a4 v=0
63316 On ch=1 n=a5 v=0
63316 On ch=1 n=a4 v=0
63318 On ch=1 n=a4 v=64
63318 On ch=1 n=a5 v=64
63318 On ch=1 n=a#2 v=64
63318 On ch=1 n=a4 v=64
63318 On ch=1 n=a5 v=64
63318 On ch=1 n=a#2 v=64
63366 On ch=1 n=c#5 v=64
63366 On ch=1 n=a#4 v=64
63412 On ch=1 n=a#4 v=0
63412 On ch=1 n=c#5 v=0
63414 On ch=1 n=e5 v=64
63460 On ch=1 n=e5 v=0
63462 On ch=1 n=c#5 v=64
63462 On ch=1 n=a#4 v=64
63508 On ch=1 n=a#4 v=0
63508 On ch=1 n=c#5 v=0
63510 On ch=1 n=e5 v=64
63518 Par ch=1 c=64 v=0
63550 Par ch=1 c=64 v=96
63556 On ch=1 n=e5 v=0
63556 On ch=1 n=a#2 v=0
63556 On ch=1 n=a5 v=0
63556 On ch=1 n=a4 v=0
63556 On ch=1 n=a#2 v=0
63556 On ch=1 n=a5 v=0
63556 On ch=1 n=a4 v=0
63558 Par ch=1 c=7 v=70
63558 On ch=1 n=a3 v=64
63558 On ch=1 n=f#4 v=64
63558 On ch=1 n=f#5 v=64
63558 On ch=1 n=f#4 v=64
63558 On ch=1 n=f#5 v=64
63586 On ch=1 n=a3 v=0
63588 On ch=1 n=a#3 v=64
63605 Par ch=1 c=7 v=71
63606 On ch=1 n=c#5 v=64
63606 On ch=1 n=a#4 v=64
63616 On ch=1 n=a#3 v=0
63618 On ch=1 n=b3 v=64
63646 On ch=1 n=b3 v=0
63648 On ch=1 n=c4 v=64
63652 On ch=1 n=a#4 v=0
63652 On ch=1 n=c#5 v=0
63653 Par ch=1 c=7 v=72
63654 On ch=1 n=e5 v=64
63676 On ch=1 n=c4 v=0
63678 On ch=1 n=c#4 v=64
63700 On ch=1 n=e5 v=0
63701 Par ch=1 c=7 v=73
63702 On ch=1 n=c#5 v=64
63702 On ch=1 n=a#4 v=64
63706 On ch=1 n=c#4 v=0
63708 On ch=1 n=d4 v=64
63736 On ch=1 n=d4 v=0
63738 On ch=1 n=d#4 v=64
63748 On ch=1 n=a#4 v=0
63748 On ch=1 n=c#5 v=0
63749 Par ch=1 c=7 v=74
63750 On ch=1 n=e5 v=64
63766 On ch=1 n=d#4 v=0
63768 On ch=1 n=e4 v=64
63796 On ch=1 n=e4 v=0
63796 On ch=1 n=e5 v=0
63796 On ch=1 n=f#5 v=0
63796 On ch=1 n=f#4 v=0
63796 On ch=1 n=f#5 v=0
63796 On ch=1 n=f#4 v=0
63797 Par ch=1 c=7 v=75
63798 On ch=1 n=f4 v=64
63798 On ch=1 n=g4 v=64
63798 On ch=1 n=g5 v=64
63798 On ch=1 n=g4 v=64
63798 On ch=1 n=g5 v=64
63826 On ch=1 n=f4 v=0
63828 On ch=1 n=e4 v=64
63846 On ch=1 n=c#5 v=64
63846 On ch=1 n=a#4 v=64
63856 On ch=1 n=e4 v=0
63858 On ch=1 n=d#4 v=64
63886 On ch=1 n=d#4 v=0
63888 On ch=1 n=d4 v=64
63892 On ch=1 n=a#4 v=0
63892 On ch=1 n=c#5 v=0
63894 On ch=1 n=e5 v=64
63916 On ch=1 n=d4 v=0
63918 On ch=1 n=c#4 v=64
63940 On ch=1 n=e5 v=0
63942 On ch=1 n=c#5 v=64
63942 On ch=1 n=a#4 v=64
63946 On ch=1 n=c#4 v=0
63948 On ch=1 n=c4 v=64
63976 On ch=1 n=c4 v=0
63978 On ch=1 n=b3 v=64
63988 On ch=1 n=a#4 v=0
63988 On ch=1 n=c#5 v=0
63990 On ch=1 n=e5 v=64
64006 On ch=1 n=b3 v=0
64008 On ch=1 n=a#3 v=64
64036 On ch=1 n=a#3 v=0
64036 On ch=1 n=e5 v=0
64036 On ch=1 n=g5 v=0
64036 On ch=1 n=g4 v=0
64036 On ch=1 n=g5 v=0
64036 On ch=1 n=g4 v=0
64038 On ch=1 n=a4 v=64
64038 On ch=1 n=a5 v=64
64038 On ch=1 n=c#3 v=64
64038 On ch=1 n=a4 v=64
64038 On ch=1 n=a5 v=64
64038 On ch=1 n=c#3 v=64
64086 On ch=1 n=c#5 v=64
64086 On ch=1 n=a#4 v=64
64132 On ch=1 n=a#4 v=0
64132 On ch=1 n=c#5 v=0
64134 On ch=1 n=e5 v=64
64180 On ch=1 n=e5 v=0
64182 On ch=1 n=c#5 v=64
64182 On ch=1 n=a#4 v=64
64228 On ch=1 n=a#4 v=0
64228 On ch=1 n=c#5 v=0
64230 On ch=1 n=e5 v=64
64238 Par ch=1 c=64 v=0
64270 Par ch=1 c=64 v=96
64276 On ch=1 n=e5 v=0
64276 On ch=1 n=c#3 v=0
64276 On ch=1 n=a5 v=0
64276 On ch=1 n=a4 v=0
64276 On ch=1 n=c#3 v=0
64276 On ch=1 n=a5 v=0
64276 On ch=1 n=a4 v=0
64278 Par ch=1 c=7 v=70
64278 On ch=1 n=a3 v=64
64278 On ch=1 n=g4 v=64
64278 On ch=1 n=g5 v=64
64278 On ch=1 n=g4 v=64
64278 On ch=1 n=g5 v=64
64306 On ch=1 n=a3 v=0
64308 On ch=1 n=a#3 v=64
64325 Par ch=1 c=7 v=71
64326 On ch=1 n=c#5 v=64
64326 On ch=1 n=a#4 v=64
64336 On ch=1 n=a#3 v=0
64338 On ch=1 n=b3 v=64
64366 On ch=1 n=b3 v=0
64368 On ch=1 n=c4 v=64
64372 On ch=1 n=a#4 v=0
64372 On ch=1 n=c#5 v=0
64373 Par ch=1 c=7 v=72
64374 On ch=1 n=e5 v=64
64396 On ch=1 n=c4 v=0
64398 On ch=1 n=c#4 v=64
64420 On ch=1 n=e5 v=0
64421 Par ch=1 c=7 v=73
64422 On ch=1 n=c#5 v=64
64422 On ch=1 n=a#4 v=64
64426 On ch=1 n=c#4 v=0
64428 On ch=1 n=d4 v=64
64456 On ch=1 n=d4 v=0
64458 On ch=1 n=d#4 v=64
64468 On ch=1 n=a#4 v=0
64468 On ch=1 n=c#5 v=0
64469 Par ch=1 c=7 v=74
64470 On ch=1 n=e5 v=64
64486 On ch=1 n=d#4 v=0
64488 On ch=1 n=e4 v=64
64516 On ch=1 n=e4 v=0
64516 On ch=1 n=e5 v=0
64516 On ch=1 n=g5 v=0
64516 On ch=1 n=g4 v=0
64516 On ch=1 n=g5 v=0
64516 On ch=1 n=g4 v=0
64517 Par ch=1 c=7 v=75
64518 On ch=1 n=f4 v=64
64518 On ch=1 n=f4 v=64
64518 On ch=1 n=f5 v=64
64518 On ch=1 n=f4 v=64
64518 On ch=1 n=f5 v=64
64546 On ch=1 n=f4 v=0
64548 On ch=1 n=e4 v=64
64566 On ch=1 n=a#4 v=64
64576 On ch=1 n=e4 v=0
64578 On ch=1 n=d#4 v=64
64606 On ch=1 n=d#4 v=0
64608 On ch=1 n=d4 v=64
64612 On ch=1 n=a#4 v=0
64614 On ch=1 n=c#5 v=64
64636 On ch=1 n=d4 v=0
64638 On ch=1 n=c#4 v=64
64660 On ch=1 n=c#5 v=0
64662 On ch=1 n=a#4 v=64
64666 On ch=1 n=c#4 v=0
64668 On ch=1 n=c4 v=64
64696 On ch=1 n=c4 v=0
64698 On ch=1 n=b3 v=64
64708 On ch=1 n=a#4 v=0
64710 On ch=1 n=c#5 v=64
64726 On ch=1 n=b3 v=0
64728 On ch=1 n=a#3 v=64
64756 On ch=1 n=a#3 v=0
64756 On ch=1 n=c#5 v=0
64756 On ch=1 n=f5 v=0
64756 On ch=1 n=f4 v=0
64756 On ch=1 n=f5 v=0
64756 On ch=1 n=f4 v=0
64758 On ch=1 n=f2 v=64
64758 On ch=1 n=a4 v=64
64758 On ch=1 n=a5 v=64
64758 On ch=1 n=f2 v=64
64758 On ch=1 n=a4 v=64
64758 On ch=1 n=a5 v=64
64806 On ch=1 n=c5 v=64
64852 On ch=1 n=c5 v=0
64854 On ch=1 n=f5 v=64
64900 On ch=1 n=f5 v=0
64902 On ch=1 n=c5 v=64
64948 On ch=1 n=c5 v=0
64950 On ch=1 n=f5 v=64
64958 Par ch=1 c=64 v=0
64990 Par ch=1 c=64 v=96
64996 On ch=1 n=f5 v=0
64996 On ch=1 n=f2 v=0
64996 On ch=1 n=f2 v=0
64998 Par ch=1 c=7 v=70
64998 On ch=1 n=e3 v=64
64998 On ch=1 n=c5 v=64
65036 On ch=1 n=c5 v=0
65036 On ch=1 n=e3 v=0
65038 On ch=1 n=f3 v=64
65038 On ch=1 n=f5 v=64
65076 On ch=1 n=f5 v=0
65076 On ch=1 n=f3 v=0
65078 On ch=1 n=f#3 v=64
65078 On ch=1 n=c5 v=64
65093 Par ch=1 c=7 v=71
65116 On ch=1 n=c5 v=0
65116 On ch=1 n=f#3 v=0
65118 On ch=1 n=g3 v=64
65118 On ch=1 n=f5 v=64
65156 On ch=1 n=f5 v=0
65156 On ch=1 n=g3 v=0
65158 On ch=1 n=g#3 v=64
65158 On ch=1 n=c5 v=64
65189 Par ch=1 c=7 v=72
65196 On ch=1 n=c5 v=0
65196 On ch=1 n=g#3 v=0
65198 On ch=1 n=a3 v=64
65198 On ch=1 n=f5 v=64
65236 On ch=1 n=f5 v=0
65236 On ch=1 n=a3 v=0
65238 On ch=1 n=a#3 v=64
65238 On ch=1 n=c5 v=64
65270 On ch=1 n=a#3 v=0
65272 On ch=1 n=b3 v=64
65276 On ch=1 n=c5 v=0
65278 On ch=1 n=f5 v=64
65285 Par ch=1 c=7 v=73
65305 On ch=1 n=b3 v=0
65307 On ch=1 n=c4 v=64
65316 On ch=1 n=f5 v=0
65318 On ch=1 n=c5 v=64
65339 On ch=1 n=c4 v=0
65341 On ch=1 n=c#4 v=64
65356 On ch=1 n=c5 v=0
65358 On ch=1 n=f5 v=64
65373 On ch=1 n=c#4 v=0
65375 On ch=1 n=d4 v=64
65381 Par ch=1 c=7 v=74
65396 On ch=1 n=f5 v=0
65398 On ch=1 n=c5 v=64
65407 On ch=1 n=d4 v=0
65409 On ch=1 n=d#4 v=64
65436 On ch=1 n=c5 v=0
65438 On ch=1 n=f5 v=64
65442 On ch=1 n=d#4 v=0
65444 On ch=1 n=e4 v=64
65476 On ch=1 n=e4 v=0
65476 On ch=1 n=f5 v=0
65476 On ch=1 n=a5 v=0
65476 On ch=1 n=a4 v=0
65476 On ch=1 n=a5 v=0
65476 On ch=1 n=a4 v=0
65477 Par ch=1 c=7 v=75
65478 On ch=1 n=c#3 v=64
65478 On ch=1 n=c#3 v=64
65478 On ch=1 n=a4 v=64
65478 On ch=1 n=a5 v=64
65478 On ch=1 n=a4 v=64
65478 On ch=1 n=a5 v=64
65495 On ch=1 n=f4 v=63
65505 On ch=1 n=e4 v=64
65507 On ch=1 n=f4 v=0
65523 On ch=1 n=c#5 v=64
65523 On ch=1 n=a#4 v=64
65533 On ch=1 n=e4 v=0
65535 On ch=1 n=d#4 v=64
65563 On ch=1 n=d#4 v=0
65565 On ch=1 n=d4 v=64
65569 On ch=1 n=a#4 v=0
65569 On ch=1 n=c#5 v=0
65571 On ch=1 n=e5 v=64
65593 On ch=1 n=d4 v=0
65595 On ch=1 n=c#4 v=64
65617 On ch=1 n=e5 v=0
65619 On ch=1 n=c#5 v=64
65619 On ch=1 n=a#4 v=64
65623 On ch=1 n=c#4 v=0
65625 On ch=1 n=c4 v=64
65653 On ch=1 n=c4 v=0
65655 On ch=1 n=b3 v=64
65665 On ch=1 n=a#4 v=0
65665 On ch=1 n=c#5 v=0
65667 On ch=1 n=e5 v=64
65683 On ch=1 n=b3 v=0
65685 On ch=1 n=a#3 v=64
65713 On ch=1 n=a#3 v=0
65713 On ch=1 n=e5 v=0
65713 On ch=1 n=a5 v=0
65713 On ch=1 n=a4 v=0
65713 On ch=1 n=a5 v=0
65713 On ch=1 n=a4 v=0
65713 On ch=1 n=c#3 v=0
65713 On ch=1 n=c#3 v=0
65715 On ch=1 n=a3 v=64
65715 On ch=1 n=g4 v=64
65715 On ch=1 n=g5 v=64
65715 On ch=1 n=g4 v=64
65715 On ch=1 n=g5 v=64
65743 On ch=1 n=a3 v=0
65745 On ch=1 n=g#3 v=64
65763 On ch=1 n=c#5 v=64
65763 On ch=1 n=a#4 v=64
65773 On ch=1 n=g#3 v=0
65775 On ch=1 n=g3 v=64
65803 On ch=1 n=g3 v=0
65805 On ch=1 n=f#3 v=64
65809 On ch=1 n=a#4 v=0
65809 On ch=1 n=c#5 v=0
65811 On ch=1 n=e5 v=64
65833 On ch=1 n=f#3 v=0
65835 On ch=1 n=f3 v=64
65857 On ch=1 n=e5 v=0
65859 On ch=1 n=c#5 v=64
65859 On ch=1 n=a#4 v=64
65863 On ch=1 n=f3 v=0
65865 On ch=1 n=e3 v=64
65893 On ch=1 n=e3 v=0
65895 On ch=1 n=d#3 v=64
65905 On ch=1 n=a#4 v=0
65905 On ch=1 n=c#5 v=0
65907 On ch=1 n=e5 v=64
65923 On ch=1 n=d#3 v=0
65925 On ch=1 n=d3 v=64
65953 On ch=1 n=d3 v=0
65953 On ch=1 n=e5 v=0
65953 On ch=1 n=g5 v=0
65953 On ch=1 n=g4 v=0
65953 On ch=1 n=g5 v=0
65953 On ch=1 n=g4 v=0
65955 On ch=1 n=c#3 v=64
65955 On ch=1 n=f4 v=64
65955 On ch=1 n=f5 v=64
65955 On ch=1 n=f4 v=64
65955 On ch=1 n=f5 v=64
65955 Par ch=1 c=64 v=0
65983 On ch=1 n=c#3 v=0
65989 On ch=1 n=a#4 v=64
66015 On ch=1 n=c3 v=64
66022 On ch=1 n=a#4 v=0
66024 On ch=1 n=c#5 v=64
66043 On ch=1 n=c3 v=0
66053 On ch=1 n=c#5 v=0
66055 On ch=1 n=a#4 v=64
66072 On ch=1 n=b2 v=64
66087 On ch=1 n=a#4 v=0
66089 On ch=1 n=c#5 v=64
66100 On ch=1 n=b2 v=0
66121 On ch=1 n=c#5 v=0
66123 On ch=1 n=a#4 v=64
66132 On ch=1 n=a#2 v=64
66156 On ch=1 n=a#4 v=0
66158 On ch=1 n=c#5 v=64
66160 On ch=1 n=a#2 v=0
66184 Par ch=1 c=64 v=96
66190 On ch=1 n=c#5 v=0
66190 On ch=1 n=f5 v=0
66190 On ch=1 n=f4 v=0
66190 On ch=1 n=f5 v=0
66190 On ch=1 n=f4 v=0
66192 On ch=1 n=f2 v=64
66192 On ch=1 n=a4 v=64
66192 On ch=1 n=a5 v=64
66192 On ch=1 n=f2 v=64
66192 On ch=1 n=a4 v=64
66192 On ch=1 n=a5 v=64
66240 On ch=1 n=c5 v=64
66286 On ch=1 n=c5 v=0
66288 On ch=1 n=f5 v=64
66334 On ch=1 n=f5 v=0
66336 On ch=1 n=c5 v=64
66382 On ch=1 n=c5 v=0
66384 On ch=1 n=f5 v=64
66392 Par ch=1 c=64 v=0
66424 Par ch=1 c=64 v=96
66430 On ch=1 n=f5 v=0
66430 On ch=1 n=f2 v=0
66430 On ch=1 n=f2 v=0
66432 Par ch=1 c=7 v=70
66432 On ch=1 n=e3 v=64
66432 On ch=1 n=c5 v=64
66470 On ch=1 n=c5 v=0
66470 On ch=1 n=e3 v=0
66472 On ch=1 n=f3 v=64
66472 On ch=1 n=f5 v=64
66510 On ch=1 n=f5 v=0
66510 On ch=1 n=f3 v=0
66512 On ch=1 n=f#3 v=64
66512 On ch=1 n=c5 v=64
66527 Par ch=1 c=7 v=71
66550 On ch=1 n=c5 v=0
66550 On ch=1 n=f#3 v=0
66552 On ch=1 n=g3 v=64
66552 On ch=1 n=f5 v=64
66590 On ch=1 n=f5 v=0
66590 On ch=1 n=g3 v=0
66592 On ch=1 n=g#3 v=64
66592 On ch=1 n=c5 v=64
66623 Par ch=1 c=7 v=72
66630 On ch=1 n=c5 v=0
66630 On ch=1 n=g#3 v=0
66632 On ch=1 n=a3 v=64
66632 On ch=1 n=f5 v=64
66670 On ch=1 n=f5 v=0
66670 On ch=1 n=a3 v=0
66672 On ch=1 n=a#3 v=64
66672 On ch=1 n=c5 v=64
66704 On ch=1 n=a#3 v=0
66706 On ch=1 n=b3 v=64
66710 On ch=1 n=c5 v=0
66712 On ch=1 n=f5 v=64
66719 Par ch=1 c=7 v=73
66739 On ch=1 n=b3 v=0
66741 On ch=1 n=c4 v=64
66750 On ch=1 n=f5 v=0
66752 On ch=1 n=c5 v=64
66773 On ch=1 n=c4 v=0
66775 On ch=1 n=c#4 v=64
66790 On ch=1 n=c5 v=0
66792 On ch=1 n=f5 v=64
66807 On ch=1 n=c#4 v=0
66809 On ch=1 n=d4 v=64
66815 Par ch=1 c=7 v=74
66830 On ch=1 n=f5 v=0
66832 On ch=1 n=c5 v=64
66841 On ch=1 n=d4 v=0
66843 On ch=1 n=d#4 v=64
66870 On ch=1 n=c5 v=0
66872 On ch=1 n=f5 v=64
66876 On ch=1 n=d#4 v=0
66878 On ch=1 n=e4 v=64
66910 On ch=1 n=e4 v=0
66910 On ch=1 n=f5 v=0
66910 On ch=1 n=a5 v=0
66910 On ch=1 n=a4 v=0
66910 On ch=1 n=a5 v=0
66910 On ch=1 n=a4 v=0
66911 Par ch=1 c=7 v=75
66912 On ch=1 n=c#3 v=64
66912 On ch=1 n=c#3 v=64
66912 On ch=1 n=a4 v=64
66912 On ch=1 n=a5 v=64
66912 On ch=1 n=a4 v=64
66912 On ch=1 n=a5 v=64
66929 On ch=1 n=f4 v=63
66939 On ch=1 n=e4 v=64
66941 On ch=1 n=f4 v=0
66957 On ch=1 n=c#5 v=64
66957 On ch=1 n=a#4 v=64
66967 On ch=1 n=e4 v=0
66969 On ch=1 n=d#4 v=64
66997 On ch=1 n=d#4 v=0
66999 On ch=1 n=d4 v=64
67003 On ch=1 n=a#4 v=0
67003 On ch=1 n=c#5 v=0
67005 On ch=1 n=e5 v=64
67027 On ch=1 n=d4 v=0
67029 On ch=1 n=c#4 v=64
67051 On ch=1 n=e5 v=0
67053 On ch=1 n=c#5 v=64
67053 On ch=1 n=a#4 v=64
67057 On ch=1 n=c#4 v=0
67059 On ch=1 n=c4 v=64
67087 On ch=1 n=c4 v=0
67089 On ch=1 n=b3 v=64
67099 On ch=1 n=a#4 v=0
67099 On ch=1 n=c#5 v=0
67101 On ch=1 n=e5 v=64
67117 On ch=1 n=b3 v=0
67119 On ch=1 n=a#3 v=64
67147 On ch=1 n=a#3 v=0
67147 On ch=1 n=e5 v=0
67147 On ch=1 n=a5 v=0
67147 On ch=1 n=a4 v=0
67147 On ch=1 n=a5 v=0
67147 On ch=1 n=a4 v=0
67147 On ch=1 n=c#3 v=0
67147 On ch=1 n=c#3 v=0
67149 On ch=1 n=a3 v=64
67149 On ch=1 n=g4 v=64
67149 On ch=1 n=g5 v=64
67149 On ch=1 n=g4 v=64
67149 On ch=1 n=g5 v=64
67177 On ch=1 n=a3 v=0
67179 On ch=1 n=g#3 v=64
67197 On ch=1 n=c#5 v=64
67197 On ch=1 n=a#4 v=64
67207 On ch=1 n=g#3 v=0
67209 On ch=1 n=g3 v=64
67237 On ch=1 n=g3 v=0
67239 On ch=1 n=f#3 v=64
67243 On ch=1 n=a#4 v=0
67243 On ch=1 n=c#5 v=0
67245 On ch=1 n=e5 v=64
67267 On ch=1 n=f#3 v=0
67269 On ch=1 n=f3 v=64
67291 On ch=1 n=e5 v=0
67293 On ch=1 n=c#5 v=64
67293 On ch=1 n=a#4 v=64
67297 On ch=1 n=f3 v=0
67299 On ch=1 n=e3 v=64
67327 On ch=1 n=e3 v=0
67329 On ch=1 n=d#3 v=64
67339 On ch=1 n=a#4 v=0
67339 On ch=1 n=c#5 v=0
67341 On ch=1 n=e5 v=64
67357 On ch=1 n=d#3 v=0
67359 On ch=1 n=d3 v=64
67387 On ch=1 n=d3 v=0
67387 On ch=1 n=e5 v=0
67387 On ch=1 n=g5 v=0
67387 On ch=1 n=g4 v=0
67387 On ch=1 n=g5 v=0
67387 On ch=1 n=g4 v=0
67389 On ch=1 n=c#3 v=64
67389 On ch=1 n=f4 v=64
67389 On ch=1 n=f5 v=64
67389 On ch=1 n=f4 v=64
67389 On ch=1 n=f5 v=64
67389 Par ch=1 c=64 v=0
67417 On ch=1 n=c#3 v=0
67423 On ch=1 n=a#4 v=64
67449 On ch=1 n=c3 v=64
67456 On ch=1 n=a#4 v=0
67458 On ch=1 n=c#5 v=64
67477 On ch=1 n=c3 v=0
67487 On ch=1 n=c#5 v=0
67489 On ch=1 n=a#4 v=64
67506 On ch=1 n=b2 v=64
67521 On ch=1 n=a#4 v=0
67523 On ch=1 n=c#5 v=64
67534 On ch=1 n=b2 v=0
67555 On ch=1 n=c#5 v=0
67557 On ch=1 n=a#4 v=64
67566 On ch=1 n=a#2 v=64
67590 On ch=1 n=a#4 v=0
67592 On ch=1 n=c#5 v=64
67594 On ch=1 n=a#2 v=0
67618 Par ch=1 c=64 v=96
67624 On ch=1 n=c#5 v=0
67624 On ch=1 n=f5 v=0
67624 On ch=1 n=f4 v=0
67624 On ch=1 n=f5 v=0
67624 On ch=1 n=f4 v=0
67626 On ch=1 n=a4 v=64
67626 On ch=1 n=f2 v=64
67626 On ch=1 n=f2 v=64
67626 On ch=1 n=a5 v=64
67626 On ch=1 n=a5 v=64
67672 On ch=1 n=a4 v=0
67674 On ch=1 n=c5 v=64
67720 On ch=1 n=c5 v=0
67722 On ch=1 n=f5 v=64
67768 On ch=1 n=f5 v=0
67770 On ch=1 n=c5 v=64
67816 On ch=1 n=c5 v=0
67818 On ch=1 n=f5 v=64
67864 On ch=1 n=f5 v=0
67864 On ch=1 n=f2 v=0
67864 On ch=1 n=f2 v=0
67866 On ch=1 n=c5 v=64
67866 Par ch=1 c=64 v=0
67904 On ch=1 n=c5 v=0
67906 On ch=1 n=f5 v=64
67944 On ch=1 n=f5 v=0
67946 On ch=1 n=c5 v=64
67970 Par ch=1 c=64 v=96
67984 On ch=1 n=c5 v=0
67986 Par ch=1 c=7 v=70
67986 On ch=1 n=e3 v=64
67986 On ch=1 n=f5 v=64
68024 On ch=1 n=f5 v=0
68024 On ch=1 n=e3 v=0
68026 On ch=1 n=f3 v=64
68026 On ch=1 n=c5 v=64
68057 Par ch=1 c=7 v=71
68064 On ch=1 n=c5 v=0
68064 On ch=1 n=f3 v=0
68066 On ch=1 n=f#3 v=64
68066 On ch=1 n=f5 v=64
68104 On ch=1 n=f5 v=0
68104 On ch=1 n=f#3 v=0
68104 On ch=1 n=a5 v=0
68104 On ch=1 n=a5 v=0
68106 On ch=1 n=g3 v=64
68106 On ch=1 n=c5 v=64
68129 Par ch=1 c=7 v=72
68144 On ch=1 n=c5 v=0
68144 On ch=1 n=g3 v=0
68146 On ch=1 n=g#3 v=64
68146 On ch=1 n=f5 v=64
68184 On ch=1 n=f5 v=0
68184 On ch=1 n=g#3 v=0
68186 On ch=1 n=a3 v=64
68186 On ch=1 n=c5 v=64
68201 Par ch=1 c=7 v=73
68224 On ch=1 n=c5 v=0
68224 On ch=1 n=a3 v=0
68226 On ch=1 n=a#3 v=64
68226 On ch=1 n=f5 v=64
68264 On ch=1 n=f5 v=0
68264 On ch=1 n=a#3 v=0
68266 On ch=1 n=b3 v=64
68266 On ch=1 n=c5 v=64
68273 Par ch=1 c=7 v=74
68304 On ch=1 n=c5 v=0
68304 On ch=1 n=b3 v=0
68306 On ch=1 n=c4 v=64
68306 On ch=1 n=f5 v=64
68344 On ch=1 n=f5 v=0
68344 On ch=1 n=c4 v=0
68345 Par ch=1 c=7 v=75
68346 Par ch=1 c=7 v=75
68346 On ch=1 n=c#4 v=64
68346 On ch=1 n=a4 v=64
68346 On ch=1 n=a5 v=64
68346 On ch=1 n=a5 v=64
68384 On ch=1 n=c#4 v=0
68386 On ch=1 n=c4 v=64
68392 On ch=1 n=a4 v=0
68394 On ch=1 n=c5 v=64
68424 On ch=1 n=c4 v=0
68426 On ch=1 n=b3 v=64
68440 On ch=1 n=c5 v=0
68441 Par ch=1 c=7 v=74
68442 On ch=1 n=f5 v=64
68464 On ch=1 n=b3 v=0
68466 On ch=1 n=a#3 v=64
68488 On ch=1 n=f5 v=0
68490 On ch=1 n=c5 v=64
68504 On ch=1 n=a#3 v=0
68506 On ch=1 n=a3 v=64
68536 On ch=1 n=c5 v=0
68537 Par ch=1 c=7 v=73
68538 On ch=1 n=f5 v=64
68544 On ch=1 n=a3 v=0
68546 On ch=1 n=g#3 v=64
68584 On ch=1 n=g#3 v=0
68584 On ch=1 n=f5 v=0
68586 On ch=1 n=g3 v=64
68586 On ch=1 n=c5 v=64
68618 On ch=1 n=g3 v=0
68620 On ch=1 n=f#3 v=64
68624 On ch=1 n=c5 v=0
68626 On ch=1 n=f5 v=64
68633 Par ch=1 c=7 v=72
68653 On ch=1 n=f#3 v=0
68655 On ch=1 n=f3 v=64
68664 On ch=1 n=f5 v=0
68666 On ch=1 n=c5 v=64
68687 On ch=1 n=f3 v=0
68689 On ch=1 n=e3 v=64
68704 On ch=1 n=c5 v=0
68706 On ch=1 n=f5 v=64
68721 On ch=1 n=e3 v=0
68723 On ch=1 n=d#3 v=64
68729 Par ch=1 c=7 v=71
68744 On ch=1 n=f5 v=0
68746 On ch=1 n=c5 v=64
68755 On ch=1 n=d#3 v=0
68757 On ch=1 n=d3 v=64
68784 On ch=1 n=c5 v=0
68786 On ch=1 n=f5 v=64
68786 Par ch=1 c=64 v=0
68790 On ch=1 n=d3 v=0
68792 On ch=1 n=c#3 v=64
68818 Par ch=1 c=64 v=96
68824 On ch=1 n=c#3 v=0
68824 On ch=1 n=f5 v=0
68824 On ch=1 n=a5 v=0
68824 On ch=1 n=a5 v=0
68825 Par ch=1 c=7 v=70
68826 On ch=1 n=c3 v=64
68826 On ch=1 n=c5 v=64
68851 On ch=1 n=c3 v=0
68853 On ch=1 n=c#3 v=64
68864 On ch=1 n=c5 v=0
68866 On ch=1 n=f5 v=64
68877 On ch=1 n=c#3 v=0
68879 On ch=1 n=d3 v=64
68904 On ch=1 n=d3 v=0
68904 On ch=1 n=f5 v=0
68906 On ch=1 n=d#3 v=64
68906 On ch=1 n=c5 v=64
68921 Par ch=1 c=7 v=69
68931 On ch=1 n=d#3 v=0
68933 On ch=1 n=e3 v=64
68944 On ch=1 n=c5 v=0
68946 On ch=1 n=f5 v=64
68957 On ch=1 n=e3 v=0
68959 On ch=1 n=f3 v=64
68984 On ch=1 n=f3 v=0
68984 On ch=1 n=f5 v=0
68986 On ch=1 n=f#3 v=64
68986 On ch=1 n=c5 v=64
69011 On ch=1 n=f#3 v=0
69013 On ch=1 n=g3 v=64
69017 Par ch=1 c=7 v=68
69024 On ch=1 n=c5 v=0
69026 On ch=1 n=f5 v=64
69037 On ch=1 n=g3 v=0
69039 On ch=1 n=g#3 v=64
69064 On ch=1 n=g#3 v=0
69064 On ch=1 n=f5 v=0
69066 On ch=1 n=a3 v=64
69066 On ch=1 n=a4 v=64
69066 On ch=1 n=a5 v=64
69066 On ch=1 n=a5 v=64
69104 On ch=1 n=a3 v=0
69106 On ch=1 n=g#3 v=64
69112 On ch=1 n=a4 v=0
69113 Par ch=1 c=7 v=67
69114 On ch=1 n=c5 v=64
69144 On ch=1 n=g#3 v=0
69146 On ch=1 n=g3 v=64
69160 On ch=1 n=c5 v=0
69162 On ch=1 n=f5 v=64
69184 On ch=1 n=g3 v=0
69186 On ch=1 n=f#3 v=64
69208 On ch=1 n=f5 v=0
69209 Par ch=1 c=7 v=66
69210 On ch=1 n=c5 v=64
69224 On ch=1 n=f#3 v=0
69226 On ch=1 n=f3 v=64
69256 On ch=1 n=c5 v=0
69258 On ch=1 n=f5 v=64
69264 On ch=1 n=f3 v=0
69266 On ch=1 n=e3 v=64
69304 On ch=1 n=e3 v=0
69304 On ch=1 n=f5 v=0
69305 Par ch=1 c=7 v=65
69306 On ch=1 n=c#3 v=64
69306 On ch=1 n=c5 v=64
69344 On ch=1 n=c5 v=0
69344 On ch=1 n=c#3 v=0
69346 On ch=1 n=d3 v=64
69346 On ch=1 n=f5 v=64
69384 On ch=1 n=f5 v=0
69384 On ch=1 n=d3 v=0
69386 On ch=1 n=c3 v=64
69386 On ch=1 n=c5 v=64
69401 Par ch=1 c=7 v=64
69424 On ch=1 n=c5 v=0
69424 On ch=1 n=c3 v=0
69426 On ch=1 n=a#2 v=64
69426 On ch=1 n=f5 v=64
69464 On ch=1 n=f5 v=0
69464 On ch=1 n=a#2 v=0
69466 On ch=1 n=b2 v=64
69466 On ch=1 n=c5 v=64
69497 Par ch=1 c=7 v=63
69504 On ch=1 n=c5 v=0
69504 On ch=1 n=b2 v=0
69506 On ch=1 n=g#2 v=64
69506 On ch=1 n=f5 v=64
69506 Par ch=1 c=64 v=0
69538 Par ch=1 c=64 v=96
69544 On ch=1 n=f5 v=0
69544 On ch=1 n=g#2 v=0
69544 On ch=1 n=a5 v=0
69544 On ch=1 n=a5 v=0
69546 On ch=1 n=a2 v=64
69546 On ch=1 n=c5 v=64
69571 On ch=1 n=a2 v=0
69573 On ch=1 n=a#2 v=64
69584 On ch=1 n=c5 v=0
69586 On ch=1 n=f5 v=64
69593 Par ch=1 c=7 v=62
69597 On ch=1 n=a#2 v=0
69599 On ch=1 n=b2 v=64
69624 On ch=1 n=b2 v=0
69624 On ch=1 n=f5 v=0
69626 On ch=1 n=c3 v=64
69626 On ch=1 n=c5 v=64
69651 On ch=1 n=c3 v=0
69653 On ch=1 n=c#3 v=64
69664 On ch=1 n=c5 v=0
69666 On ch=1 n=f5 v=64
69677 On ch=1 n=c#3 v=0
69679 On ch=1 n=d3 v=64
69689 Par ch=1 c=7 v=61
69704 On ch=1 n=d3 v=0
69704 On ch=1 n=f5 v=0
69706 On ch=1 n=d#3 v=64
69706 On ch=1 n=c5 v=64
69731 On ch=1 n=d#3 v=0
69733 On ch=1 n=e3 v=64
69744 On ch=1 n=c5 v=0
69746 On ch=1 n=f5 v=64
69757 On ch=1 n=e3 v=0
69759 On ch=1 n=f3 v=64
69784 On ch=1 n=f3 v=0
69784 On ch=1 n=f5 v=0
69785 Par ch=1 c=7 v=60
69786 On ch=1 n=f#3 v=64
69786 On ch=1 n=a4 v=64
69786 On ch=1 n=a5 v=64
69786 On ch=1 n=a5 v=64
69824 On ch=1 n=f#3 v=0
69826 On ch=1 n=f3 v=64
69832 On ch=1 n=a4 v=0
69834 On ch=1 n=c5 v=64
69864 On ch=1 n=f3 v=0
69866 On ch=1 n=e3 v=64
69880 On ch=1 n=c5 v=0
69882 On ch=1 n=f5 v=64
69904 On ch=1 n=e3 v=0
69906 On ch=1 n=d#3 v=64
69928 On ch=1 n=f5 v=0
69930 On ch=1 n=c5 v=64
69944 On ch=1 n=d#3 v=0
69946 On ch=1 n=d3 v=64
69976 On ch=1 n=c5 v=0
69978 On ch=1 n=f5 v=64
69984 On ch=1 n=d3 v=0
69986 On ch=1 n=c#3 v=64
70024 On ch=1 n=c#3 v=0
70024 On ch=1 n=f5 v=0
70026 On ch=1 n=c3 v=64
70026 On ch=1 n=c5 v=64
70058 On ch=1 n=c3 v=0
70060 On ch=1 n=b2 v=64
70064 On ch=1 n=c5 v=0
70066 On ch=1 n=f5 v=64
70093 On ch=1 n=b2 v=0
70095 On ch=1 n=a#2 v=64
70104 On ch=1 n=f5 v=0
70106 On ch=1 n=c5 v=64
70127 On ch=1 n=a#2 v=0
70129 On ch=1 n=a2 v=64
70144 On ch=1 n=c5 v=0
70146 On ch=1 n=f5 v=64
70161 On ch=1 n=a2 v=0
70163 On ch=1 n=g#2 v=64
70184 On ch=1 n=f5 v=0
70186 On ch=1 n=c5 v=64
70195 On ch=1 n=g#2 v=0
70197 On ch=1 n=g2 v=64
70224 On ch=1 n=c5 v=0
70226 On ch=1 n=f5 v=64
70226 Par ch=1 c=64 v=0
70230 On ch=1 n=g2 v=0
70232 On ch=1 n=f#2 v=64
70258 Par ch=1 c=64 v=96
70264 On ch=1 n=f#2 v=0
70264 On ch=1 n=f5 v=0
70264 On ch=1 n=a5 v=0
70264 On ch=1 n=a5 v=0
70266 On ch=1 n=f2 v=64
70266 On ch=1 n=c5 v=64
70294 On ch=1 n=f2 v=0
70296 On ch=1 n=f#2 v=64
70304 On ch=1 n=c5 v=0
70306 On ch=1 n=f5 v=64
70324 On ch=1 n=f#2 v=0
70326 On ch=1 n=g2 v=64
70344 On ch=1 n=f5 v=0
70346 On ch=1 n=c5 v=64
70354 On ch=1 n=g2 v=0
70356 On ch=1 n=g#2 v=64
70384 On ch=1 n=g#2 v=0
70384 On ch=1 n=c5 v=0
70386 On ch=1 n=a2 v=64
70386 On ch=1 n=f5 v=64
70414 On ch=1 n=a2 v=0
70416 On ch=1 n=a#2 v=64
70424 On ch=1 n=f5 v=0
70426 On ch=1 n=c5 v=64
70444 On ch=1 n=a#2 v=0
70446 On ch=1 n=b2 v=64
70464 On ch=1 n=c5 v=0
70466 On ch=1 n=f5 v=64
70474 On ch=1 n=b2 v=0
70476 On ch=1 n=c3 v=64
70504 On ch=1 n=c3 v=0
70504 On ch=1 n=f5 v=0
70506 On ch=1 n=c#3 v=64
70534 On ch=1 n=c#3 v=0
70536 On ch=1 n=c3 v=64
70564 On ch=1 n=c3 v=0
70566 On ch=1 n=b2 v=64
70594 On ch=1 n=b2 v=0
70596 On ch=1 n=a#2 v=64
70624 On ch=1 n=a#2 v=0
70626 On ch=1 n=a2 v=64
70654 On ch=1 n=a2 v=0
70656 On ch=1 n=g#2 v=64
70684 On ch=1 n=g#2 v=0
70686 On ch=1 n=g2 v=64
70706 Par ch=1 c=64 v=0
70714 On ch=1 n=g2 v=0
70716 On ch=1 n=f#2 v=64
70738 Par ch=1 c=64 v=96
70744 On ch=1 n=f#2 v=0
70746 On ch=1 n=f2 v=64
70774 On ch=1 n=f2 v=0
70776 On ch=1 n=f#2 v=64
70804 On ch=1 n=f#2 v=0
70806 On ch=1 n=g2 v=64
70834 On ch=1 n=g2 v=0
70836 On ch=1 n=g#2 v=64
70864 On ch=1 n=g#2 v=0
70866 On ch=1 n=a2 v=64
70894 On ch=1 n=a2 v=0
70896 On ch=1 n=a#2 v=64
70924 On ch=1 n=a#2 v=0
70926 On ch=1 n=b2 v=64
70954 On ch=1 n=b2 v=0
70956 On ch=1 n=c3 v=64
70984 On ch=1 n=c3 v=0
70986 On ch=1 n=c#3 v=64
71014 On ch=1 n=c#3 v=0
71016 On ch=1 n=c3 v=64
71044 On ch=1 n=c3 v=0
71046 On ch=1 n=b2 v=64
71074 On ch=1 n=b2 v=0
71076 On ch=1 n=a#2 v=64
71104 On ch=1 n=a#2 v=0
71106 On ch=1 n=a2 v=64
71134 On ch=1 n=a2 v=0
71136 On ch=1 n=g#2 v=64
71164 On ch=1 n=g#2 v=0
71166 On ch=1 n=g2 v=64
71186 Par ch=1 c=64 v=0
71194 On ch=1 n=g2 v=0
71196 On ch=1 n=f#2 v=64
71218 Par ch=1 c=64 v=96
71224 On ch=1 n=f#2 v=0
71226 Par ch=1 c=7 v=60
71226 On ch=1 n=f2 v=64
71254 On ch=1 n=f2 v=0
71256 On ch=1 n=f#2 v=64
71273 Par ch=1 c=7 v=61
71284 On ch=1 n=f#2 v=0
71286 On ch=1 n=g2 v=64
71314 On ch=1 n=g2 v=0
71316 On ch=1 n=g#2 v=64
71321 Par ch=1 c=7 v=62
71344 On ch=1 n=g#2 v=0
71346 On ch=1 n=a2 v=64
71369 Par ch=1 c=7 v=63
71374 On ch=1 n=a2 v=0
71376 On ch=1 n=a#2 v=64
71404 On ch=1 n=a#2 v=0
71406 On ch=1 n=b2 v=64
71417 Par ch=1 c=7 v=64
71434 On ch=1 n=b2 v=0
71436 On ch=1 n=c3 v=64
71464 On ch=1 n=c3 v=0
71465 Par ch=1 c=7 v=65
71466 On ch=1 n=c#4 v=64
71466 On ch=1 n=c#3 v=64
71494 On ch=1 n=c#3 v=0
71494 On ch=1 n=c#4 v=0
71496 On ch=1 n=c4 v=64
71496 On ch=1 n=c3 v=64
71524 On ch=1 n=c3 v=0
71524 On ch=1 n=c4 v=0
71526 On ch=1 n=b3 v=64
71526 On ch=1 n=b2 v=64
71554 On ch=1 n=b2 v=0
71554 On ch=1 n=b3 v=0
71556 On ch=1 n=a#3 v=64
71556 On ch=1 n=a#2 v=64
71584 On ch=1 n=a#2 v=0
71584 On ch=1 n=a#3 v=0
71586 On ch=1 n=a3 v=64
71586 On ch=1 n=a2 v=64
71614 On ch=1 n=a2 v=0
71614 On ch=1 n=a3 v=0
71616 On ch=1 n=g#3 v=64
71616 On ch=1 n=g#2 v=64
71644 On ch=1 n=g#2 v=0
71644 On ch=1 n=g#3 v=0
71646 On ch=1 n=g3 v=64
71646 On ch=1 n=g2 v=64
71666 Par ch=1 c=64 v=0
71674 On ch=1 n=g2 v=0
71674 On ch=1 n=g3 v=0
71676 On ch=1 n=f#3 v=64
71676 On ch=1 n=f#2 v=64
71698 Par ch=1 c=64 v=96
71704 On ch=1 n=f#2 v=0
71704 On ch=1 n=f#3 v=0
71706 Par ch=1 c=7 v=65
71706 On ch=1 n=f3 v=64
71706 On ch=1 n=f2 v=64
71731 On ch=1 n=f2 v=0
71731 On ch=1 n=f3 v=0
71733 On ch=1 n=f#3 v=64
71733 On ch=1 n=f#2 v=64
71745 Par ch=1 c=7 v=66
71757 On ch=1 n=f#2 v=0
71757 On ch=1 n=f#3 v=0
71759 On ch=1 n=g3 v=64
71759 On ch=1 n=g2 v=64
71784 On ch=1 n=g2 v=0
71784 On ch=1 n=g3 v=0
71784 Par ch=1 c=7 v=67
71786 On ch=1 n=g#3 v=64
71786 On ch=1 n=g#2 v=64
71811 On ch=1 n=g#2 v=0
71811 On ch=1 n=g#3 v=0
71813 On ch=1 n=a3 v=64
71813 On ch=1 n=a2 v=64
71823 Par ch=1 c=7 v=68
71837 On ch=1 n=a2 v=0
71837 On ch=1 n=a3 v=0
71839 On ch=1 n=a#3 v=64
71839 On ch=1 n=a#2 v=64
71863 Par ch=1 c=7 v=69
71864 On ch=1 n=a#2 v=0
71864 On ch=1 n=a#3 v=0
71866 On ch=1 n=b3 v=64
71866 On ch=1 n=b2 v=64
71891 On ch=1 n=b2 v=0
71891 On ch=1 n=b3 v=0
71893 On ch=1 n=c4 v=64
71893 On ch=1 n=c3 v=64
71902 Par ch=1 c=7 v=70
71917 On ch=1 n=c3 v=0
71917 On ch=1 n=c4 v=0
71919 On ch=1 n=c#4 v=64
71919 On ch=1 n=c#3 v=64
71941 Par ch=1 c=7 v=71
71944 On ch=1 n=c#3 v=0
71944 On ch=1 n=c#4 v=0
71946 On ch=1 n=d4 v=64
71946 On ch=1 n=d3 v=64
71971 On ch=1 n=d3 v=0
71971 On ch=1 n=d4 v=0
71973 On ch=1 n=d#4 v=64
71973 On ch=1 n=d#3 v=64
71980 Par ch=1 c=7 v=72
71997 On ch=1 n=d#3 v=0
71997 On ch=1 n=d#4 v=0
71999 On ch=1 n=e4 v=64
71999 On ch=1 n=e3 v=64
72020 Par ch=1 c=7 v=73
72024 On ch=1 n=e3 v=0
72024 On ch=1 n=e4 v=0
72026 On ch=1 n=f4 v=64
72026 On ch=1 n=f3 v=64
72051 On ch=1 n=f3 v=0
72051 On ch=1 n=f4 v=0
72053 On ch=1 n=f#4 v=64
72053 On ch=1 n=f#3 v=64
72059 Par ch=1 c=7 v=74
72077 On ch=1 n=f#3 v=0
72077 On ch=1 n=f#4 v=0
72079 On ch=1 n=f4 v=64
72079 On ch=1 n=f3 v=64
72098 Par ch=1 c=7 v=75
72104 On ch=1 n=f3 v=0
72104 On ch=1 n=f4 v=0
72106 On ch=1 n=e4 v=64
72106 On ch=1 n=e3 v=64
72131 On ch=1 n=e3 v=0
72131 On ch=1 n=e4 v=0
72133 On ch=1 n=d#4 v=64
72133 On ch=1 n=d#3 v=64
72137 Par ch=1 c=7 v=76
72157 On ch=1 n=d#3 v=0
72157 On ch=1 n=d#4 v=0
72159 On ch=1 n=d4 v=64
72159 On ch=1 n=d3 v=64
72177 Par ch=1 c=7 v=77
72184 On ch=1 n=d3 v=0
72184 On ch=1 n=d4 v=0
72186 On ch=1 n=c#4 v=64
72186 On ch=1 n=c#3 v=64
72211 On ch=1 n=c#3 v=0
72211 On ch=1 n=c#4 v=0
72213 On ch=1 n=c4 v=64
72213 On ch=1 n=c3 v=64
72216 Par ch=1 c=7 v=78
72237 On ch=1 n=c3 v=0
72237 On ch=1 n=c4 v=0
72239 On ch=1 n=b3 v=64
72239 On ch=1 n=b2 v=64
72255 Par ch=1 c=7 v=79
72264 On ch=1 n=b2 v=0
72264 On ch=1 n=b3 v=0
72266 On ch=1 n=a#3 v=64
72266 On ch=1 n=a#2 v=64
72291 On ch=1 n=a#2 v=0
72291 On ch=1 n=a#3 v=0
72293 On ch=1 n=a3 v=64
72293 On ch=1 n=a2 v=64
72294 Par ch=1 c=7 v=80
72317 On ch=1 n=a2 v=0
72317 On ch=1 n=a3 v=0
72318 Par ch=1 c=64 v=0
72319 On ch=1 n=g#3 v=64
72319 On ch=1 n=g#2 v=64
72334 Par ch=1 c=7 v=81
72344 On ch=1 n=g#2 v=0
72344 On ch=1 n=g#3 v=0
72346 On ch=1 n=g3 v=64
72346 On ch=1 n=g2 v=64
72358 Par ch=1 c=64 v=96
72368 On ch=1 n=g2 v=0
72368 On ch=1 n=g3 v=0
72370 Par ch=1 c=7 v=82
72370 On ch=1 n=f#3 v=64
72370 On ch=1 n=f#2 v=64
72394 On ch=1 n=f#2 v=0
72394 On ch=1 n=f#3 v=0
72396 On ch=1 n=f3 v=64
72396 On ch=1 n=f2 v=64
72406 Par ch=1 c=7 v=83
72418 On ch=1 n=f2 v=0
72418 On ch=1 n=f3 v=0
72420 On ch=1 n=f#3 v=64
72420 On ch=1 n=f#2 v=64
72445 On ch=1 n=f#2 v=0
72445 On ch=1 n=f#3 v=0
72445 Par ch=1 c=7 v=84
72447 On ch=1 n=g3 v=64
72447 On ch=1 n=g2 v=64
72471 On ch=1 n=g2 v=0
72471 On ch=1 n=g3 v=0
72473 On ch=1 n=g#3 v=64
72473 On ch=1 n=g#2 v=64
72485 Par ch=1 c=7 v=85
72495 On ch=1 n=g#2 v=0
72495 On ch=1 n=g#3 v=0
72497 On ch=1 n=a3 v=64
72497 On ch=1 n=a2 v=64
72521 Par ch=1 c=7 v=86
72522 On ch=1 n=a2 v=0
72522 On ch=1 n=a3 v=0
72524 On ch=1 n=a#3 v=64
72524 On ch=1 n=a#2 v=64
72548 On ch=1 n=a#2 v=0
72548 On ch=1 n=a#3 v=0
72550 On ch=1 n=b3 v=64
72550 On ch=1 n=b2 v=64
72560 Par ch=1 c=7 v=87
72575 On ch=1 n=b2 v=0
72575 On ch=1 n=b3 v=0
72577 On ch=1 n=c4 v=64
72577 On ch=1 n=c3 v=64
72599 Par ch=1 c=7 v=88
72602 On ch=1 n=c3 v=0
72602 On ch=1 n=c4 v=0
72604 On ch=1 n=c#4 v=64
72604 On ch=1 n=c#3 v=64
72628 On ch=1 n=c#3 v=0
72628 On ch=1 n=c#4 v=0
72630 On ch=1 n=d4 v=64
72630 On ch=1 n=d3 v=64
72639 Par ch=1 c=7 v=89
72655 On ch=1 n=d3 v=0
72655 On ch=1 n=d4 v=0
72657 On ch=1 n=d#4 v=64
72657 On ch=1 n=d#3 v=64
72678 Par ch=1 c=7 v=90
72682 On ch=1 n=d#3 v=0
72682 On ch=1 n=d#4 v=0
72684 On ch=1 n=e4 v=64
72684 On ch=1 n=e3 v=64
72708 On ch=1 n=e3 v=0
72708 On ch=1 n=e4 v=0
72710 On ch=1 n=f4 v=64
72710 On ch=1 n=f3 v=64
72717 Par ch=1 c=7 v=91
72735 On ch=1 n=f3 v=0
72735 On ch=1 n=f4 v=0
72737 On ch=1 n=f#4 v=64
72737 On ch=1 n=f#3 v=64
72756 Par ch=1 c=7 v=92
72762 On ch=1 n=f#3 v=0
72762 On ch=1 n=f#4 v=0
72764 On ch=1 n=g4 v=64
72764 On ch=1 n=g3 v=64
72788 On ch=1 n=g3 v=0
72788 On ch=1 n=g4 v=0
72790 On ch=1 n=g#4 v=64
72790 On ch=1 n=g#3 v=64
72796 Par ch=1 c=7 v=93
72815 On ch=1 n=g#3 v=0
72815 On ch=1 n=g#4 v=0
72817 On ch=1 n=a4 v=64
72817 On ch=1 n=a3 v=64
72835 Par ch=1 c=7 v=94
72842 On ch=1 n=a3 v=0
72842 On ch=1 n=a4 v=0
72844 On ch=1 n=g#4 v=64
72844 On ch=1 n=g#3 v=64
72868 On ch=1 n=g#3 v=0
72868 On ch=1 n=g#4 v=0
72870 On ch=1 n=g4 v=64
72870 On ch=1 n=g3 v=64
72874 Par ch=1 c=7 v=95
72895 On ch=1 n=g3 v=0
72895 On ch=1 n=g4 v=0
72897 On ch=1 n=f#4 v=64
72897 On ch=1 n=f#3 v=64
72913 Par ch=1 c=7 v=96
72922 On ch=1 n=f#3 v=0
72922 On ch=1 n=f#4 v=0
72924 On ch=1 n=f4 v=64
72924 On ch=1 n=f3 v=64
72948 On ch=1 n=f3 v=0
72948 On ch=1 n=f4 v=0
72950 On ch=1 n=e4 v=64
72950 On ch=1 n=e3 v=64
72953 Par ch=1 c=7 v=97
72975 On ch=1 n=e3 v=0
72975 On ch=1 n=e4 v=0
72977 On ch=1 n=d#4 v=64
72977 On ch=1 n=d#3 v=64
72992 Par ch=1 c=7 v=98
73002 On ch=1 n=d#3 v=0
73002 On ch=1 n=d#4 v=0
73004 On ch=1 n=d4 v=64
73004 On ch=1 n=d3 v=64
73028 On ch=1 n=d3 v=0
73028 On ch=1 n=d4 v=0
73030 On ch=1 n=c#4 v=64
73030 On ch=1 n=c#3 v=64
73031 Par ch=1 c=7 v=99
73055 On ch=1 n=c#3 v=0
73055 On ch=1 n=c#4 v=0
73057 On ch=1 n=c4 v=64
73057 On ch=1 n=c3 v=64
73067 Par ch=1 c=7 v=100
73079 On ch=1 n=c3 v=0
73079 On ch=1 n=c4 v=0
73081 On ch=1 n=b3 v=64
73081 On ch=1 n=b2 v=64
73105 On ch=1 n=b3 v=0
73106 On ch=1 n=b2 v=0
73107 Par ch=1 c=7 v=101
73107 On ch=1 n=a#3 v=64
73107 On ch=1 n=a#2 v=64
73132 On ch=1 n=a#2 v=0
73132 On ch=1 n=a#3 v=0
73134 On ch=1 n=a3 v=64
73134 On ch=1 n=a2 v=64
73146 Par ch=1 c=7 v=102
73156 On ch=1 n=a2 v=0
73156 On ch=1 n=a3 v=0
73158 On ch=1 n=g#3 v=64
73158 On ch=1 n=g#2 v=64
73182 On ch=1 n=g#2 v=0
73182 On ch=1 n=g#3 v=0
73182 Par ch=1 c=7 v=103
73184 On ch=1 n=g3 v=64
73184 On ch=1 n=g2 v=64
73203 Par ch=1 c=64 v=0
73209 On ch=1 n=g2 v=0
73209 On ch=1 n=g3 v=0
73211 On ch=1 n=f#3 v=64
73211 On ch=1 n=f#2 v=64
73221 Par ch=1 c=7 v=104
73235 Par ch=1 c=64 v=96
73236 On ch=1 n=f#2 v=0
73236 On ch=1 n=f#3 v=0
73238 On ch=1 n=f3 v=64
73238 On ch=1 n=f2 v=64
73261 Par ch=1 c=7 v=105
73262 On ch=1 n=f2 v=0
73262 On ch=1 n=f3 v=0
73264 On ch=1 n=f#3 v=64
73264 On ch=1 n=f#2 v=64
73289 On ch=1 n=f#2 v=0
73289 On ch=1 n=f#3 v=0
73291 On ch=1 n=g3 v=64
73291 On ch=1 n=g2 v=64
73300 Par ch=1 c=7 v=106
73316 On ch=1 n=g2 v=0
73316 On ch=1 n=g3 v=0
73318 On ch=1 n=g#3 v=64
73318 On ch=1 n=g#2 v=64
73339 Par ch=1 c=7 v=107
73342 On ch=1 n=g#2 v=0
73342 On ch=1 n=g#3 v=0
73344 On ch=1 n=a3 v=64
73344 On ch=1 n=a2 v=64
73369 On ch=1 n=a2 v=0
73369 On ch=1 n=a3 v=0
73371 On ch=1 n=a#3 v=64
73371 On ch=1 n=a#2 v=64
73378 Par ch=1 c=7 v=108
73399 On ch=1 n=a#2 v=0
73399 On ch=1 n=a#3 v=0
73401 On ch=1 n=b3 v=64
73401 On ch=1 n=b2 v=64
73418 Par ch=1 c=7 v=109
73429 On ch=1 n=b2 v=0
73429 On ch=1 n=b3 v=0
73431 On ch=1 n=c4 v=64
73431 On ch=1 n=c3 v=64
73457 Par ch=1 c=7 v=110
73459 On ch=1 n=c3 v=0
73459 On ch=1 n=c4 v=0
73461 On ch=1 n=c#4 v=64
73461 On ch=1 n=c#3 v=64
73489 On ch=1 n=c#3 v=0
73489 On ch=1 n=c#4 v=0
73491 On ch=1 n=d4 v=64
73491 On ch=1 n=d3 v=64
73496 Par ch=1 c=7 v=111
73519 On ch=1 n=d3 v=0
73519 On ch=1 n=d4 v=0
73521 On ch=1 n=d#4 v=64
73521 On ch=1 n=d#3 v=64
73535 Par ch=1 c=7 v=112
73549 On ch=1 n=d#3 v=0
73549 On ch=1 n=d#4 v=0
73551 On ch=1 n=e4 v=64
73551 On ch=1 n=e3 v=64
73575 Par ch=1 c=7 v=113
73579 On ch=1 n=e3 v=0
73579 On ch=1 n=e4 v=0
73581 On ch=1 n=f4 v=64
73581 On ch=1 n=f3 v=64
73609 On ch=1 n=f3 v=0
73609 On ch=1 n=f4 v=0
73611 On ch=1 n=f#4 v=64
73611 On ch=1 n=f#3 v=64
73614 Par ch=1 c=7 v=114
73643 On ch=1 n=f#3 v=0
73643 On ch=1 n=f#4 v=0
73645 On ch=1 n=g4 v=64
73645 On ch=1 n=g3 v=64
73653 Par ch=1 c=7 v=115
73678 On ch=1 n=g3 v=0
73678 On ch=1 n=g4 v=0
73680 On ch=1 n=g#4 v=64
73680 On ch=1 n=g#3 v=64
73692 Par ch=1 c=7 v=116
73712 On ch=1 n=g#3 v=0
73712 On ch=1 n=g#4 v=0
73714 On ch=1 n=a4 v=64
73714 On ch=1 n=a3 v=64
73732 Par ch=1 c=7 v=117
73746 On ch=1 n=a3 v=0
73746 On ch=1 n=a4 v=0
73748 On ch=1 n=a#4 v=64
73748 On ch=1 n=a#3 v=64
73771 Par ch=1 c=7 v=118
73780 On ch=1 n=a#3 v=0
73780 On ch=1 n=a#4 v=0
73782 On ch=1 n=b4 v=64
73782 On ch=1 n=b3 v=64
73810 Par ch=1 c=7 v=119
73811 Par ch=1 c=64 v=0
73815 On ch=1 n=b3 v=0
73815 On ch=1 n=b4 v=0
73817 On ch=1 n=c5 v=64
73817 On ch=1 n=c4 v=64
73843 Par ch=1 c=64 v=96
73849 On ch=1 n=c4 v=0
73849 On ch=1 n=c5 v=0
73850 Par ch=1 c=7 v=120
73851 On ch=1 n=c#3 v=64
73851 On ch=1 n=c#3 v=64
73851 On ch=1 n=f5 v=64
73851 On ch=1 n=c#5 v=64
73851 On ch=1 n=f4 v=64
73860 On ch=1 n=f3 v=63
73860 On ch=1 n=f3 v=63
73866 On ch=1 n=c#4 v=62
73866 On ch=1 n=c#4 v=62
73876 On ch=1 n=f4 v=0
73876 On ch=1 n=c#5 v=0
73876 On ch=1 n=f5 v=0
73878 On ch=1 n=c5 v=64
73906 On ch=1 n=c5 v=0
73908 On ch=1 n=b4 v=64
73936 On ch=1 n=b4 v=0
73938 On ch=1 n=a#4 v=64
73966 On ch=1 n=a#4 v=0
73968 On ch=1 n=a4 v=64
73996 On ch=1 n=a4 v=0
73998 On ch=1 n=a#4 v=64
74026 On ch=1 n=a#4 v=0
74028 On ch=1 n=b4 v=64
74056 On ch=1 n=b4 v=0
74058 On ch=1 n=c5 v=64
74086 On ch=1 n=c5 v=0
74086 On ch=1 n=c#3 v=0
74086 On ch=1 n=c#3 v=0
74088 On ch=1 n=c3 v=64
74088 On ch=1 n=c3 v=64
74088 On ch=1 n=c#5 v=64
74089 On ch=1 n=f3 v=0
74089 On ch=1 n=f3 v=0
74090 On ch=1 n=c#4 v=0
74090 On ch=1 n=c#4 v=0
74098 On ch=1 n=f3 v=64
74098 On ch=1 n=f3 v=64
74103 On ch=1 n=c4 v=62
74103 On ch=1 n=c4 v=62
74113 On ch=1 n=c#5 v=0
74115 On ch=1 n=d5 v=64
74143 On ch=1 n=d5 v=0
74145 On ch=1 n=d#5 v=64
74173 On ch=1 n=d#5 v=0
74175 On ch=1 n=e5 v=64
74203 On ch=1 n=e5 v=0
74205 On ch=1 n=f5 v=64
74233 On ch=1 n=f5 v=0
74235 On ch=1 n=f#5 v=64
74263 On ch=1 n=f#5 v=0
74265 On ch=1 n=g5 v=64
74293 On ch=1 n=g5 v=0
74295 On ch=1 n=g#5 v=64
74323 On ch=1 n=g#5 v=0
74323 On ch=1 n=c3 v=0
74323 On ch=1 n=c3 v=0
74324 On ch=1 n=f3 v=0
74324 On ch=1 n=f3 v=0
74325 On ch=1 n=c4 v=0
74325 On ch=1 n=c4 v=0
74325 On ch=1 n=a#2 v=64
74325 On ch=1 n=a#2 v=64
74325 On ch=1 n=a5 v=64
74333 On ch=1 n=c#3 v=62
74333 On ch=1 n=c#3 v=62
74340 On ch=1 n=f3 v=64
74340 On ch=1 n=f3 v=64
74350 On ch=1 n=a#3 v=61
74350 On ch=1 n=a#3 v=61
74353 On ch=1 n=a5 v=0
74355 On ch=1 n=a#5 v=64
74383 On ch=1 n=a#5 v=0
74385 On ch=1 n=b5 v=64
74413 On ch=1 n=b5 v=0
74415 On ch=1 n=c6 v=64
74443 On ch=1 n=c6 v=0
74445 On ch=1 n=c#6 v=64
74473 On ch=1 n=c#6 v=0
74475 On ch=1 n=d6 v=64
74503 On ch=1 n=d6 v=0
74505 On ch=1 n=d#6 v=64
74533 On ch=1 n=d#6 v=0
74535 On ch=1 n=e6 v=64
74563 On ch=1 n=e6 v=0
74563 On ch=1 n=c#3 v=0
74563 On ch=1 n=c#3 v=0
74563 On ch=1 n=a#2 v=0
74563 On ch=1 n=a#2 v=0
74564 On ch=1 n=f3 v=0
74564 On ch=1 n=f3 v=0
74565 On ch=1 n=a#3 v=0
74565 On ch=1 n=a#3 v=0
74565 On ch=1 n=a2 v=64
74565 On ch=1 n=a2 v=64
74565 On ch=1 n=f6 v=64
74573 On ch=1 n=c#3 v=65
74573 On ch=1 n=c#3 v=65
74581 On ch=1 n=f3 v=63
74581 On ch=1 n=f3 v=63
74588 On ch=1 n=a3 v=61
74588 On ch=1 n=a3 v=61
74590 On ch=1 n=f6 v=0
74592 On ch=1 n=f#6 v=64
74616 On ch=1 n=f#6 v=0
74618 On ch=1 n=g6 v=64
74643 On ch=1 n=g6 v=0
74645 On ch=1 n=g#6 v=64
74670 On ch=1 n=g#6 v=0
74672 On ch=1 n=a6 v=64
74696 On ch=1 n=a6 v=0
74698 On ch=1 n=a#6 v=64
74723 On ch=1 n=a#6 v=0
74725 On ch=1 n=b6 v=64
74750 On ch=1 n=b6 v=0
74752 On ch=1 n=c7 v=64
74776 On ch=1 n=c7 v=0
74778 On ch=1 n=c#7 v=64
74803 On ch=1 n=c#7 v=0
74803 On ch=1 n=f3 v=0
74803 On ch=1 n=f3 v=0
74803 On ch=1 n=c#3 v=0
74803 On ch=1 n=c#3 v=0
74803 On ch=1 n=a2 v=0
74803 On ch=1 n=a2 v=0
74805 Par ch=1 c=7 v=120
74805 On ch=1 n=a#2 v=64
74805 On ch=1 n=a#2 v=64
74805 On ch=1 n=d7 v=64
74807 On ch=1 n=a3 v=0
74807 On ch=1 n=a3 v=0
74813 On ch=1 n=c#3 v=64
74813 On ch=1 n=c#3 v=64
74820 On ch=1 n=f3 v=63
74820 On ch=1 n=f3 v=63
74829 On ch=1 n=a#3 v=59
74829 On ch=1 n=a#3 v=59
74830 On ch=1 n=d7 v=0
74832 On ch=1 n=d#7 v=64
74852 Par ch=1 c=7 v=121
74856 On ch=1 n=d#7 v=0
74858 On ch=1 n=e7 v=64
74883 On ch=1 n=e7 v=0
74885 On ch=1 n=f7 v=64
74900 Par ch=1 c=7 v=122
74910 On ch=1 n=f7 v=0
74912 On ch=1 n=f#7 v=64
74936 On ch=1 n=f#7 v=0
74938 On ch=1 n=g7 v=64
74948 Par ch=1 c=7 v=123
74963 On ch=1 n=g7 v=0
74965 On ch=1 n=g#7 v=64
74990 On ch=1 n=g#7 v=0
74992 On ch=1 n=a7 v=64
74996 Par ch=1 c=7 v=124
75016 On ch=1 n=a7 v=0
75018 On ch=1 n=a#7 v=64
75043 On ch=1 n=a#7 v=0
75043 On ch=1 n=a#2 v=0
75043 On ch=1 n=a#2 v=0
75044 Par ch=1 c=7 v=125
75045 On ch=1 n=a#3 v=0
75045 On ch=1 n=a#3 v=0
75045 On ch=1 n=f3 v=0
75045 On ch=1 n=f3 v=0
75045 On ch=1 n=c#3 v=0
75045 On ch=1 n=c#3 v=0
75045 On ch=1 n=d#3 v=64
75045 On ch=1 n=d#2 v=64
75045 On ch=1 n=d#8 v=64
75045 On ch=1 n=d#7 v=64
75045 On ch=1 n=d#3 v=64
75045 On ch=1 n=d#2 v=64
75045 On ch=1 n=d#8 v=64
75045 On ch=1 n=d#7 v=64
75165 Par ch=1 c=64 v=0
75277 Par ch=1 c=64 v=96
75283 On ch=1 n=d#7 v=0
75283 On ch=1 n=d#8 v=0
75283 On ch=1 n=d#2 v=0
75283 On ch=1 n=d#3 v=0
75283 On ch=1 n=d#7 v=0
75283 On ch=1 n=d#8 v=0
75283 On ch=1 n=d#2 v=0
75283 On ch=1 n=d#3 v=0
75285 Par ch=1 c=7 v=110
75285 On ch=1 n=f#4 v=64
75285 On ch=1 n=d#5 v=64
75285 On ch=1 n=b4 v=64
75285 On ch=1 n=b4 v=64
75323 On ch=1 n=d#5 v=0
75323 On ch=1 n=f#4 v=0
75325 On ch=1 n=d#4 v=64
75325 On ch=1 n=f#5 v=64
75363 On ch=1 n=f#5 v=0
75363 On ch=1 n=d#4 v=0
75365 On ch=1 n=f#4 v=64
75365 On ch=1 n=d#5 v=64
75403 On ch=1 n=d#5 v=0
75403 On ch=1 n=f#4 v=0
75405 On ch=1 n=d#4 v=64
75405 On ch=1 n=f#5 v=64
75443 On ch=1 n=f#5 v=0
75443 On ch=1 n=d#4 v=0
75445 On ch=1 n=f#4 v=64
75445 On ch=1 n=d#5 v=64
75483 On ch=1 n=d#5 v=0
75483 On ch=1 n=f#4 v=0
75485 On ch=1 n=d#4 v=64
75485 On ch=1 n=f#5 v=64
75523 On ch=1 n=f#5 v=0
75523 On ch=1 n=d#4 v=0
75523 On ch=1 n=b4 v=0
75523 On ch=1 n=b4 v=0
75525 On ch=1 n=f#4 v=64
75525 On ch=1 n=d#5 v=64
75525 On ch=1 n=a#4 v=64
75525 On ch=1 n=a#4 v=64
75563 On ch=1 n=d#5 v=0
75563 On ch=1 n=f#4 v=0
75565 On ch=1 n=d#4 v=64
75565 On ch=1 n=f#5 v=64
75603 On ch=1 n=f#5 v=0
75603 On ch=1 n=d#4 v=0
75605 On ch=1 n=f#4 v=64
75605 On ch=1 n=d#5 v=64
75643 On ch=1 n=d#5 v=0
75643 On ch=1 n=f#4 v=0
75645 On ch=1 n=d#4 v=64
75645 On ch=1 n=f#5 v=64
75683 On ch=1 n=f#5 v=0
75683 On ch=1 n=d#4 v=0
75685 On ch=1 n=f#4 v=64
75685 On ch=1 n=d#5 v=64
75723 On ch=1 n=d#5 v=0
75723 On ch=1 n=f#4 v=0
75725 On ch=1 n=d#4 v=64
75725 On ch=1 n=f#5 v=64
75763 On ch=1 n=f#5 v=0
75763 On ch=1 n=d#4 v=0
75763 On ch=1 n=a#4 v=0
75763 On ch=1 n=a#4 v=0
75765 On ch=1 n=f#4 v=64
75765 On ch=1 n=d#5 v=64
75765 On ch=1 n=a4 v=64
75765 On ch=1 n=a4 v=64
75803 On ch=1 n=d#5 v=0
75803 On ch=1 n=f#4 v=0
75805 On ch=1 n=d#4 v=64
75805 On ch=1 n=f#5 v=64
75843 On ch=1 n=f#5 v=0
75843 On ch=1 n=d#4 v=0
75845 On ch=1 n=f#4 v=64
75845 On ch=1 n=d#5 v=64
75883 On ch=1 n=d#5 v=0
75883 On ch=1 n=f#4 v=0
75885 On ch=1 n=d#4 v=64
75885 On ch=1 n=f#5 v=64
75923 On ch=1 n=f#5 v=0
75923 On ch=1 n=d#4 v=0
75925 On ch=1 n=f#4 v=64
75925 On ch=1 n=d#5 v=64
75963 On ch=1 n=d#5 v=0
75963 On ch=1 n=f#4 v=0
75965 On ch=1 n=d#4 v=64
75965 On ch=1 n=f#5 v=64
76003 On ch=1 n=f#5 v=0
76003 On ch=1 n=d#4 v=0
76003 On ch=1 n=a4 v=0
76003 On ch=1 n=a4 v=0
76005 On ch=1 n=f#4 v=64
76005 On ch=1 n=d#5 v=64
76005 On ch=1 n=a#4 v=64
76005 On ch=1 n=a#4 v=64
76043 On ch=1 n=d#5 v=0
76043 On ch=1 n=f#4 v=0
76045 On ch=1 n=d#4 v=64
76045 On ch=1 n=f#5 v=64
76083 On ch=1 n=f#5 v=0
76083 On ch=1 n=d#4 v=0
76085 On ch=1 n=f#4 v=64
76085 On ch=1 n=d#5 v=64
76123 On ch=1 n=d#5 v=0
76123 On ch=1 n=f#4 v=0
76125 On ch=1 n=d#4 v=64
76125 On ch=1 n=f#5 v=64
76163 On ch=1 n=f#5 v=0
76163 On ch=1 n=d#4 v=0
76165 On ch=1 n=f#4 v=64
76165 On ch=1 n=d#5 v=64
76203 On ch=1 n=d#5 v=0
76203 On ch=1 n=f#4 v=0
76205 On ch=1 n=d#4 v=64
76205 On ch=1 n=f#5 v=64
76243 On ch=1 n=f#5 v=0
76243 On ch=1 n=d#4 v=0
76243 On ch=1 n=a#4 v=0
76243 On ch=1 n=a#4 v=0
76245 On ch=1 n=d#5 v=64
76245 On ch=1 n=f#4 v=64
76245 On ch=1 n=f#4 v=64
76283 On ch=1 n=d#5 v=0
76285 On ch=1 n=d#4 v=64
76285 On ch=1 n=f#5 v=64
76323 On ch=1 n=f#5 v=0
76323 On ch=1 n=d#4 v=0
76325 On ch=1 n=f#4 v=64
76325 On ch=1 n=d#5 v=64
76363 On ch=1 n=d#5 v=0
76363 On ch=1 n=f#4 v=0
76365 On ch=1 n=d#4 v=64
76365 On ch=1 n=f#5 v=64
76403 On ch=1 n=f#5 v=0
76403 On ch=1 n=d#4 v=0
76405 On ch=1 n=f#4 v=64
76405 On ch=1 n=d#5 v=64
76443 On ch=1 n=d#5 v=0
76443 On ch=1 n=f#4 v=0
76445 On ch=1 n=d#4 v=64
76445 On ch=1 n=f#5 v=64
76483 On ch=1 n=f#5 v=0
76483 On ch=1 n=d#4 v=0
76483 On ch=1 n=f#4 v=0
76483 On ch=1 n=f#4 v=0
76485 On ch=1 n=d#5 v=64
76485 On ch=1 n=d#5 v=64
76543 On ch=1 n=d#5 v=0
76543 On ch=1 n=d#5 v=0
76605 Par ch=1 c=64 v=0
76717 Par ch=1 c=64 v=96
76725 Par ch=1 c=7 v=120
76725 On ch=1 n=f#4 v=64
76725 On ch=1 n=a#3 v=64
76725 On ch=1 n=f#3 v=64
76725 On ch=1 n=f#4 v=64
76725 On ch=1 n=a#3 v=64
76725 On ch=1 n=f#3 v=64
76752 On ch=1 n=a4 v=64
76776 On ch=1 n=a4 v=0
76778 On ch=1 n=a#4 v=64
76803 On ch=1 n=a#4 v=0
76805 On ch=1 n=b4 v=64
76830 On ch=1 n=b4 v=0
76832 On ch=1 n=c5 v=64
76856 On ch=1 n=c5 v=0
76858 On ch=1 n=c#5 v=64
76883 On ch=1 n=c#5 v=0
76885 On ch=1 n=d5 v=64
76910 On ch=1 n=d5 v=0
76912 On ch=1 n=d#5 v=64
76936 On ch=1 n=d#5 v=0
76938 On ch=1 n=e5 v=64
76963 On ch=1 n=e5 v=0
76963 On ch=1 n=f#3 v=0
76963 On ch=1 n=a#3 v=0
76963 On ch=1 n=f#4 v=0
76963 On ch=1 n=f#3 v=0
76963 On ch=1 n=a#3 v=0
76963 On ch=1 n=f#4 v=0
76965 On ch=1 n=f4 v=64
76965 On ch=1 n=a#3 v=64
76965 On ch=1 n=f3 v=64
76965 On ch=1 n=f4 v=64
76965 On ch=1 n=a#3 v=64
76965 On ch=1 n=f3 v=64
76965 On ch=1 n=f5 v=64
76990 On ch=1 n=f5 v=0
76992 On ch=1 n=f#5 v=64
77016 On ch=1 n=f#5 v=0
77018 On ch=1 n=g5 v=64
77043 On ch=1 n=g5 v=0
77045 On ch=1 n=g#5 v=64
77070 On ch=1 n=g#5 v=0
77072 On ch=1 n=a5 v=64
77096 On ch=1 n=a5 v=0
77098 On ch=1 n=a#5 v=64
77123 On ch=1 n=a#5 v=0
77125 On ch=1 n=b5 v=64
77150 On ch=1 n=b5 v=0
77152 On ch=1 n=c6 v=64
77176 On ch=1 n=c6 v=0
77178 On ch=1 n=c#6 v=64
77203 On ch=1 n=c#6 v=0
77203 On ch=1 n=f3 v=0
77203 On ch=1 n=a#3 v=0
77203 On ch=1 n=f4 v=0
77203 On ch=1 n=f3 v=0
77203 On ch=1 n=a#3 v=0
77203 On ch=1 n=f4 v=0
77205 On ch=1 n=d#4 v=64
77205 On ch=1 n=f#3 v=64
77205 On ch=1 n=d#3 v=64
77205 On ch=1 n=a3 v=64
77205 On ch=1 n=d#4 v=64
77205 On ch=1 n=f#3 v=64
77205 On ch=1 n=d#3 v=64
77205 On ch=1 n=a3 v=64
77205 On ch=1 n=d6 v=64
77230 On ch=1 n=d6 v=0
77232 On ch=1 n=d#6 v=64
77256 On ch=1 n=d#6 v=0
77258 On ch=1 n=e6 v=64
77283 On ch=1 n=e6 v=0
77285 On ch=1 n=f6 v=64
77310 On ch=1 n=f6 v=0
77312 On ch=1 n=f#6 v=64
77336 On ch=1 n=f#6 v=0
77338 On ch=1 n=g6 v=64
77363 On ch=1 n=g6 v=0
77365 On ch=1 n=g#6 v=64
77390 On ch=1 n=g#6 v=0
77392 On ch=1 n=a6 v=64
77416 On ch=1 n=a6 v=0
77418 On ch=1 n=a#6 v=64
77443 On ch=1 n=a#6 v=0
77443 On ch=1 n=a3 v=0
77443 On ch=1 n=d#3 v=0
77443 On ch=1 n=f#3 v=0
77443 On ch=1 n=d#4 v=0
77443 On ch=1 n=a3 v=0
77443 On ch=1 n=d#3 v=0
77443 On ch=1 n=f#3 v=0
77443 On ch=1 n=d#4 v=0
77445 On ch=1 n=c#4 v=64
77445 On ch=1 n=f3 v=64
77445 On ch=1 n=c#3 v=64
77445 On ch=1 n=a3 v=64
77445 On ch=1 n=c#4 v=64
77445 On ch=1 n=f3 v=64
77445 On ch=1 n=c#3 v=64
77445 On ch=1 n=a3 v=64
77445 On ch=1 n=b6 v=64
77470 On ch=1 n=b6 v=0
77472 On ch=1 n=c7 v=64
77496 On ch=1 n=c7 v=0
77498 On ch=1 n=c#7 v=64
77523 On ch=1 n=c#7 v=0
77525 On ch=1 n=d7 v=64
77550 On ch=1 n=d7 v=0
77552 On ch=1 n=d#7 v=64
77576 On ch=1 n=d#7 v=0
77578 On ch=1 n=e7 v=64
77603 On ch=1 n=e7 v=0
77605 On ch=1 n=f7 v=64
77630 On ch=1 n=f7 v=0
77632 On ch=1 n=f#7 v=64
77656 On ch=1 n=f#7 v=0
77658 On ch=1 n=g7 v=64
77683 On ch=1 n=g7 v=0
77683 On ch=1 n=a3 v=0
77683 On ch=1 n=c#3 v=0
77683 On ch=1 n=f3 v=0
77683 On ch=1 n=c#4 v=0
77683 On ch=1 n=a3 v=0
77683 On ch=1 n=c#3 v=0
77683 On ch=1 n=f3 v=0
77683 On ch=1 n=c#4 v=0
77685 Par ch=1 c=7 v=120
77685 On ch=1 n=c4 v=64
77685 On ch=1 n=f3 v=64
77685 On ch=1 n=d#3 v=64
77685 On ch=1 n=c3 v=64
77685 On ch=1 n=a3 v=64
77685 On ch=1 n=c4 v=64
77685 On ch=1 n=f3 v=64
77685 On ch=1 n=d#3 v=64
77685 On ch=1 n=c3 v=64
77685 On ch=1 n=a3 v=64
77685 On ch=1 n=g#7 v=64
77710 On ch=1 n=g#7 v=0
77712 On ch=1 n=a7 v=64
77732 Par ch=1 c=7 v=121
77736 On ch=1 n=a7 v=0
77738 On ch=1 n=a#7 v=64
77763 On ch=1 n=a#7 v=0
77765 On ch=1 n=b7 v=64
77780 Par ch=1 c=7 v=122
77790 On ch=1 n=b7 v=0
77792 On ch=1 n=c8 v=64
77816 On ch=1 n=c8 v=0
77818 On ch=1 n=c#8 v=64
77828 Par ch=1 c=7 v=123
77843 On ch=1 n=c#8 v=0
77845 On ch=1 n=d8 v=64
77870 On ch=1 n=d8 v=0
77872 On ch=1 n=d#8 v=64
77876 Par ch=1 c=7 v=124
77896 On ch=1 n=d#8 v=0
77898 On ch=1 n=e8 v=64
77923 On ch=1 n=e8 v=0
77923 On ch=1 n=a3 v=0
77923 On ch=1 n=c3 v=0
77923 On ch=1 n=d#3 v=0
77923 On ch=1 n=f3 v=0
77923 On ch=1 n=c4 v=0
77923 On ch=1 n=a3 v=0
77923 On ch=1 n=c3 v=0
77923 On ch=1 n=d#3 v=0
77923 On ch=1 n=f3 v=0
77923 On ch=1 n=c4 v=0
77924 Par ch=1 c=7 v=125
77925 On ch=1 n=a#3 v=64
77925 On ch=1 n=c#3 v=64
77925 On ch=1 n=a#2 v=64
77925 On ch=1 n=f8 v=64
77925 On ch=1 n=a#7 v=64
77925 On ch=1 n=f7 v=64
77925 On ch=1 n=a#3 v=64
77925 On ch=1 n=c#3 v=64
77925 On ch=1 n=a#2 v=64
77925 On ch=1 n=f8 v=64
77925 On ch=1 n=a#7 v=64
77925 On ch=1 n=f7 v=64
78043 On ch=1 n=f7 v=0
78043 On ch=1 n=a#7 v=0
78043 On ch=1 n=f8 v=0
78043 On ch=1 n=a#2 v=0
78043 On ch=1 n=c#3 v=0
78043 On ch=1 n=a#3 v=0
78043 On ch=1 n=f7 v=0
78043 On ch=1 n=a#7 v=0
78043 On ch=1 n=f8 v=0
78043 On ch=1 n=a#2 v=0
78043 On ch=1 n=c#3 v=0
78043 On ch=1 n=a#3 v=0
78045 Par ch=1 c=64 v=0
78157 Par ch=1 c=64 v=96
78165 Par ch=1 c=7 v=110
78165 On ch=1 n=c#5 v=64
78165 On ch=1 n=a#4 v=64
78165 On ch=1 n=f#4 v=64
78165 On ch=1 n=f#4 v=64
78203 On ch=1 n=a#4 v=0
78203 On ch=1 n=c#5 v=0
78205 On ch=1 n=c#4 v=64
78205 On ch=1 n=f5 v=64
78243 On ch=1 n=f5 v=0
78243 On ch=1 n=c#4 v=0
78245 On ch=1 n=f#4 v=64
78245 On ch=1 n=c#5 v=64
78245 On ch=1 n=a#4 v=64
78283 On ch=1 n=a#4 v=0
78283 On ch=1 n=c#5 v=0
78283 On ch=1 n=f#4 v=0
78285 On ch=1 n=c#4 v=64
78285 On ch=1 n=f5 v=64
78323 On ch=1 n=f5 v=0
78323 On ch=1 n=c#4 v=0
78325 On ch=1 n=f#4 v=64
78325 On ch=1 n=c#5 v=64
78325 On ch=1 n=a#4 v=64
78363 On ch=1 n=a#4 v=0
78363 On ch=1 n=c#5 v=0
78363 On ch=1 n=f#4 v=0
78365 On ch=1 n=c#4 v=64
78365 On ch=1 n=f5 v=64
78403 On ch=1 n=f5 v=0
78403 On ch=1 n=c#4 v=0
78403 On ch=1 n=f#4 v=0
78403 On ch=1 n=f#4 v=0
78405 On ch=1 n=c#5 v=64
78405 On ch=1 n=a#4 v=64
78405 On ch=1 n=f4 v=64
78405 On ch=1 n=f4 v=64
78443 On ch=1 n=a#4 v=0
78443 On ch=1 n=c#5 v=0
78445 On ch=1 n=c#4 v=64
78445 On ch=1 n=f5 v=64
78483 On ch=1 n=f5 v=0
78483 On ch=1 n=c#4 v=0
78485 On ch=1 n=f4 v=64
78485 On ch=1 n=c#5 v=64
78485 On ch=1 n=a#4 v=64
78523 On ch=1 n=a#4 v=0
78523 On ch=1 n=c#5 v=0
78523 On ch=1 n=f4 v=0
78525 On ch=1 n=c#4 v=64
78525 On ch=1 n=f5 v=64
78563 On ch=1 n=f5 v=0
78563 On ch=1 n=c#4 v=0
78565 On ch=1 n=f4 v=64
78565 On ch=1 n=c#5 v=64
78565 On ch=1 n=a#4 v=64
78603 On ch=1 n=a#4 v=0
78603 On ch=1 n=c#5 v=0
78603 On ch=1 n=f4 v=0
78605 On ch=1 n=c#4 v=64
78605 On ch=1 n=f5 v=64
78643 On ch=1 n=f5 v=0
78643 On ch=1 n=c#4 v=0
78643 On ch=1 n=f4 v=0
78643 On ch=1 n=f4 v=0
78645 On ch=1 n=c#5 v=64
78645 On ch=1 n=a#4 v=64
78645 On ch=1 n=e4 v=64
78645 On ch=1 n=e4 v=64
78683 On ch=1 n=a#4 v=0
78683 On ch=1 n=c#5 v=0
78685 On ch=1 n=c#4 v=64
78685 On ch=1 n=f5 v=64
78723 On ch=1 n=f5 v=0
78723 On ch=1 n=c#4 v=0
78725 On ch=1 n=c#5 v=64
78725 On ch=1 n=a#4 v=64
78725 On ch=1 n=e4 v=64
78763 On ch=1 n=a#4 v=0
78763 On ch=1 n=c#5 v=0
78763 On ch=1 n=e4 v=0
78765 On ch=1 n=c#4 v=64
78765 On ch=1 n=f5 v=64
78803 On ch=1 n=f5 v=0
78803 On ch=1 n=c#4 v=0
78805 On ch=1 n=c#5 v=64
78805 On ch=1 n=a#4 v=64
78805 On ch=1 n=e4 v=64
78843 On ch=1 n=a#4 v=0
78843 On ch=1 n=c#5 v=0
78843 On ch=1 n=e4 v=0
78845 On ch=1 n=c#4 v=64
78845 On ch=1 n=f5 v=64
78883 On ch=1 n=f5 v=0
78883 On ch=1 n=c#4 v=0
78883 On ch=1 n=e4 v=0
78883 On ch=1 n=e4 v=0
78885 On ch=1 n=c#5 v=64
78885 On ch=1 n=a#4 v=64
78885 On ch=1 n=f4 v=64
78885 On ch=1 n=f4 v=64
78923 On ch=1 n=a#4 v=0
78923 On ch=1 n=c#5 v=0
78925 On ch=1 n=c#4 v=64
78925 On ch=1 n=f5 v=64
78963 On ch=1 n=f5 v=0
78963 On ch=1 n=c#4 v=0
78965 On ch=1 n=f4 v=64
78965 On ch=1 n=c#5 v=64
78965 On ch=1 n=a#4 v=64
79003 On ch=1 n=a#4 v=0
79003 On ch=1 n=c#5 v=0
79003 On ch=1 n=f4 v=0
79005 On ch=1 n=c#4 v=64
79005 On ch=1 n=f5 v=64
79043 On ch=1 n=f5 v=0
79043 On ch=1 n=c#4 v=0
79045 On ch=1 n=f4 v=64
79045 On ch=1 n=c#5 v=64
79045 On ch=1 n=a#4 v=64
79083 On ch=1 n=a#4 v=0
79083 On ch=1 n=c#5 v=0
79083 On ch=1 n=f4 v=0
79085 On ch=1 n=c#4 v=64
79085 On ch=1 n=f5 v=64
79123 On ch=1 n=f5 v=0
79123 On ch=1 n=c#4 v=0
79123 On ch=1 n=f4 v=0
79123 On ch=1 n=f4 v=0
79125 On ch=1 n=f4 v=64
79125 On ch=1 n=c#5 v=64
79125 On ch=1 n=c#5 v=64
79163 On ch=1 n=f4 v=0
79165 On ch=1 n=c#4 v=64
79165 On ch=1 n=f5 v=64
79203 On ch=1 n=f5 v=0
79203 On ch=1 n=c#4 v=0
79205 On ch=1 n=f4 v=64
79205 On ch=1 n=c#5 v=64
79243 On ch=1 n=f4 v=0
79243 On ch=1 n=c#5 v=0
79245 On ch=1 n=c#4 v=64
79245 On ch=1 n=f5 v=64
79283 On ch=1 n=f5 v=0
79283 On ch=1 n=c#4 v=0
79285 On ch=1 n=f4 v=64
79285 On ch=1 n=c#5 v=64
79323 On ch=1 n=f4 v=0
79323 On ch=1 n=c#5 v=0
79325 On ch=1 n=c#4 v=64
79325 On ch=1 n=f5 v=64
79363 On ch=1 n=f5 v=0
79363 On ch=1 n=c#4 v=0
79363 On ch=1 n=c#5 v=0
79363 On ch=1 n=c#5 v=0
79365 On ch=1 n=a#3 v=64
79365 On ch=1 n=a#4 v=64
79365 On ch=1 n=a#3 v=64
79365 On ch=1 n=a#4 v=64
79423 On ch=1 n=a#4 v=0
79423 On ch=1 n=a#3 v=0
79423 On ch=1 n=a#4 v=0
79423 On ch=1 n=a#3 v=0
79485 Par ch=1 c=64 v=0
79597 Par ch=1 c=64 v=96
79605 Tempo 1304348
79605 Par ch=1 c=7 v=120
79605 On ch=1 n=c#3 v=64
79605 On ch=1 n=c#4 v=64
79605 On ch=1 n=c#3 v=64
79605 On ch=1 n=c#4 v=64
79663 On ch=1 n=c#4 v=0
79663 On ch=1 n=c#3 v=0
79663 On ch=1 n=c#4 v=0
79663 On ch=1 n=c#3 v=0
79665 On ch=1 n=c#6 v=64
79665 On ch=1 n=c#7 v=64
79665 On ch=1 n=c#6 v=64
79665 On ch=1 n=c#7 v=64
79723 On ch=1 n=c#7 v=0
79723 On ch=1 n=c#6 v=0
79723 On ch=1 n=c#7 v=0
79723 On ch=1 n=c#6 v=0
79725 On ch=1 n=c#5 v=64
79725 On ch=1 n=c#5 v=64
79783 On ch=1 n=c#5 v=0
79783 On ch=1 n=c#5 v=0
79785 On ch=1 n=c#5 v=64
79785 On ch=1 n=c#5 v=64
79843 On ch=1 n=c#5 v=0
79843 On ch=1 n=c#5 v=0
79845 On ch=1 n=c3 v=64
79845 On ch=1 n=c4 v=64
79845 On ch=1 n=c3 v=64
79845 On ch=1 n=c4 v=64
79903 On ch=1 n=c4 v=0
79903 On ch=1 n=c3 v=0
79903 On ch=1 n=c4 v=0
79903 On ch=1 n=c3 v=0
79905 On ch=1 n=c6 v=64
79905 On ch=1 n=c7 v=64
79905 On ch=1 n=c6 v=64
79905 On ch=1 n=c7 v=64
79963 On ch=1 n=c7 v=0
79963 On ch=1 n=c6 v=0
79963 On ch=1 n=c7 v=0
79963 On ch=1 n=c6 v=0
79965 On ch=1 n=c5 v=64
79965 On ch=1 n=c5 v=64
80023 On ch=1 n=c5 v=0
80023 On ch=1 n=c5 v=0
80025 On ch=1 n=c5 v=64
80025 On ch=1 n=c5 v=64
80045 Par ch=1 c=64 v=0
80077 Par ch=1 c=64 v=96
80083 On ch=1 n=c5 v=0
80083 On ch=1 n=c5 v=0
80085 On ch=1 n=a#2 v=64
80085 On ch=1 n=a#3 v=64
80085 On ch=1 n=a#2 v=64
80085 On ch=1 n=a#3 v=64
80143 On ch=1 n=a#3 v=0
80143 On ch=1 n=a#2 v=0
80143 On ch=1 n=a#3 v=0
80143 On ch=1 n=a#2 v=0
80145 On ch=1 n=a#5 v=64
80145 On ch=1 n=a#6 v=64
80145 On ch=1 n=a#5 v=64
80145 On ch=1 n=a#6 v=64
80203 On ch=1 n=a#6 v=0
80203 On ch=1 n=a#5 v=0
80203 On ch=1 n=a#6 v=0
80203 On ch=1 n=a#5 v=0
80205 On ch=1 n=a#4 v=64
80205 On ch=1 n=a#4 v=64
80263 On ch=1 n=a#4 v=0
80263 On ch=1 n=a#4 v=0
80265 On ch=1 n=a#4 v=64
80265 On ch=1 n=a#4 v=64
80323 On ch=1 n=a#4 v=0
80323 On ch=1 n=a#4 v=0
80325 On ch=1 n=a3 v=64
80325 On ch=1 n=a2 v=64
80325 On ch=1 n=a3 v=64
80325 On ch=1 n=a2 v=64
80383 On ch=1 n=a2 v=0
80383 On ch=1 n=a3 v=0
80383 On ch=1 n=a2 v=0
80383 On ch=1 n=a3 v=0
80385 On ch=1 n=a6 v=64
80385 On ch=1 n=a5 v=64
80385 On ch=1 n=a6 v=64
80385 On ch=1 n=a5 v=64
80443 On ch=1 n=a5 v=0
80443 On ch=1 n=a6 v=0
80443 On ch=1 n=a5 v=0
80443 On ch=1 n=a6 v=0
80445 On ch=1 n=a4 v=64
80445 On ch=1 n=a4 v=64
80503 On ch=1 n=a4 v=0
80503 On ch=1 n=a4 v=0
80505 On ch=1 n=a4 v=64
80505 On ch=1 n=a4 v=64
80563 On ch=1 n=a4 v=0
80563 On ch=1 n=a4 v=0
80565 On ch=1 n=a#2 v=64
80565 On ch=1 n=a#3 v=64
80565 On ch=1 n=a#2 v=64
80565 On ch=1 n=a#3 v=64
80623 On ch=1 n=a#3 v=0
80623 On ch=1 n=a#2 v=0
80623 On ch=1 n=a#3 v=0
80623 On ch=1 n=a#2 v=0
80625 On ch=1 n=a#5 v=64
80625 On ch=1 n=a#6 v=64
80625 On ch=1 n=a#5 v=64
80625 On ch=1 n=a#6 v=64
80683 On ch=1 n=a#6 v=0
80683 On ch=1 n=a#5 v=0
80683 On ch=1 n=a#6 v=0
80683 On ch=1 n=a#5 v=0
80685 On ch=1 n=a#4 v=64
80685 On ch=1 n=a#4 v=64
80743 On ch=1 n=a#4 v=0
80743 On ch=1 n=a#4 v=0
80745 On ch=1 n=a#4 v=64
80745 On ch=1 n=a#4 v=64
80803 On ch=1 n=a#4 v=0
80803 On ch=1 n=a#4 v=0
80805 On ch=1 n=d#3 v=64
80805 On ch=1 n=d#4 v=64
80805 On ch=1 n=d#3 v=64
80805 On ch=1 n=d#4 v=64
80863 On ch=1 n=d#4 v=0
80863 On ch=1 n=d#3 v=0
80863 On ch=1 n=d#4 v=0
80863 On ch=1 n=d#3 v=0
80865 On ch=1 n=d#7 v=64
80865 On ch=1 n=d#6 v=64
80865 On ch=1 n=d#7 v=64
80865 On ch=1 n=d#6 v=64
80923 On ch=1 n=d#6 v=0
80923 On ch=1 n=d#7 v=0
80923 On ch=1 n=d#6 v=0
80923 On ch=1 n=d#7 v=0
80925 Par ch=1 c=64 v=0
81037 Par ch=1 c=64 v=96
81045 Tempo 1428571
81045 Par ch=1 c=7 v=110
81045 On ch=1 n=b5 v=64
81045 On ch=1 n=b5 v=64
81045 On ch=1 n=f#4 v=64
81045 On ch=1 n=d#5 v=64
81045 On ch=1 n=b4 v=64
81045 On ch=1 n=b4 v=64
81083 On ch=1 n=d#5 v=0
81083 On ch=1 n=f#4 v=0
81085 On ch=1 n=d#4 v=64
81085 On ch=1 n=f#5 v=64
81123 On ch=1 n=f#5 v=0
81123 On ch=1 n=d#4 v=0
81125 On ch=1 n=f#4 v=64
81125 On ch=1 n=d#5 v=64
81163 On ch=1 n=d#5 v=0
81163 On ch=1 n=f#4 v=0
81165 On ch=1 n=d#4 v=64
81165 On ch=1 n=f#5 v=64
81203 On ch=1 n=f#5 v=0
81203 On ch=1 n=d#4 v=0
81205 On ch=1 n=f#4 v=64
81205 On ch=1 n=d#5 v=64
81243 On ch=1 n=d#5 v=0
81243 On ch=1 n=f#4 v=0
81245 On ch=1 n=d#4 v=64
81245 On ch=1 n=f#5 v=64
81283 On ch=1 n=f#5 v=0
81283 On ch=1 n=d#4 v=0
81283 On ch=1 n=b4 v=0
81283 On ch=1 n=b4 v=0
81283 On ch=1 n=b5 v=0
81283 On ch=1 n=b5 v=0
81285 On ch=1 n=a#5 v=64
81285 On ch=1 n=a#5 v=64
81285 On ch=1 n=f#4 v=64
81285 On ch=1 n=d#5 v=64
81285 On ch=1 n=a#4 v=64
81285 On ch=1 n=a#4 v=64
81323 On ch=1 n=d#5 v=0
81323 On ch=1 n=f#4 v=0
81325 On ch=1 n=d#4 v=64
81325 On ch=1 n=f#5 v=64
81363 On ch=1 n=f#5 v=0
81363 On ch=1 n=d#4 v=0
81365 On ch=1 n=f#4 v=64
81365 On ch=1 n=d#5 v=64
81403 On ch=1 n=d#5 v=0
81403 On ch=1 n=f#4 v=0
81405 On ch=1 n=d#4 v=64
81405 On ch=1 n=f#5 v=64
81443 On ch=1 n=f#5 v=0
81443 On ch=1 n=d#4 v=0
81445 On ch=1 n=f#4 v=64
81445 On ch=1 n=d#5 v=64
81483 On ch=1 n=d#5 v=0
81483 On ch=1 n=f#4 v=0
81485 On ch=1 n=d#4 v=64
81485 On ch=1 n=f#5 v=64
81523 On ch=1 n=f#5 v=0
81523 On ch=1 n=d#4 v=0
81523 On ch=1 n=a#4 v=0
81523 On ch=1 n=a#4 v=0
81523 On ch=1 n=a#5 v=0
81523 On ch=1 n=a#5 v=0
81525 On ch=1 n=a5 v=64
81525 On ch=1 n=a5 v=64
81525 On ch=1 n=f#4 v=64
81525 On ch=1 n=d#5 v=64
81525 On ch=1 n=a4 v=64
81525 On ch=1 n=a4 v=64
81563 On ch=1 n=d#5 v=0
81563 On ch=1 n=f#4 v=0
81565 On ch=1 n=d#4 v=64
81565 On ch=1 n=f#5 v=64
81603 On ch=1 n=f#5 v=0
81603 On ch=1 n=d#4 v=0
81605 On ch=1 n=f#4 v=64
81605 On ch=1 n=d#5 v=64
81643 On ch=1 n=d#5 v=0
81643 On ch=1 n=f#4 v=0
81645 On ch=1 n=d#4 v=64
81645 On ch=1 n=f#5 v=64
81683 On ch=1 n=f#5 v=0
81683 On ch=1 n=d#4 v=0
81685 On ch=1 n=f#4 v=64
81685 On ch=1 n=d#5 v=64
81723 On ch=1 n=d#5 v=0
81723 On ch=1 n=f#4 v=0
81725 On ch=1 n=d#4 v=64
81725 On ch=1 n=f#5 v=64
81763 On ch=1 n=f#5 v=0
81763 On ch=1 n=d#4 v=0
81763 On ch=1 n=a4 v=0
81763 On ch=1 n=a4 v=0
81763 On ch=1 n=a5 v=0
81763 On ch=1 n=a5 v=0
81765 On ch=1 n=a#5 v=64
81765 On ch=1 n=a#5 v=64
81765 On ch=1 n=f#4 v=64
81765 On ch=1 n=d#5 v=64
81765 On ch=1 n=a#4 v=64
81765 On ch=1 n=a#4 v=64
81803 On ch=1 n=d#5 v=0
81803 On ch=1 n=f#4 v=0
81805 On ch=1 n=d#4 v=64
81805 On ch=1 n=f#5 v=64
81843 On ch=1 n=f#5 v=0
81843 On ch=1 n=d#4 v=0
81845 On ch=1 n=f#4 v=64
81845 On ch=1 n=d#5 v=64
81883 On ch=1 n=d#5 v=0
81883 On ch=1 n=f#4 v=0
81885 On ch=1 n=d#4 v=64
81885 On ch=1 n=f#5 v=64
81923 On ch=1 n=f#5 v=0
81923 On ch=1 n=d#4 v=0
81925 On ch=1 n=f#4 v=64
81925 On ch=1 n=d#5 v=64
81963 On ch=1 n=d#5 v=0
81963 On ch=1 n=f#4 v=0
81965 On ch=1 n=d#4 v=64
81965 On ch=1 n=f#5 v=64
82003 On ch=1 n=f#5 v=0
82003 On ch=1 n=d#4 v=0
82003 On ch=1 n=a#4 v=0
82003 On ch=1 n=a#4 v=0
82003 On ch=1 n=a#5 v=0
82003 On ch=1 n=a#5 v=0
82005 On ch=1 n=d#5 v=64
82005 On ch=1 n=f#4 v=64
82005 On ch=1 n=f#4 v=64
82043 On ch=1 n=d#5 v=0
82045 On ch=1 n=d#4 v=64
82045 On ch=1 n=f#5 v=64
82083 On ch=1 n=f#5 v=0
82083 On ch=1 n=d#4 v=0
82085 On ch=1 n=f#4 v=64
82085 On ch=1 n=d#5 v=64
82123 On ch=1 n=d#5 v=0
82123 On ch=1 n=f#4 v=0
82125 On ch=1 n=d#4 v=64
82125 On ch=1 n=f#5 v=64
82163 On ch=1 n=f#5 v=0
82163 On ch=1 n=d#4 v=0
82165 On ch=1 n=f#4 v=64
82165 On ch=1 n=d#5 v=64
82203 On ch=1 n=d#5 v=0
82203 On ch=1 n=f#4 v=0
82205 On ch=1 n=d#4 v=64
82205 On ch=1 n=f#5 v=64
82243 On ch=1 n=f#5 v=0
82243 On ch=1 n=d#4 v=0
82243 On ch=1 n=f#4 v=0
82243 On ch=1 n=f#4 v=0
82245 On ch=1 n=d#5 v=64
82245 On ch=1 n=d#5 v=64
82363 On ch=1 n=d#5 v=0
82363 On ch=1 n=d#5 v=0
82365 Par ch=1 c=64 v=0
82477 Par ch=1 c=64 v=96
82485 Tempo 1304348
82485 Par ch=1 c=7 v=120
82485 On ch=1 n=f#3 v=64
82485 On ch=1 n=f#4 v=64
82485 On ch=1 n=f#3 v=64
82485 On ch=1 n=f#4 v=64
82543 On ch=1 n=f#4 v=0
82543 On ch=1 n=f#3 v=0
82543 On ch=1 n=f#4 v=0
82543 On ch=1 n=f#3 v=0
82545 On ch=1 n=f#6 v=64
82545 On ch=1 n=f#7 v=64
82545 On ch=1 n=f#6 v=64
82545 On ch=1 n=f#7 v=64
82603 On ch=1 n=f#7 v=0
82603 On ch=1 n=f#6 v=0
82603 On ch=1 n=f#7 v=0
82603 On ch=1 n=f#6 v=0
82605 On ch=1 n=f#5 v=64
82605 On ch=1 n=f#5 v=64
82663 On ch=1 n=f#5 v=0
82663 On ch=1 n=f#5 v=0
82665 On ch=1 n=f#5 v=64
82665 On ch=1 n=f#5 v=64
82723 On ch=1 n=f#5 v=0
82723 On ch=1 n=f#5 v=0
82725 On ch=1 n=f3 v=64
82725 On ch=1 n=f4 v=64
82725 On ch=1 n=f3 v=64
82725 On ch=1 n=f4 v=64
82783 On ch=1 n=f4 v=0
82783 On ch=1 n=f3 v=0
82783 On ch=1 n=f4 v=0
82783 On ch=1 n=f3 v=0
82785 On ch=1 n=f6 v=64
82785 On ch=1 n=f7 v=64
82785 On ch=1 n=f6 v=64
82785 On ch=1 n=f7 v=64
82843 On ch=1 n=f7 v=0
82843 On ch=1 n=f6 v=0
82843 On ch=1 n=f7 v=0
82843 On ch=1 n=f6 v=0
82845 On ch=1 n=f5 v=64
82845 On ch=1 n=f5 v=64
82903 On ch=1 n=f5 v=0
82903 On ch=1 n=f5 v=0
82905 On ch=1 n=f5 v=64
82905 On ch=1 n=f5 v=64
82925 Par ch=1 c=64 v=0
82957 Par ch=1 c=64 v=96
82963 On ch=1 n=f5 v=0
82963 On ch=1 n=f5 v=0
82965 On ch=1 n=d#3 v=64
82965 On ch=1 n=d#4 v=64
82965 On ch=1 n=d#3 v=64
82965 On ch=1 n=d#4 v=64
83023 On ch=1 n=d#4 v=0
83023 On ch=1 n=d#3 v=0
83023 On ch=1 n=d#4 v=0
83023 On ch=1 n=d#3 v=0
83025 On ch=1 n=d#6 v=64
83025 On ch=1 n=d#7 v=64
83025 On ch=1 n=d#6 v=64
83025 On ch=1 n=d#7 v=64
83083 On ch=1 n=d#7 v=0
83083 On ch=1 n=d#6 v=0
83083 On ch=1 n=d#7 v=0
83083 On ch=1 n=d#6 v=0
83085 On ch=1 n=d#5 v=64
83085 On ch=1 n=d#5 v=64
83143 On ch=1 n=d#5 v=0
83143 On ch=1 n=d#5 v=0
83145 On ch=1 n=d#5 v=64
83145 On ch=1 n=d#5 v=64
83203 On ch=1 n=d#5 v=0
83203 On ch=1 n=d#5 v=0
83205 On ch=1 n=c#3 v=64
83205 On ch=1 n=c#4 v=64
83205 On ch=1 n=c#3 v=64
83205 On ch=1 n=c#4 v=64
83263 On ch=1 n=c#4 v=0
83263 On ch=1 n=c#3 v=0
83263 On ch=1 n=c#4 v=0
83263 On ch=1 n=c#3 v=0
83265 On ch=1 n=c#6 v=64
83265 On ch=1 n=c#7 v=64
83265 On ch=1 n=c#6 v=64
83265 On ch=1 n=c#7 v=64
83323 On ch=1 n=c#7 v=0
83323 On ch=1 n=c#6 v=0
83323 On ch=1 n=c#7 v=0
83323 On ch=1 n=c#6 v=0
83325 On ch=1 n=c#5 v=64
83325 On ch=1 n=c#5 v=64
83383 On ch=1 n=c#5 v=0
83383 On ch=1 n=c#5 v=0
83385 On ch=1 n=c#5 v=64
83385 On ch=1 n=c#5 v=64
83443 On ch=1 n=c#5 v=0
83443 On ch=1 n=c#5 v=0
83445 On ch=1 n=c3 v=64
83445 On ch=1 n=c4 v=64
83445 On ch=1 n=c3 v=64
83445 On ch=1 n=c4 v=64
83503 On ch=1 n=c4 v=0
83503 On ch=1 n=c3 v=0
83503 On ch=1 n=c4 v=0
83503 On ch=1 n=c3 v=0
83505 On ch=1 n=c6 v=64
83505 On ch=1 n=c7 v=64
83505 On ch=1 n=c6 v=64
83505 On ch=1 n=c7 v=64
83563 On ch=1 n=c7 v=0
83563 On ch=1 n=c6 v=0
83563 On ch=1 n=c7 v=0
83563 On ch=1 n=c6 v=0
83565 On ch=1 n=c5 v=64
83565 On ch=1 n=c5 v=64
83623 On ch=1 n=c5 v=0
83623 On ch=1 n=c5 v=0
83625 On ch=1 n=c5 v=64
83625 On ch=1 n=c5 v=64
83683 On ch=1 n=c5 v=0
83683 On ch=1 n=c5 v=0
83685 On ch=1 n=a#2 v=64
83685 On ch=1 n=a#3 v=64
83685 On ch=1 n=a#2 v=64
83685 On ch=1 n=a#3 v=64
83743 On ch=1 n=a#3 v=0
83743 On ch=1 n=a#2 v=0
83743 On ch=1 n=a#3 v=0
83743 On ch=1 n=a#2 v=0
83745 On ch=1 n=a#6 v=64
83745 On ch=1 n=a#5 v=64
83745 On ch=1 n=a#6 v=64
83745 On ch=1 n=a#5 v=64
83803 On ch=1 n=a#5 v=0
83803 On ch=1 n=a#6 v=0
83803 On ch=1 n=a#5 v=0
83803 On ch=1 n=a#6 v=0
83805 Par ch=1 c=64 v=0
83917 Par ch=1 c=64 v=96
83925 Tempo 1428571
83925 Par ch=1 c=7 v=110
83925 On ch=1 n=c#5 v=64
83925 On ch=1 n=a#4 v=64
83925 On ch=1 n=f#4 v=64
83925 On ch=1 n=f#4 v=64
83963 On ch=1 n=a#4 v=0
83963 On ch=1 n=c#5 v=0
83965 On ch=1 n=c#4 v=64
83965 On ch=1 n=f5 v=64
84003 On ch=1 n=f5 v=0
84003 On ch=1 n=c#4 v=0
84005 On ch=1 n=f#4 v=64
84005 On ch=1 n=c#5 v=64
84005 On ch=1 n=a#4 v=64
84043 On ch=1 n=a#4 v=0
84043 On ch=1 n=c#5 v=0
84043 On ch=1 n=f#4 v=0
84045 On ch=1 n=c#4 v=64
84045 On ch=1 n=f5 v=64
84083 On ch=1 n=f5 v=0
84083 On ch=1 n=c#4 v=0
84085 On ch=1 n=f#4 v=64
84085 On ch=1 n=c#5 v=64
84085 On ch=1 n=a#4 v=64
84123 On ch=1 n=a#4 v=0
84123 On ch=1 n=c#5 v=0
84123 On ch=1 n=f#4 v=0
84125 On ch=1 n=c#4 v=64
84125 On ch=1 n=f5 v=64
84163 On ch=1 n=f5 v=0
84163 On ch=1 n=c#4 v=0
84163 On ch=1 n=f#4 v=0
84163 On ch=1 n=f#4 v=0
84165 On ch=1 n=c#5 v=64
84165 On ch=1 n=a#4 v=64
84165 On ch=1 n=f4 v=64
84165 On ch=1 n=f4 v=64
84203 On ch=1 n=a#4 v=0
84203 On ch=1 n=c#5 v=0
84205 On ch=1 n=c#4 v=64
84205 On ch=1 n=f5 v=64
84243 On ch=1 n=f5 v=0
84243 On ch=1 n=c#4 v=0
84245 On ch=1 n=f4 v=64
84245 On ch=1 n=c#5 v=64
84245 On ch=1 n=a#4 v=64
84283 On ch=1 n=a#4 v=0
84283 On ch=1 n=c#5 v=0
84283 On ch=1 n=f4 v=0
84285 On ch=1 n=c#4 v=64
84285 On ch=1 n=f5 v=64
84323 On ch=1 n=f5 v=0
84323 On ch=1 n=c#4 v=0
84325 On ch=1 n=f4 v=64
84325 On ch=1 n=c#5 v=64
84325 On ch=1 n=a#4 v=64
84363 On ch=1 n=a#4 v=0
84363 On ch=1 n=c#5 v=0
84363 On ch=1 n=f4 v=0
84365 On ch=1 n=c#4 v=64
84365 On ch=1 n=f5 v=64
84403 On ch=1 n=f5 v=0
84403 On ch=1 n=c#4 v=0
84403 On ch=1 n=f4 v=0
84403 On ch=1 n=f4 v=0
84405 On ch=1 n=c#5 v=64
84405 On ch=1 n=a#4 v=64
84405 On ch=1 n=e4 v=64
84405 On ch=1 n=e4 v=64
84443 On ch=1 n=a#4 v=0
84443 On ch=1 n=c#5 v=0
84445 On ch=1 n=c#4 v=64
84445 On ch=1 n=f5 v=64
84483 On ch=1 n=f5 v=0
84483 On ch=1 n=c#4 v=0
84485 On ch=1 n=c#5 v=64
84485 On ch=1 n=a#4 v=64
84485 On ch=1 n=e4 v=64
84523 On ch=1 n=a#4 v=0
84523 On ch=1 n=c#5 v=0
84523 On ch=1 n=e4 v=0
84525 On ch=1 n=c#4 v=64
84525 On ch=1 n=f5 v=64
84563 On ch=1 n=f5 v=0
84563 On ch=1 n=c#4 v=0
84565 On ch=1 n=c#5 v=64
84565 On ch=1 n=a#4 v=64
84565 On ch=1 n=e4 v=64
84603 On ch=1 n=a#4 v=0
84603 On ch=1 n=c#5 v=0
84603 On ch=1 n=e4 v=0
84605 On ch=1 n=c#4 v=64
84605 On ch=1 n=f5 v=64
84643 On ch=1 n=f5 v=0
84643 On ch=1 n=c#4 v=0
84643 On ch=1 n=e4 v=0
84643 On ch=1 n=e4 v=0
84645 On ch=1 n=c#5 v=64
84645 On ch=1 n=a#4 v=64
84645 On ch=1 n=f4 v=64
84645 On ch=1 n=f4 v=64
84683 On ch=1 n=a#4 v=0
84683 On ch=1 n=c#5 v=0
84685 On ch=1 n=c#4 v=64
84685 On ch=1 n=f5 v=64
84723 On ch=1 n=f5 v=0
84723 On ch=1 n=c#4 v=0
84725 On ch=1 n=f4 v=64
84725 On ch=1 n=c#5 v=64
84725 On ch=1 n=a#4 v=64
84763 On ch=1 n=a#4 v=0
84763 On ch=1 n=c#5 v=0
84763 On ch=1 n=f4 v=0
84765 On ch=1 n=c#4 v=64
84765 On ch=1 n=f5 v=64
84803 On ch=1 n=f5 v=0
84803 On ch=1 n=c#4 v=0
84805 On ch=1 n=f4 v=64
84805 On ch=1 n=c#5 v=64
84805 On ch=1 n=a#4 v=64
84843 On ch=1 n=a#4 v=0
84843 On ch=1 n=c#5 v=0
84843 On ch=1 n=f4 v=0
84845 On ch=1 n=c#4 v=64
84845 On ch=1 n=f5 v=64
84845 Par ch=1 c=64 v=0
84877 Par ch=1 c=64 v=96
84883 On ch=1 n=f5 v=0
84883 On ch=1 n=c#4 v=0
84883 On ch=1 n=f4 v=0
84883 On ch=1 n=f4 v=0
84885 Tempo 1304348
84885 On ch=1 n=a#2 v=64
84885 On ch=1 n=c4 v=64
84885 On ch=1 n=a#2 v=64
84885 On ch=1 n=c4 v=64
84943 On ch=1 n=c4 v=0
84943 On ch=1 n=a#2 v=0
84943 On ch=1 n=c4 v=0
84943 On ch=1 n=a#2 v=0
84945 On ch=1 n=a#5 v=64
84945 On ch=1 n=a#6 v=64
84945 On ch=1 n=a#5 v=64
84945 On ch=1 n=a#6 v=64
85005 On ch=1 n=c#5 v=64
85005 On ch=1 n=f4 v=64
85005 On ch=1 n=c#5 v=64
85005 On ch=1 n=f4 v=64
85063 On ch=1 n=f4 v=0
85063 On ch=1 n=c#5 v=0
85063 On ch=1 n=f4 v=0
85063 On ch=1 n=c#5 v=0
85063 On ch=1 n=a#6 v=0
85063 On ch=1 n=a#5 v=0
85063 On ch=1 n=a#6 v=0
85063 On ch=1 n=a#5 v=0
85065 On ch=1 n=f5 v=64
85065 On ch=1 n=c#5 v=64
85065 On ch=1 n=f5 v=64
85065 On ch=1 n=c#5 v=64
85085 Par ch=1 c=64 v=0
85117 Par ch=1 c=64 v=96
85123 On ch=1 n=c#5 v=0
85123 On ch=1 n=f5 v=0
85123 On ch=1 n=c#5 v=0
85123 On ch=1 n=f5 v=0
85125 On ch=1 n=c3 v=64
85125 On ch=1 n=c4 v=64
85125 On ch=1 n=c3 v=64
85125 On ch=1 n=c4 v=64
85183 On ch=1 n=c4 v=0
85183 On ch=1 n=c3 v=0
85183 On ch=1 n=c4 v=0
85183 On ch=1 n=c3 v=0
85185 On ch=1 n=a#5 v=64
85185 On ch=1 n=a#6 v=64
85185 On ch=1 n=a#5 v=64
85185 On ch=1 n=a#6 v=64
85245 On ch=1 n=c5 v=64
85245 On ch=1 n=f#5 v=64
85245 On ch=1 n=c5 v=64
85245 On ch=1 n=f#5 v=64
85303 On ch=1 n=f#5 v=0
85303 On ch=1 n=c5 v=0
85303 On ch=1 n=f#5 v=0
85303 On ch=1 n=c5 v=0
85303 On ch=1 n=a#6 v=0
85303 On ch=1 n=a#5 v=0
85303 On ch=1 n=a#6 v=0
85303 On ch=1 n=a#5 v=0
85305 On ch=1 n=f#5 v=64
85305 On ch=1 n=d#5 v=64
85305 On ch=1 n=f#5 v=64
85305 On ch=1 n=d#5 v=64
85363 On ch=1 n=d#5 v=0
85363 On ch=1 n=f#5 v=0
85363 On ch=1 n=d#5 v=0
85363 On ch=1 n=f#5 v=0
85365 On ch=1 n=d#3 v=64
85365 On ch=1 n=d#4 v=64
85365 On ch=1 n=d#3 v=64
85365 On ch=1 n=d#4 v=64
85423 On ch=1 n=d#4 v=0
85423 On ch=1 n=d#3 v=0
85423 On ch=1 n=d#4 v=0
85423 On ch=1 n=d#3 v=0
85425 On ch=1 n=g5 v=64
85425 On ch=1 n=g6 v=64
85425 On ch=1 n=g5 v=64
85425 On ch=1 n=g6 v=64
85485 On ch=1 n=c5 v=64
85485 On ch=1 n=f#5 v=64
85485 On ch=1 n=c5 v=64
85485 On ch=1 n=f#5 v=64
85543 On ch=1 n=f#5 v=0
85543 On ch=1 n=c5 v=0
85543 On ch=1 n=f#5 v=0
85543 On ch=1 n=c5 v=0
85543 On ch=1 n=g6 v=0
85543 On ch=1 n=g5 v=0
85543 On ch=1 n=g6 v=0
85543 On ch=1 n=g5 v=0
85545 On ch=1 n=f#5 v=64
85545 On ch=1 n=d#5 v=64
85545 On ch=1 n=f#5 v=64
85545 On ch=1 n=d#5 v=64
85603 On ch=1 n=d#5 v=0
85603 On ch=1 n=f#5 v=0
85603 On ch=1 n=d#5 v=0
85603 On ch=1 n=f#5 v=0
85605 On ch=1 n=g#3 v=64
85605 On ch=1 n=g#4 v=64
85605 On ch=1 n=g#3 v=64
85605 On ch=1 n=g#4 v=64
85663 On ch=1 n=g#4 v=0
85663 On ch=1 n=g#3 v=0
85663 On ch=1 n=g#4 v=0
85663 On ch=1 n=g#3 v=0
85665 On ch=1 n=g#5 v=64
85665 On ch=1 n=g#6 v=64
85665 On ch=1 n=g#5 v=64
85665 On ch=1 n=g#6 v=64
85725 On ch=1 n=f#4 v=64
85725 On ch=1 n=c5 v=64
85725 On ch=1 n=f#4 v=64
85725 On ch=1 n=c5 v=64
85783 On ch=1 n=c5 v=0
85783 On ch=1 n=f#4 v=0
85783 On ch=1 n=c5 v=0
85783 On ch=1 n=f#4 v=0
85783 On ch=1 n=g#6 v=0
85783 On ch=1 n=g#5 v=0
85783 On ch=1 n=g#6 v=0
85783 On ch=1 n=g#5 v=0
85785 On ch=1 n=f#5 v=64
85785 On ch=1 n=d#5 v=64
85785 On ch=1 n=f#5 v=64
85785 On ch=1 n=d#5 v=64
85805 Par ch=1 c=64 v=0
85837 Par ch=1 c=64 v=96
85843 On ch=1 n=d#5 v=0
85843 On ch=1 n=f#5 v=0
85843 On ch=1 n=d#5 v=0
85843 On ch=1 n=f#5 v=0
85845 On ch=1 n=c3 v=64
85845 On ch=1 n=c4 v=64
85845 On ch=1 n=c3 v=64
85845 On ch=1 n=c4 v=64
85903 On ch=1 n=c4 v=0
85903 On ch=1 n=c3 v=0
85903 On ch=1 n=c4 v=0
85903 On ch=1 n=c3 v=0
85905 On ch=1 n=a5 v=64
85905 On ch=1 n=a6 v=64
85905 On ch=1 n=a5 v=64
85905 On ch=1 n=a6 v=64
85965 On ch=1 n=c5 v=64
85965 On ch=1 n=f#5 v=64
85965 On ch=1 n=c5 v=64
85965 On ch=1 n=f#5 v=64
86023 On ch=1 n=f#5 v=0
86023 On ch=1 n=c5 v=0
86023 On ch=1 n=f#5 v=0
86023 On ch=1 n=c5 v=0
86023 On ch=1 n=a6 v=0
86023 On ch=1 n=a5 v=0
86023 On ch=1 n=a6 v=0
86023 On ch=1 n=a5 v=0
86025 On ch=1 n=f#5 v=64
86025 On ch=1 n=d#5 v=64
86025 On ch=1 n=f#5 v=64
86025 On ch=1 n=d#5 v=64
86083 On ch=1 n=d#5 v=0
86083 On ch=1 n=f#5 v=0
86083 On ch=1 n=d#5 v=0
86083 On ch=1 n=f#5 v=0
86085 On ch=1 n=d#4 v=64
86085 On ch=1 n=d#3 v=64
86085 On ch=1 n=d#4 v=64
86085 On ch=1 n=d#3 v=64
86143 On ch=1 n=d#3 v=0
86143 On ch=1 n=d#4 v=0
86143 On ch=1 n=d#3 v=0
86143 On ch=1 n=d#4 v=0
86145 On ch=1 n=g5 v=64
86145 On ch=1 n=g6 v=64
86145 On ch=1 n=g5 v=64
86145 On ch=1 n=g6 v=64
86205 On ch=1 n=c5 v=64
86205 On ch=1 n=f#5 v=64
86205 On ch=1 n=c5 v=64
86205 On ch=1 n=f#5 v=64
86263 On ch=1 n=f#5 v=0
86263 On ch=1 n=c5 v=0
86263 On ch=1 n=f#5 v=0
86263 On ch=1 n=c5 v=0
86263 On ch=1 n=g6 v=0
86263 On ch=1 n=g5 v=0
86263 On ch=1 n=g6 v=0
86263 On ch=1 n=g5 v=0
86265 On ch=1 n=f#5 v=64
86265 On ch=1 n=d#5 v=64
86265 On ch=1 n=f#5 v=64
86265 On ch=1 n=d#5 v=64
86323 On ch=1 n=d#5 v=0
86323 On ch=1 n=f#5 v=0
86323 On ch=1 n=d#5 v=0
86323 On ch=1 n=f#5 v=0
86325 On ch=1 n=g#4 v=64
86325 On ch=1 n=g#3 v=64
86325 On ch=1 n=g#4 v=64
86325 On ch=1 n=g#3 v=64
86383 On ch=1 n=g#3 v=0
86383 On ch=1 n=g#4 v=0
86383 On ch=1 n=g#3 v=0
86383 On ch=1 n=g#4 v=0
86385 On ch=1 n=g#5 v=64
86385 On ch=1 n=g#6 v=64
86385 On ch=1 n=g#5 v=64
86385 On ch=1 n=g#6 v=64
86445 On ch=1 n=c5 v=64
86445 On ch=1 n=f#4 v=64
86445 On ch=1 n=c5 v=64
86445 On ch=1 n=f#4 v=64
86503 On ch=1 n=f#4 v=0
86503 On ch=1 n=c5 v=0
86503 On ch=1 n=f#4 v=0
86503 On ch=1 n=c5 v=0
86503 On ch=1 n=g#6 v=0
86503 On ch=1 n=g#5 v=0
86503 On ch=1 n=g#6 v=0
86503 On ch=1 n=g#5 v=0
86505 On ch=1 n=f#5 v=64
86505 On ch=1 n=d#5 v=64
86505 On ch=1 n=f#5 v=64
86505 On ch=1 n=d#5 v=64
86525 Par ch=1 c=64 v=0
86557 Par ch=1 c=64 v=96
86563 On ch=1 n=d#5 v=0
86563 On ch=1 n=f#5 v=0
86563 On ch=1 n=d#5 v=0
86563 On ch=1 n=f#5 v=0
86565 Par ch=1 c=7 v=110
86565 On ch=1 n=c#3 v=64
86565 On ch=1 n=c#4 v=64
86565 On ch=1 n=c#3 v=64
86565 On ch=1 n=c#4 v=64
86625 On ch=1 n=e6 v=64
86625 On ch=1 n=e7 v=64
86625 On ch=1 n=e6 v=64
86625 On ch=1 n=e7 v=64
86683 On ch=1 n=c#4 v=0
86683 On ch=1 n=c#3 v=0
86683 On ch=1 n=c#4 v=0
86683 On ch=1 n=c#3 v=0
86685 On ch=1 n=c5 v=64
86685 On ch=1 n=g#4 v=64
86685 On ch=1 n=e4 v=64
86685 On ch=1 n=c5 v=64
86685 On ch=1 n=g#4 v=64
86685 On ch=1 n=e4 v=64
86708 Par ch=1 c=7 v=111
86743 On ch=1 n=e4 v=0
86743 On ch=1 n=g#4 v=0
86743 On ch=1 n=c5 v=0
86743 On ch=1 n=e4 v=0
86743 On ch=1 n=g#4 v=0
86743 On ch=1 n=c5 v=0
86743 On ch=1 n=e7 v=0
86743 On ch=1 n=e6 v=0
86743 On ch=1 n=e7 v=0
86743 On ch=1 n=e6 v=0
86745 On ch=1 n=c6 v=64
86745 On ch=1 n=g#5 v=64
86745 On ch=1 n=e5 v=64
86745 On ch=1 n=c6 v=64
86745 On ch=1 n=g#5 v=64
86745 On ch=1 n=e5 v=64
86803 On ch=1 n=e5 v=0
86803 On ch=1 n=g#5 v=0
86803 On ch=1 n=c6 v=0
86803 On ch=1 n=e5 v=0
86803 On ch=1 n=g#5 v=0
86803 On ch=1 n=c6 v=0
86805 On ch=1 n=c5 v=64
86805 On ch=1 n=g#4 v=64
86805 On ch=1 n=e4 v=64
86805 On ch=1 n=c5 v=64
86805 On ch=1 n=g#4 v=64
86805 On ch=1 n=e4 v=64
86852 Par ch=1 c=7 v=112
86863 On ch=1 n=e4 v=0
86863 On ch=1 n=g#4 v=0
86863 On ch=1 n=c5 v=0
86863 On ch=1 n=e4 v=0
86863 On ch=1 n=g#4 v=0
86863 On ch=1 n=c5 v=0
86865 On ch=1 n=c6 v=64
86865 On ch=1 n=g#5 v=64
86865 On ch=1 n=e5 v=64
86865 On ch=1 n=c6 v=64
86865 On ch=1 n=g#5 v=64
86865 On ch=1 n=e5 v=64
86923 On ch=1 n=e5 v=0
86923 On ch=1 n=g#5 v=0
86923 On ch=1 n=c6 v=0
86923 On ch=1 n=e5 v=0
86923 On ch=1 n=g#5 v=0
86923 On ch=1 n=c6 v=0
86925 On ch=1 n=c5 v=64
86925 On ch=1 n=g#4 v=64
86925 On ch=1 n=e4 v=64
86925 On ch=1 n=c5 v=64
86925 On ch=1 n=g#4 v=64
86925 On ch=1 n=e4 v=64
86983 On ch=1 n=e4 v=0
86983 On ch=1 n=g#4 v=0
86983 On ch=1 n=c5 v=0
86983 On ch=1 n=e4 v=0
86983 On ch=1 n=g#4 v=0
86983 On ch=1 n=c5 v=0
86985 On ch=1 n=c6 v=64
86985 On ch=1 n=g#5 v=64
86985 On ch=1 n=e5 v=64
86985 On ch=1 n=c6 v=64
86985 On ch=1 n=g#5 v=64
86985 On ch=1 n=e5 v=64
86996 Par ch=1 c=7 v=113
87043 On ch=1 n=e5 v=0
87043 On ch=1 n=g#5 v=0
87043 On ch=1 n=c6 v=0
87043 On ch=1 n=e5 v=0
87043 On ch=1 n=g#5 v=0
87043 On ch=1 n=c6 v=0
87045 On ch=1 n=c5 v=64
87045 On ch=1 n=g#4 v=64
87045 On ch=1 n=e4 v=64
87045 On ch=1 n=c5 v=64
87045 On ch=1 n=g#4 v=64
87045 On ch=1 n=e4 v=64
87103 On ch=1 n=e4 v=0
87103 On ch=1 n=g#4 v=0
87103 On ch=1 n=c5 v=0
87103 On ch=1 n=e4 v=0
87103 On ch=1 n=g#4 v=0
87103 On ch=1 n=c5 v=0
87105 On ch=1 n=c6 v=64
87105 On ch=1 n=g#5 v=64
87105 On ch=1 n=e5 v=64
87105 On ch=1 n=c6 v=64
87105 On ch=1 n=g#5 v=64
87105 On ch=1 n=e5 v=64
87140 Par ch=1 c=7 v=114
87163 On ch=1 n=e5 v=0
87163 On ch=1 n=g#5 v=0
87163 On ch=1 n=c6 v=0
87163 On ch=1 n=e5 v=0
87163 On ch=1 n=g#5 v=0
87163 On ch=1 n=c6 v=0
87165 On ch=1 n=c5 v=64
87165 On ch=1 n=g#4 v=64
87165 On ch=1 n=e4 v=64
87165 On ch=1 n=c5 v=64
87165 On ch=1 n=g#4 v=64
87165 On ch=1 n=e4 v=64
87223 On ch=1 n=e4 v=0
87223 On ch=1 n=g#4 v=0
87223 On ch=1 n=c5 v=0
87223 On ch=1 n=e4 v=0
87223 On ch=1 n=g#4 v=0
87223 On ch=1 n=c5 v=0
87225 On ch=1 n=c6 v=64
87225 On ch=1 n=g#5 v=64
87225 On ch=1 n=e5 v=64
87225 On ch=1 n=c6 v=64
87225 On ch=1 n=g#5 v=64
87225 On ch=1 n=e5 v=64
87245 Par ch=1 c=64 v=0
87277 Par ch=1 c=64 v=96
87283 On ch=1 n=e5 v=0
87283 On ch=1 n=g#5 v=0
87283 On ch=1 n=c6 v=0
87283 On ch=1 n=e5 v=0
87283 On ch=1 n=g#5 v=0
87283 On ch=1 n=c6 v=0
87284 Par ch=1 c=7 v=115
87285 Par ch=1 c=7 v=110
87285 On ch=1 n=c#3 v=64
87285 On ch=1 n=c#4 v=64
87285 On ch=1 n=c#3 v=64
87285 On ch=1 n=c#4 v=64
87345 On ch=1 n=f7 v=64
87345 On ch=1 n=f6 v=64
87345 On ch=1 n=f7 v=64
87345 On ch=1 n=f6 v=64
87380 Par ch=1 c=7 v=111
87403 On ch=1 n=c#4 v=0
87403 On ch=1 n=c#3 v=0
87403 On ch=1 n=c#4 v=0
87403 On ch=1 n=c#3 v=0
87405 On ch=1 n=c#5 v=64
87405 On ch=1 n=g#4 v=64
87405 On ch=1 n=f4 v=64
87405 On ch=1 n=c#5 v=64
87405 On ch=1 n=g#4 v=64
87405 On ch=1 n=f4 v=64
87463 On ch=1 n=f4 v=0
87463 On ch=1 n=g#4 v=0
87463 On ch=1 n=c#5 v=0
87463 On ch=1 n=f4 v=0
87463 On ch=1 n=g#4 v=0
87463 On ch=1 n=c#5 v=0
87463 On ch=1 n=f6 v=0
87463 On ch=1 n=f7 v=0
87463 On ch=1 n=f6 v=0
87463 On ch=1 n=f7 v=0
87465 On ch=1 n=c#6 v=64
87465 On ch=1 n=g#5 v=64
87465 On ch=1 n=f5 v=64
87465 On ch=1 n=c#6 v=64
87465 On ch=1 n=g#5 v=64
87465 On ch=1 n=f5 v=64
87476 Par ch=1 c=7 v=112
87523 On ch=1 n=f5 v=0
87523 On ch=1 n=g#5 v=0
87523 On ch=1 n=c#6 v=0
87523 On ch=1 n=f5 v=0
87523 On ch=1 n=g#5 v=0
87523 On ch=1 n=c#6 v=0
87525 On ch=1 n=c#5 v=64
87525 On ch=1 n=g#4 v=64
87525 On ch=1 n=f4 v=64
87525 On ch=1 n=c#5 v=64
87525 On ch=1 n=g#4 v=64
87525 On ch=1 n=f4 v=64
87572 Par ch=1 c=7 v=113
87583 On ch=1 n=f4 v=0
87583 On ch=1 n=g#4 v=0
87583 On ch=1 n=c#5 v=0
87583 On ch=1 n=f4 v=0
87583 On ch=1 n=g#4 v=0
87583 On ch=1 n=c#5 v=0
87585 On ch=1 n=c#6 v=64
87585 On ch=1 n=g#5 v=64
87585 On ch=1 n=f5 v=64
87585 On ch=1 n=c#6 v=64
87585 On ch=1 n=g#5 v=64
87585 On ch=1 n=f5 v=64
87643 On ch=1 n=f5 v=0
87643 On ch=1 n=g#5 v=0
87643 On ch=1 n=c#6 v=0
87643 On ch=1 n=f5 v=0
87643 On ch=1 n=g#5 v=0
87643 On ch=1 n=c#6 v=0
87645 On ch=1 n=c#5 v=64
87645 On ch=1 n=g#4 v=64
87645 On ch=1 n=f4 v=64
87645 On ch=1 n=c#5 v=64
87645 On ch=1 n=g#4 v=64
87645 On ch=1 n=f4 v=64
87668 Par ch=1 c=7 v=114
87703 On ch=1 n=f4 v=0
87703 On ch=1 n=g#4 v=0
87703 On ch=1 n=c#5 v=0
87703 On ch=1 n=f4 v=0
87703 On ch=1 n=g#4 v=0
87703 On ch=1 n=c#5 v=0
87705 On ch=1 n=c#6 v=64
87705 On ch=1 n=g#5 v=64
87705 On ch=1 n=f5 v=64
87705 On ch=1 n=c#6 v=64
87705 On ch=1 n=g#5 v=64
87705 On ch=1 n=f5 v=64
87725 Par ch=1 c=64 v=0
87757 Par ch=1 c=64 v=96
87763 On ch=1 n=f5 v=0
87763 On ch=1 n=g#5 v=0
87763 On ch=1 n=c#6 v=0
87763 On ch=1 n=f5 v=0
87763 On ch=1 n=g#5 v=0
87763 On ch=1 n=c#6 v=0
87764 Par ch=1 c=7 v=115
87765 On ch=1 n=f3 v=64
87765 On ch=1 n=f4 v=64
87765 On ch=1 n=f3 v=64
87765 On ch=1 n=f4 v=64
87823 On ch=1 n=f4 v=0
87823 On ch=1 n=f3 v=0
87823 On ch=1 n=f4 v=0
87823 On ch=1 n=f3 v=0
87825 On ch=1 n=c#6 v=64
87825 On ch=1 n=c#7 v=64
87825 On ch=1 n=c#6 v=64
87825 On ch=1 n=c#7 v=64
87885 On ch=1 n=c#5 v=64
87885 On ch=1 n=g#4 v=64
87885 On ch=1 n=c#5 v=64
87885 On ch=1 n=g#4 v=64
87943 On ch=1 n=g#4 v=0
87943 On ch=1 n=c#5 v=0
87943 On ch=1 n=g#4 v=0
87943 On ch=1 n=c#5 v=0
87943 On ch=1 n=c#7 v=0
87943 On ch=1 n=c#6 v=0
87943 On ch=1 n=c#7 v=0
87943 On ch=1 n=c#6 v=0
87945 On ch=1 n=g#5 v=64
87945 On ch=1 n=f5 v=64
87945 On ch=1 n=g#5 v=64
87945 On ch=1 n=f5 v=64
87965 Par ch=1 c=64 v=0
87997 Par ch=1 c=64 v=96
88003 On ch=1 n=f5 v=0
88003 On ch=1 n=g#5 v=0
88003 On ch=1 n=f5 v=0
88003 On ch=1 n=g#5 v=0
88005 Par ch=1 c=7 v=110
88005 On ch=1 n=c3 v=64
88005 On ch=1 n=c4 v=64
88005 On ch=1 n=c3 v=64
88005 On ch=1 n=c4 v=64
88063 On ch=1 n=c4 v=0
88063 On ch=1 n=c3 v=0
88063 On ch=1 n=c4 v=0
88063 On ch=1 n=c3 v=0
88065 On ch=1 n=a#5 v=64
88065 On ch=1 n=a#6 v=64
88065 On ch=1 n=a#5 v=64
88065 On ch=1 n=a#6 v=64
88125 On ch=1 n=c5 v=64
88125 On ch=1 n=f#5 v=64
88125 On ch=1 n=c5 v=64
88125 On ch=1 n=f#5 v=64
88183 On ch=1 n=f#5 v=0
88183 On ch=1 n=c5 v=0
88183 On ch=1 n=f#5 v=0
88183 On ch=1 n=c5 v=0
88183 On ch=1 n=a#6 v=0
88183 On ch=1 n=a#5 v=0
88183 On ch=1 n=a#6 v=0
88183 On ch=1 n=a#5 v=0
88185 On ch=1 n=f#5 v=64
88185 On ch=1 n=d#5 v=64
88185 On ch=1 n=f#5 v=64
88185 On ch=1 n=d#5 v=64
88243 On ch=1 n=d#5 v=0
88243 On ch=1 n=f#5 v=0
88243 On ch=1 n=d#5 v=0
88243 On ch=1 n=f#5 v=0
88245 On ch=1 n=d#3 v=64
88245 On ch=1 n=d#4 v=64
88245 On ch=1 n=d#3 v=64
88245 On ch=1 n=d#4 v=64
88303 On ch=1 n=d#4 v=0
88303 On ch=1 n=d#3 v=0
88303 On ch=1 n=d#4 v=0
88303 On ch=1 n=d#3 v=0
88305 On ch=1 n=g5 v=64
88305 On ch=1 n=g6 v=64
88305 On ch=1 n=g5 v=64
88305 On ch=1 n=g6 v=64
88365 On ch=1 n=c5 v=64
88365 On ch=1 n=f#5 v=64
88365 On ch=1 n=c5 v=64
88365 On ch=1 n=f#5 v=64
88423 On ch=1 n=f#5 v=0
88423 On ch=1 n=c5 v=0
88423 On ch=1 n=f#5 v=0
88423 On ch=1 n=c5 v=0
88423 On ch=1 n=g6 v=0
88423 On ch=1 n=g5 v=0
88423 On ch=1 n=g6 v=0
88423 On ch=1 n=g5 v=0
88425 On ch=1 n=f#5 v=64
88425 On ch=1 n=d#5 v=64
88425 On ch=1 n=f#5 v=64
88425 On ch=1 n=d#5 v=64
88483 On ch=1 n=d#5 v=0
88483 On ch=1 n=f#5 v=0
88483 On ch=1 n=d#5 v=0
88483 On ch=1 n=f#5 v=0
88485 On ch=1 n=g#3 v=64
88485 On ch=1 n=g#4 v=64
88485 On ch=1 n=g#3 v=64
88485 On ch=1 n=g#4 v=64
88543 On ch=1 n=g#4 v=0
88543 On ch=1 n=g#3 v=0
88543 On ch=1 n=g#4 v=0
88543 On ch=1 n=g#3 v=0
88545 On ch=1 n=g#5 v=64
88545 On ch=1 n=g#6 v=64
88545 On ch=1 n=g#5 v=64
88545 On ch=1 n=g#6 v=64
88605 On ch=1 n=f#4 v=64
88605 On ch=1 n=c5 v=64
88605 On ch=1 n=f#4 v=64
88605 On ch=1 n=c5 v=64
88663 On ch=1 n=c5 v=0
88663 On ch=1 n=f#4 v=0
88663 On ch=1 n=c5 v=0
88663 On ch=1 n=f#4 v=0
88663 On ch=1 n=g#6 v=0
88663 On ch=1 n=g#5 v=0
88663 On ch=1 n=g#6 v=0
88663 On ch=1 n=g#5 v=0
88665 On ch=1 n=f#5 v=64
88665 On ch=1 n=d#5 v=64
88665 On ch=1 n=f#5 v=64
88665 On ch=1 n=d#5 v=64
88685 Par ch=1 c=64 v=0
88717 Par ch=1 c=64 v=96
88723 On ch=1 n=d#5 v=0
88723 On ch=1 n=f#5 v=0
88723 On ch=1 n=d#5 v=0
88723 On ch=1 n=f#5 v=0
88725 On ch=1 n=c3 v=64
88725 On ch=1 n=c4 v=64
88725 On ch=1 n=c3 v=64
88725 On ch=1 n=c4 v=64
88783 On ch=1 n=c4 v=0
88783 On ch=1 n=c3 v=0
88783 On ch=1 n=c4 v=0
88783 On ch=1 n=c3 v=0
88785 On ch=1 n=a5 v=64
88785 On ch=1 n=a6 v=64
88785 On ch=1 n=a5 v=64
88785 On ch=1 n=a6 v=64
88845 On ch=1 n=c5 v=64
88845 On ch=1 n=f#5 v=64
88845 On ch=1 n=c5 v=64
88845 On ch=1 n=f#5 v=64
88903 On ch=1 n=f#5 v=0
88903 On ch=1 n=c5 v=0
88903 On ch=1 n=f#5 v=0
88903 On ch=1 n=c5 v=0
88903 On ch=1 n=a6 v=0
88903 On ch=1 n=a5 v=0
88903 On ch=1 n=a6 v=0
88903 On ch=1 n=a5 v=0
88905 On ch=1 n=f#5 v=64
88905 On ch=1 n=d#5 v=64
88905 On ch=1 n=f#5 v=64
88905 On ch=1 n=d#5 v=64
88963 On ch=1 n=d#5 v=0
88963 On ch=1 n=f#5 v=0
88963 On ch=1 n=d#5 v=0
88963 On ch=1 n=f#5 v=0
88965 On ch=1 n=d#4 v=64
88965 On ch=1 n=d#3 v=64
88965 On ch=1 n=d#4 v=64
88965 On ch=1 n=d#3 v=64
89023 On ch=1 n=d#3 v=0
89023 On ch=1 n=d#4 v=0
89023 On ch=1 n=d#3 v=0
89023 On ch=1 n=d#4 v=0
89025 On ch=1 n=g5 v=64
89025 On ch=1 n=g6 v=64
89025 On ch=1 n=g5 v=64
89025 On ch=1 n=g6 v=64
89085 On ch=1 n=c5 v=64
89085 On ch=1 n=f#5 v=64
89085 On ch=1 n=c5 v=64
89085 On ch=1 n=f#5 v=64
89143 On ch=1 n=f#5 v=0
89143 On ch=1 n=c5 v=0
89143 On ch=1 n=f#5 v=0
89143 On ch=1 n=c5 v=0
89143 On ch=1 n=g6 v=0
89143 On ch=1 n=g5 v=0
89143 On ch=1 n=g6 v=0
89143 On ch=1 n=g5 v=0
89145 On ch=1 n=f#5 v=64
89145 On ch=1 n=d#5 v=64
89145 On ch=1 n=f#5 v=64
89145 On ch=1 n=d#5 v=64
89203 On ch=1 n=d#5 v=0
89203 On ch=1 n=f#5 v=0
89203 On ch=1 n=d#5 v=0
89203 On ch=1 n=f#5 v=0
89205 On ch=1 n=g#4 v=64
89205 On ch=1 n=g#3 v=64
89205 On ch=1 n=g#4 v=64
89205 On ch=1 n=g#3 v=64
89263 On ch=1 n=g#3 v=0
89263 On ch=1 n=g#4 v=0
89263 On ch=1 n=g#3 v=0
89263 On ch=1 n=g#4 v=0
89265 On ch=1 n=g#5 v=64
89265 On ch=1 n=g#6 v=64
89265 On ch=1 n=g#5 v=64
89265 On ch=1 n=g#6 v=64
89325 On ch=1 n=c5 v=64
89325 On ch=1 n=f#4 v=64
89325 On ch=1 n=c5 v=64
89325 On ch=1 n=f#4 v=64
89383 On ch=1 n=f#4 v=0
89383 On ch=1 n=c5 v=0
89383 On ch=1 n=f#4 v=0
89383 On ch=1 n=c5 v=0
89383 On ch=1 n=g#6 v=0
89383 On ch=1 n=g#5 v=0
89383 On ch=1 n=g#6 v=0
89383 On ch=1 n=g#5 v=0
89385 On ch=1 n=f#5 v=64
89385 On ch=1 n=d#5 v=64
89385 On ch=1 n=f#5 v=64
89385 On ch=1 n=d#5 v=64
89405 Par ch=1 c=64 v=0
89437 Par ch=1 c=64 v=96
89443 On ch=1 n=d#5 v=0
89443 On ch=1 n=f#5 v=0
89443 On ch=1 n=d#5 v=0
89443 On ch=1 n=f#5 v=0
89445 Par ch=1 c=7 v=110
89445 On ch=1 n=c#3 v=64
89445 On ch=1 n=c#4 v=64
89445 On ch=1 n=c#3 v=64
89445 On ch=1 n=c#4 v=64
89505 On ch=1 n=e6 v=64
89505 On ch=1 n=e7 v=64
89505 On ch=1 n=e6 v=64
89505 On ch=1 n=e7 v=64
89540 Par ch=1 c=7 v=111
89563 On ch=1 n=c#4 v=0
89563 On ch=1 n=c#3 v=0
89563 On ch=1 n=c#4 v=0
89563 On ch=1 n=c#3 v=0
89565 On ch=1 n=c5 v=64
89565 On ch=1 n=g#4 v=64
89565 On ch=1 n=e4 v=64
89565 On ch=1 n=c5 v=64
89565 On ch=1 n=g#4 v=64
89565 On ch=1 n=e4 v=64
89623 On ch=1 n=e4 v=0
89623 On ch=1 n=g#4 v=0
89623 On ch=1 n=c5 v=0
89623 On ch=1 n=e4 v=0
89623 On ch=1 n=g#4 v=0
89623 On ch=1 n=c5 v=0
89623 On ch=1 n=e7 v=0
89623 On ch=1 n=e6 v=0
89623 On ch=1 n=e7 v=0
89623 On ch=1 n=e6 v=0
89625 On ch=1 n=c6 v=64
89625 On ch=1 n=g#5 v=64
89625 On ch=1 n=e5 v=64
89625 On ch=1 n=c6 v=64
89625 On ch=1 n=g#5 v=64
89625 On ch=1 n=e5 v=64
89636 Par ch=1 c=7 v=112
89683 On ch=1 n=e5 v=0
89683 On ch=1 n=g#5 v=0
89683 On ch=1 n=c6 v=0
89683 On ch=1 n=e5 v=0
89683 On ch=1 n=g#5 v=0
89683 On ch=1 n=c6 v=0
89685 On ch=1 n=c5 v=64
89685 On ch=1 n=g#4 v=64
89685 On ch=1 n=e4 v=64
89685 On ch=1 n=c5 v=64
89685 On ch=1 n=g#4 v=64
89685 On ch=1 n=e4 v=64
89732 Par ch=1 c=7 v=113
89743 On ch=1 n=e4 v=0
89743 On ch=1 n=g#4 v=0
89743 On ch=1 n=c5 v=0
89743 On ch=1 n=e4 v=0
89743 On ch=1 n=g#4 v=0
89743 On ch=1 n=c5 v=0
89745 On ch=1 n=c6 v=64
89745 On ch=1 n=g#5 v=64
89745 On ch=1 n=e5 v=64
89745 On ch=1 n=c6 v=64
89745 On ch=1 n=g#5 v=64
89745 On ch=1 n=e5 v=64
89803 On ch=1 n=e5 v=0
89803 On ch=1 n=g#5 v=0
89803 On ch=1 n=c6 v=0
89803 On ch=1 n=e5 v=0
89803 On ch=1 n=g#5 v=0
89803 On ch=1 n=c6 v=0
89805 On ch=1 n=c5 v=64
89805 On ch=1 n=g#4 v=64
89805 On ch=1 n=e4 v=64
89805 On ch=1 n=c5 v=64
89805 On ch=1 n=g#4 v=64
89805 On ch=1 n=e4 v=64
89828 Par ch=1 c=7 v=114
89863 On ch=1 n=e4 v=0
89863 On ch=1 n=g#4 v=0
89863 On ch=1 n=c5 v=0
89863 On ch=1 n=e4 v=0
89863 On ch=1 n=g#4 v=0
89863 On ch=1 n=c5 v=0
89865 On ch=1 n=c6 v=64
89865 On ch=1 n=g#5 v=64
89865 On ch=1 n=e5 v=64
89865 On ch=1 n=c6 v=64
89865 On ch=1 n=g#5 v=64
89865 On ch=1 n=e5 v=64
89885 Par ch=1 c=64 v=0
89917 Par ch=1 c=64 v=96
89923 On ch=1 n=e5 v=0
89923 On ch=1 n=g#5 v=0
89923 On ch=1 n=c6 v=0
89923 On ch=1 n=e5 v=0
89923 On ch=1 n=g#5 v=0
89923 On ch=1 n=c6 v=0
89924 Par ch=1 c=7 v=115
89925 On ch=1 n=c#3 v=64
89925 On ch=1 n=c#4 v=64
89925 On ch=1 n=c#3 v=64
89925 On ch=1 n=c#4 v=64
89983 On ch=1 n=c#4 v=0
89983 On ch=1 n=c#3 v=0
89983 On ch=1 n=c#4 v=0
89983 On ch=1 n=c#3 v=0
89985 On ch=1 n=f6 v=64
89985 On ch=1 n=f7 v=64
89985 On ch=1 n=f6 v=64
89985 On ch=1 n=f7 v=64
90045 On ch=1 n=c#5 v=64
90045 On ch=1 n=g#4 v=64
90045 On ch=1 n=f4 v=64
90045 On ch=1 n=c#5 v=64
90045 On ch=1 n=g#4 v=64
90045 On ch=1 n=f4 v=64
90103 On ch=1 n=f4 v=0
90103 On ch=1 n=g#4 v=0
90103 On ch=1 n=c#5 v=0
90103 On ch=1 n=f4 v=0
90103 On ch=1 n=g#4 v=0
90103 On ch=1 n=c#5 v=0
90103 On ch=1 n=f7 v=0
90103 On ch=1 n=f6 v=0
90103 On ch=1 n=f7 v=0
90103 On ch=1 n=f6 v=0
90105 On ch=1 n=c#6 v=64
90105 On ch=1 n=g#5 v=64
90105 On ch=1 n=f5 v=64
90105 On ch=1 n=c#6 v=64
90105 On ch=1 n=g#5 v=64
90105 On ch=1 n=f5 v=64
90125 Par ch=1 c=64 v=0
90157 Par ch=1 c=64 v=96
90163 On ch=1 n=f5 v=0
90163 On ch=1 n=g#5 v=0
90163 On ch=1 n=c#6 v=0
90163 On ch=1 n=f5 v=0
90163 On ch=1 n=g#5 v=0
90163 On ch=1 n=c#6 v=0
90165 On ch=1 n=d3 v=64
90165 On ch=1 n=d4 v=64
90165 On ch=1 n=d3 v=64
90165 On ch=1 n=d4 v=64
90223 On ch=1 n=d4 v=0
90223 On ch=1 n=d3 v=0
90223 On ch=1 n=d4 v=0
90223 On ch=1 n=d3 v=0
90225 On ch=1 n=b5 v=64
90225 On ch=1 n=b6 v=64
90225 On ch=1 n=b5 v=64
90225 On ch=1 n=b6 v=64
90285 On ch=1 n=f5 v=64
90285 On ch=1 n=g#4 v=64
90285 On ch=1 n=f5 v=64
90285 On ch=1 n=g#4 v=64
90343 On ch=1 n=g#4 v=0
90343 On ch=1 n=f5 v=0
90343 On ch=1 n=g#4 v=0
90343 On ch=1 n=f5 v=0
90343 On ch=1 n=b6 v=0
90343 On ch=1 n=b5 v=0
90343 On ch=1 n=b6 v=0
90343 On ch=1 n=b5 v=0
90345 On ch=1 n=g#5 v=64
90345 On ch=1 n=f5 v=64
90345 On ch=1 n=g#5 v=64
90345 On ch=1 n=f5 v=64
90403 On ch=1 n=f5 v=0
90403 On ch=1 n=g#5 v=0
90403 On ch=1 n=f5 v=0
90403 On ch=1 n=g#5 v=0
90405 On ch=1 n=f3 v=64
90405 On ch=1 n=f4 v=64
90405 On ch=1 n=f3 v=64
90405 On ch=1 n=f4 v=64
90463 On ch=1 n=f4 v=0
90463 On ch=1 n=f3 v=0
90463 On ch=1 n=f4 v=0
90463 On ch=1 n=f3 v=0
90465 On ch=1 n=a5 v=64
90465 On ch=1 n=a6 v=64
90465 On ch=1 n=a5 v=64
90465 On ch=1 n=a6 v=64
90525 On ch=1 n=f5 v=64
90525 On ch=1 n=g#4 v=64
90525 On ch=1 n=f5 v=64
90525 On ch=1 n=g#4 v=64
90583 On ch=1 n=g#4 v=0
90583 On ch=1 n=f5 v=0
90583 On ch=1 n=g#4 v=0
90583 On ch=1 n=f5 v=0
90583 On ch=1 n=a6 v=0
90583 On ch=1 n=a5 v=0
90583 On ch=1 n=a6 v=0
90583 On ch=1 n=a5 v=0
90585 On ch=1 n=g#5 v=64
90585 On ch=1 n=f5 v=64
90585 On ch=1 n=g#5 v=64
90585 On ch=1 n=f5 v=64
90643 On ch=1 n=f5 v=0
90643 On ch=1 n=g#5 v=0
90643 On ch=1 n=f5 v=0
90643 On ch=1 n=g#5 v=0
90645 On ch=1 n=a#3 v=64
90645 On ch=1 n=a#4 v=64
90645 On ch=1 n=a#3 v=64
90645 On ch=1 n=a#4 v=64
90703 On ch=1 n=a#4 v=0
90703 On ch=1 n=a#3 v=0
90703 On ch=1 n=a#4 v=0
90703 On ch=1 n=a#3 v=0
90705 On ch=1 n=a#5 v=64
90705 On ch=1 n=a#6 v=64
90705 On ch=1 n=a#5 v=64
90705 On ch=1 n=a#6 v=64
90765 On ch=1 n=g#4 v=64
90765 On ch=1 n=d5 v=64
90765 On ch=1 n=g#4 v=64
90765 On ch=1 n=d5 v=64
90823 On ch=1 n=d5 v=0
90823 On ch=1 n=g#4 v=0
90823 On ch=1 n=d5 v=0
90823 On ch=1 n=g#4 v=0
90823 On ch=1 n=a#6 v=0
90823 On ch=1 n=a#5 v=0
90823 On ch=1 n=a#6 v=0
90823 On ch=1 n=a#5 v=0
90825 On ch=1 n=g#5 v=64
90825 On ch=1 n=f5 v=64
90825 On ch=1 n=g#5 v=64
90825 On ch=1 n=f5 v=64
90845 Par ch=1 c=64 v=0
90877 Par ch=1 c=64 v=96
90883 On ch=1 n=f5 v=0
90883 On ch=1 n=g#5 v=0
90883 On ch=1 n=f5 v=0
90883 On ch=1 n=g#5 v=0
90885 Par ch=1 c=7 v=110
90885 On ch=1 n=d#3 v=64
90885 On ch=1 n=d#4 v=64
90885 On ch=1 n=d#3 v=64
90885 On ch=1 n=d#4 v=64
90945 On ch=1 n=g#7 v=64
90945 On ch=1 n=g#6 v=64
90945 On ch=1 n=g#7 v=64
90945 On ch=1 n=g#6 v=64
90980 Par ch=1 c=7 v=111
91003 On ch=1 n=d#4 v=0
91003 On ch=1 n=d#3 v=0
91003 On ch=1 n=d#4 v=0
91003 On ch=1 n=d#3 v=0
91005 On ch=1 n=d#5 v=64
91005 On ch=1 n=a#4 v=64
91005 On ch=1 n=g#4 v=64
91005 On ch=1 n=d#5 v=64
91005 On ch=1 n=a#4 v=64
91005 On ch=1 n=g#4 v=64
91063 On ch=1 n=g#4 v=0
91063 On ch=1 n=a#4 v=0
91063 On ch=1 n=d#5 v=0
91063 On ch=1 n=g#4 v=0
91063 On ch=1 n=a#4 v=0
91063 On ch=1 n=d#5 v=0
91063 On ch=1 n=g#6 v=0
91063 On ch=1 n=g#7 v=0
91063 On ch=1 n=g#6 v=0
91063 On ch=1 n=g#7 v=0
91065 On ch=1 n=d#6 v=64
91065 On ch=1 n=a#5 v=64
91065 On ch=1 n=g#5 v=64
91065 On ch=1 n=d#6 v=64
91065 On ch=1 n=a#5 v=64
91065 On ch=1 n=g#5 v=64
91076 Par ch=1 c=7 v=112
91123 On ch=1 n=g#5 v=0
91123 On ch=1 n=a#5 v=0
91123 On ch=1 n=d#6 v=0
91123 On ch=1 n=g#5 v=0
91123 On ch=1 n=a#5 v=0
91123 On ch=1 n=d#6 v=0
91125 On ch=1 n=d#5 v=64
91125 On ch=1 n=a#4 v=64
91125 On ch=1 n=g#4 v=64
91125 On ch=1 n=d#5 v=64
91125 On ch=1 n=a#4 v=64
91125 On ch=1 n=g#4 v=64
91172 Par ch=1 c=7 v=113
91183 On ch=1 n=g#4 v=0
91183 On ch=1 n=a#4 v=0
91183 On ch=1 n=d#5 v=0
91183 On ch=1 n=g#4 v=0
91183 On ch=1 n=a#4 v=0
91183 On ch=1 n=d#5 v=0
91185 On ch=1 n=d#6 v=64
91185 On ch=1 n=a#5 v=64
91185 On ch=1 n=g#5 v=64
91185 On ch=1 n=d#6 v=64
91185 On ch=1 n=a#5 v=64
91185 On ch=1 n=g#5 v=64
91243 On ch=1 n=g#5 v=0
91243 On ch=1 n=a#5 v=0
91243 On ch=1 n=d#6 v=0
91243 On ch=1 n=g#5 v=0
91243 On ch=1 n=a#5 v=0
91243 On ch=1 n=d#6 v=0
91245 On ch=1 n=d#5 v=64
91245 On ch=1 n=a#4 v=64
91245 On ch=1 n=g#4 v=64
91245 On ch=1 n=d#5 v=64
91245 On ch=1 n=a#4 v=64
91245 On ch=1 n=g#4 v=64
91268 Par ch=1 c=7 v=114
91303 On ch=1 n=g#4 v=0
91303 On ch=1 n=a#4 v=0
91303 On ch=1 n=d#5 v=0
91303 On ch=1 n=g#4 v=0
91303 On ch=1 n=a#4 v=0
91303 On ch=1 n=d#5 v=0
91305 On ch=1 n=d#6 v=64
91305 On ch=1 n=a#5 v=64
91305 On ch=1 n=g#5 v=64
91305 On ch=1 n=d#6 v=64
91305 On ch=1 n=a#5 v=64
91305 On ch=1 n=g#5 v=64
91363 On ch=1 n=g#5 v=0
91363 On ch=1 n=a#5 v=0
91363 On ch=1 n=d#6 v=0
91363 On ch=1 n=g#5 v=0
91363 On ch=1 n=a#5 v=0
91363 On ch=1 n=d#6 v=0
91364 Par ch=1 c=7 v=115
91365 On ch=1 n=d#3 v=64
91365 On ch=1 n=d#4 v=64
91365 On ch=1 n=d#3 v=64
91365 On ch=1 n=d#4 v=64
91423 On ch=1 n=d#4 v=0
91423 On ch=1 n=d#3 v=0
91423 On ch=1 n=d#4 v=0
91423 On ch=1 n=d#3 v=0
91425 On ch=1 n=f#6 v=64
91425 On ch=1 n=f#7 v=64
91425 On ch=1 n=f#6 v=64
91425 On ch=1 n=f#7 v=64
91485 On ch=1 n=d#5 v=64
91485 On ch=1 n=a#4 v=64
91485 On ch=1 n=f#4 v=64
91485 On ch=1 n=d#5 v=64
91485 On ch=1 n=a#4 v=64
91485 On ch=1 n=f#4 v=64
91543 On ch=1 n=f#4 v=0
91543 On ch=1 n=a#4 v=0
91543 On ch=1 n=d#5 v=0
91543 On ch=1 n=f#4 v=0
91543 On ch=1 n=a#4 v=0
91543 On ch=1 n=d#5 v=0
91543 On ch=1 n=f#7 v=0
91543 On ch=1 n=f#6 v=0
91543 On ch=1 n=f#7 v=0
91543 On ch=1 n=f#6 v=0
91545 On ch=1 n=d#6 v=64
91545 On ch=1 n=a#5 v=64
91545 On ch=1 n=f#5 v=64
91545 On ch=1 n=d#6 v=64
91545 On ch=1 n=a#5 v=64
91545 On ch=1 n=f#5 v=64
91565 Par ch=1 c=64 v=0
91597 Par ch=1 c=64 v=96
91603 On ch=1 n=f#5 v=0
91603 On ch=1 n=a#5 v=0
91603 On ch=1 n=d#6 v=0
91603 On ch=1 n=f#5 v=0
91603 On ch=1 n=a#5 v=0
91603 On ch=1 n=d#6 v=0
91605 On ch=1 n=f3 v=64
91605 On ch=1 n=f4 v=64
91605 On ch=1 n=f3 v=64
91605 On ch=1 n=f4 v=64
91663 On ch=1 n=f4 v=0
91663 On ch=1 n=f3 v=0
91663 On ch=1 n=f4 v=0
91663 On ch=1 n=f3 v=0
91665 On ch=1 n=d6 v=64
91665 On ch=1 n=d7 v=64
91665 On ch=1 n=d6 v=64
91665 On ch=1 n=d7 v=64
91725 On ch=1 n=g#5 v=64
91725 On ch=1 n=b4 v=64
91725 On ch=1 n=g#5 v=64
91725 On ch=1 n=b4 v=64
91783 On ch=1 n=b4 v=0
91783 On ch=1 n=g#5 v=0
91783 On ch=1 n=b4 v=0
91783 On ch=1 n=g#5 v=0
91783 On ch=1 n=d7 v=0
91783 On ch=1 n=d6 v=0
91783 On ch=1 n=d7 v=0
91783 On ch=1 n=d6 v=0
91785 On ch=1 n=g#5 v=64
91785 On ch=1 n=b5 v=64
91785 On ch=1 n=g#5 v=64
91785 On ch=1 n=b5 v=64
91843 On ch=1 n=b5 v=0
91843 On ch=1 n=g#5 v=0
91843 On ch=1 n=b5 v=0
91843 On ch=1 n=g#5 v=0
91845 On ch=1 n=g#4 v=64
91845 On ch=1 n=g#3 v=64
91845 On ch=1 n=g#4 v=64
91845 On ch=1 n=g#3 v=64
91903 On ch=1 n=g#3 v=0
91903 On ch=1 n=g#4 v=0
91903 On ch=1 n=g#3 v=0
91903 On ch=1 n=g#4 v=0
91905 On ch=1 n=c6 v=64
91905 On ch=1 n=c7 v=64
91905 On ch=1 n=c6 v=64
91905 On ch=1 n=c7 v=64
91965 On ch=1 n=g#5 v=64
91965 On ch=1 n=b4 v=64
91965 On ch=1 n=g#5 v=64
91965 On ch=1 n=b4 v=64
92023 On ch=1 n=b4 v=0
92023 On ch=1 n=g#5 v=0
92023 On ch=1 n=b4 v=0
92023 On ch=1 n=g#5 v=0
92023 On ch=1 n=c7 v=0
92023 On ch=1 n=c6 v=0
92023 On ch=1 n=c7 v=0
92023 On ch=1 n=c6 v=0
92025 On ch=1 n=g#5 v=64
92025 On ch=1 n=b5 v=64
92025 On ch=1 n=g#5 v=64
92025 On ch=1 n=b5 v=64
92083 On ch=1 n=b5 v=0
92083 On ch=1 n=g#5 v=0
92083 On ch=1 n=b5 v=0
92083 On ch=1 n=g#5 v=0
92085 On ch=1 n=c#5 v=64
92085 On ch=1 n=c#4 v=64
92085 On ch=1 n=c#5 v=64
92085 On ch=1 n=c#4 v=64
92143 On ch=1 n=c#4 v=0
92143 On ch=1 n=c#5 v=0
92143 On ch=1 n=c#4 v=0
92143 On ch=1 n=c#5 v=0
92145 On ch=1 n=c#7 v=64
92145 On ch=1 n=c#6 v=64
92145 On ch=1 n=c#7 v=64
92145 On ch=1 n=c#6 v=64
92205 On ch=1 n=f5 v=64
92205 On ch=1 n=b4 v=64
92205 On ch=1 n=f5 v=64
92205 On ch=1 n=b4 v=64
92263 On ch=1 n=b4 v=0
92263 On ch=1 n=f5 v=0
92263 On ch=1 n=b4 v=0
92263 On ch=1 n=f5 v=0
92263 On ch=1 n=c#6 v=0
92263 On ch=1 n=c#7 v=0
92263 On ch=1 n=c#6 v=0
92263 On ch=1 n=c#7 v=0
92265 On ch=1 n=g#5 v=64
92265 On ch=1 n=b5 v=64
92265 On ch=1 n=g#5 v=64
92265 On ch=1 n=b5 v=64
92285 Par ch=1 c=64 v=0
92317 Par ch=1 c=64 v=96
92323 On ch=1 n=b5 v=0
92323 On ch=1 n=g#5 v=0
92323 On ch=1 n=b5 v=0
92323 On ch=1 n=g#5 v=0
92325 Par ch=1 c=7 v=110
92325 On ch=1 n=f#3 v=64
92325 On ch=1 n=f#4 v=64
92325 On ch=1 n=f#3 v=64
92325 On ch=1 n=f#4 v=64
92385 On ch=1 n=a7 v=64
92385 On ch=1 n=a6 v=64
92385 On ch=1 n=a7 v=64
92385 On ch=1 n=a6 v=64
92420 Par ch=1 c=7 v=111
92443 On ch=1 n=f#4 v=0
92443 On ch=1 n=f#3 v=0
92443 On ch=1 n=f#4 v=0
92443 On ch=1 n=f#3 v=0
92445 On ch=1 n=f5 v=64
92445 On ch=1 n=c#5 v=64
92445 On ch=1 n=a4 v=64
92445 On ch=1 n=f5 v=64
92445 On ch=1 n=c#5 v=64
92445 On ch=1 n=a4 v=64
92503 On ch=1 n=a4 v=0
92503 On ch=1 n=c#5 v=0
92503 On ch=1 n=f5 v=0
92503 On ch=1 n=a4 v=0
92503 On ch=1 n=c#5 v=0
92503 On ch=1 n=f5 v=0
92503 On ch=1 n=a6 v=0
92503 On ch=1 n=a7 v=0
92503 On ch=1 n=a6 v=0
92503 On ch=1 n=a7 v=0
92505 On ch=1 n=f6 v=64
92505 On ch=1 n=c#6 v=64
92505 On ch=1 n=a5 v=64
92505 On ch=1 n=f6 v=64
92505 On ch=1 n=c#6 v=64
92505 On ch=1 n=a5 v=64
92516 Par ch=1 c=7 v=112
92563 On ch=1 n=a5 v=0
92563 On ch=1 n=c#6 v=0
92563 On ch=1 n=f6 v=0
92563 On ch=1 n=a5 v=0
92563 On ch=1 n=c#6 v=0
92563 On ch=1 n=f6 v=0
92565 On ch=1 n=f5 v=64
92565 On ch=1 n=c#5 v=64
92565 On ch=1 n=a4 v=64
92565 On ch=1 n=f5 v=64
92565 On ch=1 n=c#5 v=64
92565 On ch=1 n=a4 v=64
92612 Par ch=1 c=7 v=113
92623 On ch=1 n=a4 v=0
92623 On ch=1 n=c#5 v=0
92623 On ch=1 n=f5 v=0
92623 On ch=1 n=a4 v=0
92623 On ch=1 n=c#5 v=0
92623 On ch=1 n=f5 v=0
92625 On ch=1 n=f6 v=64
92625 On ch=1 n=c#6 v=64
92625 On ch=1 n=a5 v=64
92625 On ch=1 n=f6 v=64
92625 On ch=1 n=c#6 v=64
92625 On ch=1 n=a5 v=64
92683 On ch=1 n=a5 v=0
92683 On ch=1 n=c#6 v=0
92683 On ch=1 n=f6 v=0
92683 On ch=1 n=a5 v=0
92683 On ch=1 n=c#6 v=0
92683 On ch=1 n=f6 v=0
92685 On ch=1 n=f5 v=64
92685 On ch=1 n=c#5 v=64
92685 On ch=1 n=a4 v=64
92685 On ch=1 n=f5 v=64
92685 On ch=1 n=c#5 v=64
92685 On ch=1 n=a4 v=64
92708 Par ch=1 c=7 v=114
92743 On ch=1 n=a4 v=0
92743 On ch=1 n=c#5 v=0
92743 On ch=1 n=f5 v=0
92743 On ch=1 n=a4 v=0
92743 On ch=1 n=c#5 v=0
92743 On ch=1 n=f5 v=0
92745 On ch=1 n=f6 v=64
92745 On ch=1 n=c#6 v=64
92745 On ch=1 n=a5 v=64
92745 On ch=1 n=f6 v=64
92745 On ch=1 n=c#6 v=64
92745 On ch=1 n=a5 v=64
92803 On ch=1 n=a5 v=0
92803 On ch=1 n=c#6 v=0
92803 On ch=1 n=f6 v=0
92803 On ch=1 n=a5 v=0
92803 On ch=1 n=c#6 v=0
92803 On ch=1 n=f6 v=0
92804 Par ch=1 c=7 v=115
92805 On ch=1 n=f#3 v=64
92805 On ch=1 n=f#4 v=64
92805 On ch=1 n=f#3 v=64
92805 On ch=1 n=f#4 v=64
92863 On ch=1 n=f#4 v=0
92863 On ch=1 n=f#3 v=0
92863 On ch=1 n=f#4 v=0
92863 On ch=1 n=f#3 v=0
92865 On ch=1 n=a#6 v=64
92865 On ch=1 n=a#7 v=64
92865 On ch=1 n=a#6 v=64
92865 On ch=1 n=a#7 v=64
92925 On ch=1 n=a#4 v=64
92925 On ch=1 n=c#5 v=64
92925 On ch=1 n=f#5 v=64
92925 On ch=1 n=a#4 v=64
92925 On ch=1 n=c#5 v=64
92925 On ch=1 n=f#5 v=64
92983 On ch=1 n=f#5 v=0
92983 On ch=1 n=c#5 v=0
92983 On ch=1 n=a#4 v=0
92983 On ch=1 n=f#5 v=0
92983 On ch=1 n=c#5 v=0
92983 On ch=1 n=a#4 v=0
92983 On ch=1 n=a#7 v=0
92983 On ch=1 n=a#6 v=0
92983 On ch=1 n=a#7 v=0
92983 On ch=1 n=a#6 v=0
92985 On ch=1 n=f#6 v=64
92985 On ch=1 n=c#6 v=64
92985 On ch=1 n=a#5 v=64
92985 On ch=1 n=f#6 v=64
92985 On ch=1 n=c#6 v=64
92985 On ch=1 n=a#5 v=64
93005 Par ch=1 c=64 v=0
93037 Par ch=1 c=64 v=96
93043 On ch=1 n=a#5 v=0
93043 On ch=1 n=c#6 v=0
93043 On ch=1 n=f#6 v=0
93043 On ch=1 n=a#5 v=0
93043 On ch=1 n=c#6 v=0
93043 On ch=1 n=f#6 v=0
93045 Par ch=1 c=7 v=115
93045 On ch=1 n=g3 v=64
93045 On ch=1 n=g4 v=64
93045 On ch=1 n=g3 v=64
93045 On ch=1 n=g4 v=64
93105 On ch=1 n=c#7 v=64
93105 On ch=1 n=c#8 v=64
93105 On ch=1 n=c#7 v=64
93105 On ch=1 n=c#8 v=64
93163 On ch=1 n=g4 v=0
93163 On ch=1 n=g3 v=0
93163 On ch=1 n=g4 v=0
93163 On ch=1 n=g3 v=0
93165 On ch=1 n=c#5 v=64
93165 On ch=1 n=a#4 v=64
93165 On ch=1 n=e5 v=64
93165 On ch=1 n=c#5 v=64
93165 On ch=1 n=a#4 v=64
93165 On ch=1 n=e5 v=64
93223 On ch=1 n=e5 v=0
93223 On ch=1 n=a#4 v=0
93223 On ch=1 n=c#5 v=0
93223 On ch=1 n=e5 v=0
93223 On ch=1 n=a#4 v=0
93223 On ch=1 n=c#5 v=0
93223 On ch=1 n=c#8 v=0
93223 On ch=1 n=c#7 v=0
93223 On ch=1 n=c#8 v=0
93223 On ch=1 n=c#7 v=0
93225 On ch=1 n=c#6 v=64
93225 On ch=1 n=a#5 v=64
93225 On ch=1 n=e6 v=64
93225 On ch=1 n=c#6 v=64
93225 On ch=1 n=a#5 v=64
93225 On ch=1 n=e6 v=64
93283 On ch=1 n=e6 v=0
93283 On ch=1 n=a#5 v=0
93283 On ch=1 n=c#6 v=0
93283 On ch=1 n=e6 v=0
93283 On ch=1 n=a#5 v=0
93283 On ch=1 n=c#6 v=0
93285 On ch=1 n=c#5 v=64
93285 On ch=1 n=a#4 v=64
93285 On ch=1 n=e5 v=64
93285 On ch=1 n=c#5 v=64
93285 On ch=1 n=a#4 v=64
93285 On ch=1 n=e5 v=64
93343 On ch=1 n=e5 v=0
93343 On ch=1 n=a#4 v=0
93343 On ch=1 n=c#5 v=0
93343 On ch=1 n=e5 v=0
93343 On ch=1 n=a#4 v=0
93343 On ch=1 n=c#5 v=0
93345 On ch=1 n=c#6 v=64
93345 On ch=1 n=a#5 v=64
93345 On ch=1 n=e6 v=64
93345 On ch=1 n=c#6 v=64
93345 On ch=1 n=a#5 v=64
93345 On ch=1 n=e6 v=64
93403 On ch=1 n=e6 v=0
93403 On ch=1 n=a#5 v=0
93403 On ch=1 n=c#6 v=0
93403 On ch=1 n=e6 v=0
93403 On ch=1 n=a#5 v=0
93403 On ch=1 n=c#6 v=0
93405 On ch=1 n=c#5 v=64
93405 On ch=1 n=a#4 v=64
93405 On ch=1 n=e5 v=64
93405 On ch=1 n=c#5 v=64
93405 On ch=1 n=a#4 v=64
93405 On ch=1 n=e5 v=64
93463 On ch=1 n=e5 v=0
93463 On ch=1 n=a#4 v=0
93463 On ch=1 n=c#5 v=0
93463 On ch=1 n=e5 v=0
93463 On ch=1 n=a#4 v=0
93463 On ch=1 n=c#5 v=0
93465 On ch=1 n=c#6 v=64
93465 On ch=1 n=a#5 v=64
93465 On ch=1 n=e6 v=64
93465 On ch=1 n=c#6 v=64
93465 On ch=1 n=a#5 v=64
93465 On ch=1 n=e6 v=64
93476 Par ch=1 c=7 v=116
93523 On ch=1 n=e6 v=0
93523 On ch=1 n=a#5 v=0
93523 On ch=1 n=c#6 v=0
93523 On ch=1 n=e6 v=0
93523 On ch=1 n=a#5 v=0
93523 On ch=1 n=c#6 v=0
93525 On ch=1 n=f#3 v=64
93525 On ch=1 n=f#4 v=64
93525 On ch=1 n=f#3 v=64
93525 On ch=1 n=f#4 v=64
93583 On ch=1 n=f#4 v=0
93583 On ch=1 n=f#3 v=0
93583 On ch=1 n=f#4 v=0
93583 On ch=1 n=f#3 v=0
93585 On ch=1 n=e7 v=64
93585 On ch=1 n=e6 v=64
93585 On ch=1 n=e7 v=64
93585 On ch=1 n=e6 v=64
93645 On ch=1 n=c#5 v=64
93645 On ch=1 n=a#4 v=64
93645 On ch=1 n=e5 v=64
93645 On ch=1 n=c#5 v=64
93645 On ch=1 n=a#4 v=64
93645 On ch=1 n=e5 v=64
93703 On ch=1 n=e5 v=0
93703 On ch=1 n=a#4 v=0
93703 On ch=1 n=c#5 v=0
93703 On ch=1 n=e5 v=0
93703 On ch=1 n=a#4 v=0
93703 On ch=1 n=c#5 v=0
93703 On ch=1 n=e6 v=0
93703 On ch=1 n=e7 v=0
93703 On ch=1 n=e6 v=0
93703 On ch=1 n=e7 v=0
93705 On ch=1 n=c#6 v=64
93705 On ch=1 n=a#5 v=64
93705 On ch=1 n=c#6 v=64
93705 On ch=1 n=a#5 v=64
93725 Par ch=1 c=64 v=0
93757 Par ch=1 c=64 v=96
93763 On ch=1 n=a#5 v=0
93763 On ch=1 n=c#6 v=0
93763 On ch=1 n=a#5 v=0
93763 On ch=1 n=c#6 v=0
93765 On ch=1 n=f3 v=64
93765 On ch=1 n=f4 v=64
93765 On ch=1 n=f3 v=64
93765 On ch=1 n=f4 v=64
93823 On ch=1 n=f4 v=0
93823 On ch=1 n=f3 v=0
93823 On ch=1 n=f4 v=0
93823 On ch=1 n=f3 v=0
93825 On ch=1 n=f7 v=64
93825 On ch=1 n=f6 v=64
93825 On ch=1 n=f7 v=64
93825 On ch=1 n=f6 v=64
93883 On ch=1 n=f6 v=0
93883 On ch=1 n=f7 v=0
93883 On ch=1 n=f6 v=0
93883 On ch=1 n=f7 v=0
93885 On ch=1 n=f5 v=64
93885 On ch=1 n=c#5 v=64
93885 On ch=1 n=a#4 v=64
93885 On ch=1 n=f5 v=64
93885 On ch=1 n=c#5 v=64
93885 On ch=1 n=a#4 v=64
93908 Par ch=1 c=7 v=117
93943 On ch=1 n=a#4 v=0
93943 On ch=1 n=c#5 v=0
93943 On ch=1 n=f5 v=0
93943 On ch=1 n=a#4 v=0
93943 On ch=1 n=c#5 v=0
93943 On ch=1 n=f5 v=0
93945 On ch=1 n=c#6 v=64
93945 On ch=1 n=a#5 v=64
93945 On ch=1 n=c#6 v=64
93945 On ch=1 n=a#5 v=64
94003 On ch=1 n=a#5 v=0
94003 On ch=1 n=c#6 v=0
94003 On ch=1 n=a#5 v=0
94003 On ch=1 n=c#6 v=0
94005 On ch=1 n=c#3 v=64
94005 On ch=1 n=c#4 v=64
94005 On ch=1 n=c#3 v=64
94005 On ch=1 n=c#4 v=64
94063 On ch=1 n=c#4 v=0
94063 On ch=1 n=c#3 v=0
94063 On ch=1 n=c#4 v=0
94063 On ch=1 n=c#3 v=0
94065 On ch=1 n=c#7 v=64
94065 On ch=1 n=c#6 v=64
94065 On ch=1 n=c#7 v=64
94065 On ch=1 n=c#6 v=64
94123 On ch=1 n=c#6 v=0
94123 On ch=1 n=c#7 v=0
94123 On ch=1 n=c#6 v=0
94123 On ch=1 n=c#7 v=0
94125 On ch=1 n=c#5 v=64
94125 On ch=1 n=a#4 v=64
94125 On ch=1 n=f4 v=64
94125 On ch=1 n=c#5 v=64
94125 On ch=1 n=a#4 v=64
94125 On ch=1 n=f4 v=64
94183 On ch=1 n=f4 v=0
94183 On ch=1 n=a#4 v=0
94183 On ch=1 n=c#5 v=0
94183 On ch=1 n=f4 v=0
94183 On ch=1 n=a#4 v=0
94183 On ch=1 n=c#5 v=0
94185 On ch=1 n=a#5 v=64
94185 On ch=1 n=f5 v=64
94185 On ch=1 n=a#5 v=64
94185 On ch=1 n=f5 v=64
94205 Par ch=1 c=64 v=0
94237 Par ch=1 c=64 v=96
94243 On ch=1 n=f5 v=0
94243 On ch=1 n=a#5 v=0
94243 On ch=1 n=f5 v=0
94243 On ch=1 n=a#5 v=0
94245 On ch=1 n=a3 v=64
94245 On ch=1 n=a2 v=64
94245 On ch=1 n=a3 v=64
94245 On ch=1 n=a2 v=64
94303 On ch=1 n=a2 v=0
94303 On ch=1 n=a3 v=0
94303 On ch=1 n=a2 v=0
94303 On ch=1 n=a3 v=0
94305 On ch=1 n=a5 v=64
94305 On ch=1 n=a6 v=64
94305 On ch=1 n=a5 v=64
94305 On ch=1 n=a6 v=64
94340 Par ch=1 c=7 v=118
94363 On ch=1 n=a6 v=0
94363 On ch=1 n=a5 v=0
94363 On ch=1 n=a6 v=0
94363 On ch=1 n=a5 v=0
94365 On ch=1 n=f4 v=64
94365 On ch=1 n=c#4 v=64
94365 On ch=1 n=a4 v=64
94365 On ch=1 n=f4 v=64
94365 On ch=1 n=c#4 v=64
94365 On ch=1 n=a4 v=64
94423 On ch=1 n=a4 v=0
94423 On ch=1 n=c#4 v=0
94423 On ch=1 n=f4 v=0
94423 On ch=1 n=a4 v=0
94423 On ch=1 n=c#4 v=0
94423 On ch=1 n=f4 v=0
94425 On ch=1 n=f5 v=64
94425 On ch=1 n=c#5 v=64
94425 On ch=1 n=f5 v=64
94425 On ch=1 n=c#5 v=64
94445 Par ch=1 c=64 v=0
94477 Par ch=1 c=64 v=95
94483 On ch=1 n=c#5 v=0
94483 On ch=1 n=f5 v=0
94483 On ch=1 n=c#5 v=0
94483 On ch=1 n=f5 v=0
94485 On ch=1 n=a#2 v=64
94485 On ch=1 n=a#3 v=64
94485 On ch=1 n=a#2 v=64
94485 On ch=1 n=a#3 v=64
94543 On ch=1 n=a#3 v=0
94543 On ch=1 n=a#2 v=0
94543 On ch=1 n=a#3 v=0
94543 On ch=1 n=a#2 v=0
94545 On ch=1 n=a#6 v=64
94545 On ch=1 n=a#5 v=64
94545 On ch=1 n=a#6 v=64
94545 On ch=1 n=a#5 v=64
94603 On ch=1 n=a#5 v=0
94603 On ch=1 n=a#6 v=0
94603 On ch=1 n=a#5 v=0
94603 On ch=1 n=a#6 v=0
94605 On ch=1 n=a#4 v=64
94605 On ch=1 n=f4 v=64
94605 On ch=1 n=c#4 v=64
94605 On ch=1 n=a#4 v=64
94605 On ch=1 n=f4 v=64
94605 On ch=1 n=c#4 v=64
94663 On ch=1 n=c#4 v=0
94663 On ch=1 n=f4 v=0
94663 On ch=1 n=a#4 v=0
94663 On ch=1 n=c#4 v=0
94663 On ch=1 n=f4 v=0
94663 On ch=1 n=a#4 v=0
94665 On ch=1 n=f5 v=64
94665 On ch=1 n=c#5 v=64
94665 On ch=1 n=f5 v=64
94665 On ch=1 n=c#5 v=64
94723 On ch=1 n=c#5 v=0
94723 On ch=1 n=f5 v=0
94723 On ch=1 n=c#5 v=0
94723 On ch=1 n=f5 v=0
94725 Tempo 1304348
94725 On ch=1 n=e3 v=64
94725 On ch=1 n=e2 v=64
94725 On ch=1 n=e3 v=64
94725 On ch=1 n=e2 v=64
94772 Par ch=1 c=7 v=119
94783 On ch=1 n=e2 v=0
94783 On ch=1 n=e3 v=0
94783 On ch=1 n=e2 v=0
94783 On ch=1 n=e3 v=0
94785 On ch=1 n=e6 v=64
94785 On ch=1 n=e5 v=64
94785 On ch=1 n=e6 v=64
94785 On ch=1 n=e5 v=64
94804 Tempo 1333333
94843 On ch=1 n=e5 v=0
94843 On ch=1 n=e6 v=0
94843 On ch=1 n=e5 v=0
94843 On ch=1 n=e6 v=0
94845 On ch=1 n=c#4 v=64
94845 On ch=1 n=a#3 v=64
94845 On ch=1 n=e4 v=64
94845 On ch=1 n=c#4 v=64
94845 On ch=1 n=a#3 v=64
94845 On ch=1 n=e4 v=64
94884 Tempo 1363636
94903 On ch=1 n=e4 v=0
94903 On ch=1 n=a#3 v=0
94903 On ch=1 n=c#4 v=0
94903 On ch=1 n=e4 v=0
94903 On ch=1 n=a#3 v=0
94903 On ch=1 n=c#4 v=0
94905 On ch=1 n=c#5 v=64
94905 On ch=1 n=a#4 v=64
94905 On ch=1 n=c#5 v=64
94905 On ch=1 n=a#4 v=64
94925 Par ch=1 c=64 v=0
94957 Par ch=1 c=64 v=95
94963 On ch=1 n=a#4 v=0
94963 On ch=1 n=c#5 v=0
94963 On ch=1 n=a#4 v=0
94963 On ch=1 n=c#5 v=0
94964 Tempo 1395349
94965 On ch=1 n=f3 v=64
94965 On ch=1 n=f2 v=64
94965 On ch=1 n=f3 v=64
94965 On ch=1 n=f2 v=64
95023 On ch=1 n=f2 v=0
95023 On ch=1 n=f3 v=0
95023 On ch=1 n=f2 v=0
95023 On ch=1 n=f3 v=0
95025 On ch=1 n=f6 v=64
95025 On ch=1 n=f5 v=64
95025 On ch=1 n=f6 v=64
95025 On ch=1 n=f5 v=64
95044 Tempo 1428571
95083 On ch=1 n=f5 v=0
95083 On ch=1 n=f6 v=0
95083 On ch=1 n=f5 v=0
95083 On ch=1 n=f6 v=0
95085 On ch=1 n=f4 v=64
95085 On ch=1 n=c#4 v=64
95085 On ch=1 n=a#3 v=64
95085 On ch=1 n=f4 v=64
95085 On ch=1 n=c#4 v=64
95085 On ch=1 n=a#3 v=64
95124 Tempo 1463415
95143 On ch=1 n=a#3 v=0
95143 On ch=1 n=c#4 v=0
95143 On ch=1 n=f4 v=0
95143 On ch=1 n=a#3 v=0
95143 On ch=1 n=c#4 v=0
95143 On ch=1 n=f4 v=0
95145 On ch=1 n=f5 v=64
95145 On ch=1 n=c#5 v=64
95145 On ch=1 n=f5 v=64
95145 On ch=1 n=c#5 v=64
95165 Par ch=1 c=64 v=0
95197 Par ch=1 c=64 v=96
95203 On ch=1 n=c#5 v=0
95203 On ch=1 n=f5 v=0
95203 On ch=1 n=c#5 v=0
95203 On ch=1 n=f5 v=0
95204 Tempo 1500000
95204 Par ch=1 c=7 v=120
95205 Tempo 6000000
95205 On ch=1 n=f#2 v=64
95205 On ch=1 n=f#3 v=64
95205 On ch=1 n=f#4 v=64
95205 On ch=1 n=f#5 v=64
95205 On ch=1 n=f#2 v=64
95205 On ch=1 n=f#3 v=64
95205 On ch=1 n=f#4 v=64
95205 On ch=1 n=f#5 v=64
95265 Tempo 1428571
95265 Par ch=1 c=7 v=80
95275 On ch=1 n=f#3 v=0
95275 On ch=1 n=f#2 v=0
95275 On ch=1 n=f#3 v=0
95275 On ch=1 n=f#2 v=0
95277 On ch=1 n=g3 v=64
95277 On ch=1 n=g4 v=64
95293 Par ch=1 c=7 v=81
95299 On ch=1 n=g4 v=0
95299 On ch=1 n=g3 v=0
95301 On ch=1 n=g#3 v=64
95301 On ch=1 n=g#4 v=64
95321 Par ch=1 c=7 v=82
95323 On ch=1 n=g#4 v=0
95323 On ch=1 n=g#3 v=0
95325 On ch=1 n=a3 v=64
95325 On ch=1 n=a4 v=64
95347 On ch=1 n=a4 v=0
95347 On ch=1 n=a3 v=0
95349 On ch=1 n=a#3 v=64
95349 On ch=1 n=a#4 v=64
95350 Par ch=1 c=7 v=83
95371 On ch=1 n=a#4 v=0
95371 On ch=1 n=a#3 v=0
95373 On ch=1 n=b3 v=64
95373 On ch=1 n=b4 v=64
95378 Par ch=1 c=7 v=84
95395 On ch=1 n=b4 v=0
95395 On ch=1 n=b3 v=0
95397 On ch=1 n=c4 v=64
95397 On ch=1 n=c5 v=64
95407 Par ch=1 c=7 v=85
95419 On ch=1 n=c5 v=0
95419 On ch=1 n=c4 v=0
95421 On ch=1 n=c#4 v=64
95421 On ch=1 n=c#5 v=64
95435 Par ch=1 c=7 v=86
95443 On ch=1 n=c#5 v=0
95443 On ch=1 n=c#4 v=0
95445 On ch=1 n=d4 v=64
95445 On ch=1 n=d5 v=64
95464 Par ch=1 c=7 v=87
95467 On ch=1 n=d5 v=0
95467 On ch=1 n=d4 v=0
95469 On ch=1 n=d#4 v=64
95469 On ch=1 n=d#5 v=64
95491 On ch=1 n=d#5 v=0
95491 On ch=1 n=d#4 v=0
95492 Par ch=1 c=7 v=88
95493 On ch=1 n=e4 v=64
95493 On ch=1 n=e5 v=64
95515 On ch=1 n=e5 v=0
95515 On ch=1 n=e4 v=0
95517 On ch=1 n=f4 v=64
95517 On ch=1 n=f5 v=64
95521 Par ch=1 c=7 v=89
95539 On ch=1 n=f5 v=0
95539 On ch=1 n=f4 v=0
95541 On ch=1 n=f#4 v=64
95541 On ch=1 n=f#5 v=64
95549 Par ch=1 c=7 v=90
95563 On ch=1 n=f#5 v=0
95563 On ch=1 n=f#4 v=0
95565 On ch=1 n=g4 v=64
95565 On ch=1 n=g5 v=64
95575 Par ch=1 c=7 v=91
95584 On ch=1 n=g5 v=0
95584 On ch=1 n=g4 v=0
95586 On ch=1 n=g#4 v=64
95586 On ch=1 n=g#5 v=64
95603 Par ch=1 c=7 v=92
95608 On ch=1 n=g#5 v=0
95608 On ch=1 n=g#4 v=0
95610 On ch=1 n=a4 v=64
95610 On ch=1 n=a5 v=64
95632 On ch=1 n=a5 v=0
95632 On ch=1 n=a4 v=0
95632 Par ch=1 c=7 v=93
95634 On ch=1 n=a#4 v=64
95634 On ch=1 n=a#5 v=64
95656 On ch=1 n=a#5 v=0
95656 On ch=1 n=a#4 v=0
95658 On ch=1 n=b4 v=64
95658 On ch=1 n=b5 v=64
95660 Par ch=1 c=7 v=94
95680 On ch=1 n=b5 v=0
95680 On ch=1 n=b4 v=0
95680 On ch=1 n=f#5 v=0
95680 On ch=1 n=f#4 v=0
95680 On ch=1 n=f#5 v=0
95680 On ch=1 n=f#4 v=0
95682 On ch=1 n=c5 v=64
95682 On ch=1 n=c6 v=64
95689 Par ch=1 c=7 v=95
95704 On ch=1 n=c6 v=0
95704 On ch=1 n=c5 v=0
95706 On ch=1 n=c#5 v=64
95706 On ch=1 n=c#6 v=64
95717 Par ch=1 c=7 v=96
95728 On ch=1 n=c#6 v=0
95728 On ch=1 n=c#5 v=0
95730 On ch=1 n=d5 v=64
95730 On ch=1 n=d6 v=64
95746 Par ch=1 c=7 v=97
95752 On ch=1 n=d6 v=0
95752 On ch=1 n=d5 v=0
95754 On ch=1 n=d#5 v=64
95754 On ch=1 n=d#6 v=64
95774 Par ch=1 c=7 v=98
95776 On ch=1 n=d#6 v=0
95776 On ch=1 n=d#5 v=0
95778 On ch=1 n=e5 v=64
95778 On ch=1 n=e6 v=64
95800 On ch=1 n=e6 v=0
95800 On ch=1 n=e5 v=0
95802 On ch=1 n=f5 v=64
95802 On ch=1 n=f6 v=64
95803 Par ch=1 c=7 v=99
95824 On ch=1 n=f6 v=0
95824 On ch=1 n=f5 v=0
95826 On ch=1 n=f#5 v=64
95826 On ch=1 n=f#6 v=64
95831 Par ch=1 c=7 v=100
95848 On ch=1 n=f#6 v=0
95848 On ch=1 n=f#5 v=0
95850 On ch=1 n=f5 v=64
95850 On ch=1 n=g6 v=64
95859 Par ch=1 c=7 v=101
95869 On ch=1 n=g6 v=0
95869 On ch=1 n=f5 v=0
95871 On ch=1 n=e5 v=64
95871 On ch=1 n=g#6 v=64
95879 Par ch=1 c=64 v=0
95885 Par ch=1 c=7 v=102
95893 On ch=1 n=g#6 v=0
95893 On ch=1 n=e5 v=0
95895 On ch=1 n=d#5 v=64
95895 On ch=1 n=a6 v=64
95911 Par ch=1 c=64 v=96
95913 Par ch=1 c=7 v=103
95917 On ch=1 n=a6 v=0
95917 On ch=1 n=d#5 v=0
95919 On ch=1 n=d5 v=64
95919 On ch=1 n=a#6 v=64
95941 On ch=1 n=a#6 v=0
95941 On ch=1 n=d5 v=0
95942 Par ch=1 c=7 v=104
95943 On ch=1 n=c#5 v=64
95943 On ch=1 n=b6 v=64
95965 On ch=1 n=b6 v=0
95965 On ch=1 n=c#5 v=0
95967 On ch=1 n=c5 v=64
95967 On ch=1 n=c7 v=64
95970 Par ch=1 c=7 v=105
95989 On ch=1 n=c7 v=0
95989 On ch=1 n=c5 v=0
95991 On ch=1 n=b4 v=64
95991 On ch=1 n=c#7 v=64
95999 Par ch=1 c=7 v=106
96013 On ch=1 n=c#7 v=0
96013 On ch=1 n=b4 v=0
96015 On ch=1 n=a#4 v=64
96015 On ch=1 n=d7 v=64
96027 Par ch=1 c=7 v=107
96037 On ch=1 n=d7 v=0
96037 On ch=1 n=a#4 v=0
96039 On ch=1 n=a4 v=64
96039 On ch=1 n=d#7 v=64
96056 Par ch=1 c=7 v=108
96061 On ch=1 n=d#7 v=0
96061 On ch=1 n=a4 v=0
96063 On ch=1 n=g#4 v=64
96063 On ch=1 n=e7 v=64
96084 Par ch=1 c=7 v=109
96085 On ch=1 n=e7 v=0
96085 On ch=1 n=g#4 v=0
96087 On ch=1 n=g4 v=64
96087 On ch=1 n=f7 v=64
96109 On ch=1 n=f7 v=0
96109 On ch=1 n=g4 v=0
96111 On ch=1 n=f#4 v=64
96111 On ch=1 n=f#7 v=64
96113 Par ch=1 c=7 v=110
96133 On ch=1 n=f#7 v=0
96133 On ch=1 n=f#4 v=0
96135 On ch=1 n=f4 v=64
96135 On ch=1 n=g7 v=64
96141 Par ch=1 c=7 v=111
96157 On ch=1 n=g7 v=0
96157 On ch=1 n=f4 v=0
96159 On ch=1 n=e4 v=64
96159 On ch=1 n=g#7 v=64
96170 Par ch=1 c=7 v=112
96181 On ch=1 n=g#7 v=0
96181 On ch=1 n=e4 v=0
96183 On ch=1 n=d#4 v=64
96183 On ch=1 n=a7 v=64
96198 Par ch=1 c=7 v=113
96205 On ch=1 n=a7 v=0
96205 On ch=1 n=d#4 v=0
96207 On ch=1 n=d4 v=64
96207 On ch=1 n=a#7 v=64
96227 Par ch=1 c=7 v=114
96229 On ch=1 n=a#7 v=0
96229 On ch=1 n=d4 v=0
96231 On ch=1 n=c#4 v=64
96231 On ch=1 n=b7 v=64
96253 On ch=1 n=b7 v=0
96253 On ch=1 n=c#4 v=0
96255 Par ch=1 c=7 v=115
96255 On ch=1 n=c4 v=64
96255 On ch=1 n=c8 v=64
96277 On ch=1 n=c8 v=0
96277 On ch=1 n=c4 v=0
96279 On ch=1 n=b3 v=64
96279 On ch=1 n=c#8 v=64
96284 Par ch=1 c=7 v=116
96301 On ch=1 n=c#8 v=0
96301 On ch=1 n=b3 v=0
96303 On ch=1 n=a#3 v=64
96303 On ch=1 n=d8 v=64
96312 Par ch=1 c=7 v=117
96322 On ch=1 n=d8 v=0
96322 On ch=1 n=a#3 v=0
96324 On ch=1 n=a3 v=64
96324 On ch=1 n=d#8 v=64
96338 Par ch=1 c=7 v=118
96346 On ch=1 n=d#8 v=0
96346 On ch=1 n=a3 v=0
96348 On ch=1 n=g#3 v=64
96348 On ch=1 n=e8 v=64
96366 Par ch=1 c=7 v=119
96370 On ch=1 n=e8 v=0
96370 On ch=1 n=g#3 v=0
96372 On ch=1 n=g3 v=64
96372 On ch=1 n=f8 v=64
96394 On ch=1 n=f8 v=0
96394 On ch=1 n=g3 v=0
96395 Par ch=1 c=7 v=120
96396 On ch=1 n=f#3 v=64
96396 On ch=1 n=f#8 v=64
96396 On ch=1 n=f#3 v=64
96396 On ch=1 n=f#8 v=64
96514 On ch=1 n=f#8 v=0
96514 On ch=1 n=f#3 v=0
96514 On ch=1 n=f#8 v=0
96514 On ch=1 n=f#3 v=0
96636 Tempo 6000000
96756 Par ch=1 c=64 v=0
96868 Par ch=1 c=64 v=96
96876 Tempo 1428571
96876 On ch=1 n=f#3 v=64
96876 On ch=1 n=f#2 v=64
96876 On ch=1 n=f#5 v=64
96876 On ch=1 n=c#5 v=64
96876 On ch=1 n=a#4 v=64
96876 On ch=1 n=f#4 v=64
96876 On ch=1 n=f#3 v=64
96876 On ch=1 n=f#2 v=64
96876 On ch=1 n=f#5 v=64
96876 On ch=1 n=c#5 v=64
96876 On ch=1 n=a#4 v=64
96876 On ch=1 n=f#4 v=64
96975 Tempo 1463415
97075 Tempo 1500000
97114 On ch=1 n=f#4 v=0
97114 On ch=1 n=a#4 v=0
97114 On ch=1 n=c#5 v=0
97114 On ch=1 n=f#5 v=0
97114 On ch=1 n=f#2 v=0
97114 On ch=1 n=f#3 v=0
97114 On ch=1 n=f#4 v=0
97114 On ch=1 n=a#4 v=0
97114 On ch=1 n=c#5 v=0
97114 On ch=1 n=f#5 v=0
97114 On ch=1 n=f#2 v=0
97114 On ch=1 n=f#3 v=0
97116 On ch=1 n=f#4 v=64
97116 On ch=1 n=f#5 v=64
97116 On ch=1 n=d5 v=64
97116 On ch=1 n=b4 v=64
97116 On ch=1 n=b3 v=64
97116 On ch=1 n=b2 v=64
97116 On ch=1 n=f#4 v=64
97116 On ch=1 n=f#5 v=64
97116 On ch=1 n=d5 v=64
97116 On ch=1 n=b4 v=64
97116 On ch=1 n=b3 v=64
97116 On ch=1 n=b2 v=64
97175 Tempo 1538462
97275 Tempo 1578947
97354 On ch=1 n=b2 v=0
97354 On ch=1 n=b3 v=0
97354 On ch=1 n=b4 v=0
97354 On ch=1 n=d5 v=0
97354 On ch=1 n=f#5 v=0
97354 On ch=1 n=f#4 v=0
97354 On ch=1 n=b2 v=0
97354 On ch=1 n=b3 v=0
97354 On ch=1 n=b4 v=0
97354 On ch=1 n=d5 v=0
97354 On ch=1 n=f#5 v=0
97354 On ch=1 n=f#4 v=0
97356 On ch=1 n=c4 v=64
97356 On ch=1 n=c3 v=64
97356 On ch=1 n=f#5 v=64
97356 On ch=1 n=a#4 v=64
97356 On ch=1 n=e5 v=64
97356 On ch=1 n=c4 v=64
97356 On ch=1 n=c3 v=64
97356 On ch=1 n=f#5 v=64
97356 On ch=1 n=a#4 v=64
97356 On ch=1 n=e5 v=64
97375 Tempo 1621622
97475 Tempo 1666667
97556 Par ch=1 c=64 v=0
97575 Tempo 1714286
97585 Par ch=1 c=64 v=97
97591 On ch=1 n=e5 v=0
97591 On ch=1 n=a#4 v=0
97591 On ch=1 n=f#5 v=0
97591 On ch=1 n=c3 v=0
97591 On ch=1 n=c4 v=0
97591 On ch=1 n=e5 v=0
97591 On ch=1 n=a#4 v=0
97591 On ch=1 n=f#5 v=0
97591 On ch=1 n=c3 v=0
97591 On ch=1 n=c4 v=0
97593 Par ch=1 c=7 v=120
97593 On ch=1 n=f3 v=64
97593 On ch=1 n=f2 v=64
97593 On ch=1 n=f#5 v=64
97593 On ch=1 n=d#5 v=64
97593 On ch=1 n=f#4 v=64
97593 On ch=1 n=a4 v=64
97593 On ch=1 n=f3 v=64
97593 On ch=1 n=f2 v=64
97593 On ch=1 n=f#5 v=64
97593 On ch=1 n=d#5 v=64
97593 On ch=1 n=f#4 v=64
97593 On ch=1 n=a4 v=64
97672 Tempo 1764706
97688 Par ch=1 c=7 v=119
97772 Tempo 1818182
97784 Par ch=1 c=7 v=118
97872 Tempo 1875000
97880 Par ch=1 c=7 v=117
97951 On ch=1 n=a4 v=0
97951 On ch=1 n=f#4 v=0
97951 On ch=1 n=d#5 v=0
97951 On ch=1 n=f#5 v=0
97951 On ch=1 n=a4 v=0
97951 On ch=1 n=f#4 v=0
97951 On ch=1 n=d#5 v=0
97951 On ch=1 n=f#5 v=0
97953 On ch=1 n=f5 v=64
97953 On ch=1 n=f4 v=64
97953 On ch=1 n=f5 v=64
97953 On ch=1 n=f4 v=64
97972 Tempo 1935484
97976 Par ch=1 c=7 v=116
98071 On ch=1 n=f4 v=0
98071 On ch=1 n=f5 v=0
98071 On ch=1 n=f4 v=0
98071 On ch=1 n=f5 v=0
98071 On ch=1 n=f2 v=0
98071 On ch=1 n=f3 v=0
98071 On ch=1 n=f2 v=0
98071 On ch=1 n=f3 v=0
98072 Tempo 2000000
98072 Par ch=1 c=7 v=115
98073 Tempo 2000000
98073 On ch=1 n=f5 v=64
98073 On ch=1 n=c#5 v=64
98073 On ch=1 n=a#4 v=64
98073 On ch=1 n=f4 v=64
98073 On ch=1 n=a#3 v=64
98073 On ch=1 n=a#2 v=64
98073 On ch=1 n=f5 v=64
98073 On ch=1 n=c#5 v=64
98073 On ch=1 n=a#4 v=64
98073 On ch=1 n=f4 v=64
98073 On ch=1 n=a#3 v=64
98073 On ch=1 n=a#2 v=64
98131 On ch=1 n=a#2 v=0
98131 On ch=1 n=a#3 v=0
98131 On ch=1 n=f4 v=0
98131 On ch=1 n=a#4 v=0
98131 On ch=1 n=c#5 v=0
98131 On ch=1 n=f5 v=0
98131 On ch=1 n=a#2 v=0
98131 On ch=1 n=a#3 v=0
98131 On ch=1 n=f4 v=0
98131 On ch=1 n=a#4 v=0
98131 On ch=1 n=c#5 v=0
98131 On ch=1 n=f5 v=0
98193 Par ch=1 c=64 v=0
98305 Par ch=1 c=64 v=96
98313 Tempo 1428571
98313 Par ch=1 c=7 v=120
98313 On ch=1 n=c#4 v=64
98313 On ch=1 n=c#5 v=64
98313 On ch=1 n=c#6 v=64
98313 On ch=1 n=c#4 v=64
98313 On ch=1 n=c#5 v=64
98313 On ch=1 n=c#6 v=64
98361 On ch=1 n=f4 v=64
98361 On ch=1 n=f5 v=64
98407 On ch=1 n=f5 v=0
98407 On ch=1 n=f4 v=0
98409 On ch=1 n=a#4 v=64
98409 On ch=1 n=a#5 v=64
98455 On ch=1 n=a#5 v=0
98455 On ch=1 n=a#4 v=0
98457 On ch=1 n=f4 v=64
98457 On ch=1 n=f5 v=64
98503 On ch=1 n=f5 v=0
98503 On ch=1 n=f4 v=0
98505 On ch=1 n=a#4 v=64
98505 On ch=1 n=a#5 v=64
98551 On ch=1 n=a#5 v=0
98551 On ch=1 n=a#4 v=0
98551 On ch=1 n=c#6 v=0
98551 On ch=1 n=c#5 v=0
98551 On ch=1 n=c#4 v=0
98551 On ch=1 n=c#6 v=0
98551 On ch=1 n=c#5 v=0
98551 On ch=1 n=c#4 v=0
98553 On ch=1 n=c4 v=64
98553 On ch=1 n=c5 v=64
98553 On ch=1 n=c6 v=64
98553 On ch=1 n=c4 v=64
98553 On ch=1 n=c5 v=64
98553 On ch=1 n=c6 v=64
98601 On ch=1 n=c#4 v=64
98601 On ch=1 n=c#5 v=64
98647 On ch=1 n=c#5 v=0
98647 On ch=1 n=c#4 v=0
98649 On ch=1 n=f4 v=64
98649 On ch=1 n=f5 v=64
98695 On ch=1 n=f5 v=0
98695 On ch=1 n=f4 v=0
98697 On ch=1 n=c#4 v=64
98697 On ch=1 n=c#5 v=64
98743 On ch=1 n=c#5 v=0
98743 On ch=1 n=c#4 v=0
98745 On ch=1 n=f4 v=64
98745 On ch=1 n=f5 v=64
98791 On ch=1 n=f5 v=0
98791 On ch=1 n=f4 v=0
98791 On ch=1 n=c6 v=0
98791 On ch=1 n=c5 v=0
98791 On ch=1 n=c4 v=0
98791 On ch=1 n=c6 v=0
98791 On ch=1 n=c5 v=0
98791 On ch=1 n=c4 v=0
98793 On ch=1 n=a#3 v=64
98793 On ch=1 n=a#4 v=64
98793 On ch=1 n=a#5 v=64
98793 On ch=1 n=a#3 v=64
98793 On ch=1 n=a#4 v=64
98793 On ch=1 n=a#5 v=64
98841 On ch=1 n=c#4 v=64
98841 On ch=1 n=c#5 v=64
98887 On ch=1 n=c#5 v=0
98887 On ch=1 n=c#4 v=0
98889 On ch=1 n=f4 v=64
98889 On ch=1 n=f5 v=64
98935 On ch=1 n=f5 v=0
98935 On ch=1 n=f4 v=0
98937 On ch=1 n=c#4 v=64
98937 On ch=1 n=c#5 v=64
98983 On ch=1 n=c#5 v=0
98983 On ch=1 n=c#4 v=0
98985 On ch=1 n=f4 v=64
98985 On ch=1 n=f5 v=64
99031 On ch=1 n=f5 v=0
99031 On ch=1 n=f4 v=0
99031 On ch=1 n=a#5 v=0
99031 On ch=1 n=a#4 v=0
99031 On ch=1 n=a#3 v=0
99031 On ch=1 n=a#5 v=0
99031 On ch=1 n=a#4 v=0
99031 On ch=1 n=a#3 v=0
99033 On ch=1 n=a3 v=64
99033 On ch=1 n=a4 v=64
99033 On ch=1 n=a5 v=64
99033 On ch=1 n=a3 v=64
99033 On ch=1 n=a4 v=64
99033 On ch=1 n=a5 v=64
99081 On ch=1 n=c#4 v=64
99081 On ch=1 n=c#5 v=64
99113 Par ch=1 c=64 v=0
99127 On ch=1 n=c#5 v=0
99127 On ch=1 n=c#4 v=0
99129 On ch=1 n=f4 v=64
99129 On ch=1 n=f5 v=64
99145 Par ch=1 c=64 v=96
99175 On ch=1 n=f5 v=0
99175 On ch=1 n=f4 v=0
99177 On ch=1 n=c#4 v=64
99177 On ch=1 n=c#5 v=64
99223 On ch=1 n=c#5 v=0
99223 On ch=1 n=c#4 v=0
99225 On ch=1 n=f4 v=64
99225 On ch=1 n=f5 v=64
99271 On ch=1 n=f5 v=0
99271 On ch=1 n=f4 v=0
99271 On ch=1 n=a5 v=0
99271 On ch=1 n=a4 v=0
99271 On ch=1 n=a3 v=0
99271 On ch=1 n=a5 v=0
99271 On ch=1 n=a4 v=0
99271 On ch=1 n=a3 v=0
99273 On ch=1 n=a#3 v=64
99273 On ch=1 n=a#4 v=64
99273 On ch=1 n=a#5 v=64
99273 On ch=1 n=a#3 v=64
99273 On ch=1 n=a#4 v=64
99273 On ch=1 n=a#5 v=64
99307 On ch=1 n=c#4 v=64
99307 On ch=1 n=c#5 v=64
99340 On ch=1 n=c#5 v=0
99340 On ch=1 n=c#4 v=0
99342 On ch=1 n=f4 v=64
99342 On ch=1 n=f5 v=64
99374 On ch=1 n=f5 v=0
99374 On ch=1 n=f4 v=0
99376 On ch=1 n=c#4 v=64
99376 On ch=1 n=c#5 v=64
99408 On ch=1 n=c#5 v=0
99408 On ch=1 n=c#4 v=0
99410 On ch=1 n=f4 v=64
99410 On ch=1 n=f5 v=64
99442 On ch=1 n=f5 v=0
99442 On ch=1 n=f4 v=0
99444 On ch=1 n=c#6 v=64
99444 On ch=1 n=c#7 v=64
99444 On ch=1 n=c#6 v=64
99444 On ch=1 n=c#7 v=64
99511 On ch=1 n=c#7 v=0
99511 On ch=1 n=c#6 v=0
99511 On ch=1 n=c#7 v=0
99511 On ch=1 n=c#6 v=0
99511 On ch=1 n=a#5 v=0
99511 On ch=1 n=a#4 v=0
99511 On ch=1 n=a#3 v=0
99511 On ch=1 n=a#5 v=0
99511 On ch=1 n=a#4 v=0
99511 On ch=1 n=a#3 v=0
99513 On ch=1 n=c#7 v=64
99513 On ch=1 n=f#6 v=64
99513 On ch=1 n=c#6 v=64
99513 On ch=1 n=d#3 v=64
99513 On ch=1 n=d#4 v=64
99513 On ch=1 n=c#7 v=64
99513 On ch=1 n=f#6 v=64
99513 On ch=1 n=c#6 v=64
99513 On ch=1 n=d#3 v=64
99513 On ch=1 n=d#4 v=64
99553 On ch=1 n=f#5 v=64
99591 On ch=1 n=f#5 v=0
99593 On ch=1 n=d#5 v=64
99593 On ch=1 n=a#4 v=64
99593 On ch=1 n=f#4 v=64
99631 On ch=1 n=f#4 v=0
99631 On ch=1 n=a#4 v=0
99631 On ch=1 n=d#5 v=0
99631 On ch=1 n=d#4 v=0
99631 On ch=1 n=d#3 v=0
99631 On ch=1 n=d#4 v=0
99631 On ch=1 n=d#3 v=0
99633 On ch=1 n=f#5 v=64
99671 On ch=1 n=f#5 v=0
99673 On ch=1 n=d#5 v=64
99673 On ch=1 n=a#4 v=64
99673 On ch=1 n=f#4 v=64
99711 On ch=1 n=f#4 v=0
99711 On ch=1 n=a#4 v=0
99711 On ch=1 n=d#5 v=0
99713 On ch=1 n=f#5 v=64
99751 On ch=1 n=f#5 v=0
99751 On ch=1 n=c#6 v=0
99751 On ch=1 n=f#6 v=0
99751 On ch=1 n=c#7 v=0
99751 On ch=1 n=c#6 v=0
99751 On ch=1 n=f#6 v=0
99751 On ch=1 n=c#7 v=0
99753 On ch=1 n=d#5 v=64
99753 On ch=1 n=a#4 v=64
99753 On ch=1 n=f#4 v=64
99753 On ch=1 n=c6 v=64
99753 On ch=1 n=c7 v=64
99753 On ch=1 n=c6 v=64
99753 On ch=1 n=c7 v=64
99791 On ch=1 n=f#4 v=0
99791 On ch=1 n=a#4 v=0
99791 On ch=1 n=d#5 v=0
99793 On ch=1 n=f#5 v=64
99831 On ch=1 n=f#5 v=0
99833 On ch=1 n=d#5 v=64
99833 On ch=1 n=a#4 v=64
99833 On ch=1 n=f#4 v=64
99871 On ch=1 n=f#4 v=0
99871 On ch=1 n=a#4 v=0
99871 On ch=1 n=d#5 v=0
99873 On ch=1 n=f#5 v=64
99911 On ch=1 n=f#5 v=0
99913 On ch=1 n=d#5 v=64
99913 On ch=1 n=a#4 v=64
99913 On ch=1 n=f#4 v=64
99951 On ch=1 n=f#4 v=0
99951 On ch=1 n=a#4 v=0
99951 On ch=1 n=d#5 v=0
99953 On ch=1 n=f#5 v=64
99991 On ch=1 n=f#5 v=0
99991 On ch=1 n=c7 v=0
99991 On ch=1 n=c6 v=0
99991 On ch=1 n=c7 v=0
99991 On ch=1 n=c6 v=0
99993 On ch=1 n=d#5 v=64
99993 On ch=1 n=a#4 v=64
99993 On ch=1 n=f#4 v=64
99993 On ch=1 n=a#5 v=64
99993 On ch=1 n=a#6 v=64
99993 On ch=1 n=a#5 v=64
99993 On ch=1 n=a#6 v=64
100031 On ch=1 n=f#4 v=0
100031 On ch=1 n=a#4 v=0
100031 On ch=1 n=d#5 v=0
100033 On ch=1 n=f#5 v=64
100071 On ch=1 n=f#5 v=0
100073 On ch=1 n=d#5 v=64
100073 On ch=1 n=a#4 v=64
100073 On ch=1 n=f#4 v=64
100111 On ch=1 n=f#4 v=0
100111 On ch=1 n=a#4 v=0
100111 On ch=1 n=d#5 v=0
100113 On ch=1 n=f#5 v=64
100151 On ch=1 n=f#5 v=0
100153 On ch=1 n=d#5 v=64
100153 On ch=1 n=a#4 v=64
100153 On ch=1 n=f#4 v=64
100191 On ch=1 n=f#4 v=0
100191 On ch=1 n=a#4 v=0
100191 On ch=1 n=d#5 v=0
100193 On ch=1 n=f#5 v=64
100193 Par ch=1 c=64 v=0
100225 Par ch=1 c=64 v=96
100231 On ch=1 n=f#5 v=0
100231 On ch=1 n=a#6 v=0
100231 On ch=1 n=a#5 v=0
100231 On ch=1 n=a#6 v=0
100231 On ch=1 n=a#5 v=0
100233 On ch=1 n=c#7 v=64
100233 On ch=1 n=d#6 v=64
100233 On ch=1 n=c#6 v=64
100233 On ch=1 n=f#3 v=64
100233 On ch=1 n=f#4 v=64
100233 On ch=1 n=c#7 v=64
100233 On ch=1 n=d#6 v=64
100233 On ch=1 n=c#6 v=64
100233 On ch=1 n=f#3 v=64
100233 On ch=1 n=f#4 v=64
100273 On ch=1 n=f#5 v=64
100311 On ch=1 n=f#5 v=0
100313 On ch=1 n=c#5 v=64
100313 On ch=1 n=a#4 v=64
100313 On ch=1 n=f#4 v=64
100351 On ch=1 n=f#4 v=0
100351 On ch=1 n=a#4 v=0
100351 On ch=1 n=c#5 v=0
100351 On ch=1 n=f#4 v=0
100351 On ch=1 n=f#3 v=0
100351 On ch=1 n=f#4 v=0
100351 On ch=1 n=f#3 v=0
100353 On ch=1 n=f#5 v=64
100391 On ch=1 n=f#5 v=0
100393 On ch=1 n=d#5 v=64
100393 On ch=1 n=a#4 v=64
100393 On ch=1 n=f#4 v=64
100431 On ch=1 n=f#4 v=0
100431 On ch=1 n=a#4 v=0
100431 On ch=1 n=d#5 v=0
100433 On ch=1 n=f#5 v=64
100471 On ch=1 n=f#5 v=0
100471 On ch=1 n=c#6 v=0
100471 On ch=1 n=d#6 v=0
100471 On ch=1 n=c#7 v=0
100471 On ch=1 n=c#6 v=0
100471 On ch=1 n=d#6 v=0
100471 On ch=1 n=c#7 v=0
100473 On ch=1 n=d#5 v=64
100473 On ch=1 n=a#4 v=64
100473 On ch=1 n=f#4 v=64
100473 On ch=1 n=c6 v=64
100473 On ch=1 n=c7 v=64
100473 On ch=1 n=c6 v=64
100473 On ch=1 n=c7 v=64
100511 On ch=1 n=f#4 v=0
100511 On ch=1 n=a#4 v=0
100511 On ch=1 n=d#5 v=0
100513 On ch=1 n=f#5 v=64
100551 On ch=1 n=f#5 v=0
100553 On ch=1 n=d#5 v=64
100553 On ch=1 n=a#4 v=64
100553 On ch=1 n=f#4 v=64
100591 On ch=1 n=f#4 v=0
100591 On ch=1 n=a#4 v=0
100591 On ch=1 n=d#5 v=0
100593 On ch=1 n=f#5 v=64
100631 On ch=1 n=f#5 v=0
100633 On ch=1 n=d#5 v=64
100633 On ch=1 n=a#4 v=64
100633 On ch=1 n=f#4 v=64
100671 On ch=1 n=f#4 v=0
100671 On ch=1 n=a#4 v=0
100671 On ch=1 n=d#5 v=0
100673 On ch=1 n=f#5 v=64
100711 On ch=1 n=f#5 v=0
100711 On ch=1 n=c7 v=0
100711 On ch=1 n=c6 v=0
100711 On ch=1 n=c7 v=0
100711 On ch=1 n=c6 v=0
100713 On ch=1 n=d#5 v=64
100713 On ch=1 n=a#4 v=64
100713 On ch=1 n=f#4 v=64
100713 On ch=1 n=a#5 v=64
100713 On ch=1 n=a#6 v=64
100713 On ch=1 n=a#5 v=64
100713 On ch=1 n=a#6 v=64
100751 On ch=1 n=f#4 v=0
100751 On ch=1 n=a#4 v=0
100751 On ch=1 n=d#5 v=0
100753 On ch=1 n=f#5 v=64
100791 On ch=1 n=f#5 v=0
100793 On ch=1 n=d#5 v=64
100793 On ch=1 n=a#4 v=64
100793 On ch=1 n=f#4 v=64
100831 On ch=1 n=f#4 v=0
100831 On ch=1 n=a#4 v=0
100831 On ch=1 n=d#5 v=0
100833 On ch=1 n=f#5 v=64
100871 On ch=1 n=f#5 v=0
100873 On ch=1 n=d#5 v=64
100873 On ch=1 n=a#4 v=64
100873 On ch=1 n=f#4 v=64
100911 On ch=1 n=f#4 v=0
100911 On ch=1 n=a#4 v=0
100911 On ch=1 n=d#5 v=0
100913 On ch=1 n=f#5 v=64
100951 On ch=1 n=f#5 v=0
100951 On ch=1 n=a#6 v=0
100951 On ch=1 n=a#5 v=0
100951 On ch=1 n=a#6 v=0
100951 On ch=1 n=a#5 v=0
100953 On ch=1 n=a#3 v=64
100953 On ch=1 n=f4 v=64
100953 On ch=1 n=c#5 v=64
100953 On ch=1 n=f7 v=64
100953 On ch=1 n=a#6 v=64
100953 On ch=1 n=f6 v=64
100953 On ch=1 n=a#3 v=64
100953 On ch=1 n=f4 v=64
100953 On ch=1 n=c#5 v=64
100953 On ch=1 n=f7 v=64
100953 On ch=1 n=a#6 v=64
100953 On ch=1 n=f6 v=64
101071 On ch=1 n=f6 v=0
101071 On ch=1 n=a#6 v=0
101071 On ch=1 n=f7 v=0
101071 On ch=1 n=c#5 v=0
101071 On ch=1 n=f4 v=0
101071 On ch=1 n=a#3 v=0
101071 On ch=1 n=f6 v=0
101071 On ch=1 n=a#6 v=0
101071 On ch=1 n=f7 v=0
101071 On ch=1 n=c#5 v=0
101071 On ch=1 n=f4 v=0
101071 On ch=1 n=a#3 v=0
101073 Par ch=1 c=64 v=0
101185 Par ch=1 c=64 v=96
101193 On ch=1 n=f#4 v=64
101193 On ch=1 n=f#5 v=64
101193 On ch=1 n=f#3 v=64
101193 On ch=1 n=f#4 v=64
101193 On ch=1 n=f#5 v=64
101193 On ch=1 n=f#3 v=64
101241 On ch=1 n=a#3 v=64
101241 On ch=1 n=a#4 v=64
101287 On ch=1 n=a#4 v=0
101287 On ch=1 n=a#3 v=0
101289 On ch=1 n=c#4 v=64
101289 On ch=1 n=c#5 v=64
101335 On ch=1 n=c#5 v=0
101335 On ch=1 n=c#4 v=0
101337 On ch=1 n=a#3 v=64
101337 On ch=1 n=a#4 v=64
101383 On ch=1 n=a#4 v=0
101383 On ch=1 n=a#3 v=0
101385 On ch=1 n=c#4 v=64
101385 On ch=1 n=c#5 v=64
101431 On ch=1 n=c#5 v=0
101431 On ch=1 n=c#4 v=0
101431 On ch=1 n=f#3 v=0
101431 On ch=1 n=f#5 v=0
101431 On ch=1 n=f#4 v=0
101431 On ch=1 n=f#3 v=0
101431 On ch=1 n=f#5 v=0
101431 On ch=1 n=f#4 v=0
101433 On ch=1 n=f4 v=64
101433 On ch=1 n=f5 v=64
101433 On ch=1 n=f3 v=64
101433 On ch=1 n=f4 v=64
101433 On ch=1 n=f5 v=64
101433 On ch=1 n=f3 v=64
101481 On ch=1 n=a#3 v=64
101481 On ch=1 n=a#4 v=64
101527 On ch=1 n=a#4 v=0
101527 On ch=1 n=a#3 v=0
101529 On ch=1 n=c#4 v=64
101529 On ch=1 n=c#5 v=64
101575 On ch=1 n=c#5 v=0
101575 On ch=1 n=c#4 v=0
101577 On ch=1 n=a#3 v=64
101577 On ch=1 n=a#4 v=64
101623 On ch=1 n=a#4 v=0
101623 On ch=1 n=a#3 v=0
101625 On ch=1 n=c#4 v=64
101625 On ch=1 n=c#5 v=64
101671 On ch=1 n=c#5 v=0
101671 On ch=1 n=c#4 v=0
101671 On ch=1 n=f3 v=0
101671 On ch=1 n=f5 v=0
101671 On ch=1 n=f4 v=0
101671 On ch=1 n=f3 v=0
101671 On ch=1 n=f5 v=0
101671 On ch=1 n=f4 v=0
101673 On ch=1 n=e4 v=64
101673 On ch=1 n=e5 v=64
101673 On ch=1 n=e3 v=64
101673 On ch=1 n=e4 v=64
101673 On ch=1 n=e5 v=64
101673 On ch=1 n=e3 v=64
101721 On ch=1 n=a#3 v=64
101721 On ch=1 n=a#4 v=64
101767 On ch=1 n=a#4 v=0
101767 On ch=1 n=a#3 v=0
101769 On ch=1 n=c#4 v=64
101769 On ch=1 n=c#5 v=64
101815 On ch=1 n=c#5 v=0
101815 On ch=1 n=c#4 v=0
101817 On ch=1 n=a#3 v=64
101817 On ch=1 n=a#4 v=64
101863 On ch=1 n=a#4 v=0
101863 On ch=1 n=a#3 v=0
101865 On ch=1 n=c#4 v=64
101865 On ch=1 n=c#5 v=64
101911 On ch=1 n=c#5 v=0
101911 On ch=1 n=c#4 v=0
101911 On ch=1 n=e3 v=0
101911 On ch=1 n=e5 v=0
101911 On ch=1 n=e4 v=0
101911 On ch=1 n=e3 v=0
101911 On ch=1 n=e5 v=0
101911 On ch=1 n=e4 v=0
101913 On ch=1 n=f4 v=64
101913 On ch=1 n=f5 v=64
101913 On ch=1 n=f3 v=64
101913 On ch=1 n=f4 v=64
101913 On ch=1 n=f5 v=64
101913 On ch=1 n=f3 v=64
101961 On ch=1 n=a#3 v=64
101961 On ch=1 n=a#4 v=64
102007 On ch=1 n=a#4 v=0
102007 On ch=1 n=a#3 v=0
102009 On ch=1 n=c#4 v=64
102009 On ch=1 n=c#5 v=64
102055 On ch=1 n=c#5 v=0
102055 On ch=1 n=c#4 v=0
102057 On ch=1 n=a#3 v=64
102057 On ch=1 n=a#4 v=64
102103 On ch=1 n=a#4 v=0
102103 On ch=1 n=a#3 v=0
102105 On ch=1 n=c#4 v=64
102105 On ch=1 n=c#5 v=64
102151 On ch=1 n=c#5 v=0
102151 On ch=1 n=c#4 v=0
102151 On ch=1 n=f3 v=0
102151 On ch=1 n=f5 v=0
102151 On ch=1 n=f4 v=0
102151 On ch=1 n=f3 v=0
102151 On ch=1 n=f5 v=0
102151 On ch=1 n=f4 v=0
102153 On ch=1 n=c#4 v=64
102153 On ch=1 n=c#5 v=64
102153 On ch=1 n=c#3 v=64
102153 On ch=1 n=c#4 v=64
102153 On ch=1 n=c#5 v=64
102153 On ch=1 n=c#3 v=64
102187 On ch=1 n=f3 v=64
102187 On ch=1 n=f4 v=64
102220 On ch=1 n=f4 v=0
102220 On ch=1 n=f3 v=0
102222 On ch=1 n=a#3 v=64
102222 On ch=1 n=a#4 v=64
102233 Par ch=1 c=64 v=0
102254 On ch=1 n=a#4 v=0
102254 On ch=1 n=a#3 v=0
102256 On ch=1 n=f3 v=64
102256 On ch=1 n=f4 v=64
102265 Par ch=1 c=64 v=96
102288 On ch=1 n=f4 v=0
102288 On ch=1 n=f3 v=0
102290 On ch=1 n=a#3 v=64
102290 On ch=1 n=a#4 v=64
102322 On ch=1 n=a#4 v=0
102322 On ch=1 n=a#3 v=0
102324 On ch=1 n=c#6 v=64
102324 On ch=1 n=c#7 v=64
102324 On ch=1 n=c#6 v=64
102324 On ch=1 n=c#7 v=64
102391 On ch=1 n=c#7 v=0
102391 On ch=1 n=c#6 v=0
102391 On ch=1 n=c#7 v=0
102391 On ch=1 n=c#6 v=0
102391 On ch=1 n=c#3 v=0
102391 On ch=1 n=c#5 v=0
102391 On ch=1 n=c#4 v=0
102391 On ch=1 n=c#3 v=0
102391 On ch=1 n=c#5 v=0
102391 On ch=1 n=c#4 v=0
102393 On ch=1 n=c#6 v=64
102393 On ch=1 n=f#6 v=64
102393 On ch=1 n=c#7 v=64
102393 On ch=1 n=a#2 v=64
102393 On ch=1 n=c#6 v=64
102393 On ch=1 n=f#6 v=64
102393 On ch=1 n=c#7 v=64
102393 On ch=1 n=a#2 v=64
102401 On ch=1 n=a#3 v=64
102401 On ch=1 n=a#3 v=64
102433 On ch=1 n=d#5 v=64
102471 On ch=1 n=d#5 v=0
102473 On ch=1 n=a#4 v=64
102473 On ch=1 n=f#4 v=64
102511 On ch=1 n=f#4 v=0
102511 On ch=1 n=a#4 v=0
102511 On ch=1 n=a#2 v=0
102511 On ch=1 n=a#2 v=0
102512 On ch=1 n=a#3 v=0
102512 On ch=1 n=a#3 v=0
102513 On ch=1 n=d#5 v=64
102551 On ch=1 n=d#5 v=0
102553 On ch=1 n=a#4 v=64
102553 On ch=1 n=f#4 v=64
102591 On ch=1 n=f#4 v=0
102591 On ch=1 n=a#4 v=0
102593 On ch=1 n=d#5 v=64
102631 On ch=1 n=d#5 v=0
102631 On ch=1 n=c#7 v=0
102631 On ch=1 n=f#6 v=0
102631 On ch=1 n=c#6 v=0
102631 On ch=1 n=c#7 v=0
102631 On ch=1 n=f#6 v=0
102631 On ch=1 n=c#6 v=0
102633 On ch=1 n=a#4 v=64
102633 On ch=1 n=f#4 v=64
102633 On ch=1 n=c6 v=64
102633 On ch=1 n=c7 v=64
102633 On ch=1 n=c6 v=64
102633 On ch=1 n=c7 v=64
102671 On ch=1 n=f#4 v=0
102671 On ch=1 n=a#4 v=0
102673 On ch=1 n=d#5 v=64
102711 On ch=1 n=d#5 v=0
102713 On ch=1 n=a#4 v=64
102713 On ch=1 n=f#4 v=64
102751 On ch=1 n=f#4 v=0
102751 On ch=1 n=a#4 v=0
102753 On ch=1 n=d#5 v=64
102791 On ch=1 n=d#5 v=0
102793 On ch=1 n=a#4 v=64
102793 On ch=1 n=f#4 v=64
102831 On ch=1 n=f#4 v=0
102831 On ch=1 n=a#4 v=0
102833 On ch=1 n=d#5 v=64
102871 On ch=1 n=d#5 v=0
102871 On ch=1 n=c7 v=0
102871 On ch=1 n=c6 v=0
102871 On ch=1 n=c7 v=0
102871 On ch=1 n=c6 v=0
102873 On ch=1 n=a#4 v=64
102873 On ch=1 n=f#4 v=64
102873 On ch=1 n=a#5 v=64
102873 On ch=1 n=a#6 v=64
102873 On ch=1 n=a#5 v=64
102873 On ch=1 n=a#6 v=64
102911 On ch=1 n=f#4 v=0
102911 On ch=1 n=a#4 v=0
102913 On ch=1 n=d#5 v=64
102951 On ch=1 n=d#5 v=0
102953 On ch=1 n=a#4 v=64
102953 On ch=1 n=f#4 v=64
102991 On ch=1 n=f#4 v=0
102991 On ch=1 n=a#4 v=0
102993 On ch=1 n=d#5 v=64
103031 On ch=1 n=d#5 v=0
103033 On ch=1 n=a#4 v=64
103033 On ch=1 n=f#4 v=64
103071 On ch=1 n=f#4 v=0
103071 On ch=1 n=a#4 v=0
103073 On ch=1 n=d#5 v=64
103073 Par ch=1 c=64 v=0
103105 Par ch=1 c=64 v=96
103111 On ch=1 n=d#5 v=0
103111 On ch=1 n=a#6 v=0
103111 On ch=1 n=a#5 v=0
103111 On ch=1 n=a#6 v=0
103111 On ch=1 n=a#5 v=0
103113 On ch=1 n=c#6 v=64
103113 On ch=1 n=f#6 v=64
103113 On ch=1 n=c#7 v=64
103113 On ch=1 n=d#4 v=64
103113 On ch=1 n=d#3 v=64
103113 On ch=1 n=c#6 v=64
103113 On ch=1 n=f#6 v=64
103113 On ch=1 n=c#7 v=64
103113 On ch=1 n=d#4 v=64
103113 On ch=1 n=d#3 v=64
103153 On ch=1 n=d#5 v=64
103191 On ch=1 n=d#5 v=0
103193 On ch=1 n=f#4 v=64
103193 On ch=1 n=a4 v=64
103231 On ch=1 n=a4 v=0
103231 On ch=1 n=f#4 v=0
103231 On ch=1 n=d#3 v=0
103231 On ch=1 n=d#4 v=0
103231 On ch=1 n=d#3 v=0
103231 On ch=1 n=d#4 v=0
103233 On ch=1 n=d#5 v=64
103271 On ch=1 n=d#5 v=0
103273 On ch=1 n=f#4 v=64
103273 On ch=1 n=a4 v=64
103311 On ch=1 n=a4 v=0
103311 On ch=1 n=f#4 v=0
103313 On ch=1 n=d#5 v=64
103351 On ch=1 n=d#5 v=0
103351 On ch=1 n=c#7 v=0
103351 On ch=1 n=f#6 v=0
103351 On ch=1 n=c#6 v=0
103351 On ch=1 n=c#7 v=0
103351 On ch=1 n=f#6 v=0
103351 On ch=1 n=c#6 v=0
103353 On ch=1 n=f#4 v=64
103353 On ch=1 n=a4 v=64
103353 On ch=1 n=b5 v=64
103353 On ch=1 n=b6 v=64
103353 On ch=1 n=b5 v=64
103353 On ch=1 n=b6 v=64
103391 On ch=1 n=a4 v=0
103391 On ch=1 n=f#4 v=0
103393 On ch=1 n=d#5 v=64
103431 On ch=1 n=d#5 v=0
103433 On ch=1 n=f#4 v=64
103433 On ch=1 n=a4 v=64
103471 On ch=1 n=a4 v=0
103471 On ch=1 n=f#4 v=0
103473 On ch=1 n=d#5 v=64
103511 On ch=1 n=d#5 v=0
103513 On ch=1 n=f#4 v=64
103513 On ch=1 n=a4 v=64
103551 On ch=1 n=a4 v=0
103551 On ch=1 n=f#4 v=0
103553 On ch=1 n=d#5 v=64
103591 On ch=1 n=d#5 v=0
103591 On ch=1 n=b6 v=0
103591 On ch=1 n=b5 v=0
103591 On ch=1 n=b6 v=0
103591 On ch=1 n=b5 v=0
103593 On ch=1 n=f#4 v=64
103593 On ch=1 n=a4 v=64
103593 On ch=1 n=a#5 v=64
103593 On ch=1 n=a#6 v=64
103593 On ch=1 n=a#5 v=64
103593 On ch=1 n=a#6 v=64
103631 On ch=1 n=a4 v=0
103631 On ch=1 n=f#4 v=0
103633 On ch=1 n=d#5 v=64
103671 On ch=1 n=d#5 v=0
103673 On ch=1 n=f#4 v=64
103673 On ch=1 n=a4 v=64
103711 On ch=1 n=a4 v=0
103711 On ch=1 n=f#4 v=0
103713 On ch=1 n=d#5 v=64
103751 On ch=1 n=d#5 v=0
103753 On ch=1 n=f#4 v=64
103753 On ch=1 n=a4 v=64
103791 On ch=1 n=a4 v=0
103791 On ch=1 n=f#4 v=0
103793 On ch=1 n=d#5 v=64
103831 On ch=1 n=d#5 v=0
103831 On ch=1 n=a#6 v=0
103831 On ch=1 n=a#5 v=0
103831 On ch=1 n=a#6 v=0
103831 On ch=1 n=a#5 v=0
103833 On ch=1 n=f5 v=64
103833 On ch=1 n=a#3 v=64
103833 On ch=1 n=f5 v=64
103833 On ch=1 n=a#3 v=64
103841 On ch=1 n=f4 v=63
103841 On ch=1 n=f4 v=63
103842 On ch=1 n=a#5 v=64
103842 On ch=1 n=a#5 v=64
103847 On ch=1 n=f6 v=63
103847 On ch=1 n=f6 v=63
103848 On ch=1 n=c#5 v=64
103848 On ch=1 n=c#5 v=64
103891 On ch=1 n=a#3 v=0
103891 On ch=1 n=f5 v=0
103891 On ch=1 n=a#3 v=0
103891 On ch=1 n=f5 v=0
103893 On ch=1 n=a#5 v=0
103893 On ch=1 n=a#5 v=0
103893 On ch=1 n=f4 v=0
103893 On ch=1 n=f4 v=0
103896 On ch=1 n=c#5 v=0
103896 On ch=1 n=c#5 v=0
103896 On ch=1 n=f6 v=0
103896 On ch=1 n=f6 v=0
103953 Par ch=1 c=64 v=0
104065 Par ch=1 c=64 v=96
104073 Par ch=1 c=7 v=120
104073 On ch=1 n=c#5 v=64
104073 On ch=1 n=a#4 v=64
104073 On ch=1 n=f4 v=64
104073 On ch=1 n=c#3 v=64
104073 On ch=1 n=c#4 v=64
104073 On ch=1 n=c#3 v=64
104073 On ch=1 n=c#4 v=64
104111 On ch=1 n=f4 v=0
104111 On ch=1 n=a#4 v=0
104111 On ch=1 n=c#5 v=0
104113 On ch=1 n=f5 v=64
104151 On ch=1 n=f5 v=0
104153 On ch=1 n=c#5 v=64
104153 On ch=1 n=a#4 v=64
104153 On ch=1 n=f4 v=64
104168 Par ch=1 c=7 v=119
104191 On ch=1 n=f4 v=0
104191 On ch=1 n=a#4 v=0
104191 On ch=1 n=c#5 v=0
104193 On ch=1 n=f5 v=64
104231 On ch=1 n=f5 v=0
104233 On ch=1 n=c#5 v=64
104233 On ch=1 n=a#4 v=64
104233 On ch=1 n=f4 v=64
104264 Par ch=1 c=7 v=118
104271 On ch=1 n=f4 v=0
104271 On ch=1 n=a#4 v=0
104271 On ch=1 n=c#5 v=0
104273 On ch=1 n=f5 v=64
104311 On ch=1 n=f5 v=0
104311 On ch=1 n=c#4 v=0
104311 On ch=1 n=c#3 v=0
104311 On ch=1 n=c#4 v=0
104311 On ch=1 n=c#3 v=0
104313 On ch=1 n=c#5 v=64
104313 On ch=1 n=a#4 v=64
104313 On ch=1 n=f4 v=64
104313 On ch=1 n=c3 v=64
104313 On ch=1 n=c4 v=64
104313 On ch=1 n=c3 v=64
104313 On ch=1 n=c4 v=64
104351 On ch=1 n=f4 v=0
104351 On ch=1 n=a#4 v=0
104351 On ch=1 n=c#5 v=0
104353 On ch=1 n=f5 v=64
104360 Par ch=1 c=7 v=117
104391 On ch=1 n=f5 v=0
104393 On ch=1 n=c#5 v=64
104393 On ch=1 n=a#4 v=64
104393 On ch=1 n=f4 v=64
104431 On ch=1 n=f4 v=0
104431 On ch=1 n=a#4 v=0
104431 On ch=1 n=c#5 v=0
104433 On ch=1 n=f5 v=64
104456 Par ch=1 c=7 v=116
104471 On ch=1 n=f5 v=0
104473 On ch=1 n=c#5 v=64
104473 On ch=1 n=a#4 v=64
104473 On ch=1 n=f4 v=64
104511 On ch=1 n=f4 v=0
104511 On ch=1 n=a#4 v=0
104511 On ch=1 n=c#5 v=0
104513 On ch=1 n=f5 v=64
104551 On ch=1 n=f5 v=0
104551 On ch=1 n=c4 v=0
104551 On ch=1 n=c3 v=0
104551 On ch=1 n=c4 v=0
104551 On ch=1 n=c3 v=0
104552 Par ch=1 c=7 v=115
104553 On ch=1 n=c#5 v=64
104553 On ch=1 n=a#4 v=64
104553 On ch=1 n=f4 v=64
104553 On ch=1 n=a#2 v=64
104553 On ch=1 n=a#3 v=64
104553 On ch=1 n=a#2 v=64
104553 On ch=1 n=a#3 v=64
104591 On ch=1 n=f4 v=0
104591 On ch=1 n=a#4 v=0
104591 On ch=1 n=c#5 v=0
104593 On ch=1 n=f5 v=64
104631 On ch=1 n=f5 v=0
104633 On ch=1 n=c#5 v=64
104633 On ch=1 n=a#4 v=64
104633 On ch=1 n=f4 v=64
104648 Par ch=1 c=7 v=114
104671 On ch=1 n=f4 v=0
104671 On ch=1 n=a#4 v=0
104671 On ch=1 n=c#5 v=0
104673 On ch=1 n=f5 v=64
104711 On ch=1 n=f5 v=0
104713 On ch=1 n=c#5 v=64
104713 On ch=1 n=a#4 v=64
104713 On ch=1 n=f4 v=64
104744 Par ch=1 c=7 v=113
104751 On ch=1 n=f4 v=0
104751 On ch=1 n=a#4 v=0
104751 On ch=1 n=c#5 v=0
104753 On ch=1 n=f5 v=64
104791 On ch=1 n=f5 v=0
104791 On ch=1 n=a#3 v=0
104791 On ch=1 n=a#2 v=0
104791 On ch=1 n=a#3 v=0
104791 On ch=1 n=a#2 v=0
104793 On ch=1 n=c#5 v=64
104793 On ch=1 n=a#4 v=64
104793 On ch=1 n=f4 v=64
104793 On ch=1 n=a2 v=64
104793 On ch=1 n=a3 v=64
104793 On ch=1 n=a2 v=64
104793 On ch=1 n=a3 v=64
104831 On ch=1 n=f4 v=0
104831 On ch=1 n=a#4 v=0
104831 On ch=1 n=c#5 v=0
104833 On ch=1 n=f5 v=64
104840 Par ch=1 c=7 v=112
104871 On ch=1 n=f5 v=0
104873 On ch=1 n=c#5 v=64
104873 On ch=1 n=a#4 v=64
104873 On ch=1 n=f4 v=64
104911 On ch=1 n=f4 v=0
104911 On ch=1 n=a#4 v=0
104911 On ch=1 n=c#5 v=0
104913 On ch=1 n=f5 v=64
104936 Par ch=1 c=7 v=111
104951 On ch=1 n=f5 v=0
104953 On ch=1 n=c#5 v=64
104953 On ch=1 n=a#4 v=64
104953 On ch=1 n=f4 v=64
104991 On ch=1 n=f4 v=0
104991 On ch=1 n=a#4 v=0
104991 On ch=1 n=c#5 v=0
104993 On ch=1 n=f5 v=64
105031 On ch=1 n=f5 v=0
105031 On ch=1 n=a3 v=0
105031 On ch=1 n=a2 v=0
105031 On ch=1 n=a3 v=0
105031 On ch=1 n=a2 v=0
105032 Par ch=1 c=7 v=110
105033 On ch=1 n=c#5 v=64
105033 On ch=1 n=a#4 v=64
105033 On ch=1 n=f4 v=64
105033 On ch=1 n=a#2 v=64
105033 On ch=1 n=a#3 v=64
105033 On ch=1 n=a#2 v=64
105033 On ch=1 n=a#3 v=64
105091 On ch=1 n=f4 v=0
105091 On ch=1 n=a#4 v=0
105091 On ch=1 n=c#5 v=0
105173 Par ch=1 c=64 v=0
105205 Par ch=1 c=64 v=96
105213 On ch=1 n=f6 v=64
105213 On ch=1 n=c#6 v=64
105213 On ch=1 n=f6 v=64
105213 On ch=1 n=c#6 v=64
105271 On ch=1 n=c#6 v=0
105271 On ch=1 n=f6 v=0
105271 On ch=1 n=c#6 v=0
105271 On ch=1 n=f6 v=0
105271 On ch=1 n=a#3 v=0
105271 On ch=1 n=a#2 v=0
105271 On ch=1 n=a#3 v=0
105271 On ch=1 n=a#2 v=0
105273 On ch=1 n=f6 v=64
105273 On ch=1 n=c#6 v=64
105273 On ch=1 n=f#4 v=64
105273 On ch=1 n=d#3 v=64
105273 On ch=1 n=f6 v=64
105273 On ch=1 n=c#6 v=64
105273 On ch=1 n=f#4 v=64
105273 On ch=1 n=d#3 v=64
105319 On ch=1 n=c#6 v=0
105319 On ch=1 n=c#6 v=0
105321 On ch=1 n=d#5 v=64
105367 On ch=1 n=d#5 v=0
105369 On ch=1 n=f#5 v=64
105391 On ch=1 n=d#3 v=0
105391 On ch=1 n=f#4 v=0
105391 On ch=1 n=d#3 v=0
105391 On ch=1 n=f#4 v=0
105415 On ch=1 n=f#5 v=0
105417 On ch=1 n=d#5 v=64
105463 On ch=1 n=d#5 v=0
105465 On ch=1 n=f#5 v=64
105473 Par ch=1 c=64 v=0
105505 Par ch=1 c=64 v=96
105511 On ch=1 n=f#5 v=0
105511 On ch=1 n=f6 v=0
105511 On ch=1 n=f6 v=0
105513 On ch=1 n=a4 v=64
105513 On ch=1 n=d#6 v=64
105513 On ch=1 n=b5 v=64
105513 On ch=1 n=d#6 v=64
105513 On ch=1 n=b5 v=64
105551 On ch=1 n=a4 v=0
105553 On ch=1 n=a#4 v=64
105559 On ch=1 n=b5 v=0
105559 On ch=1 n=b5 v=0
105561 On ch=1 n=d#5 v=64
105591 On ch=1 n=a#4 v=0
105593 On ch=1 n=b4 v=64
105607 On ch=1 n=d#5 v=0
105609 On ch=1 n=f#5 v=64
105631 On ch=1 n=b4 v=0
105633 On ch=1 n=c5 v=64
105655 On ch=1 n=f#5 v=0
105657 On ch=1 n=d#5 v=64
105671 On ch=1 n=c5 v=0
105673 On ch=1 n=c#5 v=64
105703 On ch=1 n=d#5 v=0
105705 On ch=1 n=f#5 v=64
105711 On ch=1 n=c#5 v=0
105713 On ch=1 n=d5 v=64
105751 On ch=1 n=d5 v=0
105751 On ch=1 n=f#5 v=0
105751 On ch=1 n=d#6 v=0
105751 On ch=1 n=d#6 v=0
105753 On ch=1 n=d#5 v=64
105753 On ch=1 n=a#5 v=64
105753 On ch=1 n=d6 v=64
105753 On ch=1 n=a#5 v=64
105753 On ch=1 n=d6 v=64
105785 On ch=1 n=d#5 v=0
105787 On ch=1 n=d5 v=64
105799 On ch=1 n=a#5 v=0
105799 On ch=1 n=a#5 v=0
105801 On ch=1 n=d#5 v=64
105820 On ch=1 n=d5 v=0
105822 On ch=1 n=c#5 v=64
105847 On ch=1 n=d#5 v=0
105849 On ch=1 n=f#5 v=64
105854 On ch=1 n=c#5 v=0
105856 On ch=1 n=c5 v=64
105888 On ch=1 n=c5 v=0
105890 On ch=1 n=b4 v=64
105895 On ch=1 n=f#5 v=0
105897 On ch=1 n=d#5 v=64
105922 On ch=1 n=b4 v=0
105924 On ch=1 n=a#4 v=64
105943 On ch=1 n=d#5 v=0
105945 On ch=1 n=f#5 v=64
105957 On ch=1 n=a#4 v=0
105959 On ch=1 n=a4 v=64
105991 On ch=1 n=a4 v=0
105991 On ch=1 n=f#5 v=0
105991 On ch=1 n=d6 v=0
105991 On ch=1 n=d6 v=0
105993 On ch=1 n=f#3 v=64
105993 On ch=1 n=f6 v=64
105993 On ch=1 n=c#6 v=64
105993 On ch=1 n=f#3 v=64
105993 On ch=1 n=f6 v=64
105993 On ch=1 n=c#6 v=64
106039 On ch=1 n=c#6 v=0
106039 On ch=1 n=c#6 v=0
106041 On ch=1 n=d#5 v=64
106087 On ch=1 n=d#5 v=0
106089 On ch=1 n=f#5 v=64
106111 On ch=1 n=f#3 v=0
106111 On ch=1 n=f#3 v=0
106135 On ch=1 n=f#5 v=0
106137 On ch=1 n=d#5 v=64
106183 On ch=1 n=d#5 v=0
106185 On ch=1 n=f#5 v=64
106193 Par ch=1 c=64 v=0
106225 Par ch=1 c=64 v=96
106231 On ch=1 n=f#5 v=0
106231 On ch=1 n=f6 v=0
106231 On ch=1 n=f6 v=0
106233 On ch=1 n=f#4 v=64
106233 On ch=1 n=d#6 v=64
106233 On ch=1 n=c6 v=64
106233 On ch=1 n=d#6 v=64
106233 On ch=1 n=c6 v=64
106271 On ch=1 n=f#4 v=0
106273 On ch=1 n=g4 v=64
106279 On ch=1 n=c6 v=0
106279 On ch=1 n=c6 v=0
106281 On ch=1 n=d#5 v=64
106311 On ch=1 n=g4 v=0
106313 On ch=1 n=g#4 v=64
106327 On ch=1 n=d#5 v=0
106329 On ch=1 n=f#5 v=64
106351 On ch=1 n=g#4 v=0
106353 On ch=1 n=a4 v=64
106375 On ch=1 n=f#5 v=0
106377 On ch=1 n=d#5 v=64
106391 On ch=1 n=a4 v=0
106393 On ch=1 n=a#4 v=64
106423 On ch=1 n=d#5 v=0
106425 On ch=1 n=f#5 v=64
106431 On ch=1 n=a#4 v=0
106433 On ch=1 n=b4 v=64
106471 On ch=1 n=b4 v=0
106471 On ch=1 n=f#5 v=0
106471 On ch=1 n=d#6 v=0
106471 On ch=1 n=d#6 v=0
106473 On ch=1 n=c5 v=64
106473 On ch=1 n=c#6 v=64
106473 On ch=1 n=a#5 v=64
106473 On ch=1 n=c#6 v=64
106473 On ch=1 n=a#5 v=64
106505 On ch=1 n=c5 v=0
106507 On ch=1 n=b4 v=64
106519 On ch=1 n=a#5 v=0
106519 On ch=1 n=a#5 v=0
106521 On ch=1 n=d#5 v=64
106540 On ch=1 n=b4 v=0
106542 On ch=1 n=a#4 v=64
106567 On ch=1 n=d#5 v=0
106569 On ch=1 n=f#5 v=64
106574 On ch=1 n=a#4 v=0
106576 On ch=1 n=a4 v=64
106608 On ch=1 n=a4 v=0
106610 On ch=1 n=g#4 v=64
106615 On ch=1 n=f#5 v=0
106617 On ch=1 n=d#5 v=64
106642 On ch=1 n=g#4 v=0
106644 On ch=1 n=g4 v=64
106663 On ch=1 n=d#5 v=0
106665 On ch=1 n=f#5 v=64
106677 On ch=1 n=g4 v=0
106679 On ch=1 n=f#4 v=64
106711 On ch=1 n=f#4 v=0
106711 On ch=1 n=f#5 v=0
106711 On ch=1 n=c#6 v=0
106711 On ch=1 n=c#6 v=0
106713 On ch=1 n=f5 v=64
106713 On ch=1 n=a#3 v=64
106713 On ch=1 n=f5 v=64
106713 On ch=1 n=a#3 v=64
106721 On ch=1 n=f4 v=63
106721 On ch=1 n=f4 v=63
106722 On ch=1 n=a#5 v=64
106722 On ch=1 n=a#5 v=64
106727 On ch=1 n=f6 v=63
106727 On ch=1 n=f6 v=63
106728 On ch=1 n=c#5 v=64
106728 On ch=1 n=c#5 v=64
106771 On ch=1 n=a#3 v=0
106771 On ch=1 n=f5 v=0
106771 On ch=1 n=a#3 v=0
106771 On ch=1 n=f5 v=0
106773 On ch=1 n=a#5 v=0
106773 On ch=1 n=a#5 v=0
106773 On ch=1 n=f4 v=0
106773 On ch=1 n=f4 v=0
106776 On ch=1 n=c#5 v=0
106776 On ch=1 n=c#5 v=0
106776 On ch=1 n=f6 v=0
106776 On ch=1 n=f6 v=0
106833 Par ch=1 c=64 v=0
106945 Par ch=1 c=64 v=96
106953 Par ch=1 c=7 v=110
106953 On ch=1 n=f#3 v=64
106953 On ch=1 n=f#3 v=64
106953 On ch=1 n=c#5 v=64
106953 On ch=1 n=a#4 v=64
106953 On ch=1 n=f4 v=64
106991 On ch=1 n=f4 v=0
106991 On ch=1 n=a#4 v=0
106991 On ch=1 n=c#5 v=0
106993 On ch=1 n=f5 v=64
107000 Par ch=1 c=7 v=109
107031 On ch=1 n=f5 v=0
107033 On ch=1 n=c#5 v=64
107033 On ch=1 n=a#4 v=64
107033 On ch=1 n=f4 v=64
107048 Par ch=1 c=7 v=108
107071 On ch=1 n=f4 v=0
107071 On ch=1 n=a#4 v=0
107071 On ch=1 n=c#5 v=0
107073 On ch=1 n=f5 v=64
107096 Par ch=1 c=7 v=107
107111 On ch=1 n=f5 v=0
107113 On ch=1 n=c#5 v=64
107113 On ch=1 n=a#4 v=64
107113 On ch=1 n=f4 v=64
107131 On ch=1 n=f#3 v=0
107131 On ch=1 n=f#3 v=0
107141 Par ch=1 c=7 v=106
107148 On ch=1 n=f4 v=0
107148 On ch=1 n=a#4 v=0
107148 On ch=1 n=c#5 v=0
107150 On ch=1 n=f5 v=64
107188 On ch=1 n=f5 v=0
107189 Par ch=1 c=7 v=105
107190 On ch=1 n=f3 v=64
107190 On ch=1 n=f3 v=64
107190 On ch=1 n=c#5 v=64
107190 On ch=1 n=a#4 v=64
107190 On ch=1 n=f4 v=64
107228 On ch=1 n=f4 v=0
107228 On ch=1 n=a#4 v=0
107228 On ch=1 n=c#5 v=0
107230 On ch=1 n=f5 v=64
107237 Par ch=1 c=7 v=104
107268 On ch=1 n=f5 v=0
107270 On ch=1 n=c#5 v=64
107270 On ch=1 n=a#4 v=64
107270 On ch=1 n=f4 v=64
107285 Par ch=1 c=7 v=103
107308 On ch=1 n=f4 v=0
107308 On ch=1 n=a#4 v=0
107308 On ch=1 n=c#5 v=0
107310 On ch=1 n=f5 v=64
107333 Par ch=1 c=7 v=102
107348 On ch=1 n=f5 v=0
107350 On ch=1 n=c#5 v=64
107350 On ch=1 n=a#4 v=64
107350 On ch=1 n=f4 v=64
107368 On ch=1 n=f3 v=0
107368 On ch=1 n=f3 v=0
107378 Par ch=1 c=7 v=101
107385 On ch=1 n=f4 v=0
107385 On ch=1 n=a#4 v=0
107385 On ch=1 n=c#5 v=0
107387 On ch=1 n=f5 v=64
107425 On ch=1 n=f5 v=0
107426 Par ch=1 c=7 v=100
107427 On ch=1 n=e3 v=64
107427 On ch=1 n=e3 v=64
107427 On ch=1 n=c#5 v=64
107427 On ch=1 n=a#4 v=64
107427 On ch=1 n=f4 v=64
107465 On ch=1 n=f4 v=0
107465 On ch=1 n=a#4 v=0
107465 On ch=1 n=c#5 v=0
107467 On ch=1 n=f5 v=64
107474 Par ch=1 c=7 v=99
107505 On ch=1 n=f5 v=0
107507 On ch=1 n=c#5 v=64
107507 On ch=1 n=a#4 v=64
107507 On ch=1 n=f4 v=64
107522 Par ch=1 c=7 v=98
107545 On ch=1 n=f4 v=0
107545 On ch=1 n=a#4 v=0
107545 On ch=1 n=c#5 v=0
107547 On ch=1 n=f5 v=64
107570 Par ch=1 c=7 v=97
107585 On ch=1 n=f5 v=0
107587 On ch=1 n=c#5 v=64
107587 On ch=1 n=a#4 v=64
107587 On ch=1 n=f4 v=64
107605 On ch=1 n=e3 v=0
107605 On ch=1 n=e3 v=0
107615 Par ch=1 c=7 v=96
107622 On ch=1 n=f4 v=0
107622 On ch=1 n=a#4 v=0
107622 On ch=1 n=c#5 v=0
107624 On ch=1 n=f5 v=64
107662 On ch=1 n=f5 v=0
107663 Par ch=1 c=7 v=95
107664 On ch=1 n=f3 v=64
107664 On ch=1 n=f3 v=64
107664 On ch=1 n=c#5 v=64
107664 On ch=1 n=a#4 v=64
107664 On ch=1 n=f4 v=64
107702 On ch=1 n=f4 v=0
107702 On ch=1 n=a#4 v=0
107702 On ch=1 n=c#5 v=0
107704 On ch=1 n=f5 v=64
107711 Par ch=1 c=7 v=94
107742 On ch=1 n=f5 v=0
107744 On ch=1 n=c#5 v=64
107744 On ch=1 n=a#4 v=64
107744 On ch=1 n=f4 v=64
107759 Par ch=1 c=7 v=93
107782 On ch=1 n=f4 v=0
107782 On ch=1 n=a#4 v=0
107782 On ch=1 n=c#5 v=0
107784 On ch=1 n=f5 v=64
107807 Par ch=1 c=7 v=92
107822 On ch=1 n=f5 v=0
107824 On ch=1 n=c#5 v=64
107824 On ch=1 n=a#4 v=64
107824 On ch=1 n=f4 v=64
107842 On ch=1 n=f3 v=0
107842 On ch=1 n=f3 v=0
107852 Par ch=1 c=7 v=91
107859 On ch=1 n=f4 v=0
107859 On ch=1 n=a#4 v=0
107859 On ch=1 n=c#5 v=0
107861 On ch=1 n=f5 v=64
107899 On ch=1 n=f5 v=0
107900 Par ch=1 c=7 v=90
107901 On ch=1 n=c#3 v=64
107901 On ch=1 n=c#3 v=64
107901 On ch=1 n=c#5 v=64
107901 On ch=1 n=a#4 v=64
107901 On ch=1 n=f4 v=64
107959 On ch=1 n=f4 v=0
107959 On ch=1 n=a#4 v=0
107959 On ch=1 n=c#5 v=0
108041 Par ch=1 c=64 v=0
108073 Par ch=1 c=64 v=96
108079 On ch=1 n=c#3 v=0
108079 On ch=1 n=c#3 v=0
108081 On ch=1 n=c#5 v=64
108081 On ch=1 n=c#6 v=64
108081 On ch=1 n=c#5 v=64
108081 On ch=1 n=c#6 v=64
108139 On ch=1 n=c#6 v=0
108139 On ch=1 n=c#5 v=0
108139 On ch=1 n=c#6 v=0
108139 On ch=1 n=c#5 v=0
108141 On ch=1 n=a#2 v=64
108141 On ch=1 n=c#5 v=64
108141 On ch=1 n=c#6 v=64
108141 On ch=1 n=a#2 v=64
108141 On ch=1 n=c#5 v=64
108141 On ch=1 n=c#6 v=64
108189 On ch=1 n=d#5 v=64
108235 On ch=1 n=d#5 v=0
108237 On ch=1 n=f#5 v=64
108259 On ch=1 n=a#2 v=0
108259 On ch=1 n=a#2 v=0
108283 On ch=1 n=f#5 v=0
108285 On ch=1 n=d#5 v=64
108331 On ch=1 n=d#5 v=0
108333 On ch=1 n=f#5 v=64
108341 Par ch=1 c=64 v=0
108373 Par ch=1 c=64 v=96
108379 On ch=1 n=f#5 v=0
108379 On ch=1 n=c#6 v=0
108379 On ch=1 n=c#5 v=0
108379 On ch=1 n=c#6 v=0
108379 On ch=1 n=c#5 v=0
108381 On ch=1 n=f4 v=64
108381 On ch=1 n=d4 v=64
108381 On ch=1 n=b4 v=64
108381 On ch=1 n=b5 v=64
108381 On ch=1 n=b4 v=64
108381 On ch=1 n=b5 v=64
108429 On ch=1 n=d#5 v=64
108439 On ch=1 n=d4 v=0
108439 On ch=1 n=f4 v=0
108441 On ch=1 n=f#4 v=64
108441 On ch=1 n=d#4 v=64
108475 On ch=1 n=d#5 v=0
108477 On ch=1 n=f#5 v=64
108499 On ch=1 n=d#4 v=0
108499 On ch=1 n=f#4 v=0
108501 On ch=1 n=g4 v=64
108501 On ch=1 n=e4 v=64
108523 On ch=1 n=f#5 v=0
108525 On ch=1 n=d#5 v=64
108559 On ch=1 n=e4 v=0
108559 On ch=1 n=g4 v=0
108561 On ch=1 n=g#4 v=64
108561 On ch=1 n=f4 v=64
108571 On ch=1 n=d#5 v=0
108573 On ch=1 n=f#5 v=64
108619 On ch=1 n=f#5 v=0
108619 On ch=1 n=f4 v=0
108619 On ch=1 n=g#4 v=0
108619 On ch=1 n=b5 v=0
108619 On ch=1 n=b4 v=0
108619 On ch=1 n=b5 v=0
108619 On ch=1 n=b4 v=0
108621 On ch=1 n=f#4 v=64
108621 On ch=1 n=a4 v=64
108621 On ch=1 n=a#4 v=64
108621 On ch=1 n=a#5 v=64
108621 On ch=1 n=a#4 v=64
108621 On ch=1 n=a#5 v=64
108669 On ch=1 n=d#5 v=64
108679 On ch=1 n=a4 v=0
108679 On ch=1 n=f#4 v=0
108681 On ch=1 n=g#4 v=64
108681 On ch=1 n=f4 v=64
108715 On ch=1 n=d#5 v=0
108717 On ch=1 n=f#5 v=64
108739 On ch=1 n=f4 v=0
108739 On ch=1 n=g#4 v=0
108741 On ch=1 n=g4 v=64
108741 On ch=1 n=e4 v=64
108763 On ch=1 n=f#5 v=0
108765 On ch=1 n=d#5 v=64
108799 On ch=1 n=e4 v=0
108799 On ch=1 n=g4 v=0
108801 On ch=1 n=f#4 v=64
108801 On ch=1 n=d#4 v=64
108811 On ch=1 n=d#5 v=0
108813 On ch=1 n=f#5 v=64
108859 On ch=1 n=f#5 v=0
108859 On ch=1 n=d#4 v=0
108859 On ch=1 n=f#4 v=0
108859 On ch=1 n=a#5 v=0
108859 On ch=1 n=a#4 v=0
108859 On ch=1 n=a#5 v=0
108859 On ch=1 n=a#4 v=0
108861 On ch=1 n=d#3 v=64
108861 On ch=1 n=c#5 v=64
108861 On ch=1 n=c#6 v=64
108861 On ch=1 n=d#3 v=64
108861 On ch=1 n=c#5 v=64
108861 On ch=1 n=c#6 v=64
108909 On ch=1 n=d#5 v=64
108955 On ch=1 n=d#5 v=0
108957 On ch=1 n=f#5 v=64
108979 On ch=1 n=d#3 v=0
108979 On ch=1 n=d#3 v=0
109003 On ch=1 n=f#5 v=0
109005 On ch=1 n=d#5 v=64
109051 On ch=1 n=d#5 v=0
109053 On ch=1 n=f#5 v=64
109061 Par ch=1 c=64 v=0
109093 Par ch=1 c=64 v=96
109099 On ch=1 n=f#5 v=0
109099 On ch=1 n=c#6 v=0
109099 On ch=1 n=c#5 v=0
109099 On ch=1 n=c#6 v=0
109099 On ch=1 n=c#5 v=0
109101 On ch=1 n=f4 v=64
109101 On ch=1 n=d4 v=64
109101 On ch=1 n=c5 v=64
109101 On ch=1 n=c6 v=64
109101 On ch=1 n=c5 v=64
109101 On ch=1 n=c6 v=64
109149 On ch=1 n=d#5 v=64
109159 On ch=1 n=d4 v=0
109159 On ch=1 n=f4 v=0
109161 On ch=1 n=f#4 v=64
109161 On ch=1 n=d#4 v=64
109195 On ch=1 n=d#5 v=0
109197 On ch=1 n=f#5 v=64
109219 On ch=1 n=d#4 v=0
109219 On ch=1 n=f#4 v=0
109221 On ch=1 n=g4 v=64
109221 On ch=1 n=e4 v=64
109243 On ch=1 n=f#5 v=0
109245 On ch=1 n=d#5 v=64
109279 On ch=1 n=e4 v=0
109279 On ch=1 n=g4 v=0
109281 On ch=1 n=g#4 v=64
109281 On ch=1 n=f4 v=64
109291 On ch=1 n=d#5 v=0
109293 On ch=1 n=f#5 v=64
109339 On ch=1 n=f#5 v=0
109339 On ch=1 n=f4 v=0
109339 On ch=1 n=g#4 v=0
109339 On ch=1 n=c6 v=0
109339 On ch=1 n=c5 v=0
109339 On ch=1 n=c6 v=0
109339 On ch=1 n=c5 v=0
109341 Par ch=1 c=7 v=90
109341 On ch=1 n=f#4 v=64
109341 On ch=1 n=a4 v=64
109341 On ch=1 n=a#4 v=64
109341 On ch=1 n=a#5 v=64
109341 On ch=1 n=a#4 v=64
109341 On ch=1 n=a#5 v=64
109364 Par ch=1 c=7 v=89
109388 Par ch=1 c=7 v=88
109389 On ch=1 n=d#5 v=64
109399 On ch=1 n=a4 v=0
109399 On ch=1 n=f#4 v=0
109401 On ch=1 n=g#4 v=64
109401 On ch=1 n=f4 v=64
109412 Par ch=1 c=7 v=87
109435 On ch=1 n=d#5 v=0
109436 Par ch=1 c=7 v=86
109437 On ch=1 n=f#5 v=64
109459 On ch=1 n=f4 v=0
109459 On ch=1 n=g#4 v=0
109460 Par ch=1 c=7 v=85
109461 On ch=1 n=g4 v=64
109461 On ch=1 n=e4 v=64
109483 On ch=1 n=f#5 v=0
109484 Par ch=1 c=7 v=84
109485 On ch=1 n=d#5 v=64
109508 Par ch=1 c=7 v=83
109519 On ch=1 n=e4 v=0
109519 On ch=1 n=g4 v=0
109521 On ch=1 n=f#4 v=64
109521 On ch=1 n=d#4 v=64
109531 On ch=1 n=d#5 v=0
109532 Par ch=1 c=7 v=82
109533 On ch=1 n=f#5 v=64
109541 Par ch=1 c=64 v=0
109556 Par ch=1 c=7 v=81
109573 Par ch=1 c=64 v=96
109579 On ch=1 n=f#5 v=0
109579 On ch=1 n=d#4 v=0
109579 On ch=1 n=f#4 v=0
109579 On ch=1 n=a#5 v=0
109579 On ch=1 n=a#4 v=0
109579 On ch=1 n=a#5 v=0
109579 On ch=1 n=a#4 v=0
109580 Par ch=1 c=7 v=80
109581 Par ch=1 c=7 v=80
109581 On ch=1 n=c#5 v=64
109581 On ch=1 n=a#2 v=64
109581 On ch=1 n=f5 v=64
109581 On ch=1 n=a#2 v=64
109581 On ch=1 n=f5 v=64
109627 On ch=1 n=c#5 v=0
109629 On ch=1 n=c#4 v=64
109629 On ch=1 n=f4 v=64
109675 On ch=1 n=f4 v=0
109675 On ch=1 n=c#4 v=0
109677 On ch=1 n=a#3 v=64
109677 On ch=1 n=a#4 v=64
109723 On ch=1 n=a#4 v=0
109723 On ch=1 n=a#3 v=0
109725 On ch=1 n=c#4 v=64
109725 On ch=1 n=f4 v=64
109771 On ch=1 n=f4 v=0
109771 On ch=1 n=c#4 v=0
109773 On ch=1 n=a#3 v=64
109773 On ch=1 n=a#4 v=64
109819 On ch=1 n=a#4 v=0
109819 On ch=1 n=a#3 v=0
109819 On ch=1 n=a#2 v=0
109819 On ch=1 n=a#2 v=0
109821 On ch=1 n=f4 v=64
109821 On ch=1 n=e3 v=64
109821 On ch=1 n=e3 v=64
109859 On ch=1 n=f4 v=0
109861 On ch=1 n=a#4 v=64
109868 Par ch=1 c=7 v=79
109869 On ch=1 n=c#4 v=64
109899 On ch=1 n=a#4 v=0
109901 On ch=1 n=f4 v=64
109915 On ch=1 n=c#4 v=0
109917 On ch=1 n=a#3 v=64
109939 On ch=1 n=f4 v=0
109941 On ch=1 n=a#4 v=64
109963 On ch=1 n=a#3 v=0
109965 On ch=1 n=c#4 v=64
109979 On ch=1 n=a#4 v=0
109981 On ch=1 n=f4 v=64
110011 On ch=1 n=c#4 v=0
110013 On ch=1 n=a#3 v=64
110019 On ch=1 n=f4 v=0
110021 On ch=1 n=a#4 v=64
110059 On ch=1 n=a#4 v=0
110059 On ch=1 n=a#3 v=0
110059 On ch=1 n=e3 v=0
110059 On ch=1 n=e3 v=0
110061 On ch=1 n=f4 v=64
110061 On ch=1 n=f3 v=64
110061 On ch=1 n=f3 v=64
110099 On ch=1 n=f4 v=0
110101 On ch=1 n=a#4 v=64
110109 On ch=1 n=c#4 v=64
110139 On ch=1 n=a#4 v=0
110141 On ch=1 n=f4 v=64
110155 On ch=1 n=c#4 v=0
110156 Par ch=1 c=7 v=78
110157 On ch=1 n=a#3 v=64
110179 On ch=1 n=f4 v=0
110181 On ch=1 n=a#4 v=64
110203 On ch=1 n=a#3 v=0
110205 On ch=1 n=c#4 v=64
110219 On ch=1 n=a#4 v=0
110221 On ch=1 n=f4 v=64
110251 On ch=1 n=c#4 v=0
110253 On ch=1 n=a#3 v=64
110259 On ch=1 n=f4 v=0
110261 On ch=1 n=a#4 v=64
110261 Par ch=1 c=64 v=0
110293 Par ch=1 c=64 v=96
110299 On ch=1 n=a#4 v=0
110299 On ch=1 n=a#3 v=0
110299 On ch=1 n=f3 v=0
110299 On ch=1 n=f3 v=0
110299 On ch=1 n=f5 v=0
110299 On ch=1 n=f5 v=0
110301 On ch=1 n=c#5 v=64
110301 On ch=1 n=d#2 v=64
110301 On ch=1 n=f5 v=64
110301 On ch=1 n=d#2 v=64
110301 On ch=1 n=f5 v=64
110347 On ch=1 n=c#5 v=0
110349 On ch=1 n=f#4 v=64
110395 On ch=1 n=f#4 v=0
110397 On ch=1 n=a4 v=64
110419 On ch=1 n=d#2 v=0
110419 On ch=1 n=d#2 v=0
110443 On ch=1 n=a4 v=0
110444 Par ch=1 c=7 v=77
110445 On ch=1 n=f#4 v=64
110491 On ch=1 n=f#4 v=0
110493 On ch=1 n=a4 v=64
110539 On ch=1 n=a4 v=0
110539 On ch=1 n=f5 v=0
110539 On ch=1 n=f5 v=0
110541 On ch=1 n=f#3 v=64
110541 On ch=1 n=d#3 v=64
110541 On ch=1 n=b4 v=64
110541 On ch=1 n=d#5 v=64
110541 On ch=1 n=d#5 v=64
110587 On ch=1 n=b4 v=0
110589 On ch=1 n=f#4 v=64
110599 On ch=1 n=d#3 v=0
110599 On ch=1 n=f#3 v=0
110601 On ch=1 n=g3 v=64
110601 On ch=1 n=e3 v=64
110635 On ch=1 n=f#4 v=0
110637 On ch=1 n=a4 v=64
110659 On ch=1 n=e3 v=0
110659 On ch=1 n=g3 v=0
110661 On ch=1 n=g#3 v=64
110661 On ch=1 n=f3 v=64
110683 On ch=1 n=a4 v=0
110685 On ch=1 n=f#4 v=64
110719 On ch=1 n=f3 v=0
110719 On ch=1 n=g#3 v=0
110721 On ch=1 n=f#3 v=64
110721 On ch=1 n=a3 v=64
110731 On ch=1 n=f#4 v=0
110732 Par ch=1 c=7 v=76
110733 On ch=1 n=a4 v=64
110779 On ch=1 n=a4 v=0
110779 On ch=1 n=a3 v=0
110779 On ch=1 n=f#3 v=0
110779 On ch=1 n=d#5 v=0
110779 On ch=1 n=d#5 v=0
110781 On ch=1 n=a#3 v=64
110781 On ch=1 n=g3 v=64
110781 On ch=1 n=a#4 v=64
110781 On ch=1 n=c#5 v=64
110781 On ch=1 n=c#5 v=64
110827 On ch=1 n=a#4 v=0
110829 On ch=1 n=f#4 v=64
110839 On ch=1 n=g3 v=0
110839 On ch=1 n=a#3 v=0
110841 On ch=1 n=g#3 v=64
110841 On ch=1 n=b3 v=64
110875 On ch=1 n=f#4 v=0
110877 On ch=1 n=a4 v=64
110899 On ch=1 n=b3 v=0
110899 On ch=1 n=g#3 v=0
110901 On ch=1 n=c4 v=64
110901 On ch=1 n=a3 v=64
110923 On ch=1 n=a4 v=0
110925 On ch=1 n=f#4 v=64
110959 On ch=1 n=a3 v=0
110959 On ch=1 n=c4 v=0
110961 On ch=1 n=c#4 v=64
110961 On ch=1 n=a#3 v=64
110971 On ch=1 n=f#4 v=0
110973 On ch=1 n=a4 v=64
110981 Par ch=1 c=64 v=0
111013 Par ch=1 c=64 v=97
111019 On ch=1 n=a4 v=0
111019 On ch=1 n=a#3 v=0
111019 On ch=1 n=c#4 v=0
111019 On ch=1 n=c#5 v=0
111019 On ch=1 n=c#5 v=0
111020 Par ch=1 c=7 v=75
111021 On ch=1 n=c#5 v=64
111021 On ch=1 n=a#2 v=64
111021 On ch=1 n=f5 v=64
111021 On ch=1 n=a#2 v=64
111021 On ch=1 n=f5 v=64
111067 On ch=1 n=c#5 v=0
111069 On ch=1 n=c#4 v=64
111069 On ch=1 n=f4 v=64
111115 On ch=1 n=f4 v=0
111115 On ch=1 n=c#4 v=0
111117 On ch=1 n=a#3 v=64
111117 On ch=1 n=a#4 v=64
111163 On ch=1 n=a#4 v=0
111163 On ch=1 n=a#3 v=0
111165 On ch=1 n=c#4 v=64
111165 On ch=1 n=f4 v=64
111211 On ch=1 n=f4 v=0
111211 On ch=1 n=c#4 v=0
111213 On ch=1 n=a#3 v=64
111213 On ch=1 n=a#4 v=64
111259 On ch=1 n=a#4 v=0
111259 On ch=1 n=a#3 v=0
111259 On ch=1 n=a#2 v=0
111259 On ch=1 n=a#2 v=0
111261 On ch=1 n=f4 v=64
111261 On ch=1 n=e3 v=64
111261 On ch=1 n=e3 v=64
111299 On ch=1 n=f4 v=0
111301 On ch=1 n=a#4 v=64
111308 Par ch=1 c=7 v=74
111309 On ch=1 n=c#4 v=64
111339 On ch=1 n=a#4 v=0
111341 On ch=1 n=f4 v=64
111355 On ch=1 n=c#4 v=0
111357 On ch=1 n=a#3 v=64
111379 On ch=1 n=f4 v=0
111381 On ch=1 n=a#4 v=64
111403 On ch=1 n=a#3 v=0
111405 On ch=1 n=c#4 v=64
111419 On ch=1 n=a#4 v=0
111421 On ch=1 n=f4 v=64
111451 On ch=1 n=c#4 v=0
111453 On ch=1 n=a#3 v=64
111459 On ch=1 n=f4 v=0
111461 On ch=1 n=a#4 v=64
111499 On ch=1 n=a#4 v=0
111499 On ch=1 n=a#3 v=0
111499 On ch=1 n=e3 v=0
111499 On ch=1 n=e3 v=0
111501 On ch=1 n=f4 v=64
111501 On ch=1 n=f3 v=64
111501 On ch=1 n=f3 v=64
111539 On ch=1 n=f4 v=0
111541 On ch=1 n=a#4 v=64
111549 On ch=1 n=c#4 v=64
111579 On ch=1 n=a#4 v=0
111581 On ch=1 n=f4 v=64
111595 On ch=1 n=c#4 v=0
111596 Par ch=1 c=7 v=73
111597 On ch=1 n=a#3 v=64
111619 On ch=1 n=f4 v=0
111621 On ch=1 n=a#4 v=64
111643 On ch=1 n=a#3 v=0
111645 On ch=1 n=c#4 v=64
111659 On ch=1 n=a#4 v=0
111661 On ch=1 n=f4 v=64
111691 On ch=1 n=c#4 v=0
111693 On ch=1 n=a#3 v=64
111699 On ch=1 n=f4 v=0
111701 On ch=1 n=a#4 v=64
111701 Par ch=1 c=64 v=0
111733 Par ch=1 c=64 v=96
111739 On ch=1 n=a#4 v=0
111739 On ch=1 n=a#3 v=0
111739 On ch=1 n=f3 v=0
111739 On ch=1 n=f3 v=0
111739 On ch=1 n=f5 v=0
111739 On ch=1 n=f5 v=0
111741 On ch=1 n=c#5 v=64
111741 On ch=1 n=d#2 v=64
111741 On ch=1 n=f5 v=64
111741 On ch=1 n=d#2 v=64
111741 On ch=1 n=f5 v=64
111787 On ch=1 n=c#5 v=0
111789 On ch=1 n=f#4 v=64
111835 On ch=1 n=f#4 v=0
111837 On ch=1 n=a4 v=64
111859 On ch=1 n=d#2 v=0
111859 On ch=1 n=d#2 v=0
111883 On ch=1 n=a4 v=0
111884 Par ch=1 c=7 v=72
111885 On ch=1 n=f#4 v=64
111931 On ch=1 n=f#4 v=0
111933 On ch=1 n=a4 v=64
111979 On ch=1 n=a4 v=0
111979 On ch=1 n=f5 v=0
111979 On ch=1 n=f5 v=0
111981 On ch=1 n=f#3 v=64
111981 On ch=1 n=d#3 v=64
111981 On ch=1 n=b4 v=64
111981 On ch=1 n=d#5 v=64
111981 On ch=1 n=d#5 v=64
112027 On ch=1 n=b4 v=0
112029 On ch=1 n=f#4 v=64
112039 On ch=1 n=d#3 v=0
112039 On ch=1 n=f#3 v=0
112041 On ch=1 n=g3 v=64
112041 On ch=1 n=e3 v=64
112075 On ch=1 n=f#4 v=0
112077 On ch=1 n=a4 v=64
112099 On ch=1 n=e3 v=0
112099 On ch=1 n=g3 v=0
112101 On ch=1 n=g#3 v=64
112101 On ch=1 n=f3 v=64
112123 On ch=1 n=a4 v=0
112125 On ch=1 n=f#4 v=64
112159 On ch=1 n=f3 v=0
112159 On ch=1 n=g#3 v=0
112161 On ch=1 n=f#3 v=64
112161 On ch=1 n=a3 v=64
112171 On ch=1 n=f#4 v=0
112172 Par ch=1 c=7 v=71
112173 On ch=1 n=a4 v=64
112219 On ch=1 n=a4 v=0
112219 On ch=1 n=a3 v=0
112219 On ch=1 n=f#3 v=0
112219 On ch=1 n=d#5 v=0
112219 On ch=1 n=d#5 v=0
112221 On ch=1 n=a#3 v=64
112221 On ch=1 n=g3 v=64
112221 On ch=1 n=a#4 v=64
112221 On ch=1 n=c#5 v=64
112221 On ch=1 n=c#5 v=64
112267 On ch=1 n=a#4 v=0
112269 On ch=1 n=f#4 v=64
112279 On ch=1 n=g3 v=0
112279 On ch=1 n=a#3 v=0
112281 On ch=1 n=g#3 v=64
112281 On ch=1 n=b3 v=64
112315 On ch=1 n=f#4 v=0
112317 On ch=1 n=a4 v=64
112339 On ch=1 n=b3 v=0
112339 On ch=1 n=g#3 v=0
112341 On ch=1 n=c4 v=64
112341 On ch=1 n=a3 v=64
112363 On ch=1 n=a4 v=0
112365 On ch=1 n=f#4 v=64
112399 On ch=1 n=a3 v=0
112399 On ch=1 n=c4 v=0
112401 On ch=1 n=c#4 v=64
112401 On ch=1 n=a#3 v=64
112411 On ch=1 n=f#4 v=0
112413 On ch=1 n=a4 v=64
112421 Par ch=1 c=64 v=0
112453 Par ch=1 c=64 v=96
112459 On ch=1 n=a4 v=0
112459 On ch=1 n=a#3 v=0
112459 On ch=1 n=c#4 v=0
112459 On ch=1 n=c#5 v=0
112459 On ch=1 n=c#5 v=0
112460 Par ch=1 c=7 v=70
112461 Par ch=1 c=7 v=70
112461 On ch=1 n=a#2 v=64
112461 On ch=1 n=f5 v=64
112461 On ch=1 n=c#5 v=64
112461 On ch=1 n=a#2 v=64
112461 On ch=1 n=f5 v=64
112507 On ch=1 n=c#5 v=0
112509 On ch=1 n=c#4 v=64
112509 On ch=1 n=f4 v=64
112555 On ch=1 n=f4 v=0
112555 On ch=1 n=c#4 v=0
112557 On ch=1 n=a#3 v=64
112557 On ch=1 n=a#4 v=64
112603 On ch=1 n=a#4 v=0
112603 On ch=1 n=a#3 v=0
112604 Par ch=1 c=7 v=71
112605 On ch=1 n=c#4 v=64
112605 On ch=1 n=f4 v=64
112651 On ch=1 n=f4 v=0
112651 On ch=1 n=c#4 v=0
112653 On ch=1 n=a#3 v=64
112653 On ch=1 n=a#4 v=64
112699 On ch=1 n=a#4 v=0
112699 On ch=1 n=a#3 v=0
112699 On ch=1 n=a#2 v=0
112699 On ch=1 n=a#2 v=0
112701 On ch=1 n=f4 v=64
112701 On ch=1 n=e3 v=64
112701 On ch=1 n=e3 v=64
112739 On ch=1 n=f4 v=0
112741 On ch=1 n=a#4 v=64
112748 Par ch=1 c=7 v=72
112749 On ch=1 n=c#4 v=64
112779 On ch=1 n=a#4 v=0
112781 On ch=1 n=f4 v=64
112795 On ch=1 n=c#4 v=0
112797 On ch=1 n=a#3 v=64
112819 On ch=1 n=f4 v=0
112821 On ch=1 n=a#4 v=64
112843 On ch=1 n=a#3 v=0
112845 On ch=1 n=c#4 v=64
112859 On ch=1 n=a#4 v=0
112861 On ch=1 n=f4 v=64
112891 On ch=1 n=c#4 v=0
112892 Par ch=1 c=7 v=73
112893 On ch=1 n=a#3 v=64
112899 On ch=1 n=f4 v=0
112901 On ch=1 n=a#4 v=64
112939 On ch=1 n=a#4 v=0
112939 On ch=1 n=a#3 v=0
112939 On ch=1 n=e3 v=0
112939 On ch=1 n=e3 v=0
112941 On ch=1 n=f4 v=64
112941 On ch=1 n=f3 v=64
112941 On ch=1 n=f3 v=64
112979 On ch=1 n=f4 v=0
112981 On ch=1 n=a#4 v=64
112989 On ch=1 n=c#4 v=64
113019 On ch=1 n=a#4 v=0
113021 On ch=1 n=f4 v=64
113035 On ch=1 n=c#4 v=0
113036 Par ch=1 c=7 v=74
113037 On ch=1 n=a#3 v=64
113059 On ch=1 n=f4 v=0
113061 On ch=1 n=a#4 v=64
113083 On ch=1 n=a#3 v=0
113085 On ch=1 n=c#4 v=64
113099 On ch=1 n=a#4 v=0
113101 On ch=1 n=f4 v=64
113131 On ch=1 n=c#4 v=0
113133 On ch=1 n=a#3 v=64
113139 On ch=1 n=f4 v=0
113141 On ch=1 n=a#4 v=64
113141 Par ch=1 c=64 v=0
113173 Par ch=1 c=64 v=96
113179 On ch=1 n=a#4 v=0
113179 On ch=1 n=a#3 v=0
113179 On ch=1 n=f3 v=0
113179 On ch=1 n=f3 v=0
113179 On ch=1 n=f5 v=0
113179 On ch=1 n=f5 v=0
113180 Par ch=1 c=7 v=75
113181 Par ch=1 c=7 v=75
113181 On ch=1 n=f#3 v=64
113181 On ch=1 n=f5 v=64
113181 On ch=1 n=c#5 v=64
113181 On ch=1 n=f#3 v=64
113181 On ch=1 n=f5 v=64
113227 On ch=1 n=c#5 v=0
113229 On ch=1 n=c#4 v=64
113229 On ch=1 n=f4 v=64
113275 On ch=1 n=f4 v=0
113275 On ch=1 n=c#4 v=0
113277 On ch=1 n=a#3 v=64
113277 On ch=1 n=a#4 v=64
113323 On ch=1 n=a#4 v=0
113323 On ch=1 n=a#3 v=0
113324 Par ch=1 c=7 v=74
113325 On ch=1 n=c#4 v=64
113325 On ch=1 n=f4 v=64
113371 On ch=1 n=f4 v=0
113371 On ch=1 n=c#4 v=0
113373 On ch=1 n=a#3 v=64
113373 On ch=1 n=a#4 v=64
113419 On ch=1 n=a#4 v=0
113419 On ch=1 n=a#3 v=0
113419 On ch=1 n=f#3 v=0
113419 On ch=1 n=f#3 v=0
113421 On ch=1 n=f4 v=64
113421 On ch=1 n=f3 v=64
113421 On ch=1 n=f3 v=64
113459 On ch=1 n=f4 v=0
113461 On ch=1 n=a#4 v=64
113468 Par ch=1 c=7 v=73
113469 On ch=1 n=c#4 v=64
113499 On ch=1 n=a#4 v=0
113501 On ch=1 n=f4 v=64
113515 On ch=1 n=c#4 v=0
113517 On ch=1 n=a#3 v=64
113539 On ch=1 n=f4 v=0
113541 On ch=1 n=a#4 v=64
113563 On ch=1 n=a#3 v=0
113565 On ch=1 n=c#4 v=64
113579 On ch=1 n=a#4 v=0
113581 On ch=1 n=f4 v=64
113611 On ch=1 n=c#4 v=0
113612 Par ch=1 c=7 v=72
113613 On ch=1 n=a#3 v=64
113619 On ch=1 n=f4 v=0
113621 On ch=1 n=a#4 v=64
113659 On ch=1 n=a#4 v=0
113659 On ch=1 n=a#3 v=0
113659 On ch=1 n=f3 v=0
113659 On ch=1 n=f3 v=0
113661 On ch=1 n=f4 v=64
113661 On ch=1 n=c#3 v=64
113661 On ch=1 n=c#3 v=64
113699 On ch=1 n=f4 v=0
113701 On ch=1 n=a#4 v=64
113709 On ch=1 n=c#4 v=64
113739 On ch=1 n=a#4 v=0
113741 On ch=1 n=f4 v=64
113755 On ch=1 n=c#4 v=0
113756 Par ch=1 c=7 v=71
113757 On ch=1 n=a#3 v=64
113779 On ch=1 n=f4 v=0
113781 On ch=1 n=a#4 v=64
113803 On ch=1 n=a#3 v=0
113805 On ch=1 n=c#4 v=64
113819 On ch=1 n=a#4 v=0
113821 On ch=1 n=f4 v=64
113851 On ch=1 n=c#4 v=0
113853 On ch=1 n=a#3 v=64
113859 On ch=1 n=f4 v=0
113861 On ch=1 n=a#4 v=64
113861 Par ch=1 c=64 v=0
113893 Par ch=1 c=64 v=96
113899 On ch=1 n=a#4 v=0
113899 On ch=1 n=a#3 v=0
113899 On ch=1 n=c#3 v=0
113899 On ch=1 n=c#3 v=0
113899 On ch=1 n=f5 v=0
113899 On ch=1 n=f5 v=0
113900 Par ch=1 c=7 v=70
113901 Tempo 1428571
113901 Par ch=1 c=7 v=70
113901 On ch=1 n=a#2 v=64
113901 On ch=1 n=f5 v=64
113901 On ch=1 n=c#5 v=64
113901 On ch=1 n=a#2 v=64
113901 On ch=1 n=f5 v=64
113947 On ch=1 n=c#5 v=0
113949 On ch=1 n=c#4 v=64
113949 On ch=1 n=f4 v=64
113995 On ch=1 n=f4 v=0
113995 On ch=1 n=c#4 v=0
113997 On ch=1 n=a#3 v=64
113997 On ch=1 n=a#4 v=64
114003 Tempo 1463415
114043 On ch=1 n=a#4 v=0
114043 On ch=1 n=a#3 v=0
114044 Par ch=1 c=7 v=71
114045 On ch=1 n=c#4 v=64
114045 On ch=1 n=f4 v=64
114091 On ch=1 n=f4 v=0
114091 On ch=1 n=c#4 v=0
114093 On ch=1 n=a#3 v=64
114093 On ch=1 n=a#4 v=64
114103 Tempo 1500000
114136 On ch=1 n=a#4 v=0
114136 On ch=1 n=a#3 v=0
114136 On ch=1 n=a#2 v=0
114136 On ch=1 n=a#2 v=0
114138 On ch=1 n=f4 v=64
114138 On ch=1 n=e3 v=64
114138 On ch=1 n=e3 v=64
114176 On ch=1 n=f4 v=0
114178 On ch=1 n=a#4 v=64
114185 Par ch=1 c=7 v=72
114186 On ch=1 n=c#4 v=64
114206 Tempo 1538462
114216 On ch=1 n=a#4 v=0
114218 On ch=1 n=f4 v=64
114232 On ch=1 n=c#4 v=0
114234 On ch=1 n=a#3 v=64
114256 On ch=1 n=f4 v=0
114258 On ch=1 n=a#4 v=64
114280 On ch=1 n=a#3 v=0
114282 On ch=1 n=c#4 v=64
114296 On ch=1 n=a#4 v=0
114298 On ch=1 n=f4 v=64
114309 Tempo 1578947
114328 On ch=1 n=c#4 v=0
114329 Par ch=1 c=7 v=73
114330 On ch=1 n=a#3 v=64
114336 On ch=1 n=f4 v=0
114338 On ch=1 n=a#4 v=64
114376 On ch=1 n=a#4 v=0
114376 On ch=1 n=a#3 v=0
114376 On ch=1 n=e3 v=0
114376 On ch=1 n=e3 v=0
114378 On ch=1 n=f4 v=64
114378 On ch=1 n=f3 v=64
114378 On ch=1 n=f3 v=64
114411 Tempo 1621622
114416 On ch=1 n=f4 v=0
114418 On ch=1 n=a#4 v=64
114426 On ch=1 n=c#4 v=64
114456 On ch=1 n=a#4 v=0
114458 On ch=1 n=f4 v=64
114472 On ch=1 n=c#4 v=0
114473 Par ch=1 c=7 v=74
114474 On ch=1 n=a#3 v=64
114496 On ch=1 n=f4 v=0
114498 On ch=1 n=a#4 v=64
114514 Tempo 1666667
114520 On ch=1 n=a#3 v=0
114522 On ch=1 n=c#4 v=64
114536 On ch=1 n=a#4 v=0
114538 On ch=1 n=f4 v=64
114568 On ch=1 n=c#4 v=0
114570 On ch=1 n=a#3 v=64
114576 On ch=1 n=f4 v=0
114578 On ch=1 n=a#4 v=64
114578 Par ch=1 c=64 v=0
114610 Par ch=1 c=64 v=96
114616 On ch=1 n=a#4 v=0
114616 On ch=1 n=a#3 v=0
114616 On ch=1 n=f3 v=0
114616 On ch=1 n=f3 v=0
114616 On ch=1 n=f5 v=0
114616 On ch=1 n=f5 v=0
114617 Tempo 1714286
114617 Par ch=1 c=7 v=75
114618 Par ch=1 c=7 v=75
114618 On ch=1 n=f#3 v=64
114618 On ch=1 n=f5 v=64
114618 On ch=1 n=c#5 v=64
114618 On ch=1 n=f#3 v=64
114618 On ch=1 n=f5 v=64
114664 On ch=1 n=c#5 v=0
114666 On ch=1 n=c#4 v=64
114666 On ch=1 n=f4 v=64
114712 On ch=1 n=f4 v=0
114712 On ch=1 n=c#4 v=0
114714 On ch=1 n=a#3 v=64
114714 On ch=1 n=a#4 v=64
114720 Tempo 1764706
114760 On ch=1 n=a#4 v=0
114760 On ch=1 n=a#3 v=0
114761 Par ch=1 c=7 v=74
114762 On ch=1 n=c#4 v=64
114762 On ch=1 n=f4 v=64
114808 On ch=1 n=f4 v=0
114808 On ch=1 n=c#4 v=0
114810 On ch=1 n=a#3 v=64
114810 On ch=1 n=a#4 v=64
114820 Tempo 1818182
114853 On ch=1 n=a#4 v=0
114853 On ch=1 n=a#3 v=0
114853 On ch=1 n=f#3 v=0
114853 On ch=1 n=f#3 v=0
114855 On ch=1 n=f4 v=64
114855 On ch=1 n=f3 v=64
114855 On ch=1 n=f3 v=64
114893 On ch=1 n=f4 v=0
114895 On ch=1 n=a#4 v=64
114902 Par ch=1 c=7 v=73
114903 On ch=1 n=c#4 v=64
114922 Tempo 1875000
114933 On ch=1 n=a#4 v=0
114935 On ch=1 n=f4 v=64
114949 On ch=1 n=c#4 v=0
114951 On ch=1 n=a#3 v=64
114973 On ch=1 n=f4 v=0
114975 On ch=1 n=a#4 v=64
114997 On ch=1 n=a#3 v=0
114999 On ch=1 n=c#4 v=64
115013 On ch=1 n=a#4 v=0
115015 On ch=1 n=f4 v=64
115025 Tempo 1935484
115045 On ch=1 n=c#4 v=0
115046 Par ch=1 c=7 v=72
115047 On ch=1 n=a#3 v=64
115053 On ch=1 n=f4 v=0
115055 On ch=1 n=a#4 v=64
115093 On ch=1 n=a#4 v=0
115093 On ch=1 n=a#3 v=0
115093 On ch=1 n=f3 v=0
115093 On ch=1 n=f3 v=0
115095 On ch=1 n=f4 v=64
115095 On ch=1 n=c#3 v=64
115095 On ch=1 n=c#3 v=64
115128 Tempo 2000000
115133 On ch=1 n=f4 v=0
115135 On ch=1 n=a#4 v=64
115143 On ch=1 n=c#4 v=64
115173 On ch=1 n=a#4 v=0
115175 On ch=1 n=f4 v=64
115189 On ch=1 n=c#4 v=0
115190 Par ch=1 c=7 v=71
115191 On ch=1 n=a#3 v=64
115213 On ch=1 n=f4 v=0
115215 On ch=1 n=a#4 v=64
115231 Tempo 2068966
115237 On ch=1 n=a#3 v=0
115239 On ch=1 n=c#4 v=64
115253 On ch=1 n=a#4 v=0
115255 On ch=1 n=f4 v=64
115285 On ch=1 n=c#4 v=0
115287 On ch=1 n=a#3 v=64
115293 On ch=1 n=f4 v=0
115295 On ch=1 n=a#4 v=64
115295 Par ch=1 c=64 v=0
115327 Par ch=1 c=64 v=96
115333 On ch=1 n=a#4 v=0
115333 On ch=1 n=a#3 v=0
115333 On ch=1 n=c#3 v=0
115333 On ch=1 n=c#3 v=0
115333 On ch=1 n=f5 v=0
115333 On ch=1 n=f5 v=0
115334 Tempo 2142857
115334 Par ch=1 c=7 v=70
115335 Tempo 1764706
115335 Par ch=1 c=7 v=70
115335 On ch=1 n=a#2 v=64
115335 On ch=1 n=a#2 v=64
115430 Par ch=1 c=7 v=71
115453 On ch=1 n=a#2 v=0
115453 On ch=1 n=a#2 v=0
115455 On ch=1 n=c#4 v=64
115455 On ch=1 n=a#3 v=64
115455 On ch=1 n=f3 v=64
115455 On ch=1 n=c#4 v=64
115455 On ch=1 n=a#3 v=64
115455 On ch=1 n=f3 v=64
115526 Par ch=1 c=7 v=72
115573 On ch=1 n=f3 v=0
115573 On ch=1 n=a#3 v=0
115573 On ch=1 n=c#4 v=0
115573 On ch=1 n=f3 v=0
115573 On ch=1 n=a#3 v=0
115573 On ch=1 n=c#4 v=0
115574 Tempo 1818182
115575 On ch=1 n=f5 v=64
115575 On ch=1 n=c#5 v=64
115575 On ch=1 n=a#4 v=64
115575 On ch=1 n=f4 v=64
115575 On ch=1 n=f5 v=64
115575 On ch=1 n=c#5 v=64
115575 On ch=1 n=a#4 v=64
115575 On ch=1 n=f4 v=64
115622 Par ch=1 c=7 v=73
115693 On ch=1 n=f4 v=0
115693 On ch=1 n=a#4 v=0
115693 On ch=1 n=c#5 v=0
115693 On ch=1 n=f5 v=0
115693 On ch=1 n=f4 v=0
115693 On ch=1 n=a#4 v=0
115693 On ch=1 n=c#5 v=0
115693 On ch=1 n=f5 v=0
115695 On ch=1 n=c#5 v=64
115695 On ch=1 n=a#4 v=64
115695 On ch=1 n=f4 v=64
115695 On ch=1 n=c#5 v=64
115695 On ch=1 n=a#4 v=64
115695 On ch=1 n=f4 v=64
115718 Par ch=1 c=7 v=74
115813 On ch=1 n=f4 v=0
115813 On ch=1 n=a#4 v=0
115813 On ch=1 n=c#5 v=0
115813 On ch=1 n=f4 v=0
115813 On ch=1 n=a#4 v=0
115813 On ch=1 n=c#5 v=0
115814 Tempo 1875000
115814 Par ch=1 c=7 v=75
115815 On ch=1 n=f6 v=64
115815 On ch=1 n=c#6 v=64
115815 On ch=1 n=a#5 v=64
115815 On ch=1 n=f5 v=64
115815 On ch=1 n=f6 v=64
115815 On ch=1 n=c#6 v=64
115815 On ch=1 n=a#5 v=64
115815 On ch=1 n=f5 v=64
115910 Par ch=1 c=7 v=76
115933 On ch=1 n=f5 v=0
115933 On ch=1 n=a#5 v=0
115933 On ch=1 n=c#6 v=0
115933 On ch=1 n=f6 v=0
115933 On ch=1 n=f5 v=0
115933 On ch=1 n=a#5 v=0
115933 On ch=1 n=c#6 v=0
115933 On ch=1 n=f6 v=0
115935 On ch=1 n=c#6 v=64
115935 On ch=1 n=a#5 v=64
115935 On ch=1 n=f5 v=64
115935 On ch=1 n=c#6 v=64
115935 On ch=1 n=a#5 v=64
115935 On ch=1 n=f5 v=64
116006 Par ch=1 c=7 v=77
116053 On ch=1 n=f5 v=0
116053 On ch=1 n=a#5 v=0
116053 On ch=1 n=c#6 v=0
116053 On ch=1 n=f5 v=0
116053 On ch=1 n=a#5 v=0
116053 On ch=1 n=c#6 v=0
116054 Tempo 1935484
116055 On ch=1 n=f7 v=64
116055 On ch=1 n=c#7 v=64
116055 On ch=1 n=a#6 v=64
116055 On ch=1 n=f6 v=64
116055 On ch=1 n=f7 v=64
116055 On ch=1 n=c#7 v=64
116055 On ch=1 n=a#6 v=64
116055 On ch=1 n=f6 v=64
116102 Par ch=1 c=7 v=78
116173 On ch=1 n=f6 v=0
116173 On ch=1 n=a#6 v=0
116173 On ch=1 n=c#7 v=0
116173 On ch=1 n=f7 v=0
116173 On ch=1 n=f6 v=0
116173 On ch=1 n=a#6 v=0
116173 On ch=1 n=c#7 v=0
116173 On ch=1 n=f7 v=0
116175 On ch=1 n=c#7 v=64
116175 On ch=1 n=a#6 v=64
116175 On ch=1 n=f6 v=64
116175 On ch=1 n=c#7 v=64
116175 On ch=1 n=a#6 v=64
116175 On ch=1 n=f6 v=64
116198 Par ch=1 c=7 v=79
116293 On ch=1 n=f6 v=0
116293 On ch=1 n=a#6 v=0
116293 On ch=1 n=c#7 v=0
116293 On ch=1 n=f6 v=0
116293 On ch=1 n=a#6 v=0
116293 On ch=1 n=c#7 v=0
116294 Tempo 2000000
116294 Par ch=1 c=7 v=80
116295 Tempo 2000000
116295 On ch=1 n=f8 v=64
116295 On ch=1 n=c#8 v=64
116295 On ch=1 n=a#7 v=64
116295 On ch=1 n=f7 v=64
116295 On ch=1 n=f8 v=64
116295 On ch=1 n=c#8 v=64
116295 On ch=1 n=a#7 v=64
116295 On ch=1 n=f7 v=64
116413 On ch=1 n=f7 v=0
116413 On ch=1 n=a#7 v=0
116413 On ch=1 n=c#8 v=0
116413 On ch=1 n=f8 v=0
116413 On ch=1 n=f7 v=0
116413 On ch=1 n=a#7 v=0
116413 On ch=1 n=c#8 v=0
116413 On ch=1 n=f8 v=0
116535 On ch=1 n=c#5 v=64
116535 On ch=1 n=a#4 v=64
116535 On ch=1 n=f4 v=64
116535 On ch=1 n=f6 v=64
116535 On ch=1 n=c#6 v=64
116535 On ch=1 n=a#5 v=64
116535 On ch=1 n=f5 v=64
116535 On ch=1 n=c#5 v=64
116535 On ch=1 n=a#4 v=64
116535 On ch=1 n=f4 v=64
116535 On ch=1 n=f6 v=64
116535 On ch=1 n=c#6 v=64
116535 On ch=1 n=a#5 v=64
116535 On ch=1 n=f5 v=64
118213 On ch=1 n=f5 v=0
118213 On ch=1 n=a#5 v=0
118213 On ch=1 n=c#6 v=0
118213 On ch=1 n=f6 v=0
118213 On ch=1 n=f4 v=0
118213 On ch=1 n=a#4 v=0
118213 On ch=1 n=c#5 v=0
118213 On ch=1 n=f5 v=0
118213 On ch=1 n=a#5 v=0
118213 On ch=1 n=c#6 v=0
118213 On ch=1 n=f6 v=0
118213 On ch=1 n=f4 v=0
118213 On ch=1 n=a#4 v=0
118213 On ch=1 n=c#5 v=0
118215 Par ch=1 c=64 v=0
118215 Meta TrkEnd
TrkEnd
