MFile 1 7 480
MTrk
0 SMPTE 96 0 3 0 0
0 TimeSig 4/4 24 8
0 KeySig 0 major
0 Tempo 300000
1900 Tempo 352941
21132 Tempo 355030
23040 Tempo 357143
28812 Tempo 361446
32640 Tempo 365854
34572 Tempo 359281
36492 Tempo 370370
38400 Tempo 361446
44160 Tempo 357143
72960 Tempo 361446
74904 Tempo 365854
76800 Tempo 370370
78720 Tempo 361446
81600 Tempo 352941
82572 Tempo 357143
83520 Tempo 368098
84480 Tempo 375000
85440 Tempo 361446
90240 Tempo 357143
93132 Tempo 379747
93600 Tempo 416667
94080 Tempo 377358
94560 Tempo 357143
101744 Tempo 352941
145920 Tempo 357143
146880 Tempo 363636
147840 Tempo 375000
147840 Meta TrkEnd
TrkEnd
MTrk
0 SeqSpec 43 00 01 00
0 SysEx f0 41 10 42 12 40 00 7f 00 41 f7
0 SysEx f0 41 10 42 12 40 01 30 03 0c f7
0 Meta TrkEnd
TrkEnd
MTrk
0 SeqSpec 43 00 01 00
0 Meta TrkName "Etude No. 1"
0 Meta 0x21 00
476 Par ch=1 c=93 v=20
476 Par ch=1 c=0 v=0
476 Par ch=1 c=91 v=64
480 Par ch=1 c=0 v=0
488 PrCh ch=1 p=0
492 Par ch=1 c=7 v=127
1920 On ch=1 n=c3 v=93
1920 On ch=1 n=c4 v=94
1920 Par ch=1 c=64 v=127
2024 On ch=1 n=c4 v=0
2040 On ch=1 n=c4 v=80
2160 On ch=1 n=g4 v=82
2264 On ch=1 n=g4 v=0
2280 On ch=1 n=c5 v=72
2384 On ch=1 n=c5 v=0
2400 On ch=1 n=e5 v=82
2504 On ch=1 n=e5 v=0
2520 On ch=1 n=c5 v=61
2624 On ch=1 n=c5 v=0
2640 On ch=1 n=g5 v=73
2744 On ch=1 n=g5 v=0
2760 On ch=1 n=c6 v=72
2864 On ch=1 n=c6 v=0
2880 On ch=1 n=e6 v=80
2984 On ch=1 n=e6 v=0
3000 On ch=1 n=c6 v=66
3104 On ch=1 n=c6 v=0
3120 On ch=1 n=g6 v=70
3224 On ch=1 n=g6 v=0
3240 On ch=1 n=c7 v=67
3344 On ch=1 n=c7 v=0
3360 On ch=1 n=e7 v=78
3464 On ch=1 n=e7 v=0
3480 On ch=1 n=c7 v=59
3584 On ch=1 n=c7 v=0
3600 On ch=1 n=g7 v=76
3704 On ch=1 n=g7 v=0
3720 On ch=1 n=c8 v=73
3824 On ch=1 n=c8 v=0
3840 On ch=1 n=e8 v=78
3944 On ch=1 n=e8 v=0
3960 On ch=1 n=c8 v=65
4064 On ch=1 n=c8 v=0
4080 On ch=1 n=g7 v=57
4184 On ch=1 n=g7 v=0
4200 On ch=1 n=c7 v=52
4304 On ch=1 n=c7 v=0
4320 On ch=1 n=e7 v=77
4424 On ch=1 n=e7 v=0
4440 On ch=1 n=c7 v=71
4544 On ch=1 n=c7 v=0
4560 On ch=1 n=g6 v=69
4664 On ch=1 n=g6 v=0
4680 On ch=1 n=c6 v=66
4784 On ch=1 n=c6 v=0
4800 On ch=1 n=e6 v=79
4904 On ch=1 n=e6 v=0
4920 On ch=1 n=c6 v=55
5024 On ch=1 n=c6 v=0
5040 On ch=1 n=g5 v=70
5144 On ch=1 n=g5 v=0
5160 On ch=1 n=c5 v=58
5264 On ch=1 n=c5 v=0
5280 On ch=1 n=e5 v=77
5384 On ch=1 n=e5 v=0
5400 On ch=1 n=c5 v=61
5504 On ch=1 n=c5 v=0
5520 On ch=1 n=g4 v=76
5584 On ch=1 n=c4 v=0
5624 On ch=1 n=g4 v=0
5640 On ch=1 n=c4 v=66
5656 On ch=1 n=c3 v=0
5672 Par ch=1 c=64 v=0
5744 On ch=1 n=c4 v=0
5784 Par ch=1 c=64 v=127
5796 On ch=1 n=f3 v=93
5800 On ch=1 n=f2 v=94
5880 On ch=1 n=c4 v=56
5984 On ch=1 n=c4 v=0
6000 On ch=1 n=a4 v=72
6104 On ch=1 n=a4 v=0
6120 On ch=1 n=c5 v=63
6224 On ch=1 n=c5 v=0
6240 On ch=1 n=f5 v=78
6344 On ch=1 n=f5 v=0
6360 On ch=1 n=c5 v=54
6464 On ch=1 n=c5 v=0
6480 On ch=1 n=a5 v=63
6584 On ch=1 n=a5 v=0
6600 On ch=1 n=c6 v=63
6704 On ch=1 n=c6 v=0
6720 On ch=1 n=f6 v=79
6824 On ch=1 n=f6 v=0
6840 On ch=1 n=c6 v=60
6944 On ch=1 n=c6 v=0
6960 On ch=1 n=a6 v=65
7064 On ch=1 n=a6 v=0
7080 On ch=1 n=c7 v=65
7184 On ch=1 n=c7 v=0
7200 On ch=1 n=f7 v=77
7304 On ch=1 n=f7 v=0
7320 On ch=1 n=c7 v=46
7424 On ch=1 n=c7 v=0
7440 On ch=1 n=a7 v=56
7492 On ch=1 n=f3 v=0
7544 On ch=1 n=a7 v=0
7560 On ch=1 n=c8 v=61
7600 On ch=1 n=f2 v=0
7600 Par ch=1 c=64 v=0
7664 On ch=1 n=c8 v=0
7672 On ch=1 n=f#2 v=93
7672 Par ch=1 c=64 v=127
7676 On ch=1 n=f#3 v=95
7680 On ch=1 n=e8 v=77
7784 On ch=1 n=e8 v=0
7800 On ch=1 n=c8 v=62
7904 On ch=1 n=c8 v=0
7920 On ch=1 n=a7 v=52
8024 On ch=1 n=a7 v=0
8040 On ch=1 n=c7 v=51
8144 On ch=1 n=c7 v=0
8160 On ch=1 n=e7 v=79
8264 On ch=1 n=e7 v=0
8280 On ch=1 n=c7 v=65
8384 On ch=1 n=c7 v=0
8400 On ch=1 n=a6 v=65
8504 On ch=1 n=a6 v=0
8520 On ch=1 n=c6 v=67
8624 On ch=1 n=c6 v=0
8640 On ch=1 n=e6 v=76
8744 On ch=1 n=e6 v=0
8760 On ch=1 n=c6 v=73
8864 On ch=1 n=c6 v=0
8880 On ch=1 n=a5 v=62
8984 On ch=1 n=a5 v=0
9000 On ch=1 n=c5 v=57
9104 On ch=1 n=c5 v=0
9120 On ch=1 n=d5 v=79
9224 On ch=1 n=d5 v=0
9240 On ch=1 n=c5 v=46
9344 On ch=1 n=c5 v=0
9360 On ch=1 n=a4 v=66
9464 On ch=1 n=a4 v=0
9480 On ch=1 n=c4 v=56
9536 On ch=1 n=f#3 v=0
9540 On ch=1 n=f#2 v=0
9540 Par ch=1 c=64 v=0
9584 On ch=1 n=c4 v=0
9604 On ch=1 n=g3 v=99
9608 On ch=1 n=g2 v=90
9624 Par ch=1 c=64 v=127
9720 On ch=1 n=b3 v=58
9824 On ch=1 n=b3 v=0
9840 On ch=1 n=g4 v=68
9944 On ch=1 n=g4 v=0
9960 On ch=1 n=b4 v=66
10064 On ch=1 n=b4 v=0
10080 On ch=1 n=d5 v=77
10184 On ch=1 n=d5 v=0
10200 On ch=1 n=b4 v=53
10276 On ch=1 n=g3 v=0
10304 On ch=1 n=b4 v=0
10320 On ch=1 n=g5 v=60
10424 On ch=1 n=g5 v=0
10440 On ch=1 n=b5 v=68
10532 On ch=1 n=f#2 v=86
10532 On ch=1 n=f#3 v=97
10544 On ch=1 n=b5 v=0
10560 On ch=1 n=d6 v=78
10576 On ch=1 n=g2 v=0
10580 Par ch=1 c=64 v=0
10664 On ch=1 n=d6 v=0
10680 On ch=1 n=b5 v=58
10784 On ch=1 n=b5 v=0
10800 On ch=1 n=g6 v=67
10888 On ch=1 n=f#3 v=0
10904 On ch=1 n=g6 v=0
10920 On ch=1 n=b6 v=66
11024 On ch=1 n=b6 v=0
11040 On ch=1 n=d7 v=77
11040 Par ch=1 c=64 v=127
11044 On ch=1 n=e2 v=96
11044 On ch=1 n=e3 v=89
11104 On ch=1 n=f#2 v=0
11144 On ch=1 n=d7 v=0
11160 On ch=1 n=b6 v=59
11264 On ch=1 n=b6 v=0
11280 On ch=1 n=g7 v=65
11384 On ch=1 n=g7 v=0
11392 On ch=1 n=e3 v=0
11400 On ch=1 n=a7 v=66
11408 On ch=1 n=e2 v=0
11464 Par ch=1 c=64 v=0
11504 On ch=1 n=a7 v=0
11504 On ch=1 n=d3 v=93
11516 On ch=1 n=d2 v=101
11520 On ch=1 n=d8 v=78
11532 Par ch=1 c=64 v=127
11624 On ch=1 n=d8 v=0
11640 On ch=1 n=a7 v=63
11744 On ch=1 n=a7 v=0
11760 On ch=1 n=f#7 v=64
11864 On ch=1 n=f#7 v=0
11880 On ch=1 n=c7 v=61
11984 On ch=1 n=c7 v=0
12000 On ch=1 n=d7 v=76
12104 On ch=1 n=d7 v=0
12120 On ch=1 n=a6 v=59
12224 On ch=1 n=a6 v=0
12240 On ch=1 n=f#6 v=58
12344 On ch=1 n=f#6 v=0
12360 On ch=1 n=c6 v=65
12464 On ch=1 n=c6 v=0
12480 On ch=1 n=d6 v=77
12584 On ch=1 n=d6 v=0
12600 On ch=1 n=a5 v=65
12704 On ch=1 n=a5 v=0
12720 On ch=1 n=f#5 v=62
12824 On ch=1 n=f#5 v=0
12840 On ch=1 n=c5 v=61
12944 On ch=1 n=c5 v=0
12960 On ch=1 n=d5 v=76
13064 On ch=1 n=d5 v=0
13080 On ch=1 n=a4 v=65
13156 On ch=1 n=d2 v=0
13156 On ch=1 n=d3 v=0
13184 On ch=1 n=a4 v=0
13200 On ch=1 n=f#4 v=67
13304 On ch=1 n=f#4 v=0
13320 On ch=1 n=c4 v=62
13400 Par ch=1 c=64 v=0
13424 On ch=1 n=c4 v=0
13472 On ch=1 n=g3 v=104
13476 On ch=1 n=g2 v=102
13484 Par ch=1 c=64 v=127
13560 On ch=1 n=c4 v=52
13664 On ch=1 n=c4 v=0
13680 On ch=1 n=f4 v=67
13784 On ch=1 n=f4 v=0
13800 On ch=1 n=g#4 v=67
13904 On ch=1 n=g#4 v=0
13920 On ch=1 n=d5 v=75
14024 On ch=1 n=d5 v=0
14040 On ch=1 n=c5 v=52
14144 On ch=1 n=c5 v=0
14160 On ch=1 n=f5 v=62
14264 On ch=1 n=f5 v=0
14280 On ch=1 n=g#5 v=73
14384 On ch=1 n=g#5 v=0
14400 On ch=1 n=d6 v=78
14504 On ch=1 n=d6 v=0
14520 On ch=1 n=c6 v=60
14624 On ch=1 n=c6 v=0
14640 On ch=1 n=f6 v=70
14744 On ch=1 n=f6 v=0
14760 On ch=1 n=g#6 v=63
14864 On ch=1 n=g#6 v=0
14880 On ch=1 n=d7 v=77
14984 On ch=1 n=d7 v=0
15000 On ch=1 n=c7 v=57
15104 On ch=1 n=c7 v=0
15120 On ch=1 n=f7 v=63
15224 On ch=1 n=f7 v=0
15240 On ch=1 n=g#7 v=53
15272 Par ch=1 c=64 v=0
15344 On ch=1 n=g#7 v=0
15356 Par ch=1 c=64 v=127
15360 On ch=1 n=d8 v=79
15464 On ch=1 n=d8 v=0
15480 On ch=1 n=g7 v=49
15584 On ch=1 n=g7 v=0
15600 On ch=1 n=f7 v=66
15704 On ch=1 n=f7 v=0
15720 On ch=1 n=b6 v=63
15824 On ch=1 n=b6 v=0
15840 On ch=1 n=d7 v=78
15944 On ch=1 n=d7 v=0
15960 On ch=1 n=g6 v=59
16064 On ch=1 n=g6 v=0
16080 On ch=1 n=f6 v=52
16184 On ch=1 n=f6 v=0
16200 On ch=1 n=b5 v=50
16304 On ch=1 n=b5 v=0
16320 On ch=1 n=d6 v=77
16424 On ch=1 n=d6 v=0
16440 On ch=1 n=g5 v=53
16544 On ch=1 n=g5 v=0
16560 On ch=1 n=f5 v=70
16664 On ch=1 n=f5 v=0
16680 On ch=1 n=b4 v=58
16784 On ch=1 n=b4 v=0
16800 On ch=1 n=d#5 v=78
16904 On ch=1 n=d#5 v=0
16920 On ch=1 n=g4 v=46
17024 On ch=1 n=g4 v=0
17040 On ch=1 n=f4 v=65
17104 On ch=1 n=g2 v=0
17136 On ch=1 n=g3 v=0
17144 On ch=1 n=f4 v=0
17160 On ch=1 n=b3 v=60
17216 Par ch=1 c=64 v=0
17264 On ch=1 n=b3 v=0
17304 Par ch=1 c=64 v=127
17312 On ch=1 n=c3 v=97
17316 On ch=1 n=c4 v=97
17376 On ch=1 n=c4 v=0
17400 On ch=1 n=c4 v=86
17520 On ch=1 n=g4 v=66
17624 On ch=1 n=g4 v=0
17640 On ch=1 n=c5 v=68
17744 On ch=1 n=c5 v=0
17760 On ch=1 n=e5 v=78
17864 On ch=1 n=e5 v=0
17880 On ch=1 n=c5 v=62
17984 On ch=1 n=c5 v=0
18000 On ch=1 n=g5 v=62
18104 On ch=1 n=g5 v=0
18120 On ch=1 n=c6 v=63
18224 On ch=1 n=c6 v=0
18240 On ch=1 n=e6 v=79
18344 On ch=1 n=e6 v=0
18360 On ch=1 n=c6 v=54
18464 On ch=1 n=c6 v=0
18480 On ch=1 n=g6 v=72
18584 On ch=1 n=g6 v=0
18600 On ch=1 n=c7 v=72
18704 On ch=1 n=c7 v=0
18720 On ch=1 n=e7 v=82
18824 On ch=1 n=e7 v=0
18840 On ch=1 n=c7 v=54
18944 On ch=1 n=c7 v=0
18960 On ch=1 n=g7 v=70
19064 On ch=1 n=g7 v=0
19080 On ch=1 n=c8 v=68
19184 On ch=1 n=c8 v=0
19200 On ch=1 n=e8 v=78
19304 On ch=1 n=e8 v=0
19320 On ch=1 n=c8 v=76
19424 On ch=1 n=c8 v=0
19440 On ch=1 n=g7 v=67
19544 On ch=1 n=g7 v=0
19560 On ch=1 n=c7 v=64
19664 On ch=1 n=c7 v=0
19680 On ch=1 n=e7 v=79
19784 On ch=1 n=e7 v=0
19800 On ch=1 n=c7 v=73
19904 On ch=1 n=c7 v=0
19920 On ch=1 n=g6 v=68
20024 On ch=1 n=g6 v=0
20040 On ch=1 n=c6 v=66
20144 On ch=1 n=c6 v=0
20160 On ch=1 n=e6 v=77
20264 On ch=1 n=e6 v=0
20280 On ch=1 n=c6 v=70
20384 On ch=1 n=c6 v=0
20400 On ch=1 n=g5 v=71
20504 On ch=1 n=g5 v=0
20520 On ch=1 n=c5 v=63
20624 On ch=1 n=c5 v=0
20640 On ch=1 n=e5 v=79
20736 On ch=1 n=c4 v=0
20744 On ch=1 n=e5 v=0
20760 On ch=1 n=c5 v=64
20864 On ch=1 n=c5 v=0
20880 On ch=1 n=g4 v=58
20984 On ch=1 n=g4 v=0
21000 On ch=1 n=c4 v=58
21032 On ch=1 n=c3 v=0
21052 Par ch=1 c=64 v=0
21104 On ch=1 n=c4 v=0
21132 Par ch=1 c=64 v=127
21148 On ch=1 n=a2 v=101
21148 On ch=1 n=a3 v=93
21240 On ch=1 n=c4 v=46
21344 On ch=1 n=c4 v=0
21360 On ch=1 n=f4 v=71
21464 On ch=1 n=f4 v=0
21480 On ch=1 n=c5 v=60
21584 On ch=1 n=c5 v=0
21600 On ch=1 n=f5 v=79
21704 On ch=1 n=f5 v=0
21720 On ch=1 n=c5 v=59
21824 On ch=1 n=c5 v=0
21840 On ch=1 n=f5 v=60
21944 On ch=1 n=f5 v=0
21960 On ch=1 n=c6 v=68
22064 On ch=1 n=c6 v=0
22080 On ch=1 n=f6 v=79
22184 On ch=1 n=f6 v=0
22200 On ch=1 n=c6 v=54
22304 On ch=1 n=c6 v=0
22320 On ch=1 n=f6 v=65
22424 On ch=1 n=f6 v=0
22440 On ch=1 n=c7 v=62
22544 On ch=1 n=c7 v=0
22560 On ch=1 n=f7 v=80
22664 On ch=1 n=f7 v=0
22680 On ch=1 n=c7 v=57
22784 On ch=1 n=c7 v=0
22800 On ch=1 n=f7 v=59
22904 On ch=1 n=f7 v=0
22920 On ch=1 n=c8 v=60
23024 On ch=1 n=c8 v=0
23040 On ch=1 n=e8 v=80
23144 On ch=1 n=e8 v=0
23160 On ch=1 n=c8 v=72
23264 On ch=1 n=c8 v=0
23280 On ch=1 n=f#7 v=67
23384 On ch=1 n=f#7 v=0
23400 On ch=1 n=c7 v=52
23504 On ch=1 n=c7 v=0
23520 On ch=1 n=e7 v=80
23624 On ch=1 n=e7 v=0
23640 On ch=1 n=c7 v=65
23744 On ch=1 n=c7 v=0
23760 On ch=1 n=f#6 v=60
23864 On ch=1 n=f#6 v=0
23880 On ch=1 n=c6 v=60
23984 On ch=1 n=c6 v=0
24000 On ch=1 n=e6 v=76
24104 On ch=1 n=e6 v=0
24120 On ch=1 n=c6 v=58
24224 On ch=1 n=c6 v=0
24240 On ch=1 n=f#5 v=52
24344 On ch=1 n=f#5 v=0
24360 On ch=1 n=c5 v=42
24464 On ch=1 n=c5 v=0
24480 On ch=1 n=e5 v=77
24584 On ch=1 n=e5 v=0
24600 On ch=1 n=c5 v=59
24704 On ch=1 n=c5 v=0
24720 On ch=1 n=f#4 v=57
24804 On ch=1 n=a3 v=0
24824 On ch=1 n=f#4 v=0
24840 On ch=1 n=c4 v=56
24848 On ch=1 n=a2 v=0
24908 Par ch=1 c=64 v=0
24944 On ch=1 n=c4 v=0
24972 On ch=1 n=g3 v=94
24976 On ch=1 n=g2 v=102
24984 Par ch=1 c=64 v=127
25080 On ch=1 n=c4 v=46
25184 On ch=1 n=c4 v=0
25200 On ch=1 n=g4 v=62
25304 On ch=1 n=g4 v=0
25320 On ch=1 n=c5 v=64
25424 On ch=1 n=c5 v=0
25440 On ch=1 n=d5 v=75
25544 On ch=1 n=d5 v=0
25560 On ch=1 n=c5 v=45
25664 On ch=1 n=c5 v=0
25680 On ch=1 n=g5 v=61
25784 On ch=1 n=g5 v=0
25800 On ch=1 n=c6 v=63
25904 On ch=1 n=c6 v=0
25920 On ch=1 n=d6 v=74
26024 On ch=1 n=d6 v=0
26040 On ch=1 n=c6 v=56
26144 On ch=1 n=c6 v=0
26160 On ch=1 n=g6 v=60
26264 On ch=1 n=g6 v=0
26280 On ch=1 n=c7 v=52
26384 On ch=1 n=c7 v=0
26400 On ch=1 n=d7 v=73
26504 On ch=1 n=d7 v=0
26520 On ch=1 n=c7 v=51
26624 On ch=1 n=c7 v=0
26640 On ch=1 n=g7 v=48
26744 On ch=1 n=g7 v=0
26760 On ch=1 n=c8 v=55
26780 Par ch=1 c=64 v=0
26864 On ch=1 n=c8 v=0
26880 On ch=1 n=d8 v=76
26884 Par ch=1 c=64 v=127
26984 On ch=1 n=d8 v=0
27000 On ch=1 n=b7 v=61
27104 On ch=1 n=b7 v=0
27120 On ch=1 n=g7 v=48
27224 On ch=1 n=g7 v=0
27240 On ch=1 n=b6 v=61
27344 On ch=1 n=b6 v=0
27360 On ch=1 n=d7 v=71
27464 On ch=1 n=d7 v=0
27480 On ch=1 n=b6 v=48
27584 On ch=1 n=b6 v=0
27600 On ch=1 n=g6 v=51
27704 On ch=1 n=g6 v=0
27720 On ch=1 n=b5 v=52
27824 On ch=1 n=b5 v=0
27840 On ch=1 n=d6 v=71
27944 On ch=1 n=d6 v=0
27960 On ch=1 n=b5 v=62
28064 On ch=1 n=b5 v=0
28080 On ch=1 n=g5 v=59
28184 On ch=1 n=g5 v=0
28200 On ch=1 n=b4 v=47
28304 On ch=1 n=b4 v=0
28320 On ch=1 n=d5 v=71
28424 On ch=1 n=d5 v=0
28440 On ch=1 n=b4 v=52
28544 On ch=1 n=b4 v=0
28560 On ch=1 n=g4 v=50
28592 On ch=1 n=g2 v=0
28632 On ch=1 n=g3 v=0
28664 On ch=1 n=g4 v=0
28680 On ch=1 n=b3 v=49
28732 Par ch=1 c=64 v=0
28784 On ch=1 n=b3 v=0
28784 On ch=1 n=c4 v=86
28792 On ch=1 n=c3 v=90
28812 Par ch=1 c=64 v=127
28920 On ch=1 n=d4 v=50
29024 On ch=1 n=d4 v=0
29040 On ch=1 n=g4 v=57
29144 On ch=1 n=g4 v=0
29160 On ch=1 n=d5 v=57
29264 On ch=1 n=d5 v=0
29280 On ch=1 n=e5 v=70
29384 On ch=1 n=e5 v=0
29400 On ch=1 n=d5 v=53
29504 On ch=1 n=d5 v=0
29520 On ch=1 n=g5 v=57
29624 On ch=1 n=g5 v=0
29640 On ch=1 n=d6 v=57
29744 On ch=1 n=d6 v=0
29760 On ch=1 n=e6 v=65
29864 On ch=1 n=e6 v=0
29880 On ch=1 n=d6 v=45
29984 On ch=1 n=d6 v=0
30000 On ch=1 n=g6 v=55
30104 On ch=1 n=g6 v=0
30120 On ch=1 n=d7 v=58
30224 On ch=1 n=d7 v=0
30240 On ch=1 n=e7 v=69
30344 On ch=1 n=e7 v=0
30360 On ch=1 n=d7 v=43
30464 On ch=1 n=d7 v=0
30480 On ch=1 n=g7 v=60
30584 On ch=1 n=g7 v=0
30600 On ch=1 n=d8 v=61
30620 Par ch=1 c=64 v=0
30704 On ch=1 n=d8 v=0
30712 Par ch=1 c=64 v=127
30720 On ch=1 n=e8 v=68
30824 On ch=1 n=e8 v=0
30840 On ch=1 n=c8 v=48
30944 On ch=1 n=c8 v=0
30960 On ch=1 n=g7 v=54
31064 On ch=1 n=g7 v=0
31080 On ch=1 n=c7 v=43
31184 On ch=1 n=c7 v=0
31200 On ch=1 n=e7 v=67
31304 On ch=1 n=e7 v=0
31320 On ch=1 n=c7 v=46
31424 On ch=1 n=c7 v=0
31440 On ch=1 n=g6 v=47
31544 On ch=1 n=g6 v=0
31560 On ch=1 n=c6 v=50
31664 On ch=1 n=c6 v=0
31680 On ch=1 n=e6 v=66
31784 On ch=1 n=e6 v=0
31800 On ch=1 n=c6 v=60
31904 On ch=1 n=c6 v=0
31920 On ch=1 n=g5 v=53
32024 On ch=1 n=g5 v=0
32040 On ch=1 n=c5 v=43
32144 On ch=1 n=c5 v=0
32160 On ch=1 n=e5 v=67
32264 On ch=1 n=e5 v=0
32280 On ch=1 n=c5 v=51
32308 On ch=1 n=c4 v=0
32384 On ch=1 n=c5 v=0
32400 On ch=1 n=g4 v=60
32504 On ch=1 n=g4 v=0
32520 On ch=1 n=c4 v=47
32592 Par ch=1 c=64 v=0
32616 On ch=1 n=c3 v=0
32624 On ch=1 n=c4 v=0
32660 Par ch=1 c=64 v=127
32672 On ch=1 n=a2 v=87
32672 On ch=1 n=a3 v=77
32760 On ch=1 n=e4 v=44
32864 On ch=1 n=e4 v=0
32880 On ch=1 n=c5 v=51
32984 On ch=1 n=c5 v=0
33000 On ch=1 n=e5 v=46
33104 On ch=1 n=e5 v=0
33120 On ch=1 n=f5 v=67
33224 On ch=1 n=f5 v=0
33240 On ch=1 n=e5 v=45
33344 On ch=1 n=e5 v=0
33360 On ch=1 n=c6 v=56
33464 On ch=1 n=c6 v=0
33480 On ch=1 n=e6 v=52
33584 On ch=1 n=e6 v=0
33600 On ch=1 n=f6 v=67
33704 On ch=1 n=f6 v=0
33720 On ch=1 n=e6 v=42
33824 On ch=1 n=e6 v=0
33840 On ch=1 n=c7 v=55
33944 On ch=1 n=c7 v=0
33960 On ch=1 n=e7 v=58
34064 On ch=1 n=e7 v=0
34080 On ch=1 n=f7 v=66
34184 On ch=1 n=f7 v=0
34200 On ch=1 n=e7 v=44
34304 On ch=1 n=e7 v=0
34320 On ch=1 n=c8 v=49
34388 On ch=1 n=a2 v=0
34424 On ch=1 n=c8 v=0
34440 On ch=1 n=e8 v=55
34452 On ch=1 n=a3 v=0
34520 Par ch=1 c=64 v=0
34544 On ch=1 n=e8 v=0
34560 On ch=1 n=f8 v=65
34580 On ch=1 n=b2 v=85
34580 On ch=1 n=b3 v=74
34580 Par ch=1 c=64 v=127
34664 On ch=1 n=f8 v=0
34680 On ch=1 n=d8 v=57
34784 On ch=1 n=d8 v=0
34800 On ch=1 n=b7 v=40
34904 On ch=1 n=b7 v=0
34920 On ch=1 n=d7 v=40
35024 On ch=1 n=d7 v=0
35040 On ch=1 n=f7 v=67
35144 On ch=1 n=f7 v=0
35160 On ch=1 n=d7 v=64
35264 On ch=1 n=d7 v=0
35280 On ch=1 n=b6 v=55
35380 On ch=1 n=b3 v=0
35384 On ch=1 n=b6 v=0
35400 On ch=1 n=d6 v=56
35504 On ch=1 n=d6 v=0
35520 On ch=1 n=f6 v=66
35556 On ch=1 n=a2 v=84
35556 On ch=1 n=a3 v=68
35588 On ch=1 n=b2 v=0
35624 On ch=1 n=f6 v=0
35640 On ch=1 n=d6 v=60
35744 On ch=1 n=d6 v=0
35760 On ch=1 n=b5 v=57
35864 On ch=1 n=b5 v=0
35880 On ch=1 n=d5 v=51
35984 On ch=1 n=d5 v=0
36000 On ch=1 n=f5 v=66
36104 On ch=1 n=f5 v=0
36120 On ch=1 n=d5 v=58
36224 On ch=1 n=d5 v=0
36240 On ch=1 n=b4 v=48
36308 On ch=1 n=a3 v=0
36344 On ch=1 n=b4 v=0
36360 On ch=1 n=d4 v=51
36440 Par ch=1 c=64 v=0
36464 On ch=1 n=d4 v=0
36472 On ch=1 n=a2 v=0
36508 On ch=1 n=g#2 v=80
36508 Par ch=1 c=64 v=127
36512 On ch=1 n=g#3 v=77
36600 On ch=1 n=d4 v=43
36704 On ch=1 n=d4 v=0
36720 On ch=1 n=b4 v=47
36824 On ch=1 n=b4 v=0
36840 On ch=1 n=d5 v=43
36944 On ch=1 n=d5 v=0
36960 On ch=1 n=e5 v=64
37064 On ch=1 n=e5 v=0
37080 On ch=1 n=d5 v=42
37184 On ch=1 n=d5 v=0
37200 On ch=1 n=b5 v=51
37304 On ch=1 n=b5 v=0
37320 On ch=1 n=d6 v=57
37424 On ch=1 n=d6 v=0
37440 On ch=1 n=e6 v=65
37544 On ch=1 n=e6 v=0
37560 On ch=1 n=d6 v=44
37664 On ch=1 n=d6 v=0
37680 On ch=1 n=b6 v=51
37784 On ch=1 n=b6 v=0
37800 On ch=1 n=d7 v=56
37904 On ch=1 n=d7 v=0
37920 On ch=1 n=e7 v=66
38024 On ch=1 n=e7 v=0
38040 On ch=1 n=d7 v=40
38144 On ch=1 n=d7 v=0
38160 On ch=1 n=b7 v=49
38264 On ch=1 n=b7 v=0
38268 On ch=1 n=g#2 v=0
38280 On ch=1 n=d8 v=43
38284 On ch=1 n=g#3 v=0
38380 Par ch=1 c=64 v=0
38384 On ch=1 n=d8 v=0
38396 On ch=1 n=a3 v=77
38400 On ch=1 n=e8 v=64
38404 On ch=1 n=a2 v=79
38440 Par ch=1 c=64 v=127
38504 On ch=1 n=e8 v=0
38520 On ch=1 n=c8 v=43
38624 On ch=1 n=c8 v=0
38640 On ch=1 n=a7 v=51
38744 On ch=1 n=a7 v=0
38760 On ch=1 n=c7 v=55
38864 On ch=1 n=c7 v=0
38880 On ch=1 n=e7 v=63
38984 On ch=1 n=e7 v=0
39000 On ch=1 n=c7 v=50
39104 On ch=1 n=c7 v=0
39120 On ch=1 n=a6 v=43
39196 On ch=1 n=a3 v=0
39224 On ch=1 n=a6 v=0
39240 On ch=1 n=c6 v=43
39344 On ch=1 n=c6 v=0
39360 On ch=1 n=e6 v=63
39368 On ch=1 n=g3 v=70
39372 On ch=1 n=a2 v=0
39376 On ch=1 n=g2 v=79
39464 On ch=1 n=e6 v=0
39480 On ch=1 n=c6 v=40
39584 On ch=1 n=c6 v=0
39600 On ch=1 n=a5 v=51
39704 On ch=1 n=a5 v=0
39720 On ch=1 n=c5 v=38
39824 On ch=1 n=c5 v=0
39840 On ch=1 n=e5 v=65
39944 On ch=1 n=e5 v=0
39960 On ch=1 n=c5 v=51
40064 On ch=1 n=c5 v=0
40080 On ch=1 n=a4 v=50
40184 On ch=1 n=a4 v=0
40200 On ch=1 n=c4 v=46
40232 On ch=1 n=g3 v=0
40272 Par ch=1 c=64 v=0
40304 On ch=1 n=c4 v=0
40328 On ch=1 n=g2 v=0
40348 Par ch=1 c=64 v=127
40352 On ch=1 n=f3 v=82
40356 On ch=1 n=f2 v=83
40440 On ch=1 n=c4 v=48
40544 On ch=1 n=c4 v=0
40560 On ch=1 n=a4 v=58
40664 On ch=1 n=a4 v=0
40680 On ch=1 n=c5 v=57
40784 On ch=1 n=c5 v=0
40800 On ch=1 n=e5 v=64
40904 On ch=1 n=e5 v=0
40920 On ch=1 n=c5 v=51
41024 On ch=1 n=c5 v=0
41040 On ch=1 n=a5 v=50
41144 On ch=1 n=a5 v=0
41160 On ch=1 n=c6 v=43
41264 On ch=1 n=c6 v=0
41280 On ch=1 n=e6 v=67
41384 On ch=1 n=e6 v=0
41400 On ch=1 n=c6 v=46
41504 On ch=1 n=c6 v=0
41520 On ch=1 n=a6 v=54
41624 On ch=1 n=a6 v=0
41640 On ch=1 n=c7 v=45
41744 On ch=1 n=c7 v=0
41760 On ch=1 n=e7 v=69
41864 On ch=1 n=e7 v=0
41880 On ch=1 n=c7 v=54
41984 On ch=1 n=c7 v=0
42000 On ch=1 n=a7 v=56
42104 On ch=1 n=a7 v=0
42120 On ch=1 n=c8 v=60
42208 Par ch=1 c=64 v=0
42224 On ch=1 n=c8 v=0
42240 On ch=1 n=d#8 v=68
42280 Par ch=1 c=64 v=127
42344 On ch=1 n=d#8 v=0
42360 On ch=1 n=b7 v=45
42464 On ch=1 n=b7 v=0
42480 On ch=1 n=a7 v=46
42584 On ch=1 n=a7 v=0
42600 On ch=1 n=b6 v=49
42704 On ch=1 n=b6 v=0
42720 On ch=1 n=d#7 v=74
42824 On ch=1 n=d#7 v=0
42840 On ch=1 n=b6 v=51
42944 On ch=1 n=b6 v=0
42960 On ch=1 n=a6 v=40
43064 On ch=1 n=a6 v=0
43080 On ch=1 n=b5 v=47
43184 On ch=1 n=b5 v=0
43200 On ch=1 n=d#6 v=72
43304 On ch=1 n=d#6 v=0
43320 On ch=1 n=b5 v=60
43424 On ch=1 n=b5 v=0
43440 On ch=1 n=a5 v=61
43544 On ch=1 n=a5 v=0
43560 On ch=1 n=b4 v=54
43664 On ch=1 n=b4 v=0
43680 On ch=1 n=d#5 v=76
43784 On ch=1 n=d#5 v=0
43800 On ch=1 n=b4 v=60
43904 On ch=1 n=b4 v=0
43920 On ch=1 n=a4 v=55
44004 On ch=1 n=f3 v=0
44024 On ch=1 n=a4 v=0
44040 On ch=1 n=b3 v=47
44104 On ch=1 n=f2 v=0
44128 Par ch=1 c=64 v=0
44144 On ch=1 n=b3 v=0
44164 On ch=1 n=e3 v=97
44176 On ch=1 n=e2 v=94
44200 Par ch=1 c=64 v=127
44280 On ch=1 n=b3 v=54
44384 On ch=1 n=b3 v=0
44400 On ch=1 n=a4 v=62
44504 On ch=1 n=a4 v=0
44520 On ch=1 n=b4 v=51
44624 On ch=1 n=b4 v=0
44640 On ch=1 n=e5 v=76
44744 On ch=1 n=e5 v=0
44760 On ch=1 n=b4 v=51
44864 On ch=1 n=b4 v=0
44880 On ch=1 n=a5 v=49
44984 On ch=1 n=a5 v=0
45000 On ch=1 n=b5 v=51
45104 On ch=1 n=b5 v=0
45120 On ch=1 n=e6 v=75
45224 On ch=1 n=e6 v=0
45240 On ch=1 n=b5 v=52
45344 On ch=1 n=b5 v=0
45360 On ch=1 n=a6 v=53
45464 On ch=1 n=a6 v=0
45480 On ch=1 n=b6 v=65
45584 On ch=1 n=b6 v=0
45600 On ch=1 n=e7 v=78
45704 On ch=1 n=e7 v=0
45720 On ch=1 n=b6 v=56
45824 On ch=1 n=b6 v=0
45840 On ch=1 n=a7 v=55
45944 On ch=1 n=a7 v=0
45956 Par ch=1 c=64 v=0
45960 On ch=1 n=b7 v=52
46044 Par ch=1 c=64 v=127
46064 On ch=1 n=b7 v=0
46080 On ch=1 n=e8 v=75
46184 On ch=1 n=e8 v=0
46200 On ch=1 n=b7 v=62
46304 On ch=1 n=b7 v=0
46320 On ch=1 n=g#7 v=69
46424 On ch=1 n=g#7 v=0
46440 On ch=1 n=b6 v=63
46544 On ch=1 n=b6 v=0
46560 On ch=1 n=e7 v=76
46664 On ch=1 n=e7 v=0
46680 On ch=1 n=b6 v=61
46784 On ch=1 n=b6 v=0
46800 On ch=1 n=g#6 v=67
46904 On ch=1 n=g#6 v=0
46920 On ch=1 n=b5 v=65
47024 On ch=1 n=b5 v=0
47040 On ch=1 n=e6 v=76
47144 On ch=1 n=e6 v=0
47160 On ch=1 n=b5 v=56
47264 On ch=1 n=b5 v=0
47280 On ch=1 n=g#5 v=57
47384 On ch=1 n=g#5 v=0
47400 On ch=1 n=b4 v=44
47504 On ch=1 n=b4 v=0
47520 On ch=1 n=e5 v=75
47624 On ch=1 n=e5 v=0
47640 On ch=1 n=b4 v=59
47684 On ch=1 n=e2 v=0
47724 On ch=1 n=e3 v=0
47744 On ch=1 n=b4 v=0
47760 On ch=1 n=g#4 v=61
47864 On ch=1 n=g#4 v=0
47880 On ch=1 n=b3 v=59
47944 Par ch=1 c=64 v=0
47984 On ch=1 n=b3 v=0
48012 On ch=1 n=a3 v=83
48016 Par ch=1 c=64 v=127
48028 On ch=1 n=a2 v=89
48120 On ch=1 n=e4 v=48
48224 On ch=1 n=e4 v=0
48240 On ch=1 n=a4 v=56
48344 On ch=1 n=a4 v=0
48360 On ch=1 n=c#5 v=54
48464 On ch=1 n=c#5 v=0
48480 On ch=1 n=g5 v=67
48584 On ch=1 n=g5 v=0
48600 On ch=1 n=e5 v=52
48704 On ch=1 n=e5 v=0
48720 On ch=1 n=a5 v=47
48824 On ch=1 n=a5 v=0
48840 On ch=1 n=c#6 v=53
48944 On ch=1 n=c#6 v=0
48960 On ch=1 n=g6 v=68
49064 On ch=1 n=g6 v=0
49080 On ch=1 n=e6 v=49
49184 On ch=1 n=e6 v=0
49200 On ch=1 n=a6 v=54
49304 On ch=1 n=a6 v=0
49320 On ch=1 n=c#7 v=51
49424 On ch=1 n=c#7 v=0
49440 On ch=1 n=g7 v=66
49544 On ch=1 n=g7 v=0
49560 On ch=1 n=c#7 v=55
49564 On ch=1 n=a2 v=0
49596 On ch=1 n=a3 v=0
49664 On ch=1 n=c#7 v=0
49680 On ch=1 n=a6 v=45
49784 On ch=1 n=a6 v=0
49800 On ch=1 n=e6 v=46
49836 Par ch=1 c=64 v=0
49904 On ch=1 n=e6 v=0
49904 Par ch=1 c=64 v=127
49920 On ch=1 n=g7 v=68
49924 On ch=1 n=d4 v=81
49932 On ch=1 n=d3 v=84
50024 On ch=1 n=g7 v=0
50040 On ch=1 n=c7 v=52
50144 On ch=1 n=c7 v=0
50160 On ch=1 n=a6 v=59
50264 On ch=1 n=a6 v=0
50280 On ch=1 n=e6 v=54
50384 On ch=1 n=e6 v=0
50400 On ch=1 n=g6 v=68
50504 On ch=1 n=g6 v=0
50520 On ch=1 n=c6 v=39
50624 On ch=1 n=c6 v=0
50640 On ch=1 n=a5 v=53
50744 On ch=1 n=a5 v=0
50760 On ch=1 n=e5 v=44
50864 On ch=1 n=e5 v=0
50880 On ch=1 n=g5 v=68
50984 On ch=1 n=g5 v=0
51000 On ch=1 n=c5 v=53
51104 On ch=1 n=c5 v=0
51120 On ch=1 n=a4 v=54
51224 On ch=1 n=a4 v=0
51240 On ch=1 n=e4 v=41
51272 Par ch=1 c=64 v=0
51344 On ch=1 n=e4 v=0
51352 Par ch=1 c=64 v=127
51360 On ch=1 n=f#5 v=67
51464 On ch=1 n=f#5 v=0
51480 On ch=1 n=c5 v=53
51484 On ch=1 n=d4 v=0
51536 On ch=1 n=d3 v=0
51584 On ch=1 n=c5 v=0
51600 On ch=1 n=a4 v=48
51704 On ch=1 n=a4 v=0
51720 On ch=1 n=d4 v=38
51784 Par ch=1 c=64 v=0
51824 On ch=1 n=d4 v=0
51832 Par ch=1 c=64 v=127
51836 On ch=1 n=g3 v=79
51848 On ch=1 n=g2 v=87
51960 On ch=1 n=d4 v=50
52064 On ch=1 n=d4 v=0
52080 On ch=1 n=g4 v=46
52184 On ch=1 n=g4 v=0
52200 On ch=1 n=c5 v=43
52304 On ch=1 n=c5 v=0
52320 On ch=1 n=f5 v=69
52424 On ch=1 n=f5 v=0
52440 On ch=1 n=d5 v=48
52544 On ch=1 n=d5 v=0
52560 On ch=1 n=g5 v=54
52664 On ch=1 n=g5 v=0
52680 On ch=1 n=c6 v=52
52784 On ch=1 n=c6 v=0
52800 On ch=1 n=f6 v=67
52904 On ch=1 n=f6 v=0
52920 On ch=1 n=d6 v=48
53024 On ch=1 n=d6 v=0
53040 On ch=1 n=g6 v=54
53144 On ch=1 n=g6 v=0
53160 On ch=1 n=c7 v=56
53264 On ch=1 n=c7 v=0
53280 On ch=1 n=f7 v=68
53384 On ch=1 n=f7 v=0
53400 On ch=1 n=d7 v=54
53504 On ch=1 n=d7 v=0
53520 On ch=1 n=g7 v=52
53624 On ch=1 n=g7 v=0
53640 On ch=1 n=c8 v=62
53688 Par ch=1 c=64 v=0
53744 On ch=1 n=c8 v=0
53752 Par ch=1 c=64 v=127
53760 On ch=1 n=f8 v=71
53864 On ch=1 n=f8 v=0
53880 On ch=1 n=b7 v=57
53984 On ch=1 n=b7 v=0
54000 On ch=1 n=g7 v=55
54104 On ch=1 n=g7 v=0
54120 On ch=1 n=d7 v=44
54224 On ch=1 n=d7 v=0
54240 On ch=1 n=f7 v=69
54344 On ch=1 n=f7 v=0
54360 On ch=1 n=b6 v=47
54464 On ch=1 n=b6 v=0
54480 On ch=1 n=g6 v=54
54584 On ch=1 n=g6 v=0
54600 On ch=1 n=d6 v=42
54704 On ch=1 n=d6 v=0
54720 On ch=1 n=f6 v=69
54824 On ch=1 n=f6 v=0
54840 On ch=1 n=b5 v=37
54944 On ch=1 n=b5 v=0
54960 On ch=1 n=g5 v=45
55064 On ch=1 n=g5 v=0
55080 On ch=1 n=d5 v=52
55184 On ch=1 n=d5 v=0
55200 On ch=1 n=f5 v=68
55224 On ch=1 n=g2 v=0
55252 On ch=1 n=g3 v=0
55304 On ch=1 n=f5 v=0
55320 On ch=1 n=b4 v=53
55424 On ch=1 n=b4 v=0
55440 On ch=1 n=g4 v=36
55544 On ch=1 n=g4 v=0
55560 On ch=1 n=d4 v=48
55628 Par ch=1 c=64 v=0
55664 On ch=1 n=d4 v=0
55684 On ch=1 n=c3 v=83
55688 On ch=1 n=c4 v=83
55688 Par ch=1 c=64 v=127
55772 On ch=1 n=c4 v=0
55800 On ch=1 n=c4 v=77
55920 On ch=1 n=g4 v=45
56024 On ch=1 n=g4 v=0
56040 On ch=1 n=a#4 v=42
56144 On ch=1 n=a#4 v=0
56160 On ch=1 n=e5 v=69
56264 On ch=1 n=e5 v=0
56280 On ch=1 n=c5 v=50
56384 On ch=1 n=c5 v=0
56400 On ch=1 n=g5 v=54
56504 On ch=1 n=g5 v=0
56520 On ch=1 n=a#5 v=49
56624 On ch=1 n=a#5 v=0
56640 On ch=1 n=e6 v=69
56744 On ch=1 n=e6 v=0
56760 On ch=1 n=c6 v=55
56864 On ch=1 n=c6 v=0
56880 On ch=1 n=g6 v=55
56984 On ch=1 n=g6 v=0
57000 On ch=1 n=a#6 v=50
57104 On ch=1 n=a#6 v=0
57120 On ch=1 n=e7 v=71
57224 On ch=1 n=e7 v=0
57240 On ch=1 n=c7 v=43
57296 On ch=1 n=c3 v=0
57328 On ch=1 n=c4 v=0
57344 On ch=1 n=c7 v=0
57360 On ch=1 n=g7 v=53
57464 On ch=1 n=g7 v=0
57480 On ch=1 n=a#7 v=49
57520 Par ch=1 c=64 v=0
57580 On ch=1 n=f#3 v=78
57584 On ch=1 n=a#7 v=0
57584 Par ch=1 c=64 v=127
57592 On ch=1 n=f#2 v=83
57600 On ch=1 n=d#8 v=67
57704 On ch=1 n=d#8 v=0
57720 On ch=1 n=a#7 v=44
57824 On ch=1 n=a#7 v=0
57840 On ch=1 n=d#7 v=46
57944 On ch=1 n=d#7 v=0
57960 On ch=1 n=c7 v=48
58064 On ch=1 n=c7 v=0
58080 On ch=1 n=d#7 v=68
58184 On ch=1 n=d#7 v=0
58200 On ch=1 n=a#6 v=50
58304 On ch=1 n=a#6 v=0
58320 On ch=1 n=d#6 v=42
58424 On ch=1 n=d#6 v=0
58440 On ch=1 n=c6 v=45
58544 On ch=1 n=c6 v=0
58560 On ch=1 n=d#6 v=68
58664 On ch=1 n=d#6 v=0
58680 On ch=1 n=a#5 v=46
58784 On ch=1 n=a#5 v=0
58800 On ch=1 n=d#5 v=51
58904 On ch=1 n=d#5 v=0
58920 On ch=1 n=c5 v=46
59024 On ch=1 n=c5 v=0
59040 On ch=1 n=d#5 v=67
59144 On ch=1 n=d#5 v=0
59160 On ch=1 n=a#4 v=48
59264 On ch=1 n=a#4 v=0
59280 On ch=1 n=d#4 v=54
59384 On ch=1 n=d#4 v=0
59400 On ch=1 n=c4 v=52
59408 On ch=1 n=f#3 v=0
59412 On ch=1 n=f#2 v=0
59468 Par ch=1 c=64 v=0
59504 On ch=1 n=c4 v=0
59528 Par ch=1 c=64 v=127
59532 On ch=1 n=f3 v=86
59536 On ch=1 n=f2 v=76
59640 On ch=1 n=c4 v=48
59744 On ch=1 n=c4 v=0
59760 On ch=1 n=d#4 v=47
59864 On ch=1 n=d#4 v=0
59880 On ch=1 n=a4 v=48
59984 On ch=1 n=a4 v=0
60000 On ch=1 n=d#5 v=69
60104 On ch=1 n=d#5 v=0
60120 On ch=1 n=c5 v=46
60224 On ch=1 n=c5 v=0
60240 On ch=1 n=d#5 v=50
60344 On ch=1 n=d#5 v=0
60360 On ch=1 n=a5 v=46
60464 On ch=1 n=a5 v=0
60480 On ch=1 n=d#6 v=69
60584 On ch=1 n=d#6 v=0
60600 On ch=1 n=c6 v=52
60704 On ch=1 n=c6 v=0
60720 On ch=1 n=d#6 v=52
60824 On ch=1 n=d#6 v=0
60840 On ch=1 n=a6 v=48
60944 On ch=1 n=a6 v=0
60960 On ch=1 n=d#7 v=69
61064 On ch=1 n=d#7 v=0
61080 On ch=1 n=c7 v=48
61156 On ch=1 n=f2 v=0
61184 On ch=1 n=c7 v=0
61196 On ch=1 n=f3 v=0
61200 On ch=1 n=d#7 v=51
61304 On ch=1 n=d#7 v=0
61320 On ch=1 n=a7 v=53
61372 Par ch=1 c=64 v=0
61424 On ch=1 n=a7 v=0
61440 On ch=1 n=d#8 v=67
61440 Par ch=1 c=64 v=127
61464 On ch=1 n=b2 v=79
61464 On ch=1 n=b3 v=84
61544 On ch=1 n=d#8 v=0
61560 On ch=1 n=g#7 v=50
61664 On ch=1 n=g#7 v=0
61680 On ch=1 n=d#7 v=50
61784 On ch=1 n=d#7 v=0
61800 On ch=1 n=b6 v=58
61904 On ch=1 n=b6 v=0
61920 On ch=1 n=d#7 v=68
62024 On ch=1 n=d#7 v=0
62040 On ch=1 n=g#6 v=62
62144 On ch=1 n=g#6 v=0
62160 On ch=1 n=d#6 v=57
62264 On ch=1 n=d#6 v=0
62280 On ch=1 n=b5 v=53
62384 On ch=1 n=b5 v=0
62400 On ch=1 n=d#6 v=65
62504 On ch=1 n=d#6 v=0
62520 On ch=1 n=g#5 v=50
62624 On ch=1 n=g#5 v=0
62640 On ch=1 n=d#5 v=45
62744 On ch=1 n=d#5 v=0
62760 On ch=1 n=b4 v=52
62864 On ch=1 n=b4 v=0
62880 On ch=1 n=d#5 v=69
62984 On ch=1 n=d#5 v=0
63000 On ch=1 n=g#4 v=59
63104 On ch=1 n=g#4 v=0
63120 On ch=1 n=d#4 v=65
63168 On ch=1 n=b3 v=0
63224 On ch=1 n=d#4 v=0
63224 On ch=1 n=b2 v=0
63240 On ch=1 n=b3 v=54
63316 Par ch=1 c=64 v=0
63344 On ch=1 n=b3 v=0
63376 On ch=1 n=a#2 v=90
63376 Par ch=1 c=64 v=127
63480 On ch=1 n=a#3 v=62
63584 On ch=1 n=a#3 v=0
63600 On ch=1 n=f4 v=56
63704 On ch=1 n=f4 v=0
63720 On ch=1 n=g#4 v=53
63824 On ch=1 n=g#4 v=0
63840 On ch=1 n=d5 v=66
63944 On ch=1 n=d5 v=0
63960 On ch=1 n=a#4 v=51
64064 On ch=1 n=a#4 v=0
64080 On ch=1 n=f5 v=58
64184 On ch=1 n=f5 v=0
64200 On ch=1 n=g#5 v=65
64304 On ch=1 n=g#5 v=0
64320 On ch=1 n=d6 v=70
64424 On ch=1 n=d6 v=0
64440 On ch=1 n=a#5 v=63
64544 On ch=1 n=a#5 v=0
64560 On ch=1 n=f6 v=63
64664 On ch=1 n=f6 v=0
64680 On ch=1 n=g#6 v=63
64784 On ch=1 n=g#6 v=0
64800 On ch=1 n=d7 v=69
64904 On ch=1 n=d7 v=0
64920 On ch=1 n=a#6 v=51
65024 On ch=1 n=a#6 v=0
65040 On ch=1 n=f7 v=63
65144 On ch=1 n=f7 v=0
65160 On ch=1 n=g#7 v=59
65192 Par ch=1 c=64 v=0
65264 On ch=1 n=g#7 v=0
65280 On ch=1 n=d8 v=69
65284 Par ch=1 c=64 v=127
65304 On ch=1 n=a#3 v=91
65384 On ch=1 n=d8 v=0
65400 On ch=1 n=g#7 v=54
65504 On ch=1 n=g#7 v=0
65520 On ch=1 n=e7 v=62
65624 On ch=1 n=e7 v=0
65640 On ch=1 n=a#6 v=52
65744 On ch=1 n=a#6 v=0
65760 On ch=1 n=d7 v=72
65864 On ch=1 n=d7 v=0
65880 On ch=1 n=g#6 v=46
65984 On ch=1 n=g#6 v=0
66000 On ch=1 n=e6 v=58
66104 On ch=1 n=e6 v=0
66120 On ch=1 n=a#5 v=52
66224 On ch=1 n=a#5 v=0
66240 On ch=1 n=d6 v=73
66344 On ch=1 n=d6 v=0
66360 On ch=1 n=g#5 v=69
66464 On ch=1 n=g#5 v=0
66480 On ch=1 n=e5 v=63
66584 On ch=1 n=e5 v=0
66600 On ch=1 n=a#4 v=51
66704 On ch=1 n=a#4 v=0
66720 On ch=1 n=d5 v=71
66824 On ch=1 n=d5 v=0
66840 On ch=1 n=g#4 v=60
66944 On ch=1 n=g#4 v=0
66960 On ch=1 n=e4 v=66
67040 On ch=1 n=a#3 v=0
67044 On ch=1 n=a#2 v=0
67064 On ch=1 n=e4 v=0
67080 On ch=1 n=a#3 v=66
67184 On ch=1 n=a#3 v=0
67188 Par ch=1 c=64 v=0
67192 On ch=1 n=a3 v=94
67196 On ch=1 n=a2 v=89
67260 Par ch=1 c=64 v=127
67268 Par ch=1 c=64 v=126
67284 On ch=1 n=a3 v=0
67320 On ch=1 n=a3 v=83
67440 On ch=1 n=e4 v=64
67544 On ch=1 n=e4 v=0
67560 On ch=1 n=a4 v=53
67664 On ch=1 n=a4 v=0
67680 On ch=1 n=c#5 v=78
67784 On ch=1 n=c#5 v=0
67800 On ch=1 n=a4 v=50
67904 On ch=1 n=a4 v=0
67920 On ch=1 n=e5 v=60
68024 On ch=1 n=e5 v=0
68040 On ch=1 n=a5 v=68
68144 On ch=1 n=a5 v=0
68160 On ch=1 n=c#6 v=76
68264 On ch=1 n=c#6 v=0
68280 On ch=1 n=a5 v=58
68384 On ch=1 n=a5 v=0
68400 On ch=1 n=e6 v=56
68504 On ch=1 n=e6 v=0
68520 On ch=1 n=a6 v=55
68624 On ch=1 n=a6 v=0
68640 On ch=1 n=c#7 v=76
68744 On ch=1 n=c#7 v=0
68760 On ch=1 n=a6 v=62
68864 On ch=1 n=a6 v=0
68880 On ch=1 n=e7 v=70
68984 On ch=1 n=e7 v=0
69000 On ch=1 n=a7 v=68
69104 On ch=1 n=a7 v=0
69120 On ch=1 n=c#8 v=79
69224 On ch=1 n=c#8 v=0
69240 On ch=1 n=a7 v=60
69344 On ch=1 n=a7 v=0
69360 On ch=1 n=e7 v=67
69464 On ch=1 n=e7 v=0
69480 On ch=1 n=a6 v=62
69584 On ch=1 n=a6 v=0
69600 On ch=1 n=c#7 v=77
69704 On ch=1 n=c#7 v=0
69720 On ch=1 n=a6 v=63
69824 On ch=1 n=a6 v=0
69840 On ch=1 n=e6 v=65
69944 On ch=1 n=e6 v=0
69960 On ch=1 n=a5 v=62
70064 On ch=1 n=a5 v=0
70080 On ch=1 n=c#6 v=75
70184 On ch=1 n=c#6 v=0
70200 On ch=1 n=a5 v=63
70304 On ch=1 n=a5 v=0
70320 On ch=1 n=e5 v=60
70424 On ch=1 n=e5 v=0
70440 On ch=1 n=a4 v=49
70544 On ch=1 n=a4 v=0
70560 On ch=1 n=c#5 v=77
70624 On ch=1 n=a3 v=0
70664 On ch=1 n=c#5 v=0
70680 On ch=1 n=a4 v=62
70784 On ch=1 n=a4 v=0
70800 On ch=1 n=e4 v=63
70896 On ch=1 n=a2 v=0
70904 On ch=1 n=e4 v=0
70920 On ch=1 n=a3 v=56
70988 Par ch=1 c=64 v=0
71024 On ch=1 n=a3 v=0
71052 On ch=1 n=d3 v=95
71064 Par ch=1 c=64 v=127
71160 On ch=1 n=a3 v=49
71264 On ch=1 n=a3 v=0
71280 On ch=1 n=d4 v=65
71384 On ch=1 n=d4 v=0
71400 On ch=1 n=f#4 v=58
71504 On ch=1 n=f#4 v=0
71520 On ch=1 n=c5 v=76
71624 On ch=1 n=c5 v=0
71640 On ch=1 n=a4 v=53
71744 On ch=1 n=a4 v=0
71760 On ch=1 n=d5 v=68
71864 On ch=1 n=d5 v=0
71880 On ch=1 n=f#5 v=59
71984 On ch=1 n=f#5 v=0
72000 On ch=1 n=c6 v=76
72104 On ch=1 n=c6 v=0
72120 On ch=1 n=a5 v=57
72224 On ch=1 n=a5 v=0
72240 On ch=1 n=d6 v=65
72344 On ch=1 n=d6 v=0
72360 On ch=1 n=f#6 v=60
72464 On ch=1 n=f#6 v=0
72480 On ch=1 n=c7 v=75
72584 On ch=1 n=c7 v=0
72600 On ch=1 n=a6 v=55
72704 On ch=1 n=a6 v=0
72720 On ch=1 n=d7 v=58
72824 On ch=1 n=d7 v=0
72824 On ch=1 n=d3 v=0
72840 On ch=1 n=f#7 v=64
72900 Par ch=1 c=64 v=0
72944 On ch=1 n=f#7 v=0
72944 On ch=1 n=g2 v=83
72952 On ch=1 n=g3 v=84
72960 On ch=1 n=c8 v=76
72968 Par ch=1 c=64 v=127
73064 On ch=1 n=c8 v=0
73080 On ch=1 n=f7 v=63
73184 On ch=1 n=f7 v=0
73200 On ch=1 n=d7 v=63
73304 On ch=1 n=d7 v=0
73320 On ch=1 n=g6 v=53
73424 On ch=1 n=g6 v=0
73440 On ch=1 n=c7 v=77
73544 On ch=1 n=c7 v=0
73560 On ch=1 n=f6 v=57
73664 On ch=1 n=f6 v=0
73680 On ch=1 n=d6 v=59
73784 On ch=1 n=d6 v=0
73800 On ch=1 n=g5 v=58
73904 On ch=1 n=g5 v=0
73920 On ch=1 n=c6 v=81
74024 On ch=1 n=c6 v=0
74040 On ch=1 n=f5 v=51
74144 On ch=1 n=f5 v=0
74160 On ch=1 n=d5 v=58
74264 On ch=1 n=d5 v=0
74280 On ch=1 n=g4 v=62
74344 Par ch=1 c=64 v=0
74384 On ch=1 n=g4 v=0
74400 On ch=1 n=b4 v=80
74404 Par ch=1 c=64 v=127
74504 On ch=1 n=b4 v=0
74520 On ch=1 n=f4 v=66
74624 On ch=1 n=f4 v=0
74640 On ch=1 n=d4 v=54
74684 On ch=1 n=g3 v=0
74744 On ch=1 n=d4 v=0
74760 On ch=1 n=g3 v=54
74804 On ch=1 n=g2 v=0
74832 Par ch=1 c=64 v=0
74864 On ch=1 n=g3 v=0
74880 Par ch=1 c=64 v=127
74904 On ch=1 n=c3 v=86
75000 On ch=1 n=g3 v=45
75104 On ch=1 n=g3 v=0
75120 On ch=1 n=c4 v=58
75224 On ch=1 n=c4 v=0
75240 On ch=1 n=e4 v=47
75344 On ch=1 n=e4 v=0
75360 On ch=1 n=b4 v=73
75464 On ch=1 n=b4 v=0
75480 On ch=1 n=g4 v=44
75584 On ch=1 n=g4 v=0
75600 On ch=1 n=c5 v=54
75704 On ch=1 n=c5 v=0
75720 On ch=1 n=e5 v=57
75824 On ch=1 n=e5 v=0
75840 On ch=1 n=b5 v=75
75944 On ch=1 n=b5 v=0
75960 On ch=1 n=g5 v=50
76064 On ch=1 n=g5 v=0
76080 On ch=1 n=c6 v=61
76184 On ch=1 n=c6 v=0
76200 On ch=1 n=e6 v=57
76304 On ch=1 n=e6 v=0
76320 On ch=1 n=b6 v=76
76424 On ch=1 n=b6 v=0
76440 On ch=1 n=g6 v=52
76544 On ch=1 n=g6 v=0
76560 On ch=1 n=c7 v=48
76664 On ch=1 n=c7 v=0
76680 On ch=1 n=e7 v=49
76740 On ch=1 n=c3 v=0
76780 Par ch=1 c=64 v=0
76784 On ch=1 n=e7 v=0
76800 On ch=1 n=b7 v=74
76816 On ch=1 n=f2 v=78
76824 On ch=1 n=f3 v=80
76848 Par ch=1 c=64 v=127
76904 On ch=1 n=b7 v=0
76920 On ch=1 n=e7 v=53
77024 On ch=1 n=e7 v=0
77040 On ch=1 n=c7 v=58
77144 On ch=1 n=c7 v=0
77160 On ch=1 n=f6 v=46
77264 On ch=1 n=f6 v=0
77280 On ch=1 n=b6 v=75
77384 On ch=1 n=b6 v=0
77400 On ch=1 n=e6 v=60
77504 On ch=1 n=e6 v=0
77520 On ch=1 n=c6 v=59
77624 On ch=1 n=c6 v=0
77640 On ch=1 n=f5 v=52
77744 On ch=1 n=f5 v=0
77760 On ch=1 n=b5 v=73
77864 On ch=1 n=b5 v=0
77880 On ch=1 n=e5 v=60
77984 On ch=1 n=e5 v=0
78000 On ch=1 n=c5 v=44
78104 On ch=1 n=c5 v=0
78120 On ch=1 n=f4 v=59
78148 Par ch=1 c=64 v=0
78208 Par ch=1 c=64 v=127
78224 On ch=1 n=f4 v=0
78240 On ch=1 n=a4 v=69
78344 On ch=1 n=a4 v=0
78360 On ch=1 n=e4 v=55
78464 On ch=1 n=e4 v=0
78480 On ch=1 n=c4 v=62
78532 On ch=1 n=f3 v=0
78584 On ch=1 n=c4 v=0
78600 On ch=1 n=f3 v=55
78632 Par ch=1 c=64 v=0
78684 On ch=1 n=f2 v=0
78692 Par ch=1 c=64 v=127
78704 On ch=1 n=f3 v=0
78728 On ch=1 n=b2 v=82
78840 On ch=1 n=f3 v=48
78944 On ch=1 n=f3 v=0
78960 On ch=1 n=b3 v=59
79064 On ch=1 n=b3 v=0
79080 On ch=1 n=d4 v=54
79184 On ch=1 n=d4 v=0
79200 On ch=1 n=a4 v=72
79304 On ch=1 n=a4 v=0
79320 On ch=1 n=f4 v=55
79424 On ch=1 n=f4 v=0
79440 On ch=1 n=b4 v=60
79544 On ch=1 n=b4 v=0
79560 On ch=1 n=d5 v=57
79664 On ch=1 n=d5 v=0
79680 On ch=1 n=a5 v=67
79784 On ch=1 n=a5 v=0
79800 On ch=1 n=f5 v=50
79904 On ch=1 n=f5 v=0
79920 On ch=1 n=b5 v=56
80024 On ch=1 n=b5 v=0
80040 On ch=1 n=d6 v=56
80144 On ch=1 n=d6 v=0
80160 On ch=1 n=a6 v=67
80264 On ch=1 n=a6 v=0
80280 On ch=1 n=f6 v=52
80384 On ch=1 n=f6 v=0
80400 On ch=1 n=b6 v=53
80504 On ch=1 n=b6 v=0
80520 On ch=1 n=d7 v=59
80544 On ch=1 n=b2 v=0
80544 Par ch=1 c=64 v=0
80620 On ch=1 n=e2 v=85
80620 On ch=1 n=e3 v=94
80624 On ch=1 n=d7 v=0
80628 Par ch=1 c=64 v=127
80640 On ch=1 n=g7 v=66
80744 On ch=1 n=g7 v=0
80760 On ch=1 n=d7 v=54
80864 On ch=1 n=d7 v=0
80880 On ch=1 n=b6 v=55
80984 On ch=1 n=b6 v=0
81000 On ch=1 n=e6 v=51
81104 On ch=1 n=e6 v=0
81120 On ch=1 n=g6 v=67
81224 On ch=1 n=g6 v=0
81240 On ch=1 n=d6 v=54
81308 On ch=1 n=e2 v=0
81344 On ch=1 n=d6 v=0
81352 On ch=1 n=e3 v=0
81360 On ch=1 n=b5 v=56
81464 On ch=1 n=b5 v=0
81480 On ch=1 n=e5 v=53
81492 Par ch=1 c=64 v=0
81584 On ch=1 n=e5 v=0
81584 Par ch=1 c=64 v=127
81600 On ch=1 n=a5 v=55
81608 On ch=1 n=a3 v=88
81612 On ch=1 n=a2 v=90
81704 On ch=1 n=a5 v=0
81720 On ch=1 n=c6 v=52
81824 On ch=1 n=c6 v=0
81840 On ch=1 n=g6 v=59
81944 On ch=1 n=g6 v=0
81960 On ch=1 n=e6 v=50
82064 On ch=1 n=e6 v=0
82080 On ch=1 n=a6 v=55
82184 On ch=1 n=a6 v=0
82200 On ch=1 n=c7 v=46
82248 On ch=1 n=a3 v=0
82304 On ch=1 n=c7 v=0
82312 On ch=1 n=a2 v=0
82320 On ch=1 n=g7 v=64
82424 On ch=1 n=g7 v=0
82440 On ch=1 n=e7 v=55
82468 Par ch=1 c=64 v=0
82536 Par ch=1 c=64 v=127
82544 On ch=1 n=e7 v=0
82560 On ch=1 n=f7 v=71
82584 On ch=1 n=d3 v=86
82600 On ch=1 n=d2 v=88
82664 On ch=1 n=f7 v=0
82680 On ch=1 n=c7 v=51
82784 On ch=1 n=c7 v=0
82800 On ch=1 n=a6 v=60
82904 On ch=1 n=a6 v=0
82920 On ch=1 n=d6 v=55
83024 On ch=1 n=d6 v=0
83040 On ch=1 n=f6 v=75
83144 On ch=1 n=f6 v=0
83160 On ch=1 n=c6 v=61
83256 On ch=1 n=d2 v=0
83264 On ch=1 n=c6 v=0
83276 On ch=1 n=d3 v=0
83280 On ch=1 n=a5 v=49
83384 On ch=1 n=a5 v=0
83400 On ch=1 n=d5 v=51
83428 Par ch=1 c=64 v=0
83504 On ch=1 n=d5 v=0
83520 On ch=1 n=g5 v=49
83524 Par ch=1 c=64 v=127
83564 On ch=1 n=g3 v=88
83572 On ch=1 n=g2 v=94
83624 On ch=1 n=g5 v=0
83640 On ch=1 n=b5 v=48
83744 On ch=1 n=b5 v=0
83760 On ch=1 n=f6 v=62
83864 On ch=1 n=f6 v=0
83880 On ch=1 n=d6 v=56
83984 On ch=1 n=d6 v=0
84000 On ch=1 n=g6 v=57
84104 On ch=1 n=g6 v=0
84120 On ch=1 n=b6 v=57
84148 On ch=1 n=g3 v=0
84196 On ch=1 n=g2 v=0
84224 On ch=1 n=b6 v=0
84240 On ch=1 n=f7 v=71
84344 On ch=1 n=f7 v=0
84360 On ch=1 n=d7 v=59
84400 Par ch=1 c=64 v=0
84464 On ch=1 n=d7 v=0
84480 On ch=1 n=e7 v=74
84484 Par ch=1 c=64 v=127
84500 On ch=1 n=c3 v=90
84504 On ch=1 n=c2 v=88
84584 On ch=1 n=e7 v=0
84600 On ch=1 n=b6 v=47
84704 On ch=1 n=b6 v=0
84720 On ch=1 n=g6 v=57
84824 On ch=1 n=g6 v=0
84840 On ch=1 n=c6 v=51
84944 On ch=1 n=c6 v=0
84960 On ch=1 n=e6 v=74
85020 On ch=1 n=c2 v=0
85044 On ch=1 n=c3 v=0
85064 On ch=1 n=e6 v=0
85080 On ch=1 n=b5 v=61
85184 On ch=1 n=b5 v=0
85200 On ch=1 n=g5 v=62
85304 On ch=1 n=g5 v=0
85320 On ch=1 n=c5 v=50
85344 Par ch=1 c=64 v=0
85412 Par ch=1 c=64 v=127
85424 On ch=1 n=c5 v=0
85440 On ch=1 n=f5 v=56
85440 On ch=1 n=f3 v=93
85448 On ch=1 n=f2 v=84
85544 On ch=1 n=f5 v=0
85560 On ch=1 n=a5 v=53
85664 On ch=1 n=a5 v=0
85680 On ch=1 n=e6 v=56
85784 On ch=1 n=e6 v=0
85800 On ch=1 n=c6 v=57
85904 On ch=1 n=c6 v=0
85920 On ch=1 n=f6 v=62
86024 On ch=1 n=f6 v=0
86040 On ch=1 n=a6 v=55
86144 On ch=1 n=a6 v=0
86160 On ch=1 n=e7 v=75
86204 On ch=1 n=f2 v=0
86240 On ch=1 n=f3 v=0
86264 On ch=1 n=e7 v=0
86280 On ch=1 n=c7 v=61
86292 Par ch=1 c=64 v=0
86380 Par ch=1 c=64 v=127
86384 On ch=1 n=c7 v=0
86400 On ch=1 n=d7 v=80
86424 On ch=1 n=b3 v=90
86424 On ch=1 n=b2 v=97
86504 On ch=1 n=d7 v=0
86520 On ch=1 n=a6 v=66
86624 On ch=1 n=a6 v=0
86640 On ch=1 n=f6 v=60
86744 On ch=1 n=f6 v=0
86760 On ch=1 n=b5 v=61
86864 On ch=1 n=b5 v=0
86880 On ch=1 n=d6 v=77
86984 On ch=1 n=d6 v=0
87000 On ch=1 n=a5 v=63
87104 On ch=1 n=a5 v=0
87120 On ch=1 n=f5 v=52
87224 On ch=1 n=f5 v=0
87240 On ch=1 n=b4 v=50
87344 On ch=1 n=b4 v=0
87360 On ch=1 n=d5 v=77
87464 On ch=1 n=d5 v=0
87480 On ch=1 n=a4 v=62
87584 On ch=1 n=a4 v=0
87600 On ch=1 n=f4 v=60
87652 On ch=1 n=b3 v=0
87704 On ch=1 n=f4 v=0
87712 Par ch=1 c=64 v=0
87720 On ch=1 n=b3 v=59
87760 On ch=1 n=b2 v=0
87804 Par ch=1 c=64 v=127
87824 On ch=1 n=b3 v=0
87856 On ch=1 n=b2 v=99
88320 On ch=1 n=d#7 v=79
88332 On ch=1 n=b3 v=93
88424 On ch=1 n=d#7 v=0
88440 On ch=1 n=a6 v=74
88544 On ch=1 n=a6 v=0
88560 On ch=1 n=f#6 v=69
88664 On ch=1 n=f#6 v=0
88680 On ch=1 n=b5 v=70
88784 On ch=1 n=b5 v=0
88800 On ch=1 n=d#6 v=80
88904 On ch=1 n=d#6 v=0
88920 On ch=1 n=a5 v=66
89024 On ch=1 n=a5 v=0
89040 On ch=1 n=f#5 v=65
89144 On ch=1 n=f#5 v=0
89160 On ch=1 n=b4 v=62
89264 On ch=1 n=b4 v=0
89280 On ch=1 n=d#5 v=78
89384 On ch=1 n=d#5 v=0
89400 On ch=1 n=a4 v=65
89504 On ch=1 n=a4 v=0
89520 On ch=1 n=f#4 v=65
89564 On ch=1 n=b3 v=0
89624 On ch=1 n=f#4 v=0
89640 On ch=1 n=b2 v=0
89640 On ch=1 n=b3 v=57
89684 Par ch=1 c=64 v=0
89744 On ch=1 n=b3 v=0
89752 Par ch=1 c=64 v=127
89764 On ch=1 n=b2 v=97
90248 On ch=1 n=e2 v=85
90248 On ch=1 n=e3 v=94
90264 On ch=1 n=b2 v=0
90360 On ch=1 n=b3 v=57
90464 On ch=1 n=b3 v=0
90480 On ch=1 n=e4 v=68
90584 On ch=1 n=e4 v=0
90600 On ch=1 n=g#4 v=62
90704 On ch=1 n=g#4 v=0
90720 On ch=1 n=e5 v=77
90824 On ch=1 n=e5 v=0
90840 On ch=1 n=b4 v=56
90944 On ch=1 n=b4 v=0
90960 On ch=1 n=e5 v=58
91064 On ch=1 n=e5 v=0
91080 On ch=1 n=g#5 v=66
91184 On ch=1 n=g#5 v=0
91200 On ch=1 n=e6 v=79
91304 On ch=1 n=e6 v=0
91320 On ch=1 n=b5 v=56
91424 On ch=1 n=b5 v=0
91440 On ch=1 n=e6 v=70
91544 On ch=1 n=e6 v=0
91560 On ch=1 n=g#6 v=64
91664 On ch=1 n=g#6 v=0
91680 On ch=1 n=e7 v=78
91784 On ch=1 n=e7 v=0
91800 On ch=1 n=b6 v=56
91904 On ch=1 n=b6 v=0
91920 On ch=1 n=e7 v=62
92024 On ch=1 n=e7 v=0
92040 On ch=1 n=g#7 v=58
92144 On ch=1 n=g#7 v=0
92160 On ch=1 n=e8 v=75
92264 On ch=1 n=e8 v=0
92280 On ch=1 n=g#7 v=52
92384 On ch=1 n=g#7 v=0
92400 On ch=1 n=e7 v=56
92504 On ch=1 n=e7 v=0
92520 On ch=1 n=b6 v=61
92624 On ch=1 n=b6 v=0
92640 On ch=1 n=e7 v=79
92744 On ch=1 n=e7 v=0
92760 On ch=1 n=g#6 v=59
92864 On ch=1 n=g#6 v=0
92880 On ch=1 n=e6 v=55
92984 On ch=1 n=e6 v=0
93000 On ch=1 n=b5 v=60
93104 On ch=1 n=b5 v=0
93120 On ch=1 n=e6 v=80
93224 On ch=1 n=e6 v=0
93240 On ch=1 n=g#5 v=60
93344 On ch=1 n=g#5 v=0
93360 On ch=1 n=e5 v=61
93432 On ch=1 n=e3 v=0
93444 On ch=1 n=e2 v=0
93464 On ch=1 n=e5 v=0
93480 On ch=1 n=b4 v=62
93492 Par ch=1 c=64 v=0
93564 Par ch=1 c=64 v=127
93584 On ch=1 n=b4 v=0
93592 On ch=1 n=d3 v=88
93600 On ch=1 n=f5 v=77
93600 On ch=1 n=d2 v=88
93704 On ch=1 n=f5 v=0
93720 On ch=1 n=b4 v=69
93824 On ch=1 n=b4 v=0
93840 On ch=1 n=g4 v=70
93944 On ch=1 n=g4 v=0
93960 On ch=1 n=d4 v=62
94000 Par ch=1 c=64 v=0
94012 On ch=1 n=d3 v=0
94064 On ch=1 n=d4 v=0
94076 On ch=1 n=d2 v=0
94088 Par ch=1 c=64 v=127
94136 On ch=1 n=c3 v=93
94144 On ch=1 n=c2 v=90
94200 On ch=1 n=c4 v=68
94304 On ch=1 n=c4 v=0
94320 On ch=1 n=g4 v=69
94424 On ch=1 n=g4 v=0
94440 On ch=1 n=c5 v=59
94544 On ch=1 n=c5 v=0
94560 On ch=1 n=e5 v=77
94664 On ch=1 n=e5 v=0
94680 On ch=1 n=c5 v=62
94784 On ch=1 n=c5 v=0
94800 On ch=1 n=g5 v=62
94904 On ch=1 n=g5 v=0
94920 On ch=1 n=c6 v=67
95024 On ch=1 n=c6 v=0
95040 On ch=1 n=e6 v=79
95144 On ch=1 n=e6 v=0
95160 On ch=1 n=c6 v=56
95264 On ch=1 n=c6 v=0
95280 On ch=1 n=g6 v=58
95384 On ch=1 n=g6 v=0
95400 On ch=1 n=c7 v=63
95480 On ch=1 n=c2 v=0
95504 On ch=1 n=c7 v=0
95520 On ch=1 n=e7 v=77
95624 On ch=1 n=e7 v=0
95640 On ch=1 n=c7 v=59
95744 On ch=1 n=c7 v=0
95760 On ch=1 n=g7 v=63
95864 On ch=1 n=g7 v=0
95880 On ch=1 n=c8 v=63
95984 On ch=1 n=c8 v=0
96000 On ch=1 n=e8 v=78
96020 On ch=1 n=c4 v=99
96104 On ch=1 n=e8 v=0
96120 On ch=1 n=c8 v=65
96224 On ch=1 n=c8 v=0
96240 On ch=1 n=g7 v=66
96344 On ch=1 n=g7 v=0
96360 On ch=1 n=c7 v=58
96464 On ch=1 n=c7 v=0
96480 On ch=1 n=e7 v=81
96584 On ch=1 n=e7 v=0
96600 On ch=1 n=c7 v=54
96704 On ch=1 n=c7 v=0
96720 On ch=1 n=g6 v=55
96824 On ch=1 n=g6 v=0
96840 On ch=1 n=c6 v=56
96944 On ch=1 n=c6 v=0
96960 On ch=1 n=e6 v=80
97064 On ch=1 n=e6 v=0
97080 On ch=1 n=c6 v=55
97184 On ch=1 n=c6 v=0
97200 On ch=1 n=g5 v=61
97304 On ch=1 n=g5 v=0
97320 On ch=1 n=c5 v=59
97424 On ch=1 n=c5 v=0
97440 On ch=1 n=e5 v=77
97476 On ch=1 n=c4 v=0
97544 On ch=1 n=e5 v=0
97560 On ch=1 n=c5 v=55
97612 On ch=1 n=c3 v=0
97664 On ch=1 n=c5 v=0
97680 On ch=1 n=g4 v=57
97784 On ch=1 n=g4 v=0
97800 On ch=1 n=c4 v=51
97884 Par ch=1 c=64 v=0
97904 On ch=1 n=c4 v=0
97928 On ch=1 n=f3 v=96
97940 On ch=1 n=f2 v=96
97956 Par ch=1 c=64 v=127
98040 On ch=1 n=c4 v=60
98144 On ch=1 n=c4 v=0
98160 On ch=1 n=a4 v=50
98264 On ch=1 n=a4 v=0
98280 On ch=1 n=c5 v=52
98384 On ch=1 n=c5 v=0
98400 On ch=1 n=f5 v=81
98504 On ch=1 n=f5 v=0
98520 On ch=1 n=c5 v=49
98624 On ch=1 n=c5 v=0
98640 On ch=1 n=a5 v=54
98744 On ch=1 n=a5 v=0
98760 On ch=1 n=c6 v=55
98864 On ch=1 n=c6 v=0
98880 On ch=1 n=f6 v=77
98984 On ch=1 n=f6 v=0
99000 On ch=1 n=c6 v=52
99104 On ch=1 n=c6 v=0
99120 On ch=1 n=a6 v=63
99224 On ch=1 n=a6 v=0
99240 On ch=1 n=c7 v=58
99344 On ch=1 n=c7 v=0
99360 On ch=1 n=f7 v=78
99464 On ch=1 n=f7 v=0
99480 On ch=1 n=c7 v=56
99512 On ch=1 n=f3 v=0
99584 On ch=1 n=c7 v=0
99600 On ch=1 n=a7 v=53
99704 On ch=1 n=a7 v=0
99720 On ch=1 n=c8 v=48
99752 Par ch=1 c=64 v=0
99824 On ch=1 n=c8 v=0
99828 Par ch=1 c=64 v=127
99840 On ch=1 n=e8 v=79
99872 On ch=1 n=f#2 v=87
99876 On ch=1 n=f#3 v=92
99928 On ch=1 n=f2 v=0
99944 On ch=1 n=e8 v=0
99960 On ch=1 n=c8 v=50
100064 On ch=1 n=c8 v=0
100080 On ch=1 n=a7 v=66
100184 On ch=1 n=a7 v=0
100200 On ch=1 n=c7 v=59
100304 On ch=1 n=c7 v=0
100320 On ch=1 n=e7 v=79
100424 On ch=1 n=e7 v=0
100440 On ch=1 n=c7 v=72
100544 On ch=1 n=c7 v=0
100560 On ch=1 n=a6 v=65
100664 On ch=1 n=a6 v=0
100680 On ch=1 n=c6 v=57
100784 On ch=1 n=c6 v=0
100800 On ch=1 n=e6 v=78
100904 On ch=1 n=e6 v=0
100920 On ch=1 n=c6 v=61
101024 On ch=1 n=c6 v=0
101040 On ch=1 n=a5 v=61
101144 On ch=1 n=a5 v=0
101160 On ch=1 n=c5 v=54
101264 On ch=1 n=c5 v=0
101280 On ch=1 n=d5 v=78
101384 On ch=1 n=d5 v=0
101400 On ch=1 n=c5 v=58
101504 On ch=1 n=c5 v=0
101520 On ch=1 n=a4 v=60
101624 On ch=1 n=a4 v=0
101640 On ch=1 n=c4 v=66
101684 On ch=1 n=f#2 v=0
101688 Par ch=1 c=64 v=0
101728 On ch=1 n=f#3 v=0
101744 On ch=1 n=c4 v=0
101764 Par ch=1 c=64 v=127
101804 On ch=1 n=g2 v=85
101804 On ch=1 n=g3 v=97
101880 On ch=1 n=b3 v=51
101984 On ch=1 n=b3 v=0
102000 On ch=1 n=g4 v=59
102104 On ch=1 n=g4 v=0
102120 On ch=1 n=b4 v=60
102224 On ch=1 n=b4 v=0
102240 On ch=1 n=d5 v=79
102344 On ch=1 n=d5 v=0
102360 On ch=1 n=b4 v=66
102464 On ch=1 n=b4 v=0
102464 On ch=1 n=g3 v=0
102480 On ch=1 n=g5 v=62
102584 On ch=1 n=g5 v=0
102600 On ch=1 n=b5 v=66
102704 On ch=1 n=b5 v=0
102712 Par ch=1 c=64 v=0
102720 On ch=1 n=d6 v=80
102724 On ch=1 n=g2 v=0
102736 On ch=1 n=f#3 v=88
102740 On ch=1 n=f#2 v=86
102824 On ch=1 n=d6 v=0
102840 On ch=1 n=b5 v=57
102944 On ch=1 n=b5 v=0
102960 On ch=1 n=g6 v=65
103064 On ch=1 n=g6 v=0
103080 On ch=1 n=b6 v=63
103108 On ch=1 n=f#3 v=0
103176 Par ch=1 c=64 v=127
103184 On ch=1 n=b6 v=0
103200 On ch=1 n=d7 v=77
103236 On ch=1 n=e3 v=89
103240 On ch=1 n=e2 v=90
103288 On ch=1 n=f#2 v=0
103304 On ch=1 n=d7 v=0
103320 On ch=1 n=b6 v=55
103424 On ch=1 n=b6 v=0
103440 On ch=1 n=g7 v=67
103544 On ch=1 n=g7 v=0
103560 On ch=1 n=a7 v=63
103636 Par ch=1 c=64 v=0
103664 On ch=1 n=a7 v=0
103676 On ch=1 n=e3 v=0
103680 On ch=1 n=d8 v=78
103684 Par ch=1 c=64 v=127
103708 On ch=1 n=e2 v=0
103708 On ch=1 n=d2 v=101
103708 On ch=1 n=d3 v=84
103784 On ch=1 n=d8 v=0
103800 On ch=1 n=a7 v=50
103904 On ch=1 n=a7 v=0
103920 On ch=1 n=f#7 v=62
104024 On ch=1 n=f#7 v=0
104040 On ch=1 n=c7 v=52
104144 On ch=1 n=c7 v=0
104160 On ch=1 n=d7 v=79
104264 On ch=1 n=d7 v=0
104280 On ch=1 n=a6 v=66
104384 On ch=1 n=a6 v=0
104400 On ch=1 n=f#6 v=51
104504 On ch=1 n=f#6 v=0
104520 On ch=1 n=c6 v=53
104624 On ch=1 n=c6 v=0
104640 On ch=1 n=d6 v=76
104744 On ch=1 n=d6 v=0
104760 On ch=1 n=a5 v=47
104864 On ch=1 n=a5 v=0
104880 On ch=1 n=f#5 v=55
104984 On ch=1 n=f#5 v=0
105000 On ch=1 n=c5 v=52
105104 On ch=1 n=c5 v=0
105120 On ch=1 n=d5 v=77
105224 On ch=1 n=d5 v=0
105240 On ch=1 n=a4 v=42
105312 On ch=1 n=d2 v=0
105344 On ch=1 n=a4 v=0
105360 On ch=1 n=f#4 v=61
105376 On ch=1 n=d3 v=0
105464 On ch=1 n=f#4 v=0
105480 On ch=1 n=c4 v=60
105524 Par ch=1 c=64 v=0
105584 On ch=1 n=c4 v=0
105600 Par ch=1 c=64 v=127
105620 On ch=1 n=g3 v=94
105632 On ch=1 n=g2 v=91
105720 On ch=1 n=c4 v=49
105824 On ch=1 n=c4 v=0
105840 On ch=1 n=f4 v=59
105944 On ch=1 n=f4 v=0
105960 On ch=1 n=g#4 v=64
106064 On ch=1 n=g#4 v=0
106080 On ch=1 n=d5 v=78
106184 On ch=1 n=d5 v=0
106200 On ch=1 n=c5 v=65
106304 On ch=1 n=c5 v=0
106320 On ch=1 n=f5 v=61
106424 On ch=1 n=f5 v=0
106440 On ch=1 n=g#5 v=52
106544 On ch=1 n=g#5 v=0
106560 On ch=1 n=d6 v=77
106664 On ch=1 n=d6 v=0
106680 On ch=1 n=c6 v=60
106784 On ch=1 n=c6 v=0
106800 On ch=1 n=f6 v=68
106904 On ch=1 n=f6 v=0
106920 On ch=1 n=g#6 v=57
107024 On ch=1 n=g#6 v=0
107040 On ch=1 n=d7 v=77
107144 On ch=1 n=d7 v=0
107160 On ch=1 n=c7 v=53
107264 On ch=1 n=c7 v=0
107280 On ch=1 n=f7 v=67
107384 On ch=1 n=f7 v=0
107400 On ch=1 n=g#7 v=58
107428 Par ch=1 c=64 v=0
107492 Par ch=1 c=64 v=127
107504 On ch=1 n=g#7 v=0
107520 On ch=1 n=d8 v=76
107624 On ch=1 n=d8 v=0
107640 On ch=1 n=g7 v=70
107744 On ch=1 n=g7 v=0
107760 On ch=1 n=f7 v=63
107864 On ch=1 n=f7 v=0
107880 On ch=1 n=b6 v=58
107984 On ch=1 n=b6 v=0
108000 On ch=1 n=d7 v=77
108104 On ch=1 n=d7 v=0
108120 On ch=1 n=g6 v=58
108224 On ch=1 n=g6 v=0
108240 On ch=1 n=f6 v=65
108344 On ch=1 n=f6 v=0
108360 On ch=1 n=b5 v=52
108464 On ch=1 n=b5 v=0
108480 On ch=1 n=d6 v=77
108584 On ch=1 n=d6 v=0
108600 On ch=1 n=g5 v=57
108704 On ch=1 n=g5 v=0
108720 On ch=1 n=f5 v=53
108824 On ch=1 n=f5 v=0
108840 On ch=1 n=b4 v=60
108916 On ch=1 n=g2 v=0
108944 On ch=1 n=b4 v=0
108960 On ch=1 n=d#5 v=76
109064 On ch=1 n=d#5 v=0
109080 On ch=1 n=g4 v=48
109184 On ch=1 n=g4 v=0
109200 On ch=1 n=f4 v=56
109304 On ch=1 n=f4 v=0
109320 On ch=1 n=b3 v=54
109356 Par ch=1 c=64 v=0
109424 On ch=1 n=b3 v=0
109432 Par ch=1 c=64 v=127
109452 On ch=1 n=g3 v=0
109488 On ch=1 n=c3 v=96
109488 On ch=1 n=c4 v=96
109548 On ch=1 n=c4 v=0
109560 On ch=1 n=c4 v=87
109680 On ch=1 n=g4 v=61
109784 On ch=1 n=g4 v=0
109800 On ch=1 n=c5 v=53
109904 On ch=1 n=c5 v=0
109920 On ch=1 n=e5 v=76
110024 On ch=1 n=e5 v=0
110040 On ch=1 n=c5 v=51
110144 On ch=1 n=c5 v=0
110160 On ch=1 n=g5 v=70
110264 On ch=1 n=g5 v=0
110280 On ch=1 n=c6 v=62
110384 On ch=1 n=c6 v=0
110400 On ch=1 n=e6 v=80
110504 On ch=1 n=e6 v=0
110520 On ch=1 n=c6 v=47
110624 On ch=1 n=c6 v=0
110640 On ch=1 n=g6 v=61
110744 On ch=1 n=g6 v=0
110760 On ch=1 n=c7 v=63
110864 On ch=1 n=c7 v=0
110880 On ch=1 n=e7 v=77
110984 On ch=1 n=e7 v=0
111000 On ch=1 n=c7 v=63
111104 On ch=1 n=c7 v=0
111120 On ch=1 n=g7 v=55
111224 On ch=1 n=g7 v=0
111240 On ch=1 n=c8 v=63
111284 Par ch=1 c=64 v=0
111344 On ch=1 n=c8 v=0
111344 Par ch=1 c=64 v=127
111360 On ch=1 n=e8 v=78
111464 On ch=1 n=e8 v=0
111480 On ch=1 n=c8 v=65
111584 On ch=1 n=c8 v=0
111600 On ch=1 n=g7 v=48
111704 On ch=1 n=g7 v=0
111720 On ch=1 n=c7 v=52
111824 On ch=1 n=c7 v=0
111840 On ch=1 n=e7 v=76
111944 On ch=1 n=e7 v=0
111960 On ch=1 n=c7 v=55
112064 On ch=1 n=c7 v=0
112080 On ch=1 n=g6 v=56
112184 On ch=1 n=g6 v=0
112200 On ch=1 n=c6 v=55
112304 On ch=1 n=c6 v=0
112320 On ch=1 n=e6 v=76
112424 On ch=1 n=e6 v=0
112440 On ch=1 n=c6 v=50
112544 On ch=1 n=c6 v=0
112560 On ch=1 n=g5 v=60
112664 On ch=1 n=g5 v=0
112680 On ch=1 n=c5 v=54
112784 On ch=1 n=c5 v=0
112800 On ch=1 n=e5 v=77
112904 On ch=1 n=e5 v=0
112920 On ch=1 n=c5 v=56
113004 On ch=1 n=c4 v=0
113024 On ch=1 n=c5 v=0
113040 On ch=1 n=g4 v=69
113144 On ch=1 n=g4 v=0
113160 On ch=1 n=c4 v=62
113252 Par ch=1 c=64 v=0
113264 On ch=1 n=c4 v=0
113264 On ch=1 n=c3 v=0
113312 Par ch=1 c=64 v=127
113320 On ch=1 n=a3 v=90
113320 On ch=1 n=a2 v=89
113400 On ch=1 n=c4 v=65
113504 On ch=1 n=c4 v=0
113520 On ch=1 n=f4 v=66
113624 On ch=1 n=f4 v=0
113640 On ch=1 n=c5 v=54
113744 On ch=1 n=c5 v=0
113760 On ch=1 n=f5 v=77
113864 On ch=1 n=f5 v=0
113880 On ch=1 n=c5 v=51
113984 On ch=1 n=c5 v=0
114000 On ch=1 n=f5 v=63
114104 On ch=1 n=f5 v=0
114120 On ch=1 n=c6 v=65
114224 On ch=1 n=c6 v=0
114240 On ch=1 n=f6 v=77
114344 On ch=1 n=f6 v=0
114360 On ch=1 n=c6 v=58
114464 On ch=1 n=c6 v=0
114480 On ch=1 n=f6 v=60
114584 On ch=1 n=f6 v=0
114600 On ch=1 n=c7 v=65
114704 On ch=1 n=c7 v=0
114720 On ch=1 n=f7 v=75
114824 On ch=1 n=f7 v=0
114840 On ch=1 n=c7 v=51
114944 On ch=1 n=c7 v=0
114960 On ch=1 n=f7 v=58
115064 On ch=1 n=f7 v=0
115080 On ch=1 n=c8 v=68
115084 Par ch=1 c=64 v=0
115148 Par ch=1 c=64 v=127
115184 On ch=1 n=c8 v=0
115200 On ch=1 n=e8 v=77
115304 On ch=1 n=e8 v=0
115320 On ch=1 n=c8 v=68
115424 On ch=1 n=c8 v=0
115440 On ch=1 n=f#7 v=63
115544 On ch=1 n=f#7 v=0
115560 On ch=1 n=c7 v=59
115664 On ch=1 n=c7 v=0
115680 On ch=1 n=e7 v=77
115784 On ch=1 n=e7 v=0
115800 On ch=1 n=c7 v=59
115904 On ch=1 n=c7 v=0
115920 On ch=1 n=f#6 v=51
116024 On ch=1 n=f#6 v=0
116040 On ch=1 n=c6 v=49
116076 Par ch=1 c=64 v=0
116144 On ch=1 n=c6 v=0
116144 Par ch=1 c=64 v=127
116160 On ch=1 n=d#6 v=78
116264 On ch=1 n=d#6 v=0
116280 On ch=1 n=c6 v=62
116384 On ch=1 n=c6 v=0
116400 On ch=1 n=f#5 v=55
116472 On ch=1 n=a3 v=0
116504 On ch=1 n=f#5 v=0
116520 On ch=1 n=c5 v=65
116556 Par ch=1 c=64 v=0
116620 Par ch=1 c=64 v=127
116624 On ch=1 n=c5 v=0
116640 On ch=1 n=d#5 v=77
116652 On ch=1 n=g#3 v=92
116660 On ch=1 n=g#2 v=86
116692 On ch=1 n=a2 v=0
116744 On ch=1 n=d#5 v=0
116760 On ch=1 n=c5 v=58
116864 On ch=1 n=c5 v=0
116880 On ch=1 n=f#4 v=57
116984 On ch=1 n=f#4 v=0
117000 On ch=1 n=c4 v=58
117064 On ch=1 n=g#3 v=0
117068 Par ch=1 c=64 v=0
117104 On ch=1 n=c4 v=0
117104 On ch=1 n=g#2 v=0
117160 On ch=1 n=g3 v=99
117168 On ch=1 n=g2 v=85
117168 Par ch=1 c=64 v=127
117240 On ch=1 n=c4 v=68
117344 On ch=1 n=c4 v=0
117360 On ch=1 n=g4 v=70
117464 On ch=1 n=g4 v=0
117480 On ch=1 n=c5 v=58
117584 On ch=1 n=c5 v=0
117600 On ch=1 n=d5 v=76
117704 On ch=1 n=d5 v=0
117720 On ch=1 n=c5 v=51
117824 On ch=1 n=c5 v=0
117840 On ch=1 n=g5 v=56
117944 On ch=1 n=g5 v=0
117960 On ch=1 n=c6 v=64
118064 On ch=1 n=c6 v=0
118080 On ch=1 n=d6 v=75
118184 On ch=1 n=d6 v=0
118200 On ch=1 n=c6 v=58
118304 On ch=1 n=c6 v=0
118320 On ch=1 n=g6 v=53
118424 On ch=1 n=g6 v=0
118440 On ch=1 n=c7 v=49
118544 On ch=1 n=c7 v=0
118560 On ch=1 n=d7 v=72
118664 On ch=1 n=d7 v=0
118680 On ch=1 n=c7 v=55
118784 On ch=1 n=c7 v=0
118800 On ch=1 n=g7 v=51
118904 On ch=1 n=g7 v=0
118920 On ch=1 n=c8 v=63
118952 Par ch=1 c=64 v=0
119008 Par ch=1 c=64 v=127
119024 On ch=1 n=c8 v=0
119040 On ch=1 n=d8 v=72
119144 On ch=1 n=d8 v=0
119160 On ch=1 n=b7 v=49
119264 On ch=1 n=b7 v=0
119280 On ch=1 n=g7 v=44
119384 On ch=1 n=g7 v=0
119400 On ch=1 n=b6 v=50
119504 On ch=1 n=b6 v=0
119520 On ch=1 n=d7 v=68
119624 On ch=1 n=d7 v=0
119640 On ch=1 n=b6 v=54
119744 On ch=1 n=b6 v=0
119760 On ch=1 n=g6 v=43
119864 On ch=1 n=g6 v=0
119880 On ch=1 n=b5 v=55
119984 On ch=1 n=b5 v=0
120000 On ch=1 n=d6 v=68
120104 On ch=1 n=d6 v=0
120120 On ch=1 n=b5 v=44
120224 On ch=1 n=b5 v=0
120240 On ch=1 n=g5 v=40
120344 On ch=1 n=g5 v=0
120360 On ch=1 n=b4 v=54
120464 On ch=1 n=b4 v=0
120480 On ch=1 n=d5 v=66
120584 On ch=1 n=d5 v=0
120600 On ch=1 n=b4 v=52
120704 On ch=1 n=b4 v=0
120720 On ch=1 n=g4 v=52
120752 On ch=1 n=g3 v=0
120824 On ch=1 n=g4 v=0
120840 On ch=1 n=b3 v=51
120892 Par ch=1 c=64 v=0
120944 On ch=1 n=b3 v=0
120960 Par ch=1 c=64 v=127
121000 On ch=1 n=f#3 v=76
121000 On ch=1 n=f#2 v=73
121020 On ch=1 n=g2 v=0
121080 On ch=1 n=c4 v=47
121184 On ch=1 n=c4 v=0
121200 On ch=1 n=a4 v=46
121304 On ch=1 n=a4 v=0
121320 On ch=1 n=c5 v=43
121424 On ch=1 n=c5 v=0
121440 On ch=1 n=d5 v=66
121544 On ch=1 n=d5 v=0
121560 On ch=1 n=c5 v=52
121664 On ch=1 n=c5 v=0
121680 On ch=1 n=a5 v=49
121784 On ch=1 n=a5 v=0
121800 On ch=1 n=c6 v=57
121904 On ch=1 n=c6 v=0
121920 On ch=1 n=d6 v=69
122024 On ch=1 n=d6 v=0
122040 On ch=1 n=c6 v=47
122144 On ch=1 n=c6 v=0
122160 On ch=1 n=a6 v=52
122264 On ch=1 n=a6 v=0
122280 On ch=1 n=c7 v=50
122384 On ch=1 n=c7 v=0
122400 On ch=1 n=d7 v=67
122504 On ch=1 n=d7 v=0
122520 On ch=1 n=c7 v=46
122624 On ch=1 n=c7 v=0
122640 On ch=1 n=a7 v=48
122744 On ch=1 n=a7 v=0
122760 On ch=1 n=c8 v=59
122764 Par ch=1 c=64 v=0
122828 Par ch=1 c=64 v=127
122864 On ch=1 n=c8 v=0
122872 On ch=1 n=f#3 v=0
122880 On ch=1 n=f#2 v=0
122880 On ch=1 n=d#8 v=71
122896 On ch=1 n=f3 v=82
122900 On ch=1 n=f2 v=73
122984 On ch=1 n=d#8 v=0
123000 On ch=1 n=c8 v=65
123104 On ch=1 n=c8 v=0
123120 On ch=1 n=a7 v=61
123224 On ch=1 n=a7 v=0
123240 On ch=1 n=c7 v=57
123344 On ch=1 n=c7 v=0
123360 On ch=1 n=d#7 v=71
123464 On ch=1 n=d#7 v=0
123480 On ch=1 n=c7 v=62
123584 On ch=1 n=c7 v=0
123600 On ch=1 n=a6 v=60
123704 On ch=1 n=a6 v=0
123720 On ch=1 n=c6 v=53
123760 Par ch=1 c=64 v=0
123808 Par ch=1 c=64 v=127
123824 On ch=1 n=c6 v=0
123840 On ch=1 n=d#6 v=72
123944 On ch=1 n=d#6 v=0
123960 On ch=1 n=b5 v=65
124064 On ch=1 n=b5 v=0
124080 On ch=1 n=a5 v=59
124184 On ch=1 n=a5 v=0
124200 On ch=1 n=b4 v=58
124304 On ch=1 n=b4 v=0
124320 On ch=1 n=d#5 v=76
124424 On ch=1 n=d#5 v=0
124440 On ch=1 n=b4 v=49
124544 On ch=1 n=b4 v=0
124560 On ch=1 n=a4 v=65
124664 On ch=1 n=a4 v=0
124680 On ch=1 n=b3 v=56
124688 On ch=1 n=f3 v=0
124724 Par ch=1 c=64 v=0
124776 On ch=1 n=f2 v=0
124784 On ch=1 n=b3 v=0
124792 Par ch=1 c=64 v=127
124832 On ch=1 n=e3 v=96
124836 On ch=1 n=e2 v=76
124920 On ch=1 n=b3 v=54
125024 On ch=1 n=b3 v=0
125040 On ch=1 n=g#4 v=62
125144 On ch=1 n=g#4 v=0
125160 On ch=1 n=b4 v=61
125264 On ch=1 n=b4 v=0
125280 On ch=1 n=e5 v=79
125384 On ch=1 n=e5 v=0
125400 On ch=1 n=b4 v=66
125504 On ch=1 n=b4 v=0
125520 On ch=1 n=g#5 v=57
125624 On ch=1 n=g#5 v=0
125640 On ch=1 n=b5 v=62
125744 On ch=1 n=b5 v=0
125760 On ch=1 n=e6 v=78
125864 On ch=1 n=e6 v=0
125880 On ch=1 n=b5 v=57
125984 On ch=1 n=b5 v=0
126000 On ch=1 n=g#6 v=62
126048 On ch=1 n=e2 v=0
126104 On ch=1 n=g#6 v=0
126120 On ch=1 n=b6 v=63
126224 On ch=1 n=b6 v=0
126240 On ch=1 n=e7 v=76
126344 On ch=1 n=e7 v=0
126360 On ch=1 n=b6 v=52
126464 On ch=1 n=b6 v=0
126480 On ch=1 n=g#7 v=65
126584 On ch=1 n=g#7 v=0
126600 On ch=1 n=b7 v=60
126704 On ch=1 n=b7 v=0
126720 On ch=1 n=e8 v=77
126740 On ch=1 n=e4 v=84
126824 On ch=1 n=e8 v=0
126840 On ch=1 n=b7 v=66
126944 On ch=1 n=b7 v=0
126960 On ch=1 n=g#7 v=65
127064 On ch=1 n=g#7 v=0
127080 On ch=1 n=b6 v=59
127184 On ch=1 n=b6 v=0
127200 On ch=1 n=e7 v=75
127304 On ch=1 n=e7 v=0
127320 On ch=1 n=b6 v=59
127424 On ch=1 n=b6 v=0
127440 On ch=1 n=g#6 v=67
127544 On ch=1 n=g#6 v=0
127560 On ch=1 n=b5 v=57
127664 On ch=1 n=b5 v=0
127680 On ch=1 n=e6 v=79
127784 On ch=1 n=e6 v=0
127800 On ch=1 n=b5 v=55
127904 On ch=1 n=b5 v=0
127920 On ch=1 n=g#5 v=53
128024 On ch=1 n=g#5 v=0
128040 On ch=1 n=b4 v=52
128144 On ch=1 n=b4 v=0
128160 On ch=1 n=e5 v=77
128264 On ch=1 n=e5 v=0
128280 On ch=1 n=b4 v=64
128300 On ch=1 n=e3 v=0
128384 On ch=1 n=b4 v=0
128400 On ch=1 n=g#4 v=58
128504 On ch=1 n=g#4 v=0
128520 On ch=1 n=e4 v=0
128520 On ch=1 n=b3 v=50
128556 Par ch=1 c=64 v=0
128624 On ch=1 n=b3 v=0
128624 Par ch=1 c=64 v=127
128672 On ch=1 n=d3 v=81
128760 On ch=1 n=d4 v=49
128864 On ch=1 n=d4 v=0
128880 On ch=1 n=a4 v=66
128984 On ch=1 n=a4 v=0
129000 On ch=1 n=c5 v=58
129104 On ch=1 n=c5 v=0
129120 On ch=1 n=f5 v=69
129224 On ch=1 n=f5 v=0
129240 On ch=1 n=d5 v=56
129344 On ch=1 n=d5 v=0
129360 On ch=1 n=a5 v=62
129464 On ch=1 n=a5 v=0
129480 On ch=1 n=c6 v=67
129584 On ch=1 n=c6 v=0
129600 On ch=1 n=f6 v=69
129704 On ch=1 n=f6 v=0
129720 On ch=1 n=d6 v=52
129824 On ch=1 n=d6 v=0
129840 On ch=1 n=a6 v=54
129944 On ch=1 n=a6 v=0
129960 On ch=1 n=c7 v=53
130064 On ch=1 n=c7 v=0
130080 On ch=1 n=f7 v=68
130184 On ch=1 n=f7 v=0
130200 On ch=1 n=d7 v=50
130304 On ch=1 n=d7 v=0
130320 On ch=1 n=a7 v=49
130424 On ch=1 n=a7 v=0
130436 Par ch=1 c=64 v=0
130440 On ch=1 n=c8 v=42
130512 Par ch=1 c=64 v=127
130544 On ch=1 n=c8 v=0
130552 On ch=1 n=d3 v=0
130560 On ch=1 n=f8 v=70
130584 On ch=1 n=g2 v=74
130588 On ch=1 n=g3 v=85
130664 On ch=1 n=f8 v=0
130680 On ch=1 n=b7 v=43
130784 On ch=1 n=b7 v=0
130800 On ch=1 n=g7 v=48
130904 On ch=1 n=g7 v=0
130920 On ch=1 n=d7 v=50
131024 On ch=1 n=d7 v=0
131040 On ch=1 n=f7 v=72
131144 On ch=1 n=f7 v=0
131160 On ch=1 n=b6 v=46
131264 On ch=1 n=b6 v=0
131280 On ch=1 n=g6 v=42
131384 On ch=1 n=g6 v=0
131400 On ch=1 n=d6 v=49
131504 On ch=1 n=d6 v=0
131520 On ch=1 n=f6 v=65
131624 On ch=1 n=f6 v=0
131640 On ch=1 n=b5 v=49
131744 On ch=1 n=b5 v=0
131760 On ch=1 n=g5 v=43
131864 On ch=1 n=g5 v=0
131880 On ch=1 n=d5 v=39
131984 On ch=1 n=d5 v=0
132000 On ch=1 n=f5 v=63
132104 On ch=1 n=f5 v=0
132120 On ch=1 n=b4 v=40
132224 On ch=1 n=b4 v=0
132240 On ch=1 n=g4 v=54
132344 On ch=1 n=g4 v=0
132360 On ch=1 n=d4 v=38
132396 Par ch=1 c=64 v=0
132432 On ch=1 n=g2 v=0
132464 On ch=1 n=d4 v=0
132472 Par ch=1 c=64 v=127
132480 On ch=1 n=g3 v=0
132496 On ch=1 n=c3 v=79
132600 On ch=1 n=c4 v=48
132704 On ch=1 n=c4 v=0
132720 On ch=1 n=g4 v=55
132824 On ch=1 n=g4 v=0
132840 On ch=1 n=c5 v=44
132944 On ch=1 n=c5 v=0
132960 On ch=1 n=e5 v=66
133064 On ch=1 n=e5 v=0
133080 On ch=1 n=c5 v=50
133184 On ch=1 n=c5 v=0
133200 On ch=1 n=g5 v=55
133304 On ch=1 n=g5 v=0
133320 On ch=1 n=c6 v=49
133424 On ch=1 n=c6 v=0
133440 On ch=1 n=e6 v=67
133544 On ch=1 n=e6 v=0
133560 On ch=1 n=c6 v=44
133664 On ch=1 n=c6 v=0
133680 On ch=1 n=a#6 v=47
133784 On ch=1 n=a#6 v=0
133800 On ch=1 n=c7 v=61
133904 On ch=1 n=c7 v=0
133920 On ch=1 n=g7 v=64
134024 On ch=1 n=g7 v=0
134040 On ch=1 n=c7 v=62
134144 On ch=1 n=c7 v=0
134160 On ch=1 n=a#6 v=52
134264 On ch=1 n=a#6 v=0
134268 Par ch=1 c=64 v=0
134280 On ch=1 n=e6 v=43
134344 Par ch=1 c=64 v=127
134384 On ch=1 n=e6 v=0
134392 On ch=1 n=c4 v=80
134400 On ch=1 n=f#7 v=65
134504 On ch=1 n=f#7 v=0
134520 On ch=1 n=c7 v=53
134624 On ch=1 n=c7 v=0
134640 On ch=1 n=a6 v=45
134744 On ch=1 n=a6 v=0
134760 On ch=1 n=d#6 v=45
134864 On ch=1 n=d#6 v=0
134880 On ch=1 n=f#6 v=68
134984 On ch=1 n=f#6 v=0
135000 On ch=1 n=c6 v=57
135104 On ch=1 n=c6 v=0
135120 On ch=1 n=a5 v=52
135224 On ch=1 n=a5 v=0
135240 On ch=1 n=d#5 v=41
135240 Par ch=1 c=64 v=0
135312 Par ch=1 c=64 v=127
135344 On ch=1 n=d#5 v=0
135360 On ch=1 n=f6 v=68
135464 On ch=1 n=f6 v=0
135480 On ch=1 n=b5 v=51
135584 On ch=1 n=b5 v=0
135600 On ch=1 n=g#5 v=41
135704 On ch=1 n=g#5 v=0
135720 On ch=1 n=d5 v=55
135824 On ch=1 n=d5 v=0
135840 On ch=1 n=f5 v=68
135944 On ch=1 n=f5 v=0
135960 On ch=1 n=b4 v=49
136064 On ch=1 n=b4 v=0
136080 On ch=1 n=g#4 v=38
136156 On ch=1 n=c3 v=0
136184 On ch=1 n=g#4 v=0
136200 On ch=1 n=d4 v=53
136256 Par ch=1 c=64 v=0
136260 On ch=1 n=c4 v=0
136304 On ch=1 n=d4 v=0
136316 Par ch=1 c=64 v=127
136372 On ch=1 n=c3 v=82
136440 On ch=1 n=c4 v=48
136544 On ch=1 n=c4 v=0
136560 On ch=1 n=g4 v=59
136664 On ch=1 n=g4 v=0
136680 On ch=1 n=c5 v=49
136784 On ch=1 n=c5 v=0
136800 On ch=1 n=e5 v=70
136904 On ch=1 n=e5 v=0
136920 On ch=1 n=c5 v=45
137024 On ch=1 n=c5 v=0
137040 On ch=1 n=g5 v=55
137144 On ch=1 n=g5 v=0
137160 On ch=1 n=c6 v=45
137264 On ch=1 n=c6 v=0
137280 On ch=1 n=e6 v=72
137384 On ch=1 n=e6 v=0
137400 On ch=1 n=c6 v=56
137504 On ch=1 n=c6 v=0
137520 On ch=1 n=g6 v=53
137624 On ch=1 n=g6 v=0
137640 On ch=1 n=c7 v=59
137744 On ch=1 n=c7 v=0
137760 On ch=1 n=e7 v=72
137864 On ch=1 n=e7 v=0
137880 On ch=1 n=c7 v=57
137984 On ch=1 n=c7 v=0
138000 On ch=1 n=g6 v=50
138104 On ch=1 n=g6 v=0
138120 On ch=1 n=c6 v=61
138156 Par ch=1 c=64 v=0
138224 On ch=1 n=c6 v=0
138224 Par ch=1 c=64 v=127
138240 On ch=1 n=d#7 v=75
138256 On ch=1 n=c3 v=0
138264 On ch=1 n=g2 v=76
138268 On ch=1 n=g3 v=89
138344 On ch=1 n=d#7 v=0
138360 On ch=1 n=a6 v=59
138464 On ch=1 n=a6 v=0
138480 On ch=1 n=f#6 v=62
138584 On ch=1 n=f#6 v=0
138600 On ch=1 n=c6 v=61
138704 On ch=1 n=c6 v=0
138720 On ch=1 n=d#6 v=74
138824 On ch=1 n=d#6 v=0
138840 On ch=1 n=a5 v=57
138944 On ch=1 n=a5 v=0
138960 On ch=1 n=f#5 v=65
139064 On ch=1 n=f#5 v=0
139080 On ch=1 n=c5 v=54
139080 Par ch=1 c=64 v=0
139152 Par ch=1 c=64 v=127
139184 On ch=1 n=c5 v=0
139200 On ch=1 n=d6 v=78
139304 On ch=1 n=d6 v=0
139320 On ch=1 n=g#5 v=49
139424 On ch=1 n=g#5 v=0
139440 On ch=1 n=f5 v=66
139544 On ch=1 n=f5 v=0
139560 On ch=1 n=b4 v=62
139664 On ch=1 n=b4 v=0
139680 On ch=1 n=d5 v=79
139784 On ch=1 n=d5 v=0
139800 On ch=1 n=g#4 v=62
139904 On ch=1 n=g#4 v=0
139920 On ch=1 n=f4 v=57
139992 On ch=1 n=g2 v=0
140024 On ch=1 n=f4 v=0
140024 On ch=1 n=g3 v=0
140040 On ch=1 n=b3 v=59
140088 Par ch=1 c=64 v=0
140144 On ch=1 n=b3 v=0
140156 Par ch=1 c=64 v=127
140196 On ch=1 n=g2 v=96
140196 On ch=1 n=g3 v=93
140280 On ch=1 n=a#3 v=53
140384 On ch=1 n=a#3 v=0
140400 On ch=1 n=e4 v=56
140504 On ch=1 n=e4 v=0
140520 On ch=1 n=g4 v=63
140624 On ch=1 n=g4 v=0
140640 On ch=1 n=c#5 v=77
140744 On ch=1 n=c#5 v=0
140760 On ch=1 n=a#4 v=63
140864 On ch=1 n=a#4 v=0
140880 On ch=1 n=e5 v=60
140984 On ch=1 n=e5 v=0
141000 On ch=1 n=g5 v=58
141104 On ch=1 n=g5 v=0
141120 On ch=1 n=c#6 v=74
141224 On ch=1 n=c#6 v=0
141240 On ch=1 n=a#5 v=54
141344 On ch=1 n=a#5 v=0
141360 On ch=1 n=e6 v=46
141464 On ch=1 n=e6 v=0
141480 On ch=1 n=g6 v=48
141584 On ch=1 n=g6 v=0
141600 On ch=1 n=c#7 v=75
141704 On ch=1 n=c#7 v=0
141720 On ch=1 n=a#6 v=66
141824 On ch=1 n=a#6 v=0
141840 On ch=1 n=e7 v=46
141944 On ch=1 n=e7 v=0
141960 On ch=1 n=g7 v=57
142024 Par ch=1 c=64 v=0
142064 On ch=1 n=g7 v=0
142080 On ch=1 n=c#8 v=76
142088 Par ch=1 c=64 v=127
142184 On ch=1 n=c#8 v=0
142200 On ch=1 n=f#7 v=53
142304 On ch=1 n=f#7 v=0
142320 On ch=1 n=d#7 v=46
142424 On ch=1 n=d#7 v=0
142440 On ch=1 n=a6 v=52
142544 On ch=1 n=a6 v=0
142560 On ch=1 n=c#7 v=77
142664 On ch=1 n=c#7 v=0
142680 On ch=1 n=f#6 v=50
142784 On ch=1 n=f#6 v=0
142800 On ch=1 n=d#6 v=52
142904 On ch=1 n=d#6 v=0
142920 On ch=1 n=a5 v=55
143024 On ch=1 n=a5 v=0
143040 On ch=1 n=c#6 v=75
143144 On ch=1 n=c#6 v=0
143160 On ch=1 n=f#5 v=56
143264 On ch=1 n=f#5 v=0
143280 On ch=1 n=d#5 v=42
143384 On ch=1 n=d#5 v=0
143400 On ch=1 n=a4 v=51
143504 On ch=1 n=a4 v=0
143520 On ch=1 n=c6 v=74
143624 On ch=1 n=c6 v=0
143640 On ch=1 n=f#5 v=56
143744 On ch=1 n=f#5 v=0
143760 On ch=1 n=d#5 v=43
143864 On ch=1 n=d#5 v=0
143880 On ch=1 n=a4 v=48
143920 Par ch=1 c=64 v=0
143928 On ch=1 n=g2 v=0
143956 On ch=1 n=g3 v=0
143984 On ch=1 n=a4 v=0
143988 Par ch=1 c=64 v=127
144032 On ch=1 n=g2 v=89
144032 On ch=1 n=g3 v=85
144120 On ch=1 n=g#4 v=56
144224 On ch=1 n=g#4 v=0
144240 On ch=1 n=d5 v=60
144344 On ch=1 n=d5 v=0
144360 On ch=1 n=f5 v=67
144464 On ch=1 n=f5 v=0
144480 On ch=1 n=c6 v=78
144584 On ch=1 n=c6 v=0
144600 On ch=1 n=g#5 v=67
144704 On ch=1 n=g#5 v=0
144720 On ch=1 n=d6 v=54
144824 On ch=1 n=d6 v=0
144840 On ch=1 n=f6 v=46
144944 On ch=1 n=f6 v=0
144960 On ch=1 n=c7 v=76
145064 On ch=1 n=c7 v=0
145080 On ch=1 n=g#6 v=63
145184 On ch=1 n=g#6 v=0
145200 On ch=1 n=d7 v=72
145304 On ch=1 n=d7 v=0
145320 On ch=1 n=f7 v=74
145424 On ch=1 n=f7 v=0
145440 On ch=1 n=c8 v=82
145544 On ch=1 n=c8 v=0
145560 On ch=1 n=f7 v=61
145664 On ch=1 n=f7 v=0
145680 On ch=1 n=d7 v=69
145784 On ch=1 n=d7 v=0
145800 On ch=1 n=g#6 v=59
145844 Par ch=1 c=64 v=0
145904 On ch=1 n=g#6 v=0
145908 Par ch=1 c=64 v=127
145920 On ch=1 n=b7 v=81
146024 On ch=1 n=b7 v=0
146040 On ch=1 n=f7 v=61
146144 On ch=1 n=f7 v=0
146160 On ch=1 n=d7 v=62
146264 On ch=1 n=d7 v=0
146280 On ch=1 n=g6 v=61
146384 On ch=1 n=g6 v=0
146400 On ch=1 n=b6 v=84
146504 On ch=1 n=b6 v=0
146520 On ch=1 n=f6 v=60
146624 On ch=1 n=f6 v=0
146640 On ch=1 n=d6 v=65
146744 On ch=1 n=d6 v=0
146760 On ch=1 n=g5 v=57
146864 On ch=1 n=g5 v=0
146880 On ch=1 n=b5 v=84
146984 On ch=1 n=b5 v=0
147000 On ch=1 n=f5 v=71
147104 On ch=1 n=f5 v=0
147120 On ch=1 n=d5 v=59
147224 On ch=1 n=d5 v=0
147240 On ch=1 n=g4 v=67
147344 On ch=1 n=g4 v=0
147360 On ch=1 n=b4 v=85
147464 On ch=1 n=b4 v=0
147480 On ch=1 n=f4 v=64
147564 On ch=1 n=g2 v=0
147572 On ch=1 n=g3 v=0
147584 On ch=1 n=f4 v=0
147600 On ch=1 n=d4 v=50
147704 On ch=1 n=d4 v=0
147720 On ch=1 n=g3 v=67
147780 Par ch=1 c=64 v=0
147824 On ch=1 n=g3 v=0
147848 Par ch=1 c=64 v=127
147864 On ch=1 n=c3 v=96
147872 On ch=1 n=c2 v=96
147960 On ch=1 n=g3 v=79
148080 On ch=1 n=e4 v=77
148092 On ch=1 n=g3 v=0
148188 On ch=1 n=g4 v=77
148216 On ch=1 n=e4 v=0
148316 On ch=1 n=c5 v=88
148340 On ch=1 n=g4 v=0
148412 On ch=1 n=c5 v=0
148436 On ch=1 n=g4 v=79
148560 On ch=1 n=e5 v=77
148580 On ch=1 n=g4 v=0
148684 On ch=1 n=e5 v=0
148708 On ch=1 n=g5 v=76
148800 On ch=1 n=g5 v=0
148812 On ch=1 n=c6 v=91
148912 On ch=1 n=c6 v=0
148920 On ch=1 n=g5 v=75
149036 On ch=1 n=e6 v=79
149044 On ch=1 n=g5 v=0
149140 On ch=1 n=g6 v=77
149156 On ch=1 n=e6 v=0
149264 On ch=1 n=g6 v=0
149268 On ch=1 n=c7 v=93
149368 On ch=1 n=c7 v=0
149368 On ch=1 n=g6 v=77
149500 On ch=1 n=e7 v=75
149524 On ch=1 n=g6 v=0
149620 On ch=1 n=g7 v=74
149628 On ch=1 n=e7 v=0
149756 On ch=1 n=c8 v=90
149776 On ch=1 n=g7 v=0
149872 On ch=1 n=g7 v=78
149884 On ch=1 n=c8 v=0
150008 On ch=1 n=e7 v=81
150024 On ch=1 n=g7 v=0
150128 On ch=1 n=e7 v=0
150140 On ch=1 n=g6 v=81
150276 On ch=1 n=c7 v=94
150284 On ch=1 n=g6 v=0
150388 On ch=1 n=g6 v=81
150396 On ch=1 n=c7 v=0
150528 On ch=1 n=e6 v=79
150544 On ch=1 n=g6 v=0
150628 On ch=1 n=e6 v=0
150652 On ch=1 n=g5 v=80
150792 On ch=1 n=c6 v=93
150812 On ch=1 n=g5 v=0
150924 On ch=1 n=g5 v=86
150948 On ch=1 n=c6 v=0
151056 On ch=1 n=e5 v=84
151084 On ch=1 n=g5 v=0
151192 On ch=1 n=e5 v=0
151204 On ch=1 n=g4 v=77
151344 On ch=1 n=c5 v=93
151372 On ch=1 n=g4 v=0
151504 On ch=1 n=g4 v=78
151532 On ch=1 n=c5 v=0
151560 On ch=1 n=c2 v=0
151596 On ch=1 n=c3 v=0
151664 On ch=1 n=e4 v=82
151684 On ch=1 n=g4 v=0
151824 On ch=1 n=e4 v=0
151828 On ch=1 n=g3 v=89
151960 On ch=1 n=g3 v=0
152016 On ch=1 n=c2 v=111
152016 On ch=1 n=c3 v=103
156460 On ch=1 n=c2 v=0
156468 On ch=1 n=c3 v=0
156536 Par ch=1 c=64 v=0
156536 Meta TrkEnd
TrkEnd
MTrk
0 SeqSpec 43 00 01 00
0 Meta TrkName "In C Major"
0 Meta 0x21 00
0 Meta TrkEnd
TrkEnd
MTrk
0 SeqSpec 43 00 01 00
0 Meta TrkName "Op. 10, No"
