MFile 1 7 480
MTrk
0 TimeSig 6/8 12 8
0 KeySig 0 major
0 Tempo 441176
41760 Tempo 431655
41880 Tempo 433213
42000 Tempo 434783
42120 Tempo 436364
42240 Tempo 437956
42360 Tempo 439560
42460 Tempo 441176
42580 Tempo 442804
42700 Tempo 444444
42820 Tempo 446097
42940 Tempo 447761
43060 Tempo 449438
43160 Tempo 451128
43200 Tempo 454545
48960 Tempo 452830
49080 Tempo 451128
49200 Tempo 449438
49320 Tempo 447761
49420 Tempo 446097
49540 Tempo 444444
49660 Tempo 442804
49780 Tempo 441176
49880 Tempo 439560
50000 Tempo 437956
50120 Tempo 436364
50240 Tempo 434783
50340 Tempo 433213
50384 Tempo 441176
64780 Tempo 433213
64960 Tempo 434783
65140 Tempo 436364
65320 Tempo 437956
65480 Tempo 439560
65660 Tempo 441176
65840 Tempo 442804
66020 Tempo 444444
66180 Tempo 446097
66236 Tempo 454545
71000 Tempo 447761
71160 Tempo 446097
71320 Tempo 444444
71480 Tempo 442804
71640 Tempo 441176
71780 Tempo 439560
71940 Tempo 437956
72100 Tempo 436364
72260 Tempo 434783
72400 Tempo 433213
72560 Tempo 431655
72720 Tempo 430108
72880 Tempo 428571
73020 Tempo 427046
73180 Tempo 425532
73340 Tempo 424028
73500 Tempo 422535
73640 Tempo 421053
73692 Tempo 422535
75840 Tempo 418118
76000 Tempo 419580
76160 Tempo 421053
76320 Tempo 422535
76480 Tempo 424028
76620 Tempo 425532
76780 Tempo 427046
76940 Tempo 428571
77100 Tempo 430108
77240 Tempo 431655
77268 Tempo 441176
82092 Tempo 535714
82304 Tempo 441176
82304 Meta TrkEnd
TrkEnd
MTrk
0 SeqSpec 43 00 01 00
0 SysEx f0 41 10 42 12 40 00 7f 00 41 f7
0 SysEx f0 41 10 42 12 40 01 30 03 0c f7
0 Meta TrkEnd
TrkEnd
MTrk
0 SeqSpec 43 00 01 00
0 Meta TrkName "Etude No. 7"
0 Meta 0x21 00
240 Par ch=1 c=0 v=0
248 PrCh ch=1 p=0
252 Par ch=1 c=7 v=127
480 Par ch=1 c=91 v=80
480 Par ch=1 c=0 v=0
480 Par ch=1 c=93 v=20
2632 On ch=1 n=g5 v=63
2788 On ch=1 n=g5 v=0
2880 On ch=1 n=g5 v=57
2880 On ch=1 n=e5 v=48
2884 On ch=1 n=c4 v=68
2884 On ch=1 n=c3 v=56
2916 Par ch=1 c=64 v=127
2988 On ch=1 n=e5 v=0
2988 On ch=1 n=g5 v=0
2992 On ch=1 n=c3 v=0
2992 On ch=1 n=c4 v=0
3000 On ch=1 n=e5 v=51
3000 On ch=1 n=c6 v=51
3108 On ch=1 n=c6 v=0
3108 On ch=1 n=e5 v=0
3116 Par ch=1 c=64 v=0
3120 On ch=1 n=g#5 v=56
3120 On ch=1 n=f5 v=45
3228 On ch=1 n=f5 v=0
3228 On ch=1 n=g#5 v=0
3240 On ch=1 n=f5 v=49
3240 On ch=1 n=d6 v=62
3348 On ch=1 n=d6 v=0
3348 On ch=1 n=f5 v=0
3360 On ch=1 n=f5 v=50
3360 On ch=1 n=d5 v=21
3364 On ch=1 n=g#4 v=73
3468 On ch=1 n=d5 v=0
3468 On ch=1 n=f5 v=0
3480 On ch=1 n=b5 v=45
3480 On ch=1 n=d5 v=42
3588 On ch=1 n=d5 v=0
3588 On ch=1 n=b5 v=0
3596 On ch=1 n=g#4 v=0
3600 On ch=1 n=d5 v=44
3600 On ch=1 n=b4 v=39
3604 On ch=1 n=g4 v=72
3708 On ch=1 n=b4 v=0
3708 On ch=1 n=d5 v=0
3720 On ch=1 n=b4 v=41
3720 On ch=1 n=g5 v=51
3828 On ch=1 n=g5 v=0
3828 On ch=1 n=b4 v=0
3836 On ch=1 n=f#4 v=68
3840 On ch=1 n=d#5 v=53
3840 On ch=1 n=c5 v=54
3860 On ch=1 n=g4 v=0
3948 On ch=1 n=c5 v=0
3948 On ch=1 n=d#5 v=0
3960 On ch=1 n=c5 v=46
3960 On ch=1 n=a5 v=48
4068 On ch=1 n=a5 v=0
4068 On ch=1 n=c5 v=0
4076 On ch=1 n=f#4 v=0
4076 On ch=1 n=f4 v=73
4080 On ch=1 n=g#5 v=50
4080 On ch=1 n=d5 v=46
4156 On ch=1 n=f4 v=0
4188 On ch=1 n=d5 v=0
4188 On ch=1 n=g#5 v=0
4200 On ch=1 n=b5 v=56
4200 On ch=1 n=d5 v=48
4296 Par ch=1 c=64 v=127
4308 On ch=1 n=d5 v=0
4308 On ch=1 n=b5 v=0
4316 On ch=1 n=c3 v=68
4320 On ch=1 n=g5 v=45
4320 On ch=1 n=e5 v=36
4384 On ch=1 n=c3 v=0
4428 On ch=1 n=e5 v=0
4428 On ch=1 n=g5 v=0
4440 On ch=1 n=e5 v=39
4440 On ch=1 n=c6 v=43
4548 On ch=1 n=c6 v=0
4548 On ch=1 n=e5 v=0
4556 On ch=1 n=c4 v=79
4560 On ch=1 n=g#5 v=53
4560 On ch=1 n=f5 v=51
4560 Par ch=1 c=64 v=0
4668 On ch=1 n=f5 v=0
4668 On ch=1 n=g#5 v=0
4680 On ch=1 n=f5 v=47
4680 On ch=1 n=d6 v=62
4788 On ch=1 n=d6 v=0
4788 On ch=1 n=f5 v=0
4800 On ch=1 n=f5 v=46
4804 On ch=1 n=g#4 v=68
4908 On ch=1 n=f5 v=0
4920 On ch=1 n=b5 v=55
4920 On ch=1 n=d5 v=42
5028 On ch=1 n=d5 v=0
5028 On ch=1 n=b5 v=0
5040 On ch=1 n=d5 v=50
5040 On ch=1 n=b4 v=34
5040 On ch=1 n=g4 v=64
5060 On ch=1 n=g#4 v=0
5148 On ch=1 n=b4 v=0
5148 On ch=1 n=d5 v=0
5160 On ch=1 n=g5 v=48
5160 On ch=1 n=b4 v=33
5268 On ch=1 n=b4 v=0
5268 On ch=1 n=g5 v=0
5280 On ch=1 n=d#5 v=51
5280 On ch=1 n=c5 v=49
5280 On ch=1 n=f#4 v=68
5296 On ch=1 n=g4 v=0
5388 On ch=1 n=c5 v=0
5388 On ch=1 n=d#5 v=0
5400 On ch=1 n=c5 v=46
5400 On ch=1 n=a5 v=45
5508 On ch=1 n=a5 v=0
5508 On ch=1 n=c5 v=0
5512 On ch=1 n=f#4 v=0
5520 On ch=1 n=g#5 v=56
5520 On ch=1 n=d5 v=46
5524 On ch=1 n=f4 v=70
5628 On ch=1 n=d5 v=0
5628 On ch=1 n=g#5 v=0
5640 On ch=1 n=d5 v=38
5640 On ch=1 n=b5 v=43
5748 On ch=1 n=b5 v=0
5748 On ch=1 n=d5 v=0
5756 On ch=1 n=e4 v=68
5760 On ch=1 n=c4 v=0
5760 On ch=1 n=g5 v=55
5760 On ch=1 n=e5 v=48
5776 On ch=1 n=f4 v=0
5868 On ch=1 n=e5 v=0
5868 On ch=1 n=g5 v=0
5880 On ch=1 n=e5 v=42
5880 On ch=1 n=c6 v=45
5988 On ch=1 n=c6 v=0
5988 On ch=1 n=e5 v=0
5996 On ch=1 n=d4 v=68
6000 On ch=1 n=b5 v=53
6000 On ch=1 n=f5 v=42
6024 On ch=1 n=e4 v=0
6108 On ch=1 n=f5 v=0
6108 On ch=1 n=b5 v=0
6120 On ch=1 n=f5 v=51
6120 On ch=1 n=d6 v=48
6228 On ch=1 n=d6 v=0
6228 On ch=1 n=f5 v=0
6236 On ch=1 n=c#4 v=74
6240 On ch=1 n=a#5 v=57
6240 On ch=1 n=g5 v=45
6252 On ch=1 n=d4 v=0
6252 Par ch=1 c=64 v=127
6348 On ch=1 n=g5 v=0
6348 On ch=1 n=a#5 v=0
6360 On ch=1 n=g5 v=47
6360 On ch=1 n=e6 v=34
6468 On ch=1 n=e6 v=0
6468 On ch=1 n=g5 v=0
6476 On ch=1 n=c#5 v=78
6480 On ch=1 n=a#5 v=50
6480 On ch=1 n=e6 v=47
6588 On ch=1 n=e6 v=0
6588 On ch=1 n=a#5 v=0
6600 On ch=1 n=g6 v=50
6600 On ch=1 n=a#5 v=47
6652 On ch=1 n=c#5 v=0
6652 On ch=1 n=c#4 v=0
6708 On ch=1 n=a#5 v=0
6708 On ch=1 n=g6 v=0
6716 On ch=1 n=d5 v=74
6716 On ch=1 n=d4 v=70
6720 On ch=1 n=d6 v=58
6720 On ch=1 n=a5 v=48
6776 Par ch=1 c=64 v=0
6828 On ch=1 n=a5 v=0
6828 On ch=1 n=d6 v=0
6840 On ch=1 n=a5 v=45
6840 On ch=1 n=f6 v=45
6864 On ch=1 n=d4 v=0
6868 On ch=1 n=d5 v=0
6948 On ch=1 n=f6 v=0
6948 On ch=1 n=a5 v=0
6952 Par ch=1 c=64 v=127
6956 On ch=1 n=e4 v=66
6956 On ch=1 n=c5 v=75
6960 On ch=1 n=g5 v=48
6960 On ch=1 n=a5 v=56
7068 On ch=1 n=a5 v=0
7068 On ch=1 n=g5 v=0
7080 On ch=1 n=g5 v=42
7080 On ch=1 n=e6 v=50
7120 On ch=1 n=c5 v=0
7136 On ch=1 n=e4 v=0
7188 On ch=1 n=e6 v=0
7188 On ch=1 n=g5 v=0
7196 On ch=1 n=c#5 v=76
7196 On ch=1 n=e4 v=69
7200 On ch=1 n=a5 v=54
7200 On ch=1 n=g5 v=44
7308 On ch=1 n=g5 v=0
7308 On ch=1 n=a5 v=0
7316 On ch=1 n=c#5 v=0
7320 On ch=1 n=e4 v=0
7320 On ch=1 n=g5 v=46
7320 On ch=1 n=e6 v=46
7428 On ch=1 n=e6 v=0
7428 On ch=1 n=g5 v=0
7440 On ch=1 n=a5 v=58
7440 On ch=1 n=f5 v=51
7444 On ch=1 n=d5 v=76
7444 On ch=1 n=f4 v=74
7464 Par ch=1 c=64 v=0
7548 On ch=1 n=f5 v=0
7548 On ch=1 n=a5 v=0
7560 On ch=1 n=f5 v=46
7560 On ch=1 n=d6 v=45
7668 On ch=1 n=d6 v=0
7668 On ch=1 n=f5 v=0
7668 On ch=1 n=d5 v=0
7676 On ch=1 n=f#4 v=78
7680 On ch=1 n=d#5 v=46
7680 On ch=1 n=a5 v=52
7700 On ch=1 n=f4 v=0
7788 On ch=1 n=a5 v=0
7788 On ch=1 n=d#5 v=0
7800 On ch=1 n=c6 v=56
7800 On ch=1 n=d#5 v=45
7908 On ch=1 n=d#5 v=0
7908 On ch=1 n=c6 v=0
7916 On ch=1 n=f#4 v=0
7916 On ch=1 n=g4 v=79
7920 On ch=1 n=e5 v=42
7920 On ch=1 n=g5 v=55
7940 Par ch=1 c=64 v=127
8028 On ch=1 n=g5 v=0
8028 On ch=1 n=e5 v=0
8040 On ch=1 n=e5 v=51
8040 On ch=1 n=c6 v=45
8148 On ch=1 n=c6 v=0
8148 On ch=1 n=e5 v=0
8156 On ch=1 n=g3 v=76
8160 On ch=1 n=d#5 v=47
8160 On ch=1 n=f#5 v=60
8188 On ch=1 n=g4 v=0
8268 On ch=1 n=f#5 v=0
8268 On ch=1 n=d#5 v=0
8268 Par ch=1 c=64 v=0
8280 On ch=1 n=c6 v=52
8280 On ch=1 n=d#5 v=50
8388 On ch=1 n=d#5 v=0
8388 On ch=1 n=c6 v=0
8388 On ch=1 n=g3 v=0
8400 On ch=1 n=d5 v=51
8400 On ch=1 n=f5 v=58
8404 On ch=1 n=g4 v=73
8508 On ch=1 n=f5 v=0
8508 On ch=1 n=d5 v=0
8520 On ch=1 n=d5 v=48
8520 On ch=1 n=b5 v=57
8628 On ch=1 n=b5 v=0
8628 On ch=1 n=d5 v=0
8636 On ch=1 n=c4 v=78
8640 On ch=1 n=e5 v=43
8640 On ch=1 n=g5 v=45
8656 On ch=1 n=g4 v=0
8748 On ch=1 n=g5 v=0
8748 On ch=1 n=e5 v=0
8760 On ch=1 n=e5 v=48
8760 On ch=1 n=c6 v=50
8868 On ch=1 n=c6 v=0
8868 On ch=1 n=e5 v=0
8876 On ch=1 n=g#4 v=77
8880 On ch=1 n=g#5 v=47
8880 On ch=1 n=f5 v=39
8988 On ch=1 n=f5 v=0
8988 On ch=1 n=g#5 v=0
9000 On ch=1 n=f5 v=45
9000 On ch=1 n=d6 v=61
9108 On ch=1 n=d6 v=0
9108 On ch=1 n=f5 v=0
9120 On ch=1 n=f5 v=48
9120 On ch=1 n=d5 v=37
9228 On ch=1 n=d5 v=0
9228 On ch=1 n=f5 v=0
9240 On ch=1 n=d5 v=48
9240 On ch=1 n=b5 v=51
9348 On ch=1 n=b5 v=0
9348 On ch=1 n=d5 v=0
9360 On ch=1 n=d5 v=50
9360 On ch=1 n=b4 v=39
9364 On ch=1 n=g4 v=69
9376 On ch=1 n=g#4 v=0
9468 On ch=1 n=b4 v=0
9468 On ch=1 n=d5 v=0
9480 On ch=1 n=b4 v=44
9480 On ch=1 n=g5 v=50
9588 On ch=1 n=g5 v=0
9588 On ch=1 n=b4 v=0
9600 On ch=1 n=c5 v=48
9600 On ch=1 n=d#5 v=53
9604 On ch=1 n=f#4 v=72
9632 On ch=1 n=g4 v=0
9708 On ch=1 n=d#5 v=0
9708 On ch=1 n=c5 v=0
9720 On ch=1 n=a5 v=54
9720 On ch=1 n=c5 v=45
9828 On ch=1 n=c5 v=0
9828 On ch=1 n=a5 v=0
9840 On ch=1 n=d5 v=48
9840 On ch=1 n=g#5 v=57
9844 On ch=1 n=f4 v=75
9860 On ch=1 n=f#4 v=0
9892 On ch=1 n=c4 v=0
9940 On ch=1 n=f4 v=0
9948 On ch=1 n=g#5 v=0
9948 On ch=1 n=d5 v=0
9960 On ch=1 n=d5 v=45
9960 On ch=1 n=b5 v=48
10052 Par ch=1 c=64 v=127
10068 On ch=1 n=b5 v=0
10068 On ch=1 n=d5 v=0
10080 On ch=1 n=e5 v=39
10080 On ch=1 n=g5 v=39
10084 On ch=1 n=c3 v=79
10152 On ch=1 n=c3 v=0
10188 On ch=1 n=g5 v=0
10188 On ch=1 n=e5 v=0
10200 On ch=1 n=e5 v=45
10200 On ch=1 n=c6 v=46
10308 On ch=1 n=c6 v=0
10308 On ch=1 n=e5 v=0
10320 On ch=1 n=g#5 v=54
10320 On ch=1 n=f5 v=54
10324 On ch=1 n=c4 v=83
10340 Par ch=1 c=64 v=0
10428 On ch=1 n=f5 v=0
10428 On ch=1 n=g#5 v=0
10440 On ch=1 n=f5 v=47
10440 On ch=1 n=d6 v=62
10548 On ch=1 n=d6 v=0
10548 On ch=1 n=f5 v=0
10560 On ch=1 n=d5 v=48
10560 On ch=1 n=f5 v=53
10564 On ch=1 n=g#4 v=66
10668 On ch=1 n=f5 v=0
10668 On ch=1 n=d5 v=0
10680 On ch=1 n=b5 v=56
10680 On ch=1 n=d5 v=48
10784 On ch=1 n=g#4 v=0
10788 On ch=1 n=d5 v=0
10788 On ch=1 n=b5 v=0
10800 On ch=1 n=b4 v=44
10800 On ch=1 n=d5 v=42
10800 On ch=1 n=g4 v=68
10908 On ch=1 n=d5 v=0
10908 On ch=1 n=b4 v=0
10920 On ch=1 n=g5 v=49
10920 On ch=1 n=b4 v=40
11028 On ch=1 n=b4 v=0
11028 On ch=1 n=g5 v=0
11040 On ch=1 n=c5 v=48
11040 On ch=1 n=d#5 v=51
11044 On ch=1 n=f#4 v=68
11056 On ch=1 n=g4 v=0
11148 On ch=1 n=d#5 v=0
11148 On ch=1 n=c5 v=0
11160 On ch=1 n=a5 v=54
11160 On ch=1 n=c5 v=43
11268 On ch=1 n=c5 v=0
11268 On ch=1 n=a5 v=0
11280 On ch=1 n=g#5 v=57
11280 On ch=1 n=d5 v=49
11280 On ch=1 n=f4 v=68
11300 On ch=1 n=f#4 v=0
11340 On ch=1 n=c4 v=0
11388 On ch=1 n=d5 v=0
11388 On ch=1 n=g#5 v=0
11400 On ch=1 n=b5 v=50
11400 On ch=1 n=d5 v=45
11508 On ch=1 n=d5 v=0
11508 On ch=1 n=b5 v=0
11516 On ch=1 n=e4 v=72
11520 On ch=1 n=e5 v=41
11520 On ch=1 n=g5 v=47
11572 On ch=1 n=f4 v=0
11628 On ch=1 n=g5 v=0
11628 On ch=1 n=e5 v=0
11640 On ch=1 n=e5 v=51
11640 On ch=1 n=c6 v=55
11748 On ch=1 n=c6 v=0
11748 On ch=1 n=e5 v=0
11760 On ch=1 n=a#5 v=56
11760 On ch=1 n=g5 v=46
11764 On ch=1 n=c4 v=77
11788 On ch=1 n=e4 v=0
11868 On ch=1 n=g5 v=0
11868 On ch=1 n=a#5 v=0
11880 On ch=1 n=g5 v=51
11880 On ch=1 n=e6 v=56
11988 On ch=1 n=e6 v=0
11988 On ch=1 n=g5 v=0
11996 On ch=1 n=b3 v=75
12000 On ch=1 n=g5 v=42
12000 On ch=1 n=b5 v=59
12008 On ch=1 n=c4 v=0
12108 On ch=1 n=b5 v=0
12108 On ch=1 n=g5 v=0
12120 On ch=1 n=g5 v=45
12120 On ch=1 n=e6 v=56
12228 On ch=1 n=e6 v=0
12228 On ch=1 n=g5 v=0
12240 On ch=1 n=c#6 v=51
12240 On ch=1 n=g5 v=45
12244 On ch=1 n=a#3 v=78
12248 On ch=1 n=b3 v=0
12348 On ch=1 n=g5 v=0
12348 On ch=1 n=c#6 v=0
12360 On ch=1 n=g5 v=44
12360 On ch=1 n=e6 v=57
12468 On ch=1 n=e6 v=0
12468 On ch=1 n=g5 v=0
12476 On ch=1 n=b3 v=78
12480 On ch=1 n=b5 v=46
12480 On ch=1 n=e6 v=49
12484 On ch=1 n=a#3 v=0
12588 On ch=1 n=e6 v=0
12588 On ch=1 n=b5 v=0
12600 On ch=1 n=b5 v=51
12600 On ch=1 n=g6 v=56
12700 On ch=1 n=b3 v=0
12708 On ch=1 n=g6 v=0
12708 On ch=1 n=b5 v=0
12716 On ch=1 n=b4 v=79
12720 On ch=1 n=b5 v=56
12720 On ch=1 n=a5 v=45
12828 On ch=1 n=a5 v=0
12828 On ch=1 n=b5 v=0
12840 On ch=1 n=a5 v=47
12840 On ch=1 n=f#6 v=46
12932 On ch=1 n=b4 v=0
12948 On ch=1 n=f#6 v=0
12948 On ch=1 n=a5 v=0
12956 On ch=1 n=e4 v=85
12960 On ch=1 n=g5 v=45
12960 On ch=1 n=b5 v=52
12968 Par ch=1 c=64 v=127
13068 On ch=1 n=b5 v=0
13068 On ch=1 n=g5 v=0
13080 On ch=1 n=g5 v=47
13080 On ch=1 n=e6 v=52
13108 On ch=1 n=e4 v=0
13188 On ch=1 n=e6 v=0
13188 On ch=1 n=g5 v=0
13200 On ch=1 n=e6 v=56
13200 On ch=1 n=b5 v=45
13308 On ch=1 n=b5 v=0
13308 On ch=1 n=e6 v=0
13320 On ch=1 n=b5 v=47
13320 On ch=1 n=g6 v=52
13428 On ch=1 n=g6 v=0
13428 On ch=1 n=b5 v=0
13440 On ch=1 n=g6 v=54
13440 On ch=1 n=e6 v=45
13548 On ch=1 n=e6 v=0
13548 On ch=1 n=g6 v=0
13560 On ch=1 n=e6 v=47
13560 On ch=1 n=b6 v=56
13668 On ch=1 n=b6 v=0
13668 On ch=1 n=e6 v=0
13680 On ch=1 n=g6 v=45
13680 On ch=1 n=b6 v=51
13680 Par ch=1 c=64 v=0
13684 On ch=1 n=e5 v=71
13788 On ch=1 n=b6 v=0
13788 On ch=1 n=g6 v=0
13800 On ch=1 n=g6 v=47
13800 On ch=1 n=e7 v=55
13908 On ch=1 n=e7 v=0
13908 On ch=1 n=g6 v=0
13916 On ch=1 n=f5 v=72
13920 On ch=1 n=f6 v=40
13920 On ch=1 n=a6 v=58
13936 On ch=1 n=e5 v=0
14028 On ch=1 n=a6 v=0
14028 On ch=1 n=f6 v=0
14040 On ch=1 n=d7 v=58
14040 On ch=1 n=f6 v=46
14148 On ch=1 n=f6 v=0
14148 On ch=1 n=d7 v=0
14156 On ch=1 n=g5 v=69
14160 On ch=1 n=g6 v=54
14160 On ch=1 n=f6 v=45
14168 On ch=1 n=f5 v=0
14268 On ch=1 n=f6 v=0
14268 On ch=1 n=g6 v=0
14280 On ch=1 n=f6 v=37
14280 On ch=1 n=b6 v=51
14388 On ch=1 n=b6 v=0
14388 On ch=1 n=f6 v=0
14396 On ch=1 n=c5 v=65
14400 On ch=1 n=e6 v=43
14400 On ch=1 n=g6 v=57
14436 On ch=1 n=g5 v=0
14508 On ch=1 n=g6 v=0
14508 On ch=1 n=e6 v=0
14520 On ch=1 n=e6 v=50
14520 On ch=1 n=c7 v=55
14628 On ch=1 n=c7 v=0
14628 On ch=1 n=e6 v=0
14636 On ch=1 n=g#5 v=73
14640 On ch=1 n=g#6 v=51
14640 On ch=1 n=f6 v=45
14652 On ch=1 n=c5 v=0
14748 On ch=1 n=f6 v=0
14748 On ch=1 n=g#6 v=0
14760 On ch=1 n=d7 v=61
14760 On ch=1 n=f6 v=47
14868 On ch=1 n=f6 v=0
14868 On ch=1 n=d7 v=0
14880 On ch=1 n=f6 v=52
14880 On ch=1 n=d6 v=45
14988 On ch=1 n=d6 v=0
14988 On ch=1 n=f6 v=0
15000 On ch=1 n=d6 v=49
15000 On ch=1 n=b6 v=54
15108 On ch=1 n=b6 v=0
15108 On ch=1 n=d6 v=0
15120 On ch=1 n=b5 v=42
15120 On ch=1 n=d6 v=54
15124 On ch=1 n=g5 v=69
15164 On ch=1 n=g#5 v=0
15228 On ch=1 n=d6 v=0
15228 On ch=1 n=b5 v=0
15240 On ch=1 n=g6 v=52
15240 On ch=1 n=b5 v=47
15348 On ch=1 n=b5 v=0
15348 On ch=1 n=g6 v=0
15360 On ch=1 n=d#6 v=51
15360 On ch=1 n=c6 v=40
15364 On ch=1 n=f#5 v=69
15392 On ch=1 n=g5 v=0
15468 On ch=1 n=c6 v=0
15468 On ch=1 n=d#6 v=0
15480 On ch=1 n=c6 v=43
15480 On ch=1 n=a6 v=46
15588 On ch=1 n=a6 v=0
15588 On ch=1 n=c6 v=0
15596 On ch=1 n=f5 v=68
15600 On ch=1 n=d6 v=48
15600 On ch=1 n=g#6 v=50
15612 On ch=1 n=f#5 v=0
15696 On ch=1 n=f5 v=0
15708 On ch=1 n=g#6 v=0
15708 On ch=1 n=d6 v=0
15720 On ch=1 n=d6 v=49
15720 On ch=1 n=b6 v=51
15812 Par ch=1 c=64 v=127
15828 On ch=1 n=b6 v=0
15828 On ch=1 n=d6 v=0
15836 On ch=1 n=c4 v=73
15840 On ch=1 n=e6 v=45
15840 On ch=1 n=g6 v=52
15904 On ch=1 n=c4 v=0
15948 On ch=1 n=g6 v=0
15948 On ch=1 n=e6 v=0
15960 On ch=1 n=e6 v=42
15960 On ch=1 n=c7 v=48
16068 On ch=1 n=c7 v=0
16068 On ch=1 n=e6 v=0
16080 On ch=1 n=g#6 v=51
16080 On ch=1 n=f6 v=40
16080 On ch=1 n=c5 v=77
16128 Par ch=1 c=64 v=0
16188 On ch=1 n=f6 v=0
16188 On ch=1 n=g#6 v=0
16200 On ch=1 n=d7 v=60
16200 On ch=1 n=f6 v=48
16308 On ch=1 n=f6 v=0
16308 On ch=1 n=d7 v=0
16320 On ch=1 n=d6 v=39
16320 On ch=1 n=f6 v=44
16324 On ch=1 n=g#5 v=68
16428 On ch=1 n=f6 v=0
16428 On ch=1 n=d6 v=0
16440 On ch=1 n=d6 v=43
16440 On ch=1 n=b6 v=39
16548 On ch=1 n=b6 v=0
16548 On ch=1 n=d6 v=0
16556 On ch=1 n=g#5 v=0
16560 On ch=1 n=d6 v=56
16560 On ch=1 n=b5 v=44
16564 On ch=1 n=g5 v=72
16668 On ch=1 n=b5 v=0
16668 On ch=1 n=d6 v=0
16680 On ch=1 n=b5 v=46
16680 On ch=1 n=g6 v=51
16788 On ch=1 n=g6 v=0
16788 On ch=1 n=b5 v=0
16800 On ch=1 n=c6 v=46
16800 On ch=1 n=d#6 v=52
16800 On ch=1 n=f#5 v=69
16812 On ch=1 n=g5 v=0
16908 On ch=1 n=d#6 v=0
16908 On ch=1 n=c6 v=0
16920 On ch=1 n=c6 v=48
16920 On ch=1 n=a6 v=60
17024 On ch=1 n=f#5 v=0
17028 On ch=1 n=a6 v=0
17028 On ch=1 n=c6 v=0
17036 On ch=1 n=f5 v=72
17040 On ch=1 n=g#6 v=50
17040 On ch=1 n=d6 v=44
17148 On ch=1 n=d6 v=0
17148 On ch=1 n=g#6 v=0
17156 On ch=1 n=c5 v=0
17160 On ch=1 n=b6 v=47
17160 On ch=1 n=d6 v=43
17268 On ch=1 n=d6 v=0
17268 On ch=1 n=b6 v=0
17276 On ch=1 n=e5 v=74
17280 On ch=1 n=e6 v=43
17280 On ch=1 n=g6 v=55
17300 On ch=1 n=f5 v=0
17388 On ch=1 n=g6 v=0
17388 On ch=1 n=e6 v=0
17400 On ch=1 n=c7 v=45
17400 On ch=1 n=e6 v=45
17508 On ch=1 n=e6 v=0
17508 On ch=1 n=c7 v=0
17516 On ch=1 n=d5 v=73
17520 On ch=1 n=b6 v=60
17520 On ch=1 n=f6 v=50
17556 On ch=1 n=e5 v=0
17628 On ch=1 n=f6 v=0
17628 On ch=1 n=b6 v=0
17640 On ch=1 n=d7 v=54
17640 On ch=1 n=f6 v=48
17748 On ch=1 n=f6 v=0
17748 On ch=1 n=d7 v=0
17756 On ch=1 n=c#5 v=75
17760 On ch=1 n=a#6 v=55
17760 On ch=1 n=g6 v=42
17772 On ch=1 n=d5 v=0
17788 Par ch=1 c=64 v=127
17868 On ch=1 n=g6 v=0
17868 On ch=1 n=a#6 v=0
17880 On ch=1 n=g6 v=48
17880 On ch=1 n=e7 v=48
17988 On ch=1 n=e7 v=0
17988 On ch=1 n=g6 v=0
17996 On ch=1 n=a#5 v=57
17996 On ch=1 n=c#6 v=74
17996 On ch=1 n=g5 v=57
18000 On ch=1 n=e7 v=49
18000 On ch=1 n=a#6 v=44
18108 On ch=1 n=a#6 v=0
18108 On ch=1 n=e7 v=0
18108 On ch=1 n=c#5 v=0
18120 On ch=1 n=a#6 v=50
18120 On ch=1 n=g7 v=32
18192 On ch=1 n=g5 v=0
18200 On ch=1 n=a#5 v=0
18200 Par ch=1 c=64 v=0
18220 On ch=1 n=c#6 v=0
18228 On ch=1 n=g7 v=0
18228 On ch=1 n=a#6 v=0
18236 On ch=1 n=d6 v=72
18236 On ch=1 n=a5 v=55
18236 On ch=1 n=d5 v=55
18240 On ch=1 n=a6 v=48
18240 On ch=1 n=d7 v=51
18240 On ch=1 n=f5 v=55
18348 On ch=1 n=d7 v=0
18348 On ch=1 n=a6 v=0
18360 On ch=1 n=f7 v=45
18360 On ch=1 n=a6 v=45
18432 On ch=1 n=f5 v=0
18432 On ch=1 n=d5 v=0
18436 On ch=1 n=a5 v=0
18444 On ch=1 n=d6 v=0
18468 On ch=1 n=a6 v=0
18468 On ch=1 n=f7 v=0
18476 Par ch=1 c=64 v=127
18480 On ch=1 n=a6 v=54
18480 On ch=1 n=g6 v=47
18480 On ch=1 n=c#6 v=70
18484 On ch=1 n=a5 v=55
18484 On ch=1 n=e5 v=55
18484 On ch=1 n=g5 v=55
18588 On ch=1 n=g6 v=0
18588 On ch=1 n=a6 v=0
18600 On ch=1 n=g6 v=48
18600 On ch=1 n=e7 v=51
18652 On ch=1 n=e5 v=0
18656 On ch=1 n=g5 v=0
18656 On ch=1 n=a5 v=0
18672 On ch=1 n=c#6 v=0
18708 On ch=1 n=e7 v=0
18708 On ch=1 n=g6 v=0
18720 On ch=1 n=g6 v=45
18720 On ch=1 n=a6 v=51
18724 On ch=1 n=c#6 v=74
18724 On ch=1 n=g5 v=57
18724 On ch=1 n=e5 v=57
18724 On ch=1 n=a5 v=57
18820 On ch=1 n=e5 v=0
18828 On ch=1 n=a6 v=0
18828 On ch=1 n=g6 v=0
18840 On ch=1 n=g6 v=49
18840 On ch=1 n=e7 v=51
18868 On ch=1 n=a5 v=0
18868 On ch=1 n=g5 v=0
18880 On ch=1 n=c#6 v=0
18948 On ch=1 n=e7 v=0
18948 On ch=1 n=g6 v=0
18952 Par ch=1 c=64 v=0
18960 On ch=1 n=a6 v=51
18960 On ch=1 n=f6 v=36
18964 On ch=1 n=a5 v=63
18964 On ch=1 n=d6 v=72
18964 On ch=1 n=f5 v=63
19068 On ch=1 n=f6 v=0
19068 On ch=1 n=a6 v=0
19080 On ch=1 n=f6 v=47
19080 On ch=1 n=d7 v=42
19100 On ch=1 n=d6 v=0
19104 On ch=1 n=f5 v=0
19116 On ch=1 n=a5 v=0
19188 On ch=1 n=d7 v=0
19188 On ch=1 n=f6 v=0
19200 On ch=1 n=a6 v=56
19200 On ch=1 n=d#6 v=50
19204 On ch=1 n=a5 v=59
19204 On ch=1 n=f#5 v=71
19308 On ch=1 n=d#6 v=0
19308 On ch=1 n=a6 v=0
19320 On ch=1 n=d#6 v=45
19320 On ch=1 n=c7 v=55
19428 On ch=1 n=c7 v=0
19428 On ch=1 n=d#6 v=0
19440 On ch=1 n=e6 v=40
19440 On ch=1 n=g6 v=45
19444 On ch=1 n=g5 v=70
19464 On ch=1 n=a5 v=0
19472 On ch=1 n=f#5 v=0
19472 Par ch=1 c=64 v=127
19548 On ch=1 n=g6 v=0
19548 On ch=1 n=e6 v=0
19560 On ch=1 n=e6 v=45
19560 On ch=1 n=c7 v=47
19668 On ch=1 n=c7 v=0
19668 On ch=1 n=e6 v=0
19680 On ch=1 n=f#6 v=50
19680 On ch=1 n=d#6 v=39
19684 On ch=1 n=g4 v=65
19688 Par ch=1 c=64 v=0
19720 On ch=1 n=g5 v=0
19788 On ch=1 n=d#6 v=0
19788 On ch=1 n=f#6 v=0
19800 On ch=1 n=d#6 v=50
19800 On ch=1 n=c7 v=51
19908 On ch=1 n=c7 v=0
19908 On ch=1 n=d#6 v=0
19912 On ch=1 n=g4 v=0
19916 On ch=1 n=g5 v=68
19920 On ch=1 n=d6 v=45
19920 On ch=1 n=f6 v=51
19976 On ch=1 n=g5 v=0
20028 On ch=1 n=f6 v=0
20028 On ch=1 n=d6 v=0
20040 On ch=1 n=b6 v=54
20040 On ch=1 n=d6 v=44
20112 On ch=1 n=c4 v=65
20140 Par ch=1 c=64 v=127
20148 On ch=1 n=d6 v=0
20148 On ch=1 n=b6 v=0
20160 On ch=1 n=e6 v=44
20160 On ch=1 n=g6 v=56
20160 On ch=1 n=c5 v=69
20180 On ch=1 n=c4 v=0
20268 On ch=1 n=g6 v=0
20268 On ch=1 n=e6 v=0
20280 On ch=1 n=e6 v=44
20280 On ch=1 n=c7 v=54
20388 On ch=1 n=c7 v=0
20388 On ch=1 n=e6 v=0
20400 On ch=1 n=g#6 v=48
20400 On ch=1 n=f6 v=32
20400 On ch=1 n=g#5 v=70
20412 Par ch=1 c=64 v=0
20508 On ch=1 n=f6 v=0
20508 On ch=1 n=g#6 v=0
20520 On ch=1 n=d7 v=60
20520 On ch=1 n=f6 v=46
20628 On ch=1 n=f6 v=0
20628 On ch=1 n=d7 v=0
20640 On ch=1 n=f6 v=51
20640 On ch=1 n=d6 v=46
20748 On ch=1 n=d6 v=0
20748 On ch=1 n=f6 v=0
20760 On ch=1 n=d6 v=47
20760 On ch=1 n=b6 v=51
20868 On ch=1 n=b6 v=0
20868 On ch=1 n=d6 v=0
20872 On ch=1 n=g#5 v=0
20876 On ch=1 n=g5 v=56
20880 On ch=1 n=d6 v=55
20880 On ch=1 n=b5 v=36
20988 On ch=1 n=b5 v=0
20988 On ch=1 n=d6 v=0
21000 On ch=1 n=g6 v=54
21000 On ch=1 n=b5 v=45
21108 On ch=1 n=b5 v=0
21108 On ch=1 n=g6 v=0
21116 On ch=1 n=f#5 v=58
21120 On ch=1 n=c6 v=47
21120 On ch=1 n=d#6 v=56
21140 On ch=1 n=g5 v=0
21228 On ch=1 n=d#6 v=0
21228 On ch=1 n=c6 v=0
21240 On ch=1 n=c6 v=45
21240 On ch=1 n=a6 v=56
21336 On ch=1 n=f#5 v=0
21348 On ch=1 n=a6 v=0
21348 On ch=1 n=c6 v=0
21356 On ch=1 n=f5 v=56
21360 On ch=1 n=g#6 v=56
21360 On ch=1 n=d6 v=47
21468 On ch=1 n=d6 v=0
21468 On ch=1 n=g#6 v=0
21480 On ch=1 n=c5 v=0
21480 On ch=1 n=d6 v=43
21480 On ch=1 n=b6 v=46
21488 On ch=1 n=f5 v=0
21588 On ch=1 n=b6 v=0
21588 On ch=1 n=d6 v=0
21596 Par ch=1 c=64 v=127
21600 On ch=1 n=g6 v=45
21600 On ch=1 n=e6 v=39
21604 On ch=1 n=c4 v=62
21708 On ch=1 n=e6 v=0
21708 On ch=1 n=g6 v=0
21716 On ch=1 n=c4 v=0
21720 On ch=1 n=e6 v=47
21720 On ch=1 n=c7 v=50
21828 On ch=1 n=c7 v=0
21828 On ch=1 n=e6 v=0
21840 On ch=1 n=g#6 v=54
21840 On ch=1 n=f6 v=35
21840 On ch=1 n=c5 v=62
21860 Par ch=1 c=64 v=0
21948 On ch=1 n=f6 v=0
21948 On ch=1 n=g#6 v=0
21960 On ch=1 n=d7 v=62
21960 On ch=1 n=f6 v=49
22068 On ch=1 n=f6 v=0
22068 On ch=1 n=d7 v=0
22080 On ch=1 n=f6 v=50
22080 On ch=1 n=d6 v=41
22084 On ch=1 n=g#5 v=68
22188 On ch=1 n=d6 v=0
22188 On ch=1 n=f6 v=0
22200 On ch=1 n=d6 v=39
22200 On ch=1 n=b6 v=48
22308 On ch=1 n=b6 v=0
22308 On ch=1 n=d6 v=0
22316 On ch=1 n=g5 v=65
22320 On ch=1 n=b5 v=34
22320 On ch=1 n=d6 v=43
22324 On ch=1 n=g#5 v=0
22428 On ch=1 n=d6 v=0
22428 On ch=1 n=b5 v=0
22440 On ch=1 n=b5 v=39
22440 On ch=1 n=g6 v=41
22548 On ch=1 n=g6 v=0
22548 On ch=1 n=b5 v=0
22560 On ch=1 n=d#6 v=48
22560 On ch=1 n=c6 v=41
22560 On ch=1 n=f#5 v=63
22584 On ch=1 n=g5 v=0
22668 On ch=1 n=c6 v=0
22668 On ch=1 n=d#6 v=0
22680 On ch=1 n=a6 v=48
22680 On ch=1 n=c6 v=37
22768 On ch=1 n=f#5 v=0
22788 On ch=1 n=c6 v=0
22788 On ch=1 n=a6 v=0
22796 On ch=1 n=f5 v=65
22800 On ch=1 n=d6 v=46
22800 On ch=1 n=g#6 v=56
22908 On ch=1 n=g#6 v=0
22908 On ch=1 n=d6 v=0
22908 On ch=1 n=c5 v=0
22920 On ch=1 n=b6 v=50
22920 On ch=1 n=d6 v=36
23028 On ch=1 n=d6 v=0
23028 On ch=1 n=b6 v=0
23036 On ch=1 n=e5 v=62
23040 On ch=1 n=e6 v=43
23040 On ch=1 n=g6 v=50
23064 On ch=1 n=f5 v=0
23068 Par ch=1 c=64 v=127
23148 On ch=1 n=g6 v=0
23148 On ch=1 n=e6 v=0
23160 On ch=1 n=e6 v=40
23160 On ch=1 n=c7 v=44
23268 On ch=1 n=c7 v=0
23268 On ch=1 n=e6 v=0
23276 On ch=1 n=c5 v=66
23280 On ch=1 n=a#6 v=56
23280 On ch=1 n=g6 v=39
23328 On ch=1 n=e5 v=0
23336 Par ch=1 c=64 v=0
23388 On ch=1 n=g6 v=0
23388 On ch=1 n=a#6 v=0
23400 On ch=1 n=g6 v=49
23400 On ch=1 n=e7 v=50
23508 On ch=1 n=e7 v=0
23508 On ch=1 n=g6 v=0
23516 On ch=1 n=b4 v=67
23520 On ch=1 n=c5 v=0
23520 On ch=1 n=g6 v=43
23520 On ch=1 n=b6 v=51
23628 On ch=1 n=b6 v=0
23628 On ch=1 n=g6 v=0
23640 On ch=1 n=g6 v=45
23640 On ch=1 n=e7 v=51
23748 On ch=1 n=e7 v=0
23748 On ch=1 n=g6 v=0
23756 On ch=1 n=a#4 v=70
23760 On ch=1 n=c#7 v=53
23760 On ch=1 n=g6 v=48
23772 On ch=1 n=b4 v=0
23800 Par ch=1 c=64 v=127
23868 On ch=1 n=g6 v=0
23868 On ch=1 n=c#7 v=0
23880 On ch=1 n=e7 v=47
23880 On ch=1 n=g6 v=36
23988 On ch=1 n=g6 v=0
23988 On ch=1 n=e7 v=0
23988 On ch=1 n=a#4 v=0
23996 On ch=1 n=b4 v=70
24000 On ch=1 n=e7 v=60
24000 On ch=1 n=b6 v=47
24072 Par ch=1 c=64 v=0
24108 On ch=1 n=b6 v=0
24108 On ch=1 n=e7 v=0
24120 On ch=1 n=b6 v=47
24120 On ch=1 n=g7 v=51
24228 On ch=1 n=g7 v=0
24228 On ch=1 n=b6 v=0
24240 On ch=1 n=a6 v=45
24240 On ch=1 n=b6 v=57
24244 On ch=1 n=b3 v=69
24296 On ch=1 n=b4 v=0
24348 On ch=1 n=b6 v=0
24348 On ch=1 n=a6 v=0
24360 On ch=1 n=a6 v=51
24360 On ch=1 n=f#7 v=56
24468 On ch=1 n=f#7 v=0
24468 On ch=1 n=a6 v=0
24468 On ch=1 n=b3 v=0
24468 Par ch=1 c=64 v=127
24476 On ch=1 n=e3 v=67
24480 On ch=1 n=g6 v=42
24480 On ch=1 n=b6 v=54
24556 On ch=1 n=e3 v=0
24588 On ch=1 n=b6 v=0
24588 On ch=1 n=g6 v=0
24600 On ch=1 n=g6 v=49
24600 On ch=1 n=e7 v=52
24708 On ch=1 n=e7 v=0
24708 On ch=1 n=g6 v=0
24716 On ch=1 n=g4 v=65
24720 On ch=1 n=g6 v=50
24720 On ch=1 n=b6 v=58
24828 On ch=1 n=b6 v=0
24828 On ch=1 n=g6 v=0
24840 On ch=1 n=g6 v=54
24840 On ch=1 n=e7 v=50
24948 On ch=1 n=e7 v=0
24948 On ch=1 n=g6 v=0
24956 On ch=1 n=e4 v=62
24960 On ch=1 n=g6 v=47
24960 On ch=1 n=b6 v=55
24968 On ch=1 n=g4 v=0
25068 On ch=1 n=b6 v=0
25068 On ch=1 n=g6 v=0
25080 On ch=1 n=e7 v=51
25080 On ch=1 n=g6 v=46
25144 On ch=1 n=e4 v=0
25188 On ch=1 n=g6 v=0
25188 On ch=1 n=e7 v=0
25200 On ch=1 n=g6 v=45
25200 On ch=1 n=b6 v=58
25204 On ch=1 n=g5 v=62
25308 On ch=1 n=b6 v=0
25308 On ch=1 n=g6 v=0
25320 On ch=1 n=g6 v=45
25320 On ch=1 n=e7 v=38
25428 On ch=1 n=e7 v=0
25428 On ch=1 n=g6 v=0
25440 On ch=1 n=g6 v=43
25440 On ch=1 n=b6 v=55
25548 On ch=1 n=b6 v=0
25548 On ch=1 n=g6 v=0
25560 On ch=1 n=g6 v=45
25560 On ch=1 n=e7 v=37
25668 On ch=1 n=e7 v=0
25668 On ch=1 n=g6 v=0
25668 On ch=1 n=g5 v=0
25676 On ch=1 n=d5 v=56
25680 On ch=1 n=a#6 v=53
25680 On ch=1 n=g6 v=44
25788 On ch=1 n=g6 v=0
25788 On ch=1 n=a#6 v=0
25800 On ch=1 n=g6 v=45
25800 On ch=1 n=e7 v=42
25836 On ch=1 n=d5 v=0
25852 Par ch=1 c=64 v=0
25904 Par ch=1 c=64 v=127
25908 On ch=1 n=e7 v=0
25908 On ch=1 n=g6 v=0
25920 On ch=1 n=g6 v=47
25920 On ch=1 n=a6 v=51
25924 On ch=1 n=a3 v=68
25972 On ch=1 n=a3 v=0
26028 On ch=1 n=a6 v=0
26028 On ch=1 n=g6 v=0
26040 On ch=1 n=g6 v=42
26040 On ch=1 n=e7 v=47
26148 On ch=1 n=e7 v=0
26148 On ch=1 n=g6 v=0
26160 On ch=1 n=g6 v=45
26160 On ch=1 n=a6 v=50
26164 On ch=1 n=c#5 v=69
26268 On ch=1 n=a6 v=0
26268 On ch=1 n=g6 v=0
26272 On ch=1 n=c#5 v=0
26276 On ch=1 n=e4 v=68
26280 On ch=1 n=g6 v=51
26280 On ch=1 n=e7 v=50
26388 On ch=1 n=e7 v=0
26388 On ch=1 n=g6 v=0
26396 On ch=1 n=a3 v=68
26400 On ch=1 n=g6 v=43
26400 On ch=1 n=a6 v=46
26404 On ch=1 n=e4 v=0
26480 Par ch=1 c=64 v=0
26508 On ch=1 n=a6 v=0
26508 On ch=1 n=g6 v=0
26520 On ch=1 n=g6 v=45
26520 On ch=1 n=e7 v=45
26528 On ch=1 n=a3 v=0
26608 Par ch=1 c=64 v=127
26628 On ch=1 n=e7 v=0
26628 On ch=1 n=g6 v=0
26640 On ch=1 n=g6 v=41
26640 On ch=1 n=a6 v=50
26644 On ch=1 n=a2 v=74
26672 On ch=1 n=a2 v=0
26748 On ch=1 n=a6 v=0
26748 On ch=1 n=g6 v=0
26760 On ch=1 n=g6 v=45
26760 On ch=1 n=e7 v=48
26868 On ch=1 n=e7 v=0
26868 On ch=1 n=g6 v=0
26876 On ch=1 n=c#5 v=68
26880 On ch=1 n=a6 v=54
26880 On ch=1 n=g6 v=45
26988 On ch=1 n=g6 v=0
26988 On ch=1 n=a6 v=0
26988 On ch=1 n=c#5 v=0
26996 On ch=1 n=e4 v=71
27000 On ch=1 n=g6 v=44
27000 On ch=1 n=f7 v=45
27108 On ch=1 n=f7 v=0
27108 On ch=1 n=g6 v=0
27116 On ch=1 n=a3 v=72
27120 On ch=1 n=a6 v=58
27120 On ch=1 n=g6 v=40
27128 On ch=1 n=e4 v=0
27220 On ch=1 n=a3 v=0
27228 On ch=1 n=g6 v=0
27228 On ch=1 n=a6 v=0
27228 Par ch=1 c=64 v=0
27240 On ch=1 n=g6 v=45
27240 On ch=1 n=e7 v=51
27344 Par ch=1 c=64 v=127
27348 On ch=1 n=e7 v=0
27348 On ch=1 n=g6 v=0
27360 On ch=1 n=g6 v=41
27360 On ch=1 n=a6 v=46
27360 On ch=1 n=d3 v=72
27392 On ch=1 n=d3 v=0
27468 On ch=1 n=a6 v=0
27468 On ch=1 n=g6 v=0
27480 On ch=1 n=g6 v=45
27480 On ch=1 n=e7 v=50
27588 On ch=1 n=e7 v=0
27588 On ch=1 n=g6 v=0
27600 On ch=1 n=a6 v=51
27600 On ch=1 n=e6 v=44
27604 On ch=1 n=a5 v=68
27708 On ch=1 n=e6 v=0
27708 On ch=1 n=a6 v=0
27716 On ch=1 n=a4 v=68
27720 On ch=1 n=a5 v=0
27720 On ch=1 n=c#7 v=54
27720 On ch=1 n=e6 v=42
27828 On ch=1 n=e6 v=0
27828 On ch=1 n=c#7 v=0
27836 On ch=1 n=d4 v=69
27840 On ch=1 n=a4 v=0
27840 On ch=1 n=a6 v=55
27840 On ch=1 n=f6 v=42
27920 On ch=1 n=d4 v=0
27948 On ch=1 n=f6 v=0
27948 On ch=1 n=a6 v=0
27952 Par ch=1 c=64 v=0
27960 On ch=1 n=f6 v=44
27960 On ch=1 n=d7 v=45
28068 On ch=1 n=d7 v=0
28068 On ch=1 n=f6 v=0
28076 On ch=1 n=f5 v=71
28080 On ch=1 n=a6 v=46
28080 On ch=1 n=f6 v=36
28088 Par ch=1 c=64 v=127
28188 On ch=1 n=f6 v=0
28188 On ch=1 n=a6 v=0
28200 On ch=1 n=f6 v=46
28200 On ch=1 n=d7 v=46
28308 On ch=1 n=d7 v=0
28308 On ch=1 n=f6 v=0
28320 On ch=1 n=f6 v=44
28320 On ch=1 n=a6 v=51
28428 On ch=1 n=a6 v=0
28428 On ch=1 n=f6 v=0
28440 On ch=1 n=f6 v=45
28440 On ch=1 n=d7 v=41
28548 On ch=1 n=d7 v=0
28548 On ch=1 n=f6 v=0
28556 On ch=1 n=c5 v=68
28560 On ch=1 n=g#6 v=56
28560 On ch=1 n=f6 v=46
28600 On ch=1 n=f5 v=0
28652 On ch=1 n=c5 v=0
28668 On ch=1 n=f6 v=0
28668 On ch=1 n=g#6 v=0
28680 On ch=1 n=d7 v=50
28680 On ch=1 n=f6 v=42
28716 Par ch=1 c=64 v=0
28788 On ch=1 n=f6 v=0
28788 On ch=1 n=d7 v=0
28800 On ch=1 n=g6 v=54
28800 On ch=1 n=f6 v=45
28800 On ch=1 n=g3 v=68
28832 Par ch=1 c=64 v=127
28844 On ch=1 n=g3 v=0
28908 On ch=1 n=f6 v=0
28908 On ch=1 n=g6 v=0
28920 On ch=1 n=f6 v=44
28920 On ch=1 n=d7 v=49
29028 On ch=1 n=d7 v=0
29028 On ch=1 n=f6 v=0
29036 On ch=1 n=b4 v=68
29040 On ch=1 n=g6 v=51
29040 On ch=1 n=f6 v=45
29148 On ch=1 n=f6 v=0
29148 On ch=1 n=g6 v=0
29156 On ch=1 n=d4 v=67
29160 On ch=1 n=f6 v=43
29160 On ch=1 n=d7 v=48
29172 On ch=1 n=b4 v=0
29268 On ch=1 n=d7 v=0
29268 On ch=1 n=f6 v=0
29276 On ch=1 n=g3 v=70
29280 On ch=1 n=g6 v=51
29280 On ch=1 n=f6 v=43
29288 On ch=1 n=d4 v=0
29324 On ch=1 n=g3 v=0
29388 On ch=1 n=f6 v=0
29388 On ch=1 n=g6 v=0
29388 Par ch=1 c=64 v=0
29400 On ch=1 n=f6 v=41
29400 On ch=1 n=d7 v=47
29480 Par ch=1 c=64 v=127
29508 On ch=1 n=d7 v=0
29508 On ch=1 n=f6 v=0
29516 On ch=1 n=g2 v=70
29520 On ch=1 n=g6 v=50
29520 On ch=1 n=f6 v=41
29552 On ch=1 n=g2 v=0
29628 On ch=1 n=f6 v=0
29628 On ch=1 n=g6 v=0
29640 On ch=1 n=f6 v=40
29640 On ch=1 n=d7 v=45
29748 On ch=1 n=d7 v=0
29748 On ch=1 n=f6 v=0
29760 On ch=1 n=g6 v=51
29760 On ch=1 n=f6 v=42
29764 On ch=1 n=b4 v=69
29868 On ch=1 n=f6 v=0
29868 On ch=1 n=g6 v=0
29880 On ch=1 n=e7 v=57
29880 On ch=1 n=f6 v=48
29884 On ch=1 n=b4 v=0
29884 On ch=1 n=d4 v=71
29988 On ch=1 n=f6 v=0
29988 On ch=1 n=e7 v=0
30000 On ch=1 n=g6 v=42
30000 On ch=1 n=f6 v=37
30000 On ch=1 n=g3 v=71
30020 On ch=1 n=d4 v=0
30064 On ch=1 n=g3 v=0
30108 On ch=1 n=f6 v=0
30108 On ch=1 n=g6 v=0
30112 Par ch=1 c=64 v=0
30120 On ch=1 n=f6 v=47
30120 On ch=1 n=d7 v=47
30212 Par ch=1 c=64 v=127
30228 On ch=1 n=d7 v=0
30228 On ch=1 n=f6 v=0
30236 On ch=1 n=c3 v=69
30240 On ch=1 n=g6 v=48
30240 On ch=1 n=f6 v=42
30288 On ch=1 n=c3 v=0
30348 On ch=1 n=f6 v=0
30348 On ch=1 n=g6 v=0
30360 On ch=1 n=f6 v=43
30360 On ch=1 n=d7 v=45
30468 On ch=1 n=d7 v=0
30468 On ch=1 n=f6 v=0
30476 On ch=1 n=g5 v=69
30480 On ch=1 n=g6 v=52
30480 On ch=1 n=d6 v=45
30588 On ch=1 n=d6 v=0
30588 On ch=1 n=g6 v=0
30588 On ch=1 n=g5 v=0
30596 On ch=1 n=g4 v=73
30600 On ch=1 n=b6 v=55
30600 On ch=1 n=d6 v=45
30708 On ch=1 n=d6 v=0
30708 On ch=1 n=b6 v=0
30716 On ch=1 n=g4 v=0
30716 On ch=1 n=c4 v=70
30720 On ch=1 n=g6 v=51
30720 On ch=1 n=e6 v=44
30780 On ch=1 n=c4 v=0
30812 Par ch=1 c=64 v=0
30828 On ch=1 n=e6 v=0
30828 On ch=1 n=g6 v=0
30840 On ch=1 n=e6 v=43
30840 On ch=1 n=c7 v=48
30948 On ch=1 n=c7 v=0
30948 On ch=1 n=e6 v=0
30952 Par ch=1 c=64 v=127
30956 On ch=1 n=e5 v=73
30960 On ch=1 n=e6 v=42
30960 On ch=1 n=g6 v=51
31068 On ch=1 n=g6 v=0
31068 On ch=1 n=e6 v=0
31080 On ch=1 n=e6 v=42
31080 On ch=1 n=c7 v=42
31188 On ch=1 n=c7 v=0
31188 On ch=1 n=e6 v=0
31200 On ch=1 n=e6 v=39
31200 On ch=1 n=g6 v=53
31308 On ch=1 n=g6 v=0
31308 On ch=1 n=e6 v=0
31320 On ch=1 n=e6 v=41
31320 On ch=1 n=c7 v=48
31428 On ch=1 n=c7 v=0
31428 On ch=1 n=e6 v=0
31436 On ch=1 n=a4 v=68
31440 On ch=1 n=g6 v=49
31440 On ch=1 n=d6 v=23
31460 On ch=1 n=e5 v=0
31540 Par ch=1 c=64 v=0
31544 On ch=1 n=a4 v=0
31548 On ch=1 n=d6 v=0
31548 On ch=1 n=g6 v=0
31560 On ch=1 n=b6 v=46
31560 On ch=1 n=d6 v=41
31668 On ch=1 n=d6 v=0
31668 On ch=1 n=b6 v=0
31676 On ch=1 n=d3 v=68
31680 On ch=1 n=c6 v=51
31680 On ch=1 n=d6 v=51
31688 Par ch=1 c=64 v=127
31752 On ch=1 n=d3 v=0
31788 On ch=1 n=d6 v=0
31788 On ch=1 n=c6 v=0
31800 On ch=1 n=c6 v=46
31800 On ch=1 n=a6 v=50
31908 On ch=1 n=a6 v=0
31908 On ch=1 n=c6 v=0
31916 On ch=1 n=f#5 v=73
31920 On ch=1 n=c6 v=45
31920 On ch=1 n=d6 v=48
32028 On ch=1 n=d6 v=0
32028 On ch=1 n=c6 v=0
32028 On ch=1 n=f#5 v=0
32036 On ch=1 n=a4 v=69
32040 On ch=1 n=a6 v=49
32040 On ch=1 n=c6 v=43
32148 On ch=1 n=c6 v=0
32148 On ch=1 n=a6 v=0
32152 On ch=1 n=a4 v=0
32160 On ch=1 n=c6 v=47
32160 On ch=1 n=d6 v=50
32160 On ch=1 n=d4 v=70
32204 On ch=1 n=d4 v=0
32244 Par ch=1 c=64 v=0
32268 On ch=1 n=d6 v=0
32268 On ch=1 n=c6 v=0
32280 On ch=1 n=c6 v=46
32280 On ch=1 n=a6 v=51
32376 Par ch=1 c=64 v=127
32388 On ch=1 n=a6 v=0
32388 On ch=1 n=c6 v=0
32396 On ch=1 n=d3 v=71
32400 On ch=1 n=c6 v=44
32400 On ch=1 n=d6 v=46
32428 On ch=1 n=d3 v=0
32508 On ch=1 n=d6 v=0
32508 On ch=1 n=c6 v=0
32520 On ch=1 n=c6 v=45
32520 On ch=1 n=a6 v=45
32628 On ch=1 n=a6 v=0
32628 On ch=1 n=c6 v=0
32640 On ch=1 n=d6 v=51
32640 On ch=1 n=c6 v=41
32644 On ch=1 n=f#5 v=72
32740 On ch=1 n=f#5 v=0
32748 On ch=1 n=c6 v=0
32748 On ch=1 n=d6 v=0
32756 On ch=1 n=a4 v=73
32760 On ch=1 n=c6 v=50
32760 On ch=1 n=b6 v=55
32868 On ch=1 n=b6 v=0
32868 On ch=1 n=c6 v=0
32872 On ch=1 n=a4 v=0
32876 On ch=1 n=d4 v=71
32880 On ch=1 n=c6 v=48
32880 On ch=1 n=d6 v=50
32924 On ch=1 n=d4 v=0
32932 Par ch=1 c=64 v=0
32988 On ch=1 n=d6 v=0
32988 On ch=1 n=c6 v=0
33000 On ch=1 n=c6 v=50
33000 On ch=1 n=a6 v=48
33104 Par ch=1 c=64 v=127
33108 On ch=1 n=a6 v=0
33108 On ch=1 n=c6 v=0
33116 On ch=1 n=g3 v=76
33120 On ch=1 n=b5 v=50
33120 On ch=1 n=d6 v=54
33228 On ch=1 n=d6 v=0
33228 On ch=1 n=b5 v=0
33240 On ch=1 n=b5 v=52
33240 On ch=1 n=d#6 v=56
33348 On ch=1 n=d#6 v=0
33348 On ch=1 n=b5 v=0
33360 On ch=1 n=b5 v=51
33360 On ch=1 n=d6 v=58
33468 On ch=1 n=d6 v=0
33468 On ch=1 n=b5 v=0
33476 On ch=1 n=d4 v=73
33480 On ch=1 n=b5 v=45
33480 On ch=1 n=e6 v=57
33512 On ch=1 n=g3 v=0
33584 Par ch=1 c=64 v=0
33588 On ch=1 n=e6 v=0
33588 On ch=1 n=b5 v=0
33596 On ch=1 n=d4 v=0
33596 On ch=1 n=g4 v=72
33600 On ch=1 n=d6 v=55
33600 On ch=1 n=b5 v=43
33708 On ch=1 n=b5 v=0
33708 On ch=1 n=d6 v=0
33716 On ch=1 n=a4 v=73
33720 On ch=1 n=b5 v=42
33720 On ch=1 n=f6 v=48
33732 On ch=1 n=g4 v=0
33828 On ch=1 n=f6 v=0
33828 On ch=1 n=b5 v=0
33828 Par ch=1 c=64 v=127
33836 On ch=1 n=b4 v=75
33840 On ch=1 n=a4 v=0
33840 On ch=1 n=d6 v=56
33840 On ch=1 n=b5 v=51
33948 On ch=1 n=b5 v=0
33948 On ch=1 n=d6 v=0
33960 On ch=1 n=b5 v=49
33960 On ch=1 n=f#6 v=54
34068 On ch=1 n=f#6 v=0
34068 On ch=1 n=b5 v=0
34080 On ch=1 n=b5 v=48
34080 On ch=1 n=d6 v=51
34188 On ch=1 n=d6 v=0
34188 On ch=1 n=b5 v=0
34200 On ch=1 n=b5 v=46
34200 On ch=1 n=g6 v=54
34204 On ch=1 n=a4 v=73
34216 On ch=1 n=b4 v=0
34308 On ch=1 n=a4 v=0
34308 On ch=1 n=g6 v=0
34308 On ch=1 n=b5 v=0
34320 On ch=1 n=d6 v=53
34320 On ch=1 n=b5 v=29
34320 On ch=1 n=g4 v=74
34336 Par ch=1 c=64 v=0
34428 On ch=1 n=b5 v=0
34428 On ch=1 n=d6 v=0
34440 On ch=1 n=b5 v=48
34440 On ch=1 n=g#6 v=47
34440 On ch=1 n=d4 v=74
34460 On ch=1 n=g4 v=0
34504 On ch=1 n=d4 v=0
34548 On ch=1 n=g#6 v=0
34548 On ch=1 n=b5 v=0
34560 On ch=1 n=c6 v=41
34560 On ch=1 n=d6 v=40
34560 On ch=1 n=d3 v=77
34572 Par ch=1 c=64 v=127
34608 On ch=1 n=d3 v=0
34668 On ch=1 n=d6 v=0
34668 On ch=1 n=c6 v=0
34680 On ch=1 n=c6 v=43
34680 On ch=1 n=a6 v=48
34788 On ch=1 n=a6 v=0
34788 On ch=1 n=c6 v=0
34796 On ch=1 n=f#5 v=73
34800 On ch=1 n=c6 v=44
34800 On ch=1 n=d6 v=44
34908 On ch=1 n=d6 v=0
34908 On ch=1 n=c6 v=0
34912 On ch=1 n=f#5 v=0
34916 On ch=1 n=a4 v=74
34920 On ch=1 n=c6 v=45
34920 On ch=1 n=a6 v=45
35028 On ch=1 n=a6 v=0
35028 On ch=1 n=c6 v=0
35040 On ch=1 n=a4 v=0
35040 On ch=1 n=d6 v=47
35040 On ch=1 n=c6 v=45
35040 On ch=1 n=d4 v=75
35096 On ch=1 n=d4 v=0
35132 Par ch=1 c=64 v=0
35148 On ch=1 n=c6 v=0
35148 On ch=1 n=d6 v=0
35160 On ch=1 n=c6 v=46
35160 On ch=1 n=a6 v=48
35252 Par ch=1 c=64 v=127
35268 On ch=1 n=a6 v=0
35268 On ch=1 n=c6 v=0
35280 On ch=1 n=d6 v=48
35280 On ch=1 n=c6 v=45
35280 On ch=1 n=d3 v=77
35316 On ch=1 n=d3 v=0
35388 On ch=1 n=c6 v=0
35388 On ch=1 n=d6 v=0
35400 On ch=1 n=c6 v=42
35400 On ch=1 n=a6 v=46
35508 On ch=1 n=a6 v=0
35508 On ch=1 n=c6 v=0
35520 On ch=1 n=d6 v=47
35520 On ch=1 n=c6 v=45
35524 On ch=1 n=f#5 v=69
35604 On ch=1 n=f#5 v=0
35628 On ch=1 n=c6 v=0
35628 On ch=1 n=d6 v=0
35636 On ch=1 n=a4 v=71
35640 On ch=1 n=b6 v=49
35640 On ch=1 n=c6 v=37
35748 On ch=1 n=c6 v=0
35748 On ch=1 n=b6 v=0
35756 On ch=1 n=d4 v=68
35760 On ch=1 n=a4 v=0
35760 On ch=1 n=d6 v=49
35760 On ch=1 n=c6 v=43
35804 On ch=1 n=d4 v=0
35868 On ch=1 n=c6 v=0
35868 On ch=1 n=d6 v=0
35880 On ch=1 n=c6 v=47
35880 On ch=1 n=a6 v=49
35892 Par ch=1 c=64 v=0
35988 On ch=1 n=a6 v=0
35988 On ch=1 n=c6 v=0
35996 On ch=1 n=g4 v=65
35996 On ch=1 n=b4 v=60
35996 On ch=1 n=g5 v=80
36000 On ch=1 n=b5 v=36
36000 On ch=1 n=d6 v=46
36100 On ch=1 n=g4 v=0
36108 On ch=1 n=d6 v=0
36108 On ch=1 n=b5 v=0
36120 On ch=1 n=b4 v=0
36120 On ch=1 n=b5 v=49
36120 On ch=1 n=g6 v=49
36128 On ch=1 n=g5 v=0
36164 On ch=1 n=f4 v=76
36196 On ch=1 n=c5 v=67
36212 On ch=1 n=d#5 v=69
36212 Par ch=1 c=64 v=127
36228 On ch=1 n=g6 v=0
36228 On ch=1 n=b5 v=0
36236 On ch=1 n=f4 v=0
36240 On ch=1 n=d#6 v=51
36240 On ch=1 n=c6 v=45
36260 On ch=1 n=g#5 v=85
36348 On ch=1 n=c6 v=0
36348 On ch=1 n=d#6 v=0
36360 On ch=1 n=g#6 v=66
36360 On ch=1 n=c6 v=69
36376 On ch=1 n=c5 v=0
36388 On ch=1 n=g#5 v=0
36388 On ch=1 n=d#5 v=0
36468 On ch=1 n=c6 v=0
36468 On ch=1 n=g#6 v=0
36480 On ch=1 n=c6 v=40
36480 On ch=1 n=g#5 v=37
36588 On ch=1 n=g#5 v=0
36588 On ch=1 n=c6 v=0
36600 On ch=1 n=g#5 v=39
36600 On ch=1 n=f6 v=48
36708 On ch=1 n=f6 v=0
36708 On ch=1 n=g#5 v=0
36720 On ch=1 n=g#5 v=47
36720 On ch=1 n=f5 v=38
36828 On ch=1 n=f5 v=0
36828 On ch=1 n=g#5 v=0
36840 On ch=1 n=f5 v=35
36840 On ch=1 n=d6 v=39
36896 Par ch=1 c=64 v=0
36948 On ch=1 n=d6 v=0
36948 On ch=1 n=f5 v=0
36956 On ch=1 n=f3 v=72
36960 On ch=1 n=g#5 v=46
36960 On ch=1 n=f5 v=36
36960 On ch=1 n=f4 v=85
37068 On ch=1 n=f5 v=0
37068 On ch=1 n=g#5 v=0
37080 On ch=1 n=f5 v=41
37080 On ch=1 n=d6 v=43
37140 On ch=1 n=f4 v=0
37188 On ch=1 n=d6 v=0
37188 On ch=1 n=f5 v=0
37200 On ch=1 n=a5 v=58
37200 On ch=1 n=d#5 v=37
37204 On ch=1 n=f#3 v=65
37204 On ch=1 n=f#4 v=84
37280 On ch=1 n=f3 v=0
37308 On ch=1 n=d#5 v=0
37308 On ch=1 n=a5 v=0
37320 On ch=1 n=d#5 v=45
37320 On ch=1 n=c6 v=54
37412 On ch=1 n=f#4 v=0
37416 On ch=1 n=f#3 v=0
37428 On ch=1 n=c6 v=0
37428 On ch=1 n=d#5 v=0
37436 On ch=1 n=g3 v=62
37436 On ch=1 n=g4 v=83
37440 On ch=1 n=d5 v=37
37440 On ch=1 n=g5 v=55
37540 On ch=1 n=g3 v=0
37548 On ch=1 n=g5 v=0
37548 On ch=1 n=d5 v=0
37560 On ch=1 n=g4 v=0
37560 On ch=1 n=b5 v=48
37560 On ch=1 n=d5 v=36
37568 Par ch=1 c=64 v=127
37580 On ch=1 n=f3 v=67
37624 On ch=1 n=c4 v=67
37640 On ch=1 n=d#4 v=70
37648 On ch=1 n=f3 v=0
37668 On ch=1 n=d5 v=0
37668 On ch=1 n=b5 v=0
37680 On ch=1 n=d#5 v=50
37680 On ch=1 n=c5 v=40
37688 On ch=1 n=g#4 v=82
37740 On ch=1 n=g#4 v=0
37740 On ch=1 n=d#4 v=0
37752 On ch=1 n=c4 v=0
37788 On ch=1 n=c5 v=0
37788 On ch=1 n=d#5 v=0
37800 On ch=1 n=c5 v=39
37800 On ch=1 n=g#5 v=49
37908 On ch=1 n=g#5 v=0
37908 On ch=1 n=c5 v=0
37920 On ch=1 n=c5 v=42
37920 On ch=1 n=g#4 v=40
38028 On ch=1 n=g#4 v=0
38028 On ch=1 n=c5 v=0
38040 On ch=1 n=f5 v=48
38040 On ch=1 n=g#4 v=45
38148 On ch=1 n=g#4 v=0
38148 On ch=1 n=f5 v=0
38160 On ch=1 n=f4 v=38
38160 On ch=1 n=g#4 v=45
38268 On ch=1 n=g#4 v=0
38268 On ch=1 n=f4 v=0
38280 On ch=1 n=d5 v=51
38280 On ch=1 n=f4 v=44
38360 Par ch=1 c=64 v=0
38388 On ch=1 n=f4 v=0
38388 On ch=1 n=d5 v=0
38396 On ch=1 n=f3 v=85
38396 On ch=1 n=f2 v=78
38400 On ch=1 n=g#4 v=59
38400 On ch=1 n=f4 v=59
38508 On ch=1 n=f4 v=0
38508 On ch=1 n=g#4 v=0
38520 On ch=1 n=f4 v=57
38520 On ch=1 n=d5 v=57
38592 On ch=1 n=f3 v=0
38628 On ch=1 n=d5 v=0
38628 On ch=1 n=f4 v=0
38640 On ch=1 n=a4 v=58
38640 On ch=1 n=d#4 v=58
38644 On ch=1 n=f#2 v=69
38644 On ch=1 n=f#3 v=85
38748 On ch=1 n=d#4 v=0
38748 On ch=1 n=a4 v=0
38760 On ch=1 n=f2 v=0
38760 On ch=1 n=d#4 v=62
38760 On ch=1 n=c5 v=62
38864 On ch=1 n=f#2 v=0
38868 On ch=1 n=c5 v=0
38868 On ch=1 n=d#4 v=0
38872 Par ch=1 c=64 v=127
38880 On ch=1 n=g4 v=67
38880 On ch=1 n=d4 v=67
38884 On ch=1 n=g2 v=90
38884 On ch=1 n=g3 v=92
38888 On ch=1 n=f#3 v=0
38988 On ch=1 n=d4 v=0
38988 On ch=1 n=g4 v=0
39000 On ch=1 n=b4 v=72
39000 On ch=1 n=d4 v=72
39108 On ch=1 n=d4 v=0
39108 On ch=1 n=b4 v=0
39120 On ch=1 n=a4 v=66
39120 On ch=1 n=f4 v=66
39228 On ch=1 n=f4 v=0
39228 On ch=1 n=a4 v=0
39240 On ch=1 n=d5 v=68
39240 On ch=1 n=f4 v=68
39256 Par ch=1 c=64 v=0
39348 On ch=1 n=f4 v=0
39348 On ch=1 n=d5 v=0
39360 On ch=1 n=g4 v=62
39360 On ch=1 n=e4 v=62
39468 On ch=1 n=e4 v=0
39468 On ch=1 n=g4 v=0
39480 On ch=1 n=e4 v=62
39480 On ch=1 n=c5 v=62
39588 On ch=1 n=c5 v=0
39588 On ch=1 n=e4 v=0
39600 On ch=1 n=b4 v=65
39600 On ch=1 n=g4 v=65
39608 Par ch=1 c=64 v=127
39708 On ch=1 n=g4 v=0
39708 On ch=1 n=b4 v=0
39720 On ch=1 n=e5 v=62
39720 On ch=1 n=g4 v=62
39828 On ch=1 n=g4 v=0
39828 On ch=1 n=e5 v=0
39840 On ch=1 n=a4 v=62
39840 On ch=1 n=f4 v=62
39948 On ch=1 n=f4 v=0
39948 On ch=1 n=a4 v=0
39960 On ch=1 n=f4 v=65
39960 On ch=1 n=d5 v=65
39992 Par ch=1 c=64 v=0
40068 On ch=1 n=d5 v=0
40068 On ch=1 n=f4 v=0
40080 On ch=1 n=c5 v=68
40080 On ch=1 n=a4 v=68
40188 On ch=1 n=a4 v=0
40188 On ch=1 n=c5 v=0
40200 On ch=1 n=a4 v=64
40200 On ch=1 n=f5 v=64
40308 On ch=1 n=f5 v=0
40308 On ch=1 n=a4 v=0
40320 On ch=1 n=b4 v=62
40320 On ch=1 n=g4 v=62
40340 Par ch=1 c=64 v=127
40428 On ch=1 n=g4 v=0
40428 On ch=1 n=b4 v=0
40440 On ch=1 n=g4 v=62
40440 On ch=1 n=e5 v=62
40548 On ch=1 n=e5 v=0
40548 On ch=1 n=g4 v=0
40560 On ch=1 n=d5 v=63
40560 On ch=1 n=b4 v=63
40668 On ch=1 n=b4 v=0
40668 On ch=1 n=d5 v=0
40680 On ch=1 n=b4 v=62
40680 On ch=1 n=g5 v=62
40688 Par ch=1 c=64 v=0
40788 On ch=1 n=g5 v=0
40788 On ch=1 n=b4 v=0
40800 On ch=1 n=c5 v=60
40800 On ch=1 n=a4 v=60
40908 On ch=1 n=a4 v=0
40908 On ch=1 n=c5 v=0
40920 On ch=1 n=f5 v=62
40920 On ch=1 n=a4 v=62
41028 On ch=1 n=a4 v=0
41028 On ch=1 n=f5 v=0
41040 On ch=1 n=e5 v=59
41040 On ch=1 n=c5 v=59
41040 Par ch=1 c=64 v=127
41148 On ch=1 n=c5 v=0
41148 On ch=1 n=e5 v=0
41160 On ch=1 n=c5 v=58
41160 On ch=1 n=a5 v=58
41268 On ch=1 n=a5 v=0
41268 On ch=1 n=c5 v=0
41280 On ch=1 n=d5 v=59
41280 On ch=1 n=b4 v=59
41388 On ch=1 n=b4 v=0
41388 On ch=1 n=d5 v=0
41400 On ch=1 n=g5 v=61
41400 On ch=1 n=b4 v=61
41432 Par ch=1 c=64 v=0
41508 On ch=1 n=b4 v=0
41508 On ch=1 n=g5 v=0
41520 On ch=1 n=f5 v=60
41520 On ch=1 n=d5 v=60
41628 On ch=1 n=d5 v=0
41628 On ch=1 n=f5 v=0
41640 On ch=1 n=b5 v=58
41640 On ch=1 n=d5 v=58
41732 Par ch=1 c=64 v=127
41748 On ch=1 n=d5 v=0
41748 On ch=1 n=b5 v=0
41760 On ch=1 n=e5 v=58
41760 On ch=1 n=c5 v=58
41868 On ch=1 n=c5 v=0
41868 On ch=1 n=e5 v=0
41880 On ch=1 n=c5 v=49
41880 On ch=1 n=a5 v=59
41988 On ch=1 n=a5 v=0
41988 On ch=1 n=c5 v=0
42000 On ch=1 n=f5 v=58
42000 On ch=1 n=d5 v=41
42032 Par ch=1 c=64 v=0
42108 On ch=1 n=d5 v=0
42108 On ch=1 n=f5 v=0
42120 On ch=1 n=b5 v=60
42120 On ch=1 n=d5 v=43
42228 On ch=1 n=d5 v=0
42228 On ch=1 n=b5 v=0
42240 On ch=1 n=g5 v=52
42240 On ch=1 n=e5 v=43
42348 On ch=1 n=e5 v=0
42348 On ch=1 n=g5 v=0
42360 On ch=1 n=c6 v=54
42360 On ch=1 n=e5 v=45
42468 On ch=1 n=e5 v=0
42468 On ch=1 n=c6 v=0
42480 On ch=1 n=a5 v=55
42480 On ch=1 n=f5 v=46
42588 On ch=1 n=f5 v=0
42588 On ch=1 n=a5 v=0
42600 On ch=1 n=d6 v=54
42600 On ch=1 n=f5 v=45
42708 On ch=1 n=f5 v=0
42708 On ch=1 n=d6 v=0
42720 On ch=1 n=b5 v=56
42720 On ch=1 n=g5 v=43
42828 On ch=1 n=g5 v=0
42828 On ch=1 n=b5 v=0
42840 On ch=1 n=g5 v=39
42840 On ch=1 n=e6 v=46
42948 On ch=1 n=e6 v=0
42948 On ch=1 n=g5 v=0
42960 On ch=1 n=c6 v=58
42960 On ch=1 n=a5 v=38
43068 On ch=1 n=a5 v=0
43068 On ch=1 n=c6 v=0
43080 On ch=1 n=a5 v=52
43080 On ch=1 n=f6 v=60
43140 On ch=1 n=g3 v=0
43140 On ch=1 n=g2 v=0
43188 On ch=1 n=f6 v=0
43188 On ch=1 n=a5 v=0
43200 On ch=1 n=d6 v=49
43200 On ch=1 n=b5 v=50
43308 On ch=1 n=b5 v=0
43308 On ch=1 n=d6 v=0
43320 On ch=1 n=b5 v=51
43320 On ch=1 n=g6 v=48
43428 On ch=1 n=g6 v=0
43428 On ch=1 n=b5 v=0
43440 On ch=1 n=d6 v=55
43440 On ch=1 n=c6 v=52
43444 On ch=1 n=f#5 v=74
43456 Par ch=1 c=64 v=127
43548 On ch=1 n=c6 v=0
43548 On ch=1 n=d6 v=0
43560 On ch=1 n=c6 v=49
43560 On ch=1 n=a6 v=51
43668 On ch=1 n=a6 v=0
43668 On ch=1 n=c6 v=0
43680 On ch=1 n=d6 v=52
43680 On ch=1 n=c6 v=50
43788 On ch=1 n=c6 v=0
43788 On ch=1 n=d6 v=0
43800 On ch=1 n=c6 v=43
43800 On ch=1 n=a6 v=48
43908 On ch=1 n=a6 v=0
43908 On ch=1 n=c6 v=0
43920 On ch=1 n=d6 v=51
43920 On ch=1 n=c6 v=51
44028 On ch=1 n=c6 v=0
44028 On ch=1 n=d6 v=0
44040 On ch=1 n=c6 v=49
44040 On ch=1 n=a6 v=45
44144 Par ch=1 c=64 v=0
44148 On ch=1 n=a6 v=0
44148 On ch=1 n=c6 v=0
44160 On ch=1 n=d6 v=54
44160 On ch=1 n=c6 v=51
44164 On ch=1 n=e5 v=71
44180 On ch=1 n=f#5 v=0
44268 On ch=1 n=c6 v=0
44268 On ch=1 n=d6 v=0
44280 On ch=1 n=c6 v=58
44280 On ch=1 n=b6 v=56
44388 On ch=1 n=b6 v=0
44388 On ch=1 n=c6 v=0
44400 On ch=1 n=c6 v=51
44400 On ch=1 n=d6 v=51
44404 On ch=1 n=f#5 v=74
44456 On ch=1 n=e5 v=0
44508 On ch=1 n=d6 v=0
44508 On ch=1 n=c6 v=0
44520 On ch=1 n=c6 v=48
44520 On ch=1 n=a6 v=52
44628 On ch=1 n=a6 v=0
44628 On ch=1 n=c6 v=0
44640 On ch=1 n=b5 v=46
44640 On ch=1 n=d6 v=45
44644 On ch=1 n=g5 v=73
44660 On ch=1 n=f#5 v=0
44676 Par ch=1 c=64 v=127
44748 On ch=1 n=d6 v=0
44748 On ch=1 n=b5 v=0
44760 On ch=1 n=b5 v=50
44760 On ch=1 n=g6 v=41
44868 On ch=1 n=g6 v=0
44868 On ch=1 n=b5 v=0
44880 On ch=1 n=d6 v=55
44880 On ch=1 n=b5 v=51
44988 On ch=1 n=b5 v=0
44988 On ch=1 n=d6 v=0
45000 On ch=1 n=b5 v=46
45000 On ch=1 n=g6 v=43
45108 On ch=1 n=g6 v=0
45108 On ch=1 n=b5 v=0
45120 On ch=1 n=d6 v=51
45120 On ch=1 n=b5 v=43
45228 On ch=1 n=b5 v=0
45228 On ch=1 n=d6 v=0
45240 On ch=1 n=b5 v=46
45240 On ch=1 n=g6 v=42
45348 On ch=1 n=g6 v=0
45348 On ch=1 n=b5 v=0
45360 On ch=1 n=d6 v=56
45360 On ch=1 n=a#5 v=50
45468 On ch=1 n=a#5 v=0
45468 On ch=1 n=d6 v=0
45480 On ch=1 n=a#5 v=48
45480 On ch=1 n=g6 v=46
45536 Par ch=1 c=64 v=0
45588 On ch=1 n=g6 v=0
45588 On ch=1 n=a#5 v=0
45596 On ch=1 n=d5 v=72
45600 On ch=1 n=a#5 v=56
45600 On ch=1 n=d6 v=60
45604 On ch=1 n=g5 v=0
45708 On ch=1 n=d6 v=0
45708 On ch=1 n=a#5 v=0
45720 On ch=1 n=a#5 v=47
45720 On ch=1 n=g6 v=48
45828 On ch=1 n=g6 v=0
45828 On ch=1 n=a#5 v=0
45836 On ch=1 n=e5 v=71
45840 On ch=1 n=c6 v=60
45840 On ch=1 n=a#5 v=46
45868 On ch=1 n=d5 v=0
45948 On ch=1 n=a#5 v=0
45948 On ch=1 n=c6 v=0
45960 On ch=1 n=a#5 v=58
45960 On ch=1 n=g6 v=56
46068 On ch=1 n=g6 v=0
46068 On ch=1 n=a#5 v=0
46080 On ch=1 n=a5 v=43
46080 On ch=1 n=c6 v=48
46084 On ch=1 n=f5 v=73
46104 On ch=1 n=e5 v=0
46164 Par ch=1 c=64 v=127
46188 On ch=1 n=c6 v=0
46188 On ch=1 n=a5 v=0
46200 On ch=1 n=a5 v=52
46200 On ch=1 n=f6 v=49
46308 On ch=1 n=f6 v=0
46308 On ch=1 n=a5 v=0
46320 On ch=1 n=c6 v=44
46320 On ch=1 n=a5 v=39
46428 On ch=1 n=a5 v=0
46428 On ch=1 n=c6 v=0
46440 On ch=1 n=a5 v=48
46440 On ch=1 n=f6 v=48
46548 On ch=1 n=f6 v=0
46548 On ch=1 n=a5 v=0
46560 On ch=1 n=a5 v=50
46560 On ch=1 n=c6 v=52
46668 On ch=1 n=c6 v=0
46668 On ch=1 n=a5 v=0
46680 On ch=1 n=a5 v=45
46680 On ch=1 n=f6 v=39
46788 On ch=1 n=f6 v=0
46788 On ch=1 n=a5 v=0
46800 On ch=1 n=c6 v=55
46800 On ch=1 n=a5 v=53
46908 On ch=1 n=a5 v=0
46908 On ch=1 n=c6 v=0
46920 On ch=1 n=a5 v=44
46920 On ch=1 n=f6 v=45
47000 Par ch=1 c=64 v=0
47028 On ch=1 n=f6 v=0
47028 On ch=1 n=a5 v=0
47036 On ch=1 n=c5 v=68
47040 On ch=1 n=c6 v=51
47040 On ch=1 n=a5 v=47
47076 On ch=1 n=f5 v=0
47148 On ch=1 n=a5 v=0
47148 On ch=1 n=c6 v=0
47160 On ch=1 n=a5 v=46
47160 On ch=1 n=f6 v=42
47268 On ch=1 n=f6 v=0
47268 On ch=1 n=a5 v=0
47280 On ch=1 n=b5 v=51
47280 On ch=1 n=a5 v=49
47284 On ch=1 n=d5 v=70
47332 On ch=1 n=c5 v=0
47388 On ch=1 n=a5 v=0
47388 On ch=1 n=b5 v=0
47400 On ch=1 n=a5 v=45
47400 On ch=1 n=f6 v=43
47508 On ch=1 n=f6 v=0
47508 On ch=1 n=a5 v=0
47520 On ch=1 n=g#5 v=47
47520 On ch=1 n=b5 v=51
47524 On ch=1 n=e5 v=71
47540 On ch=1 n=d5 v=0
47560 Par ch=1 c=64 v=127
47628 On ch=1 n=b5 v=0
47628 On ch=1 n=g#5 v=0
47640 On ch=1 n=g#5 v=54
47640 On ch=1 n=e6 v=50
47748 On ch=1 n=e6 v=0
47748 On ch=1 n=g#5 v=0
47760 On ch=1 n=g5 v=43
47760 On ch=1 n=b5 v=50
47764 On ch=1 n=b4 v=72
47780 On ch=1 n=e5 v=0
47812 Par ch=1 c=64 v=0
47868 On ch=1 n=b5 v=0
47868 On ch=1 n=g5 v=0
47880 On ch=1 n=g5 v=42
47880 On ch=1 n=e6 v=47
47988 On ch=1 n=e6 v=0
47988 On ch=1 n=g5 v=0
48000 On ch=1 n=g5 v=40
48000 On ch=1 n=a5 v=23
48004 On ch=1 n=c#5 v=73
48040 On ch=1 n=b4 v=0
48108 On ch=1 n=a5 v=0
48108 On ch=1 n=g5 v=0
48120 On ch=1 n=g5 v=46
48120 On ch=1 n=e6 v=46
48228 On ch=1 n=e6 v=0
48228 On ch=1 n=g5 v=0
48240 On ch=1 n=a5 v=45
48240 On ch=1 n=f#5 v=41
48244 On ch=1 n=d5 v=71
48268 On ch=1 n=c#5 v=0
48272 Par ch=1 c=64 v=127
48348 On ch=1 n=f#5 v=0
48348 On ch=1 n=a5 v=0
48360 On ch=1 n=d6 v=52
48360 On ch=1 n=f#5 v=56
48468 On ch=1 n=f#5 v=0
48468 On ch=1 n=d6 v=0
48476 On ch=1 n=a4 v=71
48480 On ch=1 n=f5 v=43
48480 On ch=1 n=a5 v=52
48488 On ch=1 n=d5 v=0
48488 Par ch=1 c=64 v=0
48588 On ch=1 n=a5 v=0
48588 On ch=1 n=f5 v=0
48600 On ch=1 n=f5 v=45
48600 On ch=1 n=d6 v=45
48708 On ch=1 n=d6 v=0
48708 On ch=1 n=f5 v=0
48720 On ch=1 n=g5 v=51
48720 On ch=1 n=f5 v=40
48720 On ch=1 n=b4 v=71
48772 On ch=1 n=a4 v=0
48828 On ch=1 n=f5 v=0
48828 On ch=1 n=g5 v=0
48840 On ch=1 n=f5 v=45
48840 On ch=1 n=d6 v=46
48948 On ch=1 n=d6 v=0
48948 On ch=1 n=f5 v=0
48960 On ch=1 n=e5 v=38
48960 On ch=1 n=g5 v=47
48964 On ch=1 n=b4 v=0
48964 On ch=1 n=c5 v=73
49068 On ch=1 n=g5 v=0
49068 On ch=1 n=e5 v=0
49080 On ch=1 n=e5 v=40
49080 On ch=1 n=c6 v=46
49188 On ch=1 n=c6 v=0
49188 On ch=1 n=e5 v=0
49200 On ch=1 n=g#5 v=53
49200 On ch=1 n=d#5 v=42
49204 On ch=1 n=g#4 v=73
49232 On ch=1 n=c5 v=0
49308 On ch=1 n=d#5 v=0
49308 On ch=1 n=g#5 v=0
49320 On ch=1 n=c6 v=46
49320 On ch=1 n=d#5 v=48
49428 On ch=1 n=d#5 v=0
49428 On ch=1 n=c6 v=0
49440 On ch=1 n=a5 v=57
49440 On ch=1 n=d#5 v=42
49440 On ch=1 n=f#4 v=73
49464 On ch=1 n=g#4 v=0
49548 On ch=1 n=d#5 v=0
49548 On ch=1 n=a5 v=0
49560 On ch=1 n=d#5 v=51
49560 On ch=1 n=c6 v=47
49668 On ch=1 n=c6 v=0
49668 On ch=1 n=d#5 v=0
49680 On ch=1 n=e5 v=48
49680 On ch=1 n=g5 v=51
49684 On ch=1 n=g4 v=70
49696 On ch=1 n=f#4 v=0
49696 Par ch=1 c=64 v=127
49788 On ch=1 n=g5 v=0
49788 On ch=1 n=e5 v=0
49800 On ch=1 n=e5 v=49
49800 On ch=1 n=c6 v=41
49908 On ch=1 n=c6 v=0
49908 On ch=1 n=e5 v=0
49920 On ch=1 n=f#5 v=51
49920 On ch=1 n=d#5 v=46
49920 On ch=1 n=g3 v=73
49932 On ch=1 n=g4 v=0
49936 Par ch=1 c=64 v=0
50028 On ch=1 n=d#5 v=0
50028 On ch=1 n=f#5 v=0
50040 On ch=1 n=d#5 v=49
50040 On ch=1 n=c6 v=43
50148 On ch=1 n=c6 v=0
50148 On ch=1 n=d#5 v=0
50160 On ch=1 n=d5 v=43
50160 On ch=1 n=f5 v=46
50164 On ch=1 n=g4 v=73
50200 On ch=1 n=g3 v=0
50228 On ch=1 n=g4 v=0
50268 On ch=1 n=f5 v=0
50268 On ch=1 n=d5 v=0
50280 On ch=1 n=d5 v=45
50280 On ch=1 n=b5 v=43
50380 On ch=1 n=c3 v=71
50388 On ch=1 n=b5 v=0
50388 On ch=1 n=d5 v=0
50396 Par ch=1 c=64 v=127
50400 On ch=1 n=e5 v=41
50400 On ch=1 n=g5 v=33
50400 On ch=1 n=c4 v=73
50444 On ch=1 n=c3 v=0
50508 On ch=1 n=g5 v=0
50508 On ch=1 n=e5 v=0
50520 On ch=1 n=e5 v=41
50520 On ch=1 n=c6 v=42
50620 Par ch=1 c=64 v=0
50628 On ch=1 n=c6 v=0
50628 On ch=1 n=e5 v=0
50640 On ch=1 n=f5 v=46
50640 On ch=1 n=g#5 v=62
50648 On ch=1 n=g#4 v=69
50672 Par ch=1 c=64 v=127
50748 On ch=1 n=g#5 v=0
50748 On ch=1 n=f5 v=0
50760 On ch=1 n=f5 v=48
50760 On ch=1 n=d6 v=48
50868 On ch=1 n=d6 v=0
50868 On ch=1 n=f5 v=0
50880 On ch=1 n=d5 v=36
50880 On ch=1 n=f5 v=49
50988 On ch=1 n=f5 v=0
50988 On ch=1 n=d5 v=0
51000 On ch=1 n=d5 v=42
51000 On ch=1 n=b5 v=39
51084 Par ch=1 c=64 v=0
51108 On ch=1 n=b5 v=0
51108 On ch=1 n=d5 v=0
51120 On ch=1 n=b4 v=39
51120 On ch=1 n=d5 v=37
51124 On ch=1 n=g4 v=74
51140 On ch=1 n=g#4 v=0
51228 On ch=1 n=d5 v=0
51228 On ch=1 n=b4 v=0
51240 On ch=1 n=b4 v=42
51240 On ch=1 n=g5 v=45
51348 On ch=1 n=g5 v=0
51348 On ch=1 n=b4 v=0
51360 On ch=1 n=c5 v=40
51360 On ch=1 n=d#5 v=53
51364 On ch=1 n=f#4 v=70
51396 On ch=1 n=g4 v=0
51468 On ch=1 n=d#5 v=0
51468 On ch=1 n=c5 v=0
51480 On ch=1 n=c5 v=48
51480 On ch=1 n=a5 v=55
51588 On ch=1 n=a5 v=0
51588 On ch=1 n=c5 v=0
51596 On ch=1 n=f4 v=69
51600 On ch=1 n=c4 v=0
51600 On ch=1 n=d5 v=50
51600 On ch=1 n=g#5 v=54
51616 On ch=1 n=f#4 v=0
51708 On ch=1 n=g#5 v=0
51708 On ch=1 n=d5 v=0
51720 On ch=1 n=d5 v=42
51720 On ch=1 n=b5 v=52
51772 On ch=1 n=f4 v=0
51828 On ch=1 n=b5 v=0
51828 On ch=1 n=d5 v=0
51840 On ch=1 n=e5 v=42
51840 On ch=1 n=g5 v=45
51844 On ch=1 n=c3 v=79
51852 Par ch=1 c=64 v=127
51948 On ch=1 n=g5 v=0
51948 On ch=1 n=e5 v=0
51960 On ch=1 n=e5 v=44
51960 On ch=1 n=c6 v=54
51964 On ch=1 n=c3 v=0
52056 Par ch=1 c=64 v=0
52068 On ch=1 n=c6 v=0
52068 On ch=1 n=e5 v=0
52080 On ch=1 n=g#5 v=51
52080 On ch=1 n=f5 v=32
52084 On ch=1 n=c4 v=80
52104 Par ch=1 c=64 v=127
52188 On ch=1 n=f5 v=0
52188 On ch=1 n=g#5 v=0
52200 On ch=1 n=f5 v=47
52200 On ch=1 n=d6 v=61
52308 On ch=1 n=d6 v=0
52308 On ch=1 n=f5 v=0
52320 On ch=1 n=d5 v=37
52320 On ch=1 n=f5 v=45
52328 On ch=1 n=g#4 v=71
52428 On ch=1 n=f5 v=0
52428 On ch=1 n=d5 v=0
52440 On ch=1 n=d5 v=47
52440 On ch=1 n=b5 v=48
52512 Par ch=1 c=64 v=0
52548 On ch=1 n=b5 v=0
52548 On ch=1 n=d5 v=0
52560 On ch=1 n=b4 v=43
52560 On ch=1 n=d5 v=48
52564 On ch=1 n=g#4 v=0
52564 On ch=1 n=g4 v=71
52668 On ch=1 n=d5 v=0
52668 On ch=1 n=b4 v=0
52680 On ch=1 n=b4 v=45
52680 On ch=1 n=g5 v=45
52788 On ch=1 n=g5 v=0
52788 On ch=1 n=b4 v=0
52800 On ch=1 n=c5 v=45
52800 On ch=1 n=d#5 v=51
52804 On ch=1 n=f#4 v=71
52820 On ch=1 n=g4 v=0
52908 On ch=1 n=d#5 v=0
52908 On ch=1 n=c5 v=0
52920 On ch=1 n=c5 v=51
52920 On ch=1 n=a5 v=47
53020 On ch=1 n=f#4 v=0
53028 On ch=1 n=a5 v=0
53028 On ch=1 n=c5 v=0
53036 On ch=1 n=f4 v=72
53040 On ch=1 n=d5 v=47
53040 On ch=1 n=g#5 v=51
53148 On ch=1 n=g#5 v=0
53148 On ch=1 n=d5 v=0
53160 On ch=1 n=d5 v=39
53160 On ch=1 n=b5 v=41
53268 On ch=1 n=b5 v=0
53268 On ch=1 n=d5 v=0
53276 On ch=1 n=e4 v=73
53280 On ch=1 n=e5 v=46
53280 On ch=1 n=g5 v=47
53300 On ch=1 n=c4 v=0
53316 On ch=1 n=f4 v=0
53388 On ch=1 n=g5 v=0
53388 On ch=1 n=e5 v=0
53400 On ch=1 n=e5 v=45
53400 On ch=1 n=c6 v=51
53508 On ch=1 n=c6 v=0
53508 On ch=1 n=e5 v=0
53516 On ch=1 n=d4 v=70
53520 On ch=1 n=f5 v=42
53520 On ch=1 n=b5 v=49
53540 On ch=1 n=e4 v=0
53628 On ch=1 n=b5 v=0
53628 On ch=1 n=f5 v=0
53640 On ch=1 n=f5 v=45
53640 On ch=1 n=d6 v=43
53748 On ch=1 n=d6 v=0
53748 On ch=1 n=f5 v=0
53756 On ch=1 n=c#4 v=72
53760 On ch=1 n=a#5 v=56
53760 On ch=1 n=g5 v=47
53784 On ch=1 n=d4 v=0
53816 Par ch=1 c=64 v=127
53868 On ch=1 n=g5 v=0
53868 On ch=1 n=a#5 v=0
53880 On ch=1 n=e6 v=55
53880 On ch=1 n=g5 v=48
53988 On ch=1 n=g5 v=0
53988 On ch=1 n=e6 v=0
54000 On ch=1 n=e6 v=45
54000 On ch=1 n=a#5 v=41
54004 On ch=1 n=c#5 v=77
54108 On ch=1 n=a#5 v=0
54108 On ch=1 n=e6 v=0
54120 On ch=1 n=g6 v=49
54120 On ch=1 n=a#5 v=45
54200 On ch=1 n=c#5 v=0
54212 On ch=1 n=c#4 v=0
54228 On ch=1 n=a#5 v=0
54228 On ch=1 n=g6 v=0
54240 On ch=1 n=a5 v=47
54240 On ch=1 n=d6 v=51
54244 On ch=1 n=d5 v=76
54244 On ch=1 n=d4 v=68
54308 Par ch=1 c=64 v=0
54348 On ch=1 n=d6 v=0
54348 On ch=1 n=a5 v=0
54360 On ch=1 n=a5 v=45
54360 On ch=1 n=f6 v=51
54392 On ch=1 n=d4 v=0
54404 On ch=1 n=d5 v=0
54468 On ch=1 n=f6 v=0
54468 On ch=1 n=a5 v=0
54480 On ch=1 n=g5 v=42
54480 On ch=1 n=a5 v=51
54480 On ch=1 n=c#5 v=78
54484 On ch=1 n=e4 v=66
54500 Par ch=1 c=64 v=127
54588 On ch=1 n=a5 v=0
54588 On ch=1 n=g5 v=0
54600 On ch=1 n=g5 v=46
54600 On ch=1 n=e6 v=52
54656 On ch=1 n=e4 v=0
54656 On ch=1 n=c#5 v=0
54708 On ch=1 n=e6 v=0
54708 On ch=1 n=g5 v=0
54720 On ch=1 n=g5 v=43
54720 On ch=1 n=a5 v=46
54724 On ch=1 n=e4 v=65
54724 On ch=1 n=c#5 v=79
54828 On ch=1 n=a5 v=0
54828 On ch=1 n=g5 v=0
54840 On ch=1 n=e6 v=50
54840 On ch=1 n=g5 v=42
54904 On ch=1 n=c#5 v=0
54904 On ch=1 n=e4 v=0
54948 On ch=1 n=g5 v=0
54948 On ch=1 n=e6 v=0
54960 On ch=1 n=f5 v=39
54960 On ch=1 n=a5 v=54
54964 On ch=1 n=d5 v=76
54964 On ch=1 n=f4 v=65
54968 Par ch=1 c=64 v=0
55068 On ch=1 n=a5 v=0
55068 On ch=1 n=f5 v=0
55080 On ch=1 n=f5 v=47
55080 On ch=1 n=d6 v=49
55152 On ch=1 n=d5 v=0
55172 On ch=1 n=f4 v=0
55188 On ch=1 n=d6 v=0
55188 On ch=1 n=f5 v=0
55200 On ch=1 n=d#5 v=47
55200 On ch=1 n=a5 v=55
55204 On ch=1 n=f#4 v=77
55308 On ch=1 n=a5 v=0
55308 On ch=1 n=d#5 v=0
55320 On ch=1 n=d#5 v=45
55320 On ch=1 n=c6 v=46
55384 On ch=1 n=f#4 v=0
55428 On ch=1 n=c6 v=0
55428 On ch=1 n=d#5 v=0
55440 On ch=1 n=e5 v=39
55440 On ch=1 n=g5 v=46
55440 On ch=1 n=g4 v=78
55464 Par ch=1 c=64 v=127
55548 On ch=1 n=g5 v=0
55548 On ch=1 n=e5 v=0
55560 On ch=1 n=e5 v=46
55560 On ch=1 n=c6 v=52
55628 On ch=1 n=g4 v=0
55668 On ch=1 n=c6 v=0
55668 On ch=1 n=e5 v=0
55676 On ch=1 n=g3 v=79
55680 On ch=1 n=f#5 v=53
55680 On ch=1 n=d#5 v=45
55692 Par ch=1 c=64 v=0
55788 On ch=1 n=d#5 v=0
55788 On ch=1 n=f#5 v=0
55800 On ch=1 n=c6 v=49
55800 On ch=1 n=d#5 v=47
55876 On ch=1 n=g3 v=0
55908 On ch=1 n=d#5 v=0
55908 On ch=1 n=c6 v=0
55916 On ch=1 n=g4 v=75
55920 On ch=1 n=d5 v=47
55920 On ch=1 n=f5 v=55
56020 On ch=1 n=g4 v=0
56028 On ch=1 n=f5 v=0
56028 On ch=1 n=d5 v=0
56040 On ch=1 n=d5 v=49
56040 On ch=1 n=b5 v=51
56148 On ch=1 n=b5 v=0
56148 On ch=1 n=d5 v=0
56156 Par ch=1 c=64 v=127
56160 On ch=1 n=e5 v=41
56160 On ch=1 n=g5 v=45
56164 On ch=1 n=c3 v=79
56232 On ch=1 n=c3 v=0
56268 On ch=1 n=g5 v=0
56268 On ch=1 n=e5 v=0
56280 On ch=1 n=e5 v=41
56280 On ch=1 n=c6 v=52
56352 Par ch=1 c=64 v=0
56388 On ch=1 n=c6 v=0
56388 On ch=1 n=e5 v=0
56396 On ch=1 n=c4 v=79
56400 On ch=1 n=g#5 v=53
56400 On ch=1 n=f5 v=43
56416 Par ch=1 c=64 v=127
56508 On ch=1 n=f5 v=0
56508 On ch=1 n=g#5 v=0
56520 On ch=1 n=f5 v=50
56520 On ch=1 n=d6 v=62
56628 On ch=1 n=d6 v=0
56628 On ch=1 n=f5 v=0
56640 On ch=1 n=d5 v=38
56640 On ch=1 n=f5 v=51
56644 On ch=1 n=g#4 v=70
56748 On ch=1 n=f5 v=0
56748 On ch=1 n=d5 v=0
56760 On ch=1 n=d5 v=43
56760 On ch=1 n=b5 v=47
56868 On ch=1 n=b5 v=0
56868 On ch=1 n=d5 v=0
56880 On ch=1 n=b4 v=36
56880 On ch=1 n=d5 v=41
56884 On ch=1 n=g4 v=73
56896 On ch=1 n=g#4 v=0
56904 Par ch=1 c=64 v=0
56988 On ch=1 n=d5 v=0
56988 On ch=1 n=b4 v=0
57000 On ch=1 n=b4 v=40
57000 On ch=1 n=g5 v=47
57108 On ch=1 n=g5 v=0
57108 On ch=1 n=b4 v=0
57116 On ch=1 n=f#4 v=75
57120 On ch=1 n=d#5 v=56
57120 On ch=1 n=c5 v=40
57132 On ch=1 n=g4 v=0
57228 On ch=1 n=c5 v=0
57228 On ch=1 n=d#5 v=0
57240 On ch=1 n=c5 v=45
57240 On ch=1 n=a5 v=55
57348 On ch=1 n=a5 v=0
57348 On ch=1 n=c5 v=0
57356 On ch=1 n=f4 v=75
57360 On ch=1 n=d5 v=40
57360 On ch=1 n=g#5 v=45
57372 On ch=1 n=f#4 v=0
57452 On ch=1 n=c4 v=0
57468 On ch=1 n=g#5 v=0
57468 On ch=1 n=d5 v=0
57480 On ch=1 n=b5 v=46
57480 On ch=1 n=d5 v=40
57496 On ch=1 n=f4 v=0
57576 Par ch=1 c=64 v=127
57588 On ch=1 n=d5 v=0
57588 On ch=1 n=b5 v=0
57600 On ch=1 n=g5 v=51
57600 On ch=1 n=e5 v=36
57604 On ch=1 n=c3 v=79
57664 On ch=1 n=c3 v=0
57708 On ch=1 n=e5 v=0
57708 On ch=1 n=g5 v=0
57720 On ch=1 n=c6 v=53
57720 On ch=1 n=e5 v=41
57800 Par ch=1 c=64 v=0
57828 On ch=1 n=e5 v=0
57828 On ch=1 n=c6 v=0
57836 On ch=1 n=c4 v=83
57840 On ch=1 n=g#5 v=53
57840 On ch=1 n=f5 v=39
57860 Par ch=1 c=64 v=127
57948 On ch=1 n=f5 v=0
57948 On ch=1 n=g#5 v=0
57960 On ch=1 n=f5 v=45
57960 On ch=1 n=d6 v=58
58068 On ch=1 n=d6 v=0
58068 On ch=1 n=f5 v=0
58080 On ch=1 n=d5 v=47
58080 On ch=1 n=f5 v=42
58080 On ch=1 n=g#4 v=75
58188 On ch=1 n=f5 v=0
58188 On ch=1 n=d5 v=0
58200 On ch=1 n=d5 v=42
58200 On ch=1 n=b5 v=43
58308 On ch=1 n=b5 v=0
58308 On ch=1 n=d5 v=0
58320 On ch=1 n=b4 v=39
58320 On ch=1 n=d5 v=42
58324 On ch=1 n=g4 v=73
58324 Par ch=1 c=64 v=0
58328 On ch=1 n=g#4 v=0
58428 On ch=1 n=d5 v=0
58428 On ch=1 n=b4 v=0
58440 On ch=1 n=b4 v=40
58440 On ch=1 n=g5 v=48
58548 On ch=1 n=g5 v=0
58548 On ch=1 n=b4 v=0
58556 On ch=1 n=f#4 v=74
58560 On ch=1 n=c5 v=46
58560 On ch=1 n=d#5 v=46
58572 On ch=1 n=g4 v=0
58668 On ch=1 n=d#5 v=0
58668 On ch=1 n=c5 v=0
58680 On ch=1 n=c5 v=45
58680 On ch=1 n=a5 v=51
58780 On ch=1 n=f#4 v=0
58788 On ch=1 n=a5 v=0
58788 On ch=1 n=c5 v=0
58796 On ch=1 n=f4 v=75
58800 On ch=1 n=d5 v=48
58800 On ch=1 n=g#5 v=57
58908 On ch=1 n=g#5 v=0
58908 On ch=1 n=d5 v=0
58920 On ch=1 n=d5 v=45
58920 On ch=1 n=b5 v=40
59012 On ch=1 n=f4 v=0
59012 On ch=1 n=c4 v=0
59028 On ch=1 n=b5 v=0
59028 On ch=1 n=d5 v=0
59036 On ch=1 n=e4 v=73
59040 On ch=1 n=e5 v=35
59040 On ch=1 n=g5 v=17
59148 On ch=1 n=g5 v=0
59148 On ch=1 n=e5 v=0
59160 On ch=1 n=e5 v=36
59160 On ch=1 n=c6 v=44
59196 On ch=1 n=e4 v=0
59268 On ch=1 n=c6 v=0
59268 On ch=1 n=e5 v=0
59276 On ch=1 n=c#4 v=63
59276 Par ch=1 c=64 v=127
59280 On ch=1 n=g5 v=42
59280 On ch=1 n=a5 v=45
59280 On ch=1 n=a4 v=55
59284 On ch=1 n=c#5 v=63
59388 On ch=1 n=a5 v=0
59388 On ch=1 n=g5 v=0
59400 On ch=1 n=g5 v=45
59400 On ch=1 n=e6 v=61
59484 On ch=1 n=c#5 v=0
59484 On ch=1 n=a4 v=0
59492 On ch=1 n=c#4 v=0
59508 On ch=1 n=e6 v=0
59508 On ch=1 n=g5 v=0
59520 On ch=1 n=a5 v=50
59520 On ch=1 n=f5 v=40
59520 On ch=1 n=a4 v=58
59524 On ch=1 n=d4 v=67
59524 On ch=1 n=d5 v=67
59524 Par ch=1 c=64 v=0
59628 On ch=1 n=d4 v=0
59628 On ch=1 n=f5 v=0
59628 On ch=1 n=a5 v=0
59632 On ch=1 n=d5 v=0
59632 On ch=1 n=a4 v=0
59640 On ch=1 n=f5 v=42
59640 On ch=1 n=d6 v=61
59744 Par ch=1 c=64 v=127
59748 On ch=1 n=d6 v=0
59748 On ch=1 n=f5 v=0
59760 On ch=1 n=c6 v=55
59760 On ch=1 n=a#5 v=50
59764 On ch=1 n=e4 v=68
59764 On ch=1 n=e5 v=68
59764 On ch=1 n=c5 v=59
59868 On ch=1 n=a#5 v=0
59868 On ch=1 n=c6 v=0
59880 On ch=1 n=g6 v=62
59880 On ch=1 n=a#5 v=45
59944 On ch=1 n=e4 v=0
59952 On ch=1 n=e5 v=0
59960 On ch=1 n=c5 v=0
59988 On ch=1 n=a#5 v=0
59988 On ch=1 n=g6 v=0
59996 Par ch=1 c=64 v=0
60000 On ch=1 n=c6 v=48
60000 On ch=1 n=a5 v=44
60000 On ch=1 n=c5 v=61
60004 On ch=1 n=f5 v=69
60004 On ch=1 n=f4 v=69
60108 On ch=1 n=a5 v=0
60108 On ch=1 n=c6 v=0
60112 On ch=1 n=f4 v=0
60116 On ch=1 n=f5 v=0
60120 On ch=1 n=c5 v=0
60120 On ch=1 n=a5 v=52
60120 On ch=1 n=f6 v=62
60216 Par ch=1 c=64 v=127
60228 On ch=1 n=f6 v=0
60228 On ch=1 n=a5 v=0
60240 On ch=1 n=c6 v=44
60240 On ch=1 n=d6 v=49
60244 On ch=1 n=f#4 v=73
60244 On ch=1 n=f#5 v=73
60244 On ch=1 n=d5 v=64
60348 On ch=1 n=d6 v=0
60348 On ch=1 n=c6 v=0
60360 On ch=1 n=c6 v=56
60360 On ch=1 n=a6 v=62
60448 On ch=1 n=d5 v=0
60452 On ch=1 n=f#5 v=0
60452 On ch=1 n=f#4 v=0
60460 Par ch=1 c=64 v=0
60468 On ch=1 n=a6 v=0
60468 On ch=1 n=c6 v=0
60480 On ch=1 n=d6 v=50
60480 On ch=1 n=b5 v=45
60484 On ch=1 n=d5 v=63
60484 On ch=1 n=g5 v=72
60484 On ch=1 n=g4 v=72
60584 On ch=1 n=g4 v=0
60588 On ch=1 n=b5 v=0
60588 On ch=1 n=d6 v=0
60592 On ch=1 n=d5 v=0
60600 On ch=1 n=g5 v=0
60600 On ch=1 n=g6 v=63
60600 On ch=1 n=b5 v=58
60688 Par ch=1 c=64 v=127
60708 On ch=1 n=b5 v=0
60708 On ch=1 n=g6 v=0
60720 On ch=1 n=d6 v=45
60720 On ch=1 n=e6 v=54
60724 On ch=1 n=g#4 v=72
60724 On ch=1 n=g#5 v=72
60724 On ch=1 n=e5 v=63
60828 On ch=1 n=e6 v=0
60828 On ch=1 n=d6 v=0
60840 On ch=1 n=d6 v=56
60840 On ch=1 n=b6 v=62
60912 On ch=1 n=e5 v=0
60916 On ch=1 n=g#5 v=0
60916 On ch=1 n=g#4 v=0
60936 Par ch=1 c=64 v=0
60948 On ch=1 n=b6 v=0
60948 On ch=1 n=d6 v=0
60960 On ch=1 n=c6 v=48
60960 On ch=1 n=e6 v=55
60960 On ch=1 n=e5 v=68
60964 On ch=1 n=a4 v=76
60964 On ch=1 n=a5 v=76
61068 On ch=1 n=e6 v=0
61068 On ch=1 n=c6 v=0
61072 On ch=1 n=a5 v=0
61072 On ch=1 n=a4 v=0
61076 On ch=1 n=e5 v=0
61080 On ch=1 n=c6 v=56
61080 On ch=1 n=a6 v=59
61188 On ch=1 n=a6 v=0
61188 On ch=1 n=c6 v=0
61196 Par ch=1 c=64 v=127
61200 On ch=1 n=f6 v=43
61200 On ch=1 n=g6 v=46
61200 On ch=1 n=b4 v=79
61204 On ch=1 n=b5 v=79
61204 On ch=1 n=g5 v=70
61308 On ch=1 n=g6 v=0
61308 On ch=1 n=f6 v=0
61320 On ch=1 n=d7 v=63
61320 On ch=1 n=f6 v=50
61368 Par ch=1 c=64 v=0
61380 On ch=1 n=b4 v=0
61388 On ch=1 n=b5 v=0
61396 On ch=1 n=g5 v=0
61428 On ch=1 n=f6 v=0
61428 On ch=1 n=d7 v=0
61428 Par ch=1 c=64 v=127
61440 On ch=1 n=e6 v=43
61440 On ch=1 n=g6 v=45
61444 On ch=1 n=g5 v=73
61444 On ch=1 n=c6 v=83
61444 On ch=1 n=c5 v=83
61544 On ch=1 n=c5 v=0
61548 On ch=1 n=g6 v=0
61548 On ch=1 n=e6 v=0
61560 On ch=1 n=g5 v=0
61560 On ch=1 n=e6 v=45
61560 On ch=1 n=c7 v=62
61564 On ch=1 n=c6 v=0
61664 Par ch=1 c=64 v=0
61668 On ch=1 n=c7 v=0
61668 On ch=1 n=e6 v=0
61680 On ch=1 n=a6 v=58
61680 On ch=1 n=g6 v=50
61680 On ch=1 n=c#5 v=78
61680 On ch=1 n=a5 v=78
61684 On ch=1 n=c#6 v=86
61788 On ch=1 n=g6 v=0
61788 On ch=1 n=a6 v=0
61792 On ch=1 n=c#6 v=0
61800 On ch=1 n=c#5 v=0
61800 On ch=1 n=e7 v=61
61800 On ch=1 n=g6 v=48
61804 On ch=1 n=a5 v=0
61908 On ch=1 n=g6 v=0
61908 On ch=1 n=e7 v=0
61920 On ch=1 n=a6 v=50
61920 On ch=1 n=g6 v=45
61920 On ch=1 n=c#6 v=86
61924 On ch=1 n=a5 v=78
61924 On ch=1 n=d5 v=86
61932 Par ch=1 c=64 v=127
62028 On ch=1 n=g6 v=0
62028 On ch=1 n=a6 v=0
62040 On ch=1 n=e7 v=62
62040 On ch=1 n=g6 v=45
62148 On ch=1 n=g6 v=0
62148 On ch=1 n=e7 v=0
62160 On ch=1 n=g6 v=51
62160 On ch=1 n=a6 v=56
62268 On ch=1 n=a6 v=0
62268 On ch=1 n=g6 v=0
62280 On ch=1 n=g6 v=46
62280 On ch=1 n=e7 v=42
62388 On ch=1 n=e7 v=0
62388 On ch=1 n=g6 v=0
62400 On ch=1 n=a6 v=54
62400 On ch=1 n=g6 v=39
62508 On ch=1 n=g6 v=0
62508 On ch=1 n=a6 v=0
62520 On ch=1 n=g6 v=45
62520 On ch=1 n=e7 v=45
62564 Par ch=1 c=64 v=0
62628 On ch=1 n=e7 v=0
62628 On ch=1 n=g6 v=0
62632 Par ch=1 c=64 v=127
62640 On ch=1 n=a6 v=55
62640 On ch=1 n=g6 v=43
62644 On ch=1 n=d6 v=87
62672 On ch=1 n=c#6 v=0
62748 On ch=1 n=g6 v=0
62748 On ch=1 n=a6 v=0
62760 On ch=1 n=g6 v=40
62760 On ch=1 n=e7 v=43
62868 On ch=1 n=e7 v=0
62868 On ch=1 n=g6 v=0
62880 On ch=1 n=a6 v=55
62880 On ch=1 n=f6 v=42
62988 On ch=1 n=f6 v=0
62988 On ch=1 n=a6 v=0
63000 On ch=1 n=d7 v=62
63000 On ch=1 n=f6 v=51
63108 On ch=1 n=f6 v=0
63108 On ch=1 n=d7 v=0
63120 On ch=1 n=a6 v=52
63120 On ch=1 n=f6 v=42
63200 On ch=1 n=a5 v=0
63216 On ch=1 n=d5 v=0
63228 On ch=1 n=f6 v=0
63228 On ch=1 n=a6 v=0
63240 On ch=1 n=d6 v=0
63240 On ch=1 n=f6 v=39
63240 On ch=1 n=c7 v=63
63304 Par ch=1 c=64 v=0
63348 On ch=1 n=c7 v=0
63348 On ch=1 n=f6 v=0
63360 On ch=1 n=a6 v=51
63360 On ch=1 n=f6 v=37
63364 On ch=1 n=g3 v=65
63392 Par ch=1 c=64 v=127
63468 On ch=1 n=f6 v=0
63468 On ch=1 n=a6 v=0
63480 On ch=1 n=f6 v=39
63480 On ch=1 n=b6 v=62
63552 On ch=1 n=g3 v=0
63588 On ch=1 n=b6 v=0
63588 On ch=1 n=f6 v=0
63596 On ch=1 n=g4 v=67
63600 On ch=1 n=f6 v=45
63600 On ch=1 n=a6 v=56
63708 On ch=1 n=a6 v=0
63708 On ch=1 n=f6 v=0
63720 On ch=1 n=f6 v=37
63720 On ch=1 n=b6 v=50
63728 On ch=1 n=g4 v=0
63828 On ch=1 n=b6 v=0
63828 On ch=1 n=f6 v=0
63836 On ch=1 n=f5 v=68
63836 On ch=1 n=d5 v=59
63840 On ch=1 n=f6 v=44
63840 On ch=1 n=a6 v=57
63948 On ch=1 n=a6 v=0
63948 On ch=1 n=f6 v=0
63960 On ch=1 n=f6 v=39
63960 On ch=1 n=b6 v=49
64068 On ch=1 n=b6 v=0
64068 On ch=1 n=f6 v=0
64076 On ch=1 n=b5 v=65
64080 On ch=1 n=a6 v=48
64080 On ch=1 n=f6 v=34
64088 On ch=1 n=d5 v=0
64100 On ch=1 n=f5 v=0
64188 On ch=1 n=f6 v=0
64188 On ch=1 n=a6 v=0
64200 On ch=1 n=f6 v=39
64200 On ch=1 n=b6 v=46
64232 On ch=1 n=b5 v=0
64308 On ch=1 n=b6 v=0
64308 On ch=1 n=f6 v=0
64320 On ch=1 n=e6 v=45
64320 On ch=1 n=g6 v=50
64336 Par ch=1 c=64 v=0
64428 On ch=1 n=g6 v=0
64428 On ch=1 n=e6 v=0
64440 On ch=1 n=e6 v=50
64440 On ch=1 n=b6 v=50
64548 On ch=1 n=b6 v=0
64548 On ch=1 n=e6 v=0
64560 On ch=1 n=d6 v=40
64560 On ch=1 n=f6 v=41
64668 On ch=1 n=f6 v=0
64668 On ch=1 n=d6 v=0
64680 On ch=1 n=d6 v=51
64680 On ch=1 n=b6 v=51
64788 On ch=1 n=b6 v=0
64788 On ch=1 n=d6 v=0
64796 On ch=1 n=c5 v=66
64800 On ch=1 n=e6 v=48
64800 On ch=1 n=g6 v=48
64820 Par ch=1 c=64 v=127
64908 On ch=1 n=g6 v=0
64908 On ch=1 n=e6 v=0
64920 On ch=1 n=e6 v=49
64920 On ch=1 n=c7 v=39
65028 On ch=1 n=c7 v=0
65028 On ch=1 n=e6 v=0
65040 On ch=1 n=f6 v=48
65040 On ch=1 n=a6 v=58
65044 On ch=1 n=c6 v=59
65044 On ch=1 n=a5 v=60
65148 On ch=1 n=a6 v=0
65148 On ch=1 n=f6 v=0
65160 On ch=1 n=f6 v=47
65160 On ch=1 n=d7 v=29
65240 On ch=1 n=c6 v=0
65244 Par ch=1 c=64 v=0
65248 On ch=1 n=a5 v=0
65268 On ch=1 n=d7 v=0
65268 On ch=1 n=f6 v=0
65280 On ch=1 n=g6 v=48
65280 On ch=1 n=b6 v=58
65284 On ch=1 n=b5 v=58
65284 On ch=1 n=g5 v=59
65388 On ch=1 n=b6 v=0
65388 On ch=1 n=g6 v=0
65400 On ch=1 n=g6 v=46
65400 On ch=1 n=e7 v=45
65480 On ch=1 n=g5 v=0
65484 On ch=1 n=b5 v=0
65508 On ch=1 n=e7 v=0
65508 On ch=1 n=g6 v=0
65520 On ch=1 n=a6 v=49
65520 On ch=1 n=c7 v=56
65524 On ch=1 n=a5 v=61
65524 On ch=1 n=f5 v=61
65560 Par ch=1 c=64 v=127
65628 On ch=1 n=c7 v=0
65628 On ch=1 n=a6 v=0
65640 On ch=1 n=a6 v=50
65640 On ch=1 n=f7 v=45
65716 On ch=1 n=a5 v=0
65748 On ch=1 n=f7 v=0
65748 On ch=1 n=a6 v=0
65756 On ch=1 n=g5 v=59
65760 On ch=1 n=g6 v=44
65760 On ch=1 n=b6 v=47
65764 On ch=1 n=b5 v=59
65780 On ch=1 n=f5 v=0
65820 Par ch=1 c=64 v=0
65868 On ch=1 n=b6 v=0
65868 On ch=1 n=g6 v=0
65880 On ch=1 n=g6 v=46
65880 On ch=1 n=e7 v=44
65920 On ch=1 n=b5 v=0
65952 On ch=1 n=g5 v=0
65988 On ch=1 n=e7 v=0
65988 On ch=1 n=g6 v=0
65996 On ch=1 n=a5 v=58
65996 On ch=1 n=c6 v=58
66000 On ch=1 n=f6 v=38
66000 On ch=1 n=a6 v=45
66108 On ch=1 n=a6 v=0
66108 On ch=1 n=f6 v=0
66120 On ch=1 n=f6 v=46
66120 On ch=1 n=d7 v=48
66156 On ch=1 n=c6 v=0
66156 On ch=1 n=a5 v=0
66228 On ch=1 n=d7 v=0
66228 On ch=1 n=f6 v=0
66232 Par ch=1 c=64 v=127
66240 On ch=1 n=g6 v=45
66240 On ch=1 n=f6 v=41
66244 On ch=1 n=b5 v=60
66244 On ch=1 n=d6 v=59
66348 On ch=1 n=f6 v=0
66348 On ch=1 n=g6 v=0
66360 On ch=1 n=f6 v=51
66360 On ch=1 n=d7 v=45
66428 On ch=1 n=c5 v=0
66436 On ch=1 n=d6 v=0
66468 On ch=1 n=d7 v=0
66468 On ch=1 n=f6 v=0
66480 On ch=1 n=g6 v=54
66480 On ch=1 n=f6 v=50
66484 On ch=1 n=c5 v=60
66504 On ch=1 n=b5 v=0
66588 On ch=1 n=f6 v=0
66588 On ch=1 n=g6 v=0
66600 On ch=1 n=f6 v=51
66600 On ch=1 n=d7 v=45
66708 On ch=1 n=d7 v=0
66708 On ch=1 n=f6 v=0
66720 On ch=1 n=a6 v=54
66720 On ch=1 n=f6 v=50
66724 On ch=1 n=a5 v=58
66724 On ch=1 n=c6 v=58
66724 Par ch=1 c=64 v=0
66828 On ch=1 n=f6 v=0
66828 On ch=1 n=a6 v=0
66840 On ch=1 n=f6 v=46
66840 On ch=1 n=d7 v=44
66880 On ch=1 n=c6 v=0
66888 On ch=1 n=a5 v=0
66936 Par ch=1 c=64 v=127
66948 On ch=1 n=d7 v=0
66948 On ch=1 n=f6 v=0
66960 On ch=1 n=g6 v=55
66960 On ch=1 n=f6 v=50
66968 On ch=1 n=b5 v=57
66968 On ch=1 n=d6 v=57
67068 On ch=1 n=f6 v=0
67068 On ch=1 n=g6 v=0
67080 On ch=1 n=f6 v=48
67080 On ch=1 n=d7 v=45
67144 On ch=1 n=c5 v=0
67148 On ch=1 n=d6 v=0
67188 On ch=1 n=d7 v=0
67188 On ch=1 n=f6 v=0
67196 On ch=1 n=b5 v=0
67200 On ch=1 n=g6 v=50
67200 On ch=1 n=f6 v=42
67204 On ch=1 n=c5 v=60
67308 On ch=1 n=f6 v=0
67308 On ch=1 n=g6 v=0
67320 On ch=1 n=f6 v=46
67320 On ch=1 n=e7 v=51
67428 On ch=1 n=e7 v=0
67428 On ch=1 n=f6 v=0
67440 On ch=1 n=g6 v=40
67440 On ch=1 n=f6 v=33
67444 On ch=1 n=b5 v=57
67444 On ch=1 n=g5 v=57
67548 On ch=1 n=f6 v=0
67548 On ch=1 n=g6 v=0
67560 On ch=1 n=d7 v=45
67560 On ch=1 n=f6 v=39
67608 On ch=1 n=c5 v=0
67612 Par ch=1 c=64 v=0
67640 On ch=1 n=b5 v=0
67668 On ch=1 n=f6 v=0
67668 On ch=1 n=d7 v=0
67680 On ch=1 n=e6 v=41
67680 On ch=1 n=g6 v=42
67684 On ch=1 n=c5 v=60
67696 On ch=1 n=g5 v=0
67696 Par ch=1 c=64 v=127
67788 On ch=1 n=g6 v=0
67788 On ch=1 n=e6 v=0
67800 On ch=1 n=e6 v=39
67800 On ch=1 n=c7 v=33
67908 On ch=1 n=c7 v=0
67908 On ch=1 n=e6 v=0
67920 On ch=1 n=f6 v=44
67920 On ch=1 n=a6 v=49
67924 On ch=1 n=c6 v=62
67924 On ch=1 n=a5 v=62
67976 Par ch=1 c=64 v=0
68028 On ch=1 n=a6 v=0
68028 On ch=1 n=f6 v=0
68040 On ch=1 n=f6 v=39
68040 On ch=1 n=d7 v=39
68100 On ch=1 n=c6 v=0
68120 On ch=1 n=a5 v=0
68148 On ch=1 n=d7 v=0
68148 On ch=1 n=f6 v=0
68156 On ch=1 n=g5 v=61
68160 On ch=1 n=g6 v=45
68160 On ch=1 n=b6 v=42
68160 On ch=1 n=b5 v=61
68268 On ch=1 n=b6 v=0
68268 On ch=1 n=g6 v=0
68280 On ch=1 n=g6 v=45
68280 On ch=1 n=e7 v=46
68360 On ch=1 n=b5 v=0
68368 On ch=1 n=g5 v=0
68388 On ch=1 n=e7 v=0
68388 On ch=1 n=g6 v=0
68400 On ch=1 n=c7 v=35
68400 On ch=1 n=a6 v=36
68404 On ch=1 n=a5 v=61
68404 On ch=1 n=f5 v=61
68412 Par ch=1 c=64 v=127
68508 On ch=1 n=a6 v=0
68508 On ch=1 n=c7 v=0
68520 On ch=1 n=a6 v=45
68520 On ch=1 n=f7 v=40
68568 On ch=1 n=a5 v=0
68628 On ch=1 n=f7 v=0
68628 On ch=1 n=a6 v=0
68636 On ch=1 n=g5 v=62
68636 Par ch=1 c=64 v=0
68640 On ch=1 n=g6 v=39
68640 On ch=1 n=b6 v=45
68644 On ch=1 n=b5 v=62
68656 On ch=1 n=f5 v=0
68748 On ch=1 n=b6 v=0
68748 On ch=1 n=g6 v=0
68760 On ch=1 n=g6 v=45
68760 On ch=1 n=e7 v=37
68808 On ch=1 n=b5 v=0
68828 On ch=1 n=g5 v=0
68868 On ch=1 n=e7 v=0
68868 On ch=1 n=g6 v=0
68880 On ch=1 n=f6 v=39
68880 On ch=1 n=a6 v=46
68884 On ch=1 n=a5 v=57
68884 On ch=1 n=c6 v=57
68988 On ch=1 n=a6 v=0
68988 On ch=1 n=f6 v=0
69000 On ch=1 n=f6 v=43
69000 On ch=1 n=d7 v=37
69040 On ch=1 n=c6 v=0
69040 On ch=1 n=a5 v=0
69108 On ch=1 n=d7 v=0
69108 On ch=1 n=f6 v=0
69116 Par ch=1 c=64 v=127
69120 On ch=1 n=f6 v=43
69120 On ch=1 n=g6 v=44
69124 On ch=1 n=b5 v=57
69124 On ch=1 n=d6 v=57
69228 On ch=1 n=g6 v=0
69228 On ch=1 n=f6 v=0
69240 On ch=1 n=f6 v=43
69240 On ch=1 n=d7 v=45
69284 On ch=1 n=c5 v=0
69316 On ch=1 n=d6 v=0
69348 On ch=1 n=d7 v=0
69348 On ch=1 n=f6 v=0
69360 On ch=1 n=g6 v=48
69360 On ch=1 n=f6 v=42
69364 On ch=1 n=c5 v=59
69384 On ch=1 n=b5 v=0
69468 On ch=1 n=f6 v=0
69468 On ch=1 n=g6 v=0
69480 On ch=1 n=f6 v=42
69480 On ch=1 n=d7 v=42
69588 On ch=1 n=d7 v=0
69588 On ch=1 n=f6 v=0
69600 On ch=1 n=f6 v=42
69600 On ch=1 n=a6 v=46
69604 On ch=1 n=a5 v=56
69604 On ch=1 n=c6 v=56
69616 Par ch=1 c=64 v=0
69708 On ch=1 n=a6 v=0
69708 On ch=1 n=f6 v=0
69720 On ch=1 n=d7 v=43
69720 On ch=1 n=f6 v=45
69760 On ch=1 n=a5 v=0
69772 On ch=1 n=c6 v=0
69824 Par ch=1 c=64 v=127
69828 On ch=1 n=f6 v=0
69828 On ch=1 n=d7 v=0
69840 On ch=1 n=f6 v=45
69840 On ch=1 n=g6 v=48
69844 On ch=1 n=b5 v=56
69848 On ch=1 n=d6 v=56
69948 On ch=1 n=g6 v=0
69948 On ch=1 n=f6 v=0
69960 On ch=1 n=d7 v=42
69960 On ch=1 n=f6 v=37
70028 On ch=1 n=d6 v=0
70032 On ch=1 n=c5 v=0
70060 On ch=1 n=b5 v=0
70068 On ch=1 n=f6 v=0
70068 On ch=1 n=d7 v=0
70080 On ch=1 n=g6 v=44
70080 On ch=1 n=f6 v=39
70088 On ch=1 n=c5 v=56
70188 On ch=1 n=f6 v=0
70188 On ch=1 n=g6 v=0
70200 On ch=1 n=f6 v=47
70200 On ch=1 n=e7 v=49
70308 On ch=1 n=e7 v=0
70308 On ch=1 n=f6 v=0
70320 On ch=1 n=g6 v=43
70320 On ch=1 n=f6 v=34
70328 On ch=1 n=g5 v=56
70332 On ch=1 n=b5 v=56
70428 On ch=1 n=f6 v=0
70428 On ch=1 n=g6 v=0
70440 On ch=1 n=f6 v=45
70440 On ch=1 n=d7 v=46
70464 On ch=1 n=b5 v=0
70472 On ch=1 n=c5 v=0
70480 On ch=1 n=g5 v=0
70548 On ch=1 n=d7 v=0
70548 On ch=1 n=f6 v=0
70560 On ch=1 n=e6 v=48
70560 On ch=1 n=g6 v=45
70560 On ch=1 n=c5 v=64
70564 On ch=1 n=c6 v=58
70572 Par ch=1 c=64 v=0
70668 On ch=1 n=g6 v=0
70668 On ch=1 n=e6 v=0
70680 On ch=1 n=e6 v=47
70680 On ch=1 n=c7 v=48
70700 On ch=1 n=c6 v=0
70708 On ch=1 n=c5 v=0
70788 On ch=1 n=c7 v=0
70788 On ch=1 n=e6 v=0
70796 On ch=1 n=f#4 v=68
70796 On ch=1 n=f#5 v=73
70800 On ch=1 n=d#6 v=48
70800 On ch=1 n=g#6 v=47
70848 Par ch=1 c=64 v=127
70908 On ch=1 n=g#6 v=0
70908 On ch=1 n=d#6 v=0
70920 On ch=1 n=c7 v=47
70920 On ch=1 n=d#6 v=43
71020 On ch=1 n=f#4 v=0
71028 On ch=1 n=d#6 v=0
71028 On ch=1 n=c7 v=0
71032 On ch=1 n=f#5 v=0
71036 On ch=1 n=g4 v=68
71036 On ch=1 n=g5 v=72
71040 On ch=1 n=d6 v=45
71040 On ch=1 n=g6 v=51
71044 Par ch=1 c=64 v=0
71148 On ch=1 n=g6 v=0
71148 On ch=1 n=d6 v=0
71160 On ch=1 n=d6 v=45
71160 On ch=1 n=b6 v=57
71196 On ch=1 n=g5 v=0
71208 On ch=1 n=g4 v=0
71268 On ch=1 n=b6 v=0
71268 On ch=1 n=d6 v=0
71276 On ch=1 n=d#5 v=72
71276 Par ch=1 c=64 v=127
71280 On ch=1 n=c#6 v=40
71280 On ch=1 n=g6 v=43
71280 On ch=1 n=d#4 v=68
71388 On ch=1 n=g6 v=0
71388 On ch=1 n=c#6 v=0
71400 On ch=1 n=c#6 v=45
71400 On ch=1 n=a#6 v=40
71452 On ch=1 n=d#4 v=0
71460 On ch=1 n=d#5 v=0
71496 Par ch=1 c=64 v=0
71508 On ch=1 n=a#6 v=0
71508 On ch=1 n=c#6 v=0
71516 On ch=1 n=g#4 v=62
71516 On ch=1 n=g#5 v=85
71520 On ch=1 n=c6 v=44
71520 On ch=1 n=e6 v=39
71628 On ch=1 n=e6 v=0
71628 On ch=1 n=c6 v=0
71640 On ch=1 n=g#6 v=46
71640 On ch=1 n=c6 v=45
71656 On ch=1 n=g#5 v=0
71656 On ch=1 n=g#4 v=0
71732 Par ch=1 c=64 v=127
71748 On ch=1 n=c6 v=0
71748 On ch=1 n=g#6 v=0
71760 On ch=1 n=a#5 v=42
71760 On ch=1 n=e6 v=45
71764 On ch=1 n=c#4 v=70
71764 On ch=1 n=c#5 v=75
71868 On ch=1 n=e6 v=0
71868 On ch=1 n=a#5 v=0
71880 On ch=1 n=a#5 v=42
71880 On ch=1 n=g6 v=45
71952 On ch=1 n=c#4 v=0
71964 On ch=1 n=c#5 v=0
71972 Par ch=1 c=64 v=0
71988 On ch=1 n=g6 v=0
71988 On ch=1 n=a#5 v=0
71996 On ch=1 n=d5 v=76
71996 On ch=1 n=d4 v=64
72000 On ch=1 n=d6 v=54
72000 On ch=1 n=a5 v=44
72108 On ch=1 n=a5 v=0
72108 On ch=1 n=d6 v=0
72120 On ch=1 n=f#6 v=52
72120 On ch=1 n=a5 v=42
72136 On ch=1 n=d4 v=0
72136 On ch=1 n=d5 v=0
72224 Par ch=1 c=64 v=127
72228 On ch=1 n=a5 v=0
72228 On ch=1 n=f#6 v=0
72240 On ch=1 n=g#5 v=33
72240 On ch=1 n=d6 v=48
72244 On ch=1 n=b4 v=68
72244 On ch=1 n=b3 v=73
72348 On ch=1 n=d6 v=0
72348 On ch=1 n=g#5 v=0
72360 On ch=1 n=g#5 v=47
72360 On ch=1 n=f6 v=49
72440 On ch=1 n=b4 v=0
72448 On ch=1 n=b3 v=0
72452 Par ch=1 c=64 v=0
72468 On ch=1 n=f6 v=0
72468 On ch=1 n=g#5 v=0
72480 On ch=1 n=g5 v=45
72480 On ch=1 n=c6 v=54
72484 On ch=1 n=c4 v=62
72484 On ch=1 n=c5 v=67
72588 On ch=1 n=c6 v=0
72588 On ch=1 n=g5 v=0
72600 On ch=1 n=e6 v=45
72600 On ch=1 n=g5 v=41
72612 On ch=1 n=c5 v=0
72644 On ch=1 n=c4 v=0
72708 On ch=1 n=g5 v=0
72708 On ch=1 n=e6 v=0
72712 Par ch=1 c=64 v=127
72716 On ch=1 n=g#4 v=68
72720 On ch=1 n=c6 v=51
72720 On ch=1 n=g#5 v=36
72720 On ch=1 n=g#3 v=77
72828 On ch=1 n=g#5 v=0
72828 On ch=1 n=c6 v=0
72840 On ch=1 n=d#6 v=58
72840 On ch=1 n=g#5 v=41
72892 On ch=1 n=g#4 v=0
72948 On ch=1 n=g#5 v=0
72948 On ch=1 n=d#6 v=0
72948 Par ch=1 c=64 v=0
72960 On ch=1 n=a5 v=44
72960 On ch=1 n=c6 v=50
72964 On ch=1 n=f#4 v=75
72964 On ch=1 n=f#3 v=73
72988 On ch=1 n=g#3 v=0
73068 On ch=1 n=c6 v=0
73068 On ch=1 n=a5 v=0
73080 On ch=1 n=a5 v=42
73080 On ch=1 n=d6 v=48
73188 On ch=1 n=d6 v=0
73188 On ch=1 n=a5 v=0
73188 On ch=1 n=f#3 v=0
73188 On ch=1 n=f#4 v=0
73188 Par ch=1 c=64 v=127
73200 On ch=1 n=f5 v=39
73200 On ch=1 n=g5 v=47
73204 On ch=1 n=g3 v=76
73204 On ch=1 n=g4 v=71
73308 On ch=1 n=g5 v=0
73308 On ch=1 n=f5 v=0
73320 On ch=1 n=f5 v=40
73320 On ch=1 n=b5 v=47
73356 On ch=1 n=g4 v=0
73356 On ch=1 n=g3 v=0
73416 Par ch=1 c=64 v=0
73428 On ch=1 n=b5 v=0
73428 On ch=1 n=f5 v=0
73440 On ch=1 n=g5 v=46
73440 On ch=1 n=e5 v=39
73444 On ch=1 n=c3 v=67
73444 On ch=1 n=c4 v=73
73548 On ch=1 n=e5 v=0
73548 On ch=1 n=g5 v=0
73560 On ch=1 n=c6 v=54
73560 On ch=1 n=e5 v=45
73568 On ch=1 n=c3 v=0
73584 On ch=1 n=c4 v=0
73668 On ch=1 n=e5 v=0
73668 On ch=1 n=c6 v=0
73668 Par ch=1 c=64 v=127
73680 On ch=1 n=a5 v=52
73680 On ch=1 n=d#5 v=40
73684 On ch=1 n=f#4 v=81
73688 On ch=1 n=f#3 v=62
73788 On ch=1 n=d#5 v=0
73788 On ch=1 n=a5 v=0
73800 On ch=1 n=c6 v=46
73800 On ch=1 n=d#5 v=46
73904 On ch=1 n=f#3 v=0
73904 Par ch=1 c=64 v=0
73908 On ch=1 n=d#5 v=0
73908 On ch=1 n=c6 v=0
73920 On ch=1 n=g5 v=51
73920 On ch=1 n=d5 v=45
73924 On ch=1 n=g3 v=66
73924 On ch=1 n=g4 v=69
73932 On ch=1 n=f#4 v=0
74028 On ch=1 n=d5 v=0
74028 On ch=1 n=g5 v=0
74040 On ch=1 n=d5 v=43
74040 On ch=1 n=b5 v=40
74060 On ch=1 n=g4 v=0
74068 On ch=1 n=g3 v=0
74116 Par ch=1 c=64 v=127
74148 On ch=1 n=b5 v=0
74148 On ch=1 n=d5 v=0
74160 On ch=1 n=c#5 v=43
74160 On ch=1 n=g5 v=60
74164 On ch=1 n=d#3 v=73
74164 On ch=1 n=d#4 v=81
74268 On ch=1 n=g5 v=0
74268 On ch=1 n=c#5 v=0
74280 On ch=1 n=a#5 v=55
74280 On ch=1 n=c#5 v=53
74308 On ch=1 n=d#3 v=0
74316 On ch=1 n=d#4 v=0
74388 On ch=1 n=c#5 v=0
74388 On ch=1 n=a#5 v=0
74392 Par ch=1 c=64 v=0
74400 On ch=1 n=e5 v=45
74400 On ch=1 n=c5 v=42
74404 On ch=1 n=g#3 v=66
74404 On ch=1 n=g#4 v=85
74508 On ch=1 n=c5 v=0
74508 On ch=1 n=e5 v=0
74520 On ch=1 n=g#5 v=53
74520 On ch=1 n=c5 v=48
74580 On ch=1 n=g#3 v=0
74584 On ch=1 n=g#4 v=0
74608 Par ch=1 c=64 v=127
74628 On ch=1 n=c5 v=0
74628 On ch=1 n=g#5 v=0
74640 On ch=1 n=e5 v=51
74640 On ch=1 n=a#4 v=46
74644 On ch=1 n=c#3 v=62
74648 On ch=1 n=c#4 v=81
74748 On ch=1 n=a#4 v=0
74748 On ch=1 n=e5 v=0
74760 On ch=1 n=a#4 v=52
74760 On ch=1 n=g5 v=49
74844 Par ch=1 c=64 v=0
74852 On ch=1 n=c#3 v=0
74868 On ch=1 n=g5 v=0
74868 On ch=1 n=a#4 v=0
74876 On ch=1 n=c#4 v=0
74880 On ch=1 n=d5 v=45
74880 On ch=1 n=a4 v=45
74884 On ch=1 n=d3 v=58
74884 On ch=1 n=d4 v=83
74988 On ch=1 n=a4 v=0
74988 On ch=1 n=d5 v=0
75000 On ch=1 n=f#5 v=54
75000 On ch=1 n=a4 v=47
75012 On ch=1 n=d4 v=0
75020 On ch=1 n=d3 v=0
75068 Par ch=1 c=64 v=127
75108 On ch=1 n=a4 v=0
75108 On ch=1 n=f#5 v=0
75116 On ch=1 n=b2 v=73
75116 On ch=1 n=b3 v=82
75120 On ch=1 n=d5 v=56
75120 On ch=1 n=g#4 v=50
75228 On ch=1 n=g#4 v=0
75228 On ch=1 n=d5 v=0
75240 On ch=1 n=g#4 v=56
75240 On ch=1 n=f5 v=56
75320 On ch=1 n=b3 v=0
75320 Par ch=1 c=64 v=0
75340 On ch=1 n=b2 v=0
75348 On ch=1 n=f5 v=0
75348 On ch=1 n=g#4 v=0
75360 On ch=1 n=c5 v=55
75360 On ch=1 n=g4 v=49
75364 On ch=1 n=c3 v=77
75364 On ch=1 n=c4 v=83
75468 On ch=1 n=g4 v=0
75468 On ch=1 n=c5 v=0
75480 On ch=1 n=g4 v=50
75480 On ch=1 n=e5 v=53
75492 On ch=1 n=c4 v=0
75552 On ch=1 n=c3 v=0
75552 Par ch=1 c=64 v=127
75588 On ch=1 n=e5 v=0
75588 On ch=1 n=g4 v=0
75600 On ch=1 n=g#4 v=50
75600 On ch=1 n=c5 v=45
75604 On ch=1 n=g#3 v=82
75604 On ch=1 n=g#2 v=78
75708 On ch=1 n=c5 v=0
75708 On ch=1 n=g#4 v=0
75720 On ch=1 n=g#4 v=47
75720 On ch=1 n=d#5 v=46
75784 On ch=1 n=g#3 v=0
75820 Par ch=1 c=64 v=0
75828 On ch=1 n=d#5 v=0
75828 On ch=1 n=g#4 v=0
75840 On ch=1 n=c5 v=53
75840 On ch=1 n=a4 v=47
75844 On ch=1 n=f#3 v=75
75844 On ch=1 n=f#2 v=69
75856 On ch=1 n=g#2 v=0
75948 On ch=1 n=a4 v=0
75948 On ch=1 n=c5 v=0
75960 On ch=1 n=a4 v=48
75960 On ch=1 n=d5 v=43
76068 On ch=1 n=d5 v=0
76068 On ch=1 n=a4 v=0
76080 On ch=1 n=f#2 v=0
76080 On ch=1 n=f4 v=46
76080 On ch=1 n=g4 v=51
76084 On ch=1 n=g2 v=68
76088 On ch=1 n=g3 v=74
76108 On ch=1 n=f#3 v=0
76188 On ch=1 n=g4 v=0
76188 On ch=1 n=f4 v=0
76200 On ch=1 n=b4 v=51
76200 On ch=1 n=f4 v=45
76276 On ch=1 n=g2 v=0
76284 On ch=1 n=g3 v=0
76308 On ch=1 n=f4 v=0
76308 On ch=1 n=b4 v=0
76320 On ch=1 n=g4 v=60
76320 On ch=1 n=e4 v=58
76324 On ch=1 n=g3 v=81
76324 On ch=1 n=c3 v=81
76324 Par ch=1 c=64 v=127
76428 On ch=1 n=e4 v=0
76428 On ch=1 n=g4 v=0
76440 On ch=1 n=c5 v=68
76440 On ch=1 n=e4 v=61
76532 Par ch=1 c=64 v=0
76548 On ch=1 n=e4 v=0
76548 On ch=1 n=c5 v=0
76560 On ch=1 n=f4 v=60
76560 On ch=1 n=a4 v=63
76668 On ch=1 n=a4 v=0
76668 On ch=1 n=f4 v=0
76680 On ch=1 n=d5 v=66
76680 On ch=1 n=f4 v=59
76780 On ch=1 n=c3 v=0
76788 On ch=1 n=f4 v=0
76788 On ch=1 n=d5 v=0
76796 On ch=1 n=g3 v=0
76800 On ch=1 n=b4 v=64
76800 On ch=1 n=g4 v=54
76908 On ch=1 n=g4 v=0
76908 On ch=1 n=b4 v=0
76920 On ch=1 n=e5 v=61
76920 On ch=1 n=g4 v=59
77028 On ch=1 n=g4 v=0
77028 On ch=1 n=e5 v=0
77036 Par ch=1 c=64 v=127
77040 On ch=1 n=c5 v=55
77040 On ch=1 n=a4 v=50
77148 On ch=1 n=a4 v=0
77148 On ch=1 n=c5 v=0
77160 On ch=1 n=f5 v=74
77160 On ch=1 n=a4 v=68
77268 On ch=1 n=a4 v=0
77268 On ch=1 n=f5 v=0
77280 On ch=1 n=a4 v=51
77280 On ch=1 n=f4 v=48
77388 On ch=1 n=f4 v=0
77388 On ch=1 n=a4 v=0
77400 On ch=1 n=f4 v=59
77400 On ch=1 n=d5 v=64
77420 Par ch=1 c=64 v=0
77508 On ch=1 n=d5 v=0
77508 On ch=1 n=f4 v=0
77516 On ch=1 n=g2 v=73
77516 On ch=1 n=g3 v=73
77520 On ch=1 n=b4 v=62
77520 On ch=1 n=g4 v=52
77628 On ch=1 n=g4 v=0
77628 On ch=1 n=b4 v=0
77640 On ch=1 n=e5 v=55
77640 On ch=1 n=g4 v=54
77700 On ch=1 n=g3 v=0
77724 On ch=1 n=g2 v=0
77748 On ch=1 n=g4 v=0
77748 On ch=1 n=e5 v=0
77756 On ch=1 n=g3 v=73
77756 On ch=1 n=c3 v=82
77760 On ch=1 n=g4 v=58
77760 On ch=1 n=e4 v=52
77764 Par ch=1 c=64 v=127
77868 On ch=1 n=e4 v=0
77868 On ch=1 n=g4 v=0
77880 On ch=1 n=c5 v=70
77880 On ch=1 n=e4 v=58
77988 On ch=1 n=e4 v=0
77988 On ch=1 n=c5 v=0
78000 On ch=1 n=f4 v=54
78000 On ch=1 n=a4 v=60
78004 Par ch=1 c=64 v=0
78108 On ch=1 n=a4 v=0
78108 On ch=1 n=f4 v=0
78120 On ch=1 n=f4 v=56
78120 On ch=1 n=d5 v=62
78204 On ch=1 n=g3 v=0
78216 On ch=1 n=c3 v=0
78228 On ch=1 n=d5 v=0
78228 On ch=1 n=f4 v=0
78240 On ch=1 n=g4 v=51
78240 On ch=1 n=b4 v=60
78348 On ch=1 n=b4 v=0
78348 On ch=1 n=g4 v=0
78360 On ch=1 n=g4 v=61
78360 On ch=1 n=e5 v=61
78468 On ch=1 n=e5 v=0
78468 On ch=1 n=g4 v=0
78480 On ch=1 n=c5 v=55
78480 On ch=1 n=a4 v=45
78484 Par ch=1 c=64 v=127
78588 On ch=1 n=a4 v=0
78588 On ch=1 n=c5 v=0
78600 On ch=1 n=a4 v=69
78600 On ch=1 n=f5 v=73
78708 On ch=1 n=f5 v=0
78708 On ch=1 n=a4 v=0
78720 On ch=1 n=a4 v=50
78720 On ch=1 n=f4 v=45
78828 On ch=1 n=f4 v=0
78828 On ch=1 n=a4 v=0
78840 On ch=1 n=d5 v=68
78840 On ch=1 n=f4 v=68
78896 Par ch=1 c=64 v=0
78948 On ch=1 n=f4 v=0
78948 On ch=1 n=d5 v=0
78960 On ch=1 n=b4 v=56
78960 On ch=1 n=g4 v=49
78960 On ch=1 n=g2 v=84
78964 On ch=1 n=g3 v=75
79068 On ch=1 n=g4 v=0
79068 On ch=1 n=b4 v=0
79080 On ch=1 n=g4 v=51
79080 On ch=1 n=e5 v=48
79156 On ch=1 n=g3 v=0
79164 On ch=1 n=g2 v=0
79188 On ch=1 n=e5 v=0
79188 On ch=1 n=g4 v=0
79200 On ch=1 n=g4 v=48
79200 On ch=1 n=e4 v=43
79204 On ch=1 n=g3 v=75
79204 On ch=1 n=c3 v=84
79248 Par ch=1 c=64 v=127
79308 On ch=1 n=e4 v=0
79308 On ch=1 n=g4 v=0
79320 On ch=1 n=e4 v=54
79320 On ch=1 n=c5 v=70
79380 On ch=1 n=c3 v=0
79384 On ch=1 n=g3 v=0
79428 On ch=1 n=c5 v=0
79428 On ch=1 n=e4 v=0
79440 On ch=1 n=g4 v=57
79440 On ch=1 n=f4 v=49
79444 On ch=1 n=g3 v=72
79444 On ch=1 n=b2 v=80
79448 Par ch=1 c=64 v=0
79548 On ch=1 n=f4 v=0
79548 On ch=1 n=g4 v=0
79560 On ch=1 n=d5 v=65
79560 On ch=1 n=f4 v=50
79612 On ch=1 n=b2 v=0
79616 On ch=1 n=g3 v=0
79668 On ch=1 n=f4 v=0
79668 On ch=1 n=d5 v=0
79676 On ch=1 n=g3 v=70
79676 On ch=1 n=c3 v=79
79680 On ch=1 n=e4 v=51
79680 On ch=1 n=g4 v=57
79788 On ch=1 n=g4 v=0
79788 On ch=1 n=e4 v=0
79800 On ch=1 n=c5 v=68
79800 On ch=1 n=e4 v=57
79848 On ch=1 n=c3 v=0
79852 On ch=1 n=g3 v=0
79908 On ch=1 n=e4 v=0
79908 On ch=1 n=c5 v=0
79916 On ch=1 n=g3 v=74
79916 On ch=1 n=b2 v=83
79920 On ch=1 n=f4 v=55
79920 On ch=1 n=g4 v=59
79960 Par ch=1 c=64 v=127
80028 On ch=1 n=g4 v=0
80028 On ch=1 n=f4 v=0
80040 On ch=1 n=d5 v=68
80040 On ch=1 n=f4 v=63
80096 On ch=1 n=b2 v=0
80100 On ch=1 n=g3 v=0
80148 On ch=1 n=f4 v=0
80148 On ch=1 n=d5 v=0
80160 On ch=1 n=g4 v=54
80160 On ch=1 n=e4 v=37
80160 On ch=1 n=g3 v=66
80160 On ch=1 n=c3 v=74
80180 Par ch=1 c=64 v=0
80268 On ch=1 n=e4 v=0
80268 On ch=1 n=g4 v=0
80280 On ch=1 n=e4 v=51
80280 On ch=1 n=c5 v=64
80332 On ch=1 n=c3 v=0
80332 On ch=1 n=g3 v=0
80388 On ch=1 n=c5 v=0
80388 On ch=1 n=e4 v=0
80396 On ch=1 n=g3 v=69
80400 On ch=1 n=g4 v=55
80400 On ch=1 n=f4 v=44
80400 On ch=1 n=b2 v=78
80508 On ch=1 n=f4 v=0
80508 On ch=1 n=g4 v=0
80520 On ch=1 n=f4 v=56
80520 On ch=1 n=d5 v=64
80568 On ch=1 n=b2 v=0
80568 On ch=1 n=g3 v=0
80628 On ch=1 n=d5 v=0
80628 On ch=1 n=f4 v=0
80640 On ch=1 n=e4 v=43
80640 On ch=1 n=g4 v=54
80644 On ch=1 n=g3 v=73
80644 On ch=1 n=c3 v=82
80664 Par ch=1 c=64 v=127
80748 On ch=1 n=g4 v=0
80748 On ch=1 n=e4 v=0
80760 On ch=1 n=c5 v=71
80760 On ch=1 n=e4 v=60
80812 On ch=1 n=c3 v=0
80816 On ch=1 n=g3 v=0
80868 On ch=1 n=e4 v=0
80868 On ch=1 n=c5 v=0
80880 On ch=1 n=f4 v=45
80880 On ch=1 n=g4 v=52
80880 On ch=1 n=g3 v=74
80880 On ch=1 n=b2 v=83
80900 Par ch=1 c=64 v=0
80988 On ch=1 n=g4 v=0
80988 On ch=1 n=f4 v=0
81000 On ch=1 n=f4 v=50
81000 On ch=1 n=d5 v=65
81056 On ch=1 n=b2 v=0
81056 On ch=1 n=g3 v=0
81108 On ch=1 n=d5 v=0
81108 On ch=1 n=f4 v=0
81116 On ch=1 n=g3 v=73
81116 On ch=1 n=c3 v=82
81120 On ch=1 n=e4 v=45
81120 On ch=1 n=g4 v=58
81228 On ch=1 n=g4 v=0
81228 On ch=1 n=e4 v=0
81240 On ch=1 n=e4 v=43
81240 On ch=1 n=c5 v=63
81304 On ch=1 n=c3 v=0
81304 On ch=1 n=g3 v=0
81348 On ch=1 n=c5 v=0
81348 On ch=1 n=e4 v=0
81356 On ch=1 n=g3 v=69
81360 On ch=1 n=f4 v=46
81360 On ch=1 n=g4 v=54
81360 On ch=1 n=b2 v=79
81392 Par ch=1 c=64 v=127
81468 On ch=1 n=g4 v=0
81468 On ch=1 n=f4 v=0
81480 On ch=1 n=f4 v=63
81480 On ch=1 n=d5 v=69
81548 On ch=1 n=b2 v=0
81552 On ch=1 n=g3 v=0
81588 On ch=1 n=d5 v=0
81588 On ch=1 n=f4 v=0
81600 On ch=1 n=e4 v=39
81600 On ch=1 n=g4 v=51
81604 On ch=1 n=g3 v=76
81604 On ch=1 n=c3 v=85
81608 Par ch=1 c=64 v=0
81708 On ch=1 n=g4 v=0
81708 On ch=1 n=e4 v=0
81720 On ch=1 n=e4 v=49
81720 On ch=1 n=c5 v=65
81788 On ch=1 n=c3 v=0
81792 On ch=1 n=g3 v=0
81828 On ch=1 n=c5 v=0
81828 On ch=1 n=e4 v=0
81840 On ch=1 n=g4 v=56
81840 On ch=1 n=f4 v=49
81844 On ch=1 n=g3 v=73
81844 On ch=1 n=b2 v=81
81948 On ch=1 n=f4 v=0
81948 On ch=1 n=g4 v=0
81960 On ch=1 n=f4 v=42
81960 On ch=1 n=d5 v=60
82004 On ch=1 n=g3 v=0
82008 On ch=1 n=b2 v=0
82068 On ch=1 n=d5 v=0
82068 On ch=1 n=f4 v=0
82080 On ch=1 n=c5 v=71
82080 On ch=1 n=e4 v=68
82084 On ch=1 n=c3 v=88
82084 On ch=1 n=g3 v=79
82104 Par ch=1 c=64 v=127
82236 On ch=1 n=e4 v=0
82236 On ch=1 n=c5 v=0
82320 On ch=1 n=c5 v=64
82320 On ch=1 n=e4 v=56
82428 On ch=1 n=e4 v=0
82428 On ch=1 n=c5 v=0
82440 On ch=1 n=e4 v=56
82548 On ch=1 n=e4 v=0
82560 On ch=1 n=e5 v=65
82560 On ch=1 n=g4 v=55
82668 On ch=1 n=g4 v=0
82668 On ch=1 n=e5 v=0
82680 On ch=1 n=g4 v=52
82788 On ch=1 n=g4 v=0
82800 On ch=1 n=g5 v=66
82800 On ch=1 n=c5 v=55
82908 On ch=1 n=c5 v=0
82908 On ch=1 n=g5 v=0
82920 On ch=1 n=c5 v=49
83028 On ch=1 n=c5 v=0
83040 On ch=1 n=c6 v=68
83040 On ch=1 n=e5 v=52
83148 On ch=1 n=e5 v=0
83148 On ch=1 n=c6 v=0
83160 On ch=1 n=e5 v=52
83268 On ch=1 n=e5 v=0
83268 On ch=1 n=g3 v=0
83272 On ch=1 n=c3 v=0
83280 On ch=1 n=g5 v=56
83280 On ch=1 n=e6 v=65
83388 On ch=1 n=e6 v=0
83388 On ch=1 n=g5 v=0
83400 On ch=1 n=g5 v=55
83448 On ch=1 n=c4 v=74
83492 On ch=1 n=g4 v=72
83504 On ch=1 n=c4 v=0
83508 On ch=1 n=g5 v=0
83520 On ch=1 n=g6 v=63
83520 On ch=1 n=c6 v=55
83528 On ch=1 n=e5 v=80
83628 On ch=1 n=c6 v=0
83628 On ch=1 n=g6 v=0
83640 On ch=1 n=c6 v=57
83748 On ch=1 n=c6 v=0
83760 On ch=1 n=c7 v=68
83760 On ch=1 n=e6 v=59
83868 On ch=1 n=e6 v=0
83868 On ch=1 n=c7 v=0
83880 On ch=1 n=e6 v=62
83988 On ch=1 n=e6 v=0
84000 On ch=1 n=e7 v=69
84000 On ch=1 n=g6 v=61
84108 On ch=1 n=g6 v=0
84108 On ch=1 n=e7 v=0
84120 On ch=1 n=g6 v=62
84228 On ch=1 n=g6 v=0
84240 On ch=1 n=g7 v=73
84240 On ch=1 n=c7 v=64
84348 On ch=1 n=c7 v=0
84348 On ch=1 n=g7 v=0
84360 On ch=1 n=c7 v=66
84376 On ch=1 n=g4 v=0
84380 On ch=1 n=e5 v=0
84468 On ch=1 n=c7 v=0
84480 On ch=1 n=c8 v=69
84480 On ch=1 n=e7 v=69
84588 On ch=1 n=e7 v=0
84588 On ch=1 n=c8 v=0
84600 On ch=1 n=e7 v=72
84708 On ch=1 n=e7 v=0
84720 On ch=1 n=e8 v=72
84720 On ch=1 n=g7 v=72
84828 On ch=1 n=g7 v=0
84828 On ch=1 n=e8 v=0
84968 On ch=1 n=e8 v=74
84976 On ch=1 n=g7 v=75
85044 On ch=1 n=e8 v=0
85060 On ch=1 n=c5 v=74
85092 On ch=1 n=g5 v=66
85100 On ch=1 n=c7 v=83
85112 On ch=1 n=c5 v=0
85136 On ch=1 n=g7 v=0
85144 On ch=1 n=e6 v=68
85192 On ch=1 n=c7 v=0
85192 On ch=1 n=g5 v=0
85200 On ch=1 n=e6 v=0
85916 On ch=1 n=c5 v=72
85916 On ch=1 n=e7 v=82
85916 On ch=1 n=c7 v=70
85916 On ch=1 n=e6 v=76
85924 On ch=1 n=g6 v=62
85924 On ch=1 n=g5 v=69
85924 On ch=1 n=c6 v=70
86368 On ch=1 n=c6 v=0
86376 On ch=1 n=g5 v=0
86376 On ch=1 n=e6 v=0
86384 On ch=1 n=g6 v=0
86392 On ch=1 n=c7 v=0
86404 On ch=1 n=e7 v=0
86404 On ch=1 n=c5 v=0
86896 On ch=1 n=c5 v=92
86904 On ch=1 n=c3 v=90
86912 On ch=1 n=c4 v=91
89676 On ch=1 n=c4 v=0
89684 On ch=1 n=c5 v=0
89704 On ch=1 n=c3 v=0
91264 Par ch=1 c=64 v=0
91264 Meta TrkEnd
TrkEnd
MTrk
0 SeqSpec 43 00 01 00
0 Meta TrkName "in C Major"
0 Meta 0x21 00
0 Meta TrkEnd
TrkEnd
MTrk
0 SeqSpec 43 00 01 00
0 Meta TrkName "Op. 10, No"
