MFile 1 10 120
MTrk
0 TimeSig 4/4 24 8
0 Tempo 967741
0 KeySig 0 major
144 Tempo 681818
182 Tempo 674157
840 Tempo 800000
960 Tempo 638297
1058 Tempo 674157
2400 Tempo 674157
3576 Tempo 600000
3577 Tempo 638297
3600 Tempo 600000
3602 Tempo 571428
3720 Tempo 600000
3720 Meta TrkEnd
TrkEnd
MTrk
0 PrCh ch=1 p=0
0 Par ch=1 c=0 v=0
0 Par ch=1 c=32 v=2
88 On ch=1 n=c4 v=65
89 On ch=1 n=c5 v=65
104 On ch=1 n=c3 v=65
154 On ch=1 n=c3 v=0
154 On ch=1 n=c4 v=0
156 On ch=1 n=c5 v=0
182 On ch=1 n=c5 v=65
182 On ch=1 n=c#5 v=65
184 On ch=1 n=c#5 v=0
185 On ch=1 n=c5 v=0
185 On ch=1 n=g5 v=65
185 On ch=1 n=a#5 v=65
187 On ch=1 n=c7 v=65
189 On ch=1 n=e6 v=65
191 On ch=1 n=g5 v=0
192 On ch=1 n=a#5 v=0
216 On ch=1 n=e7 v=65
217 On ch=1 n=c8 v=65
220 On ch=1 n=e6 v=0
220 On ch=1 n=c7 v=0
253 On ch=1 n=a#7 v=65
256 On ch=1 n=e7 v=0
270 On ch=1 n=g7 v=65
284 On ch=1 n=e7 v=65
299 On ch=1 n=c7 v=65
303 On ch=1 n=e7 v=0
306 On ch=1 n=g7 v=0
312 On ch=1 n=a#6 v=65
322 On ch=1 n=c8 v=0
324 On ch=1 n=a#7 v=0
325 On ch=1 n=g6 v=65
328 On ch=1 n=a#6 v=0
328 On ch=1 n=c7 v=0
338 On ch=1 n=e6 v=65
343 On ch=1 n=g6 v=0
350 On ch=1 n=c6 v=65
352 On ch=1 n=e6 v=0
363 On ch=1 n=a#5 v=65
368 On ch=1 n=c6 v=0
376 On ch=1 n=g5 v=65
386 On ch=1 n=e5 v=65
396 On ch=1 n=a#5 v=0
396 On ch=1 n=c5 v=65
398 On ch=1 n=g5 v=0
402 On ch=1 n=e5 v=0
408 On ch=1 n=a#3 v=65
418 On ch=1 n=c5 v=0
425 On ch=1 n=g3 v=65
427 On ch=1 n=a#3 v=0
443 On ch=1 n=d4 v=65
444 On ch=1 n=g3 v=0
461 On ch=1 n=c4 v=65
462 On ch=1 n=e3 v=65
463 On ch=1 n=g#3 v=65
479 On ch=1 n=a#3 v=65
480 On ch=1 n=d4 v=0
481 On ch=1 n=e3 v=0
481 On ch=1 n=c4 v=0
482 On ch=1 n=g#3 v=0
499 On ch=1 n=f3 v=65
499 On ch=1 n=a3 v=65
501 On ch=1 n=a#3 v=0
520 On ch=1 n=f3 v=0
520 On ch=1 n=e4 v=65
530 On ch=1 n=a3 v=0
540 On ch=1 n=a#3 v=65
540 On ch=1 n=d4 v=65
540 On ch=1 n=f#3 v=65
543 On ch=1 n=e4 v=0
557 On ch=1 n=f#3 v=0
558 On ch=1 n=d4 v=0
559 On ch=1 n=c4 v=65
562 On ch=1 n=a#3 v=0
578 On ch=1 n=c4 v=0
579 On ch=1 n=b3 v=65
579 On ch=1 n=g3 v=65
597 On ch=1 n=g3 v=0
597 On ch=1 n=b3 v=0
597 On ch=1 n=f4 v=65
617 On ch=1 n=e4 v=65
618 On ch=1 n=b3 v=65
619 On ch=1 n=g#3 v=65
620 On ch=1 n=f4 v=0
638 On ch=1 n=b3 v=0
638 On ch=1 n=d4 v=65
639 On ch=1 n=g#3 v=0
641 On ch=1 n=e4 v=0
661 On ch=1 n=d4 v=0
662 On ch=1 n=c4 v=65
662 On ch=1 n=a3 v=65
688 On ch=1 n=g4 v=65
691 On ch=1 n=c4 v=0
713 On ch=1 n=c#4 v=65
713 On ch=1 n=f4 v=65
737 On ch=1 n=g4 v=0
737 On ch=1 n=e4 v=65
739 On ch=1 n=f4 v=0
739 On ch=1 n=c#4 v=0
745 On ch=1 n=a3 v=0
757 On ch=1 n=e4 v=0
758 On ch=1 n=d4 v=65
759 On ch=1 n=a#3 v=65
777 On ch=1 n=a4 v=65
779 On ch=1 n=a#3 v=0
781 On ch=1 n=d4 v=0
799 On ch=1 n=g4 v=65
799 On ch=1 n=b3 v=65
799 On ch=1 n=d#4 v=65
819 On ch=1 n=g4 v=0
819 On ch=1 n=a4 v=0
819 On ch=1 n=f4 v=65
820 On ch=1 n=b3 v=0
821 On ch=1 n=d#4 v=0
841 On ch=1 n=e4 v=65
841 On ch=1 n=c4 v=65
842 On ch=1 n=f4 v=0
865 On ch=1 n=e4 v=0
866 On ch=1 n=c4 v=0
951 On ch=1 n=c5 v=65
953 On ch=1 n=c4 v=65
976 On ch=1 n=c3 v=65
1029 On ch=1 n=c3 v=0
1029 On ch=1 n=c4 v=0
1034 On ch=1 n=c5 v=0
1084 On ch=1 n=g5 v=65
1086 On ch=1 n=e5 v=65
1088 On ch=1 n=a#5 v=65
1089 On ch=1 n=c7 v=65
1093 On ch=1 n=e6 v=65
1096 On ch=1 n=e5 v=0
1106 On ch=1 n=a#5 v=0
1121 On ch=1 n=g5 v=0
1122 On ch=1 n=e7 v=65
1123 On ch=1 n=c8 v=65
1128 On ch=1 n=e6 v=0
1128 On ch=1 n=c7 v=0
1168 On ch=1 n=a#7 v=65
1172 On ch=1 n=e7 v=0
1187 On ch=1 n=g7 v=65
1197 On ch=1 n=e7 v=65
1205 On ch=1 n=c8 v=0
1212 On ch=1 n=c7 v=65
1224 On ch=1 n=g7 v=0
1224 On ch=1 n=a#7 v=0
1225 On ch=1 n=e7 v=0
1226 On ch=1 n=a#6 v=65
1234 On ch=1 n=c7 v=0
1242 On ch=1 n=g6 v=65
1249 On ch=1 n=a#6 v=0
1253 On ch=1 n=e6 v=65
1262 On ch=1 n=g6 v=0
1270 On ch=1 n=c6 v=65
1276 On ch=1 n=e6 v=0
1283 On ch=1 n=a#5 v=65
1286 On ch=1 n=c6 v=0
1296 On ch=1 n=g5 v=65
1310 On ch=1 n=a#5 v=0
1312 On ch=1 n=e5 v=65
1322 On ch=1 n=c5 v=65
1333 On ch=1 n=e5 v=0
1333 On ch=1 n=g5 v=0
1336 On ch=1 n=a#4 v=65
1344 On ch=1 n=c5 v=0
1348 On ch=1 n=g4 v=65
1354 On ch=1 n=a#4 v=0
1361 On ch=1 n=e4 v=65
1368 On ch=1 n=g4 v=0
1379 On ch=1 n=c4 v=65
1383 On ch=1 n=e4 v=0
1394 On ch=1 n=c4 v=0
1395 On ch=1 n=a#3 v=65
1417 On ch=1 n=g3 v=65
1419 On ch=1 n=a#3 v=0
1439 On ch=1 n=d4 v=65
1444 On ch=1 n=g3 v=0
1459 On ch=1 n=c4 v=65
1459 On ch=1 n=e3 v=65
1459 On ch=1 n=g#3 v=65
1467 On ch=1 n=e3 v=0
1479 On ch=1 n=d4 v=0
1479 On ch=1 n=a#3 v=65
1482 On ch=1 n=g#3 v=0
1497 On ch=1 n=c4 v=0
1501 On ch=1 n=f3 v=65
1503 On ch=1 n=a#3 v=0
1503 On ch=1 n=a3 v=65
1508 On ch=1 n=f3 v=0
1522 On ch=1 n=e4 v=65
1526 On ch=1 n=a3 v=0
1541 On ch=1 n=a#3 v=65
1542 On ch=1 n=d4 v=65
1542 On ch=1 n=f#3 v=65
1550 On ch=1 n=f#3 v=0
1561 On ch=1 n=e4 v=0
1562 On ch=1 n=c4 v=65
1563 On ch=1 n=a#3 v=0
1573 On ch=1 n=d4 v=0
1581 On ch=1 n=b3 v=65
1583 On ch=1 n=c4 v=0
1583 On ch=1 n=g3 v=65
1592 On ch=1 n=g3 v=0
1598 On ch=1 n=b3 v=0
1601 On ch=1 n=f4 v=65
1621 On ch=1 n=e4 v=65
1622 On ch=1 n=g#3 v=65
1622 On ch=1 n=b3 v=65
1630 On ch=1 n=g#3 v=0
1638 On ch=1 n=f4 v=0
1639 On ch=1 n=b3 v=0
1639 On ch=1 n=d4 v=65
1653 On ch=1 n=e4 v=0
1661 On ch=1 n=d4 v=0
1662 On ch=1 n=a3 v=65
1663 On ch=1 n=c4 v=65
1682 On ch=1 n=g4 v=65
1683 On ch=1 n=c4 v=0
1701 On ch=1 n=f4 v=65
1704 On ch=1 n=c#4 v=65
1711 On ch=1 n=g4 v=0
1720 On ch=1 n=e4 v=65
1722 On ch=1 n=a3 v=0
1723 On ch=1 n=c#4 v=0
1728 On ch=1 n=f4 v=0
1738 On ch=1 n=e4 v=0
1739 On ch=1 n=d4 v=65
1741 On ch=1 n=a#3 v=65
1757 On ch=1 n=a#3 v=0
1758 On ch=1 n=a4 v=65
1763 On ch=1 n=d4 v=0
1777 On ch=1 n=g4 v=65
1778 On ch=1 n=d#4 v=65
1779 On ch=1 n=b3 v=65
1789 On ch=1 n=b3 v=0
1797 On ch=1 n=d#4 v=0
1798 On ch=1 n=a4 v=0
1798 On ch=1 n=f4 v=65
1820 On ch=1 n=c4 v=65
1821 On ch=1 n=e4 v=65
1823 On ch=1 n=g4 v=0
1825 On ch=1 n=f4 v=0
1839 On ch=1 n=a#4 v=65
1857 On ch=1 n=e4 v=0
1858 On ch=1 n=c4 v=0
1860 On ch=1 n=a4 v=65
1864 On ch=1 n=c#4 v=65
1869 On ch=1 n=a#4 v=0
1872 On ch=1 n=c#4 v=0
1883 On ch=1 n=g4 v=65
1892 On ch=1 n=a4 v=0
1904 On ch=1 n=d4 v=65
1906 On ch=1 n=f4 v=65
1907 On ch=1 n=g4 v=0
1913 On ch=1 n=d4 v=0
1924 On ch=1 n=c5 v=65
1928 On ch=1 n=f4 v=0
1944 On ch=1 n=b4 v=65
1944 On ch=1 n=f#4 v=65
1945 On ch=1 n=d#4 v=65
1952 On ch=1 n=d#4 v=0
1959 On ch=1 n=c5 v=0
1962 On ch=1 n=a4 v=65
1966 On ch=1 n=f#4 v=0
1986 On ch=1 n=a4 v=0
1989 On ch=1 n=g4 v=65
1990 On ch=1 n=e4 v=65
1993 On ch=1 n=b4 v=0
2012 On ch=1 n=d5 v=65
2018 On ch=1 n=g4 v=0
2034 On ch=1 n=c5 v=65
2039 On ch=1 n=g#4 v=65
2046 On ch=1 n=d5 v=0
2055 On ch=1 n=b4 v=65
2058 On ch=1 n=g#4 v=0
2061 On ch=1 n=c5 v=0
2076 On ch=1 n=b4 v=0
2077 On ch=1 n=e4 v=0
2077 On ch=1 n=a4 v=65
2077 On ch=1 n=f4 v=65
2088 On ch=1 n=f4 v=0
2097 On ch=1 n=e5 v=65
2099 On ch=1 n=a4 v=0
2113 On ch=1 n=e5 v=0
2116 On ch=1 n=d5 v=65
2119 On ch=1 n=f#4 v=65
2119 On ch=1 n=a#4 v=65
2119 On ch=1 n=e5 v=65
2127 On ch=1 n=f#4 v=0
2138 On ch=1 n=e5 v=0
2138 On ch=1 n=a#4 v=0
2139 On ch=1 n=c5 v=65
2145 On ch=1 n=d5 v=0
2155 On ch=1 n=c5 v=0
2159 On ch=1 n=b4 v=65
2160 On ch=1 n=g4 v=65
2169 On ch=1 n=g4 v=0
2174 On ch=1 n=b4 v=0
2178 On ch=1 n=f5 v=65
2190 On ch=1 n=f5 v=0
2199 On ch=1 n=e5 v=65
2199 On ch=1 n=g#4 v=65
2200 On ch=1 n=b4 v=65
2208 On ch=1 n=g#4 v=0
2219 On ch=1 n=b4 v=0
2219 On ch=1 n=d5 v=65
2221 On ch=1 n=e5 v=0
2226 On ch=1 n=d5 v=0
2244 On ch=1 n=c5 v=65
2245 On ch=1 n=a4 v=65
2265 On ch=1 n=g5 v=65
2268 On ch=1 n=c5 v=0
2287 On ch=1 n=f5 v=65
2287 On ch=1 n=c#5 v=65
2296 On ch=1 n=g5 v=0
2308 On ch=1 n=e5 v=65
2311 On ch=1 n=c#5 v=0
2314 On ch=1 n=a4 v=0
2315 On ch=1 n=f5 v=0
2330 On ch=1 n=e5 v=0
2330 On ch=1 n=a#4 v=65
2332 On ch=1 n=d5 v=65
2348 On ch=1 n=a#4 v=0
2350 On ch=1 n=a5 v=65
2352 On ch=1 n=d5 v=0
2370 On ch=1 n=g5 v=65
2372 On ch=1 n=d#5 v=65
2373 On ch=1 n=b4 v=65
2387 On ch=1 n=b4 v=0
2388 On ch=1 n=a5 v=0
2389 On ch=1 n=d#5 v=0
2390 On ch=1 n=f5 v=65
2398 On ch=1 n=g5 v=0
2417 On ch=1 n=f5 v=0
2418 On ch=1 n=c5 v=65
2419 On ch=1 n=e5 v=65
2443 On ch=1 n=e5 v=0
2446 On ch=1 n=c5 v=0
2446 On ch=1 n=f6 v=65
2480 On ch=1 n=e6 v=65
2482 On ch=1 n=b5 v=65
2482 On ch=1 n=e5 v=65
2482 On ch=1 n=g#4 v=65
2504 On ch=1 n=f6 v=0
2510 On ch=1 n=g#4 v=0
2512 On ch=1 n=d6 v=65
2514 On ch=1 n=e5 v=0
2514 On ch=1 n=b5 v=0
2521 On ch=1 n=e6 v=0
2540 On ch=1 n=d6 v=0
2542 On ch=1 n=c6 v=65
2543 On ch=1 n=e5 v=65
2544 On ch=1 n=a4 v=65
2566 On ch=1 n=a4 v=0
2570 On ch=1 n=e5 v=0
2571 On ch=1 n=a6 v=65
2571 On ch=1 n=b6 v=65
2574 On ch=1 n=c6 v=0
2580 On ch=1 n=b6 v=0
2601 On ch=1 n=g6 v=65
2602 On ch=1 n=d6 v=65
2604 On ch=1 n=g5 v=65
2604 On ch=1 n=b4 v=65
2632 On ch=1 n=b4 v=0
2632 On ch=1 n=f6 v=65
2633 On ch=1 n=a6 v=0
2634 On ch=1 n=g5 v=0
2635 On ch=1 n=d6 v=0
2636 On ch=1 n=g6 v=0
2659 On ch=1 n=f6 v=0
2662 On ch=1 n=g5 v=65
2662 On ch=1 n=e6 v=65
2664 On ch=1 n=c5 v=65
2686 On ch=1 n=g5 v=0
2688 On ch=1 n=c5 v=0
2688 On ch=1 n=f7 v=65
2694 On ch=1 n=e6 v=0
2716 On ch=1 n=e7 v=65
2718 On ch=1 n=e5 v=65
2718 On ch=1 n=g#4 v=65
2718 On ch=1 n=b6 v=65
2722 On ch=1 n=f7 v=0
2746 On ch=1 n=d7 v=65
2747 On ch=1 n=g#4 v=0
2749 On ch=1 n=e5 v=0
2752 On ch=1 n=b6 v=0
2773 On ch=1 n=e7 v=0
2775 On ch=1 n=d7 v=0
2776 On ch=1 n=a4 v=65
2776 On ch=1 n=e5 v=65
2777 On ch=1 n=c7 v=65
2794 On ch=1 n=a4 v=0
2798 On ch=1 n=e5 v=0
2806 On ch=1 n=a7 v=65
2808 On ch=1 n=c7 v=0
2835 On ch=1 n=g5 v=65
2835 On ch=1 n=b4 v=65
2836 On ch=1 n=d7 v=65
2836 On ch=1 n=g7 v=65
2842 On ch=1 n=a7 v=0
2866 On ch=1 n=g7 v=0
2866 On ch=1 n=b4 v=0
2866 On ch=1 n=f7 v=65
2869 On ch=1 n=g5 v=0
2870 On ch=1 n=d7 v=0
2894 On ch=1 n=f7 v=0
2894 On ch=1 n=g5 v=65
2895 On ch=1 n=e7 v=65
2896 On ch=1 n=c5 v=65
2924 On ch=1 n=a7 v=65
2926 On ch=1 n=c5 v=0
2926 On ch=1 n=e7 v=0
2931 On ch=1 n=g5 v=0
2954 On ch=1 n=g7 v=65
2954 On ch=1 n=g5 v=65
2954 On ch=1 n=b4 v=65
2956 On ch=1 n=a7 v=0
2956 On ch=1 n=d8 v=65
2981 On ch=1 n=f7 v=65
2985 On ch=1 n=d8 v=0
2985 On ch=1 n=g7 v=0
2988 On ch=1 n=f7 v=0
2988 On ch=1 n=b4 v=0
2990 On ch=1 n=g5 v=0
3011 On ch=1 n=e7 v=65
3011 On ch=1 n=e8 v=65
3011 On ch=1 n=g5 v=65
3012 On ch=1 n=c5 v=65
3040 On ch=1 n=a7 v=65
3041 On ch=1 n=e7 v=0
3044 On ch=1 n=c5 v=0
3044 On ch=1 n=g5 v=0
3044 On ch=1 n=e8 v=0
3050 On ch=1 n=a7 v=0
3065 On ch=1 n=b3 v=65
3065 On ch=1 n=b4 v=65
3066 On ch=1 n=g4 v=65
3066 On ch=1 n=g7 v=65
3068 On ch=1 n=d8 v=65
3089 On ch=1 n=b3 v=0
3091 On ch=1 n=d8 v=0
3091 On ch=1 n=g4 v=0
3092 On ch=1 n=b4 v=0
3094 On ch=1 n=f7 v=65
3095 On ch=1 n=g7 v=0
3098 On ch=1 n=f7 v=0
3123 On ch=1 n=e8 v=65
3124 On ch=1 n=e7 v=65
3124 On ch=1 n=c5 v=65
3124 On ch=1 n=c4 v=65
3124 On ch=1 n=g4 v=65
3144 On ch=1 n=g4 v=0
3144 On ch=1 n=c5 v=0
3146 On ch=1 n=c4 v=0
3151 On ch=1 n=a7 v=65
3152 On ch=1 n=e8 v=0
3153 On ch=1 n=e7 v=0
3159 On ch=1 n=a7 v=0
3177 On ch=1 n=g3 v=65
3179 On ch=1 n=g7 v=65
3179 On ch=1 n=d8 v=65
3180 On ch=1 n=b2 v=65
3180 On ch=1 n=b3 v=65
3204 On ch=1 n=b2 v=0
3204 On ch=1 n=f7 v=65
3206 On ch=1 n=b3 v=0
3206 On ch=1 n=d8 v=0
3206 On ch=1 n=g7 v=0
3208 On ch=1 n=g3 v=0
3210 On ch=1 n=f7 v=0
3236 On ch=1 n=c3 v=65
3236 On ch=1 n=e7 v=65
3236 On ch=1 n=c4 v=65
3236 On ch=1 n=e8 v=65
3236 On ch=1 n=g3 v=65
3261 On ch=1 n=c3 v=0
3262 On ch=1 n=c4 v=0
3262 On ch=1 n=a7 v=65
3263 On ch=1 n=g3 v=0
3264 On ch=1 n=e8 v=0
3265 On ch=1 n=e7 v=0
3269 On ch=1 n=a7 v=0
3290 On ch=1 n=d8 v=65
3291 On ch=1 n=b2 v=65
3291 On ch=1 n=g7 v=65
3292 On ch=1 n=b3 v=65
3293 On ch=1 n=g3 v=65
3316 On ch=1 n=b2 v=0
3318 On ch=1 n=f7 v=65
3320 On ch=1 n=g3 v=0
3320 On ch=1 n=b3 v=0
3320 On ch=1 n=g7 v=0
3320 On ch=1 n=d8 v=0
3323 On ch=1 n=f7 v=0
3350 On ch=1 n=c3 v=65
3350 On ch=1 n=e8 v=65
3351 On ch=1 n=e7 v=65
3351 On ch=1 n=c4 v=65
3351 On ch=1 n=g3 v=65
3376 On ch=1 n=c3 v=0
3378 On ch=1 n=c4 v=0
3378 On ch=1 n=a7 v=65
3379 On ch=1 n=e8 v=0
3380 On ch=1 n=e7 v=0
3381 On ch=1 n=g3 v=0
3384 On ch=1 n=a7 v=0
3411 On ch=1 n=b2 v=65
3411 On ch=1 n=g7 v=65
3412 On ch=1 n=d8 v=65
3412 On ch=1 n=b3 v=65
3412 On ch=1 n=g3 v=65
3441 On ch=1 n=f7 v=65
3443 On ch=1 n=g7 v=0
3444 On ch=1 n=b2 v=0
3446 On ch=1 n=d8 v=0
3447 On ch=1 n=b3 v=0
3448 On ch=1 n=f7 v=0
3448 On ch=1 n=g3 v=0
3486 On ch=1 n=e7 v=65
3486 On ch=1 n=g3 v=65
3486 On ch=1 n=e8 v=65
3487 On ch=1 n=c4 v=65
3487 On ch=1 n=c3 v=65
3488 On ch=1 n=d8 v=65
3492 On ch=1 n=d8 v=0
3542 On ch=1 n=e8 v=0
3547 On ch=1 n=e7 v=0
3553 On ch=1 n=c3 v=0
3555 On ch=1 n=g3 v=0
3556 On ch=1 n=c4 v=0
3607 On ch=1 n=g5 v=65
3607 On ch=1 n=e5 v=65
3608 On ch=1 n=e6 v=65
3608 On ch=1 n=c#6 v=65
3608 On ch=1 n=a#4 v=65
3610 On ch=1 n=a#3 v=65
3610 On ch=1 n=c#4 v=65
3611 On ch=1 n=g4 v=65
3616 On ch=1 n=e4 v=65
3654 On ch=1 n=g4 v=0
3655 On ch=1 n=g5 v=0
3659 On ch=1 n=e4 v=0
3659 On ch=1 n=e5 v=0
3660 On ch=1 n=a#4 v=0
3661 On ch=1 n=a#3 v=0
3662 On ch=1 n=c#4 v=0
3664 On ch=1 n=c#6 v=0
3668 On ch=1 n=e6 v=0
3736 On ch=1 n=g#3 v=65
3736 On ch=1 n=g#5 v=65
3737 On ch=1 n=c#6 v=65
3738 On ch=1 n=f6 v=65
3739 On ch=1 n=f5 v=65
3740 On ch=1 n=c#4 v=65
3740 On ch=1 n=g#4 v=65
3741 On ch=1 n=f4 v=65
3789 On ch=1 n=f5 v=0
3789 On ch=1 n=c#6 v=0
3790 On ch=1 n=g#5 v=0
3792 On ch=1 n=g#4 v=0
3792 On ch=1 n=g#3 v=0
3793 On ch=1 n=f4 v=0
3793 On ch=1 n=f6 v=0
3797 On ch=1 n=c#4 v=0
3860 On ch=1 n=g#5 v=65
3861 On ch=1 n=d#6 v=65
3861 On ch=1 n=c6 v=65
3861 On ch=1 n=f#4 v=65
3862 On ch=1 n=g#6 v=65
3863 On ch=1 n=g#3 v=65
3863 On ch=1 n=d#4 v=65
3865 On ch=1 n=c4 v=65
3904 On ch=1 n=d#4 v=0
3905 On ch=1 n=c4 v=0
3905 On ch=1 n=c6 v=0
3906 On ch=1 n=g#3 v=0
3906 On ch=1 n=g#5 v=0
3911 On ch=1 n=d#6 v=0
3912 On ch=1 n=f#4 v=0
3916 On ch=1 n=g#6 v=0
3985 On ch=1 n=c#4 v=65
3987 On ch=1 n=f4 v=65
3987 On ch=1 n=c#6 v=65
3988 On ch=1 n=f3 v=65
3989 On ch=1 n=g#3 v=65
3990 On ch=1 n=c#7 v=65
3990 On ch=1 n=g#6 v=65
3990 On ch=1 n=f6 v=65
4030 On ch=1 n=c#4 v=0
4031 On ch=1 n=c#7 v=0
4034 On ch=1 n=g#6 v=0
4034 On ch=1 n=g#3 v=0
4034 On ch=1 n=f4 v=0
4035 On ch=1 n=f3 v=0
4036 On ch=1 n=f6 v=0
4036 On ch=1 n=c#6 v=0
4109 On ch=1 n=f#7 v=65
4109 On ch=1 n=f#6 v=65
4109 On ch=1 n=e3 v=65
4110 On ch=1 n=a#3 v=65
4110 On ch=1 n=a#6 v=65
4111 On ch=1 n=c#7 v=65
4112 On ch=1 n=c#4 v=65
4112 On ch=1 n=e4 v=65
4170 On ch=1 n=e4 v=0
4172 On ch=1 n=c#4 v=0
4173 On ch=1 n=f#7 v=0
4174 On ch=1 n=c#7 v=0
4174 On ch=1 n=a#3 v=0
4174 On ch=1 n=f#6 v=0
4175 On ch=1 n=e3 v=0
4178 On ch=1 n=a#6 v=0
4236 On ch=1 n=d#7 v=65
4236 On ch=1 n=d#3 v=65
4236 On ch=1 n=b6 v=65
4237 On ch=1 n=d#4 v=65
4239 On ch=1 n=b7 v=65
4239 On ch=1 n=f#7 v=65
4241 On ch=1 n=f#3 v=65
4241 On ch=1 n=b3 v=65
4302 On ch=1 n=b7 v=0
4304 On ch=1 n=b6 v=0
4305 On ch=1 n=b3 v=0
4305 On ch=1 n=d#4 v=0
4305 On ch=1 n=d#3 v=0
4307 On ch=1 n=f#3 v=0
4307 On ch=1 n=f#7 v=0
4310 On ch=1 n=d#7 v=0
4365 On ch=1 n=g#7 v=65
4366 On ch=1 n=g#3 v=65
4366 On ch=1 n=e3 v=65
4366 On ch=1 n=b7 v=65
4366 On ch=1 n=e7 v=65
4368 On ch=1 n=e4 v=65
4368 On ch=1 n=b3 v=65
4369 On ch=1 n=e8 v=65
4451 On ch=1 n=e8 v=0
4451 On ch=1 n=b3 v=0
4451 On ch=1 n=e4 v=0
4451 On ch=1 n=g#3 v=0
4455 On ch=1 n=b7 v=0
4455 On ch=1 n=e3 v=0
4456 On ch=1 n=e7 v=0
4456 On ch=1 n=g#7 v=0
4495 On ch=1 n=c#4 v=65
4496 On ch=1 n=c#3 v=65
4497 On ch=1 n=a7 v=65
4497 On ch=1 n=e7 v=65
4497 On ch=1 n=a6 v=65
4500 On ch=1 n=a3 v=65
4500 On ch=1 n=e3 v=65
4594 On ch=1 n=a3 v=0
4595 On ch=1 n=c#3 v=0
4599 On ch=1 n=a6 v=0
4600 On ch=1 n=e3 v=0
4600 On ch=1 n=e7 v=0
4600 On ch=1 n=c#4 v=0
4604 On ch=1 n=a7 v=0
4730 On ch=1 n=f7 v=65
4730 On ch=1 n=a7 v=65
4731 On ch=1 n=a3 v=65
4731 On ch=1 n=f8 v=65
4732 On ch=1 n=d4 v=65
4733 On ch=1 n=f3 v=65
4734 On ch=1 n=d3 v=65
4734 On ch=1 n=d8 v=65
4860 On ch=1 n=a3 v=0
4864 On ch=1 n=d3 v=0
4864 On ch=1 n=f3 v=0
4864 On ch=1 n=d4 v=0
4864 On ch=1 n=f8 v=0
4866 On ch=1 n=d8 v=0
4868 On ch=1 n=a7 v=0
4868 On ch=1 n=f7 v=0
4972 On ch=1 n=f4 v=65
4972 On ch=1 n=a#4 v=65
4973 On ch=1 n=d5 v=65
4976 On ch=1 n=a#3 v=65
4993 On ch=1 n=a#3 v=0
4996 On ch=1 n=c4 v=65
5011 On ch=1 n=a#3 v=65
5012 On ch=1 n=c4 v=0
5030 On ch=1 n=a#3 v=0
5033 On ch=1 n=c4 v=65
5048 On ch=1 n=c4 v=0
5048 On ch=1 n=a#3 v=65
5066 On ch=1 n=a#3 v=0
5068 On ch=1 n=c4 v=65
5082 On ch=1 n=a#3 v=65
5084 On ch=1 n=c4 v=0
5100 On ch=1 n=a#3 v=0
5104 On ch=1 n=c4 v=65
5118 On ch=1 n=a#3 v=65
5119 On ch=1 n=c4 v=0
5138 On ch=1 n=a#3 v=0
5139 On ch=1 n=c4 v=65
5149 On ch=1 n=a#3 v=65
5150 On ch=1 n=c4 v=0
5166 On ch=1 n=a#3 v=0
5169 On ch=1 n=c4 v=65
5183 On ch=1 n=c4 v=0
5183 On ch=1 n=a#3 v=65
5199 On ch=1 n=a#3 v=0
5202 On ch=1 n=c4 v=65
5216 On ch=1 n=c4 v=0
5217 On ch=1 n=a#3 v=65
5235 On ch=1 n=a#3 v=0
5237 On ch=1 n=c4 v=65
5252 On ch=1 n=c4 v=0
5255 On ch=1 n=a#3 v=65
5271 On ch=1 n=c4 v=65
5274 On ch=1 n=a#3 v=0
5291 On ch=1 n=c4 v=0
5293 On ch=1 n=g#3 v=65
5312 On ch=1 n=g#3 v=0
5315 On ch=1 n=a#3 v=65
5329 On ch=1 n=a#3 v=0
5329 On ch=1 n=g#3 v=65
5346 On ch=1 n=g#3 v=0
5347 On ch=1 n=a#3 v=65
5349 On ch=1 n=d5 v=0
5350 On ch=1 n=a#4 v=0
5350 On ch=1 n=f4 v=0
5360 On ch=1 n=a#3 v=0
5360 On ch=1 n=g#3 v=65
5380 On ch=1 n=g#3 v=0
5380 On ch=1 n=a#3 v=65
5398 On ch=1 n=a#3 v=0
5400 On ch=1 n=b4 v=65
5401 On ch=1 n=g5 v=65
5401 On ch=1 n=g4 v=65
5401 On ch=1 n=f4 v=65
5402 On ch=1 n=d5 v=65
5402 On ch=1 n=g3 v=65
5422 On ch=1 n=a3 v=65
5425 On ch=1 n=g3 v=0
5443 On ch=1 n=g3 v=65
5444 On ch=1 n=a3 v=0
5459 On ch=1 n=g3 v=0
5462 On ch=1 n=a3 v=65
5479 On ch=1 n=a3 v=0
5480 On ch=1 n=g3 v=65
5497 On ch=1 n=g3 v=0
5500 On ch=1 n=a3 v=65
5518 On ch=1 n=a3 v=0
5518 On ch=1 n=g3 v=65
5533 On ch=1 n=g3 v=0
5537 On ch=1 n=a3 v=65
5555 On ch=1 n=a3 v=0
5556 On ch=1 n=g3 v=65
5574 On ch=1 n=g3 v=0
5576 On ch=1 n=a3 v=65
5590 On ch=1 n=a3 v=0
5590 On ch=1 n=g3 v=65
5604 On ch=1 n=g3 v=0
5608 On ch=1 n=a3 v=65
5625 On ch=1 n=f3 v=65
5626 On ch=1 n=a3 v=0
5642 On ch=1 n=f3 v=0
5647 On ch=1 n=g3 v=65
5665 On ch=1 n=g3 v=0
5666 On ch=1 n=f3 v=65
5682 On ch=1 n=f3 v=0
5686 On ch=1 n=g3 v=65
5705 On ch=1 n=g3 v=0
5706 On ch=1 n=f3 v=65
5723 On ch=1 n=f3 v=0
5726 On ch=1 n=g3 v=65
5743 On ch=1 n=g3 v=0
5743 On ch=1 n=f3 v=65
5760 On ch=1 n=f3 v=0
5765 On ch=1 n=g3 v=65
5779 On ch=1 n=f3 v=65
5780 On ch=1 n=g3 v=0
5797 On ch=1 n=f3 v=0
5801 On ch=1 n=g3 v=65
5816 On ch=1 n=g3 v=0
5816 On ch=1 n=f3 v=65
5832 On ch=1 n=f3 v=0
5834 On ch=1 n=g3 v=65
5853 On ch=1 n=d3 v=65
5855 On ch=1 n=g3 v=0
5872 On ch=1 n=d3 v=0
5876 On ch=1 n=e3 v=65
5892 On ch=1 n=e3 v=0
5892 On ch=1 n=d3 v=65
5910 On ch=1 n=d3 v=0
5912 On ch=1 n=e3 v=65
5933 On ch=1 n=e3 v=0
5933 On ch=1 n=d3 v=65
5951 On ch=1 n=d3 v=0
5951 On ch=1 n=e3 v=65
5970 On ch=1 n=d3 v=65
5971 On ch=1 n=e3 v=0
5990 On ch=1 n=d3 v=0
5991 On ch=1 n=e3 v=65
6007 On ch=1 n=e3 v=0
6008 On ch=1 n=d3 v=65
6029 On ch=1 n=d3 v=0
6031 On ch=1 n=e3 v=65
6046 On ch=1 n=e3 v=0
6046 On ch=1 n=d3 v=65
6060 On ch=1 n=d3 v=0
6065 On ch=1 n=e3 v=65
6085 On ch=1 n=b2 v=65
6089 On ch=1 n=e3 v=0
6106 On ch=1 n=b2 v=0
6111 On ch=1 n=c3 v=65
6127 On ch=1 n=c3 v=0
6127 On ch=1 n=b2 v=65
6147 On ch=1 n=b2 v=0
6149 On ch=1 n=c3 v=65
6170 On ch=1 n=c3 v=0
6171 On ch=1 n=b2 v=65
6191 On ch=1 n=b2 v=0
6197 On ch=1 n=c3 v=65
6198 On ch=1 n=b2 v=65
6209 On ch=1 n=b2 v=0
6215 On ch=1 n=c3 v=0
6215 On ch=1 n=b2 v=65
6233 On ch=1 n=b2 v=0
6236 On ch=1 n=c3 v=65
6255 On ch=1 n=c3 v=0
6256 On ch=1 n=b2 v=65
6274 On ch=1 n=b2 v=0
6275 On ch=1 n=c3 v=65
6293 On ch=1 n=c3 v=0
6294 On ch=1 n=b2 v=65
6308 On ch=1 n=b2 v=0
6311 On ch=1 n=c3 v=65
6330 On ch=1 n=g2 v=65
6334 On ch=1 n=c3 v=0
6344 On ch=1 n=g2 v=0
6345 On ch=1 n=a2 v=65
6362 On ch=1 n=a2 v=0
6362 On ch=1 n=g2 v=65
6381 On ch=1 n=g2 v=0
6381 On ch=1 n=a2 v=65
6399 On ch=1 n=a2 v=0
6399 On ch=1 n=g2 v=65
6418 On ch=1 n=g2 v=0
6419 On ch=1 n=a2 v=65
6439 On ch=1 n=a2 v=0
6474 On ch=1 n=g2 v=65
6493 On ch=1 n=g2 v=0
6493 On ch=1 n=a2 v=65
6511 On ch=1 n=a2 v=0
6511 On ch=1 n=g2 v=65
6531 On ch=1 n=a2 v=65
6532 On ch=1 n=g2 v=0
6550 On ch=1 n=a2 v=0
6550 On ch=1 n=g2 v=65
6569 On ch=1 n=g2 v=0
6569 On ch=1 n=a2 v=65
6586 On ch=1 n=a2 v=0
6587 On ch=1 n=g2 v=65
6607 On ch=1 n=g2 v=0
6607 On ch=1 n=a2 v=65
6623 On ch=1 n=g2 v=65
6625 On ch=1 n=a2 v=0
6644 On ch=1 n=a2 v=65
6645 On ch=1 n=g2 v=0
6662 On ch=1 n=g2 v=65
6663 On ch=1 n=a2 v=0
6683 On ch=1 n=a2 v=65
6684 On ch=1 n=g2 v=0
6701 On ch=1 n=a2 v=0
6702 On ch=1 n=g2 v=65
6722 On ch=1 n=g2 v=0
6722 On ch=1 n=a2 v=65
6744 On ch=1 n=a2 v=0
6745 On ch=1 n=g2 v=65
6769 On ch=1 n=g2 v=0
6769 On ch=1 n=a2 v=65
6796 On ch=1 n=a2 v=0
6796 On ch=1 n=g2 v=65
6825 On ch=1 n=a2 v=65
6826 On ch=1 n=g2 v=0
6850 On ch=1 n=a2 v=0
6851 On ch=1 n=g2 v=65
6879 On ch=1 n=g2 v=0
6879 On ch=1 n=a2 v=65
6909 On ch=1 n=g2 v=65
6910 On ch=1 n=a2 v=0
6937 On ch=1 n=a2 v=65
6938 On ch=1 n=g2 v=0
6968 On ch=1 n=a2 v=0
6968 On ch=1 n=g2 v=65
7001 On ch=1 n=a2 v=65
7003 On ch=1 n=g2 v=0
7032 On ch=1 n=a2 v=0
7034 On ch=1 n=g2 v=65
7067 On ch=1 n=g2 v=0
7067 On ch=1 n=a2 v=65
7097 On ch=1 n=a2 v=0
7098 On ch=1 n=g2 v=65
7127 On ch=1 n=g5 v=0
7134 On ch=1 n=f4 v=0
7135 On ch=1 n=a2 v=65
7137 On ch=1 n=g2 v=0
7138 On ch=1 n=d5 v=0
7141 On ch=1 n=g4 v=0
7142 On ch=1 n=b4 v=0
7175 On ch=1 n=a2 v=0
7176 On ch=1 n=g2 v=65
7217 On ch=1 n=a2 v=65
7219 On ch=1 n=g2 v=0
7263 On ch=1 n=a2 v=0
7264 On ch=1 n=g2 v=65
7311 On ch=1 n=g2 v=0
7311 On ch=1 n=a2 v=65
7360 On ch=1 n=a2 v=0
7361 On ch=1 n=f#2 v=65
7393 On ch=1 n=f#2 v=0
7393 On ch=1 n=g2 v=65
7422 On ch=1 n=g#2 v=65
7423 On ch=1 n=g2 v=0
7454 On ch=1 n=g#2 v=0
7455 On ch=1 n=a2 v=65
7481 On ch=1 n=a#2 v=65
7485 On ch=1 n=a2 v=0
7511 On ch=1 n=b2 v=65
7513 On ch=1 n=a#2 v=0
7539 On ch=1 n=c3 v=65
7545 On ch=1 n=b2 v=0
7578 On ch=1 n=e3 v=65
7603 On ch=1 n=g3 v=65
7627 On ch=1 n=c4 v=65
7644 On ch=1 n=g3 v=0
7644 On ch=1 n=c3 v=0
7649 On ch=1 n=e4 v=65
7652 On ch=1 n=e3 v=0
7655 On ch=1 n=c4 v=0
7675 On ch=1 n=g4 v=65
7699 On ch=1 n=e4 v=0
7700 On ch=1 n=c5 v=65
7704 On ch=1 n=g4 v=0
7724 On ch=1 n=e5 v=65
7726 On ch=1 n=c5 v=0
7750 On ch=1 n=e5 v=0
7750 On ch=1 n=g#5 v=65
7750 On ch=1 n=g#4 v=65
7775 On ch=1 n=b5 v=65
7802 On ch=1 n=d6 v=65
7808 On ch=1 n=b5 v=0
7817 On ch=1 n=g#5 v=0
7819 On ch=1 n=g#4 v=0
7826 On ch=1 n=d6 v=0
7828 On ch=1 n=g#6 v=65
7854 On ch=1 n=g#6 v=0
7855 On ch=1 n=g6 v=65
7855 On ch=1 n=g5 v=65
7856 On ch=1 n=d5 v=65
7856 On ch=1 n=b4 v=65
7857 On ch=1 n=g4 v=65
7878 On ch=1 n=b6 v=65
7882 On ch=1 n=g6 v=0
7904 On ch=1 n=d7 v=65
7913 On ch=1 n=d5 v=0
7914 On ch=1 n=g5 v=0
7915 On ch=1 n=b4 v=0
7916 On ch=1 n=b6 v=0
7918 On ch=1 n=g4 v=0
7932 On ch=1 n=g7 v=65
7937 On ch=1 n=d7 v=0
7959 On ch=1 n=c3 v=65
7984 On ch=1 n=g7 v=0
7986 On ch=1 n=e3 v=65
8009 On ch=1 n=g3 v=65
8035 On ch=1 n=c3 v=0
8035 On ch=1 n=c4 v=65
8041 On ch=1 n=g3 v=0
8045 On ch=1 n=e3 v=0
8061 On ch=1 n=e4 v=65
8067 On ch=1 n=c4 v=0
8086 On ch=1 n=g4 v=65
8089 On ch=1 n=e4 v=0
8109 On ch=1 n=c5 v=65
8113 On ch=1 n=g4 v=0
8133 On ch=1 n=e5 v=65
8137 On ch=1 n=c5 v=0
8156 On ch=1 n=g#5 v=65
8158 On ch=1 n=e5 v=0
8158 On ch=1 n=g#4 v=65
8182 On ch=1 n=b5 v=65
8207 On ch=1 n=d6 v=65
8211 On ch=1 n=b5 v=0
8227 On ch=1 n=g#4 v=0
8228 On ch=1 n=d6 v=0
8228 On ch=1 n=g#5 v=0
8229 On ch=1 n=g#6 v=65
8253 On ch=1 n=g#6 v=0
8254 On ch=1 n=g5 v=65
8255 On ch=1 n=b4 v=65
8255 On ch=1 n=g4 v=65
8255 On ch=1 n=d5 v=65
8255 On ch=1 n=g6 v=65
8279 On ch=1 n=b6 v=65
8283 On ch=1 n=g6 v=0
8303 On ch=1 n=d7 v=65
8314 On ch=1 n=g5 v=0
8315 On ch=1 n=d5 v=0
8316 On ch=1 n=b4 v=0
8318 On ch=1 n=g4 v=0
8328 On ch=1 n=b6 v=0
8328 On ch=1 n=g7 v=65
8332 On ch=1 n=d7 v=0
8354 On ch=1 n=c3 v=65
8369 On ch=1 n=g7 v=0
8377 On ch=1 n=e3 v=65
8401 On ch=1 n=g3 v=65
8405 On ch=1 n=e3 v=0
8407 On ch=1 n=c3 v=0
8425 On ch=1 n=c4 v=65
8432 On ch=1 n=g3 v=0
8448 On ch=1 n=e4 v=65
8460 On ch=1 n=c4 v=0
8470 On ch=1 n=g4 v=65
8475 On ch=1 n=e4 v=0
8493 On ch=1 n=c5 v=65
8495 On ch=1 n=g4 v=0
8515 On ch=1 n=c5 v=0
8515 On ch=1 n=e5 v=65
8538 On ch=1 n=e5 v=0
8542 On ch=1 n=a4 v=65
8542 On ch=1 n=e5 v=65
8543 On ch=1 n=a5 v=65
8543 On ch=1 n=c5 v=65
8564 On ch=1 n=c6 v=65
8588 On ch=1 n=e6 v=65
8592 On ch=1 n=c6 v=0
8610 On ch=1 n=a6 v=65
8612 On ch=1 n=e6 v=0
8634 On ch=1 n=a6 v=0
8636 On ch=1 n=c7 v=65
8659 On ch=1 n=e7 v=65
8663 On ch=1 n=c7 v=0
8680 On ch=1 n=e7 v=0
8680 On ch=1 n=a7 v=65
8704 On ch=1 n=a5 v=0
8705 On ch=1 n=a4 v=0
8706 On ch=1 n=a7 v=0
8706 On ch=1 n=e8 v=65
8711 On ch=1 n=c5 v=0
8711 On ch=1 n=e5 v=0
8726 On ch=1 n=g4 v=65
8726 On ch=1 n=c8 v=65
8726 On ch=1 n=c5 v=65
8726 On ch=1 n=g5 v=65
8728 On ch=1 n=e5 v=65
8734 On ch=1 n=e8 v=0
8751 On ch=1 n=g7 v=65
8756 On ch=1 n=c8 v=0
8773 On ch=1 n=e7 v=65
8784 On ch=1 n=g7 v=0
8796 On ch=1 n=e7 v=0
8796 On ch=1 n=c7 v=65
8802 On ch=1 n=g4 v=0
8805 On ch=1 n=e5 v=0
8806 On ch=1 n=g5 v=0
8812 On ch=1 n=c5 v=0
8818 On ch=1 n=g6 v=65
8819 On ch=1 n=c7 v=0
8842 On ch=1 n=e6 v=65
8850 On ch=1 n=g6 v=0
8864 On ch=1 n=c6 v=65
8867 On ch=1 n=e6 v=0
8889 On ch=1 n=g5 v=65
8892 On ch=1 n=c6 v=0
8910 On ch=1 n=e4 v=65
8911 On ch=1 n=e5 v=65
8911 On ch=1 n=c5 v=65
8912 On ch=1 n=a4 v=65
8930 On ch=1 n=g5 v=0
8937 On ch=1 n=a5 v=65
8960 On ch=1 n=c6 v=65
8962 On ch=1 n=a5 v=0
8981 On ch=1 n=e6 v=65
8983 On ch=1 n=c6 v=0
9004 On ch=1 n=e6 v=0
9005 On ch=1 n=a6 v=65
9028 On ch=1 n=c7 v=65
9030 On ch=1 n=a6 v=0
9050 On ch=1 n=e7 v=65
9051 On ch=1 n=c7 v=0
9070 On ch=1 n=e7 v=0
9071 On ch=1 n=a4 v=0
9071 On ch=1 n=c5 v=0
9071 On ch=1 n=e5 v=0
9072 On ch=1 n=c8 v=65
9073 On ch=1 n=e4 v=0
9095 On ch=1 n=c5 v=65
9096 On ch=1 n=g7 v=65
9096 On ch=1 n=e4 v=65
9096 On ch=1 n=c4 v=65
9099 On ch=1 n=g4 v=65
9101 On ch=1 n=c8 v=0
9121 On ch=1 n=e7 v=65
9128 On ch=1 n=g7 v=0
9144 On ch=1 n=c7 v=65
9145 On ch=1 n=e7 v=0
9166 On ch=1 n=g6 v=65
9168 On ch=1 n=c7 v=0
9190 On ch=1 n=e6 v=65
9210 On ch=1 n=g6 v=0
9212 On ch=1 n=e6 v=0
9213 On ch=1 n=c6 v=65
9236 On ch=1 n=g5 v=65
9238 On ch=1 n=c6 v=0
9262 On ch=1 n=e5 v=65
9268 On ch=1 n=g5 v=0
9271 On ch=1 n=c4 v=0
9271 On ch=1 n=c5 v=0
9274 On ch=1 n=e4 v=0
9277 On ch=1 n=g4 v=0
9285 On ch=1 n=e5 v=0
9286 On ch=1 n=a4 v=65
9286 On ch=1 n=e4 v=65
9286 On ch=1 n=c4 v=65
9287 On ch=1 n=a3 v=65
9312 On ch=1 n=c5 v=65
9334 On ch=1 n=e5 v=65
9337 On ch=1 n=c5 v=0
9357 On ch=1 n=a5 v=65
9359 On ch=1 n=e5 v=0
9378 On ch=1 n=a5 v=0
9379 On ch=1 n=c6 v=65
9400 On ch=1 n=e6 v=65
9404 On ch=1 n=c6 v=0
9423 On ch=1 n=a6 v=65
9424 On ch=1 n=e6 v=0
9440 On ch=1 n=a3 v=0
9442 On ch=1 n=a4 v=0
9446 On ch=1 n=c4 v=0
9447 On ch=1 n=e7 v=65
9448 On ch=1 n=a6 v=0
9452 On ch=1 n=e4 v=0
9470 On ch=1 n=g4 v=65
9470 On ch=1 n=g3 v=65
9470 On ch=1 n=c4 v=65
9471 On ch=1 n=c7 v=65
9471 On ch=1 n=e4 v=65
9473 On ch=1 n=e7 v=0
9493 On ch=1 n=g6 v=65
9512 On ch=1 n=c7 v=0
9517 On ch=1 n=e6 v=65
9519 On ch=1 n=g6 v=0
9539 On ch=1 n=e6 v=0
9539 On ch=1 n=c6 v=65
9560 On ch=1 n=g5 v=65
9567 On ch=1 n=c6 v=0
9585 On ch=1 n=g5 v=0
9586 On ch=1 n=e5 v=65
9609 On ch=1 n=c5 v=65
9611 On ch=1 n=e5 v=0
9621 On ch=1 n=e4 v=0
9622 On ch=1 n=g4 v=0
9625 On ch=1 n=c4 v=0
9627 On ch=1 n=g3 v=0
9630 On ch=1 n=g4 v=65
9637 On ch=1 n=c5 v=0
9652 On ch=1 n=a3 v=65
9652 On ch=1 n=e4 v=65
9653 On ch=1 n=c4 v=65
9653 On ch=1 n=e3 v=65
9658 On ch=1 n=g4 v=0
9675 On ch=1 n=a4 v=65
9698 On ch=1 n=c5 v=65
9701 On ch=1 n=a4 v=0
9719 On ch=1 n=e5 v=65
9721 On ch=1 n=c5 v=0
9741 On ch=1 n=e5 v=0
9741 On ch=1 n=a5 v=65
9763 On ch=1 n=c6 v=65
9766 On ch=1 n=a5 v=0
9785 On ch=1 n=e6 v=65
9786 On ch=1 n=c6 v=0
9804 On ch=1 n=e6 v=0
9807 On ch=1 n=c7 v=65
9808 On ch=1 n=c4 v=0
9809 On ch=1 n=e4 v=0
9809 On ch=1 n=a3 v=0
9810 On ch=1 n=e3 v=0
9830 On ch=1 n=g6 v=65
9831 On ch=1 n=c4 v=65
9832 On ch=1 n=c3 v=65
9833 On ch=1 n=g3 v=65
9833 On ch=1 n=e3 v=65
9836 On ch=1 n=c7 v=0
9854 On ch=1 n=e6 v=65
9863 On ch=1 n=g6 v=0
9873 On ch=1 n=e6 v=0
9873 On ch=1 n=c6 v=65
9894 On ch=1 n=g5 v=65
9896 On ch=1 n=c6 v=0
9917 On ch=1 n=e5 v=65
9922 On ch=1 n=g5 v=0
9938 On ch=1 n=e5 v=0
9940 On ch=1 n=c5 v=65
9961 On ch=1 n=g4 v=65
9962 On ch=1 n=c5 v=0
9979 On ch=1 n=g3 v=0
9979 On ch=1 n=c4 v=0
9982 On ch=1 n=e3 v=0
9982 On ch=1 n=c3 v=0
9986 On ch=1 n=e4 v=65
10008 On ch=1 n=c3 v=65
10008 On ch=1 n=a2 v=65
10009 On ch=1 n=a3 v=65
10009 On ch=1 n=e3 v=65
10032 On ch=1 n=c4 v=65
10035 On ch=1 n=g4 v=0
10040 On ch=1 n=e4 v=0
10050 On ch=1 n=e4 v=65
10052 On ch=1 n=c4 v=0
10071 On ch=1 n=e4 v=0
10071 On ch=1 n=a4 v=65
10092 On ch=1 n=c5 v=65
10094 On ch=1 n=a4 v=0
10115 On ch=1 n=e5 v=65
10117 On ch=1 n=c5 v=0
10136 On ch=1 n=e5 v=0
10136 On ch=1 n=a5 v=65
10157 On ch=1 n=a3 v=0
10157 On ch=1 n=a2 v=0
10158 On ch=1 n=e6 v=65
10159 On ch=1 n=a5 v=0
10159 On ch=1 n=c3 v=0
10162 On ch=1 n=e3 v=0
10180 On ch=1 n=c3 v=65
10180 On ch=1 n=c6 v=65
10180 On ch=1 n=g3 v=65
10181 On ch=1 n=g2 v=65
10182 On ch=1 n=e3 v=65
10183 On ch=1 n=e6 v=0
10207 On ch=1 n=g5 v=65
10223 On ch=1 n=c6 v=0
10231 On ch=1 n=e5 v=65
10255 On ch=1 n=g5 v=0
10258 On ch=1 n=c5 v=65
10259 On ch=1 n=e5 v=0
10285 On ch=1 n=g4 v=65
10286 On ch=1 n=c5 v=0
10318 On ch=1 n=e4 v=65
10350 On ch=1 n=c4 v=65
10351 On ch=1 n=e4 v=0
10351 On ch=1 n=g4 v=0
10373 On ch=1 n=g3 v=0
10379 On ch=1 n=g2 v=0
10380 On ch=1 n=e3 v=0
10383 On ch=1 n=c3 v=0
10391 On ch=1 n=g3 v=65
10396 On ch=1 n=c4 v=0
10419 On ch=1 n=a2 v=65
10419 On ch=1 n=f2 v=65
10420 On ch=1 n=f3 v=65
10422 On ch=1 n=c3 v=65
10432 On ch=1 n=g3 v=0
10486 On ch=1 n=a3 v=65
10536 On ch=1 n=c4 v=65
10544 On ch=1 n=a3 v=0
10583 On ch=1 n=f4 v=65
10588 On ch=1 n=c4 v=0
10624 On ch=1 n=f4 v=0
10633 On ch=1 n=a4 v=65
10676 On ch=1 n=c5 v=65
10682 On ch=1 n=a4 v=0
10723 On ch=1 n=f5 v=65
10725 On ch=1 n=c5 v=0
10768 On ch=1 n=f5 v=0
10774 On ch=1 n=a5 v=65
10826 On ch=1 n=c6 v=65
10834 On ch=1 n=a5 v=0
10878 On ch=1 n=f6 v=65
10883 On ch=1 n=c6 v=0
10937 On ch=1 n=f6 v=0
10942 On ch=1 n=a6 v=65
11003 On ch=1 n=c7 v=65
11015 On ch=1 n=a6 v=0
11070 On ch=1 n=f7 v=65
11074 On ch=1 n=c7 v=0
11112 On ch=1 n=f7 v=0
11114 On ch=1 n=f2 v=0
11116 On ch=1 n=a2 v=0
11117 On ch=1 n=f3 v=0
11119 On ch=1 n=c3 v=0
11159 On ch=1 n=c7 v=65
11159 On ch=1 n=f7 v=65
11161 On ch=1 n=f3 v=65
11161 On ch=1 n=a2 v=65
11162 On ch=1 n=c3 v=65
11162 On ch=1 n=a7 v=65
11164 On ch=1 n=f2 v=65
11238 On ch=1 n=c7 v=0
11246 On ch=1 n=c8 v=65
11250 On ch=1 n=a7 v=0
11250 On ch=1 n=f7 v=0
11310 On ch=1 n=f7 v=65
11314 On ch=1 n=f2 v=0
11316 On ch=1 n=a2 v=0
11319 On ch=1 n=c3 v=0
11325 On ch=1 n=f3 v=0
11327 On ch=1 n=c8 v=0
11378 On ch=1 n=c7 v=65
11411 On ch=1 n=f7 v=0
11421 On ch=1 n=c7 v=0
11448 On ch=1 n=f5 v=65
11448 On ch=1 n=c7 v=65
11449 On ch=1 n=a7 v=65
11449 On ch=1 n=f7 v=65
11451 On ch=1 n=a5 v=65
11451 On ch=1 n=a4 v=65
11452 On ch=1 n=c5 v=65
11513 On ch=1 n=c7 v=0
11525 On ch=1 n=c8 v=65
11527 On ch=1 n=f7 v=0
11531 On ch=1 n=a7 v=0
11590 On ch=1 n=f7 v=65
11598 On ch=1 n=c8 v=0
11600 On ch=1 n=a5 v=0
11602 On ch=1 n=c5 v=0
11603 On ch=1 n=f5 v=0
11611 On ch=1 n=a4 v=0
11664 On ch=1 n=c7 v=65
11687 On ch=1 n=f7 v=0
11704 On ch=1 n=c7 v=0
11734 On ch=1 n=f2 v=65
11734 On ch=1 n=a7 v=65
11735 On ch=1 n=c7 v=65
11736 On ch=1 n=f3 v=65
11736 On ch=1 n=f7 v=65
11737 On ch=1 n=a2 v=65
11738 On ch=1 n=c3 v=65
11805 On ch=1 n=c7 v=0
11821 On ch=1 n=f7 v=0
11822 On ch=1 n=d8 v=65
11823 On ch=1 n=a7 v=0
11904 On ch=1 n=f2 v=0
11906 On ch=1 n=c3 v=0
11907 On ch=1 n=f7 v=65
11909 On ch=1 n=a2 v=0
11910 On ch=1 n=f3 v=0
11914 On ch=1 n=d8 v=0
11998 On ch=1 n=c7 v=65
12008 On ch=1 n=f7 v=0
12098 On ch=1 n=c3 v=65
12200 On ch=1 n=c3 v=0
12200 On ch=1 n=e3 v=65
12307 On ch=1 n=c7 v=0
12308 On ch=1 n=e3 v=0
12312 On ch=1 n=g3 v=65
12432 On ch=1 n=c4 v=65
12438 On ch=1 n=g3 v=0
12542 On ch=1 n=c4 v=0
12552 On ch=1 n=e7 v=65
12552 On ch=1 n=c8 v=65
12553 On ch=1 n=c6 v=65
12554 On ch=1 n=g7 v=65
12556 On ch=1 n=g5 v=65
12557 On ch=1 n=c5 v=65
12557 On ch=1 n=e5 v=65
12933 On ch=1 n=c6 v=0
12942 On ch=1 n=g5 v=0
12945 On ch=1 n=e5 v=0
12946 On ch=1 n=c5 v=0
12952 On ch=1 n=g7 v=0
12952 On ch=1 n=c8 v=0
12953 On ch=1 n=e7 v=0
12953 Meta TrkEnd
TrkEnd
MTrk
0 Meta TrkName "This MIDI file was"
0 Meta TrkEnd
TrkEnd
MTrk
0 Meta TrkName "selflessly and"
0 Meta TrkEnd
TrkEnd
MTrk
0 Meta TrkName "unprofitably created"
0 Meta TrkEnd
TrkEnd
MTrk
0 Meta TrkName "by John Mamoun in"
0 Meta TrkEnd
TrkEnd
MTrk
0 Meta TrkName "1997, and improved on"
0 Meta TrkEnd
TrkEnd
MTrk
0 Meta TrkName "July 13, 1998.  May it"
0 Meta TrkEnd
TrkEnd
MTrk
0 Meta TrkName "reach the far corners"
0 Meta TrkEnd
TrkEnd
MTrk
0 Meta TrkName "of the land, to where"
0 Meta TrkEnd
TrkEnd
MTrk
0 Meta TrkName "no one has heard of"
0 Meta TrkEnd
TrkEnd
MTrk
0 Meta TrkName "MIDI keyboards or"
0 Meta TrkEnd
TrkEnd
MTrk
0 Meta TrkName "Franz Liszt."
0 Meta TrkEnd
TrkEnd
