MFile 1 7 480
MTrk
0 TimeSig 4/4 24 8
0 KeySig -3 major
0 Tempo 300000
1900 Tempo 526316
2144 Tempo 427046
2400 Tempo 435193
2864 Tempo 418498
5212 Tempo 434783
5612 Tempo 670391
5772 Tempo 515021
6000 Tempo 428571
6252 Tempo 447761
6264 Tempo 446097
6800 Tempo 427046
7200 Tempo 419580
9132 Tempo 434783
9480 Tempo 677966
9600 Tempo 530973
9612 Tempo 533333
9904 Tempo 409556
15640 Tempo 419580
16104 Tempo 431655
16572 Tempo 468750
17052 Tempo 515021
17280 Tempo 439560
17760 Tempo 422535
18240 Tempo 408163
20160 Tempo 427046
20412 Tempo 415225
20904 Tempo 436364
21120 Tempo 444444
21384 Tempo 433213
21600 Tempo 425532
23784 Tempo 439560
24000 Tempo 459770
24320 Tempo 451128
24492 Tempo 439560
24732 Tempo 449438
24972 Tempo 465116
25224 Tempo 456274
25452 Tempo 442804
25680 Tempo 430108
26212 Tempo 421053
26412 Tempo 437956
26864 Tempo 410959
28800 Tempo 427046
29288 Tempo 418118
29760 Tempo 439560
30248 Tempo 410959
30720 Tempo 424028
31220 Tempo 410959
31668 Tempo 444444
31960 Tempo 422535
32640 Tempo 478088
32864 Tempo 451128
33104 Tempo 422535
33784 Tempo 410959
39640 Tempo 425532
39652 Tempo 427046
39840 Tempo 439560
40052 Tempo 421053
42620 Tempo 446097
42828 Tempo 487805
43052 Tempo 433213
43492 Tempo 442804
43680 Tempo 424028
48000 Tempo 437956
50400 Tempo 419580
50904 Tempo 430108
51144 Tempo 442804
51852 Tempo 452830
52320 Tempo 434783
52800 Tempo 418118
53280 Tempo 433213
53560 Tempo 446097
53772 Tempo 568720
53944 Tempo 422535
55692 Tempo 545455
55920 Tempo 416667
57120 Tempo 433338
57400 Tempo 449573
57600 Tempo 635189
57784 Tempo 419698
58920 Tempo 433714
59280 Tempo 446628
59520 Tempo 580608
59760 Tempo 424508
60812 Tempo 443328
61212 Tempo 458575
61452 Tempo 675371
61600 Tempo 424508
62680 Tempo 438468
63040 Tempo 453378
63372 Tempo 675371
63560 Tempo 446628
64052 Tempo 427530
64680 Tempo 438468
65040 Tempo 453378
65280 Tempo 660502
65412 Tempo 414250
65664 Tempo 431655
65932 Tempo 424508
66520 Tempo 436364
66892 Tempo 452830
67212 Tempo 633714
67360 Tempo 414708
67560 Tempo 438982
67572 Tempo 440593
68024 Tempo 429553
68320 Tempo 416667
70104 Tempo 433213
70572 Tempo 446097
71052 Tempo 524017
71304 Tempo 454545
71520 Tempo 442804
71532 Tempo 441176
72000 Tempo 428571
72492 Tempo 434783
72960 Tempo 446097
73944 Tempo 436364
74400 Tempo 428571
74880 Tempo 463320
74892 Tempo 465116
75144 Tempo 447761
75372 Tempo 433213
75824 Tempo 422535
76812 Tempo 433213
77760 Tempo 442804
78240 Tempo 454545
78252 Tempo 456274
78732 Tempo 535714
78972 Tempo 428571
81892 Tempo 439560
82428 Tempo 606061
82572 Tempo 545455
82800 Tempo 425532
85732 Tempo 434783
86172 Tempo 454545
86424 Tempo 547945
86664 Tempo 410959
92440 Tempo 422535
92892 Tempo 434783
93372 Tempo 446097
93852 Tempo 476190
94080 Tempo 466926
94320 Tempo 444444
94560 Tempo 430108
94824 Tempo 418118
97212 Tempo 449438
97400 Tempo 431655
97680 Tempo 442804
97800 Tempo 478088
97960 Tempo 456274
98212 Tempo 444444
98464 Tempo 436364
100560 Tempo 456274
100800 Tempo 456274
100960 Tempo 452830
101144 Tempo 465116
101292 Tempo 444444
101464 Tempo 427046
101624 Tempo 433213
101772 Tempo 483871
102104 Tempo 474308
102412 Tempo 458015
102664 Tempo 441176
102960 Tempo 424028
106080 Tempo 437956
106572 Tempo 451128
106584 Tempo 449438
106720 Tempo 480000
106880 Tempo 459770
107172 Tempo 446097
107372 Tempo 468750
107532 Tempo 506329
107704 Tempo 466926
107892 Tempo 441176
108200 Tempo 422535
108504 Tempo 433213
108652 Tempo 502092
108812 Tempo 517241
108984 Tempo 574163
109200 Tempo 538117
109332 Tempo 606061
109492 Tempo 515021
109624 Tempo 436364
109932 Tempo 428571
110400 Tempo 422535
115960 Tempo 436364
116224 Tempo 446097
116424 Tempo 436364
116600 Tempo 451128
116784 Tempo 461538
116984 Tempo 474308
117120 Tempo 459770
117384 Tempo 449438
117400 Tempo 447761
117612 Tempo 437956
117864 Tempo 422535
119800 Tempo 437956
120024 Tempo 456274
120184 Tempo 446097
120320 Tempo 480000
120584 Tempo 500000
120812 Tempo 628272
120960 Tempo 480000
121292 Tempo 461609
121680 Tempo 439625
121984 Tempo 425592
123840 Tempo 438020
124332 Tempo 451196
124800 Tempo 495950
125040 Tempo 482005
125292 Tempo 468823
125544 Tempo 452899
125744 Tempo 442870
126000 Tempo 452899
126240 Tempo 461609
126252 Tempo 463392
126520 Tempo 474383
126720 Tempo 451196
126960 Tempo 441241
127200 Tempo 458085
127692 Tempo 439625
128000 Tempo 447828
128332 Tempo 459841
128652 Tempo 480077
129012 Tempo 463392
129332 Tempo 454614
129600 Tempo 438020
129840 Tempo 451196
130092 Tempo 466999
130372 Tempo 515110
130560 Tempo 441241
130824 Tempo 451196
131252 Tempo 459841
131264 Tempo 461609
131652 Tempo 442870
132104 Tempo 451196
132304 Tempo 436427
132480 Tempo 468750
132744 Tempo 454545
133104 Tempo 441176
133424 Tempo 422535
133892 Tempo 430108
134200 Tempo 441176
134584 Tempo 452830
135064 Tempo 439560
135504 Tempo 427046
135824 Tempo 422535
136132 Tempo 442804
136812 Tempo 459770
137304 Tempo 465116
137784 Tempo 472441
138252 Tempo 480000
139920 Tempo 472441
140056 Tempo 468750
140184 Tempo 465116
140312 Tempo 461538
140440 Tempo 458015
140568 Tempo 454545
140696 Tempo 451128
140824 Tempo 447761
140952 Tempo 444444
141080 Tempo 441176
141216 Tempo 437956
141344 Tempo 434783
141472 Tempo 431655
141600 Tempo 428571
141728 Tempo 425532
141856 Tempo 422535
141984 Tempo 419580
142112 Tempo 416667
142240 Tempo 413793
142264 Tempo 416667
144000 Tempo 425532
144492 Tempo 416667
144812 Tempo 425532
145080 Tempo 437956
145440 Tempo 446097
145972 Tempo 454545
146560 Tempo 466926
147092 Tempo 478088
147544 Tempo 515021
147852 Tempo 574163
148000 Tempo 459770
148092 Tempo 480000
148320 Tempo 470588
148640 Tempo 459770
149000 Tempo 470588
149012 Tempo 472441
149440 Tempo 485830
149744 Tempo 474308
150252 Tempo 459770
150720 Tempo 451128
151704 Tempo 560748
151892 Tempo 451128
153024 Tempo 459770
153360 Tempo 470588
153624 Tempo 480000
154292 Tempo 506329
154840 Tempo 524017
155344 Tempo 550459
155532 Tempo 603015
155784 Tempo 413793
155784 Meta TrkEnd
TrkEnd
MTrk
0 SeqSpec 43 00 01 00
0 SysEx f0 41 10 42 12 40 00 7f 00 41 f7
0 SysEx f0 41 10 42 12 40 01 30 03 0c f7
0 Meta TrkEnd
TrkEnd
MTrk
0 SeqSpec 43 00 01 00
0 Meta TrkName "Etude No. 12"
0 Meta 0x21 00
476 Par ch=1 c=93 v=20
476 Par ch=1 c=0 v=0
476 Par ch=1 c=91 v=64
488 Par ch=1 c=0 v=0
488 PrCh ch=1 p=0
492 Par ch=1 c=7 v=127
1920 On ch=1 n=f6 v=86
1920 On ch=1 n=b6 v=100
1920 On ch=1 n=g6 v=95
1920 On ch=1 n=d6 v=90
1920 On ch=1 n=b5 v=100
1920 Par ch=1 c=64 v=127
2164 On ch=1 n=g#5 v=65
2272 On ch=1 n=g#5 v=0
2280 On ch=1 n=g5 v=66
2392 On ch=1 n=f5 v=79
2408 On ch=1 n=g5 v=0
2512 On ch=1 n=d5 v=72
2516 On ch=1 n=f5 v=0
2632 On ch=1 n=d#5 v=69
2648 On ch=1 n=d5 v=0
2744 On ch=1 n=d#5 v=0
2756 On ch=1 n=d5 v=69
2836 On ch=1 n=d6 v=0
2840 On ch=1 n=g6 v=0
2848 On ch=1 n=f6 v=0
2856 On ch=1 n=b6 v=0
2868 On ch=1 n=b5 v=0
2868 On ch=1 n=b4 v=76
2876 On ch=1 n=d5 v=0
2992 On ch=1 n=g4 v=68
3008 On ch=1 n=b4 v=0
3120 On ch=1 n=g#4 v=70
3136 On ch=1 n=g4 v=0
3236 On ch=1 n=g#4 v=0
3236 On ch=1 n=g4 v=64
3348 On ch=1 n=f4 v=77
3380 On ch=1 n=g4 v=0
3464 On ch=1 n=d4 v=71
3468 On ch=1 n=f4 v=0
3588 On ch=1 n=d#4 v=66
3596 On ch=1 n=d4 v=0
3704 On ch=1 n=d#4 v=0
3716 On ch=1 n=d4 v=66
3824 On ch=1 n=b3 v=72
3840 On ch=1 n=d4 v=0
3852 Par ch=1 c=64 v=0
3936 On ch=1 n=b3 v=0
3940 On ch=1 n=g3 v=62
4068 On ch=1 n=g#3 v=62
4080 On ch=1 n=g3 v=0
4180 On ch=1 n=g#3 v=0
4192 On ch=1 n=g3 v=63
4300 On ch=1 n=f3 v=75
4332 On ch=1 n=g3 v=0
4424 On ch=1 n=d3 v=68
4428 On ch=1 n=f3 v=0
4552 On ch=1 n=d#3 v=68
4556 On ch=1 n=d3 v=0
4664 On ch=1 n=d#3 v=0
4676 On ch=1 n=d3 v=69
4800 On ch=1 n=c3 v=75
4840 On ch=1 n=d3 v=0
4928 On ch=1 n=c3 v=0
4932 On ch=1 n=g2 v=68
5056 On ch=1 n=c3 v=71
5080 On ch=1 n=g2 v=0
5172 On ch=1 n=g2 v=72
5180 On ch=1 n=c3 v=0
5268 Par ch=1 c=64 v=127
5280 On ch=1 n=d#6 v=77
5284 On ch=1 n=g#6 v=96
5288 On ch=1 n=f6 v=80
5292 On ch=1 n=g#5 v=93
5300 On ch=1 n=c3 v=71
5316 On ch=1 n=g2 v=0
5412 On ch=1 n=g2 v=73
5416 On ch=1 n=c3 v=0
5452 On ch=1 n=d#6 v=0
5456 On ch=1 n=f6 v=0
5456 On ch=1 n=g#6 v=0
5464 On ch=1 n=g#5 v=0
5544 On ch=1 n=c3 v=73
5560 On ch=1 n=g2 v=0
5608 On ch=1 n=g5 v=87
5612 On ch=1 n=g6 v=94
5648 On ch=1 n=g2 v=74
5652 On ch=1 n=c3 v=0
5656 On ch=1 n=g5 v=0
5672 On ch=1 n=g6 v=0
5700 Par ch=1 c=64 v=0
5788 On ch=1 n=g6 v=85
5788 On ch=1 n=d7 v=101
5788 On ch=1 n=f6 v=79
5788 On ch=1 n=d6 v=96
5796 Par ch=1 c=64 v=127
5804 On ch=1 n=b2 v=91
5824 On ch=1 n=g2 v=0
5924 On ch=1 n=b2 v=0
6044 On ch=1 n=g#5 v=61
6148 On ch=1 n=g#5 v=0
6156 On ch=1 n=g5 v=61
6264 On ch=1 n=f5 v=69
6288 On ch=1 n=g5 v=0
6388 On ch=1 n=d5 v=65
6396 On ch=1 n=f5 v=0
6504 On ch=1 n=d#5 v=66
6516 On ch=1 n=d5 v=0
6616 On ch=1 n=d#5 v=0
6616 On ch=1 n=g6 v=0
6620 On ch=1 n=d5 v=65
6624 On ch=1 n=f6 v=0
6648 On ch=1 n=d6 v=0
6648 On ch=1 n=d7 v=0
6744 On ch=1 n=b4 v=76
6760 On ch=1 n=d5 v=0
6864 On ch=1 n=g4 v=69
6876 On ch=1 n=b4 v=0
6980 On ch=1 n=g#4 v=67
6988 On ch=1 n=g4 v=0
7088 On ch=1 n=g#4 v=0
7100 On ch=1 n=g4 v=68
7208 On ch=1 n=f4 v=72
7244 On ch=1 n=g4 v=0
7340 On ch=1 n=f4 v=0
7340 On ch=1 n=d4 v=62
7460 On ch=1 n=d#4 v=64
7480 On ch=1 n=d4 v=0
7572 On ch=1 n=d#4 v=0
7580 On ch=1 n=d4 v=63
7684 Par ch=1 c=64 v=0
7692 On ch=1 n=b3 v=73
7716 On ch=1 n=d4 v=0
7800 On ch=1 n=g3 v=66
7808 On ch=1 n=b3 v=0
7916 On ch=1 n=g#3 v=63
7932 On ch=1 n=g3 v=0
8028 On ch=1 n=g#3 v=0
8040 On ch=1 n=g3 v=63
8152 On ch=1 n=f3 v=75
8188 On ch=1 n=g3 v=0
8264 On ch=1 n=d3 v=65
8280 On ch=1 n=f3 v=0
8396 On ch=1 n=d#3 v=65
8416 On ch=1 n=d3 v=0
8512 On ch=1 n=d#3 v=0
8524 On ch=1 n=d3 v=63
8636 On ch=1 n=c3 v=73
8672 On ch=1 n=d3 v=0
8752 On ch=1 n=g2 v=62
8768 On ch=1 n=c3 v=0
8884 On ch=1 n=c3 v=65
8900 On ch=1 n=g2 v=0
9000 On ch=1 n=g2 v=67
9008 On ch=1 n=c3 v=0
9108 Par ch=1 c=64 v=127
9124 On ch=1 n=c3 v=68
9132 On ch=1 n=d#6 v=78
9136 On ch=1 n=g#6 v=98
9140 On ch=1 n=g2 v=0
9140 On ch=1 n=f6 v=79
9144 On ch=1 n=g#5 v=94
9244 On ch=1 n=g2 v=72
9252 On ch=1 n=c3 v=0
9320 On ch=1 n=d#6 v=0
9328 On ch=1 n=g#5 v=0
9332 On ch=1 n=g#6 v=0
9336 On ch=1 n=f6 v=0
9376 On ch=1 n=c3 v=73
9388 On ch=1 n=g2 v=0
9456 On ch=1 n=g5 v=88
9460 On ch=1 n=g6 v=94
9484 On ch=1 n=g2 v=74
9492 On ch=1 n=c3 v=0
9504 On ch=1 n=g5 v=0
9516 On ch=1 n=g6 v=0
9536 Par ch=1 c=64 v=0
9620 On ch=1 n=f7 v=105
9624 On ch=1 n=f6 v=98
9624 On ch=1 n=g6 v=80
9624 On ch=1 n=b2 v=81
9628 On ch=1 n=d7 v=88
9644 Par ch=1 c=64 v=127
9664 On ch=1 n=g2 v=0
9764 On ch=1 n=b2 v=0
9804 On ch=1 n=g6 v=0
9808 On ch=1 n=d7 v=0
9808 On ch=1 n=f6 v=0
9812 On ch=1 n=f7 v=0
9868 On ch=1 n=g#6 v=90
9884 On ch=1 n=g#7 v=87
9968 On ch=1 n=g#6 v=0
9980 On ch=1 n=g6 v=83
9984 On ch=1 n=g7 v=73
10016 On ch=1 n=g#7 v=0
10088 On ch=1 n=f6 v=82
10104 On ch=1 n=g6 v=0
10112 On ch=1 n=f7 v=89
10124 On ch=1 n=g7 v=0
10212 On ch=1 n=d6 v=83
10224 On ch=1 n=f7 v=0
10224 On ch=1 n=f6 v=0
10232 On ch=1 n=d7 v=78
10340 On ch=1 n=d#6 v=84
10352 On ch=1 n=d6 v=0
10356 On ch=1 n=d#7 v=72
10380 On ch=1 n=d7 v=0
10456 On ch=1 n=d#6 v=0
10456 On ch=1 n=d7 v=72
10464 On ch=1 n=d6 v=75
10484 On ch=1 n=d#7 v=0
10568 On ch=1 n=b5 v=86
10584 On ch=1 n=b6 v=87
10588 On ch=1 n=d6 v=0
10592 On ch=1 n=d7 v=0
10680 On ch=1 n=g5 v=80
10688 On ch=1 n=b6 v=0
10692 On ch=1 n=b5 v=0
10700 On ch=1 n=g6 v=72
10804 On ch=1 n=g#5 v=76
10816 On ch=1 n=g5 v=0
10820 On ch=1 n=g#6 v=69
10844 On ch=1 n=g6 v=0
10912 On ch=1 n=g#5 v=0
10924 On ch=1 n=g5 v=76
10936 On ch=1 n=g6 v=70
10960 On ch=1 n=g#6 v=0
11032 On ch=1 n=f5 v=84
11056 On ch=1 n=g5 v=0
11068 On ch=1 n=f6 v=84
11072 On ch=1 n=g6 v=0
11152 On ch=1 n=d5 v=76
11164 On ch=1 n=f5 v=0
11168 On ch=1 n=f6 v=0
11176 On ch=1 n=d6 v=76
11276 On ch=1 n=d#5 v=75
11292 On ch=1 n=d5 v=0
11292 On ch=1 n=d#6 v=76
11316 On ch=1 n=d6 v=0
11380 On ch=1 n=d#5 v=0
11396 On ch=1 n=d6 v=66
11396 On ch=1 n=d5 v=75
11424 On ch=1 n=d#6 v=0
11512 On ch=1 n=b4 v=86
11532 On ch=1 n=d5 v=0
11536 On ch=1 n=b5 v=84
11540 On ch=1 n=d6 v=0
11628 On ch=1 n=g4 v=73
11632 On ch=1 n=b4 v=0
11636 On ch=1 n=b5 v=0
11644 On ch=1 n=g5 v=79
11756 On ch=1 n=g#4 v=75
11768 On ch=1 n=g4 v=0
11768 On ch=1 n=g#5 v=79
11792 On ch=1 n=g5 v=0
11864 On ch=1 n=g#4 v=0
11876 On ch=1 n=g5 v=72
11880 On ch=1 n=g4 v=76
11900 On ch=1 n=g#5 v=0
11996 On ch=1 n=f4 v=86
12020 On ch=1 n=g4 v=0
12020 On ch=1 n=f5 v=84
12028 On ch=1 n=g5 v=0
12108 On ch=1 n=d4 v=74
12112 On ch=1 n=f4 v=0
12128 On ch=1 n=f5 v=0
12136 On ch=1 n=d5 v=75
12236 On ch=1 n=d#4 v=73
12240 On ch=1 n=d4 v=0
12260 On ch=1 n=d#5 v=72
12284 On ch=1 n=d5 v=0
12336 On ch=1 n=d#4 v=0
12352 On ch=1 n=d4 v=74
12364 On ch=1 n=d5 v=66
12396 On ch=1 n=d#5 v=0
12452 Par ch=1 c=64 v=0
12476 On ch=1 n=b3 v=86
12488 On ch=1 n=d4 v=0
12500 On ch=1 n=b4 v=86
12512 On ch=1 n=d5 v=0
12596 On ch=1 n=g3 v=75
12604 On ch=1 n=b3 v=0
12612 On ch=1 n=b4 v=0
12616 On ch=1 n=g4 v=76
12724 On ch=1 n=g#3 v=76
12740 On ch=1 n=g3 v=0
12748 On ch=1 n=g#4 v=82
12772 On ch=1 n=g4 v=0
12828 On ch=1 n=g#3 v=0
12840 On ch=1 n=g3 v=76
12860 On ch=1 n=g4 v=72
12896 On ch=1 n=g#4 v=0
12956 On ch=1 n=f3 v=86
12984 On ch=1 n=f4 v=84
12988 On ch=1 n=g3 v=0
13000 On ch=1 n=g4 v=0
13076 On ch=1 n=d3 v=77
13092 On ch=1 n=f4 v=0
13092 On ch=1 n=f3 v=0
13092 On ch=1 n=d4 v=75
13204 On ch=1 n=d#3 v=75
13212 On ch=1 n=d#4 v=70
13224 On ch=1 n=d3 v=0
13248 On ch=1 n=d4 v=0
13296 On ch=1 n=d#3 v=0
13320 On ch=1 n=d3 v=74
13328 On ch=1 n=d4 v=72
13372 On ch=1 n=d#4 v=0
13448 On ch=1 n=c3 v=76
13464 On ch=1 n=c4 v=68
13476 On ch=1 n=d3 v=0
13488 On ch=1 n=d4 v=0
13560 On ch=1 n=b2 v=75
13580 On ch=1 n=c3 v=0
13580 On ch=1 n=b3 v=70
13592 On ch=1 n=c4 v=0
13668 On ch=1 n=b2 v=0
13688 On ch=1 n=g3 v=64
13708 On ch=1 n=g4 v=54
13716 On ch=1 n=b3 v=0
13808 On ch=1 n=f3 v=63
13824 On ch=1 n=f4 v=56
13836 On ch=1 n=g3 v=0
13864 On ch=1 n=g4 v=0
13920 On ch=1 n=d#3 v=63
13932 On ch=1 n=d#4 v=56
13952 On ch=1 n=f3 v=0
13964 On ch=1 n=f4 v=0
14048 On ch=1 n=d3 v=61
14068 On ch=1 n=d4 v=61
14072 On ch=1 n=d#4 v=0
14076 On ch=1 n=d#3 v=0
14160 On ch=1 n=d3 v=0
14160 On ch=1 n=d#3 v=60
14184 On ch=1 n=d#4 v=59
14196 On ch=1 n=d4 v=0
14276 On ch=1 n=d3 v=59
14296 On ch=1 n=d4 v=53
14308 On ch=1 n=d#4 v=0
14312 On ch=1 n=d#3 v=0
14400 On ch=1 n=c3 v=61
14420 On ch=1 n=d4 v=0
14424 On ch=1 n=c4 v=54
14468 On ch=1 n=d3 v=0
14528 On ch=1 n=b2 v=62
14544 On ch=1 n=c3 v=0
14544 On ch=1 n=b3 v=56
14596 On ch=1 n=c4 v=0
14640 On ch=1 n=b2 v=0
14648 On ch=1 n=b3 v=0
14656 On ch=1 n=a#3 v=60
14676 On ch=1 n=a#4 v=57
14760 On ch=1 n=g#3 v=62
14772 On ch=1 n=a#3 v=0
14792 On ch=1 n=g#4 v=58
14844 On ch=1 n=a#4 v=0
14876 On ch=1 n=g3 v=62
14900 On ch=1 n=g#3 v=0
14900 On ch=1 n=g4 v=59
14936 On ch=1 n=g#4 v=0
14992 On ch=1 n=f3 v=62
15016 On ch=1 n=f4 v=61
15020 On ch=1 n=g3 v=0
15028 On ch=1 n=g4 v=0
15100 On ch=1 n=f3 v=0
15116 On ch=1 n=g3 v=63
15132 On ch=1 n=g4 v=62
15140 On ch=1 n=f4 v=0
15232 On ch=1 n=f4 v=65
15232 On ch=1 n=f3 v=64
15256 On ch=1 n=g4 v=0
15264 On ch=1 n=g3 v=0
15332 On ch=1 n=d#3 v=66
15356 On ch=1 n=d#4 v=67
15360 On ch=1 n=f3 v=0
15360 On ch=1 n=f4 v=0
15460 On ch=1 n=d3 v=68
15464 On ch=1 n=d#4 v=0
15464 On ch=1 n=d4 v=70
15496 On ch=1 n=d#3 v=0
15536 On ch=1 n=d3 v=0
15556 On ch=1 n=d4 v=0
15588 On ch=1 n=d#4 v=67
15592 On ch=1 n=d#5 v=72
15700 On ch=1 n=d#4 v=0
15708 On ch=1 n=d4 v=66
15724 On ch=1 n=d5 v=72
15740 On ch=1 n=d#5 v=0
15832 On ch=1 n=c4 v=68
15848 On ch=1 n=c5 v=71
15852 On ch=1 n=d4 v=0
15868 On ch=1 n=d5 v=0
15948 On ch=1 n=b3 v=71
15964 On ch=1 n=b4 v=76
15972 On ch=1 n=c5 v=0
15976 On ch=1 n=c4 v=0
16060 On ch=1 n=b3 v=0
16072 On ch=1 n=c4 v=71
16080 On ch=1 n=c5 v=77
16084 On ch=1 n=b4 v=0
16188 On ch=1 n=b4 v=76
16188 On ch=1 n=b3 v=69
16208 On ch=1 n=c5 v=0
16216 On ch=1 n=c4 v=0
16304 On ch=1 n=g#3 v=71
16312 On ch=1 n=g#4 v=76
16324 On ch=1 n=b3 v=0
16324 On ch=1 n=b4 v=0
16428 On ch=1 n=g3 v=75
16432 On ch=1 n=g#4 v=0
16436 On ch=1 n=g4 v=77
16444 On ch=1 n=g#3 v=0
16548 On ch=1 n=g3 v=0
16552 On ch=1 n=g#3 v=74
16568 On ch=1 n=g#4 v=79
16584 On ch=1 n=g4 v=0
16664 On ch=1 n=g#3 v=0
16668 On ch=1 n=g3 v=75
16680 On ch=1 n=g4 v=82
16696 On ch=1 n=g#4 v=0
16784 On ch=1 n=f3 v=74
16788 On ch=1 n=g4 v=0
16800 On ch=1 n=f4 v=81
16860 On ch=1 n=g3 v=0
16904 On ch=1 n=d#3 v=75
16912 On ch=1 n=f3 v=0
16932 On ch=1 n=d#4 v=82
16968 On ch=1 n=f4 v=0
17032 On ch=1 n=f3 v=76
17036 On ch=1 n=d#3 v=0
17048 On ch=1 n=f4 v=81
17064 On ch=1 n=d#4 v=0
17148 On ch=1 n=d#3 v=78
17172 On ch=1 n=d#4 v=82
17184 On ch=1 n=f3 v=0
17212 On ch=1 n=f4 v=0
17276 On ch=1 n=d#3 v=0
17284 On ch=1 n=d#4 v=0
17284 Par ch=1 c=64 v=127
17288 On ch=1 n=c4 v=80
17288 On ch=1 n=c3 v=80
17396 On ch=1 n=g3 v=60
17428 On ch=1 n=c3 v=0
17456 On ch=1 n=c4 v=0
17516 On ch=1 n=g3 v=0
17528 On ch=1 n=c4 v=63
17644 On ch=1 n=d4 v=66
17660 On ch=1 n=c4 v=0
17760 On ch=1 n=d#4 v=69
17788 On ch=1 n=d4 v=0
17868 On ch=1 n=g4 v=72
17888 On ch=1 n=d#4 v=0
17992 On ch=1 n=g4 v=0
18004 On ch=1 n=c5 v=76
18120 On ch=1 n=d5 v=79
18140 On ch=1 n=c5 v=0
18216 Par ch=1 c=64 v=0
18236 On ch=1 n=d5 v=0
18248 On ch=1 n=d#5 v=79
18356 On ch=1 n=d5 v=76
18372 On ch=1 n=d#5 v=0
18476 On ch=1 n=d5 v=0
18492 On ch=1 n=c5 v=72
18608 On ch=1 n=g4 v=68
18612 On ch=1 n=c5 v=0
18720 On ch=1 n=g4 v=0
18720 On ch=1 n=d#4 v=63
18840 On ch=1 n=d4 v=56
18848 On ch=1 n=d#4 v=0
18940 On ch=1 n=d4 v=0
18968 On ch=1 n=c4 v=55
19076 On ch=1 n=g3 v=54
19116 On ch=1 n=c4 v=0
19196 On ch=1 n=g3 v=0
19208 On ch=1 n=c3 v=56
19256 Par ch=1 c=64 v=127
19324 On ch=1 n=g3 v=60
19360 On ch=1 n=c3 v=0
19448 On ch=1 n=g3 v=0
19448 On ch=1 n=c4 v=64
19568 On ch=1 n=d4 v=70
19588 On ch=1 n=c4 v=0
19688 On ch=1 n=d4 v=0
19688 On ch=1 n=d#4 v=75
19732 Par ch=1 c=64 v=0
19804 On ch=1 n=d4 v=73
19824 On ch=1 n=d#4 v=0
19916 On ch=1 n=d4 v=0
19932 On ch=1 n=c4 v=69
20032 On ch=1 n=g3 v=65
20076 On ch=1 n=c4 v=0
20160 On ch=1 n=g3 v=0
20164 On ch=1 n=c3 v=61
20172 Par ch=1 c=64 v=127
20284 On ch=1 n=g3 v=63
20316 On ch=1 n=c3 v=0
20400 On ch=1 n=g3 v=0
20408 On ch=1 n=c4 v=71
20520 On ch=1 n=d4 v=76
20528 On ch=1 n=c7 v=92
20532 On ch=1 n=c6 v=76
20552 On ch=1 n=c4 v=0
20572 On ch=1 n=c6 v=0
20584 On ch=1 n=c7 v=0
20628 On ch=1 n=d7 v=101
20632 On ch=1 n=d6 v=96
20644 On ch=1 n=d#4 v=78
20652 On ch=1 n=d4 v=0
20704 Par ch=1 c=64 v=0
20752 On ch=1 n=d4 v=71
20780 On ch=1 n=d#4 v=0
20876 On ch=1 n=d4 v=0
20892 On ch=1 n=c4 v=63
20908 On ch=1 n=d6 v=0
20936 On ch=1 n=d7 v=0
20996 On ch=1 n=d#6 v=86
21000 On ch=1 n=d#7 v=93
21000 On ch=1 n=g3 v=60
21028 On ch=1 n=c4 v=0
21032 On ch=1 n=d#6 v=0
21044 On ch=1 n=d#7 v=0
21116 On ch=1 n=g3 v=0
21132 On ch=1 n=c3 v=59
21144 On ch=1 n=d#6 v=99
21144 On ch=1 n=d#7 v=101
21160 Par ch=1 c=64 v=127
21256 On ch=1 n=g3 v=62
21272 On ch=1 n=c3 v=0
21372 On ch=1 n=g3 v=0
21380 On ch=1 n=c4 v=64
21500 On ch=1 n=d4 v=67
21524 On ch=1 n=c4 v=0
21616 On ch=1 n=d#4 v=71
21640 On ch=1 n=d4 v=0
21732 On ch=1 n=d#4 v=0
21732 On ch=1 n=g4 v=75
21832 On ch=1 n=g4 v=0
21848 On ch=1 n=c5 v=77
21968 On ch=1 n=d#7 v=0
21972 On ch=1 n=d5 v=80
22000 On ch=1 n=c5 v=0
22000 On ch=1 n=d#6 v=0
22104 On ch=1 n=d5 v=0
22104 On ch=1 n=d#5 v=83
22156 Par ch=1 c=64 v=0
22216 On ch=1 n=d5 v=79
22224 On ch=1 n=d#5 v=0
22328 On ch=1 n=d5 v=0
22348 On ch=1 n=c5 v=73
22448 On ch=1 n=d#6 v=61
22452 On ch=1 n=g5 v=70
22456 On ch=1 n=g6 v=79
22456 On ch=1 n=c6 v=58
22456 On ch=1 n=g4 v=67
22472 On ch=1 n=c5 v=0
22508 On ch=1 n=c6 v=0
22508 On ch=1 n=g6 v=0
22512 On ch=1 n=g5 v=0
22516 On ch=1 n=d#6 v=0
22576 On ch=1 n=d#4 v=62
22580 On ch=1 n=g4 v=0
22580 On ch=1 n=d#6 v=67
22584 On ch=1 n=g6 v=81
22584 On ch=1 n=c6 v=56
22588 On ch=1 n=g5 v=76
22692 On ch=1 n=d4 v=55
22708 On ch=1 n=d#4 v=0
22796 On ch=1 n=d4 v=0
22820 On ch=1 n=c4 v=55
22880 On ch=1 n=d#6 v=0
22888 On ch=1 n=g6 v=0
22892 On ch=1 n=c6 v=0
22900 On ch=1 n=g5 v=0
22928 On ch=1 n=g3 v=54
22940 On ch=1 n=g5 v=69
22944 On ch=1 n=g6 v=79
22948 On ch=1 n=c6 v=56
22956 On ch=1 n=d#6 v=64
22976 On ch=1 n=c4 v=0
23000 On ch=1 n=g6 v=0
23000 On ch=1 n=g5 v=0
23008 On ch=1 n=c6 v=0
23016 On ch=1 n=d#6 v=0
23052 On ch=1 n=g3 v=0
23056 On ch=1 n=c3 v=61
23076 On ch=1 n=c6 v=61
23080 On ch=1 n=g#6 v=78
23080 On ch=1 n=g#5 v=74
23092 On ch=1 n=d#6 v=64
23120 Par ch=1 c=64 v=127
23176 On ch=1 n=g3 v=66
23212 On ch=1 n=c3 v=0
23288 On ch=1 n=g3 v=0
23292 On ch=1 n=c4 v=72
23404 On ch=1 n=d4 v=76
23424 On ch=1 n=c4 v=0
23520 On ch=1 n=d#4 v=77
23524 On ch=1 n=d4 v=0
23640 On ch=1 n=d4 v=77
23652 Par ch=1 c=64 v=0
23656 On ch=1 n=d#4 v=0
23756 On ch=1 n=d4 v=0
23768 On ch=1 n=c4 v=72
23888 On ch=1 n=g3 v=66
23904 On ch=1 n=c4 v=0
23908 On ch=1 n=g#6 v=0
23940 On ch=1 n=g#5 v=0
24016 On ch=1 n=g3 v=0
24016 On ch=1 n=c3 v=60
24020 On ch=1 n=g5 v=63
24032 On ch=1 n=g6 v=73
24032 Par ch=1 c=64 v=127
24128 On ch=1 n=g3 v=64
24152 On ch=1 n=g5 v=0
24156 On ch=1 n=c3 v=0
24160 On ch=1 n=c6 v=0
24164 On ch=1 n=d#6 v=0
24176 On ch=1 n=g6 v=0
24244 On ch=1 n=c4 v=71
24248 On ch=1 n=g3 v=0
24360 On ch=1 n=d4 v=78
24364 On ch=1 n=c6 v=88
24368 On ch=1 n=c7 v=88
24388 On ch=1 n=c4 v=0
24404 On ch=1 n=c6 v=0
24408 On ch=1 n=c7 v=0
24496 On ch=1 n=d4 v=0
24496 On ch=1 n=d6 v=90
24496 On ch=1 n=d7 v=101
24496 On ch=1 n=d#4 v=78
24596 Par ch=1 c=64 v=0
24604 On ch=1 n=d4 v=74
24628 On ch=1 n=d#4 v=0
24728 On ch=1 n=d4 v=0
24744 On ch=1 n=c4 v=67
24788 On ch=1 n=d6 v=0
24796 On ch=1 n=d7 v=0
24844 On ch=1 n=d#6 v=90
24848 On ch=1 n=d#7 v=92
24848 On ch=1 n=g3 v=60
24892 On ch=1 n=d#7 v=0
24892 On ch=1 n=d#6 v=0
24892 On ch=1 n=c4 v=0
24972 On ch=1 n=g3 v=0
24972 On ch=1 n=d#6 v=97
24976 On ch=1 n=d#7 v=99
24980 On ch=1 n=c3 v=59
25036 Par ch=1 c=64 v=127
25100 On ch=1 n=g3 v=61
25128 On ch=1 n=c3 v=0
25212 On ch=1 n=g3 v=0
25220 On ch=1 n=c4 v=62
25352 On ch=1 n=d4 v=64
25376 On ch=1 n=c4 v=0
25468 On ch=1 n=d#4 v=66
25488 On ch=1 n=d4 v=0
25576 On ch=1 n=d#4 v=0
25576 On ch=1 n=g4 v=69
25696 On ch=1 n=g4 v=0
25696 On ch=1 n=c5 v=71
25744 On ch=1 n=d#7 v=0
25752 On ch=1 n=d#6 v=0
25812 On ch=1 n=d5 v=72
25832 On ch=1 n=c5 v=0
25936 On ch=1 n=d5 v=0
25936 On ch=1 n=d#5 v=71
25992 Par ch=1 c=64 v=0
26048 On ch=1 n=d5 v=68
26056 On ch=1 n=d#5 v=0
26152 On ch=1 n=d5 v=0
26172 On ch=1 n=c5 v=65
26272 On ch=1 n=g5 v=64
26280 On ch=1 n=d#6 v=63
26284 On ch=1 n=c6 v=55
26284 On ch=1 n=g6 v=62
26284 On ch=1 n=g4 v=66
26304 On ch=1 n=c5 v=0
26332 On ch=1 n=c6 v=0
26332 On ch=1 n=d#6 v=0
26336 On ch=1 n=g6 v=0
26336 On ch=1 n=g5 v=0
26400 On ch=1 n=g5 v=70
26404 On ch=1 n=c6 v=59
26404 On ch=1 n=g6 v=69
26404 On ch=1 n=d#4 v=60
26408 On ch=1 n=d#6 v=68
26416 On ch=1 n=g4 v=0
26520 On ch=1 n=d4 v=57
26544 On ch=1 n=d#4 v=0
26620 On ch=1 n=d4 v=0
26636 On ch=1 n=d#6 v=0
26648 On ch=1 n=c4 v=54
26652 On ch=1 n=c6 v=0
26672 On ch=1 n=g6 v=0
26672 On ch=1 n=g5 v=0
26748 On ch=1 n=g6 v=73
26752 On ch=1 n=g5 v=73
26756 On ch=1 n=c6 v=60
26756 On ch=1 n=g3 v=52
26760 On ch=1 n=d#6 v=69
26800 On ch=1 n=g6 v=0
26800 On ch=1 n=c4 v=0
26804 On ch=1 n=g5 v=0
26816 On ch=1 n=c6 v=0
26828 On ch=1 n=d#6 v=0
26876 On ch=1 n=d#6 v=76
26880 On ch=1 n=g3 v=0
26884 On ch=1 n=c6 v=72
26884 On ch=1 n=c3 v=52
26888 On ch=1 n=a5 v=78
26892 On ch=1 n=a6 v=87
26924 Par ch=1 c=64 v=127
27000 On ch=1 n=f#3 v=55
27088 On ch=1 n=c3 v=0
27108 On ch=1 n=f#3 v=0
27112 On ch=1 n=c4 v=59
27228 On ch=1 n=d4 v=66
27260 On ch=1 n=c4 v=0
27356 On ch=1 n=d#4 v=70
27360 On ch=1 n=d4 v=0
27432 Par ch=1 c=64 v=0
27480 On ch=1 n=d4 v=68
27488 On ch=1 n=d#4 v=0
27588 On ch=1 n=d4 v=0
27604 On ch=1 n=c4 v=61
27708 On ch=1 n=f#3 v=55
27752 On ch=1 n=c4 v=0
27828 On ch=1 n=f#3 v=0
27836 Par ch=1 c=64 v=127
27840 On ch=1 n=c3 v=51
27964 On ch=1 n=f#3 v=58
27992 On ch=1 n=c3 v=0
28072 On ch=1 n=f#3 v=0
28080 On ch=1 n=c4 v=64
28196 On ch=1 n=d4 v=67
28216 On ch=1 n=c4 v=0
28328 On ch=1 n=d#4 v=71
28336 On ch=1 n=d4 v=0
28384 Par ch=1 c=64 v=0
28456 On ch=1 n=d4 v=65
28496 On ch=1 n=d#4 v=0
28512 On ch=1 n=a6 v=0
28512 On ch=1 n=a5 v=0
28512 On ch=1 n=c6 v=0
28512 On ch=1 n=d#6 v=0
28564 On ch=1 n=d4 v=0
28576 On ch=1 n=c4 v=61
28684 On ch=1 n=f#3 v=58
28708 On ch=1 n=c4 v=0
28776 On ch=1 n=f#3 v=0
28804 On ch=1 n=b2 v=66
28808 On ch=1 n=d7 v=84
28812 On ch=1 n=a6 v=68
28812 Par ch=1 c=64 v=127
28816 On ch=1 n=d6 v=76
28920 On ch=1 n=b2 v=0
28932 On ch=1 n=b3 v=65
28940 On ch=1 n=d7 v=0
28944 On ch=1 n=a6 v=0
28948 On ch=1 n=d6 v=0
29032 On ch=1 n=b3 v=0
29060 On ch=1 n=d4 v=66
29172 On ch=1 n=g4 v=69
29232 On ch=1 n=d4 v=0
29300 On ch=1 n=d5 v=67
29312 On ch=1 n=g6 v=84
29316 On ch=1 n=g5 v=73
29320 On ch=1 n=d6 v=68
29336 On ch=1 n=g4 v=0
29428 On ch=1 n=g4 v=66
29432 On ch=1 n=d5 v=0
29536 On ch=1 n=g4 v=0
29536 On ch=1 n=d4 v=68
29612 On ch=1 n=d4 v=0
29656 On ch=1 n=b3 v=69
29700 Par ch=1 c=64 v=0
29752 On ch=1 n=b3 v=0
29788 On ch=1 n=a#2 v=66
29792 On ch=1 n=d6 v=0
29792 On ch=1 n=g6 v=0
29804 On ch=1 n=g5 v=0
29816 Par ch=1 c=64 v=127
29908 On ch=1 n=a#2 v=0
29912 On ch=1 n=a#3 v=66
29988 On ch=1 n=a#3 v=0
30016 On ch=1 n=c#4 v=66
30136 On ch=1 n=c#4 v=0
30136 On ch=1 n=g6 v=84
30140 On ch=1 n=g5 v=70
30144 On ch=1 n=c#6 v=55
30144 On ch=1 n=g4 v=67
30196 On ch=1 n=g5 v=0
30212 On ch=1 n=c#6 v=0
30252 On ch=1 n=g4 v=0
30256 On ch=1 n=c#6 v=56
30272 On ch=1 n=g#6 v=87
30272 On ch=1 n=c#5 v=64
30280 On ch=1 n=g#5 v=76
30320 On ch=1 n=g6 v=0
30360 On ch=1 n=c#5 v=0
30376 On ch=1 n=g4 v=66
30468 On ch=1 n=g4 v=0
30476 On ch=1 n=c#4 v=67
30516 On ch=1 n=g#5 v=0
30548 On ch=1 n=g#6 v=0
30548 On ch=1 n=c#6 v=0
30556 On ch=1 n=c#4 v=0
30580 On ch=1 n=c#6 v=54
30592 On ch=1 n=g5 v=76
30596 On ch=1 n=a#3 v=68
30600 On ch=1 n=g6 v=86
30644 On ch=1 n=c#6 v=0
30648 On ch=1 n=g5 v=0
30660 On ch=1 n=g6 v=0
30672 Par ch=1 c=64 v=0
30704 On ch=1 n=a#3 v=0
30728 On ch=1 n=a2 v=68
30736 On ch=1 n=c6 v=54
30736 On ch=1 n=g5 v=77
30756 On ch=1 n=g6 v=86
30804 Par ch=1 c=64 v=127
30844 On ch=1 n=a2 v=0
30856 On ch=1 n=a3 v=69
30908 On ch=1 n=g5 v=0
30928 On ch=1 n=a3 v=0
30940 On ch=1 n=c6 v=0
30948 On ch=1 n=g6 v=0
30968 On ch=1 n=c4 v=67
31004 On ch=1 n=c7 v=86
31008 On ch=1 n=c6 v=78
31084 On ch=1 n=c6 v=0
31084 On ch=1 n=f4 v=67
31092 On ch=1 n=c7 v=0
31156 On ch=1 n=c4 v=0
31216 On ch=1 n=c5 v=66
31240 On ch=1 n=f4 v=0
31240 On ch=1 n=f6 v=88
31244 On ch=1 n=f5 v=87
31244 On ch=1 n=c6 v=64
31332 On ch=1 n=f4 v=67
31336 On ch=1 n=c5 v=0
31444 On ch=1 n=f4 v=0
31444 On ch=1 n=c4 v=64
31508 On ch=1 n=c4 v=0
31564 On ch=1 n=a3 v=66
31596 On ch=1 n=f5 v=0
31604 On ch=1 n=c6 v=0
31604 On ch=1 n=f6 v=0
31612 Par ch=1 c=64 v=0
31652 On ch=1 n=a3 v=0
31696 On ch=1 n=g#2 v=64
31736 Par ch=1 c=64 v=127
31808 On ch=1 n=g#2 v=0
31816 On ch=1 n=g#3 v=65
31868 On ch=1 n=g#3 v=0
31924 On ch=1 n=c4 v=65
32032 On ch=1 n=c6 v=62
32036 On ch=1 n=f6 v=80
32040 On ch=1 n=f5 v=72
32048 On ch=1 n=f4 v=66
32092 On ch=1 n=f5 v=0
32112 On ch=1 n=f6 v=0
32128 On ch=1 n=c6 v=0
32140 On ch=1 n=f4 v=0
32148 On ch=1 n=c6 v=55
32148 On ch=1 n=g6 v=84
32156 On ch=1 n=g5 v=73
32168 On ch=1 n=c4 v=0
32188 On ch=1 n=c5 v=67
32292 On ch=1 n=c5 v=0
32300 On ch=1 n=f4 v=64
32408 On ch=1 n=c4 v=66
32420 On ch=1 n=f4 v=0
32440 On ch=1 n=g5 v=0
32448 On ch=1 n=c6 v=0
32464 On ch=1 n=c4 v=0
32524 On ch=1 n=f6 v=72
32528 On ch=1 n=c6 v=59
32528 On ch=1 n=g#3 v=65
32532 On ch=1 n=f5 v=66
32580 On ch=1 n=g6 v=0
32588 On ch=1 n=f5 v=0
32592 On ch=1 n=f6 v=0
32592 Par ch=1 c=64 v=0
32604 On ch=1 n=g#3 v=0
32608 On ch=1 n=c6 v=0
32656 On ch=1 n=c6 v=61
32656 On ch=1 n=g2 v=55
32660 On ch=1 n=e6 v=73
32664 On ch=1 n=e5 v=76
32696 Par ch=1 c=64 v=127
32784 On ch=1 n=g2 v=0
32792 On ch=1 n=g3 v=56
32908 On ch=1 n=g3 v=0
32908 On ch=1 n=c4 v=54
33004 Par ch=1 c=64 v=0
33028 On ch=1 n=c4 v=0
33036 On ch=1 n=b3 v=56
33140 On ch=1 n=b3 v=0
33144 On ch=1 n=c#4 v=58
33260 On ch=1 n=c#4 v=0
33260 On ch=1 n=c4 v=58
33372 On ch=1 n=c4 v=0
33384 On ch=1 n=d4 v=59
33508 On ch=1 n=d4 v=0
33508 On ch=1 n=c#4 v=61
33620 On ch=1 n=c#4 v=0
33624 On ch=1 n=d#4 v=63
33736 On ch=1 n=d#4 v=0
33744 On ch=1 n=d4 v=63
33860 On ch=1 n=d4 v=0
33860 On ch=1 n=e4 v=64
33984 On ch=1 n=d#4 v=66
33992 On ch=1 n=e4 v=0
34104 On ch=1 n=d#4 v=0
34104 On ch=1 n=f4 v=67
34220 On ch=1 n=e4 v=70
34232 On ch=1 n=f4 v=0
34264 On ch=1 n=e5 v=0
34276 On ch=1 n=e6 v=0
34308 On ch=1 n=c6 v=0
34344 On ch=1 n=e4 v=0
34344 On ch=1 n=f#4 v=70
34460 On ch=1 n=f#4 v=0
34460 On ch=1 n=d#6 v=67
34464 On ch=1 n=d#5 v=70
34464 On ch=1 n=f4 v=70
34512 On ch=1 n=d#6 v=0
34524 On ch=1 n=d#5 v=0
34552 Par ch=1 c=64 v=127
34564 On ch=1 n=b5 v=56
34568 On ch=1 n=g4 v=77
34580 On ch=1 n=f4 v=0
34580 On ch=1 n=d#5 v=79
34584 On ch=1 n=d#6 v=82
34684 On ch=1 n=f#4 v=75
34692 On ch=1 n=g4 v=0
34808 On ch=1 n=g#4 v=73
34812 On ch=1 n=f#4 v=0
34932 On ch=1 n=g4 v=72
34944 On ch=1 n=g#4 v=0
35044 On ch=1 n=d5 v=69
35048 On ch=1 n=d6 v=62
35052 On ch=1 n=d#6 v=0
35052 On ch=1 n=a#4 v=71
35060 On ch=1 n=g4 v=0
35068 On ch=1 n=d#5 v=0
35132 Par ch=1 c=64 v=0
35172 On ch=1 n=g#4 v=68
35176 On ch=1 n=a#4 v=0
35260 On ch=1 n=g#4 v=0
35288 On ch=1 n=g4 v=66
35380 On ch=1 n=g4 v=0
35404 On ch=1 n=f4 v=64
35440 On ch=1 n=d5 v=0
35448 On ch=1 n=d6 v=0
35452 On ch=1 n=b5 v=0
35524 On ch=1 n=d#4 v=60
35528 On ch=1 n=f4 v=0
35644 On ch=1 n=d4 v=62
35664 On ch=1 n=d#4 v=0
35736 On ch=1 n=d4 v=0
35764 On ch=1 n=c4 v=65
35876 On ch=1 n=b3 v=67
35888 On ch=1 n=c4 v=0
35988 On ch=1 n=b3 v=0
35996 On ch=1 n=g#3 v=69
36116 On ch=1 n=g#3 v=0
36116 On ch=1 n=g3 v=72
36236 On ch=1 n=f3 v=73
36256 On ch=1 n=g3 v=0
36360 On ch=1 n=d3 v=74
36372 On ch=1 n=f3 v=0
36472 On ch=1 n=c3 v=61
36488 On ch=1 n=d3 v=0
36548 Par ch=1 c=64 v=127
36604 On ch=1 n=g3 v=59
36624 On ch=1 n=c3 v=0
36724 On ch=1 n=g3 v=0
36732 On ch=1 n=c4 v=61
36848 On ch=1 n=d4 v=63
36856 On ch=1 n=c4 v=0
36964 On ch=1 n=d#4 v=65
36988 On ch=1 n=d4 v=0
37084 On ch=1 n=g4 v=67
37088 On ch=1 n=d#4 v=0
37208 On ch=1 n=g4 v=0
37208 On ch=1 n=c5 v=69
37316 On ch=1 n=d5 v=70
37336 On ch=1 n=c5 v=0
37432 On ch=1 n=d5 v=0
37440 On ch=1 n=d#5 v=68
37448 Par ch=1 c=64 v=0
37552 On ch=1 n=d#5 v=0
37556 On ch=1 n=d5 v=66
37656 On ch=1 n=d5 v=0
37676 On ch=1 n=c5 v=64
37792 On ch=1 n=c5 v=0
37804 On ch=1 n=g4 v=61
37880 On ch=1 n=g4 v=0
37908 On ch=1 n=d#4 v=59
38024 On ch=1 n=d4 v=58
38036 On ch=1 n=d#4 v=0
38112 On ch=1 n=d4 v=0
38140 On ch=1 n=c4 v=57
38260 On ch=1 n=g3 v=55
38304 On ch=1 n=c4 v=0
38372 On ch=1 n=g3 v=0
38384 On ch=1 n=c3 v=58
38432 Par ch=1 c=64 v=127
38504 On ch=1 n=g3 v=60
38540 On ch=1 n=c3 v=0
38628 On ch=1 n=g3 v=0
38632 On ch=1 n=c4 v=64
38748 On ch=1 n=d4 v=69
38764 On ch=1 n=c4 v=0
38868 On ch=1 n=d#4 v=70
38872 On ch=1 n=d4 v=0
38980 Par ch=1 c=64 v=0
38996 On ch=1 n=d4 v=68
39004 On ch=1 n=d#4 v=0
39112 On ch=1 n=d4 v=0
39124 On ch=1 n=c4 v=64
39228 On ch=1 n=g3 v=60
39264 On ch=1 n=c4 v=0
39352 On ch=1 n=g3 v=0
39356 On ch=1 n=c3 v=60
39444 Par ch=1 c=64 v=127
39480 On ch=1 n=g3 v=65
39504 On ch=1 n=c3 v=0
39592 On ch=1 n=g3 v=0
39596 On ch=1 n=c4 v=71
39708 On ch=1 n=c6 v=65
39712 On ch=1 n=c7 v=96
39712 On ch=1 n=d4 v=77
39736 On ch=1 n=c4 v=0
39772 On ch=1 n=c6 v=0
39796 On ch=1 n=c7 v=0
39832 On ch=1 n=d7 v=94
39840 On ch=1 n=d6 v=67
39840 On ch=1 n=d#4 v=78
39848 On ch=1 n=d4 v=0
39952 On ch=1 n=d4 v=74
39972 On ch=1 n=d#4 v=0
39992 Par ch=1 c=64 v=0
40064 On ch=1 n=d4 v=0
40080 On ch=1 n=c4 v=64
40172 On ch=1 n=d6 v=0
40180 On ch=1 n=d7 v=0
40188 On ch=1 n=g3 v=61
40192 On ch=1 n=d#6 v=87
40192 On ch=1 n=d#7 v=95
40220 On ch=1 n=c4 v=0
40240 On ch=1 n=d#6 v=0
40244 On ch=1 n=d#7 v=0
40308 On ch=1 n=g3 v=0
40316 On ch=1 n=c3 v=59
40328 On ch=1 n=d#6 v=80
40328 On ch=1 n=d#7 v=97
40420 Par ch=1 c=64 v=127
40436 On ch=1 n=g3 v=64
40456 On ch=1 n=c3 v=0
40556 On ch=1 n=c4 v=68
40560 On ch=1 n=g3 v=0
40672 On ch=1 n=d4 v=71
40792 On ch=1 n=d#4 v=74
40796 On ch=1 n=c4 v=0
40800 On ch=1 n=d4 v=0
40916 On ch=1 n=g4 v=77
40924 On ch=1 n=d#4 v=0
41028 On ch=1 n=g4 v=0
41036 On ch=1 n=c5 v=80
41148 On ch=1 n=d5 v=82
41172 On ch=1 n=c5 v=0
41212 On ch=1 n=d#7 v=0
41240 On ch=1 n=d#6 v=0
41252 Par ch=1 c=64 v=0
41268 On ch=1 n=d5 v=0
41272 On ch=1 n=d#5 v=81
41384 On ch=1 n=d5 v=76
41400 On ch=1 n=d#5 v=0
41500 On ch=1 n=d5 v=0
41512 On ch=1 n=c5 v=71
41628 On ch=1 n=g4 v=65
41648 On ch=1 n=c5 v=0
41656 On ch=1 n=g5 v=65
41660 On ch=1 n=g6 v=67
41660 On ch=1 n=c6 v=54
41664 On ch=1 n=d#6 v=64
41712 On ch=1 n=c6 v=0
41716 On ch=1 n=g6 v=0
41716 On ch=1 n=g5 v=0
41720 On ch=1 n=d#6 v=0
41736 On ch=1 n=g4 v=0
41740 On ch=1 n=d#4 v=62
41768 On ch=1 n=d#6 v=58
41768 On ch=1 n=g5 v=70
41772 On ch=1 n=c6 v=59
41776 On ch=1 n=g6 v=72
41860 On ch=1 n=d4 v=59
41884 On ch=1 n=d#4 v=0
41960 On ch=1 n=d4 v=0
41984 On ch=1 n=c4 v=57
42080 On ch=1 n=g5 v=0
42080 On ch=1 n=d#6 v=0
42084 On ch=1 n=g6 v=0
42088 On ch=1 n=c6 v=0
42088 On ch=1 n=g3 v=55
42120 On ch=1 n=g6 v=72
42124 On ch=1 n=c6 v=54
42128 On ch=1 n=c4 v=0
42128 On ch=1 n=d#6 v=66
42128 On ch=1 n=g5 v=70
42164 On ch=1 n=g6 v=0
42180 On ch=1 n=g5 v=0
42192 On ch=1 n=c6 v=0
42200 On ch=1 n=d#6 v=0
42220 On ch=1 n=g3 v=0
42220 On ch=1 n=c3 v=57
42260 On ch=1 n=d#6 v=64
42264 On ch=1 n=c6 v=59
42264 On ch=1 n=g#5 v=66
42268 On ch=1 n=g#6 v=72
42344 On ch=1 n=g3 v=61
42372 Par ch=1 c=64 v=127
42376 On ch=1 n=c3 v=0
42452 On ch=1 n=c4 v=63
42460 On ch=1 n=g3 v=0
42580 On ch=1 n=d4 v=67
42612 On ch=1 n=c4 v=0
42708 On ch=1 n=d4 v=0
42708 On ch=1 n=d#4 v=68
42832 On ch=1 n=d4 v=65
42844 On ch=1 n=d#4 v=0
42848 Par ch=1 c=64 v=0
42936 On ch=1 n=d4 v=0
42952 On ch=1 n=c4 v=63
43064 On ch=1 n=g3 v=60
43068 On ch=1 n=g#6 v=0
43092 On ch=1 n=c4 v=0
43116 On ch=1 n=g#5 v=0
43192 On ch=1 n=g3 v=0
43196 On ch=1 n=c3 v=62
43204 On ch=1 n=g5 v=69
43216 On ch=1 n=g6 v=69
43304 Par ch=1 c=64 v=127
43308 On ch=1 n=g3 v=68
43324 On ch=1 n=g5 v=0
43328 On ch=1 n=c6 v=0
43336 On ch=1 n=c3 v=0
43344 On ch=1 n=d#6 v=0
43352 On ch=1 n=g6 v=0
43424 On ch=1 n=g3 v=0
43428 On ch=1 n=c4 v=72
43552 On ch=1 n=d4 v=75
43576 On ch=1 n=c4 v=0
43576 On ch=1 n=c6 v=85
43580 On ch=1 n=c7 v=92
43620 On ch=1 n=c6 v=0
43636 On ch=1 n=c7 v=0
43676 On ch=1 n=d#4 v=80
43680 On ch=1 n=d4 v=0
43688 On ch=1 n=d7 v=94
43692 On ch=1 n=d6 v=86
43792 On ch=1 n=d4 v=77
43796 Par ch=1 c=64 v=0
43812 On ch=1 n=d#4 v=0
43896 On ch=1 n=d4 v=0
43916 On ch=1 n=c4 v=72
43936 On ch=1 n=d6 v=0
43956 On ch=1 n=d7 v=0
44028 On ch=1 n=g3 v=66
44040 On ch=1 n=d#7 v=95
44044 On ch=1 n=d#6 v=81
44064 On ch=1 n=c4 v=0
44080 On ch=1 n=d#6 v=0
44084 On ch=1 n=d#7 v=0
44148 On ch=1 n=g3 v=0
44152 On ch=1 n=d#6 v=87
44156 On ch=1 n=d#7 v=96
44156 On ch=1 n=c3 v=53
44272 On ch=1 n=g3 v=56
44292 On ch=1 n=c3 v=0
44292 Par ch=1 c=64 v=127
44384 On ch=1 n=g3 v=0
44396 On ch=1 n=c4 v=59
44512 On ch=1 n=d4 v=61
44600 On ch=1 n=c4 v=0
44624 On ch=1 n=d#4 v=57
44648 On ch=1 n=d4 v=0
44744 On ch=1 n=d#4 v=0
44744 On ch=1 n=g4 v=58
44868 On ch=1 n=g4 v=0
44872 On ch=1 n=c5 v=60
44988 On ch=1 n=d5 v=63
45012 On ch=1 n=c5 v=0
45048 On ch=1 n=d#7 v=0
45068 On ch=1 n=d#6 v=0
45108 On ch=1 n=d5 v=0
45112 On ch=1 n=d#5 v=69
45128 Par ch=1 c=64 v=0
45224 On ch=1 n=d5 v=66
45228 On ch=1 n=d#5 v=0
45332 On ch=1 n=d5 v=0
45352 On ch=1 n=c5 v=62
45472 On ch=1 n=g4 v=58
45476 On ch=1 n=g6 v=71
45480 On ch=1 n=c5 v=0
45492 On ch=1 n=d#6 v=56
45492 On ch=1 n=c6 v=59
45496 On ch=1 n=g5 v=62
45548 On ch=1 n=g6 v=0
45552 On ch=1 n=c6 v=0
45556 On ch=1 n=g5 v=0
45560 On ch=1 n=d#6 v=0
45580 On ch=1 n=d#4 v=55
45588 On ch=1 n=g4 v=0
45596 On ch=1 n=g6 v=73
45600 On ch=1 n=d#6 v=65
45600 On ch=1 n=c6 v=59
45604 On ch=1 n=g5 v=70
45704 On ch=1 n=d4 v=53
45720 On ch=1 n=d#4 v=0
45796 On ch=1 n=d4 v=0
45824 On ch=1 n=c4 v=52
45852 On ch=1 n=c6 v=0
45856 On ch=1 n=g6 v=0
45860 On ch=1 n=g5 v=0
45864 On ch=1 n=d#6 v=0
45928 On ch=1 n=d#6 v=65
45928 On ch=1 n=c6 v=58
45932 On ch=1 n=g5 v=69
45936 On ch=1 n=g6 v=74
45936 On ch=1 n=g3 v=50
45976 On ch=1 n=c6 v=0
45984 On ch=1 n=g5 v=0
45984 On ch=1 n=c4 v=0
46012 On ch=1 n=d#6 v=0
46020 On ch=1 n=g6 v=0
46044 Par ch=1 c=64 v=127
46060 On ch=1 n=g3 v=0
46072 On ch=1 n=d#6 v=57
46072 On ch=1 n=f6 v=57
46072 On ch=1 n=c3 v=50
46076 On ch=1 n=a5 v=66
46080 On ch=1 n=a6 v=73
46192 On ch=1 n=f3 v=55
46236 On ch=1 n=c3 v=0
46316 On ch=1 n=f3 v=0
46324 On ch=1 n=c4 v=57
46440 On ch=1 n=d4 v=62
46456 On ch=1 n=c4 v=0
46564 On ch=1 n=d4 v=0
46564 On ch=1 n=d#4 v=64
46604 Par ch=1 c=64 v=0
46672 On ch=1 n=d4 v=63
46684 On ch=1 n=d#4 v=0
46792 On ch=1 n=d4 v=0
46808 On ch=1 n=c4 v=56
46912 On ch=1 n=f3 v=52
46948 On ch=1 n=c4 v=0
47036 On ch=1 n=f3 v=0
47048 On ch=1 n=c3 v=52
47064 Par ch=1 c=64 v=127
47164 On ch=1 n=f3 v=55
47196 On ch=1 n=c3 v=0
47280 On ch=1 n=f3 v=0
47288 On ch=1 n=c4 v=58
47392 On ch=1 n=d4 v=61
47416 On ch=1 n=c4 v=0
47520 On ch=1 n=d#4 v=63
47524 On ch=1 n=d4 v=0
47588 Par ch=1 c=64 v=0
47592 On ch=1 n=f6 v=0
47596 On ch=1 n=a5 v=0
47608 On ch=1 n=d#6 v=0
47612 On ch=1 n=a6 v=0
47632 On ch=1 n=d4 v=63
47652 On ch=1 n=d#4 v=0
47752 On ch=1 n=d4 v=0
47764 On ch=1 n=c4 v=57
47868 On ch=1 n=f3 v=56
47892 On ch=1 n=c4 v=0
47984 On ch=1 n=f3 v=0
47992 On ch=1 n=a#6 v=70
48000 On ch=1 n=f6 v=52
48000 On ch=1 n=a#5 v=59
48008 On ch=1 n=d3 v=67
48016 Par ch=1 c=64 v=127
48132 On ch=1 n=a#3 v=56
48152 On ch=1 n=d3 v=0
48252 On ch=1 n=b3 v=54
48264 On ch=1 n=a#3 v=0
48348 On ch=1 n=b3 v=0
48372 On ch=1 n=a#3 v=54
48492 On ch=1 n=a#4 v=60
48512 On ch=1 n=a#3 v=0
48596 On ch=1 n=a#4 v=0
48612 On ch=1 n=a#3 v=57
48636 On ch=1 n=f6 v=0
48640 On ch=1 n=a#5 v=0
48648 On ch=1 n=a#6 v=0
48728 On ch=1 n=a#3 v=0
48732 On ch=1 n=b3 v=58
48752 On ch=1 n=a#6 v=72
48752 On ch=1 n=f6 v=64
48756 On ch=1 n=a#5 v=67
48852 On ch=1 n=a#3 v=58
48864 On ch=1 n=b3 v=0
48908 Par ch=1 c=64 v=0
48968 On ch=1 n=a#3 v=0
48972 On ch=1 n=d#3 v=69
48988 Par ch=1 c=64 v=127
49092 On ch=1 n=a#3 v=61
49100 On ch=1 n=a#6 v=0
49104 On ch=1 n=a#5 v=0
49104 On ch=1 n=f6 v=0
49120 On ch=1 n=d#3 v=0
49208 On ch=1 n=a#6 v=74
49212 On ch=1 n=b3 v=59
49216 On ch=1 n=a#5 v=71
49220 On ch=1 n=g6 v=64
49228 On ch=1 n=a#3 v=0
49304 On ch=1 n=b3 v=0
49328 On ch=1 n=a#3 v=61
49452 On ch=1 n=a#4 v=63
49472 On ch=1 n=a#3 v=0
49548 On ch=1 n=g6 v=0
49552 On ch=1 n=a#5 v=0
49556 On ch=1 n=a#4 v=0
49572 On ch=1 n=a#3 v=64
49608 On ch=1 n=a#6 v=0
49688 On ch=1 n=b6 v=76
49688 On ch=1 n=g6 v=61
49692 On ch=1 n=b5 v=74
49692 On ch=1 n=b3 v=66
49736 On ch=1 n=a#3 v=0
49808 On ch=1 n=a#3 v=67
49812 On ch=1 n=b3 v=0
49840 Par ch=1 c=64 v=0
49928 On ch=1 n=e3 v=77
49936 On ch=1 n=a#3 v=0
49944 Par ch=1 c=64 v=127
50008 On ch=1 n=b5 v=0
50008 On ch=1 n=b6 v=0
50044 On ch=1 n=g6 v=0
50048 On ch=1 n=a#3 v=69
50076 On ch=1 n=e3 v=0
50168 On ch=1 n=a#6 v=55
50168 On ch=1 n=g6 v=58
50168 On ch=1 n=c6 v=78
50168 On ch=1 n=c7 v=80
50172 On ch=1 n=c4 v=67
50196 On ch=1 n=a#3 v=0
50268 On ch=1 n=c4 v=0
50288 On ch=1 n=a#3 v=68
50412 On ch=1 n=a#4 v=62
50420 On ch=1 n=g6 v=0
50424 On ch=1 n=a#3 v=0
50428 On ch=1 n=c7 v=0
50460 On ch=1 n=c6 v=0
50528 On ch=1 n=a#4 v=0
50528 On ch=1 n=a#6 v=0
50532 On ch=1 n=a#3 v=71
50644 On ch=1 n=c#7 v=79
50644 On ch=1 n=c#6 v=79
50644 On ch=1 n=a#6 v=62
50652 On ch=1 n=a#3 v=0
50652 On ch=1 n=c4 v=70
50732 Par ch=1 c=64 v=0
50768 On ch=1 n=c4 v=0
50768 On ch=1 n=a#3 v=73
50856 Par ch=1 c=64 v=127
50892 On ch=1 n=f3 v=80
50904 On ch=1 n=a#3 v=0
50928 On ch=1 n=a#6 v=0
50940 On ch=1 n=c#6 v=0
50940 On ch=1 n=c#7 v=0
51008 On ch=1 n=a#3 v=73
51028 On ch=1 n=f3 v=0
51128 On ch=1 n=a#3 v=0
51128 On ch=1 n=a#6 v=54
51128 On ch=1 n=d7 v=84
51128 On ch=1 n=d6 v=80
51132 On ch=1 n=a#4 v=65
51252 On ch=1 n=a#4 v=0
51252 On ch=1 n=a#3 v=72
51268 On ch=1 n=d7 v=0
51272 On ch=1 n=d6 v=0
51280 Par ch=1 c=64 v=0
51292 On ch=1 n=a#6 v=0
51368 On ch=1 n=a#3 v=0
51368 On ch=1 n=d#7 v=87
51368 On ch=1 n=d#6 v=84
51368 On ch=1 n=a#6 v=59
51372 On ch=1 n=f#3 v=83
51376 Par ch=1 c=64 v=127
51488 On ch=1 n=a#3 v=76
51492 On ch=1 n=f#3 v=0
51520 On ch=1 n=d#6 v=0
51520 On ch=1 n=d#7 v=0
51548 On ch=1 n=a#6 v=0
51604 On ch=1 n=a#6 v=63
51608 On ch=1 n=e6 v=83
51608 On ch=1 n=e7 v=91
51612 On ch=1 n=a#4 v=66
51632 On ch=1 n=a#3 v=0
51684 On ch=1 n=e6 v=0
51696 On ch=1 n=e7 v=0
51700 On ch=1 n=a#6 v=0
51708 Par ch=1 c=64 v=0
51732 On ch=1 n=a#3 v=78
51740 On ch=1 n=a#4 v=0
51840 On ch=1 n=a#3 v=0
51852 On ch=1 n=f6 v=86
51852 On ch=1 n=a#6 v=74
51852 On ch=1 n=d7 v=58
51856 On ch=1 n=f7 v=93
51856 Par ch=1 c=64 v=127
51868 On ch=1 n=f3 v=79
51976 On ch=1 n=a#3 v=63
51992 On ch=1 n=f3 v=0
52092 On ch=1 n=a#3 v=0
52096 On ch=1 n=d4 v=64
52196 On ch=1 n=d4 v=0
52216 On ch=1 n=f4 v=63
52316 On ch=1 n=f4 v=0
52340 On ch=1 n=a#4 v=63
52432 On ch=1 n=a#4 v=0
52448 On ch=1 n=d5 v=71
52464 On ch=1 n=f7 v=0
52464 On ch=1 n=d7 v=0
52468 On ch=1 n=a#6 v=0
52488 On ch=1 n=f6 v=0
52544 On ch=1 n=d5 v=0
52568 On ch=1 n=g5 v=67
52676 On ch=1 n=g5 v=0
52736 On ch=1 n=f5 v=67
52792 On ch=1 n=f5 v=0
52812 On ch=1 n=f6 v=72
52812 On ch=1 n=d7 v=93
52812 On ch=1 n=a#6 v=72
52812 On ch=1 n=d6 v=67
52820 On ch=1 n=f5 v=77
52936 On ch=1 n=d5 v=67
52940 On ch=1 n=f5 v=0
53044 On ch=1 n=d5 v=0
53052 On ch=1 n=a#4 v=67
53128 On ch=1 n=a#4 v=0
53160 On ch=1 n=g4 v=65
53176 On ch=1 n=f6 v=0
53180 On ch=1 n=a#6 v=0
53180 On ch=1 n=d7 v=0
53184 On ch=1 n=d6 v=0
53212 Par ch=1 c=64 v=0
53220 On ch=1 n=g4 v=0
53276 On ch=1 n=f4 v=74
53292 Par ch=1 c=64 v=127
53296 On ch=1 n=a6 v=74
53296 On ch=1 n=d#6 v=74
53296 On ch=1 n=d7 v=94
53300 On ch=1 n=f6 v=68
53408 On ch=1 n=d#4 v=62
53428 On ch=1 n=f4 v=0
53516 On ch=1 n=d#4 v=0
53524 On ch=1 n=c4 v=63
53624 On ch=1 n=c4 v=0
53624 On ch=1 n=a6 v=0
53648 On ch=1 n=c7 v=81
53652 On ch=1 n=f3 v=66
53684 On ch=1 n=d7 v=0
53700 On ch=1 n=f3 v=0
53708 On ch=1 n=d#6 v=0
53716 On ch=1 n=f6 v=0
53724 On ch=1 n=c7 v=0
53732 Par ch=1 c=64 v=0
53764 On ch=1 n=a#2 v=81
53776 On ch=1 n=a#6 v=95
53776 On ch=1 n=f6 v=73
53780 On ch=1 n=d6 v=71
53796 On ch=1 n=a#2 v=0
53824 Par ch=1 c=64 v=127
53884 On ch=1 n=c#4 v=73
54012 On ch=1 n=d6 v=0
54012 On ch=1 n=c4 v=71
54020 On ch=1 n=a#6 v=0
54032 On ch=1 n=f6 v=0
54052 On ch=1 n=c#4 v=0
54140 On ch=1 n=b3 v=69
54168 On ch=1 n=c4 v=0
54272 Par ch=1 c=64 v=0
54276 On ch=1 n=a#3 v=68
54284 On ch=1 n=b3 v=0
54380 On ch=1 n=c4 v=67
54388 On ch=1 n=a#3 v=0
54504 On ch=1 n=b3 v=66
54540 On ch=1 n=c4 v=0
54620 On ch=1 n=a#3 v=66
54652 On ch=1 n=b3 v=0
54756 On ch=1 n=a3 v=64
54784 On ch=1 n=a#3 v=0
54868 On ch=1 n=a3 v=0
54872 On ch=1 n=b3 v=60
54984 On ch=1 n=a#3 v=58
55028 On ch=1 n=b3 v=0
55100 On ch=1 n=a3 v=60
55148 On ch=1 n=a#3 v=0
55220 On ch=1 n=a3 v=0
55220 On ch=1 n=g#3 v=60
55340 On ch=1 n=a#3 v=61
55344 On ch=1 n=g#3 v=0
55456 On ch=1 n=a3 v=63
55484 On ch=1 n=a#3 v=0
55576 On ch=1 n=g#3 v=60
55600 On ch=1 n=a3 v=0
55656 On ch=1 n=g#3 v=0
55668 Par ch=1 c=64 v=127
55696 On ch=1 n=b6 v=95
55696 On ch=1 n=d#6 v=72
55700 On ch=1 n=g#6 v=73
55700 On ch=1 n=b5 v=86
55700 On ch=1 n=g#2 v=78
55828 On ch=1 n=g#2 v=0
55952 On ch=1 n=g3 v=69
56060 On ch=1 n=g#3 v=69
56092 On ch=1 n=g3 v=0
56188 On ch=1 n=b3 v=68
56204 On ch=1 n=g#3 v=0
56300 On ch=1 n=d#4 v=69
56308 On ch=1 n=b3 v=0
56384 Par ch=1 c=64 v=0
56412 On ch=1 n=a#3 v=70
56428 On ch=1 n=d#4 v=0
56532 On ch=1 n=b3 v=69
56584 On ch=1 n=a#3 v=0
56600 Par ch=1 c=64 v=127
56648 On ch=1 n=d#4 v=66
56656 On ch=1 n=b3 v=0
56680 On ch=1 n=b5 v=0
56680 On ch=1 n=g#6 v=0
56684 On ch=1 n=d#6 v=0
56684 On ch=1 n=b6 v=0
56764 On ch=1 n=g#4 v=69
56780 On ch=1 n=d#4 v=0
56880 On ch=1 n=g#4 v=0
56904 On ch=1 n=d4 v=66
56996 On ch=1 n=d#4 v=64
57032 On ch=1 n=d4 v=0
57124 On ch=1 n=g#4 v=60
57136 On ch=1 n=d#6 v=80
57136 On ch=1 n=b5 v=71
57140 On ch=1 n=d#4 v=0
57140 On ch=1 n=d#5 v=78
57144 On ch=1 n=g#5 v=68
57224 On ch=1 n=b4 v=60
57248 On ch=1 n=g#4 v=0
57340 On ch=1 n=g4 v=57
57364 On ch=1 n=d#5 v=0
57380 On ch=1 n=b4 v=0
57384 On ch=1 n=g#5 v=0
57384 On ch=1 n=b5 v=0
57384 On ch=1 n=d#6 v=0
57468 Par ch=1 c=64 v=0
57472 On ch=1 n=g#4 v=56
57476 On ch=1 n=f6 v=83
57476 On ch=1 n=f5 v=79
57488 On ch=1 n=g4 v=0
57508 On ch=1 n=g#4 v=0
57524 On ch=1 n=f5 v=0
57528 On ch=1 n=f6 v=0
57572 Par ch=1 c=64 v=127
57596 On ch=1 n=f#5 v=83
57596 On ch=1 n=d#3 v=64
57600 On ch=1 n=f#6 v=81
57604 On ch=1 n=d#6 v=76
57608 On ch=1 n=a#5 v=70
57636 On ch=1 n=d#3 v=0
57728 On ch=1 n=d#5 v=65
57840 On ch=1 n=f4 v=65
57848 On ch=1 n=d#5 v=0
57956 On ch=1 n=f#4 v=65
58000 On ch=1 n=f4 v=0
58088 On ch=1 n=a#4 v=66
58100 On ch=1 n=f#4 v=0
58208 On ch=1 n=a#4 v=0
58208 On ch=1 n=d#5 v=64
58308 On ch=1 n=d#5 v=0
58332 On ch=1 n=d4 v=63
58368 Par ch=1 c=64 v=0
58440 On ch=1 n=d#4 v=64
58484 On ch=1 n=d4 v=0
58572 Par ch=1 c=64 v=127
58580 On ch=1 n=f#4 v=64
58592 On ch=1 n=d#4 v=0
58696 On ch=1 n=a#4 v=64
58704 On ch=1 n=f#4 v=0
58812 On ch=1 n=a#4 v=0
58816 On ch=1 n=d#6 v=0
58816 On ch=1 n=a3 v=63
58820 On ch=1 n=a#5 v=0
58824 On ch=1 n=f#5 v=0
58828 On ch=1 n=f#6 v=0
58924 On ch=1 n=a#3 v=61
58980 On ch=1 n=a3 v=0
59048 On ch=1 n=f#6 v=83
59052 On ch=1 n=f#5 v=83
59060 On ch=1 n=d#4 v=62
59076 On ch=1 n=a#3 v=0
59148 Par ch=1 c=64 v=0
59184 On ch=1 n=d#4 v=0
59184 On ch=1 n=f#4 v=64
59280 On ch=1 n=f3 v=67
59296 On ch=1 n=f#4 v=0
59348 On ch=1 n=f#5 v=0
59396 On ch=1 n=f#3 v=71
59404 On ch=1 n=f3 v=0
59408 On ch=1 n=g#6 v=83
59408 On ch=1 n=g#5 v=72
59456 On ch=1 n=f#6 v=0
59464 On ch=1 n=g#5 v=0
59468 On ch=1 n=g#6 v=0
59492 On ch=1 n=f#3 v=0
59512 Par ch=1 c=64 v=127
59516 On ch=1 n=f#6 v=74
59520 On ch=1 n=c#6 v=60
59524 On ch=1 n=a5 v=90
59524 On ch=1 n=a6 v=92
59532 On ch=1 n=f#2 v=79
59624 On ch=1 n=f#2 v=0
59764 On ch=1 n=f3 v=77
59888 On ch=1 n=f#3 v=78
59916 On ch=1 n=f3 v=0
60012 On ch=1 n=a3 v=81
60024 On ch=1 n=f#3 v=0
60120 Par ch=1 c=64 v=0
60128 On ch=1 n=c#4 v=79
60152 On ch=1 n=a3 v=0
60248 On ch=1 n=g#3 v=81
60268 On ch=1 n=c#4 v=0
60376 On ch=1 n=a3 v=77
60412 On ch=1 n=g#3 v=0
60456 Par ch=1 c=64 v=127
60484 On ch=1 n=a5 v=0
60484 On ch=1 n=c#6 v=0
60484 On ch=1 n=f#6 v=0
60488 On ch=1 n=a6 v=0
60492 On ch=1 n=c#4 v=77
60496 On ch=1 n=a3 v=0
60616 On ch=1 n=f#4 v=78
60628 On ch=1 n=c#4 v=0
60736 On ch=1 n=f#4 v=0
60740 On ch=1 n=c4 v=79
60840 On ch=1 n=c#4 v=75
60904 On ch=1 n=c4 v=0
60964 On ch=1 n=c#6 v=94
60968 On ch=1 n=c#5 v=87
60968 On ch=1 n=f#5 v=66
60972 On ch=1 n=a5 v=73
60972 On ch=1 n=f#4 v=72
60988 On ch=1 n=c#4 v=0
61036 Par ch=1 c=64 v=0
61076 On ch=1 n=a4 v=72
61100 On ch=1 n=f#4 v=0
61208 On ch=1 n=f4 v=68
61236 On ch=1 n=c#5 v=0
61252 On ch=1 n=a4 v=0
61272 On ch=1 n=f#5 v=0
61276 On ch=1 n=a5 v=0
61284 On ch=1 n=c#6 v=0
61316 On ch=1 n=d#5 v=62
61316 On ch=1 n=d#6 v=87
61328 On ch=1 n=f#4 v=66
61356 On ch=1 n=f4 v=0
61380 On ch=1 n=f#4 v=0
61388 On ch=1 n=d#6 v=0
61388 On ch=1 n=d#5 v=0
61436 On ch=1 n=e6 v=83
61436 Par ch=1 c=64 v=127
61440 On ch=1 n=c#6 v=74
61448 On ch=1 n=g#5 v=69
61448 On ch=1 n=c#3 v=79
61452 On ch=1 n=e5 v=65
61488 On ch=1 n=c#3 v=0
61564 On ch=1 n=c#5 v=71
61684 On ch=1 n=d#4 v=72
61708 On ch=1 n=c#5 v=0
61812 On ch=1 n=e4 v=71
61868 On ch=1 n=d#4 v=0
61940 On ch=1 n=g#4 v=72
61952 On ch=1 n=e4 v=0
62044 Par ch=1 c=64 v=0
62060 On ch=1 n=c#5 v=74
62072 On ch=1 n=g#4 v=0
62184 On ch=1 n=c#5 v=0
62188 On ch=1 n=c4 v=71
62288 On ch=1 n=c#4 v=71
62368 On ch=1 n=c4 v=0
62392 Par ch=1 c=64 v=127
62424 On ch=1 n=e4 v=70
62448 On ch=1 n=c#4 v=0
62544 On ch=1 n=g#4 v=68
62548 On ch=1 n=e4 v=0
62672 On ch=1 n=g#4 v=0
62680 On ch=1 n=g3 v=72
62684 On ch=1 n=e5 v=0
62684 On ch=1 n=g#5 v=0
62684 On ch=1 n=e6 v=0
62688 On ch=1 n=c#6 v=0
62776 On ch=1 n=g#3 v=71
62828 On ch=1 n=g3 v=0
62884 On ch=1 n=e5 v=83
62888 On ch=1 n=e6 v=84
62892 On ch=1 n=c#4 v=73
62928 On ch=1 n=g#3 v=0
62980 Par ch=1 c=64 v=0
63016 On ch=1 n=c#4 v=0
63016 On ch=1 n=e4 v=72
63104 On ch=1 n=e4 v=0
63124 On ch=1 n=e6 v=0
63128 On ch=1 n=e5 v=0
63132 On ch=1 n=d#3 v=72
63232 On ch=1 n=f#5 v=73
63236 On ch=1 n=f#6 v=87
63256 On ch=1 n=e3 v=75
63268 On ch=1 n=d#3 v=0
63280 On ch=1 n=f#5 v=0
63296 On ch=1 n=f#6 v=0
63356 On ch=1 n=g#6 v=89
63356 On ch=1 n=g#5 v=89
63360 On ch=1 n=d#6 v=75
63364 Par ch=1 c=64 v=127
63368 On ch=1 n=f#6 v=41
63368 On ch=1 n=c3 v=77
63392 On ch=1 n=e3 v=0
63408 On ch=1 n=c3 v=0
63496 On ch=1 n=d#5 v=66
63608 On ch=1 n=d#5 v=0
63608 On ch=1 n=g4 v=68
63728 On ch=1 n=g#4 v=71
63744 On ch=1 n=g4 v=0
63836 On ch=1 n=g#4 v=0
63848 On ch=1 n=a4 v=69
63972 On ch=1 n=g#4 v=70
63988 On ch=1 n=a4 v=0
64084 On ch=1 n=g#4 v=0
64088 On ch=1 n=f#4 v=72
64200 On ch=1 n=f#4 v=0
64212 On ch=1 n=e4 v=67
64284 On ch=1 n=d#6 v=0
64288 On ch=1 n=f#6 v=0
64292 On ch=1 n=g#5 v=0
64292 On ch=1 n=g#6 v=0
64324 Par ch=1 c=64 v=0
64328 On ch=1 n=d#4 v=66
64368 On ch=1 n=e4 v=0
64456 On ch=1 n=d#4 v=0
64460 On ch=1 n=c#4 v=70
64572 On ch=1 n=c#4 v=0
64588 On ch=1 n=c4 v=73
64704 On ch=1 n=a3 v=73
64724 On ch=1 n=c4 v=0
64812 On ch=1 n=g3 v=73
64816 On ch=1 n=g#6 v=88
64820 On ch=1 n=g#5 v=76
64824 On ch=1 n=a3 v=0
64824 On ch=1 n=f#6 v=66
64824 On ch=1 n=d#6 v=75
64944 On ch=1 n=g3 v=0
64960 On ch=1 n=g#3 v=75
65072 On ch=1 n=d#3 v=77
65088 On ch=1 n=g#3 v=0
65100 On ch=1 n=g#5 v=0
65124 On ch=1 n=d#6 v=0
65128 On ch=1 n=g#6 v=0
65132 On ch=1 n=f#6 v=0
65180 On ch=1 n=d#3 v=0
65180 On ch=1 n=a#5 v=67
65184 On ch=1 n=a#6 v=83
65188 On ch=1 n=g#3 v=81
65256 On ch=1 n=a#6 v=0
65256 On ch=1 n=a#5 v=0
65276 Par ch=1 c=64 v=127
65288 On ch=1 n=b5 v=73
65288 On ch=1 n=b6 v=85
65292 On ch=1 n=f6 v=72
65292 On ch=1 n=d3 v=84
65296 On ch=1 n=g#6 v=77
65300 On ch=1 n=g#3 v=0
65328 On ch=1 n=d3 v=0
65420 On ch=1 n=f5 v=73
65524 On ch=1 n=f5 v=0
65528 On ch=1 n=a4 v=75
65596 On ch=1 n=b5 v=0
65620 On ch=1 n=f6 v=0
65628 On ch=1 n=g#6 v=0
65652 On ch=1 n=a#4 v=76
65660 On ch=1 n=a4 v=0
65668 On ch=1 n=b6 v=0
65712 Par ch=1 c=64 v=0
65764 On ch=1 n=a#4 v=0
65772 On ch=1 n=b4 v=76
65776 On ch=1 n=a#6 v=84
65780 On ch=1 n=g#6 v=71
65784 On ch=1 n=a#5 v=72
65784 On ch=1 n=f6 v=64
65800 Par ch=1 c=64 v=127
65884 On ch=1 n=a#4 v=76
65888 On ch=1 n=b4 v=0
66004 On ch=1 n=g#4 v=77
66012 On ch=1 n=a#4 v=0
66120 On ch=1 n=f#4 v=79
66128 On ch=1 n=g#4 v=0
66232 On ch=1 n=f#4 v=0
66244 On ch=1 n=f4 v=81
66304 Par ch=1 c=64 v=0
66352 On ch=1 n=d#4 v=83
66396 On ch=1 n=f4 v=0
66400 On ch=1 n=f6 v=0
66400 On ch=1 n=a#5 v=0
66400 On ch=1 n=a#6 v=0
66412 On ch=1 n=g#6 v=0
66460 On ch=1 n=d#4 v=0
66484 On ch=1 n=c#4 v=83
66600 On ch=1 n=c#4 v=0
66604 On ch=1 n=b3 v=82
66720 On ch=1 n=a#5 v=82
66724 On ch=1 n=a#6 v=84
66724 On ch=1 n=g#6 v=74
66728 On ch=1 n=f6 v=65
66728 On ch=1 n=a3 v=83
66772 On ch=1 n=b3 v=0
66852 On ch=1 n=a#3 v=84
66860 On ch=1 n=a3 v=0
66964 On ch=1 n=f3 v=86
66976 On ch=1 n=a#3 v=0
66996 On ch=1 n=a#5 v=0
67028 On ch=1 n=f6 v=0
67072 On ch=1 n=c6 v=81
67080 On ch=1 n=f3 v=0
67080 On ch=1 n=c7 v=85
67088 On ch=1 n=g#6 v=0
67088 On ch=1 n=a#3 v=88
67096 On ch=1 n=a#6 v=0
67124 On ch=1 n=c6 v=0
67188 Par ch=1 c=64 v=127
67204 On ch=1 n=c#7 v=88
67208 On ch=1 n=c#6 v=86
67208 On ch=1 n=e3 v=91
67212 On ch=1 n=g6 v=73
67220 On ch=1 n=a#3 v=0
67220 On ch=1 n=c7 v=0
67220 On ch=1 n=a#6 v=66
67248 On ch=1 n=e3 v=0
67336 On ch=1 n=g5 v=81
67456 On ch=1 n=g5 v=0
67460 On ch=1 n=b4 v=82
67576 On ch=1 n=c5 v=83
67584 On ch=1 n=c#7 v=0
67588 On ch=1 n=b4 v=0
67588 On ch=1 n=g6 v=0
67600 Par ch=1 c=64 v=0
67628 On ch=1 n=c#6 v=0
67636 On ch=1 n=a#6 v=0
67692 On ch=1 n=a#6 v=58
67692 On ch=1 n=g6 v=80
67696 On ch=1 n=c6 v=85
67700 On ch=1 n=c7 v=87
67704 On ch=1 n=c5 v=0
67704 On ch=1 n=c#5 v=83
67728 Par ch=1 c=64 v=127
67816 On ch=1 n=c#5 v=0
67820 On ch=1 n=c5 v=83
67936 On ch=1 n=a#4 v=83
67952 On ch=1 n=c5 v=0
68048 On ch=1 n=g#4 v=84
68052 On ch=1 n=a#4 v=0
68108 On ch=1 n=g6 v=0
68116 On ch=1 n=c6 v=0
68116 On ch=1 n=a#6 v=0
68124 On ch=1 n=c7 v=0
68164 On ch=1 n=g#4 v=0
68176 On ch=1 n=g4 v=81
68304 On ch=1 n=f4 v=78
68380 On ch=1 n=g4 v=0
68428 On ch=1 n=e4 v=77
68448 On ch=1 n=f4 v=0
68548 On ch=1 n=g4 v=78
68552 On ch=1 n=e4 v=0
68672 On ch=1 n=f4 v=76
68696 On ch=1 n=g4 v=0
68784 On ch=1 n=e4 v=76
68788 On ch=1 n=f4 v=0
68912 On ch=1 n=c#4 v=73
68916 On ch=1 n=e4 v=0
68996 Par ch=1 c=64 v=0
69020 On ch=1 n=c#4 v=0
69024 On ch=1 n=c4 v=72
69148 On ch=1 n=b3 v=65
69168 On ch=1 n=c4 v=0
69168 Par ch=1 c=64 v=127
69276 On ch=1 n=c4 v=67
69284 On ch=1 n=b3 v=0
69404 On ch=1 n=c#4 v=70
69416 On ch=1 n=c4 v=0
69512 On ch=1 n=c#4 v=0
69512 On ch=1 n=c4 v=71
69628 On ch=1 n=a#3 v=72
69648 On ch=1 n=c4 v=0
69664 Par ch=1 c=64 v=0
69740 On ch=1 n=g#3 v=74
69760 On ch=1 n=a#3 v=0
69856 On ch=1 n=g#3 v=0
69864 On ch=1 n=g3 v=79
69976 On ch=1 n=f3 v=79
70004 On ch=1 n=g3 v=0
70096 On ch=1 n=e3 v=80
70104 On ch=1 n=f3 v=0
70216 On ch=1 n=c#3 v=83
70220 On ch=1 n=e3 v=0
70332 On ch=1 n=c#3 v=0
70344 On ch=1 n=c3 v=83
70468 On ch=1 n=b2 v=85
70484 On ch=1 n=c3 v=0
70592 On ch=1 n=c3 v=88
70596 On ch=1 n=b2 v=0
70720 On ch=1 n=a#2 v=89
70748 On ch=1 n=c3 v=0
70820 On ch=1 n=g#2 v=89
70848 On ch=1 n=a#2 v=0
70936 On ch=1 n=g2 v=90
70960 On ch=1 n=g#2 v=0
71052 On ch=1 n=f2 v=94
71056 On ch=1 n=g2 v=0
71056 On ch=1 n=g#7 v=98
71064 On ch=1 n=c7 v=81
71064 On ch=1 n=f7 v=84
71068 On ch=1 n=g#6 v=98
71100 Par ch=1 c=64 v=127
71172 On ch=1 n=c3 v=74
71188 On ch=1 n=f2 v=0
71292 On ch=1 n=c3 v=0
71304 On ch=1 n=f3 v=70
71412 On ch=1 n=g3 v=70
71424 On ch=1 n=f3 v=0
71524 On ch=1 n=g#3 v=68
71540 On ch=1 n=g3 v=0
71636 On ch=1 n=g#3 v=0
71648 On ch=1 n=c4 v=69
71752 On ch=1 n=c4 v=0
71764 On ch=1 n=f4 v=68
71772 On ch=1 n=g#7 v=0
71776 On ch=1 n=f7 v=0
71776 On ch=1 n=c7 v=0
71788 On ch=1 n=g#6 v=0
71884 On ch=1 n=g4 v=70
71896 On ch=1 n=f4 v=0
71988 On ch=1 n=g#4 v=74
72008 On ch=1 n=g4 v=0
72008 On ch=1 n=c7 v=82
72012 On ch=1 n=f7 v=93
72012 On ch=1 n=f6 v=90
72108 On ch=1 n=g#4 v=0
72112 On ch=1 n=c5 v=71
72224 On ch=1 n=c5 v=0
72240 On ch=1 n=f5 v=73
72276 On ch=1 n=f7 v=0
72284 On ch=1 n=c7 v=0
72296 On ch=1 n=f6 v=0
72360 On ch=1 n=g5 v=74
72380 On ch=1 n=f5 v=0
72476 On ch=1 n=f6 v=81
72480 On ch=1 n=c7 v=98
72480 On ch=1 n=c6 v=92
72480 On ch=1 n=g#5 v=84
72484 On ch=1 n=g5 v=0
72600 On ch=1 n=g5 v=75
72604 On ch=1 n=g#5 v=0
72716 On ch=1 n=g5 v=0
72724 On ch=1 n=f5 v=74
72736 On ch=1 n=f6 v=0
72740 On ch=1 n=c6 v=0
72744 On ch=1 n=c7 v=0
72840 On ch=1 n=c5 v=76
72860 Par ch=1 c=64 v=0
72868 On ch=1 n=f5 v=0
72956 On ch=1 n=c#5 v=88
72960 On ch=1 n=c5 v=0
72964 On ch=1 n=a#5 v=95
72964 On ch=1 n=a#6 v=97
72972 On ch=1 n=f6 v=82
73020 Par ch=1 c=64 v=127
73076 On ch=1 n=c#5 v=0
73080 On ch=1 n=f5 v=82
73204 On ch=1 n=c#5 v=81
73228 On ch=1 n=f5 v=0
73328 On ch=1 n=g#4 v=78
73340 On ch=1 n=c#5 v=0
73396 On ch=1 n=g#4 v=0
73440 On ch=1 n=f4 v=73
73568 On ch=1 n=c#4 v=72
73628 On ch=1 n=f4 v=0
73684 On ch=1 n=g#3 v=69
73708 On ch=1 n=c#4 v=0
73792 On ch=1 n=g#3 v=0
73812 On ch=1 n=a#5 v=0
73812 On ch=1 n=f3 v=66
73900 On ch=1 n=f3 v=0
73924 On ch=1 n=g#5 v=92
73928 On ch=1 n=g#6 v=96
73932 On ch=1 n=c#3 v=66
73964 On ch=1 n=a#6 v=0
74060 On ch=1 n=g#2 v=70
74076 On ch=1 n=c#3 v=0
74188 On ch=1 n=c#3 v=72
74216 On ch=1 n=g#2 v=0
74300 On ch=1 n=c#3 v=0
74304 On ch=1 n=f3 v=76
74312 On ch=1 n=g#6 v=0
74312 On ch=1 n=g#5 v=0
74332 On ch=1 n=f6 v=0
74424 On ch=1 n=c#3 v=76
74440 On ch=1 n=f3 v=0
74476 Par ch=1 c=64 v=0
74536 On ch=1 n=g#2 v=80
74544 On ch=1 n=c#3 v=0
74660 On ch=1 n=c#3 v=82
74688 On ch=1 n=g#2 v=0
74776 On ch=1 n=f3 v=83
74780 On ch=1 n=c#3 v=0
74880 On ch=1 n=f7 v=84
74884 On ch=1 n=f3 v=0
74884 On ch=1 n=c7 v=81
74888 On ch=1 n=g#6 v=94
74888 On ch=1 n=g#7 v=98
74896 On ch=1 n=f2 v=90
74948 Par ch=1 c=64 v=127
75020 On ch=1 n=c3 v=78
75036 On ch=1 n=f2 v=0
75132 On ch=1 n=c3 v=0
75140 On ch=1 n=f3 v=78
75252 On ch=1 n=g3 v=80
75260 On ch=1 n=f3 v=0
75368 On ch=1 n=g#3 v=80
75384 On ch=1 n=g3 v=0
75468 On ch=1 n=f7 v=0
75472 On ch=1 n=c7 v=0
75488 On ch=1 n=g#7 v=0
75488 On ch=1 n=c4 v=82
75492 On ch=1 n=g#3 v=0
75512 On ch=1 n=g#6 v=0
75596 On ch=1 n=c4 v=0
75600 On ch=1 n=f4 v=77
75720 On ch=1 n=g4 v=78
75732 On ch=1 n=f4 v=0
75836 On ch=1 n=g#4 v=77
75844 On ch=1 n=c7 v=81
75848 On ch=1 n=g4 v=0
75848 On ch=1 n=f7 v=99
75852 On ch=1 n=f6 v=88
75948 On ch=1 n=g#4 v=0
75948 On ch=1 n=c5 v=76
76064 On ch=1 n=c5 v=0
76076 On ch=1 n=f5 v=78
76084 On ch=1 n=f7 v=0
76104 On ch=1 n=f6 v=0
76108 On ch=1 n=c7 v=0
76196 On ch=1 n=g5 v=81
76224 On ch=1 n=f5 v=0
76304 On ch=1 n=c7 v=96
76308 On ch=1 n=f6 v=81
76308 On ch=1 n=c6 v=95
76320 On ch=1 n=g#5 v=89
76332 On ch=1 n=g5 v=0
76428 On ch=1 n=g5 v=80
76444 On ch=1 n=g#5 v=0
76548 On ch=1 n=g5 v=0
76560 On ch=1 n=f5 v=78
76640 On ch=1 n=c7 v=0
76648 On ch=1 n=c6 v=0
76648 On ch=1 n=f6 v=0
76660 On ch=1 n=c5 v=77
76668 Par ch=1 c=64 v=0
76692 On ch=1 n=f5 v=0
76784 On ch=1 n=c7 v=95
76788 On ch=1 n=f6 v=84
76788 On ch=1 n=c6 v=95
76796 On ch=1 n=d5 v=87
76808 On ch=1 n=c5 v=0
76840 Par ch=1 c=64 v=127
76912 On ch=1 n=d5 v=0
76916 On ch=1 n=f5 v=80
77040 On ch=1 n=d5 v=78
77052 On ch=1 n=f5 v=0
77156 On ch=1 n=d5 v=0
77176 On ch=1 n=c5 v=77
77276 On ch=1 n=c5 v=0
77292 On ch=1 n=g#4 v=75
77376 On ch=1 n=g#4 v=0
77400 On ch=1 n=f4 v=73
77528 On ch=1 n=d4 v=69
77544 On ch=1 n=f4 v=0
77644 On ch=1 n=c4 v=66
77660 On ch=1 n=d4 v=0
77696 Par ch=1 c=64 v=0
77764 On ch=1 n=c4 v=0
77772 On ch=1 n=g#3 v=64
77848 On ch=1 n=g#3 v=0
77888 On ch=1 n=f3 v=66
78016 On ch=1 n=d3 v=69
78048 On ch=1 n=f3 v=0
78116 On ch=1 n=c3 v=71
78124 On ch=1 n=d3 v=0
78152 On ch=1 n=c6 v=0
78172 On ch=1 n=f6 v=0
78184 On ch=1 n=c7 v=0
78184 Par ch=1 c=64 v=127
78220 On ch=1 n=c3 v=0
78252 On ch=1 n=b5 v=94
78256 On ch=1 n=f6 v=74
78256 On ch=1 n=g#2 v=73
78260 On ch=1 n=b6 v=92
78360 On ch=1 n=c3 v=76
78452 On ch=1 n=g#2 v=0
78476 On ch=1 n=d3 v=79
78500 On ch=1 n=c3 v=0
78512 On ch=1 n=b5 v=0
78560 On ch=1 n=f6 v=0
78564 On ch=1 n=b6 v=0
78588 On ch=1 n=c7 v=91
78592 On ch=1 n=c6 v=88
78600 On ch=1 n=f3 v=83
78628 On ch=1 n=d3 v=0
78656 Par ch=1 c=64 v=0
78664 On ch=1 n=c6 v=0
78668 On ch=1 n=c7 v=0
78692 On ch=1 n=f3 v=0
78712 On ch=1 n=f6 v=75
78716 On ch=1 n=b6 v=77
78716 On ch=1 n=d6 v=92
78720 On ch=1 n=d7 v=97
78724 On ch=1 n=g2 v=89
78728 On ch=1 n=g3 v=89
78744 Par ch=1 c=64 v=127
78812 On ch=1 n=g3 v=0
78816 On ch=1 n=g2 v=0
78964 On ch=1 n=g#5 v=75
79072 On ch=1 n=g#5 v=0
79080 On ch=1 n=g5 v=75
79192 On ch=1 n=f5 v=82
79208 On ch=1 n=g5 v=0
79312 On ch=1 n=d5 v=70
79316 On ch=1 n=f5 v=0
79432 On ch=1 n=d#5 v=70
79448 On ch=1 n=d5 v=0
79544 On ch=1 n=d#5 v=0
79556 On ch=1 n=d5 v=69
79576 On ch=1 n=d6 v=0
79576 On ch=1 n=b6 v=0
79576 On ch=1 n=f6 v=0
79588 On ch=1 n=d7 v=0
79668 On ch=1 n=b4 v=79
79676 On ch=1 n=d5 v=0
79792 On ch=1 n=g4 v=74
79808 On ch=1 n=b4 v=0
79920 On ch=1 n=g#4 v=73
79936 On ch=1 n=g4 v=0
80036 On ch=1 n=g#4 v=0
80036 On ch=1 n=g4 v=73
80148 On ch=1 n=f4 v=81
80180 On ch=1 n=g4 v=0
80264 On ch=1 n=d4 v=76
80268 On ch=1 n=f4 v=0
80388 On ch=1 n=d#4 v=75
80396 On ch=1 n=d4 v=0
80504 On ch=1 n=d#4 v=0
80516 On ch=1 n=d4 v=76
80604 Par ch=1 c=64 v=0
80624 On ch=1 n=b3 v=83
80640 On ch=1 n=d4 v=0
80736 On ch=1 n=b3 v=0
80740 On ch=1 n=g3 v=73
80868 On ch=1 n=g#3 v=75
80880 On ch=1 n=g3 v=0
80980 On ch=1 n=g#3 v=0
80992 On ch=1 n=g3 v=74
81100 On ch=1 n=f3 v=82
81132 On ch=1 n=g3 v=0
81224 On ch=1 n=d3 v=75
81228 On ch=1 n=f3 v=0
81352 On ch=1 n=d#3 v=76
81356 On ch=1 n=d3 v=0
81464 On ch=1 n=d#3 v=0
81476 On ch=1 n=d3 v=77
81600 On ch=1 n=c3 v=82
81640 On ch=1 n=d3 v=0
81728 On ch=1 n=c3 v=0
81732 On ch=1 n=g2 v=78
81856 On ch=1 n=c3 v=76
81880 On ch=1 n=g2 v=0
81972 On ch=1 n=g2 v=80
81980 On ch=1 n=c3 v=0
82068 Par ch=1 c=64 v=127
82080 On ch=1 n=d#6 v=77
82084 On ch=1 n=g#6 v=96
82088 On ch=1 n=f6 v=70
82092 On ch=1 n=g#5 v=93
82100 On ch=1 n=c3 v=77
82116 On ch=1 n=g2 v=0
82212 On ch=1 n=g2 v=77
82216 On ch=1 n=c3 v=0
82252 On ch=1 n=d#6 v=0
82256 On ch=1 n=f6 v=0
82256 On ch=1 n=g#6 v=0
82264 On ch=1 n=g#5 v=0
82344 On ch=1 n=c3 v=78
82360 On ch=1 n=g2 v=0
82408 On ch=1 n=g5 v=70
82412 On ch=1 n=g6 v=91
82448 On ch=1 n=g2 v=82
82452 On ch=1 n=c3 v=0
82456 On ch=1 n=g5 v=0
82472 On ch=1 n=g6 v=0
82512 Par ch=1 c=64 v=0
82588 On ch=1 n=f6 v=96
82588 On ch=1 n=g6 v=69
82588 On ch=1 n=d7 v=85
82588 On ch=1 n=f7 v=101
82604 On ch=1 n=b2 v=92
82624 On ch=1 n=g2 v=0
82624 Par ch=1 c=64 v=127
82724 On ch=1 n=b2 v=0
82844 On ch=1 n=g#5 v=70
82948 On ch=1 n=g#5 v=0
82956 On ch=1 n=g5 v=72
83064 On ch=1 n=f5 v=79
83088 On ch=1 n=g5 v=0
83188 On ch=1 n=d5 v=68
83196 On ch=1 n=f5 v=0
83304 On ch=1 n=d#5 v=68
83316 On ch=1 n=d5 v=0
83416 On ch=1 n=d#5 v=0
83416 On ch=1 n=d7 v=0
83420 On ch=1 n=d5 v=70
83424 On ch=1 n=g6 v=0
83448 On ch=1 n=f7 v=0
83448 On ch=1 n=f6 v=0
83544 On ch=1 n=b4 v=78
83560 On ch=1 n=d5 v=0
83664 On ch=1 n=g4 v=73
83676 On ch=1 n=b4 v=0
83780 On ch=1 n=g#4 v=74
83788 On ch=1 n=g4 v=0
83888 On ch=1 n=g#4 v=0
83900 On ch=1 n=g4 v=72
84008 On ch=1 n=f4 v=80
84044 On ch=1 n=g4 v=0
84140 On ch=1 n=f4 v=0
84140 On ch=1 n=d4 v=72
84260 On ch=1 n=d#4 v=73
84280 On ch=1 n=d4 v=0
84372 On ch=1 n=d#4 v=0
84380 On ch=1 n=d4 v=73
84480 Par ch=1 c=64 v=0
84492 On ch=1 n=b3 v=77
84516 On ch=1 n=d4 v=0
84600 On ch=1 n=g3 v=71
84608 On ch=1 n=b3 v=0
84716 On ch=1 n=g#3 v=71
84732 On ch=1 n=g3 v=0
84828 On ch=1 n=g#3 v=0
84840 On ch=1 n=g3 v=71
84952 On ch=1 n=f3 v=77
84988 On ch=1 n=g3 v=0
85064 On ch=1 n=d3 v=71
85080 On ch=1 n=f3 v=0
85196 On ch=1 n=d#3 v=68
85216 On ch=1 n=d3 v=0
85312 On ch=1 n=d#3 v=0
85324 On ch=1 n=d3 v=70
85436 On ch=1 n=c3 v=79
85472 On ch=1 n=d3 v=0
85552 On ch=1 n=g2 v=74
85568 On ch=1 n=c3 v=0
85684 On ch=1 n=c3 v=76
85700 On ch=1 n=g2 v=0
85800 On ch=1 n=g2 v=77
85808 On ch=1 n=c3 v=0
85912 Par ch=1 c=64 v=127
85924 On ch=1 n=c3 v=72
85932 On ch=1 n=d#6 v=58
85936 On ch=1 n=g#6 v=95
85940 On ch=1 n=g2 v=0
85940 On ch=1 n=f6 v=79
85944 On ch=1 n=g#5 v=94
86044 On ch=1 n=g2 v=72
86052 On ch=1 n=c3 v=0
86120 On ch=1 n=d#6 v=0
86128 On ch=1 n=g#5 v=0
86132 On ch=1 n=g#6 v=0
86136 On ch=1 n=f6 v=0
86176 On ch=1 n=c3 v=70
86188 On ch=1 n=g2 v=0
86256 On ch=1 n=g5 v=88
86260 On ch=1 n=g6 v=90
86284 On ch=1 n=g2 v=81
86292 On ch=1 n=c3 v=0
86304 On ch=1 n=g5 v=0
86316 On ch=1 n=g6 v=0
86376 Par ch=1 c=64 v=0
86420 On ch=1 n=g7 v=103
86424 On ch=1 n=d7 v=79
86424 On ch=1 n=f6 v=74
86424 On ch=1 n=g6 v=82
86424 On ch=1 n=b2 v=85
86464 On ch=1 n=g2 v=0
86512 Par ch=1 c=64 v=127
86564 On ch=1 n=b2 v=0
86584 On ch=1 n=g6 v=0
86584 On ch=1 n=g7 v=0
86596 On ch=1 n=f6 v=0
86600 On ch=1 n=d7 v=0
86668 On ch=1 n=g#6 v=85
86684 On ch=1 n=g#7 v=79
86768 On ch=1 n=g#6 v=0
86780 On ch=1 n=g6 v=78
86784 On ch=1 n=g7 v=80
86816 On ch=1 n=g#7 v=0
86888 On ch=1 n=f6 v=85
86904 On ch=1 n=g6 v=0
86912 On ch=1 n=f7 v=85
86924 On ch=1 n=g7 v=0
87012 On ch=1 n=d6 v=78
87024 On ch=1 n=f7 v=0
87024 On ch=1 n=f6 v=0
87032 On ch=1 n=d7 v=82
87140 On ch=1 n=d#6 v=76
87152 On ch=1 n=d6 v=0
87156 On ch=1 n=d#7 v=81
87180 On ch=1 n=d7 v=0
87256 On ch=1 n=d#6 v=0
87256 On ch=1 n=d7 v=79
87264 On ch=1 n=d6 v=76
87284 On ch=1 n=d#7 v=0
87368 On ch=1 n=b5 v=86
87384 On ch=1 n=b6 v=84
87388 On ch=1 n=d6 v=0
87392 On ch=1 n=d7 v=0
87480 On ch=1 n=g5 v=76
87488 On ch=1 n=b6 v=0
87492 On ch=1 n=b5 v=0
87500 On ch=1 n=g6 v=75
87604 On ch=1 n=g#5 v=78
87616 On ch=1 n=g5 v=0
87620 On ch=1 n=g#6 v=78
87644 On ch=1 n=g6 v=0
87712 On ch=1 n=g#5 v=0
87724 On ch=1 n=g5 v=79
87736 On ch=1 n=g6 v=80
87760 On ch=1 n=g#6 v=0
87832 On ch=1 n=f5 v=84
87856 On ch=1 n=g5 v=0
87868 On ch=1 n=f6 v=85
87872 On ch=1 n=g6 v=0
87952 On ch=1 n=d5 v=77
87964 On ch=1 n=f5 v=0
87968 On ch=1 n=f6 v=0
87976 On ch=1 n=d6 v=81
88076 On ch=1 n=d#5 v=78
88092 On ch=1 n=d5 v=0
88092 On ch=1 n=d#6 v=81
88116 On ch=1 n=d6 v=0
88180 On ch=1 n=d#5 v=0
88196 On ch=1 n=d6 v=80
88196 On ch=1 n=d5 v=75
88224 On ch=1 n=d#6 v=0
88312 On ch=1 n=b4 v=86
88332 On ch=1 n=d5 v=0
88336 On ch=1 n=b5 v=86
88340 On ch=1 n=d6 v=0
88428 On ch=1 n=g4 v=79
88432 On ch=1 n=b4 v=0
88436 On ch=1 n=b5 v=0
88444 On ch=1 n=g5 v=77
88556 On ch=1 n=g#4 v=77
88568 On ch=1 n=g4 v=0
88568 On ch=1 n=g#5 v=78
88592 On ch=1 n=g5 v=0
88664 On ch=1 n=g#4 v=0
88676 On ch=1 n=g5 v=78
88680 On ch=1 n=g4 v=75
88700 On ch=1 n=g#5 v=0
88796 On ch=1 n=f4 v=86
88820 On ch=1 n=g4 v=0
88820 On ch=1 n=f5 v=84
88828 On ch=1 n=g5 v=0
88908 On ch=1 n=d4 v=80
88912 On ch=1 n=f4 v=0
88928 On ch=1 n=f5 v=0
88936 On ch=1 n=d5 v=78
89036 On ch=1 n=d#4 v=79
89040 On ch=1 n=d4 v=0
89060 On ch=1 n=d#5 v=77
89084 On ch=1 n=d5 v=0
89136 On ch=1 n=d#4 v=0
89152 On ch=1 n=d4 v=79
89164 On ch=1 n=d5 v=78
89196 On ch=1 n=d#5 v=0
89272 Par ch=1 c=64 v=0
89276 On ch=1 n=b3 v=86
89288 On ch=1 n=d4 v=0
89300 On ch=1 n=b4 v=84
89312 On ch=1 n=d5 v=0
89396 On ch=1 n=g3 v=78
89404 On ch=1 n=b3 v=0
89412 On ch=1 n=b4 v=0
89416 On ch=1 n=g4 v=78
89524 On ch=1 n=g#3 v=77
89540 On ch=1 n=g3 v=0
89548 On ch=1 n=g#4 v=76
89572 On ch=1 n=g4 v=0
89628 On ch=1 n=g#3 v=0
89640 On ch=1 n=g3 v=77
89660 On ch=1 n=g4 v=77
89696 On ch=1 n=g#4 v=0
89756 On ch=1 n=f3 v=82
89784 On ch=1 n=f4 v=83
89788 On ch=1 n=g3 v=0
89800 On ch=1 n=g4 v=0
89876 On ch=1 n=d3 v=77
89892 On ch=1 n=f4 v=0
89892 On ch=1 n=f3 v=0
89892 On ch=1 n=d4 v=77
90004 On ch=1 n=d#3 v=76
90012 On ch=1 n=d#4 v=78
90024 On ch=1 n=d3 v=0
90048 On ch=1 n=d4 v=0
90096 On ch=1 n=d#3 v=0
90120 On ch=1 n=d3 v=76
90128 On ch=1 n=d4 v=77
90172 On ch=1 n=d#4 v=0
90248 On ch=1 n=c3 v=76
90264 On ch=1 n=c4 v=82
90276 On ch=1 n=d3 v=0
90288 On ch=1 n=d4 v=0
90360 On ch=1 n=b2 v=76
90380 On ch=1 n=c3 v=0
90380 On ch=1 n=b3 v=80
90392 On ch=1 n=c4 v=0
90468 On ch=1 n=b2 v=0
90488 On ch=1 n=g3 v=59
90508 On ch=1 n=g4 v=61
90516 On ch=1 n=b3 v=0
90608 On ch=1 n=f3 v=59
90624 On ch=1 n=f4 v=59
90636 On ch=1 n=g3 v=0
90664 On ch=1 n=g4 v=0
90720 On ch=1 n=d#3 v=59
90732 On ch=1 n=d#4 v=57
90752 On ch=1 n=f3 v=0
90764 On ch=1 n=f4 v=0
90848 On ch=1 n=d3 v=58
90868 On ch=1 n=d4 v=54
90872 On ch=1 n=d#4 v=0
90876 On ch=1 n=d#3 v=0
90960 On ch=1 n=d3 v=0
90960 On ch=1 n=d#3 v=60
90984 On ch=1 n=d#4 v=56
90996 On ch=1 n=d4 v=0
91076 On ch=1 n=d3 v=61
91096 On ch=1 n=d4 v=55
91108 On ch=1 n=d#4 v=0
91112 On ch=1 n=d#3 v=0
91200 On ch=1 n=c3 v=61
91220 On ch=1 n=d4 v=0
91224 On ch=1 n=c4 v=56
91268 On ch=1 n=d3 v=0
91328 On ch=1 n=b2 v=59
91344 On ch=1 n=c3 v=0
91344 On ch=1 n=b3 v=58
91396 On ch=1 n=c4 v=0
91440 On ch=1 n=b2 v=0
91448 On ch=1 n=b3 v=0
91456 On ch=1 n=a#3 v=58
91476 On ch=1 n=a#4 v=56
91560 On ch=1 n=g#3 v=67
91572 On ch=1 n=a#3 v=0
91592 On ch=1 n=g#4 v=58
91644 On ch=1 n=a#4 v=0
91676 On ch=1 n=g3 v=68
91700 On ch=1 n=g#3 v=0
91700 On ch=1 n=g4 v=59
91736 On ch=1 n=g#4 v=0
91792 On ch=1 n=f3 v=70
91816 On ch=1 n=f4 v=61
91820 On ch=1 n=g3 v=0
91828 On ch=1 n=g4 v=0
91900 On ch=1 n=f3 v=0
91916 On ch=1 n=g3 v=69
91932 On ch=1 n=g4 v=63
91940 On ch=1 n=f4 v=0
92032 On ch=1 n=f4 v=64
92032 On ch=1 n=f3 v=70
92056 On ch=1 n=g4 v=0
92064 On ch=1 n=g3 v=0
92132 On ch=1 n=d#3 v=70
92156 On ch=1 n=d#4 v=65
92160 On ch=1 n=f3 v=0
92160 On ch=1 n=f4 v=0
92260 On ch=1 n=d3 v=71
92264 On ch=1 n=d#4 v=0
92264 On ch=1 n=d4 v=66
92296 On ch=1 n=d#3 v=0
92336 On ch=1 n=d3 v=0
92356 On ch=1 n=d4 v=0
92388 On ch=1 n=d#4 v=72
92392 On ch=1 n=d#5 v=66
92500 On ch=1 n=d#4 v=0
92508 On ch=1 n=d4 v=71
92524 On ch=1 n=d5 v=67
92540 On ch=1 n=d#5 v=0
92632 On ch=1 n=c4 v=73
92648 On ch=1 n=c5 v=68
92652 On ch=1 n=d4 v=0
92668 On ch=1 n=d5 v=0
92748 On ch=1 n=b3 v=74
92764 On ch=1 n=b4 v=69
92772 On ch=1 n=c5 v=0
92776 On ch=1 n=c4 v=0
92860 On ch=1 n=b3 v=0
92872 On ch=1 n=c4 v=74
92880 On ch=1 n=c5 v=70
92884 On ch=1 n=b4 v=0
92988 On ch=1 n=b4 v=70
92988 On ch=1 n=b3 v=73
93008 On ch=1 n=c5 v=0
93016 On ch=1 n=c4 v=0
93104 On ch=1 n=g#3 v=74
93112 On ch=1 n=g#4 v=71
93124 On ch=1 n=b3 v=0
93124 On ch=1 n=b4 v=0
93228 On ch=1 n=g3 v=73
93232 On ch=1 n=g#4 v=0
93236 On ch=1 n=g4 v=72
93244 On ch=1 n=g#3 v=0
93348 On ch=1 n=g3 v=0
93352 On ch=1 n=g#3 v=74
93368 On ch=1 n=g#4 v=74
93384 On ch=1 n=g4 v=0
93464 On ch=1 n=g#3 v=0
93468 On ch=1 n=g3 v=74
93480 On ch=1 n=g4 v=74
93496 On ch=1 n=g#4 v=0
93584 On ch=1 n=f3 v=75
93588 On ch=1 n=g4 v=0
93600 On ch=1 n=f4 v=77
93660 On ch=1 n=g3 v=0
93704 On ch=1 n=d#3 v=76
93712 On ch=1 n=f3 v=0
93732 On ch=1 n=d#4 v=80
93768 On ch=1 n=f4 v=0
93832 On ch=1 n=f3 v=76
93836 On ch=1 n=d#3 v=0
93848 On ch=1 n=f4 v=78
93864 On ch=1 n=d#4 v=0
93948 On ch=1 n=d#3 v=78
93972 On ch=1 n=d#4 v=81
93984 On ch=1 n=f3 v=0
94012 On ch=1 n=f4 v=0
94076 On ch=1 n=d#3 v=0
94084 On ch=1 n=d#4 v=0
94088 On ch=1 n=c4 v=83
94088 On ch=1 n=c3 v=79
94124 Par ch=1 c=64 v=127
94196 On ch=1 n=g3 v=56
94228 On ch=1 n=c3 v=0
94300 On ch=1 n=c4 v=0
94316 On ch=1 n=g3 v=0
94328 On ch=1 n=c4 v=59
94444 On ch=1 n=d4 v=63
94460 On ch=1 n=c4 v=0
94560 On ch=1 n=d#4 v=66
94588 On ch=1 n=d4 v=0
94668 On ch=1 n=g4 v=68
94688 On ch=1 n=d#4 v=0
94792 On ch=1 n=g4 v=0
94804 On ch=1 n=c5 v=72
94920 On ch=1 n=d5 v=74
94940 On ch=1 n=c5 v=0
95008 Par ch=1 c=64 v=0
95036 On ch=1 n=d5 v=0
95048 On ch=1 n=d#5 v=78
95156 On ch=1 n=d5 v=77
95172 On ch=1 n=d#5 v=0
95276 On ch=1 n=d5 v=0
95292 On ch=1 n=c5 v=76
95408 On ch=1 n=g4 v=72
95412 On ch=1 n=c5 v=0
95520 On ch=1 n=g4 v=0
95520 On ch=1 n=d#4 v=67
95640 On ch=1 n=d4 v=62
95648 On ch=1 n=d#4 v=0
95740 On ch=1 n=d4 v=0
95768 On ch=1 n=c4 v=61
95876 On ch=1 n=g3 v=59
95916 On ch=1 n=c4 v=0
95944 Par ch=1 c=64 v=127
95996 On ch=1 n=g3 v=0
96008 On ch=1 n=c3 v=57
96124 On ch=1 n=g3 v=60
96160 On ch=1 n=c3 v=0
96248 On ch=1 n=g3 v=0
96248 On ch=1 n=c4 v=62
96368 On ch=1 n=d4 v=66
96388 On ch=1 n=c4 v=0
96456 Par ch=1 c=64 v=0
96488 On ch=1 n=d4 v=0
96488 On ch=1 n=d#4 v=69
96604 On ch=1 n=d4 v=70
96624 On ch=1 n=d#4 v=0
96716 On ch=1 n=d4 v=0
96732 On ch=1 n=c4 v=67
96832 On ch=1 n=g3 v=63
96876 On ch=1 n=c4 v=0
96960 On ch=1 n=g3 v=0
96964 On ch=1 n=c3 v=59
97000 Par ch=1 c=64 v=127
97084 On ch=1 n=g3 v=65
97116 On ch=1 n=c3 v=0
97200 On ch=1 n=g3 v=0
97208 On ch=1 n=c4 v=70
97292 On ch=1 n=c6 v=77
97304 On ch=1 n=c7 v=78
97320 On ch=1 n=d4 v=73
97352 On ch=1 n=c6 v=0
97352 On ch=1 n=c4 v=0
97368 On ch=1 n=c7 v=0
97444 On ch=1 n=d#4 v=77
97448 On ch=1 n=c#6 v=69
97448 On ch=1 n=c#7 v=76
97448 Par ch=1 c=64 v=0
97452 On ch=1 n=d4 v=0
97552 On ch=1 n=c#6 v=0
97552 On ch=1 n=d4 v=71
97572 On ch=1 n=c#7 v=0
97580 On ch=1 n=d#4 v=0
97600 On ch=1 n=d6 v=79
97600 On ch=1 n=d7 v=93
97676 On ch=1 n=d4 v=0
97692 On ch=1 n=c4 v=64
97740 On ch=1 n=d6 v=0
97756 On ch=1 n=d7 v=0
97800 On ch=1 n=g3 v=60
97828 On ch=1 n=c4 v=0
97844 On ch=1 n=d#7 v=77
97844 On ch=1 n=d#6 v=63
97872 On ch=1 n=d#7 v=0
97888 On ch=1 n=d#6 v=0
97916 On ch=1 n=g3 v=0
97932 On ch=1 n=c3 v=57
97944 On ch=1 n=d#7 v=92
97944 On ch=1 n=d#6 v=90
98020 Par ch=1 c=64 v=127
98056 On ch=1 n=g3 v=60
98072 On ch=1 n=c3 v=0
98172 On ch=1 n=g3 v=0
98180 On ch=1 n=c4 v=61
98300 On ch=1 n=d4 v=63
98324 On ch=1 n=c4 v=0
98416 On ch=1 n=d#4 v=65
98440 On ch=1 n=d4 v=0
98532 On ch=1 n=d#4 v=0
98532 On ch=1 n=g4 v=67
98632 On ch=1 n=g4 v=0
98648 On ch=1 n=c5 v=71
98700 On ch=1 n=d#7 v=0
98724 On ch=1 n=d#6 v=0
98772 On ch=1 n=d5 v=75
98800 On ch=1 n=c5 v=0
98884 Par ch=1 c=64 v=0
98904 On ch=1 n=d5 v=0
98904 On ch=1 n=d#5 v=75
99016 On ch=1 n=d5 v=71
99024 On ch=1 n=d#5 v=0
99128 On ch=1 n=d5 v=0
99148 On ch=1 n=c5 v=67
99252 On ch=1 n=d#6 v=64
99256 On ch=1 n=c6 v=60
99256 On ch=1 n=g6 v=69
99256 On ch=1 n=g4 v=69
99264 On ch=1 n=g5 v=60
99272 On ch=1 n=c5 v=0
99324 On ch=1 n=g6 v=0
99328 On ch=1 n=c6 v=0
99336 On ch=1 n=g5 v=0
99336 On ch=1 n=d#6 v=0
99376 On ch=1 n=d#4 v=64
99380 On ch=1 n=g4 v=0
99392 On ch=1 n=g5 v=71
99396 On ch=1 n=c6 v=58
99400 On ch=1 n=d#6 v=70
99404 On ch=1 n=g6 v=70
99492 On ch=1 n=d4 v=60
99508 On ch=1 n=d#4 v=0
99596 On ch=1 n=d4 v=0
99620 On ch=1 n=c4 v=61
99656 On ch=1 n=g6 v=0
99656 On ch=1 n=d#6 v=0
99660 On ch=1 n=c6 v=0
99664 On ch=1 n=g5 v=0
99720 On ch=1 n=g6 v=68
99724 On ch=1 n=c6 v=70
99728 On ch=1 n=g5 v=66
99728 On ch=1 n=g3 v=55
99732 On ch=1 n=d#6 v=62
99776 On ch=1 n=g6 v=0
99776 On ch=1 n=c4 v=0
99788 On ch=1 n=g5 v=0
99792 On ch=1 n=c6 v=0
99796 On ch=1 n=d#6 v=0
99852 On ch=1 n=g3 v=0
99856 On ch=1 n=c3 v=56
99884 On ch=1 n=c6 v=55
99888 On ch=1 n=g#5 v=74
99888 On ch=1 n=d#6 v=58
99896 On ch=1 n=g#6 v=74
99900 Par ch=1 c=64 v=127
99976 On ch=1 n=g3 v=61
100012 On ch=1 n=c3 v=0
100088 On ch=1 n=g3 v=0
100092 On ch=1 n=c4 v=66
100204 On ch=1 n=d4 v=70
100224 On ch=1 n=c4 v=0
100320 On ch=1 n=d#4 v=72
100324 On ch=1 n=d4 v=0
100428 Par ch=1 c=64 v=0
100440 On ch=1 n=d4 v=67
100456 On ch=1 n=d#4 v=0
100540 On ch=1 n=g#6 v=0
100556 On ch=1 n=d4 v=0
100556 On ch=1 n=g#5 v=0
100568 On ch=1 n=c4 v=62
100688 On ch=1 n=g3 v=57
100704 On ch=1 n=c4 v=0
100768 On ch=1 n=g5 v=70
100772 On ch=1 n=g6 v=64
100812 Par ch=1 c=64 v=127
100816 On ch=1 n=g3 v=0
100816 On ch=1 n=c3 v=57
100836 On ch=1 n=c6 v=0
100844 On ch=1 n=g5 v=0
100864 On ch=1 n=g6 v=0
100868 On ch=1 n=d#6 v=0
100928 On ch=1 n=g3 v=60
100952 On ch=1 n=b5 v=68
100956 On ch=1 n=c3 v=0
100960 On ch=1 n=b6 v=84
101032 On ch=1 n=b5 v=0
101044 On ch=1 n=c4 v=66
101048 On ch=1 n=b6 v=0
101048 On ch=1 n=g3 v=0
101124 On ch=1 n=c6 v=65
101128 On ch=1 n=c7 v=82
101160 On ch=1 n=d4 v=73
101184 On ch=1 n=c6 v=0
101188 On ch=1 n=c7 v=0
101188 On ch=1 n=c4 v=0
101284 On ch=1 n=c#6 v=78
101288 On ch=1 n=c#7 v=86
101296 On ch=1 n=d4 v=0
101296 On ch=1 n=d#4 v=73
101300 Par ch=1 c=64 v=0
101356 On ch=1 n=c#6 v=0
101372 On ch=1 n=c#7 v=0
101404 On ch=1 n=d4 v=68
101428 On ch=1 n=d#4 v=0
101440 On ch=1 n=d6 v=73
101444 On ch=1 n=d7 v=90
101512 On ch=1 n=d6 v=0
101524 On ch=1 n=d7 v=0
101528 On ch=1 n=d4 v=0
101544 On ch=1 n=c4 v=58
101648 On ch=1 n=g3 v=52
101668 On ch=1 n=d#7 v=86
101672 On ch=1 n=d#6 v=86
101692 On ch=1 n=c4 v=0
101716 On ch=1 n=d#6 v=0
101732 On ch=1 n=d#7 v=0
101772 On ch=1 n=g3 v=0
101780 Par ch=1 c=64 v=127
101780 On ch=1 n=c3 v=58
101792 On ch=1 n=d#7 v=95
101804 On ch=1 n=d#6 v=95
101900 On ch=1 n=g3 v=63
101928 On ch=1 n=c3 v=0
102012 On ch=1 n=g3 v=0
102020 On ch=1 n=c4 v=63
102152 On ch=1 n=d4 v=63
102176 On ch=1 n=c4 v=0
102268 On ch=1 n=d#4 v=64
102288 On ch=1 n=d4 v=0
102376 On ch=1 n=d#4 v=0
102376 On ch=1 n=g4 v=66
102488 On ch=1 n=d#7 v=0
102496 On ch=1 n=g4 v=0
102496 On ch=1 n=c5 v=70
102516 On ch=1 n=d#6 v=0
102612 On ch=1 n=d5 v=74
102632 On ch=1 n=c5 v=0
102700 Par ch=1 c=64 v=0
102736 On ch=1 n=d5 v=0
102736 On ch=1 n=d#5 v=77
102848 On ch=1 n=d5 v=76
102856 On ch=1 n=d#5 v=0
102952 On ch=1 n=d5 v=0
102972 On ch=1 n=c5 v=70
103064 On ch=1 n=g5 v=67
103068 On ch=1 n=d#6 v=58
103072 On ch=1 n=g6 v=73
103076 On ch=1 n=c6 v=53
103084 On ch=1 n=g4 v=65
103104 On ch=1 n=c5 v=0
103132 On ch=1 n=c6 v=0
103132 On ch=1 n=g6 v=0
103140 On ch=1 n=d#6 v=0
103140 On ch=1 n=g5 v=0
103204 On ch=1 n=d#4 v=61
103208 On ch=1 n=g5 v=68
103212 On ch=1 n=g6 v=74
103216 On ch=1 n=g4 v=0
103216 On ch=1 n=c6 v=56
103220 On ch=1 n=d#6 v=60
103320 On ch=1 n=d4 v=58
103344 On ch=1 n=d#4 v=0
103420 On ch=1 n=d4 v=0
103448 On ch=1 n=c4 v=56
103460 On ch=1 n=c6 v=0
103460 On ch=1 n=g6 v=0
103468 On ch=1 n=g5 v=0
103472 On ch=1 n=d#6 v=0
103544 On ch=1 n=g5 v=69
103548 On ch=1 n=g6 v=76
103552 On ch=1 n=c6 v=51
103556 On ch=1 n=d#6 v=63
103556 On ch=1 n=g3 v=54
103600 On ch=1 n=c4 v=0
103616 On ch=1 n=g6 v=0
103636 On ch=1 n=g5 v=0
103644 On ch=1 n=d#6 v=0
103648 On ch=1 n=c6 v=0
103672 Par ch=1 c=64 v=127
103680 On ch=1 n=g3 v=0
103684 On ch=1 n=c3 v=54
103712 On ch=1 n=d#6 v=64
103716 On ch=1 n=c6 v=56
103728 On ch=1 n=a5 v=76
103728 On ch=1 n=a6 v=82
103800 On ch=1 n=f#3 v=58
103888 On ch=1 n=c3 v=0
103908 On ch=1 n=f#3 v=0
103912 On ch=1 n=c4 v=60
104028 On ch=1 n=d4 v=62
104060 On ch=1 n=c4 v=0
104156 On ch=1 n=d#4 v=68
104160 On ch=1 n=d4 v=0
104280 On ch=1 n=d4 v=70
104288 On ch=1 n=d#4 v=0
104388 On ch=1 n=d4 v=0
104404 On ch=1 n=c4 v=67
104508 On ch=1 n=f#3 v=62
104524 Par ch=1 c=64 v=0
104552 On ch=1 n=c4 v=0
104592 Par ch=1 c=64 v=127
104628 On ch=1 n=f#3 v=0
104640 On ch=1 n=c3 v=56
104764 On ch=1 n=f#3 v=57
104792 On ch=1 n=c3 v=0
104872 On ch=1 n=f#3 v=0
104880 On ch=1 n=c4 v=62
104996 On ch=1 n=d4 v=67
105016 On ch=1 n=c4 v=0
105036 On ch=1 n=c6 v=0
105048 On ch=1 n=a5 v=0
105056 On ch=1 n=d#6 v=0
105072 On ch=1 n=a6 v=0
105128 On ch=1 n=d#4 v=72
105136 On ch=1 n=d4 v=0
105256 On ch=1 n=d4 v=67
105296 On ch=1 n=d#4 v=0
105364 On ch=1 n=d4 v=0
105376 On ch=1 n=a5 v=63
105376 On ch=1 n=c4 v=60
105432 On ch=1 n=d6 v=68
105480 Par ch=1 c=64 v=0
105484 On ch=1 n=f#3 v=56
105496 On ch=1 n=a6 v=78
105504 On ch=1 n=a5 v=0
105508 On ch=1 n=c4 v=0
105564 On ch=1 n=d6 v=0
105576 On ch=1 n=f#3 v=0
105604 On ch=1 n=b2 v=62
105608 Par ch=1 c=64 v=127
105616 On ch=1 n=d7 v=90
105624 On ch=1 n=a6 v=0
105680 On ch=1 n=d7 v=0
105728 On ch=1 n=b2 v=0
105732 On ch=1 n=b3 v=64
105816 On ch=1 n=b3 v=0
105836 On ch=1 n=d4 v=63
105968 On ch=1 n=g4 v=64
105992 On ch=1 n=d4 v=0
106088 On ch=1 n=g6 v=81
106088 On ch=1 n=d6 v=68
106088 On ch=1 n=d5 v=66
106092 On ch=1 n=g5 v=75
106108 On ch=1 n=g4 v=0
106200 On ch=1 n=g4 v=66
106216 On ch=1 n=d5 v=0
106328 On ch=1 n=d4 v=65
106332 On ch=1 n=g4 v=0
106380 On ch=1 n=d4 v=0
106440 On ch=1 n=b3 v=67
106468 On ch=1 n=g6 v=0
106468 Par ch=1 c=64 v=0
106472 On ch=1 n=g5 v=0
106472 On ch=1 n=d6 v=0
106548 On ch=1 n=b3 v=0
106548 Par ch=1 c=64 v=127
106564 On ch=1 n=a#2 v=67
106680 On ch=1 n=a#2 v=0
106684 On ch=1 n=a#3 v=64
106712 On ch=1 n=g6 v=82
106716 On ch=1 n=c#6 v=52
106724 On ch=1 n=g5 v=79
106748 On ch=1 n=a#3 v=0
106788 On ch=1 n=c#4 v=65
106820 On ch=1 n=g5 v=0
106820 On ch=1 n=c#6 v=0
106824 On ch=1 n=g6 v=0
106868 On ch=1 n=c#4 v=0
106872 On ch=1 n=g6 v=84
106880 On ch=1 n=c#6 v=54
106884 On ch=1 n=g5 v=81
106904 On ch=1 n=g4 v=64
106944 On ch=1 n=g5 v=0
106948 On ch=1 n=c#6 v=0
106952 On ch=1 n=g6 v=0
107004 On ch=1 n=g6 v=83
107020 On ch=1 n=g5 v=77
107024 On ch=1 n=c#6 v=58
107036 On ch=1 n=c#5 v=66
107044 On ch=1 n=g4 v=0
107076 On ch=1 n=g5 v=0
107080 On ch=1 n=g6 v=0
107084 On ch=1 n=c#6 v=0
107136 On ch=1 n=c#5 v=0
107140 On ch=1 n=g4 v=66
107152 On ch=1 n=g#6 v=86
107156 On ch=1 n=g#5 v=77
107160 On ch=1 n=c#6 v=57
107216 On ch=1 n=c#6 v=0
107236 On ch=1 n=g#6 v=0
107260 On ch=1 n=g#5 v=0
107272 On ch=1 n=g4 v=0
107276 On ch=1 n=c#4 v=65
107320 On ch=1 n=c#4 v=0
107372 On ch=1 n=a#3 v=65
107408 On ch=1 n=c#6 v=60
107412 On ch=1 n=g6 v=80
107416 On ch=1 n=g5 v=77
107452 Par ch=1 c=64 v=0
107456 On ch=1 n=a#3 v=0
107464 On ch=1 n=g5 v=0
107464 On ch=1 n=c#6 v=0
107468 On ch=1 n=g6 v=0
107512 On ch=1 n=a2 v=67
107528 On ch=1 n=g5 v=80
107532 On ch=1 n=g6 v=81
107536 On ch=1 n=c6 v=54
107536 Par ch=1 c=64 v=127
107580 On ch=1 n=g5 v=0
107592 On ch=1 n=g6 v=0
107596 On ch=1 n=c6 v=0
107628 On ch=1 n=a2 v=0
107648 On ch=1 n=a3 v=69
107660 On ch=1 n=c7 v=84
107664 On ch=1 n=c6 v=78
107692 On ch=1 n=c6 v=0
107700 On ch=1 n=c7 v=0
107732 On ch=1 n=a3 v=0
107760 On ch=1 n=c4 v=71
107892 On ch=1 n=f4 v=68
107940 On ch=1 n=c4 v=0
108016 On ch=1 n=c6 v=58
108016 On ch=1 n=c5 v=69
108020 On ch=1 n=f6 v=84
108020 On ch=1 n=f5 v=75
108036 On ch=1 n=f4 v=0
108124 On ch=1 n=c5 v=0
108124 On ch=1 n=f4 v=69
108240 On ch=1 n=c4 v=68
108248 On ch=1 n=f4 v=0
108260 On ch=1 n=f5 v=0
108260 On ch=1 n=f6 v=0
108268 On ch=1 n=c6 v=0
108292 On ch=1 n=c4 v=0
108368 Par ch=1 c=64 v=0
108368 On ch=1 n=a3 v=67
108444 On ch=1 n=a3 v=0
108444 Par ch=1 c=64 v=127
108484 On ch=1 n=g#2 v=66
108580 On ch=1 n=g#2 v=0
108596 On ch=1 n=g#3 v=65
108644 On ch=1 n=g#3 v=0
108660 On ch=1 n=f6 v=78
108668 On ch=1 n=f5 v=72
108668 On ch=1 n=c6 v=53
108720 On ch=1 n=c4 v=64
108728 On ch=1 n=c6 v=0
108740 On ch=1 n=f5 v=0
108740 On ch=1 n=f6 v=0
108816 On ch=1 n=f5 v=72
108820 On ch=1 n=f6 v=80
108824 On ch=1 n=c6 v=58
108844 On ch=1 n=f4 v=62
108880 On ch=1 n=c4 v=0
108884 On ch=1 n=f6 v=0
108884 On ch=1 n=f5 v=0
108896 On ch=1 n=c6 v=0
108956 On ch=1 n=c6 v=61
108956 On ch=1 n=e6 v=78
108968 On ch=1 n=e5 v=66
108968 On ch=1 n=c5 v=63
108984 On ch=1 n=f4 v=0
108992 On ch=1 n=e5 v=0
109008 On ch=1 n=c6 v=0
109016 On ch=1 n=e6 v=0
109052 On ch=1 n=f6 v=76
109056 On ch=1 n=c6 v=60
109064 On ch=1 n=f5 v=73
109080 On ch=1 n=f4 v=63
109096 On ch=1 n=c5 v=0
109104 On ch=1 n=f5 v=0
109108 On ch=1 n=c6 v=0
109120 On ch=1 n=f6 v=0
109176 On ch=1 n=g5 v=69
109180 On ch=1 n=c6 v=57
109184 On ch=1 n=g6 v=75
109196 On ch=1 n=c4 v=68
109212 On ch=1 n=f4 v=0
109248 On ch=1 n=c4 v=0
109252 On ch=1 n=c6 v=0
109264 On ch=1 n=g5 v=0
109276 On ch=1 n=g6 v=0
109292 Par ch=1 c=64 v=0
109316 On ch=1 n=g#3 v=67
109368 On ch=1 n=g#3 v=0
109372 On ch=1 n=f6 v=72
109376 On ch=1 n=c6 v=58
109384 On ch=1 n=f5 v=60
109412 Par ch=1 c=64 v=127
109420 On ch=1 n=f5 v=0
109424 On ch=1 n=f6 v=0
109432 On ch=1 n=c6 v=0
109456 On ch=1 n=g2 v=59
109476 On ch=1 n=c6 v=55
109480 On ch=1 n=e6 v=66
109488 On ch=1 n=e5 v=62
109584 On ch=1 n=g2 v=0
109592 On ch=1 n=g3 v=50
109708 On ch=1 n=g3 v=0
109708 On ch=1 n=c4 v=52
109768 On ch=1 n=e6 v=0
109784 On ch=1 n=e5 v=0
109796 Par ch=1 c=64 v=0
109812 On ch=1 n=c6 v=0
109828 On ch=1 n=c4 v=0
109836 On ch=1 n=b3 v=54
109940 On ch=1 n=b3 v=0
109940 On ch=1 n=d#5 v=71
109944 On ch=1 n=d#6 v=69
109944 On ch=1 n=c#4 v=57
109948 On ch=1 n=c6 v=56
110060 On ch=1 n=c#4 v=0
110060 On ch=1 n=c4 v=58
110172 On ch=1 n=c4 v=0
110184 On ch=1 n=d4 v=60
110308 On ch=1 n=d4 v=0
110308 On ch=1 n=c#4 v=62
110420 On ch=1 n=c#4 v=0
110424 On ch=1 n=d#4 v=64
110536 On ch=1 n=d#4 v=0
110544 On ch=1 n=d4 v=65
110660 On ch=1 n=d4 v=0
110660 On ch=1 n=e4 v=66
110784 On ch=1 n=d#4 v=67
110792 On ch=1 n=e4 v=0
110904 On ch=1 n=d#4 v=0
110904 On ch=1 n=f4 v=67
111020 On ch=1 n=e4 v=68
111032 On ch=1 n=f4 v=0
111036 On ch=1 n=d#6 v=0
111040 On ch=1 n=c6 v=0
111092 On ch=1 n=d#5 v=0
111144 On ch=1 n=e4 v=0
111144 On ch=1 n=f#4 v=69
111260 On ch=1 n=f#4 v=0
111264 On ch=1 n=d#5 v=68
111264 On ch=1 n=f4 v=71
111268 On ch=1 n=d#6 v=73
111340 On ch=1 n=d#6 v=0
111340 On ch=1 n=d#5 v=0
111364 Par ch=1 c=64 v=127
111368 On ch=1 n=g4 v=74
111380 On ch=1 n=f4 v=0
111400 On ch=1 n=d#6 v=75
111400 On ch=1 n=d#5 v=72
111408 On ch=1 n=b5 v=65
111484 On ch=1 n=f#4 v=73
111492 On ch=1 n=g4 v=0
111608 On ch=1 n=g#4 v=71
111612 On ch=1 n=f#4 v=0
111732 On ch=1 n=g4 v=70
111744 On ch=1 n=g#4 v=0
111744 On ch=1 n=d#6 v=0
111812 On ch=1 n=d#5 v=0
111852 On ch=1 n=a#4 v=68
111860 On ch=1 n=g4 v=0
111864 On ch=1 n=d5 v=62
111868 On ch=1 n=d6 v=69
111896 Par ch=1 c=64 v=0
111972 On ch=1 n=g#4 v=67
111976 On ch=1 n=a#4 v=0
112060 On ch=1 n=g#4 v=0
112088 On ch=1 n=g4 v=66
112180 On ch=1 n=g4 v=0
112204 On ch=1 n=f4 v=65
112256 On ch=1 n=d6 v=0
112260 On ch=1 n=d5 v=0
112268 On ch=1 n=b5 v=0
112324 On ch=1 n=d#4 v=64
112328 On ch=1 n=f4 v=0
112444 On ch=1 n=d4 v=64
112464 On ch=1 n=d#4 v=0
112536 On ch=1 n=d4 v=0
112564 On ch=1 n=c4 v=64
112676 On ch=1 n=b3 v=63
112688 On ch=1 n=c4 v=0
112788 On ch=1 n=b3 v=0
112796 On ch=1 n=g#3 v=62
112916 On ch=1 n=g#3 v=0
112916 On ch=1 n=g3 v=61
113036 On ch=1 n=f3 v=60
113056 On ch=1 n=g3 v=0
113160 On ch=1 n=d3 v=59
113172 On ch=1 n=f3 v=0
113272 On ch=1 n=c3 v=55
113284 Par ch=1 c=64 v=127
113288 On ch=1 n=d3 v=0
113404 On ch=1 n=g3 v=55
113424 On ch=1 n=c3 v=0
113524 On ch=1 n=g3 v=0
113532 On ch=1 n=c4 v=55
113648 On ch=1 n=d4 v=54
113656 On ch=1 n=c4 v=0
113764 On ch=1 n=d#4 v=55
113788 On ch=1 n=d4 v=0
113884 On ch=1 n=g4 v=57
113888 On ch=1 n=d#4 v=0
114008 On ch=1 n=g4 v=0
114008 On ch=1 n=c5 v=56
114116 On ch=1 n=d5 v=57
114136 On ch=1 n=c5 v=0
114232 On ch=1 n=d5 v=0
114240 On ch=1 n=d#5 v=71
114260 Par ch=1 c=64 v=0
114352 On ch=1 n=d#5 v=0
114356 On ch=1 n=d5 v=58
114456 On ch=1 n=d5 v=0
114476 On ch=1 n=c5 v=58
114592 On ch=1 n=c5 v=0
114604 On ch=1 n=g4 v=57
114680 On ch=1 n=g4 v=0
114708 On ch=1 n=d#4 v=62
114824 On ch=1 n=d4 v=66
114836 On ch=1 n=d#4 v=0
114912 On ch=1 n=d4 v=0
114940 On ch=1 n=c4 v=67
115060 On ch=1 n=g3 v=68
115104 On ch=1 n=c4 v=0
115172 On ch=1 n=g3 v=0
115172 Par ch=1 c=64 v=127
115184 On ch=1 n=c3 v=69
115304 On ch=1 n=g3 v=67
115340 On ch=1 n=c3 v=0
115428 On ch=1 n=g3 v=0
115432 On ch=1 n=c4 v=71
115548 On ch=1 n=d4 v=75
115564 On ch=1 n=c4 v=0
115668 On ch=1 n=d#4 v=75
115672 On ch=1 n=d4 v=0
115692 Par ch=1 c=64 v=0
115796 On ch=1 n=d4 v=73
115804 On ch=1 n=d#4 v=0
115912 On ch=1 n=d4 v=0
115924 On ch=1 n=c4 v=72
116028 On ch=1 n=g3 v=70
116064 On ch=1 n=c4 v=0
116132 Par ch=1 c=64 v=127
116152 On ch=1 n=g3 v=0
116156 On ch=1 n=c3 v=70
116256 On ch=1 n=b6 v=74
116260 On ch=1 n=b5 v=75
116280 On ch=1 n=g3 v=73
116304 On ch=1 n=c3 v=0
116344 On ch=1 n=b5 v=0
116376 On ch=1 n=b6 v=0
116392 On ch=1 n=g3 v=0
116396 On ch=1 n=c4 v=76
116432 On ch=1 n=c6 v=80
116436 On ch=1 n=c7 v=80
116496 On ch=1 n=c6 v=0
116508 On ch=1 n=c7 v=0
116512 On ch=1 n=d4 v=79
116536 On ch=1 n=c4 v=0
116580 On ch=1 n=c#6 v=84
116584 On ch=1 n=c#7 v=84
116640 On ch=1 n=d#4 v=85
116648 On ch=1 n=d4 v=0
116676 On ch=1 n=c#7 v=0
116676 On ch=1 n=c#6 v=0
116708 Par ch=1 c=64 v=0
116748 On ch=1 n=d6 v=87
116752 On ch=1 n=d4 v=82
116760 On ch=1 n=d7 v=86
116772 On ch=1 n=d#4 v=0
116844 On ch=1 n=d6 v=0
116860 On ch=1 n=d7 v=0
116864 On ch=1 n=d4 v=0
116880 On ch=1 n=c4 v=76
116988 On ch=1 n=g3 v=72
117004 On ch=1 n=d#6 v=88
117008 On ch=1 n=d#7 v=88
117020 On ch=1 n=c4 v=0
117056 On ch=1 n=d#6 v=0
117060 On ch=1 n=d#7 v=0
117108 On ch=1 n=g3 v=0
117112 On ch=1 n=d#7 v=90
117116 On ch=1 n=d#6 v=83
117116 On ch=1 n=c3 v=62
117164 Par ch=1 c=64 v=127
117236 On ch=1 n=g3 v=64
117256 On ch=1 n=c3 v=0
117356 On ch=1 n=c4 v=65
117360 On ch=1 n=g3 v=0
117472 On ch=1 n=d4 v=68
117592 On ch=1 n=d#4 v=70
117596 On ch=1 n=c4 v=0
117600 On ch=1 n=d4 v=0
117716 On ch=1 n=g4 v=71
117724 On ch=1 n=d#4 v=0
117828 On ch=1 n=g4 v=0
117836 On ch=1 n=c5 v=71
117872 On ch=1 n=d#7 v=0
117884 On ch=1 n=d#6 v=0
117948 On ch=1 n=d5 v=75
117972 On ch=1 n=c5 v=0
118052 Par ch=1 c=64 v=0
118068 On ch=1 n=d5 v=0
118072 On ch=1 n=d#5 v=74
118184 On ch=1 n=d5 v=75
118200 On ch=1 n=d#5 v=0
118300 On ch=1 n=d5 v=0
118312 On ch=1 n=c5 v=72
118428 On ch=1 n=g4 v=70
118448 On ch=1 n=c5 v=0
118452 On ch=1 n=g6 v=67
118456 On ch=1 n=d#6 v=52
118460 On ch=1 n=g5 v=72
118460 On ch=1 n=c6 v=55
118508 On ch=1 n=c6 v=0
118508 On ch=1 n=g6 v=0
118512 On ch=1 n=d#6 v=0
118520 On ch=1 n=g5 v=0
118536 On ch=1 n=g4 v=0
118540 On ch=1 n=d#4 v=64
118548 On ch=1 n=g5 v=65
118552 On ch=1 n=d#6 v=60
118556 On ch=1 n=c6 v=56
118560 On ch=1 n=g6 v=67
118660 On ch=1 n=d4 v=64
118684 On ch=1 n=d#4 v=0
118760 On ch=1 n=d4 v=0
118784 On ch=1 n=c4 v=62
118808 On ch=1 n=g6 v=0
118824 On ch=1 n=d#6 v=0
118836 On ch=1 n=c6 v=0
118836 On ch=1 n=g5 v=0
118888 On ch=1 n=g3 v=64
118900 On ch=1 n=g6 v=72
118904 On ch=1 n=g5 v=66
118908 On ch=1 n=c6 v=58
118912 On ch=1 n=d#6 v=59
118928 On ch=1 n=c4 v=0
118952 On ch=1 n=g6 v=0
118956 On ch=1 n=g5 v=0
118968 On ch=1 n=c6 v=0
118972 On ch=1 n=d#6 v=0
119020 On ch=1 n=g3 v=0
119020 Par ch=1 c=64 v=127
119020 On ch=1 n=c3 v=58
119040 On ch=1 n=c6 v=57
119044 On ch=1 n=g#5 v=70
119048 On ch=1 n=d#6 v=60
119052 On ch=1 n=g#6 v=72
119144 On ch=1 n=g3 v=61
119176 On ch=1 n=c3 v=0
119252 On ch=1 n=c4 v=65
119260 On ch=1 n=g3 v=0
119380 On ch=1 n=d4 v=68
119412 On ch=1 n=c4 v=0
119508 On ch=1 n=d4 v=0
119508 On ch=1 n=d#4 v=71
119588 Par ch=1 c=64 v=0
119632 On ch=1 n=d4 v=71
119644 On ch=1 n=d#4 v=0
119736 On ch=1 n=d4 v=0
119752 On ch=1 n=c4 v=70
119864 On ch=1 n=g3 v=68
119880 On ch=1 n=g#6 v=0
119892 On ch=1 n=c4 v=0
119896 On ch=1 n=g#5 v=0
119992 On ch=1 n=g3 v=0
119992 On ch=1 n=g5 v=64
119992 On ch=1 n=g6 v=64
119996 On ch=1 n=c3 v=64
120028 Par ch=1 c=64 v=127
120044 On ch=1 n=g5 v=0
120052 On ch=1 n=c6 v=0
120060 On ch=1 n=g6 v=0
120064 On ch=1 n=d#6 v=0
120108 On ch=1 n=g3 v=62
120136 On ch=1 n=c3 v=0
120164 On ch=1 n=b5 v=81
120168 On ch=1 n=b6 v=81
120224 On ch=1 n=g3 v=0
120228 On ch=1 n=c4 v=69
120236 On ch=1 n=b5 v=0
120308 On ch=1 n=c6 v=81
120316 On ch=1 n=c7 v=81
120348 On ch=1 n=b6 v=0
120352 On ch=1 n=d4 v=76
120364 On ch=1 n=c6 v=0
120376 On ch=1 n=c4 v=0
120396 On ch=1 n=c7 v=0
120472 On ch=1 n=c#7 v=83
120476 On ch=1 n=c#6 v=83
120476 On ch=1 n=d#4 v=81
120480 On ch=1 n=d4 v=0
120528 Par ch=1 c=64 v=0
120540 On ch=1 n=c#6 v=0
120588 On ch=1 n=c#7 v=0
120588 On ch=1 n=d6 v=83
120592 On ch=1 n=d4 v=78
120596 On ch=1 n=d7 v=83
120612 On ch=1 n=d#4 v=0
120644 On ch=1 n=d6 v=0
120668 On ch=1 n=d7 v=0
120696 On ch=1 n=d4 v=0
120716 On ch=1 n=f6 v=83
120716 On ch=1 n=c4 v=72
120724 On ch=1 n=f7 v=83
120784 On ch=1 n=f6 v=0
120788 On ch=1 n=f7 v=0
120828 On ch=1 n=g3 v=66
120864 On ch=1 n=c4 v=0
120916 On ch=1 n=d#6 v=84
120920 On ch=1 n=d#7 v=84
120948 On ch=1 n=g3 v=0
120956 On ch=1 n=d#7 v=0
120956 On ch=1 n=d#6 v=0
120956 On ch=1 n=c3 v=59
120992 Par ch=1 c=64 v=127
121004 On ch=1 n=d#7 v=92
121008 On ch=1 n=d#6 v=82
121072 On ch=1 n=g3 v=61
121092 On ch=1 n=c3 v=0
121184 On ch=1 n=g3 v=0
121196 On ch=1 n=c4 v=60
121312 On ch=1 n=d4 v=63
121400 On ch=1 n=c4 v=0
121424 On ch=1 n=d#4 v=65
121448 On ch=1 n=d4 v=0
121544 On ch=1 n=d#4 v=0
121544 On ch=1 n=g4 v=69
121668 On ch=1 n=g4 v=0
121672 On ch=1 n=c5 v=71
121744 On ch=1 n=d#6 v=0
121744 On ch=1 n=d#7 v=0
121788 On ch=1 n=d5 v=73
121812 On ch=1 n=c5 v=0
121908 On ch=1 n=d5 v=0
121912 On ch=1 n=d#5 v=73
121920 Par ch=1 c=64 v=0
122024 On ch=1 n=d5 v=73
122028 On ch=1 n=d#5 v=0
122132 On ch=1 n=d5 v=0
122152 On ch=1 n=c5 v=70
122236 On ch=1 n=g5 v=66
122240 On ch=1 n=d#6 v=54
122244 On ch=1 n=c6 v=61
122252 On ch=1 n=g6 v=69
122272 On ch=1 n=g4 v=67
122280 On ch=1 n=c5 v=0
122312 On ch=1 n=c6 v=0
122316 On ch=1 n=g6 v=0
122324 On ch=1 n=g5 v=0
122328 On ch=1 n=d#6 v=0
122380 On ch=1 n=d#4 v=60
122384 On ch=1 n=d#6 v=60
122388 On ch=1 n=g4 v=0
122388 On ch=1 n=g6 v=69
122388 On ch=1 n=g5 v=69
122392 On ch=1 n=c6 v=57
122504 On ch=1 n=d4 v=59
122520 On ch=1 n=d#4 v=0
122596 On ch=1 n=d4 v=0
122624 On ch=1 n=c4 v=58
122684 On ch=1 n=g6 v=0
122688 On ch=1 n=c6 v=0
122692 On ch=1 n=g5 v=0
122692 On ch=1 n=d#6 v=0
122736 On ch=1 n=g3 v=56
122764 On ch=1 n=g6 v=75
122768 On ch=1 n=c6 v=53
122772 On ch=1 n=g5 v=73
122776 On ch=1 n=d#6 v=58
122784 On ch=1 n=c4 v=0
122832 On ch=1 n=g6 v=0
122836 On ch=1 n=g5 v=0
122836 On ch=1 n=c6 v=0
122848 On ch=1 n=d#6 v=0
122860 On ch=1 n=g3 v=0
122872 On ch=1 n=c3 v=59
122900 On ch=1 n=d#6 v=62
122912 On ch=1 n=a5 v=79
122912 Par ch=1 c=64 v=127
122916 On ch=1 n=a6 v=77
122992 On ch=1 n=f#3 v=62
123036 On ch=1 n=c3 v=0
123116 On ch=1 n=f#3 v=0
123124 On ch=1 n=c4 v=63
123240 On ch=1 n=d4 v=60
123256 On ch=1 n=c4 v=0
123364 On ch=1 n=d4 v=0
123364 On ch=1 n=d#4 v=71
123460 Par ch=1 c=64 v=0
123472 On ch=1 n=d4 v=64
123484 On ch=1 n=d#4 v=0
123592 On ch=1 n=d4 v=0
123608 On ch=1 n=c4 v=65
123712 On ch=1 n=f#3 v=65
123748 On ch=1 n=c4 v=0
123828 Par ch=1 c=64 v=127
123836 On ch=1 n=f#3 v=0
123848 On ch=1 n=c3 v=66
123964 On ch=1 n=f#3 v=66
123996 On ch=1 n=c3 v=0
124080 On ch=1 n=f#3 v=0
124088 On ch=1 n=c4 v=68
124192 On ch=1 n=d4 v=70
124216 On ch=1 n=c4 v=0
124320 On ch=1 n=d#4 v=77
124324 On ch=1 n=d4 v=0
124368 Par ch=1 c=64 v=0
124432 On ch=1 n=d4 v=72
124452 On ch=1 n=d#4 v=0
124520 On ch=1 n=d#6 v=0
124524 On ch=1 n=a6 v=0
124524 On ch=1 n=a5 v=0
124552 On ch=1 n=d4 v=0
124564 On ch=1 n=c4 v=73
124668 On ch=1 n=f#3 v=73
124692 On ch=1 n=c4 v=0
124784 On ch=1 n=f#3 v=0
124792 Par ch=1 c=64 v=127
124792 On ch=1 n=c#3 v=78
124808 On ch=1 n=a#6 v=91
124812 On ch=1 n=c#6 v=70
124816 On ch=1 n=a#5 v=87
124916 On ch=1 n=c#4 v=69
124924 On ch=1 n=c#3 v=0
125008 On ch=1 n=c#4 v=0
125048 On ch=1 n=f#4 v=70
125160 On ch=1 n=g#4 v=68
125172 On ch=1 n=f#4 v=0
125260 On ch=1 n=g#4 v=0
125272 On ch=1 n=a#4 v=68
125328 Par ch=1 c=64 v=0
125392 On ch=1 n=g#4 v=70
125404 On ch=1 n=a#4 v=0
125508 On ch=1 n=a#6 v=0
125524 On ch=1 n=c#6 v=0
125524 On ch=1 n=f#4 v=71
125536 On ch=1 n=g#4 v=0
125588 On ch=1 n=f#4 v=0
125608 On ch=1 n=a#5 v=0
125636 On ch=1 n=c#4 v=71
125764 Par ch=1 c=64 v=127
125772 On ch=1 n=c#3 v=82
125776 On ch=1 n=g#6 v=94
125776 On ch=1 n=g#5 v=89
125780 On ch=1 n=c#4 v=0
125784 On ch=1 n=a#5 v=59
125788 On ch=1 n=c#6 v=59
125896 On ch=1 n=c#3 v=0
125900 On ch=1 n=c#4 v=68
125968 On ch=1 n=c#4 v=0
126020 On ch=1 n=f#4 v=71
126124 On ch=1 n=g#5 v=0
126124 On ch=1 n=g#6 v=0
126136 On ch=1 n=g#4 v=70
126148 On ch=1 n=f#4 v=0
126172 On ch=1 n=c#6 v=0
126172 On ch=1 n=a#5 v=0
126256 On ch=1 n=a#4 v=85
126260 On ch=1 n=g#4 v=0
126260 On ch=1 n=f#6 v=95
126268 On ch=1 n=a#5 v=58
126276 On ch=1 n=c#6 v=65
126276 On ch=1 n=f#5 v=90
126284 Par ch=1 c=64 v=0
126384 On ch=1 n=g#4 v=70
126408 On ch=1 n=a#4 v=0
126500 On ch=1 n=f#4 v=70
126504 On ch=1 n=g#4 v=0
126508 On ch=1 n=a#5 v=0
126508 On ch=1 n=f#6 v=0
126524 On ch=1 n=f#5 v=0
126544 On ch=1 n=c#6 v=0
126560 On ch=1 n=f#4 v=0
126600 On ch=1 n=c#4 v=74
126612 On ch=1 n=c#6 v=49
126616 On ch=1 n=f6 v=95
126620 On ch=1 n=f5 v=90
126624 On ch=1 n=a#5 v=61
126660 On ch=1 n=a#5 v=0
126664 On ch=1 n=f6 v=0
126668 On ch=1 n=f5 v=0
126676 On ch=1 n=c#6 v=0
126688 On ch=1 n=c#4 v=0
126716 On ch=1 n=c#6 v=66
126720 On ch=1 n=f6 v=93
126720 On ch=1 n=c#3 v=79
126724 On ch=1 n=f5 v=92
126724 On ch=1 n=a#5 v=57
126736 Par ch=1 c=64 v=127
126852 On ch=1 n=c#4 v=66
126864 On ch=1 n=c#3 v=0
126908 On ch=1 n=c#4 v=0
126972 On ch=1 n=g4 v=68
127088 On ch=1 n=a#4 v=68
127112 On ch=1 n=g4 v=0
127216 On ch=1 n=c#5 v=67
127220 On ch=1 n=a#4 v=0
127324 On ch=1 n=c#5 v=0
127332 On ch=1 n=c5 v=69
127456 On ch=1 n=a#4 v=71
127484 On ch=1 n=c5 v=0
127536 On ch=1 n=f6 v=0
127572 On ch=1 n=g#4 v=69
127576 On ch=1 n=a#4 v=0
127580 On ch=1 n=f5 v=0
127676 On ch=1 n=g#4 v=0
127688 On ch=1 n=g4 v=74
127696 On ch=1 n=e6 v=87
127700 Par ch=1 c=64 v=0
127704 On ch=1 n=e5 v=74
127712 On ch=1 n=c#6 v=0
127812 On ch=1 n=f4 v=69
127852 On ch=1 n=g4 v=0
127936 On ch=1 n=e4 v=68
127956 On ch=1 n=f4 v=0
128060 On ch=1 n=c#4 v=67
128068 On ch=1 n=e4 v=0
128164 On ch=1 n=c#4 v=0
128164 On ch=1 n=e5 v=0
128172 On ch=1 n=e6 v=0
128172 On ch=1 n=c4 v=68
128176 On ch=1 n=a#5 v=0
128300 On ch=1 n=c4 v=0
128304 On ch=1 n=a#3 v=63
128424 On ch=1 n=g#3 v=63
128440 On ch=1 n=a#3 v=0
128536 On ch=1 n=g#3 v=0
128536 On ch=1 n=g3 v=59
128648 On ch=1 n=g3 v=0
128648 On ch=1 n=b2 v=73
128652 Par ch=1 c=64 v=127
128668 On ch=1 n=g#6 v=86
128680 On ch=1 n=e6 v=66
128684 On ch=1 n=g#5 v=82
128688 On ch=1 n=b5 v=63
128764 On ch=1 n=b2 v=0
128768 On ch=1 n=b3 v=68
128864 On ch=1 n=b3 v=0
128888 On ch=1 n=e4 v=72
129004 On ch=1 n=e4 v=0
129008 On ch=1 n=f#4 v=69
129132 On ch=1 n=g#4 v=75
129136 On ch=1 n=f#4 v=0
129208 Par ch=1 c=64 v=0
129244 On ch=1 n=g#4 v=0
129248 On ch=1 n=f#4 v=71
129272 On ch=1 n=b5 v=0
129284 On ch=1 n=e6 v=0
129284 On ch=1 n=g#6 v=0
129320 On ch=1 n=g#5 v=0
129360 On ch=1 n=e4 v=71
129372 On ch=1 n=f#4 v=0
129456 On ch=1 n=e4 v=0
129496 On ch=1 n=b3 v=66
129592 Par ch=1 c=64 v=127
129612 On ch=1 n=b3 v=0
129616 On ch=1 n=b2 v=70
129624 On ch=1 n=f#6 v=87
129632 On ch=1 n=g#5 v=57
129636 On ch=1 n=f#5 v=83
129640 On ch=1 n=b5 v=67
129720 On ch=1 n=b2 v=0
129732 On ch=1 n=b3 v=72
129848 On ch=1 n=b3 v=0
129848 On ch=1 n=e4 v=68
129876 On ch=1 n=f#6 v=0
129920 On ch=1 n=f#5 v=0
129928 On ch=1 n=b5 v=0
129944 On ch=1 n=g#5 v=0
129968 On ch=1 n=f#4 v=71
129984 On ch=1 n=e4 v=0
130092 On ch=1 n=g#4 v=77
130100 On ch=1 n=f#4 v=0
130116 On ch=1 n=g#5 v=57
130116 On ch=1 n=e5 v=84
130120 On ch=1 n=e6 v=90
130124 On ch=1 n=b5 v=68
130152 Par ch=1 c=64 v=0
130192 On ch=1 n=g#4 v=0
130196 On ch=1 n=f#4 v=67
130304 On ch=1 n=e6 v=0
130312 On ch=1 n=f#4 v=0
130316 On ch=1 n=e5 v=0
130316 On ch=1 n=e4 v=73
130336 On ch=1 n=g#5 v=0
130340 On ch=1 n=b5 v=0
130384 On ch=1 n=e4 v=0
130436 On ch=1 n=b3 v=72
130468 On ch=1 n=d#5 v=86
130468 On ch=1 n=d#6 v=85
130472 On ch=1 n=b5 v=71
130476 On ch=1 n=g#5 v=59
130508 On ch=1 n=g#5 v=0
130512 On ch=1 n=b5 v=0
130512 On ch=1 n=d#6 v=0
130516 On ch=1 n=d#5 v=0
130540 On ch=1 n=b2 v=67
130548 On ch=1 n=b3 v=0
130548 On ch=1 n=d#6 v=86
130552 On ch=1 n=d#5 v=85
130556 On ch=1 n=g#5 v=56
130560 On ch=1 n=b5 v=65
130592 Par ch=1 c=64 v=127
130672 On ch=1 n=b3 v=70
130676 On ch=1 n=b2 v=0
130744 On ch=1 n=b3 v=0
130792 On ch=1 n=f4 v=71
130920 On ch=1 n=g#4 v=74
130924 On ch=1 n=f4 v=0
131020 On ch=1 n=g#4 v=0
131028 On ch=1 n=b4 v=79
131160 On ch=1 n=a#4 v=76
131196 On ch=1 n=b4 v=0
131292 On ch=1 n=g#4 v=74
131316 On ch=1 n=a#4 v=0
131416 On ch=1 n=d#5 v=0
131420 On ch=1 n=d#6 v=0
131424 On ch=1 n=f#4 v=74
131468 On ch=1 n=g#4 v=0
131528 On ch=1 n=f#4 v=0
131532 On ch=1 n=d5 v=83
131532 On ch=1 n=f4 v=72
131540 On ch=1 n=d6 v=81
131584 On ch=1 n=b5 v=0
131648 On ch=1 n=d#4 v=71
131652 Par ch=1 c=64 v=0
131684 On ch=1 n=f4 v=0
131764 On ch=1 n=d4 v=69
131776 On ch=1 n=d#4 v=0
131876 On ch=1 n=d4 v=0
131884 On ch=1 n=c4 v=68
131996 On ch=1 n=a#3 v=66
132004 On ch=1 n=d5 v=0
132012 On ch=1 n=d6 v=0
132012 On ch=1 n=g#5 v=0
132036 On ch=1 n=c4 v=0
132124 On ch=1 n=g#3 v=67
132144 On ch=1 n=a#3 v=0
132244 On ch=1 n=f#3 v=67
132288 On ch=1 n=g#3 v=0
132360 On ch=1 n=f3 v=65
132372 On ch=1 n=f#3 v=0
132456 Par ch=1 c=64 v=127
132472 On ch=1 n=f3 v=0
132504 On ch=1 n=a#2 v=68
132508 On ch=1 n=d#6 v=65
132512 On ch=1 n=g6 v=83
132516 On ch=1 n=g5 v=70
132620 On ch=1 n=a#3 v=65
132632 On ch=1 n=a#2 v=0
132692 On ch=1 n=a#3 v=0
132740 On ch=1 n=d#4 v=64
132856 On ch=1 n=f4 v=64
132884 On ch=1 n=d#4 v=0
132980 On ch=1 n=g4 v=73
132988 On ch=1 n=f4 v=0
133044 Par ch=1 c=64 v=0
133096 On ch=1 n=f4 v=68
133128 On ch=1 n=g4 v=0
133220 On ch=1 n=d#4 v=65
133236 On ch=1 n=f4 v=0
133280 On ch=1 n=d#4 v=0
133332 On ch=1 n=a#3 v=67
133404 Par ch=1 c=64 v=127
133456 On ch=1 n=a#3 v=0
133456 On ch=1 n=a#2 v=71
133580 On ch=1 n=a#2 v=0
133584 On ch=1 n=a#3 v=66
133652 On ch=1 n=a#3 v=0
133700 On ch=1 n=d#4 v=67
133816 On ch=1 n=f4 v=66
133848 On ch=1 n=d#4 v=0
133940 On ch=1 n=g4 v=71
133944 On ch=1 n=f4 v=0
133968 Par ch=1 c=64 v=0
134064 On ch=1 n=f4 v=66
134100 On ch=1 n=g4 v=0
134176 On ch=1 n=d#4 v=67
134196 On ch=1 n=f4 v=0
134228 On ch=1 n=g6 v=0
134232 On ch=1 n=d#4 v=0
134260 On ch=1 n=d#6 v=0
134264 On ch=1 n=g5 v=0
134284 On ch=1 n=a#3 v=66
134380 On ch=1 n=a#3 v=0
134388 Par ch=1 c=64 v=127
134412 On ch=1 n=b2 v=67
134424 On ch=1 n=g6 v=79
134428 On ch=1 n=d6 v=62
134432 On ch=1 n=g5 v=66
134520 On ch=1 n=b2 v=0
134540 On ch=1 n=b3 v=65
134624 On ch=1 n=b3 v=0
134660 On ch=1 n=d4 v=66
134784 On ch=1 n=g4 v=62
134828 On ch=1 n=d4 v=0
134896 On ch=1 n=d5 v=67
134916 On ch=1 n=g4 v=0
135020 On ch=1 n=g4 v=62
135040 On ch=1 n=d5 v=0
135140 On ch=1 n=d4 v=62
135144 On ch=1 n=g4 v=0
135212 On ch=1 n=d4 v=0
135256 On ch=1 n=b3 v=59
135292 On ch=1 n=g5 v=0
135316 Par ch=1 c=64 v=0
135372 On ch=1 n=b3 v=0
135380 On ch=1 n=b2 v=58
135388 Par ch=1 c=64 v=127
135396 On ch=1 n=g5 v=66
135472 On ch=1 n=b2 v=0
135496 On ch=1 n=b3 v=57
135572 On ch=1 n=b3 v=0
135608 On ch=1 n=d4 v=57
135728 On ch=1 n=g4 v=56
135768 On ch=1 n=d4 v=0
135856 On ch=1 n=d5 v=54
135868 On ch=1 n=g4 v=0
135972 On ch=1 n=d5 v=0
135980 On ch=1 n=g4 v=55
136004 On ch=1 n=g6 v=0
136088 On ch=1 n=d4 v=53
136104 On ch=1 n=f6 v=75
136108 On ch=1 n=g4 v=0
136156 On ch=1 n=d4 v=0
136212 On ch=1 n=b3 v=52
136260 On ch=1 n=b3 v=0
136260 Par ch=1 c=64 v=0
136268 On ch=1 n=g5 v=0
136272 On ch=1 n=d6 v=0
136280 On ch=1 n=f6 v=0
136332 On ch=1 n=c3 v=46
136344 Par ch=1 c=64 v=127
136352 On ch=1 n=f6 v=71
136360 On ch=1 n=c6 v=58
136364 On ch=1 n=g5 v=62
136444 On ch=1 n=g3 v=47
136452 On ch=1 n=c3 v=0
136576 On ch=1 n=c4 v=48
136580 On ch=1 n=g3 v=0
136696 On ch=1 n=d4 v=49
136700 On ch=1 n=c4 v=0
136804 On ch=1 n=d#4 v=49
136820 On ch=1 n=d4 v=0
136916 On ch=1 n=d#4 v=0
136932 On ch=1 n=g4 v=51
137040 On ch=1 n=g4 v=0
137048 On ch=1 n=c5 v=54
137160 On ch=1 n=d5 v=58
137184 On ch=1 n=c5 v=0
137228 Par ch=1 c=64 v=0
137288 On ch=1 n=d5 v=0
137288 Par ch=1 c=64 v=127
137300 On ch=1 n=d#5 v=60
137308 On ch=1 n=d#6 v=65
137340 On ch=1 n=f6 v=0
137404 On ch=1 n=d#5 v=0
137404 On ch=1 n=d5 v=58
137516 On ch=1 n=d5 v=0
137532 On ch=1 n=c5 v=55
137640 On ch=1 n=g4 v=53
137648 On ch=1 n=c5 v=0
137740 Par ch=1 c=64 v=0
137760 On ch=1 n=g4 v=0
137760 On ch=1 n=d#4 v=51
137880 On ch=1 n=d4 v=49
137900 On ch=1 n=d#4 v=0
137932 On ch=1 n=d#6 v=0
137932 On ch=1 n=c6 v=0
137960 On ch=1 n=g5 v=0
137984 On ch=1 n=d4 v=0
138008 On ch=1 n=c4 v=48
138112 On ch=1 n=g3 v=47
138148 On ch=1 n=c4 v=0
138192 On ch=1 n=g3 v=0
138192 Par ch=1 c=64 v=127
138244 On ch=1 n=f2 v=48
138276 On ch=1 n=g#5 v=55
138276 On ch=1 n=d#6 v=69
138284 On ch=1 n=f5 v=68
138348 On ch=1 n=c#3 v=49
138372 On ch=1 n=f2 v=0
138460 On ch=1 n=c#3 v=0
138464 On ch=1 n=f3 v=50
138476 On ch=1 n=f6 v=62
138512 On ch=1 n=d#6 v=0
138572 On ch=1 n=d#6 v=63
138584 On ch=1 n=f3 v=0
138584 On ch=1 n=g3 v=51
138624 On ch=1 n=f6 v=0
138692 On ch=1 n=c#6 v=67
138696 On ch=1 n=g#3 v=53
138708 On ch=1 n=g3 v=0
138716 On ch=1 n=d#6 v=0
138816 On ch=1 n=g#3 v=0
138828 On ch=1 n=c#4 v=56
138940 On ch=1 n=c#4 v=0
138944 On ch=1 n=f4 v=58
139060 Par ch=1 c=64 v=0
139060 On ch=1 n=g4 v=60
139068 On ch=1 n=d#6 v=66
139088 On ch=1 n=f4 v=0
139136 Par ch=1 c=64 v=127
139180 On ch=1 n=f6 v=68
139184 On ch=1 n=g#4 v=60
139204 On ch=1 n=g4 v=0
139212 On ch=1 n=c#6 v=0
139252 On ch=1 n=d#6 v=0
139304 On ch=1 n=g4 v=59
139320 On ch=1 n=g#4 v=0
139408 On ch=1 n=g4 v=0
139424 On ch=1 n=f4 v=57
139504 On ch=1 n=g#5 v=0
139540 On ch=1 n=c#4 v=55
139580 On ch=1 n=f4 v=0
139672 Par ch=1 c=64 v=0
139672 On ch=1 n=g#3 v=52
139680 On ch=1 n=c#4 v=0
139688 On ch=1 n=g#5 v=61
139724 On ch=1 n=f6 v=0
139752 On ch=1 n=g#3 v=0
139792 On ch=1 n=f3 v=50
139928 On ch=1 n=c#3 v=48
139964 On ch=1 n=f3 v=0
140040 On ch=1 n=g#2 v=47
140044 On ch=1 n=f5 v=0
140072 On ch=1 n=c#3 v=0
140152 Par ch=1 c=64 v=127
140164 On ch=1 n=g2 v=48
140168 On ch=1 n=d#5 v=53
140176 On ch=1 n=c6 v=67
140188 On ch=1 n=g#2 v=0
140228 On ch=1 n=g#5 v=0
140328 On ch=1 n=g2 v=0
140408 On ch=1 n=e3 v=50
140492 Par ch=1 c=64 v=0
140528 On ch=1 n=d#3 v=52
140532 On ch=1 n=e3 v=0
140644 On ch=1 n=d#3 v=0
140648 On ch=1 n=f3 v=49
140764 On ch=1 n=e3 v=52
140792 On ch=1 n=f3 v=0
140884 On ch=1 n=f#3 v=51
140888 On ch=1 n=e3 v=0
141000 On ch=1 n=f3 v=53
141016 On ch=1 n=f#3 v=0
141112 On ch=1 n=f3 v=0
141128 On ch=1 n=g3 v=52
141244 On ch=1 n=f#3 v=53
141260 On ch=1 n=g3 v=0
141360 On ch=1 n=f#3 v=0
141368 On ch=1 n=g#3 v=52
141476 On ch=1 n=g3 v=50
141488 On ch=1 n=g#3 v=0
141592 On ch=1 n=g3 v=0
141600 On ch=1 n=a3 v=50
141720 On ch=1 n=g#3 v=49
141724 On ch=1 n=a3 v=0
141848 On ch=1 n=a#3 v=50
141860 On ch=1 n=g#3 v=0
141968 On ch=1 n=a3 v=50
141980 On ch=1 n=a#3 v=0
142072 On ch=1 n=a3 v=0
142088 On ch=1 n=b3 v=50
142200 On ch=1 n=a#3 v=50
142220 On ch=1 n=b3 v=0
142324 On ch=1 n=a#3 v=0
142336 On ch=1 n=c4 v=49
142448 On ch=1 n=b3 v=49
142476 On ch=1 n=c4 v=0
142572 On ch=1 n=c#4 v=49
142588 On ch=1 n=b3 v=0
142684 On ch=1 n=c4 v=49
142704 On ch=1 n=c#4 v=0
142800 On ch=1 n=c4 v=0
142816 On ch=1 n=d4 v=49
142924 On ch=1 n=c#4 v=50
142952 On ch=1 n=d4 v=0
143040 On ch=1 n=c#4 v=0
143044 On ch=1 n=d#4 v=49
143164 On ch=1 n=d4 v=49
143184 On ch=1 n=d#4 v=0
143276 On ch=1 n=d4 v=0
143288 On ch=1 n=e4 v=51
143408 On ch=1 n=d#4 v=51
143428 On ch=1 n=e4 v=0
143520 On ch=1 n=d#4 v=0
143528 On ch=1 n=c6 v=0
143532 On ch=1 n=f4 v=53
143564 On ch=1 n=d#5 v=0
143644 On ch=1 n=e4 v=52
143672 On ch=1 n=f4 v=0
143768 On ch=1 n=f#4 v=51
143784 On ch=1 n=e4 v=0
143884 On ch=1 n=f4 v=51
143896 On ch=1 n=f#4 v=0
143992 On ch=1 n=f4 v=0
144008 On ch=1 n=c6 v=67
144008 On ch=1 n=g4 v=53
144028 On ch=1 n=f5 v=51
144028 On ch=1 n=d5 v=48
144128 On ch=1 n=f#4 v=53
144156 On ch=1 n=g4 v=0
144244 On ch=1 n=f#4 v=0
144248 On ch=1 n=g#4 v=51
144348 On ch=1 n=g4 v=53
144352 On ch=1 n=g#4 v=0
144488 On ch=1 n=g4 v=0
144488 On ch=1 n=a#4 v=54
144604 On ch=1 n=g#4 v=52
144624 On ch=1 n=a#4 v=0
144720 On ch=1 n=g#4 v=0
144724 On ch=1 n=b5 v=62
144736 On ch=1 n=g4 v=52
144748 On ch=1 n=c6 v=0
144848 On ch=1 n=f4 v=52
144920 On ch=1 n=g4 v=0
144988 On ch=1 n=d#4 v=55
144992 On ch=1 n=d6 v=56
145008 On ch=1 n=f4 v=0
145024 On ch=1 n=b5 v=0
145088 On ch=1 n=d5 v=0
145088 On ch=1 n=f5 v=0
145088 On ch=1 n=d4 v=53
145120 On ch=1 n=d#4 v=0
145180 On ch=1 n=d4 v=0
145204 On ch=1 n=f4 v=53
145332 On ch=1 n=d#4 v=53
145340 On ch=1 n=f4 v=0
145444 On ch=1 n=d6 v=0
145456 On ch=1 n=d#4 v=0
145456 On ch=1 n=g4 v=54
145576 On ch=1 n=f4 v=54
145588 On ch=1 n=g4 v=0
145692 On ch=1 n=d#4 v=54
145700 On ch=1 n=f4 v=0
145800 On ch=1 n=d#4 v=0
145808 On ch=1 n=d4 v=53
145924 On ch=1 n=c4 v=54
145960 On ch=1 n=d4 v=0
146028 On ch=1 n=b3 v=53
146048 On ch=1 n=c4 v=0
146152 On ch=1 n=b3 v=0
146160 On ch=1 n=d4 v=52
146284 On ch=1 n=c4 v=52
146308 On ch=1 n=d4 v=0
146404 On ch=1 n=b3 v=52
146420 On ch=1 n=c4 v=0
146528 On ch=1 n=g#3 v=52
146532 On ch=1 n=b3 v=0
146652 On ch=1 n=g#3 v=0
146656 On ch=1 n=g3 v=53
146764 On ch=1 n=f#3 v=52
146792 On ch=1 n=g3 v=0
146892 On ch=1 n=g3 v=52
146896 On ch=1 n=f#3 v=0
147020 On ch=1 n=g#3 v=52
147036 On ch=1 n=g3 v=0
147132 On ch=1 n=f3 v=52
147164 On ch=1 n=g#3 v=0
147260 On ch=1 n=g3 v=52
147280 On ch=1 n=f3 v=0
147372 On ch=1 n=d#3 v=53
147392 On ch=1 n=g3 v=0
147492 On ch=1 n=f3 v=52
147516 On ch=1 n=d#3 v=0
147612 On ch=1 n=f3 v=0
147616 On ch=1 n=d3 v=53
147732 On ch=1 n=d#3 v=58
147736 On ch=1 n=d3 v=0
147844 On ch=1 n=d#3 v=0
147848 On ch=1 n=c5 v=73
147848 On ch=1 n=c6 v=79
147856 On ch=1 n=c3 v=59
147904 On ch=1 n=c5 v=0
147968 On ch=1 n=c3 v=0
148104 On ch=1 n=c#5 v=66
148220 On ch=1 n=c#5 v=0
148224 On ch=1 n=c5 v=68
148344 On ch=1 n=a#4 v=64
148372 On ch=1 n=c5 v=0
148452 On ch=1 n=g4 v=59
148472 On ch=1 n=a#4 v=0
148580 On ch=1 n=g#4 v=63
148592 On ch=1 n=g4 v=0
148692 On ch=1 n=g#4 v=0
148700 On ch=1 n=g4 v=61
148812 On ch=1 n=e4 v=60
148840 On ch=1 n=g4 v=0
148928 On ch=1 n=c4 v=61
148936 On ch=1 n=e4 v=0
149056 On ch=1 n=c#4 v=63
149068 On ch=1 n=c4 v=0
149160 On ch=1 n=c#4 v=0
149172 On ch=1 n=c4 v=64
149292 On ch=1 n=a#3 v=66
149312 On ch=1 n=c4 v=0
149400 On ch=1 n=g3 v=63
149412 On ch=1 n=a#3 v=0
149528 On ch=1 n=g#3 v=63
149540 On ch=1 n=g3 v=0
149636 On ch=1 n=g#3 v=0
149648 On ch=1 n=g3 v=62
149760 On ch=1 n=f3 v=52
149776 Par ch=1 c=64 v=127
149780 On ch=1 n=f5 v=56
149784 On ch=1 n=g#5 v=64
149788 On ch=1 n=g3 v=0
149880 On ch=1 n=c3 v=54
149884 On ch=1 n=f3 v=0
150008 On ch=1 n=f3 v=53
150024 On ch=1 n=c3 v=0
150128 On ch=1 n=c3 v=54
150132 On ch=1 n=f3 v=0
150252 On ch=1 n=f3 v=54
150268 On ch=1 n=c3 v=0
150372 On ch=1 n=c3 v=53
150380 On ch=1 n=f3 v=0
150488 On ch=1 n=f3 v=52
150512 On ch=1 n=c3 v=0
150612 On ch=1 n=c3 v=51
150616 On ch=1 n=f3 v=0
150736 On ch=1 n=f3 v=53
150744 On ch=1 n=d6 v=81
150756 On ch=1 n=c3 v=0
150768 On ch=1 n=c6 v=0
150852 On ch=1 n=c3 v=53
150860 On ch=1 n=f3 v=0
150972 On ch=1 n=f3 v=53
150996 On ch=1 n=c3 v=0
151084 On ch=1 n=c3 v=53
151088 On ch=1 n=f3 v=0
151216 On ch=1 n=f3 v=52
151232 On ch=1 n=c3 v=0
151328 On ch=1 n=c3 v=53
151340 On ch=1 n=f3 v=0
151452 On ch=1 n=f3 v=54
151476 On ch=1 n=c3 v=0
151552 On ch=1 n=g#5 v=0
151576 On ch=1 n=c3 v=55
151584 On ch=1 n=f3 v=0
151588 On ch=1 n=f5 v=0
151628 On ch=1 n=d6 v=0
151696 On ch=1 n=e5 v=68
151700 On ch=1 n=g5 v=56
151700 On ch=1 n=c4 v=69
151704 On ch=1 n=e6 v=75
151704 Par ch=1 c=64 v=0
151708 On ch=1 n=c3 v=0
151796 On ch=1 n=c4 v=0
151932 On ch=1 n=c#5 v=62
152048 On ch=1 n=c#5 v=0
152052 On ch=1 n=c5 v=60
152176 On ch=1 n=a#4 v=58
152208 On ch=1 n=c5 v=0
152284 On ch=1 n=g4 v=61
152304 On ch=1 n=a#4 v=0
152412 On ch=1 n=g#4 v=64
152428 On ch=1 n=g4 v=0
152524 On ch=1 n=g#4 v=0
152536 On ch=1 n=g4 v=62
152656 On ch=1 n=e4 v=58
152684 On ch=1 n=g4 v=0
152772 On ch=1 n=c4 v=61
152780 On ch=1 n=e4 v=0
152896 On ch=1 n=c#4 v=59
152904 On ch=1 n=c4 v=0
152956 On ch=1 n=e6 v=0
152976 On ch=1 n=g5 v=0
152988 On ch=1 n=e5 v=0
153000 On ch=1 n=c#4 v=0
153012 On ch=1 n=c4 v=60
153136 On ch=1 n=a#3 v=60
153176 On ch=1 n=c4 v=0
153252 On ch=1 n=g3 v=61
153260 On ch=1 n=a#3 v=0
153380 On ch=1 n=g#3 v=60
153396 On ch=1 n=g3 v=0
153488 On ch=1 n=g#3 v=0
153496 On ch=1 n=g3 v=59
153612 On ch=1 n=f3 v=61
153616 On ch=1 n=c6 v=82
153616 On ch=1 n=c5 v=57
153616 On ch=1 n=g#5 v=68
153616 On ch=1 n=g5 v=49
153644 On ch=1 n=g3 v=0
153656 Par ch=1 c=64 v=127
153732 On ch=1 n=c3 v=54
153740 On ch=1 n=f3 v=0
153852 On ch=1 n=f3 v=54
153876 On ch=1 n=c3 v=0
153968 On ch=1 n=c3 v=54
153976 On ch=1 n=f3 v=0
154096 On ch=1 n=f3 v=58
154108 On ch=1 n=c3 v=0
154220 On ch=1 n=c3 v=60
154224 On ch=1 n=f3 v=0
154264 On ch=1 n=g5 v=0
154336 On ch=1 n=f3 v=60
154352 On ch=1 n=c3 v=0
154448 On ch=1 n=c3 v=63
154452 On ch=1 n=f3 v=0
154568 On ch=1 n=f3 v=64
154572 On ch=1 n=f5 v=68
154584 On ch=1 n=c3 v=0
154684 On ch=1 n=c3 v=65
154692 On ch=1 n=f3 v=0
154736 On ch=1 n=c6 v=0
154816 On ch=1 n=f3 v=66
154836 On ch=1 n=c3 v=0
154936 On ch=1 n=c3 v=69
154940 On ch=1 n=f3 v=0
155044 On ch=1 n=b5 v=69
155052 On ch=1 n=d6 v=78
155056 On ch=1 n=f3 v=72
155076 On ch=1 n=c3 v=0
155176 On ch=1 n=c3 v=76
155180 On ch=1 n=f3 v=0
155248 On ch=1 n=f5 v=0
155264 On ch=1 n=c5 v=0
155272 On ch=1 n=b5 v=0
155276 On ch=1 n=d6 v=0
155296 On ch=1 n=f3 v=81
155300 On ch=1 n=g#5 v=0
155312 On ch=1 n=c3 v=0
155360 Par ch=1 c=64 v=0
155412 On ch=1 n=c3 v=84
155428 On ch=1 n=f3 v=0
155524 Par ch=1 c=64 v=127
155540 On ch=1 n=e5 v=84
155544 On ch=1 n=g5 v=70
155544 On ch=1 n=e6 v=88
155548 On ch=1 n=c6 v=66
155548 On ch=1 n=c4 v=90
155576 On ch=1 n=c3 v=0
155636 On ch=1 n=e5 v=0
155644 On ch=1 n=c4 v=0
155644 On ch=1 n=c6 v=0
155648 On ch=1 n=e6 v=0
155648 On ch=1 n=g5 v=0
155768 On ch=1 n=g#6 v=84
155808 On ch=1 n=g#7 v=86
155868 On ch=1 n=g#6 v=0
155888 On ch=1 n=g6 v=83
155912 On ch=1 n=g7 v=85
155924 On ch=1 n=g#7 v=0
156008 On ch=1 n=e6 v=91
156020 On ch=1 n=g7 v=0
156020 On ch=1 n=g6 v=0
156024 On ch=1 n=e7 v=92
156128 On ch=1 n=c6 v=88
156136 On ch=1 n=c7 v=86
156140 On ch=1 n=e7 v=0
156140 On ch=1 n=e6 v=0
156248 On ch=1 n=c#6 v=87
156252 On ch=1 n=c6 v=0
156260 On ch=1 n=c#7 v=87
156280 On ch=1 n=c7 v=0
156360 On ch=1 n=c6 v=86
156364 On ch=1 n=c#6 v=0
156364 On ch=1 n=c7 v=89
156368 On ch=1 n=c#7 v=0
156480 On ch=1 n=a#5 v=90
156488 On ch=1 n=c7 v=0
156488 On ch=1 n=a#6 v=90
156512 On ch=1 n=c6 v=0
156596 On ch=1 n=a#6 v=0
156596 On ch=1 n=g5 v=87
156600 On ch=1 n=g6 v=87
156608 On ch=1 n=a#5 v=0
156720 On ch=1 n=g#5 v=87
156732 On ch=1 n=g5 v=0
156732 On ch=1 n=g#6 v=85
156752 On ch=1 n=g6 v=0
156836 On ch=1 n=g6 v=87
156840 On ch=1 n=g#5 v=0
156840 On ch=1 n=g5 v=87
156852 On ch=1 n=g#6 v=0
156952 On ch=1 n=e5 v=92
156976 On ch=1 n=g6 v=0
156976 On ch=1 n=e6 v=92
156980 On ch=1 n=g5 v=0
157076 On ch=1 n=c5 v=85
157084 On ch=1 n=e6 v=0
157092 On ch=1 n=e5 v=0
157092 On ch=1 n=c6 v=86
157200 On ch=1 n=c#5 v=84
157216 On ch=1 n=c5 v=0
157216 On ch=1 n=c#6 v=89
157240 On ch=1 n=c6 v=0
157312 On ch=1 n=c5 v=87
157316 On ch=1 n=c6 v=89
157320 On ch=1 n=c#5 v=0
157332 On ch=1 n=c#6 v=0
157436 On ch=1 n=a#4 v=90
157444 On ch=1 n=c6 v=0
157444 On ch=1 n=a#5 v=94
157464 On ch=1 n=c5 v=0
157544 On ch=1 n=g4 v=85
157552 On ch=1 n=a#5 v=0
157560 On ch=1 n=g5 v=88
157568 On ch=1 n=a#4 v=0
157672 On ch=1 n=g#4 v=86
157684 On ch=1 n=g4 v=0
157688 On ch=1 n=g#5 v=87
157708 On ch=1 n=g5 v=0
157788 On ch=1 n=g4 v=85
157792 On ch=1 n=g#4 v=0
157792 On ch=1 n=g5 v=87
157816 On ch=1 n=g#5 v=0
157908 On ch=1 n=e4 v=89
157916 On ch=1 n=e5 v=94
157924 On ch=1 n=g5 v=0
157936 On ch=1 n=g4 v=0
158028 On ch=1 n=e5 v=0
158036 On ch=1 n=c4 v=83
158040 On ch=1 n=c5 v=87
158048 On ch=1 n=e4 v=0
158164 On ch=1 n=c#4 v=86
158168 On ch=1 n=c#5 v=87
158176 On ch=1 n=c4 v=0
158188 On ch=1 n=c5 v=0
158276 On ch=1 n=c#4 v=0
158276 On ch=1 n=c4 v=86
158280 On ch=1 n=c5 v=86
158300 On ch=1 n=c#5 v=0
158404 On ch=1 n=a#3 v=90
158412 Par ch=1 c=64 v=0
158416 On ch=1 n=c5 v=0
158416 On ch=1 n=a#4 v=92
158432 On ch=1 n=c4 v=0
158512 On ch=1 n=g3 v=84
158524 On ch=1 n=a#4 v=0
158536 On ch=1 n=a#3 v=0
158536 On ch=1 n=g4 v=86
158640 On ch=1 n=g#3 v=83
158644 On ch=1 n=g3 v=0
158656 On ch=1 n=g#4 v=86
158688 On ch=1 n=g4 v=0
158752 On ch=1 n=g#3 v=0
158756 On ch=1 n=g3 v=85
158764 On ch=1 n=g4 v=86
158808 On ch=1 n=g#4 v=0
158880 On ch=1 n=e3 v=88
158904 On ch=1 n=e4 v=92
158908 On ch=1 n=g4 v=0
158920 On ch=1 n=g3 v=0
158996 On ch=1 n=c3 v=85
159000 On ch=1 n=e4 v=0
159008 On ch=1 n=e3 v=0
159008 On ch=1 n=c4 v=86
159124 On ch=1 n=c#3 v=86
159132 On ch=1 n=c3 v=0
159140 On ch=1 n=c#4 v=85
159148 On ch=1 n=c4 v=0
159236 On ch=1 n=c3 v=86
159244 On ch=1 n=c#3 v=0
159252 On ch=1 n=c#4 v=0
159256 On ch=1 n=c4 v=84
159316 On ch=1 n=c4 v=0
159360 On ch=1 n=c3 v=0
159360 On ch=1 n=f4 v=77
159360 On ch=1 n=f3 v=89
159360 On ch=1 n=c4 v=94
159360 On ch=1 n=a4 v=89
159360 On ch=1 n=f2 v=93
159360 On ch=1 n=c5 v=93
159400 Par ch=1 c=64 v=127
160164 On ch=1 n=c4 v=0
160164 On ch=1 n=f4 v=0
160172 On ch=1 n=c5 v=0
160172 On ch=1 n=f2 v=0
160172 On ch=1 n=a4 v=0
160180 Par ch=1 c=64 v=0
160184 On ch=1 n=f3 v=0
160320 On ch=1 n=f2 v=96
160320 On ch=1 n=c5 v=91
160320 On ch=1 n=c4 v=92
160320 On ch=1 n=f3 v=93
160320 On ch=1 n=g#4 v=87
160320 On ch=1 n=f4 v=70
160376 Par ch=1 c=64 v=127
161004 On ch=1 n=f3 v=0
161044 On ch=1 n=f2 v=0
161072 On ch=1 n=c5 v=0
161080 Par ch=1 c=64 v=1
161088 Par ch=1 c=64 v=0
161100 On ch=1 n=c4 v=0
161112 On ch=1 n=g#4 v=0
161116 On ch=1 n=f4 v=0
161280 On ch=1 n=c4 v=93
161280 On ch=1 n=c2 v=96
161280 On ch=1 n=c3 v=93
161280 On ch=1 n=f4 v=92
161280 On ch=1 n=g4 v=73
161280 On ch=1 n=c5 v=93
161388 On ch=1 n=c3 v=0
161388 On ch=1 n=c2 v=0
161412 On ch=1 n=c5 v=0
161412 On ch=1 n=c4 v=0
161420 On ch=1 n=g4 v=0
161432 On ch=1 n=f4 v=0
161760 On ch=1 n=c5 v=94
161760 On ch=1 n=g4 v=73
161760 On ch=1 n=c2 v=97
161760 On ch=1 n=e4 v=94
161760 On ch=1 n=c3 v=94
161760 On ch=1 n=c4 v=93
161876 On ch=1 n=c4 v=0
161876 On ch=1 n=c3 v=0
161880 On ch=1 n=e4 v=0
161880 On ch=1 n=c2 v=0
161880 On ch=1 n=g4 v=0
161880 On ch=1 n=c5 v=0
161880 Meta TrkEnd
TrkEnd
MTrk
0 SeqSpec 43 00 01 00
0 Meta TrkName "In C Minor"
0 Meta 0x21 00
0 Meta TrkEnd
TrkEnd
MTrk
0 SeqSpec 43 00 01 00
0 Meta TrkName "Op. 10, No. 12"
0 Meta 0x21 00
0 Meta TrkEnd
TrkEnd
MTrk
0 SeqSpec 43 00 01 00
0 Meta TrkName "Chopin, Frederic"
0 Meta 0x21 00
0 Meta TrkEnd
TrkEnd
MTrk
0 SeqSpec 43 00 01 00
0 Meta TrkName "Sequenced by Anousone Kitisa"
0 Meta 0x21 00
0 Meta TrkEnd
TrkEnd
