MFile 1 7 480
MTrk
0 TimeSig 4/4 24 8
0 KeySig -1 major
0 Tempo 340909
109440 Tempo 344828
109600 Tempo 345821
109760 Tempo 346821
109920 Tempo 347826
110080 Tempo 348837
110240 Tempo 349854
110400 Tempo 350877
110560 Tempo 351906
110720 Tempo 352941
110880 Tempo 353982
111040 Tempo 355030
111200 Tempo 356083
111360 Tempo 357143
111840 Tempo 340909
143984 Tempo 352941
144064 Tempo 353982
144144 Tempo 355030
144212 Tempo 356083
144292 Tempo 357143
144372 Tempo 358209
144440 Tempo 359281
144520 Tempo 360360
144600 Tempo 361446
144664 Tempo 362538
144744 Tempo 363636
144824 Tempo 364742
144892 Tempo 365854
144972 Tempo 366972
145040 Tempo 368098
145120 Tempo 369231
145200 Tempo 370370
145264 Tempo 371517
145344 Tempo 372671
145424 Tempo 373832
145492 Tempo 375000
145572 Tempo 376176
145652 Tempo 377358
145720 Tempo 378549
145800 Tempo 379747
145864 Tempo 380952
145932 Tempo 340909
172800 Tempo 389610
173064 Tempo 517241
173264 Tempo 340909
182704 Tempo 437956
183760 Tempo 412371
184224 Tempo 359281
184544 Tempo 372671
184544 Meta TrkEnd
TrkEnd
MTrk
0 SeqSpec 43 00 01 00
0 SysEx f0 41 10 42 12 40 00 7f 00 41 f7
0 SysEx f0 41 10 42 12 40 01 30 03 0c f7
0 Meta TrkEnd
TrkEnd
MTrk
0 SeqSpec 43 00 01 00
0 Meta TrkName "Etude No. 8"
0 Meta 0x21 00
480 Par ch=1 c=0 v=0
480 Par ch=1 c=91 v=80
480 Par ch=1 c=0 v=0
480 Par ch=1 c=93 v=20
488 PrCh ch=1 p=0
492 Par ch=1 c=7 v=127
3260 On ch=1 n=c7 v=68
3336 On ch=1 n=c7 v=0
3348 On ch=1 n=d7 v=68
3440 On ch=1 n=c7 v=66
3464 On ch=1 n=d7 v=0
3532 On ch=1 n=d7 v=61
3556 On ch=1 n=c7 v=0
3608 On ch=1 n=c7 v=72
3648 On ch=1 n=d7 v=0
3668 On ch=1 n=b6 v=63
3704 On ch=1 n=c7 v=0
3756 On ch=1 n=c7 v=80
3780 Par ch=1 c=64 v=127
3788 On ch=1 n=b6 v=0
3840 On ch=1 n=a7 v=72
3852 On ch=1 n=c7 v=0
3852 On ch=1 n=f3 v=74
3856 On ch=1 n=c4 v=89
3948 On ch=1 n=a7 v=0
3960 On ch=1 n=g7 v=59
4068 On ch=1 n=g7 v=0
4080 On ch=1 n=f7 v=60
4188 On ch=1 n=f7 v=0
4200 On ch=1 n=c7 v=64
4308 On ch=1 n=c7 v=0
4320 On ch=1 n=a6 v=72
4428 On ch=1 n=a6 v=0
4440 On ch=1 n=g6 v=57
4500 On ch=1 n=c4 v=0
4548 On ch=1 n=g6 v=0
4560 On ch=1 n=f6 v=59
4668 On ch=1 n=f6 v=0
4680 On ch=1 n=c6 v=60
4760 Par ch=1 c=64 v=0
4788 On ch=1 n=c6 v=0
4796 On ch=1 n=b3 v=72
4800 On ch=1 n=a5 v=68
4836 On ch=1 n=c4 v=100
4896 On ch=1 n=b3 v=0
4908 On ch=1 n=a5 v=0
4920 On ch=1 n=g5 v=61
4944 On ch=1 n=c4 v=0
5028 On ch=1 n=g5 v=0
5040 On ch=1 n=f5 v=55
5148 On ch=1 n=f5 v=0
5160 On ch=1 n=c5 v=52
5268 On ch=1 n=c5 v=0
5272 On ch=1 n=c4 v=87
5280 On ch=1 n=a4 v=69
5340 On ch=1 n=c4 v=0
5388 On ch=1 n=a4 v=0
5400 On ch=1 n=g4 v=60
5508 On ch=1 n=g4 v=0
5520 On ch=1 n=f4 v=62
5604 On ch=1 n=f3 v=0
5628 On ch=1 n=f4 v=0
5640 On ch=1 n=c4 v=58
5748 On ch=1 n=c4 v=0
5748 On ch=1 n=f3 v=92
5756 On ch=1 n=f2 v=94
5760 On ch=1 n=f4 v=72
5868 On ch=1 n=f4 v=0
5880 On ch=1 n=g4 v=64
5988 On ch=1 n=g4 v=0
6000 On ch=1 n=a4 v=63
6004 On ch=1 n=f2 v=0
6008 On ch=1 n=f3 v=0
6108 On ch=1 n=a4 v=0
6120 On ch=1 n=c5 v=62
6224 On ch=1 n=d4 v=91
6228 On ch=1 n=c5 v=0
6240 On ch=1 n=f5 v=71
6348 On ch=1 n=f5 v=0
6360 On ch=1 n=g5 v=62
6468 On ch=1 n=g5 v=0
6480 On ch=1 n=a5 v=63
6576 On ch=1 n=c4 v=80
6588 On ch=1 n=a5 v=0
6592 On ch=1 n=d4 v=0
6600 On ch=1 n=c6 v=60
6688 Par ch=1 c=64 v=127
6692 On ch=1 n=c4 v=0
6708 On ch=1 n=c6 v=0
6716 On ch=1 n=a4 v=84
6720 On ch=1 n=f6 v=69
6828 On ch=1 n=f6 v=0
6840 On ch=1 n=g6 v=51
6948 On ch=1 n=g6 v=0
6960 On ch=1 n=a6 v=60
7068 On ch=1 n=a6 v=0
7080 On ch=1 n=c7 v=59
7176 Par ch=1 c=64 v=0
7180 On ch=1 n=f4 v=80
7188 On ch=1 n=c7 v=0
7200 On ch=1 n=f7 v=72
7216 On ch=1 n=a4 v=0
7308 On ch=1 n=f7 v=0
7320 On ch=1 n=g7 v=61
7428 On ch=1 n=g7 v=0
7440 On ch=1 n=a7 v=63
7528 On ch=1 n=a3 v=79
7536 On ch=1 n=f4 v=0
7548 On ch=1 n=a7 v=0
7560 On ch=1 n=g7 v=61
7648 Par ch=1 c=64 v=127
7668 On ch=1 n=g7 v=0
7668 On ch=1 n=f3 v=71
7672 On ch=1 n=c4 v=86
7680 On ch=1 n=f7 v=71
7696 On ch=1 n=a3 v=0
7788 On ch=1 n=f7 v=0
7800 On ch=1 n=c7 v=55
7908 On ch=1 n=c7 v=0
7920 On ch=1 n=a6 v=58
8028 On ch=1 n=a6 v=0
8040 On ch=1 n=g6 v=62
8148 On ch=1 n=g6 v=0
8160 On ch=1 n=f6 v=70
8268 On ch=1 n=f6 v=0
8280 On ch=1 n=c6 v=56
8388 On ch=1 n=c6 v=0
8400 On ch=1 n=a5 v=57
8460 On ch=1 n=c4 v=0
8508 On ch=1 n=a5 v=0
8520 On ch=1 n=g5 v=62
8560 Par ch=1 c=64 v=0
8616 On ch=1 n=b3 v=76
8628 On ch=1 n=g5 v=0
8640 On ch=1 n=f5 v=71
8660 On ch=1 n=c4 v=77
8720 On ch=1 n=b3 v=0
8748 On ch=1 n=f5 v=0
8760 On ch=1 n=c5 v=62
8764 On ch=1 n=c4 v=0
8868 On ch=1 n=c5 v=0
8880 On ch=1 n=a4 v=60
8988 On ch=1 n=a4 v=0
9000 On ch=1 n=g4 v=60
9104 On ch=1 n=c4 v=76
9108 On ch=1 n=g4 v=0
9120 On ch=1 n=f4 v=71
9180 On ch=1 n=c4 v=0
9228 On ch=1 n=f4 v=0
9240 On ch=1 n=c4 v=56
9348 On ch=1 n=c4 v=0
9360 On ch=1 n=f4 v=65
9408 On ch=1 n=f3 v=0
9468 On ch=1 n=f4 v=0
9480 On ch=1 n=a4 v=63
9544 Par ch=1 c=64 v=127
9588 On ch=1 n=a4 v=0
9600 On ch=1 n=g4 v=70
9612 On ch=1 n=e2 v=70
9616 On ch=1 n=e3 v=71
9708 On ch=1 n=g4 v=0
9720 On ch=1 n=c4 v=51
9828 On ch=1 n=c4 v=0
9840 On ch=1 n=g4 v=60
9888 On ch=1 n=e2 v=0
9904 On ch=1 n=e3 v=0
9948 On ch=1 n=g4 v=0
9960 On ch=1 n=a4 v=58
10048 Par ch=1 c=64 v=0
10060 On ch=1 n=d4 v=79
10068 On ch=1 n=a4 v=0
10080 On ch=1 n=a#4 v=72
10188 On ch=1 n=a#4 v=0
10200 On ch=1 n=c5 v=60
10308 On ch=1 n=c5 v=0
10320 On ch=1 n=g5 v=67
10428 On ch=1 n=g5 v=0
10440 On ch=1 n=a5 v=60
10440 On ch=1 n=c4 v=76
10444 On ch=1 n=d4 v=0
10536 Par ch=1 c=64 v=127
10548 On ch=1 n=a5 v=0
10560 On ch=1 n=a#5 v=70
10564 On ch=1 n=g4 v=92
10600 On ch=1 n=c4 v=0
10668 On ch=1 n=a#5 v=0
10680 On ch=1 n=c6 v=54
10788 On ch=1 n=c6 v=0
10800 On ch=1 n=g6 v=57
10908 On ch=1 n=g6 v=0
10920 On ch=1 n=a6 v=60
11028 On ch=1 n=a6 v=0
11040 On ch=1 n=a#6 v=70
11040 On ch=1 n=d5 v=92
11056 Par ch=1 c=64 v=0
11116 On ch=1 n=d5 v=0
11148 On ch=1 n=a#6 v=0
11152 On ch=1 n=g4 v=0
11160 On ch=1 n=c7 v=56
11268 On ch=1 n=c7 v=0
11280 On ch=1 n=g7 v=60
11360 On ch=1 n=e3 v=70
11388 On ch=1 n=g7 v=0
11396 Par ch=1 c=64 v=127
11400 On ch=1 n=a7 v=62
11460 On ch=1 n=e3 v=0
11472 On ch=1 n=c4 v=84
11508 On ch=1 n=a7 v=0
11520 On ch=1 n=a#7 v=74
11628 On ch=1 n=a#7 v=0
11628 On ch=1 n=c5 v=86
11640 On ch=1 n=a7 v=60
11748 On ch=1 n=a7 v=0
11760 On ch=1 n=g7 v=57
11868 On ch=1 n=g7 v=0
11880 On ch=1 n=c7 v=58
11924 On ch=1 n=c4 v=0
11988 On ch=1 n=c7 v=0
12000 On ch=1 n=a#6 v=72
12024 On ch=1 n=c5 v=0
12108 On ch=1 n=a#6 v=0
12120 On ch=1 n=a6 v=64
12228 On ch=1 n=a6 v=0
12240 On ch=1 n=g6 v=60
12304 Par ch=1 c=64 v=0
12348 On ch=1 n=g6 v=0
12360 On ch=1 n=c6 v=60
12468 On ch=1 n=c6 v=0
12480 On ch=1 n=a#5 v=72
12504 On ch=1 n=b3 v=68
12532 On ch=1 n=c4 v=86
12568 On ch=1 n=b3 v=0
12588 On ch=1 n=a#5 v=0
12600 On ch=1 n=a5 v=59
12616 On ch=1 n=c4 v=0
12708 On ch=1 n=a5 v=0
12720 On ch=1 n=g5 v=62
12828 On ch=1 n=g5 v=0
12840 On ch=1 n=c5 v=59
12948 On ch=1 n=c5 v=0
12960 On ch=1 n=a#4 v=71
12960 On ch=1 n=c4 v=82
13028 On ch=1 n=c4 v=0
13068 On ch=1 n=a#4 v=0
13080 On ch=1 n=a4 v=61
13188 On ch=1 n=a4 v=0
13200 On ch=1 n=g4 v=66
13308 On ch=1 n=g4 v=0
13320 On ch=1 n=c4 v=58
13408 Par ch=1 c=64 v=127
13428 On ch=1 n=c4 v=0
13428 On ch=1 n=e2 v=79
13432 On ch=1 n=e3 v=79
13440 On ch=1 n=g4 v=69
13548 On ch=1 n=g4 v=0
13560 On ch=1 n=a4 v=60
13664 On ch=1 n=e2 v=0
13668 On ch=1 n=a4 v=0
13668 On ch=1 n=e3 v=0
13680 On ch=1 n=a#4 v=57
13788 On ch=1 n=a#4 v=0
13800 On ch=1 n=c5 v=61
13864 Par ch=1 c=64 v=0
13900 On ch=1 n=d4 v=86
13908 On ch=1 n=c5 v=0
13920 On ch=1 n=g5 v=72
14028 On ch=1 n=g5 v=0
14040 On ch=1 n=a5 v=56
14148 On ch=1 n=a5 v=0
14160 On ch=1 n=a#5 v=60
14252 On ch=1 n=d4 v=0
14268 On ch=1 n=a#5 v=0
14268 On ch=1 n=c4 v=81
14280 On ch=1 n=c6 v=59
14380 Par ch=1 c=64 v=127
14388 On ch=1 n=c6 v=0
14396 On ch=1 n=c4 v=0
14396 On ch=1 n=a#4 v=93
14400 On ch=1 n=g6 v=70
14508 On ch=1 n=g6 v=0
14520 On ch=1 n=a6 v=60
14628 On ch=1 n=a6 v=0
14640 On ch=1 n=a#6 v=60
14716 On ch=1 n=a#4 v=0
14748 On ch=1 n=a#6 v=0
14760 On ch=1 n=c7 v=58
14856 Par ch=1 c=64 v=0
14868 On ch=1 n=c7 v=0
14872 On ch=1 n=g4 v=78
14880 On ch=1 n=g7 v=70
14988 On ch=1 n=g7 v=0
15000 On ch=1 n=a7 v=62
15100 On ch=1 n=g4 v=0
15108 On ch=1 n=a7 v=0
15120 On ch=1 n=a#7 v=64
15212 On ch=1 n=g3 v=80
15228 On ch=1 n=a#7 v=0
15240 On ch=1 n=a7 v=58
15340 On ch=1 n=g3 v=0
15344 On ch=1 n=c4 v=83
15348 On ch=1 n=a7 v=0
15348 On ch=1 n=e3 v=71
15352 Par ch=1 c=64 v=127
15360 On ch=1 n=g7 v=72
15468 On ch=1 n=g7 v=0
15480 On ch=1 n=c7 v=65
15588 On ch=1 n=c7 v=0
15600 On ch=1 n=a#6 v=54
15708 On ch=1 n=a#6 v=0
15720 On ch=1 n=a6 v=58
15828 On ch=1 n=a6 v=0
15840 On ch=1 n=g6 v=70
15948 On ch=1 n=g6 v=0
15960 On ch=1 n=c6 v=62
16068 On ch=1 n=c6 v=0
16080 On ch=1 n=a#5 v=61
16148 On ch=1 n=c4 v=0
16188 On ch=1 n=a#5 v=0
16200 On ch=1 n=a5 v=61
16244 Par ch=1 c=64 v=0
16308 On ch=1 n=a5 v=0
16320 On ch=1 n=g5 v=68
16336 On ch=1 n=b3 v=75
16380 On ch=1 n=c4 v=82
16424 On ch=1 n=b3 v=0
16428 On ch=1 n=g5 v=0
16440 On ch=1 n=c5 v=57
16464 On ch=1 n=c4 v=0
16548 On ch=1 n=c5 v=0
16560 On ch=1 n=a#4 v=55
16668 On ch=1 n=a#4 v=0
16680 On ch=1 n=a4 v=59
16788 On ch=1 n=a4 v=0
16800 On ch=1 n=g4 v=69
16804 On ch=1 n=c4 v=80
16868 On ch=1 n=c4 v=0
16908 On ch=1 n=g4 v=0
16920 On ch=1 n=c4 v=57
17028 On ch=1 n=c4 v=0
17040 On ch=1 n=g4 v=56
17044 On ch=1 n=e3 v=0
17148 On ch=1 n=g4 v=0
17160 On ch=1 n=a#4 v=62
17268 On ch=1 n=a#4 v=0
17280 On ch=1 n=a4 v=66
17288 Par ch=1 c=64 v=127
17304 On ch=1 n=f3 v=83
17308 On ch=1 n=f2 v=83
17388 On ch=1 n=a4 v=0
17400 On ch=1 n=c4 v=59
17472 On ch=1 n=f3 v=0
17504 On ch=1 n=f2 v=0
17508 On ch=1 n=c4 v=0
17520 On ch=1 n=f4 v=54
17628 On ch=1 n=f4 v=0
17640 On ch=1 n=g4 v=55
17748 On ch=1 n=g4 v=0
17760 On ch=1 n=a4 v=70
17764 On ch=1 n=d4 v=91
17772 Par ch=1 c=64 v=0
17868 On ch=1 n=a4 v=0
17880 On ch=1 n=c5 v=57
17988 On ch=1 n=c5 v=0
18000 On ch=1 n=f5 v=55
18104 On ch=1 n=d4 v=0
18104 On ch=1 n=c4 v=78
18108 On ch=1 n=f5 v=0
18120 On ch=1 n=g5 v=60
18220 On ch=1 n=f4 v=89
18228 On ch=1 n=g5 v=0
18240 On ch=1 n=a5 v=66
18252 Par ch=1 c=64 v=127
18256 On ch=1 n=c4 v=0
18348 On ch=1 n=a5 v=0
18360 On ch=1 n=c6 v=52
18468 On ch=1 n=c6 v=0
18480 On ch=1 n=f6 v=53
18588 On ch=1 n=f6 v=0
18600 On ch=1 n=g6 v=64
18696 On ch=1 n=f4 v=0
18708 On ch=1 n=g6 v=0
18708 On ch=1 n=f5 v=94
18712 Par ch=1 c=64 v=0
18720 On ch=1 n=a6 v=69
18828 On ch=1 n=a6 v=0
18840 On ch=1 n=c7 v=65
18948 On ch=1 n=c7 v=0
18960 On ch=1 n=f7 v=56
18992 On ch=1 n=f5 v=0
19068 On ch=1 n=f7 v=0
19080 On ch=1 n=a7 v=56
19168 Par ch=1 c=64 v=127
19188 On ch=1 n=a7 v=0
19192 On ch=1 n=f4 v=60
19196 On ch=1 n=f5 v=68
19200 On ch=1 n=g7 v=60
19200 On ch=1 n=d5 v=75
19204 On ch=1 n=a#4 v=75
19308 On ch=1 n=g7 v=0
19320 On ch=1 n=f7 v=67
19428 On ch=1 n=f7 v=0
19440 On ch=1 n=d7 v=61
19548 On ch=1 n=d7 v=0
19560 On ch=1 n=a#6 v=62
19668 On ch=1 n=a#6 v=0
19680 On ch=1 n=g6 v=60
19788 On ch=1 n=g6 v=0
19800 On ch=1 n=f6 v=66
19884 On ch=1 n=d5 v=0
19892 On ch=1 n=a#4 v=0
19908 On ch=1 n=f6 v=0
19912 On ch=1 n=f5 v=0
19920 On ch=1 n=f4 v=0
19920 On ch=1 n=d6 v=64
20028 On ch=1 n=d6 v=0
20040 On ch=1 n=a#5 v=57
20140 On ch=1 n=c5 v=70
20144 Par ch=1 c=64 v=0
20144 On ch=1 n=f5 v=59
20148 On ch=1 n=a#5 v=0
20152 On ch=1 n=a4 v=72
20156 On ch=1 n=f4 v=62
20160 On ch=1 n=c6 v=70
20264 On ch=1 n=c5 v=0
20268 On ch=1 n=c6 v=0
20276 On ch=1 n=a4 v=0
20280 On ch=1 n=f4 v=0
20280 On ch=1 n=f6 v=56
20288 On ch=1 n=f5 v=0
20388 On ch=1 n=f6 v=0
20400 On ch=1 n=g6 v=60
20508 On ch=1 n=g6 v=0
20520 On ch=1 n=a6 v=55
20608 On ch=1 n=f5 v=70
20612 On ch=1 n=c5 v=78
20616 On ch=1 n=a4 v=78
20620 On ch=1 n=f4 v=66
20628 On ch=1 n=a6 v=0
20640 On ch=1 n=c7 v=72
20728 On ch=1 n=a4 v=0
20728 On ch=1 n=c5 v=0
20732 On ch=1 n=f4 v=0
20748 On ch=1 n=c7 v=0
20748 On ch=1 n=f5 v=0
20760 On ch=1 n=f7 v=56
20868 On ch=1 n=f7 v=0
20880 On ch=1 n=g7 v=54
20988 On ch=1 n=g7 v=0
21000 On ch=1 n=a7 v=58
21056 Par ch=1 c=64 v=127
21108 On ch=1 n=a7 v=0
21108 On ch=1 n=d5 v=76
21112 On ch=1 n=a#4 v=75
21116 On ch=1 n=f5 v=71
21120 On ch=1 n=g7 v=56
21120 On ch=1 n=f4 v=58
21228 On ch=1 n=g7 v=0
21240 On ch=1 n=f7 v=59
21348 On ch=1 n=f7 v=0
21360 On ch=1 n=d7 v=56
21468 On ch=1 n=d7 v=0
21480 On ch=1 n=a#6 v=56
21588 On ch=1 n=a#6 v=0
21600 On ch=1 n=g6 v=64
21708 On ch=1 n=g6 v=0
21720 On ch=1 n=f6 v=55
21828 On ch=1 n=f6 v=0
21840 On ch=1 n=d6 v=55
21860 On ch=1 n=a#4 v=0
21860 On ch=1 n=d5 v=0
21872 On ch=1 n=f5 v=0
21888 On ch=1 n=f4 v=0
21948 On ch=1 n=d6 v=0
21960 On ch=1 n=a#5 v=57
22056 Par ch=1 c=64 v=0
22068 On ch=1 n=a#5 v=0
22072 On ch=1 n=c5 v=65
22076 On ch=1 n=f5 v=64
22080 On ch=1 n=c6 v=70
22080 On ch=1 n=a4 v=68
22084 On ch=1 n=f4 v=58
22184 On ch=1 n=c5 v=0
22188 On ch=1 n=c6 v=0
22192 On ch=1 n=a4 v=0
22200 On ch=1 n=f6 v=56
22212 On ch=1 n=f4 v=0
22212 On ch=1 n=f5 v=0
22308 On ch=1 n=f6 v=0
22320 On ch=1 n=g6 v=53
22428 On ch=1 n=g6 v=0
22440 On ch=1 n=a6 v=55
22548 On ch=1 n=a6 v=0
22560 On ch=1 n=c7 v=72
22564 On ch=1 n=f5 v=67
22568 On ch=1 n=c5 v=73
22572 On ch=1 n=f4 v=68
22580 On ch=1 n=a4 v=73
22668 On ch=1 n=c7 v=0
22680 On ch=1 n=f7 v=60
22688 On ch=1 n=c5 v=0
22692 On ch=1 n=f5 v=0
22700 On ch=1 n=f4 v=0
22704 On ch=1 n=a4 v=0
22788 On ch=1 n=f7 v=0
22800 On ch=1 n=g7 v=62
22908 On ch=1 n=g7 v=0
22920 On ch=1 n=a7 v=60
23024 Par ch=1 c=64 v=127
23028 On ch=1 n=a7 v=0
23040 On ch=1 n=g7 v=69
23048 On ch=1 n=f5 v=75
23052 On ch=1 n=b4 v=82
23056 On ch=1 n=g4 v=71
23148 On ch=1 n=g7 v=0
23160 On ch=1 n=a7 v=54
23268 On ch=1 n=a7 v=0
23280 On ch=1 n=g7 v=58
23388 On ch=1 n=g7 v=0
23400 On ch=1 n=f7 v=62
23508 On ch=1 n=f7 v=0
23520 On ch=1 n=d7 v=72
23628 On ch=1 n=d7 v=0
23640 On ch=1 n=b6 v=62
23748 On ch=1 n=b6 v=0
23760 On ch=1 n=c7 v=63
23868 On ch=1 n=c7 v=0
23880 On ch=1 n=a6 v=62
23988 On ch=1 n=a6 v=0
24000 On ch=1 n=g6 v=71
24040 On ch=1 n=d5 v=59
24060 On ch=1 n=b4 v=0
24108 On ch=1 n=g6 v=0
24120 On ch=1 n=a6 v=58
24228 On ch=1 n=a6 v=0
24240 On ch=1 n=g6 v=60
24348 On ch=1 n=g6 v=0
24360 On ch=1 n=f6 v=62
24420 On ch=1 n=d5 v=0
24420 On ch=1 n=f5 v=0
24448 On ch=1 n=g4 v=0
24468 On ch=1 n=f6 v=0
24480 On ch=1 n=d6 v=73
24492 Par ch=1 c=64 v=0
24588 On ch=1 n=d6 v=0
24600 On ch=1 n=b5 v=60
24708 On ch=1 n=b5 v=0
24720 On ch=1 n=c6 v=66
24828 On ch=1 n=c6 v=0
24840 On ch=1 n=a5 v=62
24948 On ch=1 n=a5 v=0
24960 On ch=1 n=g5 v=74
25068 On ch=1 n=g5 v=0
25080 On ch=1 n=a5 v=58
25188 On ch=1 n=a5 v=0
25200 On ch=1 n=g5 v=60
25308 On ch=1 n=g5 v=0
25320 On ch=1 n=f5 v=59
25428 On ch=1 n=f5 v=0
25440 On ch=1 n=d5 v=64
25548 On ch=1 n=d5 v=0
25560 On ch=1 n=b4 v=55
25668 On ch=1 n=b4 v=0
25680 On ch=1 n=c5 v=57
25788 On ch=1 n=c5 v=0
25800 On ch=1 n=a4 v=54
25908 On ch=1 n=a4 v=0
25920 On ch=1 n=g4 v=58
26028 On ch=1 n=g4 v=0
26040 On ch=1 n=a4 v=56
26148 On ch=1 n=a4 v=0
26160 On ch=1 n=g4 v=53
26268 On ch=1 n=g4 v=0
26280 On ch=1 n=f4 v=56
26376 On ch=1 n=g3 v=63
26388 On ch=1 n=f4 v=0
26400 On ch=1 n=d4 v=54
26508 On ch=1 n=d4 v=0
26520 On ch=1 n=f4 v=56
26628 On ch=1 n=f4 v=0
26640 On ch=1 n=e4 v=52
26748 On ch=1 n=e4 v=0
26756 On ch=1 n=g3 v=0
26760 On ch=1 n=d4 v=58
26836 Par ch=1 c=64 v=127
26868 On ch=1 n=d4 v=0
26872 On ch=1 n=c3 v=68
26876 On ch=1 n=g3 v=74
26880 On ch=1 n=c4 v=49
26988 On ch=1 n=c4 v=0
27000 On ch=1 n=a4 v=48
27108 On ch=1 n=a4 v=0
27120 On ch=1 n=g4 v=47
27228 On ch=1 n=g4 v=0
27240 On ch=1 n=b4 v=46
27316 Par ch=1 c=64 v=0
27348 On ch=1 n=b4 v=0
27360 On ch=1 n=c5 v=56
27468 On ch=1 n=c5 v=0
27480 On ch=1 n=a5 v=47
27588 On ch=1 n=a5 v=0
27600 On ch=1 n=g5 v=49
27708 On ch=1 n=g5 v=0
27720 On ch=1 n=b5 v=51
27816 Par ch=1 c=64 v=127
27828 On ch=1 n=b5 v=0
27840 On ch=1 n=c6 v=63
27948 On ch=1 n=c6 v=0
27960 On ch=1 n=a6 v=52
28068 On ch=1 n=a6 v=0
28080 On ch=1 n=g6 v=55
28188 On ch=1 n=g6 v=0
28200 On ch=1 n=b6 v=54
28204 On ch=1 n=c3 v=0
28216 On ch=1 n=g3 v=0
28308 On ch=1 n=b6 v=0
28320 On ch=1 n=c7 v=64
28428 On ch=1 n=c7 v=0
28440 On ch=1 n=a7 v=55
28528 Par ch=1 c=64 v=0
28548 On ch=1 n=a7 v=0
28560 On ch=1 n=g7 v=51
28668 On ch=1 n=g7 v=0
28680 On ch=1 n=b7 v=53
28728 On ch=1 n=c4 v=81
28740 Par ch=1 c=64 v=127
28776 On ch=1 n=g4 v=81
28788 On ch=1 n=b7 v=0
28800 On ch=1 n=c8 v=64
28804 On ch=1 n=c4 v=0
28856 On ch=1 n=e5 v=73
28908 On ch=1 n=c8 v=0
28920 On ch=1 n=f7 v=52
29028 On ch=1 n=f7 v=0
29040 On ch=1 n=e7 v=55
29148 On ch=1 n=e7 v=0
29160 On ch=1 n=d8 v=51
29268 On ch=1 n=d8 v=0
29280 On ch=1 n=c8 v=64
29388 On ch=1 n=c8 v=0
29400 On ch=1 n=f7 v=52
29508 On ch=1 n=f7 v=0
29520 On ch=1 n=e7 v=56
29628 On ch=1 n=e7 v=0
29640 On ch=1 n=d8 v=54
29740 Par ch=1 c=64 v=0
29744 On ch=1 n=e5 v=0
29748 On ch=1 n=d8 v=0
29760 On ch=1 n=c8 v=60
29788 On ch=1 n=g4 v=0
29868 On ch=1 n=c8 v=0
29880 On ch=1 n=f7 v=52
29988 On ch=1 n=f7 v=0
30000 On ch=1 n=e7 v=54
30108 On ch=1 n=e7 v=0
30120 On ch=1 n=d8 v=54
30136 Par ch=1 c=64 v=127
30160 On ch=1 n=c4 v=70
30212 On ch=1 n=g4 v=84
30220 On ch=1 n=c4 v=0
30228 On ch=1 n=d8 v=0
30240 On ch=1 n=c8 v=63
30248 On ch=1 n=a#4 v=65
30276 On ch=1 n=e5 v=83
30336 On ch=1 n=g4 v=0
30344 On ch=1 n=a#4 v=0
30348 On ch=1 n=e5 v=0
30348 On ch=1 n=c8 v=0
30360 On ch=1 n=a7 v=56
30468 On ch=1 n=a7 v=0
30480 On ch=1 n=a#7 v=58
30504 Par ch=1 c=64 v=0
30544 On ch=1 n=f3 v=69
30588 On ch=1 n=a#7 v=0
30600 On ch=1 n=g7 v=59
30628 Par ch=1 c=64 v=127
30628 On ch=1 n=c4 v=74
30648 On ch=1 n=f3 v=0
30708 On ch=1 n=g7 v=0
30720 On ch=1 n=a7 v=61
30728 On ch=1 n=c4 v=0
30740 On ch=1 n=a4 v=83
30768 On ch=1 n=a4 v=0
30828 On ch=1 n=a7 v=0
30836 On ch=1 n=f5 v=91
30840 On ch=1 n=g7 v=54
30928 On ch=1 n=f5 v=0
30948 On ch=1 n=g7 v=0
30960 On ch=1 n=f7 v=58
31068 On ch=1 n=f7 v=0
31080 On ch=1 n=c7 v=51
31188 On ch=1 n=c7 v=0
31200 On ch=1 n=a6 v=66
31308 On ch=1 n=a6 v=0
31320 On ch=1 n=g6 v=56
31428 On ch=1 n=g6 v=0
31440 On ch=1 n=f6 v=55
31536 Par ch=1 c=64 v=0
31548 On ch=1 n=f6 v=0
31560 On ch=1 n=c6 v=61
31664 Par ch=1 c=64 v=127
31668 On ch=1 n=c6 v=0
31680 On ch=1 n=a5 v=66
31704 On ch=1 n=b3 v=66
31740 On ch=1 n=c4 v=87
31784 On ch=1 n=b3 v=0
31788 On ch=1 n=a5 v=0
31800 On ch=1 n=g5 v=56
31848 On ch=1 n=c4 v=0
31908 On ch=1 n=g5 v=0
31920 On ch=1 n=f5 v=59
32028 On ch=1 n=f5 v=0
32040 On ch=1 n=c5 v=55
32124 Par ch=1 c=64 v=0
32148 On ch=1 n=c5 v=0
32160 On ch=1 n=a4 v=66
32160 On ch=1 n=c4 v=94
32236 On ch=1 n=c4 v=0
32268 On ch=1 n=a4 v=0
32280 On ch=1 n=g4 v=56
32388 On ch=1 n=g4 v=0
32400 On ch=1 n=f4 v=56
32508 On ch=1 n=f4 v=0
32520 On ch=1 n=c4 v=58
32624 Par ch=1 c=64 v=127
32628 On ch=1 n=c4 v=0
32628 On ch=1 n=f2 v=87
32632 On ch=1 n=f3 v=89
32640 On ch=1 n=f4 v=67
32704 On ch=1 n=f2 v=0
32748 On ch=1 n=f4 v=0
32748 On ch=1 n=f3 v=0
32760 On ch=1 n=g4 v=50
32868 On ch=1 n=g4 v=0
32880 On ch=1 n=a4 v=52
32988 On ch=1 n=a4 v=0
33000 On ch=1 n=c5 v=54
33100 On ch=1 n=d4 v=73
33108 On ch=1 n=c5 v=0
33120 On ch=1 n=f5 v=63
33216 Par ch=1 c=64 v=0
33228 On ch=1 n=f5 v=0
33240 On ch=1 n=g5 v=50
33348 On ch=1 n=g5 v=0
33360 On ch=1 n=a5 v=50
33380 On ch=1 n=d4 v=0
33452 On ch=1 n=c4 v=73
33468 On ch=1 n=a5 v=0
33480 On ch=1 n=c6 v=51
33556 Par ch=1 c=64 v=127
33568 On ch=1 n=a4 v=80
33576 On ch=1 n=c4 v=0
33588 On ch=1 n=c6 v=0
33600 On ch=1 n=f6 v=62
33708 On ch=1 n=f6 v=0
33720 On ch=1 n=g6 v=47
33828 On ch=1 n=g6 v=0
33840 On ch=1 n=a6 v=58
33948 On ch=1 n=a6 v=0
33960 On ch=1 n=c7 v=52
34040 Par ch=1 c=64 v=0
34068 On ch=1 n=c7 v=0
34080 On ch=1 n=f7 v=62
34080 On ch=1 n=f4 v=76
34124 On ch=1 n=a4 v=0
34188 On ch=1 n=f7 v=0
34200 On ch=1 n=g7 v=50
34308 On ch=1 n=g7 v=0
34320 On ch=1 n=a7 v=52
34428 On ch=1 n=a7 v=0
34428 On ch=1 n=f4 v=0
34440 On ch=1 n=g7 v=51
34440 On ch=1 n=a3 v=66
34484 Par ch=1 c=64 v=127
34548 On ch=1 n=g7 v=0
34560 On ch=1 n=f7 v=64
34572 On ch=1 n=c4 v=83
34576 On ch=1 n=f3 v=72
34600 On ch=1 n=a3 v=0
34668 On ch=1 n=f7 v=0
34680 On ch=1 n=c7 v=53
34788 On ch=1 n=c7 v=0
34800 On ch=1 n=a6 v=59
34908 On ch=1 n=a6 v=0
34920 On ch=1 n=g6 v=53
35028 On ch=1 n=g6 v=0
35040 On ch=1 n=f6 v=63
35148 On ch=1 n=f6 v=0
35160 On ch=1 n=c6 v=61
35268 On ch=1 n=c6 v=0
35280 On ch=1 n=a5 v=52
35388 On ch=1 n=a5 v=0
35400 On ch=1 n=g5 v=53
35452 On ch=1 n=c4 v=0
35464 Par ch=1 c=64 v=0
35504 On ch=1 n=b3 v=71
35508 On ch=1 n=g5 v=0
35520 On ch=1 n=f5 v=62
35568 On ch=1 n=c4 v=74
35612 On ch=1 n=b3 v=0
35628 On ch=1 n=f5 v=0
35640 On ch=1 n=c5 v=50
35672 On ch=1 n=c4 v=0
35748 On ch=1 n=c5 v=0
35760 On ch=1 n=a4 v=51
35868 On ch=1 n=a4 v=0
35880 On ch=1 n=g4 v=58
35988 On ch=1 n=g4 v=0
36000 On ch=1 n=f4 v=51
36020 On ch=1 n=c4 v=78
36084 On ch=1 n=c4 v=0
36108 On ch=1 n=f4 v=0
36120 On ch=1 n=c4 v=53
36228 On ch=1 n=c4 v=0
36236 On ch=1 n=f3 v=0
36240 On ch=1 n=f4 v=53
36348 On ch=1 n=f4 v=0
36360 On ch=1 n=a4 v=56
36452 Par ch=1 c=64 v=127
36468 On ch=1 n=a4 v=0
36480 On ch=1 n=g4 v=68
36488 On ch=1 n=e2 v=73
36492 On ch=1 n=e3 v=73
36544 On ch=1 n=e2 v=0
36564 On ch=1 n=e3 v=0
36588 On ch=1 n=g4 v=0
36600 On ch=1 n=c4 v=56
36708 On ch=1 n=c4 v=0
36720 On ch=1 n=g4 v=63
36828 On ch=1 n=g4 v=0
36840 On ch=1 n=a4 v=56
36924 Par ch=1 c=64 v=0
36948 On ch=1 n=a4 v=0
36960 On ch=1 n=a#4 v=65
36968 On ch=1 n=d4 v=74
37068 On ch=1 n=a#4 v=0
37080 On ch=1 n=c5 v=50
37188 On ch=1 n=c5 v=0
37200 On ch=1 n=g5 v=59
37264 On ch=1 n=d4 v=0
37296 On ch=1 n=c4 v=71
37308 On ch=1 n=g5 v=0
37320 On ch=1 n=a5 v=60
37376 Par ch=1 c=64 v=127
37424 On ch=1 n=g4 v=79
37428 On ch=1 n=a5 v=0
37440 On ch=1 n=a#5 v=66
37452 On ch=1 n=c4 v=0
37548 On ch=1 n=a#5 v=0
37560 On ch=1 n=c6 v=52
37668 On ch=1 n=c6 v=0
37680 On ch=1 n=g6 v=56
37788 On ch=1 n=g6 v=0
37800 On ch=1 n=a6 v=56
37848 Par ch=1 c=64 v=0
37908 On ch=1 n=a6 v=0
37912 On ch=1 n=d5 v=87
37920 On ch=1 n=g4 v=0
37920 On ch=1 n=a#6 v=70
38008 On ch=1 n=d5 v=0
38028 On ch=1 n=a#6 v=0
38040 On ch=1 n=c7 v=54
38148 On ch=1 n=c7 v=0
38160 On ch=1 n=g7 v=63
38268 On ch=1 n=g7 v=0
38280 On ch=1 n=a7 v=58
38292 On ch=1 n=e3 v=69
38296 Par ch=1 c=64 v=127
38352 On ch=1 n=c4 v=66
38380 On ch=1 n=e3 v=0
38388 On ch=1 n=a7 v=0
38400 On ch=1 n=a#7 v=66
38476 On ch=1 n=c5 v=79
38508 On ch=1 n=a#7 v=0
38520 On ch=1 n=a7 v=62
38628 On ch=1 n=a7 v=0
38640 On ch=1 n=g7 v=60
38748 On ch=1 n=g7 v=0
38760 On ch=1 n=c7 v=56
38856 On ch=1 n=c5 v=0
38868 On ch=1 n=c7 v=0
38872 On ch=1 n=c4 v=0
38880 On ch=1 n=a#6 v=66
38988 On ch=1 n=a#6 v=0
39000 On ch=1 n=a6 v=53
39084 Par ch=1 c=64 v=0
39108 On ch=1 n=a6 v=0
39120 On ch=1 n=g6 v=55
39228 On ch=1 n=g6 v=0
39240 On ch=1 n=c6 v=58
39348 On ch=1 n=c6 v=0
39352 On ch=1 n=b3 v=52
39360 On ch=1 n=a#5 v=63
39400 On ch=1 n=c4 v=73
39452 On ch=1 n=b3 v=0
39468 On ch=1 n=a#5 v=0
39480 On ch=1 n=a5 v=58
39512 On ch=1 n=c4 v=0
39588 On ch=1 n=a5 v=0
39600 On ch=1 n=g5 v=58
39708 On ch=1 n=g5 v=0
39720 On ch=1 n=c5 v=53
39828 On ch=1 n=c5 v=0
39840 On ch=1 n=a#4 v=62
39868 On ch=1 n=c4 v=77
39948 On ch=1 n=c4 v=0
39948 On ch=1 n=a#4 v=0
39960 On ch=1 n=a4 v=54
40068 On ch=1 n=a4 v=0
40080 On ch=1 n=g4 v=50
40188 On ch=1 n=g4 v=0
40200 On ch=1 n=c4 v=53
40260 Par ch=1 c=64 v=127
40308 On ch=1 n=c4 v=0
40320 On ch=1 n=g4 v=57
40348 On ch=1 n=e3 v=82
40352 On ch=1 n=e2 v=82
40416 On ch=1 n=e2 v=0
40420 On ch=1 n=e3 v=0
40428 On ch=1 n=g4 v=0
40440 On ch=1 n=a4 v=53
40548 On ch=1 n=a4 v=0
40560 On ch=1 n=a#4 v=54
40668 On ch=1 n=a#4 v=0
40680 On ch=1 n=c5 v=60
40788 On ch=1 n=c5 v=0
40788 Par ch=1 c=64 v=0
40796 On ch=1 n=d4 v=67
40800 On ch=1 n=g5 v=60
40908 On ch=1 n=g5 v=0
40920 On ch=1 n=a5 v=56
41028 On ch=1 n=a5 v=0
41040 On ch=1 n=a#5 v=64
41148 On ch=1 n=a#5 v=0
41160 On ch=1 n=c6 v=53
41176 On ch=1 n=c4 v=75
41224 On ch=1 n=d4 v=0
41228 Par ch=1 c=64 v=127
41268 On ch=1 n=c6 v=0
41280 On ch=1 n=g6 v=58
41328 On ch=1 n=a#4 v=85
41368 On ch=1 n=c4 v=0
41388 On ch=1 n=g6 v=0
41400 On ch=1 n=a6 v=58
41508 On ch=1 n=a6 v=0
41520 On ch=1 n=a#6 v=52
41628 On ch=1 n=a#6 v=0
41640 On ch=1 n=c7 v=54
41728 On ch=1 n=a#4 v=0
41744 On ch=1 n=g4 v=75
41748 On ch=1 n=c7 v=0
41760 On ch=1 n=g7 v=58
41792 Par ch=1 c=64 v=0
41868 On ch=1 n=g7 v=0
41880 On ch=1 n=a7 v=56
41988 On ch=1 n=a7 v=0
42000 On ch=1 n=a#7 v=66
42012 On ch=1 n=g4 v=0
42072 On ch=1 n=g3 v=74
42108 On ch=1 n=a#7 v=0
42120 On ch=1 n=a7 v=61
42220 On ch=1 n=c4 v=86
42224 On ch=1 n=e3 v=73
42228 On ch=1 n=a7 v=0
42228 Par ch=1 c=64 v=127
42240 On ch=1 n=g3 v=0
42240 On ch=1 n=g7 v=62
42348 On ch=1 n=g7 v=0
42360 On ch=1 n=c7 v=53
42468 On ch=1 n=c7 v=0
42480 On ch=1 n=a#6 v=60
42588 On ch=1 n=a#6 v=0
42600 On ch=1 n=a6 v=52
42708 On ch=1 n=a6 v=0
42720 On ch=1 n=g6 v=62
42828 On ch=1 n=g6 v=0
42840 On ch=1 n=c6 v=58
42948 On ch=1 n=c6 v=0
42960 On ch=1 n=a#5 v=58
42988 On ch=1 n=c4 v=0
43068 On ch=1 n=a#5 v=0
43080 On ch=1 n=a5 v=59
43132 Par ch=1 c=64 v=0
43152 On ch=1 n=b3 v=91
43188 On ch=1 n=a5 v=0
43200 On ch=1 n=g5 v=60
43212 On ch=1 n=c4 v=91
43256 On ch=1 n=b3 v=0
43308 On ch=1 n=c4 v=0
43308 On ch=1 n=g5 v=0
43320 On ch=1 n=c5 v=53
43428 On ch=1 n=c5 v=0
43440 On ch=1 n=a#4 v=50
43548 On ch=1 n=a#4 v=0
43560 On ch=1 n=a4 v=53
43668 On ch=1 n=a4 v=0
43680 On ch=1 n=g4 v=64
43680 On ch=1 n=c4 v=94
43752 On ch=1 n=c4 v=0
43788 On ch=1 n=g4 v=0
43800 On ch=1 n=c4 v=52
43908 On ch=1 n=c4 v=0
43920 On ch=1 n=g4 v=57
43956 On ch=1 n=e3 v=0
44028 On ch=1 n=g4 v=0
44040 On ch=1 n=a#4 v=55
44148 On ch=1 n=a#4 v=0
44160 On ch=1 n=a4 v=61
44160 Par ch=1 c=64 v=127
44196 On ch=1 n=f3 v=89
44200 On ch=1 n=f2 v=89
44268 On ch=1 n=a4 v=0
44280 On ch=1 n=c4 v=51
44284 On ch=1 n=f2 v=0
44288 On ch=1 n=f3 v=0
44388 On ch=1 n=c4 v=0
44400 On ch=1 n=f4 v=46
44508 On ch=1 n=f4 v=0
44520 On ch=1 n=g4 v=54
44628 On ch=1 n=g4 v=0
44640 On ch=1 n=a4 v=65
44648 On ch=1 n=d4 v=72
44652 Par ch=1 c=64 v=0
44748 On ch=1 n=a4 v=0
44760 On ch=1 n=c5 v=53
44868 On ch=1 n=c5 v=0
44880 On ch=1 n=f5 v=58
44988 On ch=1 n=f5 v=0
45000 On ch=1 n=g5 v=51
45012 On ch=1 n=c4 v=78
45016 On ch=1 n=d4 v=0
45092 Par ch=1 c=64 v=127
45108 On ch=1 n=g5 v=0
45120 On ch=1 n=a5 v=61
45128 On ch=1 n=f4 v=76
45192 On ch=1 n=c4 v=0
45228 On ch=1 n=a5 v=0
45240 On ch=1 n=c6 v=56
45348 On ch=1 n=c6 v=0
45360 On ch=1 n=f6 v=52
45468 On ch=1 n=f6 v=0
45480 On ch=1 n=g6 v=60
45528 Par ch=1 c=64 v=0
45580 On ch=1 n=f4 v=0
45588 On ch=1 n=g6 v=0
45600 On ch=1 n=a6 v=61
45616 On ch=1 n=f5 v=84
45708 On ch=1 n=a6 v=0
45720 On ch=1 n=c7 v=53
45828 On ch=1 n=c7 v=0
45840 On ch=1 n=f7 v=51
45900 On ch=1 n=f5 v=0
45948 On ch=1 n=f7 v=0
45960 On ch=1 n=a7 v=56
46064 Par ch=1 c=64 v=127
46068 On ch=1 n=a7 v=0
46080 On ch=1 n=g7 v=66
46116 On ch=1 n=d5 v=80
46120 On ch=1 n=a#4 v=83
46124 On ch=1 n=f5 v=77
46132 On ch=1 n=f4 v=72
46188 On ch=1 n=g7 v=0
46200 On ch=1 n=f7 v=65
46308 On ch=1 n=f7 v=0
46320 On ch=1 n=d7 v=54
46428 On ch=1 n=d7 v=0
46440 On ch=1 n=a#6 v=54
46548 On ch=1 n=a#6 v=0
46560 On ch=1 n=g6 v=63
46668 On ch=1 n=g6 v=0
46680 On ch=1 n=f6 v=57
46788 On ch=1 n=f6 v=0
46800 On ch=1 n=d6 v=62
46804 On ch=1 n=d5 v=0
46808 On ch=1 n=f4 v=0
46808 On ch=1 n=a#4 v=0
46832 On ch=1 n=f5 v=0
46908 On ch=1 n=d6 v=0
46920 On ch=1 n=a#5 v=60
47028 On ch=1 n=a#5 v=0
47040 On ch=1 n=c6 v=74
47052 Par ch=1 c=64 v=0
47064 On ch=1 n=a4 v=70
47068 On ch=1 n=c5 v=66
47072 On ch=1 n=f5 v=72
47076 On ch=1 n=f4 v=61
47144 On ch=1 n=f4 v=0
47148 On ch=1 n=c6 v=0
47156 On ch=1 n=c5 v=0
47160 On ch=1 n=f6 v=55
47184 On ch=1 n=f5 v=0
47184 On ch=1 n=a4 v=0
47268 On ch=1 n=f6 v=0
47280 On ch=1 n=g6 v=49
47388 On ch=1 n=g6 v=0
47400 On ch=1 n=a6 v=56
47508 On ch=1 n=a6 v=0
47520 On ch=1 n=c7 v=73
47548 On ch=1 n=a4 v=72
47552 On ch=1 n=c5 v=68
47560 On ch=1 n=f5 v=70
47564 On ch=1 n=f4 v=57
47616 On ch=1 n=f4 v=0
47628 On ch=1 n=c5 v=0
47628 On ch=1 n=c7 v=0
47640 On ch=1 n=f7 v=52
47644 On ch=1 n=a4 v=0
47648 On ch=1 n=f5 v=0
47748 On ch=1 n=f7 v=0
47760 On ch=1 n=g7 v=52
47868 On ch=1 n=g7 v=0
47880 On ch=1 n=a7 v=53
47988 On ch=1 n=a7 v=0
48000 On ch=1 n=g7 v=58
48004 Par ch=1 c=64 v=127
48032 On ch=1 n=d5 v=74
48040 On ch=1 n=a#4 v=71
48044 On ch=1 n=f5 v=77
48048 On ch=1 n=f4 v=70
48108 On ch=1 n=g7 v=0
48120 On ch=1 n=f7 v=56
48228 On ch=1 n=f7 v=0
48240 On ch=1 n=d7 v=61
48348 On ch=1 n=d7 v=0
48360 On ch=1 n=a#6 v=56
48468 On ch=1 n=a#6 v=0
48480 On ch=1 n=g6 v=59
48588 On ch=1 n=g6 v=0
48600 On ch=1 n=f6 v=51
48664 On ch=1 n=d5 v=0
48668 On ch=1 n=a#4 v=0
48692 On ch=1 n=f5 v=0
48696 On ch=1 n=f4 v=0
48708 On ch=1 n=f6 v=0
48720 On ch=1 n=d6 v=61
48828 On ch=1 n=d6 v=0
48840 On ch=1 n=a#5 v=54
48948 On ch=1 n=a#5 v=0
48956 On ch=1 n=c5 v=68
48960 On ch=1 n=c6 v=71
48960 On ch=1 n=a4 v=69
48964 Par ch=1 c=64 v=0
48968 On ch=1 n=f5 v=67
48972 On ch=1 n=f4 v=60
49036 On ch=1 n=f4 v=0
49040 On ch=1 n=c5 v=0
49048 On ch=1 n=a4 v=0
49068 On ch=1 n=f5 v=0
49068 On ch=1 n=c6 v=0
49080 On ch=1 n=f6 v=49
49188 On ch=1 n=f6 v=0
49200 On ch=1 n=g6 v=49
49308 On ch=1 n=g6 v=0
49320 On ch=1 n=a6 v=56
49424 On ch=1 n=f5 v=69
49428 On ch=1 n=a6 v=0
49428 On ch=1 n=c5 v=72
49436 On ch=1 n=f4 v=66
49440 On ch=1 n=c7 v=75
49440 On ch=1 n=a4 v=78
49484 On ch=1 n=c5 v=0
49488 On ch=1 n=f5 v=0
49492 On ch=1 n=f4 v=0
49500 On ch=1 n=a4 v=0
49548 On ch=1 n=c7 v=0
49560 On ch=1 n=f7 v=58
49668 On ch=1 n=f7 v=0
49680 On ch=1 n=g7 v=62
49788 On ch=1 n=g7 v=0
49792 On ch=1 n=a#3 v=60
49800 On ch=1 n=a7 v=61
49864 Par ch=1 c=64 v=127
49872 On ch=1 n=f4 v=66
49900 On ch=1 n=a#3 v=0
49908 On ch=1 n=a7 v=0
49912 On ch=1 n=g4 v=68
49920 On ch=1 n=g7 v=73
49972 On ch=1 n=d5 v=76
50028 On ch=1 n=g7 v=0
50040 On ch=1 n=a7 v=57
50148 On ch=1 n=a7 v=0
50160 On ch=1 n=g7 v=66
50268 On ch=1 n=g7 v=0
50280 On ch=1 n=f7 v=62
50388 On ch=1 n=f7 v=0
50400 On ch=1 n=d7 v=75
50508 On ch=1 n=d7 v=0
50520 On ch=1 n=a#6 v=57
50628 On ch=1 n=a#6 v=0
50640 On ch=1 n=c7 v=60
50748 On ch=1 n=c7 v=0
50760 On ch=1 n=a6 v=62
50868 On ch=1 n=a6 v=0
50880 On ch=1 n=g6 v=72
50988 On ch=1 n=g6 v=0
51000 On ch=1 n=a6 v=61
51108 On ch=1 n=a6 v=0
51120 On ch=1 n=g6 v=62
51228 On ch=1 n=g6 v=0
51240 On ch=1 n=f6 v=62
51344 Par ch=1 c=64 v=0
51348 On ch=1 n=f6 v=0
51360 On ch=1 n=d6 v=73
51468 On ch=1 n=d6 v=0
51480 On ch=1 n=a#5 v=57
51504 On ch=1 n=d5 v=0
51504 On ch=1 n=f4 v=0
51516 On ch=1 n=g4 v=0
51588 On ch=1 n=a#5 v=0
51600 On ch=1 n=c6 v=54
51708 On ch=1 n=c6 v=0
51720 On ch=1 n=a5 v=56
51800 Par ch=1 c=64 v=127
51828 On ch=1 n=a5 v=0
51836 On ch=1 n=g4 v=58
51840 On ch=1 n=g5 v=75
51840 On ch=1 n=d5 v=79
51844 On ch=1 n=f4 v=69
51852 On ch=1 n=c4 v=62
51948 On ch=1 n=g5 v=0
51960 On ch=1 n=a5 v=60
52068 On ch=1 n=a5 v=0
52080 On ch=1 n=g5 v=51
52188 On ch=1 n=g5 v=0
52200 On ch=1 n=d6 v=59
52308 On ch=1 n=d6 v=0
52320 On ch=1 n=c6 v=74
52428 On ch=1 n=c6 v=0
52440 On ch=1 n=d6 v=58
52548 On ch=1 n=d6 v=0
52556 Par ch=1 c=64 v=0
52560 On ch=1 n=c6 v=58
52668 On ch=1 n=c6 v=0
52680 On ch=1 n=a6 v=58
52708 On ch=1 n=d5 v=0
52744 On ch=1 n=f4 v=0
52744 Par ch=1 c=64 v=127
52788 On ch=1 n=a6 v=0
52800 On ch=1 n=g6 v=72
52816 On ch=1 n=e4 v=60
52840 On ch=1 n=c5 v=78
52908 On ch=1 n=g6 v=0
52920 On ch=1 n=a6 v=62
53028 On ch=1 n=a6 v=0
53040 On ch=1 n=g6 v=65
53148 On ch=1 n=g6 v=0
53160 On ch=1 n=d7 v=58
53176 On ch=1 n=c5 v=0
53268 On ch=1 n=d7 v=0
53280 On ch=1 n=c7 v=73
53308 On ch=1 n=a#4 v=75
53388 On ch=1 n=c7 v=0
53400 On ch=1 n=d7 v=61
53408 Par ch=1 c=64 v=0
53464 On ch=1 n=a#4 v=0
53464 On ch=1 n=e4 v=0
53480 On ch=1 n=c4 v=0
53480 On ch=1 n=g4 v=0
53508 On ch=1 n=d7 v=0
53520 On ch=1 n=c7 v=62
53628 On ch=1 n=c7 v=0
53640 On ch=1 n=d8 v=67
53652 On ch=1 n=f3 v=63
53712 Par ch=1 c=64 v=127
53720 On ch=1 n=c4 v=73
53732 On ch=1 n=f3 v=0
53748 On ch=1 n=d8 v=0
53760 On ch=1 n=c8 v=69
53780 On ch=1 n=e4 v=73
53848 On ch=1 n=a#4 v=83
53868 On ch=1 n=c8 v=0
53880 On ch=1 n=d8 v=58
53988 On ch=1 n=d8 v=0
54000 On ch=1 n=c8 v=66
54108 On ch=1 n=c8 v=0
54120 On ch=1 n=a#7 v=58
54228 On ch=1 n=a#7 v=0
54240 On ch=1 n=g7 v=52
54348 On ch=1 n=g7 v=0
54360 On ch=1 n=e7 v=59
54468 On ch=1 n=e7 v=0
54480 On ch=1 n=f7 v=65
54588 On ch=1 n=f7 v=0
54600 On ch=1 n=d7 v=58
54708 On ch=1 n=d7 v=0
54720 On ch=1 n=c7 v=47
54828 On ch=1 n=c7 v=0
54840 On ch=1 n=d7 v=63
54948 On ch=1 n=d7 v=0
54960 On ch=1 n=c7 v=61
55068 On ch=1 n=c7 v=0
55080 On ch=1 n=a#6 v=54
55124 On ch=1 n=e4 v=0
55128 On ch=1 n=a#4 v=0
55136 On ch=1 n=c4 v=0
55188 On ch=1 n=a#6 v=0
55200 On ch=1 n=g6 v=48
55308 On ch=1 n=g6 v=0
55320 On ch=1 n=e6 v=58
55428 On ch=1 n=e6 v=0
55440 On ch=1 n=f6 v=51
55532 Par ch=1 c=64 v=0
55548 On ch=1 n=f6 v=0
55560 On ch=1 n=d6 v=57
55612 On ch=1 n=f3 v=70
55668 On ch=1 n=d6 v=0
55676 Par ch=1 c=64 v=127
55680 On ch=1 n=c6 v=48
55704 On ch=1 n=c4 v=66
55728 On ch=1 n=f3 v=0
55752 On ch=1 n=f4 v=66
55788 On ch=1 n=c6 v=0
55800 On ch=1 n=d6 v=61
55868 On ch=1 n=a4 v=70
55908 On ch=1 n=d6 v=0
55920 On ch=1 n=c6 v=56
56028 On ch=1 n=c6 v=0
56040 On ch=1 n=a5 v=57
56148 On ch=1 n=a5 v=0
56160 On ch=1 n=f5 v=62
56268 On ch=1 n=f5 v=0
56280 On ch=1 n=c5 v=58
56388 On ch=1 n=c5 v=0
56400 On ch=1 n=d5 v=58
56508 On ch=1 n=d5 v=0
56512 On ch=1 n=a4 v=0
56520 On ch=1 n=a#4 v=59
56552 On ch=1 n=c4 v=0
56588 On ch=1 n=f4 v=0
56628 On ch=1 n=a#4 v=0
56640 On ch=1 n=a4 v=56
56688 Par ch=1 c=64 v=0
56748 On ch=1 n=a4 v=0
56760 On ch=1 n=e4 v=65
56868 On ch=1 n=e4 v=0
56880 On ch=1 n=f4 v=65
56988 On ch=1 n=f4 v=0
57000 On ch=1 n=d4 v=63
57108 On ch=1 n=d4 v=0
57120 On ch=1 n=c4 v=65
57228 On ch=1 n=c4 v=0
57240 On ch=1 n=g3 v=56
57348 On ch=1 n=g3 v=0
57360 On ch=1 n=a3 v=71
57468 On ch=1 n=a3 v=0
57480 On ch=1 n=f3 v=67
57588 On ch=1 n=f3 v=0
57600 On ch=1 n=f7 v=68
57644 On ch=1 n=d3 v=75
57652 On ch=1 n=a3 v=87
57704 Par ch=1 c=64 v=127
57708 On ch=1 n=f7 v=0
57720 On ch=1 n=e7 v=57
57828 On ch=1 n=e7 v=0
57840 On ch=1 n=d7 v=62
57948 On ch=1 n=d7 v=0
57960 On ch=1 n=a6 v=62
58068 On ch=1 n=a6 v=0
58080 On ch=1 n=f6 v=66
58188 On ch=1 n=f6 v=0
58200 On ch=1 n=e6 v=58
58308 On ch=1 n=e6 v=0
58320 On ch=1 n=d6 v=48
58400 On ch=1 n=a3 v=0
58428 On ch=1 n=d6 v=0
58440 On ch=1 n=a5 v=55
58480 Par ch=1 c=64 v=0
58548 On ch=1 n=a5 v=0
58552 On ch=1 n=g#3 v=69
58560 On ch=1 n=f5 v=63
58620 On ch=1 n=a3 v=79
58660 On ch=1 n=g#3 v=0
58668 On ch=1 n=f5 v=0
58680 On ch=1 n=e5 v=58
58764 On ch=1 n=a3 v=0
58788 On ch=1 n=e5 v=0
58800 On ch=1 n=d5 v=60
58908 On ch=1 n=d5 v=0
58920 On ch=1 n=a4 v=60
59028 On ch=1 n=a4 v=0
59028 On ch=1 n=a3 v=83
59040 On ch=1 n=f4 v=62
59116 On ch=1 n=a3 v=0
59148 On ch=1 n=f4 v=0
59148 On ch=1 n=d3 v=0
59160 On ch=1 n=e4 v=55
59268 On ch=1 n=e4 v=0
59280 On ch=1 n=d4 v=49
59388 On ch=1 n=d4 v=0
59400 On ch=1 n=a3 v=49
59452 Par ch=1 c=64 v=127
59508 On ch=1 n=a3 v=0
59520 On ch=1 n=d4 v=53
59524 On ch=1 n=d3 v=92
59528 On ch=1 n=d2 v=96
59624 On ch=1 n=d3 v=0
59628 On ch=1 n=d4 v=0
59640 On ch=1 n=e4 v=49
59672 On ch=1 n=d2 v=0
59748 On ch=1 n=e4 v=0
59760 On ch=1 n=f4 v=50
59868 On ch=1 n=f4 v=0
59880 On ch=1 n=a4 v=45
59988 On ch=1 n=a4 v=0
60000 On ch=1 n=d5 v=52
60008 On ch=1 n=a#3 v=83
60012 Par ch=1 c=64 v=0
60108 On ch=1 n=d5 v=0
60120 On ch=1 n=e5 v=50
60228 On ch=1 n=e5 v=0
60240 On ch=1 n=f5 v=52
60348 On ch=1 n=f5 v=0
60360 On ch=1 n=a5 v=47
60364 On ch=1 n=a3 v=70
60408 On ch=1 n=a#3 v=0
60468 On ch=1 n=a5 v=0
60468 Par ch=1 c=64 v=127
60480 On ch=1 n=d6 v=49
60480 On ch=1 n=f4 v=76
60488 On ch=1 n=a3 v=0
60588 On ch=1 n=d6 v=0
60600 On ch=1 n=e6 v=60
60708 On ch=1 n=e6 v=0
60720 On ch=1 n=f6 v=56
60828 On ch=1 n=f6 v=0
60840 On ch=1 n=a6 v=49
60908 On ch=1 n=f4 v=0
60924 On ch=1 n=d4 v=75
60932 Par ch=1 c=64 v=0
60948 On ch=1 n=a6 v=0
60960 On ch=1 n=d7 v=62
61068 On ch=1 n=d7 v=0
61080 On ch=1 n=e7 v=65
61188 On ch=1 n=e7 v=0
61200 On ch=1 n=f7 v=53
61272 On ch=1 n=f3 v=77
61280 On ch=1 n=d4 v=0
61308 On ch=1 n=f7 v=0
61320 On ch=1 n=e7 v=65
61408 Par ch=1 c=64 v=127
61412 On ch=1 n=f3 v=0
61416 On ch=1 n=d3 v=79
61424 On ch=1 n=a3 v=84
61428 On ch=1 n=e7 v=0
61440 On ch=1 n=d7 v=58
61548 On ch=1 n=d7 v=0
61560 On ch=1 n=a6 v=65
61668 On ch=1 n=a6 v=0
61680 On ch=1 n=f6 v=60
61788 On ch=1 n=f6 v=0
61800 On ch=1 n=e6 v=55
61908 On ch=1 n=e6 v=0
61920 On ch=1 n=d6 v=53
62028 On ch=1 n=d6 v=0
62040 On ch=1 n=a5 v=53
62148 On ch=1 n=a5 v=0
62160 On ch=1 n=f5 v=55
62204 On ch=1 n=a3 v=0
62268 On ch=1 n=f5 v=0
62280 On ch=1 n=e5 v=62
62324 Par ch=1 c=64 v=0
62388 On ch=1 n=e5 v=0
62400 On ch=1 n=d5 v=49
62416 On ch=1 n=g#3 v=73
62452 On ch=1 n=a3 v=84
62508 On ch=1 n=d5 v=0
62520 On ch=1 n=a4 v=54
62536 On ch=1 n=g#3 v=0
62592 On ch=1 n=a3 v=0
62628 On ch=1 n=a4 v=0
62640 On ch=1 n=f4 v=60
62748 On ch=1 n=f4 v=0
62760 On ch=1 n=e4 v=60
62868 On ch=1 n=e4 v=0
62880 On ch=1 n=d4 v=60
62896 On ch=1 n=a3 v=91
62980 On ch=1 n=a3 v=0
62988 On ch=1 n=d4 v=0
63000 On ch=1 n=a3 v=53
63036 On ch=1 n=d3 v=0
63108 On ch=1 n=a3 v=0
63120 On ch=1 n=d4 v=58
63228 On ch=1 n=d4 v=0
63240 On ch=1 n=f4 v=63
63292 Par ch=1 c=64 v=127
63348 On ch=1 n=f4 v=0
63360 On ch=1 n=e4 v=54
63380 On ch=1 n=c#3 v=91
63388 On ch=1 n=c#2 v=91
63468 On ch=1 n=e4 v=0
63480 On ch=1 n=a3 v=55
63512 On ch=1 n=c#3 v=0
63516 On ch=1 n=c#2 v=0
63588 On ch=1 n=a3 v=0
63600 On ch=1 n=e4 v=45
63708 On ch=1 n=e4 v=0
63720 On ch=1 n=f4 v=48
63816 Par ch=1 c=64 v=0
63828 On ch=1 n=f4 v=0
63828 On ch=1 n=a#3 v=77
63840 On ch=1 n=g4 v=57
63948 On ch=1 n=g4 v=0
63960 On ch=1 n=a4 v=56
64068 On ch=1 n=a4 v=0
64080 On ch=1 n=e5 v=51
64188 On ch=1 n=e5 v=0
64200 On ch=1 n=f5 v=53
64208 On ch=1 n=a3 v=71
64252 On ch=1 n=a#3 v=0
64280 Par ch=1 c=64 v=127
64308 On ch=1 n=f5 v=0
64320 On ch=1 n=g5 v=52
64324 On ch=1 n=e4 v=72
64332 On ch=1 n=a3 v=0
64428 On ch=1 n=g5 v=0
64440 On ch=1 n=a5 v=51
64548 On ch=1 n=a5 v=0
64560 On ch=1 n=e6 v=49
64668 On ch=1 n=e6 v=0
64680 On ch=1 n=f6 v=53
64764 Par ch=1 c=64 v=0
64788 On ch=1 n=f6 v=0
64792 On ch=1 n=a#4 v=87
64800 On ch=1 n=g6 v=58
64828 On ch=1 n=e4 v=0
64892 On ch=1 n=a#4 v=0
64908 On ch=1 n=g6 v=0
64920 On ch=1 n=a6 v=55
65028 On ch=1 n=a6 v=0
65040 On ch=1 n=e7 v=57
65148 On ch=1 n=e7 v=0
65148 On ch=1 n=c#3 v=68
65160 On ch=1 n=f7 v=65
65184 Par ch=1 c=64 v=127
65244 On ch=1 n=a3 v=76
65260 On ch=1 n=c#3 v=0
65268 On ch=1 n=f7 v=0
65280 On ch=1 n=g7 v=58
65372 On ch=1 n=a4 v=85
65388 On ch=1 n=g7 v=0
65400 On ch=1 n=f7 v=60
65508 On ch=1 n=f7 v=0
65520 On ch=1 n=e7 v=56
65628 On ch=1 n=e7 v=0
65640 On ch=1 n=a6 v=53
65748 On ch=1 n=a6 v=0
65760 On ch=1 n=g6 v=56
65840 On ch=1 n=a4 v=0
65848 On ch=1 n=a3 v=0
65868 On ch=1 n=g6 v=0
65880 On ch=1 n=f6 v=52
65964 Par ch=1 c=64 v=0
65988 On ch=1 n=f6 v=0
66000 On ch=1 n=e6 v=44
66108 On ch=1 n=e6 v=0
66120 On ch=1 n=a5 v=48
66228 On ch=1 n=a5 v=0
66240 On ch=1 n=g5 v=58
66264 On ch=1 n=g#3 v=82
66324 On ch=1 n=a3 v=75
66348 On ch=1 n=g5 v=0
66360 On ch=1 n=f5 v=56
66372 On ch=1 n=g#3 v=0
66452 On ch=1 n=a3 v=0
66468 On ch=1 n=f5 v=0
66480 On ch=1 n=e5 v=55
66588 On ch=1 n=e5 v=0
66600 On ch=1 n=a4 v=46
66708 On ch=1 n=a4 v=0
66720 On ch=1 n=g4 v=51
66760 On ch=1 n=a3 v=89
66828 On ch=1 n=g4 v=0
66840 On ch=1 n=a3 v=0
66840 On ch=1 n=f4 v=48
66948 On ch=1 n=f4 v=0
66960 On ch=1 n=e4 v=56
67068 On ch=1 n=e4 v=0
67080 On ch=1 n=a3 v=50
67128 Par ch=1 c=64 v=127
67188 On ch=1 n=a3 v=0
67200 On ch=1 n=e4 v=45
67216 On ch=1 n=c#3 v=93
67224 On ch=1 n=c#2 v=93
67296 On ch=1 n=c#2 v=0
67300 On ch=1 n=c#3 v=0
67308 On ch=1 n=e4 v=0
67320 On ch=1 n=f4 v=55
67428 On ch=1 n=f4 v=0
67440 On ch=1 n=g4 v=62
67548 On ch=1 n=g4 v=0
67560 On ch=1 n=a4 v=54
67668 On ch=1 n=a4 v=0
67680 On ch=1 n=e5 v=53
67688 On ch=1 n=a#3 v=91
67720 Par ch=1 c=64 v=0
67788 On ch=1 n=e5 v=0
67800 On ch=1 n=f5 v=57
67908 On ch=1 n=f5 v=0
67920 On ch=1 n=g5 v=60
68028 On ch=1 n=g5 v=0
68040 On ch=1 n=a5 v=50
68048 On ch=1 n=a3 v=75
68088 On ch=1 n=a#3 v=0
68148 On ch=1 n=a5 v=0
68148 On ch=1 n=g4 v=76
68160 On ch=1 n=e6 v=58
68164 Par ch=1 c=64 v=127
68172 On ch=1 n=a3 v=0
68268 On ch=1 n=e6 v=0
68280 On ch=1 n=f6 v=61
68388 On ch=1 n=f6 v=0
68400 On ch=1 n=g6 v=62
68492 On ch=1 n=g4 v=0
68508 On ch=1 n=g6 v=0
68520 On ch=1 n=a6 v=52
68628 On ch=1 n=a6 v=0
68632 Par ch=1 c=64 v=0
68640 On ch=1 n=e7 v=55
68648 On ch=1 n=e4 v=76
68748 On ch=1 n=e7 v=0
68760 On ch=1 n=f7 v=56
68868 On ch=1 n=f7 v=0
68880 On ch=1 n=e4 v=0
68880 On ch=1 n=g7 v=66
68976 On ch=1 n=e3 v=78
68988 On ch=1 n=g7 v=0
69000 On ch=1 n=f7 v=57
69076 Par ch=1 c=64 v=127
69084 On ch=1 n=e3 v=0
69104 On ch=1 n=a3 v=86
69108 On ch=1 n=f7 v=0
69120 On ch=1 n=e7 v=60
69124 On ch=1 n=c#3 v=77
69228 On ch=1 n=e7 v=0
69240 On ch=1 n=a6 v=50
69348 On ch=1 n=a6 v=0
69360 On ch=1 n=g6 v=60
69468 On ch=1 n=g6 v=0
69480 On ch=1 n=f6 v=56
69588 On ch=1 n=f6 v=0
69600 On ch=1 n=e6 v=51
69708 On ch=1 n=e6 v=0
69720 On ch=1 n=a5 v=45
69816 On ch=1 n=a3 v=0
69828 On ch=1 n=a5 v=0
69840 On ch=1 n=g5 v=58
69948 On ch=1 n=g5 v=0
69960 On ch=1 n=f5 v=55
69980 Par ch=1 c=64 v=0
70064 On ch=1 n=g#3 v=68
70068 On ch=1 n=f5 v=0
70080 On ch=1 n=e5 v=54
70112 On ch=1 n=a3 v=78
70180 On ch=1 n=g#3 v=0
70188 On ch=1 n=e5 v=0
70200 On ch=1 n=a4 v=58
70264 On ch=1 n=a3 v=0
70308 On ch=1 n=a4 v=0
70320 On ch=1 n=g4 v=63
70428 On ch=1 n=g4 v=0
70440 On ch=1 n=f4 v=55
70548 On ch=1 n=f4 v=0
70556 On ch=1 n=a3 v=91
70560 On ch=1 n=e4 v=58
70652 On ch=1 n=a3 v=0
70668 On ch=1 n=e4 v=0
70680 On ch=1 n=a3 v=39
70768 On ch=1 n=c#3 v=0
70788 On ch=1 n=a3 v=0
70800 On ch=1 n=e4 v=61
70908 On ch=1 n=e4 v=0
70920 On ch=1 n=g4 v=64
71000 Par ch=1 c=64 v=127
71028 On ch=1 n=g4 v=0
71040 On ch=1 n=f#4 v=60
71056 On ch=1 n=c3 v=86
71148 On ch=1 n=f#4 v=0
71160 On ch=1 n=a3 v=50
71268 On ch=1 n=a3 v=0
71280 On ch=1 n=d#4 v=54
71312 On ch=1 n=c3 v=0
71388 On ch=1 n=d#4 v=0
71400 On ch=1 n=e4 v=56
71508 On ch=1 n=e4 v=0
71520 On ch=1 n=f#4 v=57
71536 Par ch=1 c=64 v=0
71560 On ch=1 n=b3 v=79
71628 On ch=1 n=f#4 v=0
71640 On ch=1 n=a4 v=45
71748 On ch=1 n=a4 v=0
71760 On ch=1 n=d#5 v=48
71864 On ch=1 n=a3 v=77
71868 On ch=1 n=d#5 v=0
71880 On ch=1 n=e5 v=46
71908 On ch=1 n=b3 v=0
71968 Par ch=1 c=64 v=127
71988 On ch=1 n=e5 v=0
72000 On ch=1 n=f#5 v=59
72000 On ch=1 n=c4 v=73
72044 On ch=1 n=a3 v=0
72108 On ch=1 n=f#5 v=0
72120 On ch=1 n=a5 v=48
72228 On ch=1 n=a5 v=0
72240 On ch=1 n=d#6 v=58
72348 On ch=1 n=d#6 v=0
72360 On ch=1 n=e6 v=62
72468 On ch=1 n=e6 v=0
72468 On ch=1 n=c4 v=0
72472 On ch=1 n=c5 v=91
72480 On ch=1 n=f#6 v=60
72508 Par ch=1 c=64 v=0
72588 On ch=1 n=f#6 v=0
72600 On ch=1 n=a6 v=60
72708 On ch=1 n=a6 v=0
72720 On ch=1 n=d#7 v=60
72828 On ch=1 n=d#7 v=0
72840 On ch=1 n=e7 v=71
72892 Par ch=1 c=64 v=127
72936 On ch=1 n=c5 v=0
72948 On ch=1 n=e7 v=0
72960 On ch=1 n=f#7 v=68
72968 On ch=1 n=b4 v=83
72976 On ch=1 n=b3 v=81
73068 On ch=1 n=f#7 v=0
73080 On ch=1 n=e7 v=71
73188 On ch=1 n=e7 v=0
73200 On ch=1 n=d#7 v=71
73224 On ch=1 n=b3 v=0
73224 On ch=1 n=b4 v=0
73308 On ch=1 n=d#7 v=0
73320 On ch=1 n=c8 v=72
73428 On ch=1 n=c8 v=0
73440 On ch=1 n=f#7 v=73
73440 On ch=1 n=f#5 v=65
73548 On ch=1 n=f#5 v=0
73548 On ch=1 n=f#7 v=0
73560 On ch=1 n=e7 v=74
73560 On ch=1 n=g#5 v=69
73668 On ch=1 n=g#5 v=0
73668 On ch=1 n=e7 v=0
73680 On ch=1 n=d#7 v=78
73680 On ch=1 n=a5 v=70
73788 On ch=1 n=a5 v=0
73788 On ch=1 n=d#7 v=0
73800 On ch=1 n=a6 v=78
73800 On ch=1 n=f#6 v=66
73824 Par ch=1 c=64 v=0
73888 On ch=1 n=f#6 v=0
73908 On ch=1 n=a6 v=0
73920 On ch=1 n=f7 v=79
73920 On ch=1 n=f5 v=70
73936 Par ch=1 c=64 v=127
74028 On ch=1 n=f5 v=0
74028 On ch=1 n=f7 v=0
74040 On ch=1 n=d#7 v=81
74040 On ch=1 n=f#5 v=68
74148 On ch=1 n=f#5 v=0
74148 On ch=1 n=d#7 v=0
74160 On ch=1 n=d7 v=81
74160 On ch=1 n=g#5 v=71
74268 On ch=1 n=g#5 v=0
74268 On ch=1 n=d7 v=0
74280 On ch=1 n=b7 v=82
74280 On ch=1 n=b4 v=71
74388 On ch=1 n=b4 v=0
74388 On ch=1 n=b7 v=0
74400 On ch=1 n=f7 v=82
74400 On ch=1 n=f5 v=71
74508 On ch=1 n=f5 v=0
74508 On ch=1 n=f7 v=0
74520 On ch=1 n=d#7 v=84
74520 On ch=1 n=f#5 v=74
74628 On ch=1 n=f#5 v=0
74628 On ch=1 n=d#7 v=0
74640 On ch=1 n=d7 v=85
74640 On ch=1 n=g#5 v=77
74748 On ch=1 n=g#5 v=0
74748 On ch=1 n=d7 v=0
74760 On ch=1 n=g#6 v=86
74760 On ch=1 n=f6 v=81
74804 Par ch=1 c=64 v=0
74824 On ch=1 n=f6 v=0
74868 On ch=1 n=g#6 v=0
74880 On ch=1 n=f7 v=86
74904 Par ch=1 c=64 v=127
74944 On ch=1 n=a#4 v=87
74988 On ch=1 n=f7 v=0
75000 On ch=1 n=d#7 v=85
75108 On ch=1 n=d#7 v=0
75120 On ch=1 n=d7 v=82
75128 On ch=1 n=a#4 v=0
75228 On ch=1 n=d7 v=0
75240 On ch=1 n=a#7 v=81
75348 On ch=1 n=a#7 v=0
75360 On ch=1 n=f7 v=84
75380 On ch=1 n=a#5 v=85
75388 On ch=1 n=a#4 v=87
75468 On ch=1 n=a#5 v=0
75468 On ch=1 n=f7 v=0
75480 On ch=1 n=a#4 v=0
75480 On ch=1 n=d#7 v=86
75588 On ch=1 n=d#7 v=0
75600 On ch=1 n=d7 v=82
75660 Par ch=1 c=64 v=0
75708 On ch=1 n=d7 v=0
75716 On ch=1 n=f5 v=86
75720 On ch=1 n=g#6 v=80
75720 On ch=1 n=f4 v=84
75768 On ch=1 n=f5 v=0
75772 On ch=1 n=f4 v=0
75828 On ch=1 n=g#6 v=0
75840 On ch=1 n=f6 v=83
75844 Par ch=1 c=64 v=127
75892 On ch=1 n=a#4 v=93
75900 On ch=1 n=a#3 v=89
75948 On ch=1 n=f6 v=0
75960 On ch=1 n=d#6 v=78
76068 On ch=1 n=d#6 v=0
76080 On ch=1 n=d6 v=78
76152 On ch=1 n=a#3 v=0
76152 On ch=1 n=a#4 v=0
76188 On ch=1 n=d6 v=0
76200 On ch=1 n=g#5 v=80
76308 On ch=1 n=g#5 v=0
76312 Par ch=1 c=64 v=0
76320 On ch=1 n=f5 v=81
76352 On ch=1 n=f3 v=84
76356 On ch=1 n=f4 v=87
76372 Par ch=1 c=64 v=127
76428 On ch=1 n=f5 v=0
76440 On ch=1 n=d#5 v=83
76512 On ch=1 n=f4 v=0
76544 On ch=1 n=f3 v=0
76548 On ch=1 n=d#5 v=0
76560 On ch=1 n=d5 v=81
76668 On ch=1 n=d5 v=0
76680 On ch=1 n=g#4 v=83
76684 Par ch=1 c=64 v=0
76788 On ch=1 n=g#4 v=0
76820 On ch=1 n=a#3 v=91
76828 On ch=1 n=a#2 v=95
76836 Par ch=1 c=64 v=127
76992 On ch=1 n=a#2 v=0
77000 On ch=1 n=a#3 v=0
77280 On ch=1 n=f7 v=63
77280 On ch=1 n=f5 v=76
77388 On ch=1 n=f5 v=0
77388 On ch=1 n=f7 v=0
77400 On ch=1 n=d#7 v=67
77400 On ch=1 n=g5 v=75
77508 On ch=1 n=g5 v=0
77508 On ch=1 n=d#7 v=0
77520 On ch=1 n=d7 v=68
77520 On ch=1 n=g#5 v=76
77628 On ch=1 n=g#5 v=0
77628 On ch=1 n=d7 v=0
77628 Par ch=1 c=64 v=0
77640 On ch=1 n=g#6 v=72
77640 On ch=1 n=f6 v=80
77728 On ch=1 n=f6 v=0
77748 On ch=1 n=g#6 v=0
77760 On ch=1 n=e7 v=74
77760 On ch=1 n=e5 v=81
77868 On ch=1 n=e5 v=0
77868 On ch=1 n=e7 v=0
77880 On ch=1 n=d7 v=76
77880 On ch=1 n=f5 v=84
77988 On ch=1 n=f5 v=0
77988 On ch=1 n=d7 v=0
78000 On ch=1 n=c#7 v=78
78000 On ch=1 n=g5 v=85
78108 On ch=1 n=g5 v=0
78108 On ch=1 n=c#7 v=0
78120 On ch=1 n=a#7 v=79
78120 On ch=1 n=a#4 v=88
78228 On ch=1 n=a#4 v=0
78228 On ch=1 n=a#7 v=0
78240 On ch=1 n=e7 v=79
78240 On ch=1 n=e5 v=87
78348 On ch=1 n=e5 v=0
78348 On ch=1 n=e7 v=0
78360 On ch=1 n=d7 v=75
78360 On ch=1 n=f5 v=88
78468 On ch=1 n=f5 v=0
78468 On ch=1 n=d7 v=0
78480 On ch=1 n=c#7 v=77
78480 On ch=1 n=g5 v=88
78588 On ch=1 n=g5 v=0
78588 On ch=1 n=c#7 v=0
78600 On ch=1 n=g6 v=77
78600 On ch=1 n=e6 v=91
78660 Par ch=1 c=64 v=127
78668 On ch=1 n=e6 v=0
78708 On ch=1 n=g6 v=0
78712 On ch=1 n=a4 v=98
78720 On ch=1 n=e7 v=78
78828 On ch=1 n=e7 v=0
78840 On ch=1 n=d7 v=77
78948 On ch=1 n=d7 v=0
78960 On ch=1 n=c#7 v=78
78984 On ch=1 n=a4 v=0
79068 On ch=1 n=c#7 v=0
79080 On ch=1 n=a7 v=76
79112 Par ch=1 c=64 v=0
79180 On ch=1 n=a5 v=83
79184 On ch=1 n=a4 v=86
79188 On ch=1 n=a7 v=0
79200 On ch=1 n=e7 v=79
79232 Par ch=1 c=64 v=127
79272 On ch=1 n=a5 v=0
79292 On ch=1 n=a4 v=0
79308 On ch=1 n=e7 v=0
79320 On ch=1 n=d7 v=77
79428 On ch=1 n=d7 v=0
79440 On ch=1 n=c#7 v=79
79508 On ch=1 n=e4 v=83
79512 On ch=1 n=e5 v=89
79548 On ch=1 n=c#7 v=0
79552 Par ch=1 c=64 v=0
79560 On ch=1 n=g6 v=74
79576 On ch=1 n=e5 v=0
79584 On ch=1 n=e4 v=0
79656 Par ch=1 c=64 v=127
79668 On ch=1 n=g6 v=0
79680 On ch=1 n=e6 v=77
79704 On ch=1 n=a3 v=91
79716 On ch=1 n=a4 v=92
79788 On ch=1 n=e6 v=0
79800 On ch=1 n=d6 v=78
79908 On ch=1 n=d6 v=0
79920 On ch=1 n=c#6 v=79
79936 On ch=1 n=a4 v=0
79964 On ch=1 n=a3 v=0
80028 On ch=1 n=c#6 v=0
80040 On ch=1 n=g5 v=79
80088 Par ch=1 c=64 v=0
80148 On ch=1 n=g5 v=0
80160 On ch=1 n=e5 v=78
80168 Par ch=1 c=64 v=127
80176 On ch=1 n=e3 v=91
80184 On ch=1 n=e4 v=94
80268 On ch=1 n=e5 v=0
80280 On ch=1 n=d5 v=78
80388 On ch=1 n=d5 v=0
80400 On ch=1 n=c#5 v=80
80432 On ch=1 n=e4 v=0
80468 On ch=1 n=e3 v=0
80508 On ch=1 n=c#5 v=0
80520 On ch=1 n=g4 v=82
80568 Par ch=1 c=64 v=0
80628 On ch=1 n=g4 v=0
80656 Par ch=1 c=64 v=127
80668 On ch=1 n=a2 v=100
80672 On ch=1 n=a3 v=91
80824 On ch=1 n=a2 v=0
80840 On ch=1 n=a3 v=0
81092 Par ch=1 c=64 v=0
81120 On ch=1 n=e7 v=88
81120 On ch=1 n=e5 v=53
81228 On ch=1 n=e5 v=0
81228 On ch=1 n=e7 v=0
81240 On ch=1 n=d7 v=72
81240 On ch=1 n=f#5 v=54
81348 On ch=1 n=f#5 v=0
81348 On ch=1 n=d7 v=0
81360 On ch=1 n=c#7 v=74
81360 On ch=1 n=g5 v=63
81468 On ch=1 n=g5 v=0
81468 On ch=1 n=c#7 v=0
81480 On ch=1 n=g6 v=72
81480 On ch=1 n=e6 v=64
81588 On ch=1 n=e6 v=0
81588 On ch=1 n=g6 v=0
81600 On ch=1 n=d7 v=89
81600 On ch=1 n=d5 v=51
81708 On ch=1 n=d5 v=0
81708 On ch=1 n=d7 v=0
81720 On ch=1 n=c#7 v=78
81720 On ch=1 n=e5 v=52
81828 On ch=1 n=e5 v=0
81828 On ch=1 n=c#7 v=0
81840 On ch=1 n=b6 v=76
81840 On ch=1 n=f#5 v=55
81948 On ch=1 n=f#5 v=0
81948 On ch=1 n=b6 v=0
81960 On ch=1 n=f#6 v=73
81960 On ch=1 n=d6 v=47
82068 On ch=1 n=d6 v=0
82068 On ch=1 n=f#6 v=0
82080 On ch=1 n=c#7 v=84
82080 On ch=1 n=c#5 v=49
82188 On ch=1 n=c#5 v=0
82188 On ch=1 n=c#7 v=0
82200 On ch=1 n=b6 v=73
82200 On ch=1 n=d5 v=48
82308 On ch=1 n=d5 v=0
82308 On ch=1 n=b6 v=0
82320 On ch=1 n=a6 v=72
82320 On ch=1 n=e5 v=58
82428 On ch=1 n=e5 v=0
82428 On ch=1 n=a6 v=0
82440 On ch=1 n=e6 v=76
82440 On ch=1 n=c#6 v=54
82548 On ch=1 n=c#6 v=0
82548 On ch=1 n=e6 v=0
82560 On ch=1 n=b6 v=88
82560 On ch=1 n=b4 v=50
82668 On ch=1 n=b4 v=0
82668 On ch=1 n=b6 v=0
82680 On ch=1 n=a6 v=75
82680 On ch=1 n=c#5 v=50
82788 On ch=1 n=c#5 v=0
82788 On ch=1 n=a6 v=0
82800 On ch=1 n=g6 v=78
82800 On ch=1 n=d5 v=60
82908 On ch=1 n=d5 v=0
82908 On ch=1 n=g6 v=0
82920 On ch=1 n=d6 v=77
82920 On ch=1 n=b5 v=58
83028 On ch=1 n=b5 v=0
83028 On ch=1 n=d6 v=0
83040 On ch=1 n=a6 v=88
83040 On ch=1 n=a4 v=51
83048 Par ch=1 c=64 v=127
83148 On ch=1 n=a4 v=0
83148 On ch=1 n=a6 v=0
83160 On ch=1 n=g6 v=78
83160 On ch=1 n=b4 v=58
83268 On ch=1 n=b4 v=0
83268 On ch=1 n=g6 v=0
83280 On ch=1 n=f#6 v=78
83280 On ch=1 n=c#5 v=54
83388 On ch=1 n=c#5 v=0
83388 On ch=1 n=f#6 v=0
83400 On ch=1 n=c#6 v=79
83400 On ch=1 n=a5 v=63
83504 Par ch=1 c=64 v=0
83508 On ch=1 n=a5 v=0
83508 On ch=1 n=c#6 v=0
83520 On ch=1 n=g6 v=86
83520 On ch=1 n=g4 v=56
83628 On ch=1 n=g4 v=0
83628 On ch=1 n=g6 v=0
83640 On ch=1 n=f#6 v=77
83640 On ch=1 n=a4 v=53
83748 On ch=1 n=a4 v=0
83748 On ch=1 n=f#6 v=0
83760 On ch=1 n=e6 v=75
83760 On ch=1 n=b4 v=53
83868 On ch=1 n=b4 v=0
83868 On ch=1 n=e6 v=0
83880 On ch=1 n=b5 v=76
83880 On ch=1 n=g5 v=51
83988 On ch=1 n=g5 v=0
83988 On ch=1 n=b5 v=0
84000 On ch=1 n=f#6 v=86
84000 On ch=1 n=f#4 v=48
84108 On ch=1 n=f#4 v=0
84108 On ch=1 n=f#6 v=0
84120 On ch=1 n=e6 v=74
84120 On ch=1 n=g4 v=55
84228 On ch=1 n=g4 v=0
84228 On ch=1 n=e6 v=0
84240 On ch=1 n=d6 v=73
84240 On ch=1 n=a4 v=62
84348 On ch=1 n=a4 v=0
84348 On ch=1 n=d6 v=0
84360 On ch=1 n=a5 v=68
84360 On ch=1 n=f#5 v=57
84456 Par ch=1 c=64 v=127
84468 On ch=1 n=f#5 v=0
84468 On ch=1 n=a5 v=0
84480 On ch=1 n=e6 v=81
84480 On ch=1 n=e4 v=48
84588 On ch=1 n=e4 v=0
84588 On ch=1 n=e6 v=0
84600 On ch=1 n=d6 v=66
84600 On ch=1 n=f#4 v=60
84708 On ch=1 n=f#4 v=0
84708 On ch=1 n=d6 v=0
84720 On ch=1 n=c#6 v=65
84720 On ch=1 n=g4 v=58
84828 On ch=1 n=g4 v=0
84828 On ch=1 n=c#6 v=0
84840 On ch=1 n=g5 v=67
84840 On ch=1 n=e5 v=61
84908 Par ch=1 c=64 v=0
84948 On ch=1 n=e5 v=0
84948 On ch=1 n=g5 v=0
84960 On ch=1 n=d6 v=82
84960 On ch=1 n=d#4 v=48
85068 On ch=1 n=d#4 v=0
85068 On ch=1 n=d6 v=0
85080 On ch=1 n=c#6 v=66
85080 On ch=1 n=e4 v=51
85188 On ch=1 n=e4 v=0
85188 On ch=1 n=c#6 v=0
85200 On ch=1 n=b5 v=65
85200 On ch=1 n=f#4 v=41
85308 On ch=1 n=f#4 v=0
85308 On ch=1 n=b5 v=0
85320 On ch=1 n=g#5 v=67
85320 On ch=1 n=d5 v=47
85416 Par ch=1 c=64 v=127
85428 On ch=1 n=d5 v=0
85428 On ch=1 n=g#5 v=0
85440 On ch=1 n=d6 v=71
85440 On ch=1 n=f#4 v=47
85548 On ch=1 n=f#4 v=0
85548 On ch=1 n=d6 v=0
85560 On ch=1 n=c#6 v=66
85560 On ch=1 n=g4 v=55
85668 On ch=1 n=g4 v=0
85668 On ch=1 n=c#6 v=0
85680 On ch=1 n=b5 v=66
85680 On ch=1 n=a4 v=46
85788 On ch=1 n=a4 v=0
85788 On ch=1 n=b5 v=0
85800 On ch=1 n=f#5 v=65
85800 On ch=1 n=d5 v=62
85888 Par ch=1 c=64 v=0
85908 On ch=1 n=d5 v=0
85908 On ch=1 n=f#5 v=0
85920 On ch=1 n=d6 v=64
85920 On ch=1 n=g4 v=51
86028 On ch=1 n=g4 v=0
86028 On ch=1 n=d6 v=0
86040 On ch=1 n=c#6 v=62
86040 On ch=1 n=a4 v=60
86148 On ch=1 n=a4 v=0
86148 On ch=1 n=c#6 v=0
86160 On ch=1 n=b5 v=59
86160 On ch=1 n=b4 v=53
86268 On ch=1 n=b4 v=0
86268 On ch=1 n=b5 v=0
86280 On ch=1 n=f5 v=60
86280 On ch=1 n=d5 v=60
86388 On ch=1 n=d5 v=0
86388 On ch=1 n=f5 v=0
86400 On ch=1 n=c#6 v=74
86400 On ch=1 n=a4 v=50
86508 On ch=1 n=a4 v=0
86508 On ch=1 n=c#6 v=0
86520 On ch=1 n=b5 v=58
86520 On ch=1 n=b4 v=52
86628 On ch=1 n=b4 v=0
86628 On ch=1 n=b5 v=0
86640 On ch=1 n=a5 v=58
86640 On ch=1 n=c5 v=60
86748 On ch=1 n=c5 v=0
86748 On ch=1 n=a5 v=0
86760 On ch=1 n=f#5 v=60
86760 On ch=1 n=c#5 v=61
86868 On ch=1 n=c#5 v=0
86868 On ch=1 n=f#5 v=0
86880 On ch=1 n=c6 v=75
86880 On ch=1 n=d#4 v=49
86988 On ch=1 n=d#4 v=0
86988 On ch=1 n=c6 v=0
87000 On ch=1 n=b5 v=59
87000 On ch=1 n=e4 v=56
87108 On ch=1 n=e4 v=0
87108 On ch=1 n=b5 v=0
87120 On ch=1 n=a5 v=55
87120 On ch=1 n=f#4 v=61
87228 On ch=1 n=f#4 v=0
87228 On ch=1 n=a5 v=0
87240 On ch=1 n=f#5 v=54
87240 On ch=1 n=c5 v=59
87344 Par ch=1 c=64 v=127
87348 On ch=1 n=c5 v=0
87348 On ch=1 n=f#5 v=0
87360 On ch=1 n=c6 v=52
87360 On ch=1 n=e4 v=45
87468 On ch=1 n=e4 v=0
87468 On ch=1 n=c6 v=0
87480 On ch=1 n=b5 v=54
87480 On ch=1 n=f#4 v=58
87588 On ch=1 n=f#4 v=0
87588 On ch=1 n=b5 v=0
87600 On ch=1 n=a5 v=53
87600 On ch=1 n=g4 v=60
87708 On ch=1 n=g4 v=0
87708 On ch=1 n=a5 v=0
87720 On ch=1 n=e5 v=53
87720 On ch=1 n=c5 v=58
87804 Par ch=1 c=64 v=0
87828 On ch=1 n=c5 v=0
87828 On ch=1 n=e5 v=0
87840 On ch=1 n=c6 v=50
87840 On ch=1 n=f#4 v=56
87948 On ch=1 n=f#4 v=0
87948 On ch=1 n=c6 v=0
87960 On ch=1 n=b5 v=51
87960 On ch=1 n=g4 v=60
88068 On ch=1 n=g4 v=0
88068 On ch=1 n=b5 v=0
88080 On ch=1 n=a5 v=50
88080 On ch=1 n=a4 v=49
88188 On ch=1 n=a4 v=0
88188 On ch=1 n=a5 v=0
88200 On ch=1 n=d#5 v=50
88200 On ch=1 n=c5 v=56
88308 On ch=1 n=c5 v=0
88308 On ch=1 n=d#5 v=0
88320 On ch=1 n=b5 v=66
88320 On ch=1 n=g4 v=58
88428 On ch=1 n=g4 v=0
88428 On ch=1 n=b5 v=0
88440 On ch=1 n=a5 v=52
88440 On ch=1 n=a4 v=53
88548 On ch=1 n=a4 v=0
88548 On ch=1 n=a5 v=0
88560 On ch=1 n=g5 v=49
88560 On ch=1 n=a#4 v=58
88668 On ch=1 n=a#4 v=0
88668 On ch=1 n=g5 v=0
88680 On ch=1 n=e5 v=49
88680 On ch=1 n=b4 v=63
88788 On ch=1 n=b4 v=0
88788 On ch=1 n=e5 v=0
88800 On ch=1 n=a#5 v=64
88800 On ch=1 n=c#4 v=48
88908 On ch=1 n=c#4 v=0
88908 On ch=1 n=a#5 v=0
88920 On ch=1 n=a5 v=49
88920 On ch=1 n=d4 v=48
89028 On ch=1 n=d4 v=0
89028 On ch=1 n=a5 v=0
89040 On ch=1 n=g5 v=49
89040 On ch=1 n=e4 v=50
89148 On ch=1 n=e4 v=0
89148 On ch=1 n=g5 v=0
89160 On ch=1 n=e5 v=49
89160 On ch=1 n=a#4 v=41
89248 Par ch=1 c=64 v=127
89268 On ch=1 n=a#4 v=0
89268 On ch=1 n=e5 v=0
89280 On ch=1 n=a#5 v=49
89280 On ch=1 n=d4 v=46
89388 On ch=1 n=d4 v=0
89388 On ch=1 n=a#5 v=0
89400 On ch=1 n=a5 v=51
89400 On ch=1 n=e4 v=53
89508 On ch=1 n=e4 v=0
89508 On ch=1 n=a5 v=0
89520 On ch=1 n=g5 v=49
89520 On ch=1 n=f4 v=56
89628 On ch=1 n=f4 v=0
89628 On ch=1 n=g5 v=0
89640 On ch=1 n=d5 v=50
89640 On ch=1 n=a#4 v=59
89720 Par ch=1 c=64 v=0
89748 On ch=1 n=a#4 v=0
89748 On ch=1 n=d5 v=0
89760 On ch=1 n=a#5 v=48
89760 On ch=1 n=e4 v=43
89868 On ch=1 n=e4 v=0
89868 On ch=1 n=a#5 v=0
89880 On ch=1 n=a5 v=49
89880 On ch=1 n=f4 v=55
89988 On ch=1 n=f4 v=0
89988 On ch=1 n=a5 v=0
90000 On ch=1 n=g5 v=47
90000 On ch=1 n=g4 v=55
90108 On ch=1 n=g4 v=0
90108 On ch=1 n=g5 v=0
90120 On ch=1 n=c#5 v=48
90120 On ch=1 n=a#4 v=52
90228 On ch=1 n=a#4 v=0
90228 On ch=1 n=c#5 v=0
90240 On ch=1 n=d5 v=68
90240 On ch=1 n=a4 v=50
90348 On ch=1 n=a4 v=0
90348 On ch=1 n=d5 v=0
90360 On ch=1 n=e5 v=45
90360 On ch=1 n=g4 v=58
90468 On ch=1 n=g4 v=0
90468 On ch=1 n=e5 v=0
90480 On ch=1 n=f5 v=43
90480 On ch=1 n=f4 v=55
90588 On ch=1 n=f4 v=0
90588 On ch=1 n=f5 v=0
90600 On ch=1 n=d6 v=47
90600 On ch=1 n=a3 v=51
90708 On ch=1 n=a3 v=0
90708 On ch=1 n=d6 v=0
90720 On ch=1 n=c#5 v=63
90720 On ch=1 n=g4 v=52
90828 On ch=1 n=g4 v=0
90828 On ch=1 n=c#5 v=0
90840 On ch=1 n=d5 v=46
90840 On ch=1 n=f4 v=56
90948 On ch=1 n=f4 v=0
90948 On ch=1 n=d5 v=0
90960 On ch=1 n=e5 v=44
90960 On ch=1 n=e4 v=55
91068 On ch=1 n=e4 v=0
91068 On ch=1 n=e5 v=0
91080 On ch=1 n=c#6 v=48
91080 On ch=1 n=a3 v=58
91156 Par ch=1 c=64 v=127
91188 On ch=1 n=a3 v=0
91188 On ch=1 n=c#6 v=0
91200 On ch=1 n=d5 v=64
91200 On ch=1 n=a4 v=55
91308 On ch=1 n=a4 v=0
91308 On ch=1 n=d5 v=0
91320 On ch=1 n=e5 v=50
91320 On ch=1 n=g4 v=61
91428 On ch=1 n=g4 v=0
91428 On ch=1 n=e5 v=0
91440 On ch=1 n=f5 v=54
91440 On ch=1 n=f4 v=52
91500 Par ch=1 c=64 v=0
91548 On ch=1 n=f4 v=0
91548 On ch=1 n=f5 v=0
91560 On ch=1 n=d6 v=54
91560 On ch=1 n=a3 v=51
91636 Par ch=1 c=64 v=127
91668 On ch=1 n=a3 v=0
91668 On ch=1 n=d6 v=0
91680 On ch=1 n=f5 v=71
91680 On ch=1 n=f4 v=62
91788 On ch=1 n=f4 v=0
91788 On ch=1 n=f5 v=0
91800 On ch=1 n=g5 v=59
91800 On ch=1 n=e4 v=53
91908 On ch=1 n=e4 v=0
91908 On ch=1 n=g5 v=0
91920 On ch=1 n=g#5 v=64
91920 On ch=1 n=d4 v=60
92024 Par ch=1 c=64 v=0
92028 On ch=1 n=d4 v=0
92028 On ch=1 n=g#5 v=0
92040 On ch=1 n=f6 v=67
92040 On ch=1 n=a3 v=56
92148 On ch=1 n=f6 v=0
92148 Par ch=1 c=64 v=127
92160 On ch=1 n=a5 v=69
92164 On ch=1 n=c#4 v=79
92268 On ch=1 n=a5 v=0
92280 On ch=1 n=b5 v=63
92312 On ch=1 n=a3 v=0
92344 On ch=1 n=c#4 v=0
92388 On ch=1 n=b5 v=0
92400 On ch=1 n=c#6 v=49
92496 Par ch=1 c=64 v=0
92508 On ch=1 n=c#6 v=0
92520 On ch=1 n=a6 v=62
92604 On ch=1 n=a6 v=0
92640 On ch=1 n=a6 v=53
92644 Par ch=1 c=64 v=127
92660 On ch=1 n=a3 v=89
92660 On ch=1 n=a2 v=89
92748 On ch=1 n=a6 v=0
92760 On ch=1 n=b6 v=56
92868 On ch=1 n=b6 v=0
92880 On ch=1 n=c#7 v=52
92988 On ch=1 n=c#7 v=0
93000 On ch=1 n=a7 v=56
93108 On ch=1 n=a7 v=0
93120 On ch=1 n=c#7 v=63
93192 Par ch=1 c=64 v=0
93228 On ch=1 n=c#7 v=0
93240 On ch=1 n=b6 v=53
93264 Par ch=1 c=64 v=127
93320 On ch=1 n=a3 v=0
93324 On ch=1 n=a2 v=0
93348 On ch=1 n=b6 v=0
93360 On ch=1 n=a6 v=60
93444 On ch=1 n=a6 v=0
93480 On ch=1 n=a6 v=60
93588 On ch=1 n=a6 v=0
93600 On ch=1 n=c#6 v=52
93632 On ch=1 n=e4 v=81
93636 On ch=1 n=c#4 v=67
93708 On ch=1 n=c#6 v=0
93720 On ch=1 n=b5 v=60
93828 On ch=1 n=b5 v=0
93840 On ch=1 n=a5 v=57
93916 On ch=1 n=c#4 v=0
93920 On ch=1 n=e4 v=0
93924 On ch=1 n=a5 v=0
93948 Par ch=1 c=64 v=0
93960 On ch=1 n=a5 v=58
94068 On ch=1 n=a5 v=0
94080 On ch=1 n=a#5 v=62
94100 On ch=1 n=a3 v=59
94104 On ch=1 n=f4 v=87
94112 On ch=1 n=d4 v=61
94132 Par ch=1 c=64 v=127
94188 On ch=1 n=a#5 v=0
94200 On ch=1 n=c6 v=62
94308 On ch=1 n=c6 v=0
94320 On ch=1 n=d6 v=66
94428 On ch=1 n=d6 v=0
94440 On ch=1 n=a#6 v=68
94520 Par ch=1 c=64 v=0
94524 On ch=1 n=a#6 v=0
94560 On ch=1 n=a#6 v=59
94584 On ch=1 n=g4 v=80
94592 On ch=1 n=f4 v=0
94624 Par ch=1 c=64 v=127
94668 On ch=1 n=a#6 v=0
94680 On ch=1 n=c7 v=68
94748 On ch=1 n=d4 v=0
94760 On ch=1 n=a3 v=0
94788 On ch=1 n=c7 v=0
94800 On ch=1 n=d7 v=62
94880 Par ch=1 c=64 v=0
94884 On ch=1 n=f4 v=71
94908 On ch=1 n=d7 v=0
94920 On ch=1 n=a#7 v=63
94952 On ch=1 n=g4 v=0
95008 Par ch=1 c=64 v=127
95016 On ch=1 n=a#4 v=83
95028 On ch=1 n=a#7 v=0
95040 On ch=1 n=d7 v=70
95148 On ch=1 n=d7 v=0
95160 On ch=1 n=c7 v=65
95268 On ch=1 n=c7 v=0
95280 On ch=1 n=a#6 v=53
95352 Par ch=1 c=64 v=0
95364 On ch=1 n=a#6 v=0
95400 On ch=1 n=a#6 v=58
95444 Par ch=1 c=64 v=127
95484 On ch=1 n=d5 v=80
95488 On ch=1 n=a#4 v=0
95508 On ch=1 n=a#6 v=0
95520 On ch=1 n=d6 v=54
95628 On ch=1 n=d6 v=0
95640 On ch=1 n=c6 v=48
95688 On ch=1 n=d5 v=0
95704 On ch=1 n=f4 v=0
95732 Par ch=1 c=64 v=0
95748 On ch=1 n=c6 v=0
95760 On ch=1 n=a#5 v=57
95844 On ch=1 n=a#5 v=0
95880 On ch=1 n=a#5 v=57
95888 On ch=1 n=a3 v=65
95924 Par ch=1 c=64 v=127
95964 On ch=1 n=d#4 v=68
95976 On ch=1 n=f#4 v=77
95988 On ch=1 n=a#5 v=0
96000 On ch=1 n=b5 v=52
96052 On ch=1 n=b4 v=81
96108 On ch=1 n=b5 v=0
96120 On ch=1 n=c#6 v=61
96144 On ch=1 n=a3 v=0
96168 On ch=1 n=b4 v=0
96184 On ch=1 n=f#4 v=0
96192 On ch=1 n=d#4 v=0
96228 On ch=1 n=c#6 v=0
96240 On ch=1 n=d#6 v=58
96348 On ch=1 n=d#6 v=0
96360 On ch=1 n=b6 v=66
96444 On ch=1 n=b6 v=0
96480 On ch=1 n=b6 v=58
96488 On ch=1 n=a3 v=89
96500 On ch=1 n=a2 v=94
96588 On ch=1 n=b6 v=0
96600 On ch=1 n=c#7 v=57
96708 On ch=1 n=c#7 v=0
96720 On ch=1 n=d#7 v=62
96828 On ch=1 n=d#7 v=0
96840 On ch=1 n=b7 v=62
96948 On ch=1 n=b7 v=0
96960 On ch=1 n=d#7 v=64
97068 On ch=1 n=d#7 v=0
97080 On ch=1 n=c#7 v=54
97148 On ch=1 n=a2 v=0
97156 On ch=1 n=a3 v=0
97188 On ch=1 n=c#7 v=0
97188 Par ch=1 c=64 v=0
97200 On ch=1 n=b6 v=62
97284 On ch=1 n=b6 v=0
97320 On ch=1 n=b6 v=56
97428 On ch=1 n=b6 v=0
97436 Par ch=1 c=64 v=127
97440 On ch=1 n=d#6 v=56
97460 On ch=1 n=d4 v=56
97460 On ch=1 n=f4 v=79
97548 On ch=1 n=d#6 v=0
97560 On ch=1 n=c#6 v=53
97668 On ch=1 n=c#6 v=0
97680 On ch=1 n=b5 v=56
97724 On ch=1 n=d4 v=0
97736 On ch=1 n=f4 v=0
97764 On ch=1 n=b5 v=0
97788 Par ch=1 c=64 v=0
97800 On ch=1 n=b5 v=56
97908 On ch=1 n=b5 v=0
97916 On ch=1 n=a3 v=67
97920 On ch=1 n=c6 v=60
97920 Par ch=1 c=64 v=127
97924 On ch=1 n=g4 v=75
97928 On ch=1 n=e4 v=60
98028 On ch=1 n=c6 v=0
98040 On ch=1 n=d6 v=55
98148 On ch=1 n=d6 v=0
98160 On ch=1 n=e6 v=62
98268 On ch=1 n=e6 v=0
98280 On ch=1 n=c7 v=63
98364 On ch=1 n=c7 v=0
98400 On ch=1 n=g4 v=0
98400 On ch=1 n=c7 v=55
98404 On ch=1 n=a4 v=87
98508 On ch=1 n=c7 v=0
98520 On ch=1 n=d7 v=62
98544 On ch=1 n=a3 v=0
98604 On ch=1 n=e4 v=0
98628 On ch=1 n=d7 v=0
98640 On ch=1 n=e7 v=63
98732 On ch=1 n=g4 v=75
98740 Par ch=1 c=64 v=0
98748 On ch=1 n=e7 v=0
98760 On ch=1 n=c8 v=58
98784 On ch=1 n=a4 v=0
98852 Par ch=1 c=64 v=127
98856 On ch=1 n=c5 v=72
98868 On ch=1 n=c8 v=0
98880 On ch=1 n=e7 v=57
98988 On ch=1 n=e7 v=0
99000 On ch=1 n=d7 v=64
99108 On ch=1 n=d7 v=0
99120 On ch=1 n=c7 v=65
99204 On ch=1 n=c7 v=0
99240 On ch=1 n=c7 v=69
99344 On ch=1 n=e5 v=80
99348 On ch=1 n=c7 v=0
99360 On ch=1 n=e6 v=69
99404 On ch=1 n=c5 v=0
99468 On ch=1 n=e6 v=0
99480 On ch=1 n=d6 v=69
99496 Par ch=1 c=64 v=0
99504 On ch=1 n=g4 v=0
99548 On ch=1 n=e5 v=0
99588 On ch=1 n=d6 v=0
99600 On ch=1 n=c6 v=69
99684 On ch=1 n=c6 v=0
99716 On ch=1 n=a3 v=63
99720 On ch=1 n=c6 v=70
99732 Par ch=1 c=64 v=127
99812 On ch=1 n=e4 v=66
99824 On ch=1 n=a3 v=0
99828 On ch=1 n=c6 v=0
99840 On ch=1 n=c#6 v=71
99856 On ch=1 n=g4 v=73
99912 On ch=1 n=c#5 v=78
99948 On ch=1 n=c#6 v=0
99960 On ch=1 n=d6 v=66
100028 On ch=1 n=c#5 v=0
100028 On ch=1 n=g4 v=0
100064 On ch=1 n=e4 v=0
100068 On ch=1 n=d6 v=0
100080 On ch=1 n=e6 v=67
100188 On ch=1 n=e6 v=0
100200 On ch=1 n=c#7 v=54
100288 Par ch=1 c=64 v=0
100308 On ch=1 n=c#7 v=0
100320 On ch=1 n=e6 v=55
100344 On ch=1 n=a2 v=98
100344 On ch=1 n=a3 v=87
100376 Par ch=1 c=64 v=127
100428 On ch=1 n=e6 v=0
100440 On ch=1 n=f6 v=62
100548 On ch=1 n=f6 v=0
100560 On ch=1 n=g6 v=63
100668 On ch=1 n=g6 v=0
100680 On ch=1 n=e7 v=60
100788 On ch=1 n=e7 v=0
100800 On ch=1 n=g6 v=48
100836 On ch=1 n=a2 v=0
100844 On ch=1 n=a3 v=0
100908 On ch=1 n=g6 v=0
100920 On ch=1 n=a6 v=60
101028 On ch=1 n=a6 v=0
101040 On ch=1 n=a#6 v=64
101132 Par ch=1 c=64 v=0
101148 On ch=1 n=a#6 v=0
101160 On ch=1 n=g7 v=56
101268 On ch=1 n=g7 v=0
101280 On ch=1 n=a#6 v=64
101280 On ch=1 n=g4 v=69
101388 On ch=1 n=g4 v=0
101388 On ch=1 n=a#6 v=0
101400 On ch=1 n=b6 v=68
101400 On ch=1 n=a4 v=67
101508 On ch=1 n=a4 v=0
101508 On ch=1 n=b6 v=0
101520 On ch=1 n=c#7 v=61
101520 On ch=1 n=a#4 v=67
101628 On ch=1 n=a#4 v=0
101628 On ch=1 n=c#7 v=0
101640 On ch=1 n=a#7 v=60
101640 On ch=1 n=e5 v=72
101748 On ch=1 n=e5 v=0
101748 On ch=1 n=a#7 v=0
101760 On ch=1 n=g6 v=60
101760 On ch=1 n=a#4 v=71
101868 On ch=1 n=a#4 v=0
101868 On ch=1 n=g6 v=0
101880 On ch=1 n=a6 v=59
101880 On ch=1 n=c5 v=68
101988 On ch=1 n=c5 v=0
101988 On ch=1 n=a6 v=0
102000 On ch=1 n=a#6 v=62
102000 On ch=1 n=c#5 v=69
102108 On ch=1 n=c#5 v=0
102108 On ch=1 n=a#6 v=0
102120 On ch=1 n=g7 v=58
102120 On ch=1 n=g5 v=74
102228 On ch=1 n=g5 v=0
102228 On ch=1 n=g7 v=0
102240 On ch=1 n=e6 v=66
102240 On ch=1 n=c#5 v=74
102348 On ch=1 n=c#5 v=0
102348 On ch=1 n=e6 v=0
102360 On ch=1 n=f6 v=72
102360 On ch=1 n=d5 v=76
102468 On ch=1 n=d5 v=0
102468 On ch=1 n=f6 v=0
102480 On ch=1 n=g6 v=68
102480 On ch=1 n=e5 v=76
102588 On ch=1 n=e5 v=0
102588 On ch=1 n=g6 v=0
102600 On ch=1 n=e7 v=66
102600 On ch=1 n=a#5 v=80
102708 On ch=1 n=a#5 v=0
102708 On ch=1 n=e7 v=0
102720 On ch=1 n=g6 v=68
102720 On ch=1 n=e5 v=77
102828 On ch=1 n=e5 v=0
102828 On ch=1 n=g6 v=0
102840 On ch=1 n=a6 v=67
102840 On ch=1 n=f5 v=84
102948 On ch=1 n=f5 v=0
102948 On ch=1 n=a6 v=0
102960 On ch=1 n=a#6 v=76
102960 On ch=1 n=g5 v=84
103068 On ch=1 n=g5 v=0
103068 On ch=1 n=a#6 v=0
103080 On ch=1 n=g7 v=71
103080 On ch=1 n=c#6 v=84
103188 On ch=1 n=c#6 v=0
103188 On ch=1 n=g7 v=0
103200 On ch=1 n=a#6 v=69
103200 On ch=1 n=g5 v=88
103308 On ch=1 n=g5 v=0
103308 On ch=1 n=a#6 v=0
103320 On ch=1 n=c7 v=70
103320 On ch=1 n=a5 v=85
103428 On ch=1 n=a5 v=0
103428 On ch=1 n=c7 v=0
103440 On ch=1 n=c#7 v=81
103440 On ch=1 n=a#5 v=87
103548 On ch=1 n=a#5 v=0
103548 On ch=1 n=c#7 v=0
103560 On ch=1 n=a#7 v=80
103560 On ch=1 n=e6 v=88
103668 On ch=1 n=e6 v=0
103668 On ch=1 n=a#7 v=0
103680 On ch=1 n=e7 v=76
103680 On ch=1 n=g6 v=90
103788 On ch=1 n=e7 v=0
103800 On ch=1 n=d7 v=76
103864 On ch=1 n=g6 v=0
103908 On ch=1 n=d7 v=0
103920 On ch=1 n=c#7 v=80
104028 On ch=1 n=c#7 v=0
104040 On ch=1 n=g6 v=76
104148 On ch=1 n=g6 v=0
104160 On ch=1 n=e7 v=81
104160 On ch=1 n=g5 v=74
104268 On ch=1 n=g5 v=0
104268 On ch=1 n=e7 v=0
104280 On ch=1 n=d7 v=74
104280 On ch=1 n=a5 v=72
104388 On ch=1 n=a5 v=0
104388 On ch=1 n=d7 v=0
104400 On ch=1 n=c#7 v=78
104400 On ch=1 n=a#5 v=76
104508 On ch=1 n=a#5 v=0
104508 On ch=1 n=c#7 v=0
104520 On ch=1 n=a#7 v=76
104520 On ch=1 n=c#5 v=74
104620 Par ch=1 c=64 v=127
104628 On ch=1 n=c#5 v=0
104628 On ch=1 n=a#7 v=0
104640 On ch=1 n=e7 v=81
104640 On ch=1 n=g5 v=76
104748 On ch=1 n=g5 v=0
104748 On ch=1 n=e7 v=0
104760 On ch=1 n=d7 v=77
104760 On ch=1 n=a5 v=75
104868 On ch=1 n=a5 v=0
104868 On ch=1 n=d7 v=0
104880 On ch=1 n=c#7 v=78
104880 On ch=1 n=a#5 v=78
104988 On ch=1 n=a#5 v=0
104988 On ch=1 n=c#7 v=0
105000 On ch=1 n=g6 v=80
105000 On ch=1 n=e6 v=75
105108 On ch=1 n=e6 v=0
105108 On ch=1 n=g6 v=0
105120 On ch=1 n=e7 v=81
105120 On ch=1 n=g5 v=74
105228 On ch=1 n=g5 v=0
105228 On ch=1 n=e7 v=0
105240 On ch=1 n=d7 v=79
105240 On ch=1 n=a5 v=78
105348 On ch=1 n=a5 v=0
105348 On ch=1 n=d7 v=0
105360 On ch=1 n=c#7 v=75
105360 On ch=1 n=a#5 v=75
105452 Par ch=1 c=64 v=0
105468 On ch=1 n=a#5 v=0
105468 On ch=1 n=c#7 v=0
105480 On ch=1 n=a#7 v=78
105480 On ch=1 n=c#5 v=74
105580 Par ch=1 c=64 v=127
105588 On ch=1 n=c#5 v=0
105588 On ch=1 n=a#7 v=0
105600 On ch=1 n=e7 v=73
105600 On ch=1 n=g5 v=74
105708 On ch=1 n=g5 v=0
105708 On ch=1 n=e7 v=0
105720 On ch=1 n=d7 v=70
105720 On ch=1 n=a5 v=73
105828 On ch=1 n=a5 v=0
105828 On ch=1 n=d7 v=0
105840 On ch=1 n=c#7 v=69
105840 On ch=1 n=a#5 v=74
105948 On ch=1 n=a#5 v=0
105948 On ch=1 n=c#7 v=0
105960 On ch=1 n=g6 v=73
105960 On ch=1 n=e6 v=77
106068 On ch=1 n=e6 v=0
106068 On ch=1 n=g6 v=0
106080 On ch=1 n=c#7 v=73
106080 On ch=1 n=a#5 v=76
106188 On ch=1 n=a#5 v=0
106188 On ch=1 n=c#7 v=0
106200 On ch=1 n=d7 v=68
106200 On ch=1 n=a5 v=76
106308 On ch=1 n=a5 v=0
106308 On ch=1 n=d7 v=0
106320 On ch=1 n=e7 v=75
106320 On ch=1 n=g5 v=79
106428 On ch=1 n=g5 v=0
106428 On ch=1 n=e7 v=0
106432 Par ch=1 c=64 v=0
106440 On ch=1 n=a#7 v=71
106440 On ch=1 n=c#5 v=78
106548 On ch=1 n=c#5 v=0
106548 On ch=1 n=a#7 v=0
106560 On ch=1 n=e7 v=72
106560 On ch=1 n=g5 v=75
106588 Par ch=1 c=64 v=127
106668 On ch=1 n=g5 v=0
106668 On ch=1 n=e7 v=0
106680 On ch=1 n=d7 v=76
106680 On ch=1 n=a5 v=77
106788 On ch=1 n=a5 v=0
106788 On ch=1 n=d7 v=0
106800 On ch=1 n=c#7 v=73
106800 On ch=1 n=a#5 v=77
106908 On ch=1 n=a#5 v=0
106908 On ch=1 n=c#7 v=0
106920 On ch=1 n=g6 v=71
106920 On ch=1 n=e6 v=77
107028 On ch=1 n=e6 v=0
107028 On ch=1 n=g6 v=0
107040 On ch=1 n=c#7 v=70
107040 On ch=1 n=a#5 v=81
107148 On ch=1 n=a#5 v=0
107148 On ch=1 n=c#7 v=0
107160 On ch=1 n=d7 v=68
107160 On ch=1 n=a5 v=78
107268 On ch=1 n=a5 v=0
107268 On ch=1 n=d7 v=0
107280 On ch=1 n=e7 v=65
107280 On ch=1 n=g5 v=74
107356 Par ch=1 c=64 v=0
107388 On ch=1 n=g5 v=0
107388 On ch=1 n=e7 v=0
107400 On ch=1 n=a#7 v=65
107400 On ch=1 n=c#5 v=76
107476 Par ch=1 c=64 v=127
107508 On ch=1 n=c#5 v=0
107508 On ch=1 n=a#7 v=0
107520 On ch=1 n=e7 v=65
107520 On ch=1 n=g5 v=77
107628 On ch=1 n=g5 v=0
107628 On ch=1 n=e7 v=0
107640 On ch=1 n=d7 v=67
107640 On ch=1 n=a5 v=74
107748 On ch=1 n=a5 v=0
107748 On ch=1 n=d7 v=0
107760 On ch=1 n=c7 v=69
107760 On ch=1 n=a#5 v=71
107868 On ch=1 n=a#5 v=0
107868 On ch=1 n=c7 v=0
107880 On ch=1 n=g6 v=69
107880 On ch=1 n=e6 v=73
107988 On ch=1 n=e6 v=0
107988 On ch=1 n=g6 v=0
108000 On ch=1 n=e7 v=60
108000 On ch=1 n=g5 v=67
108108 On ch=1 n=g5 v=0
108108 On ch=1 n=e7 v=0
108120 On ch=1 n=d7 v=56
108120 On ch=1 n=a5 v=67
108228 On ch=1 n=a5 v=0
108228 On ch=1 n=d7 v=0
108240 On ch=1 n=c7 v=56
108240 On ch=1 n=a#5 v=62
108324 Par ch=1 c=64 v=0
108348 On ch=1 n=a#5 v=0
108348 On ch=1 n=c7 v=0
108360 On ch=1 n=a#7 v=62
108360 On ch=1 n=c5 v=62
108428 Par ch=1 c=64 v=127
108468 On ch=1 n=c5 v=0
108468 On ch=1 n=a#7 v=0
108480 On ch=1 n=e7 v=69
108480 On ch=1 n=g5 v=56
108588 On ch=1 n=g5 v=0
108588 On ch=1 n=e7 v=0
108600 On ch=1 n=d7 v=63
108600 On ch=1 n=a5 v=59
108708 On ch=1 n=a5 v=0
108708 On ch=1 n=d7 v=0
108720 On ch=1 n=c7 v=58
108720 On ch=1 n=a#5 v=55
108828 On ch=1 n=a#5 v=0
108828 On ch=1 n=c7 v=0
108840 On ch=1 n=g6 v=63
108840 On ch=1 n=e6 v=53
108948 On ch=1 n=e6 v=0
108948 On ch=1 n=g6 v=0
108960 On ch=1 n=e7 v=56
108960 On ch=1 n=g5 v=56
109068 On ch=1 n=g5 v=0
109068 On ch=1 n=e7 v=0
109080 On ch=1 n=d7 v=61
109080 On ch=1 n=a5 v=51
109188 On ch=1 n=a5 v=0
109188 On ch=1 n=d7 v=0
109200 On ch=1 n=c7 v=59
109200 On ch=1 n=a#5 v=48
109216 Par ch=1 c=64 v=0
109308 On ch=1 n=a#5 v=0
109308 On ch=1 n=c7 v=0
109320 On ch=1 n=a#7 v=62
109320 On ch=1 n=c5 v=49
109372 Par ch=1 c=64 v=127
109428 On ch=1 n=c5 v=0
109428 On ch=1 n=a#7 v=0
109440 On ch=1 n=e7 v=57
109440 On ch=1 n=g5 v=47
109548 On ch=1 n=g5 v=0
109548 On ch=1 n=e7 v=0
109560 On ch=1 n=d7 v=60
109560 On ch=1 n=a5 v=49
109668 On ch=1 n=a5 v=0
109668 On ch=1 n=d7 v=0
109680 On ch=1 n=c7 v=58
109680 On ch=1 n=a#5 v=47
109788 On ch=1 n=a#5 v=0
109788 On ch=1 n=c7 v=0
109800 On ch=1 n=g6 v=54
109800 On ch=1 n=e6 v=43
109908 On ch=1 n=e6 v=0
109908 On ch=1 n=g6 v=0
109920 On ch=1 n=c7 v=58
109920 On ch=1 n=a#5 v=43
110028 On ch=1 n=a#5 v=0
110028 On ch=1 n=c7 v=0
110040 On ch=1 n=d7 v=55
110040 On ch=1 n=a5 v=40
110112 Par ch=1 c=64 v=0
110148 On ch=1 n=a5 v=0
110148 On ch=1 n=d7 v=0
110160 On ch=1 n=e7 v=52
110160 On ch=1 n=g5 v=39
110244 Par ch=1 c=64 v=127
110268 On ch=1 n=g5 v=0
110268 On ch=1 n=e7 v=0
110280 On ch=1 n=a#7 v=57
110280 On ch=1 n=c5 v=40
110388 On ch=1 n=c5 v=0
110388 On ch=1 n=a#7 v=0
110400 On ch=1 n=e7 v=53
110400 On ch=1 n=g5 v=37
110508 On ch=1 n=g5 v=0
110508 On ch=1 n=e7 v=0
110520 On ch=1 n=d7 v=51
110520 On ch=1 n=a5 v=34
110628 On ch=1 n=a5 v=0
110628 On ch=1 n=d7 v=0
110640 On ch=1 n=c7 v=50
110640 On ch=1 n=a#5 v=35
110748 On ch=1 n=a#5 v=0
110748 On ch=1 n=c7 v=0
110760 On ch=1 n=g6 v=49
110760 On ch=1 n=e6 v=32
110868 On ch=1 n=e6 v=0
110868 On ch=1 n=g6 v=0
110880 On ch=1 n=c7 v=47
110880 On ch=1 n=a#5 v=33
110988 On ch=1 n=a#5 v=0
110988 On ch=1 n=c7 v=0
111000 On ch=1 n=d7 v=50
111000 On ch=1 n=a5 v=31
111108 On ch=1 n=a5 v=0
111108 On ch=1 n=d7 v=0
111120 On ch=1 n=e7 v=45
111120 On ch=1 n=g5 v=31
111164 Par ch=1 c=64 v=0
111228 On ch=1 n=g5 v=0
111228 On ch=1 n=e7 v=0
111240 On ch=1 n=a#7 v=44
111240 On ch=1 n=c5 v=31
111252 Par ch=1 c=64 v=127
111348 On ch=1 n=c5 v=0
111348 On ch=1 n=a#7 v=0
111360 On ch=1 n=e7 v=37
111360 On ch=1 n=g5 v=32
111468 On ch=1 n=g5 v=0
111468 On ch=1 n=e7 v=0
111480 On ch=1 n=d7 v=35
111480 On ch=1 n=a5 v=33
111588 On ch=1 n=a5 v=0
111588 On ch=1 n=d7 v=0
111600 On ch=1 n=c7 v=38
111600 On ch=1 n=a#5 v=35
111708 On ch=1 n=a#5 v=0
111708 On ch=1 n=c7 v=0
111720 On ch=1 n=g6 v=38
111720 On ch=1 n=e6 v=37
111828 On ch=1 n=e6 v=0
111828 On ch=1 n=g6 v=0
111840 On ch=1 n=f7 v=38
111840 On ch=1 n=g#5 v=39
111948 On ch=1 n=g#5 v=0
111948 On ch=1 n=f7 v=0
111960 On ch=1 n=e7 v=37
111960 On ch=1 n=a5 v=40
112068 On ch=1 n=a5 v=0
112068 On ch=1 n=e7 v=0
112080 On ch=1 n=d7 v=37
112080 On ch=1 n=b5 v=41
112188 On ch=1 n=b5 v=0
112188 On ch=1 n=d7 v=0
112192 Par ch=1 c=64 v=0
112200 On ch=1 n=g#6 v=41
112200 On ch=1 n=f6 v=41
112308 On ch=1 n=f6 v=0
112308 On ch=1 n=g#6 v=0
112320 On ch=1 n=f7 v=41
112320 On ch=1 n=g#5 v=41
112428 On ch=1 n=g#5 v=0
112428 On ch=1 n=f7 v=0
112440 On ch=1 n=e7 v=41
112440 On ch=1 n=a5 v=41
112548 On ch=1 n=a5 v=0
112548 On ch=1 n=e7 v=0
112560 On ch=1 n=d7 v=43
112560 On ch=1 n=b5 v=41
112668 On ch=1 n=b5 v=0
112668 On ch=1 n=d7 v=0
112680 On ch=1 n=g#6 v=43
112680 On ch=1 n=f6 v=41
112752 Par ch=1 c=64 v=127
112788 On ch=1 n=f6 v=0
112788 On ch=1 n=g#6 v=0
112800 On ch=1 n=e7 v=44
112800 On ch=1 n=g5 v=41
112908 On ch=1 n=g5 v=0
112908 On ch=1 n=e7 v=0
112920 On ch=1 n=d7 v=44
112920 On ch=1 n=a5 v=41
113028 On ch=1 n=a5 v=0
113028 On ch=1 n=d7 v=0
113040 On ch=1 n=c#7 v=43
113040 On ch=1 n=a#5 v=41
113148 On ch=1 n=a#5 v=0
113148 On ch=1 n=c#7 v=0
113160 On ch=1 n=g6 v=45
113160 On ch=1 n=e6 v=41
113268 On ch=1 n=e6 v=0
113268 On ch=1 n=g6 v=0
113280 On ch=1 n=e7 v=48
113280 On ch=1 n=g5 v=41
113316 Par ch=1 c=64 v=0
113388 On ch=1 n=g5 v=0
113388 On ch=1 n=e7 v=0
113400 On ch=1 n=d7 v=48
113400 On ch=1 n=a5 v=42
113508 On ch=1 n=a5 v=0
113508 On ch=1 n=d7 v=0
113520 On ch=1 n=c#7 v=49
113520 On ch=1 n=a#5 v=42
113628 On ch=1 n=a#5 v=0
113628 On ch=1 n=c#7 v=0
113640 On ch=1 n=g6 v=50
113640 On ch=1 n=e6 v=42
113696 Par ch=1 c=64 v=127
113748 On ch=1 n=e6 v=0
113748 On ch=1 n=g6 v=0
113760 On ch=1 n=f7 v=50
113760 On ch=1 n=g#5 v=42
113868 On ch=1 n=g#5 v=0
113868 On ch=1 n=f7 v=0
113880 On ch=1 n=e7 v=51
113880 On ch=1 n=a5 v=42
113988 On ch=1 n=a5 v=0
113988 On ch=1 n=e7 v=0
114000 On ch=1 n=d7 v=50
114000 On ch=1 n=b5 v=43
114108 On ch=1 n=b5 v=0
114108 On ch=1 n=d7 v=0
114120 On ch=1 n=g#6 v=51
114120 On ch=1 n=f6 v=44
114228 On ch=1 n=f6 v=0
114228 On ch=1 n=g#6 v=0
114240 On ch=1 n=f7 v=51
114240 On ch=1 n=g#5 v=45
114300 Par ch=1 c=64 v=0
114348 On ch=1 n=g#5 v=0
114348 On ch=1 n=f7 v=0
114360 On ch=1 n=e7 v=51
114360 On ch=1 n=a5 v=46
114468 On ch=1 n=a5 v=0
114468 On ch=1 n=e7 v=0
114480 On ch=1 n=d7 v=53
114480 On ch=1 n=b5 v=46
114588 On ch=1 n=b5 v=0
114588 On ch=1 n=d7 v=0
114600 On ch=1 n=g#6 v=50
114600 On ch=1 n=f6 v=47
114668 Par ch=1 c=64 v=127
114708 On ch=1 n=f6 v=0
114708 On ch=1 n=g#6 v=0
114720 On ch=1 n=f#7 v=52
114720 On ch=1 n=a5 v=47
114828 On ch=1 n=a5 v=0
114828 On ch=1 n=f#7 v=0
114840 On ch=1 n=e7 v=49
114840 On ch=1 n=a#5 v=49
114948 On ch=1 n=a#5 v=0
114948 On ch=1 n=e7 v=0
114960 On ch=1 n=d#7 v=50
114960 On ch=1 n=c6 v=51
115068 On ch=1 n=c6 v=0
115068 On ch=1 n=d#7 v=0
115080 On ch=1 n=a6 v=49
115080 On ch=1 n=f#6 v=53
115188 On ch=1 n=f#6 v=0
115188 On ch=1 n=a6 v=0
115200 On ch=1 n=f#7 v=49
115200 On ch=1 n=a5 v=53
115308 On ch=1 n=a5 v=0
115308 On ch=1 n=f#7 v=0
115320 On ch=1 n=e7 v=51
115320 On ch=1 n=a#5 v=54
115352 Par ch=1 c=64 v=0
115428 On ch=1 n=a#5 v=0
115428 On ch=1 n=e7 v=0
115440 On ch=1 n=d#7 v=50
115440 On ch=1 n=c6 v=54
115548 On ch=1 n=c6 v=0
115548 On ch=1 n=d#7 v=0
115560 On ch=1 n=a6 v=49
115560 On ch=1 n=f#6 v=55
115644 Par ch=1 c=64 v=127
115668 On ch=1 n=f#6 v=0
115668 On ch=1 n=a6 v=0
115680 On ch=1 n=g7 v=47
115680 On ch=1 n=a#5 v=55
115788 On ch=1 n=a#5 v=0
115788 On ch=1 n=g7 v=0
115800 On ch=1 n=f7 v=52
115800 On ch=1 n=c6 v=54
115908 On ch=1 n=c6 v=0
115908 On ch=1 n=f7 v=0
115920 On ch=1 n=e7 v=51
115920 On ch=1 n=c#6 v=55
116028 On ch=1 n=c#6 v=0
116028 On ch=1 n=e7 v=0
116040 On ch=1 n=a#6 v=50
116040 On ch=1 n=g6 v=55
116148 On ch=1 n=g6 v=0
116148 On ch=1 n=a#6 v=0
116160 On ch=1 n=g7 v=55
116160 On ch=1 n=a#5 v=56
116176 Par ch=1 c=64 v=0
116268 On ch=1 n=a#5 v=0
116268 On ch=1 n=g7 v=0
116280 On ch=1 n=f7 v=55
116280 On ch=1 n=c6 v=58
116388 On ch=1 n=c6 v=0
116388 On ch=1 n=f7 v=0
116400 On ch=1 n=e7 v=53
116400 On ch=1 n=c#6 v=58
116508 On ch=1 n=c#6 v=0
116508 On ch=1 n=e7 v=0
116520 On ch=1 n=a#6 v=51
116520 On ch=1 n=g6 v=59
116588 Par ch=1 c=64 v=127
116628 On ch=1 n=g6 v=0
116628 On ch=1 n=a#6 v=0
116640 On ch=1 n=f#7 v=52
116640 On ch=1 n=a5 v=61
116748 On ch=1 n=a5 v=0
116748 On ch=1 n=f#7 v=0
116760 On ch=1 n=e7 v=57
116760 On ch=1 n=a#5 v=63
116868 On ch=1 n=a#5 v=0
116868 On ch=1 n=e7 v=0
116880 On ch=1 n=d#7 v=55
116880 On ch=1 n=c6 v=63
116988 On ch=1 n=c6 v=0
116988 On ch=1 n=d#7 v=0
117000 On ch=1 n=a6 v=58
117000 On ch=1 n=f#6 v=64
117108 On ch=1 n=f#6 v=0
117108 On ch=1 n=a6 v=0
117120 On ch=1 n=f#7 v=60
117120 Par ch=1 c=64 v=0
117120 On ch=1 n=a5 v=66
117228 On ch=1 n=a5 v=0
117228 On ch=1 n=f#7 v=0
117240 On ch=1 n=e7 v=58
117240 On ch=1 n=a#5 v=67
117348 On ch=1 n=a#5 v=0
117348 On ch=1 n=e7 v=0
117360 On ch=1 n=d#7 v=57
117360 On ch=1 n=c6 v=67
117468 On ch=1 n=c6 v=0
117468 On ch=1 n=d#7 v=0
117480 On ch=1 n=a6 v=52
117480 On ch=1 n=f#6 v=68
117540 Par ch=1 c=64 v=127
117588 On ch=1 n=f#6 v=0
117588 On ch=1 n=a6 v=0
117600 On ch=1 n=g7 v=51
117600 On ch=1 n=a#5 v=67
117708 On ch=1 n=a#5 v=0
117708 On ch=1 n=g7 v=0
117720 On ch=1 n=f7 v=66
117720 On ch=1 n=c6 v=66
117828 On ch=1 n=c6 v=0
117828 On ch=1 n=f7 v=0
117840 On ch=1 n=e7 v=56
117840 On ch=1 n=c#6 v=66
117948 On ch=1 n=c#6 v=0
117948 On ch=1 n=e7 v=0
117960 On ch=1 n=a#6 v=57
117960 On ch=1 n=g6 v=66
118068 On ch=1 n=g6 v=0
118068 On ch=1 n=a#6 v=0
118080 On ch=1 n=g7 v=65
118080 On ch=1 n=a#5 v=66
118188 On ch=1 n=a#5 v=0
118188 On ch=1 n=g7 v=0
118200 On ch=1 n=f7 v=53
118200 On ch=1 n=c6 v=66
118308 On ch=1 n=c6 v=0
118308 On ch=1 n=f7 v=0
118320 On ch=1 n=e7 v=50
118320 On ch=1 n=c#6 v=66
118428 On ch=1 n=c#6 v=0
118428 On ch=1 n=e7 v=0
118440 On ch=1 n=a#6 v=48
118440 On ch=1 n=g6 v=66
118448 Par ch=1 c=64 v=0
118548 On ch=1 n=g6 v=0
118548 On ch=1 n=a#6 v=0
118560 On ch=1 n=g#7 v=62
118560 On ch=1 n=b5 v=67
118668 On ch=1 n=b5 v=0
118668 On ch=1 n=g#7 v=0
118680 On ch=1 n=g7 v=63
118680 On ch=1 n=c6 v=68
118788 On ch=1 n=c6 v=0
118788 On ch=1 n=g7 v=0
118800 On ch=1 n=f7 v=62
118800 On ch=1 n=d6 v=69
118908 On ch=1 n=d6 v=0
118908 On ch=1 n=f7 v=0
118920 On ch=1 n=b6 v=63
118920 On ch=1 n=g#6 v=69
118964 Par ch=1 c=64 v=127
118988 On ch=1 n=g#6 v=0
119028 On ch=1 n=b6 v=0
119040 On ch=1 n=a7 v=74
119048 On ch=1 n=f5 v=76
119132 On ch=1 n=c6 v=76
119148 On ch=1 n=f5 v=0
119148 On ch=1 n=a7 v=0
119160 On ch=1 n=g7 v=67
119236 On ch=1 n=a6 v=83
119268 On ch=1 n=g7 v=0
119280 On ch=1 n=f7 v=68
119308 On ch=1 n=c6 v=0
119340 On ch=1 n=a6 v=0
119388 On ch=1 n=f7 v=0
119400 On ch=1 n=c7 v=61
119508 On ch=1 n=c7 v=0
119520 On ch=1 n=a6 v=65
119628 On ch=1 n=a6 v=0
119640 On ch=1 n=g6 v=60
119748 On ch=1 n=g6 v=0
119760 On ch=1 n=f6 v=60
119828 Par ch=1 c=64 v=0
119868 On ch=1 n=f6 v=0
119880 On ch=1 n=c6 v=58
119988 On ch=1 n=c6 v=0
120000 On ch=1 n=a5 v=54
120048 On ch=1 n=c5 v=71
120052 On ch=1 n=f4 v=78
120108 On ch=1 n=a5 v=0
120120 On ch=1 n=g5 v=60
120136 On ch=1 n=c5 v=0
120160 On ch=1 n=f4 v=0
120228 On ch=1 n=g5 v=0
120240 On ch=1 n=f5 v=53
120348 On ch=1 n=f5 v=0
120360 On ch=1 n=c5 v=52
120468 On ch=1 n=c5 v=0
120480 On ch=1 n=a4 v=56
120520 On ch=1 n=f3 v=86
120532 On ch=1 n=c4 v=83
120588 On ch=1 n=a4 v=0
120600 On ch=1 n=g4 v=55
120616 On ch=1 n=c4 v=0
120644 On ch=1 n=f3 v=0
120708 On ch=1 n=g4 v=0
120720 On ch=1 n=f4 v=54
120828 On ch=1 n=f4 v=0
120840 On ch=1 n=c4 v=60
120864 Par ch=1 c=64 v=127
120948 On ch=1 n=c4 v=0
120960 On ch=1 n=f4 v=48
120972 On ch=1 n=f3 v=80
120976 On ch=1 n=f2 v=89
121068 On ch=1 n=f4 v=0
121076 On ch=1 n=f2 v=0
121080 On ch=1 n=g4 v=53
121124 On ch=1 n=f3 v=0
121188 On ch=1 n=g4 v=0
121200 On ch=1 n=a4 v=55
121308 On ch=1 n=a4 v=0
121320 On ch=1 n=c5 v=58
121408 Par ch=1 c=64 v=0
121428 On ch=1 n=c5 v=0
121440 On ch=1 n=f5 v=54
121460 On ch=1 n=d4 v=77
121548 On ch=1 n=f5 v=0
121560 On ch=1 n=g5 v=48
121668 On ch=1 n=g5 v=0
121680 On ch=1 n=a5 v=58
121788 On ch=1 n=a5 v=0
121800 On ch=1 n=c6 v=55
121800 On ch=1 n=c4 v=75
121836 On ch=1 n=d4 v=0
121908 On ch=1 n=c6 v=0
121912 On ch=1 n=a4 v=70
121920 On ch=1 n=f6 v=55
121924 On ch=1 n=c4 v=0
122028 On ch=1 n=f6 v=0
122040 On ch=1 n=g6 v=55
122148 On ch=1 n=g6 v=0
122160 On ch=1 n=a6 v=54
122268 On ch=1 n=a6 v=0
122280 On ch=1 n=c7 v=53
122356 On ch=1 n=f4 v=70
122388 On ch=1 n=c7 v=0
122388 On ch=1 n=a4 v=0
122400 On ch=1 n=f7 v=58
122508 On ch=1 n=f7 v=0
122520 On ch=1 n=g7 v=51
122628 On ch=1 n=g7 v=0
122640 On ch=1 n=a7 v=55
122712 On ch=1 n=f4 v=0
122712 On ch=1 n=a3 v=73
122748 On ch=1 n=a7 v=0
122760 On ch=1 n=g7 v=53
122788 Par ch=1 c=64 v=127
122844 On ch=1 n=a3 v=0
122864 On ch=1 n=f3 v=68
122868 On ch=1 n=g7 v=0
122876 On ch=1 n=c4 v=83
122880 On ch=1 n=f7 v=69
122988 On ch=1 n=f7 v=0
123000 On ch=1 n=c7 v=56
123108 On ch=1 n=c7 v=0
123120 On ch=1 n=a6 v=55
123228 On ch=1 n=a6 v=0
123240 On ch=1 n=g6 v=58
123348 On ch=1 n=g6 v=0
123360 On ch=1 n=f6 v=66
123468 On ch=1 n=f6 v=0
123480 On ch=1 n=c6 v=55
123552 On ch=1 n=c4 v=0
123588 On ch=1 n=c6 v=0
123600 On ch=1 n=a5 v=56
123708 On ch=1 n=a5 v=0
123720 On ch=1 n=g5 v=60
123756 Par ch=1 c=64 v=0
123824 On ch=1 n=b3 v=64
123828 On ch=1 n=g5 v=0
123840 On ch=1 n=f5 v=65
123856 On ch=1 n=c4 v=76
123916 On ch=1 n=b3 v=0
123948 On ch=1 n=f5 v=0
123956 On ch=1 n=c4 v=0
123960 On ch=1 n=c5 v=53
124068 On ch=1 n=c5 v=0
124080 On ch=1 n=a4 v=49
124188 On ch=1 n=a4 v=0
124200 On ch=1 n=g4 v=52
124308 On ch=1 n=g4 v=0
124320 On ch=1 n=f4 v=62
124320 On ch=1 n=c4 v=92
124400 On ch=1 n=c4 v=0
124428 On ch=1 n=f4 v=0
124440 On ch=1 n=c4 v=49
124520 On ch=1 n=f3 v=0
124548 On ch=1 n=c4 v=0
124560 On ch=1 n=f4 v=56
124668 On ch=1 n=f4 v=0
124680 On ch=1 n=a4 v=63
124764 Par ch=1 c=64 v=127
124788 On ch=1 n=a4 v=0
124800 On ch=1 n=g4 v=68
124824 On ch=1 n=e3 v=96
124828 On ch=1 n=e2 v=100
124908 On ch=1 n=g4 v=0
124920 On ch=1 n=c4 v=51
124992 On ch=1 n=e3 v=0
125000 On ch=1 n=e2 v=0
125028 On ch=1 n=c4 v=0
125040 On ch=1 n=g4 v=63
125148 On ch=1 n=g4 v=0
125160 On ch=1 n=a4 v=60
125268 On ch=1 n=a4 v=0
125280 On ch=1 n=a#4 v=66
125292 Par ch=1 c=64 v=0
125300 On ch=1 n=d4 v=83
125388 On ch=1 n=a#4 v=0
125400 On ch=1 n=c5 v=48
125508 On ch=1 n=c5 v=0
125520 On ch=1 n=g5 v=55
125628 On ch=1 n=g5 v=0
125640 On ch=1 n=a5 v=53
125676 On ch=1 n=c4 v=76
125700 On ch=1 n=d4 v=0
125748 On ch=1 n=a5 v=0
125748 Par ch=1 c=64 v=127
125760 On ch=1 n=a#5 v=67
125784 On ch=1 n=g4 v=91
125828 On ch=1 n=c4 v=0
125868 On ch=1 n=a#5 v=0
125880 On ch=1 n=c6 v=50
125988 On ch=1 n=c6 v=0
126000 On ch=1 n=g6 v=59
126108 On ch=1 n=g6 v=0
126120 On ch=1 n=a6 v=58
126224 Par ch=1 c=64 v=0
126228 On ch=1 n=a6 v=0
126240 On ch=1 n=a#6 v=66
126292 On ch=1 n=d5 v=87
126328 On ch=1 n=g4 v=0
126348 On ch=1 n=a#6 v=0
126360 On ch=1 n=c7 v=47
126376 On ch=1 n=d5 v=0
126468 On ch=1 n=c7 v=0
126480 On ch=1 n=g7 v=56
126588 On ch=1 n=g7 v=0
126600 On ch=1 n=a7 v=59
126632 On ch=1 n=e3 v=57
126668 On ch=1 n=e3 v=0
126680 On ch=1 n=c4 v=78
126708 On ch=1 n=a7 v=0
126720 On ch=1 n=a#7 v=68
126744 Par ch=1 c=64 v=127
126768 On ch=1 n=c5 v=91
126828 On ch=1 n=a#7 v=0
126840 On ch=1 n=a7 v=58
126948 On ch=1 n=a7 v=0
126960 On ch=1 n=g7 v=50
127068 On ch=1 n=g7 v=0
127080 On ch=1 n=c7 v=60
127188 On ch=1 n=c7 v=0
127200 On ch=1 n=a#6 v=65
127288 On ch=1 n=c5 v=0
127308 On ch=1 n=a#6 v=0
127312 On ch=1 n=c4 v=0
127320 On ch=1 n=a6 v=62
127428 On ch=1 n=a6 v=0
127440 On ch=1 n=g6 v=57
127544 Par ch=1 c=64 v=0
127548 On ch=1 n=g6 v=0
127560 On ch=1 n=c6 v=55
127668 On ch=1 n=c6 v=0
127668 On ch=1 n=b3 v=68
127680 On ch=1 n=a#5 v=64
127732 On ch=1 n=c4 v=84
127788 On ch=1 n=a#5 v=0
127800 On ch=1 n=a5 v=55
127804 On ch=1 n=b3 v=0
127872 On ch=1 n=c4 v=0
127908 On ch=1 n=a5 v=0
127920 On ch=1 n=g5 v=47
128028 On ch=1 n=g5 v=0
128040 On ch=1 n=c5 v=50
128148 On ch=1 n=c5 v=0
128160 On ch=1 n=a#4 v=61
128188 On ch=1 n=c4 v=98
128268 On ch=1 n=a#4 v=0
128280 On ch=1 n=a4 v=51
128324 On ch=1 n=c4 v=0
128388 On ch=1 n=a4 v=0
128400 On ch=1 n=g4 v=58
128508 On ch=1 n=g4 v=0
128520 On ch=1 n=c4 v=47
128628 On ch=1 n=c4 v=0
128640 On ch=1 n=g4 v=67
128652 Par ch=1 c=64 v=127
128664 On ch=1 n=e2 v=89
128668 On ch=1 n=e3 v=89
128748 On ch=1 n=g4 v=0
128760 On ch=1 n=a4 v=56
128820 On ch=1 n=e2 v=0
128856 On ch=1 n=e3 v=0
128868 On ch=1 n=a4 v=0
128880 On ch=1 n=a#4 v=63
128988 On ch=1 n=a#4 v=0
129000 On ch=1 n=c5 v=44
129108 On ch=1 n=c5 v=0
129120 On ch=1 n=g5 v=67
129148 Par ch=1 c=64 v=0
129164 On ch=1 n=d4 v=76
129228 On ch=1 n=g5 v=0
129240 On ch=1 n=a5 v=52
129348 On ch=1 n=a5 v=0
129360 On ch=1 n=a#5 v=55
129468 On ch=1 n=a#5 v=0
129480 On ch=1 n=c6 v=50
129500 On ch=1 n=c4 v=69
129560 On ch=1 n=d4 v=0
129588 On ch=1 n=c6 v=0
129600 On ch=1 n=g6 v=65
129616 Par ch=1 c=64 v=127
129640 On ch=1 n=a#4 v=83
129656 On ch=1 n=c4 v=0
129708 On ch=1 n=g6 v=0
129720 On ch=1 n=a6 v=58
129828 On ch=1 n=a6 v=0
129840 On ch=1 n=a#6 v=59
129948 On ch=1 n=a#6 v=0
129960 On ch=1 n=c7 v=49
130068 On ch=1 n=c7 v=0
130068 On ch=1 n=a#4 v=0
130080 On ch=1 n=g7 v=66
130088 On ch=1 n=g4 v=73
130116 Par ch=1 c=64 v=0
130188 On ch=1 n=g7 v=0
130200 On ch=1 n=a7 v=55
130308 On ch=1 n=a7 v=0
130320 On ch=1 n=a#7 v=60
130428 On ch=1 n=a#7 v=0
130432 On ch=1 n=g4 v=0
130440 On ch=1 n=a7 v=64
130452 On ch=1 n=g3 v=73
130548 On ch=1 n=a7 v=0
130560 On ch=1 n=g7 v=58
130584 On ch=1 n=g3 v=0
130588 Par ch=1 c=64 v=127
130588 On ch=1 n=e3 v=71
130596 On ch=1 n=c4 v=86
130668 On ch=1 n=g7 v=0
130680 On ch=1 n=c7 v=50
130788 On ch=1 n=c7 v=0
130800 On ch=1 n=a#6 v=50
130908 On ch=1 n=a#6 v=0
130920 On ch=1 n=a6 v=57
131028 On ch=1 n=a6 v=0
131040 On ch=1 n=g6 v=56
131148 On ch=1 n=g6 v=0
131160 On ch=1 n=c6 v=47
131248 On ch=1 n=c4 v=0
131268 On ch=1 n=c6 v=0
131280 On ch=1 n=a#5 v=49
131388 On ch=1 n=a#5 v=0
131400 On ch=1 n=a5 v=59
131468 Par ch=1 c=64 v=0
131508 On ch=1 n=a5 v=0
131520 On ch=1 n=g5 v=56
131536 On ch=1 n=b3 v=64
131584 On ch=1 n=c4 v=79
131628 On ch=1 n=g5 v=0
131640 On ch=1 n=c5 v=61
131660 On ch=1 n=b3 v=0
131712 On ch=1 n=c4 v=0
131748 On ch=1 n=c5 v=0
131760 On ch=1 n=a#4 v=54
131868 On ch=1 n=a#4 v=0
131880 On ch=1 n=a4 v=60
131988 On ch=1 n=a4 v=0
132000 On ch=1 n=g4 v=62
132008 On ch=1 n=c4 v=94
132096 On ch=1 n=c4 v=0
132108 On ch=1 n=g4 v=0
132120 On ch=1 n=c4 v=51
132220 On ch=1 n=e3 v=0
132228 On ch=1 n=c4 v=0
132240 On ch=1 n=g4 v=62
132348 On ch=1 n=g4 v=0
132360 On ch=1 n=a#4 v=58
132468 On ch=1 n=a#4 v=0
132480 On ch=1 n=a4 v=60
132488 Par ch=1 c=64 v=127
132508 On ch=1 n=f2 v=91
132512 On ch=1 n=f3 v=92
132588 On ch=1 n=a4 v=0
132596 On ch=1 n=f2 v=0
132600 On ch=1 n=c4 v=50
132648 On ch=1 n=f3 v=0
132708 On ch=1 n=c4 v=0
132720 On ch=1 n=f4 v=62
132828 On ch=1 n=f4 v=0
132840 On ch=1 n=g4 v=63
132932 Par ch=1 c=64 v=0
132948 On ch=1 n=g4 v=0
132960 On ch=1 n=a4 v=64
132964 On ch=1 n=d4 v=73
133068 On ch=1 n=a4 v=0
133080 On ch=1 n=c5 v=58
133188 On ch=1 n=c5 v=0
133200 On ch=1 n=f5 v=58
133272 On ch=1 n=d4 v=0
133308 On ch=1 n=f5 v=0
133320 On ch=1 n=g5 v=61
133320 On ch=1 n=c4 v=78
133428 On ch=1 n=g5 v=0
133428 On ch=1 n=f4 v=79
133436 Par ch=1 c=64 v=127
133440 On ch=1 n=a5 v=60
133472 On ch=1 n=c4 v=0
133548 On ch=1 n=a5 v=0
133560 On ch=1 n=c6 v=50
133668 On ch=1 n=c6 v=0
133680 On ch=1 n=f6 v=58
133788 On ch=1 n=f6 v=0
133800 On ch=1 n=g6 v=60
133864 Par ch=1 c=64 v=0
133908 On ch=1 n=g6 v=0
133908 On ch=1 n=f4 v=0
133920 On ch=1 n=a6 v=58
133952 On ch=1 n=f5 v=94
134028 On ch=1 n=a6 v=0
134040 On ch=1 n=c7 v=46
134148 On ch=1 n=c7 v=0
134160 On ch=1 n=f7 v=58
134268 On ch=1 n=f7 v=0
134272 On ch=1 n=f5 v=0
134280 On ch=1 n=a7 v=48
134388 On ch=1 n=a7 v=0
134400 On ch=1 n=g7 v=60
134404 On ch=1 n=d5 v=82
134412 On ch=1 n=a#4 v=85
134416 Par ch=1 c=64 v=127
134416 On ch=1 n=f5 v=82
134420 On ch=1 n=f4 v=79
134508 On ch=1 n=g7 v=0
134520 On ch=1 n=f7 v=62
134628 On ch=1 n=f7 v=0
134640 On ch=1 n=d7 v=56
134748 On ch=1 n=d7 v=0
134760 On ch=1 n=a#6 v=60
134868 On ch=1 n=a#6 v=0
134880 On ch=1 n=g6 v=61
134988 On ch=1 n=g6 v=0
135000 On ch=1 n=f6 v=58
135108 On ch=1 n=f6 v=0
135120 On ch=1 n=d6 v=59
135132 On ch=1 n=f5 v=0
135136 On ch=1 n=a#4 v=0
135136 On ch=1 n=d5 v=0
135148 On ch=1 n=f4 v=0
135228 On ch=1 n=d6 v=0
135240 On ch=1 n=a#5 v=60
135348 On ch=1 n=a#5 v=0
135360 On ch=1 n=c6 v=72
135364 Par ch=1 c=64 v=0
135396 On ch=1 n=f4 v=73
135400 On ch=1 n=f5 v=83
135404 On ch=1 n=c5 v=79
135408 On ch=1 n=a4 v=60
135468 On ch=1 n=c6 v=0
135480 On ch=1 n=f5 v=0
135480 On ch=1 n=f6 v=58
135484 On ch=1 n=c5 v=0
135504 On ch=1 n=a4 v=0
135512 On ch=1 n=f4 v=0
135588 On ch=1 n=f6 v=0
135600 On ch=1 n=g6 v=62
135708 On ch=1 n=g6 v=0
135720 On ch=1 n=a6 v=67
135828 On ch=1 n=a6 v=0
135840 On ch=1 n=c7 v=73
135876 On ch=1 n=f5 v=81
135880 On ch=1 n=a4 v=79
135888 On ch=1 n=c5 v=79
135892 On ch=1 n=f4 v=75
135948 On ch=1 n=c7 v=0
135960 On ch=1 n=c5 v=0
135960 On ch=1 n=f5 v=0
135960 On ch=1 n=f7 v=58
135964 On ch=1 n=f4 v=0
135972 On ch=1 n=a4 v=0
136068 On ch=1 n=f7 v=0
136080 On ch=1 n=g7 v=66
136188 On ch=1 n=g7 v=0
136200 On ch=1 n=a7 v=60
136308 On ch=1 n=a7 v=0
136320 On ch=1 n=g7 v=64
136320 Par ch=1 c=64 v=127
136352 On ch=1 n=f4 v=76
136356 On ch=1 n=f5 v=86
136360 On ch=1 n=d5 v=84
136364 On ch=1 n=a#4 v=82
136428 On ch=1 n=g7 v=0
136440 On ch=1 n=f7 v=60
136548 On ch=1 n=f7 v=0
136560 On ch=1 n=d7 v=66
136668 On ch=1 n=d7 v=0
136680 On ch=1 n=a#6 v=57
136788 On ch=1 n=a#6 v=0
136800 On ch=1 n=g6 v=58
136908 On ch=1 n=g6 v=0
136920 On ch=1 n=f6 v=53
137012 On ch=1 n=f5 v=0
137016 On ch=1 n=a#4 v=0
137016 On ch=1 n=d5 v=0
137024 On ch=1 n=f4 v=0
137028 On ch=1 n=f6 v=0
137040 On ch=1 n=d6 v=59
137148 On ch=1 n=d6 v=0
137160 On ch=1 n=a#5 v=51
137268 On ch=1 n=a#5 v=0
137280 On ch=1 n=c6 v=69
137284 Par ch=1 c=64 v=0
137316 On ch=1 n=f4 v=73
137320 On ch=1 n=c5 v=79
137324 On ch=1 n=f5 v=79
137332 On ch=1 n=a4 v=63
137388 On ch=1 n=c6 v=0
137400 On ch=1 n=f6 v=57
137416 On ch=1 n=c5 v=0
137424 On ch=1 n=a4 v=0
137432 On ch=1 n=f5 v=0
137440 On ch=1 n=f4 v=0
137508 On ch=1 n=f6 v=0
137520 On ch=1 n=g6 v=62
137628 On ch=1 n=g6 v=0
137640 On ch=1 n=a6 v=58
137748 On ch=1 n=a6 v=0
137760 On ch=1 n=c7 v=71
137784 On ch=1 n=f4 v=68
137792 On ch=1 n=c5 v=73
137796 On ch=1 n=a4 v=65
137800 On ch=1 n=f5 v=75
137868 On ch=1 n=c7 v=0
137872 On ch=1 n=f5 v=0
137872 On ch=1 n=c5 v=0
137876 On ch=1 n=f4 v=0
137880 On ch=1 n=a4 v=0
137880 On ch=1 n=f7 v=58
137988 On ch=1 n=f7 v=0
138000 On ch=1 n=g7 v=56
138108 On ch=1 n=g7 v=0
138120 On ch=1 n=a7 v=64
138120 On ch=1 n=c#4 v=72
138212 On ch=1 n=g4 v=74
138228 On ch=1 n=a7 v=0
138236 On ch=1 n=c#4 v=0
138236 Par ch=1 c=64 v=127
138240 On ch=1 n=g7 v=63
138252 On ch=1 n=b4 v=76
138316 On ch=1 n=f5 v=92
138348 On ch=1 n=g7 v=0
138360 On ch=1 n=a7 v=68
138464 On ch=1 n=g4 v=0
138468 On ch=1 n=a7 v=0
138480 On ch=1 n=g7 v=61
138512 On ch=1 n=b4 v=0
138524 On ch=1 n=f5 v=0
138588 On ch=1 n=g7 v=0
138600 On ch=1 n=f7 v=62
138708 On ch=1 n=f7 v=0
138720 On ch=1 n=b6 v=58
138828 On ch=1 n=b6 v=0
138840 On ch=1 n=g6 v=65
138948 On ch=1 n=g6 v=0
138960 On ch=1 n=f6 v=62
139068 On ch=1 n=f6 v=0
139080 On ch=1 n=b5 v=60
139188 On ch=1 n=b5 v=0
139200 On ch=1 n=g5 v=62
139308 On ch=1 n=g5 v=0
139320 On ch=1 n=f5 v=60
139428 On ch=1 n=f5 v=0
139440 On ch=1 n=b4 v=53
139548 On ch=1 n=b4 v=0
139560 On ch=1 n=g4 v=62
139640 Par ch=1 c=64 v=0
139668 On ch=1 n=g4 v=0
139680 On ch=1 n=f4 v=55
139788 On ch=1 n=f4 v=0
139800 On ch=1 n=b3 v=71
139920 On ch=1 n=g3 v=62
140028 On ch=1 n=g3 v=0
140040 On ch=1 n=f3 v=58
140148 On ch=1 n=f3 v=0
140156 On ch=1 n=b2 v=89
140208 Par ch=1 c=64 v=127
140280 On ch=1 n=c#4 v=59
140388 On ch=1 n=c#4 v=0
140400 On ch=1 n=f4 v=63
140508 On ch=1 n=f4 v=0
140520 On ch=1 n=g4 v=62
140628 On ch=1 n=g4 v=0
140640 On ch=1 n=c#5 v=61
140748 On ch=1 n=c#5 v=0
140760 On ch=1 n=f5 v=65
140868 On ch=1 n=f5 v=0
140880 On ch=1 n=g5 v=63
140988 On ch=1 n=g5 v=0
141000 On ch=1 n=c#6 v=66
141108 On ch=1 n=c#6 v=0
141120 On ch=1 n=f6 v=68
141228 On ch=1 n=f6 v=0
141240 On ch=1 n=g6 v=71
141348 On ch=1 n=g6 v=0
141360 On ch=1 n=c#7 v=70
141468 On ch=1 n=c#7 v=0
141480 On ch=1 n=f7 v=72
141588 On ch=1 n=f7 v=0
141600 On ch=1 n=g7 v=72
141708 On ch=1 n=g7 v=0
141720 On ch=1 n=c#8 v=72
141828 On ch=1 n=c#8 v=0
141828 On ch=1 n=b3 v=0
141828 Par ch=1 c=64 v=0
141840 On ch=1 n=f8 v=74
141884 On ch=1 n=b2 v=0
141948 On ch=1 n=f8 v=0
141960 On ch=1 n=f7 v=76
142000 Par ch=1 c=64 v=127
142068 On ch=1 n=f7 v=0
142072 On ch=1 n=c4 v=95
142076 On ch=1 n=c3 v=95
142080 On ch=1 n=c8 v=77
142188 On ch=1 n=c8 v=0
142200 On ch=1 n=g7 v=75
142308 On ch=1 n=g7 v=0
142320 On ch=1 n=f7 v=77
142428 On ch=1 n=f7 v=0
142440 On ch=1 n=c7 v=78
142548 On ch=1 n=c7 v=0
142560 On ch=1 n=g6 v=77
142668 On ch=1 n=g6 v=0
142680 On ch=1 n=f6 v=76
142788 On ch=1 n=f6 v=0
142800 On ch=1 n=c6 v=79
142908 On ch=1 n=c6 v=0
142920 On ch=1 n=g5 v=77
143028 On ch=1 n=g5 v=0
143040 On ch=1 n=f5 v=77
143148 On ch=1 n=f5 v=0
143160 On ch=1 n=c5 v=77
143268 On ch=1 n=c5 v=0
143280 On ch=1 n=g4 v=81
143356 On ch=1 n=c3 v=0
143356 On ch=1 n=c4 v=0
143388 On ch=1 n=g4 v=0
143400 On ch=1 n=f4 v=79
143488 Par ch=1 c=64 v=0
143508 On ch=1 n=f4 v=0
143520 On ch=1 n=c4 v=79
143628 On ch=1 n=c4 v=0
143640 On ch=1 n=f3 v=79
143748 On ch=1 n=f3 v=0
143760 On ch=1 n=e3 v=76
143868 On ch=1 n=e3 v=0
143880 On ch=1 n=d3 v=73
143976 On ch=1 n=a#5 v=76
143980 On ch=1 n=a#4 v=69
143988 On ch=1 n=d3 v=0
143988 On ch=1 n=e5 v=71
144000 On ch=1 n=c3 v=49
144108 On ch=1 n=c3 v=0
144120 On ch=1 n=d3 v=64
144228 On ch=1 n=d3 v=0
144240 On ch=1 n=e3 v=67
144348 On ch=1 n=e3 v=0
144360 On ch=1 n=c4 v=52
144468 On ch=1 n=c4 v=0
144480 On ch=1 n=d3 v=58
144496 On ch=1 n=d5 v=56
144544 On ch=1 n=e5 v=0
144588 On ch=1 n=d3 v=0
144600 On ch=1 n=e3 v=60
144668 On ch=1 n=d5 v=0
144708 On ch=1 n=e3 v=0
144720 On ch=1 n=f3 v=58
144828 On ch=1 n=f3 v=0
144840 On ch=1 n=c4 v=52
144948 On ch=1 n=c4 v=0
144956 On ch=1 n=d5 v=56
144960 On ch=1 n=d3 v=66
144968 Par ch=1 c=64 v=127
145068 On ch=1 n=d3 v=0
145080 On ch=1 n=e3 v=58
145096 On ch=1 n=d5 v=0
145184 On ch=1 n=a#5 v=0
145188 On ch=1 n=e3 v=0
145200 On ch=1 n=f3 v=66
145232 On ch=1 n=a#4 v=0
145308 On ch=1 n=f3 v=0
145320 On ch=1 n=c4 v=51
145408 Par ch=1 c=64 v=0
145428 On ch=1 n=c4 v=0
145440 On ch=1 n=e3 v=66
145452 On ch=1 n=a5 v=62
145456 On ch=1 n=c5 v=51
145464 On ch=1 n=a#4 v=51
145548 On ch=1 n=e3 v=0
145560 On ch=1 n=f3 v=66
145668 On ch=1 n=f3 v=0
145680 On ch=1 n=g3 v=68
145788 On ch=1 n=g3 v=0
145800 On ch=1 n=c4 v=63
145816 On ch=1 n=g5 v=45
145828 On ch=1 n=c5 v=0
145848 On ch=1 n=a#4 v=0
145852 On ch=1 n=a5 v=0
145904 Par ch=1 c=64 v=127
145908 On ch=1 n=c4 v=0
145920 On ch=1 n=f3 v=43
145932 On ch=1 n=f5 v=50
145976 On ch=1 n=g5 v=0
146032 On ch=1 n=f5 v=0
146040 On ch=1 n=a4 v=44
146120 On ch=1 n=f3 v=0
146148 On ch=1 n=a4 v=0
146160 On ch=1 n=e5 v=43
146268 On ch=1 n=e5 v=0
146280 On ch=1 n=g5 v=44
146388 On ch=1 n=g5 v=0
146400 On ch=1 n=f5 v=47
146408 Par ch=1 c=64 v=0
146508 On ch=1 n=f5 v=0
146520 On ch=1 n=a5 v=46
146628 On ch=1 n=a5 v=0
146640 On ch=1 n=e6 v=43
146748 On ch=1 n=e6 v=0
146760 On ch=1 n=g6 v=47
146832 Par ch=1 c=64 v=127
146868 On ch=1 n=g6 v=0
146868 On ch=1 n=d#4 v=50
146880 On ch=1 n=f6 v=43
146880 On ch=1 n=c5 v=62
146988 On ch=1 n=f6 v=0
147000 On ch=1 n=a6 v=44
147108 On ch=1 n=a6 v=0
147120 On ch=1 n=g6 v=45
147172 On ch=1 n=c5 v=0
147228 On ch=1 n=g6 v=0
147240 On ch=1 n=d6 v=46
147348 On ch=1 n=d6 v=0
147360 On ch=1 n=d#4 v=0
147360 On ch=1 n=f6 v=46
147376 On ch=1 n=f3 v=63
147468 On ch=1 n=f6 v=0
147480 On ch=1 n=d#6 v=47
147496 Par ch=1 c=64 v=0
147588 On ch=1 n=d#6 v=0
147600 On ch=1 n=g5 v=47
147632 On ch=1 n=f3 v=0
147708 On ch=1 n=g5 v=0
147720 On ch=1 n=a5 v=47
147804 Par ch=1 c=64 v=127
147828 On ch=1 n=a5 v=0
147840 On ch=1 n=a#5 v=46
147864 On ch=1 n=d4 v=52
147868 On ch=1 n=a#4 v=68
147948 On ch=1 n=a#5 v=0
147960 On ch=1 n=d#6 v=46
148068 On ch=1 n=d#6 v=0
148080 On ch=1 n=d6 v=42
148188 On ch=1 n=d6 v=0
148200 On ch=1 n=e5 v=45
148268 On ch=1 n=a#4 v=0
148308 On ch=1 n=e5 v=0
148320 On ch=1 n=f5 v=43
148348 On ch=1 n=f3 v=62
148372 Par ch=1 c=64 v=0
148404 On ch=1 n=d4 v=0
148428 On ch=1 n=f5 v=0
148440 On ch=1 n=c6 v=41
148548 On ch=1 n=c6 v=0
148560 On ch=1 n=a#5 v=43
148668 On ch=1 n=a#5 v=0
148680 On ch=1 n=c#5 v=41
148788 On ch=1 n=c#5 v=0
148800 On ch=1 n=d5 v=44
148908 On ch=1 n=d5 v=0
148920 On ch=1 n=a5 v=42
149028 On ch=1 n=a5 v=0
149040 On ch=1 n=g5 v=42
149148 On ch=1 n=g5 v=0
149160 On ch=1 n=c5 v=43
149268 On ch=1 n=c5 v=0
149280 On ch=1 n=b4 v=41
149280 On ch=1 n=f4 v=70
149284 On ch=1 n=d4 v=56
149388 On ch=1 n=b4 v=0
149400 On ch=1 n=d#5 v=45
149508 On ch=1 n=d#5 v=0
149520 On ch=1 n=d5 v=43
149628 On ch=1 n=d5 v=0
149640 On ch=1 n=a4 v=44
149648 On ch=1 n=c4 v=56
149720 On ch=1 n=d4 v=0
149748 On ch=1 n=a4 v=0
149760 On ch=1 n=g4 v=43
149784 Par ch=1 c=64 v=127
149788 On ch=1 n=a#3 v=58
149844 On ch=1 n=c4 v=0
149868 On ch=1 n=g4 v=0
149880 On ch=1 n=a4 v=49
149988 On ch=1 n=a4 v=0
150000 On ch=1 n=g4 v=50
150108 On ch=1 n=g4 v=0
150120 On ch=1 n=d5 v=49
150156 On ch=1 n=f4 v=0
150208 Par ch=1 c=64 v=0
150228 On ch=1 n=d5 v=0
150240 On ch=1 n=c5 v=46
150260 On ch=1 n=e4 v=73
150348 On ch=1 n=c5 v=0
150360 On ch=1 n=d5 v=45
150468 On ch=1 n=d5 v=0
150480 On ch=1 n=c5 v=47
150588 On ch=1 n=c5 v=0
150600 On ch=1 n=f5 v=49
150604 On ch=1 n=d4 v=71
150664 On ch=1 n=e4 v=0
150680 Par ch=1 c=64 v=127
150708 On ch=1 n=f5 v=0
150720 On ch=1 n=e5 v=47
150732 On ch=1 n=c4 v=79
150768 On ch=1 n=d4 v=0
150828 On ch=1 n=e5 v=0
150840 On ch=1 n=f5 v=51
150948 On ch=1 n=f5 v=0
150960 On ch=1 n=e5 v=46
151008 On ch=1 n=c4 v=0
151068 On ch=1 n=e5 v=0
151080 On ch=1 n=a5 v=49
151108 Par ch=1 c=64 v=0
151188 On ch=1 n=a5 v=0
151188 On ch=1 n=c4 v=78
151200 On ch=1 n=g5 v=48
151308 On ch=1 n=g5 v=0
151320 On ch=1 n=a5 v=47
151400 On ch=1 n=a#3 v=0
151420 On ch=1 n=c4 v=0
151428 On ch=1 n=a5 v=0
151432 On ch=1 n=f3 v=0
151440 On ch=1 n=g5 v=53
151524 On ch=1 n=f3 v=70
151548 On ch=1 n=g5 v=0
151560 On ch=1 n=d6 v=47
151608 Par ch=1 c=64 v=127
151612 On ch=1 n=c4 v=71
151632 On ch=1 n=f3 v=0
151668 On ch=1 n=d6 v=0
151680 On ch=1 n=c6 v=49
151712 On ch=1 n=a4 v=79
151788 On ch=1 n=c6 v=0
151800 On ch=1 n=e6 v=55
151908 On ch=1 n=e6 v=0
151920 On ch=1 n=g6 v=50
152028 On ch=1 n=g6 v=0
152040 On ch=1 n=f6 v=53
152096 On ch=1 n=a4 v=0
152112 On ch=1 n=c4 v=0
152132 On ch=1 n=f4 v=78
152148 On ch=1 n=f6 v=0
152160 On ch=1 n=g#6 v=48
152200 Par ch=1 c=64 v=0
152268 On ch=1 n=g#6 v=0
152280 On ch=1 n=a#6 v=52
152388 On ch=1 n=a#6 v=0
152400 On ch=1 n=a6 v=48
152508 On ch=1 n=a6 v=0
152520 On ch=1 n=b6 v=51
152556 On ch=1 n=f4 v=0
152628 On ch=1 n=b6 v=0
152640 On ch=1 n=d7 v=59
152748 On ch=1 n=d7 v=0
152760 On ch=1 n=c7 v=53
152868 On ch=1 n=c7 v=0
152880 On ch=1 n=e7 v=57
152988 On ch=1 n=e7 v=0
153000 On ch=1 n=g7 v=52
153044 Par ch=1 c=64 v=127
153108 On ch=1 n=g7 v=0
153120 On ch=1 n=f7 v=51
153128 On ch=1 n=f5 v=83
153228 On ch=1 n=f7 v=0
153240 On ch=1 n=g#7 v=53
153348 On ch=1 n=g#7 v=0
153360 On ch=1 n=a#7 v=45
153468 On ch=1 n=a#7 v=0
153476 On ch=1 n=f5 v=0
153480 On ch=1 n=a7 v=49
153496 Par ch=1 c=64 v=0
153588 On ch=1 n=a7 v=0
153592 Par ch=1 c=64 v=127
153600 On ch=1 n=b7 v=48
153620 On ch=1 n=f5 v=80
153648 On ch=1 n=f4 v=61
153652 On ch=1 n=d#5 v=61
153708 On ch=1 n=b7 v=0
153720 On ch=1 n=c8 v=48
153828 On ch=1 n=c8 v=0
153840 On ch=1 n=f8 v=45
153948 On ch=1 n=f8 v=0
153948 On ch=1 n=f5 v=0
153960 On ch=1 n=e8 v=46
154068 On ch=1 n=e8 v=0
154080 On ch=1 n=d#8 v=51
154100 On ch=1 n=f5 v=79
154124 Par ch=1 c=64 v=0
154188 On ch=1 n=d#8 v=0
154200 On ch=1 n=c8 v=46
154308 On ch=1 n=c8 v=0
154320 On ch=1 n=d8 v=50
154428 On ch=1 n=d8 v=0
154440 On ch=1 n=d#5 v=0
154440 On ch=1 n=f4 v=0
154440 On ch=1 n=a#7 v=48
154548 On ch=1 n=a#7 v=0
154560 On ch=1 n=a7 v=48
154560 Par ch=1 c=64 v=127
154588 On ch=1 n=d#5 v=61
154592 On ch=1 n=g4 v=61
154668 On ch=1 n=a7 v=0
154680 On ch=1 n=d8 v=52
154788 On ch=1 n=d8 v=0
154800 On ch=1 n=c8 v=50
154844 On ch=1 n=f5 v=0
154908 On ch=1 n=c8 v=0
154908 On ch=1 n=g4 v=0
154920 On ch=1 n=g7 v=50
154952 On ch=1 n=d#5 v=0
154956 Par ch=1 c=64 v=0
155028 On ch=1 n=g7 v=0
155028 On ch=1 n=f5 v=75
155040 On ch=1 n=f7 v=53
155048 On ch=1 n=d#5 v=53
155052 On ch=1 n=a4 v=53
155060 Par ch=1 c=64 v=127
155148 On ch=1 n=f7 v=0
155160 On ch=1 n=d7 v=47
155268 On ch=1 n=d7 v=0
155280 On ch=1 n=d#7 v=49
155368 Par ch=1 c=64 v=0
155380 On ch=1 n=d#5 v=0
155384 On ch=1 n=a4 v=0
155388 On ch=1 n=d#7 v=0
155400 On ch=1 n=c7 v=46
155420 On ch=1 n=f5 v=0
155500 Par ch=1 c=64 v=127
155508 On ch=1 n=c7 v=0
155520 On ch=1 n=a#6 v=46
155540 On ch=1 n=f5 v=79
155552 On ch=1 n=d5 v=51
155556 On ch=1 n=a#4 v=51
155628 On ch=1 n=a#6 v=0
155640 On ch=1 n=d#7 v=52
155748 On ch=1 n=d#7 v=0
155760 On ch=1 n=d7 v=47
155868 On ch=1 n=d7 v=0
155880 On ch=1 n=e6 v=48
155912 On ch=1 n=f5 v=0
155988 On ch=1 n=e6 v=0
156000 On ch=1 n=f6 v=44
156012 Par ch=1 c=64 v=0
156024 On ch=1 n=f5 v=66
156052 Par ch=1 c=64 v=127
156108 On ch=1 n=f6 v=0
156120 On ch=1 n=c7 v=43
156212 Par ch=1 c=64 v=0
156228 On ch=1 n=c7 v=0
156240 On ch=1 n=a#6 v=45
156348 On ch=1 n=a#6 v=0
156360 On ch=1 n=c#6 v=45
156444 Par ch=1 c=64 v=127
156468 On ch=1 n=c#6 v=0
156480 On ch=1 n=d6 v=45
156508 On ch=1 n=f4 v=59
156532 On ch=1 n=a#4 v=0
156588 On ch=1 n=d6 v=0
156600 On ch=1 n=a6 v=41
156708 On ch=1 n=a6 v=0
156720 On ch=1 n=g6 v=43
156764 Par ch=1 c=64 v=0
156804 On ch=1 n=f5 v=0
156828 On ch=1 n=g6 v=0
156840 On ch=1 n=c6 v=44
156924 Par ch=1 c=64 v=127
156948 On ch=1 n=c6 v=0
156960 On ch=1 n=a#5 v=44
156968 On ch=1 n=f5 v=62
157068 On ch=1 n=a#5 v=0
157080 On ch=1 n=d#6 v=46
157188 On ch=1 n=d#6 v=0
157200 On ch=1 n=d6 v=45
157264 Par ch=1 c=64 v=0
157268 On ch=1 n=c5 v=60
157304 On ch=1 n=d5 v=0
157308 On ch=1 n=d6 v=0
157320 On ch=1 n=a5 v=43
157404 Par ch=1 c=64 v=127
157424 On ch=1 n=a#4 v=64
157428 On ch=1 n=a5 v=0
157440 On ch=1 n=g5 v=45
157456 On ch=1 n=c5 v=0
157548 On ch=1 n=g5 v=0
157560 On ch=1 n=a5 v=48
157668 On ch=1 n=a5 v=0
157680 On ch=1 n=g5 v=45
157788 On ch=1 n=g5 v=0
157800 On ch=1 n=d6 v=48
157900 On ch=1 n=e5 v=76
157908 On ch=1 n=d6 v=0
157912 On ch=1 n=f5 v=0
157920 On ch=1 n=c6 v=48
158028 On ch=1 n=c6 v=0
158040 On ch=1 n=d6 v=52
158148 On ch=1 n=d6 v=0
158160 On ch=1 n=c6 v=48
158216 Par ch=1 c=64 v=0
158268 On ch=1 n=c6 v=0
158272 On ch=1 n=d5 v=71
158280 On ch=1 n=f6 v=53
158308 On ch=1 n=e5 v=0
158360 Par ch=1 c=64 v=127
158388 On ch=1 n=f6 v=0
158400 On ch=1 n=e6 v=51
158404 On ch=1 n=c5 v=72
158452 On ch=1 n=d5 v=0
158508 On ch=1 n=e6 v=0
158520 On ch=1 n=f6 v=56
158628 On ch=1 n=f6 v=0
158640 On ch=1 n=e6 v=51
158736 On ch=1 n=c5 v=0
158748 On ch=1 n=e6 v=0
158760 On ch=1 n=d7 v=48
158868 On ch=1 n=d7 v=0
158868 On ch=1 n=c5 v=75
158880 On ch=1 n=c7 v=49
158988 On ch=1 n=c7 v=0
159000 On ch=1 n=d7 v=45
159004 Par ch=1 c=64 v=0
159052 On ch=1 n=f4 v=0
159100 On ch=1 n=a#4 v=0
159108 On ch=1 n=d7 v=0
159120 On ch=1 n=c7 v=48
159228 On ch=1 n=c7 v=0
159240 On ch=1 n=d8 v=44
159312 Par ch=1 c=64 v=127
159348 On ch=1 n=d8 v=0
159360 On ch=1 n=c8 v=46
159376 On ch=1 n=d5 v=73
159376 On ch=1 n=f4 v=58
159388 On ch=1 n=a4 v=61
159396 On ch=1 n=c5 v=0
159468 On ch=1 n=c8 v=0
159480 On ch=1 n=d8 v=43
159588 On ch=1 n=d8 v=0
159600 On ch=1 n=c8 v=47
159708 On ch=1 n=c8 v=0
159720 On ch=1 n=g7 v=48
159828 On ch=1 n=g7 v=0
159836 Par ch=1 c=64 v=0
159840 On ch=1 n=f7 v=52
159852 On ch=1 n=c5 v=72
159876 On ch=1 n=d5 v=0
159948 On ch=1 n=f7 v=0
159960 On ch=1 n=g7 v=50
160068 On ch=1 n=g7 v=0
160080 On ch=1 n=f7 v=48
160188 On ch=1 n=f7 v=0
160200 On ch=1 n=d7 v=47
160272 On ch=1 n=c5 v=0
160308 On ch=1 n=d7 v=0
160320 On ch=1 n=c7 v=52
160428 On ch=1 n=c7 v=0
160440 On ch=1 n=d7 v=55
160548 On ch=1 n=d7 v=0
160560 On ch=1 n=c7 v=49
160668 On ch=1 n=c7 v=0
160680 On ch=1 n=g6 v=54
160788 On ch=1 n=g6 v=0
160800 On ch=1 n=f6 v=49
160836 On ch=1 n=f5 v=76
160908 On ch=1 n=f6 v=0
160920 On ch=1 n=g6 v=52
161028 On ch=1 n=g6 v=0
161040 On ch=1 n=f6 v=47
161148 On ch=1 n=f6 v=0
161160 On ch=1 n=d6 v=46
161164 On ch=1 n=a4 v=0
161168 On ch=1 n=f4 v=0
161268 On ch=1 n=d6 v=0
161280 On ch=1 n=c6 v=48
161288 Par ch=1 c=64 v=127
161308 On ch=1 n=g4 v=56
161312 On ch=1 n=f4 v=52
161316 On ch=1 n=a#4 v=52
161388 On ch=1 n=c6 v=0
161400 On ch=1 n=d6 v=43
161508 On ch=1 n=d6 v=0
161520 On ch=1 n=c6 v=46
161628 On ch=1 n=c6 v=0
161640 On ch=1 n=f6 v=46
161748 On ch=1 n=f6 v=0
161760 On ch=1 n=e6 v=48
161784 On ch=1 n=e5 v=72
161844 On ch=1 n=f5 v=0
161868 On ch=1 n=e6 v=0
161880 On ch=1 n=f6 v=52
161924 Par ch=1 c=64 v=0
161988 On ch=1 n=f6 v=0
162000 On ch=1 n=e6 v=44
162108 On ch=1 n=e6 v=0
162120 On ch=1 n=d7 v=46
162120 On ch=1 n=d5 v=69
162156 On ch=1 n=e5 v=0
162200 Par ch=1 c=64 v=127
162228 On ch=1 n=d7 v=0
162240 On ch=1 n=c7 v=50
162260 On ch=1 n=c5 v=66
162344 On ch=1 n=d5 v=0
162348 On ch=1 n=c7 v=0
162360 On ch=1 n=d7 v=44
162468 On ch=1 n=d7 v=0
162480 On ch=1 n=c7 v=47
162544 On ch=1 n=c5 v=0
162588 On ch=1 n=c7 v=0
162600 On ch=1 n=f7 v=51
162700 On ch=1 n=c5 v=75
162708 On ch=1 n=f7 v=0
162720 On ch=1 n=e7 v=47
162752 Par ch=1 c=64 v=0
162828 On ch=1 n=e7 v=0
162840 On ch=1 n=f7 v=50
162948 On ch=1 n=f7 v=0
162960 On ch=1 n=e7 v=50
162992 On ch=1 n=a#4 v=0
162996 On ch=1 n=g4 v=0
163008 On ch=1 n=f4 v=0
163032 On ch=1 n=c5 v=0
163068 On ch=1 n=e7 v=0
163080 On ch=1 n=d8 v=48
163096 Par ch=1 c=64 v=127
163180 On ch=1 n=f4 v=47
163184 On ch=1 n=a4 v=58
163188 On ch=1 n=d8 v=0
163192 On ch=1 n=d5 v=70
163200 On ch=1 n=c8 v=49
163308 On ch=1 n=c8 v=0
163320 On ch=1 n=d8 v=47
163428 On ch=1 n=d8 v=0
163440 On ch=1 n=c8 v=47
163548 On ch=1 n=c8 v=0
163560 On ch=1 n=g7 v=49
163660 Par ch=1 c=64 v=0
163660 On ch=1 n=c5 v=70
163668 On ch=1 n=g7 v=0
163680 On ch=1 n=f7 v=51
163688 On ch=1 n=d5 v=0
163788 On ch=1 n=f7 v=0
163800 On ch=1 n=g7 v=53
163908 On ch=1 n=g7 v=0
163920 On ch=1 n=f7 v=47
163976 On ch=1 n=a4 v=0
163980 On ch=1 n=f4 v=0
164028 On ch=1 n=f7 v=0
164040 On ch=1 n=d7 v=51
164148 On ch=1 n=d7 v=0
164160 On ch=1 n=c7 v=49
164172 On ch=1 n=a5 v=65
164268 On ch=1 n=c7 v=0
164280 On ch=1 n=d7 v=52
164388 On ch=1 n=d7 v=0
164400 On ch=1 n=c7 v=49
164500 On ch=1 n=a5 v=0
164508 On ch=1 n=c7 v=0
164520 On ch=1 n=g6 v=49
164544 Par ch=1 c=64 v=127
164572 On ch=1 n=c5 v=0
164628 On ch=1 n=g6 v=0
164632 On ch=1 n=a#4 v=66
164636 On ch=1 n=g5 v=72
164640 On ch=1 n=f6 v=52
164748 On ch=1 n=f6 v=0
164760 On ch=1 n=g6 v=47
164772 On ch=1 n=g5 v=0
164776 On ch=1 n=a#4 v=0
164868 On ch=1 n=g6 v=0
164880 On ch=1 n=f6 v=50
164884 On ch=1 n=a4 v=65
164892 On ch=1 n=f5 v=74
164932 Par ch=1 c=64 v=0
164988 On ch=1 n=f6 v=0
165000 On ch=1 n=d6 v=50
165052 On ch=1 n=f5 v=0
165052 On ch=1 n=a4 v=0
165096 Par ch=1 c=64 v=127
165108 On ch=1 n=d6 v=0
165120 On ch=1 n=c6 v=52
165136 On ch=1 n=f4 v=51
165144 On ch=1 n=a#4 v=61
165148 On ch=1 n=g4 v=62
165152 On ch=1 n=f5 v=76
165228 On ch=1 n=c6 v=0
165240 On ch=1 n=d#6 v=54
165348 On ch=1 n=d#6 v=0
165360 On ch=1 n=f6 v=44
165468 On ch=1 n=f6 v=0
165480 On ch=1 n=e6 v=48
165564 Par ch=1 c=64 v=0
165588 On ch=1 n=e6 v=0
165600 On ch=1 n=f#6 v=50
165652 On ch=1 n=e5 v=73
165680 On ch=1 n=f5 v=0
165708 On ch=1 n=f#6 v=0
165720 On ch=1 n=a6 v=49
165828 On ch=1 n=a6 v=0
165840 On ch=1 n=g6 v=54
165948 On ch=1 n=g6 v=0
165956 On ch=1 n=d5 v=67
165960 On ch=1 n=e5 v=0
165960 On ch=1 n=b6 v=50
166068 On ch=1 n=b6 v=0
166068 On ch=1 n=c5 v=74
166080 On ch=1 n=d7 v=52
166096 Par ch=1 c=64 v=127
166136 On ch=1 n=d5 v=0
166188 On ch=1 n=d7 v=0
166200 On ch=1 n=c7 v=51
166308 On ch=1 n=c7 v=0
166320 On ch=1 n=d#7 v=56
166328 On ch=1 n=c5 v=0
166428 On ch=1 n=d#7 v=0
166440 On ch=1 n=f7 v=56
166536 On ch=1 n=a#4 v=0
166548 On ch=1 n=f7 v=0
166548 On ch=1 n=c5 v=69
166552 On ch=1 n=g4 v=0
166556 Par ch=1 c=64 v=0
166560 On ch=1 n=e7 v=58
166564 On ch=1 n=f4 v=0
166668 On ch=1 n=e7 v=0
166680 On ch=1 n=f#7 v=56
166772 On ch=1 n=c5 v=0
166788 On ch=1 n=f#7 v=0
166800 On ch=1 n=a7 v=55
166896 On ch=1 n=f4 v=58
166908 On ch=1 n=a7 v=0
166920 On ch=1 n=g7 v=56
166956 On ch=1 n=c5 v=75
166972 On ch=1 n=f4 v=0
166984 Par ch=1 c=64 v=127
167004 On ch=1 n=e5 v=67
167028 On ch=1 n=g7 v=0
167040 On ch=1 n=a#7 v=50
167120 On ch=1 n=a#5 v=72
167148 On ch=1 n=a#7 v=0
167160 On ch=1 n=f#7 v=50
167268 On ch=1 n=f#7 v=0
167280 On ch=1 n=g7 v=48
167388 On ch=1 n=g7 v=0
167400 On ch=1 n=d8 v=46
167504 On ch=1 n=a#5 v=0
167504 On ch=1 n=e5 v=0
167508 On ch=1 n=d8 v=0
167520 On ch=1 n=c8 v=48
167536 On ch=1 n=c5 v=0
167628 On ch=1 n=c8 v=0
167640 On ch=1 n=a7 v=51
167748 On ch=1 n=a7 v=0
167760 On ch=1 n=g7 v=48
167768 Par ch=1 c=64 v=0
167868 On ch=1 n=g7 v=0
167880 On ch=1 n=d8 v=46
167988 On ch=1 n=d8 v=0
168000 On ch=1 n=a#7 v=49
168108 On ch=1 n=a#7 v=0
168120 On ch=1 n=f#7 v=49
168228 On ch=1 n=f#7 v=0
168240 On ch=1 n=g7 v=48
168348 On ch=1 n=g7 v=0
168360 On ch=1 n=d8 v=44
168468 On ch=1 n=d8 v=0
168480 On ch=1 n=c8 v=43
168588 On ch=1 n=c8 v=0
168600 On ch=1 n=a7 v=44
168708 On ch=1 n=a7 v=0
168720 On ch=1 n=g7 v=44
168804 Par ch=1 c=64 v=127
168828 On ch=1 n=g7 v=0
168828 On ch=1 n=f5 v=45
168840 On ch=1 n=d8 v=43
168904 On ch=1 n=c6 v=51
168928 On ch=1 n=f5 v=0
168948 On ch=1 n=d8 v=0
168960 On ch=1 n=a#7 v=40
168980 On ch=1 n=e6 v=48
169052 On ch=1 n=a#6 v=58
169068 On ch=1 n=a#7 v=0
169080 On ch=1 n=f#7 v=44
169188 On ch=1 n=f#7 v=0
169200 On ch=1 n=g7 v=44
169308 On ch=1 n=g7 v=0
169312 On ch=1 n=e6 v=0
169316 On ch=1 n=a#6 v=0
169320 On ch=1 n=d8 v=42
169380 On ch=1 n=c6 v=0
169428 On ch=1 n=d8 v=0
169440 On ch=1 n=c8 v=37
169548 On ch=1 n=c8 v=0
169560 On ch=1 n=a7 v=39
169668 On ch=1 n=a7 v=0
169680 On ch=1 n=g7 v=42
169788 On ch=1 n=g7 v=0
169800 On ch=1 n=d8 v=40
169908 On ch=1 n=d8 v=0
169920 On ch=1 n=a#7 v=42
170028 On ch=1 n=a#7 v=0
170040 On ch=1 n=f#7 v=47
170148 On ch=1 n=f#7 v=0
170160 On ch=1 n=g7 v=43
170268 On ch=1 n=g7 v=0
170280 On ch=1 n=d8 v=37
170388 On ch=1 n=d8 v=0
170400 On ch=1 n=c8 v=41
170508 On ch=1 n=c8 v=0
170520 On ch=1 n=a7 v=40
170628 On ch=1 n=a7 v=0
170640 On ch=1 n=g7 v=43
170748 On ch=1 n=g7 v=0
170760 On ch=1 n=d8 v=39
170868 On ch=1 n=d8 v=0
170880 On ch=1 n=c8 v=41
170988 On ch=1 n=c8 v=0
171000 On ch=1 n=a7 v=40
171108 On ch=1 n=a7 v=0
171120 On ch=1 n=g7 v=39
171228 On ch=1 n=g7 v=0
171240 On ch=1 n=d8 v=42
171348 On ch=1 n=d8 v=0
171360 On ch=1 n=c8 v=42
171468 On ch=1 n=c8 v=0
171480 On ch=1 n=a7 v=41
171588 On ch=1 n=a7 v=0
171600 On ch=1 n=g7 v=46
171708 On ch=1 n=g7 v=0
171720 On ch=1 n=d8 v=46
171828 On ch=1 n=d8 v=0
171840 On ch=1 n=c8 v=42
171948 On ch=1 n=c8 v=0
171960 On ch=1 n=a7 v=45
172016 Par ch=1 c=64 v=0
172068 On ch=1 n=a7 v=0
172080 On ch=1 n=g7 v=41
172132 Par ch=1 c=64 v=127
172188 On ch=1 n=g7 v=0
172200 On ch=1 n=d8 v=43
172308 On ch=1 n=d8 v=0
172320 On ch=1 n=c8 v=45
172428 On ch=1 n=c8 v=0
172440 On ch=1 n=g7 v=46
172508 Par ch=1 c=64 v=0
172548 On ch=1 n=g7 v=0
172560 On ch=1 n=a7 v=47
172640 Par ch=1 c=64 v=127
172668 On ch=1 n=a7 v=0
172680 On ch=1 n=g7 v=48
172780 On ch=1 n=f5 v=47
172788 On ch=1 n=g7 v=0
172836 On ch=1 n=c6 v=54
172900 On ch=1 n=a6 v=50
172924 On ch=1 n=f5 v=0
172956 On ch=1 n=f7 v=57
172972 On ch=1 n=c6 v=0
173020 On ch=1 n=a6 v=0
173036 On ch=1 n=f7 v=0
173112 Par ch=1 c=64 v=0
173280 On ch=1 n=f6 v=80
173280 On ch=1 n=f7 v=80
173376 On ch=1 n=f7 v=0
173376 On ch=1 n=f6 v=0
173400 On ch=1 n=a#6 v=68
173400 On ch=1 n=a#7 v=76
173496 On ch=1 n=a#7 v=0
173496 On ch=1 n=a#6 v=0
173520 On ch=1 n=a7 v=69
173520 On ch=1 n=a6 v=62
173616 On ch=1 n=a6 v=0
173616 On ch=1 n=a7 v=0
173640 On ch=1 n=d7 v=62
173640 On ch=1 n=d6 v=54
173736 On ch=1 n=d6 v=0
173736 On ch=1 n=d7 v=0
173760 On ch=1 n=c7 v=78
173760 On ch=1 n=c6 v=78
173772 Par ch=1 c=64 v=127
173856 On ch=1 n=c6 v=0
173856 On ch=1 n=c7 v=0
173880 On ch=1 n=g7 v=66
173880 On ch=1 n=g6 v=60
173976 On ch=1 n=g6 v=0
173976 On ch=1 n=g7 v=0
174000 On ch=1 n=f7 v=64
174000 On ch=1 n=f6 v=53
174096 On ch=1 n=f6 v=0
174096 On ch=1 n=f7 v=0
174120 On ch=1 n=a#5 v=65
174120 On ch=1 n=a#6 v=68
174216 On ch=1 n=a#6 v=0
174216 On ch=1 n=a#5 v=0
174240 On ch=1 n=a6 v=79
174240 On ch=1 n=a5 v=79
174256 Par ch=1 c=64 v=0
174336 On ch=1 n=a5 v=0
174336 On ch=1 n=a6 v=0
174360 On ch=1 n=d7 v=68
174360 On ch=1 n=d6 v=58
174456 On ch=1 n=d6 v=0
174456 On ch=1 n=d7 v=0
174480 On ch=1 n=c7 v=66
174480 On ch=1 n=c6 v=58
174576 On ch=1 n=c6 v=0
174576 On ch=1 n=c7 v=0
174600 On ch=1 n=g6 v=67
174600 On ch=1 n=g5 v=58
174696 On ch=1 n=g5 v=0
174696 On ch=1 n=g6 v=0
174708 Par ch=1 c=64 v=127
174720 On ch=1 n=f6 v=77
174720 On ch=1 n=f5 v=77
174816 On ch=1 n=f5 v=0
174816 On ch=1 n=f6 v=0
174840 On ch=1 n=a#5 v=63
174840 On ch=1 n=a#6 v=65
174936 On ch=1 n=a#6 v=0
174936 On ch=1 n=a#5 v=0
174960 On ch=1 n=a6 v=63
174960 On ch=1 n=a5 v=62
175056 On ch=1 n=a5 v=0
175056 On ch=1 n=a6 v=0
175080 On ch=1 n=d6 v=60
175080 On ch=1 n=d5 v=53
175176 On ch=1 n=d5 v=0
175176 On ch=1 n=d6 v=0
175196 Par ch=1 c=64 v=0
175200 On ch=1 n=c5 v=76
175200 On ch=1 n=c6 v=76
175296 On ch=1 n=c6 v=0
175296 On ch=1 n=c5 v=0
175320 On ch=1 n=g6 v=62
175320 On ch=1 n=g5 v=56
175416 On ch=1 n=g5 v=0
175416 On ch=1 n=g6 v=0
175440 On ch=1 n=f6 v=51
175440 On ch=1 n=f5 v=52
175536 On ch=1 n=f5 v=0
175536 On ch=1 n=f6 v=0
175560 On ch=1 n=a#5 v=61
175560 On ch=1 n=a#4 v=56
175608 Par ch=1 c=64 v=127
175656 On ch=1 n=a#4 v=0
175656 On ch=1 n=a#5 v=0
175680 On ch=1 n=a5 v=76
175680 On ch=1 n=a4 v=76
175776 On ch=1 n=a4 v=0
175776 On ch=1 n=a5 v=0
175800 On ch=1 n=d6 v=62
175800 On ch=1 n=d5 v=55
175896 On ch=1 n=d5 v=0
175896 On ch=1 n=d6 v=0
175920 On ch=1 n=c6 v=52
175920 On ch=1 n=c5 v=58
176016 On ch=1 n=c5 v=0
176016 On ch=1 n=c6 v=0
176040 On ch=1 n=g5 v=53
176040 On ch=1 n=g4 v=55
176108 Par ch=1 c=64 v=0
176136 On ch=1 n=g4 v=0
176136 On ch=1 n=g5 v=0
176160 On ch=1 n=f5 v=72
176160 On ch=1 n=f4 v=72
176256 On ch=1 n=f4 v=0
176256 On ch=1 n=f5 v=0
176280 On ch=1 n=a#5 v=63
176280 On ch=1 n=a#4 v=52
176376 On ch=1 n=a#4 v=0
176376 On ch=1 n=a#5 v=0
176400 On ch=1 n=a5 v=57
176400 On ch=1 n=a4 v=60
176496 On ch=1 n=a4 v=0
176496 On ch=1 n=a5 v=0
176520 On ch=1 n=d5 v=59
176520 On ch=1 n=d4 v=53
176536 Par ch=1 c=64 v=127
176616 On ch=1 n=d4 v=0
176616 On ch=1 n=d5 v=0
176640 On ch=1 n=c4 v=69
176640 On ch=1 n=c5 v=69
176736 On ch=1 n=c5 v=0
176736 On ch=1 n=c4 v=0
176760 On ch=1 n=g5 v=51
176760 On ch=1 n=g4 v=32
176856 On ch=1 n=g4 v=0
176856 On ch=1 n=g5 v=0
176880 On ch=1 n=f5 v=51
176880 On ch=1 n=f4 v=50
176960 Par ch=1 c=64 v=0
176976 On ch=1 n=f4 v=0
176976 On ch=1 n=f5 v=0
177000 On ch=1 n=a#4 v=52
177000 On ch=1 n=a#3 v=48
177076 Par ch=1 c=64 v=127
177096 On ch=1 n=a#3 v=0
177096 On ch=1 n=a#4 v=0
177120 On ch=1 n=a4 v=70
177120 On ch=1 n=a3 v=70
177216 On ch=1 n=a3 v=0
177216 On ch=1 n=a4 v=0
177240 On ch=1 n=d5 v=55
177240 On ch=1 n=d4 v=51
177336 On ch=1 n=d4 v=0
177336 On ch=1 n=d5 v=0
177360 On ch=1 n=c5 v=52
177360 On ch=1 n=c4 v=52
177432 Par ch=1 c=64 v=0
177456 On ch=1 n=c4 v=0
177456 On ch=1 n=c5 v=0
177480 On ch=1 n=g3 v=52
177480 On ch=1 n=g4 v=55
177552 Par ch=1 c=64 v=127
177576 On ch=1 n=g4 v=0
177576 On ch=1 n=g3 v=0
177600 On ch=1 n=f4 v=70
177600 On ch=1 n=f3 v=70
177696 On ch=1 n=f3 v=0
177696 On ch=1 n=f4 v=0
177720 On ch=1 n=d5 v=57
177720 On ch=1 n=d4 v=56
177816 On ch=1 n=d4 v=0
177816 On ch=1 n=d5 v=0
177840 On ch=1 n=c5 v=62
177840 On ch=1 n=c4 v=62
177904 Par ch=1 c=64 v=0
177936 On ch=1 n=c4 v=0
177936 On ch=1 n=c5 v=0
177960 On ch=1 n=a#4 v=58
177960 On ch=1 n=a#3 v=58
178012 Par ch=1 c=64 v=127
178056 On ch=1 n=a#3 v=0
178056 On ch=1 n=a#4 v=0
178080 On ch=1 n=a4 v=75
178080 On ch=1 n=a3 v=75
178176 On ch=1 n=a3 v=0
178176 On ch=1 n=a4 v=0
178200 On ch=1 n=d5 v=67
178200 On ch=1 n=d4 v=56
178296 On ch=1 n=d4 v=0
178296 On ch=1 n=d5 v=0
178320 On ch=1 n=c5 v=70
178320 On ch=1 n=c4 v=62
178396 Par ch=1 c=64 v=0
178416 On ch=1 n=c4 v=0
178416 On ch=1 n=c5 v=0
178440 On ch=1 n=g3 v=66
178440 On ch=1 n=g4 v=58
178496 Par ch=1 c=64 v=127
178536 On ch=1 n=g4 v=0
178536 On ch=1 n=g3 v=0
178560 On ch=1 n=f3 v=77
178560 On ch=1 n=f4 v=77
178656 On ch=1 n=f4 v=0
178656 On ch=1 n=f3 v=0
178680 On ch=1 n=d5 v=66
178680 On ch=1 n=d4 v=54
178776 On ch=1 n=d4 v=0
178776 On ch=1 n=d5 v=0
178800 On ch=1 n=c5 v=62
178800 On ch=1 n=c4 v=60
178876 Par ch=1 c=64 v=0
178896 On ch=1 n=c4 v=0
178896 On ch=1 n=c5 v=0
178920 On ch=1 n=a#3 v=66
178920 On ch=1 n=a#4 v=59
178960 Par ch=1 c=64 v=127
179016 On ch=1 n=a#4 v=0
179016 On ch=1 n=a#3 v=0
179040 On ch=1 n=a3 v=76
179040 On ch=1 n=a4 v=76
179136 On ch=1 n=a4 v=0
179136 On ch=1 n=a3 v=0
179160 On ch=1 n=d5 v=65
179160 On ch=1 n=d4 v=53
179256 On ch=1 n=d4 v=0
179256 On ch=1 n=d5 v=0
179280 On ch=1 n=c4 v=61
179280 On ch=1 n=c5 v=49
179368 Par ch=1 c=64 v=0
179376 On ch=1 n=c5 v=0
179376 On ch=1 n=c4 v=0
179400 On ch=1 n=g3 v=64
179400 On ch=1 n=g4 v=58
179464 Par ch=1 c=64 v=127
179496 On ch=1 n=g4 v=0
179496 On ch=1 n=g3 v=0
179520 On ch=1 n=f4 v=74
179520 On ch=1 n=f3 v=74
179616 On ch=1 n=f3 v=0
179616 On ch=1 n=f4 v=0
179640 On ch=1 n=d5 v=66
179640 On ch=1 n=d4 v=52
179736 On ch=1 n=d4 v=0
179736 On ch=1 n=d5 v=0
179760 On ch=1 n=c5 v=69
179760 On ch=1 n=c4 v=56
179824 Par ch=1 c=64 v=0
179856 On ch=1 n=c4 v=0
179856 On ch=1 n=c5 v=0
179880 On ch=1 n=a#3 v=68
179880 On ch=1 n=a#4 v=53
179952 Par ch=1 c=64 v=127
179976 On ch=1 n=a#4 v=0
179976 On ch=1 n=a#3 v=0
180000 On ch=1 n=a4 v=77
180000 On ch=1 n=a3 v=77
180096 On ch=1 n=a3 v=0
180096 On ch=1 n=a4 v=0
180120 On ch=1 n=d5 v=66
180120 On ch=1 n=d4 v=47
180216 On ch=1 n=d4 v=0
180216 On ch=1 n=d5 v=0
180240 On ch=1 n=c5 v=70
180240 On ch=1 n=c4 v=60
180300 Par ch=1 c=64 v=0
180336 On ch=1 n=c4 v=0
180336 On ch=1 n=c5 v=0
180360 On ch=1 n=g3 v=66
180360 On ch=1 n=g4 v=56
180456 On ch=1 n=g4 v=0
180456 On ch=1 n=g3 v=0
180468 Par ch=1 c=64 v=127
180480 On ch=1 n=f3 v=77
180480 On ch=1 n=f4 v=77
180576 On ch=1 n=f4 v=0
180576 On ch=1 n=f3 v=0
180600 On ch=1 n=a4 v=71
180600 On ch=1 n=a3 v=69
180696 On ch=1 n=a3 v=0
180696 On ch=1 n=a4 v=0
180720 On ch=1 n=c5 v=70
180720 On ch=1 n=c4 v=68
180816 On ch=1 n=c4 v=0
180816 On ch=1 n=c5 v=0
180840 On ch=1 n=e5 v=68
180840 On ch=1 n=e4 v=60
180936 On ch=1 n=e4 v=0
180936 On ch=1 n=e5 v=0
180960 On ch=1 n=f5 v=79
180960 On ch=1 n=f4 v=79
181056 On ch=1 n=f4 v=0
181056 On ch=1 n=f5 v=0
181080 On ch=1 n=a4 v=69
181080 On ch=1 n=a5 v=65
181176 On ch=1 n=a5 v=0
181176 On ch=1 n=a4 v=0
181200 On ch=1 n=c6 v=67
181200 On ch=1 n=c5 v=71
181296 On ch=1 n=c5 v=0
181296 On ch=1 n=c6 v=0
181320 On ch=1 n=e6 v=73
181320 On ch=1 n=e5 v=56
181416 On ch=1 n=e5 v=0
181416 On ch=1 n=e6 v=0
181440 On ch=1 n=f6 v=80
181440 On ch=1 n=f5 v=80
181536 On ch=1 n=f5 v=0
181536 On ch=1 n=f6 v=0
181560 On ch=1 n=a5 v=64
181560 On ch=1 n=a6 v=64
181656 On ch=1 n=a6 v=0
181656 On ch=1 n=a5 v=0
181680 On ch=1 n=c7 v=66
181680 On ch=1 n=c6 v=64
181776 On ch=1 n=c6 v=0
181776 On ch=1 n=c7 v=0
181800 On ch=1 n=e7 v=74
181800 On ch=1 n=e6 v=58
181896 On ch=1 n=e6 v=0
181896 On ch=1 n=e7 v=0
181920 On ch=1 n=f6 v=79
181920 On ch=1 n=f7 v=79
182016 On ch=1 n=f7 v=0
182016 On ch=1 n=f6 v=0
182040 On ch=1 n=a7 v=64
182040 On ch=1 n=a6 v=65
182136 On ch=1 n=a6 v=0
182136 On ch=1 n=a7 v=0
182160 On ch=1 n=c8 v=72
182160 On ch=1 n=c7 v=62
182256 On ch=1 n=c7 v=0
182256 On ch=1 n=c8 v=0
182280 On ch=1 n=e7 v=66
182280 On ch=1 n=e8 v=75
182376 On ch=1 n=e8 v=0
182376 On ch=1 n=e7 v=0
182400 On ch=1 n=f7 v=84
182400 On ch=1 n=f8 v=84
182456 Par ch=1 c=64 v=0
182480 On ch=1 n=f7 v=0
182484 On ch=1 n=f8 v=0
182764 On ch=1 n=c#4 v=62
182820 Par ch=1 c=64 v=127
182836 On ch=1 n=e4 v=66
182932 On ch=1 n=a4 v=56
182960 On ch=1 n=a5 v=56
182984 On ch=1 n=c#5 v=67
182988 On ch=1 n=e6 v=62
183036 On ch=1 n=a6 v=73
183124 On ch=1 n=e4 v=0
183132 On ch=1 n=c#4 v=0
183160 On ch=1 n=a4 v=0
183168 On ch=1 n=e6 v=0
183184 On ch=1 n=c#5 v=0
183188 On ch=1 n=a5 v=0
183232 On ch=1 n=a6 v=0
183272 On ch=1 n=d4 v=66
183272 Par ch=1 c=64 v=0
183304 On ch=1 n=f4 v=62
183328 On ch=1 n=a4 v=72
183340 Par ch=1 c=64 v=127
183400 On ch=1 n=d5 v=61
183424 On ch=1 n=d6 v=62
183428 On ch=1 n=a5 v=53
183472 On ch=1 n=f6 v=62
183508 On ch=1 n=a6 v=67
183592 On ch=1 n=d5 v=0
183592 On ch=1 n=d4 v=0
183608 On ch=1 n=a4 v=0
183608 On ch=1 n=f4 v=0
183620 On ch=1 n=d6 v=0
183624 On ch=1 n=a5 v=0
183640 On ch=1 n=f6 v=0
183664 On ch=1 n=a6 v=0
183708 Par ch=1 c=64 v=0
183740 On ch=1 n=c4 v=53
183784 Par ch=1 c=64 v=127
183816 On ch=1 n=g4 v=55
183876 On ch=1 n=c4 v=0
183892 On ch=1 n=a#4 v=52
183984 On ch=1 n=e5 v=55
184000 On ch=1 n=g4 v=0
184016 On ch=1 n=c6 v=53
184044 On ch=1 n=a#4 v=0
184072 On ch=1 n=g6 v=61
184076 On ch=1 n=e5 v=0
184152 On ch=1 n=c7 v=68
184200 On ch=1 n=c6 v=0
184228 On ch=1 n=g6 v=0
184288 On ch=1 n=c7 v=0
184364 Par ch=1 c=64 v=0
184424 On ch=1 n=f3 v=47
184452 Par ch=1 c=64 v=127
184560 On ch=1 n=c4 v=55
184592 On ch=1 n=f3 v=0
184684 On ch=1 n=a4 v=51
184708 On ch=1 n=c4 v=0
184832 On ch=1 n=a4 v=0
184856 On ch=1 n=f5 v=53
184972 On ch=1 n=c6 v=56
184996 On ch=1 n=f5 v=0
185004 On ch=1 n=f6 v=53
185064 On ch=1 n=a6 v=56
185164 On ch=1 n=c7 v=60
185176 On ch=1 n=f6 v=0
185208 On ch=1 n=c6 v=0
185256 On ch=1 n=a6 v=0
185324 On ch=1 n=c7 v=0
185340 On ch=1 n=f7 v=65
185504 On ch=1 n=f7 v=0
189640 Par ch=1 c=64 v=0
189640 Meta TrkEnd
TrkEnd
MTrk
0 SeqSpec 43 00 01 00
0 Meta TrkName "in F Major"
0 Meta 0x21 00
0 Meta TrkEnd
TrkEnd
MTrk
0 SeqSpec 43 00 01 00
0 Meta TrkName "Op. 10, No"
