MFile 1 10 480
MTrk
0 SMPTE 96 0 3 0 0
0 TimeSig 4/4 24 8
0 Tempo 779221
13680 Tempo 845070
13920 Tempo 923077
14160 Tempo 1016949
14400 Tempo 1176471
14640 Tempo 1333333
14880 Tempo 1538462
15120 Tempo 1818182
15360 Tempo 2400000
17280 Tempo 779221
28320 Tempo 810811
28560 Tempo 845070
28800 Tempo 685745
29040 Tempo 821918
29280 Tempo 660535
29520 Tempo 698914
29760 Tempo 937500
30000 Tempo 1000000
30960 Tempo 779221
150720 Tempo 697674
150960 Tempo 625000
151200 Tempo 550459
185040 Tempo 535714
185280 Tempo 521739
185520 Tempo 508475
185760 Tempo 491803
186000 Tempo 480000
186240 Tempo 468750
186480 Tempo 458015
186720 Tempo 444444
186960 Tempo 454545
187200 Tempo 465116
187440 Tempo 476190
187680 Tempo 491803
187920 Tempo 504202
188160 Tempo 517241
188400 Tempo 530973
188640 Tempo 550459
189120 Tempo 472441
189360 Tempo 408163
189600 Tempo 346821
190080 Tempo 779221
190560 Tempo 631579
190800 Tempo 521739
191040 Tempo 425532
191520 Tempo 779221
192000 Tempo 631579
192240 Tempo 521739
192480 Tempo 425532
193680 Tempo 779221
194160 Tempo 631579
194400 Tempo 618557
194640 Tempo 487805
194880 Tempo 425532
195120 Tempo 372671
195360 Tempo 320856
195840 Tempo 779221
196320 Tempo 631579
196560 Tempo 521739
196800 Tempo 425532
197040 Tempo 779221
197760 Tempo 631579
198000 Tempo 521739
198240 Tempo 425532
199680 Tempo 416667
199920 Tempo 408163
200160 Tempo 400000
200400 Tempo 389610
200640 Tempo 382166
200880 Tempo 375000
201120 Tempo 368098
201360 Tempo 359281
203520 Tempo 340909
203760 Tempo 322581
204000 Tempo 301508
205680 Tempo 779221
205920 Tempo 428571
209280 Tempo 402685
209520 Tempo 377358
209760 Tempo 348837
211440 Tempo 779221
211680 Tempo 428571
214800 Tempo 379747
215040 Tempo 337079
215280 Tempo 294118
217200 Tempo 779221
217440 Tempo 428571
220560 Tempo 402685
220800 Tempo 377358
221040 Tempo 348837
222240 Tempo 355030
222480 Tempo 361446
222720 Tempo 368098
222960 Tempo 377358
223200 Tempo 384615
223440 Tempo 392157
223680 Tempo 400000
223920 Tempo 410959
230880 Tempo 365854
231120 Tempo 326087
231360 Tempo 285714
249360 Tempo 289855
249600 Tempo 294118
249840 Tempo 298507
250080 Tempo 304569
250320 Tempo 309278
250560 Tempo 314136
250800 Tempo 319149
251040 Tempo 326087
252240 Tempo 480000
296160 Tempo 779221
296160 Meta TrkEnd
TrkEnd
MTrk
0 SeqSpec 43 00 01 00
0 Meta TrkName "Evening Harmonies in Db"
0 Meta 0x21 00
0 PrCh ch=1 p=0
0 Meta TrkEnd
TrkEnd
MTrk
0 SeqSpec 43 00 01 00
0 Meta TrkName "Trans. Etude No. 11"
0 Meta 0x21 00
0 PrCh ch=1 p=0
0 Meta TrkEnd
TrkEnd
MTrk
0 SeqSpec 43 00 01 00
0 Meta TrkName "Right Hand"
0 Meta 0x21 00
0 PrCh ch=1 p=0
2160 On ch=1 n=g#4 v=64
2160 On ch=1 n=b4 v=64
2160 On ch=1 n=e5 v=64
2400 On ch=1 n=e5 v=0
2400 On ch=1 n=b4 v=0
2400 On ch=1 n=g#4 v=0
2400 On ch=1 n=a4 v=64
2400 On ch=1 n=c#5 v=64
2640 On ch=1 n=c#5 v=0
2640 On ch=1 n=a4 v=0
2640 On ch=1 n=e4 v=64
2640 On ch=1 n=g#4 v=64
2640 On ch=1 n=b4 v=64
2880 On ch=1 n=b4 v=0
2880 On ch=1 n=g#4 v=0
2880 On ch=1 n=e4 v=0
2880 On ch=1 n=a4 v=64
2880 On ch=1 n=c#5 v=64
3120 On ch=1 n=c#5 v=0
3120 On ch=1 n=a4 v=0
3120 On ch=1 n=g#4 v=64
3120 On ch=1 n=b4 v=64
3120 On ch=1 n=e5 v=64
3360 On ch=1 n=e5 v=0
3360 On ch=1 n=b4 v=0
3360 On ch=1 n=g#4 v=0
3360 On ch=1 n=a4 v=64
3360 On ch=1 n=c#5 v=64
3600 On ch=1 n=c#5 v=0
3600 On ch=1 n=a4 v=0
3600 On ch=1 n=c#5 v=64
3600 On ch=1 n=e5 v=64
3600 On ch=1 n=a5 v=64
3840 On ch=1 n=a5 v=0
3840 On ch=1 n=e5 v=0
3840 On ch=1 n=c#5 v=0
3840 On ch=1 n=d5 v=64
3840 On ch=1 n=f#5 v=64
4320 On ch=1 n=f#5 v=0
4320 On ch=1 n=d5 v=0
6000 On ch=1 n=c#5 v=64
6000 On ch=1 n=e5 v=64
6000 On ch=1 n=a5 v=64
6240 On ch=1 n=a5 v=0
6240 On ch=1 n=e5 v=0
6240 On ch=1 n=c#5 v=0
6240 On ch=1 n=d5 v=64
6240 On ch=1 n=f#5 v=64
6480 On ch=1 n=f#5 v=0
6480 On ch=1 n=d5 v=0
6480 On ch=1 n=a4 v=64
6480 On ch=1 n=c#5 v=64
6480 On ch=1 n=e5 v=64
6720 On ch=1 n=e5 v=0
6720 On ch=1 n=c#5 v=0
6720 On ch=1 n=a4 v=0
6720 On ch=1 n=d5 v=64
6720 On ch=1 n=f#5 v=64
6960 On ch=1 n=f#5 v=0
6960 On ch=1 n=d5 v=0
6960 On ch=1 n=c#5 v=64
6960 On ch=1 n=e5 v=64
6960 On ch=1 n=a5 v=64
7200 On ch=1 n=a5 v=0
7200 On ch=1 n=e5 v=0
7200 On ch=1 n=c#5 v=0
7200 On ch=1 n=d5 v=64
7200 On ch=1 n=f#5 v=64
7440 On ch=1 n=f#5 v=0
7440 On ch=1 n=d5 v=0
7440 On ch=1 n=f#5 v=64
7440 On ch=1 n=a5 v=64
7440 On ch=1 n=d6 v=64
7590 On ch=1 n=d#5 v=64
7620 On ch=1 n=f#5 v=64
7650 On ch=1 n=a5 v=64
7680 On ch=1 n=d6 v=0
7680 On ch=1 n=a5 v=0
7680 On ch=1 n=f#5 v=0
7680 On ch=1 n=c6 v=64
8550 On ch=1 n=c#5 v=64
8580 On ch=1 n=f#5 v=64
8610 On ch=1 n=a5 v=64
8640 On ch=1 n=c6 v=0
8640 On ch=1 n=a5 v=0
8640 On ch=1 n=f#5 v=0
8640 On ch=1 n=d#5 v=0
8640 On ch=1 n=c#6 v=64
9600 On ch=1 n=c#6 v=0
9600 On ch=1 n=a5 v=0
9600 On ch=1 n=f#5 v=0
9600 On ch=1 n=c#5 v=0
9600 Par ch=1 c=64 v=0
9600 On ch=1 n=c5 v=64
9600 On ch=1 n=f#5 v=64
9600 On ch=1 n=a5 v=64
9600 On ch=1 n=d#6 v=64
11400 On ch=1 n=e5 v=64
11460 On ch=1 n=e5 v=0
11460 On ch=1 n=b5 v=64
11520 On ch=1 n=b5 v=0
11520 On ch=1 n=d#6 v=0
11520 On ch=1 n=a5 v=0
11520 On ch=1 n=f#5 v=0
11520 On ch=1 n=c5 v=0
11520 On ch=1 n=e5 v=64
11520 On ch=1 n=b5 v=64
11520 On ch=1 n=e6 v=64
13260 On ch=1 n=e5 v=64
13320 On ch=1 n=e5 v=0
13320 On ch=1 n=a5 v=64
13380 On ch=1 n=a5 v=0
13380 On ch=1 n=c#6 v=64
13440 On ch=1 n=e5 v=0
13440 On ch=1 n=e6 v=0
13440 On ch=1 n=b5 v=0
13440 Par ch=1 c=64 v=0
13440 Par ch=1 c=64 v=0
13440 On ch=1 n=e5 v=64
13440 On ch=1 n=a5 v=64
13440 On ch=1 n=a6 v=64
14400 On ch=1 n=a6 v=0
14400 On ch=1 n=a5 v=0
14400 On ch=1 n=e5 v=0
14400 On ch=1 n=c#6 v=0
14400 On ch=1 n=a5 v=64
14400 On ch=1 n=d6 v=64
14400 On ch=1 n=f#6 v=64
14400 On ch=1 n=a#6 v=64
14880 On ch=1 n=a#6 v=0
14880 On ch=1 n=f#6 v=0
14880 On ch=1 n=d6 v=0
14880 On ch=1 n=a5 v=0
14880 On ch=1 n=a5 v=64
14880 On ch=1 n=d#6 v=64
14880 On ch=1 n=f#6 v=64
14880 On ch=1 n=b6 v=64
15360 On ch=1 n=b6 v=0
15360 On ch=1 n=f#6 v=0
15360 On ch=1 n=d#6 v=0
15360 On ch=1 n=a5 v=0
15660 On ch=1 n=c6 v=64
15720 On ch=1 n=c6 v=0
15720 On ch=1 n=f#6 v=64
15780 On ch=1 n=f#6 v=0
15780 On ch=1 n=c7 v=64
15840 On ch=1 n=c7 v=0
15840 On ch=1 n=g#7 v=64
16800 On ch=1 n=g#7 v=0
17760 On ch=1 n=c#3 v=64
17760 On ch=1 n=g#3 v=64
18720 On ch=1 n=g#3 v=0
18720 On ch=1 n=c#3 v=0
18720 On ch=1 n=c#3 v=64
18720 On ch=1 n=g#3 v=64
19140 On ch=1 n=c#3 v=64
19200 On ch=1 n=g#3 v=0
19200 On ch=1 n=c#3 v=0
19200 On ch=1 n=g#3 v=64
19680 On ch=1 n=g#5 v=64
19680 On ch=1 n=g#6 v=64
19872 On ch=1 n=g#5 v=0
20063 On ch=1 n=g#6 v=0
20640 On ch=1 n=g#5 v=64
20640 On ch=1 n=g#6 v=64
20736 On ch=1 n=g#5 v=0
20832 On ch=1 n=g#6 v=0
21060 On ch=1 n=f6 v=64
21120 On ch=1 n=g#3 v=0
21120 On ch=1 n=c#3 v=0
21120 On ch=1 n=g#7 v=64
21600 On ch=1 n=g#7 v=0
21600 On ch=1 n=f6 v=0
21600 On ch=1 n=c#3 v=64
21600 On ch=1 n=g#3 v=64
22560 On ch=1 n=g#3 v=0
22560 On ch=1 n=c#3 v=0
22560 On ch=1 n=c#3 v=64
22560 On ch=1 n=g#3 v=64
22980 On ch=1 n=c#3 v=64
23040 On ch=1 n=g#3 v=0
23040 On ch=1 n=c#3 v=0
23040 On ch=1 n=g#3 v=64
23520 On ch=1 n=g#5 v=64
23520 On ch=1 n=g#6 v=64
23712 On ch=1 n=g#5 v=0
23903 On ch=1 n=g#6 v=0
24480 On ch=1 n=g#5 v=64
24480 On ch=1 n=g#6 v=64
24576 On ch=1 n=g#5 v=0
24672 On ch=1 n=g#6 v=0
24960 On ch=1 n=g#3 v=0
24960 On ch=1 n=c#3 v=0
24960 On ch=1 n=f6 v=64
24960 On ch=1 n=g#7 v=64
25200 On ch=1 n=g#7 v=0
25200 On ch=1 n=f6 v=0
25360 On ch=1 n=g#5 v=64
25400 On ch=1 n=g#6 v=64
25440 On ch=1 n=g#7 v=64
26320 On ch=1 n=g#5 v=64
26360 On ch=1 n=g#6 v=64
26400 On ch=1 n=g#7 v=0
26400 On ch=1 n=g#6 v=0
26400 On ch=1 n=g#5 v=0
26400 On ch=1 n=g#7 v=64
26800 On ch=1 n=d#5 v=64
26840 On ch=1 n=d#6 v=64
26880 On ch=1 n=g#7 v=0
26880 On ch=1 n=g#6 v=0
26880 On ch=1 n=g#5 v=0
26880 Par ch=1 c=64 v=0
26880 On ch=1 n=d#7 v=64
27120 On ch=1 n=d#7 v=0
27120 On ch=1 n=d#6 v=0
27120 On ch=1 n=d#5 v=0
27360 On ch=1 n=d#3 v=64
27360 On ch=1 n=g#3 v=64
28320 On ch=1 n=g#3 v=0
28320 On ch=1 n=d#3 v=0
28320 On ch=1 n=d#3 v=90
28800 On ch=1 n=d#3 v=0
28800 On ch=1 n=g#2 v=64
29040 On ch=1 n=g#2 v=0
29040 On ch=1 n=g#5 v=64
29040 On ch=1 n=d6 v=64
29040 On ch=1 n=f6 v=64
29040 On ch=1 n=b6 v=64
29280 On ch=1 n=b6 v=0
29280 On ch=1 n=f6 v=0
29280 On ch=1 n=d6 v=0
29280 On ch=1 n=g#5 v=0
29280 On ch=1 n=a#5 v=64
29280 On ch=1 n=d#6 v=64
29280 On ch=1 n=f#6 v=64
29520 On ch=1 n=f#6 v=0
29520 On ch=1 n=d#6 v=0
29520 On ch=1 n=a#5 v=0
29520 On ch=1 n=f#5 v=64
29520 On ch=1 n=c6 v=64
29520 On ch=1 n=d#6 v=64
29520 On ch=1 n=a6 v=64
29760 On ch=1 n=a6 v=0
29760 On ch=1 n=d#6 v=0
29760 On ch=1 n=c6 v=0
29760 On ch=1 n=f#5 v=0
29760 On ch=1 n=g#5 v=64
29760 On ch=1 n=c#6 v=64
29760 On ch=1 n=f6 v=64
30000 On ch=1 n=f6 v=0
30000 On ch=1 n=c#6 v=0
30000 On ch=1 n=g#5 v=0
30000 On ch=1 n=f5 v=64
30000 On ch=1 n=b5 v=64
30000 On ch=1 n=d6 v=64
30000 On ch=1 n=g#6 v=64
30240 On ch=1 n=g#6 v=0
30240 On ch=1 n=d6 v=0
30240 On ch=1 n=b5 v=0
30240 On ch=1 n=f5 v=0
30240 On ch=1 n=f#5 v=64
30240 On ch=1 n=a#5 v=64
30240 On ch=1 n=d#6 v=64
30480 On ch=1 n=d#6 v=0
30480 On ch=1 n=a#5 v=0
30480 On ch=1 n=f#5 v=0
30480 On ch=1 n=d#5 v=64
30480 On ch=1 n=a5 v=64
30480 On ch=1 n=c6 v=64
30480 On ch=1 n=f#6 v=64
30720 On ch=1 n=f#6 v=0
30720 On ch=1 n=c6 v=0
30720 On ch=1 n=a5 v=0
30720 On ch=1 n=d#5 v=0
30870 On ch=1 n=a#5 v=64
30900 On ch=1 n=e6 v=64
30930 On ch=1 n=g6 v=64
30960 On ch=1 n=c#7 v=64
31110 On ch=1 n=g5 v=64
31140 On ch=1 n=c#6 v=64
31170 On ch=1 n=e6 v=64
31200 On ch=1 n=c#7 v=0
31200 On ch=1 n=g6 v=0
31200 On ch=1 n=e6 v=0
31200 On ch=1 n=a#5 v=0
31200 On ch=1 n=a#6 v=64
31350 On ch=1 n=a#5 v=64
31380 On ch=1 n=e6 v=64
31410 On ch=1 n=g6 v=64
31440 On ch=1 n=a#6 v=0
31440 On ch=1 n=e6 v=0
31440 On ch=1 n=c#6 v=0
31440 On ch=1 n=g5 v=0
31440 On ch=1 n=c#7 v=64
31590 On ch=1 n=c#6 v=64
31620 On ch=1 n=g6 v=64
31650 On ch=1 n=a#6 v=64
31680 On ch=1 n=c#7 v=0
31680 On ch=1 n=g6 v=0
31680 On ch=1 n=e6 v=0
31680 On ch=1 n=a#5 v=0
31680 On ch=1 n=e7 v=64
31830 On ch=1 n=e6 v=64
31860 On ch=1 n=a#6 v=64
31890 On ch=1 n=c#7 v=64
31920 On ch=1 n=e7 v=0
31920 On ch=1 n=a#6 v=0
31920 On ch=1 n=g6 v=0
31920 On ch=1 n=c#6 v=0
31920 On ch=1 n=f#7 v=64
32070 On ch=1 n=c#6 v=64
32100 On ch=1 n=g6 v=64
32130 On ch=1 n=a#6 v=64
32160 On ch=1 n=f#7 v=0
32160 On ch=1 n=c#7 v=0
32160 On ch=1 n=a#6 v=0
32160 On ch=1 n=e6 v=0
32160 On ch=1 n=e7 v=64
32310 On ch=1 n=a#5 v=64
32340 On ch=1 n=f6 v=64
32370 On ch=1 n=g6 v=64
32400 On ch=1 n=e7 v=0
32400 On ch=1 n=a#6 v=0
32400 On ch=1 n=g6 v=0
32400 On ch=1 n=c#6 v=0
32400 On ch=1 n=c#7 v=64
32560 On ch=1 n=g#5 v=64
32600 On ch=1 n=d#6 v=64
32640 On ch=1 n=c#7 v=0
32640 On ch=1 n=g6 v=0
32640 On ch=1 n=f6 v=0
32640 On ch=1 n=a#5 v=0
32640 On ch=1 n=c7 v=64
33120 On ch=1 n=c7 v=0
33120 On ch=1 n=d#6 v=0
33120 On ch=1 n=g#5 v=0
33360 On ch=1 n=a#4 v=64
33360 On ch=1 n=d#5 v=64
33360 On ch=1 n=f#5 v=64
33600 On ch=1 n=f#5 v=0
33600 On ch=1 n=d#5 v=0
33600 On ch=1 n=a#4 v=0
33840 On ch=1 n=g#4 v=64
33840 On ch=1 n=c#5 v=64
33840 On ch=1 n=f5 v=64
34080 On ch=1 n=f5 v=0
34080 On ch=1 n=c#5 v=0
34080 On ch=1 n=g#4 v=0
34320 On ch=1 n=f#4 v=64
34320 On ch=1 n=a#4 v=64
34320 On ch=1 n=d#5 v=64
34560 On ch=1 n=d#5 v=0
34560 On ch=1 n=a#4 v=0
34560 On ch=1 n=f#4 v=0
34560 Par ch=1 c=64 v=0
34800 On ch=1 n=e5 v=64
34800 On ch=1 n=g#5 v=64
34800 On ch=1 n=b5 v=64
35040 On ch=1 n=b5 v=0
35040 On ch=1 n=g#5 v=0
35040 On ch=1 n=e5 v=0
35040 On ch=1 n=a#4 v=64
35040 On ch=1 n=e5 v=64
35040 On ch=1 n=g#5 v=64
35280 On ch=1 n=g#5 v=0
35280 On ch=1 n=e5 v=0
35280 On ch=1 n=a#4 v=0
35280 On ch=1 n=e5 v=64
35280 On ch=1 n=g#5 v=64
35280 On ch=1 n=b5 v=64
35520 On ch=1 n=b5 v=0
35520 On ch=1 n=g#5 v=0
35520 On ch=1 n=e5 v=0
35520 On ch=1 n=g#5 v=64
35520 On ch=1 n=b5 v=64
35520 On ch=1 n=e6 v=64
35760 On ch=1 n=e6 v=0
35760 On ch=1 n=b5 v=0
35760 On ch=1 n=g#5 v=0
35760 On ch=1 n=g#5 v=64
35760 On ch=1 n=b5 v=64
35760 On ch=1 n=f#6 v=64
36000 On ch=1 n=f#6 v=0
36000 On ch=1 n=b5 v=0
36000 On ch=1 n=g#5 v=0
36000 On ch=1 n=g#5 v=64
36000 On ch=1 n=b5 v=64
36000 On ch=1 n=e6 v=64
36240 On ch=1 n=e6 v=0
36240 On ch=1 n=b5 v=0
36240 On ch=1 n=g#5 v=0
36240 On ch=1 n=e5 v=64
36240 On ch=1 n=g#5 v=64
36240 On ch=1 n=b5 v=64
36480 On ch=1 n=b5 v=0
36480 On ch=1 n=g#5 v=0
36480 On ch=1 n=e5 v=0
36480 On ch=1 n=e5 v=64
36480 On ch=1 n=a5 v=64
36480 On ch=1 n=c#6 v=64
36720 On ch=1 n=c#6 v=0
36720 On ch=1 n=a5 v=0
36720 On ch=1 n=e5 v=0
36720 On ch=1 n=c#5 v=64
36720 On ch=1 n=f#5 v=64
36720 On ch=1 n=a5 v=64
36960 On ch=1 n=a5 v=0
36960 On ch=1 n=f#5 v=0
36960 On ch=1 n=c#5 v=0
36960 On ch=1 n=a4 v=64
36960 On ch=1 n=c#5 v=64
36960 On ch=1 n=e5 v=64
37200 On ch=1 n=e5 v=0
37200 On ch=1 n=c#5 v=0
37200 On ch=1 n=a4 v=0
37200 Par ch=1 c=64 v=0
37200 On ch=1 n=a4 v=64
37200 On ch=1 n=c#5 v=64
37440 On ch=1 n=c#5 v=0
37440 On ch=1 n=a4 v=0
37440 On ch=1 n=a4 v=64
37440 On ch=1 n=c#5 v=64
37440 On ch=1 n=f#5 v=64
37680 On ch=1 n=f#5 v=0
37680 On ch=1 n=c#5 v=0
37680 On ch=1 n=a4 v=0
37680 On ch=1 n=f#4 v=64
37680 On ch=1 n=b4 v=64
37680 On ch=1 n=d5 v=64
37920 On ch=1 n=d5 v=0
37920 On ch=1 n=b4 v=0
37920 On ch=1 n=f#4 v=0
37920 On ch=1 n=f#4 v=64
37920 On ch=1 n=a4 v=64
38160 On ch=1 n=a4 v=0
38160 On ch=1 n=f#4 v=0
38160 On ch=1 n=d4 v=64
38160 On ch=1 n=f#4 v=64
38400 On ch=1 n=f#4 v=0
38400 On ch=1 n=d4 v=0
38400 On ch=1 n=d#4 v=64
38400 On ch=1 n=f#4 v=64
38400 On ch=1 n=b4 v=64
38640 On ch=1 n=b4 v=0
38640 On ch=1 n=f#4 v=0
38640 On ch=1 n=d#4 v=0
38880 On ch=1 n=f#4 v=70
38880 On ch=1 n=g#4 v=70
38880 On ch=1 n=c5 v=70
38880 On ch=1 n=d#5 v=70
38880 On ch=1 n=f#5 v=70
38880 On ch=1 n=g#5 v=70
39840 On ch=1 n=g#5 v=0
39840 On ch=1 n=f#5 v=0
39840 On ch=1 n=d#5 v=0
39840 On ch=1 n=c5 v=0
39840 On ch=1 n=g#4 v=0
39840 On ch=1 n=f#4 v=0
39840 On ch=1 n=f#5 v=83
39840 On ch=1 n=g#5 v=83
39840 On ch=1 n=c6 v=83
39840 On ch=1 n=d#6 v=83
39840 On ch=1 n=f#6 v=83
39840 On ch=1 n=g#6 v=83
40320 On ch=1 n=g#6 v=0
40320 On ch=1 n=f#6 v=0
40320 On ch=1 n=d#6 v=0
40320 On ch=1 n=c6 v=0
40320 On ch=1 n=g#5 v=0
40320 On ch=1 n=f#5 v=0
40320 On ch=1 n=f#6 v=90
40320 On ch=1 n=g#6 v=90
40320 On ch=1 n=c7 v=90
40320 On ch=1 n=d#7 v=90
40320 On ch=1 n=f#7 v=90
40320 On ch=1 n=g#7 v=90
40800 On ch=1 n=g#7 v=0
40800 On ch=1 n=f#7 v=0
40800 On ch=1 n=d#7 v=0
40800 On ch=1 n=c7 v=0
40800 On ch=1 n=g#6 v=0
40800 On ch=1 n=f#6 v=0
40800 On ch=1 n=f#4 v=90
40800 On ch=1 n=g#4 v=90
40800 On ch=1 n=c5 v=90
40800 On ch=1 n=d#5 v=90
40800 On ch=1 n=f#5 v=90
40800 On ch=1 n=g#5 v=90
41760 On ch=1 n=g#5 v=0
41760 On ch=1 n=f#5 v=0
41760 On ch=1 n=d#5 v=0
41760 On ch=1 n=c5 v=0
41760 On ch=1 n=g#4 v=0
41760 On ch=1 n=f#4 v=0
41760 On ch=1 n=f#5 v=90
41760 On ch=1 n=g#5 v=90
41760 On ch=1 n=c6 v=90
41760 On ch=1 n=d#6 v=90
41760 On ch=1 n=f#6 v=90
41760 On ch=1 n=g#6 v=90
42240 On ch=1 n=g#6 v=0
42240 On ch=1 n=f#6 v=0
42240 On ch=1 n=d#6 v=0
42240 On ch=1 n=c6 v=0
42240 On ch=1 n=g#5 v=0
42240 On ch=1 n=f#5 v=0
42240 On ch=1 n=f#6 v=90
42240 On ch=1 n=g#6 v=90
42240 On ch=1 n=c7 v=90
42240 On ch=1 n=d#7 v=90
42720 On ch=1 n=d#7 v=0
42720 On ch=1 n=c7 v=0
42720 On ch=1 n=g#6 v=0
42720 On ch=1 n=f#6 v=0
42720 On ch=1 n=f#4 v=90
42720 On ch=1 n=g#4 v=90
42720 On ch=1 n=c5 v=90
42720 On ch=1 n=d#5 v=90
42720 On ch=1 n=f#5 v=90
42720 On ch=1 n=g#5 v=90
43200 On ch=1 n=g#5 v=0
43200 On ch=1 n=f#5 v=0
43200 On ch=1 n=d#5 v=0
43200 On ch=1 n=c5 v=0
43200 On ch=1 n=g#4 v=0
43200 On ch=1 n=f#4 v=0
43200 On ch=1 n=f#5 v=90
43200 On ch=1 n=g#5 v=90
43200 On ch=1 n=c6 v=90
43200 On ch=1 n=d#6 v=90
43200 On ch=1 n=f#6 v=90
43200 On ch=1 n=g#6 v=90
43680 On ch=1 n=g#6 v=0
43680 On ch=1 n=f#6 v=0
43680 On ch=1 n=d#6 v=0
43680 On ch=1 n=c6 v=0
43680 On ch=1 n=g#5 v=0
43680 On ch=1 n=f#5 v=0
43680 On ch=1 n=f#6 v=90
43680 On ch=1 n=g#6 v=90
43680 On ch=1 n=c7 v=90
43680 On ch=1 n=d#7 v=90
43680 On ch=1 n=f#7 v=90
43680 On ch=1 n=g#7 v=90
43980 On ch=1 n=g#5 v=90
44040 On ch=1 n=f6 v=90
44100 On ch=1 n=g#6 v=90
44160 On ch=1 n=g#7 v=0
44160 On ch=1 n=f#7 v=0
44160 On ch=1 n=d#7 v=0
44160 On ch=1 n=c7 v=0
44160 On ch=1 n=g#6 v=0
44160 On ch=1 n=f#6 v=0
44160 On ch=1 n=f7 v=90
44196 On ch=1 n=g#5 v=0
44232 On ch=1 n=f6 v=0
44267 On ch=1 n=g#6 v=0
44303 On ch=1 n=f7 v=0
44440 On ch=1 n=g#5 v=90
44480 On ch=1 n=f6 v=90
44520 On ch=1 n=c#7 v=90
44680 On ch=1 n=g#5 v=90
44720 On ch=1 n=f6 v=90
44760 On ch=1 n=c#7 v=0
44760 On ch=1 n=f6 v=0
44760 On ch=1 n=g#5 v=0
44760 On ch=1 n=g#6 v=90
44920 On ch=1 n=f5 v=90
44960 On ch=1 n=c#6 v=90
45000 On ch=1 n=g#6 v=0
45000 On ch=1 n=f6 v=0
45000 On ch=1 n=g#5 v=0
45000 On ch=1 n=f6 v=90
45160 On ch=1 n=d#5 v=90
45200 On ch=1 n=g#5 v=90
45240 On ch=1 n=f6 v=0
45240 On ch=1 n=c#6 v=0
45240 On ch=1 n=f5 v=0
45240 On ch=1 n=d#6 v=90
45400 On ch=1 n=f5 v=90
45440 On ch=1 n=g#5 v=90
45480 On ch=1 n=d#6 v=0
45480 On ch=1 n=g#5 v=0
45480 On ch=1 n=d#5 v=0
45480 On ch=1 n=f6 v=90
45640 On ch=1 n=f#5 v=90
45680 On ch=1 n=a#5 v=90
45720 On ch=1 n=f6 v=0
45720 On ch=1 n=g#5 v=0
45720 On ch=1 n=f5 v=0
45720 On ch=1 n=f#6 v=90
45880 On ch=1 n=g5 v=90
45920 On ch=1 n=c#6 v=90
45960 On ch=1 n=f#6 v=0
45960 On ch=1 n=a#5 v=0
45960 On ch=1 n=f#5 v=0
45960 On ch=1 n=g6 v=90
46120 On ch=1 n=g#5 v=90
46160 On ch=1 n=c#6 v=90
46200 On ch=1 n=g6 v=0
46200 On ch=1 n=c#6 v=0
46200 On ch=1 n=g5 v=0
46200 On ch=1 n=g#6 v=90
46350 On ch=1 n=g5 v=90
46380 On ch=1 n=c#6 v=90
46410 On ch=1 n=e6 v=90
46440 On ch=1 n=g#6 v=0
46440 On ch=1 n=c#6 v=0
46440 On ch=1 n=g#5 v=0
46440 On ch=1 n=a#6 v=90
46590 On ch=1 n=a5 v=90
46620 On ch=1 n=d#6 v=90
46650 On ch=1 n=f#6 v=90
46680 On ch=1 n=a#6 v=0
46680 On ch=1 n=e6 v=0
46680 On ch=1 n=c#6 v=0
46680 On ch=1 n=g5 v=0
46680 On ch=1 n=c7 v=90
46830 On ch=1 n=g#5 v=90
46860 On ch=1 n=f6 v=90
46890 On ch=1 n=g#6 v=90
46920 On ch=1 n=c7 v=0
46920 On ch=1 n=f#6 v=0
46920 On ch=1 n=d#6 v=0
46920 On ch=1 n=a5 v=0
46920 On ch=1 n=c#7 v=90
47070 On ch=1 n=c6 v=90
47100 On ch=1 n=f#6 v=90
47130 On ch=1 n=g#6 v=90
47160 On ch=1 n=c#7 v=0
47160 On ch=1 n=g#6 v=0
47160 On ch=1 n=f6 v=0
47160 On ch=1 n=g#5 v=0
47160 On ch=1 n=d#7 v=90
47310 On ch=1 n=c#6 v=90
47340 On ch=1 n=f6 v=90
47370 On ch=1 n=g#6 v=90
47400 On ch=1 n=d#7 v=0
47400 On ch=1 n=g#6 v=0
47400 On ch=1 n=f#6 v=0
47400 On ch=1 n=c6 v=0
47400 On ch=1 n=f7 v=90
47550 On ch=1 n=d#6 v=90
47580 On ch=1 n=g#6 v=90
47610 On ch=1 n=c7 v=90
47640 On ch=1 n=f7 v=0
47640 On ch=1 n=g#6 v=0
47640 On ch=1 n=f6 v=0
47640 On ch=1 n=c#6 v=0
47640 On ch=1 n=f#7 v=90
47800 On ch=1 n=f#6 v=90
47840 On ch=1 n=g#6 v=90
47880 On ch=1 n=f#7 v=0
47880 On ch=1 n=c7 v=0
47880 On ch=1 n=g#6 v=0
47880 On ch=1 n=d#6 v=0
47880 On ch=1 n=d#7 v=90
47910 On ch=1 n=g#5 v=90
47940 On ch=1 n=f6 v=90
47970 On ch=1 n=g#6 v=90
48000 On ch=1 n=d#7 v=0
48000 On ch=1 n=g#6 v=0
48000 On ch=1 n=f#6 v=0
48000 On ch=1 n=f7 v=90
48036 On ch=1 n=g#5 v=0
48072 On ch=1 n=f6 v=0
48107 On ch=1 n=g#6 v=0
48143 On ch=1 n=f7 v=0
48280 On ch=1 n=g#5 v=90
48320 On ch=1 n=f6 v=90
48360 On ch=1 n=c#7 v=90
48520 On ch=1 n=g#5 v=90
48560 On ch=1 n=f6 v=90
48600 On ch=1 n=c#7 v=0
48600 On ch=1 n=f6 v=0
48600 On ch=1 n=g#5 v=0
48600 On ch=1 n=g#6 v=90
48760 On ch=1 n=f5 v=90
48800 On ch=1 n=c#6 v=90
48840 On ch=1 n=g#6 v=0
48840 On ch=1 n=f6 v=0
48840 On ch=1 n=g#5 v=0
48840 On ch=1 n=f6 v=90
49000 On ch=1 n=d#5 v=90
49040 On ch=1 n=g#5 v=90
49080 On ch=1 n=f6 v=0
49080 On ch=1 n=c#6 v=0
49080 On ch=1 n=f5 v=0
49080 On ch=1 n=d#6 v=90
49240 On ch=1 n=f5 v=90
49280 On ch=1 n=g#5 v=90
49320 On ch=1 n=d#6 v=0
49320 On ch=1 n=g#5 v=0
49320 On ch=1 n=d#5 v=0
49320 On ch=1 n=f6 v=90
49480 On ch=1 n=f#5 v=90
49520 On ch=1 n=a#5 v=90
49560 On ch=1 n=f6 v=0
49560 On ch=1 n=g#5 v=0
49560 On ch=1 n=f5 v=0
49560 On ch=1 n=f#6 v=90
49720 On ch=1 n=g5 v=90
49760 On ch=1 n=c#6 v=90
49800 On ch=1 n=f#6 v=0
49800 On ch=1 n=a#5 v=0
49800 On ch=1 n=f#5 v=0
49800 On ch=1 n=g6 v=90
49920 On ch=1 n=g6 v=0
49920 On ch=1 n=g6 v=90
49960 On ch=1 n=g#5 v=90
50000 On ch=1 n=c#6 v=90
50040 On ch=1 n=g6 v=0
50040 On ch=1 n=c#6 v=0
50040 On ch=1 n=g5 v=0
50040 On ch=1 n=g#6 v=90
50190 On ch=1 n=g5 v=90
50220 On ch=1 n=c#6 v=90
50250 On ch=1 n=e6 v=90
50280 On ch=1 n=g#6 v=0
50280 On ch=1 n=c#6 v=0
50280 On ch=1 n=g#5 v=0
50280 On ch=1 n=a#6 v=90
50430 On ch=1 n=a5 v=90
50460 On ch=1 n=d#6 v=90
50490 On ch=1 n=f6 v=90
50520 On ch=1 n=a#6 v=0
50520 On ch=1 n=e6 v=0
50520 On ch=1 n=c#6 v=0
50520 On ch=1 n=g5 v=0
50520 On ch=1 n=c7 v=90
50670 On ch=1 n=g#5 v=90
50700 On ch=1 n=f6 v=90
50730 On ch=1 n=g#6 v=90
50760 On ch=1 n=c7 v=0
50760 On ch=1 n=f6 v=0
50760 On ch=1 n=d#6 v=0
50760 On ch=1 n=a5 v=0
50760 On ch=1 n=c#7 v=90
50910 On ch=1 n=c6 v=90
50940 On ch=1 n=f#6 v=90
50970 On ch=1 n=g#6 v=90
51000 On ch=1 n=c#7 v=0
51000 On ch=1 n=g#6 v=0
51000 On ch=1 n=f6 v=0
51000 On ch=1 n=g#5 v=0
51000 On ch=1 n=d#7 v=90
51150 On ch=1 n=c#6 v=90
51180 On ch=1 n=f6 v=90
51210 On ch=1 n=g#6 v=90
51240 On ch=1 n=d#7 v=0
51240 On ch=1 n=g#6 v=0
51240 On ch=1 n=f#6 v=0
51240 On ch=1 n=c6 v=0
51240 On ch=1 n=f7 v=90
51390 On ch=1 n=d#6 v=90
51420 On ch=1 n=g#6 v=90
51450 On ch=1 n=c7 v=90
51480 On ch=1 n=f7 v=0
51480 On ch=1 n=g#6 v=0
51480 On ch=1 n=f6 v=0
51480 On ch=1 n=c#6 v=0
51480 On ch=1 n=f#7 v=90
51630 On ch=1 n=c6 v=90
51660 On ch=1 n=f#6 v=90
51690 On ch=1 n=g#6 v=90
51720 On ch=1 n=f#7 v=0
51720 On ch=1 n=c7 v=0
51720 On ch=1 n=g#6 v=0
51720 On ch=1 n=d#6 v=0
51720 On ch=1 n=d#7 v=90
51750 On ch=1 n=g#5 v=90
51780 On ch=1 n=f6 v=90
51810 On ch=1 n=g#6 v=90
51840 On ch=1 n=d#7 v=0
51840 On ch=1 n=g#6 v=0
51840 On ch=1 n=f#6 v=0
51840 On ch=1 n=c6 v=0
51840 On ch=1 n=f7 v=90
52080 On ch=1 n=f7 v=0
52080 On ch=1 n=g#6 v=0
52080 On ch=1 n=f6 v=0
52080 On ch=1 n=g#5 v=0
52120 On ch=1 n=c#6 v=90
52160 On ch=1 n=g#6 v=90
52200 On ch=1 n=c#7 v=90
52360 On ch=1 n=c6 v=90
52400 On ch=1 n=g#6 v=90
52440 On ch=1 n=c#7 v=0
52440 On ch=1 n=g#6 v=0
52440 On ch=1 n=c#6 v=0
52440 On ch=1 n=c7 v=90
52600 On ch=1 n=a#5 v=90
52640 On ch=1 n=g#6 v=90
52680 On ch=1 n=c7 v=0
52680 On ch=1 n=g#6 v=0
52680 On ch=1 n=c6 v=0
52680 On ch=1 n=a#6 v=90
52840 On ch=1 n=d#6 v=90
52880 On ch=1 n=g#6 v=90
52920 On ch=1 n=a#6 v=0
52920 On ch=1 n=g#6 v=0
52920 On ch=1 n=a#5 v=0
52920 On ch=1 n=d#7 v=90
53080 On ch=1 n=c#6 v=90
53120 On ch=1 n=g#6 v=90
53160 On ch=1 n=d#7 v=0
53160 On ch=1 n=g#6 v=0
53160 On ch=1 n=d#6 v=0
53160 On ch=1 n=c#7 v=90
53320 On ch=1 n=c6 v=90
53360 On ch=1 n=g#6 v=90
53400 On ch=1 n=c#7 v=0
53400 On ch=1 n=g#6 v=0
53400 On ch=1 n=c#6 v=0
53400 On ch=1 n=c7 v=90
53560 On ch=1 n=a#5 v=90
53600 On ch=1 n=g#6 v=90
53640 On ch=1 n=c7 v=0
53640 On ch=1 n=g#6 v=0
53640 On ch=1 n=c6 v=0
53640 On ch=1 n=a#6 v=90
53820 On ch=1 n=g#5 v=90
53880 On ch=1 n=a#6 v=0
53880 On ch=1 n=g#6 v=0
53880 On ch=1 n=a#5 v=0
53880 On ch=1 n=g#6 v=90
54040 On ch=1 n=c#6 v=90
54080 On ch=1 n=g#6 v=90
54120 On ch=1 n=g#6 v=0
54120 On ch=1 n=g#5 v=0
54120 On ch=1 n=c#7 v=90
54280 On ch=1 n=b5 v=90
54320 On ch=1 n=g#6 v=90
54360 On ch=1 n=c#7 v=0
54360 On ch=1 n=g#6 v=0
54360 On ch=1 n=c#6 v=0
54360 On ch=1 n=b6 v=90
54520 On ch=1 n=a#5 v=90
54560 On ch=1 n=g#6 v=90
54600 On ch=1 n=b6 v=0
54600 On ch=1 n=g#6 v=0
54600 On ch=1 n=b5 v=0
54600 On ch=1 n=a#6 v=90
54760 On ch=1 n=d#6 v=90
54800 On ch=1 n=g#6 v=90
54840 On ch=1 n=a#6 v=0
54840 On ch=1 n=g#6 v=0
54840 On ch=1 n=a#5 v=0
54840 On ch=1 n=d#7 v=90
55000 On ch=1 n=c#6 v=90
55040 On ch=1 n=g6 v=90
55080 On ch=1 n=d#7 v=0
55080 On ch=1 n=g#6 v=0
55080 On ch=1 n=d#6 v=0
55080 On ch=1 n=c#7 v=90
55230 On ch=1 n=d#6 v=90
55260 On ch=1 n=f#6 v=90
55290 On ch=1 n=b6 v=90
55320 On ch=1 n=c#7 v=0
55320 On ch=1 n=g6 v=0
55320 On ch=1 n=c#6 v=0
55320 On ch=1 n=f#7 v=90
55480 On ch=1 n=a#5 v=90
55520 On ch=1 n=e6 v=90
55560 On ch=1 n=f#7 v=0
55560 On ch=1 n=b6 v=0
55560 On ch=1 n=f#6 v=0
55560 On ch=1 n=d#6 v=0
55560 On ch=1 n=a#6 v=90
55600 On ch=1 n=b5 v=90
55640 On ch=1 n=d#6 v=90
55680 On ch=1 n=a#6 v=0
55680 On ch=1 n=e6 v=0
55680 On ch=1 n=a#5 v=0
55680 On ch=1 n=b6 v=90
55830 On ch=1 n=g#5 v=90
55860 On ch=1 n=d6 v=90
55890 On ch=1 n=f6 v=90
55920 On ch=1 n=b6 v=0
55920 On ch=1 n=d#6 v=0
55920 On ch=1 n=b5 v=0
55920 On ch=1 n=b6 v=90
56080 On ch=1 n=a#5 v=90
56120 On ch=1 n=d#6 v=90
56160 On ch=1 n=b6 v=0
56160 On ch=1 n=f6 v=0
56160 On ch=1 n=d6 v=0
56160 On ch=1 n=g#5 v=0
56160 On ch=1 n=f#6 v=90
56310 On ch=1 n=g#5 v=90
56340 On ch=1 n=c6 v=90
56370 On ch=1 n=d#6 v=90
56400 On ch=1 n=f#6 v=0
56400 On ch=1 n=d#6 v=0
56400 On ch=1 n=a#5 v=0
56400 On ch=1 n=a6 v=90
56560 On ch=1 n=g#5 v=90
56600 On ch=1 n=c#6 v=90
56640 On ch=1 n=a6 v=0
56640 On ch=1 n=d#6 v=0
56640 On ch=1 n=c6 v=0
56640 On ch=1 n=g#5 v=0
56640 On ch=1 n=e6 v=90
56790 On ch=1 n=f5 v=90
56820 On ch=1 n=b5 v=90
56850 On ch=1 n=d6 v=90
56880 On ch=1 n=e6 v=0
56880 On ch=1 n=c#6 v=0
56880 On ch=1 n=g#5 v=0
56880 On ch=1 n=g#6 v=90
57040 On ch=1 n=f#5 v=90
57080 On ch=1 n=a#5 v=90
57120 On ch=1 n=g#6 v=0
57120 On ch=1 n=d6 v=0
57120 On ch=1 n=b5 v=0
57120 On ch=1 n=f5 v=0
57120 On ch=1 n=d#6 v=90
57270 On ch=1 n=d#5 v=90
57300 On ch=1 n=a5 v=90
57330 On ch=1 n=c6 v=90
57360 On ch=1 n=d#6 v=0
57360 On ch=1 n=a#5 v=0
57360 On ch=1 n=f#5 v=0
57360 On ch=1 n=f#6 v=90
57520 On ch=1 n=g5 v=90
57560 On ch=1 n=a#5 v=90
57600 On ch=1 n=f#6 v=0
57600 On ch=1 n=c6 v=0
57600 On ch=1 n=a5 v=0
57600 On ch=1 n=d#5 v=0
57600 On ch=1 n=e6 v=90
57750 On ch=1 n=a#5 v=90
57780 On ch=1 n=e6 v=90
57810 On ch=1 n=g6 v=90
57840 On ch=1 n=e6 v=0
57840 On ch=1 n=a#5 v=0
57840 On ch=1 n=g5 v=0
57840 Par ch=1 c=64 v=120
57840 On ch=1 n=c#7 v=90
57990 On ch=1 n=g5 v=90
58020 On ch=1 n=c#6 v=90
58050 On ch=1 n=e6 v=90
58080 On ch=1 n=c#7 v=0
58080 On ch=1 n=g6 v=0
58080 On ch=1 n=e6 v=0
58080 On ch=1 n=a#5 v=0
58080 On ch=1 n=a#6 v=90
58230 On ch=1 n=a#5 v=90
58260 On ch=1 n=e6 v=90
58290 On ch=1 n=g6 v=90
58320 On ch=1 n=a#6 v=0
58320 On ch=1 n=e6 v=0
58320 On ch=1 n=c#6 v=0
58320 On ch=1 n=g5 v=0
58320 On ch=1 n=c#7 v=90
58470 On ch=1 n=c#6 v=90
58500 On ch=1 n=g6 v=90
58530 On ch=1 n=a#6 v=90
58560 On ch=1 n=c#7 v=0
58560 On ch=1 n=g6 v=0
58560 On ch=1 n=e6 v=0
58560 On ch=1 n=a#5 v=0
58560 On ch=1 n=e7 v=90
58710 On ch=1 n=e6 v=90
58740 On ch=1 n=a6 v=90
58770 On ch=1 n=c#7 v=90
58800 On ch=1 n=e7 v=0
58800 On ch=1 n=a#6 v=0
58800 On ch=1 n=g6 v=0
58800 On ch=1 n=c#6 v=0
58800 On ch=1 n=f#7 v=90
58950 On ch=1 n=c#6 v=90
58980 On ch=1 n=g6 v=90
59010 On ch=1 n=a#6 v=90
59040 On ch=1 n=f#7 v=0
59040 On ch=1 n=c#7 v=0
59040 On ch=1 n=a6 v=0
59040 On ch=1 n=e6 v=0
59040 On ch=1 n=e7 v=90
59190 On ch=1 n=a#5 v=90
59220 On ch=1 n=e6 v=90
59250 On ch=1 n=g6 v=90
59280 On ch=1 n=e7 v=0
59280 On ch=1 n=a#6 v=0
59280 On ch=1 n=g6 v=0
59280 On ch=1 n=c#6 v=0
59280 On ch=1 n=c#7 v=90
59440 On ch=1 n=b5 v=90
59480 On ch=1 n=f#6 v=90
59520 On ch=1 n=c#7 v=0
59520 On ch=1 n=g6 v=0
59520 On ch=1 n=e6 v=0
59520 On ch=1 n=a#5 v=0
59520 On ch=1 n=d#7 v=90
59760 On ch=1 n=d#7 v=0
59760 On ch=1 n=f#6 v=0
59760 On ch=1 n=b5 v=0
59760 On ch=1 n=d5 v=90
59760 On ch=1 n=f5 v=90
59760 On ch=1 n=g#5 v=90
59760 On ch=1 n=b5 v=90
60000 On ch=1 n=b5 v=0
60000 On ch=1 n=g#5 v=0
60000 On ch=1 n=f5 v=0
60000 On ch=1 n=d5 v=0
60000 On ch=1 n=a#4 v=90
60000 On ch=1 n=d#5 v=90
60000 On ch=1 n=f#5 v=90
60240 On ch=1 n=f#5 v=0
60240 On ch=1 n=d#5 v=0
60240 On ch=1 n=a#4 v=0
60240 On ch=1 n=c5 v=90
60240 On ch=1 n=d#5 v=90
60240 On ch=1 n=a5 v=90
60480 On ch=1 n=a5 v=0
60480 On ch=1 n=d#5 v=0
60480 On ch=1 n=c5 v=0
60480 On ch=1 n=g#4 v=90
60480 On ch=1 n=c#5 v=90
60480 On ch=1 n=e5 v=90
60720 On ch=1 n=e5 v=0
60720 On ch=1 n=c#5 v=0
60720 On ch=1 n=g#4 v=0
60720 On ch=1 n=b4 v=90
60720 On ch=1 n=d5 v=90
60720 On ch=1 n=f5 v=90
60720 On ch=1 n=g#5 v=90
60960 On ch=1 n=g#5 v=0
60960 On ch=1 n=f5 v=0
60960 On ch=1 n=d5 v=0
60960 On ch=1 n=b4 v=0
60960 On ch=1 n=f#4 v=90
60960 On ch=1 n=a#4 v=90
60960 On ch=1 n=d#5 v=90
61200 On ch=1 n=d#5 v=0
61200 On ch=1 n=a#4 v=0
61200 On ch=1 n=f#4 v=0
61200 On ch=1 n=a4 v=90
61200 On ch=1 n=c5 v=90
61200 On ch=1 n=f#5 v=90
61440 On ch=1 n=f#5 v=0
61440 On ch=1 n=c5 v=0
61440 On ch=1 n=a4 v=0
61440 On ch=1 n=g4 v=90
61440 On ch=1 n=c5 v=90
61440 On ch=1 n=e5 v=90
61680 On ch=1 n=e5 v=0
61680 On ch=1 n=c5 v=0
61680 On ch=1 n=g4 v=0
61680 Par ch=1 c=64 v=120
61680 On ch=1 n=e5 v=90
61680 On ch=1 n=g5 v=90
61680 On ch=1 n=c6 v=90
61920 On ch=1 n=c6 v=0
61920 On ch=1 n=g5 v=0
61920 On ch=1 n=e5 v=0
61920 On ch=1 n=c5 v=90
61920 On ch=1 n=e5 v=90
61920 On ch=1 n=g5 v=90
62160 On ch=1 n=g5 v=0
62160 On ch=1 n=e5 v=0
62160 On ch=1 n=c5 v=0
62160 On ch=1 n=e5 v=90
62160 On ch=1 n=g5 v=90
62160 On ch=1 n=c6 v=90
62400 On ch=1 n=c6 v=0
62400 On ch=1 n=g5 v=0
62400 On ch=1 n=e5 v=0
62400 On ch=1 n=g5 v=90
62400 On ch=1 n=c6 v=90
62400 On ch=1 n=e6 v=90
62640 On ch=1 n=e6 v=0
62640 On ch=1 n=c6 v=0
62640 On ch=1 n=g5 v=0
62640 On ch=1 n=c6 v=90
62640 On ch=1 n=e6 v=90
62640 On ch=1 n=g6 v=90
62880 On ch=1 n=g6 v=0
62880 On ch=1 n=e6 v=0
62880 On ch=1 n=c6 v=0
62880 On ch=1 n=g5 v=90
62880 On ch=1 n=c6 v=90
62880 On ch=1 n=e6 v=90
63120 On ch=1 n=e6 v=0
63120 On ch=1 n=c6 v=0
63120 On ch=1 n=g5 v=0
63120 Par ch=1 c=64 v=0
63120 On ch=1 n=e5 v=90
63120 On ch=1 n=g5 v=90
63120 On ch=1 n=c6 v=90
63360 On ch=1 n=c6 v=0
63360 On ch=1 n=g5 v=0
63360 On ch=1 n=e5 v=0
63360 Par ch=1 c=64 v=120
63360 On ch=1 n=e5 v=90
63360 On ch=1 n=a5 v=90
63360 On ch=1 n=c6 v=90
63600 On ch=1 n=c6 v=0
63600 On ch=1 n=a5 v=0
63600 On ch=1 n=e5 v=0
63600 On ch=1 n=c5 v=90
63600 On ch=1 n=e5 v=90
63600 On ch=1 n=a5 v=90
63840 On ch=1 n=a5 v=0
63840 On ch=1 n=e5 v=0
63840 On ch=1 n=c5 v=0
63840 On ch=1 n=a4 v=90
63840 On ch=1 n=c5 v=90
63840 On ch=1 n=e5 v=90
64080 On ch=1 n=e5 v=0
64080 On ch=1 n=c5 v=0
64080 On ch=1 n=a4 v=0
64080 On ch=1 n=f4 v=90
64080 On ch=1 n=a4 v=90
64080 On ch=1 n=c5 v=90
64320 On ch=1 n=c5 v=0
64320 On ch=1 n=a4 v=0
64320 On ch=1 n=f4 v=0
64320 On ch=1 n=f4 v=90
64320 On ch=1 n=a4 v=90
64320 On ch=1 n=d5 v=90
64560 On ch=1 n=d5 v=0
64560 On ch=1 n=a4 v=0
64560 On ch=1 n=f4 v=0
64560 On ch=1 n=d4 v=90
64560 On ch=1 n=f4 v=90
64560 On ch=1 n=a4 v=90
64800 On ch=1 n=a4 v=0
64800 On ch=1 n=f4 v=0
64800 On ch=1 n=d4 v=0
64800 On ch=1 n=c4 v=90
64800 On ch=1 n=f4 v=90
64800 On ch=1 n=a4 v=90
65040 On ch=1 n=a4 v=0
65040 On ch=1 n=f4 v=0
65040 On ch=1 n=c4 v=0
65040 Par ch=1 c=64 v=0
65040 On ch=1 n=e4 v=90
65040 On ch=1 n=c5 v=90
65280 On ch=1 n=c5 v=0
65280 On ch=1 n=e4 v=0
65280 Par ch=1 c=64 v=120
65280 On ch=1 n=d#4 v=62
65280 On ch=1 n=a4 v=62
65280 On ch=1 n=b4 v=62
65280 On ch=1 n=d#4 v=62
65280 On ch=1 n=a4 v=62
65280 On ch=1 n=b4 v=62
65280 On ch=1 n=d#4 v=62
65280 On ch=1 n=a4 v=62
65280 On ch=1 n=b4 v=62
65520 On ch=1 n=b4 v=0
65520 On ch=1 n=a4 v=0
65520 On ch=1 n=d#4 v=0
66120 On ch=1 n=f#4 v=62
66360 On ch=1 n=f#4 v=0
66360 On ch=1 n=d#4 v=66
66600 On ch=1 n=d#4 v=0
66600 On ch=1 n=f#4 v=69
66840 On ch=1 n=f#4 v=0
66840 On ch=1 n=g4 v=72
67080 On ch=1 n=g4 v=0
67080 On ch=1 n=b4 v=75
67200 On ch=1 n=d#4 v=0
67200 On ch=1 n=b4 v=0
67200 On ch=1 n=a4 v=0
67200 On ch=1 n=d#4 v=0
67200 On ch=1 n=b4 v=0
67200 On ch=1 n=a4 v=0
67320 On ch=1 n=b4 v=0
67320 On ch=1 n=g4 v=82
67560 On ch=1 n=g4 v=0
67560 On ch=1 n=f#4 v=85
67800 On ch=1 n=f#4 v=0
67800 On ch=1 n=d#4 v=65
68040 On ch=1 n=d#4 v=0
68040 On ch=1 n=b3 v=69
68280 On ch=1 n=b3 v=0
68280 On ch=1 n=d#4 v=72
68520 On ch=1 n=d#4 v=0
68520 On ch=1 n=f#4 v=75
68760 On ch=1 n=f#4 v=0
68760 On ch=1 n=g4 v=78
69000 On ch=1 n=g4 v=0
69000 On ch=1 n=f#4 v=82
69240 On ch=1 n=f#4 v=0
69240 On ch=1 n=d#4 v=82
69480 On ch=1 n=d#4 v=0
69480 On ch=1 n=c4 v=82
69720 On ch=1 n=c4 v=0
69720 On ch=1 n=b3 v=49
69960 On ch=1 n=b3 v=0
69960 On ch=1 n=g3 v=49
70200 On ch=1 n=g3 v=0
70200 On ch=1 n=f#3 v=49
70440 On ch=1 n=f#3 v=0
70440 On ch=1 n=c4 v=49
70680 On ch=1 n=c4 v=0
70680 On ch=1 n=b3 v=49
70920 On ch=1 n=b3 v=0
70920 On ch=1 n=g3 v=36
71160 On ch=1 n=g3 v=0
71160 On ch=1 n=f#3 v=36
71400 On ch=1 n=f#3 v=0
71400 On ch=1 n=b3 v=36
72960 Par ch=1 c=64 v=0
73440 On ch=1 n=b3 v=0
73440 Par ch=1 c=64 v=120
73677 On ch=1 n=b5 v=23
73679 On ch=1 n=g5 v=23
73684 On ch=1 n=d5 v=23
73915 On ch=1 n=g5 v=23
73918 On ch=1 n=b4 v=23
73920 On ch=1 n=g5 v=0
73922 On ch=1 n=d5 v=0
73922 On ch=1 n=b5 v=0
73923 On ch=1 n=d5 v=23
74159 On ch=1 n=g5 v=23
74160 On ch=1 n=b5 v=23
74161 On ch=1 n=b4 v=0
74163 On ch=1 n=d5 v=0
74163 On ch=1 n=g5 v=0
74164 On ch=1 n=d5 v=23
74396 On ch=1 n=b5 v=23
74397 On ch=1 n=g5 v=23
74400 On ch=1 n=d5 v=0
74400 On ch=1 n=d6 v=23
74402 On ch=1 n=g5 v=0
74403 On ch=1 n=b5 v=0
74635 On ch=1 n=b5 v=0
74635 On ch=1 n=b5 v=23
74636 On ch=1 n=g5 v=23
74640 On ch=1 n=d6 v=0
74640 On ch=1 n=g5 v=0
74641 On ch=1 n=e6 v=23
74877 On ch=1 n=e6 v=0
74877 On ch=1 n=g5 v=0
74879 On ch=1 n=b5 v=0
74879 On ch=1 n=d6 v=23
74880 On ch=1 n=g5 v=23
74884 On ch=1 n=b5 v=23
75117 On ch=1 n=d6 v=0
75118 On ch=1 n=g5 v=0
75119 On ch=1 n=b5 v=23
75120 On ch=1 n=d5 v=23
75120 On ch=1 n=g5 v=23
75121 On ch=1 n=b5 v=0
75357 On ch=1 n=d5 v=23
75358 On ch=1 n=g5 v=0
75358 On ch=1 n=d5 v=0
75358 On ch=1 n=b5 v=0
75358 On ch=1 n=b4 v=23
75364 On ch=1 n=g5 v=23
75598 On ch=1 n=g5 v=23
75599 On ch=1 n=g5 v=0
75600 On ch=1 n=d5 v=0
75600 On ch=1 n=d5 v=23
75602 On ch=1 n=b4 v=0
75603 On ch=1 n=b5 v=23
75837 On ch=1 n=d5 v=0
75837 On ch=1 n=g5 v=0
75837 On ch=1 n=b5 v=23
75841 On ch=1 n=b5 v=0
75841 On ch=1 n=g5 v=23
75841 On ch=1 n=d6 v=23
76077 On ch=1 n=g5 v=23
76077 On ch=1 n=e6 v=23
76079 On ch=1 n=b5 v=0
76079 On ch=1 n=b5 v=23
76083 On ch=1 n=g5 v=0
76084 On ch=1 n=d6 v=0
76319 On ch=1 n=g6 v=23
76320 On ch=1 n=e6 v=0
76320 On ch=1 n=b5 v=23
76320 On ch=1 n=d6 v=23
76322 On ch=1 n=g5 v=0
76323 On ch=1 n=b5 v=0
76558 On ch=1 n=b5 v=0
76558 On ch=1 n=d6 v=23
76559 On ch=1 n=d6 v=0
76560 On ch=1 n=g6 v=0
76562 On ch=1 n=g6 v=23
76563 On ch=1 n=b6 v=23
76796 On ch=1 n=g6 v=23
76799 On ch=1 n=d7 v=23
76800 On ch=1 n=g6 v=0
76802 On ch=1 n=d6 v=0
76802 On ch=1 n=b6 v=23
76803 On ch=1 n=b6 v=0
77036 On ch=1 n=g6 v=0
77039 On ch=1 n=b6 v=23
77039 On ch=1 n=g6 v=23
77040 On ch=1 n=b6 v=0
77040 On ch=1 n=d7 v=0
77042 On ch=1 n=e7 v=23
77276 On ch=1 n=g6 v=0
77279 On ch=1 n=e7 v=0
77279 On ch=1 n=b6 v=0
77280 On ch=1 n=a6 v=23
77280 On ch=1 n=d7 v=23
77280 On ch=1 n=f#7 v=23
78240 On ch=1 n=f#7 v=0
78240 On ch=1 n=d7 v=0
78240 On ch=1 n=a6 v=0
78240 On ch=1 n=a6 v=23
78240 On ch=1 n=f#7 v=23
78240 On ch=1 n=a7 v=23
78480 On ch=1 n=a7 v=0
78480 On ch=1 n=f#7 v=0
78480 On ch=1 n=a6 v=0
81120 Par ch=1 c=64 v=120
81357 On ch=1 n=c6 v=23
81359 On ch=1 n=a5 v=23
81364 On ch=1 n=e5 v=23
81595 On ch=1 n=a5 v=23
81598 On ch=1 n=c5 v=23
81600 On ch=1 n=a5 v=0
81602 On ch=1 n=e5 v=0
81602 On ch=1 n=c6 v=0
81603 On ch=1 n=e5 v=23
81839 On ch=1 n=a5 v=23
81840 On ch=1 n=c6 v=23
81841 On ch=1 n=c5 v=0
81843 On ch=1 n=e5 v=0
81843 On ch=1 n=a5 v=0
81844 On ch=1 n=e5 v=23
82076 On ch=1 n=c6 v=23
82077 On ch=1 n=a5 v=23
82080 On ch=1 n=e5 v=0
82080 On ch=1 n=e6 v=23
82082 On ch=1 n=a5 v=0
82083 On ch=1 n=c6 v=0
82315 On ch=1 n=c6 v=0
82315 On ch=1 n=c6 v=23
82316 On ch=1 n=a5 v=23
82320 On ch=1 n=e6 v=0
82320 On ch=1 n=a5 v=0
82321 On ch=1 n=f6 v=23
82557 On ch=1 n=f6 v=0
82557 On ch=1 n=a5 v=0
82559 On ch=1 n=c6 v=0
82559 On ch=1 n=e6 v=23
82560 On ch=1 n=a5 v=23
82564 On ch=1 n=c6 v=23
82797 On ch=1 n=e6 v=0
82798 On ch=1 n=a5 v=0
82799 On ch=1 n=c6 v=23
82800 On ch=1 n=e5 v=23
82800 On ch=1 n=a5 v=23
82801 On ch=1 n=c6 v=0
83037 On ch=1 n=e5 v=23
83038 On ch=1 n=a5 v=0
83038 On ch=1 n=e5 v=0
83038 On ch=1 n=c6 v=0
83038 On ch=1 n=c5 v=23
83044 On ch=1 n=a5 v=23
83278 On ch=1 n=a5 v=23
83279 On ch=1 n=a5 v=0
83280 On ch=1 n=e5 v=0
83280 On ch=1 n=e5 v=23
83282 On ch=1 n=c5 v=0
83283 On ch=1 n=c6 v=23
83517 On ch=1 n=e5 v=0
83517 On ch=1 n=a5 v=0
83517 On ch=1 n=c6 v=23
83521 On ch=1 n=c6 v=0
83521 On ch=1 n=a5 v=23
83521 On ch=1 n=e6 v=23
83757 On ch=1 n=a5 v=23
83757 On ch=1 n=f6 v=23
83759 On ch=1 n=c6 v=0
83759 On ch=1 n=c6 v=23
83763 On ch=1 n=a5 v=0
83764 On ch=1 n=e6 v=0
83999 On ch=1 n=a6 v=23
84000 On ch=1 n=f6 v=0
84000 On ch=1 n=c6 v=23
84000 On ch=1 n=e6 v=23
84002 On ch=1 n=a5 v=0
84003 On ch=1 n=c6 v=0
84238 On ch=1 n=c6 v=0
84238 On ch=1 n=e6 v=23
84239 On ch=1 n=e6 v=0
84240 On ch=1 n=a6 v=0
84242 On ch=1 n=a6 v=23
84243 On ch=1 n=c7 v=23
84476 On ch=1 n=a6 v=23
84479 On ch=1 n=e7 v=23
84480 On ch=1 n=a6 v=0
84482 On ch=1 n=e6 v=0
84482 On ch=1 n=c7 v=23
84483 On ch=1 n=c7 v=0
84716 On ch=1 n=a6 v=0
84719 On ch=1 n=c7 v=23
84719 On ch=1 n=a6 v=23
84720 On ch=1 n=c7 v=0
84720 On ch=1 n=e7 v=0
84722 On ch=1 n=f#7 v=23
84956 On ch=1 n=a6 v=0
84959 On ch=1 n=f#7 v=0
84959 On ch=1 n=c7 v=0
84960 On ch=1 n=b6 v=23
84960 On ch=1 n=e7 v=23
84960 On ch=1 n=g#7 v=23
85920 On ch=1 n=g#7 v=0
85920 On ch=1 n=e7 v=0
85920 On ch=1 n=b6 v=0
85920 On ch=1 n=b6 v=23
85920 On ch=1 n=g#7 v=23
85920 On ch=1 n=b7 v=23
86160 On ch=1 n=b7 v=0
86160 On ch=1 n=g#7 v=0
86160 On ch=1 n=b6 v=0
89040 On ch=1 n=g5 v=23
89040 On ch=1 n=c6 v=23
89040 On ch=1 n=e6 v=23
89280 On ch=1 n=e6 v=0
89280 On ch=1 n=c6 v=0
89280 On ch=1 n=g5 v=0
89280 On ch=1 n=e5 v=26
89280 On ch=1 n=g5 v=26
89280 On ch=1 n=c6 v=26
89520 On ch=1 n=c6 v=0
89520 On ch=1 n=g5 v=0
89520 On ch=1 n=e5 v=0
89520 On ch=1 n=g5 v=29
89520 On ch=1 n=c6 v=29
89520 On ch=1 n=e6 v=29
89760 On ch=1 n=e6 v=0
89760 On ch=1 n=c6 v=0
89760 On ch=1 n=g5 v=0
89760 On ch=1 n=c6 v=32
89760 On ch=1 n=e6 v=32
89760 On ch=1 n=g6 v=32
90000 On ch=1 n=g6 v=0
90000 On ch=1 n=e6 v=0
90000 On ch=1 n=c6 v=0
90000 On ch=1 n=c6 v=36
90000 On ch=1 n=e6 v=36
90000 On ch=1 n=a6 v=36
90240 On ch=1 n=a6 v=0
90240 On ch=1 n=e6 v=0
90240 On ch=1 n=c6 v=0
90240 On ch=1 n=c6 v=39
90240 On ch=1 n=e6 v=39
90240 On ch=1 n=g6 v=39
90480 On ch=1 n=g6 v=0
90480 On ch=1 n=e6 v=0
90480 On ch=1 n=c6 v=0
90480 On ch=1 n=g5 v=42
90480 On ch=1 n=c6 v=42
90480 On ch=1 n=e6 v=42
90720 On ch=1 n=e6 v=0
90720 On ch=1 n=c6 v=0
90720 On ch=1 n=g5 v=0
90720 On ch=1 n=e5 v=45
90720 On ch=1 n=g5 v=45
90720 On ch=1 n=c6 v=45
90960 On ch=1 n=c6 v=0
90960 On ch=1 n=g5 v=0
90960 On ch=1 n=e5 v=0
90960 On ch=1 n=g5 v=49
90960 On ch=1 n=c6 v=49
90960 On ch=1 n=e6 v=49
91200 On ch=1 n=e6 v=0
91200 On ch=1 n=c6 v=0
91200 On ch=1 n=g5 v=0
91200 On ch=1 n=c6 v=49
91200 On ch=1 n=e6 v=49
91200 On ch=1 n=g6 v=49
91440 On ch=1 n=g6 v=0
91440 On ch=1 n=e6 v=0
91440 On ch=1 n=c6 v=0
91440 On ch=1 n=c6 v=49
91440 On ch=1 n=e6 v=49
91440 On ch=1 n=a6 v=49
91680 On ch=1 n=a6 v=0
91680 On ch=1 n=e6 v=0
91680 On ch=1 n=c6 v=0
91680 On ch=1 n=e6 v=49
91680 On ch=1 n=g6 v=49
91680 On ch=1 n=c7 v=49
91920 On ch=1 n=c7 v=0
91920 On ch=1 n=g6 v=0
91920 On ch=1 n=e6 v=0
91920 On ch=1 n=g6 v=49
91920 On ch=1 n=c7 v=49
91920 On ch=1 n=e7 v=49
92160 On ch=1 n=e7 v=0
92160 On ch=1 n=c7 v=0
92160 On ch=1 n=g6 v=0
92160 On ch=1 n=c7 v=49
92160 On ch=1 n=e7 v=49
92160 On ch=1 n=g7 v=49
92400 On ch=1 n=g7 v=0
92400 On ch=1 n=e7 v=0
92400 On ch=1 n=c7 v=0
92400 On ch=1 n=c7 v=49
92400 On ch=1 n=e7 v=49
92400 On ch=1 n=a7 v=49
92640 On ch=1 n=a7 v=0
92640 On ch=1 n=e7 v=0
92640 On ch=1 n=c7 v=0
92640 On ch=1 n=b6 v=88
92640 On ch=1 n=d7 v=88
92640 On ch=1 n=g7 v=88
92640 On ch=1 n=b7 v=88
93600 On ch=1 n=b7 v=0
93600 On ch=1 n=g7 v=0
93600 On ch=1 n=d7 v=0
93600 On ch=1 n=b6 v=0
93600 On ch=1 n=b6 v=88
93600 On ch=1 n=d7 v=88
93600 On ch=1 n=g7 v=88
93600 On ch=1 n=b7 v=88
94440 On ch=1 n=b7 v=0
94440 On ch=1 n=g7 v=0
94440 On ch=1 n=d7 v=0
94440 On ch=1 n=b6 v=0
94440 On ch=1 n=c#7 v=88
94440 On ch=1 n=c#8 v=88
94560 On ch=1 n=c#8 v=0
94560 On ch=1 n=c#7 v=0
94560 On ch=1 n=d#7 v=88
94560 On ch=1 n=f#7 v=88
94560 On ch=1 n=b7 v=88
94560 On ch=1 n=d#8 v=88
96480 On ch=1 n=d#8 v=0
96480 On ch=1 n=b7 v=0
96480 On ch=1 n=f#7 v=0
96480 On ch=1 n=d#7 v=0
96720 On ch=1 n=d#7 v=88
96720 On ch=1 n=f#7 v=88
96720 On ch=1 n=a#7 v=88
96720 On ch=1 n=d#8 v=88
96960 On ch=1 n=d#8 v=0
96960 On ch=1 n=a#7 v=0
96960 On ch=1 n=f#7 v=0
96960 On ch=1 n=d#7 v=0
96960 On ch=1 n=c#7 v=88
96960 On ch=1 n=e7 v=88
96960 On ch=1 n=a#7 v=88
96960 On ch=1 n=c#8 v=88
97200 On ch=1 n=c#8 v=0
97200 On ch=1 n=a#7 v=0
97200 On ch=1 n=e7 v=0
97200 On ch=1 n=c#7 v=0
97200 On ch=1 n=d#7 v=88
97200 On ch=1 n=f#7 v=88
97200 On ch=1 n=a#7 v=88
97200 On ch=1 n=d#8 v=88
97440 On ch=1 n=d#8 v=0
97440 On ch=1 n=a#7 v=0
97440 On ch=1 n=f#7 v=0
97440 On ch=1 n=d#7 v=0
97440 On ch=1 n=e7 v=88
97440 On ch=1 n=g7 v=88
97440 On ch=1 n=a#7 v=88
97440 On ch=1 n=e8 v=88
97680 On ch=1 n=e8 v=0
97680 On ch=1 n=a#7 v=0
97680 On ch=1 n=g7 v=0
97680 On ch=1 n=e7 v=0
97680 On ch=1 n=d#7 v=88
97680 On ch=1 n=f#7 v=88
97680 On ch=1 n=a#7 v=88
97680 On ch=1 n=d#8 v=88
97920 On ch=1 n=d#8 v=0
97920 On ch=1 n=a#7 v=0
97920 On ch=1 n=f#7 v=0
97920 On ch=1 n=d#7 v=0
97920 On ch=1 n=c#7 v=88
97920 On ch=1 n=e7 v=88
97920 On ch=1 n=a#7 v=88
97920 On ch=1 n=c#8 v=88
98160 On ch=1 n=c#8 v=0
98160 On ch=1 n=a#7 v=0
98160 On ch=1 n=e7 v=0
98160 On ch=1 n=c#7 v=0
98160 On ch=1 n=d#7 v=88
98160 On ch=1 n=f#7 v=88
98160 On ch=1 n=a#7 v=88
98160 On ch=1 n=d#8 v=88
98400 On ch=1 n=d#8 v=0
98400 On ch=1 n=a#7 v=0
98400 On ch=1 n=f#7 v=0
98400 On ch=1 n=d#7 v=0
98400 On ch=1 n=b6 v=88
98400 On ch=1 n=d#7 v=88
98400 On ch=1 n=f#7 v=88
98400 On ch=1 n=b7 v=88
98640 On ch=1 n=b7 v=0
98640 On ch=1 n=f#7 v=0
98640 On ch=1 n=d#7 v=0
98640 On ch=1 n=b6 v=0
98640 On ch=1 n=b6 v=88
98640 On ch=1 n=d#7 v=88
98640 On ch=1 n=g7 v=88
98880 On ch=1 n=g7 v=0
98880 On ch=1 n=d#7 v=0
98880 On ch=1 n=b6 v=0
98880 On ch=1 n=b6 v=88
98880 On ch=1 n=d#7 v=88
98880 On ch=1 n=f#7 v=88
99120 On ch=1 n=f#7 v=0
99120 On ch=1 n=d#7 v=0
99120 On ch=1 n=b6 v=0
99120 On ch=1 n=f#6 v=88
99120 On ch=1 n=b6 v=88
99120 On ch=1 n=d#7 v=88
99360 On ch=1 n=d#7 v=0
99360 On ch=1 n=b6 v=0
99360 On ch=1 n=f#6 v=0
99360 On ch=1 n=d#6 v=88
99360 On ch=1 n=g6 v=88
99360 On ch=1 n=b6 v=88
99840 On ch=1 n=b6 v=0
99840 On ch=1 n=g6 v=0
99840 On ch=1 n=d#6 v=0
99840 On ch=1 n=b5 v=88
99840 On ch=1 n=d#6 v=88
99840 On ch=1 n=f#6 v=88
100080 On ch=1 n=f#6 v=0
100080 On ch=1 n=d#6 v=0
100080 On ch=1 n=b5 v=0
100560 On ch=1 n=d#6 v=88
100560 On ch=1 n=f#6 v=88
100560 On ch=1 n=a#6 v=88
100560 On ch=1 n=d#7 v=88
100800 On ch=1 n=d#7 v=0
100800 On ch=1 n=a#6 v=0
100800 On ch=1 n=f#6 v=0
100800 On ch=1 n=d#6 v=0
100800 On ch=1 n=c#6 v=88
100800 On ch=1 n=e6 v=88
100800 On ch=1 n=a#6 v=88
100800 On ch=1 n=c#7 v=88
101040 On ch=1 n=c#7 v=0
101040 On ch=1 n=a#6 v=0
101040 On ch=1 n=e6 v=0
101040 On ch=1 n=c#6 v=0
101040 On ch=1 n=d#6 v=88
101040 On ch=1 n=f#6 v=88
101040 On ch=1 n=a#6 v=88
101040 On ch=1 n=d#7 v=88
101280 On ch=1 n=d#7 v=0
101280 On ch=1 n=a#6 v=0
101280 On ch=1 n=f#6 v=0
101280 On ch=1 n=d#6 v=0
101280 On ch=1 n=e6 v=88
101280 On ch=1 n=g6 v=88
101280 On ch=1 n=a#6 v=88
101280 On ch=1 n=e7 v=88
101520 On ch=1 n=e7 v=0
101520 On ch=1 n=a#6 v=0
101520 On ch=1 n=g6 v=0
101520 On ch=1 n=e6 v=0
101520 On ch=1 n=d#6 v=88
101520 On ch=1 n=f#6 v=88
101520 On ch=1 n=a#6 v=88
101520 On ch=1 n=d#7 v=88
101760 On ch=1 n=d#7 v=0
101760 On ch=1 n=a#6 v=0
101760 On ch=1 n=f#6 v=0
101760 On ch=1 n=d#6 v=0
101760 On ch=1 n=c#6 v=88
101760 On ch=1 n=e6 v=88
101760 On ch=1 n=a#6 v=88
101760 On ch=1 n=c#7 v=88
102000 On ch=1 n=c#7 v=0
102000 On ch=1 n=a#6 v=0
102000 On ch=1 n=e6 v=0
102000 On ch=1 n=c#6 v=0
102000 On ch=1 n=d#6 v=88
102000 On ch=1 n=f#6 v=88
102000 On ch=1 n=a#6 v=88
102000 On ch=1 n=d#7 v=88
102240 On ch=1 n=d#7 v=0
102240 On ch=1 n=a#6 v=0
102240 On ch=1 n=f#6 v=0
102240 On ch=1 n=d#6 v=0
102240 On ch=1 n=b5 v=88
102240 On ch=1 n=d#6 v=88
102240 On ch=1 n=f#6 v=88
102240 On ch=1 n=b6 v=88
102480 On ch=1 n=b6 v=0
102480 On ch=1 n=f#6 v=0
102480 On ch=1 n=d#6 v=0
102480 On ch=1 n=b5 v=0
102480 On ch=1 n=b5 v=88
102480 On ch=1 n=d#6 v=88
102480 On ch=1 n=g6 v=88
102720 On ch=1 n=g6 v=0
102720 On ch=1 n=d#6 v=0
102720 On ch=1 n=b5 v=0
102720 On ch=1 n=b5 v=88
102720 On ch=1 n=d#6 v=88
102720 On ch=1 n=f#6 v=88
102960 On ch=1 n=f#6 v=0
102960 On ch=1 n=d#6 v=0
102960 On ch=1 n=b5 v=0
102960 On ch=1 n=f#5 v=88
102960 On ch=1 n=b5 v=88
102960 On ch=1 n=d#6 v=88
103200 On ch=1 n=d#6 v=0
103200 On ch=1 n=b5 v=0
103200 On ch=1 n=f#5 v=0
103200 On ch=1 n=g5 v=88
103200 On ch=1 n=b5 v=88
103200 On ch=1 n=d6 v=88
103440 On ch=1 n=d6 v=0
103440 On ch=1 n=b5 v=0
103440 On ch=1 n=g5 v=0
103440 On ch=1 n=e5 v=88
103440 On ch=1 n=g5 v=88
103440 On ch=1 n=b5 v=88
103680 On ch=1 n=b5 v=0
103680 On ch=1 n=g5 v=0
103680 On ch=1 n=e5 v=0
103680 On ch=1 n=d5 v=88
103680 On ch=1 n=g5 v=88
103680 On ch=1 n=b5 v=88
103920 On ch=1 n=b5 v=0
103920 On ch=1 n=g5 v=0
103920 On ch=1 n=d5 v=0
103920 On ch=1 n=b4 v=88
103920 On ch=1 n=d5 v=88
103920 On ch=1 n=g5 v=88
104160 On ch=1 n=g5 v=0
104160 On ch=1 n=d5 v=0
104160 On ch=1 n=b4 v=0
104160 On ch=1 n=d#5 v=88
104160 On ch=1 n=f#5 v=88
104160 On ch=1 n=b5 v=88
104256 On ch=1 n=d#5 v=0
104352 On ch=1 n=f#5 v=0
104400 On ch=1 n=b4 v=88
104400 On ch=1 n=d#5 v=88
104400 On ch=1 n=g5 v=88
104447 On ch=1 n=b5 v=0
104640 On ch=1 n=g5 v=0
104640 On ch=1 n=d#5 v=0
104640 On ch=1 n=b4 v=0
104640 On ch=1 n=b4 v=88
104640 On ch=1 n=d#5 v=88
104640 On ch=1 n=f#5 v=88
104880 On ch=1 n=f#5 v=0
104880 On ch=1 n=d#5 v=0
104880 On ch=1 n=b4 v=0
104880 On ch=1 n=f#4 v=88
104880 On ch=1 n=b4 v=88
104880 On ch=1 n=d#5 v=88
105120 On ch=1 n=d#5 v=0
105120 On ch=1 n=b4 v=0
105120 On ch=1 n=f#4 v=0
105120 On ch=1 n=g4 v=88
105120 On ch=1 n=b4 v=88
105120 On ch=1 n=d5 v=88
105216 On ch=1 n=g4 v=0
105312 On ch=1 n=b4 v=0
105360 On ch=1 n=d4 v=88
105360 On ch=1 n=g4 v=88
105360 On ch=1 n=b4 v=88
105407 On ch=1 n=d5 v=0
105600 On ch=1 n=b4 v=0
105600 On ch=1 n=g4 v=0
105600 On ch=1 n=d4 v=0
105600 On ch=1 n=d#4 v=88
105600 On ch=1 n=g4 v=88
105600 On ch=1 n=b4 v=88
105840 On ch=1 n=b4 v=0
105840 On ch=1 n=g4 v=0
105840 On ch=1 n=d#4 v=0
105840 On ch=1 n=e4 v=88
105840 On ch=1 n=g4 v=88
106080 On ch=1 n=g4 v=0
106080 On ch=1 n=e4 v=0
106080 On ch=1 n=d#4 v=88
106080 On ch=1 n=f#4 v=88
106080 On ch=1 n=b4 v=88
106560 On ch=1 n=b4 v=0
106560 On ch=1 n=f#4 v=0
106560 On ch=1 n=d#4 v=0
110640 On ch=1 n=b5 v=88
110880 On ch=1 n=b5 v=0
110880 On ch=1 n=b6 v=88
111120 On ch=1 n=b6 v=0
111120 On ch=1 n=b7 v=88
111360 On ch=1 n=b7 v=0
112320 On ch=1 n=d#4 v=88
112320 On ch=1 n=f#4 v=88
112320 On ch=1 n=b4 v=88
112800 On ch=1 n=b4 v=0
112800 On ch=1 n=f#4 v=0
112800 On ch=1 n=d#4 v=0
112800 On ch=1 n=d#4 v=88
112800 On ch=1 n=g#4 v=88
112800 On ch=1 n=b4 v=88
113280 On ch=1 n=b4 v=0
113280 On ch=1 n=g#4 v=0
113280 On ch=1 n=d#4 v=0
113280 On ch=1 n=c#5 v=88
113280 On ch=1 n=d#4 v=88
113280 On ch=1 n=a4 v=88
113640 On ch=1 n=c#5 v=0
113640 On ch=1 n=b4 v=88
113760 On ch=1 n=b4 v=0
113760 On ch=1 n=a4 v=0
113760 On ch=1 n=d#4 v=0
113760 Par ch=1 c=64 v=0
113760 On ch=1 n=g#5 v=75
114720 On ch=1 n=g#5 v=0
114720 On ch=1 n=a5 v=75
115680 On ch=1 n=a5 v=0
115680 On ch=1 n=f#5 v=75
116905 On ch=1 n=g#4 v=75
116945 On ch=1 n=b4 v=75
116985 On ch=1 n=e5 v=75
117120 On ch=1 n=f#5 v=0
117120 On ch=1 n=g#5 v=75
117225 On ch=1 n=e5 v=0
117225 On ch=1 n=b4 v=0
117225 On ch=1 n=g#4 v=0
117600 On ch=1 n=g#5 v=0
117600 On ch=1 n=a5 v=75
118440 On ch=1 n=a5 v=75
118500 On ch=1 n=a5 v=0
118500 On ch=1 n=a5 v=75
118560 On ch=1 n=a5 v=0
118560 On ch=1 n=a5 v=0
118560 On ch=1 n=c#6 v=101
119280 On ch=1 n=c#6 v=0
119280 On ch=1 n=b5 v=75
119520 On ch=1 n=b5 v=0
119520 On ch=1 n=g#5 v=75
120960 On ch=1 n=g#5 v=0
120960 On ch=1 n=g#5 v=75
121440 On ch=1 n=g#5 v=0
121440 On ch=1 n=g#5 v=75
121920 On ch=1 n=g#5 v=0
121920 On ch=1 n=g#5 v=75
122400 On ch=1 n=g#5 v=0
122400 On ch=1 n=b5 v=75
122880 On ch=1 n=b5 v=0
122880 On ch=1 n=a#5 v=75
123360 On ch=1 n=a#5 v=0
123360 On ch=1 n=d#5 v=75
124800 On ch=1 n=d#5 v=0
124800 Par ch=1 c=64 v=0
124800 On ch=1 n=d#5 v=75
125280 On ch=1 n=d#5 v=0
125280 On ch=1 n=b5 v=75
125760 On ch=1 n=b5 v=0
125760 On ch=1 n=b5 v=75
126240 On ch=1 n=b5 v=0
126240 On ch=1 n=d#6 v=75
126720 On ch=1 n=d#6 v=0
126720 On ch=1 n=c#6 v=75
127200 On ch=1 n=c#6 v=0
127200 On ch=1 n=f#5 v=75
128640 On ch=1 n=f#5 v=0
128640 On ch=1 n=f#5 v=75
129000 On ch=1 n=f#5 v=0
129000 On ch=1 n=f#6 v=75
129120 On ch=1 n=f#6 v=0
129120 On ch=1 n=f#6 v=88
130080 On ch=1 n=f#6 v=0
130080 On ch=1 n=e6 v=88
130920 On ch=1 n=e6 v=0
130920 On ch=1 n=c6 v=88
131040 On ch=1 n=c6 v=0
131040 On ch=1 n=c6 v=114
132000 On ch=1 n=c6 v=0
132000 On ch=1 n=c#6 v=88
132240 On ch=1 n=c#6 v=0
132240 On ch=1 n=b5 v=88
132480 On ch=1 n=b5 v=0
132480 On ch=1 n=f#5 v=88
132840 On ch=1 n=f#5 v=0
132840 On ch=1 n=f#6 v=88
132960 On ch=1 n=f#6 v=0
132967 On ch=1 n=f#6 v=88
133920 On ch=1 n=f#6 v=0
133920 On ch=1 n=e6 v=88
134400 On ch=1 n=e6 v=0
134400 On ch=1 n=d6 v=88
134760 On ch=1 n=d6 v=0
134760 On ch=1 n=c6 v=88
134880 On ch=1 n=c6 v=0
134880 On ch=1 n=c6 v=88
135840 On ch=1 n=c6 v=0
135840 On ch=1 n=b5 v=88
136080 On ch=1 n=b5 v=0
136080 On ch=1 n=b5 v=88
136320 On ch=1 n=b5 v=0
136320 On ch=1 n=c#6 v=88
136680 On ch=1 n=c#6 v=0
136680 On ch=1 n=b5 v=88
136800 On ch=1 n=b5 v=0
136800 On ch=1 n=g#6 v=101
137220 On ch=1 n=e5 v=101
137280 On ch=1 n=b5 v=101
137520 On ch=1 n=b5 v=0
137520 On ch=1 n=e5 v=0
137760 On ch=1 n=g#6 v=0
137760 On ch=1 n=e6 v=101
138180 On ch=1 n=e5 v=101
138240 On ch=1 n=g#5 v=101
138480 On ch=1 n=g#5 v=0
138480 On ch=1 n=e5 v=0
138600 On ch=1 n=e6 v=0
138600 On ch=1 n=c6 v=101
138720 On ch=1 n=c6 v=0
138720 On ch=1 n=d#6 v=127
139680 On ch=1 n=d#6 v=0
139680 On ch=1 n=c#6 v=101
140160 On ch=1 n=c#6 v=0
140400 On ch=1 n=g5 v=101
140640 On ch=1 n=g5 v=0
140640 On ch=1 n=g#5 v=101
141120 On ch=1 n=g#5 v=0
141120 On ch=1 n=g#5 v=101
141600 On ch=1 n=g#5 v=0
141600 On ch=1 n=g#5 v=88
141600 On ch=1 n=b5 v=88
142080 On ch=1 n=b5 v=0
142080 On ch=1 n=g#5 v=0
142080 On ch=1 n=f#5 v=62
142080 On ch=1 n=a5 v=62
142560 On ch=1 n=a5 v=0
142560 On ch=1 n=f#5 v=0
142560 On ch=1 n=f#5 v=62
142560 On ch=1 n=a5 v=62
144000 On ch=1 n=a5 v=0
144000 On ch=1 n=f#5 v=0
144000 On ch=1 n=g#5 v=62
144360 On ch=1 n=g#5 v=0
144360 On ch=1 n=g#6 v=62
144480 On ch=1 n=g#6 v=0
144487 On ch=1 n=g#6 v=101
145440 On ch=1 n=g#6 v=0
145440 On ch=1 n=d6 v=127
146280 On ch=1 n=d6 v=0
146280 On ch=1 n=c#6 v=101
146400 On ch=1 n=c#6 v=0
146407 On ch=1 n=f#6 v=101
147360 On ch=1 n=f#6 v=0
147360 On ch=1 n=c6 v=127
148200 On ch=1 n=c6 v=0
148200 On ch=1 n=b5 v=101
148320 On ch=1 n=b5 v=0
148320 On ch=1 n=f6 v=101
148800 On ch=1 n=f6 v=0
148800 Par ch=1 c=64 v=0
148800 On ch=1 n=c6 v=127
149520 On ch=1 n=c6 v=0
149520 On ch=1 n=b5 v=88
149760 On ch=1 n=b5 v=0
149760 On ch=1 n=d6 v=88
150000 On ch=1 n=d6 v=0
150000 On ch=1 n=c6 v=75
150240 On ch=1 n=c6 v=0
150240 On ch=1 n=a5 v=62
150480 On ch=1 n=a5 v=0
150480 On ch=1 n=f5 v=62
150720 On ch=1 n=f5 v=0
150720 On ch=1 n=d5 v=49
150960 On ch=1 n=d5 v=0
150960 On ch=1 n=c5 v=75
151200 On ch=1 n=c5 v=0
151200 On ch=1 n=a4 v=75
151359 On ch=1 n=a4 v=0
151359 On ch=1 n=c5 v=88
151520 On ch=1 n=c5 v=0
151520 On ch=1 n=e5 v=88
151680 On ch=1 n=e5 v=0
151680 On ch=1 n=f5 v=88
151839 On ch=1 n=f5 v=0
151839 On ch=1 n=c5 v=88
151839 On ch=1 n=a5 v=88
152000 On ch=1 n=a5 v=0
152000 On ch=1 n=c5 v=0
152000 On ch=1 n=e5 v=88
152000 On ch=1 n=c6 v=88
152160 On ch=1 n=c6 v=0
152160 On ch=1 n=e5 v=0
152160 On ch=1 n=e5 v=88
152160 On ch=1 n=c6 v=88
152520 On ch=1 n=c6 v=0
152520 On ch=1 n=e5 v=0
152640 On ch=1 n=b4 v=88
152640 On ch=1 n=e5 v=88
152640 On ch=1 n=g#5 v=88
153360 On ch=1 n=g#5 v=0
153360 On ch=1 n=e5 v=0
153360 On ch=1 n=b4 v=0
153360 On ch=1 n=a4 v=88
153360 On ch=1 n=d#5 v=88
153360 On ch=1 n=f#5 v=88
153520 On ch=1 n=f#4 v=114
153560 On ch=1 n=d#5 v=114
153600 On ch=1 n=f#5 v=0
153600 On ch=1 n=d#5 v=0
153600 On ch=1 n=a4 v=0
153600 On ch=1 n=a5 v=114
153960 On ch=1 n=a5 v=0
153960 On ch=1 n=d#5 v=0
153960 On ch=1 n=f#4 v=0
153960 On ch=1 n=a4 v=88
153960 On ch=1 n=d#5 v=88
153960 On ch=1 n=g#5 v=88
154080 On ch=1 n=g#5 v=0
154080 On ch=1 n=d#5 v=0
154080 On ch=1 n=a4 v=0
154080 On ch=1 n=g#4 v=114
154080 On ch=1 n=e5 v=114
154320 On ch=1 n=e5 v=0
154320 On ch=1 n=g#4 v=0
154320 On ch=1 n=g#5 v=114
154320 On ch=1 n=b5 v=114
154320 On ch=1 n=e6 v=114
154320 On ch=1 n=g#6 v=114
154560 On ch=1 n=g#6 v=0
154560 On ch=1 n=e6 v=0
154560 On ch=1 n=b5 v=0
154560 On ch=1 n=g#5 v=0
154560 On ch=1 n=e5 v=114
154560 On ch=1 n=g#5 v=114
154560 On ch=1 n=b5 v=114
154560 On ch=1 n=e6 v=114
154800 On ch=1 n=e6 v=0
154800 On ch=1 n=b5 v=0
154800 On ch=1 n=g#5 v=0
154800 On ch=1 n=e5 v=0
154800 On ch=1 n=g#5 v=114
154800 On ch=1 n=b5 v=114
154800 On ch=1 n=e6 v=114
154800 On ch=1 n=g#6 v=114
155040 On ch=1 n=g#6 v=0
155040 On ch=1 n=e6 v=0
155040 On ch=1 n=b5 v=0
155040 On ch=1 n=g#5 v=0
155040 On ch=1 n=b5 v=114
155040 On ch=1 n=e6 v=114
155040 On ch=1 n=g#6 v=114
155040 On ch=1 n=b6 v=114
155280 On ch=1 n=b6 v=0
155280 On ch=1 n=g#6 v=0
155280 On ch=1 n=e6 v=0
155280 On ch=1 n=b5 v=0
155280 On ch=1 n=c#6 v=114
155280 On ch=1 n=e6 v=114
155280 On ch=1 n=g#6 v=114
155280 On ch=1 n=c#7 v=114
155520 On ch=1 n=c#7 v=0
155520 On ch=1 n=g#6 v=0
155520 On ch=1 n=e6 v=0
155520 On ch=1 n=c#6 v=0
155520 On ch=1 n=b5 v=114
155520 On ch=1 n=e6 v=114
155520 On ch=1 n=g#6 v=114
155520 On ch=1 n=b6 v=114
155760 On ch=1 n=b6 v=0
155760 On ch=1 n=g#6 v=0
155760 On ch=1 n=e6 v=0
155760 On ch=1 n=b5 v=0
155760 On ch=1 n=g#5 v=114
155760 On ch=1 n=b5 v=114
155760 On ch=1 n=e6 v=114
155760 On ch=1 n=g#6 v=114
156000 On ch=1 n=g#6 v=0
156000 On ch=1 n=e6 v=0
156000 On ch=1 n=b5 v=0
156000 On ch=1 n=g#5 v=0
156000 On ch=1 n=e5 v=114
156000 On ch=1 n=g#5 v=114
156000 On ch=1 n=b5 v=114
156000 On ch=1 n=e6 v=114
156240 On ch=1 n=e6 v=0
156240 On ch=1 n=b5 v=0
156240 On ch=1 n=g#5 v=0
156240 On ch=1 n=e5 v=0
156240 On ch=1 n=g#5 v=114
156240 On ch=1 n=b5 v=114
156240 On ch=1 n=e6 v=114
156240 On ch=1 n=g#6 v=114
156480 On ch=1 n=g#6 v=0
156480 On ch=1 n=e6 v=0
156480 On ch=1 n=b5 v=0
156480 On ch=1 n=g#5 v=0
156480 On ch=1 n=b5 v=114
156480 On ch=1 n=e6 v=114
156480 On ch=1 n=g#6 v=114
156480 On ch=1 n=b6 v=114
156720 On ch=1 n=b6 v=0
156720 On ch=1 n=g#6 v=0
156720 On ch=1 n=e6 v=0
156720 On ch=1 n=b5 v=0
156720 On ch=1 n=c#6 v=114
156720 On ch=1 n=e6 v=114
156720 On ch=1 n=g#6 v=114
156720 On ch=1 n=c#7 v=114
156960 On ch=1 n=c#7 v=0
156960 On ch=1 n=g#6 v=0
156960 On ch=1 n=e6 v=0
156960 On ch=1 n=c#6 v=0
156960 On ch=1 n=e6 v=114
156960 On ch=1 n=g#6 v=114
156960 On ch=1 n=b6 v=114
156960 On ch=1 n=e7 v=114
157200 On ch=1 n=e7 v=0
157200 On ch=1 n=b6 v=0
157200 On ch=1 n=g#6 v=0
157200 On ch=1 n=e6 v=0
157200 On ch=1 n=g#6 v=114
157200 On ch=1 n=b6 v=114
157200 On ch=1 n=e7 v=114
157200 On ch=1 n=g#7 v=114
157440 On ch=1 n=g#7 v=0
157440 On ch=1 n=e7 v=0
157440 On ch=1 n=b6 v=0
157440 On ch=1 n=g#6 v=0
157440 On ch=1 n=b6 v=114
157440 On ch=1 n=e7 v=114
157440 On ch=1 n=g#7 v=114
157440 On ch=1 n=b7 v=114
157680 On ch=1 n=b7 v=0
157680 On ch=1 n=g#7 v=0
157680 On ch=1 n=e7 v=0
157680 On ch=1 n=b6 v=0
157680 On ch=1 n=c#7 v=114
157680 On ch=1 n=e7 v=114
157680 On ch=1 n=g#7 v=114
157680 On ch=1 n=c#8 v=114
157920 On ch=1 n=c#8 v=0
157920 On ch=1 n=g#7 v=0
157920 On ch=1 n=e7 v=0
157920 On ch=1 n=c#7 v=0
157927 On ch=1 n=d#7 v=114
157927 On ch=1 n=f#7 v=114
157927 On ch=1 n=b7 v=114
157927 On ch=1 n=d#8 v=114
158880 On ch=1 n=d#8 v=0
158880 On ch=1 n=b7 v=0
158880 On ch=1 n=f#7 v=0
158880 On ch=1 n=d#7 v=0
158880 On ch=1 n=b6 v=127
158880 On ch=1 n=d#7 v=127
158880 On ch=1 n=f#7 v=127
158880 On ch=1 n=b7 v=127
159360 On ch=1 n=b7 v=0
159360 On ch=1 n=f#7 v=0
159360 On ch=1 n=d#7 v=0
159360 On ch=1 n=b6 v=0
159720 On ch=1 n=d#5 v=114
159720 On ch=1 n=f#5 v=114
159720 On ch=1 n=b5 v=114
159720 On ch=1 n=d#6 v=114
159840 On ch=1 n=d#6 v=0
159840 On ch=1 n=b5 v=0
159840 On ch=1 n=f#5 v=0
159840 On ch=1 n=d#5 v=0
159840 On ch=1 n=d#5 v=127
159840 On ch=1 n=f#5 v=127
159840 On ch=1 n=b5 v=127
159840 On ch=1 n=d#6 v=127
160800 On ch=1 n=d#6 v=0
160800 On ch=1 n=b5 v=0
160800 On ch=1 n=f#5 v=0
160800 On ch=1 n=d#5 v=0
160800 On ch=1 n=b4 v=114
160800 On ch=1 n=d#5 v=114
160800 On ch=1 n=f#5 v=114
160800 On ch=1 n=b5 v=114
161280 On ch=1 n=b5 v=0
161280 On ch=1 n=f#5 v=0
161280 On ch=1 n=d#5 v=0
161280 On ch=1 n=b4 v=0
162000 On ch=1 n=f#5 v=114
162000 On ch=1 n=a5 v=114
162000 On ch=1 n=d6 v=114
162000 On ch=1 n=f#6 v=114
162240 On ch=1 n=f#6 v=0
162240 On ch=1 n=d6 v=0
162240 On ch=1 n=a5 v=0
162240 On ch=1 n=f#5 v=0
162240 On ch=1 n=d5 v=114
162240 On ch=1 n=f#5 v=114
162240 On ch=1 n=a5 v=114
162240 On ch=1 n=d6 v=114
162480 On ch=1 n=d6 v=0
162480 On ch=1 n=a5 v=0
162480 On ch=1 n=f#5 v=0
162480 On ch=1 n=d5 v=0
162480 On ch=1 n=f#5 v=114
162480 On ch=1 n=a5 v=114
162480 On ch=1 n=d6 v=114
162480 On ch=1 n=f#6 v=114
162720 On ch=1 n=f#6 v=0
162720 On ch=1 n=d6 v=0
162720 On ch=1 n=a5 v=0
162720 On ch=1 n=f#5 v=0
162720 On ch=1 n=a5 v=114
162720 On ch=1 n=d6 v=114
162720 On ch=1 n=f#6 v=114
162720 On ch=1 n=a6 v=114
162960 On ch=1 n=a6 v=0
162960 On ch=1 n=f#6 v=0
162960 On ch=1 n=d6 v=0
162960 On ch=1 n=a5 v=0
162960 On ch=1 n=b5 v=114
162960 On ch=1 n=d6 v=114
162960 On ch=1 n=f#6 v=114
162960 On ch=1 n=b6 v=114
163200 On ch=1 n=b6 v=0
163200 On ch=1 n=f#6 v=0
163200 On ch=1 n=d6 v=0
163200 On ch=1 n=b5 v=0
163200 On ch=1 n=a5 v=114
163200 On ch=1 n=d6 v=114
163200 On ch=1 n=f#6 v=114
163200 On ch=1 n=a6 v=114
163440 On ch=1 n=a6 v=0
163440 On ch=1 n=f#6 v=0
163440 On ch=1 n=d6 v=0
163440 On ch=1 n=a5 v=0
163440 On ch=1 n=f#5 v=114
163440 On ch=1 n=a5 v=114
163440 On ch=1 n=d6 v=114
163440 On ch=1 n=f#6 v=114
163680 On ch=1 n=f#6 v=0
163680 On ch=1 n=d6 v=0
163680 On ch=1 n=a5 v=0
163680 On ch=1 n=f#5 v=0
163680 On ch=1 n=d5 v=114
163680 On ch=1 n=f#5 v=114
163680 On ch=1 n=a5 v=114
163680 On ch=1 n=d6 v=114
163920 On ch=1 n=d6 v=0
163920 On ch=1 n=a5 v=0
163920 On ch=1 n=f#5 v=0
163920 On ch=1 n=d5 v=0
163920 On ch=1 n=f#5 v=114
163920 On ch=1 n=a5 v=114
163920 On ch=1 n=d6 v=114
163920 On ch=1 n=f#6 v=114
164160 On ch=1 n=f#6 v=0
164160 On ch=1 n=d6 v=0
164160 On ch=1 n=a5 v=0
164160 On ch=1 n=f#5 v=0
164160 On ch=1 n=a5 v=114
164160 On ch=1 n=d6 v=114
164160 On ch=1 n=f#6 v=114
164160 On ch=1 n=a6 v=114
164400 On ch=1 n=a6 v=0
164400 On ch=1 n=f#6 v=0
164400 On ch=1 n=d6 v=0
164400 On ch=1 n=a5 v=0
164400 On ch=1 n=b5 v=114
164400 On ch=1 n=d6 v=114
164400 On ch=1 n=f#6 v=114
164400 On ch=1 n=b6 v=114
164640 On ch=1 n=b6 v=0
164640 On ch=1 n=f#6 v=0
164640 On ch=1 n=d6 v=0
164640 On ch=1 n=b5 v=0
164640 On ch=1 n=d6 v=114
164640 On ch=1 n=f#6 v=114
164640 On ch=1 n=a6 v=114
164640 On ch=1 n=d7 v=114
164880 On ch=1 n=d7 v=0
164880 On ch=1 n=a6 v=0
164880 On ch=1 n=f#6 v=0
164880 On ch=1 n=d6 v=0
164880 On ch=1 n=f#6 v=114
164880 On ch=1 n=a6 v=114
164880 On ch=1 n=d7 v=114
164880 On ch=1 n=f#7 v=114
165120 On ch=1 n=f#7 v=0
165120 On ch=1 n=d7 v=0
165120 On ch=1 n=a6 v=0
165120 On ch=1 n=f#6 v=0
165120 On ch=1 n=a6 v=114
165120 On ch=1 n=d7 v=114
165120 On ch=1 n=f#7 v=114
165120 On ch=1 n=a7 v=114
165360 On ch=1 n=a7 v=0
165360 On ch=1 n=f#7 v=0
165360 On ch=1 n=d7 v=0
165360 On ch=1 n=a6 v=0
165360 On ch=1 n=b6 v=114
165360 On ch=1 n=d7 v=114
165360 On ch=1 n=f#7 v=114
165360 On ch=1 n=b7 v=114
165600 On ch=1 n=b7 v=0
165600 On ch=1 n=f#7 v=0
165600 On ch=1 n=d7 v=0
165600 On ch=1 n=b6 v=0
165600 On ch=1 n=c#7 v=114
165600 On ch=1 n=e7 v=114
165600 On ch=1 n=a7 v=114
165600 On ch=1 n=c#8 v=114
166560 On ch=1 n=c#8 v=0
166560 On ch=1 n=a7 v=0
166560 On ch=1 n=e7 v=0
166560 On ch=1 n=c#7 v=0
166560 On ch=1 n=a6 v=114
166560 On ch=1 n=c#7 v=114
166560 On ch=1 n=e7 v=114
166560 On ch=1 n=a7 v=114
167040 On ch=1 n=a7 v=0
167040 On ch=1 n=e7 v=0
167040 On ch=1 n=c#7 v=0
167040 On ch=1 n=a6 v=0
167400 On ch=1 n=c#5 v=114
167400 On ch=1 n=e5 v=114
167400 On ch=1 n=a5 v=114
167400 On ch=1 n=c#6 v=114
167520 On ch=1 n=c#6 v=0
167520 On ch=1 n=a5 v=0
167520 On ch=1 n=e5 v=0
167520 On ch=1 n=c#5 v=0
167520 On ch=1 n=c#5 v=114
167520 On ch=1 n=e5 v=114
167520 On ch=1 n=a5 v=114
167520 On ch=1 n=c#6 v=114
168480 On ch=1 n=c#6 v=0
168480 On ch=1 n=a5 v=0
168480 On ch=1 n=e5 v=0
168480 On ch=1 n=c#5 v=0
168480 On ch=1 n=a4 v=114
168480 On ch=1 n=c#5 v=114
168480 On ch=1 n=e5 v=114
168480 On ch=1 n=a5 v=114
168960 On ch=1 n=a5 v=0
168960 On ch=1 n=e5 v=0
168960 On ch=1 n=c#5 v=0
168960 On ch=1 n=a4 v=0
169680 On ch=1 n=e5 v=114
169680 On ch=1 n=g5 v=114
169680 On ch=1 n=c6 v=114
169680 On ch=1 n=e6 v=114
169920 On ch=1 n=e6 v=0
169920 On ch=1 n=c6 v=0
169920 On ch=1 n=g5 v=0
169920 On ch=1 n=e5 v=0
169920 On ch=1 n=c5 v=114
169920 On ch=1 n=e5 v=114
169920 On ch=1 n=g5 v=114
169920 On ch=1 n=c6 v=114
170160 On ch=1 n=c6 v=0
170160 On ch=1 n=g5 v=0
170160 On ch=1 n=e5 v=0
170160 On ch=1 n=c5 v=0
170160 On ch=1 n=e5 v=114
170160 On ch=1 n=g5 v=114
170160 On ch=1 n=c6 v=114
170160 On ch=1 n=e6 v=114
170400 On ch=1 n=e6 v=0
170400 On ch=1 n=c6 v=0
170400 On ch=1 n=g5 v=0
170400 On ch=1 n=e5 v=0
170400 On ch=1 n=g5 v=114
170400 On ch=1 n=c6 v=114
170400 On ch=1 n=e6 v=114
170400 On ch=1 n=g6 v=114
170640 On ch=1 n=g6 v=0
170640 On ch=1 n=e6 v=0
170640 On ch=1 n=c6 v=0
170640 On ch=1 n=g5 v=0
170640 On ch=1 n=a5 v=114
170640 On ch=1 n=c6 v=114
170640 On ch=1 n=e6 v=114
170640 On ch=1 n=a6 v=114
170880 On ch=1 n=a6 v=0
170880 On ch=1 n=e6 v=0
170880 On ch=1 n=c6 v=0
170880 On ch=1 n=a5 v=0
170880 On ch=1 n=g5 v=114
170880 On ch=1 n=c6 v=114
170880 On ch=1 n=e6 v=114
170880 On ch=1 n=g6 v=114
171120 On ch=1 n=g6 v=0
171120 On ch=1 n=e6 v=0
171120 On ch=1 n=c6 v=0
171120 On ch=1 n=g5 v=0
171120 On ch=1 n=e5 v=114
171120 On ch=1 n=g5 v=114
171120 On ch=1 n=c6 v=114
171120 On ch=1 n=e6 v=114
171360 On ch=1 n=e6 v=0
171360 On ch=1 n=c6 v=0
171360 On ch=1 n=g5 v=0
171360 On ch=1 n=e5 v=0
171360 On ch=1 n=c5 v=114
171360 On ch=1 n=e5 v=114
171360 On ch=1 n=g5 v=114
171360 On ch=1 n=c6 v=114
171600 On ch=1 n=c6 v=0
171600 On ch=1 n=g5 v=0
171600 On ch=1 n=e5 v=0
171600 On ch=1 n=c5 v=0
171600 On ch=1 n=e5 v=114
171600 On ch=1 n=g5 v=114
171600 On ch=1 n=c6 v=114
171600 On ch=1 n=e6 v=114
171840 On ch=1 n=e6 v=0
171840 On ch=1 n=c6 v=0
171840 On ch=1 n=g5 v=0
171840 On ch=1 n=e5 v=0
171840 On ch=1 n=g5 v=114
171840 On ch=1 n=c6 v=114
171840 On ch=1 n=e6 v=114
171840 On ch=1 n=g6 v=114
172080 On ch=1 n=g6 v=0
172080 On ch=1 n=e6 v=0
172080 On ch=1 n=c6 v=0
172080 On ch=1 n=g5 v=0
172080 On ch=1 n=b5 v=114
172080 On ch=1 n=e6 v=114
172080 On ch=1 n=g6 v=114
172080 On ch=1 n=b6 v=114
172320 On ch=1 n=b6 v=0
172320 On ch=1 n=g6 v=0
172320 On ch=1 n=e6 v=0
172320 On ch=1 n=b5 v=0
172320 On ch=1 n=c6 v=114
172320 On ch=1 n=e6 v=114
172320 On ch=1 n=g6 v=114
172320 On ch=1 n=c7 v=114
172560 On ch=1 n=c7 v=0
172560 On ch=1 n=g6 v=0
172560 On ch=1 n=e6 v=0
172560 On ch=1 n=c6 v=0
172560 On ch=1 n=e6 v=114
172560 On ch=1 n=g6 v=114
172560 On ch=1 n=c7 v=114
172560 On ch=1 n=e7 v=114
172800 On ch=1 n=e7 v=0
172800 On ch=1 n=c7 v=0
172800 On ch=1 n=g6 v=0
172800 On ch=1 n=e6 v=0
172800 On ch=1 n=g6 v=114
172800 On ch=1 n=c7 v=114
172800 On ch=1 n=e7 v=114
172800 On ch=1 n=g7 v=114
173040 On ch=1 n=g7 v=0
173040 On ch=1 n=e7 v=0
173040 On ch=1 n=c7 v=0
173040 On ch=1 n=g6 v=0
173040 On ch=1 n=c7 v=114
173040 On ch=1 n=e7 v=114
173040 On ch=1 n=g7 v=114
173040 On ch=1 n=c8 v=114
173280 On ch=1 n=c8 v=0
173280 On ch=1 n=g7 v=0
173280 On ch=1 n=e7 v=0
173280 On ch=1 n=c7 v=0
173287 On ch=1 n=c7 v=114
173287 On ch=1 n=f7 v=114
173287 On ch=1 n=g#7 v=114
173287 On ch=1 n=c8 v=114
174240 On ch=1 n=c8 v=0
174240 On ch=1 n=g#7 v=0
174240 On ch=1 n=f7 v=0
174240 On ch=1 n=c7 v=0
174240 On ch=1 n=g#6 v=114
174240 On ch=1 n=f7 v=114
174240 On ch=1 n=g#7 v=114
174273 On ch=1 n=g#6 v=0
174304 On ch=1 n=f7 v=0
174336 On ch=1 n=g#7 v=0
175080 On ch=1 n=c5 v=114
175080 On ch=1 n=f#5 v=114
175080 On ch=1 n=g#5 v=114
175080 On ch=1 n=c6 v=114
175200 On ch=1 n=c6 v=0
175200 On ch=1 n=g#5 v=0
175200 On ch=1 n=f#5 v=0
175200 On ch=1 n=c5 v=0
175200 On ch=1 n=c#5 v=127
175200 On ch=1 n=f5 v=127
175200 On ch=1 n=g#5 v=127
175200 On ch=1 n=c#6 v=127
176160 On ch=1 n=c#6 v=0
176160 On ch=1 n=g#5 v=0
176160 On ch=1 n=f5 v=0
176160 On ch=1 n=c#5 v=0
176160 On ch=1 n=g#4 v=114
176160 On ch=1 n=c#5 v=114
176160 On ch=1 n=f5 v=114
176160 On ch=1 n=g#5 v=114
176183 On ch=1 n=g#4 v=0
176207 On ch=1 n=c#5 v=0
176232 On ch=1 n=f5 v=0
176256 On ch=1 n=g#5 v=0
177000 On ch=1 n=c#7 v=114
177000 On ch=1 n=c#8 v=114
177120 On ch=1 n=c#8 v=0
177120 On ch=1 n=c#7 v=0
177127 On ch=1 n=c#7 v=114
177127 On ch=1 n=f#7 v=114
177127 On ch=1 n=a7 v=114
177127 On ch=1 n=c#8 v=114
178080 On ch=1 n=c#8 v=0
178080 On ch=1 n=a7 v=0
178080 On ch=1 n=f#7 v=0
178080 On ch=1 n=c#7 v=0
178080 On ch=1 n=a6 v=114
178080 On ch=1 n=c#7 v=114
178080 On ch=1 n=f#7 v=114
178080 On ch=1 n=a7 v=114
178320 On ch=1 n=a7 v=0
178320 On ch=1 n=f#7 v=0
178320 On ch=1 n=c#7 v=0
178320 On ch=1 n=a6 v=0
178920 On ch=1 n=c#5 v=114
178920 On ch=1 n=f#5 v=114
178920 On ch=1 n=a5 v=114
178920 On ch=1 n=c#6 v=114
179040 On ch=1 n=c#6 v=0
179040 On ch=1 n=a5 v=0
179040 On ch=1 n=f#5 v=0
179040 On ch=1 n=c#5 v=0
179047 On ch=1 n=d5 v=114
179047 On ch=1 n=f#5 v=114
179047 On ch=1 n=a5 v=114
179047 On ch=1 n=d6 v=114
180000 On ch=1 n=d6 v=0
180000 On ch=1 n=a5 v=0
180000 On ch=1 n=f#5 v=0
180000 On ch=1 n=d5 v=0
180000 On ch=1 n=a4 v=114
180000 On ch=1 n=d5 v=114
180000 On ch=1 n=f#5 v=114
180000 On ch=1 n=a5 v=114
180240 On ch=1 n=a5 v=0
180240 On ch=1 n=f#5 v=0
180240 On ch=1 n=d5 v=0
180240 On ch=1 n=a4 v=0
180840 On ch=1 n=d6 v=114
180840 On ch=1 n=d7 v=114
180960 On ch=1 n=d7 v=0
180960 On ch=1 n=d6 v=0
180967 On ch=1 n=d6 v=114
180967 On ch=1 n=g6 v=114
180967 On ch=1 n=a#6 v=114
180967 On ch=1 n=d7 v=114
181680 On ch=1 n=d7 v=0
181680 On ch=1 n=a#6 v=0
181680 On ch=1 n=g6 v=0
181680 On ch=1 n=d6 v=0
181920 On ch=1 n=d#5 v=127
181920 On ch=1 n=g5 v=127
181920 On ch=1 n=a#5 v=127
181920 On ch=1 n=d#6 v=127
182640 On ch=1 n=d#6 v=0
182640 On ch=1 n=a#5 v=0
182640 On ch=1 n=g5 v=0
182640 On ch=1 n=d#5 v=0
182880 On ch=1 n=f6 v=114
182880 On ch=1 n=g6 v=114
182880 On ch=1 n=a#6 v=114
182880 On ch=1 n=f7 v=114
184800 On ch=1 n=f7 v=0
184800 On ch=1 n=a#6 v=0
184800 On ch=1 n=g6 v=0
184800 On ch=1 n=f6 v=0
184920 On ch=1 n=e5 v=114
184920 On ch=1 n=e6 v=114
185040 On ch=1 n=e6 v=0
185040 On ch=1 n=e5 v=0
185160 On ch=1 n=d#5 v=114
185160 On ch=1 n=d#6 v=114
185280 On ch=1 n=d#6 v=0
185280 On ch=1 n=d#5 v=0
185400 On ch=1 n=d5 v=114
185400 On ch=1 n=d6 v=114
185520 On ch=1 n=d6 v=0
185520 On ch=1 n=d5 v=0
185640 On ch=1 n=c#5 v=114
185640 On ch=1 n=c#6 v=114
185760 On ch=1 n=c#6 v=0
185760 On ch=1 n=c#5 v=0
185880 On ch=1 n=a#4 v=114
185880 On ch=1 n=a#5 v=114
186000 On ch=1 n=a#5 v=0
186000 On ch=1 n=a#4 v=0
186120 On ch=1 n=a4 v=114
186120 On ch=1 n=a5 v=114
186240 On ch=1 n=a5 v=0
186240 On ch=1 n=a4 v=0
186360 On ch=1 n=g#4 v=114
186360 On ch=1 n=g#5 v=114
186480 On ch=1 n=g#5 v=0
186480 On ch=1 n=g#4 v=0
186600 On ch=1 n=g4 v=114
186600 On ch=1 n=g5 v=114
186720 On ch=1 n=g5 v=0
186720 On ch=1 n=g4 v=0
188640 On ch=1 n=g#6 v=114
188640 On ch=1 n=g#7 v=114
188880 On ch=1 n=g#7 v=0
188880 On ch=1 n=g#6 v=0
188880 On ch=1 n=f5 v=114
188880 On ch=1 n=g#5 v=114
188880 On ch=1 n=c#6 v=114
188880 On ch=1 n=f6 v=114
189120 On ch=1 n=f6 v=0
189120 On ch=1 n=c#6 v=0
189120 On ch=1 n=g#5 v=0
189120 On ch=1 n=f5 v=0
189120 On ch=1 n=f5 v=114
189120 On ch=1 n=g#5 v=114
189120 On ch=1 n=c#6 v=114
189120 On ch=1 n=f6 v=114
189360 On ch=1 n=f6 v=0
189360 On ch=1 n=c#6 v=0
189360 On ch=1 n=g#5 v=0
189360 On ch=1 n=f5 v=0
189360 On ch=1 n=f5 v=114
189360 On ch=1 n=g#5 v=114
189360 On ch=1 n=c#6 v=114
189360 On ch=1 n=f6 v=114
189600 On ch=1 n=f6 v=0
189600 On ch=1 n=c#6 v=0
189600 On ch=1 n=g#5 v=0
189600 On ch=1 n=f5 v=0
189600 On ch=1 n=f5 v=114
189600 On ch=1 n=g#5 v=114
189600 On ch=1 n=c#6 v=114
189600 On ch=1 n=f6 v=114
189840 On ch=1 n=f6 v=0
189840 On ch=1 n=c#6 v=0
189840 On ch=1 n=g#5 v=0
189840 On ch=1 n=f5 v=0
189840 On ch=1 n=f5 v=114
189840 On ch=1 n=g#5 v=114
189840 On ch=1 n=c#6 v=114
189840 On ch=1 n=f6 v=114
190080 On ch=1 n=f6 v=0
190080 On ch=1 n=c#6 v=0
190080 On ch=1 n=g#5 v=0
190080 On ch=1 n=f5 v=0
190080 On ch=1 n=g#6 v=114
190080 On ch=1 n=g#7 v=114
190320 On ch=1 n=g#7 v=0
190320 On ch=1 n=g#6 v=0
190320 On ch=1 n=f5 v=114
190320 On ch=1 n=g#5 v=114
190320 On ch=1 n=c#6 v=114
190320 On ch=1 n=f6 v=114
190560 On ch=1 n=f6 v=0
190560 On ch=1 n=c#6 v=0
190560 On ch=1 n=g#5 v=0
190560 On ch=1 n=f5 v=0
190560 On ch=1 n=f5 v=114
190560 On ch=1 n=g#5 v=114
190560 On ch=1 n=c#6 v=114
190560 On ch=1 n=f6 v=114
190800 On ch=1 n=f6 v=0
190800 On ch=1 n=c#6 v=0
190800 On ch=1 n=g#5 v=0
190800 On ch=1 n=f5 v=0
190800 On ch=1 n=f5 v=114
190800 On ch=1 n=g#5 v=114
190800 On ch=1 n=c#6 v=114
190800 On ch=1 n=f6 v=114
191040 On ch=1 n=f6 v=0
191040 On ch=1 n=c#6 v=0
191040 On ch=1 n=g#5 v=0
191040 On ch=1 n=f5 v=0
191040 On ch=1 n=f5 v=114
191040 On ch=1 n=g#5 v=114
191040 On ch=1 n=c#6 v=114
191040 On ch=1 n=f6 v=114
191280 On ch=1 n=f6 v=0
191280 On ch=1 n=c#6 v=0
191280 On ch=1 n=g#5 v=0
191280 On ch=1 n=f5 v=0
191280 On ch=1 n=f5 v=114
191280 On ch=1 n=g#5 v=114
191280 On ch=1 n=c#6 v=114
191280 On ch=1 n=f6 v=114
191520 On ch=1 n=f6 v=0
191520 On ch=1 n=c#6 v=0
191520 On ch=1 n=g#5 v=0
191520 On ch=1 n=f5 v=0
191520 On ch=1 n=g#6 v=114
191520 On ch=1 n=g#7 v=114
191760 On ch=1 n=g#7 v=0
191760 On ch=1 n=g#6 v=0
191760 On ch=1 n=d#5 v=114
191760 On ch=1 n=g#5 v=114
191760 On ch=1 n=c6 v=114
191760 On ch=1 n=d#6 v=114
192000 On ch=1 n=d#6 v=0
192000 On ch=1 n=c6 v=0
192000 On ch=1 n=g#5 v=0
192000 On ch=1 n=d#5 v=0
192000 On ch=1 n=d#5 v=114
192000 On ch=1 n=g#5 v=114
192000 On ch=1 n=c6 v=114
192000 On ch=1 n=d#6 v=114
192240 On ch=1 n=d#6 v=0
192240 On ch=1 n=c6 v=0
192240 On ch=1 n=g#5 v=0
192240 On ch=1 n=d#5 v=0
192240 On ch=1 n=d#5 v=114
192240 On ch=1 n=g#5 v=114
192240 On ch=1 n=c6 v=114
192240 On ch=1 n=d#6 v=114
192480 On ch=1 n=d#6 v=0
192480 On ch=1 n=c6 v=0
192480 On ch=1 n=g#5 v=0
192480 On ch=1 n=d#5 v=0
192480 On ch=1 n=d#5 v=114
192480 On ch=1 n=g#5 v=114
192480 On ch=1 n=c6 v=114
192480 On ch=1 n=d#6 v=114
192720 On ch=1 n=d#6 v=0
192720 On ch=1 n=c6 v=0
192720 On ch=1 n=g#5 v=0
192720 On ch=1 n=d#5 v=0
192720 On ch=1 n=d#5 v=114
192720 On ch=1 n=g#5 v=114
192720 On ch=1 n=c6 v=114
192720 On ch=1 n=d#6 v=114
192960 On ch=1 n=d#6 v=0
192960 On ch=1 n=c6 v=0
192960 On ch=1 n=g#5 v=0
192960 On ch=1 n=d#5 v=0
192960 On ch=1 n=d#5 v=114
192960 On ch=1 n=g#5 v=114
192960 On ch=1 n=c6 v=114
192960 On ch=1 n=d#6 v=114
193200 On ch=1 n=d#6 v=0
193200 On ch=1 n=c6 v=0
193200 On ch=1 n=g#5 v=0
193200 On ch=1 n=d#5 v=0
193200 On ch=1 n=d#5 v=114
193200 On ch=1 n=g#5 v=114
193200 On ch=1 n=c6 v=114
193200 On ch=1 n=d#6 v=114
193440 On ch=1 n=d#6 v=0
193440 On ch=1 n=c6 v=0
193440 On ch=1 n=g#5 v=0
193440 On ch=1 n=d#5 v=0
193440 On ch=1 n=d#5 v=114
193440 On ch=1 n=g#5 v=114
193440 On ch=1 n=c6 v=114
193440 On ch=1 n=d#6 v=114
193680 On ch=1 n=d#6 v=0
193680 On ch=1 n=c6 v=0
193680 On ch=1 n=g#5 v=0
193680 On ch=1 n=d#5 v=0
193680 On ch=1 n=g#6 v=114
193680 On ch=1 n=g#7 v=114
193920 On ch=1 n=g#7 v=0
193920 On ch=1 n=g#6 v=0
193920 On ch=1 n=d#5 v=114
193920 On ch=1 n=g#5 v=114
193920 On ch=1 n=c6 v=114
193920 On ch=1 n=d#6 v=114
194160 On ch=1 n=d#6 v=0
194160 On ch=1 n=c6 v=0
194160 On ch=1 n=g#5 v=0
194160 On ch=1 n=d#5 v=0
194160 On ch=1 n=d#5 v=114
194160 On ch=1 n=g#5 v=114
194160 On ch=1 n=c6 v=114
194160 On ch=1 n=d#6 v=114
194400 On ch=1 n=d#6 v=0
194400 On ch=1 n=c6 v=0
194400 On ch=1 n=g#5 v=0
194400 On ch=1 n=d#5 v=0
194400 On ch=1 n=g#6 v=114
194400 On ch=1 n=g#7 v=114
194640 On ch=1 n=g#7 v=0
194640 On ch=1 n=g#6 v=0
194640 On ch=1 n=f#5 v=114
194640 On ch=1 n=a#5 v=114
194640 On ch=1 n=c#6 v=114
194640 On ch=1 n=f#6 v=114
194880 On ch=1 n=f#6 v=0
194880 On ch=1 n=c#6 v=0
194880 On ch=1 n=a#5 v=0
194880 On ch=1 n=f#5 v=0
194880 On ch=1 n=f#5 v=114
194880 On ch=1 n=a#5 v=114
194880 On ch=1 n=c#6 v=114
194880 On ch=1 n=f#6 v=114
195120 On ch=1 n=f#6 v=0
195120 On ch=1 n=c#6 v=0
195120 On ch=1 n=a#5 v=0
195120 On ch=1 n=f#5 v=0
195120 On ch=1 n=f#5 v=114
195120 On ch=1 n=a#5 v=114
195120 On ch=1 n=c#6 v=114
195120 On ch=1 n=f#6 v=114
195360 On ch=1 n=f#6 v=0
195360 On ch=1 n=c#6 v=0
195360 On ch=1 n=a#5 v=0
195360 On ch=1 n=f#5 v=0
195360 On ch=1 n=f#5 v=114
195360 On ch=1 n=a#5 v=114
195360 On ch=1 n=c#6 v=114
195360 On ch=1 n=f#6 v=114
195600 On ch=1 n=f#6 v=0
195600 On ch=1 n=c#6 v=0
195600 On ch=1 n=a#5 v=0
195600 On ch=1 n=f#5 v=0
195600 On ch=1 n=f#5 v=114
195600 On ch=1 n=a#5 v=114
195600 On ch=1 n=c#6 v=114
195600 On ch=1 n=f#6 v=114
195840 On ch=1 n=f#6 v=0
195840 On ch=1 n=c#6 v=0
195840 On ch=1 n=a#5 v=0
195840 On ch=1 n=f#5 v=0
195840 On ch=1 n=g#6 v=114
195840 On ch=1 n=g#7 v=114
196080 On ch=1 n=g#7 v=0
196080 On ch=1 n=g#6 v=0
196080 On ch=1 n=a#5 v=114
196080 On ch=1 n=d#6 v=114
196080 On ch=1 n=f#6 v=114
196080 On ch=1 n=a#6 v=114
196320 On ch=1 n=a#6 v=0
196320 On ch=1 n=f#6 v=0
196320 On ch=1 n=d#6 v=0
196320 On ch=1 n=a#5 v=0
196320 On ch=1 n=a#5 v=114
196320 On ch=1 n=d#6 v=114
196320 On ch=1 n=f#6 v=114
196320 On ch=1 n=a#6 v=114
196560 On ch=1 n=a#6 v=0
196560 On ch=1 n=f#6 v=0
196560 On ch=1 n=d#6 v=0
196560 On ch=1 n=a#5 v=0
196560 On ch=1 n=a#5 v=114
196560 On ch=1 n=d#6 v=114
196560 On ch=1 n=f#6 v=114
196560 On ch=1 n=a#6 v=114
196800 On ch=1 n=a#6 v=0
196800 On ch=1 n=f#6 v=0
196800 On ch=1 n=d#6 v=0
196800 On ch=1 n=a#5 v=0
196800 On ch=1 n=a#5 v=114
196800 On ch=1 n=d#6 v=114
196800 On ch=1 n=f#6 v=114
196800 On ch=1 n=a#6 v=114
197040 On ch=1 n=a#6 v=0
197040 On ch=1 n=f#6 v=0
197040 On ch=1 n=d#6 v=0
197040 On ch=1 n=a#5 v=0
197040 On ch=1 n=g#5 v=127
197040 On ch=1 n=d#6 v=127
197040 On ch=1 n=f#6 v=127
197040 On ch=1 n=g#6 v=127
197220 On ch=1 n=g#6 v=114
197220 On ch=1 n=g#7 v=114
197280 On ch=1 n=g#7 v=0
197280 On ch=1 n=g#6 v=0
197280 On ch=1 n=g#6 v=0
197280 On ch=1 n=f#6 v=0
197280 On ch=1 n=d#6 v=0
197280 On ch=1 n=g#5 v=0
197280 On ch=1 n=g#6 v=114
197280 On ch=1 n=g#7 v=114
197520 On ch=1 n=g#7 v=0
197520 On ch=1 n=g#6 v=0
197520 On ch=1 n=f5 v=114
197520 On ch=1 n=g#5 v=114
197520 On ch=1 n=c#6 v=114
197520 On ch=1 n=f6 v=114
197760 On ch=1 n=f6 v=0
197760 On ch=1 n=c#6 v=0
197760 On ch=1 n=g#5 v=0
197760 On ch=1 n=f5 v=0
197760 On ch=1 n=f5 v=114
197760 On ch=1 n=g#5 v=114
197760 On ch=1 n=c#6 v=114
197760 On ch=1 n=f6 v=114
198000 On ch=1 n=f6 v=0
198000 On ch=1 n=c#6 v=0
198000 On ch=1 n=g#5 v=0
198000 On ch=1 n=f5 v=0
198000 On ch=1 n=f5 v=114
198000 On ch=1 n=g#5 v=114
198000 On ch=1 n=c#6 v=114
198000 On ch=1 n=f6 v=114
198240 On ch=1 n=f6 v=0
198240 On ch=1 n=c#6 v=0
198240 On ch=1 n=g#5 v=0
198240 On ch=1 n=f5 v=0
198240 On ch=1 n=f5 v=114
198240 On ch=1 n=g#5 v=114
198240 On ch=1 n=c#6 v=114
198240 On ch=1 n=f6 v=114
198480 On ch=1 n=f6 v=0
198480 On ch=1 n=c#6 v=0
198480 On ch=1 n=g#5 v=0
198480 On ch=1 n=f5 v=0
198480 On ch=1 n=f5 v=114
198480 On ch=1 n=g#5 v=114
198480 On ch=1 n=c#6 v=114
198480 On ch=1 n=f6 v=114
198720 On ch=1 n=f6 v=0
198720 On ch=1 n=c#6 v=0
198720 On ch=1 n=g#5 v=0
198720 On ch=1 n=f5 v=0
198720 On ch=1 n=f5 v=114
198720 On ch=1 n=g#5 v=114
198720 On ch=1 n=c#6 v=114
198720 On ch=1 n=f6 v=114
198960 On ch=1 n=f6 v=0
198960 On ch=1 n=c#6 v=0
198960 On ch=1 n=g#5 v=0
198960 On ch=1 n=f5 v=0
198960 On ch=1 n=f5 v=114
198960 On ch=1 n=g#5 v=114
198960 On ch=1 n=c#6 v=114
198960 On ch=1 n=f6 v=114
199200 On ch=1 n=f6 v=0
199200 On ch=1 n=c#6 v=0
199200 On ch=1 n=g#5 v=0
199200 On ch=1 n=f5 v=0
199200 On ch=1 n=f5 v=114
199200 On ch=1 n=g#5 v=114
199200 On ch=1 n=c#6 v=114
199200 On ch=1 n=f6 v=114
199440 On ch=1 n=f6 v=0
199440 On ch=1 n=c#6 v=0
199440 On ch=1 n=g#5 v=0
199440 On ch=1 n=f5 v=0
199440 On ch=1 n=f6 v=127
199440 On ch=1 n=g#6 v=127
199440 On ch=1 n=f7 v=127
199680 On ch=1 n=f7 v=0
199680 On ch=1 n=g#6 v=0
199680 On ch=1 n=f6 v=0
199680 On ch=1 n=f5 v=114
199680 On ch=1 n=g#5 v=114
199680 On ch=1 n=f6 v=114
199920 On ch=1 n=f6 v=0
199920 On ch=1 n=g#5 v=0
199920 On ch=1 n=f5 v=0
199920 On ch=1 n=f5 v=114
199920 On ch=1 n=g#5 v=114
199920 On ch=1 n=f6 v=114
200160 On ch=1 n=f6 v=0
200160 On ch=1 n=g#5 v=0
200160 On ch=1 n=f5 v=0
200160 On ch=1 n=f6 v=127
200160 On ch=1 n=g#6 v=127
200160 On ch=1 n=f7 v=127
200400 On ch=1 n=f7 v=0
200400 On ch=1 n=g#6 v=0
200400 On ch=1 n=f6 v=0
200400 On ch=1 n=f5 v=114
200400 On ch=1 n=g#5 v=114
200400 On ch=1 n=f6 v=114
200640 On ch=1 n=f6 v=0
200640 On ch=1 n=g#5 v=0
200640 On ch=1 n=f5 v=0
200640 On ch=1 n=f5 v=114
200640 On ch=1 n=g#5 v=114
200640 On ch=1 n=f6 v=114
200880 On ch=1 n=f6 v=0
200880 On ch=1 n=g#5 v=0
200880 On ch=1 n=f5 v=0
200880 On ch=1 n=f6 v=127
200880 On ch=1 n=g#6 v=127
200880 On ch=1 n=f7 v=127
201120 On ch=1 n=f7 v=0
201120 On ch=1 n=g#6 v=0
201120 On ch=1 n=f6 v=0
201120 On ch=1 n=f5 v=114
201120 On ch=1 n=g#5 v=114
201120 On ch=1 n=f6 v=114
201360 On ch=1 n=f6 v=0
201360 On ch=1 n=g#5 v=0
201360 On ch=1 n=f5 v=0
201360 On ch=1 n=f5 v=114
201360 On ch=1 n=g#5 v=114
201360 On ch=1 n=f6 v=114
201600 On ch=1 n=f6 v=0
201600 On ch=1 n=g#5 v=0
201600 On ch=1 n=f5 v=0
201600 On ch=1 n=g#6 v=127
201600 On ch=1 n=c#7 v=127
201600 On ch=1 n=f7 v=127
201840 On ch=1 n=f7 v=0
201840 On ch=1 n=c#7 v=0
201840 On ch=1 n=g#6 v=0
201840 On ch=1 n=g#5 v=114
201840 On ch=1 n=c#6 v=114
201840 On ch=1 n=g#6 v=114
202080 On ch=1 n=g#6 v=0
202080 On ch=1 n=c#6 v=0
202080 On ch=1 n=g#5 v=0
202080 On ch=1 n=g#5 v=114
202080 On ch=1 n=c#6 v=114
202080 On ch=1 n=g#6 v=114
202320 On ch=1 n=g#6 v=0
202320 On ch=1 n=c#6 v=0
202320 On ch=1 n=g#5 v=0
202320 On ch=1 n=g6 v=127
202320 On ch=1 n=c#7 v=127
202320 On ch=1 n=g7 v=127
202560 On ch=1 n=g7 v=0
202560 On ch=1 n=c#7 v=0
202560 On ch=1 n=g6 v=0
202560 On ch=1 n=g5 v=114
202560 On ch=1 n=c#6 v=114
202560 On ch=1 n=g6 v=114
202800 On ch=1 n=g6 v=0
202800 On ch=1 n=c#6 v=0
202800 On ch=1 n=g5 v=0
202800 On ch=1 n=g5 v=114
202800 On ch=1 n=c#6 v=114
202800 On ch=1 n=g6 v=114
203040 On ch=1 n=g6 v=0
203040 On ch=1 n=c#6 v=0
203040 On ch=1 n=g5 v=0
203040 On ch=1 n=c6 v=127
203040 On ch=1 n=e6 v=127
203040 On ch=1 n=c7 v=127
203280 On ch=1 n=c7 v=0
203280 On ch=1 n=e6 v=0
203280 On ch=1 n=c6 v=0
203280 On ch=1 n=c5 v=114
203280 On ch=1 n=e5 v=114
203280 On ch=1 n=c6 v=114
203520 On ch=1 n=c6 v=0
203520 On ch=1 n=e5 v=0
203520 On ch=1 n=c5 v=0
203520 On ch=1 n=c#5 v=114
203520 On ch=1 n=f5 v=114
203520 On ch=1 n=c#6 v=114
203760 On ch=1 n=c#6 v=0
203760 On ch=1 n=f5 v=0
203760 On ch=1 n=c#5 v=0
203760 On ch=1 n=d5 v=114
203760 On ch=1 n=f#5 v=114
203760 On ch=1 n=d6 v=114
204000 On ch=1 n=d6 v=0
204000 On ch=1 n=f#5 v=0
204000 On ch=1 n=d5 v=0
204000 On ch=1 n=d#5 v=114
204000 On ch=1 n=g5 v=114
204000 On ch=1 n=d#6 v=114
204240 On ch=1 n=d#6 v=0
204240 On ch=1 n=g5 v=0
204240 On ch=1 n=d#5 v=0
204240 On ch=1 n=e5 v=114
204240 On ch=1 n=g#5 v=114
204240 On ch=1 n=e6 v=114
204480 On ch=1 n=e6 v=0
204480 On ch=1 n=g#5 v=0
204480 On ch=1 n=e5 v=0
204480 On ch=1 n=f5 v=114
204480 On ch=1 n=a5 v=114
204480 On ch=1 n=f6 v=114
204720 On ch=1 n=f6 v=0
204720 On ch=1 n=a5 v=0
204720 On ch=1 n=f5 v=0
204720 On ch=1 n=e5 v=114
204720 On ch=1 n=g#5 v=114
204720 On ch=1 n=e6 v=114
204960 On ch=1 n=e6 v=0
204960 On ch=1 n=g#5 v=0
204960 On ch=1 n=e5 v=0
204960 On ch=1 n=d#5 v=114
204960 On ch=1 n=g5 v=114
204960 On ch=1 n=d#6 v=114
205200 On ch=1 n=d#6 v=0
205200 On ch=1 n=g5 v=0
205200 On ch=1 n=d#5 v=0
205200 On ch=1 n=d5 v=114
205200 On ch=1 n=f#5 v=114
205200 On ch=1 n=d6 v=114
205440 On ch=1 n=d6 v=0
205440 On ch=1 n=f#5 v=0
205440 On ch=1 n=d5 v=0
205440 On ch=1 n=c#5 v=114
205440 On ch=1 n=f5 v=114
205440 On ch=1 n=c#6 v=114
205680 On ch=1 n=c#6 v=0
205680 On ch=1 n=f5 v=0
205680 On ch=1 n=c#5 v=0
205680 On ch=1 n=c5 v=114
205680 On ch=1 n=e5 v=114
205680 On ch=1 n=c6 v=114
205920 On ch=1 n=c6 v=0
205920 On ch=1 n=e5 v=0
205920 On ch=1 n=c5 v=0
205920 On ch=1 n=g#6 v=127
205920 On ch=1 n=c7 v=127
205920 On ch=1 n=g#7 v=127
206160 On ch=1 n=g#7 v=0
206160 On ch=1 n=c7 v=0
206160 On ch=1 n=g#6 v=0
206160 On ch=1 n=g#5 v=114
206160 On ch=1 n=c6 v=114
206160 On ch=1 n=g#6 v=114
206400 On ch=1 n=g#6 v=0
206400 On ch=1 n=c6 v=0
206400 On ch=1 n=g#5 v=0
206400 On ch=1 n=g#5 v=114
206400 On ch=1 n=c6 v=114
206400 On ch=1 n=g#6 v=114
206640 On ch=1 n=g#6 v=0
206640 On ch=1 n=c6 v=0
206640 On ch=1 n=g#5 v=0
206640 On ch=1 n=g#6 v=127
206640 On ch=1 n=c7 v=127
206640 On ch=1 n=g#7 v=127
206880 On ch=1 n=g#7 v=0
206880 On ch=1 n=c7 v=0
206880 On ch=1 n=g#6 v=0
206880 On ch=1 n=g#5 v=114
206880 On ch=1 n=c6 v=114
206880 On ch=1 n=g#6 v=114
207120 On ch=1 n=g#6 v=0
207120 On ch=1 n=c6 v=0
207120 On ch=1 n=g#5 v=0
207120 On ch=1 n=g#5 v=114
207120 On ch=1 n=c6 v=114
207120 On ch=1 n=g#6 v=114
207360 On ch=1 n=g#6 v=0
207360 On ch=1 n=c6 v=0
207360 On ch=1 n=g#5 v=0
207360 On ch=1 n=c7 v=127
207360 On ch=1 n=e7 v=127
207360 On ch=1 n=c8 v=127
207600 On ch=1 n=c8 v=0
207600 On ch=1 n=e7 v=0
207600 On ch=1 n=c7 v=0
207600 On ch=1 n=c6 v=114
207600 On ch=1 n=e6 v=114
207600 On ch=1 n=c7 v=114
207840 On ch=1 n=c7 v=0
207840 On ch=1 n=e6 v=0
207840 On ch=1 n=c6 v=0
207840 On ch=1 n=c6 v=114
207840 On ch=1 n=e6 v=114
207840 On ch=1 n=c7 v=114
208080 On ch=1 n=c7 v=0
208080 On ch=1 n=e6 v=0
208080 On ch=1 n=c6 v=0
208080 On ch=1 n=a#6 v=127
208080 On ch=1 n=e7 v=127
208080 On ch=1 n=a#7 v=127
208320 On ch=1 n=a#7 v=0
208320 On ch=1 n=e7 v=0
208320 On ch=1 n=a#6 v=0
208320 On ch=1 n=a#5 v=114
208320 On ch=1 n=e6 v=114
208320 On ch=1 n=a#6 v=114
208560 On ch=1 n=a#6 v=0
208560 On ch=1 n=e6 v=0
208560 On ch=1 n=a#5 v=0
208560 On ch=1 n=a#5 v=114
208560 On ch=1 n=e6 v=114
208560 On ch=1 n=a#6 v=114
208800 On ch=1 n=a#6 v=0
208800 On ch=1 n=e6 v=0
208800 On ch=1 n=a#5 v=0
208800 On ch=1 n=d#6 v=127
208800 On ch=1 n=g6 v=127
208800 On ch=1 n=d#7 v=127
209040 On ch=1 n=d#7 v=0
209040 On ch=1 n=g6 v=0
209040 On ch=1 n=d#6 v=0
209040 On ch=1 n=d#5 v=114
209040 On ch=1 n=g5 v=114
209040 On ch=1 n=d#6 v=114
209280 On ch=1 n=d#6 v=0
209280 On ch=1 n=g5 v=0
209280 On ch=1 n=d#5 v=0
209280 On ch=1 n=e5 v=114
209280 On ch=1 n=g#5 v=114
209280 On ch=1 n=e6 v=114
209520 On ch=1 n=e6 v=0
209520 On ch=1 n=g#5 v=0
209520 On ch=1 n=e5 v=0
209520 On ch=1 n=f5 v=114
209520 On ch=1 n=a5 v=114
209520 On ch=1 n=f6 v=114
209760 On ch=1 n=f6 v=0
209760 On ch=1 n=a5 v=0
209760 On ch=1 n=f5 v=0
209760 On ch=1 n=f#5 v=114
209760 On ch=1 n=a#5 v=114
209760 On ch=1 n=f#6 v=114
210000 On ch=1 n=f#6 v=0
210000 On ch=1 n=a#5 v=0
210000 On ch=1 n=f#5 v=0
210000 On ch=1 n=g5 v=114
210000 On ch=1 n=b5 v=114
210000 On ch=1 n=g6 v=114
210240 On ch=1 n=g6 v=0
210240 On ch=1 n=b5 v=0
210240 On ch=1 n=g5 v=0
210240 On ch=1 n=g#5 v=114
210240 On ch=1 n=c6 v=114
210240 On ch=1 n=g#6 v=114
210480 On ch=1 n=g#6 v=0
210480 On ch=1 n=c6 v=0
210480 On ch=1 n=g#5 v=0
210480 On ch=1 n=g5 v=114
210480 On ch=1 n=b5 v=114
210480 On ch=1 n=g6 v=114
210720 On ch=1 n=g6 v=0
210720 On ch=1 n=b5 v=0
210720 On ch=1 n=g5 v=0
210720 On ch=1 n=f#5 v=114
210720 On ch=1 n=a#5 v=114
210720 On ch=1 n=f#6 v=114
210960 On ch=1 n=f#6 v=0
210960 On ch=1 n=a#5 v=0
210960 On ch=1 n=f#5 v=0
210960 On ch=1 n=f5 v=114
210960 On ch=1 n=g#5 v=114
210960 On ch=1 n=f6 v=114
211200 On ch=1 n=f6 v=0
211200 On ch=1 n=g#5 v=0
211200 On ch=1 n=f5 v=0
211200 On ch=1 n=e5 v=114
211200 On ch=1 n=g5 v=114
211200 On ch=1 n=e6 v=114
211440 On ch=1 n=e6 v=0
211440 On ch=1 n=g5 v=0
211440 On ch=1 n=e5 v=0
211440 On ch=1 n=d#5 v=114
211440 On ch=1 n=g5 v=114
211440 On ch=1 n=d#6 v=114
211680 On ch=1 n=d#6 v=0
211680 On ch=1 n=g5 v=0
211680 On ch=1 n=d#5 v=0
211680 On ch=1 n=c#7 v=127
211680 On ch=1 n=d#7 v=127
211680 On ch=1 n=f#7 v=127
211680 On ch=1 n=d#8 v=127
211920 On ch=1 n=d#8 v=0
211920 On ch=1 n=f#7 v=0
211920 On ch=1 n=d#7 v=0
211920 On ch=1 n=c#7 v=0
211920 On ch=1 n=c#6 v=114
211920 On ch=1 n=d#6 v=114
211920 On ch=1 n=f#6 v=114
211920 On ch=1 n=d#7 v=114
212160 On ch=1 n=d#7 v=0
212160 On ch=1 n=f#6 v=0
212160 On ch=1 n=d#6 v=0
212160 On ch=1 n=c#6 v=0
212160 On ch=1 n=c#6 v=114
212160 On ch=1 n=d#6 v=114
212160 On ch=1 n=f#6 v=114
212160 On ch=1 n=d#7 v=114
212400 On ch=1 n=d#7 v=0
212400 On ch=1 n=f#6 v=0
212400 On ch=1 n=d#6 v=0
212400 On ch=1 n=c#6 v=0
212400 On ch=1 n=c#6 v=114
212400 On ch=1 n=d#6 v=114
212400 On ch=1 n=f#6 v=114
212400 On ch=1 n=d#7 v=114
212640 On ch=1 n=d#7 v=0
212640 On ch=1 n=f#6 v=0
212640 On ch=1 n=d#6 v=0
212640 On ch=1 n=c#6 v=0
212640 On ch=1 n=c#6 v=114
212640 On ch=1 n=d#6 v=114
212640 On ch=1 n=f#6 v=114
212640 On ch=1 n=d#7 v=114
212880 On ch=1 n=d#7 v=0
212880 On ch=1 n=f#6 v=0
212880 On ch=1 n=d#6 v=0
212880 On ch=1 n=c#6 v=0
212880 On ch=1 n=c#6 v=114
212880 On ch=1 n=d#6 v=114
212880 On ch=1 n=f#6 v=114
212880 On ch=1 n=d#7 v=114
213120 On ch=1 n=d#7 v=0
213120 On ch=1 n=f#6 v=0
213120 On ch=1 n=d#6 v=0
213120 On ch=1 n=c#6 v=0
213120 On ch=1 n=c#7 v=127
213120 On ch=1 n=d#7 v=127
213120 On ch=1 n=f#7 v=127
213120 On ch=1 n=d#8 v=127
213360 On ch=1 n=d#8 v=0
213360 On ch=1 n=f#7 v=0
213360 On ch=1 n=d#7 v=0
213360 On ch=1 n=c#7 v=0
213360 On ch=1 n=c#6 v=114
213360 On ch=1 n=d#6 v=114
213360 On ch=1 n=f#6 v=114
213360 On ch=1 n=d#7 v=114
213600 On ch=1 n=d#7 v=0
213600 On ch=1 n=f#6 v=0
213600 On ch=1 n=d#6 v=0
213600 On ch=1 n=c#6 v=0
213600 On ch=1 n=c#6 v=114
213600 On ch=1 n=d#6 v=114
213600 On ch=1 n=f#6 v=114
213600 On ch=1 n=d#7 v=114
213840 On ch=1 n=d#7 v=0
213840 On ch=1 n=f#6 v=0
213840 On ch=1 n=d#6 v=0
213840 On ch=1 n=c#6 v=0
213840 On ch=1 n=c#6 v=114
213840 On ch=1 n=d#6 v=114
213840 On ch=1 n=f#6 v=114
213840 On ch=1 n=d#7 v=114
214080 On ch=1 n=d#7 v=0
214080 On ch=1 n=f#6 v=0
214080 On ch=1 n=d#6 v=0
214080 On ch=1 n=c#6 v=0
214080 On ch=1 n=c#6 v=114
214080 On ch=1 n=d#6 v=114
214080 On ch=1 n=f#6 v=114
214080 On ch=1 n=d#7 v=114
214320 On ch=1 n=d#7 v=0
214320 On ch=1 n=f#6 v=0
214320 On ch=1 n=d#6 v=0
214320 On ch=1 n=c#6 v=0
214320 On ch=1 n=c#7 v=127
214320 On ch=1 n=f#7 v=127
214320 On ch=1 n=c#8 v=127
214560 On ch=1 n=c#8 v=0
214560 On ch=1 n=f#7 v=0
214560 On ch=1 n=c#7 v=0
214560 On ch=1 n=c7 v=127
214560 On ch=1 n=f#7 v=127
214560 On ch=1 n=c8 v=127
214800 On ch=1 n=c8 v=0
214800 On ch=1 n=f#7 v=0
214800 On ch=1 n=c7 v=0
214800 On ch=1 n=c6 v=114
214800 On ch=1 n=c7 v=114
215040 On ch=1 n=c7 v=0
215040 On ch=1 n=c6 v=0
215040 On ch=1 n=c#6 v=114
215040 On ch=1 n=c#7 v=114
215280 On ch=1 n=c#7 v=0
215280 On ch=1 n=c#6 v=0
215280 On ch=1 n=d6 v=114
215280 On ch=1 n=d7 v=114
215520 On ch=1 n=d7 v=0
215520 On ch=1 n=d6 v=0
215520 On ch=1 n=d#6 v=114
215520 On ch=1 n=d#7 v=114
215760 On ch=1 n=d#7 v=0
215760 On ch=1 n=d#6 v=0
215760 On ch=1 n=e6 v=127
215760 On ch=1 n=e7 v=127
216000 On ch=1 n=e7 v=0
216000 On ch=1 n=e6 v=0
216000 On ch=1 n=d#6 v=114
216000 On ch=1 n=d#7 v=114
216240 On ch=1 n=d#7 v=0
216240 On ch=1 n=d#6 v=0
216240 On ch=1 n=d6 v=114
216240 On ch=1 n=d7 v=114
216480 On ch=1 n=d7 v=0
216480 On ch=1 n=d6 v=0
216480 On ch=1 n=c#6 v=114
216480 On ch=1 n=c#7 v=114
216720 On ch=1 n=c#7 v=0
216720 On ch=1 n=c#6 v=0
216720 On ch=1 n=c6 v=114
216720 On ch=1 n=c7 v=114
216960 On ch=1 n=c7 v=0
216960 On ch=1 n=c6 v=0
216960 On ch=1 n=b5 v=114
216960 On ch=1 n=b6 v=114
217200 On ch=1 n=b6 v=0
217200 On ch=1 n=b5 v=0
217200 On ch=1 n=a#5 v=114
217200 On ch=1 n=a#6 v=114
217440 On ch=1 n=a#6 v=0
217440 On ch=1 n=a#5 v=0
217440 On ch=1 n=c#7 v=127
217440 On ch=1 n=d#7 v=127
217440 On ch=1 n=f#7 v=127
217440 On ch=1 n=d#8 v=127
217680 On ch=1 n=d#8 v=0
217680 On ch=1 n=f#7 v=0
217680 On ch=1 n=d#7 v=0
217680 On ch=1 n=c#7 v=0
217680 On ch=1 n=c#6 v=114
217680 On ch=1 n=d#6 v=114
217680 On ch=1 n=f#6 v=114
217680 On ch=1 n=d#7 v=114
217920 On ch=1 n=d#7 v=0
217920 On ch=1 n=f#6 v=0
217920 On ch=1 n=d#6 v=0
217920 On ch=1 n=c#6 v=0
217920 On ch=1 n=c#6 v=114
217920 On ch=1 n=d#6 v=114
217920 On ch=1 n=f#6 v=114
217920 On ch=1 n=d#7 v=114
218160 On ch=1 n=d#7 v=0
218160 On ch=1 n=f#6 v=0
218160 On ch=1 n=d#6 v=0
218160 On ch=1 n=c#6 v=0
218160 On ch=1 n=c#6 v=114
218160 On ch=1 n=d#6 v=114
218160 On ch=1 n=f#6 v=114
218160 On ch=1 n=d#7 v=114
218400 On ch=1 n=d#7 v=0
218400 On ch=1 n=f#6 v=0
218400 On ch=1 n=d#6 v=0
218400 On ch=1 n=c#6 v=0
218400 On ch=1 n=c#6 v=114
218400 On ch=1 n=d#6 v=114
218400 On ch=1 n=f#6 v=114
218400 On ch=1 n=d#7 v=114
218640 On ch=1 n=d#7 v=0
218640 On ch=1 n=f#6 v=0
218640 On ch=1 n=d#6 v=0
218640 On ch=1 n=c#6 v=0
218640 On ch=1 n=c#6 v=114
218640 On ch=1 n=d#6 v=114
218640 On ch=1 n=f#6 v=114
218640 On ch=1 n=d#7 v=114
218880 On ch=1 n=d#7 v=0
218880 On ch=1 n=f#6 v=0
218880 On ch=1 n=d#6 v=0
218880 On ch=1 n=c#6 v=0
218880 On ch=1 n=c#7 v=127
218880 On ch=1 n=d#7 v=127
218880 On ch=1 n=f#7 v=127
218880 On ch=1 n=d#8 v=127
219120 On ch=1 n=d#8 v=0
219120 On ch=1 n=f#7 v=0
219120 On ch=1 n=d#7 v=0
219120 On ch=1 n=c#7 v=0
219120 On ch=1 n=c#6 v=114
219120 On ch=1 n=d#6 v=114
219120 On ch=1 n=f#6 v=114
219120 On ch=1 n=d#7 v=114
219360 On ch=1 n=d#7 v=0
219360 On ch=1 n=f#6 v=0
219360 On ch=1 n=d#6 v=0
219360 On ch=1 n=c#6 v=0
219360 On ch=1 n=c#6 v=114
219360 On ch=1 n=d#6 v=114
219360 On ch=1 n=f#6 v=114
219360 On ch=1 n=d#7 v=114
219600 On ch=1 n=d#7 v=0
219600 On ch=1 n=f#6 v=0
219600 On ch=1 n=d#6 v=0
219600 On ch=1 n=c#6 v=0
219600 On ch=1 n=c#6 v=114
219600 On ch=1 n=d#6 v=114
219600 On ch=1 n=f#6 v=114
219600 On ch=1 n=d#7 v=114
219840 On ch=1 n=d#7 v=0
219840 On ch=1 n=f#6 v=0
219840 On ch=1 n=d#6 v=0
219840 On ch=1 n=c#6 v=0
219840 On ch=1 n=c#6 v=114
219840 On ch=1 n=d#6 v=114
219840 On ch=1 n=f#6 v=114
219840 On ch=1 n=d#7 v=114
220080 On ch=1 n=d#7 v=0
220080 On ch=1 n=f#6 v=0
220080 On ch=1 n=d#6 v=0
220080 On ch=1 n=c#6 v=0
220080 On ch=1 n=c#7 v=127
220080 On ch=1 n=f#7 v=127
220080 On ch=1 n=c#8 v=127
220320 On ch=1 n=c#8 v=0
220320 On ch=1 n=f#7 v=0
220320 On ch=1 n=c#7 v=0
220320 On ch=1 n=c7 v=127
220320 On ch=1 n=f#7 v=127
220320 On ch=1 n=c8 v=127
220560 On ch=1 n=c8 v=0
220560 On ch=1 n=f#7 v=0
220560 On ch=1 n=c7 v=0
220560 On ch=1 n=c6 v=114
220560 On ch=1 n=c7 v=114
220800 On ch=1 n=c7 v=0
220800 On ch=1 n=c6 v=0
220800 On ch=1 n=c#6 v=114
220800 On ch=1 n=c#7 v=114
221040 On ch=1 n=c#7 v=0
221040 On ch=1 n=c#6 v=0
221040 On ch=1 n=d6 v=114
221040 On ch=1 n=d7 v=114
221280 On ch=1 n=d7 v=0
221280 On ch=1 n=d6 v=0
221280 On ch=1 n=d#6 v=114
221280 On ch=1 n=d#7 v=114
221520 On ch=1 n=d#7 v=0
221520 On ch=1 n=d#6 v=0
221520 On ch=1 n=e6 v=114
221520 On ch=1 n=e7 v=114
221760 On ch=1 n=e7 v=0
221760 On ch=1 n=e6 v=0
221760 On ch=1 n=f6 v=114
221760 On ch=1 n=f7 v=114
222000 On ch=1 n=f7 v=0
222000 On ch=1 n=f6 v=0
222000 On ch=1 n=d#6 v=114
222000 On ch=1 n=d#7 v=114
222240 On ch=1 n=d#7 v=0
222240 On ch=1 n=d#6 v=0
222240 On ch=1 n=c#6 v=114
222240 On ch=1 n=c#7 v=114
222480 On ch=1 n=c#7 v=0
222480 On ch=1 n=c#6 v=0
222480 On ch=1 n=c6 v=114
222480 On ch=1 n=c7 v=114
222720 On ch=1 n=c7 v=0
222720 On ch=1 n=c6 v=0
222720 On ch=1 n=a5 v=114
222720 On ch=1 n=a6 v=114
222960 On ch=1 n=a6 v=0
222960 On ch=1 n=a5 v=0
222960 On ch=1 n=g#5 v=127
222960 On ch=1 n=g#6 v=127
223200 On ch=1 n=g#6 v=0
223200 On ch=1 n=g#5 v=0
223200 On ch=1 n=f7 v=127
223200 On ch=1 n=g#7 v=127
223200 On ch=1 n=f8 v=127
223440 On ch=1 n=f8 v=0
223440 On ch=1 n=g#7 v=0
223440 On ch=1 n=f7 v=0
223440 On ch=1 n=f6 v=114
223440 On ch=1 n=g#6 v=114
223440 On ch=1 n=f7 v=114
223680 On ch=1 n=f7 v=0
223680 On ch=1 n=g#6 v=0
223680 On ch=1 n=f6 v=0
223680 On ch=1 n=f6 v=114
223680 On ch=1 n=g#6 v=114
223680 On ch=1 n=f7 v=114
223920 On ch=1 n=f7 v=0
223920 On ch=1 n=g#6 v=0
223920 On ch=1 n=f6 v=0
223920 On ch=1 n=f6 v=114
223920 On ch=1 n=g#6 v=114
223920 On ch=1 n=f7 v=114
224160 On ch=1 n=f7 v=0
224160 On ch=1 n=g#6 v=0
224160 On ch=1 n=f6 v=0
224160 On ch=1 n=f6 v=114
224160 On ch=1 n=g#6 v=114
224160 On ch=1 n=f7 v=114
224400 On ch=1 n=f7 v=0
224400 On ch=1 n=g#6 v=0
224400 On ch=1 n=f6 v=0
224400 On ch=1 n=f6 v=114
224400 On ch=1 n=g#6 v=114
224400 On ch=1 n=f7 v=114
224640 On ch=1 n=f7 v=0
224640 On ch=1 n=g#6 v=0
224640 On ch=1 n=f6 v=0
224640 On ch=1 n=c#7 v=127
224640 On ch=1 n=f7 v=127
224640 On ch=1 n=c#8 v=127
224880 On ch=1 n=c#8 v=0
224880 On ch=1 n=f7 v=0
224880 On ch=1 n=c#7 v=0
224880 On ch=1 n=c#6 v=114
224880 On ch=1 n=f6 v=114
224880 On ch=1 n=c#7 v=114
225120 On ch=1 n=c#7 v=0
225120 On ch=1 n=f6 v=0
225120 On ch=1 n=c#6 v=0
225120 On ch=1 n=c#6 v=114
225120 On ch=1 n=f6 v=114
225120 On ch=1 n=c#7 v=114
225360 On ch=1 n=c#7 v=0
225360 On ch=1 n=f6 v=0
225360 On ch=1 n=c#6 v=0
225360 On ch=1 n=g#6 v=127
225360 On ch=1 n=c#7 v=127
225360 On ch=1 n=g#7 v=127
225600 On ch=1 n=g#7 v=0
225600 On ch=1 n=c#7 v=0
225600 On ch=1 n=g#6 v=0
225600 On ch=1 n=g#5 v=114
225600 On ch=1 n=c#6 v=114
225600 On ch=1 n=g#6 v=114
225840 On ch=1 n=g#6 v=0
225840 On ch=1 n=c#6 v=0
225840 On ch=1 n=g#5 v=0
225840 On ch=1 n=g#5 v=114
225840 On ch=1 n=c#6 v=114
225840 On ch=1 n=g#6 v=114
226080 On ch=1 n=g#6 v=0
226080 On ch=1 n=c#6 v=0
226080 On ch=1 n=g#5 v=0
226080 On ch=1 n=c7 v=127
226080 On ch=1 n=e7 v=127
226080 On ch=1 n=c8 v=127
226320 On ch=1 n=c8 v=0
226320 On ch=1 n=e7 v=0
226320 On ch=1 n=c7 v=0
226320 On ch=1 n=c6 v=114
226320 On ch=1 n=e6 v=114
226320 On ch=1 n=c7 v=114
226560 On ch=1 n=c7 v=0
226560 On ch=1 n=e6 v=0
226560 On ch=1 n=c6 v=0
226560 On ch=1 n=c6 v=114
226560 On ch=1 n=e6 v=114
226560 On ch=1 n=c7 v=114
226800 On ch=1 n=c7 v=0
226800 On ch=1 n=e6 v=0
226800 On ch=1 n=c6 v=0
226800 On ch=1 n=c6 v=114
226800 On ch=1 n=e6 v=114
226800 On ch=1 n=c7 v=114
227040 On ch=1 n=c7 v=0
227040 On ch=1 n=e6 v=0
227040 On ch=1 n=c6 v=0
227040 On ch=1 n=c6 v=114
227040 On ch=1 n=e6 v=114
227040 On ch=1 n=c7 v=114
227280 On ch=1 n=c7 v=0
227280 On ch=1 n=e6 v=0
227280 On ch=1 n=c6 v=0
227280 On ch=1 n=c6 v=114
227280 On ch=1 n=e6 v=114
227280 On ch=1 n=c7 v=114
227520 On ch=1 n=c7 v=0
227520 On ch=1 n=e6 v=0
227520 On ch=1 n=c6 v=0
227520 On ch=1 n=a#6 v=127
227520 On ch=1 n=c#7 v=127
227520 On ch=1 n=a#7 v=127
227760 On ch=1 n=a#7 v=0
227760 On ch=1 n=c#7 v=0
227760 On ch=1 n=a#6 v=0
227760 On ch=1 n=a#5 v=114
227760 On ch=1 n=c#6 v=114
227760 On ch=1 n=a#6 v=114
228000 On ch=1 n=a#6 v=0
228000 On ch=1 n=c#6 v=0
228000 On ch=1 n=a#5 v=0
228000 On ch=1 n=a#5 v=114
228000 On ch=1 n=c#6 v=114
228000 On ch=1 n=a#6 v=114
228240 On ch=1 n=a#6 v=0
228240 On ch=1 n=c#6 v=0
228240 On ch=1 n=a#5 v=0
228240 On ch=1 n=a#5 v=114
228240 On ch=1 n=c#6 v=114
228240 On ch=1 n=a#6 v=114
228480 On ch=1 n=a#6 v=0
228480 On ch=1 n=c#6 v=0
228480 On ch=1 n=a#5 v=0
228480 On ch=1 n=a#5 v=114
228480 On ch=1 n=c#6 v=114
228480 On ch=1 n=a#6 v=114
228720 On ch=1 n=a#6 v=0
228720 On ch=1 n=c#6 v=0
228720 On ch=1 n=a#5 v=0
228720 On ch=1 n=a#6 v=127
228720 On ch=1 n=c#7 v=127
228720 On ch=1 n=a#7 v=127
228960 On ch=1 n=a#7 v=0
228960 On ch=1 n=c#7 v=0
228960 On ch=1 n=a#6 v=0
228960 On ch=1 n=f6 v=114
228960 On ch=1 n=c#7 v=114
228960 On ch=1 n=f7 v=114
228993 On ch=1 n=f6 v=0
229024 On ch=1 n=c#7 v=0
229056 On ch=1 n=f7 v=0
229200 On ch=1 n=c#6 v=114
229200 On ch=1 n=f6 v=114
229440 On ch=1 n=f6 v=0
229440 On ch=1 n=c#6 v=0
229440 On ch=1 n=c#6 v=114
229440 On ch=1 n=f6 v=114
229680 On ch=1 n=f6 v=0
229680 On ch=1 n=c#6 v=0
229680 On ch=1 n=f6 v=127
229680 On ch=1 n=c#7 v=127
229680 On ch=1 n=f7 v=127
229920 On ch=1 n=f7 v=0
229920 On ch=1 n=c#7 v=0
229920 On ch=1 n=f6 v=0
229920 On ch=1 n=c#6 v=114
229920 On ch=1 n=f6 v=114
230160 On ch=1 n=f6 v=0
230160 On ch=1 n=c#6 v=0
230160 On ch=1 n=c#6 v=114
230160 On ch=1 n=f6 v=114
230400 On ch=1 n=f6 v=0
230400 On ch=1 n=c#6 v=0
230400 On ch=1 n=g#6 v=127
230400 On ch=1 n=c7 v=127
230400 On ch=1 n=g#7 v=127
230640 On ch=1 n=g#7 v=0
230640 On ch=1 n=c7 v=0
230640 On ch=1 n=g#6 v=0
230640 On ch=1 n=c6 v=114
230640 On ch=1 n=d#6 v=114
230880 On ch=1 n=d#6 v=0
230880 On ch=1 n=c6 v=0
230880 On ch=1 n=c6 v=114
230880 On ch=1 n=d#6 v=114
231120 On ch=1 n=d#6 v=0
231120 On ch=1 n=c6 v=0
231120 On ch=1 n=f#6 v=127
231120 On ch=1 n=c7 v=127
231120 On ch=1 n=f#7 v=127
231360 On ch=1 n=f#7 v=0
231360 On ch=1 n=c7 v=0
231360 On ch=1 n=f#6 v=0
231360 On ch=1 n=c6 v=114
231360 On ch=1 n=d#6 v=114
231600 On ch=1 n=d#6 v=0
231600 On ch=1 n=c6 v=0
231600 On ch=1 n=c6 v=114
231600 On ch=1 n=d#6 v=114
231840 On ch=1 n=d#6 v=0
231840 On ch=1 n=c6 v=0
231840 On ch=1 n=f#6 v=114
231840 On ch=1 n=a#6 v=114
231840 On ch=1 n=f#7 v=114
231873 On ch=1 n=f#6 v=0
231904 On ch=1 n=a#6 v=0
231936 On ch=1 n=f#7 v=0
232080 On ch=1 n=d#6 v=114
232080 On ch=1 n=f#6 v=114
232320 On ch=1 n=f#6 v=0
232320 On ch=1 n=d#6 v=0
232320 On ch=1 n=d6 v=114
232320 On ch=1 n=d#6 v=114
232320 On ch=1 n=f#6 v=114
232560 On ch=1 n=f#6 v=0
232560 On ch=1 n=d#6 v=0
232560 On ch=1 n=d6 v=0
232560 On ch=1 n=c#6 v=114
232560 On ch=1 n=d#6 v=114
232560 On ch=1 n=f#6 v=114
232800 On ch=1 n=f#6 v=0
232800 On ch=1 n=d#6 v=0
232800 On ch=1 n=c#6 v=0
232800 On ch=1 n=c6 v=114
232800 On ch=1 n=d#6 v=114
232800 On ch=1 n=f#6 v=114
233040 On ch=1 n=f#6 v=0
233040 On ch=1 n=d#6 v=0
233040 On ch=1 n=c6 v=0
233040 On ch=1 n=b5 v=114
233040 On ch=1 n=d#6 v=114
233040 On ch=1 n=f#6 v=114
233280 On ch=1 n=f#6 v=0
233280 On ch=1 n=d#6 v=0
233280 On ch=1 n=b5 v=0
233280 On ch=1 n=a#5 v=114
233280 On ch=1 n=d#6 v=114
233280 On ch=1 n=f#6 v=114
233520 On ch=1 n=f#6 v=0
233520 On ch=1 n=d#6 v=0
233520 On ch=1 n=a#5 v=0
233520 On ch=1 n=a5 v=114
233520 On ch=1 n=d#6 v=114
233520 On ch=1 n=f#6 v=114
233760 On ch=1 n=f#6 v=0
233760 On ch=1 n=d#6 v=0
233760 On ch=1 n=a5 v=0
233760 On ch=1 n=f#5 v=114
233760 On ch=1 n=d#6 v=114
233760 On ch=1 n=f#6 v=114
234000 On ch=1 n=f#6 v=0
234000 On ch=1 n=d#6 v=0
234000 On ch=1 n=f#5 v=0
234000 On ch=1 n=f#5 v=114
234000 On ch=1 n=d#6 v=114
234000 On ch=1 n=f#6 v=114
234240 On ch=1 n=f#6 v=0
234240 On ch=1 n=d#6 v=0
234240 On ch=1 n=f#5 v=0
234240 On ch=1 n=f5 v=114
234240 On ch=1 n=d#6 v=114
234240 On ch=1 n=f6 v=114
234480 On ch=1 n=f6 v=0
234480 On ch=1 n=d#6 v=0
234480 On ch=1 n=f5 v=0
234480 On ch=1 n=f5 v=127
234480 On ch=1 n=f6 v=127
234720 On ch=1 n=f6 v=0
234720 On ch=1 n=f5 v=0
234720 On ch=1 n=f7 v=127
234720 On ch=1 n=g#7 v=127
234720 On ch=1 n=d8 v=127
234720 On ch=1 n=f8 v=127
234960 On ch=1 n=f8 v=0
234960 On ch=1 n=d8 v=0
234960 On ch=1 n=g#7 v=0
234960 On ch=1 n=f7 v=0
235440 On ch=1 n=f6 v=114
235440 On ch=1 n=g#6 v=114
235440 On ch=1 n=d7 v=114
235440 On ch=1 n=f7 v=114
236160 On ch=1 n=f7 v=0
236160 On ch=1 n=d7 v=0
236160 On ch=1 n=g#6 v=0
236160 On ch=1 n=f6 v=0
236160 On ch=1 n=b5 v=114
236160 On ch=1 n=c#6 v=114
236160 On ch=1 n=e6 v=114
236160 On ch=1 n=g6 v=114
236160 On ch=1 n=b6 v=114
237120 On ch=1 n=b6 v=0
237120 On ch=1 n=g6 v=0
237120 On ch=1 n=e6 v=0
237120 On ch=1 n=c#6 v=0
237120 On ch=1 n=b5 v=0
237120 On ch=1 n=a#5 v=114
237120 On ch=1 n=c#6 v=114
237120 On ch=1 n=e6 v=114
237120 On ch=1 n=a#6 v=114
237600 On ch=1 n=a#6 v=0
237600 On ch=1 n=e6 v=0
237600 On ch=1 n=c#6 v=0
237600 On ch=1 n=a#5 v=0
237600 On ch=1 n=d#7 v=127
237600 On ch=1 n=f7 v=127
237600 On ch=1 n=c8 v=127
237600 On ch=1 n=d#8 v=127
237840 On ch=1 n=d#8 v=0
237840 On ch=1 n=c8 v=0
237840 On ch=1 n=f7 v=0
237840 On ch=1 n=d#7 v=0
238320 On ch=1 n=d#6 v=114
238320 On ch=1 n=f#6 v=114
238320 On ch=1 n=c7 v=114
238320 On ch=1 n=d#7 v=114
239040 On ch=1 n=d#7 v=0
239040 On ch=1 n=c7 v=0
239040 On ch=1 n=f#6 v=0
239040 On ch=1 n=d#6 v=0
239040 On ch=1 n=a5 v=114
239040 On ch=1 n=b5 v=114
239040 On ch=1 n=d6 v=114
239040 On ch=1 n=f6 v=114
239040 On ch=1 n=a6 v=114
240000 On ch=1 n=a6 v=0
240000 On ch=1 n=f6 v=0
240000 On ch=1 n=d6 v=0
240000 On ch=1 n=b5 v=0
240000 On ch=1 n=a5 v=0
240000 On ch=1 n=g#5 v=114
240000 On ch=1 n=b5 v=114
240000 On ch=1 n=d#6 v=114
240000 On ch=1 n=g#6 v=114
240480 On ch=1 n=g#6 v=0
240480 On ch=1 n=d#6 v=0
240480 On ch=1 n=b5 v=0
240480 On ch=1 n=g#5 v=0
240480 On ch=1 n=c#7 v=127
240480 On ch=1 n=a7 v=127
240480 On ch=1 n=c#8 v=127
240720 On ch=1 n=c#8 v=0
240720 On ch=1 n=a7 v=0
240720 On ch=1 n=c#7 v=0
240720 On ch=1 n=a6 v=114
240720 On ch=1 n=f#7 v=114
240720 On ch=1 n=a7 v=114
240960 On ch=1 n=a7 v=0
240960 On ch=1 n=f#7 v=0
240960 On ch=1 n=a6 v=0
240960 On ch=1 n=a6 v=114
240960 On ch=1 n=c7 v=114
240960 On ch=1 n=f#7 v=114
240960 On ch=1 n=a7 v=114
241200 On ch=1 n=a7 v=0
241200 On ch=1 n=f#7 v=0
241200 On ch=1 n=c7 v=0
241200 On ch=1 n=a6 v=0
241200 On ch=1 n=a6 v=114
241200 On ch=1 n=c#7 v=114
241200 On ch=1 n=f#7 v=114
241200 On ch=1 n=a7 v=114
241440 On ch=1 n=a7 v=0
241440 On ch=1 n=f#7 v=0
241440 On ch=1 n=c#7 v=0
241440 On ch=1 n=a6 v=0
241440 On ch=1 n=f#6 v=114
241440 On ch=1 n=c#7 v=114
241440 On ch=1 n=f#7 v=114
241680 On ch=1 n=f#7 v=0
241680 On ch=1 n=c#7 v=0
241680 On ch=1 n=f#6 v=0
241680 On ch=1 n=f#6 v=114
241680 On ch=1 n=g#6 v=114
241680 On ch=1 n=c#7 v=114
241680 On ch=1 n=f#7 v=114
241920 On ch=1 n=f#7 v=0
241920 On ch=1 n=c#7 v=0
241920 On ch=1 n=g#6 v=0
241920 On ch=1 n=f#6 v=0
241920 On ch=1 n=f#6 v=114
241920 On ch=1 n=a6 v=114
241920 On ch=1 n=c#7 v=114
241920 On ch=1 n=f#7 v=114
242160 On ch=1 n=f#7 v=0
242160 On ch=1 n=c#7 v=0
242160 On ch=1 n=a6 v=0
242160 On ch=1 n=f#6 v=0
242160 On ch=1 n=c#6 v=114
242160 On ch=1 n=a6 v=114
242160 On ch=1 n=c#7 v=114
242400 On ch=1 n=c#7 v=0
242400 On ch=1 n=a6 v=0
242400 On ch=1 n=c#6 v=0
242400 On ch=1 n=c#6 v=114
242400 On ch=1 n=f6 v=114
242400 On ch=1 n=a6 v=114
242400 On ch=1 n=c#7 v=114
242640 On ch=1 n=c#7 v=0
242640 On ch=1 n=a6 v=0
242640 On ch=1 n=f6 v=0
242640 On ch=1 n=c#6 v=0
242640 On ch=1 n=c#6 v=114
242640 On ch=1 n=a6 v=114
242640 On ch=1 n=c#7 v=114
242880 On ch=1 n=c#7 v=0
242880 On ch=1 n=a6 v=0
242880 On ch=1 n=c#6 v=0
242880 On ch=1 n=a5 v=114
242880 On ch=1 n=f#6 v=114
242880 On ch=1 n=a6 v=114
243120 On ch=1 n=a6 v=0
243120 On ch=1 n=f#6 v=0
243120 On ch=1 n=a5 v=0
243120 On ch=1 n=a5 v=114
243120 On ch=1 n=c#6 v=114
243120 On ch=1 n=f#6 v=114
243120 On ch=1 n=a6 v=114
243360 On ch=1 n=a6 v=0
243360 On ch=1 n=f#6 v=0
243360 On ch=1 n=c#6 v=0
243360 On ch=1 n=a5 v=0
243360 On ch=1 n=a5 v=127
243360 On ch=1 n=d6 v=127
243360 On ch=1 n=a6 v=127
243600 On ch=1 n=a6 v=0
243600 On ch=1 n=d6 v=0
243600 On ch=1 n=a5 v=0
243600 On ch=1 n=f#5 v=114
243600 On ch=1 n=d6 v=114
243600 On ch=1 n=f#6 v=114
243840 On ch=1 n=f#6 v=0
243840 On ch=1 n=d6 v=0
243840 On ch=1 n=f#5 v=0
243840 On ch=1 n=f#5 v=114
243840 On ch=1 n=g#5 v=114
243840 On ch=1 n=d6 v=114
243840 On ch=1 n=f#6 v=114
244080 On ch=1 n=f#6 v=0
244080 On ch=1 n=d6 v=0
244080 On ch=1 n=g#5 v=0
244080 On ch=1 n=f#5 v=0
244080 On ch=1 n=d5 v=127
244080 On ch=1 n=a5 v=127
244080 On ch=1 n=d6 v=127
244080 On ch=1 n=f#6 v=127
244320 On ch=1 n=f#6 v=0
244320 On ch=1 n=d6 v=0
244320 On ch=1 n=a5 v=0
244320 On ch=1 n=d5 v=0
244320 On ch=1 n=d5 v=114
244320 On ch=1 n=a5 v=114
244320 On ch=1 n=d6 v=114
244560 On ch=1 n=d6 v=0
244560 On ch=1 n=a5 v=0
244560 On ch=1 n=d5 v=0
244560 On ch=1 n=d5 v=114
244560 On ch=1 n=f5 v=114
244560 On ch=1 n=a5 v=114
244560 On ch=1 n=d6 v=114
244800 On ch=1 n=d6 v=0
244800 On ch=1 n=a5 v=0
244800 On ch=1 n=f5 v=0
244800 On ch=1 n=d5 v=0
244800 On ch=1 n=d5 v=127
244800 On ch=1 n=f#5 v=127
244800 On ch=1 n=a5 v=127
244800 On ch=1 n=d6 v=127
245040 On ch=1 n=d6 v=0
245040 On ch=1 n=a5 v=0
245040 On ch=1 n=f#5 v=0
245040 On ch=1 n=d5 v=0
245040 On ch=1 n=a4 v=114
245040 On ch=1 n=f#5 v=114
245040 On ch=1 n=a5 v=114
245280 On ch=1 n=a5 v=0
245280 On ch=1 n=f#5 v=0
245280 On ch=1 n=a4 v=0
245280 On ch=1 n=a4 v=114
245280 On ch=1 n=c#5 v=114
245280 On ch=1 n=f#5 v=114
245280 On ch=1 n=a5 v=114
245520 On ch=1 n=a5 v=0
245520 On ch=1 n=f#5 v=0
245520 On ch=1 n=c#5 v=0
245520 On ch=1 n=a4 v=0
245520 On ch=1 n=a4 v=127
245520 On ch=1 n=d5 v=127
245520 On ch=1 n=f#5 v=127
245520 On ch=1 n=a5 v=127
245760 On ch=1 n=a5 v=0
245760 On ch=1 n=f#5 v=0
245760 On ch=1 n=d5 v=0
245760 On ch=1 n=a4 v=0
245760 On ch=1 n=f#4 v=114
245760 On ch=1 n=a4 v=114
245760 On ch=1 n=d5 v=114
245760 On ch=1 n=f#5 v=114
246000 On ch=1 n=f#5 v=0
246000 On ch=1 n=d5 v=0
246000 On ch=1 n=a4 v=0
246000 On ch=1 n=f#4 v=0
246000 On ch=1 n=f#4 v=114
246000 On ch=1 n=a4 v=114
246000 On ch=1 n=d5 v=114
246000 On ch=1 n=f#5 v=114
246240 On ch=1 n=f#5 v=0
246240 On ch=1 n=d5 v=0
246240 On ch=1 n=a4 v=0
246240 On ch=1 n=f#4 v=0
246240 On ch=1 n=f4 v=114
246240 On ch=1 n=g#4 v=114
246240 On ch=1 n=c#5 v=114
246240 On ch=1 n=f5 v=114
246480 On ch=1 n=f5 v=0
246480 On ch=1 n=c#5 v=0
246480 On ch=1 n=g#4 v=0
246480 On ch=1 n=f4 v=0
246480 On ch=1 n=f4 v=114
246480 On ch=1 n=g#4 v=114
246480 On ch=1 n=c#5 v=114
246480 On ch=1 n=f5 v=114
246720 On ch=1 n=f5 v=0
246720 On ch=1 n=c#5 v=0
246720 On ch=1 n=g#4 v=0
246720 On ch=1 n=f4 v=0
246720 On ch=1 n=f4 v=114
246720 On ch=1 n=g#4 v=114
246720 On ch=1 n=c#5 v=114
246720 On ch=1 n=f5 v=114
246960 On ch=1 n=f5 v=0
246960 On ch=1 n=c#5 v=0
246960 On ch=1 n=g#4 v=0
246960 On ch=1 n=f4 v=0
246960 On ch=1 n=f4 v=114
246960 On ch=1 n=g#4 v=114
246960 On ch=1 n=c#5 v=114
246960 On ch=1 n=f5 v=114
247200 On ch=1 n=f5 v=0
247200 On ch=1 n=c#5 v=0
247200 On ch=1 n=g#4 v=0
247200 On ch=1 n=f4 v=0
247200 On ch=1 n=f4 v=114
247200 On ch=1 n=g#4 v=114
247200 On ch=1 n=c#5 v=114
247200 On ch=1 n=f5 v=114
247440 On ch=1 n=f5 v=0
247440 On ch=1 n=c#5 v=0
247440 On ch=1 n=g#4 v=0
247440 On ch=1 n=f4 v=0
247440 On ch=1 n=f4 v=114
247440 On ch=1 n=g#4 v=114
247440 On ch=1 n=c#5 v=114
247440 On ch=1 n=f5 v=114
247680 On ch=1 n=f5 v=0
247680 On ch=1 n=c#5 v=0
247680 On ch=1 n=g#4 v=0
247680 On ch=1 n=f4 v=0
247680 On ch=1 n=f4 v=114
247680 On ch=1 n=g4 v=114
247680 On ch=1 n=a#4 v=114
247680 On ch=1 n=c#5 v=114
247680 On ch=1 n=f5 v=114
247920 On ch=1 n=f5 v=0
247920 On ch=1 n=c#5 v=0
247920 On ch=1 n=a#4 v=0
247920 On ch=1 n=g4 v=0
247920 On ch=1 n=f4 v=0
247920 On ch=1 n=f4 v=114
247920 On ch=1 n=g4 v=114
247920 On ch=1 n=a#4 v=114
247920 On ch=1 n=c#5 v=114
247920 On ch=1 n=f5 v=114
248160 On ch=1 n=f5 v=0
248160 On ch=1 n=c#5 v=0
248160 On ch=1 n=a#4 v=0
248160 On ch=1 n=g4 v=0
248160 On ch=1 n=f4 v=0
248160 On ch=1 n=f4 v=114
248160 On ch=1 n=g4 v=114
248160 On ch=1 n=a#4 v=114
248160 On ch=1 n=c#5 v=114
248160 On ch=1 n=f5 v=114
248400 On ch=1 n=f5 v=0
248400 On ch=1 n=c#5 v=0
248400 On ch=1 n=a#4 v=0
248400 On ch=1 n=g4 v=0
248400 On ch=1 n=f4 v=0
248400 On ch=1 n=f4 v=114
248400 On ch=1 n=g4 v=114
248400 On ch=1 n=a#4 v=114
248400 On ch=1 n=c#5 v=114
248400 On ch=1 n=f5 v=114
248640 On ch=1 n=f5 v=0
248640 On ch=1 n=c#5 v=0
248640 On ch=1 n=a#4 v=0
248640 On ch=1 n=g4 v=0
248640 On ch=1 n=f4 v=0
248640 On ch=1 n=f4 v=114
248640 On ch=1 n=g4 v=114
248640 On ch=1 n=a#4 v=114
248640 On ch=1 n=c#5 v=114
248640 On ch=1 n=f5 v=114
248880 On ch=1 n=f5 v=0
248880 On ch=1 n=c#5 v=0
248880 On ch=1 n=a#4 v=0
248880 On ch=1 n=g4 v=0
248880 On ch=1 n=f4 v=0
248880 On ch=1 n=f4 v=114
248880 On ch=1 n=g4 v=114
248880 On ch=1 n=a#4 v=114
248880 On ch=1 n=c#5 v=114
248880 On ch=1 n=f5 v=114
249120 On ch=1 n=f5 v=0
249120 On ch=1 n=c#5 v=0
249120 On ch=1 n=a#4 v=0
249120 On ch=1 n=g4 v=0
249120 On ch=1 n=f4 v=0
249120 On ch=1 n=f#4 v=127
249120 On ch=1 n=a4 v=127
249120 On ch=1 n=c5 v=127
249120 On ch=1 n=f5 v=127
249360 On ch=1 n=f5 v=0
249360 On ch=1 n=c5 v=0
249360 On ch=1 n=a4 v=0
249360 On ch=1 n=f#4 v=0
249360 On ch=1 n=f#4 v=114
249360 On ch=1 n=a4 v=114
249360 On ch=1 n=c5 v=114
249360 On ch=1 n=f5 v=114
249600 On ch=1 n=f5 v=0
249600 On ch=1 n=c5 v=0
249600 On ch=1 n=a4 v=0
249600 On ch=1 n=f#4 v=0
249600 On ch=1 n=f#4 v=114
249600 On ch=1 n=a4 v=114
249600 On ch=1 n=c5 v=114
249600 On ch=1 n=f5 v=114
249840 On ch=1 n=f5 v=0
249840 On ch=1 n=c5 v=0
249840 On ch=1 n=a4 v=0
249840 On ch=1 n=f#4 v=0
249840 On ch=1 n=f#4 v=114
249840 On ch=1 n=a4 v=114
249840 On ch=1 n=c5 v=114
249840 On ch=1 n=f5 v=114
250080 On ch=1 n=f5 v=0
250080 On ch=1 n=c5 v=0
250080 On ch=1 n=a4 v=0
250080 On ch=1 n=f#4 v=0
250080 On ch=1 n=f#4 v=114
250080 On ch=1 n=a4 v=114
250080 On ch=1 n=c5 v=114
250080 On ch=1 n=f5 v=114
250320 On ch=1 n=f5 v=0
250320 On ch=1 n=c5 v=0
250320 On ch=1 n=a4 v=0
250320 On ch=1 n=f#4 v=0
250320 On ch=1 n=f#4 v=114
250320 On ch=1 n=a4 v=114
250320 On ch=1 n=c5 v=114
250320 On ch=1 n=f5 v=114
250560 On ch=1 n=f5 v=0
250560 On ch=1 n=c5 v=0
250560 On ch=1 n=a4 v=0
250560 On ch=1 n=f#4 v=0
250560 On ch=1 n=f#4 v=127
250560 On ch=1 n=g#4 v=127
250560 On ch=1 n=c5 v=127
250560 On ch=1 n=f5 v=127
250800 On ch=1 n=f5 v=0
250800 On ch=1 n=c5 v=0
250800 On ch=1 n=g#4 v=0
250800 On ch=1 n=f#4 v=0
250800 On ch=1 n=f#4 v=114
250800 On ch=1 n=g#4 v=114
250800 On ch=1 n=c5 v=114
250800 On ch=1 n=f5 v=114
251040 On ch=1 n=f5 v=0
251040 On ch=1 n=c5 v=0
251040 On ch=1 n=g#4 v=0
251040 On ch=1 n=f#4 v=0
251040 On ch=1 n=f#4 v=114
251040 On ch=1 n=g#4 v=114
251040 On ch=1 n=c5 v=114
251040 On ch=1 n=f5 v=114
251280 On ch=1 n=f5 v=0
251280 On ch=1 n=c5 v=0
251280 On ch=1 n=g#4 v=0
251280 On ch=1 n=f#4 v=0
251280 On ch=1 n=f#4 v=127
251280 On ch=1 n=g#4 v=127
251280 On ch=1 n=c5 v=127
251280 On ch=1 n=d#5 v=127
251520 On ch=1 n=d#5 v=0
251520 On ch=1 n=c5 v=0
251520 On ch=1 n=g#4 v=0
251520 On ch=1 n=f#4 v=0
251520 On ch=1 n=f#4 v=114
251520 On ch=1 n=g#4 v=114
251520 On ch=1 n=c5 v=114
251520 On ch=1 n=d#5 v=114
251760 On ch=1 n=d#5 v=0
251760 On ch=1 n=c5 v=0
251760 On ch=1 n=g#4 v=0
251760 On ch=1 n=f#4 v=0
251760 On ch=1 n=f#4 v=114
251760 On ch=1 n=g#4 v=114
251760 On ch=1 n=c5 v=114
251760 On ch=1 n=d#5 v=114
252000 On ch=1 n=d#5 v=0
252000 On ch=1 n=c5 v=0
252000 On ch=1 n=g#4 v=0
252000 On ch=1 n=f#4 v=0
252000 On ch=1 n=f4 v=127
252000 On ch=1 n=g#4 v=127
252000 On ch=1 n=c#5 v=127
252240 On ch=1 n=c#5 v=0
252240 On ch=1 n=g#4 v=0
252240 On ch=1 n=f4 v=0
252240 On ch=1 n=f5 v=114
252240 On ch=1 n=g#5 v=114
252240 On ch=1 n=c#6 v=114
252240 On ch=1 n=f6 v=114
252480 On ch=1 n=f6 v=0
252480 On ch=1 n=c#6 v=0
252480 On ch=1 n=g#5 v=0
252480 On ch=1 n=f5 v=0
252480 On ch=1 n=c#5 v=114
252480 On ch=1 n=f5 v=114
252480 On ch=1 n=g#5 v=114
252480 On ch=1 n=c#6 v=114
252720 On ch=1 n=c#6 v=0
252720 On ch=1 n=g#5 v=0
252720 On ch=1 n=f5 v=0
252720 On ch=1 n=c#5 v=0
252720 On ch=1 n=f5 v=114
252720 On ch=1 n=g#5 v=114
252720 On ch=1 n=c#6 v=114
252720 On ch=1 n=f6 v=114
252960 On ch=1 n=f6 v=0
252960 On ch=1 n=c#6 v=0
252960 On ch=1 n=g#5 v=0
252960 On ch=1 n=f5 v=0
252960 On ch=1 n=g#5 v=114
252960 On ch=1 n=c#6 v=114
252960 On ch=1 n=f6 v=114
252960 On ch=1 n=g#6 v=114
253200 On ch=1 n=g#6 v=0
253200 On ch=1 n=f6 v=0
253200 On ch=1 n=c#6 v=0
253200 On ch=1 n=g#5 v=0
253200 On ch=1 n=a#5 v=114
253200 On ch=1 n=c#6 v=114
253200 On ch=1 n=f6 v=114
253200 On ch=1 n=a#6 v=114
253440 On ch=1 n=a#6 v=0
253440 On ch=1 n=f6 v=0
253440 On ch=1 n=c#6 v=0
253440 On ch=1 n=a#5 v=0
253440 On ch=1 n=g#5 v=114
253440 On ch=1 n=c#6 v=114
253440 On ch=1 n=f6 v=114
253440 On ch=1 n=g#6 v=114
253680 On ch=1 n=g#6 v=0
253680 On ch=1 n=f6 v=0
253680 On ch=1 n=c#6 v=0
253680 On ch=1 n=g#5 v=0
253680 On ch=1 n=f5 v=114
253680 On ch=1 n=g#5 v=114
253680 On ch=1 n=c#6 v=114
253680 On ch=1 n=f6 v=114
253920 On ch=1 n=f6 v=0
253920 On ch=1 n=c#6 v=0
253920 On ch=1 n=g#5 v=0
253920 On ch=1 n=f5 v=0
253920 On ch=1 n=c#5 v=114
253920 On ch=1 n=f5 v=114
253920 On ch=1 n=g#5 v=114
253920 On ch=1 n=c#6 v=114
254160 On ch=1 n=c#6 v=0
254160 On ch=1 n=g#5 v=0
254160 On ch=1 n=f5 v=0
254160 On ch=1 n=c#5 v=0
254160 On ch=1 n=f5 v=114
254160 On ch=1 n=g#5 v=114
254160 On ch=1 n=c#6 v=114
254160 On ch=1 n=f6 v=114
254400 On ch=1 n=f6 v=0
254400 On ch=1 n=c#6 v=0
254400 On ch=1 n=g#5 v=0
254400 On ch=1 n=f5 v=0
254400 On ch=1 n=g#5 v=114
254400 On ch=1 n=c#6 v=114
254400 On ch=1 n=f6 v=114
254400 On ch=1 n=g#6 v=114
254640 On ch=1 n=g#6 v=0
254640 On ch=1 n=f6 v=0
254640 On ch=1 n=c#6 v=0
254640 On ch=1 n=g#5 v=0
254640 On ch=1 n=a#5 v=114
254640 On ch=1 n=c#6 v=114
254640 On ch=1 n=f6 v=114
254640 On ch=1 n=a#6 v=114
254880 On ch=1 n=a#6 v=0
254880 On ch=1 n=f6 v=0
254880 On ch=1 n=c#6 v=0
254880 On ch=1 n=a#5 v=0
254880 On ch=1 n=c#6 v=114
254880 On ch=1 n=f6 v=114
254880 On ch=1 n=g#6 v=114
254880 On ch=1 n=c#7 v=114
255120 On ch=1 n=c#7 v=0
255120 On ch=1 n=g#6 v=0
255120 On ch=1 n=f6 v=0
255120 On ch=1 n=c#6 v=0
255120 On ch=1 n=f6 v=114
255120 On ch=1 n=g#6 v=114
255120 On ch=1 n=c#7 v=114
255120 On ch=1 n=f7 v=114
255360 On ch=1 n=f7 v=0
255360 On ch=1 n=c#7 v=0
255360 On ch=1 n=g#6 v=0
255360 On ch=1 n=f6 v=0
255360 On ch=1 n=g#6 v=114
255360 On ch=1 n=c#7 v=114
255360 On ch=1 n=f7 v=114
255360 On ch=1 n=g#7 v=114
255600 On ch=1 n=g#7 v=0
255600 On ch=1 n=f7 v=0
255600 On ch=1 n=c#7 v=0
255600 On ch=1 n=g#6 v=0
255600 On ch=1 n=a#6 v=114
255600 On ch=1 n=c#7 v=114
255600 On ch=1 n=f7 v=114
255600 On ch=1 n=a#7 v=114
255840 On ch=1 n=a#7 v=0
255840 On ch=1 n=f7 v=0
255840 On ch=1 n=c#7 v=0
255840 On ch=1 n=a#6 v=0
255840 On ch=1 n=c7 v=114
255840 On ch=1 n=d#7 v=114
255840 On ch=1 n=g#7 v=114
255840 On ch=1 n=c8 v=114
256800 On ch=1 n=c8 v=0
256800 On ch=1 n=g#7 v=0
256800 On ch=1 n=d#7 v=0
256800 On ch=1 n=c7 v=0
256800 On ch=1 n=d#7 v=114
256800 On ch=1 n=g#7 v=114
256800 On ch=1 n=c8 v=114
256800 On ch=1 n=d#8 v=114
257280 On ch=1 n=d#8 v=0
257280 On ch=1 n=c8 v=0
257280 On ch=1 n=g#7 v=0
257280 On ch=1 n=d#7 v=0
257640 On ch=1 n=c5 v=114
257640 On ch=1 n=d#5 v=114
257640 On ch=1 n=g#5 v=114
257640 On ch=1 n=c6 v=114
257760 On ch=1 n=c6 v=0
257760 On ch=1 n=g#5 v=0
257760 On ch=1 n=d#5 v=0
257760 On ch=1 n=c5 v=0
257760 On ch=1 n=c5 v=114
257760 On ch=1 n=d#5 v=114
257760 On ch=1 n=g#5 v=114
257760 On ch=1 n=c6 v=114
258720 On ch=1 n=c6 v=0
258720 On ch=1 n=g#5 v=0
258720 On ch=1 n=d#5 v=0
258720 On ch=1 n=c5 v=0
258720 On ch=1 n=g#4 v=114
258720 On ch=1 n=c5 v=114
258720 On ch=1 n=d#5 v=114
258720 On ch=1 n=g#5 v=114
259200 On ch=1 n=g#5 v=0
259200 On ch=1 n=d#5 v=0
259200 On ch=1 n=c5 v=0
259200 On ch=1 n=g#4 v=0
259920 On ch=1 n=f#5 v=114
259920 On ch=1 n=a#5 v=114
259920 On ch=1 n=d#6 v=114
259920 On ch=1 n=f#6 v=114
260160 On ch=1 n=f#6 v=0
260160 On ch=1 n=d#6 v=0
260160 On ch=1 n=a#5 v=0
260160 On ch=1 n=f#5 v=0
260160 On ch=1 n=d#5 v=114
260160 On ch=1 n=f#5 v=114
260160 On ch=1 n=a#5 v=114
260160 On ch=1 n=d#6 v=114
260400 On ch=1 n=d#6 v=0
260400 On ch=1 n=a#5 v=0
260400 On ch=1 n=f#5 v=0
260400 On ch=1 n=d#5 v=0
260400 On ch=1 n=f#5 v=114
260400 On ch=1 n=a#5 v=114
260400 On ch=1 n=d#6 v=114
260400 On ch=1 n=f#6 v=114
260640 On ch=1 n=f#6 v=0
260640 On ch=1 n=d#6 v=0
260640 On ch=1 n=a#5 v=0
260640 On ch=1 n=f#5 v=0
260640 On ch=1 n=a#5 v=114
260640 On ch=1 n=d#6 v=114
260640 On ch=1 n=f#6 v=114
260640 On ch=1 n=a#6 v=114
260880 On ch=1 n=a#6 v=0
260880 On ch=1 n=f#6 v=0
260880 On ch=1 n=d#6 v=0
260880 On ch=1 n=a#5 v=0
260880 On ch=1 n=b5 v=114
260880 On ch=1 n=d#6 v=114
260880 On ch=1 n=f#6 v=114
260880 On ch=1 n=b6 v=114
261120 On ch=1 n=b6 v=0
261120 On ch=1 n=f#6 v=0
261120 On ch=1 n=d#6 v=0
261120 On ch=1 n=b5 v=0
261120 On ch=1 n=a#5 v=114
261120 On ch=1 n=d#6 v=114
261120 On ch=1 n=f#6 v=114
261120 On ch=1 n=a#6 v=114
261360 On ch=1 n=a#6 v=0
261360 On ch=1 n=f#6 v=0
261360 On ch=1 n=d#6 v=0
261360 On ch=1 n=a#5 v=0
261360 On ch=1 n=f#5 v=114
261360 On ch=1 n=a#5 v=114
261360 On ch=1 n=d#6 v=114
261360 On ch=1 n=f#6 v=114
261600 On ch=1 n=f#6 v=0
261600 On ch=1 n=d#6 v=0
261600 On ch=1 n=a#5 v=0
261600 On ch=1 n=f#5 v=0
261600 On ch=1 n=d#5 v=114
261600 On ch=1 n=f#5 v=114
261600 On ch=1 n=a#5 v=114
261600 On ch=1 n=d#6 v=114
261840 On ch=1 n=d#6 v=0
261840 On ch=1 n=a#5 v=0
261840 On ch=1 n=f#5 v=0
261840 On ch=1 n=d#5 v=0
261840 On ch=1 n=f#5 v=114
261840 On ch=1 n=a#5 v=114
261840 On ch=1 n=d#6 v=114
261840 On ch=1 n=f#6 v=114
262080 On ch=1 n=f#6 v=0
262080 On ch=1 n=d#6 v=0
262080 On ch=1 n=a#5 v=0
262080 On ch=1 n=f#5 v=0
262080 On ch=1 n=a#5 v=114
262080 On ch=1 n=d#6 v=114
262080 On ch=1 n=f#6 v=114
262080 On ch=1 n=a#6 v=114
262320 On ch=1 n=a#6 v=0
262320 On ch=1 n=f#6 v=0
262320 On ch=1 n=d#6 v=0
262320 On ch=1 n=a#5 v=0
262320 On ch=1 n=b5 v=114
262320 On ch=1 n=d#6 v=114
262320 On ch=1 n=f#6 v=114
262320 On ch=1 n=b6 v=114
262560 On ch=1 n=b6 v=0
262560 On ch=1 n=f#6 v=0
262560 On ch=1 n=d#6 v=0
262560 On ch=1 n=b5 v=0
262560 On ch=1 n=d#6 v=114
262560 On ch=1 n=f#6 v=114
262560 On ch=1 n=a#6 v=114
262560 On ch=1 n=d#7 v=114
262800 On ch=1 n=d#7 v=0
262800 On ch=1 n=a#6 v=0
262800 On ch=1 n=f#6 v=0
262800 On ch=1 n=d#6 v=0
262800 On ch=1 n=f#6 v=114
262800 On ch=1 n=a#6 v=114
262800 On ch=1 n=d#7 v=114
262800 On ch=1 n=f#7 v=114
263040 On ch=1 n=f#7 v=0
263040 On ch=1 n=d#7 v=0
263040 On ch=1 n=a#6 v=0
263040 On ch=1 n=f#6 v=0
263040 On ch=1 n=a#6 v=114
263040 On ch=1 n=d#7 v=114
263040 On ch=1 n=f#7 v=114
263040 On ch=1 n=a#7 v=114
263280 On ch=1 n=a#7 v=0
263280 On ch=1 n=f#7 v=0
263280 On ch=1 n=d#7 v=0
263280 On ch=1 n=a#6 v=0
263400 On ch=1 n=c7 v=114
263400 On ch=1 n=d#7 v=114
263400 On ch=1 n=f#7 v=114
263400 On ch=1 n=c8 v=114
263520 On ch=1 n=c8 v=0
263520 On ch=1 n=f#7 v=0
263520 On ch=1 n=d#7 v=0
263520 On ch=1 n=c7 v=0
263520 On ch=1 n=d7 v=114
263520 On ch=1 n=f7 v=114
263520 On ch=1 n=a#7 v=114
263520 On ch=1 n=d8 v=114
264480 On ch=1 n=d8 v=0
264480 On ch=1 n=a#7 v=0
264480 On ch=1 n=f7 v=0
264480 On ch=1 n=d7 v=0
264480 On ch=1 n=f7 v=114
264480 On ch=1 n=a#7 v=114
264480 On ch=1 n=d8 v=114
264480 On ch=1 n=f8 v=114
264960 On ch=1 n=f8 v=0
264960 On ch=1 n=d8 v=0
264960 On ch=1 n=a#7 v=0
264960 On ch=1 n=f7 v=0
265320 On ch=1 n=d5 v=114
265320 On ch=1 n=f5 v=114
265320 On ch=1 n=a#5 v=114
265320 On ch=1 n=d6 v=114
265440 On ch=1 n=d6 v=0
265440 On ch=1 n=a#5 v=0
265440 On ch=1 n=f5 v=0
265440 On ch=1 n=d5 v=0
265440 On ch=1 n=d5 v=114
265440 On ch=1 n=f5 v=114
265440 On ch=1 n=a#5 v=114
265440 On ch=1 n=d6 v=114
266400 On ch=1 n=d6 v=0
266400 On ch=1 n=a#5 v=0
266400 On ch=1 n=f5 v=0
266400 On ch=1 n=d5 v=0
266400 On ch=1 n=a#4 v=114
266400 On ch=1 n=d5 v=114
266400 On ch=1 n=f5 v=114
266400 On ch=1 n=a#5 v=114
266880 On ch=1 n=a#5 v=0
266880 On ch=1 n=f5 v=0
266880 On ch=1 n=d5 v=0
266880 On ch=1 n=a#4 v=0
267600 On ch=1 n=a#5 v=114
267600 On ch=1 n=c#6 v=114
267600 On ch=1 n=f#6 v=114
267600 On ch=1 n=a#6 v=114
267840 On ch=1 n=a#6 v=0
267840 On ch=1 n=f#6 v=0
267840 On ch=1 n=c#6 v=0
267840 On ch=1 n=a#5 v=0
267840 On ch=1 n=f#5 v=114
267840 On ch=1 n=a#5 v=114
267840 On ch=1 n=c#6 v=114
267840 On ch=1 n=f#6 v=114
268080 On ch=1 n=f#6 v=0
268080 On ch=1 n=c#6 v=0
268080 On ch=1 n=a#5 v=0
268080 On ch=1 n=f#5 v=0
268080 On ch=1 n=a#5 v=114
268080 On ch=1 n=c#6 v=114
268080 On ch=1 n=f#6 v=114
268080 On ch=1 n=a#6 v=114
268320 On ch=1 n=a#6 v=0
268320 On ch=1 n=f#6 v=0
268320 On ch=1 n=c#6 v=0
268320 On ch=1 n=a#5 v=0
268320 On ch=1 n=c#6 v=114
268320 On ch=1 n=f#6 v=114
268320 On ch=1 n=a#6 v=114
268320 On ch=1 n=c#7 v=114
268560 On ch=1 n=c#7 v=0
268560 On ch=1 n=a#6 v=0
268560 On ch=1 n=f#6 v=0
268560 On ch=1 n=c#6 v=0
268560 On ch=1 n=d#6 v=114
268560 On ch=1 n=f#6 v=114
268560 On ch=1 n=a#6 v=114
268560 On ch=1 n=d#7 v=114
268800 On ch=1 n=d#7 v=0
268800 On ch=1 n=a#6 v=0
268800 On ch=1 n=f#6 v=0
268800 On ch=1 n=d#6 v=0
268800 On ch=1 n=c#6 v=114
268800 On ch=1 n=f#6 v=114
268800 On ch=1 n=a#6 v=114
268800 On ch=1 n=c#7 v=114
269040 On ch=1 n=c#7 v=0
269040 On ch=1 n=a#6 v=0
269040 On ch=1 n=f#6 v=0
269040 On ch=1 n=c#6 v=0
269040 On ch=1 n=a#5 v=114
269040 On ch=1 n=c#6 v=114
269040 On ch=1 n=f#6 v=114
269040 On ch=1 n=a#6 v=114
269280 On ch=1 n=a#6 v=0
269280 On ch=1 n=f#6 v=0
269280 On ch=1 n=c#6 v=0
269280 On ch=1 n=a#5 v=0
269280 On ch=1 n=f#5 v=114
269280 On ch=1 n=a#5 v=114
269280 On ch=1 n=c#6 v=114
269280 On ch=1 n=f#6 v=114
269520 On ch=1 n=f#6 v=0
269520 On ch=1 n=c#6 v=0
269520 On ch=1 n=a#5 v=0
269520 On ch=1 n=f#5 v=0
269520 On ch=1 n=a#5 v=114
269520 On ch=1 n=c#6 v=114
269520 On ch=1 n=f#6 v=114
269520 On ch=1 n=a#6 v=114
269760 On ch=1 n=a#6 v=0
269760 On ch=1 n=f#6 v=0
269760 On ch=1 n=c#6 v=0
269760 On ch=1 n=a#5 v=0
269760 On ch=1 n=c#6 v=114
269760 On ch=1 n=f#6 v=114
269760 On ch=1 n=a#6 v=114
269760 On ch=1 n=c#7 v=114
270000 On ch=1 n=c#7 v=0
270000 On ch=1 n=a#6 v=0
270000 On ch=1 n=f#6 v=0
270000 On ch=1 n=c#6 v=0
270000 On ch=1 n=d#6 v=114
270000 On ch=1 n=f#6 v=114
270000 On ch=1 n=a#6 v=114
270000 On ch=1 n=d#7 v=114
270240 On ch=1 n=d#7 v=0
270240 On ch=1 n=a#6 v=0
270240 On ch=1 n=f#6 v=0
270240 On ch=1 n=d#6 v=0
270240 On ch=1 n=f#6 v=114
270240 On ch=1 n=a#6 v=114
270240 On ch=1 n=c#7 v=114
270240 On ch=1 n=f#7 v=114
270480 On ch=1 n=f#7 v=0
270480 On ch=1 n=c#7 v=0
270480 On ch=1 n=a#6 v=0
270480 On ch=1 n=f#6 v=0
270480 On ch=1 n=a#6 v=114
270480 On ch=1 n=c#7 v=114
270480 On ch=1 n=f#7 v=114
270480 On ch=1 n=a#7 v=114
270720 On ch=1 n=a#7 v=0
270720 On ch=1 n=f#7 v=0
270720 On ch=1 n=c#7 v=0
270720 On ch=1 n=a#6 v=0
270720 On ch=1 n=c#7 v=114
270720 On ch=1 n=f#7 v=114
270720 On ch=1 n=a#7 v=114
270720 On ch=1 n=c#8 v=114
270960 On ch=1 n=c#8 v=0
270960 On ch=1 n=a#7 v=0
270960 On ch=1 n=f#7 v=0
270960 On ch=1 n=c#7 v=0
270960 On ch=1 n=d#7 v=114
270960 On ch=1 n=f#7 v=114
270960 On ch=1 n=a#7 v=114
270960 On ch=1 n=d#8 v=114
271200 On ch=1 n=d#8 v=0
271200 On ch=1 n=a#7 v=0
271200 On ch=1 n=f#7 v=0
271200 On ch=1 n=d#7 v=0
271200 On ch=1 n=c#7 v=75
271200 On ch=1 n=f#7 v=75
271200 On ch=1 n=a7 v=75
271200 On ch=1 n=c#8 v=75
271223 On ch=1 n=c#7 v=0
271247 On ch=1 n=f#7 v=0
271272 On ch=1 n=a7 v=0
271296 On ch=1 n=c#8 v=0
271440 On ch=1 n=f#7 v=75
271440 On ch=1 n=a7 v=75
271440 On ch=1 n=d#8 v=75
271473 On ch=1 n=f#7 v=0
271504 On ch=1 n=a7 v=0
271536 On ch=1 n=d#8 v=0
271680 On ch=1 n=f#7 v=75
271680 On ch=1 n=a7 v=75
271680 On ch=1 n=c#8 v=75
271713 On ch=1 n=f#7 v=0
271744 On ch=1 n=a7 v=0
271776 On ch=1 n=c#8 v=0
271920 On ch=1 n=c#7 v=75
271920 On ch=1 n=f#7 v=75
271920 On ch=1 n=a7 v=75
271953 On ch=1 n=c#7 v=0
271984 On ch=1 n=f#7 v=0
272016 On ch=1 n=a7 v=0
272160 On ch=1 n=a6 v=75
272160 On ch=1 n=c#7 v=75
272160 On ch=1 n=f#7 v=75
272193 On ch=1 n=a6 v=0
272224 On ch=1 n=c#7 v=0
272256 On ch=1 n=f#7 v=0
272400 On ch=1 n=f#6 v=75
272400 On ch=1 n=a6 v=75
272400 On ch=1 n=d#7 v=75
272433 On ch=1 n=f#6 v=0
272464 On ch=1 n=a6 v=0
272496 On ch=1 n=d#7 v=0
272640 On ch=1 n=f#6 v=75
272640 On ch=1 n=a6 v=75
272640 On ch=1 n=c#7 v=75
272673 On ch=1 n=f#6 v=0
272704 On ch=1 n=a6 v=0
272736 On ch=1 n=c#7 v=0
272880 On ch=1 n=f#6 v=75
272880 On ch=1 n=a6 v=75
272880 On ch=1 n=d#7 v=75
272913 On ch=1 n=f#6 v=0
272944 On ch=1 n=a6 v=0
272976 On ch=1 n=d#7 v=0
273120 On ch=1 n=f#6 v=62
273120 On ch=1 n=a6 v=62
273120 On ch=1 n=c#7 v=62
273153 On ch=1 n=f#6 v=0
273184 On ch=1 n=a6 v=0
273216 On ch=1 n=c#7 v=0
273360 On ch=1 n=c#6 v=62
273360 On ch=1 n=f#6 v=62
273360 On ch=1 n=a6 v=62
273393 On ch=1 n=c#6 v=0
273424 On ch=1 n=f#6 v=0
273456 On ch=1 n=a6 v=0
273600 On ch=1 n=a5 v=62
273600 On ch=1 n=c#6 v=62
273600 On ch=1 n=f#6 v=62
273633 On ch=1 n=a5 v=0
273664 On ch=1 n=c#6 v=0
273696 On ch=1 n=f#6 v=0
273840 On ch=1 n=f#5 v=62
273840 On ch=1 n=a5 v=62
273840 On ch=1 n=d#6 v=62
273873 On ch=1 n=f#5 v=0
273904 On ch=1 n=a5 v=0
273936 On ch=1 n=d#6 v=0
274080 On ch=1 n=f#5 v=62
274080 On ch=1 n=a5 v=62
274080 On ch=1 n=c#6 v=62
274113 On ch=1 n=f#5 v=0
274144 On ch=1 n=a5 v=0
274176 On ch=1 n=c#6 v=0
274320 On ch=1 n=f#5 v=62
274320 On ch=1 n=a5 v=62
274320 On ch=1 n=d#6 v=62
274353 On ch=1 n=f#5 v=0
274384 On ch=1 n=a5 v=0
274416 On ch=1 n=d#6 v=0
274560 On ch=1 n=f#5 v=62
274560 On ch=1 n=a5 v=62
274560 On ch=1 n=c#6 v=62
274593 On ch=1 n=f#5 v=0
274624 On ch=1 n=a5 v=0
274656 On ch=1 n=c#6 v=0
274800 On ch=1 n=c#5 v=62
274800 On ch=1 n=f#5 v=62
274800 On ch=1 n=a5 v=62
274833 On ch=1 n=c#5 v=0
274864 On ch=1 n=f#5 v=0
274896 On ch=1 n=a5 v=0
275040 On ch=1 n=g#4 v=49
275040 On ch=1 n=f5 v=49
275040 On ch=1 n=g#5 v=49
276000 On ch=1 n=g#5 v=0
276000 On ch=1 n=f5 v=0
276000 On ch=1 n=g#4 v=0
276000 On ch=1 n=g#4 v=49
276000 On ch=1 n=f#5 v=49
276000 On ch=1 n=g#5 v=49
276960 On ch=1 n=g#5 v=0
276960 On ch=1 n=f#5 v=0
276960 On ch=1 n=g#4 v=0
276960 On ch=1 n=g#4 v=49
276960 On ch=1 n=d#5 v=49
276960 On ch=1 n=g#5 v=49
278400 On ch=1 n=g#5 v=0
278400 On ch=1 n=d#5 v=0
278400 On ch=1 n=g#4 v=0
278400 On ch=1 n=g#4 v=49
278400 On ch=1 n=f5 v=49
278400 On ch=1 n=g#5 v=49
278880 On ch=1 n=g#5 v=0
278880 On ch=1 n=f5 v=0
278880 On ch=1 n=g#4 v=0
278880 On ch=1 n=g#4 v=49
278880 On ch=1 n=f#5 v=49
278880 On ch=1 n=g#5 v=49
279840 On ch=1 n=g#5 v=0
279840 On ch=1 n=f#5 v=0
279840 On ch=1 n=g#4 v=0
279840 On ch=1 n=a#5 v=49
279840 On ch=1 n=c5 v=49
279840 On ch=1 n=f#5 v=49
280560 On ch=1 n=a#5 v=0
280560 On ch=1 n=g#5 v=49
280800 On ch=1 n=g#5 v=0
280800 On ch=1 n=f#5 v=0
280800 On ch=1 n=c5 v=0
280800 On ch=1 n=f4 v=75
280800 On ch=1 n=g#4 v=75
280800 On ch=1 n=f5 v=75
281040 On ch=1 n=f5 v=0
281040 On ch=1 n=g#4 v=0
281040 On ch=1 n=f4 v=0
281040 On ch=1 n=d5 v=49
281280 On ch=1 n=d5 v=0
281280 On ch=1 n=b4 v=49
281520 On ch=1 n=b4 v=0
281520 On ch=1 n=f4 v=49
281520 On ch=1 n=g#4 v=49
281760 On ch=1 n=g#4 v=0
281760 On ch=1 n=g4 v=49
282000 On ch=1 n=g4 v=0
282000 On ch=1 n=f4 v=0
282000 On ch=1 n=f4 v=49
282000 On ch=1 n=g#4 v=49
282240 On ch=1 n=a#4 v=49
282480 On ch=1 n=a#4 v=0
282480 On ch=1 n=g#4 v=0
282480 On ch=1 n=f4 v=0
282480 On ch=1 n=f4 v=49
282480 On ch=1 n=g#4 v=49
282480 On ch=1 n=b4 v=49
282720 On ch=1 n=c#5 v=49
282960 On ch=1 n=c#5 v=0
282960 On ch=1 n=b4 v=0
282960 On ch=1 n=g#4 v=0
282960 On ch=1 n=f4 v=0
282960 On ch=1 n=f4 v=49
282960 On ch=1 n=g#4 v=49
282960 On ch=1 n=b4 v=49
282960 On ch=1 n=d5 v=49
283200 On ch=1 n=d5 v=0
283200 On ch=1 n=e5 v=49
283440 On ch=1 n=e5 v=0
283440 On ch=1 n=b4 v=0
283440 On ch=1 n=g#4 v=0
283440 On ch=1 n=f4 v=0
283440 On ch=1 n=f4 v=49
283440 On ch=1 n=g#4 v=49
283440 On ch=1 n=b4 v=49
283440 On ch=1 n=f5 v=49
283680 On ch=1 n=f5 v=0
283680 On ch=1 n=b4 v=0
283680 On ch=1 n=g#4 v=0
283680 On ch=1 n=f4 v=0
283680 On ch=1 n=g5 v=49
283920 On ch=1 n=g5 v=0
283920 On ch=1 n=g#5 v=49
284160 On ch=1 n=g#5 v=0
284160 On ch=1 n=a#5 v=49
284400 On ch=1 n=a#5 v=0
284400 On ch=1 n=b5 v=49
284640 On ch=1 n=b5 v=0
284640 On ch=1 n=c#5 v=49
284640 On ch=1 n=e5 v=49
284640 On ch=1 n=c#6 v=49
284880 On ch=1 n=c#6 v=0
284880 On ch=1 n=e5 v=0
284880 On ch=1 n=c#5 v=0
284880 On ch=1 n=a5 v=49
285120 On ch=1 n=a5 v=0
285120 On ch=1 n=e5 v=49
285360 On ch=1 n=e5 v=0
285360 On ch=1 n=a4 v=49
285360 On ch=1 n=c#5 v=49
285600 On ch=1 n=c#5 v=0
285600 On ch=1 n=c5 v=49
285840 On ch=1 n=c5 v=0
285840 On ch=1 n=a4 v=0
285840 On ch=1 n=a4 v=49
285840 On ch=1 n=c#5 v=49
286080 On ch=1 n=d#5 v=49
286320 On ch=1 n=d#5 v=0
286320 On ch=1 n=c#5 v=0
286320 On ch=1 n=a4 v=0
286320 On ch=1 n=a4 v=49
286320 On ch=1 n=c#5 v=49
286320 On ch=1 n=e5 v=49
286560 On ch=1 n=e5 v=0
286560 On ch=1 n=f#5 v=49
286800 On ch=1 n=f#5 v=0
286800 On ch=1 n=c#5 v=0
286800 On ch=1 n=a4 v=0
286800 On ch=1 n=a4 v=49
286800 On ch=1 n=c#5 v=49
286800 On ch=1 n=g#5 v=49
287040 On ch=1 n=g#5 v=0
287040 On ch=1 n=a5 v=49
287280 On ch=1 n=a5 v=0
287280 On ch=1 n=c#5 v=0
287280 On ch=1 n=a4 v=0
287280 On ch=1 n=b5 v=49
287520 On ch=1 n=b5 v=0
287520 On ch=1 n=c#6 v=49
287760 On ch=1 n=c#6 v=0
287760 On ch=1 n=d6 v=49
288000 On ch=1 n=d6 v=0
288000 On ch=1 n=d#6 v=49
288240 On ch=1 n=d#6 v=0
288240 On ch=1 n=e6 v=49
288480 On ch=1 n=e6 v=0
288480 On ch=1 n=f#5 v=49
288480 On ch=1 n=a5 v=49
288480 On ch=1 n=f#6 v=49
288720 On ch=1 n=f#6 v=0
288720 On ch=1 n=a5 v=0
288720 On ch=1 n=f#5 v=0
288720 On ch=1 n=d6 v=49
288960 On ch=1 n=d6 v=0
288960 On ch=1 n=a5 v=49
289200 On ch=1 n=a5 v=0
289200 On ch=1 n=d5 v=49
289200 On ch=1 n=f#5 v=49
289440 On ch=1 n=f#5 v=0
289440 On ch=1 n=f5 v=49
289680 On ch=1 n=f5 v=0
289680 On ch=1 n=d5 v=0
289680 On ch=1 n=d5 v=49
289680 On ch=1 n=f#5 v=49
289920 On ch=1 n=g#5 v=49
290160 On ch=1 n=g#5 v=0
290160 On ch=1 n=f#5 v=0
290160 On ch=1 n=d5 v=0
290160 On ch=1 n=d5 v=49
290160 On ch=1 n=f#5 v=49
290160 On ch=1 n=a5 v=49
290400 On ch=1 n=a5 v=0
290400 On ch=1 n=b5 v=49
290640 On ch=1 n=b5 v=0
290640 On ch=1 n=f#5 v=0
290640 On ch=1 n=d5 v=0
290640 On ch=1 n=d5 v=49
290640 On ch=1 n=f#5 v=49
290640 On ch=1 n=c#6 v=49
290880 On ch=1 n=c#6 v=0
290880 On ch=1 n=d6 v=49
291120 On ch=1 n=d6 v=0
291120 On ch=1 n=f#5 v=0
291120 On ch=1 n=d5 v=0
291120 On ch=1 n=e6 v=49
291360 On ch=1 n=e6 v=0
291360 On ch=1 n=f6 v=49
291600 On ch=1 n=f6 v=0
291600 On ch=1 n=f#6 v=49
291840 On ch=1 n=f#6 v=0
291840 On ch=1 n=g6 v=49
292080 On ch=1 n=g6 v=0
292080 On ch=1 n=g#6 v=49
292320 On ch=1 n=g#6 v=0
292320 On ch=1 n=a6 v=49
292320 On ch=1 n=a5 v=49
292320 On ch=1 n=c6 v=49
292560 On ch=1 n=a6 v=0
292560 On ch=1 n=f#6 v=49
292800 On ch=1 n=f#6 v=0
292800 On ch=1 n=c6 v=0
292800 On ch=1 n=a5 v=0
292800 On ch=1 n=d#6 v=49
293040 On ch=1 n=d#6 v=0
293040 On ch=1 n=d#5 v=49
293040 On ch=1 n=f#5 v=49
293040 On ch=1 n=c6 v=49
293280 On ch=1 n=c6 v=0
293280 On ch=1 n=f#5 v=0
293280 On ch=1 n=d#5 v=0
293280 On ch=1 n=d#5 v=49
293280 On ch=1 n=f#5 v=49
293280 On ch=1 n=b5 v=49
293520 On ch=1 n=b5 v=0
293520 On ch=1 n=f#5 v=0
293520 On ch=1 n=d#5 v=0
293520 On ch=1 n=d#5 v=49
293520 On ch=1 n=f#5 v=49
293520 On ch=1 n=c6 v=49
293760 On ch=1 n=c6 v=0
293760 On ch=1 n=f#5 v=0
293760 On ch=1 n=d#5 v=0
293760 On ch=1 n=f#5 v=49
293760 On ch=1 n=a5 v=49
293760 On ch=1 n=d6 v=49
294000 On ch=1 n=d6 v=0
294000 On ch=1 n=a5 v=0
294000 On ch=1 n=f#5 v=0
294000 On ch=1 n=f#5 v=49
294000 On ch=1 n=a5 v=49
294000 On ch=1 n=d#6 v=49
294240 On ch=1 n=d#6 v=0
294240 On ch=1 n=a5 v=0
294240 On ch=1 n=f#5 v=0
294240 On ch=1 n=a5 v=49
294240 On ch=1 n=c6 v=49
294240 On ch=1 n=f6 v=49
294480 On ch=1 n=f6 v=0
294480 On ch=1 n=c6 v=0
294480 On ch=1 n=a5 v=0
294480 On ch=1 n=a5 v=49
294480 On ch=1 n=c6 v=49
294480 On ch=1 n=f#6 v=49
294720 On ch=1 n=f#6 v=0
294720 On ch=1 n=c6 v=0
294720 On ch=1 n=a5 v=0
294720 On ch=1 n=c6 v=49
294720 On ch=1 n=d#6 v=49
294720 On ch=1 n=g#6 v=49
294960 On ch=1 n=g#6 v=0
294960 On ch=1 n=d#6 v=0
294960 On ch=1 n=c6 v=0
294960 On ch=1 n=c6 v=49
294960 On ch=1 n=d#6 v=49
294960 On ch=1 n=a6 v=49
295200 On ch=1 n=a6 v=0
295200 On ch=1 n=d#6 v=0
295200 On ch=1 n=c6 v=0
295200 On ch=1 n=d#6 v=49
295200 On ch=1 n=f#6 v=49
295200 On ch=1 n=b6 v=49
295440 On ch=1 n=b6 v=0
295440 On ch=1 n=f#6 v=0
295440 On ch=1 n=d#6 v=0
295440 On ch=1 n=d#6 v=49
295440 On ch=1 n=f#6 v=49
295440 On ch=1 n=c7 v=49
295680 On ch=1 n=c7 v=0
295680 On ch=1 n=f#6 v=0
295680 On ch=1 n=d#6 v=0
295680 On ch=1 n=f#6 v=49
295680 On ch=1 n=a6 v=49
295680 On ch=1 n=d7 v=49
295920 On ch=1 n=d7 v=0
295920 On ch=1 n=a6 v=0
295920 On ch=1 n=f#6 v=0
295920 On ch=1 n=f#6 v=49
295920 On ch=1 n=a6 v=49
295920 On ch=1 n=d#7 v=49
296160 On ch=1 n=d#7 v=0
296160 On ch=1 n=a6 v=0
296160 On ch=1 n=f#6 v=0
296400 On ch=1 n=f6 v=36
296480 On ch=1 n=f6 v=0
296480 Par ch=1 c=64 v=0
296480 On ch=1 n=g#6 v=36
296559 On ch=1 n=g#6 v=0
296559 On ch=1 n=f7 v=36
296640 On ch=1 n=f7 v=0
296880 On ch=1 n=c#6 v=36
296960 On ch=1 n=c#6 v=0
296960 On ch=1 n=f6 v=36
297039 On ch=1 n=f6 v=0
297039 Par ch=1 c=64 v=0
297039 On ch=1 n=c#7 v=36
297120 On ch=1 n=c#7 v=0
297360 On ch=1 n=g#5 v=36
297440 On ch=1 n=g#5 v=0
297440 On ch=1 n=c#6 v=36
297519 On ch=1 n=c#6 v=0
297519 Par ch=1 c=64 v=0
297519 On ch=1 n=g#6 v=36
297600 On ch=1 n=g#6 v=0
297840 On ch=1 n=f5 v=36
297920 On ch=1 n=f5 v=0
297920 On ch=1 n=g#5 v=36
297999 On ch=1 n=g#5 v=0
297999 Par ch=1 c=64 v=0
297999 On ch=1 n=f6 v=36
298080 On ch=1 n=f6 v=0
298320 On ch=1 n=e5 v=36
298400 On ch=1 n=e5 v=0
298400 On ch=1 n=g5 v=36
298479 On ch=1 n=g5 v=0
298479 Par ch=1 c=64 v=0
298479 On ch=1 n=e6 v=36
298560 On ch=1 n=e6 v=0
298800 On ch=1 n=f5 v=36
298880 On ch=1 n=f5 v=0
298880 On ch=1 n=g#5 v=36
298959 On ch=1 n=g#5 v=0
298959 Par ch=1 c=64 v=0
298959 On ch=1 n=f6 v=36
299040 On ch=1 n=f6 v=0
299280 On ch=1 n=f#5 v=36
299360 On ch=1 n=f#5 v=0
299360 On ch=1 n=a#5 v=36
299439 On ch=1 n=a#5 v=0
299439 Par ch=1 c=64 v=0
299439 On ch=1 n=f#6 v=36
299520 On ch=1 n=f#6 v=0
299760 On ch=1 n=g5 v=36
299840 On ch=1 n=g5 v=0
299840 On ch=1 n=c#6 v=36
299919 On ch=1 n=c#6 v=0
299919 Par ch=1 c=64 v=0
299919 On ch=1 n=g6 v=36
300000 On ch=1 n=g6 v=0
300240 On ch=1 n=g#5 v=36
300320 On ch=1 n=g#5 v=0
300320 On ch=1 n=c#6 v=36
300399 On ch=1 n=c#6 v=0
300399 Par ch=1 c=64 v=0
300399 On ch=1 n=g#6 v=36
300480 On ch=1 n=g#6 v=0
300720 On ch=1 n=g5 v=36
300780 On ch=1 n=g5 v=0
300780 On ch=1 n=c#6 v=36
300840 On ch=1 n=c#6 v=0
300840 On ch=1 n=e6 v=36
300900 On ch=1 n=e6 v=0
300900 Par ch=1 c=64 v=0
300900 On ch=1 n=a#6 v=36
300960 On ch=1 n=a#6 v=0
301200 On ch=1 n=a5 v=36
301260 On ch=1 n=a5 v=0
301260 On ch=1 n=d#6 v=36
301320 On ch=1 n=d#6 v=0
301320 On ch=1 n=f#6 v=36
301380 On ch=1 n=f#6 v=0
301380 Par ch=1 c=64 v=0
301380 On ch=1 n=c7 v=36
301440 On ch=1 n=c7 v=0
301680 On ch=1 n=g#5 v=36
301740 On ch=1 n=g#5 v=0
301740 On ch=1 n=f6 v=36
301800 On ch=1 n=f6 v=0
301800 On ch=1 n=g#6 v=36
301860 On ch=1 n=g#6 v=0
301860 Par ch=1 c=64 v=0
301860 On ch=1 n=c#7 v=36
301920 On ch=1 n=c#7 v=0
302160 On ch=1 n=c6 v=36
302220 On ch=1 n=c6 v=0
302220 On ch=1 n=f#6 v=36
302280 On ch=1 n=f#6 v=0
302280 Par ch=1 c=64 v=0
302280 On ch=1 n=g#6 v=36
302340 On ch=1 n=g#6 v=0
302340 On ch=1 n=d#7 v=36
302400 On ch=1 n=d#7 v=0
302640 On ch=1 n=c#6 v=36
302700 On ch=1 n=c#6 v=0
302700 On ch=1 n=f6 v=36
302760 On ch=1 n=f6 v=0
302760 Par ch=1 c=64 v=0
302760 On ch=1 n=g#6 v=36
302820 On ch=1 n=g#6 v=0
302820 On ch=1 n=f7 v=36
302880 On ch=1 n=f7 v=0
303120 On ch=1 n=d#6 v=36
303180 On ch=1 n=d#6 v=0
303180 On ch=1 n=g#6 v=36
303240 On ch=1 n=g#6 v=0
303240 On ch=1 n=c7 v=36
303300 On ch=1 n=c7 v=0
303300 Par ch=1 c=64 v=0
303300 On ch=1 n=f#7 v=36
303360 On ch=1 n=f#7 v=0
303600 On ch=1 n=c6 v=36
303660 On ch=1 n=c6 v=0
303660 On ch=1 n=f#6 v=36
303720 On ch=1 n=f#6 v=0
303720 Par ch=1 c=64 v=0
303720 On ch=1 n=g#6 v=36
303780 On ch=1 n=g#6 v=0
303780 On ch=1 n=f#7 v=36
303840 On ch=1 n=f#7 v=0
304080 On ch=1 n=f6 v=36
304160 On ch=1 n=f6 v=0
304160 On ch=1 n=g#6 v=36
304239 On ch=1 n=g#6 v=0
304239 Par ch=1 c=64 v=0
304239 On ch=1 n=f7 v=36
304320 On ch=1 n=f7 v=0
304560 On ch=1 n=c#6 v=36
304640 On ch=1 n=c#6 v=0
304640 On ch=1 n=f6 v=36
304719 On ch=1 n=f6 v=0
304719 Par ch=1 c=64 v=0
304719 On ch=1 n=c#7 v=36
304800 On ch=1 n=c#7 v=0
305040 On ch=1 n=g#5 v=36
305120 On ch=1 n=g#5 v=0
305120 Par ch=1 c=64 v=0
305120 On ch=1 n=c#6 v=36
305199 On ch=1 n=c#6 v=0
305199 On ch=1 n=g#6 v=36
305280 On ch=1 n=g#6 v=0
305520 On ch=1 n=f5 v=36
305600 On ch=1 n=f5 v=0
305600 On ch=1 n=g#5 v=36
305679 On ch=1 n=g#5 v=0
305679 Par ch=1 c=64 v=0
305679 On ch=1 n=f6 v=36
305760 On ch=1 n=f6 v=0
306000 On ch=1 n=e5 v=36
306080 On ch=1 n=e5 v=0
306080 On ch=1 n=g5 v=36
306159 On ch=1 n=g5 v=0
306159 Par ch=1 c=64 v=0
306159 On ch=1 n=e6 v=36
306240 On ch=1 n=e6 v=0
306480 On ch=1 n=f5 v=36
306560 On ch=1 n=f5 v=0
306560 On ch=1 n=g#5 v=36
306639 On ch=1 n=g#5 v=0
306639 Par ch=1 c=64 v=0
306639 On ch=1 n=f6 v=36
306720 On ch=1 n=f6 v=0
306960 On ch=1 n=f#5 v=36
307040 On ch=1 n=f#5 v=0
307040 On ch=1 n=a#5 v=36
307119 On ch=1 n=a#5 v=0
307119 Par ch=1 c=64 v=0
307119 On ch=1 n=f#6 v=36
307200 On ch=1 n=f#6 v=0
307440 On ch=1 n=g5 v=36
307520 On ch=1 n=g5 v=0
307520 On ch=1 n=c#6 v=36
307599 On ch=1 n=c#6 v=0
307599 Par ch=1 c=64 v=0
307599 On ch=1 n=g6 v=36
307680 On ch=1 n=g6 v=0
308640 On ch=1 n=g#5 v=36
308960 On ch=1 n=g#5 v=0
308960 On ch=1 n=c#6 v=36
309279 On ch=1 n=c#6 v=0
309279 Par ch=1 c=64 v=0
309279 On ch=1 n=g#6 v=36
309600 On ch=1 n=g#6 v=0
310560 On ch=1 n=a#5 v=36
310880 On ch=1 n=a#5 v=0
310880 On ch=1 n=f6 v=36
311199 On ch=1 n=f6 v=0
311199 Par ch=1 c=64 v=0
311199 On ch=1 n=c#7 v=36
311520 On ch=1 n=c#7 v=0
312480 On ch=1 n=c6 v=36
312720 On ch=1 n=c6 v=0
312720 On ch=1 n=f6 v=36
312960 On ch=1 n=f6 v=0
312960 On ch=1 n=g#6 v=36
313200 On ch=1 n=g#6 v=0
313200 Par ch=1 c=64 v=0
313200 On ch=1 n=f7 v=36
313440 On ch=1 n=f7 v=0
313920 On ch=1 n=d#5 v=36
313980 On ch=1 n=d#5 v=0
313980 On ch=1 n=f#5 v=36
314040 On ch=1 n=f#5 v=0
314040 On ch=1 n=g#5 v=36
314100 On ch=1 n=g#5 v=0
314100 On ch=1 n=c6 v=36
314160 On ch=1 n=c6 v=0
314160 On ch=1 n=f#6 v=36
314220 On ch=1 n=f#6 v=0
314220 On ch=1 n=g#6 v=36
314280 On ch=1 n=g#6 v=0
314280 On ch=1 n=c7 v=36
314340 On ch=1 n=c7 v=0
314340 On ch=1 n=g#7 v=36
314400 Par ch=1 c=64 v=0
315360 On ch=1 n=g#7 v=0
315780 On ch=1 n=c#5 v=36
315840 On ch=1 n=c#5 v=0
315840 On ch=1 n=f5 v=36
315900 On ch=1 n=f5 v=0
315900 On ch=1 n=g#5 v=36
315960 On ch=1 n=g#5 v=0
315960 On ch=1 n=c#6 v=36
316020 On ch=1 n=c#6 v=0
316020 On ch=1 n=f6 v=36
316050 On ch=1 n=c#6 v=36
316080 On ch=1 n=f6 v=0
316080 On ch=1 n=g#6 v=36
316080 On ch=1 n=f6 v=36
316110 On ch=1 n=g#6 v=36
316140 On ch=1 n=g#6 v=0
316140 On ch=1 n=c#8 v=36
317280 On ch=1 n=c#8 v=0
317280 On ch=1 n=g#6 v=0
317280 On ch=1 n=f6 v=0
317280 On ch=1 n=c#6 v=0
317280 Meta TrkEnd
TrkEnd
MTrk
0 SeqSpec 43 00 01 00
0 Meta TrkName "Left Hand"
0 Meta 0x21 00
0 PrCh ch=1 p=0
0 Par ch=1 c=64 v=120
480 On ch=1 n=g#2 v=90
960 On ch=1 n=g#3 v=90
1440 On ch=1 n=g#2 v=0
1440 On ch=1 n=g#2 v=64
1920 On ch=1 n=g#3 v=0
1920 On ch=1 n=g#3 v=90
3840 Par ch=1 c=64 v=0
4320 On ch=1 n=g#3 v=0
4320 On ch=1 n=g#2 v=0
4320 Par ch=1 c=64 v=120
4320 On ch=1 n=g#2 v=90
4800 On ch=1 n=g#3 v=90
5280 On ch=1 n=g#2 v=0
5280 On ch=1 n=g#2 v=90
5760 On ch=1 n=g#3 v=0
5760 On ch=1 n=g#3 v=90
7680 Par ch=1 c=64 v=0
8160 On ch=1 n=g#3 v=0
8160 On ch=1 n=g#2 v=0
8160 Par ch=1 c=64 v=120
8160 On ch=1 n=g#2 v=90
8640 Par ch=1 c=64 v=0
8640 On ch=1 n=g#3 v=90
9120 On ch=1 n=g#2 v=0
9120 Par ch=1 c=64 v=120
9120 On ch=1 n=g#2 v=90
9600 On ch=1 n=g#3 v=0
9600 Par ch=1 c=64 v=0
9600 Par ch=1 c=64 v=120
9600 On ch=1 n=g#3 v=90
11040 On ch=1 n=g#2 v=0
11040 Par ch=1 c=64 v=120
11040 On ch=1 n=g#2 v=90
11220 On ch=1 n=g#3 v=64
11280 On ch=1 n=g#3 v=0
11280 On ch=1 n=e4 v=64
11340 On ch=1 n=e4 v=0
11340 On ch=1 n=b4 v=64
11400 On ch=1 n=b4 v=0
11520 On ch=1 n=g#3 v=0
11520 On ch=1 n=g#2 v=0
11520 On ch=1 n=e4 v=64
11520 On ch=1 n=b4 v=64
11520 On ch=1 n=g#3 v=64
12960 On ch=1 n=g#3 v=0
12960 On ch=1 n=g#2 v=64
13020 On ch=1 n=g#3 v=64
13080 On ch=1 n=g#3 v=0
13080 On ch=1 n=e4 v=64
13140 On ch=1 n=e4 v=0
13140 On ch=1 n=a4 v=64
13200 On ch=1 n=a4 v=0
13200 On ch=1 n=c#5 v=64
13260 On ch=1 n=c#5 v=0
13440 On ch=1 n=e4 v=0
13440 On ch=1 n=g#2 v=0
13440 On ch=1 n=b4 v=0
13440 Par ch=1 c=64 v=0
13440 Par ch=1 c=64 v=0
13440 On ch=1 n=g#3 v=64
13440 On ch=1 n=e4 v=64
13440 On ch=1 n=a4 v=64
13440 On ch=1 n=c#5 v=64
14310 On ch=1 n=g#3 v=64
14340 On ch=1 n=f#4 v=64
14370 On ch=1 n=a4 v=64
14400 On ch=1 n=c#5 v=0
14400 On ch=1 n=a4 v=0
14400 On ch=1 n=e4 v=0
14400 On ch=1 n=g#3 v=0
14400 Par ch=1 c=64 v=120
14400 On ch=1 n=d5 v=64
14790 On ch=1 n=g#3 v=64
14820 On ch=1 n=f#4 v=64
14850 On ch=1 n=c5 v=64
14880 On ch=1 n=d5 v=0
14880 On ch=1 n=a4 v=0
14880 On ch=1 n=f#4 v=0
14880 On ch=1 n=g#3 v=0
14880 Par ch=1 c=64 v=120
14880 On ch=1 n=d#5 v=64
15060 On ch=1 n=g#2 v=64
15120 On ch=1 n=g#2 v=0
15120 On ch=1 n=g#3 v=64
15180 On ch=1 n=g#3 v=0
15180 On ch=1 n=d#4 v=64
15240 On ch=1 n=d#4 v=0
15240 On ch=1 n=f#4 v=64
15300 On ch=1 n=f#4 v=0
15300 On ch=1 n=c5 v=64
15360 On ch=1 n=f#4 v=0
15360 On ch=1 n=g#3 v=0
15360 On ch=1 n=d#5 v=0
15360 On ch=1 n=c5 v=0
15360 On ch=1 n=d#4 v=64
15360 On ch=1 n=f#4 v=64
15360 On ch=1 n=g#5 v=64
16320 On ch=1 n=g#5 v=0
16320 On ch=1 n=f#4 v=0
16320 On ch=1 n=d#4 v=0
16320 On ch=1 n=c5 v=0
16320 Par ch=1 c=64 v=0
17040 On ch=1 n=g#4 v=64
17200 On ch=1 n=c#4 v=64
17240 On ch=1 n=g#4 v=64
17280 On ch=1 n=g#4 v=0
17280 Par ch=1 c=64 v=120
17280 On ch=1 n=f5 v=64
17520 On ch=1 n=f5 v=0
17520 On ch=1 n=g#4 v=0
17520 On ch=1 n=c#4 v=0
17520 On ch=1 n=f4 v=64
17520 On ch=1 n=c#5 v=64
17760 On ch=1 n=c#5 v=0
17760 On ch=1 n=f4 v=0
17760 On ch=1 n=f4 v=64
17760 On ch=1 n=g#4 v=64
18000 On ch=1 n=g#4 v=0
18000 On ch=1 n=f4 v=0
18000 On ch=1 n=c#4 v=64
18000 On ch=1 n=f4 v=64
18240 On ch=1 n=f4 v=0
18240 On ch=1 n=c#4 v=0
18240 On ch=1 n=c4 v=64
18240 On ch=1 n=d#4 v=64
18480 On ch=1 n=d#4 v=0
18480 On ch=1 n=c4 v=0
18480 On ch=1 n=b3 v=64
18480 On ch=1 n=f4 v=64
18720 On ch=1 n=f4 v=0
18720 On ch=1 n=b3 v=0
18720 On ch=1 n=a#3 v=64
18720 On ch=1 n=f#4 v=64
18960 On ch=1 n=f#4 v=0
18960 On ch=1 n=a#3 v=0
18960 On ch=1 n=a3 v=64
18960 On ch=1 n=e4 v=64
18960 On ch=1 n=g4 v=64
19200 On ch=1 n=g4 v=0
19200 On ch=1 n=e4 v=0
19200 On ch=1 n=a3 v=0
19200 On ch=1 n=g#3 v=64
19200 On ch=1 n=f4 v=64
19200 On ch=1 n=g#4 v=64
19440 On ch=1 n=g#4 v=0
19440 On ch=1 n=f4 v=0
19440 On ch=1 n=g#3 v=0
19440 On ch=1 n=a#4 v=64
19680 On ch=1 n=a#4 v=0
19680 On ch=1 n=e4 v=64
19680 On ch=1 n=g4 v=64
19680 On ch=1 n=c5 v=64
19920 On ch=1 n=c5 v=0
19920 On ch=1 n=g4 v=0
19920 On ch=1 n=e4 v=0
19920 On ch=1 n=f4 v=64
19920 On ch=1 n=g#4 v=64
19920 On ch=1 n=c#5 v=64
20160 On ch=1 n=c#5 v=0
20160 On ch=1 n=g#4 v=0
20160 On ch=1 n=f4 v=0
20160 On ch=1 n=g4 v=64
20160 On ch=1 n=c5 v=64
20160 On ch=1 n=d#5 v=64
20400 On ch=1 n=d#5 v=0
20400 On ch=1 n=c5 v=0
20400 On ch=1 n=g4 v=0
20400 On ch=1 n=f4 v=64
20400 On ch=1 n=c#5 v=64
20400 On ch=1 n=f5 v=64
20640 On ch=1 n=f5 v=0
20640 On ch=1 n=c#5 v=0
20640 On ch=1 n=f4 v=0
20640 On ch=1 n=d#4 v=64
20640 On ch=1 n=c5 v=64
20640 On ch=1 n=f#5 v=64
20880 On ch=1 n=f#5 v=0
20880 On ch=1 n=c5 v=0
20880 On ch=1 n=d#4 v=0
20880 On ch=1 n=g4 v=64
20880 On ch=1 n=c5 v=64
20880 On ch=1 n=d#5 v=64
21120 On ch=1 n=d#5 v=0
21120 On ch=1 n=c5 v=0
21120 On ch=1 n=g4 v=0
21120 On ch=1 n=c#4 v=64
21120 On ch=1 n=g#4 v=64
21120 On ch=1 n=f5 v=64
21360 On ch=1 n=f5 v=0
21360 On ch=1 n=g#4 v=0
21360 On ch=1 n=c#4 v=0
21360 On ch=1 n=f4 v=64
21360 On ch=1 n=c#5 v=64
21600 On ch=1 n=c#5 v=0
21600 On ch=1 n=f4 v=0
21600 On ch=1 n=f4 v=64
21600 On ch=1 n=g#4 v=64
21840 On ch=1 n=g#4 v=0
21840 On ch=1 n=f4 v=0
21840 On ch=1 n=c#4 v=64
21840 On ch=1 n=f4 v=64
22080 On ch=1 n=f4 v=0
22080 On ch=1 n=c#4 v=0
22080 On ch=1 n=c4 v=64
22080 On ch=1 n=d#4 v=64
22320 On ch=1 n=d#4 v=0
22320 On ch=1 n=c4 v=0
22320 On ch=1 n=b3 v=64
22320 On ch=1 n=f4 v=64
22560 On ch=1 n=f4 v=0
22560 On ch=1 n=b3 v=0
22560 On ch=1 n=a#3 v=64
22560 On ch=1 n=f#4 v=64
22800 On ch=1 n=f#4 v=0
22800 On ch=1 n=a#3 v=0
22800 On ch=1 n=a3 v=64
22800 On ch=1 n=e4 v=64
22800 On ch=1 n=g4 v=64
23040 On ch=1 n=g4 v=0
23040 On ch=1 n=e4 v=0
23040 On ch=1 n=a3 v=0
23040 On ch=1 n=g#3 v=64
23040 On ch=1 n=f4 v=64
23040 On ch=1 n=g#4 v=64
23280 On ch=1 n=g#4 v=0
23280 On ch=1 n=f4 v=0
23280 On ch=1 n=g#3 v=0
23280 On ch=1 n=e4 v=64
23280 On ch=1 n=g4 v=64
23280 On ch=1 n=a#4 v=64
23520 On ch=1 n=a#4 v=0
23520 On ch=1 n=g4 v=0
23520 On ch=1 n=e4 v=0
23520 Par ch=1 c=64 v=0
23520 On ch=1 n=d#4 v=64
23520 On ch=1 n=f#4 v=64
23520 On ch=1 n=c5 v=64
23760 On ch=1 n=c5 v=0
23760 On ch=1 n=f#4 v=0
23760 On ch=1 n=d#4 v=0
23760 On ch=1 n=f4 v=64
23760 On ch=1 n=g#4 v=64
23760 On ch=1 n=c#5 v=64
24000 On ch=1 n=c#5 v=0
24000 On ch=1 n=g#4 v=0
24000 On ch=1 n=f4 v=0
24000 On ch=1 n=f#4 v=64
24000 On ch=1 n=c5 v=64
24000 On ch=1 n=d#5 v=64
24240 On ch=1 n=d#5 v=0
24240 On ch=1 n=c5 v=0
24240 On ch=1 n=f#4 v=0
24240 On ch=1 n=f4 v=64
24240 On ch=1 n=c#5 v=64
24240 On ch=1 n=f5 v=64
24480 On ch=1 n=f5 v=0
24480 On ch=1 n=c#5 v=0
24480 On ch=1 n=f4 v=0
24480 On ch=1 n=d#4 v=64
24480 On ch=1 n=c5 v=64
24480 On ch=1 n=f#5 v=64
24720 On ch=1 n=f#5 v=0
24720 On ch=1 n=c5 v=0
24720 On ch=1 n=d#4 v=0
24720 On ch=1 n=f#4 v=64
24720 On ch=1 n=c5 v=64
24720 On ch=1 n=d#5 v=64
24880 On ch=1 n=c#4 v=64
24920 On ch=1 n=g#4 v=64
24960 On ch=1 n=d#5 v=0
24960 On ch=1 n=c5 v=0
24960 On ch=1 n=f#4 v=0
24960 On ch=1 n=f5 v=64
25200 On ch=1 n=f5 v=0
25200 On ch=1 n=g#4 v=0
25200 On ch=1 n=c#4 v=0
25200 On ch=1 n=f4 v=64
25200 On ch=1 n=c#5 v=64
25440 On ch=1 n=c#5 v=0
25440 On ch=1 n=f4 v=0
25440 Par ch=1 c=64 v=120
25440 On ch=1 n=d#4 v=64
25440 On ch=1 n=c5 v=64
25680 On ch=1 n=c5 v=0
25680 On ch=1 n=d#4 v=0
25680 On ch=1 n=c#4 v=64
25680 On ch=1 n=a#4 v=64
25920 On ch=1 n=a#4 v=0
25920 On ch=1 n=c#4 v=0
25920 Par ch=1 c=64 v=0
25920 On ch=1 n=c4 v=64
25920 On ch=1 n=g#4 v=64
25920 On ch=1 n=d#5 v=64
25953 On ch=1 n=c4 v=0
25984 On ch=1 n=g#4 v=0
26016 On ch=1 n=d#5 v=0
26160 On ch=1 n=f4 v=64
26160 On ch=1 n=c#5 v=64
26400 On ch=1 n=c#5 v=0
26400 On ch=1 n=f4 v=0
26400 Par ch=1 c=64 v=120
26400 On ch=1 n=d#4 v=64
26400 On ch=1 n=c5 v=64
26640 On ch=1 n=c5 v=0
26640 On ch=1 n=d#4 v=0
26640 On ch=1 n=c#4 v=64
26640 On ch=1 n=a#4 v=64
26880 On ch=1 n=a#4 v=0
26880 On ch=1 n=c#4 v=0
26880 Par ch=1 c=64 v=0
26880 Par ch=1 c=64 v=120
26880 On ch=1 n=c4 v=64
26880 On ch=1 n=g#4 v=64
26927 On ch=1 n=c4 v=0
26976 On ch=1 n=g#4 v=0
27120 Par ch=1 c=64 v=0
27120 On ch=1 n=f4 v=64
27120 On ch=1 n=c#5 v=64
27360 On ch=1 n=c#5 v=0
27360 On ch=1 n=f4 v=0
27360 On ch=1 n=d#4 v=64
27360 On ch=1 n=c5 v=64
27600 On ch=1 n=c5 v=0
27600 On ch=1 n=d#4 v=0
27600 On ch=1 n=c#4 v=64
27600 On ch=1 n=a#4 v=64
27840 On ch=1 n=a#4 v=0
27840 On ch=1 n=c#4 v=0
27840 On ch=1 n=c4 v=64
27840 On ch=1 n=g#4 v=64
27840 On ch=1 n=d#5 v=64
27873 On ch=1 n=c4 v=0
27904 On ch=1 n=g#4 v=0
27936 On ch=1 n=d#5 v=0
28080 On ch=1 n=c#4 v=64
28080 On ch=1 n=e4 v=64
28080 On ch=1 n=a4 v=64
28080 On ch=1 n=c#5 v=64
28103 On ch=1 n=c#4 v=0
28127 On ch=1 n=e4 v=0
28152 On ch=1 n=a4 v=0
28176 On ch=1 n=c#5 v=0
28320 On ch=1 n=d#4 v=64
28320 On ch=1 n=g#4 v=64
28320 On ch=1 n=c5 v=64
28353 On ch=1 n=d#4 v=0
28384 On ch=1 n=g#4 v=0
28416 On ch=1 n=c5 v=0
28560 On ch=1 n=c#4 v=64
28560 On ch=1 n=f#4 v=64
28560 On ch=1 n=a#4 v=64
28593 On ch=1 n=c#4 v=0
28624 On ch=1 n=f#4 v=0
28656 On ch=1 n=a#4 v=0
28800 On ch=1 n=c4 v=64
28800 On ch=1 n=g#4 v=64
29040 On ch=1 n=g#4 v=0
29040 On ch=1 n=c4 v=0
30720 Par ch=1 c=64 v=120
30720 On ch=1 n=c#5 v=64
30720 On ch=1 n=g5 v=64
30720 On ch=1 n=a#5 v=64
30720 On ch=1 n=e6 v=64
30960 On ch=1 n=e6 v=0
30960 On ch=1 n=a#5 v=0
30960 On ch=1 n=g5 v=0
30960 On ch=1 n=c#5 v=0
31110 On ch=1 n=g#2 v=64
31140 On ch=1 n=c#3 v=64
31170 On ch=1 n=g#3 v=64
31200 On ch=1 n=c#4 v=64
32070 On ch=1 n=g#2 v=64
32100 On ch=1 n=c#3 v=64
32130 On ch=1 n=g#3 v=64
32160 On ch=1 n=c#4 v=0
32160 On ch=1 n=g#3 v=0
32160 On ch=1 n=c#3 v=0
32160 On ch=1 n=g#2 v=0
32160 On ch=1 n=c#4 v=64
32544 On ch=1 n=g#2 v=64
32568 On ch=1 n=d#3 v=64
32592 On ch=1 n=g#3 v=64
32616 On ch=1 n=d#4 v=64
32640 On ch=1 n=c#4 v=0
32640 On ch=1 n=g#3 v=0
32640 On ch=1 n=c#3 v=0
32640 On ch=1 n=g#2 v=0
32640 Par ch=1 c=64 v=0
32640 On ch=1 n=g#4 v=64
32880 On ch=1 n=g#4 v=0
32880 On ch=1 n=d#4 v=0
32880 On ch=1 n=g#3 v=0
32880 On ch=1 n=d#3 v=0
32880 On ch=1 n=g#2 v=0
32880 On ch=1 n=d5 v=64
32880 On ch=1 n=f5 v=64
32880 On ch=1 n=b5 v=64
33120 On ch=1 n=b5 v=0
33120 On ch=1 n=f5 v=0
33120 On ch=1 n=d5 v=0
33120 On ch=1 n=c5 v=64
33120 On ch=1 n=d#5 v=64
33120 On ch=1 n=a5 v=64
33360 On ch=1 n=a5 v=0
33360 On ch=1 n=d#5 v=0
33360 On ch=1 n=c5 v=0
33600 On ch=1 n=b4 v=64
33600 On ch=1 n=d5 v=64
33600 On ch=1 n=g#5 v=64
33840 On ch=1 n=g#5 v=0
33840 On ch=1 n=d5 v=0
33840 On ch=1 n=b4 v=0
34080 On ch=1 n=a4 v=64
34080 On ch=1 n=c5 v=64
34080 On ch=1 n=d#5 v=64
34080 On ch=1 n=f#5 v=64
34320 On ch=1 n=f#5 v=0
34320 On ch=1 n=d#5 v=0
34320 On ch=1 n=c5 v=0
34320 On ch=1 n=a4 v=0
34560 Par ch=1 c=64 v=0
34560 Par ch=1 c=64 v=120
34560 On ch=1 n=g#4 v=64
34560 On ch=1 n=b4 v=64
34560 On ch=1 n=e5 v=64
34800 On ch=1 n=e5 v=0
34800 On ch=1 n=b4 v=0
34800 On ch=1 n=g#4 v=0
34950 On ch=1 n=g#2 v=64
34980 On ch=1 n=e3 v=64
35010 On ch=1 n=b3 v=64
35040 On ch=1 n=e4 v=64
35910 On ch=1 n=g#2 v=64
35940 On ch=1 n=e3 v=64
35970 On ch=1 n=b3 v=64
36000 On ch=1 n=e4 v=0
36000 On ch=1 n=b3 v=0
36000 On ch=1 n=e3 v=0
36000 On ch=1 n=g#2 v=0
36000 On ch=1 n=e4 v=64
36480 On ch=1 n=e4 v=0
36480 On ch=1 n=b3 v=0
36480 On ch=1 n=e3 v=0
36480 On ch=1 n=g#2 v=0
36480 Par ch=1 c=64 v=120
36870 On ch=1 n=g#2 v=64
36900 On ch=1 n=e3 v=64
36930 On ch=1 n=a3 v=64
36960 On ch=1 n=c#4 v=64
37440 On ch=1 n=c#4 v=0
37440 On ch=1 n=a3 v=0
37440 On ch=1 n=e3 v=0
37440 On ch=1 n=g#2 v=0
37440 Par ch=1 c=64 v=120
37440 Par ch=1 c=64 v=0
37830 On ch=1 n=g#2 v=64
37860 On ch=1 n=f#3 v=64
37890 On ch=1 n=a3 v=64
37920 On ch=1 n=d4 v=64
38400 On ch=1 n=d4 v=0
38400 On ch=1 n=a3 v=0
38400 On ch=1 n=f#3 v=0
38400 On ch=1 n=g#2 v=0
38400 Par ch=1 c=64 v=0
38640 Par ch=1 c=64 v=120
38640 On ch=1 n=d#3 v=67
38640 On ch=1 n=d#4 v=67
38880 On ch=1 n=d#4 v=0
38880 On ch=1 n=d#3 v=0
38880 On ch=1 n=c3 v=70
38880 On ch=1 n=c4 v=70
39120 On ch=1 n=c4 v=0
39120 On ch=1 n=c3 v=0
39120 On ch=1 n=d#3 v=73
39120 On ch=1 n=d#4 v=73
39360 On ch=1 n=d#4 v=0
39360 On ch=1 n=d#3 v=0
39360 On ch=1 n=f3 v=77
39360 On ch=1 n=f4 v=77
39600 On ch=1 n=f4 v=0
39600 On ch=1 n=f3 v=0
39600 On ch=1 n=g#3 v=80
39600 On ch=1 n=g#4 v=80
39840 On ch=1 n=g#4 v=0
39840 On ch=1 n=g#3 v=0
39840 On ch=1 n=f3 v=83
39840 On ch=1 n=f4 v=83
40080 On ch=1 n=f4 v=0
40080 On ch=1 n=f3 v=0
40080 On ch=1 n=d#3 v=86
40080 On ch=1 n=d#4 v=86
40320 On ch=1 n=d#4 v=0
40320 On ch=1 n=d#3 v=0
40320 On ch=1 n=c3 v=90
40320 On ch=1 n=c4 v=90
40367 On ch=1 n=c3 v=0
40416 On ch=1 n=c4 v=0
40560 Par ch=1 c=64 v=0
40560 On ch=1 n=a#2 v=90
40560 On ch=1 n=a#3 v=90
40800 On ch=1 n=a#3 v=0
40800 On ch=1 n=a#2 v=0
40800 Par ch=1 c=64 v=120
40800 On ch=1 n=g#2 v=90
40800 On ch=1 n=g#3 v=90
41040 On ch=1 n=g#3 v=0
41040 On ch=1 n=g#2 v=0
41040 On ch=1 n=a#2 v=90
41040 On ch=1 n=a#3 v=90
41280 On ch=1 n=a#3 v=0
41280 On ch=1 n=a#2 v=0
41280 On ch=1 n=c3 v=90
41280 On ch=1 n=c4 v=90
41520 On ch=1 n=c4 v=0
41520 On ch=1 n=c3 v=0
41520 On ch=1 n=d#3 v=90
41520 On ch=1 n=d#4 v=90
41760 On ch=1 n=d#4 v=0
41760 On ch=1 n=d#3 v=0
41760 On ch=1 n=c3 v=90
41760 On ch=1 n=c4 v=90
42000 On ch=1 n=c4 v=0
42000 On ch=1 n=c3 v=0
42000 On ch=1 n=g#2 v=90
42000 On ch=1 n=g#3 v=90
42240 On ch=1 n=g#3 v=0
42240 On ch=1 n=g#2 v=0
42240 Par ch=1 c=64 v=0
42240 On ch=1 n=f2 v=90
42240 On ch=1 n=f3 v=90
42480 On ch=1 n=f3 v=0
42480 On ch=1 n=f2 v=0
42480 On ch=1 n=d#2 v=90
42720 On ch=1 n=d#2 v=0
42720 Par ch=1 c=64 v=120
42720 On ch=1 n=c2 v=90
42960 On ch=1 n=c2 v=0
42960 On ch=1 n=g#2 v=90
43200 On ch=1 n=g#2 v=0
43200 On ch=1 n=f2 v=90
43440 On ch=1 n=f2 v=0
43440 On ch=1 n=d#2 v=90
43680 On ch=1 n=d#2 v=0
43680 On ch=1 n=c2 v=90
43920 On ch=1 n=c2 v=0
43920 On ch=1 n=g#2 v=90
44100 On ch=1 n=a#1 v=90
44160 On ch=1 n=g#2 v=0
44160 Par ch=1 c=64 v=0
44160 On ch=1 n=c#3 v=90
44232 On ch=1 n=a#1 v=0
44303 On ch=1 n=c#3 v=0
44310 On ch=1 n=c#4 v=90
44340 On ch=1 n=g#4 v=90
44370 On ch=1 n=c#5 v=90
44400 Par ch=1 c=64 v=120
44400 On ch=1 n=f5 v=90
44550 On ch=1 n=c#4 v=90
44580 On ch=1 n=g#4 v=90
44610 On ch=1 n=c#5 v=90
44640 On ch=1 n=f5 v=0
44640 On ch=1 n=c#5 v=0
44640 On ch=1 n=g#4 v=0
44640 On ch=1 n=c#4 v=0
44640 On ch=1 n=f5 v=90
44800 On ch=1 n=c#4 v=90
44840 On ch=1 n=g#4 v=90
44880 On ch=1 n=f5 v=0
44880 On ch=1 n=c#5 v=0
44880 On ch=1 n=g#4 v=0
44880 On ch=1 n=c#4 v=0
44880 On ch=1 n=c#5 v=90
45040 On ch=1 n=c#4 v=90
45080 On ch=1 n=c5 v=90
45120 On ch=1 n=c#5 v=0
45120 On ch=1 n=g#4 v=0
45120 On ch=1 n=c#4 v=0
45120 On ch=1 n=c#5 v=90
45280 On ch=1 n=c#4 v=90
45320 On ch=1 n=b4 v=90
45360 On ch=1 n=c#5 v=0
45360 On ch=1 n=c5 v=0
45360 On ch=1 n=c#4 v=0
45360 On ch=1 n=c#5 v=90
45520 On ch=1 n=c#4 v=90
45560 On ch=1 n=a#4 v=90
45600 On ch=1 n=c#5 v=0
45600 On ch=1 n=b4 v=0
45600 On ch=1 n=c#4 v=0
45600 On ch=1 n=c#5 v=90
45760 On ch=1 n=c#4 v=90
45800 On ch=1 n=a4 v=90
45840 On ch=1 n=c#5 v=0
45840 On ch=1 n=a#4 v=0
45840 On ch=1 n=c#4 v=0
45840 On ch=1 n=e5 v=90
46000 On ch=1 n=c#4 v=90
46040 On ch=1 n=g#4 v=90
46080 On ch=1 n=e5 v=0
46080 On ch=1 n=a4 v=0
46080 On ch=1 n=c#4 v=0
46080 On ch=1 n=f5 v=90
46240 On ch=1 n=c#4 v=90
46280 On ch=1 n=g4 v=90
46320 On ch=1 n=f5 v=0
46320 On ch=1 n=g#4 v=0
46320 On ch=1 n=c#4 v=0
46320 On ch=1 n=e5 v=90
46470 On ch=1 n=c#4 v=90
46500 On ch=1 n=f#4 v=90
46530 On ch=1 n=a4 v=90
46560 On ch=1 n=e5 v=0
46560 On ch=1 n=g4 v=0
46560 On ch=1 n=c#4 v=0
46560 On ch=1 n=d#5 v=90
46710 On ch=1 n=c#4 v=90
46740 On ch=1 n=f4 v=90
46770 On ch=1 n=g#4 v=90
46800 On ch=1 n=d#5 v=0
46800 On ch=1 n=a4 v=0
46800 On ch=1 n=f#4 v=0
46800 On ch=1 n=c#4 v=0
46800 On ch=1 n=c#5 v=90
46950 On ch=1 n=c#4 v=90
46980 On ch=1 n=d#4 v=90
47010 On ch=1 n=g#4 v=90
47040 On ch=1 n=c#5 v=0
47040 On ch=1 n=g#4 v=0
47040 On ch=1 n=f4 v=0
47040 On ch=1 n=c#4 v=0
47040 On ch=1 n=c5 v=90
47190 On ch=1 n=c#4 v=90
47220 On ch=1 n=f4 v=90
47250 On ch=1 n=g#4 v=90
47280 On ch=1 n=c5 v=0
47280 On ch=1 n=g#4 v=0
47280 On ch=1 n=d#4 v=0
47280 On ch=1 n=c#4 v=0
47280 On ch=1 n=c#5 v=90
47430 On ch=1 n=c#4 v=90
47460 On ch=1 n=f#4 v=90
47490 On ch=1 n=g#4 v=90
47520 On ch=1 n=c#5 v=0
47520 On ch=1 n=g#4 v=0
47520 On ch=1 n=f4 v=0
47520 On ch=1 n=c#4 v=0
47520 On ch=1 n=d#5 v=90
47670 On ch=1 n=c#4 v=90
47700 On ch=1 n=g#4 v=90
47730 On ch=1 n=c5 v=90
47760 On ch=1 n=d#5 v=0
47760 On ch=1 n=g#4 v=0
47760 On ch=1 n=f#4 v=0
47760 On ch=1 n=c#4 v=0
47760 Par ch=1 c=64 v=0
47760 On ch=1 n=f#5 v=90
47880 On ch=1 n=c#2 v=90
48000 On ch=1 n=f#5 v=0
48000 On ch=1 n=c5 v=0
48000 On ch=1 n=g#4 v=0
48000 On ch=1 n=c#4 v=0
48000 On ch=1 n=c#3 v=90
48072 On ch=1 n=c#2 v=0
48143 On ch=1 n=c#3 v=0
48150 On ch=1 n=c#4 v=90
48180 On ch=1 n=g#4 v=90
48210 On ch=1 n=c#5 v=90
48240 Par ch=1 c=64 v=120
48240 On ch=1 n=f5 v=90
48390 On ch=1 n=c#4 v=90
48420 On ch=1 n=g#4 v=90
48450 On ch=1 n=c#5 v=90
48480 On ch=1 n=f5 v=0
48480 On ch=1 n=c#5 v=0
48480 On ch=1 n=g#4 v=0
48480 On ch=1 n=c#4 v=0
48480 On ch=1 n=f5 v=90
48640 On ch=1 n=c#4 v=90
48680 On ch=1 n=g#4 v=90
48720 On ch=1 n=f5 v=0
48720 On ch=1 n=c#5 v=0
48720 On ch=1 n=g#4 v=0
48720 On ch=1 n=c#4 v=0
48720 On ch=1 n=c#5 v=90
48880 On ch=1 n=c#4 v=90
48920 On ch=1 n=c5 v=90
48960 On ch=1 n=c#5 v=0
48960 On ch=1 n=g#4 v=0
48960 On ch=1 n=c#4 v=0
48960 On ch=1 n=c#5 v=90
49120 On ch=1 n=c#4 v=90
49160 On ch=1 n=b4 v=90
49200 On ch=1 n=c#5 v=0
49200 On ch=1 n=c5 v=0
49200 On ch=1 n=c#4 v=0
49200 On ch=1 n=c#5 v=90
49360 On ch=1 n=c#4 v=90
49400 On ch=1 n=a#4 v=90
49440 On ch=1 n=c#5 v=0
49440 On ch=1 n=b4 v=0
49440 On ch=1 n=c#4 v=0
49440 On ch=1 n=c#5 v=90
49600 On ch=1 n=c#4 v=90
49640 On ch=1 n=a4 v=90
49680 On ch=1 n=c#5 v=0
49680 On ch=1 n=a#4 v=0
49680 On ch=1 n=c#4 v=0
49680 On ch=1 n=e5 v=90
49840 On ch=1 n=c#4 v=90
49880 On ch=1 n=g#4 v=90
49920 On ch=1 n=e5 v=0
49920 On ch=1 n=a4 v=0
49920 On ch=1 n=c#4 v=0
49920 On ch=1 n=f5 v=90
50070 On ch=1 n=c#4 v=90
50100 On ch=1 n=g4 v=90
50130 On ch=1 n=a#4 v=90
50160 On ch=1 n=f5 v=0
50160 On ch=1 n=g#4 v=0
50160 On ch=1 n=c#4 v=0
50160 On ch=1 n=e5 v=90
50310 On ch=1 n=c#4 v=90
50340 On ch=1 n=f#4 v=90
50370 On ch=1 n=a4 v=90
50400 On ch=1 n=e5 v=0
50400 On ch=1 n=a#4 v=0
50400 On ch=1 n=g4 v=0
50400 On ch=1 n=c#4 v=0
50400 On ch=1 n=d#5 v=90
50550 On ch=1 n=c#4 v=90
50580 On ch=1 n=f4 v=90
50610 On ch=1 n=g#4 v=90
50640 On ch=1 n=d#5 v=0
50640 On ch=1 n=a4 v=0
50640 On ch=1 n=f#4 v=0
50640 On ch=1 n=c#4 v=0
50640 On ch=1 n=c#5 v=90
50790 On ch=1 n=c#4 v=90
50820 On ch=1 n=d#4 v=90
50850 On ch=1 n=g#4 v=90
50880 On ch=1 n=c#5 v=0
50880 On ch=1 n=g#4 v=0
50880 On ch=1 n=f4 v=0
50880 On ch=1 n=c#4 v=0
50880 On ch=1 n=c5 v=90
51030 On ch=1 n=c#4 v=90
51060 On ch=1 n=f4 v=90
51090 On ch=1 n=g#4 v=90
51120 On ch=1 n=c5 v=0
51120 On ch=1 n=g#4 v=0
51120 On ch=1 n=d#4 v=0
51120 On ch=1 n=c#4 v=0
51120 On ch=1 n=c#5 v=90
51270 On ch=1 n=c#4 v=90
51300 On ch=1 n=f#4 v=90
51330 On ch=1 n=g#4 v=90
51360 On ch=1 n=c#5 v=0
51360 On ch=1 n=g#4 v=0
51360 On ch=1 n=f4 v=0
51360 On ch=1 n=c#4 v=0
51360 On ch=1 n=d#5 v=90
51510 On ch=1 n=c#4 v=90
51540 On ch=1 n=g#4 v=90
51570 On ch=1 n=c5 v=90
51600 On ch=1 n=d#5 v=0
51600 On ch=1 n=g#4 v=0
51600 On ch=1 n=f#4 v=0
51600 On ch=1 n=c#4 v=0
51600 Par ch=1 c=64 v=0
51600 On ch=1 n=f#5 v=90
51750 On ch=1 n=c#4 v=90
51780 On ch=1 n=g#4 v=90
51810 On ch=1 n=c#5 v=90
51840 On ch=1 n=f#5 v=0
51840 On ch=1 n=c5 v=0
51840 On ch=1 n=g#4 v=0
51840 On ch=1 n=c#4 v=0
51840 On ch=1 n=f5 v=90
52000 On ch=1 n=f4 v=90
52040 On ch=1 n=c#5 v=90
52080 On ch=1 n=f5 v=0
52080 On ch=1 n=c#5 v=0
52080 On ch=1 n=g#4 v=0
52080 On ch=1 n=c#4 v=0
52080 On ch=1 n=g#5 v=90
52240 On ch=1 n=d#4 v=90
52280 On ch=1 n=c5 v=90
52320 On ch=1 n=g#5 v=0
52320 On ch=1 n=c#5 v=0
52320 On ch=1 n=f4 v=0
52320 On ch=1 n=g#5 v=90
52480 On ch=1 n=c#4 v=90
52520 On ch=1 n=a#4 v=90
52560 On ch=1 n=g#5 v=0
52560 On ch=1 n=c5 v=0
52560 On ch=1 n=d#4 v=0
52560 On ch=1 n=g#5 v=90
52720 On ch=1 n=c4 v=90
52760 On ch=1 n=g#4 v=90
52800 On ch=1 n=g#5 v=0
52800 On ch=1 n=a#4 v=0
52800 On ch=1 n=c#4 v=0
52800 On ch=1 n=g#5 v=90
52960 On ch=1 n=f4 v=90
53000 On ch=1 n=c#5 v=90
53040 On ch=1 n=g#5 v=0
53040 On ch=1 n=g#4 v=0
53040 On ch=1 n=c4 v=0
53040 On ch=1 n=g#5 v=90
53200 On ch=1 n=d#4 v=90
53240 On ch=1 n=c5 v=90
53280 On ch=1 n=g#5 v=0
53280 On ch=1 n=c#5 v=0
53280 On ch=1 n=f4 v=0
53280 On ch=1 n=g#5 v=90
53440 On ch=1 n=c#4 v=90
53480 On ch=1 n=a#4 v=90
53520 On ch=1 n=g#5 v=0
53520 On ch=1 n=c5 v=0
53520 On ch=1 n=d#4 v=0
53520 On ch=1 n=g#5 v=90
53680 On ch=1 n=c4 v=90
53720 On ch=1 n=g#4 v=90
53760 On ch=1 n=g#5 v=0
53760 On ch=1 n=a#4 v=0
53760 On ch=1 n=c#4 v=0
53760 On ch=1 n=g#5 v=90
53920 On ch=1 n=e4 v=90
53960 On ch=1 n=c#5 v=90
54000 On ch=1 n=g#5 v=0
54000 On ch=1 n=g#4 v=0
54000 On ch=1 n=c4 v=0
54000 On ch=1 n=g#5 v=90
54160 On ch=1 n=d#4 v=90
54200 On ch=1 n=b4 v=90
54240 On ch=1 n=g#5 v=0
54240 On ch=1 n=c#5 v=0
54240 On ch=1 n=e4 v=0
54240 On ch=1 n=g#5 v=90
54400 On ch=1 n=c#4 v=90
54440 On ch=1 n=a#4 v=90
54480 On ch=1 n=g#5 v=0
54480 On ch=1 n=b4 v=0
54480 On ch=1 n=d#4 v=0
54480 On ch=1 n=g#5 v=90
54640 On ch=1 n=b3 v=90
54680 On ch=1 n=g#4 v=90
54720 On ch=1 n=g#5 v=0
54720 On ch=1 n=a#4 v=0
54720 On ch=1 n=c#4 v=0
54720 On ch=1 n=g#5 v=90
54870 On ch=1 n=e4 v=90
54900 On ch=1 n=g4 v=90
54930 On ch=1 n=c#5 v=90
54960 On ch=1 n=g#5 v=0
54960 On ch=1 n=g#4 v=0
54960 On ch=1 n=b3 v=0
54960 On ch=1 n=g5 v=90
55120 On ch=1 n=f#4 v=90
55160 On ch=1 n=b4 v=90
55200 On ch=1 n=g5 v=0
55200 On ch=1 n=c#5 v=0
55200 On ch=1 n=g4 v=0
55200 On ch=1 n=e4 v=0
55200 On ch=1 n=f#5 v=90
55360 On ch=1 n=f#3 v=90
55400 On ch=1 n=f#4 v=90
55440 On ch=1 n=f#5 v=0
55440 On ch=1 n=b4 v=0
55440 On ch=1 n=f#4 v=0
55440 On ch=1 n=c#5 v=90
55600 On ch=1 n=b3 v=90
55640 On ch=1 n=f#4 v=90
55680 On ch=1 n=c#5 v=0
55680 On ch=1 n=f#4 v=0
55680 On ch=1 n=f#3 v=0
55680 Par ch=1 c=64 v=0
55680 On ch=1 n=b4 v=90
55920 On ch=1 n=b4 v=0
55920 On ch=1 n=f#4 v=0
55920 On ch=1 n=b3 v=0
57990 On ch=1 n=b2 v=90
58020 On ch=1 n=e3 v=90
58050 On ch=1 n=b3 v=90
58080 On ch=1 n=e4 v=90
58950 On ch=1 n=b2 v=90
58980 On ch=1 n=e3 v=90
59010 On ch=1 n=b3 v=90
59040 On ch=1 n=e4 v=0
59040 On ch=1 n=b3 v=0
59040 On ch=1 n=e3 v=0
59040 On ch=1 n=b2 v=0
59040 On ch=1 n=e4 v=90
59440 On ch=1 n=b2 v=90
59480 On ch=1 n=b3 v=90
59520 On ch=1 n=e4 v=0
59520 On ch=1 n=b3 v=0
59520 On ch=1 n=e3 v=0
59520 On ch=1 n=b2 v=0
59520 Par ch=1 c=64 v=0
59520 On ch=1 n=b4 v=90
59760 On ch=1 n=b4 v=0
59760 On ch=1 n=b3 v=0
59760 On ch=1 n=b2 v=0
61830 On ch=1 n=b2 v=90
61860 On ch=1 n=e3 v=90
61890 On ch=1 n=g3 v=90
61920 On ch=1 n=c4 v=90
62790 On ch=1 n=b2 v=90
62820 On ch=1 n=e3 v=90
62850 On ch=1 n=g3 v=90
62880 On ch=1 n=c4 v=0
62880 On ch=1 n=g3 v=0
62880 On ch=1 n=e3 v=0
62880 On ch=1 n=b2 v=0
62880 On ch=1 n=c4 v=90
63360 On ch=1 n=c4 v=0
63360 On ch=1 n=g3 v=0
63360 On ch=1 n=e3 v=0
63360 On ch=1 n=b2 v=0
63750 On ch=1 n=b2 v=90
63780 On ch=1 n=a3 v=90
63810 On ch=1 n=c4 v=90
63840 On ch=1 n=f4 v=90
64320 On ch=1 n=f4 v=0
64320 On ch=1 n=c4 v=0
64320 On ch=1 n=a3 v=0
64320 On ch=1 n=b2 v=0
64720 On ch=1 n=b2 v=90
64760 On ch=1 n=f3 v=90
64800 On ch=1 n=a3 v=90
65280 On ch=1 n=a3 v=0
65280 On ch=1 n=f3 v=0
65280 On ch=1 n=b2 v=0
65280 On ch=1 n=b2 v=62
65280 On ch=1 n=f#3 v=62
65280 On ch=1 n=f#3 v=62
65280 On ch=1 n=b2 v=62
65280 On ch=1 n=f#3 v=62
65520 On ch=1 n=f#3 v=0
65520 On ch=1 n=b2 v=0
66000 On ch=1 n=f#3 v=71
66240 On ch=1 n=f#3 v=0
66240 On ch=1 n=d#3 v=75
66480 On ch=1 n=d#3 v=0
66480 On ch=1 n=f#3 v=78
66720 On ch=1 n=f#3 v=0
66720 On ch=1 n=g3 v=81
66960 On ch=1 n=g3 v=0
66960 On ch=1 n=b3 v=84
67200 On ch=1 n=b3 v=0
67200 On ch=1 n=f#3 v=0
67200 On ch=1 n=f#3 v=0
67200 On ch=1 n=b2 v=0
67200 On ch=1 n=g3 v=88
67440 On ch=1 n=g3 v=0
67440 On ch=1 n=f#3 v=88
67680 On ch=1 n=f#3 v=0
67680 On ch=1 n=d#3 v=62
67920 On ch=1 n=d#3 v=0
67920 On ch=1 n=b2 v=62
68160 On ch=1 n=b2 v=0
68160 On ch=1 n=d#3 v=62
68400 On ch=1 n=d#3 v=0
68400 On ch=1 n=f#3 v=62
68640 On ch=1 n=f#3 v=0
68640 On ch=1 n=g3 v=62
68880 On ch=1 n=g3 v=0
68880 On ch=1 n=f#3 v=62
69120 On ch=1 n=f#3 v=0
69120 On ch=1 n=d#3 v=62
69360 On ch=1 n=d#3 v=0
69360 On ch=1 n=c3 v=62
69600 On ch=1 n=c3 v=0
69600 On ch=1 n=b2 v=62
69840 On ch=1 n=b2 v=0
69840 On ch=1 n=g2 v=62
70080 On ch=1 n=g2 v=0
70080 On ch=1 n=f#2 v=62
70320 On ch=1 n=f#2 v=0
70320 On ch=1 n=c3 v=62
70560 On ch=1 n=c3 v=0
70560 On ch=1 n=b2 v=62
70800 On ch=1 n=b2 v=0
70800 On ch=1 n=g2 v=62
71040 On ch=1 n=g2 v=0
71040 On ch=1 n=f#2 v=62
71280 On ch=1 n=f#2 v=0
71280 On ch=1 n=b2 v=62
73439 On ch=1 n=g2 v=62
73440 On ch=1 n=b2 v=0
73560 On ch=1 n=d3 v=23
73562 On ch=1 n=g2 v=0
73677 On ch=1 n=g3 v=23
73680 On ch=1 n=d3 v=0
73800 On ch=1 n=d4 v=23
73802 On ch=1 n=g3 v=0
74038 On ch=1 n=g3 v=23
74043 On ch=1 n=d4 v=0
74155 On ch=1 n=d3 v=23
74160 On ch=1 n=g3 v=0
74277 On ch=1 n=g2 v=23
74282 On ch=1 n=d3 v=0
74518 On ch=1 n=d3 v=23
74522 On ch=1 n=g2 v=0
74638 On ch=1 n=g3 v=23
74641 On ch=1 n=d3 v=0
74758 On ch=1 n=g3 v=0
74763 On ch=1 n=d4 v=23
74996 On ch=1 n=g3 v=23
75000 On ch=1 n=d4 v=0
75120 On ch=1 n=g3 v=0
75120 On ch=1 n=d3 v=23
75237 On ch=1 n=d3 v=0
75240 Par ch=1 c=64 v=0
75240 On ch=1 n=g2 v=23
75360 Par ch=1 c=64 v=120
75479 On ch=1 n=g2 v=0
75479 On ch=1 n=d3 v=23
75598 On ch=1 n=g3 v=23
75600 On ch=1 n=d3 v=0
75717 On ch=1 n=d4 v=23
75719 On ch=1 n=g3 v=0
75958 On ch=1 n=d4 v=0
75958 On ch=1 n=g3 v=23
76081 On ch=1 n=g3 v=0
76081 On ch=1 n=d3 v=23
76196 On ch=1 n=g2 v=23
76203 On ch=1 n=d3 v=0
76439 On ch=1 n=g2 v=0
76440 On ch=1 n=d3 v=23
76560 On ch=1 n=d3 v=0
76560 On ch=1 n=g3 v=23
76678 On ch=1 n=d4 v=23
76682 On ch=1 n=g3 v=0
76921 On ch=1 n=d4 v=0
76923 On ch=1 n=g3 v=23
77037 On ch=1 n=g3 v=0
77039 On ch=1 n=d3 v=23
77158 On ch=1 n=g2 v=23
77160 Par ch=1 c=64 v=0
77163 On ch=1 n=d3 v=0
77280 Par ch=1 c=64 v=120
77280 On ch=1 n=d3 v=23
77283 On ch=1 n=g2 v=0
77400 On ch=1 n=d3 v=0
77400 On ch=1 n=a3 v=23
77520 On ch=1 n=a3 v=0
77520 On ch=1 n=d4 v=23
77640 On ch=1 n=d4 v=0
77640 On ch=1 n=a4 v=23
77880 On ch=1 n=a4 v=0
77880 On ch=1 n=d4 v=23
78000 On ch=1 n=d4 v=0
78000 On ch=1 n=a3 v=23
78120 On ch=1 n=a3 v=0
78120 On ch=1 n=d3 v=23
78360 On ch=1 n=d3 v=0
78360 On ch=1 n=a3 v=23
78480 On ch=1 n=a3 v=0
78480 On ch=1 n=d4 v=23
78600 On ch=1 n=d4 v=0
78600 On ch=1 n=d5 v=23
78840 On ch=1 n=d5 v=0
78840 On ch=1 n=d4 v=23
78960 On ch=1 n=d4 v=0
78960 On ch=1 n=a3 v=23
79080 On ch=1 n=a3 v=0
79080 Par ch=1 c=64 v=0
79080 On ch=1 n=d3 v=23
79200 Par ch=1 c=64 v=120
79320 On ch=1 n=d3 v=0
79320 On ch=1 n=a3 v=23
79440 On ch=1 n=a3 v=0
79440 On ch=1 n=d4 v=23
79560 On ch=1 n=d4 v=0
79560 On ch=1 n=a4 v=23
79800 On ch=1 n=a4 v=0
79800 On ch=1 n=d4 v=23
79920 On ch=1 n=d4 v=0
79920 On ch=1 n=a3 v=23
80040 On ch=1 n=a3 v=0
80040 On ch=1 n=d3 v=23
80280 On ch=1 n=d3 v=0
80280 On ch=1 n=a3 v=23
80400 On ch=1 n=a3 v=0
80400 On ch=1 n=d4 v=23
80520 On ch=1 n=d4 v=0
80520 On ch=1 n=d5 v=23
80760 On ch=1 n=d5 v=0
80760 On ch=1 n=d4 v=23
80880 On ch=1 n=d4 v=0
80880 On ch=1 n=a3 v=23
81000 On ch=1 n=a3 v=0
81000 Par ch=1 c=64 v=0
81000 On ch=1 n=d3 v=23
81120 On ch=1 n=d3 v=0
81120 Par ch=1 c=64 v=120
81120 On ch=1 n=a2 v=23
81240 On ch=1 n=a2 v=0
81240 On ch=1 n=e3 v=23
81360 On ch=1 n=e3 v=0
81360 On ch=1 n=a3 v=23
81480 On ch=1 n=a3 v=0
81480 On ch=1 n=e4 v=23
81720 On ch=1 n=e4 v=0
81720 On ch=1 n=a3 v=23
81840 On ch=1 n=a3 v=0
81840 On ch=1 n=e3 v=23
81960 On ch=1 n=e3 v=0
81960 On ch=1 n=a2 v=23
82200 On ch=1 n=a2 v=0
82200 On ch=1 n=e3 v=23
82320 On ch=1 n=e3 v=0
82320 On ch=1 n=a3 v=23
82440 On ch=1 n=a3 v=0
82440 On ch=1 n=e4 v=23
82680 On ch=1 n=e4 v=0
82680 On ch=1 n=a3 v=23
82800 On ch=1 n=a3 v=0
82800 On ch=1 n=e3 v=23
82920 On ch=1 n=e3 v=0
82920 Par ch=1 c=64 v=0
82920 On ch=1 n=a2 v=23
83040 Par ch=1 c=64 v=120
83160 On ch=1 n=a2 v=0
83160 On ch=1 n=e3 v=23
83280 On ch=1 n=e3 v=0
83280 On ch=1 n=a3 v=23
83400 On ch=1 n=a3 v=0
83400 On ch=1 n=e4 v=23
83640 On ch=1 n=e4 v=0
83640 On ch=1 n=a3 v=23
83760 On ch=1 n=a3 v=0
83760 On ch=1 n=e3 v=23
83880 On ch=1 n=e3 v=0
83880 On ch=1 n=a2 v=23
84120 On ch=1 n=a2 v=0
84120 On ch=1 n=e3 v=23
84240 On ch=1 n=e3 v=0
84240 On ch=1 n=a3 v=23
84360 On ch=1 n=a3 v=0
84360 On ch=1 n=e4 v=23
84600 On ch=1 n=e4 v=0
84600 On ch=1 n=a3 v=23
84720 On ch=1 n=a3 v=0
84720 On ch=1 n=e3 v=23
84840 On ch=1 n=e3 v=0
84840 Par ch=1 c=64 v=0
84840 On ch=1 n=a2 v=23
84960 On ch=1 n=a2 v=0
84960 Par ch=1 c=64 v=120
84960 On ch=1 n=e3 v=23
85080 On ch=1 n=e3 v=0
85080 On ch=1 n=b3 v=23
85200 On ch=1 n=b3 v=0
85200 On ch=1 n=e4 v=23
85320 On ch=1 n=e4 v=0
85320 On ch=1 n=b4 v=23
85560 On ch=1 n=b4 v=0
85560 On ch=1 n=e4 v=23
85680 On ch=1 n=e4 v=0
85680 On ch=1 n=b3 v=23
85800 On ch=1 n=b3 v=0
85800 On ch=1 n=e3 v=23
86040 On ch=1 n=e3 v=0
86040 On ch=1 n=b3 v=23
86160 On ch=1 n=b3 v=0
86160 On ch=1 n=e4 v=23
86280 On ch=1 n=e4 v=0
86280 On ch=1 n=e5 v=23
86520 On ch=1 n=e5 v=0
86520 On ch=1 n=e4 v=23
86640 On ch=1 n=e4 v=0
86640 On ch=1 n=b3 v=23
86760 On ch=1 n=b3 v=0
86760 Par ch=1 c=64 v=0
86760 On ch=1 n=e3 v=23
86880 Par ch=1 c=64 v=120
87000 On ch=1 n=e3 v=0
87000 On ch=1 n=b3 v=23
87120 On ch=1 n=b3 v=0
87120 On ch=1 n=e4 v=23
87240 On ch=1 n=e4 v=0
87240 On ch=1 n=b4 v=23
87480 On ch=1 n=b4 v=0
87480 On ch=1 n=e4 v=23
87600 On ch=1 n=e4 v=0
87600 On ch=1 n=b3 v=23
87720 On ch=1 n=b3 v=0
87720 On ch=1 n=e3 v=23
87960 On ch=1 n=e3 v=0
87960 On ch=1 n=b3 v=23
88080 On ch=1 n=b3 v=0
88080 On ch=1 n=e4 v=23
88200 On ch=1 n=e4 v=0
88200 On ch=1 n=e5 v=23
88440 On ch=1 n=e5 v=0
88440 On ch=1 n=e4 v=23
88560 On ch=1 n=e4 v=0
88560 On ch=1 n=b3 v=23
88680 On ch=1 n=b3 v=0
88680 Par ch=1 c=64 v=0
88680 On ch=1 n=e3 v=23
88800 On ch=1 n=e3 v=0
88800 Par ch=1 c=64 v=120
88800 On ch=1 n=c3 v=23
88800 On ch=1 n=c3 v=49
88920 On ch=1 n=c3 v=0
88920 On ch=1 n=g3 v=23
89040 On ch=1 n=g3 v=0
89040 On ch=1 n=c4 v=26
89160 On ch=1 n=c4 v=0
89160 On ch=1 n=g4 v=26
89400 On ch=1 n=g4 v=0
89400 On ch=1 n=c4 v=29
89520 On ch=1 n=c4 v=0
89520 On ch=1 n=g3 v=32
89640 On ch=1 n=g3 v=0
89640 On ch=1 n=c3 v=32
89880 On ch=1 n=c3 v=0
89880 On ch=1 n=g3 v=36
90000 On ch=1 n=g3 v=0
90000 On ch=1 n=c4 v=39
90120 On ch=1 n=c4 v=0
90120 On ch=1 n=g4 v=39
90360 On ch=1 n=g4 v=0
90360 On ch=1 n=c4 v=42
90480 On ch=1 n=c4 v=0
90480 On ch=1 n=g3 v=45
90600 On ch=1 n=g3 v=0
90600 Par ch=1 c=64 v=0
90600 On ch=1 n=c3 v=45
90720 Par ch=1 c=64 v=120
90840 On ch=1 n=c3 v=0
90840 On ch=1 n=g3 v=49
90960 On ch=1 n=g3 v=0
90960 On ch=1 n=c4 v=49
91080 On ch=1 n=c4 v=0
91080 On ch=1 n=g4 v=49
91320 On ch=1 n=g4 v=0
91320 On ch=1 n=c4 v=49
91440 On ch=1 n=c4 v=0
91440 On ch=1 n=g3 v=49
91560 On ch=1 n=g3 v=0
91560 On ch=1 n=c3 v=49
91800 On ch=1 n=c3 v=0
91800 On ch=1 n=g3 v=49
91920 On ch=1 n=g3 v=0
91920 On ch=1 n=c4 v=49
92040 On ch=1 n=c4 v=0
92040 On ch=1 n=g4 v=49
92280 On ch=1 n=g4 v=0
92280 On ch=1 n=c4 v=49
92400 On ch=1 n=c4 v=0
92400 On ch=1 n=g3 v=49
92520 On ch=1 n=g3 v=0
92520 Par ch=1 c=64 v=0
92520 On ch=1 n=c3 v=49
92640 On ch=1 n=c3 v=0
92640 On ch=1 n=c3 v=0
92640 Par ch=1 c=64 v=120
92640 On ch=1 n=g3 v=88
92760 On ch=1 n=g3 v=0
92760 On ch=1 n=d4 v=88
92880 On ch=1 n=d4 v=0
92880 On ch=1 n=g4 v=88
93000 On ch=1 n=g4 v=0
93000 On ch=1 n=b4 v=88
93240 On ch=1 n=b4 v=0
93240 On ch=1 n=g4 v=88
93360 On ch=1 n=g4 v=0
93360 On ch=1 n=d4 v=88
93480 On ch=1 n=d4 v=0
93480 On ch=1 n=g3 v=88
93600 On ch=1 n=g3 v=0
93600 On ch=1 n=e3 v=88
93720 On ch=1 n=e3 v=0
93720 On ch=1 n=b3 v=88
93840 On ch=1 n=b3 v=0
93840 On ch=1 n=e4 v=88
93960 On ch=1 n=e4 v=0
93960 On ch=1 n=b4 v=88
94200 On ch=1 n=b4 v=0
94200 On ch=1 n=e4 v=88
94320 On ch=1 n=e4 v=0
94320 On ch=1 n=b3 v=88
94440 On ch=1 n=b3 v=0
94440 Par ch=1 c=64 v=0
94440 On ch=1 n=e3 v=88
94560 On ch=1 n=e3 v=0
94560 Par ch=1 c=64 v=120
94560 On ch=1 n=b2 v=88
94680 On ch=1 n=b2 v=0
94680 On ch=1 n=f#3 v=88
94800 On ch=1 n=f#3 v=0
94800 On ch=1 n=b3 v=88
94920 On ch=1 n=b3 v=0
94920 On ch=1 n=f#4 v=88
95040 On ch=1 n=f#4 v=0
95040 On ch=1 n=b4 v=88
95040 On ch=1 n=f#5 v=88
95160 On ch=1 n=f#5 v=0
95160 On ch=1 n=b4 v=0
95160 On ch=1 n=f#4 v=88
95280 On ch=1 n=f#4 v=0
95280 On ch=1 n=b3 v=88
95400 On ch=1 n=b3 v=0
95400 On ch=1 n=f#3 v=88
95520 On ch=1 n=f#3 v=0
95520 On ch=1 n=b2 v=88
95640 On ch=1 n=b2 v=0
95640 On ch=1 n=f#3 v=88
95760 On ch=1 n=f#3 v=0
95760 On ch=1 n=b3 v=88
95880 On ch=1 n=b3 v=0
95880 On ch=1 n=f#4 v=88
96000 On ch=1 n=f#4 v=0
96000 On ch=1 n=b4 v=88
96000 On ch=1 n=f#5 v=88
96120 On ch=1 n=f#5 v=0
96120 On ch=1 n=b4 v=0
96120 On ch=1 n=f#4 v=88
96240 On ch=1 n=f#4 v=0
96240 On ch=1 n=b3 v=88
96360 On ch=1 n=b3 v=0
96360 Par ch=1 c=64 v=0
96360 On ch=1 n=f#3 v=88
96480 On ch=1 n=f#3 v=0
96480 Par ch=1 c=64 v=120
96480 On ch=1 n=b2 v=88
96600 On ch=1 n=b2 v=0
96600 On ch=1 n=f#3 v=88
96720 On ch=1 n=f#3 v=0
96720 On ch=1 n=b3 v=88
96840 On ch=1 n=b3 v=0
96840 On ch=1 n=f#4 v=88
96960 On ch=1 n=f#4 v=0
96960 Par ch=1 c=64 v=0
96960 Par ch=1 c=64 v=120
96960 On ch=1 n=a#4 v=88
96960 On ch=1 n=f#5 v=88
97080 On ch=1 n=f#5 v=0
97080 On ch=1 n=a#4 v=0
97080 On ch=1 n=f#4 v=88
97200 On ch=1 n=f#4 v=0
97200 On ch=1 n=b3 v=88
97320 On ch=1 n=b3 v=0
97320 On ch=1 n=f#3 v=88
97440 On ch=1 n=f#3 v=0
97440 Par ch=1 c=64 v=0
97440 Par ch=1 c=64 v=120
97440 On ch=1 n=b2 v=88
97560 On ch=1 n=b2 v=0
97560 On ch=1 n=f#3 v=88
97680 On ch=1 n=f#3 v=0
97680 On ch=1 n=b3 v=88
97800 On ch=1 n=b3 v=0
97800 On ch=1 n=f#4 v=88
97920 On ch=1 n=f#4 v=0
97920 Par ch=1 c=64 v=0
97920 Par ch=1 c=64 v=120
97920 On ch=1 n=a#4 v=88
97920 On ch=1 n=f#5 v=88
98040 On ch=1 n=f#5 v=0
98040 On ch=1 n=a#4 v=0
98040 On ch=1 n=f#4 v=88
98160 On ch=1 n=f#4 v=0
98160 On ch=1 n=b3 v=88
98280 On ch=1 n=b3 v=0
98280 On ch=1 n=f#3 v=88
98400 On ch=1 n=f#3 v=0
98400 Par ch=1 c=64 v=0
98400 Par ch=1 c=64 v=120
98400 On ch=1 n=b2 v=88
98520 On ch=1 n=b2 v=0
98520 On ch=1 n=f#3 v=88
98640 On ch=1 n=f#3 v=0
98640 On ch=1 n=b3 v=88
98760 On ch=1 n=b3 v=0
98760 On ch=1 n=f#4 v=88
98880 On ch=1 n=f#4 v=0
98880 Par ch=1 c=64 v=0
98880 Par ch=1 c=64 v=120
98880 On ch=1 n=b4 v=88
98880 On ch=1 n=f#5 v=88
99000 On ch=1 n=f#5 v=0
99000 On ch=1 n=b4 v=0
99000 On ch=1 n=f#4 v=88
99120 On ch=1 n=f#4 v=0
99120 On ch=1 n=b3 v=88
99240 On ch=1 n=b3 v=0
99240 On ch=1 n=f#3 v=88
99360 On ch=1 n=f#3 v=0
99360 Par ch=1 c=64 v=0
99360 Par ch=1 c=64 v=120
99360 On ch=1 n=b2 v=88
99480 On ch=1 n=b2 v=0
99480 On ch=1 n=f#3 v=88
99600 On ch=1 n=f#3 v=0
99600 On ch=1 n=b3 v=88
99720 On ch=1 n=b3 v=0
99720 On ch=1 n=f#4 v=88
99840 On ch=1 n=f#4 v=0
99840 Par ch=1 c=64 v=0
99840 Par ch=1 c=64 v=120
99840 On ch=1 n=b4 v=88
99840 On ch=1 n=f#5 v=88
99960 On ch=1 n=f#5 v=0
99960 On ch=1 n=b4 v=0
99960 On ch=1 n=f#4 v=88
100080 On ch=1 n=f#4 v=0
100080 On ch=1 n=b3 v=88
100200 On ch=1 n=b3 v=0
100200 On ch=1 n=f#3 v=88
100320 On ch=1 n=f#3 v=0
100320 Par ch=1 c=64 v=0
100320 Par ch=1 c=64 v=120
100320 On ch=1 n=b2 v=88
100440 On ch=1 n=b2 v=0
100440 On ch=1 n=f#3 v=88
100560 On ch=1 n=f#3 v=0
100560 On ch=1 n=b3 v=88
100680 On ch=1 n=b3 v=0
100680 On ch=1 n=f#4 v=88
100800 On ch=1 n=f#4 v=0
100800 Par ch=1 c=64 v=0
100800 Par ch=1 c=64 v=120
100800 On ch=1 n=a#4 v=88
100800 On ch=1 n=f#5 v=88
100920 On ch=1 n=f#5 v=0
100920 On ch=1 n=a#4 v=0
100920 On ch=1 n=f#4 v=88
101040 On ch=1 n=f#4 v=0
101040 On ch=1 n=b3 v=88
101160 On ch=1 n=b3 v=0
101160 On ch=1 n=f#3 v=88
101280 On ch=1 n=f#3 v=0
101280 Par ch=1 c=64 v=0
101280 Par ch=1 c=64 v=120
101280 On ch=1 n=b2 v=88
101400 On ch=1 n=b2 v=0
101400 On ch=1 n=f#3 v=88
101520 On ch=1 n=f#3 v=0
101520 On ch=1 n=b3 v=88
101640 On ch=1 n=b3 v=0
101640 On ch=1 n=f#4 v=88
101760 On ch=1 n=f#4 v=0
101760 Par ch=1 c=64 v=0
101760 Par ch=1 c=64 v=120
101760 On ch=1 n=a#4 v=88
101760 On ch=1 n=f#5 v=88
101880 On ch=1 n=f#5 v=0
101880 On ch=1 n=a#4 v=0
101880 On ch=1 n=f#4 v=88
102000 On ch=1 n=f#4 v=0
102000 On ch=1 n=b3 v=88
102120 On ch=1 n=b3 v=0
102120 On ch=1 n=f#3 v=88
102240 On ch=1 n=f#3 v=0
102240 Par ch=1 c=64 v=0
102240 Par ch=1 c=64 v=120
102240 On ch=1 n=b2 v=88
102360 On ch=1 n=b2 v=0
102360 On ch=1 n=f#3 v=88
102480 On ch=1 n=f#3 v=0
102480 On ch=1 n=b3 v=88
102600 On ch=1 n=b3 v=0
102600 On ch=1 n=f#4 v=88
102720 On ch=1 n=f#4 v=0
102720 Par ch=1 c=64 v=0
102720 Par ch=1 c=64 v=120
102720 On ch=1 n=b4 v=88
102720 On ch=1 n=f#5 v=88
102840 On ch=1 n=f#5 v=0
102840 On ch=1 n=b4 v=0
102840 On ch=1 n=f#4 v=88
102960 On ch=1 n=f#4 v=0
102960 On ch=1 n=b3 v=88
103080 On ch=1 n=b3 v=0
103080 On ch=1 n=f#3 v=88
103200 On ch=1 n=f#3 v=0
103200 Par ch=1 c=64 v=120
103200 Par ch=1 c=64 v=0
103200 On ch=1 n=b2 v=88
103320 On ch=1 n=b2 v=0
103320 On ch=1 n=f#3 v=88
103440 On ch=1 n=f#3 v=0
103440 On ch=1 n=b3 v=88
103560 On ch=1 n=b3 v=0
103560 On ch=1 n=f#4 v=88
103680 Par ch=1 c=64 v=120
103680 Par ch=1 c=64 v=0
103800 On ch=1 n=f#4 v=0
103800 On ch=1 n=b3 v=88
103920 On ch=1 n=b3 v=0
103920 On ch=1 n=f#3 v=88
104040 On ch=1 n=f#3 v=0
104040 Par ch=1 c=64 v=0
104040 On ch=1 n=b2 v=88
104160 Par ch=1 c=64 v=120
104280 On ch=1 n=b2 v=0
104280 On ch=1 n=f#3 v=88
104400 On ch=1 n=f#3 v=0
104400 On ch=1 n=b3 v=88
104520 On ch=1 n=b3 v=0
104520 Par ch=1 c=64 v=0
104520 On ch=1 n=f#4 v=88
104640 Par ch=1 c=64 v=120
104760 On ch=1 n=f#4 v=0
104760 On ch=1 n=b3 v=88
104880 On ch=1 n=b3 v=0
104880 On ch=1 n=f#3 v=88
105000 On ch=1 n=f#3 v=0
105000 Par ch=1 c=64 v=0
105000 On ch=1 n=b2 v=88
105240 On ch=1 n=b2 v=0
105240 Par ch=1 c=64 v=120
105240 On ch=1 n=b2 v=88
105360 On ch=1 n=b2 v=0
105360 On ch=1 n=f#3 v=88
105480 On ch=1 n=f#3 v=0
105480 Par ch=1 c=64 v=0
105480 On ch=1 n=b3 v=88
105720 On ch=1 n=b3 v=0
105720 Par ch=1 c=64 v=120
105720 On ch=1 n=b3 v=88
105840 On ch=1 n=b3 v=0
105840 On ch=1 n=f#3 v=88
105960 On ch=1 n=f#3 v=0
105960 Par ch=1 c=64 v=0
105960 On ch=1 n=b2 v=88
106080 Par ch=1 c=64 v=120
106200 On ch=1 n=b2 v=0
106200 On ch=1 n=f#3 v=88
106320 On ch=1 n=f#3 v=0
106320 On ch=1 n=b3 v=88
106440 On ch=1 n=b3 v=0
106440 On ch=1 n=f#4 v=88
106680 On ch=1 n=f#4 v=0
106680 On ch=1 n=b3 v=88
106800 On ch=1 n=b3 v=0
106800 On ch=1 n=f#3 v=88
106920 On ch=1 n=f#3 v=0
106920 On ch=1 n=b2 v=88
107160 On ch=1 n=b2 v=0
107160 On ch=1 n=f#3 v=88
107280 On ch=1 n=f#3 v=0
107280 On ch=1 n=b3 v=88
107400 On ch=1 n=b3 v=0
107400 On ch=1 n=b4 v=88
107640 On ch=1 n=b4 v=0
107640 On ch=1 n=b3 v=88
107760 On ch=1 n=b3 v=0
107760 On ch=1 n=f#3 v=88
107880 On ch=1 n=f#3 v=0
107880 Par ch=1 c=64 v=0
107880 On ch=1 n=b2 v=88
108000 Par ch=1 c=64 v=120
108120 On ch=1 n=b2 v=0
108120 On ch=1 n=f#3 v=88
108240 On ch=1 n=f#3 v=0
108240 On ch=1 n=b3 v=88
108360 On ch=1 n=b3 v=0
108360 On ch=1 n=f#4 v=88
108600 On ch=1 n=f#4 v=0
108600 On ch=1 n=b3 v=88
108720 On ch=1 n=b3 v=0
108720 On ch=1 n=f#3 v=88
108840 On ch=1 n=f#3 v=0
108840 On ch=1 n=b2 v=88
109080 On ch=1 n=b2 v=0
109080 On ch=1 n=f#3 v=88
109200 On ch=1 n=f#3 v=0
109200 On ch=1 n=b3 v=88
109320 On ch=1 n=b3 v=0
109320 On ch=1 n=b4 v=88
109560 On ch=1 n=b4 v=0
109560 On ch=1 n=b3 v=88
109680 On ch=1 n=b3 v=0
109680 On ch=1 n=f#3 v=88
109800 On ch=1 n=f#3 v=0
109800 On ch=1 n=b2 v=88
110160 On ch=1 n=b2 v=0
110160 On ch=1 n=b3 v=88
110400 On ch=1 n=b3 v=0
110400 On ch=1 n=b4 v=88
110640 On ch=1 n=b4 v=0
112320 On ch=1 n=a3 v=88
112320 On ch=1 n=b3 v=88
112800 On ch=1 n=b3 v=0
112800 On ch=1 n=a3 v=0
112800 On ch=1 n=g#3 v=88
112800 On ch=1 n=b3 v=88
113280 On ch=1 n=b3 v=0
113280 On ch=1 n=g#3 v=0
113280 On ch=1 n=f#3 v=88
113280 On ch=1 n=b3 v=88
113760 On ch=1 n=b3 v=0
113760 On ch=1 n=f#3 v=0
114040 On ch=1 n=e3 v=62
114080 On ch=1 n=b3 v=62
114120 On ch=1 n=e4 v=62
114160 On ch=1 n=g#4 v=62
114200 On ch=1 n=b4 v=62
114240 On ch=1 n=e4 v=0
114240 On ch=1 n=b3 v=0
114240 On ch=1 n=e3 v=0
114240 On ch=1 n=e5 v=62
114480 On ch=1 n=e5 v=0
114480 On ch=1 n=b4 v=0
114480 On ch=1 n=g#4 v=0
115000 On ch=1 n=e3 v=62
115040 On ch=1 n=c#4 v=62
115080 On ch=1 n=e4 v=62
115120 On ch=1 n=a4 v=62
115160 On ch=1 n=b4 v=62
115200 On ch=1 n=e4 v=0
115200 On ch=1 n=c#4 v=0
115200 On ch=1 n=e3 v=0
115200 On ch=1 n=e5 v=62
115440 On ch=1 n=e5 v=0
115440 On ch=1 n=b4 v=0
115440 On ch=1 n=a4 v=0
115960 On ch=1 n=e3 v=62
116000 On ch=1 n=d#4 v=62
116040 On ch=1 n=f#4 v=62
116080 On ch=1 n=a4 v=62
116120 On ch=1 n=b4 v=62
116160 On ch=1 n=f#4 v=0
116160 On ch=1 n=d#4 v=0
116160 On ch=1 n=e3 v=0
116160 On ch=1 n=d#5 v=62
116400 On ch=1 n=d#5 v=0
116400 On ch=1 n=b4 v=0
116400 On ch=1 n=a4 v=0
116400 Par ch=1 c=64 v=120
116800 On ch=1 n=e3 v=62
116840 On ch=1 n=b3 v=62
116880 On ch=1 n=e4 v=62
117120 On ch=1 n=e4 v=0
117120 On ch=1 n=b3 v=0
117120 On ch=1 n=e3 v=0
117600 Par ch=1 c=64 v=0
117880 On ch=1 n=e3 v=62
117920 On ch=1 n=c#4 v=62
117960 On ch=1 n=e4 v=62
118000 On ch=1 n=a4 v=62
118040 On ch=1 n=b4 v=62
118080 On ch=1 n=e4 v=0
118080 On ch=1 n=c#4 v=0
118080 On ch=1 n=e3 v=0
118080 On ch=1 n=e5 v=62
118320 On ch=1 n=e5 v=0
118320 On ch=1 n=b4 v=0
118320 On ch=1 n=a4 v=0
118840 On ch=1 n=e3 v=62
118880 On ch=1 n=d#4 v=62
118920 Par ch=1 c=64 v=120
118920 On ch=1 n=f#4 v=62
118960 On ch=1 n=a4 v=62
119000 On ch=1 n=d#5 v=62
119040 On ch=1 n=f#4 v=0
119040 On ch=1 n=d#4 v=0
119040 On ch=1 n=e3 v=0
119040 On ch=1 n=f#5 v=62
119280 On ch=1 n=f#5 v=0
119280 On ch=1 n=d#5 v=0
119280 On ch=1 n=a4 v=0
119520 Par ch=1 c=64 v=0
119800 On ch=1 n=e3 v=62
119840 On ch=1 n=b3 v=62
119880 On ch=1 n=e4 v=62
119920 On ch=1 n=g#4 v=62
119960 On ch=1 n=b4 v=62
120000 On ch=1 n=e4 v=0
120000 On ch=1 n=b3 v=0
120000 On ch=1 n=e3 v=0
120000 On ch=1 n=e5 v=62
120240 On ch=1 n=e5 v=0
120240 On ch=1 n=b4 v=0
120240 On ch=1 n=g#4 v=0
121720 On ch=1 n=e3 v=62
121760 On ch=1 n=b3 v=62
121800 On ch=1 n=e4 v=62
121840 On ch=1 n=g#4 v=62
121880 On ch=1 n=b4 v=62
121920 On ch=1 n=e4 v=0
121920 On ch=1 n=b3 v=0
121920 On ch=1 n=e3 v=0
121920 On ch=1 n=e5 v=62
122160 On ch=1 n=e5 v=0
122160 On ch=1 n=b4 v=0
122160 On ch=1 n=g#4 v=0
122680 On ch=1 n=c#3 v=62
122720 On ch=1 n=a#3 v=62
122760 On ch=1 n=e4 v=62
122820 On ch=1 n=a#4 v=62
122880 On ch=1 n=e4 v=0
122880 On ch=1 n=a#3 v=0
122880 On ch=1 n=c#3 v=0
122880 On ch=1 n=e5 v=62
123120 On ch=1 n=e5 v=0
123120 On ch=1 n=a#4 v=0
123360 Par ch=1 c=64 v=120
123630 On ch=1 n=d#3 v=62
123660 On ch=1 n=a#3 v=62
123690 On ch=1 n=c#4 v=62
123720 On ch=1 n=g4 v=62
123780 On ch=1 n=a#4 v=62
123840 On ch=1 n=g4 v=0
123840 On ch=1 n=c#4 v=0
123840 On ch=1 n=a#3 v=0
123840 On ch=1 n=d#3 v=0
123840 On ch=1 n=c#5 v=62
124080 On ch=1 n=c#5 v=0
124080 On ch=1 n=a#4 v=0
125560 On ch=1 n=g#3 v=62
125600 On ch=1 n=d#4 v=62
125640 On ch=1 n=g#4 v=62
125680 On ch=1 n=b4 v=62
125720 On ch=1 n=d#5 v=62
125760 On ch=1 n=g#4 v=0
125760 On ch=1 n=d#4 v=0
125760 On ch=1 n=g#3 v=0
125760 On ch=1 n=g#5 v=62
126000 On ch=1 n=g#5 v=0
126000 On ch=1 n=d#5 v=0
126000 On ch=1 n=b4 v=0
126510 On ch=1 n=g3 v=62
126540 On ch=1 n=c#4 v=62
126570 On ch=1 n=f4 v=62
126600 On ch=1 n=b4 v=62
126660 On ch=1 n=c#5 v=62
126720 On ch=1 n=b4 v=0
126720 On ch=1 n=f4 v=0
126720 On ch=1 n=c#4 v=0
126720 On ch=1 n=g3 v=0
126720 On ch=1 n=f5 v=62
126960 On ch=1 n=f5 v=0
126960 On ch=1 n=c#5 v=0
127470 On ch=1 n=f#3 v=62
127500 On ch=1 n=c#4 v=62
127530 On ch=1 n=e4 v=62
127560 On ch=1 n=a#4 v=62
127620 On ch=1 n=c#5 v=62
127680 On ch=1 n=a#4 v=0
127680 On ch=1 n=e4 v=0
127680 On ch=1 n=c#4 v=0
127680 On ch=1 n=f#3 v=0
127680 On ch=1 n=e5 v=62
127920 On ch=1 n=e5 v=0
127920 On ch=1 n=c#5 v=0
129400 On ch=1 n=b3 v=62
129440 On ch=1 n=f#4 v=62
129480 On ch=1 n=c5 v=62
129540 On ch=1 n=e5 v=62
129600 On ch=1 n=c5 v=0
129600 On ch=1 n=f#4 v=0
129600 On ch=1 n=b3 v=0
129600 On ch=1 n=a5 v=62
129840 On ch=1 n=a5 v=0
129840 On ch=1 n=e5 v=0
130360 On ch=1 n=b3 v=62
130400 On ch=1 n=f#4 v=62
130440 Par ch=1 c=64 v=120
130440 On ch=1 n=a4 v=62
130480 On ch=1 n=c5 v=62
130520 On ch=1 n=e5 v=62
130560 On ch=1 n=a4 v=0
130560 On ch=1 n=f#4 v=0
130560 On ch=1 n=b3 v=0
130560 On ch=1 n=f#5 v=62
130800 On ch=1 n=f#5 v=0
130800 On ch=1 n=e5 v=0
130800 On ch=1 n=c5 v=0
131040 Par ch=1 c=64 v=0
131340 On ch=1 n=b2 v=62
131400 On ch=1 n=f#4 v=62
131460 On ch=1 n=a4 v=62
131520 On ch=1 n=f#4 v=0
131520 On ch=1 n=b2 v=0
131520 On ch=1 n=d#5 v=62
131760 On ch=1 n=d#5 v=0
131760 On ch=1 n=a4 v=0
133240 On ch=1 n=c4 v=62
133280 On ch=1 n=f#4 v=62
133320 On ch=1 n=c5 v=62
133380 On ch=1 n=e5 v=62
133440 On ch=1 n=c5 v=0
133440 On ch=1 n=f#4 v=0
133440 On ch=1 n=c4 v=0
133440 On ch=1 n=a5 v=62
133680 On ch=1 n=a5 v=0
133680 On ch=1 n=e5 v=0
134040 Par ch=1 c=64 v=120
134040 On ch=1 n=a3 v=62
134100 On ch=1 n=a3 v=0
134100 On ch=1 n=f#4 v=62
134160 On ch=1 n=f#4 v=0
134160 On ch=1 n=a4 v=62
134220 On ch=1 n=a4 v=0
134220 On ch=1 n=c5 v=62
134280 On ch=1 n=c5 v=0
134280 On ch=1 n=e5 v=62
134340 On ch=1 n=e5 v=0
134340 On ch=1 n=f#5 v=62
134400 On ch=1 n=f#5 v=0
134880 Par ch=1 c=64 v=0
135180 On ch=1 n=b2 v=62
135240 On ch=1 n=f#4 v=62
135300 On ch=1 n=a4 v=62
135360 On ch=1 n=f#4 v=0
135360 On ch=1 n=b2 v=0
135360 On ch=1 n=d#5 v=62
135600 On ch=1 n=d#5 v=0
135600 On ch=1 n=a4 v=0
137190 On ch=1 n=e3 v=62
137220 On ch=1 n=b3 v=62
137250 On ch=1 n=e4 v=62
137280 Par ch=1 c=64 v=120
137280 On ch=1 n=g#4 v=62
137520 On ch=1 n=g#4 v=0
137520 On ch=1 n=e4 v=0
137520 On ch=1 n=b3 v=0
137520 On ch=1 n=e3 v=0
138150 On ch=1 n=g#3 v=62
138180 On ch=1 n=e4 v=62
138210 On ch=1 n=g#4 v=62
138240 Par ch=1 c=64 v=0
138240 On ch=1 n=b4 v=62
138480 On ch=1 n=b4 v=0
138480 On ch=1 n=g#4 v=0
138480 On ch=1 n=e4 v=0
138480 On ch=1 n=g#3 v=0
138720 Par ch=1 c=64 v=120
139200 On ch=1 n=a#3 v=62
139260 On ch=1 n=a#3 v=0
139260 On ch=1 n=e4 v=62
139320 On ch=1 n=e4 v=0
139320 On ch=1 n=g4 v=62
139380 On ch=1 n=g4 v=0
139380 On ch=1 n=c#5 v=62
139440 On ch=1 n=c#5 v=0
139440 On ch=1 n=e5 v=62
139500 On ch=1 n=e5 v=0
139500 On ch=1 n=g5 v=62
139560 On ch=1 n=g5 v=0
140040 Par ch=1 c=64 v=0
140920 On ch=1 n=b3 v=62
140960 On ch=1 n=e4 v=62
141000 On ch=1 n=g#4 v=62
141060 On ch=1 n=b4 v=62
141120 On ch=1 n=g#4 v=0
141120 On ch=1 n=e4 v=0
141120 On ch=1 n=b3 v=0
141120 On ch=1 n=e5 v=62
141360 On ch=1 n=e5 v=0
141360 On ch=1 n=b4 v=0
141900 On ch=1 n=b2 v=62
141960 On ch=1 n=d#4 v=62
142020 On ch=1 n=a4 v=62
142080 On ch=1 n=d#4 v=0
142080 On ch=1 n=b2 v=0
142080 On ch=1 n=d#5 v=62
142320 On ch=1 n=d#5 v=0
142320 On ch=1 n=a4 v=0
142860 On ch=1 n=c3 v=62
142920 On ch=1 n=d#4 v=62
142980 On ch=1 n=a4 v=62
143040 On ch=1 n=d#4 v=0
143040 On ch=1 n=c3 v=0
143040 On ch=1 n=d#5 v=62
143280 On ch=1 n=d#5 v=0
143280 On ch=1 n=a4 v=0
144840 Par ch=1 c=64 v=120
144840 On ch=1 n=c#3 v=62
144900 On ch=1 n=c#3 v=0
144900 On ch=1 n=c#4 v=62
144960 On ch=1 n=c#4 v=0
144960 On ch=1 n=f4 v=62
145020 On ch=1 n=f4 v=0
145020 On ch=1 n=g#4 v=62
145080 On ch=1 n=g#4 v=0
145080 On ch=1 n=d5 v=62
145140 On ch=1 n=d5 v=0
145140 On ch=1 n=f5 v=62
145200 On ch=1 n=f5 v=0
145200 On ch=1 n=b5 v=62
145260 On ch=1 n=b5 v=0
145500 Par ch=1 c=64 v=0
145860 Par ch=1 c=64 v=120
145860 On ch=1 n=f#3 v=62
145920 On ch=1 n=f#3 v=0
145920 On ch=1 n=e4 v=62
145980 On ch=1 n=e4 v=0
145980 On ch=1 n=g4 v=62
146040 On ch=1 n=g4 v=0
146040 On ch=1 n=c#5 v=62
146100 On ch=1 n=c#5 v=0
146100 On ch=1 n=e5 v=62
146160 On ch=1 n=e5 v=0
146160 On ch=1 n=a#5 v=62
146220 On ch=1 n=a#5 v=0
146220 Par ch=1 c=64 v=0
146760 Par ch=1 c=64 v=120
146760 On ch=1 n=b2 v=62
146820 On ch=1 n=b2 v=0
146820 On ch=1 n=b3 v=62
146880 On ch=1 n=b3 v=0
146880 On ch=1 n=d#4 v=62
146940 On ch=1 n=d#4 v=0
146940 On ch=1 n=f#4 v=62
147000 On ch=1 n=f#4 v=0
147000 On ch=1 n=c5 v=62
147060 On ch=1 n=c5 v=0
147060 On ch=1 n=d#5 v=62
147120 On ch=1 n=d#5 v=0
147120 On ch=1 n=a5 v=62
147180 On ch=1 n=a5 v=0
147420 Par ch=1 c=64 v=0
147780 Par ch=1 c=64 v=120
147780 On ch=1 n=e3 v=62
147840 On ch=1 n=e3 v=0
147840 On ch=1 n=d4 v=62
147900 On ch=1 n=d4 v=0
147900 On ch=1 n=f4 v=62
147960 On ch=1 n=f4 v=0
147960 On ch=1 n=b4 v=62
148020 On ch=1 n=b4 v=0
148020 On ch=1 n=d5 v=62
148080 On ch=1 n=d5 v=0
148080 On ch=1 n=g#5 v=62
148140 On ch=1 n=g#5 v=0
148140 Par ch=1 c=64 v=0
148440 Par ch=1 c=64 v=120
148440 On ch=1 n=a2 v=62
148500 On ch=1 n=a2 v=0
148500 On ch=1 n=a3 v=62
148560 On ch=1 n=a3 v=0
148560 On ch=1 n=c4 v=62
148620 On ch=1 n=c4 v=0
148620 On ch=1 n=f4 v=62
148680 On ch=1 n=f4 v=0
148680 On ch=1 n=a4 v=62
148740 On ch=1 n=a4 v=0
148740 On ch=1 n=c5 v=62
148800 On ch=1 n=c5 v=0
148800 On ch=1 n=f5 v=62
148860 On ch=1 n=f5 v=0
151839 On ch=1 n=a3 v=62
151839 On ch=1 n=f4 v=62
152000 On ch=1 n=f4 v=0
152000 On ch=1 n=a3 v=0
152000 On ch=1 n=a#3 v=62
152000 On ch=1 n=g4 v=62
152160 On ch=1 n=g4 v=0
152160 On ch=1 n=a#3 v=0
152160 On ch=1 n=b3 v=62
152160 On ch=1 n=g#4 v=62
152400 On ch=1 n=g#4 v=0
152400 On ch=1 n=b3 v=0
152520 On ch=1 n=g#4 v=62
152520 On ch=1 n=e5 v=62
152640 On ch=1 n=e5 v=0
152640 On ch=1 n=g#4 v=0
152880 On ch=1 n=b3 v=88
153000 On ch=1 n=b3 v=0
153000 On ch=1 n=c4 v=88
153720 On ch=1 n=c4 v=0
153720 On ch=1 n=b3 v=88
153960 On ch=1 n=b3 v=0
154080 Par ch=1 c=64 v=120
154080 On ch=1 n=e2 v=127
154080 On ch=1 n=e3 v=127
154320 On ch=1 n=e3 v=0
154320 On ch=1 n=e2 v=0
154560 On ch=1 n=b3 v=114
154560 On ch=1 n=e4 v=114
154560 On ch=1 n=g#4 v=114
154560 On ch=1 n=b4 v=114
154575 On ch=1 n=b3 v=0
154591 On ch=1 n=e4 v=0
154607 On ch=1 n=g#4 v=0
154623 On ch=1 n=b4 v=0
154719 On ch=1 n=b3 v=114
154719 On ch=1 n=e4 v=114
154719 On ch=1 n=g#4 v=114
154719 On ch=1 n=b4 v=114
154735 On ch=1 n=b3 v=0
154751 On ch=1 n=e4 v=0
154768 On ch=1 n=g#4 v=0
154784 On ch=1 n=b4 v=0
154880 On ch=1 n=b3 v=114
154880 On ch=1 n=e4 v=114
154880 On ch=1 n=g#4 v=114
154880 On ch=1 n=b4 v=114
154896 On ch=1 n=b3 v=0
154912 On ch=1 n=e4 v=0
154927 On ch=1 n=g#4 v=0
154943 On ch=1 n=b4 v=0
155040 On ch=1 n=b3 v=114
155040 On ch=1 n=e4 v=114
155040 On ch=1 n=g#4 v=114
155040 On ch=1 n=b4 v=114
155055 On ch=1 n=b3 v=0
155071 On ch=1 n=e4 v=0
155087 On ch=1 n=g#4 v=0
155103 On ch=1 n=b4 v=0
155199 On ch=1 n=b3 v=114
155199 On ch=1 n=e4 v=114
155199 On ch=1 n=g#4 v=114
155199 On ch=1 n=b4 v=114
155215 On ch=1 n=b3 v=0
155231 On ch=1 n=e4 v=0
155248 On ch=1 n=g#4 v=0
155264 On ch=1 n=b4 v=0
155360 On ch=1 n=b3 v=114
155360 On ch=1 n=e4 v=114
155360 On ch=1 n=g#4 v=114
155360 On ch=1 n=b4 v=114
155376 On ch=1 n=b3 v=0
155392 On ch=1 n=e4 v=0
155407 On ch=1 n=g#4 v=0
155423 On ch=1 n=b4 v=0
155520 On ch=1 n=b3 v=114
155520 On ch=1 n=e4 v=114
155520 On ch=1 n=g#4 v=114
155520 On ch=1 n=b4 v=114
155543 On ch=1 n=b3 v=0
155567 On ch=1 n=e4 v=0
155592 On ch=1 n=g#4 v=0
155616 On ch=1 n=b4 v=0
155760 Par ch=1 c=64 v=0
156000 Par ch=1 c=64 v=120
156000 On ch=1 n=e2 v=127
156000 On ch=1 n=e3 v=127
156240 On ch=1 n=e3 v=0
156240 On ch=1 n=e2 v=0
156480 On ch=1 n=b3 v=114
156480 On ch=1 n=e4 v=114
156480 On ch=1 n=g#4 v=114
156480 On ch=1 n=b4 v=114
156495 On ch=1 n=b3 v=0
156511 On ch=1 n=e4 v=0
156527 On ch=1 n=g#4 v=0
156543 On ch=1 n=b4 v=0
156639 On ch=1 n=b3 v=114
156639 On ch=1 n=e4 v=114
156639 On ch=1 n=g#4 v=114
156639 On ch=1 n=b4 v=114
156655 On ch=1 n=b3 v=0
156671 On ch=1 n=e4 v=0
156688 On ch=1 n=g#4 v=0
156704 On ch=1 n=b4 v=0
156800 On ch=1 n=b3 v=114
156800 On ch=1 n=e4 v=114
156800 On ch=1 n=g#4 v=114
156800 On ch=1 n=b4 v=114
156816 On ch=1 n=b3 v=0
156832 On ch=1 n=e4 v=0
156847 On ch=1 n=g#4 v=0
156863 On ch=1 n=b4 v=0
156960 On ch=1 n=b3 v=114
156960 On ch=1 n=e4 v=114
156960 On ch=1 n=g#4 v=114
156960 On ch=1 n=b4 v=114
156975 On ch=1 n=b3 v=0
156991 On ch=1 n=e4 v=0
157007 On ch=1 n=g#4 v=0
157023 On ch=1 n=b4 v=0
157119 On ch=1 n=b3 v=114
157119 On ch=1 n=e4 v=114
157119 On ch=1 n=g#4 v=114
157119 On ch=1 n=b4 v=114
157135 On ch=1 n=b3 v=0
157151 On ch=1 n=e4 v=0
157168 On ch=1 n=g#4 v=0
157184 On ch=1 n=b4 v=0
157280 On ch=1 n=b3 v=114
157280 On ch=1 n=e4 v=114
157280 On ch=1 n=g#4 v=114
157280 On ch=1 n=b4 v=114
157296 On ch=1 n=b3 v=0
157312 On ch=1 n=e4 v=0
157327 On ch=1 n=g#4 v=0
157343 On ch=1 n=b4 v=0
157440 On ch=1 n=b3 v=114
157440 On ch=1 n=e4 v=114
157440 On ch=1 n=g#4 v=114
157440 On ch=1 n=b4 v=114
157463 On ch=1 n=b3 v=0
157487 On ch=1 n=e4 v=0
157512 On ch=1 n=g#4 v=0
157536 On ch=1 n=b4 v=0
157680 Par ch=1 c=64 v=0
157920 Par ch=1 c=64 v=120
157920 On ch=1 n=b2 v=101
158079 On ch=1 n=b2 v=0
158079 On ch=1 n=b3 v=101
158240 On ch=1 n=b3 v=0
158240 On ch=1 n=f#3 v=101
158400 On ch=1 n=f#3 v=0
158400 On ch=1 n=f#4 v=101
158559 On ch=1 n=f#4 v=0
158559 On ch=1 n=b3 v=101
158720 On ch=1 n=b3 v=0
158720 On ch=1 n=b4 v=101
158880 On ch=1 n=b4 v=0
158880 On ch=1 n=f#4 v=101
159039 On ch=1 n=f#4 v=0
159039 On ch=1 n=f#5 v=101
159200 On ch=1 n=f#5 v=0
159200 On ch=1 n=b3 v=101
159360 On ch=1 n=b3 v=0
159360 On ch=1 n=b4 v=101
159519 On ch=1 n=b4 v=0
159519 On ch=1 n=f#3 v=101
159680 On ch=1 n=f#3 v=0
159680 Par ch=1 c=64 v=0
159680 On ch=1 n=f#4 v=101
159840 On ch=1 n=f#4 v=0
159840 Par ch=1 c=64 v=120
159840 On ch=1 n=b2 v=101
159999 On ch=1 n=b2 v=0
159999 On ch=1 n=b3 v=101
160160 On ch=1 n=b3 v=0
160160 On ch=1 n=f#3 v=101
160320 On ch=1 n=f#3 v=0
160320 On ch=1 n=f#4 v=101
160479 On ch=1 n=f#4 v=0
160479 On ch=1 n=b3 v=101
160640 On ch=1 n=b3 v=0
160640 On ch=1 n=b4 v=101
160800 On ch=1 n=b4 v=0
160800 Par ch=1 c=64 v=0
161040 On ch=1 n=f#3 v=127
161040 On ch=1 n=f#4 v=127
161280 On ch=1 n=f#4 v=0
161280 On ch=1 n=f#3 v=0
161280 On ch=1 n=b2 v=127
161280 On ch=1 n=b3 v=127
161520 On ch=1 n=b3 v=0
161520 On ch=1 n=b2 v=0
161520 On ch=1 n=f#2 v=127
161520 On ch=1 n=f#3 v=127
161760 On ch=1 n=f#3 v=0
161760 On ch=1 n=f#2 v=0
161760 Par ch=1 c=64 v=120
161760 On ch=1 n=d2 v=127
161760 On ch=1 n=d3 v=127
162000 On ch=1 n=d3 v=0
162000 On ch=1 n=d2 v=0
162240 On ch=1 n=a3 v=114
162240 On ch=1 n=d4 v=114
162240 On ch=1 n=f#4 v=114
162240 On ch=1 n=a4 v=114
162255 On ch=1 n=a3 v=0
162271 On ch=1 n=d4 v=0
162287 On ch=1 n=f#4 v=0
162303 On ch=1 n=a4 v=0
162399 On ch=1 n=a3 v=114
162399 On ch=1 n=d4 v=114
162399 On ch=1 n=f#4 v=114
162399 On ch=1 n=a4 v=114
162415 On ch=1 n=a3 v=0
162431 On ch=1 n=d4 v=0
162448 On ch=1 n=f#4 v=0
162464 On ch=1 n=a4 v=0
162560 On ch=1 n=a3 v=114
162560 On ch=1 n=d4 v=114
162560 On ch=1 n=f#4 v=114
162560 On ch=1 n=a4 v=114
162576 On ch=1 n=a3 v=0
162592 On ch=1 n=d4 v=0
162607 On ch=1 n=f#4 v=0
162623 On ch=1 n=a4 v=0
162720 On ch=1 n=a3 v=114
162720 On ch=1 n=d4 v=114
162720 On ch=1 n=f#4 v=114
162720 On ch=1 n=a4 v=114
162735 On ch=1 n=a3 v=0
162751 On ch=1 n=d4 v=0
162767 On ch=1 n=f#4 v=0
162783 On ch=1 n=a4 v=0
162879 On ch=1 n=a3 v=114
162879 On ch=1 n=d4 v=114
162879 On ch=1 n=f#4 v=114
162879 On ch=1 n=a4 v=114
162895 On ch=1 n=a3 v=0
162911 On ch=1 n=d4 v=0
162928 On ch=1 n=f#4 v=0
162944 On ch=1 n=a4 v=0
163040 On ch=1 n=a3 v=114
163040 On ch=1 n=d4 v=114
163040 On ch=1 n=f#4 v=114
163040 On ch=1 n=a4 v=114
163056 On ch=1 n=a3 v=0
163072 On ch=1 n=d4 v=0
163087 On ch=1 n=f#4 v=0
163103 On ch=1 n=a4 v=0
163200 On ch=1 n=a3 v=114
163200 On ch=1 n=d4 v=114
163200 On ch=1 n=f#4 v=114
163200 On ch=1 n=a4 v=114
163223 On ch=1 n=a3 v=0
163247 On ch=1 n=d4 v=0
163272 On ch=1 n=f#4 v=0
163296 On ch=1 n=a4 v=0
163440 Par ch=1 c=64 v=0
163680 Par ch=1 c=64 v=120
163680 On ch=1 n=d2 v=127
163680 On ch=1 n=d3 v=127
163920 On ch=1 n=d3 v=0
163920 On ch=1 n=d2 v=0
164160 On ch=1 n=a3 v=114
164160 On ch=1 n=d4 v=114
164160 On ch=1 n=f#4 v=114
164160 On ch=1 n=a4 v=114
164175 On ch=1 n=a3 v=0
164191 On ch=1 n=d4 v=0
164207 On ch=1 n=f#4 v=0
164223 On ch=1 n=a4 v=0
164319 On ch=1 n=a3 v=114
164319 On ch=1 n=d4 v=114
164319 On ch=1 n=f#4 v=114
164319 On ch=1 n=a4 v=114
164335 On ch=1 n=a3 v=0
164351 On ch=1 n=d4 v=0
164368 On ch=1 n=f#4 v=0
164384 On ch=1 n=a4 v=0
164480 On ch=1 n=a3 v=114
164480 On ch=1 n=d4 v=114
164480 On ch=1 n=f#4 v=114
164480 On ch=1 n=a4 v=114
164496 On ch=1 n=a3 v=0
164512 On ch=1 n=d4 v=0
164527 On ch=1 n=f#4 v=0
164543 On ch=1 n=a4 v=0
164640 On ch=1 n=a3 v=114
164640 On ch=1 n=d4 v=114
164640 On ch=1 n=f#4 v=114
164640 On ch=1 n=a4 v=114
164655 On ch=1 n=a3 v=0
164671 On ch=1 n=d4 v=0
164687 On ch=1 n=f#4 v=0
164703 On ch=1 n=a4 v=0
164799 On ch=1 n=a3 v=114
164799 On ch=1 n=d4 v=114
164799 On ch=1 n=f#4 v=114
164799 On ch=1 n=a4 v=114
164815 On ch=1 n=a3 v=0
164831 On ch=1 n=d4 v=0
164848 On ch=1 n=f#4 v=0
164864 On ch=1 n=a4 v=0
164960 On ch=1 n=a3 v=114
164960 On ch=1 n=d4 v=114
164960 On ch=1 n=f#4 v=114
164960 On ch=1 n=a4 v=114
164976 On ch=1 n=a3 v=0
164992 On ch=1 n=d4 v=0
165007 On ch=1 n=f#4 v=0
165023 On ch=1 n=a4 v=0
165120 On ch=1 n=a3 v=114
165120 On ch=1 n=d4 v=114
165120 On ch=1 n=f#4 v=114
165120 On ch=1 n=a4 v=114
165143 On ch=1 n=a3 v=0
165167 On ch=1 n=d4 v=0
165192 On ch=1 n=f#4 v=0
165216 On ch=1 n=a4 v=0
165360 Par ch=1 c=64 v=0
165600 Par ch=1 c=64 v=120
165600 On ch=1 n=a2 v=101
165759 On ch=1 n=a2 v=0
165759 On ch=1 n=a3 v=101
165920 On ch=1 n=a3 v=0
165920 On ch=1 n=e3 v=101
166080 On ch=1 n=e3 v=0
166080 On ch=1 n=e4 v=101
166239 On ch=1 n=e4 v=0
166239 On ch=1 n=a3 v=101
166400 On ch=1 n=a3 v=0
166400 On ch=1 n=a4 v=101
166560 On ch=1 n=a4 v=0
166560 On ch=1 n=e4 v=101
166719 On ch=1 n=e4 v=0
166719 On ch=1 n=e5 v=101
166880 On ch=1 n=e5 v=0
166880 On ch=1 n=a3 v=101
167040 On ch=1 n=a3 v=0
167040 On ch=1 n=a4 v=101
167199 On ch=1 n=a4 v=0
167199 On ch=1 n=e3 v=101
167360 On ch=1 n=e3 v=0
167360 Par ch=1 c=64 v=0
167360 On ch=1 n=e4 v=101
167520 On ch=1 n=e4 v=0
167520 Par ch=1 c=64 v=120
167520 On ch=1 n=a2 v=101
167679 On ch=1 n=a2 v=0
167679 On ch=1 n=a3 v=101
167840 On ch=1 n=a3 v=0
167840 On ch=1 n=e3 v=101
168000 On ch=1 n=e3 v=0
168000 On ch=1 n=e4 v=101
168159 On ch=1 n=e4 v=0
168159 On ch=1 n=a3 v=101
168320 On ch=1 n=a3 v=0
168320 On ch=1 n=a4 v=101
168480 On ch=1 n=a4 v=0
168480 Par ch=1 c=64 v=0
168720 On ch=1 n=e3 v=101
168720 On ch=1 n=e4 v=101
168960 On ch=1 n=e4 v=0
168960 On ch=1 n=e3 v=0
168960 On ch=1 n=a2 v=101
168960 On ch=1 n=a3 v=101
169200 On ch=1 n=a3 v=0
169200 On ch=1 n=a2 v=0
169200 On ch=1 n=e2 v=101
169200 On ch=1 n=e3 v=101
169440 On ch=1 n=e3 v=0
169440 On ch=1 n=e2 v=0
169440 Par ch=1 c=64 v=120
169440 On ch=1 n=c2 v=127
169440 On ch=1 n=c3 v=127
169440 On ch=1 n=c2 v=114
169440 On ch=1 n=c3 v=114
169680 On ch=1 n=c3 v=0
169680 On ch=1 n=c2 v=0
169920 On ch=1 n=g3 v=114
169920 On ch=1 n=c4 v=114
169920 On ch=1 n=e4 v=114
169920 On ch=1 n=g4 v=114
170079 On ch=1 n=g4 v=0
170079 On ch=1 n=e4 v=0
170079 On ch=1 n=c4 v=0
170079 On ch=1 n=g3 v=0
170079 On ch=1 n=g3 v=114
170079 On ch=1 n=c4 v=114
170079 On ch=1 n=e4 v=114
170079 On ch=1 n=g4 v=114
170240 On ch=1 n=g4 v=0
170240 On ch=1 n=e4 v=0
170240 On ch=1 n=c4 v=0
170240 On ch=1 n=g3 v=0
170240 On ch=1 n=g3 v=114
170240 On ch=1 n=c4 v=114
170240 On ch=1 n=e4 v=114
170240 On ch=1 n=g4 v=114
170400 On ch=1 n=g4 v=0
170400 On ch=1 n=e4 v=0
170400 On ch=1 n=c4 v=0
170400 On ch=1 n=g3 v=0
170400 On ch=1 n=g3 v=114
170400 On ch=1 n=c4 v=114
170400 On ch=1 n=e4 v=114
170400 On ch=1 n=g4 v=114
170559 On ch=1 n=g4 v=0
170559 On ch=1 n=e4 v=0
170559 On ch=1 n=c4 v=0
170559 On ch=1 n=g3 v=0
170559 On ch=1 n=g3 v=114
170559 On ch=1 n=c4 v=114
170559 On ch=1 n=e4 v=114
170559 On ch=1 n=g4 v=114
170720 On ch=1 n=g4 v=0
170720 On ch=1 n=e4 v=0
170720 On ch=1 n=c4 v=0
170720 On ch=1 n=g3 v=0
170720 On ch=1 n=g3 v=114
170720 On ch=1 n=c4 v=114
170720 On ch=1 n=e4 v=114
170720 On ch=1 n=g4 v=114
170880 On ch=1 n=g4 v=0
170880 On ch=1 n=e4 v=0
170880 On ch=1 n=c4 v=0
170880 On ch=1 n=g3 v=0
170880 On ch=1 n=g3 v=127
170880 On ch=1 n=c4 v=127
170880 On ch=1 n=e4 v=127
170880 On ch=1 n=g4 v=127
171120 On ch=1 n=g4 v=0
171120 On ch=1 n=e4 v=0
171120 On ch=1 n=c4 v=0
171120 On ch=1 n=g3 v=0
171120 Par ch=1 c=64 v=0
171360 On ch=1 n=c3 v=0
171360 On ch=1 n=c2 v=0
171360 Par ch=1 c=64 v=120
171360 On ch=1 n=c2 v=127
171360 On ch=1 n=c3 v=127
171360 On ch=1 n=c2 v=114
171360 On ch=1 n=c3 v=114
171600 On ch=1 n=c3 v=0
171600 On ch=1 n=c2 v=0
171840 On ch=1 n=g3 v=114
171840 On ch=1 n=c4 v=114
171840 On ch=1 n=e4 v=114
171840 On ch=1 n=g4 v=114
171999 On ch=1 n=g4 v=0
171999 On ch=1 n=e4 v=0
171999 On ch=1 n=c4 v=0
171999 On ch=1 n=g3 v=0
171999 On ch=1 n=g3 v=114
171999 On ch=1 n=c4 v=114
171999 On ch=1 n=e4 v=114
171999 On ch=1 n=g4 v=114
172160 On ch=1 n=g4 v=0
172160 On ch=1 n=e4 v=0
172160 On ch=1 n=c4 v=0
172160 On ch=1 n=g3 v=0
172160 On ch=1 n=g3 v=114
172160 On ch=1 n=c4 v=114
172160 On ch=1 n=e4 v=114
172160 On ch=1 n=g4 v=114
172320 On ch=1 n=g4 v=0
172320 On ch=1 n=e4 v=0
172320 On ch=1 n=c4 v=0
172320 On ch=1 n=g3 v=0
172320 On ch=1 n=g3 v=114
172320 On ch=1 n=c4 v=114
172320 On ch=1 n=e4 v=114
172320 On ch=1 n=g4 v=114
172479 On ch=1 n=g4 v=0
172479 On ch=1 n=e4 v=0
172479 On ch=1 n=c4 v=0
172479 On ch=1 n=g3 v=0
172479 On ch=1 n=g3 v=114
172479 On ch=1 n=c4 v=114
172479 On ch=1 n=e4 v=114
172479 On ch=1 n=g4 v=114
172640 On ch=1 n=g4 v=0
172640 On ch=1 n=e4 v=0
172640 On ch=1 n=c4 v=0
172640 On ch=1 n=g3 v=0
172640 On ch=1 n=g3 v=114
172640 On ch=1 n=c4 v=114
172640 On ch=1 n=e4 v=114
172640 On ch=1 n=g4 v=114
172800 On ch=1 n=g4 v=0
172800 On ch=1 n=e4 v=0
172800 On ch=1 n=c4 v=0
172800 On ch=1 n=g3 v=0
172800 On ch=1 n=g3 v=127
172800 On ch=1 n=c4 v=127
172800 On ch=1 n=e4 v=127
172800 On ch=1 n=g4 v=127
173040 On ch=1 n=g4 v=0
173040 On ch=1 n=e4 v=0
173040 On ch=1 n=c4 v=0
173040 On ch=1 n=g3 v=0
173040 Par ch=1 c=64 v=0
173280 On ch=1 n=c3 v=0
173280 On ch=1 n=c2 v=0
173280 Par ch=1 c=64 v=120
173280 On ch=1 n=f2 v=114
173439 On ch=1 n=f2 v=0
173439 On ch=1 n=f3 v=114
173600 On ch=1 n=f3 v=0
173600 On ch=1 n=c3 v=114
173760 On ch=1 n=c3 v=0
173760 On ch=1 n=c4 v=114
173919 On ch=1 n=c4 v=0
173919 On ch=1 n=f3 v=114
174080 On ch=1 n=f3 v=0
174080 On ch=1 n=f4 v=114
174240 On ch=1 n=f4 v=0
174240 Par ch=1 c=64 v=0
174240 On ch=1 n=c4 v=114
174399 On ch=1 n=c4 v=0
174399 On ch=1 n=c5 v=114
174560 On ch=1 n=c5 v=0
174560 On ch=1 n=f3 v=114
174720 On ch=1 n=f3 v=0
174720 On ch=1 n=f4 v=114
174879 On ch=1 n=f4 v=0
174879 On ch=1 n=c3 v=114
175040 On ch=1 n=c3 v=0
175040 On ch=1 n=c4 v=114
175200 On ch=1 n=c4 v=0
175200 Par ch=1 c=64 v=120
175200 On ch=1 n=f2 v=114
175200 On ch=1 n=f2 v=114
175320 On ch=1 n=f2 v=0
175320 On ch=1 n=f3 v=114
175440 On ch=1 n=f3 v=0
175440 On ch=1 n=f2 v=0
175440 On ch=1 n=f#2 v=117
175440 On ch=1 n=f#2 v=117
175560 On ch=1 n=f#2 v=0
175560 On ch=1 n=f#3 v=117
175680 On ch=1 n=f#3 v=0
175680 On ch=1 n=f#2 v=0
175680 On ch=1 n=g2 v=120
175680 On ch=1 n=g2 v=120
175800 On ch=1 n=g2 v=0
175800 On ch=1 n=g3 v=120
175920 On ch=1 n=g3 v=0
175920 On ch=1 n=g2 v=0
175920 On ch=1 n=g#2 v=123
175920 On ch=1 n=g#2 v=123
176040 On ch=1 n=g#2 v=0
176040 On ch=1 n=g#3 v=123
176160 On ch=1 n=g#3 v=0
176160 On ch=1 n=g#2 v=0
176160 Par ch=1 c=64 v=0
176160 On ch=1 n=b2 v=118
176160 On ch=1 n=b2 v=118
176280 On ch=1 n=b2 v=0
176280 On ch=1 n=b3 v=118
176400 On ch=1 n=b3 v=0
176400 On ch=1 n=b2 v=0
176400 On ch=1 n=a#2 v=121
176400 On ch=1 n=a#2 v=121
176520 On ch=1 n=a#2 v=0
176520 On ch=1 n=a#3 v=121
176640 On ch=1 n=a#3 v=0
176640 On ch=1 n=a#2 v=0
176640 On ch=1 n=a2 v=124
176640 On ch=1 n=a2 v=124
176760 On ch=1 n=a2 v=0
176760 On ch=1 n=a3 v=124
176880 On ch=1 n=a3 v=0
176880 On ch=1 n=a2 v=0
176880 On ch=1 n=g#2 v=127
176880 On ch=1 n=g#2 v=127
177000 On ch=1 n=g#2 v=0
177000 On ch=1 n=g#3 v=127
177120 On ch=1 n=g#3 v=0
177120 On ch=1 n=g#2 v=0
177120 Par ch=1 c=64 v=120
177120 On ch=1 n=f#2 v=127
177279 On ch=1 n=f#2 v=0
177279 On ch=1 n=f#3 v=127
177440 On ch=1 n=f#3 v=0
177440 On ch=1 n=c#3 v=127
177600 On ch=1 n=c#3 v=0
177600 On ch=1 n=c#4 v=127
177759 On ch=1 n=c#4 v=0
177759 On ch=1 n=f#3 v=127
177920 On ch=1 n=f#3 v=0
177920 On ch=1 n=f#4 v=127
178080 On ch=1 n=f#4 v=0
178080 Par ch=1 c=64 v=0
178080 On ch=1 n=c#4 v=127
178239 On ch=1 n=c#4 v=0
178239 On ch=1 n=c#5 v=127
178400 On ch=1 n=c#5 v=0
178400 On ch=1 n=f#3 v=127
178560 On ch=1 n=f#3 v=0
178560 On ch=1 n=f#4 v=127
178719 On ch=1 n=f#4 v=0
178719 On ch=1 n=c#3 v=127
178880 On ch=1 n=c#3 v=0
178880 On ch=1 n=c#4 v=127
179040 On ch=1 n=c#4 v=0
179040 Par ch=1 c=64 v=120
179040 On ch=1 n=f#2 v=127
179040 On ch=1 n=f2 v=127
179160 On ch=1 n=f2 v=0
179160 On ch=1 n=f3 v=127
179280 On ch=1 n=f3 v=0
179280 On ch=1 n=f#2 v=0
179280 On ch=1 n=g2 v=127
179280 On ch=1 n=g2 v=127
179400 On ch=1 n=g2 v=0
179400 On ch=1 n=g3 v=127
179520 On ch=1 n=g3 v=0
179520 On ch=1 n=g2 v=0
179520 On ch=1 n=g#2 v=127
179520 On ch=1 n=g#2 v=127
179640 On ch=1 n=g#2 v=0
179640 On ch=1 n=g#3 v=127
179760 On ch=1 n=g#3 v=0
179760 On ch=1 n=g#2 v=0
179760 On ch=1 n=a2 v=127
179760 On ch=1 n=a2 v=127
179880 On ch=1 n=a2 v=0
179880 On ch=1 n=a3 v=127
180000 On ch=1 n=a3 v=0
180000 On ch=1 n=a2 v=0
180000 Par ch=1 c=64 v=0
180000 On ch=1 n=c3 v=127
180000 On ch=1 n=c3 v=127
180120 On ch=1 n=c3 v=0
180120 On ch=1 n=c4 v=127
180240 On ch=1 n=c4 v=0
180240 On ch=1 n=c3 v=0
180240 On ch=1 n=b2 v=127
180240 On ch=1 n=b2 v=127
180360 On ch=1 n=b2 v=0
180360 On ch=1 n=b3 v=127
180480 On ch=1 n=b3 v=0
180480 On ch=1 n=b2 v=0
180480 On ch=1 n=a#2 v=127
180480 On ch=1 n=a#2 v=127
180600 On ch=1 n=a#2 v=0
180600 On ch=1 n=a#3 v=127
180720 On ch=1 n=a#3 v=0
180720 On ch=1 n=a#2 v=0
180720 On ch=1 n=a2 v=127
180720 On ch=1 n=a2 v=127
180840 On ch=1 n=a2 v=0
180840 On ch=1 n=a3 v=127
180960 On ch=1 n=a3 v=0
180960 On ch=1 n=a2 v=0
180960 Par ch=1 c=64 v=120
180960 On ch=1 n=g2 v=127
180960 On ch=1 n=g2 v=127
181080 On ch=1 n=g2 v=0
181080 On ch=1 n=g3 v=127
181200 On ch=1 n=g3 v=0
181200 On ch=1 n=g2 v=0
181200 On ch=1 n=g#2 v=127
181200 On ch=1 n=g#2 v=127
181320 On ch=1 n=g#2 v=0
181320 On ch=1 n=g#3 v=127
181440 On ch=1 n=g#3 v=0
181440 On ch=1 n=g#2 v=0
181440 On ch=1 n=a2 v=127
181440 On ch=1 n=a2 v=127
181560 On ch=1 n=a2 v=0
181560 On ch=1 n=a3 v=127
181680 On ch=1 n=a3 v=0
181680 On ch=1 n=a2 v=0
181680 On ch=1 n=a#2 v=127
181680 On ch=1 n=a#2 v=127
181800 On ch=1 n=a#2 v=0
181800 On ch=1 n=b3 v=127
181920 On ch=1 n=b3 v=0
181920 On ch=1 n=a#2 v=0
181920 Par ch=1 c=64 v=0
181920 On ch=1 n=c#3 v=127
181920 On ch=1 n=c#3 v=127
182040 On ch=1 n=c#3 v=0
182040 On ch=1 n=d4 v=127
182160 On ch=1 n=d4 v=0
182160 On ch=1 n=c#3 v=0
182160 On ch=1 n=c3 v=127
182160 On ch=1 n=c3 v=127
182280 On ch=1 n=c3 v=0
182280 On ch=1 n=c4 v=127
182400 On ch=1 n=c4 v=0
182400 On ch=1 n=c3 v=0
182400 On ch=1 n=b2 v=127
182400 On ch=1 n=b2 v=127
182520 On ch=1 n=b2 v=0
182520 On ch=1 n=b3 v=127
182640 On ch=1 n=b3 v=0
182640 On ch=1 n=b2 v=0
182640 On ch=1 n=a#2 v=127
182640 On ch=1 n=a#2 v=127
182760 On ch=1 n=a#2 v=0
182760 On ch=1 n=a#3 v=127
182880 On ch=1 n=a#3 v=0
182880 On ch=1 n=a#2 v=0
182880 On ch=1 n=c#3 v=127
182880 On ch=1 n=c#3 v=127
183000 On ch=1 n=c#3 v=0
183000 On ch=1 n=c#4 v=127
183120 On ch=1 n=c#4 v=0
183120 On ch=1 n=c#3 v=0
183120 On ch=1 n=d3 v=127
183120 On ch=1 n=d3 v=127
183240 On ch=1 n=d3 v=0
183240 On ch=1 n=d4 v=127
183360 On ch=1 n=d4 v=0
183360 On ch=1 n=d3 v=0
183360 On ch=1 n=d#3 v=127
183360 On ch=1 n=d#3 v=127
183480 On ch=1 n=d#3 v=0
183480 On ch=1 n=d#4 v=127
183600 On ch=1 n=d#4 v=0
183600 On ch=1 n=d#3 v=0
183600 On ch=1 n=e3 v=127
183600 On ch=1 n=e3 v=127
183720 On ch=1 n=e3 v=0
183720 On ch=1 n=e4 v=127
183840 On ch=1 n=e4 v=0
183840 On ch=1 n=e3 v=0
183840 On ch=1 n=a#3 v=127
183840 On ch=1 n=a#3 v=127
183960 On ch=1 n=a#3 v=0
183960 On ch=1 n=a#4 v=127
184080 On ch=1 n=a#4 v=0
184080 On ch=1 n=a#3 v=0
184080 On ch=1 n=a3 v=127
184080 On ch=1 n=a3 v=127
184200 On ch=1 n=a3 v=0
184200 On ch=1 n=a4 v=127
184320 On ch=1 n=a4 v=0
184320 On ch=1 n=a3 v=0
184320 On ch=1 n=g#3 v=127
184320 On ch=1 n=g#3 v=127
184440 On ch=1 n=g#3 v=0
184440 On ch=1 n=g#4 v=127
184560 On ch=1 n=g#4 v=0
184560 On ch=1 n=g#3 v=0
184560 On ch=1 n=g3 v=127
184560 On ch=1 n=g3 v=127
184680 On ch=1 n=g3 v=0
184680 On ch=1 n=g4 v=127
184800 On ch=1 n=g4 v=0
184800 On ch=1 n=g3 v=0
184800 On ch=1 n=e4 v=127
185040 On ch=1 n=e4 v=0
185040 On ch=1 n=d#4 v=127
185280 On ch=1 n=d#4 v=0
185280 On ch=1 n=d4 v=127
185520 On ch=1 n=d4 v=0
185520 On ch=1 n=c#4 v=127
185760 On ch=1 n=c#4 v=0
185760 On ch=1 n=a#3 v=127
186000 On ch=1 n=a#3 v=0
186000 On ch=1 n=a3 v=127
186240 On ch=1 n=a3 v=0
186240 On ch=1 n=g#3 v=127
186480 On ch=1 n=g#3 v=0
186480 On ch=1 n=g3 v=127
186720 On ch=1 n=g3 v=0
186720 On ch=1 n=e3 v=127
186840 On ch=1 n=e4 v=127
186840 On ch=1 n=e5 v=127
186960 On ch=1 n=e3 v=0
186960 On ch=1 n=d#3 v=127
187080 On ch=1 n=e5 v=0
187080 On ch=1 n=e4 v=0
187080 On ch=1 n=d#4 v=127
187080 On ch=1 n=d#5 v=127
187200 On ch=1 n=d#3 v=0
187200 On ch=1 n=d3 v=127
187320 On ch=1 n=d#5 v=0
187320 On ch=1 n=d#4 v=0
187320 On ch=1 n=d4 v=127
187320 On ch=1 n=d5 v=127
187440 On ch=1 n=d3 v=0
187440 On ch=1 n=c#3 v=127
187560 On ch=1 n=d5 v=0
187560 On ch=1 n=d4 v=0
187560 On ch=1 n=c#4 v=127
187560 On ch=1 n=c#5 v=127
187680 On ch=1 n=c#3 v=0
187680 On ch=1 n=c3 v=127
187800 On ch=1 n=c#5 v=0
187800 On ch=1 n=c#4 v=0
187800 On ch=1 n=c4 v=127
187800 On ch=1 n=c5 v=127
187920 On ch=1 n=c3 v=0
187920 On ch=1 n=b2 v=127
188040 On ch=1 n=c5 v=0
188040 On ch=1 n=c4 v=0
188040 On ch=1 n=b3 v=127
188040 On ch=1 n=b4 v=127
188160 On ch=1 n=b2 v=0
188160 On ch=1 n=a#2 v=127
188280 On ch=1 n=b4 v=0
188280 On ch=1 n=b3 v=0
188280 On ch=1 n=a#3 v=127
188280 On ch=1 n=a#4 v=127
188400 On ch=1 n=a#2 v=0
188400 On ch=1 n=a2 v=127
188520 On ch=1 n=a#4 v=0
188520 On ch=1 n=a#3 v=0
188520 On ch=1 n=a3 v=127
188520 On ch=1 n=a4 v=127
188640 On ch=1 n=a4 v=0
188640 On ch=1 n=a3 v=0
188640 On ch=1 n=a2 v=0
188640 Par ch=1 c=64 v=120
188640 On ch=1 n=g#2 v=114
188640 On ch=1 n=g#3 v=114
188880 On ch=1 n=g#3 v=0
188880 On ch=1 n=g#2 v=0
188880 On ch=1 n=f4 v=114
188880 On ch=1 n=g#4 v=114
188880 On ch=1 n=c#5 v=114
189120 On ch=1 n=c#5 v=0
189120 On ch=1 n=g#4 v=0
189120 On ch=1 n=f4 v=0
189120 On ch=1 n=f4 v=114
189120 On ch=1 n=g#4 v=114
189120 On ch=1 n=c#5 v=114
189360 On ch=1 n=c#5 v=0
189360 On ch=1 n=g#4 v=0
189360 On ch=1 n=f4 v=0
189360 On ch=1 n=f4 v=114
189360 On ch=1 n=g#4 v=114
189360 On ch=1 n=c#5 v=114
189600 On ch=1 n=c#5 v=0
189600 On ch=1 n=g#4 v=0
189600 On ch=1 n=f4 v=0
189600 On ch=1 n=f4 v=114
189600 On ch=1 n=g#4 v=114
189600 On ch=1 n=c#5 v=114
189840 On ch=1 n=c#5 v=0
189840 On ch=1 n=g#4 v=0
189840 On ch=1 n=f4 v=0
189840 Par ch=1 c=64 v=0
189840 On ch=1 n=f4 v=114
189840 On ch=1 n=g#4 v=114
189840 On ch=1 n=c#5 v=114
190080 On ch=1 n=c#5 v=0
190080 On ch=1 n=g#4 v=0
190080 On ch=1 n=f4 v=0
190080 Par ch=1 c=64 v=120
190080 On ch=1 n=g#2 v=114
190080 On ch=1 n=g#3 v=114
190320 On ch=1 n=g#3 v=0
190320 On ch=1 n=g#2 v=0
190320 On ch=1 n=f4 v=114
190320 On ch=1 n=g#4 v=114
190320 On ch=1 n=c#5 v=114
190560 On ch=1 n=c#5 v=0
190560 On ch=1 n=g#4 v=0
190560 On ch=1 n=f4 v=0
190560 On ch=1 n=f4 v=114
190560 On ch=1 n=g#4 v=114
190560 On ch=1 n=c#5 v=114
190800 On ch=1 n=c#5 v=0
190800 On ch=1 n=g#4 v=0
190800 On ch=1 n=f4 v=0
190800 On ch=1 n=f4 v=114
190800 On ch=1 n=g#4 v=114
190800 On ch=1 n=c#5 v=114
191040 On ch=1 n=c#5 v=0
191040 On ch=1 n=g#4 v=0
191040 On ch=1 n=f4 v=0
191040 On ch=1 n=f4 v=114
191040 On ch=1 n=g#4 v=114
191040 On ch=1 n=c#5 v=114
191280 On ch=1 n=c#5 v=0
191280 On ch=1 n=g#4 v=0
191280 On ch=1 n=f4 v=0
191280 Par ch=1 c=64 v=0
191280 On ch=1 n=f4 v=114
191280 On ch=1 n=g#4 v=114
191280 On ch=1 n=c#5 v=114
191520 On ch=1 n=c#5 v=0
191520 On ch=1 n=g#4 v=0
191520 On ch=1 n=f4 v=0
191520 Par ch=1 c=64 v=120
191520 On ch=1 n=g#2 v=114
191520 On ch=1 n=g#3 v=114
191760 On ch=1 n=g#3 v=0
191760 On ch=1 n=g#2 v=0
191760 On ch=1 n=d#4 v=114
191760 On ch=1 n=g#4 v=114
191760 On ch=1 n=c5 v=114
192000 On ch=1 n=c5 v=0
192000 On ch=1 n=g#4 v=0
192000 On ch=1 n=d#4 v=0
192000 On ch=1 n=d#4 v=114
192000 On ch=1 n=g#4 v=114
192000 On ch=1 n=c5 v=114
192240 On ch=1 n=c5 v=0
192240 On ch=1 n=g#4 v=0
192240 On ch=1 n=d#4 v=0
192240 On ch=1 n=d#4 v=114
192240 On ch=1 n=g#4 v=114
192240 On ch=1 n=c5 v=114
192480 On ch=1 n=c5 v=0
192480 On ch=1 n=g#4 v=0
192480 On ch=1 n=d#4 v=0
192480 On ch=1 n=d#4 v=114
192480 On ch=1 n=g#4 v=114
192480 On ch=1 n=c5 v=114
192720 On ch=1 n=c5 v=0
192720 On ch=1 n=g#4 v=0
192720 On ch=1 n=d#4 v=0
192720 On ch=1 n=d#4 v=114
192720 On ch=1 n=g#4 v=114
192720 On ch=1 n=c5 v=114
192960 On ch=1 n=c5 v=0
192960 On ch=1 n=g#4 v=0
192960 On ch=1 n=d#4 v=0
192960 On ch=1 n=d#4 v=114
192960 On ch=1 n=g#4 v=114
192960 On ch=1 n=c5 v=114
193200 On ch=1 n=c5 v=0
193200 On ch=1 n=g#4 v=0
193200 On ch=1 n=d#4 v=0
193200 On ch=1 n=d#4 v=114
193200 On ch=1 n=g#4 v=114
193200 On ch=1 n=c5 v=114
193440 On ch=1 n=c5 v=0
193440 On ch=1 n=g#4 v=0
193440 On ch=1 n=d#4 v=0
193440 Par ch=1 c=64 v=0
193440 On ch=1 n=d#4 v=114
193440 On ch=1 n=g#4 v=114
193440 On ch=1 n=c5 v=114
193680 On ch=1 n=c5 v=0
193680 On ch=1 n=g#4 v=0
193680 On ch=1 n=d#4 v=0
193680 Par ch=1 c=64 v=120
193680 On ch=1 n=g#2 v=114
193680 On ch=1 n=g#3 v=114
193920 On ch=1 n=g#3 v=0
193920 On ch=1 n=g#2 v=0
193920 On ch=1 n=d#4 v=114
193920 On ch=1 n=g#4 v=114
193920 On ch=1 n=c5 v=114
194160 On ch=1 n=c5 v=0
194160 On ch=1 n=g#4 v=0
194160 On ch=1 n=d#4 v=0
194160 Par ch=1 c=64 v=0
194160 On ch=1 n=d#4 v=114
194160 On ch=1 n=g#4 v=114
194160 On ch=1 n=c5 v=114
194400 On ch=1 n=c5 v=0
194400 On ch=1 n=g#4 v=0
194400 On ch=1 n=d#4 v=0
194400 Par ch=1 c=64 v=120
194400 On ch=1 n=g#2 v=114
194400 On ch=1 n=g#3 v=114
194640 On ch=1 n=g#3 v=0
194640 On ch=1 n=g#2 v=0
194640 On ch=1 n=f#4 v=114
194640 On ch=1 n=a#4 v=114
194640 On ch=1 n=c#5 v=114
194880 On ch=1 n=c#5 v=0
194880 On ch=1 n=a#4 v=0
194880 On ch=1 n=f#4 v=0
194880 On ch=1 n=f#4 v=114
194880 On ch=1 n=a#4 v=114
194880 On ch=1 n=c#5 v=114
195120 On ch=1 n=c#5 v=0
195120 On ch=1 n=a#4 v=0
195120 On ch=1 n=f#4 v=0
195120 On ch=1 n=f#4 v=114
195120 On ch=1 n=a#4 v=114
195120 On ch=1 n=c#5 v=114
195360 On ch=1 n=c#5 v=0
195360 On ch=1 n=a#4 v=0
195360 On ch=1 n=f#4 v=0
195360 On ch=1 n=f#4 v=114
195360 On ch=1 n=a#4 v=114
195360 On ch=1 n=c#5 v=114
195600 On ch=1 n=c#5 v=0
195600 On ch=1 n=a#4 v=0
195600 On ch=1 n=f#4 v=0
195600 Par ch=1 c=64 v=0
195600 On ch=1 n=f#4 v=114
195600 On ch=1 n=a#4 v=114
195600 On ch=1 n=c#5 v=114
195840 On ch=1 n=c#5 v=0
195840 On ch=1 n=a#4 v=0
195840 On ch=1 n=f#4 v=0
195840 Par ch=1 c=64 v=120
195840 On ch=1 n=g#2 v=114
195840 On ch=1 n=g#3 v=114
196080 On ch=1 n=g#3 v=0
196080 On ch=1 n=g#2 v=0
196080 On ch=1 n=a#4 v=114
196080 On ch=1 n=c5 v=114
196080 On ch=1 n=d#5 v=114
196080 On ch=1 n=f#5 v=114
196320 On ch=1 n=f#5 v=0
196320 On ch=1 n=d#5 v=0
196320 On ch=1 n=c5 v=0
196320 On ch=1 n=a#4 v=0
196320 On ch=1 n=a#4 v=114
196320 On ch=1 n=c5 v=114
196320 On ch=1 n=d#5 v=114
196320 On ch=1 n=f#5 v=114
196560 On ch=1 n=f#5 v=0
196560 On ch=1 n=d#5 v=0
196560 On ch=1 n=c5 v=0
196560 On ch=1 n=a#4 v=0
196560 On ch=1 n=a#4 v=114
196560 On ch=1 n=c5 v=114
196560 On ch=1 n=d#5 v=114
196560 On ch=1 n=f#5 v=114
196800 On ch=1 n=f#5 v=0
196800 On ch=1 n=d#5 v=0
196800 On ch=1 n=c5 v=0
196800 On ch=1 n=a#4 v=0
196800 On ch=1 n=a#4 v=114
196800 On ch=1 n=c5 v=114
196800 On ch=1 n=d#5 v=114
196800 On ch=1 n=f#5 v=114
197040 On ch=1 n=f#5 v=0
197040 On ch=1 n=d#5 v=0
197040 On ch=1 n=c5 v=0
197040 On ch=1 n=a#4 v=0
197040 On ch=1 n=g#4 v=127
197040 On ch=1 n=c5 v=127
197040 On ch=1 n=d#5 v=127
197040 On ch=1 n=f#5 v=127
197220 Par ch=1 c=64 v=0
197220 On ch=1 n=g#2 v=114
197220 On ch=1 n=g#3 v=114
197280 On ch=1 n=g#3 v=0
197280 On ch=1 n=g#2 v=0
197280 On ch=1 n=f#5 v=0
197280 On ch=1 n=d#5 v=0
197280 On ch=1 n=c5 v=0
197280 On ch=1 n=g#4 v=0
197280 Par ch=1 c=64 v=120
197280 On ch=1 n=g#2 v=114
197280 On ch=1 n=g#3 v=114
197520 On ch=1 n=g#3 v=0
197520 On ch=1 n=g#2 v=0
197520 On ch=1 n=f4 v=114
197520 On ch=1 n=g#4 v=114
197520 On ch=1 n=c#5 v=114
197760 On ch=1 n=c#5 v=0
197760 On ch=1 n=g#4 v=0
197760 On ch=1 n=f4 v=0
197760 On ch=1 n=f4 v=114
197760 On ch=1 n=g#4 v=114
197760 On ch=1 n=c#5 v=114
198000 On ch=1 n=c#5 v=0
198000 On ch=1 n=g#4 v=0
198000 On ch=1 n=f4 v=0
198000 On ch=1 n=f4 v=114
198000 On ch=1 n=g#4 v=114
198000 On ch=1 n=c#5 v=114
198240 On ch=1 n=c#5 v=0
198240 On ch=1 n=g#4 v=0
198240 On ch=1 n=f4 v=0
198240 On ch=1 n=f4 v=114
198240 On ch=1 n=g#4 v=114
198240 On ch=1 n=c#5 v=114
198480 On ch=1 n=c#5 v=0
198480 On ch=1 n=g#4 v=0
198480 On ch=1 n=f4 v=0
198480 On ch=1 n=f4 v=114
198480 On ch=1 n=g#4 v=114
198480 On ch=1 n=c#5 v=114
198720 On ch=1 n=c#5 v=0
198720 On ch=1 n=g#4 v=0
198720 On ch=1 n=f4 v=0
198720 On ch=1 n=f4 v=114
198720 On ch=1 n=g#4 v=114
198720 On ch=1 n=c#5 v=114
198960 On ch=1 n=c#5 v=0
198960 On ch=1 n=g#4 v=0
198960 On ch=1 n=f4 v=0
198960 On ch=1 n=f4 v=114
198960 On ch=1 n=g#4 v=114
198960 On ch=1 n=c#5 v=114
199200 On ch=1 n=c#5 v=0
199200 On ch=1 n=g#4 v=0
199200 On ch=1 n=f4 v=0
199200 Par ch=1 c=64 v=0
199200 On ch=1 n=f4 v=114
199200 On ch=1 n=g#4 v=114
199200 On ch=1 n=c#5 v=114
199440 On ch=1 n=c#5 v=0
199440 On ch=1 n=g#4 v=0
199440 On ch=1 n=f4 v=0
199440 Par ch=1 c=64 v=120
199440 On ch=1 n=c#3 v=127
199440 On ch=1 n=g#3 v=127
199440 On ch=1 n=c#4 v=127
199680 On ch=1 n=c#4 v=0
199680 On ch=1 n=g#3 v=0
199680 On ch=1 n=c#3 v=0
199680 On ch=1 n=c#4 v=114
199680 On ch=1 n=g#4 v=114
199680 On ch=1 n=c#5 v=114
199920 On ch=1 n=c#5 v=0
199920 On ch=1 n=g#4 v=0
199920 On ch=1 n=c#4 v=0
199920 Par ch=1 c=64 v=0
199920 On ch=1 n=c#4 v=114
199920 On ch=1 n=g#4 v=114
199920 On ch=1 n=c#5 v=114
200160 On ch=1 n=c#5 v=0
200160 On ch=1 n=g#4 v=0
200160 On ch=1 n=c#4 v=0
200160 Par ch=1 c=64 v=120
200160 On ch=1 n=c#3 v=127
200160 On ch=1 n=g#3 v=127
200160 On ch=1 n=c#4 v=127
200400 On ch=1 n=c#4 v=0
200400 On ch=1 n=g#3 v=0
200400 On ch=1 n=c#3 v=0
200400 On ch=1 n=c#4 v=114
200400 On ch=1 n=g#4 v=114
200400 On ch=1 n=c#5 v=114
200640 On ch=1 n=c#5 v=0
200640 On ch=1 n=g#4 v=0
200640 On ch=1 n=c#4 v=0
200640 Par ch=1 c=64 v=0
200640 On ch=1 n=c#4 v=114
200640 On ch=1 n=g#4 v=114
200640 On ch=1 n=c#5 v=114
200880 On ch=1 n=c#5 v=0
200880 On ch=1 n=g#4 v=0
200880 On ch=1 n=c#4 v=0
200880 Par ch=1 c=64 v=120
200880 On ch=1 n=c#3 v=127
200880 On ch=1 n=g#3 v=127
200880 On ch=1 n=c#4 v=127
201120 On ch=1 n=c#4 v=0
201120 On ch=1 n=g#3 v=0
201120 On ch=1 n=c#3 v=0
201120 On ch=1 n=c#4 v=114
201120 On ch=1 n=g#4 v=114
201120 On ch=1 n=c#5 v=114
201360 On ch=1 n=c#5 v=0
201360 On ch=1 n=g#4 v=0
201360 On ch=1 n=c#4 v=0
201360 Par ch=1 c=64 v=0
201360 On ch=1 n=c#4 v=114
201360 On ch=1 n=g#4 v=114
201360 On ch=1 n=c#5 v=114
201600 On ch=1 n=c#5 v=0
201600 On ch=1 n=g#4 v=0
201600 On ch=1 n=c#4 v=0
201600 Par ch=1 c=64 v=120
201600 On ch=1 n=a#2 v=127
201600 On ch=1 n=f3 v=127
201600 On ch=1 n=a#3 v=127
201840 On ch=1 n=a#3 v=0
201840 On ch=1 n=f3 v=0
201840 On ch=1 n=a#2 v=0
201840 On ch=1 n=a#3 v=114
201840 On ch=1 n=f4 v=114
201840 On ch=1 n=a#4 v=114
202080 On ch=1 n=a#4 v=0
202080 On ch=1 n=f4 v=0
202080 On ch=1 n=a#3 v=0
202080 Par ch=1 c=64 v=0
202080 On ch=1 n=a#3 v=114
202080 On ch=1 n=f4 v=114
202080 On ch=1 n=a#4 v=114
202320 On ch=1 n=a#4 v=0
202320 On ch=1 n=f4 v=0
202320 On ch=1 n=a#3 v=0
202320 Par ch=1 c=64 v=120
202320 On ch=1 n=a#2 v=127
202320 On ch=1 n=f3 v=127
202320 On ch=1 n=a#3 v=127
202560 On ch=1 n=a#3 v=0
202560 On ch=1 n=f3 v=0
202560 On ch=1 n=a#2 v=0
202560 On ch=1 n=a#3 v=114
202560 On ch=1 n=f4 v=114
202560 On ch=1 n=a#4 v=114
202800 On ch=1 n=a#4 v=0
202800 On ch=1 n=f4 v=0
202800 On ch=1 n=a#3 v=0
202800 Par ch=1 c=64 v=0
202800 On ch=1 n=a#3 v=114
202800 On ch=1 n=f4 v=114
202800 On ch=1 n=a#4 v=114
203040 On ch=1 n=a#4 v=0
203040 On ch=1 n=f4 v=0
203040 On ch=1 n=a#3 v=0
203040 Par ch=1 c=64 v=120
203040 On ch=1 n=c3 v=127
203040 On ch=1 n=e3 v=127
203040 On ch=1 n=g3 v=127
203040 On ch=1 n=c4 v=127
203280 On ch=1 n=c4 v=0
203280 On ch=1 n=g3 v=0
203280 On ch=1 n=e3 v=0
203280 On ch=1 n=c3 v=0
203280 On ch=1 n=c4 v=114
203280 On ch=1 n=e4 v=114
203280 On ch=1 n=g4 v=114
203520 On ch=1 n=g4 v=0
203520 On ch=1 n=e4 v=0
203520 On ch=1 n=c4 v=0
203520 On ch=1 n=c4 v=114
203520 On ch=1 n=f4 v=114
203520 On ch=1 n=g#4 v=114
203760 On ch=1 n=g#4 v=0
203760 On ch=1 n=f4 v=0
203760 On ch=1 n=c4 v=0
203760 On ch=1 n=c4 v=114
203760 On ch=1 n=f#4 v=114
203760 On ch=1 n=a4 v=114
204000 On ch=1 n=a4 v=0
204000 On ch=1 n=f#4 v=0
204000 On ch=1 n=c4 v=0
204000 On ch=1 n=c4 v=114
204000 On ch=1 n=g4 v=114
204000 On ch=1 n=a#4 v=114
204240 On ch=1 n=a#4 v=0
204240 On ch=1 n=g4 v=0
204240 On ch=1 n=c4 v=0
204240 On ch=1 n=c4 v=114
204240 On ch=1 n=g#4 v=114
204240 On ch=1 n=b4 v=114
204480 On ch=1 n=b4 v=0
204480 On ch=1 n=g#4 v=0
204480 On ch=1 n=c4 v=0
204480 On ch=1 n=c4 v=114
204480 On ch=1 n=a4 v=114
204480 On ch=1 n=c5 v=114
204720 On ch=1 n=c5 v=0
204720 On ch=1 n=a4 v=0
204720 On ch=1 n=c4 v=0
204720 On ch=1 n=c4 v=114
204720 On ch=1 n=g#4 v=114
204720 On ch=1 n=b4 v=114
204960 On ch=1 n=b4 v=0
204960 On ch=1 n=g#4 v=0
204960 On ch=1 n=c4 v=0
204960 On ch=1 n=c4 v=114
204960 On ch=1 n=g4 v=114
204960 On ch=1 n=a#4 v=114
205200 On ch=1 n=a#4 v=0
205200 On ch=1 n=g4 v=0
205200 On ch=1 n=c4 v=0
205200 On ch=1 n=c4 v=114
205200 On ch=1 n=f#4 v=114
205200 On ch=1 n=a4 v=114
205440 On ch=1 n=a4 v=0
205440 On ch=1 n=f#4 v=0
205440 On ch=1 n=c4 v=0
205440 On ch=1 n=c4 v=114
205440 On ch=1 n=f4 v=114
205440 On ch=1 n=g#4 v=114
205680 On ch=1 n=g#4 v=0
205680 On ch=1 n=f4 v=0
205680 On ch=1 n=c4 v=0
205680 Par ch=1 c=64 v=0
205680 On ch=1 n=c4 v=114
205680 On ch=1 n=e4 v=114
205680 On ch=1 n=f#4 v=114
205920 On ch=1 n=f#4 v=0
205920 On ch=1 n=e4 v=0
205920 On ch=1 n=c4 v=0
205920 Par ch=1 c=64 v=120
205920 On ch=1 n=f3 v=127
205920 On ch=1 n=c4 v=127
205920 On ch=1 n=f4 v=127
206160 On ch=1 n=f4 v=0
206160 On ch=1 n=c4 v=0
206160 On ch=1 n=f3 v=0
206160 On ch=1 n=g#4 v=114
206160 On ch=1 n=c5 v=114
206160 On ch=1 n=f5 v=114
206400 On ch=1 n=f5 v=0
206400 On ch=1 n=c5 v=0
206400 On ch=1 n=g#4 v=0
206400 On ch=1 n=g#4 v=114
206400 On ch=1 n=c5 v=114
206400 On ch=1 n=f5 v=114
206640 On ch=1 n=f5 v=0
206640 On ch=1 n=c5 v=0
206640 On ch=1 n=g#4 v=0
206640 On ch=1 n=f3 v=127
206640 On ch=1 n=c4 v=127
206640 On ch=1 n=f4 v=127
206880 On ch=1 n=f4 v=0
206880 On ch=1 n=c4 v=0
206880 On ch=1 n=f3 v=0
206880 On ch=1 n=g#4 v=114
206880 On ch=1 n=c5 v=114
206880 On ch=1 n=f5 v=114
207120 On ch=1 n=f5 v=0
207120 On ch=1 n=c5 v=0
207120 On ch=1 n=g#4 v=0
207120 Par ch=1 c=64 v=0
207120 On ch=1 n=g#4 v=114
207120 On ch=1 n=c5 v=114
207120 On ch=1 n=f5 v=114
207360 On ch=1 n=f5 v=0
207360 On ch=1 n=c5 v=0
207360 On ch=1 n=g#4 v=0
207360 Par ch=1 c=64 v=120
207360 On ch=1 n=c#3 v=127
207360 On ch=1 n=a#3 v=127
207360 On ch=1 n=c#4 v=127
207600 On ch=1 n=c#4 v=0
207600 On ch=1 n=a#3 v=0
207600 On ch=1 n=c#3 v=0
207600 On ch=1 n=g#4 v=114
207600 On ch=1 n=a#4 v=114
207600 On ch=1 n=e5 v=114
207840 On ch=1 n=e5 v=0
207840 On ch=1 n=a#4 v=0
207840 On ch=1 n=g#4 v=0
207840 Par ch=1 c=64 v=0
207840 On ch=1 n=g#4 v=114
207840 On ch=1 n=a#4 v=114
207840 On ch=1 n=e5 v=114
208080 On ch=1 n=e5 v=0
208080 On ch=1 n=a#4 v=0
208080 On ch=1 n=g#4 v=0
208080 Par ch=1 c=64 v=120
208080 On ch=1 n=c#3 v=127
208080 On ch=1 n=a#3 v=127
208080 On ch=1 n=c#4 v=127
208320 On ch=1 n=c#4 v=0
208320 On ch=1 n=a#3 v=0
208320 On ch=1 n=c#3 v=0
208320 On ch=1 n=g#4 v=114
208320 On ch=1 n=a#4 v=114
208320 On ch=1 n=e5 v=114
208560 On ch=1 n=e5 v=0
208560 On ch=1 n=a#4 v=0
208560 On ch=1 n=g#4 v=0
208560 Par ch=1 c=64 v=0
208560 On ch=1 n=g#4 v=114
208560 On ch=1 n=a#4 v=114
208560 On ch=1 n=e5 v=114
208800 On ch=1 n=e5 v=0
208800 On ch=1 n=a#4 v=0
208800 On ch=1 n=g#4 v=0
208800 Par ch=1 c=64 v=120
208800 On ch=1 n=d#3 v=127
208800 On ch=1 n=a#3 v=127
208800 On ch=1 n=d#4 v=127
209040 On ch=1 n=d#4 v=0
209040 On ch=1 n=a#3 v=0
209040 On ch=1 n=d#3 v=0
209040 On ch=1 n=d#4 v=114
209040 On ch=1 n=g4 v=114
209040 On ch=1 n=a#4 v=114
209280 On ch=1 n=a#4 v=0
209280 On ch=1 n=g4 v=0
209280 On ch=1 n=d#4 v=0
209280 On ch=1 n=d#4 v=114
209280 On ch=1 n=g#4 v=114
209280 On ch=1 n=b4 v=114
209520 On ch=1 n=b4 v=0
209520 On ch=1 n=g#4 v=0
209520 On ch=1 n=d#4 v=0
209520 On ch=1 n=d#4 v=114
209520 On ch=1 n=a4 v=114
209520 On ch=1 n=c5 v=114
209760 On ch=1 n=c5 v=0
209760 On ch=1 n=a4 v=0
209760 On ch=1 n=d#4 v=0
209760 On ch=1 n=d#4 v=114
209760 On ch=1 n=a#4 v=114
209760 On ch=1 n=c#5 v=114
210000 On ch=1 n=c#5 v=0
210000 On ch=1 n=a#4 v=0
210000 On ch=1 n=d#4 v=0
210000 On ch=1 n=d#4 v=114
210000 On ch=1 n=b4 v=114
210000 On ch=1 n=d5 v=114
210240 On ch=1 n=d5 v=0
210240 On ch=1 n=b4 v=0
210240 On ch=1 n=d#4 v=0
210240 On ch=1 n=d#4 v=114
210240 On ch=1 n=c5 v=114
210240 On ch=1 n=d#5 v=114
210480 On ch=1 n=d#5 v=0
210480 On ch=1 n=c5 v=0
210480 On ch=1 n=d#4 v=0
210480 On ch=1 n=d#4 v=114
210480 On ch=1 n=b4 v=114
210480 On ch=1 n=d5 v=114
210720 On ch=1 n=d5 v=0
210720 On ch=1 n=b4 v=0
210720 On ch=1 n=d#4 v=0
210720 On ch=1 n=d#4 v=114
210720 On ch=1 n=a#4 v=114
210720 On ch=1 n=c#5 v=114
210960 On ch=1 n=c#5 v=0
210960 On ch=1 n=a#4 v=0
210960 On ch=1 n=d#4 v=0
210960 On ch=1 n=d#4 v=114
210960 On ch=1 n=a4 v=114
210960 On ch=1 n=c5 v=114
211200 On ch=1 n=c5 v=0
211200 On ch=1 n=a4 v=0
211200 On ch=1 n=d#4 v=0
211200 On ch=1 n=d#4 v=114
211200 On ch=1 n=g#4 v=114
211200 On ch=1 n=b4 v=114
211440 On ch=1 n=b4 v=0
211440 On ch=1 n=g#4 v=0
211440 On ch=1 n=d#4 v=0
211440 Par ch=1 c=64 v=0
211440 On ch=1 n=d#4 v=114
211440 On ch=1 n=g4 v=114
211440 On ch=1 n=a#4 v=114
211680 On ch=1 n=a#4 v=0
211680 On ch=1 n=g4 v=0
211680 On ch=1 n=d#4 v=0
211680 Par ch=1 c=64 v=120
211680 On ch=1 n=a3 v=127
211680 On ch=1 n=d#4 v=127
211680 On ch=1 n=f4 v=127
211680 On ch=1 n=a4 v=127
211920 On ch=1 n=a4 v=0
211920 On ch=1 n=f4 v=0
211920 On ch=1 n=d#4 v=0
211920 On ch=1 n=a3 v=0
211920 On ch=1 n=c#5 v=114
211920 On ch=1 n=d#5 v=114
211920 On ch=1 n=f#5 v=114
211920 On ch=1 n=a5 v=114
212160 On ch=1 n=a5 v=0
212160 On ch=1 n=f#5 v=0
212160 On ch=1 n=d#5 v=0
212160 On ch=1 n=c#5 v=0
212160 On ch=1 n=c#5 v=114
212160 On ch=1 n=d#5 v=114
212160 On ch=1 n=f#5 v=114
212160 On ch=1 n=a5 v=114
212400 On ch=1 n=a5 v=0
212400 On ch=1 n=f#5 v=0
212400 On ch=1 n=d#5 v=0
212400 On ch=1 n=c#5 v=0
212400 On ch=1 n=c#5 v=114
212400 On ch=1 n=d#5 v=114
212400 On ch=1 n=f#5 v=114
212400 On ch=1 n=a5 v=114
212640 On ch=1 n=a5 v=0
212640 On ch=1 n=f#5 v=0
212640 On ch=1 n=d#5 v=0
212640 On ch=1 n=c#5 v=0
212640 On ch=1 n=c#5 v=114
212640 On ch=1 n=d#5 v=114
212640 On ch=1 n=f#5 v=114
212640 On ch=1 n=a5 v=114
212880 On ch=1 n=a5 v=0
212880 On ch=1 n=f#5 v=0
212880 On ch=1 n=d#5 v=0
212880 On ch=1 n=c#5 v=0
212880 Par ch=1 c=64 v=0
212880 On ch=1 n=c#5 v=114
212880 On ch=1 n=d#5 v=114
212880 On ch=1 n=f#5 v=114
212880 On ch=1 n=a5 v=114
213120 On ch=1 n=a5 v=0
213120 On ch=1 n=f#5 v=0
213120 On ch=1 n=d#5 v=0
213120 On ch=1 n=c#5 v=0
213120 Par ch=1 c=64 v=120
213120 On ch=1 n=a3 v=127
213120 On ch=1 n=d#4 v=127
213120 On ch=1 n=f4 v=127
213120 On ch=1 n=a4 v=127
213360 On ch=1 n=a4 v=0
213360 On ch=1 n=f4 v=0
213360 On ch=1 n=d#4 v=0
213360 On ch=1 n=a3 v=0
213360 On ch=1 n=c#5 v=114
213360 On ch=1 n=d#5 v=114
213360 On ch=1 n=f#5 v=114
213360 On ch=1 n=a5 v=114
213600 On ch=1 n=a5 v=0
213600 On ch=1 n=f#5 v=0
213600 On ch=1 n=d#5 v=0
213600 On ch=1 n=c#5 v=0
213600 On ch=1 n=c#5 v=114
213600 On ch=1 n=d#5 v=114
213600 On ch=1 n=f#5 v=114
213600 On ch=1 n=a5 v=114
213840 On ch=1 n=a5 v=0
213840 On ch=1 n=f#5 v=0
213840 On ch=1 n=d#5 v=0
213840 On ch=1 n=c#5 v=0
213840 On ch=1 n=c#5 v=114
213840 On ch=1 n=d#5 v=114
213840 On ch=1 n=f#5 v=114
213840 On ch=1 n=a5 v=114
214080 On ch=1 n=a5 v=0
214080 On ch=1 n=f#5 v=0
214080 On ch=1 n=d#5 v=0
214080 On ch=1 n=c#5 v=0
214080 On ch=1 n=c#5 v=114
214080 On ch=1 n=d#5 v=114
214080 On ch=1 n=f#5 v=114
214080 On ch=1 n=a5 v=114
214320 On ch=1 n=a5 v=0
214320 On ch=1 n=f#5 v=0
214320 On ch=1 n=d#5 v=0
214320 On ch=1 n=c#5 v=0
214320 Par ch=1 c=64 v=0
214320 On ch=1 n=a3 v=127
214320 On ch=1 n=d#4 v=127
214320 On ch=1 n=f4 v=127
214320 On ch=1 n=a4 v=127
214560 On ch=1 n=a4 v=0
214560 On ch=1 n=f4 v=0
214560 On ch=1 n=d#4 v=0
214560 On ch=1 n=a3 v=0
214560 Par ch=1 c=64 v=120
214560 On ch=1 n=g#3 v=127
214560 On ch=1 n=d#4 v=127
214560 On ch=1 n=g#4 v=127
214800 On ch=1 n=g#4 v=0
214800 On ch=1 n=d#4 v=0
214800 On ch=1 n=g#3 v=0
214800 On ch=1 n=c4 v=114
214800 On ch=1 n=c5 v=114
215040 On ch=1 n=c5 v=0
215040 On ch=1 n=c4 v=0
215040 On ch=1 n=c#4 v=114
215040 On ch=1 n=c#5 v=114
215280 On ch=1 n=c#5 v=0
215280 On ch=1 n=c#4 v=0
215280 On ch=1 n=d4 v=114
215280 On ch=1 n=d5 v=114
215520 On ch=1 n=d5 v=0
215520 On ch=1 n=d4 v=0
215520 On ch=1 n=d#4 v=114
215520 On ch=1 n=d#5 v=114
215760 On ch=1 n=d#5 v=0
215760 On ch=1 n=d#4 v=0
215760 On ch=1 n=e4 v=127
215760 On ch=1 n=e5 v=127
216000 On ch=1 n=e5 v=0
216000 On ch=1 n=e4 v=0
216000 On ch=1 n=d#4 v=114
216000 On ch=1 n=d#5 v=114
216240 On ch=1 n=d#5 v=0
216240 On ch=1 n=d#4 v=0
216240 On ch=1 n=d4 v=114
216240 On ch=1 n=d5 v=114
216480 On ch=1 n=d5 v=0
216480 On ch=1 n=d4 v=0
216480 On ch=1 n=c#4 v=114
216480 On ch=1 n=c#5 v=114
216720 On ch=1 n=c#5 v=0
216720 On ch=1 n=c#4 v=0
216720 On ch=1 n=c4 v=114
216720 On ch=1 n=c5 v=114
216960 On ch=1 n=c5 v=0
216960 On ch=1 n=c4 v=0
216960 On ch=1 n=b3 v=114
216960 On ch=1 n=b4 v=114
217200 On ch=1 n=b4 v=0
217200 On ch=1 n=b3 v=0
217200 Par ch=1 c=64 v=0
217200 On ch=1 n=a#3 v=114
217200 On ch=1 n=a#4 v=114
217440 On ch=1 n=a#4 v=0
217440 On ch=1 n=a#3 v=0
217440 Par ch=1 c=64 v=120
217440 On ch=1 n=a3 v=127
217440 On ch=1 n=d#4 v=127
217440 On ch=1 n=f4 v=127
217440 On ch=1 n=a4 v=127
217680 On ch=1 n=a4 v=0
217680 On ch=1 n=f4 v=0
217680 On ch=1 n=d#4 v=0
217680 On ch=1 n=a3 v=0
217680 On ch=1 n=c#5 v=114
217680 On ch=1 n=d#5 v=114
217680 On ch=1 n=f#5 v=114
217680 On ch=1 n=a5 v=114
217920 On ch=1 n=a5 v=0
217920 On ch=1 n=f#5 v=0
217920 On ch=1 n=d#5 v=0
217920 On ch=1 n=c#5 v=0
217920 On ch=1 n=c#5 v=114
217920 On ch=1 n=d#5 v=114
217920 On ch=1 n=f#5 v=114
217920 On ch=1 n=a5 v=114
218160 On ch=1 n=a5 v=0
218160 On ch=1 n=f#5 v=0
218160 On ch=1 n=d#5 v=0
218160 On ch=1 n=c#5 v=0
218160 On ch=1 n=c#5 v=114
218160 On ch=1 n=d#5 v=114
218160 On ch=1 n=f#5 v=114
218160 On ch=1 n=a5 v=114
218400 On ch=1 n=a5 v=0
218400 On ch=1 n=f#5 v=0
218400 On ch=1 n=d#5 v=0
218400 On ch=1 n=c#5 v=0
218400 On ch=1 n=c#5 v=114
218400 On ch=1 n=d#5 v=114
218400 On ch=1 n=f#5 v=114
218400 On ch=1 n=a5 v=114
218640 On ch=1 n=a5 v=0
218640 On ch=1 n=f#5 v=0
218640 On ch=1 n=d#5 v=0
218640 On ch=1 n=c#5 v=0
218640 Par ch=1 c=64 v=0
218640 On ch=1 n=c#5 v=114
218640 On ch=1 n=d#5 v=114
218640 On ch=1 n=f#5 v=114
218640 On ch=1 n=a5 v=114
218880 On ch=1 n=a5 v=0
218880 On ch=1 n=f#5 v=0
218880 On ch=1 n=d#5 v=0
218880 On ch=1 n=c#5 v=0
218880 Par ch=1 c=64 v=120
218880 On ch=1 n=a3 v=127
218880 On ch=1 n=d#4 v=127
218880 On ch=1 n=f4 v=127
218880 On ch=1 n=a4 v=127
219120 On ch=1 n=a4 v=0
219120 On ch=1 n=f4 v=0
219120 On ch=1 n=d#4 v=0
219120 On ch=1 n=a3 v=0
219120 On ch=1 n=c#5 v=114
219120 On ch=1 n=d#5 v=114
219120 On ch=1 n=f#5 v=114
219120 On ch=1 n=a5 v=114
219360 On ch=1 n=a5 v=0
219360 On ch=1 n=f#5 v=0
219360 On ch=1 n=d#5 v=0
219360 On ch=1 n=c#5 v=0
219360 On ch=1 n=c#5 v=114
219360 On ch=1 n=d#5 v=114
219360 On ch=1 n=f#5 v=114
219360 On ch=1 n=a5 v=114
219600 On ch=1 n=a5 v=0
219600 On ch=1 n=f#5 v=0
219600 On ch=1 n=d#5 v=0
219600 On ch=1 n=c#5 v=0
219600 On ch=1 n=c#5 v=114
219600 On ch=1 n=d#5 v=114
219600 On ch=1 n=f#5 v=114
219600 On ch=1 n=a5 v=114
219840 On ch=1 n=a5 v=0
219840 On ch=1 n=f#5 v=0
219840 On ch=1 n=d#5 v=0
219840 On ch=1 n=c#5 v=0
219840 On ch=1 n=c#5 v=114
219840 On ch=1 n=d#5 v=114
219840 On ch=1 n=f#5 v=114
219840 On ch=1 n=a5 v=114
220080 On ch=1 n=a5 v=0
220080 On ch=1 n=f#5 v=0
220080 On ch=1 n=d#5 v=0
220080 On ch=1 n=c#5 v=0
220080 Par ch=1 c=64 v=0
220080 On ch=1 n=a3 v=127
220080 On ch=1 n=d#4 v=127
220080 On ch=1 n=f4 v=127
220080 On ch=1 n=a4 v=127
220320 On ch=1 n=a4 v=0
220320 On ch=1 n=f4 v=0
220320 On ch=1 n=d#4 v=0
220320 On ch=1 n=a3 v=0
220320 Par ch=1 c=64 v=120
220320 On ch=1 n=f#3 v=127
220320 On ch=1 n=d#4 v=127
220320 On ch=1 n=g#4 v=127
220560 On ch=1 n=g#4 v=0
220560 On ch=1 n=d#4 v=0
220560 On ch=1 n=f#3 v=0
220560 On ch=1 n=c4 v=114
220560 On ch=1 n=c5 v=114
220800 On ch=1 n=c5 v=0
220800 On ch=1 n=c4 v=0
220800 On ch=1 n=c#4 v=114
220800 On ch=1 n=c#5 v=114
221040 On ch=1 n=c#5 v=0
221040 On ch=1 n=c#4 v=0
221040 On ch=1 n=d4 v=114
221040 On ch=1 n=d5 v=114
221280 On ch=1 n=d5 v=0
221280 On ch=1 n=d4 v=0
221280 On ch=1 n=d#4 v=114
221280 On ch=1 n=d#5 v=114
221520 On ch=1 n=d#5 v=0
221520 On ch=1 n=d#4 v=0
221520 On ch=1 n=e4 v=114
221520 On ch=1 n=e5 v=114
221760 On ch=1 n=e5 v=0
221760 On ch=1 n=e4 v=0
221760 On ch=1 n=f4 v=114
221760 On ch=1 n=f5 v=114
222000 On ch=1 n=f5 v=0
222000 On ch=1 n=f4 v=0
222000 On ch=1 n=d#4 v=114
222000 On ch=1 n=d#5 v=114
222240 On ch=1 n=d#5 v=0
222240 On ch=1 n=d#4 v=0
222240 On ch=1 n=c#4 v=114
222240 On ch=1 n=c#5 v=114
222480 On ch=1 n=c#5 v=0
222480 On ch=1 n=c#4 v=0
222480 On ch=1 n=c4 v=114
222480 On ch=1 n=c5 v=114
222720 On ch=1 n=c5 v=0
222720 On ch=1 n=c4 v=0
222720 On ch=1 n=a3 v=114
222720 On ch=1 n=a4 v=114
222960 On ch=1 n=a4 v=0
222960 On ch=1 n=a3 v=0
222960 Par ch=1 c=64 v=0
222960 On ch=1 n=g#3 v=127
222960 On ch=1 n=g#4 v=127
223200 On ch=1 n=g#4 v=0
223200 On ch=1 n=g#3 v=0
223200 Par ch=1 c=64 v=120
223200 On ch=1 n=c#3 v=127
223200 On ch=1 n=c#4 v=127
223440 On ch=1 n=c#4 v=0
223440 On ch=1 n=c#3 v=0
223440 On ch=1 n=f4 v=114
223440 On ch=1 n=c#5 v=114
223440 On ch=1 n=f5 v=114
223680 On ch=1 n=f5 v=0
223680 On ch=1 n=c#5 v=0
223680 On ch=1 n=f4 v=0
223680 On ch=1 n=f4 v=114
223680 On ch=1 n=c#5 v=114
223680 On ch=1 n=f5 v=114
223920 On ch=1 n=f5 v=0
223920 On ch=1 n=c#5 v=0
223920 On ch=1 n=f4 v=0
223920 On ch=1 n=f4 v=114
223920 On ch=1 n=c#5 v=114
223920 On ch=1 n=f5 v=114
224160 On ch=1 n=f5 v=0
224160 On ch=1 n=c#5 v=0
224160 On ch=1 n=f4 v=0
224160 On ch=1 n=f4 v=114
224160 On ch=1 n=c#5 v=114
224160 On ch=1 n=f5 v=114
224400 On ch=1 n=f5 v=0
224400 On ch=1 n=c#5 v=0
224400 On ch=1 n=f4 v=0
224400 Par ch=1 c=64 v=0
224400 On ch=1 n=f4 v=114
224400 On ch=1 n=c#5 v=114
224400 On ch=1 n=f5 v=114
224640 On ch=1 n=f5 v=0
224640 On ch=1 n=c#5 v=0
224640 On ch=1 n=f4 v=0
224640 Par ch=1 c=64 v=120
224640 On ch=1 n=c#3 v=127
224640 On ch=1 n=g#3 v=127
224640 On ch=1 n=c#4 v=127
224880 On ch=1 n=c#4 v=0
224880 On ch=1 n=g#3 v=0
224880 On ch=1 n=c#3 v=0
224880 On ch=1 n=f4 v=114
224880 On ch=1 n=c#5 v=114
224880 On ch=1 n=f5 v=114
225120 On ch=1 n=f5 v=0
225120 On ch=1 n=c#5 v=0
225120 On ch=1 n=f4 v=0
225120 Par ch=1 c=64 v=0
225120 On ch=1 n=f4 v=114
225120 On ch=1 n=c#5 v=114
225120 On ch=1 n=f5 v=114
225360 On ch=1 n=f5 v=0
225360 On ch=1 n=c#5 v=0
225360 On ch=1 n=f4 v=0
225360 Par ch=1 c=64 v=120
225360 On ch=1 n=f3 v=127
225360 On ch=1 n=c#4 v=127
225360 On ch=1 n=f4 v=127
225600 On ch=1 n=f4 v=0
225600 On ch=1 n=c#4 v=0
225600 On ch=1 n=f3 v=0
225600 On ch=1 n=f4 v=114
225600 On ch=1 n=c#5 v=114
225600 On ch=1 n=f5 v=114
225840 On ch=1 n=f5 v=0
225840 On ch=1 n=c#5 v=0
225840 On ch=1 n=f4 v=0
225840 Par ch=1 c=64 v=0
225840 On ch=1 n=f4 v=114
225840 On ch=1 n=c#5 v=114
225840 On ch=1 n=f5 v=114
226080 On ch=1 n=f5 v=0
226080 On ch=1 n=c#5 v=0
226080 On ch=1 n=f4 v=0
226080 Par ch=1 c=64 v=120
226080 On ch=1 n=g3 v=127
226080 On ch=1 n=c#4 v=127
226080 On ch=1 n=g4 v=127
226320 On ch=1 n=g4 v=0
226320 On ch=1 n=c#4 v=0
226320 On ch=1 n=g3 v=0
226320 On ch=1 n=g4 v=114
226320 On ch=1 n=c#5 v=114
226320 On ch=1 n=e5 v=114
226560 On ch=1 n=e5 v=0
226560 On ch=1 n=c#5 v=0
226560 On ch=1 n=g4 v=0
226560 On ch=1 n=g4 v=114
226560 On ch=1 n=c#5 v=114
226560 On ch=1 n=e5 v=114
226800 On ch=1 n=e5 v=0
226800 On ch=1 n=c#5 v=0
226800 On ch=1 n=g4 v=0
226800 On ch=1 n=g4 v=114
226800 On ch=1 n=c#5 v=114
226800 On ch=1 n=e5 v=114
227040 On ch=1 n=e5 v=0
227040 On ch=1 n=c#5 v=0
227040 On ch=1 n=g4 v=0
227040 On ch=1 n=g4 v=114
227040 On ch=1 n=c#5 v=114
227040 On ch=1 n=e5 v=114
227280 On ch=1 n=e5 v=0
227280 On ch=1 n=c#5 v=0
227280 On ch=1 n=g4 v=0
227280 Par ch=1 c=64 v=0
227280 On ch=1 n=g4 v=114
227280 On ch=1 n=c#5 v=114
227280 On ch=1 n=e5 v=114
227520 On ch=1 n=e5 v=0
227520 On ch=1 n=c#5 v=0
227520 On ch=1 n=g4 v=0
227520 Par ch=1 c=64 v=120
227520 On ch=1 n=g3 v=127
227520 On ch=1 n=e4 v=127
227520 On ch=1 n=g4 v=127
227760 On ch=1 n=g4 v=0
227760 On ch=1 n=e4 v=0
227760 On ch=1 n=g3 v=0
227760 On ch=1 n=g4 v=114
227760 On ch=1 n=c#5 v=114
227760 On ch=1 n=e5 v=114
228000 On ch=1 n=e5 v=0
228000 On ch=1 n=c#5 v=0
228000 On ch=1 n=g4 v=0
228000 On ch=1 n=g4 v=114
228000 On ch=1 n=c#5 v=114
228000 On ch=1 n=e5 v=114
228240 On ch=1 n=e5 v=0
228240 On ch=1 n=c#5 v=0
228240 On ch=1 n=g4 v=0
228240 On ch=1 n=g4 v=114
228240 On ch=1 n=c#5 v=114
228240 On ch=1 n=e5 v=114
228480 On ch=1 n=e5 v=0
228480 On ch=1 n=c#5 v=0
228480 On ch=1 n=g4 v=0
228480 On ch=1 n=g4 v=114
228480 On ch=1 n=c#5 v=114
228480 On ch=1 n=e5 v=114
228720 On ch=1 n=e5 v=0
228720 On ch=1 n=c#5 v=0
228720 On ch=1 n=g4 v=0
228720 Par ch=1 c=64 v=0
228720 On ch=1 n=g3 v=127
228720 On ch=1 n=e4 v=127
228720 On ch=1 n=g4 v=127
228960 On ch=1 n=g4 v=0
228960 On ch=1 n=e4 v=0
228960 On ch=1 n=g3 v=0
228960 Par ch=1 c=64 v=120
228960 On ch=1 n=g#3 v=127
228960 On ch=1 n=f4 v=127
228960 On ch=1 n=g#4 v=127
229200 On ch=1 n=g#4 v=0
229200 On ch=1 n=f4 v=0
229200 On ch=1 n=g#3 v=0
229200 On ch=1 n=c#5 v=114
229200 On ch=1 n=f5 v=114
229440 On ch=1 n=f5 v=0
229440 On ch=1 n=c#5 v=0
229440 On ch=1 n=c#5 v=114
229440 On ch=1 n=f5 v=114
229680 On ch=1 n=f5 v=0
229680 On ch=1 n=c#5 v=0
229680 On ch=1 n=g#3 v=127
229680 On ch=1 n=f4 v=127
229680 On ch=1 n=g#4 v=127
229920 On ch=1 n=g#4 v=0
229920 On ch=1 n=f4 v=0
229920 On ch=1 n=g#3 v=0
229920 On ch=1 n=c#5 v=114
229920 On ch=1 n=f5 v=114
230160 On ch=1 n=f5 v=0
230160 On ch=1 n=c#5 v=0
230160 Par ch=1 c=64 v=0
230160 On ch=1 n=c#5 v=114
230160 On ch=1 n=f5 v=114
230400 On ch=1 n=f5 v=0
230400 On ch=1 n=c#5 v=0
230400 Par ch=1 c=64 v=120
230400 On ch=1 n=g#3 v=127
230400 On ch=1 n=d#4 v=127
230400 On ch=1 n=g#4 v=127
230640 On ch=1 n=g#4 v=0
230640 On ch=1 n=d#4 v=0
230640 On ch=1 n=g#3 v=0
230640 On ch=1 n=c5 v=114
230640 On ch=1 n=d#5 v=114
230880 On ch=1 n=d#5 v=0
230880 On ch=1 n=c5 v=0
230880 Par ch=1 c=64 v=0
230880 On ch=1 n=c5 v=114
230880 On ch=1 n=d#5 v=114
231120 On ch=1 n=d#5 v=0
231120 On ch=1 n=c5 v=0
231120 Par ch=1 c=64 v=120
231120 On ch=1 n=g#3 v=127
231120 On ch=1 n=d#4 v=127
231120 On ch=1 n=g#4 v=127
231360 On ch=1 n=g#4 v=0
231360 On ch=1 n=d#4 v=0
231360 On ch=1 n=g#3 v=0
231360 On ch=1 n=c5 v=114
231360 On ch=1 n=d#5 v=114
231600 On ch=1 n=d#5 v=0
231600 On ch=1 n=c5 v=0
231600 Par ch=1 c=64 v=0
231600 On ch=1 n=c5 v=114
231600 On ch=1 n=d#5 v=114
231840 On ch=1 n=d#5 v=0
231840 On ch=1 n=c5 v=0
231840 On ch=1 n=a3 v=127
231840 On ch=1 n=d#4 v=127
231840 On ch=1 n=a4 v=127
232080 On ch=1 n=a4 v=0
232080 On ch=1 n=d#4 v=0
232080 On ch=1 n=a3 v=0
232080 On ch=1 n=d#5 v=114
232080 On ch=1 n=f#5 v=114
232320 On ch=1 n=f#5 v=0
232320 On ch=1 n=d#5 v=0
232320 On ch=1 n=d5 v=114
232320 On ch=1 n=d#5 v=114
232320 On ch=1 n=f#5 v=114
232560 On ch=1 n=f#5 v=0
232560 On ch=1 n=d#5 v=0
232560 On ch=1 n=d5 v=0
232560 On ch=1 n=c#5 v=114
232560 On ch=1 n=d#5 v=114
232560 On ch=1 n=f#5 v=114
232800 On ch=1 n=f#5 v=0
232800 On ch=1 n=d#5 v=0
232800 On ch=1 n=c#5 v=0
232800 On ch=1 n=c5 v=114
232800 On ch=1 n=d#5 v=114
232800 On ch=1 n=f#5 v=114
233040 On ch=1 n=f#5 v=0
233040 On ch=1 n=d#5 v=0
233040 On ch=1 n=c5 v=0
233040 On ch=1 n=b4 v=114
233040 On ch=1 n=d#5 v=114
233040 On ch=1 n=f#5 v=114
233280 On ch=1 n=f#5 v=0
233280 On ch=1 n=d#5 v=0
233280 On ch=1 n=b4 v=0
233280 On ch=1 n=a#4 v=114
233280 On ch=1 n=d#5 v=114
233280 On ch=1 n=f#5 v=114
233520 On ch=1 n=f#5 v=0
233520 On ch=1 n=d#5 v=0
233520 On ch=1 n=a#4 v=0
233520 On ch=1 n=a4 v=114
233520 On ch=1 n=d#5 v=114
233520 On ch=1 n=f#5 v=114
233760 On ch=1 n=f#5 v=0
233760 On ch=1 n=d#5 v=0
233760 On ch=1 n=a4 v=0
233760 On ch=1 n=f#4 v=114
233760 On ch=1 n=d#5 v=114
234000 On ch=1 n=d#5 v=0
234000 On ch=1 n=f#4 v=0
234000 On ch=1 n=f#4 v=114
234000 On ch=1 n=d#5 v=114
234240 On ch=1 n=d#5 v=0
234240 On ch=1 n=f#4 v=0
234240 On ch=1 n=f4 v=114
234240 On ch=1 n=d#5 v=114
234480 On ch=1 n=d#5 v=0
234480 On ch=1 n=f4 v=0
234480 On ch=1 n=f3 v=127
234480 On ch=1 n=f4 v=127
234720 On ch=1 n=f4 v=0
234720 On ch=1 n=f3 v=0
234720 On ch=1 n=a#2 v=127
234720 On ch=1 n=a#3 v=127
234960 On ch=1 n=a#3 v=0
234960 On ch=1 n=a#2 v=0
234960 Par ch=1 c=64 v=120
234960 On ch=1 n=b3 v=114
234960 On ch=1 n=b4 v=114
235200 On ch=1 n=b4 v=0
235200 On ch=1 n=b3 v=0
235200 On ch=1 n=c4 v=114
235200 On ch=1 n=c5 v=114
235440 On ch=1 n=c5 v=0
235440 On ch=1 n=c4 v=0
235440 On ch=1 n=c#4 v=114
235440 On ch=1 n=c#5 v=114
235680 On ch=1 n=c#5 v=0
235680 On ch=1 n=c#4 v=0
235680 On ch=1 n=d4 v=114
235680 On ch=1 n=d5 v=114
235920 On ch=1 n=d5 v=0
235920 On ch=1 n=d4 v=0
235920 On ch=1 n=f4 v=114
235920 On ch=1 n=f5 v=114
236160 On ch=1 n=f5 v=0
236160 On ch=1 n=f4 v=0
236160 Par ch=1 c=64 v=0
236160 On ch=1 n=d#3 v=114
236160 On ch=1 n=d#4 v=114
236400 On ch=1 n=d#4 v=0
236400 On ch=1 n=d#3 v=0
236400 Par ch=1 c=64 v=120
236400 On ch=1 n=c#4 v=114
236400 On ch=1 n=c#5 v=114
236640 On ch=1 n=c#5 v=0
236640 On ch=1 n=c#4 v=0
236640 On ch=1 n=d4 v=114
236640 On ch=1 n=d5 v=114
236880 On ch=1 n=d5 v=0
236880 On ch=1 n=d4 v=0
236880 On ch=1 n=d#4 v=114
236880 On ch=1 n=d#5 v=114
237120 On ch=1 n=d#5 v=0
237120 On ch=1 n=d#4 v=0
237120 On ch=1 n=e4 v=114
237120 On ch=1 n=e5 v=114
237360 On ch=1 n=e5 v=0
237360 On ch=1 n=e4 v=0
237360 On ch=1 n=g4 v=114
237360 On ch=1 n=g5 v=114
237600 On ch=1 n=g5 v=0
237600 On ch=1 n=g4 v=0
237600 Par ch=1 c=64 v=0
237600 On ch=1 n=g#2 v=127
237600 On ch=1 n=g#3 v=127
237840 On ch=1 n=g#3 v=0
237840 On ch=1 n=g#2 v=0
237840 Par ch=1 c=64 v=120
237840 On ch=1 n=a3 v=114
237840 On ch=1 n=a4 v=114
238080 On ch=1 n=a4 v=0
238080 On ch=1 n=a3 v=0
238080 On ch=1 n=a#3 v=114
238080 On ch=1 n=a#4 v=114
238320 On ch=1 n=a#4 v=0
238320 On ch=1 n=a#3 v=0
238320 On ch=1 n=b3 v=114
238320 On ch=1 n=b4 v=114
238560 On ch=1 n=b4 v=0
238560 On ch=1 n=b3 v=0
238560 On ch=1 n=c4 v=114
238560 On ch=1 n=c5 v=114
238800 On ch=1 n=c5 v=0
238800 On ch=1 n=c4 v=0
238800 On ch=1 n=d#4 v=114
238800 On ch=1 n=d#5 v=114
239040 On ch=1 n=d#5 v=0
239040 On ch=1 n=d#4 v=0
239040 Par ch=1 c=64 v=0
239040 On ch=1 n=c#3 v=114
239040 On ch=1 n=c#4 v=114
239280 On ch=1 n=c#4 v=0
239280 On ch=1 n=c#3 v=0
239280 Par ch=1 c=64 v=120
239280 On ch=1 n=b3 v=114
239280 On ch=1 n=b4 v=114
239520 On ch=1 n=b4 v=0
239520 On ch=1 n=b3 v=0
239520 On ch=1 n=c4 v=114
239520 On ch=1 n=c5 v=114
239760 On ch=1 n=c5 v=0
239760 On ch=1 n=c4 v=0
239760 On ch=1 n=c#4 v=114
239760 On ch=1 n=c#5 v=114
240000 On ch=1 n=c#5 v=0
240000 On ch=1 n=c#4 v=0
240000 On ch=1 n=d4 v=114
240000 On ch=1 n=d5 v=114
240240 On ch=1 n=d5 v=0
240240 On ch=1 n=d4 v=0
240240 On ch=1 n=f4 v=114
240240 On ch=1 n=f5 v=114
240480 On ch=1 n=f5 v=0
240480 On ch=1 n=f4 v=0
240480 Par ch=1 c=64 v=0
240480 On ch=1 n=f#2 v=127
240480 On ch=1 n=f#3 v=127
240720 On ch=1 n=f#3 v=0
240720 On ch=1 n=f#2 v=0
240720 On ch=1 n=a4 v=114
240720 On ch=1 n=f#5 v=114
240720 On ch=1 n=a5 v=114
240960 On ch=1 n=a5 v=0
240960 On ch=1 n=f#5 v=0
240960 On ch=1 n=a4 v=0
240960 On ch=1 n=a4 v=114
240960 On ch=1 n=c5 v=114
240960 On ch=1 n=f#5 v=114
240960 On ch=1 n=a5 v=114
241200 On ch=1 n=a5 v=0
241200 On ch=1 n=f#5 v=0
241200 On ch=1 n=c5 v=0
241200 On ch=1 n=a4 v=0
241200 On ch=1 n=a4 v=114
241200 On ch=1 n=c#5 v=114
241200 On ch=1 n=f#5 v=114
241200 On ch=1 n=a5 v=114
241440 On ch=1 n=a5 v=0
241440 On ch=1 n=f#5 v=0
241440 On ch=1 n=c#5 v=0
241440 On ch=1 n=a4 v=0
241440 On ch=1 n=f#4 v=114
241440 On ch=1 n=c#5 v=114
241440 On ch=1 n=f#5 v=114
241680 On ch=1 n=f#5 v=0
241680 On ch=1 n=c#5 v=0
241680 On ch=1 n=f#4 v=0
241680 On ch=1 n=f#4 v=114
241680 On ch=1 n=g#4 v=114
241680 On ch=1 n=c#5 v=114
241680 On ch=1 n=f#5 v=114
241920 On ch=1 n=f#5 v=0
241920 On ch=1 n=c#5 v=0
241920 On ch=1 n=g#4 v=0
241920 On ch=1 n=f#4 v=0
241920 On ch=1 n=f#4 v=114
241920 On ch=1 n=a4 v=114
241920 On ch=1 n=c#5 v=114
241920 On ch=1 n=f#5 v=114
242160 On ch=1 n=f#5 v=0
242160 On ch=1 n=c#5 v=0
242160 On ch=1 n=a4 v=0
242160 On ch=1 n=f#4 v=0
242160 On ch=1 n=c#4 v=114
242160 On ch=1 n=a4 v=114
242160 On ch=1 n=c#5 v=114
242400 On ch=1 n=c#5 v=0
242400 On ch=1 n=a4 v=0
242400 On ch=1 n=c#4 v=0
242400 On ch=1 n=c#4 v=114
242400 On ch=1 n=f4 v=114
242400 On ch=1 n=a4 v=114
242400 On ch=1 n=c#5 v=114
242640 On ch=1 n=c#5 v=0
242640 On ch=1 n=a4 v=0
242640 On ch=1 n=f4 v=0
242640 On ch=1 n=c#4 v=0
242640 On ch=1 n=c#4 v=114
242640 On ch=1 n=a4 v=114
242640 On ch=1 n=c#5 v=114
242880 On ch=1 n=c#5 v=0
242880 On ch=1 n=a4 v=0
242880 On ch=1 n=c#4 v=0
242880 On ch=1 n=a3 v=114
242880 On ch=1 n=f#4 v=114
242880 On ch=1 n=a4 v=114
243120 On ch=1 n=a4 v=0
243120 On ch=1 n=f#4 v=0
243120 On ch=1 n=a3 v=0
243120 On ch=1 n=a3 v=114
243120 On ch=1 n=c#4 v=114
243120 On ch=1 n=f#4 v=114
243120 On ch=1 n=a4 v=114
243360 On ch=1 n=a4 v=0
243360 On ch=1 n=f#4 v=0
243360 On ch=1 n=c#4 v=0
243360 On ch=1 n=a3 v=0
243360 On ch=1 n=a3 v=127
243360 On ch=1 n=d4 v=127
243360 On ch=1 n=a4 v=127
243600 On ch=1 n=a4 v=0
243600 On ch=1 n=d4 v=0
243600 On ch=1 n=a3 v=0
243600 On ch=1 n=f#3 v=114
243600 On ch=1 n=d4 v=114
243600 On ch=1 n=f#4 v=114
243840 On ch=1 n=f#4 v=0
243840 On ch=1 n=d4 v=0
243840 On ch=1 n=f#3 v=0
243840 On ch=1 n=f#3 v=114
243840 On ch=1 n=g#3 v=114
243840 On ch=1 n=d4 v=114
243840 On ch=1 n=f#4 v=114
244080 On ch=1 n=f#4 v=0
244080 On ch=1 n=d4 v=0
244080 On ch=1 n=g#3 v=0
244080 On ch=1 n=f#3 v=0
244080 On ch=1 n=d3 v=127
244080 On ch=1 n=a3 v=127
244080 On ch=1 n=d4 v=127
244080 On ch=1 n=f#4 v=127
244320 On ch=1 n=f#4 v=0
244320 On ch=1 n=d4 v=0
244320 On ch=1 n=a3 v=0
244320 On ch=1 n=d3 v=0
244320 On ch=1 n=d3 v=114
244320 On ch=1 n=a3 v=114
244320 On ch=1 n=d4 v=114
244560 On ch=1 n=d4 v=0
244560 On ch=1 n=a3 v=0
244560 On ch=1 n=d3 v=0
244560 On ch=1 n=d3 v=114
244560 On ch=1 n=f3 v=114
244560 On ch=1 n=a3 v=114
244560 On ch=1 n=d4 v=114
244800 On ch=1 n=d4 v=0
244800 On ch=1 n=a3 v=0
244800 On ch=1 n=f3 v=0
244800 On ch=1 n=d3 v=0
244800 On ch=1 n=d3 v=127
244800 On ch=1 n=f#3 v=127
244800 On ch=1 n=a3 v=127
244800 On ch=1 n=d4 v=127
245040 On ch=1 n=d4 v=0
245040 On ch=1 n=a3 v=0
245040 On ch=1 n=f#3 v=0
245040 On ch=1 n=d3 v=0
245040 On ch=1 n=a2 v=114
245040 On ch=1 n=f#3 v=114
245040 On ch=1 n=a3 v=114
245280 On ch=1 n=a3 v=0
245280 On ch=1 n=f#3 v=0
245280 On ch=1 n=a2 v=0
245280 On ch=1 n=a2 v=114
245280 On ch=1 n=c#3 v=114
245280 On ch=1 n=f#3 v=114
245280 On ch=1 n=a3 v=114
245520 On ch=1 n=a3 v=0
245520 On ch=1 n=f#3 v=0
245520 On ch=1 n=c#3 v=0
245520 On ch=1 n=a2 v=0
245520 On ch=1 n=a2 v=127
245520 On ch=1 n=d3 v=127
245520 On ch=1 n=f#3 v=127
245520 On ch=1 n=a3 v=127
245760 On ch=1 n=a3 v=0
245760 On ch=1 n=f#3 v=0
245760 On ch=1 n=d3 v=0
245760 On ch=1 n=a2 v=0
245760 On ch=1 n=f#2 v=114
245760 On ch=1 n=a2 v=114
245760 On ch=1 n=d3 v=114
245760 On ch=1 n=f#3 v=114
246000 On ch=1 n=f#3 v=0
246000 On ch=1 n=d3 v=0
246000 On ch=1 n=a2 v=0
246000 On ch=1 n=f#2 v=0
246000 On ch=1 n=f#2 v=114
246000 On ch=1 n=a2 v=114
246000 On ch=1 n=d3 v=114
246000 On ch=1 n=f#3 v=114
246150 On ch=1 n=g#2 v=114
246180 On ch=1 n=c#3 v=114
246210 On ch=1 n=f3 v=114
246240 On ch=1 n=f#3 v=0
246240 On ch=1 n=d3 v=0
246240 On ch=1 n=a2 v=0
246240 On ch=1 n=f#2 v=0
246240 On ch=1 n=g#3 v=114
246480 On ch=1 n=g#3 v=0
246480 On ch=1 n=f3 v=0
246480 On ch=1 n=c#3 v=0
246480 On ch=1 n=g#2 v=0
246480 On ch=1 n=g2 v=127
246480 On ch=1 n=g3 v=127
246720 On ch=1 n=g3 v=0
246720 On ch=1 n=g2 v=0
246720 On ch=1 n=g#2 v=127
246720 On ch=1 n=g#3 v=127
246960 On ch=1 n=g#3 v=0
246960 On ch=1 n=g#2 v=0
246960 On ch=1 n=a2 v=127
246960 On ch=1 n=a3 v=127
247200 On ch=1 n=a3 v=0
247200 On ch=1 n=a2 v=0
247200 On ch=1 n=a#2 v=127
247200 On ch=1 n=a#3 v=127
247440 On ch=1 n=a#3 v=0
247440 On ch=1 n=a#2 v=0
247440 On ch=1 n=b2 v=127
247440 On ch=1 n=b3 v=127
247680 On ch=1 n=b3 v=0
247680 On ch=1 n=b2 v=0
247680 On ch=1 n=c3 v=127
247680 On ch=1 n=c4 v=127
247920 On ch=1 n=c4 v=0
247920 On ch=1 n=c3 v=0
247920 On ch=1 n=c#3 v=127
247920 On ch=1 n=c#4 v=127
248160 On ch=1 n=c#4 v=0
248160 On ch=1 n=c#3 v=0
248160 On ch=1 n=c3 v=127
248160 On ch=1 n=c4 v=127
248400 On ch=1 n=c4 v=0
248400 On ch=1 n=c3 v=0
248400 On ch=1 n=b2 v=127
248400 On ch=1 n=b3 v=127
248640 On ch=1 n=b3 v=0
248640 On ch=1 n=b2 v=0
248640 On ch=1 n=a#2 v=127
248640 On ch=1 n=a#3 v=127
248880 On ch=1 n=a#3 v=0
248880 On ch=1 n=a#2 v=0
248880 On ch=1 n=a2 v=127
248880 On ch=1 n=a3 v=127
249120 On ch=1 n=a3 v=0
249120 On ch=1 n=a2 v=0
249120 Par ch=1 c=64 v=120
249120 On ch=1 n=g#2 v=114
249120 On ch=1 n=g#3 v=114
249360 On ch=1 n=g#3 v=0
249360 On ch=1 n=g#2 v=0
249360 On ch=1 n=g#2 v=114
249360 On ch=1 n=g#3 v=114
249600 On ch=1 n=g#3 v=0
249600 On ch=1 n=g#2 v=0
249600 On ch=1 n=g#2 v=114
249600 On ch=1 n=g#3 v=114
249840 On ch=1 n=g#3 v=0
249840 On ch=1 n=g#2 v=0
249840 On ch=1 n=g#2 v=114
249840 On ch=1 n=g#3 v=114
250080 On ch=1 n=g#3 v=0
250080 On ch=1 n=g#2 v=0
250080 On ch=1 n=g#2 v=114
250080 On ch=1 n=g#3 v=114
250320 On ch=1 n=g#3 v=0
250320 On ch=1 n=g#2 v=0
250320 On ch=1 n=g#2 v=114
250320 On ch=1 n=g#3 v=114
250560 On ch=1 n=g#3 v=0
250560 On ch=1 n=g#2 v=0
250560 On ch=1 n=g#2 v=114
250560 On ch=1 n=c3 v=114
250560 On ch=1 n=f#3 v=114
250560 On ch=1 n=g#3 v=114
250800 On ch=1 n=g#3 v=0
250800 On ch=1 n=f#3 v=0
250800 On ch=1 n=c3 v=0
250800 On ch=1 n=g#2 v=0
250800 On ch=1 n=g#2 v=114
250800 On ch=1 n=c3 v=114
250800 On ch=1 n=f#3 v=114
250800 On ch=1 n=g#3 v=114
251040 On ch=1 n=g#3 v=0
251040 On ch=1 n=f#3 v=0
251040 On ch=1 n=c3 v=0
251040 On ch=1 n=g#2 v=0
251040 On ch=1 n=g#2 v=114
251040 On ch=1 n=c3 v=114
251040 On ch=1 n=f#3 v=114
251040 On ch=1 n=g#3 v=114
251280 On ch=1 n=g#3 v=0
251280 On ch=1 n=f#3 v=0
251280 On ch=1 n=c3 v=0
251280 On ch=1 n=g#2 v=0
251280 On ch=1 n=g#2 v=114
251280 On ch=1 n=c3 v=114
251280 On ch=1 n=f#3 v=114
251280 On ch=1 n=g#3 v=114
251520 On ch=1 n=g#3 v=0
251520 On ch=1 n=f#3 v=0
251520 On ch=1 n=c3 v=0
251520 On ch=1 n=g#2 v=0
251520 On ch=1 n=g#2 v=114
251520 On ch=1 n=c3 v=114
251520 On ch=1 n=f#3 v=114
251520 On ch=1 n=g#3 v=114
251760 On ch=1 n=g#3 v=0
251760 On ch=1 n=f#3 v=0
251760 On ch=1 n=c3 v=0
251760 On ch=1 n=g#2 v=0
251760 Par ch=1 c=64 v=0
251760 On ch=1 n=g#2 v=114
251760 On ch=1 n=c3 v=114
251760 On ch=1 n=f#3 v=114
251760 On ch=1 n=g#3 v=114
252000 On ch=1 n=g#3 v=0
252000 On ch=1 n=f#3 v=0
252000 On ch=1 n=c3 v=0
252000 On ch=1 n=g#2 v=0
252000 Par ch=1 c=64 v=120
252000 On ch=1 n=c#2 v=127
252000 On ch=1 n=c#3 v=127
252240 On ch=1 n=c#3 v=0
252240 On ch=1 n=c#2 v=0
252480 On ch=1 n=g#3 v=101
252480 On ch=1 n=c#4 v=101
252480 On ch=1 n=f4 v=101
252480 On ch=1 n=g#4 v=101
252495 On ch=1 n=g#3 v=0
252511 On ch=1 n=c#4 v=0
252527 On ch=1 n=f4 v=0
252543 On ch=1 n=g#4 v=0
252639 On ch=1 n=g#3 v=101
252639 On ch=1 n=c#4 v=101
252639 On ch=1 n=f4 v=101
252639 On ch=1 n=g#4 v=101
252655 On ch=1 n=g#3 v=0
252671 On ch=1 n=c#4 v=0
252688 On ch=1 n=f4 v=0
252704 On ch=1 n=g#4 v=0
252800 On ch=1 n=g#3 v=101
252800 On ch=1 n=c#4 v=101
252800 On ch=1 n=f4 v=101
252800 On ch=1 n=g#4 v=101
252816 On ch=1 n=g#3 v=0
252832 On ch=1 n=c#4 v=0
252847 On ch=1 n=f4 v=0
252863 On ch=1 n=g#4 v=0
252960 On ch=1 n=g#3 v=101
252960 On ch=1 n=c#4 v=101
252960 On ch=1 n=f4 v=101
252960 On ch=1 n=g#4 v=101
252975 On ch=1 n=g#3 v=0
252991 On ch=1 n=c#4 v=0
253007 On ch=1 n=f4 v=0
253023 On ch=1 n=g#4 v=0
253119 On ch=1 n=g#3 v=101
253119 On ch=1 n=c#4 v=101
253119 On ch=1 n=f4 v=101
253119 On ch=1 n=g#4 v=101
253135 On ch=1 n=g#3 v=0
253151 On ch=1 n=c#4 v=0
253168 On ch=1 n=f4 v=0
253184 On ch=1 n=g#4 v=0
253280 On ch=1 n=g#3 v=101
253280 On ch=1 n=c#4 v=101
253280 On ch=1 n=f4 v=101
253280 On ch=1 n=g#4 v=101
253296 On ch=1 n=g#3 v=0
253312 On ch=1 n=c#4 v=0
253327 On ch=1 n=f4 v=0
253343 On ch=1 n=g#4 v=0
253440 On ch=1 n=g#3 v=101
253440 On ch=1 n=c#4 v=101
253440 On ch=1 n=f4 v=101
253440 On ch=1 n=g#4 v=101
253463 On ch=1 n=g#3 v=0
253487 On ch=1 n=c#4 v=0
253512 On ch=1 n=f4 v=0
253536 On ch=1 n=g#4 v=0
253680 Par ch=1 c=64 v=0
253920 Par ch=1 c=64 v=120
253920 On ch=1 n=c#2 v=127
253920 On ch=1 n=c#3 v=127
254160 On ch=1 n=c#3 v=0
254160 On ch=1 n=c#2 v=0
254400 On ch=1 n=g#3 v=101
254400 On ch=1 n=c#4 v=101
254400 On ch=1 n=f4 v=101
254400 On ch=1 n=g#4 v=101
254415 On ch=1 n=g#3 v=0
254431 On ch=1 n=c#4 v=0
254447 On ch=1 n=f4 v=0
254463 On ch=1 n=g#4 v=0
254559 On ch=1 n=g#3 v=101
254559 On ch=1 n=c#4 v=101
254559 On ch=1 n=f4 v=101
254559 On ch=1 n=g#4 v=101
254575 On ch=1 n=g#3 v=0
254591 On ch=1 n=c#4 v=0
254608 On ch=1 n=f4 v=0
254624 On ch=1 n=g#4 v=0
254720 On ch=1 n=g#3 v=101
254720 On ch=1 n=c#4 v=101
254720 On ch=1 n=f4 v=101
254720 On ch=1 n=g#4 v=101
254736 On ch=1 n=g#3 v=0
254752 On ch=1 n=c#4 v=0
254767 On ch=1 n=f4 v=0
254783 On ch=1 n=g#4 v=0
254880 On ch=1 n=g#3 v=101
254880 On ch=1 n=c#4 v=101
254880 On ch=1 n=f4 v=101
254880 On ch=1 n=g#4 v=101
254895 On ch=1 n=g#3 v=0
254911 On ch=1 n=c#4 v=0
254927 On ch=1 n=f4 v=0
254943 On ch=1 n=g#4 v=0
255039 On ch=1 n=g#3 v=101
255039 On ch=1 n=c#4 v=101
255039 On ch=1 n=f4 v=101
255039 On ch=1 n=g#4 v=101
255055 On ch=1 n=g#3 v=0
255071 On ch=1 n=c#4 v=0
255088 On ch=1 n=f4 v=0
255104 On ch=1 n=g#4 v=0
255200 On ch=1 n=g#3 v=101
255200 On ch=1 n=c#4 v=101
255200 On ch=1 n=f4 v=101
255200 On ch=1 n=g#4 v=101
255216 On ch=1 n=g#3 v=0
255232 On ch=1 n=c#4 v=0
255247 On ch=1 n=f4 v=0
255263 On ch=1 n=g#4 v=0
255360 On ch=1 n=g#3 v=101
255360 On ch=1 n=c#4 v=101
255360 On ch=1 n=f4 v=101
255360 On ch=1 n=g#4 v=101
255383 On ch=1 n=g#3 v=0
255407 On ch=1 n=c#4 v=0
255432 On ch=1 n=f4 v=0
255456 On ch=1 n=g#4 v=0
255600 Par ch=1 c=64 v=0
255840 Par ch=1 c=64 v=120
255840 On ch=1 n=g#2 v=101
255999 On ch=1 n=g#2 v=0
255999 On ch=1 n=g#3 v=101
256160 On ch=1 n=g#3 v=0
256160 On ch=1 n=d#3 v=101
256320 On ch=1 n=d#3 v=0
256320 On ch=1 n=d#4 v=101
256479 On ch=1 n=d#4 v=0
256479 On ch=1 n=g#3 v=101
256640 On ch=1 n=g#3 v=0
256640 On ch=1 n=g#4 v=101
256800 On ch=1 n=g#4 v=0
256800 On ch=1 n=d#4 v=101
256959 On ch=1 n=d#4 v=0
256959 On ch=1 n=d#5 v=101
257120 On ch=1 n=d#5 v=0
257120 On ch=1 n=g#3 v=101
257280 On ch=1 n=g#3 v=0
257280 On ch=1 n=g#4 v=101
257439 On ch=1 n=g#4 v=0
257439 On ch=1 n=d#3 v=101
257600 On ch=1 n=d#3 v=0
257600 Par ch=1 c=64 v=0
257600 On ch=1 n=d#4 v=101
257760 On ch=1 n=d#4 v=0
257760 Par ch=1 c=64 v=120
257760 On ch=1 n=g#2 v=101
257919 On ch=1 n=g#2 v=0
257919 On ch=1 n=g#3 v=101
258080 On ch=1 n=g#3 v=0
258080 On ch=1 n=d#3 v=101
258240 On ch=1 n=d#3 v=0
258240 On ch=1 n=d#4 v=101
258399 On ch=1 n=d#4 v=0
258399 On ch=1 n=g#3 v=101
258560 On ch=1 n=g#3 v=0
258560 On ch=1 n=g#4 v=101
258720 On ch=1 n=g#4 v=0
258720 Par ch=1 c=64 v=0
258960 On ch=1 n=g#3 v=101
258960 On ch=1 n=g#4 v=101
259007 On ch=1 n=g#3 v=0
259056 On ch=1 n=g#4 v=0
259200 On ch=1 n=d#3 v=101
259200 On ch=1 n=d#4 v=101
259247 On ch=1 n=d#3 v=0
259296 On ch=1 n=d#4 v=0
259440 On ch=1 n=g#2 v=101
259440 On ch=1 n=g#3 v=101
259487 On ch=1 n=g#2 v=0
259536 On ch=1 n=g#3 v=0
259680 Par ch=1 c=64 v=120
259680 On ch=1 n=d#2 v=127
259680 On ch=1 n=d#3 v=127
259920 On ch=1 n=d#3 v=0
259920 On ch=1 n=d#2 v=0
260160 On ch=1 n=a#3 v=101
260160 On ch=1 n=d#4 v=101
260160 On ch=1 n=f#4 v=101
260160 On ch=1 n=a#4 v=101
260175 On ch=1 n=a#3 v=0
260191 On ch=1 n=d#4 v=0
260207 On ch=1 n=f#4 v=0
260223 On ch=1 n=a#4 v=0
260319 On ch=1 n=a#3 v=101
260319 On ch=1 n=d#4 v=101
260319 On ch=1 n=f#4 v=101
260319 On ch=1 n=a#4 v=101
260335 On ch=1 n=a#3 v=0
260351 On ch=1 n=d#4 v=0
260368 On ch=1 n=f#4 v=0
260384 On ch=1 n=a#4 v=0
260480 On ch=1 n=a#3 v=101
260480 On ch=1 n=d#4 v=101
260480 On ch=1 n=f#4 v=101
260480 On ch=1 n=a#4 v=101
260496 On ch=1 n=a#3 v=0
260512 On ch=1 n=d#4 v=0
260527 On ch=1 n=f#4 v=0
260543 On ch=1 n=a#4 v=0
260640 On ch=1 n=a#3 v=101
260640 On ch=1 n=d#4 v=101
260640 On ch=1 n=f#4 v=101
260640 On ch=1 n=a#4 v=101
260655 On ch=1 n=a#3 v=0
260671 On ch=1 n=d#4 v=0
260687 On ch=1 n=f#4 v=0
260703 On ch=1 n=a#4 v=0
260799 On ch=1 n=a#3 v=101
260799 On ch=1 n=d#4 v=101
260799 On ch=1 n=f#4 v=101
260799 On ch=1 n=a#4 v=101
260815 On ch=1 n=a#3 v=0
260831 On ch=1 n=d#4 v=0
260848 On ch=1 n=f#4 v=0
260864 On ch=1 n=a#4 v=0
260960 On ch=1 n=a#3 v=101
260960 On ch=1 n=d#4 v=101
260960 On ch=1 n=f#4 v=101
260960 On ch=1 n=a#4 v=101
260976 On ch=1 n=a#3 v=0
260992 On ch=1 n=d#4 v=0
261007 On ch=1 n=f#4 v=0
261023 On ch=1 n=a#4 v=0
261120 On ch=1 n=a#3 v=101
261120 On ch=1 n=d#4 v=101
261120 On ch=1 n=f#4 v=101
261120 On ch=1 n=a#4 v=101
261143 On ch=1 n=a#3 v=0
261167 On ch=1 n=d#4 v=0
261192 On ch=1 n=f#4 v=0
261216 On ch=1 n=a#4 v=0
261360 Par ch=1 c=64 v=0
261600 Par ch=1 c=64 v=120
261600 On ch=1 n=d#2 v=127
261600 On ch=1 n=d#3 v=127
261840 On ch=1 n=d#3 v=0
261840 On ch=1 n=d#2 v=0
262080 On ch=1 n=a#3 v=101
262080 On ch=1 n=d#4 v=101
262080 On ch=1 n=f#4 v=101
262080 On ch=1 n=a#4 v=101
262095 On ch=1 n=a#3 v=0
262111 On ch=1 n=d#4 v=0
262127 On ch=1 n=f#4 v=0
262143 On ch=1 n=a#4 v=0
262239 On ch=1 n=a#3 v=101
262239 On ch=1 n=d#4 v=101
262239 On ch=1 n=f#4 v=101
262239 On ch=1 n=a#4 v=101
262255 On ch=1 n=a#3 v=0
262271 On ch=1 n=d#4 v=0
262288 On ch=1 n=f#4 v=0
262304 On ch=1 n=a#4 v=0
262400 On ch=1 n=a#3 v=101
262400 On ch=1 n=d#4 v=101
262400 On ch=1 n=f#4 v=101
262400 On ch=1 n=a#4 v=101
262416 On ch=1 n=a#3 v=0
262432 On ch=1 n=d#4 v=0
262447 On ch=1 n=f#4 v=0
262463 On ch=1 n=a#4 v=0
262560 On ch=1 n=a#3 v=101
262560 On ch=1 n=d#4 v=101
262560 On ch=1 n=f#4 v=101
262560 On ch=1 n=a#4 v=101
262575 On ch=1 n=a#3 v=0
262591 On ch=1 n=d#4 v=0
262607 On ch=1 n=f#4 v=0
262623 On ch=1 n=a#4 v=0
262719 On ch=1 n=a#3 v=101
262719 On ch=1 n=d#4 v=101
262719 On ch=1 n=f#4 v=101
262719 On ch=1 n=a#4 v=101
262735 On ch=1 n=a#3 v=0
262751 On ch=1 n=d#4 v=0
262768 On ch=1 n=f#4 v=0
262784 On ch=1 n=a#4 v=0
262880 On ch=1 n=a#3 v=101
262880 On ch=1 n=d#4 v=101
262880 On ch=1 n=f#4 v=101
262880 On ch=1 n=a#4 v=101
262896 On ch=1 n=a#3 v=0
262912 On ch=1 n=d#4 v=0
262927 On ch=1 n=f#4 v=0
262943 On ch=1 n=a#4 v=0
263040 On ch=1 n=a#3 v=101
263040 On ch=1 n=d#4 v=101
263040 On ch=1 n=f#4 v=101
263040 On ch=1 n=a#4 v=101
263063 On ch=1 n=a#3 v=0
263087 On ch=1 n=d#4 v=0
263112 On ch=1 n=f#4 v=0
263136 On ch=1 n=a#4 v=0
263280 Par ch=1 c=64 v=0
263520 Par ch=1 c=64 v=120
263520 On ch=1 n=a#2 v=101
263679 On ch=1 n=a#2 v=0
263679 On ch=1 n=a#3 v=101
263840 On ch=1 n=a#3 v=0
263840 On ch=1 n=f3 v=101
264000 On ch=1 n=f3 v=0
264000 On ch=1 n=f4 v=101
264159 On ch=1 n=f4 v=0
264159 On ch=1 n=a#3 v=101
264320 On ch=1 n=a#3 v=0
264320 On ch=1 n=a#4 v=101
264480 On ch=1 n=a#4 v=0
264480 On ch=1 n=f4 v=101
264639 On ch=1 n=f4 v=0
264639 On ch=1 n=f5 v=101
264800 On ch=1 n=f5 v=0
264800 On ch=1 n=a#3 v=101
264960 On ch=1 n=a#3 v=0
264960 On ch=1 n=a#4 v=101
265119 On ch=1 n=a#4 v=0
265119 On ch=1 n=f3 v=101
265280 On ch=1 n=f3 v=0
265280 Par ch=1 c=64 v=0
265280 On ch=1 n=f4 v=101
265440 On ch=1 n=f4 v=0
265440 Par ch=1 c=64 v=120
265440 On ch=1 n=a#2 v=101
265599 On ch=1 n=a#2 v=0
265599 On ch=1 n=a#3 v=101
265760 On ch=1 n=a#3 v=0
265760 On ch=1 n=f3 v=101
265920 On ch=1 n=f3 v=0
265920 On ch=1 n=f4 v=101
266079 On ch=1 n=f4 v=0
266079 On ch=1 n=a#3 v=101
266240 On ch=1 n=a#3 v=0
266240 On ch=1 n=a#4 v=101
266400 On ch=1 n=a#4 v=0
266400 Par ch=1 c=64 v=0
266640 On ch=1 n=a#3 v=101
266640 On ch=1 n=a#4 v=101
266687 On ch=1 n=a#3 v=0
266736 On ch=1 n=a#4 v=0
266880 On ch=1 n=f3 v=101
266880 On ch=1 n=f4 v=101
266927 On ch=1 n=f3 v=0
266976 On ch=1 n=f4 v=0
267120 On ch=1 n=a#2 v=101
267120 On ch=1 n=a#3 v=101
267167 On ch=1 n=a#2 v=0
267216 On ch=1 n=a#3 v=0
267360 Par ch=1 c=64 v=120
267360 On ch=1 n=f#2 v=127
267360 On ch=1 n=f#3 v=127
267600 On ch=1 n=f#3 v=0
267600 On ch=1 n=f#2 v=0
267840 On ch=1 n=c#4 v=101
267840 On ch=1 n=f#4 v=101
267840 On ch=1 n=a#4 v=101
267840 On ch=1 n=c#5 v=101
267855 On ch=1 n=c#4 v=0
267871 On ch=1 n=f#4 v=0
267887 On ch=1 n=a#4 v=0
267903 On ch=1 n=c#5 v=0
267999 On ch=1 n=c#4 v=101
267999 On ch=1 n=f#4 v=101
267999 On ch=1 n=a#4 v=101
267999 On ch=1 n=c#5 v=101
268015 On ch=1 n=c#4 v=0
268031 On ch=1 n=f#4 v=0
268048 On ch=1 n=a#4 v=0
268064 On ch=1 n=c#5 v=0
268160 On ch=1 n=c#4 v=101
268160 On ch=1 n=f#4 v=101
268160 On ch=1 n=a#4 v=101
268160 On ch=1 n=c#5 v=101
268176 On ch=1 n=c#4 v=0
268192 On ch=1 n=f#4 v=0
268207 On ch=1 n=a#4 v=0
268223 On ch=1 n=c#5 v=0
268320 On ch=1 n=c#4 v=101
268320 On ch=1 n=f#4 v=101
268320 On ch=1 n=a#4 v=101
268320 On ch=1 n=c#5 v=101
268335 On ch=1 n=c#4 v=0
268351 On ch=1 n=f#4 v=0
268367 On ch=1 n=a#4 v=0
268383 On ch=1 n=c#5 v=0
268479 On ch=1 n=c#4 v=101
268479 On ch=1 n=f#4 v=101
268479 On ch=1 n=a#4 v=101
268479 On ch=1 n=c#5 v=101
268495 On ch=1 n=c#4 v=0
268511 On ch=1 n=f#4 v=0
268528 On ch=1 n=a#4 v=0
268544 On ch=1 n=c#5 v=0
268640 On ch=1 n=c#4 v=101
268640 On ch=1 n=f#4 v=101
268640 On ch=1 n=a#4 v=101
268640 On ch=1 n=c#5 v=101
268656 On ch=1 n=c#4 v=0
268672 On ch=1 n=f#4 v=0
268687 On ch=1 n=a#4 v=0
268703 On ch=1 n=c#5 v=0
268800 On ch=1 n=c#4 v=101
268800 On ch=1 n=f#4 v=101
268800 On ch=1 n=a#4 v=101
268800 On ch=1 n=c#5 v=101
268823 On ch=1 n=c#4 v=0
268847 On ch=1 n=f#4 v=0
268872 On ch=1 n=a#4 v=0
268896 On ch=1 n=c#5 v=0
269040 Par ch=1 c=64 v=0
269280 Par ch=1 c=64 v=120
269280 On ch=1 n=f#2 v=127
269280 On ch=1 n=f#3 v=127
269520 On ch=1 n=f#3 v=0
269520 On ch=1 n=f#2 v=0
269760 On ch=1 n=c#4 v=101
269760 On ch=1 n=f#4 v=101
269760 On ch=1 n=a#4 v=101
269760 On ch=1 n=c#5 v=101
269775 On ch=1 n=c#4 v=0
269791 On ch=1 n=f#4 v=0
269807 On ch=1 n=a#4 v=0
269823 On ch=1 n=c#5 v=0
269919 On ch=1 n=c#4 v=101
269919 On ch=1 n=f#4 v=101
269919 On ch=1 n=a#4 v=101
269919 On ch=1 n=c#5 v=101
269935 On ch=1 n=c#4 v=0
269951 On ch=1 n=f#4 v=0
269968 On ch=1 n=a#4 v=0
269984 On ch=1 n=c#5 v=0
270080 On ch=1 n=c#4 v=101
270080 On ch=1 n=f#4 v=101
270080 On ch=1 n=a#4 v=101
270080 On ch=1 n=c#5 v=101
270096 On ch=1 n=c#4 v=0
270112 On ch=1 n=f#4 v=0
270127 On ch=1 n=a#4 v=0
270143 On ch=1 n=c#5 v=0
270240 On ch=1 n=c#4 v=101
270240 On ch=1 n=f#4 v=101
270240 On ch=1 n=a#4 v=101
270240 On ch=1 n=c#5 v=101
270255 On ch=1 n=c#4 v=0
270271 On ch=1 n=f#4 v=0
270287 On ch=1 n=a#4 v=0
270303 On ch=1 n=c#5 v=0
270399 On ch=1 n=c#4 v=101
270399 On ch=1 n=f#4 v=101
270399 On ch=1 n=a#4 v=101
270399 On ch=1 n=c#5 v=101
270415 On ch=1 n=c#4 v=0
270431 On ch=1 n=f#4 v=0
270448 On ch=1 n=a#4 v=0
270464 On ch=1 n=c#5 v=0
270560 On ch=1 n=c#4 v=101
270560 On ch=1 n=f#4 v=101
270560 On ch=1 n=a#4 v=101
270560 On ch=1 n=c#5 v=101
270576 On ch=1 n=c#4 v=0
270592 On ch=1 n=f#4 v=0
270607 On ch=1 n=a#4 v=0
270623 On ch=1 n=c#5 v=0
270720 On ch=1 n=c#4 v=101
270720 On ch=1 n=f#4 v=101
270720 On ch=1 n=a#4 v=101
270720 On ch=1 n=c#5 v=101
270743 On ch=1 n=c#4 v=0
270767 On ch=1 n=f#4 v=0
270792 On ch=1 n=a#4 v=0
270816 On ch=1 n=c#5 v=0
270960 Par ch=1 c=64 v=0
271200 Par ch=1 c=64 v=120
271200 On ch=1 n=f#3 v=75
271320 On ch=1 n=f#3 v=0
271320 On ch=1 n=c#4 v=75
271440 On ch=1 n=c#4 v=0
271440 On ch=1 n=f#4 v=75
271560 On ch=1 n=f#4 v=0
271560 On ch=1 n=c#5 v=75
271800 On ch=1 n=c#5 v=0
271800 On ch=1 n=f#4 v=75
271920 On ch=1 n=f#4 v=0
271920 On ch=1 n=c#4 v=75
272040 On ch=1 n=c#4 v=0
272040 On ch=1 n=f#3 v=75
272280 On ch=1 n=f#3 v=0
272280 On ch=1 n=c#4 v=75
272400 On ch=1 n=c#4 v=0
272400 On ch=1 n=f#4 v=75
272520 On ch=1 n=f#4 v=0
272520 On ch=1 n=c#5 v=75
272760 On ch=1 n=c#5 v=0
272760 On ch=1 n=f#4 v=75
272880 On ch=1 n=f#4 v=0
272880 On ch=1 n=c#4 v=75
273000 On ch=1 n=c#4 v=0
273000 On ch=1 n=f#3 v=75
273240 On ch=1 n=f#3 v=0
273240 On ch=1 n=c#4 v=62
273360 On ch=1 n=c#4 v=0
273360 On ch=1 n=f#4 v=62
273480 On ch=1 n=f#4 v=0
273480 On ch=1 n=c#5 v=62
273720 On ch=1 n=c#5 v=0
273720 On ch=1 n=f#4 v=62
273840 On ch=1 n=f#4 v=0
273840 On ch=1 n=c#4 v=62
273960 On ch=1 n=c#4 v=0
273960 On ch=1 n=f#3 v=62
274200 On ch=1 n=f#3 v=0
274200 On ch=1 n=c#4 v=62
274320 On ch=1 n=c#4 v=0
274320 On ch=1 n=f#4 v=62
274440 On ch=1 n=f#4 v=0
274440 On ch=1 n=c#5 v=62
274680 On ch=1 n=c#5 v=0
274680 On ch=1 n=f#4 v=62
274800 On ch=1 n=f#4 v=0
274800 On ch=1 n=c#4 v=62
274920 On ch=1 n=c#4 v=0
274920 Par ch=1 c=64 v=0
274920 On ch=1 n=f#3 v=62
275040 On ch=1 n=f#3 v=0
275040 Par ch=1 c=64 v=120
275040 On ch=1 n=c#3 v=49
275160 On ch=1 n=c#3 v=0
275160 On ch=1 n=g#3 v=49
275280 On ch=1 n=g#3 v=0
275280 On ch=1 n=c#4 v=49
275400 On ch=1 n=c#4 v=0
275400 On ch=1 n=g#4 v=49
275640 On ch=1 n=g#4 v=0
275640 On ch=1 n=c#4 v=49
275760 On ch=1 n=c#4 v=0
275760 On ch=1 n=g#3 v=49
275880 On ch=1 n=g#3 v=0
275880 Par ch=1 c=64 v=0
275880 On ch=1 n=c#3 v=49
276000 Par ch=1 c=64 v=120
276120 On ch=1 n=c#3 v=0
276120 On ch=1 n=g#3 v=49
276240 On ch=1 n=g#3 v=0
276240 On ch=1 n=a#3 v=49
276360 On ch=1 n=a#3 v=0
276360 On ch=1 n=g#4 v=49
276600 On ch=1 n=g#4 v=0
276600 On ch=1 n=a#3 v=49
276720 On ch=1 n=a#3 v=0
276720 On ch=1 n=g#3 v=49
276840 On ch=1 n=g#3 v=0
276840 Par ch=1 c=64 v=0
276840 On ch=1 n=c#3 v=49
276960 Par ch=1 c=64 v=120
277080 On ch=1 n=c#3 v=0
277080 On ch=1 n=g#3 v=49
277200 On ch=1 n=g#3 v=0
277200 On ch=1 n=c4 v=49
277320 On ch=1 n=c4 v=0
277320 On ch=1 n=g#4 v=49
277560 On ch=1 n=g#4 v=0
277560 On ch=1 n=c4 v=49
277680 On ch=1 n=c4 v=0
277680 On ch=1 n=g#3 v=49
277800 On ch=1 n=g#3 v=0
277800 On ch=1 n=c#3 v=49
278040 On ch=1 n=c#3 v=0
278040 On ch=1 n=g#3 v=49
278160 On ch=1 n=g#3 v=0
278160 On ch=1 n=c4 v=49
278280 On ch=1 n=c4 v=0
278280 Par ch=1 c=64 v=0
278280 On ch=1 n=g#4 v=49
278400 On ch=1 n=g#4 v=0
278400 Par ch=1 c=64 v=120
278400 On ch=1 n=c#3 v=49
278520 On ch=1 n=c#3 v=0
278520 On ch=1 n=g#3 v=49
278640 On ch=1 n=g#3 v=0
278640 On ch=1 n=c#4 v=49
278760 On ch=1 n=c#4 v=0
278760 Par ch=1 c=64 v=0
278760 On ch=1 n=g#4 v=49
278880 On ch=1 n=g#4 v=0
278880 Par ch=1 c=64 v=120
278880 On ch=1 n=c#3 v=49
279000 On ch=1 n=c#3 v=0
279000 On ch=1 n=g#3 v=49
279120 On ch=1 n=g#3 v=0
279120 On ch=1 n=a#3 v=49
279240 On ch=1 n=a#3 v=0
279240 On ch=1 n=g#4 v=49
279480 On ch=1 n=g#4 v=0
279480 On ch=1 n=a#3 v=49
279600 On ch=1 n=a#3 v=0
279600 On ch=1 n=g#3 v=49
279720 On ch=1 n=g#3 v=0
279720 Par ch=1 c=64 v=0
279720 On ch=1 n=c#3 v=49
279840 Par ch=1 c=64 v=120
279960 On ch=1 n=c#3 v=0
279960 On ch=1 n=g#3 v=49
280080 On ch=1 n=g#3 v=0
280080 On ch=1 n=c4 v=49
280200 On ch=1 n=c4 v=0
280200 On ch=1 n=g#4 v=49
280440 On ch=1 n=g#4 v=0
280440 On ch=1 n=c4 v=49
280560 On ch=1 n=c4 v=0
280560 On ch=1 n=g#3 v=49
280680 On ch=1 n=g#3 v=0
280680 Par ch=1 c=64 v=0
280680 On ch=1 n=c#3 v=49
280800 Par ch=1 c=64 v=120
280920 On ch=1 n=c#3 v=0
280920 On ch=1 n=g#3 v=49
281040 On ch=1 n=g#3 v=0
281040 On ch=1 n=b3 v=49
281160 On ch=1 n=b3 v=0
281160 On ch=1 n=d4 v=49
281400 On ch=1 n=d4 v=0
281400 On ch=1 n=b3 v=49
281520 On ch=1 n=b3 v=0
281520 On ch=1 n=g#3 v=49
281640 On ch=1 n=g#3 v=0
281640 On ch=1 n=c#3 v=49
281880 On ch=1 n=c#3 v=0
281880 On ch=1 n=g#3 v=49
282000 On ch=1 n=g#3 v=0
282000 On ch=1 n=b3 v=49
282120 On ch=1 n=b3 v=0
282120 On ch=1 n=d4 v=49
282360 On ch=1 n=d4 v=0
282360 On ch=1 n=b3 v=49
282480 On ch=1 n=b3 v=0
282480 On ch=1 n=g#3 v=49
282600 On ch=1 n=g#3 v=0
282600 On ch=1 n=c#3 v=49
282840 On ch=1 n=c#3 v=0
282840 On ch=1 n=g#3 v=49
282960 On ch=1 n=g#3 v=0
282960 On ch=1 n=b3 v=49
283080 On ch=1 n=b3 v=0
283080 On ch=1 n=d4 v=49
283320 On ch=1 n=d4 v=0
283320 On ch=1 n=b3 v=49
283440 On ch=1 n=b3 v=0
283440 On ch=1 n=g#3 v=49
283560 On ch=1 n=g#3 v=0
283560 On ch=1 n=c#3 v=49
283800 On ch=1 n=c#3 v=0
283800 On ch=1 n=g#3 v=49
283920 On ch=1 n=g#3 v=0
283920 On ch=1 n=b3 v=49
284040 On ch=1 n=b3 v=0
284040 On ch=1 n=d4 v=49
284280 On ch=1 n=d4 v=0
284280 On ch=1 n=b3 v=49
284400 On ch=1 n=b3 v=0
284400 On ch=1 n=g#3 v=49
284520 On ch=1 n=g#3 v=0
284520 On ch=1 n=c#3 v=49
284760 On ch=1 n=c#3 v=0
284760 On ch=1 n=a3 v=49
284880 On ch=1 n=a3 v=0
284880 On ch=1 n=c#4 v=49
285000 On ch=1 n=c#4 v=0
285000 On ch=1 n=e4 v=49
285240 On ch=1 n=e4 v=0
285240 On ch=1 n=c#4 v=49
285360 On ch=1 n=c#4 v=0
285360 On ch=1 n=a3 v=49
285480 On ch=1 n=a3 v=0
285480 On ch=1 n=c#3 v=49
285720 On ch=1 n=c#3 v=0
285720 On ch=1 n=a3 v=49
285840 On ch=1 n=a3 v=0
285840 On ch=1 n=c#4 v=49
285960 On ch=1 n=c#4 v=0
285960 On ch=1 n=e4 v=49
286200 On ch=1 n=e4 v=0
286200 On ch=1 n=c#4 v=49
286320 On ch=1 n=c#4 v=0
286320 On ch=1 n=a3 v=49
286440 On ch=1 n=a3 v=0
286440 On ch=1 n=c#3 v=49
286680 On ch=1 n=c#3 v=0
286680 On ch=1 n=a3 v=49
286800 On ch=1 n=a3 v=0
286800 On ch=1 n=c#4 v=49
286920 On ch=1 n=c#4 v=0
286920 On ch=1 n=e4 v=49
287160 On ch=1 n=e4 v=0
287160 On ch=1 n=c#4 v=49
287280 On ch=1 n=c#4 v=0
287280 On ch=1 n=a3 v=49
287400 On ch=1 n=a3 v=0
287400 On ch=1 n=c#3 v=49
287640 On ch=1 n=c#3 v=0
287640 On ch=1 n=a3 v=49
287760 On ch=1 n=a3 v=0
287760 On ch=1 n=c#4 v=49
287880 On ch=1 n=c#4 v=0
287880 On ch=1 n=e4 v=49
288120 On ch=1 n=e4 v=0
288120 On ch=1 n=c#4 v=49
288240 On ch=1 n=c#4 v=0
288240 On ch=1 n=a3 v=49
288360 On ch=1 n=a3 v=0
288360 On ch=1 n=c#3 v=49
288600 On ch=1 n=c#3 v=0
288600 On ch=1 n=a3 v=49
288720 On ch=1 n=a3 v=0
288720 On ch=1 n=d4 v=49
288840 On ch=1 n=d4 v=0
288840 On ch=1 n=f#4 v=49
289080 On ch=1 n=f#4 v=0
289080 On ch=1 n=d4 v=49
289200 On ch=1 n=d4 v=0
289200 On ch=1 n=a3 v=49
289320 On ch=1 n=a3 v=0
289320 On ch=1 n=c#3 v=49
289560 On ch=1 n=c#3 v=0
289560 On ch=1 n=a3 v=49
289680 On ch=1 n=a3 v=0
289680 On ch=1 n=d4 v=49
289800 On ch=1 n=d4 v=0
289800 On ch=1 n=f#4 v=49
290040 On ch=1 n=f#4 v=0
290040 On ch=1 n=d4 v=49
290160 On ch=1 n=d4 v=0
290160 On ch=1 n=a3 v=49
290280 On ch=1 n=a3 v=0
290280 On ch=1 n=c#3 v=49
290520 On ch=1 n=c#3 v=0
290520 On ch=1 n=a3 v=49
290640 On ch=1 n=a3 v=0
290640 On ch=1 n=d4 v=49
290760 On ch=1 n=d4 v=0
290760 On ch=1 n=f#4 v=49
291000 On ch=1 n=f#4 v=0
291000 On ch=1 n=d4 v=49
291120 On ch=1 n=d4 v=0
291120 On ch=1 n=a3 v=49
291240 On ch=1 n=a3 v=0
291240 On ch=1 n=c#3 v=49
291480 On ch=1 n=c#3 v=0
291480 On ch=1 n=a3 v=49
291600 On ch=1 n=a3 v=0
291600 On ch=1 n=d4 v=49
291720 On ch=1 n=d4 v=0
291720 On ch=1 n=f#4 v=49
291960 On ch=1 n=f#4 v=0
291960 On ch=1 n=d4 v=49
292080 On ch=1 n=d4 v=0
292080 On ch=1 n=a3 v=49
292200 On ch=1 n=a3 v=0
292200 On ch=1 n=c#3 v=49
292440 On ch=1 n=c#3 v=0
292440 On ch=1 n=a3 v=49
292560 On ch=1 n=a3 v=0
292560 On ch=1 n=c4 v=49
292680 On ch=1 n=c4 v=0
292680 On ch=1 n=f#4 v=49
292920 On ch=1 n=f#4 v=0
292920 On ch=1 n=c4 v=49
293040 On ch=1 n=c4 v=0
293040 On ch=1 n=a3 v=49
293160 On ch=1 n=a3 v=0
293160 On ch=1 n=c#3 v=49
293400 On ch=1 n=c#3 v=0
293400 On ch=1 n=a3 v=49
293520 On ch=1 n=a3 v=0
293520 On ch=1 n=c4 v=49
293640 On ch=1 n=c4 v=0
293640 On ch=1 n=f#4 v=49
293880 On ch=1 n=f#4 v=0
293880 On ch=1 n=c4 v=49
294000 On ch=1 n=c4 v=0
294000 On ch=1 n=a3 v=49
294120 On ch=1 n=a3 v=0
294120 On ch=1 n=c#3 v=49
294360 On ch=1 n=c#3 v=0
294360 On ch=1 n=a3 v=49
294480 On ch=1 n=a3 v=0
294480 On ch=1 n=c4 v=49
294600 On ch=1 n=c4 v=0
294600 On ch=1 n=f#4 v=49
294840 On ch=1 n=f#4 v=0
294840 On ch=1 n=c4 v=49
294960 On ch=1 n=c4 v=0
294960 On ch=1 n=a3 v=49
295080 On ch=1 n=a3 v=0
295080 On ch=1 n=c#3 v=49
295320 On ch=1 n=c#3 v=0
295320 On ch=1 n=a3 v=49
295440 On ch=1 n=a3 v=0
295440 On ch=1 n=c4 v=49
295560 On ch=1 n=c4 v=0
295560 On ch=1 n=f#4 v=49
295800 On ch=1 n=f#4 v=0
295800 On ch=1 n=c4 v=49
295920 On ch=1 n=c4 v=0
295920 On ch=1 n=a3 v=49
296040 On ch=1 n=a3 v=0
296040 Par ch=1 c=64 v=0
296040 On ch=1 n=c#3 v=49
296160 On ch=1 n=c#3 v=0
296160 Par ch=1 c=64 v=120
296160 On ch=1 n=c#3 v=36
296240 On ch=1 n=c#3 v=0
296240 On ch=1 n=g#3 v=36
296319 On ch=1 n=g#3 v=0
296319 On ch=1 n=f4 v=36
296400 On ch=1 n=f4 v=0
296640 Par ch=1 c=64 v=120
296640 On ch=1 n=f3 v=36
296720 On ch=1 n=f3 v=0
296720 On ch=1 n=c#4 v=36
296799 On ch=1 n=c#4 v=0
296799 On ch=1 n=g#4 v=36
296880 On ch=1 n=g#4 v=0
297120 Par ch=1 c=64 v=120
297120 On ch=1 n=g#3 v=36
297200 On ch=1 n=g#3 v=0
297200 On ch=1 n=f4 v=36
297279 On ch=1 n=f4 v=0
297279 On ch=1 n=c#5 v=36
297360 On ch=1 n=c#5 v=0
297600 Par ch=1 c=64 v=120
297600 On ch=1 n=c#4 v=36
297680 On ch=1 n=c#4 v=0
297680 On ch=1 n=g#4 v=36
297759 On ch=1 n=g#4 v=0
297759 On ch=1 n=c#5 v=36
297840 On ch=1 n=c#5 v=0
298080 Par ch=1 c=64 v=120
298080 On ch=1 n=c#4 v=36
298160 On ch=1 n=c#4 v=0
298160 On ch=1 n=g4 v=36
298239 On ch=1 n=g4 v=0
298239 On ch=1 n=c#5 v=36
298320 On ch=1 n=c#5 v=0
298560 Par ch=1 c=64 v=120
298560 On ch=1 n=c#4 v=36
298640 On ch=1 n=c#4 v=0
298640 On ch=1 n=g#4 v=36
298719 On ch=1 n=g#4 v=0
298719 On ch=1 n=c#5 v=36
298800 On ch=1 n=c#5 v=0
299040 Par ch=1 c=64 v=120
299040 On ch=1 n=c#4 v=36
299120 On ch=1 n=c#4 v=0
299120 On ch=1 n=a#4 v=36
299199 On ch=1 n=a#4 v=0
299199 On ch=1 n=c#5 v=36
299280 On ch=1 n=c#5 v=0
299520 Par ch=1 c=64 v=120
299520 On ch=1 n=c#4 v=36
299600 On ch=1 n=c#4 v=0
299600 On ch=1 n=a4 v=36
299679 On ch=1 n=a4 v=0
299679 On ch=1 n=e5 v=36
299760 On ch=1 n=e5 v=0
300000 Par ch=1 c=64 v=120
300000 On ch=1 n=c#4 v=36
300080 On ch=1 n=c#4 v=0
300080 On ch=1 n=g#4 v=36
300159 On ch=1 n=g#4 v=0
300159 On ch=1 n=f5 v=36
300240 On ch=1 n=f5 v=0
300480 Par ch=1 c=64 v=120
300480 On ch=1 n=c#4 v=36
300540 On ch=1 n=c#4 v=0
300540 On ch=1 n=g4 v=36
300600 On ch=1 n=g4 v=0
300600 On ch=1 n=a#4 v=36
300660 On ch=1 n=a#4 v=0
300660 On ch=1 n=e5 v=36
300720 On ch=1 n=e5 v=0
300960 Par ch=1 c=64 v=120
300960 On ch=1 n=c#4 v=36
301020 On ch=1 n=c#4 v=0
301020 On ch=1 n=f#4 v=36
301080 On ch=1 n=f#4 v=0
301080 On ch=1 n=a4 v=36
301140 On ch=1 n=a4 v=0
301140 On ch=1 n=d#5 v=36
301200 On ch=1 n=d#5 v=0
301440 Par ch=1 c=64 v=120
301440 On ch=1 n=c#4 v=36
301500 On ch=1 n=c#4 v=0
301500 On ch=1 n=f4 v=36
301560 On ch=1 n=f4 v=0
301560 On ch=1 n=g#4 v=36
301620 On ch=1 n=g#4 v=0
301620 On ch=1 n=c#5 v=36
301680 On ch=1 n=c#5 v=0
301920 Par ch=1 c=64 v=120
301920 On ch=1 n=c#4 v=36
301980 On ch=1 n=c#4 v=0
301980 On ch=1 n=d#4 v=36
302040 On ch=1 n=d#4 v=0
302040 On ch=1 n=g#4 v=36
302100 On ch=1 n=g#4 v=0
302100 On ch=1 n=c5 v=36
302160 On ch=1 n=c5 v=0
302400 Par ch=1 c=64 v=120
302400 On ch=1 n=c#4 v=36
302460 On ch=1 n=c#4 v=0
302460 On ch=1 n=f4 v=36
302520 On ch=1 n=f4 v=0
302520 On ch=1 n=g#4 v=36
302580 On ch=1 n=g#4 v=0
302580 On ch=1 n=c#5 v=36
302640 On ch=1 n=c#5 v=0
302880 Par ch=1 c=64 v=120
302880 On ch=1 n=c#4 v=36
302940 On ch=1 n=c#4 v=0
302940 On ch=1 n=f#4 v=36
303000 On ch=1 n=f#4 v=0
303000 On ch=1 n=g#4 v=36
303060 On ch=1 n=g#4 v=0
303060 On ch=1 n=d#5 v=36
303120 On ch=1 n=d#5 v=0
303360 Par ch=1 c=64 v=120
303360 On ch=1 n=c#4 v=36
303420 On ch=1 n=c#4 v=0
303420 On ch=1 n=g#4 v=36
303480 On ch=1 n=g#4 v=0
303480 On ch=1 n=c5 v=36
303540 On ch=1 n=c5 v=0
303540 On ch=1 n=f#5 v=36
303600 On ch=1 n=f#5 v=0
303840 Par ch=1 c=64 v=120
303840 On ch=1 n=c#3 v=36
303920 On ch=1 n=c#3 v=0
303920 On ch=1 n=g#3 v=36
303999 On ch=1 n=g#3 v=0
303999 On ch=1 n=f4 v=36
304080 On ch=1 n=f4 v=0
304320 Par ch=1 c=64 v=120
304320 On ch=1 n=f3 v=36
304400 On ch=1 n=f3 v=0
304400 On ch=1 n=c#4 v=36
304479 On ch=1 n=c#4 v=0
304479 On ch=1 n=g#4 v=36
304560 On ch=1 n=g#4 v=0
304800 Par ch=1 c=64 v=120
304800 On ch=1 n=g#3 v=36
304880 On ch=1 n=g#3 v=0
304880 On ch=1 n=f4 v=36
304959 On ch=1 n=f4 v=0
304959 On ch=1 n=c#5 v=36
305040 On ch=1 n=c#5 v=0
305280 Par ch=1 c=64 v=120
305280 On ch=1 n=c#4 v=36
305360 On ch=1 n=c#4 v=0
305360 On ch=1 n=g#4 v=36
305439 On ch=1 n=g#4 v=0
305439 On ch=1 n=c#5 v=36
305520 On ch=1 n=c#5 v=0
305760 Par ch=1 c=64 v=120
305760 On ch=1 n=c#4 v=36
305840 On ch=1 n=c#4 v=0
305840 On ch=1 n=g4 v=36
305919 On ch=1 n=g4 v=0
305919 On ch=1 n=c#5 v=36
306000 On ch=1 n=c#5 v=0
306240 Par ch=1 c=64 v=120
306240 On ch=1 n=c#4 v=36
306320 On ch=1 n=c#4 v=0
306320 On ch=1 n=g#4 v=36
306399 On ch=1 n=g#4 v=0
306399 On ch=1 n=c#5 v=36
306480 On ch=1 n=c#5 v=0
306720 Par ch=1 c=64 v=120
306720 On ch=1 n=c#4 v=36
306800 On ch=1 n=c#4 v=0
306800 On ch=1 n=a#4 v=36
306879 On ch=1 n=a#4 v=0
306879 On ch=1 n=c#5 v=36
306960 On ch=1 n=c#5 v=0
307200 Par ch=1 c=64 v=120
307200 On ch=1 n=c#4 v=36
307280 On ch=1 n=c#4 v=0
307280 On ch=1 n=a4 v=36
307359 On ch=1 n=a4 v=0
307359 On ch=1 n=e5 v=36
307440 On ch=1 n=e5 v=0
307680 Par ch=1 c=64 v=120
307680 On ch=1 n=c#4 v=36
308000 On ch=1 n=c#4 v=0
308000 On ch=1 n=g#4 v=36
308319 On ch=1 n=g#4 v=0
308319 On ch=1 n=f5 v=36
308640 On ch=1 n=f5 v=0
309600 Par ch=1 c=64 v=120
309600 On ch=1 n=a#3 v=36
309920 On ch=1 n=a#3 v=0
309920 On ch=1 n=f4 v=36
310239 On ch=1 n=f4 v=0
310239 On ch=1 n=c#5 v=36
310560 On ch=1 n=c#5 v=0
311520 Par ch=1 c=64 v=120
311520 On ch=1 n=f3 v=36
311760 On ch=1 n=f3 v=0
311760 On ch=1 n=c4 v=36
312000 On ch=1 n=c4 v=0
312000 On ch=1 n=f4 v=36
312240 On ch=1 n=f4 v=0
312240 On ch=1 n=g#4 v=36
312480 On ch=1 n=g#4 v=0
313440 Par ch=1 c=64 v=120
313440 On ch=1 n=g#2 v=36
313500 On ch=1 n=g#2 v=0
313500 On ch=1 n=c3 v=36
313560 On ch=1 n=c3 v=0
313560 On ch=1 n=f#3 v=36
313620 On ch=1 n=f#3 v=0
313620 On ch=1 n=g#3 v=36
313680 On ch=1 n=g#3 v=0
313680 On ch=1 n=c4 v=36
313740 On ch=1 n=c4 v=0
313740 On ch=1 n=d#4 v=36
313800 On ch=1 n=d#4 v=0
313800 On ch=1 n=g#4 v=36
313860 On ch=1 n=g#4 v=0
313860 On ch=1 n=c5 v=36
313920 On ch=1 n=c5 v=0
315360 Par ch=1 c=64 v=120
315360 On ch=1 n=c#2 v=36
315420 On ch=1 n=c#2 v=0
315420 On ch=1 n=c#3 v=36
315540 On ch=1 n=c#3 v=0
315540 On ch=1 n=g#3 v=36
315600 On ch=1 n=g#3 v=0
315600 On ch=1 n=c#4 v=36
315660 On ch=1 n=c#4 v=0
315660 On ch=1 n=f4 v=36
315720 On ch=1 n=f4 v=0
315720 On ch=1 n=g#4 v=36
315780 On ch=1 n=g#4 v=0
317520 Par ch=1 c=64 v=0
317760 Par ch=1 c=64 v=120
317760 On ch=1 n=c#3 v=36
317760 On ch=1 n=g#3 v=36
317760 On ch=1 n=c#4 v=36
317760 On ch=1 n=f4 v=36
318720 On ch=1 n=f4 v=0
318720 On ch=1 n=c#4 v=0
318720 On ch=1 n=g#3 v=0
318720 On ch=1 n=c#3 v=0
318720 On ch=1 n=c#3 v=36
318720 On ch=1 n=g#3 v=36
318720 On ch=1 n=c#4 v=36
318720 On ch=1 n=f4 v=36
319200 On ch=1 n=f4 v=0
319200 On ch=1 n=c#4 v=0
319200 On ch=1 n=g#3 v=0
319200 On ch=1 n=c#3 v=0
319200 On ch=1 n=c#3 v=36
319200 On ch=1 n=g#3 v=36
319200 On ch=1 n=c#4 v=36
319200 On ch=1 n=f4 v=36
321120 On ch=1 n=f4 v=0
321120 On ch=1 n=c#4 v=0
321120 On ch=1 n=g#3 v=0
321120 On ch=1 n=c#3 v=0
321120 Meta TrkEnd
TrkEnd
MTrk
0 SeqSpec 43 00 01 00
0 Meta TrkName "Composed by Franz Liszt"
0 Meta 0x21 00
0 Meta TrkEnd
TrkEnd
MTrk
0 SeqSpec 43 00 01 00
0 Meta TrkName "Sequenced and  Transcribed"
0 Meta 0x21 00
0 Meta TrkEnd
TrkEnd
MTrk
0 SeqSpec 43 00 01 00
0 Meta TrkName "by Tyler Singletary"
0 Meta 0x21 00
0 Meta TrkEnd
TrkEnd
MTrk
0 SeqSpec 43 00 01 00
0 Meta TrkName "tylermusik@teleute.com"
0 Meta 0x21 00
0 Meta TrkEnd
TrkEnd
MTrk
0 SeqSpec 43 00 01 00
0 Meta TrkName "------------"
0 Meta 0x21 00
0 Meta TrkEnd
TrkEnd
MTrk
0 SeqSpec 43 00 01 00
0 Meta TrkName "(c) 1996 Tyler Singletary"
0 Meta 0x21 00
0 Meta TrkEnd
TrkEnd
MTrk
0 SeqSpec 43 00 01 00
0 Meta TrkName "Reproduction allowed for"
0 Meta 0x21 00
0 Meta TrkEnd
TrkEnd
MTrk
0 SeqSpec 43 00 01 00
0 Meta TrkName "non-commercial use."
0 Meta 0x21 00
0 Meta TrkEnd
TrkEnd
