MFile 1 7 480
MTrk
0 TimeSig 4/4 24 8
0 KeySig 0 major
0 Tempo 250000
3360 Tempo 250000
3840 Tempo 461538
4016 Tempo 447761
4072 Tempo 444444
4128 Tempo 441176
4184 Tempo 437956
4240 Tempo 434783
4296 Tempo 431655
4352 Tempo 428571
4408 Tempo 425532
4464 Tempo 422535
4520 Tempo 419580
4576 Tempo 416667
4632 Tempo 413793
4688 Tempo 410959
4744 Tempo 408163
4800 Tempo 400000
6720 Tempo 400000
6784 Tempo 402685
6848 Tempo 405405
6904 Tempo 408163
6968 Tempo 410959
7024 Tempo 413793
7088 Tempo 416667
7144 Tempo 419580
7208 Tempo 422535
7272 Tempo 425532
7328 Tempo 428571
7392 Tempo 431655
7448 Tempo 434783
7512 Tempo 437956
7568 Tempo 441176
7632 Tempo 444444
7688 Tempo 447761
7848 Tempo 447761
7880 Tempo 444444
7912 Tempo 441176
7936 Tempo 437956
7968 Tempo 434783
7992 Tempo 431655
8024 Tempo 428571
8048 Tempo 425532
8080 Tempo 422535
8112 Tempo 419580
8136 Tempo 416667
8168 Tempo 413793
8192 Tempo 410959
8224 Tempo 408163
8248 Tempo 405405
10560 Tempo 402685
10640 Tempo 405405
10712 Tempo 408163
10784 Tempo 410959
10856 Tempo 413793
10936 Tempo 416667
11008 Tempo 419580
11080 Tempo 422535
11152 Tempo 425532
11232 Tempo 428571
11304 Tempo 431655
11376 Tempo 434783
11448 Tempo 437956
11520 Tempo 441176
11584 Tempo 437956
11648 Tempo 434783
11712 Tempo 431655
11768 Tempo 428571
11832 Tempo 425532
11896 Tempo 422535
11960 Tempo 419580
12016 Tempo 416667
12712 Tempo 413793
12800 Tempo 410959
12888 Tempo 408163
12976 Tempo 405405
13064 Tempo 402685
13144 Tempo 400000
17384 Tempo 408163
17456 Tempo 410959
17528 Tempo 413793
17592 Tempo 416667
17664 Tempo 419580
17736 Tempo 422535
17800 Tempo 425532
17872 Tempo 428571
17936 Tempo 431655
18008 Tempo 434783
18080 Tempo 437956
18144 Tempo 441176
18216 Tempo 444444
18232 Tempo 408163
18328 Tempo 410959
18424 Tempo 413793
18520 Tempo 416667
18616 Tempo 419580
18704 Tempo 422535
18800 Tempo 425532
18896 Tempo 428571
18992 Tempo 431655
19080 Tempo 434783
19208 Tempo 461538
19256 Tempo 458015
19304 Tempo 454545
19352 Tempo 451128
19400 Tempo 447761
19448 Tempo 444444
19496 Tempo 441176
19544 Tempo 437956
19592 Tempo 419580
19672 Tempo 416667
19752 Tempo 413793
19832 Tempo 410959
19904 Tempo 408163
19984 Tempo 405405
20064 Tempo 402685
20136 Tempo 400000
24336 Tempo 397351
24424 Tempo 400000
24512 Tempo 402685
24592 Tempo 405405
24680 Tempo 408163
24768 Tempo 410959
24848 Tempo 413793
24936 Tempo 416667
25016 Tempo 419580
25104 Tempo 422535
25192 Tempo 425532
25272 Tempo 428571
25360 Tempo 431655
25440 Tempo 434783
25600 Tempo 425532
25720 Tempo 422535
25840 Tempo 419580
25960 Tempo 416667
26080 Tempo 413793
26200 Tempo 410959
28648 Tempo 410959
28800 Tempo 408163
28952 Tempo 405405
29104 Tempo 402685
29256 Tempo 400000
29408 Tempo 397351
29552 Tempo 394737
30624 Tempo 392157
30736 Tempo 394737
30840 Tempo 397351
30952 Tempo 400000
31056 Tempo 402685
31168 Tempo 405405
31272 Tempo 408163
31384 Tempo 410959
31488 Tempo 413793
31592 Tempo 416667
32616 Tempo 413793
32720 Tempo 410959
32824 Tempo 408163
32928 Tempo 405405
33032 Tempo 402685
34568 Tempo 402685
34616 Tempo 405405
34664 Tempo 408163
34704 Tempo 410959
34752 Tempo 413793
34792 Tempo 416667
34840 Tempo 419580
34880 Tempo 422535
34928 Tempo 425532
34968 Tempo 428571
35016 Tempo 431655
35056 Tempo 434783
35104 Tempo 437956
35144 Tempo 441176
35192 Tempo 444444
35224 Tempo 419580
35296 Tempo 422535
35360 Tempo 425532
35432 Tempo 428571
35496 Tempo 431655
35568 Tempo 434783
35632 Tempo 437956
35704 Tempo 441176
35768 Tempo 444444
35840 Tempo 447761
35888 Tempo 437956
35976 Tempo 434783
36056 Tempo 431655
36144 Tempo 428571
36224 Tempo 425532
36304 Tempo 422535
36392 Tempo 419580
36472 Tempo 416667
36560 Tempo 413793
36640 Tempo 410959
36720 Tempo 408163
36944 Tempo 408163
36992 Tempo 410959
37040 Tempo 413793
37080 Tempo 416667
37128 Tempo 419580
37168 Tempo 422535
37216 Tempo 425532
37264 Tempo 428571
37304 Tempo 431655
37352 Tempo 434783
37392 Tempo 437956
37440 Tempo 441176
37488 Tempo 444444
37528 Tempo 447761
37576 Tempo 451128
37616 Tempo 454545
37664 Tempo 458015
37704 Tempo 461538
37920 Tempo 447761
37984 Tempo 444444
38040 Tempo 441176
38104 Tempo 437956
38160 Tempo 434783
38216 Tempo 431655
38280 Tempo 428571
38336 Tempo 425532
38392 Tempo 422535
39824 Tempo 416667
40000 Tempo 413793
40176 Tempo 410959
40352 Tempo 405405
62512 Tempo 402685
62584 Tempo 405405
62648 Tempo 408163
62712 Tempo 410959
62776 Tempo 413793
62840 Tempo 416667
62904 Tempo 419580
62976 Tempo 422535
63040 Tempo 425532
63104 Tempo 428571
63168 Tempo 431655
63232 Tempo 434783
63296 Tempo 437956
63360 Tempo 441176
63624 Tempo 405405
63776 Tempo 408163
63920 Tempo 410959
64072 Tempo 413793
64216 Tempo 416667
64368 Tempo 419580
64512 Tempo 422535
64664 Tempo 425532
64808 Tempo 425532
64928 Tempo 422535
65040 Tempo 419580
65152 Tempo 416667
65264 Tempo 413793
65376 Tempo 410959
70280 Tempo 408163
70344 Tempo 410959
70400 Tempo 413793
70456 Tempo 416667
70512 Tempo 419580
70568 Tempo 422535
70624 Tempo 425532
70680 Tempo 428571
70736 Tempo 431655
70792 Tempo 434783
70848 Tempo 437956
70904 Tempo 441176
71032 Tempo 437956
71104 Tempo 434783
71168 Tempo 431655
71232 Tempo 428571
71296 Tempo 425532
71360 Tempo 422535
71432 Tempo 419580
71496 Tempo 416667
71560 Tempo 413793
71624 Tempo 410959
71688 Tempo 408163
71752 Tempo 405405
72888 Tempo 405405
73104 Tempo 402685
73320 Tempo 400000
76816 Tempo 397351
76920 Tempo 400000
77016 Tempo 402685
77112 Tempo 405405
77208 Tempo 408163
77312 Tempo 410959
77408 Tempo 413793
77504 Tempo 416667
77600 Tempo 419580
77976 Tempo 419580
78104 Tempo 416667
78232 Tempo 413793
78352 Tempo 410959
78480 Tempo 408163
78608 Tempo 405405
78728 Tempo 402685
93104 Tempo 402685
93292 Tempo 405405
93476 Tempo 408163
93664 Tempo 410959
93852 Tempo 413793
94036 Tempo 416667
94076 Tempo 416667
94144 Tempo 419580
94212 Tempo 422535
94276 Tempo 425532
94344 Tempo 428571
94412 Tempo 431655
94476 Tempo 434783
94532 Tempo 437956
94572 Tempo 441176
94596 Tempo 444444
94636 Tempo 447761
94664 Tempo 451128
94692 Tempo 454545
94732 Tempo 458015
94756 Tempo 461538
94784 Tempo 465116
94824 Tempo 468750
94852 Tempo 472441
94876 Tempo 476190
94916 Tempo 480000
94944 Tempo 483871
94972 Tempo 487805
95012 Tempo 504202
95036 Tempo 508475
95064 Tempo 512821
95092 Tempo 517241
95116 Tempo 521739
95144 Tempo 526316
95172 Tempo 530973
95196 Tempo 535714
95224 Tempo 540541
95236 Tempo 545455
95264 Tempo 550459
95292 Tempo 555556
95316 Tempo 560748
95344 Tempo 566038
95372 Tempo 571429
95396 Tempo 576923
95424 Tempo 582524
95452 Tempo 588235
95464 Tempo 594059
95504 Tempo 461538
95504 Meta TrkEnd
TrkEnd
MTrk
0 SeqSpec 43 00 01 00
0 SysEx f0 41 10 42 12 40 00 7f 00 41 f7
0 SysEx f0 41 10 42 12 40 01 30 03 0c f7
0 Meta TrkEnd
TrkEnd
MTrk
0 SeqSpec 43 00 01 00
0 Meta TrkName "Etude No. 2"
0 Meta 0x21 00
480 Par ch=1 c=0 v=0
480 Par ch=1 c=0 v=0
480 Par ch=1 c=93 v=20
480 Par ch=1 c=91 v=64
488 PrCh ch=1 p=0
492 Par ch=1 c=7 v=127
1844 Par ch=1 c=64 v=127
3836 On ch=1 n=a3 v=45
3840 On ch=1 n=a5 v=42
3856 On ch=1 n=e5 v=36
3860 On ch=1 n=c5 v=36
3936 On ch=1 n=c5 v=0
3940 On ch=1 n=a5 v=0
3940 On ch=1 n=a3 v=0
3948 On ch=1 n=e5 v=0
3960 On ch=1 n=a#5 v=44
4052 Par ch=1 c=64 v=0
4060 On ch=1 n=a#5 v=0
4080 On ch=1 n=b5 v=51
4180 On ch=1 n=b5 v=0
4200 On ch=1 n=c6 v=55
4300 On ch=1 n=c6 v=0
4312 On ch=1 n=a5 v=41
4312 On ch=1 n=e5 v=31
4316 On ch=1 n=e4 v=29
4316 On ch=1 n=c5 v=41
4316 On ch=1 n=a4 v=43
4320 On ch=1 n=c#6 v=52
4384 On ch=1 n=a4 v=0
4412 On ch=1 n=e4 v=0
4412 On ch=1 n=e5 v=0
4416 On ch=1 n=c5 v=0
4416 On ch=1 n=a5 v=0
4420 On ch=1 n=c#6 v=0
4440 On ch=1 n=d6 v=50
4540 On ch=1 n=d6 v=0
4560 On ch=1 n=d#6 v=48
4660 On ch=1 n=d#6 v=0
4680 On ch=1 n=e6 v=53
4752 Par ch=1 c=64 v=127
4780 On ch=1 n=e6 v=0
4792 On ch=1 n=a5 v=35
4792 On ch=1 n=d6 v=36
4792 On ch=1 n=a3 v=44
4800 On ch=1 n=f6 v=53
4876 On ch=1 n=a5 v=0
4888 On ch=1 n=a3 v=0
4892 On ch=1 n=d6 v=0
4900 On ch=1 n=f6 v=0
4920 On ch=1 n=f#6 v=50
5016 Par ch=1 c=64 v=0
5020 On ch=1 n=f#6 v=0
5040 On ch=1 n=g6 v=55
5140 On ch=1 n=g6 v=0
5160 On ch=1 n=g#6 v=51
5260 On ch=1 n=g#6 v=0
5276 On ch=1 n=d6 v=34
5276 On ch=1 n=f6 v=36
5276 On ch=1 n=f4 v=37
5276 On ch=1 n=d5 v=50
5276 On ch=1 n=a4 v=50
5280 On ch=1 n=a6 v=53
5356 On ch=1 n=a4 v=0
5356 On ch=1 n=d6 v=0
5360 On ch=1 n=f6 v=0
5376 On ch=1 n=d5 v=0
5380 On ch=1 n=a6 v=0
5384 On ch=1 n=f4 v=0
5400 On ch=1 n=a#6 v=48
5500 On ch=1 n=a#6 v=0
5520 On ch=1 n=b6 v=47
5620 On ch=1 n=b6 v=0
5640 On ch=1 n=c7 v=41
5728 Par ch=1 c=64 v=127
5740 On ch=1 n=c7 v=0
5756 On ch=1 n=e6 v=38
5756 On ch=1 n=a6 v=43
5756 On ch=1 n=a2 v=53
5756 On ch=1 n=a3 v=45
5760 On ch=1 n=c#7 v=55
5832 On ch=1 n=a2 v=0
5836 On ch=1 n=e6 v=0
5848 On ch=1 n=a3 v=0
5860 On ch=1 n=c#7 v=0
5860 On ch=1 n=a6 v=0
5880 On ch=1 n=d7 v=57
5980 On ch=1 n=d7 v=0
6000 On ch=1 n=d#7 v=56
6100 On ch=1 n=d#7 v=0
6120 On ch=1 n=e7 v=57
6220 On ch=1 n=e7 v=0
6232 On ch=1 n=e4 v=35
6236 On ch=1 n=c7 v=40
6236 On ch=1 n=a6 v=39
6236 On ch=1 n=c5 v=39
6236 On ch=1 n=a4 v=43
6240 On ch=1 n=f7 v=60
6260 Par ch=1 c=64 v=0
6304 On ch=1 n=a4 v=0
6324 On ch=1 n=e4 v=0
6328 On ch=1 n=a6 v=0
6340 On ch=1 n=f7 v=0
6344 On ch=1 n=c5 v=0
6348 On ch=1 n=c7 v=0
6360 On ch=1 n=e7 v=44
6460 On ch=1 n=e7 v=0
6480 On ch=1 n=d#7 v=43
6580 On ch=1 n=d#7 v=0
6600 On ch=1 n=d7 v=45
6700 On ch=1 n=d7 v=0
6712 On ch=1 n=a6 v=43
6712 On ch=1 n=e6 v=34
6712 On ch=1 n=a4 v=45
6712 On ch=1 n=c5 v=43
6716 On ch=1 n=e5 v=42
6720 On ch=1 n=c#7 v=47
6780 On ch=1 n=e5 v=0
6788 On ch=1 n=c5 v=0
6796 On ch=1 n=a4 v=0
6808 On ch=1 n=e6 v=0
6812 On ch=1 n=a6 v=0
6820 On ch=1 n=c#7 v=0
6840 On ch=1 n=c7 v=52
6940 On ch=1 n=c7 v=0
6960 On ch=1 n=b6 v=51
7060 On ch=1 n=b6 v=0
7080 On ch=1 n=a#6 v=45
7180 On ch=1 n=a#6 v=0
7200 On ch=1 n=a6 v=54
7200 On ch=1 n=e6 v=43
7200 On ch=1 n=c6 v=43
7268 On ch=1 n=c6 v=0
7272 On ch=1 n=e6 v=0
7300 On ch=1 n=a6 v=0
7320 On ch=1 n=g#6 v=54
7420 On ch=1 n=g#6 v=0
7440 On ch=1 n=b6 v=60
7540 On ch=1 n=b6 v=0
7560 On ch=1 n=a6 v=58
7632 Par ch=1 c=64 v=127
7660 On ch=1 n=a6 v=0
7680 On ch=1 n=g#6 v=52
7684 On ch=1 n=e6 v=43
7688 On ch=1 n=b5 v=33
7688 On ch=1 n=e3 v=53
7736 On ch=1 n=e3 v=0
7776 On ch=1 n=b5 v=0
7776 On ch=1 n=e6 v=0
7780 On ch=1 n=g#6 v=0
7800 On ch=1 n=g6 v=51
7900 On ch=1 n=g6 v=0
7920 On ch=1 n=f#6 v=52
7948 Par ch=1 c=64 v=0
8020 On ch=1 n=f#6 v=0
8040 On ch=1 n=f6 v=57
8140 On ch=1 n=f6 v=0
8156 On ch=1 n=b4 v=56
8156 On ch=1 n=e4 v=34
8160 On ch=1 n=e6 v=52
8160 On ch=1 n=d5 v=46
8164 On ch=1 n=g#5 v=37
8164 On ch=1 n=b5 v=40
8252 On ch=1 n=g#5 v=0
8256 On ch=1 n=d5 v=0
8260 On ch=1 n=e6 v=0
8268 On ch=1 n=b5 v=0
8268 On ch=1 n=b4 v=0
8272 On ch=1 n=e4 v=0
8280 On ch=1 n=d#6 v=50
8380 On ch=1 n=d#6 v=0
8400 On ch=1 n=f6 v=56
8500 On ch=1 n=f6 v=0
8520 On ch=1 n=e6 v=56
8608 Par ch=1 c=64 v=127
8620 On ch=1 n=e6 v=0
8632 On ch=1 n=a3 v=40
8640 On ch=1 n=d#6 v=52
8644 On ch=1 n=a5 v=39
8644 On ch=1 n=c6 v=45
8716 On ch=1 n=c6 v=0
8716 On ch=1 n=a5 v=0
8716 On ch=1 n=a3 v=0
8740 On ch=1 n=d#6 v=0
8760 On ch=1 n=d6 v=46
8860 On ch=1 n=d6 v=0
8880 On ch=1 n=c#6 v=48
8948 Par ch=1 c=64 v=0
8980 On ch=1 n=c#6 v=0
9000 On ch=1 n=c6 v=55
9100 On ch=1 n=c6 v=0
9112 On ch=1 n=e5 v=34
9112 On ch=1 n=e4 v=35
9112 On ch=1 n=c5 v=52
9112 On ch=1 n=a4 v=55
9116 On ch=1 n=a5 v=36
9120 On ch=1 n=b5 v=55
9196 On ch=1 n=a5 v=0
9196 On ch=1 n=a4 v=0
9196 On ch=1 n=e5 v=0
9208 On ch=1 n=c5 v=0
9220 On ch=1 n=b5 v=0
9224 On ch=1 n=e4 v=0
9240 On ch=1 n=c6 v=57
9340 On ch=1 n=c6 v=0
9360 On ch=1 n=d6 v=46
9460 On ch=1 n=d6 v=0
9480 On ch=1 n=c6 v=50
9580 On ch=1 n=c6 v=0
9592 Par ch=1 c=64 v=127
9596 On ch=1 n=g#5 v=40
9596 On ch=1 n=e4 v=40
9596 On ch=1 n=b4 v=52
9600 On ch=1 n=b5 v=46
9600 On ch=1 n=e5 v=36
9688 On ch=1 n=e5 v=0
9688 On ch=1 n=b4 v=0
9692 On ch=1 n=e4 v=0
9696 On ch=1 n=g#5 v=0
9700 On ch=1 n=b5 v=0
9720 On ch=1 n=c6 v=49
9820 On ch=1 n=c6 v=0
9840 On ch=1 n=b5 v=45
9908 Par ch=1 c=64 v=0
9940 On ch=1 n=b5 v=0
9960 On ch=1 n=c6 v=48
10060 On ch=1 n=c6 v=0
10076 On ch=1 n=d#5 v=36
10076 On ch=1 n=b4 v=50
10076 On ch=1 n=f4 v=49
10080 On ch=1 n=b5 v=48
10084 On ch=1 n=a5 v=43
10168 On ch=1 n=d#5 v=0
10180 On ch=1 n=a5 v=0
10180 On ch=1 n=b5 v=0
10200 On ch=1 n=c6 v=51
10300 On ch=1 n=c6 v=0
10320 On ch=1 n=b5 v=47
10420 On ch=1 n=b5 v=0
10440 On ch=1 n=c6 v=53
10540 On ch=1 n=c6 v=0
10556 On ch=1 n=e4 v=46
10560 On ch=1 n=b5 v=51
10564 On ch=1 n=e5 v=37
10564 On ch=1 n=g#5 v=41
10604 On ch=1 n=f4 v=0
10648 On ch=1 n=g#5 v=0
10660 On ch=1 n=e5 v=0
10660 On ch=1 n=b5 v=0
10660 On ch=1 n=e4 v=0
10680 On ch=1 n=e6 v=48
10684 On ch=1 n=b4 v=0
10780 On ch=1 n=e6 v=0
10800 On ch=1 n=d#6 v=48
10900 On ch=1 n=d#6 v=0
10920 On ch=1 n=d6 v=40
11020 On ch=1 n=d6 v=0
11036 On ch=1 n=g#5 v=38
11040 On ch=1 n=c#6 v=48
11040 On ch=1 n=d5 v=32
11140 On ch=1 n=c#6 v=0
11140 On ch=1 n=g#5 v=0
11144 On ch=1 n=d5 v=0
11160 On ch=1 n=c6 v=51
11260 On ch=1 n=c6 v=0
11280 On ch=1 n=b5 v=52
11380 On ch=1 n=b5 v=0
11400 On ch=1 n=a#5 v=48
11500 On ch=1 n=a#5 v=0
11500 Par ch=1 c=64 v=127
11520 On ch=1 n=a5 v=48
11520 On ch=1 n=a3 v=45
11524 On ch=1 n=e5 v=39
11524 On ch=1 n=c5 v=29
11592 On ch=1 n=a3 v=0
11600 On ch=1 n=c5 v=0
11620 On ch=1 n=e5 v=0
11620 On ch=1 n=a5 v=0
11640 On ch=1 n=a#5 v=46
11740 On ch=1 n=a#5 v=0
11760 On ch=1 n=b5 v=53
11860 On ch=1 n=b5 v=0
11880 On ch=1 n=c6 v=56
11968 Par ch=1 c=64 v=0
11980 On ch=1 n=c6 v=0
12000 On ch=1 n=c#6 v=52
12004 On ch=1 n=e5 v=40
12004 On ch=1 n=a5 v=42
12008 On ch=1 n=c5 v=53
12008 On ch=1 n=e4 v=36
12012 On ch=1 n=a4 v=51
12072 On ch=1 n=e5 v=0
12076 On ch=1 n=a4 v=0
12076 On ch=1 n=a5 v=0
12100 On ch=1 n=c5 v=0
12100 On ch=1 n=c#6 v=0
12112 On ch=1 n=e4 v=0
12120 On ch=1 n=d6 v=52
12220 On ch=1 n=d6 v=0
12240 On ch=1 n=d#6 v=48
12340 On ch=1 n=d#6 v=0
12360 On ch=1 n=e6 v=52
12460 On ch=1 n=e6 v=0
12464 Par ch=1 c=64 v=127
12476 On ch=1 n=a5 v=40
12476 On ch=1 n=a3 v=49
12480 On ch=1 n=f6 v=53
12480 On ch=1 n=d6 v=35
12540 On ch=1 n=a5 v=0
12548 On ch=1 n=d6 v=0
12560 On ch=1 n=a3 v=0
12580 On ch=1 n=f6 v=0
12600 On ch=1 n=f#6 v=48
12700 On ch=1 n=f#6 v=0
12720 On ch=1 n=g6 v=50
12820 On ch=1 n=g6 v=0
12840 On ch=1 n=g#6 v=50
12916 Par ch=1 c=64 v=0
12940 On ch=1 n=g#6 v=0
12956 On ch=1 n=d6 v=37
12956 On ch=1 n=f6 v=38
12956 On ch=1 n=d5 v=50
12956 On ch=1 n=f4 v=39
12956 On ch=1 n=a4 v=50
12960 On ch=1 n=a6 v=51
13028 On ch=1 n=d6 v=0
13032 On ch=1 n=a4 v=0
13032 On ch=1 n=f6 v=0
13052 On ch=1 n=d5 v=0
13060 On ch=1 n=a6 v=0
13060 On ch=1 n=f4 v=0
13080 On ch=1 n=a#6 v=50
13180 On ch=1 n=a#6 v=0
13200 On ch=1 n=b6 v=56
13300 On ch=1 n=b6 v=0
13320 On ch=1 n=c7 v=52
13412 Par ch=1 c=64 v=127
13420 On ch=1 n=c7 v=0
13436 On ch=1 n=a6 v=44
13436 On ch=1 n=e6 v=30
13436 On ch=1 n=a2 v=56
13436 On ch=1 n=a3 v=46
13440 On ch=1 n=c#7 v=59
13504 On ch=1 n=a2 v=0
13508 On ch=1 n=e6 v=0
13524 On ch=1 n=a3 v=0
13528 On ch=1 n=a6 v=0
13540 On ch=1 n=c#7 v=0
13560 On ch=1 n=d7 v=51
13660 On ch=1 n=d7 v=0
13680 On ch=1 n=d#7 v=58
13780 On ch=1 n=d#7 v=0
13800 On ch=1 n=e7 v=56
13900 On ch=1 n=e7 v=0
13912 On ch=1 n=c7 v=40
13912 On ch=1 n=e4 v=41
13912 On ch=1 n=c5 v=53
13912 On ch=1 n=a4 v=53
13916 On ch=1 n=a6 v=41
13920 On ch=1 n=f7 v=57
14012 On ch=1 n=a6 v=0
14016 On ch=1 n=c7 v=0
14020 On ch=1 n=f7 v=0
14020 On ch=1 n=a4 v=0
14040 On ch=1 n=e7 v=53
14044 On ch=1 n=c5 v=0
14044 On ch=1 n=e4 v=0
14140 On ch=1 n=e7 v=0
14160 On ch=1 n=d#7 v=50
14260 On ch=1 n=d#7 v=0
14280 On ch=1 n=d7 v=48
14356 Par ch=1 c=64 v=0
14380 On ch=1 n=d7 v=0
14396 On ch=1 n=c5 v=46
14396 On ch=1 n=a4 v=51
14396 On ch=1 n=e5 v=29
14400 On ch=1 n=c#7 v=48
14408 On ch=1 n=a6 v=43
14408 On ch=1 n=e6 v=34
14480 On ch=1 n=e5 v=0
14480 On ch=1 n=a4 v=0
14492 On ch=1 n=a6 v=0
14492 On ch=1 n=c5 v=0
14500 On ch=1 n=e6 v=0
14500 On ch=1 n=c#7 v=0
14520 On ch=1 n=c7 v=47
14620 On ch=1 n=c7 v=0
14640 On ch=1 n=b6 v=45
14740 On ch=1 n=b6 v=0
14760 On ch=1 n=a#6 v=50
14860 On ch=1 n=a#6 v=0
14876 On ch=1 n=e6 v=32
14876 On ch=1 n=c6 v=32
14880 On ch=1 n=a6 v=51
14956 On ch=1 n=c6 v=0
14968 On ch=1 n=e6 v=0
14980 On ch=1 n=a6 v=0
15000 On ch=1 n=g#6 v=55
15100 On ch=1 n=g#6 v=0
15120 On ch=1 n=b6 v=49
15220 On ch=1 n=b6 v=0
15240 On ch=1 n=a6 v=52
15324 Par ch=1 c=64 v=127
15340 On ch=1 n=a6 v=0
15360 On ch=1 n=g6 v=55
15360 On ch=1 n=b3 v=45
15364 On ch=1 n=b5 v=34
15364 On ch=1 n=e6 v=36
15440 On ch=1 n=b3 v=0
15448 On ch=1 n=e6 v=0
15456 On ch=1 n=b5 v=0
15460 On ch=1 n=g6 v=0
15480 On ch=1 n=g#6 v=52
15580 On ch=1 n=g#6 v=0
15600 On ch=1 n=a6 v=48
15700 On ch=1 n=a6 v=0
15720 On ch=1 n=a#6 v=51
15788 Par ch=1 c=64 v=0
15820 On ch=1 n=a#6 v=0
15836 On ch=1 n=e6 v=40
15836 On ch=1 n=g6 v=44
15840 On ch=1 n=b6 v=57
15840 On ch=1 n=g5 v=51
15844 On ch=1 n=e5 v=47
15844 On ch=1 n=b4 v=28
15912 On ch=1 n=e5 v=0
15920 On ch=1 n=g6 v=0
15924 On ch=1 n=b4 v=0
15924 On ch=1 n=e6 v=0
15940 On ch=1 n=g5 v=0
15940 On ch=1 n=b6 v=0
15960 On ch=1 n=c7 v=57
16060 On ch=1 n=c7 v=0
16080 On ch=1 n=b6 v=56
16180 On ch=1 n=b6 v=0
16200 On ch=1 n=a#6 v=59
16296 Par ch=1 c=64 v=127
16300 On ch=1 n=a#6 v=0
16312 On ch=1 n=f#6 v=36
16312 On ch=1 n=d#6 v=40
16316 On ch=1 n=b3 v=46
16320 On ch=1 n=a6 v=55
16384 On ch=1 n=b3 v=0
16384 On ch=1 n=f#6 v=0
16388 On ch=1 n=d#6 v=0
16420 On ch=1 n=a6 v=0
16440 On ch=1 n=g#6 v=58
16540 On ch=1 n=g#6 v=0
16560 On ch=1 n=g6 v=49
16660 On ch=1 n=g6 v=0
16680 On ch=1 n=f#6 v=57
16700 Par ch=1 c=64 v=0
16780 On ch=1 n=f#6 v=0
16796 On ch=1 n=d#6 v=41
16796 On ch=1 n=a5 v=36
16796 On ch=1 n=f#5 v=50
16796 On ch=1 n=b4 v=42
16796 On ch=1 n=b5 v=46
16800 On ch=1 n=f6 v=55
16872 On ch=1 n=d#6 v=0
16880 On ch=1 n=a5 v=0
16896 On ch=1 n=b5 v=0
16896 On ch=1 n=f#5 v=0
16900 On ch=1 n=f6 v=0
16908 On ch=1 n=b4 v=0
16920 On ch=1 n=f#6 v=48
17020 On ch=1 n=f#6 v=0
17040 On ch=1 n=g6 v=54
17140 On ch=1 n=g6 v=0
17160 On ch=1 n=f#6 v=52
17220 Par ch=1 c=64 v=127
17260 On ch=1 n=f#6 v=0
17280 On ch=1 n=e6 v=50
17280 On ch=1 n=b5 v=40
17284 On ch=1 n=g#5 v=40
17284 On ch=1 n=e4 v=46
17284 On ch=1 n=e5 v=56
17372 On ch=1 n=g#5 v=0
17372 On ch=1 n=b5 v=0
17380 On ch=1 n=e6 v=0
17400 On ch=1 n=f6 v=55
17468 On ch=1 n=e5 v=0
17500 On ch=1 n=f6 v=0
17508 On ch=1 n=e4 v=0
17520 On ch=1 n=d#6 v=52
17620 On ch=1 n=d#6 v=0
17640 On ch=1 n=e6 v=46
17672 Par ch=1 c=64 v=0
17740 On ch=1 n=e6 v=0
17752 On ch=1 n=a5 v=40
17756 On ch=1 n=f5 v=35
17756 On ch=1 n=e3 v=55
17756 On ch=1 n=e4 v=58
17760 On ch=1 n=d6 v=44
17840 On ch=1 n=a5 v=0
17860 On ch=1 n=d6 v=0
17864 On ch=1 n=f5 v=0
17880 On ch=1 n=e6 v=43
17980 On ch=1 n=e6 v=0
18000 On ch=1 n=c#6 v=48
18100 On ch=1 n=c#6 v=0
18100 On ch=1 n=e4 v=0
18120 On ch=1 n=e3 v=0
18120 On ch=1 n=d6 v=48
18220 On ch=1 n=d6 v=0
18240 On ch=1 n=c6 v=47
18244 On ch=1 n=a5 v=38
18244 On ch=1 n=e5 v=32
18332 On ch=1 n=a5 v=0
18336 On ch=1 n=e5 v=0
18340 On ch=1 n=c6 v=0
18360 On ch=1 n=d6 v=52
18460 On ch=1 n=d6 v=0
18480 On ch=1 n=b5 v=48
18580 On ch=1 n=b5 v=0
18600 On ch=1 n=c6 v=52
18700 On ch=1 n=c6 v=0
18720 On ch=1 n=b5 v=47
18720 On ch=1 n=e3 v=40
18724 On ch=1 n=g#5 v=40
18724 On ch=1 n=e4 v=40
18728 On ch=1 n=d5 v=35
18740 Par ch=1 c=64 v=127
18812 On ch=1 n=d5 v=0
18816 On ch=1 n=g#5 v=0
18820 On ch=1 n=b5 v=0
18840 On ch=1 n=c6 v=56
18940 On ch=1 n=c6 v=0
18944 On ch=1 n=e4 v=0
18952 Par ch=1 c=64 v=0
18960 On ch=1 n=e3 v=0
18960 On ch=1 n=a#5 v=48
19060 On ch=1 n=a#5 v=0
19080 On ch=1 n=b5 v=48
19180 On ch=1 n=b5 v=0
19196 On ch=1 n=a3 v=49
19200 On ch=1 n=a5 v=53
19204 On ch=1 n=e5 v=41
19204 On ch=1 n=c5 v=31
19228 Par ch=1 c=64 v=127
19268 On ch=1 n=c5 v=0
19276 On ch=1 n=a3 v=0
19284 On ch=1 n=e5 v=0
19300 On ch=1 n=a5 v=0
19320 On ch=1 n=a#5 v=50
19392 Par ch=1 c=64 v=0
19420 On ch=1 n=a#5 v=0
19440 On ch=1 n=b5 v=48
19540 On ch=1 n=b5 v=0
19560 On ch=1 n=c6 v=52
19660 On ch=1 n=c6 v=0
19676 On ch=1 n=e4 v=35
19676 On ch=1 n=c5 v=45
19676 On ch=1 n=a4 v=46
19680 On ch=1 n=c#6 v=50
19680 On ch=1 n=e5 v=35
19684 On ch=1 n=a5 v=38
19744 On ch=1 n=a4 v=0
19748 On ch=1 n=e5 v=0
19764 On ch=1 n=a5 v=0
19780 On ch=1 n=c#6 v=0
19780 On ch=1 n=e4 v=0
19792 On ch=1 n=c5 v=0
19800 On ch=1 n=d6 v=50
19900 On ch=1 n=d6 v=0
19920 On ch=1 n=d#6 v=60
20020 On ch=1 n=d#6 v=0
20040 On ch=1 n=e6 v=48
20140 On ch=1 n=e6 v=0
20152 On ch=1 n=a3 v=49
20152 Par ch=1 c=64 v=127
20160 On ch=1 n=f6 v=52
20160 On ch=1 n=d6 v=40
20164 On ch=1 n=a5 v=42
20224 On ch=1 n=a5 v=0
20236 On ch=1 n=d6 v=0
20240 On ch=1 n=a3 v=0
20260 On ch=1 n=f6 v=0
20280 On ch=1 n=f#6 v=52
20360 Par ch=1 c=64 v=0
20380 On ch=1 n=f#6 v=0
20400 On ch=1 n=g6 v=47
20500 On ch=1 n=g6 v=0
20520 On ch=1 n=g#6 v=57
20620 On ch=1 n=g#6 v=0
20636 On ch=1 n=f6 v=38
20636 On ch=1 n=d6 v=33
20636 On ch=1 n=d5 v=49
20636 On ch=1 n=a4 v=49
20636 On ch=1 n=f4 v=38
20640 On ch=1 n=a6 v=45
20688 On ch=1 n=d6 v=0
20704 On ch=1 n=f6 v=0
20732 On ch=1 n=f4 v=0
20732 On ch=1 n=a4 v=0
20740 On ch=1 n=a6 v=0
20752 On ch=1 n=d5 v=0
20760 On ch=1 n=a#6 v=53
20860 On ch=1 n=a#6 v=0
20880 On ch=1 n=b6 v=55
20980 On ch=1 n=b6 v=0
21000 On ch=1 n=c7 v=49
21100 On ch=1 n=c7 v=0
21112 On ch=1 n=a3 v=50
21112 On ch=1 n=a2 v=50
21116 On ch=1 n=a6 v=39
21116 On ch=1 n=e6 v=32
21120 On ch=1 n=c#7 v=48
21120 Par ch=1 c=64 v=127
21184 On ch=1 n=a2 v=0
21188 On ch=1 n=e6 v=0
21200 On ch=1 n=a6 v=0
21216 On ch=1 n=a3 v=0
21220 On ch=1 n=c#7 v=0
21240 On ch=1 n=d7 v=48
21340 On ch=1 n=d7 v=0
21360 On ch=1 n=d#7 v=52
21460 On ch=1 n=d#7 v=0
21480 On ch=1 n=e7 v=51
21580 On ch=1 n=e7 v=0
21596 On ch=1 n=a6 v=38
21596 On ch=1 n=c7 v=41
21596 On ch=1 n=c5 v=43
21596 On ch=1 n=e4 v=39
21600 On ch=1 n=f7 v=48
21600 On ch=1 n=a4 v=39
21632 Par ch=1 c=64 v=0
21664 On ch=1 n=c7 v=0
21672 On ch=1 n=a6 v=0
21680 On ch=1 n=a4 v=0
21700 On ch=1 n=f7 v=0
21712 On ch=1 n=e4 v=0
21720 On ch=1 n=c5 v=0
21720 On ch=1 n=e7 v=52
21820 On ch=1 n=e7 v=0
21840 On ch=1 n=d#7 v=47
21940 On ch=1 n=d#7 v=0
21960 On ch=1 n=d7 v=48
22060 On ch=1 n=d7 v=0
22072 On ch=1 n=c5 v=43
22072 On ch=1 n=a4 v=45
22076 On ch=1 n=a6 v=38
22076 On ch=1 n=e6 v=30
22076 On ch=1 n=e5 v=36
22080 On ch=1 n=c#7 v=52
22144 On ch=1 n=a6 v=0
22152 On ch=1 n=e6 v=0
22160 On ch=1 n=a4 v=0
22168 On ch=1 n=c5 v=0
22172 On ch=1 n=e5 v=0
22180 On ch=1 n=c#7 v=0
22200 On ch=1 n=c7 v=52
22300 On ch=1 n=c7 v=0
22320 On ch=1 n=b6 v=46
22420 On ch=1 n=b6 v=0
22440 On ch=1 n=a#6 v=52
22540 On ch=1 n=a#6 v=0
22556 On ch=1 n=e6 v=30
22560 On ch=1 n=a6 v=47
22560 On ch=1 n=c6 v=31
22632 On ch=1 n=c6 v=0
22640 On ch=1 n=e6 v=0
22660 On ch=1 n=a6 v=0
22680 On ch=1 n=g#6 v=51
22780 On ch=1 n=g#6 v=0
22800 On ch=1 n=b6 v=47
22900 On ch=1 n=b6 v=0
22920 On ch=1 n=a6 v=52
23020 On ch=1 n=a6 v=0
23036 On ch=1 n=e6 v=39
23036 On ch=1 n=b5 v=27
23040 On ch=1 n=g#6 v=53
23044 On ch=1 n=e3 v=50
23048 Par ch=1 c=64 v=127
23112 On ch=1 n=b5 v=0
23120 On ch=1 n=e6 v=0
23124 On ch=1 n=e3 v=0
23140 On ch=1 n=g#6 v=0
23160 On ch=1 n=g6 v=48
23260 On ch=1 n=g6 v=0
23280 On ch=1 n=f#6 v=45
23348 Par ch=1 c=64 v=0
23380 On ch=1 n=f#6 v=0
23400 On ch=1 n=f6 v=45
23500 On ch=1 n=f6 v=0
23520 On ch=1 n=e6 v=42
23524 On ch=1 n=b5 v=39
23524 On ch=1 n=g#5 v=38
23524 On ch=1 n=e4 v=29
23524 On ch=1 n=b4 v=54
23524 On ch=1 n=d5 v=45
23608 On ch=1 n=g#5 v=0
23620 On ch=1 n=e6 v=0
23624 On ch=1 n=d5 v=0
23628 On ch=1 n=b4 v=0
23628 On ch=1 n=b5 v=0
23636 On ch=1 n=e4 v=0
23640 On ch=1 n=d#6 v=53
23740 On ch=1 n=d#6 v=0
23760 On ch=1 n=f6 v=51
23860 On ch=1 n=f6 v=0
23880 On ch=1 n=e6 v=49
23960 Par ch=1 c=64 v=127
23980 On ch=1 n=e6 v=0
23996 On ch=1 n=a3 v=45
24000 On ch=1 n=d#6 v=50
24004 On ch=1 n=c6 v=39
24004 On ch=1 n=a5 v=32
24076 On ch=1 n=a5 v=0
24076 On ch=1 n=c6 v=0
24088 On ch=1 n=a3 v=0
24100 On ch=1 n=d#6 v=0
24120 On ch=1 n=d6 v=49
24220 On ch=1 n=d6 v=0
24240 On ch=1 n=c#6 v=42
24288 Par ch=1 c=64 v=0
24340 On ch=1 n=c#6 v=0
24360 On ch=1 n=c6 v=43
24460 On ch=1 n=c6 v=0
24472 On ch=1 n=e5 v=34
24472 On ch=1 n=a5 v=40
24472 On ch=1 n=e4 v=36
24476 On ch=1 n=a4 v=50
24476 On ch=1 n=c5 v=31
24480 On ch=1 n=b5 v=45
24556 On ch=1 n=a5 v=0
24564 On ch=1 n=a4 v=0
24568 On ch=1 n=e5 v=0
24580 On ch=1 n=b5 v=0
24584 On ch=1 n=c5 v=0
24584 On ch=1 n=e4 v=0
24600 On ch=1 n=c6 v=46
24700 On ch=1 n=c6 v=0
24720 On ch=1 n=d6 v=49
24820 On ch=1 n=d6 v=0
24840 On ch=1 n=c6 v=49
24940 On ch=1 n=c6 v=0
24952 On ch=1 n=e4 v=44
24952 On ch=1 n=b4 v=60
24956 On ch=1 n=g#5 v=38
24956 On ch=1 n=e5 v=31
24956 Par ch=1 c=64 v=127
24960 On ch=1 n=b5 v=48
25036 On ch=1 n=e5 v=0
25044 On ch=1 n=g#5 v=0
25060 On ch=1 n=b5 v=0
25072 On ch=1 n=b4 v=0
25080 On ch=1 n=c6 v=52
25092 On ch=1 n=e4 v=0
25180 On ch=1 n=c6 v=0
25200 On ch=1 n=b5 v=45
25220 Par ch=1 c=64 v=0
25300 On ch=1 n=b5 v=0
25320 On ch=1 n=c6 v=51
25420 On ch=1 n=c6 v=0
25432 On ch=1 n=b4 v=56
25436 On ch=1 n=d#5 v=33
25436 On ch=1 n=a5 v=44
25436 On ch=1 n=f4 v=57
25440 On ch=1 n=b5 v=43
25512 On ch=1 n=d#5 v=0
25516 On ch=1 n=a5 v=0
25540 On ch=1 n=b5 v=0
25560 On ch=1 n=c6 v=51
25660 On ch=1 n=c6 v=0
25680 On ch=1 n=b5 v=45
25780 On ch=1 n=b5 v=0
25800 On ch=1 n=c6 v=49
25900 On ch=1 n=c6 v=0
25912 On ch=1 n=e4 v=48
25920 On ch=1 n=b5 v=45
25924 On ch=1 n=g#5 v=43
25924 On ch=1 n=e5 v=33
25936 On ch=1 n=f4 v=0
26004 On ch=1 n=e5 v=0
26004 On ch=1 n=g#5 v=0
26012 On ch=1 n=e4 v=0
26020 On ch=1 n=b5 v=0
26024 On ch=1 n=b4 v=0
26040 On ch=1 n=e6 v=52
26140 On ch=1 n=e6 v=0
26160 On ch=1 n=d#6 v=52
26260 On ch=1 n=d#6 v=0
26280 On ch=1 n=d6 v=44
26380 On ch=1 n=d6 v=0
26400 On ch=1 n=c#6 v=46
26404 On ch=1 n=g#5 v=38
26404 On ch=1 n=d5 v=30
26480 On ch=1 n=d5 v=0
26484 On ch=1 n=g#5 v=0
26500 On ch=1 n=c#6 v=0
26520 On ch=1 n=c6 v=48
26620 On ch=1 n=c6 v=0
26640 On ch=1 n=b5 v=47
26740 On ch=1 n=b5 v=0
26760 On ch=1 n=a#5 v=41
26860 On ch=1 n=a#5 v=0
26876 On ch=1 n=a3 v=53
26880 On ch=1 n=a5 v=52
26884 On ch=1 n=e5 v=41
26884 On ch=1 n=c5 v=36
26888 Par ch=1 c=64 v=127
26948 On ch=1 n=c5 v=0
26956 On ch=1 n=e5 v=0
26964 On ch=1 n=a3 v=0
26980 On ch=1 n=a5 v=0
27000 On ch=1 n=a#5 v=50
27100 On ch=1 n=a#5 v=0
27120 On ch=1 n=b5 v=47
27220 On ch=1 n=b5 v=0
27240 On ch=1 n=c6 v=52
27340 On ch=1 n=c6 v=0
27356 Par ch=1 c=64 v=0
27360 On ch=1 n=c#6 v=52
27360 On ch=1 n=e4 v=41
27364 On ch=1 n=c5 v=56
27364 On ch=1 n=a4 v=54
27368 On ch=1 n=a5 v=40
27368 On ch=1 n=e5 v=32
27424 On ch=1 n=e5 v=0
27436 On ch=1 n=a5 v=0
27460 On ch=1 n=a4 v=0
27460 On ch=1 n=c#6 v=0
27472 On ch=1 n=e4 v=0
27476 On ch=1 n=c5 v=0
27480 On ch=1 n=d6 v=45
27580 On ch=1 n=d6 v=0
27600 On ch=1 n=d#6 v=53
27700 On ch=1 n=d#6 v=0
27720 On ch=1 n=e6 v=47
27820 On ch=1 n=e6 v=0
27836 On ch=1 n=a5 v=38
27836 On ch=1 n=d6 v=40
27836 On ch=1 n=a3 v=53
27840 On ch=1 n=f6 v=47
27856 Par ch=1 c=64 v=127
27904 On ch=1 n=a5 v=0
27908 On ch=1 n=d6 v=0
27928 On ch=1 n=a3 v=0
27940 On ch=1 n=f6 v=0
27960 On ch=1 n=f#6 v=50
28060 On ch=1 n=f#6 v=0
28080 On ch=1 n=g6 v=49
28180 On ch=1 n=g6 v=0
28200 On ch=1 n=g#6 v=52
28292 Par ch=1 c=64 v=0
28300 On ch=1 n=g#6 v=0
28312 On ch=1 n=f6 v=39
28312 On ch=1 n=f4 v=49
28312 On ch=1 n=d5 v=50
28312 On ch=1 n=a4 v=59
28316 On ch=1 n=d6 v=34
28320 On ch=1 n=a6 v=45
28380 On ch=1 n=d6 v=0
28396 On ch=1 n=f6 v=0
28404 On ch=1 n=a4 v=0
28420 On ch=1 n=a6 v=0
28420 On ch=1 n=f4 v=0
28432 On ch=1 n=d5 v=0
28440 On ch=1 n=a#6 v=56
28540 On ch=1 n=a#6 v=0
28560 On ch=1 n=b6 v=45
28660 On ch=1 n=b6 v=0
28680 On ch=1 n=c7 v=48
28760 Par ch=1 c=64 v=127
28780 On ch=1 n=c7 v=0
28792 On ch=1 n=e6 v=36
28792 On ch=1 n=a6 v=44
28792 On ch=1 n=a3 v=51
28792 On ch=1 n=a2 v=59
28800 On ch=1 n=c#7 v=48
28868 On ch=1 n=e6 v=0
28888 On ch=1 n=a6 v=0
28900 On ch=1 n=c#7 v=0
28904 On ch=1 n=a2 v=0
28912 On ch=1 n=a3 v=0
28920 On ch=1 n=d7 v=47
29020 On ch=1 n=d7 v=0
29040 On ch=1 n=d#7 v=44
29140 On ch=1 n=d#7 v=0
29160 On ch=1 n=e7 v=51
29260 On ch=1 n=e7 v=0
29272 On ch=1 n=c7 v=39
29276 On ch=1 n=a6 v=43
29276 On ch=1 n=e4 v=38
29276 On ch=1 n=a4 v=55
29276 On ch=1 n=c5 v=55
29280 On ch=1 n=f7 v=51
29348 On ch=1 n=a6 v=0
29352 On ch=1 n=a4 v=0
29360 On ch=1 n=e4 v=0
29364 On ch=1 n=c5 v=0
29368 On ch=1 n=c7 v=0
29380 On ch=1 n=f7 v=0
29400 On ch=1 n=e7 v=46
29500 On ch=1 n=e7 v=0
29520 On ch=1 n=d#7 v=48
29620 On ch=1 n=d#7 v=0
29640 On ch=1 n=d7 v=43
29740 On ch=1 n=d7 v=0
29756 On ch=1 n=e6 v=34
29756 On ch=1 n=e5 v=53
29756 On ch=1 n=c5 v=53
29756 On ch=1 n=a4 v=47
29760 On ch=1 n=c#7 v=46
29760 On ch=1 n=a6 v=43
29832 On ch=1 n=c5 v=0
29836 On ch=1 n=a6 v=0
29840 On ch=1 n=a4 v=0
29844 On ch=1 n=e6 v=0
29852 On ch=1 n=e5 v=0
29856 Par ch=1 c=64 v=0
29860 On ch=1 n=c#7 v=0
29880 On ch=1 n=c7 v=50
29980 On ch=1 n=c7 v=0
30000 On ch=1 n=b6 v=47
30100 On ch=1 n=b6 v=0
30120 On ch=1 n=a#6 v=53
30220 On ch=1 n=a#6 v=0
30240 On ch=1 n=a6 v=51
30240 On ch=1 n=e6 v=36
30244 On ch=1 n=c6 v=36
30316 On ch=1 n=c6 v=0
30332 On ch=1 n=e6 v=0
30340 On ch=1 n=a6 v=0
30360 On ch=1 n=g#6 v=52
30460 On ch=1 n=g#6 v=0
30480 On ch=1 n=b6 v=58
30580 On ch=1 n=b6 v=0
30600 On ch=1 n=a6 v=52
30700 On ch=1 n=a6 v=0
30720 On ch=1 n=a#6 v=55
30724 On ch=1 n=d6 v=31
30724 On ch=1 n=f6 v=37
30724 On ch=1 n=d3 v=57
30724 On ch=1 n=d4 v=47
30736 Par ch=1 c=64 v=127
30804 On ch=1 n=d3 v=0
30808 On ch=1 n=f6 v=0
30812 On ch=1 n=d4 v=0
30812 On ch=1 n=d6 v=0
30820 On ch=1 n=a#6 v=0
30840 On ch=1 n=b6 v=52
30940 On ch=1 n=b6 v=0
30960 On ch=1 n=c7 v=51
31060 On ch=1 n=c7 v=0
31080 On ch=1 n=c#7 v=52
31180 On ch=1 n=c#7 v=0
31188 Par ch=1 c=64 v=0
31200 On ch=1 n=d7 v=49
31204 On ch=1 n=a#6 v=40
31204 On ch=1 n=f6 v=38
31204 On ch=1 n=d4 v=39
31204 On ch=1 n=d5 v=38
31204 On ch=1 n=f4 v=51
31204 On ch=1 n=a#4 v=50
31256 On ch=1 n=f6 v=0
31272 On ch=1 n=a#6 v=0
31284 On ch=1 n=a#4 v=0
31284 On ch=1 n=f4 v=0
31300 On ch=1 n=d7 v=0
31316 On ch=1 n=d4 v=0
31320 On ch=1 n=d5 v=0
31320 On ch=1 n=d#7 v=56
31420 On ch=1 n=d#7 v=0
31440 On ch=1 n=e7 v=53
31540 On ch=1 n=e7 v=0
31560 On ch=1 n=f7 v=51
31644 Par ch=1 c=64 v=127
31660 On ch=1 n=f7 v=0
31676 On ch=1 n=e3 v=55
31676 On ch=1 n=e4 v=47
31680 On ch=1 n=e7 v=47
31684 On ch=1 n=g#6 v=36
31684 On ch=1 n=d7 v=37
31772 On ch=1 n=g#6 v=0
31772 On ch=1 n=e3 v=0
31776 On ch=1 n=d7 v=0
31780 On ch=1 n=e7 v=0
31788 On ch=1 n=e4 v=0
31800 On ch=1 n=f7 v=57
31900 On ch=1 n=f7 v=0
31920 On ch=1 n=f#7 v=58
32020 On ch=1 n=f#7 v=0
32040 On ch=1 n=g7 v=53
32140 On ch=1 n=g7 v=0
32152 On ch=1 n=e4 v=41
32156 On ch=1 n=b4 v=55
32156 On ch=1 n=d5 v=43
32160 On ch=1 n=g#7 v=58
32160 On ch=1 n=d7 v=40
32168 Par ch=1 c=64 v=0
32240 On ch=1 n=d7 v=0
32256 On ch=1 n=b4 v=0
32260 On ch=1 n=g#7 v=0
32260 On ch=1 n=d5 v=0
32280 On ch=1 n=e4 v=0
32280 On ch=1 n=a7 v=50
32380 On ch=1 n=a7 v=0
32400 On ch=1 n=a#7 v=56
32500 On ch=1 n=a#7 v=0
32520 On ch=1 n=b7 v=57
32600 Par ch=1 c=64 v=127
32620 On ch=1 n=b7 v=0
32636 On ch=1 n=f3 v=49
32636 On ch=1 n=f4 v=49
32640 On ch=1 n=a7 v=58
32644 On ch=1 n=f7 v=44
32648 On ch=1 n=c7 v=34
32708 On ch=1 n=c7 v=0
32716 On ch=1 n=f4 v=0
32720 On ch=1 n=f3 v=0
32728 On ch=1 n=f7 v=0
32740 On ch=1 n=a7 v=0
32760 On ch=1 n=g#7 v=58
32860 On ch=1 n=g#7 v=0
32880 On ch=1 n=g7 v=52
32980 On ch=1 n=g7 v=0
33000 On ch=1 n=f#7 v=55
33064 Par ch=1 c=64 v=0
33100 On ch=1 n=f#7 v=0
33116 On ch=1 n=a4 v=40
33116 On ch=1 n=f5 v=41
33120 On ch=1 n=f7 v=45
33120 On ch=1 n=c7 v=40
33120 On ch=1 n=c5 v=51
33124 On ch=1 n=a6 v=34
33200 On ch=1 n=c7 v=0
33200 On ch=1 n=f5 v=0
33212 On ch=1 n=a6 v=0
33212 On ch=1 n=c5 v=0
33220 On ch=1 n=f7 v=0
33224 On ch=1 n=a4 v=0
33240 On ch=1 n=e7 v=52
33340 On ch=1 n=e7 v=0
33360 On ch=1 n=d#7 v=51
33460 On ch=1 n=d#7 v=0
33480 On ch=1 n=d7 v=48
33576 Par ch=1 c=64 v=127
33580 On ch=1 n=d7 v=0
33592 On ch=1 n=c3 v=51
33592 On ch=1 n=c4 v=53
33596 On ch=1 n=a6 v=26
33596 On ch=1 n=e6 v=21
33600 On ch=1 n=c#7 v=52
33672 On ch=1 n=a6 v=0
33676 On ch=1 n=c3 v=0
33684 On ch=1 n=e6 v=0
33688 On ch=1 n=c4 v=0
33700 On ch=1 n=c#7 v=0
33720 On ch=1 n=c7 v=49
33820 On ch=1 n=c7 v=0
33840 On ch=1 n=b6 v=45
33940 On ch=1 n=b6 v=0
33960 On ch=1 n=a#6 v=56
34052 Par ch=1 c=64 v=0
34060 On ch=1 n=a#6 v=0
34072 On ch=1 n=e6 v=34
34072 On ch=1 n=e4 v=35
34072 On ch=1 n=a4 v=52
34076 On ch=1 n=c6 v=32
34076 On ch=1 n=e5 v=45
34080 On ch=1 n=a6 v=53
34148 On ch=1 n=c6 v=0
34156 On ch=1 n=e6 v=0
34180 On ch=1 n=a6 v=0
34184 On ch=1 n=a4 v=0
34200 On ch=1 n=e5 v=0
34200 On ch=1 n=e4 v=0
34200 On ch=1 n=g#6 v=54
34300 On ch=1 n=g#6 v=0
34320 On ch=1 n=g6 v=47
34420 On ch=1 n=g6 v=0
34440 On ch=1 n=f#6 v=52
34540 On ch=1 n=f#6 v=0
34560 On ch=1 n=f6 v=50
34564 On ch=1 n=a#5 v=37
34564 On ch=1 n=d6 v=37
34564 On ch=1 n=d3 v=50
34636 On ch=1 n=d6 v=0
34648 On ch=1 n=d3 v=0
34656 On ch=1 n=a#5 v=0
34660 On ch=1 n=f6 v=0
34680 On ch=1 n=e6 v=47
34780 On ch=1 n=e6 v=0
34800 On ch=1 n=d#6 v=52
34900 On ch=1 n=d#6 v=0
34920 On ch=1 n=d6 v=44
35020 On ch=1 n=d6 v=0
35040 On ch=1 n=c#6 v=56
35044 On ch=1 n=a#5 v=37
35044 On ch=1 n=f5 v=33
35048 On ch=1 n=a#4 v=53
35048 On ch=1 n=d4 v=40
35048 On ch=1 n=f4 v=51
35048 On ch=1 n=d5 v=44
35048 Par ch=1 c=64 v=127
35140 On ch=1 n=c#6 v=0
35148 On ch=1 n=a#5 v=0
35152 On ch=1 n=f5 v=0
35160 On ch=1 n=d6 v=55
35260 On ch=1 n=d6 v=0
35280 On ch=1 n=f6 v=52
35380 On ch=1 n=f6 v=0
35400 On ch=1 n=d6 v=48
35468 Par ch=1 c=64 v=0
35472 On ch=1 n=f4 v=0
35472 On ch=1 n=d4 v=0
35496 On ch=1 n=d5 v=0
35500 On ch=1 n=d6 v=0
35500 On ch=1 n=a#4 v=0
35516 On ch=1 n=a4 v=55
35516 On ch=1 n=c5 v=56
35520 On ch=1 n=b5 v=45
35520 On ch=1 n=e4 v=44
35524 On ch=1 n=a5 v=40
35524 On ch=1 n=e5 v=29
35600 On ch=1 n=a5 v=0
35620 On ch=1 n=b5 v=0
35640 On ch=1 n=c6 v=45
35740 On ch=1 n=c6 v=0
35760 On ch=1 n=e6 v=47
35860 On ch=1 n=e6 v=0
35860 On ch=1 n=a4 v=0
35868 On ch=1 n=e5 v=0
35868 On ch=1 n=c5 v=0
35876 On ch=1 n=e4 v=0
35880 On ch=1 n=c6 v=48
35980 On ch=1 n=c6 v=0
35996 On ch=1 n=g#5 v=34
35996 On ch=1 n=e4 v=50
36000 On ch=1 n=a#5 v=48
36004 On ch=1 n=d5 v=24
36028 Par ch=1 c=64 v=127
36100 On ch=1 n=a#5 v=0
36104 On ch=1 n=g#5 v=0
36108 On ch=1 n=d5 v=0
36120 On ch=1 n=b5 v=46
36220 On ch=1 n=b5 v=0
36240 On ch=1 n=e6 v=48
36340 On ch=1 n=e6 v=0
36352 On ch=1 n=e4 v=0
36360 On ch=1 n=b5 v=50
36460 On ch=1 n=b5 v=0
36472 On ch=1 n=a4 v=56
36476 On ch=1 n=a3 v=52
36480 On ch=1 n=a5 v=44
36488 On ch=1 n=e5 v=39
36488 On ch=1 n=c5 v=27
36520 Par ch=1 c=64 v=0
36560 On ch=1 n=e5 v=0
36564 On ch=1 n=c5 v=0
36580 On ch=1 n=a5 v=0
36600 On ch=1 n=a#5 v=47
36700 On ch=1 n=a#5 v=0
36720 On ch=1 n=b5 v=45
36820 On ch=1 n=b5 v=0
36840 On ch=1 n=a3 v=0
36840 On ch=1 n=c6 v=51
36864 On ch=1 n=a4 v=0
36940 On ch=1 n=c6 v=0
36960 On ch=1 n=c#6 v=53
36964 On ch=1 n=g#5 v=39
36964 On ch=1 n=e5 v=24
36964 On ch=1 n=e4 v=51
36964 On ch=1 n=e3 v=52
36968 Par ch=1 c=64 v=127
37032 On ch=1 n=e5 v=0
37060 On ch=1 n=g#5 v=0
37060 On ch=1 n=c#6 v=0
37080 On ch=1 n=d6 v=46
37180 On ch=1 n=d6 v=0
37200 On ch=1 n=d#6 v=53
37268 On ch=1 n=e3 v=0
37268 On ch=1 n=e4 v=0
37300 On ch=1 n=d#6 v=0
37312 Par ch=1 c=64 v=0
37320 On ch=1 n=e6 v=45
37420 On ch=1 n=e6 v=0
37436 On ch=1 n=a3 v=55
37436 On ch=1 n=a2 v=53
37440 On ch=1 n=a6 v=53
37444 On ch=1 n=c6 v=36
37444 On ch=1 n=a5 v=32
37452 Par ch=1 c=64 v=127
37508 On ch=1 n=a5 v=0
37516 On ch=1 n=c6 v=0
37540 On ch=1 n=a6 v=0
37560 On ch=1 n=g#6 v=52
37660 On ch=1 n=g#6 v=0
37680 On ch=1 n=g6 v=45
37764 On ch=1 n=a2 v=0
37768 On ch=1 n=a3 v=0
37780 On ch=1 n=g6 v=0
37800 On ch=1 n=f#6 v=50
37900 On ch=1 n=f#6 v=0
37920 On ch=1 n=f6 v=51
38020 On ch=1 n=f6 v=0
38028 Par ch=1 c=64 v=0
38040 On ch=1 n=e6 v=47
38140 On ch=1 n=e6 v=0
38160 On ch=1 n=d#6 v=48
38260 On ch=1 n=d#6 v=0
38280 On ch=1 n=d6 v=48
38380 On ch=1 n=d6 v=0
38396 On ch=1 n=c4 v=53
38396 On ch=1 n=c3 v=55
38400 On ch=1 n=c#6 v=50
38404 On ch=1 n=a#5 v=38
38404 On ch=1 n=e5 v=36
38480 On ch=1 n=c3 v=0
38488 On ch=1 n=c4 v=0
38500 On ch=1 n=a#5 v=0
38500 On ch=1 n=c#6 v=0
38504 On ch=1 n=e5 v=0
38520 On ch=1 n=c6 v=49
38620 On ch=1 n=c6 v=0
38640 On ch=1 n=b5 v=47
38740 On ch=1 n=b5 v=0
38760 On ch=1 n=c6 v=53
38860 On ch=1 n=c6 v=0
38872 On ch=1 n=a#5 v=36
38876 On ch=1 n=e5 v=34
38880 On ch=1 n=c#6 v=53
38884 On ch=1 n=g4 v=51
38884 On ch=1 n=c4 v=44
38884 On ch=1 n=c5 v=44
38980 On ch=1 n=c#6 v=0
38984 On ch=1 n=g4 v=0
38984 On ch=1 n=e5 v=0
38988 On ch=1 n=c4 v=0
38992 On ch=1 n=a#5 v=0
38996 On ch=1 n=c5 v=0
39000 On ch=1 n=d6 v=45
39100 On ch=1 n=d6 v=0
39120 On ch=1 n=d#6 v=50
39220 On ch=1 n=d#6 v=0
39240 On ch=1 n=e6 v=44
39340 On ch=1 n=e6 v=0
39352 On ch=1 n=f3 v=55
39356 On ch=1 n=a5 v=38
39360 On ch=1 n=f6 v=45
39436 On ch=1 n=f3 v=0
39448 On ch=1 n=a5 v=0
39460 On ch=1 n=f6 v=0
39480 On ch=1 n=f#6 v=54
39580 On ch=1 n=f#6 v=0
39600 On ch=1 n=g6 v=45
39700 On ch=1 n=g6 v=0
39720 On ch=1 n=g#6 v=52
39820 On ch=1 n=g#6 v=0
39832 On ch=1 n=c6 v=40
39836 On ch=1 n=a4 v=50
39836 On ch=1 n=c4 v=37
39840 On ch=1 n=a6 v=55
39844 On ch=1 n=c5 v=42
39916 On ch=1 n=c6 v=0
39928 On ch=1 n=c5 v=0
39936 On ch=1 n=a4 v=0
39940 On ch=1 n=a6 v=0
39944 On ch=1 n=c4 v=0
39960 On ch=1 n=e6 v=46
40060 On ch=1 n=e6 v=0
40080 On ch=1 n=f6 v=49
40180 On ch=1 n=f6 v=0
40200 On ch=1 n=d6 v=45
40300 On ch=1 n=d6 v=0
40316 On ch=1 n=a#5 v=43
40316 On ch=1 n=c3 v=47
40320 On ch=1 n=c#6 v=45
40408 On ch=1 n=c3 v=0
40408 On ch=1 n=a#5 v=0
40420 On ch=1 n=c#6 v=0
40440 On ch=1 n=c6 v=45
40540 On ch=1 n=c6 v=0
40560 On ch=1 n=b5 v=45
40660 On ch=1 n=b5 v=0
40680 On ch=1 n=c6 v=45
40780 On ch=1 n=c6 v=0
40796 On ch=1 n=c5 v=40
40796 On ch=1 n=g4 v=53
40796 On ch=1 n=c4 v=39
40800 On ch=1 n=c#6 v=50
40804 On ch=1 n=a#5 v=40
40804 On ch=1 n=e5 v=34
40900 On ch=1 n=e5 v=0
40900 On ch=1 n=c#6 v=0
40900 On ch=1 n=g4 v=0
40904 On ch=1 n=c4 v=0
40912 On ch=1 n=a#5 v=0
40920 On ch=1 n=c5 v=0
40920 On ch=1 n=d6 v=45
41020 On ch=1 n=d6 v=0
41040 On ch=1 n=d#6 v=55
41140 On ch=1 n=d#6 v=0
41160 On ch=1 n=e6 v=48
41260 On ch=1 n=e6 v=0
41276 On ch=1 n=g#5 v=43
41276 On ch=1 n=c#3 v=53
41280 On ch=1 n=f6 v=49
41284 On ch=1 n=f5 v=35
41376 On ch=1 n=c#3 v=0
41380 On ch=1 n=f5 v=0
41380 On ch=1 n=f6 v=0
41384 On ch=1 n=g#5 v=0
41400 On ch=1 n=f#6 v=52
41500 On ch=1 n=f#6 v=0
41520 On ch=1 n=g6 v=45
41620 On ch=1 n=g6 v=0
41640 On ch=1 n=g#6 v=53
41740 On ch=1 n=g#6 v=0
41756 On ch=1 n=b5 v=43
41760 On ch=1 n=g6 v=51
41764 On ch=1 n=g#4 v=54
41764 On ch=1 n=c#4 v=45
41768 On ch=1 n=b4 v=46
41852 On ch=1 n=c#4 v=0
41856 On ch=1 n=g#4 v=0
41856 On ch=1 n=b5 v=0
41860 On ch=1 n=b4 v=0
41860 On ch=1 n=g6 v=0
41880 On ch=1 n=f#6 v=53
41980 On ch=1 n=f#6 v=0
42000 On ch=1 n=f6 v=48
42100 On ch=1 n=f6 v=0
42120 On ch=1 n=e6 v=44
42220 On ch=1 n=e6 v=0
42236 On ch=1 n=c6 v=43
42240 On ch=1 n=d#6 v=50
42240 On ch=1 n=d3 v=55
42252 Par ch=1 c=64 v=127
42312 On ch=1 n=d3 v=0
42320 On ch=1 n=c6 v=0
42340 On ch=1 n=d#6 v=0
42360 On ch=1 n=d6 v=46
42432 Par ch=1 c=64 v=0
42460 On ch=1 n=d6 v=0
42480 On ch=1 n=c#6 v=50
42580 On ch=1 n=c#6 v=0
42600 On ch=1 n=d6 v=46
42700 On ch=1 n=d6 v=0
42716 On ch=1 n=c6 v=41
42716 On ch=1 n=c5 v=51
42720 On ch=1 n=d#6 v=51
42720 On ch=1 n=f#5 v=37
42720 On ch=1 n=a4 v=44
42724 On ch=1 n=d4 v=28
42796 On ch=1 n=a4 v=0
42808 On ch=1 n=d4 v=0
42812 On ch=1 n=c5 v=0
42820 On ch=1 n=d#6 v=0
42820 On ch=1 n=c6 v=0
42824 On ch=1 n=f#5 v=0
42840 On ch=1 n=e6 v=45
42940 On ch=1 n=e6 v=0
42960 On ch=1 n=f6 v=48
43060 On ch=1 n=f6 v=0
43080 On ch=1 n=f#6 v=50
43136 Par ch=1 c=64 v=127
43180 On ch=1 n=f#6 v=0
43196 On ch=1 n=a#5 v=37
43196 On ch=1 n=g3 v=52
43200 On ch=1 n=g6 v=48
43280 On ch=1 n=g3 v=0
43292 On ch=1 n=a#5 v=0
43300 On ch=1 n=g6 v=0
43320 On ch=1 n=g#6 v=52
43368 Par ch=1 c=64 v=0
43420 On ch=1 n=g#6 v=0
43440 On ch=1 n=a6 v=46
43540 On ch=1 n=a6 v=0
43560 On ch=1 n=a#6 v=52
43660 On ch=1 n=a#6 v=0
43676 On ch=1 n=d6 v=37
43676 On ch=1 n=a#4 v=51
43676 On ch=1 n=g4 v=46
43676 On ch=1 n=d4 v=33
43680 On ch=1 n=a6 v=54
43760 On ch=1 n=g4 v=0
43768 On ch=1 n=d6 v=0
43772 On ch=1 n=d4 v=0
43780 On ch=1 n=a6 v=0
43796 On ch=1 n=a#4 v=0
43800 On ch=1 n=f#6 v=51
43900 On ch=1 n=f#6 v=0
43920 On ch=1 n=g6 v=55
44020 On ch=1 n=g6 v=0
44040 On ch=1 n=d#6 v=54
44084 Par ch=1 c=64 v=127
44140 On ch=1 n=d#6 v=0
44156 On ch=1 n=d3 v=57
44160 On ch=1 n=d6 v=49
44164 On ch=1 n=c6 v=36
44236 On ch=1 n=c6 v=0
44240 On ch=1 n=d3 v=0
44260 On ch=1 n=d6 v=0
44280 On ch=1 n=d#6 v=52
44348 Par ch=1 c=64 v=0
44380 On ch=1 n=d#6 v=0
44400 On ch=1 n=c#6 v=52
44500 On ch=1 n=c#6 v=0
44520 On ch=1 n=d6 v=47
44620 On ch=1 n=d6 v=0
44640 On ch=1 n=d#6 v=52
44644 On ch=1 n=c6 v=41
44644 On ch=1 n=f#5 v=34
44644 On ch=1 n=c5 v=47
44644 On ch=1 n=d4 v=39
44644 On ch=1 n=a4 v=45
44716 On ch=1 n=a4 v=0
44720 On ch=1 n=f#5 v=0
44732 On ch=1 n=d4 v=0
44732 On ch=1 n=c5 v=0
44740 On ch=1 n=d#6 v=0
44744 On ch=1 n=c6 v=0
44760 On ch=1 n=e6 v=45
44860 On ch=1 n=e6 v=0
44880 On ch=1 n=f6 v=45
44980 On ch=1 n=f6 v=0
45000 On ch=1 n=f#6 v=49
45068 Par ch=1 c=64 v=127
45100 On ch=1 n=f#6 v=0
45116 On ch=1 n=a#5 v=37
45116 On ch=1 n=g5 v=36
45120 On ch=1 n=g6 v=47
45124 On ch=1 n=d#3 v=55
45196 On ch=1 n=d#3 v=0
45200 On ch=1 n=g5 v=0
45212 On ch=1 n=a#5 v=0
45220 On ch=1 n=g6 v=0
45240 On ch=1 n=g#6 v=49
45340 On ch=1 n=g#6 v=0
45348 Par ch=1 c=64 v=0
45360 On ch=1 n=a6 v=45
45460 On ch=1 n=a6 v=0
45480 On ch=1 n=a#6 v=52
45580 On ch=1 n=a#6 v=0
45592 On ch=1 n=c#5 v=45
45592 On ch=1 n=d#4 v=40
45592 On ch=1 n=a#4 v=51
45596 On ch=1 n=c#6 v=35
45600 On ch=1 n=a6 v=49
45668 On ch=1 n=c#6 v=0
45684 On ch=1 n=a#4 v=0
45688 On ch=1 n=d#4 v=0
45700 On ch=1 n=a6 v=0
45708 On ch=1 n=c#5 v=0
45720 On ch=1 n=g#6 v=53
45820 On ch=1 n=g#6 v=0
45840 On ch=1 n=g6 v=46
45940 On ch=1 n=g6 v=0
45960 On ch=1 n=f#6 v=45
45968 Par ch=1 c=64 v=127
46060 On ch=1 n=f#6 v=0
46076 On ch=1 n=e3 v=53
46080 On ch=1 n=f6 v=49
46084 On ch=1 n=d6 v=41
46140 On ch=1 n=e3 v=0
46156 On ch=1 n=d6 v=0
46180 On ch=1 n=f6 v=0
46200 On ch=1 n=e6 v=46
46300 On ch=1 n=e6 v=0
46320 On ch=1 n=d#6 v=46
46420 On ch=1 n=d#6 v=0
46440 On ch=1 n=e6 v=48
46484 Par ch=1 c=64 v=0
46540 On ch=1 n=e6 v=0
46556 On ch=1 n=e4 v=39
46556 On ch=1 n=d5 v=56
46560 On ch=1 n=f6 v=48
46560 On ch=1 n=b4 v=51
46564 On ch=1 n=d6 v=40
46564 On ch=1 n=g#5 v=32
46632 On ch=1 n=b4 v=0
46656 On ch=1 n=g#5 v=0
46656 On ch=1 n=e4 v=0
46660 On ch=1 n=d6 v=0
46660 On ch=1 n=f6 v=0
46664 On ch=1 n=d5 v=0
46680 On ch=1 n=f#6 v=52
46780 On ch=1 n=f#6 v=0
46800 On ch=1 n=g6 v=45
46900 On ch=1 n=g6 v=0
46920 On ch=1 n=g#6 v=47
46980 Par ch=1 c=64 v=127
47020 On ch=1 n=g#6 v=0
47036 On ch=1 n=c6 v=40
47036 On ch=1 n=a3 v=46
47040 On ch=1 n=a6 v=45
47116 On ch=1 n=a3 v=0
47120 On ch=1 n=c6 v=0
47140 On ch=1 n=a6 v=0
47160 On ch=1 n=a#6 v=52
47260 On ch=1 n=a#6 v=0
47280 On ch=1 n=b6 v=51
47380 On ch=1 n=b6 v=0
47400 On ch=1 n=c7 v=51
47472 Par ch=1 c=64 v=0
47500 On ch=1 n=c7 v=0
47512 On ch=1 n=c5 v=49
47512 On ch=1 n=e4 v=31
47512 On ch=1 n=e5 v=45
47516 On ch=1 n=a4 v=53
47520 On ch=1 n=b6 v=50
47520 On ch=1 n=e6 v=34
47596 On ch=1 n=a4 v=0
47604 On ch=1 n=e5 v=0
47608 On ch=1 n=c5 v=0
47612 On ch=1 n=e6 v=0
47612 On ch=1 n=e4 v=0
47620 On ch=1 n=b6 v=0
47640 On ch=1 n=a#6 v=48
47740 On ch=1 n=a#6 v=0
47760 On ch=1 n=a6 v=43
47860 On ch=1 n=a6 v=0
47880 On ch=1 n=g#6 v=51
47916 Par ch=1 c=64 v=127
47980 On ch=1 n=g#6 v=0
47996 On ch=1 n=d6 v=40
48000 On ch=1 n=g6 v=53
48004 On ch=1 n=e3 v=51
48064 On ch=1 n=e3 v=0
48084 On ch=1 n=d6 v=0
48100 On ch=1 n=g6 v=0
48120 On ch=1 n=f#6 v=45
48220 On ch=1 n=f#6 v=0
48240 On ch=1 n=f6 v=46
48340 On ch=1 n=f6 v=0
48360 On ch=1 n=e6 v=51
48424 Par ch=1 c=64 v=0
48460 On ch=1 n=e6 v=0
48476 On ch=1 n=e4 v=43
48480 On ch=1 n=f6 v=45
48484 On ch=1 n=d6 v=38
48484 On ch=1 n=g#5 v=34
48484 On ch=1 n=b4 v=55
48484 On ch=1 n=d5 v=48
48560 On ch=1 n=b4 v=0
48564 On ch=1 n=g#5 v=0
48568 On ch=1 n=d5 v=0
48568 On ch=1 n=e4 v=0
48580 On ch=1 n=d6 v=0
48580 On ch=1 n=f6 v=0
48600 On ch=1 n=f#6 v=45
48700 On ch=1 n=f#6 v=0
48720 On ch=1 n=g6 v=55
48820 On ch=1 n=g6 v=0
48840 On ch=1 n=g#6 v=52
48880 Par ch=1 c=64 v=127
48940 On ch=1 n=g#6 v=0
48956 On ch=1 n=a3 v=59
48960 On ch=1 n=a6 v=50
48960 On ch=1 n=a4 v=53
48964 On ch=1 n=c6 v=40
49024 On ch=1 n=c6 v=0
49060 On ch=1 n=a6 v=0
49080 On ch=1 n=a#6 v=50
49180 On ch=1 n=a#6 v=0
49200 On ch=1 n=b6 v=51
49300 On ch=1 n=b6 v=0
49320 On ch=1 n=c7 v=49
49336 On ch=1 n=a4 v=0
49356 Par ch=1 c=64 v=0
49384 Par ch=1 c=64 v=127
49420 On ch=1 n=c7 v=0
49436 On ch=1 n=g4 v=50
49440 On ch=1 n=c#7 v=46
49444 On ch=1 n=e6 v=36
49444 On ch=1 n=a6 v=40
49444 On ch=1 n=g3 v=47
49488 On ch=1 n=a3 v=0
49520 On ch=1 n=e6 v=0
49528 On ch=1 n=a6 v=0
49540 On ch=1 n=c#7 v=0
49560 On ch=1 n=d7 v=52
49660 On ch=1 n=d7 v=0
49680 On ch=1 n=d#7 v=52
49780 On ch=1 n=d#7 v=0
49800 On ch=1 n=e7 v=49
49812 On ch=1 n=g4 v=0
49864 Par ch=1 c=64 v=0
49888 On ch=1 n=g3 v=0
49900 On ch=1 n=e7 v=0
49912 On ch=1 n=f3 v=64
49916 On ch=1 n=f4 v=53
49920 On ch=1 n=f7 v=43
49924 On ch=1 n=a6 v=33
50000 On ch=1 n=a6 v=0
50020 On ch=1 n=f7 v=0
50024 On ch=1 n=f3 v=0
50028 On ch=1 n=f4 v=0
50040 On ch=1 n=e7 v=48
50140 On ch=1 n=e7 v=0
50160 On ch=1 n=d#7 v=54
50260 On ch=1 n=d#7 v=0
50280 On ch=1 n=d7 v=47
50320 Par ch=1 c=64 v=127
50380 On ch=1 n=d7 v=0
50392 On ch=1 n=b4 v=61
50392 On ch=1 n=b3 v=63
50400 On ch=1 n=c#7 v=46
50404 On ch=1 n=a6 v=35
50404 On ch=1 n=f6 v=35
50492 On ch=1 n=f6 v=0
50492 On ch=1 n=a6 v=0
50500 On ch=1 n=c#7 v=0
50520 On ch=1 n=c7 v=45
50620 On ch=1 n=c7 v=0
50640 On ch=1 n=b6 v=49
50740 On ch=1 n=b6 v=0
50760 On ch=1 n=a#6 v=48
50860 On ch=1 n=a#6 v=0
50876 On ch=1 n=f6 v=37
50876 On ch=1 n=d6 v=31
50880 On ch=1 n=a6 v=45
50952 On ch=1 n=f6 v=0
50964 On ch=1 n=d6 v=0
50980 On ch=1 n=a6 v=0
51000 On ch=1 n=g#6 v=52
51100 On ch=1 n=g#6 v=0
51120 On ch=1 n=g6 v=46
51220 On ch=1 n=g6 v=0
51232 Par ch=1 c=64 v=0
51240 On ch=1 n=f#6 v=46
51256 On ch=1 n=b3 v=0
51276 On ch=1 n=b4 v=0
51340 On ch=1 n=f#6 v=0
51348 Par ch=1 c=64 v=127
51356 On ch=1 n=g#5 v=34
51356 On ch=1 n=d6 v=30
51356 On ch=1 n=e5 v=70
51356 On ch=1 n=e4 v=37
51360 On ch=1 n=f6 v=55
51428 On ch=1 n=g#5 v=0
51432 On ch=1 n=e5 v=0
51444 On ch=1 n=e4 v=0
51448 On ch=1 n=d6 v=0
51460 On ch=1 n=f6 v=0
51480 On ch=1 n=e6 v=44
51580 On ch=1 n=e6 v=0
51600 On ch=1 n=d#6 v=40
51616 Par ch=1 c=64 v=0
51700 On ch=1 n=d#6 v=0
51720 On ch=1 n=e6 v=41
51820 On ch=1 n=e6 v=0
51840 On ch=1 n=d#7 v=46
51840 On ch=1 n=g6 v=31
51844 On ch=1 n=d#3 v=62
51844 On ch=1 n=d#4 v=67
51920 On ch=1 n=g6 v=0
51932 On ch=1 n=d#3 v=0
51936 On ch=1 n=d#4 v=0
51940 On ch=1 n=d#7 v=0
51960 On ch=1 n=d7 v=45
52060 On ch=1 n=d7 v=0
52080 On ch=1 n=c#7 v=42
52180 On ch=1 n=c#7 v=0
52200 On ch=1 n=c7 v=39
52300 On ch=1 n=c7 v=0
52308 Par ch=1 c=64 v=127
52316 On ch=1 n=a3 v=60
52316 On ch=1 n=a4 v=56
52320 On ch=1 n=b6 v=43
52324 On ch=1 n=d#6 v=40
52328 On ch=1 n=g6 v=35
52400 On ch=1 n=d#6 v=0
52420 On ch=1 n=b6 v=0
52424 On ch=1 n=g6 v=0
52440 On ch=1 n=a#6 v=45
52540 On ch=1 n=a#6 v=0
52560 On ch=1 n=a6 v=45
52660 On ch=1 n=a6 v=0
52680 On ch=1 n=g#6 v=49
52780 On ch=1 n=g#6 v=0
52796 On ch=1 n=d#6 v=40
52800 On ch=1 n=g6 v=45
52804 On ch=1 n=c6 v=35
52872 On ch=1 n=d#6 v=0
52888 On ch=1 n=c6 v=0
52900 On ch=1 n=g6 v=0
52920 On ch=1 n=f#6 v=45
53020 On ch=1 n=f#6 v=0
53040 On ch=1 n=f6 v=44
53100 On ch=1 n=a3 v=0
53108 Par ch=1 c=64 v=0
53112 On ch=1 n=a4 v=0
53140 On ch=1 n=f6 v=0
53160 On ch=1 n=e6 v=46
53240 Par ch=1 c=64 v=127
53260 On ch=1 n=e6 v=0
53276 On ch=1 n=f#5 v=34
53276 On ch=1 n=c6 v=31
53276 On ch=1 n=d5 v=61
53276 On ch=1 n=d4 v=61
53280 On ch=1 n=d#6 v=51
53344 On ch=1 n=d5 v=0
53348 On ch=1 n=d4 v=0
53360 On ch=1 n=f#5 v=0
53380 On ch=1 n=d#6 v=0
53384 On ch=1 n=c6 v=0
53400 On ch=1 n=d6 v=45
53500 On ch=1 n=d6 v=0
53520 On ch=1 n=c#6 v=45
53620 On ch=1 n=c#6 v=0
53640 On ch=1 n=d6 v=45
53644 Par ch=1 c=64 v=0
53740 On ch=1 n=d6 v=0
53756 On ch=1 n=g3 v=65
53756 On ch=1 n=g4 v=62
53760 On ch=1 n=d7 v=45
53764 On ch=1 n=a#6 v=42
53764 On ch=1 n=g6 v=36
53836 On ch=1 n=g6 v=0
53840 On ch=1 n=a#6 v=0
53860 On ch=1 n=d7 v=0
53868 On ch=1 n=g4 v=0
53872 On ch=1 n=g3 v=0
53880 On ch=1 n=c#7 v=44
53980 On ch=1 n=c#7 v=0
54000 On ch=1 n=c7 v=41
54100 On ch=1 n=c7 v=0
54120 On ch=1 n=b6 v=42
54180 Par ch=1 c=64 v=127
54220 On ch=1 n=b6 v=0
54236 On ch=1 n=c#6 v=37
54236 On ch=1 n=g6 v=41
54236 On ch=1 n=d#5 v=61
54236 On ch=1 n=d#4 v=65
54240 On ch=1 n=a#6 v=51
54304 On ch=1 n=g6 v=0
54328 On ch=1 n=c#6 v=0
54340 On ch=1 n=a#6 v=0
54360 On ch=1 n=a6 v=47
54460 On ch=1 n=a6 v=0
54480 On ch=1 n=g#6 v=53
54580 On ch=1 n=g#6 v=0
54600 On ch=1 n=g6 v=47
54660 Par ch=1 c=64 v=0
54700 On ch=1 n=g6 v=0
54704 On ch=1 n=d#4 v=0
54716 On ch=1 n=d#5 v=0
54716 On ch=1 n=d6 v=33
54716 On ch=1 n=d5 v=63
54716 On ch=1 n=d4 v=52
54720 On ch=1 n=f#6 v=53
54724 On ch=1 n=a5 v=19
54796 On ch=1 n=a5 v=0
54812 On ch=1 n=d6 v=0
54816 On ch=1 n=d5 v=0
54820 On ch=1 n=f#6 v=0
54836 On ch=1 n=d4 v=0
54840 On ch=1 n=g6 v=41
54940 On ch=1 n=g6 v=0
54960 On ch=1 n=g#6 v=52
55060 On ch=1 n=g#6 v=0
55080 On ch=1 n=a6 v=43
55116 Par ch=1 c=64 v=127
55180 On ch=1 n=a6 v=0
55196 On ch=1 n=a4 v=61
55196 On ch=1 n=a3 v=54
55200 On ch=1 n=a#6 v=48
55204 On ch=1 n=c6 v=39
55204 On ch=1 n=f6 v=41
55272 On ch=1 n=c6 v=0
55296 On ch=1 n=f6 v=0
55300 On ch=1 n=a#6 v=0
55320 On ch=1 n=b6 v=44
55420 On ch=1 n=b6 v=0
55440 On ch=1 n=c7 v=49
55540 On ch=1 n=c7 v=0
55560 On ch=1 n=a4 v=0
55560 On ch=1 n=b6 v=51
55644 Par ch=1 c=64 v=0
55660 On ch=1 n=b6 v=0
55672 On ch=1 n=f3 v=58
55676 On ch=1 n=f4 v=51
55680 On ch=1 n=d7 v=45
55684 On ch=1 n=a3 v=0
55688 On ch=1 n=f6 v=36
55688 On ch=1 n=a6 v=42
55764 On ch=1 n=f4 v=0
55772 On ch=1 n=a6 v=0
55776 On ch=1 n=f3 v=0
55780 On ch=1 n=f6 v=0
55780 On ch=1 n=d7 v=0
55800 On ch=1 n=c7 v=48
55900 On ch=1 n=c7 v=0
55920 On ch=1 n=a#6 v=54
56020 On ch=1 n=a#6 v=0
56040 On ch=1 n=a6 v=46
56080 Par ch=1 c=64 v=127
56140 On ch=1 n=a6 v=0
56156 On ch=1 n=c#4 v=62
56156 On ch=1 n=c#5 v=57
56160 On ch=1 n=g#6 v=52
56164 On ch=1 n=b5 v=29
56164 On ch=1 n=f6 v=37
56248 On ch=1 n=f6 v=0
56260 On ch=1 n=g#6 v=0
56272 On ch=1 n=b5 v=0
56280 On ch=1 n=g6 v=44
56380 On ch=1 n=g6 v=0
56400 On ch=1 n=f#6 v=52
56500 On ch=1 n=f#6 v=0
56520 On ch=1 n=f6 v=45
56580 On ch=1 n=c#5 v=0
56596 Par ch=1 c=64 v=0
56620 On ch=1 n=f6 v=0
56628 On ch=1 n=c5 v=50
56628 On ch=1 n=c4 v=55
56640 On ch=1 n=e6 v=45
56644 On ch=1 n=g5 v=31
56644 On ch=1 n=c6 v=39
56684 On ch=1 n=c#4 v=0
56728 On ch=1 n=c4 v=0
56732 On ch=1 n=c6 v=0
56732 On ch=1 n=g5 v=0
56736 On ch=1 n=c5 v=0
56740 On ch=1 n=e6 v=0
56760 On ch=1 n=f6 v=45
56860 On ch=1 n=f6 v=0
56880 On ch=1 n=f#6 v=48
56980 On ch=1 n=f#6 v=0
57000 On ch=1 n=g6 v=48
57044 Par ch=1 c=64 v=127
57100 On ch=1 n=g6 v=0
57116 On ch=1 n=a#5 v=37
57116 On ch=1 n=d#6 v=40
57116 On ch=1 n=g3 v=58
57120 On ch=1 n=g#6 v=51
57120 On ch=1 n=g4 v=51
57216 On ch=1 n=d#6 v=0
57220 On ch=1 n=g#6 v=0
57220 On ch=1 n=a#5 v=0
57240 On ch=1 n=a6 v=47
57340 On ch=1 n=a6 v=0
57360 On ch=1 n=a#6 v=54
57432 On ch=1 n=g4 v=0
57460 On ch=1 n=a#6 v=0
57480 On ch=1 n=a6 v=45
57480 Par ch=1 c=64 v=0
57528 On ch=1 n=g3 v=0
57580 On ch=1 n=a6 v=0
57596 On ch=1 n=d#6 v=33
57596 On ch=1 n=d#4 v=58
57596 On ch=1 n=d#3 v=59
57600 On ch=1 n=c7 v=47
57604 On ch=1 n=d#6 v=37
57604 On ch=1 n=g6 v=39
57660 On ch=1 n=d#3 v=0
57672 On ch=1 n=g6 v=0
57672 On ch=1 n=d#6 v=0
57676 On ch=1 n=d#4 v=0
57684 On ch=1 n=d#6 v=0
57700 On ch=1 n=c7 v=0
57720 On ch=1 n=a#6 v=48
57820 On ch=1 n=a#6 v=0
57840 On ch=1 n=a6 v=45
57940 On ch=1 n=a6 v=0
57960 On ch=1 n=g#6 v=50
58060 On ch=1 n=g#6 v=0
58068 Par ch=1 c=64 v=127
58072 On ch=1 n=d#6 v=41
58076 On ch=1 n=a#5 v=33
58076 On ch=1 n=d#4 v=60
58076 On ch=1 n=d#5 v=64
58080 On ch=1 n=g6 v=47
58144 On ch=1 n=d#6 v=0
58156 On ch=1 n=a#5 v=0
58180 On ch=1 n=g6 v=0
58200 On ch=1 n=f#6 v=52
58300 On ch=1 n=f#6 v=0
58320 On ch=1 n=f6 v=46
58420 On ch=1 n=f6 v=0
58440 On ch=1 n=e6 v=45
58540 On ch=1 n=e6 v=0
58556 On ch=1 n=a#5 v=37
58556 On ch=1 n=g5 v=33
58560 On ch=1 n=d#6 v=45
58644 On ch=1 n=a#5 v=0
58652 On ch=1 n=g5 v=0
58660 On ch=1 n=d#6 v=0
58680 On ch=1 n=d6 v=45
58696 On ch=1 n=d#5 v=0
58748 On ch=1 n=d#4 v=0
58780 On ch=1 n=d6 v=0
58800 On ch=1 n=c#6 v=45
58900 On ch=1 n=c#6 v=0
58920 On ch=1 n=c6 v=42
59012 Par ch=1 c=64 v=0
59020 On ch=1 n=c6 v=0
59036 On ch=1 n=d#4 v=64
59036 On ch=1 n=d#3 v=59
59040 On ch=1 n=a#5 v=50
59044 On ch=1 n=c#5 v=29
59044 On ch=1 n=g5 v=41
59136 On ch=1 n=g5 v=0
59140 On ch=1 n=c#5 v=0
59140 On ch=1 n=a#5 v=0
59160 On ch=1 n=a5 v=43
59260 On ch=1 n=a5 v=0
59280 On ch=1 n=g#5 v=45
59380 On ch=1 n=g#5 v=0
59400 On ch=1 n=g5 v=44
59432 On ch=1 n=d#4 v=0
59476 On ch=1 n=d#3 v=0
59500 On ch=1 n=g5 v=0
59512 On ch=1 n=d4 v=62
59512 On ch=1 n=d3 v=64
59520 On ch=1 n=f#5 v=47
59528 On ch=1 n=d5 v=38
59528 On ch=1 n=a4 v=34
59584 On ch=1 n=d4 v=0
59592 On ch=1 n=a4 v=0
59596 On ch=1 n=d3 v=0
59608 On ch=1 n=d5 v=0
59620 On ch=1 n=f#5 v=0
59640 On ch=1 n=g5 v=47
59740 On ch=1 n=g5 v=0
59760 On ch=1 n=g#5 v=52
59860 On ch=1 n=g#5 v=0
59880 On ch=1 n=a5 v=44
59980 On ch=1 n=a5 v=0
60000 On ch=1 n=a#5 v=48
60000 On ch=1 n=d#3 v=56
60004 On ch=1 n=c#5 v=30
60004 On ch=1 n=g5 v=40
60004 On ch=1 n=a3 v=60
60096 On ch=1 n=c#5 v=0
60100 On ch=1 n=a#5 v=0
60108 On ch=1 n=g5 v=0
60120 On ch=1 n=a5 v=45
60220 On ch=1 n=a5 v=0
60240 On ch=1 n=g#5 v=41
60340 On ch=1 n=g#5 v=0
60360 On ch=1 n=g5 v=47
60460 On ch=1 n=g5 v=0
60476 On ch=1 n=a4 v=38
60476 On ch=1 n=d5 v=41
60476 On ch=1 n=d3 v=63
60476 On ch=1 n=d4 v=54
60480 On ch=1 n=f#5 v=43
60504 On ch=1 n=a3 v=0
60552 On ch=1 n=d#3 v=0
60560 On ch=1 n=d5 v=0
60560 On ch=1 n=a4 v=0
60580 On ch=1 n=f#5 v=0
60600 On ch=1 n=g5 v=45
60640 On ch=1 n=d4 v=0
60640 On ch=1 n=d3 v=0
60700 On ch=1 n=g5 v=0
60720 On ch=1 n=g#5 v=48
60820 On ch=1 n=g#5 v=0
60840 On ch=1 n=a5 v=47
60940 On ch=1 n=a5 v=0
60956 On ch=1 n=a3 v=61
60956 On ch=1 n=d#3 v=53
60960 On ch=1 n=a#5 v=49
60964 On ch=1 n=c#5 v=33
60964 On ch=1 n=g5 v=42
61040 On ch=1 n=c#5 v=0
61056 On ch=1 n=g5 v=0
61060 On ch=1 n=a#5 v=0
61080 On ch=1 n=a5 v=44
61180 On ch=1 n=a5 v=0
61200 On ch=1 n=g#5 v=52
61300 On ch=1 n=g#5 v=0
61320 On ch=1 n=g5 v=47
61420 On ch=1 n=g5 v=0
61440 On ch=1 n=f#5 v=48
61440 On ch=1 n=d3 v=62
61444 On ch=1 n=d4 v=50
61448 On ch=1 n=d5 v=34
61448 On ch=1 n=a4 v=36
61452 On ch=1 n=d#3 v=0
61452 On ch=1 n=a3 v=0
61536 On ch=1 n=a4 v=0
61540 On ch=1 n=f#5 v=0
61548 On ch=1 n=d5 v=0
61560 On ch=1 n=g5 v=44
61592 On ch=1 n=d3 v=0
61608 On ch=1 n=d4 v=0
61660 On ch=1 n=g5 v=0
61680 On ch=1 n=g#5 v=50
61780 On ch=1 n=g#5 v=0
61800 On ch=1 n=a5 v=43
61872 Par ch=1 c=64 v=127
61900 On ch=1 n=a5 v=0
61916 On ch=1 n=b3 v=53
61920 On ch=1 n=c6 v=51
61920 On ch=1 n=f3 v=59
61924 On ch=1 n=d#5 v=40
62020 On ch=1 n=d#5 v=0
62020 On ch=1 n=c6 v=0
62040 On ch=1 n=b5 v=45
62140 On ch=1 n=b5 v=0
62160 On ch=1 n=a#5 v=44
62260 On ch=1 n=a#5 v=0
62280 On ch=1 n=a5 v=46
62328 Par ch=1 c=64 v=0
62380 On ch=1 n=a5 v=0
62392 On ch=1 n=e3 v=63
62396 On ch=1 n=e4 v=53
62400 On ch=1 n=g#5 v=47
62408 On ch=1 n=b3 v=0
62408 On ch=1 n=b4 v=31
62408 On ch=1 n=e5 v=37
62448 On ch=1 n=f3 v=0
62472 On ch=1 n=b4 v=0
62476 On ch=1 n=e5 v=0
62500 On ch=1 n=g#5 v=0
62520 On ch=1 n=a5 v=48
62540 On ch=1 n=e4 v=0
62544 On ch=1 n=e3 v=0
62620 On ch=1 n=a5 v=0
62640 On ch=1 n=a#5 v=47
62740 On ch=1 n=a#5 v=0
62760 On ch=1 n=b5 v=43
62844 Par ch=1 c=64 v=127
62860 On ch=1 n=b5 v=0
62876 On ch=1 n=b3 v=59
62880 On ch=1 n=c6 v=49
62880 On ch=1 n=f3 v=58
62884 On ch=1 n=d5 v=38
62884 On ch=1 n=a5 v=33
62968 On ch=1 n=d5 v=0
62980 On ch=1 n=a5 v=0
62980 On ch=1 n=c6 v=0
63000 On ch=1 n=b5 v=46
63100 On ch=1 n=b5 v=0
63120 On ch=1 n=a#5 v=43
63220 On ch=1 n=a#5 v=0
63240 On ch=1 n=a5 v=44
63308 Par ch=1 c=64 v=0
63340 On ch=1 n=a5 v=0
63356 On ch=1 n=e3 v=65
63360 On ch=1 n=g#5 v=48
63360 On ch=1 n=b4 v=45
63360 On ch=1 n=e5 v=45
63360 On ch=1 n=e4 v=58
63380 On ch=1 n=b3 v=0
63384 On ch=1 n=f3 v=0
63596 On ch=1 n=e5 v=0
63596 On ch=1 n=b4 v=0
63596 On ch=1 n=g#5 v=0
63808 Par ch=1 c=64 v=127
63840 On ch=1 n=e7 v=47
63844 On ch=1 n=g#6 v=33
63844 On ch=1 n=b6 v=39
63940 On ch=1 n=g#6 v=0
63940 On ch=1 n=e7 v=0
63944 On ch=1 n=b6 v=0
63960 On ch=1 n=f7 v=42
64060 On ch=1 n=f7 v=0
64080 On ch=1 n=d7 v=43
64180 On ch=1 n=d7 v=0
64200 On ch=1 n=e7 v=41
64280 Par ch=1 c=64 v=0
64300 On ch=1 n=e7 v=0
64320 On ch=1 n=c7 v=45
64324 On ch=1 n=a6 v=41
64324 On ch=1 n=e6 v=30
64408 On ch=1 n=a6 v=0
64420 On ch=1 n=c7 v=0
64436 On ch=1 n=e6 v=0
64440 On ch=1 n=d7 v=38
64540 On ch=1 n=d7 v=0
64560 On ch=1 n=b6 v=40
64660 On ch=1 n=b6 v=0
64680 On ch=1 n=c7 v=41
64780 On ch=1 n=c7 v=0
64796 On ch=1 n=e6 v=40
64800 On ch=1 n=a6 v=40
64800 On ch=1 n=c6 v=33
64880 On ch=1 n=e6 v=0
64900 On ch=1 n=c6 v=0
64900 On ch=1 n=a6 v=0
64920 On ch=1 n=b6 v=38
65020 On ch=1 n=b6 v=0
65040 On ch=1 n=g6 v=43
65140 On ch=1 n=g6 v=0
65160 On ch=1 n=a6 v=36
65260 On ch=1 n=a6 v=0
65280 On ch=1 n=f6 v=43
65284 On ch=1 n=c6 v=40
65284 On ch=1 n=a5 v=31
65364 On ch=1 n=a5 v=0
65372 On ch=1 n=c6 v=0
65380 On ch=1 n=f6 v=0
65400 On ch=1 n=g6 v=45
65500 On ch=1 n=g6 v=0
65520 On ch=1 n=e6 v=39
65620 On ch=1 n=e6 v=0
65628 Par ch=1 c=64 v=126
65640 On ch=1 n=f6 v=37
65756 On ch=1 n=a6 v=37
65760 On ch=1 n=d7 v=45
65840 On ch=1 n=a6 v=0
65860 On ch=1 n=d7 v=0
65860 On ch=1 n=f6 v=0
65880 On ch=1 n=e7 v=48
65980 On ch=1 n=e7 v=0
66000 On ch=1 n=c7 v=41
66100 On ch=1 n=c7 v=0
66120 On ch=1 n=d7 v=43
66220 On ch=1 n=d7 v=0
66240 On ch=1 n=b6 v=41
66244 Par ch=1 c=64 v=0
66248 On ch=1 n=f6 v=31
66248 On ch=1 n=d6 v=31
66332 On ch=1 n=d6 v=0
66340 On ch=1 n=f6 v=0
66340 On ch=1 n=b6 v=0
66360 On ch=1 n=c7 v=42
66460 On ch=1 n=c7 v=0
66480 On ch=1 n=a6 v=42
66580 On ch=1 n=a6 v=0
66600 On ch=1 n=b6 v=44
66700 On ch=1 n=b6 v=0
66720 On ch=1 n=g#6 v=46
66724 On ch=1 n=d6 v=33
66724 On ch=1 n=b5 v=26
66812 On ch=1 n=d6 v=0
66820 On ch=1 n=g#6 v=0
66828 On ch=1 n=b5 v=0
66840 On ch=1 n=a6 v=43
66940 On ch=1 n=a6 v=0
66960 On ch=1 n=f6 v=44
67060 On ch=1 n=f6 v=0
67080 On ch=1 n=g6 v=41
67180 On ch=1 n=g6 v=0
67196 On ch=1 n=b5 v=33
67200 On ch=1 n=e6 v=37
67200 On ch=1 n=g#5 v=32
67280 On ch=1 n=g#5 v=0
67300 On ch=1 n=e6 v=0
67300 On ch=1 n=b5 v=0
67320 On ch=1 n=f6 v=41
67420 On ch=1 n=f6 v=0
67440 On ch=1 n=d#6 v=45
67540 On ch=1 n=d#6 v=0
67548 Par ch=1 c=64 v=127
67560 On ch=1 n=e6 v=47
67680 On ch=1 n=c7 v=45
67680 On ch=1 n=a6 v=40
67772 On ch=1 n=a6 v=0
67780 On ch=1 n=c7 v=0
67780 On ch=1 n=e6 v=0
67800 On ch=1 n=d7 v=45
67900 On ch=1 n=d7 v=0
67920 On ch=1 n=b6 v=41
68020 On ch=1 n=b6 v=0
68040 On ch=1 n=c7 v=46
68140 On ch=1 n=c7 v=0
68156 On ch=1 n=e6 v=33
68156 On ch=1 n=c6 v=34
68160 On ch=1 n=a6 v=43
68164 Par ch=1 c=64 v=0
68248 On ch=1 n=c6 v=0
68260 On ch=1 n=a6 v=0
68260 On ch=1 n=e6 v=0
68280 On ch=1 n=b6 v=44
68380 On ch=1 n=b6 v=0
68400 On ch=1 n=g6 v=43
68500 On ch=1 n=g6 v=0
68520 On ch=1 n=a6 v=40
68620 On ch=1 n=a6 v=0
68632 On ch=1 n=c6 v=38
68636 On ch=1 n=a5 v=31
68640 On ch=1 n=f6 v=43
68716 On ch=1 n=c6 v=0
68720 On ch=1 n=a5 v=0
68740 On ch=1 n=f6 v=0
68760 On ch=1 n=g6 v=44
68860 On ch=1 n=g6 v=0
68880 On ch=1 n=e6 v=38
68980 On ch=1 n=e6 v=0
69000 On ch=1 n=f6 v=43
69100 On ch=1 n=f6 v=0
69116 On ch=1 n=a5 v=35
69116 On ch=1 n=f5 v=29
69120 On ch=1 n=d6 v=44
69212 On ch=1 n=f5 v=0
69212 On ch=1 n=a5 v=0
69220 On ch=1 n=d6 v=0
69240 On ch=1 n=e6 v=42
69340 On ch=1 n=e6 v=0
69360 On ch=1 n=c6 v=44
69460 On ch=1 n=c6 v=0
69480 On ch=1 n=d6 v=42
69580 On ch=1 n=d6 v=0
69596 On ch=1 n=f5 v=33
69596 On ch=1 n=d5 v=29
69600 On ch=1 n=b5 v=45
69688 On ch=1 n=f5 v=0
69696 On ch=1 n=d5 v=0
69700 On ch=1 n=b5 v=0
69720 On ch=1 n=c6 v=41
69820 On ch=1 n=c6 v=0
69840 On ch=1 n=a5 v=40
69940 On ch=1 n=a5 v=0
69960 On ch=1 n=b5 v=38
70060 On ch=1 n=b5 v=0
70076 On ch=1 n=d5 v=36
70076 On ch=1 n=b4 v=35
70080 On ch=1 n=g#5 v=49
70152 On ch=1 n=b4 v=0
70160 On ch=1 n=d5 v=0
70180 On ch=1 n=g#5 v=0
70200 On ch=1 n=f5 v=45
70300 On ch=1 n=f5 v=0
70320 On ch=1 n=d#5 v=48
70420 On ch=1 n=d#5 v=0
70440 On ch=1 n=e5 v=41
70540 On ch=1 n=e5 v=0
70560 On ch=1 n=f5 v=44
70660 On ch=1 n=f5 v=0
70680 On ch=1 n=f#5 v=46
70780 On ch=1 n=f#5 v=0
70800 On ch=1 n=g5 v=45
70900 On ch=1 n=g5 v=0
70908 On ch=1 n=e4 v=0
70916 On ch=1 n=e3 v=0
70920 On ch=1 n=g#5 v=48
71020 On ch=1 n=g#5 v=0
71040 On ch=1 n=a5 v=45
71044 On ch=1 n=e5 v=39
71044 On ch=1 n=a3 v=52
71048 On ch=1 n=c5 v=36
71100 On ch=1 n=a3 v=0
71112 On ch=1 n=c5 v=0
71116 On ch=1 n=e5 v=0
71140 On ch=1 n=a5 v=0
71160 On ch=1 n=a#5 v=52
71260 On ch=1 n=a#5 v=0
71280 On ch=1 n=b5 v=50
71380 On ch=1 n=b5 v=0
71400 On ch=1 n=c6 v=55
71500 On ch=1 n=c6 v=0
71516 On ch=1 n=e4 v=39
71516 On ch=1 n=a4 v=47
71516 On ch=1 n=c5 v=45
71520 On ch=1 n=c#6 v=48
71524 On ch=1 n=a5 v=43
71524 On ch=1 n=e5 v=33
71580 On ch=1 n=e5 v=0
71580 On ch=1 n=a4 v=0
71588 On ch=1 n=c5 v=0
71600 On ch=1 n=a5 v=0
71600 On ch=1 n=e4 v=0
71620 On ch=1 n=c#6 v=0
71640 On ch=1 n=d6 v=46
71740 On ch=1 n=d6 v=0
71760 On ch=1 n=d#6 v=50
71860 On ch=1 n=d#6 v=0
71880 On ch=1 n=e6 v=47
71980 On ch=1 n=e6 v=0
71992 On ch=1 n=a5 v=37
71992 On ch=1 n=a3 v=49
71996 On ch=1 n=d6 v=40
72000 On ch=1 n=f6 v=52
72052 On ch=1 n=a3 v=0
72056 On ch=1 n=a5 v=0
72068 On ch=1 n=d6 v=0
72100 On ch=1 n=f6 v=0
72120 On ch=1 n=f#6 v=49
72220 On ch=1 n=f#6 v=0
72240 On ch=1 n=g6 v=48
72340 On ch=1 n=g6 v=0
72360 On ch=1 n=g#6 v=53
72460 On ch=1 n=g#6 v=0
72476 On ch=1 n=f4 v=40
72476 On ch=1 n=a4 v=55
72476 On ch=1 n=d5 v=45
72480 On ch=1 n=a6 v=40
72480 On ch=1 n=d6 v=36
72480 On ch=1 n=f6 v=38
72548 On ch=1 n=d6 v=0
72552 On ch=1 n=f6 v=0
72556 On ch=1 n=a4 v=0
72560 On ch=1 n=d5 v=0
72568 On ch=1 n=f4 v=0
72580 On ch=1 n=a6 v=0
72600 On ch=1 n=a#6 v=52
72700 On ch=1 n=a#6 v=0
72720 On ch=1 n=b6 v=51
72820 On ch=1 n=b6 v=0
72840 On ch=1 n=c7 v=47
72940 On ch=1 n=c7 v=0
72944 Par ch=1 c=64 v=127
72956 On ch=1 n=e6 v=34
72956 On ch=1 n=a6 v=42
72956 On ch=1 n=a3 v=53
72960 On ch=1 n=c#7 v=46
73024 On ch=1 n=e6 v=0
73040 On ch=1 n=a3 v=0
73044 On ch=1 n=a6 v=0
73060 On ch=1 n=c#7 v=0
73080 On ch=1 n=d7 v=47
73180 On ch=1 n=d7 v=0
73200 On ch=1 n=d#7 v=53
73300 On ch=1 n=d#7 v=0
73320 On ch=1 n=e7 v=53
73420 On ch=1 n=e7 v=0
73432 On ch=1 n=c7 v=37
73432 On ch=1 n=e4 v=39
73432 On ch=1 n=a4 v=53
73432 On ch=1 n=c5 v=51
73432 Par ch=1 c=64 v=0
73436 On ch=1 n=a6 v=40
73440 On ch=1 n=f7 v=51
73508 On ch=1 n=a4 v=0
73512 On ch=1 n=c5 v=0
73512 On ch=1 n=e4 v=0
73516 On ch=1 n=a6 v=0
73524 On ch=1 n=c7 v=0
73540 On ch=1 n=f7 v=0
73560 On ch=1 n=e7 v=45
73660 On ch=1 n=e7 v=0
73680 On ch=1 n=d#7 v=45
73780 On ch=1 n=d#7 v=0
73800 On ch=1 n=d7 v=41
73900 On ch=1 n=d7 v=0
73912 On ch=1 n=a4 v=44
73912 On ch=1 n=c5 v=52
73916 On ch=1 n=e5 v=39
73920 On ch=1 n=c#7 v=46
73924 On ch=1 n=a6 v=45
73924 On ch=1 n=e6 v=33
73972 On ch=1 n=e5 v=0
73976 On ch=1 n=c5 v=0
73980 On ch=1 n=a4 v=0
74000 On ch=1 n=e6 v=0
74004 On ch=1 n=a6 v=0
74020 On ch=1 n=c#7 v=0
74040 On ch=1 n=c7 v=45
74140 On ch=1 n=c7 v=0
74160 On ch=1 n=b6 v=48
74260 On ch=1 n=b6 v=0
74280 On ch=1 n=a#6 v=49
74380 On ch=1 n=a#6 v=0
74396 On ch=1 n=e6 v=38
74400 On ch=1 n=a6 v=47
74404 On ch=1 n=c6 v=38
74460 On ch=1 n=c6 v=0
74468 On ch=1 n=e6 v=0
74500 On ch=1 n=a6 v=0
74520 On ch=1 n=g#6 v=53
74620 On ch=1 n=g#6 v=0
74640 On ch=1 n=b6 v=59
74740 On ch=1 n=b6 v=0
74760 On ch=1 n=a6 v=52
74860 On ch=1 n=a6 v=0
74876 On ch=1 n=b5 v=31
74876 On ch=1 n=e6 v=37
74880 On ch=1 n=g#6 v=48
74884 On ch=1 n=e3 v=51
74956 On ch=1 n=e3 v=0
74956 On ch=1 n=e6 v=0
74960 On ch=1 n=b5 v=0
74980 On ch=1 n=g#6 v=0
75000 On ch=1 n=g6 v=46
75100 On ch=1 n=g6 v=0
75120 On ch=1 n=f#6 v=44
75220 On ch=1 n=f#6 v=0
75240 On ch=1 n=f6 v=41
75340 On ch=1 n=f6 v=0
75360 On ch=1 n=e6 v=47
75364 On ch=1 n=g#5 v=31
75364 On ch=1 n=b5 v=39
75364 On ch=1 n=e4 v=41
75364 On ch=1 n=b4 v=53
75364 On ch=1 n=d5 v=46
75428 On ch=1 n=g#5 v=0
75444 On ch=1 n=b5 v=0
75448 On ch=1 n=d5 v=0
75448 On ch=1 n=b4 v=0
75460 On ch=1 n=e6 v=0
75464 On ch=1 n=e4 v=0
75480 On ch=1 n=d#6 v=49
75580 On ch=1 n=d#6 v=0
75600 On ch=1 n=f6 v=47
75700 On ch=1 n=f6 v=0
75720 On ch=1 n=e6 v=44
75820 On ch=1 n=e6 v=0
75836 On ch=1 n=a3 v=47
75840 On ch=1 n=d#6 v=41
75844 On ch=1 n=c6 v=44
75844 On ch=1 n=a5 v=37
75908 On ch=1 n=a5 v=0
75908 On ch=1 n=c6 v=0
75912 On ch=1 n=a3 v=0
75940 On ch=1 n=d#6 v=0
75960 On ch=1 n=d6 v=43
76060 On ch=1 n=d6 v=0
76080 On ch=1 n=c#6 v=38
76180 On ch=1 n=c#6 v=0
76200 On ch=1 n=c6 v=41
76300 On ch=1 n=c6 v=0
76316 On ch=1 n=e5 v=34
76316 On ch=1 n=a5 v=40
76316 On ch=1 n=c5 v=49
76316 On ch=1 n=e4 v=33
76316 On ch=1 n=a4 v=45
76320 On ch=1 n=b5 v=47
76360 On ch=1 n=a4 v=0
76380 On ch=1 n=e5 v=0
76384 On ch=1 n=e4 v=0
76388 On ch=1 n=c5 v=0
76392 On ch=1 n=a5 v=0
76420 On ch=1 n=b5 v=0
76440 On ch=1 n=c6 v=38
76540 On ch=1 n=c6 v=0
76560 On ch=1 n=d6 v=45
76660 On ch=1 n=d6 v=0
76680 On ch=1 n=c6 v=41
76780 On ch=1 n=c6 v=0
76796 On ch=1 n=e4 v=49
76800 On ch=1 n=b5 v=45
76800 On ch=1 n=g#5 v=38
76804 On ch=1 n=e5 v=31
76804 On ch=1 n=b4 v=49
76864 On ch=1 n=b4 v=0
76864 On ch=1 n=e5 v=0
76876 On ch=1 n=g#5 v=0
76884 On ch=1 n=e4 v=0
76900 On ch=1 n=b5 v=0
76920 On ch=1 n=c6 v=49
77020 On ch=1 n=c6 v=0
77040 On ch=1 n=b5 v=42
77140 On ch=1 n=b5 v=0
77160 On ch=1 n=c6 v=41
77260 On ch=1 n=c6 v=0
77276 On ch=1 n=d#5 v=34
77276 On ch=1 n=a5 v=43
77276 On ch=1 n=b4 v=50
77276 On ch=1 n=f4 v=53
77280 On ch=1 n=b5 v=42
77336 On ch=1 n=d#5 v=0
77352 On ch=1 n=a5 v=0
77380 On ch=1 n=b5 v=0
77400 On ch=1 n=c6 v=45
77500 On ch=1 n=c6 v=0
77520 On ch=1 n=b5 v=40
77620 On ch=1 n=b5 v=0
77640 On ch=1 n=c6 v=46
77740 On ch=1 n=c6 v=0
77756 On ch=1 n=e4 v=49
77760 On ch=1 n=b5 v=45
77760 On ch=1 n=g#5 v=40
77764 On ch=1 n=e5 v=33
77776 On ch=1 n=f4 v=0
77812 On ch=1 n=e5 v=0
77812 On ch=1 n=g#5 v=0
77840 On ch=1 n=e4 v=0
77840 On ch=1 n=b4 v=0
77860 On ch=1 n=b5 v=0
77880 On ch=1 n=e6 v=47
77980 On ch=1 n=e6 v=0
78000 On ch=1 n=d#6 v=50
78100 On ch=1 n=d#6 v=0
78120 On ch=1 n=d6 v=46
78220 On ch=1 n=d6 v=0
78236 On ch=1 n=g#5 v=40
78236 On ch=1 n=d5 v=36
78240 On ch=1 n=c#6 v=47
78300 On ch=1 n=d5 v=0
78300 On ch=1 n=g#5 v=0
78340 On ch=1 n=c#6 v=0
78360 On ch=1 n=c6 v=47
78460 On ch=1 n=c6 v=0
78480 On ch=1 n=b5 v=42
78580 On ch=1 n=b5 v=0
78600 On ch=1 n=a#5 v=48
78688 Par ch=1 c=64 v=127
78700 On ch=1 n=a#5 v=0
78720 On ch=1 n=a5 v=46
78720 On ch=1 n=a3 v=50
78724 On ch=1 n=c5 v=32
78724 On ch=1 n=e5 v=39
78792 On ch=1 n=e5 v=0
78792 On ch=1 n=c5 v=0
78792 On ch=1 n=a3 v=0
78820 On ch=1 n=a5 v=0
78840 On ch=1 n=a#5 v=46
78940 On ch=1 n=a#5 v=0
78960 On ch=1 n=b5 v=41
79060 On ch=1 n=b5 v=0
79080 On ch=1 n=c6 v=41
79180 On ch=1 n=c6 v=0
79188 Par ch=1 c=64 v=0
79196 On ch=1 n=e4 v=39
79196 On ch=1 n=a4 v=50
79196 On ch=1 n=c5 v=47
79200 On ch=1 n=c#6 v=49
79208 On ch=1 n=e5 v=35
79208 On ch=1 n=a5 v=40
79264 On ch=1 n=e5 v=0
79268 On ch=1 n=a5 v=0
79272 On ch=1 n=c5 v=0
79272 On ch=1 n=a4 v=0
79292 On ch=1 n=e4 v=0
79300 On ch=1 n=c#6 v=0
79320 On ch=1 n=d6 v=44
79420 On ch=1 n=d6 v=0
79440 On ch=1 n=d#6 v=49
79540 On ch=1 n=d#6 v=0
79560 On ch=1 n=e6 v=41
79628 Par ch=1 c=64 v=127
79660 On ch=1 n=e6 v=0
79676 On ch=1 n=d6 v=41
79676 On ch=1 n=a5 v=37
79676 On ch=1 n=a3 v=49
79680 On ch=1 n=f6 v=45
79724 On ch=1 n=a5 v=0
79736 On ch=1 n=d6 v=0
79756 On ch=1 n=a3 v=0
79780 On ch=1 n=f6 v=0
79800 On ch=1 n=f#6 v=50
79900 On ch=1 n=f#6 v=0
79920 On ch=1 n=g6 v=44
80020 On ch=1 n=g6 v=0
80040 On ch=1 n=g#6 v=51
80120 Par ch=1 c=64 v=0
80140 On ch=1 n=g#6 v=0
80152 On ch=1 n=f4 v=36
80152 On ch=1 n=a4 v=50
80152 On ch=1 n=d5 v=35
80156 On ch=1 n=d6 v=32
80156 On ch=1 n=f6 v=40
80160 On ch=1 n=a6 v=45
80216 On ch=1 n=d6 v=0
80220 On ch=1 n=f6 v=0
80224 On ch=1 n=a4 v=0
80236 On ch=1 n=d5 v=0
80240 On ch=1 n=f4 v=0
80260 On ch=1 n=a6 v=0
80280 On ch=1 n=a#6 v=50
80380 On ch=1 n=a#6 v=0
80400 On ch=1 n=b6 v=44
80500 On ch=1 n=b6 v=0
80520 On ch=1 n=c7 v=43
80576 Par ch=1 c=64 v=127
80620 On ch=1 n=c7 v=0
80636 On ch=1 n=a3 v=51
80636 On ch=1 n=a2 v=56
80640 On ch=1 n=c#7 v=48
80644 On ch=1 n=a6 v=37
80644 On ch=1 n=e6 v=28
80708 On ch=1 n=e6 v=0
80720 On ch=1 n=a2 v=0
80724 On ch=1 n=a6 v=0
80728 On ch=1 n=a3 v=0
80740 On ch=1 n=c#7 v=0
80760 On ch=1 n=d7 v=45
80860 On ch=1 n=d7 v=0
80880 On ch=1 n=d#7 v=48
80980 On ch=1 n=d#7 v=0
81000 On ch=1 n=e7 v=49
81100 On ch=1 n=e7 v=0
81116 On ch=1 n=a6 v=39
81116 On ch=1 n=c5 v=54
81116 On ch=1 n=e4 v=36
81116 On ch=1 n=a4 v=45
81120 On ch=1 n=f7 v=45
81120 On ch=1 n=c7 v=36
81180 On ch=1 n=c7 v=0
81188 On ch=1 n=a6 v=0
81196 On ch=1 n=a4 v=0
81220 On ch=1 n=f7 v=0
81220 On ch=1 n=e4 v=0
81236 On ch=1 n=c5 v=0
81240 On ch=1 n=e7 v=52
81340 On ch=1 n=e7 v=0
81360 On ch=1 n=d#7 v=45
81460 On ch=1 n=d#7 v=0
81480 On ch=1 n=d7 v=45
81580 On ch=1 n=d7 v=0
81592 Par ch=1 c=64 v=0
81596 On ch=1 n=a6 v=35
81596 On ch=1 n=e6 v=29
81596 On ch=1 n=e5 v=45
81596 On ch=1 n=a4 v=49
81596 On ch=1 n=c5 v=46
81600 On ch=1 n=c#7 v=43
81656 On ch=1 n=a6 v=0
81660 On ch=1 n=c5 v=0
81672 On ch=1 n=a4 v=0
81676 On ch=1 n=e6 v=0
81696 On ch=1 n=e5 v=0
81700 On ch=1 n=c#7 v=0
81720 On ch=1 n=c7 v=49
81820 On ch=1 n=c7 v=0
81840 On ch=1 n=b6 v=45
81940 On ch=1 n=b6 v=0
81960 On ch=1 n=a#6 v=45
82060 On ch=1 n=a#6 v=0
82076 On ch=1 n=e6 v=33
82076 On ch=1 n=c6 v=31
82080 On ch=1 n=a6 v=46
82152 On ch=1 n=c6 v=0
82164 On ch=1 n=e6 v=0
82180 On ch=1 n=a6 v=0
82200 On ch=1 n=g#6 v=48
82300 On ch=1 n=g#6 v=0
82320 On ch=1 n=b6 v=44
82420 On ch=1 n=b6 v=0
82440 On ch=1 n=a6 v=46
82504 Par ch=1 c=64 v=127
82540 On ch=1 n=a6 v=0
82556 On ch=1 n=d3 v=58
82556 On ch=1 n=d4 v=55
82560 On ch=1 n=a#6 v=46
82560 On ch=1 n=f6 v=35
82564 On ch=1 n=d6 v=30
82644 On ch=1 n=d6 v=0
82644 On ch=1 n=f6 v=0
82648 On ch=1 n=d4 v=0
82652 On ch=1 n=d3 v=0
82660 On ch=1 n=a#6 v=0
82680 On ch=1 n=b6 v=47
82780 On ch=1 n=b6 v=0
82800 On ch=1 n=c7 v=48
82900 On ch=1 n=c7 v=0
82920 On ch=1 n=c#7 v=48
83020 On ch=1 n=c#7 v=0
83024 Par ch=1 c=64 v=0
83040 On ch=1 n=d7 v=47
83044 On ch=1 n=a#6 v=39
83044 On ch=1 n=f6 v=33
83044 On ch=1 n=a#4 v=51
83044 On ch=1 n=d4 v=34
83044 On ch=1 n=d5 v=42
83044 On ch=1 n=f4 v=47
83108 On ch=1 n=f4 v=0
83116 On ch=1 n=f6 v=0
83136 On ch=1 n=a#6 v=0
83140 On ch=1 n=d7 v=0
83144 On ch=1 n=d4 v=0
83144 On ch=1 n=a#4 v=0
83148 On ch=1 n=d5 v=0
83160 On ch=1 n=d#7 v=51
83260 On ch=1 n=d#7 v=0
83280 On ch=1 n=e7 v=47
83380 On ch=1 n=e7 v=0
83400 On ch=1 n=f7 v=49
83432 Par ch=1 c=64 v=127
83500 On ch=1 n=f7 v=0
83520 On ch=1 n=e7 v=45
83524 On ch=1 n=g#6 v=33
83524 On ch=1 n=e4 v=46
83524 On ch=1 n=e3 v=55
83528 On ch=1 n=d7 v=36
83580 On ch=1 n=e3 v=0
83596 On ch=1 n=e4 v=0
83596 On ch=1 n=g#6 v=0
83620 On ch=1 n=d7 v=0
83620 On ch=1 n=e7 v=0
83640 On ch=1 n=f7 v=45
83740 On ch=1 n=f7 v=0
83760 On ch=1 n=f#7 v=45
83860 On ch=1 n=f#7 v=0
83880 On ch=1 n=g7 v=49
83952 Par ch=1 c=64 v=0
83980 On ch=1 n=g7 v=0
83996 On ch=1 n=d7 v=37
83996 On ch=1 n=e4 v=36
83996 On ch=1 n=b4 v=49
84000 On ch=1 n=g#7 v=55
84000 On ch=1 n=d5 v=44
84076 On ch=1 n=e4 v=0
84092 On ch=1 n=d5 v=0
84092 On ch=1 n=d7 v=0
84096 On ch=1 n=b4 v=0
84100 On ch=1 n=g#7 v=0
84120 On ch=1 n=a7 v=56
84220 On ch=1 n=a7 v=0
84240 On ch=1 n=a#7 v=52
84340 On ch=1 n=a#7 v=0
84360 On ch=1 n=b7 v=55
84404 Par ch=1 c=64 v=127
84460 On ch=1 n=b7 v=0
84476 On ch=1 n=f4 v=47
84476 On ch=1 n=f3 v=51
84480 On ch=1 n=a7 v=53
84480 On ch=1 n=c7 v=41
84544 On ch=1 n=f4 v=0
84552 On ch=1 n=f3 v=0
84568 On ch=1 n=c7 v=0
84580 On ch=1 n=a7 v=0
84600 On ch=1 n=g#7 v=48
84700 On ch=1 n=g#7 v=0
84720 On ch=1 n=g7 v=51
84820 On ch=1 n=g7 v=0
84840 On ch=1 n=f#7 v=50
84940 On ch=1 n=f#7 v=0
84952 On ch=1 n=c7 v=36
84952 On ch=1 n=a4 v=47
84952 On ch=1 n=f5 v=43
84952 On ch=1 n=c5 v=53
84956 On ch=1 n=a6 v=33
84960 On ch=1 n=f7 v=43
84996 Par ch=1 c=64 v=0
85024 On ch=1 n=a6 v=0
85024 On ch=1 n=c7 v=0
85052 On ch=1 n=c5 v=0
85052 On ch=1 n=f5 v=0
85060 On ch=1 n=f7 v=0
85072 On ch=1 n=a4 v=0
85080 On ch=1 n=e7 v=41
85180 On ch=1 n=e7 v=0
85200 On ch=1 n=d#7 v=45
85300 On ch=1 n=d#7 v=0
85320 On ch=1 n=d7 v=44
85356 Par ch=1 c=64 v=127
85420 On ch=1 n=d7 v=0
85432 On ch=1 n=a6 v=37
85432 On ch=1 n=e6 v=30
85432 On ch=1 n=c3 v=53
85432 On ch=1 n=c4 v=53
85440 On ch=1 n=c#7 v=45
85508 On ch=1 n=a6 v=0
85516 On ch=1 n=c4 v=0
85516 On ch=1 n=c3 v=0
85528 On ch=1 n=e6 v=0
85540 On ch=1 n=c#7 v=0
85560 On ch=1 n=c7 v=43
85660 On ch=1 n=c7 v=0
85680 On ch=1 n=b6 v=45
85780 On ch=1 n=b6 v=0
85800 On ch=1 n=a#6 v=46
85848 Par ch=1 c=64 v=0
85900 On ch=1 n=a#6 v=0
85916 On ch=1 n=e6 v=38
85916 On ch=1 n=e4 v=42
85916 On ch=1 n=a4 v=53
85916 On ch=1 n=e5 v=37
85920 On ch=1 n=a6 v=47
85924 On ch=1 n=c6 v=35
85984 On ch=1 n=e6 v=0
85996 On ch=1 n=c6 v=0
86004 On ch=1 n=a4 v=0
86020 On ch=1 n=a6 v=0
86020 On ch=1 n=e4 v=0
86024 On ch=1 n=e5 v=0
86040 On ch=1 n=g#6 v=50
86140 On ch=1 n=g#6 v=0
86160 On ch=1 n=g6 v=44
86260 On ch=1 n=g6 v=0
86280 On ch=1 n=f#6 v=47
86356 Par ch=1 c=64 v=127
86380 On ch=1 n=f#6 v=0
86396 On ch=1 n=a#5 v=33
86400 On ch=1 n=f6 v=45
86404 On ch=1 n=d6 v=24
86404 On ch=1 n=d4 v=51
86404 On ch=1 n=d3 v=56
86472 On ch=1 n=d3 v=0
86472 On ch=1 n=d4 v=0
86476 On ch=1 n=d6 v=0
86488 On ch=1 n=a#5 v=0
86500 On ch=1 n=f6 v=0
86520 On ch=1 n=e6 v=40
86544 Par ch=1 c=64 v=0
86620 On ch=1 n=e6 v=0
86640 On ch=1 n=d#6 v=48
86740 On ch=1 n=d#6 v=0
86760 On ch=1 n=d6 v=45
86832 Par ch=1 c=64 v=127
86860 On ch=1 n=d6 v=0
86880 On ch=1 n=c#6 v=45
86884 On ch=1 n=a#5 v=33
86884 On ch=1 n=f5 v=30
86884 On ch=1 n=d5 v=45
86884 On ch=1 n=d4 v=40
86884 On ch=1 n=a#4 v=54
86884 On ch=1 n=f4 v=53
86980 On ch=1 n=c#6 v=0
86984 On ch=1 n=a#5 v=0
86992 On ch=1 n=f5 v=0
87000 On ch=1 n=d6 v=45
87100 On ch=1 n=d6 v=0
87120 On ch=1 n=f6 v=40
87220 On ch=1 n=f6 v=0
87236 On ch=1 n=f4 v=0
87240 On ch=1 n=d4 v=0
87240 On ch=1 n=d6 v=43
87248 On ch=1 n=a#4 v=0
87292 Par ch=1 c=64 v=0
87336 On ch=1 n=d5 v=0
87340 On ch=1 n=d6 v=0
87356 On ch=1 n=a5 v=33
87356 On ch=1 n=e4 v=39
87356 On ch=1 n=c5 v=46
87356 On ch=1 n=a4 v=55
87360 On ch=1 n=b5 v=47
87364 On ch=1 n=e5 v=32
87440 On ch=1 n=a5 v=0
87448 On ch=1 n=e5 v=0
87460 On ch=1 n=b5 v=0
87480 On ch=1 n=c6 v=44
87556 On ch=1 n=a4 v=0
87564 On ch=1 n=e4 v=0
87580 On ch=1 n=c6 v=0
87580 On ch=1 n=c5 v=0
87600 On ch=1 n=e6 v=51
87700 On ch=1 n=e6 v=0
87720 On ch=1 n=c6 v=42
87808 Par ch=1 c=64 v=127
87820 On ch=1 n=c6 v=0
87836 On ch=1 n=e4 v=58
87836 On ch=1 n=b4 v=50
87840 On ch=1 n=a#5 v=42
87840 On ch=1 n=g#5 v=36
87844 On ch=1 n=d5 v=28
87916 On ch=1 n=g#5 v=0
87932 On ch=1 n=d5 v=0
87940 On ch=1 n=a#5 v=0
87960 On ch=1 n=b5 v=47
88060 On ch=1 n=b5 v=0
88080 On ch=1 n=e6 v=44
88180 On ch=1 n=e6 v=0
88200 On ch=1 n=b5 v=41
88232 On ch=1 n=b4 v=0
88244 Par ch=1 c=64 v=0
88300 On ch=1 n=b5 v=0
88312 On ch=1 n=a4 v=49
88312 On ch=1 n=a3 v=55
88320 On ch=1 n=a5 v=43
88324 On ch=1 n=c5 v=35
88336 On ch=1 n=e4 v=0
88388 On ch=1 n=a4 v=0
88392 On ch=1 n=a3 v=0
88400 On ch=1 n=c5 v=0
88420 On ch=1 n=a5 v=0
88440 On ch=1 n=a#5 v=50
88540 On ch=1 n=a#5 v=0
88560 On ch=1 n=b5 v=45
88660 On ch=1 n=b5 v=0
88680 On ch=1 n=c6 v=45
88768 Par ch=1 c=64 v=127
88780 On ch=1 n=c6 v=0
88796 On ch=1 n=f4 v=68
88796 On ch=1 n=f3 v=65
88800 On ch=1 n=c#6 v=44
88800 On ch=1 n=d5 v=32
88800 On ch=1 n=a5 v=33
88884 On ch=1 n=d5 v=0
88896 On ch=1 n=a5 v=0
88900 On ch=1 n=c#6 v=0
88920 On ch=1 n=d6 v=42
89020 On ch=1 n=d6 v=0
89040 On ch=1 n=d#6 v=53
89140 On ch=1 n=d#6 v=0
89160 On ch=1 n=e6 v=44
89260 On ch=1 n=e6 v=0
89276 On ch=1 n=a5 v=36
89280 On ch=1 n=f6 v=48
89280 On ch=1 n=d6 v=32
89352 On ch=1 n=a5 v=0
89364 On ch=1 n=d6 v=0
89380 On ch=1 n=f6 v=0
89400 On ch=1 n=f#6 v=50
89500 On ch=1 n=f#6 v=0
89520 On ch=1 n=g6 v=43
89620 On ch=1 n=g6 v=0
89640 On ch=1 n=g#6 v=52
89688 On ch=1 n=f4 v=0
89712 Par ch=1 c=64 v=0
89736 Par ch=1 c=64 v=127
89740 On ch=1 n=g#6 v=0
89756 On ch=1 n=e4 v=62
89760 On ch=1 n=a6 v=47
89760 On ch=1 n=e3 v=63
89768 On ch=1 n=e6 v=36
89768 On ch=1 n=d6 v=32
89796 On ch=1 n=f3 v=0
89840 On ch=1 n=d6 v=0
89844 On ch=1 n=e6 v=0
89860 On ch=1 n=a6 v=0
89880 On ch=1 n=a#6 v=49
89980 On ch=1 n=a#6 v=0
90000 On ch=1 n=b6 v=45
90044 On ch=1 n=e4 v=0
90100 On ch=1 n=b6 v=0
90120 On ch=1 n=c7 v=50
90128 On ch=1 n=e3 v=0
90220 On ch=1 n=c7 v=0
90224 Par ch=1 c=64 v=0
90236 On ch=1 n=e6 v=37
90236 On ch=1 n=c6 v=27
90236 On ch=1 n=a3 v=68
90240 On ch=1 n=a6 v=46
90240 On ch=1 n=a2 v=77
90308 On ch=1 n=c6 v=0
90328 On ch=1 n=e6 v=0
90336 On ch=1 n=a3 v=0
90340 On ch=1 n=a6 v=0
90348 On ch=1 n=a2 v=0
90360 On ch=1 n=a#6 v=53
90460 On ch=1 n=a#6 v=0
90480 On ch=1 n=b6 v=47
90580 On ch=1 n=b6 v=0
90600 On ch=1 n=c7 v=47
90700 On ch=1 n=c7 v=0
90700 Par ch=1 c=64 v=127
90716 On ch=1 n=d6 v=32
90716 On ch=1 n=a6 v=40
90716 On ch=1 n=f3 v=62
90716 On ch=1 n=f2 v=65
90720 On ch=1 n=c#7 v=52
90800 On ch=1 n=d6 v=0
90804 On ch=1 n=a6 v=0
90820 On ch=1 n=c#7 v=0
90840 On ch=1 n=d7 v=47
90940 On ch=1 n=d7 v=0
90960 On ch=1 n=d#7 v=51
91060 On ch=1 n=d#7 v=0
91080 On ch=1 n=e7 v=49
91180 On ch=1 n=e7 v=0
91196 On ch=1 n=a6 v=34
91196 On ch=1 n=d7 v=39
91200 On ch=1 n=f7 v=48
91288 On ch=1 n=a6 v=0
91292 On ch=1 n=d7 v=0
91300 On ch=1 n=f7 v=0
91320 On ch=1 n=f#7 v=48
91420 On ch=1 n=f#7 v=0
91440 On ch=1 n=g7 v=48
91540 On ch=1 n=g7 v=0
91560 On ch=1 n=g#7 v=52
91596 On ch=1 n=f3 v=0
91660 On ch=1 n=g#7 v=0
91660 On ch=1 n=f2 v=0
91672 On ch=1 n=e7 v=43
91672 On ch=1 n=d7 v=39
91676 On ch=1 n=e3 v=67
91676 On ch=1 n=e2 v=69
91680 On ch=1 n=a7 v=46
91680 Par ch=1 c=64 v=0
91704 Par ch=1 c=64 v=127
91760 On ch=1 n=d7 v=0
91780 On ch=1 n=a7 v=0
91784 On ch=1 n=e7 v=0
91800 On ch=1 n=a#7 v=50
91900 On ch=1 n=a#7 v=0
91920 On ch=1 n=b7 v=49
92020 On ch=1 n=b7 v=0
92040 On ch=1 n=c8 v=47
92060 On ch=1 n=e2 v=0
92060 On ch=1 n=e3 v=0
92116 Par ch=1 c=64 v=0
92140 On ch=1 n=c8 v=0
92156 On ch=1 n=c7 v=36
92156 On ch=1 n=a2 v=67
92160 On ch=1 n=a7 v=58
92160 On ch=1 n=e7 v=35
92160 On ch=1 n=a3 v=68
92220 Par ch=1 c=64 v=127
92248 On ch=1 n=e7 v=0
92260 On ch=1 n=a7 v=0
92260 On ch=1 n=c7 v=0
92280 On ch=1 n=g#7 v=55
92380 On ch=1 n=g#7 v=0
92400 On ch=1 n=g7 v=53
92500 On ch=1 n=g7 v=0
92520 On ch=1 n=f#7 v=50
92620 On ch=1 n=f#7 v=0
92640 On ch=1 n=f7 v=58
92644 On ch=1 n=d7 v=36
92644 On ch=1 n=a6 v=36
92720 On ch=1 n=d7 v=0
92736 On ch=1 n=a6 v=0
92740 On ch=1 n=f7 v=0
92760 On ch=1 n=e7 v=53
92860 On ch=1 n=e7 v=0
92880 On ch=1 n=d#7 v=57
92980 On ch=1 n=d#7 v=0
93000 On ch=1 n=d7 v=54
93100 On ch=1 n=d7 v=0
93120 On ch=1 n=c#7 v=55
93124 On ch=1 n=a6 v=43
93124 On ch=1 n=f6 v=38
93212 On ch=1 n=f6 v=0
93220 On ch=1 n=c#7 v=0
93224 On ch=1 n=a6 v=0
93240 On ch=1 n=c7 v=54
93340 On ch=1 n=c7 v=0
93360 On ch=1 n=b6 v=53
93460 On ch=1 n=b6 v=0
93480 On ch=1 n=a#6 v=56
93580 On ch=1 n=a#6 v=0
93596 On ch=1 n=f6 v=34
93600 On ch=1 n=a6 v=49
93604 On ch=1 n=d6 v=36
93688 On ch=1 n=d6 v=0
93692 On ch=1 n=f6 v=0
93700 On ch=1 n=a6 v=0
93720 On ch=1 n=g#6 v=55
93820 On ch=1 n=g#6 v=0
93840 On ch=1 n=g6 v=50
93940 On ch=1 n=g6 v=0
93960 On ch=1 n=f#6 v=54
94008 Par ch=1 c=64 v=0
94060 On ch=1 n=f#6 v=0
94076 Par ch=1 c=64 v=127
94080 On ch=1 n=f6 v=47
94084 On ch=1 n=a5 v=36
94084 On ch=1 n=d6 v=38
94168 On ch=1 n=d6 v=0
94180 On ch=1 n=f6 v=0
94188 On ch=1 n=a5 v=0
94200 On ch=1 n=e6 v=52
94300 On ch=1 n=e6 v=0
94320 On ch=1 n=d#6 v=48
94420 On ch=1 n=d#6 v=0
94440 On ch=1 n=d6 v=47
94540 On ch=1 n=d6 v=0
94556 On ch=1 n=f5 v=34
94560 On ch=1 n=c#6 v=48
94560 On ch=1 n=a5 v=38
94636 On ch=1 n=a5 v=0
94644 On ch=1 n=f5 v=0
94660 On ch=1 n=c#6 v=0
94680 On ch=1 n=c6 v=47
94780 On ch=1 n=c6 v=0
94800 On ch=1 n=b5 v=42
94900 On ch=1 n=b5 v=0
94920 On ch=1 n=a#5 v=45
94976 Par ch=1 c=64 v=0
95020 On ch=1 n=a#5 v=0
95036 On ch=1 n=f5 v=34
95036 On ch=1 n=d5 v=30
95040 On ch=1 n=a5 v=44
95060 Par ch=1 c=64 v=127
95112 On ch=1 n=d5 v=0
95112 On ch=1 n=f5 v=0
95140 On ch=1 n=a5 v=0
95160 On ch=1 n=g#5 v=49
95260 On ch=1 n=g#5 v=0
95280 On ch=1 n=g5 v=43
95380 On ch=1 n=g5 v=0
95400 On ch=1 n=f#5 v=48
95500 On ch=1 n=f#5 v=0
95532 On ch=1 n=d5 v=32
95536 On ch=1 n=a4 v=33
95540 On ch=1 n=f5 v=49
95732 On ch=1 n=e5 v=45
95784 On ch=1 n=f5 v=0
95912 On ch=1 n=d5 v=0
95928 On ch=1 n=d#5 v=46
95940 On ch=1 n=a4 v=0
95968 On ch=1 n=e5 v=0
96152 On ch=1 n=d5 v=43
96176 On ch=1 n=d#5 v=0
96488 On ch=1 n=a4 v=32
96488 On ch=1 n=c#5 v=41
96492 On ch=1 n=e4 v=33
96560 On ch=1 n=d5 v=0
96576 Par ch=1 c=64 v=0
96692 Par ch=1 c=64 v=127
99448 On ch=1 n=a3 v=0
99468 On ch=1 n=a4 v=0
99480 On ch=1 n=e4 v=0
99484 On ch=1 n=a2 v=0
99516 On ch=1 n=c#5 v=0
99808 Par ch=1 c=64 v=0
99808 Meta TrkEnd
TrkEnd
MTrk
0 SeqSpec 43 00 01 00
0 Meta TrkName "in A minor"
0 Meta 0x21 00
0 Meta TrkEnd
TrkEnd
MTrk
0 SeqSpec 43 00 01 00
0 Meta TrkName "Op. 10, No"
