MFile 1 7 480
MTrk
0 TimeSig 12/16 6 8
0 KeySig -4 major
0 Tempo 434783
2760 Tempo 1200000
2880 Tempo 447761
8640 Tempo 451128
12960 Tempo 476190
12968 Tempo 472441
13272 Tempo 508475
13544 Tempo 535714
13752 Tempo 606061
13976 Tempo 681818
14176 Tempo 810811
14280 Tempo 952381
14408 Tempo 545455
14720 Tempo 517241
15024 Tempo 491803
15248 Tempo 458015
15480 Tempo 428571
17280 Tempo 444444
18000 Tempo 458015
18728 Tempo 444444
19448 Tempo 465116
19920 Tempo 491803
20160 Tempo 428571
23528 Tempo 437956
24008 Tempo 447761
24248 Tempo 476190
24488 Tempo 517241
24832 Tempo 545455
25200 Tempo 571429
25440 Tempo 625000
25688 Tempo 714286
25920 KeySig 4 major
25920 Tempo 652174
26168 Tempo 618557
26408 Tempo 571429
26640 Tempo 526316
28432 Tempo 512821
29160 Tempo 495868
29760 Tempo 476190
29992 Tempo 512821
30248 Tempo 528634
30496 Tempo 497925
30728 Tempo 481928
30960 Tempo 495868
31208 Tempo 568720
31440 Tempo 615385
31576 Tempo 693642
31688 Tempo 952381
31788 Tempo 727273
31864 Tempo 638298
32096 Tempo 582524
32304 Tempo 545455
32472 Tempo 530973
32888 Tempo 500000
33488 Tempo 468750
34088 Tempo 493827
34320 Tempo 526316
34560 KeySig -4 major
34568 Tempo 483871
36488 Tempo 504202
36728 Tempo 566038
36968 Tempo 655738
37208 Tempo 789474
37440 Tempo 693642
37568 Tempo 606061
37824 Tempo 526316
38136 Tempo 560748
38408 Tempo 579710
39840 Tempo 697674
40080 Tempo 719423
40208 Tempo 727273
40328 Tempo 597015
41280 Tempo 705882
41520 Tempo 764331
41768 Tempo 638298
42720 Tempo 789474
42960 Tempo 679304
43200 Tempo 609137
43440 Tempo 697674
43680 Tempo 603015
43936 Tempo 638298
44168 Tempo 560748
44400 Tempo 600000
44648 Tempo 574163
44880 Tempo 606061
45136 Tempo 558140
45360 Tempo 576923
45600 Tempo 526316
45840 Tempo 550459
46072 Tempo 502092
46328 Tempo 489796
46800 Tempo 476190
47280 Tempo 459770
47528 Tempo 495868
47768 Tempo 571429
48000 Tempo 542986
48248 Tempo 662983
48480 Tempo 638298
48720 Tempo 731707
48968 Tempo 638298
49176 Tempo 582524
49472 Tempo 545455
49800 Tempo 508475
50680 Tempo 491803
51056 Tempo 526316
51840 Tempo 547945
52568 Tempo 535714
52920 Tempo 526316
53528 Tempo 517241
53872 Tempo 510638
53880 Tempo 512821
54240 Tempo 550459
54488 Tempo 689655
54728 Tempo 666667
54968 Tempo 634921
54976 Tempo 631579
55216 Tempo 591133
55448 Tempo 563380
55456 Tempo 560748
55928 Tempo 524017
56168 Tempo 481928
56880 Tempo 502092
57120 Tempo 603015
57360 Tempo 710059
57608 Tempo 648649
57840 Tempo 621762
58088 Tempo 576923
58320 Tempo 555556
58568 Tempo 535714
59048 Tempo 558140
59528 Tempo 648649
59760 Tempo 585366
60000 Tempo 545455
60240 Tempo 521739
60480 Tempo 491803
61200 Tempo 480000
62408 Tempo 515021
62656 Tempo 489796
62880 Tempo 510638
63128 Tempo 478088
65520 Tempo 508475
66000 Tempo 493827
71288 Tempo 524017
71520 Tempo 576923
71760 Tempo 681818
72016 Tempo 714286
72120 Tempo 628272
72360 Tempo 495868
72720 Tempo 478088
73440 Tempo 476190
73848 Tempo 478088
74256 Tempo 480000
74288 Tempo 491803
74376 Tempo 493827
74464 Tempo 495868
74552 Tempo 497925
74640 Tempo 500000
74728 Tempo 502092
74816 Tempo 504202
74880 Tempo 519481
75016 Tempo 521739
75144 Tempo 524017
75280 Tempo 526316
75408 Tempo 528634
75544 Tempo 530973
75608 Tempo 510638
75752 Tempo 512821
75896 Tempo 515021
76040 Tempo 517241
76184 Tempo 519481
76312 Tempo 524017
76320 Tempo 504202
76416 Tempo 506329
76512 Tempo 508475
76608 Tempo 510638
76704 Tempo 512821
76792 Tempo 515021
76888 Tempo 517241
76984 Tempo 519481
77080 Tempo 521739
77176 Tempo 524017
77264 Tempo 526316
77360 Tempo 528634
77456 Tempo 530973
77552 Tempo 533333
77648 Tempo 535714
77736 Tempo 538117
77744 Tempo 542986
77768 Tempo 588235
78128 Tempo 631579
78488 Tempo 697674
78856 Tempo 722892
79560 Tempo 770119
79568 Tempo 765209
79920 Tempo 800000
80160 Tempo 686134
80408 Tempo 1290323
80536 Tempo 2000000
80640 Tempo 709189
80760 Tempo 657849
80872 Tempo 722892
81008 Tempo 655738
81240 Tempo 594059
81480 Tempo 560748
81720 Tempo 526316
82072 Tempo 508475
83528 Tempo 491803
86400 Tempo 481928
86648 Tempo 472441
86888 Tempo 465116
89288 Tempo 481928
89520 Tempo 497925
89768 Tempo 566038
90008 Tempo 524017
90224 Tempo 574163
90232 Tempo 576923
90472 Tempo 652174
90728 Tempo 634921
90960 Tempo 571429
91200 Tempo 540541
91448 Tempo 521739
92168 Tempo 500000
92400 Tempo 515021
92632 Tempo 530973
92880 Tempo 566038
93128 Tempo 609137
93360 Tempo 745342
93608 Tempo 821918
93720 Tempo 714286
93840 Tempo 714286
93904 Tempo 652174
94088 Tempo 659341
94328 Tempo 710059
94336 Tempo 631579
94560 Tempo 612245
94808 Tempo 552995
95048 Tempo 508475
95280 Tempo 461538
95520 Tempo 433213
96840 Tempo 449438
97208 Tempo 478088
97568 Tempo 526316
97744 Tempo 655738
97928 Tempo 515021
98152 Tempo 500000
98400 Tempo 533333
98640 Tempo 609137
98872 Tempo 576923
99120 Tempo 568720
99360 Tempo 588235
99592 Tempo 571429
99848 Tempo 588235
100080 Tempo 659341
100320 Tempo 750000
100552 Tempo 660535
100800 Tempo 566038
101048 Tempo 481928
101280 Tempo 442804
102240 Tempo 447761
103680 Tempo 459770
104408 Tempo 474308
105120 Tempo 452830
105360 Tempo 474308
105600 Tempo 502092
105848 Tempo 472441
106072 Tempo 512821
106320 Tempo 555556
106560 Tempo 481928
108000 Tempo 489796
108240 Tempo 502092
108488 Tempo 510638
108720 Tempo 524017
108968 Tempo 535714
109216 Tempo 547945
109448 Tempo 579710
109680 Tempo 606061
109936 Tempo 634921
110160 Tempo 677966
111072 Tempo 615385
112328 Tempo 645161
113504 Tempo 689655
113512 Tempo 774194
113864 Tempo 666701
114408 Tempo 960000
114408 Meta TrkEnd
TrkEnd
MTrk
0 SeqSpec 43 00 01 00
0 SysEx f0 41 10 42 12 40 00 7f 00 41 f7
0 SysEx f0 41 10 42 12 40 01 30 03 0c f7
0 Meta TrkEnd
TrkEnd
MTrk
0 SeqSpec 43 00 01 00
0 Meta TrkName "Etude No. 10"
0 Meta 0x21 00
120 Par ch=1 c=0 v=0
128 PrCh ch=1 p=0
132 Par ch=1 c=7 v=127
480 Par ch=1 c=93 v=20
480 Par ch=1 c=91 v=64
480 Par ch=1 c=0 v=0
2760 On ch=1 n=d#5 v=73
2868 Par ch=1 c=64 v=127
2876 On ch=1 n=d#5 v=0
2880 On ch=1 n=g#5 v=77
2880 On ch=1 n=g#3 v=61
2956 On ch=1 n=g#3 v=0
2988 On ch=1 n=g#5 v=0
3000 On ch=1 n=c6 v=76
3000 On ch=1 n=g#6 v=78
3000 On ch=1 n=c5 v=62
3116 On ch=1 n=c5 v=0
3116 On ch=1 n=g#6 v=0
3116 On ch=1 n=c6 v=0
3120 On ch=1 n=a#5 v=77
3120 On ch=1 n=g#4 v=62
3228 On ch=1 n=a#5 v=0
3236 On ch=1 n=g#4 v=0
3240 On ch=1 n=c#6 v=65
3240 On ch=1 n=a#6 v=69
3240 On ch=1 n=d#4 v=58
3356 On ch=1 n=a#6 v=0
3356 On ch=1 n=c#6 v=0
3360 On ch=1 n=b5 v=69
3360 On ch=1 n=d#5 v=62
3468 On ch=1 n=b5 v=0
3476 On ch=1 n=d#5 v=0
3480 On ch=1 n=b6 v=85
3480 On ch=1 n=d6 v=78
3480 On ch=1 n=g#4 v=59
3488 Par ch=1 c=64 v=0
3556 On ch=1 n=g#4 v=0
3596 On ch=1 n=d6 v=0
3596 On ch=1 n=b6 v=0
3600 On ch=1 n=c6 v=71
3600 On ch=1 n=g#3 v=59
3616 Par ch=1 c=64 v=127
3676 On ch=1 n=g#3 v=0
3680 On ch=1 n=d#4 v=0
3708 On ch=1 n=c6 v=0
3720 On ch=1 n=c7 v=80
3720 On ch=1 n=d#6 v=65
3720 On ch=1 n=c5 v=60
3836 On ch=1 n=c5 v=0
3836 On ch=1 n=d#6 v=0
3836 On ch=1 n=c7 v=0
3840 On ch=1 n=c#6 v=58
3840 On ch=1 n=g#4 v=62
3948 On ch=1 n=c#6 v=0
3956 On ch=1 n=g#4 v=0
3960 On ch=1 n=e6 v=78
3960 On ch=1 n=c#7 v=74
3960 On ch=1 n=d#4 v=58
4076 On ch=1 n=c#7 v=0
4076 On ch=1 n=e6 v=0
4080 On ch=1 n=d6 v=62
4080 On ch=1 n=d#5 v=56
4188 On ch=1 n=d6 v=0
4196 On ch=1 n=d#5 v=0
4200 On ch=1 n=d7 v=82
4200 On ch=1 n=f6 v=67
4200 On ch=1 n=g#4 v=57
4220 Par ch=1 c=64 v=0
4276 On ch=1 n=g#4 v=0
4296 Par ch=1 c=64 v=127
4316 On ch=1 n=f6 v=0
4316 On ch=1 n=d7 v=0
4320 On ch=1 n=d#6 v=67
4320 On ch=1 n=g#3 v=60
4372 On ch=1 n=d#4 v=0
4396 On ch=1 n=g#3 v=0
4428 On ch=1 n=d#6 v=0
4440 On ch=1 n=g6 v=74
4440 On ch=1 n=d#7 v=73
4440 On ch=1 n=c#5 v=60
4556 On ch=1 n=c#5 v=0
4556 On ch=1 n=d#7 v=0
4556 On ch=1 n=g6 v=0
4560 On ch=1 n=f6 v=76
4560 On ch=1 n=g4 v=56
4668 On ch=1 n=f6 v=0
4676 On ch=1 n=g4 v=0
4680 On ch=1 n=g#6 v=70
4680 On ch=1 n=f7 v=80
4680 On ch=1 n=d#4 v=60
4796 On ch=1 n=f7 v=0
4796 On ch=1 n=g#6 v=0
4800 On ch=1 n=d#6 v=69
4800 On ch=1 n=d#5 v=55
4908 On ch=1 n=d#6 v=0
4908 Par ch=1 c=64 v=0
4916 On ch=1 n=d#5 v=0
4920 On ch=1 n=g6 v=58
4920 On ch=1 n=d#7 v=71
4920 On ch=1 n=g4 v=55
4996 On ch=1 n=g4 v=0
5032 Par ch=1 c=64 v=127
5036 On ch=1 n=d#7 v=0
5036 On ch=1 n=g6 v=0
5040 On ch=1 n=c6 v=61
5040 On ch=1 n=g#3 v=58
5100 On ch=1 n=d#4 v=0
5116 On ch=1 n=g#3 v=0
5148 On ch=1 n=c6 v=0
5160 On ch=1 n=d#6 v=67
5160 On ch=1 n=c7 v=70
5160 On ch=1 n=c5 v=58
5276 On ch=1 n=c5 v=0
5276 On ch=1 n=c7 v=0
5276 On ch=1 n=d#6 v=0
5280 On ch=1 n=a#5 v=68
5280 On ch=1 n=g#4 v=59
5388 On ch=1 n=a#5 v=0
5396 On ch=1 n=g#4 v=0
5400 On ch=1 n=d6 v=63
5400 On ch=1 n=a#6 v=65
5400 On ch=1 n=d#4 v=60
5516 On ch=1 n=a#6 v=0
5516 On ch=1 n=d6 v=0
5520 On ch=1 n=c6 v=74
5520 On ch=1 n=d#5 v=59
5592 Par ch=1 c=64 v=0
5628 On ch=1 n=c6 v=0
5636 On ch=1 n=d#5 v=0
5640 On ch=1 n=c7 v=80
5640 On ch=1 n=d#6 v=75
5640 On ch=1 n=g#4 v=63
5716 On ch=1 n=g#4 v=0
5748 Par ch=1 c=64 v=127
5756 On ch=1 n=d#6 v=0
5756 On ch=1 n=c7 v=0
5760 On ch=1 n=a#5 v=68
5760 On ch=1 n=g#3 v=69
5824 On ch=1 n=d#4 v=0
5836 On ch=1 n=g#3 v=0
5868 On ch=1 n=a#5 v=0
5880 On ch=1 n=a#6 v=81
5880 On ch=1 n=d6 v=72
5880 On ch=1 n=c#5 v=59
5996 On ch=1 n=c#5 v=0
5996 On ch=1 n=d6 v=0
5996 On ch=1 n=a#6 v=0
6000 On ch=1 n=c6 v=73
6000 On ch=1 n=g4 v=64
6108 On ch=1 n=c6 v=0
6116 On ch=1 n=g4 v=0
6120 On ch=1 n=c7 v=80
6120 On ch=1 n=d#6 v=75
6120 On ch=1 n=d#4 v=58
6236 On ch=1 n=d#6 v=0
6236 On ch=1 n=c7 v=0
6236 Par ch=1 c=64 v=0
6240 On ch=1 n=g5 v=64
6240 On ch=1 n=d#5 v=59
6348 On ch=1 n=g5 v=0
6356 On ch=1 n=d#5 v=0
6360 On ch=1 n=a#5 v=70
6360 On ch=1 n=g6 v=89
6360 On ch=1 n=g4 v=65
6436 On ch=1 n=g4 v=0
6472 Par ch=1 c=64 v=127
6476 On ch=1 n=g6 v=0
6476 On ch=1 n=a#5 v=0
6480 On ch=1 n=g#5 v=74
6480 On ch=1 n=g#3 v=67
6556 On ch=1 n=g#3 v=0
6560 On ch=1 n=d#4 v=0
6588 On ch=1 n=g#5 v=0
6600 On ch=1 n=c6 v=66
6600 On ch=1 n=g#6 v=77
6600 On ch=1 n=c5 v=63
6716 On ch=1 n=c5 v=0
6716 On ch=1 n=g#6 v=0
6716 On ch=1 n=c6 v=0
6720 On ch=1 n=g5 v=64
6720 On ch=1 n=g#4 v=67
6828 On ch=1 n=g5 v=0
6836 On ch=1 n=g#4 v=0
6840 On ch=1 n=a#5 v=60
6840 On ch=1 n=g6 v=69
6840 On ch=1 n=d#4 v=62
6956 On ch=1 n=g6 v=0
6956 On ch=1 n=a#5 v=0
6956 Par ch=1 c=64 v=0
6960 On ch=1 n=g#5 v=68
6960 On ch=1 n=d#5 v=58
7068 On ch=1 n=g#5 v=0
7076 On ch=1 n=d#5 v=0
7080 On ch=1 n=g#6 v=71
7080 On ch=1 n=c6 v=65
7080 On ch=1 n=g#4 v=60
7156 On ch=1 n=g#4 v=0
7196 On ch=1 n=c6 v=0
7196 On ch=1 n=g#6 v=0
7200 On ch=1 n=f5 v=62
7200 On ch=1 n=a#3 v=59
7204 Par ch=1 c=64 v=127
7264 On ch=1 n=d#4 v=0
7276 On ch=1 n=a#3 v=0
7308 On ch=1 n=f5 v=0
7320 On ch=1 n=g#5 v=66
7320 On ch=1 n=f6 v=66
7320 On ch=1 n=d5 v=57
7436 On ch=1 n=d5 v=0
7436 On ch=1 n=f6 v=0
7436 On ch=1 n=g#5 v=0
7440 On ch=1 n=g5 v=64
7440 On ch=1 n=a#4 v=61
7548 On ch=1 n=g5 v=0
7556 On ch=1 n=a#4 v=0
7560 On ch=1 n=g6 v=71
7560 On ch=1 n=a#5 v=63
7560 On ch=1 n=g#4 v=65
7668 Par ch=1 c=64 v=0
7676 On ch=1 n=a#5 v=0
7676 On ch=1 n=g6 v=0
7680 On ch=1 n=f5 v=65
7680 On ch=1 n=d5 v=60
7788 On ch=1 n=f5 v=0
7796 On ch=1 n=d5 v=0
7796 On ch=1 n=g#4 v=0
7800 On ch=1 n=g#5 v=75
7800 On ch=1 n=f6 v=65
7800 On ch=1 n=a#4 v=55
7856 On ch=1 n=a#4 v=0
7892 Par ch=1 c=64 v=127
7916 On ch=1 n=f6 v=0
7916 On ch=1 n=g#5 v=0
7920 On ch=1 n=e5 v=55
7920 On ch=1 n=d#3 v=56
7960 On ch=1 n=d#3 v=0
8028 On ch=1 n=e5 v=0
8040 On ch=1 n=g5 v=62
8040 On ch=1 n=e6 v=68
8040 On ch=1 n=c#5 v=59
8156 On ch=1 n=c#5 v=0
8156 On ch=1 n=e6 v=0
8156 On ch=1 n=g5 v=0
8160 On ch=1 n=d#5 v=62
8160 On ch=1 n=a#4 v=59
8268 On ch=1 n=d#5 v=0
8276 On ch=1 n=a#4 v=0
8280 On ch=1 n=d#6 v=75
8280 On ch=1 n=g5 v=61
8280 On ch=1 n=d#4 v=70
8364 Par ch=1 c=64 v=0
8396 On ch=1 n=d#4 v=0
8396 On ch=1 n=g5 v=0
8396 On ch=1 n=d#6 v=0
8400 On ch=1 n=g5 v=61
8400 On ch=1 n=c#5 v=58
8508 On ch=1 n=g5 v=0
8516 On ch=1 n=c#5 v=0
8520 On ch=1 n=g6 v=72
8520 On ch=1 n=a#5 v=61
8520 On ch=1 n=a#4 v=60
8596 On ch=1 n=a#4 v=0
8616 Par ch=1 c=64 v=127
8636 On ch=1 n=a#5 v=0
8636 On ch=1 n=g6 v=0
8640 On ch=1 n=g#5 v=68
8640 On ch=1 n=g#3 v=70
8716 On ch=1 n=g#3 v=0
8748 On ch=1 n=g#5 v=0
8760 On ch=1 n=g#6 v=79
8760 On ch=1 n=c6 v=69
8760 On ch=1 n=c5 v=64
8876 On ch=1 n=c5 v=0
8876 On ch=1 n=c6 v=0
8876 On ch=1 n=g#6 v=0
8880 On ch=1 n=a#5 v=75
8880 On ch=1 n=g#4 v=68
8988 On ch=1 n=a#5 v=0
8996 On ch=1 n=g#4 v=0
9000 On ch=1 n=c#6 v=67
9000 On ch=1 n=a#6 v=88
9000 On ch=1 n=d#4 v=71
9116 On ch=1 n=a#6 v=0
9116 On ch=1 n=c#6 v=0
9120 On ch=1 n=b5 v=76
9120 On ch=1 n=d#5 v=70
9152 Par ch=1 c=64 v=0
9228 On ch=1 n=b5 v=0
9236 On ch=1 n=d#5 v=0
9240 On ch=1 n=d6 v=70
9240 On ch=1 n=b6 v=79
9240 On ch=1 n=g#4 v=69
9316 On ch=1 n=g#4 v=0
9356 On ch=1 n=b6 v=0
9356 On ch=1 n=d6 v=0
9360 On ch=1 n=c6 v=71
9360 On ch=1 n=g#3 v=72
9384 Par ch=1 c=64 v=127
9436 On ch=1 n=g#3 v=0
9436 On ch=1 n=d#4 v=0
9468 On ch=1 n=c6 v=0
9480 On ch=1 n=d#6 v=64
9480 On ch=1 n=c7 v=81
9480 On ch=1 n=c5 v=71
9596 On ch=1 n=c5 v=0
9596 On ch=1 n=c7 v=0
9596 On ch=1 n=d#6 v=0
9600 On ch=1 n=c#6 v=72
9600 On ch=1 n=g#4 v=71
9708 On ch=1 n=c#6 v=0
9716 On ch=1 n=g#4 v=0
9720 On ch=1 n=c#7 v=81
9720 On ch=1 n=e6 v=69
9720 On ch=1 n=d#4 v=69
9836 On ch=1 n=e6 v=0
9836 On ch=1 n=c#7 v=0
9840 On ch=1 n=d6 v=70
9840 On ch=1 n=d#5 v=69
9932 Par ch=1 c=64 v=0
9948 On ch=1 n=d6 v=0
9956 On ch=1 n=d#5 v=0
9960 On ch=1 n=d7 v=81
9960 On ch=1 n=f6 v=57
9960 On ch=1 n=g#4 v=67
10036 On ch=1 n=g#4 v=0
10076 On ch=1 n=f6 v=0
10076 On ch=1 n=d7 v=0
10080 On ch=1 n=d#6 v=72
10080 On ch=1 n=g#3 v=67
10120 Par ch=1 c=64 v=127
10136 On ch=1 n=d#4 v=0
10156 On ch=1 n=g#3 v=0
10188 On ch=1 n=d#6 v=0
10200 On ch=1 n=d#7 v=81
10200 On ch=1 n=g6 v=57
10200 On ch=1 n=c#5 v=66
10316 On ch=1 n=c#5 v=0
10316 On ch=1 n=g6 v=0
10316 On ch=1 n=d#7 v=0
10320 On ch=1 n=f6 v=78
10320 On ch=1 n=g4 v=68
10428 On ch=1 n=f6 v=0
10436 On ch=1 n=g4 v=0
10440 On ch=1 n=f7 v=81
10440 On ch=1 n=g#6 v=68
10440 On ch=1 n=d#4 v=68
10556 On ch=1 n=g#6 v=0
10556 On ch=1 n=f7 v=0
10560 On ch=1 n=d#6 v=72
10560 On ch=1 n=d#5 v=69
10668 On ch=1 n=d#6 v=0
10676 On ch=1 n=d#5 v=0
10680 On ch=1 n=g6 v=66
10680 On ch=1 n=d#7 v=78
10680 On ch=1 n=g4 v=67
10720 Par ch=1 c=64 v=0
10756 On ch=1 n=g4 v=0
10796 On ch=1 n=d#7 v=0
10796 On ch=1 n=g6 v=0
10800 On ch=1 n=c6 v=69
10800 On ch=1 n=g#3 v=69
10860 Par ch=1 c=64 v=127
10876 On ch=1 n=g#3 v=0
10880 On ch=1 n=d#4 v=0
10908 On ch=1 n=c6 v=0
10920 On ch=1 n=c7 v=82
10920 On ch=1 n=d#6 v=66
10920 On ch=1 n=c5 v=69
11036 On ch=1 n=c5 v=0
11036 On ch=1 n=d#6 v=0
11036 On ch=1 n=c7 v=0
11040 On ch=1 n=a#5 v=67
11040 On ch=1 n=g#4 v=69
11148 On ch=1 n=a#5 v=0
11156 On ch=1 n=g#4 v=0
11160 On ch=1 n=c#6 v=68
11160 On ch=1 n=a#6 v=84
11160 On ch=1 n=d#4 v=65
11276 On ch=1 n=a#6 v=0
11276 On ch=1 n=c#6 v=0
11280 On ch=1 n=c6 v=76
11280 On ch=1 n=d#5 v=64
11388 On ch=1 n=c6 v=0
11396 On ch=1 n=d#5 v=0
11400 On ch=1 n=c7 v=81
11400 On ch=1 n=d#6 v=54
11400 On ch=1 n=g#4 v=64
11448 Par ch=1 c=64 v=0
11476 On ch=1 n=g#4 v=0
11516 On ch=1 n=d#6 v=0
11516 On ch=1 n=c7 v=0
11520 On ch=1 n=a#5 v=72
11520 On ch=1 n=a#3 v=63
11572 On ch=1 n=a#3 v=0
11576 Par ch=1 c=64 v=127
11580 On ch=1 n=d#4 v=0
11628 On ch=1 n=a#5 v=0
11640 On ch=1 n=a#6 v=83
11640 On ch=1 n=d6 v=69
11640 On ch=1 n=d5 v=58
11756 On ch=1 n=d5 v=0
11756 On ch=1 n=d6 v=0
11756 On ch=1 n=a#6 v=0
11760 On ch=1 n=c6 v=75
11760 On ch=1 n=a#4 v=58
11868 On ch=1 n=c6 v=0
11876 On ch=1 n=a#4 v=0
11880 On ch=1 n=c7 v=84
11880 On ch=1 n=d#6 v=65
11880 On ch=1 n=g#4 v=55
11996 On ch=1 n=d#6 v=0
11996 On ch=1 n=c7 v=0
12000 On ch=1 n=d6 v=70
12000 On ch=1 n=d5 v=65
12080 On ch=1 n=g#4 v=0
12108 On ch=1 n=d6 v=0
12116 On ch=1 n=d5 v=0
12120 On ch=1 n=d7 v=81
12120 On ch=1 n=f6 v=62
12120 On ch=1 n=a#4 v=70
12156 Par ch=1 c=64 v=0
12236 On ch=1 n=a#4 v=0
12236 On ch=1 n=f6 v=0
12236 On ch=1 n=d7 v=0
12240 On ch=1 n=d#6 v=70
12240 On ch=1 n=d#4 v=59
12276 Par ch=1 c=64 v=127
12288 On ch=1 n=d#4 v=0
12348 On ch=1 n=d#6 v=0
12360 On ch=1 n=d#7 v=80
12360 On ch=1 n=g6 v=55
12360 On ch=1 n=g5 v=59
12476 On ch=1 n=g5 v=0
12476 On ch=1 n=g6 v=0
12476 On ch=1 n=d#7 v=0
12480 On ch=1 n=f6 v=75
12480 On ch=1 n=d#5 v=62
12516 Par ch=1 c=64 v=0
12588 On ch=1 n=f6 v=0
12596 On ch=1 n=d#5 v=0
12600 On ch=1 n=g#6 v=72
12600 Par ch=1 c=64 v=127
12600 On ch=1 n=f7 v=84
12600 On ch=1 n=c5 v=65
12716 On ch=1 n=c5 v=0
12716 On ch=1 n=f7 v=0
12716 On ch=1 n=g#6 v=0
12720 On ch=1 n=f#6 v=75
12720 On ch=1 n=a5 v=64
12828 On ch=1 n=f#6 v=0
12836 On ch=1 n=a5 v=0
12840 On ch=1 n=f#7 v=82
12840 On ch=1 n=a6 v=70
12840 On ch=1 n=d#5 v=62
12868 Par ch=1 c=64 v=0
12956 On ch=1 n=d#5 v=0
12956 On ch=1 n=a6 v=0
12956 On ch=1 n=f#7 v=0
12960 On ch=1 n=g6 v=73
12960 On ch=1 n=a#4 v=68
12972 Par ch=1 c=64 v=127
13068 On ch=1 n=g6 v=0
13076 On ch=1 n=a#4 v=0
13080 On ch=1 n=a#6 v=68
13080 On ch=1 n=g7 v=81
13080 On ch=1 n=a#5 v=57
13196 On ch=1 n=a#5 v=0
13196 On ch=1 n=g7 v=0
13196 On ch=1 n=a#6 v=0
13200 On ch=1 n=g#6 v=70
13200 On ch=1 n=d#5 v=70
13252 Par ch=1 c=64 v=0
13308 On ch=1 n=g#6 v=0
13316 On ch=1 n=d#5 v=0
13320 On ch=1 n=g#7 v=82
13320 On ch=1 n=c7 v=69
13320 On ch=1 n=a#4 v=60
13344 Par ch=1 c=64 v=127
13436 On ch=1 n=a#4 v=0
13436 On ch=1 n=c7 v=0
13436 On ch=1 n=g#7 v=0
13440 On ch=1 n=d6 v=67
13440 On ch=1 n=g#5 v=57
13548 On ch=1 n=d6 v=0
13556 On ch=1 n=g#5 v=0
13560 On ch=1 n=f6 v=57
13560 On ch=1 n=d7 v=82
13560 On ch=1 n=d5 v=56
13584 Par ch=1 c=64 v=0
13636 On ch=1 n=d5 v=0
13652 On ch=1 n=f6 v=0
13672 Par ch=1 c=64 v=127
13676 On ch=1 n=d7 v=0
13680 On ch=1 n=f6 v=72
13680 On ch=1 n=d#4 v=56
13756 On ch=1 n=d#4 v=0
13788 On ch=1 n=f6 v=0
13800 On ch=1 n=f7 v=82
13800 On ch=1 n=g#6 v=66
13800 On ch=1 n=g5 v=58
13916 On ch=1 n=g5 v=0
13916 On ch=1 n=g#6 v=0
13916 On ch=1 n=f7 v=0
13920 On ch=1 n=e6 v=68
13920 On ch=1 n=d#5 v=58
14028 On ch=1 n=e6 v=0
14036 On ch=1 n=d#5 v=0
14040 On ch=1 n=g6 v=65
14040 On ch=1 n=e7 v=82
14040 On ch=1 n=c#5 v=59
14156 On ch=1 n=e7 v=0
14156 On ch=1 n=g6 v=0
14160 On ch=1 n=d#6 v=68
14160 On ch=1 n=g5 v=57
14268 On ch=1 n=d#6 v=0
14276 On ch=1 n=g5 v=0
14280 On ch=1 n=d#7 v=81
14280 On ch=1 n=g6 v=57
14280 On ch=1 n=d#5 v=59
14308 Par ch=1 c=64 v=0
14396 On ch=1 n=d#5 v=0
14396 On ch=1 n=g6 v=0
14396 On ch=1 n=d#7 v=0
14396 On ch=1 n=c#5 v=0
14400 On ch=1 n=d#6 v=67
14400 On ch=1 n=g#3 v=65
14464 Par ch=1 c=64 v=127
14476 On ch=1 n=g#3 v=0
14508 On ch=1 n=d#6 v=0
14520 On ch=1 n=g#6 v=70
14520 On ch=1 n=c6 v=70
14520 On ch=1 n=c5 v=58
14628 On ch=1 n=c6 v=0
14628 On ch=1 n=g#6 v=0
14636 On ch=1 n=c5 v=0
14640 On ch=1 n=g#4 v=57
14648 On ch=1 n=a#5 v=79
14756 On ch=1 n=g#4 v=0
14760 On ch=1 n=a#6 v=59
14760 On ch=1 n=c#6 v=59
14760 On ch=1 n=d#4 v=53
14840 On ch=1 n=a#5 v=0
14856 On ch=1 n=c#6 v=0
14856 On ch=1 n=a#6 v=0
14876 On ch=1 n=d#4 v=0
14880 On ch=1 n=d#5 v=58
14884 On ch=1 n=b5 v=76
14928 Par ch=1 c=64 v=0
14996 On ch=1 n=d#5 v=0
15000 On ch=1 n=d6 v=64
15000 On ch=1 n=b6 v=64
15000 On ch=1 n=g#4 v=57
15060 Par ch=1 c=64 v=127
15076 On ch=1 n=g#4 v=0
15088 On ch=1 n=b5 v=0
15096 On ch=1 n=b6 v=0
15096 On ch=1 n=d6 v=0
15120 On ch=1 n=g#3 v=59
15124 On ch=1 n=c6 v=80
15196 On ch=1 n=g#3 v=0
15240 On ch=1 n=d#6 v=61
15240 On ch=1 n=c7 v=61
15240 On ch=1 n=c5 v=61
15308 On ch=1 n=c6 v=0
15336 On ch=1 n=c7 v=0
15336 On ch=1 n=d#6 v=0
15356 On ch=1 n=c5 v=0
15360 On ch=1 n=g#4 v=61
15364 On ch=1 n=c#6 v=74
15476 On ch=1 n=g#4 v=0
15480 On ch=1 n=c#7 v=61
15480 On ch=1 n=e6 v=61
15480 On ch=1 n=d#4 v=60
15540 On ch=1 n=c#6 v=0
15576 On ch=1 n=e6 v=0
15576 On ch=1 n=c#7 v=0
15596 On ch=1 n=d#4 v=0
15600 Par ch=1 c=64 v=0
15600 On ch=1 n=d#5 v=60
15604 On ch=1 n=d6 v=74
15716 On ch=1 n=d#5 v=0
15720 On ch=1 n=f6 v=58
15720 On ch=1 n=d7 v=58
15720 On ch=1 n=g#4 v=62
15768 Par ch=1 c=64 v=127
15796 On ch=1 n=g#4 v=0
15796 On ch=1 n=d6 v=0
15816 On ch=1 n=d7 v=0
15816 On ch=1 n=f6 v=0
15840 On ch=1 n=g#3 v=73
15844 On ch=1 n=d#6 v=86
15916 On ch=1 n=g#3 v=0
15960 On ch=1 n=g6 v=68
15960 On ch=1 n=d#7 v=68
15960 On ch=1 n=c#5 v=57
16016 On ch=1 n=d#6 v=0
16056 On ch=1 n=d#7 v=0
16056 On ch=1 n=g6 v=0
16076 On ch=1 n=c#5 v=0
16080 On ch=1 n=g4 v=64
16088 On ch=1 n=f6 v=87
16196 On ch=1 n=g4 v=0
16200 On ch=1 n=f7 v=73
16200 On ch=1 n=g#6 v=73
16200 On ch=1 n=d#4 v=61
16236 On ch=1 n=f6 v=0
16296 On ch=1 n=g#6 v=0
16296 On ch=1 n=f7 v=0
16316 On ch=1 n=d#4 v=0
16320 On ch=1 n=d#5 v=60
16324 On ch=1 n=d#6 v=83
16376 Par ch=1 c=64 v=0
16436 On ch=1 n=d#5 v=0
16440 On ch=1 n=g6 v=68
16440 On ch=1 n=d#7 v=68
16440 On ch=1 n=g4 v=64
16496 On ch=1 n=d#6 v=0
16516 On ch=1 n=g4 v=0
16520 Par ch=1 c=64 v=127
16536 On ch=1 n=d#7 v=0
16536 On ch=1 n=g6 v=0
16560 On ch=1 n=g#3 v=70
16568 On ch=1 n=c6 v=83
16636 On ch=1 n=g#3 v=0
16680 On ch=1 n=d#6 v=63
16680 On ch=1 n=c7 v=63
16680 On ch=1 n=c5 v=62
16716 On ch=1 n=c6 v=0
16776 On ch=1 n=c7 v=0
16776 On ch=1 n=d#6 v=0
16796 On ch=1 n=c5 v=0
16800 On ch=1 n=g#4 v=61
16804 On ch=1 n=a#5 v=78
16916 On ch=1 n=g#4 v=0
16920 On ch=1 n=c#6 v=66
16920 On ch=1 n=a#6 v=66
16920 On ch=1 n=d#4 v=53
16948 On ch=1 n=a#5 v=0
17016 On ch=1 n=a#6 v=0
17016 On ch=1 n=c#6 v=0
17036 On ch=1 n=d#4 v=0
17040 On ch=1 n=d#5 v=63
17044 On ch=1 n=c6 v=88
17072 Par ch=1 c=64 v=0
17156 On ch=1 n=d#5 v=0
17160 On ch=1 n=c7 v=71
17160 On ch=1 n=d#6 v=71
17160 On ch=1 n=g#4 v=61
17188 On ch=1 n=c6 v=0
17232 Par ch=1 c=64 v=127
17236 On ch=1 n=g#4 v=0
17256 On ch=1 n=d#6 v=0
17256 On ch=1 n=c7 v=0
17280 On ch=1 n=g#3 v=67
17284 On ch=1 n=a#5 v=87
17356 On ch=1 n=g#3 v=0
17400 On ch=1 n=c#6 v=70
17400 On ch=1 n=a#6 v=70
17400 On ch=1 n=c#5 v=58
17436 On ch=1 n=a#5 v=0
17496 On ch=1 n=a#6 v=0
17496 On ch=1 n=c#6 v=0
17516 On ch=1 n=c#5 v=0
17520 On ch=1 n=g4 v=68
17528 On ch=1 n=c6 v=86
17636 On ch=1 n=g4 v=0
17640 On ch=1 n=c7 v=69
17640 On ch=1 n=d#6 v=69
17640 On ch=1 n=d#4 v=69
17672 On ch=1 n=c6 v=0
17736 On ch=1 n=d#6 v=0
17736 On ch=1 n=c7 v=0
17756 On ch=1 n=d#4 v=0
17760 On ch=1 n=d#5 v=58
17764 Par ch=1 c=64 v=0
17768 On ch=1 n=g5 v=78
17876 On ch=1 n=d#5 v=0
17880 On ch=1 n=g6 v=67
17880 On ch=1 n=a#5 v=67
17880 On ch=1 n=g4 v=55
17928 Par ch=1 c=64 v=127
17956 On ch=1 n=g4 v=0
17960 On ch=1 n=g5 v=0
17976 On ch=1 n=a#5 v=0
17976 On ch=1 n=g6 v=0
18000 On ch=1 n=g#3 v=70
18008 On ch=1 n=g#5 v=84
18076 On ch=1 n=g#3 v=0
18120 On ch=1 n=g#6 v=75
18120 On ch=1 n=c6 v=66
18120 On ch=1 n=c5 v=57
18172 On ch=1 n=g#5 v=0
18216 On ch=1 n=c6 v=0
18216 On ch=1 n=g#6 v=0
18236 On ch=1 n=c5 v=0
18240 On ch=1 n=g#4 v=63
18248 On ch=1 n=g5 v=78
18356 On ch=1 n=g#4 v=0
18360 On ch=1 n=a#5 v=56
18360 On ch=1 n=g6 v=53
18360 On ch=1 n=d#4 v=56
18408 On ch=1 n=g5 v=0
18436 Par ch=1 c=64 v=0
18456 On ch=1 n=g6 v=0
18456 On ch=1 n=a#5 v=0
18476 On ch=1 n=d#4 v=0
18480 On ch=1 n=d#5 v=58
18484 On ch=1 n=g#5 v=83
18596 On ch=1 n=d#5 v=0
18600 On ch=1 n=g#6 v=74
18600 On ch=1 n=c6 v=63
18600 On ch=1 n=g#4 v=58
18632 On ch=1 n=g#5 v=0
18676 On ch=1 n=g#4 v=0
18676 Par ch=1 c=64 v=127
18696 On ch=1 n=c6 v=0
18696 On ch=1 n=g#6 v=0
18720 On ch=1 n=a#3 v=59
18724 On ch=1 n=f5 v=79
18796 On ch=1 n=a#3 v=0
18840 On ch=1 n=f6 v=66
18840 On ch=1 n=g#5 v=66
18840 On ch=1 n=d5 v=59
18888 On ch=1 n=f5 v=0
18936 On ch=1 n=g#5 v=0
18936 On ch=1 n=f6 v=0
18956 On ch=1 n=d5 v=0
18960 On ch=1 n=a#4 v=61
18964 On ch=1 n=g5 v=84
19076 On ch=1 n=a#4 v=0
19080 On ch=1 n=g6 v=64
19080 On ch=1 n=a#5 v=64
19080 On ch=1 n=g#4 v=58
19124 On ch=1 n=g5 v=0
19176 On ch=1 n=a#5 v=0
19176 On ch=1 n=g6 v=0
19176 Par ch=1 c=64 v=0
19196 On ch=1 n=g#4 v=0
19200 On ch=1 n=d5 v=64
19204 On ch=1 n=f5 v=80
19316 On ch=1 n=d5 v=0
19320 On ch=1 n=g#5 v=63
19320 On ch=1 n=f6 v=63
19320 On ch=1 n=a#4 v=59
19340 On ch=1 n=f5 v=0
19372 Par ch=1 c=64 v=127
19376 On ch=1 n=a#4 v=0
19416 On ch=1 n=f6 v=0
19416 On ch=1 n=g#5 v=0
19440 On ch=1 n=d#3 v=62
19444 On ch=1 n=e5 v=82
19496 On ch=1 n=d#3 v=0
19560 On ch=1 n=g5 v=66
19560 On ch=1 n=e6 v=66
19560 On ch=1 n=c#5 v=53
19636 On ch=1 n=e5 v=0
19656 On ch=1 n=e6 v=0
19656 On ch=1 n=g5 v=0
19676 On ch=1 n=c#5 v=0
19680 On ch=1 n=a#4 v=38
19688 On ch=1 n=d#5 v=82
19796 On ch=1 n=a#4 v=0
19800 On ch=1 n=g5 v=56
19800 On ch=1 n=d#6 v=70
19800 On ch=1 n=d#4 v=57
19848 On ch=1 n=d#5 v=0
19896 On ch=1 n=d#6 v=0
19896 On ch=1 n=g5 v=0
19916 On ch=1 n=d#4 v=0
19920 On ch=1 n=c#5 v=56
19928 On ch=1 n=g5 v=84
20036 On ch=1 n=c#5 v=0
20040 On ch=1 n=a#5 v=66
20040 On ch=1 n=g6 v=64
20040 On ch=1 n=a#4 v=44
20056 On ch=1 n=g5 v=0
20136 On ch=1 n=g6 v=0
20136 On ch=1 n=a#5 v=0
20156 On ch=1 n=a#4 v=0
20160 On ch=1 n=g#5 v=72
20160 On ch=1 n=g#3 v=61
20184 Par ch=1 c=64 v=0
20204 On ch=1 n=g#3 v=0
20204 On ch=1 n=g#5 v=0
20280 On ch=1 n=c6 v=65
20280 On ch=1 n=g#6 v=68
20280 On ch=1 n=c5 v=62
20324 On ch=1 n=c5 v=0
20324 On ch=1 n=g#6 v=0
20324 On ch=1 n=c6 v=0
20400 On ch=1 n=a#5 v=84
20400 On ch=1 n=g#4 v=65
20444 On ch=1 n=g#4 v=0
20444 On ch=1 n=a#5 v=0
20520 On ch=1 n=c#6 v=64
20520 On ch=1 n=a#6 v=82
20520 On ch=1 n=d#4 v=67
20564 On ch=1 n=d#4 v=0
20564 On ch=1 n=a#6 v=0
20564 On ch=1 n=c#6 v=0
20640 On ch=1 n=b5 v=74
20640 On ch=1 n=d#5 v=67
20684 On ch=1 n=d#5 v=0
20684 On ch=1 n=b5 v=0
20760 On ch=1 n=d6 v=72
20760 On ch=1 n=b6 v=80
20760 On ch=1 n=g#4 v=65
20804 On ch=1 n=g#4 v=0
20804 On ch=1 n=b6 v=0
20804 On ch=1 n=d6 v=0
20880 On ch=1 n=c6 v=74
20880 On ch=1 n=g#3 v=67
20924 On ch=1 n=g#3 v=0
20924 On ch=1 n=c6 v=0
21000 On ch=1 n=d#6 v=69
21000 On ch=1 n=c7 v=84
21000 On ch=1 n=c5 v=68
21044 On ch=1 n=c5 v=0
21044 On ch=1 n=c7 v=0
21044 On ch=1 n=d#6 v=0
21120 On ch=1 n=c#6 v=75
21120 On ch=1 n=g#4 v=70
21164 On ch=1 n=g#4 v=0
21164 On ch=1 n=c#6 v=0
21240 On ch=1 n=c#7 v=73
21240 On ch=1 n=e6 v=51
21240 On ch=1 n=d#4 v=71
21284 On ch=1 n=d#4 v=0
21284 On ch=1 n=e6 v=0
21284 On ch=1 n=c#7 v=0
21360 On ch=1 n=d6 v=78
21360 On ch=1 n=d#5 v=72
21404 On ch=1 n=d#5 v=0
21404 On ch=1 n=d6 v=0
21480 On ch=1 n=f6 v=67
21480 On ch=1 n=d7 v=78
21480 On ch=1 n=g#4 v=71
21524 On ch=1 n=g#4 v=0
21524 On ch=1 n=d7 v=0
21524 On ch=1 n=f6 v=0
21600 On ch=1 n=d#6 v=77
21600 On ch=1 n=g#3 v=76
21644 On ch=1 n=g#3 v=0
21644 On ch=1 n=d#6 v=0
21720 On ch=1 n=d#7 v=76
21720 On ch=1 n=g6 v=65
21720 On ch=1 n=c#5 v=72
21764 On ch=1 n=c#5 v=0
21764 On ch=1 n=g6 v=0
21764 On ch=1 n=d#7 v=0
21840 On ch=1 n=f6 v=80
21840 On ch=1 n=g4 v=73
21884 On ch=1 n=g4 v=0
21884 On ch=1 n=f6 v=0
21960 On ch=1 n=f7 v=64
21960 On ch=1 n=g#6 v=62
21960 On ch=1 n=d#4 v=76
22004 On ch=1 n=d#4 v=0
22004 On ch=1 n=g#6 v=0
22004 On ch=1 n=f7 v=0
22080 On ch=1 n=d#6 v=79
22080 On ch=1 n=d#5 v=74
22124 On ch=1 n=d#5 v=0
22124 On ch=1 n=d#6 v=0
22200 On ch=1 n=g6 v=63
22200 On ch=1 n=d#7 v=72
22200 On ch=1 n=g4 v=72
22244 On ch=1 n=g4 v=0
22244 On ch=1 n=d#7 v=0
22244 On ch=1 n=g6 v=0
22320 On ch=1 n=c6 v=76
22320 On ch=1 n=g#3 v=74
22364 On ch=1 n=g#3 v=0
22364 On ch=1 n=c6 v=0
22440 On ch=1 n=d#6 v=68
22440 On ch=1 n=c7 v=71
22440 On ch=1 n=c5 v=73
22484 On ch=1 n=c5 v=0
22484 On ch=1 n=c7 v=0
22484 On ch=1 n=d#6 v=0
22560 On ch=1 n=a#5 v=75
22560 On ch=1 n=g#4 v=70
22604 On ch=1 n=g#4 v=0
22604 On ch=1 n=a#5 v=0
22680 On ch=1 n=c#6 v=59
22680 On ch=1 n=a#6 v=80
22680 On ch=1 n=f#4 v=69
22724 On ch=1 n=f#4 v=0
22724 On ch=1 n=a#6 v=0
22724 On ch=1 n=c#6 v=0
22800 On ch=1 n=c6 v=78
22800 On ch=1 n=d#5 v=71
22844 On ch=1 n=d#5 v=0
22844 On ch=1 n=c6 v=0
22920 On ch=1 n=c7 v=66
22920 On ch=1 n=d#6 v=68
22920 On ch=1 n=g#4 v=65
22964 On ch=1 n=g#4 v=0
22964 On ch=1 n=d#6 v=0
22964 On ch=1 n=c7 v=0
23040 On ch=1 n=c#6 v=73
23040 On ch=1 n=c#4 v=65
23084 On ch=1 n=c#4 v=0
23084 On ch=1 n=c#6 v=0
23160 On ch=1 n=f6 v=69
23160 On ch=1 n=c#7 v=64
23160 On ch=1 n=f5 v=64
23204 On ch=1 n=f5 v=0
23204 On ch=1 n=c#7 v=0
23204 On ch=1 n=f6 v=0
23280 On ch=1 n=d#6 v=75
23280 On ch=1 n=c#5 v=70
23324 On ch=1 n=c#5 v=0
23324 On ch=1 n=d#6 v=0
23400 On ch=1 n=g6 v=68
23400 On ch=1 n=d#7 v=76
23400 On ch=1 n=g#4 v=71
23444 On ch=1 n=g#4 v=0
23444 On ch=1 n=d#7 v=0
23444 On ch=1 n=g6 v=0
23520 On ch=1 n=f6 v=80
23520 On ch=1 n=f5 v=66
23564 On ch=1 n=f5 v=0
23564 On ch=1 n=f6 v=0
23640 On ch=1 n=f7 v=76
23640 On ch=1 n=g#6 v=63
23640 On ch=1 n=c#5 v=65
23684 On ch=1 n=c#5 v=0
23684 On ch=1 n=g#6 v=0
23684 On ch=1 n=f7 v=0
23760 On ch=1 n=g6 v=76
23760 On ch=1 n=c#4 v=68
23804 On ch=1 n=c#4 v=0
23804 On ch=1 n=g6 v=0
23820 Par ch=1 c=64 v=127
23880 On ch=1 n=g7 v=76
23880 On ch=1 n=a#6 v=63
23880 On ch=1 n=e5 v=68
23924 On ch=1 n=e5 v=0
23924 On ch=1 n=a#6 v=0
23924 On ch=1 n=g7 v=0
24000 On ch=1 n=g#6 v=83
24000 On ch=1 n=c#5 v=70
24044 On ch=1 n=c#5 v=0
24044 On ch=1 n=g#6 v=0
24120 On ch=1 n=g#7 v=75
24120 On ch=1 n=b6 v=62
24120 On ch=1 n=g#4 v=70
24164 On ch=1 n=g#4 v=0
24164 On ch=1 n=b6 v=0
24164 On ch=1 n=g#7 v=0
24240 On ch=1 n=a6 v=84
24240 On ch=1 n=e5 v=70
24284 On ch=1 n=e5 v=0
24284 On ch=1 n=a6 v=0
24344 Par ch=1 c=64 v=0
24360 On ch=1 n=a7 v=78
24360 On ch=1 n=c7 v=64
24360 On ch=1 n=c#5 v=70
24404 On ch=1 n=c#5 v=0
24404 On ch=1 n=c7 v=0
24404 On ch=1 n=a7 v=0
24480 On ch=1 n=a#6 v=82
24480 On ch=1 n=d#4 v=74
24488 Par ch=1 c=64 v=127
24524 On ch=1 n=d#4 v=0
24524 On ch=1 n=a#6 v=0
24600 On ch=1 n=a#7 v=85
24600 On ch=1 n=c#7 v=75
24600 On ch=1 n=g5 v=74
24644 On ch=1 n=g5 v=0
24644 On ch=1 n=c#7 v=0
24644 On ch=1 n=a#7 v=0
24720 On ch=1 n=c7 v=98
24720 On ch=1 n=d#5 v=72
24764 On ch=1 n=d#5 v=0
24764 On ch=1 n=c7 v=0
24840 On ch=1 n=c8 v=92
24840 On ch=1 n=d#7 v=80
24840 On ch=1 n=c#5 v=71
24884 On ch=1 n=c#5 v=0
24884 On ch=1 n=d#7 v=0
24884 On ch=1 n=c8 v=0
24960 On ch=1 n=g6 v=93
24960 On ch=1 n=g5 v=75
25004 On ch=1 n=g5 v=0
25004 On ch=1 n=g6 v=0
25008 Par ch=1 c=64 v=0
25080 On ch=1 n=a#6 v=85
25080 On ch=1 n=g7 v=104
25080 On ch=1 n=d#5 v=75
25124 On ch=1 n=d#5 v=0
25124 On ch=1 n=g7 v=0
25124 On ch=1 n=a#6 v=0
25184 Par ch=1 c=64 v=127
25200 On ch=1 n=g#6 v=88
25200 On ch=1 n=g#3 v=75
25276 On ch=1 n=g#3 v=0
25312 On ch=1 n=g#6 v=0
25320 On ch=1 n=g#7 v=83
25320 On ch=1 n=c7 v=97
25320 On ch=1 n=c5 v=73
25432 On ch=1 n=c7 v=0
25432 On ch=1 n=g#7 v=0
25436 On ch=1 n=c5 v=0
25440 On ch=1 n=g#6 v=100
25440 On ch=1 n=g#4 v=74
25552 On ch=1 n=g#6 v=0
25556 On ch=1 n=g#4 v=0
25560 On ch=1 n=c6 v=101
25560 On ch=1 n=g#6 v=97
25560 On ch=1 n=d#4 v=79
25672 On ch=1 n=g#6 v=0
25672 On ch=1 n=c6 v=0
25676 On ch=1 n=d#4 v=0
25680 On ch=1 n=g#5 v=97
25680 On ch=1 n=d#5 v=80
25720 Par ch=1 c=64 v=0
25792 On ch=1 n=g#5 v=0
25796 On ch=1 n=d#5 v=0
25800 On ch=1 n=g#6 v=80
25800 On ch=1 n=c6 v=90
25800 On ch=1 n=g#4 v=79
25912 On ch=1 n=c6 v=0
25912 On ch=1 n=g#6 v=0
25916 On ch=1 n=g#4 v=0
25920 On ch=1 n=g#5 v=96
25920 On ch=1 n=e3 v=83
25976 On ch=1 n=e3 v=0
25996 Par ch=1 c=64 v=127
26032 On ch=1 n=g#5 v=0
26040 On ch=1 n=g#6 v=83
26040 On ch=1 n=b5 v=80
26040 On ch=1 n=b4 v=84
26152 On ch=1 n=b5 v=0
26152 On ch=1 n=g#6 v=0
26156 On ch=1 n=b4 v=0
26160 On ch=1 n=a5 v=97
26160 On ch=1 n=e4 v=84
26272 On ch=1 n=a5 v=0
26276 On ch=1 n=e4 v=0
26280 On ch=1 n=a6 v=107
26280 On ch=1 n=c#6 v=68
26280 On ch=1 n=b3 v=83
26352 Par ch=1 c=64 v=0
26392 On ch=1 n=c#6 v=0
26392 On ch=1 n=a6 v=0
26396 On ch=1 n=b3 v=0
26400 On ch=1 n=g#5 v=90
26400 On ch=1 n=b4 v=80
26504 Par ch=1 c=64 v=127
26512 On ch=1 n=g#5 v=0
26516 On ch=1 n=b4 v=0
26520 On ch=1 n=g#6 v=80
26520 On ch=1 n=b5 v=79
26520 On ch=1 n=e4 v=84
26596 On ch=1 n=e4 v=0
26632 On ch=1 n=b5 v=0
26632 On ch=1 n=g#6 v=0
26640 On ch=1 n=f#5 v=89
26640 On ch=1 n=e3 v=88
26684 On ch=1 n=e3 v=0
26752 On ch=1 n=f#5 v=0
26760 On ch=1 n=f#6 v=77
26760 On ch=1 n=a#5 v=80
26760 On ch=1 n=a#4 v=82
26872 On ch=1 n=a#5 v=0
26872 On ch=1 n=f#6 v=0
26876 On ch=1 n=a#4 v=0
26880 On ch=1 n=c#5 v=88
26880 On ch=1 n=f#4 v=83
26992 On ch=1 n=c#5 v=0
26996 On ch=1 n=f#4 v=0
27000 On ch=1 n=c#6 v=83
27000 On ch=1 n=e5 v=97
27000 On ch=1 n=c#4 v=81
27076 Par ch=1 c=64 v=0
27112 On ch=1 n=e5 v=0
27112 On ch=1 n=c#6 v=0
27116 On ch=1 n=c#4 v=0
27120 On ch=1 n=d#5 v=81
27120 On ch=1 n=a#4 v=82
27232 On ch=1 n=d#5 v=0
27236 On ch=1 n=a#4 v=0
27240 On ch=1 n=d#6 v=80
27240 On ch=1 n=f#5 v=64
27240 On ch=1 n=f#4 v=86
27256 Par ch=1 c=64 v=127
27272 On ch=1 n=f#4 v=0
27352 On ch=1 n=f#5 v=0
27352 On ch=1 n=d#6 v=0
27360 On ch=1 n=e5 v=90
27360 On ch=1 n=e3 v=86
27400 On ch=1 n=e3 v=0
27472 On ch=1 n=e5 v=0
27480 On ch=1 n=g#5 v=86
27480 On ch=1 n=e6 v=82
27480 On ch=1 n=a4 v=84
27592 On ch=1 n=e6 v=0
27592 On ch=1 n=g#5 v=0
27596 On ch=1 n=a4 v=0
27600 On ch=1 n=g#5 v=96
27600 On ch=1 n=d#4 v=81
27712 On ch=1 n=g#5 v=0
27716 On ch=1 n=d#4 v=0
27720 On ch=1 n=b5 v=87
27720 On ch=1 n=g#6 v=102
27720 On ch=1 n=b3 v=87
27832 On ch=1 n=g#6 v=0
27832 On ch=1 n=b5 v=0
27832 Par ch=1 c=64 v=0
27836 On ch=1 n=b3 v=0
27840 On ch=1 n=f#5 v=82
27840 On ch=1 n=a4 v=84
27952 On ch=1 n=f#5 v=0
27956 On ch=1 n=a4 v=0
27960 On ch=1 n=a5 v=87
27960 On ch=1 n=f#6 v=88
27960 On ch=1 n=d#4 v=82
27980 Par ch=1 c=64 v=127
28016 On ch=1 n=d#4 v=0
28072 On ch=1 n=f#6 v=0
28072 On ch=1 n=a5 v=0
28080 On ch=1 n=e5 v=89
28080 On ch=1 n=e3 v=85
28124 On ch=1 n=e3 v=0
28192 On ch=1 n=e5 v=0
28200 On ch=1 n=g#5 v=83
28200 On ch=1 n=e6 v=81
28200 On ch=1 n=g#4 v=85
28312 On ch=1 n=e6 v=0
28312 On ch=1 n=g#5 v=0
28316 On ch=1 n=g#4 v=0
28320 On ch=1 n=b4 v=93
28320 On ch=1 n=e4 v=83
28432 On ch=1 n=b4 v=0
28436 On ch=1 n=e4 v=0
28440 On ch=1 n=d#5 v=102
28440 On ch=1 n=b5 v=89
28440 On ch=1 n=b3 v=83
28444 Par ch=1 c=64 v=0
28552 On ch=1 n=b5 v=0
28552 On ch=1 n=d#5 v=0
28556 On ch=1 n=b3 v=0
28560 On ch=1 n=c#5 v=96
28560 On ch=1 n=b4 v=84
28672 On ch=1 n=c#5 v=0
28676 On ch=1 n=b4 v=0
28680 On ch=1 n=e5 v=80
28680 On ch=1 n=c#6 v=82
28680 On ch=1 n=e4 v=85
28716 Par ch=1 c=64 v=127
28736 On ch=1 n=e4 v=0
28792 On ch=1 n=c#6 v=0
28792 On ch=1 n=e5 v=0
28800 On ch=1 n=e5 v=88
28800 On ch=1 n=e3 v=85
28840 On ch=1 n=e3 v=0
28912 On ch=1 n=e5 v=0
28920 On ch=1 n=g#5 v=80
28920 On ch=1 n=e6 v=76
28920 On ch=1 n=a4 v=72
29032 On ch=1 n=e6 v=0
29032 On ch=1 n=g#5 v=0
29036 On ch=1 n=a4 v=0
29040 On ch=1 n=d#5 v=93
29040 On ch=1 n=f#4 v=79
29152 On ch=1 n=d#5 v=0
29156 On ch=1 n=f#4 v=0
29160 On ch=1 n=d#6 v=103
29160 On ch=1 n=f#5 v=83
29160 On ch=1 n=b3 v=80
29252 Par ch=1 c=64 v=0
29272 On ch=1 n=f#5 v=0
29272 On ch=1 n=d#6 v=0
29276 On ch=1 n=b3 v=0
29280 On ch=1 n=e5 v=94
29280 On ch=1 n=b4 v=77
29392 On ch=1 n=e5 v=0
29396 On ch=1 n=b4 v=0
29400 On ch=1 n=e6 v=89
29400 On ch=1 n=g#5 v=84
29400 On ch=1 n=f#4 v=82
29436 Par ch=1 c=64 v=127
29476 On ch=1 n=f#4 v=0
29512 On ch=1 n=g#5 v=0
29512 On ch=1 n=e6 v=0
29520 On ch=1 n=g#5 v=97
29520 On ch=1 n=e3 v=83
29596 On ch=1 n=e3 v=0
29632 On ch=1 n=g#5 v=0
29640 On ch=1 n=g#6 v=92
29640 On ch=1 n=b5 v=77
29640 On ch=1 n=a4 v=81
29752 On ch=1 n=b5 v=0
29752 On ch=1 n=g#6 v=0
29756 On ch=1 n=a4 v=0
29760 On ch=1 n=f#5 v=90
29760 On ch=1 n=d#4 v=81
29872 On ch=1 n=f#5 v=0
29876 On ch=1 n=d#4 v=0
29880 On ch=1 n=f#6 v=104
29880 On ch=1 n=a5 v=72
29880 On ch=1 n=b3 v=82
29912 Par ch=1 c=64 v=0
29992 On ch=1 n=a5 v=0
29992 On ch=1 n=f#6 v=0
29996 On ch=1 n=b3 v=0
30000 On ch=1 n=g#5 v=94
30000 On ch=1 n=b4 v=81
30084 Par ch=1 c=64 v=127
30112 On ch=1 n=g#5 v=0
30116 On ch=1 n=b4 v=0
30120 On ch=1 n=g#6 v=82
30120 On ch=1 n=b5 v=80
30120 On ch=1 n=d#4 v=80
30196 On ch=1 n=d#4 v=0
30232 On ch=1 n=b5 v=0
30232 On ch=1 n=g#6 v=0
30240 On ch=1 n=b5 v=101
30240 On ch=1 n=e3 v=78
30316 On ch=1 n=e3 v=0
30352 On ch=1 n=b5 v=0
30360 On ch=1 n=b6 v=77
30360 On ch=1 n=d#6 v=83
30360 On ch=1 n=a4 v=76
30472 On ch=1 n=d#6 v=0
30472 On ch=1 n=b6 v=0
30476 On ch=1 n=a4 v=0
30480 On ch=1 n=a5 v=97
30480 On ch=1 n=f#4 v=76
30584 Par ch=1 c=64 v=0
30592 On ch=1 n=a5 v=0
30596 On ch=1 n=f#4 v=0
30600 On ch=1 n=c#6 v=82
30600 On ch=1 n=a6 v=90
30600 On ch=1 n=b3 v=77
30712 On ch=1 n=a6 v=0
30712 On ch=1 n=c#6 v=0
30716 On ch=1 n=b3 v=0
30720 On ch=1 n=b5 v=101
30720 On ch=1 n=b4 v=72
30832 On ch=1 n=b5 v=0
30832 Par ch=1 c=64 v=127
30836 On ch=1 n=b4 v=0
30840 On ch=1 n=b6 v=83
30840 On ch=1 n=d#6 v=79
30840 On ch=1 n=f#4 v=72
30916 On ch=1 n=f#4 v=0
30952 On ch=1 n=d#6 v=0
30952 On ch=1 n=b6 v=0
30960 On ch=1 n=d#6 v=92
30960 On ch=1 n=e3 v=73
31036 On ch=1 n=e3 v=0
31072 On ch=1 n=d#6 v=0
31080 On ch=1 n=f#6 v=83
31080 On ch=1 n=d#7 v=92
31080 On ch=1 n=a4 v=74
31192 On ch=1 n=d#7 v=0
31192 On ch=1 n=f#6 v=0
31196 On ch=1 n=a4 v=0
31200 On ch=1 n=c#6 v=87
31200 On ch=1 n=d#4 v=76
31312 On ch=1 n=c#6 v=0
31316 On ch=1 n=d#4 v=0
31320 On ch=1 n=c#7 v=94
31320 On ch=1 n=e6 v=80
31320 On ch=1 n=b3 v=79
31336 Par ch=1 c=64 v=0
31432 On ch=1 n=e6 v=0
31432 On ch=1 n=c#7 v=0
31436 On ch=1 n=b3 v=0
31440 On ch=1 n=b5 v=97
31440 On ch=1 n=b4 v=79
31516 Par ch=1 c=64 v=127
31552 On ch=1 n=b5 v=0
31556 On ch=1 n=b4 v=0
31560 On ch=1 n=d#6 v=81
31560 On ch=1 n=b6 v=78
31560 On ch=1 n=f#4 v=79
31672 On ch=1 n=b6 v=0
31672 On ch=1 n=d#6 v=0
31676 On ch=1 n=f#4 v=0
31680 On ch=1 n=e3 v=53
31684 On ch=1 n=g#5 v=79
31756 On ch=1 n=e3 v=0
31800 On ch=1 n=g#6 v=62
31800 On ch=1 n=b5 v=62
31800 On ch=1 n=b4 v=58
31876 On ch=1 n=g#5 v=0
31896 On ch=1 n=b5 v=0
31896 On ch=1 n=g#6 v=0
31916 On ch=1 n=b4 v=0
31920 On ch=1 n=e4 v=64
31924 On ch=1 n=a5 v=82
32024 Par ch=1 c=64 v=0
32036 On ch=1 n=e4 v=0
32040 On ch=1 n=a6 v=63
32040 On ch=1 n=c6 v=63
32040 On ch=1 n=b3 v=58
32100 On ch=1 n=a5 v=0
32136 On ch=1 n=c6 v=0
32136 On ch=1 n=a6 v=0
32156 On ch=1 n=b3 v=0
32160 On ch=1 n=b4 v=57
32164 On ch=1 n=g#5 v=81
32184 Par ch=1 c=64 v=127
32276 On ch=1 n=b4 v=0
32280 On ch=1 n=b5 v=64
32280 On ch=1 n=g#6 v=64
32280 On ch=1 n=e4 v=68
32332 On ch=1 n=g#5 v=0
32356 On ch=1 n=e4 v=0
32376 On ch=1 n=g#6 v=0
32376 On ch=1 n=b5 v=0
32396 On ch=1 n=f#5 v=89
32400 On ch=1 n=e3 v=64
32476 On ch=1 n=e3 v=0
32520 On ch=1 n=a5 v=65
32520 On ch=1 n=f#6 v=65
32520 On ch=1 n=a4 v=65
32536 On ch=1 n=f#5 v=0
32616 On ch=1 n=f#6 v=0
32616 On ch=1 n=a5 v=0
32636 On ch=1 n=a4 v=0
32636 On ch=1 n=c5 v=85
32640 On ch=1 n=e4 v=63
32752 Par ch=1 c=64 v=0
32756 On ch=1 n=e4 v=0
32760 On ch=1 n=c6 v=64
32760 On ch=1 n=e5 v=64
32760 On ch=1 n=c4 v=66
32808 On ch=1 n=c5 v=0
32856 On ch=1 n=e5 v=0
32856 On ch=1 n=c6 v=0
32876 On ch=1 n=c4 v=0
32876 On ch=1 n=e5 v=80
32880 On ch=1 n=a4 v=57
32996 On ch=1 n=a4 v=0
33000 On ch=1 n=g#5 v=66
33000 On ch=1 n=e6 v=66
33000 On ch=1 n=e4 v=65
33060 On ch=1 n=e5 v=0
33076 On ch=1 n=e4 v=0
33096 On ch=1 n=e6 v=0
33096 On ch=1 n=g#5 v=0
33096 Par ch=1 c=64 v=127
33120 On ch=1 n=f#5 v=83
33120 On ch=1 n=e3 v=63
33196 On ch=1 n=e3 v=0
33240 On ch=1 n=f#6 v=71
33240 On ch=1 n=a5 v=71
33240 On ch=1 n=a4 v=57
33276 On ch=1 n=f#5 v=0
33336 On ch=1 n=a5 v=0
33336 On ch=1 n=f#6 v=0
33356 On ch=1 n=a4 v=0
33356 On ch=1 n=g#5 v=88
33360 On ch=1 n=d#4 v=58
33476 On ch=1 n=d#4 v=0
33480 On ch=1 n=g#6 v=68
33480 On ch=1 n=b5 v=68
33480 On ch=1 n=b3 v=62
33532 On ch=1 n=g#5 v=0
33576 On ch=1 n=b5 v=0
33576 On ch=1 n=g#6 v=0
33596 On ch=1 n=b3 v=0
33596 On ch=1 n=f#5 v=84
33600 On ch=1 n=b4 v=59
33604 Par ch=1 c=64 v=0
33716 On ch=1 n=b4 v=0
33720 On ch=1 n=f#6 v=68
33720 On ch=1 n=a5 v=68
33720 On ch=1 n=d#4 v=65
33756 On ch=1 n=f#5 v=0
33756 Par ch=1 c=64 v=127
33796 On ch=1 n=d#4 v=0
33816 On ch=1 n=a5 v=0
33816 On ch=1 n=f#6 v=0
33836 On ch=1 n=e5 v=84
33840 On ch=1 n=e3 v=61
33916 On ch=1 n=e3 v=0
33960 On ch=1 n=g#5 v=64
33960 On ch=1 n=e6 v=64
33960 On ch=1 n=g#4 v=58
33976 On ch=1 n=e5 v=0
34056 On ch=1 n=e6 v=0
34056 On ch=1 n=g#5 v=0
34076 On ch=1 n=g#4 v=0
34080 On ch=1 n=d#5 v=85
34080 On ch=1 n=e4 v=61
34196 On ch=1 n=e4 v=0
34200 On ch=1 n=g#5 v=66
34200 On ch=1 n=d#6 v=66
34200 On ch=1 n=b3 v=58
34252 On ch=1 n=d#5 v=0
34296 On ch=1 n=d#6 v=0
34296 On ch=1 n=g#5 v=0
34316 On ch=1 n=b3 v=0
34320 On ch=1 n=b4 v=54
34324 On ch=1 n=d5 v=86
34368 Par ch=1 c=64 v=0
34436 On ch=1 n=b4 v=0
34440 On ch=1 n=d6 v=62
34440 On ch=1 n=g#5 v=62
34440 On ch=1 n=e4 v=54
34508 On ch=1 n=d5 v=0
34512 Par ch=1 c=64 v=127
34516 On ch=1 n=e4 v=0
34536 On ch=1 n=g#5 v=0
34536 On ch=1 n=d6 v=0
34560 On ch=1 n=d#3 v=65
34564 On ch=1 n=d#5 v=92
34616 On ch=1 n=d#3 v=0
34680 On ch=1 n=g5 v=73
34680 On ch=1 n=d#6 v=73
34680 On ch=1 n=c#5 v=66
34740 On ch=1 n=d#5 v=0
34776 On ch=1 n=d#6 v=0
34776 On ch=1 n=g5 v=0
34796 On ch=1 n=c#5 v=0
34800 On ch=1 n=g4 v=65
34804 On ch=1 n=f5 v=93
34916 On ch=1 n=g4 v=0
34920 On ch=1 n=g#5 v=73
34920 On ch=1 n=f6 v=73
34920 On ch=1 n=d#4 v=68
34980 On ch=1 n=f5 v=0
35016 On ch=1 n=f6 v=0
35016 On ch=1 n=g#5 v=0
35036 On ch=1 n=d#4 v=0
35040 On ch=1 n=d#5 v=69
35044 On ch=1 n=f#5 v=91
35156 On ch=1 n=d#5 v=0
35156 Par ch=1 c=64 v=0
35160 On ch=1 n=a5 v=71
35160 On ch=1 n=f#6 v=71
35160 On ch=1 n=g4 v=69
35216 On ch=1 n=g4 v=0
35224 On ch=1 n=f#5 v=0
35224 Par ch=1 c=64 v=127
35256 On ch=1 n=f#6 v=0
35256 On ch=1 n=a5 v=0
35280 On ch=1 n=d#3 v=70
35284 On ch=1 n=g5 v=90
35336 On ch=1 n=d#3 v=0
35400 On ch=1 n=g6 v=71
35400 On ch=1 n=a#5 v=71
35400 On ch=1 n=c#5 v=71
35464 On ch=1 n=g5 v=0
35496 On ch=1 n=a#5 v=0
35496 On ch=1 n=g6 v=0
35516 On ch=1 n=c#5 v=0
35520 On ch=1 n=g4 v=69
35524 On ch=1 n=g#5 v=91
35636 On ch=1 n=g4 v=0
35640 On ch=1 n=c6 v=73
35640 On ch=1 n=a6 v=73
35640 On ch=1 n=d#4 v=68
35700 On ch=1 n=g#5 v=0
35736 On ch=1 n=a6 v=0
35736 On ch=1 n=c6 v=0
35756 On ch=1 n=d#4 v=0
35760 On ch=1 n=d#5 v=72
35764 On ch=1 n=a#5 v=95
35856 Par ch=1 c=64 v=0
35876 On ch=1 n=d#5 v=0
35880 On ch=1 n=c#6 v=74
35880 On ch=1 n=a#6 v=74
35880 On ch=1 n=g4 v=72
35936 On ch=1 n=g4 v=0
35936 Par ch=1 c=64 v=127
35944 On ch=1 n=a#5 v=0
35976 On ch=1 n=a#6 v=0
35976 On ch=1 n=c#6 v=0
36000 On ch=1 n=g#3 v=74
36004 On ch=1 n=c6 v=93
36076 On ch=1 n=g#3 v=0
36120 On ch=1 n=c7 v=74
36120 On ch=1 n=d#6 v=74
36120 On ch=1 n=c5 v=74
36172 On ch=1 n=c6 v=0
36216 On ch=1 n=d#6 v=0
36216 On ch=1 n=c7 v=0
36236 On ch=1 n=c5 v=0
36240 On ch=1 n=g#4 v=74
36244 On ch=1 n=c#6 v=95
36356 On ch=1 n=g#4 v=0
36360 On ch=1 n=e6 v=78
36360 On ch=1 n=c#7 v=78
36360 On ch=1 n=f#4 v=74
36408 On ch=1 n=c#6 v=0
36456 On ch=1 n=c#7 v=0
36456 On ch=1 n=e6 v=0
36476 On ch=1 n=f#4 v=0
36480 On ch=1 n=d#5 v=74
36484 On ch=1 n=d6 v=97
36572 Par ch=1 c=64 v=0
36596 On ch=1 n=d#5 v=0
36600 On ch=1 n=d7 v=81
36600 On ch=1 n=f6 v=81
36600 On ch=1 n=g#4 v=76
36644 Par ch=1 c=64 v=127
36652 On ch=1 n=d6 v=0
36676 On ch=1 n=g#4 v=0
36696 On ch=1 n=f6 v=0
36696 On ch=1 n=d7 v=0
36720 On ch=1 n=g#3 v=75
36724 On ch=1 n=d#6 v=97
36796 On ch=1 n=g#3 v=0
36840 On ch=1 n=d#7 v=77
36840 On ch=1 n=f#6 v=77
36840 On ch=1 n=c5 v=76
36888 On ch=1 n=d#6 v=0
36936 On ch=1 n=f#6 v=0
36936 On ch=1 n=d#7 v=0
36956 On ch=1 n=c5 v=0
36960 On ch=1 n=g#4 v=76
36964 On ch=1 n=f6 v=93
37076 On ch=1 n=g#4 v=0
37080 On ch=1 n=f7 v=79
37080 On ch=1 n=g#6 v=79
37080 On ch=1 n=f#4 v=76
37136 On ch=1 n=f6 v=0
37172 Par ch=1 c=64 v=0
37176 On ch=1 n=g#6 v=0
37176 On ch=1 n=f7 v=0
37196 On ch=1 n=f#4 v=0
37200 On ch=1 n=d#5 v=75
37204 On ch=1 n=f#6 v=95
37308 Par ch=1 c=64 v=127
37316 On ch=1 n=d#5 v=0
37320 On ch=1 n=f#7 v=80
37320 On ch=1 n=a#6 v=80
37320 On ch=1 n=g#4 v=75
37376 On ch=1 n=g#4 v=0
37380 On ch=1 n=f#6 v=0
37416 On ch=1 n=a#6 v=0
37416 On ch=1 n=f#7 v=0
37440 On ch=1 n=c#3 v=78
37444 On ch=1 n=f#6 v=103
37496 On ch=1 n=c#3 v=0
37560 On ch=1 n=f#7 v=77
37560 On ch=1 n=a#6 v=77
37560 On ch=1 n=f5 v=76
37592 On ch=1 n=f#6 v=0
37656 On ch=1 n=a#6 v=0
37656 On ch=1 n=f#7 v=0
37676 On ch=1 n=f5 v=0
37680 On ch=1 n=c#5 v=79
37684 On ch=1 n=f6 v=95
37796 On ch=1 n=c#5 v=0
37800 On ch=1 n=f7 v=79
37800 On ch=1 n=g#6 v=70
37800 On ch=1 n=g#4 v=79
37852 On ch=1 n=f6 v=0
37896 On ch=1 n=g#6 v=0
37896 On ch=1 n=f7 v=0
37916 On ch=1 n=g#4 v=0
37920 On ch=1 n=f5 v=77
37924 On ch=1 n=c6 v=92
37956 Par ch=1 c=64 v=0
38036 On ch=1 n=f5 v=0
38040 On ch=1 n=c7 v=69
38040 On ch=1 n=d#6 v=63
38040 On ch=1 n=c#5 v=77
38076 Par ch=1 c=64 v=127
38096 On ch=1 n=c#5 v=0
38120 On ch=1 n=c6 v=0
38136 On ch=1 n=d#6 v=0
38136 On ch=1 n=c7 v=0
38160 On ch=1 n=g3 v=75
38164 On ch=1 n=d#6 v=101
38216 On ch=1 n=g3 v=0
38280 On ch=1 n=d#7 v=70
38280 On ch=1 n=f#6 v=73
38280 On ch=1 n=c#5 v=74
38316 On ch=1 n=d#6 v=0
38376 On ch=1 n=f#6 v=0
38376 On ch=1 n=d#7 v=0
38396 On ch=1 n=c#5 v=0
38400 On ch=1 n=a#4 v=72
38404 On ch=1 n=c#6 v=83
38516 On ch=1 n=a#4 v=0
38520 On ch=1 n=c#7 v=77
38520 On ch=1 n=e6 v=69
38520 On ch=1 n=e4 v=71
38580 On ch=1 n=c#6 v=0
38616 On ch=1 n=e6 v=0
38616 On ch=1 n=c#7 v=0
38636 On ch=1 n=e4 v=0
38640 On ch=1 n=c#5 v=69
38644 On ch=1 n=a#5 v=86
38744 Par ch=1 c=64 v=0
38756 On ch=1 n=c#5 v=0
38760 On ch=1 n=a#6 v=62
38760 On ch=1 n=c#6 v=68
38760 On ch=1 n=a#4 v=67
38820 On ch=1 n=a#5 v=0
38836 On ch=1 n=a#4 v=0
38844 Par ch=1 c=64 v=127
38856 On ch=1 n=c#6 v=0
38856 On ch=1 n=a#6 v=0
38880 On ch=1 n=g#3 v=60
38884 On ch=1 n=a#5 v=86
38956 On ch=1 n=g#3 v=0
39000 On ch=1 n=a#6 v=63
39000 On ch=1 n=c#6 v=53
39000 On ch=1 n=c#5 v=54
39032 On ch=1 n=a#5 v=0
39096 On ch=1 n=c#6 v=0
39096 On ch=1 n=a#6 v=0
39116 On ch=1 n=c#5 v=0
39120 On ch=1 n=g#4 v=63
39124 On ch=1 n=a5 v=83
39236 On ch=1 n=g#4 v=0
39240 On ch=1 n=a6 v=76
39240 On ch=1 n=c#6 v=54
39240 On ch=1 n=f4 v=63
39280 On ch=1 n=a5 v=0
39336 On ch=1 n=c#6 v=0
39336 On ch=1 n=a6 v=0
39356 On ch=1 n=f4 v=0
39360 On ch=1 n=c#5 v=58
39364 On ch=1 n=g#5 v=85
39476 On ch=1 n=c#5 v=0
39480 On ch=1 n=c#6 v=55
39480 On ch=1 n=g#6 v=74
39480 On ch=1 n=g#4 v=64
39520 Par ch=1 c=64 v=0
39528 On ch=1 n=g#5 v=0
39556 On ch=1 n=g#4 v=0
39576 On ch=1 n=g#6 v=0
39576 On ch=1 n=c#6 v=0
39600 On ch=1 n=g#3 v=67
39604 On ch=1 n=g5 v=84
39608 Par ch=1 c=64 v=127
39676 On ch=1 n=g#3 v=0
39720 On ch=1 n=c6 v=57
39720 On ch=1 n=g6 v=73
39720 On ch=1 n=c5 v=63
39756 On ch=1 n=g5 v=0
39816 On ch=1 n=g6 v=0
39816 On ch=1 n=c6 v=0
39836 On ch=1 n=c5 v=0
39840 On ch=1 n=g#4 v=63
39844 On ch=1 n=f#5 v=84
39956 On ch=1 n=g#4 v=0
39960 On ch=1 n=f#6 v=70
39960 On ch=1 n=c6 v=66
39960 On ch=1 n=f#4 v=67
40004 On ch=1 n=f#5 v=0
40056 On ch=1 n=c6 v=0
40056 On ch=1 n=f#6 v=0
40076 On ch=1 n=f#4 v=0
40080 On ch=1 n=c5 v=66
40084 On ch=1 n=d#5 v=81
40164 Par ch=1 c=64 v=0
40196 On ch=1 n=c5 v=0
40200 On ch=1 n=d#6 v=70
40200 On ch=1 n=f#5 v=61
40200 On ch=1 n=g#4 v=63
40248 On ch=1 n=d#5 v=0
40256 On ch=1 n=g#4 v=0
40284 Par ch=1 c=64 v=127
40296 On ch=1 n=f#5 v=0
40296 On ch=1 n=d#6 v=0
40320 On ch=1 n=c#3 v=72
40324 On ch=1 n=c#5 v=81
40376 On ch=1 n=c#3 v=0
40440 On ch=1 n=c#6 v=62
40440 On ch=1 n=f5 v=63
40440 On ch=1 n=g#4 v=65
40508 On ch=1 n=c#5 v=0
40516 On ch=1 n=f5 v=0
40516 On ch=1 n=c#6 v=0
40556 On ch=1 n=g#4 v=0
40560 On ch=1 n=c#5 v=54
40560 On ch=1 n=c#4 v=62
40676 On ch=1 n=c#4 v=0
40676 On ch=1 n=c#5 v=0
40680 On ch=1 n=f5 v=61
40680 On ch=1 n=c#6 v=58
40680 On ch=1 n=g#3 v=73
40756 On ch=1 n=c#6 v=0
40756 On ch=1 n=f5 v=0
40796 On ch=1 n=g#3 v=0
40800 On ch=1 n=c#5 v=67
40800 On ch=1 n=g#4 v=59
40916 On ch=1 n=g#4 v=0
40916 On ch=1 n=c#5 v=0
40920 On ch=1 n=f5 v=57
40920 On ch=1 n=c#6 v=61
40920 On ch=1 n=c#4 v=57
40996 On ch=1 n=c#4 v=0
40996 On ch=1 n=c#6 v=0
40996 On ch=1 n=f5 v=0
41040 On ch=1 n=c#5 v=68
41040 On ch=1 n=c#3 v=67
41116 On ch=1 n=c#3 v=0
41156 On ch=1 n=c#5 v=0
41160 On ch=1 n=f5 v=61
41160 On ch=1 n=c#6 v=66
41160 On ch=1 n=g#4 v=60
41276 On ch=1 n=g#4 v=0
41276 On ch=1 n=c#6 v=0
41276 On ch=1 n=f5 v=0
41280 On ch=1 n=c#5 v=64
41280 On ch=1 n=c#4 v=60
41396 On ch=1 n=c#4 v=0
41396 On ch=1 n=c#5 v=0
41400 On ch=1 n=f5 v=76
41400 On ch=1 n=c#6 v=79
41400 On ch=1 n=g#3 v=72
41516 On ch=1 n=g#3 v=0
41516 On ch=1 n=c#6 v=0
41516 On ch=1 n=f5 v=0
41520 On ch=1 n=c#5 v=66
41520 On ch=1 n=g#4 v=61
41636 On ch=1 n=g#4 v=0
41636 On ch=1 n=c#5 v=0
41640 On ch=1 n=f5 v=63
41640 On ch=1 n=c#6 v=62
41640 On ch=1 n=c#4 v=57
41716 On ch=1 n=c#4 v=0
41716 On ch=1 n=c#6 v=0
41716 On ch=1 n=f5 v=0
41720 Par ch=1 c=64 v=0
41760 On ch=1 n=c#5 v=63
41760 On ch=1 n=c#3 v=66
41784 Par ch=1 c=64 v=127
41836 On ch=1 n=c#3 v=0
41876 On ch=1 n=c#5 v=0
41880 On ch=1 n=e5 v=66
41880 On ch=1 n=c#6 v=60
41880 On ch=1 n=g#4 v=59
41956 On ch=1 n=c#6 v=0
41956 On ch=1 n=e5 v=0
41996 On ch=1 n=g#4 v=0
42000 On ch=1 n=c#5 v=64
42000 On ch=1 n=c#4 v=51
42116 On ch=1 n=c#4 v=0
42116 On ch=1 n=c#5 v=0
42120 On ch=1 n=c#6 v=63
42120 On ch=1 n=e5 v=64
42120 On ch=1 n=g#3 v=70
42196 On ch=1 n=e5 v=0
42196 On ch=1 n=c#6 v=0
42236 On ch=1 n=g#3 v=0
42240 On ch=1 n=c#5 v=65
42240 On ch=1 n=g#4 v=61
42356 On ch=1 n=g#4 v=0
42356 On ch=1 n=c#5 v=0
42360 On ch=1 n=c#6 v=68
42360 On ch=1 n=e5 v=66
42360 On ch=1 n=c#4 v=67
42436 On ch=1 n=c#4 v=0
42436 On ch=1 n=e5 v=0
42436 On ch=1 n=c#6 v=0
42480 On ch=1 n=c#5 v=68
42480 On ch=1 n=c#3 v=64
42556 On ch=1 n=c#3 v=0
42596 On ch=1 n=c#5 v=0
42600 On ch=1 n=e5 v=67
42600 On ch=1 n=c#6 v=55
42600 On ch=1 n=g#4 v=59
42716 On ch=1 n=g#4 v=0
42716 On ch=1 n=c#6 v=0
42716 On ch=1 n=e5 v=0
42720 On ch=1 n=c#5 v=78
42720 On ch=1 n=c#4 v=51
42836 On ch=1 n=c#4 v=0
42836 On ch=1 n=c#5 v=0
42840 On ch=1 n=e5 v=62
42840 On ch=1 n=c#6 v=72
42840 On ch=1 n=g#3 v=67
42884 Par ch=1 c=64 v=0
42916 On ch=1 n=c#6 v=0
42916 On ch=1 n=e5 v=0
42956 On ch=1 n=g#3 v=0
42960 On ch=1 n=c#6 v=77
42960 On ch=1 n=g#4 v=60
43024 Par ch=1 c=64 v=127
43076 On ch=1 n=g#4 v=0
43076 On ch=1 n=c#6 v=0
43080 On ch=1 n=c#7 v=70
43080 On ch=1 n=e6 v=81
43080 On ch=1 n=c#4 v=66
43196 On ch=1 n=c#4 v=0
43196 On ch=1 n=e6 v=0
43196 On ch=1 n=c#7 v=0
43200 On ch=1 n=c#6 v=63
43200 On ch=1 n=a3 v=57
43272 On ch=1 n=a3 v=0
43316 On ch=1 n=c#6 v=0
43320 On ch=1 n=e6 v=53
43320 On ch=1 n=c#7 v=60
43320 On ch=1 n=e5 v=57
43428 On ch=1 n=c#7 v=0
43428 On ch=1 n=e6 v=0
43436 On ch=1 n=e5 v=0
43440 On ch=1 n=d6 v=70
43440 On ch=1 n=b4 v=61
43556 On ch=1 n=b4 v=0
43556 On ch=1 n=d6 v=0
43560 On ch=1 n=d7 v=68
43560 On ch=1 n=f#6 v=61
43560 On ch=1 n=e4 v=57
43668 On ch=1 n=f#6 v=0
43668 On ch=1 n=d7 v=0
43676 On ch=1 n=e4 v=0
43680 On ch=1 n=c#6 v=65
43680 On ch=1 n=e5 v=57
43796 On ch=1 n=e5 v=0
43796 On ch=1 n=c#6 v=0
43800 On ch=1 n=e6 v=58
43800 On ch=1 n=c#7 v=71
43800 On ch=1 n=a4 v=48
43820 Par ch=1 c=64 v=0
43868 Par ch=1 c=64 v=127
43872 On ch=1 n=a4 v=0
43908 On ch=1 n=c#7 v=0
43908 On ch=1 n=e6 v=0
43920 On ch=1 n=b5 v=67
43920 On ch=1 n=a3 v=54
43992 On ch=1 n=a3 v=0
44036 On ch=1 n=b5 v=0
44040 On ch=1 n=b6 v=62
44040 On ch=1 n=d#6 v=63
44040 On ch=1 n=d#5 v=54
44148 On ch=1 n=d#6 v=0
44148 On ch=1 n=b6 v=0
44156 On ch=1 n=d#5 v=0
44160 On ch=1 n=f#5 v=61
44160 On ch=1 n=a4 v=50
44276 On ch=1 n=a4 v=0
44276 On ch=1 n=f#5 v=0
44280 On ch=1 n=f#6 v=68
44280 On ch=1 n=a5 v=62
44280 On ch=1 n=f#4 v=53
44388 On ch=1 n=a5 v=0
44388 On ch=1 n=f#6 v=0
44396 On ch=1 n=f#4 v=0
44400 On ch=1 n=g#5 v=66
44400 On ch=1 n=d#5 v=57
44516 On ch=1 n=d#5 v=0
44516 On ch=1 n=g#5 v=0
44520 On ch=1 n=g#6 v=66
44520 On ch=1 n=b5 v=62
44520 On ch=1 n=a4 v=48
44592 On ch=1 n=a4 v=0
44600 Par ch=1 c=64 v=0
44628 On ch=1 n=b5 v=0
44628 On ch=1 n=g#6 v=0
44640 On ch=1 n=a5 v=59
44640 On ch=1 n=a3 v=53
44660 Par ch=1 c=64 v=127
44712 On ch=1 n=a3 v=0
44756 On ch=1 n=a5 v=0
44760 On ch=1 n=c#6 v=45
44760 On ch=1 n=a6 v=66
44760 On ch=1 n=d5 v=55
44868 On ch=1 n=a6 v=0
44868 On ch=1 n=c#6 v=0
44876 On ch=1 n=d5 v=0
44880 On ch=1 n=c#6 v=63
44880 On ch=1 n=g#4 v=60
44996 On ch=1 n=g#4 v=0
44996 On ch=1 n=c#6 v=0
45000 On ch=1 n=c#7 v=65
45000 On ch=1 n=e6 v=65
45000 On ch=1 n=e4 v=58
45108 On ch=1 n=e6 v=0
45108 On ch=1 n=c#7 v=0
45116 On ch=1 n=e4 v=0
45120 On ch=1 n=b5 v=72
45120 On ch=1 n=d5 v=59
45236 On ch=1 n=d5 v=0
45236 On ch=1 n=b5 v=0
45240 On ch=1 n=b6 v=64
45240 On ch=1 n=d6 v=64
45240 On ch=1 n=g#4 v=51
45292 Par ch=1 c=64 v=0
45312 On ch=1 n=g#4 v=0
45348 On ch=1 n=d6 v=0
45348 On ch=1 n=b6 v=0
45352 Par ch=1 c=64 v=127
45360 On ch=1 n=a5 v=66
45360 On ch=1 n=a3 v=55
45432 On ch=1 n=a3 v=0
45476 On ch=1 n=a5 v=0
45480 On ch=1 n=a6 v=69
45480 On ch=1 n=c#6 v=61
45480 On ch=1 n=c#5 v=57
45588 On ch=1 n=c#6 v=0
45588 On ch=1 n=a6 v=0
45596 On ch=1 n=c#5 v=0
45600 On ch=1 n=e5 v=65
45600 On ch=1 n=a4 v=56
45716 On ch=1 n=a4 v=0
45716 On ch=1 n=e5 v=0
45720 On ch=1 n=e6 v=64
45720 On ch=1 n=g#5 v=53
45720 On ch=1 n=e4 v=56
45828 On ch=1 n=g#5 v=0
45828 On ch=1 n=e6 v=0
45836 On ch=1 n=e4 v=0
45840 On ch=1 n=f#5 v=65
45840 On ch=1 n=c#5 v=57
45956 On ch=1 n=c#5 v=0
45956 On ch=1 n=f#5 v=0
45960 On ch=1 n=a5 v=60
45960 On ch=1 n=f#6 v=62
45960 On ch=1 n=a4 v=46
46004 Par ch=1 c=64 v=0
46032 On ch=1 n=a4 v=0
46068 On ch=1 n=f#6 v=0
46068 On ch=1 n=a5 v=0
46080 On ch=1 n=a5 v=70
46080 Par ch=1 c=64 v=127
46080 On ch=1 n=a3 v=54
46152 On ch=1 n=a3 v=0
46196 On ch=1 n=a5 v=0
46200 On ch=1 n=a6 v=62
46200 On ch=1 n=c#6 v=48
46200 On ch=1 n=d5 v=54
46308 On ch=1 n=c#6 v=0
46308 On ch=1 n=a6 v=0
46316 On ch=1 n=d5 v=0
46320 On ch=1 n=g#5 v=66
46320 On ch=1 n=b4 v=63
46436 On ch=1 n=b4 v=0
46436 On ch=1 n=g#5 v=0
46440 On ch=1 n=g#6 v=63
46440 On ch=1 n=b5 v=59
46440 On ch=1 n=e4 v=65
46548 On ch=1 n=b5 v=0
46548 On ch=1 n=g#6 v=0
46556 On ch=1 n=e4 v=0
46560 On ch=1 n=a5 v=64
46560 On ch=1 n=e5 v=57
46676 On ch=1 n=e5 v=0
46676 On ch=1 n=a5 v=0
46680 On ch=1 n=a6 v=64
46680 On ch=1 n=c#6 v=50
46680 On ch=1 n=b4 v=46
46740 Par ch=1 c=64 v=0
46752 On ch=1 n=b4 v=0
46788 On ch=1 n=c#6 v=0
46788 On ch=1 n=a6 v=0
46800 On ch=1 n=c#6 v=63
46800 On ch=1 n=a3 v=53
46820 Par ch=1 c=64 v=127
46872 On ch=1 n=a3 v=0
46916 On ch=1 n=c#6 v=0
46920 On ch=1 n=c#7 v=61
46920 On ch=1 n=e6 v=56
46920 On ch=1 n=d5 v=60
47028 On ch=1 n=e6 v=0
47028 On ch=1 n=c#7 v=0
47036 On ch=1 n=d5 v=0
47040 On ch=1 n=b5 v=69
47040 On ch=1 n=g#4 v=58
47156 On ch=1 n=g#4 v=0
47156 On ch=1 n=b5 v=0
47160 On ch=1 n=b6 v=70
47160 On ch=1 n=d6 v=58
47160 On ch=1 n=e4 v=62
47268 On ch=1 n=d6 v=0
47268 On ch=1 n=b6 v=0
47276 On ch=1 n=e4 v=0
47280 On ch=1 n=c#6 v=65
47280 On ch=1 n=e5 v=58
47396 On ch=1 n=e5 v=0
47396 On ch=1 n=c#6 v=0
47400 On ch=1 n=e6 v=65
47400 On ch=1 n=c#7 v=72
47400 On ch=1 n=g#4 v=58
47444 Par ch=1 c=64 v=0
47472 On ch=1 n=g#4 v=0
47508 On ch=1 n=c#7 v=0
47508 On ch=1 n=e6 v=0
47516 Par ch=1 c=64 v=127
47520 On ch=1 n=e6 v=68
47520 On ch=1 n=a3 v=55
47592 On ch=1 n=a3 v=0
47636 On ch=1 n=e6 v=0
47640 On ch=1 n=g#6 v=54
47640 On ch=1 n=e7 v=68
47640 On ch=1 n=d5 v=50
47748 On ch=1 n=e7 v=0
47748 On ch=1 n=g#6 v=0
47756 On ch=1 n=d5 v=0
47760 On ch=1 n=d6 v=70
47760 On ch=1 n=b4 v=55
47876 On ch=1 n=b4 v=0
47876 On ch=1 n=d6 v=0
47880 On ch=1 n=d7 v=74
47880 On ch=1 n=f#6 v=50
47880 On ch=1 n=e4 v=55
47988 On ch=1 n=f#6 v=0
47988 On ch=1 n=d7 v=0
47996 On ch=1 n=e4 v=0
48000 On ch=1 n=e6 v=63
48000 On ch=1 n=e5 v=58
48116 On ch=1 n=e5 v=0
48116 On ch=1 n=e6 v=0
48120 On ch=1 n=e7 v=65
48120 On ch=1 n=g#6 v=59
48120 On ch=1 n=b4 v=51
48192 On ch=1 n=b4 v=0
48228 On ch=1 n=g#6 v=0
48228 On ch=1 n=e7 v=0
48240 On ch=1 n=g#6 v=69
48240 On ch=1 n=a3 v=51
48312 On ch=1 n=a3 v=0
48356 On ch=1 n=g#6 v=0
48360 On ch=1 n=g#7 v=63
48360 On ch=1 n=b6 v=62
48360 On ch=1 n=d5 v=55
48468 On ch=1 n=b6 v=0
48468 On ch=1 n=g#7 v=0
48476 On ch=1 n=d5 v=0
48480 On ch=1 n=f#6 v=70
48480 On ch=1 n=g#4 v=57
48596 On ch=1 n=g#4 v=0
48596 On ch=1 n=f#6 v=0
48600 On ch=1 n=a6 v=61
48600 On ch=1 n=f#7 v=62
48600 On ch=1 n=e4 v=61
48708 On ch=1 n=f#7 v=0
48708 On ch=1 n=a6 v=0
48716 On ch=1 n=e4 v=0
48720 On ch=1 n=e6 v=62
48720 On ch=1 n=e5 v=57
48836 On ch=1 n=e5 v=0
48836 On ch=1 n=e6 v=0
48840 On ch=1 n=e7 v=66
48840 On ch=1 n=g#6 v=56
48840 On ch=1 n=b4 v=54
48892 Par ch=1 c=64 v=0
48912 On ch=1 n=b4 v=0
48948 On ch=1 n=g#6 v=0
48948 On ch=1 n=e7 v=0
48956 Par ch=1 c=64 v=127
48960 On ch=1 n=a3 v=57
48968 On ch=1 n=c#6 v=77
49032 On ch=1 n=a3 v=0
49080 On ch=1 n=c#7 v=68
49080 On ch=1 n=e6 v=68
49080 On ch=1 n=e5 v=59
49132 On ch=1 n=c#6 v=0
49188 On ch=1 n=e6 v=0
49188 On ch=1 n=c#7 v=0
49196 On ch=1 n=e5 v=0
49200 On ch=1 n=b4 v=67
49204 On ch=1 n=d6 v=80
49316 On ch=1 n=b4 v=0
49320 On ch=1 n=d7 v=66
49320 On ch=1 n=f6 v=66
49320 On ch=1 n=e4 v=60
49352 On ch=1 n=d6 v=0
49428 On ch=1 n=f6 v=0
49428 On ch=1 n=d7 v=0
49436 On ch=1 n=e4 v=0
49436 On ch=1 n=c#6 v=75
49440 On ch=1 n=e5 v=61
49556 On ch=1 n=e5 v=0
49560 On ch=1 n=c#7 v=65
49560 On ch=1 n=e6 v=65
49560 On ch=1 n=a4 v=53
49588 Par ch=1 c=64 v=0
49616 On ch=1 n=c#6 v=0
49632 On ch=1 n=a4 v=0
49656 Par ch=1 c=64 v=127
49668 On ch=1 n=e6 v=0
49668 On ch=1 n=c#7 v=0
49676 On ch=1 n=b5 v=78
49680 On ch=1 n=a3 v=59
49752 On ch=1 n=a3 v=0
49800 On ch=1 n=d6 v=64
49800 On ch=1 n=b6 v=64
49800 On ch=1 n=d5 v=65
49836 On ch=1 n=b5 v=0
49908 On ch=1 n=b6 v=0
49908 On ch=1 n=d6 v=0
49912 On ch=1 n=f5 v=74
49916 On ch=1 n=d5 v=0
49920 On ch=1 n=a4 v=68
50036 On ch=1 n=a4 v=0
50040 On ch=1 n=a5 v=65
50040 On ch=1 n=f6 v=65
50040 On ch=1 n=f4 v=75
50084 On ch=1 n=f5 v=0
50148 On ch=1 n=f6 v=0
50148 On ch=1 n=a5 v=0
50156 On ch=1 n=f4 v=0
50156 On ch=1 n=a5 v=75
50160 On ch=1 n=d5 v=66
50276 On ch=1 n=d5 v=0
50280 On ch=1 n=a6 v=66
50280 On ch=1 n=c#6 v=66
50280 On ch=1 n=a4 v=55
50316 On ch=1 n=a5 v=0
50348 Par ch=1 c=64 v=0
50352 On ch=1 n=a4 v=0
50388 On ch=1 n=c#6 v=0
50388 On ch=1 n=a6 v=0
50400 On ch=1 n=b5 v=81
50400 On ch=1 n=a3 v=60
50416 Par ch=1 c=64 v=127
50472 On ch=1 n=a3 v=0
50520 On ch=1 n=b6 v=61
50520 On ch=1 n=d6 v=61
50520 On ch=1 n=d5 v=65
50572 On ch=1 n=b5 v=0
50628 On ch=1 n=d6 v=0
50628 On ch=1 n=b6 v=0
50636 On ch=1 n=d5 v=0
50636 On ch=1 n=c#6 v=80
50640 On ch=1 n=g#4 v=68
50756 On ch=1 n=g#4 v=0
50760 On ch=1 n=e6 v=65
50760 On ch=1 n=c#7 v=65
50760 On ch=1 n=e4 v=69
50800 On ch=1 n=c#6 v=0
50868 On ch=1 n=c#7 v=0
50868 On ch=1 n=e6 v=0
50876 On ch=1 n=e4 v=0
50876 On ch=1 n=b5 v=84
50880 On ch=1 n=d5 v=68
50996 On ch=1 n=d5 v=0
51000 On ch=1 n=d6 v=63
51000 On ch=1 n=b6 v=63
51000 On ch=1 n=g#4 v=54
51052 On ch=1 n=b5 v=0
51072 On ch=1 n=g#4 v=0
51084 Par ch=1 c=64 v=0
51108 On ch=1 n=b6 v=0
51108 On ch=1 n=d6 v=0
51116 On ch=1 n=a5 v=80
51120 On ch=1 n=a3 v=56
51144 Par ch=1 c=64 v=127
51192 On ch=1 n=a3 v=0
51240 On ch=1 n=c#6 v=66
51240 On ch=1 n=a6 v=66
51240 On ch=1 n=c#5 v=60
51296 On ch=1 n=a5 v=0
51348 On ch=1 n=a6 v=0
51348 On ch=1 n=c#6 v=0
51356 On ch=1 n=c#5 v=0
51356 On ch=1 n=g#5 v=84
51360 On ch=1 n=a4 v=56
51476 On ch=1 n=a4 v=0
51480 On ch=1 n=c#6 v=68
51480 On ch=1 n=g#6 v=68
51480 On ch=1 n=e4 v=62
51520 On ch=1 n=g#5 v=0
51588 On ch=1 n=g#6 v=0
51588 On ch=1 n=c#6 v=0
51596 On ch=1 n=e4 v=0
51600 On ch=1 n=g5 v=79
51600 On ch=1 n=e5 v=61
51716 On ch=1 n=e5 v=0
51720 On ch=1 n=c#6 v=70
51720 On ch=1 n=g6 v=70
51720 On ch=1 n=b4 v=52
51740 Par ch=1 c=64 v=0
51744 On ch=1 n=g5 v=0
51792 On ch=1 n=b4 v=0
51828 On ch=1 n=g6 v=0
51828 On ch=1 n=c#6 v=0
51836 Par ch=1 c=64 v=127
51840 On ch=1 n=g#3 v=59
51844 On ch=1 n=g#5 v=80
51912 On ch=1 n=g#3 v=0
51960 On ch=1 n=g#6 v=72
51960 On ch=1 n=c6 v=61
51960 On ch=1 n=c5 v=59
52036 On ch=1 n=g#5 v=0
52068 On ch=1 n=c6 v=0
52068 On ch=1 n=g#6 v=0
52076 On ch=1 n=c5 v=0
52080 On ch=1 n=g#4 v=67
52084 On ch=1 n=a#5 v=85
52196 On ch=1 n=g#4 v=0
52200 On ch=1 n=c#6 v=78
52200 On ch=1 n=a#6 v=78
52200 On ch=1 n=f#4 v=75
52264 On ch=1 n=a#5 v=0
52308 On ch=1 n=a#6 v=0
52308 On ch=1 n=c#6 v=0
52316 On ch=1 n=f#4 v=0
52320 On ch=1 n=d#5 v=72
52324 On ch=1 n=b5 v=89
52412 Par ch=1 c=64 v=0
52436 On ch=1 n=d#5 v=0
52440 On ch=1 n=d6 v=71
52440 On ch=1 n=b6 v=71
52440 On ch=1 n=g#4 v=57
52504 Par ch=1 c=64 v=127
52512 On ch=1 n=g#4 v=0
52516 On ch=1 n=b5 v=0
52548 On ch=1 n=b6 v=0
52548 On ch=1 n=d6 v=0
52560 On ch=1 n=g#3 v=60
52564 On ch=1 n=c6 v=88
52632 On ch=1 n=g#3 v=0
52680 On ch=1 n=d#6 v=77
52680 On ch=1 n=c7 v=77
52680 On ch=1 n=c5 v=66
52740 On ch=1 n=c6 v=0
52788 On ch=1 n=c7 v=0
52788 On ch=1 n=d#6 v=0
52796 On ch=1 n=c5 v=0
52800 On ch=1 n=g#4 v=74
52804 On ch=1 n=c#6 v=88
52916 On ch=1 n=g#4 v=0
52920 On ch=1 n=c#7 v=72
52920 On ch=1 n=f6 v=66
52920 On ch=1 n=f#4 v=60
52964 On ch=1 n=c#6 v=0
53028 On ch=1 n=f6 v=0
53028 On ch=1 n=c#7 v=0
53036 On ch=1 n=f#4 v=0
53040 On ch=1 n=d#5 v=65
53044 On ch=1 n=d#6 v=90
53156 On ch=1 n=d#5 v=0
53160 On ch=1 n=f#6 v=80
53160 On ch=1 n=d#7 v=80
53160 On ch=1 n=g#4 v=65
53168 Par ch=1 c=64 v=0
53196 On ch=1 n=d#6 v=0
53232 On ch=1 n=g#4 v=0
53268 On ch=1 n=d#7 v=0
53268 On ch=1 n=f#6 v=0
53280 Par ch=1 c=64 v=127
53280 On ch=1 n=c#4 v=71
53288 On ch=1 n=f6 v=93
53352 On ch=1 n=c#4 v=0
53400 On ch=1 n=f7 v=77
53400 On ch=1 n=g#6 v=77
53400 On ch=1 n=f5 v=66
53436 On ch=1 n=f6 v=0
53508 On ch=1 n=g#6 v=0
53508 On ch=1 n=f7 v=0
53516 On ch=1 n=f5 v=0
53520 On ch=1 n=c#5 v=73
53524 On ch=1 n=f#6 v=93
53636 On ch=1 n=c#5 v=0
53640 On ch=1 n=f#7 v=71
53640 On ch=1 n=a6 v=71
53640 On ch=1 n=b4 v=74
53676 On ch=1 n=f#6 v=0
53748 On ch=1 n=a6 v=0
53748 On ch=1 n=f#7 v=0
53756 On ch=1 n=b4 v=0
53760 On ch=1 n=g#5 v=73
53764 On ch=1 n=g6 v=95
53876 On ch=1 n=g#5 v=0
53880 On ch=1 n=a#6 v=66
53880 On ch=1 n=g7 v=76
53880 On ch=1 n=c#5 v=71
53892 Par ch=1 c=64 v=0
53912 On ch=1 n=g6 v=0
53952 On ch=1 n=c#5 v=0
53988 On ch=1 n=g7 v=0
53988 On ch=1 n=a#6 v=0
54000 On ch=1 n=c#4 v=82
54004 On ch=1 n=g#6 v=92
54008 Par ch=1 c=64 v=127
54072 On ch=1 n=c#4 v=0
54120 On ch=1 n=b6 v=74
54120 On ch=1 n=g#7 v=80
54120 On ch=1 n=f5 v=78
54144 On ch=1 n=g#6 v=0
54228 On ch=1 n=g#7 v=0
54228 On ch=1 n=b6 v=0
54236 On ch=1 n=f5 v=0
54240 On ch=1 n=c#5 v=75
54244 On ch=1 n=a#6 v=94
54356 On ch=1 n=c#5 v=0
54360 On ch=1 n=a#7 v=72
54360 On ch=1 n=c#7 v=64
54360 On ch=1 n=b4 v=75
54408 On ch=1 n=a#6 v=0
54468 On ch=1 n=c#7 v=0
54468 On ch=1 n=a#7 v=0
54476 On ch=1 n=b4 v=0
54480 On ch=1 n=g#5 v=80
54484 On ch=1 n=b6 v=96
54596 On ch=1 n=g#5 v=0
54600 On ch=1 n=b7 v=78
54600 On ch=1 n=d#7 v=75
54600 On ch=1 n=f5 v=71
54604 Par ch=1 c=64 v=0
54648 On ch=1 n=b6 v=0
54672 On ch=1 n=f5 v=0
54688 Par ch=1 c=64 v=127
54708 On ch=1 n=d#7 v=0
54708 On ch=1 n=b7 v=0
54720 On ch=1 n=f#4 v=76
54724 On ch=1 n=b6 v=91
54836 On ch=1 n=f#4 v=0
54840 On ch=1 n=b7 v=68
54840 On ch=1 n=d#7 v=71
54840 On ch=1 n=f#5 v=79
54880 On ch=1 n=b6 v=0
54948 On ch=1 n=d#7 v=0
54948 On ch=1 n=b7 v=0
54956 On ch=1 n=f#5 v=0
54960 On ch=1 n=c#5 v=72
54964 On ch=1 n=a#6 v=86
55076 On ch=1 n=c#5 v=0
55080 On ch=1 n=a#7 v=79
55080 On ch=1 n=c#7 v=68
55080 On ch=1 n=a#4 v=75
55120 On ch=1 n=a#6 v=0
55188 On ch=1 n=c#7 v=0
55188 On ch=1 n=a#7 v=0
55196 On ch=1 n=a#4 v=0
55200 On ch=1 n=a#5 v=74
55204 On ch=1 n=f6 v=79
55316 On ch=1 n=a#5 v=0
55320 On ch=1 n=f7 v=77
55320 On ch=1 n=g#6 v=60
55320 Par ch=1 c=64 v=0
55320 On ch=1 n=c#5 v=74
55392 On ch=1 n=f6 v=0
55396 On ch=1 n=c#5 v=0
55408 Par ch=1 c=64 v=127
55428 On ch=1 n=g#6 v=0
55428 On ch=1 n=f7 v=0
55440 On ch=1 n=b3 v=74
55444 On ch=1 n=g#6 v=86
55516 On ch=1 n=b3 v=0
55560 On ch=1 n=g#7 v=78
55560 On ch=1 n=b6 v=57
55560 On ch=1 n=d#5 v=76
55612 On ch=1 n=g#6 v=0
55668 On ch=1 n=b6 v=0
55668 On ch=1 n=g#7 v=0
55676 On ch=1 n=d#5 v=0
55680 On ch=1 n=b4 v=73
55684 On ch=1 n=f#6 v=80
55796 On ch=1 n=b4 v=0
55800 On ch=1 n=f#7 v=78
55800 On ch=1 n=b6 v=59
55800 On ch=1 n=g#4 v=72
55828 On ch=1 n=f#6 v=0
55908 On ch=1 n=b6 v=0
55908 On ch=1 n=f#7 v=0
55916 On ch=1 n=g#4 v=0
55920 On ch=1 n=f#5 v=72
55924 On ch=1 n=d#6 v=85
56036 On ch=1 n=f#5 v=0
56036 Par ch=1 c=64 v=0
56040 On ch=1 n=d#7 v=70
56040 On ch=1 n=f#6 v=62
56040 On ch=1 n=b4 v=71
56080 On ch=1 n=d#6 v=0
56148 On ch=1 n=f#6 v=0
56148 On ch=1 n=d#7 v=0
56148 Par ch=1 c=64 v=127
56156 On ch=1 n=b4 v=0
56160 On ch=1 n=c#4 v=72
56164 On ch=1 n=d#6 v=83
56276 On ch=1 n=c#4 v=0
56280 On ch=1 n=d#7 v=69
56280 On ch=1 n=f#6 v=69
56280 On ch=1 n=c#5 v=70
56324 On ch=1 n=d#6 v=0
56388 On ch=1 n=f#6 v=0
56388 On ch=1 n=d#7 v=0
56396 On ch=1 n=c#5 v=0
56400 On ch=1 n=a#4 v=68
56404 On ch=1 n=d6 v=84
56516 On ch=1 n=a#4 v=0
56520 On ch=1 n=d7 v=64
56520 On ch=1 n=f#6 v=64
56520 On ch=1 n=f#4 v=69
56568 On ch=1 n=d6 v=0
56628 On ch=1 n=f#6 v=0
56628 On ch=1 n=d7 v=0
56636 On ch=1 n=f#4 v=0
56640 On ch=1 n=f#5 v=70
56644 On ch=1 n=c#6 v=79
56756 On ch=1 n=f#5 v=0
56760 On ch=1 n=c#7 v=60
56760 On ch=1 n=f#6 v=60
56760 On ch=1 n=a#4 v=67
56780 Par ch=1 c=64 v=0
56804 On ch=1 n=c#6 v=0
56868 On ch=1 n=f#6 v=0
56868 On ch=1 n=c#7 v=0
56876 On ch=1 n=a#4 v=0
56880 Par ch=1 c=64 v=127
56880 On ch=1 n=c#4 v=68
56884 On ch=1 n=c#6 v=78
56956 On ch=1 n=c#4 v=0
57000 On ch=1 n=c#7 v=60
57000 On ch=1 n=f6 v=60
57000 On ch=1 n=f5 v=63
57024 On ch=1 n=c#6 v=0
57108 On ch=1 n=f6 v=0
57108 On ch=1 n=c#7 v=0
57116 On ch=1 n=f5 v=0
57120 On ch=1 n=b4 v=65
57124 On ch=1 n=c6 v=76
57236 On ch=1 n=b4 v=0
57240 On ch=1 n=c7 v=61
57240 On ch=1 n=f6 v=61
57240 On ch=1 n=g#4 v=62
57272 On ch=1 n=c6 v=0
57348 On ch=1 n=f6 v=0
57348 On ch=1 n=c7 v=0
57356 On ch=1 n=g#4 v=0
57360 On ch=1 n=g#5 v=64
57364 On ch=1 n=b5 v=78
57456 Par ch=1 c=64 v=0
57476 On ch=1 n=g#5 v=0
57480 On ch=1 n=b6 v=62
57480 On ch=1 n=f6 v=62
57480 On ch=1 n=b4 v=67
57512 On ch=1 n=b5 v=0
57548 Par ch=1 c=64 v=127
57556 On ch=1 n=b4 v=0
57588 On ch=1 n=f6 v=0
57588 On ch=1 n=b6 v=0
57600 On ch=1 n=d4 v=63
57604 On ch=1 n=a#5 v=75
57676 On ch=1 n=d4 v=0
57720 On ch=1 n=a#6 v=67
57720 On ch=1 n=d6 v=67
57720 On ch=1 n=f5 v=60
57804 On ch=1 n=a#5 v=0
57828 On ch=1 n=d6 v=0
57828 On ch=1 n=a#6 v=0
57836 On ch=1 n=f5 v=0
57840 On ch=1 n=a#4 v=58
57848 On ch=1 n=c6 v=77
57956 On ch=1 n=a#4 v=0
57960 On ch=1 n=c7 v=66
57960 On ch=1 n=d#6 v=66
57960 On ch=1 n=g#4 v=64
58016 On ch=1 n=c6 v=0
58068 On ch=1 n=d#6 v=0
58068 On ch=1 n=c7 v=0
58076 On ch=1 n=g#4 v=0
58080 On ch=1 n=g#5 v=57
58084 On ch=1 n=c#6 v=77
58160 Par ch=1 c=64 v=0
58196 On ch=1 n=g#5 v=0
58200 On ch=1 n=e6 v=65
58200 On ch=1 n=c#7 v=65
58200 On ch=1 n=a#4 v=63
58252 On ch=1 n=c#6 v=0
58256 Par ch=1 c=64 v=127
58276 On ch=1 n=a#4 v=0
58308 On ch=1 n=c#7 v=0
58308 On ch=1 n=e6 v=0
58320 On ch=1 n=a#3 v=65
58324 On ch=1 n=d6 v=78
58396 On ch=1 n=a#3 v=0
58440 On ch=1 n=f6 v=64
58440 On ch=1 n=d7 v=64
58440 On ch=1 n=d5 v=58
58488 On ch=1 n=d6 v=0
58548 On ch=1 n=d7 v=0
58548 On ch=1 n=f6 v=0
58556 On ch=1 n=d5 v=0
58560 On ch=1 n=a#4 v=68
58564 On ch=1 n=d#6 v=77
58676 On ch=1 n=a#4 v=0
58680 On ch=1 n=g6 v=65
58680 On ch=1 n=d#7 v=65
58680 On ch=1 n=g#4 v=67
58728 On ch=1 n=d#6 v=0
58788 On ch=1 n=d#7 v=0
58788 On ch=1 n=g6 v=0
58796 On ch=1 n=g#4 v=0
58800 On ch=1 n=g#5 v=67
58804 On ch=1 n=f6 v=77
58880 Par ch=1 c=64 v=0
58916 On ch=1 n=g#5 v=0
58920 On ch=1 n=a#6 v=68
58920 On ch=1 n=f7 v=68
58920 On ch=1 n=a#4 v=50
58960 On ch=1 n=f6 v=0
58964 Par ch=1 c=64 v=127
59028 On ch=1 n=f7 v=0
59028 On ch=1 n=a#6 v=0
59036 On ch=1 n=a#4 v=0
59040 On ch=1 n=d#4 v=67
59044 On ch=1 n=g#6 v=85
59156 On ch=1 n=d#4 v=0
59160 On ch=1 n=c7 v=64
59160 On ch=1 n=g#7 v=64
59160 On ch=1 n=d#5 v=60
59196 On ch=1 n=g#6 v=0
59268 On ch=1 n=g#7 v=0
59268 On ch=1 n=c7 v=0
59276 On ch=1 n=d#5 v=0
59276 On ch=1 n=g6 v=85
59280 On ch=1 n=a#4 v=64
59396 On ch=1 n=a#4 v=0
59400 On ch=1 n=a#6 v=65
59400 On ch=1 n=g7 v=65
59400 On ch=1 n=g4 v=69
59424 On ch=1 n=g6 v=0
59508 On ch=1 n=g7 v=0
59508 On ch=1 n=a#6 v=0
59516 On ch=1 n=g4 v=0
59520 On ch=1 n=g5 v=59
59524 On ch=1 n=d6 v=82
59580 Par ch=1 c=64 v=0
59636 On ch=1 n=g5 v=0
59640 On ch=1 n=d7 v=63
59640 On ch=1 n=f6 v=63
59640 On ch=1 n=a#4 v=65
59660 Par ch=1 c=64 v=127
59708 On ch=1 n=d6 v=0
59716 On ch=1 n=a#4 v=0
59748 On ch=1 n=f6 v=0
59748 On ch=1 n=d7 v=0
59760 On ch=1 n=a3 v=68
59764 On ch=1 n=f6 v=98
59836 On ch=1 n=a3 v=0
59880 On ch=1 n=f7 v=68
59880 On ch=1 n=a6 v=68
59880 On ch=1 n=d#5 v=61
59928 On ch=1 n=f6 v=0
59988 On ch=1 n=a6 v=0
59988 On ch=1 n=f7 v=0
59996 On ch=1 n=d#5 v=0
60000 On ch=1 n=c5 v=61
60004 On ch=1 n=d#6 v=84
60116 On ch=1 n=c5 v=0
60120 On ch=1 n=d#7 v=73
60120 On ch=1 n=f#6 v=73
60120 On ch=1 n=f#4 v=69
60188 On ch=1 n=d#6 v=0
60228 On ch=1 n=f#6 v=0
60228 On ch=1 n=d#7 v=0
60236 On ch=1 n=f#4 v=0
60240 On ch=1 n=f#5 v=60
60244 On ch=1 n=c6 v=86
60356 On ch=1 n=f#5 v=0
60360 On ch=1 n=c7 v=72
60360 On ch=1 n=d#6 v=72
60360 On ch=1 n=c5 v=61
60392 On ch=1 n=c6 v=0
60436 On ch=1 n=c5 v=0
60468 On ch=1 n=d#6 v=0
60468 On ch=1 n=c7 v=0
60476 Par ch=1 c=64 v=0
60480 On ch=1 n=c6 v=97
60480 On ch=1 n=a#3 v=76
60532 Par ch=1 c=64 v=127
60556 On ch=1 n=a#3 v=0
60596 On ch=1 n=c6 v=0
60600 On ch=1 n=c7 v=72
60600 On ch=1 n=d#6 v=72
60600 On ch=1 n=d#5 v=63
60716 On ch=1 n=d#5 v=0
60716 On ch=1 n=d#6 v=0
60716 On ch=1 n=c7 v=0
60720 On ch=1 n=b5 v=85
60720 On ch=1 n=a#4 v=67
60836 On ch=1 n=a#4 v=0
60836 On ch=1 n=b5 v=0
60840 On ch=1 n=d#6 v=71
60840 On ch=1 n=b6 v=71
60840 On ch=1 n=g4 v=71
60956 On ch=1 n=g4 v=0
60956 On ch=1 n=b6 v=0
60956 On ch=1 n=d#6 v=0
60960 On ch=1 n=a#5 v=86
60960 On ch=1 n=g5 v=66
61076 On ch=1 n=g5 v=0
61076 On ch=1 n=a#5 v=0
61080 On ch=1 n=d#6 v=71
61080 On ch=1 n=a#6 v=71
61080 On ch=1 n=a#4 v=71
61120 Par ch=1 c=64 v=0
61156 On ch=1 n=a#4 v=0
61188 On ch=1 n=a#6 v=0
61188 On ch=1 n=d#6 v=0
61200 On ch=1 n=c6 v=96
61200 Par ch=1 c=64 v=127
61200 On ch=1 n=a#3 v=70
61276 On ch=1 n=a#3 v=0
61316 On ch=1 n=c6 v=0
61320 On ch=1 n=c7 v=71
61320 On ch=1 n=e6 v=71
61320 On ch=1 n=e5 v=65
61436 On ch=1 n=e5 v=0
61436 On ch=1 n=e6 v=0
61436 On ch=1 n=c7 v=0
61440 On ch=1 n=b5 v=92
61440 On ch=1 n=c5 v=66
61556 On ch=1 n=c5 v=0
61556 On ch=1 n=b5 v=0
61560 On ch=1 n=b6 v=74
61560 On ch=1 n=e6 v=74
61560 On ch=1 n=g4 v=69
61676 On ch=1 n=g4 v=0
61676 On ch=1 n=e6 v=0
61676 On ch=1 n=b6 v=0
61680 On ch=1 n=a#5 v=92
61680 On ch=1 n=g5 v=69
61796 On ch=1 n=g5 v=0
61796 On ch=1 n=a#5 v=0
61800 On ch=1 n=a#6 v=77
61800 On ch=1 n=e6 v=77
61800 On ch=1 n=c5 v=66
61828 Par ch=1 c=64 v=0
61876 On ch=1 n=c5 v=0
61908 On ch=1 n=e6 v=0
61908 On ch=1 n=a#6 v=0
61916 Par ch=1 c=64 v=127
61920 On ch=1 n=c6 v=102
61920 On ch=1 n=a#3 v=62
61996 On ch=1 n=a#3 v=0
62036 On ch=1 n=c6 v=0
62040 On ch=1 n=f6 v=73
62040 On ch=1 n=c7 v=73
62040 On ch=1 n=f5 v=66
62156 On ch=1 n=f5 v=0
62156 On ch=1 n=c7 v=0
62156 On ch=1 n=f6 v=0
62160 On ch=1 n=b5 v=91
62160 On ch=1 n=d5 v=65
62276 On ch=1 n=d5 v=0
62276 On ch=1 n=b5 v=0
62280 On ch=1 n=f6 v=69
62280 On ch=1 n=b6 v=64
62280 On ch=1 n=g#4 v=70
62396 On ch=1 n=g#4 v=0
62396 On ch=1 n=b6 v=0
62396 On ch=1 n=f6 v=0
62400 On ch=1 n=a#5 v=91
62400 On ch=1 n=g#5 v=72
62488 Par ch=1 c=64 v=0
62516 On ch=1 n=g#5 v=0
62516 On ch=1 n=a#5 v=0
62520 On ch=1 n=a#6 v=75
62520 On ch=1 n=f6 v=75
62520 On ch=1 n=d5 v=73
62596 On ch=1 n=d5 v=0
62604 Par ch=1 c=64 v=127
62628 On ch=1 n=f6 v=0
62628 On ch=1 n=a#6 v=0
62640 On ch=1 n=a#5 v=103
62640 On ch=1 n=a#3 v=76
62716 On ch=1 n=a#3 v=0
62756 On ch=1 n=a#5 v=0
62760 On ch=1 n=a#6 v=78
62760 On ch=1 n=d6 v=78
62760 On ch=1 n=d5 v=74
62876 On ch=1 n=d5 v=0
62876 On ch=1 n=d6 v=0
62876 On ch=1 n=a#6 v=0
62880 On ch=1 n=g6 v=106
62880 On ch=1 n=a#4 v=76
62996 On ch=1 n=a#4 v=0
62996 On ch=1 n=g6 v=0
63000 On ch=1 n=g7 v=78
63000 On ch=1 n=a#6 v=78
63000 On ch=1 n=g#4 v=75
63116 On ch=1 n=g#4 v=0
63116 On ch=1 n=a#6 v=0
63116 On ch=1 n=g7 v=0
63120 On ch=1 n=f6 v=110
63120 On ch=1 n=d5 v=70
63144 Par ch=1 c=64 v=0
63236 On ch=1 n=d5 v=0
63236 On ch=1 n=f6 v=0
63240 On ch=1 n=f7 v=79
63240 On ch=1 n=g#6 v=79
63240 On ch=1 n=a#4 v=75
63356 On ch=1 n=a#4 v=0
63356 On ch=1 n=g#6 v=0
63356 On ch=1 n=f7 v=0
63356 Par ch=1 c=64 v=127
63360 On ch=1 n=d#6 v=103
63376 On ch=1 n=d#4 v=79
63380 On ch=1 n=d#5 v=82
63384 On ch=1 n=g4 v=96
63448 On ch=1 n=g4 v=0
63452 On ch=1 n=d#4 v=0
63476 On ch=1 n=d#5 v=0
63476 On ch=1 n=d#6 v=0
63480 On ch=1 n=d#7 v=67
63480 On ch=1 n=g6 v=74
63568 Par ch=1 c=64 v=0
63596 On ch=1 n=g6 v=0
63596 On ch=1 n=d#7 v=0
63600 On ch=1 n=e6 v=84
63716 On ch=1 n=e6 v=0
63720 On ch=1 n=e7 v=71
63720 On ch=1 n=g#6 v=65
63736 On ch=1 n=d#4 v=82
63736 On ch=1 n=b4 v=87
63740 On ch=1 n=g#4 v=90
63740 On ch=1 n=d5 v=84
63800 Par ch=1 c=64 v=127
63836 On ch=1 n=g#6 v=0
63836 On ch=1 n=e7 v=0
63840 On ch=1 n=e7 v=80
63956 On ch=1 n=e7 v=0
63960 On ch=1 n=e8 v=73
63960 On ch=1 n=g#7 v=67
64076 On ch=1 n=g#7 v=0
64076 On ch=1 n=e8 v=0
64080 On ch=1 n=e7 v=70
64140 On ch=1 n=d5 v=0
64152 On ch=1 n=b4 v=0
64164 On ch=1 n=g#4 v=0
64168 On ch=1 n=d#4 v=0
64196 On ch=1 n=e7 v=0
64200 On ch=1 n=g#6 v=70
64200 On ch=1 n=e7 v=73
64316 On ch=1 n=e7 v=0
64316 On ch=1 n=g#6 v=0
64320 On ch=1 n=e6 v=78
64432 On ch=1 n=d#3 v=90
64436 On ch=1 n=e6 v=0
64440 On ch=1 n=g#5 v=70
64440 On ch=1 n=e6 v=74
64488 On ch=1 n=d#3 v=0
64556 On ch=1 n=e6 v=0
64556 On ch=1 n=g#5 v=0
64560 On ch=1 n=e5 v=71
64676 On ch=1 n=e5 v=0
64680 On ch=1 n=g#5 v=65
64680 On ch=1 n=e6 v=63
64728 Par ch=1 c=64 v=0
64788 On ch=1 n=d#4 v=83
64788 On ch=1 n=a#4 v=82
64792 On ch=1 n=g4 v=92
64796 On ch=1 n=e6 v=0
64796 On ch=1 n=g#5 v=0
64800 On ch=1 n=d#5 v=88
64800 Par ch=1 c=64 v=127
64860 On ch=1 n=g4 v=0
64860 On ch=1 n=a#4 v=0
64872 On ch=1 n=d#4 v=0
64916 On ch=1 n=d#5 v=0
64920 On ch=1 n=d#6 v=59
64920 On ch=1 n=g5 v=74
64972 Par ch=1 c=64 v=0
65036 On ch=1 n=g5 v=0
65036 On ch=1 n=d#6 v=0
65040 On ch=1 n=e5 v=76
65152 On ch=1 n=d#4 v=76
65156 On ch=1 n=e5 v=0
65156 On ch=1 n=b4 v=84
65156 On ch=1 n=g#4 v=89
65160 On ch=1 n=g#5 v=72
65160 On ch=1 n=e6 v=73
65160 On ch=1 n=d5 v=81
65176 Par ch=1 c=64 v=127
65276 On ch=1 n=e6 v=0
65276 On ch=1 n=g#5 v=0
65280 On ch=1 n=e6 v=80
65316 On ch=1 n=d5 v=0
65328 On ch=1 n=b4 v=0
65336 On ch=1 n=g#4 v=0
65336 On ch=1 n=d#4 v=0
65396 On ch=1 n=e6 v=0
65400 On ch=1 n=e7 v=73
65400 On ch=1 n=g#6 v=70
65516 On ch=1 n=g#6 v=0
65516 On ch=1 n=e7 v=0
65520 On ch=1 n=e7 v=68
65524 On ch=1 n=d#3 v=100
65592 On ch=1 n=d#3 v=0
65636 On ch=1 n=e7 v=0
65640 On ch=1 n=g#7 v=73
65640 On ch=1 n=e8 v=77
65756 On ch=1 n=e8 v=0
65756 On ch=1 n=g#7 v=0
65760 On ch=1 n=e7 v=66
65876 On ch=1 n=e7 v=0
65876 On ch=1 n=g#4 v=85
65876 On ch=1 n=b4 v=78
65880 On ch=1 n=g#6 v=64
65880 On ch=1 n=e7 v=72
65880 On ch=1 n=d#4 v=68
65884 On ch=1 n=d5 v=76
65996 On ch=1 n=e7 v=0
65996 On ch=1 n=g#6 v=0
66000 On ch=1 n=e6 v=80
66024 Par ch=1 c=64 v=0
66036 On ch=1 n=d#4 v=0
66036 On ch=1 n=b4 v=0
66048 On ch=1 n=d5 v=0
66048 On ch=1 n=g#4 v=0
66116 On ch=1 n=e6 v=0
66120 On ch=1 n=g#5 v=69
66120 On ch=1 n=e6 v=72
66228 On ch=1 n=d#4 v=87
66228 On ch=1 n=a#4 v=91
66236 On ch=1 n=e6 v=0
66236 On ch=1 n=g#5 v=0
66236 On ch=1 n=g4 v=89
66240 On ch=1 n=d#5 v=91
66292 On ch=1 n=g4 v=0
66292 On ch=1 n=a#4 v=0
66300 On ch=1 n=d#4 v=0
66308 Par ch=1 c=64 v=127
66356 On ch=1 n=d#5 v=0
66360 On ch=1 n=d#6 v=72
66360 On ch=1 n=g5 v=80
66404 On ch=1 n=d#3 v=96
66428 On ch=1 n=d#3 v=0
66476 On ch=1 n=g5 v=0
66476 On ch=1 n=d#6 v=0
66480 On ch=1 n=d#6 v=72
66596 On ch=1 n=d#6 v=0
66600 On ch=1 n=d#7 v=76
66600 On ch=1 n=g6 v=80
66704 Par ch=1 c=64 v=0
66716 On ch=1 n=g6 v=0
66716 On ch=1 n=d#7 v=0
66720 On ch=1 n=d#6 v=80
66784 On ch=1 n=a#4 v=93
66784 On ch=1 n=d#4 v=75
66832 On ch=1 n=d#4 v=0
66836 On ch=1 n=d#6 v=0
66840 On ch=1 n=d#6 v=66
66840 On ch=1 n=g5 v=73
66844 On ch=1 n=a#4 v=0
66928 Par ch=1 c=64 v=127
66956 On ch=1 n=g5 v=0
66956 On ch=1 n=d#6 v=0
66960 On ch=1 n=f#5 v=96
66960 On ch=1 n=d#4 v=79
66968 On ch=1 n=c5 v=89
67004 On ch=1 n=c5 v=0
67012 On ch=1 n=d#4 v=0
67076 On ch=1 n=f#5 v=0
67080 On ch=1 n=f#6 v=70
67080 On ch=1 n=a5 v=84
67124 On ch=1 n=d#3 v=99
67164 On ch=1 n=d#3 v=0
67196 On ch=1 n=a5 v=0
67196 On ch=1 n=f#6 v=0
67200 On ch=1 n=f#6 v=74
67316 On ch=1 n=f#6 v=0
67320 On ch=1 n=a6 v=87
67320 On ch=1 n=f#7 v=86
67436 On ch=1 n=f#7 v=0
67436 On ch=1 n=a6 v=0
67440 On ch=1 n=f#6 v=72
67468 Par ch=1 c=64 v=0
67508 On ch=1 n=c5 v=95
67512 On ch=1 n=d#4 v=72
67556 On ch=1 n=f#6 v=0
67560 On ch=1 n=a5 v=80
67560 On ch=1 n=f#6 v=76
67568 On ch=1 n=d#4 v=0
67584 On ch=1 n=c5 v=0
67628 Par ch=1 c=64 v=127
67672 On ch=1 n=d#4 v=76
67676 On ch=1 n=f#6 v=0
67676 On ch=1 n=a5 v=0
67676 On ch=1 n=b4 v=92
67680 On ch=1 n=f5 v=98
67716 On ch=1 n=b4 v=0
67724 On ch=1 n=d#4 v=0
67796 On ch=1 n=f5 v=0
67800 On ch=1 n=g#5 v=75
67800 On ch=1 n=f6 v=78
67832 On ch=1 n=d#3 v=100
67860 On ch=1 n=d#3 v=0
67916 On ch=1 n=f6 v=0
67916 On ch=1 n=g#5 v=0
67920 On ch=1 n=f6 v=78
68036 On ch=1 n=f6 v=0
68040 On ch=1 n=g#6 v=75
68040 On ch=1 n=f7 v=75
68156 On ch=1 n=f7 v=0
68156 On ch=1 n=g#6 v=0
68160 On ch=1 n=f6 v=76
68208 Par ch=1 c=64 v=0
68220 On ch=1 n=d#4 v=71
68224 On ch=1 n=b4 v=95
68276 On ch=1 n=f6 v=0
68280 On ch=1 n=d#4 v=0
68280 On ch=1 n=f6 v=73
68280 On ch=1 n=g#5 v=75
68296 On ch=1 n=b4 v=0
68368 Par ch=1 c=64 v=127
68388 On ch=1 n=d#4 v=87
68396 On ch=1 n=g#5 v=0
68396 On ch=1 n=f6 v=0
68396 On ch=1 n=d5 v=92
68400 On ch=1 n=g#5 v=95
68436 On ch=1 n=d5 v=0
68444 On ch=1 n=d#4 v=0
68516 On ch=1 n=g#5 v=0
68520 On ch=1 n=g#6 v=80
68520 On ch=1 n=b5 v=80
68564 On ch=1 n=d#3 v=100
68576 On ch=1 n=d#3 v=0
68636 On ch=1 n=b5 v=0
68636 On ch=1 n=g#6 v=0
68640 On ch=1 n=g#6 v=85
68756 On ch=1 n=g#6 v=0
68760 On ch=1 n=g#7 v=75
68760 On ch=1 n=b6 v=81
68876 On ch=1 n=b6 v=0
68876 On ch=1 n=g#7 v=0
68880 On ch=1 n=g#6 v=79
68944 On ch=1 n=d5 v=91
68948 On ch=1 n=d#4 v=83
68996 On ch=1 n=g#6 v=0
69000 On ch=1 n=d#4 v=0
69000 On ch=1 n=d5 v=0
69000 On ch=1 n=g#6 v=70
69000 On ch=1 n=b5 v=84
69012 Par ch=1 c=64 v=0
69100 On ch=1 n=d#4 v=81
69104 On ch=1 n=c#5 v=96
69108 Par ch=1 c=64 v=127
69116 On ch=1 n=b5 v=0
69116 On ch=1 n=g#6 v=0
69120 On ch=1 n=g5 v=93
69144 On ch=1 n=c#5 v=0
69152 On ch=1 n=d#4 v=0
69236 On ch=1 n=g5 v=0
69240 On ch=1 n=a#5 v=75
69240 On ch=1 n=g6 v=76
69276 On ch=1 n=d#3 v=96
69304 On ch=1 n=d#3 v=0
69356 On ch=1 n=g6 v=0
69356 On ch=1 n=a#5 v=0
69360 On ch=1 n=g6 v=76
69476 On ch=1 n=g6 v=0
69480 On ch=1 n=g7 v=79
69480 On ch=1 n=a#6 v=75
69596 On ch=1 n=a#6 v=0
69596 On ch=1 n=g7 v=0
69600 On ch=1 n=g6 v=77
69668 On ch=1 n=d#4 v=80
69672 On ch=1 n=c#5 v=93
69712 On ch=1 n=d#4 v=0
69716 On ch=1 n=g6 v=0
69720 On ch=1 n=a#5 v=95
69720 On ch=1 n=g6 v=69
69728 On ch=1 n=c#5 v=0
69728 Par ch=1 c=64 v=0
69808 Par ch=1 c=64 v=127
69812 On ch=1 n=d#4 v=83
69820 On ch=1 n=e5 v=91
69836 On ch=1 n=g6 v=0
69836 On ch=1 n=a#5 v=0
69840 On ch=1 n=a#5 v=75
69868 On ch=1 n=e5 v=0
69868 On ch=1 n=d#4 v=0
69956 On ch=1 n=a#5 v=0
69960 On ch=1 n=a#6 v=73
69960 On ch=1 n=d6 v=84
70004 On ch=1 n=d#3 v=98
70024 On ch=1 n=d#3 v=0
70076 On ch=1 n=d6 v=0
70076 On ch=1 n=a#6 v=0
70080 On ch=1 n=a#6 v=81
70196 On ch=1 n=a#6 v=0
70200 On ch=1 n=d7 v=78
70200 On ch=1 n=a#7 v=73
70316 On ch=1 n=a#7 v=0
70316 On ch=1 n=d7 v=0
70320 On ch=1 n=a#6 v=71
70388 On ch=1 n=e5 v=94
70388 On ch=1 n=d#4 v=79
70428 Par ch=1 c=64 v=0
70436 On ch=1 n=a#6 v=0
70440 On ch=1 n=e5 v=0
70440 On ch=1 n=a#6 v=75
70440 On ch=1 n=d6 v=83
70448 On ch=1 n=d#4 v=0
70520 Par ch=1 c=64 v=127
70544 On ch=1 n=d#4 v=90
70548 On ch=1 n=d#5 v=95
70556 On ch=1 n=d6 v=0
70556 On ch=1 n=a#6 v=0
70560 On ch=1 n=a5 v=92
70584 On ch=1 n=d#5 v=0
70592 On ch=1 n=d#4 v=0
70676 On ch=1 n=a5 v=0
70680 On ch=1 n=c6 v=67
70680 On ch=1 n=a6 v=69
70732 On ch=1 n=d#3 v=100
70764 On ch=1 n=d#3 v=0
70796 On ch=1 n=a6 v=0
70796 On ch=1 n=c6 v=0
70800 On ch=1 n=a6 v=76
70916 On ch=1 n=a6 v=0
70920 On ch=1 n=a7 v=81
70920 On ch=1 n=c7 v=68
71036 On ch=1 n=c7 v=0
71036 On ch=1 n=a7 v=0
71040 On ch=1 n=a6 v=80
71100 On ch=1 n=d#4 v=79
71104 On ch=1 n=d#5 v=95
71112 Par ch=1 c=64 v=0
71136 On ch=1 n=d#4 v=0
71144 On ch=1 n=d#5 v=0
71156 On ch=1 n=a6 v=0
71160 On ch=1 n=c6 v=74
71160 On ch=1 n=a6 v=69
71224 Par ch=1 c=64 v=127
71252 On ch=1 n=f#5 v=97
71256 On ch=1 n=d#4 v=85
71276 On ch=1 n=a6 v=0
71276 On ch=1 n=c6 v=0
71280 On ch=1 n=c6 v=95
71288 On ch=1 n=f#5 v=0
71304 On ch=1 n=d#4 v=0
71396 On ch=1 n=c6 v=0
71400 On ch=1 n=c7 v=65
71400 On ch=1 n=d#6 v=72
71432 On ch=1 n=d#3 v=102
71464 On ch=1 n=d#3 v=0
71516 On ch=1 n=d#6 v=0
71516 On ch=1 n=c7 v=0
71520 On ch=1 n=c7 v=76
71636 On ch=1 n=c7 v=0
71640 On ch=1 n=c8 v=73
71640 On ch=1 n=d#7 v=70
71732 Par ch=1 c=64 v=0
71756 On ch=1 n=d#7 v=0
71756 On ch=1 n=c8 v=0
71760 On ch=1 n=c7 v=76
71804 On ch=1 n=f#5 v=99
71808 On ch=1 n=d#4 v=70
71840 On ch=1 n=d#4 v=0
71856 On ch=1 n=f#5 v=0
71876 On ch=1 n=c7 v=0
71880 On ch=1 n=d#6 v=62
71880 On ch=1 n=c7 v=73
71928 On ch=1 n=d#4 v=82
71956 On ch=1 n=a#4 v=86
71968 Par ch=1 c=64 v=127
71976 On ch=1 n=c#5 v=83
71988 On ch=1 n=d#4 v=0
71996 On ch=1 n=c7 v=0
71996 On ch=1 n=d#6 v=0
72000 On ch=1 n=c#6 v=84
72020 On ch=1 n=g5 v=99
72024 On ch=1 n=a#4 v=0
72052 On ch=1 n=c#5 v=0
72064 On ch=1 n=g5 v=0
72116 On ch=1 n=c#6 v=0
72120 On ch=1 n=d#6 v=74
72120 On ch=1 n=c#7 v=70
72236 On ch=1 n=c#7 v=0
72236 On ch=1 n=d#6 v=0
72240 On ch=1 n=c#7 v=75
72348 On ch=1 n=g6 v=83
72348 On ch=1 n=a#5 v=87
72348 On ch=1 n=c#6 v=82
72356 On ch=1 n=c#7 v=0
72360 On ch=1 n=d#7 v=80
72360 On ch=1 n=c#8 v=90
72476 On ch=1 n=c#8 v=0
72476 On ch=1 n=d#7 v=0
72480 On ch=1 n=c#7 v=79
72596 On ch=1 n=c#7 v=0
72600 On ch=1 n=c#8 v=71
72600 On ch=1 n=d#7 v=75
72716 On ch=1 n=d#7 v=0
72716 On ch=1 n=c#8 v=0
72720 On ch=1 n=c#7 v=75
72836 On ch=1 n=c#7 v=0
72840 On ch=1 n=c#8 v=68
72840 On ch=1 n=d#7 v=75
72932 On ch=1 n=g6 v=0
72940 On ch=1 n=c#6 v=0
72944 On ch=1 n=a#5 v=0
72956 On ch=1 n=d#7 v=0
72956 On ch=1 n=c#8 v=0
72960 On ch=1 n=c#7 v=70
73076 On ch=1 n=c#7 v=0
73080 On ch=1 n=c#8 v=90
73080 On ch=1 n=d#7 v=86
73080 On ch=1 n=f#6 v=70
73084 On ch=1 n=c#6 v=75
73084 On ch=1 n=a5 v=75
73196 On ch=1 n=d#7 v=0
73196 On ch=1 n=c#8 v=0
73200 On ch=1 n=c#7 v=80
73316 On ch=1 n=c#7 v=0
73320 On ch=1 n=c#8 v=62
73320 On ch=1 n=d#7 v=66
73380 On ch=1 n=f#6 v=0
73436 On ch=1 n=d#7 v=0
73436 On ch=1 n=c#8 v=0
73440 On ch=1 n=c#7 v=65
73456 On ch=1 n=a#5 v=78
73460 On ch=1 n=g6 v=75
73468 On ch=1 n=a5 v=0
73524 Par ch=1 c=64 v=0
73556 On ch=1 n=c#7 v=0
73560 On ch=1 n=d#7 v=72
73560 On ch=1 n=c#8 v=64
73564 On ch=1 n=a#5 v=0
73576 On ch=1 n=g6 v=0
73580 On ch=1 n=c#6 v=0
73676 On ch=1 n=c#8 v=0
73676 On ch=1 n=d#7 v=0
73680 On ch=1 n=c#7 v=61
73796 On ch=1 n=c#7 v=0
73796 Par ch=1 c=64 v=127
73800 On ch=1 n=d#7 v=68
73800 On ch=1 n=c#8 v=86
73804 On ch=1 n=f#6 v=72
73808 On ch=1 n=c#6 v=79
73812 On ch=1 n=a5 v=75
73916 On ch=1 n=c#8 v=0
73916 On ch=1 n=d#7 v=0
73920 On ch=1 n=c#7 v=74
74036 On ch=1 n=c#7 v=0
74040 On ch=1 n=d#7 v=78
74040 On ch=1 n=c#8 v=66
74044 On ch=1 n=f#6 v=0
74152 On ch=1 n=a#5 v=82
74156 On ch=1 n=c#8 v=0
74156 On ch=1 n=d#7 v=0
74156 On ch=1 n=a5 v=0
74156 On ch=1 n=g6 v=73
74160 On ch=1 n=c#7 v=74
74268 On ch=1 n=a#5 v=0
74276 On ch=1 n=c#7 v=0
74280 On ch=1 n=c#6 v=0
74280 On ch=1 n=c#8 v=62
74280 On ch=1 n=d#7 v=72
74284 On ch=1 n=g6 v=0
74292 Par ch=1 c=64 v=0
74396 On ch=1 n=d#7 v=0
74396 On ch=1 n=c#8 v=0
74400 On ch=1 n=c#7 v=69
74496 Par ch=1 c=64 v=127
74516 On ch=1 n=c#7 v=0
74520 On ch=1 n=c#8 v=85
74520 On ch=1 n=d#7 v=75
74536 On ch=1 n=c#6 v=83
74540 On ch=1 n=a5 v=80
74540 On ch=1 n=f#6 v=81
74636 On ch=1 n=d#7 v=0
74636 On ch=1 n=c#8 v=0
74640 On ch=1 n=c#7 v=68
74756 On ch=1 n=c#7 v=0
74760 On ch=1 n=d#7 v=72
74760 On ch=1 n=c#8 v=64
74772 On ch=1 n=f#6 v=0
74876 On ch=1 n=c#8 v=0
74876 On ch=1 n=d#7 v=0
74880 On ch=1 n=c#7 v=68
74900 On ch=1 n=d#6 v=75
74900 On ch=1 n=f#6 v=74
74996 On ch=1 n=c#7 v=0
75000 On ch=1 n=c#8 v=63
75000 On ch=1 n=d#7 v=64
75044 On ch=1 n=a5 v=0
75092 On ch=1 n=c#6 v=0
75108 Par ch=1 c=64 v=0
75116 On ch=1 n=d#7 v=0
75116 On ch=1 n=c#8 v=0
75120 On ch=1 n=c#7 v=63
75176 Par ch=1 c=64 v=127
75236 On ch=1 n=c#7 v=0
75240 On ch=1 n=c8 v=67
75240 On ch=1 n=d#7 v=60
75256 On ch=1 n=g#5 v=78
75356 On ch=1 n=d#7 v=0
75356 On ch=1 n=c8 v=0
75360 On ch=1 n=c7 v=76
75428 On ch=1 n=d#6 v=0
75476 On ch=1 n=c7 v=0
75480 On ch=1 n=d#7 v=73
75480 On ch=1 n=c8 v=70
75496 On ch=1 n=f#6 v=0
75500 Par ch=1 c=64 v=0
75564 Par ch=1 c=64 v=127
75592 On ch=1 n=d6 v=77
75596 On ch=1 n=c8 v=0
75596 On ch=1 n=d#7 v=0
75596 On ch=1 n=f6 v=64
75600 On ch=1 n=c7 v=77
75716 On ch=1 n=c7 v=0
75720 On ch=1 n=c8 v=56
75720 On ch=1 n=d7 v=70
75836 On ch=1 n=d7 v=0
75836 On ch=1 n=c8 v=0
75840 On ch=1 n=c7 v=71
75856 On ch=1 n=g#5 v=0
75884 Par ch=1 c=64 v=0
75936 Par ch=1 c=64 v=127
75948 On ch=1 n=g5 v=76
75956 On ch=1 n=c7 v=0
75960 On ch=1 n=b7 v=67
75960 On ch=1 n=d7 v=58
76000 On ch=1 n=f6 v=0
76016 On ch=1 n=d6 v=0
76076 On ch=1 n=d7 v=0
76076 On ch=1 n=b7 v=0
76080 On ch=1 n=b6 v=71
76196 On ch=1 n=b6 v=0
76200 On ch=1 n=d7 v=68
76200 On ch=1 n=b7 v=61
76240 Par ch=1 c=64 v=0
76288 Par ch=1 c=64 v=127
76288 On ch=1 n=c#6 v=72
76292 On ch=1 n=e6 v=71
76316 On ch=1 n=b7 v=0
76316 On ch=1 n=d7 v=0
76320 On ch=1 n=b6 v=74
76436 On ch=1 n=b6 v=0
76440 On ch=1 n=b7 v=69
76440 On ch=1 n=c#7 v=64
76508 On ch=1 n=g5 v=0
76556 On ch=1 n=c#7 v=0
76556 On ch=1 n=b7 v=0
76560 On ch=1 n=b6 v=71
76576 Par ch=1 c=64 v=0
76640 Par ch=1 c=64 v=127
76656 On ch=1 n=f#5 v=64
76676 On ch=1 n=b6 v=0
76676 On ch=1 n=c#6 v=0
76680 On ch=1 n=c#7 v=64
76680 On ch=1 n=a#7 v=70
76716 On ch=1 n=e6 v=0
76796 On ch=1 n=a#7 v=0
76796 On ch=1 n=c#7 v=0
76800 On ch=1 n=a#6 v=72
76916 On ch=1 n=a#6 v=0
76920 On ch=1 n=a#7 v=65
76920 On ch=1 n=c#7 v=67
76944 Par ch=1 c=64 v=0
77004 Par ch=1 c=64 v=127
77008 On ch=1 n=d#6 v=58
77012 On ch=1 n=c6 v=71
77036 On ch=1 n=c#7 v=0
77036 On ch=1 n=a#7 v=0
77040 On ch=1 n=a#6 v=64
77156 On ch=1 n=a#6 v=0
77160 On ch=1 n=a#7 v=68
77160 On ch=1 n=c7 v=71
77236 On ch=1 n=f#5 v=0
77276 On ch=1 n=c7 v=0
77276 On ch=1 n=a#7 v=0
77280 On ch=1 n=a#6 v=72
77296 Par ch=1 c=64 v=0
77360 Par ch=1 c=64 v=127
77376 On ch=1 n=f5 v=65
77396 On ch=1 n=a#6 v=0
77396 On ch=1 n=d#6 v=0
77400 On ch=1 n=c7 v=82
77400 On ch=1 n=a7 v=69
77436 On ch=1 n=c6 v=0
77516 On ch=1 n=a7 v=0
77516 On ch=1 n=c7 v=0
77520 On ch=1 n=a6 v=80
77636 On ch=1 n=a6 v=0
77640 On ch=1 n=c7 v=69
77640 On ch=1 n=a7 v=64
77652 Par ch=1 c=64 v=0
77716 Par ch=1 c=64 v=127
77744 On ch=1 n=b5 v=66
77748 On ch=1 n=d6 v=60
77756 On ch=1 n=a7 v=0
77756 On ch=1 n=c7 v=0
77760 On ch=1 n=a6 v=70
77852 On ch=1 n=f5 v=0
77876 On ch=1 n=a6 v=0
77880 On ch=1 n=b6 v=72
77880 On ch=1 n=a7 v=70
77996 On ch=1 n=a7 v=0
77996 On ch=1 n=b6 v=0
78000 On ch=1 n=g#6 v=74
78020 Par ch=1 c=64 v=0
78092 Par ch=1 c=64 v=127
78096 On ch=1 n=e5 v=65
78116 On ch=1 n=g#6 v=0
78120 On ch=1 n=b6 v=80
78120 On ch=1 n=g#7 v=66
78184 On ch=1 n=d6 v=0
78184 On ch=1 n=b5 v=0
78188 On ch=1 n=e5 v=0
78236 On ch=1 n=g#7 v=0
78236 On ch=1 n=b6 v=0
78240 On ch=1 n=g#6 v=72
78356 On ch=1 n=g#6 v=0
78360 On ch=1 n=b6 v=77
78360 On ch=1 n=g#7 v=63
78476 On ch=1 n=g#7 v=0
78476 On ch=1 n=b6 v=0
78480 On ch=1 n=g#6 v=70
78596 On ch=1 n=g#6 v=0
78600 On ch=1 n=b6 v=81
78600 On ch=1 n=g#7 v=65
78716 On ch=1 n=g#7 v=0
78716 On ch=1 n=b6 v=0
78720 On ch=1 n=g#6 v=69
78836 On ch=1 n=g#6 v=0
78840 On ch=1 n=b6 v=77
78840 On ch=1 n=g#7 v=69
78956 On ch=1 n=g#7 v=0
78956 On ch=1 n=b6 v=0
78960 On ch=1 n=g#6 v=62
79076 On ch=1 n=g#6 v=0
79080 On ch=1 n=g#7 v=50
79080 On ch=1 n=b6 v=74
79080 Par ch=1 c=64 v=0
79196 On ch=1 n=b6 v=0
79196 On ch=1 n=g#7 v=0
79200 On ch=1 n=g#6 v=70
79200 Par ch=1 c=64 v=127
79200 Par ch=1 c=67 v=127
79200 On ch=1 n=e3 v=59
79316 On ch=1 n=g#6 v=0
79320 On ch=1 n=b6 v=71
79320 On ch=1 n=g#7 v=63
79368 On ch=1 n=e3 v=0
79436 On ch=1 n=g#7 v=0
79436 On ch=1 n=b6 v=0
79440 On ch=1 n=f#6 v=68
79456 On ch=1 n=b3 v=59
79524 On ch=1 n=b3 v=0
79548 On ch=1 n=d4 v=62
79556 On ch=1 n=f#6 v=0
79560 On ch=1 n=a6 v=71
79560 On ch=1 n=f#7 v=65
79604 On ch=1 n=d4 v=0
79648 On ch=1 n=g#4 v=64
79676 On ch=1 n=f#7 v=0
79676 On ch=1 n=a6 v=0
79680 On ch=1 n=e6 v=68
79780 On ch=1 n=d5 v=66
79788 On ch=1 n=g#4 v=0
79796 On ch=1 n=e6 v=0
79800 On ch=1 n=e7 v=59
79800 On ch=1 n=g#6 v=66
79904 On ch=1 n=d5 v=0
79916 On ch=1 n=g#6 v=0
79916 On ch=1 n=e7 v=0
79916 On ch=1 n=g#5 v=73
79920 On ch=1 n=d6 v=67
80036 On ch=1 n=d6 v=0
80040 On ch=1 n=d7 v=56
80040 On ch=1 n=f#6 v=56
80156 On ch=1 n=f#6 v=0
80156 On ch=1 n=d7 v=0
80160 On ch=1 n=b5 v=56
80224 On ch=1 n=g#5 v=0
80276 On ch=1 n=b5 v=0
80280 On ch=1 n=b6 v=65
80280 On ch=1 n=d6 v=56
80396 On ch=1 n=d6 v=0
80396 On ch=1 n=b6 v=0
80400 On ch=1 n=g#5 v=59
80516 On ch=1 n=g#5 v=0
80520 On ch=1 n=g#6 v=61
80520 Par ch=1 c=64 v=0
80520 On ch=1 n=b5 v=62
80632 Par ch=1 c=67 v=0
80636 On ch=1 n=b5 v=0
80636 On ch=1 n=g#6 v=0
80640 Par ch=1 c=64 v=127
80640 On ch=1 n=g#5 v=71
80640 On ch=1 n=d#3 v=65
80712 On ch=1 n=d#3 v=0
80736 On ch=1 n=g#5 v=0
80760 On ch=1 n=c6 v=78
80760 On ch=1 n=g#6 v=78
80760 On ch=1 n=c5 v=64
80876 On ch=1 n=c5 v=0
80880 On ch=1 n=g#6 v=0
80880 On ch=1 n=c6 v=0
80880 On ch=1 n=a#5 v=74
80880 On ch=1 n=g#4 v=68
80976 On ch=1 n=a#5 v=0
80996 On ch=1 n=g#4 v=0
81000 On ch=1 n=c#6 v=77
81000 On ch=1 n=a#6 v=77
81000 On ch=1 n=d#4 v=71
81116 On ch=1 n=d#4 v=0
81120 On ch=1 n=a#6 v=0
81120 On ch=1 n=c#6 v=0
81120 On ch=1 n=b5 v=75
81120 On ch=1 n=d#5 v=63
81216 On ch=1 n=b5 v=0
81236 On ch=1 n=d#5 v=0
81240 On ch=1 n=b6 v=79
81240 On ch=1 n=d6 v=79
81240 On ch=1 n=g#4 v=56
81296 Par ch=1 c=64 v=0
81312 On ch=1 n=g#4 v=0
81360 On ch=1 n=d6 v=0
81360 On ch=1 n=b6 v=0
81360 On ch=1 n=c6 v=73
81360 On ch=1 n=d#3 v=62
81376 Par ch=1 c=64 v=127
81432 On ch=1 n=d#3 v=0
81456 On ch=1 n=c6 v=0
81480 On ch=1 n=c7 v=76
81480 On ch=1 n=d#6 v=76
81480 On ch=1 n=c5 v=66
81596 On ch=1 n=c5 v=0
81600 On ch=1 n=d#6 v=0
81600 On ch=1 n=c7 v=0
81600 On ch=1 n=c#6 v=67
81600 On ch=1 n=g#4 v=67
81696 On ch=1 n=c#6 v=0
81716 On ch=1 n=g#4 v=0
81720 On ch=1 n=e6 v=75
81720 On ch=1 n=c#7 v=75
81720 On ch=1 n=d#4 v=67
81836 On ch=1 n=d#4 v=0
81840 On ch=1 n=c#7 v=0
81840 On ch=1 n=e6 v=0
81840 On ch=1 n=d6 v=78
81840 On ch=1 n=d#5 v=68
81936 On ch=1 n=d6 v=0
81956 On ch=1 n=d#5 v=0
81960 On ch=1 n=d7 v=77
81960 On ch=1 n=f6 v=77
81960 On ch=1 n=g#4 v=54
82032 On ch=1 n=g#4 v=0
82044 Par ch=1 c=64 v=0
82080 On ch=1 n=f6 v=0
82080 On ch=1 n=d7 v=0
82080 On ch=1 n=d#6 v=76
82080 On ch=1 n=d#3 v=65
82140 Par ch=1 c=64 v=127
82152 On ch=1 n=d#3 v=0
82176 On ch=1 n=d#6 v=0
82200 On ch=1 n=d#7 v=81
82200 On ch=1 n=g6 v=81
82200 On ch=1 n=c#5 v=67
82316 On ch=1 n=c#5 v=0
82320 On ch=1 n=g6 v=0
82320 On ch=1 n=d#7 v=0
82320 On ch=1 n=f6 v=80
82320 On ch=1 n=g4 v=67
82416 On ch=1 n=f6 v=0
82436 On ch=1 n=g4 v=0
82440 On ch=1 n=g#6 v=79
82440 On ch=1 n=f7 v=79
82440 On ch=1 n=d#4 v=68
82556 On ch=1 n=d#4 v=0
82560 On ch=1 n=f7 v=0
82560 On ch=1 n=g#6 v=0
82560 On ch=1 n=d#6 v=76
82560 On ch=1 n=d#5 v=65
82656 On ch=1 n=d#6 v=0
82676 On ch=1 n=d#5 v=0
82680 On ch=1 n=g6 v=81
82680 On ch=1 n=d#7 v=81
82680 On ch=1 n=g4 v=56
82716 Par ch=1 c=64 v=0
82752 On ch=1 n=g4 v=0
82780 Par ch=1 c=64 v=127
82800 On ch=1 n=d#7 v=0
82800 On ch=1 n=g6 v=0
82800 On ch=1 n=c6 v=74
82800 On ch=1 n=g#3 v=60
82872 On ch=1 n=g#3 v=0
82896 On ch=1 n=c6 v=0
82920 On ch=1 n=c7 v=79
82920 On ch=1 n=d#6 v=79
82920 On ch=1 n=c5 v=66
83036 On ch=1 n=c5 v=0
83040 On ch=1 n=d#6 v=0
83040 On ch=1 n=c7 v=0
83040 On ch=1 n=a#5 v=75
83040 On ch=1 n=g#4 v=68
83136 On ch=1 n=a#5 v=0
83156 On ch=1 n=g#4 v=0
83160 On ch=1 n=a#6 v=82
83160 On ch=1 n=c#6 v=82
83160 On ch=1 n=d#4 v=66
83276 On ch=1 n=d#4 v=0
83280 On ch=1 n=c#6 v=0
83280 On ch=1 n=a#6 v=0
83280 On ch=1 n=c6 v=73
83280 On ch=1 n=d#5 v=65
83308 Par ch=1 c=64 v=0
83376 On ch=1 n=c6 v=0
83396 On ch=1 n=d#5 v=0
83400 On ch=1 n=c7 v=79
83400 On ch=1 n=d#6 v=79
83400 Par ch=1 c=64 v=127
83400 On ch=1 n=g#4 v=56
83472 On ch=1 n=g#4 v=0
83520 On ch=1 n=d#6 v=0
83520 On ch=1 n=c7 v=0
83520 On ch=1 n=a#5 v=74
83520 On ch=1 n=g#3 v=67
83592 On ch=1 n=g#3 v=0
83616 On ch=1 n=a#5 v=0
83640 On ch=1 n=a#6 v=78
83640 On ch=1 n=c#6 v=78
83640 On ch=1 n=c#5 v=56
83756 On ch=1 n=c#5 v=0
83760 On ch=1 n=c#6 v=0
83760 On ch=1 n=a#6 v=0
83760 On ch=1 n=c6 v=73
83760 On ch=1 n=g4 v=60
83856 On ch=1 n=c6 v=0
83876 On ch=1 n=g4 v=0
83880 On ch=1 n=d#6 v=78
83880 On ch=1 n=c7 v=78
83880 On ch=1 n=d#4 v=67
83996 On ch=1 n=d#4 v=0
84000 On ch=1 n=c7 v=0
84000 On ch=1 n=d#6 v=0
84000 On ch=1 n=g5 v=66
84000 Par ch=1 c=64 v=0
84000 On ch=1 n=d#5 v=65
84096 On ch=1 n=g5 v=0
84112 Par ch=1 c=64 v=127
84116 On ch=1 n=d#5 v=0
84120 On ch=1 n=a#5 v=81
84120 On ch=1 n=g6 v=81
84120 On ch=1 n=g4 v=57
84192 On ch=1 n=g4 v=0
84240 On ch=1 n=g6 v=0
84240 On ch=1 n=a#5 v=0
84240 On ch=1 n=g#5 v=79
84240 On ch=1 n=g#3 v=60
84312 On ch=1 n=g#3 v=0
84336 On ch=1 n=g#5 v=0
84360 On ch=1 n=c6 v=80
84360 On ch=1 n=g#6 v=80
84360 On ch=1 n=c5 v=66
84476 On ch=1 n=c5 v=0
84480 On ch=1 n=g#6 v=0
84480 On ch=1 n=c6 v=0
84480 On ch=1 n=g5 v=68
84480 On ch=1 n=g#4 v=67
84576 On ch=1 n=g5 v=0
84596 On ch=1 n=g#4 v=0
84600 On ch=1 n=g6 v=82
84600 On ch=1 n=a#5 v=82
84600 On ch=1 n=d#4 v=64
84716 On ch=1 n=d#4 v=0
84720 On ch=1 n=a#5 v=0
84720 On ch=1 n=g6 v=0
84720 On ch=1 n=g#5 v=75
84720 On ch=1 n=d#5 v=65
84732 Par ch=1 c=64 v=0
84816 On ch=1 n=g#5 v=0
84832 Par ch=1 c=64 v=127
84836 On ch=1 n=d#5 v=0
84840 On ch=1 n=g#6 v=77
84840 On ch=1 n=c6 v=77
84840 On ch=1 n=g#4 v=54
84912 On ch=1 n=g#4 v=0
84960 On ch=1 n=c6 v=0
84960 On ch=1 n=g#6 v=0
84960 On ch=1 n=f5 v=74
84960 On ch=1 n=a#3 v=61
85032 On ch=1 n=a#3 v=0
85056 On ch=1 n=f5 v=0
85080 On ch=1 n=f6 v=77
85080 On ch=1 n=g#5 v=77
85080 On ch=1 n=d5 v=71
85196 On ch=1 n=d5 v=0
85200 On ch=1 n=g#5 v=0
85200 On ch=1 n=f6 v=0
85200 On ch=1 n=g5 v=68
85200 On ch=1 n=a#4 v=70
85296 On ch=1 n=g5 v=0
85316 On ch=1 n=a#4 v=0
85320 On ch=1 n=g6 v=76
85320 On ch=1 n=a#5 v=76
85320 On ch=1 n=g#4 v=67
85436 On ch=1 n=g#4 v=0
85440 On ch=1 n=a#5 v=0
85440 On ch=1 n=g6 v=0
85440 On ch=1 n=f5 v=71
85440 On ch=1 n=d5 v=75
85496 Par ch=1 c=64 v=0
85536 On ch=1 n=f5 v=0
85556 On ch=1 n=d5 v=0
85560 On ch=1 n=f6 v=80
85560 On ch=1 n=g#5 v=80
85560 On ch=1 n=a#4 v=53
85576 Par ch=1 c=64 v=127
85632 On ch=1 n=a#4 v=0
85680 On ch=1 n=g#5 v=0
85680 On ch=1 n=f6 v=0
85680 On ch=1 n=e5 v=74
85680 On ch=1 n=d#3 v=64
85752 On ch=1 n=d#3 v=0
85776 On ch=1 n=e5 v=0
85800 On ch=1 n=g5 v=80
85800 On ch=1 n=e6 v=80
85800 On ch=1 n=c#5 v=70
85916 On ch=1 n=c#5 v=0
85920 On ch=1 n=e6 v=0
85920 On ch=1 n=g5 v=0
85920 On ch=1 n=d#5 v=70
85920 On ch=1 n=a#4 v=70
86016 On ch=1 n=d#5 v=0
86036 On ch=1 n=a#4 v=0
86040 On ch=1 n=g5 v=77
86040 On ch=1 n=d#6 v=77
86040 On ch=1 n=d#4 v=65
86140 Par ch=1 c=64 v=0
86144 On ch=1 n=g5 v=0
86156 On ch=1 n=d#4 v=0
86160 On ch=1 n=d#6 v=0
86160 On ch=1 n=g5 v=69
86160 On ch=1 n=c#5 v=71
86256 On ch=1 n=g5 v=0
86276 On ch=1 n=c#5 v=0
86280 On ch=1 n=g6 v=67
86280 On ch=1 n=a#5 v=67
86280 On ch=1 n=a#4 v=53
86292 Par ch=1 c=64 v=127
86352 On ch=1 n=a#4 v=0
86400 On ch=1 n=a#5 v=0
86400 On ch=1 n=g6 v=0
86400 On ch=1 n=g#5 v=66
86400 On ch=1 n=g#3 v=55
86472 On ch=1 n=g#3 v=0
86520 On ch=1 n=g#5 v=0
86520 On ch=1 n=g#6 v=71
86520 On ch=1 n=c6 v=58
86520 On ch=1 n=c5 v=61
86616 On ch=1 n=c6 v=0
86616 On ch=1 n=g#6 v=0
86636 On ch=1 n=c5 v=0
86640 On ch=1 n=a#5 v=75
86640 On ch=1 n=g#4 v=62
86756 On ch=1 n=g#4 v=0
86760 On ch=1 n=a#5 v=0
86760 On ch=1 n=c#6 v=70
86760 On ch=1 n=a#6 v=75
86760 On ch=1 n=d#4 v=62
86856 On ch=1 n=a#6 v=0
86856 On ch=1 n=c#6 v=0
86876 On ch=1 n=d#4 v=0
86880 On ch=1 n=b5 v=74
86880 On ch=1 n=d#5 v=62
86904 Par ch=1 c=64 v=0
86996 On ch=1 n=d#5 v=0
87000 On ch=1 n=b5 v=0
87000 On ch=1 n=b6 v=71
87000 On ch=1 n=d6 v=70
87000 On ch=1 n=g#4 v=60
87048 Par ch=1 c=64 v=127
87072 On ch=1 n=g#4 v=0
87096 On ch=1 n=d6 v=0
87096 On ch=1 n=b6 v=0
87120 On ch=1 n=c6 v=77
87120 On ch=1 n=g#3 v=62
87192 On ch=1 n=g#3 v=0
87240 On ch=1 n=c6 v=0
87240 On ch=1 n=d#6 v=68
87240 On ch=1 n=c7 v=78
87240 On ch=1 n=c5 v=64
87336 On ch=1 n=c7 v=0
87336 On ch=1 n=d#6 v=0
87356 On ch=1 n=c5 v=0
87360 On ch=1 n=c#6 v=70
87360 On ch=1 n=g#4 v=63
87476 On ch=1 n=g#4 v=0
87480 On ch=1 n=c#6 v=0
87480 On ch=1 n=c#7 v=69
87480 On ch=1 n=e6 v=67
87480 On ch=1 n=d#4 v=63
87576 On ch=1 n=e6 v=0
87576 On ch=1 n=c#7 v=0
87596 On ch=1 n=d#4 v=0
87596 Par ch=1 c=64 v=0
87600 On ch=1 n=d6 v=74
87600 On ch=1 n=d#5 v=64
87716 On ch=1 n=d#5 v=0
87720 On ch=1 n=d6 v=0
87720 On ch=1 n=f6 v=62
87720 On ch=1 n=d7 v=74
87720 On ch=1 n=g#4 v=67
87764 Par ch=1 c=64 v=127
87792 On ch=1 n=g#4 v=0
87816 On ch=1 n=d7 v=0
87816 On ch=1 n=f6 v=0
87840 On ch=1 n=d#6 v=74
87840 On ch=1 n=g#3 v=68
87912 On ch=1 n=g#3 v=0
87960 On ch=1 n=d#6 v=0
87960 On ch=1 n=d#7 v=76
87960 On ch=1 n=g6 v=62
87960 On ch=1 n=c#5 v=64
88056 On ch=1 n=g6 v=0
88056 On ch=1 n=d#7 v=0
88076 On ch=1 n=c#5 v=0
88080 On ch=1 n=f6 v=68
88080 On ch=1 n=g4 v=63
88196 On ch=1 n=g4 v=0
88200 On ch=1 n=f6 v=0
88200 On ch=1 n=g#6 v=67
88200 On ch=1 n=f7 v=66
88200 On ch=1 n=d#4 v=64
88296 On ch=1 n=f7 v=0
88296 On ch=1 n=g#6 v=0
88316 On ch=1 n=d#4 v=0
88320 On ch=1 n=d#6 v=72
88320 On ch=1 n=d#5 v=61
88380 Par ch=1 c=64 v=0
88436 On ch=1 n=d#5 v=0
88440 On ch=1 n=d#6 v=0
88440 On ch=1 n=d#7 v=74
88440 On ch=1 n=g6 v=66
88440 On ch=1 n=g4 v=61
88492 Par ch=1 c=64 v=127
88512 On ch=1 n=g4 v=0
88536 On ch=1 n=g6 v=0
88536 On ch=1 n=d#7 v=0
88560 On ch=1 n=c6 v=67
88560 On ch=1 n=g#3 v=60
88632 On ch=1 n=g#3 v=0
88680 On ch=1 n=c6 v=0
88680 On ch=1 n=d#6 v=65
88680 On ch=1 n=c7 v=67
88680 On ch=1 n=c5 v=58
88776 On ch=1 n=c7 v=0
88776 On ch=1 n=d#6 v=0
88796 On ch=1 n=c5 v=0
88800 On ch=1 n=a#5 v=72
88800 On ch=1 n=g#4 v=57
88916 On ch=1 n=g#4 v=0
88920 On ch=1 n=a#5 v=0
88920 On ch=1 n=a#6 v=79
88920 On ch=1 n=c#6 v=62
88920 On ch=1 n=f#4 v=62
89016 On ch=1 n=c#6 v=0
89016 On ch=1 n=a#6 v=0
89036 On ch=1 n=f#4 v=0
89040 On ch=1 n=c6 v=71
89040 On ch=1 n=d#5 v=62
89120 Par ch=1 c=64 v=0
89156 On ch=1 n=d#5 v=0
89160 On ch=1 n=c6 v=0
89160 On ch=1 n=d#6 v=68
89160 On ch=1 n=c7 v=66
89160 On ch=1 n=g#4 v=58
89232 On ch=1 n=g#4 v=0
89248 Par ch=1 c=64 v=127
89256 On ch=1 n=c7 v=0
89256 On ch=1 n=d#6 v=0
89280 On ch=1 n=c#6 v=65
89280 On ch=1 n=c#4 v=56
89352 On ch=1 n=c#4 v=0
89388 On ch=1 n=c#6 v=0
89400 On ch=1 n=f6 v=62
89400 On ch=1 n=c#7 v=72
89400 On ch=1 n=f5 v=57
89508 On ch=1 n=c#7 v=0
89508 On ch=1 n=f6 v=0
89516 On ch=1 n=f5 v=0
89520 On ch=1 n=d#6 v=75
89520 On ch=1 n=c#5 v=59
89628 On ch=1 n=d#6 v=0
89636 On ch=1 n=c#5 v=0
89640 On ch=1 n=d#7 v=78
89640 On ch=1 n=g6 v=68
89640 On ch=1 n=g#4 v=59
89748 On ch=1 n=g6 v=0
89748 On ch=1 n=d#7 v=0
89756 On ch=1 n=g#4 v=0
89760 On ch=1 n=f6 v=71
89760 On ch=1 n=f5 v=59
89812 Par ch=1 c=64 v=0
89868 On ch=1 n=f6 v=0
89876 On ch=1 n=f5 v=0
89880 On ch=1 n=g#6 v=66
89880 On ch=1 n=f7 v=62
89880 On ch=1 n=c#5 v=60
89940 Par ch=1 c=64 v=127
89952 On ch=1 n=c#5 v=0
89988 On ch=1 n=f7 v=0
89988 On ch=1 n=g#6 v=0
90000 On ch=1 n=e6 v=71
90000 On ch=1 n=c4 v=60
90072 On ch=1 n=c4 v=0
90108 On ch=1 n=e6 v=0
90120 On ch=1 n=g7 v=63
90120 On ch=1 n=a#6 v=68
90120 On ch=1 n=e5 v=62
90228 On ch=1 n=a#6 v=0
90228 On ch=1 n=g7 v=0
90236 On ch=1 n=e5 v=0
90240 On ch=1 n=f6 v=74
90240 On ch=1 n=c5 v=64
90348 On ch=1 n=f6 v=0
90356 On ch=1 n=c5 v=0
90360 On ch=1 n=g#7 v=73
90360 On ch=1 n=c7 v=61
90360 On ch=1 n=a#4 v=66
90468 On ch=1 n=c7 v=0
90468 On ch=1 n=g#7 v=0
90476 On ch=1 n=a#4 v=0
90480 On ch=1 n=g6 v=68
90480 On ch=1 n=g5 v=63
90484 Par ch=1 c=64 v=0
90588 On ch=1 n=g6 v=0
90596 On ch=1 n=g5 v=0
90600 On ch=1 n=a#7 v=59
90600 On ch=1 n=c#7 v=60
90600 On ch=1 n=c5 v=64
90608 Par ch=1 c=64 v=127
90672 On ch=1 n=c5 v=0
90708 On ch=1 n=c#7 v=0
90708 On ch=1 n=a#7 v=0
90720 On ch=1 n=g6 v=76
90720 On ch=1 n=f4 v=67
90792 On ch=1 n=f4 v=0
90828 On ch=1 n=g6 v=0
90840 On ch=1 n=a#7 v=73
90840 On ch=1 n=c#7 v=56
90840 On ch=1 n=f5 v=67
90948 On ch=1 n=c#7 v=0
90948 On ch=1 n=a#7 v=0
90956 On ch=1 n=f5 v=0
90960 On ch=1 n=g#6 v=77
90960 On ch=1 n=c5 v=64
91068 On ch=1 n=g#6 v=0
91076 On ch=1 n=c5 v=0
91080 On ch=1 n=g#7 v=75
91080 On ch=1 n=c7 v=61
91080 On ch=1 n=g#4 v=63
91188 On ch=1 n=c7 v=0
91188 On ch=1 n=g#7 v=0
91196 On ch=1 n=g#4 v=0
91200 On ch=1 n=e6 v=70
91200 On ch=1 n=g#5 v=60
91244 Par ch=1 c=64 v=0
91308 On ch=1 n=e6 v=0
91316 On ch=1 n=g#5 v=0
91320 On ch=1 n=e7 v=74
91320 On ch=1 n=g6 v=62
91320 On ch=1 n=c5 v=57
91348 Par ch=1 c=64 v=127
91392 On ch=1 n=c5 v=0
91428 On ch=1 n=g6 v=0
91428 On ch=1 n=e7 v=0
91440 On ch=1 n=g6 v=69
91440 On ch=1 n=c#4 v=58
91512 On ch=1 n=c#4 v=0
91548 On ch=1 n=g6 v=0
91560 On ch=1 n=g7 v=69
91560 On ch=1 n=a#6 v=68
91560 On ch=1 n=f5 v=57
91668 On ch=1 n=a#6 v=0
91668 On ch=1 n=g7 v=0
91676 On ch=1 n=f5 v=0
91680 On ch=1 n=f6 v=75
91680 On ch=1 n=a#4 v=58
91788 On ch=1 n=f6 v=0
91796 On ch=1 n=a#4 v=0
91800 On ch=1 n=g#6 v=65
91800 On ch=1 n=f7 v=66
91800 On ch=1 n=g#4 v=57
91908 On ch=1 n=f7 v=0
91908 On ch=1 n=g#6 v=0
91916 On ch=1 n=g#4 v=0
91920 On ch=1 n=c#6 v=67
91920 On ch=1 n=f5 v=58
92016 Par ch=1 c=64 v=0
92028 On ch=1 n=c#6 v=0
92036 On ch=1 n=f5 v=0
92040 On ch=1 n=f6 v=62
92040 On ch=1 n=c#7 v=65
92040 On ch=1 n=a#4 v=57
92112 On ch=1 n=a#4 v=0
92132 Par ch=1 c=64 v=127
92148 On ch=1 n=c#7 v=0
92148 On ch=1 n=f6 v=0
92160 On ch=1 n=f6 v=76
92160 On ch=1 n=d#4 v=56
92232 On ch=1 n=d#4 v=0
92268 On ch=1 n=f6 v=0
92280 On ch=1 n=f7 v=66
92280 On ch=1 n=g#6 v=70
92280 On ch=1 n=d#5 v=54
92388 On ch=1 n=g#6 v=0
92388 On ch=1 n=f7 v=0
92396 On ch=1 n=d#5 v=0
92400 On ch=1 n=e6 v=73
92400 On ch=1 n=c5 v=61
92508 On ch=1 n=e6 v=0
92516 On ch=1 n=c5 v=0
92520 On ch=1 n=e7 v=69
92520 On ch=1 n=g#6 v=75
92520 On ch=1 n=g#4 v=64
92628 On ch=1 n=g#6 v=0
92628 On ch=1 n=e7 v=0
92636 On ch=1 n=g#4 v=0
92640 On ch=1 n=d#6 v=68
92640 On ch=1 n=g#5 v=65
92748 On ch=1 n=d#6 v=0
92756 On ch=1 n=g#5 v=0
92760 On ch=1 n=g#6 v=72
92760 On ch=1 n=d#7 v=74
92760 On ch=1 n=c5 v=56
92776 Par ch=1 c=64 v=0
92832 On ch=1 n=c5 v=0
92844 Par ch=1 c=64 v=127
92868 On ch=1 n=d#7 v=0
92868 On ch=1 n=g#6 v=0
92880 On ch=1 n=d#6 v=72
92880 On ch=1 n=d#4 v=58
92952 On ch=1 n=d#4 v=0
92988 On ch=1 n=d#6 v=0
93000 On ch=1 n=g6 v=63
93000 On ch=1 n=d#7 v=82
93000 On ch=1 n=g5 v=59
93108 On ch=1 n=d#7 v=0
93108 On ch=1 n=g6 v=0
93116 On ch=1 n=g5 v=0
93120 On ch=1 n=d6 v=70
93120 On ch=1 n=c#5 v=60
93228 On ch=1 n=d6 v=0
93236 On ch=1 n=c#5 v=0
93240 On ch=1 n=g6 v=62
93240 On ch=1 n=d7 v=80
93240 On ch=1 n=a#4 v=64
93348 On ch=1 n=d7 v=0
93348 On ch=1 n=g6 v=0
93356 On ch=1 n=a#4 v=0
93360 On ch=1 n=c#6 v=67
93360 On ch=1 n=g5 v=65
93440 Par ch=1 c=64 v=0
93468 On ch=1 n=c#6 v=0
93476 On ch=1 n=g5 v=0
93480 On ch=1 n=c#7 v=67
93480 On ch=1 n=g6 v=63
93480 On ch=1 n=c#5 v=68
93544 Par ch=1 c=64 v=127
93552 On ch=1 n=c#5 v=0
93588 On ch=1 n=g6 v=0
93588 On ch=1 n=c#7 v=0
93600 On ch=1 n=c#7 v=86
93600 On ch=1 n=f4 v=70
93672 On ch=1 n=f4 v=0
93708 On ch=1 n=c#7 v=0
93720 On ch=1 n=f7 v=60
93720 On ch=1 n=c#8 v=60
93720 On ch=1 n=f5 v=68
93828 On ch=1 n=c#8 v=0
93828 On ch=1 n=f7 v=0
93836 On ch=1 n=f5 v=0
93840 On ch=1 n=c7 v=80
93840 On ch=1 n=c5 v=67
93948 On ch=1 n=c7 v=0
93956 On ch=1 n=c5 v=0
93960 On ch=1 n=c8 v=64
93960 On ch=1 n=f7 v=66
93960 On ch=1 n=g#4 v=64
94068 On ch=1 n=f7 v=0
94068 On ch=1 n=c8 v=0
94076 On ch=1 n=g#4 v=0
94080 On ch=1 n=g6 v=74
94080 On ch=1 n=g#5 v=61
94156 Par ch=1 c=64 v=0
94188 On ch=1 n=g6 v=0
94196 On ch=1 n=g#5 v=0
94200 On ch=1 n=g7 v=67
94200 On ch=1 n=a#6 v=60
94200 On ch=1 n=c5 v=61
94268 Par ch=1 c=64 v=127
94272 On ch=1 n=c5 v=0
94308 On ch=1 n=a#6 v=0
94308 On ch=1 n=g7 v=0
94320 On ch=1 n=a#6 v=85
94320 On ch=1 n=d4 v=59
94392 On ch=1 n=d4 v=0
94428 On ch=1 n=a#6 v=0
94440 On ch=1 n=a#7 v=70
94440 On ch=1 n=c#7 v=54
94440 On ch=1 n=f5 v=59
94548 On ch=1 n=c#7 v=0
94548 On ch=1 n=a#7 v=0
94556 On ch=1 n=f5 v=0
94560 On ch=1 n=g#6 v=83
94560 On ch=1 n=b4 v=57
94668 On ch=1 n=g#6 v=0
94676 On ch=1 n=b4 v=0
94680 On ch=1 n=b6 v=66
94680 On ch=1 n=g#7 v=72
94680 On ch=1 n=g#4 v=57
94788 On ch=1 n=g#7 v=0
94788 On ch=1 n=b6 v=0
94796 On ch=1 n=g#4 v=0
94800 On ch=1 n=f6 v=78
94800 On ch=1 n=g#5 v=56
94908 On ch=1 n=f6 v=0
94916 On ch=1 n=g#5 v=0
94920 On ch=1 n=f7 v=68
94920 On ch=1 n=g#6 v=63
94920 On ch=1 n=a#4 v=54
94972 Par ch=1 c=64 v=0
94992 On ch=1 n=a#4 v=0
95028 On ch=1 n=g#6 v=0
95028 On ch=1 n=f7 v=0
95040 On ch=1 n=f6 v=80
95040 On ch=1 n=d#4 v=65
95052 Par ch=1 c=64 v=127
95112 On ch=1 n=d#4 v=0
95148 On ch=1 n=f6 v=0
95160 On ch=1 n=f7 v=75
95160 On ch=1 n=g#6 v=64
95160 On ch=1 n=g#5 v=66
95268 On ch=1 n=g#6 v=0
95268 On ch=1 n=f7 v=0
95276 On ch=1 n=g#5 v=0
95280 On ch=1 n=e6 v=69
95280 On ch=1 n=d#5 v=63
95388 On ch=1 n=e6 v=0
95396 On ch=1 n=d#5 v=0
95400 On ch=1 n=e7 v=73
95400 On ch=1 n=g#6 v=72
95400 On ch=1 n=c5 v=61
95508 On ch=1 n=g#6 v=0
95508 On ch=1 n=e7 v=0
95516 On ch=1 n=c5 v=0
95520 On ch=1 n=d#6 v=75
95520 On ch=1 n=g#5 v=60
95628 On ch=1 n=d#6 v=0
95636 On ch=1 n=g#5 v=0
95640 On ch=1 n=d#7 v=76
95640 On ch=1 n=g#6 v=72
95640 On ch=1 n=d#5 v=57
95712 On ch=1 n=d#5 v=0
95712 Par ch=1 c=64 v=0
95748 On ch=1 n=g#6 v=0
95748 On ch=1 n=d#7 v=0
95760 On ch=1 n=f6 v=84
95760 On ch=1 n=d#4 v=65
95816 Par ch=1 c=64 v=127
95832 On ch=1 n=d#4 v=0
95868 On ch=1 n=f6 v=0
95880 On ch=1 n=f7 v=77
95880 On ch=1 n=a6 v=77
95880 On ch=1 n=a5 v=62
95988 On ch=1 n=a6 v=0
95988 On ch=1 n=f7 v=0
95996 On ch=1 n=a5 v=0
96000 On ch=1 n=e6 v=76
96000 On ch=1 n=d#5 v=60
96108 On ch=1 n=e6 v=0
96116 On ch=1 n=d#5 v=0
96120 On ch=1 n=e7 v=73
96120 On ch=1 n=a6 v=62
96120 On ch=1 n=c5 v=57
96228 On ch=1 n=a6 v=0
96228 On ch=1 n=e7 v=0
96236 On ch=1 n=c5 v=0
96240 On ch=1 n=d#6 v=74
96240 On ch=1 n=a5 v=56
96348 On ch=1 n=d#6 v=0
96356 On ch=1 n=a5 v=0
96360 On ch=1 n=d#7 v=68
96360 On ch=1 n=a6 v=63
96360 On ch=1 n=d#5 v=53
96400 Par ch=1 c=64 v=0
96432 On ch=1 n=d#5 v=0
96468 On ch=1 n=a6 v=0
96468 On ch=1 n=d#7 v=0
96480 On ch=1 n=f6 v=83
96480 On ch=1 n=d#4 v=62
96500 Par ch=1 c=64 v=127
96552 On ch=1 n=d#4 v=0
96588 On ch=1 n=f6 v=0
96600 On ch=1 n=f7 v=71
96600 On ch=1 n=a#6 v=62
96600 On ch=1 n=g5 v=60
96708 On ch=1 n=a#6 v=0
96708 On ch=1 n=f7 v=0
96716 On ch=1 n=g5 v=0
96720 On ch=1 n=e6 v=71
96720 On ch=1 n=d#5 v=59
96828 On ch=1 n=e6 v=0
96836 On ch=1 n=d#5 v=0
96840 On ch=1 n=e7 v=76
96840 On ch=1 n=a#6 v=64
96840 On ch=1 n=c#5 v=58
96948 On ch=1 n=a#6 v=0
96948 On ch=1 n=e7 v=0
96956 On ch=1 n=c#5 v=0
96960 On ch=1 n=d#6 v=73
96960 On ch=1 n=a#5 v=57
97068 On ch=1 n=d#6 v=0
97076 On ch=1 n=a#5 v=0
97080 On ch=1 n=a#6 v=64
97080 On ch=1 n=d#7 v=75
97080 On ch=1 n=d#5 v=52
97120 Par ch=1 c=64 v=0
97152 On ch=1 n=d#5 v=0
97188 On ch=1 n=d#7 v=0
97188 On ch=1 n=a#6 v=0
97200 On ch=1 n=d#6 v=79
97200 On ch=1 n=d#4 v=54
97240 Par ch=1 c=64 v=127
97272 On ch=1 n=d#4 v=0
97308 On ch=1 n=d#6 v=0
97320 On ch=1 n=c7 v=80
97320 On ch=1 n=d#7 v=62
97320 On ch=1 n=g5 v=59
97428 On ch=1 n=d#7 v=0
97428 On ch=1 n=c7 v=0
97436 On ch=1 n=g5 v=0
97440 On ch=1 n=d#6 v=71
97440 On ch=1 n=d#5 v=60
97548 On ch=1 n=d#6 v=0
97556 On ch=1 n=d#5 v=0
97560 On ch=1 n=c#7 v=82
97560 On ch=1 n=d#7 v=65
97560 On ch=1 n=c#5 v=58
97668 On ch=1 n=d#7 v=0
97668 On ch=1 n=c#7 v=0
97676 On ch=1 n=c#5 v=0
97680 On ch=1 n=d#6 v=69
97680 On ch=1 n=g5 v=59
97788 On ch=1 n=d#6 v=0
97796 On ch=1 n=g5 v=0
97800 On ch=1 n=d#7 v=65
97800 On ch=1 n=g6 v=83
97800 On ch=1 n=d#5 v=52
97864 Par ch=1 c=64 v=0
97872 On ch=1 n=d#5 v=0
97908 On ch=1 n=g6 v=0
97908 On ch=1 n=d#7 v=0
97920 On ch=1 n=f6 v=88
97920 On ch=1 n=d#4 v=64
97952 Par ch=1 c=64 v=127
97992 On ch=1 n=d#4 v=0
98028 On ch=1 n=f6 v=0
98040 On ch=1 n=g#6 v=67
98040 On ch=1 n=f7 v=73
98040 On ch=1 n=g#5 v=66
98148 On ch=1 n=f7 v=0
98148 On ch=1 n=g#6 v=0
98156 On ch=1 n=g#5 v=0
98160 On ch=1 n=e6 v=75
98160 On ch=1 n=d#5 v=64
98268 On ch=1 n=e6 v=0
98276 On ch=1 n=d#5 v=0
98280 On ch=1 n=e7 v=69
98280 On ch=1 n=g#6 v=72
98280 On ch=1 n=c5 v=60
98388 On ch=1 n=g#6 v=0
98388 On ch=1 n=e7 v=0
98396 On ch=1 n=c5 v=0
98400 On ch=1 n=d#6 v=67
98400 On ch=1 n=g#5 v=57
98452 Par ch=1 c=64 v=0
98508 On ch=1 n=d#6 v=0
98516 On ch=1 n=g#5 v=0
98520 On ch=1 n=d#7 v=72
98520 On ch=1 n=g#6 v=71
98520 On ch=1 n=d#5 v=56
98552 Par ch=1 c=64 v=127
98592 On ch=1 n=d#5 v=0
98628 On ch=1 n=g#6 v=0
98628 On ch=1 n=d#7 v=0
98640 On ch=1 n=f6 v=90
98640 On ch=1 n=d#4 v=63
98712 On ch=1 n=d#4 v=0
98748 On ch=1 n=f6 v=0
98760 On ch=1 n=a6 v=66
98760 On ch=1 n=f7 v=71
98760 On ch=1 n=a5 v=60
98868 On ch=1 n=f7 v=0
98868 On ch=1 n=a6 v=0
98876 On ch=1 n=a5 v=0
98880 On ch=1 n=e6 v=70
98880 On ch=1 n=d#5 v=59
98988 On ch=1 n=e6 v=0
98996 On ch=1 n=d#5 v=0
99000 On ch=1 n=a6 v=63
99000 On ch=1 n=e7 v=68
99000 On ch=1 n=c5 v=57
99108 On ch=1 n=e7 v=0
99108 On ch=1 n=a6 v=0
99116 On ch=1 n=c5 v=0
99120 On ch=1 n=d#6 v=72
99120 On ch=1 n=a5 v=57
99136 Par ch=1 c=64 v=0
99228 On ch=1 n=d#6 v=0
99236 On ch=1 n=a5 v=0
99240 On ch=1 n=a6 v=62
99240 On ch=1 n=d#7 v=75
99240 On ch=1 n=d#5 v=53
99296 Par ch=1 c=64 v=127
99312 On ch=1 n=d#5 v=0
99348 On ch=1 n=d#7 v=0
99348 On ch=1 n=a6 v=0
99360 On ch=1 n=d6 v=77
99360 On ch=1 n=d#4 v=53
99432 On ch=1 n=d#4 v=0
99468 On ch=1 n=d6 v=0
99480 On ch=1 n=g#6 v=68
99480 On ch=1 n=f7 v=74
99480 On ch=1 n=g#5 v=55
99588 On ch=1 n=f7 v=0
99588 On ch=1 n=g#6 v=0
99596 On ch=1 n=g#5 v=0
99600 On ch=1 n=g6 v=76
99600 On ch=1 n=d5 v=55
99708 On ch=1 n=g6 v=0
99716 On ch=1 n=d5 v=0
99720 On ch=1 n=g7 v=64
99720 On ch=1 n=a#6 v=70
99720 On ch=1 n=a#4 v=57
99828 On ch=1 n=a#6 v=0
99828 On ch=1 n=g7 v=0
99836 On ch=1 n=a#4 v=0
99840 On ch=1 n=f6 v=80
99840 On ch=1 n=g#5 v=57
99948 On ch=1 n=f6 v=0
99952 Par ch=1 c=64 v=0
99956 On ch=1 n=g#5 v=0
99960 On ch=1 n=c7 v=66
99960 On ch=1 n=g#7 v=71
99960 On ch=1 n=c#5 v=60
100020 Par ch=1 c=64 v=127
100032 On ch=1 n=c#5 v=0
100068 On ch=1 n=g#7 v=0
100068 On ch=1 n=c7 v=0
100080 On ch=1 n=d#6 v=75
100080 On ch=1 n=d#4 v=69
100152 On ch=1 n=d#4 v=0
100188 On ch=1 n=d#6 v=0
100200 On ch=1 n=c#7 v=65
100200 On ch=1 n=a#7 v=73
100200 On ch=1 n=g5 v=64
100308 On ch=1 n=a#7 v=0
100308 On ch=1 n=c#7 v=0
100316 On ch=1 n=g5 v=0
100320 On ch=1 n=c7 v=78
100320 On ch=1 n=d#5 v=61
100428 On ch=1 n=c7 v=0
100436 On ch=1 n=d#5 v=0
100440 On ch=1 n=c8 v=54
100440 On ch=1 n=d#7 v=62
100440 On ch=1 n=c#5 v=64
100548 On ch=1 n=d#7 v=0
100548 On ch=1 n=c8 v=0
100556 On ch=1 n=c#5 v=0
100560 On ch=1 n=a#6 v=75
100560 On ch=1 n=g5 v=64
100668 On ch=1 n=a#6 v=0
100676 On ch=1 n=g5 v=0
100680 On ch=1 n=g7 v=74
100680 On ch=1 n=c#7 v=62
100680 On ch=1 n=d#5 v=60
100740 Par ch=1 c=64 v=0
100752 On ch=1 n=d#5 v=0
100788 On ch=1 n=c#7 v=0
100788 On ch=1 n=g7 v=0
100800 On ch=1 n=g#6 v=65
100800 On ch=1 n=g#3 v=52
100832 Par ch=1 c=64 v=127
100872 On ch=1 n=g#3 v=0
100920 On ch=1 n=g#6 v=0
100920 On ch=1 n=g#7 v=65
100920 On ch=1 n=c7 v=56
100920 On ch=1 n=c5 v=53
101040 On ch=1 n=c5 v=0
101040 On ch=1 n=c7 v=0
101040 On ch=1 n=g#7 v=0
101040 On ch=1 n=a#6 v=72
101040 On ch=1 n=g#4 v=59
101160 On ch=1 n=g#4 v=0
101160 On ch=1 n=a#6 v=0
101160 On ch=1 n=c#7 v=54
101160 On ch=1 n=a#7 v=73
101160 On ch=1 n=d#4 v=60
101280 On ch=1 n=d#4 v=0
101280 On ch=1 n=a#7 v=0
101280 On ch=1 n=c#7 v=0
101280 On ch=1 n=b6 v=65
101280 On ch=1 n=d#5 v=60
101400 On ch=1 n=d#5 v=0
101400 On ch=1 n=b6 v=0
101400 On ch=1 n=d7 v=62
101400 On ch=1 n=b7 v=70
101400 On ch=1 n=g#4 v=55
101472 On ch=1 n=g#4 v=0
101520 On ch=1 n=b7 v=0
101520 On ch=1 n=d7 v=0
101520 On ch=1 n=c7 v=65
101520 On ch=1 n=g#3 v=54
101592 On ch=1 n=g#3 v=0
101640 On ch=1 n=c7 v=0
101640 On ch=1 n=d#7 v=63
101640 On ch=1 n=c8 v=72
101640 On ch=1 n=c5 v=60
101760 On ch=1 n=c5 v=0
101760 On ch=1 n=c8 v=0
101760 On ch=1 n=d#7 v=0
101760 On ch=1 n=c#7 v=65
101760 On ch=1 n=g#4 v=59
101880 On ch=1 n=g#4 v=0
101880 On ch=1 n=c#7 v=0
101880 On ch=1 n=c#8 v=67
101880 On ch=1 n=e7 v=64
101880 On ch=1 n=d#4 v=60
102000 On ch=1 n=d#4 v=0
102000 On ch=1 n=e7 v=0
102000 On ch=1 n=c#8 v=0
102000 On ch=1 n=d7 v=66
102000 On ch=1 n=d#5 v=62
102120 On ch=1 n=d#5 v=0
102120 On ch=1 n=d7 v=0
102120 On ch=1 n=d8 v=76
102120 On ch=1 n=f7 v=60
102120 On ch=1 n=g#4 v=51
102192 On ch=1 n=g#4 v=0
102208 Par ch=1 c=64 v=0
102240 On ch=1 n=f7 v=0
102240 On ch=1 n=d8 v=0
102240 On ch=1 n=d#7 v=70
102240 On ch=1 n=g#3 v=51
102284 Par ch=1 c=64 v=127
102312 On ch=1 n=g#3 v=0
102360 On ch=1 n=d#7 v=0
102360 On ch=1 n=d#8 v=76
102360 On ch=1 n=g7 v=66
102360 On ch=1 n=c#5 v=60
102480 On ch=1 n=c#5 v=0
102480 On ch=1 n=g7 v=0
102480 On ch=1 n=d#8 v=0
102480 On ch=1 n=f7 v=66
102480 On ch=1 n=g4 v=60
102600 On ch=1 n=g4 v=0
102600 On ch=1 n=f7 v=0
102600 On ch=1 n=f8 v=65
102600 On ch=1 n=g#7 v=65
102600 On ch=1 n=d#4 v=61
102720 On ch=1 n=d#4 v=0
102720 On ch=1 n=g#7 v=0
102720 On ch=1 n=f8 v=0
102720 On ch=1 n=d#7 v=73
102720 On ch=1 n=d#5 v=58
102840 On ch=1 n=d#5 v=0
102840 On ch=1 n=d#7 v=0
102840 On ch=1 n=d#8 v=76
102840 On ch=1 n=g7 v=62
102840 On ch=1 n=g4 v=49
102912 On ch=1 n=g4 v=0
102960 On ch=1 n=g7 v=0
102960 On ch=1 n=d#8 v=0
102960 On ch=1 n=c7 v=67
102960 On ch=1 n=g#3 v=51
102984 Par ch=1 c=64 v=0
103032 On ch=1 n=g#3 v=0
103072 Par ch=1 c=64 v=127
103080 On ch=1 n=c7 v=0
103080 On ch=1 n=d#7 v=61
103080 On ch=1 n=c8 v=63
103080 On ch=1 n=c5 v=64
103200 On ch=1 n=c5 v=0
103200 On ch=1 n=c8 v=0
103200 On ch=1 n=d#7 v=0
103200 On ch=1 n=a#6 v=68
103200 On ch=1 n=g#4 v=59
103320 On ch=1 n=g#4 v=0
103320 On ch=1 n=a#6 v=0
103320 On ch=1 n=c#7 v=53
103320 On ch=1 n=a#7 v=74
103320 On ch=1 n=d#4 v=59
103440 On ch=1 n=d#4 v=0
103440 On ch=1 n=a#7 v=0
103440 On ch=1 n=c#7 v=0
103440 On ch=1 n=c7 v=70
103440 On ch=1 n=d#5 v=58
103560 On ch=1 n=d#5 v=0
103560 On ch=1 n=c7 v=0
103560 On ch=1 n=c8 v=65
103560 On ch=1 n=d#7 v=60
103560 On ch=1 n=g#4 v=54
103632 On ch=1 n=g#4 v=0
103664 Par ch=1 c=64 v=0
103680 On ch=1 n=d#7 v=0
103680 On ch=1 n=c8 v=0
103680 On ch=1 n=a#6 v=66
103680 On ch=1 n=g#3 v=57
103752 On ch=1 n=g#3 v=0
103752 Par ch=1 c=64 v=127
103800 On ch=1 n=a#6 v=0
103800 On ch=1 n=c#7 v=62
103800 On ch=1 n=a#7 v=68
103800 On ch=1 n=c#5 v=59
103920 On ch=1 n=c#5 v=0
103920 On ch=1 n=a#7 v=0
103920 On ch=1 n=c#7 v=0
103920 On ch=1 n=c7 v=66
103920 On ch=1 n=g4 v=60
104040 On ch=1 n=g4 v=0
104040 On ch=1 n=c7 v=0
104040 On ch=1 n=d#7 v=67
104040 On ch=1 n=c8 v=65
104040 On ch=1 n=d#4 v=62
104160 On ch=1 n=d#4 v=0
104160 On ch=1 n=c8 v=0
104160 On ch=1 n=d#7 v=0
104160 On ch=1 n=g6 v=54
104160 On ch=1 n=d#5 v=60
104280 On ch=1 n=d#5 v=0
104280 On ch=1 n=g6 v=0
104280 On ch=1 n=a#6 v=57
104280 On ch=1 n=g7 v=69
104280 On ch=1 n=g4 v=54
104352 On ch=1 n=g4 v=0
104384 Par ch=1 c=64 v=0
104400 On ch=1 n=g7 v=0
104400 On ch=1 n=a#6 v=0
104400 On ch=1 n=g#6 v=71
104400 On ch=1 n=g#3 v=54
104460 Par ch=1 c=64 v=127
104472 On ch=1 n=g#3 v=0
104520 On ch=1 n=g#6 v=0
104520 On ch=1 n=c7 v=62
104520 On ch=1 n=g#7 v=70
104520 On ch=1 n=c5 v=59
104640 On ch=1 n=c5 v=0
104640 On ch=1 n=g#7 v=0
104640 On ch=1 n=c7 v=0
104640 On ch=1 n=g6 v=60
104640 On ch=1 n=g#4 v=57
104760 On ch=1 n=g#4 v=0
104760 On ch=1 n=g6 v=0
104760 On ch=1 n=g7 v=64
104760 On ch=1 n=a#6 v=57
104760 On ch=1 n=d#4 v=59
104880 On ch=1 n=d#4 v=0
104880 On ch=1 n=a#6 v=0
104880 On ch=1 n=g7 v=0
104880 On ch=1 n=g#6 v=70
104880 On ch=1 n=d#5 v=57
105000 On ch=1 n=d#5 v=0
105000 On ch=1 n=g#6 v=0
105000 On ch=1 n=c7 v=47
105000 On ch=1 n=g#7 v=65
105000 On ch=1 n=g#4 v=57
105008 Par ch=1 c=64 v=0
105072 On ch=1 n=g#4 v=0
105120 On ch=1 n=g#7 v=0
105120 On ch=1 n=c7 v=0
105120 On ch=1 n=d#6 v=60
105120 On ch=1 n=g#3 v=52
105136 Par ch=1 c=64 v=127
105192 On ch=1 n=g#3 v=0
105240 On ch=1 n=d#6 v=0
105240 On ch=1 n=g6 v=59
105240 On ch=1 n=d#7 v=64
105240 On ch=1 n=c#5 v=61
105360 On ch=1 n=c#5 v=0
105360 On ch=1 n=d#7 v=0
105360 On ch=1 n=g6 v=0
105360 On ch=1 n=f6 v=68
105360 On ch=1 n=g4 v=63
105480 On ch=1 n=g4 v=0
105480 On ch=1 n=f6 v=0
105480 On ch=1 n=g#6 v=64
105480 On ch=1 n=f7 v=66
105480 On ch=1 n=d#4 v=66
105600 On ch=1 n=d#4 v=0
105600 On ch=1 n=f7 v=0
105600 On ch=1 n=g#6 v=0
105600 On ch=1 n=d#6 v=62
105600 On ch=1 n=d#5 v=61
105720 On ch=1 n=d#5 v=0
105720 On ch=1 n=d#6 v=0
105720 On ch=1 n=d#7 v=57
105720 On ch=1 n=g6 v=51
105720 On ch=1 n=g4 v=63
105784 Par ch=1 c=64 v=0
105792 On ch=1 n=g4 v=0
105840 On ch=1 n=g6 v=0
105840 On ch=1 n=d#7 v=0
105840 On ch=1 n=c6 v=63
105840 On ch=1 n=g#3 v=51
105872 Par ch=1 c=64 v=127
105912 On ch=1 n=g#3 v=0
105960 On ch=1 n=c6 v=0
105960 On ch=1 n=c7 v=55
105960 On ch=1 n=d#6 v=60
105960 On ch=1 n=c5 v=64
106080 On ch=1 n=c5 v=0
106080 On ch=1 n=d#6 v=0
106080 On ch=1 n=c7 v=0
106080 On ch=1 n=a#5 v=55
106080 On ch=1 n=g#4 v=64
106200 On ch=1 n=g#4 v=0
106200 On ch=1 n=a#5 v=0
106200 On ch=1 n=a#6 v=69
106200 On ch=1 n=c#6 v=51
106200 On ch=1 n=d#4 v=59
106320 On ch=1 n=d#4 v=0
106320 On ch=1 n=c#6 v=0
106320 On ch=1 n=a#6 v=0
106320 On ch=1 n=c6 v=64
106320 On ch=1 n=d#5 v=61
106424 Par ch=1 c=64 v=0
106440 On ch=1 n=d#5 v=0
106440 On ch=1 n=c6 v=0
106440 On ch=1 n=c7 v=62
106440 On ch=1 n=d#6 v=63
106440 On ch=1 n=g#4 v=62
106512 On ch=1 n=g#4 v=0
106512 Par ch=1 c=64 v=127
106560 On ch=1 n=d#6 v=0
106560 On ch=1 n=c7 v=0
106560 On ch=1 n=a#5 v=61
106560 On ch=1 n=g#3 v=57
106632 On ch=1 n=g#3 v=0
106680 On ch=1 n=a#5 v=0
106680 On ch=1 n=c#6 v=57
106680 On ch=1 n=a#6 v=73
106680 On ch=1 n=c#5 v=58
106800 On ch=1 n=c#5 v=0
106800 On ch=1 n=a#6 v=0
106800 On ch=1 n=c#6 v=0
106800 On ch=1 n=c6 v=63
106800 On ch=1 n=g4 v=54
106920 On ch=1 n=g4 v=0
106920 On ch=1 n=c6 v=0
106920 On ch=1 n=d#6 v=66
106920 On ch=1 n=c7 v=68
106920 On ch=1 n=d#4 v=64
107040 On ch=1 n=d#4 v=0
107040 On ch=1 n=c7 v=0
107040 On ch=1 n=d#6 v=0
107040 On ch=1 n=g5 v=59
107040 On ch=1 n=d#5 v=61
107120 Par ch=1 c=64 v=0
107160 On ch=1 n=d#5 v=0
107160 On ch=1 n=g5 v=0
107160 On ch=1 n=a#5 v=56
107160 On ch=1 n=g6 v=69
107160 On ch=1 n=g4 v=51
107232 On ch=1 n=g4 v=0
107244 Par ch=1 c=64 v=127
107280 On ch=1 n=g6 v=0
107280 On ch=1 n=a#5 v=0
107280 On ch=1 n=g#5 v=60
107280 On ch=1 n=g#3 v=53
107352 On ch=1 n=g#3 v=0
107400 On ch=1 n=g#5 v=0
107400 On ch=1 n=g#6 v=67
107400 On ch=1 n=c6 v=63
107400 On ch=1 n=c5 v=58
107520 On ch=1 n=c5 v=0
107520 On ch=1 n=c6 v=0
107520 On ch=1 n=g#6 v=0
107520 On ch=1 n=c#6 v=67
107520 On ch=1 n=g#4 v=61
107640 On ch=1 n=g#4 v=0
107640 On ch=1 n=c#6 v=0
107640 On ch=1 n=c#7 v=65
107640 On ch=1 n=f6 v=69
107640 On ch=1 n=d#4 v=59
107760 On ch=1 n=d#4 v=0
107760 On ch=1 n=f6 v=0
107760 On ch=1 n=c#7 v=0
107760 On ch=1 n=c6 v=63
107760 On ch=1 n=d#5 v=57
107880 On ch=1 n=d#5 v=0
107880 On ch=1 n=c6 v=0
107880 On ch=1 n=d#6 v=64
107880 On ch=1 n=c7 v=79
107880 On ch=1 n=g#4 v=49
107952 On ch=1 n=g#4 v=0
108000 On ch=1 n=c7 v=0
108000 On ch=1 n=d#6 v=0
108000 On ch=1 n=g#5 v=63
108000 On ch=1 n=g#3 v=46
108072 On ch=1 n=g#3 v=0
108120 On ch=1 n=g#5 v=0
108120 On ch=1 n=c6 v=68
108120 On ch=1 n=g#6 v=67
108120 On ch=1 n=c5 v=60
108240 On ch=1 n=c5 v=0
108240 On ch=1 n=g#6 v=0
108240 On ch=1 n=c6 v=0
108240 On ch=1 n=c#6 v=67
108240 On ch=1 n=g#4 v=58
108360 On ch=1 n=g#4 v=0
108360 On ch=1 n=c#6 v=0
108360 On ch=1 n=c#7 v=65
108360 On ch=1 n=f6 v=69
108360 On ch=1 n=d#4 v=56
108480 On ch=1 n=d#4 v=0
108480 On ch=1 n=f6 v=0
108480 On ch=1 n=c#7 v=0
108480 On ch=1 n=c6 v=72
108480 On ch=1 n=d#5 v=58
108600 On ch=1 n=d#5 v=0
108600 On ch=1 n=c6 v=0
108600 On ch=1 n=d#6 v=59
108600 On ch=1 n=c7 v=72
108600 On ch=1 n=g#4 v=51
108672 On ch=1 n=g#4 v=0
108720 On ch=1 n=c7 v=0
108720 On ch=1 n=d#6 v=0
108720 On ch=1 n=g#5 v=63
108720 On ch=1 n=g#3 v=47
108792 On ch=1 n=g#3 v=0
108840 On ch=1 n=g#5 v=0
108840 On ch=1 n=g#6 v=72
108840 On ch=1 n=c6 v=52
108840 On ch=1 n=c5 v=60
108960 On ch=1 n=c5 v=0
108960 On ch=1 n=c6 v=0
108960 On ch=1 n=g#6 v=0
108960 On ch=1 n=c#6 v=66
108960 On ch=1 n=g#4 v=59
109080 On ch=1 n=g#4 v=0
109080 On ch=1 n=c#6 v=0
109080 On ch=1 n=c#7 v=63
109080 On ch=1 n=f6 v=70
109080 On ch=1 n=d#4 v=60
109200 On ch=1 n=d#4 v=0
109200 On ch=1 n=f6 v=0
109200 On ch=1 n=c#7 v=0
109200 On ch=1 n=c6 v=72
109200 On ch=1 n=d#5 v=58
109320 On ch=1 n=d#5 v=0
109320 On ch=1 n=c6 v=0
109320 On ch=1 n=c7 v=63
109320 On ch=1 n=d#6 v=50
109320 On ch=1 n=g#4 v=49
109392 On ch=1 n=g#4 v=0
109412 On ch=1 n=d#6 v=0
109412 On ch=1 n=c7 v=0
109464 On ch=1 n=g#5 v=70
109472 Par ch=1 c=64 v=0
109476 On ch=1 n=g#3 v=65
109540 Par ch=1 c=64 v=127
109584 On ch=1 n=g#6 v=68
109588 On ch=1 n=c6 v=54
109608 On ch=1 n=g#5 v=0
109620 On ch=1 n=c6 v=0
109644 On ch=1 n=g#6 v=0
109716 On ch=1 n=g#6 v=72
109840 On ch=1 n=g#7 v=74
109844 On ch=1 n=c7 v=66
109872 On ch=1 n=g#6 v=0
109964 On ch=1 n=g#7 v=0
109964 On ch=1 n=g#6 v=74
109980 On ch=1 n=c7 v=0
110004 On ch=1 n=g#6 v=0
110108 On ch=1 n=g#6 v=72
110108 On ch=1 n=c6 v=66
110112 On ch=1 n=g#3 v=0
110228 On ch=1 n=g#6 v=0
110228 On ch=1 n=g#5 v=72
110252 On ch=1 n=c6 v=0
110264 On ch=1 n=g#5 v=0
110356 On ch=1 n=c5 v=64
110360 On ch=1 n=g#5 v=74
110476 On ch=1 n=g#4 v=76
110484 On ch=1 n=g#5 v=0
110508 On ch=1 n=c5 v=0
110516 On ch=1 n=g#4 v=0
110616 On ch=1 n=c#5 v=73
110616 On ch=1 n=c#3 v=63
110616 On ch=1 n=c#4 v=67
110620 On ch=1 n=g#5 v=81
110624 On ch=1 n=e5 v=72
110624 Par ch=1 c=64 v=0
110640 Par ch=1 c=64 v=127
110668 On ch=1 n=c#5 v=0
110676 On ch=1 n=e5 v=0
110692 On ch=1 n=g#5 v=0
110772 On ch=1 n=g#5 v=82
110952 On ch=1 n=g#6 v=85
110960 On ch=1 n=e6 v=71
110964 On ch=1 n=c#6 v=70
110996 On ch=1 n=g#5 v=0
111012 On ch=1 n=c#6 v=0
111028 On ch=1 n=c#4 v=0
111032 On ch=1 n=e6 v=0
111036 On ch=1 n=c#3 v=0
111044 On ch=1 n=g#6 v=0
111104 Par ch=1 c=64 v=0
111104 On ch=1 n=g#5 v=79
111104 On ch=1 n=g#2 v=65
111104 On ch=1 n=g#3 v=65
111152 Par ch=1 c=64 v=127
111292 On ch=1 n=g#6 v=76
111292 On ch=1 n=d#6 v=65
111296 On ch=1 n=c6 v=62
111324 On ch=1 n=g#5 v=0
111336 On ch=1 n=c6 v=0
111364 On ch=1 n=d#6 v=0
111380 On ch=1 n=g#6 v=0
111476 On ch=1 n=g#6 v=71
111676 On ch=1 n=g#7 v=74
111680 On ch=1 n=d#7 v=65
111684 On ch=1 n=c7 v=64
111720 On ch=1 n=g#6 v=0
111860 On ch=1 n=g#7 v=0
111868 On ch=1 n=d#7 v=0
111872 On ch=1 n=c7 v=0
111872 On ch=1 n=g#6 v=73
111920 On ch=1 n=g#6 v=0
112100 On ch=1 n=g#6 v=66
112104 On ch=1 n=d#6 v=63
112108 On ch=1 n=c6 v=62
112308 On ch=1 n=g#6 v=0
112328 On ch=1 n=g#5 v=77
112344 On ch=1 n=d#6 v=0
112348 On ch=1 n=c6 v=0
112388 On ch=1 n=g#5 v=0
112592 On ch=1 n=g#5 v=86
112820 On ch=1 n=d#5 v=75
112824 On ch=1 n=c5 v=60
112992 On ch=1 n=c5 v=0
113012 On ch=1 n=d#5 v=0
113116 On ch=1 n=g#4 v=60
113120 On ch=1 n=c5 v=74
113292 On ch=1 n=c5 v=0
113296 On ch=1 n=g#4 v=0
113380 On ch=1 n=d#5 v=68
113448 On ch=1 n=a#4 v=55
113448 On ch=1 n=c#5 v=65
113512 On ch=1 n=d#5 v=0
113520 Par ch=1 c=64 v=0
113776 On ch=1 n=a#4 v=0
113820 On ch=1 n=c#5 v=0
113872 On ch=1 n=g#4 v=51
113872 On ch=1 n=c5 v=61
114212 On ch=1 n=g#4 v=0
114340 On ch=1 n=c5 v=0
114380 On ch=1 n=a#4 v=42
114380 On ch=1 n=c#5 v=54
114796 On ch=1 n=a#4 v=0
114948 On ch=1 n=c#5 v=0
115012 On ch=1 n=c5 v=38
115012 On ch=1 n=d#5 v=46
115192 Par ch=1 c=64 v=127
116820 On ch=1 n=c5 v=0
116832 On ch=1 n=g#3 v=0
116832 On ch=1 n=g#2 v=0
116836 On ch=1 n=g#5 v=0
116840 On ch=1 n=d#5 v=0
117020 Par ch=1 c=64 v=0
117020 Meta TrkEnd
TrkEnd
MTrk
0 SeqSpec 43 00 01 00
0 Meta TrkName "in Ab Major"
0 Meta 0x21 00
0 Meta TrkEnd
TrkEnd
MTrk
0 SeqSpec 43 00 01 00
0 Meta TrkName "Op. 10, No. 10"
0 Meta 0x21 00
0 Meta TrkEnd
TrkEnd
MTrk
0 SeqSpec 43 00 01 00
0 Meta TrkName "Chopin, Frederic"
0 Meta 0x21 00
0 Meta TrkEnd
TrkEnd
MTrk
0 SeqSpec 43 00 01 00
0 Meta TrkName "Sequenced by Anousone Kitisa"
0 Meta 0x21 00
0 Meta TrkEnd
TrkEnd
