MFile 1 7 480
MTrk
0 TimeSig 3/4 24 8
0 KeySig -3 major
0 Tempo 300000
4072 Tempo 1052632
4328 Tempo 1224490
4492 Tempo 952381
4664 Tempo 712483
5052 Tempo 660535
6928 Tempo 698914
7016 Tempo 712483
7104 Tempo 923077
7840 Tempo 685745
7864 Tempo 672957
9352 Tempo 685745
9488 Tempo 698914
9624 Tempo 712483
9760 Tempo 923077
9896 Tempo 937500
10032 Tempo 952381
10080 Tempo 1250000
10208 Tempo 937500
10320 Tempo 669193
10560 Tempo 659312
10812 Tempo 837989
11520 Tempo 655665
11772 Tempo 659312
13424 Tempo 847458
13904 Tempo 814111
14412 Tempo 834492
14880 Tempo 669193
15360 Tempo 704293
15840 Tempo 1052632
16064 Tempo 843882
20984 Tempo 833333
21064 Tempo 845070
21144 Tempo 660535
21224 Tempo 672957
21296 Tempo 685745
21376 Tempo 698914
21456 Tempo 712483
21528 Tempo 923077
21600 Tempo 1090909
21728 Tempo 952381
21840 Tempo 937500
21952 Tempo 923077
22056 Tempo 712483
22168 Tempo 698914
22272 Tempo 685745
22384 Tempo 672957
22488 Tempo 660535
25560 Tempo 846262
25892 Tempo 660535
26144 Tempo 675485
26352 Tempo 712483
26424 Tempo 923077
26496 Tempo 937500
26560 Tempo 952381
26632 Tempo 967742
26672 Tempo 952381
26712 Tempo 937500
26744 Tempo 923077
26784 Tempo 712483
26816 Tempo 698914
26832 Tempo 1016949
26840 Tempo 685745
26896 Tempo 698914
26952 Tempo 712483
27008 Tempo 923077
27064 Tempo 937500
27112 Tempo 952381
27168 Tempo 967742
27224 Tempo 983607
27280 Tempo 1000000
27336 Tempo 1016949
27384 Tempo 1250000
27472 Tempo 952381
27624 Tempo 698914
27852 Tempo 689655
28132 Tempo 674219
28520 Tempo 656877
29304 Tempo 843882
30160 Tempo 831025
31012 Tempo 823045
35052 Tempo 829876
35452 Tempo 842697
35824 Tempo 819672
36200 Tempo 804290
36652 Tempo 790514
38304 Tempo 801068
38472 Tempo 660535
38640 Tempo 690966
38784 Tempo 1016949
38892 Tempo 1282051
39048 Tempo 685745
39264 Tempo 655665
39572 Tempo 826446
39904 Tempo 803213
41092 Tempo 816327
41332 Tempo 656877
41584 Tempo 700253
41864 Tempo 671699
42104 Tempo 842697
42464 Tempo 820793
42652 Tempo 937500
42932 Tempo 949367
43172 Tempo 698914
43520 Tempo 672957
43744 Tempo 847458
43972 Tempo 685745
44212 Tempo 923077
44424 Tempo 983607
44652 Tempo 960000
44812 Tempo 845070
45400 Tempo 823045
46080 Tempo 816327
46784 Tempo 808625
46800 Tempo 809717
47520 Tempo 801068
48932 Tempo 808625
49240 Tempo 836820
49652 Tempo 664224
49840 Tempo 712483
50056 Tempo 1052632
50264 Tempo 1121495
50384 Tempo 1282051
50520 Tempo 1090909
50652 Tempo 705648
50960 Tempo 656877
51224 Tempo 833333
57704 Tempo 849858
58412 Tempo 671699
59040 Tempo 713862
59532 Tempo 829876
60052 Tempo 807537
60544 Tempo 793651
60984 Tempo 747198
64812 Tempo 774194
65092 Tempo 805369
65440 Tempo 845070
65692 Tempo 923077
66000 Tempo 975610
66240 Tempo 1132075
66452 Tempo 845070
66720 Tempo 810811
66984 Tempo 800000
67360 Tempo 816327
67680 Tempo 851064
68160 Tempo 679304
68480 Tempo 698914
68812 Tempo 930233
68960 Tempo 960000
69144 Tempo 719423
69332 Tempo 679304
69560 Tempo 845070
70932 Tempo 679304
71264 Tempo 698914
71532 Tempo 719423
71784 Tempo 952381
71920 Tempo 1034483
72064 Tempo 816327
72732 Tempo 750000
73132 Tempo 745342
73144 Tempo 750000
73452 Tempo 800000
73892 Tempo 745342
74184 Tempo 769231
74544 Tempo 800000
74880 Tempo 679304
75852 Tempo 930233
76080 Tempo 692281
76332 Tempo 666701
76572 Tempo 685745
76800 Tempo 705648
77052 Tempo 930233
77292 Tempo 967742
77544 Tempo 1081081
77772 Tempo 1034483
77892 Tempo 805369
79652 Tempo 679304
79992 Tempo 1090909
80180 Tempo 1008403
80640 Tempo 1237113
80960 Tempo 750000
82572 Tempo 714286
82572 Meta TrkEnd
TrkEnd
MTrk
0 SeqSpec 43 00 01 00
0 SysEx f0 41 10 42 12 40 00 7f 00 41 f7
0 SysEx f0 41 10 42 12 40 01 30 03 0c f7
0 Meta TrkEnd
TrkEnd
MTrk
0 SeqSpec 43 00 01 00
0 Meta TrkName "Etude No. 11"
0 Meta 0x21 00
476 Par ch=1 c=93 v=20
476 Par ch=1 c=0 v=0
476 Par ch=1 c=91 v=64
488 Par ch=1 c=0 v=0
488 PrCh ch=1 p=0
492 Par ch=1 c=7 v=127
1200 Par ch=1 c=64 v=127
4084 On ch=1 n=a#6 v=56
4136 On ch=1 n=a#6 v=0
4232 On ch=1 n=a#5 v=36
4268 On ch=1 n=g6 v=41
4276 On ch=1 n=a#5 v=0
4308 On ch=1 n=g6 v=0
4312 On ch=1 n=d#3 v=53
4320 On ch=1 n=d#7 v=56
4336 On ch=1 n=d#3 v=0
4340 On ch=1 n=d#7 v=0
4484 On ch=1 n=d#4 v=43
4512 On ch=1 n=a#5 v=40
4516 On ch=1 n=a#4 v=46
4524 On ch=1 n=d#4 v=0
4544 On ch=1 n=g6 v=46
4560 On ch=1 n=g5 v=47
4568 On ch=1 n=a#6 v=50
4580 On ch=1 n=a#4 v=0
4592 On ch=1 n=a#5 v=0
4600 On ch=1 n=g5 v=0
4624 On ch=1 n=g6 v=0
4656 On ch=1 n=a#6 v=0
4724 On ch=1 n=d#4 v=42
4732 On ch=1 n=a#5 v=47
4752 On ch=1 n=d#4 v=0
4752 On ch=1 n=a#4 v=43
4756 On ch=1 n=g6 v=50
4788 On ch=1 n=g5 v=45
4804 On ch=1 n=a6 v=59
4808 On ch=1 n=a#4 v=0
4820 On ch=1 n=g5 v=0
4840 On ch=1 n=g6 v=0
4848 On ch=1 n=a#5 v=0
4880 On ch=1 n=a6 v=0
4964 On ch=1 n=d#4 v=45
4968 On ch=1 n=a#5 v=41
5000 On ch=1 n=d#4 v=0
5000 On ch=1 n=a#4 v=45
5012 On ch=1 n=g6 v=45
5020 On ch=1 n=a#6 v=55
5032 On ch=1 n=g5 v=46
5056 On ch=1 n=a#4 v=0
5056 On ch=1 n=a#5 v=0
5060 On ch=1 n=g6 v=0
5084 On ch=1 n=g5 v=0
5104 On ch=1 n=a#6 v=0
5180 On ch=1 n=d#4 v=47
5188 On ch=1 n=a#5 v=40
5220 On ch=1 n=a#4 v=48
5228 On ch=1 n=d#4 v=0
5236 On ch=1 n=g6 v=46
5260 On ch=1 n=g5 v=50
5276 On ch=1 n=a#5 v=0
5280 On ch=1 n=c7 v=59
5300 On ch=1 n=g5 v=0
5300 On ch=1 n=a#4 v=0
5312 On ch=1 n=g6 v=0
5344 On ch=1 n=c7 v=0
5420 On ch=1 n=d#4 v=48
5440 On ch=1 n=a#5 v=40
5460 On ch=1 n=a#4 v=51
5468 On ch=1 n=d#4 v=0
5480 On ch=1 n=g6 v=47
5504 On ch=1 n=g5 v=53
5512 On ch=1 n=a#6 v=57
5540 On ch=1 n=g6 v=0
5540 On ch=1 n=a#5 v=0
5544 On ch=1 n=a#4 v=0
5560 On ch=1 n=g5 v=0
5584 On ch=1 n=a#6 v=0
5648 On ch=1 n=a#5 v=45
5648 Par ch=1 c=64 v=0
5672 On ch=1 n=d4 v=42
5692 On ch=1 n=g#6 v=48
5700 On ch=1 n=a#5 v=0
5704 Par ch=1 c=64 v=127
5708 On ch=1 n=d4 v=0
5712 On ch=1 n=a#4 v=42
5744 On ch=1 n=g#6 v=0
5760 On ch=1 n=f7 v=61
5760 On ch=1 n=g#5 v=47
5780 On ch=1 n=g#5 v=0
5784 On ch=1 n=a#4 v=0
5796 On ch=1 n=f7 v=0
5912 On ch=1 n=d4 v=41
5928 On ch=1 n=a#5 v=35
5940 On ch=1 n=d4 v=0
5940 On ch=1 n=a#4 v=42
5960 On ch=1 n=g#6 v=43
5992 On ch=1 n=a#6 v=58
5992 On ch=1 n=g#5 v=43
6016 On ch=1 n=a#4 v=0
6020 On ch=1 n=g#5 v=0
6024 On ch=1 n=a#5 v=0
6076 On ch=1 n=g#6 v=0
6096 On ch=1 n=a#6 v=0
6148 On ch=1 n=d4 v=47
6152 On ch=1 n=a#5 v=43
6168 On ch=1 n=d4 v=0
6176 On ch=1 n=a#4 v=50
6184 On ch=1 n=g#6 v=48
6228 On ch=1 n=a6 v=58
6228 On ch=1 n=g#5 v=51
6256 On ch=1 n=a#5 v=0
6260 On ch=1 n=g#5 v=0
6264 On ch=1 n=a#4 v=0
6288 On ch=1 n=g#6 v=0
6320 On ch=1 n=a6 v=0
6388 On ch=1 n=a#5 v=43
6392 On ch=1 n=d4 v=46
6424 On ch=1 n=g#6 v=47
6428 On ch=1 n=a#4 v=48
6436 On ch=1 n=d4 v=0
6472 On ch=1 n=a#6 v=59
6476 On ch=1 n=g#5 v=50
6500 On ch=1 n=g#5 v=0
6504 On ch=1 n=a#5 v=0
6516 On ch=1 n=a#4 v=0
6520 On ch=1 n=g#6 v=0
6560 On ch=1 n=a#6 v=0
6616 On ch=1 n=a#5 v=41
6636 On ch=1 n=d4 v=47
6660 On ch=1 n=a#4 v=50
6664 On ch=1 n=d4 v=0
6672 On ch=1 n=g#6 v=47
6700 On ch=1 n=a#5 v=0
6712 On ch=1 n=c7 v=57
6728 On ch=1 n=g#5 v=55
6760 On ch=1 n=g#5 v=0
6764 On ch=1 n=g#6 v=0
6792 On ch=1 n=c7 v=0
6800 On ch=1 n=a#4 v=0
6856 On ch=1 n=a#5 v=42
6872 On ch=1 n=d4 v=55
6908 On ch=1 n=a#4 v=55
6912 On ch=1 n=g#6 v=50
6924 On ch=1 n=d4 v=0
6952 On ch=1 n=a#6 v=57
6964 On ch=1 n=g#5 v=59
6968 On ch=1 n=a#5 v=0
6992 On ch=1 n=g#5 v=0
7004 On ch=1 n=g#6 v=0
7008 On ch=1 n=a#4 v=0
7020 On ch=1 n=a#6 v=0
7064 On ch=1 n=a#5 v=40
7100 Par ch=1 c=64 v=0
7108 On ch=1 n=g6 v=47
7108 On ch=1 n=d#4 v=46
7120 On ch=1 n=a#5 v=0
7140 On ch=1 n=a#6 v=48
7148 On ch=1 n=a#4 v=47
7152 On ch=1 n=g6 v=0
7152 Par ch=1 c=64 v=127
7164 On ch=1 n=d#4 v=0
7172 On ch=1 n=a#6 v=0
7196 On ch=1 n=g5 v=48
7200 On ch=1 n=g7 v=59
7232 On ch=1 n=g7 v=0
7236 On ch=1 n=g5 v=0
7252 On ch=1 n=a#4 v=0
7348 Par ch=1 c=64 v=0
7348 On ch=1 n=f4 v=41
7364 On ch=1 n=a#5 v=45
7388 Par ch=1 c=64 v=127
7388 On ch=1 n=a#4 v=45
7396 On ch=1 n=f4 v=0
7400 On ch=1 n=d6 v=50
7416 On ch=1 n=a#6 v=50
7420 On ch=1 n=d5 v=45
7444 On ch=1 n=a#5 v=0
7444 On ch=1 n=g#5 v=47
7452 On ch=1 n=d6 v=0
7452 On ch=1 n=d7 v=61
7456 On ch=1 n=d5 v=0
7476 On ch=1 n=a#4 v=0
7488 On ch=1 n=a#6 v=0
7500 On ch=1 n=d7 v=0
7508 On ch=1 n=g#5 v=0
7572 Par ch=1 c=64 v=0
7580 On ch=1 n=a#5 v=43
7604 On ch=1 n=g4 v=45
7616 Par ch=1 c=64 v=127
7628 On ch=1 n=d#6 v=47
7628 On ch=1 n=a#4 v=46
7656 On ch=1 n=a#6 v=56
7660 On ch=1 n=d#5 v=47
7664 On ch=1 n=a#5 v=0
7680 On ch=1 n=d#6 v=0
7680 On ch=1 n=g5 v=47
7684 On ch=1 n=g4 v=0
7684 On ch=1 n=d#7 v=66
7704 On ch=1 n=a#6 v=0
7712 On ch=1 n=a#4 v=0
7716 On ch=1 n=d#5 v=0
7724 On ch=1 n=g5 v=0
7732 On ch=1 n=d#7 v=0
7840 On ch=1 n=b5 v=51
7844 On ch=1 n=g3 v=53
7876 On ch=1 n=d#4 v=55
7880 On ch=1 n=b5 v=0
7880 On ch=1 n=d#6 v=55
7884 On ch=1 n=g3 v=0
7912 On ch=1 n=b4 v=57
7924 On ch=1 n=d#6 v=0
7932 On ch=1 n=d7 v=64
7936 On ch=1 n=d#4 v=0
7952 On ch=1 n=d7 v=0
7952 On ch=1 n=b4 v=0
8076 Par ch=1 c=64 v=0
8088 On ch=1 n=g#3 v=57
8100 On ch=1 n=c6 v=56
8116 On ch=1 n=d#4 v=58
8120 On ch=1 n=g#3 v=0
8120 Par ch=1 c=64 v=127
8128 On ch=1 n=d#6 v=58
8148 On ch=1 n=c5 v=61
8160 On ch=1 n=d#4 v=0
8172 On ch=1 n=c5 v=0
8180 On ch=1 n=c7 v=71
8216 On ch=1 n=c6 v=0
8228 On ch=1 n=d#6 v=0
8256 On ch=1 n=c7 v=0
8300 On ch=1 n=a3 v=57
8320 Par ch=1 c=64 v=0
8328 On ch=1 n=f4 v=59
8332 On ch=1 n=c6 v=57
8344 On ch=1 n=a3 v=0
8356 Par ch=1 c=64 v=127
8364 On ch=1 n=f6 v=61
8388 On ch=1 n=f4 v=0
8392 On ch=1 n=d#5 v=63
8400 On ch=1 n=c6 v=0
8416 On ch=1 n=d#5 v=0
8416 On ch=1 n=f7 v=72
8432 On ch=1 n=f6 v=0
8464 On ch=1 n=f7 v=0
8548 On ch=1 n=a#3 v=59
8576 On ch=1 n=d#4 v=61
8580 On ch=1 n=a#5 v=53
8580 Par ch=1 c=64 v=0
8604 On ch=1 n=a#3 v=0
8608 Par ch=1 c=64 v=127
8612 On ch=1 n=g4 v=63
8624 On ch=1 n=a#5 v=0
8624 On ch=1 n=g6 v=61
8636 On ch=1 n=d#4 v=0
8636 On ch=1 n=d#5 v=64
8660 On ch=1 n=g6 v=0
8668 On ch=1 n=d#7 v=77
8684 On ch=1 n=g4 v=0
8688 On ch=1 n=d#5 v=0
8704 On ch=1 n=d#7 v=0
8792 On ch=1 n=a#3 v=58
8816 Par ch=1 c=64 v=0
8824 On ch=1 n=f#4 v=58
8836 On ch=1 n=c6 v=48
8852 Par ch=1 c=64 v=127
8856 On ch=1 n=a#3 v=0
8856 On ch=1 n=f#6 v=48
8860 On ch=1 n=c6 v=0
8860 On ch=1 n=a4 v=59
8884 On ch=1 n=f#4 v=0
8884 On ch=1 n=a6 v=52
8892 On ch=1 n=d#5 v=61
8908 On ch=1 n=f#6 v=0
8912 On ch=1 n=d#7 v=71
8920 On ch=1 n=a6 v=0
8924 On ch=1 n=a4 v=0
8936 On ch=1 n=d#5 v=0
8960 On ch=1 n=d#7 v=0
9028 On ch=1 n=a#3 v=61
9064 On ch=1 n=f4 v=61
9068 Par ch=1 c=64 v=0
9072 On ch=1 n=a#5 v=46
9076 On ch=1 n=a#3 v=0
9096 On ch=1 n=f6 v=50
9100 Par ch=1 c=64 v=127
9100 On ch=1 n=a#4 v=61
9124 On ch=1 n=a#5 v=0
9128 On ch=1 n=f4 v=0
9128 On ch=1 n=a#6 v=57
9136 On ch=1 n=d5 v=61
9148 On ch=1 n=a#4 v=0
9148 On ch=1 n=f6 v=0
9148 On ch=1 n=d7 v=67
9168 On ch=1 n=d5 v=0
9168 On ch=1 n=a#6 v=0
9176 On ch=1 n=d7 v=0
9292 On ch=1 n=c4 v=58
9308 On ch=1 n=a#5 v=43
9308 Par ch=1 c=64 v=0
9320 On ch=1 n=g4 v=59
9344 On ch=1 n=e6 v=52
9344 Par ch=1 c=64 v=127
9344 On ch=1 n=a#4 v=59
9356 On ch=1 n=c4 v=0
9360 On ch=1 n=g6 v=53
9372 On ch=1 n=e5 v=59
9384 On ch=1 n=c#7 v=63
9396 On ch=1 n=a#5 v=0
9400 On ch=1 n=g4 v=0
9408 On ch=1 n=e6 v=0
9412 On ch=1 n=a#4 v=0
9416 On ch=1 n=e5 v=0
9420 On ch=1 n=g6 v=0
9444 On ch=1 n=c#7 v=0
9532 On ch=1 n=c4 v=58
9540 Par ch=1 c=64 v=0
9544 On ch=1 n=g#5 v=45
9568 On ch=1 n=g#4 v=58
9572 On ch=1 n=c4 v=0
9572 On ch=1 n=f6 v=52
9572 Par ch=1 c=64 v=127
9576 On ch=1 n=g#5 v=0
9588 On ch=1 n=g#6 v=55
9620 On ch=1 n=f5 v=58
9624 On ch=1 n=g#4 v=0
9628 On ch=1 n=c7 v=63
9636 On ch=1 n=f6 v=0
9640 On ch=1 n=f5 v=0
9656 On ch=1 n=g#6 v=0
9668 On ch=1 n=c7 v=0
9748 On ch=1 n=c4 v=50
9760 Par ch=1 c=64 v=0
9776 On ch=1 n=g4 v=48
9784 On ch=1 n=c6 v=48
9800 Par ch=1 c=64 v=127
9804 On ch=1 n=g6 v=59
9808 On ch=1 n=c4 v=0
9816 On ch=1 n=c5 v=48
9824 On ch=1 n=a#6 v=53
9856 On ch=1 n=g5 v=47
9860 On ch=1 n=g4 v=0
9864 On ch=1 n=e7 v=62
9872 On ch=1 n=c5 v=0
9872 On ch=1 n=g6 v=0
9884 On ch=1 n=c6 v=0
9892 On ch=1 n=g5 v=0
9908 On ch=1 n=a#6 v=0
9932 On ch=1 n=e7 v=0
10004 Par ch=1 c=64 v=0
10012 On ch=1 n=c6 v=43
10032 On ch=1 n=g#6 v=45
10044 Par ch=1 c=64 v=127
10052 On ch=1 n=c6 v=0
10080 On ch=1 n=f3 v=57
10092 On ch=1 n=f7 v=57
10096 On ch=1 n=g#6 v=0
10112 On ch=1 n=f3 v=0
10132 On ch=1 n=f7 v=0
10252 On ch=1 n=f4 v=51
10260 On ch=1 n=c6 v=43
10280 On ch=1 n=g#6 v=47
10296 On ch=1 n=c5 v=52
10300 On ch=1 n=f4 v=0
10320 On ch=1 n=c7 v=57
10332 On ch=1 n=g#5 v=53
10368 On ch=1 n=c5 v=0
10380 On ch=1 n=g#5 v=0
10392 On ch=1 n=c6 v=0
10404 On ch=1 n=g#6 v=0
10448 On ch=1 n=c7 v=0
10468 On ch=1 n=f4 v=46
10496 On ch=1 n=b5 v=39
10504 On ch=1 n=c5 v=47
10516 On ch=1 n=f4 v=0
10516 On ch=1 n=g#6 v=40
10544 On ch=1 n=g#5 v=50
10564 On ch=1 n=b6 v=56
10568 On ch=1 n=b5 v=0
10600 On ch=1 n=g#5 v=0
10608 On ch=1 n=c5 v=0
10612 On ch=1 n=g#6 v=0
10640 On ch=1 n=b6 v=0
10704 On ch=1 n=f4 v=46
10728 On ch=1 n=c6 v=40
10752 On ch=1 n=c5 v=47
10760 On ch=1 n=g#6 v=45
10768 On ch=1 n=f4 v=0
10796 On ch=1 n=c7 v=55
10796 On ch=1 n=g#5 v=47
10812 On ch=1 n=c6 v=0
10828 On ch=1 n=g#6 v=0
10840 On ch=1 n=g#5 v=0
10844 On ch=1 n=c5 v=0
10928 On ch=1 n=c7 v=0
10932 On ch=1 n=f4 v=46
10968 On ch=1 n=c#6 v=41
10972 On ch=1 n=c5 v=47
10984 On ch=1 n=g#6 v=43
10988 On ch=1 n=f4 v=0
11020 On ch=1 n=g#5 v=48
11032 On ch=1 n=c#7 v=55
11036 On ch=1 n=c#6 v=0
11064 On ch=1 n=g#6 v=0
11068 On ch=1 n=c5 v=0
11076 On ch=1 n=g#5 v=0
11160 On ch=1 n=c#7 v=0
11176 On ch=1 n=f4 v=48
11200 On ch=1 n=c6 v=41
11208 On ch=1 n=c5 v=50
11228 On ch=1 n=f4 v=0
11228 On ch=1 n=g#6 v=46
11252 On ch=1 n=g#5 v=51
11272 On ch=1 n=c7 v=52
11288 On ch=1 n=c6 v=0
11308 On ch=1 n=g#6 v=0
11316 On ch=1 n=g#5 v=0
11316 On ch=1 n=c5 v=0
11376 On ch=1 n=c7 v=0
11408 On ch=1 n=c6 v=37
11424 On ch=1 n=e4 v=43
11436 Par ch=1 c=64 v=0
11440 On ch=1 n=g6 v=42
11456 On ch=1 n=a#4 v=45
11464 Par ch=1 c=64 v=127
11468 On ch=1 n=c6 v=0
11468 On ch=1 n=a#6 v=48
11484 On ch=1 n=g6 v=0
11484 On ch=1 n=e4 v=0
11492 On ch=1 n=c5 v=45
11500 On ch=1 n=a#6 v=0
11508 On ch=1 n=g5 v=46
11528 On ch=1 n=g7 v=58
11540 On ch=1 n=c5 v=0
11552 On ch=1 n=g5 v=0
11556 On ch=1 n=a#4 v=0
11564 On ch=1 n=g7 v=0
11664 On ch=1 n=e4 v=42
11684 On ch=1 n=c6 v=45
11696 On ch=1 n=a#4 v=43
11712 On ch=1 n=g6 v=53
11720 On ch=1 n=c5 v=45
11724 On ch=1 n=e4 v=0
11724 On ch=1 n=a#6 v=53
11748 On ch=1 n=g5 v=45
11768 On ch=1 n=c7 v=63
11780 On ch=1 n=a#4 v=0
11784 On ch=1 n=c5 v=0
11792 On ch=1 n=g5 v=0
11804 On ch=1 n=c6 v=0
11808 On ch=1 n=g6 v=0
11848 On ch=1 n=a#6 v=0
11896 On ch=1 n=c7 v=0
11896 On ch=1 n=e4 v=48
11932 On ch=1 n=b5 v=45
11932 On ch=1 n=a#4 v=48
11948 On ch=1 n=g6 v=47
11952 On ch=1 n=c5 v=50
11960 On ch=1 n=e4 v=0
11976 On ch=1 n=a#6 v=52
11988 On ch=1 n=g5 v=50
12004 On ch=1 n=b6 v=67
12020 On ch=1 n=a#4 v=0
12024 On ch=1 n=c5 v=0
12024 On ch=1 n=g6 v=0
12032 On ch=1 n=b5 v=0
12036 On ch=1 n=g5 v=0
12064 On ch=1 n=a#6 v=0
12136 On ch=1 n=b6 v=0
12156 On ch=1 n=e4 v=50
12164 On ch=1 n=c6 v=48
12180 On ch=1 n=a#4 v=51
12184 On ch=1 n=g6 v=55
12204 On ch=1 n=a#6 v=50
12212 On ch=1 n=c5 v=51
12220 On ch=1 n=e4 v=0
12240 On ch=1 n=g5 v=52
12244 On ch=1 n=c7 v=69
12276 On ch=1 n=a#4 v=0
12288 On ch=1 n=g5 v=0
12288 On ch=1 n=c5 v=0
12288 On ch=1 n=c6 v=0
12292 On ch=1 n=g6 v=0
12328 On ch=1 n=a#6 v=0
12372 On ch=1 n=c7 v=0
12392 On ch=1 n=e4 v=52
12420 On ch=1 n=c#6 v=50
12428 On ch=1 n=a#4 v=52
12432 On ch=1 n=g6 v=52
12440 On ch=1 n=c5 v=53
12448 On ch=1 n=a#6 v=50
12452 On ch=1 n=e4 v=0
12476 On ch=1 n=g5 v=53
12488 On ch=1 n=c#7 v=71
12492 On ch=1 n=g6 v=0
12504 On ch=1 n=c#6 v=0
12524 On ch=1 n=g5 v=0
12524 On ch=1 n=c5 v=0
12532 On ch=1 n=a#6 v=0
12536 On ch=1 n=a#4 v=0
12612 On ch=1 n=c#7 v=0
12628 On ch=1 n=e4 v=56
12644 On ch=1 n=c6 v=51
12660 On ch=1 n=a#4 v=56
12668 On ch=1 n=g6 v=57
12684 On ch=1 n=a#6 v=59
12684 On ch=1 n=c5 v=56
12696 On ch=1 n=e4 v=0
12712 On ch=1 n=g5 v=57
12740 On ch=1 n=a#4 v=0
12740 On ch=1 n=c7 v=73
12748 On ch=1 n=c5 v=0
12752 On ch=1 n=g6 v=0
12756 On ch=1 n=g5 v=0
12760 On ch=1 n=c6 v=0
12784 On ch=1 n=a#6 v=0
12808 On ch=1 n=c7 v=0
12864 On ch=1 n=c6 v=46
12864 Par ch=1 c=64 v=0
12876 On ch=1 n=f4 v=61
12900 On ch=1 n=g#6 v=52
12904 On ch=1 n=g#4 v=61
12908 Par ch=1 c=64 v=127
12916 On ch=1 n=c6 v=0
12932 On ch=1 n=c5 v=62
12936 On ch=1 n=c7 v=59
12944 On ch=1 n=f4 v=0
12960 On ch=1 n=c7 v=0
12964 On ch=1 n=g#5 v=63
12968 On ch=1 n=g#6 v=0
12976 On ch=1 n=g#4 v=0
12992 On ch=1 n=c5 v=0
12996 On ch=1 n=g#7 v=77
13024 On ch=1 n=g#7 v=0
13024 On ch=1 n=g#5 v=0
13120 Par ch=1 c=64 v=0
13124 On ch=1 n=d#6 v=52
13128 On ch=1 n=g4 v=62
13148 Par ch=1 c=64 v=127
13148 On ch=1 n=a#4 v=62
13156 On ch=1 n=a#6 v=62
13172 On ch=1 n=g4 v=0
13188 On ch=1 n=d#6 v=0
13188 On ch=1 n=d#5 v=63
13200 On ch=1 n=d#7 v=67
13212 On ch=1 n=a#5 v=66
13220 On ch=1 n=a#4 v=0
13228 On ch=1 n=a#6 v=0
13228 On ch=1 n=g7 v=75
13240 On ch=1 n=d#5 v=0
13272 On ch=1 n=a#5 v=0
13272 On ch=1 n=d#7 v=0
13292 On ch=1 n=g7 v=0
13344 Par ch=1 c=64 v=0
13372 On ch=1 n=g#4 v=66
13376 On ch=1 n=f6 v=58
13380 Par ch=1 c=64 v=127
13400 On ch=1 n=d#5 v=67
13408 On ch=1 n=g#4 v=0
13412 On ch=1 n=c7 v=61
13416 On ch=1 n=d#7 v=63
13440 On ch=1 n=d#5 v=0
13448 On ch=1 n=f7 v=75
13448 On ch=1 n=c6 v=68
13476 On ch=1 n=c6 v=0
13480 On ch=1 n=f6 v=0
13484 On ch=1 n=c7 v=0
13504 On ch=1 n=d#7 v=0
13540 On ch=1 n=f7 v=0
13592 On ch=1 n=g#4 v=66
13628 On ch=1 n=d#6 v=61
13648 On ch=1 n=f5 v=68
13652 On ch=1 n=b6 v=64
13660 On ch=1 n=g#4 v=0
13664 On ch=1 n=d#7 v=67
13676 On ch=1 n=b5 v=68
13688 On ch=1 n=d#6 v=0
13704 On ch=1 n=f7 v=78
13728 On ch=1 n=b6 v=0
13728 On ch=1 n=f5 v=0
13748 On ch=1 n=b5 v=0
13756 On ch=1 n=d#7 v=0
13768 On ch=1 n=f7 v=0
13836 Par ch=1 c=64 v=0
13848 On ch=1 n=a#4 v=64
13852 On ch=1 n=d6 v=53
13880 On ch=1 n=a#6 v=68
13880 Par ch=1 c=64 v=127
13888 On ch=1 n=f5 v=66
13912 On ch=1 n=d6 v=0
13916 On ch=1 n=a#5 v=67
13928 On ch=1 n=f7 v=77
13948 On ch=1 n=a#6 v=0
13952 On ch=1 n=f5 v=0
13956 On ch=1 n=a#4 v=0
13980 On ch=1 n=a#5 v=0
13984 On ch=1 n=f7 v=0
14076 On ch=1 n=d6 v=55
14092 On ch=1 n=a#4 v=58
14112 On ch=1 n=g#6 v=64
14120 On ch=1 n=d6 v=0
14136 On ch=1 n=f5 v=59
14152 On ch=1 n=g#6 v=0
14164 On ch=1 n=g7 v=80
14172 On ch=1 n=g#5 v=62
14196 On ch=1 n=g7 v=0
14196 On ch=1 n=a#4 v=0
14200 On ch=1 n=f5 v=0
14228 On ch=1 n=g#5 v=0
14336 On ch=1 n=d#6 v=53
14340 Par ch=1 c=64 v=0
14364 On ch=1 n=g6 v=64
14376 Par ch=1 c=64 v=127
14376 On ch=1 n=d#5 v=56
14400 On ch=1 n=d#7 v=82
14400 On ch=1 n=g5 v=62
14432 On ch=1 n=d#5 v=0
14444 On ch=1 n=g6 v=0
14448 On ch=1 n=d#6 v=0
14464 On ch=1 n=g5 v=0
14472 On ch=1 n=d#7 v=0
14564 On ch=1 n=a4 v=58
14572 Par ch=1 c=64 v=0
14592 On ch=1 n=d#6 v=56
14596 On ch=1 n=f#5 v=59
14604 On ch=1 n=a4 v=0
14604 Par ch=1 c=64 v=127
14616 On ch=1 n=f#6 v=59
14636 On ch=1 n=c6 v=61
14648 On ch=1 n=d#7 v=74
14680 On ch=1 n=f#5 v=0
14688 On ch=1 n=c6 v=0
14692 On ch=1 n=d#6 v=0
14696 On ch=1 n=f#6 v=0
14728 On ch=1 n=d#7 v=0
14808 On ch=1 n=d6 v=53
14816 Par ch=1 c=64 v=0
14816 On ch=1 n=a#4 v=58
14844 On ch=1 n=f6 v=58
14852 Par ch=1 c=64 v=127
14852 On ch=1 n=f5 v=59
14868 On ch=1 n=a#5 v=61
14884 On ch=1 n=d7 v=72
14892 On ch=1 n=a#4 v=0
14900 On ch=1 n=f5 v=0
14912 On ch=1 n=d6 v=0
14920 On ch=1 n=a#5 v=0
14928 On ch=1 n=f6 v=0
14948 On ch=1 n=d7 v=0
15040 Par ch=1 c=64 v=0
15040 On ch=1 n=e4 v=56
15064 On ch=1 n=a#5 v=51
15076 Par ch=1 c=64 v=127
15080 On ch=1 n=c#5 v=57
15092 On ch=1 n=e4 v=0
15100 On ch=1 n=g6 v=57
15124 On ch=1 n=c#7 v=71
15128 On ch=1 n=g5 v=57
15156 On ch=1 n=g6 v=0
15164 On ch=1 n=a#5 v=0
15172 On ch=1 n=c#5 v=0
15192 On ch=1 n=g5 v=0
15208 On ch=1 n=c#7 v=0
15260 Par ch=1 c=64 v=0
15296 On ch=1 n=g#5 v=46
15296 On ch=1 n=f4 v=61
15304 Par ch=1 c=64 v=127
15328 On ch=1 n=g#5 v=0
15328 On ch=1 n=c5 v=61
15332 On ch=1 n=g#6 v=48
15352 On ch=1 n=g#6 v=0
15360 On ch=1 n=c7 v=68
15360 On ch=1 n=f5 v=62
15392 On ch=1 n=c5 v=0
15392 On ch=1 n=f4 v=0
15408 On ch=1 n=f5 v=0
15408 On ch=1 n=c7 v=0
15504 On ch=1 n=a#3 v=57
15536 On ch=1 n=g#5 v=47
15540 On ch=1 n=f4 v=57
15560 On ch=1 n=a#3 v=0
15560 On ch=1 n=f6 v=50
15568 On ch=1 n=g#5 v=0
15568 On ch=1 n=g#4 v=57
15600 On ch=1 n=d5 v=58
15604 On ch=1 n=f6 v=0
15608 On ch=1 n=f4 v=0
15608 On ch=1 n=d7 v=68
15632 On ch=1 n=g#4 v=0
15636 On ch=1 n=d7 v=0
15648 On ch=1 n=d5 v=0
15760 Par ch=1 c=64 v=0
15776 On ch=1 n=g5 v=42
15780 Par ch=1 c=64 v=127
15800 On ch=1 n=d#6 v=47
15804 On ch=1 n=g5 v=0
15832 On ch=1 n=d#3 v=57
15844 On ch=1 n=d#6 v=0
15852 On ch=1 n=d#7 v=66
15876 On ch=1 n=d#7 v=0
15888 On ch=1 n=d#3 v=0
16024 On ch=1 n=a#5 v=39
16028 On ch=1 n=d#4 v=48
16040 On ch=1 n=d#6 v=41
16044 On ch=1 n=a#4 v=48
16056 On ch=1 n=d#4 v=0
16084 On ch=1 n=a#6 v=62
16092 On ch=1 n=g5 v=51
16096 On ch=1 n=a#5 v=0
16112 On ch=1 n=d#6 v=0
16132 On ch=1 n=g5 v=0
16136 On ch=1 n=a#4 v=0
16188 On ch=1 n=a#6 v=0
16252 On ch=1 n=d#4 v=51
16272 On ch=1 n=a#5 v=43
16280 On ch=1 n=d#4 v=0
16280 On ch=1 n=a#4 v=52
16292 On ch=1 n=d#6 v=46
16328 On ch=1 n=a6 v=58
16328 On ch=1 n=g5 v=53
16332 On ch=1 n=a#4 v=0
16336 On ch=1 n=a#5 v=0
16344 On ch=1 n=d#6 v=0
16372 On ch=1 n=g5 v=0
16448 On ch=1 n=a6 v=0
16504 On ch=1 n=d#4 v=50
16508 On ch=1 n=a#5 v=42
16528 On ch=1 n=a#4 v=51
16536 On ch=1 n=d#4 v=0
16536 On ch=1 n=d#6 v=46
16564 On ch=1 n=a#6 v=57
16572 On ch=1 n=a#5 v=0
16572 On ch=1 n=g5 v=52
16580 On ch=1 n=d#6 v=0
16604 On ch=1 n=a#4 v=0
16612 On ch=1 n=g5 v=0
16676 On ch=1 n=a#6 v=0
16736 On ch=1 n=a#5 v=39
16752 On ch=1 n=d#4 v=50
16768 On ch=1 n=d#4 v=0
16768 On ch=1 n=d#6 v=45
16768 On ch=1 n=a#4 v=50
16800 On ch=1 n=a#5 v=0
16812 On ch=1 n=c7 v=57
16812 On ch=1 n=g5 v=51
16832 On ch=1 n=d#6 v=0
16848 On ch=1 n=g5 v=0
16852 On ch=1 n=a#4 v=0
16876 On ch=1 n=c7 v=0
16976 On ch=1 n=a#5 v=41
16976 On ch=1 n=d#4 v=50
17008 On ch=1 n=a#4 v=50
17012 On ch=1 n=d#6 v=46
17016 On ch=1 n=d#4 v=0
17048 On ch=1 n=a#6 v=57
17052 On ch=1 n=g5 v=51
17056 On ch=1 n=a#4 v=0
17056 On ch=1 n=a#5 v=0
17068 On ch=1 n=d#6 v=0
17084 On ch=1 n=g5 v=0
17140 On ch=1 n=a#6 v=0
17180 Par ch=1 c=64 v=0
17200 Par ch=1 c=64 v=127
17208 On ch=1 n=d4 v=48
17216 On ch=1 n=a#5 v=46
17232 On ch=1 n=a#4 v=48
17240 On ch=1 n=g#6 v=50
17244 On ch=1 n=d4 v=0
17248 On ch=1 n=a#5 v=0
17268 On ch=1 n=g#6 v=0
17276 On ch=1 n=a#4 v=0
17292 On ch=1 n=f7 v=61
17292 On ch=1 n=g#5 v=51
17308 On ch=1 n=g#5 v=0
17312 On ch=1 n=f7 v=0
17432 On ch=1 n=d4 v=55
17448 On ch=1 n=a#5 v=45
17460 On ch=1 n=d4 v=0
17460 On ch=1 n=a#4 v=56
17480 On ch=1 n=g#6 v=51
17512 On ch=1 n=a#6 v=57
17512 On ch=1 n=g#5 v=56
17536 On ch=1 n=a#4 v=0
17540 On ch=1 n=g#5 v=0
17544 On ch=1 n=a#5 v=0
17596 On ch=1 n=g#6 v=0
17616 On ch=1 n=a#6 v=0
17668 On ch=1 n=d4 v=50
17672 On ch=1 n=a#5 v=47
17688 On ch=1 n=d4 v=0
17696 On ch=1 n=a#4 v=51
17704 On ch=1 n=g#6 v=52
17748 On ch=1 n=a6 v=57
17748 On ch=1 n=g#5 v=51
17776 On ch=1 n=a#5 v=0
17780 On ch=1 n=g#5 v=0
17784 On ch=1 n=a#4 v=0
17808 On ch=1 n=g#6 v=0
17840 On ch=1 n=a6 v=0
17908 On ch=1 n=a#5 v=47
17912 On ch=1 n=d4 v=51
17944 On ch=1 n=g#6 v=50
17948 On ch=1 n=a#4 v=52
17956 On ch=1 n=d4 v=0
17992 On ch=1 n=a#6 v=53
17996 On ch=1 n=g#5 v=53
18020 On ch=1 n=g#5 v=0
18024 On ch=1 n=a#5 v=0
18036 On ch=1 n=a#4 v=0
18040 On ch=1 n=g#6 v=0
18080 On ch=1 n=a#6 v=0
18136 On ch=1 n=a#5 v=40
18156 On ch=1 n=d4 v=53
18180 On ch=1 n=a#4 v=53
18184 On ch=1 n=d4 v=0
18192 On ch=1 n=g#6 v=45
18220 On ch=1 n=a#5 v=0
18232 On ch=1 n=c7 v=57
18248 On ch=1 n=g#5 v=57
18280 On ch=1 n=g#5 v=0
18284 On ch=1 n=g#6 v=0
18312 On ch=1 n=c7 v=0
18320 On ch=1 n=a#4 v=0
18376 On ch=1 n=a#5 v=42
18392 On ch=1 n=d4 v=51
18428 On ch=1 n=a#4 v=52
18432 On ch=1 n=g#6 v=52
18444 On ch=1 n=d4 v=0
18472 On ch=1 n=a#6 v=56
18484 On ch=1 n=g#5 v=53
18488 On ch=1 n=a#5 v=0
18512 On ch=1 n=g#5 v=0
18524 On ch=1 n=g#6 v=0
18528 On ch=1 n=a#4 v=0
18540 On ch=1 n=a#6 v=0
18584 On ch=1 n=a#5 v=42
18628 On ch=1 n=g6 v=47
18628 On ch=1 n=d#4 v=55
18640 On ch=1 n=a#5 v=0
18660 On ch=1 n=a#6 v=52
18660 Par ch=1 c=64 v=0
18668 On ch=1 n=a#4 v=59
18672 On ch=1 n=g6 v=0
18684 On ch=1 n=d#4 v=0
18692 On ch=1 n=a#6 v=0
18704 Par ch=1 c=64 v=127
18716 On ch=1 n=g5 v=61
18720 On ch=1 n=g7 v=63
18752 On ch=1 n=g7 v=0
18756 On ch=1 n=g5 v=0
18772 On ch=1 n=a#4 v=0
18868 On ch=1 n=f4 v=53
18884 On ch=1 n=a#5 v=48
18900 Par ch=1 c=64 v=0
18908 On ch=1 n=a#4 v=57
18916 On ch=1 n=f4 v=0
18920 On ch=1 n=d6 v=55
18928 Par ch=1 c=64 v=127
18936 On ch=1 n=a#6 v=57
18940 On ch=1 n=d5 v=58
18964 On ch=1 n=a#5 v=0
18964 On ch=1 n=g#5 v=59
18972 On ch=1 n=d6 v=0
18972 On ch=1 n=d7 v=63
18976 On ch=1 n=d5 v=0
18996 On ch=1 n=a#4 v=0
19008 On ch=1 n=a#6 v=0
19020 On ch=1 n=d7 v=0
19028 On ch=1 n=g#5 v=0
19100 On ch=1 n=a#5 v=47
19108 Par ch=1 c=64 v=0
19124 On ch=1 n=g4 v=57
19144 Par ch=1 c=64 v=127
19148 On ch=1 n=d#6 v=56
19148 On ch=1 n=a#4 v=57
19176 On ch=1 n=a#6 v=62
19180 On ch=1 n=d#5 v=59
19184 On ch=1 n=a#5 v=0
19200 On ch=1 n=d#6 v=0
19200 On ch=1 n=g5 v=61
19204 On ch=1 n=g4 v=0
19204 On ch=1 n=d#7 v=67
19224 On ch=1 n=a#6 v=0
19232 On ch=1 n=a#4 v=0
19236 On ch=1 n=d#5 v=0
19244 On ch=1 n=g5 v=0
19252 On ch=1 n=d#7 v=0
19360 On ch=1 n=b5 v=48
19364 On ch=1 n=g3 v=57
19396 On ch=1 n=d#4 v=61
19400 On ch=1 n=b5 v=0
19400 On ch=1 n=d#6 v=55
19404 On ch=1 n=g3 v=0
19432 On ch=1 n=b4 v=63
19444 On ch=1 n=d#6 v=0
19452 On ch=1 n=d7 v=69
19456 On ch=1 n=d#4 v=0
19472 On ch=1 n=d7 v=0
19472 On ch=1 n=b4 v=0
19592 Par ch=1 c=64 v=0
19608 On ch=1 n=g#3 v=58
19620 On ch=1 n=c6 v=56
19632 Par ch=1 c=64 v=127
19636 On ch=1 n=d#4 v=61
19640 On ch=1 n=g#3 v=0
19648 On ch=1 n=d#6 v=61
19668 On ch=1 n=c5 v=63
19680 On ch=1 n=d#4 v=0
19692 On ch=1 n=c5 v=0
19700 On ch=1 n=c7 v=69
19736 On ch=1 n=c6 v=0
19748 On ch=1 n=d#6 v=0
19776 On ch=1 n=c7 v=0
19820 On ch=1 n=a3 v=66
19844 Par ch=1 c=64 v=0
19848 On ch=1 n=f4 v=67
19852 On ch=1 n=c6 v=59
19864 On ch=1 n=a3 v=0
19876 Par ch=1 c=64 v=127
19884 On ch=1 n=f6 v=63
19908 On ch=1 n=f4 v=0
19912 On ch=1 n=d#5 v=72
19920 On ch=1 n=c6 v=0
19936 On ch=1 n=d#5 v=0
19936 On ch=1 n=f7 v=77
19952 On ch=1 n=f6 v=0
19984 On ch=1 n=f7 v=0
20068 On ch=1 n=a#3 v=69
20080 Par ch=1 c=64 v=0
20096 On ch=1 n=d#4 v=73
20100 On ch=1 n=a#5 v=63
20112 Par ch=1 c=64 v=127
20124 On ch=1 n=a#3 v=0
20132 On ch=1 n=g4 v=74
20144 On ch=1 n=a#5 v=0
20144 On ch=1 n=g6 v=72
20156 On ch=1 n=d#4 v=0
20156 On ch=1 n=d#5 v=74
20180 On ch=1 n=g6 v=0
20188 On ch=1 n=d#7 v=84
20204 On ch=1 n=g4 v=0
20208 On ch=1 n=d#5 v=0
20224 On ch=1 n=d#7 v=0
20312 On ch=1 n=a#3 v=73
20324 Par ch=1 c=64 v=0
20344 On ch=1 n=f#4 v=74
20356 On ch=1 n=c6 v=64
20360 Par ch=1 c=64 v=127
20376 On ch=1 n=a#3 v=0
20376 On ch=1 n=f#6 v=68
20380 On ch=1 n=c6 v=0
20380 On ch=1 n=a4 v=74
20404 On ch=1 n=f#4 v=0
20404 On ch=1 n=a6 v=72
20412 On ch=1 n=d#5 v=74
20428 On ch=1 n=f#6 v=0
20432 On ch=1 n=d#7 v=84
20440 On ch=1 n=a6 v=0
20444 On ch=1 n=a4 v=0
20456 On ch=1 n=d#5 v=0
20480 On ch=1 n=d#7 v=0
20548 On ch=1 n=a#3 v=69
20576 Par ch=1 c=64 v=0
20584 On ch=1 n=f4 v=71
20592 On ch=1 n=a#5 v=57
20596 On ch=1 n=a#3 v=0
20608 Par ch=1 c=64 v=127
20616 On ch=1 n=f6 v=59
20620 On ch=1 n=a#4 v=71
20644 On ch=1 n=a#5 v=0
20648 On ch=1 n=f4 v=0
20648 On ch=1 n=a#6 v=66
20656 On ch=1 n=d5 v=71
20668 On ch=1 n=a#4 v=0
20668 On ch=1 n=f6 v=0
20668 On ch=1 n=d7 v=79
20688 On ch=1 n=d5 v=0
20688 On ch=1 n=a#6 v=0
20696 On ch=1 n=d7 v=0
20812 On ch=1 n=c4 v=69
20824 Par ch=1 c=64 v=0
20828 On ch=1 n=a#5 v=51
20840 On ch=1 n=g4 v=69
20852 Par ch=1 c=64 v=127
20864 On ch=1 n=e6 v=64
20864 On ch=1 n=a#4 v=69
20876 On ch=1 n=c4 v=0
20880 On ch=1 n=g6 v=67
20892 On ch=1 n=e5 v=69
20904 On ch=1 n=c#7 v=77
20916 On ch=1 n=a#5 v=0
20920 On ch=1 n=g4 v=0
20928 On ch=1 n=e6 v=0
20932 On ch=1 n=a#4 v=0
20936 On ch=1 n=e5 v=0
20940 On ch=1 n=g6 v=0
20964 On ch=1 n=c#7 v=0
21052 On ch=1 n=c4 v=66
21060 Par ch=1 c=64 v=0
21064 On ch=1 n=g#5 v=40
21088 Par ch=1 c=64 v=127
21088 On ch=1 n=g#4 v=66
21092 On ch=1 n=c4 v=0
21092 On ch=1 n=f6 v=58
21096 On ch=1 n=g#5 v=0
21108 On ch=1 n=g#6 v=61
21140 On ch=1 n=f5 v=66
21144 On ch=1 n=g#4 v=0
21148 On ch=1 n=c7 v=73
21156 On ch=1 n=f6 v=0
21160 On ch=1 n=f5 v=0
21176 On ch=1 n=g#6 v=0
21188 On ch=1 n=c7 v=0
21268 On ch=1 n=c4 v=61
21288 Par ch=1 c=64 v=0
21296 On ch=1 n=g4 v=61
21304 On ch=1 n=c6 v=48
21316 Par ch=1 c=64 v=127
21324 On ch=1 n=g6 v=59
21328 On ch=1 n=c4 v=0
21336 On ch=1 n=c5 v=62
21344 On ch=1 n=a#6 v=53
21376 On ch=1 n=g5 v=62
21380 On ch=1 n=g4 v=0
21384 On ch=1 n=e7 v=66
21392 On ch=1 n=c5 v=0
21392 On ch=1 n=g6 v=0
21404 On ch=1 n=c6 v=0
21412 On ch=1 n=g5 v=0
21428 On ch=1 n=a#6 v=0
21452 On ch=1 n=e7 v=0
21532 On ch=1 n=c6 v=43
21532 Par ch=1 c=64 v=0
21552 On ch=1 n=g#6 v=48
21560 Par ch=1 c=64 v=127
21572 On ch=1 n=c6 v=0
21588 On ch=1 n=f3 v=56
21612 On ch=1 n=f7 v=64
21616 On ch=1 n=g#6 v=0
21620 On ch=1 n=f3 v=0
21652 On ch=1 n=f7 v=0
21772 On ch=1 n=f4 v=43
21780 On ch=1 n=c6 v=48
21800 On ch=1 n=g#6 v=51
21816 On ch=1 n=c5 v=48
21820 On ch=1 n=f4 v=0
21840 On ch=1 n=c7 v=63
21852 On ch=1 n=g#5 v=51
21888 On ch=1 n=c5 v=0
21900 On ch=1 n=g#5 v=0
21912 On ch=1 n=c6 v=0
21924 On ch=1 n=g#6 v=0
21968 On ch=1 n=c7 v=0
21988 On ch=1 n=f4 v=48
22016 On ch=1 n=b5 v=41
22024 On ch=1 n=c5 v=50
22036 On ch=1 n=f4 v=0
22036 On ch=1 n=g#6 v=45
22064 On ch=1 n=g#5 v=51
22084 On ch=1 n=b6 v=57
22088 On ch=1 n=b5 v=0
22120 On ch=1 n=g#5 v=0
22128 On ch=1 n=c5 v=0
22132 On ch=1 n=g#6 v=0
22220 On ch=1 n=b6 v=0
22224 On ch=1 n=f4 v=48
22248 On ch=1 n=c6 v=46
22272 On ch=1 n=c5 v=50
22280 On ch=1 n=g#6 v=52
22288 On ch=1 n=f4 v=0
22316 On ch=1 n=c7 v=57
22316 On ch=1 n=g#5 v=50
22332 On ch=1 n=c6 v=0
22348 On ch=1 n=g#6 v=0
22360 On ch=1 n=g#5 v=0
22364 On ch=1 n=c5 v=0
22448 On ch=1 n=c7 v=0
22452 On ch=1 n=f4 v=50
22488 On ch=1 n=c#6 v=43
22492 On ch=1 n=c5 v=51
22504 On ch=1 n=g#6 v=47
22508 On ch=1 n=f4 v=0
22540 On ch=1 n=g#5 v=51
22552 On ch=1 n=c#7 v=59
22556 On ch=1 n=c#6 v=0
22584 On ch=1 n=g#6 v=0
22588 On ch=1 n=c5 v=0
22596 On ch=1 n=g#5 v=0
22680 On ch=1 n=c#7 v=0
22696 On ch=1 n=f4 v=50
22720 On ch=1 n=c6 v=47
22728 On ch=1 n=c5 v=51
22748 On ch=1 n=f4 v=0
22748 On ch=1 n=g#6 v=50
22772 On ch=1 n=g#5 v=52
22792 On ch=1 n=c7 v=56
22808 On ch=1 n=c6 v=0
22828 On ch=1 n=g#6 v=0
22836 On ch=1 n=g#5 v=0
22836 On ch=1 n=c5 v=0
22908 On ch=1 n=c7 v=0
22928 On ch=1 n=c6 v=45
22932 Par ch=1 c=64 v=0
22944 On ch=1 n=e4 v=48
22960 On ch=1 n=g6 v=45
22960 Par ch=1 c=64 v=127
22976 On ch=1 n=a#4 v=51
22988 On ch=1 n=c6 v=0
22988 On ch=1 n=a#6 v=52
23004 On ch=1 n=g6 v=0
23004 On ch=1 n=e4 v=0
23012 On ch=1 n=c5 v=52
23020 On ch=1 n=a#6 v=0
23028 On ch=1 n=g5 v=52
23048 On ch=1 n=g7 v=61
23060 On ch=1 n=c5 v=0
23072 On ch=1 n=g5 v=0
23076 On ch=1 n=a#4 v=0
23084 On ch=1 n=g7 v=0
23184 On ch=1 n=e4 v=53
23204 On ch=1 n=c6 v=51
23216 On ch=1 n=a#4 v=55
23232 On ch=1 n=g6 v=57
23240 On ch=1 n=c5 v=56
23244 On ch=1 n=e4 v=0
23244 On ch=1 n=a#6 v=57
23268 On ch=1 n=g5 v=57
23288 On ch=1 n=c7 v=62
23300 On ch=1 n=a#4 v=0
23304 On ch=1 n=c5 v=0
23312 On ch=1 n=g5 v=0
23324 On ch=1 n=c6 v=0
23328 On ch=1 n=g6 v=0
23368 On ch=1 n=a#6 v=0
23416 On ch=1 n=c7 v=0
23416 On ch=1 n=e4 v=53
23452 On ch=1 n=b5 v=42
23452 On ch=1 n=a#4 v=56
23468 On ch=1 n=g6 v=57
23472 On ch=1 n=c5 v=56
23480 On ch=1 n=e4 v=0
23496 On ch=1 n=a#6 v=58
23508 On ch=1 n=g5 v=57
23524 On ch=1 n=b6 v=67
23540 On ch=1 n=a#4 v=0
23544 On ch=1 n=c5 v=0
23544 On ch=1 n=g6 v=0
23552 On ch=1 n=b5 v=0
23556 On ch=1 n=g5 v=0
23584 On ch=1 n=a#6 v=0
23644 On ch=1 n=b6 v=0
23676 On ch=1 n=e4 v=56
23684 On ch=1 n=c6 v=53
23700 On ch=1 n=a#4 v=56
23704 On ch=1 n=g6 v=56
23724 On ch=1 n=a#6 v=59
23732 On ch=1 n=c5 v=58
23740 On ch=1 n=e4 v=0
23760 On ch=1 n=g5 v=58
23764 On ch=1 n=c7 v=73
23796 On ch=1 n=a#4 v=0
23808 On ch=1 n=g5 v=0
23808 On ch=1 n=c5 v=0
23808 On ch=1 n=c6 v=0
23812 On ch=1 n=g6 v=0
23848 On ch=1 n=a#6 v=0
23888 On ch=1 n=c7 v=0
23912 On ch=1 n=e4 v=61
23940 On ch=1 n=c#6 v=47
23948 On ch=1 n=a#4 v=61
23952 On ch=1 n=g6 v=59
23960 On ch=1 n=c5 v=62
23968 On ch=1 n=a#6 v=61
23972 On ch=1 n=e4 v=0
23996 On ch=1 n=g5 v=63
24008 On ch=1 n=c#7 v=73
24012 On ch=1 n=g6 v=0
24024 On ch=1 n=c#6 v=0
24044 On ch=1 n=g5 v=0
24044 On ch=1 n=c5 v=0
24052 On ch=1 n=a#6 v=0
24056 On ch=1 n=a#4 v=0
24124 On ch=1 n=c#7 v=0
24148 On ch=1 n=e4 v=64
24164 On ch=1 n=c6 v=56
24180 On ch=1 n=a#4 v=64
24188 On ch=1 n=g6 v=59
24204 On ch=1 n=a#6 v=62
24204 On ch=1 n=c5 v=66
24216 On ch=1 n=e4 v=0
24232 On ch=1 n=g5 v=67
24260 On ch=1 n=a#4 v=0
24260 On ch=1 n=c7 v=73
24268 On ch=1 n=c5 v=0
24272 On ch=1 n=g6 v=0
24276 On ch=1 n=g5 v=0
24280 On ch=1 n=c6 v=0
24304 On ch=1 n=a#6 v=0
24328 On ch=1 n=c7 v=0
24384 On ch=1 n=c6 v=57
24412 On ch=1 n=f4 v=74
24420 On ch=1 n=g#6 v=64
24432 Par ch=1 c=64 v=0
24436 On ch=1 n=c6 v=0
24452 On ch=1 n=c5 v=75
24456 On ch=1 n=c7 v=71
24460 Par ch=1 c=64 v=127
24480 On ch=1 n=c7 v=0
24480 On ch=1 n=f4 v=0
24484 On ch=1 n=g#5 v=78
24488 On ch=1 n=g#6 v=0
24512 On ch=1 n=c5 v=0
24516 On ch=1 n=g#7 v=85
24544 On ch=1 n=g#7 v=0
24544 On ch=1 n=g#5 v=0
24644 On ch=1 n=d#6 v=68
24648 On ch=1 n=g4 v=66
24668 On ch=1 n=a#4 v=66
24676 On ch=1 n=a#6 v=72
24680 Par ch=1 c=64 v=0
24692 On ch=1 n=g4 v=0
24700 Par ch=1 c=64 v=127
24708 On ch=1 n=d#6 v=0
24708 On ch=1 n=d#5 v=66
24720 On ch=1 n=d#7 v=80
24732 On ch=1 n=a#5 v=66
24740 On ch=1 n=a#4 v=0
24748 On ch=1 n=a#6 v=0
24748 On ch=1 n=g7 v=84
24760 On ch=1 n=d#5 v=0
24792 On ch=1 n=a#5 v=0
24792 On ch=1 n=d#7 v=0
24812 On ch=1 n=g7 v=0
24892 On ch=1 n=g#4 v=69
24896 On ch=1 n=f6 v=58
24912 Par ch=1 c=64 v=0
24916 On ch=1 n=c7 v=64
24920 On ch=1 n=d#5 v=71
24928 On ch=1 n=g#4 v=0
24940 Par ch=1 c=64 v=127
24944 On ch=1 n=d#7 v=68
24960 On ch=1 n=d#5 v=0
24968 On ch=1 n=f7 v=83
24968 On ch=1 n=c6 v=74
24988 On ch=1 n=c7 v=0
24996 On ch=1 n=c6 v=0
25000 On ch=1 n=f6 v=0
25032 On ch=1 n=d#7 v=0
25060 On ch=1 n=f7 v=0
25112 On ch=1 n=g#4 v=64
25148 On ch=1 n=d#6 v=52
25168 On ch=1 n=f5 v=67
25172 On ch=1 n=b6 v=69
25180 On ch=1 n=g#4 v=0
25184 On ch=1 n=d#7 v=73
25196 On ch=1 n=b5 v=67
25208 On ch=1 n=d#6 v=0
25224 On ch=1 n=f7 v=83
25248 On ch=1 n=b6 v=0
25248 On ch=1 n=f5 v=0
25268 On ch=1 n=b5 v=0
25276 On ch=1 n=d#7 v=0
25288 On ch=1 n=f7 v=0
25368 On ch=1 n=a#4 v=67
25372 On ch=1 n=d6 v=53
25400 On ch=1 n=a#6 v=68
25408 Par ch=1 c=64 v=0
25408 On ch=1 n=f5 v=68
25432 On ch=1 n=d6 v=0
25436 On ch=1 n=a#5 v=69
25440 Par ch=1 c=64 v=127
25448 On ch=1 n=f7 v=83
25468 On ch=1 n=a#6 v=0
25472 On ch=1 n=f5 v=0
25476 On ch=1 n=a#4 v=0
25500 On ch=1 n=a#5 v=0
25504 On ch=1 n=f7 v=0
25596 On ch=1 n=d6 v=62
25612 On ch=1 n=a#4 v=66
25632 On ch=1 n=g#6 v=72
25640 On ch=1 n=d6 v=0
25656 On ch=1 n=f5 v=67
25672 On ch=1 n=g#6 v=0
25684 On ch=1 n=g7 v=83
25692 On ch=1 n=g#5 v=68
25716 On ch=1 n=g7 v=0
25716 On ch=1 n=a#4 v=0
25720 On ch=1 n=f5 v=0
25748 On ch=1 n=g#5 v=0
25856 On ch=1 n=d#6 v=64
25860 Par ch=1 c=64 v=0
25884 On ch=1 n=g6 v=77
25896 On ch=1 n=d#5 v=73
25900 Par ch=1 c=64 v=127
25920 On ch=1 n=d#7 v=90
25920 On ch=1 n=g5 v=64
25952 On ch=1 n=d#5 v=0
25964 On ch=1 n=g6 v=0
25968 On ch=1 n=d#6 v=0
25984 On ch=1 n=g5 v=0
25992 On ch=1 n=d#7 v=0
26092 Par ch=1 c=64 v=0
26096 On ch=1 n=d#4 v=51
26100 On ch=1 n=d#6 v=42
26116 Par ch=1 c=64 v=127
26124 On ch=1 n=a#4 v=51
26132 On ch=1 n=f#6 v=51
26136 On ch=1 n=d#4 v=0
26164 On ch=1 n=d#7 v=61
26164 On ch=1 n=f#5 v=59
26184 On ch=1 n=d#6 v=0
26196 On ch=1 n=f#6 v=0
26208 On ch=1 n=f#5 v=0
26208 On ch=1 n=a#4 v=0
26232 On ch=1 n=d#7 v=0
26316 On ch=1 n=d#4 v=48
26340 On ch=1 n=b5 v=46
26348 Par ch=1 c=64 v=0
26356 On ch=1 n=b4 v=50
26364 On ch=1 n=f#6 v=48
26380 On ch=1 n=b5 v=0
26384 On ch=1 n=d#4 v=0
26388 Par ch=1 c=64 v=127
26392 On ch=1 n=f#5 v=53
26408 On ch=1 n=f#5 v=0
26416 On ch=1 n=b4 v=0
26420 On ch=1 n=d#7 v=63
26424 On ch=1 n=f#6 v=0
26496 On ch=1 n=d#7 v=0
26564 On ch=1 n=e4 v=47
26572 On ch=1 n=g#5 v=46
26604 On ch=1 n=e6 v=51
26604 On ch=1 n=c#5 v=51
26608 Par ch=1 c=64 v=0
26616 On ch=1 n=g#5 v=0
26636 On ch=1 n=e5 v=52
26640 On ch=1 n=e4 v=0
26644 Par ch=1 c=64 v=127
26648 On ch=1 n=c#7 v=64
26664 On ch=1 n=c#5 v=0
26668 On ch=1 n=e6 v=0
26692 On ch=1 n=e5 v=0
26720 On ch=1 n=c#7 v=0
26824 On ch=1 n=f#4 v=52
26828 On ch=1 n=f#5 v=50
26828 Par ch=1 c=64 v=0
26848 On ch=1 n=b4 v=56
26864 On ch=1 n=d#6 v=55
26864 Par ch=1 c=64 v=127
26864 On ch=1 n=d#5 v=56
26892 On ch=1 n=f#5 v=0
26892 On ch=1 n=f#6 v=58
26896 On ch=1 n=f#4 v=0
26900 On ch=1 n=b4 v=0
26916 On ch=1 n=d#6 v=0
26944 On ch=1 n=d#5 v=0
26956 On ch=1 n=f#6 v=0
27052 On ch=1 n=f#5 v=45
27068 On ch=1 n=f#4 v=52
27076 On ch=1 n=c#6 v=47
27076 Par ch=1 c=64 v=0
27092 On ch=1 n=f#5 v=0
27100 On ch=1 n=c#5 v=56
27116 Par ch=1 c=64 v=127
27120 On ch=1 n=a#6 v=61
27124 On ch=1 n=c#6 v=0
27128 On ch=1 n=e5 v=57
27156 On ch=1 n=c#5 v=0
27156 On ch=1 n=f#4 v=0
27172 On ch=1 n=e5 v=0
27188 On ch=1 n=a#6 v=0
27284 On ch=1 n=f#5 v=43
27296 On ch=1 n=b3 v=51
27324 Par ch=1 c=64 v=0
27328 On ch=1 n=f#5 v=0
27328 On ch=1 n=d#6 v=50
27332 On ch=1 n=f#4 v=53
27336 On ch=1 n=b3 v=0
27360 Par ch=1 c=64 v=127
27372 On ch=1 n=b6 v=58
27380 On ch=1 n=d#6 v=0
27388 On ch=1 n=d#5 v=58
27412 On ch=1 n=f#4 v=0
27416 On ch=1 n=d#5 v=0
27436 On ch=1 n=b6 v=0
27540 On ch=1 n=f#5 v=41
27544 On ch=1 n=b3 v=53
27564 On ch=1 n=d#6 v=46
27576 On ch=1 n=f#4 v=53
27584 On ch=1 n=b3 v=0
27584 On ch=1 n=f#6 v=59
27628 On ch=1 n=d#5 v=55
27640 On ch=1 n=f#4 v=0
27652 On ch=1 n=d#5 v=0
27680 On ch=1 n=d#6 v=0
27688 On ch=1 n=f#6 v=0
27696 On ch=1 n=f#5 v=0
27768 On ch=1 n=b3 v=53
27776 On ch=1 n=f5 v=43
27800 On ch=1 n=d#6 v=46
27804 On ch=1 n=b3 v=0
27808 On ch=1 n=f#4 v=56
27836 On ch=1 n=f6 v=63
27852 On ch=1 n=d#5 v=57
27880 On ch=1 n=d#5 v=0
27884 On ch=1 n=f#4 v=0
27888 On ch=1 n=f5 v=0
27916 On ch=1 n=f6 v=0
27928 On ch=1 n=d#6 v=0
27992 On ch=1 n=b3 v=52
28020 On ch=1 n=f#5 v=46
28032 On ch=1 n=b3 v=0
28032 On ch=1 n=f#4 v=56
28040 On ch=1 n=d#6 v=50
28084 On ch=1 n=d#5 v=57
28088 On ch=1 n=f#6 v=62
28116 On ch=1 n=d#5 v=0
28120 On ch=1 n=f#4 v=0
28160 On ch=1 n=d#6 v=0
28172 On ch=1 n=f#6 v=0
28184 On ch=1 n=f#5 v=0
28220 On ch=1 n=a3 v=56
28256 Par ch=1 c=64 v=0
28264 On ch=1 n=f#5 v=46
28268 On ch=1 n=a3 v=0
28268 On ch=1 n=f#4 v=58
28284 Par ch=1 c=64 v=127
28304 On ch=1 n=d#6 v=51
28320 On ch=1 n=d#5 v=61
28332 On ch=1 n=g#6 v=59
28356 On ch=1 n=f#4 v=0
28360 On ch=1 n=d#5 v=0
28372 On ch=1 n=f#5 v=0
28380 On ch=1 n=d#6 v=0
28444 On ch=1 n=g#6 v=0
28480 On ch=1 n=a3 v=55
28512 On ch=1 n=f#5 v=45
28524 On ch=1 n=a3 v=0
28528 On ch=1 n=f#4 v=55
28540 On ch=1 n=c#6 v=50
28564 On ch=1 n=c#5 v=56
28576 On ch=1 n=a6 v=61
28584 On ch=1 n=f#4 v=0
28588 On ch=1 n=c#5 v=0
28612 On ch=1 n=f#5 v=0
28624 On ch=1 n=c#6 v=0
28668 On ch=1 n=a6 v=0
28724 On ch=1 n=g#3 v=56
28736 On ch=1 n=f#5 v=45
28760 Par ch=1 c=64 v=0
28764 On ch=1 n=f#4 v=56
28772 On ch=1 n=g#3 v=0
28780 On ch=1 n=c6 v=48
28792 Par ch=1 c=64 v=127
28808 On ch=1 n=c5 v=56
28824 On ch=1 n=a6 v=63
28852 On ch=1 n=c5 v=0
28852 On ch=1 n=f#4 v=0
28864 On ch=1 n=f#5 v=0
28868 On ch=1 n=c6 v=0
28888 On ch=1 n=a6 v=0
28972 On ch=1 n=g#3 v=47
28984 On ch=1 n=f#5 v=37
29008 On ch=1 n=f#4 v=50
29012 On ch=1 n=g#3 v=0
29012 On ch=1 n=c6 v=46
29040 On ch=1 n=g#6 v=61
29064 On ch=1 n=c5 v=62
29092 On ch=1 n=f#5 v=0
29100 On ch=1 n=c6 v=0
29108 On ch=1 n=f#4 v=0
29112 On ch=1 n=c5 v=0
29136 On ch=1 n=g#6 v=0
29192 On ch=1 n=f#5 v=46
29208 On ch=1 n=g#3 v=53
29224 On ch=1 n=c6 v=48
29232 On ch=1 n=f#4 v=55
29240 On ch=1 n=g#3 v=0
29256 On ch=1 n=g6 v=59
29272 On ch=1 n=c5 v=62
29316 On ch=1 n=c5 v=0
29316 On ch=1 n=c6 v=0
29316 On ch=1 n=f#5 v=0
29320 On ch=1 n=f#4 v=0
29332 On ch=1 n=g6 v=0
29428 On ch=1 n=g#3 v=53
29432 On ch=1 n=f#5 v=50
29448 On ch=1 n=f#4 v=55
29456 On ch=1 n=g#3 v=0
29468 On ch=1 n=c6 v=55
29484 On ch=1 n=c5 v=64
29504 On ch=1 n=g#6 v=59
29512 On ch=1 n=f#4 v=0
29520 On ch=1 n=c5 v=0
29540 On ch=1 n=c6 v=0
29544 On ch=1 n=f#5 v=0
29580 On ch=1 n=g#6 v=0
29660 On ch=1 n=g#5 v=56
29660 On ch=1 n=c4 v=56
29672 Par ch=1 c=64 v=0
29692 On ch=1 n=g#4 v=56
29700 On ch=1 n=c4 v=0
29704 On ch=1 n=f#6 v=61
29712 Par ch=1 c=64 v=127
29720 On ch=1 n=g#5 v=0
29744 On ch=1 n=f#5 v=65
29752 On ch=1 n=f#6 v=0
29756 On ch=1 n=c#7 v=71
29776 On ch=1 n=f#5 v=0
29788 On ch=1 n=c#7 v=0
29788 On ch=1 n=g#4 v=0
29896 On ch=1 n=c4 v=59
29916 On ch=1 n=g#5 v=59
29924 On ch=1 n=g#4 v=61
29928 On ch=1 n=c4 v=0
29944 On ch=1 n=f#6 v=64
29952 On ch=1 n=g#5 v=0
29976 On ch=1 n=f#6 v=0
29988 On ch=1 n=f#5 v=64
30004 On ch=1 n=d#7 v=73
30020 On ch=1 n=f#5 v=0
30028 On ch=1 n=d#7 v=0
30032 On ch=1 n=g#4 v=0
30144 Par ch=1 c=64 v=0
30152 On ch=1 n=g#5 v=61
30156 On ch=1 n=c#4 v=57
30176 On ch=1 n=g#4 v=59
30184 Par ch=1 c=64 v=127
30192 On ch=1 n=c#4 v=0
30196 On ch=1 n=g#5 v=0
30204 On ch=1 n=e6 v=64
30216 On ch=1 n=e6 v=0
30220 On ch=1 n=e5 v=64
30240 On ch=1 n=e7 v=74
30252 On ch=1 n=g#4 v=0
30264 On ch=1 n=e7 v=0
30264 On ch=1 n=e5 v=0
30392 On ch=1 n=c#4 v=50
30420 On ch=1 n=g#5 v=42
30436 On ch=1 n=g#4 v=52
30448 On ch=1 n=c#4 v=0
30456 On ch=1 n=e6 v=51
30476 On ch=1 n=e5 v=58
30488 On ch=1 n=g#6 v=62
30528 On ch=1 n=e5 v=0
30528 On ch=1 n=g#4 v=0
30540 On ch=1 n=g#5 v=0
30548 On ch=1 n=e6 v=0
30564 On ch=1 n=g#6 v=0
30628 On ch=1 n=c#4 v=51
30640 On ch=1 n=g5 v=45
30668 On ch=1 n=g#4 v=53
30684 On ch=1 n=c#4 v=0
30684 On ch=1 n=e6 v=50
30712 On ch=1 n=e5 v=57
30728 On ch=1 n=g6 v=62
30744 On ch=1 n=g#4 v=0
30748 On ch=1 n=g5 v=0
30760 On ch=1 n=e5 v=0
30764 On ch=1 n=e6 v=0
30788 On ch=1 n=g6 v=0
30868 On ch=1 n=c#4 v=56
30896 On ch=1 n=g#5 v=42
30912 On ch=1 n=g#4 v=57
30920 On ch=1 n=e6 v=50
30928 On ch=1 n=c#4 v=0
30952 On ch=1 n=e5 v=57
30972 On ch=1 n=g#6 v=59
30976 On ch=1 n=g#4 v=0
30988 On ch=1 n=e5 v=0
31004 On ch=1 n=g#5 v=0
31012 On ch=1 n=e6 v=0
31040 On ch=1 n=g#6 v=0
31108 On ch=1 n=b3 v=52
31116 On ch=1 n=g#5 v=45
31124 Par ch=1 c=64 v=0
31152 On ch=1 n=b3 v=0
31152 Par ch=1 c=64 v=127
31156 On ch=1 n=g#4 v=53
31168 On ch=1 n=e6 v=51
31200 On ch=1 n=e5 v=54
31204 On ch=1 n=a#6 v=59
31236 On ch=1 n=e6 v=0
31236 On ch=1 n=g#4 v=0
31240 On ch=1 n=g#5 v=0
31244 On ch=1 n=e5 v=0
31284 On ch=1 n=a#6 v=0
31348 On ch=1 n=b3 v=48
31360 On ch=1 n=g#5 v=47
31396 On ch=1 n=g#4 v=50
31400 On ch=1 n=b3 v=0
31400 On ch=1 n=d#6 v=51
31440 On ch=1 n=b6 v=61
31440 On ch=1 n=d#5 v=58
31464 On ch=1 n=g#4 v=0
31468 On ch=1 n=d#6 v=0
31468 On ch=1 n=g#5 v=0
31472 On ch=1 n=d#5 v=0
31516 On ch=1 n=b6 v=0
31584 On ch=1 n=a#3 v=53
31596 On ch=1 n=g#5 v=45
31624 Par ch=1 c=64 v=0
31636 On ch=1 n=a#3 v=0
31636 On ch=1 n=g#4 v=55
31644 On ch=1 n=d6 v=51
31660 Par ch=1 c=64 v=127
31676 On ch=1 n=d5 v=59
31680 On ch=1 n=b6 v=61
31708 On ch=1 n=g#4 v=0
31712 On ch=1 n=g#5 v=0
31724 On ch=1 n=d5 v=0
31724 On ch=1 n=d6 v=0
31768 On ch=1 n=b6 v=0
31824 On ch=1 n=a#3 v=55
31868 On ch=1 n=g#5 v=51
31872 On ch=1 n=a#3 v=0
31872 On ch=1 n=g#4 v=56
31900 On ch=1 n=d6 v=56
31912 On ch=1 n=d5 v=51
31936 On ch=1 n=a#6 v=63
31948 On ch=1 n=g#4 v=0
31956 On ch=1 n=d5 v=0
31980 On ch=1 n=d6 v=0
31996 On ch=1 n=g#5 v=0
32028 On ch=1 n=a#6 v=0
32060 On ch=1 n=a#3 v=47
32100 On ch=1 n=g#5 v=48
32112 On ch=1 n=g#4 v=50
32116 On ch=1 n=a#3 v=0
32132 On ch=1 n=d6 v=53
32152 On ch=1 n=d5 v=54
32164 On ch=1 n=a6 v=62
32192 On ch=1 n=g#4 v=0
32204 On ch=1 n=d5 v=0
32212 On ch=1 n=g#5 v=0
32224 On ch=1 n=d6 v=0
32256 On ch=1 n=a6 v=0
32304 On ch=1 n=a#3 v=53
32340 On ch=1 n=g#5 v=52
32348 On ch=1 n=g#4 v=55
32356 On ch=1 n=a#3 v=0
32376 On ch=1 n=d6 v=59
32392 On ch=1 n=d5 v=57
32412 On ch=1 n=a#6 v=64
32416 On ch=1 n=g#4 v=0
32428 On ch=1 n=d5 v=0
32444 On ch=1 n=d6 v=0
32448 On ch=1 n=g#5 v=0
32500 On ch=1 n=a#6 v=0
32540 On ch=1 n=d4 v=52
32564 On ch=1 n=a#5 v=52
32572 On ch=1 n=a#4 v=53
32576 Par ch=1 c=64 v=0
32580 On ch=1 n=d4 v=0
32616 On ch=1 n=a#5 v=0
32616 On ch=1 n=g#6 v=57
32616 Par ch=1 c=64 v=127
32628 On ch=1 n=g#5 v=64
32648 On ch=1 n=g#6 v=0
32652 On ch=1 n=a#4 v=0
32652 On ch=1 n=d#7 v=63
32656 On ch=1 n=g#5 v=0
32680 On ch=1 n=d#7 v=0
32780 On ch=1 n=d4 v=50
32808 On ch=1 n=a#4 v=51
32812 On ch=1 n=d4 v=0
32828 On ch=1 n=a#5 v=50
32844 On ch=1 n=g#6 v=52
32852 On ch=1 n=a#5 v=0
32856 On ch=1 n=g#5 v=67
32880 On ch=1 n=g#6 v=0
32896 On ch=1 n=g#5 v=0
32908 On ch=1 n=a#4 v=0
32908 On ch=1 n=f7 v=67
32948 On ch=1 n=f7 v=0
33048 On ch=1 n=d#4 v=52
33052 Par ch=1 c=64 v=0
33068 On ch=1 n=a#5 v=59
33092 Par ch=1 c=64 v=127
33092 On ch=1 n=a#4 v=55
33096 On ch=1 n=d#4 v=0
33100 On ch=1 n=f#6 v=61
33104 On ch=1 n=a#5 v=0
33120 On ch=1 n=f#6 v=0
33128 On ch=1 n=f#5 v=59
33152 On ch=1 n=f#7 v=74
33160 On ch=1 n=a#4 v=0
33164 On ch=1 n=f#5 v=0
33172 On ch=1 n=f#7 v=0
33296 On ch=1 n=d#4 v=55
33316 On ch=1 n=a#5 v=39
33340 On ch=1 n=a#4 v=56
33344 On ch=1 n=f#6 v=48
33348 On ch=1 n=d#4 v=0
33368 On ch=1 n=f#5 v=57
33372 On ch=1 n=a#6 v=53
33404 On ch=1 n=a#4 v=0
33416 On ch=1 n=f#5 v=0
33428 On ch=1 n=a#5 v=0
33444 On ch=1 n=a#6 v=0
33444 On ch=1 n=f#6 v=0
33524 On ch=1 n=d#4 v=53
33556 On ch=1 n=a5 v=41
33556 On ch=1 n=a#4 v=55
33576 On ch=1 n=d#4 v=0
33580 On ch=1 n=f#6 v=50
33600 On ch=1 n=f#5 v=53
33608 On ch=1 n=a6 v=57
33640 On ch=1 n=f#5 v=0
33640 On ch=1 n=a#4 v=0
33640 On ch=1 n=a5 v=0
33672 On ch=1 n=f#6 v=0
33680 On ch=1 n=a6 v=0
33752 On ch=1 n=d#4 v=55
33792 On ch=1 n=a#4 v=55
33804 On ch=1 n=a#5 v=42
33808 On ch=1 n=d#4 v=0
33820 On ch=1 n=f#6 v=45
33828 On ch=1 n=f#5 v=64
33848 On ch=1 n=a#4 v=0
33856 On ch=1 n=a#6 v=56
33864 On ch=1 n=f#5 v=0
33896 On ch=1 n=a#5 v=0
33916 On ch=1 n=f#6 v=0
33924 On ch=1 n=a#6 v=0
33996 On ch=1 n=c#4 v=53
34004 Par ch=1 c=64 v=0
34032 On ch=1 n=a#4 v=55
34036 On ch=1 n=c#4 v=0
34040 On ch=1 n=b5 v=41
34040 Par ch=1 c=64 v=127
34068 On ch=1 n=f6 v=47
34076 On ch=1 n=f5 v=59
34100 On ch=1 n=b6 v=62
34124 On ch=1 n=f5 v=0
34128 On ch=1 n=a#4 v=0
34132 On ch=1 n=b5 v=0
34148 On ch=1 n=f6 v=0
34168 On ch=1 n=b6 v=0
34228 On ch=1 n=c#4 v=57
34268 On ch=1 n=a#5 v=41
34272 On ch=1 n=c#4 v=0
34276 On ch=1 n=a#4 v=59
34300 On ch=1 n=f6 v=41
34312 On ch=1 n=f5 v=56
34320 On ch=1 n=a#5 v=0
34340 On ch=1 n=c#7 v=57
34348 On ch=1 n=f6 v=0
34352 On ch=1 n=f5 v=0
34376 On ch=1 n=a#4 v=0
34396 On ch=1 n=c#7 v=0
34480 Par ch=1 c=64 v=0
34496 On ch=1 n=f#5 v=45
34500 On ch=1 n=b3 v=57
34520 On ch=1 n=d#6 v=50
34524 On ch=1 n=f#5 v=0
34528 Par ch=1 c=64 v=127
34536 On ch=1 n=f#4 v=61
34540 On ch=1 n=b3 v=0
34552 On ch=1 n=d#6 v=0
34584 On ch=1 n=d#7 v=58
34588 On ch=1 n=d#5 v=58
34608 On ch=1 n=d#7 v=0
34612 On ch=1 n=f#4 v=0
34620 On ch=1 n=d#5 v=0
34744 On ch=1 n=b3 v=63
34756 On ch=1 n=f#5 v=50
34776 On ch=1 n=b3 v=0
34776 On ch=1 n=f#4 v=66
34788 On ch=1 n=d#6 v=52
34816 On ch=1 n=f#6 v=59
34824 On ch=1 n=d#5 v=59
34852 On ch=1 n=f#4 v=0
34856 On ch=1 n=f#5 v=0
34860 On ch=1 n=d#6 v=0
34864 On ch=1 n=d#5 v=0
34892 On ch=1 n=f#6 v=0
34968 On ch=1 n=b3 v=63
34988 On ch=1 n=f5 v=48
35004 On ch=1 n=f#4 v=66
35008 On ch=1 n=b3 v=0
35028 On ch=1 n=d#6 v=53
35056 On ch=1 n=f6 v=64
35056 On ch=1 n=d#5 v=61
35088 On ch=1 n=f#4 v=0
35092 On ch=1 n=d#5 v=0
35096 On ch=1 n=f5 v=0
35116 On ch=1 n=f6 v=0
35120 On ch=1 n=d#6 v=0
35208 On ch=1 n=b3 v=62
35232 On ch=1 n=f#5 v=55
35244 On ch=1 n=b3 v=0
35244 On ch=1 n=f#4 v=63
35256 On ch=1 n=d#6 v=59
35292 On ch=1 n=d#5 v=59
35300 On ch=1 n=f#6 v=69
35320 On ch=1 n=f#4 v=0
35324 On ch=1 n=d#5 v=0
35340 On ch=1 n=f#5 v=0
35348 On ch=1 n=d#6 v=0
35372 On ch=1 n=f#6 v=0
35452 On ch=1 n=a#3 v=64
35460 On ch=1 n=f#5 v=55
35464 Par ch=1 c=64 v=0
35488 On ch=1 n=d#6 v=59
35488 On ch=1 n=f#4 v=61
35492 On ch=1 n=a#3 v=0
35500 Par ch=1 c=64 v=127
35528 On ch=1 n=g#6 v=68
35528 On ch=1 n=d#5 v=72
35568 On ch=1 n=d#5 v=0
35568 On ch=1 n=f#5 v=0
35572 On ch=1 n=d#6 v=0
35584 On ch=1 n=f#4 v=0
35596 On ch=1 n=g#6 v=0
35680 On ch=1 n=f#5 v=55
35692 On ch=1 n=a#3 v=68
35716 On ch=1 n=c#6 v=58
35720 On ch=1 n=a#3 v=0
35732 On ch=1 n=f#4 v=67
35736 On ch=1 n=f#5 v=0
35756 On ch=1 n=c#5 v=67
35764 On ch=1 n=a#6 v=71
35784 On ch=1 n=c#6 v=0
35788 On ch=1 n=f#4 v=0
35796 On ch=1 n=c#5 v=0
35816 On ch=1 n=a#6 v=0
35916 On ch=1 n=d#5 v=61
35940 On ch=1 n=b5 v=63
35944 On ch=1 n=d#5 v=0
35944 On ch=1 n=g#3 v=77
35956 Par ch=1 c=64 v=0
35968 On ch=1 n=b5 v=0
35976 On ch=1 n=d#4 v=79
35992 On ch=1 n=g#3 v=0
35992 Par ch=1 c=64 v=127
36000 On ch=1 n=b6 v=74
36012 On ch=1 n=b4 v=70
36036 On ch=1 n=b6 v=0
36060 On ch=1 n=d#4 v=0
36068 On ch=1 n=b4 v=0
36156 On ch=1 n=d#5 v=50
36164 On ch=1 n=g#3 v=62
36196 On ch=1 n=b5 v=58
36216 On ch=1 n=d#4 v=72
36228 On ch=1 n=d#6 v=74
36236 On ch=1 n=g#3 v=0
36248 On ch=1 n=b4 v=61
36272 On ch=1 n=d#5 v=0
36276 On ch=1 n=b5 v=0
36292 On ch=1 n=d#4 v=0
36300 On ch=1 n=b4 v=0
36312 On ch=1 n=d#6 v=0
36388 Par ch=1 c=64 v=0
36404 On ch=1 n=d5 v=51
36412 On ch=1 n=g#3 v=63
36432 Par ch=1 c=64 v=127
36436 On ch=1 n=b5 v=59
36452 On ch=1 n=d4 v=77
36472 On ch=1 n=d6 v=71
36476 On ch=1 n=g#3 v=0
36484 On ch=1 n=b4 v=64
36504 On ch=1 n=d5 v=0
36520 On ch=1 n=d4 v=0
36528 On ch=1 n=b5 v=0
36536 On ch=1 n=d6 v=0
36548 On ch=1 n=b4 v=0
36640 On ch=1 n=d#5 v=53
36648 On ch=1 n=g#3 v=63
36676 On ch=1 n=b5 v=59
36688 On ch=1 n=d#4 v=77
36708 On ch=1 n=g#3 v=0
36720 On ch=1 n=d#6 v=75
36720 On ch=1 n=b4 v=67
36764 On ch=1 n=d#4 v=0
36768 On ch=1 n=b4 v=0
36768 On ch=1 n=d#5 v=0
36772 On ch=1 n=b5 v=0
36804 On ch=1 n=d#6 v=0
36848 On ch=1 n=g#3 v=62
36876 Par ch=1 c=64 v=0
36880 On ch=1 n=e5 v=55
36908 On ch=1 n=e4 v=78
36912 Par ch=1 c=64 v=127
36924 On ch=1 n=g#3 v=0
36928 On ch=1 n=b5 v=61
36948 On ch=1 n=b4 v=64
36968 On ch=1 n=e6 v=72
36976 On ch=1 n=e4 v=0
36996 On ch=1 n=e5 v=0
37004 On ch=1 n=b4 v=0
37012 On ch=1 n=b5 v=0
37028 On ch=1 n=e6 v=0
37108 On ch=1 n=g#3 v=61
37140 On ch=1 n=d#5 v=55
37156 On ch=1 n=d#4 v=78
37172 On ch=1 n=g#3 v=0
37176 On ch=1 n=b5 v=61
37192 On ch=1 n=b4 v=62
37200 On ch=1 n=d#6 v=73
37240 On ch=1 n=b5 v=0
37240 On ch=1 n=d#5 v=0
37244 On ch=1 n=d#4 v=0
37252 On ch=1 n=b4 v=0
37276 On ch=1 n=d#6 v=0
37352 On ch=1 n=e5 v=55
37352 Par ch=1 c=64 v=0
37364 On ch=1 n=g#3 v=67
37388 Par ch=1 c=64 v=127
37400 On ch=1 n=b5 v=59
37412 On ch=1 n=e4 v=78
37436 On ch=1 n=g#3 v=0
37444 On ch=1 n=b4 v=69
37452 On ch=1 n=e6 v=73
37472 On ch=1 n=e4 v=0
37480 On ch=1 n=e5 v=0
37488 On ch=1 n=b5 v=0
37504 On ch=1 n=b4 v=0
37516 On ch=1 n=e6 v=0
37584 On ch=1 n=g#3 v=73
37624 On ch=1 n=f5 v=62
37632 On ch=1 n=f4 v=82
37644 On ch=1 n=b5 v=64
37648 On ch=1 n=g#3 v=0
37660 On ch=1 n=b4 v=74
37688 On ch=1 n=f6 v=75
37704 On ch=1 n=f4 v=0
37720 On ch=1 n=b4 v=0
37720 On ch=1 n=f5 v=0
37732 On ch=1 n=b5 v=0
37756 On ch=1 n=f6 v=0
37820 On ch=1 n=g#3 v=72
37840 Par ch=1 c=64 v=0
37844 On ch=1 n=e5 v=58
37868 On ch=1 n=b5 v=62
37880 Par ch=1 c=64 v=127
37880 On ch=1 n=e4 v=89
37896 On ch=1 n=g#3 v=0
37904 On ch=1 n=b4 v=69
37912 On ch=1 n=e6 v=77
37948 On ch=1 n=e4 v=0
37960 On ch=1 n=b5 v=0
37960 On ch=1 n=e5 v=0
37964 On ch=1 n=b4 v=0
37980 On ch=1 n=e6 v=0
38068 On ch=1 n=g#3 v=78
38088 On ch=1 n=f5 v=64
38112 On ch=1 n=f4 v=89
38116 On ch=1 n=b5 v=67
38128 On ch=1 n=g#3 v=0
38140 On ch=1 n=b4 v=71
38164 On ch=1 n=f6 v=80
38172 On ch=1 n=f4 v=0
38204 On ch=1 n=b4 v=0
38204 On ch=1 n=f5 v=0
38208 On ch=1 n=b5 v=0
38228 On ch=1 n=f6 v=0
38300 Par ch=1 c=64 v=0
38316 On ch=1 n=g#3 v=74
38336 On ch=1 n=f#5 v=75
38340 Par ch=1 c=64 v=127
38360 On ch=1 n=f#4 v=88
38364 On ch=1 n=b5 v=79
38372 On ch=1 n=g#3 v=0
38380 On ch=1 n=b4 v=75
38400 On ch=1 n=f#6 v=89
38428 On ch=1 n=f#4 v=0
38436 On ch=1 n=b5 v=0
38448 On ch=1 n=f#5 v=0
38452 On ch=1 n=b4 v=0
38468 On ch=1 n=f#6 v=0
38560 On ch=1 n=g#3 v=68
38572 On ch=1 n=d#5 v=72
38588 On ch=1 n=d#4 v=85
38604 On ch=1 n=g#3 v=0
38604 On ch=1 n=b5 v=74
38620 On ch=1 n=b4 v=69
38636 On ch=1 n=d#6 v=84
38652 On ch=1 n=d#4 v=0
38668 On ch=1 n=b5 v=0
38676 On ch=1 n=b4 v=0
38680 On ch=1 n=d#5 v=0
38704 On ch=1 n=d#6 v=0
38776 Par ch=1 c=64 v=0
38816 On ch=1 n=d5 v=53
38820 Par ch=1 c=64 v=127
38848 On ch=1 n=a#5 v=58
38864 On ch=1 n=a#3 v=85
38868 On ch=1 n=a#2 v=89
38880 On ch=1 n=d6 v=71
38904 On ch=1 n=d5 v=0
38920 On ch=1 n=a#5 v=0
38940 On ch=1 n=d6 v=0
38964 On ch=1 n=a#2 v=0
38972 On ch=1 n=a#3 v=0
39052 On ch=1 n=a#3 v=51
39068 On ch=1 n=g#5 v=47
39092 On ch=1 n=f6 v=59
39092 On ch=1 n=f4 v=51
39116 On ch=1 n=a#3 v=0
39132 On ch=1 n=a#6 v=51
39140 On ch=1 n=d5 v=52
39192 On ch=1 n=d5 v=0
39196 On ch=1 n=f4 v=0
39196 On ch=1 n=f6 v=0
39196 On ch=1 n=g#5 v=0
39264 On ch=1 n=a#6 v=0
39280 On ch=1 n=a#3 v=51
39292 On ch=1 n=g#5 v=46
39320 On ch=1 n=f4 v=51
39324 On ch=1 n=a#3 v=0
39324 On ch=1 n=e6 v=57
39352 On ch=1 n=a#6 v=48
39364 On ch=1 n=d5 v=51
39380 On ch=1 n=g#5 v=0
39384 On ch=1 n=e6 v=0
39392 On ch=1 n=f4 v=0
39408 On ch=1 n=d5 v=0
39484 On ch=1 n=a#6 v=0
39516 On ch=1 n=a#3 v=48
39520 On ch=1 n=g#5 v=45
39552 On ch=1 n=f4 v=50
39556 On ch=1 n=a#3 v=0
39568 On ch=1 n=f6 v=57
39592 On ch=1 n=d5 v=51
39600 On ch=1 n=a#6 v=51
39636 On ch=1 n=d5 v=0
39636 On ch=1 n=g#5 v=0
39652 On ch=1 n=f6 v=0
39652 On ch=1 n=f4 v=0
39724 On ch=1 n=a#6 v=0
39724 Par ch=1 c=64 v=0
39740 On ch=1 n=a#3 v=45
39756 Par ch=1 c=64 v=127
39760 On ch=1 n=g#5 v=39
39784 On ch=1 n=f4 v=46
39792 On ch=1 n=a#3 v=0
39804 On ch=1 n=g6 v=56
39828 On ch=1 n=d#5 v=47
39848 On ch=1 n=a#6 v=50
39868 On ch=1 n=d#5 v=0
39872 On ch=1 n=f4 v=0
39880 On ch=1 n=g6 v=0
39880 On ch=1 n=g#5 v=0
39936 On ch=1 n=a#6 v=0
39988 Par ch=1 c=64 v=0
39992 On ch=1 n=a#3 v=46
40012 On ch=1 n=g#5 v=45
40012 Par ch=1 c=64 v=127
40020 On ch=1 n=f4 v=47
40036 On ch=1 n=a#3 v=0
40044 On ch=1 n=d6 v=58
40056 On ch=1 n=f4 v=0
40080 On ch=1 n=a#6 v=50
40084 On ch=1 n=f5 v=48
40104 On ch=1 n=f5 v=0
40128 On ch=1 n=d6 v=0
40128 On ch=1 n=g#5 v=0
40180 On ch=1 n=a#6 v=0
40220 Par ch=1 c=64 v=0
40232 On ch=1 n=a#3 v=48
40244 On ch=1 n=g5 v=46
40256 Par ch=1 c=64 v=127
40276 On ch=1 n=d#6 v=58
40288 On ch=1 n=a#3 v=0
40288 On ch=1 n=g4 v=50
40292 On ch=1 n=g5 v=0
40316 On ch=1 n=a#6 v=48
40336 On ch=1 n=d#5 v=52
40344 On ch=1 n=d#6 v=0
40356 On ch=1 n=a#6 v=0
40360 On ch=1 n=g4 v=0
40376 On ch=1 n=d#5 v=0
40448 Par ch=1 c=64 v=0
40460 Par ch=1 c=67 v=127
40488 Par ch=1 c=64 v=127
40488 On ch=1 n=a#3 v=43
40496 On ch=1 n=a5 v=35
40524 On ch=1 n=d#6 v=40
40528 On ch=1 n=a#3 v=0
40528 On ch=1 n=f#4 v=43
40560 On ch=1 n=a5 v=0
40580 On ch=1 n=c7 v=53
40580 On ch=1 n=d#5 v=45
40596 On ch=1 n=d#6 v=0
40612 On ch=1 n=f#4 v=0
40620 On ch=1 n=d#5 v=0
40636 On ch=1 n=c7 v=0
40712 On ch=1 n=a#3 v=39
40728 On ch=1 n=a5 v=40
40748 On ch=1 n=a#3 v=0
40748 On ch=1 n=d#6 v=41
40764 On ch=1 n=f#4 v=39
40796 On ch=1 n=b6 v=52
40812 On ch=1 n=d#5 v=40
40840 On ch=1 n=d#6 v=0
40852 On ch=1 n=a5 v=0
40856 On ch=1 n=f#4 v=0
40860 On ch=1 n=d#5 v=0
40868 On ch=1 n=b6 v=0
40956 On ch=1 n=a#3 v=39
40968 On ch=1 n=a5 v=35
40996 On ch=1 n=d#6 v=37
41000 On ch=1 n=a#3 v=0
41000 On ch=1 n=f#4 v=40
41016 On ch=1 n=a5 v=0
41048 On ch=1 n=d#5 v=42
41052 On ch=1 n=c7 v=53
41076 On ch=1 n=f#4 v=0
41076 On ch=1 n=d#6 v=0
41088 On ch=1 n=d#5 v=0
41120 On ch=1 n=c7 v=0
41204 On ch=1 n=a#3 v=40
41212 On ch=1 n=a5 v=36
41220 Par ch=1 c=64 v=0
41232 On ch=1 n=d#6 v=37
41236 On ch=1 n=f4 v=42
41240 On ch=1 n=a#3 v=0
41248 Par ch=1 c=64 v=127
41252 On ch=1 n=a5 v=0
41276 On ch=1 n=d#5 v=43
41296 On ch=1 n=d7 v=52
41300 On ch=1 n=f4 v=0
41300 On ch=1 n=d#6 v=0
41312 On ch=1 n=d#5 v=0
41344 On ch=1 n=d7 v=0
41436 On ch=1 n=a#3 v=39
41456 On ch=1 n=a5 v=39
41472 On ch=1 n=f4 v=40
41480 On ch=1 n=d#6 v=40
41484 On ch=1 n=a#3 v=0
41508 On ch=1 n=a5 v=0
41520 On ch=1 n=d#5 v=41
41528 On ch=1 n=c7 v=52
41540 On ch=1 n=f4 v=0
41548 On ch=1 n=d#5 v=0
41548 On ch=1 n=d#6 v=0
41592 On ch=1 n=c7 v=0
41668 On ch=1 n=d6 v=41
41672 Par ch=1 c=64 v=0
41716 On ch=1 n=a6 v=46
41716 Par ch=1 c=64 v=127
41724 On ch=1 n=d6 v=0
41748 On ch=1 n=a#2 v=51
41752 On ch=1 n=a6 v=0
41768 On ch=1 n=f7 v=53
41800 On ch=1 n=f7 v=0
41832 On ch=1 n=a#2 v=0
41868 Par ch=1 c=67 v=0
41936 On ch=1 n=g#5 v=46
41944 On ch=1 n=a#3 v=46
41976 On ch=1 n=f6 v=63
41984 On ch=1 n=f4 v=48
42000 On ch=1 n=a#6 v=48
42004 On ch=1 n=a#3 v=0
42028 On ch=1 n=f6 v=0
42028 On ch=1 n=d5 v=50
42044 On ch=1 n=g#5 v=0
42068 On ch=1 n=a#6 v=0
42084 On ch=1 n=d5 v=0
42096 On ch=1 n=f4 v=0
42160 On ch=1 n=g#5 v=42
42176 On ch=1 n=a#3 v=47
42192 On ch=1 n=e6 v=63
42220 On ch=1 n=f4 v=48
42224 On ch=1 n=a#3 v=0
42240 On ch=1 n=a#6 v=47
42256 On ch=1 n=c#5 v=50
42272 On ch=1 n=e6 v=0
42272 On ch=1 n=g#5 v=0
42300 On ch=1 n=c#5 v=0
42316 On ch=1 n=a#6 v=0
42316 On ch=1 n=f4 v=0
42388 On ch=1 n=a#3 v=46
42400 On ch=1 n=g#5 v=43
42432 On ch=1 n=f6 v=61
42436 On ch=1 n=f4 v=47
42440 On ch=1 n=a#3 v=0
42480 On ch=1 n=a#6 v=45
42480 On ch=1 n=d5 v=47
42520 On ch=1 n=g#5 v=0
42524 On ch=1 n=d5 v=0
42524 On ch=1 n=f6 v=0
42544 On ch=1 n=f4 v=0
42572 On ch=1 n=a#6 v=0
42616 On ch=1 n=a#3 v=46
42656 Par ch=1 c=64 v=0
42660 On ch=1 n=a#3 v=0
42660 On ch=1 n=f4 v=46
42664 On ch=1 n=g#5 v=48
42696 Par ch=1 c=64 v=127
42700 On ch=1 n=g6 v=64
42712 On ch=1 n=d#5 v=46
42728 On ch=1 n=a#6 v=46
42760 On ch=1 n=d#5 v=0
42760 On ch=1 n=g#5 v=0
42764 On ch=1 n=g6 v=0
42776 On ch=1 n=f4 v=0
42800 On ch=1 n=a#6 v=0
42832 On ch=1 n=g#5 v=40
42860 On ch=1 n=a#3 v=39
42868 On ch=1 n=g#6 v=69
42896 On ch=1 n=a#6 v=45
42896 On ch=1 n=f4 v=40
42904 On ch=1 n=a#3 v=0
42924 On ch=1 n=g#6 v=0
42932 On ch=1 n=f4 v=0
42948 On ch=1 n=g#5 v=0
42960 On ch=1 n=f5 v=40
42980 On ch=1 n=a#6 v=0
42996 On ch=1 n=g#5 v=47
43008 On ch=1 n=f5 v=0
43028 On ch=1 n=d6 v=66
43056 On ch=1 n=a#6 v=45
43092 On ch=1 n=g#5 v=0
43104 On ch=1 n=d6 v=0
43112 On ch=1 n=a#6 v=0
43112 On ch=1 n=a#3 v=46
43116 Par ch=1 c=64 v=0
43152 On ch=1 n=g5 v=41
43156 Par ch=1 c=64 v=127
43168 On ch=1 n=a#3 v=0
43168 On ch=1 n=g4 v=48
43176 On ch=1 n=d#6 v=68
43204 On ch=1 n=g5 v=0
43212 On ch=1 n=a#6 v=43
43212 On ch=1 n=d#5 v=48
43236 On ch=1 n=d#6 v=0
43244 On ch=1 n=a#6 v=0
43252 On ch=1 n=g4 v=0
43264 On ch=1 n=d#5 v=0
43300 Par ch=1 c=67 v=127
43364 On ch=1 n=a#3 v=43
43368 On ch=1 n=a5 v=34
43400 On ch=1 n=d#6 v=41
43400 Par ch=1 c=64 v=0
43404 On ch=1 n=a#3 v=0
43404 On ch=1 n=f#4 v=39
43424 Par ch=1 c=64 v=127
43436 On ch=1 n=a5 v=0
43440 On ch=1 n=d#5 v=40
43456 On ch=1 n=c7 v=55
43480 On ch=1 n=d#5 v=0
43488 On ch=1 n=f#4 v=0
43488 On ch=1 n=d#6 v=0
43516 On ch=1 n=c7 v=0
43584 On ch=1 n=a#3 v=41
43620 On ch=1 n=a5 v=42
43624 On ch=1 n=a#3 v=0
43636 On ch=1 n=d#6 v=45
43644 On ch=1 n=f#4 v=41
43668 On ch=1 n=d#5 v=41
43684 On ch=1 n=b6 v=52
43700 On ch=1 n=f#4 v=0
43708 On ch=1 n=d#5 v=0
43724 On ch=1 n=a5 v=0
43736 On ch=1 n=d#6 v=0
43764 On ch=1 n=b6 v=0
43820 On ch=1 n=a#3 v=42
43844 On ch=1 n=a5 v=36
43856 On ch=1 n=a#3 v=0
43856 On ch=1 n=f#4 v=41
43868 On ch=1 n=d#6 v=41
43904 On ch=1 n=d#5 v=43
43916 On ch=1 n=a5 v=0
43932 On ch=1 n=c7 v=52
43940 On ch=1 n=f#4 v=0
43948 On ch=1 n=d#5 v=0
43956 On ch=1 n=d#6 v=0
43988 On ch=1 n=c7 v=0
44060 On ch=1 n=a#3 v=43
44068 On ch=1 n=a5 v=37
44088 On ch=1 n=d#6 v=40
44100 On ch=1 n=f4 v=45
44108 On ch=1 n=a#3 v=0
44108 Par ch=1 c=64 v=0
44116 On ch=1 n=a5 v=0
44140 Par ch=1 c=64 v=127
44144 On ch=1 n=d#5 v=41
44168 On ch=1 n=d#6 v=0
44168 On ch=1 n=d7 v=52
44192 On ch=1 n=d#5 v=0
44204 On ch=1 n=d7 v=0
44204 On ch=1 n=f4 v=0
44300 On ch=1 n=a#3 v=43
44316 On ch=1 n=a5 v=42
44340 On ch=1 n=d#6 v=45
44348 On ch=1 n=f4 v=46
44352 On ch=1 n=a#3 v=0
44368 On ch=1 n=a5 v=0
44396 On ch=1 n=c7 v=53
44396 On ch=1 n=d#5 v=48
44424 On ch=1 n=d#6 v=0
44432 On ch=1 n=d#5 v=0
44432 On ch=1 n=f4 v=0
44472 On ch=1 n=c7 v=0
44548 On ch=1 n=d6 v=39
44548 Par ch=1 c=64 v=0
44580 Par ch=1 c=64 v=127
44604 On ch=1 n=g#6 v=47
44632 On ch=1 n=d6 v=0
44640 On ch=1 n=a#2 v=55
44644 On ch=1 n=f7 v=53
44656 On ch=1 n=g#6 v=0
44688 On ch=1 n=f7 v=0
44720 On ch=1 n=a#2 v=0
44720 Par ch=1 c=67 v=0
44804 On ch=1 n=a#3 v=48
44824 On ch=1 n=g#5 v=42
44848 On ch=1 n=f6 v=55
44848 On ch=1 n=f4 v=51
44852 On ch=1 n=a#3 v=0
44884 On ch=1 n=a#6 v=46
44892 On ch=1 n=d5 v=51
44916 On ch=1 n=f6 v=0
44928 On ch=1 n=g#5 v=0
44936 On ch=1 n=d5 v=0
44956 On ch=1 n=f4 v=0
44968 On ch=1 n=a#6 v=0
45056 On ch=1 n=g#5 v=43
45064 On ch=1 n=a#3 v=52
45076 On ch=1 n=e6 v=52
45104 On ch=1 n=f4 v=53
45108 On ch=1 n=a#3 v=0
45120 On ch=1 n=a#6 v=45
45136 On ch=1 n=g#5 v=0
45136 On ch=1 n=c#5 v=55
45148 On ch=1 n=e6 v=0
45180 On ch=1 n=c#5 v=0
45180 On ch=1 n=f4 v=0
45208 On ch=1 n=a#6 v=0
45284 On ch=1 n=a#3 v=50
45292 On ch=1 n=g#5 v=41
45324 On ch=1 n=f6 v=52
45324 On ch=1 n=f4 v=51
45336 On ch=1 n=a#3 v=0
45368 On ch=1 n=d5 v=51
45372 On ch=1 n=a#6 v=46
45388 On ch=1 n=f4 v=0
45392 On ch=1 n=g#5 v=0
45400 On ch=1 n=f6 v=0
45412 On ch=1 n=d5 v=0
45452 On ch=1 n=a#6 v=0
45504 On ch=1 n=a#3 v=47
45524 On ch=1 n=g#5 v=45
45544 On ch=1 n=f4 v=48
45548 On ch=1 n=a#3 v=0
45548 Par ch=1 c=64 v=0
45564 On ch=1 n=g6 v=53
45584 Par ch=1 c=64 v=127
45588 On ch=1 n=d#5 v=50
45616 On ch=1 n=f4 v=0
45616 On ch=1 n=a#6 v=47
45636 On ch=1 n=d#5 v=0
45640 On ch=1 n=g#5 v=0
45644 On ch=1 n=g6 v=0
45696 On ch=1 n=a#6 v=0
45752 On ch=1 n=a#3 v=50
45768 On ch=1 n=g#5 v=41
45784 On ch=1 n=f4 v=50
45792 On ch=1 n=a#3 v=0
45804 On ch=1 n=f6 v=56
45828 On ch=1 n=d5 v=50
45840 On ch=1 n=a#6 v=46
45860 On ch=1 n=f4 v=0
45864 On ch=1 n=f6 v=0
45872 On ch=1 n=d5 v=0
45900 On ch=1 n=g#5 v=0
45936 On ch=1 n=a#6 v=0
45960 Par ch=1 c=64 v=0
46000 On ch=1 n=a#3 v=48
46004 On ch=1 n=a5 v=43
46004 Par ch=1 c=64 v=127
46040 On ch=1 n=f#4 v=48
46044 On ch=1 n=f#6 v=57
46052 On ch=1 n=a#3 v=0
46080 On ch=1 n=d#5 v=50
46088 On ch=1 n=b6 v=47
46108 On ch=1 n=a5 v=0
46116 On ch=1 n=f#6 v=0
46120 On ch=1 n=d#5 v=0
46124 On ch=1 n=f#4 v=0
46164 On ch=1 n=b6 v=0
46228 On ch=1 n=a#3 v=55
46244 On ch=1 n=a5 v=47
46276 On ch=1 n=a#3 v=0
46280 On ch=1 n=f#6 v=57
46280 On ch=1 n=f#4 v=56
46316 On ch=1 n=d#5 v=55
46332 On ch=1 n=b6 v=48
46360 On ch=1 n=d#5 v=0
46360 On ch=1 n=f#4 v=0
46360 On ch=1 n=a5 v=0
46372 On ch=1 n=f#6 v=0
46396 On ch=1 n=b6 v=0
46456 On ch=1 n=a#3 v=56
46464 Par ch=1 c=64 v=0
46484 On ch=1 n=a5 v=51
46492 Par ch=1 c=64 v=127
46496 On ch=1 n=a#3 v=0
46500 On ch=1 n=f#4 v=57
46512 On ch=1 n=f6 v=63
46536 On ch=1 n=d5 v=57
46568 On ch=1 n=b6 v=53
46580 On ch=1 n=d5 v=0
46580 On ch=1 n=f#4 v=0
46584 On ch=1 n=a5 v=0
46592 On ch=1 n=f6 v=0
46640 On ch=1 n=b6 v=0
46688 On ch=1 n=a#3 v=55
46720 On ch=1 n=a#3 v=0
46732 On ch=1 n=a5 v=50
46740 On ch=1 n=f#4 v=55
46760 On ch=1 n=f#6 v=61
46788 On ch=1 n=d#5 v=56
46816 On ch=1 n=f#4 v=0
46820 On ch=1 n=d#5 v=0
46828 On ch=1 n=b6 v=52
46840 On ch=1 n=a5 v=0
46852 On ch=1 n=f#6 v=0
46872 On ch=1 n=b6 v=0
46928 On ch=1 n=a#3 v=57
46952 Par ch=1 c=64 v=0
46960 On ch=1 n=a#3 v=0
46960 On ch=1 n=f#4 v=57
46964 On ch=1 n=a5 v=53
46980 Par ch=1 c=64 v=127
46992 On ch=1 n=f#4 v=0
47000 On ch=1 n=g#6 v=67
47020 On ch=1 n=f5 v=61
47040 On ch=1 n=b6 v=55
47056 On ch=1 n=f5 v=0
47060 On ch=1 n=a5 v=0
47072 On ch=1 n=g#6 v=0
47112 On ch=1 n=b6 v=0
47188 On ch=1 n=a#3 v=59
47200 On ch=1 n=a5 v=55
47224 On ch=1 n=a#3 v=0
47224 On ch=1 n=f#4 v=62
47244 On ch=1 n=f#6 v=66
47268 On ch=1 n=d#5 v=63
47272 On ch=1 n=f#4 v=0
47292 On ch=1 n=d#5 v=0
47292 On ch=1 n=b6 v=58
47304 On ch=1 n=a5 v=0
47316 On ch=1 n=f#6 v=0
47364 On ch=1 n=b6 v=0
47440 On ch=1 n=a#5 v=58
47440 On ch=1 n=a#3 v=62
47452 Par ch=1 c=64 v=0
47472 On ch=1 n=g6 v=69
47480 Par ch=1 c=64 v=127
47484 On ch=1 n=a#3 v=0
47492 On ch=1 n=g4 v=63
47524 On ch=1 n=c7 v=62
47536 On ch=1 n=e5 v=64
47544 On ch=1 n=a#5 v=0
47552 On ch=1 n=g4 v=0
47560 On ch=1 n=g6 v=0
47588 On ch=1 n=c7 v=0
47592 On ch=1 n=e5 v=0
47688 On ch=1 n=a#3 v=61
47692 On ch=1 n=a#5 v=63
47720 On ch=1 n=a#3 v=0
47724 On ch=1 n=g6 v=72
47744 On ch=1 n=g4 v=62
47772 On ch=1 n=a#5 v=0
47772 On ch=1 n=e5 v=63
47776 On ch=1 n=c7 v=61
47796 On ch=1 n=g4 v=0
47812 On ch=1 n=g6 v=0
47816 On ch=1 n=e5 v=0
47844 On ch=1 n=c7 v=0
47896 On ch=1 n=a#5 v=53
47924 On ch=1 n=a#3 v=61
47928 Par ch=1 c=64 v=0
47944 On ch=1 n=f#6 v=72
47956 On ch=1 n=a#3 v=0
47960 Par ch=1 c=64 v=127
47968 On ch=1 n=g4 v=61
48004 On ch=1 n=c7 v=62
48004 On ch=1 n=d#5 v=63
48016 On ch=1 n=a#5 v=0
48028 On ch=1 n=f#6 v=0
48048 On ch=1 n=d#5 v=0
48048 On ch=1 n=g4 v=0
48068 On ch=1 n=c7 v=0
48148 On ch=1 n=a#5 v=52
48148 On ch=1 n=a#3 v=61
48184 On ch=1 n=a#3 v=0
48184 On ch=1 n=g6 v=73
48200 On ch=1 n=g4 v=62
48232 On ch=1 n=e5 v=62
48240 On ch=1 n=c7 v=59
48248 On ch=1 n=a#5 v=0
48276 On ch=1 n=e5 v=0
48280 On ch=1 n=g4 v=0
48288 On ch=1 n=g6 v=0
48312 On ch=1 n=c7 v=0
48368 On ch=1 n=a#3 v=59
48372 Par ch=1 c=64 v=0
48388 On ch=1 n=a#5 v=56
48404 On ch=1 n=a#3 v=0
48404 Par ch=1 c=64 v=127
48416 On ch=1 n=g4 v=61
48432 On ch=1 n=a6 v=78
48448 On ch=1 n=g4 v=0
48472 On ch=1 n=f5 v=62
48484 On ch=1 n=c7 v=61
48492 On ch=1 n=a#5 v=0
48496 On ch=1 n=f5 v=0
48516 On ch=1 n=a6 v=0
48544 On ch=1 n=c7 v=0
48608 On ch=1 n=a#3 v=59
48612 On ch=1 n=a#5 v=61
48648 On ch=1 n=g6 v=77
48656 On ch=1 n=a#3 v=0
48664 On ch=1 n=g4 v=59
48704 On ch=1 n=c7 v=62
48708 On ch=1 n=g4 v=0
48712 On ch=1 n=a#5 v=0
48712 On ch=1 n=e5 v=62
48740 On ch=1 n=g6 v=0
48752 On ch=1 n=e5 v=0
48756 On ch=1 n=c7 v=0
48796 Par ch=1 c=64 v=0
48820 Par ch=1 c=64 v=127
48840 On ch=1 n=a#3 v=63
48868 On ch=1 n=c6 v=37
48888 On ch=1 n=f6 v=55
48888 On ch=1 n=f4 v=63
48900 On ch=1 n=a#3 v=0
48912 On ch=1 n=a6 v=67
48920 On ch=1 n=a4 v=64
48960 On ch=1 n=d#5 v=66
48968 On ch=1 n=c7 v=74
48976 On ch=1 n=f6 v=0
48984 On ch=1 n=c6 v=0
48988 On ch=1 n=a4 v=0
49004 On ch=1 n=d#5 v=0
49004 On ch=1 n=a6 v=0
49016 On ch=1 n=f4 v=0
49028 On ch=1 n=c7 v=0
49064 Par ch=1 c=64 v=0
49100 Par ch=1 c=64 v=127
49112 On ch=1 n=a#3 v=63
49124 On ch=1 n=d6 v=40
49152 On ch=1 n=f4 v=66
49168 On ch=1 n=a#6 v=78
49172 On ch=1 n=a#3 v=0
49176 On ch=1 n=g#4 v=66
49188 On ch=1 n=d6 v=0
49208 On ch=1 n=f7 v=67
49208 On ch=1 n=d5 v=68
49236 On ch=1 n=a#6 v=0
49248 On ch=1 n=g#4 v=0
49256 On ch=1 n=d5 v=0
49264 On ch=1 n=f7 v=0
49264 On ch=1 n=f4 v=0
49344 On ch=1 n=a#3 v=69
49364 On ch=1 n=c#6 v=42
49384 On ch=1 n=a#6 v=74
49384 On ch=1 n=f4 v=69
49392 On ch=1 n=a#3 v=0
49400 On ch=1 n=g#4 v=73
49404 On ch=1 n=c#6 v=0
49428 On ch=1 n=e7 v=80
49432 On ch=1 n=d5 v=73
49444 On ch=1 n=a#6 v=0
49472 On ch=1 n=g#4 v=0
49484 On ch=1 n=d5 v=0
49488 On ch=1 n=f4 v=0
49504 On ch=1 n=e7 v=0
49572 On ch=1 n=a#3 v=69
49596 On ch=1 n=d6 v=50
49624 On ch=1 n=a#3 v=0
49624 On ch=1 n=f4 v=71
49632 On ch=1 n=a#6 v=78
49632 On ch=1 n=g#4 v=71
49640 On ch=1 n=d6 v=0
49656 On ch=1 n=d5 v=72
49680 On ch=1 n=f7 v=88
49684 On ch=1 n=a#6 v=0
49696 On ch=1 n=g#4 v=0
49700 On ch=1 n=d5 v=0
49708 On ch=1 n=f7 v=0
49712 On ch=1 n=f4 v=0
49800 On ch=1 n=a#3 v=71
49836 On ch=1 n=d6 v=45
49852 On ch=1 n=f4 v=71
49856 On ch=1 n=a#3 v=0
49860 On ch=1 n=c7 v=84
49868 On ch=1 n=g#4 v=73
49872 On ch=1 n=d6 v=0
49892 On ch=1 n=c7 v=0
49892 On ch=1 n=d5 v=73
49924 On ch=1 n=g#7 v=87
49932 On ch=1 n=g#4 v=0
49940 On ch=1 n=d5 v=0
49944 On ch=1 n=f4 v=0
49952 On ch=1 n=g#7 v=0
50044 On ch=1 n=a#3 v=69
50084 On ch=1 n=d6 v=57
50092 On ch=1 n=a#3 v=0
50092 On ch=1 n=f4 v=72
50108 On ch=1 n=g#4 v=72
50128 On ch=1 n=d6 v=0
50128 On ch=1 n=a#6 v=73
50132 On ch=1 n=d5 v=72
50156 On ch=1 n=a#6 v=0
50172 On ch=1 n=d5 v=0
50172 On ch=1 n=g#4 v=0
50172 On ch=1 n=g7 v=85
50180 On ch=1 n=f4 v=0
50200 On ch=1 n=g7 v=0
50324 On ch=1 n=a#5 v=50
50328 Par ch=1 c=64 v=0
50348 On ch=1 n=g6 v=72
50360 On ch=1 n=a#5 v=0
50364 Par ch=1 c=64 v=127
50380 On ch=1 n=d#3 v=93
50404 On ch=1 n=d#7 v=90
50408 On ch=1 n=g6 v=0
50412 On ch=1 n=d#3 v=0
50448 On ch=1 n=d#7 v=0
50540 On ch=1 n=a#5 v=50
50556 On ch=1 n=d#4 v=71
50580 On ch=1 n=g6 v=57
50588 On ch=1 n=a#4 v=72
50608 On ch=1 n=d#4 v=0
50624 On ch=1 n=a#6 v=89
50640 On ch=1 n=g5 v=74
50660 On ch=1 n=a#5 v=0
50668 On ch=1 n=g6 v=0
50676 On ch=1 n=g5 v=0
50680 On ch=1 n=a#4 v=0
50696 On ch=1 n=a#6 v=0
50776 On ch=1 n=a#5 v=56
50800 On ch=1 n=g6 v=57
50800 On ch=1 n=d#4 v=68
50828 On ch=1 n=a#4 v=68
50852 On ch=1 n=d#4 v=0
50852 On ch=1 n=a6 v=89
50880 On ch=1 n=g5 v=72
50896 On ch=1 n=g6 v=0
50900 On ch=1 n=a#5 v=0
50916 On ch=1 n=a#4 v=0
50924 On ch=1 n=g5 v=0
50924 On ch=1 n=a6 v=0
51020 On ch=1 n=a#5 v=51
51020 On ch=1 n=d#4 v=68
51052 On ch=1 n=g6 v=57
51060 On ch=1 n=a#4 v=69
51080 On ch=1 n=d#4 v=0
51100 On ch=1 n=a#6 v=88
51112 On ch=1 n=g5 v=72
51128 On ch=1 n=a#5 v=0
51132 On ch=1 n=g6 v=0
51152 On ch=1 n=g5 v=0
51164 On ch=1 n=a#6 v=0
51172 On ch=1 n=a#4 v=0
51216 On ch=1 n=a#5 v=47
51256 On ch=1 n=g6 v=53
51256 On ch=1 n=d#4 v=63
51280 On ch=1 n=a#5 v=0
51296 On ch=1 n=d7 v=77
51296 On ch=1 n=a#4 v=66
51308 On ch=1 n=d#4 v=0
51344 On ch=1 n=g5 v=67
51360 On ch=1 n=c7 v=90
51368 On ch=1 n=g6 v=0
51372 On ch=1 n=d7 v=0
51380 On ch=1 n=g5 v=0
51396 On ch=1 n=a#4 v=0
51416 On ch=1 n=c7 v=0
51496 On ch=1 n=a#5 v=50
51508 On ch=1 n=d#4 v=64
51540 On ch=1 n=g6 v=58
51540 On ch=1 n=a#4 v=66
51556 On ch=1 n=d#4 v=0
51588 On ch=1 n=a#6 v=89
51588 On ch=1 n=g5 v=67
51612 On ch=1 n=a#5 v=0
51620 On ch=1 n=g6 v=0
51624 On ch=1 n=g5 v=0
51632 On ch=1 n=a#4 v=0
51656 On ch=1 n=a#6 v=0
51732 Par ch=1 c=64 v=0
51732 On ch=1 n=d4 v=69
51744 On ch=1 n=a#5 v=57
51772 Par ch=1 c=64 v=127
51776 On ch=1 n=a#4 v=69
51780 On ch=1 n=d4 v=0
51784 On ch=1 n=g#6 v=61
51788 On ch=1 n=a#5 v=0
51816 On ch=1 n=g#5 v=69
51832 On ch=1 n=g#6 v=0
51844 On ch=1 n=a#4 v=0
51848 On ch=1 n=f7 v=90
51856 On ch=1 n=g#5 v=0
51896 On ch=1 n=f7 v=0
51988 On ch=1 n=d4 v=68
52016 On ch=1 n=a#5 v=47
52032 On ch=1 n=a#4 v=71
52048 On ch=1 n=d4 v=0
52052 On ch=1 n=g#6 v=59
52084 On ch=1 n=g#5 v=82
52092 On ch=1 n=a#6 v=88
52120 On ch=1 n=g#5 v=0
52120 On ch=1 n=a#4 v=0
52120 On ch=1 n=a#5 v=0
52148 On ch=1 n=g#6 v=0
52176 On ch=1 n=a#6 v=0
52224 On ch=1 n=d4 v=66
52236 On ch=1 n=a#5 v=52
52264 On ch=1 n=g#6 v=56
52276 On ch=1 n=a#4 v=67
52280 On ch=1 n=d4 v=0
52312 On ch=1 n=a6 v=90
52316 On ch=1 n=g#5 v=68
52348 On ch=1 n=a#5 v=0
52352 On ch=1 n=a#4 v=0
52356 On ch=1 n=g#5 v=0
52368 On ch=1 n=g#6 v=0
52388 On ch=1 n=a6 v=0
52452 On ch=1 n=a#5 v=52
52468 On ch=1 n=d4 v=71
52488 On ch=1 n=g#6 v=58
52508 On ch=1 n=a#4 v=72
52520 On ch=1 n=d4 v=0
52532 On ch=1 n=a#6 v=91
52544 On ch=1 n=g#5 v=72
52556 On ch=1 n=a#5 v=0
52580 On ch=1 n=a#4 v=0
52584 On ch=1 n=g#6 v=0
52588 On ch=1 n=g#5 v=0
52596 On ch=1 n=a#6 v=0
52652 On ch=1 n=a#5 v=58
52692 On ch=1 n=g#6 v=56
52692 On ch=1 n=d4 v=71
52712 On ch=1 n=a#5 v=0
52740 On ch=1 n=a#4 v=74
52744 On ch=1 n=d7 v=74
52748 On ch=1 n=d4 v=0
52780 On ch=1 n=g#5 v=75
52800 On ch=1 n=g#6 v=0
52808 On ch=1 n=a#4 v=0
52808 On ch=1 n=c7 v=89
52816 On ch=1 n=g#5 v=0
52824 On ch=1 n=d7 v=0
52856 On ch=1 n=c7 v=0
52924 On ch=1 n=a#5 v=56
52936 On ch=1 n=d4 v=71
52972 On ch=1 n=g#6 v=64
52984 On ch=1 n=a#4 v=74
52992 On ch=1 n=d4 v=0
53012 On ch=1 n=g#5 v=74
53020 On ch=1 n=a#5 v=0
53020 On ch=1 n=a#6 v=90
53036 On ch=1 n=a#4 v=0
53052 On ch=1 n=g#5 v=0
53056 On ch=1 n=g#6 v=0
53076 On ch=1 n=a#6 v=0
53124 On ch=1 n=a#5 v=68
53152 On ch=1 n=d#4 v=74
53176 On ch=1 n=g6 v=59
53188 On ch=1 n=a#5 v=0
53204 On ch=1 n=a#6 v=63
53204 On ch=1 n=a#4 v=78
53216 Par ch=1 c=64 v=0
53220 On ch=1 n=g6 v=0
53220 On ch=1 n=d#4 v=0
53244 On ch=1 n=a#6 v=0
53248 On ch=1 n=g5 v=79
53252 Par ch=1 c=64 v=127
53276 On ch=1 n=g7 v=99
53288 On ch=1 n=g5 v=0
53292 On ch=1 n=a#4 v=0
53304 On ch=1 n=g7 v=0
53400 On ch=1 n=f4 v=62
53428 On ch=1 n=a#5 v=46
53448 Par ch=1 c=64 v=0
53452 On ch=1 n=a#4 v=69
53468 On ch=1 n=f4 v=0
53472 On ch=1 n=a#5 v=0
53472 On ch=1 n=d6 v=40
53472 Par ch=1 c=64 v=127
53472 On ch=1 n=d5 v=69
53500 On ch=1 n=a#6 v=62
53504 On ch=1 n=g#5 v=79
53532 On ch=1 n=d6 v=0
53532 On ch=1 n=d7 v=91
53540 On ch=1 n=d5 v=0
53552 On ch=1 n=a#6 v=0
53580 On ch=1 n=a#4 v=0
53588 On ch=1 n=d7 v=0
53596 On ch=1 n=g#5 v=0
53652 On ch=1 n=a#5 v=68
53668 On ch=1 n=g4 v=64
53672 Par ch=1 c=64 v=0
53684 On ch=1 n=a#4 v=64
53696 On ch=1 n=a#5 v=0
53704 On ch=1 n=d#6 v=32
53712 Par ch=1 c=64 v=127
53712 On ch=1 n=d#5 v=69
53732 On ch=1 n=a#6 v=68
53744 On ch=1 n=g5 v=74
53764 On ch=1 n=d#7 v=94
53784 On ch=1 n=a#6 v=0
53784 On ch=1 n=d#6 v=0
53788 On ch=1 n=g4 v=0
53792 On ch=1 n=d#5 v=0
53792 On ch=1 n=a#4 v=0
53800 On ch=1 n=g5 v=0
53820 On ch=1 n=d#7 v=0
53896 On ch=1 n=b5 v=69
53900 On ch=1 n=g3 v=69
53940 On ch=1 n=d#4 v=72
53944 On ch=1 n=g3 v=0
53944 On ch=1 n=b5 v=0
53948 On ch=1 n=d#6 v=53
53984 On ch=1 n=b4 v=74
54004 On ch=1 n=d7 v=89
54008 On ch=1 n=d#6 v=0
54028 On ch=1 n=b4 v=0
54032 On ch=1 n=d#4 v=0
54048 On ch=1 n=d7 v=0
54136 On ch=1 n=g#3 v=67
54160 On ch=1 n=c6 v=37
54160 Par ch=1 c=64 v=0
54168 On ch=1 n=d#4 v=69
54176 On ch=1 n=g#3 v=0
54196 On ch=1 n=d#6 v=74
54208 Par ch=1 c=64 v=127
54208 On ch=1 n=c5 v=71
54228 On ch=1 n=d#4 v=0
54232 On ch=1 n=c6 v=0
54240 On ch=1 n=c5 v=0
54240 On ch=1 n=c7 v=90
54252 On ch=1 n=d#6 v=0
54280 On ch=1 n=c7 v=0
54368 On ch=1 n=a3 v=67
54388 On ch=1 n=c6 v=48
54388 Par ch=1 c=64 v=0
54408 On ch=1 n=f4 v=69
54412 On ch=1 n=a3 v=0
54412 On ch=1 n=f6 v=68
54428 On ch=1 n=c6 v=0
54448 Par ch=1 c=64 v=127
54452 On ch=1 n=f6 v=0
54464 On ch=1 n=d#5 v=73
54476 On ch=1 n=f4 v=0
54480 On ch=1 n=f7 v=91
54504 On ch=1 n=d#5 v=0
54516 On ch=1 n=f7 v=0
54612 On ch=1 n=a#3 v=66
54624 On ch=1 n=a#5 v=50
54628 Par ch=1 c=64 v=0
54664 On ch=1 n=g6 v=57
54668 On ch=1 n=a#5 v=0
54676 On ch=1 n=a#3 v=0
54676 On ch=1 n=g4 v=69
54680 Par ch=1 c=64 v=127
54712 On ch=1 n=g6 v=0
54724 On ch=1 n=d#7 v=89
54724 On ch=1 n=d#5 v=69
54744 On ch=1 n=g4 v=0
54764 On ch=1 n=d#7 v=0
54772 On ch=1 n=d#5 v=0
54876 On ch=1 n=a#5 v=56
54876 On ch=1 n=a#3 v=72
54900 On ch=1 n=f#6 v=71
54908 Par ch=1 c=64 v=0
54912 On ch=1 n=a#5 v=0
54924 On ch=1 n=f#4 v=72
54932 On ch=1 n=a6 v=68
54936 On ch=1 n=a#3 v=0
54940 On ch=1 n=f#6 v=0
54948 Par ch=1 c=64 v=127
54964 On ch=1 n=a4 v=72
54972 On ch=1 n=d#7 v=88
54976 On ch=1 n=a6 v=0
55000 On ch=1 n=d#5 v=72
55016 On ch=1 n=d#7 v=0
55020 On ch=1 n=a4 v=0
55032 On ch=1 n=f#4 v=0
55040 On ch=1 n=d#5 v=0
55116 On ch=1 n=a#5 v=58
55116 On ch=1 n=a#3 v=61
55144 On ch=1 n=f6 v=66
55156 On ch=1 n=f4 v=61
55164 Par ch=1 c=64 v=0
55168 On ch=1 n=a#3 v=0
55168 On ch=1 n=a#5 v=0
55168 On ch=1 n=a#6 v=69
55184 On ch=1 n=f6 v=0
55192 Par ch=1 c=64 v=127
55192 On ch=1 n=a#4 v=61
55196 On ch=1 n=d7 v=80
55224 On ch=1 n=a#6 v=0
55224 On ch=1 n=f4 v=0
55228 On ch=1 n=d5 v=63
55232 On ch=1 n=d7 v=0
55248 On ch=1 n=a#4 v=0
55280 On ch=1 n=d5 v=0
55360 On ch=1 n=a#5 v=59
55360 On ch=1 n=c4 v=56
55388 Par ch=1 c=64 v=0
55404 On ch=1 n=e6 v=66
55404 On ch=1 n=g4 v=57
55412 On ch=1 n=c4 v=0
55420 On ch=1 n=g6 v=66
55420 On ch=1 n=a#4 v=57
55428 Par ch=1 c=64 v=127
55444 On ch=1 n=a#5 v=0
55448 On ch=1 n=c#7 v=72
55452 On ch=1 n=e5 v=58
55464 On ch=1 n=e6 v=0
55476 On ch=1 n=g6 v=0
55496 On ch=1 n=e5 v=0
55496 On ch=1 n=a#4 v=0
55500 On ch=1 n=c#7 v=0
55504 On ch=1 n=g4 v=0
55584 On ch=1 n=c4 v=69
55608 On ch=1 n=g#5 v=59
55620 Par ch=1 c=64 v=0
55628 On ch=1 n=c4 v=0
55628 On ch=1 n=g#4 v=71
55636 On ch=1 n=f6 v=63
55656 Par ch=1 c=64 v=127
55664 On ch=1 n=g#5 v=0
55664 On ch=1 n=g#6 v=71
55672 On ch=1 n=f5 v=72
55680 On ch=1 n=g#4 v=0
55692 On ch=1 n=c7 v=83
55700 On ch=1 n=f5 v=0
55700 On ch=1 n=f6 v=0
55716 On ch=1 n=g#6 v=0
55740 On ch=1 n=c7 v=0
55808 On ch=1 n=c4 v=69
55836 On ch=1 n=g4 v=75
55840 On ch=1 n=c4 v=0
55844 On ch=1 n=c6 v=51
55844 Par ch=1 c=64 v=0
55872 On ch=1 n=c5 v=75
55876 Par ch=1 c=64 v=127
55880 On ch=1 n=g6 v=64
55884 On ch=1 n=g4 v=0
55904 On ch=1 n=a#6 v=68
55912 On ch=1 n=c6 v=0
55924 On ch=1 n=g5 v=80
55928 On ch=1 n=c5 v=0
55936 On ch=1 n=g6 v=0
55952 On ch=1 n=g5 v=0
55952 On ch=1 n=e7 v=89
55980 On ch=1 n=a#6 v=0
55992 On ch=1 n=e7 v=0
56060 Par ch=1 c=64 v=0
56096 On ch=1 n=c6 v=66
56116 Par ch=1 c=64 v=127
56120 On ch=1 n=g#6 v=69
56140 On ch=1 n=c6 v=0
56152 On ch=1 n=f3 v=89
56172 On ch=1 n=f7 v=93
56176 On ch=1 n=g#6 v=0
56220 On ch=1 n=f7 v=0
56236 On ch=1 n=f3 v=0
56340 On ch=1 n=c6 v=42
56340 On ch=1 n=f4 v=63
56380 On ch=1 n=g#6 v=62
56384 On ch=1 n=c5 v=61
56392 On ch=1 n=f4 v=0
56428 On ch=1 n=c7 v=88
56428 On ch=1 n=g#5 v=68
56464 On ch=1 n=c5 v=0
56464 On ch=1 n=c6 v=0
56476 On ch=1 n=g#5 v=0
56476 On ch=1 n=g#6 v=0
56484 On ch=1 n=c7 v=0
56580 On ch=1 n=f4 v=75
56584 On ch=1 n=b5 v=48
56608 On ch=1 n=g#6 v=62
56628 On ch=1 n=c5 v=79
56632 On ch=1 n=f4 v=0
56652 On ch=1 n=b6 v=90
56660 On ch=1 n=g#5 v=82
56680 On ch=1 n=b5 v=0
56696 On ch=1 n=g#6 v=0
56704 On ch=1 n=c5 v=0
56708 On ch=1 n=g#5 v=0
56716 On ch=1 n=b6 v=0
56800 On ch=1 n=f4 v=55
56808 On ch=1 n=c6 v=48
56840 On ch=1 n=g#6 v=64
56852 On ch=1 n=c5 v=71
56864 On ch=1 n=f4 v=0
56884 On ch=1 n=c7 v=91
56884 On ch=1 n=g#5 v=62
56900 On ch=1 n=c6 v=0
56920 On ch=1 n=g#6 v=0
56928 On ch=1 n=c5 v=0
56932 On ch=1 n=g#5 v=0
56936 On ch=1 n=c7 v=0
57012 On ch=1 n=c#6 v=51
57032 On ch=1 n=f4 v=68
57040 On ch=1 n=g#6 v=66
57076 On ch=1 n=d#7 v=82
57084 On ch=1 n=c5 v=71
57088 On ch=1 n=c#6 v=0
57092 On ch=1 n=f4 v=0
57112 On ch=1 n=g#6 v=0
57116 On ch=1 n=g#5 v=72
57132 On ch=1 n=c#7 v=91
57148 On ch=1 n=d#7 v=0
57156 On ch=1 n=c5 v=0
57160 On ch=1 n=c#7 v=0
57168 On ch=1 n=g#5 v=0
57264 On ch=1 n=f4 v=56
57308 On ch=1 n=c6 v=51
57316 On ch=1 n=c5 v=67
57332 On ch=1 n=f4 v=0
57332 On ch=1 n=g#6 v=69
57356 On ch=1 n=g#5 v=69
57376 On ch=1 n=c7 v=90
57392 On ch=1 n=c6 v=0
57396 On ch=1 n=c5 v=0
57404 On ch=1 n=g#5 v=0
57404 On ch=1 n=g#6 v=0
57424 On ch=1 n=c7 v=0
57500 On ch=1 n=c6 v=40
57520 On ch=1 n=e4 v=55
57528 On ch=1 n=g6 v=63
57532 Par ch=1 c=64 v=0
57548 On ch=1 n=a#4 v=72
57552 On ch=1 n=a#6 v=66
57556 On ch=1 n=c6 v=0
57568 On ch=1 n=e4 v=0
57568 Par ch=1 c=64 v=127
57568 On ch=1 n=c5 v=53
57572 On ch=1 n=g6 v=0
57592 On ch=1 n=a#6 v=0
57600 On ch=1 n=g5 v=73
57612 On ch=1 n=g7 v=93
57632 On ch=1 n=c5 v=0
57636 On ch=1 n=a#4 v=0
57644 On ch=1 n=g5 v=0
57660 On ch=1 n=g7 v=0
57748 On ch=1 n=e4 v=66
57764 On ch=1 n=c6 v=52
57788 On ch=1 n=g6 v=55
57788 On ch=1 n=a#4 v=71
57800 On ch=1 n=c5 v=61
57804 On ch=1 n=e4 v=0
57808 On ch=1 n=a#6 v=58
57836 On ch=1 n=g5 v=66
57844 On ch=1 n=c7 v=89
57872 On ch=1 n=a#4 v=0
57876 On ch=1 n=c5 v=0
57884 On ch=1 n=g5 v=0
57884 On ch=1 n=g6 v=0
57892 On ch=1 n=a#6 v=0
57900 On ch=1 n=c6 v=0
57924 On ch=1 n=c7 v=0
57980 On ch=1 n=e4 v=46
57992 On ch=1 n=b5 v=46
58012 On ch=1 n=g6 v=51
58016 On ch=1 n=a#4 v=69
58032 On ch=1 n=e4 v=0
58032 On ch=1 n=c5 v=53
58036 On ch=1 n=a#6 v=58
58068 On ch=1 n=b6 v=87
58072 On ch=1 n=g5 v=79
58092 On ch=1 n=a#4 v=0
58100 On ch=1 n=b5 v=0
58108 On ch=1 n=g6 v=0
58112 On ch=1 n=a#6 v=0
58112 On ch=1 n=c5 v=0
58120 On ch=1 n=g5 v=0
58144 On ch=1 n=b6 v=0
58220 On ch=1 n=c6 v=46
58220 On ch=1 n=e4 v=69
58248 On ch=1 n=g6 v=59
58252 On ch=1 n=a#4 v=63
58264 On ch=1 n=e4 v=0
58264 On ch=1 n=c5 v=64
58268 On ch=1 n=a#6 v=61
58300 On ch=1 n=g5 v=83
58308 On ch=1 n=c7 v=88
58332 On ch=1 n=c6 v=0
58344 On ch=1 n=g6 v=0
58348 On ch=1 n=g5 v=0
58348 On ch=1 n=c5 v=0
58348 On ch=1 n=a#4 v=0
58352 On ch=1 n=a#6 v=0
58376 On ch=1 n=c7 v=0
58436 On ch=1 n=c#6 v=46
58444 On ch=1 n=e4 v=63
58476 On ch=1 n=g6 v=55
58480 On ch=1 n=a#6 v=56
58480 On ch=1 n=a#4 v=71
58484 On ch=1 n=g6 v=0
58488 On ch=1 n=e4 v=0
58488 On ch=1 n=c5 v=74
58512 On ch=1 n=c#6 v=0
58512 On ch=1 n=d#7 v=82
58524 On ch=1 n=g5 v=72
58560 On ch=1 n=c#7 v=91
58568 On ch=1 n=c5 v=0
58572 On ch=1 n=g5 v=0
58576 On ch=1 n=a#4 v=0
58576 On ch=1 n=a#6 v=0
58584 On ch=1 n=d#7 v=0
58624 On ch=1 n=c#7 v=0
58672 On ch=1 n=e4 v=59
58712 On ch=1 n=a#4 v=62
58716 On ch=1 n=c5 v=75
58720 On ch=1 n=e4 v=0
58724 On ch=1 n=c6 v=51
58748 On ch=1 n=g6 v=53
58756 On ch=1 n=g5 v=58
58772 On ch=1 n=a#6 v=56
58788 On ch=1 n=c5 v=0
58788 On ch=1 n=a#4 v=0
58808 On ch=1 n=g5 v=0
58812 On ch=1 n=c7 v=90
58836 On ch=1 n=g6 v=0
58836 On ch=1 n=c6 v=0
58860 On ch=1 n=a#6 v=0
58868 On ch=1 n=c7 v=0
58936 On ch=1 n=f4 v=62
58948 On ch=1 n=c6 v=59
58964 On ch=1 n=g#6 v=63
58972 Par ch=1 c=64 v=0
58972 On ch=1 n=g#4 v=71
58996 On ch=1 n=c6 v=0
58996 On ch=1 n=c7 v=72
58996 On ch=1 n=c5 v=66
59000 On ch=1 n=f4 v=0
59016 On ch=1 n=g#6 v=0
59020 Par ch=1 c=64 v=127
59024 On ch=1 n=c7 v=0
59024 On ch=1 n=g#5 v=82
59048 On ch=1 n=g#7 v=96
59052 On ch=1 n=c5 v=0
59056 On ch=1 n=g#4 v=0
59072 On ch=1 n=g#5 v=0
59092 On ch=1 n=g#7 v=0
59196 On ch=1 n=d#6 v=45
59196 On ch=1 n=g4 v=50
59220 Par ch=1 c=64 v=0
59224 On ch=1 n=a#6 v=55
59228 On ch=1 n=a#4 v=72
59248 On ch=1 n=g4 v=0
59252 On ch=1 n=d#7 v=58
59252 Par ch=1 c=64 v=127
59256 On ch=1 n=d#6 v=0
59256 On ch=1 n=d#5 v=69
59280 On ch=1 n=a#6 v=0
59292 On ch=1 n=g7 v=85
59292 On ch=1 n=a#5 v=64
59304 On ch=1 n=a#4 v=0
59312 On ch=1 n=d#5 v=0
59316 On ch=1 n=d#7 v=0
59340 On ch=1 n=a#5 v=0
59352 On ch=1 n=g7 v=0
59436 On ch=1 n=g#4 v=64
59448 Par ch=1 c=64 v=0
59456 On ch=1 n=f6 v=43
59476 On ch=1 n=d#5 v=67
59484 Par ch=1 c=64 v=127
59488 On ch=1 n=g#4 v=0
59488 On ch=1 n=c7 v=47
59508 On ch=1 n=d#7 v=51
59516 On ch=1 n=c6 v=55
59532 On ch=1 n=f7 v=80
59548 On ch=1 n=d#5 v=0
59548 On ch=1 n=f6 v=0
59556 On ch=1 n=c7 v=0
59560 On ch=1 n=c6 v=0
59580 On ch=1 n=d#7 v=0
59616 On ch=1 n=f7 v=0
59668 On ch=1 n=g#4 v=56
59692 On ch=1 n=f6 v=47
59712 On ch=1 n=b6 v=50
59712 On ch=1 n=d#5 v=58
59724 On ch=1 n=g#4 v=0
59740 On ch=1 n=d#7 v=53
59744 On ch=1 n=b5 v=63
59764 On ch=1 n=f7 v=72
59776 On ch=1 n=d#5 v=0
59788 On ch=1 n=b6 v=0
59792 On ch=1 n=b5 v=0
59804 On ch=1 n=f6 v=0
59820 On ch=1 n=d#7 v=0
59824 On ch=1 n=f7 v=0
59904 Par ch=1 c=64 v=0
59912 On ch=1 n=a#4 v=57
59920 On ch=1 n=d6 v=45
59944 Par ch=1 c=64 v=127
59952 On ch=1 n=a#6 v=53
59964 On ch=1 n=d6 v=0
59964 On ch=1 n=f5 v=61
59988 On ch=1 n=a#5 v=61
60000 On ch=1 n=f7 v=69
60008 On ch=1 n=a#6 v=0
60012 On ch=1 n=a#4 v=0
60024 On ch=1 n=f5 v=0
60040 On ch=1 n=f7 v=0
60052 On ch=1 n=a#5 v=0
60128 On ch=1 n=a#4 v=59
60168 On ch=1 n=f6 v=41
60172 On ch=1 n=f5 v=59
60192 On ch=1 n=a#4 v=0
60192 On ch=1 n=g#5 v=62
60200 On ch=1 n=d7 v=48
60228 On ch=1 n=f5 v=0
60232 On ch=1 n=g7 v=62
60232 On ch=1 n=d6 v=64
60252 On ch=1 n=g#5 v=0
60252 On ch=1 n=f6 v=0
60268 On ch=1 n=d7 v=0
60272 On ch=1 n=d6 v=0
60284 On ch=1 n=g7 v=0
60356 On ch=1 n=a#4 v=45
60368 Par ch=1 c=64 v=0
60384 On ch=1 n=e6 v=43
60404 On ch=1 n=e5 v=50
60416 On ch=1 n=d7 v=51
60420 On ch=1 n=a#4 v=0
60424 Par ch=1 c=64 v=127
60436 On ch=1 n=e6 v=0
60448 On ch=1 n=g5 v=53
60460 On ch=1 n=d6 v=53
60464 On ch=1 n=g7 v=57
60492 On ch=1 n=g5 v=0
60496 On ch=1 n=d7 v=0
60500 On ch=1 n=e5 v=0
60516 On ch=1 n=g7 v=0
60520 On ch=1 n=d6 v=0
60600 On ch=1 n=a#4 v=47
60608 Par ch=1 c=64 v=0
60640 On ch=1 n=e6 v=35
60652 Par ch=1 c=64 v=127
60656 On ch=1 n=c#7 v=39
60656 On ch=1 n=e5 v=50
60660 On ch=1 n=a#4 v=0
60668 On ch=1 n=e6 v=0
60684 On ch=1 n=g5 v=53
60700 On ch=1 n=c#6 v=53
60704 On ch=1 n=g7 v=56
60720 On ch=1 n=c#7 v=0
60728 On ch=1 n=g5 v=0
60732 On ch=1 n=e5 v=0
60756 On ch=1 n=c#6 v=0
60760 On ch=1 n=g7 v=0
60836 On ch=1 n=a4 v=42
60844 Par ch=1 c=64 v=0
60884 On ch=1 n=e6 v=35
60888 Par ch=1 c=64 v=127
60892 On ch=1 n=a4 v=0
60892 On ch=1 n=e5 v=51
60896 On ch=1 n=c#7 v=39
60896 On ch=1 n=g5 v=51
60920 On ch=1 n=e6 v=0
60936 On ch=1 n=c#6 v=51
60940 On ch=1 n=g7 v=56
60952 On ch=1 n=e5 v=0
60956 On ch=1 n=g5 v=0
60956 On ch=1 n=c#7 v=0
60972 On ch=1 n=c#6 v=0
60996 On ch=1 n=g7 v=0
61084 On ch=1 n=a4 v=46
61124 On ch=1 n=a4 v=0
61124 On ch=1 n=d#5 v=46
61128 On ch=1 n=d#6 v=35
61140 Par ch=1 c=64 v=0
61156 On ch=1 n=c#7 v=39
61156 On ch=1 n=f#5 v=50
61172 On ch=1 n=c#6 v=50
61176 Par ch=1 c=64 v=127
61192 On ch=1 n=f#5 v=0
61196 On ch=1 n=f#7 v=59
61200 On ch=1 n=d#5 v=0
61216 On ch=1 n=c#6 v=0
61216 On ch=1 n=d#6 v=0
61232 On ch=1 n=c#7 v=0
61268 On ch=1 n=f#7 v=0
61332 On ch=1 n=a4 v=42
61364 On ch=1 n=d#6 v=39
61380 On ch=1 n=a4 v=0
61380 On ch=1 n=d#5 v=46
61388 On ch=1 n=c#7 v=43
61404 On ch=1 n=f#5 v=51
61416 On ch=1 n=c#6 v=51
61432 On ch=1 n=f#5 v=0
61440 On ch=1 n=f#7 v=58
61444 On ch=1 n=d#5 v=0
61460 On ch=1 n=c#6 v=0
61468 On ch=1 n=d#6 v=0
61476 On ch=1 n=c#7 v=0
61512 On ch=1 n=f#7 v=0
61592 On ch=1 n=g#4 v=47
61616 On ch=1 n=d#6 v=30
61628 Par ch=1 c=64 v=0
61636 On ch=1 n=g#4 v=0
61636 On ch=1 n=d#5 v=50
61656 On ch=1 n=f#5 v=53
61660 On ch=1 n=c7 v=39
61660 Par ch=1 c=64 v=127
61672 On ch=1 n=c6 v=53
61680 On ch=1 n=d#6 v=0
61692 On ch=1 n=f#7 v=61
61700 On ch=1 n=f#5 v=0
61700 On ch=1 n=d#5 v=0
61720 On ch=1 n=c6 v=0
61720 On ch=1 n=c7 v=0
61764 On ch=1 n=f#7 v=0
61828 On ch=1 n=g#4 v=47
61852 On ch=1 n=d#6 v=35
61872 On ch=1 n=d#5 v=52
61880 On ch=1 n=g#4 v=0
61888 On ch=1 n=c7 v=43
61892 On ch=1 n=f#5 v=53
61916 On ch=1 n=c6 v=53
61920 On ch=1 n=f#7 v=64
61924 On ch=1 n=d#6 v=0
61936 On ch=1 n=d#5 v=0
61944 On ch=1 n=f#5 v=0
61944 On ch=1 n=c7 v=0
61960 On ch=1 n=c6 v=0
61972 On ch=1 n=f#7 v=0
62064 On ch=1 n=g#4 v=48
62088 Par ch=1 c=64 v=0
62096 On ch=1 n=d6 v=35
62100 Par ch=1 c=64 v=127
62116 On ch=1 n=d5 v=52
62128 On ch=1 n=g#4 v=0
62128 On ch=1 n=c7 v=41
62128 On ch=1 n=f5 v=55
62164 On ch=1 n=f7 v=62
62164 On ch=1 n=c6 v=57
62168 On ch=1 n=d5 v=0
62172 On ch=1 n=d6 v=0
62192 On ch=1 n=f5 v=0
62200 On ch=1 n=c7 v=0
62204 On ch=1 n=c6 v=0
62232 On ch=1 n=f7 v=0
62308 On ch=1 n=g#4 v=45
62328 On ch=1 n=d6 v=34
62352 On ch=1 n=d5 v=47
62360 On ch=1 n=g#4 v=0
62372 On ch=1 n=c7 v=40
62388 On ch=1 n=f5 v=50
62392 On ch=1 n=d5 v=0
62400 On ch=1 n=c6 v=52
62404 On ch=1 n=f7 v=63
62408 On ch=1 n=d6 v=0
62440 On ch=1 n=f5 v=0
62444 On ch=1 n=c6 v=0
62444 On ch=1 n=c7 v=0
62456 On ch=1 n=f7 v=0
62560 On ch=1 n=g4 v=46
62572 On ch=1 n=d6 v=36
62580 Par ch=1 c=64 v=0
62604 On ch=1 n=d5 v=48
62608 On ch=1 n=g4 v=0
62608 Par ch=1 c=64 v=127
62612 On ch=1 n=b6 v=42
62616 On ch=1 n=f5 v=52
62628 On ch=1 n=d6 v=0
62644 On ch=1 n=f7 v=61
62644 On ch=1 n=b5 v=52
62676 On ch=1 n=f5 v=0
62680 On ch=1 n=b6 v=0
62680 On ch=1 n=d5 v=0
62684 On ch=1 n=b5 v=0
62712 On ch=1 n=f7 v=0
62792 On ch=1 n=g4 v=42
62824 On ch=1 n=d6 v=39
62832 On ch=1 n=d5 v=48
62840 On ch=1 n=g4 v=0
62868 On ch=1 n=b6 v=46
62868 On ch=1 n=f5 v=48
62876 On ch=1 n=d6 v=0
62876 On ch=1 n=b5 v=52
62892 On ch=1 n=f7 v=58
62900 On ch=1 n=d5 v=0
62908 On ch=1 n=f5 v=0
62924 On ch=1 n=b5 v=0
62924 On ch=1 n=b6 v=0
62944 On ch=1 n=f7 v=0
63052 On ch=1 n=g4 v=52
63060 Par ch=1 c=64 v=0
63072 On ch=1 n=c#6 v=42
63080 Par ch=1 c=64 v=127
63088 On ch=1 n=c#5 v=56
63104 On ch=1 n=g4 v=0
63104 On ch=1 n=e5 v=56
63108 On ch=1 n=b6 v=45
63140 On ch=1 n=b5 v=56
63148 On ch=1 n=e7 v=66
63156 On ch=1 n=c#6 v=0
63176 On ch=1 n=e5 v=0
63184 On ch=1 n=b5 v=0
63184 On ch=1 n=c#5 v=0
63188 On ch=1 n=b6 v=0
63212 On ch=1 n=e7 v=0
63284 On ch=1 n=g4 v=48
63304 On ch=1 n=c#6 v=42
63316 On ch=1 n=c#5 v=51
63328 On ch=1 n=g4 v=0
63336 On ch=1 n=e5 v=53
63348 On ch=1 n=b6 v=46
63364 On ch=1 n=b5 v=55
63380 On ch=1 n=e7 v=68
63388 On ch=1 n=e5 v=0
63388 On ch=1 n=c#5 v=0
63404 On ch=1 n=b5 v=0
63408 On ch=1 n=c#6 v=0
63412 On ch=1 n=b6 v=0
63440 On ch=1 n=e7 v=0
63532 On ch=1 n=f#4 v=56
63540 Par ch=1 c=64 v=0
63552 On ch=1 n=c#6 v=41
63560 Par ch=1 c=64 v=127
63564 On ch=1 n=c#5 v=56
63576 On ch=1 n=f#4 v=0
63580 On ch=1 n=e5 v=61
63584 On ch=1 n=a#6 v=45
63620 On ch=1 n=a#5 v=66
63624 On ch=1 n=e7 v=67
63628 On ch=1 n=c#6 v=0
63652 On ch=1 n=a#6 v=0
63652 On ch=1 n=e5 v=0
63656 On ch=1 n=c#5 v=0
63660 On ch=1 n=a#5 v=0
63696 On ch=1 n=e7 v=0
63768 On ch=1 n=f#4 v=57
63788 On ch=1 n=c#6 v=36
63800 On ch=1 n=c#5 v=59
63812 On ch=1 n=f#4 v=0
63816 On ch=1 n=a#6 v=43
63820 On ch=1 n=e5 v=59
63848 On ch=1 n=a#5 v=63
63856 On ch=1 n=e7 v=69
63864 On ch=1 n=c#6 v=0
63880 On ch=1 n=e5 v=0
63884 On ch=1 n=a#6 v=0
63888 On ch=1 n=c#5 v=0
63892 On ch=1 n=a#5 v=0
63904 On ch=1 n=e7 v=0
64000 On ch=1 n=f#4 v=52
64008 Par ch=1 c=64 v=0
64024 On ch=1 n=c6 v=39
64028 Par ch=1 c=64 v=127
64040 On ch=1 n=c5 v=57
64052 On ch=1 n=a#6 v=42
64056 On ch=1 n=f#4 v=0
64064 On ch=1 n=d#5 v=57
64068 On ch=1 n=c6 v=0
64088 On ch=1 n=a#5 v=59
64100 On ch=1 n=d#7 v=67
64108 On ch=1 n=a#6 v=0
64112 On ch=1 n=d#5 v=0
64124 On ch=1 n=a#5 v=0
64132 On ch=1 n=c5 v=0
64152 On ch=1 n=d#7 v=0
64228 On ch=1 n=f#4 v=59
64260 On ch=1 n=c5 v=63
64272 On ch=1 n=c6 v=40
64280 On ch=1 n=f#4 v=0
64284 On ch=1 n=d#5 v=64
64300 On ch=1 n=a#6 v=42
64312 On ch=1 n=c6 v=0
64316 On ch=1 n=a#5 v=72
64340 On ch=1 n=d#7 v=72
64348 On ch=1 n=c5 v=0
64352 On ch=1 n=a#6 v=0
64352 On ch=1 n=d#5 v=0
64360 On ch=1 n=a#5 v=0
64392 On ch=1 n=d#7 v=0
64480 On ch=1 n=f4 v=58
64480 Par ch=1 c=64 v=0
64508 Par ch=1 c=64 v=127
64512 On ch=1 n=c6 v=42
64520 On ch=1 n=c5 v=62
64532 On ch=1 n=a6 v=46
64532 On ch=1 n=d#5 v=66
64536 On ch=1 n=f4 v=0
64552 On ch=1 n=c6 v=0
64568 On ch=1 n=a5 v=66
64576 On ch=1 n=d#7 v=72
64584 On ch=1 n=a6 v=0
64612 On ch=1 n=d#5 v=0
64612 On ch=1 n=c5 v=0
64616 On ch=1 n=a5 v=0
64640 On ch=1 n=d#7 v=0
64708 On ch=1 n=f4 v=67
64744 On ch=1 n=c6 v=41
64752 On ch=1 n=c5 v=72
64764 On ch=1 n=f4 v=0
64768 On ch=1 n=d#5 v=72
64772 On ch=1 n=a6 v=47
64792 On ch=1 n=c6 v=0
64796 On ch=1 n=a5 v=75
64808 On ch=1 n=d#7 v=73
64812 On ch=1 n=a6 v=0
64836 On ch=1 n=d#5 v=0
64840 On ch=1 n=a5 v=0
64844 On ch=1 n=d#7 v=0
64864 On ch=1 n=c5 v=0
64964 On ch=1 n=a5 v=45
64976 On ch=1 n=f4 v=66
64996 On ch=1 n=d#6 v=53
65004 On ch=1 n=a5 v=0
65012 On ch=1 n=c5 v=67
65044 On ch=1 n=c7 v=77
65052 On ch=1 n=f5 v=72
65056 On ch=1 n=d#6 v=0
65056 On ch=1 n=f4 v=0
65072 On ch=1 n=c5 v=0
65088 On ch=1 n=c7 v=0
65100 On ch=1 n=f5 v=0
65200 Par ch=1 c=64 v=0
65204 On ch=1 n=g#5 v=43
65204 On ch=1 n=a#3 v=62
65236 On ch=1 n=d6 v=52
65240 Par ch=1 c=64 v=127
65244 On ch=1 n=g#5 v=0
65248 On ch=1 n=a#3 v=0
65248 On ch=1 n=f4 v=66
65260 On ch=1 n=g#4 v=69
65288 On ch=1 n=c7 v=83
65300 On ch=1 n=d5 v=73
65304 On ch=1 n=d6 v=0
65328 On ch=1 n=c7 v=0
65344 On ch=1 n=d5 v=0
65344 On ch=1 n=g#4 v=0
65356 On ch=1 n=f4 v=0
65440 On ch=1 n=g#5 v=50
65440 On ch=1 n=a#3 v=69
65476 On ch=1 n=f4 v=72
65484 On ch=1 n=a#3 v=0
65488 On ch=1 n=d6 v=58
65496 On ch=1 n=g#4 v=72
65516 On ch=1 n=g#5 v=0
65524 On ch=1 n=a#6 v=85
65532 On ch=1 n=d5 v=75
65540 On ch=1 n=d6 v=0
65572 On ch=1 n=a#6 v=0
65576 On ch=1 n=d5 v=0
65576 On ch=1 n=g#4 v=0
65584 On ch=1 n=f4 v=0
65660 On ch=1 n=a#3 v=74
65692 On ch=1 n=g#5 v=55
65700 On ch=1 n=f4 v=77
65704 On ch=1 n=a#3 v=0
65716 On ch=1 n=g#4 v=79
65724 On ch=1 n=d6 v=57
65756 On ch=1 n=g#6 v=87
65756 On ch=1 n=d5 v=82
65772 On ch=1 n=g#5 v=0
65780 On ch=1 n=d6 v=0
65796 On ch=1 n=g#4 v=0
65800 On ch=1 n=d5 v=0
65808 On ch=1 n=f4 v=0
65828 On ch=1 n=g#6 v=0
65904 On ch=1 n=a#3 v=75
65916 On ch=1 n=g#5 v=52
65948 On ch=1 n=f4 v=78
65952 On ch=1 n=a#3 v=0
65956 On ch=1 n=d6 v=58
65964 On ch=1 n=g#4 v=78
65996 On ch=1 n=g#5 v=0
66004 On ch=1 n=d5 v=82
66008 On ch=1 n=f6 v=85
66024 On ch=1 n=d6 v=0
66040 On ch=1 n=g#4 v=0
66048 On ch=1 n=f6 v=0
66048 On ch=1 n=d5 v=0
66056 On ch=1 n=f4 v=0
66140 Par ch=1 c=64 v=0
66160 Par ch=1 c=64 v=127
66164 On ch=1 n=d#3 v=80
66204 On ch=1 n=d#3 v=0
66208 On ch=1 n=g5 v=66
66244 On ch=1 n=d#6 v=94
66276 On ch=1 n=g5 v=0
66300 On ch=1 n=d#6 v=0
66392 On ch=1 n=d#4 v=56
66424 On ch=1 n=a#4 v=68
66436 On ch=1 n=c#6 v=46
66440 On ch=1 n=d#4 v=0
66468 On ch=1 n=a#6 v=64
66476 On ch=1 n=g5 v=51
66500 On ch=1 n=d#7 v=47
66532 On ch=1 n=a#6 v=0
66536 On ch=1 n=g5 v=0
66544 On ch=1 n=c#6 v=0
66576 On ch=1 n=d#7 v=0
66624 On ch=1 n=d#4 v=56
66668 On ch=1 n=d#4 v=0
66672 On ch=1 n=c#5 v=59
66676 On ch=1 n=c#6 v=45
66704 On ch=1 n=a6 v=63
66704 On ch=1 n=g5 v=54
66740 On ch=1 n=d#7 v=43
66760 On ch=1 n=g5 v=0
66764 On ch=1 n=c#5 v=0
66768 On ch=1 n=c#6 v=0
66772 On ch=1 n=a6 v=0
66828 On ch=1 n=d#7 v=0
66852 On ch=1 n=d#4 v=50
66908 On ch=1 n=d#4 v=0
66908 On ch=1 n=c#5 v=56
66916 On ch=1 n=c#6 v=42
66936 On ch=1 n=g5 v=59
66956 On ch=1 n=a#6 v=65
66980 On ch=1 n=c#5 v=0
66988 On ch=1 n=g5 v=0
66996 On ch=1 n=d#7 v=45
67028 On ch=1 n=c#6 v=0
67036 On ch=1 n=a#6 v=0
67064 On ch=1 n=d#7 v=0
67080 On ch=1 n=d#4 v=51
67136 On ch=1 n=c#6 v=42
67140 On ch=1 n=d#4 v=0
67148 On ch=1 n=c#5 v=57
67172 On ch=1 n=g5 v=51
67180 On ch=1 n=c7 v=65
67192 On ch=1 n=c#5 v=0
67216 On ch=1 n=d#7 v=45
67232 On ch=1 n=g5 v=0
67252 On ch=1 n=c7 v=0
67252 On ch=1 n=c#6 v=0
67296 On ch=1 n=d#7 v=0
67324 On ch=1 n=d#4 v=52
67372 On ch=1 n=c#6 v=40
67384 On ch=1 n=d#4 v=0
67392 On ch=1 n=c#5 v=61
67416 On ch=1 n=g5 v=53
67420 On ch=1 n=g6 v=65
67452 On ch=1 n=c#5 v=0
67452 On ch=1 n=d#7 v=39
67456 On ch=1 n=g5 v=0
67472 On ch=1 n=a#4 v=0
67476 On ch=1 n=g6 v=0
67488 On ch=1 n=c#6 v=0
67520 On ch=1 n=d#7 v=0
67572 Par ch=1 c=64 v=0
67572 On ch=1 n=d#4 v=53
67620 On ch=1 n=c6 v=41
67620 Par ch=1 c=64 v=127
67620 On ch=1 n=c5 v=53
67624 On ch=1 n=d#4 v=0
67632 On ch=1 n=g#6 v=63
67648 On ch=1 n=c6 v=0
67676 On ch=1 n=d#7 v=42
67676 On ch=1 n=g#5 v=57
67684 On ch=1 n=g#6 v=0
67720 On ch=1 n=d#7 v=0
67724 On ch=1 n=g#5 v=0
67724 On ch=1 n=c5 v=0
67812 On ch=1 n=d#4 v=45
67820 Par ch=1 c=67 v=126
67828 Par ch=1 c=64 v=0
67828 Par ch=1 c=67 v=127
67840 On ch=1 n=d6 v=32
67860 Par ch=1 c=64 v=127
67864 On ch=1 n=d#4 v=0
67872 On ch=1 n=g#6 v=39
67872 On ch=1 n=b4 v=48
67888 On ch=1 n=d6 v=0
67904 On ch=1 n=g#5 v=50
67928 On ch=1 n=f7 v=57
67940 On ch=1 n=g#6 v=0
67948 On ch=1 n=g#5 v=0
67952 On ch=1 n=b4 v=0
67980 On ch=1 n=f7 v=0
68056 On ch=1 n=d#4 v=45
68096 On ch=1 n=d6 v=34
68100 On ch=1 n=d#4 v=0
68104 On ch=1 n=b4 v=47
68124 On ch=1 n=g#6 v=39
68144 On ch=1 n=g#5 v=48
68152 On ch=1 n=d6 v=0
68172 On ch=1 n=e7 v=57
68184 On ch=1 n=g#5 v=0
68188 On ch=1 n=b4 v=0
68196 On ch=1 n=g#6 v=0
68240 On ch=1 n=e7 v=0
68292 On ch=1 n=d#4 v=43
68332 On ch=1 n=d6 v=36
68336 On ch=1 n=d#4 v=0
68336 On ch=1 n=b4 v=47
68360 On ch=1 n=g#6 v=40
68380 On ch=1 n=d6 v=0
68392 On ch=1 n=g#5 v=48
68408 On ch=1 n=f7 v=57
68416 On ch=1 n=g#6 v=0
68436 On ch=1 n=g#5 v=0
68436 On ch=1 n=b4 v=0
68460 On ch=1 n=f7 v=0
68532 Par ch=1 c=64 v=0
68552 On ch=1 n=d6 v=36
68564 On ch=1 n=d#4 v=43
68576 Par ch=1 c=64 v=127
68596 On ch=1 n=g#6 v=43
68596 On ch=1 n=a#4 v=43
68604 On ch=1 n=d6 v=0
68608 On ch=1 n=d#4 v=0
68636 On ch=1 n=g#6 v=0
68644 On ch=1 n=g#5 v=48
68656 On ch=1 n=g7 v=56
68664 On ch=1 n=a#4 v=0
68688 On ch=1 n=g#5 v=0
68700 On ch=1 n=g7 v=0
68788 On ch=1 n=d#4 v=46
68812 On ch=1 n=d6 v=30
68832 On ch=1 n=a#4 v=48
68840 On ch=1 n=d#4 v=0
68856 On ch=1 n=g#6 v=37
68868 On ch=1 n=d6 v=0
68880 On ch=1 n=g#5 v=47
68900 On ch=1 n=f7 v=55
68908 On ch=1 n=a#4 v=0
68912 On ch=1 n=g#6 v=0
68924 On ch=1 n=g#5 v=0
68968 On ch=1 n=f7 v=0
69020 Par ch=1 c=64 v=0
69052 On ch=1 n=g6 v=36
69064 Par ch=1 c=64 v=127
69072 On ch=1 n=d#7 v=39
69096 On ch=1 n=g6 v=0
69128 On ch=1 n=d#7 v=0
69132 On ch=1 n=a#7 v=51
69132 On ch=1 n=d#3 v=63
69156 On ch=1 n=a#7 v=0
69188 On ch=1 n=d#3 v=0
69260 Par ch=1 c=67 v=0
69296 On ch=1 n=d#4 v=57
69300 On ch=1 n=c#6 v=47
69332 On ch=1 n=a#6 v=64
69332 On ch=1 n=a#4 v=62
69348 On ch=1 n=d#4 v=0
69364 On ch=1 n=d#7 v=50
69384 On ch=1 n=g5 v=47
69404 On ch=1 n=a#6 v=0
69404 On ch=1 n=c#6 v=0
69424 On ch=1 n=d#7 v=0
69440 On ch=1 n=g5 v=0
69532 On ch=1 n=d#4 v=53
69540 On ch=1 n=c#6 v=48
69564 On ch=1 n=a6 v=66
69584 On ch=1 n=d#4 v=0
69592 On ch=1 n=c#5 v=57
69604 On ch=1 n=d#7 v=50
69620 On ch=1 n=g5 v=48
69628 On ch=1 n=c#6 v=0
69636 On ch=1 n=c#5 v=0
69640 On ch=1 n=a6 v=0
69668 On ch=1 n=g5 v=0
69688 On ch=1 n=d#7 v=0
69748 On ch=1 n=d#4 v=52
69784 On ch=1 n=c#6 v=47
69792 On ch=1 n=d#4 v=0
69808 On ch=1 n=a#6 v=67
69812 On ch=1 n=c#5 v=56
69832 On ch=1 n=g5 v=46
69840 On ch=1 n=d#7 v=43
69852 On ch=1 n=c#5 v=0
69864 On ch=1 n=c#6 v=0
69876 On ch=1 n=a#6 v=0
69884 On ch=1 n=g5 v=0
69924 On ch=1 n=d#7 v=0
69980 On ch=1 n=d#4 v=56
70024 On ch=1 n=d#4 v=0
70024 On ch=1 n=c#6 v=46
70044 On ch=1 n=c#5 v=61
70052 On ch=1 n=c7 v=64
70064 On ch=1 n=g5 v=49
70088 On ch=1 n=d#7 v=47
70096 On ch=1 n=c#5 v=0
70108 On ch=1 n=g5 v=0
70120 On ch=1 n=c#6 v=0
70124 On ch=1 n=c7 v=0
70168 On ch=1 n=d#7 v=0
70204 On ch=1 n=d#4 v=57
70260 On ch=1 n=d#4 v=0
70268 On ch=1 n=c#6 v=41
70268 On ch=1 n=c#5 v=59
70284 On ch=1 n=g5 v=47
70296 On ch=1 n=g6 v=66
70312 On ch=1 n=c#5 v=0
70324 On ch=1 n=d#7 v=46
70332 On ch=1 n=g5 v=0
70332 On ch=1 n=a#4 v=0
70344 On ch=1 n=g6 v=0
70380 On ch=1 n=c#6 v=0
70400 On ch=1 n=d#7 v=0
70452 On ch=1 n=d#4 v=55
70480 Par ch=1 c=64 v=0
70488 On ch=1 n=c6 v=43
70508 On ch=1 n=d#4 v=0
70508 On ch=1 n=c5 v=58
70516 Par ch=1 c=64 v=127
70520 On ch=1 n=g#6 v=65
70528 On ch=1 n=c6 v=0
70548 On ch=1 n=g#5 v=59
70564 On ch=1 n=d#7 v=46
70572 On ch=1 n=g#6 v=0
70588 On ch=1 n=g#5 v=0
70592 On ch=1 n=c5 v=0
70600 On ch=1 n=d#7 v=0
70680 Par ch=1 c=67 v=127
70684 Par ch=1 c=64 v=0
70704 On ch=1 n=d#4 v=50
70724 Par ch=1 c=64 v=127
70748 On ch=1 n=d#4 v=0
70748 On ch=1 n=d6 v=34
70756 On ch=1 n=b4 v=50
70772 On ch=1 n=g#6 v=39
70784 On ch=1 n=d6 v=0
70788 On ch=1 n=g#5 v=51
70812 On ch=1 n=f7 v=57
70828 On ch=1 n=g#6 v=0
70832 On ch=1 n=g#5 v=0
70836 On ch=1 n=b4 v=0
70860 On ch=1 n=f7 v=0
70936 On ch=1 n=d#4 v=45
70980 On ch=1 n=d#4 v=0
70980 On ch=1 n=b4 v=46
70996 On ch=1 n=d6 v=34
71016 On ch=1 n=g#6 v=40
71016 On ch=1 n=g#5 v=47
71048 On ch=1 n=d6 v=0
71048 On ch=1 n=e7 v=58
71060 On ch=1 n=b4 v=0
71068 On ch=1 n=g#5 v=0
71072 On ch=1 n=g#6 v=0
71108 On ch=1 n=e7 v=0
71172 On ch=1 n=d#4 v=46
71212 On ch=1 n=d#4 v=0
71216 On ch=1 n=d6 v=35
71220 On ch=1 n=b4 v=47
71252 On ch=1 n=g#6 v=42
71252 On ch=1 n=g#5 v=48
71268 On ch=1 n=d6 v=0
71292 On ch=1 n=g#5 v=0
71292 On ch=1 n=b4 v=0
71300 On ch=1 n=f7 v=57
71312 On ch=1 n=g#6 v=0
71348 On ch=1 n=f7 v=0
71420 On ch=1 n=d#4 v=43
71444 On ch=1 n=d6 v=34
71452 Par ch=1 c=64 v=0
71464 On ch=1 n=a#4 v=47
71476 On ch=1 n=d#4 v=0
71484 On ch=1 n=d6 v=0
71484 On ch=1 n=g#6 v=41
71488 Par ch=1 c=64 v=127
71512 On ch=1 n=g#6 v=0
71524 On ch=1 n=g#5 v=48
71536 On ch=1 n=g7 v=59
71552 On ch=1 n=g#5 v=0
71552 On ch=1 n=a#4 v=0
71580 On ch=1 n=g7 v=0
71684 On ch=1 n=d#4 v=42
71712 On ch=1 n=d6 v=37
71724 On ch=1 n=a#4 v=45
71732 On ch=1 n=d#4 v=0
71732 On ch=1 n=g#6 v=40
71744 On ch=1 n=d6 v=0
71768 On ch=1 n=f7 v=57
71772 On ch=1 n=g#6 v=0
71772 On ch=1 n=g#5 v=46
71804 On ch=1 n=f7 v=0
71812 On ch=1 n=g#5 v=0
71816 On ch=1 n=a#4 v=0
71920 On ch=1 n=d#4 v=45
71924 Par ch=1 c=64 v=0
71944 On ch=1 n=g6 v=45
71956 Par ch=1 c=64 v=127
71956 On ch=1 n=a#4 v=45
71968 On ch=1 n=d#4 v=0
71972 On ch=1 n=d#7 v=47
71976 On ch=1 n=g6 v=0
72004 On ch=1 n=g5 v=46
72016 On ch=1 n=d#7 v=0
72024 On ch=1 n=a#4 v=0
72028 On ch=1 n=a#7 v=58
72044 On ch=1 n=a#7 v=0
72044 On ch=1 n=g5 v=0
72100 Par ch=1 c=67 v=0
72172 Par ch=1 c=64 v=0
72172 On ch=1 n=g#4 v=69
72180 On ch=1 n=g#6 v=56
72196 Par ch=1 c=64 v=127
72212 On ch=1 n=d#7 v=82
72220 On ch=1 n=d#5 v=74
72228 On ch=1 n=g#6 v=0
72228 On ch=1 n=g#4 v=0
72248 On ch=1 n=b7 v=91
72256 On ch=1 n=b5 v=74
72272 On ch=1 n=d#7 v=0
72292 On ch=1 n=d#5 v=0
72304 On ch=1 n=b7 v=0
72308 On ch=1 n=b5 v=0
72396 Par ch=1 c=64 v=0
72416 On ch=1 n=g6 v=68
72416 On ch=1 n=g4 v=68
72424 Par ch=1 c=64 v=127
72440 On ch=1 n=d7 v=69
72456 On ch=1 n=g6 v=0
72456 On ch=1 n=d5 v=71
72460 On ch=1 n=g4 v=0
72468 On ch=1 n=f5 v=74
72488 On ch=1 n=b7 v=95
72496 On ch=1 n=d7 v=0
72496 On ch=1 n=b5 v=84
72520 On ch=1 n=d5 v=0
72524 On ch=1 n=f5 v=0
72536 On ch=1 n=b7 v=0
72552 On ch=1 n=b5 v=0
72616 Par ch=1 c=64 v=0
72636 On ch=1 n=g6 v=57
72648 Par ch=1 c=64 v=127
72660 On ch=1 n=c5 v=73
72664 On ch=1 n=e7 v=64
72676 On ch=1 n=g6 v=0
72684 On ch=1 n=e5 v=80
72708 On ch=1 n=e7 v=0
72716 On ch=1 n=a#5 v=83
72724 On ch=1 n=c8 v=90
72756 On ch=1 n=e5 v=0
72756 On ch=1 n=c5 v=0
72764 On ch=1 n=a#5 v=0
72772 On ch=1 n=c8 v=0
72864 Par ch=1 c=64 v=0
72876 On ch=1 n=f4 v=69
72888 Par ch=1 c=64 v=127
72896 On ch=1 n=a6 v=58
72916 On ch=1 n=c5 v=73
72920 On ch=1 n=d#7 v=77
72932 On ch=1 n=a6 v=0
72932 On ch=1 n=f4 v=0
72940 On ch=1 n=d#5 v=73
72956 On ch=1 n=d#7 v=0
72964 On ch=1 n=c8 v=99
72972 On ch=1 n=a5 v=83
72984 On ch=1 n=c5 v=0
72988 On ch=1 n=d#5 v=0
73000 On ch=1 n=a5 v=0
73020 On ch=1 n=c8 v=0
73088 Par ch=1 c=64 v=0
73112 On ch=1 n=a#4 v=75
73132 Par ch=1 c=64 v=127
73148 On ch=1 n=a#6 v=51
73152 On ch=1 n=f5 v=75
73168 On ch=1 n=a#4 v=0
73168 On ch=1 n=g#5 v=75
73172 On ch=1 n=d7 v=84
73200 On ch=1 n=d6 v=80
73204 On ch=1 n=a#6 v=0
73204 On ch=1 n=a#7 v=94
73216 On ch=1 n=d7 v=0
73216 On ch=1 n=f5 v=0
73232 On ch=1 n=g#5 v=0
73248 On ch=1 n=a#7 v=0
73260 On ch=1 n=d6 v=0
73336 Par ch=1 c=64 v=0
73364 Par ch=1 c=64 v=127
73372 On ch=1 n=d#5 v=69
73380 On ch=1 n=g6 v=66
73392 On ch=1 n=g5 v=77
73404 On ch=1 n=d#7 v=75
73424 On ch=1 n=d#6 v=80
73432 On ch=1 n=g7 v=93
73436 On ch=1 n=g6 v=0
73448 On ch=1 n=d#7 v=0
73452 On ch=1 n=g5 v=0
73456 On ch=1 n=d#5 v=0
73468 On ch=1 n=d#6 v=0
73484 On ch=1 n=g7 v=0
73580 On ch=1 n=g#4 v=48
73584 Par ch=1 c=64 v=0
73620 Par ch=1 c=64 v=127
73624 On ch=1 n=d#5 v=51
73628 On ch=1 n=g#6 v=43
73632 On ch=1 n=g#4 v=0
73652 On ch=1 n=d#7 v=50
73660 On ch=1 n=b5 v=53
73676 On ch=1 n=g#6 v=0
73688 On ch=1 n=b7 v=57
73704 On ch=1 n=d#7 v=0
73708 On ch=1 n=b5 v=0
73712 On ch=1 n=d#5 v=0
73736 On ch=1 n=b7 v=0
73832 Par ch=1 c=64 v=0
73832 On ch=1 n=g4 v=47
73848 On ch=1 n=g6 v=41
73856 Par ch=1 c=64 v=127
73864 On ch=1 n=d5 v=50
73872 On ch=1 n=g4 v=0
73876 On ch=1 n=d7 v=46
73892 On ch=1 n=g6 v=0
73896 On ch=1 n=f5 v=52
73916 On ch=1 n=b5 v=55
73920 On ch=1 n=b7 v=61
73924 On ch=1 n=d7 v=0
73936 On ch=1 n=d5 v=0
73944 On ch=1 n=f5 v=0
73968 On ch=1 n=b5 v=0
73980 On ch=1 n=b7 v=0
74048 Par ch=1 c=64 v=0
74084 Par ch=1 c=64 v=127
74088 On ch=1 n=c5 v=48
74100 On ch=1 n=g6 v=41
74116 On ch=1 n=e5 v=51
74120 On ch=1 n=e7 v=47
74128 On ch=1 n=g6 v=0
74136 On ch=1 n=a#5 v=53
74156 On ch=1 n=e7 v=0
74168 On ch=1 n=e5 v=0
74172 On ch=1 n=a#5 v=0
74176 On ch=1 n=c5 v=0
74180 On ch=1 n=c8 v=59
74184 On ch=1 n=c8 v=0
74300 Par ch=1 c=64 v=0
74312 On ch=1 n=f4 v=47
74340 On ch=1 n=c5 v=48
74344 On ch=1 n=a6 v=45
74344 Par ch=1 c=64 v=127
74352 On ch=1 n=f4 v=0
74360 On ch=1 n=d#5 v=51
74368 On ch=1 n=d#7 v=48
74376 On ch=1 n=a6 v=0
74388 On ch=1 n=a5 v=51
74404 On ch=1 n=d#7 v=0
74404 On ch=1 n=c5 v=0
74412 On ch=1 n=d#5 v=0
74416 On ch=1 n=c8 v=57
74424 On ch=1 n=a5 v=0
74440 On ch=1 n=c8 v=0
74536 Par ch=1 c=64 v=0
74556 On ch=1 n=a#4 v=40
74572 Par ch=1 c=64 v=127
74596 On ch=1 n=a#6 v=40
74596 On ch=1 n=f5 v=45
74612 On ch=1 n=a#4 v=0
74620 On ch=1 n=g#5 v=45
74636 On ch=1 n=d7 v=46
74648 On ch=1 n=a#7 v=57
74652 On ch=1 n=d6 v=45
74668 On ch=1 n=f5 v=0
74680 On ch=1 n=d7 v=0
74680 On ch=1 n=a#6 v=0
74696 On ch=1 n=g#5 v=0
74700 On ch=1 n=a#7 v=0
74712 On ch=1 n=d6 v=0
74768 Par ch=1 c=64 v=0
74812 Par ch=1 c=64 v=127
74828 On ch=1 n=d#5 v=45
74872 On ch=1 n=a#5 v=48
74892 On ch=1 n=d#7 v=51
74892 On ch=1 n=g7 v=57
74896 On ch=1 n=g6 v=51
74896 On ch=1 n=d#6 v=51
74920 On ch=1 n=d#5 v=0
74928 On ch=1 n=a#5 v=0
74944 On ch=1 n=d#6 v=0
75092 On ch=1 n=a#4 v=52
75112 On ch=1 n=g5 v=61
75140 On ch=1 n=d#6 v=50
75156 On ch=1 n=a#4 v=0
75168 On ch=1 n=g5 v=0
75192 On ch=1 n=d#6 v=0
75316 On ch=1 n=a4 v=52
75328 Par ch=1 c=64 v=0
75352 On ch=1 n=f#5 v=63
75364 Par ch=1 c=64 v=127
75376 On ch=1 n=a4 v=0
75388 On ch=1 n=d#6 v=55
75404 On ch=1 n=f#5 v=0
75428 On ch=1 n=d#6 v=0
75540 Par ch=1 c=64 v=0
75572 On ch=1 n=a#4 v=55
75580 Par ch=1 c=64 v=127
75600 On ch=1 n=g5 v=64
75628 On ch=1 n=a#4 v=0
75628 On ch=1 n=d#6 v=57
75648 On ch=1 n=g7 v=0
75652 On ch=1 n=g5 v=0
75652 On ch=1 n=d#7 v=0
75664 On ch=1 n=g6 v=0
75668 On ch=1 n=d#6 v=0
75764 Par ch=1 c=64 v=0
75792 On ch=1 n=b4 v=52
75796 Par ch=1 c=64 v=127
75832 On ch=1 n=g#5 v=64
75852 On ch=1 n=d#6 v=51
75856 On ch=1 n=b4 v=0
75856 On ch=1 n=g7 v=64
75860 On ch=1 n=g#6 v=41
75868 On ch=1 n=g#5 v=0
75900 On ch=1 n=d#6 v=0
75996 Par ch=1 c=64 v=0
76036 On ch=1 n=a#4 v=53
76040 Par ch=1 c=64 v=127
76072 On ch=1 n=g#5 v=62
76096 On ch=1 n=a#4 v=0
76096 On ch=1 n=d6 v=51
76116 On ch=1 n=g#5 v=0
76136 On ch=1 n=d6 v=0
76208 On ch=1 n=f7 v=57
76236 Par ch=1 c=64 v=0
76240 On ch=1 n=g#6 v=0
76260 On ch=1 n=g7 v=0
76280 Par ch=1 c=64 v=127
76280 On ch=1 n=d#5 v=55
76312 On ch=1 n=g5 v=63
76320 On ch=1 n=d#7 v=58
76332 On ch=1 n=g6 v=43
76340 On ch=1 n=d#6 v=56
76348 On ch=1 n=f7 v=0
76376 On ch=1 n=d#5 v=0
76380 On ch=1 n=g5 v=0
76392 On ch=1 n=d#6 v=0
76532 On ch=1 n=a#3 v=55
76552 On ch=1 n=g4 v=61
76588 On ch=1 n=d#5 v=56
76596 On ch=1 n=a#3 v=0
76612 On ch=1 n=g4 v=0
76628 On ch=1 n=d#5 v=0
76688 On ch=1 n=g6 v=0
76716 On ch=1 n=d#7 v=0
76756 Par ch=1 c=64 v=0
76768 On ch=1 n=a3 v=47
76788 On ch=1 n=f#4 v=59
76796 Par ch=1 c=64 v=127
76820 On ch=1 n=d#5 v=50
76828 On ch=1 n=a3 v=0
76840 On ch=1 n=f#4 v=0
76860 On ch=1 n=d#5 v=0
76988 Par ch=1 c=64 v=0
77008 On ch=1 n=a#3 v=47
77020 Par ch=1 c=64 v=127
77036 On ch=1 n=g4 v=53
77060 On ch=1 n=d#5 v=48
77064 On ch=1 n=a#3 v=0
77092 On ch=1 n=g4 v=0
77108 On ch=1 n=d#5 v=0
77208 Par ch=1 c=64 v=0
77228 On ch=1 n=b3 v=47
77252 Par ch=1 c=64 v=127
77268 On ch=1 n=g#4 v=55
77288 On ch=1 n=b3 v=0
77288 On ch=1 n=d#5 v=48
77296 On ch=1 n=g6 v=61
77300 On ch=1 n=g#5 v=40
77304 On ch=1 n=g#4 v=0
77336 On ch=1 n=d#5 v=0
77436 Par ch=1 c=64 v=0
77484 Par ch=1 c=64 v=127
77484 On ch=1 n=a#3 v=46
77508 On ch=1 n=g#4 v=56
77536 On ch=1 n=d5 v=48
77540 On ch=1 n=a#3 v=0
77556 On ch=1 n=g#4 v=0
77576 On ch=1 n=d5 v=0
77596 On ch=1 n=f6 v=59
77620 On ch=1 n=g6 v=0
77668 Par ch=1 c=64 v=0
77672 On ch=1 n=d#6 v=61
77684 On ch=1 n=f6 v=0
77700 On ch=1 n=g#5 v=0
77712 On ch=1 n=d#6 v=0
77736 Par ch=1 c=64 v=127
77768 On ch=1 n=g5 v=50
77768 On ch=1 n=d#6 v=82
77772 On ch=1 n=d#3 v=82
77820 On ch=1 n=d#3 v=0
77912 On ch=1 n=g5 v=0
77924 On ch=1 n=g3 v=58
77936 On ch=1 n=d#6 v=0
77964 On ch=1 n=d#4 v=62
77972 On ch=1 n=g3 v=0
78004 On ch=1 n=d#5 v=59
78004 On ch=1 n=a#4 v=64
78020 On ch=1 n=a#5 v=64
78032 On ch=1 n=d#5 v=0
78032 On ch=1 n=d#4 v=0
78060 On ch=1 n=a#5 v=0
78060 On ch=1 n=a#4 v=0
78060 On ch=1 n=g6 v=74
78108 On ch=1 n=g6 v=0
78164 On ch=1 n=a#3 v=62
78200 On ch=1 n=g4 v=66
78204 On ch=1 n=g5 v=56
78208 On ch=1 n=a#3 v=0
78244 On ch=1 n=g5 v=0
78244 On ch=1 n=d#6 v=63
78252 On ch=1 n=d#5 v=69
78256 On ch=1 n=g4 v=0
78280 On ch=1 n=d#6 v=0
78284 On ch=1 n=a#6 v=83
78304 On ch=1 n=d#5 v=0
78336 On ch=1 n=a#6 v=0
78404 On ch=1 n=d#4 v=69
78440 On ch=1 n=a#5 v=59
78444 On ch=1 n=a#4 v=73
78456 On ch=1 n=d#4 v=0
78464 On ch=1 n=g6 v=63
78468 On ch=1 n=a#5 v=0
78484 On ch=1 n=g5 v=75
78496 On ch=1 n=a#4 v=0
78504 On ch=1 n=g6 v=0
78516 On ch=1 n=d#7 v=82
78544 On ch=1 n=g5 v=0
78568 On ch=1 n=d#7 v=0
78640 On ch=1 n=g4 v=68
78676 On ch=1 n=d#5 v=68
78680 On ch=1 n=d#6 v=62
78684 On ch=1 n=g4 v=0
78700 On ch=1 n=a#6 v=66
78712 On ch=1 n=d#6 v=0
78728 On ch=1 n=a#5 v=74
78732 On ch=1 n=a#6 v=0
78732 On ch=1 n=d#5 v=0
78740 On ch=1 n=g7 v=84
78780 On ch=1 n=a#5 v=0
78792 On ch=1 n=g7 v=0
78884 On ch=1 n=a#4 v=80
78904 On ch=1 n=g6 v=67
78924 On ch=1 n=a#4 v=0
78924 On ch=1 n=g5 v=80
78932 On ch=1 n=g6 v=0
78936 On ch=1 n=d#7 v=72
78952 On ch=1 n=g5 v=0
78960 On ch=1 n=d#6 v=83
78976 On ch=1 n=d#7 v=0
78980 On ch=1 n=a#7 v=89
79012 On ch=1 n=d#6 v=0
79032 On ch=1 n=a#7 v=0
79132 On ch=1 n=d#5 v=80
79156 On ch=1 n=a#6 v=74
79168 On ch=1 n=a#5 v=85
79172 On ch=1 n=g7 v=78
79180 On ch=1 n=d#5 v=0
79184 On ch=1 n=a#6 v=0
79204 On ch=1 n=g6 v=87
79224 On ch=1 n=d#8 v=96
79448 On ch=1 n=a#5 v=0
79464 On ch=1 n=g7 v=0
79476 On ch=1 n=g6 v=0
79492 On ch=1 n=d#8 v=0
79728 Par ch=1 c=64 v=0
79860 On ch=1 n=a#4 v=72
79872 Par ch=1 c=64 v=127
79904 On ch=1 n=d5 v=51
79920 On ch=1 n=f5 v=59
79920 On ch=1 n=g#5 v=64
79924 On ch=1 n=a#5 v=78
79948 On ch=1 n=d5 v=0
79964 On ch=1 n=g#5 v=0
79968 On ch=1 n=a#4 v=0
79972 On ch=1 n=f5 v=0
79984 On ch=1 n=a#5 v=0
80176 On ch=1 n=a#6 v=91
80180 On ch=1 n=a#3 v=87
80440 On ch=1 n=a#6 v=0
80444 On ch=1 n=a#3 v=0
81036 Par ch=1 c=64 v=0
81068 Par ch=1 c=64 v=127
81084 On ch=1 n=g5 v=69
81084 On ch=1 n=d#4 v=77
81128 On ch=1 n=g5 v=0
81136 On ch=1 n=d#4 v=0
81140 On ch=1 n=a#4 v=68
81192 On ch=1 n=g5 v=52
81192 On ch=1 n=d#6 v=77
81220 On ch=1 n=a#4 v=0
81224 On ch=1 n=d#6 v=0
81228 On ch=1 n=g5 v=0
81532 On ch=1 n=d#7 v=94
81536 On ch=1 n=d#3 v=90
83312 On ch=1 n=d#7 v=0
83344 On ch=1 n=d#3 v=0
83948 Par ch=1 c=64 v=0
83948 Meta TrkEnd
TrkEnd
MTrk
0 SeqSpec 43 00 01 00
0 Meta TrkName "In Eb Major"
0 Meta 0x21 00
0 Meta TrkEnd
TrkEnd
MTrk
0 SeqSpec 43 00 01 00
0 Meta TrkName "Op. 10, No. 11"
0 Meta 0x21 00
0 Meta TrkEnd
TrkEnd
MTrk
0 SeqSpec 43 00 01 00
0 Meta TrkName "Chopin, Frederic"
0 Meta 0x21 00
0 Meta TrkEnd
TrkEnd
MTrk
0 SeqSpec 43 00 01 00
0 Meta TrkName "Sequenced by Anousone Kitisa"
0 Meta 0x21 00
0 Meta TrkEnd
TrkEnd
