MFile 1 7 480
MTrk
0 TimeSig 2/4 24 8
0 KeySig -6 major
0 Tempo 517241
8640 Tempo 600000
8748 Tempo 603015
8860 Tempo 574163
8980 Tempo 576923
9080 Tempo 579710
9180 Tempo 582524
9260 Tempo 659341
9420 Tempo 666667
9580 Tempo 674157
9600 Tempo 545455
9660 Tempo 542986
9720 Tempo 540541
9780 Tempo 538117
9820 Tempo 535714
9880 Tempo 533333
9940 Tempo 530973
10000 Tempo 528634
10040 Tempo 526316
10100 Tempo 524017
10160 Tempo 521739
10220 Tempo 519481
10260 Tempo 517241
46040 Tempo 533333
46080 Tempo 535714
46120 Tempo 538117
46160 Tempo 540541
46200 Tempo 542986
46240 Tempo 545455
46280 Tempo 547945
46320 Tempo 550459
46360 Tempo 552995
46400 Tempo 555556
46440 Tempo 558140
46480 Tempo 560748
46520 Tempo 563380
46560 Tempo 566038
46600 Tempo 568720
46640 Tempo 571429
46680 Tempo 574163
46720 Tempo 576923
46760 Tempo 579710
46800 Tempo 582524
46840 Tempo 585366
46880 Tempo 588235
46920 Tempo 591133
46960 Tempo 594059
47000 Tempo 597015
47028 Tempo 600000
47040 Tempo 677966
47068 Tempo 681818
47100 Tempo 685714
47128 Tempo 689655
47160 Tempo 693642
47188 Tempo 697674
47208 Tempo 701754
47240 Tempo 705882
47268 Tempo 710059
47300 Tempo 714286
47328 Tempo 718563
47360 Tempo 722892
47380 Tempo 727273
47408 Tempo 731707
47440 Tempo 736196
47468 Tempo 740741
47500 Tempo 745342
47508 Tempo 645161
47548 Tempo 652174
47580 Tempo 659341
47612 Tempo 666667
47652 Tempo 674157
47684 Tempo 681818
47716 Tempo 689655
47756 Tempo 697674
47776 Tempo 789474
47816 Tempo 800000
47856 Tempo 810811
47896 Tempo 821918
47936 Tempo 833333
47968 Tempo 845070
47972 Tempo 550459
48076 Tempo 545455
48180 Tempo 540541
48284 Tempo 535714
48388 Tempo 530973
48492 Tempo 526316
48588 Tempo 521739
48612 Tempo 517241
63272 Tempo 560748
64400 Tempo 535714
65072 Tempo 517241
65656 Tempo 540541
66344 Tempo 545455
66704 Tempo 571429
66872 Tempo 674157
66968 Tempo 594059
67008 Tempo 697674
67184 Tempo 600000
67448 Tempo 560748
67496 Tempo 555556
67536 Tempo 550459
67576 Tempo 545455
67616 Tempo 540541
67656 Tempo 535714
67696 Tempo 530973
67736 Tempo 526316
67776 Tempo 521739
67816 Tempo 517241
78720 Tempo 576923
78960 Tempo 526316
82568 Tempo 535714
87360 Tempo 545455
87360 Meta TrkEnd
TrkEnd
MTrk
0 SeqSpec 43 00 01 00
0 SysEx f0 41 10 42 12 40 00 7f 00 41 f7
0 SysEx f0 41 10 42 12 40 01 30 03 0c f7
0 Meta TrkEnd
TrkEnd
MTrk
0 SeqSpec 43 00 01 00
0 Meta TrkName "Etude No. 5"
0 Meta 0x21 00
480 Par ch=1 c=0 v=0
480 Par ch=1 c=0 v=0
480 Par ch=1 c=93 v=20
480 Par ch=1 c=91 v=80
488 PrCh ch=1 p=0
492 Par ch=1 c=7 v=127
920 Par ch=1 c=64 v=127
1920 On ch=1 n=f#5 v=57
1920 On ch=1 n=a#4 v=67
1920 On ch=1 n=f#4 v=55
1920 On ch=1 n=c#5 v=69
1920 On ch=1 n=f#7 v=78
1976 On ch=1 n=f#4 v=0
1976 On ch=1 n=a#4 v=0
1984 On ch=1 n=c#5 v=0
1992 On ch=1 n=f#7 v=0
1992 On ch=1 n=f#5 v=0
2000 On ch=1 n=a#7 v=64
2072 On ch=1 n=a#7 v=0
2080 On ch=1 n=c#7 v=54
2148 Par ch=1 c=64 v=0
2152 On ch=1 n=c#7 v=0
2156 On ch=1 n=d#5 v=73
2156 On ch=1 n=f#5 v=57
2156 On ch=1 n=b4 v=76
2156 On ch=1 n=f#4 v=42
2160 On ch=1 n=f#7 v=78
2208 On ch=1 n=f#4 v=0
2208 On ch=1 n=b4 v=0
2216 On ch=1 n=f#5 v=0
2220 On ch=1 n=d#5 v=0
2232 On ch=1 n=f#7 v=0
2240 On ch=1 n=d#7 v=76
2312 On ch=1 n=d#7 v=0
2320 On ch=1 n=f#7 v=72
2392 On ch=1 n=f#7 v=0
2392 On ch=1 n=f#5 v=66
2396 On ch=1 n=f#4 v=57
2396 On ch=1 n=c#5 v=76
2396 On ch=1 n=a#4 v=69
2400 On ch=1 n=c#7 v=63
2436 On ch=1 n=f#4 v=0
2440 On ch=1 n=f#5 v=0
2444 On ch=1 n=c#5 v=0
2448 On ch=1 n=a#4 v=0
2472 On ch=1 n=c#7 v=0
2480 On ch=1 n=f#7 v=69
2552 On ch=1 n=f#7 v=0
2560 On ch=1 n=a#6 v=58
2632 On ch=1 n=a#6 v=0
2640 On ch=1 n=c#7 v=57
2712 On ch=1 n=c#7 v=0
2720 On ch=1 n=f#6 v=57
2792 On ch=1 n=f#6 v=0
2800 On ch=1 n=a#6 v=62
2872 On ch=1 n=a#6 v=0
2872 On ch=1 n=f#3 v=77
2872 On ch=1 n=f#4 v=67
2880 On ch=1 n=f#6 v=50
2912 On ch=1 n=f#3 v=0
2920 On ch=1 n=f#4 v=0
2952 On ch=1 n=f#6 v=0
2960 On ch=1 n=a#6 v=37
3032 On ch=1 n=a#6 v=0
3040 On ch=1 n=c#6 v=43
3112 On ch=1 n=c#6 v=0
3116 On ch=1 n=f#5 v=50
3116 On ch=1 n=d#5 v=58
3120 On ch=1 n=f#6 v=54
3124 On ch=1 n=b4 v=37
3160 On ch=1 n=f#5 v=0
3164 On ch=1 n=b4 v=0
3168 On ch=1 n=d#5 v=0
3192 On ch=1 n=f#6 v=0
3200 On ch=1 n=d#6 v=52
3272 On ch=1 n=d#6 v=0
3280 On ch=1 n=f#6 v=53
3352 On ch=1 n=f#6 v=0
3356 On ch=1 n=f#5 v=48
3356 On ch=1 n=a#4 v=54
3356 On ch=1 n=c#5 v=52
3360 On ch=1 n=c#6 v=39
3388 On ch=1 n=c#5 v=0
3396 On ch=1 n=a#4 v=0
3396 On ch=1 n=f#5 v=0
3432 On ch=1 n=c#6 v=0
3440 On ch=1 n=f#6 v=51
3512 On ch=1 n=f#6 v=0
3520 On ch=1 n=a#5 v=40
3592 On ch=1 n=a#5 v=0
3600 On ch=1 n=c#6 v=50
3672 On ch=1 n=c#6 v=0
3680 On ch=1 n=f#5 v=43
3752 On ch=1 n=f#5 v=0
3760 On ch=1 n=a#5 v=38
3832 On ch=1 n=a#5 v=0
3840 On ch=1 n=c#5 v=42
3840 Par ch=1 c=64 v=127
3844 On ch=1 n=c#3 v=59
3848 On ch=1 n=c#4 v=50
3876 On ch=1 n=c#4 v=0
3876 On ch=1 n=c#3 v=0
3912 On ch=1 n=c#5 v=0
3920 On ch=1 n=c#6 v=44
3992 On ch=1 n=c#6 v=0
4000 On ch=1 n=g#5 v=36
4056 Par ch=1 c=64 v=0
4072 On ch=1 n=g#5 v=0
4080 On ch=1 n=c#6 v=42
4088 On ch=1 n=f5 v=42
4092 On ch=1 n=c#5 v=54
4096 On ch=1 n=g#4 v=56
4112 On ch=1 n=f5 v=0
4116 On ch=1 n=c#5 v=0
4120 On ch=1 n=g#4 v=0
4152 On ch=1 n=c#6 v=0
4160 On ch=1 n=g#5 v=41
4232 On ch=1 n=g#5 v=0
4240 On ch=1 n=g#6 v=43
4312 On ch=1 n=g#6 v=0
4316 On ch=1 n=d#5 v=42
4316 On ch=1 n=b4 v=45
4316 Par ch=1 c=64 v=127
4320 On ch=1 n=g#5 v=47
4320 On ch=1 n=g#4 v=53
4340 On ch=1 n=g#4 v=0
4340 On ch=1 n=d#5 v=0
4344 On ch=1 n=b4 v=0
4392 On ch=1 n=g#5 v=0
4400 On ch=1 n=g#6 v=58
4472 On ch=1 n=g#6 v=0
4480 On ch=1 n=d#6 v=41
4552 On ch=1 n=d#6 v=0
4556 On ch=1 n=g#3 v=58
4560 On ch=1 n=g#6 v=46
4604 On ch=1 n=g#3 v=0
4632 On ch=1 n=g#6 v=0
4640 On ch=1 n=d#6 v=46
4712 On ch=1 n=d#6 v=0
4720 On ch=1 n=d#7 v=61
4792 On ch=1 n=d#7 v=0
4796 On ch=1 n=c#4 v=58
4800 On ch=1 n=d#6 v=45
4800 Par ch=1 c=64 v=0
4872 On ch=1 n=d#6 v=0
4880 On ch=1 n=d#7 v=57
4952 On ch=1 n=d#7 v=0
4960 On ch=1 n=g#6 v=46
5032 On ch=1 n=g#6 v=0
5036 On ch=1 n=d#5 v=60
5036 On ch=1 n=g#4 v=49
5036 On ch=1 n=b4 v=62
5040 On ch=1 n=d#7 v=49
5068 On ch=1 n=b4 v=0
5072 On ch=1 n=g#4 v=0
5080 On ch=1 n=d#5 v=0
5112 On ch=1 n=d#7 v=0
5120 On ch=1 n=g#6 v=55
5192 On ch=1 n=g#6 v=0
5200 On ch=1 n=g#7 v=66
5272 On ch=1 n=g#7 v=0
5276 On ch=1 n=g#4 v=46
5276 On ch=1 n=b4 v=62
5276 On ch=1 n=c#5 v=59
5280 On ch=1 n=g#6 v=62
5292 Par ch=1 c=64 v=127
5320 On ch=1 n=b4 v=0
5320 On ch=1 n=g#4 v=0
5324 On ch=1 n=c#5 v=0
5352 On ch=1 n=g#6 v=0
5356 On ch=1 n=c#4 v=0
5360 On ch=1 n=g#7 v=55
5432 On ch=1 n=g#7 v=0
5440 On ch=1 n=c#7 v=57
5512 On ch=1 n=c#7 v=0
5520 On ch=1 n=g#7 v=63
5592 On ch=1 n=g#7 v=0
5600 On ch=1 n=c#7 v=54
5604 Par ch=1 c=64 v=0
5672 On ch=1 n=c#7 v=0
5680 On ch=1 n=c#8 v=50
5744 Par ch=1 c=64 v=127
5752 On ch=1 n=c#8 v=0
5756 On ch=1 n=c#5 v=74
5756 On ch=1 n=f#5 v=69
5756 On ch=1 n=f#4 v=68
5756 On ch=1 n=a#4 v=70
5760 On ch=1 n=f#7 v=61
5776 On ch=1 n=a#4 v=0
5784 On ch=1 n=f#4 v=0
5788 On ch=1 n=c#5 v=0
5800 On ch=1 n=f#5 v=0
5832 On ch=1 n=f#7 v=0
5840 On ch=1 n=a#7 v=69
5912 On ch=1 n=a#7 v=0
5920 On ch=1 n=c#7 v=66
5992 On ch=1 n=c#7 v=0
5996 Par ch=1 c=64 v=0
6000 On ch=1 n=f#7 v=61
6000 On ch=1 n=d#5 v=82
6004 On ch=1 n=f#4 v=62
6004 On ch=1 n=f#5 v=70
6004 On ch=1 n=b4 v=81
6032 On ch=1 n=b4 v=0
6036 On ch=1 n=f#4 v=0
6044 On ch=1 n=f#5 v=0
6044 On ch=1 n=d#5 v=0
6072 On ch=1 n=f#7 v=0
6080 On ch=1 n=d#7 v=69
6152 On ch=1 n=d#7 v=0
6160 On ch=1 n=f#7 v=64
6232 On ch=1 n=f#7 v=0
6236 On ch=1 n=f#4 v=65
6236 On ch=1 n=c#5 v=78
6240 On ch=1 n=c#7 v=56
6240 On ch=1 n=a#4 v=77
6244 On ch=1 n=f#5 v=72
6272 On ch=1 n=f#5 v=0
6272 On ch=1 n=f#4 v=0
6276 On ch=1 n=c#5 v=0
6280 On ch=1 n=a#4 v=0
6312 On ch=1 n=c#7 v=0
6320 On ch=1 n=f#7 v=66
6392 On ch=1 n=f#7 v=0
6400 On ch=1 n=a#6 v=56
6472 On ch=1 n=a#6 v=0
6480 On ch=1 n=c#7 v=63
6552 On ch=1 n=c#7 v=0
6560 On ch=1 n=f#6 v=52
6632 On ch=1 n=f#6 v=0
6640 On ch=1 n=a#6 v=72
6712 On ch=1 n=a#6 v=0
6720 On ch=1 n=f#6 v=50
6724 On ch=1 n=f#3 v=63
6724 On ch=1 n=f#4 v=58
6756 On ch=1 n=f#4 v=0
6756 On ch=1 n=f#3 v=0
6792 On ch=1 n=f#6 v=0
6800 On ch=1 n=a#6 v=45
6872 On ch=1 n=a#6 v=0
6880 On ch=1 n=c#6 v=41
6952 On ch=1 n=c#6 v=0
6960 On ch=1 n=f#6 v=51
6964 On ch=1 n=b4 v=55
6968 On ch=1 n=d#5 v=60
6968 On ch=1 n=f#5 v=46
6992 On ch=1 n=f#5 v=0
7004 On ch=1 n=d#5 v=0
7012 On ch=1 n=b4 v=0
7032 On ch=1 n=f#6 v=0
7040 On ch=1 n=d#6 v=53
7112 On ch=1 n=d#6 v=0
7120 On ch=1 n=f#6 v=53
7192 On ch=1 n=f#6 v=0
7200 On ch=1 n=c#6 v=43
7204 On ch=1 n=f#5 v=52
7204 On ch=1 n=a#4 v=53
7204 On ch=1 n=c#5 v=56
7224 On ch=1 n=c#5 v=0
7228 On ch=1 n=a#4 v=0
7232 On ch=1 n=f#5 v=0
7272 On ch=1 n=c#6 v=0
7280 On ch=1 n=f#6 v=46
7352 On ch=1 n=f#6 v=0
7360 On ch=1 n=a#5 v=38
7432 On ch=1 n=a#5 v=0
7440 On ch=1 n=c#6 v=44
7512 On ch=1 n=c#6 v=0
7520 On ch=1 n=f#5 v=41
7592 On ch=1 n=f#5 v=0
7600 On ch=1 n=a#5 v=26
7672 On ch=1 n=a#5 v=0
7680 On ch=1 n=d#5 v=42
7684 On ch=1 n=b3 v=60
7712 Par ch=1 c=64 v=127
7752 On ch=1 n=d#5 v=0
7760 On ch=1 n=d#6 v=51
7788 On ch=1 n=b3 v=0
7832 On ch=1 n=d#6 v=0
7840 On ch=1 n=g#5 v=43
7912 On ch=1 n=g#5 v=0
7920 On ch=1 n=d#6 v=38
7920 On ch=1 n=d#5 v=59
7928 On ch=1 n=g#4 v=39
7992 On ch=1 n=d#6 v=0
8000 On ch=1 n=g#5 v=39
8072 On ch=1 n=g#5 v=0
8080 On ch=1 n=g#6 v=42
8152 On ch=1 n=g#6 v=0
8160 On ch=1 n=d#6 v=38
8216 On ch=1 n=d#5 v=0
8232 On ch=1 n=d#6 v=0
8240 On ch=1 n=g#6 v=46
8244 On ch=1 n=g#4 v=0
8312 On ch=1 n=g#6 v=0
8320 On ch=1 n=d#6 v=38
8392 On ch=1 n=d#6 v=0
8392 On ch=1 n=b3 v=64
8400 On ch=1 n=d#7 v=48
8448 On ch=1 n=b3 v=0
8472 On ch=1 n=d#7 v=0
8480 On ch=1 n=g#6 v=43
8552 On ch=1 n=g#6 v=0
8552 Par ch=1 c=64 v=0
8560 On ch=1 n=g#7 v=40
8588 On ch=1 n=a#3 v=53
8616 Par ch=1 c=64 v=127
8628 On ch=1 n=f4 v=62
8632 On ch=1 n=g#7 v=0
8636 On ch=1 n=a#3 v=0
8640 On ch=1 n=a#6 v=49
8676 On ch=1 n=d5 v=59
8700 On ch=1 n=f4 v=0
8712 On ch=1 n=a#6 v=0
8720 On ch=1 n=a#7 v=53
8732 On ch=1 n=d5 v=0
8792 On ch=1 n=a#7 v=0
8800 On ch=1 n=a#6 v=45
8872 On ch=1 n=a#6 v=0
8880 On ch=1 n=a#7 v=56
8884 On ch=1 n=a#4 v=40
8952 On ch=1 n=a#7 v=0
8960 On ch=1 n=a#6 v=48
8972 On ch=1 n=f5 v=58
8980 On ch=1 n=a#4 v=0
9032 On ch=1 n=a#6 v=0
9040 On ch=1 n=a#7 v=54
9040 On ch=1 n=d6 v=62
9048 On ch=1 n=f5 v=0
9100 On ch=1 n=d6 v=0
9112 On ch=1 n=a#7 v=0
9120 On ch=1 n=a#6 v=49
9192 On ch=1 n=a#6 v=0
9200 On ch=1 n=a#7 v=59
9272 On ch=1 n=a#7 v=0
9280 On ch=1 n=a#6 v=46
9352 On ch=1 n=a#6 v=0
9360 On ch=1 n=a#7 v=42
9432 On ch=1 n=a#7 v=0
9440 On ch=1 n=a#6 v=43
9496 Par ch=1 c=64 v=0
9512 On ch=1 n=a#6 v=0
9520 On ch=1 n=a#7 v=43
9560 Par ch=1 c=64 v=127
9592 On ch=1 n=a#7 v=0
9596 On ch=1 n=c#5 v=76
9596 On ch=1 n=f#5 v=67
9600 On ch=1 n=f#7 v=69
9600 On ch=1 n=f#4 v=64
9600 On ch=1 n=a#4 v=69
9652 On ch=1 n=a#4 v=0
9652 On ch=1 n=f#4 v=0
9660 On ch=1 n=c#5 v=0
9664 On ch=1 n=f#5 v=0
9672 On ch=1 n=f#7 v=0
9680 On ch=1 n=a#7 v=65
9752 On ch=1 n=a#7 v=0
9760 On ch=1 n=c#7 v=54
9832 On ch=1 n=c#7 v=0
9836 On ch=1 n=f#4 v=52
9836 On ch=1 n=f#5 v=65
9836 On ch=1 n=d#5 v=74
9836 On ch=1 n=b4 v=78
9840 On ch=1 n=f#7 v=60
9848 Par ch=1 c=64 v=0
9872 On ch=1 n=b4 v=0
9872 On ch=1 n=f#4 v=0
9880 On ch=1 n=d#5 v=0
9880 On ch=1 n=f#5 v=0
9912 On ch=1 n=f#7 v=0
9920 On ch=1 n=d#7 v=70
9992 On ch=1 n=d#7 v=0
10000 On ch=1 n=f#7 v=72
10072 On ch=1 n=f#7 v=0
10072 On ch=1 n=f#4 v=60
10072 On ch=1 n=f#5 v=65
10072 On ch=1 n=a#4 v=74
10072 On ch=1 n=c#5 v=74
10108 On ch=1 n=f#5 v=0
10112 On ch=1 n=c#5 v=0
10120 On ch=1 n=a#4 v=0
10124 On ch=1 n=f#4 v=0
10160 On ch=1 n=f#7 v=64
10232 On ch=1 n=f#7 v=0
10240 On ch=1 n=a#6 v=61
10312 On ch=1 n=a#6 v=0
10320 On ch=1 n=c#7 v=68
10392 On ch=1 n=c#7 v=0
10400 On ch=1 n=f#6 v=55
10472 On ch=1 n=f#6 v=0
10480 On ch=1 n=a#6 v=63
10552 On ch=1 n=a#6 v=0
10556 On ch=1 n=f#3 v=64
10556 On ch=1 n=f#4 v=59
10560 On ch=1 n=f#6 v=53
10588 On ch=1 n=f#4 v=0
10588 On ch=1 n=f#3 v=0
10632 On ch=1 n=f#6 v=0
10640 On ch=1 n=a#6 v=52
10712 On ch=1 n=a#6 v=0
10720 On ch=1 n=c#6 v=36
10792 On ch=1 n=c#6 v=0
10800 On ch=1 n=f#6 v=52
10804 On ch=1 n=d#5 v=62
10804 On ch=1 n=f#5 v=50
10804 On ch=1 n=b4 v=50
10840 On ch=1 n=f#5 v=0
10844 On ch=1 n=b4 v=0
10852 On ch=1 n=d#5 v=0
10872 On ch=1 n=f#6 v=0
10880 On ch=1 n=d#6 v=47
10952 On ch=1 n=d#6 v=0
10960 On ch=1 n=f#6 v=42
11032 On ch=1 n=f#6 v=0
11036 On ch=1 n=f#5 v=56
11040 On ch=1 n=c#6 v=40
11040 On ch=1 n=a#4 v=55
11044 On ch=1 n=c#5 v=57
11064 On ch=1 n=f#5 v=0
11068 On ch=1 n=c#5 v=0
11068 On ch=1 n=a#4 v=0
11112 On ch=1 n=c#6 v=0
11120 On ch=1 n=f#6 v=45
11192 On ch=1 n=f#6 v=0
11200 On ch=1 n=a#5 v=43
11272 On ch=1 n=a#5 v=0
11280 On ch=1 n=c#6 v=45
11352 On ch=1 n=c#6 v=0
11360 On ch=1 n=f#5 v=38
11432 On ch=1 n=f#5 v=0
11440 On ch=1 n=a#5 v=43
11512 On ch=1 n=a#5 v=0
11512 Par ch=1 c=64 v=127
11520 On ch=1 n=c#5 v=39
11524 On ch=1 n=c#3 v=60
11524 On ch=1 n=c#4 v=54
11552 On ch=1 n=c#4 v=0
11552 On ch=1 n=c#3 v=0
11592 On ch=1 n=c#5 v=0
11600 On ch=1 n=c#6 v=45
11672 On ch=1 n=c#6 v=0
11680 On ch=1 n=g#5 v=41
11748 Par ch=1 c=64 v=0
11752 On ch=1 n=g#5 v=0
11760 On ch=1 n=c#6 v=36
11768 On ch=1 n=f5 v=47
11768 On ch=1 n=c#5 v=54
11768 On ch=1 n=g#4 v=53
11804 On ch=1 n=c#5 v=0
11804 On ch=1 n=f5 v=0
11812 On ch=1 n=g#4 v=0
11832 On ch=1 n=c#6 v=0
11840 On ch=1 n=g#5 v=42
11912 On ch=1 n=g#5 v=0
11920 On ch=1 n=g#6 v=46
11992 On ch=1 n=g#6 v=0
11996 Par ch=1 c=64 v=127
12000 On ch=1 n=g#5 v=36
12004 On ch=1 n=d#5 v=58
12004 On ch=1 n=b4 v=60
12004 On ch=1 n=g#4 v=58
12028 On ch=1 n=g#4 v=0
12028 On ch=1 n=b4 v=0
12028 On ch=1 n=d#5 v=0
12072 On ch=1 n=g#5 v=0
12080 On ch=1 n=g#6 v=40
12152 On ch=1 n=g#6 v=0
12160 On ch=1 n=d#6 v=45
12232 On ch=1 n=d#6 v=0
12240 On ch=1 n=g#6 v=45
12244 On ch=1 n=g#3 v=65
12272 On ch=1 n=g#3 v=0
12312 On ch=1 n=g#6 v=0
12320 On ch=1 n=d#6 v=46
12392 On ch=1 n=d#6 v=0
12400 On ch=1 n=d#7 v=52
12472 On ch=1 n=d#7 v=0
12480 On ch=1 n=d#6 v=45
12484 On ch=1 n=c#4 v=64
12484 Par ch=1 c=64 v=0
12512 Par ch=1 c=64 v=127
12552 On ch=1 n=d#6 v=0
12560 On ch=1 n=d#7 v=48
12632 On ch=1 n=d#7 v=0
12640 On ch=1 n=g#6 v=48
12712 On ch=1 n=g#6 v=0
12720 On ch=1 n=d#7 v=50
12724 On ch=1 n=d#5 v=58
12724 On ch=1 n=b4 v=66
12724 On ch=1 n=g#4 v=65
12760 On ch=1 n=d#5 v=0
12768 On ch=1 n=g#4 v=0
12768 On ch=1 n=b4 v=0
12792 On ch=1 n=d#7 v=0
12800 On ch=1 n=g#6 v=44
12872 On ch=1 n=g#6 v=0
12880 On ch=1 n=g#7 v=59
12884 Par ch=1 c=64 v=0
12888 Par ch=1 c=64 v=0
12952 On ch=1 n=g#7 v=0
12956 On ch=1 n=c#5 v=58
12956 Par ch=1 c=64 v=127
12960 On ch=1 n=g#6 v=49
12960 On ch=1 n=b4 v=71
12964 On ch=1 n=g#4 v=69
12984 On ch=1 n=c#5 v=0
12988 On ch=1 n=b4 v=0
12992 On ch=1 n=g#4 v=0
13008 On ch=1 n=c#4 v=0
13032 On ch=1 n=g#6 v=0
13040 On ch=1 n=g#7 v=57
13112 On ch=1 n=g#7 v=0
13120 On ch=1 n=c#7 v=50
13192 On ch=1 n=c#7 v=0
13200 On ch=1 n=g#7 v=52
13272 On ch=1 n=g#7 v=0
13272 Par ch=1 c=64 v=0
13280 On ch=1 n=c#7 v=45
13352 On ch=1 n=c#7 v=0
13360 On ch=1 n=c#8 v=47
13416 Par ch=1 c=64 v=127
13432 On ch=1 n=c#8 v=0
13440 On ch=1 n=f#7 v=63
13444 On ch=1 n=c#5 v=74
13444 On ch=1 n=a#4 v=74
13444 On ch=1 n=f#5 v=70
13444 On ch=1 n=f#4 v=52
13468 On ch=1 n=f#4 v=0
13476 On ch=1 n=f#5 v=0
13484 On ch=1 n=a#4 v=0
13484 On ch=1 n=c#5 v=0
13512 On ch=1 n=f#7 v=0
13520 On ch=1 n=a#7 v=74
13592 On ch=1 n=a#7 v=0
13600 On ch=1 n=c#7 v=65
13672 On ch=1 n=c#7 v=0
13672 Par ch=1 c=64 v=0
13680 On ch=1 n=f#7 v=72
13684 On ch=1 n=f#5 v=67
13684 On ch=1 n=f#4 v=61
13684 On ch=1 n=d#5 v=78
13684 On ch=1 n=b4 v=78
13716 On ch=1 n=b4 v=0
13720 On ch=1 n=d#5 v=0
13728 On ch=1 n=f#5 v=0
13732 On ch=1 n=f#4 v=0
13752 On ch=1 n=f#7 v=0
13760 On ch=1 n=d#7 v=72
13832 On ch=1 n=d#7 v=0
13840 On ch=1 n=f#7 v=68
13912 On ch=1 n=f#7 v=0
13920 On ch=1 n=c#7 v=60
13920 On ch=1 n=f#4 v=63
13920 On ch=1 n=f#5 v=76
13924 On ch=1 n=a#4 v=76
13924 On ch=1 n=c#5 v=76
13956 On ch=1 n=f#5 v=0
13960 On ch=1 n=c#5 v=0
13960 On ch=1 n=a#4 v=0
13960 On ch=1 n=f#4 v=0
13992 On ch=1 n=c#7 v=0
14000 On ch=1 n=f#7 v=76
14072 On ch=1 n=f#7 v=0
14080 On ch=1 n=a#6 v=55
14152 On ch=1 n=a#6 v=0
14160 On ch=1 n=c#7 v=53
14232 On ch=1 n=c#7 v=0
14240 On ch=1 n=f#6 v=54
14312 On ch=1 n=f#6 v=0
14320 On ch=1 n=a#6 v=57
14392 On ch=1 n=a#6 v=0
14396 On ch=1 n=f#3 v=60
14396 On ch=1 n=f#4 v=56
14400 On ch=1 n=f#6 v=46
14432 On ch=1 n=f#4 v=0
14432 On ch=1 n=f#3 v=0
14472 On ch=1 n=f#6 v=0
14480 On ch=1 n=a#6 v=53
14552 On ch=1 n=a#6 v=0
14560 On ch=1 n=c#6 v=43
14632 On ch=1 n=c#6 v=0
14640 On ch=1 n=f#6 v=52
14640 On ch=1 n=d#5 v=59
14640 On ch=1 n=f#5 v=48
14640 On ch=1 n=b4 v=58
14672 On ch=1 n=d#5 v=0
14680 On ch=1 n=b4 v=0
14688 On ch=1 n=f#5 v=0
14712 On ch=1 n=f#6 v=0
14720 On ch=1 n=d#6 v=51
14792 On ch=1 n=d#6 v=0
14800 On ch=1 n=f#6 v=52
14872 On ch=1 n=f#6 v=0
14876 On ch=1 n=f#5 v=57
14876 On ch=1 n=c#5 v=60
14876 On ch=1 n=a#4 v=57
14880 On ch=1 n=c#6 v=49
14904 On ch=1 n=a#4 v=0
14912 On ch=1 n=c#5 v=0
14912 On ch=1 n=f#5 v=0
14952 On ch=1 n=c#6 v=0
14960 On ch=1 n=f#6 v=45
15032 On ch=1 n=f#6 v=0
15040 On ch=1 n=a#5 v=46
15112 On ch=1 n=a#5 v=0
15120 On ch=1 n=c#6 v=52
15192 On ch=1 n=c#6 v=0
15200 On ch=1 n=f#5 v=45
15272 On ch=1 n=f#5 v=0
15280 On ch=1 n=a#5 v=48
15352 On ch=1 n=a#5 v=0
15356 On ch=1 n=c4 v=58
15360 On ch=1 n=d#5 v=42
15376 Par ch=1 c=64 v=127
15396 On ch=1 n=c4 v=0
15432 On ch=1 n=d#5 v=0
15440 On ch=1 n=d#6 v=48
15512 On ch=1 n=d#6 v=0
15520 On ch=1 n=g#5 v=43
15592 On ch=1 n=g#5 v=0
15596 On ch=1 n=g#4 v=57
15600 On ch=1 n=d#6 v=42
15600 On ch=1 n=f#5 v=54
15672 On ch=1 n=d#6 v=0
15680 On ch=1 n=g#5 v=37
15752 On ch=1 n=g#5 v=0
15760 On ch=1 n=g#6 v=44
15832 On ch=1 n=g#6 v=0
15840 On ch=1 n=d#6 v=41
15900 On ch=1 n=f#5 v=0
15908 On ch=1 n=g#4 v=0
15912 On ch=1 n=d#6 v=0
15920 On ch=1 n=g#6 v=51
15992 On ch=1 n=g#6 v=0
16000 On ch=1 n=d#6 v=40
16072 On ch=1 n=d#6 v=0
16076 On ch=1 n=g#3 v=64
16080 On ch=1 n=d#7 v=50
16092 Par ch=1 c=64 v=0
16100 On ch=1 n=g#3 v=0
16152 On ch=1 n=d#7 v=0
16160 On ch=1 n=g#6 v=43
16232 On ch=1 n=g#6 v=0
16240 On ch=1 n=d#7 v=44
16300 Par ch=1 c=64 v=127
16312 On ch=1 n=d#7 v=0
16316 On ch=1 n=c#4 v=65
16320 On ch=1 n=d#6 v=41
16356 On ch=1 n=c#4 v=0
16392 On ch=1 n=d#6 v=0
16400 On ch=1 n=d#7 v=56
16472 On ch=1 n=d#7 v=0
16480 On ch=1 n=g#6 v=53
16552 On ch=1 n=g#6 v=0
16556 On ch=1 n=g#4 v=68
16556 On ch=1 n=f5 v=63
16560 On ch=1 n=d#7 v=53
16584 On ch=1 n=g#4 v=0
16588 On ch=1 n=f5 v=0
16632 On ch=1 n=d#7 v=0
16640 On ch=1 n=c#6 v=50
16712 On ch=1 n=c#6 v=0
16720 On ch=1 n=c#7 v=55
16792 On ch=1 n=c#7 v=0
16800 On ch=1 n=g#6 v=56
16872 On ch=1 n=g#6 v=0
16880 On ch=1 n=c#7 v=51
16952 On ch=1 n=c#7 v=0
16960 On ch=1 n=g#6 v=58
17032 On ch=1 n=g#6 v=0
17040 On ch=1 n=g#7 v=64
17112 On ch=1 n=g#7 v=0
17120 On ch=1 n=c#7 v=48
17192 On ch=1 n=c#7 v=0
17200 On ch=1 n=c#8 v=52
17272 On ch=1 n=c#8 v=0
17272 On ch=1 n=f#5 v=68
17272 On ch=1 n=g#5 v=58
17276 On ch=1 n=c5 v=65
17280 On ch=1 n=g#7 v=64
17308 On ch=1 n=c5 v=0
17320 On ch=1 n=f#5 v=0
17324 On ch=1 n=g#5 v=0
17352 On ch=1 n=g#7 v=0
17360 On ch=1 n=a#7 v=68
17384 Par ch=1 c=64 v=0
17432 On ch=1 n=a#7 v=0
17440 On ch=1 n=g#7 v=61
17512 On ch=1 n=g#7 v=0
17512 On ch=1 n=g#4 v=62
17516 On ch=1 n=f#5 v=64
17516 On ch=1 n=g#5 v=56
17520 On ch=1 n=d#7 v=70
17544 On ch=1 n=g#5 v=0
17548 On ch=1 n=f#5 v=0
17552 On ch=1 n=g#4 v=0
17592 On ch=1 n=d#7 v=0
17600 On ch=1 n=d#8 v=70
17672 On ch=1 n=d#8 v=0
17680 On ch=1 n=d#7 v=59
17752 On ch=1 n=d#7 v=0
17756 On ch=1 n=a#5 v=62
17756 On ch=1 n=f5 v=71
17756 On ch=1 n=c#5 v=63
17760 On ch=1 n=c#7 v=59
17760 Par ch=1 c=64 v=127
17832 On ch=1 n=c#7 v=0
17840 On ch=1 n=d#7 v=66
17912 On ch=1 n=d#7 v=0
17920 On ch=1 n=c#7 v=47
17936 On ch=1 n=a#5 v=0
17940 On ch=1 n=c#5 v=0
17940 On ch=1 n=f5 v=0
17992 On ch=1 n=c#7 v=0
17992 On ch=1 n=g#4 v=61
17992 On ch=1 n=f5 v=69
17992 On ch=1 n=g#5 v=56
18000 On ch=1 n=g#6 v=59
18072 On ch=1 n=g#6 v=0
18080 On ch=1 n=g#7 v=56
18108 On ch=1 n=g#5 v=0
18112 On ch=1 n=f5 v=0
18124 On ch=1 n=g#4 v=0
18152 On ch=1 n=g#7 v=0
18160 On ch=1 n=g#6 v=60
18192 Par ch=1 c=64 v=0
18228 On ch=1 n=g#6 v=0
18236 Par ch=1 c=64 v=127
18240 On ch=1 n=g#6 v=65
18244 On ch=1 n=a#5 v=60
18244 On ch=1 n=f#5 v=68
18244 On ch=1 n=c5 v=69
18312 On ch=1 n=g#6 v=0
18320 On ch=1 n=a#6 v=66
18392 On ch=1 n=a#6 v=0
18400 On ch=1 n=g#6 v=63
18412 On ch=1 n=a#5 v=0
18432 On ch=1 n=f#5 v=0
18440 On ch=1 n=c5 v=0
18472 On ch=1 n=g#6 v=0
18480 On ch=1 n=d#6 v=54
18484 On ch=1 n=g#4 v=56
18484 On ch=1 n=f#5 v=45
18488 On ch=1 n=g#5 v=69
18552 On ch=1 n=d#6 v=0
18560 On ch=1 n=d#7 v=55
18632 On ch=1 n=d#7 v=0
18632 On ch=1 n=g#5 v=0
18640 On ch=1 n=d#6 v=52
18660 Par ch=1 c=64 v=0
18692 On ch=1 n=f#5 v=0
18712 On ch=1 n=d#6 v=0
18716 Par ch=1 c=64 v=127
18720 On ch=1 n=c#6 v=68
18724 On ch=1 n=c#5 v=67
18728 On ch=1 n=g#4 v=0
18728 On ch=1 n=f5 v=66
18792 On ch=1 n=c#6 v=0
18800 On ch=1 n=d#6 v=65
18872 On ch=1 n=d#6 v=0
18880 On ch=1 n=c#6 v=63
18948 On ch=1 n=f5 v=0
18952 On ch=1 n=c#6 v=0
18956 On ch=1 n=g#4 v=64
18960 On ch=1 n=c#5 v=0
18960 On ch=1 n=g#5 v=89
19136 Par ch=1 c=64 v=0
19184 Par ch=1 c=64 v=127
19188 On ch=1 n=g#4 v=0
19196 On ch=1 n=c4 v=60
19228 On ch=1 n=c4 v=0
19272 On ch=1 n=g#5 v=0
19280 On ch=1 n=d#6 v=50
19352 On ch=1 n=d#6 v=0
19360 On ch=1 n=g#6 v=50
19432 On ch=1 n=g#6 v=0
19436 On ch=1 n=d#5 v=59
19436 On ch=1 n=f#5 v=57
19440 On ch=1 n=a#6 v=53
19440 On ch=1 n=g#4 v=55
19468 On ch=1 n=f#5 v=0
19480 On ch=1 n=g#4 v=0
19480 On ch=1 n=d#5 v=0
19512 On ch=1 n=a#6 v=0
19520 On ch=1 n=g#6 v=44
19592 On ch=1 n=g#6 v=0
19600 On ch=1 n=d#6 v=43
19672 On ch=1 n=d#6 v=0
19676 On ch=1 n=f5 v=57
19676 On ch=1 n=g#4 v=60
19676 On ch=1 n=c#5 v=59
19680 On ch=1 n=c#6 v=43
19684 Par ch=1 c=64 v=0
19704 On ch=1 n=c#5 v=0
19708 On ch=1 n=f5 v=0
19720 On ch=1 n=g#4 v=0
19752 On ch=1 n=c#6 v=0
19760 On ch=1 n=g#6 v=47
19832 On ch=1 n=g#6 v=0
19840 On ch=1 n=c#7 v=44
19912 On ch=1 n=c#7 v=0
19916 On ch=1 n=c#4 v=58
19920 On ch=1 n=d#7 v=46
19952 On ch=1 n=c#4 v=0
19992 On ch=1 n=d#7 v=0
20000 On ch=1 n=c#7 v=43
20072 On ch=1 n=c#7 v=0
20080 On ch=1 n=g#6 v=46
20136 Par ch=1 c=64 v=127
20148 On ch=1 n=g#6 v=0
20156 On ch=1 n=g#3 v=62
20160 On ch=1 n=g#6 v=41
20184 On ch=1 n=g#3 v=0
20232 On ch=1 n=g#6 v=0
20240 On ch=1 n=d#7 v=55
20312 On ch=1 n=d#7 v=0
20320 On ch=1 n=g#7 v=50
20392 On ch=1 n=g#7 v=0
20396 On ch=1 n=c5 v=55
20396 On ch=1 n=f#5 v=55
20396 On ch=1 n=g#4 v=55
20400 On ch=1 n=a#7 v=52
20424 On ch=1 n=f#5 v=0
20428 On ch=1 n=g#4 v=0
20432 On ch=1 n=c5 v=0
20472 On ch=1 n=a#7 v=0
20480 On ch=1 n=g#7 v=46
20552 On ch=1 n=g#7 v=0
20560 On ch=1 n=d#7 v=49
20600 Par ch=1 c=64 v=0
20632 On ch=1 n=d#7 v=0
20636 On ch=1 n=c#3 v=66
20640 On ch=1 n=c#7 v=39
20640 Par ch=1 c=64 v=127
20664 On ch=1 n=c#3 v=0
20712 On ch=1 n=c#7 v=0
20720 On ch=1 n=g#7 v=50
20792 On ch=1 n=g#7 v=0
20800 On ch=1 n=c#8 v=45
20872 On ch=1 n=c#8 v=0
20876 On ch=1 n=f5 v=51
20876 On ch=1 n=g#4 v=51
20876 On ch=1 n=c#5 v=51
20880 On ch=1 n=d#8 v=49
20896 On ch=1 n=g#4 v=0
20904 On ch=1 n=c#5 v=0
20904 On ch=1 n=f5 v=0
20952 On ch=1 n=d#8 v=0
20960 On ch=1 n=c#8 v=38
21004 Par ch=1 c=64 v=0
21032 On ch=1 n=c#8 v=0
21040 On ch=1 n=a#7 v=47
21084 Par ch=1 c=64 v=127
21112 On ch=1 n=a#7 v=0
21120 On ch=1 n=g#7 v=62
21120 On ch=1 n=g#3 v=69
21148 On ch=1 n=g#3 v=0
21192 On ch=1 n=g#7 v=0
21200 On ch=1 n=a#7 v=62
21272 On ch=1 n=a#7 v=0
21280 On ch=1 n=g#7 v=64
21352 On ch=1 n=g#7 v=0
21360 On ch=1 n=d#7 v=54
21360 On ch=1 n=c5 v=62
21364 On ch=1 n=g#5 v=62
21364 On ch=1 n=f#5 v=62
21364 Par ch=1 c=64 v=0
21392 On ch=1 n=f#5 v=0
21392 On ch=1 n=g#5 v=0
21392 On ch=1 n=c5 v=0
21432 On ch=1 n=d#7 v=0
21440 On ch=1 n=d#8 v=65
21512 On ch=1 n=d#8 v=0
21520 On ch=1 n=d#7 v=54
21572 Par ch=1 c=64 v=127
21592 On ch=1 n=d#7 v=0
21596 On ch=1 n=a#5 v=57
21600 On ch=1 n=c#7 v=57
21600 On ch=1 n=c#5 v=60
21600 On ch=1 n=f5 v=65
21672 On ch=1 n=c#7 v=0
21680 On ch=1 n=d#7 v=63
21752 On ch=1 n=d#7 v=0
21760 On ch=1 n=c#7 v=48
21772 On ch=1 n=a#5 v=0
21780 On ch=1 n=c#5 v=0
21784 On ch=1 n=f5 v=0
21832 On ch=1 n=c#7 v=0
21836 On ch=1 n=f5 v=71
21836 On ch=1 n=g#4 v=68
21836 On ch=1 n=g#5 v=61
21840 On ch=1 n=g#6 v=59
21912 On ch=1 n=g#6 v=0
21920 On ch=1 n=g#7 v=60
21992 On ch=1 n=g#7 v=0
22000 On ch=1 n=g#5 v=0
22000 On ch=1 n=g#6 v=48
22004 On ch=1 n=g#4 v=0
22004 On ch=1 n=f5 v=0
22024 Par ch=1 c=64 v=0
22060 Par ch=1 c=64 v=127
22068 On ch=1 n=g#6 v=0
22076 On ch=1 n=a#5 v=67
22076 On ch=1 n=f#5 v=71
22076 On ch=1 n=c5 v=64
22080 On ch=1 n=g#6 v=65
22152 On ch=1 n=g#6 v=0
22160 On ch=1 n=a#6 v=63
22232 On ch=1 n=a#6 v=0
22240 On ch=1 n=g#6 v=46
22280 On ch=1 n=a#5 v=0
22284 On ch=1 n=f#5 v=0
22288 On ch=1 n=c5 v=0
22312 On ch=1 n=g#6 v=0
22316 On ch=1 n=f#5 v=67
22316 On ch=1 n=g#4 v=65
22320 On ch=1 n=d#6 v=58
22324 On ch=1 n=g#5 v=60
22392 On ch=1 n=d#6 v=0
22400 On ch=1 n=d#7 v=48
22448 On ch=1 n=g#5 v=0
22472 On ch=1 n=d#7 v=0
22480 On ch=1 n=d#6 v=49
22496 On ch=1 n=f#5 v=0
22504 Par ch=1 c=64 v=0
22532 On ch=1 n=g#4 v=0
22552 On ch=1 n=d#6 v=0
22556 On ch=1 n=c#5 v=68
22556 On ch=1 n=f5 v=60
22556 Par ch=1 c=64 v=127
22560 On ch=1 n=c#6 v=57
22632 On ch=1 n=c#6 v=0
22640 On ch=1 n=d#6 v=59
22712 On ch=1 n=d#6 v=0
22720 On ch=1 n=c#6 v=52
22792 On ch=1 n=c#6 v=0
22796 On ch=1 n=g#4 v=71
22800 On ch=1 n=g#5 v=82
22828 On ch=1 n=f5 v=0
22832 On ch=1 n=c#5 v=0
22928 Par ch=1 c=64 v=0
23004 Par ch=1 c=64 v=127
23044 On ch=1 n=g#4 v=0
23044 On ch=1 n=c4 v=58
23084 On ch=1 n=c4 v=0
23112 On ch=1 n=g#5 v=0
23120 On ch=1 n=g#6 v=43
23192 On ch=1 n=g#6 v=0
23200 On ch=1 n=f#6 v=42
23272 On ch=1 n=f#6 v=0
23280 On ch=1 n=g#6 v=46
23284 On ch=1 n=f#5 v=53
23284 On ch=1 n=g#4 v=53
23284 On ch=1 n=d#5 v=53
23320 On ch=1 n=d#5 v=0
23324 On ch=1 n=f#5 v=0
23336 On ch=1 n=g#4 v=0
23352 On ch=1 n=g#6 v=0
23360 On ch=1 n=f#6 v=43
23432 On ch=1 n=f#6 v=0
23440 On ch=1 n=g#6 v=41
23512 On ch=1 n=g#6 v=0
23520 On ch=1 n=f#7 v=50
23548 Par ch=1 c=64 v=0
23592 On ch=1 n=f#7 v=0
23600 On ch=1 n=g#6 v=46
23672 On ch=1 n=g#6 v=0
23680 On ch=1 n=f#6 v=41
23740 Par ch=1 c=64 v=127
23752 On ch=1 n=f#6 v=0
23756 On ch=1 n=c3 v=58
23760 On ch=1 n=g#6 v=47
23832 On ch=1 n=g#6 v=0
23840 On ch=1 n=f#6 v=37
23912 On ch=1 n=f#6 v=0
23920 On ch=1 n=g#6 v=44
23992 On ch=1 n=g#6 v=0
23996 On ch=1 n=c4 v=52
24000 On ch=1 n=g#5 v=52
24004 On ch=1 n=c3 v=0
24024 On ch=1 n=c4 v=0
24072 On ch=1 n=g#5 v=0
24080 On ch=1 n=g#6 v=40
24152 On ch=1 n=g#6 v=0
24160 On ch=1 n=f#6 v=42
24232 On ch=1 n=f#6 v=0
24240 On ch=1 n=g#6 v=46
24244 On ch=1 n=g#4 v=51
24244 On ch=1 n=f#5 v=51
24244 On ch=1 n=d#5 v=51
24272 On ch=1 n=d#5 v=0
24272 On ch=1 n=f#5 v=0
24280 On ch=1 n=g#4 v=0
24312 On ch=1 n=g#6 v=0
24320 On ch=1 n=f#6 v=43
24392 On ch=1 n=f#6 v=0
24400 On ch=1 n=g#6 v=49
24472 On ch=1 n=g#6 v=0
24476 Par ch=1 c=64 v=0
24480 On ch=1 n=f#7 v=58
24552 On ch=1 n=f#7 v=0
24560 On ch=1 n=g#6 v=42
24632 On ch=1 n=g#6 v=0
24640 On ch=1 n=f#6 v=45
24712 On ch=1 n=f#6 v=0
24720 On ch=1 n=g#6 v=49
24720 On ch=1 n=c3 v=58
24724 On ch=1 n=c4 v=61
24792 On ch=1 n=g#6 v=0
24800 On ch=1 n=f#6 v=36
24872 On ch=1 n=f#6 v=0
24880 On ch=1 n=g#6 v=47
24908 On ch=1 n=c4 v=0
24952 On ch=1 n=g#6 v=0
24960 On ch=1 n=a#5 v=61
24964 On ch=1 n=c#3 v=59
24964 On ch=1 n=c#4 v=63
25008 Par ch=1 c=64 v=127
25012 On ch=1 n=c#3 v=0
25012 On ch=1 n=c3 v=0
25020 On ch=1 n=c#4 v=0
25032 On ch=1 n=a#5 v=0
25040 On ch=1 n=a#6 v=46
25112 On ch=1 n=a#6 v=0
25120 On ch=1 n=f#6 v=57
25192 On ch=1 n=f#6 v=0
25200 On ch=1 n=a#6 v=64
25204 On ch=1 n=a#4 v=52
25204 On ch=1 n=f#5 v=52
25204 On ch=1 n=c#5 v=52
25232 On ch=1 n=c#5 v=0
25252 On ch=1 n=f#5 v=0
25264 On ch=1 n=a#4 v=0
25272 On ch=1 n=a#6 v=0
25280 On ch=1 n=f#6 v=56
25352 On ch=1 n=f#6 v=0
25360 On ch=1 n=a#6 v=57
25428 Par ch=1 c=64 v=0
25432 On ch=1 n=a#6 v=0
25440 On ch=1 n=f#7 v=50
25440 On ch=1 n=c4 v=53
25444 On ch=1 n=c3 v=61
25512 On ch=1 n=f#7 v=0
25520 On ch=1 n=a#6 v=46
25592 On ch=1 n=a#6 v=0
25600 On ch=1 n=f#6 v=42
25608 On ch=1 n=c4 v=0
25672 On ch=1 n=f#6 v=0
25676 On ch=1 n=c#3 v=56
25680 On ch=1 n=a#6 v=46
25680 On ch=1 n=c#4 v=63
25724 On ch=1 n=c3 v=0
25752 On ch=1 n=a#6 v=0
25760 On ch=1 n=f#6 v=41
25832 On ch=1 n=f#6 v=0
25840 On ch=1 n=a#6 v=50
25900 On ch=1 n=c#3 v=0
25912 On ch=1 n=a#6 v=0
25916 On ch=1 n=c#4 v=0
25916 On ch=1 n=d3 v=59
25916 On ch=1 n=d4 v=67
25920 On ch=1 n=a#5 v=47
25952 Par ch=1 c=64 v=127
25968 On ch=1 n=d4 v=0
25972 On ch=1 n=d3 v=0
25992 On ch=1 n=a#5 v=0
26000 On ch=1 n=a#6 v=46
26072 On ch=1 n=a#6 v=0
26080 On ch=1 n=f#6 v=40
26152 On ch=1 n=f#6 v=0
26156 On ch=1 n=f#5 v=52
26156 On ch=1 n=a#4 v=52
26160 On ch=1 n=a#6 v=49
26184 On ch=1 n=a#4 v=0
26184 On ch=1 n=f#5 v=0
26232 On ch=1 n=a#6 v=0
26240 On ch=1 n=f#6 v=36
26312 On ch=1 n=f#6 v=0
26320 On ch=1 n=a#6 v=53
26364 Par ch=1 c=64 v=0
26392 On ch=1 n=a#6 v=0
26396 On ch=1 n=c#3 v=61
26396 On ch=1 n=c#4 v=69
26400 On ch=1 n=f#7 v=55
26472 On ch=1 n=f#7 v=0
26480 On ch=1 n=a#6 v=44
26552 On ch=1 n=a#6 v=0
26560 On ch=1 n=f#6 v=42
26620 On ch=1 n=c#3 v=0
26632 On ch=1 n=f#6 v=0
26636 On ch=1 n=d3 v=63
26636 On ch=1 n=d4 v=55
26640 On ch=1 n=c#4 v=0
26640 On ch=1 n=a#6 v=51
26712 On ch=1 n=a#6 v=0
26720 On ch=1 n=f#6 v=43
26780 On ch=1 n=d4 v=0
26792 On ch=1 n=f#6 v=0
26800 On ch=1 n=a#6 v=49
26872 On ch=1 n=a#6 v=0
26876 On ch=1 n=d#3 v=59
26876 On ch=1 n=d#4 v=62
26880 On ch=1 n=f#6 v=36
26912 On ch=1 n=d3 v=0
26912 Par ch=1 c=64 v=127
26940 On ch=1 n=d#4 v=0
26944 On ch=1 n=d#3 v=0
26952 On ch=1 n=f#6 v=0
26960 On ch=1 n=a#6 v=42
27032 On ch=1 n=a#6 v=0
27040 On ch=1 n=f#6 v=39
27112 On ch=1 n=f#6 v=0
27116 On ch=1 n=a#4 v=56
27116 On ch=1 n=f#5 v=56
27120 On ch=1 n=a#7 v=63
27192 On ch=1 n=a#7 v=0
27200 On ch=1 n=a#6 v=40
27272 On ch=1 n=a#6 v=0
27280 On ch=1 n=f#6 v=41
27352 On ch=1 n=f#6 v=0
27360 On ch=1 n=g#7 v=65
27392 On ch=1 n=f#5 v=0
27400 On ch=1 n=a#4 v=0
27432 On ch=1 n=g#7 v=0
27440 On ch=1 n=a#6 v=46
27512 On ch=1 n=a#6 v=0
27520 On ch=1 n=f#6 v=36
27592 On ch=1 n=f#6 v=0
27596 On ch=1 n=d#3 v=59
27596 On ch=1 n=d#4 v=63
27600 On ch=1 n=f#7 v=63
27672 On ch=1 n=f#7 v=0
27680 On ch=1 n=a#6 v=43
27752 On ch=1 n=a#6 v=0
27760 On ch=1 n=f#6 v=47
27792 Par ch=1 c=64 v=0
27832 On ch=1 n=f#6 v=0
27840 On ch=1 n=c#7 v=64
27840 On ch=1 n=e4 v=63
27844 On ch=1 n=d#4 v=0
27844 On ch=1 n=d#3 v=0
27844 On ch=1 n=e3 v=61
27904 Par ch=1 c=64 v=127
27912 On ch=1 n=c#7 v=0
27920 On ch=1 n=e3 v=0
27920 On ch=1 n=a#6 v=49
27932 On ch=1 n=e4 v=0
27992 On ch=1 n=a#6 v=0
28000 On ch=1 n=f#6 v=40
28072 On ch=1 n=f#6 v=0
28080 On ch=1 n=a#7 v=62
28084 On ch=1 n=f#5 v=55
28084 On ch=1 n=a#4 v=55
28152 On ch=1 n=a#7 v=0
28160 On ch=1 n=a#6 v=50
28232 On ch=1 n=a#6 v=0
28240 On ch=1 n=f#6 v=43
28308 On ch=1 n=f#5 v=0
28312 On ch=1 n=f#6 v=0
28312 On ch=1 n=a#4 v=0
28320 On ch=1 n=g#7 v=70
28392 On ch=1 n=g#7 v=0
28400 On ch=1 n=a#6 v=51
28472 On ch=1 n=a#6 v=0
28480 On ch=1 n=f#6 v=38
28552 On ch=1 n=f#6 v=0
28556 On ch=1 n=e3 v=69
28556 On ch=1 n=e4 v=69
28560 On ch=1 n=f#7 v=65
28632 On ch=1 n=f#7 v=0
28640 On ch=1 n=a#6 v=48
28712 On ch=1 n=a#6 v=0
28720 On ch=1 n=f#6 v=40
28740 Par ch=1 c=64 v=0
28760 On ch=1 n=e4 v=0
28776 On ch=1 n=e3 v=0
28792 On ch=1 n=f#6 v=0
28796 On ch=1 n=f3 v=74
28796 Par ch=1 c=64 v=127
28800 On ch=1 n=c#6 v=44
28800 On ch=1 n=f4 v=74
28844 On ch=1 n=f3 v=0
28856 On ch=1 n=f4 v=0
28872 On ch=1 n=c#6 v=0
28880 On ch=1 n=c#7 v=66
28952 On ch=1 n=c#7 v=0
28960 On ch=1 n=a#6 v=53
29032 On ch=1 n=a#6 v=0
29036 On ch=1 n=a#4 v=58
29036 On ch=1 n=f5 v=58
29036 On ch=1 n=c#5 v=58
29040 On ch=1 n=c#7 v=59
29104 On ch=1 n=c#7 v=0
29120 On ch=1 n=c#5 v=0
29120 On ch=1 n=a#4 v=0
29120 On ch=1 n=c#7 v=44
29124 On ch=1 n=f5 v=0
29192 On ch=1 n=c#7 v=0
29200 On ch=1 n=c#8 v=53
29272 On ch=1 n=c#8 v=0
29276 On ch=1 n=e3 v=67
29280 On ch=1 n=a#7 v=58
29280 On ch=1 n=e4 v=73
29280 Par ch=1 c=64 v=0
29352 On ch=1 n=a#7 v=0
29360 On ch=1 n=c#8 v=54
29432 On ch=1 n=c#8 v=0
29440 On ch=1 n=c#7 v=44
29460 On ch=1 n=e4 v=0
29504 On ch=1 n=c#7 v=0
29516 On ch=1 n=f3 v=62
29520 On ch=1 n=c#7 v=52
29524 On ch=1 n=f4 v=72
29544 On ch=1 n=e3 v=0
29592 On ch=1 n=c#7 v=0
29600 On ch=1 n=a#6 v=59
29672 On ch=1 n=a#6 v=0
29680 On ch=1 n=c#7 v=50
29684 On ch=1 n=f4 v=0
29752 On ch=1 n=c#7 v=0
29756 On ch=1 n=f#3 v=62
29760 On ch=1 n=c#6 v=56
29764 On ch=1 n=f#4 v=74
29768 Par ch=1 c=64 v=127
29800 On ch=1 n=f3 v=0
29804 On ch=1 n=f#4 v=0
29808 On ch=1 n=f#3 v=0
29832 On ch=1 n=c#6 v=0
29840 On ch=1 n=c#7 v=49
29912 On ch=1 n=c#7 v=0
29920 On ch=1 n=a#6 v=52
29992 On ch=1 n=a#6 v=0
30000 On ch=1 n=c#7 v=51
30004 On ch=1 n=e5 v=61
30004 On ch=1 n=c#5 v=61
30004 On ch=1 n=a#4 v=61
30028 On ch=1 n=a#4 v=0
30028 On ch=1 n=c#5 v=0
30032 On ch=1 n=e5 v=0
30068 On ch=1 n=c#7 v=0
30080 On ch=1 n=c#7 v=53
30152 On ch=1 n=c#7 v=0
30160 On ch=1 n=c#8 v=61
30232 On ch=1 n=c#8 v=0
30240 On ch=1 n=a#7 v=56
30244 On ch=1 n=f4 v=76
30244 On ch=1 n=f3 v=79
30264 Par ch=1 c=64 v=0
30312 On ch=1 n=a#7 v=0
30320 On ch=1 n=c#8 v=59
30392 On ch=1 n=c#8 v=0
30400 On ch=1 n=c#7 v=53
30416 On ch=1 n=f4 v=0
30460 On ch=1 n=c#7 v=0
30476 On ch=1 n=f#4 v=76
30476 On ch=1 n=f#3 v=70
30480 On ch=1 n=c#7 v=52
30504 On ch=1 n=f3 v=0
30552 On ch=1 n=c#7 v=0
30560 On ch=1 n=a#6 v=56
30632 On ch=1 n=a#6 v=0
30640 On ch=1 n=c#7 v=46
30700 On ch=1 n=f#3 v=0
30712 On ch=1 n=c#7 v=0
30716 On ch=1 n=g3 v=68
30716 On ch=1 n=g4 v=78
30720 On ch=1 n=c#6 v=52
30724 On ch=1 n=f#4 v=0
30744 Par ch=1 c=64 v=127
30756 On ch=1 n=g4 v=0
30756 On ch=1 n=g3 v=0
30792 On ch=1 n=c#6 v=0
30800 On ch=1 n=c#7 v=62
30872 On ch=1 n=c#7 v=0
30880 On ch=1 n=a#6 v=63
30952 On ch=1 n=a#6 v=0
30960 On ch=1 n=c#7 v=64
30960 On ch=1 n=e5 v=65
30960 On ch=1 n=c#5 v=65
30964 On ch=1 n=g4 v=65
30988 On ch=1 n=g4 v=0
30988 On ch=1 n=c#5 v=0
30988 On ch=1 n=e5 v=0
31028 On ch=1 n=c#7 v=0
31040 On ch=1 n=c#7 v=53
31112 On ch=1 n=c#7 v=0
31120 On ch=1 n=c#8 v=62
31160 Par ch=1 c=64 v=0
31192 On ch=1 n=c#8 v=0
31196 On ch=1 n=g#4 v=82
31196 On ch=1 n=g#3 v=82
31200 On ch=1 n=g#7 v=62
31216 Par ch=1 c=64 v=127
31220 On ch=1 n=g#3 v=0
31224 On ch=1 n=g#4 v=0
31272 On ch=1 n=g#7 v=0
31280 On ch=1 n=c#8 v=64
31352 On ch=1 n=c#8 v=0
31360 On ch=1 n=c#7 v=51
31424 On ch=1 n=c#7 v=0
31436 On ch=1 n=e5 v=63
31436 On ch=1 n=g#4 v=63
31436 On ch=1 n=c#5 v=63
31440 On ch=1 n=c#7 v=62
31456 On ch=1 n=c#5 v=0
31460 On ch=1 n=g#4 v=0
31464 On ch=1 n=e5 v=0
31512 On ch=1 n=c#7 v=0
31520 On ch=1 n=g#6 v=66
31592 On ch=1 n=g#6 v=0
31600 On ch=1 n=c#7 v=63
31628 Par ch=1 c=64 v=0
31672 On ch=1 n=c#7 v=0
31672 On ch=1 n=a3 v=81
31672 On ch=1 n=a4 v=71
31680 On ch=1 n=c#6 v=54
31696 Par ch=1 c=64 v=127
31700 On ch=1 n=a3 v=0
31704 On ch=1 n=a4 v=0
31752 On ch=1 n=c#6 v=0
31760 On ch=1 n=c#7 v=60
31832 On ch=1 n=c#7 v=0
31840 On ch=1 n=f#6 v=56
31912 On ch=1 n=f#6 v=0
31912 On ch=1 n=a4 v=65
31916 On ch=1 n=f#5 v=65
31916 On ch=1 n=d#5 v=65
31920 On ch=1 n=c#7 v=64
31940 On ch=1 n=f#5 v=0
31944 On ch=1 n=d#5 v=0
31944 On ch=1 n=a4 v=0
31992 On ch=1 n=c#7 v=0
32000 On ch=1 n=c#6 v=57
32072 On ch=1 n=c#6 v=0
32080 On ch=1 n=c#6 v=64
32152 On ch=1 n=c#6 v=0
32160 On ch=1 n=f#5 v=65
32232 On ch=1 n=f#5 v=0
32240 On ch=1 n=c#6 v=67
32312 On ch=1 n=c#6 v=0
32320 On ch=1 n=c#5 v=56
32388 On ch=1 n=c#5 v=0
32396 On ch=1 n=a3 v=80
32396 On ch=1 n=a2 v=80
32400 On ch=1 n=c#5 v=68
32432 Par ch=1 c=64 v=0
32472 On ch=1 n=c#5 v=0
32480 On ch=1 n=f#4 v=72
32552 On ch=1 n=f#4 v=0
32560 On ch=1 n=c#5 v=66
32604 On ch=1 n=a3 v=0
32628 On ch=1 n=a2 v=0
32632 On ch=1 n=c#5 v=0
32636 On ch=1 n=g#2 v=74
32636 On ch=1 n=g#3 v=85
32640 On ch=1 n=d#4 v=64
32656 Par ch=1 c=64 v=127
32712 On ch=1 n=d#4 v=0
32720 On ch=1 n=f#4 v=66
32792 On ch=1 n=f#4 v=0
32800 On ch=1 n=c#5 v=65
32872 On ch=1 n=c#5 v=0
32880 On ch=1 n=d#5 v=66
32952 On ch=1 n=d#5 v=0
32960 On ch=1 n=f#4 v=64
33032 On ch=1 n=f#4 v=0
33040 On ch=1 n=c#5 v=70
33112 On ch=1 n=c#5 v=0
33120 On ch=1 n=d#5 v=68
33192 On ch=1 n=d#5 v=0
33200 On ch=1 n=f#5 v=70
33272 On ch=1 n=f#5 v=0
33280 On ch=1 n=c#5 v=57
33352 On ch=1 n=c#5 v=0
33360 On ch=1 n=d#5 v=59
33432 On ch=1 n=d#5 v=0
33440 On ch=1 n=f#5 v=68
33512 On ch=1 n=f#5 v=0
33520 On ch=1 n=c#6 v=73
33544 On ch=1 n=g#3 v=0
33552 On ch=1 n=g#2 v=0
33592 On ch=1 n=c#6 v=0
33600 On ch=1 n=d#5 v=57
33672 On ch=1 n=d#5 v=0
33680 On ch=1 n=f#5 v=66
33752 On ch=1 n=f#5 v=0
33760 On ch=1 n=c#6 v=64
33832 On ch=1 n=c#6 v=0
33840 On ch=1 n=d#6 v=68
33912 On ch=1 n=d#6 v=0
33920 On ch=1 n=f#5 v=62
33992 On ch=1 n=f#5 v=0
34000 On ch=1 n=c#6 v=70
34072 On ch=1 n=c#6 v=0
34080 On ch=1 n=d#6 v=60
34084 On ch=1 n=g#4 v=63
34084 On ch=1 n=c#5 v=64
34084 On ch=1 n=f#5 v=61
34152 On ch=1 n=d#6 v=0
34160 On ch=1 n=f#6 v=69
34232 On ch=1 n=f#6 v=0
34240 On ch=1 n=c#6 v=54
34312 On ch=1 n=c#6 v=0
34320 On ch=1 n=d#6 v=62
34376 On ch=1 n=g#4 v=0
34380 On ch=1 n=f#5 v=0
34384 On ch=1 n=c#5 v=0
34392 On ch=1 n=d#6 v=0
34400 On ch=1 n=c#7 v=62
34436 On ch=1 n=c#5 v=65
34436 On ch=1 n=g#4 v=61
34440 On ch=1 n=f#5 v=61
34472 On ch=1 n=c#7 v=0
34480 On ch=1 n=f#6 v=63
34504 On ch=1 n=f#5 v=0
34504 On ch=1 n=g#4 v=0
34508 On ch=1 n=c#5 v=0
34552 On ch=1 n=f#6 v=0
34560 On ch=1 n=d#6 v=53
34564 On ch=1 n=g#4 v=64
34564 On ch=1 n=c#5 v=68
34564 On ch=1 n=f#5 v=69
34632 On ch=1 n=d#6 v=0
34640 On ch=1 n=f#6 v=62
34712 On ch=1 n=f#6 v=0
34720 On ch=1 n=d#7 v=69
34792 On ch=1 n=d#7 v=0
34800 On ch=1 n=c#7 v=65
34872 On ch=1 n=c#7 v=0
34880 On ch=1 n=f#6 v=60
34952 On ch=1 n=f#6 v=0
34960 On ch=1 n=d#6 v=45
35032 On ch=1 n=d#6 v=0
35040 On ch=1 n=c#7 v=61
35112 On ch=1 n=c#7 v=0
35120 On ch=1 n=f#6 v=55
35192 On ch=1 n=f#6 v=0
35200 On ch=1 n=d#6 v=64
35272 On ch=1 n=d#6 v=0
35280 On ch=1 n=c#6 v=45
35352 On ch=1 n=c#6 v=0
35360 On ch=1 n=f#6 v=59
35432 On ch=1 n=f#6 v=0
35440 On ch=1 n=d#6 v=51
35468 On ch=1 n=f#5 v=0
35468 On ch=1 n=c#5 v=0
35480 On ch=1 n=g#4 v=0
35512 On ch=1 n=d#6 v=0
35520 On ch=1 n=c#6 v=54
35592 On ch=1 n=c#6 v=0
35600 On ch=1 n=f#5 v=47
35672 On ch=1 n=f#5 v=0
35680 On ch=1 n=d#6 v=57
35752 On ch=1 n=d#6 v=0
35760 On ch=1 n=c#6 v=52
35832 On ch=1 n=c#6 v=0
35840 On ch=1 n=f#5 v=40
35912 On ch=1 n=f#5 v=0
35920 On ch=1 n=d#5 v=45
35992 On ch=1 n=d#5 v=0
36000 On ch=1 n=c#6 v=54
36072 On ch=1 n=c#6 v=0
36080 On ch=1 n=f#5 v=52
36152 On ch=1 n=f#5 v=0
36160 On ch=1 n=d#5 v=46
36232 On ch=1 n=d#5 v=0
36240 On ch=1 n=c#5 v=43
36312 On ch=1 n=c#5 v=0
36320 On ch=1 n=f#5 v=50
36392 On ch=1 n=f#5 v=0
36400 On ch=1 n=d#5 v=42
36432 Par ch=1 c=64 v=0
36472 On ch=1 n=d#5 v=0
36476 On ch=1 n=g#2 v=59
36476 On ch=1 n=g#3 v=80
36480 On ch=1 n=g#4 v=46
36480 Par ch=1 c=64 v=127
36552 On ch=1 n=g#4 v=0
36560 On ch=1 n=d#5 v=45
36632 On ch=1 n=d#5 v=0
36640 On ch=1 n=f#5 v=53
36712 On ch=1 n=f#5 v=0
36720 On ch=1 n=g#5 v=53
36792 On ch=1 n=g#5 v=0
36800 On ch=1 n=d#5 v=46
36872 On ch=1 n=d#5 v=0
36880 On ch=1 n=f#5 v=56
36952 On ch=1 n=f#5 v=0
36960 On ch=1 n=g#5 v=60
37032 On ch=1 n=g#5 v=0
37040 On ch=1 n=d#6 v=61
37112 On ch=1 n=d#6 v=0
37120 On ch=1 n=f#5 v=46
37192 On ch=1 n=f#5 v=0
37200 On ch=1 n=g#5 v=59
37272 On ch=1 n=g#5 v=0
37280 On ch=1 n=d#6 v=60
37352 On ch=1 n=d#6 v=0
37360 On ch=1 n=f#6 v=65
37372 On ch=1 n=g#3 v=0
37380 On ch=1 n=g#2 v=0
37432 On ch=1 n=f#6 v=0
37440 On ch=1 n=g#5 v=54
37512 On ch=1 n=g#5 v=0
37520 On ch=1 n=d#6 v=60
37592 On ch=1 n=d#6 v=0
37600 On ch=1 n=f#6 v=62
37672 On ch=1 n=f#6 v=0
37680 On ch=1 n=g#6 v=63
37752 On ch=1 n=g#6 v=0
37760 On ch=1 n=d#6 v=55
37832 On ch=1 n=d#6 v=0
37840 On ch=1 n=f#6 v=67
37912 On ch=1 n=f#6 v=0
37920 On ch=1 n=g#6 v=72
37924 On ch=1 n=g#4 v=55
37924 On ch=1 n=f#5 v=64
37924 On ch=1 n=g#5 v=56
37924 On ch=1 n=c5 v=63
37992 On ch=1 n=g#6 v=0
38000 On ch=1 n=d#7 v=62
38072 On ch=1 n=d#7 v=0
38080 On ch=1 n=f#6 v=54
38152 On ch=1 n=f#6 v=0
38160 On ch=1 n=g#6 v=73
38196 On ch=1 n=c5 v=0
38204 On ch=1 n=g#5 v=0
38208 On ch=1 n=f#5 v=0
38216 On ch=1 n=g#4 v=0
38232 On ch=1 n=g#6 v=0
38240 On ch=1 n=f#7 v=70
38276 On ch=1 n=f#5 v=63
38276 On ch=1 n=g#5 v=52
38276 On ch=1 n=g#4 v=47
38276 On ch=1 n=c5 v=62
38312 On ch=1 n=f#7 v=0
38320 On ch=1 n=d#7 v=64
38328 On ch=1 n=c5 v=0
38336 On ch=1 n=g#4 v=0
38344 On ch=1 n=f#5 v=0
38348 On ch=1 n=g#5 v=0
38392 On ch=1 n=d#7 v=0
38400 On ch=1 n=g#6 v=55
38404 On ch=1 n=f#5 v=64
38404 On ch=1 n=c5 v=64
38404 On ch=1 n=g#4 v=53
38404 On ch=1 n=g#5 v=65
38472 On ch=1 n=g#6 v=0
38480 On ch=1 n=f#6 v=48
38552 On ch=1 n=f#6 v=0
38560 On ch=1 n=d#7 v=63
38632 On ch=1 n=d#7 v=0
38640 On ch=1 n=g#6 v=66
38712 On ch=1 n=g#6 v=0
38720 On ch=1 n=f#6 v=63
38792 On ch=1 n=f#6 v=0
38800 On ch=1 n=d#6 v=54
38872 On ch=1 n=d#6 v=0
38880 On ch=1 n=g#6 v=59
38952 On ch=1 n=g#6 v=0
38960 On ch=1 n=f#6 v=64
39032 On ch=1 n=f#6 v=0
39032 On ch=1 n=f#5 v=0
39036 On ch=1 n=g#5 v=0
39040 On ch=1 n=d#6 v=52
39116 On ch=1 n=d#6 v=0
39120 On ch=1 n=g#5 v=55
39176 On ch=1 n=c5 v=0
39196 On ch=1 n=g#5 v=0
39200 On ch=1 n=g#4 v=0
39200 On ch=1 n=f#6 v=48
39276 On ch=1 n=f#6 v=0
39280 On ch=1 n=d#6 v=58
39356 On ch=1 n=d#6 v=0
39360 On ch=1 n=g#5 v=57
39432 On ch=1 n=g#5 v=0
39440 On ch=1 n=f#5 v=48
39512 On ch=1 n=f#5 v=0
39520 On ch=1 n=d#6 v=51
39592 On ch=1 n=d#6 v=0
39600 On ch=1 n=g#5 v=55
39672 On ch=1 n=g#5 v=0
39680 On ch=1 n=f#5 v=42
39752 On ch=1 n=f#5 v=0
39760 On ch=1 n=d#5 v=39
39832 On ch=1 n=d#5 v=0
39840 On ch=1 n=g#5 v=44
39912 On ch=1 n=g#5 v=0
39920 On ch=1 n=f#5 v=54
39992 On ch=1 n=f#5 v=0
40000 On ch=1 n=d#5 v=54
40072 On ch=1 n=d#5 v=0
40080 On ch=1 n=g#4 v=53
40152 On ch=1 n=g#4 v=0
40160 On ch=1 n=f#5 v=42
40232 On ch=1 n=f#5 v=0
40240 On ch=1 n=d#5 v=44
40260 Par ch=1 c=64 v=0
40312 On ch=1 n=d#5 v=0
40316 Par ch=1 c=64 v=127
40320 On ch=1 n=c#5 v=46
40320 On ch=1 n=c#3 v=62
40392 On ch=1 n=c#5 v=0
40400 On ch=1 n=c#3 v=0
40400 On ch=1 n=c#6 v=53
40472 On ch=1 n=c#6 v=0
40480 On ch=1 n=g#5 v=50
40552 On ch=1 n=g#5 v=0
40560 On ch=1 n=c#6 v=50
40632 On ch=1 n=c#6 v=0
40640 On ch=1 n=g#5 v=46
40712 On ch=1 n=g#5 v=0
40720 On ch=1 n=g#6 v=54
40792 On ch=1 n=g#6 v=0
40796 On ch=1 n=g#4 v=54
40796 On ch=1 n=f5 v=58
40800 On ch=1 n=c#6 v=47
40872 On ch=1 n=c#6 v=0
40880 On ch=1 n=g#6 v=43
40952 On ch=1 n=g#6 v=0
40960 On ch=1 n=g#5 v=46
41032 On ch=1 n=g#5 v=0
41040 On ch=1 n=c#6 v=48
41112 On ch=1 n=c#6 v=0
41120 On ch=1 n=g#5 v=44
41192 On ch=1 n=g#5 v=0
41200 On ch=1 n=c#6 v=42
41272 On ch=1 n=c#6 v=0
41280 On ch=1 n=c#5 v=48
41352 On ch=1 n=c#5 v=0
41360 On ch=1 n=c#6 v=46
41432 On ch=1 n=c#6 v=0
41440 On ch=1 n=g#5 v=45
41512 On ch=1 n=g#5 v=0
41520 On ch=1 n=c#6 v=44
41592 On ch=1 n=c#6 v=0
41600 On ch=1 n=g#5 v=37
41672 On ch=1 n=g#5 v=0
41680 On ch=1 n=g#6 v=45
41708 On ch=1 n=g#4 v=0
41720 On ch=1 n=f5 v=0
41744 Par ch=1 c=64 v=0
41752 On ch=1 n=g#6 v=0
41756 On ch=1 n=g4 v=50
41756 On ch=1 n=e5 v=59
41760 On ch=1 n=c#6 v=36
41832 On ch=1 n=c#6 v=0
41840 On ch=1 n=g#6 v=38
41912 On ch=1 n=g#6 v=0
41920 On ch=1 n=g#5 v=43
41992 On ch=1 n=g#5 v=0
42000 On ch=1 n=c#6 v=52
42072 On ch=1 n=c#6 v=0
42080 On ch=1 n=g4 v=0
42080 On ch=1 n=g#5 v=49
42080 Par ch=1 c=64 v=127
42116 On ch=1 n=g#4 v=51
42116 On ch=1 n=f5 v=51
42124 On ch=1 n=e5 v=0
42152 On ch=1 n=g#5 v=0
42160 On ch=1 n=c#6 v=49
42180 On ch=1 n=f5 v=0
42212 On ch=1 n=g#4 v=0
42232 On ch=1 n=c#6 v=0
42236 On ch=1 n=c#4 v=55
42240 On ch=1 n=c#5 v=55
42320 On ch=1 n=c#6 v=42
42372 On ch=1 n=c#4 v=0
42376 On ch=1 n=c#5 v=0
42392 On ch=1 n=c#6 v=0
42400 On ch=1 n=g#5 v=46
42472 On ch=1 n=g#5 v=0
42480 On ch=1 n=c#6 v=50
42548 On ch=1 n=c#6 v=0
42560 On ch=1 n=c#6 v=38
42632 On ch=1 n=c#6 v=0
42640 On ch=1 n=c#7 v=50
42712 On ch=1 n=c#7 v=0
42720 On ch=1 n=g#6 v=50
42720 On ch=1 n=g#4 v=55
42720 On ch=1 n=f5 v=58
42792 On ch=1 n=g#6 v=0
42800 On ch=1 n=c#7 v=37
42872 On ch=1 n=c#7 v=0
42880 On ch=1 n=c#6 v=41
42944 On ch=1 n=c#6 v=0
42960 On ch=1 n=c#6 v=46
43032 On ch=1 n=c#6 v=0
43040 On ch=1 n=g#5 v=48
43112 On ch=1 n=g#5 v=0
43120 On ch=1 n=c#6 v=48
43192 On ch=1 n=c#6 v=0
43200 On ch=1 n=g#5 v=41
43272 On ch=1 n=g#5 v=0
43280 On ch=1 n=g#6 v=43
43352 On ch=1 n=g#6 v=0
43360 On ch=1 n=c#6 v=43
43432 On ch=1 n=c#6 v=0
43440 On ch=1 n=g#6 v=50
43508 On ch=1 n=g#6 v=0
43520 On ch=1 n=g#6 v=50
43592 On ch=1 n=g#6 v=0
43600 On ch=1 n=g#7 v=49
43608 On ch=1 n=g#4 v=0
43620 On ch=1 n=f5 v=0
43652 Par ch=1 c=64 v=0
43672 On ch=1 n=g#7 v=0
43680 On ch=1 n=c#7 v=52
43684 On ch=1 n=e5 v=58
43684 On ch=1 n=g4 v=51
43752 On ch=1 n=c#7 v=0
43760 On ch=1 n=g#7 v=54
43832 On ch=1 n=g#7 v=0
43840 On ch=1 n=g#6 v=45
43904 On ch=1 n=g#6 v=0
43920 On ch=1 n=g#6 v=56
43992 On ch=1 n=g#6 v=0
44000 On ch=1 n=c#6 v=52
44012 Par ch=1 c=64 v=127
44020 On ch=1 n=g4 v=0
44036 On ch=1 n=g#4 v=63
44036 On ch=1 n=f5 v=63
44040 On ch=1 n=e5 v=0
44072 On ch=1 n=c#6 v=0
44080 On ch=1 n=g#6 v=54
44084 On ch=1 n=f5 v=0
44116 On ch=1 n=g#4 v=0
44152 On ch=1 n=g#6 v=0
44160 On ch=1 n=c#6 v=43
44160 On ch=1 n=c#4 v=55
44188 On ch=1 n=c#4 v=0
44232 On ch=1 n=c#6 v=0
44240 On ch=1 n=d#6 v=42
44312 On ch=1 n=d#6 v=0
44320 On ch=1 n=c#6 v=50
44392 On ch=1 n=c#6 v=0
44400 On ch=1 n=d#7 v=54
44400 On ch=1 n=g#4 v=51
44404 On ch=1 n=f5 v=52
44404 On ch=1 n=c#5 v=58
44472 On ch=1 n=d#7 v=0
44480 On ch=1 n=c#7 v=45
44552 On ch=1 n=c#7 v=0
44560 On ch=1 n=d#8 v=62
44568 On ch=1 n=f5 v=0
44568 On ch=1 n=g#4 v=0
44572 On ch=1 n=c#5 v=0
44632 On ch=1 n=d#8 v=0
44636 On ch=1 n=c#5 v=60
44636 On ch=1 n=a4 v=50
44636 On ch=1 n=f#5 v=47
44640 On ch=1 n=c#8 v=52
44712 On ch=1 n=c#8 v=0
44720 On ch=1 n=d#8 v=54
44792 On ch=1 n=d#8 v=0
44800 On ch=1 n=c#8 v=47
44820 On ch=1 n=f#5 v=0
44828 On ch=1 n=a4 v=0
44844 On ch=1 n=c#5 v=0
44872 On ch=1 n=c#8 v=0
44876 On ch=1 n=c#5 v=57
44876 On ch=1 n=a#4 v=54
44876 On ch=1 n=g5 v=66
44880 On ch=1 n=c#7 v=50
44952 On ch=1 n=c#7 v=0
44956 Par ch=1 c=64 v=0
44960 On ch=1 n=d#7 v=54
45032 On ch=1 n=d#7 v=0
45036 On ch=1 n=g5 v=0
45040 On ch=1 n=c#7 v=49
45056 On ch=1 n=a#4 v=0
45072 On ch=1 n=c#5 v=0
45112 On ch=1 n=c#7 v=0
45116 On ch=1 n=c#5 v=68
45116 On ch=1 n=g#5 v=73
45116 On ch=1 n=b4 v=67
45120 On ch=1 n=c#6 v=49
45124 Par ch=1 c=64 v=127
45192 On ch=1 n=c#6 v=0
45200 On ch=1 n=d#6 v=47
45272 On ch=1 n=d#6 v=0
45280 On ch=1 n=c#6 v=49
45352 On ch=1 n=c#6 v=0
45360 On ch=1 n=d#7 v=60
45432 On ch=1 n=d#7 v=0
45440 On ch=1 n=c#7 v=50
45512 On ch=1 n=c#7 v=0
45520 On ch=1 n=d#8 v=58
45588 On ch=1 n=b4 v=0
45588 On ch=1 n=g#5 v=0
45592 On ch=1 n=d#8 v=0
45596 On ch=1 n=a#4 v=55
45596 On ch=1 n=g5 v=58
45600 On ch=1 n=c#5 v=0
45600 On ch=1 n=c#8 v=50
45600 On ch=1 n=c#5 v=59
45672 On ch=1 n=c#8 v=0
45680 On ch=1 n=d#8 v=52
45752 On ch=1 n=d#8 v=0
45760 On ch=1 n=c#8 v=47
45780 On ch=1 n=g5 v=0
45800 On ch=1 n=c#5 v=0
45800 On ch=1 n=a#4 v=0
45832 On ch=1 n=c#8 v=0
45836 On ch=1 n=c#5 v=61
45836 On ch=1 n=a4 v=62
45840 On ch=1 n=c#7 v=48
45840 On ch=1 n=f#5 v=52
45912 On ch=1 n=c#7 v=0
45920 On ch=1 n=d#7 v=47
45928 Par ch=1 c=64 v=0
45972 On ch=1 n=a4 v=0
45992 On ch=1 n=d#7 v=0
46000 On ch=1 n=f#5 v=0
46000 On ch=1 n=c#7 v=40
46044 On ch=1 n=c#5 v=0
46048 Par ch=1 c=64 v=127
46072 On ch=1 n=c#7 v=0
46076 On ch=1 n=f5 v=57
46076 On ch=1 n=g#4 v=59
46076 On ch=1 n=b4 v=62
46080 On ch=1 n=c#8 v=42
46148 On ch=1 n=b4 v=0
46148 On ch=1 n=g#4 v=0
46152 On ch=1 n=c#8 v=0
46152 On ch=1 n=f5 v=0
46160 On ch=1 n=d#8 v=48
46232 On ch=1 n=d#8 v=0
46240 On ch=1 n=c#8 v=43
46304 Par ch=1 c=64 v=0
46312 On ch=1 n=c#8 v=0
46312 On ch=1 n=c#4 v=58
46320 On ch=1 n=c#7 v=40
46328 Par ch=1 c=64 v=127
46360 On ch=1 n=c#4 v=0
46392 On ch=1 n=c#7 v=0
46400 On ch=1 n=d#7 v=51
46472 On ch=1 n=d#7 v=0
46480 On ch=1 n=c#7 v=44
46552 On ch=1 n=c#7 v=0
46556 On ch=1 n=b4 v=49
46556 On ch=1 n=c#5 v=47
46556 On ch=1 n=g#5 v=56
46556 On ch=1 n=f5 v=53
46560 On ch=1 n=c#8 v=48
46632 On ch=1 n=c#8 v=0
46640 On ch=1 n=d#8 v=50
46712 On ch=1 n=d#8 v=0
46720 On ch=1 n=c#8 v=46
46788 On ch=1 n=f5 v=0
46792 On ch=1 n=c#8 v=0
46796 On ch=1 n=a#5 v=62
46800 On ch=1 n=c#7 v=45
46808 On ch=1 n=c#5 v=0
46820 On ch=1 n=g#5 v=0
46872 On ch=1 n=c#7 v=0
46880 On ch=1 n=d#7 v=46
46952 On ch=1 n=d#7 v=0
46960 On ch=1 n=c#7 v=44
46972 On ch=1 n=b4 v=0
47004 On ch=1 n=a#5 v=0
47032 On ch=1 n=c#7 v=0
47036 On ch=1 n=b5 v=66
47040 On ch=1 n=c#8 v=55
47040 On ch=1 n=c#5 v=51
47040 On ch=1 n=f5 v=54
47044 On ch=1 n=b4 v=49
47112 On ch=1 n=c#8 v=0
47120 On ch=1 n=d#8 v=40
47192 On ch=1 n=d#8 v=0
47200 On ch=1 n=c#8 v=56
47272 On ch=1 n=c#8 v=0
47280 On ch=1 n=c#7 v=43
47352 On ch=1 n=c#7 v=0
47360 On ch=1 n=d#7 v=57
47428 Par ch=1 c=64 v=0
47432 On ch=1 n=d#7 v=0
47440 On ch=1 n=c#7 v=48
47512 On ch=1 n=c#7 v=0
47516 On ch=1 n=a#5 v=69
47520 On ch=1 n=c#8 v=53
47540 On ch=1 n=b5 v=0
47592 On ch=1 n=c#8 v=0
47600 On ch=1 n=d#8 v=64
47672 On ch=1 n=d#8 v=0
47680 On ch=1 n=c#8 v=59
47752 On ch=1 n=c#8 v=0
47760 On ch=1 n=c#7 v=54
47760 On ch=1 n=g#5 v=69
47776 On ch=1 n=a#5 v=0
47832 On ch=1 n=c#7 v=0
47840 On ch=1 n=d#7 v=64
47912 On ch=1 n=d#7 v=0
47920 On ch=1 n=f5 v=0
47920 On ch=1 n=c#5 v=0
47920 On ch=1 n=c#7 v=53
47924 On ch=1 n=g#5 v=0
47932 On ch=1 n=b4 v=0
47992 On ch=1 n=c#7 v=0
47996 On ch=1 n=c#5 v=69
47996 On ch=1 n=f#5 v=57
47996 On ch=1 n=a#4 v=67
47996 On ch=1 n=f#4 v=55
48000 On ch=1 n=f#7 v=64
48000 Par ch=1 c=64 v=127
48052 On ch=1 n=f#4 v=0
48052 On ch=1 n=a#4 v=0
48060 On ch=1 n=c#5 v=0
48068 On ch=1 n=f#5 v=0
48072 On ch=1 n=f#7 v=0
48080 On ch=1 n=a#7 v=52
48152 On ch=1 n=a#7 v=0
48160 On ch=1 n=c#7 v=59
48216 Par ch=1 c=64 v=0
48232 On ch=1 n=c#7 v=0
48236 On ch=1 n=d#5 v=73
48236 On ch=1 n=f#5 v=57
48236 On ch=1 n=b4 v=76
48236 On ch=1 n=f#4 v=42
48240 On ch=1 n=f#7 v=58
48288 On ch=1 n=f#4 v=0
48288 On ch=1 n=b4 v=0
48296 On ch=1 n=f#5 v=0
48300 On ch=1 n=d#5 v=0
48312 On ch=1 n=f#7 v=0
48320 On ch=1 n=d#7 v=61
48392 On ch=1 n=d#7 v=0
48400 On ch=1 n=f#7 v=62
48472 On ch=1 n=f#7 v=0
48472 On ch=1 n=f#5 v=66
48476 On ch=1 n=f#4 v=57
48476 On ch=1 n=c#5 v=76
48476 On ch=1 n=a#4 v=69
48480 On ch=1 n=c#7 v=53
48516 On ch=1 n=f#4 v=0
48520 On ch=1 n=f#5 v=0
48524 On ch=1 n=c#5 v=0
48528 On ch=1 n=a#4 v=0
48552 On ch=1 n=c#7 v=0
48560 On ch=1 n=f#7 v=59
48632 On ch=1 n=f#7 v=0
48640 On ch=1 n=a#6 v=54
48712 On ch=1 n=a#6 v=0
48720 On ch=1 n=c#7 v=58
48792 On ch=1 n=c#7 v=0
48800 On ch=1 n=f#6 v=52
48872 On ch=1 n=f#6 v=0
48880 On ch=1 n=a#6 v=65
48952 On ch=1 n=a#6 v=0
48952 On ch=1 n=f#3 v=77
48952 On ch=1 n=f#4 v=67
48960 On ch=1 n=f#6 v=40
48992 On ch=1 n=f#3 v=0
49000 On ch=1 n=f#4 v=0
49032 On ch=1 n=f#6 v=0
49040 On ch=1 n=a#6 v=34
49112 On ch=1 n=a#6 v=0
49120 On ch=1 n=c#6 v=35
49192 On ch=1 n=c#6 v=0
49196 On ch=1 n=f#5 v=50
49196 On ch=1 n=d#5 v=58
49200 On ch=1 n=f#6 v=43
49204 On ch=1 n=b4 v=45
49240 On ch=1 n=f#5 v=0
49244 On ch=1 n=b4 v=0
49248 On ch=1 n=d#5 v=0
49272 On ch=1 n=f#6 v=0
49280 On ch=1 n=d#6 v=44
49352 On ch=1 n=d#6 v=0
49360 On ch=1 n=f#6 v=43
49432 On ch=1 n=f#6 v=0
49436 On ch=1 n=f#5 v=48
49436 On ch=1 n=a#4 v=54
49436 On ch=1 n=c#5 v=52
49440 On ch=1 n=c#6 v=43
49468 On ch=1 n=c#5 v=0
49476 On ch=1 n=a#4 v=0
49476 On ch=1 n=f#5 v=0
49512 On ch=1 n=c#6 v=0
49520 On ch=1 n=f#6 v=44
49592 On ch=1 n=f#6 v=0
49600 On ch=1 n=a#5 v=39
49672 On ch=1 n=a#5 v=0
49680 On ch=1 n=c#6 v=41
49752 On ch=1 n=c#6 v=0
49760 On ch=1 n=f#5 v=38
49832 On ch=1 n=f#5 v=0
49840 On ch=1 n=a#5 v=46
49912 On ch=1 n=a#5 v=0
49920 On ch=1 n=c#5 v=39
49920 Par ch=1 c=64 v=127
49924 On ch=1 n=c#3 v=59
49928 On ch=1 n=c#4 v=50
49956 On ch=1 n=c#4 v=0
49956 On ch=1 n=c#3 v=0
49992 On ch=1 n=c#5 v=0
50000 On ch=1 n=c#6 v=43
50072 On ch=1 n=c#6 v=0
50080 On ch=1 n=g#5 v=42
50124 Par ch=1 c=64 v=0
50152 On ch=1 n=g#5 v=0
50160 On ch=1 n=c#6 v=35
50168 On ch=1 n=f5 v=42
50172 On ch=1 n=c#5 v=54
50176 On ch=1 n=g#4 v=56
50192 On ch=1 n=f5 v=0
50196 On ch=1 n=c#5 v=0
50200 On ch=1 n=g#4 v=0
50232 On ch=1 n=c#6 v=0
50240 On ch=1 n=g#5 v=39
50312 On ch=1 n=g#5 v=0
50320 On ch=1 n=g#6 v=42
50388 Par ch=1 c=64 v=127
50392 On ch=1 n=g#6 v=0
50396 On ch=1 n=d#5 v=42
50396 On ch=1 n=b4 v=45
50400 On ch=1 n=g#5 v=48
50400 On ch=1 n=g#4 v=53
50420 On ch=1 n=g#4 v=0
50420 On ch=1 n=d#5 v=0
50424 On ch=1 n=b4 v=0
50472 On ch=1 n=g#5 v=0
50480 On ch=1 n=g#6 v=53
50552 On ch=1 n=g#6 v=0
50560 On ch=1 n=d#6 v=46
50632 On ch=1 n=d#6 v=0
50636 On ch=1 n=g#3 v=58
50640 On ch=1 n=g#6 v=38
50684 On ch=1 n=g#3 v=0
50712 On ch=1 n=g#6 v=0
50720 On ch=1 n=d#6 v=42
50792 On ch=1 n=d#6 v=0
50800 On ch=1 n=d#7 v=48
50864 Par ch=1 c=64 v=0
50872 On ch=1 n=d#7 v=0
50876 On ch=1 n=c#4 v=59
50880 On ch=1 n=d#6 v=43
50952 On ch=1 n=d#6 v=0
50960 On ch=1 n=d#7 v=47
51032 On ch=1 n=d#7 v=0
51040 On ch=1 n=g#6 v=48
51112 On ch=1 n=g#6 v=0
51116 On ch=1 n=d#5 v=61
51116 On ch=1 n=g#4 v=50
51116 On ch=1 n=b4 v=63
51120 On ch=1 n=d#7 v=47
51148 On ch=1 n=b4 v=0
51152 On ch=1 n=g#4 v=0
51160 On ch=1 n=d#5 v=0
51192 On ch=1 n=d#7 v=0
51200 On ch=1 n=g#6 v=51
51272 On ch=1 n=g#6 v=0
51280 On ch=1 n=g#7 v=63
51348 Par ch=1 c=64 v=127
51352 On ch=1 n=g#7 v=0
51356 On ch=1 n=g#4 v=48
51356 On ch=1 n=b4 v=64
51356 On ch=1 n=c#5 v=62
51360 On ch=1 n=g#6 v=52
51400 On ch=1 n=b4 v=0
51400 On ch=1 n=g#4 v=0
51404 On ch=1 n=c#5 v=0
51432 On ch=1 n=g#6 v=0
51436 On ch=1 n=c#4 v=0
51440 On ch=1 n=g#7 v=52
51512 On ch=1 n=g#7 v=0
51520 On ch=1 n=c#7 v=46
51592 On ch=1 n=c#7 v=0
51600 On ch=1 n=g#7 v=62
51636 Par ch=1 c=64 v=0
51672 On ch=1 n=g#7 v=0
51680 On ch=1 n=c#7 v=43
51752 On ch=1 n=c#7 v=0
51760 On ch=1 n=c#8 v=49
51804 Par ch=1 c=64 v=127
51832 On ch=1 n=c#8 v=0
51836 On ch=1 n=c#5 v=74
51836 On ch=1 n=f#5 v=69
51836 On ch=1 n=f#4 v=68
51836 On ch=1 n=a#4 v=70
51840 On ch=1 n=f#7 v=61
51856 On ch=1 n=a#4 v=0
51864 On ch=1 n=f#4 v=0
51868 On ch=1 n=c#5 v=0
51880 On ch=1 n=f#5 v=0
51912 On ch=1 n=f#7 v=0
51920 On ch=1 n=a#7 v=74
51992 On ch=1 n=a#7 v=0
52000 On ch=1 n=c#7 v=64
52056 Par ch=1 c=64 v=0
52072 On ch=1 n=c#7 v=0
52080 On ch=1 n=f#7 v=62
52080 On ch=1 n=d#5 v=82
52084 On ch=1 n=f#4 v=62
52084 On ch=1 n=f#5 v=70
52084 On ch=1 n=b4 v=81
52112 On ch=1 n=b4 v=0
52116 On ch=1 n=f#4 v=0
52124 On ch=1 n=f#5 v=0
52124 On ch=1 n=d#5 v=0
52152 On ch=1 n=f#7 v=0
52160 On ch=1 n=d#7 v=55
52232 On ch=1 n=d#7 v=0
52240 On ch=1 n=f#7 v=64
52312 On ch=1 n=f#7 v=0
52316 On ch=1 n=f#4 v=65
52316 On ch=1 n=c#5 v=78
52320 On ch=1 n=c#7 v=58
52320 On ch=1 n=a#4 v=77
52324 On ch=1 n=f#5 v=72
52352 On ch=1 n=f#5 v=0
52352 On ch=1 n=f#4 v=0
52356 On ch=1 n=c#5 v=0
52360 On ch=1 n=a#4 v=0
52392 On ch=1 n=c#7 v=0
52400 On ch=1 n=f#7 v=64
52472 On ch=1 n=f#7 v=0
52480 On ch=1 n=a#6 v=57
52552 On ch=1 n=a#6 v=0
52560 On ch=1 n=c#7 v=64
52632 On ch=1 n=c#7 v=0
52640 On ch=1 n=f#6 v=55
52712 On ch=1 n=f#6 v=0
52720 On ch=1 n=a#6 v=66
52792 On ch=1 n=a#6 v=0
52800 On ch=1 n=f#6 v=46
52804 On ch=1 n=f#3 v=63
52804 On ch=1 n=f#4 v=58
52836 On ch=1 n=f#4 v=0
52836 On ch=1 n=f#3 v=0
52872 On ch=1 n=f#6 v=0
52880 On ch=1 n=a#6 v=54
52952 On ch=1 n=a#6 v=0
52960 On ch=1 n=c#6 v=43
53032 On ch=1 n=c#6 v=0
53040 On ch=1 n=f#6 v=47
53044 On ch=1 n=b4 v=55
53048 On ch=1 n=d#5 v=60
53048 On ch=1 n=f#5 v=46
53072 On ch=1 n=f#5 v=0
53084 On ch=1 n=d#5 v=0
53092 On ch=1 n=b4 v=0
53112 On ch=1 n=f#6 v=0
53120 On ch=1 n=d#6 v=43
53192 On ch=1 n=d#6 v=0
53200 On ch=1 n=f#6 v=43
53272 On ch=1 n=f#6 v=0
53280 On ch=1 n=c#6 v=44
53284 On ch=1 n=f#5 v=52
53284 On ch=1 n=a#4 v=53
53284 On ch=1 n=c#5 v=56
53304 On ch=1 n=c#5 v=0
53308 On ch=1 n=a#4 v=0
53312 On ch=1 n=f#5 v=0
53352 On ch=1 n=c#6 v=0
53360 On ch=1 n=f#6 v=52
53432 On ch=1 n=f#6 v=0
53440 On ch=1 n=a#5 v=44
53512 On ch=1 n=a#5 v=0
53520 On ch=1 n=c#6 v=48
53592 On ch=1 n=c#6 v=0
53600 On ch=1 n=f#5 v=39
53672 On ch=1 n=f#5 v=0
53680 On ch=1 n=a#5 v=41
53752 On ch=1 n=a#5 v=0
53752 Par ch=1 c=64 v=127
53756 On ch=1 n=b3 v=58
53760 On ch=1 n=d#5 v=59
53816 On ch=1 n=b3 v=0
53832 On ch=1 n=d#5 v=0
53840 On ch=1 n=d#6 v=34
53912 On ch=1 n=d#6 v=0
53920 On ch=1 n=g#5 v=38
53992 On ch=1 n=g#5 v=0
54000 On ch=1 n=d#6 v=41
54004 On ch=1 n=d#5 v=54
54004 On ch=1 n=g#4 v=58
54072 On ch=1 n=d#6 v=0
54080 On ch=1 n=g#5 v=61
54152 On ch=1 n=g#5 v=0
54160 On ch=1 n=g#6 v=32
54188 On ch=1 n=d#5 v=0
54200 Par ch=1 c=64 v=0
54232 On ch=1 n=g#6 v=0
54236 Par ch=1 c=64 v=127
54240 On ch=1 n=a#5 v=64
54244 On ch=1 n=a#4 v=54
54244 On ch=1 n=f4 v=54
54244 On ch=1 n=d5 v=54
54248 On ch=1 n=g#4 v=0
54312 On ch=1 n=a#5 v=0
54320 On ch=1 n=a#6 v=45
54340 On ch=1 n=d5 v=0
54356 On ch=1 n=f4 v=0
54360 On ch=1 n=a#4 v=0
54392 On ch=1 n=a#6 v=0
54400 On ch=1 n=a#5 v=44
54472 On ch=1 n=a#5 v=0
54476 On ch=1 n=a#3 v=58
54480 On ch=1 n=a#6 v=43
54552 On ch=1 n=a#6 v=0
54560 On ch=1 n=a#5 v=38
54632 On ch=1 n=a#5 v=0
54640 On ch=1 n=a#6 v=37
54656 Par ch=1 c=64 v=0
54712 On ch=1 n=a#6 v=0
54712 Par ch=1 c=64 v=127
54716 On ch=1 n=b3 v=66
54720 On ch=1 n=d#6 v=63
54748 On ch=1 n=a#3 v=0
54768 On ch=1 n=b3 v=0
54792 On ch=1 n=d#6 v=0
54800 On ch=1 n=d#7 v=38
54872 On ch=1 n=d#7 v=0
54880 On ch=1 n=g#6 v=45
54952 On ch=1 n=g#6 v=0
54960 On ch=1 n=d#7 v=40
54964 On ch=1 n=g#4 v=62
54964 On ch=1 n=d#5 v=64
55032 On ch=1 n=d#7 v=0
55040 On ch=1 n=g#6 v=68
55112 On ch=1 n=g#6 v=0
55120 On ch=1 n=g#7 v=47
55148 Par ch=1 c=64 v=0
55176 On ch=1 n=d#5 v=0
55192 On ch=1 n=g#7 v=0
55196 On ch=1 n=a#4 v=63
55196 On ch=1 n=f4 v=63
55200 On ch=1 n=a#6 v=76
55200 On ch=1 n=d5 v=63
55200 Par ch=1 c=64 v=127
55212 On ch=1 n=g#4 v=0
55272 On ch=1 n=a#6 v=0
55280 On ch=1 n=a#7 v=62
55296 On ch=1 n=d5 v=0
55312 On ch=1 n=f4 v=0
55312 On ch=1 n=a#4 v=0
55352 On ch=1 n=a#7 v=0
55360 On ch=1 n=a#6 v=44
55416 Par ch=1 c=64 v=0
55432 On ch=1 n=a#6 v=0
55440 On ch=1 n=a#7 v=59
55444 On ch=1 n=a#3 v=62
55500 On ch=1 n=a#3 v=0
55512 On ch=1 n=a#7 v=0
55520 On ch=1 n=a#6 v=46
55592 On ch=1 n=a#6 v=0
55600 On ch=1 n=a#7 v=59
55672 On ch=1 n=a#7 v=0
55680 On ch=1 n=a#6 v=82
55680 On ch=1 n=b3 v=70
55700 Par ch=1 c=64 v=127
55728 On ch=1 n=b3 v=0
55752 On ch=1 n=a#6 v=0
55760 On ch=1 n=a#7 v=57
55832 On ch=1 n=a#7 v=0
55840 On ch=1 n=d#7 v=54
55912 On ch=1 n=d#7 v=0
55920 On ch=1 n=a#7 v=42
55920 On ch=1 n=d#5 v=62
55920 On ch=1 n=b4 v=62
55920 On ch=1 n=g#5 v=62
55968 On ch=1 n=g#5 v=0
55968 On ch=1 n=b4 v=0
55968 On ch=1 n=d#5 v=0
55992 On ch=1 n=a#7 v=0
56000 On ch=1 n=g#6 v=75
56072 On ch=1 n=g#6 v=0
56080 On ch=1 n=g#7 v=49
56124 Par ch=1 c=64 v=0
56152 On ch=1 n=g#7 v=0
56156 Par ch=1 c=64 v=127
56160 On ch=1 n=g#6 v=78
56160 On ch=1 n=c#4 v=69
56208 On ch=1 n=c#4 v=0
56232 On ch=1 n=g#6 v=0
56240 On ch=1 n=g#7 v=52
56312 On ch=1 n=g#7 v=0
56320 On ch=1 n=c#7 v=55
56392 On ch=1 n=c#7 v=0
56400 On ch=1 n=g#7 v=62
56400 On ch=1 n=c#5 v=64
56400 On ch=1 n=a#4 v=64
56400 On ch=1 n=f#5 v=64
56448 On ch=1 n=f#5 v=0
56448 On ch=1 n=a#4 v=0
56448 On ch=1 n=c#5 v=0
56472 On ch=1 n=g#7 v=0
56480 On ch=1 n=f#6 v=83
56552 On ch=1 n=f#6 v=0
56560 On ch=1 n=f#7 v=57
56568 Par ch=1 c=64 v=0
56616 Par ch=1 c=64 v=127
56632 On ch=1 n=f#7 v=0
56640 On ch=1 n=c#6 v=82
56640 On ch=1 n=b3 v=71
56688 On ch=1 n=b3 v=0
56712 On ch=1 n=c#6 v=0
56720 On ch=1 n=c#7 v=61
56792 On ch=1 n=c#7 v=0
56800 On ch=1 n=g#6 v=54
56872 On ch=1 n=g#6 v=0
56880 On ch=1 n=c#7 v=43
56880 On ch=1 n=b4 v=65
56880 On ch=1 n=c#5 v=65
56880 On ch=1 n=g#5 v=65
56880 On ch=1 n=f5 v=65
56928 On ch=1 n=f5 v=0
56928 On ch=1 n=g#5 v=0
56928 On ch=1 n=c#5 v=0
56928 On ch=1 n=b4 v=0
56952 On ch=1 n=c#7 v=0
56960 On ch=1 n=g#6 v=83
57032 On ch=1 n=g#6 v=0
57040 On ch=1 n=g#7 v=55
57056 Par ch=1 c=64 v=0
57104 Par ch=1 c=64 v=127
57112 On ch=1 n=g#7 v=0
57120 On ch=1 n=f#6 v=87
57120 On ch=1 n=a#3 v=70
57168 On ch=1 n=a#3 v=0
57192 On ch=1 n=f#6 v=0
57200 On ch=1 n=f#7 v=66
57272 On ch=1 n=f#7 v=0
57280 On ch=1 n=c#7 v=59
57352 On ch=1 n=c#7 v=0
57360 On ch=1 n=f#7 v=45
57360 On ch=1 n=f#5 v=64
57360 On ch=1 n=a#5 v=64
57360 On ch=1 n=a#4 v=64
57360 On ch=1 n=c#5 v=64
57408 On ch=1 n=c#5 v=0
57408 On ch=1 n=a#4 v=0
57408 On ch=1 n=a#5 v=0
57408 On ch=1 n=f#5 v=0
57432 On ch=1 n=f#7 v=0
57440 On ch=1 n=c#7 v=80
57512 On ch=1 n=c#7 v=0
57520 On ch=1 n=c#8 v=61
57532 Par ch=1 c=64 v=0
57580 Par ch=1 c=64 v=127
57592 On ch=1 n=c#8 v=0
57600 On ch=1 n=a#6 v=75
57600 On ch=1 n=b3 v=63
57648 On ch=1 n=b3 v=0
57672 On ch=1 n=a#6 v=0
57680 On ch=1 n=a#7 v=43
57752 On ch=1 n=a#7 v=0
57760 On ch=1 n=d#7 v=47
57832 On ch=1 n=d#7 v=0
57840 On ch=1 n=a#7 v=42
57840 On ch=1 n=g#5 v=55
57840 On ch=1 n=d#5 v=55
57840 On ch=1 n=b4 v=55
57888 On ch=1 n=b4 v=0
57888 On ch=1 n=d#5 v=0
57888 On ch=1 n=g#5 v=0
57912 On ch=1 n=a#7 v=0
57920 On ch=1 n=g#6 v=69
57992 On ch=1 n=g#6 v=0
58000 On ch=1 n=g#7 v=36
58020 Par ch=1 c=64 v=0
58060 Par ch=1 c=64 v=127
58072 On ch=1 n=g#7 v=0
58080 On ch=1 n=g#6 v=77
58080 On ch=1 n=c#4 v=62
58128 On ch=1 n=c#4 v=0
58152 On ch=1 n=g#6 v=0
58160 On ch=1 n=g#7 v=57
58232 On ch=1 n=g#7 v=0
58240 On ch=1 n=c#7 v=50
58312 On ch=1 n=c#7 v=0
58320 On ch=1 n=g#7 v=53
58320 On ch=1 n=f#5 v=55
58320 On ch=1 n=a#5 v=55
58320 On ch=1 n=c#5 v=55
58320 On ch=1 n=a#4 v=55
58368 On ch=1 n=a#4 v=0
58368 On ch=1 n=c#5 v=0
58368 On ch=1 n=a#5 v=0
58368 On ch=1 n=f#5 v=0
58392 On ch=1 n=g#7 v=0
58400 On ch=1 n=f#6 v=77
58452 Par ch=1 c=64 v=0
58472 On ch=1 n=f#6 v=0
58480 On ch=1 n=f#7 v=46
58520 Par ch=1 c=64 v=127
58552 On ch=1 n=f#7 v=0
58560 On ch=1 n=c#6 v=74
58560 On ch=1 n=b3 v=62
58608 On ch=1 n=b3 v=0
58632 On ch=1 n=c#6 v=0
58640 On ch=1 n=c#7 v=45
58712 On ch=1 n=c#7 v=0
58720 On ch=1 n=g#6 v=44
58792 On ch=1 n=g#6 v=0
58800 On ch=1 n=c#7 v=37
58800 On ch=1 n=g#5 v=55
58800 On ch=1 n=b4 v=55
58800 On ch=1 n=f5 v=55
58800 On ch=1 n=c#5 v=55
58848 On ch=1 n=c#5 v=0
58848 On ch=1 n=f5 v=0
58848 On ch=1 n=b4 v=0
58848 On ch=1 n=g#5 v=0
58872 On ch=1 n=c#7 v=0
58880 On ch=1 n=g#6 v=82
58940 Par ch=1 c=64 v=0
58952 On ch=1 n=g#6 v=0
58960 On ch=1 n=g#7 v=61
58996 Par ch=1 c=64 v=127
59032 On ch=1 n=g#7 v=0
59040 On ch=1 n=f#6 v=72
59040 On ch=1 n=a#3 v=62
59088 On ch=1 n=a#3 v=0
59112 On ch=1 n=f#6 v=0
59120 On ch=1 n=f#7 v=50
59192 On ch=1 n=f#7 v=0
59200 On ch=1 n=c#7 v=42
59272 On ch=1 n=c#7 v=0
59280 On ch=1 n=f#7 v=50
59280 On ch=1 n=f#5 v=57
59280 On ch=1 n=c#5 v=57
59280 On ch=1 n=a#4 v=57
59280 On ch=1 n=a#5 v=57
59328 On ch=1 n=a#5 v=0
59328 On ch=1 n=a#4 v=0
59328 On ch=1 n=c#5 v=0
59328 On ch=1 n=f#5 v=0
59352 On ch=1 n=f#7 v=0
59360 On ch=1 n=c#7 v=77
59400 Par ch=1 c=64 v=0
59432 On ch=1 n=c#7 v=0
59440 On ch=1 n=c#8 v=59
59464 Par ch=1 c=64 v=127
59512 On ch=1 n=c#8 v=0
59520 On ch=1 n=a#6 v=80
59520 On ch=1 n=b3 v=62
59568 On ch=1 n=b3 v=0
59592 On ch=1 n=a#6 v=0
59600 On ch=1 n=a#7 v=53
59672 On ch=1 n=a#7 v=0
59680 On ch=1 n=d#7 v=41
59752 On ch=1 n=d#7 v=0
59760 On ch=1 n=a#7 v=54
59760 On ch=1 n=g#4 v=53
59764 On ch=1 n=g#5 v=62
59764 On ch=1 n=d#5 v=63
59832 On ch=1 n=a#7 v=0
59840 On ch=1 n=g#6 v=72
59912 On ch=1 n=g#6 v=0
59920 On ch=1 n=g#7 v=60
59992 On ch=1 n=g#7 v=0
60000 On ch=1 n=a#6 v=80
60072 On ch=1 n=a#6 v=0
60080 On ch=1 n=a#7 v=51
60152 On ch=1 n=a#7 v=0
60152 On ch=1 n=g#5 v=0
60152 On ch=1 n=g#4 v=0
60156 On ch=1 n=d#5 v=0
60160 On ch=1 n=d#7 v=44
60232 On ch=1 n=d#7 v=0
60240 On ch=1 n=a#7 v=59
60240 On ch=1 n=b3 v=66
60312 On ch=1 n=a#7 v=0
60320 On ch=1 n=g#6 v=69
60392 On ch=1 n=g#6 v=0
60400 On ch=1 n=g#7 v=45
60440 Par ch=1 c=64 v=0
60472 On ch=1 n=g#7 v=0
60476 On ch=1 n=c4 v=61
60480 On ch=1 n=a#6 v=75
60492 On ch=1 n=b3 v=0
60512 Par ch=1 c=64 v=127
60516 On ch=1 n=c4 v=0
60552 On ch=1 n=a#6 v=0
60560 On ch=1 n=a#7 v=47
60632 On ch=1 n=a#7 v=0
60640 On ch=1 n=d#7 v=39
60712 On ch=1 n=d#7 v=0
60720 On ch=1 n=a#7 v=45
60724 On ch=1 n=g#4 v=60
60724 On ch=1 n=g#5 v=55
60724 On ch=1 n=f#5 v=58
60724 On ch=1 n=d#5 v=58
60792 On ch=1 n=a#7 v=0
60800 On ch=1 n=g#6 v=81
60872 On ch=1 n=g#6 v=0
60880 On ch=1 n=g#7 v=61
60952 On ch=1 n=g#7 v=0
60960 On ch=1 n=a#6 v=81
61032 On ch=1 n=a#6 v=0
61032 On ch=1 n=d#5 v=0
61040 On ch=1 n=f#5 v=0
61040 On ch=1 n=g#5 v=0
61040 On ch=1 n=a#7 v=47
61048 On ch=1 n=g#4 v=0
61112 On ch=1 n=a#7 v=0
61120 On ch=1 n=d#7 v=47
61192 On ch=1 n=d#7 v=0
61200 On ch=1 n=a#7 v=41
61200 On ch=1 n=c4 v=62
61272 On ch=1 n=a#7 v=0
61280 On ch=1 n=g#6 v=76
61352 On ch=1 n=g#6 v=0
61360 On ch=1 n=g#7 v=37
61392 Par ch=1 c=64 v=0
61432 On ch=1 n=g#7 v=0
61436 On ch=1 n=c#4 v=70
61440 On ch=1 n=c#7 v=42
61448 On ch=1 n=c4 v=0
61448 Par ch=1 c=64 v=127
61512 On ch=1 n=c#7 v=0
61520 On ch=1 n=a#7 v=71
61592 On ch=1 n=a#7 v=0
61600 On ch=1 n=g#6 v=44
61672 On ch=1 n=g#6 v=0
61680 On ch=1 n=g#7 v=78
61684 On ch=1 n=c#4 v=0
61752 On ch=1 n=g#7 v=0
61760 On ch=1 n=c#7 v=46
61832 On ch=1 n=c#7 v=0
61840 On ch=1 n=a#7 v=69
61912 On ch=1 n=a#7 v=0
61916 On ch=1 n=g#4 v=55
61916 On ch=1 n=f#5 v=73
61916 On ch=1 n=c#5 v=70
61916 On ch=1 n=g#5 v=65
61920 On ch=1 n=g#6 v=39
61992 On ch=1 n=g#6 v=0
62000 On ch=1 n=g#7 v=66
62072 On ch=1 n=g#7 v=0
62080 On ch=1 n=c#7 v=42
62152 On ch=1 n=c#7 v=0
62160 On ch=1 n=a#7 v=69
62204 On ch=1 n=c#5 v=0
62212 On ch=1 n=g#5 v=0
62212 On ch=1 n=f#5 v=0
62212 On ch=1 n=g#4 v=0
62232 On ch=1 n=a#7 v=0
62240 On ch=1 n=g#6 v=38
62312 On ch=1 n=g#6 v=0
62320 On ch=1 n=g#7 v=66
62392 On ch=1 n=g#7 v=0
62396 On ch=1 n=g#5 v=57
62396 On ch=1 n=c#6 v=42
62396 On ch=1 n=f#5 v=52
62400 On ch=1 n=c#7 v=39
62472 On ch=1 n=c#7 v=0
62480 On ch=1 n=a#7 v=67
62552 On ch=1 n=a#7 v=0
62560 On ch=1 n=g#6 v=46
62632 On ch=1 n=g#6 v=0
62640 On ch=1 n=g#7 v=64
62708 On ch=1 n=g#5 v=0
62712 On ch=1 n=g#7 v=0
62712 On ch=1 n=c#6 v=0
62720 On ch=1 n=c#7 v=35
62724 On ch=1 n=f#5 v=0
62792 On ch=1 n=c#7 v=0
62800 On ch=1 n=a#7 v=54
62872 On ch=1 n=a#7 v=0
62880 On ch=1 n=g#6 v=37
62952 On ch=1 n=g#6 v=0
62960 On ch=1 n=g#7 v=56
63032 On ch=1 n=g#7 v=0
63040 On ch=1 n=c#7 v=34
63112 On ch=1 n=c#7 v=0
63120 On ch=1 n=a#7 v=50
63192 On ch=1 n=a#7 v=0
63228 On ch=1 n=g#6 v=34
63260 Par ch=1 c=64 v=0
63300 On ch=1 n=g#6 v=0
63328 On ch=1 n=g#7 v=52
63336 Par ch=1 c=67 v=127
63368 Par ch=1 c=64 v=127
63376 On ch=1 n=c#3 v=56
63400 On ch=1 n=g#7 v=0
63424 On ch=1 n=c#4 v=62
63436 On ch=1 n=c#3 v=0
63468 On ch=1 n=c#4 v=0
63528 On ch=1 n=g#4 v=62
63580 On ch=1 n=c#5 v=62
63608 On ch=1 n=g#4 v=0
63620 On ch=1 n=f#5 v=65
63628 On ch=1 n=c#5 v=0
63656 On ch=1 n=f#5 v=0
63656 On ch=1 n=d#8 v=67
63968 On ch=1 n=c#8 v=52
64008 On ch=1 n=d#8 v=0
64020 On ch=1 n=c#8 v=0
64144 On ch=1 n=a#7 v=44
64176 On ch=1 n=a#7 v=0
64280 On ch=1 n=g#7 v=47
64320 On ch=1 n=g#7 v=0
64396 On ch=1 n=f#7 v=52
64436 On ch=1 n=f#7 v=0
64504 On ch=1 n=d#7 v=45
64540 On ch=1 n=d#7 v=0
64620 On ch=1 n=c#7 v=43
64644 On ch=1 n=c#7 v=0
64732 On ch=1 n=a#6 v=54
64760 On ch=1 n=a#6 v=0
64860 On ch=1 n=g#6 v=48
64892 On ch=1 n=g#6 v=0
64980 On ch=1 n=f#6 v=56
65016 On ch=1 n=f#6 v=0
65104 On ch=1 n=d#6 v=57
65144 On ch=1 n=d#6 v=0
65224 On ch=1 n=c#6 v=44
65256 On ch=1 n=c#6 v=0
65376 On ch=1 n=g#4 v=50
65380 On ch=1 n=d#5 v=45
65384 On ch=1 n=f#5 v=45
65384 On ch=1 n=g#5 v=62
65384 On ch=1 n=b4 v=46
65384 On ch=1 n=c#4 v=31
66064 On ch=1 n=f#5 v=0
66064 On ch=1 n=d#5 v=0
66076 On ch=1 n=g#5 v=0
66240 On ch=1 n=f5 v=39
66240 On ch=1 n=a#5 v=60
66248 On ch=1 n=c#5 v=37
66264 Par ch=1 c=64 v=0
66328 Par ch=1 c=64 v=127
66924 On ch=1 n=a#5 v=0
66960 On ch=1 n=g#5 v=55
67024 On ch=1 n=c#5 v=0
67028 On ch=1 n=c#4 v=0
67032 On ch=1 n=g#4 v=0
67040 On ch=1 n=b4 v=0
67108 On ch=1 n=g#5 v=0
67144 On ch=1 n=f5 v=0
67200 On ch=1 n=f#4 v=55
67204 On ch=1 n=a#4 v=57
67204 On ch=1 n=f#5 v=67
67216 Par ch=1 c=64 v=0
67288 On ch=1 n=a#4 v=0
67292 On ch=1 n=f#5 v=0
67444 On ch=1 n=c#5 v=43
67448 Par ch=1 c=67 v=0
67676 On ch=1 n=g#5 v=50
67676 On ch=1 n=b4 v=39
67680 On ch=1 n=g#7 v=42
67680 Par ch=1 c=64 v=127
67696 On ch=1 n=c#5 v=0
67752 On ch=1 n=g#7 v=0
67760 On ch=1 n=a#7 v=55
67768 On ch=1 n=g#5 v=0
67832 On ch=1 n=a#7 v=0
67840 On ch=1 n=g#7 v=54
67912 On ch=1 n=g#7 v=0
67916 On ch=1 n=b4 v=0
67916 On ch=1 n=g#4 v=44
67916 On ch=1 n=f5 v=48
67920 On ch=1 n=c#7 v=51
67992 On ch=1 n=c#7 v=0
68000 On ch=1 n=c#8 v=50
68004 On ch=1 n=f5 v=0
68072 On ch=1 n=c#8 v=0
68080 On ch=1 n=c#7 v=59
68092 On ch=1 n=f#4 v=0
68144 On ch=1 n=c#7 v=0
68152 On ch=1 n=f#4 v=42
68156 On ch=1 n=a#4 v=40
68156 On ch=1 n=f#5 v=50
68160 On ch=1 n=c#7 v=52
68180 On ch=1 n=g#4 v=0
68192 Par ch=1 c=64 v=0
68232 On ch=1 n=c#7 v=0
68232 On ch=1 n=f#5 v=0
68236 On ch=1 n=a#4 v=0
68240 On ch=1 n=d#7 v=48
68312 On ch=1 n=d#7 v=0
68320 On ch=1 n=c#7 v=50
68392 On ch=1 n=c#7 v=0
68400 On ch=1 n=f#6 v=43
68400 On ch=1 n=c#5 v=44
68472 On ch=1 n=f#6 v=0
68480 On ch=1 n=f#7 v=49
68552 On ch=1 n=f#7 v=0
68560 On ch=1 n=f#6 v=39
68632 On ch=1 n=f#6 v=0
68636 On ch=1 n=g#5 v=49
68636 On ch=1 n=b4 v=42
68640 On ch=1 n=g#6 v=46
68648 Par ch=1 c=64 v=127
68656 On ch=1 n=c#5 v=0
68712 On ch=1 n=g#6 v=0
68720 On ch=1 n=a#6 v=46
68732 On ch=1 n=g#5 v=0
68792 On ch=1 n=a#6 v=0
68800 On ch=1 n=g#6 v=43
68872 On ch=1 n=g#6 v=0
68876 On ch=1 n=b4 v=0
68876 On ch=1 n=g#4 v=43
68876 On ch=1 n=f5 v=50
68880 On ch=1 n=c#6 v=59
68964 On ch=1 n=f5 v=0
68992 On ch=1 n=f#4 v=0
69036 Par ch=1 c=64 v=0
69072 On ch=1 n=g#4 v=0
69112 Par ch=1 c=64 v=127
69116 On ch=1 n=a#4 v=43
69116 On ch=1 n=f#4 v=46
69116 On ch=1 n=f#5 v=48
69192 On ch=1 n=c#6 v=0
69200 On ch=1 n=f#6 v=43
69272 On ch=1 n=f#6 v=0
69280 On ch=1 n=g#6 v=50
69300 On ch=1 n=f#5 v=0
69312 On ch=1 n=a#4 v=0
69320 On ch=1 n=f#4 v=0
69352 On ch=1 n=g#6 v=0
69360 On ch=1 n=a#6 v=47
69384 Par ch=1 c=64 v=0
69432 On ch=1 n=a#6 v=0
69440 On ch=1 n=g#6 v=47
69512 On ch=1 n=g#6 v=0
69520 On ch=1 n=f#6 v=45
69568 Par ch=1 c=64 v=127
69592 On ch=1 n=f#6 v=0
69600 On ch=1 n=c#6 v=37
69600 On ch=1 n=d#5 v=43
69600 On ch=1 n=b4 v=58
69604 On ch=1 n=f4 v=53
69672 On ch=1 n=c#6 v=0
69680 On ch=1 n=g#6 v=54
69752 On ch=1 n=g#6 v=0
69760 On ch=1 n=c#7 v=45
69764 On ch=1 n=d#5 v=0
69832 On ch=1 n=c#7 v=0
69836 On ch=1 n=c#4 v=58
69836 On ch=1 n=c#5 v=48
69840 On ch=1 n=f4 v=0
69840 On ch=1 n=d#7 v=42
69888 On ch=1 n=b4 v=0
69912 On ch=1 n=d#7 v=0
69920 On ch=1 n=c#7 v=46
69932 On ch=1 n=c#5 v=0
69932 On ch=1 n=c#4 v=0
69992 On ch=1 n=c#7 v=0
70000 On ch=1 n=g#6 v=42
70008 Par ch=1 c=64 v=0
70068 Par ch=1 c=64 v=127
70072 On ch=1 n=g#6 v=0
70076 On ch=1 n=d#5 v=53
70080 On ch=1 n=f#6 v=45
70080 On ch=1 n=a#4 v=57
70084 On ch=1 n=f#4 v=57
70152 On ch=1 n=f#6 v=0
70160 On ch=1 n=c#7 v=42
70232 On ch=1 n=c#7 v=0
70240 On ch=1 n=f#7 v=48
70244 On ch=1 n=d#5 v=0
70304 On ch=1 n=f#4 v=0
70312 On ch=1 n=f#7 v=0
70320 On ch=1 n=g#7 v=46
70320 On ch=1 n=c#5 v=39
70320 On ch=1 n=c#4 v=58
70344 On ch=1 n=c#5 v=0
70364 On ch=1 n=a#4 v=0
70380 On ch=1 n=c#4 v=0
70392 On ch=1 n=g#7 v=0
70400 On ch=1 n=f#7 v=45
70472 On ch=1 n=f#7 v=0
70480 On ch=1 n=d#7 v=41
70500 Par ch=1 c=64 v=0
70552 On ch=1 n=d#7 v=0
70556 Par ch=1 c=64 v=127
70560 On ch=1 n=c#7 v=33
70560 On ch=1 n=f4 v=58
70560 On ch=1 n=d#5 v=43
70564 On ch=1 n=b4 v=58
70632 On ch=1 n=c#7 v=0
70640 On ch=1 n=g#7 v=43
70712 On ch=1 n=g#7 v=0
70720 On ch=1 n=c#8 v=44
70724 On ch=1 n=d#5 v=0
70792 On ch=1 n=c#8 v=0
70796 On ch=1 n=c#4 v=56
70800 On ch=1 n=f4 v=0
70800 On ch=1 n=d#8 v=42
70804 On ch=1 n=c#5 v=41
70840 On ch=1 n=b4 v=0
70872 On ch=1 n=d#8 v=0
70880 On ch=1 n=c#8 v=49
70908 On ch=1 n=c#5 v=0
70908 On ch=1 n=c#4 v=0
70952 On ch=1 n=c#8 v=0
70960 On ch=1 n=g#7 v=38
70972 Par ch=1 c=64 v=0
71032 On ch=1 n=g#7 v=0
71036 On ch=1 n=f#4 v=41
71036 On ch=1 n=f#5 v=47
71040 On ch=1 n=f#7 v=47
71040 On ch=1 n=a#4 v=44
71112 On ch=1 n=f#7 v=0
71120 On ch=1 n=g#7 v=52
71160 On ch=1 n=a#4 v=0
71164 On ch=1 n=f#5 v=0
71192 On ch=1 n=g#7 v=0
71200 On ch=1 n=f#7 v=33
71272 On ch=1 n=f#7 v=0
71276 On ch=1 n=c#5 v=44
71280 On ch=1 n=c#7 v=41
71352 On ch=1 n=c#7 v=0
71360 On ch=1 n=c#8 v=49
71432 On ch=1 n=c#8 v=0
71440 On ch=1 n=c#7 v=44
71504 On ch=1 n=c#7 v=0
71516 On ch=1 n=b4 v=44
71516 On ch=1 n=g#5 v=49
71516 Par ch=1 c=64 v=127
71520 On ch=1 n=c#7 v=48
71532 On ch=1 n=c#5 v=0
71592 On ch=1 n=c#7 v=0
71600 On ch=1 n=d#7 v=47
71604 On ch=1 n=g#5 v=0
71672 On ch=1 n=d#7 v=0
71680 On ch=1 n=c#7 v=50
71752 On ch=1 n=c#7 v=0
71760 On ch=1 n=g#6 v=40
71760 On ch=1 n=f5 v=48
71764 On ch=1 n=g#4 v=43
71772 On ch=1 n=b4 v=0
71832 On ch=1 n=g#6 v=0
71840 On ch=1 n=g#7 v=53
71844 On ch=1 n=f5 v=0
71912 On ch=1 n=g#7 v=0
71916 On ch=1 n=f#4 v=0
71920 On ch=1 n=g#6 v=43
71988 On ch=1 n=g#6 v=0
71996 On ch=1 n=f#4 v=39
71996 On ch=1 n=f#5 v=49
71996 Par ch=1 c=64 v=0
72000 On ch=1 n=g#6 v=52
72004 On ch=1 n=a#4 v=48
72048 On ch=1 n=g#4 v=0
72072 On ch=1 n=g#6 v=0
72076 On ch=1 n=a#4 v=0
72076 On ch=1 n=f#5 v=0
72080 On ch=1 n=a#6 v=44
72152 On ch=1 n=a#6 v=0
72160 On ch=1 n=g#6 v=46
72232 On ch=1 n=g#6 v=0
72236 On ch=1 n=c#5 v=39
72240 On ch=1 n=f#6 v=34
72312 On ch=1 n=f#6 v=0
72320 On ch=1 n=f#7 v=46
72392 On ch=1 n=f#7 v=0
72400 On ch=1 n=f#6 v=38
72472 On ch=1 n=f#6 v=0
72472 Par ch=1 c=64 v=127
72476 On ch=1 n=g#5 v=47
72476 On ch=1 n=b4 v=41
72480 On ch=1 n=c#5 v=0
72480 On ch=1 n=c#6 v=63
72552 On ch=1 n=g#5 v=0
72700 Par ch=1 c=64 v=0
72716 On ch=1 n=b4 v=0
72720 On ch=1 n=g#4 v=42
72724 On ch=1 n=f5 v=49
72792 On ch=1 n=c#6 v=0
72796 On ch=1 n=f#4 v=0
72816 On ch=1 n=f5 v=0
72880 On ch=1 n=g#4 v=0
72952 Par ch=1 c=64 v=127
72956 On ch=1 n=f#4 v=41
72956 On ch=1 n=f#5 v=38
72956 On ch=1 n=a#4 v=50
73040 On ch=1 n=f#6 v=39
73112 On ch=1 n=f#6 v=0
73120 On ch=1 n=g#6 v=48
73136 On ch=1 n=a#4 v=0
73136 On ch=1 n=f#5 v=0
73144 On ch=1 n=f#4 v=0
73192 On ch=1 n=g#6 v=0
73200 On ch=1 n=a#6 v=42
73204 On ch=1 n=c#5 v=46
73272 On ch=1 n=a#6 v=0
73280 On ch=1 n=g#6 v=47
73332 Par ch=1 c=64 v=0
73336 On ch=1 n=c#5 v=0
73352 On ch=1 n=g#6 v=0
73360 On ch=1 n=f#6 v=48
73408 Par ch=1 c=64 v=127
73432 On ch=1 n=f#6 v=0
73436 On ch=1 n=d#5 v=32
73436 On ch=1 n=b4 v=40
73440 On ch=1 n=c#6 v=47
73440 On ch=1 n=f4 v=51
73512 On ch=1 n=c#6 v=0
73520 On ch=1 n=g#6 v=47
73592 On ch=1 n=g#6 v=0
73600 On ch=1 n=d#5 v=0
73600 On ch=1 n=c#7 v=50
73672 On ch=1 n=c#7 v=0
73680 On ch=1 n=d#7 v=48
73684 On ch=1 n=c#4 v=56
73684 On ch=1 n=c#5 v=38
73716 On ch=1 n=f4 v=0
73716 On ch=1 n=b4 v=0
73752 On ch=1 n=d#7 v=0
73760 On ch=1 n=c#7 v=49
73832 On ch=1 n=c#7 v=0
73832 On ch=1 n=c#5 v=0
73840 On ch=1 n=g#6 v=56
73848 On ch=1 n=c#4 v=0
73860 Par ch=1 c=64 v=0
73912 On ch=1 n=g#6 v=0
73912 Par ch=1 c=64 v=127
73916 On ch=1 n=a#4 v=59
73916 On ch=1 n=d#5 v=48
73920 On ch=1 n=f#6 v=45
73920 On ch=1 n=f#4 v=56
73992 On ch=1 n=f#6 v=0
74000 On ch=1 n=c#7 v=50
74072 On ch=1 n=c#7 v=0
74076 On ch=1 n=d#5 v=0
74080 On ch=1 n=f#7 v=50
74152 On ch=1 n=f#7 v=0
74160 On ch=1 n=g#7 v=51
74164 On ch=1 n=c#4 v=53
74164 On ch=1 n=c#5 v=40
74232 On ch=1 n=g#7 v=0
74232 On ch=1 n=f#4 v=0
74240 On ch=1 n=f#7 v=60
74260 On ch=1 n=a#4 v=0
74300 On ch=1 n=c#5 v=0
74312 On ch=1 n=f#7 v=0
74320 On ch=1 n=c#7 v=56
74324 On ch=1 n=c#4 v=0
74344 Par ch=1 c=64 v=0
74392 On ch=1 n=c#7 v=0
74396 Par ch=1 c=64 v=127
74400 On ch=1 n=g#6 v=47
74400 On ch=1 n=d#5 v=43
74400 On ch=1 n=b4 v=62
74404 On ch=1 n=f4 v=54
74472 On ch=1 n=g#6 v=0
74480 On ch=1 n=c#7 v=52
74540 On ch=1 n=d#5 v=0
74552 On ch=1 n=c#7 v=0
74560 On ch=1 n=g#7 v=66
74632 On ch=1 n=g#7 v=0
74640 On ch=1 n=a#7 v=62
74644 On ch=1 n=c#4 v=64
74644 On ch=1 n=c#5 v=43
74660 On ch=1 n=f4 v=0
74708 On ch=1 n=b4 v=0
74712 On ch=1 n=a#7 v=0
74716 On ch=1 n=c#4 v=0
74720 On ch=1 n=g#7 v=56
74728 On ch=1 n=c#5 v=0
74768 Par ch=1 c=64 v=0
74792 On ch=1 n=g#7 v=0
74800 On ch=1 n=c#7 v=60
74808 On ch=1 n=f#4 v=68
74852 On ch=1 n=c#5 v=64
74856 Par ch=1 c=64 v=127
74864 On ch=1 n=f#4 v=0
74872 On ch=1 n=c#7 v=0
74880 On ch=1 n=a#7 v=80
74896 On ch=1 n=a#5 v=72
74928 On ch=1 n=c#5 v=0
74944 On ch=1 n=a#5 v=0
74952 On ch=1 n=a#7 v=0
74960 On ch=1 n=c#7 v=52
75032 On ch=1 n=c#7 v=0
75040 On ch=1 n=g#7 v=55
75112 On ch=1 n=g#7 v=0
75120 On ch=1 n=a#6 v=61
75192 On ch=1 n=a#6 v=0
75200 On ch=1 n=g#7 v=64
75272 On ch=1 n=g#7 v=0
75280 On ch=1 n=c#7 v=74
75340 Par ch=1 c=64 v=0
75352 On ch=1 n=c#7 v=0
75360 On ch=1 n=f#7 v=60
75432 On ch=1 n=f#7 v=0
75440 On ch=1 n=a#6 v=57
75512 On ch=1 n=a#6 v=0
75512 On ch=1 n=c#4 v=63
75520 On ch=1 n=d#7 v=60
75560 On ch=1 n=g#4 v=72
75572 Par ch=1 c=64 v=127
75584 On ch=1 n=c#4 v=0
75588 On ch=1 n=b4 v=66
75592 On ch=1 n=d#7 v=0
75600 On ch=1 n=g#6 v=52
75640 On ch=1 n=f5 v=64
75672 On ch=1 n=g#6 v=0
75680 On ch=1 n=c#7 v=66
75724 On ch=1 n=b4 v=0
75724 On ch=1 n=g#4 v=0
75728 On ch=1 n=f5 v=0
75752 On ch=1 n=c#7 v=0
75760 On ch=1 n=c#6 v=53
75792 Par ch=1 c=64 v=0
75832 On ch=1 n=c#6 v=0
75832 Par ch=1 c=64 v=127
75836 On ch=1 n=a#4 v=73
75836 On ch=1 n=f#4 v=58
75836 On ch=1 n=f#5 v=72
75840 On ch=1 n=a#6 v=62
75912 On ch=1 n=a#6 v=0
75920 On ch=1 n=c#6 v=54
75992 On ch=1 n=c#6 v=0
76000 On ch=1 n=g#6 v=74
76072 On ch=1 n=g#6 v=0
76080 On ch=1 n=a#5 v=65
76152 On ch=1 n=a#5 v=0
76160 On ch=1 n=g#6 v=68
76208 On ch=1 n=f#5 v=0
76224 On ch=1 n=a#4 v=0
76232 On ch=1 n=g#6 v=0
76232 On ch=1 n=f#4 v=0
76240 On ch=1 n=c#6 v=57
76312 On ch=1 n=c#6 v=0
76312 Par ch=1 c=64 v=0
76320 On ch=1 n=f#6 v=63
76392 On ch=1 n=f#6 v=0
76400 On ch=1 n=a#5 v=57
76472 On ch=1 n=a#5 v=0
76480 On ch=1 n=d#6 v=61
76508 On ch=1 n=c#3 v=67
76516 Par ch=1 c=64 v=127
76552 On ch=1 n=d#6 v=0
76560 On ch=1 n=c#3 v=0
76560 On ch=1 n=g#5 v=50
76560 On ch=1 n=b3 v=66
76596 On ch=1 n=f4 v=76
76628 On ch=1 n=b3 v=0
76632 On ch=1 n=g#5 v=0
76636 On ch=1 n=f4 v=0
76640 On ch=1 n=c#6 v=64
76712 On ch=1 n=c#6 v=0
76720 On ch=1 n=c#5 v=62
76744 Par ch=1 c=64 v=0
76792 On ch=1 n=c#5 v=0
76796 Par ch=1 c=64 v=127
76800 On ch=1 n=a#5 v=68
76804 On ch=1 n=f#4 v=65
76804 On ch=1 n=a#3 v=73
76808 On ch=1 n=f#3 v=69
76872 On ch=1 n=a#5 v=0
76880 On ch=1 n=c#5 v=59
76952 On ch=1 n=c#5 v=0
76960 On ch=1 n=g#5 v=68
77032 On ch=1 n=g#5 v=0
77040 On ch=1 n=a#4 v=61
77112 On ch=1 n=a#4 v=0
77120 On ch=1 n=g#5 v=64
77144 On ch=1 n=a#3 v=0
77144 On ch=1 n=f#4 v=0
77148 On ch=1 n=f#3 v=0
77192 On ch=1 n=g#5 v=0
77200 On ch=1 n=c#5 v=54
77252 Par ch=1 c=64 v=0
77272 On ch=1 n=c#5 v=0
77280 On ch=1 n=f#5 v=63
77352 On ch=1 n=f#5 v=0
77360 On ch=1 n=a#4 v=60
77432 On ch=1 n=a#4 v=0
77440 On ch=1 n=d#5 v=67
77512 On ch=1 n=d#5 v=0
77520 On ch=1 n=g#4 v=70
77524 On ch=1 n=c#3 v=77
77592 On ch=1 n=g#4 v=0
77600 On ch=1 n=c#5 v=68
77672 On ch=1 n=c#5 v=0
77680 On ch=1 n=c#4 v=72
77744 Par ch=1 c=64 v=127
77752 On ch=1 n=c#4 v=0
77760 On ch=1 n=a#4 v=70
77760 On ch=1 n=f#2 v=80
77764 On ch=1 n=f#3 v=78
77776 On ch=1 n=c#3 v=0
77832 On ch=1 n=a#4 v=0
77840 On ch=1 n=f#4 v=68
77896 On ch=1 n=f#3 v=0
77896 On ch=1 n=f#2 v=0
77912 On ch=1 n=f#4 v=0
77920 On ch=1 n=d#5 v=73
77988 Par ch=1 c=64 v=0
77992 On ch=1 n=d#5 v=0
78000 On ch=1 n=c#4 v=70
78004 On ch=1 n=c#3 v=77
78072 On ch=1 n=c#4 v=0
78080 On ch=1 n=c#5 v=68
78152 On ch=1 n=c#5 v=0
78160 On ch=1 n=g#4 v=68
78212 Par ch=1 c=64 v=127
78232 On ch=1 n=g#4 v=0
78240 On ch=1 n=a#4 v=66
78244 On ch=1 n=f#2 v=77
78244 On ch=1 n=f#3 v=78
78260 On ch=1 n=c#3 v=0
78312 On ch=1 n=a#4 v=0
78320 On ch=1 n=f#4 v=58
78340 On ch=1 n=f#3 v=0
78360 On ch=1 n=f#2 v=0
78392 On ch=1 n=f#4 v=0
78400 On ch=1 n=d#5 v=67
78460 Par ch=1 c=64 v=0
78472 On ch=1 n=d#5 v=0
78476 On ch=1 n=c#3 v=78
78480 On ch=1 n=c#4 v=68
78552 On ch=1 n=c#4 v=0
78560 On ch=1 n=c#5 v=69
78632 On ch=1 n=c#5 v=0
78640 On ch=1 n=g#4 v=65
78704 Par ch=1 c=64 v=127
78712 On ch=1 n=g#4 v=0
78716 On ch=1 n=f#2 v=82
78716 On ch=1 n=f#3 v=87
78720 On ch=1 n=a#4 v=70
78744 On ch=1 n=c#3 v=0
78816 On ch=1 n=f#3 v=0
78836 On ch=1 n=f#2 v=0
78928 On ch=1 n=a#4 v=0
78960 On ch=1 n=c#5 v=72
78960 On ch=1 n=a#4 v=72
79032 On ch=1 n=a#4 v=0
79032 On ch=1 n=c#5 v=0
79040 On ch=1 n=g#4 v=65
79112 On ch=1 n=g#4 v=0
79120 On ch=1 n=f#4 v=65
79192 On ch=1 n=f#4 v=0
79200 On ch=1 n=f#5 v=77
79200 On ch=1 n=d#5 v=77
79272 On ch=1 n=d#5 v=0
79272 On ch=1 n=f#5 v=0
79280 On ch=1 n=c#5 v=63
79352 On ch=1 n=c#5 v=0
79360 On ch=1 n=a#4 v=55
79432 On ch=1 n=a#4 v=0
79440 On ch=1 n=a#5 v=75
79440 On ch=1 n=f#5 v=75
79440 On ch=1 n=f#2 v=59
79512 On ch=1 n=f#2 v=0
79512 On ch=1 n=f#5 v=0
79512 On ch=1 n=a#5 v=0
79520 On ch=1 n=d#5 v=59
79520 On ch=1 n=c#3 v=54
79592 On ch=1 n=c#3 v=0
79592 On ch=1 n=d#5 v=0
79600 On ch=1 n=c#5 v=57
79600 On ch=1 n=a#3 v=55
79672 On ch=1 n=a#3 v=0
79672 On ch=1 n=c#5 v=0
79680 On ch=1 n=c#6 v=77
79680 On ch=1 n=a#5 v=77
79680 On ch=1 n=f#2 v=82
79752 On ch=1 n=f#2 v=0
79752 On ch=1 n=a#5 v=0
79752 On ch=1 n=c#6 v=0
79760 On ch=1 n=g#5 v=62
79760 On ch=1 n=c#3 v=54
79832 On ch=1 n=c#3 v=0
79832 On ch=1 n=g#5 v=0
79840 On ch=1 n=f#5 v=62
79840 On ch=1 n=a#3 v=56
79912 On ch=1 n=a#3 v=0
79912 On ch=1 n=f#5 v=0
79920 On ch=1 n=d#6 v=77
79920 On ch=1 n=f#6 v=77
79920 On ch=1 n=a#2 v=74
79992 On ch=1 n=a#2 v=0
79992 On ch=1 n=f#6 v=0
79992 On ch=1 n=d#6 v=0
80000 On ch=1 n=c#6 v=59
80000 On ch=1 n=f#3 v=61
80072 On ch=1 n=f#3 v=0
80072 On ch=1 n=c#6 v=0
80080 On ch=1 n=a#5 v=54
80080 On ch=1 n=c#4 v=51
80152 On ch=1 n=c#4 v=0
80152 On ch=1 n=a#5 v=0
80160 On ch=1 n=a#6 v=75
80160 On ch=1 n=f#6 v=75
80160 On ch=1 n=c#3 v=78
80232 On ch=1 n=c#3 v=0
80232 On ch=1 n=f#6 v=0
80232 On ch=1 n=a#6 v=0
80240 On ch=1 n=d#6 v=54
80240 On ch=1 n=a#3 v=57
80312 On ch=1 n=a#3 v=0
80312 On ch=1 n=d#6 v=0
80320 On ch=1 n=c#6 v=59
80320 On ch=1 n=f#4 v=48
80392 On ch=1 n=f#4 v=0
80392 On ch=1 n=c#6 v=0
80400 On ch=1 n=c#7 v=76
80400 On ch=1 n=a#6 v=76
80400 On ch=1 n=f#3 v=72
80472 On ch=1 n=f#3 v=0
80472 On ch=1 n=a#6 v=0
80472 On ch=1 n=c#7 v=0
80480 On ch=1 n=g#6 v=64
80480 On ch=1 n=c#4 v=54
80552 On ch=1 n=c#4 v=0
80552 On ch=1 n=g#6 v=0
80560 On ch=1 n=f#6 v=52
80560 On ch=1 n=a#4 v=54
80632 On ch=1 n=a#4 v=0
80632 On ch=1 n=f#6 v=0
80640 On ch=1 n=f#7 v=77
80640 On ch=1 n=d#7 v=77
80640 On ch=1 n=a#3 v=77
80712 On ch=1 n=a#3 v=0
80712 On ch=1 n=d#7 v=0
80712 On ch=1 n=f#7 v=0
80720 On ch=1 n=c#7 v=58
80720 On ch=1 n=f#4 v=57
80792 On ch=1 n=f#4 v=0
80792 On ch=1 n=c#7 v=0
80800 On ch=1 n=a#6 v=55
80800 On ch=1 n=c#5 v=54
80872 On ch=1 n=c#5 v=0
80872 On ch=1 n=a#6 v=0
80880 On ch=1 n=a#7 v=77
80880 On ch=1 n=f#7 v=77
80880 On ch=1 n=c#4 v=62
80952 On ch=1 n=c#4 v=0
80952 On ch=1 n=f#7 v=0
80952 On ch=1 n=a#7 v=0
80960 On ch=1 n=d#7 v=56
80960 On ch=1 n=a#4 v=63
81032 On ch=1 n=a#4 v=0
81032 On ch=1 n=d#7 v=0
81040 On ch=1 n=c#7 v=54
81040 On ch=1 n=f#5 v=54
81112 On ch=1 n=f#5 v=0
81112 On ch=1 n=c#7 v=0
81120 On ch=1 n=f#7 v=83
81120 On ch=1 n=d#7 v=83
81120 On ch=1 n=f#4 v=70
81192 On ch=1 n=f#4 v=0
81192 On ch=1 n=d#7 v=0
81192 On ch=1 n=f#7 v=0
81200 On ch=1 n=c#7 v=62
81200 On ch=1 n=a#4 v=61
81272 On ch=1 n=a#4 v=0
81272 On ch=1 n=c#7 v=0
81280 On ch=1 n=a#6 v=62
81280 On ch=1 n=f#5 v=62
81352 On ch=1 n=f#5 v=0
81352 On ch=1 n=a#6 v=0
81360 On ch=1 n=a#7 v=84
81360 On ch=1 n=f#7 v=84
81360 On ch=1 n=c#4 v=71
81432 On ch=1 n=c#4 v=0
81432 On ch=1 n=f#7 v=0
81432 On ch=1 n=a#7 v=0
81440 On ch=1 n=d#7 v=58
81440 On ch=1 n=a#4 v=66
81512 On ch=1 n=a#4 v=0
81512 On ch=1 n=d#7 v=0
81520 On ch=1 n=c#7 v=64
81520 On ch=1 n=f#5 v=60
81592 On ch=1 n=f#5 v=0
81592 On ch=1 n=c#7 v=0
81600 On ch=1 n=f#7 v=84
81600 On ch=1 n=d#7 v=84
81600 On ch=1 n=f#4 v=71
81672 On ch=1 n=f#4 v=0
81672 On ch=1 n=d#7 v=0
81672 On ch=1 n=f#7 v=0
81680 On ch=1 n=c#7 v=63
81680 On ch=1 n=a#4 v=60
81752 On ch=1 n=a#4 v=0
81752 On ch=1 n=c#7 v=0
81760 On ch=1 n=a#6 v=64
81760 On ch=1 n=f#5 v=58
81832 On ch=1 n=f#5 v=0
81832 On ch=1 n=a#6 v=0
81840 On ch=1 n=a#7 v=89
81840 On ch=1 n=f#7 v=89
81840 On ch=1 n=c#4 v=85
81912 On ch=1 n=c#4 v=0
81912 On ch=1 n=f#7 v=0
81912 On ch=1 n=a#7 v=0
81920 On ch=1 n=d#7 v=71
81920 On ch=1 n=a#4 v=51
81992 On ch=1 n=a#4 v=0
81992 On ch=1 n=d#7 v=0
82000 On ch=1 n=c#7 v=65
82000 On ch=1 n=f#5 v=52
82072 On ch=1 n=f#5 v=0
82072 On ch=1 n=c#7 v=0
82080 On ch=1 n=d#7 v=86
82080 On ch=1 n=f#7 v=86
82080 On ch=1 n=f#4 v=90
82152 On ch=1 n=f#4 v=0
82152 On ch=1 n=f#7 v=0
82152 On ch=1 n=d#7 v=0
82160 On ch=1 n=c#7 v=70
82160 On ch=1 n=a#4 v=56
82232 On ch=1 n=a#4 v=0
82232 On ch=1 n=c#7 v=0
82240 On ch=1 n=a#6 v=63
82240 On ch=1 n=f#5 v=64
82312 On ch=1 n=f#5 v=0
82312 On ch=1 n=a#6 v=0
82320 On ch=1 n=f#7 v=87
82320 On ch=1 n=a#7 v=87
82320 On ch=1 n=c#4 v=89
82392 On ch=1 n=c#4 v=0
82392 On ch=1 n=a#7 v=0
82392 On ch=1 n=f#7 v=0
82400 On ch=1 n=d#7 v=64
82400 On ch=1 n=a#4 v=57
82472 On ch=1 n=a#4 v=0
82472 On ch=1 n=d#7 v=0
82480 On ch=1 n=c#7 v=63
82480 On ch=1 n=f#5 v=69
82552 On ch=1 n=f#5 v=0
82552 On ch=1 n=c#7 v=0
82560 On ch=1 n=f#7 v=92
82560 On ch=1 n=a#6 v=92
82560 On ch=1 n=f#4 v=96
82676 On ch=1 n=f#4 v=0
82676 On ch=1 n=a#6 v=0
82676 On ch=1 n=f#7 v=0
82792 Par ch=1 c=64 v=0
82824 Par ch=1 c=64 v=127
82872 On ch=1 n=f#6 v=82
82872 On ch=1 n=f#4 v=82
82876 On ch=1 n=f#7 v=91
82876 On ch=1 n=f#5 v=91
82908 On ch=1 n=f#5 v=0
82908 On ch=1 n=f#7 v=0
82916 On ch=1 n=f#4 v=0
82916 On ch=1 n=f#6 v=0
82988 On ch=1 n=d#7 v=89
82988 On ch=1 n=d#5 v=89
82992 On ch=1 n=d#6 v=87
82992 On ch=1 n=d#4 v=87
83020 On ch=1 n=d#5 v=0
83020 On ch=1 n=d#7 v=0
83028 On ch=1 n=d#4 v=0
83028 On ch=1 n=d#6 v=0
83096 On ch=1 n=c#7 v=91
83096 On ch=1 n=c#5 v=91
83100 On ch=1 n=c#6 v=87
83100 On ch=1 n=c#4 v=87
83128 On ch=1 n=c#4 v=0
83128 On ch=1 n=c#6 v=0
83132 On ch=1 n=c#5 v=0
83132 On ch=1 n=c#7 v=0
83200 On ch=1 n=a#6 v=93
83200 On ch=1 n=a#4 v=93
83204 On ch=1 n=a#5 v=85
83204 On ch=1 n=a#3 v=85
83228 On ch=1 n=a#3 v=0
83228 On ch=1 n=a#5 v=0
83228 On ch=1 n=a#4 v=0
83228 On ch=1 n=a#6 v=0
83304 On ch=1 n=g#6 v=95
83304 On ch=1 n=g#5 v=85
83304 On ch=1 n=g#4 v=95
83304 On ch=1 n=g#3 v=85
83332 On ch=1 n=g#3 v=0
83332 On ch=1 n=g#4 v=0
83332 On ch=1 n=g#5 v=0
83332 On ch=1 n=g#6 v=0
83404 On ch=1 n=f#6 v=93
83404 On ch=1 n=f#5 v=83
83404 On ch=1 n=f#4 v=93
83404 On ch=1 n=f#3 v=83
83432 On ch=1 n=f#3 v=0
83432 On ch=1 n=f#4 v=0
83432 On ch=1 n=f#5 v=0
83432 On ch=1 n=f#6 v=0
83516 On ch=1 n=d#6 v=95
83516 On ch=1 n=d#4 v=95
83520 On ch=1 n=d#5 v=83
83520 On ch=1 n=d#3 v=83
83544 On ch=1 n=d#3 v=0
83544 On ch=1 n=d#5 v=0
83544 On ch=1 n=d#4 v=0
83544 On ch=1 n=d#6 v=0
83624 On ch=1 n=c#5 v=83
83624 On ch=1 n=c#3 v=83
83628 On ch=1 n=c#6 v=95
83628 On ch=1 n=c#4 v=95
83656 On ch=1 n=c#4 v=0
83656 On ch=1 n=c#6 v=0
83656 On ch=1 n=c#3 v=0
83656 On ch=1 n=c#5 v=0
83732 On ch=1 n=a#4 v=83
83732 On ch=1 n=a#2 v=83
83736 On ch=1 n=a#5 v=91
83736 On ch=1 n=a#3 v=91
83764 On ch=1 n=a#3 v=0
83764 On ch=1 n=a#5 v=0
83764 On ch=1 n=a#2 v=0
83764 On ch=1 n=a#4 v=0
83840 On ch=1 n=g#4 v=87
83840 On ch=1 n=g#2 v=87
83844 On ch=1 n=g#5 v=95
83844 On ch=1 n=g#3 v=95
83872 On ch=1 n=g#3 v=0
83872 On ch=1 n=g#5 v=0
83876 On ch=1 n=g#2 v=0
83876 On ch=1 n=g#4 v=0
83904 Par ch=1 c=64 v=0
83960 On ch=1 n=f#5 v=98
83960 On ch=1 n=f#4 v=95
83960 On ch=1 n=f#3 v=98
83960 On ch=1 n=f#2 v=95
83964 Par ch=1 c=64 v=127
83992 On ch=1 n=f#2 v=0
83992 On ch=1 n=f#3 v=0
83992 On ch=1 n=f#4 v=0
83992 On ch=1 n=f#5 v=0
84464 On ch=1 n=f#4 v=76
84500 On ch=1 n=c#5 v=86
84520 On ch=1 n=f#4 v=0
84572 On ch=1 n=a#6 v=75
84580 On ch=1 n=a#5 v=92
84604 On ch=1 n=c#7 v=90
84640 On ch=1 n=c#5 v=0
84652 On ch=1 n=f#7 v=86
84664 On ch=1 n=a#5 v=0
84668 On ch=1 n=a#7 v=92
84700 On ch=1 n=a#6 v=0
84732 On ch=1 n=c#7 v=0
84744 On ch=1 n=f#7 v=0
84780 On ch=1 n=a#7 v=0
85376 On ch=1 n=f#4 v=105
85380 On ch=1 n=f#2 v=99
85380 On ch=1 n=f#3 v=100
85512 Par ch=1 c=64 v=0
85736 Par ch=1 c=64 v=127
88128 On ch=1 n=f#2 v=0
88132 On ch=1 n=f#3 v=0
88132 On ch=1 n=f#4 v=0
89096 Par ch=1 c=64 v=0
89096 Meta TrkEnd
TrkEnd
MTrk
0 SeqSpec 43 00 01 00
0 Meta TrkName "in Gb Major"
0 Meta 0x21 00
0 Meta TrkEnd
TrkEnd
MTrk
0 SeqSpec 43 00 01 00
0 Meta TrkName "Op. 10, No"
