MFile 1 4 1024
MTrk
0 TimeSig 2/4 24 8
0 KeySig -6 major
0 Tempo 600000
0 Tempo 500000
0 Tempo 500000
2048 TimeSig 2/4 24 8
2048 KeySig -6 major
3356 Tempo 495867
3356 Tempo 491803
3697 Tempo 487804
3697 Tempo 483870
4096 TimeSig 2/4 24 8
4096 KeySig -6 major
6144 TimeSig 2/4 24 8
6144 KeySig -6 major
8192 TimeSig 2/4 24 8
8192 KeySig -6 major
10240 TimeSig 2/4 24 8
10240 KeySig -6 major
12288 TimeSig 2/4 24 8
12288 KeySig -6 major
14336 TimeSig 2/4 24 8
14336 KeySig -6 major
16384 TimeSig 2/4 24 8
16384 KeySig -6 major
16452 Tempo 491803
16452 Tempo 500000
16580 Tempo 508474
16580 Tempo 517241
16708 Tempo 526315
16708 Tempo 535714
16836 Tempo 545454
16836 Tempo 555555
17621 Tempo 500000
17621 Tempo 500000
18314 Tempo 495867
18314 Tempo 491803
18432 TimeSig 2/4 24 8
18432 KeySig -6 major
18655 Tempo 487804
18655 Tempo 483870
20480 TimeSig 2/4 24 8
20480 KeySig -6 major
22528 TimeSig 2/4 24 8
22528 KeySig -6 major
24576 TimeSig 2/4 24 8
24576 KeySig -6 major
25056 Tempo 491803
25056 Tempo 500000
25184 Tempo 508474
25184 Tempo 517241
25312 Tempo 526315
25312 Tempo 535714
25440 Tempo 545454
25440 Tempo 555555
25518 Tempo 500000
25518 Tempo 500000
26506 Tempo 495867
26506 Tempo 491803
26624 TimeSig 2/4 24 8
26624 KeySig -6 major
26847 Tempo 487804
26847 Tempo 483870
28672 TimeSig 2/4 24 8
28672 KeySig -6 major
30720 TimeSig 2/4 24 8
30720 KeySig -6 major
32768 TimeSig 2/4 24 8
32768 KeySig -6 major
33387 Tempo 491803
33387 Tempo 500000
33515 Tempo 508474
33515 Tempo 517241
33643 Tempo 526315
33643 Tempo 535714
33771 Tempo 545454
33771 Tempo 555555
34112 Tempo 500000
34112 Tempo 500000
34816 TimeSig 2/4 24 8
34816 KeySig -6 major
35125 Tempo 495867
35125 Tempo 491803
35466 Tempo 487804
35466 Tempo 483870
36864 TimeSig 2/4 24 8
36864 KeySig -6 major
38912 TimeSig 2/4 24 8
38912 KeySig -6 major
40960 TimeSig 2/4 24 8
40960 KeySig -6 major
41845 Tempo 491803
41845 Tempo 500000
41973 Tempo 508474
41973 Tempo 517241
42101 Tempo 526315
42101 Tempo 535714
42229 Tempo 545454
42229 Tempo 555555
42261 Tempo 500000
42261 Tempo 500000
42890 Tempo 495867
42890 Tempo 491803
43008 TimeSig 2/4 24 8
43008 KeySig -6 major
43231 Tempo 487804
43231 Tempo 483870
45056 TimeSig 2/4 24 8
45056 KeySig -6 major
47104 TimeSig 2/4 24 8
47104 KeySig -6 major
49152 TimeSig 2/4 24 8
49152 KeySig -6 major
49895 Tempo 491803
49895 Tempo 500000
50023 Tempo 508474
50023 Tempo 517241
50151 Tempo 526315
50151 Tempo 535714
50279 Tempo 545454
50279 Tempo 555555
50283 Tempo 500000
50283 Tempo 500000
51136 Tempo 495867
51136 Tempo 491803
51200 TimeSig 2/4 24 8
51200 KeySig -6 major
51477 Tempo 487804
51477 Tempo 483870
53248 TimeSig 2/4 24 8
53248 KeySig -6 major
55296 TimeSig 2/4 24 8
55296 KeySig -6 major
57344 TimeSig 2/4 24 8
57344 KeySig -6 major
59392 TimeSig 2/4 24 8
59392 KeySig -6 major
61440 TimeSig 2/4 24 8
61440 KeySig -6 major
63488 TimeSig 2/4 24 8
63488 KeySig -6 major
63712 Tempo 500000
63712 Tempo 500000
64391 Tempo 495867
64391 Tempo 491803
64732 Tempo 487804
64732 Tempo 483870
65536 TimeSig 2/4 24 8
65536 KeySig -6 major
67584 TimeSig 2/4 24 8
67584 KeySig -6 major
69632 TimeSig 2/4 24 8
69632 KeySig -6 major
71680 TimeSig 2/4 24 8
71680 KeySig -6 major
73728 TimeSig 2/4 24 8
73728 KeySig -6 major
73792 Tempo 487804
73792 Tempo 491803
73856 Tempo 500000
73856 Tempo 508474
73920 Tempo 512820
73920 Tempo 517241
73984 Tempo 526315
73984 Tempo 535714
75776 TimeSig 2/4 24 8
75776 KeySig -6 major
77824 TimeSig 2/4 24 8
77824 KeySig -6 major
79872 TimeSig 2/4 24 8
79872 KeySig -6 major
81920 TimeSig 2/4 24 8
81920 KeySig -6 major
83968 TimeSig 2/4 24 8
83968 KeySig -6 major
84475 Tempo 540540
84475 Tempo 545454
84987 Tempo 550458
84987 Tempo 555555
86016 TimeSig 2/4 24 8
86016 KeySig -6 major
88064 TimeSig 2/4 24 8
88064 KeySig -6 major
90112 TimeSig 2/4 24 8
90112 KeySig -6 major
92160 TimeSig 2/4 24 8
92160 KeySig -6 major
94208 TimeSig 2/4 24 8
94208 KeySig -6 major
94848 Tempo 560747
94848 Tempo 566037
95360 Tempo 571428
95360 Tempo 576923
96256 TimeSig 2/4 24 8
96256 KeySig -6 major
98304 TimeSig 2/4 24 8
98304 KeySig -6 major
100352 TimeSig 2/4 24 8
100352 KeySig -6 major
102400 TimeSig 2/4 24 8
102400 KeySig -6 major
103243 Tempo 588235
103243 Tempo 600000
103307 Tempo 612244
103307 Tempo 625000
103371 Tempo 638297
103371 Tempo 652173
103435 Tempo 666666
103435 Tempo 681818
104448 TimeSig 2/4 24 8
104448 KeySig -6 major
104858 Meta TrkEnd
TrkEnd
MTrk
0 Meta TrkName "Grand Piano"
0 PrCh ch=1 p=0
104858 Meta TrkEnd
TrkEnd
MTrk
0 Meta TrkName "Ken's Stuff"
0 PrCh ch=1 p=0
2048 On ch=1 n=a#5 v=76
2304 On ch=1 n=f#6 v=52
2304 On ch=1 n=a#6 v=57
2560 Off ch=1 n=a#5 v=0
2560 Off ch=1 n=f#6 v=0
2560 Off ch=1 n=a#6 v=0
2560 On ch=1 n=b5 v=57
2560 On ch=1 n=b6 v=59
2619 Off ch=1 n=b5 v=0
2675 Off ch=1 n=b6 v=0
2813 On ch=1 n=c6 v=56
2813 On ch=1 n=c7 v=58
2872 Off ch=1 n=c6 v=0
2928 Off ch=1 n=c7 v=0
3066 On ch=1 n=c#6 v=64
3322 On ch=1 n=g#6 v=48
3322 On ch=1 n=c#7 v=53
3578 Off ch=1 n=c#6 v=0
3578 Off ch=1 n=g#6 v=0
3578 Off ch=1 n=c#7 v=0
3578 On ch=1 n=d#6 v=54
3578 On ch=1 n=d#7 v=56
3637 Off ch=1 n=d#6 v=0
3693 Off ch=1 n=d#7 v=0
3831 On ch=1 n=c#6 v=51
3831 On ch=1 n=c#7 v=53
3890 Off ch=1 n=c#6 v=0
3946 Off ch=1 n=c#7 v=0
4084 On ch=1 n=f#5 v=61
4340 On ch=1 n=d#6 v=46
4340 On ch=1 n=f#6 v=51
4596 Off ch=1 n=f#5 v=0
4596 Off ch=1 n=d#6 v=0
4596 Off ch=1 n=f#6 v=0
4596 On ch=1 n=g#5 v=47
4596 On ch=1 n=g#6 v=52
4655 Off ch=1 n=g#5 v=0
4711 Off ch=1 n=g#6 v=0
4849 On ch=1 n=a5 v=48
4849 On ch=1 n=a6 v=53
4908 Off ch=1 n=a5 v=0
4964 Off ch=1 n=a6 v=0
5102 On ch=1 n=a#5 v=62
5358 On ch=1 n=f6 v=46
5358 On ch=1 n=a#6 v=51
5614 Off ch=1 n=a#5 v=0
5614 Off ch=1 n=f6 v=0
5614 Off ch=1 n=a#6 v=0
5614 On ch=1 n=b5 v=49
5614 On ch=1 n=b6 v=54
5673 Off ch=1 n=b5 v=0
5729 Off ch=1 n=b6 v=0
5867 On ch=1 n=a#5 v=46
5867 On ch=1 n=a#6 v=51
5926 Off ch=1 n=a#5 v=0
5982 Off ch=1 n=a#6 v=0
6120 On ch=1 n=d#5 v=59
6376 On ch=1 n=b5 v=46
6376 On ch=1 n=d#6 v=51
6632 Off ch=1 n=d#5 v=0
6632 Off ch=1 n=b5 v=0
6632 Off ch=1 n=d#6 v=0
6632 On ch=1 n=e5 v=48
6632 On ch=1 n=e6 v=53
6691 Off ch=1 n=e5 v=0
6747 Off ch=1 n=e6 v=0
6885 On ch=1 n=f5 v=49
6885 On ch=1 n=f6 v=54
6944 Off ch=1 n=f5 v=0
7000 Off ch=1 n=f6 v=0
7138 On ch=1 n=f#5 v=59
7394 On ch=1 n=c#6 v=49
7394 On ch=1 n=f#6 v=54
7650 Off ch=1 n=f#5 v=0
7650 Off ch=1 n=c#6 v=0
7650 Off ch=1 n=f#6 v=0
7650 On ch=1 n=f5 v=46
7650 On ch=1 n=f6 v=51
7709 Off ch=1 n=f5 v=0
7765 Off ch=1 n=f6 v=0
7903 On ch=1 n=f#5 v=47
7903 On ch=1 n=f#6 v=52
7962 Off ch=1 n=f#5 v=0
8018 Off ch=1 n=f#6 v=0
8156 On ch=1 n=g#5 v=79
8412 On ch=1 n=d#6 v=52
8412 On ch=1 n=g#6 v=57
8668 Off ch=1 n=g#5 v=0
8668 Off ch=1 n=d#6 v=0
8668 Off ch=1 n=g#6 v=0
8668 On ch=1 n=a#5 v=68
8668 On ch=1 n=a#6 v=59
8727 Off ch=1 n=a#5 v=0
8783 Off ch=1 n=a#6 v=0
8921 On ch=1 n=g#5 v=65
8921 On ch=1 n=g#6 v=57
8980 Off ch=1 n=g#5 v=0
9036 Off ch=1 n=g#6 v=0
9174 On ch=1 n=g#5 v=72
9430 On ch=1 n=f6 v=50
9430 On ch=1 n=g#6 v=56
9686 Off ch=1 n=g#5 v=0
9686 Off ch=1 n=f6 v=0
9686 Off ch=1 n=g#6 v=0
9686 On ch=1 n=a#5 v=65
9686 On ch=1 n=a#6 v=56
9745 Off ch=1 n=a#5 v=0
9801 Off ch=1 n=a#6 v=0
9939 On ch=1 n=b5 v=67
9939 On ch=1 n=b6 v=58
9998 Off ch=1 n=b5 v=0
10054 Off ch=1 n=b6 v=0
10192 On ch=1 n=f#6 v=69
10192 On ch=1 n=a#6 v=77
10448 Off ch=1 n=f#6 v=0
10448 On ch=1 n=a#5 v=61
10704 Off ch=1 n=a#5 v=0
10704 Off ch=1 n=a#6 v=0
10704 On ch=1 n=b5 v=63
10704 On ch=1 n=b6 v=62
10763 Off ch=1 n=b5 v=0
10819 Off ch=1 n=b6 v=0
10957 On ch=1 n=c6 v=61
10957 On ch=1 n=c7 v=60
11016 Off ch=1 n=c6 v=0
11072 Off ch=1 n=c7 v=0
11210 On ch=1 n=c#6 v=67
11466 On ch=1 n=g#6 v=49
11466 On ch=1 n=c#7 v=54
11722 Off ch=1 n=c#6 v=0
11722 Off ch=1 n=g#6 v=0
11722 Off ch=1 n=c#7 v=0
11722 On ch=1 n=d#6 v=56
11722 On ch=1 n=d#7 v=57
11781 Off ch=1 n=d#6 v=0
11837 Off ch=1 n=d#7 v=0
11975 On ch=1 n=c#6 v=52
11975 On ch=1 n=c#7 v=54
12034 Off ch=1 n=c#6 v=0
12090 Off ch=1 n=c#7 v=0
12228 On ch=1 n=d#6 v=59
12228 On ch=1 n=f#6 v=59
12484 Off ch=1 n=d#6 v=0
12484 On ch=1 n=f#5 v=46
12740 Off ch=1 n=f#5 v=0
12740 Off ch=1 n=f#6 v=0
12740 On ch=1 n=g#5 v=48
12740 On ch=1 n=g#6 v=53
12799 Off ch=1 n=g#5 v=0
12855 Off ch=1 n=g#6 v=0
12993 On ch=1 n=a5 v=49
12993 On ch=1 n=a6 v=54
13052 Off ch=1 n=a5 v=0
13108 Off ch=1 n=a6 v=0
13246 On ch=1 n=a#5 v=59
13502 On ch=1 n=f6 v=46
13502 On ch=1 n=a#6 v=51
13758 Off ch=1 n=a#5 v=0
13758 Off ch=1 n=f6 v=0
13758 Off ch=1 n=a#6 v=0
13758 On ch=1 n=b5 v=49
13758 On ch=1 n=b6 v=54
13817 Off ch=1 n=b5 v=0
13873 Off ch=1 n=b6 v=0
14011 On ch=1 n=a#5 v=46
14011 On ch=1 n=a#6 v=51
14070 Off ch=1 n=a#5 v=0
14126 Off ch=1 n=a#6 v=0
14264 On ch=1 n=b5 v=59
14264 On ch=1 n=d#6 v=59
14520 Off ch=1 n=b5 v=0
14520 On ch=1 n=d#5 v=46
14776 Off ch=1 n=d#5 v=0
14776 Off ch=1 n=d#6 v=0
14776 On ch=1 n=e5 v=48
14776 On ch=1 n=e6 v=53
14835 Off ch=1 n=e5 v=0
14891 Off ch=1 n=e6 v=0
15029 On ch=1 n=f5 v=49
15029 On ch=1 n=f6 v=54
15088 Off ch=1 n=f5 v=0
15144 Off ch=1 n=f6 v=0
15282 On ch=1 n=f#5 v=59
15538 On ch=1 n=c#6 v=46
15538 On ch=1 n=f#6 v=51
15794 Off ch=1 n=f#5 v=0
15794 Off ch=1 n=c#6 v=0
15794 Off ch=1 n=f#6 v=0
15794 On ch=1 n=f5 v=46
15794 On ch=1 n=f6 v=51
15853 Off ch=1 n=f5 v=0
15909 Off ch=1 n=f6 v=0
16047 On ch=1 n=f#5 v=43
16047 On ch=1 n=f#6 v=54
16106 Off ch=1 n=f#5 v=0
16162 Off ch=1 n=f#6 v=0
16300 On ch=1 n=g#5 v=82
16556 On ch=1 n=f#6 v=48
16556 On ch=1 n=g#6 v=65
16812 Off ch=1 n=g#5 v=0
16812 Off ch=1 n=f#6 v=0
16812 Off ch=1 n=g#6 v=0
16812 On ch=1 n=a#5 v=82
16812 On ch=1 n=f6 v=50
16812 On ch=1 n=a#6 v=57
17068 Off ch=1 n=a#5 v=0
17068 Off ch=1 n=f6 v=0
17068 Off ch=1 n=a#6 v=0
17068 On ch=1 n=g#5 v=63
17068 On ch=1 n=g#6 v=38
17324 Off ch=1 n=g#5 v=0
17324 Off ch=1 n=g#6 v=0
17324 On ch=1 n=f#5 v=67
17580 On ch=1 n=c#6 v=32
17580 On ch=1 n=f#6 v=57
17836 Off ch=1 n=f#5 v=0
17836 Off ch=1 n=c#6 v=0
17836 Off ch=1 n=f#6 v=0
17836 On ch=1 n=f5 v=58
17836 On ch=1 n=f6 v=37
17895 Off ch=1 n=f5 v=0
17951 Off ch=1 n=f6 v=0
18089 On ch=1 n=f#5 v=60
18089 On ch=1 n=f#6 v=47
18148 Off ch=1 n=f#5 v=0
18204 Off ch=1 n=f#6 v=0
18342 On ch=1 n=g#5 v=70
18598 On ch=1 n=f6 v=46
18598 On ch=1 n=g#6 v=56
18854 Off ch=1 n=g#5 v=0
18854 Off ch=1 n=f6 v=0
18854 Off ch=1 n=g#6 v=0
18854 On ch=1 n=a#5 v=68
18854 On ch=1 n=a#6 v=61
18913 Off ch=1 n=a#5 v=0
18969 Off ch=1 n=a#6 v=0
19107 On ch=1 n=g#5 v=65
19107 On ch=1 n=g#6 v=57
19166 Off ch=1 n=g#5 v=0
19222 Off ch=1 n=g#6 v=0
19360 On ch=1 n=g#5 v=55
19616 On ch=1 n=f#6 v=53
19616 On ch=1 n=g#6 v=59
19872 Off ch=1 n=g#5 v=0
19872 Off ch=1 n=f#6 v=0
19872 Off ch=1 n=g#6 v=0
19872 On ch=1 n=c6 v=69
19872 On ch=1 n=c7 v=62
19931 Off ch=1 n=c6 v=0
19987 Off ch=1 n=c7 v=0
20125 On ch=1 n=c#6 v=73
20125 On ch=1 n=c#7 v=66
20184 Off ch=1 n=c#6 v=0
20240 Off ch=1 n=c#7 v=0
20378 On ch=1 n=d#6 v=66
20634 On ch=1 n=g#6 v=67
20634 On ch=1 n=d#7 v=72
20890 Off ch=1 n=d#6 v=0
20890 Off ch=1 n=g#6 v=0
20890 Off ch=1 n=d#7 v=0
20890 On ch=1 n=d6 v=67
20890 On ch=1 n=d7 v=63
20949 Off ch=1 n=d6 v=0
21005 Off ch=1 n=d7 v=0
21143 On ch=1 n=d#6 v=73
21143 On ch=1 n=d#7 v=69
21202 Off ch=1 n=d#6 v=0
21258 Off ch=1 n=d#7 v=0
21396 On ch=1 n=e6 v=73
21652 On ch=1 n=a#6 v=72
21652 On ch=1 n=e7 v=77
21908 Off ch=1 n=e6 v=0
21908 Off ch=1 n=a#6 v=0
21908 Off ch=1 n=e7 v=0
21908 On ch=1 n=f6 v=76
22164 On ch=1 n=a#6 v=67
22164 On ch=1 n=f7 v=72
22420 Off ch=1 n=f6 v=0
22420 Off ch=1 n=a#6 v=0
22420 Off ch=1 n=f7 v=0
22420 On ch=1 n=d#6 v=69
22676 On ch=1 n=a#6 v=76
22676 On ch=1 n=d#7 v=81
22932 Off ch=1 n=d#6 v=0
22932 Off ch=1 n=a#6 v=0
22932 Off ch=1 n=d#7 v=0
22932 On ch=1 n=c#6 v=70
22932 On ch=1 n=c#7 v=76
22991 Off ch=1 n=c#6 v=0
23047 Off ch=1 n=c#7 v=0
23185 On ch=1 n=a#5 v=64
23185 On ch=1 n=a#6 v=69
23244 Off ch=1 n=a#5 v=0
23300 Off ch=1 n=a#6 v=0
23438 On ch=1 n=g#5 v=62
23694 On ch=1 n=c#6 v=61
23694 On ch=1 n=g#6 v=67
23950 Off ch=1 n=g#5 v=0
23950 Off ch=1 n=c#6 v=0
23950 Off ch=1 n=g#6 v=0
23950 On ch=1 n=g5 v=59
23950 On ch=1 n=g6 v=65
24009 Off ch=1 n=g5 v=0
24065 Off ch=1 n=g6 v=0
24203 On ch=1 n=g#5 v=63
24203 On ch=1 n=g#6 v=68
24262 Off ch=1 n=g#5 v=0
24318 Off ch=1 n=g#6 v=0
24456 On ch=1 n=a#5 v=82
24712 On ch=1 n=c6 v=65
24712 On ch=1 n=a#6 v=70
24968 Off ch=1 n=a#5 v=0
24968 Off ch=1 n=c6 v=0
24968 Off ch=1 n=a#6 v=0
24968 On ch=1 n=g#5 v=78
24968 On ch=1 n=g#6 v=66
25027 Off ch=1 n=g#5 v=0
25083 Off ch=1 n=g#6 v=0
25221 On ch=1 n=f#5 v=71
25221 On ch=1 n=f#6 v=59
25280 Off ch=1 n=f#5 v=0
25336 Off ch=1 n=f#6 v=0
25474 On ch=1 n=e5 v=68
25730 On ch=1 n=c#6 v=50
25730 On ch=1 n=e6 v=55
25986 Off ch=1 n=e5 v=0
25986 Off ch=1 n=c#6 v=0
25986 Off ch=1 n=e6 v=0
25986 On ch=1 n=f5 v=62
26242 On ch=1 n=c#6 v=50
26242 On ch=1 n=f6 v=55
26498 Off ch=1 n=f5 v=0
26498 Off ch=1 n=c#6 v=0
26498 Off ch=1 n=f6 v=0
26498 On ch=1 n=c#6 v=58
26498 On ch=1 n=f6 v=48
26754 Off ch=1 n=c#6 v=0
26754 On ch=1 n=f5 v=59
27010 Off ch=1 n=f5 v=0
27010 Off ch=1 n=f6 v=0
27010 On ch=1 n=f#5 v=60
27010 On ch=1 n=f#6 v=57
27069 Off ch=1 n=f#5 v=0
27125 Off ch=1 n=f#6 v=0
27263 On ch=1 n=g5 v=61
27263 On ch=1 n=g6 v=57
27322 Off ch=1 n=g5 v=0
27378 Off ch=1 n=g6 v=0
27516 On ch=1 n=g#5 v=62
27772 On ch=1 n=d#6 v=54
27772 On ch=1 n=g#6 v=60
28028 Off ch=1 n=g#5 v=0
28028 Off ch=1 n=d#6 v=0
28028 Off ch=1 n=g#6 v=0
28028 On ch=1 n=a#5 v=64
28028 On ch=1 n=a#6 v=60
28087 Off ch=1 n=a#5 v=0
28143 Off ch=1 n=a#6 v=0
28281 On ch=1 n=c6 v=65
28281 On ch=1 n=c7 v=61
28340 Off ch=1 n=c6 v=0
28396 Off ch=1 n=c7 v=0
28534 On ch=1 n=g6 v=63
28534 On ch=1 n=c#7 v=65
28790 Off ch=1 n=g6 v=0
28790 On ch=1 n=c#6 v=67
29046 Off ch=1 n=c#6 v=0
29046 Off ch=1 n=c#7 v=0
29046 On ch=1 n=d#6 v=68
29046 On ch=1 n=d#7 v=72
29105 Off ch=1 n=d#6 v=0
29161 Off ch=1 n=d#7 v=0
29299 On ch=1 n=e6 v=72
29299 On ch=1 n=e7 v=75
29358 Off ch=1 n=e6 v=0
29414 Off ch=1 n=e7 v=0
29552 On ch=1 n=e6 v=69
29808 On ch=1 n=g#6 v=67
29808 On ch=1 n=e7 v=73
30064 Off ch=1 n=e6 v=0
30064 Off ch=1 n=g#6 v=0
30064 Off ch=1 n=e7 v=0
30064 On ch=1 n=f6 v=71
30320 On ch=1 n=g#6 v=70
30320 On ch=1 n=f7 v=76
30576 Off ch=1 n=f6 v=0
30576 Off ch=1 n=g#6 v=0
30576 Off ch=1 n=f7 v=0
30576 On ch=1 n=f#6 v=76
30576 On ch=1 n=d#7 v=80
30832 Off ch=1 n=f#6 v=0
30832 On ch=1 n=d#6 v=75
31088 Off ch=1 n=d#6 v=0
31088 Off ch=1 n=d#7 v=0
31088 On ch=1 n=c#6 v=74
31088 On ch=1 n=c#7 v=75
31147 Off ch=1 n=c#6 v=0
31203 Off ch=1 n=c#7 v=0
31341 On ch=1 n=a#5 v=69
31341 On ch=1 n=a#6 v=69
31400 Off ch=1 n=a#5 v=0
31456 Off ch=1 n=a#6 v=0
31594 On ch=1 n=g#5 v=67
31850 On ch=1 n=c#6 v=62
31850 On ch=1 n=g#6 v=68
32106 Off ch=1 n=g#5 v=0
32106 Off ch=1 n=c#6 v=0
32106 Off ch=1 n=g#6 v=0
32106 On ch=1 n=g5 v=64
32106 On ch=1 n=g6 v=66
32165 Off ch=1 n=g5 v=0
32221 Off ch=1 n=g6 v=0
32359 On ch=1 n=g#5 v=63
32359 On ch=1 n=g#6 v=65
32418 Off ch=1 n=g#5 v=0
32474 Off ch=1 n=g#6 v=0
32612 On ch=1 n=c6 v=82
32868 On ch=1 n=f#6 v=61
32868 On ch=1 n=c7 v=66
33124 Off ch=1 n=c6 v=0
33124 Off ch=1 n=f#6 v=0
33124 Off ch=1 n=c7 v=0
33124 On ch=1 n=a#5 v=75
33124 On ch=1 n=a#6 v=64
33183 Off ch=1 n=a#5 v=0
33239 Off ch=1 n=a#6 v=0
33377 On ch=1 n=g#5 v=71
33377 On ch=1 n=g#6 v=60
33436 Off ch=1 n=g#5 v=0
33492 Off ch=1 n=g#6 v=0
33630 On ch=1 n=c#6 v=68
33886 On ch=1 n=f6 v=50
33886 On ch=1 n=c#7 v=55
34142 Off ch=1 n=c#6 v=0
34142 Off ch=1 n=f6 v=0
34142 Off ch=1 n=c#7 v=0
34142 On ch=1 n=c6 v=65
34142 On ch=1 n=c7 v=52
34201 Off ch=1 n=c6 v=0
34257 Off ch=1 n=c7 v=0
34395 On ch=1 n=c#6 v=59
34395 On ch=1 n=c#7 v=49
34454 Off ch=1 n=c#6 v=0
34510 Off ch=1 n=c#7 v=0
34648 On ch=1 n=c#6 v=64
34904 On ch=1 n=a#6 v=47
34904 On ch=1 n=c#7 v=52
35160 Off ch=1 n=c#6 v=0
35160 Off ch=1 n=a#6 v=0
35160 Off ch=1 n=c#7 v=0
35160 On ch=1 n=e6 v=62
35160 On ch=1 n=e7 v=52
35219 Off ch=1 n=e6 v=0
35275 Off ch=1 n=e7 v=0
35413 On ch=1 n=d#6 v=61
35413 On ch=1 n=d#7 v=51
35472 Off ch=1 n=d#6 v=0
35528 Off ch=1 n=d#7 v=0
35666 On ch=1 n=c#6 v=61
35922 On ch=1 n=g#6 v=45
35922 On ch=1 n=c#7 v=50
36178 Off ch=1 n=c#6 v=0
36178 Off ch=1 n=g#6 v=0
36178 Off ch=1 n=c#7 v=0
36178 On ch=1 n=b5 v=60
36178 On ch=1 n=b6 v=50
36237 Off ch=1 n=b5 v=0
36293 Off ch=1 n=b6 v=0
36431 On ch=1 n=a#5 v=60
36431 On ch=1 n=a#6 v=50
36490 Off ch=1 n=a#5 v=0
36546 Off ch=1 n=a#6 v=0
36684 On ch=1 n=b5 v=48
36940 On ch=1 n=f6 v=44
36940 On ch=1 n=b6 v=49
37196 Off ch=1 n=b5 v=0
37196 Off ch=1 n=f6 v=0
37196 Off ch=1 n=b6 v=0
37196 On ch=1 n=d6 v=47
37196 On ch=1 n=d7 v=48
37255 Off ch=1 n=d6 v=0
37311 Off ch=1 n=d7 v=0
37449 On ch=1 n=c#6 v=47
37449 On ch=1 n=c#7 v=48
37508 Off ch=1 n=c#6 v=0
37564 Off ch=1 n=c#7 v=0
37702 On ch=1 n=b5 v=47
37958 On ch=1 n=f#6 v=43
37958 On ch=1 n=b6 v=48
38214 Off ch=1 n=b5 v=0
38214 Off ch=1 n=f#6 v=0
38214 Off ch=1 n=b6 v=0
38214 On ch=1 n=a5 v=46
38214 On ch=1 n=a6 v=48
38273 Off ch=1 n=a5 v=0
38329 Off ch=1 n=a6 v=0
38467 On ch=1 n=g#5 v=46
38467 On ch=1 n=g#6 v=48
38526 Off ch=1 n=g#5 v=0
38582 Off ch=1 n=g#6 v=0
38720 On ch=1 n=f#5 v=46
38976 On ch=1 n=d#6 v=42
38976 On ch=1 n=f#6 v=48
39232 Off ch=1 n=f#5 v=0
39232 Off ch=1 n=d#6 v=0
39232 Off ch=1 n=f#6 v=0
39232 On ch=1 n=a5 v=44
39232 On ch=1 n=a6 v=48
39291 Off ch=1 n=a5 v=0
39347 Off ch=1 n=a6 v=0
39485 On ch=1 n=g#5 v=44
39485 On ch=1 n=g#6 v=47
39544 Off ch=1 n=g#5 v=0
39600 Off ch=1 n=g#6 v=0
39738 On ch=1 n=g#5 v=43
39994 On ch=1 n=d#6 v=41
39994 On ch=1 n=g#6 v=46
40250 Off ch=1 n=g#5 v=0
40250 Off ch=1 n=d#6 v=0
40250 Off ch=1 n=g#6 v=0
40250 On ch=1 n=g5 v=43
40250 On ch=1 n=g6 v=46
40309 Off ch=1 n=g5 v=0
40365 Off ch=1 n=g6 v=0
40503 On ch=1 n=f#5 v=43
40503 On ch=1 n=f#6 v=46
40562 Off ch=1 n=f#5 v=0
40618 Off ch=1 n=f#6 v=0
40756 On ch=1 n=f5 v=50
41012 On ch=1 n=c#6 v=49
41012 On ch=1 n=f6 v=55
41268 Off ch=1 n=f5 v=0
41268 Off ch=1 n=c#6 v=0
41268 Off ch=1 n=f6 v=0
41268 On ch=1 n=f#5 v=50
41268 On ch=1 n=f#6 v=55
41327 Off ch=1 n=f#5 v=0
41383 Off ch=1 n=f#6 v=0
41521 On ch=1 n=g5 v=50
41521 On ch=1 n=g6 v=49
41580 Off ch=1 n=g5 v=0
41636 Off ch=1 n=g6 v=0
41774 On ch=1 n=g#5 v=50
42030 On ch=1 n=c#6 v=49
42030 On ch=1 n=g#6 v=55
42286 Off ch=1 n=g#5 v=0
42286 Off ch=1 n=c#6 v=0
42286 Off ch=1 n=g#6 v=0
42286 On ch=1 n=c#6 v=49
42542 On ch=1 n=g#6 v=49
42542 On ch=1 n=c#7 v=49
42798 Off ch=1 n=c#6 v=0
42798 Off ch=1 n=g#6 v=0
42798 Off ch=1 n=c#7 v=0
42798 On ch=1 n=a#7 v=50
42798 On ch=1 n=c#8 v=56
43054 Off ch=1 n=a#7 v=0
43054 On ch=1 n=c#7 v=62
43310 Off ch=1 n=c#7 v=0
43310 Off ch=1 n=c#8 v=0
43310 On ch=1 n=e7 v=65
43310 On ch=1 n=e8 v=75
43369 Off ch=1 n=e7 v=0
43425 Off ch=1 n=e8 v=0
43563 On ch=1 n=d#7 v=62
43563 On ch=1 n=d#8 v=72
43622 Off ch=1 n=d#7 v=0
43678 Off ch=1 n=d#8 v=0
43816 On ch=1 n=g#7 v=55
43816 On ch=1 n=c#8 v=65
44072 Off ch=1 n=g#7 v=0
44072 On ch=1 n=c#7 v=57
44328 Off ch=1 n=c#7 v=0
44328 Off ch=1 n=c#8 v=0
44328 On ch=1 n=b6 v=55
44328 On ch=1 n=b7 v=64
44387 Off ch=1 n=b6 v=0
44443 Off ch=1 n=b7 v=0
44581 On ch=1 n=a#6 v=54
44581 On ch=1 n=a#7 v=62
44640 Off ch=1 n=a#6 v=0
44696 Off ch=1 n=a#7 v=0
44834 On ch=1 n=f7 v=50
44834 On ch=1 n=b7 v=54
45090 Off ch=1 n=f7 v=0
45090 On ch=1 n=b6 v=59
45346 Off ch=1 n=b6 v=0
45346 Off ch=1 n=b7 v=0
45346 On ch=1 n=d7 v=58
45346 On ch=1 n=d8 v=61
45405 Off ch=1 n=d7 v=0
45461 Off ch=1 n=d8 v=0
45599 On ch=1 n=c#7 v=56
45599 On ch=1 n=c#8 v=57
45658 Off ch=1 n=c#7 v=0
45714 Off ch=1 n=c#8 v=0
45852 On ch=1 n=f#7 v=49
45852 On ch=1 n=b7 v=50
46108 Off ch=1 n=f#7 v=0
46108 On ch=1 n=b6 v=53
46364 Off ch=1 n=b6 v=0
46364 Off ch=1 n=b7 v=0
46364 On ch=1 n=a6 v=53
46364 On ch=1 n=a7 v=53
46423 Off ch=1 n=a6 v=0
46479 Off ch=1 n=a7 v=0
46617 On ch=1 n=g#6 v=52
46617 On ch=1 n=g#7 v=51
46676 Off ch=1 n=g#6 v=0
46732 Off ch=1 n=g#7 v=0
46870 On ch=1 n=d#7 v=45
46870 On ch=1 n=f#7 v=45
47126 Off ch=1 n=d#7 v=0
47126 On ch=1 n=f#6 v=45
47382 Off ch=1 n=f#6 v=0
47382 Off ch=1 n=f#7 v=0
47382 On ch=1 n=a6 v=54
47382 On ch=1 n=a7 v=59
47441 Off ch=1 n=a6 v=0
47497 Off ch=1 n=a7 v=0
47635 On ch=1 n=g#6 v=51
47635 On ch=1 n=g#7 v=58
47694 Off ch=1 n=g#6 v=0
47750 Off ch=1 n=g#7 v=0
47888 On ch=1 n=g#6 v=50
48144 On ch=1 n=d#7 v=48
48144 On ch=1 n=g#7 v=53
48400 Off ch=1 n=g#6 v=0
48400 Off ch=1 n=d#7 v=0
48400 Off ch=1 n=g#7 v=0
48400 On ch=1 n=g6 v=46
48400 On ch=1 n=g7 v=51
48459 Off ch=1 n=g6 v=0
48515 Off ch=1 n=g7 v=0
48653 On ch=1 n=f#6 v=43
48653 On ch=1 n=f#7 v=48
48712 Off ch=1 n=f#6 v=0
48768 Off ch=1 n=f#7 v=0
48906 On ch=1 n=f#6 v=46
49162 On ch=1 n=b6 v=42
49162 On ch=1 n=f#7 v=52
49418 Off ch=1 n=f#6 v=0
49418 Off ch=1 n=b6 v=0
49418 Off ch=1 n=f#7 v=0
49418 On ch=1 n=f6 v=46
49418 On ch=1 n=f7 v=52
49477 Off ch=1 n=f6 v=0
49533 Off ch=1 n=f7 v=0
49671 On ch=1 n=d#6 v=46
49671 On ch=1 n=d#7 v=52
49730 Off ch=1 n=d#6 v=0
49786 Off ch=1 n=d#7 v=0
49924 On ch=1 n=d6 v=59
50180 On ch=1 n=g#6 v=42
50180 On ch=1 n=d7 v=52
50436 Off ch=1 n=d6 v=0
50436 Off ch=1 n=g#6 v=0
50436 Off ch=1 n=d7 v=0
50436 On ch=1 n=a#5 v=57
50436 On ch=1 n=a#6 v=52
50495 Off ch=1 n=a#5 v=0
50551 Off ch=1 n=a#6 v=0
50689 On ch=1 n=g#5 v=65
50689 On ch=1 n=g#6 v=52
50748 Off ch=1 n=g#5 v=0
50804 Off ch=1 n=g#6 v=0
50942 On ch=1 n=a#5 v=112
51198 On ch=1 n=f#6 v=86
51198 On ch=1 n=a#6 v=91
51454 Off ch=1 n=a#5 v=0
51454 Off ch=1 n=f#6 v=0
51454 Off ch=1 n=a#6 v=0
51454 On ch=1 n=b5 v=86
51454 On ch=1 n=b6 v=91
51513 Off ch=1 n=b5 v=0
51569 Off ch=1 n=b6 v=0
51707 On ch=1 n=c6 v=86
51707 On ch=1 n=c7 v=91
51766 Off ch=1 n=c6 v=0
51822 Off ch=1 n=c7 v=0
51960 On ch=1 n=c#6 v=112
52216 On ch=1 n=g#6 v=86
52216 On ch=1 n=c#7 v=91
52472 Off ch=1 n=c#6 v=0
52472 Off ch=1 n=g#6 v=0
52472 Off ch=1 n=c#7 v=0
52472 On ch=1 n=d#6 v=86
52472 On ch=1 n=d#7 v=91
52531 Off ch=1 n=d#6 v=0
52587 Off ch=1 n=d#7 v=0
52725 On ch=1 n=c#6 v=86
52725 On ch=1 n=c#7 v=91
52784 Off ch=1 n=c#6 v=0
52840 Off ch=1 n=c#7 v=0
52978 On ch=1 n=f#5 v=86
53234 On ch=1 n=d#6 v=86
53234 On ch=1 n=f#6 v=91
53490 Off ch=1 n=f#5 v=0
53490 Off ch=1 n=d#6 v=0
53490 Off ch=1 n=f#6 v=0
53490 On ch=1 n=g#5 v=86
53490 On ch=1 n=g#6 v=91
53549 Off ch=1 n=g#5 v=0
53605 Off ch=1 n=g#6 v=0
53743 On ch=1 n=a5 v=86
53743 On ch=1 n=a6 v=91
53802 Off ch=1 n=a5 v=0
53858 Off ch=1 n=a6 v=0
53996 On ch=1 n=a#5 v=86
54252 On ch=1 n=f6 v=86
54252 On ch=1 n=a#6 v=91
54508 Off ch=1 n=a#5 v=0
54508 Off ch=1 n=f6 v=0
54508 Off ch=1 n=a#6 v=0
54508 On ch=1 n=b5 v=86
54508 On ch=1 n=b6 v=91
54567 Off ch=1 n=b5 v=0
54623 Off ch=1 n=b6 v=0
54761 On ch=1 n=a#5 v=86
54761 On ch=1 n=a#6 v=90
54820 Off ch=1 n=a#5 v=0
54876 Off ch=1 n=a#6 v=0
55014 On ch=1 n=d#5 v=86
55270 On ch=1 n=b5 v=86
55270 On ch=1 n=d#6 v=90
55526 Off ch=1 n=d#5 v=0
55526 Off ch=1 n=b5 v=0
55526 Off ch=1 n=d#6 v=0
55526 On ch=1 n=e5 v=86
55526 On ch=1 n=e6 v=90
55585 Off ch=1 n=e5 v=0
55641 Off ch=1 n=e6 v=0
55779 On ch=1 n=f5 v=86
55779 On ch=1 n=f6 v=90
55838 Off ch=1 n=f5 v=0
55894 Off ch=1 n=f6 v=0
56032 On ch=1 n=f#5 v=86
56288 On ch=1 n=c#6 v=86
56288 On ch=1 n=f#6 v=90
56544 Off ch=1 n=f#5 v=0
56544 Off ch=1 n=c#6 v=0
56544 Off ch=1 n=f#6 v=0
56544 On ch=1 n=f5 v=86
56544 On ch=1 n=f6 v=90
56603 Off ch=1 n=f5 v=0
56659 Off ch=1 n=f6 v=0
56797 On ch=1 n=f#5 v=86
56797 On ch=1 n=f#6 v=90
56856 Off ch=1 n=f#5 v=0
56912 Off ch=1 n=f#6 v=0
57050 On ch=1 n=g#5 v=86
57306 On ch=1 n=f#6 v=86
57306 On ch=1 n=g#6 v=90
57562 Off ch=1 n=g#5 v=0
57562 Off ch=1 n=f#6 v=0
57562 Off ch=1 n=g#6 v=0
57562 On ch=1 n=a#5 v=86
57562 On ch=1 n=a#6 v=90
57621 Off ch=1 n=a#5 v=0
57677 Off ch=1 n=a#6 v=0
57815 On ch=1 n=g#5 v=86
57815 On ch=1 n=g#6 v=90
57874 Off ch=1 n=g#5 v=0
57930 Off ch=1 n=g#6 v=0
58068 On ch=1 n=g#5 v=86
58324 On ch=1 n=f6 v=86
58324 On ch=1 n=g#6 v=90
58580 Off ch=1 n=g#5 v=0
58580 Off ch=1 n=f6 v=0
58580 Off ch=1 n=g#6 v=0
58580 On ch=1 n=a#5 v=86
58580 On ch=1 n=a#6 v=90
58639 Off ch=1 n=a#5 v=0
58695 Off ch=1 n=a#6 v=0
58833 On ch=1 n=b5 v=86
58833 On ch=1 n=b6 v=90
58892 Off ch=1 n=b5 v=0
58948 Off ch=1 n=b6 v=0
59086 On ch=1 n=a#5 v=86
59342 On ch=1 n=f#6 v=86
59342 On ch=1 n=a#6 v=90
59598 Off ch=1 n=a#5 v=0
59598 Off ch=1 n=f#6 v=0
59598 Off ch=1 n=a#6 v=0
59598 On ch=1 n=b5 v=86
59598 On ch=1 n=b6 v=90
59657 Off ch=1 n=b5 v=0
59713 Off ch=1 n=b6 v=0
59851 On ch=1 n=c6 v=86
59851 On ch=1 n=c7 v=90
59910 Off ch=1 n=c6 v=0
59966 Off ch=1 n=c7 v=0
60104 On ch=1 n=c#6 v=86
60360 On ch=1 n=g#6 v=86
60360 On ch=1 n=c#7 v=90
60616 Off ch=1 n=c#6 v=0
60616 Off ch=1 n=g#6 v=0
60616 Off ch=1 n=c#7 v=0
60616 On ch=1 n=d#6 v=85
60616 On ch=1 n=d#7 v=89
60675 Off ch=1 n=d#6 v=0
60731 Off ch=1 n=d#7 v=0
60869 On ch=1 n=c#6 v=85
60869 On ch=1 n=c#7 v=89
60928 Off ch=1 n=c#6 v=0
60984 Off ch=1 n=c#7 v=0
61122 On ch=1 n=b5 v=85
61378 On ch=1 n=g#6 v=86
61378 On ch=1 n=b6 v=90
61634 Off ch=1 n=b5 v=0
61634 Off ch=1 n=g#6 v=0
61634 Off ch=1 n=b6 v=0
61634 On ch=1 n=c#6 v=86
61634 On ch=1 n=c#7 v=90
61693 Off ch=1 n=c#6 v=0
61749 Off ch=1 n=c#7 v=0
61887 On ch=1 n=d6 v=87
61887 On ch=1 n=d7 v=91
61946 Off ch=1 n=d6 v=0
62002 Off ch=1 n=d7 v=0
62140 On ch=1 n=d#6 v=87
62396 On ch=1 n=a#6 v=88
62396 On ch=1 n=d#7 v=92
62652 Off ch=1 n=d#6 v=0
62652 Off ch=1 n=a#6 v=0
62652 Off ch=1 n=d#7 v=0
62652 On ch=1 n=e6 v=88
62652 On ch=1 n=e7 v=92
62711 Off ch=1 n=e6 v=0
62767 Off ch=1 n=e7 v=0
62905 On ch=1 n=d#6 v=89
62905 On ch=1 n=d#7 v=93
62964 Off ch=1 n=d#6 v=0
63020 Off ch=1 n=d#7 v=0
63158 On ch=1 n=d#6 v=89
63414 On ch=1 n=b6 v=89
63414 On ch=1 n=d#7 v=94
63670 Off ch=1 n=d#6 v=0
63670 Off ch=1 n=b6 v=0
63670 Off ch=1 n=d#7 v=0
63670 On ch=1 n=e6 v=89
63670 On ch=1 n=e7 v=94
63729 Off ch=1 n=e6 v=0
63785 Off ch=1 n=e7 v=0
63923 On ch=1 n=f6 v=90
63923 On ch=1 n=f7 v=95
63982 Off ch=1 n=f6 v=0
64038 Off ch=1 n=f7 v=0
64176 On ch=1 n=f#6 v=90
64432 On ch=1 n=c#7 v=91
64432 On ch=1 n=f#7 v=96
64688 Off ch=1 n=f#6 v=0
64688 Off ch=1 n=c#7 v=0
64688 Off ch=1 n=f#7 v=0
64688 On ch=1 n=f6 v=92
64688 On ch=1 n=f7 v=97
64747 Off ch=1 n=f6 v=0
64803 Off ch=1 n=f7 v=0
64941 On ch=1 n=f#6 v=92
64941 On ch=1 n=f#7 v=97
65000 Off ch=1 n=f#6 v=0
65056 Off ch=1 n=f#7 v=0
65194 On ch=1 n=g#6 v=92
65450 On ch=1 n=d#7 v=93
65450 On ch=1 n=f#7 v=93
65450 On ch=1 n=g#7 v=98
65706 Off ch=1 n=g#6 v=0
65706 Off ch=1 n=d#7 v=0
65706 Off ch=1 n=f#7 v=0
65706 Off ch=1 n=g#7 v=0
65706 On ch=1 n=g6 v=94
65706 On ch=1 n=g7 v=99
65765 Off ch=1 n=g6 v=0
65821 Off ch=1 n=g7 v=0
65959 On ch=1 n=g#6 v=94
65959 On ch=1 n=g#7 v=99
66018 Off ch=1 n=g#6 v=0
66074 Off ch=1 n=g#7 v=0
66212 On ch=1 n=a6 v=95
66468 On ch=1 n=d#7 v=96
66468 On ch=1 n=f#7 v=96
66468 On ch=1 n=a7 v=101
66724 Off ch=1 n=a6 v=0
66724 Off ch=1 n=d#7 v=0
66724 Off ch=1 n=f#7 v=0
66724 Off ch=1 n=a7 v=0
66724 On ch=1 n=g#6 v=95
66724 On ch=1 n=g#7 v=100
66783 Off ch=1 n=g#6 v=0
66839 Off ch=1 n=g#7 v=0
66977 On ch=1 n=a6 v=95
66977 On ch=1 n=a7 v=100
67036 Off ch=1 n=a6 v=0
67092 Off ch=1 n=a7 v=0
67230 On ch=1 n=a#6 v=97
67486 On ch=1 n=f#7 v=97
67486 On ch=1 n=a#7 v=102
67742 Off ch=1 n=a#6 v=0
67742 Off ch=1 n=f#7 v=0
67742 Off ch=1 n=a#7 v=0
67742 On ch=1 n=b6 v=101
67742 On ch=1 n=b7 v=97
67801 Off ch=1 n=b6 v=0
67857 Off ch=1 n=b7 v=0
67995 On ch=1 n=a#6 v=101
67995 On ch=1 n=a#7 v=103
68054 Off ch=1 n=a#6 v=0
68110 Off ch=1 n=a#7 v=0
68248 On ch=1 n=a#6 v=97
68504 On ch=1 n=f7 v=97
68504 On ch=1 n=a#7 v=102
68760 Off ch=1 n=a#6 v=0
68760 Off ch=1 n=f7 v=0
68760 Off ch=1 n=a#7 v=0
68760 On ch=1 n=a6 v=97
68760 On ch=1 n=a7 v=102
68819 Off ch=1 n=a6 v=0
68875 Off ch=1 n=a7 v=0
69013 On ch=1 n=g#6 v=97
69013 On ch=1 n=g#7 v=102
69072 Off ch=1 n=g#6 v=0
69128 Off ch=1 n=g#7 v=0
69266 On ch=1 n=g#6 v=97
69522 On ch=1 n=d#7 v=97
69522 On ch=1 n=g#7 v=102
69778 Off ch=1 n=g#6 v=0
69778 Off ch=1 n=d#7 v=0
69778 Off ch=1 n=g#7 v=0
69778 On ch=1 n=g6 v=97
69778 On ch=1 n=g7 v=102
69837 Off ch=1 n=g6 v=0
69893 Off ch=1 n=g7 v=0
70031 On ch=1 n=f#6 v=97
70031 On ch=1 n=f#7 v=102
70090 Off ch=1 n=f#6 v=0
70146 Off ch=1 n=f#7 v=0
70284 On ch=1 n=f#6 v=97
70540 On ch=1 n=a6 v=97
70540 On ch=1 n=f#7 v=102
70796 Off ch=1 n=f#6 v=0
70796 Off ch=1 n=a6 v=0
70796 Off ch=1 n=f#7 v=0
70796 On ch=1 n=f6 v=97
70796 On ch=1 n=f7 v=102
70855 Off ch=1 n=f6 v=0
70911 Off ch=1 n=f7 v=0
71049 On ch=1 n=d#6 v=97
71049 On ch=1 n=d#7 v=102
71108 Off ch=1 n=d#6 v=0
71164 Off ch=1 n=d#7 v=0
71302 On ch=1 n=d#6 v=97
71558 On ch=1 n=g#6 v=97
71558 On ch=1 n=d#7 v=102
71814 Off ch=1 n=d#6 v=0
71814 Off ch=1 n=g#6 v=0
71814 Off ch=1 n=d#7 v=0
71814 On ch=1 n=d6 v=97
71814 On ch=1 n=d7 v=102
71873 Off ch=1 n=d6 v=0
71929 Off ch=1 n=d7 v=0
72067 On ch=1 n=c#6 v=97
72067 On ch=1 n=c#7 v=102
72126 Off ch=1 n=c#6 v=0
72182 Off ch=1 n=c#7 v=0
72320 On ch=1 n=c#6 v=97
72576 On ch=1 n=g#6 v=97
72576 On ch=1 n=c#7 v=101
72832 Off ch=1 n=c#6 v=0
72832 Off ch=1 n=g#6 v=0
72832 Off ch=1 n=c#7 v=0
72832 On ch=1 n=c6 v=97
72832 On ch=1 n=c7 v=101
72891 Off ch=1 n=c6 v=0
72947 Off ch=1 n=c7 v=0
73085 On ch=1 n=b5 v=97
73085 On ch=1 n=b6 v=101
73144 Off ch=1 n=b5 v=0
73200 Off ch=1 n=b6 v=0
73338 On ch=1 n=b5 v=104
73594 On ch=1 n=d6 v=93
73594 On ch=1 n=b6 v=97
73850 Off ch=1 n=b5 v=0
73850 Off ch=1 n=d6 v=0
73850 Off ch=1 n=b6 v=0
73850 On ch=1 n=a#5 v=92
73850 On ch=1 n=a#6 v=96
73909 Off ch=1 n=a#5 v=0
73965 Off ch=1 n=a#6 v=0
74103 On ch=1 n=a5 v=92
74103 On ch=1 n=a6 v=96
74162 Off ch=1 n=a5 v=0
74218 Off ch=1 n=a6 v=0
74356 On ch=1 n=a5 v=98
74612 On ch=1 n=c6 v=91
74612 On ch=1 n=a6 v=94
74868 Off ch=1 n=a5 v=0
74868 Off ch=1 n=c6 v=0
74868 Off ch=1 n=a6 v=0
74868 On ch=1 n=g#5 v=99
75124 On ch=1 n=c#6 v=92
75124 On ch=1 n=g#6 v=95
75380 Off ch=1 n=g#5 v=0
75380 Off ch=1 n=g#6 v=0
75380 On ch=1 n=f#5 v=91
75380 On ch=1 n=f#6 v=95
76404 Off ch=1 n=f#5 v=0
76404 Off ch=1 n=c#6 v=0
76404 Off ch=1 n=f#6 v=0
76404 On ch=1 n=g#5 v=71
76660 On ch=1 n=c#6 v=62
76660 On ch=1 n=g#6 v=69
76916 Off ch=1 n=g#5 v=0
76916 Off ch=1 n=c#6 v=0
76916 Off ch=1 n=g#6 v=0
76916 On ch=1 n=a#5 v=47
76916 On ch=1 n=a#6 v=60
76975 Off ch=1 n=a#5 v=0
77031 Off ch=1 n=a#6 v=0
77169 On ch=1 n=b5 v=44
77169 On ch=1 n=b6 v=56
77228 Off ch=1 n=b5 v=0
77284 Off ch=1 n=b6 v=0
77422 On ch=1 n=c#6 v=60
77678 On ch=1 n=f#6 v=46
77678 On ch=1 n=c#7 v=51
77934 Off ch=1 n=c#6 v=0
77934 Off ch=1 n=f#6 v=0
77934 Off ch=1 n=c#7 v=0
77934 On ch=1 n=d#6 v=46
77934 On ch=1 n=d#7 v=51
77993 Off ch=1 n=d#6 v=0
78049 Off ch=1 n=d#7 v=0
78187 On ch=1 n=c#6 v=46
78187 On ch=1 n=c#7 v=51
78246 Off ch=1 n=c#6 v=0
78302 Off ch=1 n=c#7 v=0
78440 On ch=1 n=g#5 v=60
78696 On ch=1 n=c#6 v=46
78696 On ch=1 n=g#6 v=51
78952 Off ch=1 n=g#5 v=0
78952 Off ch=1 n=c#6 v=0
78952 Off ch=1 n=g#6 v=0
78952 On ch=1 n=a#5 v=46
78952 On ch=1 n=a#6 v=51
79011 Off ch=1 n=a#5 v=0
79067 Off ch=1 n=a#6 v=0
79205 On ch=1 n=g#5 v=46
79205 On ch=1 n=g#6 v=51
79264 Off ch=1 n=g#5 v=0
79320 Off ch=1 n=g#6 v=0
79458 On ch=1 n=c#5 v=60
79714 On ch=1 n=a#5 v=49
79714 On ch=1 n=c#6 v=54
79970 Off ch=1 n=c#5 v=0
79970 Off ch=1 n=a#5 v=0
79970 Off ch=1 n=c#6 v=0
79970 On ch=1 n=f5 v=49
79970 On ch=1 n=f6 v=54
80029 Off ch=1 n=f5 v=0
80085 Off ch=1 n=f6 v=0
80223 On ch=1 n=f#5 v=48
80223 On ch=1 n=f#6 v=53
80282 Off ch=1 n=f#5 v=0
80338 Off ch=1 n=f#6 v=0
80476 On ch=1 n=g#5 v=58
80732 On ch=1 n=c#6 v=47
80732 On ch=1 n=g#6 v=52
80988 Off ch=1 n=g#5 v=0
80988 Off ch=1 n=c#6 v=0
80988 Off ch=1 n=g#6 v=0
80988 On ch=1 n=a#5 v=47
80988 On ch=1 n=a#6 v=52
81047 Off ch=1 n=a#5 v=0
81103 Off ch=1 n=a#6 v=0
81241 On ch=1 n=b5 v=47
81241 On ch=1 n=b6 v=52
81300 Off ch=1 n=b5 v=0
81356 Off ch=1 n=b6 v=0
81494 On ch=1 n=c#6 v=56
81750 On ch=1 n=f#6 v=46
81750 On ch=1 n=c#7 v=51
82006 Off ch=1 n=c#6 v=0
82006 Off ch=1 n=f#6 v=0
82006 Off ch=1 n=c#7 v=0
82006 On ch=1 n=d#6 v=46
82006 On ch=1 n=d#7 v=51
82065 Off ch=1 n=d#6 v=0
82121 Off ch=1 n=d#7 v=0
82259 On ch=1 n=c#6 v=46
82259 On ch=1 n=c#7 v=51
82318 Off ch=1 n=c#6 v=0
82374 Off ch=1 n=c#7 v=0
82512 On ch=1 n=g#5 v=56
82768 On ch=1 n=c#6 v=46
82768 On ch=1 n=g#6 v=51
83024 Off ch=1 n=g#5 v=0
83024 Off ch=1 n=c#6 v=0
83024 Off ch=1 n=g#6 v=0
83024 On ch=1 n=a#5 v=46
83024 On ch=1 n=a#6 v=51
83083 Off ch=1 n=a#5 v=0
83139 Off ch=1 n=a#6 v=0
83277 On ch=1 n=g#5 v=46
83277 On ch=1 n=g#6 v=51
83336 Off ch=1 n=g#5 v=0
83392 Off ch=1 n=g#6 v=0
83530 On ch=1 n=f#5 v=46
83530 On ch=1 n=f#6 v=51
83648 Off ch=1 n=f#5 v=0
83760 Off ch=1 n=f#6 v=0
84554 On ch=1 n=c#7 v=46
84554 On ch=1 n=g#7 v=51
84810 Off ch=1 n=c#7 v=0
84810 On ch=1 n=g#6 v=46
85066 Off ch=1 n=g#6 v=0
85066 Off ch=1 n=g#7 v=0
85066 On ch=1 n=a#6 v=46
85066 On ch=1 n=a#7 v=51
85125 Off ch=1 n=a#6 v=0
85181 Off ch=1 n=a#7 v=0
85319 On ch=1 n=b6 v=46
85319 On ch=1 n=b7 v=51
85378 Off ch=1 n=b6 v=0
85434 Off ch=1 n=b7 v=0
85572 On ch=1 n=f#7 v=49
85572 On ch=1 n=c#8 v=55
85828 Off ch=1 n=f#7 v=0
85828 On ch=1 n=c#7 v=49
86084 Off ch=1 n=c#7 v=0
86084 Off ch=1 n=c#8 v=0
86084 On ch=1 n=d#7 v=49
86084 On ch=1 n=d#8 v=54
86143 Off ch=1 n=d#7 v=0
86199 Off ch=1 n=d#8 v=0
86337 On ch=1 n=c#7 v=48
86337 On ch=1 n=c#8 v=53
86396 Off ch=1 n=c#7 v=0
86452 Off ch=1 n=c#8 v=0
86590 On ch=1 n=c#7 v=47
86590 On ch=1 n=g#7 v=52
86846 Off ch=1 n=c#7 v=0
86846 On ch=1 n=g#6 v=47
87102 Off ch=1 n=g#6 v=0
87102 Off ch=1 n=g#7 v=0
87102 On ch=1 n=a#6 v=47
87102 On ch=1 n=a#7 v=52
87161 Off ch=1 n=a#6 v=0
87217 Off ch=1 n=a#7 v=0
87355 On ch=1 n=g#6 v=47
87355 On ch=1 n=g#7 v=52
87414 Off ch=1 n=g#6 v=0
87470 Off ch=1 n=g#7 v=0
87608 On ch=1 n=a#6 v=46
87608 On ch=1 n=c#7 v=51
87864 Off ch=1 n=a#6 v=0
87864 On ch=1 n=c#6 v=47
88120 Off ch=1 n=c#6 v=0
88120 Off ch=1 n=c#7 v=0
88120 On ch=1 n=f6 v=48
88120 On ch=1 n=f7 v=53
88179 Off ch=1 n=f6 v=0
88235 Off ch=1 n=f7 v=0
88373 On ch=1 n=f#6 v=49
88373 On ch=1 n=f#7 v=54
88432 Off ch=1 n=f#6 v=0
88488 Off ch=1 n=f#7 v=0
88626 On ch=1 n=c#7 v=49
88626 On ch=1 n=g#7 v=54
88882 Off ch=1 n=c#7 v=0
88882 On ch=1 n=g#6 v=50
89138 Off ch=1 n=g#6 v=0
89138 Off ch=1 n=g#7 v=0
89138 On ch=1 n=a#6 v=51
89138 On ch=1 n=a#7 v=57
89197 Off ch=1 n=a#6 v=0
89253 Off ch=1 n=a#7 v=0
89391 On ch=1 n=b6 v=52
89391 On ch=1 n=b7 v=57
89450 Off ch=1 n=b6 v=0
89506 Off ch=1 n=b7 v=0
89644 On ch=1 n=f#7 v=52
89644 On ch=1 n=c#8 v=58
89900 Off ch=1 n=f#7 v=0
89900 On ch=1 n=c#7 v=52
90156 Off ch=1 n=c#7 v=0
90156 Off ch=1 n=c#8 v=0
90156 On ch=1 n=d#7 v=51
90156 On ch=1 n=d#8 v=57
90412 Off ch=1 n=d#7 v=0
90412 Off ch=1 n=d#8 v=0
90412 On ch=1 n=c#7 v=50
90412 On ch=1 n=c#8 v=56
90668 Off ch=1 n=c#7 v=0
90668 Off ch=1 n=c#8 v=0
90668 On ch=1 n=c#7 v=49
90668 On ch=1 n=g#7 v=54
90924 Off ch=1 n=c#7 v=0
90924 On ch=1 n=g#6 v=48
91180 Off ch=1 n=g#6 v=0
91180 Off ch=1 n=g#7 v=0
91180 On ch=1 n=a#6 v=47
91180 On ch=1 n=a#7 v=52
91436 Off ch=1 n=a#6 v=0
91436 Off ch=1 n=a#7 v=0
91436 On ch=1 n=g#6 v=46
91436 On ch=1 n=g#7 v=51
91692 Off ch=1 n=g#6 v=0
91692 Off ch=1 n=g#7 v=0
91692 On ch=1 n=f#6 v=52
91948 Off ch=1 n=f#6 v=0
91948 On ch=1 n=f#7 v=54
92204 Off ch=1 n=f#7 v=0
92204 On ch=1 n=d#7 v=48
92204 On ch=1 n=b7 v=57
92460 Off ch=1 n=d#7 v=0
92460 Off ch=1 n=b7 v=0
92460 On ch=1 n=c#7 v=47
92460 On ch=1 n=g#7 v=52
92716 Off ch=1 n=c#7 v=0
92716 Off ch=1 n=g#7 v=0
92716 On ch=1 n=a#6 v=49
92972 Off ch=1 n=a#6 v=0
92972 On ch=1 n=f#7 v=51
93228 Off ch=1 n=f#7 v=0
93228 On ch=1 n=d#7 v=46
93228 On ch=1 n=b7 v=55
93484 Off ch=1 n=d#7 v=0
93484 Off ch=1 n=b7 v=0
93484 On ch=1 n=c#7 v=46
93484 On ch=1 n=a#7 v=51
93740 Off ch=1 n=c#7 v=0
93740 Off ch=1 n=a#7 v=0
93740 On ch=1 n=a#6 v=48
93996 Off ch=1 n=a#6 v=0
93996 On ch=1 n=f#7 v=50
94252 Off ch=1 n=f#7 v=0
94252 On ch=1 n=d#7 v=42
94252 On ch=1 n=b7 v=51
94508 Off ch=1 n=d#7 v=0
94508 Off ch=1 n=b7 v=0
94508 On ch=1 n=c#7 v=42
94508 On ch=1 n=a#7 v=47
94764 Off ch=1 n=c#7 v=0
94764 Off ch=1 n=a#7 v=0
94764 On ch=1 n=a#6 v=42
95020 Off ch=1 n=a#6 v=0
95020 On ch=1 n=f#7 v=47
95276 Off ch=1 n=f#7 v=0
95276 On ch=1 n=d#7 v=41
95276 On ch=1 n=b7 v=49
95532 Off ch=1 n=d#7 v=0
95532 Off ch=1 n=b7 v=0
95532 On ch=1 n=c#7 v=41
95532 On ch=1 n=a#7 v=45
95788 Off ch=1 n=c#7 v=0
95788 Off ch=1 n=a#7 v=0
95788 On ch=1 n=a#6 v=43
96044 Off ch=1 n=a#6 v=0
96044 On ch=1 n=f#7 v=43
96300 Off ch=1 n=f#7 v=0
96300 On ch=1 n=d#7 v=38
96300 On ch=1 n=b7 v=47
96556 Off ch=1 n=d#7 v=0
96556 Off ch=1 n=b7 v=0
96556 On ch=1 n=a#7 v=43
96812 Off ch=1 n=a#7 v=0
96812 On ch=1 n=a#6 v=41
97068 Off ch=1 n=a#6 v=0
97068 On ch=1 n=f#7 v=42
97324 Off ch=1 n=f#7 v=0
97324 On ch=1 n=d#7 v=36
97324 On ch=1 n=b7 v=44
97580 Off ch=1 n=d#7 v=0
97580 Off ch=1 n=b7 v=0
97580 On ch=1 n=c#7 v=35
97580 On ch=1 n=a#7 v=40
97836 Off ch=1 n=c#7 v=0
97836 Off ch=1 n=a#7 v=0
97836 On ch=1 n=a#6 v=41
98092 Off ch=1 n=a#6 v=0
98092 On ch=1 n=f#7 v=40
98348 Off ch=1 n=f#7 v=0
98348 On ch=1 n=d#7 v=34
98348 On ch=1 n=b7 v=41
98604 Off ch=1 n=d#7 v=0
98604 Off ch=1 n=b7 v=0
98604 On ch=1 n=c#7 v=34
98604 On ch=1 n=a#7 v=38
98860 Off ch=1 n=c#7 v=0
98860 Off ch=1 n=a#7 v=0
98860 On ch=1 n=a#6 v=37
99116 Off ch=1 n=a#6 v=0
99116 On ch=1 n=f#7 v=37
99372 Off ch=1 n=f#7 v=0
99372 On ch=1 n=d#7 v=31
99372 On ch=1 n=b7 v=40
99628 Off ch=1 n=d#7 v=0
99628 Off ch=1 n=b7 v=0
99628 On ch=1 n=c#7 v=31
99628 On ch=1 n=a#7 v=36
99884 Off ch=1 n=c#7 v=0
99884 Off ch=1 n=a#7 v=0
99884 On ch=1 n=a#6 v=31
99884 On ch=1 n=f#7 v=35
100396 Off ch=1 n=a#6 v=0
100396 Off ch=1 n=f#7 v=0
102956 On ch=1 n=a#4 v=28
103212 Off ch=1 n=a#4 v=0
103212 On ch=1 n=f#5 v=28
103468 Off ch=1 n=f#5 v=0
103468 On ch=1 n=d#5 v=25
103468 On ch=1 n=b5 v=34
103724 Off ch=1 n=d#5 v=0
103724 Off ch=1 n=b5 v=0
103724 On ch=1 n=c#5 v=25
103724 On ch=1 n=a#5 v=30
103980 Off ch=1 n=c#5 v=0
103980 Off ch=1 n=a#5 v=0
103980 On ch=1 n=a#4 v=25
103980 On ch=1 n=f#5 v=30
104390 Off ch=1 n=a#4 v=0
104390 Off ch=1 n=f#5 v=0
104390 Meta TrkEnd
TrkEnd
MTrk
0 Meta TrkName "\xffffffa9 1996"
0 PrCh ch=2 p=0
2048 On ch=2 n=f#4 v=57
2278 Off ch=2 n=f#4 v=0
2560 On ch=2 n=a#4 v=43
2560 On ch=2 n=c#5 v=40
2560 On ch=2 n=f#5 v=45
2637 Off ch=2 n=a#4 v=0
2714 Off ch=2 n=c#5 v=0
2790 Off ch=2 n=f#5 v=0
3072 On ch=2 n=f4 v=55
3302 Off ch=2 n=f4 v=0
3584 On ch=2 n=g#4 v=43
3584 On ch=2 n=c#5 v=42
3584 On ch=2 n=g#5 v=43
3661 Off ch=2 n=g#4 v=0
3738 Off ch=2 n=c#5 v=0
3814 Off ch=2 n=g#5 v=0
4096 On ch=2 n=d#4 v=53
4326 Off ch=2 n=d#4 v=0
4608 On ch=2 n=f#4 v=42
4608 On ch=2 n=a#4 v=40
4608 On ch=2 n=d#5 v=42
4685 Off ch=2 n=f#4 v=0
4762 Off ch=2 n=a#4 v=0
4838 Off ch=2 n=d#5 v=0
5120 On ch=2 n=c#4 v=53
5350 Off ch=2 n=c#4 v=0
5632 On ch=2 n=f4 v=42
5632 On ch=2 n=a#4 v=40
5632 On ch=2 n=f5 v=42
5709 Off ch=2 n=f4 v=0
5786 Off ch=2 n=a#4 v=0
5862 Off ch=2 n=f5 v=0
6144 On ch=2 n=b3 v=53
6374 Off ch=2 n=b3 v=0
6656 On ch=2 n=f#4 v=40
6656 On ch=2 n=b4 v=42
6774 Off ch=2 n=f#4 v=0
6886 Off ch=2 n=b4 v=0
7168 On ch=2 n=a#3 v=53
7398 Off ch=2 n=a#3 v=0
7680 On ch=2 n=c#4 v=42
7680 On ch=2 n=f#4 v=40
7680 On ch=2 n=c#5 v=42
7757 Off ch=2 n=c#4 v=0
7834 Off ch=2 n=f#4 v=0
7910 Off ch=2 n=c#5 v=0
8192 On ch=2 n=c4 v=53
8422 Off ch=2 n=c4 v=0
8704 On ch=2 n=f#4 v=42
8704 On ch=2 n=g#4 v=40
8704 On ch=2 n=d#5 v=42
8781 Off ch=2 n=f#4 v=0
8858 Off ch=2 n=g#4 v=0
8934 Off ch=2 n=d#5 v=0
9216 On ch=2 n=c#4 v=53
9446 Off ch=2 n=c#4 v=0
9728 On ch=2 n=b4 v=40
9728 On ch=2 n=c#5 v=42
9728 On ch=2 n=f5 v=41
9805 Off ch=2 n=b4 v=0
9882 Off ch=2 n=c#5 v=0
9958 Off ch=2 n=f5 v=0
10240 On ch=2 n=f#4 v=55
10470 Off ch=2 n=f#4 v=0
10752 On ch=2 n=a#4 v=44
10752 On ch=2 n=f#5 v=44
10870 Off ch=2 n=a#4 v=0
10982 Off ch=2 n=f#5 v=0
11264 On ch=2 n=f4 v=54
11494 Off ch=2 n=f4 v=0
11776 On ch=2 n=g#4 v=42
11776 On ch=2 n=c#5 v=41
11776 On ch=2 n=g#5 v=42
11853 Off ch=2 n=g#4 v=0
11930 Off ch=2 n=c#5 v=0
12006 Off ch=2 n=g#5 v=0
12288 On ch=2 n=d#4 v=53
12518 Off ch=2 n=d#4 v=0
12800 On ch=2 n=f#4 v=42
12800 On ch=2 n=a#4 v=40
12800 On ch=2 n=d#5 v=42
12877 Off ch=2 n=f#4 v=0
12954 Off ch=2 n=a#4 v=0
13030 Off ch=2 n=d#5 v=0
13312 On ch=2 n=c#4 v=53
13542 Off ch=2 n=c#4 v=0
13824 On ch=2 n=f4 v=42
13824 On ch=2 n=a#4 v=40
13824 On ch=2 n=f5 v=42
13901 Off ch=2 n=f4 v=0
13978 Off ch=2 n=a#4 v=0
14054 Off ch=2 n=f5 v=0
14336 On ch=2 n=b3 v=53
14566 Off ch=2 n=b3 v=0
14848 On ch=2 n=f#4 v=40
14848 On ch=2 n=b4 v=42
14966 Off ch=2 n=f#4 v=0
15078 Off ch=2 n=b4 v=0
15360 On ch=2 n=a#3 v=53
15590 Off ch=2 n=a#3 v=0
15872 On ch=2 n=c#4 v=42
15872 On ch=2 n=f#4 v=40
15872 On ch=2 n=c#5 v=42
15949 Off ch=2 n=c#4 v=0
16026 Off ch=2 n=f#4 v=0
16102 Off ch=2 n=c#5 v=0
16230 On ch=2 n=c4 v=50
16332 On ch=2 n=f#4 v=52
16384 Par ch=2 c=64 v=127
16434 On ch=2 n=d#5 v=55
16718 On ch=2 n=c#4 v=47
16736 Par ch=2 c=64 v=0
16794 On ch=2 n=g#4 v=48
16870 On ch=2 n=b4 v=50
16885 Par ch=2 c=64 v=127
16896 Off ch=2 n=c4 v=0
16896 Off ch=2 n=f#4 v=0
16896 Off ch=2 n=d#5 v=0
16946 On ch=2 n=f5 v=52
17365 Par ch=2 c=64 v=0
17408 Off ch=2 n=c#4 v=0
17408 Off ch=2 n=g#4 v=0
17408 Off ch=2 n=b4 v=0
17408 Off ch=2 n=f5 v=0
17408 On ch=2 n=f#4 v=52
17408 On ch=2 n=a#4 v=56
17920 Off ch=2 n=f#4 v=0
17920 Off ch=2 n=a#4 v=0
18432 On ch=2 n=c#4 v=55
18662 Off ch=2 n=c#4 v=0
18944 On ch=2 n=g#4 v=45
18944 On ch=2 n=c#5 v=46
18944 On ch=2 n=f5 v=45
19021 Off ch=2 n=g#4 v=0
19098 Off ch=2 n=c#5 v=0
19174 Off ch=2 n=f5 v=0
19456 On ch=2 n=c4 v=58
19467 Par ch=2 c=64 v=127
19686 Off ch=2 n=c4 v=0
19968 On ch=2 n=g#4 v=48
19968 On ch=2 n=d#5 v=48
19968 On ch=2 n=f#5 v=48
20045 Off ch=2 n=g#4 v=0
20122 Off ch=2 n=d#5 v=0
20198 Off ch=2 n=f#5 v=0
20395 Par ch=2 c=64 v=0
20480 On ch=2 n=g#3 v=63
20491 Par ch=2 c=64 v=127
20710 Off ch=2 n=g#3 v=0
20992 On ch=2 n=g#4 v=50
20992 On ch=2 n=c5 v=48
20992 On ch=2 n=f#5 v=50
21069 Off ch=2 n=g#4 v=0
21146 Off ch=2 n=c5 v=0
21222 Off ch=2 n=f#5 v=0
21227 Par ch=2 c=64 v=0
21504 On ch=2 n=c#4 v=66
21734 Off ch=2 n=c#4 v=0
22016 On ch=2 n=g#4 v=54
22016 On ch=2 n=c#5 v=54
22016 On ch=2 n=f5 v=54
22093 Off ch=2 n=g#4 v=0
22170 Off ch=2 n=c#5 v=0
22246 Off ch=2 n=f5 v=0
22528 On ch=2 n=g3 v=71
22549 Par ch=2 c=64 v=127
22758 Off ch=2 n=g3 v=0
23040 On ch=2 n=e4 v=54
23040 On ch=2 n=a#4 v=46
23040 On ch=2 n=c#5 v=48
23117 Off ch=2 n=e4 v=0
23194 Off ch=2 n=a#4 v=0
23270 Off ch=2 n=c#5 v=0
23349 Par ch=2 c=64 v=0
23552 On ch=2 n=g#3 v=65
23563 Par ch=2 c=64 v=127
23782 Off ch=2 n=g#3 v=0
24064 On ch=2 n=f4 v=50
24064 On ch=2 n=g#4 v=48
24064 On ch=2 n=c#5 v=50
24141 Off ch=2 n=f4 v=0
24218 Off ch=2 n=g#4 v=0
24294 Off ch=2 n=c#5 v=0
24491 Par ch=2 c=64 v=0
24576 On ch=2 n=g#3 v=66
24587 Par ch=2 c=64 v=127
24806 Off ch=2 n=g#3 v=0
25088 On ch=2 n=d#4 v=49
25088 On ch=2 n=g#4 v=48
25088 On ch=2 n=c5 v=49
25165 Off ch=2 n=d#4 v=0
25242 Off ch=2 n=g#4 v=0
25318 Off ch=2 n=c5 v=0
25323 Par ch=2 c=64 v=0
25600 On ch=2 n=c#4 v=57
25830 Off ch=2 n=c#4 v=0
26112 On ch=2 n=g#4 v=41
26112 On ch=2 n=c#5 v=43
26230 Off ch=2 n=g#4 v=0
26342 Off ch=2 n=c#5 v=0
26624 On ch=2 n=c#4 v=55
26854 Off ch=2 n=c#4 v=0
27136 On ch=2 n=g#4 v=44
27136 On ch=2 n=c#5 v=46
27254 Off ch=2 n=g#4 v=0
27366 Off ch=2 n=c#5 v=0
27648 On ch=2 n=c4 v=60
27659 Par ch=2 c=64 v=127
27878 Off ch=2 n=c4 v=0
28160 On ch=2 n=g#4 v=46
28160 On ch=2 n=d#5 v=48
28278 Off ch=2 n=g#4 v=0
28390 Off ch=2 n=d#5 v=0
28587 Par ch=2 c=64 v=0
28672 On ch=2 n=a#3 v=65
28693 Par ch=2 c=64 v=127
28902 Off ch=2 n=a#3 v=0
29184 On ch=2 n=a#4 v=53
29184 On ch=2 n=c#5 v=50
29184 On ch=2 n=g5 v=53
29261 Off ch=2 n=a#4 v=0
29338 Off ch=2 n=c#5 v=0
29414 Off ch=2 n=g5 v=0
29493 Par ch=2 c=64 v=0
29696 On ch=2 n=g#3 v=70
29707 Par ch=2 c=64 v=127
29926 Off ch=2 n=g#3 v=0
30208 On ch=2 n=g#4 v=56
30208 On ch=2 n=c#5 v=53
30208 On ch=2 n=g#5 v=56
30285 Off ch=2 n=g#4 v=0
30362 Off ch=2 n=c#5 v=0
30438 Off ch=2 n=g#5 v=0
30635 Par ch=2 c=64 v=0
30720 On ch=2 n=g3 v=69
30720 On ch=2 n=g4 v=73
30741 Par ch=2 c=64 v=127
30838 Off ch=2 n=g3 v=0
30950 Off ch=2 n=g4 v=0
31232 On ch=2 n=c#5 v=55
31232 On ch=2 n=d#5 v=54
31232 On ch=2 n=a#5 v=55
31309 Off ch=2 n=c#5 v=0
31386 Off ch=2 n=d#5 v=0
31462 Off ch=2 n=a#5 v=0
31541 Par ch=2 c=64 v=0
31744 On ch=2 n=g#3 v=67
31755 Par ch=2 c=64 v=127
31974 Off ch=2 n=g#3 v=0
32256 On ch=2 n=f4 v=52
32256 On ch=2 n=g#4 v=49
32256 On ch=2 n=c#5 v=41
32333 Off ch=2 n=f4 v=0
32410 Off ch=2 n=g#4 v=0
32486 Off ch=2 n=c#5 v=0
32683 Par ch=2 c=64 v=0
32768 On ch=2 n=g#2 v=70
32789 Par ch=2 c=64 v=127
32998 Off ch=2 n=g#2 v=0
33280 On ch=2 n=d#4 v=50
33280 On ch=2 n=f#4 v=48
33280 On ch=2 n=c5 v=50
33357 Off ch=2 n=d#4 v=0
33434 Off ch=2 n=f#4 v=0
33510 Off ch=2 n=c5 v=0
33589 Par ch=2 c=64 v=0
33792 On ch=2 n=c#3 v=58
33803 Par ch=2 c=64 v=127
34022 Off ch=2 n=c#3 v=0
34304 On ch=2 n=g#4 v=44
34304 On ch=2 n=c#5 v=45
34304 On ch=2 n=f5 v=44
34381 Off ch=2 n=g#4 v=0
34458 Off ch=2 n=c#5 v=0
34534 Off ch=2 n=f5 v=0
34731 Par ch=2 c=64 v=0
34816 On ch=2 n=c#4 v=55
34837 Par ch=2 c=64 v=127
35046 Off ch=2 n=c#4 v=0
35328 On ch=2 n=a#4 v=40
35328 On ch=2 n=g5 v=44
35446 Off ch=2 n=a#4 v=0
35558 Off ch=2 n=g5 v=0
35637 Par ch=2 c=64 v=0
35840 On ch=2 n=c#4 v=54
35851 Par ch=2 c=64 v=127
36070 Off ch=2 n=c#4 v=0
36352 On ch=2 n=b4 v=40
36352 On ch=2 n=g#5 v=42
36470 Off ch=2 n=b4 v=0
36582 Off ch=2 n=g#5 v=0
36779 Par ch=2 c=64 v=0
36864 On ch=2 n=c#4 v=53
36885 Par ch=2 c=64 v=127
37094 Off ch=2 n=c#4 v=0
37376 On ch=2 n=g#4 v=40
37376 On ch=2 n=f5 v=42
37494 Off ch=2 n=g#4 v=0
37606 Off ch=2 n=f5 v=0
37685 Par ch=2 c=64 v=0
37888 On ch=2 n=c#4 v=53
37899 Par ch=2 c=64 v=127
38118 Off ch=2 n=c#4 v=0
38400 On ch=2 n=a4 v=40
38400 On ch=2 n=f#5 v=42
38518 Off ch=2 n=a4 v=0
38630 Off ch=2 n=f#5 v=0
38827 Par ch=2 c=64 v=0
38912 On ch=2 n=c#3 v=53
38933 Par ch=2 c=64 v=127
39142 Off ch=2 n=c#3 v=0
39424 On ch=2 n=d#4 v=38
39424 On ch=2 n=c5 v=41
39542 Off ch=2 n=d#4 v=0
39654 Off ch=2 n=c5 v=0
39733 Par ch=2 c=64 v=0
39936 On ch=2 n=c#3 v=52
39947 Par ch=2 c=64 v=127
40166 Off ch=2 n=c#3 v=0
40448 On ch=2 n=d#4 v=37
40448 On ch=2 n=c5 v=40
40566 Off ch=2 n=d#4 v=0
40678 Off ch=2 n=c5 v=0
40875 Par ch=2 c=64 v=0
40960 On ch=2 n=c#3 v=57
40981 Par ch=2 c=64 v=127
41190 Off ch=2 n=c#3 v=0
41472 On ch=2 n=f4 v=42
41472 On ch=2 n=c#5 v=46
41590 Off ch=2 n=f4 v=0
41702 Off ch=2 n=c#5 v=0
41781 Par ch=2 c=64 v=0
41984 On ch=2 n=c#4 v=57
41995 Par ch=2 c=64 v=127
42214 Off ch=2 n=c#4 v=0
42496 On ch=2 n=g#4 v=42
42496 On ch=2 n=f5 v=46
42614 Off ch=2 n=g#4 v=0
42726 Off ch=2 n=f5 v=0
42923 Par ch=2 c=64 v=0
43008 On ch=2 n=c#4 v=55
43029 Par ch=2 c=64 v=127
43238 Off ch=2 n=c#4 v=0
43520 On ch=2 n=a#4 v=41
43520 On ch=2 n=g5 v=44
43638 Off ch=2 n=a#4 v=0
43750 Off ch=2 n=g5 v=0
43829 Par ch=2 c=64 v=0
44032 On ch=2 n=c#4 v=54
44043 Par ch=2 c=64 v=127
44262 Off ch=2 n=c#4 v=0
44544 On ch=2 n=b4 v=40
44544 On ch=2 n=g#5 v=42
44662 Off ch=2 n=b4 v=0
44774 Off ch=2 n=g#5 v=0
44971 Par ch=2 c=64 v=0
45056 On ch=2 n=c#4 v=53
45077 Par ch=2 c=64 v=127
45286 Off ch=2 n=c#4 v=0
45568 On ch=2 n=g#4 v=40
45568 On ch=2 n=f5 v=42
45686 Off ch=2 n=g#4 v=0
45798 Off ch=2 n=f5 v=0
45877 Par ch=2 c=64 v=0
46080 On ch=2 n=c#4 v=53
46091 Par ch=2 c=64 v=127
46310 Off ch=2 n=c#4 v=0
46592 On ch=2 n=a4 v=40
46592 On ch=2 n=f#5 v=42
46710 Off ch=2 n=a4 v=0
46822 Off ch=2 n=f#5 v=0
47019 Par ch=2 c=64 v=0
47104 On ch=2 n=c#3 v=53
47125 Par ch=2 c=64 v=127
47334 Off ch=2 n=c#3 v=0
47616 On ch=2 n=a4 v=40
47616 On ch=2 n=c5 v=40
47616 On ch=2 n=f#5 v=42
47693 Off ch=2 n=a4 v=0
47770 Off ch=2 n=c5 v=0
47846 Off ch=2 n=f#5 v=0
47925 Par ch=2 c=64 v=0
48128 On ch=2 n=c#4 v=53
48139 Par ch=2 c=64 v=127
48358 Off ch=2 n=c#4 v=0
48640 On ch=2 n=g#4 v=40
48640 On ch=2 n=c5 v=40
48640 On ch=2 n=f#5 v=42
48717 Off ch=2 n=g#4 v=0
48794 Off ch=2 n=c5 v=0
48870 Off ch=2 n=f#5 v=0
49067 Par ch=2 c=64 v=0
49152 On ch=2 n=c#4 v=51
49173 Par ch=2 c=64 v=127
49382 Off ch=2 n=c#4 v=0
49664 On ch=2 n=g#4 v=40
49664 On ch=2 n=b4 v=37
49664 On ch=2 n=f#5 v=40
49741 Off ch=2 n=g#4 v=0
49818 Off ch=2 n=b4 v=0
49894 Off ch=2 n=f#5 v=0
49973 Par ch=2 c=64 v=0
50176 On ch=2 n=c#4 v=51
50187 Par ch=2 c=64 v=127
50406 Off ch=2 n=c#4 v=0
50688 On ch=2 n=g#4 v=40
50688 On ch=2 n=b4 v=37
50688 On ch=2 n=f5 v=40
50765 Off ch=2 n=g#4 v=0
50842 Off ch=2 n=b4 v=0
50918 Off ch=2 n=f5 v=0
51115 Par ch=2 c=64 v=0
51200 On ch=2 n=f#3 v=84
51200 On ch=2 n=f#4 v=88
51221 Par ch=2 c=64 v=127
51318 Off ch=2 n=f#3 v=0
51430 Off ch=2 n=f#4 v=0
51712 On ch=2 n=a#4 v=78
51712 On ch=2 n=c#5 v=77
51712 On ch=2 n=f#5 v=80
51789 Off ch=2 n=a#4 v=0
51866 Off ch=2 n=c#5 v=0
51942 Off ch=2 n=f#5 v=0
52021 Par ch=2 c=64 v=0
52224 On ch=2 n=f3 v=84
52224 On ch=2 n=f4 v=88
52235 Par ch=2 c=64 v=127
52342 Off ch=2 n=f3 v=0
52454 Off ch=2 n=f4 v=0
52736 On ch=2 n=g#4 v=78
52736 On ch=2 n=c#5 v=77
52736 On ch=2 n=g#5 v=80
52813 Off ch=2 n=g#4 v=0
52890 Off ch=2 n=c#5 v=0
52966 Off ch=2 n=g#5 v=0
53163 Par ch=2 c=64 v=0
53248 On ch=2 n=d#3 v=84
53248 On ch=2 n=d#4 v=88
53269 Par ch=2 c=64 v=127
53366 Off ch=2 n=d#3 v=0
53478 Off ch=2 n=d#4 v=0
53760 On ch=2 n=f#4 v=78
53760 On ch=2 n=a#4 v=78
53760 On ch=2 n=d#5 v=80
53837 Off ch=2 n=f#4 v=0
53914 Off ch=2 n=a#4 v=0
53990 Off ch=2 n=d#5 v=0
54069 Par ch=2 c=64 v=0
54272 On ch=2 n=c#3 v=84
54272 On ch=2 n=c#4 v=88
54283 Par ch=2 c=64 v=127
54390 Off ch=2 n=c#3 v=0
54502 Off ch=2 n=c#4 v=0
54784 On ch=2 n=f4 v=78
54784 On ch=2 n=a#4 v=78
54784 On ch=2 n=f5 v=80
54861 Off ch=2 n=f4 v=0
54938 Off ch=2 n=a#4 v=0
55014 Off ch=2 n=f5 v=0
55211 Par ch=2 c=64 v=0
55296 On ch=2 n=b2 v=84
55296 On ch=2 n=b3 v=88
55317 Par ch=2 c=64 v=127
55414 Off ch=2 n=b2 v=0
55526 Off ch=2 n=b3 v=0
55808 On ch=2 n=d#4 v=82
55808 On ch=2 n=f#4 v=78
55808 On ch=2 n=b4 v=80
55885 Off ch=2 n=d#4 v=0
55962 Off ch=2 n=f#4 v=0
56038 Off ch=2 n=b4 v=0
56117 Par ch=2 c=64 v=0
56320 On ch=2 n=a#2 v=84
56320 On ch=2 n=a#3 v=88
56331 Par ch=2 c=64 v=127
56438 Off ch=2 n=a#2 v=0
56550 Off ch=2 n=a#3 v=0
56832 On ch=2 n=c#4 v=78
56832 On ch=2 n=f#4 v=78
56832 On ch=2 n=c#5 v=80
56909 Off ch=2 n=c#4 v=0
56986 Off ch=2 n=f#4 v=0
57062 Off ch=2 n=c#5 v=0
57259 Par ch=2 c=64 v=0
57344 On ch=2 n=c3 v=84
57344 On ch=2 n=c4 v=88
57365 Par ch=2 c=64 v=127
57462 Off ch=2 n=c3 v=0
57574 Off ch=2 n=c4 v=0
57856 On ch=2 n=f#4 v=78
57856 On ch=2 n=g#4 v=78
57856 On ch=2 n=d#5 v=80
57933 Off ch=2 n=f#4 v=0
58010 Off ch=2 n=g#4 v=0
58086 Off ch=2 n=d#5 v=0
58165 Par ch=2 c=64 v=0
58368 On ch=2 n=c#3 v=88
58368 On ch=2 n=c#4 v=84
58379 Par ch=2 c=64 v=127
58486 Off ch=2 n=c#3 v=0
58598 Off ch=2 n=c#4 v=0
58880 On ch=2 n=g#4 v=78
58880 On ch=2 n=b4 v=78
58880 On ch=2 n=f5 v=80
58957 Off ch=2 n=g#4 v=0
59034 Off ch=2 n=b4 v=0
59110 Off ch=2 n=f5 v=0
59307 Par ch=2 c=64 v=0
59392 On ch=2 n=f#3 v=84
59392 On ch=2 n=f#4 v=88
59413 Par ch=2 c=64 v=127
59510 Off ch=2 n=f#3 v=0
59622 Off ch=2 n=f#4 v=0
59904 On ch=2 n=a#4 v=78
59904 On ch=2 n=c#5 v=77
59904 On ch=2 n=f#5 v=80
59981 Off ch=2 n=a#4 v=0
60058 Off ch=2 n=c#5 v=0
60134 Off ch=2 n=f#5 v=0
60213 Par ch=2 c=64 v=0
60416 On ch=2 n=f3 v=88
60416 On ch=2 n=f4 v=84
60427 Par ch=2 c=64 v=127
60534 Off ch=2 n=f3 v=0
60646 Off ch=2 n=f4 v=0
60928 On ch=2 n=g#4 v=78
60928 On ch=2 n=c#5 v=77
60928 On ch=2 n=g#5 v=80
61005 Off ch=2 n=g#4 v=0
61082 Off ch=2 n=c#5 v=0
61158 Off ch=2 n=g#5 v=0
61355 Par ch=2 c=64 v=0
61440 On ch=2 n=g#3 v=84
61440 On ch=2 n=g#4 v=88
61461 Par ch=2 c=64 v=127
61558 Off ch=2 n=g#3 v=0
61670 Off ch=2 n=g#4 v=0
61952 On ch=2 n=b4 v=77
61952 On ch=2 n=d#5 v=78
61952 On ch=2 n=g#5 v=80
62029 Off ch=2 n=b4 v=0
62106 Off ch=2 n=d#5 v=0
62182 Off ch=2 n=g#5 v=0
62261 Par ch=2 c=64 v=0
62464 On ch=2 n=g3 v=90
62464 On ch=2 n=g4 v=84
62475 Par ch=2 c=64 v=127
62582 Off ch=2 n=g3 v=0
62694 Off ch=2 n=g4 v=0
62976 On ch=2 n=a#4 v=78
62976 On ch=2 n=d#5 v=78
62976 On ch=2 n=a#5 v=81
63053 Off ch=2 n=a#4 v=0
63130 Off ch=2 n=d#5 v=0
63206 Off ch=2 n=a#5 v=0
63403 Par ch=2 c=64 v=0
63488 On ch=2 n=b3 v=86
63488 On ch=2 n=b4 v=92
63509 Par ch=2 c=64 v=127
63606 Off ch=2 n=b3 v=0
63718 Off ch=2 n=b4 v=0
64000 On ch=2 n=d#5 v=78
64000 On ch=2 n=f#5 v=80
64000 On ch=2 n=b5 v=81
64077 Off ch=2 n=d#5 v=0
64154 Off ch=2 n=f#5 v=0
64230 Off ch=2 n=b5 v=0
64309 Par ch=2 c=64 v=0
64512 On ch=2 n=a#3 v=92
64512 On ch=2 n=a#4 v=88
64523 Par ch=2 c=64 v=127
64630 Off ch=2 n=a#3 v=0
64742 Off ch=2 n=a#4 v=0
65024 On ch=2 n=c#5 v=80
65024 On ch=2 n=f#5 v=81
65024 On ch=2 n=c#6 v=84
65101 Off ch=2 n=c#5 v=0
65178 Off ch=2 n=f#5 v=0
65254 Off ch=2 n=c#6 v=0
65451 Par ch=2 c=64 v=0
65536 Par ch=2 c=64 v=127
65536 On ch=2 n=c4 v=88
65536 On ch=2 n=c5 v=93
65654 Off ch=2 n=c4 v=0
65766 Off ch=2 n=c5 v=0
66048 On ch=2 n=f#5 v=84
66048 On ch=2 n=d#6 v=84
66166 Off ch=2 n=f#5 v=0
66208 Par ch=2 c=64 v=0
66278 Off ch=2 n=d#6 v=0
67072 On ch=2 n=c3 v=88
67072 On ch=2 n=c4 v=96
67584 Off ch=2 n=c3 v=0
67584 Off ch=2 n=c4 v=0
67584 On ch=2 n=c#3 v=93
67584 On ch=2 n=c#4 v=97
67605 Par ch=2 c=64 v=127
67702 Off ch=2 n=c#3 v=0
67814 Off ch=2 n=c#4 v=0
68096 On ch=2 n=a#4 v=89
68096 On ch=2 n=f#5 v=89
68214 Off ch=2 n=a#4 v=0
68326 Off ch=2 n=f#5 v=0
68405 Par ch=2 c=64 v=0
68608 On ch=2 n=d3 v=97
68608 On ch=2 n=d4 v=94
68619 Par ch=2 c=64 v=127
68726 Off ch=2 n=d3 v=0
68838 Off ch=2 n=d4 v=0
69120 On ch=2 n=a#4 v=89
69120 On ch=2 n=f5 v=90
69238 Off ch=2 n=a#4 v=0
69350 Off ch=2 n=f5 v=0
69547 Par ch=2 c=64 v=0
69632 On ch=2 n=d#3 v=95
69632 On ch=2 n=d#4 v=99
69653 Par ch=2 c=64 v=127
69750 Off ch=2 n=d#3 v=0
69862 Off ch=2 n=d#4 v=0
70144 On ch=2 n=a#4 v=90
70144 On ch=2 n=d#5 v=89
70144 On ch=2 n=f#5 v=91
70221 Off ch=2 n=a#4 v=0
70298 Off ch=2 n=d#5 v=0
70374 Off ch=2 n=f#5 v=0
70453 Par ch=2 c=64 v=0
70656 On ch=2 n=c3 v=101
70656 On ch=2 n=c4 v=96
70667 Par ch=2 c=64 v=127
70774 Off ch=2 n=c3 v=0
70886 Off ch=2 n=c4 v=0
71168 On ch=2 n=a4 v=91
71168 On ch=2 n=d#5 v=89
71168 On ch=2 n=f#5 v=91
71245 Off ch=2 n=a4 v=0
71322 Off ch=2 n=d#5 v=0
71398 Off ch=2 n=f#5 v=0
71595 Par ch=2 c=64 v=0
71680 On ch=2 n=c#3 v=93
71680 On ch=2 n=c#4 v=99
71691 Par ch=2 c=64 v=127
71798 Off ch=2 n=c#3 v=0
71910 Off ch=2 n=c#4 v=0
72192 On ch=2 n=g#4 v=89
72192 On ch=2 n=c#5 v=89
72192 On ch=2 n=f#5 v=90
72269 Off ch=2 n=g#4 v=0
72346 Off ch=2 n=c#5 v=0
72422 Off ch=2 n=f#5 v=0
73653 Par ch=2 c=64 v=0
73728 On ch=2 n=c#2 v=94
73728 On ch=2 n=c#3 v=97
73739 Par ch=2 c=64 v=127
73846 Off ch=2 n=c#2 v=0
73958 Off ch=2 n=c#3 v=0
74240 On ch=2 n=g#4 v=88
74240 On ch=2 n=b4 v=89
74240 On ch=2 n=f5 v=89
74283 Par ch=2 c=64 v=0
74317 Off ch=2 n=g#4 v=0
74394 Off ch=2 n=b4 v=0
74470 Off ch=2 n=f5 v=0
75776 On ch=2 n=f#2 v=97
75797 Par ch=2 c=64 v=127
76006 Off ch=2 n=f#2 v=0
76288 On ch=2 n=c#4 v=44
76597 Par ch=2 c=64 v=0
76800 On ch=2 n=f4 v=41
76800 On ch=2 n=b4 v=44
76811 Par ch=2 c=64 v=127
76918 Off ch=2 n=f4 v=0
77030 Off ch=2 n=b4 v=0
77312 On ch=2 n=f#3 v=41
77542 Off ch=2 n=f#3 v=0
77739 Par ch=2 c=64 v=0
77824 On ch=2 n=f#4 v=40
77824 On ch=2 n=a#4 v=42
77845 Par ch=2 c=64 v=127
77901 Off ch=2 n=c#4 v=0
77978 Off ch=2 n=f#4 v=0
78054 Off ch=2 n=a#4 v=0
78336 On ch=2 n=f#3 v=42
78566 Off ch=2 n=f#3 v=0
78645 Par ch=2 c=64 v=0
78848 On ch=2 n=c#4 v=40
78848 On ch=2 n=f4 v=40
78848 On ch=2 n=b4 v=42
78859 Par ch=2 c=64 v=127
78925 Off ch=2 n=c#4 v=0
79002 Off ch=2 n=f4 v=0
79078 Off ch=2 n=b4 v=0
79360 On ch=2 n=f#3 v=42
79590 Off ch=2 n=f#3 v=0
79787 Par ch=2 c=64 v=0
79872 On ch=2 n=c#4 v=42
79872 On ch=2 n=f#4 v=40
79872 On ch=2 n=a#4 v=44
79893 Par ch=2 c=64 v=127
79949 Off ch=2 n=c#4 v=0
80026 Off ch=2 n=f#4 v=0
80102 Off ch=2 n=a#4 v=0
80384 On ch=2 n=f#3 v=44
80614 Off ch=2 n=f#3 v=0
80693 Par ch=2 c=64 v=0
80896 On ch=2 n=c#4 v=40
80896 On ch=2 n=f4 v=40
80896 On ch=2 n=b4 v=42
80907 Par ch=2 c=64 v=127
80973 Off ch=2 n=c#4 v=0
81050 Off ch=2 n=f4 v=0
81126 Off ch=2 n=b4 v=0
81408 On ch=2 n=f#3 v=42
81638 Off ch=2 n=f#3 v=0
81835 Par ch=2 c=64 v=0
81920 On ch=2 n=c#4 v=40
81920 On ch=2 n=f#4 v=40
81920 On ch=2 n=a#4 v=42
81941 Par ch=2 c=64 v=127
81997 Off ch=2 n=c#4 v=0
82074 Off ch=2 n=f#4 v=0
82150 Off ch=2 n=a#4 v=0
82432 On ch=2 n=f#3 v=42
82662 Off ch=2 n=f#3 v=0
82741 Par ch=2 c=64 v=0
82944 On ch=2 n=c#4 v=40
82944 On ch=2 n=f4 v=40
82944 On ch=2 n=b4 v=42
82955 Par ch=2 c=64 v=127
83021 Off ch=2 n=c#4 v=0
83098 Off ch=2 n=f4 v=0
83174 Off ch=2 n=b4 v=0
83456 On ch=2 n=f#3 v=42
83686 Off ch=2 n=f#3 v=0
83883 Par ch=2 c=64 v=0
83968 On ch=2 n=c#4 v=39
83968 On ch=2 n=f#4 v=40
83968 On ch=2 n=a#4 v=42
83989 Par ch=2 c=64 v=127
84045 Off ch=2 n=c#4 v=0
84122 Off ch=2 n=f#4 v=0
84198 Off ch=2 n=a#4 v=0
84480 On ch=2 n=f#3 v=42
84710 Off ch=2 n=f#3 v=0
84789 Par ch=2 c=64 v=0
84992 On ch=2 n=c#4 v=39
84992 On ch=2 n=f4 v=40
84992 On ch=2 n=b4 v=42
85003 Par ch=2 c=64 v=127
85069 Off ch=2 n=c#4 v=0
85146 Off ch=2 n=f4 v=0
85222 Off ch=2 n=b4 v=0
85504 On ch=2 n=f#3 v=42
85734 Off ch=2 n=f#3 v=0
85931 Par ch=2 c=64 v=0
86016 On ch=2 n=c#4 v=40
86016 On ch=2 n=f#4 v=42
86016 On ch=2 n=a#4 v=44
86037 Par ch=2 c=64 v=127
86093 Off ch=2 n=c#4 v=0
86170 Off ch=2 n=f#4 v=0
86246 Off ch=2 n=a#4 v=0
86528 On ch=2 n=f#3 v=44
86758 Off ch=2 n=f#3 v=0
86837 Par ch=2 c=64 v=0
87040 On ch=2 n=c#4 v=40
87040 On ch=2 n=f4 v=41
87040 On ch=2 n=b4 v=42
87051 Par ch=2 c=64 v=127
87117 Off ch=2 n=c#4 v=0
87194 Off ch=2 n=f4 v=0
87270 Off ch=2 n=b4 v=0
87552 On ch=2 n=f#3 v=42
87782 Off ch=2 n=f#3 v=0
87979 Par ch=2 c=64 v=0
88064 On ch=2 n=c#4 v=39
88064 On ch=2 n=f#4 v=40
88064 On ch=2 n=a#4 v=42
88085 Par ch=2 c=64 v=127
88141 Off ch=2 n=c#4 v=0
88218 Off ch=2 n=f#4 v=0
88294 Off ch=2 n=a#4 v=0
88576 On ch=2 n=f#3 v=42
88806 Off ch=2 n=f#3 v=0
88885 Par ch=2 c=64 v=0
89088 On ch=2 n=c#4 v=39
89088 On ch=2 n=f4 v=40
89088 On ch=2 n=b4 v=42
89099 Par ch=2 c=64 v=127
89165 Off ch=2 n=c#4 v=0
89242 Off ch=2 n=f4 v=0
89318 Off ch=2 n=b4 v=0
89600 On ch=2 n=f#3 v=42
89830 Off ch=2 n=f#3 v=0
90027 Par ch=2 c=64 v=0
90112 On ch=2 n=c#4 v=42
90112 On ch=2 n=f#4 v=43
90112 On ch=2 n=a#4 v=42
90133 Par ch=2 c=64 v=127
90189 Off ch=2 n=c#4 v=0
90266 Off ch=2 n=f#4 v=0
90342 Off ch=2 n=a#4 v=0
90624 On ch=2 n=f#3 v=42
90854 Off ch=2 n=f#3 v=0
90933 Par ch=2 c=64 v=0
91136 On ch=2 n=c#4 v=42
91136 On ch=2 n=f4 v=40
91136 On ch=2 n=b4 v=42
91147 Par ch=2 c=64 v=127
91213 Off ch=2 n=c#4 v=0
91290 Off ch=2 n=f4 v=0
91366 Off ch=2 n=b4 v=0
91648 On ch=2 n=f#3 v=42
91878 Off ch=2 n=f#3 v=0
92075 Par ch=2 c=64 v=0
92160 On ch=2 n=c#4 v=41
92160 On ch=2 n=a#4 v=44
92278 Off ch=2 n=c#4 v=0
92390 Off ch=2 n=a#4 v=0
92672 On ch=2 n=f#2 v=46
92683 Par ch=2 c=64 v=127
92902 Off ch=2 n=f#2 v=0
93184 On ch=2 n=c#4 v=45
93414 Off ch=2 n=c#4 v=0
93696 On ch=2 n=f#4 v=42
93696 On ch=2 n=c#5 v=45
93814 Off ch=2 n=f#4 v=0
93926 Off ch=2 n=c#5 v=0
94208 On ch=2 n=a#4 v=40
94208 On ch=2 n=f#5 v=48
94326 Off ch=2 n=a#4 v=0
94438 Off ch=2 n=f#5 v=0
94720 On ch=2 n=c#5 v=40
94720 On ch=2 n=a#5 v=48
94838 Off ch=2 n=c#5 v=0
94950 Off ch=2 n=a#5 v=0
95232 On ch=2 n=f#5 v=40
95232 On ch=2 n=c#6 v=48
95350 Off ch=2 n=f#5 v=0
95462 Off ch=2 n=c#6 v=0
95744 On ch=2 n=a#5 v=40
95744 On ch=2 n=f#6 v=48
95862 Off ch=2 n=a#5 v=0
95974 Off ch=2 n=f#6 v=0
96256 On ch=2 n=f#5 v=40
96256 On ch=2 n=c#6 v=48
96374 Off ch=2 n=f#5 v=0
96486 Off ch=2 n=c#6 v=0
96768 On ch=2 n=c#5 v=40
96768 On ch=2 n=a#5 v=48
96886 Off ch=2 n=c#5 v=0
96998 Off ch=2 n=a#5 v=0
97280 On ch=2 n=f#4 v=43
97280 On ch=2 n=f#5 v=50
97398 Off ch=2 n=f#4 v=0
97510 Off ch=2 n=f#5 v=0
97792 On ch=2 n=c#4 v=43
97792 On ch=2 n=c#5 v=50
97910 Off ch=2 n=c#4 v=0
98022 Off ch=2 n=c#5 v=0
98304 On ch=2 n=f#3 v=44
98304 On ch=2 n=f#4 v=48
98422 Off ch=2 n=f#3 v=0
98534 Off ch=2 n=f#4 v=0
98816 On ch=2 n=c#3 v=43
98816 On ch=2 n=c#4 v=46
98934 Off ch=2 n=c#3 v=0
99046 Off ch=2 n=c#4 v=0
99328 On ch=2 n=f#2 v=42
99328 On ch=2 n=f#3 v=46
99446 Off ch=2 n=f#2 v=0
99558 Off ch=2 n=f#3 v=0
99840 On ch=2 n=c#2 v=40
99840 On ch=2 n=c#3 v=45
99958 Off ch=2 n=c#2 v=0
100070 Off ch=2 n=c#3 v=0
100352 On ch=2 n=f#2 v=37
100352 On ch=2 n=f#3 v=42
100470 Off ch=2 n=f#2 v=0
100582 Off ch=2 n=f#3 v=0
100864 On ch=2 n=c#2 v=37
100864 On ch=2 n=c#3 v=42
100982 Off ch=2 n=c#2 v=0
101094 Off ch=2 n=c#3 v=0
101376 On ch=2 n=f#2 v=36
101376 On ch=2 n=f#3 v=40
101494 Off ch=2 n=f#2 v=0
101606 Off ch=2 n=f#3 v=0
101888 On ch=2 n=c#2 v=35
101888 On ch=2 n=c#3 v=40
102006 Off ch=2 n=c#2 v=0
102118 Off ch=2 n=c#3 v=0
102400 On ch=2 n=f#2 v=33
102400 On ch=2 n=f#3 v=40
102518 Off ch=2 n=f#2 v=0
102630 Off ch=2 n=f#3 v=0
102912 On ch=2 n=c#2 v=32
102912 On ch=2 n=c#3 v=38
102976 Par ch=2 c=64 v=0
103030 Off ch=2 n=c#2 v=0
103142 Off ch=2 n=c#3 v=0
103424 On ch=2 n=f#2 v=26
103424 On ch=2 n=f#3 v=34
103603 Off ch=2 n=f#2 v=0
103603 Off ch=2 n=f#3 v=0
103936 On ch=2 n=c#3 v=29
103936 On ch=2 n=c#4 v=37
104054 Off ch=2 n=c#3 v=0
104166 Off ch=2 n=c#4 v=0
104448 On ch=2 n=f#3 v=29
104448 On ch=2 n=f#4 v=37
104566 Off ch=2 n=f#3 v=0
104678 Off ch=2 n=f#4 v=0
104858 Meta TrkEnd
TrkEnd
