MFile 1 2 120
MTrk
0 Meta SeqName "untitled"
0 Meta Text "Daniel Thomas Maccabee"
0 TimeSig 4/4 24 8
0 KeySig -4 major
0 Tempo 750000
480 Tempo 600000
960 Tempo 666667
1080 Tempo 600000
2160 Tempo 666667
2280 Tempo 705882
2400 Tempo 600000
4800 Tempo 666667
4920 Tempo 600000
7920 Tempo 666667
8040 Tempo 705882
8160 Tempo 600000
9120 Tempo 600000
10320 Tempo 666667
10560 Tempo 600000
11400 Tempo 666667
11640 Tempo 600000
14280 Tempo 666667
14520 Tempo 600000
17040 Tempo 666667
17160 Tempo 705882
17280 Tempo 600000
18000 Tempo 666667
18360 Tempo 600000
18900 Tempo 666667
19200 Tempo 666667
19320 Tempo 600000
20880 Tempo 666667
21120 Tempo 600000
22920 Tempo 666667
22980 Tempo 705882
23040 Tempo 1000000
23400 Tempo 750000
23880 Tempo 1000000
23880 Meta TrkEnd
TrkEnd
MTrk
0 Par ch=1 c=0 v=127
0 Par ch=1 c=7 v=127
0 Par ch=1 c=10 v=64
0 Par ch=1 c=91 v=99
0 Par ch=1 c=93 v=0
1 Par ch=1 c=32 v=1
2 PrCh ch=1 p=0
360 On ch=1 n=d#6 v=96
480 On ch=1 n=d#6 v=0
480 Par ch=1 c=64 v=127
480 On ch=1 n=g#2 v=51
480 On ch=1 n=d#6 v=96
500 On ch=1 n=d#6 v=0
500 On ch=1 n=g#2 v=0
500 On ch=1 n=d#4 v=64
500 On ch=1 n=g#5 v=64
520 On ch=1 n=g#5 v=0
520 On ch=1 n=d#4 v=0
520 On ch=1 n=g#4 v=65
520 On ch=1 n=c6 v=65
540 On ch=1 n=c6 v=0
540 On ch=1 n=g#4 v=0
540 On ch=1 n=c5 v=66
540 On ch=1 n=d#5 v=66
560 On ch=1 n=d#5 v=0
560 On ch=1 n=c5 v=0
560 On ch=1 n=g#4 v=67
560 On ch=1 n=g#5 v=67
580 On ch=1 n=g#5 v=0
580 On ch=1 n=g#4 v=0
580 On ch=1 n=d#4 v=68
580 On ch=1 n=c6 v=68
600 On ch=1 n=c6 v=0
600 On ch=1 n=d#4 v=0
600 On ch=1 n=g#3 v=54
600 On ch=1 n=d#6 v=102
620 On ch=1 n=d#6 v=0
620 On ch=1 n=g#3 v=0
620 On ch=1 n=d#4 v=69
620 On ch=1 n=g#5 v=69
640 On ch=1 n=g#5 v=0
640 On ch=1 n=d#4 v=0
640 On ch=1 n=g#4 v=69
640 On ch=1 n=c6 v=69
660 On ch=1 n=c6 v=0
660 On ch=1 n=g#4 v=0
660 On ch=1 n=c5 v=70
660 On ch=1 n=d#5 v=70
680 On ch=1 n=d#5 v=0
680 On ch=1 n=c5 v=0
680 On ch=1 n=g#4 v=71
680 On ch=1 n=g#5 v=71
700 On ch=1 n=g#5 v=0
700 On ch=1 n=g#4 v=0
700 On ch=1 n=d#4 v=72
700 On ch=1 n=c6 v=72
720 On ch=1 n=c6 v=0
720 On ch=1 n=d#4 v=0
720 On ch=1 n=g#3 v=57
720 On ch=1 n=d#6 v=108
740 On ch=1 n=d#6 v=0
740 On ch=1 n=g#3 v=0
740 On ch=1 n=d#4 v=73
740 On ch=1 n=g#5 v=73
760 On ch=1 n=g#5 v=0
760 On ch=1 n=d#4 v=0
760 On ch=1 n=g#4 v=74
760 On ch=1 n=c6 v=74
780 On ch=1 n=c6 v=0
780 On ch=1 n=g#4 v=0
780 On ch=1 n=c5 v=75
780 On ch=1 n=d#5 v=75
800 On ch=1 n=d#5 v=0
800 On ch=1 n=c5 v=0
800 On ch=1 n=g#4 v=75
800 On ch=1 n=g#5 v=75
820 On ch=1 n=g#5 v=0
820 On ch=1 n=g#4 v=0
820 On ch=1 n=d#4 v=76
820 On ch=1 n=c6 v=76
840 On ch=1 n=c6 v=0
840 On ch=1 n=d#4 v=0
840 On ch=1 n=g#3 v=60
840 On ch=1 n=d#6 v=114
860 On ch=1 n=d#6 v=0
860 On ch=1 n=g#3 v=0
860 On ch=1 n=d#4 v=77
860 On ch=1 n=g#5 v=77
880 On ch=1 n=g#5 v=0
880 On ch=1 n=d#4 v=0
880 On ch=1 n=g#4 v=78
880 On ch=1 n=c6 v=78
900 On ch=1 n=c6 v=0
900 On ch=1 n=g#4 v=0
900 On ch=1 n=c5 v=79
900 On ch=1 n=d#5 v=79
920 On ch=1 n=d#5 v=0
920 On ch=1 n=c5 v=0
920 On ch=1 n=g#4 v=80
920 On ch=1 n=g#5 v=80
940 On ch=1 n=g#5 v=0
940 On ch=1 n=g#4 v=0
940 On ch=1 n=d#4 v=81
940 On ch=1 n=c6 v=81
950 Par ch=1 c=64 v=0
960 On ch=1 n=c6 v=0
960 On ch=1 n=d#4 v=0
960 Par ch=1 c=64 v=127
960 On ch=1 n=g#3 v=64
960 On ch=1 n=f6 v=120
980 On ch=1 n=f6 v=0
980 On ch=1 n=g#3 v=0
980 On ch=1 n=d#4 v=81
980 On ch=1 n=g#5 v=81
1000 On ch=1 n=g#5 v=0
1000 On ch=1 n=d#4 v=0
1000 On ch=1 n=g#4 v=80
1000 On ch=1 n=c6 v=80
1020 On ch=1 n=c6 v=0
1020 On ch=1 n=g#4 v=0
1020 On ch=1 n=c5 v=79
1020 On ch=1 n=d#5 v=79
1040 On ch=1 n=d#5 v=0
1040 On ch=1 n=c5 v=0
1040 On ch=1 n=g#4 v=78
1040 On ch=1 n=g#5 v=78
1060 On ch=1 n=g#5 v=0
1060 On ch=1 n=g#4 v=0
1060 On ch=1 n=d#4 v=77
1060 On ch=1 n=c6 v=77
1080 On ch=1 n=c6 v=0
1080 On ch=1 n=d#4 v=0
1080 On ch=1 n=g#3 v=60
1080 On ch=1 n=d#6 v=114
1100 On ch=1 n=d#6 v=0
1100 On ch=1 n=g#3 v=0
1100 On ch=1 n=d#4 v=76
1100 On ch=1 n=g#5 v=76
1120 On ch=1 n=g#5 v=0
1120 On ch=1 n=d#4 v=0
1120 On ch=1 n=g#4 v=76
1120 On ch=1 n=c6 v=76
1140 On ch=1 n=c6 v=0
1140 On ch=1 n=g#4 v=0
1140 On ch=1 n=c5 v=75
1140 On ch=1 n=d#5 v=75
1160 On ch=1 n=d#5 v=0
1160 On ch=1 n=c5 v=0
1160 On ch=1 n=g#4 v=74
1160 On ch=1 n=g#5 v=74
1180 On ch=1 n=g#5 v=0
1180 On ch=1 n=g#4 v=0
1180 On ch=1 n=d#4 v=73
1180 On ch=1 n=c6 v=73
1200 On ch=1 n=c6 v=0
1200 On ch=1 n=d#4 v=0
1200 On ch=1 n=g#3 v=57
1200 On ch=1 n=d#6 v=108
1220 On ch=1 n=d#6 v=0
1220 On ch=1 n=g#3 v=0
1220 On ch=1 n=d#4 v=72
1220 On ch=1 n=g#5 v=72
1240 On ch=1 n=g#5 v=0
1240 On ch=1 n=d#4 v=0
1240 On ch=1 n=g#4 v=71
1240 On ch=1 n=c6 v=71
1260 On ch=1 n=c6 v=0
1260 On ch=1 n=g#4 v=0
1260 On ch=1 n=c5 v=70
1260 On ch=1 n=d#5 v=70
1280 On ch=1 n=d#5 v=0
1280 On ch=1 n=c5 v=0
1280 On ch=1 n=g#4 v=70
1280 On ch=1 n=g#5 v=70
1300 On ch=1 n=g#5 v=0
1300 On ch=1 n=g#4 v=0
1300 On ch=1 n=d#4 v=69
1300 On ch=1 n=c6 v=69
1320 On ch=1 n=c6 v=0
1320 On ch=1 n=d#4 v=0
1320 On ch=1 n=g#3 v=54
1320 On ch=1 n=d#6 v=102
1340 On ch=1 n=d#6 v=0
1340 On ch=1 n=g#3 v=0
1340 On ch=1 n=d#4 v=68
1340 On ch=1 n=g#5 v=68
1360 On ch=1 n=g#5 v=0
1360 On ch=1 n=d#4 v=0
1360 On ch=1 n=g#4 v=67
1360 On ch=1 n=c6 v=67
1380 On ch=1 n=c6 v=0
1380 On ch=1 n=g#4 v=0
1380 On ch=1 n=c5 v=66
1380 On ch=1 n=d#5 v=66
1400 On ch=1 n=d#5 v=0
1400 On ch=1 n=c5 v=0
1400 On ch=1 n=g#4 v=65
1400 On ch=1 n=g#5 v=65
1420 On ch=1 n=g#5 v=0
1420 On ch=1 n=g#4 v=0
1420 On ch=1 n=d#4 v=64
1420 On ch=1 n=c6 v=64
1430 Par ch=1 c=64 v=0
1440 On ch=1 n=c6 v=0
1440 On ch=1 n=d#4 v=0
1440 Par ch=1 c=64 v=127
1440 On ch=1 n=g#3 v=51
1440 On ch=1 n=d#6 v=96
1460 On ch=1 n=d#6 v=0
1460 On ch=1 n=g#3 v=0
1460 On ch=1 n=d#4 v=64
1460 On ch=1 n=a#5 v=64
1480 On ch=1 n=a#5 v=0
1480 On ch=1 n=d#4 v=0
1480 On ch=1 n=g4 v=65
1480 On ch=1 n=c#6 v=65
1500 On ch=1 n=c#6 v=0
1500 On ch=1 n=g4 v=0
1500 On ch=1 n=c#5 v=66
1500 On ch=1 n=d#5 v=66
1520 On ch=1 n=d#5 v=0
1520 On ch=1 n=c#5 v=0
1520 On ch=1 n=g4 v=67
1520 On ch=1 n=a#5 v=67
1540 On ch=1 n=a#5 v=0
1540 On ch=1 n=g4 v=0
1540 On ch=1 n=d#4 v=68
1540 On ch=1 n=c#6 v=68
1560 On ch=1 n=c#6 v=0
1560 On ch=1 n=d#4 v=0
1560 On ch=1 n=g#3 v=54
1560 On ch=1 n=d#6 v=102
1580 On ch=1 n=d#6 v=0
1580 On ch=1 n=g#3 v=0
1580 On ch=1 n=d#4 v=69
1580 On ch=1 n=a#5 v=69
1600 On ch=1 n=a#5 v=0
1600 On ch=1 n=d#4 v=0
1600 On ch=1 n=g4 v=69
1600 On ch=1 n=c#6 v=69
1620 On ch=1 n=c#6 v=0
1620 On ch=1 n=g4 v=0
1620 On ch=1 n=c#5 v=70
1620 On ch=1 n=d#5 v=70
1640 On ch=1 n=d#5 v=0
1640 On ch=1 n=c#5 v=0
1640 On ch=1 n=g4 v=71
1640 On ch=1 n=a#5 v=71
1660 On ch=1 n=a#5 v=0
1660 On ch=1 n=g4 v=0
1660 On ch=1 n=d#4 v=72
1660 On ch=1 n=c#6 v=72
1680 On ch=1 n=c#6 v=0
1680 On ch=1 n=d#4 v=0
1680 On ch=1 n=g#3 v=57
1680 On ch=1 n=f6 v=108
1700 On ch=1 n=f6 v=0
1700 On ch=1 n=g#3 v=0
1700 On ch=1 n=d#4 v=73
1700 On ch=1 n=a#5 v=73
1720 On ch=1 n=a#5 v=0
1720 On ch=1 n=d#4 v=0
1720 On ch=1 n=g4 v=74
1720 On ch=1 n=c#6 v=74
1740 On ch=1 n=c#6 v=0
1740 On ch=1 n=g4 v=0
1740 On ch=1 n=c#5 v=75
1740 On ch=1 n=d#5 v=75
1760 On ch=1 n=d#5 v=0
1760 On ch=1 n=c#5 v=0
1760 On ch=1 n=g4 v=75
1760 On ch=1 n=a#5 v=75
1780 On ch=1 n=a#5 v=0
1780 On ch=1 n=g4 v=0
1780 On ch=1 n=d#4 v=76
1780 On ch=1 n=c#6 v=76
1800 On ch=1 n=c#6 v=0
1800 On ch=1 n=d#4 v=0
1800 On ch=1 n=g#3 v=60
1800 On ch=1 n=d#6 v=114
1820 On ch=1 n=d#6 v=0
1820 On ch=1 n=g#3 v=0
1820 On ch=1 n=d#4 v=77
1820 On ch=1 n=a#5 v=77
1840 On ch=1 n=a#5 v=0
1840 On ch=1 n=d#4 v=0
1840 On ch=1 n=g4 v=78
1840 On ch=1 n=c#6 v=78
1860 On ch=1 n=c#6 v=0
1860 On ch=1 n=g4 v=0
1860 On ch=1 n=c#5 v=79
1860 On ch=1 n=d#5 v=79
1880 On ch=1 n=d#5 v=0
1880 On ch=1 n=c#5 v=0
1880 On ch=1 n=g4 v=80
1880 On ch=1 n=a#5 v=80
1900 On ch=1 n=a#5 v=0
1900 On ch=1 n=g4 v=0
1900 On ch=1 n=d#4 v=81
1900 On ch=1 n=c#6 v=81
1910 Par ch=1 c=64 v=0
1920 On ch=1 n=c#6 v=0
1920 On ch=1 n=d#4 v=0
1920 Par ch=1 c=64 v=127
1920 On ch=1 n=g#3 v=64
1920 On ch=1 n=a#6 v=120
1940 On ch=1 n=a#6 v=0
1940 On ch=1 n=g#3 v=0
1940 On ch=1 n=d#4 v=81
1940 On ch=1 n=c6 v=81
1960 On ch=1 n=c6 v=0
1960 On ch=1 n=d#4 v=0
1960 On ch=1 n=g#4 v=80
1960 On ch=1 n=d#6 v=80
1980 On ch=1 n=d#6 v=0
1980 On ch=1 n=g#4 v=0
1980 On ch=1 n=c5 v=79
1980 On ch=1 n=d#5 v=79
2000 On ch=1 n=d#5 v=0
2000 On ch=1 n=c5 v=0
2000 On ch=1 n=g#4 v=78
2000 On ch=1 n=c6 v=78
2020 On ch=1 n=c6 v=0
2020 On ch=1 n=g#4 v=0
2020 On ch=1 n=d#4 v=77
2020 On ch=1 n=d#6 v=77
2040 On ch=1 n=d#6 v=0
2040 On ch=1 n=d#4 v=0
2040 On ch=1 n=g#3 v=60
2040 On ch=1 n=g#6 v=114
2060 On ch=1 n=g#6 v=0
2060 On ch=1 n=g#3 v=0
2060 On ch=1 n=d#4 v=76
2060 On ch=1 n=c6 v=76
2080 On ch=1 n=c6 v=0
2080 On ch=1 n=d#4 v=0
2080 On ch=1 n=g#4 v=76
2080 On ch=1 n=d#6 v=76
2100 On ch=1 n=d#6 v=0
2100 On ch=1 n=g#4 v=0
2100 On ch=1 n=c5 v=75
2100 On ch=1 n=d#5 v=75
2120 On ch=1 n=d#5 v=0
2120 On ch=1 n=c5 v=0
2120 On ch=1 n=g#4 v=74
2120 On ch=1 n=c6 v=74
2140 On ch=1 n=c6 v=0
2140 On ch=1 n=g#4 v=0
2140 On ch=1 n=d#4 v=73
2140 On ch=1 n=d#6 v=73
2160 On ch=1 n=d#6 v=0
2160 On ch=1 n=d#4 v=0
2160 On ch=1 n=g#3 v=57
2160 On ch=1 n=g#6 v=108
2180 On ch=1 n=g#6 v=0
2180 On ch=1 n=g#3 v=0
2180 On ch=1 n=e4 v=72
2180 On ch=1 n=c6 v=72
2200 On ch=1 n=c6 v=0
2200 On ch=1 n=e4 v=0
2200 On ch=1 n=g#4 v=71
2200 On ch=1 n=e6 v=71
2220 On ch=1 n=e6 v=0
2220 On ch=1 n=g#4 v=0
2220 On ch=1 n=c5 v=70
2220 On ch=1 n=e5 v=70
2240 On ch=1 n=e5 v=0
2240 On ch=1 n=c5 v=0
2240 On ch=1 n=g#4 v=70
2240 On ch=1 n=c6 v=70
2260 On ch=1 n=c6 v=0
2260 On ch=1 n=g#4 v=0
2260 On ch=1 n=e4 v=69
2260 On ch=1 n=e6 v=69
2280 On ch=1 n=e6 v=0
2280 On ch=1 n=e4 v=0
2280 On ch=1 n=g#3 v=54
2280 On ch=1 n=g#6 v=102
2300 On ch=1 n=g#6 v=0
2300 On ch=1 n=g#3 v=0
2300 On ch=1 n=e4 v=68
2300 On ch=1 n=c6 v=68
2320 On ch=1 n=c6 v=0
2320 On ch=1 n=e4 v=0
2320 On ch=1 n=g#4 v=67
2320 On ch=1 n=e6 v=67
2340 On ch=1 n=e6 v=0
2340 On ch=1 n=g#4 v=0
2340 On ch=1 n=c5 v=66
2340 On ch=1 n=e5 v=66
2360 On ch=1 n=e5 v=0
2360 On ch=1 n=c5 v=0
2360 On ch=1 n=g#4 v=65
2360 On ch=1 n=c6 v=65
2380 On ch=1 n=c6 v=0
2380 On ch=1 n=g#4 v=0
2380 On ch=1 n=e4 v=64
2380 On ch=1 n=e6 v=64
2390 Par ch=1 c=64 v=0
2400 On ch=1 n=e6 v=0
2400 On ch=1 n=e4 v=0
2400 Par ch=1 c=64 v=127
2400 On ch=1 n=c#3 v=57
2400 On ch=1 n=g#6 v=96
2420 On ch=1 n=g#6 v=0
2420 On ch=1 n=c#3 v=0
2420 On ch=1 n=g#4 v=64
2420 On ch=1 n=c#6 v=64
2440 On ch=1 n=c#6 v=0
2440 On ch=1 n=g#4 v=0
2440 On ch=1 n=c#5 v=64
2440 On ch=1 n=f6 v=64
2460 On ch=1 n=f6 v=0
2460 On ch=1 n=c#5 v=0
2460 On ch=1 n=f5 v=65
2460 On ch=1 n=g#5 v=65
2480 On ch=1 n=g#5 v=0
2480 On ch=1 n=f5 v=0
2480 On ch=1 n=c#5 v=66
2480 On ch=1 n=c#6 v=66
2500 On ch=1 n=c#6 v=0
2500 On ch=1 n=c#5 v=0
2500 On ch=1 n=g#4 v=67
2500 On ch=1 n=f6 v=67
2520 On ch=1 n=f6 v=0
2520 On ch=1 n=g#4 v=0
2520 On ch=1 n=c#4 v=61
2520 On ch=1 n=g#6 v=102
2540 On ch=1 n=g#6 v=0
2540 On ch=1 n=c#4 v=0
2540 On ch=1 n=g#4 v=68
2540 On ch=1 n=c#6 v=68
2560 On ch=1 n=c#6 v=0
2560 On ch=1 n=g#4 v=0
2560 On ch=1 n=c#5 v=68
2560 On ch=1 n=f6 v=68
2580 On ch=1 n=f6 v=0
2580 On ch=1 n=c#5 v=0
2580 On ch=1 n=f5 v=69
2580 On ch=1 n=g#5 v=69
2600 On ch=1 n=g#5 v=0
2600 On ch=1 n=f5 v=0
2600 On ch=1 n=c#5 v=70
2600 On ch=1 n=c#6 v=70
2620 On ch=1 n=c#6 v=0
2620 On ch=1 n=c#5 v=0
2620 Par ch=1 c=64 v=0
2620 On ch=1 n=g#4 v=71
2620 On ch=1 n=f6 v=71
2640 On ch=1 n=f6 v=0
2640 On ch=1 n=g#4 v=0
2640 Par ch=1 c=64 v=127
2640 On ch=1 n=c#3 v=64
2640 On ch=1 n=g#6 v=108
2660 On ch=1 n=g#6 v=0
2660 On ch=1 n=c#3 v=0
2660 On ch=1 n=g#4 v=72
2660 On ch=1 n=c#6 v=72
2680 On ch=1 n=c#6 v=0
2680 On ch=1 n=g#4 v=0
2680 On ch=1 n=c#5 v=73
2680 On ch=1 n=f6 v=73
2700 On ch=1 n=f6 v=0
2700 On ch=1 n=c#5 v=0
2700 On ch=1 n=f5 v=74
2700 On ch=1 n=g#5 v=74
2720 On ch=1 n=g#5 v=0
2720 On ch=1 n=f5 v=0
2720 On ch=1 n=c#5 v=74
2720 On ch=1 n=c#6 v=74
2740 On ch=1 n=c#6 v=0
2740 On ch=1 n=c#5 v=0
2740 On ch=1 n=g#4 v=75
2740 On ch=1 n=f6 v=75
2760 On ch=1 n=f6 v=0
2760 On ch=1 n=g#4 v=0
2760 On ch=1 n=c#4 v=68
2760 On ch=1 n=a#6 v=114
2780 On ch=1 n=a#6 v=0
2780 On ch=1 n=c#4 v=0
2780 On ch=1 n=g4 v=76
2780 On ch=1 n=c#6 v=76
2800 On ch=1 n=c#6 v=0
2800 On ch=1 n=g4 v=0
2800 On ch=1 n=c#5 v=77
2800 On ch=1 n=f6 v=77
2820 On ch=1 n=f6 v=0
2820 On ch=1 n=c#5 v=0
2820 On ch=1 n=f5 v=78
2820 On ch=1 n=g5 v=78
2840 On ch=1 n=g5 v=0
2840 On ch=1 n=f5 v=0
2840 On ch=1 n=c#5 v=79
2840 On ch=1 n=c#6 v=79
2860 On ch=1 n=c#6 v=0
2860 On ch=1 n=c#5 v=0
2860 Par ch=1 c=64 v=0
2860 On ch=1 n=g4 v=80
2860 On ch=1 n=f6 v=80
2880 On ch=1 n=f6 v=0
2880 On ch=1 n=g4 v=0
2880 Par ch=1 c=64 v=127
2880 On ch=1 n=c4 v=72
2880 On ch=1 n=c7 v=120
2900 On ch=1 n=c7 v=0
2900 On ch=1 n=c4 v=0
2900 On ch=1 n=g4 v=80
2900 On ch=1 n=c6 v=80
2920 On ch=1 n=c6 v=0
2920 On ch=1 n=g4 v=0
2920 On ch=1 n=c5 v=80
2920 On ch=1 n=f6 v=80
2940 On ch=1 n=f6 v=0
2940 On ch=1 n=c5 v=0
2940 On ch=1 n=f5 v=80
2940 On ch=1 n=g5 v=80
2960 On ch=1 n=g5 v=0
2960 On ch=1 n=f5 v=0
2960 On ch=1 n=c5 v=80
2960 On ch=1 n=c6 v=80
2980 On ch=1 n=c6 v=0
2980 On ch=1 n=c5 v=0
2980 On ch=1 n=g4 v=79
2980 On ch=1 n=f6 v=79
3000 On ch=1 n=f6 v=0
3000 On ch=1 n=g4 v=0
3000 On ch=1 n=c4 v=71
3000 On ch=1 n=a#6 v=118
3020 On ch=1 n=a#6 v=0
3020 On ch=1 n=c4 v=0
3020 On ch=1 n=g4 v=79
3020 On ch=1 n=c6 v=79
3040 On ch=1 n=c6 v=0
3040 On ch=1 n=g4 v=0
3040 On ch=1 n=c5 v=79
3040 On ch=1 n=e6 v=79
3060 On ch=1 n=e6 v=0
3060 On ch=1 n=c5 v=0
3060 On ch=1 n=e5 v=79
3060 On ch=1 n=g5 v=79
3080 On ch=1 n=g5 v=0
3080 On ch=1 n=e5 v=0
3080 On ch=1 n=c5 v=78
3080 On ch=1 n=c6 v=78
3100 On ch=1 n=c6 v=0
3100 On ch=1 n=c5 v=0
3100 On ch=1 n=g4 v=78
3100 On ch=1 n=e6 v=78
3107 Par ch=1 c=64 v=0
3117 On ch=1 n=e6 v=0
3117 On ch=1 n=g4 v=0
3117 Par ch=1 c=64 v=127
3117 On ch=1 n=f4 v=78
3117 On ch=1 n=g#6 v=117
3137 On ch=1 n=g#6 v=0
3137 On ch=1 n=f4 v=0
3137 On ch=1 n=g#4 v=78
3137 On ch=1 n=c6 v=78
3157 On ch=1 n=c6 v=0
3157 On ch=1 n=g#4 v=0
3157 On ch=1 n=c5 v=78
3157 On ch=1 n=f6 v=78
3177 On ch=1 n=f6 v=0
3177 On ch=1 n=c5 v=0
3177 On ch=1 n=f5 v=77
3177 On ch=1 n=g#5 v=77
3197 On ch=1 n=g#5 v=0
3197 On ch=1 n=f5 v=0
3197 On ch=1 n=c5 v=77
3197 On ch=1 n=c6 v=77
3217 On ch=1 n=c6 v=0
3217 On ch=1 n=c5 v=0
3217 On ch=1 n=g#4 v=77
3217 On ch=1 n=f6 v=77
3224 Par ch=1 c=64 v=0
3234 On ch=1 n=f6 v=0
3234 On ch=1 n=g#4 v=0
3234 Par ch=1 c=64 v=127
3234 On ch=1 n=b3 v=77
3234 On ch=1 n=f6 v=116
3254 On ch=1 n=f6 v=0
3254 On ch=1 n=b3 v=0
3254 On ch=1 n=f4 v=76
3254 On ch=1 n=b5 v=76
3274 On ch=1 n=b5 v=0
3274 On ch=1 n=f4 v=0
3274 On ch=1 n=g#4 v=76
3274 On ch=1 n=d#6 v=76
3294 On ch=1 n=d#6 v=0
3294 On ch=1 n=g#4 v=0
3294 On ch=1 n=d#5 v=76
3294 On ch=1 n=f5 v=76
3314 On ch=1 n=f5 v=0
3314 On ch=1 n=d#5 v=0
3314 On ch=1 n=g#4 v=76
3314 On ch=1 n=c6 v=76
3334 On ch=1 n=c6 v=0
3334 On ch=1 n=g#4 v=0
3334 On ch=1 n=f4 v=76
3334 On ch=1 n=d#6 v=76
3341 Par ch=1 c=64 v=0
3351 On ch=1 n=d#6 v=0
3351 On ch=1 n=f4 v=0
3351 Par ch=1 c=64 v=127
3351 On ch=1 n=a#3 v=68
3351 On ch=1 n=f6 v=114
3371 On ch=1 n=f6 v=0
3371 On ch=1 n=a#3 v=0
3371 On ch=1 n=f4 v=76
3371 On ch=1 n=a#5 v=76
3391 On ch=1 n=a#5 v=0
3391 On ch=1 n=f4 v=0
3391 On ch=1 n=g#4 v=76
3391 On ch=1 n=d#6 v=76
3411 On ch=1 n=d#6 v=0
3411 On ch=1 n=g#4 v=0
3411 On ch=1 n=d#5 v=76
3411 On ch=1 n=f5 v=76
3431 On ch=1 n=f5 v=0
3431 On ch=1 n=d#5 v=0
3431 On ch=1 n=g#4 v=76
3431 On ch=1 n=a#5 v=76
3451 On ch=1 n=a#5 v=0
3451 On ch=1 n=g#4 v=0
3451 On ch=1 n=f4 v=75
3451 On ch=1 n=d#6 v=75
3471 On ch=1 n=d#6 v=0
3471 On ch=1 n=f4 v=0
3471 On ch=1 n=g6 v=112
3471 On ch=1 n=a#3 v=67
3491 On ch=1 n=a#3 v=0
3491 On ch=1 n=g6 v=0
3491 On ch=1 n=a#5 v=75
3491 On ch=1 n=f4 v=75
3511 On ch=1 n=f4 v=0
3511 On ch=1 n=a#5 v=0
3511 On ch=1 n=d#6 v=75
3511 On ch=1 n=g#4 v=75
3531 On ch=1 n=g#4 v=0
3531 On ch=1 n=d#6 v=0
3531 On ch=1 n=f5 v=74
3531 On ch=1 n=d#5 v=74
3551 On ch=1 n=d#5 v=0
3551 On ch=1 n=f5 v=0
3551 On ch=1 n=a#5 v=74
3551 On ch=1 n=g#4 v=74
3571 On ch=1 n=g#4 v=0
3571 On ch=1 n=a#5 v=0
3571 On ch=1 n=d#6 v=74
3571 On ch=1 n=f4 v=74
3578 Par ch=1 c=64 v=0
3588 On ch=1 n=f4 v=0
3588 On ch=1 n=d#6 v=0
3588 On ch=1 n=g#6 v=111
3588 Par ch=1 c=64 v=127
3588 On ch=1 n=a#3 v=66
3608 On ch=1 n=a#3 v=0
3608 On ch=1 n=g#6 v=0
3608 On ch=1 n=a#5 v=74
3608 On ch=1 n=f4 v=74
3628 On ch=1 n=f4 v=0
3628 On ch=1 n=a#5 v=0
3628 On ch=1 n=d6 v=73
3628 On ch=1 n=g#4 v=73
3648 On ch=1 n=g#4 v=0
3648 On ch=1 n=d6 v=0
3648 On ch=1 n=f5 v=73
3648 On ch=1 n=d5 v=73
3668 On ch=1 n=d5 v=0
3668 On ch=1 n=f5 v=0
3668 On ch=1 n=g#5 v=73
3668 On ch=1 n=g#4 v=73
3688 On ch=1 n=g#4 v=0
3688 On ch=1 n=g#5 v=0
3688 On ch=1 n=a#5 v=73
3688 On ch=1 n=f4 v=73
3708 On ch=1 n=f4 v=0
3708 On ch=1 n=a#5 v=0
3708 On ch=1 n=a#5 v=110
3708 On ch=1 n=a#3 v=66
3728 On ch=1 n=a#3 v=0
3728 On ch=1 n=a#5 v=0
3728 On ch=1 n=f5 v=72
3728 On ch=1 n=f4 v=72
3748 On ch=1 n=f4 v=0
3748 On ch=1 n=f5 v=0
3748 On ch=1 n=g#5 v=72
3748 On ch=1 n=g#4 v=72
3768 On ch=1 n=g#4 v=0
3768 On ch=1 n=g#5 v=0
3768 On ch=1 n=a#4 v=72
3768 On ch=1 n=d5 v=72
3788 On ch=1 n=d5 v=0
3788 On ch=1 n=a#4 v=0
3788 On ch=1 n=f5 v=72
3788 On ch=1 n=g#4 v=72
3808 On ch=1 n=g#4 v=0
3808 On ch=1 n=f5 v=0
3808 On ch=1 n=g#5 v=72
3808 On ch=1 n=f4 v=72
3815 Par ch=1 c=64 v=0
3825 On ch=1 n=f4 v=0
3825 On ch=1 n=g#5 v=0
3825 On ch=1 n=d#3 v=64
3825 Par ch=1 c=64 v=127
3825 On ch=1 n=a#5 v=108
3845 On ch=1 n=a#5 v=0
3845 On ch=1 n=d#3 v=0
3845 On ch=1 n=a#3 v=72
3845 On ch=1 n=d#5 v=72
3865 On ch=1 n=d#5 v=0
3865 On ch=1 n=a#3 v=0
3865 On ch=1 n=d#4 v=72
3865 On ch=1 n=g#5 v=72
3885 On ch=1 n=g#5 v=0
3885 On ch=1 n=d#4 v=0
3885 On ch=1 n=c#5 v=71
3885 On ch=1 n=a#4 v=71
3905 On ch=1 n=a#4 v=0
3905 On ch=1 n=c#5 v=0
3905 On ch=1 n=d#4 v=71
3905 On ch=1 n=d#5 v=71
3925 On ch=1 n=d#5 v=0
3925 On ch=1 n=d#4 v=0
3925 On ch=1 n=a#3 v=70
3925 On ch=1 n=g#5 v=70
3945 On ch=1 n=g#5 v=0
3945 On ch=1 n=a#3 v=0
3945 On ch=1 n=d#3 v=63
3945 On ch=1 n=c6 v=105
3965 On ch=1 n=c6 v=0
3965 On ch=1 n=d#3 v=0
3965 On ch=1 n=a#3 v=69
3965 On ch=1 n=d#5 v=69
3985 On ch=1 n=d#5 v=0
3985 On ch=1 n=a#3 v=0
3985 On ch=1 n=d#4 v=69
3985 On ch=1 n=g#5 v=69
4005 On ch=1 n=g#5 v=0
4005 On ch=1 n=d#4 v=0
4005 On ch=1 n=g#4 v=69
4005 On ch=1 n=a#4 v=69
4025 On ch=1 n=a#4 v=0
4025 On ch=1 n=g#4 v=0
4025 On ch=1 n=d#4 v=68
4025 On ch=1 n=d#5 v=68
4045 On ch=1 n=d#5 v=0
4045 On ch=1 n=d#4 v=0
4045 On ch=1 n=a#3 v=68
4045 On ch=1 n=g#5 v=68
4052 Par ch=1 c=64 v=0
4062 On ch=1 n=g#5 v=0
4062 On ch=1 n=a#3 v=0
4062 On ch=1 n=d#3 v=61
4062 Par ch=1 c=64 v=127
4062 On ch=1 n=c#6 v=102
4082 On ch=1 n=c#6 v=0
4082 On ch=1 n=d#3 v=0
4082 On ch=1 n=a#3 v=68
4082 On ch=1 n=d#5 v=68
4102 On ch=1 n=d#5 v=0
4102 On ch=1 n=a#3 v=0
4102 On ch=1 n=d#4 v=67
4102 On ch=1 n=g5 v=67
4122 On ch=1 n=g5 v=0
4122 On ch=1 n=d#4 v=0
4122 On ch=1 n=g4 v=67
4122 On ch=1 n=a#4 v=67
4142 On ch=1 n=a#4 v=0
4142 On ch=1 n=g4 v=0
4142 On ch=1 n=d#4 v=67
4142 On ch=1 n=c#5 v=67
4162 On ch=1 n=c#5 v=0
4162 On ch=1 n=d#4 v=0
4162 On ch=1 n=a#3 v=66
4162 On ch=1 n=d#5 v=66
4182 On ch=1 n=d#5 v=0
4182 On ch=1 n=a#3 v=0
4182 On ch=1 n=d#3 v=59
4182 On ch=1 n=d#5 v=99
4202 On ch=1 n=d#5 v=0
4202 On ch=1 n=d#3 v=0
4202 On ch=1 n=a#3 v=65
4202 On ch=1 n=a#4 v=65
4222 On ch=1 n=a#4 v=0
4222 On ch=1 n=a#3 v=0
4222 On ch=1 n=c#4 v=65
4222 On ch=1 n=c#5 v=65
4242 On ch=1 n=c#5 v=0
4242 On ch=1 n=c#4 v=0
4242 On ch=1 n=g4 v=64
4242 On ch=1 n=d#4 v=64
4262 On ch=1 n=d#4 v=0
4262 On ch=1 n=g4 v=0
4262 On ch=1 n=c#4 v=64
4262 On ch=1 n=a#4 v=64
4282 On ch=1 n=a#4 v=0
4282 On ch=1 n=c#4 v=0
4282 On ch=1 n=a#3 v=64
4282 On ch=1 n=c#5 v=64
4289 Par ch=1 c=64 v=0
4299 On ch=1 n=c#5 v=0
4299 On ch=1 n=a#3 v=0
4299 Par ch=1 c=64 v=127
4299 On ch=1 n=g#2 v=51
4299 On ch=1 n=d#6 v=96
4319 On ch=1 n=d#6 v=0
4319 On ch=1 n=g#2 v=0
4319 On ch=1 n=d#4 v=64
4319 On ch=1 n=g#5 v=64
4339 On ch=1 n=g#5 v=0
4339 On ch=1 n=d#4 v=0
4339 On ch=1 n=g#4 v=64
4339 On ch=1 n=c6 v=64
4359 On ch=1 n=c6 v=0
4359 On ch=1 n=g#4 v=0
4359 On ch=1 n=c5 v=65
4359 On ch=1 n=d#5 v=65
4379 On ch=1 n=d#5 v=0
4379 On ch=1 n=c5 v=0
4379 On ch=1 n=g#4 v=65
4379 On ch=1 n=g#5 v=65
4399 On ch=1 n=g#5 v=0
4399 On ch=1 n=g#4 v=0
4399 On ch=1 n=d#4 v=66
4399 On ch=1 n=c6 v=66
4419 On ch=1 n=c6 v=0
4419 On ch=1 n=d#4 v=0
4419 On ch=1 n=g#3 v=52
4419 On ch=1 n=d#6 v=98
4439 On ch=1 n=d#6 v=0
4439 On ch=1 n=g#3 v=0
4439 On ch=1 n=d#4 v=67
4439 On ch=1 n=g#5 v=67
4459 On ch=1 n=g#5 v=0
4459 On ch=1 n=d#4 v=0
4459 On ch=1 n=g#4 v=67
4459 On ch=1 n=c6 v=67
4479 On ch=1 n=c6 v=0
4479 On ch=1 n=g#4 v=0
4479 On ch=1 n=c5 v=67
4479 On ch=1 n=d#5 v=67
4499 On ch=1 n=d#5 v=0
4499 On ch=1 n=c5 v=0
4499 On ch=1 n=g#4 v=68
4499 On ch=1 n=g#5 v=68
4519 On ch=1 n=g#5 v=0
4519 On ch=1 n=g#4 v=0
4519 On ch=1 n=d#4 v=68
4519 On ch=1 n=c6 v=68
4539 On ch=1 n=c6 v=0
4539 On ch=1 n=d#4 v=0
4539 On ch=1 n=g#3 v=54
4539 On ch=1 n=d#6 v=102
4559 On ch=1 n=d#6 v=0
4559 On ch=1 n=g#3 v=0
4559 On ch=1 n=d#4 v=68
4559 On ch=1 n=g#5 v=68
4579 On ch=1 n=g#5 v=0
4579 On ch=1 n=d#4 v=0
4579 On ch=1 n=g#4 v=69
4579 On ch=1 n=c6 v=69
4599 On ch=1 n=c6 v=0
4599 On ch=1 n=g#4 v=0
4599 On ch=1 n=c5 v=69
4599 On ch=1 n=d#5 v=69
4619 On ch=1 n=d#5 v=0
4619 On ch=1 n=c5 v=0
4619 On ch=1 n=g#4 v=69
4619 On ch=1 n=g#5 v=69
4639 On ch=1 n=g#5 v=0
4639 On ch=1 n=g#4 v=0
4639 On ch=1 n=d#4 v=70
4639 On ch=1 n=c6 v=70
4659 On ch=1 n=c6 v=0
4659 On ch=1 n=d#4 v=0
4659 On ch=1 n=g#3 v=55
4659 On ch=1 n=d#6 v=104
4679 On ch=1 n=d#6 v=0
4679 On ch=1 n=g#3 v=0
4679 On ch=1 n=d#4 v=71
4679 On ch=1 n=g#5 v=71
4699 On ch=1 n=g#5 v=0
4699 On ch=1 n=d#4 v=0
4699 On ch=1 n=g#4 v=71
4699 On ch=1 n=c6 v=71
4719 On ch=1 n=c6 v=0
4719 On ch=1 n=g#4 v=0
4719 On ch=1 n=c5 v=72
4719 On ch=1 n=d#5 v=72
4739 On ch=1 n=d#5 v=0
4739 On ch=1 n=c5 v=0
4739 On ch=1 n=g#4 v=72
4739 On ch=1 n=g#5 v=72
4759 On ch=1 n=g#5 v=0
4759 On ch=1 n=g#4 v=0
4759 On ch=1 n=d#4 v=72
4759 On ch=1 n=c6 v=72
4769 Par ch=1 c=64 v=0
4779 On ch=1 n=c6 v=0
4779 On ch=1 n=d#4 v=0
4779 Par ch=1 c=64 v=127
4779 On ch=1 n=g#3 v=57
4779 On ch=1 n=f6 v=108
4799 On ch=1 n=f6 v=0
4799 On ch=1 n=g#3 v=0
4799 On ch=1 n=d#4 v=72
4799 On ch=1 n=g#5 v=72
4819 On ch=1 n=g#5 v=0
4819 On ch=1 n=d#4 v=0
4819 On ch=1 n=g#4 v=72
4819 On ch=1 n=c6 v=72
4839 On ch=1 n=c6 v=0
4839 On ch=1 n=g#4 v=0
4839 On ch=1 n=c5 v=72
4839 On ch=1 n=d#5 v=72
4859 On ch=1 n=d#5 v=0
4859 On ch=1 n=c5 v=0
4859 On ch=1 n=g#4 v=72
4859 On ch=1 n=g#5 v=72
4879 On ch=1 n=g#5 v=0
4879 On ch=1 n=g#4 v=0
4879 On ch=1 n=d#4 v=71
4879 On ch=1 n=c6 v=71
4899 On ch=1 n=c6 v=0
4899 On ch=1 n=d#4 v=0
4899 On ch=1 n=g#3 v=56
4899 On ch=1 n=d#6 v=105
4919 On ch=1 n=d#6 v=0
4919 On ch=1 n=g#3 v=0
4919 On ch=1 n=d#4 v=70
4919 On ch=1 n=g#5 v=70
4939 On ch=1 n=g#5 v=0
4939 On ch=1 n=d#4 v=0
4939 On ch=1 n=g#4 v=70
4939 On ch=1 n=c6 v=70
4959 On ch=1 n=c6 v=0
4959 On ch=1 n=g#4 v=0
4959 On ch=1 n=c5 v=70
4959 On ch=1 n=d#5 v=70
4979 On ch=1 n=d#5 v=0
4979 On ch=1 n=c5 v=0
4979 On ch=1 n=g#4 v=69
4979 On ch=1 n=g#5 v=69
4999 On ch=1 n=g#5 v=0
4999 On ch=1 n=g#4 v=0
4999 On ch=1 n=d#4 v=69
4999 On ch=1 n=c6 v=69
5019 On ch=1 n=c6 v=0
5019 On ch=1 n=d#4 v=0
5019 On ch=1 n=g#3 v=54
5019 On ch=1 n=d#6 v=102
5039 On ch=1 n=d#6 v=0
5039 On ch=1 n=g#3 v=0
5039 On ch=1 n=d#4 v=68
5039 On ch=1 n=g#5 v=68
5059 On ch=1 n=g#5 v=0
5059 On ch=1 n=d#4 v=0
5059 On ch=1 n=g#4 v=68
5059 On ch=1 n=c6 v=68
5079 On ch=1 n=c6 v=0
5079 On ch=1 n=g#4 v=0
5079 On ch=1 n=c5 v=68
5079 On ch=1 n=d#5 v=68
5099 On ch=1 n=d#5 v=0
5099 On ch=1 n=c5 v=0
5099 On ch=1 n=g#4 v=68
5099 On ch=1 n=g#5 v=68
5119 On ch=1 n=g#5 v=0
5119 On ch=1 n=g#4 v=0
5119 On ch=1 n=d#4 v=67
5119 On ch=1 n=c6 v=67
5139 On ch=1 n=c6 v=0
5139 On ch=1 n=d#4 v=0
5139 On ch=1 n=g#3 v=53
5139 On ch=1 n=d#6 v=99
5159 On ch=1 n=d#6 v=0
5159 On ch=1 n=g#3 v=0
5159 On ch=1 n=d#4 v=66
5159 On ch=1 n=g#5 v=66
5179 On ch=1 n=g#5 v=0
5179 On ch=1 n=d#4 v=0
5179 On ch=1 n=g#4 v=66
5179 On ch=1 n=c6 v=66
5199 On ch=1 n=c6 v=0
5199 On ch=1 n=g#4 v=0
5199 On ch=1 n=c5 v=65
5199 On ch=1 n=d#5 v=65
5219 On ch=1 n=d#5 v=0
5219 On ch=1 n=c5 v=0
5219 On ch=1 n=g#4 v=65
5219 On ch=1 n=g#5 v=65
5239 On ch=1 n=g#5 v=0
5239 On ch=1 n=g#4 v=0
5239 On ch=1 n=d#4 v=64
5239 On ch=1 n=c6 v=64
5249 Par ch=1 c=64 v=0
5259 On ch=1 n=c6 v=0
5259 On ch=1 n=d#4 v=0
5259 Par ch=1 c=64 v=127
5259 On ch=1 n=g#3 v=51
5259 On ch=1 n=d#6 v=96
5279 On ch=1 n=d#6 v=0
5279 On ch=1 n=g#3 v=0
5279 On ch=1 n=d#4 v=64
5279 On ch=1 n=a#5 v=64
5299 On ch=1 n=a#5 v=0
5299 On ch=1 n=d#4 v=0
5299 On ch=1 n=g4 v=64
5299 On ch=1 n=c#6 v=64
5319 On ch=1 n=c#6 v=0
5319 On ch=1 n=g4 v=0
5319 On ch=1 n=c#5 v=65
5319 On ch=1 n=d#5 v=65
5339 On ch=1 n=d#5 v=0
5339 On ch=1 n=c#5 v=0
5339 On ch=1 n=g4 v=65
5339 On ch=1 n=a#5 v=65
5359 On ch=1 n=a#5 v=0
5359 On ch=1 n=g4 v=0
5359 On ch=1 n=d#4 v=66
5359 On ch=1 n=c#6 v=66
5379 On ch=1 n=c#6 v=0
5379 On ch=1 n=d#4 v=0
5379 On ch=1 n=g#3 v=52
5379 On ch=1 n=a#6 v=98
5399 On ch=1 n=a#6 v=0
5399 On ch=1 n=g#3 v=0
5399 On ch=1 n=d#4 v=67
5399 On ch=1 n=a#5 v=67
5419 On ch=1 n=a#5 v=0
5419 On ch=1 n=d#4 v=0
5419 On ch=1 n=g4 v=67
5419 On ch=1 n=c#6 v=67
5439 On ch=1 n=c#6 v=0
5439 On ch=1 n=g4 v=0
5439 On ch=1 n=c#5 v=67
5439 On ch=1 n=d#5 v=67
5459 On ch=1 n=d#5 v=0
5459 On ch=1 n=c#5 v=0
5459 On ch=1 n=g4 v=68
5459 On ch=1 n=a#5 v=68
5479 On ch=1 n=a#5 v=0
5479 On ch=1 n=g4 v=0
5479 On ch=1 n=d#4 v=68
5479 On ch=1 n=c#6 v=68
5499 On ch=1 n=c#6 v=0
5499 On ch=1 n=d#4 v=0
5499 On ch=1 n=g#3 v=54
5499 On ch=1 n=c7 v=102
5519 On ch=1 n=c7 v=0
5519 On ch=1 n=g#3 v=0
5519 On ch=1 n=d#4 v=68
5519 On ch=1 n=a#5 v=68
5539 On ch=1 n=a#5 v=0
5539 On ch=1 n=d#4 v=0
5539 On ch=1 n=g4 v=69
5539 On ch=1 n=c#6 v=69
5559 On ch=1 n=c#6 v=0
5559 On ch=1 n=g4 v=0
5559 On ch=1 n=c#5 v=69
5559 On ch=1 n=d#5 v=69
5579 On ch=1 n=d#5 v=0
5579 On ch=1 n=c#5 v=0
5579 On ch=1 n=g4 v=69
5579 On ch=1 n=a#5 v=69
5599 On ch=1 n=a#5 v=0
5599 On ch=1 n=g4 v=0
5599 On ch=1 n=d#4 v=70
5599 On ch=1 n=c#6 v=70
5619 On ch=1 n=c#6 v=0
5619 On ch=1 n=d#4 v=0
5619 On ch=1 n=g#3 v=55
5619 On ch=1 n=g6 v=104
5639 On ch=1 n=g6 v=0
5639 On ch=1 n=g#3 v=0
5639 On ch=1 n=d#4 v=71
5639 On ch=1 n=a#5 v=71
5659 On ch=1 n=a#5 v=0
5659 On ch=1 n=d#4 v=0
5659 On ch=1 n=g4 v=71
5659 On ch=1 n=c#6 v=71
5679 On ch=1 n=c#6 v=0
5679 On ch=1 n=g4 v=0
5679 On ch=1 n=c#5 v=72
5679 On ch=1 n=d#5 v=72
5699 On ch=1 n=d#5 v=0
5699 On ch=1 n=c#5 v=0
5699 On ch=1 n=g4 v=72
5699 On ch=1 n=a#5 v=72
5719 On ch=1 n=a#5 v=0
5719 On ch=1 n=g4 v=0
5719 On ch=1 n=d#4 v=72
5719 On ch=1 n=c#6 v=72
5729 Par ch=1 c=64 v=0
5739 On ch=1 n=c#6 v=0
5739 On ch=1 n=d#4 v=0
5739 Par ch=1 c=64 v=127
5739 On ch=1 n=g#3 v=57
5739 On ch=1 n=a#6 v=108
5759 On ch=1 n=a#6 v=0
5759 On ch=1 n=g#3 v=0
5759 On ch=1 n=d#4 v=72
5759 On ch=1 n=c6 v=72
5779 On ch=1 n=c6 v=0
5779 On ch=1 n=d#4 v=0
5779 On ch=1 n=g#4 v=72
5779 On ch=1 n=d#6 v=72
5799 On ch=1 n=d#6 v=0
5799 On ch=1 n=g#4 v=0
5799 On ch=1 n=c5 v=73
5799 On ch=1 n=d#5 v=73
5819 On ch=1 n=d#5 v=0
5819 On ch=1 n=c5 v=0
5819 On ch=1 n=g#4 v=73
5819 On ch=1 n=c6 v=73
5839 On ch=1 n=c6 v=0
5839 On ch=1 n=g#4 v=0
5839 On ch=1 n=d#4 v=74
5839 On ch=1 n=d#6 v=74
5859 On ch=1 n=d#6 v=0
5859 On ch=1 n=d#4 v=0
5859 On ch=1 n=g#3 v=58
5859 On ch=1 n=g#6 v=110
5879 On ch=1 n=g#6 v=0
5879 On ch=1 n=g#3 v=0
5879 On ch=1 n=d#4 v=75
5879 On ch=1 n=c6 v=75
5899 On ch=1 n=c6 v=0
5899 On ch=1 n=d#4 v=0
5899 On ch=1 n=g#4 v=75
5899 On ch=1 n=d#6 v=75
5919 On ch=1 n=d#6 v=0
5919 On ch=1 n=g#4 v=0
5919 On ch=1 n=c5 v=75
5919 On ch=1 n=d#5 v=75
5939 On ch=1 n=d#5 v=0
5939 On ch=1 n=c5 v=0
5939 On ch=1 n=g#4 v=76
5939 On ch=1 n=c6 v=76
5959 On ch=1 n=c6 v=0
5959 On ch=1 n=g#4 v=0
5959 On ch=1 n=d#4 v=76
5959 On ch=1 n=d#6 v=76
5979 On ch=1 n=d#6 v=0
5979 On ch=1 n=d#4 v=0
5979 On ch=1 n=g#3 v=60
5979 On ch=1 n=g#6 v=114
5999 On ch=1 n=g#6 v=0
5999 On ch=1 n=g#3 v=0
5999 On ch=1 n=e4 v=76
5999 On ch=1 n=c6 v=76
6019 On ch=1 n=c6 v=0
6019 On ch=1 n=e4 v=0
6019 On ch=1 n=g#4 v=77
6019 On ch=1 n=e6 v=77
6039 On ch=1 n=e6 v=0
6039 On ch=1 n=g#4 v=0
6039 On ch=1 n=c5 v=77
6039 On ch=1 n=e5 v=77
6059 On ch=1 n=e5 v=0
6059 On ch=1 n=c5 v=0
6059 On ch=1 n=g#4 v=77
6059 On ch=1 n=c6 v=77
6079 On ch=1 n=c6 v=0
6079 On ch=1 n=g#4 v=0
6079 On ch=1 n=e4 v=78
6079 On ch=1 n=e6 v=78
6099 On ch=1 n=e6 v=0
6099 On ch=1 n=e4 v=0
6099 On ch=1 n=g#3 v=62
6099 On ch=1 n=g#6 v=116
6119 On ch=1 n=g#6 v=0
6119 On ch=1 n=g#3 v=0
6119 On ch=1 n=e4 v=79
6119 On ch=1 n=c6 v=79
6139 On ch=1 n=c6 v=0
6139 On ch=1 n=e4 v=0
6139 On ch=1 n=g#4 v=79
6139 On ch=1 n=e6 v=79
6159 On ch=1 n=e6 v=0
6159 On ch=1 n=g#4 v=0
6159 On ch=1 n=c5 v=80
6159 On ch=1 n=e5 v=80
6179 On ch=1 n=e5 v=0
6179 On ch=1 n=c5 v=0
6179 On ch=1 n=g#4 v=80
6179 On ch=1 n=c6 v=80
6199 On ch=1 n=c6 v=0
6199 On ch=1 n=g#4 v=0
6199 On ch=1 n=e4 v=81
6199 On ch=1 n=e6 v=81
6209 Par ch=1 c=64 v=0
6219 On ch=1 n=e6 v=0
6219 On ch=1 n=e4 v=0
6219 Par ch=1 c=64 v=127
6219 On ch=1 n=c#3 v=76
6219 On ch=1 n=g#6 v=120
6239 On ch=1 n=g#6 v=0
6239 On ch=1 n=c#3 v=0
6239 On ch=1 n=g#4 v=76
6239 On ch=1 n=c#6 v=76
6259 On ch=1 n=c#6 v=0
6259 On ch=1 n=g#4 v=0
6259 On ch=1 n=c#5 v=76
6259 On ch=1 n=f6 v=76
6279 On ch=1 n=f6 v=0
6279 On ch=1 n=c#5 v=0
6279 On ch=1 n=f5 v=76
6279 On ch=1 n=g#5 v=76
6299 On ch=1 n=g#5 v=0
6299 On ch=1 n=f5 v=0
6299 On ch=1 n=c#5 v=76
6299 On ch=1 n=c#6 v=76
6319 On ch=1 n=c#6 v=0
6319 On ch=1 n=c#5 v=0
6319 On ch=1 n=g#4 v=76
6319 On ch=1 n=f6 v=76
6339 On ch=1 n=f6 v=0
6339 On ch=1 n=g#4 v=0
6339 On ch=1 n=c#4 v=68
6339 On ch=1 n=g#6 v=120
6359 On ch=1 n=g#6 v=0
6359 On ch=1 n=c#4 v=0
6359 On ch=1 n=g#4 v=76
6359 On ch=1 n=c#6 v=76
6379 On ch=1 n=c#6 v=0
6379 On ch=1 n=g#4 v=0
6379 On ch=1 n=c#5 v=76
6379 On ch=1 n=f6 v=76
6399 On ch=1 n=f6 v=0
6399 On ch=1 n=c#5 v=0
6399 On ch=1 n=f5 v=76
6399 On ch=1 n=g#5 v=76
6419 On ch=1 n=g#5 v=0
6419 On ch=1 n=f5 v=0
6419 On ch=1 n=c#5 v=76
6419 On ch=1 n=c#6 v=76
6439 On ch=1 n=c#6 v=0
6439 On ch=1 n=c#5 v=0
6439 On ch=1 n=g#4 v=76
6439 On ch=1 n=f6 v=76
6459 On ch=1 n=f6 v=0
6459 On ch=1 n=g#4 v=0
6459 On ch=1 n=c#4 v=68
6459 On ch=1 n=g#6 v=120
6479 On ch=1 n=g#6 v=0
6479 On ch=1 n=c#4 v=0
6479 On ch=1 n=g#4 v=76
6479 On ch=1 n=c#6 v=76
6499 On ch=1 n=c#6 v=0
6499 On ch=1 n=g#4 v=0
6499 On ch=1 n=c#5 v=76
6499 On ch=1 n=f6 v=76
6519 On ch=1 n=f6 v=0
6519 On ch=1 n=c#5 v=0
6519 On ch=1 n=f5 v=76
6519 On ch=1 n=g#5 v=76
6539 On ch=1 n=g#5 v=0
6539 On ch=1 n=f5 v=0
6539 On ch=1 n=c#5 v=76
6539 On ch=1 n=c#6 v=76
6559 On ch=1 n=c#6 v=0
6559 On ch=1 n=c#5 v=0
6559 Par ch=1 c=64 v=0
6559 On ch=1 n=g#4 v=76
6559 On ch=1 n=f6 v=76
6579 On ch=1 n=f6 v=0
6579 On ch=1 n=g#4 v=0
6579 Par ch=1 c=64 v=127
6579 On ch=1 n=c#4 v=68
6579 On ch=1 n=a#6 v=120
6599 On ch=1 n=a#6 v=0
6599 On ch=1 n=c#4 v=0
6599 On ch=1 n=g4 v=76
6599 On ch=1 n=c#6 v=76
6619 On ch=1 n=c#6 v=0
6619 On ch=1 n=g4 v=0
6619 On ch=1 n=c#5 v=76
6619 On ch=1 n=f6 v=76
6639 On ch=1 n=f6 v=0
6639 On ch=1 n=c#5 v=0
6639 On ch=1 n=f5 v=76
6639 On ch=1 n=g5 v=76
6659 On ch=1 n=g5 v=0
6659 On ch=1 n=f5 v=0
6659 On ch=1 n=c#5 v=76
6659 On ch=1 n=c#6 v=76
6679 On ch=1 n=c#6 v=0
6679 On ch=1 n=c#5 v=0
6679 Par ch=1 c=64 v=0
6679 On ch=1 n=f6 v=76
6679 On ch=1 n=g4 v=76
6699 On ch=1 n=g4 v=0
6699 On ch=1 n=f6 v=0
6699 Par ch=1 c=64 v=127
6699 On ch=1 n=c7 v=120
6699 On ch=1 n=c4 v=68
6719 On ch=1 n=c4 v=0
6719 On ch=1 n=c7 v=0
6719 On ch=1 n=g4 v=76
6719 On ch=1 n=c6 v=76
6739 On ch=1 n=c6 v=0
6739 On ch=1 n=g4 v=0
6739 On ch=1 n=c5 v=76
6739 On ch=1 n=f6 v=76
6759 On ch=1 n=f6 v=0
6759 On ch=1 n=c5 v=0
6759 On ch=1 n=g5 v=75
6759 On ch=1 n=f5 v=75
6779 On ch=1 n=f5 v=0
6779 On ch=1 n=g5 v=0
6779 On ch=1 n=c5 v=75
6779 On ch=1 n=c6 v=75
6799 On ch=1 n=c6 v=0
6799 On ch=1 n=c5 v=0
6799 On ch=1 n=g4 v=74
6799 On ch=1 n=f6 v=74
6819 On ch=1 n=f6 v=0
6819 On ch=1 n=g4 v=0
6819 On ch=1 n=c4 v=66
6819 On ch=1 n=g6 v=117
6839 On ch=1 n=g6 v=0
6839 On ch=1 n=c4 v=0
6839 On ch=1 n=c6 v=73
6839 On ch=1 n=g4 v=73
6859 On ch=1 n=g4 v=0
6859 On ch=1 n=c6 v=0
6859 On ch=1 n=c5 v=73
6859 On ch=1 n=f6 v=73
6879 On ch=1 n=f6 v=0
6879 On ch=1 n=c5 v=0
6879 On ch=1 n=f5 v=73
6879 On ch=1 n=g5 v=73
6899 On ch=1 n=g5 v=0
6899 On ch=1 n=f5 v=0
6899 On ch=1 n=c6 v=72
6899 On ch=1 n=c5 v=72
6919 On ch=1 n=c5 v=0
6919 On ch=1 n=c6 v=0
6919 On ch=1 n=g4 v=72
6919 On ch=1 n=f6 v=72
6924 Par ch=1 c=64 v=0
6939 On ch=1 n=f6 v=0
6939 On ch=1 n=g4 v=0
6939 Par ch=1 c=64 v=127
6939 On ch=1 n=c4 v=64
6939 On ch=1 n=g6 v=114
6959 On ch=1 n=g6 v=0
6959 On ch=1 n=c4 v=0
6959 On ch=1 n=g4 v=72
6959 On ch=1 n=c6 v=72
6979 On ch=1 n=c6 v=0
6979 On ch=1 n=g4 v=0
6979 On ch=1 n=c5 v=71
6979 On ch=1 n=e6 v=71
6999 On ch=1 n=e6 v=0
6999 On ch=1 n=c5 v=0
6999 On ch=1 n=e5 v=71
6999 On ch=1 n=g5 v=71
7019 On ch=1 n=g5 v=0
7019 On ch=1 n=e5 v=0
7019 On ch=1 n=c5 v=71
7019 On ch=1 n=c6 v=71
7039 On ch=1 n=c6 v=0
7039 On ch=1 n=c5 v=0
7039 On ch=1 n=g4 v=70
7039 On ch=1 n=e6 v=70
7046 Par ch=1 c=64 v=0
7056 On ch=1 n=e6 v=0
7056 On ch=1 n=g4 v=0
7056 On ch=1 n=g6 v=111
7056 Par ch=1 c=64 v=127
7056 On ch=1 n=c4 v=63
7076 On ch=1 n=c4 v=0
7076 On ch=1 n=g6 v=0
7076 On ch=1 n=g4 v=69
7076 On ch=1 n=c6 v=69
7096 On ch=1 n=c6 v=0
7096 On ch=1 n=g4 v=0
7096 On ch=1 n=c5 v=69
7096 On ch=1 n=e6 v=69
7116 On ch=1 n=e6 v=0
7116 On ch=1 n=c5 v=0
7116 On ch=1 n=e5 v=69
7116 On ch=1 n=g5 v=69
7136 On ch=1 n=g5 v=0
7136 On ch=1 n=e5 v=0
7136 On ch=1 n=c5 v=69
7136 On ch=1 n=c6 v=69
7156 On ch=1 n=c6 v=0
7156 On ch=1 n=c5 v=0
7156 On ch=1 n=g4 v=68
7156 On ch=1 n=e6 v=68
7163 Par ch=1 c=64 v=0
7173 On ch=1 n=e6 v=0
7173 On ch=1 n=g4 v=0
7173 Par ch=1 c=64 v=127
7173 On ch=1 n=g3 v=61
7173 On ch=1 n=g6 v=108
7193 On ch=1 n=g6 v=0
7193 On ch=1 n=g3 v=0
7193 On ch=1 n=d4 v=68
7193 On ch=1 n=b5 v=68
7213 On ch=1 n=b5 v=0
7213 On ch=1 n=d4 v=0
7213 On ch=1 n=g4 v=68
7213 On ch=1 n=e6 v=68
7233 On ch=1 n=e6 v=0
7233 On ch=1 n=g4 v=0
7233 On ch=1 n=b4 v=68
7233 On ch=1 n=f5 v=68
7253 On ch=1 n=f5 v=0
7253 On ch=1 n=b4 v=0
7253 On ch=1 n=g4 v=68
7253 On ch=1 n=b5 v=68
7273 On ch=1 n=b5 v=0
7273 On ch=1 n=g4 v=0
7273 On ch=1 n=d4 v=68
7273 On ch=1 n=e6 v=68
7293 On ch=1 n=e6 v=0
7293 On ch=1 n=d4 v=0
7293 On ch=1 n=g6 v=108
7293 On ch=1 n=g3 v=61
7313 On ch=1 n=g3 v=0
7313 On ch=1 n=g6 v=0
7313 On ch=1 n=b5 v=68
7313 On ch=1 n=d4 v=68
7333 On ch=1 n=d4 v=0
7333 On ch=1 n=b5 v=0
7333 On ch=1 n=d6 v=68
7333 On ch=1 n=g4 v=68
7353 On ch=1 n=g4 v=0
7353 On ch=1 n=d6 v=0
7353 On ch=1 n=f5 v=68
7353 On ch=1 n=b4 v=68
7373 On ch=1 n=b4 v=0
7373 On ch=1 n=f5 v=0
7373 On ch=1 n=b5 v=68
7373 On ch=1 n=g4 v=68
7393 On ch=1 n=g4 v=0
7393 On ch=1 n=b5 v=0
7393 On ch=1 n=d6 v=68
7393 On ch=1 n=d4 v=68
7400 Par ch=1 c=64 v=0
7410 On ch=1 n=d4 v=0
7410 On ch=1 n=d6 v=0
7410 On ch=1 n=g6 v=108
7410 Par ch=1 c=64 v=127
7410 On ch=1 n=g3 v=61
7430 On ch=1 n=g3 v=0
7430 On ch=1 n=g6 v=0
7430 On ch=1 n=b5 v=68
7430 On ch=1 n=d4 v=68
7450 On ch=1 n=d4 v=0
7450 On ch=1 n=b5 v=0
7450 On ch=1 n=f6 v=68
7450 On ch=1 n=g4 v=68
7470 On ch=1 n=g4 v=0
7470 On ch=1 n=f6 v=0
7470 On ch=1 n=f5 v=68
7470 On ch=1 n=d5 v=68
7490 On ch=1 n=d5 v=0
7490 On ch=1 n=f5 v=0
7490 On ch=1 n=b5 v=68
7490 On ch=1 n=g4 v=68
7510 On ch=1 n=g4 v=0
7510 On ch=1 n=b5 v=0
7510 On ch=1 n=f6 v=68
7510 On ch=1 n=d4 v=68
7530 On ch=1 n=d4 v=0
7530 On ch=1 n=f6 v=0
7530 On ch=1 n=g6 v=108
7530 On ch=1 n=g3 v=61
7550 On ch=1 n=g3 v=0
7550 On ch=1 n=g6 v=0
7550 On ch=1 n=b5 v=68
7550 On ch=1 n=d4 v=68
7570 On ch=1 n=d4 v=0
7570 On ch=1 n=b5 v=0
7570 On ch=1 n=e6 v=68
7570 On ch=1 n=g4 v=68
7590 On ch=1 n=g4 v=0
7590 On ch=1 n=e6 v=0
7590 On ch=1 n=d5 v=68
7590 On ch=1 n=f5 v=68
7610 On ch=1 n=f5 v=0
7610 On ch=1 n=d5 v=0
7610 On ch=1 n=b5 v=68
7610 On ch=1 n=g4 v=68
7630 On ch=1 n=g4 v=0
7630 On ch=1 n=b5 v=0
7630 On ch=1 n=e6 v=68
7630 On ch=1 n=d4 v=68
7637 Par ch=1 c=64 v=0
7647 On ch=1 n=d4 v=0
7647 On ch=1 n=e6 v=0
7647 On ch=1 n=c3 v=61
7647 Par ch=1 c=64 v=127
7647 On ch=1 n=d6 v=108
7667 On ch=1 n=d6 v=0
7667 On ch=1 n=c3 v=0
7667 On ch=1 n=g3 v=68
7667 On ch=1 n=f5 v=68
7687 On ch=1 n=f5 v=0
7687 On ch=1 n=g3 v=0
7687 On ch=1 n=c4 v=68
7687 On ch=1 n=g5 v=68
7707 On ch=1 n=g5 v=0
7707 On ch=1 n=c4 v=0
7707 On ch=1 n=c5 v=67
7707 On ch=1 n=g4 v=67
7727 On ch=1 n=g4 v=0
7727 On ch=1 n=c5 v=0
7727 On ch=1 n=c4 v=67
7727 On ch=1 n=f5 v=67
7747 On ch=1 n=f5 v=0
7747 On ch=1 n=c4 v=0
7747 On ch=1 n=g3 v=66
7747 On ch=1 n=g5 v=66
7767 On ch=1 n=g5 v=0
7767 On ch=1 n=g3 v=0
7767 On ch=1 n=c3 v=59
7767 On ch=1 n=c6 v=101
7787 On ch=1 n=c6 v=0
7787 On ch=1 n=c3 v=0
7787 On ch=1 n=g3 v=66
7787 On ch=1 n=e5 v=66
7807 On ch=1 n=e5 v=0
7807 On ch=1 n=g3 v=0
7807 On ch=1 n=c4 v=66
7807 On ch=1 n=g5 v=66
7827 On ch=1 n=g5 v=0
7827 On ch=1 n=c4 v=0
7827 On ch=1 n=g4 v=66
7827 On ch=1 n=c5 v=66
7847 On ch=1 n=c5 v=0
7847 On ch=1 n=g4 v=0
7847 On ch=1 n=c4 v=65
7847 On ch=1 n=e5 v=65
7867 On ch=1 n=e5 v=0
7867 On ch=1 n=c4 v=0
7867 On ch=1 n=g3 v=65
7867 On ch=1 n=g5 v=65
7874 Par ch=1 c=64 v=0
7884 On ch=1 n=g5 v=0
7884 On ch=1 n=g3 v=0
7884 On ch=1 n=c3 v=57
7884 Par ch=1 c=64 v=127
7884 On ch=1 n=c6 v=95
7904 On ch=1 n=c6 v=0
7904 On ch=1 n=c3 v=0
7904 On ch=1 n=g3 v=64
7904 On ch=1 n=d5 v=64
7924 On ch=1 n=d5 v=0
7924 On ch=1 n=g3 v=0
7924 On ch=1 n=c4 v=63
7924 On ch=1 n=g5 v=63
7944 On ch=1 n=g5 v=0
7944 On ch=1 n=c4 v=0
7944 On ch=1 n=g4 v=63
7944 On ch=1 n=c5 v=63
7964 On ch=1 n=c5 v=0
7964 On ch=1 n=g4 v=0
7964 On ch=1 n=c4 v=63
7964 On ch=1 n=d5 v=63
7984 On ch=1 n=d5 v=0
7984 On ch=1 n=c4 v=0
7984 On ch=1 n=g3 v=63
7984 On ch=1 n=g5 v=63
8004 On ch=1 n=g5 v=0
8004 On ch=1 n=g3 v=0
8004 On ch=1 n=c3 v=56
8004 On ch=1 n=c6 v=89
8024 On ch=1 n=c6 v=0
8024 On ch=1 n=c3 v=0
8024 On ch=1 n=g3 v=62
8024 On ch=1 n=e5 v=62
8044 On ch=1 n=e5 v=0
8044 On ch=1 n=g3 v=0
8044 On ch=1 n=c4 v=62
8044 On ch=1 n=g5 v=62
8064 On ch=1 n=g5 v=0
8064 On ch=1 n=c4 v=0
8064 On ch=1 n=c5 v=61
8064 On ch=1 n=g4 v=61
8084 On ch=1 n=g4 v=0
8084 On ch=1 n=c5 v=0
8084 On ch=1 n=c4 v=61
8084 On ch=1 n=e5 v=61
8104 On ch=1 n=e5 v=0
8104 On ch=1 n=c4 v=0
8104 On ch=1 n=g3 v=60
8104 On ch=1 n=g5 v=60
8111 Par ch=1 c=64 v=0
8121 On ch=1 n=g5 v=0
8121 On ch=1 n=g3 v=0
8121 Par ch=1 c=64 v=127
8121 On ch=1 n=e3 v=54
8121 On ch=1 n=c6 v=96
8141 On ch=1 n=c6 v=0
8141 On ch=1 n=g5 v=60
8151 On ch=1 n=e3 v=0
8151 On ch=1 n=c4 v=60
8161 On ch=1 n=g5 v=0
8161 On ch=1 n=a#5 v=60
8181 On ch=1 n=a#5 v=0
8181 On ch=1 n=c4 v=0
8181 On ch=1 n=a#4 v=61
8181 On ch=1 n=c5 v=61
8201 On ch=1 n=c5 v=0
8201 On ch=1 n=g5 v=61
8211 On ch=1 n=a#4 v=0
8211 On ch=1 n=c4 v=61
8221 On ch=1 n=g5 v=0
8221 On ch=1 n=a#5 v=62
8241 On ch=1 n=a#5 v=0
8241 On ch=1 n=c4 v=0
8241 On ch=1 n=e3 v=55
8241 On ch=1 n=c6 v=88
8261 On ch=1 n=c6 v=0
8261 On ch=1 n=g5 v=63
8271 On ch=1 n=e3 v=0
8271 On ch=1 n=c4 v=63
8281 On ch=1 n=g5 v=0
8281 On ch=1 n=a#5 v=63
8301 On ch=1 n=a#5 v=0
8301 On ch=1 n=c4 v=0
8301 On ch=1 n=a#4 v=63
8301 On ch=1 n=c5 v=63
8321 On ch=1 n=c5 v=0
8321 On ch=1 n=g5 v=63
8331 On ch=1 n=a#4 v=0
8331 On ch=1 n=c4 v=63
8341 On ch=1 n=g5 v=0
8341 On ch=1 n=a#5 v=63
8351 Par ch=1 c=64 v=0
8361 On ch=1 n=a#5 v=0
8361 On ch=1 n=c4 v=0
8361 Par ch=1 c=64 v=127
8361 On ch=1 n=e3 v=57
8361 On ch=1 n=c#6 v=102
8381 On ch=1 n=c#6 v=0
8381 On ch=1 n=g5 v=64
8391 On ch=1 n=e3 v=0
8391 On ch=1 n=c4 v=64
8401 On ch=1 n=g5 v=0
8401 On ch=1 n=a#5 v=65
8421 On ch=1 n=a#5 v=0
8421 On ch=1 n=c4 v=0
8421 On ch=1 n=a#4 v=65
8421 On ch=1 n=c5 v=65
8441 On ch=1 n=c5 v=0
8441 On ch=1 n=g5 v=65
8451 On ch=1 n=a#4 v=0
8451 On ch=1 n=c4 v=66
8461 On ch=1 n=g5 v=0
8461 On ch=1 n=a#5 v=66
8481 On ch=1 n=a#5 v=0
8481 On ch=1 n=c4 v=0
8481 On ch=1 n=e3 v=59
8481 On ch=1 n=c6 v=104
8501 On ch=1 n=c6 v=0
8501 On ch=1 n=g5 v=66
8511 On ch=1 n=e3 v=0
8511 On ch=1 n=c4 v=66
8521 On ch=1 n=g5 v=0
8521 On ch=1 n=a#5 v=66
8541 On ch=1 n=a#5 v=0
8541 On ch=1 n=c4 v=0
8541 On ch=1 n=a#4 v=67
8541 On ch=1 n=c5 v=67
8561 On ch=1 n=c5 v=0
8561 On ch=1 n=g5 v=67
8571 On ch=1 n=a#4 v=0
8571 On ch=1 n=c4 v=67
8581 On ch=1 n=g5 v=0
8581 On ch=1 n=a#5 v=68
8591 Par ch=1 c=64 v=0
8601 On ch=1 n=a#5 v=0
8601 On ch=1 n=c4 v=0
8601 Par ch=1 c=64 v=127
8601 On ch=1 n=f3 v=68
8601 On ch=1 n=c6 v=108
8621 On ch=1 n=c6 v=0
8621 On ch=1 n=f5 v=76
8631 On ch=1 n=f3 v=0
8631 On ch=1 n=c4 v=76
8641 On ch=1 n=f5 v=0
8641 On ch=1 n=a#5 v=76
8661 On ch=1 n=a#5 v=0
8661 On ch=1 n=c4 v=0
8661 On ch=1 n=a#4 v=77
8661 On ch=1 n=c5 v=77
8681 On ch=1 n=c5 v=0
8681 On ch=1 n=f5 v=77
8691 On ch=1 n=a#4 v=0
8691 On ch=1 n=c4 v=77
8701 On ch=1 n=f5 v=0
8701 On ch=1 n=a#5 v=78
8721 On ch=1 n=a#5 v=0
8721 On ch=1 n=c4 v=0
8721 On ch=1 n=f3 v=69
8721 On ch=1 n=d6 v=110
8741 On ch=1 n=d6 v=0
8741 On ch=1 n=f5 v=79
8751 On ch=1 n=f3 v=0
8751 On ch=1 n=c4 v=79
8761 On ch=1 n=f5 v=0
8761 On ch=1 n=g#5 v=79
8781 On ch=1 n=g#5 v=0
8781 On ch=1 n=c4 v=0
8781 On ch=1 n=g#4 v=79
8781 On ch=1 n=c5 v=79
8801 On ch=1 n=c5 v=0
8801 On ch=1 n=f5 v=79
8811 On ch=1 n=g#4 v=0
8811 On ch=1 n=c4 v=79
8821 On ch=1 n=f5 v=0
8821 On ch=1 n=g#5 v=79
8831 Par ch=1 c=64 v=0
8841 On ch=1 n=g#5 v=0
8841 On ch=1 n=c4 v=0
8841 Par ch=1 c=64 v=127
8841 On ch=1 n=f3 v=72
8841 On ch=1 n=e6 v=114
8861 On ch=1 n=e6 v=0
8861 On ch=1 n=g5 v=80
8871 On ch=1 n=f3 v=0
8871 On ch=1 n=c4 v=80
8881 On ch=1 n=g5 v=0
8881 On ch=1 n=c6 v=81
8901 On ch=1 n=c6 v=0
8901 On ch=1 n=c4 v=0
8901 On ch=1 n=g4 v=81
8901 On ch=1 n=c5 v=81
8921 On ch=1 n=c5 v=0
8921 On ch=1 n=g5 v=81
8931 On ch=1 n=g4 v=0
8931 On ch=1 n=c4 v=82
8941 On ch=1 n=g5 v=0
8941 On ch=1 n=c6 v=82
8961 On ch=1 n=c6 v=0
8961 On ch=1 n=c4 v=0
8961 On ch=1 n=f3 v=73
8961 On ch=1 n=f6 v=116
8981 On ch=1 n=f6 v=0
8981 On ch=1 n=g#5 v=98
8991 On ch=1 n=f3 v=0
8991 On ch=1 n=c4 v=83
9001 On ch=1 n=g#5 v=0
9001 On ch=1 n=c6 v=83
9021 On ch=1 n=c6 v=0
9021 On ch=1 n=c4 v=0
9021 On ch=1 n=f4 v=84
9021 On ch=1 n=c5 v=84
9041 On ch=1 n=c5 v=0
9041 On ch=1 n=g#5 v=99
9051 On ch=1 n=f4 v=0
9051 On ch=1 n=c4 v=84
9061 On ch=1 n=g#5 v=0
9061 On ch=1 n=c6 v=85
9071 Par ch=1 c=64 v=0
9081 On ch=1 n=c6 v=0
9081 On ch=1 n=c4 v=0
9081 Par ch=1 c=64 v=127
9081 On ch=1 n=g3 v=68
9081 On ch=1 n=d#6 v=108
9101 On ch=1 n=d#6 v=0
9101 On ch=1 n=a#5 v=76
9111 On ch=1 n=g3 v=0
9111 On ch=1 n=d#4 v=76
9121 On ch=1 n=a#5 v=0
9121 On ch=1 n=c#6 v=76
9141 On ch=1 n=c#6 v=0
9141 On ch=1 n=d#4 v=0
9141 On ch=1 n=c#5 v=77
9141 On ch=1 n=d#5 v=77
9161 On ch=1 n=d#5 v=0
9161 On ch=1 n=a#5 v=77
9171 On ch=1 n=c#5 v=0
9171 On ch=1 n=d#4 v=77
9181 On ch=1 n=a#5 v=0
9181 On ch=1 n=c#6 v=78
9201 On ch=1 n=c#6 v=0
9201 On ch=1 n=d#4 v=0
9201 On ch=1 n=g3 v=69
9201 On ch=1 n=d#6 v=110
9221 On ch=1 n=d#6 v=0
9221 On ch=1 n=a#5 v=79
9231 On ch=1 n=g3 v=0
9231 On ch=1 n=d#4 v=79
9241 On ch=1 n=a#5 v=0
9241 On ch=1 n=c#6 v=79
9261 On ch=1 n=c#6 v=0
9261 On ch=1 n=d#4 v=0
9261 On ch=1 n=c#5 v=79
9261 On ch=1 n=d#5 v=79
9281 On ch=1 n=d#5 v=0
9281 On ch=1 n=a#5 v=79
9291 On ch=1 n=c#5 v=0
9291 On ch=1 n=d#4 v=79
9301 On ch=1 n=a#5 v=0
9301 Par ch=1 c=64 v=0
9301 On ch=1 n=c#6 v=79
9321 On ch=1 n=c#6 v=0
9321 On ch=1 n=d#4 v=0
9321 Par ch=1 c=64 v=127
9321 On ch=1 n=g3 v=72
9321 On ch=1 n=f6 v=114
9341 On ch=1 n=f6 v=0
9341 On ch=1 n=a#5 v=80
9351 On ch=1 n=g3 v=0
9351 On ch=1 n=d#4 v=80
9361 On ch=1 n=a#5 v=0
9361 On ch=1 n=c#6 v=81
9381 On ch=1 n=c#6 v=0
9381 On ch=1 n=d#4 v=0
9381 On ch=1 n=c#5 v=81
9381 On ch=1 n=d#5 v=81
9401 On ch=1 n=d#5 v=0
9401 On ch=1 n=a#5 v=81
9411 On ch=1 n=c#5 v=0
9411 On ch=1 n=d#4 v=82
9421 On ch=1 n=a#5 v=0
9421 Par ch=1 c=64 v=0
9421 On ch=1 n=c#6 v=82
9441 On ch=1 n=c#6 v=0
9441 On ch=1 n=d#4 v=0
9441 Par ch=1 c=64 v=127
9441 On ch=1 n=g3 v=73
9441 On ch=1 n=d#6 v=116
9461 On ch=1 n=d#6 v=0
9461 On ch=1 n=a#5 v=83
9471 On ch=1 n=g3 v=0
9471 On ch=1 n=d#4 v=83
9481 On ch=1 n=a#5 v=0
9481 On ch=1 n=c#6 v=83
9501 On ch=1 n=c#6 v=0
9501 On ch=1 n=d#4 v=0
9501 On ch=1 n=c#5 v=84
9501 On ch=1 n=d#5 v=84
9521 On ch=1 n=d#5 v=0
9521 On ch=1 n=a#5 v=84
9531 On ch=1 n=c#5 v=0
9531 On ch=1 n=d#4 v=84
9541 On ch=1 n=a#5 v=0
9541 Par ch=1 c=64 v=0
9541 On ch=1 n=c#6 v=85
9561 On ch=1 n=c#6 v=0
9561 On ch=1 n=d#4 v=0
9561 Par ch=1 c=64 v=127
9561 On ch=1 n=g#3 v=68
9561 On ch=1 n=d#6 v=108
9581 On ch=1 n=d#6 v=0
9581 On ch=1 n=g#5 v=76
9591 On ch=1 n=g#3 v=0
9591 On ch=1 n=d#4 v=76
9601 On ch=1 n=g#5 v=0
9601 On ch=1 n=c#6 v=76
9621 On ch=1 n=c#6 v=0
9621 On ch=1 n=d#4 v=0
9621 On ch=1 n=c#5 v=77
9621 On ch=1 n=d#5 v=77
9641 On ch=1 n=d#5 v=0
9641 On ch=1 n=g#5 v=77
9651 On ch=1 n=c#5 v=0
9651 On ch=1 n=d#4 v=77
9661 On ch=1 n=g#5 v=0
9661 On ch=1 n=c#6 v=78
9681 On ch=1 n=c#6 v=0
9681 On ch=1 n=d#4 v=0
9681 On ch=1 n=g#3 v=69
9681 On ch=1 n=f6 v=110
9701 On ch=1 n=f6 v=0
9701 On ch=1 n=g#5 v=79
9711 On ch=1 n=g#3 v=0
9711 On ch=1 n=d#4 v=79
9721 On ch=1 n=g#5 v=0
9721 On ch=1 n=c6 v=79
9741 On ch=1 n=c6 v=0
9741 On ch=1 n=d#4 v=0
9741 On ch=1 n=c5 v=79
9741 On ch=1 n=d#5 v=79
9761 On ch=1 n=d#5 v=0
9761 On ch=1 n=g#5 v=79
9771 On ch=1 n=c5 v=0
9771 On ch=1 n=d#4 v=79
9781 On ch=1 n=g#5 v=0
9781 On ch=1 n=c6 v=79
9791 Par ch=1 c=64 v=0
9801 On ch=1 n=c6 v=0
9801 On ch=1 n=d#4 v=0
9801 Par ch=1 c=64 v=127
9801 On ch=1 n=g#3 v=72
9801 On ch=1 n=g6 v=114
9821 On ch=1 n=g6 v=0
9821 On ch=1 n=g#5 v=80
9831 On ch=1 n=g#3 v=0
9831 On ch=1 n=d#4 v=80
9841 On ch=1 n=g#5 v=0
9841 On ch=1 n=c6 v=81
9861 On ch=1 n=c6 v=0
9861 On ch=1 n=d#4 v=0
9861 On ch=1 n=a#4 v=81
9861 On ch=1 n=d#5 v=81
9881 On ch=1 n=d#5 v=0
9881 On ch=1 n=g#5 v=81
9891 On ch=1 n=a#4 v=0
9891 On ch=1 n=d#4 v=82
9901 On ch=1 n=g#5 v=0
9901 On ch=1 n=c6 v=82
9921 On ch=1 n=c6 v=0
9921 On ch=1 n=d#4 v=0
9921 On ch=1 n=g#3 v=73
9921 On ch=1 n=g#6 v=116
9941 On ch=1 n=g#6 v=0
9941 On ch=1 n=g#5 v=83
9951 On ch=1 n=g#3 v=0
9951 On ch=1 n=d#4 v=83
9961 On ch=1 n=g#5 v=0
9961 On ch=1 n=c6 v=83
9981 On ch=1 n=c6 v=0
9981 On ch=1 n=d#4 v=0
9981 On ch=1 n=g#4 v=84
9981 On ch=1 n=d#5 v=84
10001 On ch=1 n=d#5 v=0
10001 On ch=1 n=g#5 v=84
10011 On ch=1 n=g#4 v=0
10011 On ch=1 n=d#4 v=84
10021 On ch=1 n=g#5 v=0
10021 On ch=1 n=c6 v=85
10031 Par ch=1 c=64 v=0
10041 On ch=1 n=c6 v=0
10041 On ch=1 n=d#4 v=0
10041 Par ch=1 c=64 v=127
10041 On ch=1 n=d#3 v=76
10041 On ch=1 n=g6 v=120
10061 On ch=1 n=g6 v=0
10061 On ch=1 n=c6 v=85
10071 On ch=1 n=d#3 v=0
10071 On ch=1 n=g4 v=85
10081 On ch=1 n=c6 v=0
10081 On ch=1 n=d#6 v=85
10101 On ch=1 n=d#6 v=0
10101 On ch=1 n=g4 v=0
10101 On ch=1 n=c5 v=84
10101 On ch=1 n=g5 v=84
10121 On ch=1 n=g5 v=0
10121 On ch=1 n=c6 v=84
10131 On ch=1 n=c5 v=0
10131 On ch=1 n=g4 v=84
10141 On ch=1 n=c6 v=0
10141 On ch=1 n=d#6 v=83
10161 On ch=1 n=d#6 v=0
10161 On ch=1 n=g4 v=0
10161 On ch=1 n=d#3 v=74
10161 On ch=1 n=g6 v=117
10181 On ch=1 n=g6 v=0
10181 On ch=1 n=c6 v=82
10191 On ch=1 n=d#3 v=0
10191 On ch=1 n=g4 v=82
10201 On ch=1 n=c6 v=0
10201 On ch=1 n=d#6 v=82
10221 On ch=1 n=d#6 v=0
10221 On ch=1 n=g4 v=0
10221 On ch=1 n=c5 v=82
10221 On ch=1 n=g5 v=82
10241 On ch=1 n=g5 v=0
10241 On ch=1 n=c6 v=81
10251 On ch=1 n=c5 v=0
10251 On ch=1 n=g4 v=81
10261 On ch=1 n=c6 v=0
10261 On ch=1 n=d#6 v=81
10266 Par ch=1 c=64 v=0
10281 On ch=1 n=d#6 v=0
10281 On ch=1 n=g4 v=0
10281 Par ch=1 c=64 v=127
10281 On ch=1 n=f3 v=72
10281 On ch=1 n=g#6 v=114
10301 On ch=1 n=g#6 v=0
10301 On ch=1 n=c6 v=80
10311 On ch=1 n=f3 v=0
10314 On ch=1 n=d4 v=80
10321 On ch=1 n=c6 v=0
10321 On ch=1 n=d6 v=79
10341 On ch=1 n=d6 v=0
10341 On ch=1 n=c5 v=79
10341 On ch=1 n=f5 v=79
10344 On ch=1 n=d4 v=0
10361 On ch=1 n=f5 v=0
10361 On ch=1 n=c6 v=79
10371 On ch=1 n=c5 v=0
10374 On ch=1 n=d4 v=79
10381 On ch=1 n=c6 v=0
10381 On ch=1 n=d6 v=79
10386 Par ch=1 c=64 v=0
10401 On ch=1 n=d6 v=0
10401 Par ch=1 c=64 v=127
10401 On ch=1 n=g3 v=70
10401 On ch=1 n=f6 v=111
10404 On ch=1 n=d4 v=0
10421 On ch=1 n=f6 v=0
10421 On ch=1 n=b5 v=78
10431 On ch=1 n=g3 v=0
10434 On ch=1 n=d4 v=78
10441 On ch=1 n=b5 v=0
10441 On ch=1 n=d6 v=78
10461 On ch=1 n=d6 v=0
10461 On ch=1 n=b4 v=77
10461 On ch=1 n=f5 v=77
10464 On ch=1 n=d4 v=0
10481 On ch=1 n=f5 v=0
10481 On ch=1 n=b4 v=0
10481 On ch=1 n=g4 v=77
10481 On ch=1 n=b5 v=77
10501 On ch=1 n=b5 v=0
10501 On ch=1 n=g4 v=0
10501 On ch=1 n=d4 v=76
10501 On ch=1 n=d6 v=76
10506 Par ch=1 c=64 v=0
10521 On ch=1 n=d6 v=0
10521 On ch=1 n=d4 v=0
10521 Par ch=1 c=64 v=127
10521 On ch=1 n=c4 v=64
10521 On ch=1 n=e6 v=102
10541 On ch=1 n=e6 v=0
10541 On ch=1 n=c4 v=0
10541 On ch=1 n=e4 v=72
10541 On ch=1 n=g5 v=72
10561 On ch=1 n=g5 v=0
10561 On ch=1 n=e4 v=0
10561 On ch=1 n=g4 v=72
10561 On ch=1 n=c6 v=72
10581 On ch=1 n=c6 v=0
10581 On ch=1 n=g4 v=0
10581 On ch=1 n=e5 v=72
10581 On ch=1 n=c5 v=72
10601 On ch=1 n=c5 v=0
10601 On ch=1 n=e5 v=0
10601 On ch=1 n=g4 v=72
10601 On ch=1 n=g5 v=72
10621 On ch=1 n=g5 v=0
10621 On ch=1 n=g4 v=0
10621 On ch=1 n=e4 v=72
10621 On ch=1 n=c6 v=72
10626 Par ch=1 c=64 v=0
10641 On ch=1 n=c6 v=0
10641 On ch=1 n=e4 v=0
10641 Par ch=1 c=64 v=127
10641 On ch=1 n=c4 v=64
10641 On ch=1 n=d6 v=102
10661 On ch=1 n=d6 v=0
10661 On ch=1 n=c4 v=0
10661 On ch=1 n=f4 v=72
10661 On ch=1 n=g#5 v=72
10681 On ch=1 n=g#5 v=0
10681 On ch=1 n=f4 v=0
10681 On ch=1 n=g#4 v=72
10681 On ch=1 n=b5 v=72
10701 On ch=1 n=b5 v=0
10701 On ch=1 n=g#4 v=0
10701 On ch=1 n=b4 v=72
10701 On ch=1 n=d5 v=72
10721 On ch=1 n=d5 v=0
10721 On ch=1 n=b4 v=0
10721 On ch=1 n=g#4 v=72
10721 On ch=1 n=g#5 v=72
10741 On ch=1 n=g#5 v=0
10741 On ch=1 n=g#4 v=0
10741 On ch=1 n=f4 v=72
10741 On ch=1 n=b5 v=72
10746 Par ch=1 c=64 v=0
10761 On ch=1 n=b5 v=0
10761 On ch=1 n=f4 v=0
10761 Par ch=1 c=64 v=127
10761 On ch=1 n=c4 v=64
10761 On ch=1 n=f6 v=102
10781 On ch=1 n=f6 v=0
10781 On ch=1 n=c4 v=0
10781 On ch=1 n=f4 v=72
10781 On ch=1 n=g#5 v=72
10801 On ch=1 n=g#5 v=0
10801 On ch=1 n=f4 v=0
10801 On ch=1 n=g#4 v=72
10801 On ch=1 n=b5 v=72
10821 On ch=1 n=b5 v=0
10821 On ch=1 n=g#4 v=0
10821 On ch=1 n=f5 v=72
10821 On ch=1 n=d5 v=72
10841 On ch=1 n=d5 v=0
10841 On ch=1 n=f5 v=0
10841 On ch=1 n=g#5 v=72
10841 On ch=1 n=g#4 v=72
10861 On ch=1 n=g#4 v=0
10861 On ch=1 n=g#5 v=0
10861 On ch=1 n=b5 v=72
10861 On ch=1 n=f4 v=72
10866 Par ch=1 c=64 v=0
10881 On ch=1 n=f4 v=0
10881 On ch=1 n=b5 v=0
10881 Par ch=1 c=64 v=127
10881 On ch=1 n=e6 v=102
10881 On ch=1 n=c4 v=64
10901 On ch=1 n=c4 v=0
10901 On ch=1 n=e6 v=0
10901 On ch=1 n=g#5 v=72
10901 On ch=1 n=e4 v=72
10921 On ch=1 n=e4 v=0
10921 On ch=1 n=g#5 v=0
10921 On ch=1 n=b5 v=72
10921 On ch=1 n=g#4 v=72
10941 On ch=1 n=g#4 v=0
10941 On ch=1 n=b5 v=0
10941 On ch=1 n=e5 v=72
10941 On ch=1 n=d5 v=72
10961 On ch=1 n=d5 v=0
10961 On ch=1 n=e5 v=0
10961 On ch=1 n=g#5 v=72
10961 On ch=1 n=g#4 v=72
10981 On ch=1 n=g#4 v=0
10981 On ch=1 n=g#5 v=0
10981 On ch=1 n=b5 v=72
10981 On ch=1 n=e4 v=72
10986 Par ch=1 c=64 v=0
11001 On ch=1 n=e4 v=0
11001 On ch=1 n=b5 v=0
11001 Par ch=1 c=64 v=127
11001 On ch=1 n=c4 v=64
11001 On ch=1 n=e6 v=102
11021 On ch=1 n=e6 v=0
11021 On ch=1 n=c4 v=0
11021 On ch=1 n=e4 v=72
11021 On ch=1 n=g#5 v=72
11041 On ch=1 n=g#5 v=0
11041 On ch=1 n=e4 v=0
11041 On ch=1 n=g4 v=73
11041 On ch=1 n=c6 v=73
11061 On ch=1 n=c6 v=0
11061 On ch=1 n=g4 v=0
11061 On ch=1 n=e5 v=73
11061 On ch=1 n=c5 v=73
11081 On ch=1 n=c5 v=0
11081 On ch=1 n=e5 v=0
11081 On ch=1 n=g4 v=73
11081 On ch=1 n=g5 v=73
11101 On ch=1 n=g5 v=0
11101 On ch=1 n=g4 v=0
11101 On ch=1 n=e4 v=74
11101 On ch=1 n=c6 v=74
11106 Par ch=1 c=64 v=0
11121 On ch=1 n=c6 v=0
11121 On ch=1 n=e4 v=0
11121 Par ch=1 c=64 v=127
11121 On ch=1 n=b3 v=66
11121 On ch=1 n=d6 v=105
11141 On ch=1 n=d6 v=0
11141 On ch=1 n=b3 v=0
11141 On ch=1 n=f4 v=75
11141 On ch=1 n=g#5 v=75
11161 On ch=1 n=g#5 v=0
11161 On ch=1 n=f4 v=0
11161 On ch=1 n=g#4 v=76
11161 On ch=1 n=b5 v=76
11181 On ch=1 n=b5 v=0
11181 On ch=1 n=g#4 v=0
11181 On ch=1 n=b4 v=76
11181 On ch=1 n=d5 v=76
11201 On ch=1 n=d5 v=0
11201 On ch=1 n=b4 v=0
11201 On ch=1 n=g#4 v=77
11201 On ch=1 n=g#5 v=77
11221 On ch=1 n=g#5 v=0
11221 On ch=1 n=g#4 v=0
11221 On ch=1 n=f4 v=78
11221 On ch=1 n=b5 v=78
11226 Par ch=1 c=64 v=0
11241 On ch=1 n=b5 v=0
11241 On ch=1 n=f4 v=0
11241 Par ch=1 c=64 v=127
11241 On ch=1 n=b3 v=69
11241 On ch=1 n=f6 v=110
11261 On ch=1 n=f6 v=0
11261 On ch=1 n=b3 v=0
11261 On ch=1 n=f4 v=79
11261 On ch=1 n=g#5 v=79
11281 On ch=1 n=g#5 v=0
11281 On ch=1 n=f4 v=0
11281 On ch=1 n=g#4 v=79
11281 On ch=1 n=b5 v=79
11301 On ch=1 n=b5 v=0
11301 On ch=1 n=g#4 v=0
11301 On ch=1 n=f5 v=79
11301 On ch=1 n=d5 v=79
11321 On ch=1 n=d5 v=0
11321 On ch=1 n=f5 v=0
11321 On ch=1 n=g#5 v=80
11321 On ch=1 n=g#4 v=80
11341 On ch=1 n=g#4 v=0
11341 On ch=1 n=g#5 v=0
11341 On ch=1 n=b5 v=81
11341 On ch=1 n=f4 v=81
11346 Par ch=1 c=64 v=0
11361 On ch=1 n=f4 v=0
11361 On ch=1 n=b5 v=0
11361 Par ch=1 c=64 v=127
11361 On ch=1 n=e6 v=115
11361 On ch=1 n=a#3 v=72
11381 On ch=1 n=a#3 v=0
11381 On ch=1 n=e6 v=0
11381 On ch=1 n=g#5 v=82
11381 On ch=1 n=e4 v=82
11401 On ch=1 n=e4 v=0
11401 On ch=1 n=g#5 v=0
11401 On ch=1 n=b5 v=83
11401 On ch=1 n=g#4 v=83
11421 On ch=1 n=g#4 v=0
11421 On ch=1 n=b5 v=0
11421 On ch=1 n=e5 v=83
11421 On ch=1 n=d5 v=83
11441 On ch=1 n=d5 v=0
11441 On ch=1 n=e5 v=0
11441 On ch=1 n=g#5 v=84
11441 On ch=1 n=g#4 v=84
11461 On ch=1 n=g#4 v=0
11461 On ch=1 n=g#5 v=0
11461 On ch=1 n=b5 v=85
11461 On ch=1 n=e4 v=85
11466 Par ch=1 c=64 v=0
11481 On ch=1 n=e4 v=0
11481 On ch=1 n=b5 v=0
11481 Par ch=1 c=64 v=127
11481 On ch=1 n=a3 v=76
11481 On ch=1 n=e6 v=120
11501 On ch=1 n=e6 v=0
11501 On ch=1 n=a3 v=0
11501 On ch=1 n=e4 v=85
11501 On ch=1 n=a5 v=85
11521 On ch=1 n=a5 v=0
11521 On ch=1 n=e4 v=0
11521 On ch=1 n=a4 v=85
11521 On ch=1 n=c#6 v=85
11541 On ch=1 n=c#6 v=0
11541 On ch=1 n=a4 v=0
11541 On ch=1 n=c#5 v=85
11541 On ch=1 n=e5 v=85
11561 On ch=1 n=e5 v=0
11561 On ch=1 n=c#5 v=0
11561 On ch=1 n=a4 v=85
11561 On ch=1 n=a5 v=85
11581 On ch=1 n=a5 v=0
11581 On ch=1 n=a4 v=0
11581 On ch=1 n=e4 v=85
11581 On ch=1 n=c#6 v=85
11586 Par ch=1 c=64 v=0
11601 On ch=1 n=c#6 v=0
11601 On ch=1 n=e4 v=0
11601 Par ch=1 c=64 v=127
11601 On ch=1 n=d6 v=120
11601 On ch=1 n=a3 v=76
11621 On ch=1 n=a3 v=0
11621 On ch=1 n=d6 v=0
11621 On ch=1 n=a5 v=85
11621 On ch=1 n=f#4 v=85
11641 On ch=1 n=f#4 v=0
11641 On ch=1 n=a5 v=0
11641 On ch=1 n=b5 v=85
11641 On ch=1 n=a4 v=85
11661 On ch=1 n=a4 v=0
11661 On ch=1 n=b5 v=0
11661 On ch=1 n=b4 v=85
11661 On ch=1 n=e5 v=85
11681 On ch=1 n=e5 v=0
11681 On ch=1 n=b4 v=0
11681 On ch=1 n=a4 v=85
11681 On ch=1 n=a5 v=85
11701 On ch=1 n=a5 v=0
11701 On ch=1 n=a4 v=0
11701 On ch=1 n=f#4 v=85
11701 On ch=1 n=b5 v=85
11706 Par ch=1 c=64 v=0
11721 On ch=1 n=b5 v=0
11721 On ch=1 n=f#4 v=0
11721 Par ch=1 c=64 v=127
11721 On ch=1 n=a3 v=76
11721 On ch=1 n=f#6 v=120
11741 On ch=1 n=f#6 v=0
11741 On ch=1 n=a3 v=0
11741 On ch=1 n=f#4 v=85
11741 On ch=1 n=a5 v=85
11761 On ch=1 n=a5 v=0
11761 On ch=1 n=f#4 v=0
11761 On ch=1 n=a4 v=85
11761 On ch=1 n=b5 v=85
11781 On ch=1 n=b5 v=0
11781 On ch=1 n=a4 v=0
11781 On ch=1 n=f#5 v=85
11781 On ch=1 n=d5 v=85
11801 On ch=1 n=d5 v=0
11801 On ch=1 n=f#5 v=0
11801 On ch=1 n=a5 v=85
11801 On ch=1 n=a4 v=85
11821 On ch=1 n=a4 v=0
11821 On ch=1 n=a5 v=0
11821 On ch=1 n=b5 v=85
11821 On ch=1 n=f#4 v=85
11826 Par ch=1 c=64 v=0
11841 On ch=1 n=f#4 v=0
11841 On ch=1 n=b5 v=0
11841 Par ch=1 c=64 v=127
11841 On ch=1 n=a3 v=76
11841 On ch=1 n=e6 v=120
11861 On ch=1 n=e6 v=0
11861 On ch=1 n=a3 v=0
11861 On ch=1 n=e4 v=85
11861 On ch=1 n=g#5 v=85
11881 On ch=1 n=g#5 v=0
11881 On ch=1 n=e4 v=0
11881 On ch=1 n=g#4 v=85
11881 On ch=1 n=d6 v=85
11901 On ch=1 n=d6 v=0
11901 On ch=1 n=g#4 v=0
11901 On ch=1 n=d5 v=85
11901 On ch=1 n=e5 v=85
11921 On ch=1 n=e5 v=0
11921 On ch=1 n=d5 v=0
11921 On ch=1 n=g#4 v=85
11921 On ch=1 n=g#5 v=85
11941 On ch=1 n=g#5 v=0
11941 On ch=1 n=g#4 v=0
11941 On ch=1 n=e4 v=85
11941 On ch=1 n=d6 v=85
11946 Par ch=1 c=64 v=0
11961 On ch=1 n=d6 v=0
11961 On ch=1 n=e4 v=0
11961 Par ch=1 c=64 v=127
11961 On ch=1 n=a3 v=76
11961 On ch=1 n=e6 v=120
11981 On ch=1 n=e6 v=0
11981 On ch=1 n=a3 v=0
11981 On ch=1 n=e4 v=85
11981 On ch=1 n=a5 v=85
12001 On ch=1 n=a5 v=0
12001 On ch=1 n=e4 v=0
12001 On ch=1 n=a4 v=85
12001 On ch=1 n=c#6 v=85
12021 On ch=1 n=c#6 v=0
12021 On ch=1 n=a4 v=0
12021 On ch=1 n=c#5 v=85
12021 On ch=1 n=e5 v=85
12041 On ch=1 n=e5 v=0
12041 On ch=1 n=c#5 v=0
12041 On ch=1 n=a4 v=85
12041 On ch=1 n=a5 v=85
12061 On ch=1 n=a5 v=0
12061 On ch=1 n=a4 v=0
12061 On ch=1 n=e4 v=85
12061 On ch=1 n=c#6 v=85
12066 Par ch=1 c=64 v=0
12081 On ch=1 n=c#6 v=0
12081 On ch=1 n=e4 v=0
12081 On ch=1 n=a6 v=120
12081 Par ch=1 c=64 v=127
12081 On ch=1 n=a3 v=76
12101 On ch=1 n=a3 v=0
12101 On ch=1 n=a6 v=0
12101 On ch=1 n=c#6 v=85
12101 On ch=1 n=e4 v=85
12121 On ch=1 n=e4 v=0
12121 On ch=1 n=c#6 v=0
12121 On ch=1 n=e6 v=85
12121 On ch=1 n=a4 v=85
12141 On ch=1 n=a4 v=0
12141 On ch=1 n=e6 v=0
12141 On ch=1 n=a5 v=85
12141 On ch=1 n=c#5 v=85
12161 On ch=1 n=c#5 v=0
12161 On ch=1 n=a5 v=0
12161 On ch=1 n=c#6 v=85
12161 On ch=1 n=a4 v=85
12181 On ch=1 n=a4 v=0
12181 On ch=1 n=c#6 v=0
12181 On ch=1 n=e6 v=85
12181 On ch=1 n=e4 v=85
12186 Par ch=1 c=64 v=0
12201 On ch=1 n=e4 v=0
12201 On ch=1 n=e6 v=0
12201 On ch=1 n=b6 v=120
12201 Par ch=1 c=64 v=127
12201 On ch=1 n=a3 v=76
12221 On ch=1 n=a3 v=0
12221 On ch=1 n=b6 v=0
12221 On ch=1 n=d#6 v=85
12221 On ch=1 n=d#4 v=85
12241 On ch=1 n=d#4 v=0
12241 On ch=1 n=d#6 v=0
12241 On ch=1 n=f#6 v=85
12241 On ch=1 n=f#4 v=85
12261 On ch=1 n=f#4 v=0
12261 On ch=1 n=f#6 v=0
12261 On ch=1 n=a5 v=85
12261 On ch=1 n=c5 v=85
12281 On ch=1 n=c5 v=0
12281 On ch=1 n=a5 v=0
12281 On ch=1 n=d#6 v=85
12281 On ch=1 n=f#4 v=85
12301 On ch=1 n=f#4 v=0
12301 On ch=1 n=d#6 v=0
12301 On ch=1 n=f#6 v=85
12301 On ch=1 n=d#4 v=85
12306 Par ch=1 c=64 v=0
12321 On ch=1 n=d#4 v=0
12321 On ch=1 n=f#6 v=0
12321 On ch=1 n=c7 v=120
12321 Par ch=1 c=64 v=127
12321 On ch=1 n=a3 v=76
12341 On ch=1 n=a3 v=0
12341 On ch=1 n=c7 v=0
12341 On ch=1 n=d#6 v=85
12341 On ch=1 n=d#4 v=85
12361 On ch=1 n=d#4 v=0
12361 On ch=1 n=d#6 v=0
12361 On ch=1 n=f#6 v=85
12361 On ch=1 n=f#4 v=85
12381 On ch=1 n=f#4 v=0
12381 On ch=1 n=f#6 v=0
12381 On ch=1 n=g#5 v=85
12381 On ch=1 n=c5 v=85
12401 On ch=1 n=c5 v=0
12401 On ch=1 n=g#5 v=0
12401 On ch=1 n=d#6 v=85
12401 On ch=1 n=f#4 v=85
12421 On ch=1 n=f#4 v=0
12421 On ch=1 n=d#6 v=0
12421 On ch=1 n=f#6 v=85
12421 On ch=1 n=d#4 v=85
12426 Par ch=1 c=64 v=0
12441 On ch=1 n=d#4 v=0
12441 On ch=1 n=f#6 v=0
12441 Par ch=1 c=64 v=127
12441 On ch=1 n=c#3 v=83
12441 On ch=1 n=c7 v=127
12461 On ch=1 n=c7 v=0
12461 On ch=1 n=c#3 v=0
12461 On ch=1 n=g#4 v=93
12461 On ch=1 n=c#6 v=93
12481 On ch=1 n=c#6 v=0
12481 On ch=1 n=g#4 v=0
12481 On ch=1 n=a#4 v=93
12481 On ch=1 n=f6 v=93
12501 On ch=1 n=f6 v=0
12501 On ch=1 n=a#4 v=0
12501 On ch=1 n=c#5 v=92
12501 On ch=1 n=f5 v=92
12521 On ch=1 n=f5 v=0
12521 On ch=1 n=c#5 v=0
12521 On ch=1 n=a#4 v=92
12521 On ch=1 n=c#6 v=92
12541 On ch=1 n=c#6 v=0
12541 On ch=1 n=a#4 v=0
12541 On ch=1 n=g#4 v=91
12541 On ch=1 n=f6 v=91
12561 On ch=1 n=f6 v=0
12561 On ch=1 n=g#4 v=0
12561 On ch=1 n=a#6 v=127
12561 On ch=1 n=c#4 v=82
12581 On ch=1 n=c#4 v=0
12581 On ch=1 n=a#6 v=0
12581 On ch=1 n=c#6 v=90
12581 On ch=1 n=g#4 v=90
12601 On ch=1 n=g#4 v=0
12601 On ch=1 n=c#6 v=0
12601 On ch=1 n=f6 v=90
12601 On ch=1 n=a#4 v=90
12621 On ch=1 n=a#4 v=0
12621 On ch=1 n=f6 v=0
12621 On ch=1 n=f5 v=90
12621 On ch=1 n=c#5 v=90
12641 On ch=1 n=c#5 v=0
12641 On ch=1 n=f5 v=0
12641 On ch=1 n=c#6 v=90
12641 On ch=1 n=a#4 v=90
12661 On ch=1 n=a#4 v=0
12661 On ch=1 n=c#6 v=0
12661 On ch=1 n=f6 v=90
12661 On ch=1 n=g#4 v=90
12666 Par ch=1 c=64 v=0
12681 On ch=1 n=g#4 v=0
12681 On ch=1 n=f6 v=0
12681 On ch=1 n=c#7 v=126
12681 Par ch=1 c=64 v=127
12681 On ch=1 n=c#4 v=79
12701 On ch=1 n=c#4 v=0
12701 On ch=1 n=c#7 v=0
12701 On ch=1 n=a#5 v=89
12701 On ch=1 n=g#4 v=89
12721 On ch=1 n=g#4 v=0
12721 On ch=1 n=a#5 v=0
12721 On ch=1 n=c#6 v=88
12721 On ch=1 n=a#4 v=88
12741 On ch=1 n=a#4 v=0
12741 On ch=1 n=c#6 v=0
12741 On ch=1 n=f5 v=88
12741 On ch=1 n=c#5 v=88
12761 On ch=1 n=c#5 v=0
12761 On ch=1 n=f5 v=0
12761 On ch=1 n=a#5 v=88
12761 On ch=1 n=a#4 v=88
12781 On ch=1 n=a#4 v=0
12781 On ch=1 n=a#5 v=0
12781 On ch=1 n=c#6 v=87
12781 On ch=1 n=g#4 v=87
12801 On ch=1 n=g#4 v=0
12801 On ch=1 n=c#6 v=0
12801 On ch=1 n=f6 v=123
12801 On ch=1 n=c#4 v=78
12821 On ch=1 n=c#4 v=0
12821 On ch=1 n=f6 v=0
12821 On ch=1 n=a#5 v=86
12821 On ch=1 n=g#4 v=86
12841 On ch=1 n=g#4 v=0
12841 On ch=1 n=a#5 v=0
12841 On ch=1 n=c#6 v=86
12841 On ch=1 n=a#4 v=86
12861 On ch=1 n=a#4 v=0
12861 On ch=1 n=c#6 v=0
12861 On ch=1 n=f5 v=85
12861 On ch=1 n=c#5 v=85
12881 On ch=1 n=c#5 v=0
12881 On ch=1 n=f5 v=0
12881 On ch=1 n=a#5 v=85
12881 On ch=1 n=a#4 v=85
12901 On ch=1 n=a#4 v=0
12901 On ch=1 n=a#5 v=0
12901 On ch=1 n=c#6 v=85
12901 On ch=1 n=g#4 v=85
12906 Par ch=1 c=64 v=0
12921 On ch=1 n=g#4 v=0
12921 On ch=1 n=c#6 v=0
12921 Par ch=1 c=64 v=127
12921 On ch=1 n=d#3 v=76
12921 On ch=1 n=a#6 v=120
12941 On ch=1 n=a#6 v=0
12941 On ch=1 n=d#3 v=0
12941 On ch=1 n=d#4 v=85
12941 On ch=1 n=c6 v=85
12961 On ch=1 n=c6 v=0
12961 On ch=1 n=d#4 v=0
12961 On ch=1 n=g#4 v=85
12961 On ch=1 n=d#6 v=85
12981 On ch=1 n=d#6 v=0
12981 On ch=1 n=g#4 v=0
12981 On ch=1 n=c5 v=85
12981 On ch=1 n=d#5 v=85
13001 On ch=1 n=d#5 v=0
13001 On ch=1 n=c5 v=0
13001 On ch=1 n=g#4 v=85
13001 On ch=1 n=c6 v=85
13021 On ch=1 n=c6 v=0
13021 On ch=1 n=g#4 v=0
13021 On ch=1 n=d#4 v=85
13021 On ch=1 n=d#6 v=85
13041 On ch=1 n=d#6 v=0
13041 On ch=1 n=d#4 v=0
13041 On ch=1 n=c4 v=76
13041 On ch=1 n=g#6 v=120
13061 On ch=1 n=g#6 v=0
13061 On ch=1 n=c4 v=0
13061 On ch=1 n=d#4 v=85
13061 On ch=1 n=c6 v=85
13081 On ch=1 n=c6 v=0
13081 On ch=1 n=d#4 v=0
13081 On ch=1 n=g#4 v=85
13081 On ch=1 n=d#6 v=85
13101 On ch=1 n=d#6 v=0
13101 On ch=1 n=g#4 v=0
13101 On ch=1 n=c5 v=85
13101 On ch=1 n=d#5 v=85
13121 On ch=1 n=d#5 v=0
13121 On ch=1 n=c5 v=0
13121 On ch=1 n=g#4 v=85
13121 On ch=1 n=c6 v=85
13141 On ch=1 n=c6 v=0
13141 On ch=1 n=g#4 v=0
13141 On ch=1 n=d#4 v=85
13141 On ch=1 n=d#6 v=85
13146 Par ch=1 c=64 v=0
13161 On ch=1 n=d#6 v=0
13161 On ch=1 n=d#4 v=0
13161 Par ch=1 c=64 v=127
13161 On ch=1 n=d#3 v=76
13161 On ch=1 n=c7 v=120
13181 On ch=1 n=c7 v=0
13181 On ch=1 n=d#3 v=0
13181 On ch=1 n=d#4 v=85
13181 On ch=1 n=g#5 v=85
13201 On ch=1 n=g#5 v=0
13201 On ch=1 n=d#4 v=0
13201 On ch=1 n=g#4 v=85
13201 On ch=1 n=c6 v=85
13221 On ch=1 n=c6 v=0
13221 On ch=1 n=g#4 v=0
13221 On ch=1 n=c5 v=85
13221 On ch=1 n=d#5 v=85
13241 On ch=1 n=d#5 v=0
13241 On ch=1 n=c5 v=0
13241 On ch=1 n=g#4 v=85
13241 On ch=1 n=g#5 v=85
13261 On ch=1 n=g#5 v=0
13261 On ch=1 n=g#4 v=0
13261 On ch=1 n=d#4 v=85
13261 On ch=1 n=c6 v=85
13281 On ch=1 n=c6 v=0
13281 On ch=1 n=d#4 v=0
13281 On ch=1 n=c4 v=76
13281 On ch=1 n=d#6 v=120
13301 On ch=1 n=d#6 v=0
13301 On ch=1 n=c4 v=0
13301 On ch=1 n=d#4 v=85
13301 On ch=1 n=g#5 v=85
13321 On ch=1 n=g#5 v=0
13321 On ch=1 n=d#4 v=0
13321 On ch=1 n=g#4 v=85
13321 On ch=1 n=c6 v=85
13341 On ch=1 n=c6 v=0
13341 On ch=1 n=g#4 v=0
13341 On ch=1 n=c5 v=85
13341 On ch=1 n=d#5 v=85
13361 On ch=1 n=d#5 v=0
13361 On ch=1 n=c5 v=0
13361 On ch=1 n=g#4 v=85
13361 On ch=1 n=g#5 v=85
13381 On ch=1 n=g#5 v=0
13381 On ch=1 n=g#4 v=0
13381 On ch=1 n=d#4 v=85
13381 On ch=1 n=c6 v=85
13386 Par ch=1 c=64 v=0
13401 On ch=1 n=c6 v=0
13401 On ch=1 n=d#4 v=0
13401 Par ch=1 c=64 v=127
13401 On ch=1 n=d#3 v=76
13401 On ch=1 n=d#6 v=120
13421 On ch=1 n=d#6 v=0
13421 On ch=1 n=d#3 v=0
13421 On ch=1 n=d#4 v=85
13421 On ch=1 n=g5 v=85
13441 On ch=1 n=g5 v=0
13441 On ch=1 n=d#4 v=0
13441 On ch=1 n=g4 v=85
13441 On ch=1 n=a#5 v=85
13461 On ch=1 n=a#5 v=0
13461 On ch=1 n=g4 v=0
13461 On ch=1 n=d#5 v=84
13461 On ch=1 n=c#5 v=84
13481 On ch=1 n=c#5 v=0
13481 On ch=1 n=d#5 v=0
13481 On ch=1 n=g4 v=84
13481 On ch=1 n=g5 v=84
13501 On ch=1 n=g5 v=0
13501 On ch=1 n=g4 v=0
13501 On ch=1 n=d#4 v=83
13501 On ch=1 n=a#5 v=83
13521 On ch=1 n=a#5 v=0
13521 On ch=1 n=d#4 v=0
13521 On ch=1 n=e6 v=117
13521 On ch=1 n=a#3 v=74
13541 On ch=1 n=a#3 v=0
13541 On ch=1 n=e6 v=0
13541 On ch=1 n=g5 v=83
13541 On ch=1 n=d#4 v=83
13561 On ch=1 n=d#4 v=0
13561 On ch=1 n=g5 v=0
13561 On ch=1 n=a#5 v=82
13561 On ch=1 n=g4 v=82
13581 On ch=1 n=g4 v=0
13581 On ch=1 n=a#5 v=0
13581 On ch=1 n=d#5 v=82
13581 On ch=1 n=c#5 v=82
13601 On ch=1 n=c#5 v=0
13601 On ch=1 n=d#5 v=0
13601 On ch=1 n=g5 v=81
13601 On ch=1 n=g4 v=81
13621 On ch=1 n=g4 v=0
13621 On ch=1 n=g5 v=0
13621 On ch=1 n=a#5 v=81
13621 On ch=1 n=d#4 v=81
13626 Par ch=1 c=64 v=0
13641 On ch=1 n=d#4 v=0
13641 On ch=1 n=a#5 v=0
13641 Par ch=1 c=64 v=127
13641 On ch=1 n=f6 v=114
13641 On ch=1 n=d#3 v=72
13661 On ch=1 n=d#3 v=0
13661 On ch=1 n=f6 v=0
13661 On ch=1 n=g5 v=80
13661 On ch=1 n=d#4 v=80
13681 On ch=1 n=d#4 v=0
13681 On ch=1 n=g5 v=0
13681 On ch=1 n=a#5 v=80
13681 On ch=1 n=g4 v=80
13701 On ch=1 n=g4 v=0
13701 On ch=1 n=a#5 v=0
13701 On ch=1 n=d#5 v=79
13701 On ch=1 n=c#5 v=79
13721 On ch=1 n=c#5 v=0
13721 On ch=1 n=d#5 v=0
13721 On ch=1 n=g5 v=79
13721 On ch=1 n=g4 v=79
13741 On ch=1 n=g4 v=0
13741 On ch=1 n=g5 v=0
13741 On ch=1 n=a#5 v=79
13741 On ch=1 n=d#4 v=79
13761 On ch=1 n=d#4 v=0
13761 On ch=1 n=a#5 v=0
13761 On ch=1 n=d#6 v=111
13761 On ch=1 n=a#3 v=70
13781 On ch=1 n=a#3 v=0
13781 On ch=1 n=d#6 v=0
13781 On ch=1 n=g5 v=79
13781 On ch=1 n=d#4 v=79
13801 On ch=1 n=d#4 v=0
13801 On ch=1 n=g5 v=0
13801 On ch=1 n=a#5 v=78
13801 On ch=1 n=g4 v=78
13821 On ch=1 n=g4 v=0
13821 On ch=1 n=a#5 v=0
13821 On ch=1 n=d#5 v=78
13821 On ch=1 n=c#5 v=78
13841 On ch=1 n=c#5 v=0
13841 On ch=1 n=d#5 v=0
13841 On ch=1 n=g5 v=77
13841 On ch=1 n=g4 v=77
13861 On ch=1 n=g4 v=0
13861 On ch=1 n=g5 v=0
13861 On ch=1 n=a#5 v=77
13861 On ch=1 n=d#4 v=77
13866 Par ch=1 c=64 v=0
13881 On ch=1 n=d#4 v=0
13881 On ch=1 n=a#5 v=0
13881 Par ch=1 c=64 v=127
13881 On ch=1 n=f3 v=68
13881 On ch=1 n=c#6 v=108
13901 On ch=1 n=c#6 v=0
13901 On ch=1 n=f5 v=76
13911 On ch=1 n=f3 v=0
13911 On ch=1 n=f4 v=76
13921 On ch=1 n=f5 v=0
13921 On ch=1 n=g#5 v=76
13941 On ch=1 n=g#5 v=0
13941 On ch=1 n=f4 v=0
13941 On ch=1 n=g#4 v=76
13941 On ch=1 n=c#5 v=76
13961 On ch=1 n=c#5 v=0
13961 On ch=1 n=f5 v=76
13971 On ch=1 n=g#4 v=0
13971 On ch=1 n=f4 v=76
13981 On ch=1 n=f5 v=0
13981 On ch=1 n=g#5 v=76
14001 On ch=1 n=g#5 v=0
14001 On ch=1 n=f4 v=0
14001 On ch=1 n=c4 v=68
14001 On ch=1 n=c6 v=108
14021 On ch=1 n=c6 v=0
14021 On ch=1 n=f5 v=76
14031 On ch=1 n=c4 v=0
14031 On ch=1 n=f4 v=76
14041 On ch=1 n=f5 v=0
14041 On ch=1 n=g#5 v=76
14061 On ch=1 n=g#5 v=0
14061 On ch=1 n=f4 v=0
14061 On ch=1 n=g#4 v=76
14061 On ch=1 n=c5 v=76
14081 On ch=1 n=c5 v=0
14081 On ch=1 n=g#4 v=0
14081 On ch=1 n=f4 v=76
14081 On ch=1 n=f5 v=76
14101 On ch=1 n=f5 v=0
14101 On ch=1 n=f4 v=0
14101 On ch=1 n=c4 v=76
14101 On ch=1 n=g#5 v=76
14106 Par ch=1 c=64 v=0
14121 On ch=1 n=g#5 v=0
14121 On ch=1 n=c4 v=0
14121 Par ch=1 c=64 v=127
14121 On ch=1 n=f3 v=68
14121 On ch=1 n=c6 v=108
14141 On ch=1 n=c6 v=0
14141 On ch=1 n=d#5 v=76
14151 On ch=1 n=f3 v=0
14151 On ch=1 n=f4 v=77
14161 On ch=1 n=d#5 v=0
14161 On ch=1 n=f5 v=77
14181 On ch=1 n=f5 v=0
14181 On ch=1 n=f4 v=0
14181 On ch=1 n=a4 v=78
14181 On ch=1 n=c5 v=78
14201 On ch=1 n=c5 v=0
14201 On ch=1 n=d#5 v=79
14211 On ch=1 n=a4 v=0
14211 On ch=1 n=f4 v=79
14221 On ch=1 n=d#5 v=0
14221 On ch=1 n=f5 v=79
14241 On ch=1 n=f5 v=0
14241 On ch=1 n=f4 v=0
14241 On ch=1 n=c4 v=72
14241 On ch=1 n=c7 v=114
14261 On ch=1 n=c7 v=0
14261 On ch=1 n=d#6 v=81
14271 On ch=1 n=c4 v=0
14271 On ch=1 n=f4 v=81
14281 On ch=1 n=d#6 v=0
14281 On ch=1 n=f6 v=82
14301 On ch=1 n=f6 v=0
14301 On ch=1 n=f4 v=0
14301 On ch=1 n=a4 v=83
14301 On ch=1 n=c6 v=83
14321 On ch=1 n=c6 v=0
14321 On ch=1 n=a4 v=0
14321 On ch=1 n=f4 v=84
14321 On ch=1 n=d#6 v=84
14341 On ch=1 n=d#6 v=0
14341 On ch=1 n=f4 v=0
14341 On ch=1 n=c4 v=85
14341 On ch=1 n=f6 v=85
14346 Par ch=1 c=64 v=0
14361 On ch=1 n=f6 v=0
14361 On ch=1 n=c4 v=0
14361 Par ch=1 c=64 v=127
14361 On ch=1 n=a#2 v=83
14361 On ch=1 n=c7 v=127
14381 On ch=1 n=c7 v=0
14381 On ch=1 n=a#2 v=0
14381 On ch=1 n=f4 v=93
14381 On ch=1 n=c#6 v=93
14401 On ch=1 n=c#6 v=0
14401 On ch=1 n=f4 v=0
14401 On ch=1 n=a#4 v=93
14401 On ch=1 n=f6 v=93
14421 On ch=1 n=f6 v=0
14421 On ch=1 n=a#4 v=0
14421 On ch=1 n=c#5 v=92
14421 On ch=1 n=f5 v=92
14441 On ch=1 n=f5 v=0
14441 On ch=1 n=c#5 v=0
14441 On ch=1 n=a#4 v=92
14441 On ch=1 n=c#6 v=92
14461 On ch=1 n=c#6 v=0
14461 On ch=1 n=a#4 v=0
14461 On ch=1 n=f4 v=91
14461 On ch=1 n=f6 v=91
14481 On ch=1 n=f6 v=0
14481 On ch=1 n=f4 v=0
14481 On ch=1 n=a#6 v=127
14481 On ch=1 n=a#3 v=82
14501 On ch=1 n=a#3 v=0
14501 On ch=1 n=a#6 v=0
14501 On ch=1 n=c#6 v=90
14501 On ch=1 n=f4 v=90
14521 On ch=1 n=f4 v=0
14521 On ch=1 n=c#6 v=0
14521 On ch=1 n=f6 v=90
14521 On ch=1 n=a#4 v=90
14541 On ch=1 n=a#4 v=0
14541 On ch=1 n=f6 v=0
14541 On ch=1 n=f5 v=90
14541 On ch=1 n=c#5 v=90
14561 On ch=1 n=c#5 v=0
14561 On ch=1 n=f5 v=0
14561 On ch=1 n=c#6 v=90
14561 On ch=1 n=a#4 v=90
14581 On ch=1 n=a#4 v=0
14581 On ch=1 n=c#6 v=0
14581 On ch=1 n=f6 v=90
14581 On ch=1 n=f4 v=90
14586 Par ch=1 c=64 v=0
14601 On ch=1 n=f4 v=0
14601 On ch=1 n=f6 v=0
14601 On ch=1 n=c#7 v=126
14601 Par ch=1 c=64 v=127
14601 On ch=1 n=c#4 v=79
14621 On ch=1 n=c#4 v=0
14621 On ch=1 n=c#7 v=0
14621 On ch=1 n=a#5 v=89
14621 On ch=1 n=e4 v=89
14641 On ch=1 n=e4 v=0
14641 On ch=1 n=a#5 v=0
14641 On ch=1 n=c#6 v=88
14641 On ch=1 n=g#4 v=88
14661 On ch=1 n=g#4 v=0
14661 On ch=1 n=c#6 v=0
14661 On ch=1 n=e5 v=88
14661 On ch=1 n=c#5 v=88
14681 On ch=1 n=c#5 v=0
14681 On ch=1 n=e5 v=0
14681 On ch=1 n=a#5 v=88
14681 On ch=1 n=g#4 v=88
14701 On ch=1 n=g#4 v=0
14701 On ch=1 n=a#5 v=0
14701 On ch=1 n=c#6 v=87
14701 On ch=1 n=e4 v=87
14721 On ch=1 n=e4 v=0
14721 On ch=1 n=c#6 v=0
14721 On ch=1 n=e6 v=123
14721 On ch=1 n=c#4 v=78
14741 On ch=1 n=c#4 v=0
14741 On ch=1 n=e6 v=0
14741 On ch=1 n=a#5 v=86
14741 On ch=1 n=e4 v=86
14761 On ch=1 n=e4 v=0
14761 On ch=1 n=a#5 v=0
14761 On ch=1 n=c#6 v=86
14761 On ch=1 n=g#4 v=86
14781 On ch=1 n=g#4 v=0
14781 On ch=1 n=c#6 v=0
14781 On ch=1 n=e5 v=85
14781 On ch=1 n=c#5 v=85
14801 On ch=1 n=c#5 v=0
14801 On ch=1 n=e5 v=0
14801 On ch=1 n=a#5 v=85
14801 On ch=1 n=g#4 v=85
14821 On ch=1 n=g#4 v=0
14821 On ch=1 n=a#5 v=0
14821 On ch=1 n=c#6 v=85
14821 On ch=1 n=e4 v=85
14826 Par ch=1 c=64 v=0
14841 On ch=1 n=e4 v=0
14841 On ch=1 n=c#6 v=0
14841 Par ch=1 c=64 v=127
14841 On ch=1 n=d#3 v=76
14841 On ch=1 n=a#6 v=120
14861 On ch=1 n=a#6 v=0
14861 On ch=1 n=d#3 v=0
14861 On ch=1 n=d#4 v=85
14861 On ch=1 n=c6 v=85
14881 On ch=1 n=c6 v=0
14881 On ch=1 n=d#4 v=0
14881 On ch=1 n=g#4 v=85
14881 On ch=1 n=d#6 v=85
14901 On ch=1 n=d#6 v=0
14901 On ch=1 n=g#4 v=0
14901 On ch=1 n=c5 v=84
14901 On ch=1 n=d#5 v=84
14921 On ch=1 n=d#5 v=0
14921 On ch=1 n=c5 v=0
14921 On ch=1 n=g#4 v=84
14921 On ch=1 n=c6 v=84
14941 On ch=1 n=c6 v=0
14941 On ch=1 n=g#4 v=0
14941 On ch=1 n=d#4 v=83
14941 On ch=1 n=d#6 v=83
14961 On ch=1 n=d#6 v=0
14961 On ch=1 n=d#4 v=0
14961 On ch=1 n=c4 v=74
14961 On ch=1 n=g#6 v=117
14981 On ch=1 n=g#6 v=0
14981 On ch=1 n=c4 v=0
14981 On ch=1 n=d#4 v=82
14981 On ch=1 n=c6 v=82
15001 On ch=1 n=c6 v=0
15001 On ch=1 n=d#4 v=0
15001 On ch=1 n=g#4 v=82
15001 On ch=1 n=d#6 v=82
15021 On ch=1 n=d#6 v=0
15021 On ch=1 n=g#4 v=0
15021 On ch=1 n=c5 v=82
15021 On ch=1 n=d#5 v=82
15041 On ch=1 n=d#5 v=0
15041 On ch=1 n=c5 v=0
15041 On ch=1 n=g#4 v=81
15041 On ch=1 n=c6 v=81
15061 On ch=1 n=c6 v=0
15061 On ch=1 n=g#4 v=0
15061 On ch=1 n=d#4 v=81
15061 On ch=1 n=d#6 v=81
15066 Par ch=1 c=64 v=0
15081 On ch=1 n=d#6 v=0
15081 On ch=1 n=d#4 v=0
15081 Par ch=1 c=64 v=127
15081 On ch=1 n=d#3 v=72
15081 On ch=1 n=c7 v=114
15101 On ch=1 n=c7 v=0
15101 On ch=1 n=d#3 v=0
15101 On ch=1 n=d#4 v=80
15101 On ch=1 n=g#5 v=80
15121 On ch=1 n=g#5 v=0
15121 On ch=1 n=d#4 v=0
15121 On ch=1 n=g#4 v=79
15121 On ch=1 n=c6 v=79
15141 On ch=1 n=c6 v=0
15141 On ch=1 n=g#4 v=0
15141 On ch=1 n=c5 v=79
15141 On ch=1 n=d#5 v=79
15161 On ch=1 n=d#5 v=0
15161 On ch=1 n=c5 v=0
15161 On ch=1 n=g#4 v=79
15161 On ch=1 n=g#5 v=79
15181 On ch=1 n=g#5 v=0
15181 On ch=1 n=g#4 v=0
15181 On ch=1 n=d#4 v=79
15181 On ch=1 n=c6 v=79
15201 On ch=1 n=c6 v=0
15201 On ch=1 n=d#4 v=0
15201 On ch=1 n=c4 v=70
15201 On ch=1 n=d#6 v=111
15221 On ch=1 n=d#6 v=0
15221 On ch=1 n=c4 v=0
15221 On ch=1 n=d#4 v=78
15221 On ch=1 n=g#5 v=78
15241 On ch=1 n=g#5 v=0
15241 On ch=1 n=d#4 v=0
15241 On ch=1 n=g#4 v=78
15241 On ch=1 n=c6 v=78
15261 On ch=1 n=c6 v=0
15261 On ch=1 n=g#4 v=0
15261 On ch=1 n=c5 v=77
15261 On ch=1 n=d#5 v=77
15281 On ch=1 n=d#5 v=0
15281 On ch=1 n=c5 v=0
15281 On ch=1 n=g#4 v=77
15281 On ch=1 n=g#5 v=77
15301 On ch=1 n=g#5 v=0
15301 On ch=1 n=g#4 v=0
15301 On ch=1 n=d#4 v=76
15301 On ch=1 n=c6 v=76
15306 Par ch=1 c=64 v=0
15321 On ch=1 n=c6 v=0
15321 On ch=1 n=d#4 v=0
15321 Par ch=1 c=64 v=127
15321 On ch=1 n=d#3 v=68
15321 On ch=1 n=d#6 v=108
15341 On ch=1 n=d#6 v=0
15341 On ch=1 n=a5 v=76
15351 On ch=1 n=d#3 v=0
15351 On ch=1 n=a4 v=76
15361 On ch=1 n=a5 v=0
15361 On ch=1 n=c6 v=76
15381 On ch=1 n=c6 v=0
15381 On ch=1 n=a4 v=0
15381 On ch=1 n=c5 v=76
15381 On ch=1 n=d#5 v=76
15401 On ch=1 n=d#5 v=0
15401 On ch=1 n=a5 v=76
15411 On ch=1 n=c5 v=0
15411 On ch=1 n=a4 v=76
15421 On ch=1 n=a5 v=0
15421 On ch=1 n=c6 v=76
15441 On ch=1 n=c6 v=0
15441 On ch=1 n=a4 v=0
15441 On ch=1 n=d#4 v=68
15441 On ch=1 n=f6 v=108
15461 On ch=1 n=f6 v=0
15461 On ch=1 n=a5 v=76
15471 On ch=1 n=d#4 v=0
15471 On ch=1 n=a4 v=76
15481 On ch=1 n=a5 v=0
15481 On ch=1 n=c6 v=76
15501 On ch=1 n=c6 v=0
15501 On ch=1 n=a4 v=0
15501 On ch=1 n=c5 v=76
15501 On ch=1 n=d#5 v=76
15521 On ch=1 n=d#5 v=0
15521 On ch=1 n=c5 v=0
15521 On ch=1 n=a4 v=76
15521 On ch=1 n=a5 v=76
15541 On ch=1 n=a5 v=0
15541 On ch=1 n=a4 v=0
15541 On ch=1 n=d#4 v=76
15541 On ch=1 n=c6 v=76
15546 Par ch=1 c=64 v=0
15561 On ch=1 n=c6 v=0
15561 On ch=1 n=d#4 v=0
15561 On ch=1 n=f#6 v=108
15561 Par ch=1 c=64 v=127
15561 On ch=1 n=d#3 v=68
15581 On ch=1 n=f#6 v=0
15581 On ch=1 n=a5 v=76
15591 On ch=1 n=d#3 v=0
15591 On ch=1 n=a4 v=76
15601 On ch=1 n=a5 v=0
15601 On ch=1 n=c6 v=76
15621 On ch=1 n=c6 v=0
15621 On ch=1 n=a4 v=0
15621 On ch=1 n=d#5 v=76
15621 On ch=1 n=c5 v=76
15641 On ch=1 n=d#5 v=0
15641 On ch=1 n=a5 v=76
15651 On ch=1 n=c5 v=0
15651 On ch=1 n=a4 v=76
15661 On ch=1 n=a5 v=0
15661 On ch=1 n=c6 v=76
15681 On ch=1 n=c6 v=0
15681 On ch=1 n=a4 v=0
15681 On ch=1 n=f6 v=108
15681 On ch=1 n=d#4 v=68
15701 On ch=1 n=f6 v=0
15701 On ch=1 n=a5 v=76
15711 On ch=1 n=d#4 v=0
15711 On ch=1 n=a4 v=76
15721 On ch=1 n=a5 v=0
15721 On ch=1 n=c6 v=76
15741 On ch=1 n=c6 v=0
15741 On ch=1 n=a4 v=0
15741 On ch=1 n=d#5 v=76
15741 On ch=1 n=f5 v=76
15761 On ch=1 n=f5 v=0
15761 On ch=1 n=d#5 v=0
15761 On ch=1 n=a5 v=76
15761 On ch=1 n=a4 v=76
15781 On ch=1 n=a4 v=0
15781 On ch=1 n=a5 v=0
15781 On ch=1 n=c6 v=76
15781 On ch=1 n=d#4 v=76
15786 Par ch=1 c=64 v=0
15801 On ch=1 n=d#4 v=0
15801 On ch=1 n=c6 v=0
15801 Par ch=1 c=64 v=127
15801 On ch=1 n=f6 v=120
15801 On ch=1 n=d#3 v=76
15821 On ch=1 n=f6 v=0
15821 On ch=1 n=a#5 v=85
15831 On ch=1 n=d#3 v=0
15831 On ch=1 n=a#4 v=85
15841 On ch=1 n=a#5 v=0
15841 On ch=1 n=c#6 v=85
15861 On ch=1 n=c#6 v=0
15861 On ch=1 n=a#4 v=0
15861 On ch=1 n=c#5 v=85
15861 On ch=1 n=f5 v=85
15881 On ch=1 n=c#5 v=0
15881 On ch=1 n=a#5 v=85
15891 On ch=1 n=f5 v=0
15891 On ch=1 n=a#4 v=85
15901 On ch=1 n=a#5 v=0
15901 On ch=1 n=c#6 v=85
15921 On ch=1 n=c#6 v=0
15921 On ch=1 n=a#4 v=0
15921 On ch=1 n=g6 v=120
15921 On ch=1 n=d#4 v=76
15941 On ch=1 n=g6 v=0
15941 On ch=1 n=a#5 v=85
15951 On ch=1 n=d#4 v=0
15951 On ch=1 n=a#4 v=85
15961 On ch=1 n=a#5 v=0
15961 On ch=1 n=c#6 v=85
15981 On ch=1 n=c#6 v=0
15981 On ch=1 n=a#4 v=0
15981 On ch=1 n=f5 v=85
15981 On ch=1 n=c#5 v=85
16001 On ch=1 n=c#5 v=0
16001 On ch=1 n=f5 v=0
16001 On ch=1 n=a#5 v=85
16001 On ch=1 n=a#4 v=85
16021 On ch=1 n=a#4 v=0
16021 On ch=1 n=a#5 v=0
16021 On ch=1 n=c#6 v=85
16026 Par ch=1 c=64 v=0
16026 On ch=1 n=d#4 v=85
16041 On ch=1 n=c#6 v=0
16041 Par ch=1 c=64 v=127
16041 On ch=1 n=g#6 v=120
16041 On ch=1 n=d#3 v=76
16046 On ch=1 n=d#4 v=0
16061 On ch=1 n=g#6 v=0
16061 On ch=1 n=b5 v=85
16071 On ch=1 n=d#3 v=0
16071 On ch=1 n=b4 v=85
16081 On ch=1 n=b5 v=0
16081 On ch=1 n=d6 v=85
16101 On ch=1 n=d6 v=0
16101 On ch=1 n=b4 v=0
16101 On ch=1 n=f5 v=85
16101 On ch=1 n=d5 v=85
16121 On ch=1 n=f5 v=0
16121 On ch=1 n=b5 v=85
16131 On ch=1 n=d5 v=0
16131 On ch=1 n=b4 v=85
16141 On ch=1 n=b5 v=0
16141 On ch=1 n=d6 v=85
16161 On ch=1 n=d6 v=0
16161 On ch=1 n=b4 v=0
16161 On ch=1 n=g6 v=120
16161 On ch=1 n=d#4 v=76
16181 On ch=1 n=g6 v=0
16181 On ch=1 n=b5 v=85
16191 On ch=1 n=d#4 v=0
16191 On ch=1 n=b4 v=85
16201 On ch=1 n=b5 v=0
16201 On ch=1 n=d6 v=85
16221 On ch=1 n=d6 v=0
16221 On ch=1 n=b4 v=0
16221 On ch=1 n=f5 v=85
16221 On ch=1 n=g5 v=85
16241 On ch=1 n=g5 v=0
16241 On ch=1 n=f5 v=0
16241 On ch=1 n=b5 v=85
16241 On ch=1 n=b4 v=85
16261 On ch=1 n=b4 v=0
16261 On ch=1 n=b5 v=0
16261 On ch=1 n=d6 v=85
16266 Par ch=1 c=64 v=0
16266 On ch=1 n=d#4 v=85
16281 On ch=1 n=d6 v=0
16281 Par ch=1 c=64 v=127
16281 On ch=1 n=d#3 v=76
16281 On ch=1 n=g6 v=120
16286 On ch=1 n=d#4 v=0
16301 On ch=1 n=g6 v=0
16301 On ch=1 n=c6 v=85
16311 On ch=1 n=d#3 v=0
16311 On ch=1 n=c5 v=85
16321 On ch=1 n=c6 v=0
16321 On ch=1 n=d#6 v=85
16341 On ch=1 n=d#6 v=0
16341 On ch=1 n=c5 v=0
16341 On ch=1 n=g5 v=85
16341 On ch=1 n=d#5 v=76
16361 On ch=1 n=d#5 v=0
16361 On ch=1 n=c6 v=85
16371 On ch=1 n=g5 v=0
16371 On ch=1 n=c5 v=85
16381 On ch=1 n=c6 v=0
16381 On ch=1 n=d#6 v=86
16401 On ch=1 n=d#6 v=0
16401 On ch=1 n=c5 v=0
16401 On ch=1 n=d#4 v=86
16401 On ch=1 n=g#6 v=122
16421 On ch=1 n=g#6 v=0
16421 On ch=1 n=c6 v=87
16431 On ch=1 n=d#4 v=0
16431 On ch=1 n=c5 v=87
16441 On ch=1 n=c6 v=0
16441 On ch=1 n=d#6 v=87
16461 On ch=1 n=d#6 v=0
16461 On ch=1 n=c5 v=0
16461 On ch=1 n=d#5 v=78
16461 On ch=1 n=g#5 v=87
16481 On ch=1 n=g#5 v=0
16481 On ch=1 n=c6 v=88
16491 On ch=1 n=d#5 v=0
16491 On ch=1 n=c5 v=88
16501 On ch=1 n=c6 v=0
16501 On ch=1 n=d#6 v=88
16506 Par ch=1 c=64 v=0
16521 On ch=1 n=d#6 v=0
16521 On ch=1 n=c5 v=0
16521 Par ch=1 c=64 v=127
16521 On ch=1 n=d#3 v=79
16521 On ch=1 n=a6 v=126
16541 On ch=1 n=a6 v=0
16541 On ch=1 n=c6 v=89
16551 On ch=1 n=d#3 v=0
16551 On ch=1 n=c5 v=89
16561 On ch=1 n=c6 v=0
16561 On ch=1 n=d#6 v=90
16581 On ch=1 n=d#6 v=0
16581 On ch=1 n=c5 v=0
16581 On ch=1 n=f#5 v=80
16581 On ch=1 n=a5 v=90
16601 On ch=1 n=a5 v=0
16601 On ch=1 n=c6 v=90
16611 On ch=1 n=f#5 v=0
16611 On ch=1 n=c5 v=90
16621 On ch=1 n=c6 v=0
16621 On ch=1 n=d#6 v=90
16641 On ch=1 n=d#6 v=0
16641 On ch=1 n=c5 v=0
16641 On ch=1 n=c4 v=81
16641 On ch=1 n=f#7 v=127
16661 On ch=1 n=f#7 v=0
16661 On ch=1 n=c4 v=0
16661 On ch=1 n=c5 v=91
16661 On ch=1 n=a6 v=91
16681 On ch=1 n=a6 v=0
16681 On ch=1 n=c5 v=0
16681 On ch=1 n=d#5 v=91
16681 On ch=1 n=c7 v=91
16701 On ch=1 n=c7 v=0
16701 On ch=1 n=d#5 v=0
16701 On ch=1 n=a5 v=92
16701 On ch=1 n=d#6 v=92
16721 On ch=1 n=d#6 v=0
16721 On ch=1 n=a5 v=0
16721 On ch=1 n=d#5 v=92
16721 On ch=1 n=a6 v=92
16741 On ch=1 n=a6 v=0
16741 On ch=1 n=d#5 v=0
16741 On ch=1 n=c5 v=93
16741 On ch=1 n=c7 v=93
16746 Par ch=1 c=64 v=0
16761 On ch=1 n=c7 v=0
16761 On ch=1 n=c5 v=0
16761 Par ch=1 c=64 v=127
16761 On ch=1 n=d#4 v=83
16761 On ch=1 n=f7 v=127
16781 On ch=1 n=f7 v=0
16781 On ch=1 n=d#4 v=0
16781 On ch=1 n=a#4 v=93
16781 On ch=1 n=f6 v=93
16801 On ch=1 n=f6 v=0
16801 On ch=1 n=a#4 v=0
16801 On ch=1 n=d5 v=93
16801 On ch=1 n=g#6 v=93
16821 On ch=1 n=g#6 v=0
16821 On ch=1 n=d5 v=0
16821 On ch=1 n=g#5 v=92
16821 On ch=1 n=a#5 v=92
16841 On ch=1 n=a#5 v=0
16841 On ch=1 n=g#5 v=0
16841 On ch=1 n=d5 v=92
16841 On ch=1 n=f6 v=92
16861 On ch=1 n=f6 v=0
16861 On ch=1 n=d5 v=0
16861 On ch=1 n=a#4 v=91
16861 On ch=1 n=g#6 v=91
16881 On ch=1 n=g#6 v=0
16881 On ch=1 n=a#4 v=0
16881 On ch=1 n=a#6 v=127
16881 On ch=1 n=d#4 v=82
16901 On ch=1 n=d#4 v=0
16901 On ch=1 n=a#6 v=0
16901 On ch=1 n=f6 v=90
16901 On ch=1 n=a#4 v=90
16921 On ch=1 n=a#4 v=0
16921 On ch=1 n=f6 v=0
16921 On ch=1 n=g#6 v=90
16921 On ch=1 n=d5 v=90
16941 On ch=1 n=d5 v=0
16941 On ch=1 n=g#6 v=0
16941 On ch=1 n=a#5 v=90
16941 On ch=1 n=g#5 v=90
16961 On ch=1 n=g#5 v=0
16961 On ch=1 n=a#5 v=0
16961 On ch=1 n=f6 v=90
16961 On ch=1 n=d5 v=90
16981 On ch=1 n=d5 v=0
16981 On ch=1 n=f6 v=0
16981 On ch=1 n=g#6 v=90
16981 On ch=1 n=a#4 v=90
16986 Par ch=1 c=64 v=0
17001 On ch=1 n=a#4 v=0
17001 On ch=1 n=g#6 v=0
17001 On ch=1 n=c#7 v=126
17001 Par ch=1 c=64 v=127
17001 On ch=1 n=d#4 v=79
17021 On ch=1 n=d#4 v=0
17021 On ch=1 n=c#7 v=0
17021 On ch=1 n=e6 v=89
17021 On ch=1 n=a#4 v=89
17041 On ch=1 n=a#4 v=0
17041 On ch=1 n=e6 v=0
17041 On ch=1 n=g#6 v=88
17041 On ch=1 n=c#5 v=88
17061 On ch=1 n=c#5 v=0
17061 On ch=1 n=g#6 v=0
17061 On ch=1 n=a#5 v=88
17061 On ch=1 n=g#5 v=88
17081 On ch=1 n=g#5 v=0
17081 On ch=1 n=a#5 v=0
17081 On ch=1 n=e6 v=88
17081 On ch=1 n=c#5 v=88
17101 On ch=1 n=c#5 v=0
17101 On ch=1 n=e6 v=0
17101 On ch=1 n=g#6 v=87
17101 On ch=1 n=a#4 v=87
17121 On ch=1 n=a#4 v=0
17121 On ch=1 n=g#6 v=0
17121 On ch=1 n=g6 v=123
17121 On ch=1 n=d#4 v=78
17141 On ch=1 n=d#4 v=0
17141 On ch=1 n=g6 v=0
17141 On ch=1 n=c#6 v=86
17141 On ch=1 n=a#4 v=86
17161 On ch=1 n=a#4 v=0
17161 On ch=1 n=c#6 v=0
17161 On ch=1 n=d#6 v=86
17161 On ch=1 n=c#5 v=86
17181 On ch=1 n=c#5 v=0
17181 On ch=1 n=d#6 v=0
17181 On ch=1 n=g5 v=85
17181 On ch=1 n=d#5 v=85
17201 On ch=1 n=d#5 v=0
17201 On ch=1 n=g5 v=0
17201 On ch=1 n=c#6 v=85
17201 On ch=1 n=c#5 v=85
17221 On ch=1 n=c#5 v=0
17221 On ch=1 n=c#6 v=0
17221 On ch=1 n=d#6 v=85
17221 On ch=1 n=a#4 v=85
17226 Par ch=1 c=64 v=0
17241 On ch=1 n=a#4 v=0
17241 On ch=1 n=d#6 v=0
17241 Par ch=1 c=64 v=127
17241 On ch=1 n=g#3 v=76
17241 On ch=1 n=g#6 v=120
17261 On ch=1 n=g#6 v=0
17261 On ch=1 n=g#3 v=0
17261 On ch=1 n=d#4 v=85
17261 On ch=1 n=g#5 v=85
17281 On ch=1 n=g#5 v=0
17281 On ch=1 n=d#4 v=0
17281 On ch=1 n=g#4 v=85
17281 On ch=1 n=c6 v=85
17301 On ch=1 n=c6 v=0
17301 On ch=1 n=g#4 v=0
17301 On ch=1 n=c5 v=85
17301 On ch=1 n=d#5 v=85
17321 On ch=1 n=d#5 v=0
17321 On ch=1 n=c5 v=0
17321 On ch=1 n=g#4 v=85
17321 On ch=1 n=g#5 v=85
17341 On ch=1 n=g#5 v=0
17341 On ch=1 n=g#4 v=0
17341 On ch=1 n=d#4 v=84
17341 On ch=1 n=c6 v=84
17361 On ch=1 n=c6 v=0
17361 On ch=1 n=d#4 v=0
17361 On ch=1 n=d#6 v=118
17361 On ch=1 n=g#3 v=75
17381 On ch=1 n=g#3 v=0
17381 On ch=1 n=d#6 v=0
17381 On ch=1 n=g#5 v=84
17381 On ch=1 n=d#4 v=84
17401 On ch=1 n=d#4 v=0
17401 On ch=1 n=g#5 v=0
17401 On ch=1 n=c6 v=84
17401 On ch=1 n=g#4 v=84
17421 On ch=1 n=g#4 v=0
17421 On ch=1 n=c6 v=0
17421 On ch=1 n=d#5 v=84
17421 On ch=1 n=c5 v=84
17441 On ch=1 n=c5 v=0
17441 On ch=1 n=d#5 v=0
17441 On ch=1 n=g#5 v=83
17441 On ch=1 n=g#4 v=83
17461 On ch=1 n=g#4 v=0
17461 On ch=1 n=g#5 v=0
17461 On ch=1 n=c6 v=83
17461 On ch=1 n=d#4 v=83
17481 On ch=1 n=d#4 v=0
17481 On ch=1 n=c6 v=0
17481 On ch=1 n=d#6 v=117
17481 On ch=1 n=g#3 v=74
17501 On ch=1 n=g#3 v=0
17501 On ch=1 n=d#6 v=0
17501 On ch=1 n=g#5 v=83
17501 On ch=1 n=d#4 v=83
17521 On ch=1 n=d#4 v=0
17521 On ch=1 n=g#5 v=0
17521 On ch=1 n=c6 v=82
17521 On ch=1 n=g#4 v=82
17541 On ch=1 n=g#4 v=0
17541 On ch=1 n=c6 v=0
17541 On ch=1 n=d#5 v=82
17541 On ch=1 n=c5 v=82
17561 On ch=1 n=c5 v=0
17561 On ch=1 n=d#5 v=0
17561 On ch=1 n=g#5 v=82
17561 On ch=1 n=g#4 v=82
17581 On ch=1 n=g#4 v=0
17581 On ch=1 n=g#5 v=0
17581 On ch=1 n=c6 v=82
17581 On ch=1 n=d#4 v=82
17601 On ch=1 n=d#4 v=0
17601 On ch=1 n=c6 v=0
17601 On ch=1 n=d#6 v=116
17601 On ch=1 n=g#3 v=73
17621 On ch=1 n=g#3 v=0
17621 On ch=1 n=d#6 v=0
17621 On ch=1 n=g#5 v=81
17621 On ch=1 n=d#4 v=81
17641 On ch=1 n=d#4 v=0
17641 On ch=1 n=g#5 v=0
17641 On ch=1 n=c6 v=81
17641 On ch=1 n=g#4 v=81
17661 On ch=1 n=g#4 v=0
17661 On ch=1 n=c6 v=0
17661 On ch=1 n=d#5 v=81
17661 On ch=1 n=c5 v=81
17681 On ch=1 n=c5 v=0
17681 On ch=1 n=d#5 v=0
17681 On ch=1 n=g#5 v=81
17681 On ch=1 n=g#4 v=81
17701 On ch=1 n=g#4 v=0
17701 On ch=1 n=g#5 v=0
17701 On ch=1 n=c6 v=80
17701 On ch=1 n=d#4 v=80
17706 Par ch=1 c=64 v=0
17721 On ch=1 n=d#4 v=0
17721 On ch=1 n=c6 v=0
17721 Par ch=1 c=64 v=127
17721 On ch=1 n=g#3 v=72
17721 On ch=1 n=f6 v=114
17741 On ch=1 n=f6 v=0
17741 On ch=1 n=g#3 v=0
17741 On ch=1 n=d#4 v=80
17741 On ch=1 n=a#5 v=80
17761 On ch=1 n=a#5 v=0
17761 On ch=1 n=d#4 v=0
17761 On ch=1 n=a#4 v=80
17761 On ch=1 n=c#6 v=80
17781 On ch=1 n=c#6 v=0
17781 On ch=1 n=a#4 v=0
17781 On ch=1 n=c#5 v=80
17781 On ch=1 n=f5 v=80
17801 On ch=1 n=f5 v=0
17801 On ch=1 n=c#5 v=0
17801 On ch=1 n=a#4 v=80
17801 On ch=1 n=a#5 v=80
17821 On ch=1 n=a#5 v=0
17821 On ch=1 n=a#4 v=0
17821 On ch=1 n=d#4 v=80
17821 On ch=1 n=c#6 v=80
17841 On ch=1 n=c#6 v=0
17841 On ch=1 n=d#4 v=0
17841 On ch=1 n=d#6 v=114
17841 On ch=1 n=g#3 v=72
17861 On ch=1 n=g#3 v=0
17861 On ch=1 n=d#6 v=0
17861 On ch=1 n=a#5 v=80
17861 On ch=1 n=d#4 v=80
17881 On ch=1 n=d#4 v=0
17881 On ch=1 n=a#5 v=0
17881 On ch=1 n=c#6 v=80
17881 On ch=1 n=a#4 v=80
17901 On ch=1 n=a#4 v=0
17901 On ch=1 n=c#6 v=0
17901 On ch=1 n=d#5 v=80
17901 On ch=1 n=c#5 v=80
17921 On ch=1 n=c#5 v=0
17921 On ch=1 n=d#5 v=0
17921 On ch=1 n=a#5 v=80
17921 On ch=1 n=a#4 v=80
17941 On ch=1 n=a#4 v=0
17941 On ch=1 n=a#5 v=0
17941 On ch=1 n=c#6 v=80
17941 On ch=1 n=d#4 v=80
17961 On ch=1 n=d#4 v=0
17961 On ch=1 n=c#6 v=0
17961 On ch=1 n=c#7 v=114
17961 On ch=1 n=g#3 v=72
17981 On ch=1 n=g#3 v=0
17981 On ch=1 n=c#7 v=0
17981 On ch=1 n=a#5 v=80
17981 On ch=1 n=d#4 v=80
18001 On ch=1 n=d#4 v=0
18001 On ch=1 n=a#5 v=0
18001 On ch=1 n=c#6 v=80
18001 On ch=1 n=a#4 v=80
18021 On ch=1 n=a#4 v=0
18021 On ch=1 n=c#6 v=0
18021 On ch=1 n=d#5 v=80
18021 On ch=1 n=c#5 v=80
18041 On ch=1 n=c#5 v=0
18041 On ch=1 n=d#5 v=0
18041 On ch=1 n=a#5 v=80
18041 On ch=1 n=a#4 v=80
18061 On ch=1 n=a#4 v=0
18061 On ch=1 n=a#5 v=0
18061 On ch=1 n=c#6 v=80
18061 On ch=1 n=d#4 v=80
18081 On ch=1 n=d#4 v=0
18081 On ch=1 n=c#6 v=0
18081 On ch=1 n=g6 v=114
18081 On ch=1 n=g#3 v=72
18101 On ch=1 n=g#3 v=0
18101 On ch=1 n=g6 v=0
18101 On ch=1 n=a#5 v=80
18101 On ch=1 n=d#4 v=80
18121 On ch=1 n=d#4 v=0
18121 On ch=1 n=a#5 v=0
18121 On ch=1 n=c#6 v=80
18121 On ch=1 n=a#4 v=80
18141 On ch=1 n=a#4 v=0
18141 On ch=1 n=c#6 v=0
18141 On ch=1 n=d#5 v=80
18141 On ch=1 n=c#5 v=80
18161 On ch=1 n=c#5 v=0
18161 On ch=1 n=d#5 v=0
18161 On ch=1 n=a#5 v=80
18161 On ch=1 n=a#4 v=80
18181 On ch=1 n=a#4 v=0
18181 On ch=1 n=a#5 v=0
18181 On ch=1 n=c#6 v=80
18181 On ch=1 n=d#4 v=80
18186 Par ch=1 c=64 v=0
18201 On ch=1 n=d#4 v=0
18201 On ch=1 n=c#6 v=0
18201 Par ch=1 c=64 v=127
18201 On ch=1 n=g#3 v=68
18201 On ch=1 n=g#6 v=108
18221 On ch=1 n=g#6 v=0
18221 On ch=1 n=g#3 v=0
18221 On ch=1 n=d#4 v=76
18221 On ch=1 n=g#5 v=76
18241 On ch=1 n=g#5 v=0
18241 On ch=1 n=d#4 v=0
18241 On ch=1 n=g#4 v=76
18241 On ch=1 n=c6 v=76
18261 On ch=1 n=c6 v=0
18261 On ch=1 n=g#4 v=0
18261 On ch=1 n=c5 v=76
18261 On ch=1 n=d#5 v=76
18281 On ch=1 n=d#5 v=0
18281 On ch=1 n=c5 v=0
18281 On ch=1 n=g#4 v=76
18281 On ch=1 n=g#5 v=76
18301 On ch=1 n=g#5 v=0
18301 On ch=1 n=g#4 v=0
18301 On ch=1 n=d#4 v=76
18301 On ch=1 n=c6 v=76
18321 On ch=1 n=c6 v=0
18321 On ch=1 n=d#4 v=0
18321 On ch=1 n=d#6 v=108
18321 On ch=1 n=g#3 v=68
18341 On ch=1 n=g#3 v=0
18341 On ch=1 n=d#6 v=0
18341 On ch=1 n=g#5 v=76
18341 On ch=1 n=d#4 v=76
18361 On ch=1 n=d#4 v=0
18361 On ch=1 n=g#5 v=0
18361 On ch=1 n=c6 v=76
18361 On ch=1 n=g#4 v=76
18381 On ch=1 n=g#4 v=0
18381 On ch=1 n=c6 v=0
18381 On ch=1 n=d#5 v=76
18381 On ch=1 n=c5 v=76
18401 On ch=1 n=c5 v=0
18401 On ch=1 n=d#5 v=0
18401 On ch=1 n=g#5 v=76
18401 On ch=1 n=g#4 v=76
18421 On ch=1 n=g#4 v=0
18421 On ch=1 n=g#5 v=0
18421 On ch=1 n=c6 v=76
18421 On ch=1 n=d#4 v=76
18441 On ch=1 n=d#4 v=0
18441 On ch=1 n=c6 v=0
18441 On ch=1 n=d#6 v=108
18441 On ch=1 n=g#3 v=68
18461 On ch=1 n=g#3 v=0
18461 On ch=1 n=d#6 v=0
18461 On ch=1 n=g#5 v=76
18461 On ch=1 n=d#4 v=76
18481 On ch=1 n=d#4 v=0
18481 On ch=1 n=g#5 v=0
18481 On ch=1 n=c6 v=76
18481 On ch=1 n=g#4 v=76
18501 On ch=1 n=g#4 v=0
18501 On ch=1 n=c6 v=0
18501 On ch=1 n=d#5 v=76
18501 On ch=1 n=c5 v=76
18521 On ch=1 n=c5 v=0
18521 On ch=1 n=d#5 v=0
18521 On ch=1 n=g#5 v=76
18521 On ch=1 n=g#4 v=76
18541 On ch=1 n=g#4 v=0
18541 On ch=1 n=g#5 v=0
18541 On ch=1 n=c6 v=76
18541 On ch=1 n=d#4 v=76
18561 On ch=1 n=d#4 v=0
18561 On ch=1 n=c6 v=0
18561 On ch=1 n=d#6 v=108
18561 On ch=1 n=g#3 v=68
18581 On ch=1 n=g#3 v=0
18581 On ch=1 n=d#6 v=0
18581 On ch=1 n=g#5 v=76
18581 On ch=1 n=d#4 v=76
18601 On ch=1 n=d#4 v=0
18601 On ch=1 n=g#5 v=0
18601 On ch=1 n=c6 v=76
18601 On ch=1 n=g#4 v=76
18621 On ch=1 n=g#4 v=0
18621 On ch=1 n=c6 v=0
18621 On ch=1 n=d#5 v=76
18621 On ch=1 n=c5 v=76
18641 On ch=1 n=c5 v=0
18641 On ch=1 n=d#5 v=0
18641 On ch=1 n=g#5 v=76
18641 On ch=1 n=g#4 v=76
18661 On ch=1 n=g#4 v=0
18661 On ch=1 n=g#5 v=0
18661 On ch=1 n=c6 v=76
18661 On ch=1 n=d#4 v=76
18666 Par ch=1 c=64 v=0
18681 On ch=1 n=d#4 v=0
18681 On ch=1 n=c6 v=0
18681 Par ch=1 c=64 v=127
18681 On ch=1 n=g#3 v=68
18681 On ch=1 n=f6 v=108
18701 On ch=1 n=f6 v=0
18701 On ch=1 n=g#3 v=0
18701 On ch=1 n=d#4 v=76
18701 On ch=1 n=a#5 v=76
18721 On ch=1 n=a#5 v=0
18721 On ch=1 n=d#4 v=0
18721 On ch=1 n=a#4 v=76
18721 On ch=1 n=c#6 v=76
18741 On ch=1 n=c#6 v=0
18741 On ch=1 n=a#4 v=0
18741 On ch=1 n=c#5 v=75
18741 On ch=1 n=d#5 v=75
18761 On ch=1 n=d#5 v=0
18761 On ch=1 n=c#5 v=0
18761 On ch=1 n=a#4 v=75
18761 On ch=1 n=a#5 v=75
18781 On ch=1 n=a#5 v=0
18781 On ch=1 n=a#4 v=0
18781 On ch=1 n=d#4 v=74
18781 On ch=1 n=c#6 v=74
18801 On ch=1 n=c#6 v=0
18801 On ch=1 n=d#4 v=0
18801 On ch=1 n=d#6 v=105
18801 On ch=1 n=g#3 v=66
18821 On ch=1 n=g#3 v=0
18821 On ch=1 n=d#6 v=0
18821 On ch=1 n=a#5 v=73
18821 On ch=1 n=d#4 v=73
18841 On ch=1 n=d#4 v=0
18841 On ch=1 n=a#5 v=0
18841 On ch=1 n=c#6 v=73
18841 On ch=1 n=a#4 v=73
18861 On ch=1 n=a#4 v=0
18861 On ch=1 n=c#6 v=0
18861 On ch=1 n=d#5 v=73
18861 On ch=1 n=c#5 v=73
18881 On ch=1 n=c#5 v=0
18881 On ch=1 n=d#5 v=0
18881 On ch=1 n=a#5 v=73
18881 On ch=1 n=a#4 v=73
18901 On ch=1 n=a#4 v=0
18901 On ch=1 n=a#5 v=0
18901 On ch=1 n=c#6 v=73
18901 On ch=1 n=d#4 v=73
18921 On ch=1 n=d#4 v=0
18921 On ch=1 n=c#6 v=0
18921 On ch=1 n=f7 v=102
18921 On ch=1 n=g#3 v=64
18941 On ch=1 n=g#3 v=0
18941 On ch=1 n=f7 v=0
18941 On ch=1 n=a#5 v=72
18941 On ch=1 n=d#4 v=72
18961 On ch=1 n=d#4 v=0
18961 On ch=1 n=a#5 v=0
18961 On ch=1 n=c#6 v=71
18961 On ch=1 n=a#4 v=71
18981 On ch=1 n=a#4 v=0
18981 On ch=1 n=c#6 v=0
18981 On ch=1 n=d#5 v=71
18981 On ch=1 n=c#5 v=71
19001 On ch=1 n=c#5 v=0
19001 On ch=1 n=d#5 v=0
19001 On ch=1 n=a#5 v=71
19001 On ch=1 n=a#4 v=71
19021 On ch=1 n=a#4 v=0
19021 On ch=1 n=a#5 v=0
19021 On ch=1 n=c#6 v=70
19021 On ch=1 n=d#4 v=70
19041 On ch=1 n=d#4 v=0
19041 On ch=1 n=c#6 v=0
19041 On ch=1 n=g6 v=99
19041 On ch=1 n=g#3 v=63
19061 On ch=1 n=g#3 v=0
19061 On ch=1 n=g6 v=0
19061 On ch=1 n=a#5 v=69
19061 On ch=1 n=d#4 v=69
19081 On ch=1 n=d#4 v=0
19081 On ch=1 n=a#5 v=0
19081 On ch=1 n=c#6 v=69
19081 On ch=1 n=a#4 v=69
19101 On ch=1 n=a#4 v=0
19101 On ch=1 n=c#6 v=0
19101 On ch=1 n=d#5 v=68
19101 On ch=1 n=c#5 v=68
19121 On ch=1 n=c#5 v=0
19121 On ch=1 n=d#5 v=0
19121 On ch=1 n=a#5 v=68
19121 On ch=1 n=a#4 v=68
19141 On ch=1 n=a#4 v=0
19141 On ch=1 n=a#5 v=0
19141 On ch=1 n=c#6 v=68
19141 On ch=1 n=d#4 v=68
19146 Par ch=1 c=64 v=0
19161 On ch=1 n=d#4 v=0
19161 On ch=1 n=c#6 v=0
19161 Par ch=1 c=64 v=127
19161 On ch=1 n=g#3 v=61
19161 On ch=1 n=g#6 v=108
19181 On ch=1 n=g#6 v=0
19181 On ch=1 n=g#3 v=0
19181 On ch=1 n=d#4 v=68
19181 On ch=1 n=g#5 v=68
19201 On ch=1 n=g#5 v=0
19201 On ch=1 n=d#4 v=0
19201 On ch=1 n=g#4 v=68
19201 On ch=1 n=c6 v=68
19221 On ch=1 n=c6 v=0
19221 On ch=1 n=g#4 v=0
19221 On ch=1 n=c5 v=68
19221 On ch=1 n=d#5 v=68
19241 On ch=1 n=d#5 v=0
19241 On ch=1 n=c5 v=0
19241 On ch=1 n=g#4 v=68
19241 On ch=1 n=g#5 v=68
19261 On ch=1 n=g#5 v=0
19261 On ch=1 n=g#4 v=0
19261 On ch=1 n=d#4 v=67
19261 On ch=1 n=c6 v=67
19281 On ch=1 n=c6 v=0
19281 On ch=1 n=d#4 v=0
19281 On ch=1 n=d#6 v=106
19281 On ch=1 n=g#3 v=60
19301 On ch=1 n=g#3 v=0
19301 On ch=1 n=d#6 v=0
19301 On ch=1 n=g#5 v=67
19301 On ch=1 n=d#4 v=67
19321 On ch=1 n=d#4 v=0
19321 On ch=1 n=g#5 v=0
19321 On ch=1 n=c6 v=67
19321 On ch=1 n=g#4 v=67
19341 On ch=1 n=g#4 v=0
19341 On ch=1 n=c6 v=0
19341 On ch=1 n=d#5 v=67
19341 On ch=1 n=c5 v=67
19361 On ch=1 n=c5 v=0
19361 On ch=1 n=d#5 v=0
19361 On ch=1 n=g#5 v=66
19361 On ch=1 n=g#4 v=66
19381 On ch=1 n=g#4 v=0
19381 On ch=1 n=g#5 v=0
19381 On ch=1 n=c6 v=66
19381 On ch=1 n=d#4 v=66
19401 On ch=1 n=d#4 v=0
19401 On ch=1 n=c6 v=0
19401 On ch=1 n=f6 v=105
19401 On ch=1 n=g#3 v=59
19421 On ch=1 n=g#3 v=0
19421 On ch=1 n=f6 v=0
19421 On ch=1 n=g#5 v=66
19421 On ch=1 n=d#4 v=66
19441 On ch=1 n=d#4 v=0
19441 On ch=1 n=g#5 v=0
19441 On ch=1 n=c6 v=66
19441 On ch=1 n=g#4 v=66
19461 On ch=1 n=g#4 v=0
19461 On ch=1 n=c6 v=0
19461 On ch=1 n=d#5 v=66
19461 On ch=1 n=c5 v=66
19481 On ch=1 n=c5 v=0
19481 On ch=1 n=d#5 v=0
19481 On ch=1 n=g#5 v=66
19481 On ch=1 n=g#4 v=66
19501 On ch=1 n=g#4 v=0
19501 On ch=1 n=g#5 v=0
19501 On ch=1 n=c6 v=66
19501 On ch=1 n=d#4 v=66
19521 On ch=1 n=d#4 v=0
19521 On ch=1 n=c6 v=0
19521 On ch=1 n=d#6 v=104
19521 On ch=1 n=g#3 v=59
19541 On ch=1 n=g#3 v=0
19541 On ch=1 n=d#6 v=0
19541 On ch=1 n=g#5 v=66
19541 On ch=1 n=d#4 v=66
19561 On ch=1 n=d#4 v=0
19561 On ch=1 n=g#5 v=0
19561 On ch=1 n=c6 v=65
19561 On ch=1 n=g#4 v=65
19581 On ch=1 n=g#4 v=0
19581 On ch=1 n=c6 v=0
19581 On ch=1 n=d#5 v=65
19581 On ch=1 n=c5 v=65
19601 On ch=1 n=c5 v=0
19601 On ch=1 n=d#5 v=0
19601 On ch=1 n=g#5 v=65
19601 On ch=1 n=g#4 v=65
19621 On ch=1 n=g#4 v=0
19621 On ch=1 n=g#5 v=0
19621 On ch=1 n=c6 v=65
19621 On ch=1 n=d#4 v=65
19626 Par ch=1 c=64 v=0
19641 On ch=1 n=d#4 v=0
19641 On ch=1 n=c6 v=0
19641 Par ch=1 c=64 v=127
19641 On ch=1 n=c#6 v=102
19641 On ch=1 n=d#3 v=57
19661 On ch=1 n=d#3 v=0
19661 On ch=1 n=c#6 v=0
19661 On ch=1 n=d#5 v=64
19661 On ch=1 n=g#3 v=57
19681 On ch=1 n=g#3 v=0
19681 On ch=1 n=d#5 v=0
19681 On ch=1 n=g#5 v=64
19681 On ch=1 n=d#4 v=64
19701 On ch=1 n=d#4 v=0
19701 On ch=1 n=g#5 v=0
19701 On ch=1 n=c#5 v=64
19701 On ch=1 n=g#4 v=64
19721 On ch=1 n=g#4 v=0
19721 On ch=1 n=c#5 v=0
19721 On ch=1 n=d#5 v=64
19721 On ch=1 n=d#4 v=64
19741 On ch=1 n=d#4 v=0
19741 On ch=1 n=d#5 v=0
19741 On ch=1 n=g#5 v=63
19741 On ch=1 n=g#3 v=57
19761 On ch=1 n=g#3 v=0
19761 On ch=1 n=g#5 v=0
19761 On ch=1 n=c6 v=97
19761 On ch=1 n=d#3 v=57
19781 On ch=1 n=d#3 v=0
19781 On ch=1 n=c6 v=0
19781 On ch=1 n=d#5 v=63
19781 On ch=1 n=g#3 v=57
19801 On ch=1 n=g#3 v=0
19801 On ch=1 n=d#5 v=0
19801 On ch=1 n=g#5 v=63
19801 On ch=1 n=d#4 v=63
19821 On ch=1 n=d#4 v=0
19821 On ch=1 n=g#5 v=0
19821 On ch=1 n=c5 v=63
19821 On ch=1 n=g#4 v=63
19841 On ch=1 n=g#4 v=0
19841 On ch=1 n=c5 v=0
19841 On ch=1 n=d#5 v=63
19841 On ch=1 n=d#4 v=63
19861 On ch=1 n=d#4 v=0
19861 On ch=1 n=d#5 v=0
19861 On ch=1 n=g#5 v=63
19861 On ch=1 n=g#3 v=56
19881 On ch=1 n=g#3 v=0
19881 On ch=1 n=g#5 v=0
19881 On ch=1 n=c#6 v=93
19881 On ch=1 n=d#3 v=56
19901 On ch=1 n=d#3 v=0
19901 On ch=1 n=c#6 v=0
19901 On ch=1 n=d#5 v=63
19901 On ch=1 n=g#3 v=56
19921 On ch=1 n=g#3 v=0
19921 On ch=1 n=d#5 v=0
19921 On ch=1 n=g#5 v=63
19921 On ch=1 n=d#4 v=63
19941 On ch=1 n=d#4 v=0
19941 On ch=1 n=g#5 v=0
19941 On ch=1 n=c#5 v=62
19941 On ch=1 n=g#4 v=62
19961 On ch=1 n=g#4 v=0
19961 On ch=1 n=c#5 v=0
19961 On ch=1 n=d#5 v=62
19961 On ch=1 n=d#4 v=62
19981 On ch=1 n=d#4 v=0
19981 On ch=1 n=d#5 v=0
19981 On ch=1 n=g#5 v=62
19981 On ch=1 n=g#3 v=55
20001 On ch=1 n=g#3 v=0
20001 On ch=1 n=g#5 v=0
20001 On ch=1 n=c6 v=88
20001 On ch=1 n=d#3 v=55
20021 On ch=1 n=d#3 v=0
20021 On ch=1 n=c6 v=0
20021 On ch=1 n=d#5 v=62
20021 On ch=1 n=g#3 v=55
20041 On ch=1 n=g#3 v=0
20041 On ch=1 n=d#5 v=0
20041 On ch=1 n=g#5 v=61
20041 On ch=1 n=d#4 v=61
20061 On ch=1 n=d#4 v=0
20061 On ch=1 n=g#5 v=0
20061 On ch=1 n=c5 v=61
20061 On ch=1 n=g#4 v=61
20081 On ch=1 n=g#4 v=0
20081 On ch=1 n=c5 v=0
20081 On ch=1 n=d#5 v=61
20081 On ch=1 n=d#4 v=61
20101 On ch=1 n=d#4 v=0
20101 On ch=1 n=d#5 v=0
20101 On ch=1 n=g#5 v=61
20101 On ch=1 n=g#3 v=55
20106 Par ch=1 c=64 v=0
20121 On ch=1 n=g#3 v=0
20121 On ch=1 n=g#5 v=0
20121 Par ch=1 c=64 v=127
20121 On ch=1 n=a#5 v=86
20121 On ch=1 n=g#2 v=54
20141 On ch=1 n=g#2 v=0
20141 On ch=1 n=a#5 v=0
20141 On ch=1 n=c5 v=60
20141 On ch=1 n=d#3 v=54
20161 On ch=1 n=d#3 v=0
20161 On ch=1 n=c5 v=0
20161 On ch=1 n=d#5 v=60
20161 On ch=1 n=g#3 v=60
20181 On ch=1 n=g#3 v=0
20181 On ch=1 n=d#5 v=0
20181 On ch=1 n=a#4 v=60
20181 On ch=1 n=d#4 v=60
20201 On ch=1 n=d#4 v=0
20201 On ch=1 n=a#4 v=0
20201 On ch=1 n=c5 v=60
20201 On ch=1 n=g#3 v=60
20221 On ch=1 n=g#3 v=0
20221 On ch=1 n=c5 v=0
20221 On ch=1 n=d#5 v=60
20221 On ch=1 n=d#3 v=53
20241 On ch=1 n=d#3 v=0
20241 On ch=1 n=d#5 v=0
20241 On ch=1 n=g#5 v=84
20241 On ch=1 n=g#2 v=53
20261 On ch=1 n=g#2 v=0
20261 On ch=1 n=g#5 v=0
20261 On ch=1 n=c5 v=60
20261 On ch=1 n=d#3 v=53
20281 On ch=1 n=d#3 v=0
20281 On ch=1 n=c5 v=0
20281 On ch=1 n=d#5 v=60
20281 On ch=1 n=g#3 v=60
20301 On ch=1 n=g#3 v=0
20301 On ch=1 n=d#5 v=0
20301 On ch=1 n=g#4 v=60
20301 On ch=1 n=d#4 v=60
20321 On ch=1 n=d#4 v=0
20321 On ch=1 n=g#4 v=0
20321 On ch=1 n=c5 v=59
20321 On ch=1 n=g#3 v=59
20341 On ch=1 n=g#3 v=0
20341 On ch=1 n=c5 v=0
20341 On ch=1 n=d#5 v=59
20341 On ch=1 n=d#3 v=53
20361 On ch=1 n=d#3 v=0
20361 On ch=1 n=d#5 v=0
20361 On ch=1 n=g#2 v=53
20361 On ch=1 n=a#5 v=83
20381 On ch=1 n=a#5 v=0
20381 On ch=1 n=g#2 v=0
20381 On ch=1 n=d#3 v=53
20381 On ch=1 n=c5 v=59
20401 On ch=1 n=c5 v=0
20401 On ch=1 n=d#3 v=0
20401 On ch=1 n=g#3 v=59
20401 On ch=1 n=d#5 v=59
20421 On ch=1 n=d#5 v=0
20421 On ch=1 n=g#3 v=0
20421 On ch=1 n=d#4 v=58
20421 On ch=1 n=a#4 v=58
20441 On ch=1 n=a#4 v=0
20441 On ch=1 n=d#4 v=0
20441 On ch=1 n=g#3 v=58
20441 On ch=1 n=c5 v=58
20461 On ch=1 n=c5 v=0
20461 On ch=1 n=g#3 v=0
20461 On ch=1 n=d#3 v=52
20461 On ch=1 n=d#5 v=58
20481 On ch=1 n=d#5 v=0
20481 On ch=1 n=d#3 v=0
20481 On ch=1 n=g#2 v=52
20481 On ch=1 n=g#5 v=82
20501 On ch=1 n=g#5 v=0
20501 On ch=1 n=g#2 v=0
20501 On ch=1 n=d#3 v=52
20501 On ch=1 n=c5 v=58
20521 On ch=1 n=c5 v=0
20521 On ch=1 n=d#3 v=0
20521 On ch=1 n=g#3 v=57
20521 On ch=1 n=d#5 v=57
20541 On ch=1 n=d#5 v=0
20541 On ch=1 n=g#3 v=0
20541 On ch=1 n=d#4 v=57
20541 On ch=1 n=g#4 v=57
20561 On ch=1 n=g#4 v=0
20561 On ch=1 n=d#4 v=0
20561 On ch=1 n=g#3 v=57
20561 On ch=1 n=c5 v=57
20581 On ch=1 n=c5 v=0
20581 On ch=1 n=g#3 v=0
20581 On ch=1 n=d#3 v=51
20581 On ch=1 n=d#5 v=57
20586 Par ch=1 c=64 v=0
20601 On ch=1 n=d#5 v=0
20601 On ch=1 n=d#3 v=0
20601 Par ch=1 c=64 v=127
20601 On ch=1 n=a#5 v=81
20601 On ch=1 n=g#2 v=45
20621 On ch=1 n=g#2 v=0
20621 On ch=1 n=a#5 v=0
20621 On ch=1 n=c5 v=51
20621 On ch=1 n=d#3 v=45
20641 On ch=1 n=d#3 v=0
20641 On ch=1 n=c5 v=0
20641 On ch=1 n=d#5 v=51
20641 On ch=1 n=g#3 v=51
20661 On ch=1 n=g#3 v=0
20661 On ch=1 n=d#5 v=0
20661 On ch=1 n=a#4 v=51
20661 On ch=1 n=d#4 v=51
20681 On ch=1 n=d#4 v=0
20681 On ch=1 n=a#4 v=0
20681 On ch=1 n=c5 v=51
20681 On ch=1 n=g#3 v=51
20701 On ch=1 n=g#3 v=0
20701 On ch=1 n=c5 v=0
20701 On ch=1 n=d#5 v=50
20701 On ch=1 n=d#3 v=45
20721 On ch=1 n=d#3 v=0
20721 On ch=1 n=d#5 v=0
20721 On ch=1 n=g#5 v=79
20721 On ch=1 n=g#2 v=45
20741 On ch=1 n=g#2 v=0
20741 On ch=1 n=g#5 v=0
20741 On ch=1 n=c5 v=50
20741 On ch=1 n=d#3 v=45
20761 On ch=1 n=d#3 v=0
20761 On ch=1 n=c5 v=0
20761 On ch=1 n=d#5 v=50
20761 On ch=1 n=g#3 v=50
20781 On ch=1 n=g#3 v=0
20781 On ch=1 n=d#5 v=0
20781 On ch=1 n=g#4 v=50
20781 On ch=1 n=d#4 v=50
20801 On ch=1 n=d#4 v=0
20801 On ch=1 n=g#4 v=0
20801 On ch=1 n=c5 v=49
20801 On ch=1 n=g#3 v=49
20821 On ch=1 n=g#3 v=0
20821 On ch=1 n=c5 v=0
20821 On ch=1 n=d#5 v=49
20821 On ch=1 n=d#3 v=44
20841 On ch=1 n=d#3 v=0
20841 On ch=1 n=d#5 v=0
20841 On ch=1 n=g#2 v=43
20841 On ch=1 n=a#5 v=77
20861 On ch=1 n=a#5 v=0
20861 On ch=1 n=g#2 v=0
20861 On ch=1 n=d#3 v=43
20861 On ch=1 n=c5 v=48
20881 On ch=1 n=c5 v=0
20881 On ch=1 n=d#3 v=0
20881 On ch=1 n=g#3 v=48
20881 On ch=1 n=d#5 v=48
20901 On ch=1 n=d#5 v=0
20901 On ch=1 n=g#3 v=0
20901 On ch=1 n=d#4 v=48
20901 On ch=1 n=a#4 v=48
20921 On ch=1 n=a#4 v=0
20921 On ch=1 n=d#4 v=0
20921 On ch=1 n=g#3 v=48
20921 On ch=1 n=c5 v=48
20941 On ch=1 n=c5 v=0
20941 On ch=1 n=g#3 v=0
20941 On ch=1 n=d#3 v=42
20941 On ch=1 n=d#5 v=48
20961 On ch=1 n=d#5 v=0
20961 On ch=1 n=d#3 v=0
20961 On ch=1 n=g#5 v=76
20961 On ch=1 n=g#2 v=42
20981 On ch=1 n=g#2 v=0
20981 On ch=1 n=g#5 v=0
20981 On ch=1 n=c5 v=48
20981 On ch=1 n=d#3 v=42
21001 On ch=1 n=d#3 v=0
21001 On ch=1 n=c5 v=0
21001 On ch=1 n=d#5 v=47
21001 On ch=1 n=g#3 v=47
21021 On ch=1 n=g#3 v=0
21021 On ch=1 n=d#5 v=0
21021 On ch=1 n=g#4 v=47
21021 On ch=1 n=d#4 v=47
21041 On ch=1 n=d#4 v=0
21041 On ch=1 n=g#4 v=0
21041 On ch=1 n=c5 v=47
21041 On ch=1 n=g#3 v=47
21061 On ch=1 n=g#3 v=0
21061 On ch=1 n=c5 v=0
21061 On ch=1 n=d#5 v=47
21061 On ch=1 n=d#3 v=41
21080 Par ch=1 c=64 v=0
21081 On ch=1 n=d#3 v=0
21081 On ch=1 n=d#5 v=0
21081 Par ch=1 c=64 v=127
21081 On ch=1 n=g#2 v=47
21101 On ch=1 n=g#2 v=0
21101 On ch=1 n=c4 v=53
21101 On ch=1 n=d#3 v=47
21121 On ch=1 n=d#3 v=0
21121 On ch=1 n=c4 v=0
21121 On ch=1 n=d#4 v=53
21121 On ch=1 n=g#3 v=53
21141 On ch=1 n=g#3 v=0
21141 On ch=1 n=d#4 v=0
21141 On ch=1 n=g#4 v=54
21141 On ch=1 n=c4 v=54
21161 On ch=1 n=c4 v=0
21161 On ch=1 n=g#4 v=0
21161 On ch=1 n=g#4 v=54
21161 On ch=1 n=d#4 v=54
21181 On ch=1 n=d#4 v=0
21181 On ch=1 n=g#4 v=0
21181 On ch=1 n=c5 v=55
21181 On ch=1 n=g#4 v=55
21201 On ch=1 n=g#4 v=0
21201 On ch=1 n=c5 v=0
21201 On ch=1 n=g#5 v=55
21201 On ch=1 n=c5 v=55
21221 On ch=1 n=c5 v=0
21221 On ch=1 n=g#5 v=0
21221 On ch=1 n=c6 v=56
21221 On ch=1 n=d#5 v=56
21241 On ch=1 n=d#5 v=0
21241 On ch=1 n=c6 v=0
21241 On ch=1 n=g#5 v=56
21241 On ch=1 n=d#6 v=56
21261 On ch=1 n=d#6 v=0
21261 On ch=1 n=g#5 v=0
21261 On ch=1 n=g#6 v=57
21261 On ch=1 n=c6 v=57
21281 On ch=1 n=c6 v=0
21281 On ch=1 n=g#6 v=0
21281 On ch=1 n=c7 v=57
21281 On ch=1 n=d#6 v=57
21301 On ch=1 n=d#6 v=0
21301 On ch=1 n=c7 v=0
21301 On ch=1 n=d#7 v=58
21301 On ch=1 n=g#6 v=58
21321 On ch=1 n=g#6 v=0
21321 On ch=1 n=d#7 v=0
21321 On ch=1 n=g#7 v=58
21321 On ch=1 n=c7 v=58
21341 On ch=1 n=c7 v=0
21341 On ch=1 n=g#7 v=0
21341 On ch=1 n=d#7 v=57
21341 On ch=1 n=g#6 v=57
21361 On ch=1 n=g#6 v=0
21361 On ch=1 n=d#7 v=0
21361 On ch=1 n=c7 v=56
21361 On ch=1 n=d#6 v=56
21381 On ch=1 n=d#6 v=0
21381 On ch=1 n=c7 v=0
21381 On ch=1 n=g#6 v=55
21381 On ch=1 n=c6 v=55
21401 On ch=1 n=c6 v=0
21401 On ch=1 n=g#6 v=0
21401 On ch=1 n=d#6 v=54
21401 On ch=1 n=g#5 v=54
21421 On ch=1 n=g#5 v=0
21421 On ch=1 n=d#6 v=0
21421 On ch=1 n=c6 v=53
21421 On ch=1 n=d#5 v=53
21441 On ch=1 n=d#5 v=0
21441 On ch=1 n=c6 v=0
21441 On ch=1 n=g#5 v=53
21441 On ch=1 n=c5 v=53
21461 On ch=1 n=c5 v=0
21461 On ch=1 n=g#5 v=0
21461 On ch=1 n=c6 v=54
21461 On ch=1 n=d#5 v=54
21481 On ch=1 n=d#5 v=0
21481 On ch=1 n=c6 v=0
21481 On ch=1 n=g#5 v=55
21481 On ch=1 n=d#6 v=55
21501 On ch=1 n=d#6 v=0
21501 On ch=1 n=g#5 v=0
21501 On ch=1 n=g#6 v=56
21501 On ch=1 n=c6 v=56
21521 On ch=1 n=c6 v=0
21521 On ch=1 n=g#6 v=0
21521 On ch=1 n=c7 v=57
21521 On ch=1 n=d#6 v=57
21541 On ch=1 n=d#6 v=0
21541 On ch=1 n=c7 v=0
21541 On ch=1 n=d#7 v=58
21541 On ch=1 n=g#6 v=58
21561 On ch=1 n=g#6 v=0
21561 On ch=1 n=d#7 v=0
21561 On ch=1 n=g#7 v=58
21561 On ch=1 n=c7 v=58
21581 On ch=1 n=c7 v=0
21581 On ch=1 n=g#7 v=0
21581 On ch=1 n=d#7 v=57
21581 On ch=1 n=g#6 v=57
21601 On ch=1 n=g#6 v=0
21601 On ch=1 n=d#7 v=0
21601 On ch=1 n=c7 v=56
21601 On ch=1 n=d#6 v=56
21621 On ch=1 n=d#6 v=0
21621 On ch=1 n=c7 v=0
21621 On ch=1 n=g#6 v=55
21621 On ch=1 n=c6 v=55
21641 On ch=1 n=c6 v=0
21641 On ch=1 n=g#6 v=0
21641 On ch=1 n=d#6 v=54
21641 On ch=1 n=g#5 v=54
21661 On ch=1 n=g#5 v=0
21661 On ch=1 n=d#6 v=0
21661 On ch=1 n=c6 v=53
21661 On ch=1 n=d#5 v=53
21681 On ch=1 n=d#5 v=0
21681 On ch=1 n=c6 v=0
21681 On ch=1 n=g#5 v=53
21681 On ch=1 n=c5 v=53
21701 On ch=1 n=c5 v=0
21701 On ch=1 n=g#5 v=0
21701 On ch=1 n=c6 v=54
21701 On ch=1 n=d#5 v=54
21721 On ch=1 n=d#5 v=0
21721 On ch=1 n=c6 v=0
21721 On ch=1 n=d#6 v=55
21721 On ch=1 n=g#5 v=55
21741 On ch=1 n=g#5 v=0
21741 On ch=1 n=d#6 v=0
21741 On ch=1 n=g#6 v=56
21741 On ch=1 n=c6 v=56
21761 On ch=1 n=c6 v=0
21761 On ch=1 n=g#6 v=0
21761 On ch=1 n=c7 v=57
21761 On ch=1 n=d#6 v=57
21781 On ch=1 n=d#6 v=0
21781 On ch=1 n=c7 v=0
21781 On ch=1 n=d#7 v=58
21781 On ch=1 n=g#6 v=58
21801 On ch=1 n=g#6 v=0
21801 On ch=1 n=d#7 v=0
21801 On ch=1 n=g#7 v=58
21801 On ch=1 n=c7 v=58
21821 On ch=1 n=c7 v=0
21821 On ch=1 n=g#7 v=0
21821 On ch=1 n=d#7 v=57
21821 On ch=1 n=g#6 v=57
21841 On ch=1 n=g#6 v=0
21841 On ch=1 n=d#7 v=0
21841 On ch=1 n=c7 v=56
21841 On ch=1 n=d#6 v=56
21861 On ch=1 n=d#6 v=0
21861 On ch=1 n=c7 v=0
21861 On ch=1 n=g#6 v=55
21861 On ch=1 n=c6 v=55
21881 On ch=1 n=c6 v=0
21881 On ch=1 n=g#6 v=0
21881 On ch=1 n=d#6 v=54
21881 On ch=1 n=g#5 v=54
21901 On ch=1 n=g#5 v=0
21901 On ch=1 n=d#6 v=0
21901 On ch=1 n=c6 v=53
21901 On ch=1 n=d#5 v=53
21921 On ch=1 n=d#5 v=0
21921 On ch=1 n=c6 v=0
21921 On ch=1 n=g#5 v=58
21921 On ch=1 n=c5 v=58
21941 On ch=1 n=c5 v=0
21941 On ch=1 n=g#5 v=0
21941 On ch=1 n=c6 v=57
21941 On ch=1 n=d#5 v=57
21961 On ch=1 n=d#5 v=0
21961 On ch=1 n=c6 v=0
21961 On ch=1 n=d#6 v=56
21961 On ch=1 n=g#5 v=56
21981 On ch=1 n=g#5 v=0
21981 On ch=1 n=d#6 v=0
21981 On ch=1 n=g#6 v=55
21981 On ch=1 n=c6 v=55
22001 On ch=1 n=c6 v=0
22001 On ch=1 n=g#6 v=0
22001 On ch=1 n=c7 v=54
22001 On ch=1 n=d#6 v=54
22021 On ch=1 n=d#6 v=0
22021 On ch=1 n=c7 v=0
22021 On ch=1 n=g#6 v=53
22021 On ch=1 n=d#7 v=53
22041 On ch=1 n=d#7 v=0
22041 On ch=1 n=g#6 v=0
22041 On ch=1 n=g#7 v=58
22041 On ch=1 n=c7 v=58
22061 On ch=1 n=c7 v=0
22061 On ch=1 n=g#7 v=0
22061 On ch=1 n=d#7 v=57
22061 On ch=1 n=g#6 v=57
22081 On ch=1 n=g#6 v=0
22081 On ch=1 n=d#7 v=0
22081 On ch=1 n=c7 v=56
22081 On ch=1 n=d#6 v=56
22101 On ch=1 n=d#6 v=0
22101 On ch=1 n=c7 v=0
22101 On ch=1 n=g#6 v=55
22101 On ch=1 n=c6 v=55
22121 On ch=1 n=c6 v=0
22121 On ch=1 n=g#6 v=0
22121 On ch=1 n=d#6 v=54
22121 On ch=1 n=g#5 v=54
22141 On ch=1 n=g#5 v=0
22141 On ch=1 n=d#6 v=0
22141 On ch=1 n=c6 v=53
22141 On ch=1 n=d#5 v=53
22161 On ch=1 n=d#5 v=0
22161 On ch=1 n=c6 v=0
22161 On ch=1 n=g#5 v=57
22161 On ch=1 n=g#4 v=57
22181 On ch=1 n=g#4 v=0
22181 On ch=1 n=g#5 v=0
22181 On ch=1 n=c6 v=57
22181 On ch=1 n=d#5 v=57
22201 On ch=1 n=d#5 v=0
22201 On ch=1 n=c6 v=0
22201 On ch=1 n=g#5 v=57
22201 On ch=1 n=g#6 v=57
22221 On ch=1 n=g#6 v=0
22221 On ch=1 n=g#5 v=0
22221 On ch=1 n=c7 v=57
22221 On ch=1 n=d#6 v=57
22241 On ch=1 n=d#6 v=0
22241 On ch=1 n=c7 v=0
22241 On ch=1 n=g#6 v=57
22241 On ch=1 n=g#5 v=57
22261 On ch=1 n=g#5 v=0
22261 On ch=1 n=g#6 v=0
22261 On ch=1 n=c6 v=58
22261 On ch=1 n=d#5 v=58
22281 On ch=1 n=d#5 v=0
22281 On ch=1 n=c6 v=0
22281 On ch=1 n=g#5 v=58
22281 On ch=1 n=g#4 v=58
22301 On ch=1 n=g#4 v=0
22301 On ch=1 n=g#5 v=0
22301 On ch=1 n=c6 v=58
22301 On ch=1 n=d#5 v=58
22321 On ch=1 n=d#5 v=0
22321 On ch=1 n=c6 v=0
22321 On ch=1 n=g#6 v=58
22321 On ch=1 n=g#5 v=58
22341 On ch=1 n=g#5 v=0
22341 On ch=1 n=g#6 v=0
22341 On ch=1 n=c7 v=58
22341 On ch=1 n=d#6 v=58
22361 On ch=1 n=d#6 v=0
22361 On ch=1 n=c7 v=0
22361 On ch=1 n=g#6 v=60
22361 On ch=1 n=g#5 v=60
22381 On ch=1 n=g#5 v=0
22381 On ch=1 n=g#6 v=0
22381 On ch=1 n=d#6 v=60
22381 On ch=1 n=d#5 v=60
22401 On ch=1 n=d#5 v=0
22401 On ch=1 n=d#6 v=0
22401 On ch=1 n=g#5 v=60
22401 On ch=1 n=g#4 v=60
22421 On ch=1 n=g#4 v=0
22421 On ch=1 n=g#5 v=0
22421 On ch=1 n=c6 v=60
22421 On ch=1 n=d#5 v=60
22441 On ch=1 n=d#5 v=0
22441 On ch=1 n=c6 v=0
22441 On ch=1 n=g#6 v=60
22441 On ch=1 n=g#5 v=60
22461 On ch=1 n=g#5 v=0
22461 On ch=1 n=g#6 v=0
22461 On ch=1 n=c7 v=62
22461 On ch=1 n=d#6 v=62
22481 On ch=1 n=d#6 v=0
22481 On ch=1 n=c7 v=0
22481 On ch=1 n=g#6 v=62
22481 On ch=1 n=g#5 v=62
22501 On ch=1 n=g#5 v=0
22501 On ch=1 n=g#6 v=0
22501 On ch=1 n=d#6 v=62
22501 On ch=1 n=d#5 v=62
22521 On ch=1 n=d#5 v=0
22521 On ch=1 n=d#6 v=0
22521 On ch=1 n=g#5 v=62
22521 On ch=1 n=g#4 v=62
22541 On ch=1 n=g#4 v=0
22541 On ch=1 n=g#5 v=0
22541 On ch=1 n=c6 v=62
22541 On ch=1 n=d#5 v=62
22561 On ch=1 n=d#5 v=0
22561 On ch=1 n=c6 v=0
22561 On ch=1 n=g#6 v=63
22561 On ch=1 n=g#5 v=63
22581 On ch=1 n=g#5 v=0
22581 On ch=1 n=g#6 v=0
22581 On ch=1 n=c7 v=63
22581 On ch=1 n=d#6 v=63
22601 On ch=1 n=d#6 v=0
22601 On ch=1 n=c7 v=0
22601 On ch=1 n=g#6 v=62
22601 On ch=1 n=g#5 v=62
22621 On ch=1 n=g#5 v=0
22621 On ch=1 n=g#6 v=0
22621 On ch=1 n=c6 v=62
22621 On ch=1 n=d#5 v=62
22641 On ch=1 n=d#5 v=0
22641 On ch=1 n=c6 v=0
22641 On ch=1 n=g#5 v=64
22641 On ch=1 n=g#4 v=64
22661 On ch=1 n=g#4 v=0
22661 On ch=1 n=g#5 v=0
22661 On ch=1 n=c6 v=63
22661 On ch=1 n=d#5 v=63
22681 On ch=1 n=d#5 v=0
22681 On ch=1 n=c6 v=0
22681 On ch=1 n=g#6 v=60
22681 On ch=1 n=g#5 v=60
22701 On ch=1 n=g#5 v=0
22701 On ch=1 n=g#6 v=0
22701 On ch=1 n=c7 v=60
22701 On ch=1 n=d#6 v=60
22721 On ch=1 n=d#6 v=0
22721 On ch=1 n=c7 v=0
22721 On ch=1 n=g#6 v=60
22721 On ch=1 n=g#5 v=60
22741 On ch=1 n=g#5 v=0
22741 On ch=1 n=g#6 v=0
22741 On ch=1 n=c6 v=60
22741 On ch=1 n=d#5 v=60
22761 On ch=1 n=d#5 v=0
22761 On ch=1 n=c6 v=0
22761 On ch=1 n=g#5 v=57
22761 On ch=1 n=g#4 v=57
22781 On ch=1 n=g#4 v=0
22781 On ch=1 n=g#5 v=0
22781 On ch=1 n=c6 v=57
22781 On ch=1 n=d#5 v=57
22801 On ch=1 n=d#5 v=0
22801 On ch=1 n=c6 v=0
22801 On ch=1 n=g#6 v=57
22801 On ch=1 n=g#5 v=57
22821 On ch=1 n=g#5 v=0
22821 On ch=1 n=g#6 v=0
22821 On ch=1 n=c7 v=54
22821 On ch=1 n=d#6 v=54
22841 On ch=1 n=d#6 v=0
22841 On ch=1 n=c7 v=0
22841 On ch=1 n=g#6 v=54
22841 On ch=1 n=g#5 v=54
22861 On ch=1 n=g#5 v=0
22861 On ch=1 n=g#6 v=0
22861 On ch=1 n=c6 v=54
22861 On ch=1 n=d#5 v=54
22881 On ch=1 n=d#5 v=0
22881 On ch=1 n=c6 v=0
22881 On ch=1 n=g#5 v=50
22881 On ch=1 n=g#4 v=50
22901 On ch=1 n=g#4 v=0
22901 On ch=1 n=g#5 v=0
22901 On ch=1 n=c6 v=48
22901 On ch=1 n=d#5 v=48
22921 On ch=1 n=d#5 v=0
22921 On ch=1 n=c6 v=0
22921 On ch=1 n=g#6 v=48
22921 On ch=1 n=g#5 v=48
22941 On ch=1 n=g#5 v=0
22941 On ch=1 n=g#6 v=0
22941 On ch=1 n=c7 v=47
22941 On ch=1 n=d#6 v=47
22961 On ch=1 n=d#6 v=0
22961 On ch=1 n=c7 v=0
22961 On ch=1 n=g#6 v=47
22961 On ch=1 n=g#5 v=47
22981 On ch=1 n=g#5 v=0
22981 On ch=1 n=g#6 v=0
22981 On ch=1 n=c6 v=46
22981 On ch=1 n=d#5 v=46
23001 On ch=1 n=d#5 v=0
23001 On ch=1 n=c6 v=0
23001 On ch=1 n=g#4 v=48
23001 On ch=1 n=g#5 v=48
23107 On ch=1 n=g#3 v=56
23121 On ch=1 n=g#5 v=0
23121 On ch=1 n=g#4 v=0
23121 On ch=1 n=d#4 v=59
23141 On ch=1 n=c5 v=59
23151 On ch=1 n=g#7 v=59
23151 On ch=1 n=d#7 v=59
23151 On ch=1 n=g#6 v=59
23227 On ch=1 n=g#3 v=0
23241 On ch=1 n=d#4 v=0
23261 On ch=1 n=c5 v=0
23271 On ch=1 n=g#7 v=0
23271 On ch=1 n=d#7 v=0
23271 On ch=1 n=g#6 v=0
23346 Par ch=1 c=64 v=0
23361 On ch=1 n=d3 v=56
23361 On ch=1 n=d#5 v=70
23361 On ch=1 n=c6 v=70
23376 On ch=1 n=d3 v=0
23376 On ch=1 n=d#3 v=56
23391 On ch=1 n=d#3 v=0
23391 On ch=1 n=f3 v=56
23406 On ch=1 n=f3 v=0
23406 On ch=1 n=d#3 v=56
23421 On ch=1 n=d#3 v=0
23421 On ch=1 n=f3 v=56
23436 On ch=1 n=f3 v=0
23436 On ch=1 n=d#3 v=56
23451 On ch=1 n=d#3 v=0
23451 On ch=1 n=f3 v=56
23466 On ch=1 n=f3 v=0
23466 On ch=1 n=d#3 v=56
23481 On ch=1 n=d#3 v=0
23481 On ch=1 n=c6 v=0
23481 On ch=1 n=d#5 v=0
23481 On ch=1 n=f3 v=56
23496 On ch=1 n=f3 v=0
23496 On ch=1 n=d#3 v=56
23511 On ch=1 n=d#3 v=0
23511 On ch=1 n=f3 v=56
23526 On ch=1 n=f3 v=0
23526 On ch=1 n=d#3 v=56
23541 On ch=1 n=d#3 v=0
23541 On ch=1 n=f3 v=56
23556 On ch=1 n=f3 v=0
23556 On ch=1 n=d#3 v=56
23581 On ch=1 n=d3 v=56
23586 On ch=1 n=d#3 v=0
23661 On ch=1 n=d#3 v=56
23671 On ch=1 n=d3 v=0
23721 On ch=1 n=d#3 v=0
23721 Par ch=1 c=64 v=127
23721 On ch=1 n=g#2 v=55
23761 On ch=1 n=g#3 v=55
23801 On ch=1 n=d#4 v=62
23841 On ch=1 n=c5 v=60
23881 On ch=1 n=g#5 v=61
24401 On ch=1 n=g#3 v=0
24441 On ch=1 n=d#4 v=0
24481 On ch=1 n=g#2 v=0
24481 On ch=1 n=c5 v=0
24521 On ch=1 n=g#5 v=0
25081 Par ch=1 c=64 v=0
25081 Meta TrkEnd
TrkEnd
