MFile 1 5 384
MTrk
0 TimeSig 3/4 24 8
0 Tempo 330114
2304 Tempo 446082
3264 Tempo 456266
3360 Tempo 480956
3384 Tempo 412706
3408 Tempo 447760
3432 Tempo 331487
11808 Tempo 330114
11904 Tempo 334080
12000 Tempo 338157
12096 Tempo 342347
12192 Tempo 346636
12288 Tempo 351030
12384 Tempo 355540
12480 Tempo 360160
12576 Tempo 364903
12672 Tempo 327417
34464 Tempo 330114
34560 Tempo 333350
34656 Tempo 336650
34752 Tempo 340007
34848 Tempo 343453
34944 Tempo 346994
35040 Tempo 350573
35136 Tempo 354230
35232 Tempo 357949
35328 Tempo 361783
35424 Tempo 365665
35520 Tempo 369647
35616 Tempo 373727
35712 Tempo 328747
49728 Tempo 324754
49824 Tempo 323298
49920 Tempo 321864
50016 Tempo 320448
50112 Tempo 319054
50208 Tempo 317648
50304 Tempo 316262
50400 Tempo 314898
50496 Tempo 313557
50592 Tempo 310877
50688 Tempo 310877
51072 Tempo 310877
51168 Tempo 347849
51264 Tempo 367646
51360 Tempo 389823
51456 Tempo 926640
51552 Tempo 963850
51648 Tempo 1004170
51744 Tempo 638284
51840 Tempo 330114
52224 Tempo 328747
52320 Tempo 346183
52416 Tempo 365557
52512 Tempo 1589400
52608 Tempo 1589400
52704 Tempo 1589400
52800 Tempo 1263138
52896 Tempo 347314
52992 Tempo 347614
53088 Tempo 347907
53184 Tempo 348203
53280 Tempo 348524
53664 Tempo 2000000
53760 Tempo 2000000
53856 Tempo 2000000
53952 Tempo 420302
89376 Tempo 420302
89472 Tempo 425071
89568 Tempo 427032
89616 Tempo 431225
89664 Tempo 435496
89712 Tempo 439867
89760 Tempo 444310
89808 Tempo 448852
89856 Tempo 453479
89904 Tempo 458216
89952 Tempo 463057
90000 Tempo 467980
90048 Tempo 473021
90096 Tempo 478172
90144 Tempo 483440
90192 Tempo 488806
90240 Tempo 494311
90288 Tempo 499946
90336 Tempo 505710
90384 Tempo 511590
90432 Tempo 517630
90480 Tempo 523794
90528 Tempo 530115
90576 Tempo 536599
90624 Tempo 543237
90672 Tempo 550039
90720 Tempo 557017
90768 Tempo 564165
90816 Tempo 574155
90864 Tempo 592547
90912 Tempo 603004
90960 Tempo 243638
108648 Tempo 242898
108672 Tempo 244943
108696 Tempo 247041
108720 Tempo 249198
108744 Tempo 251348
108768 Tempo 253555
108792 Tempo 255795
108816 Tempo 258083
108840 Tempo 260410
108864 Tempo 262780
108888 Tempo 265189
108912 Tempo 267647
108936 Tempo 270146
108960 Tempo 272704
108984 Tempo 275306
109008 Tempo 277948
109032 Tempo 280656
109056 Tempo 283402
109080 Tempo 286210
109104 Tempo 289075
109128 Tempo 291994
109152 Tempo 294982
109176 Tempo 298020
109200 Tempo 301126
109224 Tempo 307275
109248 Tempo 309347
109272 Tempo 311464
109296 Tempo 313610
109344 Tempo 242898
110952 Tempo 240716
110976 Tempo 252278
111000 Tempo 265030
111024 Tempo 279118
111048 Tempo 294840
111072 Tempo 312379
111096 Tempo 332157
111120 Tempo 407470
111144 Tempo 379129
111168 Tempo 354490
111192 Tempo 332867
111216 Tempo 313711
111240 Tempo 296655
111264 Tempo 281328
111288 Tempo 267532
111312 Tempo 241419
115608 Tempo 244369
115632 Tempo 254950
115656 Tempo 266448
115680 Tempo 279038
115704 Tempo 292905
115728 Tempo 308190
115752 Tempo 325194
115776 Tempo 344140
115800 Tempo 365456
115824 Tempo 242898
126048 Tempo 245121
126144 Tempo 245121
126192 Tempo 245798
126240 Tempo 246470
126288 Tempo 247136
126336 Tempo 247831
126384 Tempo 248486
126432 Tempo 249198
126480 Tempo 249876
126528 Tempo 250580
126576 Tempo 251253
126624 Tempo 251978
126672 Tempo 252668
126720 Tempo 253393
126768 Tempo 254080
126816 Tempo 254828
126864 Tempo 255530
126912 Tempo 256250
126960 Tempo 256985
127008 Tempo 257728
127056 Tempo 258465
127104 Tempo 259205
127152 Tempo 259955
127200 Tempo 260707
127248 Tempo 261467
127296 Tempo 262215
127344 Tempo 262977
127392 Tempo 263757
127440 Tempo 264537
127488 Tempo 265297
127536 Tempo 266097
127584 Tempo 267258
127632 Tempo 269090
127680 Tempo 270947
127728 Tempo 272844
127776 Tempo 274764
127824 Tempo 276720
127872 Tempo 278688
127920 Tempo 280698
127968 Tempo 282750
128016 Tempo 284808
128064 Tempo 286902
128112 Tempo 289028
128160 Tempo 291176
128208 Tempo 293373
128256 Tempo 295600
128304 Tempo 297868
128352 Tempo 300160
128400 Tempo 302478
128448 Tempo 304837
128496 Tempo 307248
128544 Tempo 309676
128592 Tempo 312172
128640 Tempo 314682
128688 Tempo 317235
128736 Tempo 319851
128784 Tempo 322484
128832 Tempo 325194
128880 Tempo 327927
128928 Tempo 330700
128976 Tempo 333524
129024 Tempo 336394
129072 Tempo 339313
129120 Tempo 342303
129168 Tempo 345347
129216 Tempo 348430
129264 Tempo 351567
129312 Tempo 354756
129360 Tempo 358009
129408 Tempo 359820
129456 Tempo 368451
129504 Tempo 377529
129552 Tempo 387079
129600 Tempo 397117
129648 Tempo 407674
129696 Tempo 418828
129744 Tempo 430602
129792 Tempo 443052
129840 Tempo 638284
129888 Tempo 662974
129936 Tempo 805352
129984 Tempo 817738
130032 Tempo 830432
130080 Tempo 843607
130128 Tempo 660532
130176 Tempo 331487
131328 Tempo 331487
161472 Tempo 498960
161568 Tempo 499761
161664 Tempo 500565
161760 Tempo 501395
161856 Tempo 502210
161952 Tempo 503050
162048 Tempo 503860
162144 Tempo 504700
162240 Tempo 505530
162336 Tempo 506370
162432 Tempo 507185
162528 Tempo 508035
162624 Tempo 508875
162720 Tempo 509725
162816 Tempo 848042
162912 Tempo 837837
163008 Tempo 827802
163104 Tempo 818060
163200 Tempo 808502
163296 Tempo 799211
163392 Tempo 790067
163488 Tempo 781204
163584 Tempo 772467
163680 Tempo 763977
163776 Tempo 755638
163872 Tempo 747518
163968 Tempo 739521
164064 Tempo 797340
164160 Tempo 801340
164256 Tempo 805352
164352 Tempo 809458
164448 Tempo 813542
164544 Tempo 817738
164640 Tempo 821902
164736 Tempo 826169
164832 Tempo 830432
164928 Tempo 834807
165024 Tempo 820746
165120 Tempo 799649
165216 Tempo 779589
165312 Tempo 760535
165408 Tempo 742383
165504 Tempo 693640
165600 Tempo 677480
165696 Tempo 638284
165792 Tempo 638284
165888 Tempo 638284
165984 Tempo 638284
166080 Tempo 774183
166176 Tempo 806990
166272 Tempo 842682
166368 Tempo 1034480
166464 Tempo 1057979
166560 Tempo 1082586
166656 Tempo 1108208
166752 Tempo 1135224
166848 Tempo 1163449
166944 Tempo 1193275
167040 Tempo 719042
167136 Tempo 727606
167232 Tempo 736356
167328 Tempo 740453
167424 Tempo 749863
182016 Meta TrkEnd
TrkEnd
MTrk
0 Meta TrkName "Track 1"
0 Par ch=1 c=10 v=10
4 SysEx f0 7e 00 00 7f f7
16 Par ch=1 c=0 v=0
20 Par ch=1 c=32 v=0
36 Par ch=1 c=91 v=127
40 Par ch=1 c=93 v=0
44 Par ch=1 c=101 v=0
48 Par ch=1 c=100 v=0
52 Par ch=1 c=6 v=2
2304 Par ch=1 c=10 v=10
2304 Par ch=1 c=10 v=10
2304 Par ch=1 c=10 v=10
2304 Par ch=1 c=10 v=64
2304 Par ch=1 c=10 v=64
2304 Par ch=1 c=10 v=64
3076 On ch=1 n=b5 v=53
3220 Off ch=1 n=b5 v=0
3408 On ch=1 n=e3 v=35
3435 On ch=1 n=b3 v=41
3442 On ch=1 n=d#5 v=33
3445 On ch=1 n=g4 v=52
3455 On ch=1 n=b5 v=64
3477 On ch=1 n=e5 v=52
3511 Off ch=1 n=d#5 v=0
3733 Off ch=1 n=e3 v=0
3750 Off ch=1 n=b3 v=0
3756 Off ch=1 n=g4 v=0
3773 Off ch=1 n=b5 v=0
3801 Off ch=1 n=e5 v=0
3802 On ch=1 n=e6 v=62
3820 On ch=1 n=f#5 v=33
3867 On ch=1 n=g5 v=54
3891 Off ch=1 n=f#5 v=0
4148 Off ch=1 n=g5 v=0
4165 On ch=1 n=a#5 v=48
4203 On ch=1 n=b5 v=60
4207 Off ch=1 n=e6 v=0
4223 On ch=1 n=g6 v=76
4228 Off ch=1 n=a#5 v=0
4234 On ch=1 n=g3 v=29
4253 On ch=1 n=e4 v=58
4253 On ch=1 n=b4 v=70
4412 Off ch=1 n=g3 v=0
4424 Off ch=1 n=e4 v=0
4432 Off ch=1 n=b4 v=0
4546 Off ch=1 n=b5 v=0
4573 Off ch=1 n=g6 v=0
4584 On ch=1 n=b5 v=62
4589 On ch=1 n=a3 v=53
4601 On ch=1 n=g6 v=82
4622 On ch=1 n=c5 v=53
4624 On ch=1 n=e4 v=56
4624 On ch=1 n=a5 v=48
4645 Off ch=1 n=b5 v=0
4936 Off ch=1 n=a3 v=0
4946 Off ch=1 n=c5 v=0
4947 Off ch=1 n=e4 v=0
4971 Off ch=1 n=a5 v=0
4972 Off ch=1 n=g6 v=0
4983 On ch=1 n=f#6 v=68
4987 On ch=1 n=g#5 v=47
5034 On ch=1 n=a5 v=54
5061 Off ch=1 n=g#5 v=0
5335 Off ch=1 n=a5 v=0
5354 On ch=1 n=c4 v=54
5360 On ch=1 n=c6 v=54
5369 On ch=1 n=a6 v=66
5370 Off ch=1 n=f#6 v=0
5386 On ch=1 n=e5 v=64
5387 On ch=1 n=a4 v=54
5391 On ch=1 n=b5 v=64
5410 Off ch=1 n=c6 v=0
5595 Off ch=1 n=c4 v=0
5602 Off ch=1 n=a4 v=0
5602 Off ch=1 n=e5 v=0
5716 Off ch=1 n=b5 v=0
5734 Off ch=1 n=a6 v=0
5752 On ch=1 n=b3 v=45
5752 On ch=1 n=b5 v=62
5764 On ch=1 n=g6 v=78
5774 On ch=1 n=a4 v=58
5780 On ch=1 n=d#5 v=56
5783 On ch=1 n=a5 v=47
5804 Off ch=1 n=b5 v=0
6117 Off ch=1 n=a5 v=0
6127 Off ch=1 n=g6 v=0
6131 On ch=1 n=g#5 v=58
6141 On ch=1 n=f#6 v=78
6168 Off ch=1 n=a4 v=0
6179 Off ch=1 n=d#5 v=0
6182 On ch=1 n=a5 v=52
6185 Off ch=1 n=b3 v=0
6208 Off ch=1 n=g#5 v=0
6482 Off ch=1 n=a5 v=0
6496 Off ch=1 n=f#6 v=0
6506 On ch=1 n=b5 v=58
6509 On ch=1 n=b3 v=78
6519 On ch=1 n=g6 v=72
6526 On ch=1 n=d#4 v=31
6541 On ch=1 n=a5 v=60
6565 Off ch=1 n=b5 v=0
6732 Off ch=1 n=d#4 v=0
6740 Off ch=1 n=b3 v=0
6857 Off ch=1 n=a5 v=0
6869 Off ch=1 n=g6 v=0
6883 On ch=1 n=f#6 v=64
6885 On ch=1 n=a5 v=64
6890 On ch=1 n=e3 v=48
6899 On ch=1 n=b3 v=62
6937 On ch=1 n=g4 v=68
6938 On ch=1 n=g5 v=50
6954 Off ch=1 n=a5 v=0
7221 Off ch=1 n=g5 v=0
7244 On ch=1 n=f#5 v=50
7251 Off ch=1 n=f#6 v=0
7277 On ch=1 n=e6 v=56
7297 Off ch=1 n=e3 v=0
7298 On ch=1 n=g5 v=64
7304 Off ch=1 n=b3 v=0
7309 Off ch=1 n=g4 v=0
7324 Off ch=1 n=f#5 v=0
7587 On ch=1 n=f#3 v=68
7610 Off ch=1 n=g5 v=0
7618 On ch=1 n=d4 v=56
7630 On ch=1 n=a4 v=76
7633 On ch=1 n=g#5 v=66
7663 Off ch=1 n=e6 v=0
7671 On ch=1 n=d6 v=76
7679 On ch=1 n=a5 v=62
7700 Off ch=1 n=g#5 v=0
7919 Off ch=1 n=f#3 v=0
7942 Off ch=1 n=d4 v=0
7956 Off ch=1 n=a4 v=0
8002 On ch=1 n=g3 v=66
8012 Off ch=1 n=d6 v=0
8018 Off ch=1 n=a5 v=0
8032 On ch=1 n=f#5 v=52
8040 On ch=1 n=d4 v=76
8049 On ch=1 n=b4 v=78
8053 On ch=1 n=d6 v=80
8086 On ch=1 n=g5 v=46
8111 Off ch=1 n=f#5 v=0
8389 Off ch=1 n=g5 v=0
8407 On ch=1 n=a#5 v=48
8422 Off ch=1 n=d6 v=0
8424 Off ch=1 n=g3 v=0
8428 On ch=1 n=g6 v=80
8437 Off ch=1 n=b4 v=0
8439 Off ch=1 n=d4 v=0
8461 On ch=1 n=b5 v=51
8485 Off ch=1 n=a#5 v=0
8769 On ch=1 n=b3 v=50
8796 Off ch=1 n=b5 v=0
8798 Off ch=1 n=g6 v=0
8800 On ch=1 n=d5 v=68
8801 On ch=1 n=g4 v=53
8801 On ch=1 n=b6 v=82
8804 On ch=1 n=c#6 v=66
8850 On ch=1 n=d6 v=64
8876 Off ch=1 n=c#6 v=0
9043 Off ch=1 n=b3 v=0
9053 Off ch=1 n=d5 v=0
9054 Off ch=1 n=g4 v=0
9138 Off ch=1 n=d6 v=0
9158 Off ch=1 n=b6 v=0
9165 On ch=1 n=d6 v=82
9167 On ch=1 n=c4 v=45
9183 On ch=1 n=b6 v=86
9189 On ch=1 n=g4 v=54
9198 On ch=1 n=e5 v=56
9215 On ch=1 n=c6 v=51
9240 Off ch=1 n=d6 v=0
9560 Off ch=1 n=b6 v=0
9563 Off ch=1 n=c6 v=0
9567 On ch=1 n=a6 v=66
9575 On ch=1 n=b5 v=58
9585 Off ch=1 n=c4 v=0
9615 On ch=1 n=c6 v=51
9616 Off ch=1 n=g4 v=0
9618 Off ch=1 n=e5 v=0
9645 Off ch=1 n=b5 v=0
9922 On ch=1 n=e4 v=49
9928 Off ch=1 n=c6 v=0
9947 On ch=1 n=e6 v=72
9954 On ch=1 n=c5 v=53
9960 On ch=1 n=g5 v=70
9968 On ch=1 n=c7 v=76
9980 Off ch=1 n=a6 v=0
9995 On ch=1 n=d6 v=58
10015 Off ch=1 n=e6 v=0
10140 Off ch=1 n=e4 v=0
10152 Off ch=1 n=c5 v=0
10160 Off ch=1 n=g5 v=0
10304 On ch=1 n=d4 v=43
10314 Off ch=1 n=d6 v=0
10326 On ch=1 n=a4 v=54
10334 On ch=1 n=b5 v=60
10340 On ch=1 n=f#5 v=50
10355 Off ch=1 n=c7 v=0
10365 On ch=1 n=c6 v=50
10373 On ch=1 n=a6 v=72
10397 Off ch=1 n=b5 v=0
10491 Off ch=1 n=a4 v=0
10518 Off ch=1 n=d4 v=0
10538 Off ch=1 n=f#5 v=0
10676 On ch=1 n=g3 v=43
10677 Off ch=1 n=c6 v=0
10695 On ch=1 n=d4 v=50
10719 On ch=1 n=c#6 v=68
10722 On ch=1 n=b4 v=74
10722 On ch=1 n=b6 v=64
10728 Off ch=1 n=a6 v=0
10772 On ch=1 n=d6 v=64
10797 Off ch=1 n=c#6 v=0
10903 Off ch=1 n=g3 v=0
10953 Off ch=1 n=d4 v=0
10958 Off ch=1 n=b4 v=0
11034 On ch=1 n=c4 v=45
11058 Off ch=1 n=d6 v=0
11070 Off ch=1 n=b6 v=0
11076 On ch=1 n=a#5 v=46
11079 On ch=1 n=a4 v=52
11086 On ch=1 n=g6 v=72
11093 On ch=1 n=e5 v=68
11117 On ch=1 n=b5 v=48
11146 Off ch=1 n=a#5 v=0
11283 Off ch=1 n=a4 v=0
11307 Off ch=1 n=c4 v=0
11310 Off ch=1 n=e5 v=0
11402 Off ch=1 n=b5 v=0
11447 On ch=1 n=b5 v=60
11458 On ch=1 n=a6 v=54
11467 On ch=1 n=f#3 v=28
11476 Off ch=1 n=g6 v=0
11483 On ch=1 n=c6 v=52
11486 On ch=1 n=c4 v=64
11492 On ch=1 n=a4 v=62
11511 Off ch=1 n=b5 v=0
11740 Off ch=1 n=c4 v=0
11746 Off ch=1 n=f#3 v=0
11768 Off ch=1 n=a4 v=0
11830 Off ch=1 n=c6 v=0
11842 On ch=1 n=g#5 v=45
11866 Off ch=1 n=a6 v=0
11872 On ch=1 n=f#6 v=68
11888 On ch=1 n=a5 v=51
11916 Off ch=1 n=g#5 v=0
12218 Off ch=1 n=a5 v=0
12224 On ch=1 n=a4 v=30
12234 On ch=1 n=b5 v=56
12241 On ch=1 n=b3 v=61
12251 On ch=1 n=d#5 v=51
12260 On ch=1 n=g6 v=68
12268 On ch=1 n=a5 v=47
12288 Off ch=1 n=b5 v=0
12292 Off ch=1 n=f#6 v=0
12457 Off ch=1 n=d#5 v=0
12460 Off ch=1 n=b3 v=0
12464 Off ch=1 n=a4 v=0
12613 Off ch=1 n=a5 v=0
12618 On ch=1 n=d#5 v=39
12634 Off ch=1 n=g6 v=0
12638 On ch=1 n=b5 v=54
12642 On ch=1 n=e3 v=53
12664 On ch=1 n=g4 v=60
12670 On ch=1 n=e5 v=49
12684 Off ch=1 n=e3 v=0
12694 Off ch=1 n=d#5 v=0
12794 Par ch=1 c=10 v=64
12963 Off ch=1 n=g4 v=0
12989 Off ch=1 n=e5 v=0
12989 On ch=1 n=e4 v=46
12999 On ch=1 n=f#5 v=39
13000 On ch=1 n=e6 v=78
13004 Off ch=1 n=b5 v=0
13022 On ch=1 n=g4 v=66
13046 On ch=1 n=g5 v=56
13048 Off ch=1 n=e4 v=0
13070 Off ch=1 n=f#5 v=0
13331 Off ch=1 n=g4 v=0
13350 On ch=1 n=b3 v=60
13358 On ch=1 n=a#5 v=46
13366 Off ch=1 n=g5 v=0
13394 Off ch=1 n=e6 v=0
13396 On ch=1 n=g6 v=88
13400 On ch=1 n=b5 v=50
13410 On ch=1 n=e3 v=56
13417 Off ch=1 n=b3 v=0
13426 Off ch=1 n=a#5 v=0
13623 Off ch=1 n=e3 v=0
13742 Off ch=1 n=g6 v=0
13745 Off ch=1 n=b5 v=0
13763 On ch=1 n=g6 v=80
13770 On ch=1 n=b5 v=66
13780 On ch=1 n=a3 v=78
13807 On ch=1 n=a5 v=56
13827 Off ch=1 n=b5 v=0
13836 On ch=1 n=c5 v=70
13870 Off ch=1 n=a3 v=0
14115 Off ch=1 n=c5 v=0
14129 Off ch=1 n=a5 v=0
14136 On ch=1 n=f#4 v=52
14142 On ch=1 n=g#5 v=53
14162 Off ch=1 n=g6 v=0
14171 On ch=1 n=f#6 v=82
14180 On ch=1 n=c5 v=64
14190 On ch=1 n=a5 v=47
14212 Off ch=1 n=g#5 v=0
14215 Off ch=1 n=f#4 v=0
14513 Off ch=1 n=c5 v=0
14513 On ch=1 n=f#4 v=56
14516 Off ch=1 n=a5 v=0
14533 On ch=1 n=c6 v=52
14548 On ch=1 n=a6 v=82
14553 Off ch=1 n=f#6 v=0
14559 On ch=1 n=b5 v=46
14575 On ch=1 n=a3 v=76
14581 Off ch=1 n=c6 v=0
14621 Off ch=1 n=f#4 v=0
14883 Off ch=1 n=a3 v=0
14900 Off ch=1 n=b5 v=0
14906 Off ch=1 n=a6 v=0
14923 On ch=1 n=g6 v=86
14926 On ch=1 n=b3 v=72
14942 On ch=1 n=b5 v=53
14971 On ch=1 n=a5 v=45
14989 Off ch=1 n=b5 v=0
14992 On ch=1 n=d#5 v=62
15055 Off ch=1 n=b3 v=0
15276 Off ch=1 n=d#5 v=0
15279 On ch=1 n=f#4 v=48
15296 Off ch=1 n=g6 v=0
15302 Off ch=1 n=a5 v=0
15308 On ch=1 n=f#6 v=78
15318 On ch=1 n=g#5 v=50
15323 On ch=1 n=d#5 v=68
15369 On ch=1 n=a5 v=52
15371 Off ch=1 n=f#4 v=0
15393 Off ch=1 n=g#5 v=0
15663 Off ch=1 n=a5 v=0
15664 Off ch=1 n=d#5 v=0
15667 On ch=1 n=a4 v=74
15674 On ch=1 n=b5 v=60
15685 Off ch=1 n=f#6 v=0
15703 On ch=1 n=g6 v=90
15726 On ch=1 n=a5 v=51
15730 Off ch=1 n=a4 v=0
15733 On ch=1 n=b3 v=70
15761 Off ch=1 n=b5 v=0
16046 Off ch=1 n=a5 v=0
16046 Off ch=1 n=g6 v=0
16056 On ch=1 n=f#6 v=74
16059 Off ch=1 n=b3 v=0
16068 On ch=1 n=e4 v=53
16076 On ch=1 n=a5 v=70
16118 On ch=1 n=e5 v=48
16119 On ch=1 n=g5 v=54
16129 Off ch=1 n=a5 v=0
16313 Off ch=1 n=e4 v=0
16405 Off ch=1 n=e5 v=0
16431 Off ch=1 n=g5 v=0
16441 Off ch=1 n=f#6 v=0
16444 On ch=1 n=f#5 v=60
16445 On ch=1 n=b4 v=78
16448 On ch=1 n=e6 v=64
16493 On ch=1 n=g5 v=60
16509 On ch=1 n=e5 v=54
16521 Off ch=1 n=f#5 v=0
16533 Off ch=1 n=b4 v=0
16796 Off ch=1 n=e5 v=0
16802 Off ch=1 n=g5 v=0
16805 Off ch=1 n=e6 v=0
16810 On ch=1 n=e5 v=68
16824 On ch=1 n=d6 v=80
16829 On ch=1 n=g#3 v=72
16864 On ch=1 n=f5 v=58
16868 On ch=1 n=b4 v=72
16887 Off ch=1 n=e5 v=0
16927 Off ch=1 n=g#3 v=0
17165 Off ch=1 n=f5 v=0
17167 Off ch=1 n=b4 v=0
17191 On ch=1 n=a#5 v=78
17197 Off ch=1 n=d6 v=0
17200 On ch=1 n=b3 v=80
17208 On ch=1 n=f6 v=80
17229 Par ch=1 c=10 v=64
17234 On ch=1 n=d5 v=74
17245 On ch=1 n=b5 v=54
17283 Off ch=1 n=a#5 v=0
17309 Off ch=1 n=b3 v=0
17313 Par ch=1 c=64 v=127
17559 Off ch=1 n=b5 v=0
17568 Off ch=1 n=d5 v=0
17572 Off ch=1 n=f6 v=0
17575 On ch=1 n=d4 v=74
17578 On ch=1 n=c#6 v=70
17580 Par ch=1 c=64 v=0
17585 On ch=1 n=b6 v=84
17595 On ch=1 n=f5 v=78
17612 On ch=1 n=d6 v=76
17626 Par ch=1 c=64 v=127
17638 Off ch=1 n=c#6 v=0
17671 Off ch=1 n=d4 v=0
17916 Par ch=1 c=64 v=0
17931 Off ch=1 n=d6 v=0
17957 On ch=1 n=e6 v=66
17961 Off ch=1 n=b6 v=0
17966 Off ch=1 n=f5 v=0
17968 On ch=1 n=f4 v=76
17973 On ch=1 n=d7 v=92
17979 On ch=1 n=f6 v=45
17989 Par ch=1 c=64 v=127
18007 Off ch=1 n=e6 v=0
18007 On ch=1 n=g#5 v=92
18055 Off ch=1 n=f4 v=0
18314 Off ch=1 n=f6 v=0
18322 Off ch=1 n=g#5 v=0
18326 Off ch=1 n=d7 v=0
18338 Par ch=1 c=64 v=0
18342 On ch=1 n=e6 v=68
18342 On ch=1 n=d7 v=80
18375 On ch=1 n=g#4 v=53
18375 On ch=1 n=c4 v=86
18376 On ch=1 n=f6 v=58
18382 On ch=1 n=g#5 v=104
18389 On ch=1 n=b4 v=72
18399 Off ch=1 n=e6 v=0
18409 Par ch=1 c=64 v=127
18469 Par ch=1 c=10 v=64
18524 Off ch=1 n=b4 v=0
18524 Off ch=1 n=g#4 v=0
18535 Off ch=1 n=c4 v=0
18541 Off ch=1 n=g#5 v=0
18716 Off ch=1 n=f6 v=0
18723 On ch=1 n=d#6 v=47
18726 Par ch=1 c=64 v=0
18730 Off ch=1 n=d7 v=0
18732 On ch=1 n=c4 v=76
18748 On ch=1 n=c7 v=82
18751 On ch=1 n=a4 v=64
18755 On ch=1 n=e6 v=48
18762 On ch=1 n=a5 v=102
18771 On ch=1 n=c5 v=72
18781 Par ch=1 c=64 v=127
18784 Off ch=1 n=d#6 v=0
18947 Off ch=1 n=c4 v=0
18955 Off ch=1 n=a4 v=0
18957 Off ch=1 n=c5 v=0
18957 Off ch=1 n=a5 v=0
19033 Par ch=1 c=64 v=0
19108 Off ch=1 n=e6 v=0
19115 On ch=1 n=c#6 v=48
19135 Off ch=1 n=c7 v=0
19135 On ch=1 n=b6 v=78
19151 On ch=1 n=d6 v=64
19182 Off ch=1 n=c#6 v=0
19479 Off ch=1 n=b6 v=0
19502 Off ch=1 n=d6 v=0
19504 On ch=1 n=b6 v=80
19521 On ch=1 n=c#6 v=56
19524 Par ch=1 c=10 v=64
19541 On ch=1 n=d3 v=74
19563 On ch=1 n=d6 v=56
19579 Par ch=1 c=64 v=127
19593 Off ch=1 n=c#6 v=0
19598 Off ch=1 n=d3 v=0
19885 Off ch=1 n=d6 v=0
19892 On ch=1 n=a6 v=64
19897 On ch=1 n=b5 v=47
19917 On ch=1 n=d5 v=82
19921 Off ch=1 n=b6 v=0
19935 On ch=1 n=c6 v=41
19961 Off ch=1 n=b5 v=0
20246 On ch=1 n=g#5 v=46
20249 Off ch=1 n=c6 v=0
20278 On ch=1 n=d4 v=62
20290 On ch=1 n=a5 v=62
20293 On ch=1 n=d6 v=62
20310 Off ch=1 n=a6 v=0
20319 Off ch=1 n=g#5 v=0
20351 Par ch=1 c=64 v=0
20395 Off ch=1 n=d6 v=0
20604 Off ch=1 n=a5 v=0
20624 On ch=1 n=g#5 v=52
20659 On ch=1 n=c5 v=78
20661 On ch=1 n=f#4 v=43
20669 On ch=1 n=a5 v=54
20674 Off ch=1 n=d4 v=0
20684 On ch=1 n=d6 v=78
20693 Off ch=1 n=g#5 v=0
20890 Off ch=1 n=f#4 v=0
20890 Off ch=1 n=c5 v=0
20899 Off ch=1 n=d5 v=0
21003 Off ch=1 n=a5 v=0
21018 On ch=1 n=c#6 v=44
21053 On ch=1 n=b6 v=82
21067 On ch=1 n=d6 v=66
21076 Off ch=1 n=d6 v=0
21095 Off ch=1 n=c#6 v=0
21298 Off ch=1 n=b6 v=0
21302 Off ch=1 n=d6 v=0
21427 On ch=1 n=b5 v=46
21430 On ch=1 n=a6 v=68
21449 On ch=1 n=c6 v=53
21474 Off ch=1 n=b5 v=0
21763 Off ch=1 n=a6 v=0
21764 Off ch=1 n=c6 v=0
21807 On ch=1 n=g6 v=82
21808 On ch=1 n=g3 v=74
21840 On ch=1 n=a#5 v=33
21850 Off ch=1 n=g3 v=0
21868 On ch=1 n=b5 v=56
21901 Off ch=1 n=a#5 v=0
21925 Par ch=1 c=64 v=127
22164 Off ch=1 n=b5 v=0
22175 On ch=1 n=c#6 v=45
22199 Off ch=1 n=g6 v=0
22202 On ch=1 n=d5 v=66
22204 On ch=1 n=b6 v=68
22214 On ch=1 n=d6 v=49
22250 Off ch=1 n=c#6 v=0
22449 Off ch=1 n=b6 v=0
22531 Off ch=1 n=d6 v=0
22550 On ch=1 n=c#6 v=41
22566 On ch=1 n=d6 v=66
22576 On ch=1 n=d4 v=51
22585 On ch=1 n=b6 v=76
22615 Off ch=1 n=c#6 v=0
22906 Off ch=1 n=b6 v=0
22916 Par ch=1 c=64 v=0
22925 Off ch=1 n=d6 v=0
22937 On ch=1 n=c#6 v=35
22947 On ch=1 n=d6 v=72
22952 On ch=1 n=b6 v=84
22957 Off ch=1 n=d5 v=0
22967 On ch=1 n=g#3 v=41
22976 Off ch=1 n=d4 v=0
22990 Off ch=1 n=c#6 v=0
23031 Off ch=1 n=g#3 v=0
23106 Par ch=1 c=64 v=127
23309 Off ch=1 n=d6 v=0
23316 On ch=1 n=e6 v=70
23321 On ch=1 n=d5 v=68
23338 On ch=1 n=f6 v=49
23347 On ch=1 n=d7 v=74
23365 Off ch=1 n=b6 v=0
23375 Off ch=1 n=e6 v=0
23684 Off ch=1 n=d7 v=0
23694 On ch=1 n=d4 v=78
23697 Off ch=1 n=f6 v=0
23704 On ch=1 n=c7 v=74
23708 On ch=1 n=d#6 v=54
23742 On ch=1 n=e6 v=62
23770 Off ch=1 n=d#6 v=0
24026 Par ch=1 c=64 v=0
24075 Off ch=1 n=e6 v=0
24077 Off ch=1 n=c7 v=0
24080 On ch=1 n=c#6 v=43
24083 On ch=1 n=a3 v=76
24093 Off ch=1 n=d4 v=0
24101 Off ch=1 n=d5 v=0
24104 On ch=1 n=d6 v=54
24108 On ch=1 n=b6 v=78
24140 Off ch=1 n=c#6 v=0
24150 Off ch=1 n=a3 v=0
24267 Par ch=1 c=64 v=127
24463 Off ch=1 n=d6 v=0
24475 On ch=1 n=b5 v=48
24476 On ch=1 n=d5 v=66
24488 On ch=1 n=a6 v=66
24498 On ch=1 n=c6 v=56
24518 Off ch=1 n=b6 v=0
24526 Off ch=1 n=b5 v=0
24816 Off ch=1 n=c6 v=0
24841 On ch=1 n=g#5 v=47
24865 On ch=1 n=c5 v=46
24865 On ch=1 n=f#4 v=44
24871 On ch=1 n=d4 v=54
24873 On ch=1 n=a5 v=60
24891 On ch=1 n=d6 v=72
24903 Off ch=1 n=g#5 v=0
24919 Off ch=1 n=a6 v=0
25061 Off ch=1 n=c5 v=0
25062 Off ch=1 n=d4 v=0
25070 Off ch=1 n=f#4 v=0
25072 Off ch=1 n=d5 v=0
25200 Off ch=1 n=d6 v=0
25201 Par ch=1 c=64 v=0
25213 Off ch=1 n=a5 v=0
25229 On ch=1 n=g#5 v=37
25254 On ch=1 n=a5 v=51
25266 On ch=1 n=d3 v=74
25273 On ch=1 n=d6 v=70
25292 Off ch=1 n=g#5 v=0
25314 Off ch=1 n=d3 v=0
25345 Par ch=1 c=10 v=64
25424 Par ch=1 c=64 v=127
25506 Off ch=1 n=d6 v=0
25614 Off ch=1 n=a5 v=0
25617 On ch=1 n=a#5 v=49
25645 On ch=1 n=d6 v=68
25650 On ch=1 n=d5 v=78
25670 On ch=1 n=b5 v=50
25695 Off ch=1 n=a#5 v=0
25907 Off ch=1 n=d6 v=0
26000 Off ch=1 n=b5 v=0
26008 On ch=1 n=g5 v=58
26009 On ch=1 n=f#4 v=39
26012 On ch=1 n=c5 v=53
26016 On ch=1 n=d4 v=46
26028 On ch=1 n=d6 v=82
26038 On ch=1 n=a5 v=52
26067 Off ch=1 n=g5 v=0
26316 Off ch=1 n=d6 v=0
26326 Par ch=1 c=64 v=0
26384 Off ch=1 n=a5 v=0
26386 Off ch=1 n=d4 v=0
26390 On ch=1 n=f#5 v=44
26397 Off ch=1 n=c5 v=0
26404 Off ch=1 n=f#4 v=0
26404 On ch=1 n=g3 v=80
26408 On ch=1 n=b5 v=76
26410 Off ch=1 n=d5 v=0
26428 On ch=1 n=g5 v=44
26447 Off ch=1 n=g3 v=0
26456 Off ch=1 n=f#5 v=0
26605 Par ch=1 c=64 v=127
26727 On ch=1 n=e5 v=64
26750 Off ch=1 n=g5 v=0
26758 On ch=1 n=d5 v=68
26774 On ch=1 n=a#5 v=39
26785 Off ch=1 n=b5 v=0
26791 On ch=1 n=d6 v=80
26793 Off ch=1 n=e5 v=0
26808 On ch=1 n=b5 v=52
26838 Off ch=1 n=a#5 v=0
27122 Off ch=1 n=b5 v=0
27132 Off ch=1 n=d6 v=0
27134 On ch=1 n=c#6 v=51
27160 On ch=1 n=d4 v=62
27164 On ch=1 n=b6 v=74
27172 On ch=1 n=d6 v=72
27202 Off ch=1 n=c#6 v=0
27472 Off ch=1 n=b6 v=0
27507 Off ch=1 n=d6 v=0
27516 Par ch=1 c=64 v=0
27528 On ch=1 n=b6 v=76
27529 On ch=1 n=c#6 v=42
27539 On ch=1 n=g#3 v=54
27562 Off ch=1 n=d4 v=0
27572 On ch=1 n=d6 v=52
27581 Off ch=1 n=d5 v=0
27607 Off ch=1 n=c#6 v=0
27629 Off ch=1 n=g#3 v=0
27796 Par ch=1 c=64 v=127
27870 On ch=1 n=e5 v=64
27892 Off ch=1 n=d6 v=0
27899 On ch=1 n=d5 v=64
27906 On ch=1 n=e6 v=68
27924 On ch=1 n=f6 v=46
27925 Off ch=1 n=b6 v=0
27930 Off ch=1 n=e5 v=0
27949 On ch=1 n=d7 v=74
27964 Off ch=1 n=e6 v=0
28271 On ch=1 n=d#6 v=54
28276 Off ch=1 n=d7 v=0
28277 Off ch=1 n=f6 v=0
28300 On ch=1 n=e6 v=54
28318 On ch=1 n=c7 v=66
28330 On ch=1 n=d4 v=80
28340 Off ch=1 n=d#6 v=0
28670 Off ch=1 n=c7 v=0
28677 On ch=1 n=c#6 v=53
28684 Off ch=1 n=e6 v=0
28690 Off ch=1 n=d5 v=0
28704 On ch=1 n=a3 v=88
28704 On ch=1 n=b6 v=74
28705 Off ch=1 n=d4 v=0
28707 On ch=1 n=d6 v=60
28708 Par ch=1 c=64 v=0
28743 Off ch=1 n=c#6 v=0
28779 Off ch=1 n=a3 v=0
28985 Par ch=1 c=64 v=127
29026 On ch=1 n=e5 v=70
29054 Off ch=1 n=d6 v=0
29066 On ch=1 n=d5 v=80
29076 On ch=1 n=b5 v=50
29095 Off ch=1 n=e5 v=0
29106 Off ch=1 n=b6 v=0
29111 On ch=1 n=a6 v=56
29116 On ch=1 n=c6 v=54
29148 Off ch=1 n=b5 v=0
29448 On ch=1 n=g#5 v=48
29462 On ch=1 n=c5 v=62
29463 Off ch=1 n=c6 v=0
29465 On ch=1 n=f#4 v=45
29471 On ch=1 n=d4 v=52
29489 On ch=1 n=d6 v=70
29490 On ch=1 n=a5 v=62
29514 Off ch=1 n=a6 v=0
29524 Off ch=1 n=g#5 v=0
29799 Off ch=1 n=a5 v=0
29805 Off ch=1 n=d6 v=0
29819 On ch=1 n=g#5 v=41
29829 Par ch=1 c=64 v=0
29848 On ch=1 n=a5 v=49
29851 On ch=1 n=d6 v=72
29862 On ch=1 n=d3 v=76
29862 Par ch=1 c=10 v=64
29874 Off ch=1 n=d4 v=0
29878 Off ch=1 n=f#4 v=0
29883 Off ch=1 n=c5 v=0
29885 Off ch=1 n=d5 v=0
29886 Off ch=1 n=g#5 v=0
29909 Off ch=1 n=d3 v=0
30073 Par ch=1 c=64 v=127
30134 Off ch=1 n=d6 v=0
30192 On ch=1 n=e5 v=70
30198 Off ch=1 n=a5 v=0
30204 On ch=1 n=a#5 v=46
30232 On ch=1 n=d5 v=80
30243 On ch=1 n=d6 v=74
30250 On ch=1 n=b5 v=51
30251 Off ch=1 n=e5 v=0
30281 Off ch=1 n=a#5 v=0
30565 Off ch=1 n=d6 v=0
30581 Off ch=1 n=b5 v=0
30591 On ch=1 n=c5 v=66
30595 On ch=1 n=g5 v=50
30597 On ch=1 n=f#4 v=30
30602 On ch=1 n=d4 v=41
30625 On ch=1 n=a5 v=51
30626 On ch=1 n=d6 v=68
30653 Off ch=1 n=g5 v=0
30916 Par ch=1 c=64 v=0
30980 Off ch=1 n=d6 v=0
30987 Off ch=1 n=a5 v=0
31004 On ch=1 n=f#5 v=43
31012 Off ch=1 n=f#4 v=0
31020 Off ch=1 n=c5 v=0
31020 On ch=1 n=g3 v=64
31023 On ch=1 n=b5 v=66
31032 On ch=1 n=g5 v=53
31034 Off ch=1 n=d4 v=0
31062 Off ch=1 n=f#5 v=0
31074 Off ch=1 n=d5 v=0
31139 Par ch=1 c=64 v=127
31247 Off ch=1 n=g3 v=0
31364 Off ch=1 n=g5 v=0
31386 On ch=1 n=a#5 v=39
31397 Off ch=1 n=b5 v=0
31413 On ch=1 n=d6 v=78
31420 On ch=1 n=d5 v=72
31421 On ch=1 n=b5 v=54
31424 On ch=1 n=b4 v=68
31445 Off ch=1 n=a#5 v=0
31718 Off ch=1 n=d5 v=0
31736 Off ch=1 n=b4 v=0
31741 Off ch=1 n=d6 v=0
31746 Off ch=1 n=b5 v=0
31761 On ch=1 n=c#6 v=50
31762 On ch=1 n=g6 v=72
31779 On ch=1 n=g5 v=68
31783 On ch=1 n=d5 v=74
31793 On ch=1 n=d6 v=68
31825 Off ch=1 n=c#6 v=0
31995 Off ch=1 n=g5 v=0
32017 Off ch=1 n=d5 v=0
32112 Off ch=1 n=g6 v=0
32122 Off ch=1 n=d6 v=0
32122 On ch=1 n=g5 v=53
32124 On ch=1 n=b5 v=66
32129 On ch=1 n=b6 v=60
32155 On ch=1 n=f#6 v=50
32176 On ch=1 n=g6 v=42
32208 Off ch=1 n=f#6 v=0
32444 Off ch=1 n=b5 v=0
32460 Off ch=1 n=g5 v=0
32470 Off ch=1 n=g6 v=0
32481 On ch=1 n=a#6 v=50
32485 Off ch=1 n=b6 v=0
32491 On ch=1 n=b6 v=60
32497 On ch=1 n=d6 v=80
32498 On ch=1 n=b5 v=74
32504 On ch=1 n=d7 v=78
32579 Off ch=1 n=a#6 v=0
32822 Off ch=1 n=d6 v=0
32833 Off ch=1 n=b5 v=0
32861 Off ch=1 n=b6 v=0
32869 On ch=1 n=d6 v=84
32869 On ch=1 n=g6 v=88
32870 On ch=1 n=c#7 v=52
32894 Off ch=1 n=d7 v=0
32915 On ch=1 n=d7 v=56
32932 On ch=1 n=g7 v=84
32943 Off ch=1 n=c#7 v=0
33256 Off ch=1 n=g6 v=0
33259 Off ch=1 n=d6 v=0
33292 Off ch=1 n=d7 v=0
33294 On ch=1 n=b6 v=94
33294 On ch=1 n=g6 v=98
33310 On ch=1 n=f#7 v=80
33319 Off ch=1 n=g7 v=0
33320 On ch=1 n=b7 v=96
33354 On ch=1 n=g7 v=74
33379 Off ch=1 n=f#7 v=0
33533 Off ch=1 n=g6 v=0
33534 Off ch=1 n=b6 v=0
33628 Off ch=1 n=g7 v=0
33662 Par ch=1 c=64 v=0
33700 On ch=1 n=g7 v=81
33701 Off ch=1 n=b7 v=0
33705 On ch=1 n=c#7 v=50
33745 On ch=1 n=d7 v=66
33778 Off ch=1 n=c#7 v=0
34061 On ch=1 n=a#6 v=53
34072 Off ch=1 n=d7 v=0
34099 On ch=1 n=b6 v=62
34103 On ch=1 n=d7 v=72
34127 Off ch=1 n=g7 v=0
34130 Off ch=1 n=a#6 v=0
34434 Off ch=1 n=b6 v=0
34445 On ch=1 n=f#6 v=42
34477 Off ch=1 n=d7 v=0
34479 On ch=1 n=b6 v=66
34484 On ch=1 n=g6 v=58
34510 Off ch=1 n=f#6 v=0
34756 Off ch=1 n=b6 v=0
34804 Off ch=1 n=g6 v=0
34832 On ch=1 n=c#6 v=30
34846 On ch=1 n=g6 v=50
34862 On ch=1 n=d6 v=49
34906 Off ch=1 n=c#6 v=0
35161 Off ch=1 n=g6 v=0
35209 On ch=1 n=a#5 v=41
35217 On ch=1 n=d6 v=42
35226 Off ch=1 n=d6 v=0
35254 On ch=1 n=b5 v=37
35278 Off ch=1 n=a#5 v=0
35453 Off ch=1 n=d6 v=0
35531 Off ch=1 n=b5 v=0
35619 On ch=1 n=g4 v=37
35619 On ch=1 n=b3 v=37
35619 On ch=1 n=e3 v=37
35619 Par ch=1 c=10 v=64
35619 On ch=1 n=e5 v=56
35619 On ch=1 n=d#5 v=29
35619 Par ch=1 c=10 v=64
35619 On ch=1 n=b5 v=54
35678 Off ch=1 n=d#5 v=0
35878 Par ch=1 c=10 v=64
35900 Off ch=1 n=b3 v=0
35901 Off ch=1 n=g4 v=0
35916 Off ch=1 n=e3 v=0
35988 On ch=1 n=f#5 v=39
36007 On ch=1 n=g5 v=74
36017 On ch=1 n=e6 v=76
36026 Off ch=1 n=e5 v=0
36033 Off ch=1 n=f#5 v=0
36043 Off ch=1 n=b5 v=0
36356 On ch=1 n=g3 v=39
36380 On ch=1 n=b4 v=54
36383 On ch=1 n=e4 v=51
36384 On ch=1 n=g6 v=80
36388 On ch=1 n=a#5 v=39
36398 Off ch=1 n=e6 v=0
36402 On ch=1 n=b5 v=68
36408 Off ch=1 n=g5 v=0
36432 Off ch=1 n=a#5 v=0
36570 Off ch=1 n=g3 v=0
36581 Off ch=1 n=e4 v=0
36605 Off ch=1 n=b4 v=0
36725 Off ch=1 n=g6 v=0
36748 Off ch=1 n=b5 v=0
36751 On ch=1 n=g6 v=76
36752 On ch=1 n=a3 v=46
36768 On ch=1 n=b5 v=78
36780 On ch=1 n=c5 v=56
36783 On ch=1 n=e4 v=46
36793 On ch=1 n=a5 v=51
36828 Off ch=1 n=b5 v=0
37122 Off ch=1 n=a3 v=0
37131 Off ch=1 n=e4 v=0
37131 Off ch=1 n=c5 v=0
37146 On ch=1 n=f#6 v=58
37151 Off ch=1 n=a5 v=0
37158 On ch=1 n=g#5 v=53
37165 Off ch=1 n=g6 v=0
37189 On ch=1 n=a5 v=47
37220 Off ch=1 n=g#5 v=0
37510 On ch=1 n=a4 v=47
37515 On ch=1 n=c4 v=41
37526 On ch=1 n=e5 v=50
37538 On ch=1 n=c6 v=58
37544 On ch=1 n=a6 v=62
37546 Off ch=1 n=a5 v=0
37556 On ch=1 n=b5 v=35
37567 Off ch=1 n=f#6 v=0
37594 Off ch=1 n=c6 v=0
37792 Off ch=1 n=c4 v=0
37818 Off ch=1 n=e5 v=0
37835 Off ch=1 n=a4 v=0
37901 Off ch=1 n=b5 v=0
37904 On ch=1 n=a4 v=29
37914 On ch=1 n=b3 v=50
37921 On ch=1 n=b5 v=62
37923 On ch=1 n=g6 v=68
37924 On ch=1 n=d#5 v=47
37951 Off ch=1 n=a6 v=0
37952 On ch=1 n=a5 v=51
37986 Off ch=1 n=b5 v=0
38287 Off ch=1 n=a5 v=0
38289 On ch=1 n=g#5 v=46
38291 Off ch=1 n=d#5 v=0
38291 Off ch=1 n=b3 v=0
38300 Off ch=1 n=a4 v=0
38301 On ch=1 n=f#6 v=48
38320 Off ch=1 n=g6 v=0
38326 On ch=1 n=a5 v=44
38370 Off ch=1 n=g#5 v=0
38654 On ch=1 n=b3 v=49
38657 Off ch=1 n=a5 v=0
38668 On ch=1 n=d#4 v=43
38673 On ch=1 n=b5 v=51
38679 On ch=1 n=g6 v=60
38684 On ch=1 n=a5 v=60
38693 Off ch=1 n=f#6 v=0
38721 Off ch=1 n=b5 v=0
38956 Off ch=1 n=b3 v=0
38974 Off ch=1 n=d#4 v=0
39038 On ch=1 n=e3 v=47
39044 On ch=1 n=f#6 v=56
39045 Off ch=1 n=a5 v=0
39054 On ch=1 n=a5 v=46
39073 On ch=1 n=b3 v=62
39074 Off ch=1 n=g6 v=0
39075 On ch=1 n=g4 v=53
39100 On ch=1 n=g5 v=26
39165 Off ch=1 n=a5 v=0
39417 Off ch=1 n=g5 v=0
39422 Off ch=1 n=e3 v=0
39423 On ch=1 n=f#5 v=48
39431 On ch=1 n=e6 v=58
39435 Off ch=1 n=b3 v=0
39456 On ch=1 n=g5 v=52
39457 Off ch=1 n=g4 v=0
39467 Off ch=1 n=f#6 v=0
39486 Off ch=1 n=f#5 v=0
39754 Off ch=1 n=e6 v=0
39770 On ch=1 n=f#3 v=42
39781 On ch=1 n=g#5 v=43
39795 Off ch=1 n=g5 v=0
39798 On ch=1 n=d4 v=52
39799 On ch=1 n=a4 v=58
39805 On ch=1 n=a5 v=58
39821 On ch=1 n=d6 v=56
39838 Off ch=1 n=g#5 v=0
40108 Off ch=1 n=f#3 v=0
40132 Off ch=1 n=d4 v=0
40147 Off ch=1 n=a4 v=0
40161 On ch=1 n=g3 v=52
40171 On ch=1 n=f#5 v=45
40173 Off ch=1 n=a5 v=0
40175 Off ch=1 n=d6 v=0
40179 On ch=1 n=b4 v=68
40191 On ch=1 n=d4 v=51
40200 On ch=1 n=g5 v=49
40210 On ch=1 n=d6 v=84
40233 Off ch=1 n=f#5 v=0
40571 On ch=1 n=a#5 v=46
40579 On ch=1 n=g6 v=80
40586 On ch=1 n=b5 v=54
40587 Off ch=1 n=g5 v=0
40609 Off ch=1 n=d4 v=0
40610 Off ch=1 n=g3 v=0
40612 Off ch=1 n=b4 v=0
40613 Off ch=1 n=d6 v=0
40660 Off ch=1 n=a#5 v=0
40919 On ch=1 n=b3 v=50
40943 On ch=1 n=g4 v=54
40948 On ch=1 n=d5 v=74
40958 On ch=1 n=c#6 v=47
40968 On ch=1 n=d6 v=74
40969 Off ch=1 n=b5 v=0
40974 On ch=1 n=b6 v=66
41009 Off ch=1 n=g6 v=0
41012 Off ch=1 n=c#6 v=0
41232 Off ch=1 n=b3 v=0
41266 Off ch=1 n=d5 v=0
41289 Off ch=1 n=g4 v=0
41307 On ch=1 n=c4 v=44
41313 Off ch=1 n=d6 v=0
41319 Off ch=1 n=b6 v=0
41329 On ch=1 n=e5 v=74
41332 On ch=1 n=g4 v=62
41337 On ch=1 n=d6 v=74
41339 On ch=1 n=b6 v=72
41347 On ch=1 n=c6 v=54
41397 Off ch=1 n=d6 v=0
41665 Off ch=1 n=g4 v=0
41670 Off ch=1 n=e5 v=0
41672 Off ch=1 n=c4 v=0
41701 Off ch=1 n=c6 v=0
41709 On ch=1 n=a6 v=56
41713 On ch=1 n=b5 v=56
41724 On ch=1 n=c6 v=66
41738 Off ch=1 n=b6 v=0
41793 Off ch=1 n=b5 v=0
42099 Off ch=1 n=c6 v=0
42104 On ch=1 n=e6 v=56
42106 On ch=1 n=c5 v=41
42107 On ch=1 n=c4 v=48
42116 On ch=1 n=g5 v=71
42123 On ch=1 n=d6 v=48
42144 On ch=1 n=c7 v=66
42154 Off ch=1 n=e6 v=0
42162 Off ch=1 n=a6 v=0
42349 Off ch=1 n=g5 v=0
42374 Off ch=1 n=c5 v=0
42377 Off ch=1 n=c4 v=0
42496 Off ch=1 n=d6 v=0
42497 On ch=1 n=b5 v=64
42498 On ch=1 n=d4 v=48
42504 On ch=1 n=c5 v=71
42504 On ch=1 n=a6 v=56
42508 On ch=1 n=f#5 v=62
42508 On ch=1 n=c6 v=68
42531 Off ch=1 n=c7 v=0
42562 Off ch=1 n=b5 v=0
42632 Par ch=1 c=64 v=127
42790 Off ch=1 n=d4 v=0
42796 Off ch=1 n=c5 v=0
42805 Off ch=1 n=f#5 v=0
42852 On ch=1 n=g3 v=49
42871 On ch=1 n=b6 v=58
42875 On ch=1 n=d4 v=48
42885 On ch=1 n=b4 v=68
42886 On ch=1 n=c#6 v=52
42889 Off ch=1 n=c6 v=0
42892 Off ch=1 n=a6 v=0
42902 On ch=1 n=d6 v=50
42918 Par ch=1 c=64 v=0
42985 Off ch=1 n=c#6 v=0
43174 Off ch=1 n=b4 v=0
43193 Off ch=1 n=g3 v=0
43214 Off ch=1 n=d4 v=0
43239 Off ch=1 n=d6 v=0
43241 On ch=1 n=a#5 v=58
43260 On ch=1 n=c4 v=60
43268 On ch=1 n=g4 v=56
43269 On ch=1 n=g6 v=60
43275 On ch=1 n=b5 v=49
43287 Off ch=1 n=b6 v=0
43289 On ch=1 n=e5 v=52
43312 Off ch=1 n=a#5 v=0
43361 Par ch=1 c=64 v=127
43571 Off ch=1 n=e5 v=0
43581 Off ch=1 n=c4 v=0
43591 Off ch=1 n=g4 v=0
43593 On ch=1 n=f#3 v=47
43596 Off ch=1 n=b5 v=0
43623 On ch=1 n=a4 v=42
43624 On ch=1 n=c4 v=46
43625 On ch=1 n=b5 v=70
43633 On ch=1 n=a6 v=47
43639 On ch=1 n=c6 v=53
43657 Off ch=1 n=g6 v=0
43705 Off ch=1 n=b5 v=0
43724 Par ch=1 c=64 v=0
43924 Off ch=1 n=c4 v=0
43934 Off ch=1 n=f#3 v=0
43941 Off ch=1 n=a4 v=0
44010 Off ch=1 n=c6 v=0
44011 On ch=1 n=g#5 v=54
44037 On ch=1 n=f#6 v=45
44041 On ch=1 n=a5 v=48
44057 Off ch=1 n=a6 v=0
44076 Off ch=1 n=g#5 v=0
44376 On ch=1 n=f#4 v=43
44384 Off ch=1 n=a5 v=0
44392 On ch=1 n=b3 v=48
44399 On ch=1 n=d#5 v=49
44399 On ch=1 n=b5 v=62
44413 On ch=1 n=g6 v=58
44420 On ch=1 n=a5 v=47
44444 Off ch=1 n=f#6 v=0
44455 Off ch=1 n=b5 v=0
44509 Par ch=1 c=64 v=127
44648 Off ch=1 n=b3 v=0
44652 Off ch=1 n=f#4 v=0
44656 Off ch=1 n=d#5 v=0
44716 Off ch=1 n=a5 v=0
44736 Off ch=1 n=g6 v=0
44789 Par ch=1 c=64 v=0
44805 On ch=1 n=e3 v=45
44807 On ch=1 n=b5 v=47
44807 On ch=1 n=d#5 v=33
44834 Par ch=1 c=10 v=64
44932 Par ch=1 c=10 v=64
44981 On ch=1 n=e5 v=53
44983 Off ch=1 n=b5 v=0
44990 Off ch=1 n=d#5 v=0
44996 On ch=1 n=g4 v=58
45033 Off ch=1 n=e3 v=0
45164 Off ch=1 n=e5 v=0
45176 On ch=1 n=f#5 v=39
45179 On ch=1 n=e4 v=53
45179 On ch=1 n=e6 v=47
45193 Off ch=1 n=g4 v=0
45341 Off ch=1 n=f#5 v=0
45360 On ch=1 n=g5 v=48
45364 Off ch=1 n=e6 v=0
45367 On ch=1 n=g4 v=56
45385 Off ch=1 n=e4 v=0
45548 On ch=1 n=a#5 v=46
45550 On ch=1 n=g6 v=74
45553 On ch=1 n=b3 v=52
45558 Off ch=1 n=g5 v=0
45568 Off ch=1 n=g4 v=0
45743 On ch=1 n=e3 v=54
45743 On ch=1 n=b5 v=64
45754 Off ch=1 n=a#5 v=0
45763 Off ch=1 n=b3 v=0
45875 Off ch=1 n=g6 v=0
45904 Off ch=1 n=b5 v=0
45929 On ch=1 n=g6 v=74
45930 On ch=1 n=b5 v=60
45939 On ch=1 n=a3 v=46
45944 Off ch=1 n=e3 v=0
46115 On ch=1 n=c5 v=52
46134 On ch=1 n=a5 v=53
46137 Off ch=1 n=a3 v=0
46157 Off ch=1 n=g6 v=0
46159 Off ch=1 n=b5 v=0
46312 On ch=1 n=f#4 v=43
46320 On ch=1 n=f#6 v=51
46321 Off ch=1 n=c5 v=0
46321 On ch=1 n=g#5 v=45
46343 Off ch=1 n=a5 v=0
46502 Off ch=1 n=g#5 v=0
46505 On ch=1 n=a5 v=66
46514 On ch=1 n=c5 v=68
46532 Off ch=1 n=f#4 v=0
46533 Off ch=1 n=f#6 v=0
46692 On ch=1 n=f#4 v=43
46697 Off ch=1 n=c5 v=0
46708 On ch=1 n=a6 v=60
46710 On ch=1 n=c6 v=47
46711 Off ch=1 n=a5 v=0
46892 On ch=1 n=a3 v=64
46892 On ch=1 n=b5 v=54
46895 Off ch=1 n=f#4 v=0
46915 Off ch=1 n=c6 v=0
46916 Off ch=1 n=a6 v=0
47058 Off ch=1 n=b5 v=0
47080 On ch=1 n=g6 v=58
47082 On ch=1 n=b5 v=56
47092 On ch=1 n=b3 v=62
47113 Off ch=1 n=a3 v=0
47279 On ch=1 n=d#5 v=42
47284 On ch=1 n=a5 v=52
47286 Off ch=1 n=g6 v=0
47300 Off ch=1 n=b3 v=0
47304 Off ch=1 n=b5 v=0
47475 On ch=1 n=f#4 v=49
47483 On ch=1 n=g#5 v=47
47483 On ch=1 n=f#6 v=52
47487 Off ch=1 n=d#5 v=0
47508 Off ch=1 n=a5 v=0
47656 On ch=1 n=d#5 v=47
47677 On ch=1 n=a5 v=62
47678 Off ch=1 n=f#4 v=0
47684 Off ch=1 n=g#5 v=0
47716 Off ch=1 n=f#6 v=0
47863 On ch=1 n=g6 v=72
47865 On ch=1 n=a4 v=78
47867 On ch=1 n=b5 v=53
47884 Off ch=1 n=a5 v=0
47886 Off ch=1 n=d#5 v=0
48037 On ch=1 n=a5 v=53
48053 On ch=1 n=b3 v=80
48056 Off ch=1 n=b5 v=0
48062 Off ch=1 n=a4 v=0
48069 Off ch=1 n=g6 v=0
48193 Off ch=1 n=a5 v=0
48235 On ch=1 n=a5 v=58
48236 On ch=1 n=f#6 v=51
48242 On ch=1 n=e4 v=64
48257 Off ch=1 n=b3 v=0
48422 On ch=1 n=e5 v=74
48432 On ch=1 n=g5 v=58
48437 Off ch=1 n=e4 v=0
48440 Off ch=1 n=f#6 v=0
48450 Off ch=1 n=a5 v=0
48614 On ch=1 n=b4 v=70
48629 On ch=1 n=f#5 v=43
48629 On ch=1 n=e6 v=58
48637 Off ch=1 n=e5 v=0
48655 Off ch=1 n=g5 v=0
48806 On ch=1 n=e5 v=62
48816 On ch=1 n=g5 v=56
48818 Off ch=1 n=b4 v=0
48819 Off ch=1 n=f#5 v=0
48884 Off ch=1 n=e6 v=0
48996 Off ch=1 n=e5 v=0
49006 On ch=1 n=g#3 v=62
49015 On ch=1 n=d6 v=66
49020 On ch=1 n=e5 v=54
49024 Off ch=1 n=g5 v=0
49189 On ch=1 n=b4 v=70
49195 On ch=1 n=f5 v=48
49215 Off ch=1 n=e5 v=0
49221 Off ch=1 n=g#3 v=0
49309 Off ch=1 n=d6 v=0
49389 On ch=1 n=d4 v=74
49407 Off ch=1 n=b4 v=0
49419 Off ch=1 n=f5 v=0
49427 On ch=1 n=f#6 v=48
49430 On ch=1 n=f6 v=45
49439 On ch=1 n=a#5 v=45
49523 Off ch=1 n=f#6 v=0
49589 Off ch=1 n=a#5 v=0
49598 On ch=1 n=b5 v=55
49607 On ch=1 n=f5 v=60
49615 Off ch=1 n=f6 v=0
49635 Off ch=1 n=d4 v=0
49777 Off ch=1 n=b5 v=0
49780 On ch=1 n=c#6 v=45
49783 On ch=1 n=b6 v=74
49797 Off ch=1 n=f5 v=0
49799 On ch=1 n=f4 v=62
49941 Off ch=1 n=c#6 v=0
49943 On ch=1 n=d6 v=81
49949 Off ch=1 n=b6 v=0
49986 On ch=1 n=g#5 v=74
50013 Off ch=1 n=f4 v=0
50116 Off ch=1 n=d6 v=0
50128 On ch=1 n=e6 v=90
50128 On ch=1 n=d7 v=90
50150 On ch=1 n=g#4 v=88
50160 Off ch=1 n=g#5 v=0
50318 On ch=1 n=b5 v=104
50333 On ch=1 n=f6 v=114
50339 Off ch=1 n=g#4 v=0
50356 Off ch=1 n=e6 v=0
50357 Off ch=1 n=d7 v=0
50459 Off ch=1 n=b5 v=0
50480 Off ch=1 n=f6 v=0
50553 Par ch=1 c=10 v=64
50553 On ch=1 n=c7 v=86
50553 On ch=1 n=g6 v=88
50553 On ch=1 n=e6 v=78
50553 On ch=1 n=a#4 v=72
50553 On ch=1 n=c5 v=90
50553 On ch=1 n=g5 v=88
50724 Off ch=1 n=e6 v=0
50725 Off ch=1 n=c7 v=0
50732 Off ch=1 n=g6 v=0
50738 Off ch=1 n=g5 v=0
50741 Off ch=1 n=c5 v=0
50741 On ch=1 n=e8 v=102
50741 On ch=1 n=a#3 v=96
50742 Off ch=1 n=a#4 v=0
50856 Par ch=1 c=64 v=127
50875 Off ch=1 n=a#3 v=0
50970 Off ch=1 n=e8 v=0
51298 Par ch=1 c=64 v=0
51705 On ch=1 n=b3 v=60
51705 On ch=1 n=g6 v=54
51705 On ch=1 n=b5 v=58
51705 On ch=1 n=b6 v=90
51705 Par ch=1 c=10 v=64
51712 On ch=1 n=b4 v=96
51728 On ch=1 n=g5 v=100
51810 Off ch=1 n=b4 v=0
51840 Off ch=1 n=g5 v=0
51862 Off ch=1 n=b3 v=0
51876 Par ch=1 c=64 v=127
51897 On ch=1 n=b2 v=98
51905 On ch=1 n=b7 v=100
51908 Off ch=1 n=b6 v=0
51916 Off ch=1 n=g6 v=0
51921 Off ch=1 n=b5 v=0
52036 Off ch=1 n=b2 v=0
52079 Off ch=1 n=b7 v=0
52471 Par ch=1 c=64 v=0
52857 On ch=1 n=d#5 v=92
52857 On ch=1 n=f#4 v=84
52857 On ch=1 n=b3 v=98
52857 On ch=1 n=b6 v=88
52857 On ch=1 n=b5 v=92
52857 On ch=1 n=d#6 v=96
52857 Par ch=1 c=10 v=64
52943 Off ch=1 n=f#4 v=0
52996 Off ch=1 n=d#5 v=0
53049 On ch=1 n=b2 v=98
53051 Off ch=1 n=b3 v=0
53071 On ch=1 n=b7 v=92
53072 Off ch=1 n=b5 v=0
53074 Off ch=1 n=d#6 v=0
53076 Off ch=1 n=b6 v=0
53142 Par ch=1 c=64 v=127
53170 Off ch=1 n=b2 v=0
53219 Off ch=1 n=b7 v=0
53873 Par ch=1 c=64 v=0
54009 Par ch=1 c=10 v=64
54009 Par ch=1 c=10 v=64
54024 On ch=1 n=b4 v=51
54034 On ch=1 n=b4 v=74
54041 On ch=1 n=e4 v=46
54147 Par ch=1 c=64 v=127
54147 On ch=1 n=b5 v=52
54149 On ch=1 n=e5 v=49
54155 Off ch=1 n=b4 v=0
54261 Off ch=1 n=b5 v=0
54272 On ch=1 n=g#5 v=54
54291 Off ch=1 n=e5 v=0
54400 On ch=1 n=b5 v=54
54402 Off ch=1 n=g#5 v=0
54515 Off ch=1 n=b5 v=0
54522 On ch=1 n=e6 v=47
54522 On ch=1 n=b6 v=50
54635 Off ch=1 n=b6 v=0
54644 On ch=1 n=g#6 v=46
54658 Off ch=1 n=e6 v=0
54755 On ch=1 n=c#5 v=86
54779 On ch=1 n=b6 v=56
54782 Off ch=1 n=g#6 v=0
54786 Off ch=1 n=b4 v=0
54859 Par ch=1 c=64 v=0
54909 Off ch=1 n=b6 v=0
54911 On ch=1 n=b7 v=47
54915 On ch=1 n=e7 v=48
54921 Par ch=1 c=64 v=127
55031 On ch=1 n=g#7 v=47
55041 Off ch=1 n=b7 v=0
55042 Off ch=1 n=e7 v=0
55109 Par ch=1 c=64 v=0
55129 Off ch=1 n=c#5 v=0
55141 On ch=1 n=f#4 v=46
55144 On ch=1 n=d#4 v=39
55145 On ch=1 n=c#5 v=82
55167 On ch=1 n=b6 v=56
55169 Off ch=1 n=e4 v=0
55177 Off ch=1 n=g#7 v=0
55245 Par ch=1 c=64 v=127
55295 On ch=1 n=b7 v=58
55297 On ch=1 n=d#7 v=41
55304 Off ch=1 n=b6 v=0
55416 On ch=1 n=f#7 v=47
55420 Off ch=1 n=b7 v=0
55443 Off ch=1 n=d#7 v=0
55559 On ch=1 n=b6 v=60
55576 Off ch=1 n=f#7 v=0
55640 Off ch=1 n=b6 v=0
55681 On ch=1 n=b6 v=52
55685 On ch=1 n=d#6 v=46
55801 On ch=1 n=f#6 v=56
55811 Off ch=1 n=b6 v=0
55823 Off ch=1 n=d#6 v=0
55927 On ch=1 n=b5 v=60
55939 On ch=1 n=b4 v=72
55944 Off ch=1 n=f#6 v=0
55962 Par ch=1 c=64 v=0
55971 Off ch=1 n=c#5 v=0
56011 Off ch=1 n=b5 v=0
56016 Par ch=1 c=64 v=127
56066 On ch=1 n=d#5 v=52
56066 On ch=1 n=b5 v=48
56124 Off ch=1 n=f#4 v=0
56140 Off ch=1 n=d#4 v=0
56183 Off ch=1 n=b5 v=0
56183 On ch=1 n=f#5 v=62
56198 Off ch=1 n=d#5 v=0
56294 Off ch=1 n=f#5 v=0
56304 Off ch=1 n=b4 v=0
56311 Par ch=1 c=64 v=0
56316 On ch=1 n=c#4 v=54
56317 On ch=1 n=c#3 v=68
56317 On ch=1 n=g#4 v=43
56319 On ch=1 n=g#4 v=46
56371 Par ch=1 c=64 v=127
56437 On ch=1 n=g#5 v=29
56440 On ch=1 n=c#5 v=20
56446 On ch=1 n=g#5 v=33
56452 Off ch=1 n=g#4 v=0
56457 On ch=1 n=c#5 v=20
56468 Off ch=1 n=g#4 v=0
56546 On ch=1 n=e5 v=51
56548 Off ch=1 n=g#5 v=0
56562 Off ch=1 n=c#5 v=0
56571 Off ch=1 n=g#5 v=0
56588 Off ch=1 n=c#5 v=0
56624 Off ch=1 n=e5 v=0
56657 On ch=1 n=g#4 v=64
56664 On ch=1 n=g#5 v=56
56664 On ch=1 n=f#5 v=53
56674 Off ch=1 n=c#4 v=0
56681 Off ch=1 n=c#3 v=0
56713 Off ch=1 n=f#5 v=0
56791 On ch=1 n=g#6 v=43
56792 On ch=1 n=c#6 v=26
56811 Off ch=1 n=g#5 v=0
56910 On ch=1 n=e6 v=58
56912 Off ch=1 n=g#6 v=0
56922 Off ch=1 n=c#6 v=0
56967 Par ch=1 c=64 v=0
56986 Off ch=1 n=e6 v=0
57007 Par ch=1 c=64 v=127
57024 On ch=1 n=a4 v=66
57039 On ch=1 n=a6 v=72
57047 Off ch=1 n=g#4 v=0
57169 On ch=1 n=c#7 v=37
57170 On ch=1 n=a7 v=58
57175 Off ch=1 n=a6 v=0
57301 On ch=1 n=e7 v=64
57306 Off ch=1 n=a7 v=0
57315 Off ch=1 n=c#7 v=0
57398 Par ch=1 c=64 v=0
57410 Off ch=1 n=a4 v=0
57428 On ch=1 n=a4 v=76
57435 On ch=1 n=c4 v=62
57446 Par ch=1 c=64 v=127
57448 Off ch=1 n=e7 v=0
57449 On ch=1 n=a6 v=64
57578 Off ch=1 n=a6 v=0
57579 On ch=1 n=c7 v=49
57581 On ch=1 n=a7 v=46
57696 Off ch=1 n=a7 v=0
57701 On ch=1 n=d#7 v=52
57720 Off ch=1 n=c7 v=0
57826 On ch=1 n=a6 v=49
57836 Off ch=1 n=d#7 v=0
57916 Off ch=1 n=a6 v=0
57959 On ch=1 n=c6 v=28
57959 On ch=1 n=a6 v=29
58083 On ch=1 n=d#6 v=48
58084 Off ch=1 n=a6 v=0
58101 Off ch=1 n=c6 v=0
58202 On ch=1 n=a5 v=52
58212 Off ch=1 n=d#6 v=0
58227 Off ch=1 n=a4 v=0
58227 On ch=1 n=g#4 v=76
58238 Par ch=1 c=64 v=0
58249 Off ch=1 n=c4 v=0
58291 Off ch=1 n=a5 v=0
58301 Par ch=1 c=64 v=127
58335 On ch=1 n=g#5 v=46
58340 On ch=1 n=c5 v=47
58466 On ch=1 n=d#5 v=33
58472 Off ch=1 n=c5 v=0
58476 Off ch=1 n=g#5 v=0
58573 Off ch=1 n=d#5 v=0
58583 Par ch=1 c=64 v=0
58588 On ch=1 n=e4 v=72
58589 On ch=1 n=a3 v=50
58599 Par ch=1 c=10 v=64
58607 On ch=1 n=g#4 v=49
58617 Off ch=1 n=g#4 v=0
58724 On ch=1 n=a4 v=52
58725 On ch=1 n=e5 v=62
58736 Off ch=1 n=g#4 v=0
58835 Off ch=1 n=e5 v=0
58844 On ch=1 n=c#5 v=51
58852 Off ch=1 n=a4 v=0
58948 Off ch=1 n=c#5 v=0
58950 On ch=1 n=d#4 v=78
58975 Off ch=1 n=e4 v=0
58975 On ch=1 n=e5 v=58
59103 On ch=1 n=a5 v=62
59105 On ch=1 n=e6 v=53
59107 Off ch=1 n=e5 v=0
59181 Off ch=1 n=a3 v=0
59215 Off ch=1 n=e6 v=0
59222 On ch=1 n=c#6 v=62
59234 Off ch=1 n=a5 v=0
59317 Off ch=1 n=c#6 v=0
59349 On ch=1 n=e6 v=64
59350 On ch=1 n=c#4 v=86
59378 Off ch=1 n=d#4 v=0
59487 On ch=1 n=e7 v=64
59487 On ch=1 n=a6 v=52
59490 Off ch=1 n=e6 v=0
59609 On ch=1 n=c#7 v=60
59610 Off ch=1 n=e7 v=0
59626 Off ch=1 n=a6 v=0
59737 On ch=1 n=b3 v=78
59740 On ch=1 n=e3 v=52
59744 Off ch=1 n=c#7 v=0
59752 On ch=1 n=e7 v=62
59764 Off ch=1 n=c#4 v=0
59869 Par ch=1 c=64 v=127
59883 On ch=1 n=g#7 v=50
59885 On ch=1 n=e8 v=72
59889 Off ch=1 n=e7 v=0
59996 On ch=1 n=b7 v=82
60006 Off ch=1 n=e8 v=0
60008 Off ch=1 n=g#7 v=0
60096 Off ch=1 n=b7 v=0
60120 On ch=1 n=e4 v=78
60134 On ch=1 n=e7 v=74
60251 Off ch=1 n=e7 v=0
60273 On ch=1 n=e7 v=54
60273 On ch=1 n=b7 v=56
60334 Off ch=1 n=b3 v=0
60401 Off ch=1 n=b7 v=0
60403 On ch=1 n=g#7 v=49
60412 Off ch=1 n=e7 v=0
60515 On ch=1 n=g#4 v=72
60539 Par ch=1 c=64 v=0
60540 Off ch=1 n=e4 v=0
60540 On ch=1 n=b6 v=60
60551 Off ch=1 n=g#7 v=0
60554 Off ch=1 n=e3 v=0
60588 Par ch=1 c=64 v=127
60650 Off ch=1 n=b6 v=0
60665 On ch=1 n=g#7 v=43
60669 On ch=1 n=b6 v=52
60784 On ch=1 n=e7 v=56
60792 Off ch=1 n=b6 v=0
60797 Off ch=1 n=g#7 v=0
60904 Par ch=1 c=64 v=0
60907 On ch=1 n=d#4 v=46
60910 Off ch=1 n=e7 v=0
60912 On ch=1 n=g#6 v=51
60913 On ch=1 n=b4 v=78
60940 Off ch=1 n=g#4 v=0
60975 Par ch=1 c=64 v=127
61022 Off ch=1 n=g#6 v=0
61032 On ch=1 n=g#6 v=22
61033 On ch=1 n=d#7 v=46
61142 On ch=1 n=b6 v=74
61152 Off ch=1 n=d#7 v=0
61155 Off ch=1 n=g#6 v=0
61253 On ch=1 n=d#5 v=72
61263 Off ch=1 n=b6 v=0
61265 On ch=1 n=d#6 v=51
61276 Off ch=1 n=b4 v=0
61380 Off ch=1 n=d#6 v=0
61397 On ch=1 n=d#6 v=33
61398 On ch=1 n=b6 v=53
61515 On ch=1 n=g#6 v=41
61517 Off ch=1 n=d#6 v=0
61528 Off ch=1 n=b6 v=0
61624 Par ch=1 c=64 v=0
61643 On ch=1 n=c#5 v=78
61650 Off ch=1 n=g#6 v=0
61651 On ch=1 n=g5 v=70
61673 Par ch=1 c=64 v=127
61683 Off ch=1 n=d#4 v=0
61684 Off ch=1 n=d#5 v=0
61788 Off ch=1 n=g5 v=0
61795 On ch=1 n=g#6 v=42
61798 On ch=1 n=a#5 v=68
61842 Off ch=1 n=a#5 v=0
61916 On ch=1 n=d#6 v=53
61939 Off ch=1 n=g#6 v=0
61944 On ch=1 n=g#3 v=64
62016 Par ch=1 c=64 v=0
62017 Off ch=1 n=d#6 v=0
62044 Off ch=1 n=c#5 v=0
62052 On ch=1 n=g#5 v=31
62072 On ch=1 n=b4 v=74
62083 Par ch=1 c=64 v=127
62169 On ch=1 n=g#6 v=42
62172 On ch=1 n=b5 v=49
62205 Off ch=1 n=g#5 v=0
62289 On ch=1 n=d#6 v=45
62290 Off ch=1 n=g#6 v=0
62297 Off ch=1 n=b5 v=0
62398 Off ch=1 n=d#6 v=0
62404 Par ch=1 c=64 v=0
62413 On ch=1 n=d#5 v=54
62427 On ch=1 n=a#4 v=78
62453 Off ch=1 n=b4 v=0
62544 On ch=1 n=g#5 v=35
62545 On ch=1 n=d#6 v=31
62565 Off ch=1 n=d#5 v=0
62658 On ch=1 n=b5 v=53
62659 Off ch=1 n=d#6 v=0
62664 Off ch=1 n=g#5 v=0
62752 Off ch=1 n=b5 v=0
62784 On ch=1 n=a4 v=72
62789 On ch=1 n=b3 v=54
62789 On ch=1 n=b4 v=62
62809 Off ch=1 n=g#3 v=0
62810 Off ch=1 n=a#4 v=0
62929 On ch=1 n=d#5 v=39
62931 On ch=1 n=b5 v=54
62938 Off ch=1 n=b4 v=0
63051 On ch=1 n=e3 v=82
63053 On ch=1 n=f#5 v=45
63060 Off ch=1 n=b5 v=0
63068 Off ch=1 n=d#5 v=0
63168 Off ch=1 n=f#5 v=0
63188 On ch=1 n=g#4 v=88
63204 Par ch=1 c=10 v=64
63214 Off ch=1 n=a4 v=0
63219 On ch=1 n=b4 v=51
63338 Par ch=1 c=64 v=127
63342 On ch=1 n=b5 v=52
63344 On ch=1 n=e5 v=49
63350 Off ch=1 n=b4 v=0
63456 Off ch=1 n=b5 v=0
63467 On ch=1 n=g#5 v=54
63486 Off ch=1 n=e5 v=0
63541 Off ch=1 n=b3 v=0
63544 Off ch=1 n=e3 v=0
63552 Off ch=1 n=g#4 v=0
63595 On ch=1 n=b5 v=54
63597 Off ch=1 n=g#5 v=0
63597 On ch=1 n=b4 v=86
63710 Off ch=1 n=b5 v=0
63717 On ch=1 n=e6 v=47
63717 On ch=1 n=b6 v=50
63771 Par ch=1 c=10 v=64
63830 Off ch=1 n=b6 v=0
63839 On ch=1 n=g#6 v=46
63853 Off ch=1 n=e6 v=0
63974 On ch=1 n=b6 v=56
63977 Off ch=1 n=g#6 v=0
64008 Par ch=1 c=64 v=0
64060 Par ch=1 c=64 v=127
64104 Off ch=1 n=b6 v=0
64106 On ch=1 n=b7 v=47
64110 On ch=1 n=e7 v=48
64160 On ch=1 n=c#5 v=74
64188 Off ch=1 n=b4 v=0
64226 On ch=1 n=g#7 v=47
64236 Off ch=1 n=b7 v=0
64237 Off ch=1 n=e7 v=0
64349 Off ch=1 n=c#5 v=0
64357 Par ch=1 c=64 v=0
64362 On ch=1 n=b6 v=56
64370 On ch=1 n=c#5 v=78
64372 Off ch=1 n=g#7 v=0
64372 On ch=1 n=d#4 v=33
64374 On ch=1 n=f#4 v=30
64429 Par ch=1 c=64 v=127
64490 On ch=1 n=b7 v=58
64492 On ch=1 n=d#7 v=41
64499 Off ch=1 n=b6 v=0
64611 On ch=1 n=f#7 v=47
64615 Off ch=1 n=b7 v=0
64638 Off ch=1 n=d#7 v=0
64754 On ch=1 n=b6 v=60
64771 Off ch=1 n=f#7 v=0
64835 Off ch=1 n=b6 v=0
64876 On ch=1 n=b6 v=52
64880 On ch=1 n=d#6 v=46
64996 On ch=1 n=f#6 v=56
65006 Off ch=1 n=b6 v=0
65018 Off ch=1 n=d#6 v=0
65117 On ch=1 n=b4 v=70
65120 Par ch=1 c=64 v=0
65122 On ch=1 n=b5 v=60
65139 Off ch=1 n=f#6 v=0
65146 Off ch=1 n=c#5 v=0
65206 Off ch=1 n=b5 v=0
65261 On ch=1 n=d#5 v=52
65261 On ch=1 n=b5 v=48
65315 Off ch=1 n=f#4 v=0
65329 Off ch=1 n=d#4 v=0
65378 Off ch=1 n=b5 v=0
65378 On ch=1 n=f#5 v=62
65393 Off ch=1 n=d#5 v=0
65466 Off ch=1 n=b4 v=0
65489 Off ch=1 n=f#5 v=0
65491 On ch=1 n=c#4 v=64
65491 On ch=1 n=c#3 v=64
65512 On ch=1 n=g#4 v=43
65514 On ch=1 n=g#4 v=46
65632 On ch=1 n=g#5 v=29
65635 On ch=1 n=c#5 v=20
65641 On ch=1 n=g#5 v=33
65647 Off ch=1 n=g#4 v=0
65652 On ch=1 n=c#5 v=20
65663 Off ch=1 n=g#4 v=0
65669 Par ch=1 c=64 v=127
65741 On ch=1 n=e5 v=51
65743 Off ch=1 n=g#5 v=0
65757 Off ch=1 n=c#5 v=0
65766 Off ch=1 n=g#5 v=0
65783 Off ch=1 n=c#5 v=0
65819 Off ch=1 n=e5 v=0
65856 On ch=1 n=g#4 v=56
65859 On ch=1 n=g#5 v=56
65859 On ch=1 n=f#5 v=53
65881 Off ch=1 n=c#4 v=0
65883 Off ch=1 n=c#3 v=0
65911 Off ch=1 n=f#5 v=0
65989 On ch=1 n=g#6 v=43
65990 On ch=1 n=c#6 v=26
66009 Off ch=1 n=g#5 v=0
66108 On ch=1 n=e6 v=58
66110 Off ch=1 n=g#6 v=0
66120 Off ch=1 n=c#6 v=0
66171 Par ch=1 c=64 v=0
66181 Off ch=1 n=e6 v=0
66216 Par ch=1 c=64 v=127
66234 On ch=1 n=a6 v=72
66364 On ch=1 n=c#7 v=37
66365 On ch=1 n=a7 v=58
66370 Off ch=1 n=a6 v=0
66400 On ch=1 n=a4 v=78
66421 Off ch=1 n=g#4 v=0
66496 On ch=1 n=e7 v=64
66501 Off ch=1 n=a7 v=0
66510 Off ch=1 n=c#7 v=0
66598 Par ch=1 c=64 v=0
66606 Off ch=1 n=a4 v=0
66622 On ch=1 n=a4 v=80
66625 On ch=1 n=c4 v=47
66643 Off ch=1 n=e7 v=0
66644 On ch=1 n=a6 v=64
66661 Par ch=1 c=64 v=127
66773 Off ch=1 n=a6 v=0
66774 On ch=1 n=c7 v=49
66776 On ch=1 n=a7 v=46
66891 Off ch=1 n=a7 v=0
66896 On ch=1 n=d#7 v=52
66915 Off ch=1 n=c7 v=0
67021 On ch=1 n=a6 v=49
67031 Off ch=1 n=d#7 v=0
67111 Off ch=1 n=a6 v=0
67154 On ch=1 n=c6 v=28
67154 On ch=1 n=a6 v=29
67278 On ch=1 n=d#6 v=48
67279 Off ch=1 n=a6 v=0
67296 Off ch=1 n=c6 v=0
67395 On ch=1 n=g#4 v=80
67397 On ch=1 n=a5 v=52
67407 Off ch=1 n=d#6 v=0
67409 Par ch=1 c=64 v=0
67429 Off ch=1 n=a4 v=0
67465 Off ch=1 n=c4 v=0
67479 Par ch=1 c=64 v=127
67486 Off ch=1 n=a5 v=0
67533 On ch=1 n=g#5 v=46
67538 On ch=1 n=c5 v=47
67664 On ch=1 n=d#5 v=33
67670 Off ch=1 n=c5 v=0
67674 Off ch=1 n=g#5 v=0
67722 On ch=1 n=c#3 v=76
67761 Par ch=1 c=64 v=0
67771 Off ch=1 n=d#5 v=0
67800 Par ch=1 c=10 v=64
67802 On ch=1 n=e4 v=86
67814 On ch=1 n=g#4 v=51
67823 Off ch=1 n=g#4 v=0
67845 Par ch=1 c=64 v=127
67939 Off ch=1 n=g#4 v=0
67947 On ch=1 n=c#5 v=49
67949 On ch=1 n=g#4 v=47
68065 On ch=1 n=a#4 v=47
68081 Off ch=1 n=g#4 v=0
68081 Off ch=1 n=c#5 v=0
68174 Off ch=1 n=a#4 v=0
68181 On ch=1 n=d#4 v=94
68204 On ch=1 n=e5 v=43
68204 On ch=1 n=d5 v=37
68206 Par ch=1 c=64 v=0
68208 Off ch=1 n=c#3 v=0
68238 Off ch=1 n=d5 v=0
68330 On ch=1 n=g#5 v=31
68332 On ch=1 n=e6 v=60
68334 Off ch=1 n=e5 v=0
68460 On ch=1 n=c#6 v=30
68470 Off ch=1 n=e6 v=0
68487 Off ch=1 n=g#5 v=0
68552 Off ch=1 n=c#6 v=0
68569 Off ch=1 n=e4 v=0
68569 On ch=1 n=c#4 v=92
68577 Off ch=1 n=d#4 v=0
68585 On ch=1 n=e6 v=60
68680 Par ch=1 c=64 v=127
68706 On ch=1 n=g#6 v=39
68708 On ch=1 n=e7 v=68
68714 Off ch=1 n=e6 v=0
68815 Off ch=1 n=e7 v=0
68823 On ch=1 n=c#7 v=68
68843 Off ch=1 n=g#6 v=0
68946 Off ch=1 n=c#7 v=0
68947 On ch=1 n=d#6 v=72
68952 On ch=1 n=b3 v=98
68952 Par ch=1 c=10 v=64
68959 Par ch=1 c=64 v=0
68959 On ch=1 n=b2 v=92
68964 Off ch=1 n=c#4 v=0
69016 Par ch=1 c=64 v=127
69078 On ch=1 n=d#7 v=54
69079 On ch=1 n=g#6 v=39
69099 Off ch=1 n=d#6 v=0
69192 On ch=1 n=b6 v=84
69206 Off ch=1 n=d#7 v=0
69207 Off ch=1 n=g#6 v=0
69320 On ch=1 n=d#6 v=56
69335 Off ch=1 n=b6 v=0
69418 Off ch=1 n=d#6 v=0
69458 On ch=1 n=g#5 v=82
69460 On ch=1 n=d#6 v=48
69470 On ch=1 n=e6 v=20
69561 Off ch=1 n=e6 v=0
69576 On ch=1 n=b5 v=76
69581 Off ch=1 n=d#6 v=0
69593 Off ch=1 n=g#5 v=0
69676 Par ch=1 c=64 v=0
69686 On ch=1 n=c#4 v=102
69689 On ch=1 n=c#3 v=94
69690 On ch=1 n=d#5 v=49
69694 Off ch=1 n=b5 v=0
69720 Off ch=1 n=b2 v=0
69727 Off ch=1 n=b3 v=0
69737 Par ch=1 c=64 v=127
69819 On ch=1 n=c#6 v=46
69822 On ch=1 n=e5 v=64
69840 Off ch=1 n=d#5 v=0
69947 On ch=1 n=a#5 v=45
69965 Off ch=1 n=c#6 v=0
70066 Par ch=1 c=64 v=0
70070 On ch=1 n=d#4 v=94
70071 On ch=1 n=d#3 v=94
70076 On ch=1 n=c#5 v=64
70080 Off ch=1 n=e5 v=0
70085 Off ch=1 n=a#5 v=0
70092 Off ch=1 n=c#4 v=0
70093 Off ch=1 n=c#3 v=0
70125 Par ch=1 c=64 v=127
70204 On ch=1 n=c#6 v=54
70205 On ch=1 n=d#5 v=43
70226 Off ch=1 n=c#5 v=0
70305 Off ch=1 n=c#6 v=0
70336 On ch=1 n=b5 v=48
70454 Off ch=1 n=b5 v=0
70455 On ch=1 n=b4 v=70
70474 Off ch=1 n=d#5 v=0
70576 On ch=1 n=d#5 v=41
70578 On ch=1 n=b5 v=66
70590 Off ch=1 n=b4 v=0
70697 Off ch=1 n=b5 v=0
70703 On ch=1 n=g#5 v=62
70780 Par ch=1 c=64 v=0
70829 On ch=1 n=a#4 v=52
70841 Off ch=1 n=d#5 v=0
70846 Off ch=1 n=g#5 v=0
70847 Off ch=1 n=d#3 v=0
70866 On ch=1 n=d#3 v=100
70870 On ch=1 n=d#2 v=94
70888 Off ch=1 n=d#4 v=0
70976 On ch=1 n=a#5 v=56
70977 On ch=1 n=c#5 v=56
71002 Off ch=1 n=a#4 v=0
71003 Par ch=1 c=64 v=127
71104 On ch=1 n=g5 v=84
71119 Off ch=1 n=a#5 v=0
71219 On ch=1 n=g#3 v=100
71229 On ch=1 n=a#4 v=64
71238 Off ch=1 n=d#2 v=0
71238 On ch=1 n=g#2 v=106
71241 Off ch=1 n=d#3 v=0
71244 Par ch=1 c=64 v=0
71245 Off ch=1 n=g5 v=0
71248 Off ch=1 n=c#5 v=0
71357 Par ch=1 c=64 v=127
71362 On ch=1 n=a#5 v=72
71363 On ch=1 n=c#5 v=72
71379 Off ch=1 n=a#4 v=0
71488 On ch=1 n=d#5 v=48
71496 Off ch=1 n=a#5 v=0
71619 On ch=1 n=g#4 v=58
71622 Off ch=1 n=c#5 v=0
71644 Off ch=1 n=d#5 v=0
71747 On ch=1 n=g#5 v=43
71749 On ch=1 n=b4 v=72
71768 Off ch=1 n=g#4 v=0
71874 On ch=1 n=d#5 v=45
71893 Off ch=1 n=g#5 v=0
72007 On ch=1 n=g#4 v=50
72017 Off ch=1 n=b4 v=0
72022 Off ch=1 n=d#5 v=0
72032 Par ch=1 c=64 v=0
72111 Par ch=1 c=64 v=127
72128 On ch=1 n=g#5 v=51
72129 On ch=1 n=b4 v=74
72153 Off ch=1 n=g#4 v=0
72254 On ch=1 n=d#5 v=44
72269 Off ch=1 n=g#5 v=0
72379 Par ch=1 c=64 v=0
72383 Off ch=1 n=b4 v=0
72393 On ch=1 n=a3 v=104
72393 On ch=1 n=a2 v=100
72399 Off ch=1 n=g#2 v=0
72399 Off ch=1 n=g#3 v=0
72402 On ch=1 n=e4 v=74
72408 Off ch=1 n=d#5 v=0
72520 Par ch=1 c=64 v=127
72522 On ch=1 n=f#4 v=66
72523 On ch=1 n=d#5 v=66
72535 Off ch=1 n=e4 v=0
72613 Par ch=1 c=10 v=64
72633 Off ch=1 n=d#5 v=0
72637 On ch=1 n=c#5 v=76
72653 Off ch=1 n=f#4 v=0
72741 Off ch=1 n=c#5 v=0
72752 Par ch=1 c=10 v=64
72758 On ch=1 n=e5 v=76
72886 On ch=1 n=f#5 v=68
72887 On ch=1 n=d#6 v=76
72896 Off ch=1 n=e5 v=0
73002 Off ch=1 n=d#6 v=0
73009 On ch=1 n=c#6 v=94
73021 Off ch=1 n=f#5 v=0
73108 Off ch=1 n=c#6 v=0
73128 On ch=1 n=e6 v=88
73267 On ch=1 n=f#6 v=70
73268 On ch=1 n=d#7 v=82
73273 Off ch=1 n=e6 v=0
73390 Off ch=1 n=d#7 v=0
73394 On ch=1 n=c#7 v=84
73401 Off ch=1 n=f#6 v=0
73497 Par ch=1 c=64 v=0
73541 Off ch=1 n=c#7 v=0
73543 On ch=1 n=g#3 v=98
73543 On ch=1 n=g#2 v=96
73545 On ch=1 n=e6 v=82
73588 Off ch=1 n=a3 v=0
73589 Off ch=1 n=a2 v=0
73665 On ch=1 n=c#7 v=70
73667 On ch=1 n=g#6 v=60
73677 Par ch=1 c=64 v=127
73686 Off ch=1 n=e6 v=0
73793 On ch=1 n=b6 v=78
73804 Off ch=1 n=g#6 v=0
73808 Off ch=1 n=c#7 v=0
73936 On ch=1 n=e6 v=80
73947 Off ch=1 n=b6 v=0
74023 Off ch=1 n=e6 v=0
74066 On ch=1 n=g#5 v=78
74066 On ch=1 n=c#6 v=80
74121 On ch=1 n=a2 v=76
74122 On ch=1 n=a3 v=86
74134 Off ch=1 n=g#2 v=0
74137 Off ch=1 n=g#3 v=0
74172 Par ch=1 c=64 v=0
74191 On ch=1 n=b5 v=74
74201 Off ch=1 n=g#5 v=0
74203 Off ch=1 n=c#6 v=0
74239 Par ch=1 c=64 v=127
74322 On ch=1 n=e5 v=78
74332 Par ch=1 c=64 v=0
74334 Off ch=1 n=b5 v=0
74339 On ch=1 n=g#2 v=98
74343 On ch=1 n=g#3 v=94
74358 Off ch=1 n=a2 v=0
74363 Off ch=1 n=a3 v=0
74433 Par ch=1 c=64 v=127
74444 On ch=1 n=g#5 v=64
74445 On ch=1 n=e6 v=82
74455 Off ch=1 n=e5 v=0
74559 Off ch=1 n=e6 v=0
74563 On ch=1 n=c#6 v=88
74578 Off ch=1 n=g#5 v=0
74656 Off ch=1 n=c#6 v=0
74677 Par ch=1 c=64 v=0
74680 On ch=1 n=f#3 v=98
74680 On ch=1 n=f#2 v=92
74691 On ch=1 n=e5 v=84
74693 Off ch=1 n=g#2 v=0
74698 Off ch=1 n=g#3 v=0
74791 Par ch=1 c=64 v=127
74811 On ch=1 n=b5 v=80
74813 On ch=1 n=e5 v=78
74822 Off ch=1 n=e5 v=0
74934 On ch=1 n=g#5 v=74
74942 Off ch=1 n=b5 v=0
74952 Off ch=1 n=e5 v=0
75049 On ch=1 n=c#5 v=70
75059 Off ch=1 n=g#5 v=0
75170 Off ch=1 n=c#5 v=0
75184 On ch=1 n=b4 v=84
75185 On ch=1 n=e4 v=76
75300 On ch=1 n=g#4 v=66
75309 Off ch=1 n=e4 v=0
75311 Off ch=1 n=b4 v=0
75424 On ch=1 n=b2 v=94
75427 Off ch=1 n=g#4 v=0
75428 Par ch=1 c=64 v=0
75434 On ch=1 n=b3 v=80
75435 Off ch=1 n=f#3 v=0
75438 Off ch=1 n=f#2 v=0
75519 Par ch=1 c=64 v=127
75568 On ch=1 n=b4 v=80
75575 Off ch=1 n=b3 v=0
75575 On ch=1 n=d#4 v=48
75689 Off ch=1 n=b4 v=0
75689 On ch=1 n=a4 v=76
75703 Off ch=1 n=d#4 v=0
75805 Par ch=1 c=64 v=0
75809 Off ch=1 n=a4 v=0
75816 On ch=1 n=e2 v=96
75818 On ch=1 n=e3 v=94
75829 Off ch=1 n=b2 v=0
75849 On ch=1 n=b3 v=78
75975 On ch=1 n=a4 v=86
75976 Par ch=1 c=64 v=127
75977 On ch=1 n=e4 v=82
75987 Off ch=1 n=b3 v=0
76095 Off ch=1 n=a4 v=0
76100 On ch=1 n=g#4 v=72
76114 Off ch=1 n=e4 v=0
76205 Off ch=1 n=g#4 v=0
76225 On ch=1 n=b4 v=80
76343 Off ch=1 n=b4 v=0
76345 On ch=1 n=b5 v=72
76346 On ch=1 n=e5 v=78
76467 On ch=1 n=g#5 v=72
76481 Off ch=1 n=e5 v=0
76481 Off ch=1 n=b5 v=0
76578 Off ch=1 n=g#5 v=0
76588 Par ch=1 c=64 v=0
76598 Off ch=1 n=e3 v=0
76598 Off ch=1 n=e2 v=0
76602 On ch=1 n=b5 v=84
76650 Par ch=1 c=64 v=127
76728 On ch=1 n=b6 v=86
76728 On ch=1 n=e6 v=86
76734 Off ch=1 n=b5 v=0
76833 Off ch=1 n=b6 v=0
76840 On ch=1 n=g#6 v=92
76852 Off ch=1 n=e6 v=0
76941 Par ch=1 c=64 v=0
76944 Off ch=1 n=g#6 v=0
76986 Par ch=1 c=10 v=64
76986 Par ch=1 c=10 v=64
76986 On ch=1 n=b4 v=82
76991 On ch=1 n=a3 v=94
76994 On ch=1 n=a4 v=90
77059 Par ch=1 c=64 v=127
77105 On ch=1 n=d#5 v=68
77108 On ch=1 n=f#4 v=58
77133 Off ch=1 n=b4 v=0
77221 Off ch=1 n=d#5 v=0
77232 On ch=1 n=c#5 v=78
77246 Off ch=1 n=f#4 v=0
77354 Off ch=1 n=c#5 v=0
77369 On ch=1 n=e5 v=74
77497 On ch=1 n=d#6 v=74
77498 On ch=1 n=f#5 v=60
77509 Off ch=1 n=e5 v=0
77636 On ch=1 n=c#6 v=56
77644 Off ch=1 n=f#5 v=0
77677 Off ch=1 n=d#6 v=0
77738 Off ch=1 n=c#6 v=0
77770 Par ch=1 c=64 v=0
77779 On ch=1 n=e6 v=60
77832 Par ch=1 c=64 v=127
77898 On ch=1 n=f#6 v=58
77899 On ch=1 n=d#7 v=68
77907 Off ch=1 n=e6 v=0
78020 On ch=1 n=c#7 v=53
78030 Off ch=1 n=f#6 v=0
78041 Off ch=1 n=d#7 v=0
78138 Par ch=1 c=10 v=64
78140 Par ch=1 c=64 v=0
78141 Off ch=1 n=c#7 v=0
78141 On ch=1 n=g#3 v=98
78142 On ch=1 n=g#4 v=94
78143 On ch=1 n=e7 v=84
78157 Off ch=1 n=a4 v=0
78160 Off ch=1 n=a3 v=0
78211 Par ch=1 c=64 v=127
78267 On ch=1 n=c#8 v=60
78269 On ch=1 n=g#7 v=54
78281 Off ch=1 n=e7 v=0
78392 On ch=1 n=b7 v=70
78409 Off ch=1 n=g#7 v=0
78409 Off ch=1 n=c#8 v=0
78519 On ch=1 n=e7 v=76
78531 Off ch=1 n=b7 v=0
78609 Off ch=1 n=e7 v=0
78624 On ch=1 n=a3 v=72
78638 Off ch=1 n=g#4 v=0
78638 Off ch=1 n=g#3 v=0
78648 On ch=1 n=c#7 v=74
78648 On ch=1 n=g#6 v=80
78711 On ch=1 n=a4 v=88
78726 Par ch=1 c=64 v=0
78769 On ch=1 n=b6 v=78
78779 Par ch=1 c=64 v=127
78781 Off ch=1 n=g#6 v=0
78787 Off ch=1 n=c#7 v=0
78886 On ch=1 n=g#3 v=90
78888 On ch=1 n=g#4 v=88
78893 Par ch=1 c=64 v=0
78893 On ch=1 n=e6 v=76
78904 Off ch=1 n=b6 v=0
78913 Off ch=1 n=a3 v=0
78946 Par ch=1 c=64 v=127
79002 Off ch=1 n=a4 v=0
79034 On ch=1 n=g#6 v=35
79035 On ch=1 n=e7 v=82
79038 Off ch=1 n=e6 v=0
79149 Off ch=1 n=e7 v=0
79151 On ch=1 n=c#7 v=70
79166 Off ch=1 n=g#6 v=0
79254 Par ch=1 c=64 v=0
79271 On ch=1 n=f#4 v=94
79271 On ch=1 n=f#3 v=78
79278 On ch=1 n=e6 v=76
79287 Off ch=1 n=g#3 v=0
79291 Off ch=1 n=g#4 v=0
79293 Off ch=1 n=c#7 v=0
79360 Par ch=1 c=64 v=127
79391 Off ch=1 n=e6 v=0
79403 On ch=1 n=b6 v=72
79405 On ch=1 n=e6 v=68
79528 On ch=1 n=g#6 v=58
79534 Off ch=1 n=b6 v=0
79548 Off ch=1 n=e6 v=0
79652 On ch=1 n=c#6 v=71
79666 Off ch=1 n=g#6 v=0
79772 Off ch=1 n=c#6 v=0
79802 On ch=1 n=b5 v=60
79804 On ch=1 n=e5 v=64
79918 On ch=1 n=g#5 v=64
79928 Off ch=1 n=e5 v=0
79929 Off ch=1 n=b5 v=0
80016 Par ch=1 c=64 v=0
80031 On ch=1 n=b3 v=90
80037 On ch=1 n=b4 v=76
80043 Off ch=1 n=f#3 v=0
80043 Off ch=1 n=f#4 v=0
80051 Off ch=1 n=g#5 v=0
80147 Par ch=1 c=64 v=127
80162 On ch=1 n=d#5 v=52
80164 On ch=1 n=b5 v=74
80180 Off ch=1 n=b4 v=0
80282 Off ch=1 n=b5 v=0
80287 On ch=1 n=a5 v=66
80301 Off ch=1 n=d#5 v=0
80352 Par ch=1 c=64 v=0
80405 On ch=1 n=e3 v=88
80406 Off ch=1 n=a5 v=0
80409 On ch=1 n=e4 v=92
80424 Off ch=1 n=b3 v=0
80436 On ch=1 n=b4 v=57
80509 Par ch=1 c=64 v=127
80560 On ch=1 n=a5 v=57
80561 On ch=1 n=e5 v=57
80570 Off ch=1 n=b4 v=0
80681 On ch=1 n=g#5 v=59
80693 Off ch=1 n=e5 v=0
80697 Off ch=1 n=a5 v=0
80807 Off ch=1 n=g#5 v=0
80808 On ch=1 n=b5 v=59
80938 On ch=1 n=a6 v=59
80940 On ch=1 n=e6 v=64
80950 Off ch=1 n=b5 v=0
81066 On ch=1 n=g#6 v=53
81077 Off ch=1 n=a6 v=0
81079 Off ch=1 n=e6 v=0
81182 Off ch=1 n=e3 v=0
81184 Off ch=1 n=e4 v=0
81191 On ch=1 n=b5 v=68
81200 Off ch=1 n=g#6 v=0
81217 Par ch=1 c=64 v=0
81301 Off ch=1 n=b5 v=0
81330 On ch=1 n=a5 v=67
81332 On ch=1 n=e5 v=66
81444 On ch=1 n=g#5 v=57
81454 Off ch=1 n=a5 v=0
81461 Off ch=1 n=e5 v=0
81555 Off ch=1 n=g#5 v=0
81585 Par ch=1 c=10 v=64
81585 On ch=1 n=g#4 v=94
81609 On ch=1 n=b2 v=104
81611 On ch=1 n=b3 v=108
81708 On ch=1 n=b5 v=86
81710 On ch=1 n=d5 v=72
81714 Par ch=1 c=64 v=127
81740 Off ch=1 n=g#4 v=0
81744 Par ch=1 c=10 v=64
81836 On ch=1 n=f5 v=84
81847 Off ch=1 n=b2 v=0
81852 Off ch=1 n=b5 v=0
81854 Off ch=1 n=d5 v=0
81860 Off ch=1 n=b3 v=0
81944 On ch=1 n=g#4 v=70
81954 Par ch=1 c=64 v=0
81958 On ch=1 n=d5 v=62
81958 On ch=1 n=g#6 v=80
81966 Off ch=1 n=f5 v=0
81966 On ch=1 n=f5 v=72
81978 On ch=1 n=b5 v=94
82012 Par ch=1 c=64 v=127
82031 On ch=1 n=f#7 v=48
82069 Off ch=1 n=f#7 v=0
82090 On ch=1 n=b7 v=76
82092 On ch=1 n=d7 v=66
82111 Off ch=1 n=g#6 v=0
82203 On ch=1 n=f7 v=88
82218 Off ch=1 n=d7 v=0
82220 Off ch=1 n=b7 v=0
82262 Off ch=1 n=b5 v=0
82269 Off ch=1 n=d5 v=0
82271 Off ch=1 n=f5 v=0
82283 Off ch=1 n=g#4 v=0
82284 On ch=1 n=g4 v=43
82306 Par ch=1 c=64 v=0
82312 Off ch=1 n=f7 v=0
82312 On ch=1 n=c#5 v=48
82318 On ch=1 n=e5 v=82
82330 On ch=1 n=g6 v=100
82332 On ch=1 n=a#5 v=86
82356 Par ch=1 c=64 v=127
82466 On ch=1 n=a#7 v=68
82468 On ch=1 n=c#7 v=76
82490 Off ch=1 n=g6 v=0
82587 On ch=1 n=e7 v=90
82598 Off ch=1 n=g4 v=0
82599 Off ch=1 n=c#7 v=0
82604 Off ch=1 n=a#7 v=0
82660 Par ch=1 c=64 v=0
82694 On ch=1 n=b3 v=96
82708 On ch=1 n=g6 v=96
82710 Off ch=1 n=c#5 v=0
82712 Off ch=1 n=a#5 v=0
82712 Off ch=1 n=e5 v=0
82718 Off ch=1 n=e7 v=0
82813 Par ch=1 c=64 v=127
82856 On ch=1 n=a#7 v=52
82858 On ch=1 n=c#7 v=70
82869 Off ch=1 n=g6 v=0
82982 On ch=1 n=e7 v=86
82996 Off ch=1 n=c#7 v=0
83003 Off ch=1 n=a#7 v=0
83096 Off ch=1 n=e7 v=0
83105 On ch=1 n=g6 v=94
83113 On ch=1 n=e5 v=94
83113 On ch=1 n=c#5 v=94
83115 On ch=1 n=g4 v=82
83118 Off ch=1 n=b3 v=0
83239 On ch=1 n=a#6 v=76
83240 On ch=1 n=c#6 v=52
83247 Off ch=1 n=g6 v=0
83363 On ch=1 n=e6 v=80
83378 Off ch=1 n=c#6 v=0
83385 Off ch=1 n=a#6 v=0
83397 Off ch=1 n=g4 v=0
83470 On ch=1 n=d#5 v=52
83470 On ch=1 n=c5 v=80
83472 On ch=1 n=f#4 v=80
83479 Off ch=1 n=e5 v=0
83491 Off ch=1 n=e6 v=0
83492 On ch=1 n=f#5 v=88
83494 Off ch=1 n=c#5 v=0
83503 Par ch=1 c=64 v=0
83576 Par ch=1 c=64 v=127
83621 On ch=1 n=c6 v=72
83621 On ch=1 n=a6 v=78
83635 Off ch=1 n=f#5 v=0
83747 On ch=1 n=d#6 v=82
83761 Off ch=1 n=c6 v=0
83763 Off ch=1 n=a6 v=0
83845 Off ch=1 n=c5 v=0
83847 Off ch=1 n=f#4 v=0
83847 Off ch=1 n=d#5 v=0
83851 Par ch=1 c=64 v=0
83877 On ch=1 n=f#5 v=98
83889 On ch=1 n=b3 v=96
83889 On ch=1 n=b2 v=100
83891 Off ch=1 n=d#6 v=0
83918 Par ch=1 c=64 v=127
84006 On ch=1 n=a6 v=80
84008 On ch=1 n=c6 v=76
84013 Off ch=1 n=f#5 v=0
84036 Off ch=1 n=b2 v=0
84040 Off ch=1 n=b3 v=0
84134 On ch=1 n=d#6 v=88
84148 Off ch=1 n=c6 v=0
84148 Off ch=1 n=a6 v=0
84212 On ch=1 n=f#4 v=98
84236 On ch=1 n=c5 v=84
84242 On ch=1 n=d#5 v=92
84250 Off ch=1 n=d#6 v=0
84259 On ch=1 n=a5 v=102
84270 On ch=1 n=f#6 v=96
84412 On ch=1 n=a7 v=78
84414 On ch=1 n=c7 v=76
84441 Off ch=1 n=f#6 v=0
84533 On ch=1 n=d#7 v=96
84545 Off ch=1 n=c7 v=0
84546 Off ch=1 n=a7 v=0
84590 Off ch=1 n=a5 v=0
84612 Off ch=1 n=d#5 v=0
84615 Off ch=1 n=c5 v=0
84619 On ch=1 n=f4 v=80
84637 Off ch=1 n=f#4 v=0
84645 Par ch=1 c=64 v=0
84645 On ch=1 n=b4 v=84
84650 On ch=1 n=d5 v=82
84662 On ch=1 n=g#5 v=84
84668 On ch=1 n=f6 v=88
84680 Off ch=1 n=d#7 v=0
84704 Par ch=1 c=64 v=127
84790 On ch=1 n=g#7 v=70
84793 On ch=1 n=b6 v=84
84819 Off ch=1 n=f6 v=0
84916 On ch=1 n=d7 v=92
84925 Off ch=1 n=b6 v=0
84926 Off ch=1 n=f4 v=0
84931 Off ch=1 n=g#7 v=0
84973 Off ch=1 n=b4 v=0
84974 Off ch=1 n=d5 v=0
84981 Off ch=1 n=g#5 v=0
85022 Par ch=1 c=64 v=0
85032 On ch=1 n=b3 v=92
85041 On ch=1 n=f6 v=92
85043 Off ch=1 n=d7 v=0
85127 Par ch=1 c=64 v=127
85167 On ch=1 n=g#7 v=82
85170 On ch=1 n=b6 v=86
85192 Off ch=1 n=f6 v=0
85285 On ch=1 n=d7 v=90
85291 Off ch=1 n=b3 v=0
85295 Off ch=1 n=b6 v=0
85302 Off ch=1 n=g#7 v=0
85385 Off ch=1 n=d7 v=0
85401 On ch=1 n=d5 v=72
85401 On ch=1 n=b4 v=90
85403 On ch=1 n=f4 v=78
85412 On ch=1 n=f6 v=96
85541 On ch=1 n=g#6 v=70
85545 On ch=1 n=b5 v=68
85551 Off ch=1 n=f6 v=0
85659 On ch=1 n=d6 v=88
85665 Off ch=1 n=b5 v=0
85673 Off ch=1 n=g#6 v=0
85737 Off ch=1 n=f4 v=0
85770 Off ch=1 n=b4 v=0
85781 Off ch=1 n=d6 v=0
85784 On ch=1 n=e5 v=86
85785 Off ch=1 n=d5 v=0
85786 On ch=1 n=c#5 v=58
85786 On ch=1 n=b4 v=84
85788 On ch=1 n=e4 v=76
85795 Par ch=1 c=64 v=0
85848 Par ch=1 c=64 v=127
85916 On ch=1 n=g6 v=86
85919 On ch=1 n=b5 v=76
85933 Off ch=1 n=e5 v=0
86040 On ch=1 n=c#6 v=94
86051 Off ch=1 n=b5 v=0
86054 Off ch=1 n=g6 v=0
86146 Off ch=1 n=c#6 v=0
86155 Off ch=1 n=b4 v=0
86157 Off ch=1 n=e4 v=0
86163 Off ch=1 n=c#5 v=0
86172 Par ch=1 c=64 v=0
86193 Par ch=1 c=10 v=64
86214 On ch=1 n=g4 v=80
86215 On ch=1 n=e5 v=72
86216 On ch=1 n=b3 v=62
86226 Par ch=1 c=10 v=64
86332 On ch=1 n=e6 v=64
86334 On ch=1 n=b5 v=56
86450 On ch=1 n=c#6 v=70
86466 Off ch=1 n=b5 v=0
86471 Off ch=1 n=e6 v=0
86566 On ch=1 n=f#5 v=80
86573 On ch=1 n=f#4 v=74
86580 Off ch=1 n=c#6 v=0
86580 Off ch=1 n=e5 v=0
86603 Off ch=1 n=g4 v=0
86694 On ch=1 n=f#6 v=62
86697 On ch=1 n=b5 v=74
86820 Off ch=1 n=b5 v=0
86821 On ch=1 n=c#6 v=86
86838 Off ch=1 n=f#6 v=0
86937 On ch=1 n=e4 v=84
86939 On ch=1 n=g5 v=80
86950 Off ch=1 n=c#6 v=0
86962 Off ch=1 n=f#5 v=0
86972 Off ch=1 n=f#4 v=0
87068 On ch=1 n=g6 v=82
87069 On ch=1 n=b5 v=76
87195 On ch=1 n=c#6 v=88
87214 Off ch=1 n=b5 v=0
87215 Off ch=1 n=g6 v=0
87297 Off ch=1 n=e4 v=0
87299 Off ch=1 n=g5 v=0
87313 On ch=1 n=e4 v=88
87322 On ch=1 n=g5 v=90
87460 Off ch=1 n=c#6 v=0
87460 On ch=1 n=g6 v=82
87462 On ch=1 n=b5 v=76
87595 On ch=1 n=c#6 v=82
87610 Off ch=1 n=b5 v=0
87613 Off ch=1 n=g6 v=0
87716 On ch=1 n=b4 v=86
87725 On ch=1 n=f#5 v=78
87728 Off ch=1 n=c#6 v=0
87735 Off ch=1 n=g5 v=0
87741 Off ch=1 n=e4 v=0
87858 On ch=1 n=f#6 v=60
87860 On ch=1 n=b5 v=68
87984 On ch=1 n=c#6 v=70
87999 Off ch=1 n=b5 v=0
88011 Off ch=1 n=f#6 v=0
88119 On ch=1 n=e5 v=66
88131 Off ch=1 n=c#6 v=0
88138 Off ch=1 n=f#5 v=0
88244 On ch=1 n=e6 v=58
88246 On ch=1 n=b5 v=62
88319 On ch=1 n=e4 v=78
88353 Off ch=1 n=b4 v=0
88369 On ch=1 n=c#6 v=58
88386 Off ch=1 n=e6 v=0
88392 Off ch=1 n=b5 v=0
88417 Off ch=1 n=e5 v=0
88489 On ch=1 n=e5 v=76
88505 On ch=1 n=g4 v=80
88524 Off ch=1 n=c#6 v=0
88532 Off ch=1 n=e4 v=0
88625 On ch=1 n=b5 v=60
88625 On ch=1 n=e6 v=64
88753 On ch=1 n=c#6 v=64
88775 Off ch=1 n=e6 v=0
88781 Off ch=1 n=b5 v=0
88833 Par ch=1 c=64 v=127
88843 Off ch=1 n=e5 v=0
88875 On ch=1 n=e5 v=62
88905 Off ch=1 n=c#6 v=0
89000 On ch=1 n=e6 v=66
89001 On ch=1 n=a#5 v=43
89123 On ch=1 n=c#6 v=62
89145 Off ch=1 n=e6 v=0
89160 Off ch=1 n=a#5 v=0
89222 Off ch=1 n=e5 v=0
89246 On ch=1 n=e5 v=56
89250 Par ch=1 c=64 v=0
89271 Off ch=1 n=c#6 v=0
89303 Par ch=1 c=64 v=127
89378 On ch=1 n=e6 v=64
89378 On ch=1 n=a5 v=60
89509 On ch=1 n=c6 v=72
89530 Off ch=1 n=a5 v=0
89541 Off ch=1 n=e6 v=0
89612 Off ch=1 n=e5 v=0
89627 On ch=1 n=e5 v=60
89628 Par ch=1 c=64 v=0
89638 Off ch=1 n=c6 v=0
89639 On ch=1 n=f#4 v=57
89670 Off ch=1 n=g4 v=0
89752 Par ch=1 c=64 v=127
89762 On ch=1 n=a5 v=52
89763 On ch=1 n=e6 v=53
89885 On ch=1 n=c6 v=68
89902 Off ch=1 n=a5 v=0
89908 Off ch=1 n=e6 v=0
90010 On ch=1 n=d#5 v=31
90014 Off ch=1 n=c6 v=0
90038 Off ch=1 n=e5 v=0
90109 Par ch=1 c=64 v=0
90134 On ch=1 n=d#6 v=50
90134 On ch=1 n=a5 v=64
90166 Par ch=1 c=64 v=127
90263 On ch=1 n=b5 v=74
90280 Off ch=1 n=a5 v=0
90295 Off ch=1 n=d#6 v=0
90389 Off ch=1 n=b3 v=0
90391 Par ch=1 c=64 v=0
90394 Off ch=1 n=f#4 v=0
90397 On ch=1 n=b4 v=64
90399 Off ch=1 n=b5 v=0
90419 Off ch=1 n=d#5 v=0
90518 Par ch=1 c=64 v=127
90528 On ch=1 n=b5 v=54
90531 On ch=1 n=d#5 v=30
90660 On ch=1 n=a5 v=62
90678 Off ch=1 n=b5 v=0
90773 Par ch=1 c=64 v=0
90779 Off ch=1 n=d#5 v=0
90780 Off ch=1 n=a5 v=0
90781 Off ch=1 n=b4 v=0
90792 On ch=1 n=e3 v=70
90792 Par ch=1 c=10 v=64
90792 Par ch=1 c=10 v=64
90798 On ch=1 n=g#4 v=76
90871 On ch=1 n=e4 v=70
90924 Par ch=1 c=64 v=127
90984 On ch=1 n=b5 v=51
90986 Off ch=1 n=g#4 v=0
90986 On ch=1 n=e5 v=51
91179 Off ch=1 n=b5 v=0
91186 On ch=1 n=g#5 v=54
91208 Off ch=1 n=e5 v=0
91364 Off ch=1 n=g#5 v=0
91364 On ch=1 n=b5 v=72
91552 Off ch=1 n=b5 v=0
91552 On ch=1 n=e6 v=58
91554 On ch=1 n=b6 v=56
91604 On ch=1 n=b4 v=72
91746 On ch=1 n=g#6 v=47
91766 Off ch=1 n=b6 v=0
91766 Off ch=1 n=e6 v=0
91769 Par ch=1 c=64 v=0
91834 Par ch=1 c=64 v=127
91948 On ch=1 n=b6 v=74
91971 Off ch=1 n=g#6 v=0
92106 Off ch=1 n=b6 v=0
92135 On ch=1 n=b7 v=56
92136 On ch=1 n=e7 v=62
92330 On ch=1 n=c#5 v=88
92335 On ch=1 n=g#7 v=49
92344 Off ch=1 n=e3 v=0
92355 Off ch=1 n=e7 v=0
92357 Off ch=1 n=b7 v=0
92405 Off ch=1 n=b4 v=0
92471 Par ch=1 c=64 v=0
92511 Off ch=1 n=e4 v=0
92517 On ch=1 n=b6 v=50
92532 Off ch=1 n=g#7 v=0
92567 Par ch=1 c=64 v=127
92709 On ch=1 n=b7 v=54
92711 On ch=1 n=e7 v=50
92719 Off ch=1 n=b6 v=0
92893 On ch=1 n=g#7 v=45
92908 Off ch=1 n=e7 v=0
92915 Off ch=1 n=b7 v=0
93024 Off ch=1 n=c#5 v=0
93064 Par ch=1 c=64 v=0
93083 On ch=1 n=c#5 v=84
93083 On ch=1 n=f#4 v=53
93085 On ch=1 n=d#4 v=51
93104 On ch=1 n=b6 v=53
93128 Off ch=1 n=g#7 v=0
93277 Par ch=1 c=64 v=127
93287 On ch=1 n=d#7 v=41
93288 On ch=1 n=b7 v=54
93304 Off ch=1 n=b6 v=0
93472 On ch=1 n=f#7 v=49
93491 Off ch=1 n=b7 v=0
93498 Off ch=1 n=d#7 v=0
93665 On ch=1 n=b6 v=58
93686 Off ch=1 n=f#7 v=0
93855 On ch=1 n=d#6 v=42
93855 On ch=1 n=b6 v=52
93879 Off ch=1 n=b6 v=0
94033 On ch=1 n=f#6 v=50
94045 Off ch=1 n=b6 v=0
94065 Off ch=1 n=d#6 v=0
94211 Par ch=1 c=64 v=0
94222 On ch=1 n=b5 v=64
94247 Off ch=1 n=f#6 v=0
94341 Off ch=1 n=b5 v=0
94346 Par ch=1 c=64 v=127
94424 On ch=1 n=b5 v=53
94427 On ch=1 n=d#5 v=45
94615 On ch=1 n=f#5 v=46
94624 Off ch=1 n=f#4 v=0
94630 Off ch=1 n=b5 v=0
94642 Off ch=1 n=d#4 v=0
94649 Off ch=1 n=d#5 v=0
94688 Off ch=1 n=c#5 v=0
94806 On ch=1 n=b4 v=75
94832 Off ch=1 n=f#5 v=0
94910 Par ch=1 c=64 v=0
94996 On ch=1 n=d#5 v=28
94998 On ch=1 n=b5 v=50
95008 Off ch=1 n=b4 v=0
95033 Par ch=1 c=64 v=127
95200 On ch=1 n=f#5 v=42
95211 Off ch=1 n=b5 v=0
95223 Off ch=1 n=d#5 v=0
95253 On ch=1 n=c#3 v=60
95359 On ch=1 n=c#4 v=78
95366 Off ch=1 n=f#5 v=0
95375 Par ch=1 c=64 v=0
95397 On ch=1 n=g#4 v=76
95479 Par ch=1 c=64 v=127
95566 On ch=1 n=g#5 v=50
95567 On ch=1 n=c#5 v=39
95598 Off ch=1 n=g#4 v=0
95754 On ch=1 n=e5 v=70
95772 Off ch=1 n=c#5 v=0
95772 Off ch=1 n=g#5 v=0
95954 On ch=1 n=g#5 v=48
95969 Off ch=1 n=e5 v=0
96089 Off ch=1 n=g#5 v=0
96123 Par ch=1 c=64 v=0
96144 On ch=1 n=g#4 v=84
96161 On ch=1 n=c#6 v=49
96172 On ch=1 n=g#6 v=22
96241 Par ch=1 c=64 v=127
96344 On ch=1 n=e6 v=74
96368 Off ch=1 n=g#6 v=0
96371 Off ch=1 n=c#6 v=0
96525 On ch=1 n=g#6 v=49
96540 Off ch=1 n=e6 v=0
96656 Off ch=1 n=g#6 v=0
96726 On ch=1 n=g#7 v=64
96728 On ch=1 n=c#7 v=50
96748 Off ch=1 n=c#3 v=0
96818 Off ch=1 n=c#4 v=0
96901 On ch=1 n=e7 v=76
96913 Off ch=1 n=c#7 v=0
96924 Off ch=1 n=g#7 v=0
96951 On ch=1 n=b4 v=84
97004 Off ch=1 n=g#4 v=0
97055 Par ch=1 c=64 v=0
97109 On ch=1 n=a6 v=54
97121 Off ch=1 n=e7 v=0
97168 Par ch=1 c=64 v=127
97306 Off ch=1 n=a6 v=0
97309 On ch=1 n=c#7 v=60
97309 On ch=1 n=a7 v=74
97465 On ch=1 n=a4 v=80
97495 On ch=1 n=e7 v=82
97505 Off ch=1 n=a7 v=0
97509 Off ch=1 n=c#7 v=0
97542 Par ch=1 c=64 v=0
97552 Off ch=1 n=b4 v=0
97591 Off ch=1 n=a4 v=0
97608 Par ch=1 c=64 v=127
97654 On ch=1 n=a4 v=86
97671 On ch=1 n=c4 v=68
97687 On ch=1 n=a6 v=70
97704 Off ch=1 n=e7 v=0
97769 Par ch=1 c=64 v=0
97842 Par ch=1 c=64 v=127
97894 On ch=1 n=a7 v=66
97895 On ch=1 n=c7 v=74
97902 Off ch=1 n=a6 v=0
98078 On ch=1 n=d#7 v=56
98097 Off ch=1 n=c7 v=0
98097 Off ch=1 n=a7 v=0
98265 On ch=1 n=a6 v=56
98286 Off ch=1 n=d#7 v=0
98382 Off ch=1 n=a6 v=0
98476 On ch=1 n=a6 v=58
98479 On ch=1 n=c6 v=58
98659 On ch=1 n=d#6 v=68
98670 Off ch=1 n=a6 v=0
98684 Off ch=1 n=c6 v=0
98846 On ch=1 n=a5 v=68
98863 Off ch=1 n=d#6 v=0
98951 Off ch=1 n=a5 v=0
99032 Par ch=1 c=64 v=0
99047 On ch=1 n=a5 v=54
99051 On ch=1 n=c5 v=56
99222 On ch=1 n=d#5 v=54
99232 Off ch=1 n=a5 v=0
99243 Off ch=1 n=c5 v=0
99306 Off ch=1 n=c4 v=0
99347 Off ch=1 n=a4 v=0
99409 On ch=1 n=g#4 v=80
99426 Off ch=1 n=d#5 v=0
99514 Par ch=1 c=64 v=127
99613 On ch=1 n=g#5 v=74
99615 On ch=1 n=c5 v=54
99630 Off ch=1 n=g#4 v=0
99789 On ch=1 n=d#5 v=45
99798 Off ch=1 n=c5 v=0
99818 Off ch=1 n=g#5 v=0
99943 Off ch=1 n=d#5 v=0
99950 Par ch=1 c=64 v=0
99998 On ch=1 n=a3 v=74
99998 On ch=1 n=e4 v=90
99999 On ch=1 n=g#4 v=62
100174 On ch=1 n=e5 v=58
100176 On ch=1 n=a4 v=58
100193 Off ch=1 n=g#4 v=0
100200 Par ch=1 c=64 v=127
100348 On ch=1 n=c#5 v=53
100358 Off ch=1 n=e5 v=0
100366 Off ch=1 n=a4 v=0
100548 On ch=1 n=e5 v=52
100553 Off ch=1 n=c#5 v=0
100727 Par ch=1 c=64 v=0
100748 On ch=1 n=a5 v=74
100751 On ch=1 n=e6 v=51
100762 Off ch=1 n=e5 v=0
100779 On ch=1 n=d#4 v=84
100848 Off ch=1 n=e4 v=0
100872 Par ch=1 c=64 v=127
100877 Off ch=1 n=a3 v=0
100947 On ch=1 n=c#6 v=52
100957 Off ch=1 n=e6 v=0
100965 Off ch=1 n=a5 v=0
101131 On ch=1 n=e6 v=54
101136 Off ch=1 n=c#6 v=0
101335 On ch=1 n=a6 v=66
101335 On ch=1 n=e7 v=72
101340 Off ch=1 n=e6 v=0
101483 Off ch=1 n=e7 v=0
101508 Par ch=1 c=64 v=0
101518 Off ch=1 n=a6 v=0
101534 On ch=1 n=c#7 v=76
101567 On ch=1 n=c#4 v=86
101634 Par ch=1 c=64 v=127
101651 Off ch=1 n=d#4 v=0
101722 On ch=1 n=e7 v=74
101749 Off ch=1 n=c#7 v=0
101935 On ch=1 n=e8 v=66
101936 On ch=1 n=a7 v=62
101952 Off ch=1 n=e7 v=0
102117 Off ch=1 n=e8 v=0
102122 On ch=1 n=c#8 v=66
102138 Off ch=1 n=a7 v=0
102296 Par ch=1 c=64 v=0
102304 On ch=1 n=e7 v=72
102322 Off ch=1 n=c#8 v=0
102349 On ch=1 n=e3 v=50
102353 On ch=1 n=b3 v=78
102397 Off ch=1 n=c#4 v=0
102487 Par ch=1 c=64 v=127
102488 On ch=1 n=g#7 v=41
102490 On ch=1 n=e8 v=68
102510 Off ch=1 n=e7 v=0
102671 On ch=1 n=b7 v=66
102681 Off ch=1 n=e8 v=0
102689 Off ch=1 n=g#7 v=0
102859 On ch=1 n=e7 v=72
102868 Off ch=1 n=b7 v=0
103006 Off ch=1 n=e7 v=0
103022 Par ch=1 c=64 v=0
103041 On ch=1 n=b7 v=70
103042 On ch=1 n=e7 v=68
103080 Par ch=1 c=64 v=127
103081 On ch=1 n=e4 v=82
103235 On ch=1 n=g#7 v=52
103251 Off ch=1 n=e7 v=0
103254 Off ch=1 n=b7 v=0
103420 On ch=1 n=b6 v=62
103441 Off ch=1 n=g#7 v=0
103586 Off ch=1 n=b6 v=0
103613 On ch=1 n=g#7 v=47
103616 On ch=1 n=b6 v=56
103810 Par ch=1 c=64 v=0
103814 On ch=1 n=e6 v=74
103822 On ch=1 n=g#4 v=78
103824 Off ch=1 n=b6 v=0
103838 Off ch=1 n=g#7 v=0
103842 Off ch=1 n=e3 v=0
103868 Off ch=1 n=b3 v=0
103905 Off ch=1 n=e4 v=0
103946 Par ch=1 c=64 v=127
104011 On ch=1 n=g#5 v=58
104019 Off ch=1 n=e6 v=0
104185 Off ch=1 n=g#5 v=0
104205 On ch=1 n=g#5 v=54
104205 On ch=1 n=e6 v=72
104406 On ch=1 n=b5 v=76
104420 Off ch=1 n=e6 v=0
104422 Off ch=1 n=g#5 v=0
104536 Off ch=1 n=b5 v=0
104582 On ch=1 n=d#4 v=44
104587 Par ch=1 c=64 v=0
104591 On ch=1 n=b4 v=80
104601 On ch=1 n=d#6 v=56
104650 Off ch=1 n=g#4 v=0
104777 Par ch=1 c=64 v=127
104782 On ch=1 n=d#7 v=56
104783 On ch=1 n=g#6 v=33
104807 Off ch=1 n=d#6 v=0
104969 On ch=1 n=b6 v=76
104988 Off ch=1 n=g#6 v=0
104998 Off ch=1 n=d#7 v=0
105160 On ch=1 n=d#6 v=68
105170 Off ch=1 n=b6 v=0
105331 Off ch=1 n=d#6 v=0
105343 On ch=1 n=d#5 v=74
105351 On ch=1 n=d#6 v=33
105351 On ch=1 n=b6 v=66
105381 Par ch=1 c=64 v=0
105434 Off ch=1 n=b4 v=0
105537 On ch=1 n=g#6 v=49
105547 Par ch=1 c=64 v=127
105549 Off ch=1 n=b6 v=0
105559 Off ch=1 n=d#6 v=0
105737 On ch=1 n=b5 v=56
105751 Off ch=1 n=g#6 v=0
105901 Off ch=1 n=b5 v=0
105938 On ch=1 n=g#6 v=70
105945 On ch=1 n=b5 v=51
106124 On ch=1 n=d#6 v=30
106134 Off ch=1 n=b5 v=0
106138 On ch=1 n=c#5 v=80
106167 Par ch=1 c=64 v=0
106231 Off ch=1 n=d#5 v=0
106316 On ch=1 n=g5 v=37
106361 Off ch=1 n=d#6 v=0
106362 Par ch=1 c=64 v=127
106462 Off ch=1 n=g#6 v=0
106486 Off ch=1 n=g5 v=0
106495 On ch=1 n=g6 v=72
106498 On ch=1 n=a#5 v=44
106616 On ch=1 n=g#3 v=50
106680 On ch=1 n=d#6 v=42
106691 Off ch=1 n=g6 v=0
106808 Off ch=1 n=a#5 v=0
106838 Par ch=1 c=64 v=0
106885 On ch=1 n=g#5 v=56
106888 Off ch=1 n=d#6 v=0
106926 On ch=1 n=b4 v=82
106985 Off ch=1 n=c#5 v=0
107078 On ch=1 n=g#6 v=53
107079 On ch=1 n=b5 v=66
107086 Off ch=1 n=g#5 v=0
107155 Par ch=1 c=64 v=127
107271 On ch=1 n=d#6 v=51
107283 Off ch=1 n=g#6 v=0
107292 Off ch=1 n=b5 v=0
107454 On ch=1 n=g#5 v=70
107469 Off ch=1 n=d#6 v=0
107620 Off ch=1 n=g#5 v=0
107631 On ch=1 n=d#6 v=51
107634 On ch=1 n=g#5 v=43
107670 Par ch=1 c=64 v=0
107684 On ch=1 n=a#4 v=74
107786 Off ch=1 n=b4 v=0
107833 On ch=1 n=b5 v=74
107854 Off ch=1 n=d#6 v=0
107859 Off ch=1 n=g#5 v=0
108041 On ch=1 n=d#5 v=54
108052 Off ch=1 n=b5 v=0
108128 Off ch=1 n=d#4 v=0
108161 Off ch=1 n=g#3 v=0
108226 Off ch=1 n=d#5 v=0
108243 On ch=1 n=b5 v=86
108245 On ch=1 n=d#5 v=44
108425 On ch=1 n=b3 v=78
108431 On ch=1 n=a4 v=68
108437 On ch=1 n=g#5 v=46
108459 Off ch=1 n=d#5 v=0
108507 Off ch=1 n=a#4 v=0
108614 On ch=1 n=b4 v=51
108635 Par ch=1 c=64 v=127
108655 Off ch=1 n=g#5 v=0
108767 Off ch=1 n=b5 v=0
108798 Off ch=1 n=b4 v=0
108799 On ch=1 n=d#5 v=48
108799 On ch=1 n=b5 v=88
108839 On ch=1 n=e3 v=78
108986 On ch=1 n=f#5 v=43
109003 Par ch=1 c=64 v=0
109012 Off ch=1 n=d#5 v=0
109128 Off ch=1 n=b5 v=0
109138 Par ch=1 c=64 v=127
109181 On ch=1 n=b4 v=66
109197 Off ch=1 n=f#5 v=0
109208 On ch=1 n=g#4 v=80
109284 Off ch=1 n=a4 v=0
109371 On ch=1 n=e5 v=70
109371 On ch=1 n=b5 v=76
109381 Off ch=1 n=b4 v=0
109562 On ch=1 n=g#5 v=52
109579 Off ch=1 n=b5 v=0
109583 Off ch=1 n=e5 v=0
109773 On ch=1 n=b5 v=56
109778 Off ch=1 n=g#5 v=0
109931 Par ch=1 c=64 v=0
109956 On ch=1 n=b4 v=84
109967 On ch=1 n=e6 v=62
109968 On ch=1 n=b6 v=72
109976 Off ch=1 n=b5 v=0
110026 Off ch=1 n=g#4 v=0
110109 Par ch=1 c=64 v=127
110149 On ch=1 n=g#6 v=52
110172 Off ch=1 n=b6 v=0
110361 On ch=1 n=b6 v=70
110376 Off ch=1 n=g#6 v=0
110505 Off ch=1 n=e6 v=0
110506 Off ch=1 n=b6 v=0
110541 On ch=1 n=e7 v=64
110541 On ch=1 n=b7 v=74
110733 On ch=1 n=g#7 v=53
110749 Off ch=1 n=e7 v=0
110751 Off ch=1 n=b7 v=0
110753 On ch=1 n=d#5 v=88
110785 Off ch=1 n=e3 v=0
110793 Off ch=1 n=b3 v=0
110844 Off ch=1 n=b4 v=0
110922 On ch=1 n=b6 v=56
110941 Off ch=1 n=g#7 v=0
111116 On ch=1 n=b7 v=68
111117 On ch=1 n=e7 v=68
111134 Off ch=1 n=b6 v=0
111294 On ch=1 n=c#5 v=98
111304 On ch=1 n=g#7 v=58
111324 Off ch=1 n=e7 v=0
111326 Off ch=1 n=b7 v=0
111383 Par ch=1 c=64 v=0
111386 Off ch=1 n=d#5 v=0
111460 Off ch=1 n=c#5 v=0
111493 On ch=1 n=b6 v=62
111511 Off ch=1 n=g#7 v=0
111519 On ch=1 n=f#4 v=51
111521 On ch=1 n=c#5 v=92
111523 On ch=1 n=d#4 v=43
111690 On ch=1 n=d#7 v=47
111691 On ch=1 n=b7 v=68
111712 Off ch=1 n=b6 v=0
111743 Par ch=1 c=64 v=127
111871 On ch=1 n=f#7 v=60
111886 Off ch=1 n=b7 v=0
111891 Off ch=1 n=d#7 v=0
112069 On ch=1 n=b6 v=62
112089 Off ch=1 n=f#7 v=0
112258 On ch=1 n=d#6 v=56
112259 On ch=1 n=b6 v=72
112269 Off ch=1 n=b6 v=0
112449 On ch=1 n=f#6 v=58
112466 Off ch=1 n=b6 v=0
112478 Off ch=1 n=d#6 v=0
112629 On ch=1 n=b5 v=54
112648 Off ch=1 n=f#6 v=0
112762 Off ch=1 n=b5 v=0
112832 On ch=1 n=d#5 v=35
112833 On ch=1 n=b5 v=60
112872 Par ch=1 c=64 v=0
113022 On ch=1 n=f#5 v=56
113032 Off ch=1 n=b5 v=0
113040 Off ch=1 n=f#4 v=0
113047 Off ch=1 n=d#5 v=0
113053 Off ch=1 n=d#4 v=0
113100 Off ch=1 n=c#5 v=0
113212 On ch=1 n=b4 v=76
113231 Off ch=1 n=f#5 v=0
113409 Par ch=1 c=64 v=127
113414 On ch=1 n=d#5 v=33
113416 On ch=1 n=b5 v=45
113563 On ch=1 n=c#3 v=70
113603 On ch=1 n=f#5 v=47
113615 Off ch=1 n=b5 v=0
113635 Off ch=1 n=d#5 v=0
113674 Off ch=1 n=b4 v=0
113688 Par ch=1 c=64 v=0
113789 On ch=1 n=c#4 v=80
113801 On ch=1 n=g#4 v=80
113806 Off ch=1 n=f#5 v=0
113930 Par ch=1 c=64 v=127
113989 On ch=1 n=g#5 v=64
113993 On ch=1 n=c#5 v=44
114016 Off ch=1 n=g#4 v=0
114182 On ch=1 n=e5 v=31
114189 Off ch=1 n=c#5 v=0
114206 Off ch=1 n=g#5 v=0
114368 On ch=1 n=g#5 v=72
114385 Off ch=1 n=e5 v=0
114565 On ch=1 n=c#7 v=74
114565 On ch=1 n=g#7 v=56
114590 Off ch=1 n=g#5 v=0
114608 On ch=1 n=g#4 v=82
114742 On ch=1 n=e7 v=78
114758 Off ch=1 n=g#7 v=0
114758 Off ch=1 n=c#7 v=0
114936 On ch=1 n=g#7 v=52
114953 Off ch=1 n=e7 v=0
115107 Off ch=1 n=g#7 v=0
115135 On ch=1 n=g#7 v=74
115316 On ch=1 n=e7 v=78
115331 Off ch=1 n=g#7 v=0
115331 On ch=1 n=b4 v=80
115368 Off ch=1 n=g#4 v=0
115431 Par ch=1 c=64 v=0
115509 On ch=1 n=g#6 v=66
115520 Off ch=1 n=e7 v=0
115531 Par ch=1 c=64 v=127
115687 Off ch=1 n=g#6 v=0
115706 On ch=1 n=c#7 v=48
115707 On ch=1 n=a7 v=68
115882 Off ch=1 n=c#3 v=0
115900 On ch=1 n=e7 v=74
115905 On ch=1 n=a4 v=90
115908 Off ch=1 n=a7 v=0
115919 Off ch=1 n=c#7 v=0
115982 Off ch=1 n=b4 v=0
115999 Par ch=1 c=64 v=0
116054 Off ch=1 n=a4 v=0
116095 On ch=1 n=a6 v=76
116101 Off ch=1 n=e7 v=0
116122 On ch=1 n=a4 v=84
116122 On ch=1 n=c4 v=68
116231 Off ch=1 n=c#4 v=0
116276 Off ch=1 n=a6 v=0
116287 On ch=1 n=a6 v=54
116293 On ch=1 n=c6 v=58
116329 Par ch=1 c=64 v=127
116462 Off ch=1 n=a6 v=0
116469 On ch=1 n=d#6 v=68
116490 Off ch=1 n=c6 v=0
116673 On ch=1 n=a5 v=62
116697 Off ch=1 n=d#6 v=0
116859 Off ch=1 n=a5 v=0
116869 On ch=1 n=g#6 v=64
116871 On ch=1 n=c6 v=64
117051 On ch=1 n=d#6 v=52
117065 Off ch=1 n=g#6 v=0
117072 Off ch=1 n=c6 v=0
117234 On ch=1 n=a5 v=68
117251 Off ch=1 n=d#6 v=0
117401 Par ch=1 c=64 v=0
117410 Off ch=1 n=a5 v=0
117459 On ch=1 n=a5 v=53
117462 On ch=1 n=c5 v=47
117632 On ch=1 n=d#5 v=64
117643 Off ch=1 n=a5 v=0
117657 Off ch=1 n=c5 v=0
117752 Off ch=1 n=a4 v=0
117777 Off ch=1 n=c4 v=0
117822 On ch=1 n=g#4 v=80
117836 Off ch=1 n=d#5 v=0
117937 Par ch=1 c=64 v=127
117958 Off ch=1 n=g#4 v=0
118007 On ch=1 n=g#5 v=53
118008 On ch=1 n=c5 v=61
118193 On ch=1 n=d#5 v=53
118208 Off ch=1 n=c5 v=0
118217 Off ch=1 n=g#5 v=0
118334 Off ch=1 n=d#5 v=0
118377 On ch=1 n=a3 v=72
118377 On ch=1 n=e4 v=84
118392 Par ch=1 c=64 v=0
118411 On ch=1 n=g#4 v=43
118556 Par ch=1 c=64 v=127
118591 On ch=1 n=e5 v=56
118594 On ch=1 n=a4 v=45
118613 Off ch=1 n=g#4 v=0
118771 On ch=1 n=c#5 v=46
118776 Off ch=1 n=e5 v=0
118787 Off ch=1 n=a4 v=0
118958 On ch=1 n=e5 v=52
118968 Off ch=1 n=c#5 v=0
119144 Par ch=1 c=64 v=0
119153 On ch=1 n=a5 v=64
119155 On ch=1 n=e6 v=54
119165 Off ch=1 n=e5 v=0
119182 On ch=1 n=d#4 v=72
119266 Off ch=1 n=e4 v=0
119339 Off ch=1 n=e6 v=0
119345 On ch=1 n=c#6 v=53
119366 Off ch=1 n=a5 v=0
119401 Par ch=1 c=64 v=127
119540 On ch=1 n=e6 v=53
119545 Off ch=1 n=c#6 v=0
119742 On ch=1 n=a6 v=60
119742 On ch=1 n=e7 v=62
119752 Off ch=1 n=e6 v=0
119869 Off ch=1 n=a6 v=0
119894 Off ch=1 n=e7 v=0
119924 Par ch=1 c=64 v=0
119950 On ch=1 n=c#4 v=82
119957 On ch=1 n=c#7 v=70
120044 Off ch=1 n=d#4 v=0
120111 Par ch=1 c=64 v=127
120123 On ch=1 n=e7 v=62
120148 Off ch=1 n=c#7 v=0
120321 On ch=1 n=a7 v=37
120322 On ch=1 n=e8 v=60
120341 Off ch=1 n=e7 v=0
120422 Off ch=1 n=a3 v=0
120512 On ch=1 n=c#8 v=50
120527 Off ch=1 n=a7 v=0
120529 Off ch=1 n=e8 v=0
120678 Par ch=1 c=64 v=0
120713 On ch=1 n=e7 v=72
120728 On ch=1 n=b3 v=80
120730 On ch=1 n=e3 v=58
120736 Off ch=1 n=c#8 v=0
120777 Off ch=1 n=c#4 v=0
120915 On ch=1 n=g#7 v=51
120918 On ch=1 n=e8 v=68
120926 Par ch=1 c=64 v=127
120938 Off ch=1 n=e7 v=0
121107 On ch=1 n=b7 v=68
121118 Off ch=1 n=e8 v=0
121132 Off ch=1 n=g#7 v=0
121284 On ch=1 n=e7 v=72
121296 Off ch=1 n=b7 v=0
121444 Off ch=1 n=e7 v=0
121470 On ch=1 n=b7 v=54
121473 On ch=1 n=e7 v=54
121533 On ch=1 n=e4 v=84
121656 On ch=1 n=g#7 v=49
121670 Off ch=1 n=e7 v=0
121679 Off ch=1 n=b7 v=0
121857 On ch=1 n=b6 v=60
121883 Off ch=1 n=g#7 v=0
122020 Off ch=1 n=b6 v=0
122049 On ch=1 n=g#7 v=53
122052 On ch=1 n=b6 v=58
122115 Off ch=1 n=b6 v=0
122190 Off ch=1 n=g#7 v=0
122235 On ch=1 n=g#7 v=39
122235 On ch=1 n=e8 v=50
122264 On ch=1 n=g#4 v=84
122344 Off ch=1 n=e4 v=0
122434 On ch=1 n=b6 v=74
122450 Off ch=1 n=e8 v=0
122457 Off ch=1 n=g#7 v=0
122629 On ch=1 n=e7 v=52
122630 On ch=1 n=g#6 v=39
122640 Off ch=1 n=b6 v=0
122797 On ch=1 n=b6 v=72
122805 Off ch=1 n=e7 v=0
122816 Off ch=1 n=g#6 v=0
122994 On ch=1 n=e6 v=68
123000 Off ch=1 n=b6 v=0
123023 On ch=1 n=b4 v=90
123074 Off ch=1 n=g#4 v=0
123094 Off ch=1 n=e3 v=0
123104 Off ch=1 n=b3 v=0
123172 Off ch=1 n=e6 v=0
123191 On ch=1 n=e6 v=66
123192 On ch=1 n=b6 v=68
123379 On ch=1 n=g#6 v=47
123394 Off ch=1 n=b6 v=0
123394 Off ch=1 n=e6 v=0
123572 On ch=1 n=b5 v=62
123589 Off ch=1 n=g#6 v=0
123741 Off ch=1 n=b5 v=0
123757 On ch=1 n=g#6 v=44
123762 On ch=1 n=b5 v=51
123948 On ch=1 n=e6 v=64
123960 Off ch=1 n=g#6 v=0
123979 Off ch=1 n=b5 v=0
124131 On ch=1 n=g#5 v=43
124141 Off ch=1 n=e6 v=0
124307 Off ch=1 n=g#5 v=0
124329 On ch=1 n=g#5 v=39
124331 On ch=1 n=e6 v=60
124519 On ch=1 n=a4 v=68
124519 On ch=1 n=b5 v=70
124536 Off ch=1 n=e6 v=0
124544 Off ch=1 n=g#5 v=0
124598 Off ch=1 n=b4 v=0
124719 On ch=1 n=e5 v=60
124730 Off ch=1 n=b5 v=0
124902 Off ch=1 n=e5 v=0
124907 On ch=1 n=e5 v=56
124908 On ch=1 n=b5 v=64
125080 On ch=1 n=g#4 v=82
125101 On ch=1 n=g#5 v=51
125121 Off ch=1 n=b5 v=0
125122 Off ch=1 n=e5 v=0
125178 Off ch=1 n=a4 v=0
125240 Off ch=1 n=g#4 v=0
125301 On ch=1 n=b4 v=49
125307 On ch=1 n=g#4 v=74
125325 Off ch=1 n=g#5 v=0
125506 On ch=1 n=e5 v=58
125506 On ch=1 n=b5 v=56
125525 Off ch=1 n=b4 v=0
125699 Off ch=1 n=b5 v=0
125702 On ch=1 n=g#5 v=49
125727 Off ch=1 n=e5 v=0
125886 On ch=1 n=b4 v=64
125909 Off ch=1 n=g#5 v=0
126079 On ch=1 n=e5 v=53
126081 On ch=1 n=b5 v=56
126084 Off ch=1 n=b4 v=0
126265 On ch=1 n=g#5 v=43
126277 Off ch=1 n=b5 v=0
126288 Off ch=1 n=e5 v=0
126452 On ch=1 n=b4 v=53
126470 Off ch=1 n=g#5 v=0
126669 On ch=1 n=e5 v=53
126669 On ch=1 n=b5 v=52
126677 Off ch=1 n=b4 v=0
126855 On ch=1 n=g#5 v=46
126863 Off ch=1 n=b5 v=0
126873 Off ch=1 n=e5 v=0
127043 On ch=1 n=b4 v=56
127064 Off ch=1 n=g#5 v=0
127249 On ch=1 n=e5 v=49
127252 On ch=1 n=b5 v=58
127257 Off ch=1 n=b4 v=0
127427 On ch=1 n=g#5 v=46
127437 Off ch=1 n=b5 v=0
127448 Off ch=1 n=e5 v=0
127603 On ch=1 n=b4 v=52
127622 Off ch=1 n=g#5 v=0
127785 Off ch=1 n=b4 v=0
127786 On ch=1 n=e5 v=47
127786 On ch=1 n=b5 v=62
127982 On ch=1 n=g#5 v=43
127992 Off ch=1 n=b5 v=0
128002 Off ch=1 n=e5 v=0
128173 On ch=1 n=b4 v=56
128191 Off ch=1 n=g#5 v=0
128363 Off ch=1 n=b4 v=0
128363 On ch=1 n=e5 v=51
128364 On ch=1 n=b5 v=53
128553 On ch=1 n=g#5 v=37
128569 Off ch=1 n=b5 v=0
128574 Off ch=1 n=e5 v=0
128748 Par ch=1 c=64 v=0
128754 On ch=1 n=b4 v=45
128761 Off ch=1 n=g#5 v=0
128943 On ch=1 n=e5 v=45
128943 On ch=1 n=b5 v=50
128950 Off ch=1 n=b4 v=0
129137 On ch=1 n=g#5 v=47
129153 Off ch=1 n=b5 v=0
129159 Off ch=1 n=e5 v=0
129292 Par ch=1 c=64 v=127
129331 On ch=1 n=b4 v=54
129351 Off ch=1 n=g#5 v=0
129518 On ch=1 n=e5 v=44
129520 Off ch=1 n=b4 v=0
129520 On ch=1 n=b5 v=48
129645 Off ch=1 n=g#4 v=0
129723 On ch=1 n=g#5 v=43
129738 Off ch=1 n=b5 v=0
129745 Off ch=1 n=e5 v=0
129869 Off ch=1 n=g#5 v=0
129883 Par ch=1 c=64 v=0
129918 On ch=1 n=g4 v=72
129918 On ch=1 n=b3 v=53
129918 On ch=1 n=e3 v=52
129918 Par ch=1 c=10 v=64
129955 On ch=1 n=b5 v=76
129957 On ch=1 n=g5 v=66
129957 On ch=1 n=d#5 v=62
130012 On ch=1 n=e5 v=46
130022 Off ch=1 n=d#5 v=0
130055 Par ch=1 c=10 v=64
130268 Off ch=1 n=b5 v=0
130269 Off ch=1 n=g5 v=0
130291 Off ch=1 n=g4 v=0
130308 Off ch=1 n=e5 v=0
130311 On ch=1 n=f#5 v=46
130317 Off ch=1 n=b3 v=0
130318 On ch=1 n=b5 v=66
130319 On ch=1 n=e6 v=64
130339 Off ch=1 n=e3 v=0
130381 On ch=1 n=g5 v=54
130395 Off ch=1 n=f#5 v=0
130641 Off ch=1 n=e6 v=0
130651 Off ch=1 n=b5 v=0
130675 Off ch=1 n=g5 v=0
130679 On ch=1 n=g3 v=51
130689 On ch=1 n=a#5 v=56
130693 On ch=1 n=e6 v=68
130696 On ch=1 n=g6 v=70
130716 On ch=1 n=e4 v=72
130722 On ch=1 n=b4 v=72
130747 On ch=1 n=b5 v=58
130763 Off ch=1 n=a#5 v=0
130949 Off ch=1 n=g3 v=0
130976 Off ch=1 n=e4 v=0
130998 Off ch=1 n=b4 v=0
131020 Off ch=1 n=g6 v=0
131024 Off ch=1 n=b5 v=0
131030 On ch=1 n=a3 v=66
131051 Off ch=1 n=e6 v=0
131068 On ch=1 n=e4 v=64
131076 On ch=1 n=c6 v=68
131076 On ch=1 n=g6 v=68
131077 On ch=1 n=b5 v=68
131107 On ch=1 n=c5 v=70
131135 On ch=1 n=a5 v=45
131142 Off ch=1 n=b5 v=0
131398 Off ch=1 n=a3 v=0
131409 Off ch=1 n=e4 v=0
131410 Off ch=1 n=c5 v=0
131411 Off ch=1 n=c6 v=0
131423 Off ch=1 n=g6 v=0
131429 Off ch=1 n=a5 v=0
131447 On ch=1 n=f#6 v=62
131447 On ch=1 n=g#5 v=68
131449 On ch=1 n=c6 v=58
131515 On ch=1 n=a5 v=53
131534 Off ch=1 n=g#5 v=0
131722 Off ch=1 n=c6 v=0
131752 Off ch=1 n=f#6 v=0
131805 On ch=1 n=c4 v=62
131808 Off ch=1 n=a5 v=0
131828 On ch=1 n=c6 v=62
131828 On ch=1 n=f#6 v=49
131831 On ch=1 n=a6 v=53
131841 On ch=1 n=a4 v=70
131849 On ch=1 n=e5 v=64
131895 On ch=1 n=b5 v=56
131911 Off ch=1 n=c6 v=0
132057 Off ch=1 n=c4 v=0
132069 Off ch=1 n=a4 v=0
132086 Off ch=1 n=e5 v=0
132128 Off ch=1 n=b5 v=0
132142 Off ch=1 n=a6 v=0
132161 Off ch=1 n=f#6 v=0
132163 On ch=1 n=b3 v=50
132206 On ch=1 n=a4 v=60
132216 On ch=1 n=d#6 v=47
132218 On ch=1 n=g6 v=70
132221 On ch=1 n=b5 v=56
132226 On ch=1 n=d#5 v=51
132275 On ch=1 n=a5 v=45
132285 Off ch=1 n=b5 v=0
132570 Off ch=1 n=a4 v=0
132577 Off ch=1 n=d#6 v=0
132582 Off ch=1 n=d#5 v=0
132585 Off ch=1 n=a5 v=0
132591 Off ch=1 n=g6 v=0
132596 Off ch=1 n=b3 v=0
132604 On ch=1 n=g#5 v=68
132609 On ch=1 n=f#6 v=64
132610 On ch=1 n=d#6 v=53
132673 On ch=1 n=a5 v=66
132683 Off ch=1 n=g#5 v=0
132951 Off ch=1 n=d#6 v=0
132955 Off ch=1 n=f#6 v=0
132959 On ch=1 n=b3 v=64
132968 Off ch=1 n=a5 v=0
132979 On ch=1 n=b5 v=54
132980 On ch=1 n=d#6 v=52
132984 On ch=1 n=g6 v=68
133004 On ch=1 n=d#4 v=48
133046 On ch=1 n=a5 v=54
133061 Off ch=1 n=b5 v=0
133231 Off ch=1 n=b3 v=0
133279 Off ch=1 n=d#4 v=0
133296 Off ch=1 n=a5 v=0
133314 On ch=1 n=e3 v=60
133326 Off ch=1 n=g6 v=0
133331 Off ch=1 n=d#6 v=0
133352 On ch=1 n=f#6 v=43
133357 On ch=1 n=b5 v=54
133357 On ch=1 n=a5 v=70
133388 On ch=1 n=b3 v=84
133388 On ch=1 n=g4 v=66
133426 On ch=1 n=g5 v=52
133442 Off ch=1 n=a5 v=0
133673 Off ch=1 n=b5 v=0
133701 Off ch=1 n=g5 v=0
133707 Off ch=1 n=f#6 v=0
133724 Off ch=1 n=e3 v=0
133729 On ch=1 n=e6 v=64
133730 On ch=1 n=b5 v=51
133731 On ch=1 n=f#5 v=62
133739 Off ch=1 n=b3 v=0
133754 Off ch=1 n=g4 v=0
133789 On ch=1 n=g5 v=45
133797 Off ch=1 n=f#5 v=0
134052 On ch=1 n=f#3 v=62
134079 Off ch=1 n=g5 v=0
134087 Off ch=1 n=b5 v=0
134091 On ch=1 n=d4 v=56
134099 Off ch=1 n=e6 v=0
134101 On ch=1 n=a4 v=70
134115 On ch=1 n=g#5 v=66
134120 On ch=1 n=d6 v=70
134121 On ch=1 n=c6 v=72
134193 On ch=1 n=a5 v=50
134218 Off ch=1 n=g#5 v=0
134366 Off ch=1 n=f#3 v=0
134384 Off ch=1 n=d4 v=0
134391 Off ch=1 n=a4 v=0
134439 On ch=1 n=g3 v=68
134458 Off ch=1 n=d6 v=0
134467 Off ch=1 n=c6 v=0
134481 Off ch=1 n=a5 v=0
134485 On ch=1 n=d4 v=64
134497 On ch=1 n=d6 v=78
134499 On ch=1 n=b5 v=64
134502 On ch=1 n=f#5 v=74
134513 On ch=1 n=b4 v=72
134557 On ch=1 n=g5 v=46
134567 Off ch=1 n=f#5 v=0
134832 Off ch=1 n=d6 v=0
134842 Off ch=1 n=b5 v=0
134880 On ch=1 n=a#5 v=60
134886 Off ch=1 n=g5 v=0
134887 On ch=1 n=d6 v=74
134890 On ch=1 n=g6 v=78
134907 Off ch=1 n=g3 v=0
134915 Off ch=1 n=d4 v=0
134926 Off ch=1 n=b4 v=0
134949 On ch=1 n=b5 v=52
134968 Off ch=1 n=a#5 v=0
135211 On ch=1 n=b3 v=62
135230 Off ch=1 n=g6 v=0
135247 On ch=1 n=g4 v=60
135251 Off ch=1 n=d6 v=0
135259 On ch=1 n=d5 v=68
135285 On ch=1 n=c#6 v=64
135290 On ch=1 n=g6 v=88
135293 On ch=1 n=b6 v=82
135300 Off ch=1 n=b5 v=0
135355 On ch=1 n=d6 v=74
135379 Off ch=1 n=c#6 v=0
135516 Off ch=1 n=b3 v=0
135544 Off ch=1 n=d5 v=0
135549 Off ch=1 n=g4 v=0
135585 On ch=1 n=c4 v=64
135626 Off ch=1 n=b6 v=0
135626 On ch=1 n=g4 v=76
135633 Off ch=1 n=d6 v=0
135648 On ch=1 n=e5 v=76
135651 Off ch=1 n=g6 v=0
135673 On ch=1 n=b6 v=72
135674 On ch=1 n=e6 v=74
135680 On ch=1 n=d6 v=74
135744 On ch=1 n=c6 v=47
135748 Off ch=1 n=d6 v=0
135947 Off ch=1 n=c4 v=0
135975 Off ch=1 n=e5 v=0
135975 Off ch=1 n=g4 v=0
136002 Off ch=1 n=e6 v=0
136003 Off ch=1 n=b6 v=0
136048 On ch=1 n=b5 v=60
136050 Off ch=1 n=c6 v=0
136051 On ch=1 n=a6 v=60
136053 On ch=1 n=e6 v=68
136111 On ch=1 n=c6 v=42
136120 Off ch=1 n=b5 v=0
136313 Off ch=1 n=e6 v=0
136371 Off ch=1 n=a6 v=0
136378 On ch=1 n=e4 v=54
136411 On ch=1 n=c5 v=64
136417 On ch=1 n=g5 v=78
136452 On ch=1 n=e6 v=56
136454 Off ch=1 n=c6 v=0
136454 On ch=1 n=a6 v=62
136455 On ch=1 n=c7 v=58
136515 On ch=1 n=d6 v=47
136530 Off ch=1 n=e6 v=0
136734 Off ch=1 n=e4 v=0
136751 Off ch=1 n=a6 v=0
136762 Off ch=1 n=c5 v=0
136781 Off ch=1 n=g5 v=0
136788 On ch=1 n=d4 v=68
136819 Off ch=1 n=c7 v=0
136819 On ch=1 n=f#5 v=54
136822 On ch=1 n=c5 v=60
136834 On ch=1 n=a6 v=66
136835 Off ch=1 n=d6 v=0
136836 On ch=1 n=f#6 v=70
136840 On ch=1 n=b5 v=58
136900 On ch=1 n=c6 v=62
136914 Off ch=1 n=b5 v=0
137000 Off ch=1 n=c5 v=0
137024 Off ch=1 n=d4 v=0
137108 Off ch=1 n=f#5 v=0
137162 On ch=1 n=g3 v=54
137174 Off ch=1 n=f#6 v=0
137192 Off ch=1 n=a6 v=0
137193 Off ch=1 n=c6 v=0
137202 On ch=1 n=b4 v=64
137202 On ch=1 n=d4 v=72
137208 On ch=1 n=c#6 v=78
137211 On ch=1 n=f#6 v=52
137215 On ch=1 n=b6 v=70
137270 On ch=1 n=d6 v=60
137286 Off ch=1 n=c#6 v=0
137460 Off ch=1 n=g3 v=0
137516 Off ch=1 n=b4 v=0
137520 Off ch=1 n=d4 v=0
137525 On ch=1 n=c4 v=58
137536 Off ch=1 n=d6 v=0
137540 Off ch=1 n=b6 v=0
137558 Off ch=1 n=f#6 v=0
137569 On ch=1 n=a#5 v=53
137572 On ch=1 n=e6 v=58
137573 On ch=1 n=g4 v=60
137573 On ch=1 n=g6 v=68
137582 On ch=1 n=e5 v=74
137622 On ch=1 n=b5 v=47
137637 Off ch=1 n=a#5 v=0
137788 Off ch=1 n=g4 v=0
137807 Off ch=1 n=c4 v=0
137860 Off ch=1 n=e5 v=0
137916 Off ch=1 n=b5 v=0
137916 On ch=1 n=f#3 v=47
137920 Off ch=1 n=e6 v=0
137931 Off ch=1 n=g6 v=0
137946 On ch=1 n=c4 v=74
137951 On ch=1 n=b5 v=60
137953 On ch=1 n=a6 v=62
137953 On ch=1 n=e6 v=70
137961 On ch=1 n=a4 v=70
138018 On ch=1 n=c6 v=47
138028 Off ch=1 n=b5 v=0
138278 Off ch=1 n=c4 v=0
138288 Off ch=1 n=f#3 v=0
138298 Off ch=1 n=a4 v=0
138301 Off ch=1 n=e6 v=0
138313 Off ch=1 n=a6 v=0
138321 Off ch=1 n=c6 v=0
138331 On ch=1 n=f#6 v=70
138331 On ch=1 n=g#5 v=60
138334 On ch=1 n=e6 v=74
138384 On ch=1 n=a5 v=50
138400 Off ch=1 n=g#5 v=0
138685 On ch=1 n=b3 v=70
138691 Off ch=1 n=e6 v=0
138698 Off ch=1 n=f#6 v=0
138705 On ch=1 n=a4 v=62
138707 Off ch=1 n=a5 v=0
138712 On ch=1 n=d#6 v=52
138715 On ch=1 n=g6 v=76
138717 On ch=1 n=b5 v=62
138743 On ch=1 n=d#5 v=70
138778 On ch=1 n=a5 v=47
138788 Off ch=1 n=b5 v=0
138948 Off ch=1 n=b3 v=0
138953 Off ch=1 n=d#5 v=0
138960 Off ch=1 n=a4 v=0
139020 Off ch=1 n=a5 v=0
139028 Off ch=1 n=g6 v=0
139029 Off ch=1 n=d#6 v=0
139113 On ch=1 n=e3 v=78
139113 On ch=1 n=e3 v=66
139113 On ch=1 n=d#5 v=37
139113 On ch=1 n=d#5 v=42
139113 On ch=1 n=b5 v=60
139113 On ch=1 n=g5 v=58
139114 On ch=1 n=e3 v=60
139115 On ch=1 n=b5 v=64
139118 On ch=1 n=g5 v=56
139120 On ch=1 n=d#5 v=30
139124 On ch=1 n=e5 v=49
139127 Par ch=1 c=10 v=64
139131 On ch=1 n=b5 v=66
139133 On ch=1 n=g5 v=58
139155 On ch=1 n=e5 v=49
139160 On ch=1 n=g4 v=78
139160 On ch=1 n=e5 v=45
139167 Off ch=1 n=e3 v=0
139172 Off ch=1 n=e3 v=0
139182 Off ch=1 n=d#5 v=0
139183 Off ch=1 n=d#5 v=0
139198 Off ch=1 n=e3 v=0
139208 Off ch=1 n=d#5 v=0
139212 Par ch=1 c=64 v=127
139302 Par ch=1 c=10 v=64
139361 Off ch=1 n=e5 v=0
139377 Off ch=1 n=b5 v=0
139379 Off ch=1 n=b5 v=0
139389 Off ch=1 n=g5 v=0
139391 Off ch=1 n=e5 v=0
139405 Off ch=1 n=e5 v=0
139405 Off ch=1 n=g5 v=0
139441 Off ch=1 n=b5 v=0
139451 Off ch=1 n=g5 v=0
139478 Par ch=1 c=64 v=0
139490 On ch=1 n=e4 v=76
139498 Off ch=1 n=g4 v=0
139526 On ch=1 n=f#5 v=47
139532 On ch=1 n=b5 v=68
139533 On ch=1 n=e6 v=66
139540 On ch=1 n=g4 v=66
139556 Off ch=1 n=e4 v=0
139590 On ch=1 n=g5 v=62
139606 Off ch=1 n=f#5 v=0
139814 Off ch=1 n=g5 v=0
139835 Off ch=1 n=e6 v=0
139844 Off ch=1 n=b5 v=0
139860 On ch=1 n=b3 v=78
139872 Off ch=1 n=g4 v=0
139907 On ch=1 n=a#5 v=60
139915 On ch=1 n=g6 v=78
139915 On ch=1 n=e6 v=74
139932 On ch=1 n=e3 v=70
139939 Off ch=1 n=b3 v=0
139941 On ch=1 n=b5 v=70
139964 Off ch=1 n=a#5 v=0
139970 Par ch=1 c=64 v=127
140183 Off ch=1 n=g6 v=0
140191 Off ch=1 n=e6 v=0
140199 Off ch=1 n=b5 v=0
140249 On ch=1 n=a3 v=86
140259 Off ch=1 n=e3 v=0
140269 On ch=1 n=b5 v=72
140276 Par ch=1 c=64 v=0
140276 On ch=1 n=c6 v=80
140276 On ch=1 n=g6 v=84
140304 On ch=1 n=c5 v=74
140327 On ch=1 n=a5 v=60
140335 Off ch=1 n=a3 v=0
140339 Par ch=1 c=64 v=127
140344 Off ch=1 n=b5 v=0
140584 Off ch=1 n=a5 v=0
140591 On ch=1 n=f#4 v=74
140594 Off ch=1 n=c6 v=0
140595 Off ch=1 n=g6 v=0
140610 Off ch=1 n=c5 v=0
140646 Par ch=1 c=64 v=0
140655 On ch=1 n=c5 v=70
140659 On ch=1 n=g#5 v=66
140662 On ch=1 n=f#6 v=72
140665 On ch=1 n=c6 v=68
140668 Off ch=1 n=f#4 v=0
140705 On ch=1 n=a5 v=47
140721 Off ch=1 n=g#5 v=0
140938 Off ch=1 n=a5 v=0
140946 Off ch=1 n=f#6 v=0
140947 Off ch=1 n=c6 v=0
140976 On ch=1 n=f#4 v=80
140995 Off ch=1 n=c5 v=0
141037 On ch=1 n=c6 v=68
141039 On ch=1 n=a3 v=68
141039 On ch=1 n=f#6 v=78
141040 On ch=1 n=a6 v=76
141049 Off ch=1 n=f#4 v=0
141099 On ch=1 n=b5 v=49
141115 Off ch=1 n=c6 v=0
141325 Off ch=1 n=b5 v=0
141347 Off ch=1 n=a3 v=0
141356 Off ch=1 n=f#6 v=0
141361 Off ch=1 n=a6 v=0
141380 On ch=1 n=b3 v=86
141425 On ch=1 n=d#6 v=68
141426 On ch=1 n=b5 v=66
141427 On ch=1 n=g6 v=80
141437 On ch=1 n=d#5 v=60
141478 Off ch=1 n=b3 v=0
141478 On ch=1 n=a5 v=60
141496 Off ch=1 n=b5 v=0
141548 Par ch=1 c=64 v=127
141749 Off ch=1 n=a5 v=0
141759 Off ch=1 n=d#6 v=0
141761 On ch=1 n=f#4 v=68
141769 Off ch=1 n=d#5 v=0
141778 Off ch=1 n=g6 v=0
141814 On ch=1 n=d#5 v=78
141826 On ch=1 n=f#6 v=76
141826 On ch=1 n=g#5 v=72
141827 Par ch=1 c=64 v=0
141829 On ch=1 n=d#6 v=74
141833 Off ch=1 n=f#4 v=0
141871 On ch=1 n=a5 v=45
141888 Off ch=1 n=g#5 v=0
142128 Off ch=1 n=a5 v=0
142146 Off ch=1 n=d#6 v=0
142150 Off ch=1 n=f#6 v=0
142160 On ch=1 n=a4 v=82
142188 Off ch=1 n=d#5 v=0
142217 Off ch=1 n=a4 v=0
142219 On ch=1 n=b3 v=72
142220 On ch=1 n=d#6 v=60
142221 On ch=1 n=b5 v=62
142223 On ch=1 n=g6 v=76
142241 Par ch=1 c=64 v=127
142279 On ch=1 n=a5 v=58
142296 Off ch=1 n=b5 v=0
142477 Off ch=1 n=a5 v=0
142483 Off ch=1 n=g6 v=0
142517 Off ch=1 n=d#6 v=0
142544 Off ch=1 n=b3 v=0
142564 On ch=1 n=e4 v=80
142586 On ch=1 n=a5 v=70
142587 On ch=1 n=f#6 v=52
142589 On ch=1 n=b5 v=53
142593 Par ch=1 c=64 v=0
142631 On ch=1 n=e5 v=82
142640 On ch=1 n=g5 v=54
142654 Par ch=1 c=64 v=127
142659 Off ch=1 n=a5 v=0
142664 Off ch=1 n=e4 v=0
142863 Off ch=1 n=b5 v=0
142873 Off ch=1 n=f#6 v=0
142875 Off ch=1 n=g5 v=0
142924 On ch=1 n=b4 v=82
142935 Off ch=1 n=e5 v=0
142958 Par ch=1 c=64 v=0
142964 On ch=1 n=f#5 v=66
142965 On ch=1 n=e6 v=66
142968 On ch=1 n=b5 v=56
142989 On ch=1 n=e5 v=80
143004 Par ch=1 c=64 v=127
143006 Off ch=1 n=b4 v=0
143021 On ch=1 n=g5 v=50
143037 Off ch=1 n=f#5 v=0
143218 Off ch=1 n=b5 v=0
143219 Off ch=1 n=g5 v=0
143222 Off ch=1 n=e6 v=0
143264 Par ch=1 c=64 v=0
143303 On ch=1 n=g#3 v=88
143320 Off ch=1 n=e5 v=0
143348 On ch=1 n=d6 v=78
143348 On ch=1 n=b5 v=76
143349 On ch=1 n=e5 v=70
143395 Par ch=1 c=64 v=127
143500 On ch=1 n=b4 v=84
143515 Off ch=1 n=g#3 v=0
143546 On ch=1 n=f5 v=64
143568 Off ch=1 n=e5 v=0
143617 Off ch=1 n=d6 v=0
143652 Off ch=1 n=b4 v=0
143662 Off ch=1 n=f5 v=0
143689 Off ch=1 n=b5 v=0
143694 On ch=1 n=d4 v=84
143703 Par ch=1 c=64 v=0
143729 On ch=1 n=a#5 v=43
143736 On ch=1 n=d6 v=78
143737 On ch=1 n=f6 v=82
143765 Par ch=1 c=64 v=127
143896 On ch=1 n=f5 v=78
143904 Off ch=1 n=d4 v=0
143947 Off ch=1 n=f6 v=0
143952 On ch=1 n=b5 v=74
143977 Off ch=1 n=a#5 v=0
144025 Off ch=1 n=f5 v=0
144087 Off ch=1 n=b5 v=0
144091 On ch=1 n=f4 v=78
144095 Par ch=1 c=64 v=0
144103 Off ch=1 n=d6 v=0
144146 On ch=1 n=f6 v=74
144146 On ch=1 n=b6 v=78
144146 On ch=1 n=c#6 v=78
144153 Par ch=1 c=64 v=127
144306 On ch=1 n=g#5 v=88
144328 Off ch=1 n=f4 v=0
144335 On ch=1 n=d6 v=68
144356 Off ch=1 n=c#6 v=0
144374 Off ch=1 n=b6 v=0
144469 Off ch=1 n=g#5 v=0
144475 Off ch=1 n=f6 v=0
144490 On ch=1 n=g#4 v=74
144496 Par ch=1 c=64 v=0
144540 On ch=1 n=b6 v=86
144545 On ch=1 n=d7 v=78
144545 On ch=1 n=e6 v=66
144551 Off ch=1 n=d6 v=0
144576 Par ch=1 c=64 v=127
144706 On ch=1 n=b5 v=80
144724 Off ch=1 n=g#4 v=0
144752 On ch=1 n=f6 v=78
144775 Off ch=1 n=e6 v=0
144839 Off ch=1 n=b5 v=0
144861 On ch=1 n=g#4 v=44
144868 On ch=1 n=d5 v=50
144883 Off ch=1 n=d7 v=0
144886 Off ch=1 n=b6 v=0
144890 On ch=1 n=f5 v=66
144893 Off ch=1 n=f6 v=0
144916 On ch=1 n=b5 v=94
144921 Par ch=1 c=64 v=0
144948 On ch=1 n=d7 v=90
144950 On ch=1 n=e6 v=84
144950 On ch=1 n=b6 v=92
144991 Par ch=1 c=64 v=127
145121 On ch=1 n=f6 v=60
145136 Off ch=1 n=e6 v=0
145231 Off ch=1 n=d5 v=0
145240 Off ch=1 n=d7 v=0
145248 Off ch=1 n=b5 v=0
145265 Off ch=1 n=f6 v=0
145265 Off ch=1 n=b6 v=0
145267 On ch=1 n=e5 v=72
145267 On ch=1 n=a4 v=76
145273 Off ch=1 n=f5 v=0
145273 On ch=1 n=a5 v=84
145289 Off ch=1 n=g#4 v=0
145294 On ch=1 n=c7 v=84
145295 On ch=1 n=d#6 v=72
145295 On ch=1 n=a6 v=82
145345 Par ch=1 c=64 v=0
145472 On ch=1 n=e6 v=54
145487 Off ch=1 n=d#6 v=0
145574 Off ch=1 n=e5 v=0
145591 Off ch=1 n=a5 v=0
145603 On ch=1 n=b4 v=78
145604 On ch=1 n=e5 v=72
145604 On ch=1 n=g5 v=86
145613 Off ch=1 n=a4 v=0
145621 Off ch=1 n=e6 v=0
145630 Off ch=1 n=a6 v=0
145632 Off ch=1 n=c7 v=0
145662 On ch=1 n=g6 v=80
145663 On ch=1 n=b6 v=84
145667 On ch=1 n=d#6 v=72
145848 On ch=1 n=e6 v=44
145858 Off ch=1 n=d#6 v=0
145942 Off ch=1 n=b4 v=0
145945 Off ch=1 n=g5 v=0
145946 Off ch=1 n=e5 v=0
145966 On ch=1 n=g5 v=82
145967 On ch=1 n=e5 v=78
145972 On ch=1 n=b4 v=78
146004 Off ch=1 n=e6 v=0
146006 Off ch=1 n=g6 v=0
146010 Off ch=1 n=b6 v=0
146040 On ch=1 n=g6 v=60
146043 On ch=1 n=d#6 v=47
146043 On ch=1 n=b6 v=74
146236 On ch=1 n=e6 v=46
146244 Off ch=1 n=d#6 v=0
146339 Off ch=1 n=e5 v=0
146369 On ch=1 n=f#5 v=49
146370 On ch=1 n=e5 v=64
146371 On ch=1 n=c5 v=54
146386 Off ch=1 n=b4 v=0
146388 Off ch=1 n=g5 v=0
146390 Off ch=1 n=g6 v=0
146391 Off ch=1 n=e6 v=0
146394 Off ch=1 n=b6 v=0
146436 On ch=1 n=f#6 v=53
146437 On ch=1 n=a6 v=68
146437 On ch=1 n=d#6 v=56
146635 On ch=1 n=e6 v=62
146644 Off ch=1 n=d#6 v=0
146716 Off ch=1 n=e5 v=0
146761 Off ch=1 n=f#5 v=0
146763 Off ch=1 n=e6 v=0
146767 On ch=1 n=g5 v=84
146767 On ch=1 n=e5 v=82
146768 On ch=1 n=b4 v=80
146792 Off ch=1 n=c5 v=0
146794 Off ch=1 n=a6 v=0
146795 Off ch=1 n=f#6 v=0
146824 On ch=1 n=d#6 v=84
146825 On ch=1 n=b6 v=90
146826 On ch=1 n=g6 v=90
147010 On ch=1 n=e6 v=66
147029 Off ch=1 n=d#6 v=0
147102 Off ch=1 n=e5 v=0
147148 On ch=1 n=a4 v=82
147149 On ch=1 n=c5 v=76
147150 On ch=1 n=f#5 v=62
147152 On ch=1 n=e5 v=78
147162 Off ch=1 n=e6 v=0
147174 Off ch=1 n=b6 v=0
147178 Off ch=1 n=g6 v=0
147180 Off ch=1 n=b4 v=0
147180 Off ch=1 n=g5 v=0
147217 On ch=1 n=d#6 v=70
147217 On ch=1 n=d7 v=98
147218 On ch=1 n=a6 v=88
147389 On ch=1 n=e6 v=50
147401 Off ch=1 n=d#6 v=0
147521 Off ch=1 n=e5 v=0
147525 Off ch=1 n=c5 v=0
147527 Off ch=1 n=f#5 v=0
147528 Off ch=1 n=a4 v=0
147555 Off ch=1 n=a6 v=0
147566 Off ch=1 n=e6 v=0
147581 Off ch=1 n=d7 v=0
147612 On ch=1 n=c7 v=78
147613 On ch=1 n=a6 v=74
147615 On ch=1 n=d#6 v=52
147794 On ch=1 n=e6 v=44
147810 Off ch=1 n=d#6 v=0
147824 Par ch=1 c=10 v=64
147851 Off ch=1 n=c7 v=0
147857 Off ch=1 n=a6 v=0
147910 Off ch=1 n=e6 v=0
147972 On ch=1 n=b4 v=53
147973 On ch=1 n=b5 v=80
147979 On ch=1 n=b5 v=58
147982 On ch=1 n=g#5 v=54
147983 On ch=1 n=d#6 v=68
148098 Par ch=1 c=64 v=127
148165 Off ch=1 n=g#5 v=0
148186 On ch=1 n=a5 v=39
148206 Off ch=1 n=b5 v=0
148211 Off ch=1 n=d#6 v=0
148314 Par ch=1 c=10 v=64
148314 On ch=1 n=e6 v=68
148314 On ch=1 n=b5 v=68
148314 On ch=1 n=f#5 v=35
148329 On ch=1 n=g5 v=68
148334 Par ch=1 c=64 v=0
148336 Off ch=1 n=a5 v=0
148370 Off ch=1 n=f#5 v=0
148376 On ch=1 n=e4 v=68
148391 Off ch=1 n=b4 v=0
148421 Off ch=1 n=b5 v=0
148431 Off ch=1 n=e4 v=0
148451 Par ch=1 c=10 v=64
148517 Par ch=1 c=64 v=127
148607 Off ch=1 n=e6 v=0
148611 Off ch=1 n=b5 v=0
148617 Off ch=1 n=g5 v=0
148706 On ch=1 n=b5 v=72
148720 On ch=1 n=a#5 v=62
148727 On ch=1 n=e6 v=88
148727 On ch=1 n=g6 v=90
148790 On ch=1 n=b5 v=44
148805 Off ch=1 n=a#5 v=0
148985 Off ch=1 n=b5 v=0
149018 Off ch=1 n=e6 v=0
149028 Off ch=1 n=g6 v=0
149089 On ch=1 n=g6 v=96
149089 On ch=1 n=e6 v=92
149089 On ch=1 n=a#5 v=62
149096 On ch=1 n=b4 v=54
149141 On ch=1 n=b5 v=49
149143 Par ch=1 c=64 v=0
149147 Off ch=1 n=a#5 v=0
149204 Par ch=1 c=64 v=127
149226 Par ch=1 c=64 v=0
149289 Off ch=1 n=b5 v=0
149299 Off ch=1 n=e6 v=0
149304 Off ch=1 n=g6 v=0
149461 On ch=1 n=a#5 v=64
149469 On ch=1 n=b3 v=68
149471 On ch=1 n=g6 v=86
149472 On ch=1 n=e6 v=84
149482 Off ch=1 n=b4 v=0
149527 On ch=1 n=b5 v=58
149542 Off ch=1 n=a#5 v=0
149547 Off ch=1 n=b3 v=0
149555 Off ch=1 n=b5 v=0
149584 Par ch=1 c=64 v=127
149762 Off ch=1 n=b5 v=0
149787 Off ch=1 n=e6 v=0
149797 Off ch=1 n=g6 v=0
149845 On ch=1 n=b5 v=72
149847 On ch=1 n=a6 v=86
149848 On ch=1 n=e6 v=92
149860 On ch=1 n=b5 v=82
149903 On ch=1 n=c6 v=52
149913 Off ch=1 n=b5 v=0
150153 Off ch=1 n=c6 v=0
150182 Off ch=1 n=e6 v=0
150186 Off ch=1 n=a6 v=0
150223 On ch=1 n=b4 v=64
150230 On ch=1 n=a#5 v=76
150236 On ch=1 n=g6 v=92
150237 On ch=1 n=e6 v=88
150290 On ch=1 n=b5 v=49
150299 Off ch=1 n=a#5 v=0
150506 Off ch=1 n=b5 v=0
150516 Off ch=1 n=e6 v=0
150518 Off ch=1 n=g6 v=0
150564 Par ch=1 c=64 v=0
150594 On ch=1 n=d#4 v=51
150603 Off ch=1 n=b4 v=0
150626 On ch=1 n=a#5 v=37
150631 On ch=1 n=g6 v=86
150663 Off ch=1 n=b5 v=0
150666 Off ch=1 n=d#4 v=0
150676 On ch=1 n=b5 v=51
150691 Off ch=1 n=a#5 v=0
150727 Par ch=1 c=64 v=127
150893 Off ch=1 n=b5 v=0
150967 Off ch=1 n=g6 v=0
151004 On ch=1 n=b5 v=72
151007 On ch=1 n=g#5 v=46
151010 On ch=1 n=f#6 v=62
151013 On ch=1 n=b5 v=58
151070 On ch=1 n=a5 v=45
151079 Off ch=1 n=g#5 v=0
151221 Off ch=1 n=f#6 v=0
151264 Off ch=1 n=a5 v=0
151290 Off ch=1 n=b5 v=0
151367 On ch=1 n=f5 v=39
151368 On ch=1 n=b5 v=62
151369 On ch=1 n=a5 v=58
151379 On ch=1 n=b4 v=76
151416 On ch=1 n=f#5 v=37
151428 Off ch=1 n=f5 v=0
151674 Off ch=1 n=f#5 v=0
151692 Off ch=1 n=a5 v=0
151694 Off ch=1 n=b5 v=0
151727 On ch=1 n=b3 v=84
151731 Off ch=1 n=b4 v=0
151740 On ch=1 n=a5 v=68
151740 On ch=1 n=b5 v=74
151743 On ch=1 n=f5 v=51
151744 Par ch=1 c=64 v=0
151793 Off ch=1 n=b5 v=0
151793 On ch=1 n=f#5 v=53
151798 Off ch=1 n=b3 v=0
151801 Off ch=1 n=f5 v=0
151923 Par ch=1 c=64 v=127
152069 Off ch=1 n=f#5 v=0
152081 Off ch=1 n=b5 v=0
152081 Off ch=1 n=a5 v=0
152116 On ch=1 n=b5 v=88
152121 On ch=1 n=f#5 v=60
152126 On ch=1 n=b5 v=76
152128 On ch=1 n=a5 v=72
152191 On ch=1 n=g5 v=49
152193 Off ch=1 n=a5 v=0
152203 Off ch=1 n=f#5 v=0
152421 Off ch=1 n=g5 v=0
152454 Off ch=1 n=b5 v=0
152505 On ch=1 n=b4 v=58
152509 On ch=1 n=b5 v=74
152509 On ch=1 n=f5 v=52
152557 On ch=1 n=f#5 v=52
152557 On ch=1 n=a5 v=68
152562 Off ch=1 n=f5 v=0
152677 Par ch=1 c=64 v=0
152820 Off ch=1 n=f#5 v=0
152830 Off ch=1 n=b5 v=0
152839 Off ch=1 n=a5 v=0
152891 On ch=1 n=e4 v=68
152892 Off ch=1 n=b4 v=0
152901 On ch=1 n=d#5 v=47
152908 On ch=1 n=b5 v=56
152910 Par ch=1 c=10 v=64
152910 On ch=1 n=d#5 v=35
152910 On ch=1 n=b5 v=62
152910 On ch=1 n=g5 v=56
152925 Off ch=1 n=b5 v=0
152960 Off ch=1 n=e4 v=0
152970 Off ch=1 n=d#5 v=0
153014 Par ch=1 c=64 v=127
153097 On ch=1 n=e5 v=53
153120 Off ch=1 n=d#5 v=0
153187 Off ch=1 n=g5 v=0
153199 Off ch=1 n=b5 v=0
153220 Off ch=1 n=e5 v=0
153221 Off ch=1 n=b5 v=0
153247 On ch=1 n=c6 v=74
153278 On ch=1 n=b5 v=68
153295 On ch=1 n=e6 v=68
153298 On ch=1 n=b5 v=70
153299 On ch=1 n=f#5 v=49
153304 Off ch=1 n=c6 v=0
153467 On ch=1 n=g5 v=56
153481 Off ch=1 n=f#5 v=0
153592 Off ch=1 n=b5 v=0
153594 Off ch=1 n=g5 v=0
153596 Off ch=1 n=e6 v=0
153635 Par ch=1 c=64 v=0
153643 On ch=1 n=e6 v=72
153645 On ch=1 n=g6 v=70
153646 On ch=1 n=a#5 v=74
153651 On ch=1 n=b4 v=62
153831 On ch=1 n=b5 v=68
153848 Off ch=1 n=a#5 v=0
153967 Off ch=1 n=e6 v=0
153970 Off ch=1 n=b5 v=0
153970 Off ch=1 n=g6 v=0
154020 On ch=1 n=g6 v=94
154022 On ch=1 n=e6 v=86
154027 On ch=1 n=a#5 v=70
154065 On ch=1 n=b3 v=72
154105 Off ch=1 n=b4 v=0
154109 Par ch=1 c=64 v=127
154111 Off ch=1 n=b3 v=0
154126 Par ch=1 c=64 v=0
154144 Par ch=1 c=64 v=127
154156 Off ch=1 n=b5 v=0
154199 On ch=1 n=b5 v=50
154209 Off ch=1 n=a#5 v=0
154363 Off ch=1 n=b5 v=0
154370 Off ch=1 n=e6 v=0
154382 Off ch=1 n=g6 v=0
154419 On ch=1 n=a6 v=76
154423 On ch=1 n=e6 v=86
154426 On ch=1 n=b5 v=58
154430 On ch=1 n=c6 v=84
154454 On ch=1 n=b5 v=74
154484 Off ch=1 n=c6 v=0
154607 On ch=1 n=c6 v=51
154622 Off ch=1 n=b5 v=0
154772 Off ch=1 n=e6 v=0
154776 Off ch=1 n=c6 v=0
154776 Off ch=1 n=a6 v=0
154780 Par ch=1 c=64 v=0
154810 On ch=1 n=g6 v=86
154811 On ch=1 n=b4 v=66
154811 On ch=1 n=e6 v=80
154817 On ch=1 n=a#5 v=58
155007 On ch=1 n=b5 v=56
155030 Off ch=1 n=a#5 v=0
155089 Off ch=1 n=e6 v=0
155118 Par ch=1 c=64 v=127
155142 Off ch=1 n=g6 v=0
155152 Off ch=1 n=b5 v=0
155198 On ch=1 n=a#5 v=64
155198 On ch=1 n=g6 v=92
155212 On ch=1 n=d#4 v=88
155215 Par ch=1 c=64 v=0
155222 Off ch=1 n=b4 v=0
155266 Off ch=1 n=b5 v=0
155285 Off ch=1 n=d#4 v=0
155363 Par ch=1 c=64 v=127
155391 On ch=1 n=b5 v=66
155412 Off ch=1 n=a#5 v=0
155430 Off ch=1 n=g6 v=0
155519 Off ch=1 n=b5 v=0
155559 On ch=1 n=c6 v=82
155586 On ch=1 n=b5 v=84
155588 On ch=1 n=g#5 v=52
155589 On ch=1 n=f#6 v=72
155593 On ch=1 n=b5 v=72
155617 Off ch=1 n=c6 v=0
155755 On ch=1 n=a5 v=56
155767 Off ch=1 n=g#5 v=0
155786 Off ch=1 n=f#6 v=0
155878 Off ch=1 n=b5 v=0
155894 Off ch=1 n=a5 v=0
155899 Par ch=1 c=64 v=0
155937 On ch=1 n=a5 v=70
155937 On ch=1 n=b5 v=76
155940 On ch=1 n=f5 v=62
155966 On ch=1 n=b4 v=70
156119 On ch=1 n=f#5 v=41
156136 Off ch=1 n=f5 v=0
156255 Off ch=1 n=a5 v=0
156256 Off ch=1 n=b5 v=0
156271 Off ch=1 n=f#5 v=0
156324 On ch=1 n=a5 v=80
156325 On ch=1 n=b5 v=82
156326 On ch=1 n=f5 v=68
156341 On ch=1 n=b3 v=72
156352 Off ch=1 n=b4 v=0
156385 Off ch=1 n=b5 v=0
156405 Off ch=1 n=b3 v=0
156430 Par ch=1 c=64 v=127
156526 On ch=1 n=f#5 v=41
156546 Off ch=1 n=f5 v=0
156664 Off ch=1 n=a5 v=0
156665 Off ch=1 n=b5 v=0
156674 Off ch=1 n=f#5 v=0
156715 On ch=1 n=c6 v=72
156727 On ch=1 n=f#5 v=68
156728 On ch=1 n=a5 v=72
156729 On ch=1 n=b5 v=78
156740 On ch=1 n=b5 v=72
156768 Off ch=1 n=c6 v=0
156918 On ch=1 n=g5 v=58
156939 Off ch=1 n=f#5 v=0
157060 Off ch=1 n=a5 v=0
157063 Off ch=1 n=g5 v=0
157063 Off ch=1 n=b5 v=0
157077 Par ch=1 c=64 v=0
157113 On ch=1 n=a5 v=72
157113 On ch=1 n=b5 v=78
157116 On ch=1 n=b4 v=66
157234 Par ch=1 c=64 v=127
157297 On ch=1 n=f#5 v=53
157297 On ch=1 n=f5 v=56
157313 Off ch=1 n=f5 v=0
157367 Off ch=1 n=a5 v=0
157421 Off ch=1 n=b5 v=0
157425 Off ch=1 n=f#5 v=0
157425 Par ch=1 c=64 v=0
157476 Off ch=1 n=b5 v=0
157490 On ch=1 n=e4 v=82
157501 Off ch=1 n=b4 v=0
157515 On ch=1 n=b5 v=74
157515 On ch=1 n=d#5 v=42
157515 On ch=1 n=g5 v=68
157592 Off ch=1 n=e4 v=0
157604 Par ch=1 c=64 v=127
157689 On ch=1 n=e5 v=52
157725 Off ch=1 n=d#5 v=0
157753 Par ch=1 c=10 v=64
157839 Off ch=1 n=e5 v=0
157851 Off ch=1 n=g5 v=0
157854 Off ch=1 n=b5 v=0
157864 On ch=1 n=b5 v=78
157865 On ch=1 n=f#5 v=76
157865 On ch=1 n=e6 v=76
157880 On ch=1 n=g4 v=84
157881 On ch=1 n=e4 v=90
157881 On ch=1 n=e5 v=90
158003 Par ch=1 c=10 v=64
158067 On ch=1 n=g5 v=64
158077 Off ch=1 n=f#5 v=0
158202 Off ch=1 n=e4 v=0
158205 Off ch=1 n=g4 v=0
158210 Off ch=1 n=e6 v=0
158215 Off ch=1 n=b5 v=0
158221 Off ch=1 n=e5 v=0
158226 Off ch=1 n=g5 v=0
158234 Par ch=1 c=64 v=0
158238 On ch=1 n=e5 v=98
158239 On ch=1 n=d#4 v=90
158240 On ch=1 n=g4 v=82
158261 On ch=1 n=a#5 v=84
158264 On ch=1 n=e6 v=78
158265 On ch=1 n=g6 v=84
158460 On ch=1 n=b5 v=62
158468 Off ch=1 n=a#5 v=0
158471 Off ch=1 n=g6 v=0
158571 Off ch=1 n=d#4 v=0
158573 Off ch=1 n=g4 v=0
158580 Off ch=1 n=b5 v=0
158587 Off ch=1 n=e5 v=0
158595 On ch=1 n=d4 v=92
158605 Off ch=1 n=e6 v=0
158624 On ch=1 n=g4 v=94
158634 On ch=1 n=e5 v=102
158650 On ch=1 n=b6 v=86
158651 On ch=1 n=g6 v=94
158652 On ch=1 n=d#6 v=58
158664 Par ch=1 c=10 v=64
158696 Off ch=1 n=g6 v=0
158703 On ch=1 n=g6 v=49
158828 On ch=1 n=e6 v=51
158840 Off ch=1 n=d#6 v=0
158964 Off ch=1 n=d4 v=0
158970 Off ch=1 n=g4 v=0
158974 Off ch=1 n=e5 v=0
158974 On ch=1 n=c4 v=90
158979 Off ch=1 n=e6 v=0
158985 Off ch=1 n=g6 v=0
158993 Off ch=1 n=b6 v=0
159005 On ch=1 n=g4 v=100
159006 On ch=1 n=e5 v=100
159022 On ch=1 n=e7 v=100
159023 On ch=1 n=b6 v=98
159024 On ch=1 n=f#6 v=64
159211 On ch=1 n=g6 v=50
159219 Off ch=1 n=f#6 v=0
159326 Off ch=1 n=c4 v=0
159340 Off ch=1 n=g4 v=0
159346 Off ch=1 n=e5 v=0
159346 On ch=1 n=b3 v=94
159383 Off ch=1 n=b6 v=0
159383 On ch=1 n=g4 v=100
159389 Off ch=1 n=e7 v=0
159390 Off ch=1 n=g6 v=0
159391 On ch=1 n=e5 v=88
159407 On ch=1 n=e7 v=98
159408 On ch=1 n=a#6 v=82
159408 On ch=1 n=g7 v=100
159610 On ch=1 n=b6 v=76
159628 Off ch=1 n=a#6 v=0
159696 Off ch=1 n=b3 v=0
159698 Off ch=1 n=e5 v=0
159700 Off ch=1 n=g4 v=0
159731 Off ch=1 n=e7 v=0
159733 Off ch=1 n=g7 v=0
159737 Off ch=1 n=b6 v=0
159742 On ch=1 n=a#3 v=96
159768 On ch=1 n=f#4 v=102
159775 On ch=1 n=e5 v=98
159816 Par ch=1 c=10 v=64
159816 On ch=1 n=f#5 v=96
159816 On ch=1 n=f#6 v=102
159816 On ch=1 n=c#6 v=96
159826 Par ch=1 c=64 v=127
159925 Off ch=1 n=a#3 v=0
159933 Off ch=1 n=e5 v=0
159947 Off ch=1 n=f#4 v=0
159947 On ch=1 n=e7 v=108
159950 On ch=1 n=a#3 v=108
160038 Off ch=1 n=c#6 v=0
160038 Off ch=1 n=f#5 v=0
160044 Off ch=1 n=f#6 v=0
160103 Off ch=1 n=a#3 v=0
160113 Off ch=1 n=e7 v=0
160391 Par ch=1 c=64 v=0
160965 Par ch=1 c=10 v=64
162065 On ch=1 n=b3 v=90
162097 On ch=1 n=g4 v=96
162111 On ch=1 n=e5 v=90
162117 Par ch=1 c=10 v=64
162119 On ch=1 n=c#5 v=52
162131 Off ch=1 n=c#5 v=0
162131 On ch=1 n=e6 v=94
162132 On ch=1 n=b6 v=82
162132 On ch=1 n=b5 v=90
162222 Par ch=1 c=64 v=127
162251 On ch=1 n=b7 v=100
162263 Off ch=1 n=b5 v=0
162263 Off ch=1 n=e6 v=0
162265 Off ch=1 n=b6 v=0
162377 Off ch=1 n=b7 v=0
162789 On ch=1 n=a2 v=64
162790 On ch=1 n=a3 v=76
162891 Off ch=1 n=g4 v=0
162894 Off ch=1 n=e5 v=0
162898 Off ch=1 n=b3 v=0
162905 Par ch=1 c=64 v=0
162953 Par ch=1 c=64 v=127
163160 On ch=1 n=g2 v=70
163162 On ch=1 n=g3 v=68
163176 Off ch=1 n=a2 v=0
163187 Off ch=1 n=a3 v=0
163247 Par ch=1 c=64 v=0
163295 Par ch=1 c=64 v=127
163937 On ch=1 n=c4 v=74
163941 On ch=1 n=c3 v=68
163957 Off ch=1 n=g2 v=0
163961 Off ch=1 n=g3 v=0
164015 Par ch=1 c=64 v=0
164119 Par ch=1 c=64 v=127
164243 Off ch=1 n=c3 v=0
164273 Off ch=1 n=c4 v=0
164321 On ch=1 n=b3 v=84
164368 On ch=1 n=f#4 v=68
164421 Par ch=1 c=10 v=64
164421 On ch=1 n=b5 v=64
164421 On ch=1 n=f#6 v=50
164421 On ch=1 n=b6 v=68
164428 On ch=1 n=e5 v=86
164431 Par ch=1 c=64 v=0
164467 Off ch=1 n=b6 v=0
164527 On ch=1 n=b7 v=74
164544 Par ch=1 c=64 v=127
164549 Off ch=1 n=b5 v=0
164554 Off ch=1 n=f#6 v=0
164660 Off ch=1 n=b7 v=0
165560 On ch=1 n=d#5 v=78
165594 Off ch=1 n=e5 v=0
165647 Par ch=1 c=64 v=0
165832 Par ch=1 c=64 v=127
166348 Off ch=1 n=b3 v=0
166360 Off ch=1 n=f#4 v=0
166603 Par ch=1 c=64 v=0
166629 Off ch=1 n=d#5 v=0
166725 On ch=1 n=a5 v=96
166725 On ch=1 n=c#4 v=90
166725 Par ch=1 c=10 v=64
166725 Par ch=1 c=10 v=64
166725 On ch=1 n=e5 v=102
166728 On ch=1 n=e3 v=100
166728 On ch=1 n=e6 v=102
166732 On ch=1 n=b3 v=82
166733 On ch=1 n=g#5 v=92
166784 Off ch=1 n=c#4 v=0
166787 Off ch=1 n=a5 v=0
167852 Off ch=1 n=b3 v=0
167853 Off ch=1 n=g#5 v=0
167868 On ch=1 n=c#4 v=94
167874 On ch=1 n=a5 v=96
167914 On ch=1 n=g#5 v=90
167915 On ch=1 n=b3 v=80
167929 Off ch=1 n=c#4 v=0
167931 Off ch=1 n=a5 v=0
168889 Off ch=1 n=b3 v=0
168899 Off ch=1 n=g#5 v=0
169012 On ch=1 n=c#4 v=80
169018 On ch=1 n=a5 v=92
169028 On ch=1 n=g#5 v=90
169054 On ch=1 n=b3 v=68
169059 Off ch=1 n=a5 v=0
169069 Off ch=1 n=c#4 v=0
169306 Off ch=1 n=b3 v=0
169325 Off ch=1 n=g#5 v=0
169416 On ch=1 n=c#4 v=94
169421 On ch=1 n=a5 v=94
169433 On ch=1 n=g#5 v=86
169449 On ch=1 n=b3 v=86
169463 Off ch=1 n=a5 v=0
169512 Off ch=1 n=c#4 v=0
170113 Off ch=1 n=g#5 v=0
170123 Off ch=1 n=b3 v=0
170129 On ch=1 n=c#4 v=82
170138 On ch=1 n=a5 v=92
170157 On ch=1 n=g#5 v=76
170159 On ch=1 n=b3 v=84
170176 Off ch=1 n=c#4 v=0
170180 Off ch=1 n=a5 v=0
170480 Off ch=1 n=b3 v=0
170480 Off ch=1 n=g#5 v=0
170503 On ch=1 n=c#4 v=74
170507 On ch=1 n=a5 v=86
170526 On ch=1 n=g#5 v=80
170533 On ch=1 n=b3 v=72
170549 Off ch=1 n=c#4 v=0
171264 Off ch=1 n=g#5 v=0
171264 Off ch=1 n=a5 v=0
171322 On ch=1 n=c#4 v=43
171330 On ch=1 n=a5 v=62
171331 Off ch=1 n=b3 v=0
171454 On ch=1 n=b3 v=47
171459 On ch=1 n=g#5 v=39
171470 Off ch=1 n=c#4 v=0
171475 Off ch=1 n=a5 v=0
171534 On ch=1 n=a5 v=52
171540 On ch=1 n=c#4 v=20
171548 Off ch=1 n=b3 v=0
171552 Off ch=1 n=g#5 v=0
171609 On ch=1 n=b3 v=47
171610 On ch=1 n=g#5 v=43
171620 Off ch=1 n=c#4 v=0
171622 Off ch=1 n=a5 v=0
171671 On ch=1 n=c#4 v=44
171674 On ch=1 n=a5 v=54
171680 Off ch=1 n=b3 v=0
171692 Off ch=1 n=g#5 v=0
171744 On ch=1 n=g#5 v=46
171750 On ch=1 n=b3 v=29
171759 Off ch=1 n=c#4 v=0
171760 Off ch=1 n=a5 v=0
171803 On ch=1 n=a5 v=53
171805 On ch=1 n=c#4 v=43
171816 Off ch=1 n=b3 v=0
171821 Off ch=1 n=g#5 v=0
171856 On ch=1 n=g#5 v=39
171858 On ch=1 n=b3 v=53
171867 Off ch=1 n=a5 v=0
171870 Off ch=1 n=c#4 v=0
171901 On ch=1 n=a5 v=54
171906 On ch=1 n=c#4 v=44
171911 Off ch=1 n=g#5 v=0
171913 Off ch=1 n=b3 v=0
171944 On ch=1 n=g#5 v=37
171950 Off ch=1 n=a5 v=0
171956 On ch=1 n=b3 v=50
171962 Off ch=1 n=c#4 v=0
171988 On ch=1 n=a5 v=53
171998 On ch=1 n=c#4 v=51
172000 Off ch=1 n=g#5 v=0
172007 Off ch=1 n=b3 v=0
172029 On ch=1 n=g#5 v=35
172034 Off ch=1 n=a5 v=0
172043 On ch=1 n=b3 v=51
172049 Off ch=1 n=c#4 v=0
172069 On ch=1 n=a5 v=48
172076 On ch=1 n=c#4 v=51
172079 Off ch=1 n=g#5 v=0
172082 Off ch=1 n=b3 v=0
172105 On ch=1 n=g#5 v=33
172110 Off ch=1 n=a5 v=0
172119 On ch=1 n=b3 v=51
172124 Off ch=1 n=c#4 v=0
172140 On ch=1 n=a5 v=50
172150 Off ch=1 n=g#5 v=0
172154 On ch=1 n=c#4 v=47
172158 Off ch=1 n=b3 v=0
172176 On ch=1 n=g#5 v=29
172180 Off ch=1 n=a5 v=0
172196 On ch=1 n=b3 v=47
172198 Off ch=1 n=c#4 v=0
172209 On ch=1 n=a5 v=51
172220 Off ch=1 n=g#5 v=0
172225 On ch=1 n=c#4 v=56
172230 Off ch=1 n=b3 v=0
172238 On ch=1 n=g#5 v=37
172244 Off ch=1 n=a5 v=0
172267 On ch=1 n=b3 v=56
172269 Off ch=1 n=c#4 v=0
172273 On ch=1 n=a5 v=49
172279 Off ch=1 n=g#5 v=0
172299 On ch=1 n=g#5 v=33
172300 On ch=1 n=c#4 v=51
172303 Off ch=1 n=b3 v=0
172304 Off ch=1 n=a5 v=0
172325 On ch=1 n=a5 v=56
172331 Off ch=1 n=g#5 v=0
172333 On ch=1 n=b3 v=60
172336 Off ch=1 n=c#4 v=0
172352 On ch=1 n=g#5 v=50
172357 Off ch=1 n=a5 v=0
172362 On ch=1 n=c#4 v=72
172368 Off ch=1 n=b3 v=0
172383 On ch=1 n=a5 v=51
172390 Off ch=1 n=g#5 v=0
172402 Off ch=1 n=c#4 v=0
172403 On ch=1 n=b3 v=58
172404 On ch=1 n=g#5 v=42
172409 Off ch=1 n=a5 v=0
172432 On ch=1 n=c#4 v=54
172437 On ch=1 n=a5 v=39
172438 Off ch=1 n=b3 v=0
172442 Off ch=1 n=g#5 v=0
172457 On ch=1 n=g#5 v=43
172460 Off ch=1 n=a5 v=0
172470 On ch=1 n=b3 v=60
172471 Off ch=1 n=c#4 v=0
172479 Par ch=1 c=10 v=64
172494 Off ch=1 n=g#5 v=0
172500 On ch=1 n=c#4 v=70
172505 Off ch=1 n=b3 v=0
172511 On ch=1 n=g#5 v=44
172541 On ch=1 n=a5 v=52
172542 Off ch=1 n=c#4 v=0
172542 On ch=1 n=b3 v=64
172544 Off ch=1 n=g#5 v=0
172566 On ch=1 n=g#5 v=47
172567 Off ch=1 n=a5 v=0
172570 On ch=1 n=c#4 v=70
172576 Off ch=1 n=b3 v=0
172586 On ch=1 n=a5 v=52
172593 Off ch=1 n=g#5 v=0
172605 On ch=1 n=b3 v=64
172607 Off ch=1 n=c#4 v=0
172611 Off ch=1 n=a5 v=0
172611 On ch=1 n=g#5 v=56
172634 On ch=1 n=c#4 v=62
172641 Off ch=1 n=b3 v=0
172650 Off ch=1 n=g#5 v=0
172659 On ch=1 n=g#5 v=39
172669 On ch=1 n=b3 v=62
172672 Off ch=1 n=c#4 v=0
172682 On ch=1 n=a5 v=53
172693 Off ch=1 n=g#5 v=0
172703 On ch=1 n=c#4 v=64
172705 Off ch=1 n=b3 v=0
172706 On ch=1 n=g#5 v=44
172710 Off ch=1 n=a5 v=0
172732 On ch=1 n=a5 v=62
172742 On ch=1 n=b3 v=56
172743 Off ch=1 n=g#5 v=0
172745 Off ch=1 n=c#4 v=0
172761 On ch=1 n=g#5 v=56
172766 Off ch=1 n=a5 v=0
172774 On ch=1 n=c#4 v=56
172776 Off ch=1 n=b3 v=0
172791 On ch=1 n=a5 v=58
172800 Off ch=1 n=g#5 v=0
172810 On ch=1 n=b3 v=56
172813 Off ch=1 n=c#4 v=0
172815 On ch=1 n=g#5 v=60
172820 Off ch=1 n=a5 v=0
172842 On ch=1 n=c#4 v=60
172843 Off ch=1 n=b3 v=0
172848 On ch=1 n=a5 v=56
172853 Off ch=1 n=g#5 v=0
172875 On ch=1 n=g#5 v=51
172881 Off ch=1 n=a5 v=0
172881 On ch=1 n=b3 v=56
172884 Off ch=1 n=c#4 v=0
172902 On ch=1 n=a5 v=54
172908 Off ch=1 n=g#5 v=0
172911 On ch=1 n=c#4 v=64
172917 Off ch=1 n=b3 v=0
172928 On ch=1 n=g#5 v=60
172937 Off ch=1 n=a5 v=0
172947 On ch=1 n=b3 v=62
172952 Off ch=1 n=c#4 v=0
172953 On ch=1 n=a5 v=31
172961 Off ch=1 n=g#5 v=0
172971 Off ch=1 n=a5 v=0
172972 On ch=1 n=g#5 v=37
172974 On ch=1 n=c#4 v=68
172982 Off ch=1 n=b3 v=0
173002 On ch=1 n=a5 v=58
173010 Off ch=1 n=g#5 v=0
173014 On ch=1 n=b3 v=58
173019 Off ch=1 n=c#4 v=0
173027 On ch=1 n=g#5 v=53
173035 Off ch=1 n=a5 v=0
173044 On ch=1 n=c#4 v=74
173048 Off ch=1 n=b3 v=0
173057 On ch=1 n=a5 v=62
173068 Off ch=1 n=g#5 v=0
173082 On ch=1 n=b3 v=74
173086 Off ch=1 n=c#4 v=0
173086 On ch=1 n=g#5 v=49
173091 Off ch=1 n=a5 v=0
173115 On ch=1 n=a5 v=62
173115 On ch=1 n=c#4 v=70
173119 Off ch=1 n=b3 v=0
173121 Off ch=1 n=g#5 v=0
173140 On ch=1 n=g#5 v=51
173144 Off ch=1 n=a5 v=0
173149 On ch=1 n=b3 v=70
173153 Off ch=1 n=c#4 v=0
173167 On ch=1 n=a5 v=53
173176 Off ch=1 n=g#5 v=0
173184 On ch=1 n=c#4 v=76
173187 Off ch=1 n=b3 v=0
173190 On ch=1 n=g#5 v=52
173195 Off ch=1 n=a5 v=0
173220 On ch=1 n=b3 v=70
173221 On ch=1 n=a5 v=56
173226 Off ch=1 n=c#4 v=0
173227 Off ch=1 n=g#5 v=0
173243 On ch=1 n=g#5 v=49
173248 On ch=1 n=c#4 v=76
173249 Off ch=1 n=a5 v=0
173254 Off ch=1 n=b3 v=0
173274 On ch=1 n=a5 v=58
173280 Off ch=1 n=g#5 v=0
173288 On ch=1 n=b3 v=74
173291 Off ch=1 n=c#4 v=0
173298 On ch=1 n=g#5 v=49
173303 Off ch=1 n=a5 v=0
173318 On ch=1 n=c#4 v=72
173325 Off ch=1 n=b3 v=0
173329 On ch=1 n=a5 v=51
173336 Off ch=1 n=g#5 v=0
173352 On ch=1 n=g#5 v=42
173353 Off ch=1 n=a5 v=0
173357 On ch=1 n=b3 v=68
173361 Off ch=1 n=c#4 v=0
173382 On ch=1 n=a5 v=48
173387 Off ch=1 n=g#5 v=0
173389 On ch=1 n=c#4 v=51
173394 Off ch=1 n=b3 v=0
173404 On ch=1 n=g#5 v=44
173406 Off ch=1 n=a5 v=0
173425 On ch=1 n=b3 v=64
173428 Off ch=1 n=c#4 v=0
173436 On ch=1 n=a5 v=47
173437 Off ch=1 n=g#5 v=0
173455 On ch=1 n=c#4 v=62
173460 Off ch=1 n=b3 v=0
173460 On ch=1 n=g#5 v=58
173465 Off ch=1 n=a5 v=0
173493 On ch=1 n=a5 v=45
173496 Off ch=1 n=g#5 v=0
173499 Off ch=1 n=c#4 v=0
173499 On ch=1 n=b3 v=72
173520 On ch=1 n=g#5 v=58
173523 Off ch=1 n=a5 v=0
173532 Off ch=1 n=b3 v=0
173532 On ch=1 n=c#4 v=66
173556 Off ch=1 n=g#5 v=0
173557 On ch=1 n=a5 v=56
173569 On ch=1 n=b3 v=74
173570 Off ch=1 n=c#4 v=0
173581 On ch=1 n=g#5 v=48
173586 Off ch=1 n=a5 v=0
173598 On ch=1 n=c#4 v=76
173605 Off ch=1 n=b3 v=0
173612 On ch=1 n=a5 v=66
173615 Off ch=1 n=g#5 v=0
173616 Par ch=1 c=10 v=64
173638 On ch=1 n=b3 v=72
173640 On ch=1 n=g#5 v=48
173645 Off ch=1 n=a5 v=0
173645 Off ch=1 n=c#4 v=0
173670 On ch=1 n=a5 v=58
173670 On ch=1 n=c#4 v=52
173674 Off ch=1 n=g#5 v=0
173674 Off ch=1 n=b3 v=0
173699 On ch=1 n=g#5 v=37
173701 Off ch=1 n=a5 v=0
173707 On ch=1 n=b3 v=58
173713 Off ch=1 n=c#4 v=0
173722 On ch=1 n=a5 v=54
173730 Off ch=1 n=g#5 v=0
173740 On ch=1 n=c#4 v=72
173742 Off ch=1 n=b3 v=0
173747 On ch=1 n=g#5 v=47
173751 Off ch=1 n=a5 v=0
173775 On ch=1 n=a5 v=58
173779 On ch=1 n=b3 v=68
173783 Off ch=1 n=g#5 v=0
173787 Off ch=1 n=c#4 v=0
173801 On ch=1 n=g#5 v=47
173807 Off ch=1 n=a5 v=0
173815 On ch=1 n=c#4 v=56
173818 Off ch=1 n=b3 v=0
173828 On ch=1 n=a5 v=51
173834 Off ch=1 n=g#5 v=0
173849 On ch=1 n=b3 v=68
173853 On ch=1 n=g#5 v=45
173858 Off ch=1 n=c#4 v=0
173860 Off ch=1 n=a5 v=0
173887 On ch=1 n=c#4 v=56
173887 On ch=1 n=a5 v=50
173889 Off ch=1 n=b3 v=0
173894 Off ch=1 n=g#5 v=0
173911 On ch=1 n=g#5 v=43
173916 Off ch=1 n=a5 v=0
173923 On ch=1 n=b3 v=82
173929 Off ch=1 n=c#4 v=0
173945 On ch=1 n=a5 v=39
173948 Off ch=1 n=g#5 v=0
173963 On ch=1 n=c#4 v=64
173963 On ch=1 n=g#5 v=44
173965 Off ch=1 n=a5 v=0
173965 Off ch=1 n=b3 v=0
173994 On ch=1 n=a5 v=54
173995 On ch=1 n=b3 v=74
174001 Off ch=1 n=g#5 v=0
174005 Off ch=1 n=c#4 v=0
174016 On ch=1 n=g#5 v=52
174024 Off ch=1 n=a5 v=0
174031 On ch=1 n=c#4 v=70
174037 Off ch=1 n=b3 v=0
174047 On ch=1 n=a5 v=47
174051 Off ch=1 n=g#5 v=0
174070 On ch=1 n=b3 v=78
174075 On ch=1 n=g#5 v=33
174078 Off ch=1 n=a5 v=0
174079 Off ch=1 n=c#4 v=0
174103 On ch=1 n=a5 v=39
174106 On ch=1 n=c#4 v=47
174108 Off ch=1 n=g#5 v=0
174113 Off ch=1 n=b3 v=0
174130 On ch=1 n=g#5 v=49
174133 Off ch=1 n=a5 v=0
174143 On ch=1 n=b3 v=76
174149 Off ch=1 n=c#4 v=0
174173 On ch=1 n=a5 v=37
174178 On ch=1 n=c#4 v=60
174188 Off ch=1 n=b3 v=0
174190 Off ch=1 n=g#5 v=0
174226 On ch=1 n=g#5 v=77
174227 On ch=1 n=b3 v=82
174232 Off ch=1 n=a5 v=0
174246 Off ch=1 n=c#4 v=0
174357 On ch=1 n=f#5 v=57
174360 On ch=1 n=a3 v=70
174375 Off ch=1 n=b3 v=0
174381 Off ch=1 n=g#5 v=0
174560 On ch=1 n=b3 v=82
174562 On ch=1 n=g#5 v=88
174578 Off ch=1 n=a3 v=0
174586 Off ch=1 n=f#5 v=0
174768 On ch=1 n=b5 v=92
174771 On ch=1 n=d#4 v=84
174774 Off ch=1 n=g#5 v=0
174784 Off ch=1 n=b3 v=0
174990 On ch=1 n=a5 v=102
174991 On ch=1 n=c#4 v=92
175018 Off ch=1 n=b5 v=0
175022 Off ch=1 n=d#4 v=0
175250 On ch=1 n=b3 v=94
175272 Off ch=1 n=c#4 v=0
175294 On ch=1 n=g#5 v=98
175313 Off ch=1 n=a5 v=0
175563 Off ch=1 n=g#5 v=0
175600 On ch=1 n=g#5 v=104
175621 Off ch=1 n=b3 v=0
175623 On ch=1 n=e2 v=98
175793 Par ch=1 c=64 v=127
176007 Par ch=1 c=64 v=127
176019 On ch=1 n=e3 v=102
176326 On ch=1 n=b3 v=102
176356 Off ch=1 n=g#5 v=0
176378 Off ch=1 n=e2 v=0
176566 On ch=1 n=e4 v=92
176780 On ch=1 n=g#4 v=96
176970 On ch=1 n=b4 v=86
176984 Off ch=1 n=g#4 v=0
176985 On ch=1 n=a4 v=35
177015 Off ch=1 n=a4 v=0
177173 On ch=1 n=e5 v=96
177196 Off ch=1 n=b4 v=0
177369 On ch=1 n=f#5 v=104
177401 Off ch=1 n=e5 v=0
177546 On ch=1 n=g#5 v=92
177579 Off ch=1 n=f#5 v=0
177718 On ch=1 n=b5 v=92
177746 Off ch=1 n=g#5 v=0
177844 Off ch=1 n=e6 v=0
177844 Off ch=1 n=e5 v=0
177847 Off ch=1 n=e3 v=0
177892 On ch=1 n=e6 v=102
177908 Off ch=1 n=b5 v=0
178070 On ch=1 n=f#6 v=104
178104 Off ch=1 n=e6 v=0
178243 On ch=1 n=g#6 v=98
178283 Off ch=1 n=f#6 v=0
178437 On ch=1 n=b6 v=94
178443 Off ch=1 n=g#6 v=0
178653 On ch=1 n=e7 v=106
178669 Off ch=1 n=b6 v=0
178950 On ch=1 n=f#7 v=108
178986 On ch=1 n=g7 v=49
178992 Off ch=1 n=e7 v=0
179299 Off ch=1 n=g7 v=0
179304 On ch=1 n=g#7 v=108
179321 Off ch=1 n=f#7 v=0
180279 Off ch=1 n=e3 v=0
180280 Off ch=1 n=e4 v=0
180286 Off ch=1 n=b3 v=0
180294 Off ch=1 n=g#7 v=0
180587 Par ch=1 c=64 v=0
181671 Meta TrkEnd
TrkEnd
MTrk
0 Meta TrkName "Op 25 No 5"
0 Par ch=1 c=10 v=10
4 SysEx f0 7e 00 00 7f f7
16 Par ch=1 c=0 v=0
20 Par ch=1 c=32 v=0
36 Par ch=1 c=91 v=127
40 Par ch=1 c=93 v=0
44 Par ch=1 c=101 v=0
48 Par ch=1 c=100 v=0
52 Par ch=1 c=6 v=2
1152 Meta TrkEnd
TrkEnd
MTrk
0 Meta TrkName "Chopin"
0 Par ch=1 c=10 v=10
4 SysEx f0 7e 00 00 7f f7
16 Par ch=1 c=0 v=0
20 Par ch=1 c=32 v=0
36 Par ch=1 c=91 v=127
40 Par ch=1 c=93 v=0
44 Par ch=1 c=101 v=0
48 Par ch=1 c=100 v=0
52 Par ch=1 c=6 v=2
1152 Meta TrkEnd
TrkEnd
MTrk
0 Meta TrkName "Walsingham"
1536 Meta TrkEnd
TrkEnd
