MFile 1 19 120
MTrk
0 TimeSig 4/4 24 8
0 KeySig 0 major
0 Tempo 714286
950 Tempo 750000
960 Tempo 731707
2083 Tempo 705882
3954 Tempo 779221
3960 Tempo 722892
4080 Tempo 779221
4440 Tempo 722892
4924 Tempo 769231
4945 Tempo 750000
4954 Tempo 750000
5040 Tempo 750000
5152 Tempo 769231
5400 Tempo 722892
5892 Tempo 697674
6692 Tempo 697674
8008 Tempo 674157
9720 Tempo 674157
9978 Tempo 722892
10016 Tempo 689655
10080 Tempo 681818
10092 Tempo 698914
10102 Tempo 800000
10120 Tempo 731707
10125 Tempo 722892
10200 Tempo 681818
10404 Tempo 705882
10524 Tempo 681818
10526 Tempo 674157
10536 Tempo 638298
11392 Tempo 705882
11400 Tempo 638298
11401 Tempo 638298
11439 Tempo 638298
11520 Tempo 638298
12480 Tempo 600000
12636 Tempo 530973
12720 Tempo 508475
13185 Tempo 638298
13204 Tempo 674157
13285 Tempo 600000
13290 Tempo 638298
13292 Tempo 674157
13979 Tempo 659341
14114 Tempo 674157
15759 Tempo 714286
15786 Tempo 714286
15874 Tempo 689655
15999 Tempo 674157
16594 Tempo 600000
16696 Tempo 550459
16701 Tempo 600000
16725 Tempo 576923
16744 Tempo 600000
16860 Tempo 600000
17231 Tempo 582524
17519 Tempo 560748
19436 Tempo 530973
20280 Tempo 465116
20299 Tempo 428571
20299 Meta TrkEnd
TrkEnd
MTrk
0 Meta 0x21 00
0 PrCh ch=1 p=0
16 On ch=1 n=e5 v=127
18 On ch=1 n=e5 v=0
43 On ch=1 n=e5 v=127
49 On ch=1 n=e5 v=0
70 On ch=1 n=e5 v=127
74 On ch=1 n=e5 v=0
93 Par ch=1 c=1 v=2
101 On ch=1 n=e5 v=127
180 On ch=1 n=e5 v=0
191 On ch=1 n=f5 v=127
191 On ch=1 n=e5 v=121
194 On ch=1 n=e5 v=0
197 On ch=1 n=f5 v=0
216 On ch=1 n=e5 v=127
219 On ch=1 n=f5 v=127
222 On ch=1 n=f5 v=0
222 On ch=1 n=e5 v=0
246 On ch=1 n=f5 v=127
246 On ch=1 n=e5 v=127
250 On ch=1 n=f5 v=0
252 On ch=1 n=e5 v=0
277 On ch=1 n=e5 v=127
277 On ch=1 n=f5 v=127
351 On ch=1 n=f5 v=0
351 On ch=1 n=e5 v=0
370 On ch=1 n=a#5 v=127
373 On ch=1 n=d5 v=97
378 On ch=1 n=d5 v=0
378 On ch=1 n=a#5 v=0
384 On ch=1 n=e5 v=113
384 On ch=1 n=f5 v=125
389 On ch=1 n=f5 v=0
389 On ch=1 n=e5 v=0
395 On ch=1 n=d5 v=127
395 On ch=1 n=a#5 v=127
403 On ch=1 n=a#5 v=0
404 On ch=1 n=d5 v=0
408 On ch=1 n=e5 v=127
408 On ch=1 n=f5 v=127
414 On ch=1 n=f5 v=0
414 On ch=1 n=e5 v=0
419 On ch=1 n=d5 v=127
419 On ch=1 n=a#5 v=127
428 On ch=1 n=a#5 v=0
428 On ch=1 n=d5 v=0
433 On ch=1 n=e5 v=127
433 On ch=1 n=f5 v=127
441 On ch=1 n=f5 v=0
441 On ch=1 n=e5 v=0
448 On ch=1 n=a#5 v=127
448 On ch=1 n=d5 v=127
518 On ch=1 n=a#5 v=0
521 On ch=1 n=d5 v=0
536 On ch=1 n=d5 v=127
537 On ch=1 n=b5 v=117
540 On ch=1 n=b5 v=0
540 On ch=1 n=d5 v=0
549 On ch=1 n=g#5 v=121
560 On ch=1 n=g#5 v=0
560 On ch=1 n=b5 v=127
560 On ch=1 n=d5 v=127
565 On ch=1 n=d5 v=0
568 On ch=1 n=b5 v=0
573 On ch=1 n=g#5 v=125
576 On ch=1 n=f5 v=105
576 On ch=1 n=e5 v=93
582 On ch=1 n=e5 v=0
582 On ch=1 n=f5 v=0
582 On ch=1 n=g#5 v=0
584 On ch=1 n=d5 v=127
584 On ch=1 n=b5 v=127
592 On ch=1 n=b5 v=0
592 On ch=1 n=d5 v=0
595 On ch=1 n=g#5 v=127
598 On ch=1 n=e5 v=105
598 On ch=1 n=f5 v=127
604 On ch=1 n=e5 v=0
606 On ch=1 n=f5 v=0
606 On ch=1 n=g#5 v=0
609 On ch=1 n=b5 v=127
612 On ch=1 n=d5 v=127
617 On ch=1 n=d5 v=0
620 On ch=1 n=b5 v=0
623 On ch=1 n=g#5 v=127
623 On ch=1 n=f5 v=127
623 On ch=1 n=e5 v=121
631 On ch=1 n=e5 v=0
634 On ch=1 n=f5 v=0
634 On ch=1 n=g#5 v=0
636 On ch=1 n=d5 v=127
636 On ch=1 n=b5 v=127
642 On ch=1 n=d5 v=0
645 On ch=1 n=b5 v=0
648 On ch=1 n=f5 v=127
648 On ch=1 n=g#5 v=127
650 On ch=1 n=e5 v=127
659 On ch=1 n=e5 v=0
659 On ch=1 n=g#5 v=0
659 On ch=1 n=f5 v=0
661 On ch=1 n=b5 v=127
661 On ch=1 n=d5 v=127
667 On ch=1 n=d5 v=0
669 On ch=1 n=b5 v=0
672 On ch=1 n=g#5 v=127
675 On ch=1 n=f5 v=127
675 On ch=1 n=e5 v=127
683 On ch=1 n=f5 v=0
683 On ch=1 n=g#5 v=0
686 On ch=1 n=e5 v=0
689 On ch=1 n=b5 v=127
691 On ch=1 n=d#5 v=127
694 On ch=1 n=d5 v=127
699 On ch=1 n=d5 v=0
699 On ch=1 n=d#5 v=0
703 On ch=1 n=b5 v=0
703 On ch=1 n=g#5 v=127
703 On ch=1 n=e5 v=127
705 On ch=1 n=f#5 v=127
713 On ch=1 n=f#5 v=0
713 On ch=1 n=e5 v=0
713 On ch=1 n=g#5 v=0
713 On ch=1 n=d#5 v=127
716 On ch=1 n=b5 v=127
725 On ch=1 n=d#5 v=0
727 On ch=1 n=b5 v=0
727 On ch=1 n=g#5 v=127
727 On ch=1 n=e5 v=127
730 On ch=1 n=f#5 v=127
741 On ch=1 n=f#5 v=0
741 On ch=1 n=g#5 v=0
741 On ch=1 n=b5 v=127
741 On ch=1 n=d#5 v=127
743 On ch=1 n=e5 v=0
760 On ch=1 n=d#5 v=0
765 On ch=1 n=b5 v=0
771 On ch=1 n=e7 v=127
771 On ch=1 n=g#6 v=127
771 On ch=1 n=e3 v=127
771 On ch=1 n=b6 v=127
771 On ch=1 n=e4 v=127
771 On ch=1 n=g#3 v=127
771 On ch=1 n=e6 v=127
837 On ch=1 n=e6 v=0
837 On ch=1 n=e7 v=0
840 On ch=1 n=e3 v=0
840 On ch=1 n=b6 v=0
840 On ch=1 n=g#6 v=0
840 On ch=1 n=g#3 v=0
840 On ch=1 n=e4 v=0
968 On ch=1 n=e5 v=127
968 On ch=1 n=e4 v=127
979 On ch=1 n=e4 v=0
979 On ch=1 n=e5 v=0
982 On ch=1 n=e6 v=127
982 On ch=1 n=e5 v=125
996 On ch=1 n=e5 v=0
996 On ch=1 n=d#4 v=127
998 On ch=1 n=e6 v=0
998 On ch=1 n=e5 v=127
1004 On ch=1 n=e5 v=0
1004 On ch=1 n=d#4 v=0
1012 On ch=1 n=f#5 v=127
1012 On ch=1 n=f#6 v=127
1020 On ch=1 n=f#5 v=0
1026 On ch=1 n=f#6 v=0
1026 On ch=1 n=e5 v=127
1026 On ch=1 n=d4 v=127
1034 On ch=1 n=d4 v=0
1034 On ch=1 n=e5 v=0
1042 On ch=1 n=g#5 v=127
1042 On ch=1 n=g#6 v=127
1045 On ch=1 n=g#5 v=0
1051 On ch=1 n=g#6 v=0
1053 On ch=1 n=c4 v=127
1053 On ch=1 n=e5 v=127
1064 On ch=1 n=c4 v=0
1067 On ch=1 n=e5 v=0
1067 On ch=1 n=a5 v=127
1070 On ch=1 n=a6 v=127
1078 On ch=1 n=a5 v=0
1082 On ch=1 n=a6 v=0
1084 On ch=1 n=b3 v=127
1092 On ch=1 n=b3 v=0
1100 On ch=1 n=b5 v=127
1100 On ch=1 n=b6 v=127
1104 On ch=1 n=b5 v=0
1105 On ch=1 n=b6 v=0
1111 On ch=1 n=a3 v=127
1119 On ch=1 n=a3 v=0
1127 On ch=1 n=c6 v=127
1127 On ch=1 n=c7 v=127
1136 On ch=1 n=c7 v=0
1136 On ch=1 n=c6 v=0
1138 On ch=1 n=c4 v=127
1138 On ch=1 n=e4 v=127
1147 On ch=1 n=e4 v=0
1148 On ch=1 n=c4 v=0
1155 On ch=1 n=a6 v=127
1155 On ch=1 n=a5 v=127
1163 On ch=1 n=a5 v=0
1166 On ch=1 n=a6 v=0
1169 On ch=1 n=b3 v=127
1169 On ch=1 n=e4 v=127
1177 On ch=1 n=e4 v=0
1177 On ch=1 n=b3 v=0
1182 On ch=1 n=b5 v=127
1185 On ch=1 n=b6 v=127
1192 On ch=1 n=b5 v=0
1193 On ch=1 n=b6 v=0
1196 On ch=1 n=e4 v=127
1196 On ch=1 n=a3 v=127
1204 On ch=1 n=a3 v=0
1207 On ch=1 n=e4 v=0
1210 On ch=1 n=c6 v=127
1210 On ch=1 n=c7 v=127
1218 On ch=1 n=c7 v=0
1218 On ch=1 n=c6 v=0
1224 On ch=1 n=g#3 v=127
1224 On ch=1 n=e4 v=127
1235 On ch=1 n=e4 v=0
1236 On ch=1 n=g#3 v=0
1237 On ch=1 n=b5 v=127
1240 On ch=1 n=b6 v=127
1248 On ch=1 n=b5 v=0
1251 On ch=1 n=b6 v=0
1254 On ch=1 n=f3 v=127
1262 On ch=1 n=f3 v=0
1267 On ch=1 n=a5 v=127
1270 On ch=1 n=a6 v=127
1276 On ch=1 n=a6 v=0
1276 On ch=1 n=a5 v=0
1281 On ch=1 n=e3 v=125
1292 On ch=1 n=e3 v=0
1298 On ch=1 n=g#6 v=127
1298 On ch=1 n=g#5 v=127
1303 On ch=1 n=g#5 v=0
1303 On ch=1 n=g#6 v=0
1314 On ch=1 n=e4 v=127
1314 On ch=1 n=f#3 v=127
1323 On ch=1 n=f#3 v=0
1325 On ch=1 n=e4 v=0
1328 On ch=1 n=f5 v=127
1328 On ch=1 n=f6 v=127
1333 On ch=1 n=f5 v=0
1336 On ch=1 n=f6 v=0
1344 On ch=1 n=e4 v=127
1344 On ch=1 n=g3 v=127
1353 On ch=1 n=g3 v=0
1355 On ch=1 n=e4 v=0
1358 On ch=1 n=e6 v=127
1358 On ch=1 n=e5 v=127
1367 On ch=1 n=e5 v=0
1367 On ch=1 n=e6 v=0
1372 On ch=1 n=g#3 v=127
1372 On ch=1 n=e4 v=127
1380 On ch=1 n=e4 v=0
1380 On ch=1 n=g#3 v=0
1386 On ch=1 n=d6 v=127
1386 On ch=1 n=d5 v=127
1394 On ch=1 n=d5 v=0
1394 On ch=1 n=d6 v=0
1399 On ch=1 n=a3 v=127
1399 On ch=1 n=e4 v=127
1411 On ch=1 n=e4 v=0
1413 On ch=1 n=a3 v=0
1416 On ch=1 n=c6 v=127
1416 On ch=1 n=c5 v=127
1427 On ch=1 n=c5 v=0
1427 On ch=1 n=c6 v=0
1430 On ch=1 n=b3 v=127
1438 On ch=1 n=b3 v=0
1446 On ch=1 n=b4 v=127
1446 On ch=1 n=b5 v=127
1454 On ch=1 n=b5 v=0
1454 On ch=1 n=b4 v=0
1457 On ch=1 n=c4 v=127
1471 On ch=1 n=c4 v=0
1473 On ch=1 n=a4 v=127
1473 On ch=1 n=a5 v=127
1479 On ch=1 n=a4 v=0
1482 On ch=1 n=a5 v=0
1482 On ch=1 n=e3 v=127
1482 On ch=1 n=e4 v=127
1485 On ch=1 n=a3 v=127
1490 On ch=1 n=a3 v=0
1493 On ch=1 n=e4 v=0
1493 On ch=1 n=e3 v=0
1501 On ch=1 n=c5 v=127
1501 On ch=1 n=c6 v=127
1509 On ch=1 n=c5 v=0
1509 On ch=1 n=g#3 v=127
1512 On ch=1 n=c6 v=0
1512 On ch=1 n=e4 v=127
1512 On ch=1 n=e3 v=127
1517 On ch=1 n=e3 v=0
1517 On ch=1 n=e4 v=0
1518 On ch=1 n=g#3 v=0
1528 On ch=1 n=b4 v=127
1528 On ch=1 n=b5 v=127
1534 On ch=1 n=b4 v=0
1537 On ch=1 n=b5 v=0
1539 On ch=1 n=e4 v=127
1539 On ch=1 n=g3 v=127
1539 On ch=1 n=e3 v=127
1548 On ch=1 n=e3 v=0
1548 On ch=1 n=g3 v=0
1548 On ch=1 n=e4 v=0
1553 On ch=1 n=a5 v=127
1553 On ch=1 n=a4 v=127
1561 On ch=1 n=a4 v=0
1561 On ch=1 n=a5 v=0
1570 On ch=1 n=e4 v=127
1570 On ch=1 n=e3 v=127
1592 On ch=1 n=g#4 v=127
1592 On ch=1 n=g#5 v=127
1622 On ch=1 n=e4 v=0
1625 On ch=1 n=e3 v=0
1636 On ch=1 n=d5 v=127
1636 On ch=1 n=e5 v=117
1646 On ch=1 n=g#4 v=0
1652 On ch=1 n=g#5 v=0
1652 On ch=1 n=d5 v=0
1652 On ch=1 n=e5 v=0
1652 On ch=1 n=b4 v=127
1652 On ch=1 n=f5 v=127
1660 On ch=1 n=b4 v=0
1663 On ch=1 n=f5 v=0
1663 On ch=1 n=c#5 v=127
1666 On ch=1 n=e5 v=127
1674 On ch=1 n=c#5 v=0
1677 On ch=1 n=e5 v=0
1677 On ch=1 n=a#4 v=127
1679 On ch=1 n=f5 v=127
1688 On ch=1 n=f5 v=0
1688 On ch=1 n=a#4 v=0
1693 On ch=1 n=e5 v=127
1694 On ch=1 n=c5 v=127
1701 On ch=1 n=c5 v=0
1704 On ch=1 n=e5 v=0
1707 On ch=1 n=a4 v=127
1709 On ch=1 n=f5 v=127
1718 On ch=1 n=f5 v=0
1718 On ch=1 n=a4 v=0
1723 On ch=1 n=b4 v=127
1723 On ch=1 n=e5 v=127
1742 On ch=1 n=b4 v=0
1745 On ch=1 n=e5 v=0
1745 On ch=1 n=f5 v=127
1745 On ch=1 n=g#4 v=127
1749 Par ch=1 c=1 v=9
1759 On ch=1 n=f5 v=0
1760 On ch=1 n=g#4 v=0
1764 On ch=1 n=b4 v=127
1764 On ch=1 n=e5 v=127
1775 On ch=1 n=b4 v=0
1778 On ch=1 n=e5 v=0
1782 On ch=1 n=g#4 v=127
1782 On ch=1 n=f5 v=127
1792 On ch=1 n=g#4 v=0
1795 On ch=1 n=f5 v=0
1797 On ch=1 n=e5 v=127
1797 On ch=1 n=a#4 v=127
1808 On ch=1 n=a#4 v=0
1808 On ch=1 n=e5 v=0
1814 On ch=1 n=g4 v=127
1814 On ch=1 n=f5 v=127
1822 On ch=1 n=f5 v=0
1822 On ch=1 n=g4 v=0
1826 On ch=1 n=e5 v=127
1830 On ch=1 n=a4 v=127
1839 On ch=1 n=a4 v=0
1841 On ch=1 n=e5 v=0
1844 On ch=1 n=f#4 v=127
1844 On ch=1 n=f5 v=117
1855 On ch=1 n=f5 v=0
1855 On ch=1 n=f#4 v=0
1858 On ch=1 n=e5 v=127
1858 On ch=1 n=a4 v=127
1872 On ch=1 n=a4 v=0
1872 On ch=1 n=f5 v=127
1872 On ch=1 n=f4 v=127
1877 On ch=1 n=e5 v=0
1885 On ch=1 n=f4 v=0
1885 On ch=1 n=f5 v=0
1892 On ch=1 n=g#4 v=127
1894 On ch=1 n=e5 v=127
1915 On ch=1 n=e4 v=127
1915 On ch=1 n=f5 v=127
1918 On ch=1 n=g#4 v=0
1927 On ch=1 n=e5 v=0
1937 On ch=1 n=e5 v=127
1937 On ch=1 n=a4 v=127
1940 On ch=1 n=e4 v=0
1943 On ch=1 n=f5 v=0
1959 On ch=1 n=a4 v=0
1962 On ch=1 n=e5 v=0
1965 On ch=1 n=f5 v=127
1965 On ch=1 n=f4 v=127
1990 On ch=1 n=f4 v=0
1992 On ch=1 n=g#4 v=127
1995 On ch=1 n=f5 v=0
1995 On ch=1 n=e5 v=127
2028 On ch=1 n=f5 v=127
2031 On ch=1 n=g#4 v=0
2031 On ch=1 n=e4 v=127
2039 On ch=1 n=e5 v=0
2075 On ch=1 n=c5 v=127
2080 On ch=1 n=e5 v=127
2094 On ch=1 n=e4 v=0
2097 On ch=1 n=f5 v=0
2102 On ch=1 n=a5 v=127
2113 On ch=1 n=e5 v=0
2116 On ch=1 n=g#5 v=127
2119 On ch=1 n=c5 v=0
2121 On ch=1 n=a5 v=0
2127 On ch=1 n=g#5 v=0
2130 On ch=1 n=e5 v=127
2133 On ch=1 n=e4 v=127
2133 On ch=1 n=a3 v=121
2135 On ch=1 n=c5 v=127
2135 On ch=1 n=a5 v=127
2149 On ch=1 n=c6 v=127
2160 On ch=1 n=c5 v=0
2160 On ch=1 n=e5 v=0
2163 On ch=1 n=a5 v=0
2163 On ch=1 n=e4 v=0
2163 On ch=1 n=a3 v=0
2163 On ch=1 n=b5 v=127
2171 On ch=1 n=b5 v=0
2171 On ch=1 n=c6 v=0
2171 On ch=1 n=e4 v=127
2174 On ch=1 n=a5 v=127
2174 On ch=1 n=c5 v=127
2177 On ch=1 n=a3 v=117
2177 On ch=1 n=c6 v=127
2193 On ch=1 n=e6 v=127
2199 On ch=1 n=a5 v=0
2199 On ch=1 n=e4 v=0
2201 On ch=1 n=c6 v=0
2201 On ch=1 n=c5 v=0
2204 On ch=1 n=a3 v=0
2207 On ch=1 n=d#6 v=127
2212 On ch=1 n=e6 v=0
2215 On ch=1 n=d#6 v=0
2215 On ch=1 n=e4 v=127
2218 On ch=1 n=a3 v=127
2218 On ch=1 n=c6 v=117
2218 On ch=1 n=c5 v=127
2223 On ch=1 n=e6 v=127
2237 On ch=1 n=a6 v=127
2243 On ch=1 n=c5 v=0
2243 On ch=1 n=e4 v=0
2245 On ch=1 n=a3 v=0
2245 On ch=1 n=c6 v=0
2248 On ch=1 n=e6 v=0
2253 On ch=1 n=g#6 v=127
2259 On ch=1 n=g#6 v=0
2259 On ch=1 n=a6 v=0
2262 On ch=1 n=e4 v=127
2262 On ch=1 n=a3 v=101
2262 On ch=1 n=e6 v=127
2262 On ch=1 n=c5 v=127
2267 On ch=1 n=a6 v=127
2281 On ch=1 n=c7 v=127
2289 On ch=1 n=a6 v=0
2289 On ch=1 n=e6 v=0
2295 On ch=1 n=b6 v=127
2297 On ch=1 n=c5 v=0
2300 On ch=1 n=b6 v=0
2300 On ch=1 n=c7 v=0
2303 On ch=1 n=a3 v=0
2305 On ch=1 n=e4 v=0
2306 On ch=1 n=a6 v=127
2309 On ch=1 n=c7 v=127
2319 On ch=1 n=e7 v=127
2330 On ch=1 n=c7 v=0
2330 On ch=1 n=a6 v=0
2333 On ch=1 n=d#7 v=127
2338 On ch=1 n=d#7 v=0
2338 On ch=1 n=e7 v=0
2346 On ch=1 n=c7 v=127
2350 On ch=1 n=e7 v=127
2360 On ch=1 n=a7 v=127
2368 On ch=1 n=c7 v=0
2372 On ch=1 n=e7 v=0
2374 On ch=1 n=g#7 v=127
2379 On ch=1 n=a7 v=0
2382 On ch=1 n=g#7 v=0
2388 On ch=1 n=e7 v=127
2388 On ch=1 n=e4 v=127
2388 On ch=1 n=a3 v=125
2390 On ch=1 n=a7 v=127
2394 On ch=1 n=c5 v=127
2404 On ch=1 n=c8 v=127
2416 On ch=1 n=e4 v=0
2418 On ch=1 n=c5 v=0
2418 On ch=1 n=a7 v=0
2418 On ch=1 n=a3 v=0
2418 On ch=1 n=b7 v=127
2422 On ch=1 n=c8 v=0
2423 On ch=1 n=b7 v=0
2423 On ch=1 n=e7 v=0
2432 On ch=1 n=e4 v=127
2432 On ch=1 n=a3 v=125
2434 On ch=1 n=c8 v=127
2434 On ch=1 n=a7 v=127
2434 On ch=1 n=c5 v=127
2448 On ch=1 n=e8 v=127
2459 On ch=1 n=e4 v=0
2460 On ch=1 n=c5 v=0
2462 On ch=1 n=a3 v=0
2462 On ch=1 n=d#8 v=127
2465 On ch=1 n=c8 v=0
2467 On ch=1 n=e8 v=0
2467 On ch=1 n=a7 v=0
2470 On ch=1 n=d#8 v=0
2470 On ch=1 n=e4 v=127
2476 On ch=1 n=f8 v=127
2476 On ch=1 n=c8 v=127
2476 On ch=1 n=a3 v=117
2478 On ch=1 n=a7 v=127
2478 On ch=1 n=c5 v=127
2484 On ch=1 n=e4 v=0
2489 On ch=1 n=e8 v=127
2498 On ch=1 n=c8 v=0
2500 On ch=1 n=c5 v=0
2504 On ch=1 n=f8 v=0
2504 On ch=1 n=d#8 v=127
2506 On ch=1 n=a3 v=0
2506 On ch=1 n=a7 v=0
2506 On ch=1 n=e8 v=0
2514 On ch=1 n=d#8 v=0
2514 On ch=1 n=e4 v=127
2517 On ch=1 n=c8 v=127
2517 On ch=1 n=f8 v=127
2517 On ch=1 n=a3 v=125
2520 On ch=1 n=c5 v=127
2520 On ch=1 n=a7 v=127
2530 On ch=1 n=e8 v=125
2536 On ch=1 n=c8 v=0
2548 On ch=1 n=d#8 v=127
2550 On ch=1 n=f8 v=0
2550 On ch=1 n=e8 v=0
2552 On ch=1 n=a7 v=0
2555 On ch=1 n=d#8 v=0
2561 On ch=1 n=e4 v=0
2561 On ch=1 n=c8 v=127
2561 On ch=1 n=f8 v=127
2563 On ch=1 n=a3 v=0
2563 On ch=1 n=a7 v=127
2566 On ch=1 n=c5 v=0
2574 On ch=1 n=e8 v=127
2576 Par ch=1 c=1 v=2
2585 On ch=1 n=c8 v=0
2588 On ch=1 n=f8 v=0
2588 On ch=1 n=d#8 v=127
2592 On ch=1 n=a7 v=0
2592 On ch=1 n=e8 v=0
2596 On ch=1 n=d#8 v=0
2599 On ch=1 n=a#2 v=127
2605 On ch=1 n=f7 v=127
2605 On ch=1 n=f8 v=127
2605 On ch=1 n=a#7 v=127
2621 On ch=1 n=d8 v=127
2627 On ch=1 n=a#7 v=0
2627 On ch=1 n=f7 v=0
2632 On ch=1 n=c#8 v=127
2646 On ch=1 n=f5 v=127
2646 On ch=1 n=a#7 v=127
2646 On ch=1 n=a#4 v=127
2646 On ch=1 n=a4 v=127
2651 On ch=1 n=a#2 v=0
2651 On ch=1 n=f8 v=0
2658 On ch=1 n=a4 v=0
2658 On ch=1 n=f5 v=0
2658 On ch=1 n=a#4 v=0
2660 On ch=1 n=d8 v=0
2660 On ch=1 n=c#8 v=0
2662 On ch=1 n=a7 v=127
2665 On ch=1 n=a#7 v=0
2676 On ch=1 n=a7 v=0
2676 On ch=1 n=g#7 v=127
2687 On ch=1 n=f7 v=127
2690 On ch=1 n=a4 v=127
2693 On ch=1 n=f5 v=127
2693 On ch=1 n=a#4 v=127
2695 On ch=1 n=a#4 v=0
2698 On ch=1 n=a4 v=0
2698 On ch=1 n=f5 v=0
2701 Par ch=1 c=1 v=9
2702 On ch=1 n=f7 v=0
2702 On ch=1 n=g#7 v=0
2702 On ch=1 n=d7 v=127
2712 On ch=1 n=c#7 v=127
2714 On ch=1 n=d7 v=0
2718 Par ch=1 c=1 v=2
2725 On ch=1 n=a#6 v=127
2728 On ch=1 n=a4 v=127
2728 On ch=1 n=a#4 v=127
2731 On ch=1 n=f5 v=127
2734 On ch=1 n=a#4 v=0
2734 On ch=1 n=a4 v=0
2736 On ch=1 n=f5 v=0
2736 On ch=1 n=c#7 v=0
2742 On ch=1 n=a#6 v=0
2742 On ch=1 n=a6 v=127
2753 On ch=1 n=a6 v=0
2753 On ch=1 n=g#6 v=127
2764 On ch=1 n=d6 v=127
2764 On ch=1 n=f6 v=127
2767 On ch=1 n=e3 v=127
2777 On ch=1 n=b5 v=127
2786 On ch=1 n=g#5 v=127
2796 On ch=1 n=b5 v=0
2796 On ch=1 n=d6 v=0
2799 On ch=1 n=e3 v=0
2799 On ch=1 n=f6 v=0
2799 On ch=1 n=e4 v=127
2799 On ch=1 n=b4 v=127
2799 On ch=1 n=f5 v=125
2802 On ch=1 n=d5 v=127
2807 On ch=1 n=g#5 v=0
2810 On ch=1 n=f5 v=0
2813 On ch=1 n=e4 v=0
2813 On ch=1 n=e5 v=125
2815 On ch=1 n=d5 v=0
2815 On ch=1 n=b4 v=0
2824 On ch=1 n=g#5 v=127
2827 On ch=1 n=g#6 v=0
2827 On ch=1 n=e5 v=0
2835 On ch=1 n=e3 v=127
2835 On ch=1 n=a2 v=127
2835 On ch=1 n=c4 v=121
2837 On ch=1 n=g#5 v=0
2837 On ch=1 n=a5 v=127
2849 On ch=1 n=a6 v=127
2854 On ch=1 n=a6 v=0
2854 On ch=1 n=a5 v=0
2862 On ch=1 n=a6 v=127
2873 On ch=1 n=a2 v=0
2873 On ch=1 n=a5 v=127
2873 On ch=1 n=e5 v=125
2873 On ch=1 n=c5 v=125
2876 On ch=1 n=c4 v=0
2876 On ch=1 n=a6 v=0
2876 On ch=1 n=e3 v=0
2876 On ch=1 n=a7 v=127
2887 On ch=1 n=a6 v=127
2890 On ch=1 n=a7 v=0
2895 On ch=1 n=a6 v=0
2901 On ch=1 n=a6 v=121
2903 On ch=1 n=a5 v=0
2915 On ch=1 n=a5 v=127
2916 On ch=1 n=a6 v=0
2931 On ch=1 n=a4 v=125
2939 On ch=1 n=a5 v=0
2942 On ch=1 n=c5 v=0
2942 On ch=1 n=e5 v=0
2942 On ch=1 n=a4 v=0
2943 Par ch=1 c=1 v=9
2944 On ch=1 n=a5 v=127
2944 On ch=1 n=c5 v=127
2953 On ch=1 n=c5 v=0
2953 Par ch=1 c=1 v=2
2955 On ch=1 n=a5 v=0
2959 On ch=1 n=a4 v=127
2959 On ch=1 n=c5 v=127
2966 On ch=1 n=c5 v=0
2966 On ch=1 n=a4 v=0
2972 On ch=1 n=a5 v=127
2972 On ch=1 n=b4 v=127
2972 On ch=1 n=d5 v=127
2981 On ch=1 n=d5 v=0
2981 On ch=1 n=b4 v=0
2981 On ch=1 n=a5 v=0
2986 On ch=1 n=b4 v=127
2986 On ch=1 n=d5 v=127
2994 On ch=1 n=b4 v=0
2995 On ch=1 n=d5 v=0
2999 On ch=1 n=e5 v=127
2999 On ch=1 n=c5 v=127
2999 On ch=1 n=a5 v=127
3008 On ch=1 n=c5 v=0
3008 On ch=1 n=e5 v=0
3010 On ch=1 n=a5 v=0
3013 On ch=1 n=e5 v=127
3013 On ch=1 n=c5 v=127
3021 On ch=1 n=c5 v=0
3021 On ch=1 n=e5 v=0
3030 On ch=1 n=a5 v=127
3030 On ch=1 n=f5 v=127
3030 On ch=1 n=d5 v=127
3041 On ch=1 n=d5 v=0
3041 On ch=1 n=f5 v=0
3043 On ch=1 n=a5 v=0
3043 On ch=1 n=d5 v=127
3043 On ch=1 n=f5 v=127
3052 On ch=1 n=f5 v=0
3054 On ch=1 n=d5 v=0
3060 On ch=1 n=a5 v=127
3060 On ch=1 n=e5 v=127
3060 On ch=1 n=c5 v=127
3069 On ch=1 n=c5 v=0
3069 On ch=1 n=e5 v=0
3071 On ch=1 n=a5 v=0
3071 On ch=1 n=e5 v=127
3074 On ch=1 n=c5 v=127
3079 On ch=1 n=c5 v=0
3079 On ch=1 n=e5 v=0
3085 On ch=1 n=d#5 v=127
3085 On ch=1 n=a5 v=127
3087 On ch=1 n=b4 v=127
3096 On ch=1 n=b4 v=0
3096 On ch=1 n=d#5 v=0
3098 On ch=1 n=a5 v=0
3098 On ch=1 n=d#5 v=127
3101 On ch=1 n=b4 v=127
3107 On ch=1 n=d#5 v=0
3109 On ch=1 n=b4 v=0
3115 On ch=1 n=a5 v=127
3115 On ch=1 n=f5 v=127
3115 On ch=1 n=d5 v=127
3123 On ch=1 n=d5 v=0
3123 On ch=1 n=f5 v=0
3126 On ch=1 n=a5 v=0
3126 On ch=1 n=d5 v=127
3128 On ch=1 n=e5 v=127
3128 On ch=1 n=f5 v=127
3131 On ch=1 n=e5 v=0
3137 On ch=1 n=f5 v=0
3139 On ch=1 n=d5 v=0
3145 On ch=1 n=a5 v=127
3145 On ch=1 n=c5 v=127
3148 On ch=1 n=e5 v=127
3153 On ch=1 n=e5 v=0
3157 On ch=1 n=c5 v=0
3157 On ch=1 n=a5 v=0
3159 On ch=1 n=c5 v=127
3159 On ch=1 n=e5 v=127
3164 On ch=1 n=e5 v=0
3167 On ch=1 n=c5 v=0
3170 On ch=1 n=d#5 v=127
3172 On ch=1 n=b4 v=127
3172 On ch=1 n=a5 v=127
3181 On ch=1 n=a5 v=0
3181 On ch=1 n=b4 v=0
3181 On ch=1 n=d#5 v=0
3186 On ch=1 n=d#5 v=127
3186 On ch=1 n=b4 v=127
3194 On ch=1 n=b4 v=0
3194 On ch=1 n=d#5 v=0
3197 On ch=1 n=e4 v=127
3197 On ch=1 n=c5 v=127
3197 On ch=1 n=a3 v=127
3201 On ch=1 n=a5 v=127
3211 On ch=1 n=a6 v=127
3213 On ch=1 n=a5 v=0
3220 On ch=1 n=c5 v=0
3220 On ch=1 n=a6 v=0
3227 On ch=1 n=a6 v=117
3238 On ch=1 n=c5 v=127
3242 On ch=1 n=a3 v=0
3242 On ch=1 n=a7 v=127
3242 On ch=1 n=a5 v=127
3242 On ch=1 n=e5 v=127
3243 On ch=1 n=a6 v=0
3244 On ch=1 n=e4 v=0
3254 On ch=1 n=a7 v=0
3254 On ch=1 n=a6 v=127
3260 On ch=1 n=a6 v=0
3268 On ch=1 n=a6 v=109
3269 On ch=1 n=a5 v=0
3285 On ch=1 n=a6 v=0
3285 On ch=1 n=a5 v=127
3306 On ch=1 n=a4 v=127
3315 On ch=1 n=e5 v=0
3315 On ch=1 n=c5 v=0
3317 On ch=1 n=a5 v=0
3318 Par ch=1 c=1 v=9
3320 On ch=1 n=a4 v=0
3320 On ch=1 n=c5 v=127
3320 On ch=1 n=a5 v=127
3331 On ch=1 n=a5 v=0
3334 On ch=1 n=c5 v=0
3337 On ch=1 n=c5 v=127
3337 On ch=1 n=a4 v=127
3345 On ch=1 n=a4 v=0
3345 On ch=1 n=c5 v=0
3350 On ch=1 n=b4 v=127
3350 On ch=1 n=d5 v=127
3350 On ch=1 n=a5 v=127
3361 On ch=1 n=a5 v=0
3361 On ch=1 n=d5 v=0
3361 On ch=1 n=b4 v=0
3364 On ch=1 n=b4 v=127
3367 On ch=1 n=d5 v=127
3372 On ch=1 n=b4 v=0
3377 On ch=1 n=d5 v=0
3378 On ch=1 n=c5 v=127
3378 On ch=1 n=e5 v=127
3378 On ch=1 n=a5 v=127
3389 On ch=1 n=a5 v=0
3389 On ch=1 n=e5 v=0
3389 On ch=1 n=c5 v=0
3393 On ch=1 n=c5 v=127
3394 On ch=1 n=e5 v=127
3400 On ch=1 n=c5 v=0
3403 On ch=1 n=e5 v=0
3408 On ch=1 n=d5 v=127
3408 On ch=1 n=a5 v=127
3408 On ch=1 n=f5 v=127
3417 On ch=1 n=d5 v=0
3419 On ch=1 n=a5 v=0
3422 Par ch=1 c=1 v=2
3422 On ch=1 n=d5 v=127
3430 On ch=1 n=d5 v=0
3430 On ch=1 n=f5 v=0
3437 On ch=1 n=a5 v=127
3437 On ch=1 n=e5 v=127
3437 On ch=1 n=c5 v=127
3447 On ch=1 n=c5 v=0
3447 On ch=1 n=e5 v=0
3447 On ch=1 n=a5 v=0
3447 On ch=1 n=e5 v=117
3449 On ch=1 n=c5 v=127
3455 On ch=1 n=e5 v=0
3458 On ch=1 n=c5 v=0
3463 On ch=1 n=d#5 v=127
3466 On ch=1 n=a5 v=127
3466 On ch=1 n=b4 v=127
3471 On ch=1 n=b4 v=0
3474 On ch=1 n=d#5 v=0
3477 On ch=1 n=a5 v=0
3477 On ch=1 n=d#5 v=127
3477 On ch=1 n=b4 v=127
3485 On ch=1 n=b4 v=0
3485 On ch=1 n=d#5 v=0
3491 On ch=1 n=a5 v=127
3491 On ch=1 n=d5 v=127
3493 On ch=1 n=f5 v=127
3503 On ch=1 n=f5 v=0
3503 On ch=1 n=d5 v=0
3504 On ch=1 n=a5 v=0
3507 On ch=1 n=d5 v=127
3507 On ch=1 n=f5 v=127
3515 On ch=1 n=f5 v=0
3518 On ch=1 n=d5 v=0
3521 On ch=1 n=a5 v=127
3524 On ch=1 n=e5 v=125
3524 On ch=1 n=c5 v=127
3532 On ch=1 n=c5 v=0
3532 On ch=1 n=a5 v=0
3535 On ch=1 n=c5 v=113
3540 On ch=1 n=e5 v=0
3543 On ch=1 n=c5 v=0
3548 On ch=1 n=d#5 v=127
3551 On ch=1 n=a5 v=127
3551 On ch=1 n=b4 v=127
3559 On ch=1 n=b4 v=0
3559 On ch=1 n=d#5 v=0
3562 On ch=1 n=a5 v=0
3562 On ch=1 n=d#5 v=127
3565 On ch=1 n=b4 v=127
3573 On ch=1 n=d#5 v=0
3576 On ch=1 n=b4 v=0
3581 On ch=1 n=f4 v=127
3581 On ch=1 n=d5 v=127
3581 On ch=1 n=a#5 v=127
3581 On ch=1 n=a#3 v=127
3595 On ch=1 n=a#6 v=127
3600 On ch=1 n=a#5 v=0
3606 On ch=1 n=a#6 v=0
3609 On ch=1 n=d5 v=0
3609 On ch=1 n=a#6 v=127
3619 On ch=1 n=a#6 v=0
3619 On ch=1 n=a#7 v=127
3622 On ch=1 n=d5 v=127
3625 On ch=1 n=f5 v=127
3625 On ch=1 n=a#5 v=127
3628 On ch=1 n=f4 v=0
3628 On ch=1 n=a#3 v=0
3636 On ch=1 n=a#6 v=127
3641 On ch=1 n=a#6 v=0
3641 On ch=1 n=a#7 v=0
3650 On ch=1 n=a#6 v=127
3655 On ch=1 n=a#5 v=0
3666 On ch=1 n=a#6 v=0
3666 On ch=1 n=a#5 v=127
3683 On ch=1 n=d5 v=0
3685 On ch=1 n=f5 v=0
3686 Par ch=1 c=1 v=9
3688 On ch=1 n=a#5 v=0
3692 Par ch=1 c=1 v=2
3699 On ch=1 n=a#4 v=127
3713 On ch=1 n=a#4 v=0
3716 On ch=1 n=a#5 v=127
3716 On ch=1 n=d5 v=127
3717 On ch=1 n=a#5 v=0
3729 On ch=1 n=a#4 v=127
3740 On ch=1 n=d5 v=0
3743 On ch=1 n=a#4 v=0
3743 On ch=1 n=c5 v=127
3743 On ch=1 n=a#5 v=127
3743 On ch=1 n=d#5 v=127
3754 On ch=1 n=d#5 v=0
3754 On ch=1 n=c5 v=0
3757 On ch=1 n=a#5 v=0
3757 On ch=1 n=c5 v=93
3757 On ch=1 n=d#5 v=127
3768 On ch=1 n=d#5 v=0
3768 On ch=1 n=c5 v=0
3770 On ch=1 n=d5 v=127
3770 On ch=1 n=a#5 v=127
3773 On ch=1 n=f5 v=127
3779 On ch=1 n=d5 v=0
3781 On ch=1 n=f5 v=0
3781 On ch=1 n=a#5 v=0
3786 On ch=1 n=f5 v=127
3786 On ch=1 n=d5 v=121
3792 On ch=1 n=f5 v=0
3795 On ch=1 n=d5 v=0
3801 On ch=1 n=a#5 v=127
3801 On ch=1 n=f#5 v=127
3801 On ch=1 n=d#5 v=127
3804 Par ch=1 c=1 v=9
3809 On ch=1 n=d#5 v=0
3809 On ch=1 n=f#5 v=0
3809 On ch=1 n=a#5 v=0
3814 On ch=1 n=f#5 v=127
3814 On ch=1 n=d#5 v=127
3823 On ch=1 n=d#5 v=0
3823 On ch=1 n=f#5 v=0
3829 On ch=1 n=d5 v=127
3829 On ch=1 n=f5 v=127
3836 On ch=1 n=d5 v=0
3839 On ch=1 n=f5 v=0
3842 On ch=1 n=f5 v=127
3845 On ch=1 n=d5 v=125
3853 On ch=1 n=d5 v=0
3853 On ch=1 n=f5 v=0
3858 On ch=1 n=c5 v=121
3858 On ch=1 n=d#5 v=127
3867 On ch=1 n=c5 v=0
3869 On ch=1 n=d#5 v=0
3872 On ch=1 n=d#5 v=127
3872 On ch=1 n=c5 v=101
3878 On ch=1 n=c5 v=0
3878 On ch=1 n=d#5 v=0
3886 On ch=1 n=f#5 v=127
3886 On ch=1 n=a#5 v=127
3886 On ch=1 n=d#5 v=127
3891 On ch=1 n=d#5 v=0
3891 On ch=1 n=f#5 v=0
3894 On ch=1 n=a#5 v=0
3900 On ch=1 n=d#5 v=127
3900 On ch=1 n=f#5 v=127
3905 On ch=1 n=f#5 v=0
3905 On ch=1 n=d#5 v=0
3913 On ch=1 n=f5 v=127
3913 On ch=1 n=d5 v=127
3913 On ch=1 n=a#5 v=127
3922 On ch=1 n=a#5 v=0
3922 On ch=1 n=d5 v=0
3922 On ch=1 n=f5 v=0
3927 On ch=1 n=f5 v=127
3930 On ch=1 n=d5 v=127
3935 On ch=1 n=d5 v=0
3935 On ch=1 n=f5 v=0
3941 On ch=1 n=a#5 v=127
3943 On ch=1 n=c5 v=127
3943 On ch=1 n=d#5 v=127
3949 On ch=1 n=c5 v=0
3952 On ch=1 n=d#5 v=0
3952 On ch=1 n=a#5 v=0
3960 On ch=1 n=d#5 v=127
3961 On ch=1 n=c5 v=127
3971 On ch=1 n=c5 v=0
3971 On ch=1 n=d#5 v=0
3971 On ch=1 n=b5 v=127
3971 On ch=1 n=b4 v=127
3971 On ch=1 n=d#5 v=127
3976 On ch=1 n=b4 v=0
3979 On ch=1 n=d#5 v=0
3982 On ch=1 n=b5 v=0
3984 On ch=1 n=d#5 v=127
3987 On ch=1 n=b4 v=127
3990 On ch=1 n=d#5 v=0
3993 On ch=1 n=b4 v=0
3998 On ch=1 n=c#5 v=127
3998 On ch=1 n=e5 v=127
4006 On ch=1 n=e5 v=0
4006 On ch=1 n=c#5 v=0
4012 On ch=1 n=e5 v=127
4012 On ch=1 n=c#5 v=93
4017 On ch=1 n=c#5 v=0
4020 On ch=1 n=e5 v=0
4026 On ch=1 n=d#5 v=127
4026 On ch=1 n=f#5 v=127
4031 On ch=1 n=d#5 v=0
4034 On ch=1 n=f#5 v=0
4039 On ch=1 n=f#5 v=127
4039 On ch=1 n=d#5 v=127
4048 On ch=1 n=d#5 v=0
4048 On ch=1 n=f#5 v=0
4053 On ch=1 n=b5 v=127
4053 On ch=1 n=e5 v=127
4053 On ch=1 n=g5 v=127
4061 On ch=1 n=g5 v=0
4064 On ch=1 n=e5 v=0
4067 On ch=1 n=b5 v=0
4068 On ch=1 n=e5 v=117
4070 On ch=1 n=g5 v=127
4075 On ch=1 n=g5 v=0
4075 On ch=1 n=e5 v=0
4081 On ch=1 n=f#5 v=127
4081 On ch=1 n=b5 v=127
4083 On ch=1 n=d#5 v=127
4090 On ch=1 n=d#5 v=0
4090 On ch=1 n=b5 v=0
4090 On ch=1 n=f#5 v=0
4094 On ch=1 n=d#5 v=127
4094 On ch=1 n=f#5 v=127
4100 On ch=1 n=f#5 v=0
4103 On ch=1 n=d#5 v=0
4108 On ch=1 n=f5 v=127
4108 On ch=1 n=d5 v=127
4108 On ch=1 n=b5 v=127
4116 On ch=1 n=b5 v=0
4116 On ch=1 n=d5 v=0
4116 On ch=1 n=f5 v=0
4125 On ch=1 n=d5 v=127
4125 On ch=1 n=f5 v=127
4134 On ch=1 n=f5 v=0
4134 On ch=1 n=d5 v=0
4138 On ch=1 n=e5 v=127
4138 On ch=1 n=c5 v=127
4138 On ch=1 n=c6 v=127
4146 On ch=1 n=c5 v=0
4146 On ch=1 n=e5 v=0
4149 On ch=1 n=c6 v=0
4152 On ch=1 n=e5 v=121
4155 On ch=1 n=c5 v=121
4160 On ch=1 n=c5 v=0
4160 On ch=1 n=e5 v=0
4166 On ch=1 n=f5 v=127
4166 On ch=1 n=d5 v=127
4171 On ch=1 n=d5 v=0
4171 On ch=1 n=f5 v=0
4179 On ch=1 n=d5 v=125
4179 On ch=1 n=f5 v=127
4188 On ch=1 n=f5 v=0
4188 On ch=1 n=d5 v=0
4193 On ch=1 n=e5 v=127
4193 On ch=1 n=g5 v=127
4200 On ch=1 n=e5 v=0
4201 On ch=1 n=g5 v=0
4207 On ch=1 n=g5 v=127
4207 On ch=1 n=e5 v=127
4218 On ch=1 n=e5 v=0
4218 On ch=1 n=g5 v=0
4221 On ch=1 n=g#5 v=127
4221 On ch=1 n=f5 v=127
4221 On ch=1 n=c6 v=127
4229 On ch=1 n=c6 v=0
4229 On ch=1 n=f5 v=0
4229 On ch=1 n=g#5 v=0
4232 On ch=1 n=g#5 v=127
4234 On ch=1 n=f5 v=105
4240 On ch=1 n=f5 v=0
4240 On ch=1 n=g#5 v=0
4248 On ch=1 n=e5 v=127
4248 On ch=1 n=g5 v=125
4248 On ch=1 n=c6 v=127
4254 On ch=1 n=g5 v=0
4256 On ch=1 n=c6 v=0
4256 On ch=1 n=e5 v=0
4259 On ch=1 n=g5 v=127
4262 On ch=1 n=e5 v=127
4266 On ch=1 n=g5 v=0
4267 On ch=1 n=e5 v=0
4276 On ch=1 n=c6 v=127
4276 On ch=1 n=d#5 v=127
4276 On ch=1 n=f#5 v=127
4284 On ch=1 n=f#5 v=0
4284 On ch=1 n=d#5 v=0
4284 On ch=1 n=c6 v=0
4289 On ch=1 n=f#5 v=127
4292 On ch=1 n=d#5 v=127
4298 On ch=1 n=d#5 v=0
4298 On ch=1 n=f#5 v=0
4303 On ch=1 n=c#5 v=127
4303 On ch=1 n=c#6 v=127
4303 On ch=1 n=f5 v=127
4320 On ch=1 n=c#6 v=0
4320 On ch=1 n=c#7 v=127
4322 On ch=1 n=c#6 v=127
4325 On ch=1 n=c#7 v=0
4325 On ch=1 n=c#5 v=0
4325 On ch=1 n=f5 v=0
4333 On ch=1 n=c#7 v=127
4344 On ch=1 n=f#5 v=127
4347 On ch=1 n=c#6 v=0
4347 On ch=1 n=c#8 v=127
4347 On ch=1 n=d5 v=127
4350 On ch=1 n=c#7 v=0
4361 On ch=1 n=d5 v=0
4361 On ch=1 n=c#8 v=0
4364 On ch=1 n=f#5 v=0
4364 On ch=1 n=c#6 v=127
4364 On ch=1 n=c#7 v=127
4366 On ch=1 n=c#7 v=0
4375 On ch=1 n=c#7 v=127
4386 On ch=1 n=c#6 v=0
4386 On ch=1 n=g#5 v=127
4386 On ch=1 n=f5 v=127
4391 On ch=1 n=c#6 v=127
4394 On ch=1 n=c#7 v=0
4402 On ch=1 n=c#6 v=127
4405 On ch=1 n=g#5 v=0
4405 On ch=1 n=f5 v=0
4419 Par ch=1 c=1 v=2
4421 On ch=1 n=c#6 v=0
4421 On ch=1 n=c#6 v=0
4424 On ch=1 n=a5 v=127
4424 On ch=1 n=f#5 v=127
4435 On ch=1 n=f#5 v=0
4435 On ch=1 n=a5 v=0
4438 On ch=1 n=a5 v=127
4438 On ch=1 n=c#6 v=127
4449 On ch=1 n=a5 v=0
4451 On ch=1 n=c#6 v=0
4451 On ch=1 n=g#5 v=127
4451 On ch=1 n=f5 v=127
4463 On ch=1 n=g#5 v=0
4465 On ch=1 n=f5 v=0
4465 On ch=1 n=c#6 v=127
4465 On ch=1 n=g#5 v=127
4476 On ch=1 n=g#5 v=0
4479 On ch=1 n=c#6 v=0
4479 On ch=1 n=d5 v=127
4479 On ch=1 n=f#5 v=127
4490 On ch=1 n=f#5 v=0
4493 On ch=1 n=d5 v=0
4493 On ch=1 n=c#6 v=127
4493 On ch=1 n=f#5 v=127
4507 On ch=1 n=c#6 v=127
4509 On ch=1 n=c#5 v=127
4509 On ch=1 n=f5 v=125
4520 On ch=1 n=c#6 v=0
4520 On ch=1 n=c#7 v=127
4523 On ch=1 n=c#6 v=0
4526 On ch=1 n=c#7 v=0
4529 On ch=1 n=c#5 v=0
4529 On ch=1 n=c#6 v=127
4530 On ch=1 n=c#6 v=0
4531 On ch=1 n=f5 v=0
4534 On ch=1 n=f#5 v=0
4534 On ch=1 n=c#7 v=127
4548 On ch=1 n=c#8 v=127
4551 On ch=1 n=c#7 v=0
4551 On ch=1 n=f#5 v=127
4553 On ch=1 n=d5 v=125
4561 On ch=1 n=c#8 v=0
4564 On ch=1 n=c#7 v=127
4567 On ch=1 n=c#7 v=0
4569 On ch=1 n=d5 v=0
4572 On ch=1 n=c#6 v=127
4574 On ch=1 n=f#5 v=0
4575 On ch=1 n=c#7 v=127
4591 On ch=1 n=c#6 v=127
4591 On ch=1 n=f5 v=127
4591 On ch=1 n=g#5 v=127
4595 On ch=1 n=c#6 v=0
4597 On ch=1 n=c#7 v=0
4602 On ch=1 n=c#6 v=0
4608 On ch=1 n=f5 v=0
4608 On ch=1 n=c#6 v=127
4613 On ch=1 n=g#5 v=0
4625 Par ch=1 c=1 v=9
4630 On ch=1 n=a5 v=127
4630 On ch=1 n=f#5 v=127
4638 On ch=1 n=c#6 v=0
4639 On ch=1 n=a5 v=0
4641 On ch=1 n=f#5 v=0
4644 On ch=1 n=a5 v=127
4644 On ch=1 n=c#6 v=127
4652 On ch=1 n=c#6 v=0
4657 On ch=1 n=a5 v=0
4657 On ch=1 n=g#5 v=127
4660 On ch=1 n=f5 v=127
4666 On ch=1 n=g#5 v=0
4671 On ch=1 n=f5 v=0
4671 On ch=1 n=g#5 v=127
4671 On ch=1 n=c#6 v=127
4682 On ch=1 n=c#6 v=0
4682 On ch=1 n=g#5 v=0
4683 On ch=1 n=f#5 v=127
4685 On ch=1 n=d#5 v=127
4693 On ch=1 n=f#5 v=0
4696 On ch=1 n=d#5 v=0
4696 On ch=1 n=c#6 v=127
4696 On ch=1 n=f#5 v=127
4707 On ch=1 n=f#5 v=0
4710 On ch=1 n=c#6 v=0
4712 On ch=1 n=c#5 v=127
4715 On ch=1 n=f5 v=127
4732 On ch=1 n=c#5 v=0
4732 On ch=1 n=c#6 v=127
4746 Par ch=1 c=1 v=2
4749 On ch=1 n=c#5 v=127
4759 On ch=1 n=c#5 v=0
4761 On ch=1 n=d6 v=127
4761 On ch=1 n=f#5 v=127
4770 On ch=1 n=f#5 v=0
4770 On ch=1 n=c#6 v=0
4772 On ch=1 n=d6 v=0
4772 On ch=1 n=f5 v=0
4778 On ch=1 n=f#5 v=127
4790 On ch=1 n=f#5 v=0
4794 On ch=1 n=d6 v=127
4794 On ch=1 n=f#5 v=127
4803 On ch=1 n=f#5 v=0
4806 On ch=1 n=d6 v=0
4808 On ch=1 n=f#4 v=127
4822 On ch=1 n=f#4 v=0
4822 On ch=1 n=f#5 v=127
4825 On ch=1 n=d6 v=127
4834 On ch=1 n=d6 v=0
4834 On ch=1 n=f#5 v=0
4838 On ch=1 n=c#5 v=127
4849 On ch=1 n=c#5 v=0
4852 On ch=1 n=f#5 v=127
4855 On ch=1 n=d6 v=127
4858 On ch=1 n=f#5 v=0
4863 On ch=1 n=d6 v=0
4866 On ch=1 n=c#4 v=127
4878 On ch=1 n=c#4 v=0
4882 On ch=1 n=a5 v=127
4882 On ch=1 n=a6 v=127
4882 On ch=1 n=d6 v=127
4893 On ch=1 n=d6 v=0
4893 On ch=1 n=a6 v=0
4893 On ch=1 n=a5 v=0
4899 On ch=1 n=f#4 v=127
4907 On ch=1 n=f#4 v=0
4913 On ch=1 n=a5 v=127
4913 On ch=1 n=d6 v=127
4913 On ch=1 n=a6 v=127
4922 On ch=1 n=a5 v=0
4924 On ch=1 n=a6 v=0
4924 On ch=1 n=d6 v=0
4926 On ch=1 n=f#3 v=127
4937 On ch=1 n=f#3 v=0
4944 On ch=1 n=a6 v=127
4944 On ch=1 n=a5 v=127
4946 On ch=1 n=d6 v=127
4951 On ch=1 n=d6 v=0
4951 On ch=1 n=a5 v=0
4954 On ch=1 n=a6 v=0
4957 On ch=1 n=c#4 v=127
4967 On ch=1 n=c#4 v=0
4973 On ch=1 n=a5 v=127
4973 On ch=1 n=a6 v=127
4973 On ch=1 n=d6 v=127
4976 On ch=1 n=d6 v=0
4976 On ch=1 n=a5 v=0
4981 On ch=1 n=a6 v=0
4987 On ch=1 n=c#3 v=127
4995 On ch=1 n=c#3 v=0
5001 On ch=1 n=a6 v=127
5001 On ch=1 n=d7 v=127
5001 On ch=1 n=d6 v=127
5001 On ch=1 n=e7 v=127
5006 On ch=1 n=e7 v=0
5011 On ch=1 n=a6 v=0
5011 On ch=1 n=d7 v=0
5011 On ch=1 n=d6 v=0
5014 On ch=1 n=f#3 v=127
5025 On ch=1 n=f#3 v=0
5031 On ch=1 n=d6 v=127
5031 On ch=1 n=d7 v=127
5032 On ch=1 n=a6 v=127
5042 On ch=1 n=a6 v=0
5044 On ch=1 n=d7 v=0
5044 On ch=1 n=d6 v=0
5044 On ch=1 n=f#2 v=127
5055 On ch=1 n=f#2 v=0
5058 On ch=1 n=d7 v=127
5058 On ch=1 n=d6 v=127
5061 On ch=1 n=a6 v=127
5072 On ch=1 n=a6 v=0
5072 On ch=1 n=d6 v=0
5072 On ch=1 n=d7 v=0
5076 On ch=1 n=c#3 v=127
5088 On ch=1 n=c#3 v=0
5088 On ch=1 n=a6 v=127
5091 On ch=1 n=d7 v=127
5091 On ch=1 n=d6 v=127
5105 On ch=1 n=d6 v=0
5105 On ch=1 n=d7 v=0
5105 On ch=1 n=a6 v=0
5105 On ch=1 n=f#3 v=127
5105 On ch=1 n=f#2 v=127
5113 On ch=1 n=f#2 v=0
5116 On ch=1 n=f#3 v=0
5119 On ch=1 n=d7 v=127
5119 On ch=1 n=a6 v=127
5119 On ch=1 n=a7 v=127
5130 On ch=1 n=a7 v=0
5130 On ch=1 n=a6 v=0
5130 On ch=1 n=d7 v=0
5133 On ch=1 n=c#3 v=127
5133 On ch=1 n=c#4 v=127
5143 On ch=1 n=c#4 v=0
5143 On ch=1 n=c#3 v=0
5143 On ch=1 n=a6 v=127
5143 On ch=1 n=a7 v=127
5143 On ch=1 n=d7 v=127
5154 On ch=1 n=d7 v=0
5154 On ch=1 n=a7 v=0
5154 On ch=1 n=a6 v=0
5157 On ch=1 n=f#4 v=127
5157 On ch=1 n=f#3 v=127
5171 On ch=1 n=f#3 v=0
5171 On ch=1 n=f#4 v=0
5171 On ch=1 n=a6 v=127
5171 On ch=1 n=d7 v=127
5171 On ch=1 n=a7 v=127
5182 On ch=1 n=d7 v=0
5182 On ch=1 n=a6 v=0
5184 On ch=1 n=a7 v=0
5187 On ch=1 n=c#4 v=127
5187 On ch=1 n=c#3 v=127
5198 On ch=1 n=c#4 v=0
5198 On ch=1 n=a6 v=127
5201 On ch=1 n=c#3 v=0
5201 On ch=1 n=d7 v=127
5201 On ch=1 n=a7 v=127
5209 On ch=1 n=d7 v=0
5209 On ch=1 n=a6 v=0
5212 On ch=1 n=a7 v=0
5214 On ch=1 n=c3 v=127
5214 On ch=1 n=c4 v=127
5229 On ch=1 n=a6 v=127
5231 On ch=1 n=c3 v=0
5231 On ch=1 n=a7 v=127
5231 On ch=1 n=d7 v=127
5234 On ch=1 n=c4 v=0
5242 On ch=1 n=d7 v=0
5245 On ch=1 n=a7 v=0
5245 On ch=1 n=a6 v=0
5245 On ch=1 n=f#3 v=127
5245 On ch=1 n=f#4 v=127
5255 On ch=1 n=f#4 v=0
5258 On ch=1 n=f#3 v=0
5275 On ch=1 n=f#7 v=127
5275 On ch=1 n=c3 v=127
5275 On ch=1 n=d7 v=127
5275 On ch=1 n=d8 v=127
5275 On ch=1 n=a7 v=127
5275 On ch=1 n=c4 v=127
5285 On ch=1 n=c3 v=0
5288 On ch=1 n=c4 v=0
5289 On ch=1 n=f#7 v=0
5291 On ch=1 n=d8 v=0
5291 On ch=1 n=d7 v=0
5291 On ch=1 n=a7 v=0
5307 On ch=1 n=b2 v=127
5307 On ch=1 n=f#7 v=127
5307 On ch=1 n=a7 v=127
5307 On ch=1 n=d7 v=127
5307 On ch=1 n=b3 v=127
5307 On ch=1 n=d8 v=127
5318 On ch=1 n=b3 v=0
5318 On ch=1 n=b2 v=0
5321 On ch=1 n=a7 v=0
5324 On ch=1 n=f#7 v=0
5324 On ch=1 n=d7 v=0
5324 On ch=1 n=d8 v=0
5338 On ch=1 n=a#7 v=127
5339 On ch=1 n=a#3 v=127
5341 On ch=1 n=a#2 v=127
5341 On ch=1 n=f#7 v=127
5341 On ch=1 n=d7 v=127
5341 On ch=1 n=d8 v=127
5351 On ch=1 n=a#2 v=0
5351 On ch=1 n=a#3 v=0
5352 On ch=1 n=a#7 v=0
5354 On ch=1 n=f#7 v=0
5354 On ch=1 n=d8 v=0
5354 On ch=1 n=d7 v=0
5370 On ch=1 n=d7 v=127
5370 On ch=1 n=a3 v=127
5370 On ch=1 n=d8 v=127
5370 On ch=1 n=a2 v=127
5370 On ch=1 n=f#7 v=127
5370 On ch=1 n=b7 v=127
5387 On ch=1 n=b7 v=0
5387 On ch=1 n=a3 v=0
5387 On ch=1 n=a2 v=0
5389 On ch=1 n=d7 v=0
5389 On ch=1 n=f#7 v=0
5389 On ch=1 n=d8 v=0
5406 On ch=1 n=f#7 v=127
5406 On ch=1 n=g#3 v=127
5406 On ch=1 n=c8 v=127
5406 On ch=1 n=g#2 v=127
5406 On ch=1 n=d7 v=127
5406 On ch=1 n=d8 v=127
5422 On ch=1 n=g#2 v=0
5425 On ch=1 n=d7 v=0
5425 On ch=1 n=g#3 v=0
5428 On ch=1 n=f#7 v=0
5428 On ch=1 n=d8 v=0
5428 On ch=1 n=c8 v=0
5444 On ch=1 n=f#7 v=127
5444 On ch=1 n=g#3 v=127
5444 On ch=1 n=g#2 v=127
5444 On ch=1 n=c8 v=127
5444 On ch=1 n=d8 v=127
5444 On ch=1 n=d7 v=127
5466 On ch=1 n=d8 v=0
5466 On ch=1 n=c8 v=0
5466 On ch=1 n=g#2 v=0
5466 On ch=1 n=f#7 v=0
5466 On ch=1 n=g#3 v=0
5469 On ch=1 n=d7 v=0
5513 On ch=1 n=d8 v=127
5513 On ch=1 n=g8 v=127
5513 On ch=1 n=g7 v=127
5513 On ch=1 n=b7 v=127
5516 On ch=1 n=g3 v=127
5516 On ch=1 n=g2 v=127
5538 On ch=1 n=g2 v=0
5546 On ch=1 n=g8 v=0
5546 On ch=1 n=g7 v=0
5549 On ch=1 n=g3 v=0
5550 On ch=1 n=b7 v=0
5552 On ch=1 n=d8 v=0
5617 On ch=1 n=g5 v=127
5628 On ch=1 n=g5 v=0
5660 On ch=1 n=g5 v=127
5667 On ch=1 n=g5 v=0
5694 On ch=1 n=g5 v=127
5704 On ch=1 n=g5 v=0
5736 On ch=1 n=f4 v=127
5738 On ch=1 n=g#5 v=127
5780 On ch=1 n=g#6 v=127
5780 On ch=1 n=d#6 v=127
5782 On ch=1 n=c6 v=127
5788 On ch=1 n=g#6 v=0
5792 On ch=1 n=c6 v=0
5792 On ch=1 n=f4 v=0
5793 On ch=1 n=d#6 v=0
5796 On ch=1 n=c5 v=127
5799 On ch=1 n=g#5 v=0
5810 On ch=1 n=c5 v=0
5813 On ch=1 n=d#6 v=127
5813 On ch=1 n=b6 v=125
5815 On ch=1 n=c6 v=101
5823 On ch=1 n=c6 v=0
5823 On ch=1 n=b6 v=0
5823 On ch=1 n=d#6 v=0
5829 On ch=1 n=d#5 v=127
5843 On ch=1 n=d#5 v=0
5845 On ch=1 n=c7 v=127
5848 On ch=1 n=c6 v=127
5848 On ch=1 n=d#6 v=127
5858 On ch=1 n=d#6 v=0
5858 On ch=1 n=c7 v=0
5859 On ch=1 n=c6 v=0
5865 On ch=1 n=c5 v=127
5875 On ch=1 n=c5 v=0
5876 On ch=1 n=d#6 v=125
5878 On ch=1 n=g#6 v=127
5878 On ch=1 n=c6 v=113
5884 On ch=1 n=g#6 v=0
5886 On ch=1 n=c6 v=0
5886 On ch=1 n=d#6 v=0
5895 On ch=1 n=g#4 v=127
5906 On ch=1 n=b6 v=127
5906 On ch=1 n=c6 v=125
5906 On ch=1 n=d#6 v=127
5908 On ch=1 n=g#4 v=0
5917 On ch=1 n=b6 v=0
5917 On ch=1 n=c6 v=0
5917 On ch=1 n=d#6 v=0
5925 On ch=1 n=f4 v=127
5939 On ch=1 n=c7 v=127
5942 On ch=1 n=f4 v=0
5942 On ch=1 n=c6 v=127
5942 On ch=1 n=d#6 v=127
5950 On ch=1 n=c7 v=0
5952 On ch=1 n=d#6 v=0
5955 On ch=1 n=c6 v=0
5955 On ch=1 n=g#5 v=127
5955 On ch=1 n=f5 v=127
5966 On ch=1 n=d5 v=127
5969 On ch=1 n=f5 v=0
5969 On ch=1 n=g#5 v=0
5969 On ch=1 n=a#5 v=127
5983 On ch=1 n=a#5 v=0
5983 On ch=1 n=g#5 v=127
5985 On ch=1 n=d5 v=0
5985 On ch=1 n=f5 v=127
5996 On ch=1 n=a#5 v=127
5996 On ch=1 n=d5 v=127
5999 On ch=1 n=f5 v=0
5999 On ch=1 n=g#5 v=0
6013 On ch=1 n=a#5 v=0
6013 On ch=1 n=g#5 v=127
6016 On ch=1 n=d5 v=0
6016 On ch=1 n=e5 v=109
6027 On ch=1 n=e5 v=0
6027 On ch=1 n=c#5 v=127
6030 On ch=1 n=g#5 v=0
6030 On ch=1 n=a#5 v=127
6040 On ch=1 n=a#5 v=0
6040 On ch=1 n=c#5 v=0
6040 On ch=1 n=d#5 v=127
6040 On ch=1 n=g#5 v=127
6054 On ch=1 n=g#5 v=0
6054 On ch=1 n=d#5 v=0
6054 On ch=1 n=a#5 v=127
6056 On ch=1 n=c5 v=109
6067 On ch=1 n=g#5 v=127
6068 Par ch=1 c=1 v=9
6070 On ch=1 n=a#5 v=0
6072 On ch=1 n=c5 v=0
6072 On ch=1 n=d5 v=127
6084 On ch=1 n=d5 v=0
6084 On ch=1 n=b4 v=127
6084 On ch=1 n=g5 v=127
6087 On ch=1 n=g#5 v=0
6101 On ch=1 n=g5 v=0
6101 On ch=1 n=b4 v=0
6101 On ch=1 n=d5 v=127
6101 On ch=1 n=g#5 v=127
6111 On ch=1 n=b4 v=127
6111 On ch=1 n=g5 v=127
6115 On ch=1 n=g#5 v=0
6115 On ch=1 n=d5 v=0
6125 On ch=1 n=g#5 v=127
6125 On ch=1 n=f4 v=127
6134 On ch=1 n=b4 v=0
6136 On ch=1 n=g5 v=0
6169 On ch=1 n=g#6 v=127
6172 On ch=1 n=d#6 v=127
6172 On ch=1 n=c6 v=125
6177 On ch=1 n=g#6 v=0
6178 On ch=1 n=f4 v=0
6180 On ch=1 n=c6 v=0
6180 On ch=1 n=g#5 v=0
6183 On ch=1 n=d#6 v=0
6188 On ch=1 n=c5 v=127
6202 On ch=1 n=c5 v=0
6202 On ch=1 n=c6 v=127
6202 On ch=1 n=b6 v=125
6202 On ch=1 n=d#6 v=127
6210 On ch=1 n=b6 v=0
6210 On ch=1 n=c6 v=0
6213 On ch=1 n=d#6 v=0
6215 On ch=1 n=d#5 v=127
6229 On ch=1 n=d#5 v=0
6235 On ch=1 n=d#6 v=127
6235 On ch=1 n=c7 v=127
6237 On ch=1 n=c6 v=127
6246 On ch=1 n=c6 v=0
6246 On ch=1 n=c7 v=0
6246 On ch=1 n=d#6 v=0
6251 On ch=1 n=c5 v=127
6259 On ch=1 n=c5 v=0
6268 On ch=1 n=d#6 v=127
6270 On ch=1 n=g#6 v=127
6270 On ch=1 n=c6 v=113
6273 On ch=1 n=g#6 v=0
6273 On ch=1 n=d#6 v=0
6276 On ch=1 n=c6 v=0
6287 On ch=1 n=g#4 v=127
6295 On ch=1 n=g#4 v=0
6298 On ch=1 n=d#6 v=127
6298 On ch=1 n=b6 v=127
6298 On ch=1 n=c6 v=127
6303 On ch=1 n=c6 v=0
6306 On ch=1 n=b6 v=0
6306 On ch=1 n=d#6 v=0
6317 On ch=1 n=f4 v=127
6331 On ch=1 n=f4 v=0
6331 On ch=1 n=d#6 v=127
6331 On ch=1 n=c7 v=127
6332 On ch=1 n=c6 v=127
6336 On ch=1 n=g#5 v=127
6336 On ch=1 n=f5 v=121
6339 On ch=1 n=c7 v=0
6342 On ch=1 n=d#6 v=0
6342 On ch=1 n=c6 v=0
6347 On ch=1 n=d5 v=127
6350 On ch=1 n=g#5 v=0
6350 On ch=1 n=f5 v=0
6350 On ch=1 n=a#5 v=127
6364 On ch=1 n=a#5 v=0
6364 On ch=1 n=d5 v=0
6364 On ch=1 n=g#5 v=127
6364 On ch=1 n=f5 v=97
6374 On ch=1 n=f5 v=0
6374 On ch=1 n=a#5 v=127
6374 On ch=1 n=d5 v=113
6377 On ch=1 n=g#5 v=0
6386 On ch=1 n=e5 v=125
6388 On ch=1 n=d5 v=0
6388 On ch=1 n=a#5 v=0
6388 On ch=1 n=g#5 v=127
6399 On ch=1 n=e5 v=0
6399 On ch=1 n=c#5 v=127
6399 On ch=1 n=a#5 v=127
6405 On ch=1 n=g#5 v=0
6417 On ch=1 n=a#5 v=0
6417 On ch=1 n=c#5 v=0
6417 On ch=1 n=g#5 v=127
6417 On ch=1 n=d#5 v=127
6429 On ch=1 n=d#5 v=0
6429 On ch=1 n=c5 v=117
6429 On ch=1 n=a#5 v=127
6432 On ch=1 n=g#5 v=0
6443 On ch=1 n=g#5 v=127
6443 On ch=1 n=d5 v=127
6446 On ch=1 n=a#5 v=0
6446 On ch=1 n=c5 v=0
6457 On ch=1 n=g5 v=127
6460 On ch=1 n=g#5 v=0
6460 On ch=1 n=d5 v=0
6460 On ch=1 n=b4 v=127
6471 On ch=1 n=d5 v=127
6473 On ch=1 n=b4 v=0
6473 On ch=1 n=g#5 v=127
6476 On ch=1 n=g5 v=0
6487 On ch=1 n=d5 v=0
6487 On ch=1 n=b4 v=127
6487 On ch=1 n=g5 v=127
6490 On ch=1 n=g#5 v=0
6505 On ch=1 n=d#4 v=127
6505 On ch=1 n=g5 v=127
6509 On ch=1 n=g5 v=0
6509 On ch=1 n=b4 v=0
6517 On ch=1 n=g5 v=0
6517 On ch=1 n=c6 v=127
6517 On ch=1 n=c7 v=127
6526 On ch=1 n=c6 v=0
6527 On ch=1 n=c7 v=0
6534 On ch=1 n=d#4 v=0
6537 On ch=1 n=g4 v=127
6539 On ch=1 n=g4 v=0
6550 On ch=1 n=d7 v=127
6550 On ch=1 n=d6 v=127
6556 On ch=1 n=d6 v=0
6556 On ch=1 n=d7 v=0
6567 On ch=1 n=c5 v=127
6572 On ch=1 n=c5 v=0
6581 On ch=1 n=d#6 v=127
6581 On ch=1 n=d#7 v=127
6583 On ch=1 n=d#6 v=0
6586 On ch=1 n=d#7 v=0
6597 On ch=1 n=g5 v=127
6597 On ch=1 n=g4 v=127
6605 On ch=1 n=g4 v=0
6608 On ch=1 n=g5 v=0
6611 On ch=1 n=c6 v=127
6614 On ch=1 n=c7 v=127
6616 On ch=1 n=c7 v=0
6616 On ch=1 n=c6 v=0
6620 Par ch=1 c=1 v=2
6627 On ch=1 n=g5 v=127
6627 On ch=1 n=d#5 v=127
6636 On ch=1 n=d#5 v=0
6638 On ch=1 n=g5 v=0
6641 On ch=1 n=d6 v=127
6641 On ch=1 n=d7 v=127
6644 On ch=1 n=d6 v=0
6646 On ch=1 n=d7 v=0
6658 On ch=1 n=g5 v=127
6660 On ch=1 n=c5 v=127
6668 On ch=1 n=c5 v=0
6671 On ch=1 n=g5 v=0
6671 On ch=1 n=d#7 v=127
6671 On ch=1 n=d#6 v=127
6677 On ch=1 n=d#6 v=0
6677 On ch=1 n=d#7 v=0
6688 On ch=1 n=d5 v=127
6688 On ch=1 n=a#3 v=127
6702 On ch=1 n=d7 v=127
6702 On ch=1 n=d6 v=127
6707 On ch=1 n=d6 v=0
6707 On ch=1 n=d7 v=0
6715 On ch=1 n=a#3 v=0
6718 On ch=1 n=d5 v=0
6718 On ch=1 n=d4 v=127
6721 On ch=1 n=d4 v=0
6732 On ch=1 n=c6 v=127
6732 On ch=1 n=c7 v=127
6734 On ch=1 n=c7 v=0
6734 On ch=1 n=c6 v=0
6748 On ch=1 n=g4 v=127
6756 On ch=1 n=g4 v=0
6762 On ch=1 n=a#6 v=127
6762 On ch=1 n=a#5 v=127
6765 On ch=1 n=a#5 v=0
6768 On ch=1 n=a#6 v=0
6778 On ch=1 n=d5 v=127
6778 On ch=1 n=d4 v=127
6787 On ch=1 n=d4 v=0
6787 On ch=1 n=d5 v=0
6792 On ch=1 n=a6 v=127
6792 On ch=1 n=a5 v=127
6795 On ch=1 n=a5 v=0
6798 On ch=1 n=a6 v=0
6812 On ch=1 n=d5 v=127
6812 On ch=1 n=a#4 v=127
6817 On ch=1 n=a#4 v=0
6820 On ch=1 n=d5 v=0
6822 On ch=1 n=g6 v=127
6822 On ch=1 n=g5 v=127
6828 On ch=1 n=g5 v=0
6831 On ch=1 n=g6 v=0
6842 On ch=1 n=d5 v=127
6842 On ch=1 n=g4 v=127
6853 On ch=1 n=g4 v=0
6853 On ch=1 n=d5 v=0
6855 On ch=1 n=d6 v=127
6858 On ch=1 n=d6 v=0
6872 On ch=1 n=a#4 v=127
6872 On ch=1 n=g3 v=127
6882 On ch=1 n=d#6 v=127
6882 On ch=1 n=d#5 v=127
6891 On ch=1 n=d#5 v=0
6893 On ch=1 n=d#6 v=0
6902 On ch=1 n=g3 v=0
6902 On ch=1 n=a#3 v=127
6904 On ch=1 n=a#3 v=0
6915 On ch=1 n=f5 v=127
6915 On ch=1 n=f6 v=127
6919 On ch=1 n=f5 v=0
6921 On ch=1 n=f6 v=0
6932 On ch=1 n=d#4 v=127
6937 On ch=1 n=d#4 v=0
6943 On ch=1 n=a#4 v=0
6946 On ch=1 n=g5 v=127
6946 On ch=1 n=g6 v=127
6948 On ch=1 n=g5 v=0
6951 On ch=1 n=g6 v=0
6962 On ch=1 n=a#3 v=127
6963 On ch=1 n=a#4 v=127
6970 On ch=1 n=a#3 v=0
6973 On ch=1 n=a#4 v=0
6976 On ch=1 n=d#5 v=127
6976 On ch=1 n=d#6 v=127
6981 On ch=1 n=d#6 v=0
6981 On ch=1 n=d#5 v=0
6995 On ch=1 n=g4 v=127
6995 On ch=1 n=a#4 v=127
7003 On ch=1 n=g4 v=0
7006 On ch=1 n=a#4 v=0
7009 On ch=1 n=f6 v=127
7009 On ch=1 n=f5 v=127
7012 On ch=1 n=f5 v=0
7012 On ch=1 n=f6 v=0
7022 On ch=1 n=d#4 v=127
7022 On ch=1 n=a#4 v=127
7033 On ch=1 n=d#4 v=0
7036 On ch=1 n=a#4 v=0
7036 On ch=1 n=g5 v=127
7036 On ch=1 n=g6 v=127
7039 On ch=1 n=g5 v=0
7041 On ch=1 n=g6 v=0
7052 On ch=1 n=g#4 v=127
7052 On ch=1 n=d3 v=127
7066 On ch=1 n=f6 v=127
7066 On ch=1 n=f5 v=127
7072 On ch=1 n=f5 v=0
7074 On ch=1 n=f6 v=0
7083 On ch=1 n=b3 v=127
7085 On ch=1 n=d3 v=0
7088 On ch=1 n=b3 v=0
7098 On ch=1 n=d#5 v=127
7099 On ch=1 n=d#6 v=127
7102 On ch=1 n=d#5 v=0
7107 On ch=1 n=d#6 v=0
7116 On ch=1 n=d4 v=127
7124 On ch=1 n=d4 v=0
7124 On ch=1 n=g#4 v=0
7129 On ch=1 n=d5 v=127
7129 On ch=1 n=d6 v=127
7135 On ch=1 n=d5 v=0
7136 On ch=1 n=d6 v=0
7146 On ch=1 n=b3 v=127
7146 On ch=1 n=g#4 v=127
7154 On ch=1 n=g#4 v=0
7154 On ch=1 n=b3 v=0
7160 On ch=1 n=c6 v=127
7160 On ch=1 n=c5 v=127
7165 On ch=1 n=c5 v=0
7165 On ch=1 n=c6 v=0
7179 On ch=1 n=g#4 v=127
7180 On ch=1 n=d4 v=127
7184 On ch=1 n=d4 v=0
7184 On ch=1 n=g#4 v=0
7190 On ch=1 n=b4 v=127
7190 On ch=1 n=b5 v=127
7195 On ch=1 n=b5 v=0
7195 On ch=1 n=b4 v=0
7209 On ch=1 n=d4 v=127
7209 On ch=1 n=f4 v=127
7217 On ch=1 n=d4 v=0
7220 On ch=1 n=f4 v=0
7223 On ch=1 n=g#4 v=127
7224 On ch=1 n=g#5 v=127
7228 On ch=1 n=g#5 v=0
7228 On ch=1 n=g#4 v=0
7239 On ch=1 n=c4 v=127
7242 On ch=1 n=e4 v=127
7250 On ch=1 n=c4 v=0
7258 On ch=1 n=a5 v=127
7258 On ch=1 n=a4 v=127
7261 On ch=1 n=a4 v=0
7264 On ch=1 n=a5 v=0
7275 On ch=1 n=b3 v=127
7283 On ch=1 n=b3 v=0
7292 On ch=1 n=b4 v=127
7292 On ch=1 n=b5 v=127
7297 On ch=1 n=b5 v=0
7297 On ch=1 n=b4 v=0
7305 On ch=1 n=a3 v=127
7314 On ch=1 n=e4 v=0
7316 On ch=1 n=a3 v=0
7322 On ch=1 n=c5 v=127
7324 On ch=1 n=c6 v=127
7327 On ch=1 n=c6 v=0
7327 On ch=1 n=c5 v=0
7338 On ch=1 n=c4 v=127
7338 On ch=1 n=e4 v=127
7344 On ch=1 n=c4 v=0
7346 On ch=1 n=e4 v=0
7355 On ch=1 n=a4 v=127
7357 On ch=1 n=a5 v=127
7360 On ch=1 n=a4 v=0
7363 On ch=1 n=a5 v=0
7368 On ch=1 n=e4 v=127
7371 On ch=1 n=b3 v=127
7377 On ch=1 n=b3 v=0
7380 On ch=1 n=e4 v=0
7388 On ch=1 n=b5 v=127
7388 On ch=1 n=b4 v=127
7390 On ch=1 n=b4 v=0
7393 On ch=1 n=b5 v=0
7402 On ch=1 n=e4 v=127
7402 On ch=1 n=a3 v=127
7410 On ch=1 n=a3 v=0
7410 On ch=1 n=e4 v=0
7418 On ch=1 n=c5 v=127
7418 On ch=1 n=c6 v=127
7421 On ch=1 n=c5 v=0
7424 On ch=1 n=c6 v=0
7434 On ch=1 n=c#4 v=127
7434 On ch=1 n=g3 v=127
7440 On ch=1 n=g3 v=0
7448 On ch=1 n=a#4 v=127
7448 On ch=1 n=a#5 v=127
7456 On ch=1 n=a#4 v=0
7459 On ch=1 n=a#5 v=0
7467 On ch=1 n=f3 v=127
7473 On ch=1 n=f3 v=0
7481 On ch=1 n=a4 v=127
7484 On ch=1 n=a5 v=127
7486 On ch=1 n=a5 v=0
7486 On ch=1 n=a4 v=0
7500 On ch=1 n=e3 v=127
7508 On ch=1 n=e3 v=0
7511 On ch=1 n=c#4 v=0
7514 On ch=1 n=g5 v=127
7514 On ch=1 n=g4 v=127
7519 On ch=1 n=g4 v=0
7522 On ch=1 n=g5 v=0
7534 On ch=1 n=c#4 v=127
7534 On ch=1 n=a#3 v=127
7539 On ch=1 n=a#3 v=0
7539 On ch=1 n=c#4 v=0
7547 On ch=1 n=g5 v=127
7547 On ch=1 n=g4 v=127
7552 On ch=1 n=g4 v=0
7553 On ch=1 n=g5 v=0
7563 On ch=1 n=c#4 v=127
7566 On ch=1 n=a3 v=127
7571 On ch=1 n=a3 v=0
7571 On ch=1 n=c#4 v=0
7577 On ch=1 n=f4 v=127
7577 On ch=1 n=f5 v=127
7582 On ch=1 n=f4 v=0
7585 On ch=1 n=f5 v=0
7597 On ch=1 n=c#4 v=127
7599 On ch=1 n=g3 v=127
7604 On ch=1 n=c#4 v=0
7607 On ch=1 n=g3 v=0
7613 On ch=1 n=e5 v=127
7613 On ch=1 n=e4 v=127
7618 On ch=1 n=e4 v=0
7621 On ch=1 n=e5 v=0
7629 On ch=1 n=a3 v=127
7629 On ch=1 n=f3 v=127
7637 On ch=1 n=f3 v=0
7643 On ch=1 n=d4 v=127
7643 On ch=1 n=d5 v=127
7651 On ch=1 n=d5 v=0
7651 On ch=1 n=d4 v=0
7663 On ch=1 n=e3 v=127
7673 On ch=1 n=e3 v=0
7678 On ch=1 n=c4 v=127
7678 On ch=1 n=c5 v=127
7684 On ch=1 n=c4 v=0
7685 On ch=1 n=c5 v=0
7687 On ch=1 n=a3 v=0
7698 On ch=1 n=d3 v=127
7698 On ch=1 n=a3 v=127
7709 On ch=1 n=d3 v=0
7714 On ch=1 n=b3 v=127
7714 On ch=1 n=b4 v=127
7720 On ch=1 n=b3 v=0
7722 On ch=1 n=b4 v=0
7731 On ch=1 n=f3 v=127
7742 On ch=1 n=f3 v=0
7742 On ch=1 n=a3 v=0
7747 On ch=1 n=d4 v=127
7747 On ch=1 n=d5 v=127
7753 On ch=1 n=d5 v=0
7753 On ch=1 n=d4 v=0
7763 On ch=1 n=e3 v=127
7763 On ch=1 n=a3 v=117
7774 On ch=1 n=e3 v=0
7780 On ch=1 n=c5 v=127
7780 On ch=1 n=c4 v=127
7785 On ch=1 n=c4 v=0
7785 On ch=1 n=c5 v=0
7799 On ch=1 n=d#3 v=127
7810 On ch=1 n=d#3 v=0
7815 On ch=1 n=a3 v=0
7815 On ch=1 n=b4 v=127
7815 On ch=1 n=b3 v=127
7821 On ch=1 n=b3 v=0
7821 On ch=1 n=b4 v=0
7832 On ch=1 n=e2 v=125
7848 On ch=1 n=e3 v=97
7851 On ch=1 n=e2 v=0
7865 On ch=1 n=e3 v=0
7865 On ch=1 n=f2 v=127
7865 On ch=1 n=e2 v=121
7884 On ch=1 n=e2 v=0
7884 On ch=1 n=f2 v=0
7884 On ch=1 n=e3 v=127
7898 On ch=1 n=e3 v=0
7901 On ch=1 n=g#2 v=113
7902 On ch=1 n=e2 v=127
7917 On ch=1 n=e3 v=127
7920 On ch=1 n=e2 v=0
7920 On ch=1 n=g#2 v=0
7924 On ch=1 n=e3 v=0
7931 On ch=1 n=e3 v=127
7931 On ch=1 n=e4 v=127
7936 On ch=1 n=e4 v=0
7936 On ch=1 n=e3 v=0
7947 On ch=1 n=e5 v=127
7947 On ch=1 n=g#4 v=127
7953 On ch=1 n=g#4 v=0
7956 On ch=1 n=e5 v=0
7968 On ch=1 n=f3 v=127
7968 On ch=1 n=e4 v=127
7972 On ch=1 n=f3 v=0
7975 On ch=1 n=e4 v=0
7980 On ch=1 n=a4 v=127
7980 On ch=1 n=e5 v=127
7986 On ch=1 n=a4 v=0
7989 On ch=1 n=e5 v=0
7999 On ch=1 n=g#3 v=127
8002 On ch=1 n=e4 v=127
8008 On ch=1 n=e4 v=0
8008 On ch=1 n=g#3 v=0
8016 On ch=1 n=b4 v=127
8016 On ch=1 n=e5 v=127
8021 On ch=1 n=e5 v=0
8021 On ch=1 n=b4 v=0
8035 On ch=1 n=a3 v=127
8035 On ch=1 n=e4 v=127
8046 On ch=1 n=a3 v=0
8051 On ch=1 n=c5 v=127
8052 On ch=1 n=e5 v=127
8060 On ch=1 n=c5 v=0
8071 On ch=1 n=b3 v=127
8076 On ch=1 n=b3 v=0
8090 On ch=1 n=b4 v=127
8096 On ch=1 n=b4 v=0
8106 On ch=1 n=c4 v=127
8112 On ch=1 n=c4 v=0
8112 On ch=1 n=e4 v=0
8120 On ch=1 n=a4 v=127
8131 On ch=1 n=a4 v=0
8141 On ch=1 n=e4 v=127
8141 On ch=1 n=a3 v=127
8145 On ch=1 n=a3 v=0
8148 On ch=1 n=e4 v=0
8159 On ch=1 n=c5 v=127
8164 On ch=1 n=c5 v=0
8175 On ch=1 n=e5 v=0
8175 On ch=1 n=e4 v=127
8175 On ch=1 n=b3 v=127
8181 On ch=1 n=b3 v=0
8181 On ch=1 n=e4 v=0
8192 On ch=1 n=b4 v=127
8192 On ch=1 n=e5 v=127
8194 On ch=1 n=b4 v=0
8197 On ch=1 n=e5 v=0
8208 On ch=1 n=e4 v=127
8208 On ch=1 n=c4 v=127
8214 On ch=1 n=c4 v=0
8219 On ch=1 n=e4 v=0
8225 On ch=1 n=e5 v=127
8225 On ch=1 n=a4 v=127
8230 On ch=1 n=a4 v=0
8233 On ch=1 n=e5 v=0
8244 On ch=1 n=e2 v=127
8263 On ch=1 n=e2 v=0
8263 On ch=1 n=e3 v=89
8279 On ch=1 n=e2 v=127
8279 On ch=1 n=f2 v=127
8282 On ch=1 n=e3 v=0
8296 On ch=1 n=f2 v=0
8296 On ch=1 n=e3 v=125
8299 On ch=1 n=e2 v=0
8315 On ch=1 n=a#2 v=127
8315 On ch=1 n=e2 v=127
8318 On ch=1 n=e3 v=0
8332 On ch=1 n=e2 v=0
8334 On ch=1 n=e3 v=127
8337 On ch=1 n=a#2 v=0
8348 On ch=1 n=a#4 v=127
8348 On ch=1 n=a#3 v=127
8351 On ch=1 n=a#3 v=0
8351 On ch=1 n=e3 v=0
8354 On ch=1 n=a#4 v=0
8362 On ch=1 n=d5 v=127
8363 On ch=1 n=a#5 v=127
8370 On ch=1 n=a#5 v=0
8370 On ch=1 n=d5 v=0
8382 On ch=1 n=c#4 v=127
8384 On ch=1 n=a#4 v=127
8387 On ch=1 n=c#4 v=0
8389 On ch=1 n=a#4 v=0
8395 On ch=1 n=a#5 v=127
8395 On ch=1 n=e5 v=127
8403 On ch=1 n=e5 v=0
8404 On ch=1 n=a#5 v=0
8414 On ch=1 n=a#4 v=127
8414 On ch=1 n=d4 v=127
8419 On ch=1 n=d4 v=0
8419 On ch=1 n=a#4 v=0
8430 On ch=1 n=f5 v=127
8430 On ch=1 n=a#5 v=127
8433 On ch=1 n=f5 v=0
8436 On ch=1 n=a#5 v=0
8450 On ch=1 n=d4 v=127
8450 On ch=1 n=b4 v=127
8458 On ch=1 n=d4 v=0
8466 On ch=1 n=g#5 v=127
8466 On ch=1 n=f5 v=127
8467 On ch=1 n=b5 v=127
8474 On ch=1 n=f5 v=0
8474 On ch=1 n=g#5 v=0
8489 On ch=1 n=e4 v=127
8494 On ch=1 n=e4 v=0
8505 On ch=1 n=e5 v=127
8511 On ch=1 n=e5 v=0
8521 On ch=1 n=f4 v=127
8529 On ch=1 n=f4 v=0
8529 On ch=1 n=b4 v=0
8537 On ch=1 n=d5 v=127
8543 On ch=1 n=d5 v=0
8546 On ch=1 n=b5 v=0
8557 On ch=1 n=b4 v=127
8557 On ch=1 n=d4 v=127
8562 On ch=1 n=d4 v=0
8565 On ch=1 n=b4 v=0
8573 On ch=1 n=a5 v=127
8573 On ch=1 n=f5 v=127
8579 On ch=1 n=f5 v=0
8587 On ch=1 n=a5 v=0
8590 On ch=1 n=b4 v=127
8590 On ch=1 n=e4 v=127
8595 On ch=1 n=e4 v=0
8598 On ch=1 n=b4 v=0
8606 On ch=1 n=e5 v=127
8606 On ch=1 n=a5 v=127
8606 On ch=1 n=b5 v=127
8612 On ch=1 n=a5 v=0
8614 On ch=1 n=b5 v=0
8614 On ch=1 n=e5 v=0
8625 On ch=1 n=f4 v=127
8625 On ch=1 n=b4 v=127
8631 On ch=1 n=f4 v=0
8634 On ch=1 n=b4 v=0
8642 On ch=1 n=d5 v=127
8642 On ch=1 n=b5 v=127
8642 On ch=1 n=a5 v=127
8647 On ch=1 n=d5 v=0
8650 On ch=1 n=a5 v=0
8650 On ch=1 n=b5 v=0
8658 On ch=1 n=e2 v=127
8675 On ch=1 n=e2 v=0
8678 On ch=1 n=e3 v=105
8688 On ch=1 n=f2 v=121
8688 On ch=1 n=e2 v=125
8691 On ch=1 n=e3 v=0
8707 On ch=1 n=e2 v=0
8707 On ch=1 n=e3 v=121
8713 On ch=1 n=f2 v=0
8724 On ch=1 n=e2 v=121
8724 On ch=1 n=g#2 v=127
8728 On ch=1 n=e3 v=0
8740 On ch=1 n=e3 v=127
8743 On ch=1 n=g#2 v=0
8743 On ch=1 n=e2 v=0
8757 On ch=1 n=e4 v=127
8757 On ch=1 n=g#4 v=127
8760 On ch=1 n=g#4 v=0
8762 On ch=1 n=e4 v=0
8762 On ch=1 n=e3 v=0
8772 On ch=1 n=g#5 v=127
8773 On ch=1 n=e6 v=127
8773 On ch=1 n=e5 v=127
8776 On ch=1 n=e5 v=0
8778 On ch=1 n=g#5 v=0
8779 On ch=1 n=e6 v=0
8790 On ch=1 n=a4 v=127
8790 On ch=1 n=f4 v=127
8793 On ch=1 n=a4 v=0
8795 On ch=1 n=f4 v=0
8806 On ch=1 n=e6 v=127
8806 On ch=1 n=a5 v=127
8806 On ch=1 n=e5 v=127
8812 On ch=1 n=e5 v=0
8812 On ch=1 n=a5 v=0
8815 On ch=1 n=e6 v=0
8826 On ch=1 n=g#4 v=127
8826 On ch=1 n=e4 v=127
8828 On ch=1 n=b4 v=127
8831 On ch=1 n=b4 v=0
8831 On ch=1 n=e4 v=0
8831 On ch=1 n=g#4 v=0
8839 On ch=1 n=b5 v=127
8839 On ch=1 n=e5 v=127
8839 On ch=1 n=e6 v=127
8845 On ch=1 n=b5 v=0
8848 On ch=1 n=e6 v=0
8848 On ch=1 n=e5 v=0
8858 On ch=1 n=e4 v=127
8858 On ch=1 n=a4 v=127
8858 On ch=1 n=c5 v=127
8867 On ch=1 n=c5 v=0
8867 On ch=1 n=a4 v=0
8872 On ch=1 n=e6 v=127
8875 On ch=1 n=c6 v=127
8875 On ch=1 n=e5 v=127
8885 On ch=1 n=c6 v=0
8891 On ch=1 n=d5 v=127
8891 On ch=1 n=b4 v=127
8896 On ch=1 n=b4 v=0
8898 On ch=1 n=d5 v=0
8902 On ch=1 n=e5 v=0
8905 On ch=1 n=b5 v=127
8910 On ch=1 n=b5 v=0
8927 On ch=1 n=e5 v=125
8927 On ch=1 n=c5 v=127
8929 On ch=1 n=c5 v=0
8932 On ch=1 n=e5 v=0
8938 On ch=1 n=e4 v=0
8940 On ch=1 n=a5 v=127
8943 On ch=1 n=a5 v=0
8946 On ch=1 n=e6 v=0
8963 On ch=1 n=c5 v=127
8963 On ch=1 n=a4 v=127
8963 On ch=1 n=e4 v=127
8968 On ch=1 n=a4 v=0
8968 On ch=1 n=c5 v=0
8971 On ch=1 n=e4 v=0
8979 On ch=1 n=f6 v=127
8979 On ch=1 n=f5 v=127
8979 On ch=1 n=c6 v=127
8984 On ch=1 n=f5 v=0
8985 On ch=1 n=c6 v=0
8987 On ch=1 n=f6 v=0
8998 On ch=1 n=d5 v=127
8998 On ch=1 n=b4 v=127
8998 On ch=1 n=e4 v=127
9001 On ch=1 n=b4 v=0
9004 On ch=1 n=e4 v=0
9007 On ch=1 n=d5 v=0
9012 On ch=1 n=f6 v=127
9012 On ch=1 n=b5 v=127
9012 On ch=1 n=f5 v=127
9017 On ch=1 n=f5 v=0
9017 On ch=1 n=b5 v=0
9020 On ch=1 n=f6 v=0
9034 On ch=1 n=e4 v=127
9034 On ch=1 n=c5 v=127
9034 On ch=1 n=e5 v=127
9042 On ch=1 n=c5 v=0
9042 On ch=1 n=e4 v=0
9043 On ch=1 n=e5 v=0
9048 On ch=1 n=f6 v=127
9048 On ch=1 n=f5 v=127
9048 On ch=1 n=a5 v=127
9051 On ch=1 n=f5 v=0
9053 On ch=1 n=a5 v=0
9053 On ch=1 n=f6 v=0
9067 On ch=1 n=e2 v=125
9083 On ch=1 n=e2 v=0
9083 On ch=1 n=e3 v=97
9100 On ch=1 n=e3 v=0
9100 On ch=1 n=e2 v=127
9103 On ch=1 n=f2 v=127
9117 On ch=1 n=e2 v=0
9117 On ch=1 n=e3 v=127
9119 On ch=1 n=f2 v=0
9133 On ch=1 n=a#2 v=127
9133 On ch=1 n=e2 v=127
9135 On ch=1 n=e3 v=0
9152 On ch=1 n=e2 v=0
9152 On ch=1 n=e3 v=127
9155 On ch=1 n=a#2 v=0
9165 On ch=1 n=e3 v=0
9165 On ch=1 n=a#4 v=127
9165 On ch=1 n=e4 v=127
9171 On ch=1 n=a#4 v=0
9174 On ch=1 n=e4 v=0
9180 On ch=1 n=a#5 v=127
9182 On ch=1 n=d6 v=127
9182 On ch=1 n=a#6 v=127
9187 On ch=1 n=d6 v=0
9187 On ch=1 n=a#5 v=0
9190 On ch=1 n=a#6 v=0
9198 On ch=1 n=e4 v=127
9198 On ch=1 n=c#5 v=127
9204 On ch=1 n=c#5 v=0
9207 On ch=1 n=e4 v=0
9212 On ch=1 n=a#5 v=127
9214 On ch=1 n=e6 v=127
9215 On ch=1 n=a#6 v=127
9220 On ch=1 n=e6 v=0
9220 On ch=1 n=a#5 v=0
9224 On ch=1 n=a#6 v=0
9231 On ch=1 n=d5 v=127
9231 On ch=1 n=e4 v=127
9240 On ch=1 n=e4 v=0
9240 On ch=1 n=d5 v=0
9246 On ch=1 n=a#6 v=127
9246 On ch=1 n=a#5 v=127
9248 On ch=1 n=f6 v=127
9253 On ch=1 n=a#5 v=0
9254 On ch=1 n=f6 v=0
9256 On ch=1 n=a#6 v=0
9267 On ch=1 n=d5 v=127
9267 On ch=1 n=e4 v=127
9268 On ch=1 n=b4 v=127
9273 On ch=1 n=b4 v=0
9275 On ch=1 n=d5 v=0
9281 On ch=1 n=g#6 v=127
9281 On ch=1 n=f6 v=127
9281 On ch=1 n=b6 v=127
9281 On ch=1 n=d6 v=127
9286 On ch=1 n=d6 v=0
9286 On ch=1 n=f6 v=0
9303 On ch=1 n=e5 v=127
9303 On ch=1 n=c5 v=127
9308 On ch=1 n=c5 v=0
9311 On ch=1 n=e5 v=0
9319 On ch=1 n=e6 v=127
9319 On ch=1 n=c6 v=127
9325 On ch=1 n=c6 v=0
9325 On ch=1 n=e6 v=0
9336 On ch=1 n=d5 v=127
9338 On ch=1 n=f5 v=127
9341 On ch=1 n=d5 v=0
9344 On ch=1 n=f5 v=0
9352 On ch=1 n=b5 v=127
9352 On ch=1 n=d6 v=127
9358 On ch=1 n=d6 v=0
9358 On ch=1 n=b5 v=0
9360 On ch=1 n=g#6 v=0
9366 On ch=1 n=e4 v=0
9369 On ch=1 n=f5 v=127
9369 On ch=1 n=d5 v=127
9377 On ch=1 n=d5 v=0
9378 On ch=1 n=f5 v=0
9382 On ch=1 n=d6 v=127
9385 On ch=1 n=f6 v=127
9385 On ch=1 n=g#6 v=127
9391 On ch=1 n=f6 v=0
9391 On ch=1 n=d6 v=0
9393 On ch=1 n=b6 v=0
9393 On ch=1 n=g#6 v=0
9404 On ch=1 n=e5 v=127
9404 On ch=1 n=g#5 v=127
9410 On ch=1 n=e5 v=0
9413 On ch=1 n=g#5 v=0
9421 On ch=1 n=c6 v=127
9421 On ch=1 n=g#6 v=127
9421 On ch=1 n=b6 v=127
9421 On ch=1 n=e6 v=127
9426 On ch=1 n=e6 v=0
9426 On ch=1 n=c6 v=0
9426 On ch=1 n=g#6 v=0
9426 On ch=1 n=b6 v=0
9437 On ch=1 n=f5 v=127
9440 On ch=1 n=a5 v=127
9446 On ch=1 n=f5 v=0
9448 On ch=1 n=a5 v=0
9454 On ch=1 n=d6 v=127
9454 On ch=1 n=b6 v=127
9454 On ch=1 n=b5 v=127
9454 On ch=1 n=g#6 v=127
9459 On ch=1 n=d6 v=0
9462 On ch=1 n=b6 v=0
9462 On ch=1 n=b5 v=0
9462 On ch=1 n=g#6 v=0
9481 On ch=1 n=g#5 v=127
9484 On ch=1 n=b6 v=127
9484 On ch=1 n=b5 v=127
9484 On ch=1 n=g#6 v=127
9484 On ch=1 n=e6 v=127
9484 On ch=1 n=e5 v=127
9514 On ch=1 n=e5 v=0
9514 On ch=1 n=e6 v=0
9517 On ch=1 n=e4 v=127
9517 On ch=1 n=e5 v=127
9531 On ch=1 n=e5 v=0
9531 On ch=1 n=e4 v=0
9534 On ch=1 n=g#5 v=0
9535 On ch=1 n=b6 v=0
9535 On ch=1 n=b5 v=0
9536 On ch=1 n=g#6 v=0
9536 On ch=1 n=e7 v=127
9536 On ch=1 n=e6 v=127
9537 On ch=1 n=e6 v=0
9547 On ch=1 n=e7 v=0
9553 On ch=1 n=d#4 v=127
9553 On ch=1 n=d#5 v=127
9561 On ch=1 n=d#5 v=0
9561 On ch=1 n=d#4 v=0
9566 On ch=1 n=f#6 v=127
9569 On ch=1 n=f#7 v=127
9572 On ch=1 n=f#6 v=0
9575 On ch=1 n=f#7 v=0
9586 On ch=1 n=d4 v=127
9586 On ch=1 n=d5 v=127
9600 On ch=1 n=g#7 v=127
9600 On ch=1 n=g#6 v=127
9602 On ch=1 n=d5 v=0
9602 On ch=1 n=d4 v=0
9602 On ch=1 n=e7 v=127
9610 On ch=1 n=g#7 v=0
9610 On ch=1 n=g#6 v=0
9613 On ch=1 n=e7 v=0
9619 On ch=1 n=c4 v=127
9619 On ch=1 n=c5 v=127
9627 On ch=1 n=c5 v=0
9627 On ch=1 n=c4 v=0
9635 On ch=1 n=e7 v=127
9635 On ch=1 n=a6 v=127
9635 On ch=1 n=a7 v=127
9644 On ch=1 n=a7 v=0
9644 On ch=1 n=a6 v=0
9646 On ch=1 n=e7 v=0
9654 On ch=1 n=b3 v=127
9654 On ch=1 n=b4 v=127
9660 On ch=1 n=b4 v=0
9660 On ch=1 n=b3 v=0
9668 On ch=1 n=e7 v=127
9668 On ch=1 n=b6 v=127
9668 On ch=1 n=b7 v=127
9673 On ch=1 n=b6 v=0
9676 On ch=1 n=b7 v=0
9679 On ch=1 n=e7 v=0
9684 On ch=1 n=a4 v=127
9684 On ch=1 n=a3 v=127
9701 On ch=1 n=c8 v=127
9701 On ch=1 n=c7 v=127
9701 On ch=1 n=e7 v=127
9704 On ch=1 n=a3 v=0
9704 On ch=1 n=a4 v=0
9715 On ch=1 n=c8 v=0
9717 On ch=1 n=c7 v=0
9717 On ch=1 n=b3 v=127
9717 On ch=1 n=b4 v=127
9720 On ch=1 n=e7 v=0
9726 On ch=1 n=b3 v=0
9732 On ch=1 n=b4 v=0
9737 On ch=1 n=b6 v=127
9737 On ch=1 n=b7 v=127
9745 On ch=1 n=b6 v=0
9748 On ch=1 n=b7 v=0
9753 On ch=1 n=c5 v=125
9754 On ch=1 n=c4 v=127
9764 On ch=1 n=c5 v=0
9767 On ch=1 n=c4 v=0
9767 On ch=1 n=b6 v=127
9767 On ch=1 n=a6 v=127
9767 On ch=1 n=a7 v=109
9769 On ch=1 n=b7 v=113
9773 On ch=1 n=a6 v=0
9773 On ch=1 n=b6 v=0
9775 On ch=1 n=a7 v=0
9775 On ch=1 n=b7 v=0
9783 On ch=1 n=a4 v=127
9783 On ch=1 n=a3 v=127
9800 On ch=1 n=a3 v=0
9800 On ch=1 n=a4 v=0
9802 On ch=1 n=c8 v=127
9802 On ch=1 n=c7 v=127
9802 On ch=1 n=e7 v=127
9816 On ch=1 n=c8 v=0
9819 On ch=1 n=e7 v=0
9819 On ch=1 n=c7 v=0
9819 On ch=1 n=g#3 v=127
9819 On ch=1 n=g#4 v=127
9833 On ch=1 n=g#4 v=0
9833 On ch=1 n=g#3 v=0
9835 On ch=1 n=e7 v=127
9835 On ch=1 n=b7 v=127
9839 On ch=1 n=b6 v=127
9849 On ch=1 n=b7 v=0
9849 On ch=1 n=f#3 v=127
9849 On ch=1 n=f#4 v=127
9852 On ch=1 n=b6 v=0
9852 On ch=1 n=e7 v=0
9864 On ch=1 n=a7 v=127
9864 On ch=1 n=a6 v=127
9864 On ch=1 n=e7 v=127
9865 On ch=1 n=f#3 v=0
9865 On ch=1 n=f#4 v=0
9870 On ch=1 n=e4 v=127
9874 On ch=1 n=e3 v=127
9876 On ch=1 n=a7 v=0
9878 On ch=1 n=a6 v=0
9881 On ch=1 n=e7 v=0
9893 On ch=1 n=e8 v=127
9898 On ch=1 n=e7 v=127
9905 On ch=1 n=e4 v=0
9906 On ch=1 n=e3 v=0
9924 On ch=1 n=e5 v=127
9926 On ch=1 n=e4 v=127
9931 On ch=1 n=e8 v=0
9934 On ch=1 n=e4 v=0
9934 On ch=1 n=e5 v=0
9939 On ch=1 n=e7 v=0
9942 On ch=1 n=e6 v=127
9950 On ch=1 n=e6 v=0
9956 On ch=1 n=f#4 v=127
9956 On ch=1 n=e5 v=127
9972 On ch=1 n=e5 v=0
9972 On ch=1 n=f#4 v=0
9975 On ch=1 n=e6 v=127
9975 On ch=1 n=d#6 v=127
9986 On ch=1 n=d#6 v=0
9986 On ch=1 n=e6 v=0
9990 On ch=1 n=g#4 v=127
9992 On ch=1 n=e5 v=127
10008 On ch=1 n=g#4 v=0
10008 On ch=1 n=e6 v=127
10008 On ch=1 n=d6 v=127
10012 On ch=1 n=e5 v=0
10022 On ch=1 n=d6 v=0
10022 On ch=1 n=a4 v=127
10024 On ch=1 n=e6 v=0
10024 On ch=1 n=e5 v=127
10035 On ch=1 n=e5 v=0
10035 On ch=1 n=a4 v=0
10041 On ch=1 n=e6 v=125
10041 On ch=1 n=c6 v=127
10055 On ch=1 n=c6 v=0
10057 On ch=1 n=e6 v=0
10057 On ch=1 n=b4 v=127
10060 On ch=1 n=e5 v=127
10075 On ch=1 n=e5 v=0
10077 On ch=1 n=b4 v=0
10077 On ch=1 n=b5 v=127
10093 On ch=1 n=e5 v=127
10093 On ch=1 n=c5 v=127
10099 On ch=1 n=b5 v=0
10107 On ch=1 n=c5 v=0
10110 On ch=1 n=f#6 v=127
10110 On ch=1 n=a5 v=127
10110 On ch=1 n=d#6 v=127
10112 On ch=1 n=e5 v=0
10126 On ch=1 n=f#6 v=0
10126 On ch=1 n=b4 v=127
10129 On ch=1 n=a5 v=0
10129 On ch=1 n=d#6 v=0
10134 On ch=1 n=b4 v=0
10145 On ch=1 n=b5 v=127
10156 On ch=1 n=b5 v=0
10162 On ch=1 n=a4 v=127
10173 On ch=1 n=a4 v=0
10178 On ch=1 n=c6 v=127
10189 On ch=1 n=c6 v=0
10195 On ch=1 n=c5 v=127
10195 On ch=1 n=e5 v=127
10205 On ch=1 n=e5 v=0
10208 On ch=1 n=c5 v=0
10208 On ch=1 n=f#6 v=127
10208 On ch=1 n=a5 v=127
10208 On ch=1 n=d#6 v=127
10222 On ch=1 n=a5 v=0
10222 On ch=1 n=f#6 v=0
10222 On ch=1 n=e5 v=127
10222 On ch=1 n=b4 v=127
10225 On ch=1 n=d#6 v=0
10235 On ch=1 n=b4 v=0
10238 On ch=1 n=e5 v=0
10238 On ch=1 n=b5 v=127
10238 On ch=1 n=f#6 v=127
10238 On ch=1 n=d#6 v=127
10252 On ch=1 n=f#6 v=0
10255 On ch=1 n=d#6 v=0
10255 On ch=1 n=b5 v=0
10255 On ch=1 n=a4 v=127
10255 On ch=1 n=e5 v=127
10265 On ch=1 n=e5 v=0
10268 On ch=1 n=a4 v=0
10268 On ch=1 n=d#6 v=127
10268 On ch=1 n=c6 v=127
10268 On ch=1 n=f#6 v=127
10285 On ch=1 n=f#6 v=0
10285 On ch=1 n=c6 v=0
10285 On ch=1 n=b4 v=127
10285 On ch=1 n=e5 v=127
10287 On ch=1 n=e4 v=127
10288 On ch=1 n=d#6 v=0
10298 On ch=1 n=g#6 v=127
10298 On ch=1 n=e6 v=127
10298 On ch=1 n=g#5 v=127
10304 On ch=1 n=e4 v=0
10305 On ch=1 n=b4 v=0
10305 On ch=1 n=e5 v=0
10320 On ch=1 n=e4 v=127
10320 On ch=1 n=e3 v=127
10328 On ch=1 n=e6 v=0
10336 On ch=1 n=e5 v=127
10339 On ch=1 n=e4 v=0
10339 On ch=1 n=e3 v=0
10339 On ch=1 n=e6 v=121
10350 On ch=1 n=e5 v=0
10353 On ch=1 n=e6 v=0
10356 On ch=1 n=d#3 v=127
10356 On ch=1 n=d#4 v=127
10367 On ch=1 n=g#5 v=0
10367 On ch=1 n=g#6 v=0
10372 On ch=1 n=d#4 v=0
10372 On ch=1 n=f#6 v=127
10372 On ch=1 n=f#5 v=127
10375 On ch=1 n=d#3 v=0
10380 On ch=1 n=f#5 v=0
10383 On ch=1 n=f#6 v=0
10389 On ch=1 n=d4 v=127
10391 On ch=1 n=d3 v=127
10408 On ch=1 n=g#6 v=127
10408 On ch=1 n=g#5 v=127
10411 On ch=1 n=e6 v=127
10414 On ch=1 n=d4 v=0
10415 On ch=1 n=d3 v=0
10423 On ch=1 n=g#5 v=0
10424 On ch=1 n=g#6 v=0
10424 On ch=1 n=e6 v=0
10427 On ch=1 n=c4 v=127
10427 On ch=1 n=c3 v=127
10438 On ch=1 n=c4 v=0
10441 On ch=1 n=c3 v=0
10444 On ch=1 n=e6 v=125
10444 On ch=1 n=a5 v=127
10444 On ch=1 n=a6 v=127
10455 On ch=1 n=a6 v=0
10455 On ch=1 n=a5 v=0
10455 On ch=1 n=e6 v=0
10463 On ch=1 n=b2 v=127
10463 On ch=1 n=b3 v=127
10477 On ch=1 n=b3 v=0
10477 On ch=1 n=b2 v=0
10477 On ch=1 n=b5 v=127
10477 On ch=1 n=b6 v=125
10479 On ch=1 n=e6 v=127
10487 On ch=1 n=b5 v=0
10490 On ch=1 n=e6 v=0
10490 On ch=1 n=b6 v=0
10496 On ch=1 n=a3 v=127
10499 On ch=1 n=a2 v=127
10515 On ch=1 n=e6 v=127
10515 On ch=1 n=c7 v=127
10515 On ch=1 n=c6 v=127
10521 On ch=1 n=a2 v=0
10524 On ch=1 n=a3 v=0
10534 On ch=1 n=c7 v=0
10537 On ch=1 n=e6 v=0
10537 On ch=1 n=c6 v=0
10537 On ch=1 n=b2 v=127
10537 On ch=1 n=b3 v=127
10548 On ch=1 n=b2 v=0
10551 On ch=1 n=b3 v=0
10553 On ch=1 n=b5 v=127
10553 On ch=1 n=b6 v=127
10562 On ch=1 n=b6 v=0
10562 On ch=1 n=b5 v=0
10570 On ch=1 n=c4 v=125
10573 On ch=1 n=c3 v=121
10583 On ch=1 n=c4 v=0
10586 On ch=1 n=c3 v=0
10586 On ch=1 n=a5 v=127
10586 On ch=1 n=a6 v=127
10592 On ch=1 n=a5 v=0
10594 On ch=1 n=a6 v=0
10605 On ch=1 n=a2 v=121
10605 On ch=1 n=a3 v=127
10619 On ch=1 n=c6 v=127
10622 On ch=1 n=a3 v=0
10622 On ch=1 n=a2 v=0
10622 On ch=1 n=e6 v=127
10622 On ch=1 n=c7 v=127
10636 On ch=1 n=c7 v=0
10638 On ch=1 n=e6 v=0
10638 On ch=1 n=g#3 v=127
10640 On ch=1 n=g#2 v=127
10641 On ch=1 n=c6 v=0
10655 On ch=1 n=g#2 v=0
10655 On ch=1 n=g#3 v=0
10655 On ch=1 n=b6 v=127
10655 On ch=1 n=e6 v=127
10658 On ch=1 n=b5 v=127
10668 On ch=1 n=b5 v=0
10668 On ch=1 n=b6 v=0
10671 On ch=1 n=f#2 v=127
10671 On ch=1 n=f#3 v=127
10672 On ch=1 n=e6 v=0
10682 On ch=1 n=f#3 v=0
10685 On ch=1 n=f#2 v=0
10685 On ch=1 n=a6 v=127
10685 On ch=1 n=a5 v=127
10685 On ch=1 n=e6 v=127
10695 On ch=1 n=a5 v=0
10698 On ch=1 n=e6 v=0
10698 On ch=1 n=a6 v=0
10698 On ch=1 n=e2 v=127
10701 On ch=1 n=e3 v=127
10717 On ch=1 n=e6 v=127
10720 On ch=1 n=e7 v=127
10723 On ch=1 n=e3 v=0
10725 On ch=1 n=e2 v=0
10734 On ch=1 n=e3 v=127
10734 On ch=1 n=e4 v=127
10750 On ch=1 n=e4 v=0
10750 On ch=1 n=e3 v=0
10753 On ch=1 n=e5 v=127
10756 On ch=1 n=e7 v=0
10758 On ch=1 n=e6 v=0
10764 On ch=1 n=e5 v=0
10769 On ch=1 n=e4 v=127
10769 On ch=1 n=f#3 v=125
10786 On ch=1 n=f#3 v=0
10786 On ch=1 n=e4 v=0
10786 On ch=1 n=e5 v=127
10789 On ch=1 n=d#5 v=127
10798 On ch=1 n=d#5 v=0
10800 On ch=1 n=e5 v=0
10805 On ch=1 n=e4 v=127
10805 On ch=1 n=g#3 v=127
10822 On ch=1 n=d5 v=127
10822 On ch=1 n=e5 v=127
10824 On ch=1 n=g#3 v=0
10824 On ch=1 n=e4 v=0
10838 On ch=1 n=d5 v=0
10838 On ch=1 n=e5 v=0
10841 On ch=1 n=a3 v=127
10841 On ch=1 n=e4 v=125
10855 On ch=1 n=e4 v=0
10855 On ch=1 n=a3 v=0
10857 On ch=1 n=c5 v=127
10860 On ch=1 n=e5 v=127
10868 On ch=1 n=c5 v=0
10871 On ch=1 n=e5 v=0
10877 On ch=1 n=b3 v=127
10877 On ch=1 n=e4 v=127
10888 On ch=1 n=b3 v=0
10890 On ch=1 n=e4 v=0
10893 On ch=1 n=b4 v=127
10893 On ch=1 n=e5 v=127
10901 On ch=1 n=b4 v=0
10904 On ch=1 n=e5 v=0
10912 On ch=1 n=c4 v=127
10912 On ch=1 n=e4 v=127
10930 On ch=1 n=a4 v=127
10931 On ch=1 n=d#5 v=127
10931 On ch=1 n=f#5 v=127
10934 On ch=1 n=e4 v=0
10934 On ch=1 n=c4 v=0
10943 On ch=1 n=f#5 v=0
10945 On ch=1 n=a4 v=0
10945 On ch=1 n=d#5 v=0
10948 On ch=1 n=b3 v=127
10959 On ch=1 n=b3 v=0
10967 On ch=1 n=b4 v=127
10975 On ch=1 n=b4 v=0
10984 On ch=1 n=a3 v=127
10994 On ch=1 n=a3 v=0
10997 On ch=1 n=c5 v=127
11008 On ch=1 n=c5 v=0
11016 On ch=1 n=c4 v=127
11016 On ch=1 n=e4 v=127
11033 On ch=1 n=e4 v=0
11033 On ch=1 n=c4 v=0
11033 On ch=1 n=d#5 v=127
11033 On ch=1 n=f#5 v=125
11033 On ch=1 n=a4 v=127
11049 On ch=1 n=f#5 v=0
11049 On ch=1 n=b3 v=127
11049 On ch=1 n=e4 v=127
11052 On ch=1 n=a4 v=0
11052 On ch=1 n=d#5 v=0
11066 On ch=1 n=b3 v=0
11066 On ch=1 n=e4 v=0
11066 On ch=1 n=d#5 v=127
11069 On ch=1 n=b4 v=127
11069 On ch=1 n=f#5 v=127
11079 On ch=1 n=f#5 v=0
11079 On ch=1 n=b4 v=0
11079 On ch=1 n=d#5 v=0
11082 On ch=1 n=a3 v=127
11082 On ch=1 n=e4 v=127
11096 On ch=1 n=e4 v=0
11096 On ch=1 n=a3 v=0
11099 On ch=1 n=c5 v=127
11099 On ch=1 n=d#5 v=127
11115 On ch=1 n=d#5 v=0
11115 On ch=1 n=c5 v=0
11131 On ch=1 n=e5 v=125
11131 On ch=1 n=b3 v=127
11131 On ch=1 n=g#4 v=127
11131 On ch=1 n=g#5 v=125
11140 On ch=1 n=e4 v=125
11140 On ch=1 n=e3 v=127
11150 On ch=1 n=e5 v=127
11150 On ch=1 n=e4 v=127
11158 On ch=1 n=e5 v=0
11158 On ch=1 n=e5 v=0
11159 On ch=1 n=e4 v=0
11167 On ch=1 n=e4 v=0
11167 On ch=1 n=b5 v=127
11167 On ch=1 n=g5 v=127
11167 On ch=1 n=e6 v=127
11169 On ch=1 n=b3 v=0
11172 On ch=1 n=g#4 v=0
11176 On ch=1 n=g#5 v=0
11181 On ch=1 n=e3 v=0
11184 On ch=1 n=b5 v=0
11184 On ch=1 n=g5 v=0
11184 On ch=1 n=d#5 v=127
11186 On ch=1 n=e6 v=0
11186 On ch=1 n=e4 v=127
11197 On ch=1 n=e4 v=0
11197 On ch=1 n=d#5 v=0
11203 On ch=1 n=f6 v=127
11203 On ch=1 n=a5 v=127
11203 On ch=1 n=c6 v=127
11219 On ch=1 n=c6 v=0
11219 On ch=1 n=a5 v=0
11219 On ch=1 n=e4 v=127
11219 On ch=1 n=d5 v=127
11222 On ch=1 n=f6 v=0
11238 On ch=1 n=d5 v=0
11238 On ch=1 n=e4 v=0
11238 On ch=1 n=d6 v=127
11238 On ch=1 n=f6 v=127
11238 On ch=1 n=a#6 v=127
11255 On ch=1 n=e4 v=127
11255 On ch=1 n=d5 v=127
11266 On ch=1 n=a#6 v=0
11266 On ch=1 n=d6 v=0
11266 On ch=1 n=f6 v=0
11272 On ch=1 n=e4 v=0
11272 On ch=1 n=e7 v=127
11274 On ch=1 n=d5 v=0
11274 On ch=1 n=b6 v=127
11274 On ch=1 n=g6 v=127
11288 On ch=1 n=g6 v=0
11291 On ch=1 n=b6 v=0
11291 On ch=1 n=e7 v=0
11291 On ch=1 n=c#5 v=127
11291 On ch=1 n=e4 v=127
11307 On ch=1 n=e4 v=0
11307 On ch=1 n=c#5 v=0
11310 On ch=1 n=a7 v=127
11310 On ch=1 n=e7 v=127
11310 On ch=1 n=c#7 v=127
11320 On ch=1 n=c#7 v=0
11320 On ch=1 n=e7 v=0
11320 On ch=1 n=a7 v=0
11320 On ch=1 n=e4 v=127
11320 On ch=1 n=c5 v=127
11340 On ch=1 n=d8 v=127
11340 On ch=1 n=a7 v=127
11340 On ch=1 n=f#7 v=127
11342 On ch=1 n=c5 v=0
11342 On ch=1 n=e4 v=0
11357 On ch=1 n=d8 v=0
11357 On ch=1 n=c5 v=127
11357 On ch=1 n=e4 v=127
11361 On ch=1 n=a7 v=0
11362 On ch=1 n=f#7 v=0
11373 On ch=1 n=c5 v=0
11373 On ch=1 n=e4 v=0
11373 On ch=1 n=g5 v=125
11373 On ch=1 n=e6 v=127
11373 On ch=1 n=b5 v=125
11389 On ch=1 n=b5 v=0
11389 On ch=1 n=g5 v=0
11389 On ch=1 n=b4 v=127
11389 On ch=1 n=e4 v=127
11392 On ch=1 n=e6 v=0
11403 On ch=1 n=e4 v=0
11404 On ch=1 n=b4 v=0
11408 On ch=1 n=g6 v=127
11408 On ch=1 n=d6 v=127
11408 On ch=1 n=b5 v=127
11423 On ch=1 n=b5 v=0
11425 On ch=1 n=d6 v=0
11425 On ch=1 n=g6 v=0
11425 On ch=1 n=e4 v=127
11425 On ch=1 n=a#4 v=127
11441 On ch=1 n=a#4 v=0
11441 On ch=1 n=e4 v=0
11445 On ch=1 n=e6 v=121
11445 On ch=1 n=g6 v=125
11445 On ch=1 n=c7 v=127
11461 On ch=1 n=e4 v=127
11461 On ch=1 n=a4 v=127
11463 On ch=1 n=c7 v=0
11463 On ch=1 n=e6 v=0
11463 On ch=1 n=g6 v=0
11477 On ch=1 n=e4 v=0
11477 On ch=1 n=a4 v=0
11477 On ch=1 n=c7 v=127
11477 On ch=1 n=f7 v=127
11477 On ch=1 n=a6 v=127
11491 On ch=1 n=a6 v=0
11491 On ch=1 n=c7 v=0
11494 On ch=1 n=f7 v=0
11494 On ch=1 n=e4 v=127
11494 On ch=1 n=a4 v=125
11511 On ch=1 n=b7 v=127
11511 On ch=1 n=d#7 v=127
11511 On ch=1 n=f#7 v=127
11513 On ch=1 n=a4 v=0
11513 On ch=1 n=e4 v=0
11529 On ch=1 n=e4 v=127
11529 On ch=1 n=g#4 v=127
11533 On ch=1 n=f#7 v=0
11533 On ch=1 n=b7 v=0
11535 On ch=1 n=d#7 v=0
11546 On ch=1 n=b7 v=127
11546 On ch=1 n=e8 v=127
11546 On ch=1 n=e7 v=127
11548 On ch=1 n=e4 v=0
11551 On ch=1 n=g#4 v=0
11562 On ch=1 n=e3 v=127
11562 On ch=1 n=g4 v=127
11568 On ch=1 n=e8 v=0
11568 On ch=1 n=b7 v=0
11570 On ch=1 n=e7 v=0
11577 On ch=1 n=e3 v=0
11579 On ch=1 n=g4 v=0
11581 On ch=1 n=c#5 v=127
11581 On ch=1 n=a5 v=127
11581 On ch=1 n=e5 v=121
11599 On ch=1 n=f#4 v=127
11601 On ch=1 n=e3 v=97
11606 On ch=1 n=e5 v=0
11606 On ch=1 n=c#5 v=0
11609 On ch=1 n=a5 v=0
11614 On ch=1 n=d6 v=127
11614 On ch=1 n=f#5 v=125
11617 On ch=1 n=e3 v=0
11617 On ch=1 n=f#4 v=0
11617 On ch=1 n=a5 v=127
11625 On ch=1 n=f#5 v=0
11628 On ch=1 n=a5 v=0
11634 On ch=1 n=d6 v=0
11634 On ch=1 n=f4 v=127
11634 On ch=1 n=e3 v=105
11650 On ch=1 n=d6 v=125
11650 On ch=1 n=b5 v=121
11650 On ch=1 n=g6 v=127
11653 On ch=1 n=e3 v=0
11653 On ch=1 n=f4 v=0
11667 On ch=1 n=e3 v=127
11667 On ch=1 n=e4 v=127
11669 On ch=1 n=b5 v=0
11672 On ch=1 n=g6 v=0
11672 On ch=1 n=d6 v=0
11683 On ch=1 n=e3 v=0
11683 On ch=1 n=e4 v=0
11683 On ch=1 n=e6 v=127
11683 On ch=1 n=g6 v=127
11683 On ch=1 n=c7 v=127
11700 On ch=1 n=g6 v=0
11700 On ch=1 n=e6 v=0
11702 On ch=1 n=c7 v=0
11702 On ch=1 n=e3 v=127
11702 On ch=1 n=d#4 v=127
11716 On ch=1 n=d#4 v=0
11716 On ch=1 n=e3 v=0
11719 On ch=1 n=f7 v=127
11719 On ch=1 n=a6 v=127
11722 On ch=1 n=c7 v=121
11732 On ch=1 n=c7 v=0
11732 On ch=1 n=f7 v=0
11732 On ch=1 n=e3 v=127
11732 On ch=1 n=d4 v=127
11735 On ch=1 n=a6 v=0
11750 On ch=1 n=d4 v=0
11750 On ch=1 n=e3 v=0
11750 On ch=1 n=f7 v=127
11750 On ch=1 n=a#7 v=127
11750 On ch=1 n=a#6 v=127
11768 On ch=1 n=e3 v=125
11768 On ch=1 n=d4 v=127
11771 On ch=1 n=a#7 v=0
11771 On ch=1 n=f7 v=0
11774 On ch=1 n=a#6 v=0
11785 On ch=1 n=e3 v=0
11785 On ch=1 n=d4 v=0
11785 On ch=1 n=g#4 v=127
11787 On ch=1 n=b4 v=127
11787 On ch=1 n=e5 v=125
11804 On ch=1 n=e5 v=0
11804 On ch=1 n=b4 v=0
11804 On ch=1 n=g#4 v=0
11804 On ch=1 n=e3 v=125
11804 On ch=1 n=c#4 v=127
11820 On ch=1 n=c#4 v=0
11820 On ch=1 n=e3 v=0
11820 On ch=1 n=a5 v=127
11823 On ch=1 n=c#5 v=127
11823 On ch=1 n=e5 v=127
11840 On ch=1 n=c4 v=121
11842 On ch=1 n=e3 v=121
11845 On ch=1 n=e5 v=0
11845 On ch=1 n=a5 v=0
11845 On ch=1 n=c#5 v=0
11856 On ch=1 n=c4 v=0
11859 On ch=1 n=e3 v=0
11859 On ch=1 n=a5 v=127
11859 On ch=1 n=f#5 v=127
11859 On ch=1 n=d6 v=127
11869 On ch=1 n=f#5 v=0
11869 On ch=1 n=a5 v=0
11872 On ch=1 n=e3 v=127
11872 On ch=1 n=b3 v=127
11875 On ch=1 n=d6 v=0
11886 On ch=1 n=b3 v=0
11886 On ch=1 n=e3 v=0
11889 On ch=1 n=b5 v=127
11889 On ch=1 n=d6 v=127
11889 On ch=1 n=g6 v=127
11908 On ch=1 n=b5 v=0
11908 On ch=1 n=b3 v=127
11911 On ch=1 n=g6 v=0
11911 On ch=1 n=d6 v=0
11911 On ch=1 n=e3 v=127
11925 On ch=1 n=e3 v=0
11925 On ch=1 n=b3 v=0
11927 On ch=1 n=e6 v=121
11927 On ch=1 n=g6 v=127
11927 On ch=1 n=c7 v=127
11943 On ch=1 n=e3 v=125
11947 On ch=1 n=a3 v=109
11949 On ch=1 n=c7 v=0
11949 On ch=1 n=e6 v=0
11949 On ch=1 n=g6 v=0
11963 On ch=1 n=e3 v=0
11963 On ch=1 n=f6 v=127
11963 On ch=1 n=f7 v=127
11963 On ch=1 n=c7 v=127
11965 On ch=1 n=a3 v=0
11979 On ch=1 n=f7 v=0
11982 On ch=1 n=f6 v=0
11982 On ch=1 n=c7 v=0
11982 On ch=1 n=e3 v=125
11982 On ch=1 n=a3 v=127
11998 On ch=1 n=a3 v=0
11998 On ch=1 n=e3 v=0
12001 On ch=1 n=d#6 v=127
12001 On ch=1 n=b6 v=127
12001 On ch=1 n=f#6 v=127
12018 On ch=1 n=f#6 v=0
12018 On ch=1 n=b6 v=0
12018 On ch=1 n=d#6 v=0
12018 On ch=1 n=g#3 v=127
12018 On ch=1 n=e3 v=125
12028 On ch=1 n=g#3 v=0
12033 On ch=1 n=e3 v=0
12033 On ch=1 n=e7 v=127
12033 On ch=1 n=b6 v=127
12034 On ch=1 n=e6 v=127
12050 On ch=1 n=g3 v=117
12050 On ch=1 n=e3 v=121
12053 On ch=1 n=e6 v=0
12053 On ch=1 n=e7 v=0
12053 On ch=1 n=b6 v=0
12067 On ch=1 n=g3 v=0
12067 On ch=1 n=e3 v=0
12070 On ch=1 n=c#6 v=125
12070 On ch=1 n=e6 v=127
12070 On ch=1 n=a6 v=125
12080 On ch=1 n=f#3 v=127
12083 On ch=1 n=e3 v=125
12086 On ch=1 n=e6 v=0
12086 On ch=1 n=c#6 v=0
12089 On ch=1 n=a6 v=0
12097 On ch=1 n=f#3 v=0
12097 On ch=1 n=e3 v=0
12100 On ch=1 n=d7 v=127
12100 On ch=1 n=d6 v=127
12100 On ch=1 n=a6 v=127
12119 On ch=1 n=a6 v=0
12119 On ch=1 n=e3 v=127
12119 On ch=1 n=f3 v=127
12121 On ch=1 n=d6 v=0
12121 On ch=1 n=d7 v=0
12135 On ch=1 n=f3 v=0
12138 On ch=1 n=e3 v=0
12139 On ch=1 n=g6 v=127
12139 On ch=1 n=d6 v=127
12139 On ch=1 n=b5 v=121
12157 On ch=1 n=e3 v=127
12165 On ch=1 n=b5 v=0
12165 On ch=1 n=g6 v=0
12165 On ch=1 n=d6 v=0
12171 On ch=1 n=e3 v=0
12174 On ch=1 n=c6 v=127
12174 On ch=1 n=g6 v=127
12176 On ch=1 n=c7 v=127
12193 On ch=1 n=e3 v=127
12193 On ch=1 n=d#3 v=127
12196 On ch=1 n=c7 v=0
12196 On ch=1 n=c6 v=0
12196 On ch=1 n=g6 v=0
12206 On ch=1 n=d#3 v=0
12209 On ch=1 n=e3 v=0
12209 On ch=1 n=c6 v=127
12212 On ch=1 n=f6 v=127
12212 On ch=1 n=a5 v=127
12228 On ch=1 n=d3 v=125
12231 On ch=1 n=a5 v=0
12231 On ch=1 n=f6 v=0
12231 On ch=1 n=e3 v=125
12234 On ch=1 n=c6 v=0
12246 On ch=1 n=e3 v=0
12248 On ch=1 n=d3 v=0
12250 On ch=1 n=a#5 v=127
12250 On ch=1 n=f6 v=127
12250 On ch=1 n=a#6 v=127
12268 On ch=1 n=d3 v=121
12268 On ch=1 n=e3 v=121
12278 On ch=1 n=a#6 v=0
12278 On ch=1 n=a#5 v=0
12278 On ch=1 n=f6 v=0
12283 On ch=1 n=d3 v=0
12283 On ch=1 n=e3 v=0
12286 On ch=1 n=f5 v=127
12286 On ch=1 n=a#5 v=127
12305 On ch=1 n=a#2 v=125
12308 On ch=1 n=d3 v=121
12308 On ch=1 n=e3 v=97
12312 On ch=1 n=a#5 v=0
12312 On ch=1 n=f5 v=0
12327 On ch=1 n=a#2 v=0
12327 On ch=1 n=f5 v=127
12327 On ch=1 n=d5 v=121
12327 On ch=1 n=d6 v=127
12330 On ch=1 n=d3 v=0
12333 On ch=1 n=e3 v=0
12343 On ch=1 n=d5 v=0
12343 On ch=1 n=d6 v=0
12346 On ch=1 n=e3 v=125
12346 On ch=1 n=d3 v=127
12349 On ch=1 n=f5 v=0
12365 On ch=1 n=d3 v=0
12365 On ch=1 n=b5 v=125
12365 On ch=1 n=f5 v=127
12365 On ch=1 n=d5 v=121
12368 On ch=1 n=e3 v=0
12387 On ch=1 n=b5 v=0
12387 On ch=1 n=f5 v=0
12387 On ch=1 n=d5 v=0
12390 On ch=1 n=d3 v=97
12390 On ch=1 n=f2 v=127
12393 On ch=1 n=e3 v=89
12407 On ch=1 n=e3 v=0
12407 On ch=1 n=f2 v=0
12409 On ch=1 n=d3 v=0
12412 On ch=1 n=a#4 v=127
12412 On ch=1 n=f5 v=127
12412 On ch=1 n=d5 v=127
12431 On ch=1 n=d5 v=0
12431 On ch=1 n=f5 v=0
12431 On ch=1 n=a#4 v=0
12431 On ch=1 n=d3 v=125
12431 On ch=1 n=e3 v=101
12453 On ch=1 n=e3 v=0
12453 On ch=1 n=d3 v=0
12453 On ch=1 n=f4 v=127
12453 On ch=1 n=d5 v=117
12453 On ch=1 n=a#4 v=127
12473 On ch=1 n=f4 v=0
12475 On ch=1 n=d5 v=0
12475 On ch=1 n=e3 v=85
12475 On ch=1 n=d3 v=127
12475 On ch=1 n=a#2 v=127
12478 On ch=1 n=a#4 v=0
12497 On ch=1 n=e3 v=0
12497 On ch=1 n=d3 v=0
12497 On ch=1 n=a#2 v=0
12500 On ch=1 n=a#4 v=127
12500 On ch=1 n=d4 v=127
12500 On ch=1 n=f4 v=127
12519 On ch=1 n=a#4 v=0
12519 On ch=1 n=e3 v=113
12519 On ch=1 n=d3 v=127
12522 On ch=1 n=f4 v=0
12522 On ch=1 n=d4 v=0
12544 On ch=1 n=e3 v=0
12544 On ch=1 n=d3 v=0
12544 On ch=1 n=a#3 v=127
12563 On ch=1 n=f2 v=125
12563 On ch=1 n=d3 v=125
12566 On ch=1 n=a#3 v=0
12566 On ch=1 n=e3 v=105
12585 On ch=1 n=f2 v=0
12588 On ch=1 n=e3 v=0
12588 On ch=1 n=d3 v=0
12588 On ch=1 n=a#3 v=125
12588 On ch=1 n=a#4 v=127
12588 On ch=1 n=d4 v=127
12610 On ch=1 n=e3 v=81
12610 On ch=1 n=d3 v=117
12613 On ch=1 n=d4 v=0
12613 On ch=1 n=a#3 v=0
12616 On ch=1 n=a#4 v=0
12626 On ch=1 n=d3 v=0
12626 On ch=1 n=e3 v=0
12629 On ch=1 n=a#3 v=89
12632 On ch=1 n=f4 v=121
12632 On ch=1 n=d4 v=127
12654 On ch=1 n=d4 v=0
12654 On ch=1 n=f4 v=0
12654 On ch=1 n=a#3 v=0
12654 On ch=1 n=d3 v=125
12654 On ch=1 n=e3 v=89
12654 On ch=1 n=b2 v=125
12673 On ch=1 n=b2 v=0
12676 On ch=1 n=d3 v=0
12676 On ch=1 n=b3 v=127
12676 On ch=1 n=d4 v=127
12678 On ch=1 n=g4 v=127
12679 On ch=1 n=e3 v=0
12679 On ch=1 n=b4 v=117
12703 On ch=1 n=e3 v=97
12703 On ch=1 n=d3 v=125
12709 On ch=1 n=b4 v=0
12709 On ch=1 n=b3 v=0
12709 On ch=1 n=g4 v=0
12709 On ch=1 n=d4 v=0
12725 On ch=1 n=d3 v=0
12725 On ch=1 n=e3 v=0
12725 On ch=1 n=f4 v=127
12728 On ch=1 n=b3 v=109
12728 On ch=1 n=d4 v=125
12752 On ch=1 n=f2 v=121
12755 On ch=1 n=e3 v=101
12755 On ch=1 n=d3 v=97
12758 On ch=1 n=b3 v=0
12761 On ch=1 n=d4 v=0
12763 On ch=1 n=f4 v=0
12777 On ch=1 n=e3 v=0
12777 On ch=1 n=b3 v=113
12777 On ch=1 n=d4 v=127
12779 On ch=1 n=f2 v=0
12780 On ch=1 n=d3 v=0
12780 On ch=1 n=b4 v=127
12780 On ch=1 n=a4 v=113
12802 On ch=1 n=e3 v=101
12805 On ch=1 n=d3 v=127
12807 On ch=1 n=b3 v=0
12807 On ch=1 n=d4 v=0
12811 On ch=1 n=a4 v=0
12811 On ch=1 n=b4 v=0
12827 On ch=1 n=d3 v=0
12829 On ch=1 n=e3 v=0
12829 On ch=1 n=b3 v=113
12829 On ch=1 n=d4 v=127
12829 On ch=1 n=f4 v=127
12855 On ch=1 n=e3 v=121
12855 On ch=1 n=d#3 v=127
12857 On ch=1 n=f2 v=85
12857 On ch=1 n=b2 v=127
12860 On ch=1 n=d4 v=0
12860 On ch=1 n=b3 v=0
12865 On ch=1 n=f4 v=0
12882 On ch=1 n=d#3 v=0
12882 On ch=1 n=e3 v=0
12882 On ch=1 n=f2 v=0
12882 On ch=1 n=b2 v=0
12882 On ch=1 n=b4 v=127
12882 On ch=1 n=a4 v=127
12882 On ch=1 n=b3 v=125
12883 On ch=1 n=d4 v=127
12912 On ch=1 n=e3 v=117
12912 On ch=1 n=d#3 v=127
12926 On ch=1 n=d4 v=0
12926 On ch=1 n=b3 v=0
12926 On ch=1 n=b4 v=0
12926 On ch=1 n=a4 v=0
12936 On ch=1 n=d#3 v=0
12936 On ch=1 n=e3 v=0
12936 On ch=1 n=d4 v=127
12936 On ch=1 n=b3 v=127
12969 On ch=1 n=b3 v=0
12969 On ch=1 n=d4 v=0
12981 On ch=1 n=g#4 v=127
12981 On ch=1 n=b2 v=127
12981 On ch=1 n=e2 v=125
12981 On ch=1 n=e5 v=127
12981 On ch=1 n=e3 v=127
12999 On ch=1 n=e3 v=127
13011 On ch=1 n=e3 v=0
13011 On ch=1 n=e5 v=0
13011 On ch=1 n=e3 v=0
13021 On ch=1 n=e4 v=127
13027 On ch=1 n=e4 v=0
13041 On ch=1 n=e4 v=127
13061 On ch=1 n=e5 v=127
13063 On ch=1 n=e4 v=0
13068 On ch=1 n=e5 v=0
13079 On ch=1 n=e5 v=117
13085 On ch=1 n=g#4 v=0
13085 On ch=1 n=e2 v=0
13087 On ch=1 n=b2 v=0
13087 On ch=1 n=e5 v=0
13098 On ch=1 n=e6 v=127
13105 On ch=1 n=e6 v=0
13115 On ch=1 n=e6 v=125
13131 On ch=1 n=e7 v=127
13134 On ch=1 n=e6 v=0
13139 On ch=1 n=e7 v=0
13150 On ch=1 n=e7 v=125
13167 On ch=1 n=e8 v=127
13170 On ch=1 n=e7 v=0
13175 On ch=1 n=e8 v=0
13186 On ch=1 n=e7 v=97
13186 On ch=1 n=d7 v=121
13200 On ch=1 n=d7 v=0
13200 On ch=1 n=e7 v=0
13203 On ch=1 n=e8 v=127
13203 On ch=1 n=d8 v=127
13205 On ch=1 n=d8 v=0
13205 On ch=1 n=e8 v=0
13222 On ch=1 n=d6 v=97
13222 On ch=1 n=e6 v=117
13238 On ch=1 n=e6 v=0
13238 On ch=1 n=d6 v=0
13238 On ch=1 n=d7 v=127
13241 On ch=1 n=e7 v=127
13244 On ch=1 n=e7 v=0
13244 On ch=1 n=d7 v=0
13259 On ch=1 n=d5 v=105
13260 On ch=1 n=e5 v=97
13274 On ch=1 n=e5 v=0
13274 On ch=1 n=d5 v=0
13274 On ch=1 n=d6 v=127
13277 On ch=1 n=d6 v=0
13277 On ch=1 n=e6 v=127
13278 On ch=1 n=e6 v=0
13293 On ch=1 n=e4 v=101
13293 On ch=1 n=d4 v=117
13310 On ch=1 n=d4 v=0
13310 On ch=1 n=e4 v=0
13310 On ch=1 n=d5 v=125
13310 On ch=1 n=e5 v=127
13315 On ch=1 n=d5 v=0
13318 On ch=1 n=e5 v=0
13332 On ch=1 n=d3 v=109
13332 On ch=1 n=e3 v=105
13348 On ch=1 n=e3 v=0
13348 On ch=1 n=d3 v=0
13348 On ch=1 n=e4 v=127
13348 On ch=1 n=d4 v=127
13351 On ch=1 n=d4 v=0
13354 On ch=1 n=e4 v=0
13365 On ch=1 n=d4 v=127
13368 On ch=1 n=e4 v=127
13384 On ch=1 n=e4 v=0
13384 On ch=1 n=d4 v=0
13384 On ch=1 n=d5 v=127
13384 On ch=1 n=e5 v=127
13391 On ch=1 n=e5 v=0
13391 On ch=1 n=d5 v=0
13401 On ch=1 n=c3 v=101
13401 On ch=1 n=e3 v=117
13417 On ch=1 n=e3 v=0
13417 On ch=1 n=c3 v=0
13417 On ch=1 n=c4 v=127
13420 On ch=1 n=e4 v=127
13422 On ch=1 n=c4 v=0
13425 On ch=1 n=e4 v=0
13439 On ch=1 n=e4 v=125
13439 On ch=1 n=c4 v=121
13456 On ch=1 n=c4 v=0
13458 On ch=1 n=e4 v=0
13458 On ch=1 n=e5 v=127
13458 On ch=1 n=c5 v=127
13461 On ch=1 n=c5 v=0
13464 On ch=1 n=e5 v=0
13478 On ch=1 n=e5 v=113
13478 On ch=1 n=c5 v=97
13494 On ch=1 n=c5 v=0
13494 On ch=1 n=e5 v=0
13494 On ch=1 n=e6 v=127
13494 On ch=1 n=c6 v=127
13499 On ch=1 n=c6 v=0
13500 On ch=1 n=e6 v=0
13510 On ch=1 n=e6 v=109
13510 On ch=1 n=c6 v=109
13527 On ch=1 n=c6 v=0
13527 On ch=1 n=e6 v=0
13527 On ch=1 n=e7 v=127
13527 On ch=1 n=c7 v=127
13529 On ch=1 n=c7 v=0
13529 On ch=1 n=e7 v=0
13546 On ch=1 n=c7 v=125
13546 On ch=1 n=e7 v=125
13562 On ch=1 n=e7 v=0
13562 On ch=1 n=c8 v=127
13562 On ch=1 n=e8 v=127
13564 On ch=1 n=c7 v=0
13565 On ch=1 n=e8 v=0
13565 On ch=1 n=c8 v=0
13581 On ch=1 n=c6 v=89
13585 On ch=1 n=e6 v=97
13585 On ch=1 n=d6 v=97
13587 On ch=1 n=d6 v=0
13598 On ch=1 n=c7 v=127
13601 On ch=1 n=e6 v=0
13601 On ch=1 n=e7 v=127
13604 On ch=1 n=e7 v=0
13604 On ch=1 n=c7 v=0
13604 On ch=1 n=c6 v=0
13614 On ch=1 n=e6 v=105
13614 On ch=1 n=b5 v=105
13631 On ch=1 n=b6 v=127
13631 On ch=1 n=e7 v=127
13633 On ch=1 n=b5 v=0
13633 On ch=1 n=e6 v=0
13639 On ch=1 n=b6 v=0
13639 On ch=1 n=e7 v=0
13650 On ch=1 n=e5 v=97
13650 On ch=1 n=b4 v=117
13670 On ch=1 n=b4 v=0
13670 On ch=1 n=e5 v=0
13670 On ch=1 n=b5 v=127
13670 On ch=1 n=e6 v=127
13677 On ch=1 n=b5 v=0
13680 On ch=1 n=e6 v=0
13686 On ch=1 n=b3 v=117
13688 On ch=1 n=e4 v=125
13705 On ch=1 n=b4 v=127
13705 On ch=1 n=e5 v=127
13708 On ch=1 n=e4 v=0
13708 On ch=1 n=b3 v=0
13714 On ch=1 n=b4 v=0
13716 On ch=1 n=e5 v=0
13727 On ch=1 n=b2 v=105
13727 On ch=1 n=e3 v=101
13743 On ch=1 n=e4 v=127
13743 On ch=1 n=b3 v=127
13746 On ch=1 n=e3 v=0
13746 On ch=1 n=b2 v=0
13752 On ch=1 n=b3 v=0
13754 On ch=1 n=e4 v=0
13765 On ch=1 n=e3 v=101
13765 On ch=1 n=a#2 v=125
13782 On ch=1 n=a#2 v=0
13782 On ch=1 n=e3 v=0
13782 On ch=1 n=a#3 v=127
13785 On ch=1 n=e4 v=125
13787 On ch=1 n=a#3 v=0
13790 On ch=1 n=e4 v=0
13802 On ch=1 n=e4 v=89
13802 On ch=1 n=a#3 v=121
13817 On ch=1 n=a#4 v=127
13820 On ch=1 n=a#3 v=0
13820 On ch=1 n=e5 v=127
13823 On ch=1 n=e4 v=0
13824 On ch=1 n=a#4 v=0
13826 On ch=1 n=e5 v=0
13831 On ch=1 n=a4 v=121
13834 On ch=1 n=a2 v=117
13834 On ch=1 n=c5 v=121
13837 On ch=1 n=a3 v=127
13839 Par ch=1 c=64 v=127
13839 On ch=1 n=e5 v=125
13842 On ch=1 n=a4 v=0
13845 On ch=1 n=c5 v=0
13850 On ch=1 n=a2 v=0
13853 On ch=1 n=e5 v=0
13853 On ch=1 n=a3 v=0
13856 On ch=1 n=a5 v=127
13872 On ch=1 n=a5 v=0
13872 On ch=1 n=g#5 v=127
13881 On ch=1 n=g#5 v=0
13886 On ch=1 n=a3 v=125
13890 On ch=1 n=e4 v=127
13890 Par ch=1 c=64 v=0
13890 On ch=1 n=e5 v=127
13892 On ch=1 n=a5 v=125
13892 On ch=1 n=a4 v=125
13894 On ch=1 n=e5 v=0
13905 Par ch=1 c=64 v=127
13908 On ch=1 n=a5 v=0
13908 On ch=1 n=c6 v=127
13912 On ch=1 n=a3 v=0
13914 On ch=1 n=e4 v=0
13916 On ch=1 n=a4 v=0
13922 On ch=1 n=c6 v=0
13925 On ch=1 n=b5 v=127
13927 On ch=1 n=b5 v=0
13936 On ch=1 n=a3 v=127
13936 Par ch=1 c=64 v=0
13938 On ch=1 n=e4 v=125
13941 On ch=1 n=c6 v=127
13941 On ch=1 n=a5 v=127
13944 On ch=1 n=a4 v=125
13949 On ch=1 n=a5 v=0
13955 Par ch=1 c=64 v=127
13957 On ch=1 n=c6 v=0
13957 On ch=1 n=e6 v=125
13963 On ch=1 n=a3 v=0
13963 On ch=1 n=e4 v=0
13966 On ch=1 n=a4 v=0
13974 On ch=1 n=e6 v=0
13977 On ch=1 n=d#6 v=127
13979 On ch=1 n=d#6 v=0
13985 On ch=1 n=a3 v=127
13988 Par ch=1 c=64 v=0
13988 On ch=1 n=e4 v=127
13990 On ch=1 n=c6 v=127
13993 On ch=1 n=a4 v=127
13993 On ch=1 n=e6 v=127
13999 On ch=1 n=c6 v=0
14001 Par ch=1 c=64 v=127
14007 On ch=1 n=e6 v=0
14010 On ch=1 n=a6 v=121
14012 On ch=1 n=a3 v=0
14012 On ch=1 n=a4 v=0
14012 On ch=1 n=e4 v=0
14023 On ch=1 n=a6 v=0
14026 On ch=1 n=g#6 v=127
14029 On ch=1 n=g#6 v=0
14034 On ch=1 n=a3 v=125
14037 On ch=1 n=e6 v=127
14037 On ch=1 n=e4 v=125
14040 On ch=1 n=a4 v=125
14040 On ch=1 n=a6 v=121
14040 Par ch=1 c=64 v=0
14048 On ch=1 n=e6 v=0
14059 On ch=1 n=a6 v=0
14059 On ch=1 n=c7 v=127
14073 On ch=1 n=b6 v=125
14076 On ch=1 n=c7 v=0
14079 On ch=1 n=b6 v=0
14090 On ch=1 n=a3 v=0
14090 On ch=1 n=e4 v=0
14090 On ch=1 n=a6 v=127
14092 On ch=1 n=a4 v=0
14092 On ch=1 n=c7 v=125
14098 On ch=1 n=a6 v=0
14109 On ch=1 n=c7 v=0
14109 On ch=1 n=e7 v=125
14119 On ch=1 n=d#7 v=127
14122 On ch=1 n=e7 v=0
14125 On ch=1 n=d#7 v=0
14136 On ch=1 n=e7 v=127
14136 On ch=1 n=c7 v=127
14144 On ch=1 n=c7 v=0
14153 On ch=1 n=e7 v=0
14153 On ch=1 n=a7 v=127
14163 On ch=1 n=a7 v=0
14163 On ch=1 n=g#7 v=127
14172 On ch=1 n=g#7 v=0
14177 On ch=1 n=a3 v=127
14180 On ch=1 n=e7 v=89
14180 On ch=1 n=e4 v=127
14183 Par ch=1 c=64 v=127
14183 On ch=1 n=a7 v=127
14183 On ch=1 n=a4 v=127
14188 On ch=1 n=e4 v=0
14188 On ch=1 n=a3 v=0
14194 On ch=1 n=a4 v=0
14196 On ch=1 n=e7 v=0
14199 On ch=1 n=c8 v=127
14201 On ch=1 n=a7 v=0
14212 On ch=1 n=c8 v=0
14212 On ch=1 n=b7 v=127
14218 On ch=1 n=b7 v=0
14223 On ch=1 n=a3 v=127
14223 Par ch=1 c=64 v=0
14226 On ch=1 n=e4 v=127
14229 On ch=1 n=a7 v=121
14229 On ch=1 n=c8 v=127
14232 On ch=1 n=a4 v=127
14237 Par ch=1 c=64 v=127
14238 On ch=1 n=a3 v=0
14240 On ch=1 n=e4 v=0
14243 On ch=1 n=a4 v=0
14243 On ch=1 n=a7 v=0
14245 On ch=1 n=e8 v=125
14248 On ch=1 n=c8 v=0
14262 On ch=1 n=e8 v=0
14262 On ch=1 n=d#8 v=127
14270 Par ch=1 c=64 v=0
14273 On ch=1 n=a3 v=127
14276 On ch=1 n=e4 v=125
14278 On ch=1 n=d#8 v=0
14278 On ch=1 n=f8 v=127
14278 On ch=1 n=a4 v=127
14278 On ch=1 n=c8 v=127
14278 On ch=1 n=a7 v=127
14282 On ch=1 n=a3 v=0
14282 Par ch=1 c=64 v=127
14284 On ch=1 n=e4 v=0
14287 On ch=1 n=a4 v=0
14289 On ch=1 n=a7 v=0
14295 On ch=1 n=e8 v=127
14298 On ch=1 n=f8 v=0
14298 On ch=1 n=c8 v=0
14309 On ch=1 n=d#8 v=127
14311 On ch=1 n=e8 v=0
14317 On ch=1 n=a3 v=125
14320 On ch=1 n=a3 v=105
14325 On ch=1 n=c8 v=127
14325 On ch=1 n=f8 v=127
14325 On ch=1 n=e4 v=127
14328 On ch=1 n=e4 v=0
14328 On ch=1 n=d#8 v=0
14328 On ch=1 n=a3 v=0
14328 On ch=1 n=a7 v=127
14328 On ch=1 n=a4 v=127
14331 On ch=1 n=a4 v=0
14342 On ch=1 n=f8 v=0
14342 On ch=1 n=e8 v=127
14344 On ch=1 n=c8 v=0
14344 On ch=1 n=a7 v=0
14347 On ch=1 n=a3 v=0
14355 On ch=1 n=d#8 v=127
14358 On ch=1 n=e8 v=0
14372 On ch=1 n=a7 v=127
14372 On ch=1 n=c8 v=127
14372 On ch=1 n=f8 v=127
14375 On ch=1 n=d#8 v=0
14375 Par ch=1 c=64 v=0
14385 On ch=1 n=f8 v=0
14385 On ch=1 n=e8 v=127
14388 On ch=1 n=c8 v=0
14388 On ch=1 n=a7 v=0
14400 On ch=1 n=d#8 v=127
14404 On ch=1 n=e8 v=0
14413 On ch=1 n=f7 v=127
14413 On ch=1 n=a#7 v=127
14413 On ch=1 n=d3 v=127
14413 On ch=1 n=f8 v=127
14415 Par ch=1 c=64 v=127
14418 On ch=1 n=d3 v=0
14426 On ch=1 n=d#8 v=0
14432 On ch=1 n=a#7 v=0
14432 On ch=1 n=d8 v=127
14437 On ch=1 n=f7 v=0
14446 On ch=1 n=c#8 v=127
14451 On ch=1 n=f8 v=0
14459 On ch=1 n=d8 v=0
14462 On ch=1 n=a4 v=125
14462 On ch=1 n=a#4 v=127
14462 Par ch=1 c=64 v=0
14462 On ch=1 n=f5 v=121
14462 On ch=1 n=a#7 v=127
14466 On ch=1 n=c#8 v=0
14476 On ch=1 n=a#7 v=0
14476 On ch=1 n=a7 v=127
14479 On ch=1 n=a4 v=0
14479 On ch=1 n=f5 v=0
14479 On ch=1 n=a#4 v=0
14489 On ch=1 n=a7 v=0
14489 On ch=1 n=g#7 v=127
14503 On ch=1 n=f5 v=113
14503 On ch=1 n=a#4 v=127
14503 On ch=1 n=a4 v=125
14503 On ch=1 n=f7 v=127
14509 On ch=1 n=g#7 v=0
14520 On ch=1 n=a4 v=0
14520 On ch=1 n=f5 v=0
14520 On ch=1 n=a#4 v=0
14520 On ch=1 n=f7 v=0
14520 On ch=1 n=d7 v=127
14530 On ch=1 n=d7 v=0
14533 On ch=1 n=c#7 v=127
14550 On ch=1 n=f5 v=105
14550 On ch=1 n=a#4 v=125
14550 On ch=1 n=a#6 v=127
14550 On ch=1 n=a4 v=125
14552 On ch=1 n=c#7 v=0
14564 On ch=1 n=a#6 v=0
14564 On ch=1 n=a6 v=127
14569 On ch=1 n=a4 v=0
14569 On ch=1 n=a#4 v=0
14570 On ch=1 n=f5 v=0
14577 On ch=1 n=g#6 v=127
14580 On ch=1 n=a6 v=0
14596 On ch=1 n=d6 v=127
14596 On ch=1 n=e3 v=127
14596 On ch=1 n=f6 v=127
14599 On ch=1 n=g#6 v=0
14599 Par ch=1 c=64 v=127
14602 On ch=1 n=e3 v=0
14613 On ch=1 n=b5 v=127
14614 On ch=1 n=f6 v=0
14615 On ch=1 n=d6 v=0
14629 On ch=1 n=g#5 v=127
14632 On ch=1 n=b5 v=0
14646 On ch=1 n=g#5 v=0
14646 On ch=1 n=f5 v=127
14646 On ch=1 n=e4 v=127
14646 On ch=1 n=d5 v=101
14646 On ch=1 n=b4 v=127
14646 Par ch=1 c=64 v=0
14656 On ch=1 n=e5 v=127
14659 On ch=1 n=f5 v=0
14673 On ch=1 n=e5 v=0
14673 On ch=1 n=g#5 v=127
14676 On ch=1 n=b4 v=0
14677 On ch=1 n=e4 v=0
14677 On ch=1 n=d5 v=0
14681 On ch=1 n=a2 v=127
14687 On ch=1 n=g#5 v=0
14687 On ch=1 n=e3 v=127
14689 On ch=1 n=a2 v=0
14695 On ch=1 n=a5 v=127
14695 On ch=1 n=c4 v=127
14698 On ch=1 n=e3 v=0
14698 Par ch=1 c=64 v=127
14700 On ch=1 n=c4 v=0
14711 On ch=1 n=a5 v=0
14711 On ch=1 n=a6 v=127
14717 On ch=1 n=a6 v=0
14728 On ch=1 n=a6 v=127
14728 Par ch=1 c=64 v=0
14744 On ch=1 n=a7 v=127
14744 On ch=1 n=a4 v=113
14744 On ch=1 n=c4 v=125
14747 On ch=1 n=a6 v=0
14747 On ch=1 n=e4 v=125
14758 On ch=1 n=a7 v=0
14761 On ch=1 n=a6 v=125
14766 On ch=1 n=a6 v=0
14772 On ch=1 n=e4 v=0
14772 On ch=1 n=a4 v=0
14772 On ch=1 n=c4 v=0
14777 On ch=1 n=a6 v=127
14794 On ch=1 n=a6 v=0
14794 On ch=1 n=a5 v=125
14818 On ch=1 n=a5 v=0
14830 On ch=1 n=a3 v=127
14830 On ch=1 n=a5 v=121
14832 Par ch=1 c=64 v=127
14832 On ch=1 n=c5 v=113
14832 On ch=1 n=a4 v=93
14832 On ch=1 n=a2 v=97
14840 On ch=1 n=a2 v=0
14840 On ch=1 n=c5 v=0
14840 On ch=1 n=a3 v=0
14840 On ch=1 n=a5 v=0
14840 On ch=1 n=a4 v=0
14868 On ch=1 n=a4 v=125
14868 On ch=1 n=d5 v=127
14868 On ch=1 n=b3 v=127
14868 On ch=1 n=b2 v=125
14871 On ch=1 n=b2 v=0
14871 On ch=1 n=a5 v=81
14874 On ch=1 n=a5 v=0
14874 On ch=1 n=b3 v=0
14874 On ch=1 n=d5 v=0
14874 On ch=1 n=a4 v=0
14898 On ch=1 n=e5 v=127
14898 On ch=1 n=a5 v=121
14898 On ch=1 n=a4 v=127
14904 On ch=1 n=a4 v=0
14904 On ch=1 n=e5 v=0
14906 On ch=1 n=a5 v=0
14928 Par ch=1 c=64 v=0
14928 On ch=1 n=a5 v=127
14931 On ch=1 n=f5 v=127
14931 On ch=1 n=d4 v=127
14931 On ch=1 n=d3 v=127
14931 On ch=1 n=a4 v=127
14948 On ch=1 n=d4 v=0
14953 On ch=1 n=d3 v=0
14967 On ch=1 n=a5 v=0
14967 On ch=1 n=f5 v=0
14967 On ch=1 n=a4 v=0
14967 On ch=1 n=c3 v=121
14967 On ch=1 n=e5 v=125
14967 On ch=1 n=c4 v=125
14972 On ch=1 n=c4 v=0
14972 On ch=1 n=e5 v=0
14972 On ch=1 n=c3 v=0
15002 On ch=1 n=d5 v=127
15003 On ch=1 n=b2 v=125
15003 On ch=1 n=b3 v=125
15005 On ch=1 n=d5 v=0
15006 On ch=1 n=b2 v=0
15008 On ch=1 n=b3 v=0
15030 On ch=1 n=a4 v=127
15030 On ch=1 n=d4 v=127
15030 Par ch=1 c=64 v=127
15030 On ch=1 n=a5 v=127
15030 On ch=1 n=f5 v=127
15030 On ch=1 n=d3 v=127
15035 On ch=1 n=d3 v=0
15035 On ch=1 n=d4 v=0
15038 On ch=1 n=a4 v=0
15038 On ch=1 n=a5 v=0
15038 On ch=1 n=f5 v=0
15066 On ch=1 n=c4 v=127
15066 On ch=1 n=c3 v=127
15066 On ch=1 n=e5 v=127
15066 On ch=1 n=a4 v=127
15066 On ch=1 n=a5 v=127
15068 On ch=1 n=a4 v=0
15068 On ch=1 n=e5 v=0
15068 On ch=1 n=c4 v=0
15068 On ch=1 n=c3 v=0
15068 Par ch=1 c=64 v=0
15071 On ch=1 n=a5 v=0
15096 On ch=1 n=a5 v=127
15096 On ch=1 n=d5 v=127
15096 On ch=1 n=a4 v=127
15096 On ch=1 n=b3 v=127
15099 On ch=1 n=d5 v=0
15099 On ch=1 n=b2 v=105
15101 On ch=1 n=b2 v=0
15101 On ch=1 n=b3 v=0
15101 On ch=1 n=a4 v=0
15101 On ch=1 n=a5 v=0
15123 On ch=1 n=a3 v=125
15123 On ch=1 n=a2 v=121
15123 On ch=1 n=a4 v=127
15126 Par ch=1 c=64 v=127
15137 On ch=1 n=a2 v=0
15143 On ch=1 n=a4 v=0
15143 On ch=1 n=a3 v=0
15145 On ch=1 n=a5 v=127
15148 On ch=1 n=a5 v=0
15162 On ch=1 n=a5 v=127
15178 On ch=1 n=a5 v=0
15178 On ch=1 n=e4 v=127
15178 On ch=1 n=a6 v=127
15181 Par ch=1 c=64 v=0
15181 On ch=1 n=c5 v=101
15195 On ch=1 n=a6 v=0
15195 On ch=1 n=a5 v=127
15200 On ch=1 n=a5 v=0
15209 On ch=1 n=c5 v=0
15209 On ch=1 n=e4 v=0
15214 On ch=1 n=a5 v=127
15228 On ch=1 n=a4 v=127
15231 On ch=1 n=a5 v=0
15252 On ch=1 n=a4 v=0
15269 Par ch=1 c=64 v=127
15269 On ch=1 n=a5 v=127
15270 On ch=1 n=a3 v=127
15270 On ch=1 n=a2 v=127
15270 On ch=1 n=c6 v=125
15270 On ch=1 n=c5 v=127
15277 On ch=1 n=c5 v=0
15277 On ch=1 n=a2 v=0
15277 On ch=1 n=a3 v=0
15280 On ch=1 n=a5 v=0
15283 On ch=1 n=c6 v=0
15305 On ch=1 n=b3 v=127
15305 On ch=1 n=c6 v=127
15305 On ch=1 n=b2 v=127
15305 On ch=1 n=a5 v=127
15305 On ch=1 n=d5 v=127
15310 On ch=1 n=d5 v=0
15310 Par ch=1 c=64 v=0
15313 On ch=1 n=b2 v=0
15313 On ch=1 n=a5 v=0
15313 On ch=1 n=b3 v=0
15316 On ch=1 n=c6 v=0
15340 On ch=1 n=c4 v=127
15340 On ch=1 n=c3 v=127
15340 On ch=1 n=e5 v=127
15340 On ch=1 n=a5 v=127
15340 On ch=1 n=c6 v=125
15341 On ch=1 n=e5 v=0
15346 On ch=1 n=a5 v=0
15346 On ch=1 n=c4 v=0
15346 On ch=1 n=c3 v=0
15349 On ch=1 n=c6 v=0
15373 On ch=1 n=d4 v=127
15373 On ch=1 n=d3 v=127
15373 On ch=1 n=f5 v=127
15373 Par ch=1 c=64 v=127
15376 On ch=1 n=a5 v=127
15376 On ch=1 n=c6 v=127
15381 On ch=1 n=d3 v=0
15381 On ch=1 n=d4 v=0
15387 On ch=1 n=f5 v=0
15398 On ch=1 n=a5 v=0
15398 On ch=1 n=c6 v=0
15412 On ch=1 n=e5 v=127
15412 On ch=1 n=c4 v=127
15412 On ch=1 n=c3 v=127
15415 Par ch=1 c=64 v=0
15417 On ch=1 n=c3 v=0
15417 On ch=1 n=c4 v=0
15420 On ch=1 n=e5 v=0
15445 On ch=1 n=d5 v=127
15446 On ch=1 n=b3 v=127
15446 On ch=1 n=b2 v=127
15450 On ch=1 n=b2 v=0
15450 On ch=1 n=b3 v=0
15450 On ch=1 n=d5 v=0
15478 Par ch=1 c=64 v=127
15478 On ch=1 n=f5 v=127
15478 On ch=1 n=d3 v=127
15478 On ch=1 n=c6 v=127
15478 On ch=1 n=d4 v=127
15478 On ch=1 n=a5 v=127
15483 On ch=1 n=d4 v=0
15483 On ch=1 n=d3 v=0
15486 On ch=1 n=f5 v=0
15486 On ch=1 n=a5 v=0
15491 On ch=1 n=c6 v=0
15511 On ch=1 n=c4 v=127
15511 On ch=1 n=c6 v=127
15511 On ch=1 n=e5 v=127
15513 On ch=1 n=a5 v=127
15513 On ch=1 n=c3 v=127
15516 On ch=1 n=c3 v=0
15516 On ch=1 n=e5 v=0
15516 On ch=1 n=a5 v=0
15516 On ch=1 n=c4 v=0
15519 On ch=1 n=c6 v=0
15519 Par ch=1 c=64 v=0
15546 On ch=1 n=a5 v=127
15546 On ch=1 n=d5 v=127
15546 On ch=1 n=c6 v=127
15546 On ch=1 n=b3 v=127
15546 On ch=1 n=b2 v=127
15552 On ch=1 n=b2 v=0
15552 On ch=1 n=b3 v=0
15555 On ch=1 n=d5 v=0
15557 On ch=1 n=c6 v=0
15557 On ch=1 n=a5 v=0
15577 Par ch=1 c=64 v=127
15577 On ch=1 n=a2 v=127
15579 On ch=1 n=a3 v=127
15579 On ch=1 n=c5 v=127
15582 On ch=1 n=a2 v=0
15585 On ch=1 n=a3 v=0
15593 On ch=1 n=c6 v=127
15596 On ch=1 n=a5 v=127
15599 Par ch=1 c=64 v=0
15607 On ch=1 n=c5 v=0
15610 On ch=1 n=c7 v=127
15615 On ch=1 n=a5 v=0
15615 On ch=1 n=c6 v=0
15623 On ch=1 n=e4 v=127
15623 On ch=1 n=e5 v=127
15623 On ch=1 n=a4 v=127
15623 On ch=1 n=a7 v=127
15626 On ch=1 n=c8 v=127
15629 On ch=1 n=c7 v=0
15640 On ch=1 n=e4 v=0
15643 On ch=1 n=a4 v=0
15643 On ch=1 n=e5 v=0
15643 On ch=1 n=c7 v=127
15645 On ch=1 n=c8 v=0
15645 On ch=1 n=a7 v=0
15656 On ch=1 n=a5 v=125
15656 On ch=1 n=c6 v=127
15659 On ch=1 n=c7 v=0
15673 On ch=1 n=c5 v=127
15675 On ch=1 n=c6 v=0
15675 On ch=1 n=a5 v=0
15692 On ch=1 n=c5 v=0
15706 On ch=1 n=a2 v=127
15706 On ch=1 n=a3 v=127
15711 On ch=1 n=c6 v=127
15711 On ch=1 n=e6 v=127
15711 On ch=1 n=c5 v=121
15725 On ch=1 n=c6 v=0
15728 On ch=1 n=e6 v=0
15733 On ch=1 n=c5 v=0
15741 On ch=1 n=a2 v=0
15741 On ch=1 n=b3 v=127
15741 On ch=1 n=b2 v=127
15741 On ch=1 n=e6 v=127
15744 On ch=1 n=a3 v=0
15744 On ch=1 n=d5 v=127
15744 On ch=1 n=c6 v=127
15747 On ch=1 n=b3 v=0
15747 On ch=1 n=b2 v=0
15753 On ch=1 n=e6 v=0
15753 On ch=1 n=d5 v=0
15753 On ch=1 n=c6 v=0
15772 On ch=1 n=c4 v=127
15772 On ch=1 n=c3 v=127
15775 On ch=1 n=e6 v=127
15775 On ch=1 n=e5 v=127
15775 On ch=1 n=c6 v=127
15780 On ch=1 n=c3 v=0
15780 On ch=1 n=c4 v=0
15783 On ch=1 n=e5 v=0
15783 On ch=1 n=e6 v=0
15783 On ch=1 n=c6 v=0
15802 On ch=1 n=d3 v=127
15802 On ch=1 n=d4 v=127
15805 On ch=1 n=c6 v=127
15805 On ch=1 n=e6 v=127
15807 On ch=1 n=f5 v=127
15824 On ch=1 n=e6 v=0
15824 On ch=1 n=c6 v=0
15835 On ch=1 n=c3 v=127
15835 On ch=1 n=c4 v=127
15838 On ch=1 n=d3 v=0
15838 On ch=1 n=d4 v=0
15838 On ch=1 n=e5 v=127
15841 On ch=1 n=c3 v=0
15841 On ch=1 n=e6 v=127
15841 On ch=1 n=c6 v=127
15843 On ch=1 n=f5 v=0
15843 On ch=1 n=c4 v=0
15846 On ch=1 n=c6 v=0
15846 On ch=1 n=e5 v=0
15849 On ch=1 n=e6 v=0
15868 On ch=1 n=b2 v=127
15868 On ch=1 n=c6 v=127
15868 On ch=1 n=b3 v=127
15868 On ch=1 n=e6 v=127
15868 On ch=1 n=d5 v=127
15876 On ch=1 n=b2 v=0
15879 On ch=1 n=e6 v=0
15879 On ch=1 n=d5 v=0
15879 On ch=1 n=b3 v=0
15881 On ch=1 n=c6 v=0
15901 On ch=1 n=c6 v=127
15901 On ch=1 n=d3 v=127
15901 On ch=1 n=e6 v=127
15901 On ch=1 n=d4 v=127
15901 On ch=1 n=f5 v=127
15907 On ch=1 n=f5 v=0
15907 On ch=1 n=d3 v=0
15907 On ch=1 n=d4 v=0
15909 On ch=1 n=e6 v=0
15909 On ch=1 n=c6 v=0
15931 On ch=1 n=c6 v=127
15931 On ch=1 n=c3 v=127
15931 On ch=1 n=e6 v=127
15931 On ch=1 n=c4 v=127
15931 On ch=1 n=e5 v=127
15936 On ch=1 n=e5 v=0
15936 On ch=1 n=c3 v=0
15936 On ch=1 n=c4 v=0
15939 On ch=1 n=e6 v=0
15939 On ch=1 n=c6 v=0
15961 On ch=1 n=b3 v=127
15961 On ch=1 n=c6 v=127
15961 On ch=1 n=d5 v=127
15961 On ch=1 n=e6 v=127
15961 On ch=1 n=b2 v=127
15969 On ch=1 n=b2 v=0
15972 On ch=1 n=b3 v=0
15973 On ch=1 n=d5 v=0
15975 On ch=1 n=c6 v=0
15975 On ch=1 n=e6 v=0
15995 On ch=1 n=a3 v=127
15995 On ch=1 n=c6 v=127
15995 On ch=1 n=a2 v=127
15995 On ch=1 n=a6 v=127
15995 On ch=1 n=a5 v=127
16005 On ch=1 n=a2 v=0
16008 On ch=1 n=a6 v=0
16008 On ch=1 n=a5 v=0
16011 On ch=1 n=c6 v=0
16011 On ch=1 n=a3 v=0
16027 On ch=1 n=b2 v=121
16027 On ch=1 n=d6 v=127
16030 On ch=1 n=b3 v=121
16035 On ch=1 n=d6 v=0
16035 On ch=1 n=b2 v=0
16039 On ch=1 n=b3 v=0
16057 On ch=1 n=c4 v=121
16057 On ch=1 n=c3 v=127
16057 On ch=1 n=e6 v=127
16065 On ch=1 n=e6 v=0
16065 On ch=1 n=c3 v=0
16068 On ch=1 n=c4 v=0
16090 On ch=1 n=f6 v=127
16090 On ch=1 n=c7 v=127
16090 On ch=1 n=d3 v=127
16090 On ch=1 n=a6 v=127
16090 On ch=1 n=d4 v=127
16098 On ch=1 n=f6 v=0
16101 On ch=1 n=d4 v=0
16101 On ch=1 n=d3 v=0
16104 On ch=1 n=c7 v=0
16104 On ch=1 n=a6 v=0
16120 On ch=1 n=e6 v=127
16123 On ch=1 n=c7 v=127
16123 On ch=1 n=a6 v=127
16123 On ch=1 n=c3 v=127
16123 On ch=1 n=c4 v=127
16131 On ch=1 n=c4 v=0
16131 On ch=1 n=c7 v=0
16131 On ch=1 n=e6 v=0
16131 On ch=1 n=c3 v=0
16134 On ch=1 n=a6 v=0
16153 On ch=1 n=a6 v=127
16153 On ch=1 n=d6 v=127
16153 On ch=1 n=c7 v=127
16153 On ch=1 n=b2 v=127
16153 On ch=1 n=b3 v=127
16165 On ch=1 n=b2 v=0
16167 On ch=1 n=c7 v=0
16167 On ch=1 n=a6 v=0
16167 On ch=1 n=d6 v=0
16167 On ch=1 n=b3 v=0
16186 On ch=1 n=c6 v=127
16186 On ch=1 n=a3 v=127
16186 On ch=1 n=c7 v=127
16186 On ch=1 n=a2 v=127
16189 On ch=1 n=e7 v=127
16197 On ch=1 n=a2 v=0
16197 On ch=1 n=c6 v=0
16200 On ch=1 n=a3 v=0
16216 On ch=1 n=d6 v=127
16216 On ch=1 n=b3 v=127
16216 On ch=1 n=b2 v=127
16225 On ch=1 n=b2 v=0
16225 On ch=1 n=d6 v=0
16225 On ch=1 n=b3 v=0
16249 On ch=1 n=c3 v=127
16250 On ch=1 n=e6 v=127
16250 On ch=1 n=c4 v=127
16255 On ch=1 n=c3 v=0
16258 On ch=1 n=c4 v=0
16259 On ch=1 n=e6 v=0
16271 On ch=1 n=c7 v=0
16271 On ch=1 n=e7 v=0
16277 On ch=1 n=f7 v=127
16277 On ch=1 n=d4 v=127
16277 On ch=1 n=a6 v=127
16280 On ch=1 n=d3 v=127
16280 On ch=1 n=a7 v=127
16291 On ch=1 n=d3 v=0
16291 On ch=1 n=d4 v=0
16293 On ch=1 n=f7 v=0
16293 On ch=1 n=a6 v=0
16293 On ch=1 n=a7 v=0
16310 On ch=1 n=a6 v=127
16310 On ch=1 n=e7 v=127
16310 On ch=1 n=c4 v=127
16311 On ch=1 n=a7 v=127
16313 On ch=1 n=c3 v=127
16321 On ch=1 n=c3 v=0
16321 On ch=1 n=c4 v=0
16321 On ch=1 n=e7 v=0
16324 On ch=1 n=a6 v=0
16324 On ch=1 n=a7 v=0
16343 On ch=1 n=a6 v=127
16343 On ch=1 n=d7 v=127
16343 On ch=1 n=b3 v=127
16343 On ch=1 n=a7 v=127
16346 On ch=1 n=b2 v=127
16354 On ch=1 n=b2 v=0
16354 On ch=1 n=b3 v=0
16357 On ch=1 n=a6 v=0
16357 On ch=1 n=d7 v=0
16357 On ch=1 n=a7 v=0
16376 On ch=1 n=a7 v=127
16376 On ch=1 n=a2 v=127
16376 On ch=1 n=e3 v=127
16376 On ch=1 n=a3 v=127
16393 On ch=1 n=a3 v=0
16393 On ch=1 n=a7 v=0
16393 On ch=1 n=a2 v=0
16393 On ch=1 n=e3 v=0
16412 On ch=1 n=e5 v=127
16412 On ch=1 n=e6 v=127
16412 Par ch=1 c=64 v=127
16417 On ch=1 n=e6 v=0
16423 On ch=1 n=e5 v=0
16447 On ch=1 n=e6 v=127
16447 On ch=1 n=e5 v=127
16453 On ch=1 n=e5 v=0
16453 On ch=1 n=e6 v=0
16481 On ch=1 n=e5 v=127
16483 On ch=1 n=e6 v=127
16483 On ch=1 n=f6 v=127
16483 On ch=1 n=f5 v=127
16488 On ch=1 n=f5 v=0
16488 On ch=1 n=e5 v=0
16488 On ch=1 n=e6 v=0
16488 On ch=1 n=f6 v=0
16516 On ch=1 n=e6 v=127
16516 On ch=1 n=e5 v=127
16516 On ch=1 n=f6 v=127
16519 On ch=1 n=f5 v=127
16521 On ch=1 n=f6 v=0
16521 On ch=1 n=e6 v=0
16524 On ch=1 n=e5 v=0
16527 On ch=1 n=f5 v=0
16543 Par ch=1 c=64 v=0
16552 On ch=1 n=f6 v=127
16552 On ch=1 n=d#6 v=127
16552 On ch=1 n=f5 v=127
16587 On ch=1 n=f5 v=0
16587 On ch=1 n=d#6 v=0
16587 On ch=1 n=f6 v=0
16590 On ch=1 n=a#7 v=127
16590 On ch=1 n=f4 v=127
16590 On ch=1 n=d4 v=127
16591 On ch=1 n=e3 v=127
16607 On ch=1 n=e3 v=0
16609 On ch=1 n=d4 v=0
16609 On ch=1 n=f4 v=0
16612 On ch=1 n=a#7 v=0
16620 On ch=1 n=f6 v=127
16620 On ch=1 n=d6 v=127
16620 Par ch=1 c=64 v=127
16620 On ch=1 n=f5 v=127
16620 On ch=1 n=d5 v=127
16626 On ch=1 n=f5 v=0
16629 On ch=1 n=f6 v=0
16629 On ch=1 n=d6 v=0
16629 On ch=1 n=d5 v=0
16653 On ch=1 n=d6 v=127
16653 On ch=1 n=a#5 v=127
16656 On ch=1 n=f5 v=127
16656 On ch=1 n=a#6 v=127
16656 On ch=1 n=f6 v=127
16657 On ch=1 n=d5 v=89
16659 On ch=1 n=d5 v=0
16659 On ch=1 n=a#5 v=0
16659 On ch=1 n=d6 v=0
16659 On ch=1 n=f5 v=0
16659 On ch=1 n=f6 v=0
16662 On ch=1 n=a#6 v=0
16686 On ch=1 n=a5 v=127
16689 On ch=1 n=c5 v=127
16689 On ch=1 n=e5 v=127
16689 On ch=1 n=e6 v=127
16689 On ch=1 n=a6 v=127
16689 On ch=1 n=c6 v=127
16692 On ch=1 n=a5 v=0
16695 On ch=1 n=e5 v=0
16695 On ch=1 n=e6 v=0
16695 On ch=1 n=c5 v=0
16695 On ch=1 n=c6 v=0
16695 On ch=1 n=a6 v=0
16722 On ch=1 n=b5 v=127
16723 On ch=1 n=d6 v=127
16723 On ch=1 n=g#5 v=127
16723 On ch=1 n=f5 v=127
16723 On ch=1 n=b4 v=127
16723 On ch=1 n=f6 v=127
16723 On ch=1 n=g#6 v=127
16725 On ch=1 n=d5 v=121
16726 On ch=1 n=g#5 v=0
16728 On ch=1 n=b5 v=0
16728 On ch=1 n=d6 v=0
16728 On ch=1 n=d5 v=0
16728 On ch=1 n=f5 v=0
16728 On ch=1 n=b4 v=0
16728 On ch=1 n=g#6 v=0
16730 On ch=1 n=f6 v=0
16758 On ch=1 n=g#5 v=127
16758 On ch=1 n=e6 v=127
16758 On ch=1 n=e5 v=125
16758 On ch=1 n=b5 v=127
16758 On ch=1 n=g#4 v=127
16760 On ch=1 n=b4 v=127
16763 Par ch=1 c=64 v=0
16793 On ch=1 n=g#5 v=0
16796 On ch=1 n=e5 v=0
16796 On ch=1 n=b5 v=0
16796 On ch=1 n=e6 v=0
16796 On ch=1 n=b4 v=0
16796 On ch=1 n=g#4 v=0
16799 On ch=1 n=a7 v=127
16799 On ch=1 n=a3 v=127
16799 On ch=1 n=a4 v=127
16802 On ch=1 n=e4 v=127
16802 On ch=1 n=c7 v=127
16802 On ch=1 n=c8 v=127
16834 On ch=1 n=c8 v=0
16834 On ch=1 n=e4 v=0
16836 On ch=1 n=a3 v=0
16837 On ch=1 n=a7 v=0
16837 On ch=1 n=a4 v=0
16837 On ch=1 n=e5 v=127
16837 On ch=1 n=e6 v=127
16843 On ch=1 n=c7 v=0
16846 Par ch=1 c=64 v=127
16851 On ch=1 n=e6 v=0
16851 On ch=1 n=e5 v=0
16873 On ch=1 n=e5 v=127
16873 On ch=1 n=e6 v=127
16881 On ch=1 n=e6 v=0
16881 On ch=1 n=e5 v=0
16909 On ch=1 n=e5 v=127
16909 On ch=1 n=f6 v=127
16909 On ch=1 n=e6 v=127
16912 On ch=1 n=f5 v=127
16920 On ch=1 n=f5 v=0
16920 On ch=1 n=e5 v=0
16920 On ch=1 n=f6 v=0
16920 On ch=1 n=e6 v=0
16947 On ch=1 n=f6 v=127
16947 On ch=1 n=e5 v=127
16947 On ch=1 n=f5 v=127
16947 On ch=1 n=e6 v=127
16953 On ch=1 n=e6 v=0
16953 On ch=1 n=f6 v=0
16953 On ch=1 n=e5 v=0
16953 On ch=1 n=f5 v=0
16983 Par ch=1 c=64 v=0
16983 On ch=1 n=f6 v=127
16983 On ch=1 n=f5 v=125
16983 On ch=1 n=d#6 v=127
16983 On ch=1 n=d#5 v=125
17016 On ch=1 n=d#5 v=0
17016 On ch=1 n=f6 v=0
17016 On ch=1 n=f5 v=0
17016 On ch=1 n=d#6 v=0
17019 On ch=1 n=e3 v=127
17021 On ch=1 n=f8 v=127
17021 On ch=1 n=f4 v=127
17024 On ch=1 n=d4 v=127
17024 On ch=1 n=f7 v=127
17024 On ch=1 n=a#7 v=127
17042 On ch=1 n=e3 v=0
17052 On ch=1 n=f7 v=0
17052 On ch=1 n=d4 v=0
17052 On ch=1 n=f4 v=0
17054 On ch=1 n=f8 v=0
17054 On ch=1 n=a#7 v=0
17057 On ch=1 n=f5 v=125
17060 On ch=1 n=f6 v=121
17060 On ch=1 n=d6 v=113
17060 On ch=1 n=d5 v=113
17063 Par ch=1 c=64 v=127
17074 On ch=1 n=f5 v=0
17076 On ch=1 n=f6 v=0
17076 On ch=1 n=d6 v=0
17076 On ch=1 n=d5 v=0
17096 On ch=1 n=a#5 v=127
17096 On ch=1 n=f6 v=127
17096 On ch=1 n=d6 v=127
17096 On ch=1 n=f5 v=127
17096 On ch=1 n=a#6 v=127
17098 On ch=1 n=d5 v=125
17107 On ch=1 n=d5 v=0
17107 On ch=1 n=f6 v=0
17107 On ch=1 n=f5 v=0
17109 On ch=1 n=a#5 v=0
17109 On ch=1 n=a#6 v=0
17109 On ch=1 n=d6 v=0
17131 On ch=1 n=c6 v=127
17131 On ch=1 n=a5 v=127
17131 On ch=1 n=c5 v=127
17131 On ch=1 n=e6 v=127
17131 On ch=1 n=a6 v=127
17134 On ch=1 n=e5 v=127
17140 On ch=1 n=e6 v=0
17140 On ch=1 n=c5 v=0
17140 On ch=1 n=a5 v=0
17142 On ch=1 n=c6 v=0
17142 On ch=1 n=a6 v=0
17142 On ch=1 n=e5 v=0
17167 On ch=1 n=g#5 v=127
17167 On ch=1 n=g#6 v=127
17170 On ch=1 n=f5 v=127
17170 On ch=1 n=b5 v=127
17170 On ch=1 n=d5 v=105
17170 On ch=1 n=d6 v=127
17170 On ch=1 n=f6 v=127
17170 On ch=1 n=b4 v=127
17175 On ch=1 n=b4 v=0
17175 On ch=1 n=d5 v=0
17175 On ch=1 n=f5 v=0
17175 On ch=1 n=g#5 v=0
17175 On ch=1 n=g#6 v=0
17178 On ch=1 n=b5 v=0
17178 On ch=1 n=f6 v=0
17178 On ch=1 n=d6 v=0
17206 On ch=1 n=g#4 v=127
17208 On ch=1 n=e5 v=125
17208 On ch=1 n=g#5 v=127
17208 On ch=1 n=e6 v=127
17208 On ch=1 n=b4 v=127
17208 On ch=1 n=b5 v=127
17211 Par ch=1 c=64 v=0
17238 On ch=1 n=b5 v=0
17238 On ch=1 n=e5 v=0
17238 On ch=1 n=g#5 v=0
17238 On ch=1 n=g#4 v=0
17238 On ch=1 n=b4 v=0
17238 On ch=1 n=e6 v=0
17244 On ch=1 n=e7 v=127
17244 On ch=1 n=c8 v=125
17244 On ch=1 n=c7 v=127
17279 On ch=1 n=a4 v=125
17282 On ch=1 n=e4 v=127
17282 On ch=1 n=a3 v=127
17288 On ch=1 n=c7 v=0
17288 On ch=1 n=e7 v=0
17288 On ch=1 n=c8 v=0
17321 On ch=1 n=e6 v=127
17321 On ch=1 n=c#6 v=113
17321 On ch=1 n=c#7 v=127
17323 On ch=1 n=a4 v=0
17323 On ch=1 n=a3 v=0
17323 On ch=1 n=a#6 v=125
17326 On ch=1 n=e4 v=0
17356 On ch=1 n=c#5 v=125
17356 On ch=1 n=a#5 v=121
17360 On ch=1 n=c#6 v=0
17360 On ch=1 n=g5 v=125
17362 On ch=1 n=a#6 v=0
17362 On ch=1 n=e6 v=0
17362 On ch=1 n=c#7 v=0
17392 On ch=1 n=a#5 v=0
17392 On ch=1 n=c#5 v=0
17395 On ch=1 n=g5 v=0
17395 On ch=1 n=f#7 v=127
17396 On ch=1 n=d8 v=127
17433 On ch=1 n=a3 v=125
17433 On ch=1 n=f#4 v=127
17433 On ch=1 n=a4 v=121
17436 On ch=1 n=d8 v=0
17436 On ch=1 n=f#7 v=0
17472 On ch=1 n=a3 v=0
17472 On ch=1 n=b6 v=109
17475 On ch=1 n=f#4 v=0
17475 On ch=1 n=a4 v=0
17475 On ch=1 n=g#6 v=127
17475 On ch=1 n=d6 v=127
17475 On ch=1 n=b5 v=125
17510 On ch=1 n=b5 v=0
17513 On ch=1 n=b4 v=127
17513 On ch=1 n=g#5 v=125
17513 On ch=1 n=f5 v=127
17514 On ch=1 n=b6 v=0
17514 On ch=1 n=d6 v=0
17514 On ch=1 n=g#6 v=0
17546 On ch=1 n=g#5 v=0
17551 On ch=1 n=f5 v=0
17554 On ch=1 n=b4 v=0
17554 On ch=1 n=c7 v=127
17554 On ch=1 n=e7 v=127
17554 On ch=1 n=c8 v=125
17590 On ch=1 n=a3 v=127
17590 On ch=1 n=a4 v=127
17593 On ch=1 n=e4 v=127
17595 On ch=1 n=c8 v=0
17595 On ch=1 n=c7 v=0
17595 On ch=1 n=e7 v=0
17628 On ch=1 n=c6 v=127
17628 On ch=1 n=a5 v=127
17628 On ch=1 n=a6 v=125
17631 On ch=1 n=a3 v=0
17631 On ch=1 n=f#6 v=127
17634 On ch=1 n=e4 v=0
17634 On ch=1 n=a4 v=0
17668 On ch=1 n=f#5 v=127
17670 On ch=1 n=a5 v=0
17670 On ch=1 n=a6 v=0
17670 On ch=1 n=a4 v=127
17670 On ch=1 n=d#5 v=127
17672 On ch=1 n=c6 v=0
17672 On ch=1 n=f#6 v=0
17705 On ch=1 n=a4 v=0
17708 On ch=1 n=d#5 v=0
17708 On ch=1 n=f#5 v=0
17708 On ch=1 n=a#6 v=127
17708 On ch=1 n=d7 v=127
17708 Par ch=1 c=64 v=127
17708 On ch=1 n=a#7 v=127
17712 On ch=1 n=a3 v=113
17712 On ch=1 n=a#4 v=127
17712 On ch=1 n=f4 v=105
17713 On ch=1 n=d4 v=127
17722 On ch=1 n=d4 v=0
17722 On ch=1 n=a#4 v=0
17724 On ch=1 n=a3 v=0
17724 On ch=1 n=f4 v=0
17727 On ch=1 n=d7 v=0
17727 On ch=1 n=a#7 v=0
17730 On ch=1 n=a#6 v=0
17746 On ch=1 n=a#4 v=127
17746 On ch=1 n=d4 v=127
17746 On ch=1 n=f4 v=109
17749 On ch=1 n=a7 v=127
17749 On ch=1 n=a3 v=105
17749 On ch=1 n=a6 v=127
17756 On ch=1 n=a3 v=0
17756 On ch=1 n=d4 v=0
17756 On ch=1 n=a#4 v=0
17757 On ch=1 n=f4 v=0
17763 On ch=1 n=a7 v=0
17763 On ch=1 n=a6 v=0
17782 On ch=1 n=d4 v=125
17782 On ch=1 n=a#4 v=127
17782 On ch=1 n=f4 v=121
17785 On ch=1 n=f6 v=127
17785 On ch=1 n=a3 v=113
17785 On ch=1 n=f7 v=127
17790 On ch=1 n=a#4 v=0
17793 On ch=1 n=a3 v=0
17793 On ch=1 n=d4 v=0
17793 On ch=1 n=f4 v=0
17796 On ch=1 n=f6 v=0
17796 On ch=1 n=f7 v=0
17821 On ch=1 n=a3 v=113
17821 On ch=1 n=f4 v=109
17822 On ch=1 n=d4 v=125
17822 On ch=1 n=a#4 v=127
17823 On ch=1 n=d7 v=127
17823 On ch=1 n=d6 v=127
17829 On ch=1 n=a#4 v=0
17829 On ch=1 n=d4 v=0
17829 On ch=1 n=a3 v=0
17832 On ch=1 n=f4 v=0
17837 On ch=1 n=d7 v=0
17837 On ch=1 n=d6 v=0
17856 On ch=1 n=a#4 v=127
17856 On ch=1 n=d4 v=109
17859 On ch=1 n=f4 v=105
17859 On ch=1 n=a3 v=109
17859 On ch=1 n=b6 v=127
17859 On ch=1 n=b5 v=127
17867 On ch=1 n=a#4 v=0
17870 On ch=1 n=a3 v=0
17870 On ch=1 n=d4 v=0
17870 On ch=1 n=f4 v=0
17873 On ch=1 n=b5 v=0
17873 On ch=1 n=b6 v=0
17898 On ch=1 n=f4 v=121
17898 On ch=1 n=a3 v=121
17898 On ch=1 n=d4 v=125
17900 On ch=1 n=a5 v=127
17900 On ch=1 n=a4 v=127
17900 On ch=1 n=a6 v=127
17909 On ch=1 n=a6 v=0
17909 On ch=1 n=a3 v=0
17909 On ch=1 n=d4 v=0
17909 On ch=1 n=f4 v=0
17909 On ch=1 n=a5 v=0
17910 On ch=1 n=a4 v=0
17933 Par ch=1 c=64 v=0
17936 On ch=1 n=d4 v=125
17936 On ch=1 n=g#6 v=127
17936 On ch=1 n=g#4 v=125
17936 On ch=1 n=e4 v=97
17936 On ch=1 n=a3 v=101
17939 On ch=1 n=b3 v=121
17939 On ch=1 n=g#5 v=127
17944 Par ch=1 c=64 v=127
17953 On ch=1 n=g#4 v=0
17955 On ch=1 n=a3 v=0
17955 On ch=1 n=d4 v=0
17955 On ch=1 n=e4 v=0
17955 On ch=1 n=b3 v=0
17958 On ch=1 n=g#6 v=0
17958 On ch=1 n=g#5 v=0
17972 On ch=1 n=g#4 v=127
17975 On ch=1 n=e4 v=97
17975 On ch=1 n=f6 v=127
17975 On ch=1 n=f5 v=127
17975 On ch=1 n=d4 v=113
17977 On ch=1 n=a3 v=109
17977 On ch=1 n=b3 v=121
17985 On ch=1 n=g#4 v=0
17988 On ch=1 n=a3 v=0
17988 On ch=1 n=f6 v=0
17988 On ch=1 n=f5 v=0
17988 On ch=1 n=e4 v=0
17988 On ch=1 n=b3 v=0
17988 On ch=1 n=d4 v=0
18010 On ch=1 n=e5 v=127
18010 On ch=1 n=e6 v=127
18013 On ch=1 n=g#4 v=127
18016 On ch=1 n=a3 v=125
18016 On ch=1 n=d4 v=125
18016 On ch=1 n=b3 v=127
18016 On ch=1 n=e4 v=121
18021 On ch=1 n=e6 v=0
18021 On ch=1 n=e5 v=0
18024 On ch=1 n=g#4 v=0
18027 On ch=1 n=d4 v=0
18027 On ch=1 n=a3 v=0
18027 On ch=1 n=b3 v=0
18027 On ch=1 n=e4 v=0
18046 On ch=1 n=d6 v=127
18049 On ch=1 n=g#4 v=127
18049 On ch=1 n=d5 v=127
18049 On ch=1 n=e4 v=121
18051 On ch=1 n=a3 v=125
18051 On ch=1 n=d4 v=127
18054 On ch=1 n=b3 v=127
18060 On ch=1 n=a3 v=0
18060 On ch=1 n=g#4 v=0
18060 On ch=1 n=d6 v=0
18063 On ch=1 n=d4 v=0
18063 On ch=1 n=e4 v=0
18063 On ch=1 n=b3 v=0
18063 On ch=1 n=d5 v=0
18085 On ch=1 n=b5 v=127
18087 On ch=1 n=d4 v=127
18087 On ch=1 n=a3 v=117
18087 On ch=1 n=g#4 v=127
18087 On ch=1 n=b4 v=127
18087 On ch=1 n=e4 v=117
18090 On ch=1 n=b3 v=127
18093 On ch=1 n=b4 v=0
18095 On ch=1 n=b5 v=0
18098 On ch=1 n=a3 v=0
18098 On ch=1 n=g#4 v=0
18098 On ch=1 n=d4 v=0
18098 On ch=1 n=b3 v=0
18098 On ch=1 n=e4 v=0
18123 On ch=1 n=e6 v=127
18123 On ch=1 n=g#4 v=127
18123 On ch=1 n=e4 v=121
18123 On ch=1 n=d4 v=127
18125 On ch=1 n=e5 v=127
18125 On ch=1 n=b3 v=127
18125 On ch=1 n=a3 v=121
18131 Par ch=1 c=64 v=0
18134 On ch=1 n=a3 v=0
18134 On ch=1 n=d4 v=0
18136 On ch=1 n=e4 v=0
18136 On ch=1 n=b3 v=0
18139 On ch=1 n=g#4 v=0
18156 On ch=1 n=e5 v=0
18156 On ch=1 n=e6 v=0
18164 On ch=1 n=e7 v=127
18164 On ch=1 n=c8 v=125
18164 On ch=1 n=c7 v=127
18167 On ch=1 n=c6 v=127
18167 On ch=1 n=c7 v=127
18167 On ch=1 n=e6 v=127
18194 On ch=1 n=c7 v=0
18194 On ch=1 n=c7 v=0
18200 On ch=1 n=c8 v=0
18202 On ch=1 n=e7 v=0
18202 On ch=1 n=a3 v=127
18202 On ch=1 n=e3 v=127
18205 On ch=1 n=a2 v=125
18208 On ch=1 n=e6 v=0
18208 On ch=1 n=c6 v=0
18241 On ch=1 n=a2 v=0
18241 On ch=1 n=a3 v=0
18241 On ch=1 n=e5 v=127
18241 On ch=1 n=a#5 v=127
18241 On ch=1 n=c#5 v=127
18241 On ch=1 n=c#6 v=127
18244 On ch=1 n=e3 v=0
18271 On ch=1 n=a#5 v=0
18272 On ch=1 n=e5 v=0
18274 On ch=1 n=c#6 v=0
18274 On ch=1 n=c#5 v=0
18277 On ch=1 n=c#4 v=125
18279 On ch=1 n=g4 v=127
18279 On ch=1 n=a#4 v=125
18310 On ch=1 n=a#4 v=0
18310 On ch=1 n=g4 v=0
18310 On ch=1 n=c#4 v=0
18318 On ch=1 n=d6 v=127
18318 On ch=1 n=d7 v=127
18318 On ch=1 n=f#6 v=127
18354 On ch=1 n=f#3 v=127
18354 On ch=1 n=a3 v=121
18356 On ch=1 n=f#6 v=0
18356 On ch=1 n=d6 v=0
18356 On ch=1 n=d7 v=0
18356 On ch=1 n=a2 v=101
18386 On ch=1 n=a3 v=0
18389 On ch=1 n=a2 v=0
18389 On ch=1 n=f#3 v=0
18395 On ch=1 n=d5 v=127
18395 On ch=1 n=b4 v=125
18395 On ch=1 n=g#5 v=127
18395 On ch=1 n=b5 v=127
18430 On ch=1 n=b3 v=127
18430 On ch=1 n=g#4 v=127
18433 On ch=1 n=b5 v=0
18433 On ch=1 n=f4 v=127
18436 On ch=1 n=g#5 v=0
18436 On ch=1 n=b4 v=0
18437 On ch=1 n=d5 v=0
18469 On ch=1 n=b3 v=0
18469 On ch=1 n=c7 v=127
18469 On ch=1 n=e6 v=127
18469 On ch=1 n=c6 v=127
18472 On ch=1 n=f4 v=0
18472 On ch=1 n=g#4 v=0
18507 On ch=1 n=e6 v=0
18507 On ch=1 n=c7 v=0
18507 On ch=1 n=c6 v=0
18507 On ch=1 n=a2 v=121
18507 On ch=1 n=a3 v=121
18510 On ch=1 n=e3 v=127
18549 On ch=1 n=a4 v=125
18549 On ch=1 n=f#5 v=127
18551 On ch=1 n=e3 v=0
18551 On ch=1 n=a2 v=0
18551 On ch=1 n=a3 v=0
18551 On ch=1 n=c5 v=127
18551 On ch=1 n=a5 v=113
18587 On ch=1 n=a5 v=0
18587 On ch=1 n=c5 v=0
18587 On ch=1 n=f#5 v=0
18587 On ch=1 n=d#4 v=127
18587 On ch=1 n=a3 v=127
18587 On ch=1 n=f#4 v=125
18590 On ch=1 n=a4 v=0
18617 On ch=1 n=a3 v=0
18628 On ch=1 n=f4 v=97
18628 On ch=1 n=a3 v=117
18628 On ch=1 n=a#5 v=127
18628 On ch=1 n=a#6 v=127
18628 On ch=1 n=a#4 v=127
18628 On ch=1 n=d4 v=121
18628 On ch=1 n=d6 v=127
18631 On ch=1 n=a3 v=0
18631 On ch=1 n=d#4 v=0
18634 On ch=1 n=f#4 v=0
18634 Par ch=1 c=64 v=127
18644 On ch=1 n=d4 v=0
18645 On ch=1 n=f4 v=0
18646 On ch=1 n=a#4 v=0
18647 On ch=1 n=a#5 v=0
18650 On ch=1 n=d6 v=0
18653 On ch=1 n=a#6 v=0
18664 On ch=1 n=d4 v=125
18664 On ch=1 n=f6 v=127
18666 On ch=1 n=a3 v=109
18666 On ch=1 n=a#4 v=127
18666 On ch=1 n=f4 v=101
18666 On ch=1 n=f7 v=127
18677 On ch=1 n=f7 v=0
18677 On ch=1 n=f6 v=0
18680 On ch=1 n=a#4 v=0
18680 On ch=1 n=d4 v=0
18680 On ch=1 n=a3 v=0
18680 On ch=1 n=f4 v=0
18702 On ch=1 n=d6 v=127
18702 On ch=1 n=d7 v=127
18705 On ch=1 n=d4 v=127
18705 On ch=1 n=a#4 v=127
18705 On ch=1 n=f4 v=101
18705 On ch=1 n=a3 v=121
18713 On ch=1 n=d7 v=0
18716 On ch=1 n=d4 v=0
18716 On ch=1 n=d6 v=0
18716 On ch=1 n=a3 v=0
18718 On ch=1 n=a#4 v=0
18718 On ch=1 n=f4 v=0
18740 On ch=1 n=a#4 v=127
18740 On ch=1 n=f4 v=109
18740 On ch=1 n=d4 v=125
18743 On ch=1 n=a#6 v=127
18743 On ch=1 n=a#5 v=127
18743 On ch=1 n=a3 v=125
18755 On ch=1 n=a3 v=0
18755 On ch=1 n=d4 v=0
18757 On ch=1 n=a#6 v=0
18757 On ch=1 n=a#4 v=0
18757 On ch=1 n=f4 v=0
18757 On ch=1 n=a#5 v=0
18779 On ch=1 n=d4 v=125
18779 On ch=1 n=a#4 v=127
18779 On ch=1 n=f4 v=101
18782 On ch=1 n=a3 v=125
18784 On ch=1 n=a5 v=127
18784 On ch=1 n=a6 v=127
18793 On ch=1 n=a3 v=0
18793 On ch=1 n=f4 v=0
18793 On ch=1 n=d4 v=0
18793 On ch=1 n=a#4 v=0
18795 On ch=1 n=a6 v=0
18795 On ch=1 n=a5 v=0
18817 On ch=1 n=a3 v=127
18817 On ch=1 n=f4 v=125
18817 On ch=1 n=d4 v=127
18821 On ch=1 n=a4 v=127
18823 On ch=1 n=f6 v=127
18823 On ch=1 n=f5 v=127
18831 On ch=1 n=a4 v=0
18831 On ch=1 n=d4 v=0
18831 On ch=1 n=f4 v=0
18834 On ch=1 n=a3 v=0
18834 On ch=1 n=f6 v=0
18834 On ch=1 n=f5 v=0
18859 Par ch=1 c=64 v=0
18859 On ch=1 n=g#4 v=127
18861 On ch=1 n=e4 v=97
18861 On ch=1 n=e5 v=127
18861 On ch=1 n=d4 v=125
18861 On ch=1 n=e6 v=127
18861 On ch=1 n=b3 v=127
18861 On ch=1 n=a3 v=113
18872 On ch=1 n=e6 v=0
18872 On ch=1 n=e5 v=0
18875 Par ch=1 c=64 v=127
18878 On ch=1 n=g#4 v=0
18883 On ch=1 n=d4 v=0
18883 On ch=1 n=a3 v=0
18883 On ch=1 n=b3 v=0
18886 On ch=1 n=e4 v=0
18900 On ch=1 n=d5 v=127
18900 On ch=1 n=d6 v=127
18900 On ch=1 n=g#4 v=127
18903 On ch=1 n=e4 v=97
18903 On ch=1 n=a3 v=121
18903 On ch=1 n=d4 v=125
18903 On ch=1 n=b3 v=127
18911 On ch=1 n=d6 v=0
18914 On ch=1 n=d5 v=0
18916 On ch=1 n=g#4 v=0
18916 On ch=1 n=a3 v=0
18916 On ch=1 n=d4 v=0
18916 On ch=1 n=b3 v=0
18919 On ch=1 n=e4 v=0
18938 On ch=1 n=e4 v=101
18938 On ch=1 n=b4 v=127
18938 On ch=1 n=b5 v=127
18938 On ch=1 n=d4 v=125
18941 On ch=1 n=b3 v=127
18941 On ch=1 n=a3 v=125
18941 On ch=1 n=g#4 v=127
18952 On ch=1 n=b5 v=0
18952 On ch=1 n=b4 v=0
18955 On ch=1 n=a3 v=0
18955 On ch=1 n=d4 v=0
18955 On ch=1 n=e4 v=0
18955 On ch=1 n=g#4 v=0
18955 On ch=1 n=b3 v=0
18977 On ch=1 n=e4 v=109
18977 On ch=1 n=d4 v=125
18979 On ch=1 n=g#4 v=127
18979 On ch=1 n=g#4 v=127
18979 On ch=1 n=a3 v=121
18979 On ch=1 n=b3 v=127
18979 On ch=1 n=g#5 v=127
18990 On ch=1 n=g#5 v=0
18990 On ch=1 n=g#4 v=0
18993 On ch=1 n=a3 v=0
18996 On ch=1 n=e4 v=0
18996 On ch=1 n=d4 v=0
18996 On ch=1 n=b3 v=0
19006 On ch=1 n=g#4 v=0
19015 On ch=1 n=d4 v=121
19015 On ch=1 n=g#4 v=127
19015 On ch=1 n=a3 v=109
19015 On ch=1 n=e4 v=109
19018 On ch=1 n=b3 v=127
19018 On ch=1 n=f4 v=127
19018 On ch=1 n=f5 v=127
19026 On ch=1 n=f5 v=0
19026 On ch=1 n=f4 v=0
19029 On ch=1 n=g#4 v=0
19029 On ch=1 n=d4 v=0
19029 On ch=1 n=a3 v=0
19031 On ch=1 n=e4 v=0
19031 On ch=1 n=b3 v=0
19053 On ch=1 n=d4 v=125
19056 On ch=1 n=e5 v=127
19056 On ch=1 n=e4 v=101
19056 On ch=1 n=e4 v=127
19056 On ch=1 n=g#4 v=127
19056 On ch=1 n=b3 v=127
19056 On ch=1 n=a3 v=117
19060 Par ch=1 c=64 v=0
19070 On ch=1 n=a3 v=0
19070 On ch=1 n=g#4 v=0
19070 On ch=1 n=d4 v=0
19070 On ch=1 n=e4 v=0
19070 On ch=1 n=b3 v=0
19081 On ch=1 n=e5 v=0
19083 On ch=1 n=e4 v=0
19092 On ch=1 n=a2 v=127
19092 On ch=1 n=e3 v=127
19092 On ch=1 n=a3 v=127
19094 On ch=1 n=c5 v=125
19094 On ch=1 n=a5 v=127
19145 On ch=1 n=a2 v=0
19147 On ch=1 n=c5 v=0
19147 On ch=1 n=e3 v=0
19147 On ch=1 n=a3 v=0
19149 On ch=1 n=a5 v=0
19174 On ch=1 n=a4 v=127
19174 On ch=1 n=a3 v=127
19182 Par ch=1 c=64 v=127
19190 On ch=1 n=a4 v=0
19193 On ch=1 n=a3 v=0
19218 On ch=1 n=a4 v=127
19218 On ch=1 n=a3 v=127
19226 On ch=1 n=a3 v=0
19226 On ch=1 n=a4 v=0
19256 On ch=1 n=a3 v=127
19256 On ch=1 n=a4 v=127
19265 On ch=1 n=a4 v=0
19267 On ch=1 n=a3 v=0
19300 On ch=1 n=d3 v=127
19300 On ch=1 n=a3 v=127
19300 On ch=1 n=f4 v=127
19300 On ch=1 n=a4 v=127
19303 On ch=1 n=a#3 v=127
19303 On ch=1 n=a#4 v=127
19309 On ch=1 n=f4 v=0
19309 On ch=1 n=a3 v=0
19311 On ch=1 n=a4 v=0
19311 On ch=1 n=d3 v=0
19343 On ch=1 n=a3 v=127
19343 On ch=1 n=d3 v=127
19343 On ch=1 n=a4 v=127
19344 On ch=1 n=f4 v=127
19352 On ch=1 n=f4 v=0
19352 On ch=1 n=d3 v=0
19352 On ch=1 n=a3 v=0
19352 On ch=1 n=a4 v=0
19383 On ch=1 n=a3 v=127
19383 On ch=1 n=d3 v=127
19383 On ch=1 n=a4 v=127
19386 On ch=1 n=f4 v=127
19391 On ch=1 n=f4 v=0
19391 On ch=1 n=a3 v=0
19391 On ch=1 n=a4 v=0
19394 On ch=1 n=d3 v=0
19421 On ch=1 n=f4 v=127
19424 On ch=1 n=a3 v=125
19424 On ch=1 n=a4 v=127
19424 On ch=1 n=d3 v=127
19432 On ch=1 n=f4 v=0
19435 On ch=1 n=a4 v=0
19435 On ch=1 n=a3 v=0
19435 On ch=1 n=d3 v=0
19462 On ch=1 n=b3 v=127
19462 On ch=1 n=b4 v=127
19465 On ch=1 n=a#3 v=0
19465 On ch=1 n=a3 v=127
19465 On ch=1 n=a4 v=127
19465 On ch=1 n=d#3 v=127
19465 On ch=1 n=f#4 v=127
19468 On ch=1 n=a#4 v=0
19474 On ch=1 n=d#3 v=0
19474 On ch=1 n=f#4 v=0
19475 On ch=1 n=a4 v=0
19476 On ch=1 n=a3 v=0
19504 On ch=1 n=f#4 v=127
19504 On ch=1 n=a3 v=127
19504 On ch=1 n=d#3 v=127
19504 On ch=1 n=a4 v=127
19509 On ch=1 n=a4 v=0
19509 On ch=1 n=f#4 v=0
19509 On ch=1 n=d#3 v=0
19515 On ch=1 n=a3 v=0
19540 On ch=1 n=b3 v=0
19542 On ch=1 n=b4 v=0
19547 On ch=1 n=c4 v=127
19547 On ch=1 n=a2 v=127
19547 On ch=1 n=a3 v=127
19547 On ch=1 n=c5 v=127
19547 On ch=1 n=e4 v=127
19550 On ch=1 n=c3 v=127
19550 On ch=1 n=e3 v=127
19550 On ch=1 n=a4 v=127
19553 Par ch=1 c=64 v=0
19583 On ch=1 n=c3 v=0
19584 On ch=1 n=a4 v=0
19584 On ch=1 n=e4 v=0
19584 On ch=1 n=a2 v=0
19584 On ch=1 n=c4 v=0
19584 On ch=1 n=e3 v=0
19586 On ch=1 n=c5 v=0
19589 On ch=1 n=a3 v=0
19657 On ch=1 n=a4 v=127
19657 On ch=1 n=a3 v=127
19666 Par ch=1 c=64 v=127
19668 On ch=1 n=a4 v=0
19672 On ch=1 n=a3 v=0
19699 On ch=1 n=a3 v=127
19701 On ch=1 n=a4 v=127
19710 On ch=1 n=a4 v=0
19710 On ch=1 n=a3 v=0
19740 On ch=1 n=a3 v=125
19740 On ch=1 n=a4 v=127
19751 On ch=1 n=a4 v=0
19751 On ch=1 n=a3 v=0
19778 On ch=1 n=a#3 v=127
19778 On ch=1 n=a#4 v=127
19782 On ch=1 n=a4 v=127
19784 On ch=1 n=d3 v=127
19784 On ch=1 n=a3 v=127
19784 On ch=1 n=f4 v=127
19792 On ch=1 n=f4 v=0
19792 On ch=1 n=a4 v=0
19792 On ch=1 n=d3 v=0
19795 On ch=1 n=a3 v=0
19825 On ch=1 n=d3 v=127
19825 On ch=1 n=a3 v=127
19825 On ch=1 n=f4 v=127
19826 On ch=1 n=a4 v=127
19830 On ch=1 n=f4 v=0
19833 On ch=1 n=d3 v=0
19833 On ch=1 n=a4 v=0
19836 On ch=1 n=a3 v=0
19861 On ch=1 n=b3 v=127
19861 On ch=1 n=b4 v=127
19863 On ch=1 n=a#3 v=0
19866 On ch=1 n=a#4 v=0
19866 On ch=1 n=a4 v=127
19866 On ch=1 n=f#4 v=127
19866 On ch=1 n=a3 v=127
19866 On ch=1 n=d#3 v=127
19874 On ch=1 n=d#3 v=0
19874 On ch=1 n=a4 v=0
19874 On ch=1 n=f#4 v=0
19877 On ch=1 n=a3 v=0
19905 On ch=1 n=d#3 v=127
19905 On ch=1 n=a3 v=127
19905 On ch=1 n=f#4 v=127
19905 On ch=1 n=a4 v=127
19913 On ch=1 n=a4 v=0
19913 On ch=1 n=d#3 v=0
19913 On ch=1 n=f#4 v=0
19914 On ch=1 n=b3 v=0
19914 On ch=1 n=a3 v=0
19918 On ch=1 n=b4 v=0
19949 On ch=1 n=a2 v=127
19949 On ch=1 n=a4 v=127
19949 On ch=1 n=a3 v=127
19949 On ch=1 n=e4 v=127
19949 On ch=1 n=c4 v=127
19951 On ch=1 n=c3 v=127
19951 On ch=1 n=e3 v=127
19951 On ch=1 n=c5 v=127
19957 Par ch=1 c=64 v=0
19984 On ch=1 n=e3 v=0
19984 On ch=1 n=e4 v=0
19984 On ch=1 n=c4 v=0
19984 On ch=1 n=a3 v=0
19984 On ch=1 n=c3 v=0
19987 On ch=1 n=c5 v=0
19987 On ch=1 n=a2 v=0
19987 On ch=1 n=a4 v=0
20017 On ch=1 n=a4 v=127
20017 On ch=1 n=a3 v=127
20031 On ch=1 n=a4 v=0
20034 On ch=1 n=a3 v=0
20058 On ch=1 n=a4 v=127
20058 On ch=1 n=f4 v=127
20058 On ch=1 n=a3 v=127
20061 On ch=1 n=a#4 v=127
20061 On ch=1 n=d3 v=127
20078 On ch=1 n=f4 v=0
20080 On ch=1 n=a4 v=0
20080 On ch=1 n=d3 v=0
20080 On ch=1 n=a3 v=0
20083 On ch=1 n=a#4 v=0
20105 On ch=1 n=b4 v=127
20105 On ch=1 n=a3 v=127
20108 On ch=1 n=d#3 v=127
20108 On ch=1 n=a4 v=127
20108 On ch=1 n=f#4 v=127
20130 On ch=1 n=d#3 v=0
20133 On ch=1 n=a4 v=0
20133 On ch=1 n=f#4 v=0
20133 On ch=1 n=a3 v=0
20135 On ch=1 n=b4 v=0
20152 On ch=1 n=c5 v=113
20152 On ch=1 n=a2 v=127
20155 On ch=1 n=a4 v=127
20155 On ch=1 n=e4 v=125
20155 On ch=1 n=a3 v=127
20171 On ch=1 n=e4 v=0
20171 On ch=1 n=a2 v=0
20174 On ch=1 n=c5 v=0
20174 On ch=1 n=a4 v=0
20174 On ch=1 n=a3 v=0
20198 On ch=1 n=d5 v=127
20198 On ch=1 n=a3 v=127
20200 On ch=1 n=d3 v=127
20200 On ch=1 n=a#4 v=127
20200 On ch=1 n=f4 v=127
20218 On ch=1 n=d3 v=0
20221 On ch=1 n=a3 v=0
20222 On ch=1 n=d5 v=0
20222 On ch=1 n=a#4 v=0
20222 On ch=1 n=f4 v=0
20243 On ch=1 n=f#4 v=127
20243 On ch=1 n=a3 v=127
20243 On ch=1 n=d3 v=127
20245 On ch=1 n=d#5 v=127
20245 On ch=1 n=b4 v=127
20265 On ch=1 n=f#4 v=0
20267 On ch=1 n=d#5 v=0
20267 On ch=1 n=a3 v=0
20267 On ch=1 n=d3 v=0
20267 On ch=1 n=b4 v=0
20289 On ch=1 n=e5 v=127
20289 On ch=1 n=a4 v=127
20289 On ch=1 n=a3 v=127
20292 On ch=1 n=a2 v=127
20292 On ch=1 n=c5 v=127
20314 On ch=1 n=c5 v=0
20314 On ch=1 n=a3 v=0
20314 On ch=1 n=e5 v=0
20314 On ch=1 n=a4 v=0
20314 On ch=1 n=a2 v=0
20339 On ch=1 n=d4 v=127
20339 On ch=1 n=f5 v=127
20339 On ch=1 n=a#4 v=127
20341 On ch=1 n=a4 v=127
20341 On ch=1 n=d3 v=127
20358 On ch=1 n=d3 v=0
20361 On ch=1 n=d4 v=0
20361 On ch=1 n=a#4 v=0
20361 On ch=1 n=f5 v=0
20363 On ch=1 n=a4 v=0
20388 On ch=1 n=d#3 v=127
20388 On ch=1 n=f#5 v=127
20388 On ch=1 n=d#4 v=127
20391 On ch=1 n=a4 v=127
20391 On ch=1 n=b4 v=127
20413 On ch=1 n=a4 v=0
20413 On ch=1 n=d#4 v=0
20415 On ch=1 n=b4 v=0
20416 On ch=1 n=f#5 v=0
20416 On ch=1 n=d#3 v=0
20437 On ch=1 n=a3 v=127
20437 On ch=1 n=c5 v=127
20437 On ch=1 n=a2 v=127
20437 On ch=1 n=e5 v=127
20437 On ch=1 n=a5 v=127
20459 On ch=1 n=e5 v=0
20459 On ch=1 n=a2 v=0
20459 On ch=1 n=a3 v=0
20459 On ch=1 n=c5 v=0
20463 On ch=1 n=a5 v=0
20487 On ch=1 n=d4 v=127
20487 On ch=1 n=a#5 v=127
20487 On ch=1 n=f5 v=127
20487 On ch=1 n=d3 v=127
20487 On ch=1 n=a5 v=127
20507 On ch=1 n=d3 v=0
20509 On ch=1 n=f5 v=0
20509 On ch=1 n=d4 v=0
20509 On ch=1 n=a#5 v=0
20509 On ch=1 n=a5 v=0
20534 On ch=1 n=a5 v=127
20534 On ch=1 n=d#3 v=127
20534 On ch=1 n=f#5 v=127
20534 On ch=1 n=d#4 v=127
20536 On ch=1 n=b5 v=127
20556 On ch=1 n=d#4 v=0
20556 On ch=1 n=d#3 v=0
20557 On ch=1 n=b5 v=0
20558 On ch=1 n=f#5 v=0
20558 On ch=1 n=a5 v=0
20586 On ch=1 n=e5 v=127
20586 On ch=1 n=c6 v=127
20586 On ch=1 n=a2 v=127
20586 On ch=1 n=a5 v=127
20586 On ch=1 n=a3 v=127
20608 On ch=1 n=a3 v=0
20610 On ch=1 n=a2 v=0
20610 On ch=1 n=a5 v=0
20610 On ch=1 n=e5 v=0
20613 On ch=1 n=c6 v=0
20632 On ch=1 n=f6 v=127
20632 On ch=1 n=a5 v=127
20632 On ch=1 n=a#5 v=127
20635 On ch=1 n=d3 v=127
20635 On ch=1 n=d4 v=127
20657 On ch=1 n=d3 v=0
20657 On ch=1 n=a#5 v=0
20657 On ch=1 n=a5 v=0
20660 On ch=1 n=f6 v=0
20660 On ch=1 n=d4 v=0
20687 On ch=1 n=f#6 v=127
20687 On ch=1 n=a5 v=127
20687 On ch=1 n=b5 v=127
20687 On ch=1 n=d#3 v=127
20687 On ch=1 n=d#4 v=127
20712 On ch=1 n=d#4 v=0
20712 On ch=1 n=b5 v=0
20712 On ch=1 n=d#3 v=0
20712 On ch=1 n=a5 v=0
20715 On ch=1 n=f#6 v=0
20737 On ch=1 n=a5 v=127
20737 On ch=1 n=a3 v=127
20737 On ch=1 n=c6 v=127
20737 On ch=1 n=e6 v=127
20737 On ch=1 n=a6 v=127
20740 On ch=1 n=a2 v=127
20762 On ch=1 n=a2 v=0
20762 On ch=1 n=a5 v=0
20762 On ch=1 n=c6 v=0
20762 On ch=1 n=e6 v=0
20766 On ch=1 n=a3 v=0
20767 On ch=1 n=a6 v=0
20786 On ch=1 n=f6 v=127
20786 On ch=1 n=d4 v=127
20786 On ch=1 n=a6 v=127
20786 On ch=1 n=d3 v=127
20786 On ch=1 n=a#6 v=127
20814 On ch=1 n=d3 v=0
20814 On ch=1 n=d4 v=0
20815 On ch=1 n=f6 v=0
20815 On ch=1 n=a6 v=0
20815 On ch=1 n=a#6 v=0
20839 On ch=1 n=f#6 v=127
20839 On ch=1 n=d#4 v=127
20839 On ch=1 n=a6 v=127
20839 On ch=1 n=d#3 v=127
20839 On ch=1 n=b6 v=127
20860 On ch=1 n=d#3 v=0
20860 On ch=1 n=d#4 v=0
20863 On ch=1 n=b6 v=0
20863 On ch=1 n=a6 v=0
20866 On ch=1 n=f#6 v=0
20891 On ch=1 n=a6 v=127
20891 On ch=1 n=c7 v=127
20891 On ch=1 n=e6 v=127
20891 On ch=1 n=a3 v=127
20894 On ch=1 n=a2 v=127
20916 On ch=1 n=a2 v=0
20918 On ch=1 n=c7 v=0
20918 On ch=1 n=a6 v=0
20918 On ch=1 n=a3 v=0
20921 On ch=1 n=e6 v=0
20943 On ch=1 n=d4 v=127
20943 On ch=1 n=a#6 v=127
20946 On ch=1 n=d3 v=127
20946 On ch=1 n=a6 v=127
20946 On ch=1 n=f7 v=127
20968 On ch=1 n=d3 v=0
20968 On ch=1 n=d4 v=0
20970 On ch=1 n=f7 v=0
20970 On ch=1 n=a#6 v=0
20973 On ch=1 n=a6 v=0
20998 On ch=1 n=d#4 v=127
20998 On ch=1 n=a6 v=127
20998 On ch=1 n=b6 v=127
20998 On ch=1 n=f#7 v=127
21000 On ch=1 n=d#3 v=127
21026 On ch=1 n=d#3 v=0
21026 On ch=1 n=d#4 v=0
21026 On ch=1 n=f#7 v=0
21028 On ch=1 n=b6 v=0
21028 On ch=1 n=a6 v=0
21055 On ch=1 n=e7 v=127
21055 On ch=1 n=a6 v=127
21055 On ch=1 n=a2 v=127
21055 On ch=1 n=a7 v=127
21055 On ch=1 n=a3 v=127
21057 On ch=1 n=c7 v=127
21127 On ch=1 n=a7 v=0
21130 On ch=1 n=a6 v=0
21130 On ch=1 n=a2 v=0
21130 On ch=1 n=e7 v=0
21130 On ch=1 n=c7 v=0
21130 On ch=1 n=a3 v=0
21165 On ch=1 n=a3 v=127
21165 On ch=1 n=a#7 v=127
21165 On ch=1 n=a#6 v=127
21165 On ch=1 n=d4 v=127
21165 On ch=1 n=f7 v=127
21165 On ch=1 n=d3 v=127
21168 On ch=1 n=a7 v=127
21248 On ch=1 n=a7 v=0
21248 On ch=1 n=a#7 v=0
21248 On ch=1 n=d4 v=0
21250 On ch=1 n=a3 v=0
21251 On ch=1 n=d3 v=0
21251 On ch=1 n=a#6 v=0
21251 On ch=1 n=f7 v=0
21278 On ch=1 n=e7 v=127
21278 On ch=1 n=a7 v=127
21281 On ch=1 n=b6 v=127
21281 On ch=1 n=d#4 v=127
21281 On ch=1 n=a3 v=127
21281 On ch=1 n=d#3 v=127
21281 On ch=1 n=b7 v=127
21347 On ch=1 n=d#4 v=0
21349 On ch=1 n=d#3 v=0
21349 On ch=1 n=e7 v=0
21349 On ch=1 n=b6 v=0
21349 On ch=1 n=a3 v=0
21349 On ch=1 n=b7 v=0
21352 On ch=1 n=a7 v=0
21399 On ch=1 n=c7 v=127
21399 On ch=1 n=a3 v=127
21399 On ch=1 n=e7 v=127
21400 On ch=1 n=c8 v=127
21400 On ch=1 n=a2 v=127
21400 On ch=1 n=a7 v=127
21470 On ch=1 n=a3 v=0
21473 On ch=1 n=a2 v=0
21473 On ch=1 n=c8 v=0
21478 On ch=1 n=c7 v=0
21478 On ch=1 n=a7 v=0
21478 On ch=1 n=e7 v=0
21520 On ch=1 n=f7 v=127
21520 On ch=1 n=a#7 v=127
21522 On ch=1 n=f8 v=127
21522 On ch=1 n=a#3 v=127
21522 On ch=1 n=d3 v=127
21522 On ch=1 n=f3 v=127
21522 On ch=1 n=d4 v=127
21597 On ch=1 n=f8 v=0
21598 On ch=1 n=d3 v=0
21598 On ch=1 n=a#3 v=0
21599 On ch=1 n=f3 v=0
21599 On ch=1 n=a#7 v=0
21599 On ch=1 n=d4 v=0
21602 On ch=1 n=f7 v=0
21868 On ch=1 n=e4 v=127
21868 On ch=1 n=g#7 v=127
21868 On ch=1 n=d8 v=127
21868 On ch=1 n=e3 v=127
21871 On ch=1 n=b3 v=127
21871 On ch=1 n=e7 v=127
21871 On ch=1 n=g#3 v=127
21871 On ch=1 n=d7 v=127
21871 On ch=1 n=b7 v=127
21954 On ch=1 n=g#3 v=0
21956 On ch=1 n=d7 v=0
21956 On ch=1 n=e3 v=0
21956 On ch=1 n=b3 v=0
21956 On ch=1 n=e4 v=0
21956 On ch=1 n=d8 v=0
21956 On ch=1 n=e7 v=0
21962 On ch=1 n=g#7 v=0
21965 On ch=1 n=b7 v=0
22055 On ch=1 n=e5 v=127
22055 On ch=1 n=e6 v=127
22055 Par ch=1 c=64 v=127
22059 On ch=1 n=e4 v=127
22085 On ch=1 n=e5 v=0
22091 On ch=1 n=e6 v=0
22096 On ch=1 n=e4 v=0
22157 On ch=1 n=e5 v=127
22157 On ch=1 n=e4 v=127
22160 On ch=1 n=e6 v=127
22179 On ch=1 n=e6 v=0
22179 On ch=1 n=e5 v=0
22182 On ch=1 n=e4 v=0
22245 On ch=1 n=e4 v=127
22250 On ch=1 n=e5 v=127
22250 On ch=1 n=e6 v=127
22267 On ch=1 n=e5 v=0
22269 On ch=1 n=e4 v=0
22272 On ch=1 n=e6 v=0
22366 On ch=1 n=c6 v=127
22367 On ch=1 n=e5 v=127
22368 On ch=1 n=e6 v=127
22368 On ch=1 n=e4 v=127
22371 On ch=1 n=a3 v=127
22412 Par ch=1 c=64 v=0
22462 Par ch=1 c=64 v=127
22583 On ch=1 n=c6 v=0
22591 On ch=1 n=e5 v=0
22591 On ch=1 n=a3 v=0
22594 On ch=1 n=e6 v=0
22594 On ch=1 n=e4 v=0
22723 Par ch=1 c=64 v=0
23006 Par ch=1 c=1 v=0
23006 Meta TrkEnd
TrkEnd
MTrk
0 Meta 0x21 00
0 PrCh ch=1 p=0
0 Meta TrkEnd
TrkEnd
MTrk
0 Meta 0x21 00
0 PrCh ch=1 p=0
0 Meta TrkEnd
TrkEnd
MTrk
0 Meta 0x21 00
0 Meta TrkName "This MIDI file, difficult"
0 Meta TrkEnd
TrkEnd
MTrk
0 Meta 0x21 00
0 Meta TrkName "to render in electronic"
0 Meta TrkEnd
TrkEnd
MTrk
0 Meta 0x21 00
0 Meta TrkName "form due to its"
0 Meta TrkEnd
TrkEnd
MTrk
0 Meta 0x21 00
0 Meta TrkName "percussive qualities,"
0 Meta TrkEnd
TrkEnd
MTrk
0 Meta 0x21 00
0 Meta TrkName "is the sec"
