MFile 1 2 256
MTrk
0 TimeSig 4/4 24 8
0 KeySig -6 major
0 TimeSig 4/4 24 8
0 Tempo 394736
50176 Tempo 1000000
50177 Meta TrkEnd
TrkEnd
MTrk
0 Meta TrkName "Piano"
0 Par ch=1 c=91 v=60
0 Par ch=1 c=10 v=76
0 Par ch=2 c=91 v=60
0 Par ch=2 c=10 v=50
0 Par ch=2 c=0 v=0
0 Par ch=2 c=32 v=0
0 PrCh ch=2 p=0
0 On ch=2 n=d#3 v=44
127 On ch=2 n=d#3 v=0
128 Par ch=1 c=0 v=0
128 Par ch=1 c=32 v=0
128 PrCh ch=1 p=0
128 On ch=1 n=f#5 v=44
128 On ch=1 n=d#6 v=42
128 On ch=2 n=a#3 v=53
192 On ch=1 n=f#5 v=0
192 On ch=1 n=d#6 v=0
192 On ch=1 n=a#5 v=47
192 On ch=1 n=d6 v=44
255 On ch=2 n=a#3 v=0
256 On ch=1 n=a#5 v=0
256 On ch=1 n=d6 v=0
256 On ch=1 n=f#5 v=52
256 On ch=1 n=d#6 v=53
256 On ch=2 n=a4 v=59
320 On ch=1 n=f#5 v=0
320 On ch=1 n=d#6 v=0
320 On ch=1 n=g#5 v=45
320 On ch=1 n=d6 v=47
383 On ch=2 n=a4 v=0
384 On ch=1 n=g#5 v=0
384 On ch=1 n=d6 v=0
384 On ch=1 n=f5 v=45
384 On ch=1 n=c#6 v=44
384 On ch=2 n=a#4 v=50
448 On ch=1 n=f5 v=0
448 On ch=1 n=c#6 v=0
448 On ch=1 n=g#5 v=50
448 On ch=1 n=d6 v=48
511 On ch=2 n=a#4 v=0
512 On ch=1 n=g#5 v=0
512 On ch=1 n=d6 v=0
512 On ch=1 n=f#5 v=55
512 On ch=1 n=d#6 v=55
512 On ch=2 n=d#4 v=42
576 On ch=1 n=f#5 v=0
576 On ch=1 n=d#6 v=0
576 On ch=1 n=a#5 v=46
576 On ch=1 n=d6 v=48
639 On ch=2 n=d#4 v=0
640 On ch=1 n=a#5 v=0
640 On ch=1 n=d6 v=0
640 On ch=1 n=f#5 v=49
640 On ch=1 n=d#6 v=49
640 On ch=2 n=a#4 v=53
704 On ch=1 n=f#5 v=0
704 On ch=1 n=d#6 v=0
704 On ch=1 n=a#5 v=64
704 On ch=1 n=f6 v=66
767 On ch=2 n=a#4 v=0
768 On ch=1 n=a#5 v=0
768 On ch=1 n=f6 v=0
768 On ch=1 n=a#5 v=76
768 On ch=1 n=f#6 v=76
768 On ch=2 n=f5 v=58
832 On ch=1 n=a#5 v=0
832 On ch=1 n=f#6 v=0
832 On ch=1 n=d#6 v=89
832 On ch=1 n=g#6 v=88
895 On ch=2 n=f5 v=0
896 On ch=1 n=d#6 v=0
896 On ch=1 n=g#6 v=0
896 On ch=1 n=c#6 v=103
896 On ch=1 n=a#6 v=102
896 On ch=2 n=f#5 v=51
960 On ch=1 n=c#6 v=0
960 On ch=1 n=a#6 v=0
960 On ch=1 n=d#6 v=90
960 On ch=1 n=g#6 v=89
1023 On ch=2 n=f#5 v=0
1024 On ch=1 n=d#6 v=0
1024 On ch=1 n=g#6 v=0
1024 On ch=1 n=c6 v=103
1024 On ch=1 n=a#6 v=105
1024 On ch=2 n=g#3 v=37
1088 On ch=1 n=c6 v=0
1088 On ch=1 n=a#6 v=0
1088 On ch=1 n=d#6 v=90
1088 On ch=1 n=g#6 v=88
1151 On ch=2 n=g#3 v=0
1152 On ch=1 n=d#6 v=0
1152 On ch=1 n=g#6 v=0
1152 On ch=1 n=b5 v=90
1152 On ch=1 n=g6 v=88
1152 On ch=2 n=d#4 v=53
1216 On ch=1 n=b5 v=0
1216 On ch=1 n=g6 v=0
1216 On ch=1 n=d#6 v=99
1216 On ch=1 n=g#6 v=100
1279 On ch=2 n=d#4 v=0
1280 On ch=1 n=d#6 v=0
1280 On ch=1 n=g#6 v=0
1280 On ch=1 n=a#5 v=96
1280 On ch=1 n=g6 v=92
1280 On ch=2 n=a#4 v=57
1344 On ch=1 n=a#5 v=0
1344 On ch=1 n=g6 v=0
1344 On ch=1 n=d#6 v=89
1344 On ch=1 n=f#6 v=90
1407 On ch=2 n=a#4 v=0
1408 On ch=1 n=d#6 v=0
1408 On ch=1 n=f#6 v=0
1408 On ch=1 n=a5 v=91
1408 On ch=1 n=f6 v=91
1408 On ch=2 n=b4 v=51
1472 On ch=1 n=a5 v=0
1472 On ch=1 n=f6 v=0
1472 On ch=1 n=d#6 v=99
1472 On ch=1 n=f#6 v=100
1535 On ch=2 n=b4 v=0
1536 On ch=1 n=d#6 v=0
1536 On ch=1 n=f#6 v=0
1536 On ch=1 n=g#5 v=93
1536 On ch=1 n=f6 v=95
1536 On ch=2 n=d#5 v=56
1600 On ch=1 n=g#5 v=0
1600 On ch=1 n=f6 v=0
1600 On ch=1 n=b5 v=89
1600 On ch=1 n=e6 v=90
1663 On ch=2 n=d#5 v=0
1664 On ch=1 n=b5 v=0
1664 On ch=1 n=e6 v=0
1664 On ch=1 n=g5 v=91
1664 On ch=1 n=d#6 v=88
1664 On ch=2 n=d5 v=46
1728 On ch=1 n=g5 v=0
1728 On ch=1 n=d#6 v=0
1728 On ch=1 n=b5 v=85
1728 On ch=1 n=e6 v=86
1791 On ch=2 n=d5 v=0
1792 On ch=1 n=b5 v=0
1792 On ch=1 n=e6 v=0
1792 On ch=1 n=f#5 v=70
1792 On ch=1 n=d#6 v=73
1792 On ch=2 n=a#4 v=40
1856 On ch=1 n=f#5 v=0
1856 On ch=1 n=d#6 v=0
1856 On ch=1 n=a#5 v=56
1856 On ch=1 n=d6 v=57
1919 On ch=2 n=a#4 v=0
1920 On ch=1 n=a#5 v=0
1920 On ch=1 n=d6 v=0
1920 On ch=1 n=f5 v=44
1920 On ch=1 n=c#6 v=44
1920 On ch=2 n=a#3 v=35
1984 On ch=1 n=f5 v=0
1984 On ch=1 n=c#6 v=0
1984 On ch=1 n=g#5 v=48
1984 On ch=1 n=d6 v=47
2047 On ch=2 n=a#3 v=0
2048 On ch=1 n=g#5 v=0
2048 On ch=1 n=d6 v=0
2048 On ch=1 n=f#5 v=53
2048 On ch=1 n=d#6 v=55
2048 On ch=2 n=d#3 v=40
2175 On ch=1 n=f#5 v=0
2175 On ch=1 n=d#6 v=0
2175 On ch=2 n=d#3 v=0
2176 On ch=1 n=f#5 v=50
2176 On ch=1 n=d#6 v=53
2176 On ch=2 n=a#3 v=54
2240 On ch=1 n=f#5 v=0
2240 On ch=1 n=d#6 v=0
2240 On ch=1 n=a#5 v=45
2240 On ch=1 n=d6 v=43
2303 On ch=2 n=a#3 v=0
2304 On ch=1 n=a#5 v=0
2304 On ch=1 n=d6 v=0
2304 On ch=1 n=f#5 v=52
2304 On ch=1 n=d#6 v=51
2304 On ch=2 n=a4 v=60
2368 On ch=1 n=f#5 v=0
2368 On ch=1 n=d#6 v=0
2368 On ch=1 n=a5 v=43
2368 On ch=1 n=d6 v=45
2431 On ch=2 n=a4 v=0
2432 On ch=1 n=a5 v=0
2432 On ch=1 n=d6 v=0
2432 On ch=1 n=f5 v=46
2432 On ch=1 n=c#6 v=45
2432 On ch=2 n=a#4 v=53
2496 On ch=1 n=f5 v=0
2496 On ch=1 n=c#6 v=0
2496 On ch=1 n=g#5 v=50
2496 On ch=1 n=d6 v=50
2559 On ch=2 n=a#4 v=0
2560 On ch=1 n=g#5 v=0
2560 On ch=1 n=d6 v=0
2560 On ch=1 n=f#5 v=55
2560 On ch=1 n=d#6 v=53
2560 On ch=2 n=d#4 v=45
2624 On ch=1 n=f#5 v=0
2624 On ch=1 n=d#6 v=0
2624 On ch=1 n=a#5 v=45
2624 On ch=1 n=d6 v=45
2687 On ch=2 n=d#4 v=0
2688 On ch=1 n=a#5 v=0
2688 On ch=1 n=d6 v=0
2688 On ch=1 n=f#5 v=59
2688 On ch=1 n=d#6 v=59
2688 On ch=2 n=a#4 v=56
2752 On ch=1 n=f#5 v=0
2752 On ch=1 n=d#6 v=0
2752 On ch=1 n=a#5 v=69
2752 On ch=1 n=f6 v=66
2815 On ch=2 n=a#4 v=0
2816 On ch=1 n=a#5 v=0
2816 On ch=1 n=f6 v=0
2816 On ch=1 n=a#5 v=77
2816 On ch=1 n=f#6 v=79
2816 On ch=2 n=f5 v=56
2880 On ch=1 n=a#5 v=0
2880 On ch=1 n=f#6 v=0
2880 On ch=1 n=d#6 v=84
2880 On ch=1 n=g#6 v=85
2943 On ch=2 n=f5 v=0
2944 On ch=1 n=d#6 v=0
2944 On ch=1 n=g#6 v=0
2944 On ch=1 n=c#6 v=95
2944 On ch=1 n=a#6 v=94
2944 On ch=2 n=f#5 v=50
3008 On ch=1 n=c#6 v=0
3008 On ch=1 n=a#6 v=0
3008 On ch=1 n=d#6 v=89
3008 On ch=1 n=g#6 v=91
3071 On ch=2 n=f#5 v=0
3072 On ch=1 n=d#6 v=0
3072 On ch=1 n=g#6 v=0
3072 On ch=1 n=c6 v=105
3072 On ch=1 n=a#6 v=105
3072 On ch=2 n=g#3 v=40
3136 On ch=1 n=c6 v=0
3136 On ch=1 n=a#6 v=0
3136 On ch=1 n=d#6 v=90
3136 On ch=1 n=g#6 v=90
3199 On ch=2 n=g#3 v=0
3200 On ch=1 n=d#6 v=0
3200 On ch=1 n=g#6 v=0
3200 On ch=1 n=b5 v=88
3200 On ch=1 n=g6 v=90
3200 On ch=2 n=d#4 v=55
3264 On ch=1 n=b5 v=0
3264 On ch=1 n=g6 v=0
3264 On ch=1 n=d#6 v=98
3264 On ch=1 n=g#6 v=100
3327 On ch=2 n=d#4 v=0
3328 On ch=1 n=d#6 v=0
3328 On ch=1 n=g#6 v=0
3328 On ch=1 n=a#5 v=93
3328 On ch=1 n=g6 v=95
3328 On ch=2 n=a#4 v=57
3392 On ch=1 n=a#5 v=0
3392 On ch=1 n=g6 v=0
3392 On ch=1 n=d#6 v=88
3392 On ch=1 n=f#6 v=91
3455 On ch=2 n=a#4 v=0
3456 On ch=1 n=d#6 v=0
3456 On ch=1 n=f#6 v=0
3456 On ch=1 n=a5 v=91
3456 On ch=1 n=f6 v=88
3456 On ch=2 n=b4 v=51
3520 On ch=1 n=a5 v=0
3520 On ch=1 n=f6 v=0
3520 On ch=1 n=d#6 v=101
3520 On ch=1 n=f#6 v=98
3584 On ch=1 n=d#6 v=0
3584 On ch=1 n=f#6 v=0
3584 On ch=1 n=g#5 v=95
3584 On ch=1 n=f6 v=96
3648 On ch=1 n=g#5 v=0
3648 On ch=1 n=f6 v=0
3648 On ch=1 n=b5 v=90
3648 On ch=1 n=e6 v=90
3711 On ch=2 n=b4 v=0
3712 On ch=1 n=b5 v=0
3712 On ch=1 n=e6 v=0
3712 On ch=1 n=g5 v=88
3712 On ch=1 n=d6 v=91
3712 On ch=2 n=a#4 v=43
3776 On ch=1 n=g5 v=0
3776 On ch=1 n=d6 v=0
3776 On ch=1 n=b5 v=88
3776 On ch=1 n=d#6 v=88
3839 On ch=2 n=a#4 v=0
3840 On ch=1 n=b5 v=0
3840 On ch=1 n=d#6 v=0
3840 On ch=1 n=f#5 v=72
3840 On ch=1 n=d6 v=71
3840 On ch=2 n=g#4 v=44
3904 On ch=1 n=f#5 v=0
3904 On ch=1 n=d6 v=0
3904 On ch=1 n=b5 v=56
3904 On ch=1 n=c#6 v=56
3967 On ch=2 n=g#4 v=0
3968 On ch=1 n=b5 v=0
3968 On ch=1 n=c#6 v=0
3968 On ch=1 n=f5 v=48
3968 On ch=1 n=d#6 v=50
3968 On ch=2 n=c#4 v=37
4032 On ch=1 n=f5 v=0
4032 On ch=1 n=d#6 v=0
4032 On ch=1 n=b5 v=52
4032 On ch=1 n=f6 v=51
4095 On ch=2 n=c#4 v=0
4096 On ch=1 n=b5 v=0
4096 On ch=1 n=f6 v=0
4096 On ch=1 n=a#5 v=54
4096 On ch=1 n=f#6 v=54
4096 On ch=2 n=f#3 v=41
4223 On ch=1 n=a#5 v=0
4223 On ch=1 n=f#6 v=0
4223 On ch=2 n=f#3 v=0
4224 On ch=1 n=a#5 v=53
4224 On ch=1 n=f#6 v=53
4224 On ch=2 n=c#4 v=54
4282 On ch=1 n=a#5 v=0
4282 On ch=1 n=f#6 v=0
4288 On ch=1 n=c#6 v=46
4288 On ch=1 n=f6 v=43
4346 On ch=1 n=c#6 v=0
4346 On ch=1 n=f6 v=0
4351 On ch=2 n=c#4 v=0
4352 On ch=1 n=a5 v=51
4352 On ch=1 n=f#6 v=52
4352 On ch=2 n=c5 v=63
4410 On ch=1 n=a5 v=0
4410 On ch=1 n=f#6 v=0
4416 On ch=1 n=c6 v=46
4416 On ch=1 n=f6 v=46
4474 On ch=1 n=c6 v=0
4474 On ch=1 n=f6 v=0
4479 On ch=2 n=c5 v=0
4480 On ch=1 n=g#5 v=44
4480 On ch=1 n=d#6 v=45
4480 On ch=2 n=c#5 v=51
4538 On ch=1 n=g#5 v=0
4538 On ch=1 n=d#6 v=0
4544 On ch=1 n=b5 v=52
4544 On ch=1 n=f6 v=52
4602 On ch=1 n=b5 v=0
4602 On ch=1 n=f6 v=0
4608 On ch=1 n=a#5 v=54
4608 On ch=1 n=f#6 v=55
4666 On ch=1 n=a#5 v=0
4666 On ch=1 n=f#6 v=0
4672 On ch=1 n=c#6 v=45
4672 On ch=1 n=f6 v=47
4724 On ch=2 n=c#5 v=0
4730 On ch=1 n=c#6 v=0
4730 On ch=1 n=f6 v=0
4736 On ch=1 n=a#5 v=47
4736 On ch=1 n=f6 v=46
4736 On ch=2 n=f#3 v=34
4794 On ch=1 n=a#5 v=0
4794 On ch=1 n=f6 v=0
4800 On ch=1 n=c#6 v=47
4800 On ch=1 n=e6 v=45
4852 On ch=2 n=f#3 v=0
4858 On ch=1 n=c#6 v=0
4858 On ch=1 n=e6 v=0
4864 On ch=1 n=g#5 v=53
4864 On ch=1 n=f6 v=52
4864 On ch=2 n=g#3 v=47
4922 On ch=1 n=g#5 v=0
4922 On ch=1 n=f6 v=0
4928 On ch=1 n=b5 v=47
4928 On ch=1 n=e6 v=44
4980 On ch=2 n=g#3 v=0
4986 On ch=1 n=b5 v=0
4986 On ch=1 n=e6 v=0
4992 On ch=1 n=g5 v=46
4992 On ch=1 n=d#6 v=44
4992 On ch=2 n=a#3 v=51
5050 On ch=1 n=g5 v=0
5050 On ch=1 n=d#6 v=0
5056 On ch=1 n=f6 v=51
5108 On ch=2 n=a#3 v=0
5114 On ch=1 n=f6 v=0
5120 On ch=1 n=b5 v=47
5120 On ch=1 n=d#6 v=47
5120 On ch=2 n=b3 v=51
5178 On ch=1 n=b5 v=0
5178 On ch=1 n=d#6 v=0
5184 On ch=1 n=f#5 v=38
5236 On ch=2 n=b3 v=0
5242 On ch=1 n=f#5 v=0
5248 On ch=1 n=b5 v=56
5248 On ch=1 n=d#6 v=58
5248 On ch=2 n=f#4 v=58
5306 On ch=1 n=b5 v=0
5306 On ch=1 n=d#6 v=0
5312 On ch=1 n=f#5 v=47
5312 On ch=1 n=d6 v=46
5364 On ch=2 n=f#4 v=0
5370 On ch=1 n=f#5 v=0
5370 On ch=1 n=d6 v=0
5376 On ch=1 n=b5 v=52
5376 On ch=1 n=d#6 v=55
5376 On ch=2 n=g#4 v=51
5434 On ch=1 n=b5 v=0
5434 On ch=1 n=d#6 v=0
5440 On ch=1 n=f5 v=47
5440 On ch=1 n=d6 v=48
5492 On ch=2 n=g#4 v=0
5498 On ch=1 n=f5 v=0
5498 On ch=1 n=d6 v=0
5504 On ch=1 n=g#5 v=49
5504 On ch=1 n=d6 v=49
5504 On ch=2 n=a#4 v=51
5562 On ch=1 n=g#5 v=0
5562 On ch=1 n=d6 v=0
5568 On ch=1 n=f#5 v=45
5568 On ch=1 n=c#6 v=45
5620 On ch=2 n=a#4 v=0
5626 On ch=1 n=f#5 v=0
5626 On ch=1 n=c#6 v=0
5632 On ch=1 n=b5 v=51
5632 On ch=1 n=d#6 v=52
5632 On ch=2 n=b4 v=51
5690 On ch=1 n=b5 v=0
5690 On ch=1 n=d#6 v=0
5696 On ch=1 n=f#5 v=45
5696 On ch=1 n=c#6 v=46
5748 On ch=2 n=b4 v=0
5754 On ch=1 n=f#5 v=0
5754 On ch=1 n=c#6 v=0
5760 On ch=1 n=b5 v=46
5760 On ch=1 n=c#6 v=45
5760 On ch=2 n=b3 v=35
5818 On ch=1 n=b5 v=0
5818 On ch=1 n=c#6 v=0
5824 On ch=1 n=f#5 v=50
5824 On ch=1 n=d6 v=50
5876 On ch=2 n=b3 v=0
5882 On ch=1 n=f#5 v=0
5882 On ch=1 n=d6 v=0
5888 On ch=1 n=g#5 v=50
5888 On ch=1 n=c#6 v=51
5888 On ch=2 n=c#4 v=49
5946 On ch=1 n=g#5 v=0
5946 On ch=1 n=c#6 v=0
5952 On ch=1 n=f5 v=43
5952 On ch=1 n=c6 v=44
6004 On ch=2 n=c#4 v=0
6010 On ch=1 n=f5 v=0
6010 On ch=1 n=c6 v=0
6016 On ch=1 n=g#5 v=44
6016 On ch=1 n=b5 v=47
6016 On ch=2 n=d4 v=49
6074 On ch=1 n=g#5 v=0
6074 On ch=1 n=b5 v=0
6080 On ch=1 n=e5 v=50
6080 On ch=1 n=c6 v=49
6132 On ch=2 n=d4 v=0
6138 On ch=1 n=e5 v=0
6138 On ch=1 n=c6 v=0
6144 On ch=1 n=g#5 v=49
6144 On ch=1 n=b5 v=49
6144 On ch=2 n=g#3 v=54
6144 On ch=2 n=d#4 v=53
6202 On ch=1 n=g#5 v=0
6202 On ch=1 n=b5 v=0
6208 On ch=1 n=d#5 v=40
6260 On ch=2 n=g#3 v=0
6260 On ch=2 n=d#4 v=0
6266 On ch=1 n=d#5 v=0
6272 On ch=1 n=g#5 v=55
6272 On ch=1 n=b5 v=55
6272 On ch=2 n=d#5 v=60
6330 On ch=1 n=g#5 v=0
6330 On ch=1 n=b5 v=0
6330 On ch=2 n=d#5 v=0
6336 On ch=1 n=d#5 v=48
6336 On ch=1 n=a#5 v=45
6336 On ch=2 n=c#5 v=49
6394 On ch=1 n=d#5 v=0
6394 On ch=1 n=a#5 v=0
6394 On ch=2 n=c#5 v=0
6400 On ch=1 n=g#5 v=51
6400 On ch=1 n=b5 v=53
6400 On ch=2 n=b4 v=47
6458 On ch=1 n=g#5 v=0
6458 On ch=1 n=b5 v=0
6458 On ch=2 n=b4 v=0
6464 On ch=1 n=f5 v=46
6464 On ch=1 n=a#5 v=47
6464 On ch=2 n=c#5 v=50
6522 On ch=1 n=f5 v=0
6522 On ch=1 n=a#5 v=0
6522 On ch=2 n=c#5 v=0
6528 On ch=1 n=g#5 v=49
6528 On ch=1 n=b5 v=52
6528 On ch=2 n=b4 v=43
6586 On ch=1 n=g#5 v=0
6586 On ch=1 n=b5 v=0
6586 On ch=2 n=b4 v=0
6592 On ch=1 n=g5 v=45
6592 On ch=1 n=a#5 v=48
6592 On ch=2 n=d#4 v=39
6650 On ch=1 n=g5 v=0
6650 On ch=1 n=a#5 v=0
6650 On ch=2 n=d#4 v=0
6656 On ch=1 n=g#5 v=63
6656 On ch=1 n=b5 v=66
6656 On ch=2 n=g#3 v=41
6714 On ch=1 n=g#5 v=0
6714 On ch=1 n=b5 v=0
6720 On ch=1 n=g#5 v=54
6772 On ch=2 n=g#3 v=0
6778 On ch=1 n=g#5 v=0
6784 On ch=1 n=b5 v=68
6784 On ch=1 n=d#6 v=72
6784 On ch=2 n=g#5 v=59
6842 On ch=1 n=b5 v=0
6842 On ch=1 n=d#6 v=0
6842 On ch=2 n=g#5 v=0
6848 On ch=1 n=g5 v=59
6848 On ch=1 n=c#6 v=59
6848 On ch=2 n=g5 v=46
6906 On ch=1 n=g5 v=0
6906 On ch=1 n=c#6 v=0
6906 On ch=2 n=g5 v=0
6912 On ch=1 n=b5 v=65
6912 On ch=1 n=d#6 v=68
6912 On ch=2 n=f#5 v=49
6970 On ch=1 n=b5 v=0
6970 On ch=1 n=d#6 v=0
6970 On ch=2 n=f#5 v=0
6976 On ch=1 n=g#5 v=56
6976 On ch=1 n=c#6 v=57
6976 On ch=2 n=f5 v=46
7034 On ch=1 n=g#5 v=0
7034 On ch=1 n=c#6 v=0
7034 On ch=2 n=f5 v=0
7040 On ch=1 n=b5 v=62
7040 On ch=1 n=d#6 v=62
7040 On ch=2 n=e5 v=46
7098 On ch=1 n=b5 v=0
7098 On ch=1 n=d#6 v=0
7098 On ch=2 n=e5 v=0
7104 On ch=1 n=a#5 v=55
7104 On ch=1 n=c#6 v=56
7104 On ch=2 n=d#5 v=45
7162 On ch=1 n=a#5 v=0
7162 On ch=1 n=c#6 v=0
7162 On ch=2 n=d#5 v=0
7168 On ch=1 n=b5 v=66
7168 On ch=1 n=d#6 v=66
7168 On ch=2 n=g#4 v=42
7226 On ch=1 n=b5 v=0
7226 On ch=1 n=d#6 v=0
7232 On ch=1 n=b5 v=52
7284 On ch=2 n=g#4 v=0
7290 On ch=1 n=b5 v=0
7296 On ch=1 n=f6 v=71
7296 On ch=1 n=g#6 v=73
7296 On ch=2 n=d#6 v=61
7354 On ch=1 n=f6 v=0
7354 On ch=1 n=g#6 v=0
7354 On ch=2 n=d#6 v=0
7360 On ch=1 n=g6 v=66
7360 On ch=1 n=a#6 v=65
7360 On ch=2 n=c#6 v=47
7418 On ch=1 n=g6 v=0
7418 On ch=1 n=a#6 v=0
7418 On ch=2 n=c#6 v=0
7424 On ch=1 n=g#6 v=66
7424 On ch=1 n=b6 v=67
7424 On ch=2 n=b5 v=46
7482 On ch=1 n=g#6 v=0
7482 On ch=1 n=b6 v=0
7482 On ch=2 n=b5 v=0
7488 On ch=1 n=g6 v=59
7488 On ch=1 n=a#6 v=57
7488 On ch=2 n=a#5 v=45
7546 On ch=1 n=g6 v=0
7546 On ch=1 n=a#6 v=0
7546 On ch=2 n=a#5 v=0
7552 On ch=1 n=g#6 v=63
7552 On ch=1 n=b6 v=61
7552 On ch=2 n=g#5 v=44
7552 On ch=2 n=g#5 v=42
7610 On ch=1 n=g#6 v=0
7610 On ch=1 n=b6 v=0
7610 On ch=2 n=g#5 v=0
7616 On ch=1 n=a#6 v=62
7616 On ch=1 n=c#7 v=63
7616 On ch=2 n=f#6 v=57
7674 On ch=1 n=a#6 v=0
7674 On ch=1 n=c#7 v=0
7674 On ch=2 n=f#6 v=0
7680 On ch=1 n=b6 v=68
7680 On ch=1 n=d#7 v=66
7680 On ch=2 n=f6 v=48
7738 On ch=1 n=b6 v=0
7738 On ch=1 n=d#7 v=0
7738 On ch=2 n=f6 v=0
7744 On ch=1 n=a#6 v=54
7744 On ch=1 n=c#7 v=54
7744 On ch=2 n=e6 v=45
7802 On ch=1 n=a#6 v=0
7802 On ch=1 n=c#7 v=0
7802 On ch=2 n=e6 v=0
7808 On ch=1 n=b6 v=62
7808 On ch=1 n=d#7 v=64
7808 On ch=2 n=d#6 v=44
7866 On ch=1 n=b6 v=0
7866 On ch=1 n=d#7 v=0
7866 On ch=2 n=d#6 v=0
7872 On ch=1 n=b6 v=65
7872 On ch=1 n=f7 v=66
7872 On ch=2 n=c#6 v=42
7911 On ch=2 n=g#5 v=0
7930 On ch=1 n=b6 v=0
7930 On ch=1 n=f7 v=0
7930 On ch=2 n=c#6 v=0
7936 On ch=1 n=d#7 v=65
7936 On ch=1 n=f#7 v=65
7936 On ch=2 n=b5 v=48
7936 On ch=2 n=b5 v=50
7994 On ch=1 n=d#7 v=0
7994 On ch=1 n=f#7 v=0
7994 On ch=2 n=b5 v=0
8000 On ch=1 n=b6 v=68
8000 On ch=1 n=f7 v=68
8000 On ch=2 n=a#6 v=82
8058 On ch=1 n=b6 v=0
8058 On ch=1 n=f7 v=0
8058 On ch=2 n=a#6 v=0
8064 On ch=1 n=d#7 v=86
8064 On ch=1 n=f#7 v=87
8064 On ch=2 n=g#6 v=76
8122 On ch=1 n=d#7 v=0
8122 On ch=1 n=f#7 v=0
8122 On ch=2 n=g#6 v=0
8128 On ch=1 n=g#7 v=100
8128 On ch=2 n=f#6 v=90
8167 On ch=2 n=b5 v=0
8186 On ch=1 n=g#7 v=0
8186 On ch=2 n=f#6 v=0
8192 On ch=1 n=d7 v=127
8192 On ch=1 n=a#7 v=127
8192 On ch=2 n=a#5 v=94
8192 On ch=2 n=f6 v=94
8308 On ch=1 n=d7 v=0
8308 On ch=1 n=a#7 v=0
8308 On ch=2 n=a#5 v=0
8308 On ch=2 n=f6 v=0
8320 On ch=1 n=d5 v=68
8320 On ch=1 n=a#5 v=72
8320 On ch=2 n=a#4 v=69
8378 On ch=2 n=a#4 v=0
8384 On ch=1 n=d5 v=0
8384 On ch=1 n=a#5 v=0
8384 On ch=1 n=f5 v=94
8384 On ch=1 n=b5 v=95
8384 On ch=2 n=g#4 v=86
8442 On ch=2 n=g#4 v=0
8448 On ch=1 n=f5 v=0
8448 On ch=1 n=b5 v=0
8448 On ch=1 n=d5 v=93
8448 On ch=1 n=a#5 v=95
8448 On ch=2 n=a#4 v=103
8506 On ch=2 n=a#4 v=0
8512 On ch=1 n=d5 v=0
8512 On ch=1 n=a#5 v=0
8512 On ch=1 n=f#5 v=98
8512 On ch=1 n=b5 v=99
8512 On ch=2 n=d#4 v=77
8570 On ch=2 n=d#4 v=0
8576 On ch=1 n=f#5 v=0
8576 On ch=1 n=b5 v=0
8576 On ch=1 n=d5 v=90
8576 On ch=1 n=a#5 v=91
8576 On ch=2 n=a#4 v=109
8634 On ch=2 n=a#4 v=0
8640 On ch=1 n=d5 v=0
8640 On ch=1 n=a#5 v=0
8640 On ch=1 n=g#5 v=100
8640 On ch=1 n=b5 v=98
8640 On ch=2 n=f4 v=84
8698 On ch=2 n=f4 v=0
8704 On ch=1 n=g#5 v=0
8704 On ch=1 n=b5 v=0
8704 On ch=1 n=d5 v=111
8704 On ch=1 n=g5 v=109
8704 On ch=2 n=b4 v=111
8704 On ch=2 n=a#3 v=69
8762 On ch=2 n=b4 v=0
8768 On ch=1 n=d5 v=0
8768 On ch=1 n=g5 v=0
8768 On ch=1 n=f5 v=97
8768 On ch=1 n=g#5 v=100
8768 On ch=2 n=a#4 v=91
8826 On ch=2 n=a#4 v=0
8832 On ch=1 n=f5 v=0
8832 On ch=1 n=g#5 v=0
8832 On ch=1 n=d5 v=103
8832 On ch=1 n=a#5 v=101
8832 On ch=2 n=a#4 v=97
8890 On ch=2 n=a#4 v=0
8896 On ch=1 n=d5 v=0
8896 On ch=1 n=a#5 v=0
8896 On ch=1 n=f5 v=101
8896 On ch=1 n=b5 v=103
8896 On ch=2 n=g#4 v=89
8954 On ch=2 n=g#4 v=0
8960 On ch=1 n=f5 v=0
8960 On ch=1 n=b5 v=0
8960 On ch=1 n=d5 v=95
8960 On ch=1 n=a#5 v=95
8960 On ch=2 n=a#4 v=104
9018 On ch=2 n=a#4 v=0
9024 On ch=1 n=d5 v=0
9024 On ch=1 n=a#5 v=0
9024 On ch=1 n=f#5 v=101
9024 On ch=1 n=b5 v=101
9024 On ch=2 n=f#4 v=87
9076 On ch=2 n=a#3 v=0
9082 On ch=2 n=f#4 v=0
9088 On ch=1 n=f#5 v=0
9088 On ch=1 n=b5 v=0
9088 On ch=1 n=d5 v=92
9088 On ch=1 n=a#5 v=91
9088 On ch=2 n=a#4 v=107
9146 On ch=2 n=a#4 v=0
9152 On ch=1 n=d5 v=0
9152 On ch=1 n=a#5 v=0
9152 On ch=1 n=g#5 v=98
9152 On ch=1 n=b5 v=98
9152 On ch=2 n=f4 v=86
9210 On ch=2 n=f4 v=0
9216 On ch=1 n=g#5 v=0
9216 On ch=1 n=b5 v=0
9216 On ch=1 n=d5 v=111
9216 On ch=1 n=g5 v=112
9216 On ch=2 n=b4 v=112
9216 On ch=2 n=a#3 v=89
9274 On ch=2 n=b4 v=0
9280 On ch=1 n=d5 v=0
9280 On ch=1 n=g5 v=0
9280 On ch=1 n=f5 v=101
9280 On ch=1 n=g#5 v=99
9280 On ch=2 n=a#4 v=91
9338 On ch=2 n=a#4 v=0
9344 On ch=1 n=f5 v=0
9344 On ch=1 n=g#5 v=0
9344 On ch=1 n=c#5 v=100
9344 On ch=1 n=a#5 v=104
9344 On ch=2 n=a#4 v=95
9402 On ch=2 n=a#4 v=0
9408 On ch=1 n=c#5 v=0
9408 On ch=1 n=a#5 v=0
9408 On ch=1 n=f5 v=102
9408 On ch=1 n=b5 v=100
9408 On ch=2 n=g#4 v=90
9466 On ch=2 n=g#4 v=0
9472 On ch=1 n=f5 v=0
9472 On ch=1 n=b5 v=0
9472 On ch=1 n=d#5 v=96
9472 On ch=1 n=a#5 v=94
9472 On ch=2 n=a#4 v=103
9530 On ch=2 n=a#4 v=0
9536 On ch=1 n=d#5 v=0
9536 On ch=1 n=a#5 v=0
9536 On ch=1 n=f#5 v=100
9536 On ch=1 n=b5 v=99
9536 On ch=2 n=g#4 v=90
9588 On ch=2 n=a#3 v=0
9594 On ch=2 n=g#4 v=0
9600 On ch=1 n=f#5 v=0
9600 On ch=1 n=b5 v=0
9600 On ch=1 n=d#5 v=98
9600 On ch=1 n=b5 v=94
9600 On ch=2 n=g#4 v=96
9658 On ch=2 n=g#4 v=0
9664 On ch=1 n=d#5 v=0
9664 On ch=1 n=b5 v=0
9664 On ch=1 n=f#5 v=100
9664 On ch=1 n=c6 v=100
9664 On ch=2 n=f#4 v=88
9722 On ch=2 n=f#4 v=0
9728 On ch=1 n=f#5 v=0
9728 On ch=1 n=c6 v=0
9728 On ch=1 n=d#5 v=94
9728 On ch=1 n=b5 v=95
9728 On ch=2 n=g#4 v=106
9728 On ch=2 n=a#3 v=86
9786 On ch=2 n=g#4 v=0
9792 On ch=1 n=d#5 v=0
9792 On ch=1 n=b5 v=0
9792 On ch=1 n=a#5 v=103
9792 On ch=1 n=c#6 v=103
9792 On ch=2 n=f#4 v=89
9850 On ch=2 n=f#4 v=0
9856 On ch=1 n=a#5 v=0
9856 On ch=1 n=c#6 v=0
9856 On ch=1 n=f#5 v=96
9856 On ch=1 n=c#6 v=96
9856 On ch=2 n=f4 v=90
9914 On ch=2 n=f4 v=0
9920 On ch=1 n=f#5 v=0
9920 On ch=1 n=c#6 v=0
9920 On ch=1 n=a#5 v=104
9920 On ch=1 n=d#6 v=101
9920 On ch=2 n=d#4 v=91
9959 On ch=2 n=a#3 v=0
9978 On ch=2 n=d#4 v=0
9984 On ch=1 n=a#5 v=0
9984 On ch=1 n=d#6 v=0
9984 On ch=1 n=g#5 v=94
9984 On ch=1 n=c#6 v=93
9984 On ch=2 n=f#4 v=105
9984 On ch=2 n=a#3 v=93
10042 On ch=2 n=f#4 v=0
10048 On ch=1 n=g#5 v=0
10048 On ch=1 n=c#6 v=0
10048 On ch=1 n=b5 v=101
10048 On ch=1 n=d#6 v=99
10048 On ch=2 n=f4 v=94
10106 On ch=2 n=f4 v=0
10112 On ch=1 n=b5 v=0
10112 On ch=1 n=d#6 v=0
10112 On ch=1 n=g#5 v=103
10112 On ch=1 n=f6 v=104
10112 On ch=2 n=d#4 v=89
10170 On ch=2 n=d#4 v=0
10176 On ch=1 n=g#5 v=0
10176 On ch=1 n=f6 v=0
10176 On ch=1 n=a#5 v=101
10176 On ch=1 n=f#6 v=101
10176 On ch=2 n=d4 v=89
10215 On ch=2 n=a#3 v=0
10234 On ch=2 n=d4 v=0
10240 On ch=1 n=a#5 v=0
10240 On ch=1 n=f#6 v=0
10240 On ch=1 n=f#5 v=91
10240 On ch=1 n=d#6 v=90
10240 On ch=2 n=d#3 v=72
10356 On ch=1 n=f#5 v=0
10356 On ch=1 n=d#6 v=0
10356 On ch=2 n=d#3 v=0
10368 On ch=1 n=f#5 v=48
10368 On ch=1 n=d#6 v=46
10368 On ch=2 n=a#3 v=52
10426 On ch=1 n=f#5 v=0
10426 On ch=1 n=d#6 v=0
10432 On ch=1 n=a#5 v=45
10432 On ch=1 n=d6 v=46
10484 On ch=2 n=a#3 v=0
10490 On ch=1 n=a#5 v=0
10490 On ch=1 n=d6 v=0
10496 On ch=1 n=f#5 v=54
10496 On ch=1 n=d#6 v=53
10496 On ch=2 n=a4 v=62
10554 On ch=1 n=f#5 v=0
10554 On ch=1 n=d#6 v=0
10560 On ch=1 n=a5 v=46
10560 On ch=1 n=c#6 v=46
10612 On ch=2 n=a4 v=0
10618 On ch=1 n=a5 v=0
10618 On ch=1 n=c#6 v=0
10624 On ch=1 n=f5 v=47
10624 On ch=1 n=c#6 v=48
10624 On ch=2 n=a#4 v=51
10682 On ch=1 n=f5 v=0
10682 On ch=1 n=c#6 v=0
10688 On ch=1 n=g#5 v=50
10688 On ch=1 n=d6 v=48
10740 On ch=2 n=a#4 v=0
10746 On ch=1 n=g#5 v=0
10746 On ch=1 n=d6 v=0
10752 On ch=1 n=f#5 v=52
10752 On ch=1 n=d#6 v=51
10752 On ch=2 n=d#4 v=42
10810 On ch=1 n=f#5 v=0
10810 On ch=1 n=d#6 v=0
10816 On ch=1 n=a#5 v=44
10816 On ch=1 n=d6 v=47
10868 On ch=2 n=d#4 v=0
10874 On ch=1 n=a#5 v=0
10874 On ch=1 n=d6 v=0
10880 On ch=1 n=f#5 v=52
10880 On ch=1 n=d#6 v=50
10880 On ch=2 n=a#4 v=54
10938 On ch=1 n=f#5 v=0
10938 On ch=1 n=d#6 v=0
10944 On ch=1 n=a#5 v=66
10944 On ch=1 n=f6 v=63
10996 On ch=2 n=a#4 v=0
11002 On ch=1 n=a#5 v=0
11002 On ch=1 n=f6 v=0
11008 On ch=1 n=a#5 v=80
11008 On ch=1 n=f#6 v=79
11008 On ch=2 n=f5 v=58
11066 On ch=1 n=a#5 v=0
11066 On ch=1 n=f#6 v=0
11072 On ch=1 n=d#6 v=90
11072 On ch=1 n=g#6 v=87
11124 On ch=2 n=f5 v=0
11130 On ch=1 n=d#6 v=0
11130 On ch=1 n=g#6 v=0
11136 On ch=1 n=c#6 v=103
11136 On ch=1 n=a#6 v=101
11136 On ch=2 n=f#5 v=50
11194 On ch=1 n=c#6 v=0
11194 On ch=1 n=a#6 v=0
11200 On ch=1 n=d#6 v=92
11200 On ch=1 n=g#6 v=91
11252 On ch=2 n=f#5 v=0
11258 On ch=1 n=d#6 v=0
11258 On ch=1 n=g#6 v=0
11264 On ch=1 n=c6 v=106
11264 On ch=1 n=a#6 v=102
11264 On ch=2 n=g#3 v=39
11322 On ch=1 n=c6 v=0
11322 On ch=1 n=a#6 v=0
11328 On ch=1 n=d#6 v=89
11328 On ch=1 n=g#6 v=89
11380 On ch=2 n=g#3 v=0
11386 On ch=1 n=d#6 v=0
11386 On ch=1 n=g#6 v=0
11392 On ch=1 n=b5 v=91
11392 On ch=1 n=g6 v=92
11392 On ch=2 n=d#4 v=52
11450 On ch=1 n=b5 v=0
11450 On ch=1 n=g6 v=0
11456 On ch=1 n=d#6 v=97
11456 On ch=1 n=g#6 v=98
11508 On ch=2 n=d#4 v=0
11514 On ch=1 n=d#6 v=0
11514 On ch=1 n=g#6 v=0
11520 On ch=1 n=a#5 v=92
11520 On ch=1 n=g6 v=93
11520 On ch=2 n=a#4 v=57
11578 On ch=1 n=a#5 v=0
11578 On ch=1 n=g6 v=0
11584 On ch=1 n=d#6 v=92
11584 On ch=1 n=f#6 v=91
11636 On ch=2 n=a#4 v=0
11642 On ch=1 n=d#6 v=0
11642 On ch=1 n=f#6 v=0
11648 On ch=1 n=a5 v=89
11648 On ch=1 n=f6 v=90
11648 On ch=2 n=b4 v=51
11706 On ch=1 n=a5 v=0
11706 On ch=1 n=f6 v=0
11712 On ch=1 n=d#6 v=100
11712 On ch=1 n=f#6 v=98
11764 On ch=2 n=b4 v=0
11770 On ch=1 n=d#6 v=0
11770 On ch=1 n=f#6 v=0
11776 On ch=1 n=g#5 v=93
11776 On ch=1 n=f6 v=93
11776 On ch=2 n=d#5 v=54
11834 On ch=1 n=g#5 v=0
11834 On ch=1 n=f6 v=0
11840 On ch=1 n=b5 v=90
11840 On ch=1 n=e6 v=91
11892 On ch=2 n=d#5 v=0
11898 On ch=1 n=b5 v=0
11898 On ch=1 n=e6 v=0
11904 On ch=1 n=g5 v=89
11904 On ch=1 n=d#6 v=91
11904 On ch=2 n=d5 v=44
11962 On ch=1 n=g5 v=0
11962 On ch=1 n=d#6 v=0
11968 On ch=1 n=b5 v=89
11968 On ch=1 n=e6 v=90
12020 On ch=2 n=d5 v=0
12026 On ch=1 n=b5 v=0
12026 On ch=1 n=e6 v=0
12032 On ch=1 n=f#5 v=78
12032 On ch=1 n=d#6 v=76
12032 On ch=2 n=a#4 v=40
12090 On ch=1 n=f#5 v=0
12090 On ch=1 n=d#6 v=0
12096 On ch=1 n=a#5 v=63
12096 On ch=1 n=d6 v=63
12148 On ch=2 n=a#4 v=0
12154 On ch=1 n=a#5 v=0
12154 On ch=1 n=d6 v=0
12160 On ch=1 n=f5 v=54
12160 On ch=1 n=c#6 v=54
12160 On ch=2 n=a#3 v=33
12218 On ch=1 n=f5 v=0
12218 On ch=1 n=c#6 v=0
12224 On ch=1 n=g#5 v=49
12224 On ch=1 n=d6 v=48
12276 On ch=2 n=a#3 v=0
12282 On ch=1 n=g#5 v=0
12282 On ch=1 n=d6 v=0
12288 On ch=1 n=f#5 v=54
12288 On ch=1 n=d#6 v=52
12288 On ch=2 n=d#3 v=40
12404 On ch=1 n=f#5 v=0
12404 On ch=1 n=d#6 v=0
12404 On ch=2 n=d#3 v=0
12416 On ch=1 n=f#5 v=50
12416 On ch=1 n=d#6 v=49
12416 On ch=2 n=a#3 v=55
12474 On ch=1 n=f#5 v=0
12474 On ch=1 n=d#6 v=0
12480 On ch=1 n=a#5 v=45
12480 On ch=1 n=d6 v=46
12532 On ch=2 n=a#3 v=0
12538 On ch=1 n=a#5 v=0
12538 On ch=1 n=d6 v=0
12544 On ch=1 n=f#5 v=52
12544 On ch=1 n=d#6 v=51
12544 On ch=2 n=a4 v=61
12602 On ch=1 n=f#5 v=0
12602 On ch=1 n=d#6 v=0
12608 On ch=1 n=g#5 v=46
12608 On ch=1 n=d6 v=46
12660 On ch=2 n=a4 v=0
12666 On ch=1 n=g#5 v=0
12666 On ch=1 n=d6 v=0
12672 On ch=1 n=f5 v=45
12672 On ch=1 n=c#6 v=45
12672 On ch=2 n=a#4 v=51
12730 On ch=1 n=f5 v=0
12730 On ch=1 n=c#6 v=0
12736 On ch=1 n=g#5 v=50
12736 On ch=1 n=d6 v=50
12788 On ch=2 n=a#4 v=0
12794 On ch=1 n=g#5 v=0
12794 On ch=1 n=d6 v=0
12800 On ch=1 n=f#5 v=52
12800 On ch=1 n=d#6 v=55
12800 On ch=2 n=d#4 v=41
12858 On ch=1 n=f#5 v=0
12858 On ch=1 n=d#6 v=0
12864 On ch=1 n=a#5 v=44
12864 On ch=1 n=d6 v=45
12916 On ch=2 n=d#4 v=0
12922 On ch=1 n=a#5 v=0
12922 On ch=1 n=d6 v=0
12928 On ch=1 n=f#5 v=52
12928 On ch=1 n=d#6 v=49
12928 On ch=2 n=a#4 v=54
12986 On ch=1 n=f#5 v=0
12986 On ch=1 n=d#6 v=0
12992 On ch=1 n=a#5 v=64
12992 On ch=1 n=f6 v=65
13044 On ch=2 n=a#4 v=0
13050 On ch=1 n=a#5 v=0
13050 On ch=1 n=f6 v=0
13056 On ch=1 n=a#5 v=77
13056 On ch=1 n=f#6 v=79
13056 On ch=2 n=f5 v=55
13114 On ch=1 n=a#5 v=0
13114 On ch=1 n=f#6 v=0
13120 On ch=1 n=d#6 v=88
13120 On ch=1 n=g#6 v=90
13172 On ch=2 n=f5 v=0
13178 On ch=1 n=d#6 v=0
13178 On ch=1 n=g#6 v=0
13184 On ch=1 n=d#6 v=102
13184 On ch=1 n=a#6 v=104
13184 On ch=2 n=f#5 v=53
13242 On ch=1 n=d#6 v=0
13242 On ch=1 n=a#6 v=0
13248 On ch=1 n=f#6 v=103
13248 On ch=1 n=b6 v=103
13300 On ch=2 n=f#5 v=0
13306 On ch=1 n=f#6 v=0
13306 On ch=1 n=b6 v=0
13312 On ch=1 n=e6 v=106
13312 On ch=1 n=c#7 v=104
13312 On ch=2 n=d#3 v=74
13370 On ch=1 n=e6 v=0
13370 On ch=1 n=c#7 v=0
13376 On ch=1 n=g#6 v=93
13376 On ch=1 n=c7 v=93
13428 On ch=2 n=d#3 v=0
13434 On ch=1 n=g#6 v=0
13434 On ch=1 n=c7 v=0
13440 On ch=1 n=d#6 v=93
13440 On ch=1 n=b6 v=90
13440 On ch=2 n=a#3 v=106
13498 On ch=1 n=d#6 v=0
13498 On ch=1 n=b6 v=0
13504 On ch=1 n=g#6 v=97
13504 On ch=1 n=c7 v=100
13556 On ch=2 n=a#3 v=0
13562 On ch=1 n=g#6 v=0
13562 On ch=1 n=c7 v=0
13568 On ch=1 n=d6 v=95
13568 On ch=1 n=b6 v=93
13568 On ch=2 n=g#4 v=121
13626 On ch=1 n=d6 v=0
13626 On ch=1 n=b6 v=0
13632 On ch=1 n=g#6 v=91
13632 On ch=1 n=a#6 v=91
13684 On ch=2 n=g#4 v=0
13690 On ch=1 n=g#6 v=0
13690 On ch=1 n=a#6 v=0
13696 On ch=1 n=c#6 v=92
13696 On ch=1 n=a6 v=88
13696 On ch=2 n=c#5 v=114
13754 On ch=1 n=c#6 v=0
13754 On ch=1 n=a6 v=0
13760 On ch=1 n=e6 v=99
13760 On ch=1 n=a#6 v=99
13818 On ch=1 n=e6 v=0
13818 On ch=1 n=a#6 v=0
13824 On ch=1 n=c#6 v=93
13824 On ch=1 n=a6 v=94
13882 On ch=1 n=c#6 v=0
13882 On ch=1 n=a6 v=0
13888 On ch=1 n=e6 v=90
13888 On ch=1 n=g#6 v=88
13940 On ch=2 n=c#5 v=0
13946 On ch=1 n=e6 v=0
13946 On ch=1 n=g#6 v=0
13952 On ch=1 n=c6 v=89
13952 On ch=1 n=g6 v=88
13952 On ch=2 n=d#4 v=73
14010 On ch=1 n=c6 v=0
14010 On ch=1 n=g6 v=0
14016 On ch=1 n=e6 v=97
14016 On ch=1 n=g#6 v=100
14068 On ch=2 n=d#4 v=0
14074 On ch=1 n=e6 v=0
14074 On ch=1 n=g#6 v=0
14080 On ch=1 n=b5 v=98
14080 On ch=1 n=g#6 v=97
14080 On ch=2 n=d#5 v=120
14138 On ch=1 n=b5 v=0
14138 On ch=1 n=g#6 v=0
14144 On ch=1 n=d#6 v=90
14144 On ch=1 n=g6 v=90
14196 On ch=2 n=d#5 v=0
14202 On ch=1 n=d#6 v=0
14202 On ch=1 n=g6 v=0
14208 On ch=1 n=a#5 v=89
14208 On ch=1 n=f#6 v=91
14208 On ch=2 n=c#5 v=93
14266 On ch=1 n=a#5 v=0
14266 On ch=1 n=f#6 v=0
14272 On ch=1 n=d#6 v=99
14272 On ch=1 n=g6 v=98
14324 On ch=2 n=c#5 v=0
14330 On ch=1 n=d#6 v=0
14330 On ch=1 n=g6 v=0
14336 On ch=1 n=g#5 v=103
14336 On ch=1 n=g#6 v=101
14336 On ch=2 n=g#3 v=93
14336 On ch=2 n=d#4 v=94
14336 On ch=2 n=b4 v=93
14452 On ch=1 n=g#5 v=0
14452 On ch=1 n=g#6 v=0
14452 On ch=2 n=g#3 v=0
14452 On ch=2 n=d#4 v=0
14452 On ch=2 n=b4 v=0
14464 On ch=1 n=c6 v=49
14464 On ch=1 n=g#6 v=50
14464 On ch=2 n=d#4 v=37
14522 On ch=1 n=c6 v=0
14522 On ch=1 n=g#6 v=0
14528 On ch=1 n=d#6 v=45
14528 On ch=1 n=g6 v=45
14580 On ch=2 n=d#4 v=0
14586 On ch=1 n=d#6 v=0
14586 On ch=1 n=g6 v=0
14592 On ch=1 n=c6 v=51
14592 On ch=1 n=g#6 v=52
14592 On ch=2 n=d5 v=58
14650 On ch=1 n=c6 v=0
14650 On ch=1 n=g#6 v=0
14656 On ch=1 n=d6 v=46
14656 On ch=1 n=g6 v=45
14708 On ch=2 n=d5 v=0
14714 On ch=1 n=d6 v=0
14714 On ch=1 n=g6 v=0
14720 On ch=1 n=a#5 v=45
14720 On ch=1 n=f#6 v=46
14720 On ch=2 n=d#5 v=51
14778 On ch=1 n=a#5 v=0
14778 On ch=1 n=f#6 v=0
14784 On ch=1 n=c#6 v=48
14784 On ch=1 n=g6 v=47
14842 On ch=1 n=c#6 v=0
14842 On ch=1 n=g6 v=0
14848 On ch=1 n=c6 v=54
14848 On ch=1 n=g#6 v=54
14906 On ch=1 n=c6 v=0
14906 On ch=1 n=g#6 v=0
14912 On ch=1 n=d#6 v=45
14912 On ch=1 n=g6 v=47
14964 On ch=2 n=d#5 v=0
14970 On ch=1 n=d#6 v=0
14970 On ch=1 n=g6 v=0
14976 On ch=1 n=c6 v=46
14976 On ch=1 n=g6 v=46
14976 On ch=2 n=g3 v=34
15034 On ch=1 n=c6 v=0
15034 On ch=1 n=g6 v=0
15040 On ch=1 n=d#6 v=43
15040 On ch=1 n=f#6 v=44
15092 On ch=2 n=g3 v=0
15098 On ch=1 n=d#6 v=0
15098 On ch=1 n=f#6 v=0
15104 On ch=1 n=c6 v=54
15104 On ch=1 n=g6 v=51
15104 On ch=2 n=g#3 v=50
15162 On ch=1 n=c6 v=0
15162 On ch=1 n=g6 v=0
15168 On ch=1 n=d#6 v=46
15168 On ch=1 n=f#6 v=45
15220 On ch=2 n=g#3 v=0
15226 On ch=1 n=d#6 v=0
15226 On ch=1 n=f#6 v=0
15232 On ch=1 n=d6 v=48
15232 On ch=1 n=f#6 v=45
15232 On ch=2 n=a#3 v=51
15290 On ch=1 n=d6 v=0
15290 On ch=1 n=f#6 v=0
15296 On ch=1 n=f6 v=44
15348 On ch=2 n=a#3 v=0
15354 On ch=1 n=f6 v=0
15360 On ch=1 n=d#6 v=53
15360 On ch=1 n=f#6 v=52
15360 On ch=2 n=b3 v=54
15418 On ch=1 n=d#6 v=0
15418 On ch=1 n=f#6 v=0
15424 On ch=1 n=b5 v=39
15476 On ch=2 n=b3 v=0
15482 On ch=1 n=b5 v=0
15488 On ch=1 n=d#6 v=57
15488 On ch=1 n=f#6 v=54
15488 On ch=2 n=f#4 v=56
15546 On ch=1 n=d#6 v=0
15546 On ch=1 n=f#6 v=0
15552 On ch=1 n=b5 v=46
15552 On ch=1 n=f6 v=44
15604 On ch=2 n=f#4 v=0
15610 On ch=1 n=b5 v=0
15610 On ch=1 n=f6 v=0
15616 On ch=1 n=d6 v=53
15616 On ch=1 n=f#6 v=55
15616 On ch=2 n=g#4 v=52
15674 On ch=1 n=d6 v=0
15674 On ch=1 n=f#6 v=0
15680 On ch=1 n=b5 v=46
15680 On ch=1 n=f6 v=47
15732 On ch=2 n=g#4 v=0
15738 On ch=1 n=b5 v=0
15738 On ch=1 n=f6 v=0
15744 On ch=1 n=c#6 v=44
15744 On ch=1 n=e6 v=45
15744 On ch=2 n=a#4 v=53
15802 On ch=1 n=c#6 v=0
15802 On ch=1 n=e6 v=0
15808 On ch=1 n=d6 v=51
15808 On ch=1 n=f6 v=47
15866 On ch=1 n=d6 v=0
15866 On ch=1 n=f6 v=0
15872 On ch=1 n=d#6 v=54
15872 On ch=1 n=f#6 v=55
15930 On ch=1 n=d#6 v=0
15930 On ch=1 n=f#6 v=0
15936 On ch=1 n=f#5 v=37
15988 On ch=2 n=a#4 v=0
15994 On ch=1 n=f#5 v=0
16000 On ch=1 n=d6 v=57
16000 On ch=1 n=f6 v=59
16000 On ch=2 n=b4 v=48
16058 On ch=1 n=d6 v=0
16058 On ch=1 n=f6 v=0
16064 On ch=1 n=b5 v=52
16064 On ch=1 n=f#6 v=52
16116 On ch=2 n=b4 v=0
16122 On ch=1 n=b5 v=0
16122 On ch=1 n=f#6 v=0
16128 On ch=1 n=c#6 v=50
16128 On ch=1 n=f6 v=51
16128 On ch=2 n=c#5 v=51
16186 On ch=1 n=c#6 v=0
16186 On ch=1 n=f6 v=0
16192 On ch=1 n=a#5 v=45
16192 On ch=1 n=e6 v=45
16244 On ch=2 n=c#5 v=0
16250 On ch=1 n=a#5 v=0
16250 On ch=1 n=e6 v=0
16256 On ch=1 n=b5 v=45
16256 On ch=1 n=d#6 v=46
16256 On ch=2 n=d5 v=48
16314 On ch=1 n=b5 v=0
16314 On ch=1 n=d#6 v=0
16320 On ch=1 n=g#5 v=47
16320 On ch=1 n=e6 v=50
16372 On ch=2 n=d5 v=0
16378 On ch=1 n=g#5 v=0
16378 On ch=1 n=e6 v=0
16384 On ch=1 n=b5 v=46
16384 On ch=1 n=d#6 v=48
16384 On ch=2 n=g#4 v=52
16384 On ch=2 n=d#5 v=53
16442 On ch=1 n=b5 v=0
16442 On ch=1 n=d#6 v=0
16448 On ch=1 n=g#5 v=41
16500 On ch=2 n=g#4 v=0
16500 On ch=2 n=d#5 v=0
16506 On ch=1 n=g#5 v=0
16512 On ch=1 n=b5 v=56
16512 On ch=1 n=d#6 v=57
16512 On ch=2 n=d#5 v=48
16570 On ch=1 n=b5 v=0
16570 On ch=1 n=d#6 v=0
16570 On ch=2 n=d#5 v=0
16576 On ch=1 n=g5 v=48
16576 On ch=1 n=c#6 v=46
16576 On ch=2 n=c#5 v=47
16634 On ch=1 n=g5 v=0
16634 On ch=1 n=c#6 v=0
16634 On ch=2 n=c#5 v=0
16640 On ch=1 n=b5 v=55
16640 On ch=1 n=d#6 v=55
16640 On ch=2 n=b4 v=46
16698 On ch=1 n=b5 v=0
16698 On ch=1 n=d#6 v=0
16698 On ch=2 n=b4 v=0
16704 On ch=1 n=g#5 v=47
16704 On ch=1 n=c#6 v=47
16704 On ch=2 n=c#5 v=52
16762 On ch=1 n=g#5 v=0
16762 On ch=1 n=c#6 v=0
16762 On ch=2 n=c#5 v=0
16768 On ch=1 n=b5 v=51
16768 On ch=1 n=d#6 v=49
16768 On ch=2 n=b4 v=46
16826 On ch=1 n=b5 v=0
16826 On ch=1 n=d#6 v=0
16826 On ch=2 n=b4 v=0
16832 On ch=1 n=a#5 v=47
16832 On ch=1 n=c#6 v=47
16832 On ch=2 n=d#4 v=36
16890 On ch=1 n=a#5 v=0
16890 On ch=1 n=c#6 v=0
16890 On ch=2 n=d#4 v=0
16896 On ch=1 n=b5 v=64
16896 On ch=1 n=d#6 v=66
16896 On ch=2 n=g#3 v=39
16954 On ch=1 n=b5 v=0
16954 On ch=1 n=d#6 v=0
16960 On ch=1 n=b5 v=53
17012 On ch=2 n=g#3 v=0
17018 On ch=1 n=b5 v=0
17024 On ch=1 n=d#6 v=75
17024 On ch=1 n=b6 v=75
17024 On ch=2 n=g#5 v=60
17082 On ch=1 n=d#6 v=0
17082 On ch=1 n=b6 v=0
17082 On ch=2 n=g#5 v=0
17088 On ch=1 n=c#6 v=56
17088 On ch=1 n=g6 v=54
17088 On ch=2 n=g5 v=47
17146 On ch=1 n=c#6 v=0
17146 On ch=1 n=g6 v=0
17146 On ch=2 n=g5 v=0
17152 On ch=1 n=d#6 v=68
17152 On ch=1 n=b6 v=67
17152 On ch=2 n=f#5 v=49
17210 On ch=1 n=d#6 v=0
17210 On ch=1 n=b6 v=0
17210 On ch=2 n=f#5 v=0
17216 On ch=1 n=c#6 v=55
17216 On ch=1 n=g#6 v=57
17216 On ch=2 n=f5 v=45
17274 On ch=1 n=c#6 v=0
17274 On ch=1 n=g#6 v=0
17274 On ch=2 n=f5 v=0
17280 On ch=1 n=f#6 v=64
17280 On ch=1 n=b6 v=64
17280 On ch=2 n=e5 v=44
17338 On ch=1 n=f#6 v=0
17338 On ch=1 n=b6 v=0
17338 On ch=2 n=e5 v=0
17344 On ch=1 n=c#6 v=56
17344 On ch=1 n=a#6 v=56
17344 On ch=2 n=d#5 v=43
17402 On ch=1 n=c#6 v=0
17402 On ch=1 n=a#6 v=0
17402 On ch=2 n=d#5 v=0
17408 On ch=1 n=g#6 v=66
17408 On ch=1 n=b6 v=66
17408 On ch=2 n=g#4 v=42
17466 On ch=1 n=g#6 v=0
17466 On ch=1 n=b6 v=0
17472 On ch=1 n=b5 v=44
17524 On ch=2 n=g#4 v=0
17530 On ch=1 n=b5 v=0
17536 On ch=1 n=f6 v=70
17536 On ch=1 n=g#6 v=70
17536 On ch=2 n=d#6 v=62
17594 On ch=1 n=f6 v=0
17594 On ch=1 n=g#6 v=0
17594 On ch=2 n=d#6 v=0
17600 On ch=1 n=g6 v=65
17600 On ch=1 n=a#6 v=65
17600 On ch=2 n=c#6 v=46
17658 On ch=1 n=g6 v=0
17658 On ch=1 n=a#6 v=0
17658 On ch=2 n=c#6 v=0
17664 On ch=1 n=g#6 v=65
17664 On ch=1 n=b6 v=64
17664 On ch=2 n=b5 v=47
17722 On ch=1 n=g#6 v=0
17722 On ch=1 n=b6 v=0
17722 On ch=2 n=b5 v=0
17728 On ch=1 n=g6 v=56
17728 On ch=1 n=a#6 v=56
17728 On ch=2 n=a#5 v=47
17786 On ch=1 n=g6 v=0
17786 On ch=1 n=a#6 v=0
17786 On ch=2 n=a#5 v=0
17792 On ch=1 n=g#6 v=62
17792 On ch=1 n=b6 v=63
17792 On ch=2 n=g#5 v=45
17792 On ch=2 n=g#5 v=63
17850 On ch=1 n=g#6 v=0
17850 On ch=1 n=b6 v=0
17850 On ch=2 n=g#5 v=0
17856 On ch=1 n=a#6 v=63
17856 On ch=1 n=c#7 v=66
17856 On ch=2 n=f#6 v=59
17914 On ch=1 n=a#6 v=0
17914 On ch=1 n=c#7 v=0
17914 On ch=2 n=f#6 v=0
17920 On ch=1 n=b6 v=68
17920 On ch=1 n=d#7 v=68
17920 On ch=2 n=f6 v=49
17978 On ch=1 n=b6 v=0
17978 On ch=1 n=d#7 v=0
17978 On ch=2 n=f6 v=0
17984 On ch=1 n=a#6 v=55
17984 On ch=1 n=c#7 v=55
17984 On ch=2 n=e6 v=47
18042 On ch=1 n=a#6 v=0
18042 On ch=1 n=c#7 v=0
18042 On ch=2 n=e6 v=0
18048 On ch=1 n=b6 v=63
18048 On ch=1 n=d#7 v=65
18048 On ch=2 n=d#6 v=44
18106 On ch=1 n=b6 v=0
18106 On ch=1 n=d#7 v=0
18106 On ch=2 n=d#6 v=0
18112 On ch=1 n=b6 v=63
18112 On ch=1 n=f7 v=65
18112 On ch=2 n=c#6 v=44
18151 On ch=2 n=g#5 v=0
18170 On ch=1 n=b6 v=0
18170 On ch=1 n=f7 v=0
18170 On ch=2 n=c#6 v=0
18176 On ch=1 n=d#7 v=67
18176 On ch=1 n=f#7 v=64
18176 On ch=2 n=b5 v=47
18176 On ch=2 n=b5 v=51
18234 On ch=1 n=d#7 v=0
18234 On ch=1 n=f#7 v=0
18234 On ch=2 n=b5 v=0
18240 On ch=1 n=b6 v=56
18240 On ch=1 n=f7 v=56
18240 On ch=2 n=a#6 v=82
18298 On ch=1 n=b6 v=0
18298 On ch=1 n=f7 v=0
18298 On ch=2 n=a#6 v=0
18304 On ch=1 n=d#7 v=61
18304 On ch=1 n=f#7 v=63
18304 On ch=2 n=g#6 v=79
18362 On ch=1 n=d#7 v=0
18362 On ch=1 n=f#7 v=0
18362 On ch=2 n=g#6 v=0
18368 On ch=1 n=g#7 v=65
18368 On ch=2 n=f#6 v=90
18407 On ch=2 n=b5 v=0
18426 On ch=1 n=g#7 v=0
18426 On ch=2 n=f#6 v=0
18432 On ch=1 n=d7 v=95
18432 On ch=1 n=a#7 v=93
18432 On ch=2 n=a#5 v=94
18432 On ch=2 n=f6 v=93
18548 On ch=1 n=d7 v=0
18548 On ch=1 n=a#7 v=0
18548 On ch=2 n=a#5 v=0
18548 On ch=2 n=f6 v=0
18560 On ch=1 n=d5 v=35
18560 On ch=1 n=a#5 v=35
18560 On ch=2 n=a#4 v=33
18618 On ch=1 n=d5 v=0
18618 On ch=1 n=a#5 v=0
18618 On ch=2 n=a#4 v=0
18624 On ch=1 n=f5 v=47
18624 On ch=1 n=b5 v=49
18624 On ch=2 n=g#4 v=44
18682 On ch=1 n=f5 v=0
18682 On ch=1 n=b5 v=0
18682 On ch=2 n=g#4 v=0
18688 On ch=1 n=d5 v=62
18688 On ch=1 n=a#5 v=59
18688 On ch=2 n=a#4 v=55
18746 On ch=1 n=d5 v=0
18746 On ch=1 n=a#5 v=0
18746 On ch=2 n=a#4 v=0
18752 On ch=1 n=f#5 v=73
18752 On ch=1 n=b5 v=76
18752 On ch=2 n=d#4 v=38
18810 On ch=1 n=f#5 v=0
18810 On ch=1 n=b5 v=0
18810 On ch=2 n=d#4 v=0
18816 On ch=1 n=d5 v=81
18816 On ch=1 n=a#5 v=80
18816 On ch=2 n=a#4 v=57
18874 On ch=1 n=d5 v=0
18874 On ch=1 n=a#5 v=0
18874 On ch=2 n=a#4 v=0
18880 On ch=1 n=g#5 v=98
18880 On ch=1 n=b5 v=99
18880 On ch=2 n=f4 v=41
18938 On ch=1 n=g#5 v=0
18938 On ch=1 n=b5 v=0
18938 On ch=2 n=f4 v=0
18944 On ch=1 n=d5 v=110
18944 On ch=1 n=g5 v=111
18944 On ch=2 n=b4 v=86
18944 On ch=2 n=a#3 v=33
19002 On ch=1 n=d5 v=0
19002 On ch=1 n=g5 v=0
19002 On ch=2 n=b4 v=0
19008 On ch=1 n=f5 v=49
19008 On ch=1 n=g#5 v=49
19008 On ch=2 n=a#4 v=45
19066 On ch=1 n=f5 v=0
19066 On ch=1 n=g#5 v=0
19066 On ch=2 n=a#4 v=0
19072 On ch=1 n=c#5 v=50
19072 On ch=1 n=a#5 v=50
19072 On ch=2 n=a#4 v=49
19130 On ch=1 n=c#5 v=0
19130 On ch=1 n=a#5 v=0
19130 On ch=2 n=a#4 v=0
19136 On ch=1 n=f5 v=50
19136 On ch=1 n=b5 v=49
19136 On ch=2 n=g#4 v=46
19194 On ch=1 n=f5 v=0
19194 On ch=1 n=b5 v=0
19194 On ch=2 n=g#4 v=0
19200 On ch=1 n=c#5 v=49
19200 On ch=1 n=a#5 v=48
19200 On ch=2 n=a#4 v=53
19258 On ch=1 n=c#5 v=0
19258 On ch=1 n=a#5 v=0
19258 On ch=2 n=a#4 v=0
19264 On ch=1 n=f#5 v=50
19264 On ch=1 n=b5 v=48
19264 On ch=2 n=f#4 v=45
19316 On ch=2 n=a#3 v=0
19322 On ch=1 n=f#5 v=0
19322 On ch=1 n=b5 v=0
19322 On ch=2 n=f#4 v=0
19328 On ch=1 n=c#5 v=47
19328 On ch=1 n=a#5 v=48
19328 On ch=2 n=a#4 v=51
19386 On ch=1 n=c#5 v=0
19386 On ch=1 n=a#5 v=0
19386 On ch=2 n=a#4 v=0
19392 On ch=1 n=g#5 v=50
19392 On ch=1 n=b5 v=50
19392 On ch=2 n=f4 v=40
19450 On ch=1 n=g#5 v=0
19450 On ch=1 n=b5 v=0
19450 On ch=2 n=f4 v=0
19456 On ch=1 n=f5 v=68
19456 On ch=1 n=c#6 v=66
19456 On ch=2 n=c#5 v=59
19514 On ch=1 n=f5 v=0
19514 On ch=1 n=c#6 v=0
19514 On ch=2 n=c#5 v=0
19520 On ch=1 n=b5 v=63
19520 On ch=1 n=d6 v=62
19520 On ch=2 n=b4 v=47
19578 On ch=1 n=b5 v=0
19578 On ch=1 n=d6 v=0
19578 On ch=2 n=b4 v=0
19584 On ch=1 n=f5 v=57
19584 On ch=1 n=c#6 v=56
19584 On ch=2 n=c#5 v=52
19642 On ch=1 n=f5 v=0
19642 On ch=1 n=c#6 v=0
19642 On ch=2 n=c#5 v=0
19648 On ch=1 n=g#5 v=69
19648 On ch=1 n=d6 v=70
19648 On ch=2 n=b4 v=46
19706 On ch=1 n=g#5 v=0
19706 On ch=1 n=d6 v=0
19706 On ch=2 n=b4 v=0
19712 On ch=1 n=f5 v=75
19712 On ch=1 n=c#6 v=77
19712 On ch=2 n=c#5 v=54
19770 On ch=1 n=f5 v=0
19770 On ch=1 n=c#6 v=0
19770 On ch=2 n=c#5 v=0
19776 On ch=1 n=a5 v=83
19776 On ch=1 n=d6 v=86
19776 On ch=2 n=a4 v=43
19834 On ch=1 n=a5 v=0
19834 On ch=1 n=d6 v=0
19834 On ch=2 n=a4 v=0
19840 On ch=1 n=f5 v=85
19840 On ch=1 n=c#6 v=84
19840 On ch=2 n=c#5 v=50
19898 On ch=1 n=f5 v=0
19898 On ch=1 n=c#6 v=0
19898 On ch=2 n=c#5 v=0
19904 On ch=1 n=b5 v=101
19904 On ch=1 n=d6 v=99
19904 On ch=2 n=g#4 v=42
19962 On ch=1 n=b5 v=0
19962 On ch=1 n=d6 v=0
19962 On ch=2 n=g#4 v=0
19968 On ch=1 n=f5 v=112
19968 On ch=1 n=a#5 v=110
19968 On ch=2 n=d5 v=86
19968 On ch=2 n=c#4 v=42
20026 On ch=1 n=f5 v=0
20026 On ch=1 n=a#5 v=0
20026 On ch=2 n=d5 v=0
20032 On ch=1 n=g#5 v=50
20032 On ch=1 n=b5 v=50
20032 On ch=2 n=c#5 v=45
20090 On ch=1 n=g#5 v=0
20090 On ch=1 n=b5 v=0
20090 On ch=2 n=c#5 v=0
20096 On ch=1 n=f5 v=51
20096 On ch=1 n=c#6 v=51
20096 On ch=2 n=c#5 v=49
20154 On ch=1 n=f5 v=0
20154 On ch=1 n=c#6 v=0
20154 On ch=2 n=c#5 v=0
20160 On ch=1 n=g#5 v=50
20160 On ch=1 n=d6 v=49
20160 On ch=2 n=b4 v=44
20218 On ch=1 n=g#5 v=0
20218 On ch=1 n=d6 v=0
20218 On ch=2 n=b4 v=0
20224 On ch=1 n=f5 v=50
20224 On ch=1 n=c#6 v=50
20224 On ch=2 n=c#5 v=53
20282 On ch=1 n=f5 v=0
20282 On ch=1 n=c#6 v=0
20282 On ch=2 n=c#5 v=0
20288 On ch=1 n=a5 v=50
20288 On ch=1 n=d6 v=50
20288 On ch=2 n=a4 v=43
20340 On ch=2 n=c#4 v=0
20346 On ch=1 n=a5 v=0
20346 On ch=1 n=d6 v=0
20346 On ch=2 n=a4 v=0
20352 On ch=1 n=f5 v=45
20352 On ch=1 n=c#6 v=48
20352 On ch=2 n=c#5 v=51
20410 On ch=1 n=f5 v=0
20410 On ch=1 n=c#6 v=0
20410 On ch=2 n=c#5 v=0
20416 On ch=1 n=b5 v=50
20416 On ch=1 n=d#6 v=53
20416 On ch=2 n=g#4 v=41
20474 On ch=1 n=b5 v=0
20474 On ch=1 n=d#6 v=0
20474 On ch=2 n=g#4 v=0
20480 On ch=1 n=g5 v=49
20480 On ch=1 n=d6 v=50
20480 On ch=2 n=d#5 v=58
20480 On ch=2 n=d#4 v=45
20538 On ch=1 n=g5 v=0
20538 On ch=1 n=d6 v=0
20538 On ch=2 n=d#5 v=0
20544 On ch=1 n=a#5 v=50
20544 On ch=1 n=d#6 v=52
20544 On ch=2 n=c#5 v=45
20602 On ch=1 n=a#5 v=0
20602 On ch=1 n=d#6 v=0
20602 On ch=2 n=c#5 v=0
20608 On ch=1 n=g5 v=47
20608 On ch=1 n=d6 v=46
20608 On ch=2 n=d#5 v=52
20666 On ch=1 n=g5 v=0
20666 On ch=1 n=d6 v=0
20666 On ch=2 n=d#5 v=0
20672 On ch=1 n=b5 v=50
20672 On ch=1 n=d#6 v=51
20672 On ch=2 n=b4 v=42
20730 On ch=1 n=b5 v=0
20730 On ch=1 n=d#6 v=0
20730 On ch=2 n=b4 v=0
20736 On ch=1 n=g5 v=48
20736 On ch=1 n=d6 v=50
20736 On ch=2 n=d#5 v=57
20794 On ch=1 n=g5 v=0
20794 On ch=1 n=d6 v=0
20794 On ch=2 n=d#5 v=0
20800 On ch=1 n=c#6 v=49
20800 On ch=1 n=d#6 v=50
20800 On ch=2 n=a#4 v=42
20826 On ch=2 n=d#4 v=0
20858 On ch=1 n=c#6 v=0
20858 On ch=1 n=d#6 v=0
20858 On ch=2 n=a#4 v=0
20864 On ch=1 n=g#5 v=48
20864 On ch=1 n=d6 v=49
20864 On ch=2 n=e5 v=56
20864 On ch=2 n=g#4 v=51
20922 On ch=1 n=g#5 v=0
20922 On ch=1 n=d6 v=0
20922 On ch=2 n=e5 v=0
20928 On ch=1 n=b5 v=51
20928 On ch=1 n=d#6 v=53
20928 On ch=2 n=d#5 v=47
20980 On ch=2 n=g#4 v=0
20986 On ch=1 n=b5 v=0
20986 On ch=1 n=d#6 v=0
20986 On ch=2 n=d#5 v=0
20992 On ch=1 n=a5 v=55
20992 On ch=1 n=e6 v=52
20992 On ch=2 n=f5 v=53
20992 On ch=2 n=f4 v=43
21050 On ch=1 n=a5 v=0
21050 On ch=1 n=e6 v=0
21050 On ch=2 n=f5 v=0
21056 On ch=1 n=c6 v=53
21056 On ch=1 n=f6 v=52
21056 On ch=2 n=d#5 v=45
21114 On ch=1 n=c6 v=0
21114 On ch=1 n=f6 v=0
21114 On ch=2 n=d#5 v=0
21120 On ch=1 n=a5 v=48
21120 On ch=1 n=e6 v=46
21120 On ch=2 n=f5 v=50
21178 On ch=1 n=a5 v=0
21178 On ch=1 n=e6 v=0
21178 On ch=2 n=f5 v=0
21184 On ch=1 n=c#6 v=49
21184 On ch=1 n=f6 v=51
21184 On ch=2 n=c#5 v=42
21242 On ch=1 n=c#6 v=0
21242 On ch=1 n=f6 v=0
21242 On ch=2 n=c#5 v=0
21248 On ch=1 n=a5 v=50
21248 On ch=1 n=e6 v=48
21248 On ch=2 n=f5 v=54
21306 On ch=1 n=a5 v=0
21306 On ch=1 n=e6 v=0
21306 On ch=2 n=f5 v=0
21312 On ch=1 n=d#6 v=52
21312 On ch=1 n=f6 v=50
21312 On ch=2 n=c5 v=42
21338 On ch=2 n=f4 v=0
21370 On ch=1 n=d#6 v=0
21370 On ch=1 n=f6 v=0
21370 On ch=2 n=c5 v=0
21376 On ch=1 n=a#5 v=46
21376 On ch=1 n=e6 v=47
21376 On ch=2 n=f#5 v=54
21376 On ch=2 n=a#4 v=56
21434 On ch=1 n=a#5 v=0
21434 On ch=1 n=e6 v=0
21434 On ch=2 n=f#5 v=0
21440 On ch=1 n=c#6 v=53
21440 On ch=1 n=f6 v=53
21440 On ch=2 n=f5 v=47
21492 On ch=2 n=a#4 v=0
21498 On ch=1 n=c#6 v=0
21498 On ch=1 n=f6 v=0
21498 On ch=2 n=f5 v=0
21504 On ch=1 n=f6 v=52
21504 On ch=1 n=a#5 v=56
21504 On ch=2 n=g5 v=54
21504 On ch=2 n=c#5 v=55
21562 On ch=1 n=f6 v=0
21562 On ch=2 n=g5 v=0
21568 On ch=1 n=f#6 v=53
21568 On ch=2 n=f#5 v=45
21620 On ch=1 n=a#5 v=0
21620 On ch=2 n=c#5 v=0
21626 On ch=1 n=f#6 v=0
21626 On ch=2 n=f#5 v=0
21632 On ch=1 n=f6 v=48
21632 On ch=1 n=c#6 v=64
21632 On ch=2 n=f5 v=44
21632 On ch=2 n=a#4 v=45
21690 On ch=1 n=f6 v=0
21690 On ch=2 n=f5 v=0
21696 On ch=1 n=f#6 v=49
21696 On ch=2 n=f#5 v=51
21748 On ch=1 n=c#6 v=0
21748 On ch=2 n=a#4 v=0
21754 On ch=1 n=f#6 v=0
21754 On ch=2 n=f#5 v=0
21760 On ch=1 n=f#6 v=52
21760 On ch=1 n=b5 v=55
21760 On ch=2 n=g#5 v=54
21760 On ch=2 n=d#5 v=54
21818 On ch=1 n=f#6 v=0
21818 On ch=2 n=g#5 v=0
21824 On ch=1 n=g6 v=51
21824 On ch=2 n=g5 v=46
21876 On ch=1 n=b5 v=0
21876 On ch=2 n=d#5 v=0
21882 On ch=1 n=g6 v=0
21882 On ch=2 n=g5 v=0
21888 On ch=1 n=f#6 v=46
21888 On ch=1 n=d#6 v=65
21888 On ch=2 n=f#5 v=44
21888 On ch=2 n=b4 v=42
21946 On ch=1 n=f#6 v=0
21946 On ch=2 n=f#5 v=0
21952 On ch=1 n=g6 v=49
21952 On ch=2 n=g5 v=51
22004 On ch=1 n=d#6 v=0
22004 On ch=2 n=b4 v=0
22010 On ch=1 n=g6 v=0
22010 On ch=2 n=g5 v=0
22016 On ch=1 n=g6 v=54
22016 On ch=1 n=c6 v=58
22016 On ch=2 n=a5 v=54
22016 On ch=2 n=d#5 v=55
22074 On ch=1 n=g6 v=0
22074 On ch=2 n=a5 v=0
22080 On ch=1 n=g#6 v=51
22080 On ch=2 n=g#5 v=46
22132 On ch=1 n=c6 v=0
22132 On ch=2 n=d#5 v=0
22138 On ch=1 n=g#6 v=0
22138 On ch=2 n=g#5 v=0
22144 On ch=1 n=g6 v=49
22144 On ch=1 n=d#6 v=66
22144 On ch=2 n=g5 v=46
22144 On ch=2 n=c5 v=43
22202 On ch=1 n=g6 v=0
22202 On ch=2 n=g5 v=0
22208 On ch=1 n=g#6 v=50
22208 On ch=2 n=g#5 v=48
22260 On ch=1 n=d#6 v=0
22260 On ch=2 n=c5 v=0
22266 On ch=1 n=g#6 v=0
22266 On ch=2 n=g#5 v=0
22272 On ch=1 n=g#6 v=51
22272 On ch=1 n=d#6 v=58
22272 On ch=2 n=a#5 v=52
22272 On ch=2 n=f5 v=53
22330 On ch=1 n=g#6 v=0
22330 On ch=2 n=a#5 v=0
22336 On ch=1 n=a6 v=51
22336 On ch=2 n=a5 v=45
22388 On ch=1 n=d#6 v=0
22388 On ch=2 n=f5 v=0
22394 On ch=1 n=a6 v=0
22394 On ch=2 n=a5 v=0
22400 On ch=1 n=g#6 v=49
22400 On ch=1 n=f6 v=61
22400 On ch=2 n=g#5 v=45
22400 On ch=2 n=b4 v=42
22458 On ch=1 n=g#6 v=0
22458 On ch=2 n=g#5 v=0
22464 On ch=1 n=a6 v=52
22464 On ch=2 n=a5 v=50
22516 On ch=1 n=f6 v=0
22516 On ch=2 n=b4 v=0
22522 On ch=1 n=a6 v=0
22522 On ch=2 n=a5 v=0
22528 On ch=1 n=c#6 v=53
22528 On ch=1 n=a#6 v=54
22528 On ch=2 n=a#4 v=51
22528 On ch=2 n=f5 v=54
22528 On ch=2 n=a#5 v=52
22586 On ch=1 n=c#6 v=0
22586 On ch=1 n=a#6 v=0
22592 On ch=1 n=a6 v=60
22644 On ch=2 n=a#4 v=0
22644 On ch=2 n=f5 v=0
22644 On ch=2 n=a#5 v=0
22650 On ch=1 n=a6 v=0
22656 On ch=1 n=a#6 v=84
22714 On ch=1 n=a#6 v=0
22720 On ch=1 n=b6 v=101
22778 On ch=1 n=b6 v=0
22784 On ch=1 n=c#7 v=107
22842 On ch=1 n=c#7 v=0
22848 On ch=1 n=b6 v=89
22906 On ch=1 n=b6 v=0
22912 On ch=1 n=a#6 v=88
22970 On ch=1 n=a#6 v=0
22976 On ch=1 n=g#6 v=88
23034 On ch=1 n=g#6 v=0
23040 On ch=1 n=f6 v=76
23098 On ch=1 n=f6 v=0
23104 On ch=1 n=d6 v=73
23162 On ch=1 n=d6 v=0
23168 On ch=1 n=c#6 v=76
23226 On ch=1 n=c#6 v=0
23232 On ch=1 n=b5 v=77
23290 On ch=1 n=b5 v=0
23296 On ch=1 n=a#5 v=81
23354 On ch=1 n=a#5 v=0
23360 On ch=1 n=g#5 v=79
23418 On ch=1 n=g#5 v=0
23424 On ch=1 n=f5 v=75
23482 On ch=1 n=f5 v=0
23488 On ch=1 n=d5 v=74
23546 On ch=1 n=d5 v=0
23552 On ch=2 n=c#5 v=91
23610 On ch=2 n=c#5 v=0
23616 On ch=2 n=b4 v=86
23674 On ch=2 n=b4 v=0
23680 On ch=1 n=d5 v=73
23680 On ch=1 n=a#5 v=73
23680 On ch=2 n=a#4 v=90
23738 On ch=1 n=d5 v=0
23738 On ch=1 n=a#5 v=0
23738 On ch=2 n=a#4 v=0
23744 On ch=1 n=f5 v=82
23744 On ch=1 n=b5 v=81
23744 On ch=2 n=g#4 v=85
23802 On ch=1 n=f5 v=0
23802 On ch=1 n=b5 v=0
23802 On ch=2 n=g#4 v=0
23808 On ch=1 n=d#5 v=77
23808 On ch=1 n=a#5 v=78
23808 On ch=2 n=a#4 v=94
23808 On ch=2 n=a#3 v=86
23866 On ch=1 n=d#5 v=0
23866 On ch=1 n=a#5 v=0
23866 On ch=2 n=a#4 v=0
23872 On ch=1 n=f#5 v=77
23872 On ch=1 n=b5 v=75
23872 On ch=2 n=g#4 v=82
23930 On ch=1 n=f#5 v=0
23930 On ch=1 n=b5 v=0
23930 On ch=2 n=g#4 v=0
23936 On ch=1 n=d#5 v=74
23936 On ch=1 n=b5 v=74
23936 On ch=2 n=g#4 v=81
23994 On ch=1 n=d#5 v=0
23994 On ch=1 n=b5 v=0
23994 On ch=2 n=g#4 v=0
24000 On ch=1 n=f#5 v=73
24000 On ch=1 n=c6 v=74
24000 On ch=2 n=f#4 v=71
24058 On ch=1 n=f#5 v=0
24058 On ch=1 n=c6 v=0
24058 On ch=2 n=f#4 v=0
24064 On ch=1 n=d#5 v=67
24064 On ch=1 n=b5 v=66
24064 On ch=2 n=g#4 v=82
24122 On ch=1 n=d#5 v=0
24122 On ch=1 n=b5 v=0
24122 On ch=2 n=g#4 v=0
24128 On ch=1 n=a#5 v=69
24128 On ch=1 n=c#6 v=69
24128 On ch=2 n=f#4 v=66
24186 On ch=1 n=a#5 v=0
24186 On ch=1 n=c#6 v=0
24186 On ch=2 n=f#4 v=0
24192 On ch=1 n=f#5 v=64
24192 On ch=1 n=d6 v=65
24192 On ch=2 n=f4 v=64
24250 On ch=1 n=f#5 v=0
24250 On ch=1 n=d6 v=0
24250 On ch=2 n=f4 v=0
24256 On ch=1 n=a#5 v=64
24256 On ch=1 n=d#6 v=64
24256 On ch=2 n=d#4 v=59
24270 On ch=2 n=a#3 v=0
24314 On ch=1 n=a#5 v=0
24314 On ch=1 n=d#6 v=0
24314 On ch=2 n=d#4 v=0
24320 On ch=1 n=g#5 v=54
24320 On ch=1 n=c#6 v=56
24320 On ch=2 n=f#4 v=64
24320 On ch=2 n=a#3 v=63
24378 On ch=1 n=g#5 v=0
24378 On ch=1 n=c#6 v=0
24378 On ch=2 n=f#4 v=0
24384 On ch=1 n=b5 v=54
24384 On ch=1 n=d#6 v=57
24384 On ch=2 n=f4 v=52
24442 On ch=1 n=b5 v=0
24442 On ch=1 n=d#6 v=0
24442 On ch=2 n=f4 v=0
24448 On ch=1 n=g#5 v=52
24448 On ch=1 n=f6 v=52
24448 On ch=2 n=d#4 v=47
24506 On ch=1 n=g#5 v=0
24506 On ch=1 n=f6 v=0
24506 On ch=2 n=d#4 v=0
24512 On ch=1 n=a#5 v=52
24512 On ch=1 n=f#6 v=48
24512 On ch=2 n=d4 v=46
24551 On ch=2 n=a#3 v=0
24570 On ch=1 n=a#5 v=0
24570 On ch=1 n=f#6 v=0
24570 On ch=2 n=d4 v=0
24576 On ch=1 n=f#5 v=45
24576 On ch=1 n=d#6 v=47
24576 On ch=2 n=d#3 v=37
24692 On ch=1 n=f#5 v=0
24692 On ch=1 n=d#6 v=0
24703 On ch=2 n=d#3 v=0
24704 On ch=1 n=f#5 v=49
24704 On ch=1 n=d#6 v=47
24704 On ch=2 n=a#3 v=52
24768 On ch=1 n=f#5 v=0
24768 On ch=1 n=d#6 v=0
24768 On ch=1 n=a#5 v=47
24768 On ch=1 n=d6 v=45
24831 On ch=2 n=a#3 v=0
24832 On ch=1 n=a#5 v=0
24832 On ch=1 n=d6 v=0
24832 On ch=1 n=f#5 v=50
24832 On ch=1 n=d#6 v=51
24832 On ch=2 n=a4 v=60
24896 On ch=1 n=f#5 v=0
24896 On ch=1 n=d#6 v=0
24896 On ch=1 n=g#5 v=45
24896 On ch=1 n=d6 v=44
24959 On ch=2 n=a4 v=0
24960 On ch=1 n=g#5 v=0
24960 On ch=1 n=d6 v=0
24960 On ch=1 n=f5 v=44
24960 On ch=1 n=c#6 v=47
24960 On ch=2 n=a#4 v=53
25024 On ch=1 n=f5 v=0
25024 On ch=1 n=c#6 v=0
25024 On ch=1 n=g#5 v=50
25024 On ch=1 n=d6 v=50
25087 On ch=2 n=a#4 v=0
25088 On ch=1 n=g#5 v=0
25088 On ch=1 n=d6 v=0
25088 On ch=1 n=f#5 v=54
25088 On ch=1 n=d#6 v=53
25088 On ch=2 n=d#4 v=45
25152 On ch=1 n=f#5 v=0
25152 On ch=1 n=d#6 v=0
25152 On ch=1 n=a#5 v=47
25152 On ch=1 n=d6 v=47
25215 On ch=2 n=d#4 v=0
25216 On ch=1 n=a#5 v=0
25216 On ch=1 n=d6 v=0
25216 On ch=1 n=f#5 v=51
25216 On ch=1 n=d#6 v=51
25216 On ch=2 n=a#4 v=57
25280 On ch=1 n=f#5 v=0
25280 On ch=1 n=d#6 v=0
25280 On ch=1 n=a#5 v=65
25280 On ch=1 n=f6 v=64
25343 On ch=2 n=a#4 v=0
25344 On ch=1 n=a#5 v=0
25344 On ch=1 n=f6 v=0
25344 On ch=1 n=a#5 v=78
25344 On ch=1 n=f#6 v=77
25344 On ch=2 n=f5 v=57
25408 On ch=1 n=a#5 v=0
25408 On ch=1 n=f#6 v=0
25408 On ch=1 n=d#6 v=91
25408 On ch=1 n=g#6 v=88
25471 On ch=2 n=f5 v=0
25472 On ch=1 n=d#6 v=0
25472 On ch=1 n=g#6 v=0
25472 On ch=1 n=c#6 v=102
25472 On ch=1 n=a#6 v=103
25472 On ch=2 n=f#5 v=52
25536 On ch=1 n=c#6 v=0
25536 On ch=1 n=a#6 v=0
25536 On ch=1 n=d#6 v=88
25536 On ch=1 n=g#6 v=89
25599 On ch=2 n=f#5 v=0
25600 On ch=1 n=d#6 v=0
25600 On ch=1 n=g#6 v=0
25600 On ch=1 n=c6 v=106
25600 On ch=1 n=a#6 v=106
25600 On ch=2 n=g#3 v=39
25664 On ch=1 n=c6 v=0
25664 On ch=1 n=a#6 v=0
25664 On ch=1 n=d#6 v=90
25664 On ch=1 n=g#6 v=90
25727 On ch=2 n=g#3 v=0
25728 On ch=1 n=d#6 v=0
25728 On ch=1 n=g#6 v=0
25728 On ch=1 n=b5 v=88
25728 On ch=1 n=g6 v=91
25728 On ch=2 n=d#4 v=54
25792 On ch=1 n=b5 v=0
25792 On ch=1 n=g6 v=0
25792 On ch=1 n=d#6 v=97
25792 On ch=1 n=g#6 v=98
25855 On ch=2 n=d#4 v=0
25856 On ch=1 n=d#6 v=0
25856 On ch=1 n=g#6 v=0
25856 On ch=1 n=a#5 v=94
25856 On ch=1 n=g6 v=96
25856 On ch=2 n=a#4 v=58
25920 On ch=1 n=a#5 v=0
25920 On ch=1 n=g6 v=0
25920 On ch=1 n=d#6 v=89
25920 On ch=1 n=f#6 v=88
25983 On ch=2 n=a#4 v=0
25984 On ch=1 n=d#6 v=0
25984 On ch=1 n=f#6 v=0
25984 On ch=1 n=a5 v=89
25984 On ch=1 n=f6 v=91
25984 On ch=2 n=b4 v=52
26048 On ch=1 n=a5 v=0
26048 On ch=1 n=f6 v=0
26048 On ch=1 n=d#6 v=98
26048 On ch=1 n=f#6 v=98
26111 On ch=2 n=b4 v=0
26112 On ch=1 n=d#6 v=0
26112 On ch=1 n=f#6 v=0
26112 On ch=1 n=g#5 v=93
26112 On ch=1 n=f6 v=93
26112 On ch=2 n=d#5 v=56
26176 On ch=1 n=g#5 v=0
26176 On ch=1 n=f6 v=0
26176 On ch=1 n=b5 v=88
26176 On ch=1 n=e6 v=91
26239 On ch=2 n=d#5 v=0
26240 On ch=1 n=b5 v=0
26240 On ch=1 n=e6 v=0
26240 On ch=1 n=g5 v=90
26240 On ch=1 n=d#6 v=88
26240 On ch=2 n=d5 v=47
26304 On ch=1 n=g5 v=0
26304 On ch=1 n=d#6 v=0
26304 On ch=1 n=b5 v=86
26304 On ch=1 n=e6 v=88
26367 On ch=2 n=d5 v=0
26368 On ch=1 n=b5 v=0
26368 On ch=1 n=e6 v=0
26368 On ch=1 n=f#5 v=71
26368 On ch=1 n=d#6 v=69
26368 On ch=2 n=a#4 v=41
26432 On ch=1 n=f#5 v=0
26432 On ch=1 n=d#6 v=0
26432 On ch=1 n=a#5 v=55
26432 On ch=1 n=d6 v=56
26495 On ch=2 n=a#4 v=0
26496 On ch=1 n=a#5 v=0
26496 On ch=1 n=d6 v=0
26496 On ch=1 n=f5 v=44
26496 On ch=1 n=c#6 v=44
26496 On ch=2 n=a#3 v=35
26560 On ch=1 n=f5 v=0
26560 On ch=1 n=c#6 v=0
26560 On ch=1 n=g#5 v=49
26560 On ch=1 n=d6 v=49
26623 On ch=2 n=a#3 v=0
26624 On ch=1 n=g#5 v=0
26624 On ch=1 n=d6 v=0
26624 On ch=1 n=f#5 v=54
26624 On ch=1 n=d#6 v=54
26624 On ch=2 n=d#3 v=42
26751 On ch=1 n=f#5 v=0
26751 On ch=1 n=d#6 v=0
26751 On ch=2 n=d#3 v=0
26752 On ch=1 n=f#5 v=49
26752 On ch=1 n=d#6 v=51
26752 On ch=2 n=a#3 v=52
26816 On ch=1 n=f#5 v=0
26816 On ch=1 n=d#6 v=0
26816 On ch=1 n=a#5 v=45
26816 On ch=1 n=d6 v=46
26879 On ch=2 n=a#3 v=0
26880 On ch=1 n=a#5 v=0
26880 On ch=1 n=d6 v=0
26880 On ch=1 n=f#5 v=53
26880 On ch=1 n=d#6 v=52
26880 On ch=2 n=a4 v=60
26944 On ch=1 n=f#5 v=0
26944 On ch=1 n=d#6 v=0
26944 On ch=1 n=a5 v=45
26944 On ch=1 n=d6 v=46
27007 On ch=2 n=a4 v=0
27008 On ch=1 n=a5 v=0
27008 On ch=1 n=d6 v=0
27008 On ch=1 n=f5 v=46
27008 On ch=1 n=c#6 v=45
27008 On ch=2 n=a#4 v=53
27072 On ch=1 n=f5 v=0
27072 On ch=1 n=c#6 v=0
27072 On ch=1 n=g#5 v=50
27072 On ch=1 n=d6 v=51
27135 On ch=2 n=a#4 v=0
27136 On ch=1 n=g#5 v=0
27136 On ch=1 n=d6 v=0
27136 On ch=1 n=f#5 v=53
27136 On ch=1 n=d#6 v=53
27136 On ch=2 n=d#4 v=42
27200 On ch=1 n=f#5 v=0
27200 On ch=1 n=d#6 v=0
27200 On ch=1 n=a#5 v=47
27200 On ch=1 n=d6 v=47
27263 On ch=2 n=d#4 v=0
27264 On ch=1 n=a#5 v=0
27264 On ch=1 n=d6 v=0
27264 On ch=1 n=f#5 v=56
27264 On ch=1 n=d#6 v=59
27264 On ch=2 n=a#4 v=57
27328 On ch=1 n=f#5 v=0
27328 On ch=1 n=d#6 v=0
27328 On ch=1 n=a#5 v=70
27328 On ch=1 n=f6 v=68
27391 On ch=2 n=a#4 v=0
27392 On ch=1 n=a#5 v=0
27392 On ch=1 n=f6 v=0
27392 On ch=1 n=a#5 v=80
27392 On ch=1 n=f#6 v=77
27392 On ch=2 n=f#5 v=59
27456 On ch=1 n=a#5 v=0
27456 On ch=1 n=f#6 v=0
27456 On ch=1 n=d#6 v=86
27456 On ch=1 n=g#6 v=84
27519 On ch=2 n=f#5 v=0
27520 On ch=1 n=d#6 v=0
27520 On ch=1 n=g#6 v=0
27520 On ch=1 n=d#6 v=93
27520 On ch=1 n=a#6 v=94
27520 On ch=2 n=c#4 v=35
27584 On ch=1 n=d#6 v=0
27584 On ch=1 n=a#6 v=0
27584 On ch=1 n=f#6 v=102
27584 On ch=1 n=b6 v=102
27647 On ch=2 n=c#4 v=0
27648 On ch=1 n=f#6 v=0
27648 On ch=1 n=b6 v=0
27648 On ch=1 n=d#6 v=104
27648 On ch=1 n=c#7 v=106
27648 On ch=2 n=b3 v=47
27712 On ch=1 n=d#6 v=0
27712 On ch=1 n=c#7 v=0
27712 On ch=1 n=f#6 v=89
27712 On ch=1 n=b6 v=91
27775 On ch=2 n=b3 v=0
27776 On ch=1 n=f#6 v=0
27776 On ch=1 n=b6 v=0
27776 On ch=1 n=d6 v=92
27776 On ch=1 n=a#6 v=90
27776 On ch=2 n=f#4 v=54
27840 On ch=1 n=d6 v=0
27840 On ch=1 n=a#6 v=0
27840 On ch=1 n=f#6 v=101
27840 On ch=1 n=b6 v=99
27903 On ch=2 n=f#4 v=0
27904 On ch=1 n=f#6 v=0
27904 On ch=1 n=b6 v=0
27904 On ch=1 n=d6 v=92
27904 On ch=1 n=a#6 v=95
27904 On ch=2 n=d5 v=58
27968 On ch=1 n=d6 v=0
27968 On ch=1 n=a#6 v=0
27968 On ch=1 n=f#6 v=90
27968 On ch=1 n=g#6 v=88
28031 On ch=2 n=d5 v=0
28032 On ch=1 n=f#6 v=0
28032 On ch=1 n=g#6 v=0
28032 On ch=1 n=d#6 v=91
28032 On ch=1 n=g6 v=90
28032 On ch=2 n=d#5 v=51
28096 On ch=1 n=d#6 v=0
28096 On ch=1 n=g6 v=0
28096 On ch=1 n=f#6 v=101
28096 On ch=1 n=g#6 v=99
28148 On ch=2 n=d#5 v=0
28160 On ch=1 n=f#6 v=0
28160 On ch=1 n=g#6 v=0
28160 On ch=1 n=b5 v=106
28160 On ch=1 n=a#6 v=104
28160 On ch=2 n=f#5 v=56
28224 On ch=1 n=b5 v=0
28224 On ch=1 n=a#6 v=0
28224 On ch=1 n=d#6 v=91
28224 On ch=1 n=g#6 v=91
28287 On ch=2 n=f#5 v=0
28288 On ch=1 n=d#6 v=0
28288 On ch=1 n=g#6 v=0
28288 On ch=1 n=b5 v=90
28288 On ch=1 n=g6 v=88
28288 On ch=2 n=f5 v=44
28352 On ch=1 n=b5 v=0
28352 On ch=1 n=g6 v=0
28352 On ch=1 n=d6 v=86
28352 On ch=1 n=g#6 v=85
28415 On ch=2 n=f5 v=0
28416 On ch=1 n=d6 v=0
28416 On ch=1 n=g#6 v=0
28416 On ch=1 n=b5 v=71
28416 On ch=1 n=g6 v=71
28416 On ch=2 n=c#5 v=41
28480 On ch=1 n=b5 v=0
28480 On ch=1 n=g6 v=0
28480 On ch=1 n=c#6 v=58
28480 On ch=1 n=f#6 v=58
28543 On ch=2 n=c#5 v=0
28544 On ch=1 n=c#6 v=0
28544 On ch=1 n=f#6 v=0
28544 On ch=1 n=b5 v=44
28544 On ch=1 n=e6 v=44
28544 On ch=2 n=c#4 v=34
28608 On ch=1 n=b5 v=0
28608 On ch=1 n=e6 v=0
28608 On ch=1 n=c#6 v=51
28608 On ch=1 n=f6 v=48
28671 On ch=2 n=c#4 v=0
28672 On ch=1 n=c#6 v=0
28672 On ch=1 n=f6 v=0
28672 On ch=1 n=a#5 v=54
28672 On ch=1 n=f#6 v=52
28672 On ch=2 n=f#3 v=41
28799 On ch=1 n=a#5 v=0
28799 On ch=1 n=f#6 v=0
28799 On ch=2 n=f#3 v=0
28800 On ch=1 n=a#5 v=48
28800 On ch=1 n=f#6 v=48
28800 On ch=2 n=c#4 v=56
28858 On ch=1 n=a#5 v=0
28858 On ch=1 n=f#6 v=0
28864 On ch=1 n=c#6 v=44
28864 On ch=1 n=f6 v=46
28922 On ch=1 n=c#6 v=0
28922 On ch=1 n=f6 v=0
28927 On ch=2 n=c#4 v=0
28928 On ch=1 n=a5 v=52
28928 On ch=1 n=f#6 v=52
28928 On ch=2 n=c5 v=60
28986 On ch=1 n=a5 v=0
28986 On ch=1 n=f#6 v=0
28992 On ch=1 n=c6 v=43
28992 On ch=1 n=f6 v=44
29050 On ch=1 n=c6 v=0
29050 On ch=1 n=f6 v=0
29055 On ch=2 n=c5 v=0
29056 On ch=1 n=g#5 v=44
29056 On ch=1 n=d#6 v=43
29056 On ch=2 n=c#5 v=53
29114 On ch=1 n=g#5 v=0
29114 On ch=1 n=d#6 v=0
29120 On ch=1 n=b5 v=48
29120 On ch=1 n=f6 v=50
29178 On ch=1 n=b5 v=0
29178 On ch=1 n=f6 v=0
29183 On ch=2 n=c#5 v=0
29184 On ch=1 n=a#5 v=54
29184 On ch=1 n=f#6 v=52
29184 On ch=2 n=f#4 v=42
29242 On ch=1 n=a#5 v=0
29242 On ch=1 n=f#6 v=0
29248 On ch=1 n=c#6 v=47
29248 On ch=1 n=f6 v=46
29306 On ch=1 n=c#6 v=0
29306 On ch=1 n=f6 v=0
29311 On ch=2 n=f#4 v=0
29312 On ch=1 n=a#5 v=51
29312 On ch=1 n=f#6 v=49
29312 On ch=2 n=c#5 v=56
29370 On ch=1 n=a#5 v=0
29370 On ch=1 n=f#6 v=0
29376 On ch=1 n=c#6 v=58
29376 On ch=1 n=g#6 v=61
29434 On ch=1 n=c#6 v=0
29434 On ch=1 n=g#6 v=0
29439 On ch=2 n=c#5 v=0
29440 On ch=1 n=c#6 v=69
29440 On ch=1 n=a#6 v=71
29440 On ch=2 n=f#5 v=74
29498 On ch=1 n=c#6 v=0
29498 On ch=1 n=a#6 v=0
29504 On ch=1 n=f#6 v=74
29504 On ch=1 n=b6 v=76
29562 On ch=1 n=f#6 v=0
29562 On ch=1 n=b6 v=0
29567 On ch=2 n=f#5 v=0
29568 On ch=1 n=f#6 v=85
29568 On ch=1 n=c#7 v=83
29568 On ch=2 n=a#5 v=90
29626 On ch=1 n=f#6 v=0
29626 On ch=1 n=c#7 v=0
29632 On ch=1 n=d7 v=82
29690 On ch=1 n=d7 v=0
29695 On ch=2 n=a#5 v=0
29696 On ch=1 n=a#6 v=88
29696 On ch=1 n=d#7 v=86
29696 On ch=2 n=g3 v=64
29754 On ch=1 n=a#6 v=0
29754 On ch=1 n=d#7 v=0
29760 On ch=1 n=d#6 v=75
29760 On ch=1 n=d7 v=77
29812 On ch=2 n=g3 v=0
29818 On ch=1 n=d#6 v=0
29818 On ch=1 n=d7 v=0
29824 On ch=1 n=d#7 v=84
29824 On ch=2 n=d#4 v=90
29882 On ch=1 n=d#7 v=0
29888 On ch=1 n=d#6 v=84
29888 On ch=1 n=e7 v=85
29940 On ch=2 n=d#4 v=0
29946 On ch=1 n=d#6 v=0
29946 On ch=1 n=e7 v=0
29952 On ch=1 n=a#6 v=79
29952 On ch=1 n=d#7 v=80
29952 On ch=2 n=a#4 v=100
29952 On ch=2 n=c#5 v=101
30010 On ch=1 n=a#6 v=0
30010 On ch=1 n=d#7 v=0
30016 On ch=1 n=d#6 v=77
30016 On ch=1 n=d7 v=77
30068 On ch=2 n=a#4 v=0
30068 On ch=2 n=c#5 v=0
30074 On ch=1 n=d#6 v=0
30074 On ch=1 n=d7 v=0
30080 On ch=1 n=a#6 v=75
30080 On ch=1 n=c#7 v=76
30080 On ch=2 n=d#5 v=86
30138 On ch=1 n=a#6 v=0
30138 On ch=1 n=c#7 v=0
30144 On ch=1 n=d#6 v=73
30144 On ch=1 n=c7 v=77
30196 On ch=2 n=d#5 v=0
30202 On ch=1 n=d#6 v=0
30202 On ch=1 n=c7 v=0
30208 On ch=1 n=g#6 v=78
30208 On ch=1 n=b6 v=78
30208 On ch=2 n=g#4 v=77
30208 On ch=2 n=b4 v=75
30266 On ch=1 n=g#6 v=0
30266 On ch=1 n=b6 v=0
30272 On ch=1 n=d#6 v=85
30272 On ch=1 n=c7 v=85
30324 On ch=2 n=g#4 v=0
30324 On ch=2 n=b4 v=0
30330 On ch=1 n=d#6 v=0
30330 On ch=1 n=c7 v=0
30336 On ch=1 n=a#6 v=83
30336 On ch=1 n=c#7 v=83
30336 On ch=2 n=e4 v=63
30394 On ch=1 n=a#6 v=0
30394 On ch=1 n=c#7 v=0
30400 On ch=1 n=d#6 v=85
30400 On ch=1 n=d7 v=84
30452 On ch=2 n=e4 v=0
30458 On ch=1 n=d#6 v=0
30458 On ch=1 n=d7 v=0
30464 On ch=1 n=b6 v=85
30464 On ch=1 n=d#7 v=88
30464 On ch=2 n=d#4 v=72
30522 On ch=1 n=b6 v=0
30522 On ch=1 n=d#7 v=0
30528 On ch=1 n=d#6 v=76
30528 On ch=1 n=d7 v=77
30580 On ch=2 n=d#4 v=0
30586 On ch=1 n=d#6 v=0
30586 On ch=1 n=d7 v=0
30592 On ch=1 n=b6 v=85
30592 On ch=1 n=d#7 v=84
30592 On ch=2 n=g#3 v=66
30650 On ch=1 n=b6 v=0
30650 On ch=1 n=d#7 v=0
30656 On ch=1 n=e6 v=82
30656 On ch=1 n=e7 v=82
30708 On ch=2 n=g#3 v=0
30714 On ch=1 n=e6 v=0
30714 On ch=1 n=e7 v=0
30720 On ch=1 n=c7 v=99
30720 On ch=1 n=f7 v=99
30720 On ch=2 n=a3 v=96
30778 On ch=1 n=c7 v=0
30778 On ch=1 n=f7 v=0
30784 On ch=1 n=f6 v=87
30784 On ch=1 n=e7 v=89
30836 On ch=2 n=a3 v=0
30842 On ch=1 n=f6 v=0
30842 On ch=1 n=e7 v=0
30848 On ch=1 n=c7 v=96
30848 On ch=1 n=f7 v=97
30848 On ch=2 n=f4 v=109
30906 On ch=1 n=c7 v=0
30906 On ch=1 n=f7 v=0
30912 On ch=1 n=f6 v=98
30912 On ch=1 n=f#7 v=95
30964 On ch=2 n=f4 v=0
30970 On ch=1 n=f6 v=0
30970 On ch=1 n=f#7 v=0
30976 On ch=1 n=c7 v=92
30976 On ch=1 n=f7 v=93
30976 On ch=2 n=c5 v=117
30976 On ch=2 n=d#5 v=116
31034 On ch=1 n=c7 v=0
31034 On ch=1 n=f7 v=0
31040 On ch=1 n=f6 v=89
31040 On ch=1 n=e7 v=87
31092 On ch=2 n=c5 v=0
31092 On ch=2 n=d#5 v=0
31098 On ch=1 n=f6 v=0
31098 On ch=1 n=e7 v=0
31104 On ch=1 n=c7 v=86
31104 On ch=1 n=d#7 v=85
31104 On ch=2 n=f5 v=103
31162 On ch=1 n=c7 v=0
31162 On ch=1 n=d#7 v=0
31168 On ch=1 n=f6 v=86
31168 On ch=1 n=d7 v=88
31220 On ch=2 n=f5 v=0
31226 On ch=1 n=f6 v=0
31226 On ch=1 n=d7 v=0
31232 On ch=1 n=a#6 v=88
31232 On ch=1 n=c#7 v=89
31232 On ch=2 n=a#4 v=87
31232 On ch=2 n=d5 v=90
31290 On ch=1 n=a#6 v=0
31290 On ch=1 n=c#7 v=0
31296 On ch=1 n=f6 v=94
31296 On ch=1 n=d7 v=96
31348 On ch=2 n=a#4 v=0
31348 On ch=2 n=d5 v=0
31354 On ch=1 n=f6 v=0
31354 On ch=1 n=d7 v=0
31360 On ch=1 n=c7 v=94
31360 On ch=1 n=d#7 v=96
31360 On ch=2 n=f#4 v=73
31418 On ch=1 n=c7 v=0
31418 On ch=1 n=d#7 v=0
31424 On ch=1 n=f6 v=97
31424 On ch=1 n=e7 v=96
31476 On ch=2 n=f#4 v=0
31482 On ch=1 n=f6 v=0
31482 On ch=1 n=e7 v=0
31488 On ch=1 n=c#7 v=99
31488 On ch=1 n=f7 v=99
31488 On ch=2 n=f4 v=85
31546 On ch=1 n=c#7 v=0
31546 On ch=1 n=f7 v=0
31552 On ch=1 n=a#6 v=89
31552 On ch=1 n=e7 v=89
31604 On ch=2 n=f4 v=0
31610 On ch=1 n=a#6 v=0
31610 On ch=1 n=e7 v=0
31616 On ch=1 n=c#7 v=96
31616 On ch=1 n=f7 v=97
31616 On ch=2 n=a#3 v=74
31674 On ch=1 n=c#7 v=0
31674 On ch=1 n=f7 v=0
31680 On ch=1 n=f#7 v=98
31732 On ch=2 n=a#3 v=0
31738 On ch=1 n=f#7 v=0
31744 On ch=1 n=d7 v=73
31744 On ch=1 n=g#7 v=73
31744 On ch=2 n=b3 v=97
31802 On ch=1 n=d7 v=0
31802 On ch=1 n=g#7 v=0
31808 On ch=1 n=g#6 v=84
31808 On ch=1 n=g7 v=85
31860 On ch=2 n=b3 v=0
31866 On ch=1 n=g#6 v=0
31866 On ch=1 n=g7 v=0
31872 On ch=1 n=c#7 v=86
31872 On ch=1 n=f#7 v=87
31872 On ch=2 n=g#4 v=111
31930 On ch=1 n=c#7 v=0
31930 On ch=1 n=f#7 v=0
31936 On ch=1 n=g#6 v=86
31936 On ch=1 n=f7 v=85
31988 On ch=2 n=g#4 v=0
31994 On ch=1 n=g#6 v=0
31994 On ch=1 n=f7 v=0
32000 On ch=1 n=c#7 v=87
32000 On ch=1 n=e7 v=90
32000 On ch=2 n=d5 v=121
32000 On ch=2 n=g#5 v=121
32058 On ch=1 n=c#7 v=0
32058 On ch=1 n=e7 v=0
32064 On ch=1 n=g#6 v=97
32064 On ch=1 n=f7 v=96
32116 On ch=2 n=d5 v=0
32116 On ch=2 n=g#5 v=0
32122 On ch=1 n=g#6 v=0
32122 On ch=1 n=f7 v=0
32128 On ch=1 n=c#7 v=96
32128 On ch=1 n=f#7 v=96
32128 On ch=2 n=g#4 v=71
32186 On ch=1 n=c#7 v=0
32186 On ch=1 n=f#7 v=0
32192 On ch=1 n=g#6 v=98
32192 On ch=1 n=g7 v=96
32244 On ch=2 n=g#4 v=0
32250 On ch=1 n=g#6 v=0
32250 On ch=1 n=g7 v=0
32256 On ch=1 n=d#7 v=101
32256 On ch=1 n=g#7 v=101
32256 On ch=2 n=c4 v=72
32314 On ch=1 n=d#7 v=0
32314 On ch=1 n=g#7 v=0
32320 On ch=1 n=g#6 v=88
32320 On ch=1 n=g7 v=88
32372 On ch=2 n=c4 v=0
32378 On ch=1 n=g#6 v=0
32378 On ch=1 n=g7 v=0
32384 On ch=1 n=d#7 v=86
32384 On ch=1 n=f#7 v=87
32384 On ch=2 n=g#4 v=105
32442 On ch=1 n=d#7 v=0
32442 On ch=1 n=f#7 v=0
32448 On ch=1 n=g#6 v=93
32448 On ch=1 n=g7 v=95
32500 On ch=2 n=g#4 v=0
32506 On ch=1 n=g#6 v=0
32506 On ch=1 n=g7 v=0
32512 On ch=1 n=d#7 v=99
32512 On ch=1 n=g#7 v=99
32512 On ch=2 n=d#5 v=118
32512 On ch=2 n=f#5 v=118
32512 On ch=2 n=g#5 v=119
32570 On ch=1 n=d#7 v=0
32570 On ch=1 n=g#7 v=0
32576 On ch=1 n=g#6 v=88
32576 On ch=1 n=g7 v=87
32628 On ch=2 n=d#5 v=0
32628 On ch=2 n=f#5 v=0
32628 On ch=2 n=g#5 v=0
32634 On ch=1 n=g#6 v=0
32634 On ch=1 n=g7 v=0
32640 On ch=1 n=d#7 v=95
32640 On ch=1 n=g#7 v=97
32640 On ch=2 n=g#4 v=72
32698 On ch=1 n=d#7 v=0
32698 On ch=1 n=g#7 v=0
32704 On ch=1 n=a6 v=96
32704 On ch=1 n=a7 v=99
32756 On ch=2 n=g#4 v=0
32762 On ch=1 n=a6 v=0
32762 On ch=1 n=a7 v=0
32768 On ch=1 n=f7 v=99
32768 On ch=1 n=a#7 v=99
32768 On ch=2 n=d4 v=77
32826 On ch=1 n=f7 v=0
32826 On ch=1 n=a#7 v=0
32832 On ch=1 n=a#6 v=90
32832 On ch=1 n=a7 v=89
32884 On ch=2 n=d4 v=0
32890 On ch=1 n=a#6 v=0
32890 On ch=1 n=a7 v=0
32896 On ch=1 n=f7 v=87
32896 On ch=1 n=g#7 v=88
32896 On ch=2 n=a#4 v=109
32954 On ch=1 n=f7 v=0
32954 On ch=1 n=g#7 v=0
32960 On ch=1 n=a#6 v=85
32960 On ch=1 n=g7 v=86
33012 On ch=2 n=a#4 v=0
33018 On ch=1 n=a#6 v=0
33018 On ch=1 n=g7 v=0
33024 On ch=1 n=f7 v=88
33024 On ch=1 n=f#7 v=89
33024 On ch=2 n=f5 v=119
33024 On ch=2 n=a#5 v=118
33082 On ch=1 n=f7 v=0
33082 On ch=1 n=f#7 v=0
33088 On ch=1 n=a#6 v=95
33088 On ch=1 n=g7 v=94
33140 On ch=2 n=f5 v=0
33140 On ch=2 n=a#5 v=0
33146 On ch=1 n=a#6 v=0
33146 On ch=1 n=g7 v=0
33152 On ch=1 n=f7 v=98
33152 On ch=1 n=g#7 v=95
33152 On ch=2 n=a#4 v=70
33210 On ch=1 n=f7 v=0
33210 On ch=1 n=g#7 v=0
33216 On ch=1 n=a#6 v=96
33216 On ch=1 n=a7 v=96
33268 On ch=2 n=a#4 v=0
33274 On ch=1 n=a#6 v=0
33274 On ch=1 n=a7 v=0
33280 On ch=1 n=f#7 v=104
33280 On ch=1 n=a#7 v=105
33280 On ch=2 n=d#4 v=108
33280 On ch=2 n=c5 v=106
33338 On ch=1 n=f#7 v=0
33338 On ch=1 n=a#7 v=0
33344 On ch=1 n=a#6 v=90
33344 On ch=1 n=a7 v=90
33402 On ch=1 n=a#6 v=0
33402 On ch=1 n=a7 v=0
33408 On ch=1 n=f#7 v=100
33408 On ch=1 n=a#7 v=101
33408 On ch=2 n=d#4 v=0
33408 On ch=2 n=c5 v=0
33408 On ch=2 n=f#5 v=118
33408 On ch=2 n=a#5 v=117
33466 On ch=1 n=f#7 v=0
33466 On ch=1 n=a#7 v=0
33472 On ch=1 n=a#6 v=92
33472 On ch=1 n=a7 v=90
33524 On ch=2 n=f#5 v=0
33524 On ch=2 n=a#5 v=0
33530 On ch=1 n=a#6 v=0
33530 On ch=1 n=a7 v=0
33536 On ch=1 n=f#7 v=101
33536 On ch=1 n=a#7 v=104
33536 On ch=2 n=c#5 v=85
33594 On ch=1 n=f#7 v=0
33594 On ch=1 n=a#7 v=0
33600 On ch=1 n=a#6 v=92
33600 On ch=1 n=a7 v=92
33658 On ch=1 n=a#6 v=0
33658 On ch=1 n=a7 v=0
33664 On ch=1 n=f#7 v=100
33664 On ch=1 n=a#7 v=102
33664 On ch=2 n=c#5 v=0
33664 On ch=2 n=f#5 v=113
33664 On ch=2 n=a#5 v=114
33722 On ch=1 n=f#7 v=0
33722 On ch=1 n=a#7 v=0
33728 On ch=1 n=a#6 v=91
33728 On ch=1 n=a7 v=93
33780 On ch=2 n=f#5 v=0
33780 On ch=2 n=a#5 v=0
33786 On ch=1 n=a#6 v=0
33786 On ch=1 n=a7 v=0
33792 On ch=2 n=e2 v=75
33838 On ch=2 n=e2 v=0
33843 On ch=2 n=e3 v=117
33889 On ch=2 n=e3 v=0
33894 On ch=2 n=b3 v=117
33940 On ch=2 n=b3 v=0
33945 On ch=2 n=g#4 v=120
33991 On ch=2 n=g#4 v=0
33996 On ch=2 n=d5 v=115
34043 On ch=2 n=d5 v=0
34048 On ch=1 n=a#7 v=87
34048 On ch=1 n=a#7 v=108
34048 On ch=2 n=a#5 v=121
34048 On ch=2 n=a#5 v=123
34106 On ch=1 n=a#7 v=0
34112 On ch=1 n=b6 v=75
34112 On ch=1 n=d7 v=73
34164 On ch=2 n=a#5 v=0
34170 On ch=1 n=b6 v=0
34170 On ch=1 n=d7 v=0
34176 On ch=1 n=a#6 v=79
34176 On ch=2 n=c#5 v=80
34234 On ch=1 n=a#6 v=0
34240 On ch=1 n=b6 v=105
34240 On ch=1 n=d7 v=105
34292 On ch=2 n=c#5 v=0
34298 On ch=1 n=b6 v=0
34298 On ch=1 n=d7 v=0
34304 On ch=1 n=d6 v=75
34304 On ch=2 n=b3 v=82
34304 On ch=2 n=g#4 v=82
34362 On ch=1 n=d6 v=0
34368 On ch=1 n=b6 v=118
34368 On ch=1 n=d7 v=115
34420 On ch=2 n=b3 v=0
34420 On ch=2 n=g#4 v=0
34426 On ch=1 n=b6 v=0
34426 On ch=1 n=d7 v=0
34432 On ch=1 n=a#6 v=89
34432 On ch=2 n=c#5 v=105
34490 On ch=1 n=a#6 v=0
34496 On ch=1 n=b6 v=106
34496 On ch=1 n=d7 v=107
34510 On ch=1 n=a#7 v=0
34510 On ch=2 n=a#5 v=0
34548 On ch=2 n=c#5 v=0
34554 On ch=1 n=b6 v=0
34554 On ch=1 n=d7 v=0
34560 On ch=1 n=g#7 v=115
34560 On ch=1 n=g#7 v=91
34560 On ch=2 n=g#5 v=117
34560 On ch=2 n=g#5 v=95
34618 On ch=1 n=g#7 v=0
34624 On ch=1 n=b6 v=85
34624 On ch=1 n=d7 v=86
34676 On ch=2 n=g#5 v=0
34682 On ch=1 n=b6 v=0
34682 On ch=1 n=d7 v=0
34688 On ch=1 n=g#6 v=77
34688 On ch=2 n=c#5 v=80
34746 On ch=1 n=g#6 v=0
34752 On ch=1 n=b6 v=108
34752 On ch=1 n=d7 v=107
34791 On ch=1 n=g#7 v=0
34791 On ch=2 n=g#5 v=0
34804 On ch=2 n=c#5 v=0
34810 On ch=1 n=b6 v=0
34810 On ch=1 n=d7 v=0
34816 On ch=2 n=f2 v=63
34862 On ch=2 n=f2 v=0
34867 On ch=2 n=f3 v=100
34913 On ch=2 n=f3 v=0
34918 On ch=2 n=d#4 v=107
34964 On ch=2 n=d#4 v=0
34969 On ch=2 n=g#4 v=97
35015 On ch=2 n=g#4 v=0
35020 On ch=2 n=b4 v=93
35067 On ch=2 n=b4 v=0
35072 On ch=1 n=g7 v=77
35072 On ch=1 n=g7 v=79
35072 On ch=2 n=g5 v=102
35072 On ch=2 n=g5 v=78
35130 On ch=1 n=g7 v=0
35136 On ch=1 n=b6 v=73
35136 On ch=1 n=d#7 v=73
35188 On ch=2 n=g5 v=0
35194 On ch=1 n=b6 v=0
35194 On ch=1 n=d#7 v=0
35200 On ch=1 n=g6 v=65
35200 On ch=2 n=b4 v=71
35258 On ch=1 n=g6 v=0
35264 On ch=1 n=b6 v=95
35264 On ch=1 n=d#7 v=97
35316 On ch=2 n=b4 v=0
35322 On ch=1 n=b6 v=0
35322 On ch=1 n=d#7 v=0
35328 On ch=1 n=d#6 v=66
35328 On ch=2 n=d#4 v=75
35328 On ch=2 n=g#4 v=75
35386 On ch=1 n=d#6 v=0
35392 On ch=1 n=b6 v=101
35392 On ch=1 n=d#7 v=101
35444 On ch=2 n=d#4 v=0
35444 On ch=2 n=g#4 v=0
35450 On ch=1 n=b6 v=0
35450 On ch=1 n=d#7 v=0
35456 On ch=1 n=g6 v=69
35456 On ch=2 n=b4 v=87
35514 On ch=1 n=g6 v=0
35520 On ch=1 n=b6 v=98
35520 On ch=1 n=d#7 v=98
35534 On ch=1 n=g7 v=0
35534 On ch=2 n=g5 v=0
35572 On ch=2 n=b4 v=0
35578 On ch=1 n=b6 v=0
35578 On ch=1 n=d#7 v=0
35584 On ch=1 n=f#7 v=95
35584 On ch=1 n=f#7 v=77
35584 On ch=2 n=f#5 v=100
35584 On ch=2 n=f#5 v=77
35642 On ch=1 n=f#7 v=0
35648 On ch=1 n=b6 v=76
35648 On ch=1 n=d#7 v=78
35700 On ch=2 n=f#5 v=0
35706 On ch=1 n=b6 v=0
35706 On ch=1 n=d#7 v=0
35712 On ch=1 n=g#6 v=66
35712 On ch=2 n=b4 v=68
35770 On ch=1 n=g#6 v=0
35776 On ch=1 n=b6 v=94
35776 On ch=1 n=d#7 v=94
35815 On ch=1 n=f#7 v=0
35815 On ch=2 n=f#5 v=0
35828 On ch=2 n=b4 v=0
35834 On ch=1 n=b6 v=0
35834 On ch=1 n=d#7 v=0
35840 On ch=1 n=f7 v=111
35840 On ch=1 n=f7 v=108
35840 On ch=2 n=f#3 v=61
35898 On ch=1 n=f7 v=0
35904 On ch=1 n=g#6 v=72
35904 On ch=1 n=b6 v=74
35956 On ch=2 n=f#3 v=0
35962 On ch=1 n=g#6 v=0
35962 On ch=1 n=b6 v=0
35968 On ch=1 n=f6 v=66
35968 On ch=2 n=d4 v=95
36026 On ch=1 n=f6 v=0
36032 On ch=1 n=g#6 v=94
36032 On ch=1 n=b6 v=93
36071 On ch=1 n=f7 v=0
36084 On ch=2 n=d4 v=0
36090 On ch=1 n=g#6 v=0
36090 On ch=1 n=b6 v=0
36096 On ch=1 n=d#7 v=96
36096 On ch=1 n=d#7 v=79
36096 On ch=2 n=d#4 v=89
36154 On ch=1 n=d#7 v=0
36160 On ch=1 n=f#6 v=73
36160 On ch=1 n=a#6 v=74
36212 On ch=2 n=d#4 v=0
36218 On ch=1 n=f#6 v=0
36218 On ch=1 n=a#6 v=0
36224 On ch=1 n=d#6 v=66
36224 On ch=2 n=a#4 v=98
36282 On ch=1 n=d#6 v=0
36288 On ch=1 n=f#6 v=97
36288 On ch=1 n=a#6 v=96
36327 On ch=1 n=d#7 v=0
36340 On ch=2 n=a#4 v=0
36346 On ch=1 n=f#6 v=0
36346 On ch=1 n=a#6 v=0
36352 On ch=1 n=d7 v=96
36352 On ch=1 n=d7 v=79
36352 On ch=2 n=g3 v=63
36410 On ch=1 n=d7 v=0
36416 On ch=1 n=f6 v=76
36416 On ch=1 n=a#6 v=77
36468 On ch=2 n=g3 v=0
36474 On ch=1 n=f6 v=0
36474 On ch=1 n=a#6 v=0
36480 On ch=1 n=d6 v=65
36480 On ch=2 n=a#4 v=105
36538 On ch=1 n=d6 v=0
36544 On ch=1 n=f6 v=95
36544 On ch=1 n=a#6 v=96
36583 On ch=1 n=d7 v=0
36596 On ch=2 n=a#4 v=0
36602 On ch=1 n=f6 v=0
36602 On ch=1 n=a#6 v=0
36608 On ch=1 n=c#7 v=93
36608 On ch=1 n=c#7 v=80
36608 On ch=2 n=d#4 v=94
36608 On ch=2 n=c#5 v=92
36666 On ch=1 n=c#7 v=0
36672 On ch=1 n=e6 v=75
36672 On ch=1 n=a#6 v=76
36724 On ch=2 n=d#4 v=0
36724 On ch=2 n=c#5 v=0
36730 On ch=1 n=e6 v=0
36730 On ch=1 n=a#6 v=0
36736 On ch=1 n=c#6 v=66
36736 On ch=2 n=d#5 v=88
36794 On ch=1 n=c#6 v=0
36800 On ch=1 n=d#6 v=97
36800 On ch=1 n=a#6 v=98
36839 On ch=1 n=c#7 v=0
36852 On ch=2 n=d#5 v=0
36858 On ch=1 n=d#6 v=0
36858 On ch=1 n=a#6 v=0
36864 On ch=1 n=c#7 v=94
36864 On ch=1 n=c#7 v=85
36864 On ch=2 n=g#3 v=66
36922 On ch=1 n=c#7 v=0
36928 On ch=1 n=d#6 v=75
36928 On ch=1 n=a6 v=75
36980 On ch=2 n=g#3 v=0
36986 On ch=1 n=d#6 v=0
36986 On ch=1 n=a6 v=0
36992 On ch=1 n=c#6 v=65
36992 On ch=2 n=d#4 v=95
37050 On ch=1 n=c#6 v=0
37056 On ch=1 n=d#6 v=94
37056 On ch=1 n=a6 v=96
37095 On ch=1 n=c#7 v=0
37108 On ch=2 n=d#4 v=0
37114 On ch=1 n=d#6 v=0
37114 On ch=1 n=a6 v=0
37120 On ch=1 n=c7 v=96
37120 On ch=1 n=c7 v=80
37120 On ch=2 n=g#4 v=93
37178 On ch=1 n=c7 v=0
37184 On ch=1 n=d#6 v=77
37184 On ch=1 n=g#6 v=74
37236 On ch=2 n=g#4 v=0
37242 On ch=1 n=d#6 v=0
37242 On ch=1 n=g#6 v=0
37248 On ch=1 n=c6 v=64
37248 On ch=2 n=a#4 v=91
37306 On ch=1 n=c6 v=0
37312 On ch=1 n=d#6 v=95
37312 On ch=1 n=g#6 v=94
37364 On ch=2 n=a#4 v=0
37370 On ch=1 n=d#6 v=0
37370 On ch=1 n=g#6 v=0
37376 On ch=2 n=c5 v=91
37440 On ch=1 n=d#6 v=73
37440 On ch=1 n=g6 v=73
37492 On ch=2 n=c5 v=0
37498 On ch=1 n=d#6 v=0
37498 On ch=1 n=g6 v=0
37504 On ch=1 n=c6 v=66
37504 On ch=2 n=d#5 v=92
37562 On ch=1 n=c6 v=0
37568 On ch=1 n=d#6 v=96
37568 On ch=1 n=g6 v=95
37582 On ch=1 n=c7 v=0
37626 On ch=1 n=d#6 v=0
37626 On ch=1 n=g6 v=0
37632 On ch=1 n=b6 v=96
37632 On ch=1 n=b6 v=77
37632 On ch=2 n=f#5 v=76
37690 On ch=1 n=b6 v=0
37696 On ch=1 n=d#6 v=73
37696 On ch=1 n=f#6 v=75
37748 On ch=2 n=d#5 v=0
37754 On ch=1 n=d#6 v=0
37754 On ch=1 n=f#6 v=0
37760 On ch=1 n=b5 v=68
37760 On ch=2 n=a4 v=69
37818 On ch=1 n=b5 v=0
37824 On ch=1 n=d#6 v=96
37824 On ch=1 n=f#6 v=97
37863 On ch=1 n=b6 v=0
37863 On ch=2 n=f#5 v=0
37876 On ch=2 n=a4 v=0
37882 On ch=1 n=d#6 v=0
37882 On ch=1 n=f#6 v=0
37888 On ch=1 n=a#5 v=57
37888 On ch=1 n=d#6 v=56
37888 On ch=1 n=f#6 v=56
37888 On ch=1 n=a#6 v=56
37888 On ch=2 n=a#3 v=54
37888 On ch=2 n=d#4 v=53
37888 On ch=2 n=f#4 v=51
37888 On ch=2 n=a#4 v=54
38004 On ch=1 n=a#5 v=0
38004 On ch=1 n=d#6 v=0
38004 On ch=1 n=f#6 v=0
38004 On ch=1 n=a#6 v=0
38004 On ch=2 n=a#3 v=0
38004 On ch=2 n=d#4 v=0
38004 On ch=2 n=f#4 v=0
38004 On ch=2 n=a#4 v=0
38016 On ch=1 n=f#6 v=54
38016 On ch=1 n=d#7 v=55
38016 On ch=2 n=f4 v=40
38074 On ch=1 n=f#6 v=0
38074 On ch=1 n=d#7 v=0
38080 On ch=1 n=a#6 v=46
38080 On ch=1 n=d7 v=47
38132 On ch=2 n=f4 v=0
38138 On ch=1 n=a#6 v=0
38138 On ch=1 n=d7 v=0
38144 On ch=1 n=f#6 v=53
38144 On ch=1 n=d#7 v=52
38144 On ch=2 n=f#4 v=49
38202 On ch=1 n=f#6 v=0
38202 On ch=1 n=d#7 v=0
38208 On ch=1 n=a#6 v=46
38208 On ch=1 n=d7 v=47
38260 On ch=2 n=f#4 v=0
38266 On ch=1 n=a#6 v=0
38266 On ch=1 n=d7 v=0
38272 On ch=1 n=d#6 v=41
38272 On ch=1 n=a6 v=42
38272 On ch=2 n=a#4 v=54
38330 On ch=1 n=d#6 v=0
38330 On ch=1 n=a6 v=0
38336 On ch=1 n=f#6 v=50
38336 On ch=1 n=a#6 v=51
38388 On ch=2 n=a#4 v=0
38394 On ch=1 n=f#6 v=0
38394 On ch=1 n=a#6 v=0
38400 On ch=1 n=d#6 v=49
38400 On ch=1 n=a6 v=47
38400 On ch=2 n=b4 v=55
38458 On ch=1 n=d#6 v=0
38458 On ch=1 n=a6 v=0
38464 On ch=1 n=f#6 v=45
38464 On ch=1 n=g#6 v=46
38516 On ch=2 n=b4 v=0
38522 On ch=1 n=f#6 v=0
38522 On ch=1 n=g#6 v=0
38528 On ch=1 n=d#6 v=43
38528 On ch=1 n=g6 v=44
38528 On ch=2 n=c5 v=48
38586 On ch=1 n=d#6 v=0
38586 On ch=1 n=g6 v=0
38592 On ch=1 n=f#6 v=48
38592 On ch=1 n=g#6 v=50
38650 On ch=1 n=f#6 v=0
38650 On ch=1 n=g#6 v=0
38656 On ch=1 n=d#6 v=52
38656 On ch=1 n=a6 v=53
38656 On ch=2 n=f#4 v=57
38656 On ch=2 n=a4 v=55
38656 On ch=2 n=d#5 v=53
38714 On ch=1 n=d#6 v=0
38714 On ch=1 n=a6 v=0
38720 On ch=1 n=f#6 v=44
38720 On ch=1 n=g#6 v=48
38778 On ch=1 n=f#6 v=0
38778 On ch=1 n=g#6 v=0
38784 On ch=1 n=d#6 v=43
38784 On ch=1 n=g6 v=46
38842 On ch=1 n=d#6 v=0
38842 On ch=1 n=g6 v=0
38848 On ch=1 n=f#6 v=47
38848 On ch=1 n=g#6 v=48
38887 On ch=2 n=f#4 v=0
38887 On ch=2 n=a4 v=0
38887 On ch=2 n=c5 v=0
38887 On ch=2 n=d#5 v=0
38906 On ch=1 n=f#6 v=0
38906 On ch=1 n=g#6 v=0
38912 On ch=1 n=b5 v=47
38912 On ch=1 n=g6 v=50
38970 On ch=1 n=b5 v=0
38970 On ch=1 n=g6 v=0
38976 On ch=1 n=d#6 v=47
38976 On ch=1 n=f#6 v=45
39034 On ch=1 n=d#6 v=0
39034 On ch=1 n=f#6 v=0
39040 On ch=1 n=b5 v=45
39040 On ch=1 n=f6 v=44
39040 On ch=2 n=a#3 v=44
39098 On ch=1 n=b5 v=0
39098 On ch=1 n=f6 v=0
39104 On ch=1 n=d#6 v=50
39104 On ch=1 n=f#6 v=48
39156 On ch=2 n=a#3 v=0
39162 On ch=1 n=d#6 v=0
39162 On ch=1 n=f#6 v=0
39168 On ch=1 n=b5 v=55
39168 On ch=1 n=g6 v=52
39168 On ch=2 n=g#4 v=57
39226 On ch=1 n=b5 v=0
39226 On ch=1 n=g6 v=0
39232 On ch=1 n=d#6 v=47
39232 On ch=1 n=f#6 v=46
39284 On ch=2 n=g#4 v=0
39290 On ch=1 n=d#6 v=0
39290 On ch=1 n=f#6 v=0
39296 On ch=1 n=b5 v=44
39296 On ch=1 n=f6 v=45
39296 On ch=2 n=d#5 v=59
39354 On ch=1 n=b5 v=0
39354 On ch=1 n=f6 v=0
39360 On ch=1 n=d#6 v=48
39360 On ch=1 n=f#6 v=49
39412 On ch=2 n=d#5 v=0
39418 On ch=1 n=d#6 v=0
39418 On ch=1 n=f#6 v=0
39424 On ch=1 n=g#5 v=46
39424 On ch=1 n=f6 v=47
39482 On ch=1 n=g#5 v=0
39482 On ch=1 n=f6 v=0
39488 On ch=1 n=b5 v=45
39488 On ch=1 n=e6 v=47
39546 On ch=1 n=b5 v=0
39546 On ch=1 n=e6 v=0
39552 On ch=1 n=g5 v=45
39552 On ch=1 n=d#6 v=46
39552 On ch=2 n=d5 v=44
39610 On ch=1 n=g5 v=0
39610 On ch=1 n=d#6 v=0
39616 On ch=1 n=b5 v=51
39616 On ch=1 n=e6 v=48
39668 On ch=2 n=d5 v=0
39674 On ch=1 n=b5 v=0
39674 On ch=1 n=e6 v=0
39680 On ch=1 n=g5 v=47
39680 On ch=1 n=d#6 v=49
39680 On ch=2 n=a#4 v=40
39738 On ch=1 n=g5 v=0
39738 On ch=1 n=d#6 v=0
39744 On ch=1 n=a#5 v=46
39744 On ch=1 n=d6 v=43
39796 On ch=2 n=a#4 v=0
39802 On ch=1 n=a#5 v=0
39802 On ch=1 n=d6 v=0
39808 On ch=1 n=f5 v=43
39808 On ch=1 n=c#6 v=45
39808 On ch=2 n=a#3 v=33
39866 On ch=1 n=f5 v=0
39866 On ch=1 n=c#6 v=0
39872 On ch=1 n=a#5 v=48
39872 On ch=1 n=d6 v=48
39924 On ch=2 n=a#3 v=0
39930 On ch=1 n=a#5 v=0
39930 On ch=1 n=d6 v=0
39936 On ch=1 n=f#5 v=51
39936 On ch=1 n=d#6 v=53
39936 On ch=2 n=d#3 v=39
40052 On ch=1 n=f#5 v=0
40052 On ch=1 n=d#6 v=0
40052 On ch=2 n=d#3 v=0
40064 On ch=1 n=f#6 v=44
40064 On ch=1 n=d#7 v=45
40064 On ch=2 n=a#4 v=43
40122 On ch=1 n=f#6 v=0
40122 On ch=1 n=d#7 v=0
40128 On ch=1 n=a#6 v=34
40128 On ch=1 n=d7 v=36
40180 On ch=2 n=a#4 v=0
40186 On ch=1 n=a#6 v=0
40186 On ch=1 n=d7 v=0
40192 On ch=1 n=f#6 v=39
40192 On ch=1 n=d#7 v=40
40192 On ch=2 n=d#5 v=40
40250 On ch=1 n=f#6 v=0
40250 On ch=1 n=d#7 v=0
40256 On ch=1 n=a#6 v=33
40256 On ch=1 n=d7 v=33
40308 On ch=2 n=d#5 v=0
40314 On ch=1 n=a#6 v=0
40314 On ch=1 n=d7 v=0
40320 On ch=1 n=f#6 v=31
40320 On ch=1 n=c#7 v=34
40320 On ch=2 n=f#5 v=41
40378 On ch=1 n=f#6 v=0
40378 On ch=1 n=c#7 v=0
40384 On ch=1 n=a#6 v=35
40384 On ch=1 n=d7 v=36
40436 On ch=2 n=f#5 v=0
40442 On ch=1 n=a#6 v=0
40442 On ch=1 n=d7 v=0
40448 On ch=1 n=f6 v=35
40448 On ch=1 n=c#7 v=34
40448 On ch=2 n=d#4 v=26
40506 On ch=1 n=f6 v=0
40506 On ch=1 n=c#7 v=0
40512 On ch=1 n=g#6 v=31
40512 On ch=1 n=c7 v=35
40564 On ch=2 n=d#4 v=0
40570 On ch=1 n=g#6 v=0
40570 On ch=1 n=c7 v=0
40576 On ch=1 n=d#6 v=34
40576 On ch=1 n=b6 v=35
40576 On ch=2 n=g#4 v=40
40634 On ch=1 n=d#6 v=0
40634 On ch=1 n=b6 v=0
40640 On ch=1 n=g#6 v=35
40640 On ch=1 n=c7 v=36
40692 On ch=2 n=g#4 v=0
40698 On ch=1 n=g#6 v=0
40698 On ch=1 n=c7 v=0
40704 On ch=1 n=e6 v=39
40704 On ch=1 n=c#7 v=40
40704 On ch=2 n=c#5 v=38
40762 On ch=1 n=e6 v=0
40762 On ch=1 n=c#7 v=0
40768 On ch=1 n=g#6 v=33
40768 On ch=1 n=c7 v=32
40820 On ch=2 n=c#5 v=0
40826 On ch=1 n=g#6 v=0
40826 On ch=1 n=c7 v=0
40832 On ch=1 n=f6 v=33
40832 On ch=1 n=b6 v=32
40832 On ch=2 n=f5 v=39
40890 On ch=1 n=f6 v=0
40890 On ch=1 n=b6 v=0
40896 On ch=1 n=g#6 v=37
40896 On ch=1 n=c7 v=35
40948 On ch=2 n=f5 v=0
40954 On ch=1 n=g#6 v=0
40954 On ch=1 n=c7 v=0
40960 On ch=1 n=d#6 v=36
40960 On ch=1 n=b6 v=35
40960 On ch=2 n=d#3 v=28
41018 On ch=1 n=d#6 v=0
41018 On ch=1 n=b6 v=0
41024 On ch=1 n=f#6 v=32
41024 On ch=1 n=a#6 v=34
41076 On ch=2 n=d#3 v=0
41082 On ch=1 n=f#6 v=0
41082 On ch=1 n=a#6 v=0
41088 On ch=1 n=c#6 v=32
41088 On ch=1 n=a6 v=32
41088 On ch=2 n=f#4 v=41
41146 On ch=1 n=c#6 v=0
41146 On ch=1 n=a6 v=0
41152 On ch=1 n=f#6 v=36
41152 On ch=1 n=a#6 v=35
41204 On ch=2 n=f#4 v=0
41210 On ch=1 n=f#6 v=0
41210 On ch=1 n=a#6 v=0
41216 On ch=1 n=d6 v=38
41216 On ch=1 n=b6 v=41
41216 On ch=2 n=b4 v=43
41274 On ch=1 n=d6 v=0
41274 On ch=1 n=b6 v=0
41280 On ch=1 n=f#6 v=34
41280 On ch=1 n=a#6 v=32
41332 On ch=2 n=b4 v=0
41338 On ch=1 n=f#6 v=0
41338 On ch=1 n=a#6 v=0
41344 On ch=1 n=d#6 v=33
41344 On ch=1 n=a6 v=32
41344 On ch=2 n=d#5 v=38
41402 On ch=1 n=d#6 v=0
41402 On ch=1 n=a6 v=0
41408 On ch=1 n=f#6 v=36
41408 On ch=1 n=a#6 v=35
41460 On ch=2 n=d#5 v=0
41466 On ch=1 n=f#6 v=0
41466 On ch=1 n=a#6 v=0
41472 On ch=1 n=c6 v=35
41472 On ch=1 n=a6 v=38
41472 On ch=2 n=d#4 v=28
41530 On ch=1 n=c6 v=0
41530 On ch=1 n=a6 v=0
41536 On ch=1 n=d#6 v=33
41536 On ch=1 n=g#6 v=35
41588 On ch=2 n=d#4 v=0
41594 On ch=1 n=d#6 v=0
41594 On ch=1 n=g#6 v=0
41600 On ch=1 n=b5 v=31
41600 On ch=1 n=g6 v=32
41600 On ch=2 n=f4 v=35
41658 On ch=1 n=b5 v=0
41658 On ch=1 n=g6 v=0
41664 On ch=1 n=d#6 v=36
41664 On ch=1 n=g#6 v=35
41716 On ch=2 n=f4 v=0
41722 On ch=1 n=d#6 v=0
41722 On ch=1 n=g#6 v=0
41728 On ch=1 n=a#5 v=34
41728 On ch=1 n=g6 v=36
41728 On ch=2 n=g#4 v=39
41786 On ch=1 n=a#5 v=0
41786 On ch=1 n=g6 v=0
41792 On ch=1 n=c#6 v=33
41792 On ch=1 n=f#6 v=33
41844 On ch=2 n=g#4 v=0
41850 On ch=1 n=c#6 v=0
41850 On ch=1 n=f#6 v=0
41856 On ch=1 n=g#5 v=32
41856 On ch=1 n=f6 v=34
41856 On ch=2 n=d5 v=42
41914 On ch=1 n=g#5 v=0
41914 On ch=1 n=f6 v=0
41920 On ch=1 n=c#6 v=37
41920 On ch=1 n=f#6 v=35
41972 On ch=2 n=d5 v=0
41978 On ch=1 n=c#6 v=0
41978 On ch=1 n=f#6 v=0
41984 On ch=1 n=g#5 v=35
41984 On ch=1 n=f6 v=36
41984 On ch=2 n=d#5 v=40
41984 On ch=2 n=d#5 v=33
42042 On ch=1 n=g#5 v=0
42042 On ch=1 n=f6 v=0
42048 On ch=1 n=b5 v=34
42048 On ch=1 n=e6 v=32
42100 On ch=2 n=d#5 v=0
42106 On ch=1 n=b5 v=0
42106 On ch=1 n=e6 v=0
42112 On ch=1 n=g5 v=33
42112 On ch=1 n=d#6 v=34
42112 On ch=2 n=d#4 v=24
42170 On ch=1 n=g5 v=0
42170 On ch=1 n=d#6 v=0
42176 On ch=1 n=b5 v=35
42176 On ch=1 n=e6 v=34
42215 On ch=2 n=d#5 v=0
42228 On ch=2 n=d#4 v=0
42234 On ch=1 n=b5 v=0
42234 On ch=1 n=e6 v=0
42240 On ch=1 n=f#5 v=36
42240 On ch=1 n=d#6 v=37
42240 On ch=2 n=a#4 v=40
42240 On ch=2 n=a#4 v=30
42298 On ch=1 n=f#5 v=0
42298 On ch=1 n=d#6 v=0
42304 On ch=1 n=a#5 v=33
42304 On ch=1 n=d6 v=33
42356 On ch=2 n=a#4 v=0
42362 On ch=1 n=a#5 v=0
42362 On ch=1 n=d6 v=0
42368 On ch=1 n=f5 v=31
42368 On ch=1 n=c#6 v=35
42368 On ch=2 n=a#3 v=26
42426 On ch=1 n=f5 v=0
42426 On ch=1 n=c#6 v=0
42432 On ch=1 n=a#5 v=38
42432 On ch=1 n=d6 v=37
42484 On ch=2 n=a#3 v=0
42490 On ch=1 n=a#5 v=0
42490 On ch=1 n=d6 v=0
42496 On ch=1 n=f5 v=36
42496 On ch=1 n=c#6 v=36
42496 On ch=2 n=d#3 v=30
42554 On ch=1 n=f5 v=0
42554 On ch=1 n=c#6 v=0
42560 On ch=1 n=g#5 v=33
42560 On ch=1 n=c6 v=31
42612 On ch=2 n=d#3 v=0
42618 On ch=1 n=g#5 v=0
42618 On ch=1 n=c6 v=0
42624 On ch=1 n=d#5 v=32
42624 On ch=1 n=b5 v=32
42624 On ch=2 n=a#3 v=38
42682 On ch=1 n=d#5 v=0
42682 On ch=1 n=b5 v=0
42688 On ch=1 n=g#5 v=37
42688 On ch=1 n=c6 v=36
42702 On ch=2 n=a#4 v=0
42740 On ch=2 n=a#3 v=0
42746 On ch=1 n=g#5 v=0
42746 On ch=1 n=c6 v=0
42752 On ch=1 n=e5 v=38
42752 On ch=1 n=c#6 v=38
42752 On ch=2 n=g#4 v=43
42752 On ch=2 n=g#4 v=36
42810 On ch=1 n=e5 v=0
42810 On ch=1 n=c#6 v=0
42816 On ch=1 n=g#5 v=31
42816 On ch=1 n=c6 v=32
42868 On ch=2 n=g#4 v=0
42874 On ch=1 n=g#5 v=0
42874 On ch=1 n=c6 v=0
42880 On ch=1 n=f5 v=33
42880 On ch=1 n=b5 v=33
42880 On ch=2 n=a#3 v=30
42938 On ch=1 n=f5 v=0
42938 On ch=1 n=b5 v=0
42944 On ch=1 n=g#5 v=37
42944 On ch=1 n=c6 v=35
42996 On ch=2 n=a#3 v=0
43002 On ch=1 n=g#5 v=0
43002 On ch=1 n=c6 v=0
43008 On ch=1 n=d#5 v=38
43008 On ch=1 n=b5 v=36
43008 On ch=2 n=d#3 v=29
43066 On ch=1 n=d#5 v=0
43066 On ch=1 n=b5 v=0
43072 On ch=1 n=f#5 v=35
43072 On ch=1 n=a#5 v=32
43124 On ch=2 n=d#3 v=0
43130 On ch=1 n=f#5 v=0
43130 On ch=1 n=a#5 v=0
43136 On ch=1 n=c#5 v=33
43136 On ch=1 n=a5 v=34
43136 On ch=2 n=b3 v=40
43194 On ch=1 n=c#5 v=0
43194 On ch=1 n=a5 v=0
43200 On ch=1 n=f#5 v=36
43200 On ch=1 n=a#5 v=37
43239 On ch=2 n=g#4 v=0
43252 On ch=2 n=b3 v=0
43258 On ch=1 n=f#5 v=0
43258 On ch=1 n=a#5 v=0
43264 On ch=1 n=d5 v=40
43264 On ch=1 n=b5 v=38
43264 On ch=2 n=f#4 v=41
43264 On ch=2 n=f#4 v=38
43322 On ch=1 n=d5 v=0
43322 On ch=1 n=b5 v=0
43328 On ch=1 n=f#5 v=32
43328 On ch=1 n=a#5 v=34
43380 On ch=2 n=f#4 v=0
43386 On ch=1 n=f#5 v=0
43386 On ch=1 n=a#5 v=0
43392 On ch=1 n=d#5 v=33
43392 On ch=1 n=a5 v=34
43392 On ch=2 n=b3 v=30
43450 On ch=1 n=d#5 v=0
43450 On ch=1 n=a5 v=0
43456 On ch=1 n=f#5 v=36
43456 On ch=1 n=a#5 v=35
43508 On ch=2 n=b3 v=0
43514 On ch=1 n=f#5 v=0
43514 On ch=1 n=a#5 v=0
43520 On ch=1 n=c5 v=36
43520 On ch=1 n=a5 v=36
43520 On ch=2 n=f#4 v=0
43520 On ch=2 n=d#4 v=41
43520 On ch=2 n=d#4 v=37
43578 On ch=1 n=c5 v=0
43578 On ch=1 n=a5 v=0
43584 On ch=1 n=d#5 v=34
43584 On ch=1 n=g#5 v=35
43636 On ch=2 n=d#4 v=0
43642 On ch=1 n=d#5 v=0
43642 On ch=1 n=g#5 v=0
43648 On ch=1 n=b4 v=34
43648 On ch=1 n=g5 v=34
43648 On ch=2 n=g#3 v=30
43706 On ch=1 n=b4 v=0
43706 On ch=1 n=g5 v=0
43712 On ch=1 n=d#5 v=37
43712 On ch=1 n=g#5 v=35
43764 On ch=2 n=g#3 v=0
43770 On ch=1 n=d#5 v=0
43770 On ch=1 n=g#5 v=0
43776 On ch=1 n=a#4 v=37
43776 On ch=1 n=g5 v=36
43776 On ch=2 n=d#4 v=0
43776 On ch=2 n=d4 v=39
43776 On ch=2 n=d4 v=33
43834 On ch=1 n=a#4 v=0
43834 On ch=1 n=g5 v=0
43840 On ch=1 n=d5 v=32
43840 On ch=1 n=f#5 v=33
43892 On ch=2 n=d4 v=0
43898 On ch=1 n=d5 v=0
43898 On ch=1 n=f#5 v=0
43904 On ch=1 n=g#4 v=33
43904 On ch=1 n=f5 v=32
43904 On ch=2 n=a#3 v=29
43962 On ch=1 n=g#4 v=0
43962 On ch=1 n=f5 v=0
43968 On ch=1 n=d5 v=37
43968 On ch=1 n=f#5 v=35
44007 On ch=2 n=d4 v=0
44020 On ch=2 n=a#3 v=0
44026 On ch=1 n=d5 v=0
44026 On ch=1 n=f#5 v=0
44032 On ch=1 n=f#4 v=35
44032 On ch=1 n=d#5 v=33
44032 On ch=2 n=d#3 v=30
44148 On ch=1 n=f#4 v=0
44148 On ch=1 n=d#5 v=0
44148 On ch=2 n=d#3 v=0
44160 On ch=1 n=f#4 v=26
44160 On ch=2 n=a#3 v=39
44218 On ch=1 n=f#4 v=0
44224 On ch=1 n=a#4 v=36
44276 On ch=2 n=a#3 v=0
44282 On ch=1 n=a#4 v=0
44288 On ch=1 n=d#5 v=46
44288 On ch=1 n=f#5 v=47
44288 On ch=2 n=d#4 v=39
44346 On ch=1 n=d#5 v=0
44346 On ch=1 n=f#5 v=0
44352 On ch=1 n=g#4 v=28
44404 On ch=2 n=d#4 v=0
44410 On ch=1 n=g#4 v=0
44416 On ch=1 n=c5 v=37
44416 On ch=2 n=f4 v=36
44474 On ch=1 n=c5 v=0
44480 On ch=1 n=d#5 v=40
44480 On ch=1 n=f#5 v=39
44532 On ch=2 n=f4 v=0
44538 On ch=1 n=d#5 v=0
44538 On ch=1 n=f#5 v=0
44544 On ch=1 n=a#4 v=30
44544 On ch=2 n=a#3 v=41
44544 On ch=2 n=f#4 v=41
44602 On ch=1 n=a#4 v=0
44608 On ch=1 n=d5 v=38
44660 On ch=2 n=a#3 v=0
44660 On ch=2 n=f#4 v=0
44666 On ch=1 n=d5 v=0
44672 On ch=1 n=f#5 v=49
44672 On ch=1 n=a#5 v=48
44672 On ch=2 n=g#4 v=35
44730 On ch=1 n=f#5 v=0
44730 On ch=1 n=a#5 v=0
44736 On ch=1 n=c5 v=34
44788 On ch=2 n=g#4 v=0
44794 On ch=1 n=c5 v=0
44800 On ch=1 n=d#5 v=53
44858 On ch=1 n=d#5 v=0
44864 On ch=1 n=f#5 v=62
44864 On ch=1 n=a#5 v=65
44922 On ch=1 n=f#5 v=0
44922 On ch=1 n=a#5 v=0
44928 On ch=1 n=c#5 v=48
44986 On ch=1 n=c#5 v=0
44992 On ch=1 n=f5 v=68
45050 On ch=1 n=f5 v=0
45056 On ch=1 n=d#5 v=113
45056 On ch=1 n=f#5 v=114
45056 On ch=1 n=a#5 v=111
45056 On ch=1 n=d#6 v=111
45056 On ch=2 n=d#4 v=64
45172 On ch=1 n=d#5 v=0
45172 On ch=1 n=f#5 v=0
45172 On ch=1 n=a#5 v=0
45172 On ch=1 n=d#6 v=0
45172 On ch=2 n=d#4 v=0
45172 On ch=2 n=a#4 v=0
45184 On ch=1 n=f#5 v=51
45184 On ch=2 n=a#4 v=39
45242 On ch=1 n=f#5 v=0
45248 On ch=1 n=a#5 v=65
45300 On ch=2 n=a#4 v=0
45306 On ch=1 n=a#5 v=0
45312 On ch=1 n=d#6 v=79
45312 On ch=1 n=f#6 v=76
45312 On ch=2 n=d#5 v=41
45370 On ch=1 n=d#6 v=0
45370 On ch=1 n=f#6 v=0
45376 On ch=1 n=g#5 v=48
45428 On ch=2 n=d#5 v=0
45434 On ch=1 n=g#5 v=0
45440 On ch=1 n=c6 v=67
45440 On ch=2 n=f5 v=37
45498 On ch=1 n=c6 v=0
45504 On ch=1 n=d#6 v=74
45504 On ch=1 n=f#6 v=71
45556 On ch=2 n=f5 v=0
45562 On ch=1 n=d#6 v=0
45562 On ch=1 n=f#6 v=0
45568 On ch=1 n=a#5 v=54
45568 On ch=2 n=a#4 v=40
45568 On ch=2 n=f#5 v=39
45626 On ch=1 n=a#5 v=0
45632 On ch=1 n=d6 v=66
45684 On ch=2 n=a#4 v=0
45684 On ch=2 n=f#5 v=0
45690 On ch=1 n=d6 v=0
45696 On ch=1 n=f#6 v=75
45696 On ch=1 n=a#6 v=73
45696 On ch=2 n=g#5 v=37
45754 On ch=1 n=f#6 v=0
45754 On ch=1 n=a#6 v=0
45760 On ch=1 n=c6 v=54
45812 On ch=2 n=g#5 v=0
45818 On ch=1 n=c6 v=0
45824 On ch=1 n=d#6 v=83
45824 On ch=2 n=a#4 v=63
45882 On ch=1 n=d#6 v=0
45888 On ch=1 n=f#6 v=99
45888 On ch=1 n=a#6 v=98
45946 On ch=1 n=f#6 v=0
45946 On ch=1 n=a#6 v=0
45952 On ch=1 n=c#6 v=71
46010 On ch=1 n=c#6 v=0
46016 On ch=1 n=f6 v=102
46074 On ch=1 n=f6 v=0
46080 On ch=1 n=d#7 v=127
46080 On ch=1 n=f#7 v=125
46080 On ch=2 n=d#5 v=99
46138 On ch=1 n=d#7 v=0
46138 On ch=1 n=f#7 v=0
46144 On ch=1 n=f#6 v=82
46144 On ch=1 n=a#6 v=83
46196 On ch=2 n=d#5 v=0
46196 On ch=2 n=a#5 v=0
46202 On ch=1 n=f#6 v=0
46202 On ch=1 n=a#6 v=0
46208 On ch=1 n=d6 v=80
46208 On ch=1 n=f6 v=80
46266 On ch=1 n=d6 v=0
46266 On ch=1 n=f6 v=0
46272 On ch=1 n=d#6 v=98
46272 On ch=1 n=f#6 v=98
46330 On ch=1 n=d#6 v=0
46330 On ch=1 n=f#6 v=0
46336 On ch=1 n=b5 v=91
46336 On ch=1 n=d#6 v=90
46394 On ch=1 n=b5 v=0
46394 On ch=1 n=d#6 v=0
46400 On ch=1 n=a#5 v=101
46400 On ch=1 n=f#6 v=102
46458 On ch=1 n=a#5 v=0
46458 On ch=1 n=f#6 v=0
46464 On ch=1 n=f#5 v=80
46464 On ch=1 n=a#5 v=77
46522 On ch=1 n=f#5 v=0
46522 On ch=1 n=a#5 v=0
46528 On ch=1 n=d#6 v=103
46586 On ch=1 n=d#6 v=0
46592 On ch=1 n=f#6 v=117
46592 On ch=1 n=a#6 v=119
46650 On ch=1 n=f#6 v=0
46650 On ch=1 n=a#6 v=0
46656 On ch=1 n=a#5 v=83
46656 On ch=1 n=d#6 v=80
46714 On ch=1 n=a#5 v=0
46714 On ch=1 n=d#6 v=0
46720 On ch=1 n=f5 v=76
46720 On ch=1 n=a5 v=78
46778 On ch=1 n=f5 v=0
46778 On ch=1 n=a5 v=0
46784 On ch=1 n=f#5 v=99
46784 On ch=1 n=a#5 v=97
46842 On ch=1 n=f#5 v=0
46842 On ch=1 n=a#5 v=0
46848 On ch=1 n=d5 v=88
46848 On ch=1 n=f5 v=85
46848 On ch=2 n=a#5 v=99
46906 On ch=1 n=d5 v=0
46906 On ch=1 n=f5 v=0
46912 On ch=1 n=d#5 v=100
46912 On ch=1 n=f#5 v=97
46970 On ch=1 n=d#5 v=0
46970 On ch=1 n=f#5 v=0
46976 On ch=1 n=b4 v=87
46976 On ch=1 n=d#5 v=89
47034 On ch=1 n=b4 v=0
47034 On ch=1 n=d#5 v=0
47040 On ch=1 n=a#4 v=100
47040 On ch=1 n=f#5 v=103
47098 On ch=1 n=a#4 v=0
47098 On ch=1 n=f#5 v=0
47104 On ch=1 n=d#6 v=107
47104 On ch=1 n=f#6 v=110
47162 On ch=1 n=d#6 v=0
47162 On ch=1 n=f#6 v=0
47168 On ch=1 n=f#5 v=72
47168 On ch=1 n=a#5 v=68
47226 On ch=1 n=f#5 v=0
47226 On ch=1 n=a#5 v=0
47232 On ch=2 n=d5 v=76
47232 On ch=2 n=f5 v=74
47290 On ch=2 n=d5 v=0
47290 On ch=2 n=f5 v=0
47296 On ch=2 n=d#5 v=87
47296 On ch=2 n=f#5 v=86
47354 On ch=2 n=d#5 v=0
47354 On ch=2 n=f#5 v=0
47360 On ch=1 n=b4 v=76
47360 On ch=1 n=d#5 v=75
47418 On ch=1 n=b4 v=0
47418 On ch=1 n=d#5 v=0
47424 On ch=1 n=a#4 v=89
47424 On ch=1 n=f#5 v=88
47482 On ch=1 n=a#4 v=0
47482 On ch=1 n=f#5 v=0
47488 On ch=2 n=f#4 v=75
47488 On ch=2 n=a#4 v=75
47546 On ch=2 n=f#4 v=0
47546 On ch=2 n=a#4 v=0
47552 On ch=2 n=d#5 v=91
47610 On ch=2 n=d#5 v=0
47616 On ch=1 n=f#5 v=79
47616 On ch=1 n=a#5 v=77
47674 On ch=1 n=f#5 v=0
47674 On ch=1 n=a#5 v=0
47680 On ch=1 n=a#4 v=67
47680 On ch=1 n=d#5 v=66
47738 On ch=1 n=a#4 v=0
47738 On ch=1 n=d#5 v=0
47744 On ch=2 n=f4 v=73
47744 On ch=2 n=a4 v=75
47802 On ch=2 n=f4 v=0
47802 On ch=2 n=a4 v=0
47808 On ch=2 n=f#4 v=86
47808 On ch=2 n=a#4 v=85
47866 On ch=2 n=f#4 v=0
47866 On ch=2 n=a#4 v=0
47872 On ch=1 n=d4 v=78
47872 On ch=1 n=f4 v=77
47930 On ch=1 n=d4 v=0
47930 On ch=1 n=f4 v=0
47936 On ch=1 n=d#4 v=84
47936 On ch=1 n=f#4 v=84
47994 On ch=1 n=d#4 v=0
47994 On ch=1 n=f#4 v=0
48000 On ch=2 n=a3 v=74
48058 On ch=2 n=a3 v=0
48064 On ch=2 n=a#3 v=84
48122 On ch=2 n=a#3 v=0
48128 On ch=1 n=d#2 v=46
48128 On ch=1 n=d#3 v=44
48244 On ch=1 n=d#2 v=0
48244 On ch=1 n=d#3 v=0
48256 On ch=1 n=a#3 v=55
48314 On ch=1 n=a#3 v=0
48320 On ch=1 n=f#4 v=58
48378 On ch=1 n=f#4 v=0
48384 On ch=1 n=a#4 v=60
48442 On ch=1 n=a#4 v=0
48448 On ch=1 n=d5 v=52
48506 On ch=1 n=d5 v=0
48512 On ch=1 n=d#5 v=50
48570 On ch=1 n=d#5 v=0
48576 On ch=1 n=d5 v=49
48576 On ch=1 n=f5 v=50
48634 On ch=1 n=d5 v=0
48634 On ch=1 n=f5 v=0
48640 On ch=1 n=d#5 v=52
48640 On ch=1 n=f#5 v=51
48698 On ch=1 n=d#5 v=0
48698 On ch=1 n=f#5 v=0
48704 On ch=1 n=a#5 v=52
48762 On ch=1 n=a#5 v=0
48768 On ch=1 n=d6 v=56
48768 On ch=1 n=f6 v=56
48826 On ch=1 n=d6 v=0
48826 On ch=1 n=f6 v=0
48832 On ch=1 n=d#6 v=50
48832 On ch=1 n=f#6 v=49
48890 On ch=1 n=d#6 v=0
48890 On ch=1 n=f#6 v=0
48896 On ch=1 n=a#6 v=54
48954 On ch=1 n=a#6 v=0
48960 On ch=1 n=d#7 v=39
49018 On ch=1 n=d#7 v=0
49024 On ch=1 n=f#7 v=51
49082 On ch=1 n=f#7 v=0
49088 On ch=1 n=a#7 v=51
49146 On ch=1 n=a#7 v=0
49152 On ch=1 n=f#8 v=61
49383 On ch=1 n=f#8 v=0
50176 On ch=1 n=a#4 v=79
50176 On ch=1 n=f#5 v=81
50176 On ch=2 n=f#3 v=80
50176 On ch=2 n=c#4 v=81
50176 On ch=2 n=f#4 v=81
50944 On ch=1 n=a#4 v=0
50944 On ch=1 n=f#5 v=0
50944 On ch=1 n=d4 v=43
50944 On ch=1 n=g#4 v=41
50944 On ch=1 n=a#4 v=41
50944 On ch=2 n=f#3 v=0
50944 On ch=2 n=c#4 v=0
50944 On ch=2 n=f#4 v=0
50944 On ch=2 n=a#2 v=42
50944 On ch=2 n=f3 v=43
50944 On ch=2 n=a#3 v=40
51200 On ch=1 n=d4 v=0
51200 On ch=1 n=g#4 v=0
51200 On ch=1 n=a#4 v=0
51200 On ch=2 n=a#2 v=0
51200 On ch=2 n=f3 v=0
51200 On ch=2 n=a#3 v=0
51200 On ch=1 n=f#4 v=63
51200 On ch=1 n=d#5 v=62
51200 On ch=2 n=d#3 v=61
51200 On ch=2 n=a#3 v=63
51200 On ch=2 n=d#4 v=60
52224 On ch=1 n=f#4 v=0
52224 On ch=1 n=d#5 v=0
52224 On ch=2 n=d#3 v=0
52224 On ch=2 n=a#3 v=0
52224 On ch=2 n=d#4 v=0
52225 Meta TrkEnd
TrkEnd
