MFile 1 3 480
MTrk
0 Tempo 267857
0 KeySig -4 major
0 TimeSig 4/4 24 8
127200 Tempo 375000
128160 Tempo 428571
128640 Tempo 500000
129120 Tempo 600000
130080 Tempo 750000
130080 Meta TrkEnd
TrkEnd
MTrk
0 SeqSpec 43 00 01 00
0 Meta TrkName "Right Hand"
0 Meta 0x21 00
0 PrCh ch=1 p=0
0 Par ch=1 c=7 v=127
0 Par ch=1 c=10 v=64
0 On ch=1 n=c6 v=60
400 On ch=1 n=c6 v=0
480 On ch=1 n=c6 v=60
635 On ch=1 n=c6 v=0
640 On ch=1 n=c#6 v=60
795 On ch=1 n=c#6 v=0
800 On ch=1 n=b5 v=60
955 On ch=1 n=b5 v=0
960 On ch=1 n=c6 v=60
1115 On ch=1 n=c6 v=0
1120 On ch=1 n=d#6 v=60
1275 On ch=1 n=d#6 v=0
1280 On ch=1 n=c#6 v=60
1435 On ch=1 n=c#6 v=0
1440 On ch=1 n=c6 v=60
1595 On ch=1 n=c6 v=0
1600 On ch=1 n=c#6 v=60
1755 On ch=1 n=c#6 v=0
1760 On ch=1 n=b5 v=60
1915 On ch=1 n=b5 v=0
1920 On ch=1 n=c6 v=60
2075 On ch=1 n=c6 v=0
2080 On ch=1 n=f#6 v=60
2235 On ch=1 n=f#6 v=0
2240 On ch=1 n=g6 v=60
2395 On ch=1 n=g6 v=0
2400 On ch=1 n=c6 v=60
2555 On ch=1 n=c6 v=0
2560 On ch=1 n=c#6 v=60
2715 On ch=1 n=c#6 v=0
2720 On ch=1 n=b5 v=60
2875 On ch=1 n=b5 v=0
2880 On ch=1 n=c6 v=60
3035 On ch=1 n=c6 v=0
3040 On ch=1 n=d#6 v=60
3195 On ch=1 n=d#6 v=0
3200 On ch=1 n=c#6 v=60
3355 On ch=1 n=c#6 v=0
3360 On ch=1 n=c6 v=60
3515 On ch=1 n=c6 v=0
3520 On ch=1 n=c#6 v=60
3675 On ch=1 n=c#6 v=0
3680 On ch=1 n=b5 v=60
3835 On ch=1 n=b5 v=0
3840 On ch=1 n=c6 v=60
3995 On ch=1 n=c6 v=0
4000 On ch=1 n=g#6 v=60
4155 On ch=1 n=g#6 v=0
4160 On ch=1 n=f6 v=60
4315 On ch=1 n=f6 v=0
4320 On ch=1 n=e6 v=75
4475 On ch=1 n=e6 v=0
4480 On ch=1 n=f6 v=75
4635 On ch=1 n=f6 v=0
4640 On ch=1 n=e6 v=75
4795 On ch=1 n=e6 v=0
4800 On ch=1 n=d#6 v=75
4955 On ch=1 n=d#6 v=0
4960 On ch=1 n=e6 v=75
5115 On ch=1 n=e6 v=0
5120 On ch=1 n=g6 v=75
5275 On ch=1 n=g6 v=0
5280 On ch=1 n=a#6 v=92
5435 On ch=1 n=a#6 v=0
5440 On ch=1 n=c7 v=92
5595 On ch=1 n=c7 v=0
5600 On ch=1 n=a#6 v=92
5755 On ch=1 n=a#6 v=0
5760 On ch=1 n=a6 v=92
5915 On ch=1 n=a6 v=0
5920 On ch=1 n=a#6 v=92
6075 On ch=1 n=a#6 v=0
6080 On ch=1 n=c#7 v=92
6235 On ch=1 n=c#7 v=0
6240 On ch=1 n=c7 v=92
6395 On ch=1 n=c7 v=0
6400 On ch=1 n=c#7 v=92
6555 On ch=1 n=c#7 v=0
6560 On ch=1 n=c7 v=92
6715 On ch=1 n=c7 v=0
6720 On ch=1 n=b6 v=92
6875 On ch=1 n=b6 v=0
6880 On ch=1 n=c7 v=92
7035 On ch=1 n=c7 v=0
7040 On ch=1 n=g6 v=92
7195 On ch=1 n=g6 v=0
7200 On ch=1 n=g#6 v=75
7355 On ch=1 n=g#6 v=0
7360 On ch=1 n=a#6 v=75
7515 On ch=1 n=a#6 v=0
7520 On ch=1 n=g#6 v=75
7675 On ch=1 n=g#6 v=0
7680 On ch=1 n=g6 v=75
7835 On ch=1 n=g6 v=0
7840 On ch=1 n=g#6 v=75
7995 On ch=1 n=g#6 v=0
8000 On ch=1 n=e6 v=75
8155 On ch=1 n=e6 v=0
8160 On ch=1 n=f6 v=75
8315 On ch=1 n=f6 v=0
8320 On ch=1 n=g6 v=75
8475 On ch=1 n=g6 v=0
8480 On ch=1 n=f6 v=75
8635 On ch=1 n=f6 v=0
8640 On ch=1 n=e6 v=75
8795 On ch=1 n=e6 v=0
8800 On ch=1 n=f6 v=75
8955 On ch=1 n=f6 v=0
8960 On ch=1 n=c6 v=75
9115 On ch=1 n=c6 v=0
9120 On ch=1 n=c#6 v=75
9275 On ch=1 n=c#6 v=0
9280 On ch=1 n=d#6 v=75
9435 On ch=1 n=d#6 v=0
9440 On ch=1 n=c#6 v=75
9595 On ch=1 n=c#6 v=0
9600 On ch=1 n=c6 v=75
9755 On ch=1 n=c6 v=0
9760 On ch=1 n=c#6 v=75
9915 On ch=1 n=c#6 v=0
9920 On ch=1 n=b5 v=75
10075 On ch=1 n=b5 v=0
10080 On ch=1 n=c6 v=60
10235 On ch=1 n=c6 v=0
10240 On ch=1 n=c#6 v=60
10395 On ch=1 n=c#6 v=0
10400 On ch=1 n=c6 v=60
10555 On ch=1 n=c6 v=0
10560 On ch=1 n=b5 v=60
10715 On ch=1 n=b5 v=0
10720 On ch=1 n=c6 v=60
10875 On ch=1 n=c6 v=0
10880 On ch=1 n=g5 v=60
11035 On ch=1 n=g5 v=0
11040 On ch=1 n=g#5 v=60
11195 On ch=1 n=g#5 v=0
11200 On ch=1 n=a#5 v=60
11355 On ch=1 n=a#5 v=0
11360 On ch=1 n=g#5 v=60
11515 On ch=1 n=g#5 v=0
11520 On ch=1 n=g5 v=60
11675 On ch=1 n=g5 v=0
11680 On ch=1 n=g#5 v=60
11835 On ch=1 n=g#5 v=0
11840 On ch=1 n=f5 v=60
11995 On ch=1 n=f5 v=0
12000 Par ch=1 c=64 v=127
12000 On ch=1 n=e5 v=60
12155 On ch=1 n=e5 v=0
12160 On ch=1 n=g5 v=60
12315 On ch=1 n=g5 v=0
12320 On ch=1 n=a#5 v=60
12475 On ch=1 n=a#5 v=0
12480 On ch=1 n=c#6 v=60
12635 On ch=1 n=c#6 v=0
12640 On ch=1 n=e6 v=60
12795 On ch=1 n=e6 v=0
12800 On ch=1 n=g6 v=60
12955 On ch=1 n=g6 v=0
12960 Par ch=1 c=64 v=0
12960 On ch=1 n=a#6 v=75
13115 On ch=1 n=a#6 v=0
13120 On ch=1 n=c#7 v=75
13275 On ch=1 n=c#7 v=0
13280 On ch=1 n=c7 v=75
13435 On ch=1 n=c7 v=0
13440 On ch=1 n=a#6 v=75
13595 On ch=1 n=a#6 v=0
13600 On ch=1 n=g#6 v=75
13755 On ch=1 n=g#6 v=0
13760 On ch=1 n=g6 v=75
13915 On ch=1 n=g6 v=0
13920 On ch=1 n=a#6 v=92
14075 On ch=1 n=a#6 v=0
14080 On ch=1 n=c7 v=92
14235 On ch=1 n=c7 v=0
14240 On ch=1 n=g#6 v=92
14395 On ch=1 n=g#6 v=0
14400 On ch=1 n=g6 v=92
14555 On ch=1 n=g6 v=0
14560 On ch=1 n=g#6 v=92
14715 On ch=1 n=g#6 v=0
14720 On ch=1 n=f6 v=92
14875 On ch=1 n=f6 v=0
14880 On ch=1 n=e6 v=75
15035 On ch=1 n=e6 v=0
15040 On ch=1 n=g6 v=75
15195 On ch=1 n=g6 v=0
15200 On ch=1 n=f6 v=75
15355 On ch=1 n=f6 v=0
15360 On ch=1 n=e6 v=75
15515 On ch=1 n=e6 v=0
15520 On ch=1 n=f6 v=75
15675 On ch=1 n=f6 v=0
15680 On ch=1 n=c#6 v=75
15835 On ch=1 n=c#6 v=0
15840 On ch=1 n=c6 v=60
15995 On ch=1 n=c6 v=0
16000 On ch=1 n=c#6 v=60
16155 On ch=1 n=c#6 v=0
16160 On ch=1 n=b5 v=60
16315 On ch=1 n=b5 v=0
16320 On ch=1 n=c6 v=60
16475 On ch=1 n=c6 v=0
16480 On ch=1 n=d#6 v=60
16635 On ch=1 n=d#6 v=0
16640 On ch=1 n=c#6 v=60
16795 On ch=1 n=c#6 v=0
16800 On ch=1 n=c6 v=60
16955 On ch=1 n=c6 v=0
16960 On ch=1 n=c#6 v=60
17115 On ch=1 n=c#6 v=0
17120 On ch=1 n=b5 v=60
17275 On ch=1 n=b5 v=0
17280 On ch=1 n=c6 v=60
17435 On ch=1 n=c6 v=0
17440 On ch=1 n=f#6 v=60
17595 On ch=1 n=f#6 v=0
17600 On ch=1 n=g6 v=60
17755 On ch=1 n=g6 v=0
17760 On ch=1 n=c6 v=60
17915 On ch=1 n=c6 v=0
17920 On ch=1 n=c#6 v=60
18075 On ch=1 n=c#6 v=0
18080 On ch=1 n=b5 v=60
18235 On ch=1 n=b5 v=0
18240 On ch=1 n=c6 v=60
18395 On ch=1 n=c6 v=0
18400 On ch=1 n=d#6 v=60
18555 On ch=1 n=d#6 v=0
18560 On ch=1 n=c#6 v=60
18715 On ch=1 n=c#6 v=0
18720 On ch=1 n=c6 v=60
18875 On ch=1 n=c6 v=0
18880 On ch=1 n=c#6 v=60
19035 On ch=1 n=c#6 v=0
19040 On ch=1 n=b5 v=60
19195 On ch=1 n=b5 v=0
19200 On ch=1 n=c6 v=60
19355 On ch=1 n=c6 v=0
19360 On ch=1 n=g#6 v=60
19515 On ch=1 n=g#6 v=0
19520 On ch=1 n=f6 v=60
19675 On ch=1 n=f6 v=0
19680 Par ch=1 c=64 v=127
19680 On ch=1 n=d#6 v=60
19835 On ch=1 n=d#6 v=0
19840 On ch=1 n=f6 v=60
19995 On ch=1 n=f6 v=0
20000 On ch=1 n=d#6 v=60
20155 On ch=1 n=d#6 v=0
20160 On ch=1 n=d6 v=60
20315 On ch=1 n=d6 v=0
20320 On ch=1 n=d#6 v=60
20475 On ch=1 n=d#6 v=0
20480 On ch=1 n=g6 v=60
20635 On ch=1 n=g6 v=0
20640 Par ch=1 c=64 v=0
20640 On ch=1 n=a#6 v=75
20795 On ch=1 n=a#6 v=0
20800 On ch=1 n=c7 v=75
20955 On ch=1 n=c7 v=0
20960 On ch=1 n=a#6 v=75
21115 On ch=1 n=a#6 v=0
21120 On ch=1 n=a6 v=75
21275 On ch=1 n=a6 v=0
21280 On ch=1 n=a#6 v=75
21435 On ch=1 n=a#6 v=0
21440 On ch=1 n=f7 v=75
21595 On ch=1 n=f7 v=0
21600 Par ch=1 c=64 v=127
21600 On ch=1 n=d#7 v=92
21755 On ch=1 n=d#7 v=0
21760 On ch=1 n=f7 v=92
21915 On ch=1 n=f7 v=0
21920 On ch=1 n=d#7 v=92
22075 On ch=1 n=d#7 v=0
22080 On ch=1 n=d7 v=92
22235 On ch=1 n=d7 v=0
22240 On ch=1 n=d#7 v=92
22395 On ch=1 n=d#7 v=0
22400 On ch=1 n=b6 v=92
22555 On ch=1 n=b6 v=0
22560 Par ch=1 c=64 v=0
22560 On ch=1 n=c7 v=75
22715 On ch=1 n=c7 v=0
22720 On ch=1 n=c#7 v=75
22875 On ch=1 n=c#7 v=0
22880 On ch=1 n=c7 v=75
23035 On ch=1 n=c7 v=0
23040 On ch=1 n=b6 v=75
23195 On ch=1 n=b6 v=0
23200 On ch=1 n=c7 v=75
23355 On ch=1 n=c7 v=0
23360 On ch=1 n=g6 v=75
23515 On ch=1 n=g6 v=0
23520 Par ch=1 c=64 v=127
23520 On ch=1 n=g#6 v=75
23675 On ch=1 n=g#6 v=0
23680 On ch=1 n=a#6 v=75
23835 On ch=1 n=a#6 v=0
23840 On ch=1 n=g#6 v=75
23995 On ch=1 n=g#6 v=0
24000 On ch=1 n=g6 v=75
24155 On ch=1 n=g6 v=0
24160 On ch=1 n=g#6 v=75
24315 On ch=1 n=g#6 v=0
24320 On ch=1 n=e6 v=75
24475 On ch=1 n=e6 v=0
24480 Par ch=1 c=64 v=0
24480 On ch=1 n=f6 v=75
24635 On ch=1 n=f6 v=0
24640 On ch=1 n=g6 v=75
24795 On ch=1 n=g6 v=0
24800 On ch=1 n=f6 v=75
24955 On ch=1 n=f6 v=0
24960 On ch=1 n=e6 v=75
25115 On ch=1 n=e6 v=0
25120 On ch=1 n=f6 v=75
25275 On ch=1 n=f6 v=0
25280 On ch=1 n=c#6 v=75
25435 On ch=1 n=c#6 v=0
25440 On ch=1 n=c6 v=60
25595 On ch=1 n=c6 v=0
25600 On ch=1 n=c#6 v=60
25755 On ch=1 n=c#6 v=0
25760 On ch=1 n=a#5 v=60
25915 On ch=1 n=a#5 v=0
25920 On ch=1 n=g5 v=60
26075 On ch=1 n=g5 v=0
26080 On ch=1 n=g#5 v=60
26235 On ch=1 n=g#5 v=0
26240 On ch=1 n=a#5 v=60
26395 On ch=1 n=a#5 v=0
26400 On ch=1 n=c6 v=60
26555 On ch=1 n=c6 v=0
26560 On ch=1 n=c#6 v=60
26715 On ch=1 n=c#6 v=0
26720 On ch=1 n=d#6 v=60
26875 On ch=1 n=d#6 v=0
26880 On ch=1 n=f6 v=60
27035 On ch=1 n=f6 v=0
27040 On ch=1 n=g6 v=60
27195 On ch=1 n=g6 v=0
27200 On ch=1 n=g#6 v=60
27355 On ch=1 n=g#6 v=0
27360 Par ch=1 c=64 v=127
27360 On ch=1 n=g6 v=75
27515 On ch=1 n=g6 v=0
27520 On ch=1 n=g#6 v=75
27675 On ch=1 n=g#6 v=0
27680 On ch=1 n=f6 v=75
27835 On ch=1 n=f6 v=0
27840 On ch=1 n=d#6 v=75
27995 On ch=1 n=d#6 v=0
28000 On ch=1 n=f6 v=75
28155 On ch=1 n=f6 v=0
28160 On ch=1 n=c#6 v=75
28315 On ch=1 n=c#6 v=0
28320 Par ch=1 c=64 v=0
28320 On ch=1 n=c6 v=75
28475 On ch=1 n=c6 v=0
28480 On ch=1 n=c#6 v=75
28635 On ch=1 n=c#6 v=0
28640 On ch=1 n=a#5 v=75
28795 On ch=1 n=a#5 v=0
28800 On ch=1 n=c6 v=75
28955 On ch=1 n=c6 v=0
28960 On ch=1 n=f5 v=75
29115 On ch=1 n=f5 v=0
29120 On ch=1 n=g5 v=75
29275 On ch=1 n=g5 v=0
29280 Par ch=1 c=64 v=127
29280 On ch=1 n=g#5 v=60
29435 On ch=1 n=g#5 v=0
29440 On ch=1 n=a#5 v=60
29595 On ch=1 n=a#5 v=0
29600 On ch=1 n=g#5 v=60
29755 On ch=1 n=g#5 v=0
29760 On ch=1 n=g5 v=60
29915 On ch=1 n=g5 v=0
29920 On ch=1 n=g#5 v=60
30075 On ch=1 n=g#5 v=0
30080 On ch=1 n=a5 v=60
30235 On ch=1 n=a5 v=0
30240 Par ch=1 c=64 v=0
30240 On ch=1 n=a#5 v=60
30395 On ch=1 n=a#5 v=0
30400 On ch=1 n=c6 v=60
30555 On ch=1 n=c6 v=0
30560 On ch=1 n=a#5 v=60
30715 On ch=1 n=a#5 v=0
30720 On ch=1 n=c6 v=60
30875 On ch=1 n=c6 v=0
30880 On ch=1 n=f5 v=60
31035 On ch=1 n=f5 v=0
31040 On ch=1 n=g5 v=60
31195 On ch=1 n=g5 v=0
31200 Par ch=1 c=64 v=127
31200 On ch=1 n=g#5 v=60
31355 On ch=1 n=g#5 v=0
31360 On ch=1 n=a#5 v=60
31515 On ch=1 n=a#5 v=0
31520 On ch=1 n=g#5 v=60
31675 On ch=1 n=g#5 v=0
31680 On ch=1 n=g5 v=60
31835 On ch=1 n=g5 v=0
31840 On ch=1 n=g#5 v=60
31995 On ch=1 n=g#5 v=0
32000 On ch=1 n=a5 v=60
32155 On ch=1 n=a5 v=0
32160 Par ch=1 c=64 v=0
32160 On ch=1 n=a#5 v=75
32315 On ch=1 n=a#5 v=0
32320 On ch=1 n=c6 v=75
32475 On ch=1 n=c6 v=0
32480 On ch=1 n=a#5 v=75
32635 On ch=1 n=a#5 v=0
32640 On ch=1 n=c6 v=75
32795 On ch=1 n=c6 v=0
32800 On ch=1 n=f5 v=75
32955 On ch=1 n=f5 v=0
32960 On ch=1 n=g5 v=75
33115 On ch=1 n=g5 v=0
33120 Par ch=1 c=64 v=127
33120 On ch=1 n=g#5 v=92
33275 On ch=1 n=g#5 v=0
33280 On ch=1 n=a#5 v=92
33435 On ch=1 n=a#5 v=0
33440 On ch=1 n=g#5 v=92
33595 On ch=1 n=g#5 v=0
33600 On ch=1 n=g5 v=92
33755 On ch=1 n=g5 v=0
33760 On ch=1 n=g#5 v=92
33915 On ch=1 n=g#5 v=0
33920 On ch=1 n=a#5 v=92
34075 On ch=1 n=a#5 v=0
34080 Par ch=1 c=64 v=127
34080 On ch=1 n=c6 v=92
34235 On ch=1 n=c6 v=0
34240 On ch=1 n=c#6 v=92
34395 On ch=1 n=c#6 v=0
34400 On ch=1 n=c6 v=92
34555 On ch=1 n=c6 v=0
34560 On ch=1 n=b5 v=92
34715 On ch=1 n=b5 v=0
34720 On ch=1 n=c6 v=92
34875 On ch=1 n=c6 v=0
34880 On ch=1 n=c#6 v=92
35035 On ch=1 n=c#6 v=0
35040 On ch=1 n=c6 v=75
35195 On ch=1 n=c6 v=0
35200 On ch=1 n=c#6 v=75
35355 On ch=1 n=c#6 v=0
35360 On ch=1 n=c6 v=75
35515 On ch=1 n=c6 v=0
35520 Par ch=1 c=64 v=0
35520 On ch=1 n=b5 v=75
35675 On ch=1 n=b5 v=0
35680 On ch=1 n=c6 v=75
35835 On ch=1 n=c6 v=0
35840 On ch=1 n=c#6 v=75
35995 On ch=1 n=c#6 v=0
36000 On ch=1 n=c6 v=60
36155 On ch=1 n=c6 v=0
36160 On ch=1 n=c#6 v=60
36315 On ch=1 n=c#6 v=0
36320 On ch=1 n=c6 v=60
36475 On ch=1 n=c6 v=0
36480 On ch=1 n=c#6 v=60
36635 On ch=1 n=c#6 v=0
36640 On ch=1 n=c6 v=60
36795 On ch=1 n=c6 v=0
36800 On ch=1 n=c#6 v=60
36955 On ch=1 n=c#6 v=0
36960 Par ch=1 c=64 v=127
36960 On ch=1 n=c6 v=60
37115 On ch=1 n=c6 v=0
37120 On ch=1 n=c#6 v=60
37275 On ch=1 n=c#6 v=0
37280 On ch=1 n=b5 v=60
37435 On ch=1 n=b5 v=0
37440 On ch=1 n=c6 v=60
37595 On ch=1 n=c6 v=0
37600 On ch=1 n=d#6 v=60
37755 On ch=1 n=d#6 v=0
37760 On ch=1 n=c#6 v=60
37915 On ch=1 n=c#6 v=0
37920 Par ch=1 c=64 v=0
37920 On ch=1 n=c6 v=60
38075 On ch=1 n=c6 v=0
38080 On ch=1 n=c#6 v=60
38235 On ch=1 n=c#6 v=0
38240 On ch=1 n=b5 v=60
38395 On ch=1 n=b5 v=0
38400 On ch=1 n=c6 v=60
38555 On ch=1 n=c6 v=0
38560 On ch=1 n=f#6 v=60
38715 On ch=1 n=f#6 v=0
38720 On ch=1 n=g6 v=60
38875 On ch=1 n=g6 v=0
38880 Par ch=1 c=64 v=127
38880 On ch=1 n=c6 v=60
39035 On ch=1 n=c6 v=0
39040 On ch=1 n=c#6 v=60
39195 On ch=1 n=c#6 v=0
39200 On ch=1 n=b5 v=60
39355 On ch=1 n=b5 v=0
39360 On ch=1 n=c6 v=60
39515 On ch=1 n=c6 v=0
39520 On ch=1 n=d#6 v=60
39675 On ch=1 n=d#6 v=0
39680 On ch=1 n=c#6 v=60
39835 On ch=1 n=c#6 v=0
39840 Par ch=1 c=64 v=0
39840 On ch=1 n=c6 v=60
39995 On ch=1 n=c6 v=0
40000 On ch=1 n=c#6 v=60
40155 On ch=1 n=c#6 v=0
40160 On ch=1 n=b5 v=60
40315 On ch=1 n=b5 v=0
40320 On ch=1 n=c6 v=60
40475 On ch=1 n=c6 v=0
40480 On ch=1 n=g#6 v=60
40635 On ch=1 n=g#6 v=0
40640 On ch=1 n=f6 v=60
40795 On ch=1 n=f6 v=0
40800 Par ch=1 c=64 v=127
40800 On ch=1 n=e6 v=75
40955 On ch=1 n=e6 v=0
40960 On ch=1 n=f6 v=75
41115 On ch=1 n=f6 v=0
41120 On ch=1 n=e6 v=75
41275 On ch=1 n=e6 v=0
41280 On ch=1 n=d#6 v=75
41435 On ch=1 n=d#6 v=0
41440 On ch=1 n=e6 v=75
41595 On ch=1 n=e6 v=0
41600 On ch=1 n=g6 v=75
41755 On ch=1 n=g6 v=0
41760 Par ch=1 c=64 v=0
41760 On ch=1 n=a#6 v=92
41915 On ch=1 n=a#6 v=0
41920 On ch=1 n=c7 v=92
42075 On ch=1 n=c7 v=0
42080 On ch=1 n=a#6 v=92
42235 On ch=1 n=a#6 v=0
42240 On ch=1 n=a6 v=92
42395 On ch=1 n=a6 v=0
42400 On ch=1 n=a#6 v=92
42555 On ch=1 n=a#6 v=0
42560 On ch=1 n=c#7 v=92
42715 On ch=1 n=c#7 v=0
42720 Par ch=1 c=64 v=127
42720 On ch=1 n=c7 v=92
42875 On ch=1 n=c7 v=0
42880 On ch=1 n=c#7 v=92
43035 On ch=1 n=c#7 v=0
43040 On ch=1 n=c7 v=92
43195 On ch=1 n=c7 v=0
43200 On ch=1 n=b6 v=92
43355 On ch=1 n=b6 v=0
43360 On ch=1 n=c7 v=92
43515 On ch=1 n=c7 v=0
43520 On ch=1 n=g6 v=92
43675 On ch=1 n=g6 v=0
43680 Par ch=1 c=64 v=0
43680 On ch=1 n=g#6 v=75
43835 On ch=1 n=g#6 v=0
43840 On ch=1 n=a#6 v=75
43995 On ch=1 n=a#6 v=0
44000 On ch=1 n=g#6 v=75
44155 On ch=1 n=g#6 v=0
44160 On ch=1 n=g6 v=75
44315 On ch=1 n=g6 v=0
44320 On ch=1 n=g#6 v=75
44475 On ch=1 n=g#6 v=0
44480 On ch=1 n=e6 v=75
44635 On ch=1 n=e6 v=0
44640 Par ch=1 c=64 v=127
44640 On ch=1 n=f6 v=75
44795 On ch=1 n=f6 v=0
44800 On ch=1 n=g6 v=75
44955 On ch=1 n=g6 v=0
44960 On ch=1 n=f6 v=75
45115 On ch=1 n=f6 v=0
45120 On ch=1 n=e6 v=75
45275 On ch=1 n=e6 v=0
45280 On ch=1 n=f6 v=75
45435 On ch=1 n=f6 v=0
45440 On ch=1 n=c6 v=75
45595 On ch=1 n=c6 v=0
45600 Par ch=1 c=64 v=0
45600 On ch=1 n=c#6 v=75
45755 On ch=1 n=c#6 v=0
45760 On ch=1 n=d#6 v=75
45915 On ch=1 n=d#6 v=0
45920 On ch=1 n=c#6 v=75
46075 On ch=1 n=c#6 v=0
46080 On ch=1 n=c6 v=75
46235 On ch=1 n=c6 v=0
46240 On ch=1 n=c#6 v=75
46395 On ch=1 n=c#6 v=0
46400 On ch=1 n=b5 v=75
46555 On ch=1 n=b5 v=0
46560 Par ch=1 c=64 v=127
46560 On ch=1 n=c6 v=60
46715 On ch=1 n=c6 v=0
46720 On ch=1 n=c#6 v=60
46875 On ch=1 n=c#6 v=0
46880 On ch=1 n=c6 v=60
47035 On ch=1 n=c6 v=0
47040 On ch=1 n=b5 v=60
47195 On ch=1 n=b5 v=0
47200 On ch=1 n=c6 v=60
47355 On ch=1 n=c6 v=0
47360 On ch=1 n=g5 v=60
47515 On ch=1 n=g5 v=0
47520 Par ch=1 c=64 v=0
47520 On ch=1 n=g#5 v=60
47675 On ch=1 n=g#5 v=0
47680 On ch=1 n=a#5 v=60
47835 On ch=1 n=a#5 v=0
47840 On ch=1 n=g#5 v=60
47995 On ch=1 n=g#5 v=0
48000 On ch=1 n=g5 v=60
48155 On ch=1 n=g5 v=0
48160 On ch=1 n=g#5 v=60
48315 On ch=1 n=g#5 v=0
48320 On ch=1 n=f5 v=60
48475 On ch=1 n=f5 v=0
48480 Par ch=1 c=64 v=127
48480 On ch=1 n=e5 v=60
48635 On ch=1 n=e5 v=0
48640 On ch=1 n=g5 v=60
48795 On ch=1 n=g5 v=0
48800 On ch=1 n=a#5 v=60
48955 On ch=1 n=a#5 v=0
48960 On ch=1 n=c#6 v=60
49115 On ch=1 n=c#6 v=0
49120 On ch=1 n=e6 v=60
49275 On ch=1 n=e6 v=0
49280 On ch=1 n=g6 v=60
49435 On ch=1 n=g6 v=0
49440 Par ch=1 c=64 v=0
49440 On ch=1 n=a#6 v=75
49595 On ch=1 n=a#6 v=0
49600 On ch=1 n=c#7 v=75
49755 On ch=1 n=c#7 v=0
49760 On ch=1 n=c7 v=75
49915 On ch=1 n=c7 v=0
49920 On ch=1 n=a#6 v=75
50075 On ch=1 n=a#6 v=0
50080 On ch=1 n=g#6 v=75
50235 On ch=1 n=g#6 v=0
50240 On ch=1 n=g6 v=75
50395 On ch=1 n=g6 v=0
50400 Par ch=1 c=64 v=127
50400 On ch=1 n=a#6 v=92
50555 On ch=1 n=a#6 v=0
50560 On ch=1 n=c7 v=92
50715 On ch=1 n=c7 v=0
50720 On ch=1 n=g#6 v=92
50875 On ch=1 n=g#6 v=0
50880 On ch=1 n=g6 v=92
51035 On ch=1 n=g6 v=0
51040 On ch=1 n=g#6 v=92
51195 On ch=1 n=g#6 v=0
51200 On ch=1 n=f6 v=92
51355 On ch=1 n=f6 v=0
51360 Par ch=1 c=64 v=0
51360 On ch=1 n=e6 v=75
51515 On ch=1 n=e6 v=0
51520 On ch=1 n=g6 v=75
51675 On ch=1 n=g6 v=0
51680 On ch=1 n=f6 v=75
51835 On ch=1 n=f6 v=0
51840 On ch=1 n=e6 v=75
51995 On ch=1 n=e6 v=0
52000 On ch=1 n=f6 v=75
52155 On ch=1 n=f6 v=0
52160 On ch=1 n=c#6 v=75
52315 On ch=1 n=c#6 v=0
52320 Par ch=1 c=64 v=127
52320 On ch=1 n=c6 v=60
52475 On ch=1 n=c6 v=0
52480 On ch=1 n=c#6 v=60
52635 On ch=1 n=c#6 v=0
52640 On ch=1 n=b5 v=60
52795 On ch=1 n=b5 v=0
52800 On ch=1 n=c6 v=60
52955 On ch=1 n=c6 v=0
52960 On ch=1 n=d#6 v=60
53115 On ch=1 n=d#6 v=0
53120 On ch=1 n=c#6 v=60
53275 On ch=1 n=c#6 v=0
53280 Par ch=1 c=64 v=0
53280 On ch=1 n=c6 v=60
53435 On ch=1 n=c6 v=0
53440 On ch=1 n=c#6 v=60
53595 On ch=1 n=c#6 v=0
53600 On ch=1 n=b5 v=60
53755 On ch=1 n=b5 v=0
53760 On ch=1 n=c6 v=60
53915 On ch=1 n=c6 v=0
53920 On ch=1 n=f#6 v=60
54075 On ch=1 n=f#6 v=0
54080 On ch=1 n=g6 v=60
54235 On ch=1 n=g6 v=0
54240 Par ch=1 c=64 v=127
54240 On ch=1 n=c6 v=60
54395 On ch=1 n=c6 v=0
54400 On ch=1 n=c#6 v=60
54555 On ch=1 n=c#6 v=0
54560 On ch=1 n=b5 v=60
54715 On ch=1 n=b5 v=0
54720 On ch=1 n=c6 v=60
54875 On ch=1 n=c6 v=0
54880 On ch=1 n=d#6 v=60
55035 On ch=1 n=d#6 v=0
55040 On ch=1 n=c#6 v=60
55195 On ch=1 n=c#6 v=0
55200 Par ch=1 c=64 v=0
55200 On ch=1 n=c6 v=60
55355 On ch=1 n=c6 v=0
55360 On ch=1 n=c#6 v=60
55515 On ch=1 n=c#6 v=0
55520 On ch=1 n=b5 v=60
55675 On ch=1 n=b5 v=0
55680 On ch=1 n=c6 v=60
55835 On ch=1 n=c6 v=0
55840 On ch=1 n=g#6 v=60
55995 On ch=1 n=g#6 v=0
56000 On ch=1 n=f6 v=60
56155 On ch=1 n=f6 v=0
56160 Par ch=1 c=64 v=127
56160 On ch=1 n=d#6 v=60
56315 On ch=1 n=d#6 v=0
56320 On ch=1 n=f6 v=60
56475 On ch=1 n=f6 v=0
56480 On ch=1 n=d#6 v=60
56635 On ch=1 n=d#6 v=0
56640 On ch=1 n=d6 v=60
56795 On ch=1 n=d6 v=0
56800 On ch=1 n=d#6 v=60
56955 On ch=1 n=d#6 v=0
56960 On ch=1 n=g6 v=60
57115 On ch=1 n=g6 v=0
57120 Par ch=1 c=64 v=0
57120 On ch=1 n=a#6 v=75
57275 On ch=1 n=a#6 v=0
57280 On ch=1 n=c7 v=75
57435 On ch=1 n=c7 v=0
57440 On ch=1 n=a#6 v=75
57595 On ch=1 n=a#6 v=0
57600 On ch=1 n=a6 v=75
57755 On ch=1 n=a6 v=0
57760 On ch=1 n=a#6 v=75
57915 On ch=1 n=a#6 v=0
57920 On ch=1 n=f7 v=75
58075 On ch=1 n=f7 v=0
58080 Par ch=1 c=64 v=127
58080 On ch=1 n=d#7 v=92
58235 On ch=1 n=d#7 v=0
58240 On ch=1 n=f7 v=92
58395 On ch=1 n=f7 v=0
58400 On ch=1 n=d#7 v=92
58555 On ch=1 n=d#7 v=0
58560 On ch=1 n=d7 v=92
58715 On ch=1 n=d7 v=0
58720 On ch=1 n=d#7 v=92
58875 On ch=1 n=d#7 v=0
58880 On ch=1 n=b6 v=92
59035 On ch=1 n=b6 v=0
59040 Par ch=1 c=64 v=0
59040 On ch=1 n=c7 v=75
59195 On ch=1 n=c7 v=0
59200 On ch=1 n=c#7 v=75
59355 On ch=1 n=c#7 v=0
59360 On ch=1 n=c7 v=75
59515 On ch=1 n=c7 v=0
59520 On ch=1 n=b6 v=75
59675 On ch=1 n=b6 v=0
59680 On ch=1 n=c7 v=75
59835 On ch=1 n=c7 v=0
59840 On ch=1 n=g6 v=75
59995 On ch=1 n=g6 v=0
60000 Par ch=1 c=64 v=127
60000 On ch=1 n=g#6 v=75
60155 On ch=1 n=g#6 v=0
60160 On ch=1 n=a#6 v=75
60315 On ch=1 n=a#6 v=0
60320 On ch=1 n=g#6 v=75
60475 On ch=1 n=g#6 v=0
60480 On ch=1 n=g6 v=75
60635 On ch=1 n=g6 v=0
60640 On ch=1 n=g#6 v=75
60795 On ch=1 n=g#6 v=0
60800 On ch=1 n=e6 v=75
60955 On ch=1 n=e6 v=0
60960 Par ch=1 c=64 v=0
60960 On ch=1 n=f6 v=75
61115 On ch=1 n=f6 v=0
61120 On ch=1 n=g6 v=75
61275 On ch=1 n=g6 v=0
61280 On ch=1 n=f6 v=75
61435 On ch=1 n=f6 v=0
61440 On ch=1 n=e6 v=75
61595 On ch=1 n=e6 v=0
61600 On ch=1 n=f6 v=75
61755 On ch=1 n=f6 v=0
61760 On ch=1 n=c#6 v=75
61915 On ch=1 n=c#6 v=0
61920 Par ch=1 c=64 v=127
61920 On ch=1 n=c6 v=60
62075 On ch=1 n=c6 v=0
62080 On ch=1 n=c#6 v=60
62235 On ch=1 n=c#6 v=0
62240 On ch=1 n=a#5 v=60
62395 On ch=1 n=a#5 v=0
62400 On ch=1 n=g5 v=60
62555 On ch=1 n=g5 v=0
62560 On ch=1 n=g#5 v=60
62715 On ch=1 n=g#5 v=0
62720 On ch=1 n=a#5 v=60
62875 On ch=1 n=a#5 v=0
62880 Par ch=1 c=64 v=0
62880 On ch=1 n=c6 v=60
63035 On ch=1 n=c6 v=0
63040 On ch=1 n=c#6 v=60
63195 On ch=1 n=c#6 v=0
63200 On ch=1 n=d#6 v=60
63355 On ch=1 n=d#6 v=0
63360 On ch=1 n=f6 v=60
63515 On ch=1 n=f6 v=0
63520 On ch=1 n=g6 v=60
63675 On ch=1 n=g6 v=0
63680 On ch=1 n=g#6 v=60
63835 On ch=1 n=g#6 v=0
63840 Par ch=1 c=64 v=127
63840 On ch=1 n=g6 v=75
63995 On ch=1 n=g6 v=0
64000 On ch=1 n=g#6 v=75
64155 On ch=1 n=g#6 v=0
64160 On ch=1 n=f6 v=75
64315 On ch=1 n=f6 v=0
64320 On ch=1 n=d#6 v=75
64475 On ch=1 n=d#6 v=0
64480 On ch=1 n=f6 v=75
64635 On ch=1 n=f6 v=0
64640 On ch=1 n=c#6 v=75
64795 On ch=1 n=c#6 v=0
64800 Par ch=1 c=64 v=0
64800 On ch=1 n=c6 v=75
64955 On ch=1 n=c6 v=0
64960 On ch=1 n=c#6 v=75
65115 On ch=1 n=c#6 v=0
65120 On ch=1 n=a#5 v=75
65275 On ch=1 n=a#5 v=0
65280 On ch=1 n=c6 v=75
65435 On ch=1 n=c6 v=0
65440 On ch=1 n=f5 v=75
65595 On ch=1 n=f5 v=0
65600 On ch=1 n=g5 v=75
65755 On ch=1 n=g5 v=0
65760 Par ch=1 c=64 v=127
65760 On ch=1 n=g#5 v=60
65915 On ch=1 n=g#5 v=0
65920 On ch=1 n=a#5 v=60
66075 On ch=1 n=a#5 v=0
66080 On ch=1 n=g#5 v=60
66235 On ch=1 n=g#5 v=0
66240 On ch=1 n=g5 v=60
66395 On ch=1 n=g5 v=0
66400 On ch=1 n=g#5 v=60
66555 On ch=1 n=g#5 v=0
66560 On ch=1 n=a5 v=60
66715 On ch=1 n=a5 v=0
66720 Par ch=1 c=64 v=0
66720 On ch=1 n=a#5 v=60
66875 On ch=1 n=a#5 v=0
66880 On ch=1 n=c6 v=60
67035 On ch=1 n=c6 v=0
67040 On ch=1 n=a#5 v=60
67195 On ch=1 n=a#5 v=0
67200 On ch=1 n=c6 v=60
67355 On ch=1 n=c6 v=0
67360 On ch=1 n=f5 v=60
67515 On ch=1 n=f5 v=0
67520 On ch=1 n=g5 v=60
67675 On ch=1 n=g5 v=0
67680 Par ch=1 c=64 v=127
67680 On ch=1 n=g#5 v=60
67835 On ch=1 n=g#5 v=0
67840 On ch=1 n=a#5 v=60
67995 On ch=1 n=a#5 v=0
68000 On ch=1 n=g#5 v=60
68155 On ch=1 n=g#5 v=0
68160 On ch=1 n=g5 v=60
68315 On ch=1 n=g5 v=0
68320 On ch=1 n=g#5 v=60
68475 On ch=1 n=g#5 v=0
68480 On ch=1 n=a5 v=60
68635 On ch=1 n=a5 v=0
68640 Par ch=1 c=64 v=0
68640 On ch=1 n=a#5 v=75
68795 On ch=1 n=a#5 v=0
68800 On ch=1 n=c6 v=75
68955 On ch=1 n=c6 v=0
68960 On ch=1 n=a#5 v=75
69115 On ch=1 n=a#5 v=0
69120 On ch=1 n=c6 v=75
69275 On ch=1 n=c6 v=0
69280 On ch=1 n=f5 v=75
69435 On ch=1 n=f5 v=0
69440 On ch=1 n=g5 v=75
69595 On ch=1 n=g5 v=0
69600 Par ch=1 c=64 v=127
69600 On ch=1 n=g#5 v=92
69755 On ch=1 n=g#5 v=0
69760 On ch=1 n=a#5 v=92
69915 On ch=1 n=a#5 v=0
69920 On ch=1 n=g#5 v=92
70075 On ch=1 n=g#5 v=0
70080 On ch=1 n=g5 v=92
70235 On ch=1 n=g5 v=0
70240 On ch=1 n=g#5 v=92
70395 On ch=1 n=g#5 v=0
70400 On ch=1 n=a#5 v=92
70555 On ch=1 n=a#5 v=0
70560 Par ch=1 c=64 v=127
70560 On ch=1 n=c6 v=92
70715 On ch=1 n=c6 v=0
70720 On ch=1 n=c#6 v=92
70875 On ch=1 n=c#6 v=0
70880 On ch=1 n=c6 v=92
71035 On ch=1 n=c6 v=0
71040 On ch=1 n=b5 v=92
71195 On ch=1 n=b5 v=0
71200 On ch=1 n=c6 v=92
71355 On ch=1 n=c6 v=0
71360 On ch=1 n=c#6 v=92
71515 On ch=1 n=c#6 v=0
71520 Par ch=1 c=64 v=127
71520 On ch=1 n=d#6 v=92
71675 On ch=1 n=d#6 v=0
71680 On ch=1 n=f6 v=92
71835 On ch=1 n=f6 v=0
71840 On ch=1 n=d#6 v=92
71995 On ch=1 n=d#6 v=0
72000 On ch=1 n=f6 v=92
72155 On ch=1 n=f6 v=0
72160 On ch=1 n=d#6 v=92
72315 On ch=1 n=d#6 v=0
72320 On ch=1 n=c#6 v=92
72475 On ch=1 n=c#6 v=0
72480 Par ch=1 c=64 v=0
72480 On ch=1 n=c6 v=75
72635 On ch=1 n=c6 v=0
72640 On ch=1 n=c#6 v=75
72795 On ch=1 n=c#6 v=0
72800 On ch=1 n=c6 v=75
72955 On ch=1 n=c6 v=0
72960 On ch=1 n=c#6 v=75
73115 On ch=1 n=c#6 v=0
73120 On ch=1 n=g5 v=75
73275 On ch=1 n=g5 v=0
73280 On ch=1 n=a5 v=75
73435 On ch=1 n=a5 v=0
73440 Par ch=1 c=64 v=127
73440 On ch=1 n=a#5 v=60
73595 On ch=1 n=a#5 v=0
73600 On ch=1 n=c6 v=60
73755 On ch=1 n=c6 v=0
73760 On ch=1 n=a#5 v=60
73915 On ch=1 n=a#5 v=0
73920 On ch=1 n=a5 v=60
74075 On ch=1 n=a5 v=0
74080 On ch=1 n=a#5 v=60
74235 On ch=1 n=a#5 v=0
74240 On ch=1 n=b5 v=60
74395 On ch=1 n=b5 v=0
74400 Par ch=1 c=64 v=0
74400 On ch=1 n=c6 v=60
74555 On ch=1 n=c6 v=0
74560 On ch=1 n=c#6 v=60
74715 On ch=1 n=c#6 v=0
74720 On ch=1 n=c6 v=60
74875 On ch=1 n=c6 v=0
74880 On ch=1 n=c#6 v=60
75035 On ch=1 n=c#6 v=0
75040 On ch=1 n=g5 v=60
75195 On ch=1 n=g5 v=0
75200 On ch=1 n=a5 v=60
75355 On ch=1 n=a5 v=0
75360 Par ch=1 c=64 v=127
75360 On ch=1 n=a#5 v=60
75515 On ch=1 n=a#5 v=0
75520 On ch=1 n=c6 v=60
75675 On ch=1 n=c6 v=0
75680 On ch=1 n=a#5 v=60
75835 On ch=1 n=a#5 v=0
75840 On ch=1 n=a5 v=60
75995 On ch=1 n=a5 v=0
76000 On ch=1 n=a#5 v=60
76155 On ch=1 n=a#5 v=0
76160 On ch=1 n=b5 v=60
76315 On ch=1 n=b5 v=0
76320 Par ch=1 c=64 v=0
76320 On ch=1 n=c6 v=60
76475 On ch=1 n=c6 v=0
76480 On ch=1 n=c#6 v=60
76635 On ch=1 n=c#6 v=0
76640 On ch=1 n=c6 v=60
76795 On ch=1 n=c6 v=0
76800 On ch=1 n=c#6 v=60
76955 On ch=1 n=c#6 v=0
76960 On ch=1 n=g5 v=60
77115 On ch=1 n=g5 v=0
77120 On ch=1 n=a5 v=60
77275 On ch=1 n=a5 v=0
77280 Par ch=1 c=64 v=127
77280 On ch=1 n=a#5 v=75
77435 On ch=1 n=a#5 v=0
77440 On ch=1 n=c6 v=75
77595 On ch=1 n=c6 v=0
77600 On ch=1 n=a#5 v=75
77755 On ch=1 n=a#5 v=0
77760 On ch=1 n=a5 v=75
77915 On ch=1 n=a5 v=0
77920 On ch=1 n=a#5 v=75
78075 On ch=1 n=a#5 v=0
78080 On ch=1 n=c6 v=75
78235 On ch=1 n=c6 v=0
78240 Par ch=1 c=64 v=127
78240 On ch=1 n=d6 v=75
78395 On ch=1 n=d6 v=0
78400 On ch=1 n=d#6 v=75
78555 On ch=1 n=d#6 v=0
78560 On ch=1 n=d6 v=75
78715 On ch=1 n=d6 v=0
78720 On ch=1 n=c#6 v=75
78875 On ch=1 n=c#6 v=0
78880 On ch=1 n=d6 v=75
79035 On ch=1 n=d6 v=0
79040 On ch=1 n=d#6 v=75
79195 On ch=1 n=d#6 v=0
79200 On ch=1 n=f6 v=75
79355 On ch=1 n=f6 v=0
79360 On ch=1 n=g6 v=75
79515 On ch=1 n=g6 v=0
79520 On ch=1 n=f6 v=75
79675 On ch=1 n=f6 v=0
79680 On ch=1 n=g6 v=75
79835 On ch=1 n=g6 v=0
79840 On ch=1 n=f6 v=75
79995 On ch=1 n=f6 v=0
80000 On ch=1 n=d#6 v=75
80155 On ch=1 n=d#6 v=0
80160 Par ch=1 c=64 v=127
80160 On ch=1 n=d6 v=75
80315 On ch=1 n=d6 v=0
80320 On ch=1 n=d#6 v=75
80475 On ch=1 n=d#6 v=0
80480 On ch=1 n=d6 v=75
80635 On ch=1 n=d6 v=0
80640 On ch=1 n=d#6 v=75
80795 On ch=1 n=d#6 v=0
80800 On ch=1 n=a5 v=75
80955 On ch=1 n=a5 v=0
80960 On ch=1 n=b5 v=75
81115 On ch=1 n=b5 v=0
81120 Par ch=1 c=64 v=127
81120 On ch=1 n=c6 v=92
81275 On ch=1 n=c6 v=0
81280 On ch=1 n=c#6 v=92
81435 On ch=1 n=c#6 v=0
81440 On ch=1 n=c6 v=92
81595 On ch=1 n=c6 v=0
81600 On ch=1 n=b5 v=92
81755 On ch=1 n=b5 v=0
81760 On ch=1 n=c6 v=92
81915 On ch=1 n=c6 v=0
81920 On ch=1 n=g6 v=92
82075 On ch=1 n=g6 v=0
82080 Par ch=1 c=64 v=127
82080 On ch=1 n=g#6 v=92
82235 On ch=1 n=g#6 v=0
82240 On ch=1 n=a#6 v=92
82395 On ch=1 n=a#6 v=0
82400 On ch=1 n=g#6 v=92
82555 On ch=1 n=g#6 v=0
82560 On ch=1 n=g6 v=92
82715 On ch=1 n=g6 v=0
82720 On ch=1 n=g#6 v=92
82875 On ch=1 n=g#6 v=0
82880 On ch=1 n=e6 v=92
83035 On ch=1 n=e6 v=0
83040 Par ch=1 c=64 v=127
83040 On ch=1 n=f6 v=92
83195 On ch=1 n=f6 v=0
83200 On ch=1 n=g6 v=92
83355 On ch=1 n=g6 v=0
83360 On ch=1 n=f6 v=92
83515 On ch=1 n=f6 v=0
83520 On ch=1 n=d#6 v=92
83675 On ch=1 n=d#6 v=0
83680 On ch=1 n=c#6 v=92
83835 On ch=1 n=c#6 v=0
83840 On ch=1 n=c6 v=92
83995 On ch=1 n=c6 v=0
84000 Par ch=1 c=64 v=0
84000 On ch=1 n=a#5 v=75
84155 On ch=1 n=a#5 v=0
84160 On ch=1 n=g#5 v=75
84315 On ch=1 n=g#5 v=0
84320 On ch=1 n=g5 v=75
84475 On ch=1 n=g5 v=0
84480 On ch=1 n=f5 v=75
84635 On ch=1 n=f5 v=0
84640 On ch=1 n=g5 v=75
84795 On ch=1 n=g5 v=0
84800 On ch=1 n=g#5 v=75
84955 On ch=1 n=g#5 v=0
84960 Par ch=1 c=64 v=127
84960 On ch=1 n=g5 v=60
85115 On ch=1 n=g5 v=0
85120 On ch=1 n=c#6 v=60
85275 On ch=1 n=c#6 v=0
85280 On ch=1 n=c6 v=60
85435 On ch=1 n=c6 v=0
85440 On ch=1 n=b5 v=60
85595 On ch=1 n=b5 v=0
85600 On ch=1 n=c6 v=60
85755 On ch=1 n=c6 v=0
85760 On ch=1 n=g6 v=60
85915 On ch=1 n=g6 v=0
85920 Par ch=1 c=64 v=127
85920 On ch=1 n=g#6 v=45
86075 On ch=1 n=g#6 v=0
86080 On ch=1 n=a#6 v=45
86235 On ch=1 n=a#6 v=0
86240 On ch=1 n=g#6 v=45
86395 On ch=1 n=g#6 v=0
86400 On ch=1 n=g6 v=45
86555 On ch=1 n=g6 v=0
86560 On ch=1 n=g#6 v=45
86715 On ch=1 n=g#6 v=0
86720 On ch=1 n=e6 v=45
86875 On ch=1 n=e6 v=0
86880 Par ch=1 c=64 v=127
86880 On ch=1 n=f6 v=45
87035 On ch=1 n=f6 v=0
87040 On ch=1 n=g6 v=45
87195 On ch=1 n=g6 v=0
87200 On ch=1 n=f6 v=45
87355 On ch=1 n=f6 v=0
87360 On ch=1 n=d#6 v=45
87515 On ch=1 n=d#6 v=0
87520 On ch=1 n=c#6 v=45
87675 On ch=1 n=c#6 v=0
87680 On ch=1 n=c6 v=45
87835 On ch=1 n=c6 v=0
87840 Par ch=1 c=64 v=0
87840 On ch=1 n=a#5 v=45
87995 On ch=1 n=a#5 v=0
88000 On ch=1 n=g#5 v=45
88155 On ch=1 n=g#5 v=0
88160 On ch=1 n=g5 v=45
88315 On ch=1 n=g5 v=0
88320 On ch=1 n=f5 v=45
88475 On ch=1 n=f5 v=0
88480 On ch=1 n=g5 v=45
88635 On ch=1 n=g5 v=0
88640 On ch=1 n=g#5 v=45
88795 On ch=1 n=g#5 v=0
88800 Par ch=1 c=64 v=127
88800 On ch=1 n=g5 v=60
88955 On ch=1 n=g5 v=0
88960 On ch=1 n=g6 v=60
89115 On ch=1 n=g6 v=0
89120 On ch=1 n=f6 v=60
89275 On ch=1 n=f6 v=0
89280 On ch=1 n=e6 v=60
89435 On ch=1 n=e6 v=0
89440 On ch=1 n=c#6 v=60
89595 On ch=1 n=c#6 v=0
89600 On ch=1 n=c6 v=60
89755 On ch=1 n=c6 v=0
89760 Par ch=1 c=64 v=0
89760 On ch=1 n=a#5 v=60
89915 On ch=1 n=a#5 v=0
89920 On ch=1 n=g#5 v=60
90075 On ch=1 n=g#5 v=0
90080 On ch=1 n=g5 v=60
90235 On ch=1 n=g5 v=0
90240 On ch=1 n=f5 v=60
90395 On ch=1 n=f5 v=0
90400 On ch=1 n=g5 v=60
90555 On ch=1 n=g5 v=0
90560 On ch=1 n=g#5 v=60
90715 On ch=1 n=g#5 v=0
90720 Par ch=1 c=64 v=127
90720 On ch=1 n=g5 v=60
90875 On ch=1 n=g5 v=0
90880 On ch=1 n=g6 v=60
91035 On ch=1 n=g6 v=0
91040 On ch=1 n=f6 v=60
91195 On ch=1 n=f6 v=0
91200 On ch=1 n=e6 v=60
91355 On ch=1 n=e6 v=0
91360 On ch=1 n=c#6 v=60
91515 On ch=1 n=c#6 v=0
91520 On ch=1 n=c6 v=60
91675 On ch=1 n=c6 v=0
91680 Par ch=1 c=64 v=0
91680 On ch=1 n=a#5 v=45
91835 On ch=1 n=a#5 v=0
91840 On ch=1 n=g#5 v=45
91995 On ch=1 n=g#5 v=0
92000 On ch=1 n=g5 v=45
92155 On ch=1 n=g5 v=0
92160 On ch=1 n=f5 v=45
92315 On ch=1 n=f5 v=0
92320 On ch=1 n=g5 v=45
92475 On ch=1 n=g5 v=0
92480 On ch=1 n=g#5 v=45
92635 On ch=1 n=g#5 v=0
92640 On ch=1 n=g5 v=45
92795 On ch=1 n=g5 v=0
92800 On ch=1 n=c#6 v=45
92955 On ch=1 n=c#6 v=0
92960 On ch=1 n=c6 v=45
93115 On ch=1 n=c6 v=0
93120 On ch=1 n=b5 v=45
93275 On ch=1 n=b5 v=0
93280 On ch=1 n=c6 v=45
93435 On ch=1 n=c6 v=0
93440 On ch=1 n=c#6 v=45
93595 On ch=1 n=c#6 v=0
93600 On ch=1 n=c6 v=45
93755 On ch=1 n=c6 v=0
93760 On ch=1 n=c#6 v=45
93915 On ch=1 n=c#6 v=0
93920 On ch=1 n=c6 v=45
94075 On ch=1 n=c6 v=0
94080 On ch=1 n=b5 v=60
94235 On ch=1 n=b5 v=0
94240 On ch=1 n=c6 v=60
94395 On ch=1 n=c6 v=0
94400 On ch=1 n=c#6 v=60
94555 On ch=1 n=c#6 v=0
94560 On ch=1 n=c6 v=75
94715 On ch=1 n=c6 v=0
94720 On ch=1 n=c#6 v=75
94875 On ch=1 n=c#6 v=0
94880 On ch=1 n=c6 v=75
95035 On ch=1 n=c6 v=0
95040 On ch=1 n=b5 v=92
95195 On ch=1 n=b5 v=0
95200 On ch=1 n=c6 v=92
95355 On ch=1 n=c6 v=0
95360 On ch=1 n=c#6 v=92
95515 On ch=1 n=c#6 v=0
95520 On ch=1 n=c6 v=75
95675 On ch=1 n=c6 v=0
95680 On ch=1 n=c#6 v=75
95835 On ch=1 n=c#6 v=0
95840 On ch=1 n=c6 v=75
95995 On ch=1 n=c6 v=0
96000 On ch=1 n=c#6 v=60
96155 On ch=1 n=c#6 v=0
96160 On ch=1 n=c6 v=60
96315 On ch=1 n=c6 v=0
96320 On ch=1 n=c#6 v=60
96475 On ch=1 n=c#6 v=0
96480 On ch=1 n=c6 v=45
96635 On ch=1 n=c6 v=0
96640 On ch=1 n=c#6 v=45
96795 On ch=1 n=c#6 v=0
96800 On ch=1 n=b5 v=45
96955 On ch=1 n=b5 v=0
96960 On ch=1 n=c6 v=45
97115 On ch=1 n=c6 v=0
97120 On ch=1 n=d#6 v=45
97275 On ch=1 n=d#6 v=0
97280 On ch=1 n=c#6 v=45
97435 On ch=1 n=c#6 v=0
97440 On ch=1 n=c6 v=45
97595 On ch=1 n=c6 v=0
97600 On ch=1 n=c#6 v=45
97755 On ch=1 n=c#6 v=0
97760 On ch=1 n=b5 v=45
97915 On ch=1 n=b5 v=0
97920 On ch=1 n=c6 v=45
98075 On ch=1 n=c6 v=0
98080 On ch=1 n=f#6 v=45
98235 On ch=1 n=f#6 v=0
98240 On ch=1 n=g6 v=45
98395 On ch=1 n=g6 v=0
98400 On ch=1 n=c6 v=45
98555 On ch=1 n=c6 v=0
98560 On ch=1 n=c#6 v=45
98715 On ch=1 n=c#6 v=0
98720 On ch=1 n=b5 v=45
98875 On ch=1 n=b5 v=0
98880 On ch=1 n=c6 v=45
99035 On ch=1 n=c6 v=0
99040 On ch=1 n=d#6 v=45
99195 On ch=1 n=d#6 v=0
99200 On ch=1 n=c#6 v=45
99355 On ch=1 n=c#6 v=0
99360 On ch=1 n=c6 v=45
99515 On ch=1 n=c6 v=0
99520 On ch=1 n=c#6 v=45
99675 On ch=1 n=c#6 v=0
99680 On ch=1 n=b5 v=45
99835 On ch=1 n=b5 v=0
99840 On ch=1 n=c6 v=45
99995 On ch=1 n=c6 v=0
100000 On ch=1 n=g#6 v=45
100155 On ch=1 n=g#6 v=0
100160 On ch=1 n=f6 v=45
100315 On ch=1 n=f6 v=0
100320 Par ch=1 c=64 v=127
100320 On ch=1 n=e6 v=45
100475 On ch=1 n=e6 v=0
100480 On ch=1 n=f6 v=45
100635 On ch=1 n=f6 v=0
100640 On ch=1 n=e6 v=45
100795 On ch=1 n=e6 v=0
100800 On ch=1 n=d#6 v=45
100955 On ch=1 n=d#6 v=0
100960 On ch=1 n=e6 v=45
101115 On ch=1 n=e6 v=0
101120 On ch=1 n=g6 v=45
101275 On ch=1 n=g6 v=0
101280 Par ch=1 c=64 v=0
101280 On ch=1 n=a#6 v=60
101435 On ch=1 n=a#6 v=0
101440 On ch=1 n=c7 v=60
101595 On ch=1 n=c7 v=0
101600 On ch=1 n=a#6 v=60
101755 On ch=1 n=a#6 v=0
101760 On ch=1 n=a6 v=60
101915 On ch=1 n=a6 v=0
101920 On ch=1 n=a#6 v=60
102075 On ch=1 n=a#6 v=0
102080 On ch=1 n=c#7 v=60
102235 On ch=1 n=c#7 v=0
102240 Par ch=1 c=64 v=127
102240 On ch=1 n=c7 v=75
102395 On ch=1 n=c7 v=0
102400 On ch=1 n=c#7 v=75
102555 On ch=1 n=c#7 v=0
102560 On ch=1 n=c7 v=75
102715 On ch=1 n=c7 v=0
102720 On ch=1 n=b6 v=75
102875 On ch=1 n=b6 v=0
102880 On ch=1 n=c7 v=75
103035 On ch=1 n=c7 v=0
103040 On ch=1 n=g6 v=75
103195 On ch=1 n=g6 v=0
103200 Par ch=1 c=64 v=0
103200 On ch=1 n=g#6 v=75
103355 On ch=1 n=g#6 v=0
103360 On ch=1 n=a#6 v=75
103515 On ch=1 n=a#6 v=0
103520 On ch=1 n=g#6 v=75
103675 On ch=1 n=g#6 v=0
103680 On ch=1 n=g6 v=75
103835 On ch=1 n=g6 v=0
103840 On ch=1 n=g#6 v=75
103995 On ch=1 n=g#6 v=0
104000 On ch=1 n=e6 v=75
104155 On ch=1 n=e6 v=0
104160 Par ch=1 c=64 v=127
104160 On ch=1 n=f6 v=60
104315 On ch=1 n=f6 v=0
104320 On ch=1 n=g6 v=60
104475 On ch=1 n=g6 v=0
104480 On ch=1 n=f6 v=60
104635 On ch=1 n=f6 v=0
104640 On ch=1 n=e6 v=60
104795 On ch=1 n=e6 v=0
104800 On ch=1 n=f6 v=60
104955 On ch=1 n=f6 v=0
104960 On ch=1 n=c6 v=60
105115 On ch=1 n=c6 v=0
105120 Par ch=1 c=64 v=0
105120 On ch=1 n=c#6 v=60
105275 On ch=1 n=c#6 v=0
105280 On ch=1 n=d#6 v=60
105435 On ch=1 n=d#6 v=0
105440 On ch=1 n=c#6 v=60
105595 On ch=1 n=c#6 v=0
105600 On ch=1 n=c6 v=60
105755 On ch=1 n=c6 v=0
105760 On ch=1 n=c#6 v=60
105915 On ch=1 n=c#6 v=0
105920 On ch=1 n=b5 v=60
106075 On ch=1 n=b5 v=0
106080 Par ch=1 c=64 v=127
106080 On ch=1 n=c6 v=45
106235 On ch=1 n=c6 v=0
106240 On ch=1 n=c#6 v=45
106395 On ch=1 n=c#6 v=0
106400 On ch=1 n=c6 v=45
106555 On ch=1 n=c6 v=0
106560 On ch=1 n=b5 v=45
106715 On ch=1 n=b5 v=0
106720 On ch=1 n=c6 v=45
106875 On ch=1 n=c6 v=0
106880 On ch=1 n=g5 v=45
107035 On ch=1 n=g5 v=0
107040 Par ch=1 c=64 v=0
107040 On ch=1 n=g#5 v=45
107195 On ch=1 n=g#5 v=0
107200 On ch=1 n=a#5 v=45
107355 On ch=1 n=a#5 v=0
107360 On ch=1 n=g#5 v=45
107515 On ch=1 n=g#5 v=0
107520 On ch=1 n=g5 v=45
107675 On ch=1 n=g5 v=0
107680 On ch=1 n=g#5 v=45
107835 On ch=1 n=g#5 v=0
107840 On ch=1 n=f5 v=45
107995 On ch=1 n=f5 v=0
108000 Par ch=1 c=64 v=127
108000 On ch=1 n=e5 v=60
108160 On ch=1 n=e5 v=0
108160 On ch=1 n=g5 v=60
108320 On ch=1 n=g5 v=0
108320 On ch=1 n=a#5 v=60
108480 On ch=1 n=a#5 v=0
108480 On ch=1 n=c#6 v=60
108640 On ch=1 n=c#6 v=0
108640 On ch=1 n=e6 v=60
108800 On ch=1 n=e6 v=0
108800 On ch=1 n=g6 v=60
108960 On ch=1 n=g6 v=0
108960 Par ch=1 c=64 v=0
108960 On ch=1 n=a#6 v=75
109065 On ch=1 n=a#6 v=0
109120 On ch=1 n=c#7 v=75
109232 On ch=1 n=c#7 v=0
109280 On ch=1 n=c7 v=75
109392 On ch=1 n=c7 v=0
109440 On ch=1 n=a#6 v=75
109552 On ch=1 n=a#6 v=0
109600 On ch=1 n=g#6 v=75
109712 On ch=1 n=g#6 v=0
109760 On ch=1 n=g6 v=75
109865 On ch=1 n=g6 v=0
109920 Par ch=1 c=64 v=127
109920 On ch=1 n=a#6 v=60
110075 On ch=1 n=a#6 v=0
110080 On ch=1 n=c7 v=60
110235 On ch=1 n=c7 v=0
110240 On ch=1 n=g#6 v=60
110395 On ch=1 n=g#6 v=0
110400 On ch=1 n=g6 v=60
110555 On ch=1 n=g6 v=0
110560 On ch=1 n=g#6 v=60
110715 On ch=1 n=g#6 v=0
110720 On ch=1 n=f6 v=60
110875 On ch=1 n=f6 v=0
110880 Par ch=1 c=64 v=0
110880 On ch=1 n=e6 v=60
111035 On ch=1 n=e6 v=0
111040 On ch=1 n=g6 v=60
111195 On ch=1 n=g6 v=0
111200 On ch=1 n=f6 v=60
111355 On ch=1 n=f6 v=0
111360 On ch=1 n=e6 v=60
111515 On ch=1 n=e6 v=0
111520 On ch=1 n=f6 v=60
111675 On ch=1 n=f6 v=0
111680 On ch=1 n=c#6 v=60
111835 On ch=1 n=c#6 v=0
111840 Par ch=1 c=64 v=127
111840 On ch=1 n=c6 v=45
111995 On ch=1 n=c6 v=0
112000 On ch=1 n=c#6 v=45
112155 On ch=1 n=c#6 v=0
112160 On ch=1 n=b5 v=45
112315 On ch=1 n=b5 v=0
112320 On ch=1 n=c6 v=45
112475 On ch=1 n=c6 v=0
112480 On ch=1 n=d#6 v=45
112635 On ch=1 n=d#6 v=0
112640 On ch=1 n=c#6 v=45
112795 On ch=1 n=c#6 v=0
112800 Par ch=1 c=64 v=0
112800 On ch=1 n=c6 v=45
112955 On ch=1 n=c6 v=0
112960 On ch=1 n=c#6 v=45
113115 On ch=1 n=c#6 v=0
113120 On ch=1 n=b5 v=45
113275 On ch=1 n=b5 v=0
113280 On ch=1 n=c6 v=45
113435 On ch=1 n=c6 v=0
113440 On ch=1 n=f#6 v=45
113595 On ch=1 n=f#6 v=0
113600 On ch=1 n=g6 v=45
113755 On ch=1 n=g6 v=0
113760 Par ch=1 c=64 v=127
113760 On ch=1 n=c6 v=45
113915 On ch=1 n=c6 v=0
113920 On ch=1 n=c#6 v=45
114075 On ch=1 n=c#6 v=0
114080 On ch=1 n=b5 v=45
114235 On ch=1 n=b5 v=0
114240 On ch=1 n=c6 v=45
114395 On ch=1 n=c6 v=0
114400 On ch=1 n=d#6 v=45
114555 On ch=1 n=d#6 v=0
114560 On ch=1 n=c#6 v=45
114715 On ch=1 n=c#6 v=0
114720 Par ch=1 c=64 v=0
114720 On ch=1 n=c6 v=45
114875 On ch=1 n=c6 v=0
114880 On ch=1 n=c#6 v=45
115035 On ch=1 n=c#6 v=0
115040 On ch=1 n=b5 v=45
115195 On ch=1 n=b5 v=0
115200 On ch=1 n=c6 v=45
115355 On ch=1 n=c6 v=0
115360 On ch=1 n=g#6 v=45
115515 On ch=1 n=g#6 v=0
115520 On ch=1 n=f6 v=45
115675 On ch=1 n=f6 v=0
115680 Par ch=1 c=64 v=127
115680 On ch=1 n=e6 v=45
115835 On ch=1 n=e6 v=0
115840 On ch=1 n=f6 v=45
115995 On ch=1 n=f6 v=0
116000 On ch=1 n=e6 v=45
116155 On ch=1 n=e6 v=0
116160 On ch=1 n=d#6 v=45
116315 On ch=1 n=d#6 v=0
116320 On ch=1 n=e6 v=45
116475 On ch=1 n=e6 v=0
116480 On ch=1 n=g6 v=45
116635 On ch=1 n=g6 v=0
116640 On ch=1 n=a#6 v=60
116795 On ch=1 n=a#6 v=0
116800 On ch=1 n=c7 v=60
116955 On ch=1 n=c7 v=0
116960 On ch=1 n=a#6 v=60
117115 On ch=1 n=a#6 v=0
117120 On ch=1 n=a6 v=60
117275 On ch=1 n=a6 v=0
117280 On ch=1 n=a#6 v=60
117435 On ch=1 n=a#6 v=0
117440 On ch=1 n=c#7 v=60
117595 On ch=1 n=c#7 v=0
117600 Par ch=1 c=64 v=127
117600 On ch=1 n=c7 v=75
117755 On ch=1 n=c7 v=0
117760 On ch=1 n=g#7 v=75
117915 On ch=1 n=g#7 v=0
117920 On ch=1 n=g7 v=75
118075 On ch=1 n=g7 v=0
118080 On ch=1 n=f#7 v=75
118235 On ch=1 n=f#7 v=0
118240 On ch=1 n=f7 v=75
118395 On ch=1 n=f7 v=0
118400 On ch=1 n=e7 v=75
118555 On ch=1 n=e7 v=0
118560 On ch=1 n=d#7 v=60
118715 On ch=1 n=d#7 v=0
118720 On ch=1 n=d7 v=60
118875 On ch=1 n=d7 v=0
118880 On ch=1 n=c#7 v=60
119035 On ch=1 n=c#7 v=0
119040 On ch=1 n=c7 v=60
119195 On ch=1 n=c7 v=0
119200 On ch=1 n=b6 v=60
119355 On ch=1 n=b6 v=0
119360 On ch=1 n=a#6 v=60
119515 On ch=1 n=a#6 v=0
119520 Par ch=1 c=64 v=127
119520 On ch=1 n=g#6 v=45
119675 On ch=1 n=g#6 v=0
119680 On ch=1 n=g#6 v=45
119835 On ch=1 n=g#6 v=0
119840 On ch=1 n=g6 v=45
119995 On ch=1 n=g6 v=0
120000 On ch=1 n=f7 v=75
120155 On ch=1 n=f7 v=0
120160 On ch=1 n=c#7 v=75
120315 On ch=1 n=c#7 v=0
120320 On ch=1 n=a#6 v=75
120475 On ch=1 n=a#6 v=0
120480 On ch=1 n=g6 v=75
120635 On ch=1 n=g6 v=0
120640 On ch=1 n=f6 v=75
120795 On ch=1 n=f6 v=0
120800 On ch=1 n=c#6 v=75
120955 On ch=1 n=c#6 v=0
120960 On ch=1 n=a#5 v=60
121115 On ch=1 n=a#5 v=0
121120 On ch=1 n=g5 v=60
121275 On ch=1 n=g5 v=0
121280 On ch=1 n=c#6 v=60
121435 On ch=1 n=c#6 v=0
121440 Par ch=1 c=64 v=127
121440 On ch=1 n=c6 v=60
121595 On ch=1 n=c6 v=0
121600 On ch=1 n=c#6 v=60
121755 On ch=1 n=c#6 v=0
121760 On ch=1 n=b5 v=60
121915 On ch=1 n=b5 v=0
121920 On ch=1 n=c6 v=60
122075 On ch=1 n=c6 v=0
122080 On ch=1 n=g#5 v=60
122235 On ch=1 n=g#5 v=0
122240 On ch=1 n=a#5 v=60
122395 On ch=1 n=a#5 v=0
122400 Par ch=1 c=64 v=0
122400 On ch=1 n=c6 v=60
122555 On ch=1 n=c6 v=0
122560 On ch=1 n=c#6 v=60
122715 On ch=1 n=c#6 v=0
122720 On ch=1 n=c6 v=60
122875 On ch=1 n=c6 v=0
122880 On ch=1 n=c#6 v=60
123035 On ch=1 n=c#6 v=0
123040 On ch=1 n=f6 v=60
123195 On ch=1 n=f6 v=0
123200 On ch=1 n=d#6 v=60
123355 On ch=1 n=d#6 v=0
123360 Par ch=1 c=64 v=127
123360 On ch=1 n=c6 v=60
123515 On ch=1 n=c6 v=0
123520 On ch=1 n=c#6 v=60
123675 On ch=1 n=c#6 v=0
123680 On ch=1 n=a#5 v=60
123835 On ch=1 n=a#5 v=0
123840 On ch=1 n=c6 v=60
123995 On ch=1 n=c6 v=0
124000 On ch=1 n=d#6 v=60
124155 On ch=1 n=d#6 v=0
124160 On ch=1 n=c#6 v=60
124315 On ch=1 n=c#6 v=0
124320 Par ch=1 c=64 v=0
124320 On ch=1 n=a#5 v=60
124475 On ch=1 n=a#5 v=0
124480 On ch=1 n=c6 v=60
124635 On ch=1 n=c6 v=0
124640 On ch=1 n=g#5 v=60
124795 On ch=1 n=g#5 v=0
124800 On ch=1 n=a#5 v=60
124955 On ch=1 n=a#5 v=0
124960 On ch=1 n=c#6 v=60
125115 On ch=1 n=c#6 v=0
125120 On ch=1 n=c6 v=60
125275 On ch=1 n=c6 v=0
125280 Par ch=1 c=64 v=127
125280 On ch=1 n=f5 v=60
125435 On ch=1 n=f5 v=0
125440 On ch=1 n=c7 v=60
125595 On ch=1 n=c7 v=0
125600 On ch=1 n=a#6 v=60
125755 On ch=1 n=a#6 v=0
125760 On ch=1 n=g#6 v=60
125915 On ch=1 n=g#6 v=0
125920 On ch=1 n=g6 v=60
126075 On ch=1 n=g6 v=0
126080 On ch=1 n=f6 v=60
126235 On ch=1 n=f6 v=0
126240 Par ch=1 c=64 v=0
126240 On ch=1 n=d#6 v=60
126395 On ch=1 n=d#6 v=0
126400 On ch=1 n=c#6 v=60
126555 On ch=1 n=c#6 v=0
126560 On ch=1 n=c6 v=60
126715 On ch=1 n=c6 v=0
126720 On ch=1 n=a#5 v=60
126875 On ch=1 n=a#5 v=0
126880 On ch=1 n=c6 v=60
127035 On ch=1 n=c6 v=0
127040 On ch=1 n=c#6 v=60
127195 On ch=1 n=c#6 v=0
127200 Par ch=1 c=64 v=127
127200 On ch=1 n=c6 v=60
127355 On ch=1 n=c6 v=0
127360 On ch=1 n=c7 v=60
127515 On ch=1 n=c7 v=0
127520 On ch=1 n=a#6 v=60
127675 On ch=1 n=a#6 v=0
127680 On ch=1 n=g#6 v=60
127835 On ch=1 n=g#6 v=0
127840 On ch=1 n=g6 v=60
127995 On ch=1 n=g6 v=0
128000 On ch=1 n=f6 v=60
128155 On ch=1 n=f6 v=0
128160 Par ch=1 c=64 v=0
128160 On ch=1 n=d#6 v=45
128315 On ch=1 n=d#6 v=0
128320 On ch=1 n=c#6 v=45
128475 On ch=1 n=c#6 v=0
128480 On ch=1 n=c6 v=45
128635 On ch=1 n=c6 v=0
128640 On ch=1 n=a#5 v=45
128795 On ch=1 n=a#5 v=0
128800 On ch=1 n=c6 v=45
128955 On ch=1 n=c6 v=0
128960 On ch=1 n=d#6 v=45
129015 On ch=1 n=d#6 v=0
129020 On ch=1 n=c#6 v=45
129115 On ch=1 n=c#6 v=0
129120 On ch=1 n=f5 v=45
129120 On ch=1 n=g#5 v=45
129120 On ch=1 n=c6 v=45
129960 On ch=1 n=c6 v=0
130080 On ch=1 n=c6 v=45
130480 On ch=1 n=c6 v=0
130560 On ch=1 n=c6 v=45
130960 On ch=1 n=c6 v=0
131040 On ch=1 n=c6 v=45
132840 On ch=1 n=c6 v=0
132840 On ch=1 n=g#5 v=0
132840 On ch=1 n=f5 v=0
132840 Meta TrkEnd
TrkEnd
MTrk
0 SeqSpec 43 00 01 00
0 Meta TrkName "Left Hand"
0 Meta 0x21 00
0 PrCh ch=2 p=0
0 Par ch=2 c=7 v=127
0 Par ch=2 c=10 v=64
480 On ch=2 n=e4 v=60
795 On ch=2 n=e4 v=0
800 On ch=2 n=g5 v=60
1115 On ch=2 n=g5 v=0
1120 On ch=2 n=c5 v=60
1435 On ch=2 n=c5 v=0
1440 On ch=2 n=a#4 v=60
1755 On ch=2 n=a#4 v=0
1760 On ch=2 n=g5 v=60
2075 On ch=2 n=g5 v=0
2080 On ch=2 n=c5 v=60
2395 On ch=2 n=c5 v=0
2400 On ch=2 n=f4 v=60
2715 On ch=2 n=f4 v=0
2720 On ch=2 n=g#5 v=60
3035 On ch=2 n=g#5 v=0
3040 On ch=2 n=c5 v=60
3355 On ch=2 n=c5 v=0
3360 On ch=2 n=g#4 v=60
3675 On ch=2 n=g#4 v=0
3680 On ch=2 n=g#5 v=60
3995 On ch=2 n=g#5 v=0
4000 On ch=2 n=c5 v=60
4315 On ch=2 n=c5 v=0
4320 On ch=2 n=g4 v=75
4635 On ch=2 n=g4 v=0
4640 On ch=2 n=a#5 v=75
4955 On ch=2 n=a#5 v=0
4960 On ch=2 n=e5 v=75
5275 On ch=2 n=e5 v=0
5280 On ch=2 n=c#5 v=92
5595 On ch=2 n=c#5 v=0
5600 On ch=2 n=a#5 v=92
5915 On ch=2 n=a#5 v=0
5920 On ch=2 n=e5 v=92
6235 On ch=2 n=e5 v=0
6240 On ch=2 n=g#4 v=92
6555 On ch=2 n=g#4 v=0
6560 On ch=2 n=g#5 v=92
6875 On ch=2 n=g#5 v=0
6880 On ch=2 n=f5 v=92
7195 On ch=2 n=f5 v=0
7200 On ch=2 n=c5 v=75
7515 On ch=2 n=c5 v=0
7520 On ch=2 n=g#5 v=75
7835 On ch=2 n=g#5 v=0
7840 On ch=2 n=f5 v=75
8155 On ch=2 n=f5 v=0
8160 On ch=2 n=a#3 v=75
8475 On ch=2 n=a#3 v=0
8480 On ch=2 n=c#5 v=75
8795 On ch=2 n=c#5 v=0
8800 On ch=2 n=g4 v=75
9115 On ch=2 n=g4 v=0
9120 On ch=2 n=f4 v=75
9435 On ch=2 n=f4 v=0
9440 On ch=2 n=c#5 v=75
9755 On ch=2 n=c#5 v=0
9760 On ch=2 n=g4 v=75
10075 On ch=2 n=g4 v=0
10080 On ch=2 n=c4 v=60
10395 On ch=2 n=c4 v=0
10400 On ch=2 n=c5 v=60
10715 On ch=2 n=c5 v=0
10720 On ch=2 n=g#4 v=60
11035 On ch=2 n=g#4 v=0
11040 On ch=2 n=f4 v=60
11355 On ch=2 n=f4 v=0
11360 On ch=2 n=c5 v=60
11675 On ch=2 n=c5 v=0
11680 On ch=2 n=g#4 v=60
11995 On ch=2 n=g#4 v=0
12000 Par ch=2 c=64 v=127
12000 On ch=2 n=c4 v=60
12315 On ch=2 n=c4 v=0
12320 On ch=2 n=e5 v=60
12635 On ch=2 n=e5 v=0
12640 On ch=2 n=a#4 v=60
12955 On ch=2 n=a#4 v=0
12960 Par ch=2 c=64 v=0
12960 On ch=2 n=g4 v=75
13275 On ch=2 n=g4 v=0
13280 On ch=2 n=e5 v=75
13595 On ch=2 n=e5 v=0
13600 On ch=2 n=a#4 v=75
13915 On ch=2 n=a#4 v=0
13920 On ch=2 n=f4 v=92
14235 On ch=2 n=f4 v=0
14240 On ch=2 n=f5 v=92
14555 On ch=2 n=f5 v=0
14560 On ch=2 n=c5 v=92
14875 On ch=2 n=c5 v=0
14880 On ch=2 n=g#4 v=75
15195 On ch=2 n=g#4 v=0
15200 On ch=2 n=f5 v=75
15515 On ch=2 n=f5 v=0
15520 On ch=2 n=c#5 v=75
15835 On ch=2 n=c#5 v=0
15840 On ch=2 n=e4 v=60
16155 On ch=2 n=e4 v=0
16160 On ch=2 n=g5 v=60
16475 On ch=2 n=g5 v=0
16480 On ch=2 n=c5 v=60
16795 On ch=2 n=c5 v=0
16800 On ch=2 n=a#4 v=60
17115 On ch=2 n=a#4 v=0
17120 On ch=2 n=g5 v=60
17435 On ch=2 n=g5 v=0
17440 On ch=2 n=c5 v=60
17755 On ch=2 n=c5 v=0
17760 On ch=2 n=f4 v=60
18075 On ch=2 n=f4 v=0
18080 On ch=2 n=g#5 v=60
18395 On ch=2 n=g#5 v=0
18400 On ch=2 n=c5 v=60
18715 On ch=2 n=c5 v=0
18720 On ch=2 n=g#4 v=60
19035 On ch=2 n=g#4 v=0
19040 On ch=2 n=g#5 v=60
19355 On ch=2 n=g#5 v=0
19360 On ch=2 n=c5 v=60
19675 On ch=2 n=c5 v=0
19680 Par ch=2 c=64 v=127
19680 On ch=2 n=g4 v=60
19995 On ch=2 n=g4 v=0
20000 On ch=2 n=a#5 v=60
20315 On ch=2 n=a#5 v=0
20320 On ch=2 n=d#5 v=60
20635 On ch=2 n=d#5 v=0
20640 Par ch=2 c=64 v=0
20640 On ch=2 n=c#5 v=75
20955 On ch=2 n=c#5 v=0
20960 On ch=2 n=a#5 v=75
21275 On ch=2 n=a#5 v=0
21280 On ch=2 n=d#5 v=75
21595 On ch=2 n=d#5 v=0
21600 Par ch=2 c=64 v=127
21600 On ch=2 n=g#4 v=92
21915 On ch=2 n=g#4 v=0
21920 On ch=2 n=g#5 v=92
22235 On ch=2 n=g#5 v=0
22240 On ch=2 n=d#5 v=92
22555 On ch=2 n=d#5 v=0
22560 Par ch=2 c=64 v=0
22560 On ch=2 n=c5 v=75
22875 On ch=2 n=c5 v=0
22880 On ch=2 n=g#5 v=75
23195 On ch=2 n=g#5 v=0
23200 On ch=2 n=d#5 v=75
23515 On ch=2 n=d#5 v=0
23520 Par ch=2 c=64 v=127
23520 On ch=2 n=c#4 v=75
23835 On ch=2 n=c#4 v=0
23840 On ch=2 n=f5 v=75
24155 On ch=2 n=f5 v=0
24160 On ch=2 n=a#4 v=75
24475 On ch=2 n=a#4 v=0
24480 Par ch=2 c=64 v=0
24480 On ch=2 n=g#4 v=75
24795 On ch=2 n=g#4 v=0
24800 On ch=2 n=f5 v=75
25115 On ch=2 n=f5 v=0
25120 On ch=2 n=a#4 v=75
25435 On ch=2 n=a#4 v=0
25440 On ch=2 n=d#4 v=60
25755 On ch=2 n=d#4 v=0
25760 On ch=2 n=d#5 v=60
26075 On ch=2 n=d#5 v=0
26080 On ch=2 n=c5 v=60
26395 On ch=2 n=c5 v=0
26400 On ch=2 n=g#4 v=60
26715 On ch=2 n=g#4 v=0
26720 On ch=2 n=d#5 v=60
27035 On ch=2 n=d#5 v=0
27040 On ch=2 n=c5 v=60
27355 On ch=2 n=c5 v=0
27360 Par ch=2 c=64 v=127
27360 On ch=2 n=d#4 v=75
27675 On ch=2 n=d#4 v=0
27680 On ch=2 n=d#5 v=75
27995 On ch=2 n=d#5 v=0
28000 On ch=2 n=c#5 v=75
28315 On ch=2 n=c#5 v=0
28320 Par ch=2 c=64 v=0
28320 On ch=2 n=g4 v=75
28635 On ch=2 n=g4 v=0
28640 On ch=2 n=d#5 v=75
28955 On ch=2 n=d#5 v=0
28960 On ch=2 n=c#5 v=75
29275 On ch=2 n=c#5 v=0
29280 Par ch=2 c=64 v=127
29280 On ch=2 n=g#3 v=60
29595 On ch=2 n=g#3 v=0
29600 On ch=2 n=c5 v=60
29915 On ch=2 n=c5 v=0
29920 On ch=2 n=d#4 v=60
30235 On ch=2 n=d#4 v=0
30240 Par ch=2 c=64 v=0
30240 On ch=2 n=e4 v=60
30555 On ch=2 n=e4 v=0
30560 On ch=2 n=c#5 v=60
30875 On ch=2 n=c#5 v=0
30880 On ch=2 n=d#4 v=60
31195 On ch=2 n=d#4 v=0
31200 Par ch=2 c=64 v=127
31200 On ch=2 n=g#3 v=60
31515 On ch=2 n=g#3 v=0
31520 On ch=2 n=c5 v=60
31835 On ch=2 n=c5 v=0
31840 On ch=2 n=d#4 v=60
32155 On ch=2 n=d#4 v=0
32160 Par ch=2 c=64 v=0
32160 On ch=2 n=e4 v=75
32475 On ch=2 n=e4 v=0
32480 On ch=2 n=c#5 v=75
32795 On ch=2 n=c#5 v=0
32800 On ch=2 n=d#4 v=75
33115 On ch=2 n=d#4 v=0
33120 Par ch=2 c=64 v=127
33120 On ch=2 n=g#3 v=92
33435 On ch=2 n=g#3 v=0
33440 On ch=2 n=c5 v=92
33755 On ch=2 n=c5 v=0
33760 On ch=2 n=d#4 v=92
34075 On ch=2 n=d#4 v=0
34080 Par ch=2 c=64 v=127
34080 On ch=2 n=c4 v=92
34395 On ch=2 n=c4 v=0
34400 On ch=2 n=g4 v=92
34715 On ch=2 n=g4 v=0
34720 On ch=2 n=a#4 v=92
35035 On ch=2 n=a#4 v=0
35040 On ch=2 n=e5 v=92
35440 On ch=2 n=e5 v=0
35520 Par ch=2 c=64 v=0
36960 Par ch=2 c=64 v=127
36960 On ch=2 n=e4 v=60
37275 On ch=2 n=e4 v=0
37280 On ch=2 n=g5 v=60
37595 On ch=2 n=g5 v=0
37600 On ch=2 n=c5 v=60
37915 On ch=2 n=c5 v=0
37920 Par ch=2 c=64 v=0
37920 On ch=2 n=a#4 v=60
38235 On ch=2 n=a#4 v=0
38240 On ch=2 n=g5 v=60
38555 On ch=2 n=g5 v=0
38560 On ch=2 n=c5 v=60
38875 On ch=2 n=c5 v=0
38880 Par ch=2 c=64 v=127
38880 On ch=2 n=f4 v=60
39195 On ch=2 n=f4 v=0
39200 On ch=2 n=g#5 v=60
39515 On ch=2 n=g#5 v=0
39520 On ch=2 n=c5 v=60
39835 On ch=2 n=c5 v=0
39840 Par ch=2 c=64 v=0
39840 On ch=2 n=g#4 v=60
40155 On ch=2 n=g#4 v=0
40160 On ch=2 n=g#5 v=60
40475 On ch=2 n=g#5 v=0
40480 On ch=2 n=c5 v=60
40795 On ch=2 n=c5 v=0
40800 Par ch=2 c=64 v=127
40800 On ch=2 n=g4 v=75
41115 On ch=2 n=g4 v=0
41120 On ch=2 n=a#5 v=75
41435 On ch=2 n=a#5 v=0
41440 On ch=2 n=e5 v=75
41755 On ch=2 n=e5 v=0
41760 Par ch=2 c=64 v=0
41760 On ch=2 n=c#5 v=92
42075 On ch=2 n=c#5 v=0
42080 On ch=2 n=a#5 v=92
42395 On ch=2 n=a#5 v=0
42400 On ch=2 n=e5 v=92
42715 On ch=2 n=e5 v=0
42720 Par ch=2 c=64 v=127
42720 On ch=2 n=g#4 v=92
43035 On ch=2 n=g#4 v=0
43040 On ch=2 n=g#5 v=92
43355 On ch=2 n=g#5 v=0
43360 On ch=2 n=f5 v=92
43675 On ch=2 n=f5 v=0
43680 Par ch=2 c=64 v=0
43680 On ch=2 n=c5 v=75
43995 On ch=2 n=c5 v=0
44000 On ch=2 n=g#5 v=75
44315 On ch=2 n=g#5 v=0
44320 On ch=2 n=f5 v=75
44635 On ch=2 n=f5 v=0
44640 Par ch=2 c=64 v=127
44640 On ch=2 n=a#3 v=75
44955 On ch=2 n=a#3 v=0
44960 On ch=2 n=c#5 v=75
45275 On ch=2 n=c#5 v=0
45280 On ch=2 n=g4 v=75
45595 On ch=2 n=g4 v=0
45600 Par ch=2 c=64 v=0
45600 On ch=2 n=f4 v=75
45915 On ch=2 n=f4 v=0
45920 On ch=2 n=c#5 v=75
46235 On ch=2 n=c#5 v=0
46240 On ch=2 n=g4 v=75
46555 On ch=2 n=g4 v=0
46560 Par ch=2 c=64 v=127
46560 On ch=2 n=c4 v=60
46875 On ch=2 n=c4 v=0
46880 On ch=2 n=c5 v=60
47195 On ch=2 n=c5 v=0
47200 On ch=2 n=g#4 v=60
47515 On ch=2 n=g#4 v=0
47520 Par ch=2 c=64 v=0
47520 On ch=2 n=f4 v=60
47835 On ch=2 n=f4 v=0
47840 On ch=2 n=c5 v=60
48155 On ch=2 n=c5 v=0
48160 On ch=2 n=g#4 v=60
48475 On ch=2 n=g#4 v=0
48480 Par ch=2 c=64 v=127
48480 On ch=2 n=c4 v=60
48795 On ch=2 n=c4 v=0
48800 On ch=2 n=e5 v=60
49115 On ch=2 n=e5 v=0
49120 On ch=2 n=a#4 v=60
49435 On ch=2 n=a#4 v=0
49440 Par ch=2 c=64 v=0
49440 On ch=2 n=g4 v=75
49755 On ch=2 n=g4 v=0
49760 On ch=2 n=e5 v=75
50075 On ch=2 n=e5 v=0
50080 On ch=2 n=a#4 v=75
50395 On ch=2 n=a#4 v=0
50400 Par ch=2 c=64 v=127
50400 On ch=2 n=f4 v=92
50715 On ch=2 n=f4 v=0
50720 On ch=2 n=f5 v=92
51035 On ch=2 n=f5 v=0
51040 On ch=2 n=c5 v=92
51355 On ch=2 n=c5 v=0
51360 Par ch=2 c=64 v=0
51360 On ch=2 n=g#4 v=75
51675 On ch=2 n=g#4 v=0
51680 On ch=2 n=f5 v=75
51995 On ch=2 n=f5 v=0
52000 On ch=2 n=c#5 v=75
52315 On ch=2 n=c#5 v=0
52320 Par ch=2 c=64 v=127
52320 On ch=2 n=e4 v=60
52635 On ch=2 n=e4 v=0
52640 On ch=2 n=g5 v=60
52955 On ch=2 n=g5 v=0
52960 On ch=2 n=c5 v=60
53275 On ch=2 n=c5 v=0
53280 Par ch=2 c=64 v=0
53280 On ch=2 n=a#4 v=60
53595 On ch=2 n=a#4 v=0
53600 On ch=2 n=g5 v=60
53915 On ch=2 n=g5 v=0
53920 On ch=2 n=c5 v=60
54235 On ch=2 n=c5 v=0
54240 Par ch=2 c=64 v=127
54240 On ch=2 n=f4 v=60
54555 On ch=2 n=f4 v=0
54560 On ch=2 n=g#5 v=60
54875 On ch=2 n=g#5 v=0
54880 On ch=2 n=c5 v=60
55195 On ch=2 n=c5 v=0
55200 Par ch=2 c=64 v=0
55200 On ch=2 n=g#4 v=60
55515 On ch=2 n=g#4 v=0
55520 On ch=2 n=g#5 v=60
55835 On ch=2 n=g#5 v=0
55840 On ch=2 n=c5 v=60
56155 On ch=2 n=c5 v=0
56160 Par ch=2 c=64 v=127
56160 On ch=2 n=g4 v=60
56475 On ch=2 n=g4 v=0
56480 On ch=2 n=a#5 v=60
56795 On ch=2 n=a#5 v=0
56800 On ch=2 n=d#5 v=60
57115 On ch=2 n=d#5 v=0
57120 Par ch=2 c=64 v=0
57120 On ch=2 n=c#5 v=75
57435 On ch=2 n=c#5 v=0
57440 On ch=2 n=a#5 v=75
57755 On ch=2 n=a#5 v=0
57760 On ch=2 n=d#5 v=75
58075 On ch=2 n=d#5 v=0
58080 Par ch=2 c=64 v=127
58080 On ch=2 n=g#4 v=92
58395 On ch=2 n=g#4 v=0
58400 On ch=2 n=g#5 v=92
58715 On ch=2 n=g#5 v=0
58720 On ch=2 n=d#5 v=92
59035 On ch=2 n=d#5 v=0
59040 Par ch=2 c=64 v=0
59040 On ch=2 n=c5 v=75
59355 On ch=2 n=c5 v=0
59360 On ch=2 n=g#5 v=75
59675 On ch=2 n=g#5 v=0
59680 On ch=2 n=d#5 v=75
59995 On ch=2 n=d#5 v=0
60000 Par ch=2 c=64 v=127
60000 On ch=2 n=c#4 v=75
60315 On ch=2 n=c#4 v=0
60320 On ch=2 n=f5 v=75
60635 On ch=2 n=f5 v=0
60640 On ch=2 n=a#4 v=75
60955 On ch=2 n=a#4 v=0
60960 Par ch=2 c=64 v=0
60960 On ch=2 n=g#4 v=75
61275 On ch=2 n=g#4 v=0
61280 On ch=2 n=f5 v=75
61595 On ch=2 n=f5 v=0
61600 On ch=2 n=a#4 v=75
61915 On ch=2 n=a#4 v=0
61920 Par ch=2 c=64 v=127
61920 On ch=2 n=d#4 v=60
62235 On ch=2 n=d#4 v=0
62240 On ch=2 n=d#5 v=60
62555 On ch=2 n=d#5 v=0
62560 On ch=2 n=c5 v=60
62875 On ch=2 n=c5 v=0
62880 Par ch=2 c=64 v=0
62880 On ch=2 n=g#4 v=60
63195 On ch=2 n=g#4 v=0
63200 On ch=2 n=d#5 v=60
63515 On ch=2 n=d#5 v=0
63520 On ch=2 n=c5 v=60
63835 On ch=2 n=c5 v=0
63840 Par ch=2 c=64 v=127
63840 On ch=2 n=d#4 v=75
64155 On ch=2 n=d#4 v=0
64160 On ch=2 n=d#5 v=75
64475 On ch=2 n=d#5 v=0
64480 On ch=2 n=c#5 v=75
64795 On ch=2 n=c#5 v=0
64800 Par ch=2 c=64 v=0
64800 On ch=2 n=g4 v=75
65115 On ch=2 n=g4 v=0
65120 On ch=2 n=d#5 v=75
65435 On ch=2 n=d#5 v=0
65440 On ch=2 n=c#5 v=75
65755 On ch=2 n=c#5 v=0
65760 Par ch=2 c=64 v=127
65760 On ch=2 n=g#3 v=60
66075 On ch=2 n=g#3 v=0
66080 On ch=2 n=c5 v=60
66395 On ch=2 n=c5 v=0
66400 On ch=2 n=d#4 v=60
66715 On ch=2 n=d#4 v=0
66720 Par ch=2 c=64 v=0
66720 On ch=2 n=e4 v=60
67035 On ch=2 n=e4 v=0
67040 On ch=2 n=c#5 v=60
67355 On ch=2 n=c#5 v=0
67360 On ch=2 n=d#4 v=60
67675 On ch=2 n=d#4 v=0
67680 Par ch=2 c=64 v=127
67680 On ch=2 n=g#3 v=60
67995 On ch=2 n=g#3 v=0
68000 On ch=2 n=c5 v=60
68315 On ch=2 n=c5 v=0
68320 On ch=2 n=d#4 v=60
68635 On ch=2 n=d#4 v=0
68640 Par ch=2 c=64 v=0
68640 On ch=2 n=e4 v=75
68955 On ch=2 n=e4 v=0
68960 On ch=2 n=c#5 v=75
69275 On ch=2 n=c#5 v=0
69280 On ch=2 n=d#4 v=75
69595 On ch=2 n=d#4 v=0
69600 Par ch=2 c=64 v=127
69600 On ch=2 n=g#3 v=92
69915 On ch=2 n=g#3 v=0
69920 On ch=2 n=c5 v=92
70235 On ch=2 n=c5 v=0
70240 On ch=2 n=d#4 v=92
70555 On ch=2 n=d#4 v=0
70560 Par ch=2 c=64 v=127
70560 On ch=2 n=f#3 v=92
70875 On ch=2 n=f#3 v=0
70880 On ch=2 n=d#5 v=92
71195 On ch=2 n=d#5 v=0
71200 On ch=2 n=a#4 v=92
71515 On ch=2 n=a#4 v=0
71520 Par ch=2 c=64 v=127
71520 On ch=2 n=f#4 v=92
71835 On ch=2 n=f#4 v=0
71840 On ch=2 n=d#5 v=92
72155 On ch=2 n=d#5 v=0
72160 On ch=2 n=a#4 v=92
72475 On ch=2 n=a#4 v=0
72480 Par ch=2 c=64 v=0
72480 On ch=2 n=f4 v=75
72795 On ch=2 n=f4 v=0
72800 On ch=2 n=d#5 v=75
73115 On ch=2 n=d#5 v=0
73120 On ch=2 n=a4 v=75
73435 On ch=2 n=a4 v=0
73440 Par ch=2 c=64 v=127
73440 On ch=2 n=a#3 v=60
73755 On ch=2 n=a#3 v=0
73760 On ch=2 n=c#5 v=60
74075 On ch=2 n=c#5 v=0
74080 On ch=2 n=f4 v=60
74395 On ch=2 n=f4 v=0
74400 Par ch=2 c=64 v=0
74400 On ch=2 n=f#4 v=84
74715 On ch=2 n=f#4 v=0
74720 On ch=2 n=d#5 v=60
75035 On ch=2 n=d#5 v=0
75040 On ch=2 n=f4 v=60
75355 On ch=2 n=f4 v=0
75360 Par ch=2 c=64 v=127
75360 On ch=2 n=a#3 v=60
75675 On ch=2 n=a#3 v=0
75680 On ch=2 n=c#5 v=60
75995 On ch=2 n=c#5 v=0
76000 On ch=2 n=f4 v=60
76315 On ch=2 n=f4 v=0
76320 Par ch=2 c=64 v=0
76320 On ch=2 n=f#4 v=84
76635 On ch=2 n=f#4 v=0
76640 On ch=2 n=d#5 v=60
76955 On ch=2 n=d#5 v=0
76960 On ch=2 n=f4 v=60
77275 On ch=2 n=f4 v=0
77280 Par ch=2 c=64 v=127
77280 On ch=2 n=a#3 v=75
77595 On ch=2 n=a#3 v=0
77600 On ch=2 n=c#5 v=75
77915 On ch=2 n=c#5 v=0
77920 On ch=2 n=f4 v=75
78235 On ch=2 n=f4 v=0
78240 Par ch=2 c=64 v=127
78240 On ch=2 n=g#3 v=75
78555 On ch=2 n=g#3 v=0
78560 On ch=2 n=c5 v=75
78875 On ch=2 n=c5 v=0
78880 On ch=2 n=f4 v=75
79195 On ch=2 n=f4 v=0
79200 On ch=2 n=d4 v=75
79515 On ch=2 n=d4 v=0
79520 On ch=2 n=c5 v=75
79835 On ch=2 n=c5 v=0
79840 On ch=2 n=f4 v=75
80155 On ch=2 n=f4 v=0
80160 Par ch=2 c=64 v=127
80160 On ch=2 n=g3 v=75
80475 On ch=2 n=g3 v=0
80480 On ch=2 n=b4 v=75
80795 On ch=2 n=b4 v=0
80800 On ch=2 n=f4 v=75
81115 On ch=2 n=f4 v=0
81120 Par ch=2 c=64 v=127
81120 On ch=2 n=c4 v=92
81435 On ch=2 n=c4 v=0
81440 On ch=2 n=e5 v=92
81755 On ch=2 n=e5 v=0
81760 On ch=2 n=a#4 v=92
82075 On ch=2 n=a#4 v=0
82080 Par ch=2 c=64 v=127
82080 On ch=2 n=g#4 v=92
82395 On ch=2 n=g#4 v=0
82400 On ch=2 n=f5 v=92
82715 On ch=2 n=f5 v=0
82720 On ch=2 n=c5 v=92
83035 On ch=2 n=c5 v=0
83040 Par ch=2 c=64 v=127
83040 On ch=2 n=c4 v=92
83355 On ch=2 n=c4 v=0
83360 On ch=2 n=c#5 v=92
83675 On ch=2 n=c#5 v=0
83680 On ch=2 n=g#4 v=92
83995 On ch=2 n=g#4 v=0
84000 Par ch=2 c=64 v=0
84000 On ch=2 n=f4 v=75
84315 On ch=2 n=f4 v=0
84320 On ch=2 n=c#5 v=75
84635 On ch=2 n=c#5 v=0
84640 On ch=2 n=g#4 v=75
84955 On ch=2 n=g#4 v=0
84960 Par ch=2 c=64 v=127
84960 On ch=2 n=c4 v=60
85275 On ch=2 n=c4 v=0
85280 On ch=2 n=e5 v=60
85595 On ch=2 n=e5 v=0
85600 On ch=2 n=a#4 v=60
85915 On ch=2 n=a#4 v=0
85920 Par ch=2 c=64 v=127
85920 On ch=2 n=g#4 v=45
86235 On ch=2 n=g#4 v=0
86240 On ch=2 n=f5 v=45
86555 On ch=2 n=f5 v=0
86560 On ch=2 n=c5 v=45
86875 On ch=2 n=c5 v=0
86880 Par ch=2 c=64 v=127
86880 On ch=2 n=c4 v=45
87195 On ch=2 n=c4 v=0
87200 On ch=2 n=c#5 v=45
87515 On ch=2 n=c#5 v=0
87520 On ch=2 n=g#4 v=45
87835 On ch=2 n=g#4 v=0
87840 Par ch=2 c=64 v=0
87840 On ch=2 n=f4 v=45
88155 On ch=2 n=f4 v=0
88160 On ch=2 n=c#5 v=45
88475 On ch=2 n=c#5 v=0
88480 On ch=2 n=g#4 v=45
88795 On ch=2 n=g#4 v=0
88800 Par ch=2 c=64 v=127
88800 On ch=2 n=c4 v=60
89115 On ch=2 n=c4 v=0
89120 On ch=2 n=e5 v=60
89435 On ch=2 n=e5 v=0
89440 On ch=2 n=g4 v=60
89755 On ch=2 n=g4 v=0
89760 Par ch=2 c=64 v=0
89760 On ch=2 n=f4 v=60
90075 On ch=2 n=f4 v=0
90080 On ch=2 n=c#5 v=60
90395 On ch=2 n=c#5 v=0
90400 On ch=2 n=g#4 v=60
90715 On ch=2 n=g#4 v=0
90720 Par ch=2 c=64 v=127
90720 On ch=2 n=c4 v=60
91035 On ch=2 n=c4 v=0
91040 On ch=2 n=e5 v=60
91355 On ch=2 n=e5 v=0
91360 On ch=2 n=g4 v=60
91675 On ch=2 n=g4 v=0
91680 Par ch=2 c=64 v=0
91680 On ch=2 n=f4 v=45
91995 On ch=2 n=f4 v=0
92000 On ch=2 n=c#5 v=45
92315 On ch=2 n=c#5 v=0
92320 On ch=2 n=g#4 v=45
92635 On ch=2 n=g#4 v=0
92640 On ch=2 n=c4 v=45
92955 On ch=2 n=c4 v=0
92960 On ch=2 n=g4 v=45
93275 On ch=2 n=g4 v=0
93280 On ch=2 n=e5 v=45
93595 On ch=2 n=e5 v=0
96480 On ch=2 n=e4 v=45
96795 On ch=2 n=e4 v=0
96800 On ch=2 n=g5 v=45
97115 On ch=2 n=g5 v=0
97120 On ch=2 n=c5 v=45
97435 On ch=2 n=c5 v=0
97440 On ch=2 n=a#4 v=45
97755 On ch=2 n=a#4 v=0
97760 On ch=2 n=g5 v=45
98075 On ch=2 n=g5 v=0
98080 On ch=2 n=c5 v=45
98395 On ch=2 n=c5 v=0
98400 On ch=2 n=f4 v=45
98715 On ch=2 n=f4 v=0
98720 On ch=2 n=g#5 v=45
99035 On ch=2 n=g#5 v=0
99040 On ch=2 n=c5 v=45
99355 On ch=2 n=c5 v=0
99360 On ch=2 n=g#4 v=45
99675 On ch=2 n=g#4 v=0
99680 On ch=2 n=g#5 v=45
99995 On ch=2 n=g#5 v=0
100000 On ch=2 n=c5 v=45
100315 On ch=2 n=c5 v=0
100320 Par ch=2 c=64 v=127
100320 On ch=2 n=g4 v=45
100635 On ch=2 n=g4 v=0
100640 On ch=2 n=a#5 v=45
100955 On ch=2 n=a#5 v=0
100960 On ch=2 n=e5 v=45
101275 On ch=2 n=e5 v=0
101280 Par ch=2 c=64 v=0
101280 On ch=2 n=c#5 v=60
101595 On ch=2 n=c#5 v=0
101600 On ch=2 n=a#5 v=60
101915 On ch=2 n=a#5 v=0
101920 On ch=2 n=e5 v=60
102235 On ch=2 n=e5 v=0
102240 Par ch=2 c=64 v=127
102240 On ch=2 n=g#4 v=75
102555 On ch=2 n=g#4 v=0
102560 On ch=2 n=g#5 v=75
102875 On ch=2 n=g#5 v=0
102880 On ch=2 n=f5 v=75
103195 On ch=2 n=f5 v=0
103200 Par ch=2 c=64 v=0
103200 On ch=2 n=c5 v=75
103515 On ch=2 n=c5 v=0
103520 On ch=2 n=g#5 v=75
103835 On ch=2 n=g#5 v=0
103840 On ch=2 n=f5 v=75
104155 On ch=2 n=f5 v=0
104160 Par ch=2 c=64 v=127
104160 On ch=2 n=a#3 v=60
104475 On ch=2 n=a#3 v=0
104480 On ch=2 n=c#5 v=60
104795 On ch=2 n=c#5 v=0
104800 On ch=2 n=g4 v=60
105115 On ch=2 n=g4 v=0
105120 Par ch=2 c=64 v=0
105120 On ch=2 n=f4 v=60
105435 On ch=2 n=f4 v=0
105440 On ch=2 n=c#5 v=60
105755 On ch=2 n=c#5 v=0
105760 On ch=2 n=g4 v=60
106075 On ch=2 n=g4 v=0
106080 Par ch=2 c=64 v=127
106080 On ch=2 n=c4 v=45
106395 On ch=2 n=c4 v=0
106400 On ch=2 n=c5 v=45
106715 On ch=2 n=c5 v=0
106720 On ch=2 n=g#4 v=45
107035 On ch=2 n=g#4 v=0
107040 Par ch=2 c=64 v=0
107040 On ch=2 n=f4 v=45
107355 On ch=2 n=f4 v=0
107360 On ch=2 n=c5 v=45
107675 On ch=2 n=c5 v=0
107680 On ch=2 n=g#4 v=45
107995 On ch=2 n=g#4 v=0
108000 Par ch=2 c=64 v=127
108000 On ch=2 n=c4 v=60
108315 On ch=2 n=c4 v=0
108320 On ch=2 n=e5 v=60
108635 On ch=2 n=e5 v=0
108640 On ch=2 n=a#4 v=60
108955 On ch=2 n=a#4 v=0
108960 Par ch=2 c=64 v=0
108960 On ch=2 n=g4 v=75
109275 On ch=2 n=g4 v=0
109280 On ch=2 n=e5 v=75
109595 On ch=2 n=e5 v=0
109600 On ch=2 n=a#4 v=75
109915 On ch=2 n=a#4 v=0
109920 Par ch=2 c=64 v=127
109920 On ch=2 n=f4 v=60
110235 On ch=2 n=f4 v=0
110240 On ch=2 n=f5 v=60
110555 On ch=2 n=f5 v=0
110560 On ch=2 n=c5 v=60
110875 On ch=2 n=c5 v=0
110880 Par ch=2 c=64 v=0
110880 On ch=2 n=g#4 v=60
111195 On ch=2 n=g#4 v=0
111200 On ch=2 n=f5 v=60
111515 On ch=2 n=f5 v=0
111520 On ch=2 n=c#5 v=60
111835 On ch=2 n=c#5 v=0
111840 Par ch=2 c=64 v=127
111840 On ch=2 n=e4 v=45
112155 On ch=2 n=e4 v=0
112160 On ch=2 n=g5 v=45
112475 On ch=2 n=g5 v=0
112480 On ch=2 n=c5 v=45
112795 On ch=2 n=c5 v=0
112800 Par ch=2 c=64 v=0
112800 On ch=2 n=a#4 v=45
113115 On ch=2 n=a#4 v=0
113120 On ch=2 n=g5 v=45
113435 On ch=2 n=g5 v=0
113440 On ch=2 n=c5 v=45
113755 On ch=2 n=c5 v=0
113760 Par ch=2 c=64 v=127
113760 On ch=2 n=f4 v=45
114075 On ch=2 n=f4 v=0
114080 On ch=2 n=g#5 v=45
114395 On ch=2 n=g#5 v=0
114400 On ch=2 n=c5 v=45
114715 On ch=2 n=c5 v=0
114720 Par ch=2 c=64 v=0
114720 On ch=2 n=g#4 v=45
115035 On ch=2 n=g#4 v=0
115040 On ch=2 n=g#5 v=45
115355 On ch=2 n=g#5 v=0
115360 On ch=2 n=c5 v=45
115675 On ch=2 n=c5 v=0
115680 Par ch=2 c=64 v=127
115680 On ch=2 n=g4 v=45
115995 On ch=2 n=g4 v=0
116000 On ch=2 n=a#5 v=45
116315 On ch=2 n=a#5 v=0
116320 On ch=2 n=e5 v=45
116635 On ch=2 n=e5 v=0
116640 On ch=2 n=c#5 v=60
116955 On ch=2 n=c#5 v=0
116960 On ch=2 n=a#5 v=60
117275 On ch=2 n=a#5 v=0
117280 On ch=2 n=e5 v=60
117595 On ch=2 n=e5 v=0
117600 Par ch=2 c=64 v=127
117600 On ch=2 n=g#4 v=75
117915 On ch=2 n=g#4 v=0
117920 On ch=2 n=g#5 v=75
118235 On ch=2 n=g#5 v=0
118240 On ch=2 n=f5 v=75
118555 On ch=2 n=f5 v=0
118560 On ch=2 n=c5 v=60
118875 On ch=2 n=c5 v=0
118880 On ch=2 n=g#5 v=60
119195 On ch=2 n=g#5 v=0
119200 On ch=2 n=f5 v=60
119515 On ch=2 n=f5 v=0
119520 Par ch=2 c=64 v=127
119520 On ch=2 n=a#3 v=45
119835 On ch=2 n=a#3 v=0
119840 On ch=2 n=c#5 v=45
120155 On ch=2 n=c#5 v=0
120160 On ch=2 n=g4 v=45
120475 On ch=2 n=g4 v=0
120480 On ch=2 n=f4 v=75
120795 On ch=2 n=f4 v=0
120800 On ch=2 n=c#5 v=75
121115 On ch=2 n=c#5 v=0
121120 On ch=2 n=g4 v=75
121435 On ch=2 n=g4 v=0
121440 Par ch=2 c=64 v=127
121440 On ch=2 n=c4 v=60
121755 On ch=2 n=c4 v=0
121760 On ch=2 n=f5 v=60
122075 On ch=2 n=f5 v=0
122080 On ch=2 n=c5 v=60
122395 On ch=2 n=c5 v=0
122400 Par ch=2 c=64 v=0
122400 On ch=2 n=g#4 v=60
122715 On ch=2 n=g#4 v=0
122720 On ch=2 n=f5 v=60
123035 On ch=2 n=f5 v=0
123040 On ch=2 n=c#5 v=60
123355 On ch=2 n=c#5 v=0
123360 Par ch=2 c=64 v=127
123360 On ch=2 n=c4 v=60
123675 On ch=2 n=c4 v=0
123680 On ch=2 n=d#5 v=60
123995 On ch=2 n=d#5 v=0
124000 On ch=2 n=g4 v=60
124315 On ch=2 n=g4 v=0
124320 Par ch=2 c=64 v=0
124320 On ch=2 n=f4 v=60
124635 On ch=2 n=f4 v=0
124640 On ch=2 n=c#5 v=60
124955 On ch=2 n=c#5 v=0
124960 On ch=2 n=e4 v=60
125275 On ch=2 n=e4 v=0
125280 Par ch=2 c=64 v=127
125280 On ch=2 n=f4 v=60
125595 On ch=2 n=f4 v=0
125600 On ch=2 n=g#5 v=60
125915 On ch=2 n=g#5 v=0
125920 On ch=2 n=c5 v=60
126235 On ch=2 n=c5 v=0
126240 Par ch=2 c=64 v=0
126240 On ch=2 n=a#4 v=60
126555 On ch=2 n=a#4 v=0
126560 On ch=2 n=g5 v=60
126875 On ch=2 n=g5 v=0
126880 On ch=2 n=c#5 v=60
127195 On ch=2 n=c#5 v=0
127200 Par ch=2 c=64 v=127
127200 On ch=2 n=f4 v=60
127515 On ch=2 n=f4 v=0
127520 On ch=2 n=g#5 v=60
127835 On ch=2 n=g#5 v=0
127840 On ch=2 n=c5 v=60
128155 On ch=2 n=c5 v=0
128160 Par ch=2 c=64 v=0
128160 On ch=2 n=a#4 v=45
128475 On ch=2 n=a#4 v=0
128480 On ch=2 n=g5 v=45
128795 On ch=2 n=g5 v=0
128800 On ch=2 n=c#5 v=45
129115 On ch=2 n=c#5 v=0
129120 On ch=2 n=f4 v=45
129180 On ch=2 n=c5 v=45
132840 On ch=2 n=c5 v=0
132840 On ch=2 n=f4 v=0
132840 Meta TrkEnd
TrkEnd
