MFile 0 1 480
MTrk
0 SMPTE 96 0 0 0 0
0 TimeSig 4/4 24 8
0 KeySig 0 major
0 Tempo 500000
0 Par ch=1 c=64 v=127
0 On ch=1 n=g4 v=52
2 On ch=1 n=g2 v=43
8 On ch=1 n=g3 v=27
50 Off ch=1 n=g4 v=64
62 Off ch=1 n=g2 v=64
78 Off ch=1 n=g3 v=64
294 On ch=1 n=d5 v=48
298 On ch=1 n=a#4 v=50
306 On ch=1 n=d4 v=51
308 On ch=1 n=g4 v=30
344 Off ch=1 n=d5 v=64
358 Off ch=1 n=a#4 v=64
361 Off ch=1 n=d4 v=64
390 Off ch=1 n=g4 v=64
430 On ch=1 n=d4 v=74
438 On ch=1 n=g4 v=5
440 On ch=1 n=a#4 v=29
448 On ch=1 n=d5 v=48
480 Off ch=1 n=d4 v=64
504 Off ch=1 n=g4 v=64
506 Off ch=1 n=d5 v=64
506 Par ch=1 c=64 v=0
528 Off ch=1 n=a#4 v=64
548 On ch=1 n=a#4 v=12
552 On ch=1 n=d4 v=69
552 On ch=1 n=d5 v=54
552 On ch=1 n=g4 v=5
594 Off ch=1 n=d5 v=64
600 Off ch=1 n=d4 v=64
614 Off ch=1 n=a#4 v=64
618 Off ch=1 n=g4 v=64
848 On ch=1 n=a#3 v=62
851 On ch=1 n=a#2 v=70
908 Off ch=1 n=a#3 v=64
908 Off ch=1 n=a#2 v=64
1132 On ch=1 n=d4 v=85
1140 On ch=1 n=d3 v=80
1178 Off ch=1 n=d4 v=64
1178 Off ch=1 n=d3 v=64
1212 Par ch=1 c=64 v=127
1288 Par ch=1 c=64 v=0
1398 On ch=1 n=a#4 v=44
1401 On ch=1 n=d5 v=58
1401 On ch=1 n=g4 v=68
1401 On ch=1 n=d4 v=70
1446 Off ch=1 n=g4 v=64
1446 Off ch=1 n=d4 v=64
1458 Off ch=1 n=d5 v=64
1466 Off ch=1 n=a#4 v=64
1674 On ch=1 n=a#4 v=55
1680 On ch=1 n=a#2 v=71
1682 On ch=1 n=a#3 v=67
1718 Off ch=1 n=a#2 v=64
1728 Off ch=1 n=a#3 v=64
1768 Off ch=1 n=a#4 v=64
1780 Par ch=1 c=64 v=127
1826 Par ch=1 c=64 v=0
1940 On ch=1 n=d5 v=49
1944 On ch=1 n=a#4 v=50
1948 On ch=1 n=g4 v=59
1954 On ch=1 n=d4 v=45
1990 Off ch=1 n=d5 v=64
1996 Off ch=1 n=g4 v=64
2002 Off ch=1 n=a#4 v=64
2020 Off ch=1 n=d4 v=64
2214 On ch=1 n=g2 v=89
2216 On ch=1 n=g4 v=81
2232 On ch=1 n=g3 v=54
2248 Off ch=1 n=g2 v=64
2278 Off ch=1 n=g4 v=64
2286 Off ch=1 n=g3 v=64
2286 Par ch=1 c=64 v=127
2508 On ch=1 n=d4 v=62
2510 On ch=1 n=a#4 v=55
2510 On ch=1 n=g4 v=65
2530 On ch=1 n=d5 v=55
2558 Off ch=1 n=d4 v=64
2560 Off ch=1 n=g4 v=64
2562 Off ch=1 n=a#4 v=64
2578 Off ch=1 n=d5 v=64
2624 On ch=1 n=d4 v=63
2628 On ch=1 n=a#4 v=42
2662 On ch=1 n=d5 v=23
2674 Off ch=1 n=d4 v=64
2692 Off ch=1 n=a#4 v=64
2736 On ch=1 n=d4 v=79
2744 On ch=1 n=a#4 v=67
2750 On ch=1 n=g4 v=57
2784 Off ch=1 n=d4 v=64
2792 Off ch=1 n=a#4 v=64
2792 Off ch=1 n=g4 v=64
2796 Par ch=1 c=64 v=0
2814 Off ch=1 n=d5 v=64
3016 On ch=1 n=a3 v=76
3018 On ch=1 n=a2 v=84
3066 Off ch=1 n=a2 v=64
3106 Off ch=1 n=a3 v=64
3109 On ch=1 n=a#2 v=72
3120 On ch=1 n=a#3 v=73
3180 Off ch=1 n=a#2 v=64
3222 Off ch=1 n=a#3 v=64
3244 On ch=1 n=d4 v=91
3247 On ch=1 n=d3 v=97
3278 Off ch=1 n=d4 v=64
3286 Off ch=1 n=d3 v=64
3318 Par ch=1 c=64 v=127
3348 Par ch=1 c=64 v=0
3519 On ch=1 n=d4 v=70
3519 On ch=1 n=g4 v=67
3523 On ch=1 n=d5 v=62
3530 On ch=1 n=a#4 v=47
3562 Off ch=1 n=d4 v=64
3566 Off ch=1 n=g4 v=64
3580 Off ch=1 n=d5 v=64
3598 Off ch=1 n=a#4 v=64
3768 On ch=1 n=a#3 v=70
3770 On ch=1 n=a#2 v=79
3776 On ch=1 n=a#4 v=62
3804 Off ch=1 n=a#2 v=64
3820 Off ch=1 n=a#3 v=64
3854 Par ch=1 c=64 v=127
3856 Off ch=1 n=a#4 v=64
3916 Par ch=1 c=64 v=0
4040 On ch=1 n=a#4 v=56
4044 On ch=1 n=g4 v=61
4046 On ch=1 n=d5 v=70
4048 On ch=1 n=d4 v=54
4092 Off ch=1 n=g4 v=64
4092 Off ch=1 n=d5 v=64
4104 Off ch=1 n=a#4 v=64
4106 Off ch=1 n=d4 v=64
4310 On ch=1 n=g4 v=85
4313 On ch=1 n=g2 v=73
4316 On ch=1 n=g3 v=67
4360 Off ch=1 n=g2 v=64
4360 Off ch=1 n=g3 v=64
4378 Par ch=1 c=64 v=127
4388 Off ch=1 n=g4 v=64
4590 On ch=1 n=g4 v=60
4596 On ch=1 n=d4 v=52
4600 On ch=1 n=a#4 v=48
4608 On ch=1 n=d5 v=57
4642 Off ch=1 n=g4 v=64
4652 Off ch=1 n=d4 v=64
4656 Off ch=1 n=a#4 v=64
4658 Off ch=1 n=d5 v=64
4718 On ch=1 n=d4 v=62
4722 On ch=1 n=a#4 v=45
4724 On ch=1 n=g4 v=49
4730 On ch=1 n=d5 v=49
4772 Off ch=1 n=d4 v=64
4782 Off ch=1 n=g4 v=64
4784 Off ch=1 n=a#4 v=64
4786 Off ch=1 n=d5 v=64
4834 On ch=1 n=d4 v=79
4840 On ch=1 n=d5 v=72
4840 On ch=1 n=a#4 v=62
4846 On ch=1 n=g4 v=77
4896 Off ch=1 n=a#4 v=64
4900 Off ch=1 n=d4 v=64
4900 Off ch=1 n=g4 v=64
4926 Off ch=1 n=d5 v=64
4962 Par ch=1 c=64 v=0
5132 On ch=1 n=d4 v=55
5132 On ch=1 n=d5 v=56
5186 Off ch=1 n=d5 v=64
5198 Off ch=1 n=d4 v=64
5238 On ch=1 n=f5 v=67
5240 On ch=1 n=f4 v=80
5284 Off ch=1 n=f5 v=64
5284 Off ch=1 n=f4 v=64
5358 On ch=1 n=g4 v=75
5361 On ch=1 n=g5 v=89
5361 On ch=1 n=g3 v=76
5402 Off ch=1 n=g3 v=64
5414 Off ch=1 n=g4 v=64
5452 Par ch=1 c=64 v=127
5522 Off ch=1 n=g5 v=64
5630 On ch=1 n=g5 v=42
5632 On ch=1 n=a#5 v=53
5634 On ch=1 n=d5 v=31
5640 On ch=1 n=a#4 v=23
5686 Off ch=1 n=a#5 v=64
5690 Off ch=1 n=g5 v=64
5710 On ch=1 n=d4 v=2
5748 On ch=1 n=a#5 v=55
5756 On ch=1 n=g5 v=57
5796 Off ch=1 n=a#5 v=64
5798 Off ch=1 n=a#4 v=64
5800 Off ch=1 n=d4 v=64
5808 Off ch=1 n=d5 v=64
5814 Off ch=1 n=g5 v=64
5854 On ch=1 n=a#5 v=58
5868 On ch=1 n=a#4 v=52
5874 On ch=1 n=d5 v=75
5876 On ch=1 n=g5 v=76
5914 Off ch=1 n=a#5 v=64
5914 Off ch=1 n=d5 v=64
5920 Off ch=1 n=g5 v=64
5922 Off ch=1 n=a#4 v=64
6152 On ch=1 n=a#4 v=60
6168 On ch=1 n=a#3 v=55
6206 Par ch=1 c=64 v=0
6238 Off ch=1 n=a#4 v=64
6240 Off ch=1 n=a#3 v=64
6258 On ch=1 n=d5 v=84
6270 On ch=1 n=d4 v=82
6298 Off ch=1 n=d5 v=64
6312 Off ch=1 n=d4 v=64
6408 On ch=1 n=f3 v=88
6410 On ch=1 n=f4 v=103
6410 On ch=1 n=f5 v=76
6444 Off ch=1 n=f3 v=64
6446 Off ch=1 n=f4 v=64
6482 Par ch=1 c=64 v=127
6598 Off ch=1 n=f5 v=64
6678 On ch=1 n=d4 v=83
6682 On ch=1 n=a#5 v=59
6684 On ch=1 n=d5 v=65
6684 On ch=1 n=d6 v=70
6686 On ch=1 n=a#4 v=33
6722 Off ch=1 n=d4 v=64
6725 Off ch=1 n=d6 v=64
6728 Off ch=1 n=a#5 v=64
6730 Off ch=1 n=d5 v=64
6766 Off ch=1 n=a#4 v=64
6788 On ch=1 n=d4 v=66
6794 On ch=1 n=d6 v=69
6794 On ch=1 n=a#5 v=51
6806 On ch=1 n=d5 v=54
6812 On ch=1 n=a#4 v=22
6838 Off ch=1 n=d4 v=64
6842 Off ch=1 n=d6 v=64
6852 Off ch=1 n=a#5 v=64
6858 Off ch=1 n=d5 v=64
6874 Off ch=1 n=a#4 v=64
6910 On ch=1 n=d6 v=83
6914 On ch=1 n=d5 v=87
6916 On ch=1 n=a#5 v=56
6918 On ch=1 n=a#4 v=67
6924 On ch=1 n=d4 v=59
6948 Off ch=1 n=d6 v=64
6952 Off ch=1 n=d5 v=64
6962 Off ch=1 n=a#4 v=64
6968 Off ch=1 n=a#5 v=64
6992 Off ch=1 n=d4 v=64
7184 On ch=1 n=a#4 v=72
7196 On ch=1 n=a#3 v=54
7266 Par ch=1 c=64 v=0
7288 Off ch=1 n=a#4 v=64
7292 On ch=1 n=d5 v=73
7302 On ch=1 n=d4 v=87
7330 Off ch=1 n=a#3 v=64
7340 Off ch=1 n=d4 v=64
7348 Off ch=1 n=d5 v=64
7432 On ch=1 n=d#5 v=99
7438 On ch=1 n=d#3 v=92
7440 On ch=1 n=d#4 v=99
7470 Off ch=1 n=d#3 v=64
7490 Off ch=1 n=d#4 v=64
7502 Off ch=1 n=d#5 v=64
7512 Par ch=1 c=64 v=127
7746 On ch=1 n=c5 v=66
7749 On ch=1 n=c6 v=74
7749 On ch=1 n=g5 v=79
7753 On ch=1 n=a4 v=41
7754 On ch=1 n=g6 v=83
7760 On ch=1 n=g4 v=54
7790 Off ch=1 n=c6 v=64
7793 Off ch=1 n=c5 v=64
7793 Off ch=1 n=g6 v=64
7796 Off ch=1 n=g5 v=64
7814 Off ch=1 n=g4 v=64
7818 Off ch=1 n=a4 v=64
7854 On ch=1 n=c5 v=70
7860 On ch=1 n=g5 v=73
7860 On ch=1 n=a4 v=41
7862 On ch=1 n=c6 v=55
7862 On ch=1 n=g6 v=64
7876 On ch=1 n=g4 v=56
7906 Off ch=1 n=g6 v=64
7909 Off ch=1 n=g5 v=64
7912 Off ch=1 n=c5 v=64
7914 Off ch=1 n=c6 v=64
7922 Off ch=1 n=g4 v=64
7925 Off ch=1 n=a4 v=64
7974 On ch=1 n=g6 v=74
7976 On ch=1 n=c6 v=77
7980 On ch=1 n=g5 v=71
7982 On ch=1 n=c5 v=79
7988 On ch=1 n=g4 v=73
7988 On ch=1 n=a4 v=70
8012 Off ch=1 n=g6 v=64
8024 Off ch=1 n=c6 v=64
8034 Off ch=1 n=c5 v=64
8037 Off ch=1 n=a4 v=64
8042 Off ch=1 n=g4 v=64
8050 Off ch=1 n=g5 v=64
8272 On ch=1 n=g3 v=84
8274 On ch=1 n=g4 v=69
8324 Off ch=1 n=g4 v=64
8334 Off ch=1 n=g3 v=64
8362 On ch=1 n=a3 v=78
8370 On ch=1 n=a4 v=91
8372 Par ch=1 c=64 v=0
8406 Off ch=1 n=a3 v=64
8432 Off ch=1 n=a4 v=64
8496 On ch=1 n=d4 v=106
8498 On ch=1 n=d5 v=110
8498 On ch=1 n=d3 v=100
8526 Off ch=1 n=d3 v=64
8550 Off ch=1 n=d4 v=64
8564 Off ch=1 n=d5 v=64
8572 Par ch=1 c=64 v=127
8820 On ch=1 n=f#6 v=88
8820 On ch=1 n=f#5 v=90
8820 On ch=1 n=d5 v=79
8824 On ch=1 n=d6 v=76
8827 On ch=1 n=a4 v=51
8828 On ch=1 n=f#4 v=73
8852 Off ch=1 n=f#6 v=64
8852 Off ch=1 n=f#5 v=64
8860 Off ch=1 n=d6 v=64
8864 Off ch=1 n=d5 v=64
8876 Off ch=1 n=f#4 v=64
8886 Off ch=1 n=a4 v=64
8926 On ch=1 n=f#6 v=68
8928 On ch=1 n=f#5 v=55
8930 On ch=1 n=d6 v=74
8934 On ch=1 n=d5 v=76
8940 On ch=1 n=f#4 v=74
8950 On ch=1 n=a4 v=74
8970 Off ch=1 n=f#6 v=64
8973 Off ch=1 n=d6 v=64
8982 Off ch=1 n=f#5 v=64
8982 Off ch=1 n=d5 v=64
8992 Off ch=1 n=a4 v=64
8998 Off ch=1 n=f#4 v=64
9034 On ch=1 n=f#6 v=76
9044 On ch=1 n=f#5 v=74
9046 On ch=1 n=d6 v=76
9054 On ch=1 n=d5 v=83
9060 On ch=1 n=a4 v=61
9062 On ch=1 n=f#4 v=80
9076 Off ch=1 n=f#6 v=64
9082 Off ch=1 n=d6 v=64
9088 Off ch=1 n=d5 v=64
9102 Off ch=1 n=f#4 v=64
9106 Off ch=1 n=a4 v=64
9136 Off ch=1 n=f#5 v=64
9320 On ch=1 n=f#4 v=99
9328 On ch=1 n=f#3 v=83
9328 On ch=1 n=f#2 v=94
9356 Par ch=1 c=64 v=0
9360 Off ch=1 n=f#2 v=64
9364 Off ch=1 n=f#3 v=64
9376 Off ch=1 n=f#4 v=64
9592 On ch=1 n=a#3 v=93
9592 On ch=1 n=a#2 v=98
9600 On ch=1 n=a#4 v=86
9682 Off ch=1 n=a#3 v=64
9706 Off ch=1 n=a#2 v=64
9724 Par ch=1 c=64 v=127
9726 Off ch=1 n=a#4 v=64
9848 Par ch=1 c=64 v=0
9880 On ch=1 n=g4 v=70
9886 On ch=1 n=a#4 v=42
9888 On ch=1 n=e5 v=60
9888 On ch=1 n=d5 v=50
9888 On ch=1 n=d4 v=63
9890 On ch=1 n=e4 v=75
9928 Off ch=1 n=e4 v=64
9934 Off ch=1 n=d4 v=64
9936 Off ch=1 n=g4 v=64
9940 Off ch=1 n=d5 v=64
9944 Off ch=1 n=e5 v=64
9958 Off ch=1 n=a#4 v=64
10156 On ch=1 n=g2 v=101
10160 On ch=1 n=g4 v=87
10166 On ch=1 n=g3 v=83
10186 Off ch=1 n=g2 v=64
10208 Off ch=1 n=g3 v=64
10246 Par ch=1 c=64 v=127
10260 Off ch=1 n=g4 v=64
10416 Par ch=1 c=64 v=0
10427 On ch=1 n=e4 v=75
10428 On ch=1 n=d4 v=65
10432 On ch=1 n=a#4 v=53
10436 On ch=1 n=e5 v=71
10436 On ch=1 n=d5 v=59
10468 Off ch=1 n=e4 v=64
10474 Off ch=1 n=d4 v=64
10478 Off ch=1 n=d5 v=64
10480 Off ch=1 n=e5 v=64
10500 Off ch=1 n=a#4 v=64
10722 On ch=1 n=d2 v=90
10725 On ch=1 n=d3 v=94
10738 On ch=1 n=d4 v=99
10756 Off ch=1 n=d2 v=64
10772 Off ch=1 n=d4 v=64
10778 Off ch=1 n=d3 v=64
10800 Par ch=1 c=64 v=127
11084 On ch=1 n=a4 v=39
11085 On ch=1 n=d5 v=53
11086 On ch=1 n=a3 v=62
11088 On ch=1 n=f#4 v=37
11090 On ch=1 n=f#5 v=50
11096 On ch=1 n=d6 v=54
11140 Off ch=1 n=a3 v=64
11143 Off ch=1 n=f#5 v=64
11144 Off ch=1 n=d5 v=64
11144 Off ch=1 n=d6 v=64
11147 Off ch=1 n=a4 v=64
11154 Off ch=1 n=f#4 v=64
11200 On ch=1 n=f#4 v=37
11205 On ch=1 n=f#5 v=50
11205 On ch=1 n=d5 v=53
11206 On ch=1 n=a4 v=33
11206 On ch=1 n=a3 v=71
11212 On ch=1 n=d6 v=58
11254 Off ch=1 n=a3 v=64
11258 Off ch=1 n=f#5 v=64
11258 Off ch=1 n=d6 v=64
11264 Off ch=1 n=d5 v=64
11266 Off ch=1 n=f#4 v=64
11266 Off ch=1 n=a4 v=64
11332 On ch=1 n=a4 v=55
11332 On ch=1 n=d6 v=70
11335 On ch=1 n=d5 v=53
11335 On ch=1 n=a3 v=29
11336 On ch=1 n=f#4 v=64
11337 On ch=1 n=f#5 v=50
11372 Off ch=1 n=d6 v=64
11380 Off ch=1 n=f#4 v=64
11382 Off ch=1 n=a4 v=64
11390 Off ch=1 n=f#5 v=64
11394 Off ch=1 n=d5 v=64
11400 Off ch=1 n=a3 v=64
11602 On ch=1 n=f#3 v=78
11602 On ch=1 n=f#2 v=83
11638 Off ch=1 n=f#2 v=64
11644 Off ch=1 n=f#3 v=64
11738 On ch=1 n=a3 v=73
11754 On ch=1 n=a2 v=32
11782 Off ch=1 n=a3 v=64
11826 Off ch=1 n=a2 v=64
11846 On ch=1 n=a#3 v=90
11848 On ch=1 n=a#2 v=85
11876 Par ch=1 c=64 v=0
11982 Off ch=1 n=a#2 v=64
11984 Off ch=1 n=a#3 v=64
12156 On ch=1 n=g4 v=50
12158 On ch=1 n=d4 v=67
12162 On ch=1 n=e4 v=76
12166 On ch=1 n=e5 v=35
12166 On ch=1 n=d5 v=31
12198 Off ch=1 n=e4 v=64
12202 Off ch=1 n=d4 v=64
12232 Off ch=1 n=g4 v=64
12234 Off ch=1 n=e5 v=64
12242 Off ch=1 n=d5 v=64
12438 On ch=1 n=g4 v=66
12444 On ch=1 n=g2 v=83
12448 On ch=1 n=g3 v=64
12482 Off ch=1 n=g2 v=64
12496 Off ch=1 n=g3 v=64
12514 Off ch=1 n=g4 v=64
12536 Par ch=1 c=64 v=127
12598 Par ch=1 c=64 v=0
12714 On ch=1 n=e5 v=31
12717 On ch=1 n=d5 v=36
12718 On ch=1 n=d4 v=40
12720 On ch=1 n=a#4 v=46
12722 On ch=1 n=e4 v=34
12774 Off ch=1 n=e5 v=64
12774 Off ch=1 n=d5 v=64
12784 Off ch=1 n=e4 v=64
12786 Off ch=1 n=d4 v=64
12788 Off ch=1 n=a#4 v=64
13012 On ch=1 n=d4 v=76
13018 On ch=1 n=d2 v=50
13048 On ch=1 n=d3 v=26
13054 Off ch=1 n=d4 v=64
13070 Off ch=1 n=d2 v=64
13073 Par ch=1 c=64 v=127
13112 Off ch=1 n=d3 v=64
13345 On ch=1 n=f#4 v=57
13348 On ch=1 n=f#5 v=35
13350 On ch=1 n=a4 v=39
13352 On ch=1 n=d5 v=26
13352 On ch=1 n=d6 v=33
13356 On ch=1 n=a3 v=49
13391 Off ch=1 n=f#4 v=64
13414 Off ch=1 n=f#5 v=64
13416 Off ch=1 n=a4 v=64
13416 Off ch=1 n=d5 v=64
13421 Off ch=1 n=a3 v=64
13428 Off ch=1 n=d6 v=64
13480 On ch=1 n=f#4 v=57
13483 On ch=1 n=f#5 v=35
13485 On ch=1 n=a4 v=39
13487 On ch=1 n=d5 v=26
13487 On ch=1 n=d6 v=33
13491 On ch=1 n=a3 v=49
13526 Off ch=1 n=f#4 v=64
13549 Off ch=1 n=f#5 v=64
13551 Off ch=1 n=a4 v=64
13551 Off ch=1 n=d5 v=64
13556 Off ch=1 n=a3 v=64
13563 Off ch=1 n=d6 v=64
13610 On ch=1 n=f#4 v=57
13613 On ch=1 n=f#5 v=35
13615 On ch=1 n=a4 v=39
13617 On ch=1 n=d5 v=26
13617 On ch=1 n=d6 v=33
13621 On ch=1 n=a3 v=49
13656 Off ch=1 n=f#4 v=64
13679 Off ch=1 n=f#5 v=64
13681 Off ch=1 n=a4 v=64
13681 Off ch=1 n=d5 v=64
13686 Off ch=1 n=a3 v=64
13693 Off ch=1 n=d6 v=64
13864 On ch=1 n=a4 v=71
13868 On ch=1 n=f#4 v=69
13876 On ch=1 n=d4 v=67
13880 On ch=1 n=d3 v=66
13920 Off ch=1 n=f#4 v=64
13922 Off ch=1 n=d4 v=64
13922 Off ch=1 n=d3 v=64
13966 On ch=1 n=a#4 v=62
13992 Off ch=1 n=a4 v=64
13996 Par ch=1 c=64 v=0
14106 On ch=1 n=c5 v=75
14106 On ch=1 n=c4 v=83
14109 On ch=1 n=d#4 v=67
14112 Off ch=1 n=a#4 v=64
14112 On ch=1 n=c3 v=89
14126 On ch=1 n=g4 v=59
14156 Off ch=1 n=c3 v=64
14159 Off ch=1 n=c4 v=64
14159 Off ch=1 n=d#4 v=64
14176 Off ch=1 n=g4 v=64
14222 Off ch=1 n=c5 v=64
14368 On ch=1 n=a#3 v=67
14372 On ch=1 n=d#5 v=70
14374 On ch=1 n=g4 v=44
14376 On ch=1 n=a#2 v=73
14382 On ch=1 n=c5 v=22
14412 Off ch=1 n=a#3 v=64
14415 Off ch=1 n=a#2 v=64
14420 Off ch=1 n=d#5 v=64
14436 Off ch=1 n=g4 v=64
14460 Off ch=1 n=c5 v=64
14484 On ch=1 n=a3 v=68
14486 On ch=1 n=a2 v=81
14532 Off ch=1 n=a3 v=64
14532 Off ch=1 n=a2 v=64
14596 On ch=1 n=c5 v=66
14596 On ch=1 n=d#5 v=64
14598 On ch=1 n=a5 v=80
14600 On ch=1 n=a4 v=85
14606 On ch=1 n=f#3 v=91
14612 On ch=1 n=f#2 v=92
14638 Off ch=1 n=d#5 v=64
14650 Off ch=1 n=f#2 v=64
14656 Off ch=1 n=a4 v=64
14688 Off ch=1 n=c5 v=64
14688 Off ch=1 n=f#3 v=64
14704 Off ch=1 n=a5 v=64
14868 On ch=1 n=a4 v=71
14868 On ch=1 n=f#5 v=73
14872 On ch=1 n=c3 v=59
14880 On ch=1 n=d5 v=69
14920 Off ch=1 n=c3 v=64
14930 Off ch=1 n=d5 v=64
14932 Off ch=1 n=a4 v=64
14980 Off ch=1 n=f#5 v=64
15142 On ch=1 n=a#3 v=83
15144 On ch=1 n=g5 v=92
15150 On ch=1 n=d5 v=84
15150 On ch=1 n=a4 v=53
15152 On ch=1 n=a#2 v=81
15154 On ch=1 n=g4 v=68
15186 Off ch=1 n=a#3 v=64
15192 Off ch=1 n=g5 v=64
15194 Off ch=1 n=a#2 v=64
15196 Off ch=1 n=d5 v=64
15202 Off ch=1 n=g4 v=64
15206 Off ch=1 n=a4 v=64
15398 On ch=1 n=a#4 v=73
15400 On ch=1 n=a#5 v=83
15408 On ch=1 n=d5 v=73
15418 On ch=1 n=e3 v=94
15418 On ch=1 n=e2 v=78
15448 Off ch=1 n=e3 v=64
15456 Off ch=1 n=e2 v=64
15464 Off ch=1 n=d5 v=64
15476 Off ch=1 n=a#4 v=64
15502 Off ch=1 n=a#5 v=64
15674 On ch=1 n=a5 v=88
15680 On ch=1 n=d5 v=85
15680 On ch=1 n=c5 v=81
15684 On ch=1 n=f#3 v=79
15690 On ch=1 n=f#2 v=78
15712 Off ch=1 n=a5 v=64
15720 Off ch=1 n=d5 v=64
15724 Off ch=1 n=c5 v=64
15738 Off ch=1 n=f#2 v=64
15744 Off ch=1 n=f#3 v=64
15770 On ch=1 n=a5 v=65
15778 On ch=1 n=c5 v=87
15782 On ch=1 n=d5 v=79
15830 Off ch=1 n=a5 v=64
15833 Off ch=1 n=d5 v=64
15836 Off ch=1 n=c5 v=64
15902 On ch=1 n=a#5 v=88
15912 On ch=1 n=a#4 v=72
15918 On ch=1 n=d5 v=68
15928 On ch=1 n=g3 v=74
15928 On ch=1 n=g2 v=78
15970 Off ch=1 n=g3 v=64
15970 Off ch=1 n=g2 v=64
15973 Off ch=1 n=d5 v=64
16002 Off ch=1 n=a#5 v=64
16022 Off ch=1 n=a#4 v=64
16192 On ch=1 n=f#5 v=74
16192 On ch=1 n=a4 v=72
16198 On ch=1 n=c4 v=80
16200 On ch=1 n=d5 v=73
16204 On ch=1 n=c3 v=84
16244 Off ch=1 n=c4 v=64
16244 Off ch=1 n=c3 v=64
16250 Off ch=1 n=d5 v=64
16258 Off ch=1 n=a4 v=64
16296 Off ch=1 n=f#5 v=64
16474 On ch=1 n=g4 v=72
16474 On ch=1 n=a#3 v=64
16474 On ch=1 n=g5 v=78
16480 On ch=1 n=d5 v=64
16482 On ch=1 n=a#2 v=67
16520 Off ch=1 n=a#2 v=64
16524 Off ch=1 n=a#3 v=64
16534 Off ch=1 n=g5 v=64
16538 Off ch=1 n=d5 v=64
16542 Off ch=1 n=g4 v=64
16756 On ch=1 n=d#3 v=76
16758 On ch=1 n=a#3 v=62
16762 On ch=1 n=g4 v=76
16764 On ch=1 n=d#5 v=78
16764 On ch=1 n=c#5 v=68
16796 Off ch=1 n=d#3 v=64
16804 Off ch=1 n=d#5 v=64
16808 Off ch=1 n=g4 v=64
16810 Off ch=1 n=c#5 v=64
16812 Off ch=1 n=a#3 v=64
16868 On ch=1 n=d#5 v=78
16874 On ch=1 n=d#3 v=51
16874 On ch=1 n=a#3 v=53
16874 On ch=1 n=c#5 v=60
16877 On ch=1 n=g4 v=61
16916 Off ch=1 n=d#5 v=64
16926 Off ch=1 n=c#5 v=64
16932 Off ch=1 n=g4 v=64
16934 Off ch=1 n=a#3 v=64
16938 Off ch=1 n=d#3 v=64
16996 On ch=1 n=d#5 v=65
16996 On ch=1 n=c#5 v=52
16999 On ch=1 n=a#3 v=58
17004 On ch=1 n=d#3 v=65
17010 On ch=1 n=g4 v=64
17060 Off ch=1 n=d#5 v=64
17060 Off ch=1 n=d#3 v=64
17060 Off ch=1 n=g4 v=64
17063 Off ch=1 n=c#5 v=64
17082 Off ch=1 n=a#3 v=64
17294 On ch=1 n=a#3 v=57
17300 On ch=1 n=e5 v=61
17300 On ch=1 n=g4 v=51
17302 On ch=1 n=c#5 v=48
17304 On ch=1 n=a#2 v=57
17358 Off ch=1 n=a#3 v=64
17360 Off ch=1 n=g4 v=64
17362 Off ch=1 n=a#2 v=64
17368 Off ch=1 n=c#5 v=64
17372 Off ch=1 n=e5 v=64
17568 On ch=1 n=a3 v=50
17572 On ch=1 n=f#4 v=62
17580 On ch=1 n=a2 v=45
17584 On ch=1 n=f#5 v=39
17586 On ch=1 n=d5 v=29
17624 Off ch=1 n=a3 v=64
17627 Off ch=1 n=f#4 v=64
17640 Off ch=1 n=a2 v=64
17640 Off ch=1 n=f#5 v=64
17652 Off ch=1 n=d5 v=64
17866 On ch=1 n=d3 v=78
17871 On ch=1 n=d4 v=71
17922 Off ch=1 n=d3 v=64
17925 Off ch=1 n=d4 v=64
18162 On ch=1 n=d2 v=49
18220 Off ch=1 n=d2 v=64
18444 On ch=1 n=g2 v=85
18454 On ch=1 n=g4 v=57
18456 On ch=1 n=g3 v=51
18480 Off ch=1 n=g2 v=64
18502 Off ch=1 n=g4 v=64
18512 Off ch=1 n=g3 v=64
18528 Par ch=1 c=64 v=127
18725 On ch=1 n=g4 v=69
18728 On ch=1 n=a#4 v=52
18728 On ch=1 n=d4 v=21
18736 On ch=1 n=d5 v=61
18771 Off ch=1 n=g4 v=64
18780 Off ch=1 n=d4 v=64
18786 Off ch=1 n=a#4 v=64
18786 Off ch=1 n=d5 v=64
18854 On ch=1 n=a#4 v=40
18855 On ch=1 n=d4 v=21
18858 On ch=1 n=d5 v=36
18860 On ch=1 n=g4 v=69
18906 Off ch=1 n=g4 v=64
18907 Off ch=1 n=d4 v=64
18918 Off ch=1 n=a#4 v=64
18932 Off ch=1 n=d5 v=64
18958 Par ch=1 c=64 v=0
18976 On ch=1 n=d4 v=62
18976 On ch=1 n=a#4 v=57
18982 On ch=1 n=g4 v=69
18986 On ch=1 n=d5 v=11
19022 Off ch=1 n=d4 v=64
19028 Off ch=1 n=g4 v=64
19030 Off ch=1 n=a#4 v=64
19044 Off ch=1 n=d5 v=64
19258 On ch=1 n=a#3 v=62
19274 On ch=1 n=a#2 v=65
19318 Off ch=1 n=a#2 v=64
19326 Off ch=1 n=a#3 v=64
19550 On ch=1 n=d3 v=76
19553 On ch=1 n=d4 v=69
19586 Off ch=1 n=d3 v=64
19600 Off ch=1 n=d4 v=64
19634 Par ch=1 c=64 v=127
19742 Par ch=1 c=64 v=0
19818 On ch=1 n=a#4 v=49
19822 On ch=1 n=d5 v=66
19828 On ch=1 n=d4 v=51
19834 On ch=1 n=g4 v=49
19878 Off ch=1 n=a#4 v=64
19880 Off ch=1 n=d5 v=64
19882 Off ch=1 n=d4 v=64
19888 Off ch=1 n=g4 v=64
20088 On ch=1 n=a#2 v=75
20092 On ch=1 n=a#3 v=61
20096 On ch=1 n=a#4 v=49
20126 Off ch=1 n=a#2 v=64
20144 Off ch=1 n=a#3 v=64
20158 Off ch=1 n=a#4 v=64
20370 On ch=1 n=a#4 v=39
20378 On ch=1 n=g4 v=51
20380 On ch=1 n=d5 v=51
20382 On ch=1 n=d4 v=72
20426 Off ch=1 n=d4 v=64
20432 Off ch=1 n=g4 v=64
20434 Off ch=1 n=d5 v=64
20442 Off ch=1 n=a#4 v=64
20656 On ch=1 n=g2 v=89
20656 On ch=1 n=g4 v=80
20664 On ch=1 n=g3 v=65
20690 Off ch=1 n=g2 v=64
20708 Off ch=1 n=g4 v=64
20710 Par ch=1 c=64 v=127
20712 Off ch=1 n=g3 v=64
20946 On ch=1 n=g4 v=55
20952 On ch=1 n=a#4 v=37
20952 On ch=1 n=d4 v=42
20954 On ch=1 n=d5 v=52
20998 Off ch=1 n=g4 v=64
21006 Off ch=1 n=d5 v=64
21018 Off ch=1 n=a#4 v=64
21018 Off ch=1 n=d4 v=64
21064 On ch=1 n=g4 v=68
21064 On ch=1 n=d5 v=52
21068 On ch=1 n=a#4 v=13
21068 On ch=1 n=d4 v=42
21110 Off ch=1 n=g4 v=64
21116 Off ch=1 n=d5 v=64
21134 Off ch=1 n=d4 v=64
21140 Off ch=1 n=a#4 v=64
21164 On ch=1 n=g4 v=88
21182 On ch=1 n=d4 v=70
21182 On ch=1 n=d5 v=66
21184 On ch=1 n=a#4 v=13
21202 Par ch=1 c=64 v=0
21208 Off ch=1 n=g4 v=64
21222 Off ch=1 n=d4 v=64
21228 Off ch=1 n=d5 v=64
21256 Off ch=1 n=a#4 v=64
21442 On ch=1 n=a2 v=84
21446 On ch=1 n=a3 v=68
21538 Off ch=1 n=a2 v=64
21548 On ch=1 n=a#3 v=67
21552 On ch=1 n=a#2 v=61
21566 Off ch=1 n=a3 v=64
21616 Off ch=1 n=a#2 v=64
21642 Off ch=1 n=a#3 v=64
21680 On ch=1 n=d3 v=95
21684 On ch=1 n=d4 v=95
21730 Off ch=1 n=d4 v=64
21740 Off ch=1 n=d3 v=64
21770 Par ch=1 c=64 v=127
21848 Par ch=1 c=64 v=0
21952 On ch=1 n=d5 v=65
21955 On ch=1 n=g4 v=65
21955 On ch=1 n=d4 v=67
21960 On ch=1 n=a#4 v=44
21998 Off ch=1 n=g4 v=64
22004 Off ch=1 n=d4 v=64
22006 Off ch=1 n=d5 v=64
22022 Off ch=1 n=a#4 v=64
22198 On ch=1 n=a#3 v=78
22200 On ch=1 n=a#2 v=83
22206 On ch=1 n=a#4 v=62
22234 Off ch=1 n=a#2 v=64
22242 Off ch=1 n=a#3 v=64
22280 Off ch=1 n=a#4 v=64
22308 Par ch=1 c=64 v=127
22354 Par ch=1 c=64 v=0
22470 On ch=1 n=a#4 v=49
22470 On ch=1 n=g4 v=59
22476 On ch=1 n=d5 v=55
22496 On ch=1 n=d4 v=50
22520 Off ch=1 n=g4 v=64
22526 Off ch=1 n=d5 v=64
22534 Off ch=1 n=a#4 v=64
22558 Off ch=1 n=d4 v=64
22738 On ch=1 n=g4 v=83
22752 On ch=1 n=g2 v=70
22772 On ch=1 n=g3 v=23
22798 Off ch=1 n=g2 v=64
22801 Par ch=1 c=64 v=127
22834 Off ch=1 n=g3 v=64
22840 Off ch=1 n=g4 v=64
23016 On ch=1 n=g4 v=61
23019 On ch=1 n=d4 v=57
23022 On ch=1 n=a#4 v=47
23034 On ch=1 n=d5 v=57
23066 Off ch=1 n=g4 v=64
23074 Off ch=1 n=d4 v=64
23080 Off ch=1 n=a#4 v=64
23088 Off ch=1 n=d5 v=64
23140 On ch=1 n=g4 v=67
23142 On ch=1 n=d4 v=73
23152 On ch=1 n=a#4 v=44
23162 On ch=1 n=d5 v=33
23188 Off ch=1 n=g4 v=64
23190 Off ch=1 n=d4 v=64
23212 Off ch=1 n=a#4 v=64
23220 Off ch=1 n=d5 v=64
23260 On ch=1 n=g4 v=65
23266 On ch=1 n=d4 v=60
23268 On ch=1 n=a#4 v=55
23270 On ch=1 n=d5 v=68
23318 Off ch=1 n=a#4 v=64
23328 Off ch=1 n=d4 v=64
23328 Off ch=1 n=d5 v=64
23340 Off ch=1 n=g4 v=64
23430 Par ch=1 c=64 v=0
23564 On ch=1 n=d4 v=53
23566 On ch=1 n=d5 v=55
23624 Off ch=1 n=d5 v=64
23630 Off ch=1 n=d4 v=64
23672 On ch=1 n=f4 v=81
23676 On ch=1 n=f5 v=56
23714 Off ch=1 n=f4 v=64
23722 Off ch=1 n=f5 v=64
23806 On ch=1 n=g5 v=78
23812 On ch=1 n=g4 v=74
23814 On ch=1 n=g3 v=75
23854 Off ch=1 n=g3 v=64
23858 Off ch=1 n=g4 v=64
23876 Par ch=1 c=64 v=127
23966 Off ch=1 n=g5 v=64
24066 On ch=1 n=d5 v=59
24069 On ch=1 n=g5 v=42
24072 On ch=1 n=a#5 v=51
24072 On ch=1 n=a#4 v=18
24076 On ch=1 n=d4 v=53
24114 Off ch=1 n=d5 v=64
24126 Off ch=1 n=g5 v=64
24126 Off ch=1 n=a#5 v=64
24130 Off ch=1 n=a#4 v=64
24136 Off ch=1 n=d4 v=64
24184 On ch=1 n=a#5 v=65
24184 On ch=1 n=g5 v=71
24188 On ch=1 n=a#4 v=18
24192 On ch=1 n=d5 v=46
24192 On ch=1 n=d4 v=51
24230 Off ch=1 n=a#5 v=64
24232 Off ch=1 n=g5 v=64
24246 Off ch=1 n=a#4 v=64
24248 Off ch=1 n=d5 v=64
24248 Off ch=1 n=d4 v=64
24292 On ch=1 n=a#5 v=61
24292 On ch=1 n=g5 v=67
24296 On ch=1 n=a#4 v=18
24304 On ch=1 n=d5 v=57
24304 On ch=1 n=d4 v=68
24342 Off ch=1 n=g5 v=64
24354 Off ch=1 n=a#4 v=64
24354 Off ch=1 n=d5 v=64
24356 Off ch=1 n=d4 v=64
24360 Off ch=1 n=a#5 v=64
24602 On ch=1 n=a#4 v=65
24630 On ch=1 n=a#3 v=57
24658 Par ch=1 c=64 v=0
24690 Off ch=1 n=a#4 v=64
24708 On ch=1 n=d5 v=78
24720 On ch=1 n=d4 v=81
24752 Off ch=1 n=a#3 v=64
24760 Off ch=1 n=d4 v=64
24766 Off ch=1 n=d5 v=64
24846 On ch=1 n=f5 v=94
24860 On ch=1 n=f3 v=95
24864 On ch=1 n=f4 v=85
24894 Off ch=1 n=f3 v=64
24906 Off ch=1 n=f4 v=64
24920 Par ch=1 c=64 v=127
25048 Off ch=1 n=f5 v=64
25114 On ch=1 n=d6 v=79
25117 On ch=1 n=d5 v=73
25122 On ch=1 n=a#5 v=58
25128 On ch=1 n=a#4 v=47
25128 On ch=1 n=d4 v=61
25162 Off ch=1 n=d5 v=64
25165 Off ch=1 n=d6 v=64
25168 Off ch=1 n=a#5 v=64
25184 Off ch=1 n=d4 v=64
25188 Off ch=1 n=a#4 v=64
25230 On ch=1 n=d5 v=59
25230 On ch=1 n=a#5 v=54
25240 On ch=1 n=a#4 v=59
25242 On ch=1 n=d6 v=60
25266 On ch=1 n=d4 v=47
25282 Off ch=1 n=d6 v=64
25284 Off ch=1 n=a#5 v=64
25286 Off ch=1 n=d5 v=64
25298 Off ch=1 n=a#4 v=64
25326 Off ch=1 n=d4 v=64
25344 On ch=1 n=d6 v=84
25352 On ch=1 n=a#5 v=66
25364 On ch=1 n=d5 v=73
25366 On ch=1 n=a#4 v=53
25384 On ch=1 n=d4 v=85
25432 Off ch=1 n=d4 v=64
25448 Off ch=1 n=d5 v=64
25466 Off ch=1 n=d6 v=64
25468 Off ch=1 n=a#5 v=64
25476 Off ch=1 n=a#4 v=64
25626 On ch=1 n=f4 v=91
25636 On ch=1 n=f5 v=70
25694 Off ch=1 n=f5 v=64
25734 Off ch=1 n=f4 v=64
25734 On ch=1 n=a4 v=73
25734 Par ch=1 c=64 v=0
25744 On ch=1 n=a5 v=83
25772 Off ch=1 n=a4 v=64
25798 Off ch=1 n=a5 v=64
25868 On ch=1 n=a#5 v=95
25876 On ch=1 n=a#4 v=92
25878 On ch=1 n=a#3 v=91
25922 Off ch=1 n=a#3 v=64
25966 Par ch=1 c=64 v=127
25972 Off ch=1 n=a#4 v=64
26040 Off ch=1 n=a#5 v=64
26138 On ch=1 n=a#5 v=33
26140 On ch=1 n=f#4 v=83
26142 On ch=1 n=d#6 v=81
26144 On ch=1 n=d#5 v=72
26146 On ch=1 n=a#4 v=52
26148 On ch=1 n=f#5 v=69
26176 Off ch=1 n=d#6 v=64
26180 Off ch=1 n=f#4 v=64
26186 Off ch=1 n=a#5 v=64
26186 Off ch=1 n=d#5 v=64
26189 Off ch=1 n=f#5 v=64
26198 Off ch=1 n=a#4 v=64
26252 On ch=1 n=f#5 v=55
26252 On ch=1 n=f#4 v=83
26252 On ch=1 n=a#5 v=33
26254 On ch=1 n=d#5 v=69
26256 On ch=1 n=d#6 v=58
26258 On ch=1 n=a#4 v=52
26292 Off ch=1 n=f#4 v=64
26296 Off ch=1 n=d#5 v=64
26296 Off ch=1 n=d#6 v=64
26300 Off ch=1 n=f#5 v=64
26300 Off ch=1 n=a#5 v=64
26310 Off ch=1 n=a#4 v=64
26356 On ch=1 n=d#6 v=73
26366 On ch=1 n=f#5 v=64
26372 On ch=1 n=a#5 v=59
26375 On ch=1 n=d#5 v=75
26380 On ch=1 n=f#4 v=83
26386 On ch=1 n=a#4 v=52
26420 Off ch=1 n=f#4 v=64
26422 Off ch=1 n=a#5 v=64
26424 Off ch=1 n=d#5 v=64
26438 Off ch=1 n=a#4 v=64
26462 Off ch=1 n=d#6 v=64
26472 Off ch=1 n=f#5 v=64
26668 On ch=1 n=d5 v=77
26671 On ch=1 n=d4 v=82
26720 Off ch=1 n=d4 v=64
26764 On ch=1 n=f#5 v=86
26770 On ch=1 n=f#4 v=88
26786 Off ch=1 n=d5 v=64
26812 Off ch=1 n=f#4 v=64
26812 Par ch=1 c=64 v=0
26872 Off ch=1 n=f#5 v=64
26894 On ch=1 n=a4 v=101
26894 On ch=1 n=a5 v=98
26897 On ch=1 n=a3 v=97
26936 Off ch=1 n=a3 v=64
26968 Off ch=1 n=a4 v=64
26976 Off ch=1 n=a5 v=64
26994 Par ch=1 c=64 v=127
27200 On ch=1 n=f#5 v=82
27203 On ch=1 n=f#6 v=79
27210 On ch=1 n=d5 v=78
27212 On ch=1 n=f#4 v=80
27218 On ch=1 n=a4 v=60
27218 On ch=1 n=d6 v=69
27248 Off ch=1 n=f#6 v=64
27248 Off ch=1 n=d5 v=64
27250 Off ch=1 n=f#5 v=64
27250 Off ch=1 n=f#4 v=64
27254 Off ch=1 n=d6 v=64
27264 Off ch=1 n=a4 v=64
27316 On ch=1 n=f#4 v=73
27320 On ch=1 n=f#6 v=64
27320 On ch=1 n=a4 v=68
27320 On ch=1 n=d5 v=70
27320 On ch=1 n=d6 v=67
27328 On ch=1 n=f#5 v=62
27358 Off ch=1 n=f#6 v=64
27362 Off ch=1 n=d6 v=64
27368 Off ch=1 n=a4 v=64
27370 Off ch=1 n=f#5 v=64
27374 Off ch=1 n=d5 v=64
27380 Off ch=1 n=f#4 v=64
27432 On ch=1 n=f#6 v=50
27438 On ch=1 n=f#5 v=65
27442 On ch=1 n=d6 v=73
27448 On ch=1 n=d5 v=83
27456 On ch=1 n=a4 v=46
27464 On ch=1 n=f#4 v=70
27490 Off ch=1 n=d5 v=64
27502 Off ch=1 n=a4 v=64
27504 Off ch=1 n=f#4 v=64
27548 Off ch=1 n=f#5 v=64
27572 Off ch=1 n=d6 v=64
27608 Off ch=1 n=f#6 v=64
27722 On ch=1 n=a4 v=91
27728 On ch=1 n=a5 v=73
27730 On ch=1 n=a3 v=80
27760 Off ch=1 n=a4 v=64
27768 Off ch=1 n=a3 v=64
27788 Off ch=1 n=a5 v=64
27852 On ch=1 n=c6 v=79
27868 On ch=1 n=c5 v=81
27890 On ch=1 n=c4 v=32
27906 Off ch=1 n=c6 v=64
27909 Off ch=1 n=c5 v=64
27916 Par ch=1 c=64 v=0
27966 Off ch=1 n=c4 v=64
28000 On ch=1 n=d6 v=112
28008 On ch=1 n=d5 v=106
28011 On ch=1 n=d4 v=105
28116 Par ch=1 c=64 v=127
28138 Off ch=1 n=d4 v=64
28152 Off ch=1 n=d6 v=64
28158 Off ch=1 n=d5 v=64
28356 On ch=1 n=a#5 v=84
28359 On ch=1 n=g5 v=88
28366 On ch=1 n=a#4 v=67
28366 On ch=1 n=a#6 v=66
28366 On ch=1 n=g6 v=76
28366 On ch=1 n=d5 v=65
28396 Off ch=1 n=g5 v=64
28402 Off ch=1 n=a#5 v=64
28410 Off ch=1 n=a#4 v=64
28410 Off ch=1 n=a#6 v=64
28410 Off ch=1 n=g6 v=64
28412 Off ch=1 n=d5 v=64
28468 On ch=1 n=g5 v=53
28472 On ch=1 n=a#5 v=68
28472 On ch=1 n=a#6 v=59
28472 On ch=1 n=a#4 v=52
28472 On ch=1 n=g6 v=75
28482 On ch=1 n=d5 v=77
28514 Off ch=1 n=a#6 v=64
28520 Off ch=1 n=d5 v=64
28532 Off ch=1 n=g6 v=64
28536 Off ch=1 n=a#5 v=64
28536 Off ch=1 n=a#4 v=64
28554 Off ch=1 n=g5 v=64
28598 On ch=1 n=a#6 v=55
28600 On ch=1 n=g6 v=97
28600 On ch=1 n=a#5 v=87
28608 On ch=1 n=g5 v=86
28616 On ch=1 n=a#4 v=64
28620 On ch=1 n=d5 v=47
28640 Off ch=1 n=a#6 v=64
28642 Off ch=1 n=g5 v=64
28656 Off ch=1 n=g6 v=64
28670 Off ch=1 n=d5 v=64
28698 Off ch=1 n=a#4 v=64
28730 Off ch=1 n=a#5 v=64
28916 On ch=1 n=d5 v=101
28940 On ch=1 n=d3 v=63
28943 On ch=1 n=d4 v=45
28984 Off ch=1 n=d3 v=64
29008 Off ch=1 n=d4 v=64
29018 Off ch=1 n=d5 v=64
29100 Par ch=1 c=64 v=0
29194 On ch=1 n=c#5 v=108
29198 On ch=1 n=c#4 v=100
29208 On ch=1 n=c#3 v=88
29302 Off ch=1 n=c#4 v=64
29305 Off ch=1 n=c#3 v=64
29318 Off ch=1 n=c#5 v=64
29362 Par ch=1 c=64 v=127
29408 Par ch=1 c=64 v=0
29474 On ch=1 n=c4 v=100
29477 On ch=1 n=c5 v=102
29484 On ch=1 n=c3 v=88
29518 Off ch=1 n=c3 v=64
29524 Off ch=1 n=c4 v=64
29550 Off ch=1 n=c5 v=64
29576 Par ch=1 c=64 v=127
29638 Par ch=1 c=64 v=0
29760 On ch=1 n=a4 v=61
29760 On ch=1 n=d#5 v=76
29762 On ch=1 n=f#5 v=74
29762 On ch=1 n=a6 v=95
29762 On ch=1 n=a5 v=86
29768 On ch=1 n=d#6 v=85
29798 Off ch=1 n=d#5 v=64
29802 Off ch=1 n=a6 v=64
29808 Off ch=1 n=a4 v=64
29821 Off ch=1 n=d#6 v=64
29844 Off ch=1 n=f#5 v=64
29852 Par ch=1 c=64 v=127
29857 Off ch=1 n=a5 v=64
29930 Par ch=1 c=64 v=0
30046 On ch=1 n=f#5 v=91
30051 On ch=1 n=f#6 v=86
30056 On ch=1 n=d5 v=82
30058 On ch=1 n=f#4 v=77
30060 On ch=1 n=d6 v=80
30064 On ch=1 n=a4 v=50
30106 Off ch=1 n=d5 v=64
30106 Off ch=1 n=d6 v=64
30114 Off ch=1 n=a4 v=64
30124 Off ch=1 n=f#4 v=64
30130 Par ch=1 c=64 v=127
30146 Off ch=1 n=f#5 v=64
30162 Off ch=1 n=f#6 v=64
30190 Par ch=1 c=64 v=0
30326 On ch=1 n=g6 v=105
30326 On ch=1 n=g5 v=100
30334 On ch=1 n=d5 v=89
30334 On ch=1 n=d6 v=84
30338 On ch=1 n=g4 v=89
30364 Off ch=1 n=g6 v=64
30368 Off ch=1 n=d5 v=64
30372 Off ch=1 n=g4 v=64
30374 Off ch=1 n=d6 v=64
30404 Off ch=1 n=g5 v=64
30420 Par ch=1 c=64 v=127
30498 Par ch=1 c=64 v=0
30624 On ch=1 n=a#3 v=79
30626 On ch=1 n=a#4 v=92
30626 On ch=1 n=a#2 v=83
30676 Off ch=1 n=a#2 v=64
30684 Off ch=1 n=a#3 v=64
30712 Par ch=1 c=64 v=127
30726 Off ch=1 n=a#4 v=64
30744 Par ch=1 c=64 v=0
30914 On ch=1 n=b3 v=101
30922 On ch=1 n=b2 v=103
30925 On ch=1 n=b4 v=96
30952 Off ch=1 n=b2 v=64
30970 Off ch=1 n=b4 v=64
30974 Par ch=1 c=64 v=127
31022 Off ch=1 n=b3 v=64
31082 Par ch=1 c=64 v=0
31196 On ch=1 n=d#5 v=97
31196 On ch=1 n=d#6 v=94
31202 On ch=1 n=d#4 v=85
31202 On ch=1 n=g4 v=85
31204 On ch=1 n=g5 v=83
31240 Off ch=1 n=g4 v=64
31244 Off ch=1 n=d#4 v=64
31286 Off ch=1 n=g5 v=64
31290 Off ch=1 n=d#5 v=64
31308 Off ch=1 n=d#6 v=64
31328 Par ch=1 c=64 v=127
31374 Par ch=1 c=64 v=0
31492 On ch=1 n=c5 v=99
31494 On ch=1 n=c4 v=87
31497 On ch=1 n=c3 v=94
31530 Off ch=1 n=c3 v=64
31538 Off ch=1 n=c4 v=64
31586 Off ch=1 n=c5 v=64
31588 Par ch=1 c=64 v=127
31620 Par ch=1 c=64 v=0
31788 On ch=1 n=f#5 v=84
31788 On ch=1 n=a4 v=85
31791 On ch=1 n=c5 v=91
31791 On ch=1 n=d4 v=98
31802 On ch=1 n=a3 v=74
31802 On ch=1 n=d3 v=91
31828 Off ch=1 n=d4 v=64
31836 Off ch=1 n=d3 v=64
31842 Off ch=1 n=a3 v=64
31866 Par ch=1 c=64 v=127
31896 Off ch=1 n=a4 v=64
31904 Off ch=1 n=c5 v=64
31912 Par ch=1 c=64 v=0
31950 Off ch=1 n=f#5 v=64
32158 On ch=1 n=g5 v=98
32160 On ch=1 n=a#4 v=79
32160 On ch=1 n=g2 v=99
32162 On ch=1 n=g4 v=98
32162 On ch=1 n=g3 v=95
32196 Off ch=1 n=g3 v=64
32200 Off ch=1 n=g2 v=64
32250 Par ch=1 c=64 v=127
32300 Off ch=1 n=g4 v=64
32340 Off ch=1 n=a#4 v=64
32346 Off ch=1 n=g5 v=64
32526 Par ch=1 c=64 v=0
32932 On ch=1 n=a#5 v=95
32932 On ch=1 n=g6 v=97
32934 On ch=1 n=a#6 v=95
32936 On ch=1 n=g5 v=103
32940 On ch=1 n=a#4 v=82
32940 On ch=1 n=d#6 v=81
32942 On ch=1 n=d#5 v=95
32954 On ch=1 n=g4 v=84
32988 Off ch=1 n=g5 v=64
33012 Off ch=1 n=g4 v=64
33018 Par ch=1 c=64 v=127
33058 Off ch=1 n=d#5 v=64
33070 Off ch=1 n=g6 v=64
33088 Off ch=1 n=d#6 v=64
33094 Off ch=1 n=a#6 v=64
33106 Off ch=1 n=a#4 v=64
33122 Off ch=1 n=a#5 v=64
33322 On ch=1 n=d#5 v=75
33328 On ch=1 n=g5 v=74
33332 On ch=1 n=g6 v=71
33334 On ch=1 n=a#5 v=54
33340 On ch=1 n=g4 v=62
33340 On ch=1 n=d#6 v=49
33342 On ch=1 n=a#4 v=46
33372 Off ch=1 n=d#5 v=64
33380 Off ch=1 n=g5 v=64
33380 Off ch=1 n=g6 v=64
33384 Off ch=1 n=a#5 v=64
33387 Off ch=1 n=g4 v=64
33387 Off ch=1 n=d#6 v=64
33392 Off ch=1 n=a#4 v=64
33434 On ch=1 n=g6 v=80
33434 On ch=1 n=a#5 v=64
33440 On ch=1 n=g5 v=75
33440 On ch=1 n=d#6 v=68
33452 On ch=1 n=d#5 v=70
33452 On ch=1 n=g4 v=81
33452 On ch=1 n=a#4 v=53
33476 Off ch=1 n=g6 v=64
33484 Off ch=1 n=d#6 v=64
33490 Off ch=1 n=g5 v=64
33494 Off ch=1 n=g4 v=64
33496 Off ch=1 n=a#5 v=64
33499 Off ch=1 n=d#5 v=64
33510 Off ch=1 n=a#4 v=64
33560 On ch=1 n=g6 v=63
33566 On ch=1 n=d#5 v=78
33568 On ch=1 n=g5 v=69
33568 On ch=1 n=a#5 v=42
33574 On ch=1 n=d#6 v=47
33574 On ch=1 n=a#4 v=53
33582 On ch=1 n=g4 v=47
33598 Off ch=1 n=g6 v=64
33600 Off ch=1 n=d#5 v=64
33618 Off ch=1 n=d#6 v=64
33630 Off ch=1 n=g4 v=64
33633 Off ch=1 n=a#4 v=64
33640 Off ch=1 n=a#5 v=64
33646 Off ch=1 n=g5 v=64
33792 On ch=1 n=d#5 v=29
33856 Off ch=1 n=d#5 v=64
33908 On ch=1 n=g4 v=71
33908 On ch=1 n=d#3 v=67
33914 On ch=1 n=g5 v=44
33914 On ch=1 n=a#4 v=49
33914 On ch=1 n=a#3 v=77
33918 On ch=1 n=d#5 v=57
33946 Off ch=1 n=d#3 v=64
33956 Off ch=1 n=g4 v=64
33956 Off ch=1 n=a#3 v=64
33962 Off ch=1 n=d#5 v=64
33966 Off ch=1 n=a#4 v=64
33986 Off ch=1 n=g5 v=64
34018 On ch=1 n=a#4 v=62
34021 On ch=1 n=g4 v=71
34022 On ch=1 n=d#5 v=81
34024 On ch=1 n=d#3 v=67
34032 On ch=1 n=g5 v=55
34034 On ch=1 n=a#3 v=38
34058 Off ch=1 n=d#5 v=64
34078 Off ch=1 n=g4 v=64
34084 Off ch=1 n=g5 v=64
34086 Off ch=1 n=a#3 v=64
34094 Off ch=1 n=d#3 v=64
34098 Off ch=1 n=a#4 v=64
34140 On ch=1 n=a#3 v=69
34140 On ch=1 n=d#3 v=67
34144 On ch=1 n=g5 v=71
34152 On ch=1 n=g4 v=28
34154 On ch=1 n=a#4 v=66
34154 On ch=1 n=d#5 v=59
34194 Off ch=1 n=a#4 v=64
34210 Off ch=1 n=a#3 v=64
34210 Off ch=1 n=d#3 v=64
34216 Off ch=1 n=g4 v=64
34216 Off ch=1 n=d#5 v=64
34232 Off ch=1 n=g5 v=64
34440 On ch=1 n=d#6 v=62
34442 On ch=1 n=g6 v=101
34444 On ch=1 n=g5 v=92
34446 On ch=1 n=d#5 v=90
34448 On ch=1 n=a#5 v=42
34460 On ch=1 n=a#4 v=15
34480 Off ch=1 n=d#6 v=64
34486 Off ch=1 n=g5 v=64
34510 Off ch=1 n=g6 v=64
34511 Off ch=1 n=a#5 v=64
34522 Off ch=1 n=a#4 v=64
34548 Off ch=1 n=d#5 v=64
34724 Par ch=1 c=64 v=0
34740 On ch=1 n=a#5 v=83
34742 On ch=1 n=a#4 v=79
34746 On ch=1 n=a#6 v=76
34746 On ch=1 n=g4 v=66
34752 On ch=1 n=g6 v=83
34792 Off ch=1 n=g6 v=64
34814 Off ch=1 n=a#5 v=64
34818 Off ch=1 n=a#6 v=64
34826 Off ch=1 n=g4 v=64
34876 Par ch=1 c=64 v=127
34881 On ch=1 n=c7 v=90
34890 On ch=1 n=c6 v=64
34898 Off ch=1 n=a#4 v=64
34900 On ch=1 n=c5 v=71
34918 Off ch=1 n=c7 v=64
34936 Off ch=1 n=c6 v=64
34974 Off ch=1 n=c5 v=64
35026 On ch=1 n=d7 v=86
35026 On ch=1 n=d6 v=84
35029 On ch=1 n=d5 v=76
35046 Par ch=1 c=64 v=0
35060 Off ch=1 n=d7 v=64
35060 Off ch=1 n=d6 v=64
35082 Off ch=1 n=d5 v=64
35140 On ch=1 n=d#5 v=94
35148 On ch=1 n=d#7 v=84
35158 On ch=1 n=d#6 v=77
35186 Off ch=1 n=d#5 v=64
35242 Off ch=1 n=d#6 v=64
35262 Off ch=1 n=d#7 v=64
35304 On ch=1 n=d7 v=103
35304 On ch=1 n=d6 v=111
35310 On ch=1 n=a#6 v=86
35312 On ch=1 n=d5 v=106
35316 On ch=1 n=a#4 v=81
35320 On ch=1 n=f4 v=98
35336 Off ch=1 n=d7 v=64
35339 Off ch=1 n=d5 v=64
35354 Off ch=1 n=f4 v=64
35358 Off ch=1 n=a#4 v=64
35364 Off ch=1 n=a#6 v=64
35370 Par ch=1 c=64 v=127
35394 Off ch=1 n=d6 v=64
35644 On ch=1 n=f5 v=78
35652 On ch=1 n=a#5 v=52
35652 On ch=1 n=d6 v=66
35652 On ch=1 n=d5 v=63
35652 On ch=1 n=a#4 v=48
35652 On ch=1 n=f6 v=43
35660 On ch=1 n=f4 v=78
35682 Off ch=1 n=f5 v=64
35694 Off ch=1 n=d6 v=64
35698 Off ch=1 n=d5 v=64
35700 Off ch=1 n=a#5 v=64
35702 Off ch=1 n=f4 v=64
35704 Off ch=1 n=f6 v=64
35706 Off ch=1 n=a#4 v=64
35752 On ch=1 n=d6 v=83
35752 On ch=1 n=a#5 v=62
35754 On ch=1 n=f5 v=62
35756 On ch=1 n=a#4 v=67
35762 On ch=1 n=f4 v=98
35762 On ch=1 n=d5 v=70
35764 On ch=1 n=f6 v=43
35800 Off ch=1 n=f5 v=64
35800 Off ch=1 n=f4 v=64
35808 Off ch=1 n=d6 v=64
35810 Off ch=1 n=a#5 v=64
35812 Off ch=1 n=d5 v=64
35816 Off ch=1 n=f6 v=64
35822 Off ch=1 n=a#4 v=64
35876 On ch=1 n=a#5 v=64
35882 On ch=1 n=f5 v=61
35886 On ch=1 n=d6 v=70
35894 On ch=1 n=d5 v=82
35894 On ch=1 n=f6 v=63
35897 On ch=1 n=a#4 v=58
35902 On ch=1 n=f4 v=82
35922 Off ch=1 n=d6 v=64
35925 Off ch=1 n=d5 v=64
35936 Off ch=1 n=f6 v=64
35940 Off ch=1 n=f4 v=64
35942 Off ch=1 n=a#4 v=64
35960 Off ch=1 n=a#5 v=64
35968 Off ch=1 n=f5 v=64
36218 On ch=1 n=a#2 v=67
36224 On ch=1 n=a#3 v=66
36228 On ch=1 n=f5 v=70
36234 On ch=1 n=a#4 v=55
36240 On ch=1 n=f4 v=66
36260 Off ch=1 n=a#2 v=64
36268 Off ch=1 n=f5 v=64
36272 Off ch=1 n=a#3 v=64
36284 Off ch=1 n=a#4 v=64
36290 Off ch=1 n=f4 v=64
36320 On ch=1 n=a#3 v=54
36323 On ch=1 n=a#2 v=57
36326 On ch=1 n=f5 v=73
36330 On ch=1 n=a#4 v=75
36340 On ch=1 n=f4 v=96
36374 Off ch=1 n=f5 v=64
36388 Off ch=1 n=f4 v=64
36400 Off ch=1 n=a#4 v=64
36412 Off ch=1 n=a#3 v=64
36422 Off ch=1 n=a#2 v=64
36450 On ch=1 n=a#4 v=77
36456 On ch=1 n=f4 v=96
36458 On ch=1 n=a#3 v=89
36460 On ch=1 n=f5 v=52
36472 On ch=1 n=a#2 v=18
36494 Off ch=1 n=a#4 v=64
36504 Off ch=1 n=f4 v=64
36505 Off ch=1 n=a#3 v=64
36514 Off ch=1 n=f5 v=64
36532 Off ch=1 n=a#2 v=64
36734 On ch=1 n=f5 v=83
36734 On ch=1 n=f6 v=85
36742 On ch=1 n=a#5 v=61
36742 On ch=1 n=d5 v=84
36742 On ch=1 n=f4 v=72
36745 On ch=1 n=a#4 v=55
36748 On ch=1 n=d6 v=66
36768 Off ch=1 n=f5 v=64
36784 Off ch=1 n=a#5 v=64
36784 Off ch=1 n=d6 v=64
36788 Off ch=1 n=f4 v=64
36810 Off ch=1 n=d5 v=64
36814 Off ch=1 n=a#4 v=64
36818 Off ch=1 n=f6 v=64
36936 Par ch=1 c=64 v=0
37042 On ch=1 n=f4 v=88
37050 On ch=1 n=d5 v=96
37050 On ch=1 n=a#4 v=26
37056 On ch=1 n=d6 v=104
37059 On ch=1 n=d7 v=96
37068 On ch=1 n=a#6 v=60
37082 Off ch=1 n=f4 v=64
37082 Off ch=1 n=d6 v=64
37092 Off ch=1 n=d7 v=64
37099 Off ch=1 n=d5 v=64
37106 Par ch=1 c=64 v=127
37114 Off ch=1 n=a#6 v=64
37122 Off ch=1 n=a#4 v=64
37178 On ch=1 n=e7 v=97
37186 On ch=1 n=e6 v=85
37194 On ch=1 n=e5 v=89
37216 Off ch=1 n=e7 v=64
37219 Off ch=1 n=e6 v=64
37248 Off ch=1 n=e5 v=64
37308 On ch=1 n=f7 v=100
37312 On ch=1 n=f6 v=97
37316 On ch=1 n=f5 v=69
37320 Par ch=1 c=64 v=0
37346 Off ch=1 n=f6 v=64
37360 Off ch=1 n=f5 v=64
37372 Off ch=1 n=f7 v=64
37434 On ch=1 n=g5 v=79
37444 On ch=1 n=g6 v=101
37446 On ch=1 n=g7 v=97
37478 Off ch=1 n=g7 v=64
37490 Off ch=1 n=g6 v=64
37493 Off ch=1 n=g5 v=64
37584 On ch=1 n=f7 v=108
37584 On ch=1 n=f6 v=116
37587 On ch=1 n=f5 v=100
37587 On ch=1 n=d7 v=104
37592 On ch=1 n=d5 v=93
37598 On ch=1 n=a4 v=81
37644 Off ch=1 n=d5 v=64
37644 Par ch=1 c=64 v=127
37658 Off ch=1 n=f5 v=64
37658 Off ch=1 n=a4 v=64
37676 Off ch=1 n=f7 v=64
37678 Off ch=1 n=d7 v=64
37720 Off ch=1 n=f6 v=64
37928 On ch=1 n=f5 v=44
37928 On ch=1 n=a6 v=33
37928 On ch=1 n=f6 v=49
37930 On ch=1 n=f4 v=38
37934 On ch=1 n=a4 v=65
37934 On ch=1 n=d6 v=48
37938 On ch=1 n=a5 v=61
37940 On ch=1 n=d5 v=66
37974 Off ch=1 n=f6 v=64
37979 Off ch=1 n=a6 v=64
37982 Off ch=1 n=f4 v=64
37982 Off ch=1 n=a4 v=64
37982 Off ch=1 n=d6 v=64
37988 Off ch=1 n=d5 v=64
37990 Off ch=1 n=a5 v=64
37992 Off ch=1 n=f5 v=64
38038 On ch=1 n=a5 v=63
38040 On ch=1 n=f5 v=44
38040 On ch=1 n=a6 v=33
38040 On ch=1 n=f6 v=56
38042 On ch=1 n=a4 v=70
38042 On ch=1 n=d5 v=59
38042 On ch=1 n=f4 v=38
38048 On ch=1 n=d6 v=44
38082 Off ch=1 n=f6 v=64
38086 Off ch=1 n=a5 v=64
38086 Off ch=1 n=a4 v=64
38086 Off ch=1 n=d5 v=64
38091 Off ch=1 n=a6 v=64
38094 Off ch=1 n=f4 v=64
38096 Off ch=1 n=d6 v=64
38104 Off ch=1 n=f5 v=64
38150 On ch=1 n=f5 v=100
38150 On ch=1 n=a4 v=61
38153 On ch=1 n=d5 v=83
38153 On ch=1 n=a6 v=91
38153 On ch=1 n=a5 v=59
38158 On ch=1 n=f6 v=83
38160 On ch=1 n=f4 v=55
38174 On ch=1 n=d6 v=80
38184 Off ch=1 n=f5 v=64
38184 Off ch=1 n=a6 v=64
38190 Off ch=1 n=d5 v=64
38192 Off ch=1 n=f6 v=64
38210 Off ch=1 n=d6 v=64
38220 Off ch=1 n=f4 v=64
38222 Off ch=1 n=a4 v=64
38228 Off ch=1 n=a5 v=64
38470 On ch=1 n=d5 v=27
38476 On ch=1 n=a5 v=37
38476 On ch=1 n=f5 v=45
38478 On ch=1 n=a3 v=68
38480 On ch=1 n=a4 v=68
38482 On ch=1 n=d3 v=77
38486 On ch=1 n=d4 v=59
38520 Off ch=1 n=d3 v=64
38522 Off ch=1 n=f5 v=64
38524 Off ch=1 n=a3 v=64
38526 Off ch=1 n=a4 v=64
38536 Off ch=1 n=d5 v=64
38540 Off ch=1 n=d4 v=64
38552 Off ch=1 n=a5 v=64
38574 On ch=1 n=d3 v=90
38578 On ch=1 n=a3 v=74
38578 On ch=1 n=d4 v=40
38578 On ch=1 n=a4 v=88
38580 On ch=1 n=d5 v=27
38586 On ch=1 n=a5 v=37
38586 On ch=1 n=f5 v=45
38624 Off ch=1 n=a4 v=64
38627 Off ch=1 n=d3 v=64
38632 Off ch=1 n=f5 v=64
38636 Off ch=1 n=d4 v=64
38638 Off ch=1 n=a3 v=64
38646 Off ch=1 n=d5 v=64
38662 Off ch=1 n=a5 v=64
38698 On ch=1 n=d3 v=55
38704 On ch=1 n=a3 v=72
38707 On ch=1 n=d4 v=85
38710 On ch=1 n=d5 v=75
38710 On ch=1 n=a4 v=88
38718 On ch=1 n=f5 v=45
38721 On ch=1 n=a5 v=72
38746 Off ch=1 n=d3 v=64
38750 Off ch=1 n=a3 v=64
38750 Off ch=1 n=d5 v=64
38756 Off ch=1 n=a4 v=64
38764 Off ch=1 n=f5 v=64
38766 Off ch=1 n=d4 v=64
38804 Off ch=1 n=a5 v=64
39006 On ch=1 n=f6 v=86
39006 On ch=1 n=a5 v=61
39006 On ch=1 n=d6 v=77
39012 On ch=1 n=f5 v=87
39016 On ch=1 n=d5 v=79
39020 On ch=1 n=f4 v=77
39025 On ch=1 n=a4 v=32
39052 Off ch=1 n=d6 v=64
39056 Off ch=1 n=f5 v=64
39060 Off ch=1 n=a5 v=64
39064 Off ch=1 n=d5 v=64
39072 Off ch=1 n=f4 v=64
39096 Off ch=1 n=f6 v=64
39096 Off ch=1 n=a4 v=64
39210 Par ch=1 c=64 v=0
39272 On ch=1 n=a4 v=74
39276 On ch=1 n=a5 v=90
39288 On ch=1 n=a6 v=75
39290 On ch=1 n=f4 v=77
39294 On ch=1 n=f6 v=50
39310 Off ch=1 n=a5 v=64
39328 Off ch=1 n=a6 v=64
39344 Off ch=1 n=f4 v=64
39344 Off ch=1 n=f6 v=64
39364 Par ch=1 c=64 v=127
39396 Off ch=1 n=a4 v=64
39402 On ch=1 n=b4 v=74
39402 On ch=1 n=b6 v=116
39405 On ch=1 n=b5 v=98
39438 Off ch=1 n=b6 v=64
39442 Off ch=1 n=b5 v=64
39470 Off ch=1 n=b4 v=64
39514 On ch=1 n=c5 v=69
39534 On ch=1 n=c7 v=94
39537 On ch=1 n=c6 v=80
39566 Off ch=1 n=c7 v=64
39574 Off ch=1 n=c6 v=64
39610 Off ch=1 n=c5 v=64
39610 Par ch=1 c=64 v=0
39638 On ch=1 n=d5 v=92
39658 On ch=1 n=d6 v=89
39664 On ch=1 n=d7 v=74
39674 Off ch=1 n=d5 v=64
39692 Off ch=1 n=d6 v=64
39708 Off ch=1 n=d7 v=64
39776 On ch=1 n=c5 v=106
39778 On ch=1 n=c7 v=108
39780 On ch=1 n=c6 v=111
39784 On ch=1 n=a6 v=103
39788 On ch=1 n=a4 v=80
39802 On ch=1 n=f4 v=92
39886 Par ch=1 c=64 v=127
39920 Off ch=1 n=f4 v=64
39928 Off ch=1 n=c7 v=64
39936 Off ch=1 n=a6 v=64
39942 Off ch=1 n=c6 v=64
39954 Off ch=1 n=c5 v=64
39954 Off ch=1 n=a4 v=64
40092 On ch=1 n=f5 v=70
40092 On ch=1 n=a6 v=83
40094 On ch=1 n=f4 v=81
40097 On ch=1 n=a5 v=93
40102 On ch=1 n=c5 v=59
40104 On ch=1 n=c6 v=64
40104 On ch=1 n=a4 v=56
40110 On ch=1 n=f6 v=63
40128 Off ch=1 n=a6 v=64
40130 Off ch=1 n=a5 v=64
40134 Off ch=1 n=f5 v=64
40138 Off ch=1 n=f4 v=64
40150 Off ch=1 n=c6 v=64
40150 Off ch=1 n=f6 v=64
40153 Off ch=1 n=c5 v=64
40153 Off ch=1 n=a4 v=64
40184 On ch=1 n=a5 v=57
40196 On ch=1 n=a6 v=83
40200 On ch=1 n=f5 v=50
40202 On ch=1 n=c6 v=72
40202 On ch=1 n=f6 v=89
40210 On ch=1 n=f4 v=70
40214 On ch=1 n=a4 v=69
40220 On ch=1 n=c5 v=66
40232 Off ch=1 n=a6 v=64
40238 Off ch=1 n=f6 v=64
40242 Off ch=1 n=a5 v=64
40248 Off ch=1 n=c6 v=64
40260 Off ch=1 n=f5 v=64
40260 Off ch=1 n=a4 v=64
40262 Off ch=1 n=f4 v=64
40268 Off ch=1 n=c5 v=64
40318 On ch=1 n=a6 v=83
40318 On ch=1 n=f6 v=60
40318 On ch=1 n=a5 v=77
40321 On ch=1 n=f5 v=87
40326 On ch=1 n=a4 v=61
40329 On ch=1 n=c5 v=73
40329 On ch=1 n=c6 v=57
40332 On ch=1 n=f4 v=90
40352 Off ch=1 n=f5 v=64
40354 Off ch=1 n=a6 v=64
40376 Off ch=1 n=f4 v=64
40379 Off ch=1 n=c5 v=64
40384 Off ch=1 n=c6 v=64
40394 Off ch=1 n=f6 v=64
40406 Off ch=1 n=a4 v=64
40414 Off ch=1 n=a5 v=64
40628 On ch=1 n=c5 v=95
40634 On ch=1 n=f5 v=76
40638 On ch=1 n=c6 v=64
40644 On ch=1 n=a5 v=48
40650 On ch=1 n=f3 v=59
40652 On ch=1 n=f4 v=61
40655 On ch=1 n=c4 v=34
40668 Off ch=1 n=c5 v=64
40674 Off ch=1 n=f5 v=64
40692 Off ch=1 n=c6 v=64
40708 Off ch=1 n=a5 v=64
40722 On ch=1 n=c5 v=79
40728 On ch=1 n=f5 v=76
40746 On ch=1 n=c6 v=14
40756 On ch=1 n=a5 v=46
40766 Off ch=1 n=f3 v=64
40770 Off ch=1 n=f5 v=64
40776 Off ch=1 n=f4 v=64
40776 Off ch=1 n=c5 v=64
40808 Off ch=1 n=c4 v=64
40810 Off ch=1 n=a5 v=64
40814 Off ch=1 n=c6 v=64
40844 On ch=1 n=f4 v=102
40846 On ch=1 n=f3 v=76
40848 On ch=1 n=c5 v=78
40854 On ch=1 n=f5 v=56
40858 On ch=1 n=c4 v=75
40858 On ch=1 n=a5 v=73
40864 On ch=1 n=c6 v=90
40886 Off ch=1 n=f3 v=64
40894 Off ch=1 n=c5 v=64
40894 Off ch=1 n=c4 v=64
40900 Off ch=1 n=f5 v=64
40906 Off ch=1 n=f4 v=64
40908 Off ch=1 n=a5 v=64
40946 Off ch=1 n=c6 v=64
41122 On ch=1 n=a5 v=88
41126 On ch=1 n=c6 v=80
41128 On ch=1 n=a4 v=52
41131 On ch=1 n=f5 v=71
41131 On ch=1 n=f6 v=76
41134 On ch=1 n=a6 v=83
41134 On ch=1 n=f4 v=66
41134 On ch=1 n=c5 v=54
41191 Off ch=1 n=f4 v=64
41194 Off ch=1 n=c6 v=64
41202 Off ch=1 n=a4 v=64
41206 Off ch=1 n=f5 v=64
41206 Off ch=1 n=c5 v=64
41220 Off ch=1 n=a5 v=64
41250 Off ch=1 n=f6 v=64
41250 Off ch=1 n=a6 v=64
41314 Par ch=1 c=64 v=0
41384 On ch=1 n=c6 v=99
41386 On ch=1 n=g#6 v=84
41390 On ch=1 n=c5 v=71
41390 On ch=1 n=c7 v=94
41390 On ch=1 n=g#4 v=58
41396 On ch=1 n=f4 v=49
41414 Off ch=1 n=c6 v=64
41418 Off ch=1 n=g#6 v=64
41422 Off ch=1 n=c7 v=64
41458 Off ch=1 n=f4 v=64
41470 Par ch=1 c=64 v=127
41502 On ch=1 n=d6 v=97
41506 Off ch=1 n=c5 v=64
41506 On ch=1 n=d7 v=98
41518 On ch=1 n=d5 v=81
41524 Off ch=1 n=g#4 v=64
41534 Off ch=1 n=d7 v=64
41540 Off ch=1 n=d6 v=64
41560 Off ch=1 n=d5 v=64
41632 On ch=1 n=d#6 v=88
41634 On ch=1 n=d#5 v=84
41636 On ch=1 n=d#7 v=88
41670 Off ch=1 n=d#7 v=64
41674 Off ch=1 n=d#6 v=64
41680 Off ch=1 n=d#5 v=64
41726 On ch=1 n=f5 v=63
41750 On ch=1 n=f6 v=76
41752 On ch=1 n=f7 v=74
41760 Par ch=1 c=64 v=0
41776 Off ch=1 n=f5 v=64
41790 Off ch=1 n=f6 v=64
41792 Off ch=1 n=f7 v=64
41873 On ch=1 n=d#6 v=110
41876 On ch=1 n=d#7 v=96
41886 On ch=1 n=d#5 v=98
41889 On ch=1 n=c7 v=97
41896 On ch=1 n=c5 v=82
41904 On ch=1 n=g4 v=71
41924 Off ch=1 n=d#5 v=64
41924 Off ch=1 n=c7 v=64
41930 Off ch=1 n=d#7 v=64
41936 Off ch=1 n=c5 v=64
41946 Off ch=1 n=d#6 v=64
41946 Off ch=1 n=g4 v=64
41946 Par ch=1 c=64 v=127
42156 On ch=1 n=d#4 v=82
42164 On ch=1 n=g3 v=71
42176 On ch=1 n=g5 v=80
42178 On ch=1 n=c5 v=77
42202 Off ch=1 n=g3 v=64
42218 Off ch=1 n=d#4 v=64
42222 Off ch=1 n=c5 v=64
42224 Off ch=1 n=g5 v=64
42272 On ch=1 n=d#4 v=82
42276 On ch=1 n=c3 v=88
42276 On ch=1 n=c5 v=81
42279 On ch=1 n=g5 v=50
42318 Off ch=1 n=c5 v=64
42334 Off ch=1 n=d#4 v=64
42334 Off ch=1 n=g5 v=64
42374 Off ch=1 n=c3 v=64
42380 On ch=1 n=c5 v=83
42383 On ch=1 n=g5 v=90
42383 On ch=1 n=d#4 v=107
42386 On ch=1 n=g3 v=71
42420 Off ch=1 n=c5 v=64
42424 Off ch=1 n=g3 v=64
42448 Off ch=1 n=d#4 v=64
42470 Off ch=1 n=g5 v=64
42664 On ch=1 n=d#5 v=74
42674 On ch=1 n=d#7 v=79
42710 Off ch=1 n=d#7 v=64
42740 Off ch=1 n=d#5 v=64
42764 On ch=1 n=f5 v=70
42780 On ch=1 n=f7 v=75
42784 On ch=1 n=f6 v=53
42790 Par ch=1 c=64 v=0
42818 Off ch=1 n=f7 v=64
42830 Off ch=1 n=f6 v=64
42868 Off ch=1 n=f5 v=64
42892 On ch=1 n=g7 v=110
42892 On ch=1 n=g6 v=106
42892 On ch=1 n=d7 v=89
42894 On ch=1 n=f7 v=25
42900 On ch=1 n=g5 v=101
42904 On ch=1 n=a#6 v=83
42904 On ch=1 n=d5 v=93
42904 On ch=1 n=a#4 v=69
42948 Off ch=1 n=d5 v=64
42950 Off ch=1 n=d7 v=64
42960 Off ch=1 n=f7 v=64
42960 Off ch=1 n=a#4 v=64
42972 Off ch=1 n=g7 v=64
42976 Off ch=1 n=a#6 v=64
42980 Off ch=1 n=g5 v=64
42998 Off ch=1 n=g6 v=64
43004 Par ch=1 c=64 v=127
43172 On ch=1 n=g4 v=61
43182 On ch=1 n=a#3 v=60
43190 On ch=1 n=d5 v=76
43192 On ch=1 n=g5 v=78
43224 Off ch=1 n=g4 v=64
43230 Off ch=1 n=d5 v=64
43242 Off ch=1 n=g5 v=64
43264 Off ch=1 n=a#3 v=64
43286 On ch=1 n=d#3 v=90
43288 On ch=1 n=d5 v=75
43298 On ch=1 n=g5 v=46
43328 Off ch=1 n=d5 v=64
43352 Off ch=1 n=g5 v=64
43392 Off ch=1 n=d#3 v=64
43392 On ch=1 n=g5 v=101
43392 On ch=1 n=a#3 v=59
43395 On ch=1 n=d5 v=84
43404 On ch=1 n=g4 v=100
43430 Off ch=1 n=d5 v=64
43440 Off ch=1 n=g4 v=64
43444 Off ch=1 n=a#3 v=64
43462 Off ch=1 n=g5 v=64
43720 On ch=1 n=d5 v=83
43736 On ch=1 n=d7 v=105
43836 Off ch=1 n=d5 v=64
43846 On ch=1 n=g5 v=88
43849 Off ch=1 n=d7 v=64
43853 On ch=1 n=g7 v=101
43886 Off ch=1 n=g5 v=64
43940 Off ch=1 n=g7 v=64
43958 Par ch=1 c=64 v=0
43996 On ch=1 n=a7 v=111
43998 On ch=1 n=a6 v=113
44000 On ch=1 n=a5 v=100
44004 On ch=1 n=d7 v=102
44006 On ch=1 n=a4 v=89
44012 On ch=1 n=e5 v=85
44158 Par ch=1 c=64 v=127
44182 Off ch=1 n=a7 v=64
44186 Off ch=1 n=d7 v=64
44192 Off ch=1 n=a5 v=64
44192 Off ch=1 n=a4 v=64
44206 Off ch=1 n=e5 v=64
44216 Off ch=1 n=a6 v=64
44386 On ch=1 n=d6 v=85
44388 On ch=1 n=a6 v=73
44390 On ch=1 n=g5 v=64
44394 On ch=1 n=e5 v=46
44396 On ch=1 n=e6 v=58
44396 On ch=1 n=a4 v=64
44424 Off ch=1 n=d6 v=64
44424 Off ch=1 n=a6 v=64
44438 Off ch=1 n=g5 v=64
44438 Off ch=1 n=e6 v=64
44441 Off ch=1 n=a4 v=64
44446 Off ch=1 n=e5 v=64
44488 On ch=1 n=a6 v=67
44492 On ch=1 n=e6 v=73
44494 On ch=1 n=d6 v=64
44494 On ch=1 n=e5 v=72
44498 On ch=1 n=g5 v=69
44500 On ch=1 n=a4 v=63
44534 Off ch=1 n=e5 v=64
44538 Off ch=1 n=a6 v=64
44538 Off ch=1 n=d6 v=64
44541 Off ch=1 n=e6 v=64
44558 Off ch=1 n=g5 v=64
44558 Off ch=1 n=a4 v=64
44616 On ch=1 n=a6 v=78
44618 On ch=1 n=d6 v=87
44618 On ch=1 n=g5 v=80
44620 On ch=1 n=e5 v=67
44622 On ch=1 n=e6 v=72
44622 On ch=1 n=a4 v=69
44652 Off ch=1 n=a6 v=64
44655 Off ch=1 n=g5 v=64
44664 Off ch=1 n=e6 v=64
44670 Off ch=1 n=d6 v=64
44670 Off ch=1 n=e5 v=64
44684 Off ch=1 n=a4 v=64
44904 On ch=1 n=e5 v=78
44906 On ch=1 n=g4 v=72
44907 On ch=1 n=d5 v=67
44907 On ch=1 n=a5 v=62
44908 On ch=1 n=a3 v=74
44914 On ch=1 n=e4 v=47
44942 Off ch=1 n=e5 v=64
44950 Off ch=1 n=g4 v=64
44950 Off ch=1 n=d5 v=64
44952 Off ch=1 n=a3 v=64
44958 Off ch=1 n=a5 v=64
44968 Off ch=1 n=e4 v=64
45000 On ch=1 n=g4 v=91
45002 On ch=1 n=a3 v=75
45002 On ch=1 n=e5 v=74
45002 On ch=1 n=a5 v=60
45008 On ch=1 n=e4 v=54
45008 On ch=1 n=d5 v=45
45042 Off ch=1 n=e5 v=64
45050 Off ch=1 n=a3 v=64
45050 Off ch=1 n=a5 v=64
45052 Off ch=1 n=g4 v=64
45056 Off ch=1 n=e4 v=64
45068 Off ch=1 n=d5 v=64
45126 On ch=1 n=a5 v=72
45132 On ch=1 n=e4 v=98
45134 On ch=1 n=g4 v=83
45134 On ch=1 n=e5 v=83
45136 On ch=1 n=a3 v=55
45140 On ch=1 n=d5 v=66
45164 Off ch=1 n=e4 v=64
45176 Off ch=1 n=a5 v=64
45178 Off ch=1 n=g4 v=64
45184 Off ch=1 n=a3 v=64
45188 Off ch=1 n=d5 v=64
45192 Off ch=1 n=e5 v=64
45472 On ch=1 n=a3 v=95
45472 On ch=1 n=a2 v=101
45475 On ch=1 n=c#4 v=75
45476 On ch=1 n=a4 v=71
45478 On ch=1 n=g4 v=32
45480 On ch=1 n=e3 v=100
45508 Off ch=1 n=a2 v=64
45508 Off ch=1 n=e3 v=64
45511 Off ch=1 n=a3 v=64
45514 Off ch=1 n=a4 v=64
45526 Off ch=1 n=c#4 v=64
45538 Off ch=1 n=g4 v=64
45576 On ch=1 n=c#4 v=73
45586 On ch=1 n=a3 v=62
45588 On ch=1 n=g4 v=32
45589 On ch=1 n=e3 v=78
45592 On ch=1 n=a2 v=69
45594 On ch=1 n=a4 v=66
45638 Off ch=1 n=a2 v=64
45638 Off ch=1 n=a4 v=64
45641 Off ch=1 n=e3 v=64
45648 Off ch=1 n=a3 v=64
45648 Off ch=1 n=g4 v=64
45662 Off ch=1 n=c#4 v=64
45694 Par ch=1 c=64 v=0
45716 On ch=1 n=a4 v=53
45718 On ch=1 n=c#4 v=85
45724 On ch=1 n=a3 v=79
45728 On ch=1 n=e3 v=98
45728 On ch=1 n=g4 v=79
45734 On ch=1 n=a2 v=68
45812 Off ch=1 n=a3 v=64
45818 Off ch=1 n=e3 v=64
45850 Off ch=1 n=g4 v=64
45860 Off ch=1 n=a2 v=64
45868 Off ch=1 n=c#4 v=64
45878 Par ch=1 c=64 v=127
45892 Off ch=1 n=a4 v=64
46080 On ch=1 n=g4 v=91
46090 On ch=1 n=g2 v=100
46186 Off ch=1 n=g2 v=64
46210 Off ch=1 n=g4 v=64
46250 On ch=1 n=a4 v=91
46258 On ch=1 n=a2 v=103
46362 Off ch=1 n=a2 v=64
46524 Par ch=1 c=64 v=0
46530 On ch=1 n=d5 v=101
46530 On ch=1 n=d2 v=110
46530 On ch=1 n=d3 v=114
46532 On ch=1 n=d4 v=107
46616 Off ch=1 n=a4 v=64
46732 Off ch=1 n=d2 v=64
46770 Off ch=1 n=d4 v=64
46782 Off ch=1 n=d3 v=64
46816 Par ch=1 c=64 v=127
46868 Off ch=1 n=d5 v=64
47246 On ch=1 n=a5 v=47
47246 On ch=1 n=a7 v=58
47250 On ch=1 n=f#7 v=40
47256 On ch=1 n=d5 v=42
47256 On ch=1 n=f#5 v=30
47256 On ch=1 n=a6 v=59
47256 On ch=1 n=d7 v=31
47260 On ch=1 n=a4 v=39
47308 Off ch=1 n=a5 v=64
47308 Off ch=1 n=f#7 v=64
47310 Off ch=1 n=a6 v=64
47311 Off ch=1 n=d5 v=64
47318 Off ch=1 n=a7 v=64
47318 Off ch=1 n=f#5 v=64
47322 Off ch=1 n=d7 v=64
47326 Off ch=1 n=a4 v=64
47412 On ch=1 n=a7 v=55
47418 On ch=1 n=a5 v=25
47418 On ch=1 n=f#5 v=21
47418 On ch=1 n=a4 v=47
47421 On ch=1 n=a6 v=50
47421 On ch=1 n=d7 v=36
47425 On ch=1 n=f#7 v=28
47425 On ch=1 n=d5 v=31
47474 Off ch=1 n=a7 v=64
47480 Off ch=1 n=a6 v=64
47482 Off ch=1 n=a4 v=64
47483 Off ch=1 n=f#7 v=64
47483 Off ch=1 n=d5 v=64
47487 Off ch=1 n=f#5 v=64
47492 Off ch=1 n=a5 v=64
47492 Off ch=1 n=d7 v=64
47612 On ch=1 n=a7 v=55
47614 On ch=1 n=a4 v=43
47616 On ch=1 n=a6 v=50
47620 On ch=1 n=a5 v=24
47622 On ch=1 n=d5 v=31
47624 On ch=1 n=f#5 v=22
47626 On ch=1 n=d7 v=8
47628 On ch=1 n=f#7 v=32
47670 Off ch=1 n=a7 v=64
47670 Off ch=1 n=a6 v=64
47680 Off ch=1 n=a4 v=64
47680 Off ch=1 n=d5 v=64
47684 Off ch=1 n=d7 v=64
47692 Off ch=1 n=a5 v=64
47694 Off ch=1 n=f#7 v=64
47700 Off ch=1 n=f#5 v=64
47764 On ch=1 n=a#7 v=65
47764 On ch=1 n=d7 v=44
47767 On ch=1 n=a#5 v=61
47767 On ch=1 n=a#6 v=65
47767 On ch=1 n=f#7 v=46
47778 On ch=1 n=d5 v=50
47780 On ch=1 n=a#4 v=37
47790 On ch=1 n=f#5 v=43
47806 Off ch=1 n=a#7 v=64
47816 Off ch=1 n=d7 v=64
47816 Off ch=1 n=a#5 v=64
47818 Off ch=1 n=a#6 v=64
47822 Off ch=1 n=f#7 v=64
47830 Off ch=1 n=d5 v=64
47839 Off ch=1 n=f#5 v=64
47850 Off ch=1 n=a#4 v=64
47898 On ch=1 n=a#6 v=58
47902 On ch=1 n=a#4 v=67
47902 On ch=1 n=d7 v=53
47904 On ch=1 n=f#7 v=40
47907 On ch=1 n=a#5 v=43
47907 On ch=1 n=a#7 v=29
47910 On ch=1 n=f#5 v=41
47912 On ch=1 n=d5 v=49
47948 Off ch=1 n=a#6 v=64
47958 Off ch=1 n=a#4 v=64
47958 Off ch=1 n=d7 v=64
47958 Off ch=1 n=f#7 v=64
47961 Off ch=1 n=a#5 v=64
47961 Off ch=1 n=f#5 v=64
47961 Off ch=1 n=d5 v=64
47965 Off ch=1 n=a#7 v=64
48032 On ch=1 n=f#5 v=48
48032 On ch=1 n=d5 v=65
48034 On ch=1 n=a5 v=73
48044 On ch=1 n=d7 v=43
48044 On ch=1 n=a6 v=74
48044 On ch=1 n=a4 v=66
48044 On ch=1 n=f#7 v=32
48050 On ch=1 n=a7 v=55
48078 Off ch=1 n=a5 v=64
48081 Off ch=1 n=a6 v=64
48086 Off ch=1 n=f#5 v=64
48086 Off ch=1 n=d5 v=64
48089 Off ch=1 n=a4 v=64
48094 Off ch=1 n=d7 v=64
48104 Off ch=1 n=f#7 v=64
48104 Off ch=1 n=a7 v=64
48162 On ch=1 n=a7 v=76
48162 On ch=1 n=a6 v=63
48162 On ch=1 n=d7 v=71
48162 On ch=1 n=f#7 v=70
48170 On ch=1 n=a5 v=32
48172 On ch=1 n=a4 v=63
48174 On ch=1 n=d5 v=65
48180 On ch=1 n=f#5 v=38
48200 Off ch=1 n=a7 v=64
48204 Off ch=1 n=a6 v=64
48212 Off ch=1 n=d7 v=64
48212 Off ch=1 n=a4 v=64
48220 Off ch=1 n=d5 v=64
48222 Off ch=1 n=f#7 v=64
48228 Off ch=1 n=a5 v=64
48234 Off ch=1 n=f#5 v=64
48286 On ch=1 n=d5 v=76
48288 On ch=1 n=a#7 v=88
48288 On ch=1 n=a#5 v=82
48290 On ch=1 n=a#6 v=95
48292 On ch=1 n=d7 v=69
48292 On ch=1 n=a#4 v=48
48296 On ch=1 n=f#5 v=52
48296 On ch=1 n=f#7 v=61
48324 Off ch=1 n=a#7 v=64
48326 Off ch=1 n=a#5 v=64
48332 Off ch=1 n=d5 v=64
48334 Off ch=1 n=a#6 v=64
48338 Off ch=1 n=f#7 v=64
48342 Off ch=1 n=f#5 v=64
48344 Off ch=1 n=d7 v=64
48348 Off ch=1 n=a#4 v=64
48398 On ch=1 n=a#5 v=57
48408 On ch=1 n=f#5 v=52
48410 On ch=1 n=f#7 v=50
48410 On ch=1 n=a#6 v=79
48410 On ch=1 n=a#7 v=68
48417 On ch=1 n=d7 v=64
48417 On ch=1 n=d5 v=48
48428 On ch=1 n=a#4 v=48
48454 Off ch=1 n=a#7 v=64
48462 Off ch=1 n=a#5 v=64
48462 Off ch=1 n=f#5 v=64
48468 Off ch=1 n=f#7 v=64
48468 Off ch=1 n=a#6 v=64
48468 Off ch=1 n=d7 v=64
48468 Off ch=1 n=d5 v=64
48484 Off ch=1 n=a#4 v=64
48534 On ch=1 n=a5 v=74
48534 On ch=1 n=f#5 v=48
48537 On ch=1 n=d5 v=63
48542 On ch=1 n=a4 v=72
48544 On ch=1 n=f#7 v=53
48546 On ch=1 n=d7 v=57
48556 On ch=1 n=a6 v=67
48556 On ch=1 n=a7 v=64
48578 Off ch=1 n=a5 v=64
48584 Off ch=1 n=f#5 v=64
48584 Off ch=1 n=a4 v=64
48587 Off ch=1 n=d5 v=64
48592 Off ch=1 n=f#7 v=64
48594 Off ch=1 n=d7 v=64
48598 Off ch=1 n=a6 v=64
48602 Off ch=1 n=a7 v=64
48654 On ch=1 n=a5 v=58
48658 On ch=1 n=a4 v=46
48662 On ch=1 n=d5 v=76
48664 On ch=1 n=a6 v=79
48666 On ch=1 n=f#5 v=47
48670 On ch=1 n=f#7 v=66
48670 On ch=1 n=a7 v=63
48670 On ch=1 n=d7 v=70
48698 Off ch=1 n=a5 v=64
48710 Off ch=1 n=f#5 v=64
48712 Off ch=1 n=a4 v=64
48712 Off ch=1 n=a7 v=64
48714 Off ch=1 n=a6 v=64
48726 Off ch=1 n=d5 v=64
48732 Off ch=1 n=d7 v=64
48738 Off ch=1 n=f#7 v=64
48786 On ch=1 n=a#5 v=91
48794 On ch=1 n=d5 v=83
48798 On ch=1 n=a#6 v=98
48798 On ch=1 n=d#7 v=68
48802 On ch=1 n=f#5 v=32
48804 On ch=1 n=a#7 v=80
48806 On ch=1 n=f#7 v=67
48808 On ch=1 n=a#4 v=43
48832 Off ch=1 n=a#5 v=64
48836 Off ch=1 n=a#6 v=64
48838 Off ch=1 n=a#7 v=64
48840 Off ch=1 n=d5 v=64
48840 Off ch=1 n=d#7 v=64
48846 Off ch=1 n=f#7 v=64
48854 Off ch=1 n=f#5 v=64
48874 Off ch=1 n=a#4 v=64
48920 On ch=1 n=a#7 v=28
48924 On ch=1 n=d7 v=57
48924 On ch=1 n=f#7 v=45
48928 On ch=1 n=a#5 v=68
48930 On ch=1 n=a#6 v=76
48930 On ch=1 n=f#5 v=32
48932 On ch=1 n=a#4 v=52
48932 On ch=1 n=d5 v=44
48972 Off ch=1 n=a#5 v=64
48984 Off ch=1 n=d5 v=64
48986 Off ch=1 n=a#6 v=64
48986 Off ch=1 n=f#5 v=64
48986 Off ch=1 n=a#4 v=64
48989 Off ch=1 n=a#7 v=64
49008 Off ch=1 n=d7 v=64
49030 Off ch=1 n=f#7 v=64
49060 On ch=1 n=d5 v=74
49064 On ch=1 n=f#5 v=54
49066 On ch=1 n=a5 v=80
49072 On ch=1 n=a7 v=75
49072 On ch=1 n=a4 v=71
49075 On ch=1 n=d7 v=70
49075 On ch=1 n=a6 v=75
49079 On ch=1 n=f#7 v=55
49110 Off ch=1 n=a5 v=64
49116 Off ch=1 n=a4 v=64
49120 Off ch=1 n=a7 v=64
49124 Off ch=1 n=f#5 v=64
49134 Off ch=1 n=f#7 v=64
49136 Off ch=1 n=a6 v=64
49144 Off ch=1 n=d7 v=64
49150 Off ch=1 n=d5 v=64
49212 Par ch=1 c=64 v=0
49234 On ch=1 n=a5 v=106
49234 On ch=1 n=a6 v=105
49234 On ch=1 n=a7 v=106
49234 On ch=1 n=f#7 v=82
49237 On ch=1 n=d5 v=90
49237 On ch=1 n=d7 v=90
49238 On ch=1 n=f#5 v=55
49246 On ch=1 n=a4 v=88
49316 Off ch=1 n=f#5 v=64
49344 Off ch=1 n=a5 v=64
49352 Off ch=1 n=a4 v=64
49362 Off ch=1 n=a7 v=64
49366 Par ch=1 c=64 v=127
49368 Off ch=1 n=a6 v=64
49370 Off ch=1 n=d5 v=64
49394 Off ch=1 n=f#7 v=64
49398 Off ch=1 n=d7 v=64
49534 On ch=1 n=f#6 v=83
49534 On ch=1 n=f#7 v=73
49534 On ch=1 n=f#5 v=71
49550 Par ch=1 c=64 v=0
49568 Off ch=1 n=f#6 v=64
49576 Off ch=1 n=f#7 v=64
49578 Off ch=1 n=f#5 v=64
49644 On ch=1 n=d#6 v=86
49644 On ch=1 n=d#5 v=88
49646 On ch=1 n=d#7 v=78
49694 Off ch=1 n=d#7 v=64
49706 Off ch=1 n=d#5 v=64
49728 Off ch=1 n=d#6 v=64
49786 On ch=1 n=d5 v=89
49786 On ch=1 n=d6 v=80
49789 On ch=1 n=d7 v=77
49822 Off ch=1 n=d6 v=64
49826 Off ch=1 n=d7 v=64
49828 Off ch=1 n=d5 v=64
49912 On ch=1 n=c6 v=89
49915 On ch=1 n=c5 v=88
49928 On ch=1 n=c7 v=57
49944 Off ch=1 n=c6 v=64
49960 Off ch=1 n=c5 v=64
49976 Off ch=1 n=c7 v=64
50036 On ch=1 n=a#4 v=83
50042 On ch=1 n=a#6 v=87
50045 On ch=1 n=a#5 v=91
50092 Off ch=1 n=a#4 v=64
50094 Off ch=1 n=a#6 v=64
50098 Off ch=1 n=a#5 v=64
50172 On ch=1 n=a4 v=89
50175 On ch=1 n=a5 v=84
50184 On ch=1 n=a6 v=68
50210 Off ch=1 n=a5 v=64
50228 Off ch=1 n=a4 v=64
50228 Off ch=1 n=a6 v=64
50308 On ch=1 n=f#4 v=101
50310 On ch=1 n=f#5 v=97
50316 On ch=1 n=f#6 v=89
50340 Off ch=1 n=f#5 v=64
50342 Off ch=1 n=f#6 v=64
50378 Off ch=1 n=f#4 v=64
50430 On ch=1 n=d#5 v=95
50434 On ch=1 n=d#6 v=84
50436 On ch=1 n=d#4 v=88
50488 Off ch=1 n=d#4 v=64
50498 Off ch=1 n=d#6 v=64
50538 Off ch=1 n=d#5 v=64
50558 On ch=1 n=d4 v=94
50564 On ch=1 n=d6 v=85
50572 On ch=1 n=d5 v=68
50598 Off ch=1 n=d6 v=64
50614 Off ch=1 n=d4 v=64
50614 Off ch=1 n=d5 v=64
50684 On ch=1 n=c5 v=88
50692 On ch=1 n=c6 v=71
50695 On ch=1 n=c4 v=84
50734 Off ch=1 n=c6 v=64
50744 Off ch=1 n=c4 v=64
50750 Off ch=1 n=c5 v=64
50812 On ch=1 n=a#3 v=85
50822 On ch=1 n=a#4 v=86
50822 On ch=1 n=a#5 v=75
50880 Off ch=1 n=a#3 v=64
50932 Off ch=1 n=a#4 v=64
50932 Off ch=1 n=a#5 v=64
50942 On ch=1 n=a3 v=91
50954 On ch=1 n=a4 v=84
50960 On ch=1 n=a5 v=59
51048 Off ch=1 n=a3 v=64
51052 Off ch=1 n=a4 v=64
51054 On ch=1 n=f#3 v=78
51066 On ch=1 n=f#5 v=75
51084 Off ch=1 n=a5 v=64
51174 Off ch=1 n=f#3 v=64
51177 On ch=1 n=d3 v=87
51181 On ch=1 n=d5 v=90
51188 Off ch=1 n=f#5 v=64
51218 Off ch=1 n=d5 v=64
51220 Off ch=1 n=d3 v=64
51358 On ch=1 n=g3 v=105
51358 On ch=1 n=g2 v=106
51361 On ch=1 n=g4 v=115
51386 Off ch=1 n=g2 v=64
51426 Off ch=1 n=g4 v=64
51458 Off ch=1 n=g3 v=64
51486 Par ch=1 c=64 v=127
51738 On ch=1 n=d5 v=65
51744 On ch=1 n=g4 v=38
51746 On ch=1 n=d4 v=62
51750 On ch=1 n=a#5 v=54
51750 On ch=1 n=g5 v=61
51756 On ch=1 n=a#4 v=22
51758 On ch=1 n=d6 v=61
51788 Off ch=1 n=d5 v=64
51798 Off ch=1 n=a#5 v=64
51800 Off ch=1 n=g4 v=64
51800 Off ch=1 n=g5 v=64
51800 Off ch=1 n=d6 v=64
51804 Off ch=1 n=d4 v=64
51824 Off ch=1 n=a#4 v=64
51854 On ch=1 n=a#5 v=68
51860 On ch=1 n=d4 v=35
51864 On ch=1 n=d6 v=72
51864 On ch=1 n=a#4 v=22
51866 On ch=1 n=g5 v=66
51866 On ch=1 n=d5 v=63
51882 On ch=1 n=g4 v=38
51912 Off ch=1 n=d6 v=64
51912 Off ch=1 n=d5 v=64
51915 Off ch=1 n=g5 v=64
51920 Off ch=1 n=d4 v=64
51932 Off ch=1 n=a#4 v=64
51938 Off ch=1 n=g4 v=64
51944 Off ch=1 n=a#5 v=64
51988 On ch=1 n=d6 v=72
51991 On ch=1 n=g5 v=70
51998 On ch=1 n=d5 v=68
52000 On ch=1 n=a#5 v=62
52000 On ch=1 n=a#4 v=62
52004 On ch=1 n=d4 v=57
52008 On ch=1 n=g4 v=68
52026 Off ch=1 n=d6 v=64
52038 Off ch=1 n=d5 v=64
52044 Off ch=1 n=a#5 v=64
52062 Off ch=1 n=g5 v=64
52062 Off ch=1 n=g4 v=64
52088 Off ch=1 n=a#4 v=64
52120 Off ch=1 n=d4 v=64
52240 Par ch=1 c=64 v=0
52276 On ch=1 n=a#4 v=82
52281 On ch=1 n=a#3 v=95
52288 On ch=1 n=a#2 v=93
52322 Off ch=1 n=a#2 v=64
52344 Off ch=1 n=a#3 v=64
52412 Off ch=1 n=a#4 v=64
52558 On ch=1 n=d4 v=112
52561 On ch=1 n=d3 v=104
52568 On ch=1 n=d5 v=97
52588 Off ch=1 n=d3 v=64
52594 Par ch=1 c=64 v=127
52614 Off ch=1 n=d5 v=64
52666 Off ch=1 n=d4 v=64
52846 On ch=1 n=a#5 v=75
52846 On ch=1 n=g5 v=84
52849 On ch=1 n=d5 v=89
52849 On ch=1 n=d6 v=89
52852 On ch=1 n=g4 v=73
52858 On ch=1 n=d4 v=62
52858 On ch=1 n=a#4 v=53
52882 Off ch=1 n=d5 v=64
52890 Off ch=1 n=d6 v=64
52896 Off ch=1 n=g4 v=64
52898 Off ch=1 n=g5 v=64
52902 Off ch=1 n=a#5 v=64
52908 Off ch=1 n=a#4 v=64
52936 Off ch=1 n=d4 v=64
53008 Par ch=1 c=64 v=0
53128 On ch=1 n=a#3 v=94
53132 On ch=1 n=a#2 v=90
53136 On ch=1 n=a#4 v=96
53168 Off ch=1 n=a#2 v=64
53208 Par ch=1 c=64 v=127
53216 Off ch=1 n=a#4 v=64
53222 Off ch=1 n=a#3 v=64
53430 On ch=1 n=d5 v=87
53430 On ch=1 n=d6 v=98
53436 On ch=1 n=a#4 v=67
53438 On ch=1 n=a#5 v=72
53438 On ch=1 n=g5 v=84
53444 On ch=1 n=d4 v=69
53446 On ch=1 n=g4 v=71
53464 Off ch=1 n=d5 v=64
53468 Off ch=1 n=d6 v=64
53478 Off ch=1 n=g5 v=64
53480 Off ch=1 n=a#5 v=64
53482 Off ch=1 n=a#4 v=64
53490 Off ch=1 n=g4 v=64
53540 Off ch=1 n=d4 v=64
53652 Par ch=1 c=64 v=0
53804 On ch=1 n=g2 v=101
53804 On ch=1 n=g3 v=103
53807 On ch=1 n=g4 v=111
53834 Off ch=1 n=g2 v=64
53874 Off ch=1 n=g4 v=64
53884 Par ch=1 c=64 v=127
53904 Off ch=1 n=g3 v=64
54040 On ch=1 n=f#4 v=20
54102 Off ch=1 n=f#4 v=64
54178 On ch=1 n=d5 v=76
54186 On ch=1 n=a#5 v=64
54186 On ch=1 n=a#4 v=19
54186 On ch=1 n=d6 v=51
54188 On ch=1 n=d4 v=60
54190 On ch=1 n=g5 v=71
54190 On ch=1 n=g4 v=64
54224 Off ch=1 n=d5 v=64
54230 Off ch=1 n=a#5 v=64
54232 Off ch=1 n=g5 v=64
54234 Off ch=1 n=d6 v=64
54244 Off ch=1 n=d4 v=64
54244 Off ch=1 n=g4 v=64
54260 Off ch=1 n=a#4 v=64
54299 On ch=1 n=a#5 v=46
54299 On ch=1 n=g5 v=62
54308 On ch=1 n=g4 v=41
54312 On ch=1 n=a#4 v=19
54314 On ch=1 n=d6 v=80
54316 On ch=1 n=d5 v=63
54320 On ch=1 n=d4 v=65
54348 Off ch=1 n=d6 v=64
54358 Off ch=1 n=a#5 v=64
54366 Off ch=1 n=g5 v=64
54366 Off ch=1 n=d5 v=64
54370 Off ch=1 n=g4 v=64
54370 Off ch=1 n=d4 v=64
54386 Off ch=1 n=a#4 v=64
54424 On ch=1 n=d6 v=63
54427 On ch=1 n=g5 v=92
54432 On ch=1 n=a#5 v=61
54432 On ch=1 n=a#4 v=19
54434 On ch=1 n=d5 v=85
54436 On ch=1 n=g4 v=85
54440 On ch=1 n=d4 v=54
54470 Off ch=1 n=d5 v=64
54483 Off ch=1 n=g4 v=64
54484 Off ch=1 n=d6 v=64
54500 Off ch=1 n=a#5 v=64
54506 Off ch=1 n=a#4 v=64
54520 Off ch=1 n=d4 v=64
54532 Off ch=1 n=g5 v=64
54728 On ch=1 n=a#4 v=93
54738 On ch=1 n=a#3 v=92
54748 On ch=1 n=a#2 v=90
54782 Off ch=1 n=a#2 v=64
54828 Off ch=1 n=a#3 v=64
54842 Off ch=1 n=a#4 v=64
54912 Par ch=1 c=64 v=0
55038 On ch=1 n=d4 v=112
55040 On ch=1 n=d5 v=105
55044 On ch=1 n=d3 v=97
55074 Off ch=1 n=d3 v=64
55114 Off ch=1 n=d5 v=64
55128 Par ch=1 c=64 v=127
55132 Off ch=1 n=d4 v=64
55332 On ch=1 n=a#5 v=79
55334 On ch=1 n=d6 v=88
55336 On ch=1 n=g5 v=82
55336 On ch=1 n=d5 v=83
55344 On ch=1 n=d4 v=64
55346 On ch=1 n=a#4 v=52
55354 On ch=1 n=g4 v=56
55365 Off ch=1 n=d6 v=64
55374 Off ch=1 n=g5 v=64
55374 Off ch=1 n=d5 v=64
55376 Off ch=1 n=a#5 v=64
55396 Off ch=1 n=a#4 v=64
55402 Off ch=1 n=g4 v=64
55430 Off ch=1 n=d4 v=64
55498 Par ch=1 c=64 v=0
55596 On ch=1 n=a#3 v=94
55600 On ch=1 n=a#4 v=95
55604 On ch=1 n=a#2 v=88
55636 Off ch=1 n=a#2 v=64
55682 Off ch=1 n=a#3 v=64
55682 Off ch=1 n=a#4 v=64
55682 Par ch=1 c=64 v=127
55880 On ch=1 n=d6 v=97
55880 On ch=1 n=d5 v=76
55882 On ch=1 n=g5 v=92
55886 On ch=1 n=a#5 v=77
55890 On ch=1 n=a#4 v=55
55892 On ch=1 n=g4 v=76
55896 On ch=1 n=d4 v=51
55918 Off ch=1 n=d6 v=64
55921 Off ch=1 n=d5 v=64
55921 Off ch=1 n=g5 v=64
55925 Off ch=1 n=a#5 v=64
55930 Off ch=1 n=g4 v=64
55936 Off ch=1 n=a#4 v=64
55968 Off ch=1 n=d4 v=64
56082 Par ch=1 c=64 v=0
56220 On ch=1 n=g4 v=110
56223 On ch=1 n=g2 v=92
56226 On ch=1 n=g3 v=92
56258 Off ch=1 n=g2 v=64
56294 Off ch=1 n=g4 v=64
56297 Par ch=1 c=64 v=127
56314 Off ch=1 n=g3 v=64
56572 On ch=1 n=a#4 v=47
56576 On ch=1 n=d5 v=65
56576 On ch=1 n=d4 v=74
56578 On ch=1 n=g4 v=37
56592 On ch=1 n=g5 v=70
56592 On ch=1 n=a#5 v=64
56592 On ch=1 n=d6 v=72
56620 Off ch=1 n=d5 v=64
56624 Off ch=1 n=d4 v=64
56630 Off ch=1 n=d6 v=64
56636 Off ch=1 n=g5 v=64
56636 Off ch=1 n=a#5 v=64
56644 Off ch=1 n=a#4 v=64
56650 Off ch=1 n=g4 v=64
56680 On ch=1 n=d4 v=94
56680 On ch=1 n=d5 v=83
56683 On ch=1 n=a#5 v=71
56688 On ch=1 n=g4 v=37
56690 On ch=1 n=d6 v=76
56694 On ch=1 n=g5 v=72
56696 On ch=1 n=a#4 v=2
56696 Par ch=1 c=64 v=0
56736 Off ch=1 n=d6 v=64
56752 Off ch=1 n=d4 v=64
56752 Off ch=1 n=d5 v=64
56752 Off ch=1 n=g5 v=64
56755 Off ch=1 n=a#4 v=64
56760 Off ch=1 n=g4 v=64
56784 Off ch=1 n=a#5 v=64
56822 On ch=1 n=d5 v=83
56822 On ch=1 n=d6 v=83
56824 On ch=1 n=d4 v=85
56826 On ch=1 n=a#4 v=47
56828 On ch=1 n=g4 v=74
56828 On ch=1 n=g5 v=77
56834 On ch=1 n=a#5 v=86
56914 Off ch=1 n=d5 v=64
56914 Off ch=1 n=d6 v=64
56926 Par ch=1 c=64 v=127
56938 Off ch=1 n=a#5 v=64
56942 Off ch=1 n=g4 v=64
56954 Off ch=1 n=g5 v=64
56966 Off ch=1 n=a#4 v=64
56990 Off ch=1 n=d4 v=64
57114 On ch=1 n=d4 v=85
57117 On ch=1 n=d5 v=89
57232 Off ch=1 n=d5 v=64
57234 On ch=1 n=f5 v=86
57236 On ch=1 n=f4 v=106
57250 Off ch=1 n=d4 v=64
57280 Par ch=1 c=64 v=0
57284 Off ch=1 n=f4 v=64
57338 Off ch=1 n=f5 v=64
57376 On ch=1 n=g5 v=98
57390 On ch=1 n=g4 v=104
57390 On ch=1 n=g3 v=100
57530 Off ch=1 n=g3 v=64
57552 Off ch=1 n=g4 v=64
57572 Par ch=1 c=64 v=127
57624 Off ch=1 n=g5 v=64
57692 On ch=1 n=g5 v=59
57692 On ch=1 n=d4 v=81
57692 On ch=1 n=a#4 v=31
57694 On ch=1 n=d5 v=72
57700 On ch=1 n=a#5 v=58
57734 Off ch=1 n=d4 v=64
57738 Off ch=1 n=d5 v=64
57742 Off ch=1 n=g5 v=64
57752 Off ch=1 n=a#5 v=64
57758 Off ch=1 n=a#4 v=64
57802 On ch=1 n=d4 v=63
57804 On ch=1 n=a#4 v=31
57806 On ch=1 n=g5 v=61
57810 On ch=1 n=a#5 v=67
57820 On ch=1 n=d5 v=41
57860 Off ch=1 n=d4 v=64
57862 Off ch=1 n=a#5 v=64
57870 Off ch=1 n=a#4 v=64
57870 Off ch=1 n=g5 v=64
57880 Off ch=1 n=d5 v=64
57930 On ch=1 n=g5 v=76
57932 On ch=1 n=a#5 v=55
57944 On ch=1 n=a#4 v=65
57946 On ch=1 n=d4 v=68
57950 On ch=1 n=d5 v=60
57984 Off ch=1 n=g5 v=64
57998 Off ch=1 n=d5 v=64
58008 Off ch=1 n=a#5 v=64
58010 Off ch=1 n=d4 v=64
58032 Off ch=1 n=a#4 v=64
58204 On ch=1 n=a#3 v=67
58210 On ch=1 n=a#4 v=67
58314 On ch=1 n=d4 v=90
58317 On ch=1 n=d5 v=82
58340 Off ch=1 n=a#4 v=64
58356 Off ch=1 n=a#3 v=64
58374 Off ch=1 n=d4 v=64
58402 Par ch=1 c=64 v=0
58438 Off ch=1 n=d5 v=64
58472 On ch=1 n=f5 v=98
58476 On ch=1 n=f4 v=104
58478 On ch=1 n=f3 v=101
58582 Off ch=1 n=f3 v=64
58604 Off ch=1 n=f4 v=64
58632 Par ch=1 c=64 v=127
58714 Off ch=1 n=f5 v=64
58754 On ch=1 n=d4 v=78
58758 On ch=1 n=a#5 v=64
58760 On ch=1 n=d6 v=57
58763 On ch=1 n=a#4 v=29
58764 On ch=1 n=d5 v=85
58796 Off ch=1 n=d4 v=64
58802 Off ch=1 n=a#5 v=64
58802 Off ch=1 n=d6 v=64
58802 Off ch=1 n=d5 v=64
58832 Off ch=1 n=a#4 v=64
58880 On ch=1 n=d4 v=73
58884 On ch=1 n=d5 v=51
58884 On ch=1 n=a#4 v=29
58892 On ch=1 n=a#5 v=47
58894 On ch=1 n=d6 v=70
58938 Off ch=1 n=d6 v=64
58942 Off ch=1 n=d5 v=64
58948 Off ch=1 n=d4 v=64
58950 Off ch=1 n=a#5 v=64
58953 Off ch=1 n=a#4 v=64
59016 On ch=1 n=d6 v=74
59019 On ch=1 n=a#5 v=67
59022 On ch=1 n=d5 v=79
59024 On ch=1 n=d4 v=84
59032 On ch=1 n=a#4 v=65
59068 Off ch=1 n=d6 v=64
59112 Off ch=1 n=d5 v=64
59118 Off ch=1 n=a#5 v=64
59124 Off ch=1 n=a#4 v=64
59132 Off ch=1 n=d4 v=64
59292 On ch=1 n=a#3 v=76
59294 On ch=1 n=a#4 v=74
59398 On ch=1 n=d4 v=91
59416 On ch=1 n=d5 v=87
59436 Off ch=1 n=a#3 v=64
59438 Off ch=1 n=a#4 v=64
59446 Off ch=1 n=d4 v=64
59476 Off ch=1 n=d5 v=64
59478 Par ch=1 c=64 v=0
59562 On ch=1 n=d#5 v=105
59564 On ch=1 n=d#4 v=102
59568 On ch=1 n=d#3 v=88
59602 Off ch=1 n=d#3 v=64
59646 Par ch=1 c=64 v=127
59652 Off ch=1 n=d#4 v=64
59662 Off ch=1 n=d#5 v=64
59874 On ch=1 n=g4 v=81
59876 On ch=1 n=a4 v=38
59878 On ch=1 n=g6 v=87
59878 On ch=1 n=c5 v=69
59880 On ch=1 n=c6 v=79
59890 On ch=1 n=g5 v=60
59914 Off ch=1 n=g4 v=64
59916 Off ch=1 n=g6 v=64
59926 Off ch=1 n=c5 v=64
59928 Off ch=1 n=c6 v=64
59938 Off ch=1 n=a4 v=64
59942 Off ch=1 n=g5 v=64
59984 On ch=1 n=g4 v=69
59984 On ch=1 n=c5 v=72
59984 On ch=1 n=g6 v=71
59992 On ch=1 n=c6 v=75
59992 On ch=1 n=g5 v=84
60000 On ch=1 n=a4 v=54
60036 Off ch=1 n=g6 v=64
60038 Off ch=1 n=g5 v=64
60048 Off ch=1 n=g4 v=64
60050 Off ch=1 n=c5 v=64
60050 Off ch=1 n=a4 v=64
60070 Off ch=1 n=c6 v=64
60114 On ch=1 n=c5 v=85
60122 On ch=1 n=g4 v=78
60122 On ch=1 n=g6 v=75
60125 On ch=1 n=a4 v=72
60128 On ch=1 n=c6 v=82
60131 On ch=1 n=g5 v=57
60162 Off ch=1 n=g6 v=64
60170 Off ch=1 n=c6 v=64
60172 Off ch=1 n=a4 v=64
60178 Off ch=1 n=c5 v=64
60198 Off ch=1 n=g4 v=64
60198 Off ch=1 n=g5 v=64
60388 On ch=1 n=g4 v=92
60402 On ch=1 n=g3 v=90
60502 On ch=1 n=a3 v=88
60506 Off ch=1 n=g4 v=64
60508 On ch=1 n=a4 v=94
60518 Off ch=1 n=g3 v=64
60552 Par ch=1 c=64 v=0
60584 Off ch=1 n=a3 v=64
60608 Off ch=1 n=a4 v=64
60656 On ch=1 n=d5 v=103
60656 On ch=1 n=d4 v=112
60662 On ch=1 n=d3 v=102
60688 Off ch=1 n=d3 v=64
60724 Off ch=1 n=d5 v=64
60736 Par ch=1 c=64 v=127
60762 Off ch=1 n=d4 v=64
61002 On ch=1 n=f#5 v=76
61004 On ch=1 n=d5 v=70
61004 On ch=1 n=f#6 v=67
61004 On ch=1 n=d6 v=57
61014 On ch=1 n=a4 v=55
61014 On ch=1 n=f#4 v=63
61046 Off ch=1 n=f#5 v=64
61046 Off ch=1 n=d5 v=64
61046 Off ch=1 n=f#6 v=64
61046 Off ch=1 n=d6 v=64
61062 Off ch=1 n=f#4 v=64
61066 Off ch=1 n=a4 v=64
61116 On ch=1 n=f#5 v=67
61118 On ch=1 n=f#6 v=55
61128 On ch=1 n=a4 v=69
61128 On ch=1 n=f#4 v=78
61131 On ch=1 n=d5 v=65
61140 On ch=1 n=d6 v=57
61166 Off ch=1 n=f#6 v=64
61180 Off ch=1 n=d5 v=64
61182 Off ch=1 n=d6 v=64
61192 Off ch=1 n=f#5 v=64
61210 Off ch=1 n=f#4 v=64
61224 Off ch=1 n=a4 v=64
61258 On ch=1 n=f#6 v=63
61264 On ch=1 n=f#5 v=66
61266 On ch=1 n=d6 v=55
61270 On ch=1 n=d5 v=81
61282 On ch=1 n=f#4 v=78
61282 On ch=1 n=a4 v=84
61298 Off ch=1 n=f#6 v=64
61306 Off ch=1 n=d6 v=64
61318 Off ch=1 n=d5 v=64
61328 Off ch=1 n=a4 v=64
61380 Off ch=1 n=f#5 v=64
61382 Off ch=1 n=f#4 v=64
61614 On ch=1 n=c5 v=99
61614 On ch=1 n=c4 v=99
61690 Off ch=1 n=c5 v=64
61708 Off ch=1 n=c4 v=64
62028 Par ch=1 c=64 v=0
62074 On ch=1 n=d4 v=110
62078 On ch=1 n=d3 v=108
62080 On ch=1 n=d2 v=103
62166 Off ch=1 n=d2 v=64
62176 Off ch=1 n=d4 v=64
62180 Par ch=1 c=64 v=127
62190 Off ch=1 n=d3 v=64
62532 On ch=1 n=d#6 v=97
62534 On ch=1 n=d#5 v=100
62534 On ch=1 n=a5 v=82
62538 On ch=1 n=f#5 v=79
62540 On ch=1 n=c5 v=94
62544 On ch=1 n=c4 v=74
62554 On ch=1 n=f#4 v=75
62554 On ch=1 n=a4 v=65
62582 Off ch=1 n=c5 v=64
62608 Off ch=1 n=a4 v=64
62610 Off ch=1 n=f#4 v=64
62612 Off ch=1 n=c4 v=64
62736 Off ch=1 n=d#5 v=64
62768 Off ch=1 n=d#6 v=64
62788 Off ch=1 n=a5 v=64
62808 Off ch=1 n=f#5 v=64
63194 On ch=1 n=b4 v=98
63204 On ch=1 n=b3 v=95
63282 Off ch=1 n=b4 v=64
63310 Off ch=1 n=b3 v=64
63534 Par ch=1 c=64 v=0
63590 On ch=1 n=d4 v=109
63598 On ch=1 n=d3 v=100
63598 On ch=1 n=d2 v=100
63662 Off ch=1 n=d4 v=64
63678 Off ch=1 n=d3 v=64
63686 Off ch=1 n=d2 v=64
63702 Par ch=1 c=64 v=127
63998 On ch=1 n=d#6 v=97
64000 On ch=1 n=d#5 v=99
64002 On ch=1 n=b5 v=97
64004 On ch=1 n=b4 v=97
64006 On ch=1 n=g5 v=88
64008 On ch=1 n=b3 v=79
64014 On ch=1 n=g4 v=74
64016 On ch=1 n=d#4 v=69
64072 Off ch=1 n=g4 v=64
64098 Off ch=1 n=b4 v=64
64098 Off ch=1 n=b3 v=64
64104 Off ch=1 n=d#4 v=64
64122 Off ch=1 n=d#5 v=64
64182 Off ch=1 n=d#6 v=64
64198 Off ch=1 n=g5 v=64
64216 Off ch=1 n=b5 v=64
64692 On ch=1 n=a#3 v=87
64692 On ch=1 n=a#4 v=78
64768 Off ch=1 n=a#3 v=64
64792 Off ch=1 n=a#4 v=64
64978 Par ch=1 c=64 v=0
65056 On ch=1 n=d3 v=101
65056 On ch=1 n=d4 v=105
65056 On ch=1 n=d2 v=97
65098 Off ch=1 n=d2 v=64
65138 Off ch=1 n=d3 v=64
65146 Par ch=1 c=64 v=127
65156 Off ch=1 n=d4 v=64
65458 On ch=1 n=d6 v=101
65458 On ch=1 n=a#4 v=88
65458 On ch=1 n=d5 v=97
65461 On ch=1 n=g5 v=93
65462 On ch=1 n=g4 v=67
65464 On ch=1 n=a#3 v=62
65467 On ch=1 n=d4 v=75
65508 Off ch=1 n=g4 v=64
65512 Off ch=1 n=a#4 v=64
65514 Off ch=1 n=a#3 v=64
65517 Off ch=1 n=d4 v=64
65540 Off ch=1 n=d6 v=64
65564 Off ch=1 n=d5 v=64
65586 Off ch=1 n=g5 v=64
66226 On ch=1 n=a3 v=92
66226 On ch=1 n=a4 v=91
66312 Off ch=1 n=a3 v=64
66341 Off ch=1 n=a4 v=64
66560 Par ch=1 c=64 v=0
66606 On ch=1 n=d4 v=98
66606 On ch=1 n=d3 v=104
66616 On ch=1 n=d2 v=93
66648 Off ch=1 n=d2 v=64
66678 Off ch=1 n=d4 v=64
66684 Off ch=1 n=d3 v=64
66714 Par ch=1 c=64 v=127
66964 On ch=1 n=d4 v=28
66966 On ch=1 n=a3 v=68
66974 On ch=1 n=g4 v=55
66974 On ch=1 n=a4 v=57
66976 On ch=1 n=d6 v=82
66980 On ch=1 n=d5 v=68
66990 On ch=1 n=g5 v=61
67018 Off ch=1 n=a3 v=64
67021 Off ch=1 n=d6 v=64
67026 Off ch=1 n=g4 v=64
67028 Off ch=1 n=a4 v=64
67030 Off ch=1 n=d5 v=64
67038 Off ch=1 n=g5 v=64
67043 Off ch=1 n=d4 v=64
67074 On ch=1 n=a3 v=84
67084 On ch=1 n=d4 v=28
67086 On ch=1 n=d6 v=82
67089 On ch=1 n=g4 v=71
67089 On ch=1 n=a4 v=69
67089 On ch=1 n=g5 v=77
67093 On ch=1 n=d5 v=67
67124 Off ch=1 n=d6 v=64
67132 Off ch=1 n=a3 v=64
67140 Off ch=1 n=g4 v=64
67140 Off ch=1 n=a4 v=64
67146 Off ch=1 n=d5 v=64
67162 Off ch=1 n=g5 v=64
67163 Off ch=1 n=d4 v=64
67222 On ch=1 n=d4 v=83
67224 On ch=1 n=d6 v=55
67224 On ch=1 n=g5 v=75
67228 On ch=1 n=g4 v=64
67228 On ch=1 n=d5 v=67
67228 On ch=1 n=a3 v=61
67228 On ch=1 n=a4 v=49
67266 Off ch=1 n=d6 v=64
67270 Off ch=1 n=g5 v=64
67288 Off ch=1 n=a4 v=64
67292 Off ch=1 n=g4 v=64
67322 Off ch=1 n=d5 v=64
67324 Off ch=1 n=d4 v=64
67356 Off ch=1 n=a3 v=64
67536 On ch=1 n=a4 v=84
67540 On ch=1 n=a3 v=75
67588 Off ch=1 n=a3 v=64
67640 Off ch=1 n=a4 v=64
67820 Par ch=1 c=64 v=0
67840 On ch=1 n=d4 v=84
67848 On ch=1 n=d2 v=90
67854 On ch=1 n=d3 v=73
67880 Off ch=1 n=d2 v=64
67896 Off ch=1 n=d3 v=64
67976 Off ch=1 n=d4 v=64
68122 On ch=1 n=g#3 v=98
68125 On ch=1 n=g#4 v=78
68200 Off ch=1 n=g#3 v=64
68256 Off ch=1 n=g#4 v=64
68400 On ch=1 n=d4 v=84
68405 On ch=1 n=d2 v=94
68410 On ch=1 n=d3 v=89
68446 Off ch=1 n=d2 v=64
68500 Off ch=1 n=d3 v=64
68524 Off ch=1 n=d4 v=64
68680 On ch=1 n=g4 v=85
68685 On ch=1 n=g3 v=92
68742 Off ch=1 n=g3 v=64
68794 Off ch=1 n=g4 v=64
68982 On ch=1 n=d4 v=93
68982 On ch=1 n=d2 v=91
68982 On ch=1 n=d3 v=93
69014 Off ch=1 n=d2 v=64
69014 Off ch=1 n=d3 v=64
69026 Off ch=1 n=d4 v=64
69064 Par ch=1 c=64 v=127
69354 On ch=1 n=a3 v=66
69354 On ch=1 n=g5 v=43
69356 On ch=1 n=d6 v=63
69356 On ch=1 n=d5 v=57
69359 On ch=1 n=a4 v=47
69362 On ch=1 n=d4 v=50
69366 On ch=1 n=g4 v=39
69396 Off ch=1 n=d6 v=64
69414 Off ch=1 n=g5 v=64
69414 Off ch=1 n=d5 v=64
69416 Off ch=1 n=a3 v=64
69416 Off ch=1 n=a4 v=64
69418 Off ch=1 n=d4 v=64
69422 Off ch=1 n=g4 v=64
69458 On ch=1 n=d6 v=70
69470 On ch=1 n=d5 v=47
69472 On ch=1 n=a3 v=68
69474 On ch=1 n=a4 v=63
69476 On ch=1 n=g5 v=56
69478 On ch=1 n=g4 v=79
69480 On ch=1 n=d4 v=68
69499 Off ch=1 n=d6 v=64
69522 Off ch=1 n=d5 v=64
69524 Off ch=1 n=a3 v=64
69524 Off ch=1 n=g4 v=64
69528 Off ch=1 n=g5 v=64
69528 Off ch=1 n=d4 v=64
69538 Off ch=1 n=a4 v=64
69590 On ch=1 n=d6 v=69
69596 On ch=1 n=d5 v=70
69600 On ch=1 n=g5 v=82
69600 On ch=1 n=g4 v=75
69603 On ch=1 n=d4 v=86
69604 On ch=1 n=a3 v=58
69604 On ch=1 n=a4 v=57
69624 Off ch=1 n=d6 v=64
69646 Off ch=1 n=g5 v=64
69646 Off ch=1 n=g4 v=64
69662 Off ch=1 n=a4 v=64
69680 Off ch=1 n=d5 v=64
69680 Off ch=1 n=d4 v=64
69688 Off ch=1 n=a3 v=64
69908 On ch=1 n=g3 v=92
69912 On ch=1 n=g4 v=85
69958 Off ch=1 n=g3 v=64
69986 Par ch=1 c=64 v=0
70028 Off ch=1 n=g4 v=64
70198 On ch=1 n=d4 v=84
70202 On ch=1 n=d3 v=87
70204 On ch=1 n=d2 v=73
70238 Off ch=1 n=d3 v=64
70248 Off ch=1 n=d2 v=64
70308 Par ch=1 c=64 v=127
70320 Off ch=1 n=d4 v=64
70520 On ch=1 n=g4 v=69
70524 On ch=1 n=d5 v=57
70532 On ch=1 n=d4 v=54
70542 On ch=1 n=a3 v=35
70566 Off ch=1 n=g4 v=64
70570 Off ch=1 n=d5 v=64
70586 Off ch=1 n=d4 v=64
70620 Off ch=1 n=a3 v=64
70632 On ch=1 n=g4 v=73
70642 On ch=1 n=d5 v=59
70652 On ch=1 n=d4 v=69
70660 On ch=1 n=a3 v=22
70688 Off ch=1 n=g4 v=64
70688 Off ch=1 n=d5 v=64
70704 Off ch=1 n=d4 v=64
70722 Off ch=1 n=a3 v=64
70762 On ch=1 n=d5 v=64
70770 On ch=1 n=g4 v=57
70770 On ch=1 n=d4 v=75
70788 On ch=1 n=a3 v=69
70844 Off ch=1 n=d4 v=64
70848 Off ch=1 n=g4 v=64
70876 Off ch=1 n=a3 v=64
70890 Off ch=1 n=d5 v=64
71046 Par ch=1 c=64 v=0
71064 On ch=1 n=f#4 v=77
71066 On ch=1 n=f#3 v=83
71108 Off ch=1 n=f#3 v=64
71192 Off ch=1 n=f#4 v=64
71388 On ch=1 n=d4 v=75
71402 On ch=1 n=d2 v=71
71404 On ch=1 n=d3 v=60
71444 Off ch=1 n=d2 v=64
71454 Off ch=1 n=d3 v=64
71522 Par ch=1 c=64 v=127
71530 Off ch=1 n=d4 v=64
71740 On ch=1 n=d5 v=20
71746 On ch=1 n=f#4 v=58
71746 On ch=1 n=d4 v=38
71750 On ch=1 n=a3 v=15
71798 Off ch=1 n=f#4 v=64
71814 Off ch=1 n=d4 v=64
71816 Off ch=1 n=d5 v=64
71838 Off ch=1 n=a3 v=64
71898 On ch=1 n=a3 v=2
71898 On ch=1 n=f#4 v=51
71900 On ch=1 n=d5 v=20
71900 On ch=1 n=d4 v=43
71960 Off ch=1 n=f#4 v=64
71964 Off ch=1 n=d4 v=64
71976 Off ch=1 n=d5 v=64
71982 Off ch=1 n=a3 v=64
72046 On ch=1 n=d5 v=67
72058 On ch=1 n=f#4 v=44
72064 On ch=1 n=d4 v=32
72070 On ch=1 n=a3 v=15
72154 Off ch=1 n=d4 v=64
72158 Off ch=1 n=a3 v=64
72168 Off ch=1 n=f#4 v=64
72346 On ch=1 n=a3 v=73
72362 Off ch=1 n=d5 v=64
72404 Off ch=1 n=a3 v=64
72630 Par ch=1 c=64 v=0
72664 On ch=1 n=d3 v=61
72814 Par ch=1 c=64 v=127
72869 Off ch=1 n=d3 v=64
72988 On ch=1 n=f#4 v=38
72988 On ch=1 n=d5 v=18
73052 Off ch=1 n=f#4 v=64
73078 Off ch=1 n=d5 v=64
73136 On ch=1 n=d5 v=18
73138 On ch=1 n=f#4 v=54
73190 Off ch=1 n=f#4 v=64
73226 Off ch=1 n=d5 v=64
73278 On ch=1 n=f#4 v=32
73281 On ch=1 n=d5 v=53
73376 Off ch=1 n=f#4 v=64
73590 On ch=1 n=a3 v=44
73612 Off ch=1 n=d5 v=64
73688 Off ch=1 n=a3 v=64
73920 Par ch=1 c=64 v=0
73956 On ch=1 n=d3 v=43
74120 Par ch=1 c=64 v=127
74122 Off ch=1 n=d3 v=64
74264 On ch=1 n=d4 v=42
74326 Off ch=1 n=d4 v=64
74412 On ch=1 n=d4 v=35
74496 Off ch=1 n=d4 v=64
74608 On ch=1 n=d4 v=26
74720 Off ch=1 n=d4 v=64
74968 On ch=1 n=a3 v=37
75092 Off ch=1 n=a3 v=64
75286 Par ch=1 c=64 v=0
75384 On ch=1 n=d3 v=36
75564 Par ch=1 c=64 v=127
75572 Off ch=1 n=d3 v=64
75798 On ch=1 n=d4 v=38
75876 Off ch=1 n=d4 v=64
76004 On ch=1 n=d4 v=31
76078 Off ch=1 n=d4 v=64
76274 On ch=1 n=d4 v=23
76338 Off ch=1 n=d4 v=64
76760 On ch=1 n=d3 v=18
76784 On ch=1 n=d2 v=6
76844 Off ch=1 n=d3 v=64
76868 Off ch=1 n=d2 v=64
77088 On ch=1 n=d3 v=31
77088 On ch=1 n=d2 v=31
77164 Off ch=1 n=d3 v=64
77212 Off ch=1 n=d2 v=64
77496 On ch=1 n=d3 v=31
77498 On ch=1 n=d2 v=57
77498 Par ch=1 c=64 v=0
77558 Off ch=1 n=d2 v=64
77572 Off ch=1 n=d3 v=64
77608 Par ch=1 c=64 v=127
77944 On ch=1 n=a3 v=26
78166 Off ch=1 n=a3 v=64
78210 On ch=1 n=d4 v=32
78438 Off ch=1 n=d4 v=64
78488 On ch=1 n=f#4 v=41
78540 On ch=1 n=a6 v=64
78560 On ch=1 n=a5 v=21
78563 On ch=1 n=f#6 v=34
78566 On ch=1 n=d6 v=22
78572 Off ch=1 n=f#4 v=64
78736 On ch=1 n=c5 v=35
78775 Off ch=1 n=d6 v=64
78804 Off ch=1 n=c5 v=64
78820 Off ch=1 n=f#6 v=64
78844 Off ch=1 n=a5 v=64
78874 Off ch=1 n=a6 v=64
78912 On ch=1 n=d5 v=22
78990 Off ch=1 n=d5 v=64
79068 On ch=1 n=f#5 v=31
79070 On ch=1 n=a6 v=87
79084 On ch=1 n=a5 v=54
79094 On ch=1 n=f#6 v=36
79096 On ch=1 n=d6 v=39
79158 Off ch=1 n=d6 v=64
79182 Off ch=1 n=f#6 v=64
79192 Off ch=1 n=f#5 v=64
79216 Off ch=1 n=a5 v=64
79232 On ch=1 n=d5 v=37
79288 Off ch=1 n=d5 v=64
79296 Off ch=1 n=a6 v=64
79370 On ch=1 n=c5 v=30
79466 Off ch=1 n=c5 v=64
79496 On ch=1 n=a#6 v=81
79510 On ch=1 n=f#4 v=47
79513 On ch=1 n=a#5 v=42
79564 Off ch=1 n=f#4 v=64
79564 On ch=1 n=d6 v=24
79578 On ch=1 n=f#6 v=16
79624 Off ch=1 n=a#5 v=64
79627 Off ch=1 n=d6 v=64
79638 Off ch=1 n=f#6 v=64
79666 On ch=1 n=d4 v=49
79726 Off ch=1 n=d4 v=64
79800 On ch=1 n=a3 v=30
79876 Off ch=1 n=a3 v=64
79972 On ch=1 n=c7 v=79
79992 On ch=1 n=f#6 v=50
79995 On ch=1 n=d6 v=18
80004 Par ch=1 c=64 v=0
80007 On ch=1 n=c6 v=32
80019 On ch=1 n=d3 v=29
80058 Off ch=1 n=a#6 v=64
80194 On ch=1 n=a3 v=41
80232 Off ch=1 n=d3 v=64
80250 Par ch=1 c=64 v=127
80260 Off ch=1 n=a3 v=64
80350 On ch=1 n=d4 v=42
80418 Off ch=1 n=d4 v=64
80528 On ch=1 n=f#4 v=43
80628 Off ch=1 n=f#4 v=64
80688 Off ch=1 n=d6 v=64
80694 Off ch=1 n=f#6 v=64
80700 Off ch=1 n=c7 v=64
80730 Off ch=1 n=c6 v=64
80756 On ch=1 n=c5 v=38
80820 Off ch=1 n=c5 v=64
80886 On ch=1 n=d5 v=47
80956 Off ch=1 n=d5 v=64
81046 On ch=1 n=f#5 v=46
81056 On ch=1 n=a#6 v=71
81068 On ch=1 n=a#5 v=41
81084 On ch=1 n=f#6 v=48
81096 On ch=1 n=d6 v=45
81126 Off ch=1 n=f#5 v=64
81168 Off ch=1 n=d6 v=64
81222 On ch=1 n=d5 v=48
81272 On ch=1 n=d6 v=5
81296 Off ch=1 n=d5 v=64
81338 Off ch=1 n=a#5 v=64
81362 On ch=1 n=c5 v=38
81380 Off ch=1 n=a#6 v=64
81426 Off ch=1 n=c5 v=64
81460 On ch=1 n=f#4 v=66
81464 On ch=1 n=a6 v=89
81470 On ch=1 n=a5 v=57
81494 Off ch=1 n=d6 v=64
81510 Off ch=1 n=f#4 v=64
81594 Off ch=1 n=f#6 v=64
81612 On ch=1 n=d4 v=48
81663 Off ch=1 n=a6 v=64
81686 Off ch=1 n=d4 v=64
81728 Off ch=1 n=a5 v=64
81742 On ch=1 n=a3 v=36
81804 Off ch=1 n=a3 v=64
81866 On ch=1 n=g6 v=94
81872 On ch=1 n=d3 v=43
81886 On ch=1 n=g5 v=48
81888 On ch=1 n=d#6 v=45
81890 On ch=1 n=c6 v=47
81924 Par ch=1 c=64 v=0
82030 On ch=1 n=a3 v=35
82094 Par ch=1 c=64 v=127
82110 Off ch=1 n=d3 v=64
82134 Off ch=1 n=a3 v=64
82156 On ch=1 n=d4 v=70
82166 Off ch=1 n=g5 v=64
82190 Off ch=1 n=c6 v=64
82202 Off ch=1 n=d4 v=64
82205 Off ch=1 n=g6 v=64
82230 Off ch=1 n=d#6 v=64
82278 On ch=1 n=a6 v=94
82294 On ch=1 n=a5 v=58
82354 On ch=1 n=g4 v=43
82448 Off ch=1 n=g4 v=64
82490 On ch=1 n=c5 v=37
82502 Off ch=1 n=a5 v=64
82560 Off ch=1 n=a6 v=64
82584 On ch=1 n=d#5 v=65
82592 Off ch=1 n=c5 v=64
82642 Off ch=1 n=d#5 v=64
82754 On ch=1 n=a#6 v=89
82756 On ch=1 n=g5 v=46
82766 On ch=1 n=a#5 v=62
82864 Off ch=1 n=g5 v=64
82916 Off ch=1 n=a#5 v=64
82928 On ch=1 n=d#5 v=53
82994 Off ch=1 n=d#5 v=64
83086 On ch=1 n=c5 v=29
83122 Off ch=1 n=a#6 v=64
83188 Off ch=1 n=c5 v=64
83242 On ch=1 n=g4 v=61
83288 Off ch=1 n=g4 v=64
83432 On ch=1 n=d4 v=45
83506 Off ch=1 n=d4 v=64
83556 On ch=1 n=a3 v=48
83628 Off ch=1 n=a3 v=64
83740 On ch=1 n=d3 v=37
83758 On ch=1 n=f#6 v=73
83768 On ch=1 n=f#5 v=23
83776 On ch=1 n=d6 v=39
83782 On ch=1 n=c6 v=34
83784 Par ch=1 c=64 v=0
84012 On ch=1 n=a3 v=32
84058 Off ch=1 n=d3 v=64
84092 Par ch=1 c=64 v=127
84116 Off ch=1 n=a3 v=64
84204 On ch=1 n=d4 v=38
84266 Off ch=1 n=d4 v=64
84350 Off ch=1 n=f#5 v=64
84370 On ch=1 n=f#4 v=41
84374 Off ch=1 n=c6 v=64
84430 Off ch=1 n=d6 v=64
84440 Off ch=1 n=f#4 v=64
84596 On ch=1 n=c5 v=20
84692 Off ch=1 n=c5 v=64
84746 On ch=1 n=d5 v=44
84834 Off ch=1 n=d5 v=64
84888 On ch=1 n=a6 v=56
84904 Off ch=1 n=f#6 v=64
84910 On ch=1 n=a5 v=20
84919 On ch=1 n=f#5 v=32
85002 Off ch=1 n=f#5 v=64
85028 Off ch=1 n=a5 v=64
85114 Off ch=1 n=a6 v=64
85114 On ch=1 n=d5 v=17
85186 Off ch=1 n=d5 v=64
85278 On ch=1 n=c5 v=16
85356 Off ch=1 n=c5 v=64
85490 On ch=1 n=f#4 v=31
85602 On ch=1 n=a4 v=55
85618 Off ch=1 n=f#4 v=64
85774 On ch=1 n=d4 v=24
85860 Off ch=1 n=d4 v=64
85872 On ch=1 n=c5 v=70
85924 Off ch=1 n=a4 v=64
85960 On ch=1 n=a3 v=27
86034 Off ch=1 n=a3 v=64
86124 On ch=1 n=d5 v=74
86156 On ch=1 n=d3 v=30
86158 On ch=1 n=f#4 v=53
86212 Par ch=1 c=64 v=0
86228 Off ch=1 n=f#4 v=64
86236 Off ch=1 n=c5 v=64
86334 Par ch=1 c=64 v=127
86344 On ch=1 n=f#4 v=4
86382 On ch=1 n=a3 v=31
86402 Off ch=1 n=f#4 v=64
86416 Off ch=1 n=d3 v=64
86460 Off ch=1 n=d5 v=64
86470 Off ch=1 n=a3 v=64
86604 On ch=1 n=d4 v=22
86678 Off ch=1 n=d4 v=64
86778 On ch=1 n=f#4 v=43
86852 Off ch=1 n=f#4 v=64
86864 On ch=1 n=a6 v=78
86878 On ch=1 n=f#6 v=41
86878 On ch=1 n=d6 v=30
86884 On ch=1 n=a5 v=23
86964 Off ch=1 n=d6 v=64
87050 Off ch=1 n=a5 v=64
87050 On ch=1 n=c5 v=26
87108 Off ch=1 n=f#6 v=64
87136 Off ch=1 n=c5 v=64
87138 Off ch=1 n=a6 v=64
87206 On ch=1 n=d5 v=46
87270 Off ch=1 n=d5 v=64
87320 On ch=1 n=f#5 v=49
87322 On ch=1 n=a6 v=97
87330 On ch=1 n=a5 v=69
87330 On ch=1 n=f#6 v=23
87430 Off ch=1 n=f#5 v=64
87474 Off ch=1 n=a5 v=64
87484 On ch=1 n=d5 v=53
87532 Off ch=1 n=f#6 v=64
87550 Off ch=1 n=a6 v=64
87588 Off ch=1 n=d5 v=64
87630 On ch=1 n=c5 v=33
87700 Off ch=1 n=c5 v=64
87732 On ch=1 n=a#6 v=93
87744 On ch=1 n=f#4 v=53
87744 On ch=1 n=a#5 v=66
87756 On ch=1 n=f#6 v=48
87756 On ch=1 n=d6 v=47
87794 Off ch=1 n=f#4 v=64
87812 Off ch=1 n=d6 v=64
87866 Off ch=1 n=a#5 v=64
87886 Off ch=1 n=f#6 v=64
87886 On ch=1 n=d4 v=50
87950 Off ch=1 n=d4 v=64
88008 On ch=1 n=a3 v=39
88020 Off ch=1 n=a#6 v=64
88074 Off ch=1 n=a3 v=64
88162 On ch=1 n=d3 v=33
88196 On ch=1 n=c7 v=101
88210 On ch=1 n=c6 v=67
88224 On ch=1 n=g6 v=65
88226 On ch=1 n=d#6 v=29
88270 Par ch=1 c=64 v=0
88364 On ch=1 n=a3 v=44
88454 Par ch=1 c=64 v=127
88468 Off ch=1 n=d3 v=64
88510 Off ch=1 n=a3 v=64
88544 On ch=1 n=d4 v=71
88586 Off ch=1 n=d4 v=64
88660 Off ch=1 n=c7 v=64
88698 Off ch=1 n=g6 v=64
88731 Off ch=1 n=d#6 v=64
88742 On ch=1 n=g4 v=71
88776 Off ch=1 n=c6 v=64
88856 Off ch=1 n=g4 v=64
88900 On ch=1 n=c5 v=58
88996 Off ch=1 n=c5 v=64
89014 On ch=1 n=d#5 v=59
89068 Off ch=1 n=d#5 v=64
89102 On ch=1 n=a#6 v=88
89114 On ch=1 n=a#5 v=61
89126 On ch=1 n=d#6 v=62
89126 On ch=1 n=c6 v=64
89144 On ch=1 n=g5 v=55
89216 Off ch=1 n=g5 v=64
89268 On ch=1 n=d#5 v=50
89290 Off ch=1 n=a#6 v=64
89326 Off ch=1 n=d#5 v=64
89350 On ch=1 n=c5 v=56
89354 Off ch=1 n=a#5 v=64
89462 Off ch=1 n=c5 v=64
89486 On ch=1 n=g4 v=49
89494 On ch=1 n=a5 v=74
89496 On ch=1 n=a6 v=98
89544 Off ch=1 n=g4 v=64
89580 Off ch=1 n=c6 v=64
89612 Off ch=1 n=d#6 v=64
89632 On ch=1 n=d4 v=54
89696 Off ch=1 n=a6 v=64
89704 Off ch=1 n=d4 v=64
89732 On ch=1 n=a3 v=56
89758 Off ch=1 n=a5 v=64
89790 Off ch=1 n=a3 v=64
89876 On ch=1 n=d3 v=43
89884 Par ch=1 c=64 v=0
89884 On ch=1 n=e6 v=76
89886 On ch=1 n=g6 v=96
89888 On ch=1 n=c#6 v=54
89890 On ch=1 n=g5 v=80
90022 On ch=1 n=a3 v=45
90036 Off ch=1 n=d3 v=64
90052 Par ch=1 c=64 v=127
90078 Off ch=1 n=a3 v=64
90154 On ch=1 n=g4 v=72
90180 Off ch=1 n=g5 v=64
90226 Off ch=1 n=g6 v=64
90229 Off ch=1 n=g4 v=64
90300 On ch=1 n=a4 v=61
90304 On ch=1 n=a6 v=94
90308 On ch=1 n=a5 v=70
90450 Off ch=1 n=a4 v=64
90458 On ch=1 n=a#4 v=44
90510 Off ch=1 n=a5 v=64
90546 Off ch=1 n=a6 v=64
90612 On ch=1 n=c#5 v=50
90716 Off ch=1 n=c#5 v=64
90786 On ch=1 n=g5 v=53
90828 On ch=1 n=a#6 v=71
90834 On ch=1 n=a#5 v=35
90888 Par ch=1 c=64 v=0
90946 Off ch=1 n=a#4 v=64
90982 Off ch=1 n=g5 v=64
91004 Par ch=1 c=64 v=127
91044 On ch=1 n=c#5 v=32
91138 Off ch=1 n=c#5 v=64
91144 Off ch=1 n=a#5 v=64
91178 On ch=1 n=a#4 v=32
91246 Off ch=1 n=a#4 v=64
91362 On ch=1 n=g4 v=19
91382 Off ch=1 n=a#6 v=64
91458 Off ch=1 n=g4 v=64
91526 Off ch=1 n=c#6 v=64
91532 Off ch=1 n=e6 v=64
91534 On ch=1 n=a3 v=34
91618 Off ch=1 n=a3 v=64
91748 On ch=1 n=d3 v=29
92006 On ch=1 n=f#6 v=54
92018 On ch=1 n=f#5 v=23
92024 On ch=1 n=d6 v=40
92026 On ch=1 n=c6 v=21
92218 Par ch=1 c=64 v=0
92300 On ch=1 n=a3 v=29
92388 Par ch=1 c=64 v=127
92396 Off ch=1 n=d3 v=64
92442 Off ch=1 n=a3 v=64
92512 On ch=1 n=d4 v=43
92572 Off ch=1 n=d4 v=64
92602 Off ch=1 n=f#5 v=64
92616 Off ch=1 n=c6 v=64
92676 Off ch=1 n=d6 v=64
92694 On ch=1 n=f#4 v=32
92776 Off ch=1 n=f#4 v=64
92860 On ch=1 n=c5 v=32
92930 Off ch=1 n=c5 v=64
93008 On ch=1 n=d5 v=34
93075 Off ch=1 n=d5 v=64
93120 On ch=1 n=f#5 v=34
93124 Off ch=1 n=f#6 v=64
93128 On ch=1 n=a6 v=47
93136 On ch=1 n=a5 v=22
93206 Off ch=1 n=f#5 v=64
93300 On ch=1 n=d5 v=36
93308 Off ch=1 n=a5 v=64
93368 Off ch=1 n=a6 v=64
93422 Off ch=1 n=d5 v=64
93520 On ch=1 n=c5 v=28
93590 Off ch=1 n=c5 v=64
93726 On ch=1 n=f#4 v=48
93830 On ch=1 n=a4 v=57
93864 Off ch=1 n=f#4 v=64
94026 On ch=1 n=d4 v=22
94082 On ch=1 n=c5 v=75
94112 Off ch=1 n=d4 v=64
94146 On ch=1 n=a3 v=39
94166 Off ch=1 n=a4 v=64
94292 Off ch=1 n=a3 v=64
94334 On ch=1 n=g3 v=39
94370 Par ch=1 c=64 v=0
94372 On ch=1 n=d5 v=81
94378 On ch=1 n=a#4 v=43
94396 Off ch=1 n=c5 v=64
94566 On ch=1 n=d4 v=45
94569 Par ch=1 c=64 v=127
94598 Off ch=1 n=g3 v=64
94608 Off ch=1 n=a#4 v=64
94620 Off ch=1 n=d5 v=64
94630 Off ch=1 n=d4 v=64
94703 On ch=1 n=g4 v=52
94760 Off ch=1 n=g4 v=64
94828 On ch=1 n=a#6 v=87
94831 On ch=1 n=a#5 v=72
94838 On ch=1 n=a#4 v=45
94902 Off ch=1 n=a#5 v=64
94984 On ch=1 n=d5 v=54
94996 Off ch=1 n=a#4 v=64
95038 Off ch=1 n=d5 v=64
95074 Off ch=1 n=a#6 v=64
95118 On ch=1 n=g5 v=50
95178 Off ch=1 n=g5 v=64
95234 On ch=1 n=a#5 v=52
95244 On ch=1 n=a#6 v=93
95258 On ch=1 n=g6 v=76
95261 On ch=1 n=d6 v=69
95302 Off ch=1 n=a#5 v=64
95322 Off ch=1 n=d6 v=64
95348 Off ch=1 n=g6 v=64
95380 On ch=1 n=g5 v=62
95466 Off ch=1 n=g5 v=64
95516 On ch=1 n=d5 v=54
95570 Off ch=1 n=d5 v=64
95620 Off ch=1 n=a#6 v=64
95624 On ch=1 n=c7 v=108
95632 On ch=1 n=a#4 v=39
95636 On ch=1 n=c6 v=73
95692 Off ch=1 n=a#4 v=64
95798 On ch=1 n=g4 v=21
95886 Off ch=1 n=g4 v=64
95912 On ch=1 n=d4 v=49
95950 Off ch=1 n=c6 v=64
95982 Off ch=1 n=d4 v=64
96020 Off ch=1 n=c7 v=64
96084 On ch=1 n=d7 v=103
96092 On ch=1 n=d6 v=85
96094 On ch=1 n=a#6 v=67
96096 On ch=1 n=f3 v=54
96108 On ch=1 n=g6 v=60
96184 Par ch=1 c=64 v=0
96306 On ch=1 n=d4 v=48
96344 Off ch=1 n=f3 v=64
96352 Par ch=1 c=64 v=127
96396 Off ch=1 n=d4 v=64
96452 On ch=1 n=g4 v=54
96520 Off ch=1 n=g4 v=64
96588 On ch=1 n=a4 v=44
96716 On ch=1 n=a#4 v=55
96750 Off ch=1 n=g6 v=64
96756 Off ch=1 n=a4 v=64
96814 Off ch=1 n=d7 v=64
96868 On ch=1 n=d5 v=61
96876 Off ch=1 n=d6 v=64
96876 Off ch=1 n=a#4 v=64
96992 Off ch=1 n=d5 v=64
97006 On ch=1 n=c7 v=105
97018 On ch=1 n=c6 v=72
97021 On ch=1 n=g5 v=45
97024 On ch=1 n=g6 v=73
97034 Off ch=1 n=a#6 v=64
97084 Off ch=1 n=g5 v=64
97156 On ch=1 n=d5 v=57
97196 Off ch=1 n=c6 v=64
97222 Off ch=1 n=d5 v=64
97228 Off ch=1 n=c7 v=64
97272 On ch=1 n=a4 v=51
97322 Off ch=1 n=a4 v=64
97384 Off ch=1 n=g6 v=64
97396 On ch=1 n=a#6 v=91
97402 On ch=1 n=g4 v=78
97410 On ch=1 n=a#5 v=71
97474 Off ch=1 n=g4 v=64
97512 Off ch=1 n=a#5 v=64
97524 On ch=1 n=d4 v=57
97596 Off ch=1 n=d4 v=64
97634 On ch=1 n=f3 v=57
97662 Off ch=1 n=a#6 v=64
97680 Off ch=1 n=f3 v=64
97784 On ch=1 n=c7 v=105
97787 On ch=1 n=d#3 v=73
97792 On ch=1 n=c6 v=87
97794 On ch=1 n=g6 v=77
97796 Par ch=1 c=64 v=0
97799 On ch=1 n=a#6 v=73
97930 On ch=1 n=a#3 v=57
97948 Off ch=1 n=d#3 v=64
97982 Par ch=1 c=64 v=127
98022 Off ch=1 n=a#3 v=64
98046 Off ch=1 n=c6 v=64
98070 On ch=1 n=g4 v=61
98102 Off ch=1 n=c7 v=64
98134 Off ch=1 n=g4 v=64
98144 Off ch=1 n=a#6 v=64
98180 On ch=1 n=d7 v=107
98192 On ch=1 n=d6 v=89
98214 On ch=1 n=a#4 v=52
98258 Off ch=1 n=g6 v=64
98360 On ch=1 n=d#5 v=64
98392 Off ch=1 n=d6 v=64
98446 Off ch=1 n=d#5 v=64
98450 Off ch=1 n=d7 v=64
98478 On ch=1 n=f5 v=55
98528 Off ch=1 n=f5 v=64
98636 On ch=1 n=d#7 v=92
98642 On ch=1 n=d#6 v=78
98642 On ch=1 n=a#6 v=64
98644 On ch=1 n=g6 v=62
98648 On ch=1 n=g5 v=59
98702 Par ch=1 c=64 v=0
98786 Off ch=1 n=a#4 v=64
98820 On ch=1 n=d#5 v=63
98842 Par ch=1 c=64 v=127
98846 Off ch=1 n=g5 v=64
98936 On ch=1 n=a#4 v=46
98940 Off ch=1 n=d#5 v=64
98988 Off ch=1 n=a#4 v=64
99086 On ch=1 n=g4 v=75
99126 Off ch=1 n=g4 v=64
99202 On ch=1 n=a#3 v=67
99278 Off ch=1 n=a#3 v=64
99340 On ch=1 n=d#3 v=75
99406 Off ch=1 n=d#3 v=64
99494 On ch=1 n=d3 v=91
99502 Par ch=1 c=64 v=0
99630 On ch=1 n=a#3 v=71
99638 Off ch=1 n=d3 v=64
99648 Off ch=1 n=g6 v=64
99656 Par ch=1 c=64 v=127
99742 Off ch=1 n=a#3 v=64
99768 Off ch=1 n=d#6 v=64
99778 On ch=1 n=g4 v=75
99808 Off ch=1 n=d#7 v=64
99848 Off ch=1 n=g4 v=64
99900 Off ch=1 n=a#6 v=64
99934 On ch=1 n=e7 v=106
99940 On ch=1 n=e6 v=93
99942 On ch=1 n=a4 v=63
100086 Off ch=1 n=e6 v=64
100100 On ch=1 n=a#4 v=68
100102 Off ch=1 n=a4 v=64
100152 Off ch=1 n=e7 v=64
100174 Off ch=1 n=a#4 v=64
100274 On ch=1 n=g5 v=67
100318 Off ch=1 n=g5 v=64
100564 On ch=1 n=f#6 v=56
100564 On ch=1 n=e7 v=79
100566 On ch=1 n=f#7 v=87
100566 On ch=1 n=c#3 v=70
100566 On ch=1 n=a6 v=63
100624 Par ch=1 c=64 v=0
100798 On ch=1 n=a3 v=52
100808 Off ch=1 n=c#3 v=64
100822 Par ch=1 c=64 v=127
100852 Off ch=1 n=a3 v=64
100880 Off ch=1 n=a6 v=64
100890 Off ch=1 n=f#6 v=64
100956 On ch=1 n=g4 v=57
101010 Off ch=1 n=g4 v=64
101078 Off ch=1 n=f#7 v=64
101148 On ch=1 n=a4 v=41
101178 On ch=1 n=g7 v=87
101188 On ch=1 n=g6 v=78
101260 Off ch=1 n=a4 v=64
101268 Off ch=1 n=e7 v=64
101302 Off ch=1 n=g6 v=64
101314 Off ch=1 n=g7 v=64
101348 On ch=1 n=g5 v=56
101414 Off ch=1 n=g5 v=64
101504 On ch=1 n=a5 v=39
101558 Off ch=1 n=a5 v=64
101766 On ch=1 n=f#6 v=73
101778 On ch=1 n=d6 v=38
101784 On ch=1 n=a5 v=31
101784 On ch=1 n=f#5 v=44
101787 On ch=1 n=d3 v=52
101838 Par ch=1 c=64 v=0
102002 On ch=1 n=a3 v=36
102042 Off ch=1 n=d6 v=64
102054 Par ch=1 c=64 v=127
102074 Off ch=1 n=a3 v=64
102082 Off ch=1 n=d3 v=64
102090 Off ch=1 n=a5 v=64
102158 On ch=1 n=d4 v=41
102172 Off ch=1 n=f#5 v=64
102226 Off ch=1 n=d4 v=64
102342 Off ch=1 n=f#6 v=64
102374 On ch=1 n=g4 v=44
102438 On ch=1 n=g6 v=87
102458 On ch=1 n=g5 v=40
102470 Off ch=1 n=g4 v=64
102602 On ch=1 n=a4 v=30
102640 Off ch=1 n=g5 v=64
102664 Off ch=1 n=a4 v=64
102728 On ch=1 n=d5 v=44
102784 Off ch=1 n=d5 v=64
102904 On ch=1 n=f#4 v=40
102918 On ch=1 n=a6 v=70
102932 On ch=1 n=d6 v=17
102934 On ch=1 n=a5 v=27
102990 Par ch=1 c=64 v=0
103016 Off ch=1 n=g6 v=64
103092 On ch=1 n=a4 v=44
103168 Off ch=1 n=f#4 v=64
103190 Par ch=1 c=64 v=127
103232 Off ch=1 n=a4 v=64
103248 On ch=1 n=d5 v=40
103304 Off ch=1 n=d5 v=64
103354 On ch=1 n=f#5 v=47
103440 Off ch=1 n=f#5 v=64
103496 On ch=1 n=e5 v=68
103522 Off ch=1 n=a5 v=64
103560 Off ch=1 n=e5 v=64
103630 On ch=1 n=f#5 v=60
103756 On ch=1 n=g5 v=37
103758 Par ch=1 c=64 v=0
103778 Off ch=1 n=f#5 v=64
103790 On ch=1 n=e5 v=62
103862 Off ch=1 n=e5 v=64
103918 On ch=1 n=d5 v=52
103958 Par ch=1 c=64 v=127
103978 Off ch=1 n=d5 v=64
104064 On ch=1 n=e5 v=52
104138 Off ch=1 n=e5 v=64
104196 On ch=1 n=d5 v=45
104266 Off ch=1 n=d5 v=64
104310 On ch=1 n=a4 v=44
104380 Off ch=1 n=a4 v=64
104388 Off ch=1 n=d6 v=64
104454 On ch=1 n=d5 v=66
104538 Off ch=1 n=d5 v=64
104620 On ch=1 n=a4 v=78
104638 On ch=1 n=c#6 v=26
104788 Par ch=1 c=64 v=0
104856 On ch=1 n=g4 v=50
104926 Par ch=1 c=64 v=127
104944 Off ch=1 n=g4 v=64
105032 On ch=1 n=e4 v=31
105102 Off ch=1 n=e4 v=64
105138 On ch=1 n=a#4 v=78
105192 Off ch=1 n=a4 v=64
105202 Par ch=1 c=64 v=0
105356 Par ch=1 c=64 v=127
105370 Off ch=1 n=a6 v=64
105402 On ch=1 n=g4 v=30
105422 Off ch=1 n=c#6 v=64
105430 Off ch=1 n=g5 v=64
105454 Off ch=1 n=a#4 v=64
105516 Off ch=1 n=g4 v=64
105582 On ch=1 n=e4 v=41
105634 Off ch=1 n=e4 v=64
105818 On ch=1 n=c5 v=78
105852 On ch=1 n=f#4 v=50
105894 On ch=1 n=d3 v=38
105970 Par ch=1 c=64 v=0
106140 Par ch=1 c=64 v=127
106194 On ch=1 n=a3 v=32
106228 Off ch=1 n=f#4 v=64
106254 Off ch=1 n=d3 v=64
106280 Off ch=1 n=c5 v=64
106342 Off ch=1 n=a3 v=64
106494 On ch=1 n=d4 v=19
106570 Off ch=1 n=d4 v=64
106694 On ch=1 n=f#4 v=44
106760 On ch=1 n=a6 v=62
106778 Off ch=1 n=f#4 v=64
106781 On ch=1 n=a5 v=11
106796 On ch=1 n=f#6 v=27
106858 Off ch=1 n=a5 v=64
106996 On ch=1 n=c5 v=22
107062 Off ch=1 n=f#6 v=64
107082 On ch=1 n=c6 v=39
107090 Off ch=1 n=c5 v=64
107152 Off ch=1 n=a6 v=64
107182 On ch=1 n=d5 v=30
107308 Off ch=1 n=d5 v=64
107342 On ch=1 n=a6 v=77
107342 On ch=1 n=f#5 v=43
107372 On ch=1 n=d6 v=45
107400 Off ch=1 n=c6 v=64
107410 On ch=1 n=f#6 v=16
107454 Off ch=1 n=f#5 v=64
107490 Off ch=1 n=f#6 v=64
107506 Off ch=1 n=d6 v=64
107534 On ch=1 n=d5 v=46
107600 Off ch=1 n=a6 v=64
107638 Off ch=1 n=d5 v=64
107714 On ch=1 n=c5 v=22
107786 On ch=1 n=a#6 v=83
107788 Off ch=1 n=c5 v=64
107800 On ch=1 n=f#6 v=16
107806 On ch=1 n=d6 v=45
107816 On ch=1 n=a#5 v=43
107820 On ch=1 n=f#4 v=40
107880 Off ch=1 n=f#6 v=64
107882 Off ch=1 n=f#4 v=64
107928 Off ch=1 n=a#5 v=64
107940 Off ch=1 n=d6 v=64
107988 On ch=1 n=d4 v=22
108114 On ch=1 n=a3 v=21
108190 Off ch=1 n=a3 v=64
108286 Off ch=1 n=d4 v=64
108316 On ch=1 n=d3 v=20
108384 On ch=1 n=c7 v=79
108387 On ch=1 n=f#6 v=38
108412 On ch=1 n=d6 v=20
108422 On ch=1 n=c6 v=23
108426 Off ch=1 n=a#6 v=64
108430 Par ch=1 c=64 v=0
108578 Off ch=1 n=d3 v=64
108584 Par ch=1 c=64 v=127
108596 On ch=1 n=a3 v=29
108720 Off ch=1 n=a3 v=64
108766 On ch=1 n=f#4 v=29
108832 Off ch=1 n=f#4 v=64
109082 Off ch=1 n=d6 v=64
109088 Off ch=1 n=c6 v=64
109108 On ch=1 n=d5 v=64
109122 Off ch=1 n=f#6 v=64
109170 Off ch=1 n=c7 v=64
109320 On ch=1 n=c5 v=20
109428 Off ch=1 n=c5 v=64
109458 On ch=1 n=f#4 v=31
109486 Off ch=1 n=d5 v=64
109536 Off ch=1 n=f#4 v=64
109560 On ch=1 n=a#6 v=60
109582 On ch=1 n=a#5 v=24
109596 On ch=1 n=f#6 v=32
109628 On ch=1 n=d6 v=20
109636 On ch=1 n=e5 v=83
109730 Off ch=1 n=d6 v=64
109748 Off ch=1 n=a#5 v=64
109796 On ch=1 n=c5 v=38
109826 Off ch=1 n=a#6 v=64
109862 Off ch=1 n=e5 v=64
109896 On ch=1 n=d6 v=5
109922 On ch=1 n=f#4 v=40
109938 Off ch=1 n=c5 v=64
110024 Off ch=1 n=d6 v=64
110032 On ch=1 n=a6 v=75
110044 Off ch=1 n=f#4 v=64
110062 On ch=1 n=a5 v=22
110080 On ch=1 n=f#5 v=84
110124 Off ch=1 n=f#6 v=64
110186 Off ch=1 n=a6 v=64
110240 Off ch=1 n=f#5 v=64
110246 Off ch=1 n=a5 v=64
110248 On ch=1 n=c5 v=47
110324 Off ch=1 n=c5 v=64
110336 On ch=1 n=f#4 v=46
110396 Off ch=1 n=f#4 v=64
110502 On ch=1 n=g5 v=74
110505 On ch=1 n=g6 v=79
110522 On ch=1 n=c6 v=44
110526 On ch=1 n=d#6 v=33
110556 On ch=1 n=d3 v=36
110610 Par ch=1 c=64 v=0
110748 On ch=1 n=a3 v=21
110796 Par ch=1 c=64 v=127
110832 Off ch=1 n=d3 v=64
110876 Off ch=1 n=a3 v=64
110920 On ch=1 n=d4 v=57
110954 Off ch=1 n=g5 v=64
110962 Off ch=1 n=c6 v=64
110972 Off ch=1 n=d4 v=64
110984 Off ch=1 n=g6 v=64
110990 Off ch=1 n=d#6 v=64
111092 On ch=1 n=a6 v=84
111104 On ch=1 n=a5 v=54
111134 On ch=1 n=g4 v=52
111222 Off ch=1 n=g4 v=64
111266 Off ch=1 n=a6 v=64
111304 On ch=1 n=c5 v=35
111322 Off ch=1 n=a5 v=64
111468 Off ch=1 n=c5 v=64
111476 On ch=1 n=d#5 v=43
111526 Off ch=1 n=d#5 v=64
111534 On ch=1 n=a#6 v=68
111560 On ch=1 n=a#5 v=35
111560 On ch=1 n=c6 v=5
111564 On ch=1 n=d#6 v=27
111644 On ch=1 n=f#5 v=82
111742 Off ch=1 n=a#6 v=64
111770 Off ch=1 n=a#5 v=64
111845 On ch=1 n=d#5 v=59
111851 Off ch=1 n=f#5 v=64
111980 Off ch=1 n=d#5 v=64
112012 On ch=1 n=c5 v=40
112114 Off ch=1 n=c5 v=64
112140 On ch=1 n=g4 v=47
112174 Off ch=1 n=d#6 v=64
112188 On ch=1 n=g5 v=89
112191 Off ch=1 n=g4 v=64
112302 Off ch=1 n=c6 v=64
112328 On ch=1 n=d4 v=56
112396 Off ch=1 n=d4 v=64
112428 Off ch=1 n=g5 v=64
112464 On ch=1 n=a3 v=40
112528 Off ch=1 n=a3 v=64
112634 On ch=1 n=d3 v=31
112674 On ch=1 n=f#6 v=48
112692 On ch=1 n=a5 v=73
112694 On ch=1 n=c6 v=34
112696 On ch=1 n=f#5 v=3
112716 Par ch=1 c=64 v=0
112892 On ch=1 n=a3 v=25
112916 Par ch=1 c=64 v=127
112972 Off ch=1 n=c6 v=64
112990 Off ch=1 n=d3 v=64
112994 Off ch=1 n=a3 v=64
113032 Off ch=1 n=f#5 v=64
113054 Off ch=1 n=a5 v=64
113076 On ch=1 n=d4 v=32
113144 Off ch=1 n=d4 v=64
113230 Off ch=1 n=f#6 v=64
113254 On ch=1 n=d4 v=15
113326 On ch=1 n=g6 v=67
113346 On ch=1 n=g5 v=33
113462 Off ch=1 n=d4 v=64
113508 On ch=1 n=a4 v=12
113580 Off ch=1 n=g6 v=64
113580 Off ch=1 n=g5 v=64
113618 Off ch=1 n=a4 v=64
113650 On ch=1 n=d5 v=43
113742 Off ch=1 n=d5 v=64
113794 On ch=1 n=a6 v=44
113806 On ch=1 n=a5 v=30
113814 On ch=1 n=c6 v=22
113926 On ch=1 n=a4 v=50
114136 On ch=1 n=f#4 v=47
114252 Par ch=1 c=64 v=0
114278 On ch=1 n=d4 v=49
114326 Off ch=1 n=f#4 v=64
114360 Par ch=1 c=64 v=127
114394 On ch=1 n=a#4 v=45
114399 Off ch=1 n=a6 v=64
114406 Off ch=1 n=d4 v=64
114432 Off ch=1 n=a4 v=64
114452 Off ch=1 n=c6 v=64
114462 Off ch=1 n=a5 v=64
114566 Off ch=1 n=a#4 v=64
114588 On ch=1 n=f#4 v=44
114664 Off ch=1 n=f#4 v=64
114708 On ch=1 n=d4 v=49
114836 Off ch=1 n=d4 v=64
114906 On ch=1 n=c5 v=57
114926 On ch=1 n=f#4 v=21
114996 On ch=1 n=d3 v=41
115006 Par ch=1 c=64 v=0
115190 Par ch=1 c=64 v=127
115284 On ch=1 n=a3 v=27
115298 Off ch=1 n=f#4 v=64
115318 Off ch=1 n=d3 v=64
115328 Off ch=1 n=c5 v=64
115376 Off ch=1 n=a3 v=64
115536 On ch=1 n=d4 v=25
115608 Off ch=1 n=d4 v=64
115694 On ch=1 n=a6 v=65
115697 On ch=1 n=a5 v=40
115706 On ch=1 n=f#6 v=31
115708 On ch=1 n=f#4 v=36
115786 Off ch=1 n=a5 v=64
115912 Off ch=1 n=f#4 v=64
115966 On ch=1 n=c5 v=25
116010 On ch=1 n=c6 v=44
116042 Off ch=1 n=f#6 v=64
116050 Off ch=1 n=c5 v=64
116084 Off ch=1 n=a6 v=64
116118 On ch=1 n=d5 v=39
116220 Off ch=1 n=d5 v=64
116230 On ch=1 n=a6 v=88
116246 On ch=1 n=f#6 v=56
116248 On ch=1 n=d6 v=61
116268 On ch=1 n=f#5 v=41
116326 Off ch=1 n=c6 v=64
116330 Off ch=1 n=f#6 v=64
116350 Off ch=1 n=f#5 v=64
116362 Off ch=1 n=d6 v=64
116436 On ch=1 n=d5 v=46
116512 Off ch=1 n=a6 v=64
116562 Off ch=1 n=d5 v=64
116602 On ch=1 n=c5 v=31
116666 On ch=1 n=a#6 v=89
116676 Off ch=1 n=c5 v=64
116680 On ch=1 n=d6 v=44
116680 On ch=1 n=f#6 v=38
116684 On ch=1 n=a#5 v=52
116704 On ch=1 n=f#4 v=58
116744 Off ch=1 n=d6 v=64
116748 Off ch=1 n=f#6 v=64
116752 Off ch=1 n=f#4 v=64
116820 Off ch=1 n=a#5 v=64
116852 On ch=1 n=d4 v=57
116930 Off ch=1 n=d4 v=64
116982 On ch=1 n=a3 v=48
116984 Off ch=1 n=a#6 v=64
117040 Off ch=1 n=a3 v=64
117092 On ch=1 n=d3 v=52
117138 On ch=1 n=c7 v=97
117150 On ch=1 n=c6 v=71
117153 On ch=1 n=g6 v=77
117158 On ch=1 n=d#6 v=46
117204 Par ch=1 c=64 v=0
117306 On ch=1 n=a3 v=44
117320 Off ch=1 n=d3 v=64
117342 Par ch=1 c=64 v=127
117360 Off ch=1 n=a3 v=64
117452 On ch=1 n=g4 v=51
117522 Off ch=1 n=g4 v=64
117774 On ch=1 n=d5 v=87
117798 Off ch=1 n=g6 v=64
117806 Off ch=1 n=c7 v=64
117862 Off ch=1 n=d#6 v=64
117898 Off ch=1 n=c6 v=64
117962 On ch=1 n=c5 v=50
118046 Off ch=1 n=d5 v=64
118046 Off ch=1 n=c5 v=64
118118 On ch=1 n=g4 v=39
118174 Off ch=1 n=g4 v=64
118196 On ch=1 n=a#6 v=75
118212 On ch=1 n=a#5 v=41
118212 On ch=1 n=d#6 v=42
118218 On ch=1 n=c6 v=18
118266 On ch=1 n=d#5 v=93
118402 Off ch=1 n=a#6 v=64
118446 On ch=1 n=c5 v=43
118462 Off ch=1 n=a#5 v=64
118520 Off ch=1 n=d#5 v=64
118532 Off ch=1 n=c6 v=64
118570 On ch=1 n=g4 v=48
118598 Off ch=1 n=c5 v=64
118642 Off ch=1 n=g4 v=64
118654 On ch=1 n=a6 v=95
118657 On ch=1 n=a5 v=80
118670 Off ch=1 n=d#6 v=64
118670 On ch=1 n=f5 v=85
118806 On ch=1 n=c5 v=60
118818 Off ch=1 n=f5 v=64
118878 Off ch=1 n=a6 v=64
118898 On ch=1 n=g4 v=68
118920 Off ch=1 n=c5 v=64
118938 Off ch=1 n=g4 v=64
118950 Off ch=1 n=a5 v=64
119060 On ch=1 n=g5 v=93
119060 On ch=1 n=g6 v=100
119072 On ch=1 n=e6 v=61
119075 On ch=1 n=c#6 v=48
119106 On ch=1 n=d3 v=52
119109 Par ch=1 c=64 v=0
119244 On ch=1 n=a3 v=55
119264 Off ch=1 n=d3 v=64
119278 Par ch=1 c=64 v=127
119298 Off ch=1 n=a3 v=64
119372 Off ch=1 n=g5 v=64
119375 On ch=1 n=g4 v=68
119402 Off ch=1 n=g6 v=64
119436 Off ch=1 n=g4 v=64
119478 On ch=1 n=a6 v=103
119486 On ch=1 n=a5 v=72
119514 On ch=1 n=a4 v=45
119540 Off ch=1 n=c#6 v=64
119546 Off ch=1 n=e6 v=64
119648 Off ch=1 n=a5 v=64
119658 On ch=1 n=a#4 v=57
119678 Off ch=1 n=a4 v=64
119712 Off ch=1 n=a6 v=64
119830 On ch=1 n=c#5 v=65
119914 Off ch=1 n=a#4 v=64
119930 On ch=1 n=a#6 v=82
119950 On ch=1 n=a#5 v=41
119958 On ch=1 n=e6 v=42
119962 On ch=1 n=c#6 v=41
119984 Off ch=1 n=c#5 v=64
120050 On ch=1 n=f#5 v=84
120202 Off ch=1 n=a#6 v=64
120212 Off ch=1 n=a#5 v=64
120250 On ch=1 n=c#5 v=64
120254 Off ch=1 n=f#5 v=64
120326 Off ch=1 n=e6 v=64
120386 Off ch=1 n=c#5 v=64
120394 On ch=1 n=a#4 v=52
120456 Off ch=1 n=a#4 v=64
120542 On ch=1 n=g5 v=95
120556 On ch=1 n=g4 v=41
120664 Off ch=1 n=g4 v=64
120686 Off ch=1 n=c#6 v=64
120722 On ch=1 n=a3 v=47
120796 Off ch=1 n=g5 v=64
120815 Off ch=1 n=a3 v=64
120850 On ch=1 n=d3 v=63
120972 On ch=1 n=a5 v=76
120976 On ch=1 n=f#5 v=58
120980 On ch=1 n=f#6 v=73
120988 On ch=1 n=c6 v=52
120988 On ch=1 n=d6 v=41
121028 Par ch=1 c=64 v=0
121054 Off ch=1 n=d6 v=64
121174 On ch=1 n=a3 v=41
121214 Par ch=1 c=64 v=127
121222 Off ch=1 n=c6 v=64
121228 Off ch=1 n=d3 v=64
121236 Off ch=1 n=a3 v=64
121264 Off ch=1 n=a5 v=64
121282 On ch=1 n=d4 v=59
121316 Off ch=1 n=f#5 v=64
121332 Off ch=1 n=d4 v=64
121368 Off ch=1 n=f#6 v=64
121400 On ch=1 n=g6 v=93
121416 On ch=1 n=d4 v=46
121416 On ch=1 n=g5 v=69
121556 Off ch=1 n=d4 v=64
121558 On ch=1 n=a4 v=43
121614 Off ch=1 n=a4 v=64
121660 Off ch=1 n=g5 v=64
121666 On ch=1 n=d5 v=63
121712 Off ch=1 n=g6 v=64
121820 Off ch=1 n=d5 v=64
121822 On ch=1 n=a6 v=91
121830 On ch=1 n=a5 v=58
121830 On ch=1 n=c5 v=63
121832 On ch=1 n=d6 v=54
121840 On ch=1 n=c6 v=40
121976 Off ch=1 n=c5 v=64
121990 On ch=1 n=a4 v=63
122014 Off ch=1 n=a6 v=64
122026 Off ch=1 n=c6 v=64
122044 Off ch=1 n=d6 v=64
122118 Off ch=1 n=a4 v=64
122132 Off ch=1 n=a5 v=64
122134 On ch=1 n=d4 v=67
122178 Off ch=1 n=d4 v=64
122306 On ch=1 n=d4 v=45
122394 On ch=1 n=a5 v=81
122398 Off ch=1 n=d4 v=64
122480 On ch=1 n=d3 v=64
122610 Off ch=1 n=d3 v=64
122642 On ch=1 n=c6 v=94
122646 On ch=1 n=d4 v=76
122678 Off ch=1 n=a5 v=64
122776 Off ch=1 n=d4 v=64
122796 On ch=1 n=g3 v=84
122888 Par ch=1 c=64 v=0
122900 On ch=1 n=d6 v=97
122916 On ch=1 n=d5 v=50
122928 On ch=1 n=a#5 v=32
122972 Off ch=1 n=c6 v=64
123036 Off ch=1 n=d5 v=64
123048 On ch=1 n=d4 v=68
123072 Par ch=1 c=64 v=127
123094 Off ch=1 n=g3 v=64
123132 Off ch=1 n=d6 v=64
123142 Off ch=1 n=a#5 v=64
123160 On ch=1 n=g4 v=73
123166 Off ch=1 n=d4 v=64
123270 Off ch=1 n=g4 v=64
123284 On ch=1 n=a#6 v=97
123290 On ch=1 n=a#5 v=72
123290 On ch=1 n=a#4 v=72
123346 Off ch=1 n=a#5 v=64
123446 On ch=1 n=d5 v=66
123492 Off ch=1 n=a#6 v=64
123504 Off ch=1 n=a#4 v=64
123560 Off ch=1 n=d5 v=64
123560 On ch=1 n=g5 v=81
123672 Off ch=1 n=g5 v=64
123678 On ch=1 n=a#6 v=100
123688 On ch=1 n=a#5 v=74
123692 On ch=1 n=g6 v=85
123696 On ch=1 n=d6 v=75
123750 Off ch=1 n=g6 v=64
123764 Off ch=1 n=a#5 v=64
123824 On ch=1 n=g5 v=76
123876 Off ch=1 n=d6 v=64
123900 On ch=1 n=g6 v=7
123936 On ch=1 n=d5 v=65
123964 Off ch=1 n=g5 v=64
123972 Off ch=1 n=g6 v=64
124048 Off ch=1 n=d5 v=64
124050 Off ch=1 n=a#6 v=64
124054 On ch=1 n=c7 v=109
124060 On ch=1 n=a#4 v=70
124064 On ch=1 n=c6 v=92
124144 Off ch=1 n=a#4 v=64
124208 On ch=1 n=g4 v=84
124324 Off ch=1 n=g4 v=64
124330 On ch=1 n=d4 v=83
124408 Off ch=1 n=c6 v=64
124458 Off ch=1 n=d4 v=64
124458 On ch=1 n=f3 v=95
124466 Off ch=1 n=c7 v=64
124564 On ch=1 n=d7 v=107
124568 On ch=1 n=a#6 v=76
124572 On ch=1 n=d6 v=67
124576 On ch=1 n=g#6 v=67
124654 Par ch=1 c=64 v=0
124804 On ch=1 n=d4 v=73
124838 Par ch=1 c=64 v=127
124846 Off ch=1 n=f3 v=64
124886 Off ch=1 n=d6 v=64
124928 Off ch=1 n=d4 v=64
124940 On ch=1 n=g4 v=76
125020 Off ch=1 n=g#6 v=64
125066 On ch=1 n=d6 v=109
125076 On ch=1 n=g#4 v=79
125090 Off ch=1 n=g4 v=64
125142 Off ch=1 n=a#6 v=64
125214 On ch=1 n=a#4 v=59
125218 Off ch=1 n=d7 v=64
125246 Off ch=1 n=g#4 v=64
125328 Off ch=1 n=d6 v=64
125348 On ch=1 n=d5 v=77
125368 Off ch=1 n=a#4 v=64
125428 Off ch=1 n=d5 v=64
125489 On ch=1 n=c7 v=108
125494 On ch=1 n=g#5 v=81
125498 On ch=1 n=d#6 v=99
125502 On ch=1 n=c6 v=68
125618 Off ch=1 n=g#5 v=64
125652 Off ch=1 n=c7 v=64
125655 On ch=1 n=d#5 v=68
125715 Off ch=1 n=c6 v=64
125762 On ch=1 n=d5 v=71
125780 Off ch=1 n=d#5 v=64
125852 Off ch=1 n=d#6 v=64
125896 Off ch=1 n=d5 v=64
125908 On ch=1 n=a#4 v=43
125916 On ch=1 n=f6 v=101
125920 On ch=1 n=a#6 v=88
125926 On ch=1 n=a#5 v=75
125966 Off ch=1 n=a#4 v=64
126052 Off ch=1 n=a#5 v=64
126066 On ch=1 n=g#4 v=64
126174 Off ch=1 n=f6 v=64
126190 Off ch=1 n=a#6 v=64
126208 Off ch=1 n=g#4 v=64
126212 On ch=1 n=a#3 v=65
126350 On ch=1 n=d#3 v=79
126366 Off ch=1 n=a#3 v=64
126420 On ch=1 n=c7 v=102
126420 On ch=1 n=g6 v=110
126428 On ch=1 n=d#6 v=65
126430 On ch=1 n=c6 v=31
126482 Par ch=1 c=64 v=0
126668 On ch=1 n=a#3 v=52
126684 Par ch=1 c=64 v=127
126694 Off ch=1 n=d#3 v=64
126814 Off ch=1 n=a#3 v=64
126826 Off ch=1 n=c6 v=64
126832 Off ch=1 n=d#6 v=64
126832 On ch=1 n=g4 v=61
126868 Off ch=1 n=c7 v=64
126895 Off ch=1 n=g6 v=64
126974 Off ch=1 n=g4 v=64
126982 On ch=1 n=d7 v=106
126990 On ch=1 n=d6 v=91
127022 On ch=1 n=a#4 v=43
127132 Off ch=1 n=d6 v=64
127198 On ch=1 n=d#5 v=61
127286 Off ch=1 n=d#5 v=64
127289 Off ch=1 n=d7 v=64
127348 On ch=1 n=f5 v=65
127386 Off ch=1 n=f5 v=64
127476 On ch=1 n=d#7 v=95
127490 On ch=1 n=d#6 v=66
127516 Off ch=1 n=a#4 v=64
127524 On ch=1 n=a#6 v=25
127556 On ch=1 n=g5 v=97
127598 Off ch=1 n=a#6 v=64
127624 Off ch=1 n=d#6 v=64
127744 On ch=1 n=d#5 v=62
127762 Off ch=1 n=g5 v=64
127852 On ch=1 n=a#4 v=40
127866 Off ch=1 n=d#5 v=64
127908 Off ch=1 n=a#4 v=64
127988 On ch=1 n=f7 v=102
127990 On ch=1 n=g4 v=76
128002 On ch=1 n=f6 v=87
128010 Off ch=1 n=d#7 v=64
128040 Off ch=1 n=g4 v=64
128098 On ch=1 n=a#3 v=58
128234 On ch=1 n=d#3 v=61
128294 Off ch=1 n=d#3 v=64
128318 Off ch=1 n=f6 v=64
128372 Off ch=1 n=f7 v=64
128422 On ch=1 n=e3 v=98
128532 On ch=1 n=g7 v=101
128540 On ch=1 n=g6 v=94
128540 On ch=1 n=d7 v=68
128548 On ch=1 n=a#6 v=37
128558 Par ch=1 c=64 v=0
128622 Off ch=1 n=a#6 v=64
128664 Off ch=1 n=e3 v=64
128712 Par ch=1 c=64 v=127
128738 Off ch=1 n=d7 v=64
128750 Off ch=1 n=a#3 v=64
128766 On ch=1 n=g4 v=67
128786 Off ch=1 n=g6 v=64
128872 Off ch=1 n=g4 v=64
128948 On ch=1 n=a#4 v=55
129230 On ch=1 n=a7 v=83
129240 On ch=1 n=a6 v=56
129244 On ch=1 n=d7 v=39
129350 Off ch=1 n=g7 v=64
129366 On ch=1 n=a5 v=83
129606 On ch=1 n=g5 v=44
129722 Off ch=1 n=a5 v=64
129772 On ch=1 n=d5 v=46
129780 Off ch=1 n=g5 v=64
129946 On ch=1 n=a#5 v=69
129982 Off ch=1 n=d5 v=64
130032 Par ch=1 c=64 v=0
130140 Par ch=1 c=64 v=127
130184 On ch=1 n=g5 v=44
130268 Off ch=1 n=a6 v=64
130330 Off ch=1 n=g5 v=64
130380 Off ch=1 n=a7 v=64
130384 On ch=1 n=d5 v=31
130432 Off ch=1 n=a#4 v=64
130478 Off ch=1 n=a#5 v=64
130500 Off ch=1 n=d5 v=64
130580 On ch=1 n=a#7 v=50
130590 On ch=1 n=a#6 v=42
130632 On ch=1 n=c6 v=59
130722 Off ch=1 n=a#6 v=64
130818 Off ch=1 n=a#7 v=64
130824 Off ch=1 n=d7 v=64
130858 Off ch=1 n=c6 v=64
130908 On ch=1 n=g5 v=28
131028 Off ch=1 n=g5 v=64
131126 On ch=1 n=d5 v=43
131174 Off ch=1 n=d5 v=64
131474 On ch=1 n=a2 v=42
131582 On ch=1 n=d6 v=70
131592 On ch=1 n=f#6 v=50
131602 On ch=1 n=f#5 v=22
131692 Par ch=1 c=64 v=0
131824 Off ch=1 n=a2 v=64
131832 Par ch=1 c=64 v=127
131872 On ch=1 n=a3 v=42
131928 Off ch=1 n=a3 v=64
131982 Off ch=1 n=f#5 v=64
132094 On ch=1 n=f#4 v=52
132194 Off ch=1 n=f#4 v=64
132268 On ch=1 n=a6 v=72
132278 Off ch=1 n=f#6 v=64
132278 On ch=1 n=a5 v=41
132314 Off ch=1 n=d6 v=64
132326 On ch=1 n=a4 v=27
132382 Off ch=1 n=a5 v=64
132432 Off ch=1 n=a4 v=64
132518 On ch=1 n=d5 v=39
132614 Off ch=1 n=d5 v=64
132660 On ch=1 n=e5 v=49
132778 Off ch=1 n=e5 v=64
132806 On ch=1 n=c7 v=92
132818 On ch=1 n=c6 v=53
132818 On ch=1 n=f#5 v=43
132868 Off ch=1 n=a6 v=64
132890 Off ch=1 n=f#5 v=64
132978 Off ch=1 n=c6 v=64
132978 On ch=1 n=d5 v=59
133072 Off ch=1 n=c7 v=64
133080 Off ch=1 n=d5 v=64
133126 On ch=1 n=a4 v=43
133254 Off ch=1 n=a4 v=64
133270 On ch=1 n=f#4 v=61
133316 Off ch=1 n=f#4 v=64
133446 On ch=1 n=a3 v=37
133512 Off ch=1 n=a3 v=64
133554 On ch=1 n=a2 v=63
133730 On ch=1 n=d#6 v=75
133730 On ch=1 n=f#6 v=79
133734 On ch=1 n=f#5 v=70
133750 Par ch=1 c=64 v=0
133852 Off ch=1 n=a2 v=64
133868 On ch=1 n=a3 v=56
133890 Par ch=1 c=64 v=127
133920 Off ch=1 n=a3 v=64
133988 Off ch=1 n=f#5 v=64
134046 On ch=1 n=f#4 v=62
134116 Off ch=1 n=f#4 v=64
134282 On ch=1 n=a4 v=39
134314 Off ch=1 n=f#6 v=64
134356 On ch=1 n=a6 v=85
134360 On ch=1 n=a5 v=62
134376 Off ch=1 n=a4 v=64
134508 On ch=1 n=b4 v=37
134516 Off ch=1 n=a5 v=64
134576 Off ch=1 n=b4 v=64
134658 On ch=1 n=d#5 v=50
134812 Off ch=1 n=d#5 v=64
134880 On ch=1 n=f#5 v=28
134968 On ch=1 n=b6 v=93
134976 On ch=1 n=b5 v=51
135006 Off ch=1 n=f#5 v=64
135048 Off ch=1 n=a6 v=64
135076 On ch=1 n=d#5 v=42
135128 Off ch=1 n=d#5 v=64
135242 On ch=1 n=b4 v=41
135326 Off ch=1 n=b4 v=64
135354 Off ch=1 n=b5 v=64
135374 Off ch=1 n=b6 v=64
135410 On ch=1 n=a4 v=32
135506 Off ch=1 n=a4 v=64
135572 On ch=1 n=f#4 v=38
135634 Off ch=1 n=f#4 v=64
135768 On ch=1 n=a3 v=38
135868 Off ch=1 n=a3 v=64
136034 On ch=1 n=a2 v=47
136138 On ch=1 n=f#5 v=38
136140 On ch=1 n=f#6 v=58
136164 Par ch=1 c=64 v=0
136280 Off ch=1 n=a2 v=64
136300 Par ch=1 c=64 v=127
136320 On ch=1 n=a3 v=52
136370 Off ch=1 n=a3 v=64
136460 Off ch=1 n=f#5 v=64
136506 On ch=1 n=f#4 v=63
136634 Off ch=1 n=f#4 v=64
136692 On ch=1 n=g4 v=57
136710 On ch=1 n=g6 v=75
136724 Off ch=1 n=f#6 v=64
136730 On ch=1 n=g5 v=44
136824 Off ch=1 n=g4 v=64
136870 On ch=1 n=a#4 v=54
136894 Off ch=1 n=g5 v=64
136990 Off ch=1 n=g6 v=64
136996 Off ch=1 n=d#6 v=64
137066 On ch=1 n=d#5 v=60
137182 Off ch=1 n=a#4 v=64
137218 Off ch=1 n=d#5 v=64
137314 On ch=1 n=a#6 v=58
137330 On ch=1 n=a#5 v=27
137344 On ch=1 n=e6 v=44
137360 On ch=1 n=d6 v=52
137360 On ch=1 n=e5 v=63
137382 On ch=1 n=d5 v=43
137408 Par ch=1 c=64 v=0
137458 Off ch=1 n=d5 v=64
137578 Par ch=1 c=64 v=127
137590 On ch=1 n=a#4 v=35
137610 Off ch=1 n=e5 v=64
137652 Off ch=1 n=a#4 v=64
137766 On ch=1 n=g4 v=49
137836 Off ch=1 n=g4 v=64
137938 On ch=1 n=a3 v=36
137960 Off ch=1 n=d6 v=64
138034 Off ch=1 n=a3 v=64
138098 On ch=1 n=g4 v=63
138146 Off ch=1 n=g4 v=64
138260 On ch=1 n=g4 v=28
138452 Off ch=1 n=g4 v=64
138454 Par ch=1 c=64 v=0
138474 On ch=1 n=f6 v=51
138479 On ch=1 n=c#5 v=44
138479 On ch=1 n=c#6 v=28
138479 On ch=1 n=f5 v=42
138530 Off ch=1 n=e6 v=64
138636 Par ch=1 c=64 v=127
138664 Off ch=1 n=f5 v=64
138666 On ch=1 n=a#4 v=34
138702 Off ch=1 n=c#5 v=64
138728 Off ch=1 n=a#4 v=64
138866 On ch=1 n=g4 v=35
138946 Off ch=1 n=g4 v=64
139078 On ch=1 n=a3 v=21
139160 Off ch=1 n=a#6 v=64
139180 Off ch=1 n=a3 v=64
139208 Off ch=1 n=f6 v=64
139220 Off ch=1 n=c#6 v=64
139230 Off ch=1 n=a#5 v=64
139304 On ch=1 n=g4 v=42
139360 Off ch=1 n=g4 v=64
139526 On ch=1 n=g4 v=36
139585 Off ch=1 n=g4 v=64
139786 On ch=1 n=a6 v=43
139794 On ch=1 n=f#6 v=30
139796 On ch=1 n=a5 v=21
139802 On ch=1 n=c#6 v=17
139804 On ch=1 n=g5 v=30
139806 On ch=1 n=f#5 v=21
139809 On ch=1 n=c#5 v=25
139836 Par ch=1 c=64 v=0
139990 Off ch=1 n=f#5 v=64
140050 Par ch=1 c=64 v=127
140082 Off ch=1 n=c#5 v=64
140096 On ch=1 n=a4 v=26
140164 Off ch=1 n=a4 v=64
140296 On ch=1 n=a4 v=4
140416 Off ch=1 n=a4 v=64
140578 On ch=1 n=g4 v=9
140680 Off ch=1 n=g4 v=64
140740 Off ch=1 n=g5 v=64
140778 Off ch=1 n=a5 v=64
140858 On ch=1 n=a3 v=18
140932 Off ch=1 n=a6 v=64
140990 Off ch=1 n=c#6 v=64
141006 Off ch=1 n=a3 v=64
141018 Off ch=1 n=f#6 v=64
141272 On ch=1 n=a3 v=20
141372 Off ch=1 n=a3 v=64
141896 On ch=1 n=d4 v=36
141896 On ch=1 n=d3 v=13
141910 Par ch=1 c=64 v=0
141912 On ch=1 n=d2 v=24
142034 Off ch=1 n=d4 v=64
142034 Off ch=1 n=d2 v=64
142046 Off ch=1 n=d3 v=64
142064 Par ch=1 c=64 v=127
142600 On ch=1 n=d6 v=30
142606 On ch=1 n=d5 v=24
142618 On ch=1 n=a4 v=9
142620 On ch=1 n=f#5 v=13
142624 On ch=1 n=f#4 v=20
142630 On ch=1 n=a3 v=9
142684 Off ch=1 n=d6 v=64
142702 Off ch=1 n=d5 v=64
142704 Off ch=1 n=a4 v=64
142710 Off ch=1 n=f#5 v=64
142710 Off ch=1 n=f#4 v=64
142710 Off ch=1 n=a3 v=64
142856 On ch=1 n=f#5 v=7
142880 On ch=1 n=a4 v=9
142884 On ch=1 n=d5 v=6
142900 On ch=1 n=d6 v=21
142906 On ch=1 n=f#4 v=10
142910 On ch=1 n=a3 v=6
142956 Off ch=1 n=d5 v=64
142962 Off ch=1 n=f#5 v=64
142966 Off ch=1 n=a4 v=64
142974 Off ch=1 n=d6 v=64
142978 Off ch=1 n=f#4 v=64
142982 Off ch=1 n=a3 v=64
143184 On ch=1 n=f#5 v=7
143184 On ch=1 n=d6 v=27
143192 On ch=1 n=a4 v=9
143192 On ch=1 n=a3 v=14
143192 On ch=1 n=d5 v=12
143210 On ch=1 n=f#4 v=23
143268 Off ch=1 n=a4 v=64
143270 Off ch=1 n=d6 v=64
143273 Off ch=1 n=d5 v=64
143282 Off ch=1 n=f#4 v=64
143294 Off ch=1 n=a3 v=64
143296 Off ch=1 n=f#5 v=64
143655 On ch=1 n=f#4 v=42
143672 On ch=1 n=f#2 v=31
143688 On ch=1 n=f#3 v=15
143736 Off ch=1 n=f#2 v=64
143758 Off ch=1 n=f#3 v=64
143796 Off ch=1 n=f#4 v=64
144076 Par ch=1 c=64 v=0
144078 On ch=1 n=a#4 v=32
144086 On ch=1 n=a#3 v=35
144106 On ch=1 n=a#2 v=43
144250 Off ch=1 n=a#2 v=64
144260 Off ch=1 n=a#4 v=64
144276 Par ch=1 c=64 v=127
144290 Off ch=1 n=a#3 v=64
144510 On ch=1 n=e5 v=31
144524 On ch=1 n=g4 v=15
144524 On ch=1 n=d5 v=20
144527 On ch=1 n=d4 v=34
144536 On ch=1 n=e4 v=29
144590 Off ch=1 n=d4 v=64
144596 Off ch=1 n=e4 v=64
144618 Off ch=1 n=g4 v=64
144618 Off ch=1 n=d5 v=64
144626 Off ch=1 n=e5 v=64
144874 Par ch=1 c=64 v=0
144918 On ch=1 n=g4 v=52
144932 On ch=1 n=g2 v=54
144982 On ch=1 n=g3 v=2
145066 Off ch=1 n=g2 v=64
145084 Off ch=1 n=g3 v=64
145094 Off ch=1 n=g4 v=64
145106 Par ch=1 c=64 v=127
145302 On ch=1 n=a#4 v=29
145306 On ch=1 n=d5 v=35
145312 On ch=1 n=e5 v=34
145314 On ch=1 n=d4 v=30
145316 On ch=1 n=e4 v=40
145368 Off ch=1 n=e5 v=64
145368 Off ch=1 n=e4 v=64
145370 Off ch=1 n=d5 v=64
145380 Off ch=1 n=d4 v=64
145386 Off ch=1 n=a#4 v=64
145644 Par ch=1 c=64 v=0
145684 On ch=1 n=d4 v=73
145686 On ch=1 n=d3 v=49
145692 On ch=1 n=d2 v=55
145734 Off ch=1 n=d4 v=64
145736 Off ch=1 n=d3 v=64
145740 Off ch=1 n=d2 v=64
145782 Par ch=1 c=64 v=127
146256 On ch=1 n=a4 v=26
146266 On ch=1 n=d6 v=33
146268 On ch=1 n=f#4 v=40
146274 On ch=1 n=d5 v=19
146276 On ch=1 n=f#5 v=17
146280 On ch=1 n=a3 v=15
146326 Off ch=1 n=d6 v=64
146342 Off ch=1 n=a4 v=64
146348 Off ch=1 n=f#4 v=64
146358 Off ch=1 n=d5 v=64
146360 Off ch=1 n=f#5 v=64
146363 Off ch=1 n=a3 v=64
146456 On ch=1 n=f#5 v=24
146460 On ch=1 n=a3 v=22
146464 On ch=1 n=d5 v=35
146472 On ch=1 n=d6 v=28
146480 On ch=1 n=a4 v=27
146484 On ch=1 n=f#4 v=30
146558 Off ch=1 n=a4 v=64
146560 Off ch=1 n=d5 v=64
146560 Off ch=1 n=f#4 v=64
146566 Off ch=1 n=d6 v=64
146568 Off ch=1 n=f#5 v=64
146580 Off ch=1 n=a3 v=64
146702 On ch=1 n=d6 v=30
146705 On ch=1 n=f#5 v=11
146714 On ch=1 n=d5 v=27
146722 On ch=1 n=a4 v=17
146722 On ch=1 n=f#4 v=13
146728 On ch=1 n=a3 v=14
146767 Off ch=1 n=d6 v=64
146780 Off ch=1 n=f#4 v=64
146786 Off ch=1 n=d5 v=64
146798 Off ch=1 n=a4 v=64
146824 Off ch=1 n=f#5 v=64
146844 Off ch=1 n=a3 v=64
147124 On ch=1 n=f#2 v=41
147127 On ch=1 n=f#4 v=48
147150 On ch=1 n=f#3 v=21
147164 Par ch=1 c=64 v=0
147286 Off ch=1 n=f#3 v=64
147296 Off ch=1 n=f#2 v=64
147301 Par ch=1 c=64 v=127
147314 Off ch=1 n=f#4 v=64
147472 Par ch=1 c=64 v=0
147500 On ch=1 n=a#4 v=38
147502 On ch=1 n=a#3 v=42
147512 On ch=1 n=a#2 v=42
147672 Par ch=1 c=64 v=127
147675 Off ch=1 n=a#2 v=64
147690 Off ch=1 n=a#3 v=64
147726 Off ch=1 n=a#4 v=64
147898 On ch=1 n=e5 v=41
147908 On ch=1 n=g4 v=32
147908 On ch=1 n=d5 v=18
147916 On ch=1 n=d4 v=39
147916 On ch=1 n=e4 v=44
147918 Par ch=1 c=64 v=0
147990 Off ch=1 n=e4 v=64
148024 Off ch=1 n=d4 v=64
148026 Off ch=1 n=d5 v=64
148070 Par ch=1 c=64 v=127
148080 Off ch=1 n=g4 v=64
148100 Off ch=1 n=e5 v=64
148226 Par ch=1 c=64 v=0
148284 On ch=1 n=g4 v=47
148298 On ch=1 n=g2 v=45
148312 On ch=1 n=g3 v=25
148410 Par ch=1 c=64 v=127
148413 Off ch=1 n=g2 v=64
148454 Off ch=1 n=g3 v=64
148456 Off ch=1 n=g4 v=64
148640 Par ch=1 c=64 v=0
148668 On ch=1 n=d4 v=46
148668 On ch=1 n=a#4 v=30
148672 On ch=1 n=e5 v=42
148674 On ch=1 n=e4 v=54
148678 On ch=1 n=d5 v=33
148726 Off ch=1 n=e4 v=64
148732 Off ch=1 n=d4 v=64
148770 Off ch=1 n=d5 v=64
148778 Par ch=1 c=64 v=127
148786 Off ch=1 n=e5 v=64
148814 Off ch=1 n=a#4 v=64
149086 Par ch=1 c=64 v=0
149114 On ch=1 n=d4 v=54
149114 On ch=1 n=d2 v=45
149120 On ch=1 n=d3 v=49
149172 Off ch=1 n=d2 v=64
149178 Off ch=1 n=d3 v=64
149182 Off ch=1 n=d4 v=64
149224 Par ch=1 c=64 v=127
149646 On ch=1 n=a3 v=24
149656 On ch=1 n=a4 v=16
149660 On ch=1 n=d5 v=25
149662 On ch=1 n=d6 v=28
149666 On ch=1 n=f#4 v=31
149669 On ch=1 n=f#5 v=15
149726 Off ch=1 n=a3 v=64
149726 Off ch=1 n=d6 v=64
149736 Off ch=1 n=f#4 v=64
149742 Off ch=1 n=a4 v=64
149748 Off ch=1 n=d5 v=64
149758 Off ch=1 n=f#5 v=64
149818 On ch=1 n=d6 v=44
149826 On ch=1 n=a3 v=21
149834 On ch=1 n=a4 v=39
149844 On ch=1 n=f#4 v=36
149846 On ch=1 n=d5 v=25
149848 On ch=1 n=f#5 v=36
149902 Off ch=1 n=d6 v=64
149918 Off ch=1 n=a4 v=64
149926 Off ch=1 n=f#5 v=64
149932 Off ch=1 n=f#4 v=64
149934 Off ch=1 n=a3 v=64
149934 Off ch=1 n=d5 v=64
150064 On ch=1 n=f#5 v=26
150068 On ch=1 n=d5 v=39
150074 On ch=1 n=d6 v=52
150076 On ch=1 n=a4 v=28
150078 On ch=1 n=a3 v=19
150084 On ch=1 n=f#4 v=15
150130 Off ch=1 n=d6 v=64
150190 Off ch=1 n=a4 v=64
150208 Off ch=1 n=f#5 v=64
150218 Off ch=1 n=d5 v=64
150224 Off ch=1 n=f#4 v=64
150288 Off ch=1 n=a3 v=64
150460 On ch=1 n=d5 v=65
150464 On ch=1 n=d4 v=58
150512 Off ch=1 n=d5 v=64
150516 Off ch=1 n=d4 v=64
150852 Par ch=1 c=64 v=0
150890 On ch=1 n=d#4 v=72
150892 On ch=1 n=d#3 v=50
150904 On ch=1 n=d#2 v=57
150962 Off ch=1 n=d#2 v=64
150990 Par ch=1 c=64 v=127
151004 Off ch=1 n=d#3 v=64
151032 Off ch=1 n=d#4 v=64
151286 On ch=1 n=g5 v=55
151289 On ch=1 n=d5 v=59
151292 On ch=1 n=g4 v=46
151302 On ch=1 n=d4 v=51
151340 Off ch=1 n=d5 v=64
151348 Off ch=1 n=g5 v=64
151350 Off ch=1 n=g4 v=64
151356 Off ch=1 n=d4 v=64
151432 On ch=1 n=g4 v=51
151438 On ch=1 n=d4 v=46
151440 On ch=1 n=g5 v=51
151446 On ch=1 n=d5 v=45
151508 Off ch=1 n=g4 v=64
151508 Off ch=1 n=d5 v=64
151518 Off ch=1 n=d4 v=64
151534 Off ch=1 n=g5 v=64
151604 On ch=1 n=g4 v=50
151610 On ch=1 n=d5 v=56
151612 On ch=1 n=g5 v=69
151628 On ch=1 n=d4 v=45
151674 Off ch=1 n=d5 v=64
151692 Off ch=1 n=d4 v=64
151726 Off ch=1 n=g4 v=64
151734 Off ch=1 n=g5 v=64
151942 On ch=1 n=d5 v=89
151950 On ch=1 n=d4 v=81
151976 Off ch=1 n=d5 v=64
151988 Off ch=1 n=d4 v=64
152266 Par ch=1 c=64 v=0
152310 On ch=1 n=e3 v=105
152310 On ch=1 n=e4 v=89
152313 On ch=1 n=e2 v=83
152346 Off ch=1 n=e2 v=64
152356 Off ch=1 n=e3 v=64
152388 Par ch=1 c=64 v=127
152390 Off ch=1 n=e4 v=64
152658 On ch=1 n=g#4 v=62
152666 On ch=1 n=g#5 v=63
152668 On ch=1 n=d4 v=58
152672 On ch=1 n=d5 v=71
152716 Off ch=1 n=d4 v=64
152716 Off ch=1 n=d5 v=64
152722 Off ch=1 n=g#4 v=64
152726 Off ch=1 n=g#5 v=64
152792 On ch=1 n=g#4 v=64
152792 On ch=1 n=d5 v=67
152800 On ch=1 n=d4 v=73
152804 On ch=1 n=g#5 v=51
152856 Off ch=1 n=g#5 v=64
152862 Off ch=1 n=d5 v=64
152866 Off ch=1 n=d4 v=64
152886 Off ch=1 n=g#4 v=64
152948 On ch=1 n=d5 v=78
152950 On ch=1 n=g#4 v=70
152958 On ch=1 n=g#5 v=51
152968 On ch=1 n=d4 v=60
153024 Off ch=1 n=d5 v=64
153026 Off ch=1 n=d4 v=64
153068 Off ch=1 n=g#4 v=64
153112 Off ch=1 n=g#5 v=64
153260 On ch=1 n=d5 v=87
153264 On ch=1 n=d4 v=94
153300 Off ch=1 n=d4 v=64
153324 Off ch=1 n=d5 v=64
153480 Par ch=1 c=64 v=0
153560 On ch=1 n=f4 v=106
153570 On ch=1 n=f2 v=98
153574 On ch=1 n=f3 v=91
153630 Off ch=1 n=f2 v=64
153662 Off ch=1 n=f4 v=64
153664 Par ch=1 c=64 v=127
153686 Off ch=1 n=f3 v=64
153786 Par ch=1 c=64 v=0
153848 On ch=1 n=a5 v=65
153854 On ch=1 n=d4 v=91
153854 On ch=1 n=d5 v=76
153902 Off ch=1 n=d4 v=64
153910 Off ch=1 n=a5 v=64
153964 Off ch=1 n=d5 v=64
154132 On ch=1 n=f#4 v=95
154132 On ch=1 n=f#3 v=86
154132 On ch=1 n=f#2 v=88
154170 Par ch=1 c=64 v=127
154172 Off ch=1 n=f#2 v=64
154182 Off ch=1 n=f#3 v=64
154238 Off ch=1 n=f#4 v=64
154280 Par ch=1 c=64 v=0
154414 On ch=1 n=a5 v=70
154417 On ch=1 n=d4 v=88
154417 On ch=1 n=d5 v=74
154452 Off ch=1 n=d4 v=64
154470 Off ch=1 n=a5 v=64
154500 Off ch=1 n=d5 v=64
154696 On ch=1 n=g4 v=92
154702 On ch=1 n=g2 v=84
154704 On ch=1 n=g3 v=88
154740 Off ch=1 n=g3 v=64
154742 Off ch=1 n=g2 v=64
154746 Off ch=1 n=g4 v=64
154770 Par ch=1 c=64 v=127
155008 On ch=1 n=a#4 v=23
155014 On ch=1 n=a#5 v=52
155016 On ch=1 n=d5 v=59
155016 On ch=1 n=d4 v=72
155032 On ch=1 n=g5 v=44
155062 Off ch=1 n=a#4 v=64
155062 Off ch=1 n=d4 v=64
155064 Off ch=1 n=d5 v=64
155070 Off ch=1 n=a#5 v=64
155096 Off ch=1 n=g5 v=64
155124 On ch=1 n=d4 v=79
155128 On ch=1 n=a#5 v=61
155132 On ch=1 n=a#4 v=23
155140 On ch=1 n=d5 v=49
155150 On ch=1 n=g5 v=61
155178 Off ch=1 n=d4 v=64
155178 Off ch=1 n=a#5 v=64
155186 Off ch=1 n=a#4 v=64
155196 Off ch=1 n=d5 v=64
155196 Off ch=1 n=g5 v=64
155246 On ch=1 n=a#5 v=52
155252 On ch=1 n=g5 v=68
155260 On ch=1 n=d5 v=73
155264 On ch=1 n=a#4 v=58
155278 On ch=1 n=d4 v=58
155304 Off ch=1 n=d5 v=64
155307 Par ch=1 c=64 v=0
155328 Off ch=1 n=a#4 v=64
155368 Off ch=1 n=d4 v=64
155376 Off ch=1 n=a#5 v=64
155392 Off ch=1 n=g5 v=64
155534 On ch=1 n=a#4 v=62
155556 On ch=1 n=a#3 v=60
155560 On ch=1 n=a#2 v=75
155598 Off ch=1 n=a#2 v=64
155604 Off ch=1 n=a#3 v=64
155658 Off ch=1 n=a#4 v=64
155822 On ch=1 n=d5 v=84
155824 On ch=1 n=d4 v=93
155824 On ch=1 n=d3 v=91
155862 Off ch=1 n=d3 v=64
155870 Off ch=1 n=d4 v=64
155922 Off ch=1 n=d5 v=64
155922 Par ch=1 c=64 v=127
156100 On ch=1 n=d4 v=74
156106 On ch=1 n=a#5 v=50
156108 Par ch=1 c=64 v=0
156108 On ch=1 n=a#4 v=45
156110 On ch=1 n=d5 v=37
156112 On ch=1 n=g5 v=64
156162 Off ch=1 n=a#4 v=64
156174 Off ch=1 n=d4 v=64
156174 Off ch=1 n=d5 v=64
156184 Off ch=1 n=g5 v=64
156224 Off ch=1 n=a#5 v=64
156374 On ch=1 n=a#4 v=81
156382 On ch=1 n=a#3 v=76
156392 On ch=1 n=a#2 v=73
156424 Off ch=1 n=a#3 v=64
156427 Off ch=1 n=a#2 v=64
156474 Par ch=1 c=64 v=127
156484 Off ch=1 n=a#4 v=64
156638 On ch=1 n=a#4 v=62
156641 On ch=1 n=a#5 v=65
156648 On ch=1 n=d5 v=52
156648 On ch=1 n=d4 v=73
156651 On ch=1 n=g5 v=69
156660 Par ch=1 c=64 v=0
156682 Off ch=1 n=a#4 v=64
156698 Off ch=1 n=d4 v=64
156700 Off ch=1 n=d5 v=64
156700 Off ch=1 n=g5 v=64
156728 Off ch=1 n=a#5 v=64
156940 On ch=1 n=g4 v=94
156946 On ch=1 n=g2 v=87
156948 On ch=1 n=g3 v=81
156982 Off ch=1 n=g4 v=64
156982 Off ch=1 n=g2 v=64
156990 Off ch=1 n=g3 v=64
157028 Par ch=1 c=64 v=127
157278 On ch=1 n=a#5 v=62
157284 On ch=1 n=d4 v=39
157284 On ch=1 n=d5 v=9
157286 On ch=1 n=g5 v=63
157288 On ch=1 n=a#4 v=45
157330 Off ch=1 n=d5 v=64
157332 Off ch=1 n=a#5 v=64
157334 Off ch=1 n=g5 v=64
157344 Off ch=1 n=a#4 v=64
157350 Off ch=1 n=d4 v=64
157392 On ch=1 n=a#5 v=68
157392 On ch=1 n=g5 v=67
157392 On ch=1 n=d5 v=34
157398 On ch=1 n=a#4 v=56
157406 On ch=1 n=d4 v=48
157446 Off ch=1 n=d5 v=64
157450 Off ch=1 n=a#4 v=64
157452 Off ch=1 n=g5 v=64
157454 Off ch=1 n=a#5 v=64
157460 Off ch=1 n=d4 v=64
157520 On ch=1 n=a#5 v=65
157523 On ch=1 n=g5 v=68
157526 On ch=1 n=d5 v=34
157528 On ch=1 n=a#4 v=51
157536 On ch=1 n=d4 v=87
157580 Off ch=1 n=d5 v=64
157584 Off ch=1 n=g5 v=64
157588 Off ch=1 n=a#4 v=64
157606 Off ch=1 n=a#5 v=64
157644 Off ch=1 n=d4 v=64
157660 Par ch=1 c=64 v=0
157792 On ch=1 n=a#4 v=73
157798 On ch=1 n=a#3 v=81
157801 On ch=1 n=a#2 v=88
157848 Off ch=1 n=a#2 v=64
157880 Off ch=1 n=a#3 v=64
157908 Off ch=1 n=a#4 v=64
158070 On ch=1 n=d4 v=103
158074 On ch=1 n=d3 v=104
158076 On ch=1 n=d5 v=93
158112 Off ch=1 n=d3 v=64
158130 Off ch=1 n=d4 v=64
158166 Par ch=1 c=64 v=127
158184 Off ch=1 n=d5 v=64
158342 On ch=1 n=a#5 v=60
158344 On ch=1 n=g5 v=71
158346 On ch=1 n=a#4 v=64
158350 On ch=1 n=d5 v=87
158355 On ch=1 n=d4 v=55
158382 Par ch=1 c=64 v=0
158386 Off ch=1 n=d5 v=64
158390 Off ch=1 n=a#4 v=64
158414 Off ch=1 n=g5 v=64
158418 Off ch=1 n=d4 v=64
158478 Off ch=1 n=a#5 v=64
158604 On ch=1 n=a#3 v=86
158606 On ch=1 n=a#4 v=81
158614 On ch=1 n=a#2 v=85
158646 Off ch=1 n=a#2 v=64
158660 Off ch=1 n=a#3 v=64
158690 Off ch=1 n=a#4 v=64
158718 Par ch=1 c=64 v=127
158866 On ch=1 n=d5 v=89
158869 On ch=1 n=a#4 v=70
158876 On ch=1 n=a#5 v=73
158878 On ch=1 n=d4 v=83
158880 On ch=1 n=g5 v=74
158900 Off ch=1 n=d5 v=64
158912 Off ch=1 n=a#4 v=64
158920 Off ch=1 n=g5 v=64
158924 Off ch=1 n=a#5 v=64
158936 Off ch=1 n=d4 v=64
159026 Par ch=1 c=64 v=0
159206 On ch=1 n=g3 v=101
159208 On ch=1 n=g2 v=100
159211 On ch=1 n=g4 v=100
159240 Off ch=1 n=g2 v=64
159264 Off ch=1 n=g4 v=64
159288 Par ch=1 c=64 v=127
159304 Off ch=1 n=g3 v=64
159526 On ch=1 n=d4 v=79
159532 On ch=1 n=d5 v=57
159542 On ch=1 n=a#5 v=62
159544 On ch=1 n=a#4 v=45
159546 On ch=1 n=g5 v=66
159572 Off ch=1 n=d4 v=64
159586 Off ch=1 n=d5 v=64
159590 Off ch=1 n=a#5 v=64
159592 Off ch=1 n=g5 v=64
159598 Off ch=1 n=a#4 v=64
159646 On ch=1 n=a#5 v=68
159649 On ch=1 n=g5 v=74
159649 On ch=1 n=a#4 v=61
159666 On ch=1 n=d5 v=56
159666 On ch=1 n=d4 v=52
159706 Off ch=1 n=g5 v=64
159709 Off ch=1 n=a#4 v=64
159714 Off ch=1 n=d5 v=64
159718 Off ch=1 n=d4 v=64
159726 Off ch=1 n=a#5 v=64
159786 On ch=1 n=a#5 v=76
159789 On ch=1 n=d4 v=67
159792 On ch=1 n=d5 v=63
159794 On ch=1 n=g5 v=68
159797 On ch=1 n=a#4 v=47
159846 Off ch=1 n=g5 v=64
159882 Off ch=1 n=d5 v=64
159920 Off ch=1 n=a#5 v=64
159926 Off ch=1 n=d4 v=64
159944 Off ch=1 n=a#4 v=64
160052 On ch=1 n=g5 v=98
160068 On ch=1 n=g4 v=87
160102 Off ch=1 n=g4 v=64
160148 Par ch=1 c=64 v=0
160152 Off ch=1 n=g5 v=64
160340 On ch=1 n=g#4 v=103
160340 On ch=1 n=g#3 v=92
160348 On ch=1 n=g#2 v=90
160382 Off ch=1 n=g#2 v=64
160424 Par ch=1 c=64 v=127
160428 Off ch=1 n=g#3 v=64
160434 Off ch=1 n=g#4 v=64
160646 On ch=1 n=c5 v=81
160646 On ch=1 n=g4 v=59
160649 On ch=1 n=c6 v=78
160652 On ch=1 n=g5 v=70
160662 On ch=1 n=c4 v=38
160688 Off ch=1 n=c5 v=64
160688 Off ch=1 n=c6 v=64
160696 Off ch=1 n=g4 v=64
160700 Off ch=1 n=g5 v=64
160726 Off ch=1 n=c4 v=64
160762 On ch=1 n=g5 v=69
160765 On ch=1 n=c5 v=62
160770 On ch=1 n=g4 v=57
160784 On ch=1 n=c6 v=25
160788 On ch=1 n=c4 v=63
160820 Off ch=1 n=c5 v=64
160834 Off ch=1 n=g4 v=64
160837 Off ch=1 n=g5 v=64
160837 Off ch=1 n=c4 v=64
160848 Off ch=1 n=c6 v=64
160900 On ch=1 n=c6 v=89
160900 On ch=1 n=c5 v=70
160900 On ch=1 n=g5 v=78
160906 On ch=1 n=g4 v=82
160906 On ch=1 n=c4 v=57
160988 Off ch=1 n=g5 v=64
160998 Off ch=1 n=c5 v=64
161000 Off ch=1 n=g4 v=64
161006 Off ch=1 n=c6 v=64
161012 Off ch=1 n=c4 v=64
161184 On ch=1 n=g5 v=98
161184 On ch=1 n=g4 v=90
161220 Off ch=1 n=g4 v=64
161228 Off ch=1 n=g5 v=64
161424 Par ch=1 c=64 v=0
161516 On ch=1 n=a4 v=107
161522 On ch=1 n=a3 v=107
161524 On ch=1 n=a2 v=104
161616 Off ch=1 n=a4 v=64
161620 Off ch=1 n=a2 v=64
161624 Par ch=1 c=64 v=127
161636 Off ch=1 n=a3 v=64
161844 On ch=1 n=c#4 v=73
161846 On ch=1 n=g4 v=77
161856 On ch=1 n=c#5 v=92
161856 On ch=1 n=c#6 v=86
161870 On ch=1 n=g5 v=70
161886 Off ch=1 n=c#6 v=64
161890 Off ch=1 n=c#4 v=64
161892 Off ch=1 n=c#5 v=64
161894 Off ch=1 n=g4 v=64
161916 Off ch=1 n=g5 v=64
161954 On ch=1 n=c#5 v=75
161956 On ch=1 n=c#6 v=52
161958 On ch=1 n=c#4 v=69
161960 On ch=1 n=g4 v=72
161970 On ch=1 n=g5 v=73
162010 Off ch=1 n=c#6 v=64
162020 Off ch=1 n=g5 v=64
162038 Off ch=1 n=c#4 v=64
162038 Off ch=1 n=g4 v=64
162046 Off ch=1 n=c#5 v=64
162098 On ch=1 n=c#5 v=95
162098 On ch=1 n=c#6 v=82
162098 On ch=1 n=g5 v=71
162104 On ch=1 n=g4 v=97
162114 On ch=1 n=c#4 v=75
162158 Off ch=1 n=g5 v=64
162208 Off ch=1 n=g4 v=64
162210 Off ch=1 n=c#4 v=64
162242 Off ch=1 n=c#5 v=64
162268 Off ch=1 n=c#6 v=64
162370 On ch=1 n=g5 v=98
162382 On ch=1 n=g4 v=95
162418 Off ch=1 n=g4 v=64
162446 Off ch=1 n=g5 v=64
162576 Par ch=1 c=64 v=0
162652 On ch=1 n=a#4 v=95
162662 On ch=1 n=a#3 v=100
162664 On ch=1 n=a#2 v=95
162700 Off ch=1 n=a#2 v=64
162754 Off ch=1 n=a#3 v=64
162760 Par ch=1 c=64 v=127
162762 Off ch=1 n=a#4 v=64
162926 On ch=1 n=d5 v=97
162928 On ch=1 n=d6 v=92
162931 On ch=1 n=g5 v=84
162931 On ch=1 n=g4 v=87
162950 On ch=1 n=d4 v=57
162966 Off ch=1 n=g4 v=64
162978 Off ch=1 n=g5 v=64
162980 Off ch=1 n=d6 v=64
162998 Off ch=1 n=d4 v=64
163026 Off ch=1 n=d5 v=64
163128 Par ch=1 c=64 v=0
163194 On ch=1 n=b3 v=104
163197 On ch=1 n=b2 v=107
163200 On ch=1 n=b4 v=103
163222 Off ch=1 n=b2 v=64
163270 Off ch=1 n=b3 v=64
163282 Off ch=1 n=b4 v=64
163282 Par ch=1 c=64 v=127
163476 On ch=1 n=d5 v=104
163476 On ch=1 n=d6 v=103
163484 On ch=1 n=g5 v=85
163484 On ch=1 n=g4 v=92
163494 On ch=1 n=d4 v=88
163530 Off ch=1 n=g5 v=64
163538 Off ch=1 n=g4 v=64
163552 Off ch=1 n=d4 v=64
163562 Off ch=1 n=d5 v=64
163564 Off ch=1 n=d6 v=64
163728 Par ch=1 c=64 v=0
163804 On ch=1 n=c5 v=112
163804 On ch=1 n=c4 v=103
163807 On ch=1 n=c3 v=113
163874 Off ch=1 n=c3 v=64
163886 Off ch=1 n=c4 v=64
163928 Par ch=1 c=64 v=127
163950 Off ch=1 n=c5 v=64
164184 On ch=1 n=g4 v=73
164192 On ch=1 n=d#5 v=78
164196 On ch=1 n=g6 v=91
164196 On ch=1 n=g5 v=92
164196 On ch=1 n=c5 v=54
164199 On ch=1 n=d#6 v=71
164204 On ch=1 n=c6 v=67
164230 Off ch=1 n=g6 v=64
164234 Off ch=1 n=g4 v=64
164234 Off ch=1 n=g5 v=64
164238 Off ch=1 n=d#5 v=64
164242 Off ch=1 n=d#6 v=64
164248 Off ch=1 n=c5 v=64
164248 Off ch=1 n=c6 v=64
164300 On ch=1 n=d#6 v=76
164304 On ch=1 n=g4 v=76
164306 On ch=1 n=g6 v=49
164308 On ch=1 n=g5 v=57
164310 On ch=1 n=c5 v=85
164310 On ch=1 n=c6 v=66
164312 On ch=1 n=d#5 v=60
164352 Off ch=1 n=g6 v=64
164360 Off ch=1 n=d#5 v=64
164362 Off ch=1 n=g5 v=64
164362 Off ch=1 n=c6 v=64
164364 Off ch=1 n=g4 v=64
164372 Off ch=1 n=c5 v=64
164390 Off ch=1 n=d#6 v=64
164428 On ch=1 n=g6 v=80
164434 On ch=1 n=g5 v=81
164434 On ch=1 n=c6 v=43
164434 On ch=1 n=c5 v=57
164434 On ch=1 n=d#6 v=70
164444 On ch=1 n=d#5 v=72
164444 On ch=1 n=g4 v=54
164470 Off ch=1 n=g6 v=64
164474 Off ch=1 n=d#6 v=64
164484 Off ch=1 n=c5 v=64
164484 Off ch=1 n=d#5 v=64
164486 Off ch=1 n=c6 v=64
164496 Off ch=1 n=g4 v=64
164538 Off ch=1 n=g5 v=64
164706 On ch=1 n=d#5 v=100
164720 On ch=1 n=d#3 v=80
164720 On ch=1 n=d#4 v=80
164752 Off ch=1 n=d#3 v=64
164756 Off ch=1 n=d#4 v=64
164796 Off ch=1 n=d#5 v=64
164956 Par ch=1 c=64 v=0
164996 On ch=1 n=g5 v=100
164996 On ch=1 n=g4 v=103
164999 On ch=1 n=g3 v=93
165034 Off ch=1 n=g3 v=64
165092 Off ch=1 n=g4 v=64
165100 Par ch=1 c=64 v=127
165124 Off ch=1 n=g5 v=64
165246 On ch=1 n=g6 v=105
165248 On ch=1 n=g5 v=105
165252 On ch=1 n=d#6 v=84
165256 On ch=1 n=d#5 v=92
165256 On ch=1 n=c6 v=83
165262 On ch=1 n=g4 v=68
165266 On ch=1 n=c5 v=56
165298 Off ch=1 n=c6 v=64
165300 Off ch=1 n=d#5 v=64
165308 Off ch=1 n=g6 v=64
165316 Off ch=1 n=c5 v=64
165336 Off ch=1 n=g5 v=64
165352 Off ch=1 n=g4 v=64
165360 Off ch=1 n=d#6 v=64
165464 Par ch=1 c=64 v=0
165508 On ch=1 n=d#4 v=95
165508 On ch=1 n=d#3 v=89
165514 On ch=1 n=d#5 v=104
165536 Off ch=1 n=d#3 v=64
165540 Off ch=1 n=d#4 v=64
165618 Off ch=1 n=d#5 v=64
165618 Par ch=1 c=64 v=127
165770 On ch=1 n=g#5 v=102
165770 On ch=1 n=g#6 v=97
165773 On ch=1 n=d#5 v=89
165780 On ch=1 n=d#6 v=83
165782 On ch=1 n=c6 v=82
165786 On ch=1 n=c5 v=41
165788 On ch=1 n=g4 v=78
165806 Off ch=1 n=d#5 v=64
165814 Off ch=1 n=g#6 v=64
165814 Off ch=1 n=d#6 v=64
165820 Off ch=1 n=c6 v=64
165826 Off ch=1 n=g4 v=64
165840 Off ch=1 n=c5 v=64
165850 Off ch=1 n=g#5 v=64
166018 Par ch=1 c=64 v=0
166096 On ch=1 n=c5 v=110
166101 On ch=1 n=c4 v=92
166101 On ch=1 n=c3 v=100
166133 Off ch=1 n=c3 v=64
166170 Par ch=1 c=64 v=127
166178 Off ch=1 n=c5 v=64
166194 Off ch=1 n=c4 v=64
166406 On ch=1 n=d#5 v=90
166406 On ch=1 n=g4 v=89
166414 On ch=1 n=a5 v=88
166416 On ch=1 n=a6 v=95
166418 On ch=1 n=c6 v=80
166418 On ch=1 n=c5 v=67
166420 On ch=1 n=d#6 v=71
166446 Off ch=1 n=a6 v=64
166449 Off ch=1 n=d#5 v=64
166452 Off ch=1 n=a5 v=64
166458 Off ch=1 n=g4 v=64
166458 Off ch=1 n=d#6 v=64
166462 Off ch=1 n=c6 v=64
166464 Off ch=1 n=c5 v=64
166522 On ch=1 n=g4 v=92
166524 On ch=1 n=d#6 v=62
166526 On ch=1 n=d#5 v=79
166526 On ch=1 n=a6 v=33
166526 On ch=1 n=a5 v=48
166528 On ch=1 n=c5 v=67
166534 On ch=1 n=c6 v=63
166572 Off ch=1 n=g4 v=64
166572 Off ch=1 n=a6 v=64
166578 Off ch=1 n=a5 v=64
166584 Off ch=1 n=d#6 v=64
166586 Off ch=1 n=d#5 v=64
166586 Off ch=1 n=c5 v=64
166586 Off ch=1 n=c6 v=64
166642 On ch=1 n=a6 v=75
166644 On ch=1 n=d#5 v=92
166644 On ch=1 n=a5 v=69
166650 On ch=1 n=c5 v=79
166650 On ch=1 n=d#6 v=75
166658 On ch=1 n=g4 v=72
166664 On ch=1 n=c6 v=64
166682 Off ch=1 n=a6 v=64
166692 Off ch=1 n=d#5 v=64
166702 Off ch=1 n=c5 v=64
166706 Off ch=1 n=c6 v=64
166710 Off ch=1 n=g4 v=64
166746 Off ch=1 n=a5 v=64
166756 Off ch=1 n=d#6 v=64
166832 Par ch=1 c=64 v=0
166902 On ch=1 n=d#4 v=93
166904 On ch=1 n=d#3 v=91
166906 On ch=1 n=d#5 v=104
166942 Off ch=1 n=d#3 v=64
166954 Par ch=1 c=64 v=127
166970 Off ch=1 n=d#4 v=64
167002 Off ch=1 n=d#5 v=64
167108 Par ch=1 c=64 v=0
167168 On ch=1 n=g5 v=101
167171 On ch=1 n=g4 v=106
167174 On ch=1 n=g3 v=98
167208 Off ch=1 n=g3 v=64
167258 Off ch=1 n=g4 v=64
167262 Par ch=1 c=64 v=127
167328 Off ch=1 n=g5 v=64
167424 On ch=1 n=g6 v=105
167426 On ch=1 n=g5 v=91
167432 On ch=1 n=d#5 v=86
167432 On ch=1 n=d#6 v=86
167435 On ch=1 n=c6 v=86
167435 On ch=1 n=g4 v=62
167456 On ch=1 n=c5 v=61
167480 Off ch=1 n=c6 v=64
167482 Off ch=1 n=d#5 v=64
167496 Off ch=1 n=g6 v=64
167502 Off ch=1 n=c5 v=64
167518 Off ch=1 n=d#6 v=64
167522 Off ch=1 n=g5 v=64
167532 Off ch=1 n=g4 v=64
167646 Par ch=1 c=64 v=0
167686 On ch=1 n=d#4 v=98
167690 On ch=1 n=d#3 v=91
167702 On ch=1 n=d#5 v=103
167720 Off ch=1 n=d#3 v=64
167722 Off ch=1 n=d#4 v=64
167784 Par ch=1 c=64 v=127
167804 Off ch=1 n=d#5 v=64
167950 On ch=1 n=a6 v=101
167950 On ch=1 n=a5 v=91
167952 On ch=1 n=d#5 v=87
167958 On ch=1 n=c6 v=86
167958 On ch=1 n=d#6 v=83
167966 On ch=1 n=g4 v=79
167972 On ch=1 n=c5 v=66
167984 Off ch=1 n=a6 v=64
167998 Off ch=1 n=d#5 v=64
168016 Off ch=1 n=g4 v=64
168016 Off ch=1 n=c5 v=64
168026 Off ch=1 n=c6 v=64
168056 Off ch=1 n=a5 v=64
168066 Off ch=1 n=d#6 v=64
168198 Par ch=1 c=64 v=0
168268 On ch=1 n=c#5 v=110
168270 On ch=1 n=c#3 v=98
168273 On ch=1 n=c#4 v=102
168332 Off ch=1 n=c#3 v=64
168348 Off ch=1 n=c#4 v=64
168354 Off ch=1 n=c#5 v=64
168354 Par ch=1 c=64 v=127
168564 On ch=1 n=g5 v=94
168567 On ch=1 n=a#5 v=92
168567 On ch=1 n=a#6 v=95
168574 On ch=1 n=g4 v=71
168577 On ch=1 n=a#4 v=46
168580 On ch=1 n=d#6 v=75
168584 On ch=1 n=d#5 v=49
168596 Off ch=1 n=a#5 v=64
168596 Off ch=1 n=a#6 v=64
168599 Off ch=1 n=g5 v=64
168614 Off ch=1 n=d#6 v=64
168620 Off ch=1 n=g4 v=64
168634 Off ch=1 n=a#4 v=64
168634 Off ch=1 n=d#5 v=64
168666 On ch=1 n=g5 v=50
168674 On ch=1 n=a#6 v=47
168676 On ch=1 n=d#6 v=70
168676 On ch=1 n=g4 v=83
168676 On ch=1 n=a#5 v=51
168682 On ch=1 n=a#4 v=70
168696 On ch=1 n=d#5 v=81
168728 Off ch=1 n=g4 v=64
168734 Off ch=1 n=g5 v=64
168734 Off ch=1 n=a#6 v=64
168734 Off ch=1 n=d#5 v=64
168742 Off ch=1 n=a#5 v=64
168772 Off ch=1 n=a#4 v=64
168780 Off ch=1 n=d#6 v=64
168830 On ch=1 n=a#5 v=99
168830 On ch=1 n=a#6 v=94
168833 On ch=1 n=d#6 v=91
168833 On ch=1 n=a#4 v=72
168836 On ch=1 n=g5 v=97
168844 On ch=1 n=d#5 v=76
168844 On ch=1 n=g4 v=88
168910 Off ch=1 n=a#6 v=64
168918 Off ch=1 n=d#6 v=64
168924 Off ch=1 n=g5 v=64
168956 Off ch=1 n=d#5 v=64
168959 Off ch=1 n=g4 v=64
168972 Off ch=1 n=a#5 v=64
168980 Off ch=1 n=a#4 v=64
169106 On ch=1 n=a#5 v=100
169110 On ch=1 n=a#4 v=88
169118 On ch=1 n=a#3 v=91
169150 Off ch=1 n=a#4 v=64
169153 Off ch=1 n=a#3 v=64
169206 Off ch=1 n=a#5 v=64
169306 Par ch=1 c=64 v=0
169376 On ch=1 n=d5 v=117
169382 On ch=1 n=d3 v=106
169382 On ch=1 n=d4 v=110
169418 Off ch=1 n=d3 v=64
169446 Off ch=1 n=d5 v=64
169458 Par ch=1 c=64 v=127
169480 Off ch=1 n=d4 v=64
169558 On ch=1 n=f#6 v=59
169602 Off ch=1 n=f#6 v=64
169694 On ch=1 n=a#4 v=61
169696 On ch=1 n=a#5 v=79
169706 On ch=1 n=g5 v=65
169710 On ch=1 n=g6 v=103
169712 On ch=1 n=d6 v=105
169712 On ch=1 n=d7 v=101
169714 On ch=1 n=d5 v=67
169740 Off ch=1 n=g6 v=64
169740 Off ch=1 n=d6 v=64
169746 Off ch=1 n=a#5 v=64
169746 Off ch=1 n=d7 v=64
169749 Off ch=1 n=a#4 v=64
169756 Off ch=1 n=g5 v=64
169756 Off ch=1 n=d5 v=64
169816 On ch=1 n=a#5 v=68
169818 On ch=1 n=d5 v=80
169820 On ch=1 n=d6 v=72
169820 On ch=1 n=g5 v=70
169822 On ch=1 n=d7 v=72
169826 On ch=1 n=g6 v=49
169828 On ch=1 n=a#4 v=35
169864 Off ch=1 n=d7 v=64
169870 Off ch=1 n=g5 v=64
169872 Off ch=1 n=g6 v=64
169876 Off ch=1 n=a#5 v=64
169884 Off ch=1 n=d5 v=64
169890 Off ch=1 n=d6 v=64
169892 Off ch=1 n=a#4 v=64
169940 On ch=1 n=g6 v=92
169940 On ch=1 n=d7 v=88
169940 On ch=1 n=d6 v=112
169940 On ch=1 n=a#5 v=83
169946 On ch=1 n=a#4 v=70
169948 On ch=1 n=d5 v=89
169948 On ch=1 n=g5 v=45
170006 Off ch=1 n=g5 v=64
170012 Off ch=1 n=a#5 v=64
170018 Off ch=1 n=d7 v=64
170018 Off ch=1 n=d5 v=64
170026 Off ch=1 n=d6 v=64
170052 Off ch=1 n=g6 v=64
170072 Off ch=1 n=a#4 v=64
170216 On ch=1 n=a#5 v=105
170219 On ch=1 n=a#4 v=97
170228 On ch=1 n=a#3 v=98
170278 Off ch=1 n=a#3 v=64
170324 Off ch=1 n=a#4 v=64
170534 Par ch=1 c=64 v=0
170562 On ch=1 n=e5 v=108
170572 On ch=1 n=e4 v=115
170574 On ch=1 n=e3 v=117
170640 Off ch=1 n=a#5 v=64
170700 Off ch=1 n=e3 v=64
170736 Off ch=1 n=e4 v=64
170750 Par ch=1 c=64 v=127
170800 Off ch=1 n=e5 v=64
170874 On ch=1 n=d6 v=103
170876 On ch=1 n=a#5 v=87
170878 On ch=1 n=d5 v=102
170878 On ch=1 n=g4 v=86
170878 On ch=1 n=a#4 v=47
170880 On ch=1 n=g5 v=92
170952 Off ch=1 n=a#4 v=64
170954 Off ch=1 n=g5 v=64
171024 On ch=1 n=a#4 v=10
171032 Off ch=1 n=g4 v=64
171052 Off ch=1 n=d5 v=64
171096 Off ch=1 n=a#5 v=64
171120 Off ch=1 n=d6 v=64
171134 On ch=1 n=c#6 v=84
171148 On ch=1 n=c#5 v=97
171166 Off ch=1 n=a#4 v=64
171194 Off ch=1 n=c#6 v=64
171234 Off ch=1 n=c#5 v=64
171392 On ch=1 n=a#5 v=98
171392 On ch=1 n=a#6 v=94
171392 On ch=1 n=g5 v=101
171395 On ch=1 n=g6 v=95
171400 On ch=1 n=a#4 v=77
171402 On ch=1 n=d5 v=87
171402 On ch=1 n=d6 v=86
171542 Off ch=1 n=d6 v=64
171560 Off ch=1 n=a#5 v=64
171560 Off ch=1 n=a#4 v=64
171576 Off ch=1 n=d5 v=64
171606 Off ch=1 n=g5 v=64
171620 Off ch=1 n=a#6 v=64
171624 Off ch=1 n=g6 v=64
171630 On ch=1 n=c#5 v=83
171642 On ch=1 n=c#6 v=92
171732 Off ch=1 n=c#6 v=64
171738 Off ch=1 n=c#5 v=64
171884 On ch=1 n=a#5 v=76
171888 On ch=1 n=d6 v=117
171890 On ch=1 n=d7 v=107
171894 On ch=1 n=a#6 v=81
171894 On ch=1 n=g6 v=93
171894 On ch=1 n=g5 v=71
171894 On ch=1 n=d5 v=71
171932 Off ch=1 n=g6 v=64
171935 Off ch=1 n=a#6 v=64
171972 Off ch=1 n=d6 v=64
172008 Off ch=1 n=d7 v=64
172012 Off ch=1 n=d5 v=64
172100 Off ch=1 n=g5 v=64
172114 Off ch=1 n=a#5 v=64
172164 On ch=1 n=c#6 v=94
172167 On ch=1 n=c#7 v=99
172167 On ch=1 n=c#5 v=97
172206 Off ch=1 n=c#6 v=64
172244 Off ch=1 n=c#5 v=64
172258 Off ch=1 n=c#7 v=64
172456 On ch=1 n=c#7 v=95
172458 On ch=1 n=g7 v=109
172458 On ch=1 n=g6 v=111
172461 On ch=1 n=d#4 v=105
172468 On ch=1 n=d#3 v=100
172470 On ch=1 n=a#6 v=84
172566 Off ch=1 n=d#3 v=64
172638 Off ch=1 n=d#4 v=64
172784 Off ch=1 n=a#6 v=64
172816 Off ch=1 n=g7 v=64
172834 Off ch=1 n=g6 v=64
172840 Par ch=1 c=64 v=0
172860 Off ch=1 n=c#7 v=64
172886 On ch=1 n=d4 v=117
172888 On ch=1 n=d3 v=113
173064 Off ch=1 n=d3 v=64
173096 Off ch=1 n=d4 v=64
173099 Par ch=1 c=64 v=127
173326 On ch=1 n=a#7 v=92
173326 On ch=1 n=a#6 v=100
173330 On ch=1 n=a#5 v=86
173332 On ch=1 n=g7 v=91
173336 On ch=1 n=a#4 v=65
173336 On ch=1 n=d7 v=91
173338 On ch=1 n=g5 v=69
173338 On ch=1 n=d5 v=67
173430 Off ch=1 n=a#5 v=64
173432 Off ch=1 n=d5 v=64
173458 Off ch=1 n=a#4 v=64
173458 Off ch=1 n=g5 v=64
173468 Off ch=1 n=a#6 v=64
173482 Off ch=1 n=a#7 v=64
173506 Off ch=1 n=d7 v=64
173512 Off ch=1 n=g7 v=64
173558 On ch=1 n=d7 v=93
173558 On ch=1 n=a#7 v=71
173560 On ch=1 n=a#6 v=90
173560 On ch=1 n=d5 v=65
173562 On ch=1 n=g7 v=94
173562 On ch=1 n=g5 v=65
173564 On ch=1 n=a#5 v=80
173578 On ch=1 n=a#4 v=60
173659 Off ch=1 n=d5 v=64
173662 Off ch=1 n=g5 v=64
173662 Off ch=1 n=a#4 v=64
173676 Off ch=1 n=a#5 v=64
173684 Off ch=1 n=a#6 v=64
173692 Off ch=1 n=a#7 v=64
173704 Off ch=1 n=d7 v=64
173710 Off ch=1 n=g7 v=64
173762 On ch=1 n=g7 v=96
173765 On ch=1 n=d7 v=87
173765 On ch=1 n=a#6 v=87
173765 On ch=1 n=a#7 v=70
173772 On ch=1 n=a#5 v=83
173778 On ch=1 n=d5 v=66
173780 On ch=1 n=g5 v=74
173784 On ch=1 n=a#4 v=72
173830 Off ch=1 n=a#4 v=64
173848 Off ch=1 n=d5 v=64
173851 Off ch=1 n=a#7 v=64
173858 Off ch=1 n=g5 v=64
173860 Off ch=1 n=a#6 v=64
173884 Off ch=1 n=a#5 v=64
173888 Off ch=1 n=d7 v=64
173894 Off ch=1 n=g7 v=64
173926 On ch=1 n=a#6 v=89
173926 On ch=1 n=a#5 v=90
173929 On ch=1 n=a#7 v=60
173934 On ch=1 n=g7 v=94
173936 On ch=1 n=d7 v=98
173936 On ch=1 n=g5 v=61
173939 On ch=1 n=d5 v=55
173939 On ch=1 n=a#4 v=36
173974 Off ch=1 n=g7 v=64
173976 Off ch=1 n=a#5 v=64
173986 Off ch=1 n=g5 v=64
173988 Off ch=1 n=d5 v=64
173994 Off ch=1 n=a#7 v=64
174000 Off ch=1 n=a#6 v=64
174000 Off ch=1 n=a#4 v=64
174034 Off ch=1 n=d7 v=64
174062 On ch=1 n=a#5 v=68
174065 On ch=1 n=a#6 v=84
174065 On ch=1 n=g5 v=66
174068 On ch=1 n=d5 v=67
174070 On ch=1 n=a#7 v=70
174070 On ch=1 n=d7 v=84
174072 On ch=1 n=a#4 v=41
174074 On ch=1 n=g7 v=66
174106 Off ch=1 n=a#5 v=64
174106 Off ch=1 n=d7 v=64
174114 Off ch=1 n=a#7 v=64
174118 Off ch=1 n=g7 v=64
174122 Off ch=1 n=d5 v=64
174124 Off ch=1 n=g5 v=64
174126 Off ch=1 n=a#4 v=64
174129 Off ch=1 n=a#6 v=64
174184 On ch=1 n=a#4 v=60
174187 On ch=1 n=a#7 v=72
174190 On ch=1 n=g5 v=72
174190 On ch=1 n=a#6 v=94
174190 On ch=1 n=a#5 v=66
174190 On ch=1 n=d7 v=62
174193 On ch=1 n=g7 v=68
174198 On ch=1 n=d5 v=69
174246 Off ch=1 n=d5 v=64
174256 Off ch=1 n=a#5 v=64
174262 Off ch=1 n=g7 v=64
174266 Off ch=1 n=a#4 v=64
174270 Off ch=1 n=g5 v=64
174282 Off ch=1 n=a#6 v=64
174286 Off ch=1 n=a#7 v=64
174304 Off ch=1 n=d7 v=64
174328 On ch=1 n=a#7 v=97
174328 On ch=1 n=a#6 v=100
174328 On ch=1 n=g7 v=92
174331 On ch=1 n=a#5 v=86
174338 On ch=1 n=a#4 v=66
174340 On ch=1 n=g5 v=78
174346 On ch=1 n=d7 v=84
174346 On ch=1 n=d5 v=70
174400 Off ch=1 n=a#4 v=64
174412 Off ch=1 n=a#7 v=64
174412 Off ch=1 n=a#5 v=64
174428 Off ch=1 n=g5 v=64
174436 Off ch=1 n=g7 v=64
174450 Off ch=1 n=d7 v=64
174453 Off ch=1 n=d5 v=64
174490 Off ch=1 n=a#6 v=64
174652 Par ch=1 c=64 v=0
174660 On ch=1 n=g5 v=79
174666 On ch=1 n=d7 v=100
174666 On ch=1 n=a#5 v=103
174669 On ch=1 n=d6 v=103
174669 On ch=1 n=a#6 v=72
174674 On ch=1 n=d5 v=102
174716 Off ch=1 n=d5 v=64
174784 Off ch=1 n=a#5 v=64
174820 Par ch=1 c=64 v=127
174828 Off ch=1 n=g5 v=64
174836 Off ch=1 n=d6 v=64
174861 Off ch=1 n=a#6 v=64
174878 Off ch=1 n=d7 v=64
174944 Par ch=1 c=64 v=0
174972 On ch=1 n=e7 v=106
174977 On ch=1 n=e6 v=103
174977 On ch=1 n=a#5 v=89
174986 On ch=1 n=a#6 v=86
174988 On ch=1 n=g5 v=74
174994 On ch=1 n=c#5 v=83
175074 Off ch=1 n=e7 v=64
175088 Off ch=1 n=e6 v=64
175098 Par ch=1 c=64 v=127
175110 Off ch=1 n=a#6 v=64
175114 Off ch=1 n=g5 v=64
175128 Off ch=1 n=a#5 v=64
175164 Off ch=1 n=c#5 v=64
175220 Par ch=1 c=64 v=0
175248 On ch=1 n=c5 v=84
175252 On ch=1 n=f#6 v=102
175252 On ch=1 n=a5 v=78
175254 On ch=1 n=f#7 v=92
175258 On ch=1 n=d7 v=86
175266 On ch=1 n=d5 v=68
175304 Off ch=1 n=a5 v=64
175310 Off ch=1 n=d5 v=64
175324 Off ch=1 n=c5 v=64
175327 Off ch=1 n=d7 v=64
175344 Par ch=1 c=64 v=127
175378 Off ch=1 n=f#6 v=64
175420 Off ch=1 n=f#7 v=64
175452 Par ch=1 c=64 v=0
175524 On ch=1 n=g6 v=112
175526 On ch=1 n=g7 v=98
175526 On ch=1 n=d7 v=95
175536 On ch=1 n=g5 v=92
175542 On ch=1 n=a#4 v=83
175546 On ch=1 n=d5 v=89
175554 Off ch=1 n=g7 v=64
175558 Off ch=1 n=d7 v=64
175570 Off ch=1 n=g5 v=64
175582 Off ch=1 n=d5 v=64
175600 Off ch=1 n=g6 v=64
175603 Par ch=1 c=64 v=127
175648 Off ch=1 n=a#4 v=64
175816 On ch=1 n=d6 v=103
175818 On ch=1 n=g4 v=87
175820 On ch=1 n=d5 v=103
175826 On ch=1 n=g5 v=91
175830 On ch=1 n=b3 v=58
175858 Off ch=1 n=g4 v=64
175877 Off ch=1 n=b3 v=64
175900 Off ch=1 n=d6 v=64
175906 Off ch=1 n=d5 v=64
175976 Off ch=1 n=g5 v=64
176050 Par ch=1 c=64 v=0
176100 On ch=1 n=d#5 v=104
176103 On ch=1 n=d#6 v=98
176110 On ch=1 n=g5 v=91
176112 On ch=1 n=g4 v=97
176114 On ch=1 n=c4 v=85
176164 Off ch=1 n=g4 v=64
176200 Off ch=1 n=c4 v=64
176210 Off ch=1 n=d#6 v=64
176226 Off ch=1 n=d#5 v=64
176236 Off ch=1 n=g5 v=64
176236 Par ch=1 c=64 v=127
176378 On ch=1 n=g#4 v=95
176384 On ch=1 n=g#3 v=98
176390 On ch=1 n=g#2 v=84
176482 Off ch=1 n=g#2 v=64
176488 Off ch=1 n=g#3 v=64
176508 Off ch=1 n=g#4 v=64
176620 Par ch=1 c=64 v=0
176658 On ch=1 n=a4 v=95
176660 On ch=1 n=a3 v=100
176668 On ch=1 n=a2 v=106
176738 Off ch=1 n=a3 v=64
176742 Off ch=1 n=a2 v=64
176778 Off ch=1 n=a4 v=64
176788 Par ch=1 c=64 v=127
176910 Par ch=1 c=64 v=0
176968 On ch=1 n=f#5 v=90
176970 On ch=1 n=a4 v=100
176970 On ch=1 n=c5 v=100
176972 On ch=1 n=d4 v=112
176976 On ch=1 n=d3 v=106
176978 On ch=1 n=a3 v=93
177016 Off ch=1 n=a3 v=64
177054 Off ch=1 n=d4 v=64
177070 Off ch=1 n=d3 v=64
177088 Off ch=1 n=a4 v=64
177088 Par ch=1 c=64 v=127
177134 Off ch=1 n=c5 v=64
177150 Off ch=1 n=f#5 v=64
177372 Par ch=1 c=64 v=0
177386 On ch=1 n=g2 v=112
177386 On ch=1 n=g3 v=103
177386 On ch=1 n=a#4 v=87
177386 On ch=1 n=g5 v=105
177389 On ch=1 n=g4 v=109
177389 On ch=1 n=d3 v=98
177638 Off ch=1 n=d3 v=64
177648 Par ch=1 c=64 v=127
177650 Off ch=1 n=g2 v=64
177654 Off ch=1 n=g4 v=64
177672 Off ch=1 n=g3 v=64
177706 Off ch=1 n=a#4 v=64
177780 Off ch=1 n=g5 v=64
178156 Par ch=1 c=64 v=0
178328 On ch=1 n=g5 v=110
178328 On ch=1 n=g6 v=101
178331 On ch=1 n=a#4 v=86
178331 On ch=1 n=a#5 v=103
178331 On ch=1 n=a#6 v=96
178334 On ch=1 n=d#5 v=98
178334 On ch=1 n=d#6 v=92
178334 On ch=1 n=g4 v=97
178524 Par ch=1 c=64 v=127
178552 Off ch=1 n=g5 v=64
178576 Off ch=1 n=a#6 v=64
178576 Off ch=1 n=g4 v=64
178582 Off ch=1 n=g6 v=64
178588 Off ch=1 n=a#5 v=64
178588 Off ch=1 n=d#5 v=64
178588 Off ch=1 n=d#6 v=64
178624 Off ch=1 n=a#4 v=64
178710 On ch=1 n=g5 v=97
178710 On ch=1 n=a#4 v=19
178710 On ch=1 n=g4 v=79
178712 On ch=1 n=d#5 v=76
178714 On ch=1 n=a#5 v=73
178716 On ch=1 n=g6 v=78
178726 On ch=1 n=d#6 v=38
178746 Off ch=1 n=g5 v=64
178752 Off ch=1 n=a#5 v=64
178756 Off ch=1 n=d#5 v=64
178758 Off ch=1 n=g4 v=64
178758 Off ch=1 n=g6 v=64
178780 Off ch=1 n=a#4 v=64
178784 Off ch=1 n=d#6 v=64
178806 On ch=1 n=a#5 v=69
178808 On ch=1 n=g6 v=99
178810 On ch=1 n=g5 v=71
178810 On ch=1 n=d#6 v=72
178818 On ch=1 n=g4 v=73
178820 On ch=1 n=d#5 v=68
178826 On ch=1 n=a#4 v=43
178846 Off ch=1 n=d#6 v=64
178872 Off ch=1 n=g4 v=64
178874 Off ch=1 n=d#5 v=64
178884 Off ch=1 n=a#4 v=64
178892 Off ch=1 n=g6 v=64
178900 Off ch=1 n=g5 v=64
178904 Off ch=1 n=a#5 v=64
178946 On ch=1 n=g6 v=105
178946 On ch=1 n=d#5 v=90
178946 On ch=1 n=a#5 v=86
178952 On ch=1 n=g5 v=89
178952 On ch=1 n=d#6 v=35
178952 On ch=1 n=g4 v=80
178955 On ch=1 n=a#4 v=65
178974 Off ch=1 n=g6 v=64
179002 Off ch=1 n=g4 v=64
179010 Off ch=1 n=d#6 v=64
179016 Off ch=1 n=d#5 v=64
179020 Off ch=1 n=a#4 v=64
179032 Off ch=1 n=a#5 v=64
179046 Off ch=1 n=g5 v=64
179276 On ch=1 n=g5 v=75
179276 On ch=1 n=a#3 v=35
179278 On ch=1 n=d#4 v=89
179278 On ch=1 n=a#4 v=75
179278 On ch=1 n=d#3 v=89
179282 On ch=1 n=d#5 v=75
179286 On ch=1 n=g4 v=82
179310 Off ch=1 n=d#3 v=64
179316 Off ch=1 n=d#4 v=64
179326 Off ch=1 n=d#5 v=64
179328 Off ch=1 n=g5 v=64
179328 Off ch=1 n=g4 v=64
179330 Off ch=1 n=a#4 v=64
179346 Off ch=1 n=a#3 v=64
179382 On ch=1 n=g5 v=88
179384 On ch=1 n=d#4 v=67
179386 On ch=1 n=a#4 v=71
179388 On ch=1 n=d#3 v=58
179388 On ch=1 n=a#3 v=35
179390 On ch=1 n=g4 v=71
179394 On ch=1 n=d#5 v=73
179432 Off ch=1 n=g5 v=64
179438 Off ch=1 n=d#5 v=64
179442 Off ch=1 n=d#3 v=64
179442 Off ch=1 n=g4 v=64
179458 Off ch=1 n=a#3 v=64
179472 Off ch=1 n=a#4 v=64
179476 Off ch=1 n=d#4 v=64
179508 On ch=1 n=d#3 v=80
179514 On ch=1 n=g5 v=85
179518 On ch=1 n=d#4 v=86
179520 On ch=1 n=a#4 v=76
179522 On ch=1 n=d#5 v=71
179532 On ch=1 n=a#3 v=64
179532 On ch=1 n=g4 v=38
179552 Off ch=1 n=d#3 v=64
179564 Off ch=1 n=a#4 v=64
179570 Off ch=1 n=a#3 v=64
179596 Off ch=1 n=d#5 v=64
179598 Off ch=1 n=g4 v=64
179602 Off ch=1 n=g5 v=64
179604 Off ch=1 n=d#4 v=64
179810 On ch=1 n=g6 v=103
179816 On ch=1 n=a#5 v=52
179822 On ch=1 n=g5 v=87
179822 On ch=1 n=d#6 v=72
179826 On ch=1 n=d#5 v=90
179828 On ch=1 n=g4 v=46
179830 On ch=1 n=a#4 v=53
179862 Off ch=1 n=g5 v=64
179864 Off ch=1 n=a#5 v=64
179880 Off ch=1 n=d#6 v=64
179886 Off ch=1 n=g4 v=64
179890 Off ch=1 n=a#4 v=64
179916 Off ch=1 n=g6 v=64
179940 Off ch=1 n=d#5 v=64
180076 Par ch=1 c=64 v=0
180084 On ch=1 n=a#4 v=75
180089 On ch=1 n=a#5 v=99
180092 On ch=1 n=a#6 v=90
180092 On ch=1 n=g4 v=81
180095 On ch=1 n=g6 v=93
180126 Off ch=1 n=a#5 v=64
180129 Off ch=1 n=g6 v=64
180178 Off ch=1 n=a#6 v=64
180214 Par ch=1 c=64 v=127
180219 On ch=1 n=c5 v=83
180230 Off ch=1 n=a#4 v=64
180232 On ch=1 n=c6 v=75
180234 On ch=1 n=c7 v=94
180266 Off ch=1 n=c7 v=64
180272 Off ch=1 n=c6 v=64
180282 Off ch=1 n=g4 v=64
180328 Off ch=1 n=c5 v=64
180336 On ch=1 n=d5 v=83
180356 On ch=1 n=d7 v=99
180364 On ch=1 n=d6 v=86
180392 Off ch=1 n=d7 v=64
180400 Off ch=1 n=d6 v=64
180434 Off ch=1 n=d5 v=64
180468 On ch=1 n=d#5 v=97
180476 On ch=1 n=d#7 v=87
180476 Par ch=1 c=64 v=0
180486 On ch=1 n=d#6 v=78
180508 Off ch=1 n=d#5 v=64
180552 Off ch=1 n=d#6 v=64
180562 Off ch=1 n=d#7 v=64
180624 On ch=1 n=d7 v=108
180624 On ch=1 n=d6 v=115
180628 On ch=1 n=f4 v=94
180630 On ch=1 n=a#6 v=88
180632 On ch=1 n=d5 v=107
180634 On ch=1 n=a#4 v=84
180666 Off ch=1 n=f4 v=64
180674 Off ch=1 n=a#4 v=64
180744 Off ch=1 n=d7 v=64
180752 Off ch=1 n=d5 v=64
180760 Off ch=1 n=d6 v=64
180764 Off ch=1 n=a#6 v=64
180780 Par ch=1 c=64 v=127
180948 On ch=1 n=a#4 v=76
180948 On ch=1 n=d5 v=91
180948 On ch=1 n=f5 v=79
180951 On ch=1 n=d6 v=68
180956 On ch=1 n=f4 v=94
180956 On ch=1 n=f6 v=69
180960 On ch=1 n=a#5 v=60
180987 Off ch=1 n=d5 v=64
180987 Off ch=1 n=f5 v=64
180990 Off ch=1 n=f6 v=64
180994 Off ch=1 n=a#4 v=64
180994 Off ch=1 n=d6 v=64
180994 Off ch=1 n=f4 v=64
181004 Off ch=1 n=a#5 v=64
181050 On ch=1 n=a#5 v=82
181053 On ch=1 n=f5 v=65
181058 On ch=1 n=d5 v=82
181062 On ch=1 n=a#4 v=64
181064 On ch=1 n=f4 v=92
181064 On ch=1 n=f6 v=2
181078 On ch=1 n=d6 v=52
181100 Off ch=1 n=f4 v=64
181106 Off ch=1 n=f5 v=64
181110 Off ch=1 n=f6 v=64
181122 Off ch=1 n=d5 v=64
181128 Off ch=1 n=a#4 v=64
181128 Off ch=1 n=d6 v=64
181131 Off ch=1 n=a#5 v=64
181186 On ch=1 n=f6 v=69
181188 On ch=1 n=f5 v=80
181188 On ch=1 n=a#5 v=73
181190 On ch=1 n=d6 v=100
181192 On ch=1 n=f4 v=97
181192 On ch=1 n=d5 v=95
181192 On ch=1 n=a#4 v=78
181220 Off ch=1 n=f6 v=64
181220 Off ch=1 n=d6 v=64
181224 Off ch=1 n=d5 v=64
181236 Off ch=1 n=f4 v=64
181268 Off ch=1 n=a#4 v=64
181282 Off ch=1 n=a#5 v=64
181284 Off ch=1 n=f5 v=64
181500 On ch=1 n=a#3 v=81
181504 On ch=1 n=a#2 v=87
181514 On ch=1 n=a#4 v=60
181520 On ch=1 n=f4 v=91
181522 On ch=1 n=f5 v=56
181522 On ch=1 n=d5 v=60
181558 Off ch=1 n=a#2 v=64
181558 Off ch=1 n=f4 v=64
181566 Off ch=1 n=d5 v=64
181568 Off ch=1 n=f5 v=64
181570 Off ch=1 n=a#4 v=64
181576 Off ch=1 n=a#3 v=64
181616 On ch=1 n=f4 v=104
181619 On ch=1 n=f5 v=79
181619 On ch=1 n=a#4 v=70
181623 On ch=1 n=d5 v=87
181630 On ch=1 n=a#3 v=79
181634 On ch=1 n=a#2 v=65
181668 Off ch=1 n=f5 v=64
181684 Off ch=1 n=a#3 v=64
181688 Off ch=1 n=a#2 v=64
181690 Off ch=1 n=d5 v=64
181698 Off ch=1 n=f4 v=64
181714 Off ch=1 n=a#4 v=64
181746 On ch=1 n=a#2 v=78
181746 On ch=1 n=a#3 v=77
181754 On ch=1 n=d5 v=87
181756 On ch=1 n=f5 v=59
181764 On ch=1 n=f4 v=104
181768 On ch=1 n=a#4 v=68
181790 Off ch=1 n=d5 v=64
181804 Off ch=1 n=a#2 v=64
181810 Off ch=1 n=a#4 v=64
181828 Off ch=1 n=a#3 v=64
181844 Off ch=1 n=f5 v=64
181846 Off ch=1 n=f4 v=64
182032 On ch=1 n=f5 v=87
182034 On ch=1 n=f6 v=95
182036 On ch=1 n=a#5 v=75
182038 On ch=1 n=d6 v=93
182042 On ch=1 n=d5 v=89
182054 On ch=1 n=f4 v=91
182057 On ch=1 n=a#4 v=41
182068 Off ch=1 n=f5 v=64
182084 Off ch=1 n=d6 v=64
182086 Off ch=1 n=a#5 v=64
182122 Off ch=1 n=f6 v=64
182142 Off ch=1 n=d5 v=64
182168 Off ch=1 n=f4 v=64
182188 Off ch=1 n=a#4 v=64
182274 Par ch=1 c=64 v=0
182318 On ch=1 n=a#6 v=90
182318 On ch=1 n=d6 v=105
182324 On ch=1 n=d5 v=81
182326 On ch=1 n=d7 v=95
182328 On ch=1 n=a#4 v=58
182340 On ch=1 n=f4 v=74
182343 Off ch=1 n=d6 v=64
182346 Off ch=1 n=a#6 v=64
182356 Off ch=1 n=d7 v=64
182384 Off ch=1 n=a#4 v=64
182384 Off ch=1 n=f4 v=64
182412 Par ch=1 c=64 v=127
182424 Off ch=1 n=d5 v=64
182444 On ch=1 n=e7 v=101
182444 On ch=1 n=e6 v=80
182476 On ch=1 n=e5 v=91
182486 Off ch=1 n=e7 v=64
182486 Off ch=1 n=e6 v=64
182578 On ch=1 n=f7 v=101
182581 On ch=1 n=f6 v=92
182586 Off ch=1 n=e5 v=64
182602 On ch=1 n=f5 v=73
182614 Off ch=1 n=f7 v=64
182616 Off ch=1 n=f6 v=64
182672 Off ch=1 n=f5 v=64
182696 On ch=1 n=g7 v=103
182700 On ch=1 n=g6 v=98
182704 On ch=1 n=g5 v=86
182734 Par ch=1 c=64 v=0
182750 Off ch=1 n=g7 v=64
182762 Off ch=1 n=g6 v=64
182784 Off ch=1 n=g5 v=64
182850 On ch=1 n=f6 v=116
182852 On ch=1 n=f7 v=106
182852 On ch=1 n=d7 v=108
182858 On ch=1 n=f5 v=105
182864 On ch=1 n=d5 v=98
182868 On ch=1 n=a4 v=87
182928 Off ch=1 n=f5 v=64
182936 Off ch=1 n=d5 v=64
182946 Off ch=1 n=f7 v=64
182954 Off ch=1 n=a4 v=64
182964 Par ch=1 c=64 v=127
182982 Off ch=1 n=f6 v=64
182984 Off ch=1 n=d7 v=64
183168 On ch=1 n=f5 v=88
183170 On ch=1 n=a4 v=83
183172 On ch=1 n=a5 v=92
183178 On ch=1 n=d5 v=67
183178 On ch=1 n=d6 v=86
183186 On ch=1 n=f4 v=77
183186 On ch=1 n=f6 v=67
183189 On ch=1 n=a6 v=49
183200 Off ch=1 n=f5 v=64
183206 Off ch=1 n=a5 v=64
183208 Off ch=1 n=a4 v=64
183210 Off ch=1 n=d6 v=64
183224 Off ch=1 n=d5 v=64
183224 Off ch=1 n=f6 v=64
183230 Off ch=1 n=f4 v=64
183244 Off ch=1 n=a6 v=64
183272 On ch=1 n=f5 v=57
183274 On ch=1 n=a5 v=34
183274 On ch=1 n=a4 v=55
183276 On ch=1 n=d5 v=93
183276 On ch=1 n=d6 v=68
183278 On ch=1 n=f6 v=82
183298 On ch=1 n=f4 v=85
183306 On ch=1 n=a6 v=50
183320 Off ch=1 n=f6 v=64
183324 Off ch=1 n=d5 v=64
183330 Off ch=1 n=a5 v=64
183332 Off ch=1 n=d6 v=64
183338 Off ch=1 n=f5 v=64
183340 Off ch=1 n=f4 v=64
183344 Off ch=1 n=a4 v=64
183360 Off ch=1 n=a6 v=64
183400 On ch=1 n=f5 v=85
183400 On ch=1 n=a5 v=75
183403 On ch=1 n=d6 v=85
183403 On ch=1 n=f6 v=72
183406 On ch=1 n=a4 v=74
183406 On ch=1 n=f4 v=85
183409 On ch=1 n=a6 v=88
183409 On ch=1 n=d5 v=71
183432 Off ch=1 n=f5 v=64
183442 Off ch=1 n=d6 v=64
183442 Off ch=1 n=f6 v=64
183442 Off ch=1 n=a6 v=64
183448 Off ch=1 n=d5 v=64
183478 Off ch=1 n=a4 v=64
183496 Off ch=1 n=f4 v=64
183506 Off ch=1 n=a5 v=64
183708 On ch=1 n=f5 v=73
183716 On ch=1 n=a4 v=73
183716 On ch=1 n=a5 v=44
183718 On ch=1 n=d4 v=81
183720 On ch=1 n=d3 v=92
183720 On ch=1 n=d5 v=61
183722 On ch=1 n=a3 v=70
183752 Off ch=1 n=f5 v=64
183752 Off ch=1 n=d3 v=64
183760 Off ch=1 n=a4 v=64
183760 Off ch=1 n=d4 v=64
183764 Off ch=1 n=d5 v=64
183766 Off ch=1 n=a3 v=64
183784 Off ch=1 n=a5 v=64
183812 On ch=1 n=a4 v=79
183815 On ch=1 n=d3 v=70
183818 On ch=1 n=a3 v=72
183818 On ch=1 n=d4 v=74
183818 On ch=1 n=f5 v=62
183820 On ch=1 n=a5 v=44
183832 On ch=1 n=d5 v=84
183872 Off ch=1 n=d5 v=64
183875 Off ch=1 n=a4 v=64
183884 Off ch=1 n=d4 v=64
183888 Off ch=1 n=a5 v=64
183890 Off ch=1 n=a3 v=64
183894 Off ch=1 n=d3 v=64
183904 Off ch=1 n=f5 v=64
183951 On ch=1 n=d4 v=86
183951 On ch=1 n=a3 v=67
183956 On ch=1 n=d3 v=80
183960 On ch=1 n=a4 v=40
183966 On ch=1 n=d5 v=59
183969 On ch=1 n=f5 v=20
183972 On ch=1 n=a5 v=46
183992 Off ch=1 n=d3 v=64
183998 Off ch=1 n=a3 v=64
184010 Off ch=1 n=d5 v=64
184026 Off ch=1 n=d4 v=64
184029 Off ch=1 n=a4 v=64
184032 Off ch=1 n=f5 v=64
184032 Off ch=1 n=a5 v=64
184194 Par ch=1 c=64 v=0
184244 On ch=1 n=f5 v=77
184248 On ch=1 n=a5 v=63
184252 On ch=1 n=f6 v=85
184252 On ch=1 n=d6 v=73
184255 On ch=1 n=d5 v=67
184260 On ch=1 n=a4 v=48
184264 On ch=1 n=f4 v=88
184292 Off ch=1 n=f5 v=64
184314 Off ch=1 n=d6 v=64
184320 Off ch=1 n=a4 v=64
184332 Par ch=1 c=64 v=127
184337 Off ch=1 n=a5 v=64
184340 Off ch=1 n=d5 v=64
184356 Off ch=1 n=f4 v=64
184358 Off ch=1 n=f6 v=64
184440 Par ch=1 c=64 v=0
184514 On ch=1 n=a5 v=91
184516 On ch=1 n=f6 v=86
184518 On ch=1 n=a6 v=63
184524 On ch=1 n=a4 v=66
184527 On ch=1 n=f4 v=85
184548 Off ch=1 n=a5 v=64
184548 Off ch=1 n=f6 v=64
184564 Off ch=1 n=a6 v=64
184578 Par ch=1 c=64 v=127
184588 Off ch=1 n=f4 v=64
184630 Off ch=1 n=a4 v=64
184633 On ch=1 n=b6 v=117
184636 On ch=1 n=b5 v=101
184646 On ch=1 n=b4 v=77
184678 Off ch=1 n=b5 v=64
184686 Off ch=1 n=b6 v=64
184706 Off ch=1 n=b4 v=64
184762 On ch=1 n=c5 v=85
184772 On ch=1 n=c7 v=98
184776 On ch=1 n=c6 v=77
184800 Off ch=1 n=c7 v=64
184808 Par ch=1 c=64 v=0
184813 Off ch=1 n=c6 v=64
184842 Off ch=1 n=c5 v=64
184888 On ch=1 n=d7 v=95
184891 On ch=1 n=d6 v=89
184894 On ch=1 n=d5 v=91
184926 Off ch=1 n=d7 v=64
184929 Off ch=1 n=d5 v=64
184952 Off ch=1 n=d6 v=64
185032 On ch=1 n=c6 v=113
185034 On ch=1 n=c7 v=111
185036 On ch=1 n=a6 v=105
185040 On ch=1 n=c5 v=106
185050 On ch=1 n=a4 v=85
185050 On ch=1 n=f4 v=108
185102 Off ch=1 n=f4 v=64
185130 Off ch=1 n=c5 v=64
185130 Par ch=1 c=64 v=127
185160 Off ch=1 n=a4 v=64
185170 Off ch=1 n=c7 v=64
185172 Off ch=1 n=a6 v=64
185178 Off ch=1 n=c6 v=64
185354 On ch=1 n=f4 v=81
185357 On ch=1 n=a4 v=47
185360 On ch=1 n=a6 v=75
185360 On ch=1 n=f5 v=81
185361 On ch=1 n=f6 v=75
185364 On ch=1 n=c6 v=70
185364 On ch=1 n=c5 v=37
185364 On ch=1 n=a5 v=76
185396 Off ch=1 n=f4 v=64
185396 Off ch=1 n=f5 v=64
185396 Off ch=1 n=f6 v=64
185400 Off ch=1 n=a6 v=64
185406 Off ch=1 n=c6 v=64
185408 Off ch=1 n=a5 v=64
185414 Off ch=1 n=c5 v=64
185416 Off ch=1 n=a4 v=64
185446 On ch=1 n=f5 v=66
185449 On ch=1 n=f6 v=81
185452 On ch=1 n=a6 v=75
185456 On ch=1 n=c5 v=37
185458 On ch=1 n=f4 v=99
185458 On ch=1 n=a5 v=61
185461 On ch=1 n=c6 v=62
185478 On ch=1 n=a4 v=75
185492 Off ch=1 n=a6 v=64
185502 Off ch=1 n=f4 v=64
185506 Off ch=1 n=c5 v=64
185510 Off ch=1 n=a5 v=64
185510 Off ch=1 n=c6 v=64
185512 Off ch=1 n=f5 v=64
185516 Par ch=1 c=64 v=0
185518 Off ch=1 n=a4 v=64
185524 Off ch=1 n=f6 v=64
185578 On ch=1 n=a5 v=68
185578 On ch=1 n=f5 v=86
185581 On ch=1 n=c6 v=70
185586 On ch=1 n=f6 v=93
185588 On ch=1 n=a4 v=50
185588 On ch=1 n=c5 v=87
185588 On ch=1 n=f4 v=89
185590 On ch=1 n=a6 v=75
185622 Off ch=1 n=f5 v=64
185630 Off ch=1 n=a6 v=64
185633 Off ch=1 n=f6 v=64
185640 Off ch=1 n=c5 v=64
185642 Off ch=1 n=f4 v=64
185652 Off ch=1 n=a4 v=64
185670 Par ch=1 c=64 v=127
185676 Off ch=1 n=a5 v=64
185682 Off ch=1 n=c6 v=64
185884 On ch=1 n=c5 v=37
185887 On ch=1 n=f4 v=96
185887 On ch=1 n=c6 v=78
185887 On ch=1 n=c4 v=76
185887 On ch=1 n=f3 v=95
185890 On ch=1 n=f5 v=83
185890 On ch=1 n=a5 v=69
185920 Off ch=1 n=f3 v=64
185924 Off ch=1 n=f4 v=64
185926 Off ch=1 n=f5 v=64
185928 Off ch=1 n=c4 v=64
185932 Off ch=1 n=c6 v=64
185934 Off ch=1 n=c5 v=64
185936 Off ch=1 n=a5 v=64
185990 On ch=1 n=a5 v=61
185992 On ch=1 n=f3 v=40
185994 On ch=1 n=f5 v=53
185994 On ch=1 n=c4 v=55
185996 On ch=1 n=c5 v=37
185998 On ch=1 n=c6 v=64
185998 On ch=1 n=f4 v=71
186039 Off ch=1 n=c6 v=64
186044 Off ch=1 n=f3 v=64
186046 Off ch=1 n=c5 v=64
186048 Off ch=1 n=a5 v=64
186048 Off ch=1 n=f5 v=64
186048 Off ch=1 n=f4 v=64
186058 Off ch=1 n=c4 v=64
186112 On ch=1 n=c5 v=37
186114 Par ch=1 c=64 v=0
186116 On ch=1 n=f5 v=73
186116 On ch=1 n=a5 v=64
186118 On ch=1 n=f3 v=84
186118 On ch=1 n=f4 v=101
186118 On ch=1 n=c4 v=80
186122 On ch=1 n=c6 v=48
186156 Off ch=1 n=f3 v=64
186162 Off ch=1 n=c5 v=64
186162 Off ch=1 n=c4 v=64
186164 Off ch=1 n=f5 v=64
186190 Off ch=1 n=f4 v=64
186193 Off ch=1 n=a5 v=64
186206 Par ch=1 c=64 v=127
186232 Off ch=1 n=c6 v=64
186392 Par ch=1 c=64 v=0
186402 On ch=1 n=a5 v=85
186410 On ch=1 n=f5 v=76
186410 On ch=1 n=f6 v=83
186412 On ch=1 n=a6 v=71
186414 On ch=1 n=c6 v=79
186420 On ch=1 n=f4 v=65
186422 On ch=1 n=c5 v=55
186428 On ch=1 n=a4 v=55
186464 Off ch=1 n=a5 v=64
186466 Off ch=1 n=c6 v=64
186468 Off ch=1 n=a6 v=64
186480 Off ch=1 n=c5 v=64
186492 Off ch=1 n=f5 v=64
186492 Off ch=1 n=f4 v=64
186498 Par ch=1 c=64 v=127
186520 Off ch=1 n=f6 v=64
186520 Off ch=1 n=a4 v=64
186606 Par ch=1 c=64 v=0
186664 On ch=1 n=g#6 v=81
186668 On ch=1 n=c6 v=95
186672 On ch=1 n=f4 v=58
186674 On ch=1 n=g#4 v=61
186674 On ch=1 n=c5 v=74
186677 On ch=1 n=c7 v=66
186697 Off ch=1 n=g#6 v=64
186697 Off ch=1 n=c6 v=64
186724 Off ch=1 n=c7 v=64
186726 Off ch=1 n=f4 v=64
186776 Off ch=1 n=c5 v=64
186776 Par ch=1 c=64 v=127
186782 On ch=1 n=d6 v=97
186782 On ch=1 n=d7 v=98
186798 On ch=1 n=d5 v=84
186808 Off ch=1 n=g#4 v=64
186822 Off ch=1 n=d7 v=64
186832 Off ch=1 n=d6 v=64
186858 Off ch=1 n=d5 v=64
186914 On ch=1 n=d#6 v=86
186916 On ch=1 n=d#7 v=86
186924 On ch=1 n=d#5 v=83
186954 Off ch=1 n=d#7 v=64
186978 Off ch=1 n=d#5 v=64
186986 Off ch=1 n=d#6 v=64
187014 On ch=1 n=f5 v=68
187020 Par ch=1 c=64 v=0
187034 On ch=1 n=f7 v=85
187034 On ch=1 n=f6 v=86
187074 Off ch=1 n=f7 v=64
187082 Off ch=1 n=f6 v=64
187092 Off ch=1 n=f5 v=64
187176 On ch=1 n=d#6 v=109
187179 On ch=1 n=d#7 v=95
187186 On ch=1 n=c7 v=92
187186 On ch=1 n=c5 v=68
187188 On ch=1 n=d#5 v=84
187191 On ch=1 n=g4 v=30
187208 Off ch=1 n=d#7 v=64
187220 Off ch=1 n=c7 v=64
187228 Off ch=1 n=d#5 v=64
187230 Off ch=1 n=c5 v=64
187252 Par ch=1 c=64 v=127
187262 Off ch=1 n=g4 v=64
187264 Off ch=1 n=d#6 v=64
187480 On ch=1 n=c5 v=89
187480 On ch=1 n=g5 v=88
187488 On ch=1 n=d#4 v=73
187492 On ch=1 n=g3 v=57
187518 Off ch=1 n=c5 v=64
187518 Off ch=1 n=g5 v=64
187542 Off ch=1 n=g3 v=64
187550 Off ch=1 n=d#4 v=64
187574 On ch=1 n=c5 v=79
187584 On ch=1 n=g5 v=60
187612 On ch=1 n=c3 v=80
187630 Off ch=1 n=g5 v=64
187666 Off ch=1 n=c5 v=64
187688 Off ch=1 n=c3 v=64
187704 On ch=1 n=g5 v=71
187706 On ch=1 n=g3 v=57
187714 On ch=1 n=c5 v=100
187720 On ch=1 n=d#4 v=106
187746 Off ch=1 n=c5 v=64
187756 Off ch=1 n=g3 v=64
187784 Off ch=1 n=g5 v=64
187804 Off ch=1 n=d#4 v=64
187984 On ch=1 n=d#7 v=87
188008 On ch=1 n=d#5 v=28
188018 Off ch=1 n=d#7 v=64
188066 Off ch=1 n=d#5 v=64
188094 On ch=1 n=f5 v=76
188106 On ch=1 n=f7 v=84
188128 Par ch=1 c=64 v=0
188142 Off ch=1 n=f7 v=64
188144 On ch=1 n=f6 v=18
188198 Off ch=1 n=f5 v=64
188204 Off ch=1 n=f6 v=64
188226 On ch=1 n=g7 v=111
188229 On ch=1 n=g5 v=99
188232 On ch=1 n=g6 v=91
188232 On ch=1 n=d7 v=85
188235 On ch=1 n=a#6 v=77
188240 On ch=1 n=d5 v=86
188252 On ch=1 n=a#4 v=67
188280 Off ch=1 n=g6 v=64
188282 Off ch=1 n=d7 v=64
188282 Off ch=1 n=d5 v=64
188286 Off ch=1 n=g7 v=64
188296 Off ch=1 n=a#6 v=64
188329 Off ch=1 n=g5 v=64
188332 Off ch=1 n=a#4 v=64
188344 Par ch=1 c=64 v=127
188524 On ch=1 n=g4 v=58
188540 On ch=1 n=a#3 v=56
188540 On ch=1 n=g5 v=80
188543 On ch=1 n=d5 v=72
188576 Off ch=1 n=g4 v=64
188584 Off ch=1 n=g5 v=64
188584 Off ch=1 n=d5 v=64
188594 Off ch=1 n=a#3 v=64
188636 On ch=1 n=g5 v=77
188636 On ch=1 n=d5 v=91
188642 On ch=1 n=d#3 v=89
188676 Off ch=1 n=d5 v=64
188682 Off ch=1 n=g5 v=64
188730 On ch=1 n=a#3 v=58
188750 Off ch=1 n=d#3 v=64
188760 On ch=1 n=g5 v=81
188762 On ch=1 n=d5 v=89
188770 On ch=1 n=g4 v=100
188778 Off ch=1 n=a#3 v=64
188798 Off ch=1 n=d5 v=64
188806 Off ch=1 n=g4 v=64
188834 On ch=1 n=a4 v=32
188868 Off ch=1 n=g5 v=64
188904 Off ch=1 n=a4 v=64
189072 On ch=1 n=d5 v=83
189072 On ch=1 n=d7 v=103
189162 Off ch=1 n=d7 v=64
189192 On ch=1 n=g7 v=106
189198 On ch=1 n=g5 v=87
189210 Off ch=1 n=d5 v=64
189240 Off ch=1 n=g5 v=64
189288 Off ch=1 n=g7 v=64
189310 Par ch=1 c=64 v=0
189360 On ch=1 n=a7 v=109
189363 On ch=1 n=a6 v=117
189363 On ch=1 n=d7 v=101
189366 On ch=1 n=a5 v=102
189380 On ch=1 n=e5 v=92
189380 On ch=1 n=a4 v=81
189526 Off ch=1 n=a5 v=64
189534 Off ch=1 n=a7 v=64
189534 Off ch=1 n=a4 v=64
189548 Off ch=1 n=a6 v=64
189556 Par ch=1 c=64 v=127
189558 Off ch=1 n=d7 v=64
189558 Off ch=1 n=e5 v=64
189740 On ch=1 n=d6 v=83
189742 On ch=1 n=a4 v=74
189744 On ch=1 n=g5 v=74
189744 On ch=1 n=e6 v=72
189748 On ch=1 n=a6 v=74
189752 On ch=1 n=e5 v=66
189780 Off ch=1 n=e6 v=64
189782 Off ch=1 n=d6 v=64
189784 Off ch=1 n=a4 v=64
189786 Off ch=1 n=a6 v=64
189788 Off ch=1 n=g5 v=64
189792 Off ch=1 n=e5 v=64
189864 On ch=1 n=g5 v=54
189864 On ch=1 n=e6 v=58
189866 On ch=1 n=a6 v=70
189870 On ch=1 n=e5 v=64
189872 On ch=1 n=a4 v=47
189872 On ch=1 n=d6 v=67
189914 Off ch=1 n=d6 v=64
189916 Off ch=1 n=a6 v=64
189922 Off ch=1 n=e5 v=64
189932 Off ch=1 n=a4 v=64
189935 Off ch=1 n=g5 v=64
189954 Off ch=1 n=e6 v=64
189990 On ch=1 n=a6 v=75
189990 On ch=1 n=e6 v=84
189992 On ch=1 n=g5 v=87
189994 On ch=1 n=d6 v=81
189996 On ch=1 n=a4 v=71
189998 On ch=1 n=e5 v=74
190026 Off ch=1 n=g5 v=64
190028 Off ch=1 n=e6 v=64
190030 Off ch=1 n=a6 v=64
190074 Off ch=1 n=e5 v=64
190084 Off ch=1 n=d6 v=64
190106 Off ch=1 n=a4 v=64
190282 On ch=1 n=a3 v=85
190282 On ch=1 n=d5 v=38
190284 On ch=1 n=a5 v=23
190286 On ch=1 n=g4 v=75
190290 On ch=1 n=e5 v=32
190294 On ch=1 n=e4 v=31
190322 Off ch=1 n=a3 v=64
190328 Off ch=1 n=g4 v=64
190344 Off ch=1 n=a5 v=64
190352 Off ch=1 n=e4 v=64
190355 Off ch=1 n=e5 v=64
190360 Off ch=1 n=d5 v=64
190384 On ch=1 n=g4 v=90
190387 On ch=1 n=a3 v=78
190388 On ch=1 n=e4 v=31
190388 On ch=1 n=d5 v=38
190392 On ch=1 n=a5 v=23
190396 On ch=1 n=e5 v=32
190446 Off ch=1 n=e4 v=64
190450 Off ch=1 n=g4 v=64
190452 Off ch=1 n=a5 v=64
190456 Off ch=1 n=a3 v=64
190461 Off ch=1 n=e5 v=64
190466 Off ch=1 n=d5 v=64
190506 On ch=1 n=d5 v=100
190509 On ch=1 n=e5 v=94
190516 On ch=1 n=a5 v=23
190518 On ch=1 n=g4 v=89
190520 On ch=1 n=e4 v=90
190522 On ch=1 n=a3 v=80
190566 Off ch=1 n=g4 v=64
190576 Off ch=1 n=a5 v=64
190578 Off ch=1 n=e5 v=64
190582 Off ch=1 n=e4 v=64
190594 Off ch=1 n=d5 v=64
190604 Off ch=1 n=a3 v=64
190842 On ch=1 n=a3 v=90
190844 On ch=1 n=a4 v=67
190846 On ch=1 n=a2 v=98
190848 On ch=1 n=c#4 v=89
190860 On ch=1 n=e3 v=75
190860 On ch=1 n=g4 v=64
190880 Off ch=1 n=a2 v=64
190884 Off ch=1 n=a3 v=64
190890 Off ch=1 n=c#4 v=64
190892 Off ch=1 n=a4 v=64
190898 Off ch=1 n=e3 v=64
190904 Off ch=1 n=g4 v=64
190946 On ch=1 n=a4 v=81
190949 On ch=1 n=c#4 v=72
190949 On ch=1 n=a3 v=62
190956 On ch=1 n=a2 v=62
190958 On ch=1 n=g4 v=88
190960 On ch=1 n=e3 v=91
191002 Off ch=1 n=e3 v=64
191016 Off ch=1 n=a4 v=64
191021 Off ch=1 n=a2 v=64
191032 Off ch=1 n=g4 v=64
191038 Off ch=1 n=c#4 v=64
191040 Off ch=1 n=a3 v=64
191046 Par ch=1 c=64 v=0
191092 On ch=1 n=c#4 v=90
191094 On ch=1 n=a3 v=94
191100 On ch=1 n=g4 v=86
191102 On ch=1 n=a4 v=74
191104 On ch=1 n=a2 v=92
191112 On ch=1 n=e3 v=94
191158 Off ch=1 n=e3 v=64
191178 Off ch=1 n=a3 v=64
191216 Par ch=1 c=64 v=127
191228 Off ch=1 n=a2 v=64
191236 Off ch=1 n=g4 v=64
191266 Off ch=1 n=c#4 v=64
191274 Off ch=1 n=a4 v=64
191476 On ch=1 n=g4 v=88
191482 On ch=1 n=g2 v=111
191570 Off ch=1 n=g2 v=64
191622 Off ch=1 n=g4 v=64
191654 On ch=1 n=a4 v=91
191656 On ch=1 n=a2 v=97
191760 Off ch=1 n=a2 v=64
191918 On ch=1 n=d4 v=115
191918 On ch=1 n=d5 v=111
191930 On ch=1 n=d3 v=113
191930 On ch=1 n=d2 v=108
191954 Par ch=1 c=64 v=0
191992 Off ch=1 n=a4 v=64
192146 Off ch=1 n=d2 v=64
192174 Off ch=1 n=d4 v=64
192216 Off ch=1 n=d3 v=64
192230 Par ch=1 c=64 v=127
192262 Off ch=1 n=d5 v=64
192758 On ch=1 n=a7 v=47
192762 On ch=1 n=f#5 v=26
192764 On ch=1 n=a4 v=48
192764 On ch=1 n=a6 v=39
192767 On ch=1 n=a5 v=29
192768 On ch=1 n=d7 v=9
192770 On ch=1 n=f#7 v=26
192824 Off ch=1 n=a4 v=64
192826 Off ch=1 n=f#5 v=64
192834 Off ch=1 n=a6 v=64
192838 Off ch=1 n=a5 v=64
192838 Off ch=1 n=f#7 v=64
192844 Off ch=1 n=d7 v=64
192848 Off ch=1 n=a7 v=64
192948 On ch=1 n=a6 v=62
192948 On ch=1 n=a7 v=53
192951 On ch=1 n=f#7 v=32
192951 On ch=1 n=a5 v=29
192954 On ch=1 n=d7 v=32
192956 On ch=1 n=f#5 v=21
192958 On ch=1 n=d5 v=39
192962 On ch=1 n=a4 v=30
193012 Off ch=1 n=a6 v=64
193012 Off ch=1 n=a7 v=64
193015 Off ch=1 n=d5 v=64
193020 Off ch=1 n=d7 v=64
193020 Off ch=1 n=f#5 v=64
193022 Off ch=1 n=f#7 v=64
193026 Off ch=1 n=a5 v=64
193030 Off ch=1 n=a4 v=64
193128 On ch=1 n=a7 v=72
193130 On ch=1 n=a5 v=52
193134 On ch=1 n=d7 v=27
193136 On ch=1 n=a6 v=70
193136 On ch=1 n=d5 v=29
193140 On ch=1 n=a4 v=23
193142 On ch=1 n=f#7 v=54
193174 Off ch=1 n=a7 v=64
193177 Off ch=1 n=a6 v=64
193184 Off ch=1 n=a5 v=64
193198 Off ch=1 n=d7 v=64
193206 Off ch=1 n=d5 v=64
193210 Off ch=1 n=a4 v=64
193210 Off ch=1 n=f#7 v=64
193288 On ch=1 n=a#7 v=68
193294 On ch=1 n=d7 v=72
193298 On ch=1 n=a#5 v=63
193298 On ch=1 n=f#7 v=40
193298 On ch=1 n=a#6 v=64
193301 On ch=1 n=a#4 v=52
193312 On ch=1 n=d5 v=59
193318 On ch=1 n=f#5 v=40
193338 Off ch=1 n=a#7 v=64
193346 Off ch=1 n=a#5 v=64
193349 Off ch=1 n=d7 v=64
193349 Off ch=1 n=f#7 v=64
193349 Off ch=1 n=a#6 v=64
193356 Off ch=1 n=a#4 v=64
193358 Off ch=1 n=d5 v=64
193370 Off ch=1 n=f#5 v=64
193426 On ch=1 n=a#4 v=48
193430 On ch=1 n=a#5 v=56
193434 On ch=1 n=d5 v=36
193440 On ch=1 n=a#6 v=73
193440 On ch=1 n=f#5 v=41
193442 On ch=1 n=a#7 v=59
193442 On ch=1 n=d7 v=35
193444 On ch=1 n=f#7 v=46
193480 Off ch=1 n=a#6 v=64
193484 Off ch=1 n=d5 v=64
193486 Off ch=1 n=a#7 v=64
193494 Off ch=1 n=f#7 v=64
193496 Off ch=1 n=a#5 v=64
193496 Off ch=1 n=f#5 v=64
193498 Off ch=1 n=d7 v=64
193507 Off ch=1 n=a#4 v=64
193580 On ch=1 n=a5 v=66
193580 On ch=1 n=a4 v=80
193584 On ch=1 n=d5 v=54
193590 On ch=1 n=a7 v=62
193590 On ch=1 n=a6 v=69
193592 On ch=1 n=f#7 v=33
193594 On ch=1 n=d7 v=33
193628 Off ch=1 n=a5 v=64
193630 Off ch=1 n=a4 v=64
193632 Off ch=1 n=a6 v=64
193634 Off ch=1 n=d5 v=64
193638 Off ch=1 n=a7 v=64
193648 Off ch=1 n=f#7 v=64
193660 Off ch=1 n=d7 v=64
193718 On ch=1 n=a6 v=76
193718 On ch=1 n=a4 v=63
193718 On ch=1 n=a7 v=63
193724 On ch=1 n=a5 v=46
193724 On ch=1 n=f#7 v=54
193724 On ch=1 n=d7 v=69
193727 On ch=1 n=d5 v=61
193736 On ch=1 n=f#5 v=48
193760 Off ch=1 n=a4 v=64
193762 Off ch=1 n=a6 v=64
193770 Off ch=1 n=a7 v=64
193776 Off ch=1 n=a5 v=64
193782 Off ch=1 n=d5 v=64
193788 Off ch=1 n=f#7 v=64
193790 Off ch=1 n=f#5 v=64
193802 Off ch=1 n=d7 v=64
193846 On ch=1 n=a#7 v=84
193850 On ch=1 n=d5 v=79
193852 On ch=1 n=a#5 v=79
193854 On ch=1 n=f#7 v=64
193854 On ch=1 n=d7 v=87
193857 On ch=1 n=a#6 v=86
193860 On ch=1 n=a#4 v=32
193862 On ch=1 n=f#5 v=46
193896 Off ch=1 n=a#5 v=64
193904 Off ch=1 n=f#7 v=64
193904 Off ch=1 n=d7 v=64
193906 Off ch=1 n=a#7 v=64
193906 Off ch=1 n=a#6 v=64
193908 Off ch=1 n=d5 v=64
193910 Off ch=1 n=f#5 v=64
193920 Off ch=1 n=a#4 v=64
193964 On ch=1 n=a#5 v=72
193976 On ch=1 n=a#7 v=77
193976 On ch=1 n=a#6 v=82
193976 On ch=1 n=a#4 v=32
193982 On ch=1 n=f#5 v=48
193982 On ch=1 n=f#7 v=62
193985 On ch=1 n=d7 v=68
193985 On ch=1 n=d5 v=69
194020 Off ch=1 n=a#7 v=64
194028 Off ch=1 n=f#5 v=64
194028 Off ch=1 n=d5 v=64
194032 Off ch=1 n=f#7 v=64
194034 Off ch=1 n=d7 v=64
194036 Off ch=1 n=a#4 v=64
194043 Off ch=1 n=a#5 v=64
194046 Off ch=1 n=a#6 v=64
194094 On ch=1 n=f#5 v=54
194102 On ch=1 n=d5 v=68
194102 On ch=1 n=a5 v=76
194112 On ch=1 n=f#7 v=55
194112 On ch=1 n=a7 v=81
194115 On ch=1 n=a4 v=66
194115 On ch=1 n=a6 v=86
194115 On ch=1 n=d7 v=54
194142 Off ch=1 n=a5 v=64
194152 Off ch=1 n=a7 v=64
194158 Off ch=1 n=a6 v=64
194160 Off ch=1 n=a4 v=64
194162 Off ch=1 n=f#5 v=64
194162 Off ch=1 n=f#7 v=64
194164 Off ch=1 n=d5 v=64
194166 Off ch=1 n=d7 v=64
194220 On ch=1 n=a4 v=66
194220 On ch=1 n=a5 v=48
194230 On ch=1 n=a7 v=57
194230 On ch=1 n=a6 v=87
194233 On ch=1 n=f#7 v=71
194233 On ch=1 n=f#5 v=55
194236 On ch=1 n=d5 v=76
194238 On ch=1 n=d7 v=75
194264 Off ch=1 n=a4 v=64
194267 Off ch=1 n=a7 v=64
194272 Off ch=1 n=a5 v=64
194275 Off ch=1 n=a6 v=64
194280 Off ch=1 n=f#5 v=64
194296 Off ch=1 n=d7 v=64
194306 Off ch=1 n=f#7 v=64
194308 Off ch=1 n=d5 v=64
194342 On ch=1 n=a#5 v=92
194350 On ch=1 n=a#7 v=90
194352 On ch=1 n=a#6 v=100
194354 On ch=1 n=f#7 v=86
194358 On ch=1 n=d7 v=87
194362 On ch=1 n=f#5 v=40
194376 On ch=1 n=d5 v=84
194398 Off ch=1 n=a#7 v=64
194404 Off ch=1 n=d7 v=64
194412 Off ch=1 n=d5 v=64
194414 Off ch=1 n=f#7 v=64
194416 Off ch=1 n=f#5 v=64
194428 Off ch=1 n=a#6 v=64
194438 Off ch=1 n=a#5 v=64
194478 On ch=1 n=a#5 v=95
194482 On ch=1 n=a#6 v=98
194484 On ch=1 n=f#5 v=59
194486 On ch=1 n=f#7 v=77
194486 On ch=1 n=d5 v=58
194486 On ch=1 n=a#7 v=72
194488 On ch=1 n=d7 v=73
194490 On ch=1 n=a#4 v=74
194524 Off ch=1 n=a#7 v=64
194532 Off ch=1 n=a#4 v=64
194535 Off ch=1 n=d7 v=64
194538 Off ch=1 n=f#5 v=64
194538 Off ch=1 n=d5 v=64
194542 Off ch=1 n=a#5 v=64
194558 Off ch=1 n=f#7 v=64
194564 Off ch=1 n=a#6 v=64
194614 On ch=1 n=f#7 v=79
194614 On ch=1 n=f#5 v=64
194616 On ch=1 n=a5 v=89
194620 On ch=1 n=d7 v=68
194620 On ch=1 n=a6 v=89
194622 On ch=1 n=a7 v=85
194622 On ch=1 n=d5 v=68
194628 On ch=1 n=a4 v=74
194660 Off ch=1 n=a5 v=64
194664 Off ch=1 n=a7 v=64
194668 Off ch=1 n=a4 v=64
194682 Off ch=1 n=a6 v=64
194682 Off ch=1 n=d5 v=64
194688 Off ch=1 n=f#5 v=64
194712 Off ch=1 n=f#7 v=64
194734 Off ch=1 n=d7 v=64
194750 Par ch=1 c=64 v=0
194768 On ch=1 n=f#7 v=83
194771 On ch=1 n=a6 v=109
194771 On ch=1 n=a5 v=109
194776 On ch=1 n=a7 v=100
194776 On ch=1 n=d5 v=95
194782 On ch=1 n=d7 v=103
194784 On ch=1 n=a4 v=78
194794 On ch=1 n=f#5 v=62
194856 Off ch=1 n=f#5 v=64
194862 Off ch=1 n=a4 v=64
194882 Off ch=1 n=d5 v=64
194892 Off ch=1 n=a5 v=64
194904 Par ch=1 c=64 v=127
194906 Off ch=1 n=a6 v=64
194912 Off ch=1 n=a7 v=64
194930 Off ch=1 n=f#7 v=64
194946 Off ch=1 n=d7 v=64
195056 On ch=1 n=f#6 v=89
195056 On ch=1 n=f#5 v=79
195068 On ch=1 n=f#7 v=64
195088 Off ch=1 n=f#6 v=64
195098 Off ch=1 n=f#5 v=64
195114 Off ch=1 n=f#7 v=64
195164 On ch=1 n=d#6 v=86
195164 On ch=1 n=d#7 v=82
195172 On ch=1 n=d#5 v=90
195224 Off ch=1 n=d#5 v=64
195240 Off ch=1 n=d#7 v=64
195262 Off ch=1 n=d#6 v=64
195272 Par ch=1 c=64 v=0
195302 On ch=1 n=d5 v=98
195306 On ch=1 n=d6 v=98
195310 On ch=1 n=d7 v=84
195336 Off ch=1 n=d6 v=64
195346 Off ch=1 n=d7 v=64
195356 Off ch=1 n=d5 v=64
195410 Par ch=1 c=64 v=127
195434 On ch=1 n=c5 v=96
195437 On ch=1 n=c6 v=92
195472 Off ch=1 n=c6 v=64
195472 On ch=1 n=c7 v=30
195472 Par ch=1 c=64 v=0
195480 Off ch=1 n=c5 v=64
195538 Off ch=1 n=c7 v=64
195556 On ch=1 n=a#4 v=83
195562 On ch=1 n=a#5 v=92
195562 On ch=1 n=a#6 v=87
195580 Par ch=1 c=64 v=127
195604 Off ch=1 n=a#6 v=64
195614 Off ch=1 n=a#4 v=64
195638 Off ch=1 n=a#5 v=64
195656 Par ch=1 c=64 v=0
195687 On ch=1 n=a4 v=97
195698 On ch=1 n=a5 v=67
195716 On ch=1 n=a6 v=43
195742 Off ch=1 n=a5 v=64
195764 Par ch=1 c=64 v=127
195774 Off ch=1 n=a4 v=64
195776 Off ch=1 n=a6 v=64
195824 On ch=1 n=f#4 v=99
195834 On ch=1 n=f#5 v=92
195840 Par ch=1 c=64 v=0
195862 Off ch=1 n=f#5 v=64
195922 Off ch=1 n=f#4 v=64
195948 Par ch=1 c=64 v=127
195950 On ch=1 n=d#4 v=95
195954 On ch=1 n=d#5 v=88
195958 On ch=1 n=d#6 v=76
196006 Off ch=1 n=d#6 v=64
196056 Par ch=1 c=64 v=0
196064 Off ch=1 n=d#4 v=64
196070 Off ch=1 n=d#5 v=64
196074 On ch=1 n=d4 v=101
196090 On ch=1 n=d5 v=63
196093 On ch=1 n=d6 v=69
196132 Off ch=1 n=d6 v=64
196135 Off ch=1 n=d5 v=64
196148 Par ch=1 c=64 v=127
196180 Off ch=1 n=d4 v=64
196202 On ch=1 n=c5 v=90
196212 On ch=1 n=c4 v=95
196218 On ch=1 n=c6 v=52
196226 Par ch=1 c=64 v=0
196242 Off ch=1 n=c5 v=64
196272 Off ch=1 n=c6 v=64
196316 Off ch=1 n=c4 v=64
196324 On ch=1 n=a#3 v=90
196332 On ch=1 n=a#4 v=89
196334 Par ch=1 c=64 v=127
196334 On ch=1 n=a#5 v=86
196376 Off ch=1 n=a#5 v=64
196412 Off ch=1 n=a#3 v=64
196424 Par ch=1 c=64 v=0
196450 Off ch=1 n=a#4 v=64
196452 On ch=1 n=a3 v=93
196462 On ch=1 n=a4 v=76
196470 On ch=1 n=a5 v=61
196526 Off ch=1 n=a5 v=64
196532 Par ch=1 c=64 v=127
196537 Off ch=1 n=a4 v=64
196546 Off ch=1 n=a3 v=64
196572 On ch=1 n=f#3 v=71
196582 On ch=1 n=f#5 v=76
196670 On ch=1 n=d3 v=84
196690 On ch=1 n=d5 v=95
196695 Off ch=1 n=f#5 v=64
196708 Off ch=1 n=f#3 v=64
196722 Off ch=1 n=d3 v=64
196754 Off ch=1 n=d5 v=64
196794 Par ch=1 c=64 v=0
196872 On ch=1 n=g4 v=119
196874 On ch=1 n=g2 v=109
196874 On ch=1 n=g3 v=106
196920 Off ch=1 n=g2 v=64
196940 Off ch=1 n=g4 v=64
196956 Off ch=1 n=g3 v=64
196962 Par ch=1 c=64 v=127
197222 On ch=1 n=d5 v=80
197224 On ch=1 n=a#4 v=32
197225 On ch=1 n=a#5 v=73
197228 On ch=1 n=d4 v=83
197228 On ch=1 n=g4 v=51
197232 On ch=1 n=g5 v=75
197240 On ch=1 n=d6 v=72
197266 Off ch=1 n=d5 v=64
197272 Off ch=1 n=a#5 v=64
197276 Off ch=1 n=d6 v=64
197278 Off ch=1 n=g5 v=64
197284 Off ch=1 n=d4 v=64
197286 Off ch=1 n=g4 v=64
197298 Off ch=1 n=a#4 v=64
197336 On ch=1 n=a#5 v=62
197336 On ch=1 n=d6 v=73
197339 On ch=1 n=g5 v=74
197339 On ch=1 n=d5 v=80
197348 On ch=1 n=a#4 v=32
197352 On ch=1 n=d4 v=19
197360 On ch=1 n=g4 v=48
197382 Off ch=1 n=d5 v=64
197385 Off ch=1 n=d6 v=64
197406 Off ch=1 n=g5 v=64
197416 Off ch=1 n=a#5 v=64
197416 Off ch=1 n=g4 v=64
197418 Off ch=1 n=d4 v=64
197422 Off ch=1 n=a#4 v=64
197454 On ch=1 n=d5 v=89
197456 On ch=1 n=d6 v=84
197460 On ch=1 n=a#4 v=32
197464 On ch=1 n=g5 v=92
197468 On ch=1 n=d4 v=19
197470 On ch=1 n=a#5 v=74
197474 On ch=1 n=g4 v=51
197490 Off ch=1 n=d6 v=64
197494 Off ch=1 n=d5 v=64
197510 Off ch=1 n=a#5 v=64
197532 Off ch=1 n=g4 v=64
197534 Off ch=1 n=a#4 v=64
197534 Off ch=1 n=d4 v=64
197562 Off ch=1 n=g5 v=64
197692 On ch=1 n=a3 v=89
197696 On ch=1 n=a4 v=88
197796 On ch=1 n=a#3 v=87
197799 On ch=1 n=a#4 v=86
197822 Off ch=1 n=a3 v=64
197844 Off ch=1 n=a4 v=64
197854 Par ch=1 c=64 v=0
197890 Off ch=1 n=a#3 v=64
197926 Off ch=1 n=a#4 v=64
197929 On ch=1 n=d4 v=111
197936 On ch=1 n=d3 v=100
197938 On ch=1 n=d5 v=92
197964 Off ch=1 n=d3 v=64
198002 Off ch=1 n=d4 v=64
198007 Par ch=1 c=64 v=127
198026 Off ch=1 n=d5 v=64
198218 On ch=1 n=d5 v=88
198222 On ch=1 n=g4 v=34
198224 On ch=1 n=a#4 v=67
198230 On ch=1 n=a#5 v=22
198232 On ch=1 n=d6 v=84
198240 On ch=1 n=g5 v=57
198254 Off ch=1 n=d5 v=64
198270 Off ch=1 n=d6 v=64
198273 Off ch=1 n=a#4 v=64
198294 Off ch=1 n=g5 v=64
198296 Off ch=1 n=g4 v=64
198298 Off ch=1 n=a#5 v=64
198344 On ch=1 n=a#4 v=46
198346 On ch=1 n=d#5 v=88
198354 On ch=1 n=a#5 v=14
198354 On ch=1 n=g4 v=23
198356 On ch=1 n=g5 v=69
198356 On ch=1 n=d#6 v=75
198392 Off ch=1 n=d#5 v=64
198394 Off ch=1 n=d#6 v=64
198402 Off ch=1 n=g5 v=64
198406 Off ch=1 n=a#4 v=64
198409 Off ch=1 n=a#5 v=64
198420 Off ch=1 n=g4 v=64
198458 On ch=1 n=d#5 v=88
198460 On ch=1 n=d#6 v=70
198460 On ch=1 n=a#5 v=14
198470 On ch=1 n=g5 v=72
198472 On ch=1 n=a#4 v=60
198476 On ch=1 n=g4 v=81
198515 Off ch=1 n=a#5 v=64
198518 Off ch=1 n=g5 v=64
198518 Off ch=1 n=g4 v=64
198524 Off ch=1 n=a#4 v=64
198550 Off ch=1 n=d#5 v=64
198574 Off ch=1 n=d#6 v=64
198582 On ch=1 n=a#5 v=61
198582 On ch=1 n=a#4 v=70
198592 On ch=1 n=g4 v=64
198592 On ch=1 n=e6 v=79
198595 On ch=1 n=g5 v=46
198595 On ch=1 n=e5 v=88
198630 Off ch=1 n=e6 v=64
198634 Off ch=1 n=e5 v=64
198636 Off ch=1 n=g4 v=64
198650 Off ch=1 n=a#4 v=64
198652 Off ch=1 n=g5 v=64
198678 Off ch=1 n=a#5 v=64
198698 On ch=1 n=e6 v=73
198700 On ch=1 n=g5 v=92
198702 On ch=1 n=e5 v=87
198702 On ch=1 n=g4 v=86
198706 On ch=1 n=a#5 v=26
198710 On ch=1 n=a#4 v=76
198732 Off ch=1 n=e5 v=64
198748 Off ch=1 n=a#4 v=64
198754 Off ch=1 n=g4 v=64
198770 Off ch=1 n=g5 v=64
198776 Off ch=1 n=e6 v=64
198776 Off ch=1 n=a#5 v=64
198992 Par ch=1 c=64 v=0
199040 On ch=1 n=g4 v=108
199045 On ch=1 n=g2 v=106
199045 On ch=1 n=g3 v=104
199094 Off ch=1 n=g2 v=64
199108 Off ch=1 n=g4 v=64
199128 Off ch=1 n=g3 v=64
199130 Par ch=1 c=64 v=127
199350 On ch=1 n=f5 v=81
199350 On ch=1 n=f6 v=75
199356 On ch=1 n=d6 v=75
199358 On ch=1 n=d5 v=76
199362 On ch=1 n=d4 v=65
199364 On ch=1 n=a#5 v=48
199364 On ch=1 n=f4 v=95
199378 On ch=1 n=a#4 v=39
199392 Off ch=1 n=d6 v=64
199398 Off ch=1 n=f5 v=64
199398 Off ch=1 n=d5 v=64
199402 Off ch=1 n=f6 v=64
199406 Off ch=1 n=f4 v=64
199412 Off ch=1 n=d4 v=64
199412 Off ch=1 n=a#5 v=64
199440 Off ch=1 n=a#4 v=64
199458 On ch=1 n=f5 v=90
199458 On ch=1 n=d6 v=71
199458 On ch=1 n=a#5 v=75
199461 On ch=1 n=f6 v=86
199464 On ch=1 n=d5 v=74
199478 On ch=1 n=d4 v=69
199484 On ch=1 n=f4 v=95
199492 On ch=1 n=a#4 v=48
199494 Off ch=1 n=f6 v=64
199504 Off ch=1 n=d5 v=64
199507 Off ch=1 n=f5 v=64
199507 Off ch=1 n=d6 v=64
199514 Off ch=1 n=a#5 v=64
199520 Off ch=1 n=f4 v=64
199526 Off ch=1 n=d4 v=64
199544 Off ch=1 n=a#4 v=64
199572 On ch=1 n=f6 v=53
199572 On ch=1 n=d5 v=87
199575 On ch=1 n=a#5 v=77
199575 On ch=1 n=f5 v=89
199579 On ch=1 n=d6 v=84
199579 On ch=1 n=d4 v=88
199582 On ch=1 n=f4 v=98
199586 On ch=1 n=a#4 v=88
199618 Off ch=1 n=d6 v=64
199624 Off ch=1 n=f6 v=64
199638 Off ch=1 n=d5 v=64
199640 Off ch=1 n=a#4 v=64
199660 Off ch=1 n=f5 v=64
199662 Off ch=1 n=a#5 v=64
199668 Off ch=1 n=f4 v=64
199670 Off ch=1 n=d4 v=64
199826 On ch=1 n=a3 v=91
199828 On ch=1 n=a4 v=89
199930 On ch=1 n=a#4 v=88
199932 On ch=1 n=a#3 v=82
199940 Off ch=1 n=a3 v=64
199958 Off ch=1 n=a4 v=64
199990 Par ch=1 c=64 v=0
200040 Off ch=1 n=a#3 v=64
200058 Off ch=1 n=a#4 v=64
200062 On ch=1 n=d4 v=113
200064 On ch=1 n=d3 v=108
200070 On ch=1 n=d5 v=99
200110 Off ch=1 n=d3 v=64
200136 Off ch=1 n=d4 v=64
200142 Par ch=1 c=64 v=127
200144 Off ch=1 n=d5 v=64
200334 On ch=1 n=c5 v=96
200338 On ch=1 n=a#4 v=46
200342 On ch=1 n=g5 v=71
200346 On ch=1 n=c6 v=66
200348 On ch=1 n=a#5 v=44
200351 On ch=1 n=g4 v=39
200372 Off ch=1 n=c5 v=64
200390 Off ch=1 n=g5 v=64
200390 Off ch=1 n=c6 v=64
200398 Off ch=1 n=a#4 v=64
200402 Off ch=1 n=g4 v=64
200404 Off ch=1 n=a#5 v=64
200446 On ch=1 n=c#5 v=88
200446 On ch=1 n=a#4 v=75
200446 On ch=1 n=g4 v=39
200450 On ch=1 n=c#6 v=80
200452 On ch=1 n=a#5 v=73
200454 On ch=1 n=g5 v=76
200490 Off ch=1 n=a#4 v=64
200497 Off ch=1 n=g4 v=64
200502 Off ch=1 n=a#5 v=64
200504 Off ch=1 n=g5 v=64
200506 Off ch=1 n=c#6 v=64
200512 Off ch=1 n=c#5 v=64
200576 On ch=1 n=c#6 v=79
200578 On ch=1 n=c#5 v=97
200582 On ch=1 n=a#5 v=26
200582 On ch=1 n=g5 v=49
200586 On ch=1 n=a#4 v=43
200586 On ch=1 n=g4 v=63
200636 Off ch=1 n=g4 v=64
200640 Off ch=1 n=g5 v=64
200642 Off ch=1 n=a#5 v=64
200662 Off ch=1 n=c#6 v=64
200664 Off ch=1 n=a#4 v=64
200669 Off ch=1 n=c#5 v=64
200710 On ch=1 n=a#4 v=70
200712 On ch=1 n=a#5 v=26
200714 On ch=1 n=g5 v=74
200714 On ch=1 n=d6 v=85
200714 On ch=1 n=d5 v=91
200718 On ch=1 n=g4 v=67
200750 Off ch=1 n=d5 v=64
200753 Off ch=1 n=d6 v=64
200760 Off ch=1 n=a#4 v=64
200760 Off ch=1 n=g5 v=64
200762 Off ch=1 n=g4 v=64
200772 Off ch=1 n=a#5 v=64
200818 On ch=1 n=g4 v=89
200818 On ch=1 n=d5 v=78
200821 On ch=1 n=d6 v=93
200821 On ch=1 n=g5 v=86
200821 On ch=1 n=a#4 v=63
200834 On ch=1 n=a#5 v=46
200852 Off ch=1 n=d5 v=64
200866 Off ch=1 n=g4 v=64
200870 Off ch=1 n=g5 v=64
200880 Off ch=1 n=a#5 v=64
200898 Off ch=1 n=a#4 v=64
200908 Off ch=1 n=d6 v=64
201142 Par ch=1 c=64 v=0
201192 On ch=1 n=g4 v=115
201192 On ch=1 n=g2 v=105
201192 On ch=1 n=g3 v=103
201222 Off ch=1 n=g2 v=64
201258 Off ch=1 n=g4 v=64
201264 Off ch=1 n=g3 v=64
201280 Par ch=1 c=64 v=127
201512 On ch=1 n=d#5 v=79
201514 On ch=1 n=a#4 v=25
201526 On ch=1 n=g4 v=62
201530 On ch=1 n=a#5 v=64
201532 On ch=1 n=g5 v=71
201534 On ch=1 n=d#6 v=70
201558 Off ch=1 n=d#5 v=64
201568 Off ch=1 n=a#4 v=64
201570 Off ch=1 n=d#6 v=64
201572 Off ch=1 n=a#5 v=64
201574 Off ch=1 n=g4 v=64
201578 Off ch=1 n=g5 v=64
201630 On ch=1 n=d#6 v=61
201630 On ch=1 n=d#5 v=80
201633 On ch=1 n=g4 v=83
201633 On ch=1 n=g5 v=83
201633 On ch=1 n=a#5 v=49
201636 On ch=1 n=a#4 v=25
201682 Off ch=1 n=d#6 v=64
201688 Off ch=1 n=d#5 v=64
201688 Off ch=1 n=g4 v=64
201690 Off ch=1 n=a#4 v=64
201698 Off ch=1 n=a#5 v=64
201706 Off ch=1 n=g5 v=64
201750 On ch=1 n=d#6 v=77
201752 On ch=1 n=d#5 v=88
201752 On ch=1 n=a#4 v=25
201756 On ch=1 n=a#5 v=67
201758 On ch=1 n=g4 v=89
201762 On ch=1 n=g5 v=89
201792 Off ch=1 n=d#5 v=64
201806 Off ch=1 n=d#6 v=64
201806 Off ch=1 n=a#4 v=64
201806 Off ch=1 n=g4 v=64
201809 Off ch=1 n=a#5 v=64
201809 Off ch=1 n=g5 v=64
202002 On ch=1 n=d#5 v=103
202008 On ch=1 n=d#4 v=92
202052 Off ch=1 n=d#5 v=64
202080 Off ch=1 n=d#4 v=64
202234 Par ch=1 c=64 v=0
202294 On ch=1 n=g4 v=114
202296 On ch=1 n=g3 v=107
202298 On ch=1 n=g2 v=103
202332 Off ch=1 n=g2 v=64
202360 Off ch=1 n=g4 v=64
202372 Off ch=1 n=g3 v=64
202372 Par ch=1 c=64 v=127
202604 On ch=1 n=a#4 v=65
202618 On ch=1 n=g5 v=79
202618 On ch=1 n=g4 v=36
202624 On ch=1 n=d6 v=82
202624 On ch=1 n=d5 v=67
202627 On ch=1 n=e4 v=72
202660 Off ch=1 n=d6 v=64
202662 Off ch=1 n=a#4 v=64
202664 Off ch=1 n=g5 v=64
202666 Off ch=1 n=e4 v=64
202670 Off ch=1 n=g4 v=64
202672 Off ch=1 n=d5 v=64
202724 On ch=1 n=d6 v=76
202726 On ch=1 n=a#4 v=55
202730 On ch=1 n=g5 v=65
202735 On ch=1 n=d5 v=81
202736 On ch=1 n=g4 v=36
202740 On ch=1 n=e4 v=73
202772 Off ch=1 n=d6 v=64
202775 Off ch=1 n=a#4 v=64
202780 Off ch=1 n=d5 v=64
202784 Off ch=1 n=e4 v=64
202788 Off ch=1 n=g4 v=64
202790 Off ch=1 n=g5 v=64
202836 On ch=1 n=d6 v=95
202838 On ch=1 n=a#4 v=61
202844 On ch=1 n=g5 v=89
202850 On ch=1 n=d5 v=71
202852 On ch=1 n=e4 v=88
202868 On ch=1 n=g4 v=83
202904 Off ch=1 n=g5 v=64
202907 Off ch=1 n=g4 v=64
202918 Off ch=1 n=d6 v=64
202922 Off ch=1 n=a#4 v=64
202926 Off ch=1 n=d5 v=64
202970 Off ch=1 n=e4 v=64
203096 On ch=1 n=e5 v=105
203104 On ch=1 n=e4 v=108
203146 Off ch=1 n=e4 v=64
203172 Off ch=1 n=e5 v=64
203354 Par ch=1 c=64 v=0
203408 On ch=1 n=g4 v=108
203416 On ch=1 n=g3 v=109
203418 On ch=1 n=g2 v=102
203460 Off ch=1 n=g2 v=64
203480 Off ch=1 n=g4 v=64
203492 Off ch=1 n=g3 v=64
203492 Par ch=1 c=64 v=127
203720 On ch=1 n=c#5 v=77
203722 On ch=1 n=a#4 v=67
203725 On ch=1 n=c#6 v=80
203726 On ch=1 n=g5 v=72
203728 On ch=1 n=g4 v=45
203729 On ch=1 n=f4 v=85
203758 Off ch=1 n=c#6 v=64
203760 Off ch=1 n=c#5 v=64
203766 Off ch=1 n=f4 v=64
203770 Off ch=1 n=g5 v=64
203778 Off ch=1 n=a#4 v=64
203780 Off ch=1 n=g4 v=64
203830 On ch=1 n=c#6 v=41
203832 On ch=1 n=c#5 v=74
203834 On ch=1 n=g5 v=83
203836 On ch=1 n=a#4 v=60
203840 On ch=1 n=g4 v=88
203843 On ch=1 n=f4 v=103
203878 Off ch=1 n=g4 v=64
203884 Off ch=1 n=c#6 v=64
203888 Off ch=1 n=c#5 v=64
203898 Off ch=1 n=g5 v=64
203898 Off ch=1 n=a#4 v=64
203912 Off ch=1 n=f4 v=64
203968 On ch=1 n=c#6 v=75
203968 On ch=1 n=g5 v=81
203971 On ch=1 n=c#5 v=83
203978 On ch=1 n=a#4 v=67
203982 On ch=1 n=f4 v=105
203988 On ch=1 n=g4 v=49
204032 Off ch=1 n=g5 v=64
204092 Off ch=1 n=c#6 v=64
204102 Off ch=1 n=a#4 v=64
204108 Off ch=1 n=c#5 v=64
204112 Off ch=1 n=g4 v=64
204116 Off ch=1 n=f4 v=64
204242 On ch=1 n=f5 v=100
204246 On ch=1 n=f4 v=113
204276 Off ch=1 n=f4 v=64
204324 Off ch=1 n=f5 v=64
204476 Par ch=1 c=64 v=0
204536 On ch=1 n=g4 v=107
204546 On ch=1 n=g3 v=105
204549 On ch=1 n=g2 v=101
204588 Off ch=1 n=g2 v=64
204622 Off ch=1 n=g4 v=64
204630 Par ch=1 c=64 v=127
204636 Off ch=1 n=g3 v=64
204792 On ch=1 n=f#5 v=90
204794 On ch=1 n=c5 v=99
204794 On ch=1 n=c6 v=95
204796 On ch=1 n=f#4 v=106
204798 On ch=1 n=a5 v=82
204832 Off ch=1 n=f#4 v=64
204835 Off ch=1 n=c5 v=64
204835 Off ch=1 n=a5 v=64
204852 Off ch=1 n=c6 v=64
204908 Off ch=1 n=f#5 v=64
204980 Par ch=1 c=64 v=0
205042 On ch=1 n=g4 v=111
205052 On ch=1 n=g2 v=98
205063 On ch=1 n=g3 v=79
205082 Off ch=1 n=g2 v=64
205100 Off ch=1 n=g3 v=64
205114 Off ch=1 n=g4 v=64
205136 Par ch=1 c=64 v=127
205304 On ch=1 n=b5 v=101
205304 On ch=1 n=f5 v=94
205304 On ch=1 n=b4 v=105
205307 On ch=1 n=g5 v=91
205312 On ch=1 n=f4 v=113
205346 Off ch=1 n=b4 v=64
205348 Off ch=1 n=g5 v=64
205362 Off ch=1 n=f5 v=64
205368 Off ch=1 n=b5 v=64
205394 Off ch=1 n=f4 v=64
205522 Par ch=1 c=64 v=0
205610 On ch=1 n=g4 v=111
205618 On ch=1 n=g3 v=105
205621 On ch=1 n=g2 v=103
205661 Off ch=1 n=g2 v=64
205690 Par ch=1 c=64 v=127
205692 Off ch=1 n=g3 v=64
205702 Off ch=1 n=g4 v=64
205918 On ch=1 n=c6 v=83
205918 On ch=1 n=c5 v=83
205921 On ch=1 n=d#4 v=68
205921 On ch=1 n=g4 v=81
205924 On ch=1 n=d#5 v=75
205926 On ch=1 n=g5 v=53
205964 Off ch=1 n=c6 v=64
205964 Off ch=1 n=d#4 v=64
205964 Off ch=1 n=g4 v=64
205964 Off ch=1 n=d#5 v=64
205978 Off ch=1 n=g5 v=64
205991 Off ch=1 n=c5 v=64
206028 On ch=1 n=d#4 v=82
206031 On ch=1 n=g4 v=83
206031 On ch=1 n=d#5 v=76
206031 On ch=1 n=c6 v=66
206034 On ch=1 n=g5 v=87
206040 On ch=1 n=c5 v=83
206078 Off ch=1 n=c6 v=64
206084 Off ch=1 n=c5 v=64
206096 Off ch=1 n=g4 v=64
206104 Off ch=1 n=d#4 v=64
206104 Off ch=1 n=g5 v=64
206130 Off ch=1 n=d#5 v=64
206152 On ch=1 n=c6 v=69
206156 On ch=1 n=c5 v=78
206164 On ch=1 n=g4 v=93
206164 On ch=1 n=g5 v=80
206164 On ch=1 n=d#5 v=69
206164 On ch=1 n=d#4 v=87
206244 Off ch=1 n=c6 v=64
206244 Off ch=1 n=g4 v=64
206268 Off ch=1 n=d#4 v=64
206270 Off ch=1 n=g5 v=64
206274 Off ch=1 n=d#5 v=64
206296 Off ch=1 n=c5 v=64
206414 On ch=1 n=b3 v=90
206416 On ch=1 n=b4 v=93
206502 On ch=1 n=c4 v=89
206512 On ch=1 n=c5 v=96
206514 Off ch=1 n=b3 v=64
206532 Off ch=1 n=b4 v=64
206552 Off ch=1 n=c4 v=64
206572 Off ch=1 n=c5 v=64
206596 Par ch=1 c=64 v=0
206660 On ch=1 n=d#5 v=100
206663 On ch=1 n=d#4 v=88
206668 On ch=1 n=d#3 v=81
206772 Off ch=1 n=d#3 v=64
206782 Par ch=1 c=64 v=127
206796 Off ch=1 n=d#4 v=64
206826 Off ch=1 n=d#5 v=64
206928 On ch=1 n=d#5 v=59
206932 On ch=1 n=g5 v=61
206932 On ch=1 n=c5 v=57
206942 On ch=1 n=g4 v=47
206942 On ch=1 n=d#4 v=45
206978 Off ch=1 n=g5 v=64
206982 Off ch=1 n=d#5 v=64
206988 Off ch=1 n=c5 v=64
207002 Off ch=1 n=g4 v=64
207002 Off ch=1 n=d#4 v=64
207036 On ch=1 n=g#4 v=78
207040 On ch=1 n=d#5 v=66
207042 On ch=1 n=g#5 v=73
207048 On ch=1 n=c5 v=69
207054 On ch=1 n=d#4 v=70
207088 Off ch=1 n=g#4 v=64
207088 Off ch=1 n=g#5 v=64
207092 Off ch=1 n=d#5 v=64
207094 Off ch=1 n=d#4 v=64
207099 Off ch=1 n=c5 v=64
207154 On ch=1 n=g#5 v=73
207156 On ch=1 n=g#4 v=72
207166 On ch=1 n=c5 v=67
207169 On ch=1 n=d#5 v=70
207172 On ch=1 n=d#4 v=68
207208 Off ch=1 n=d#5 v=64
207218 Off ch=1 n=c5 v=64
207224 Off ch=1 n=d#4 v=64
207258 Off ch=1 n=g#5 v=64
207260 Off ch=1 n=g#4 v=64
207282 On ch=1 n=c5 v=85
207286 On ch=1 n=d#4 v=82
207290 On ch=1 n=d#5 v=65
207290 On ch=1 n=a5 v=81
207294 On ch=1 n=a4 v=68
207334 Off ch=1 n=d#4 v=64
207337 Off ch=1 n=a4 v=64
207344 Off ch=1 n=d#5 v=64
207344 Off ch=1 n=a5 v=64
207347 Off ch=1 n=c5 v=64
207390 On ch=1 n=a4 v=85
207404 On ch=1 n=a5 v=82
207407 On ch=1 n=d#4 v=83
207411 On ch=1 n=c5 v=86
207418 On ch=1 n=d#5 v=73
207456 Off ch=1 n=a4 v=64
207458 Off ch=1 n=c5 v=64
207460 Off ch=1 n=d#5 v=64
207478 Off ch=1 n=d#4 v=64
207490 Off ch=1 n=a5 v=64
207688 Par ch=1 c=64 v=0
207740 On ch=1 n=g4 v=105
207748 On ch=1 n=g3 v=103
207756 On ch=1 n=g2 v=99
207790 Off ch=1 n=g2 v=64
207830 Off ch=1 n=g3 v=64
207846 Off ch=1 n=g4 v=64
207856 Par ch=1 c=64 v=127
208062 On ch=1 n=a#4 v=67
208066 On ch=1 n=d#4 v=34
208068 On ch=1 n=d#5 v=83
208070 On ch=1 n=a#5 v=75
208104 Off ch=1 n=d#5 v=64
208107 Off ch=1 n=a#5 v=64
208116 Off ch=1 n=a#4 v=64
208116 Off ch=1 n=d#4 v=64
208166 On ch=1 n=a#5 v=50
208168 On ch=1 n=d#4 v=34
208174 On ch=1 n=d#5 v=62
208180 On ch=1 n=a#4 v=52
208218 Off ch=1 n=d#4 v=64
208224 Off ch=1 n=d#5 v=64
208232 Off ch=1 n=a#4 v=64
208250 Off ch=1 n=a#5 v=64
208294 On ch=1 n=a#4 v=62
208304 On ch=1 n=a#5 v=76
208307 On ch=1 n=d#5 v=60
208310 On ch=1 n=d#4 v=90
208362 Off ch=1 n=a#5 v=64
208372 Off ch=1 n=d#5 v=64
208376 Off ch=1 n=d#4 v=64
208392 Off ch=1 n=a#4 v=64
208582 On ch=1 n=a4 v=71
208594 On ch=1 n=a3 v=76
208672 On ch=1 n=a#4 v=78
208686 On ch=1 n=a#3 v=72
208690 Off ch=1 n=a4 v=64
208704 Off ch=1 n=a3 v=64
208740 Off ch=1 n=a#4 v=64
208743 Off ch=1 n=a#3 v=64
208778 Par ch=1 c=64 v=0
208822 On ch=1 n=d#5 v=102
208825 On ch=1 n=d#4 v=92
208836 On ch=1 n=d#3 v=81
208948 Off ch=1 n=d#3 v=64
208948 Par ch=1 c=64 v=127
208958 Off ch=1 n=d#4 v=64
209030 Off ch=1 n=d#5 v=64
209134 On ch=1 n=f5 v=64
209137 On ch=1 n=d#5 v=32
209138 On ch=1 n=d#4 v=56
209140 On ch=1 n=c5 v=57
209142 On ch=1 n=g4 v=41
209154 On ch=1 n=f4 v=23
209182 Off ch=1 n=f5 v=64
209190 Off ch=1 n=d#4 v=64
209194 Off ch=1 n=d#5 v=64
209200 Off ch=1 n=c5 v=64
209206 Off ch=1 n=g4 v=64
209210 Off ch=1 n=f4 v=64
209262 On ch=1 n=d#4 v=55
209264 On ch=1 n=f#4 v=76
209270 On ch=1 n=f#5 v=68
209272 On ch=1 n=d#5 v=60
209276 On ch=1 n=c5 v=61
209322 Off ch=1 n=d#5 v=64
209328 Off ch=1 n=c5 v=64
209338 Off ch=1 n=d#4 v=64
209338 Off ch=1 n=f#4 v=64
209340 Off ch=1 n=f#5 v=64
209390 On ch=1 n=d#4 v=75
209394 On ch=1 n=f#4 v=75
209400 On ch=1 n=f#5 v=77
209410 On ch=1 n=c5 v=52
209422 On ch=1 n=d#5 v=47
209456 Off ch=1 n=f#4 v=64
209462 Off ch=1 n=c5 v=64
209466 Off ch=1 n=d#5 v=64
209472 Off ch=1 n=d#4 v=64
209486 Off ch=1 n=f#5 v=64
209514 On ch=1 n=g4 v=98
209520 On ch=1 n=c5 v=84
209528 On ch=1 n=d#5 v=80
209528 On ch=1 n=d#4 v=85
209534 On ch=1 n=g5 v=91
209570 Off ch=1 n=d#4 v=64
209576 Off ch=1 n=g5 v=64
209578 Off ch=1 n=d#5 v=64
209590 Off ch=1 n=c5 v=64
209612 Off ch=1 n=g4 v=64
209652 On ch=1 n=g5 v=74
209656 On ch=1 n=c5 v=85
209660 On ch=1 n=g4 v=103
209664 On ch=1 n=d#4 v=75
209670 On ch=1 n=d#5 v=52
209702 Off ch=1 n=g4 v=64
209716 Off ch=1 n=d#5 v=64
209746 Off ch=1 n=d#4 v=64
209756 Off ch=1 n=c5 v=64
209788 Off ch=1 n=g5 v=64
209900 Par ch=1 c=64 v=0
209964 On ch=1 n=g4 v=101
209968 On ch=1 n=g3 v=99
209976 On ch=1 n=g2 v=100
210002 Off ch=1 n=g3 v=64
210004 Off ch=1 n=g2 v=64
210084 Par ch=1 c=64 v=127
210124 Off ch=1 n=g4 v=64
210256 On ch=1 n=c5 v=40
210258 On ch=1 n=g#4 v=74
210258 On ch=1 n=g#5 v=60
210262 On ch=1 n=d#4 v=65
210274 On ch=1 n=d#5 v=46
210302 Off ch=1 n=g#4 v=64
210305 Off ch=1 n=d#4 v=64
210312 Off ch=1 n=g#5 v=64
210316 Off ch=1 n=c5 v=64
210324 Off ch=1 n=d#5 v=64
210371 On ch=1 n=g#4 v=55
210374 On ch=1 n=d#4 v=66
210380 On ch=1 n=g#5 v=43
210386 On ch=1 n=c5 v=40
210396 On ch=1 n=d#5 v=64
210432 Off ch=1 n=d#4 v=64
210438 Off ch=1 n=g#5 v=64
210438 Off ch=1 n=d#5 v=64
210446 Off ch=1 n=c5 v=64
210450 Off ch=1 n=g#4 v=64
210502 On ch=1 n=g#5 v=46
210504 On ch=1 n=c5 v=84
210506 On ch=1 n=d#5 v=57
210512 On ch=1 n=g#4 v=70
210524 On ch=1 n=d#4 v=70
210574 Off ch=1 n=g#4 v=64
210580 Off ch=1 n=d#4 v=64
210610 Off ch=1 n=c5 v=64
210613 Off ch=1 n=d#5 v=64
210636 Off ch=1 n=g#5 v=64
210784 On ch=1 n=g#4 v=88
210784 On ch=1 n=g#5 v=88
210790 On ch=1 n=g#3 v=92
210822 Off ch=1 n=g#4 v=64
210844 Off ch=1 n=g#3 v=64
210942 Off ch=1 n=g#5 v=64
211006 Par ch=1 c=64 v=0
211086 On ch=1 n=g4 v=97
211110 On ch=1 n=g2 v=69
211110 On ch=1 n=g3 v=70
211150 Off ch=1 n=g3 v=64
211156 Off ch=1 n=g2 v=64
211190 Par ch=1 c=64 v=127
211228 Off ch=1 n=g4 v=64
211364 On ch=1 n=d#4 v=81
211364 On ch=1 n=g5 v=58
211370 On ch=1 n=d#5 v=63
211372 On ch=1 n=g4 v=75
211382 On ch=1 n=c5 v=44
211404 Off ch=1 n=d#4 v=64
211412 Off ch=1 n=d#5 v=64
211415 Off ch=1 n=g5 v=64
211415 Off ch=1 n=g4 v=64
211442 Off ch=1 n=c5 v=64
211474 On ch=1 n=d#5 v=69
211474 On ch=1 n=g5 v=70
211486 On ch=1 n=g4 v=66
211489 On ch=1 n=d#4 v=50
211502 On ch=1 n=c5 v=56
211530 Off ch=1 n=d#5 v=64
211542 Off ch=1 n=g5 v=64
211542 Off ch=1 n=d#4 v=64
211550 Off ch=1 n=c5 v=64
211552 Off ch=1 n=g4 v=64
211610 On ch=1 n=g5 v=71
211614 On ch=1 n=c5 v=63
211618 On ch=1 n=d#5 v=64
211630 On ch=1 n=g4 v=67
211644 On ch=1 n=d#4 v=60
211676 Off ch=1 n=c5 v=64
211698 Off ch=1 n=g4 v=64
211700 Off ch=1 n=d#4 v=64
211728 Off ch=1 n=d#5 v=64
211736 Off ch=1 n=g5 v=64
211868 On ch=1 n=a5 v=74
211886 On ch=1 n=a4 v=69
211888 On ch=1 n=a3 v=84
211910 Off ch=1 n=a5 v=64
211930 Off ch=1 n=a4 v=64
211930 Off ch=1 n=a3 v=64
212158 Par ch=1 c=64 v=0
212200 On ch=1 n=d#3 v=103
212208 On ch=1 n=d#4 v=93
212208 On ch=1 n=d#2 v=97
212238 Off ch=1 n=d#2 v=64
212278 Off ch=1 n=d#3 v=64
212286 Off ch=1 n=d#4 v=64
212312 Par ch=1 c=64 v=127
212520 On ch=1 n=d#4 v=70
212522 On ch=1 n=f#5 v=58
212528 On ch=1 n=c5 v=59
212532 On ch=1 n=a4 v=32
212536 On ch=1 n=d#5 v=47
212568 Off ch=1 n=d#4 v=64
212570 Off ch=1 n=f#5 v=64
212580 Off ch=1 n=c5 v=64
212588 Off ch=1 n=d#5 v=64
212610 Off ch=1 n=a4 v=64
212632 On ch=1 n=f#5 v=58
212634 On ch=1 n=d#4 v=57
212637 On ch=1 n=c5 v=76
212641 On ch=1 n=a4 v=30
212648 On ch=1 n=d#5 v=80
212688 Off ch=1 n=d#5 v=64
212696 Off ch=1 n=d#4 v=64
212696 Off ch=1 n=a4 v=64
212708 Off ch=1 n=f#5 v=64
212708 Off ch=1 n=c5 v=64
212776 On ch=1 n=f#5 v=64
212779 On ch=1 n=c5 v=72
212782 On ch=1 n=d#5 v=65
212788 On ch=1 n=a4 v=42
212790 On ch=1 n=d#4 v=53
212848 Off ch=1 n=d#4 v=64
212868 Off ch=1 n=a4 v=64
212882 Off ch=1 n=c5 v=64
212904 Off ch=1 n=d#5 v=64
212922 Off ch=1 n=f#5 v=64
213090 On ch=1 n=a#5 v=73
213102 On ch=1 n=a#4 v=62
213104 On ch=1 n=a#3 v=75
213144 Off ch=1 n=a#3 v=64
213148 Off ch=1 n=a#5 v=64
213148 Off ch=1 n=a#4 v=64
213450 Par ch=1 c=64 v=0
213488 On ch=1 n=d4 v=101
213506 On ch=1 n=d3 v=99
213506 On ch=1 n=d2 v=100
213536 Off ch=1 n=d2 v=64
213542 Off ch=1 n=d3 v=64
213596 Off ch=1 n=d4 v=64
213602 Par ch=1 c=64 v=127
213900 On ch=1 n=a#4 v=62
213904 On ch=1 n=c5 v=57
213906 On ch=1 n=f#5 v=61
213908 On ch=1 n=d4 v=47
213908 On ch=1 n=d5 v=57
213956 Off ch=1 n=a#4 v=64
213956 Off ch=1 n=c5 v=64
213956 Off ch=1 n=f#5 v=64
213956 Off ch=1 n=d5 v=64
213966 Off ch=1 n=d4 v=64
214016 On ch=1 n=f#5 v=70
214024 On ch=1 n=a#4 v=48
214030 On ch=1 n=d5 v=69
214030 On ch=1 n=c5 v=58
214034 On ch=1 n=d4 v=65
214080 Off ch=1 n=d5 v=64
214082 Off ch=1 n=d4 v=64
214088 Off ch=1 n=c5 v=64
214094 Off ch=1 n=f#5 v=64
214098 Off ch=1 n=a#4 v=64
214160 On ch=1 n=f#5 v=64
214163 On ch=1 n=a#4 v=56
214166 On ch=1 n=c5 v=66
214166 On ch=1 n=d5 v=63
214168 On ch=1 n=d4 v=68
214216 Off ch=1 n=d5 v=64
214222 Off ch=1 n=c5 v=64
214270 Off ch=1 n=f#5 v=64
214282 Off ch=1 n=d4 v=64
214344 Off ch=1 n=a#4 v=64
214528 On ch=1 n=d6 v=81
214528 On ch=1 n=d5 v=67
214531 On ch=1 n=a4 v=69
214542 On ch=1 n=d4 v=74
214562 Off ch=1 n=d6 v=64
214574 Off ch=1 n=a4 v=64
214582 Off ch=1 n=d4 v=64
214596 Off ch=1 n=d5 v=64
214900 On ch=1 n=g4 v=88
214910 Par ch=1 c=64 v=0
214913 On ch=1 n=g2 v=87
214913 On ch=1 n=g3 v=79
215022 Off ch=1 n=g2 v=64
215062 Off ch=1 n=g3 v=64
215062 Par ch=1 c=64 v=127
215098 Off ch=1 n=g4 v=64
215190 On ch=1 n=a#4 v=62
215190 On ch=1 n=g5 v=68
215193 On ch=1 n=d4 v=81
215193 On ch=1 n=g3 v=65
215193 On ch=1 n=g4 v=46
215232 Off ch=1 n=d4 v=64
215232 Par ch=1 c=64 v=0
215235 Off ch=1 n=g3 v=64
215238 Off ch=1 n=g5 v=64
215244 Off ch=1 n=a#4 v=64
215256 Off ch=1 n=g4 v=64
215288 On ch=1 n=g3 v=83
215290 On ch=1 n=d4 v=78
215294 On ch=1 n=g5 v=76
215300 On ch=1 n=a#4 v=62
215306 On ch=1 n=g4 v=57
215346 Off ch=1 n=g3 v=64
215346 Off ch=1 n=g5 v=64
215349 Off ch=1 n=d4 v=64
215356 Off ch=1 n=g4 v=64
215364 Off ch=1 n=a#4 v=64
215420 On ch=1 n=a#4 v=68
215420 On ch=1 n=g5 v=68
215420 On ch=1 n=d4 v=84
215426 On ch=1 n=g3 v=71
215426 On ch=1 n=g4 v=75
215492 Par ch=1 c=64 v=127
215512 Off ch=1 n=g3 v=64
215522 Off ch=1 n=g4 v=64
215524 Off ch=1 n=d4 v=64
215536 Off ch=1 n=g5 v=64
215548 Off ch=1 n=a#4 v=64
215584 Par ch=1 c=64 v=0
215680 On ch=1 n=g4 v=50
215680 On ch=1 n=d#5 v=70
215682 On ch=1 n=a#3 v=72
215682 On ch=1 n=d#4 v=74
215684 On ch=1 n=c#5 v=61
215721 Off ch=1 n=d#5 v=64
215728 Off ch=1 n=a#3 v=64
215730 Off ch=1 n=c#5 v=64
215736 Off ch=1 n=d#4 v=64
215738 Off ch=1 n=g4 v=64
215788 On ch=1 n=a#3 v=61
215790 On ch=1 n=d#5 v=86
215794 On ch=1 n=d#4 v=76
215794 On ch=1 n=c#5 v=75
215798 On ch=1 n=g4 v=49
215834 Off ch=1 n=d#5 v=64
215842 Off ch=1 n=c#5 v=64
215852 Off ch=1 n=g4 v=64
215868 Off ch=1 n=d#4 v=64
215874 Off ch=1 n=a#3 v=64
215908 On ch=1 n=d#5 v=75
215914 On ch=1 n=c#5 v=61
215916 On ch=1 n=g4 v=80
215922 On ch=1 n=a#3 v=79
215926 On ch=1 n=d#4 v=80
215968 Off ch=1 n=d#4 v=64
215984 Off ch=1 n=a#3 v=64
216008 Off ch=1 n=g4 v=64
216014 Off ch=1 n=d#5 v=64
216022 Off ch=1 n=c#5 v=64
216188 On ch=1 n=g4 v=71
216188 On ch=1 n=a#3 v=81
216191 On ch=1 n=e5 v=74
216191 On ch=1 n=c#5 v=52
216191 On ch=1 n=a#2 v=88
216240 Off ch=1 n=a#2 v=64
216252 Off ch=1 n=a#3 v=64
216276 Off ch=1 n=c#5 v=64
216290 Off ch=1 n=g4 v=64
216324 Off ch=1 n=e5 v=64
216472 On ch=1 n=d4 v=85
216476 On ch=1 n=d3 v=91
216516 Off ch=1 n=d3 v=64
216518 Off ch=1 n=d4 v=64
216746 On ch=1 n=d5 v=61
216748 On ch=1 n=a2 v=81
216748 On ch=1 n=f#4 v=72
216752 On ch=1 n=f#5 v=46
216754 On ch=1 n=a3 v=57
216760 On ch=1 n=c5 v=54
216790 Off ch=1 n=a2 v=64
216808 Off ch=1 n=a3 v=64
216826 Off ch=1 n=c5 v=64
216854 Off ch=1 n=f#4 v=64
216862 Off ch=1 n=d5 v=64
216920 Off ch=1 n=f#5 v=64
217066 On ch=1 n=g3 v=81
217072 On ch=1 n=g2 v=84
217178 Off ch=1 n=g2 v=64
217198 Par ch=1 c=64 v=127
217200 Off ch=1 n=g3 v=64
217372 On ch=1 n=a#4 v=61
217378 On ch=1 n=g5 v=66
217378 On ch=1 n=g4 v=62
217381 On ch=1 n=d4 v=69
217428 Off ch=1 n=g5 v=64
217428 Off ch=1 n=g4 v=64
217428 Off ch=1 n=d4 v=64
217431 Off ch=1 n=a#4 v=64
217476 On ch=1 n=g5 v=87
217482 On ch=1 n=a#4 v=71
217486 On ch=1 n=d4 v=83
217488 On ch=1 n=g4 v=85
217528 Off ch=1 n=g5 v=64
217530 Off ch=1 n=d4 v=64
217530 Off ch=1 n=g4 v=64
217564 Off ch=1 n=a#4 v=64
217612 On ch=1 n=d4 v=82
217614 On ch=1 n=g5 v=69
217616 On ch=1 n=g4 v=65
217616 On ch=1 n=a#4 v=73
217660 Off ch=1 n=d4 v=64
217716 Off ch=1 n=g4 v=64
217719 Off ch=1 n=g5 v=64
217734 Off ch=1 n=a#4 v=64
217894 On ch=1 n=d#3 v=76
217897 On ch=1 n=a#3 v=56
217904 On ch=1 n=d#5 v=84
217908 On ch=1 n=g4 v=82
217910 On ch=1 n=c#5 v=68
217934 Off ch=1 n=d#3 v=64
217940 Off ch=1 n=d#5 v=64
217950 Off ch=1 n=g4 v=64
217952 Off ch=1 n=a#3 v=64
217954 Off ch=1 n=c#5 v=64
217982 Par ch=1 c=64 v=0
218002 On ch=1 n=d#3 v=63
218002 On ch=1 n=a#3 v=68
218002 On ch=1 n=d#5 v=78
218005 On ch=1 n=c#5 v=76
218009 On ch=1 n=g4 v=83
218056 Off ch=1 n=g4 v=64
218066 Off ch=1 n=c#5 v=64
218072 Off ch=1 n=d#5 v=64
218078 Off ch=1 n=a#3 v=64
218080 Off ch=1 n=d#3 v=64
218132 On ch=1 n=d#5 v=92
218138 On ch=1 n=g4 v=71
218138 On ch=1 n=d#3 v=84
218140 On ch=1 n=c#5 v=68
218140 On ch=1 n=a#3 v=70
218216 Off ch=1 n=a#3 v=64
218228 Off ch=1 n=g4 v=64
218230 Off ch=1 n=d#3 v=64
218234 Off ch=1 n=c#5 v=64
218240 Off ch=1 n=d#5 v=64
218422 On ch=1 n=a#3 v=81
218424 On ch=1 n=g4 v=80
218424 On ch=1 n=a#2 v=87
218426 On ch=1 n=e5 v=75
218428 On ch=1 n=c#5 v=55
218484 Off ch=1 n=a#2 v=64
218510 Off ch=1 n=c#5 v=64
218512 Off ch=1 n=a#3 v=64
218527 Off ch=1 n=g4 v=64
218542 Off ch=1 n=e5 v=64
218692 On ch=1 n=d4 v=84
218698 On ch=1 n=d3 v=83
218734 Off ch=1 n=d4 v=64
218742 Off ch=1 n=d3 v=64
218970 On ch=1 n=f#4 v=54
218970 On ch=1 n=f#5 v=29
218972 On ch=1 n=a3 v=58
218974 On ch=1 n=d5 v=45
218974 On ch=1 n=c5 v=37
218976 On ch=1 n=a2 v=58
219028 Off ch=1 n=a3 v=64
219036 Off ch=1 n=d5 v=64
219038 Off ch=1 n=a2 v=64
219040 Off ch=1 n=c5 v=64
219050 Off ch=1 n=f#5 v=64
219056 Off ch=1 n=f#4 v=64
219258 On ch=1 n=g3 v=68
219272 On ch=1 n=g2 v=48
219316 Off ch=1 n=g3 v=64
219332 Off ch=1 n=g2 v=64
219366 Par ch=1 c=64 v=127
219524 On ch=1 n=g5 v=27
219532 On ch=1 n=a#4 v=39
219532 On ch=1 n=d4 v=67
219536 On ch=1 n=g4 v=43
219578 Off ch=1 n=d4 v=64
219592 Off ch=1 n=a#4 v=64
219593 Off ch=1 n=g5 v=64
219602 Off ch=1 n=g4 v=64
219652 On ch=1 n=g5 v=27
219654 On ch=1 n=d4 v=38
219656 On ch=1 n=a#4 v=48
219656 On ch=1 n=g4 v=23
219710 Off ch=1 n=d4 v=64
219710 Off ch=1 n=a#4 v=64
219721 Off ch=1 n=g5 v=64
219728 Off ch=1 n=g4 v=64
219778 On ch=1 n=a#4 v=35
219778 On ch=1 n=g5 v=67
219780 On ch=1 n=g4 v=37
219782 On ch=1 n=d4 v=50
219834 Off ch=1 n=d4 v=64
219842 Off ch=1 n=g4 v=64
219886 Off ch=1 n=a#4 v=64
219886 Off ch=1 n=g5 v=64
220048 On ch=1 n=a2 v=68
220142 On ch=1 n=a#2 v=58
220164 Par ch=1 c=64 v=0
220192 Off ch=1 n=a2 v=64
220264 Off ch=1 n=a#2 v=64
220292 On ch=1 n=d3 v=71
220574 On ch=1 n=f4 v=94
220574 On ch=1 n=a#4 v=56
220577 On ch=1 n=d5 v=69
220584 On ch=1 n=d4 v=73
220584 On ch=1 n=a#3 v=70
220628 Off ch=1 n=d5 v=64
220628 Off ch=1 n=d4 v=64
220632 Off ch=1 n=f4 v=64
220642 Off ch=1 n=a#3 v=64
220656 Off ch=1 n=a#4 v=64
220918 On ch=1 n=c5 v=50
220918 On ch=1 n=f#4 v=62
220921 On ch=1 n=d4 v=64
220924 On ch=1 n=d5 v=53
220928 On ch=1 n=a3 v=49
221000 Off ch=1 n=a3 v=64
221012 Off ch=1 n=d4 v=64
221028 Off ch=1 n=d5 v=64
221054 Off ch=1 n=f#4 v=64
221078 Off ch=1 n=c5 v=64
221162 Par ch=1 c=64 v=127
221194 Par ch=1 c=64 v=0
221516 Off ch=1 n=d3 v=64
221519 On ch=1 n=g2 v=47
221810 On ch=1 n=g3 v=36
221813 On ch=1 n=g4 v=62
221813 On ch=1 n=d4 v=58
221813 On ch=1 n=a#4 v=36
221868 Off ch=1 n=d4 v=64
221872 Off ch=1 n=g4 v=64
221874 Off ch=1 n=g3 v=64
221886 Off ch=1 n=a#4 v=64
221928 On ch=1 n=a#4 v=18
221928 On ch=1 n=g4 v=48
221936 On ch=1 n=g3 v=36
221940 On ch=1 n=d4 v=44
221980 Off ch=1 n=g4 v=64
221986 Off ch=1 n=a#4 v=64
221998 Off ch=1 n=d4 v=64
222000 Off ch=1 n=g3 v=64
222046 On ch=1 n=a#4 v=56
222049 On ch=1 n=g4 v=69
222050 On ch=1 n=g3 v=45
222053 On ch=1 n=d4 v=59
222107 Off ch=1 n=d4 v=64
222114 Off ch=1 n=g3 v=64
222134 Off ch=1 n=g4 v=64
222150 Off ch=1 n=a#4 v=64
222216 Off ch=1 n=g2 v=64
222294 On ch=1 n=a2 v=58
222426 On ch=1 n=a#2 v=60
222438 Off ch=1 n=a2 v=64
222596 Off ch=1 n=a#2 v=64
222606 On ch=1 n=d3 v=61
222890 On ch=1 n=f4 v=80
222892 On ch=1 n=d4 v=59
222906 On ch=1 n=a#3 v=52
222950 Off ch=1 n=d4 v=64
222956 Off ch=1 n=f4 v=64
222988 Off ch=1 n=a#3 v=64
223322 On ch=1 n=f#4 v=55
223334 On ch=1 n=d4 v=39
223344 On ch=1 n=a3 v=47
223452 Off ch=1 n=d4 v=64
223455 Off ch=1 n=a3 v=64
223508 Off ch=1 n=f#4 v=64
224138 Off ch=1 n=d3 v=64
224152 On ch=1 n=g2 v=55
224456 On ch=1 n=g3 v=55
224554 Off ch=1 n=g3 v=64
224570 On ch=1 n=a3 v=57
224614 Off ch=1 n=g2 v=64
224672 On ch=1 n=a#3 v=64
224686 Off ch=1 n=a3 v=64
224800 On ch=1 n=d4 v=68
224802 Off ch=1 n=a#3 v=64
224852 Off ch=1 n=d4 v=64
224874 On ch=1 n=d3 v=60
224875 On ch=1 n=a3 v=53
224922 Off ch=1 n=d3 v=64
224950 Off ch=1 n=a3 v=64
225032 On ch=1 n=d4 v=36
225096 Off ch=1 n=d4 v=64
225136 On ch=1 n=d3 v=41
225138 On ch=1 n=g4 v=74
225141 On ch=1 n=a#3 v=67
225144 On ch=1 n=g2 v=47
225196 Off ch=1 n=g2 v=64
225212 Off ch=1 n=d3 v=64
225220 Off ch=1 n=g4 v=64
225248 On ch=1 n=d4 v=41
225254 Off ch=1 n=a#3 v=64
225324 Off ch=1 n=d4 v=64
225378 On ch=1 n=g4 v=56
225428 Off ch=1 n=g4 v=64
225500 On ch=1 n=g4 v=49
225564 Off ch=1 n=g4 v=64
225584 On ch=1 n=d4 v=65
225584 On ch=1 n=a#4 v=57
225662 Off ch=1 n=a#4 v=64
225672 Off ch=1 n=d4 v=64
225704 On ch=1 n=d5 v=27
225714 On ch=1 n=e4 v=69
225758 Off ch=1 n=e4 v=64
225772 Off ch=1 n=d5 v=64
225800 On ch=1 n=a4 v=59
225814 On ch=1 n=f#4 v=75
225866 Off ch=1 n=a4 v=64
225924 On ch=1 n=d5 v=59
225938 Off ch=1 n=f#4 v=64
225988 Off ch=1 n=d5 v=64
226034 On ch=1 n=g4 v=57
226034 On ch=1 n=a#4 v=70
226036 On ch=1 n=d4 v=49
226036 On ch=1 n=g5 v=52
226038 On ch=1 n=g3 v=54
226110 Off ch=1 n=a#4 v=64
226110 Off ch=1 n=g3 v=64
226144 Off ch=1 n=g5 v=64
226148 On ch=1 n=d5 v=67
226156 Off ch=1 n=g4 v=64
226175 Off ch=1 n=d4 v=64
226202 Off ch=1 n=d5 v=64
226260 On ch=1 n=g5 v=47
226310 Off ch=1 n=g5 v=64
226362 On ch=1 n=g5 v=81
226416 Off ch=1 n=g5 v=64
226482 On ch=1 n=a#5 v=65
226506 On ch=1 n=d5 v=56
226560 Off ch=1 n=d5 v=64
226578 Off ch=1 n=a#5 v=64
226590 On ch=1 n=d6 v=74
226600 On ch=1 n=e5 v=45
226644 Off ch=1 n=d6 v=64
226658 Off ch=1 n=e5 v=64
226692 On ch=1 n=f#5 v=55
226699 On ch=1 n=a5 v=55
226798 Off ch=1 n=a5 v=64
226798 On ch=1 n=d6 v=72
226824 Off ch=1 n=f#5 v=64
226916 On ch=1 n=g4 v=48
226918 On ch=1 n=d5 v=32
226926 On ch=1 n=g5 v=54
226928 On ch=1 n=g6 v=64
226930 On ch=1 n=a#5 v=60
226936 Off ch=1 n=d6 v=64
226972 Off ch=1 n=g4 v=64
226978 Off ch=1 n=a#5 v=64
227020 Off ch=1 n=d5 v=64
227020 On ch=1 n=d6 v=56
227048 Off ch=1 n=g6 v=64
227050 Off ch=1 n=g5 v=64
227094 Off ch=1 n=d6 v=64
227126 On ch=1 n=g6 v=67
227168 Off ch=1 n=g6 v=64
227232 On ch=1 n=g6 v=64
227310 Off ch=1 n=g6 v=64
227364 On ch=1 n=a#6 v=48
227372 On ch=1 n=d6 v=38
227420 Off ch=1 n=a#6 v=64
227430 Off ch=1 n=d6 v=64
227466 On ch=1 n=d7 v=58
227486 On ch=1 n=e6 v=22
227520 Off ch=1 n=d7 v=64
227550 Off ch=1 n=e6 v=64
227578 On ch=1 n=a6 v=37
227582 On ch=1 n=f#6 v=44
227638 Off ch=1 n=a6 v=64
227661 Off ch=1 n=f#6 v=64
227692 On ch=1 n=d7 v=54
227762 Off ch=1 n=d7 v=64
227852 On ch=1 n=a#6 v=52
227854 On ch=1 n=g6 v=33
227854 On ch=1 n=g5 v=30
227856 On ch=1 n=d6 v=29
227857 On ch=1 n=g7 v=31
227916 Off ch=1 n=a#6 v=64
227926 Off ch=1 n=d6 v=64
227930 Off ch=1 n=g6 v=64
227933 Off ch=1 n=g7 v=64
227964 Off ch=1 n=g5 v=64
228430 Par ch=1 c=64 v=127
228502 On ch=1 n=g5 v=12
228508 On ch=1 n=g4 v=22
228634 Off ch=1 n=g5 v=64
228644 Off ch=1 n=g4 v=64
228952 Par ch=1 c=64 v=0
230400 Par ch=1 c=64 v=0
232320 Par ch=1 c=64 v=0
232320 Meta TrkEnd
TrkEnd
