MFile 1 4 384
MTrk
0 SeqSpec 00 00 41
0 TimeSig 4/4 24 8
0 KeySig 0 major
0 Tempo 666666
0 Meta TrkEnd
TrkEnd
MTrk
0 Meta 0x21 00
0 Meta TrkName "Prelude Op 23 No 4"
0 PrCh ch=1 p=0
0 Par ch=1 c=0 v=0
0 Par ch=1 c=91 v=127
384 Par ch=1 c=91 v=127
948 Par ch=1 c=64 v=56
964 Par ch=1 c=64 v=127
1148 On ch=1 n=d3 v=49
1184 Par ch=1 c=67 v=127
1232 On ch=1 n=d3 v=0
1424 On ch=1 n=a4 v=55
1524 On ch=1 n=a4 v=0
1628 On ch=1 n=d5 v=62
1800 On ch=1 n=d5 v=0
1832 On ch=1 n=a5 v=70
1944 On ch=1 n=a5 v=0
2028 On ch=1 n=d5 v=62
2196 On ch=1 n=d5 v=0
2220 On ch=1 n=a4 v=54
2256 On ch=1 n=a4 v=0
2424 On ch=1 n=f#4 v=44
2532 On ch=1 n=f#4 v=0
2644 On ch=1 n=a3 v=46
2696 On ch=1 n=a3 v=0
2840 On ch=1 n=d5 v=53
2880 On ch=1 n=d5 v=0
3132 Par ch=1 c=64 v=104
3144 On ch=1 n=d3 v=62
3144 Par ch=1 c=64 v=40
3160 Par ch=1 c=64 v=0
3208 On ch=1 n=d3 v=0
3224 Par ch=1 c=64 v=88
3236 Par ch=1 c=64 v=127
3388 On ch=1 n=a4 v=54
3492 On ch=1 n=a4 v=0
3580 On ch=1 n=d5 v=57
3752 On ch=1 n=d5 v=0
3776 On ch=1 n=a5 v=63
3888 On ch=1 n=a5 v=0
3964 On ch=1 n=d5 v=57
4124 On ch=1 n=d5 v=0
4148 On ch=1 n=a4 v=52
4212 On ch=1 n=a4 v=0
4376 On ch=1 n=f#4 v=45
4512 On ch=1 n=f#4 v=0
4596 On ch=1 n=a3 v=50
4628 On ch=1 n=a3 v=0
4832 On ch=1 n=d5 v=49
4900 On ch=1 n=d5 v=0
5164 On ch=1 n=f#5 v=83
5236 Par ch=1 c=64 v=56
5248 Par ch=1 c=64 v=0
5340 Par ch=1 c=64 v=56
5352 Par ch=1 c=64 v=127
5364 On ch=1 n=d3 v=52
5392 On ch=1 n=d3 v=0
5568 On ch=1 n=a4 v=46
5684 On ch=1 n=a4 v=0
5776 On ch=1 n=a5 v=59
5952 On ch=1 n=a5 v=0
5968 On ch=1 n=d5 v=54
6124 On ch=1 n=d5 v=0
6176 On ch=1 n=a4 v=39
6256 On ch=1 n=a4 v=0
6336 On ch=1 n=f#5 v=0
6356 On ch=1 n=e5 v=81
6524 Par ch=1 c=64 v=88
6536 Par ch=1 c=64 v=0
6564 Par ch=1 c=67 v=0
6572 On ch=1 n=c#5 v=42
6572 On ch=1 n=a5 v=39
6580 On ch=1 n=g5 v=40
6616 Par ch=1 c=64 v=72
6628 Par ch=1 c=64 v=127
6784 On ch=1 n=a4 v=39
6800 On ch=1 n=a5 v=0
6804 On ch=1 n=c#5 v=0
6816 On ch=1 n=g5 v=0
6840 On ch=1 n=a4 v=0
6996 On ch=1 n=f#5 v=78
7008 On ch=1 n=e5 v=0
7104 Par ch=1 c=64 v=88
7120 Par ch=1 c=64 v=0
7200 Par ch=1 c=64 v=56
7212 On ch=1 n=d4 v=55
7212 Par ch=1 c=64 v=127
7392 On ch=1 n=d4 v=0
7396 On ch=1 n=a4 v=41
7428 On ch=1 n=a4 v=0
7584 On ch=1 n=a5 v=58
7736 On ch=1 n=a5 v=0
7760 On ch=1 n=d5 v=57
7948 On ch=1 n=d5 v=0
7952 On ch=1 n=a4 v=45
8036 On ch=1 n=a4 v=0
8052 On ch=1 n=f#5 v=0
8160 On ch=1 n=b4 v=79
8320 Par ch=1 c=64 v=104
8332 Par ch=1 c=64 v=24
8344 Par ch=1 c=64 v=0
8352 On ch=1 n=a5 v=27
8356 On ch=1 n=d5 v=45
8408 Par ch=1 c=64 v=72
8420 Par ch=1 c=64 v=127
8508 On ch=1 n=a5 v=0
8560 On ch=1 n=d5 v=0
8572 On ch=1 n=a4 v=37
8612 On ch=1 n=a4 v=0
8780 On ch=1 n=c#5 v=84
8780 On ch=1 n=b4 v=0
8888 Par ch=1 c=64 v=104
8900 Par ch=1 c=64 v=0
8992 Par ch=1 c=64 v=72
9004 On ch=1 n=d3 v=55
9004 Par ch=1 c=64 v=127
9176 On ch=1 n=a4 v=49
9176 On ch=1 n=d3 v=0
9216 On ch=1 n=a4 v=0
9392 On ch=1 n=a5 v=49
9392 On ch=1 n=g5 v=41
9568 On ch=1 n=e5 v=59
9664 On ch=1 n=a5 v=0
9668 On ch=1 n=g5 v=0
9700 On ch=1 n=c#5 v=0
9740 On ch=1 n=e5 v=0
9760 On ch=1 n=a4 v=55
9792 On ch=1 n=a4 v=0
9952 On ch=1 n=d5 v=83
10112 Par ch=1 c=64 v=40
10128 Par ch=1 c=64 v=0
10140 On ch=1 n=a5 v=46
10152 On ch=1 n=b4 v=50
10192 Par ch=1 c=64 v=72
10204 Par ch=1 c=64 v=127
10272 On ch=1 n=b4 v=0
10292 On ch=1 n=d5 v=0
10308 On ch=1 n=c#5 v=79
10308 On ch=1 n=a5 v=0
10384 On ch=1 n=c#5 v=0
10400 On ch=1 n=a4 v=67
10480 On ch=1 n=d5 v=88
10512 On ch=1 n=a4 v=0
10608 On ch=1 n=d5 v=0
10640 Par ch=1 c=64 v=104
10644 On ch=1 n=e5 v=85
10656 Par ch=1 c=64 v=0
10836 Par ch=1 c=64 v=127
10844 On ch=1 n=d4 v=65
10984 On ch=1 n=e5 v=0
11004 On ch=1 n=d4 v=0
11012 On ch=1 n=a4 v=58
11064 On ch=1 n=a4 v=0
11224 On ch=1 n=g5 v=53
11224 On ch=1 n=a5 v=54
11388 On ch=1 n=c#5 v=46
11464 On ch=1 n=a5 v=0
11468 On ch=1 n=g5 v=0
11584 On ch=1 n=c#5 v=0
11600 On ch=1 n=a4 v=46
11656 On ch=1 n=a4 v=0
11784 On ch=1 n=f#5 v=85
11856 Par ch=1 c=64 v=56
11868 Par ch=1 c=64 v=0
11920 On ch=1 n=c5 v=66
11936 Par ch=1 c=64 v=88
11948 On ch=1 n=a5 v=46
11948 Par ch=1 c=64 v=127
11952 On ch=1 n=c5 v=0
12040 On ch=1 n=a5 v=0
12048 On ch=1 n=d6 v=62
12072 On ch=1 n=d6 v=0
12240 On ch=1 n=d4 v=65
12264 On ch=1 n=f#5 v=0
12308 On ch=1 n=d4 v=0
12496 On ch=1 n=g5 v=87
12520 On ch=1 n=b4 v=61
12552 Par ch=1 c=64 v=56
12568 Par ch=1 c=64 v=0
12656 Par ch=1 c=64 v=104
12660 On ch=1 n=b4 v=0
12668 Par ch=1 c=64 v=127
12692 On ch=1 n=g5 v=0
12704 On ch=1 n=d3 v=52
12792 On ch=1 n=d3 v=0
12896 On ch=1 n=b4 v=59
12972 On ch=1 n=b4 v=0
13092 On ch=1 n=d6 v=67
13140 On ch=1 n=d6 v=0
13288 On ch=1 n=d5 v=54
13472 On ch=1 n=b4 v=63
13500 On ch=1 n=d5 v=0
13516 On ch=1 n=b4 v=0
13660 On ch=1 n=f#5 v=81
13856 Par ch=1 c=64 v=72
13868 On ch=1 n=a#4 v=44
13868 Par ch=1 c=64 v=0
13932 Par ch=1 c=64 v=88
13948 Par ch=1 c=64 v=127
14060 On ch=1 n=d5 v=71
14084 On ch=1 n=a#4 v=0
14088 On ch=1 n=d5 v=0
14132 On ch=1 n=f#5 v=0
14272 On ch=1 n=g5 v=85
14288 On ch=1 n=b4 v=57
14344 Par ch=1 c=64 v=104
14360 Par ch=1 c=64 v=24
14372 Par ch=1 c=64 v=0
14452 Par ch=1 c=64 v=127
14456 On ch=1 n=b4 v=0
14492 On ch=1 n=d4 v=63
14500 On ch=1 n=g5 v=0
14560 On ch=1 n=d4 v=0
14660 On ch=1 n=b4 v=55
14716 On ch=1 n=b4 v=0
14864 On ch=1 n=d6 v=55
14916 On ch=1 n=d6 v=0
15048 On ch=1 n=d5 v=55
15212 On ch=1 n=d5 v=0
15240 On ch=1 n=b4 v=52
15296 On ch=1 n=b4 v=0
15456 On ch=1 n=d5 v=89
15648 On ch=1 n=d5 v=0
15680 On ch=1 n=g4 v=61
15780 On ch=1 n=g4 v=0
15860 On ch=1 n=f#4 v=58
15908 On ch=1 n=f#4 v=0
15972 On ch=1 n=g4 v=61
16012 On ch=1 n=b4 v=59
16024 Par ch=1 c=64 v=104
16036 Par ch=1 c=64 v=24
16048 Par ch=1 c=64 v=0
16096 On ch=1 n=d3 v=54
16108 On ch=1 n=e5 v=89
16140 Par ch=1 c=64 v=104
16144 On ch=1 n=d3 v=0
16152 Par ch=1 c=64 v=127
16164 On ch=1 n=b4 v=0
16192 On ch=1 n=g4 v=0
16236 On ch=1 n=e5 v=0
16320 On ch=1 n=g4 v=54
16436 On ch=1 n=g4 v=0
16520 On ch=1 n=b4 v=45
16600 On ch=1 n=b4 v=0
16700 On ch=1 n=b5 v=63
16768 On ch=1 n=b5 v=0
16864 On ch=1 n=b4 v=57
17056 On ch=1 n=g4 v=66
17084 On ch=1 n=b4 v=0
17088 On ch=1 n=g4 v=0
17280 On ch=1 n=f#5 v=88
17308 On ch=1 n=c5 v=52
17340 Par ch=1 c=64 v=104
17352 Par ch=1 c=64 v=0
17444 Par ch=1 c=64 v=40
17456 Par ch=1 c=64 v=127
17496 On ch=1 n=d5 v=49
17496 On ch=1 n=a4 v=40
17504 On ch=1 n=c5 v=0
17524 On ch=1 n=a4 v=0
17528 On ch=1 n=d5 v=0
17532 On ch=1 n=f#5 v=0
17624 On ch=1 n=e5 v=83
17708 On ch=1 n=c6 v=71
17732 On ch=1 n=e5 v=0
17752 On ch=1 n=c6 v=0
17800 On ch=1 n=f#5 v=89
17916 On ch=1 n=f#5 v=0
18000 On ch=1 n=g5 v=96
18020 On ch=1 n=b4 v=59
18028 On ch=1 n=d5 v=63
18048 Par ch=1 c=64 v=40
18064 Par ch=1 c=64 v=0
18208 Par ch=1 c=64 v=127
18208 On ch=1 n=b4 v=0
18212 On ch=1 n=d4 v=55
18220 On ch=1 n=g5 v=0
18232 On ch=1 n=d5 v=0
18264 On ch=1 n=d4 v=0
18372 On ch=1 n=b4 v=57
18428 On ch=1 n=b4 v=0
18576 On ch=1 n=d6 v=71
18608 On ch=1 n=d6 v=0
18768 On ch=1 n=d5 v=59
18924 On ch=1 n=d5 v=0
18944 On ch=1 n=b4 v=58
18980 On ch=1 n=b4 v=0
19152 On ch=1 n=g#5 v=92
19156 On ch=1 n=d5 v=49
19156 On ch=1 n=f5 v=58
19256 On ch=1 n=d5 v=0
19272 On ch=1 n=f5 v=0
19344 On ch=1 n=b4 v=59
19528 On ch=1 n=b4 v=0
19544 On ch=1 n=c5 v=49
19572 On ch=1 n=c5 v=0
19576 On ch=1 n=g#5 v=0
19736 On ch=1 n=a4 v=65
19776 On ch=1 n=c#5 v=58
19808 Par ch=1 c=64 v=40
19816 Par ch=1 c=64 v=0
19820 On ch=1 n=f#2 v=45
19836 On ch=1 n=f#5 v=72
19848 On ch=1 n=c#5 v=0
19896 Par ch=1 c=64 v=72
19896 On ch=1 n=f#2 v=0
19900 On ch=1 n=a4 v=0
19908 Par ch=1 c=64 v=127
19924 On ch=1 n=a5 v=98
19928 On ch=1 n=f#5 v=0
20148 On ch=1 n=a4 v=57
20164 On ch=1 n=c#4 v=58
20240 On ch=1 n=a4 v=0
20256 On ch=1 n=c#4 v=0
20312 On ch=1 n=c#5 v=68
20360 On ch=1 n=c#5 v=0
20516 On ch=1 n=c#6 v=79
20568 On ch=1 n=c#6 v=0
20680 On ch=1 n=f#5 v=55
20780 On ch=1 n=f#5 v=0
20880 On ch=1 n=a4 v=63
20912 On ch=1 n=a4 v=0
20940 On ch=1 n=a5 v=0
21072 On ch=1 n=g#5 v=88
21100 On ch=1 n=d5 v=58
21108 On ch=1 n=f5 v=41
21172 Par ch=1 c=64 v=72
21184 Par ch=1 c=64 v=0
21260 On ch=1 n=f5 v=0
21264 Par ch=1 c=64 v=88
21272 On ch=1 n=b4 v=58
21280 Par ch=1 c=64 v=127
21316 On ch=1 n=d5 v=0
21336 On ch=1 n=b4 v=0
21448 On ch=1 n=d6 v=62
21456 On ch=1 n=g#5 v=0
21484 On ch=1 n=d6 v=0
21632 On ch=1 n=a4 v=52
21656 On ch=1 n=c#5 v=54
21732 On ch=1 n=f#5 v=52
21740 On ch=1 n=f#3 v=58
21740 On ch=1 n=c#5 v=0
21756 Par ch=1 c=64 v=56
21756 On ch=1 n=a4 v=0
21768 Par ch=1 c=64 v=0
21788 On ch=1 n=a5 v=88
21808 On ch=1 n=f#5 v=0
21844 Par ch=1 c=64 v=72
21856 Par ch=1 c=64 v=127
21944 On ch=1 n=f#3 v=0
22024 On ch=1 n=a4 v=48
22032 On ch=1 n=a5 v=0
22076 On ch=1 n=a4 v=0
22172 On ch=1 n=f#5 v=55
22312 On ch=1 n=f#5 v=0
22364 On ch=1 n=c#6 v=65
22448 On ch=1 n=c#6 v=0
22536 On ch=1 n=f#5 v=33
22720 On ch=1 n=f#5 v=0
22760 On ch=1 n=a4 v=48
22800 On ch=1 n=a4 v=0
23008 On ch=1 n=d5 v=71
23008 On ch=1 n=a#4 v=42
23120 Par ch=1 c=64 v=72
23136 Par ch=1 c=64 v=0
23200 Par ch=1 c=64 v=72
23212 Par ch=1 c=64 v=127
23276 On ch=1 n=d4 v=54
23300 On ch=1 n=g5 v=83
23404 On ch=1 n=d5 v=0
23552 On ch=1 n=g3 v=54
23596 On ch=1 n=d4 v=0
23636 On ch=1 n=g3 v=0
23680 On ch=1 n=g5 v=0
23744 On ch=1 n=a#4 v=0
23748 On ch=1 n=f#5 v=79
23840 On ch=1 n=f#5 v=0
23944 On ch=1 n=f#5 v=83
23952 On ch=1 n=f#4 v=48
23968 On ch=1 n=d5 v=59
23972 Par ch=1 c=64 v=72
23988 Par ch=1 c=64 v=0
24000 On ch=1 n=d5 v=0
24060 On ch=1 n=d5 v=13
24064 Par ch=1 c=64 v=56
24080 Par ch=1 c=64 v=127
24112 On ch=1 n=f#4 v=0
24128 On ch=1 n=d3 v=57
24160 On ch=1 n=d5 v=0
24200 On ch=1 n=d3 v=0
24332 On ch=1 n=a4 v=50
24428 On ch=1 n=a4 v=0
24536 On ch=1 n=a5 v=62
24652 On ch=1 n=a5 v=0
24708 On ch=1 n=d5 v=59
24856 On ch=1 n=f#5 v=0
24880 On ch=1 n=d5 v=0
24896 On ch=1 n=a4 v=58
24928 On ch=1 n=a4 v=0
25112 On ch=1 n=e5 v=81
25120 On ch=1 n=a#4 v=39
25132 On ch=1 n=c#5 v=33
25160 Par ch=1 c=64 v=72
25176 Par ch=1 c=64 v=0
25224 Par ch=1 c=64 v=56
25240 Par ch=1 c=64 v=127
25252 On ch=1 n=a#4 v=0
25256 On ch=1 n=c#5 v=0
25304 On ch=1 n=e5 v=0
25308 On ch=1 n=a#5 v=57
25392 On ch=1 n=a#5 v=0
25524 On ch=1 n=g4 v=57
25588 On ch=1 n=g4 v=0
25788 On ch=1 n=f#5 v=72
25812 On ch=1 n=a4 v=49
25816 On ch=1 n=d5 v=46
25856 Par ch=1 c=64 v=72
25872 Par ch=1 c=64 v=0
25964 Par ch=1 c=64 v=127
25984 On ch=1 n=a4 v=0
25992 On ch=1 n=d5 v=0
26008 On ch=1 n=d3 v=53
26024 On ch=1 n=f#5 v=0
26076 On ch=1 n=d3 v=0
26212 On ch=1 n=a4 v=52
26308 On ch=1 n=a4 v=0
26420 On ch=1 n=a5 v=63
26560 On ch=1 n=a5 v=0
26604 On ch=1 n=d5 v=54
26808 On ch=1 n=a4 v=54
26820 On ch=1 n=d5 v=0
26848 On ch=1 n=a4 v=0
27048 On ch=1 n=e5 v=81
27052 On ch=1 n=c#5 v=62
27064 On ch=1 n=g4 v=54
27160 Par ch=1 c=64 v=88
27172 Par ch=1 c=64 v=0
27252 Par ch=1 c=64 v=127
27304 On ch=1 n=a#3 v=62
27304 On ch=1 n=g4 v=0
27388 On ch=1 n=a#3 v=0
27420 On ch=1 n=c#5 v=0
27468 On ch=1 n=e5 v=0
27496 On ch=1 n=f#5 v=83
27648 On ch=1 n=f#5 v=0
27768 On ch=1 n=d5 v=78
27784 On ch=1 n=f#4 v=50
27808 On ch=1 n=b4 v=48
27820 Par ch=1 c=64 v=72
27836 Par ch=1 c=64 v=0
27924 Par ch=1 c=64 v=127
27936 On ch=1 n=f#4 v=0
27944 On ch=1 n=b4 v=0
27956 On ch=1 n=b2 v=70
28016 On ch=1 n=d5 v=0
28024 On ch=1 n=b2 v=0
28172 On ch=1 n=f#4 v=67
28320 On ch=1 n=f#4 v=0
28348 On ch=1 n=d5 v=85
28468 On ch=1 n=d5 v=0
28512 On ch=1 n=b4 v=57
28600 On ch=1 n=f#5 v=102
28632 On ch=1 n=b4 v=0
28656 On ch=1 n=f#4 v=66
28716 On ch=1 n=f#4 v=0
28824 On ch=1 n=f#5 v=0
28836 On ch=1 n=f#3 v=72
28892 Par ch=1 c=64 v=72
28904 Par ch=1 c=64 v=0
28916 On ch=1 n=a5 v=110
28916 On ch=1 n=d5 v=80
28916 On ch=1 n=a4 v=58
28924 On ch=1 n=f#3 v=0
28956 Par ch=1 c=64 v=40
28964 On ch=1 n=a4 v=0
28968 Par ch=1 c=64 v=127
29036 On ch=1 n=d5 v=0
29080 On ch=1 n=d4 v=80
29192 On ch=1 n=d6 v=117
29228 On ch=1 n=a5 v=0
29280 On ch=1 n=f#3 v=68
29288 On ch=1 n=d6 v=0
29292 On ch=1 n=d4 v=0
29320 On ch=1 n=f#3 v=0
29524 Par ch=1 c=64 v=88
29536 Par ch=1 c=64 v=0
29544 On ch=1 n=c#6 v=113
29544 On ch=1 n=c#5 v=72
29548 On ch=1 n=e2 v=74
29548 On ch=1 n=d5 v=67
29560 On ch=1 n=a5 v=71
29560 On ch=1 n=e3 v=59
29600 Par ch=1 c=64 v=127
29608 On ch=1 n=e3 v=0
29612 On ch=1 n=e2 v=0
29612 On ch=1 n=d5 v=0
29652 On ch=1 n=c#5 v=0
29672 On ch=1 n=a5 v=0
29764 On ch=1 n=b3 v=75
29832 On ch=1 n=b3 v=0
29948 On ch=1 n=d5 v=83
30100 On ch=1 n=d5 v=0
30152 On ch=1 n=a5 v=80
30240 On ch=1 n=a5 v=0
30320 On ch=1 n=d5 v=83
30396 On ch=1 n=c#6 v=0
30468 On ch=1 n=d5 v=0
30508 On ch=1 n=g4 v=80
30564 On ch=1 n=g4 v=0
30736 On ch=1 n=b5 v=91
30736 On ch=1 n=d5 v=68
30736 On ch=1 n=g5 v=63
30736 On ch=1 n=f#4 v=67
30736 On ch=1 n=b4 v=70
30800 Par ch=1 c=64 v=40
30816 Par ch=1 c=64 v=0
30876 On ch=1 n=f#4 v=0
30900 On ch=1 n=b4 v=0
30908 Par ch=1 c=64 v=104
30912 On ch=1 n=d5 v=0
30920 Par ch=1 c=64 v=127
30932 On ch=1 n=g5 v=0
30956 On ch=1 n=b5 v=0
30976 On ch=1 n=e4 v=65
31196 On ch=1 n=d5 v=66
31236 On ch=1 n=d5 v=0
31268 On ch=1 n=e4 v=0
31456 On ch=1 n=e5 v=85
31472 On ch=1 n=g4 v=49
31484 On ch=1 n=b4 v=31
31484 On ch=1 n=d5 v=27
31536 Par ch=1 c=64 v=0
31652 Par ch=1 c=64 v=88
31656 On ch=1 n=a2 v=70
31668 Par ch=1 c=64 v=127
31692 On ch=1 n=d5 v=0
31696 On ch=1 n=a2 v=0
31752 On ch=1 n=b4 v=0
31764 On ch=1 n=g4 v=0
31876 On ch=1 n=e4 v=70
31920 On ch=1 n=e4 v=0
32048 On ch=1 n=e5 v=0
32080 On ch=1 n=b4 v=71
32236 On ch=1 n=b4 v=0
32264 On ch=1 n=d5 v=72
32396 On ch=1 n=d5 v=0
32448 On ch=1 n=f#5 v=75
32640 On ch=1 n=f#5 v=0
32648 On ch=1 n=a5 v=80
32800 On ch=1 n=a5 v=0
32828 On ch=1 n=g5 v=71
32976 On ch=1 n=g5 v=0
33004 On ch=1 n=f#5 v=74
33120 On ch=1 n=f#5 v=0
33196 On ch=1 n=e5 v=81
33404 On ch=1 n=d5 v=58
33524 On ch=1 n=d5 v=0
33584 On ch=1 n=b4 v=63
33680 On ch=1 n=b4 v=0
33800 On ch=1 n=g4 v=62
33800 On ch=1 n=c#5 v=57
33800 On ch=1 n=a4 v=39
33872 Par ch=1 c=64 v=56
33888 Par ch=1 c=64 v=0
33952 On ch=1 n=a4 v=0
33976 Par ch=1 c=64 v=104
33988 Par ch=1 c=64 v=127
34016 On ch=1 n=f#4 v=62
34148 On ch=1 n=f#4 v=0
34216 On ch=1 n=e4 v=61
34400 On ch=1 n=e4 v=0
34412 On ch=1 n=b3 v=61
34480 Par ch=1 c=64 v=88
34492 Par ch=1 c=64 v=0
34584 Par ch=1 c=64 v=72
34596 Par ch=1 c=64 v=127
34612 On ch=1 n=b3 v=0
34628 On ch=1 n=c#4 v=58
34712 Par ch=1 c=64 v=56
34724 Par ch=1 c=64 v=0
34788 Par ch=1 c=64 v=88
34800 Par ch=1 c=64 v=127
34852 On ch=1 n=c#4 v=0
34872 On ch=1 n=a3 v=58
34908 On ch=1 n=g4 v=0
34940 On ch=1 n=c#5 v=0
34984 Par ch=1 c=64 v=104
34996 Par ch=1 c=64 v=0
35008 Par ch=1 c=64 v=24
35024 Par ch=1 c=64 v=72
35036 Par ch=1 c=64 v=127
35040 On ch=1 n=a3 v=0
35088 On ch=1 n=e5 v=0
35220 On ch=1 n=f#4 v=63
35304 On ch=1 n=d5 v=63
35304 Par ch=1 c=64 v=24
35320 Par ch=1 c=64 v=0
35376 On ch=1 n=d3 v=65
35384 Par ch=1 c=64 v=56
35396 Par ch=1 c=64 v=127
35452 On ch=1 n=d3 v=0
35456 On ch=1 n=f#5 v=87
35476 On ch=1 n=f#4 v=0
35488 On ch=1 n=d5 v=0
35528 On ch=1 n=f#5 v=0
35720 On ch=1 n=d6 v=78
35824 On ch=1 n=a3 v=61
35868 On ch=1 n=d6 v=0
35936 On ch=1 n=c#6 v=76
35984 On ch=1 n=a3 v=0
36076 On ch=1 n=c#6 v=0
36112 On ch=1 n=f#4 v=62
36132 On ch=1 n=b5 v=75
36276 On ch=1 n=b5 v=0
36316 On ch=1 n=a5 v=76
36336 On ch=1 n=f#4 v=0
36376 On ch=1 n=d5 v=53
36448 On ch=1 n=a5 v=0
36508 On ch=1 n=b5 v=76
36532 On ch=1 n=d5 v=0
36596 On ch=1 n=b5 v=0
36716 On ch=1 n=c#6 v=71
36716 On ch=1 n=e5 v=84
36716 On ch=1 n=g4 v=65
36764 Par ch=1 c=64 v=104
36764 On ch=1 n=g4 v=0
36772 Par ch=1 c=64 v=0
36832 On ch=1 n=c#6 v=0
36896 Par ch=1 c=64 v=127
36936 On ch=1 n=b5 v=67
37024 On ch=1 n=a3 v=59
37084 On ch=1 n=b5 v=0
37116 On ch=1 n=c#6 v=68
37116 On ch=1 n=a3 v=0
37176 On ch=1 n=c#6 v=0
37188 On ch=1 n=e5 v=0
37288 On ch=1 n=f#4 v=66
37316 Par ch=1 c=64 v=88
37320 On ch=1 n=d3 v=57
37328 Par ch=1 c=64 v=0
37344 On ch=1 n=d5 v=71
37416 On ch=1 n=f#5 v=88
37416 On ch=1 n=d3 v=0
37420 Par ch=1 c=64 v=127
37440 On ch=1 n=d5 v=0
37448 On ch=1 n=f#4 v=0
37608 On ch=1 n=f#5 v=0
37676 On ch=1 n=d6 v=75
37764 On ch=1 n=d6 v=0
37768 On ch=1 n=a3 v=59
37868 On ch=1 n=c#6 v=75
37924 On ch=1 n=a3 v=0
38004 On ch=1 n=c#6 v=0
38048 On ch=1 n=f#4 v=41
38060 On ch=1 n=b5 v=74
38216 On ch=1 n=b5 v=0
38248 On ch=1 n=a5 v=70
38276 On ch=1 n=f#4 v=0
38332 On ch=1 n=d5 v=44
38404 On ch=1 n=a5 v=0
38420 On ch=1 n=f#5 v=78
38456 On ch=1 n=d5 v=0
38464 On ch=1 n=f#5 v=0
38656 On ch=1 n=f#4 v=59
38668 On ch=1 n=g5 v=70
38668 On ch=1 n=b4 v=80
38708 Par ch=1 c=64 v=56
38724 Par ch=1 c=64 v=0
38788 On ch=1 n=g5 v=0
38800 Par ch=1 c=64 v=56
38812 Par ch=1 c=64 v=127
38888 On ch=1 n=f#5 v=67
38960 On ch=1 n=a3 v=58
38964 On ch=1 n=f#4 v=0
39024 On ch=1 n=a3 v=0
39048 On ch=1 n=f#5 v=0
39092 On ch=1 n=g5 v=66
39128 On ch=1 n=b4 v=0
39264 On ch=1 n=g5 v=0
39312 On ch=1 n=c#5 v=83
39316 Par ch=1 c=64 v=88
39328 Par ch=1 c=64 v=0
39336 On ch=1 n=g4 v=52
39348 On ch=1 n=d3 v=62
39392 Par ch=1 c=64 v=56
39404 Par ch=1 c=64 v=127
39420 On ch=1 n=d3 v=0
39428 On ch=1 n=g4 v=0
39520 On ch=1 n=c#5 v=0
39552 On ch=1 n=a5 v=66
39664 On ch=1 n=a3 v=63
39724 On ch=1 n=a5 v=0
39748 On ch=1 n=g5 v=75
39748 On ch=1 n=a3 v=0
39912 On ch=1 n=g5 v=0
39932 On ch=1 n=e5 v=78
39948 On ch=1 n=g4 v=62
40132 On ch=1 n=g5 v=71
40204 On ch=1 n=c#5 v=41
40260 On ch=1 n=g4 v=0
40284 On ch=1 n=c#5 v=0
40284 On ch=1 n=g5 v=0
40316 On ch=1 n=e5 v=0
40320 On ch=1 n=a5 v=81
40424 On ch=1 n=a5 v=0
40512 On ch=1 n=d5 v=93
40536 On ch=1 n=b5 v=67
40540 On ch=1 n=f#4 v=59
40552 Par ch=1 c=64 v=56
40564 Par ch=1 c=64 v=0
40628 Par ch=1 c=64 v=56
40644 Par ch=1 c=64 v=127
40660 On ch=1 n=b5 v=0
40744 On ch=1 n=a5 v=67
40784 On ch=1 n=a3 v=54
40792 On ch=1 n=f#4 v=0
40824 On ch=1 n=a3 v=0
40828 On ch=1 n=a5 v=0
40864 On ch=1 n=d5 v=0
40928 On ch=1 n=c#5 v=83
40928 On ch=1 n=b5 v=78
40984 On ch=1 n=b5 v=0
41024 On ch=1 n=c#5 v=0
41040 On ch=1 n=d5 v=92
41100 On ch=1 n=d5 v=0
41188 On ch=1 n=d3 v=61
41224 Par ch=1 c=64 v=56
41240 Par ch=1 c=64 v=0
41252 On ch=1 n=e5 v=96
41264 On ch=1 n=g4 v=66
41280 On ch=1 n=c#5 v=58
41356 On ch=1 n=g4 v=0
41376 On ch=1 n=c#5 v=0
41380 Par ch=1 c=64 v=127
41404 On ch=1 n=e5 v=0
41480 On ch=1 n=d3 v=0
41504 On ch=1 n=c#6 v=74
41540 On ch=1 n=a3 v=58
41616 On ch=1 n=a3 v=0
41636 On ch=1 n=c#6 v=0
41676 On ch=1 n=b5 v=85
41808 On ch=1 n=g4 v=62
41832 On ch=1 n=b5 v=0
41868 On ch=1 n=a5 v=81
41992 On ch=1 n=g4 v=0
42028 On ch=1 n=a5 v=0
42044 On ch=1 n=b5 v=89
42112 On ch=1 n=c#5 v=63
42208 On ch=1 n=b5 v=0
42228 On ch=1 n=c#6 v=80
42352 On ch=1 n=c#6 v=0
42368 On ch=1 n=c#5 v=0
42420 On ch=1 n=c5 v=63
42428 On ch=1 n=f#5 v=85
42460 On ch=1 n=d6 v=83
42476 Par ch=1 c=64 v=72
42492 Par ch=1 c=64 v=0
42568 Par ch=1 c=64 v=104
42568 On ch=1 n=d6 v=0
42580 Par ch=1 c=64 v=127
42656 On ch=1 n=c#6 v=72
42728 On ch=1 n=d4 v=50
42760 On ch=1 n=c#6 v=0
42768 On ch=1 n=c5 v=0
42836 On ch=1 n=d4 v=0
42872 On ch=1 n=b5 v=89
42876 On ch=1 n=d6 v=76
42924 On ch=1 n=f#5 v=0
42932 On ch=1 n=d6 v=0
42948 On ch=1 n=b5 v=0
43124 On ch=1 n=g5 v=89
43132 Par ch=1 c=64 v=72
43140 On ch=1 n=d5 v=63
43144 Par ch=1 c=64 v=0
43152 On ch=1 n=b4 v=46
43196 On ch=1 n=d5 v=0
43212 Par ch=1 c=64 v=88
43212 On ch=1 n=b4 v=0
43224 Par ch=1 c=64 v=127
43236 On ch=1 n=g5 v=0
43344 On ch=1 n=e6 v=78
43436 On ch=1 n=d3 v=54
43472 On ch=1 n=e6 v=0
43480 On ch=1 n=d3 v=0
43544 On ch=1 n=d6 v=83
43716 On ch=1 n=d5 v=54
43716 On ch=1 n=d6 v=0
43724 On ch=1 n=b5 v=74
43904 On ch=1 n=b5 v=0
43908 On ch=1 n=c#6 v=78
43988 On ch=1 n=b4 v=42
44100 On ch=1 n=d6 v=93
44132 On ch=1 n=c#6 v=0
44164 On ch=1 n=d6 v=0
44248 On ch=1 n=b4 v=0
44296 On ch=1 n=f#5 v=88
44312 On ch=1 n=a#4 v=44
44312 On ch=1 n=d6 v=84
44312 On ch=1 n=d5 v=0
44336 Par ch=1 c=64 v=104
44348 Par ch=1 c=64 v=0
44424 Par ch=1 c=64 v=104
44424 On ch=1 n=d6 v=0
44440 Par ch=1 c=64 v=127
44496 On ch=1 n=c#6 v=80
44612 On ch=1 n=d5 v=41
44612 On ch=1 n=c#6 v=0
44656 On ch=1 n=d5 v=0
44676 On ch=1 n=a#4 v=0
44692 On ch=1 n=d6 v=91
44724 On ch=1 n=f#5 v=0
44744 On ch=1 n=d6 v=0
44916 On ch=1 n=g5 v=91
44916 Par ch=1 c=64 v=40
44932 On ch=1 n=b4 v=58
44932 Par ch=1 c=64 v=0
44944 On ch=1 n=d5 v=58
44980 Par ch=1 c=64 v=72
44996 Par ch=1 c=64 v=127
45024 On ch=1 n=b4 v=0
45036 On ch=1 n=d5 v=0
45080 On ch=1 n=g5 v=0
45124 On ch=1 n=e6 v=81
45192 On ch=1 n=d3 v=65
45200 On ch=1 n=e6 v=0
45248 On ch=1 n=d3 v=0
45308 On ch=1 n=d6 v=81
45452 On ch=1 n=d6 v=0
45484 On ch=1 n=d5 v=58
45492 On ch=1 n=b5 v=75
45632 On ch=1 n=b5 v=0
45668 On ch=1 n=g5 v=72
45724 On ch=1 n=d5 v=0
45740 On ch=1 n=b4 v=50
45856 On ch=1 n=a5 v=84
45884 On ch=1 n=g5 v=0
45916 On ch=1 n=a5 v=0
45992 On ch=1 n=b4 v=0
46056 On ch=1 n=d5 v=81
46076 On ch=1 n=g4 v=45
46084 On ch=1 n=b5 v=81
46116 Par ch=1 c=64 v=72
46132 Par ch=1 c=64 v=0
46192 On ch=1 n=b5 v=0
46196 Par ch=1 c=64 v=72
46208 Par ch=1 c=64 v=127
46260 On ch=1 n=a5 v=79
46332 On ch=1 n=f#4 v=59
46340 On ch=1 n=a5 v=0
46348 On ch=1 n=g4 v=0
46360 On ch=1 n=d5 v=0
46404 On ch=1 n=f#4 v=0
46428 On ch=1 n=d#5 v=83
46428 On ch=1 n=b5 v=81
46476 On ch=1 n=b5 v=0
46520 On ch=1 n=d#5 v=0
46696 On ch=1 n=e5 v=88
46696 On ch=1 n=g4 v=66
46700 On ch=1 n=b4 v=55
46708 Par ch=1 c=64 v=24
46724 Par ch=1 c=64 v=0
46792 On ch=1 n=b4 v=0
46812 Par ch=1 c=64 v=127
46816 On ch=1 n=g4 v=0
46848 On ch=1 n=e5 v=0
46956 On ch=1 n=c6 v=76
47000 On ch=1 n=d3 v=54
47056 On ch=1 n=d3 v=0
47100 On ch=1 n=c6 v=0
47132 On ch=1 n=b5 v=70
47292 On ch=1 n=b5 v=0
47312 On ch=1 n=g5 v=75
47328 On ch=1 n=b4 v=61
47500 On ch=1 n=a5 v=85
47592 On ch=1 n=b4 v=0
47624 On ch=1 n=a5 v=0
47632 On ch=1 n=g4 v=52
47692 On ch=1 n=b5 v=83
47740 On ch=1 n=g5 v=0
47848 On ch=1 n=b5 v=0
47876 On ch=1 n=f#5 v=89
47876 On ch=1 n=g4 v=0
47896 On ch=1 n=a4 v=59
47900 On ch=1 n=c6 v=83
47912 Par ch=1 c=64 v=104
47924 Par ch=1 c=64 v=24
47936 Par ch=1 c=64 v=0
47976 On ch=1 n=c6 v=0
48004 Par ch=1 c=64 v=56
48016 Par ch=1 c=64 v=127
48084 On ch=1 n=c#6 v=84
48188 On ch=1 n=c#6 v=0
48196 On ch=1 n=d5 v=57
48232 On ch=1 n=d5 v=0
48236 On ch=1 n=a4 v=0
48260 On ch=1 n=f#5 v=0
48276 On ch=1 n=d6 v=97
48300 On ch=1 n=d6 v=0
48480 Par ch=1 c=64 v=104
48492 On ch=1 n=g5 v=97
48492 Par ch=1 c=64 v=0
48496 On ch=1 n=d5 v=66
48500 On ch=1 n=b4 v=70
48544 Par ch=1 c=64 v=56
48544 On ch=1 n=d5 v=0
48556 Par ch=1 c=64 v=127
48564 On ch=1 n=b4 v=0
48584 On ch=1 n=g5 v=0
48688 On ch=1 n=e6 v=97
48752 On ch=1 n=d3 v=62
48784 On ch=1 n=d3 v=0
48808 On ch=1 n=e6 v=0
48876 On ch=1 n=d6 v=96
49028 On ch=1 n=d6 v=0
49032 On ch=1 n=d5 v=55
49048 On ch=1 n=b5 v=89
49212 On ch=1 n=b5 v=0
49220 On ch=1 n=c#6 v=93
49284 On ch=1 n=b4 v=53
49312 On ch=1 n=d5 v=0
49392 On ch=1 n=c#6 v=0
49420 On ch=1 n=d6 v=98
49504 On ch=1 n=d6 v=0
49544 On ch=1 n=b4 v=0
49632 On ch=1 n=g#5 v=98
49648 On ch=1 n=d6 v=92
49652 On ch=1 n=a#4 v=48
49668 Par ch=1 c=64 v=40
49680 Par ch=1 c=64 v=0
49744 Par ch=1 c=64 v=127
49796 On ch=1 n=d6 v=0
49844 On ch=1 n=e6 v=96
49880 On ch=1 n=g#5 v=0
49924 On ch=1 n=e6 v=0
49952 On ch=1 n=d5 v=61
49972 On ch=1 n=g5 v=98
49988 On ch=1 n=a#4 v=0
49992 On ch=1 n=d5 v=0
50052 On ch=1 n=g5 v=0
50092 On ch=1 n=g#5 v=101
50092 On ch=1 n=f6 v=102
50128 On ch=1 n=f6 v=0
50156 On ch=1 n=g#5 v=0
50324 Par ch=1 c=64 v=72
50328 On ch=1 n=a3 v=67
50332 On ch=1 n=f#4 v=83
50332 On ch=1 n=d3 v=66
50336 Par ch=1 c=64 v=0
50400 On ch=1 n=f#4 v=0
50404 On ch=1 n=d5 v=87
50440 Par ch=1 c=64 v=127
50464 On ch=1 n=a3 v=0
50472 On ch=1 n=d3 v=0
50480 On ch=1 n=a5 v=104
50496 On ch=1 n=d5 v=0
50552 On ch=1 n=a5 v=0
50740 On ch=1 n=f#6 v=94
50828 On ch=1 n=a4 v=66
50896 On ch=1 n=f#6 v=0
50940 On ch=1 n=e6 v=96
51044 On ch=1 n=a4 v=0
51092 On ch=1 n=f#5 v=62
51108 On ch=1 n=e6 v=0
51144 On ch=1 n=d6 v=96
51300 On ch=1 n=d6 v=0
51312 On ch=1 n=c#6 v=94
51424 On ch=1 n=a5 v=80
51460 On ch=1 n=c#6 v=0
51488 On ch=1 n=a5 v=0
51508 On ch=1 n=d6 v=102
51508 On ch=1 n=f#5 v=0
51676 On ch=1 n=d6 v=0
51700 On ch=1 n=g5 v=101
51720 On ch=1 n=a#5 v=63
51720 On ch=1 n=c#5 v=50
51732 On ch=1 n=e6 v=84
51744 Par ch=1 c=64 v=88
51756 Par ch=1 c=64 v=0
51820 Par ch=1 c=64 v=40
51836 Par ch=1 c=64 v=127
51848 On ch=1 n=e6 v=0
51912 On ch=1 n=d6 v=89
51924 On ch=1 n=a#5 v=0
51988 On ch=1 n=a#4 v=62
52008 On ch=1 n=c#5 v=0
52032 On ch=1 n=a#4 v=0
52040 On ch=1 n=d6 v=0
52088 On ch=1 n=e6 v=94
52088 On ch=1 n=g5 v=0
52132 On ch=1 n=e6 v=0
52260 Par ch=1 c=64 v=40
52264 On ch=1 n=f#4 v=79
52272 Par ch=1 c=64 v=0
52276 On ch=1 n=a3 v=55
52284 On ch=1 n=d3 v=71
52328 On ch=1 n=d5 v=71
52328 On ch=1 n=f#4 v=0
52340 Par ch=1 c=64 v=127
52360 On ch=1 n=a3 v=0
52360 On ch=1 n=d3 v=0
52392 On ch=1 n=d5 v=0
52400 On ch=1 n=a5 v=100
52584 On ch=1 n=a5 v=0
52636 On ch=1 n=f#6 v=94
52736 On ch=1 n=a4 v=72
52748 On ch=1 n=f#6 v=0
52828 On ch=1 n=e6 v=91
52940 On ch=1 n=a4 v=0
52964 On ch=1 n=e6 v=0
52984 On ch=1 n=f#5 v=52
53008 On ch=1 n=d6 v=84
53176 On ch=1 n=d6 v=0
53188 On ch=1 n=c#6 v=79
53264 On ch=1 n=d5 v=75
53316 On ch=1 n=d5 v=0
53316 On ch=1 n=f#5 v=0
53348 On ch=1 n=c#6 v=0
53364 On ch=1 n=b5 v=89
53420 On ch=1 n=b5 v=0
53636 On ch=1 n=c#6 v=89
53636 On ch=1 n=g5 v=80
53644 On ch=1 n=e5 v=58
53680 Par ch=1 c=64 v=88
53692 Par ch=1 c=64 v=0
53768 Par ch=1 c=64 v=24
53784 Par ch=1 c=64 v=127
53788 On ch=1 n=c#6 v=0
53864 On ch=1 n=g5 v=0
53876 On ch=1 n=d6 v=85
53876 On ch=1 n=f#5 v=79
53928 On ch=1 n=d6 v=0
53932 On ch=1 n=a#4 v=58
53956 On ch=1 n=e5 v=0
54008 On ch=1 n=f#5 v=0
54028 On ch=1 n=a#4 v=0
54104 On ch=1 n=e6 v=79
54104 On ch=1 n=g5 v=83
54128 On ch=1 n=e6 v=0
54180 On ch=1 n=g5 v=0
54332 On ch=1 n=f#4 v=59
54376 On ch=1 n=b4 v=55
54388 Par ch=1 c=64 v=88
54404 On ch=1 n=d5 v=67
54404 On ch=1 n=b2 v=58
54404 Par ch=1 c=64 v=0
54464 On ch=1 n=f#4 v=0
54468 On ch=1 n=f#5 v=87
54476 On ch=1 n=b4 v=0
54488 On ch=1 n=d5 v=0
54508 Par ch=1 c=64 v=127
54512 On ch=1 n=b2 v=0
54540 On ch=1 n=f#5 v=0
54700 On ch=1 n=d6 v=83
54820 On ch=1 n=d6 v=0
54824 On ch=1 n=f#4 v=50
54892 On ch=1 n=c#6 v=81
55028 On ch=1 n=c#6 v=0
55044 On ch=1 n=f#4 v=0
55084 On ch=1 n=d5 v=55
55096 On ch=1 n=b5 v=72
55240 On ch=1 n=b5 v=0
55268 On ch=1 n=a#5 v=71
55276 On ch=1 n=d5 v=0
55364 On ch=1 n=f#5 v=61
55412 On ch=1 n=a#5 v=0
55456 On ch=1 n=b5 v=75
55492 On ch=1 n=f#5 v=0
55576 On ch=1 n=b5 v=0
55672 On ch=1 n=e5 v=76
55680 On ch=1 n=c#6 v=75
55700 On ch=1 n=g5 v=55
55712 On ch=1 n=a#4 v=33
55748 Par ch=1 c=64 v=72
55760 Par ch=1 c=64 v=0
55848 Par ch=1 c=64 v=127
55860 On ch=1 n=c#6 v=0
55864 On ch=1 n=g5 v=0
55908 On ch=1 n=b5 v=66
55968 On ch=1 n=g4 v=57
56000 On ch=1 n=a#4 v=0
56012 On ch=1 n=g4 v=0
56032 On ch=1 n=b5 v=0
56104 On ch=1 n=e5 v=0
56120 On ch=1 n=c#6 v=66
56180 On ch=1 n=c#6 v=0
56308 On ch=1 n=f#4 v=57
56340 Par ch=1 c=64 v=0
56344 On ch=1 n=b2 v=62
56348 On ch=1 n=b4 v=53
56360 On ch=1 n=d5 v=61
56404 Par ch=1 c=64 v=56
56404 On ch=1 n=f#4 v=0
56408 On ch=1 n=f#5 v=80
56408 On ch=1 n=d5 v=0
56408 On ch=1 n=b4 v=0
56416 Par ch=1 c=64 v=127
56428 On ch=1 n=b2 v=0
56464 On ch=1 n=f#5 v=0
56628 On ch=1 n=d6 v=74
56708 On ch=1 n=f#4 v=59
56720 On ch=1 n=d6 v=0
56808 On ch=1 n=c#6 v=71
56932 On ch=1 n=c#6 v=0
56968 On ch=1 n=f#4 v=0
56992 On ch=1 n=d5 v=66
57004 On ch=1 n=b5 v=66
57152 On ch=1 n=b5 v=0
57176 On ch=1 n=a#5 v=74
57268 On ch=1 n=b4 v=48
57276 On ch=1 n=d5 v=0
57312 On ch=1 n=a#5 v=0
57340 On ch=1 n=b4 v=0
57376 On ch=1 n=b5 v=74
57448 On ch=1 n=b5 v=0
57600 On ch=1 n=d#5 v=83
57604 On ch=1 n=c6 v=78
57616 Par ch=1 c=64 v=72
57632 Par ch=1 c=64 v=0
57636 On ch=1 n=a4 v=59
57696 Par ch=1 c=64 v=56
57696 On ch=1 n=a4 v=0
57708 Par ch=1 c=64 v=127
57724 On ch=1 n=c6 v=0
57796 On ch=1 n=d#5 v=0
57816 On ch=1 n=b5 v=72
57908 On ch=1 n=f#3 v=49
57924 On ch=1 n=b5 v=0
57968 On ch=1 n=d5 v=87
57972 On ch=1 n=f#3 v=0
58056 On ch=1 n=d5 v=0
58100 On ch=1 n=d#5 v=79
58108 On ch=1 n=c6 v=65
58156 On ch=1 n=c6 v=0
58168 On ch=1 n=d#5 v=0
58328 On ch=1 n=g2 v=59
58376 Par ch=1 c=64 v=24
58392 Par ch=1 c=64 v=0
58400 On ch=1 n=d5 v=81
58404 On ch=1 n=d4 v=52
58408 On ch=1 n=a#4 v=55
58424 On ch=1 n=g4 v=53
58484 On ch=1 n=g4 v=0
58492 On ch=1 n=d4 v=0
58492 On ch=1 n=g2 v=0
58496 Par ch=1 c=64 v=88
58508 Par ch=1 c=64 v=127
58516 On ch=1 n=a#4 v=0
58540 On ch=1 n=d5 v=0
58660 On ch=1 n=a#5 v=63
58768 On ch=1 n=a#5 v=0
58796 On ch=1 n=d4 v=61
58848 On ch=1 n=g5 v=74
58952 On ch=1 n=d4 v=0
58992 On ch=1 n=g5 v=0
59024 On ch=1 n=d5 v=93
59224 On ch=1 n=c5 v=68
59316 On ch=1 n=g5 v=96
59392 On ch=1 n=c5 v=0
59416 On ch=1 n=a#4 v=61
59476 On ch=1 n=a#4 v=0
59580 On ch=1 n=a#5 v=100
59592 On ch=1 n=g4 v=58
59608 On ch=1 n=g5 v=0
59708 On ch=1 n=g4 v=0
59752 On ch=1 n=d4 v=72
59792 On ch=1 n=a#5 v=0
59856 On ch=1 n=d6 v=115
59948 On ch=1 n=g3 v=71
59956 On ch=1 n=d4 v=0
59992 On ch=1 n=d5 v=0
60028 On ch=1 n=g3 v=0
60064 On ch=1 n=d6 v=0
60184 Par ch=1 c=64 v=24
60192 On ch=1 n=c6 v=110
60196 Par ch=1 c=64 v=0
60204 On ch=1 n=c5 v=72
60208 On ch=1 n=d5 v=75
60212 On ch=1 n=a5 v=81
60212 On ch=1 n=e2 v=70
60212 On ch=1 n=e3 v=66
60264 Par ch=1 c=64 v=127
60288 On ch=1 n=e2 v=0
60300 On ch=1 n=a5 v=0
60300 On ch=1 n=e3 v=0
60324 On ch=1 n=c5 v=0
60324 On ch=1 n=d5 v=0
60332 On ch=1 n=c6 v=0
60452 On ch=1 n=d6 v=81
60544 On ch=1 n=d4 v=70
60604 On ch=1 n=d4 v=0
60632 On ch=1 n=f#6 v=80
60768 On ch=1 n=f#6 v=0
60816 On ch=1 n=g4 v=68
60816 On ch=1 n=g6 v=96
60980 On ch=1 n=g6 v=0
61008 On ch=1 n=a6 v=79
61072 On ch=1 n=g4 v=0
61092 On ch=1 n=d5 v=68
61156 On ch=1 n=d5 v=0
61176 On ch=1 n=a6 v=0
61200 On ch=1 n=g6 v=89
61224 On ch=1 n=d6 v=0
61260 On ch=1 n=g6 v=0
61412 On ch=1 n=a#5 v=94
61412 Par ch=1 c=64 v=104
61416 On ch=1 n=g5 v=72
61420 Par ch=1 c=64 v=127
61428 On ch=1 n=a#4 v=70
61468 On ch=1 n=a#5 v=0
61484 On ch=1 n=g5 v=0
61536 On ch=1 n=a#4 v=0
61620 On ch=1 n=d6 v=76
61724 On ch=1 n=e4 v=63
61756 On ch=1 n=d6 v=0
61776 On ch=1 n=e4 v=0
61844 On ch=1 n=d5 v=84
61900 On ch=1 n=d5 v=0
62120 Par ch=1 c=64 v=72
62128 On ch=1 n=e5 v=92
62132 On ch=1 n=a2 v=68
62132 Par ch=1 c=64 v=0
62136 On ch=1 n=g4 v=58
62136 On ch=1 n=d5 v=39
62136 On ch=1 n=a#4 v=36
62188 On ch=1 n=d5 v=0
62200 On ch=1 n=g4 v=0
62212 Par ch=1 c=64 v=88
62212 On ch=1 n=a#4 v=0
62224 Par ch=1 c=64 v=127
62236 On ch=1 n=a2 v=0
62260 On ch=1 n=e5 v=0
62380 On ch=1 n=d6 v=81
62484 On ch=1 n=e4 v=66
62508 On ch=1 n=d6 v=0
62584 On ch=1 n=a#5 v=79
62628 On ch=1 n=e4 v=0
62724 On ch=1 n=a#5 v=0
62756 On ch=1 n=a5 v=78
62764 On ch=1 n=g4 v=66
62872 On ch=1 n=g4 v=0
62916 On ch=1 n=a5 v=0
62948 On ch=1 n=g5 v=78
63044 On ch=1 n=e5 v=75
63100 On ch=1 n=g5 v=0
63132 On ch=1 n=a5 v=76
63228 On ch=1 n=a5 v=0
63300 On ch=1 n=e5 v=0
63320 On ch=1 n=d5 v=74
63324 On ch=1 n=a#5 v=71
63360 Par ch=1 c=64 v=104
63372 Par ch=1 c=64 v=24
63384 Par ch=1 c=64 v=0
63412 Par ch=1 c=64 v=72
63424 Par ch=1 c=64 v=127
63492 On ch=1 n=a#5 v=0
63504 On ch=1 n=g5 v=72
63532 On ch=1 n=d5 v=0
63652 On ch=1 n=g5 v=0
63688 On ch=1 n=e5 v=70
63860 On ch=1 n=e5 v=0
63876 On ch=1 n=d5 v=74
64004 On ch=1 n=d5 v=0
64076 On ch=1 n=e5 v=75
64196 On ch=1 n=e5 v=0
64264 On ch=1 n=d5 v=71
64392 On ch=1 n=d5 v=0
64496 On ch=1 n=c#5 v=71
64508 On ch=1 n=g4 v=67
64532 Par ch=1 c=64 v=104
64544 Par ch=1 c=64 v=24
64560 Par ch=1 c=64 v=0
64624 Par ch=1 c=64 v=56
64636 Par ch=1 c=64 v=127
64692 On ch=1 n=a4 v=62
64772 On ch=1 n=a4 v=0
64876 On ch=1 n=f#4 v=59
65036 On ch=1 n=f#4 v=0
65092 On ch=1 n=e4 v=57
65176 On ch=1 n=e4 v=0
65296 On ch=1 n=a3 v=58
65424 On ch=1 n=c#5 v=0
65456 On ch=1 n=d5 v=74
65472 On ch=1 n=a3 v=0
65580 On ch=1 n=a2 v=58
65628 On ch=1 n=a2 v=0
65640 On ch=1 n=d5 v=0
65808 On ch=1 n=g4 v=0
65820 On ch=1 n=d5 v=70
65832 On ch=1 n=f#4 v=48
65860 On ch=1 n=d3 v=54
65868 Par ch=1 c=64 v=104
65880 Par ch=1 c=64 v=24
65896 Par ch=1 c=64 v=0
66000 Par ch=1 c=64 v=104
66008 On ch=1 n=f#4 v=0
66012 Par ch=1 c=64 v=127
66040 On ch=1 n=d3 v=0
66044 On ch=1 n=d5 v=0
66096 On ch=1 n=a3 v=58
66196 On ch=1 n=a3 v=0
66204 On ch=1 n=f#5 v=79
66304 On ch=1 n=f#4 v=53
66344 On ch=1 n=f#4 v=0
66484 On ch=1 n=a4 v=52
66604 On ch=1 n=a4 v=0
66672 On ch=1 n=b4 v=45
66764 On ch=1 n=e5 v=79
66768 On ch=1 n=f#5 v=0
66816 On ch=1 n=b4 v=0
66860 On ch=1 n=c#5 v=61
67024 On ch=1 n=c#5 v=0
67048 On ch=1 n=e5 v=0
67052 On ch=1 n=f#5 v=75
67052 On ch=1 n=d5 v=59
67108 Par ch=1 c=64 v=88
67120 Par ch=1 c=64 v=0
67156 On ch=1 n=d5 v=0
67176 Par ch=1 c=64 v=40
67188 Par ch=1 c=64 v=127
67248 On ch=1 n=a4 v=48
67324 On ch=1 n=b4 v=71
67324 On ch=1 n=f#5 v=0
67360 On ch=1 n=a4 v=0
67440 On ch=1 n=g4 v=59
67572 On ch=1 n=b4 v=0
67596 On ch=1 n=c#5 v=74
67616 On ch=1 n=f#4 v=62
67616 On ch=1 n=g4 v=0
67724 On ch=1 n=f#4 v=0
67788 On ch=1 n=e4 v=54
67844 On ch=1 n=c#5 v=0
67864 On ch=1 n=d5 v=87
67924 On ch=1 n=e4 v=0
67964 On ch=1 n=d4 v=68
68080 On ch=1 n=d4 v=0
68100 On ch=1 n=f#5 v=88
68112 On ch=1 n=b3 v=55
68272 On ch=1 n=a3 v=70
68284 On ch=1 n=b3 v=0
68300 On ch=1 n=a3 v=0
68324 On ch=1 n=f#5 v=0
68324 On ch=1 n=d5 v=0
68356 On ch=1 n=a5 v=94
68496 On ch=1 n=f#3 v=48
68516 On ch=1 n=a5 v=0
68588 On ch=1 n=b5 v=94
68588 On ch=1 n=d5 v=71
68652 On ch=1 n=d5 v=0
68704 On ch=1 n=b5 v=0
68704 On ch=1 n=f#3 v=0
68724 On ch=1 n=d3 v=57
68848 On ch=1 n=c#6 v=98
68860 On ch=1 n=e5 v=61
68896 On ch=1 n=d3 v=0
68972 On ch=1 n=e5 v=0
68976 On ch=1 n=c#3 v=57
69044 On ch=1 n=c#6 v=0
69116 On ch=1 n=c#3 v=0
69200 On ch=1 n=d6 v=92
69216 On ch=1 n=b2 v=62
69216 On ch=1 n=d5 v=46
69216 On ch=1 n=b5 v=46
69240 Par ch=1 c=64 v=72
69252 Par ch=1 c=64 v=0
69364 On ch=1 n=d5 v=0
69368 Par ch=1 c=64 v=127
69368 On ch=1 n=b2 v=0
69400 On ch=1 n=b5 v=0
69408 On ch=1 n=d6 v=0
69484 On ch=1 n=f#4 v=53
69580 On ch=1 n=f#6 v=67
69608 On ch=1 n=f#4 v=0
69748 On ch=1 n=b4 v=54
69836 On ch=1 n=f#6 v=0
69884 On ch=1 n=b4 v=0
69912 On ch=1 n=f#5 v=52
70056 On ch=1 n=f#5 v=0
70068 On ch=1 n=b4 v=42
70132 On ch=1 n=c#6 v=88
70160 On ch=1 n=e5 v=52
70232 On ch=1 n=f#4 v=46
70240 On ch=1 n=b4 v=0
70300 On ch=1 n=f#4 v=0
70304 On ch=1 n=e5 v=0
70320 On ch=1 n=c#6 v=0
70404 On ch=1 n=d6 v=94
70416 On ch=1 n=f#5 v=59
70468 On ch=1 n=d6 v=0
70488 On ch=1 n=f#5 v=0
70516 On ch=1 n=f#4 v=54
70632 On ch=1 n=e5 v=94
70636 On ch=1 n=c#5 v=61
70664 On ch=1 n=f#4 v=0
70704 On ch=1 n=c#5 v=0
70768 On ch=1 n=b3 v=58
70824 On ch=1 n=e5 v=0
70856 On ch=1 n=b3 v=0
70920 On ch=1 n=f#4 v=53
70944 On ch=1 n=f#5 v=79
70964 On ch=1 n=d5 v=50
70996 Par ch=1 c=64 v=24
71008 Par ch=1 c=64 v=0
71088 Par ch=1 c=64 v=104
71092 On ch=1 n=d5 v=0
71092 On ch=1 n=f#5 v=0
71100 Par ch=1 c=64 v=127
71100 On ch=1 n=f#4 v=0
71136 On ch=1 n=b4 v=40
71240 On ch=1 n=c#6 v=100
71260 On ch=1 n=e5 v=55
71292 On ch=1 n=e5 v=0
71292 On ch=1 n=b4 v=0
71364 On ch=1 n=c#6 v=0
71376 On ch=1 n=f#5 v=66
71464 On ch=1 n=f#5 v=0
71472 On ch=1 n=c#6 v=101
71496 On ch=1 n=e5 v=66
71600 On ch=1 n=b4 v=62
71624 On ch=1 n=c#6 v=0
71648 On ch=1 n=e5 v=0
71700 On ch=1 n=d6 v=106
71728 On ch=1 n=b5 v=54
71788 On ch=1 n=b4 v=0
71812 On ch=1 n=f#4 v=59
71812 On ch=1 n=b5 v=0
71908 On ch=1 n=f#4 v=0
71976 On ch=1 n=e4 v=59
72004 Par ch=1 c=64 v=72
72016 Par ch=1 c=64 v=0
72072 On ch=1 n=d5 v=68
72072 On ch=1 n=d6 v=0
72096 Par ch=1 c=64 v=72
72108 Par ch=1 c=64 v=127
72140 On ch=1 n=d5 v=0
72172 On ch=1 n=g#5 v=66
72244 On ch=1 n=b4 v=58
72280 On ch=1 n=e6 v=92
72280 On ch=1 n=g#5 v=0
72360 On ch=1 n=e6 v=0
72380 On ch=1 n=e4 v=0
72404 On ch=1 n=e5 v=70
72440 On ch=1 n=b4 v=0
72484 On ch=1 n=e5 v=0
72564 On ch=1 n=c#5 v=71
72636 Par ch=1 c=64 v=88
72648 Par ch=1 c=64 v=0
72672 On ch=1 n=a5 v=67
72704 On ch=1 n=a2 v=59
72708 On ch=1 n=c#5 v=0
72716 Par ch=1 c=64 v=56
72728 Par ch=1 c=64 v=127
72744 On ch=1 n=a5 v=0
72764 On ch=1 n=c#6 v=74
72820 On ch=1 n=c#6 v=0
72872 On ch=1 n=a2 v=0
72936 On ch=1 n=a6 v=94
73112 On ch=1 n=a6 v=0
73140 On ch=1 n=e4 v=68
73260 On ch=1 n=e4 v=0
73320 On ch=1 n=a4 v=53
73452 On ch=1 n=a4 v=0
73476 On ch=1 n=e5 v=54
73544 On ch=1 n=e5 v=0
73604 On ch=1 n=a4 v=54
73692 On ch=1 n=b5 v=80
73692 On ch=1 n=d5 v=65
73744 On ch=1 n=a4 v=0
73784 On ch=1 n=b5 v=0
73816 On ch=1 n=e4 v=66
73868 On ch=1 n=d5 v=0
73892 On ch=1 n=e4 v=0
73944 On ch=1 n=c#6 v=96
73944 On ch=1 n=e5 v=58
74016 On ch=1 n=c#6 v=0
74028 On ch=1 n=e5 v=0
74076 On ch=1 n=e4 v=58
74160 On ch=1 n=e4 v=0
74180 On ch=1 n=d5 v=83
74200 On ch=1 n=b4 v=55
74244 On ch=1 n=b4 v=0
74328 On ch=1 n=a3 v=66
74344 On ch=1 n=d5 v=0
74484 On ch=1 n=e4 v=57
74484 On ch=1 n=c#5 v=55
74484 On ch=1 n=e5 v=80
74520 Par ch=1 c=64 v=72
74532 Par ch=1 c=64 v=0
74620 On ch=1 n=e5 v=0
74636 Par ch=1 c=64 v=127
74652 On ch=1 n=c#5 v=0
74724 On ch=1 n=e4 v=0
74768 On ch=1 n=a3 v=0
74820 On ch=1 n=b5 v=96
74820 On ch=1 n=d5 v=58
74880 On ch=1 n=b5 v=0
74904 On ch=1 n=d5 v=0
74932 On ch=1 n=e5 v=54
74996 On ch=1 n=e5 v=0
75044 On ch=1 n=c#6 v=104
75060 On ch=1 n=e5 v=68
75092 On ch=1 n=e5 v=0
75132 On ch=1 n=a4 v=42
75160 On ch=1 n=c#6 v=0
75268 On ch=1 n=d6 v=98
75268 On ch=1 n=a4 v=0
75280 On ch=1 n=b5 v=79
75312 On ch=1 n=b5 v=0
75360 On ch=1 n=d6 v=0
75400 On ch=1 n=e4 v=58
75484 On ch=1 n=e4 v=0
75504 On ch=1 n=d6 v=96
75508 On ch=1 n=e4 v=59
75508 On ch=1 n=b5 v=58
75540 On ch=1 n=b5 v=0
75656 On ch=1 n=a3 v=58
75656 On ch=1 n=e4 v=0
75668 On ch=1 n=d6 v=0
75740 On ch=1 n=a3 v=0
75784 On ch=1 n=e6 v=94
75784 On ch=1 n=c#6 v=58
75828 On ch=1 n=c#6 v=0
75860 On ch=1 n=e6 v=0
75896 On ch=1 n=e3 v=58
75972 On ch=1 n=e3 v=0
76188 On ch=1 n=c6 v=83
76200 On ch=1 n=a5 v=54
76200 On ch=1 n=c5 v=52
76216 On ch=1 n=a2 v=55
76236 Par ch=1 c=64 v=24
76248 Par ch=1 c=64 v=0
76316 On ch=1 n=a2 v=0
76340 Par ch=1 c=64 v=104
76340 On ch=1 n=a5 v=0
76348 On ch=1 n=c5 v=0
76356 Par ch=1 c=64 v=127
76396 On ch=1 n=c6 v=0
76444 On ch=1 n=e4 v=58
76560 On ch=1 n=e4 v=0
76600 On ch=1 n=e6 v=62
76716 On ch=1 n=a4 v=58
76804 On ch=1 n=e6 v=0
76852 On ch=1 n=a4 v=0
76896 On ch=1 n=e5 v=58
76944 On ch=1 n=e5 v=0
77020 On ch=1 n=a4 v=54
77132 On ch=1 n=b5 v=80
77132 On ch=1 n=d5 v=55
77192 On ch=1 n=a4 v=0
77228 On ch=1 n=e4 v=52
77252 On ch=1 n=b5 v=0
77280 On ch=1 n=e4 v=0
77308 On ch=1 n=d5 v=0
77368 On ch=1 n=c6 v=93
77368 On ch=1 n=e5 v=66
77416 On ch=1 n=e5 v=0
77424 On ch=1 n=c6 v=0
77496 On ch=1 n=e4 v=59
77600 On ch=1 n=d5 v=83
77600 On ch=1 n=b4 v=59
77620 On ch=1 n=e4 v=0
77692 On ch=1 n=b4 v=0
77716 On ch=1 n=a3 v=59
77772 On ch=1 n=d5 v=0
77888 On ch=1 n=e5 v=78
77900 On ch=1 n=c5 v=59
77916 Par ch=1 c=64 v=72
77920 On ch=1 n=e4 v=53
77928 Par ch=1 c=64 v=0
78020 Par ch=1 c=64 v=127
78020 On ch=1 n=c5 v=0
78024 On ch=1 n=e5 v=0
78072 On ch=1 n=a3 v=0
78092 On ch=1 n=e4 v=0
78112 On ch=1 n=a4 v=54
78168 On ch=1 n=a4 v=0
78204 On ch=1 n=b5 v=93
78220 On ch=1 n=d5 v=54
78276 On ch=1 n=b5 v=0
78280 On ch=1 n=d5 v=0
78300 On ch=1 n=e5 v=58
78364 On ch=1 n=e5 v=0
78436 On ch=1 n=c6 v=102
78436 On ch=1 n=e5 v=59
78556 On ch=1 n=a4 v=58
78612 On ch=1 n=c6 v=0
78632 On ch=1 n=e5 v=0
78676 On ch=1 n=d6 v=106
78676 On ch=1 n=b5 v=85
78720 On ch=1 n=a4 v=0
78736 On ch=1 n=b5 v=0
78772 On ch=1 n=d6 v=0
78800 On ch=1 n=e4 v=54
78868 On ch=1 n=e4 v=0
78928 On ch=1 n=c5 v=62
78936 On ch=1 n=e6 v=106
78944 On ch=1 n=e5 v=70
78944 On ch=1 n=c6 v=65
78944 On ch=1 n=g5 v=70
78948 Par ch=1 c=64 v=104
78960 Par ch=1 c=64 v=24
78972 Par ch=1 c=64 v=0
78984 On ch=1 n=c6 v=0
79012 Par ch=1 c=64 v=40
79012 On ch=1 n=g5 v=0
79016 On ch=1 n=e5 v=0
79024 Par ch=1 c=64 v=127
79052 On ch=1 n=e6 v=0
79088 On ch=1 n=e4 v=62
79088 On ch=1 n=c5 v=0
79220 On ch=1 n=f#6 v=96
79232 On ch=1 n=a5 v=53
79232 On ch=1 n=c6 v=54
79232 On ch=1 n=f#5 v=53
79280 On ch=1 n=e4 v=0
79284 On ch=1 n=a5 v=0
79292 On ch=1 n=a3 v=57
79296 On ch=1 n=c6 v=0
79308 On ch=1 n=f#5 v=0
79344 On ch=1 n=a3 v=0
79348 On ch=1 n=f#6 v=0
79492 On ch=1 n=g5 v=65
79528 Par ch=1 c=64 v=88
79540 Par ch=1 c=64 v=0
79552 On ch=1 n=b5 v=70
79564 On ch=1 n=e2 v=62
79604 On ch=1 n=e2 v=0
79604 On ch=1 n=g5 v=0
79620 Par ch=1 c=64 v=104
79628 On ch=1 n=b5 v=0
79632 Par ch=1 c=64 v=127
79656 On ch=1 n=e6 v=72
79704 On ch=1 n=e6 v=0
79804 On ch=1 n=b3 v=62
79856 On ch=1 n=b6 v=97
80060 On ch=1 n=b3 v=0
80128 On ch=1 n=g4 v=52
80224 On ch=1 n=g4 v=0
80296 On ch=1 n=b4 v=58
80396 On ch=1 n=b4 v=0
80456 On ch=1 n=e5 v=67
80456 On ch=1 n=b6 v=0
80496 On ch=1 n=e5 v=0
80592 On ch=1 n=b4 v=53
80704 On ch=1 n=a5 v=81
80704 On ch=1 n=f#5 v=61
80704 On ch=1 n=b4 v=0
80768 On ch=1 n=f#5 v=0
80816 On ch=1 n=g4 v=54
80836 On ch=1 n=a5 v=0
80876 On ch=1 n=g4 v=0
80932 On ch=1 n=g5 v=66
80932 On ch=1 n=b5 v=84
81000 On ch=1 n=g5 v=0
81032 On ch=1 n=b5 v=0
81048 On ch=1 n=b4 v=35
81164 On ch=1 n=f#5 v=78
81164 On ch=1 n=a4 v=62
81164 On ch=1 n=b4 v=0
81260 On ch=1 n=a4 v=0
81292 On ch=1 n=e3 v=59
81296 On ch=1 n=f#5 v=0
81428 On ch=1 n=g5 v=81
81428 On ch=1 n=b4 v=57
81440 Par ch=1 c=64 v=56
81444 On ch=1 n=b3 v=54
81452 Par ch=1 c=64 v=0
81488 On ch=1 n=b4 v=0
81516 Par ch=1 c=64 v=72
81528 Par ch=1 c=64 v=127
81544 On ch=1 n=b3 v=0
81560 On ch=1 n=e3 v=0
81600 On ch=1 n=e4 v=55
81624 On ch=1 n=g5 v=0
81648 On ch=1 n=e4 v=0
81676 On ch=1 n=a5 v=89
81676 On ch=1 n=f#5 v=54
81728 On ch=1 n=f#5 v=0
81760 On ch=1 n=a5 v=0
81792 On ch=1 n=b4 v=61
81896 On ch=1 n=f#5 v=66
81900 On ch=1 n=a5 v=91
81960 On ch=1 n=f#5 v=0
81976 On ch=1 n=a5 v=0
82020 On ch=1 n=e4 v=62
82052 On ch=1 n=b4 v=0
82124 On ch=1 n=b5 v=88
82124 On ch=1 n=g5 v=65
82212 On ch=1 n=e4 v=0
82216 On ch=1 n=b4 v=61
82296 On ch=1 n=b5 v=0
82380 On ch=1 n=b4 v=0
82388 On ch=1 n=c6 v=91
82388 On ch=1 n=a5 v=54
82408 On ch=1 n=e5 v=58
82408 Par ch=1 c=64 v=104
82420 Par ch=1 c=64 v=0
82424 On ch=1 n=g5 v=0
82468 On ch=1 n=a5 v=0
82508 Par ch=1 c=64 v=104
82524 Par ch=1 c=64 v=127
82548 On ch=1 n=e5 v=0
82576 On ch=1 n=d#5 v=57
82600 On ch=1 n=c6 v=0
82672 On ch=1 n=d6 v=94
82688 On ch=1 n=b5 v=61
82720 On ch=1 n=d#5 v=0
82740 On ch=1 n=b5 v=0
82740 On ch=1 n=d6 v=0
82792 On ch=1 n=d5 v=55
82844 On ch=1 n=d5 v=0
82920 On ch=1 n=g2 v=52
83016 On ch=1 n=g2 v=0
83024 Par ch=1 c=64 v=104
83032 On ch=1 n=b5 v=83
83032 On ch=1 n=b4 v=58
83032 On ch=1 n=g5 v=59
83040 Par ch=1 c=64 v=0
83048 On ch=1 n=d4 v=55
83100 On ch=1 n=b4 v=0
83112 On ch=1 n=g5 v=0
83116 Par ch=1 c=64 v=72
83124 On ch=1 n=d4 v=0
83128 Par ch=1 c=64 v=127
83152 On ch=1 n=b5 v=0
83268 On ch=1 n=d4 v=59
83388 On ch=1 n=d6 v=54
83416 On ch=1 n=d4 v=0
83504 On ch=1 n=g4 v=59
83648 On ch=1 n=g4 v=0
83652 On ch=1 n=d6 v=0
83688 On ch=1 n=d5 v=62
83780 On ch=1 n=d5 v=0
83828 On ch=1 n=g4 v=57
83928 On ch=1 n=a5 v=76
83928 On ch=1 n=f#5 v=62
84036 On ch=1 n=d4 v=58
84040 On ch=1 n=g4 v=0
84072 On ch=1 n=f#5 v=0
84076 On ch=1 n=d4 v=0
84096 On ch=1 n=a5 v=0
84168 On ch=1 n=b5 v=83
84168 On ch=1 n=g5 v=49
84200 On ch=1 n=g5 v=0
84228 On ch=1 n=b5 v=0
84284 On ch=1 n=d4 v=62
84396 On ch=1 n=d4 v=0
84412 On ch=1 n=c5 v=72
84412 On ch=1 n=a4 v=52
84452 On ch=1 n=a4 v=0
84556 On ch=1 n=g3 v=61
84616 On ch=1 n=c5 v=0
84700 On ch=1 n=d5 v=72
84700 On ch=1 n=b4 v=52
84700 On ch=1 n=d4 v=54
84720 Par ch=1 c=64 v=104
84728 On ch=1 n=g3 v=0
84732 Par ch=1 c=64 v=24
84744 Par ch=1 c=64 v=0
84800 On ch=1 n=b4 v=0
84808 Par ch=1 c=64 v=72
84816 On ch=1 n=d5 v=0
84820 Par ch=1 c=64 v=127
84856 On ch=1 n=g4 v=61
84892 On ch=1 n=d4 v=0
84916 On ch=1 n=g4 v=0
84988 On ch=1 n=f#5 v=59
84988 On ch=1 n=a5 v=83
85080 On ch=1 n=f#5 v=0
85108 On ch=1 n=d5 v=59
85144 On ch=1 n=a5 v=0
85232 On ch=1 n=b5 v=81
85244 On ch=1 n=g5 v=75
85360 On ch=1 n=g4 v=59
85364 On ch=1 n=d5 v=0
85368 On ch=1 n=b5 v=0
85408 On ch=1 n=g5 v=0
85468 On ch=1 n=a5 v=94
85468 On ch=1 n=f#5 v=66
85560 On ch=1 n=d4 v=62
85572 On ch=1 n=f#5 v=0
85572 On ch=1 n=g4 v=0
85656 On ch=1 n=d4 v=0
85664 On ch=1 n=a5 v=0
85704 On ch=1 n=b5 v=88
85704 On ch=1 n=d4 v=61
85704 On ch=1 n=g5 v=71
85760 On ch=1 n=g5 v=0
85772 On ch=1 n=b5 v=0
85804 On ch=1 n=d4 v=0
85872 On ch=1 n=g3 v=59
85948 On ch=1 n=c6 v=97
85956 On ch=1 n=a5 v=80
86012 On ch=1 n=a5 v=0
86016 On ch=1 n=g3 v=0
86072 On ch=1 n=d3 v=58
86096 On ch=1 n=c6 v=0
86124 On ch=1 n=d3 v=0
86248 On ch=1 n=d6 v=89
86248 On ch=1 n=a#5 v=58
86248 On ch=1 n=g3 v=57
86248 On ch=1 n=g2 v=68
86248 On ch=1 n=d5 v=57
86252 Par ch=1 c=64 v=56
86268 Par ch=1 c=64 v=0
86300 On ch=1 n=g3 v=0
86328 On ch=1 n=g2 v=0
86344 Par ch=1 c=64 v=127
86356 On ch=1 n=d5 v=0
86436 On ch=1 n=d4 v=58
86448 On ch=1 n=d6 v=0
86452 On ch=1 n=a#5 v=0
86512 On ch=1 n=d4 v=0
86552 On ch=1 n=a5 v=88
86552 On ch=1 n=f#5 v=57
86632 On ch=1 n=f#5 v=0
86660 On ch=1 n=g4 v=63
86716 On ch=1 n=a5 v=0
86776 On ch=1 n=a#5 v=92
86776 On ch=1 n=g5 v=68
86776 On ch=1 n=d5 v=62
86804 On ch=1 n=g4 v=0
86880 On ch=1 n=d5 v=0
86924 On ch=1 n=g4 v=70
86960 On ch=1 n=g5 v=0
86988 On ch=1 n=a#5 v=0
87012 On ch=1 n=c6 v=97
87016 On ch=1 n=a5 v=81
87080 On ch=1 n=a5 v=0
87104 On ch=1 n=d4 v=71
87128 On ch=1 n=g4 v=0
87144 On ch=1 n=d4 v=0
87200 On ch=1 n=c6 v=0
87252 On ch=1 n=d6 v=106
87252 On ch=1 n=a#5 v=68
87260 On ch=1 n=d5 v=63
87308 On ch=1 n=d5 v=0
87328 On ch=1 n=a#5 v=0
87352 On ch=1 n=d6 v=0
87376 On ch=1 n=g3 v=72
87476 On ch=1 n=e6 v=111
87484 On ch=1 n=e5 v=85
87556 On ch=1 n=g3 v=0
87568 On ch=1 n=d3 v=75
87576 On ch=1 n=e5 v=0
87592 On ch=1 n=d3 v=0
87592 On ch=1 n=e6 v=0
87776 Par ch=1 c=64 v=104
87780 On ch=1 n=f6 v=105
87780 On ch=1 n=d6 v=67
87780 On ch=1 n=a#5 v=62
87780 On ch=1 n=f5 v=75
87792 On ch=1 n=f2 v=70
87792 On ch=1 n=f3 v=62
87792 Par ch=1 c=64 v=24
87804 Par ch=1 c=64 v=0
87852 On ch=1 n=d6 v=0
87864 Par ch=1 c=64 v=104
87872 On ch=1 n=f6 v=0
87876 Par ch=1 c=64 v=127
87892 On ch=1 n=f2 v=0
87896 On ch=1 n=f3 v=0
87900 On ch=1 n=f5 v=0
87900 On ch=1 n=a#5 v=0
88020 On ch=1 n=d4 v=66
88088 On ch=1 n=a#4 v=80
88088 On ch=1 n=a#5 v=97
88132 On ch=1 n=a#4 v=0
88152 On ch=1 n=a#5 v=0
88164 On ch=1 n=d4 v=0
88188 On ch=1 n=f4 v=70
88316 On ch=1 n=d6 v=106
88316 On ch=1 n=f5 v=83
88316 On ch=1 n=a#5 v=68
88316 On ch=1 n=d5 v=75
88344 On ch=1 n=f4 v=0
88364 On ch=1 n=f5 v=0
88400 On ch=1 n=d6 v=0
88400 On ch=1 n=a#5 v=0
88408 On ch=1 n=d5 v=0
88436 On ch=1 n=f4 v=75
88548 On ch=1 n=f6 v=113
88548 On ch=1 n=f5 v=84
88600 On ch=1 n=f5 v=0
88640 On ch=1 n=f4 v=0
88644 On ch=1 n=f6 v=0
88676 On ch=1 n=d4 v=87
88724 On ch=1 n=d4 v=0
88776 On ch=1 n=g6 v=115
88776 On ch=1 n=d6 v=85
88776 On ch=1 n=g5 v=83
88856 On ch=1 n=g5 v=0
88888 On ch=1 n=g6 v=0
88912 On ch=1 n=f3 v=75
88956 On ch=1 n=d6 v=0
89004 On ch=1 n=a6 v=119
89004 On ch=1 n=a5 v=102
89060 On ch=1 n=f3 v=0
89096 On ch=1 n=a5 v=0
89120 On ch=1 n=a6 v=0
89144 On ch=1 n=d3 v=81
89220 On ch=1 n=d3 v=0
89292 On ch=1 n=a#6 v=119
89292 On ch=1 n=g6 v=94
89292 On ch=1 n=e3 v=66
89292 On ch=1 n=e2 v=75
89292 On ch=1 n=d6 v=76
89292 On ch=1 n=a#5 v=75
89300 Par ch=1 c=64 v=104
89308 Par ch=1 c=64 v=0
89352 On ch=1 n=e3 v=0
89376 On ch=1 n=e2 v=0
89392 Par ch=1 c=64 v=127
89440 On ch=1 n=d6 v=0
89440 On ch=1 n=a#6 v=0
89440 On ch=1 n=a#5 v=0
89440 On ch=1 n=g6 v=0
89516 On ch=1 n=d4 v=65
89584 On ch=1 n=f#6 v=109
89584 On ch=1 n=f#5 v=89
89628 On ch=1 n=d4 v=0
89652 On ch=1 n=f#5 v=0
89696 On ch=1 n=g4 v=80
89720 On ch=1 n=f#6 v=0
89808 On ch=1 n=g4 v=0
89812 On ch=1 n=g6 v=119
89820 On ch=1 n=g5 v=93
89840 On ch=1 n=d6 v=70
89844 On ch=1 n=d5 v=78
89852 On ch=1 n=a#4 v=52
89868 On ch=1 n=d6 v=0
89888 On ch=1 n=g5 v=0
89912 On ch=1 n=g6 v=0
89936 On ch=1 n=d5 v=0
89960 On ch=1 n=a#4 v=0
89964 On ch=1 n=g4 v=83
90048 On ch=1 n=a6 v=114
90060 On ch=1 n=a5 v=100
90128 On ch=1 n=a5 v=0
90140 On ch=1 n=d4 v=78
90156 On ch=1 n=g4 v=0
90160 On ch=1 n=a6 v=0
90168 On ch=1 n=d4 v=0
90276 On ch=1 n=g6 v=66
90280 On ch=1 n=a#6 v=117
90280 On ch=1 n=a#5 v=105
90280 On ch=1 n=d6 v=106
90340 On ch=1 n=d6 v=0
90356 On ch=1 n=a#5 v=0
90356 On ch=1 n=g6 v=0
90396 On ch=1 n=a#6 v=0
90404 On ch=1 n=g3 v=80
90532 On ch=1 n=c7 v=122
90536 On ch=1 n=c6 v=114
90632 On ch=1 n=e3 v=84
90648 On ch=1 n=g3 v=0
90664 On ch=1 n=c6 v=0
90676 On ch=1 n=e3 v=0
90692 On ch=1 n=c7 v=0
90876 On ch=1 n=c#7 v=123
90888 On ch=1 n=c#6 v=92
90888 Par ch=1 c=64 v=40
90892 On ch=1 n=g6 v=98
90896 On ch=1 n=a#6 v=65
90896 Par ch=1 c=64 v=0
90908 On ch=1 n=d#3 v=80
90912 On ch=1 n=d#2 v=80
90948 On ch=1 n=d#2 v=0
90956 On ch=1 n=d#3 v=0
90964 Par ch=1 c=64 v=104
90976 Par ch=1 c=64 v=127
91060 On ch=1 n=c#6 v=0
91084 On ch=1 n=c#7 v=0
91088 On ch=1 n=a#3 v=78
91096 On ch=1 n=a#6 v=0
91108 On ch=1 n=g6 v=0
91184 On ch=1 n=d7 v=122
91188 On ch=1 n=d6 v=106
91208 On ch=1 n=a#3 v=0
91256 On ch=1 n=d6 v=0
91280 On ch=1 n=d7 v=0
91284 On ch=1 n=g4 v=87
91416 On ch=1 n=d#7 v=123
91416 On ch=1 n=d#6 v=113
91420 On ch=1 n=a#6 v=94
91432 On ch=1 n=g4 v=0
91436 On ch=1 n=a#4 v=76
91468 On ch=1 n=a#4 v=0
91472 On ch=1 n=d#6 v=0
91484 On ch=1 n=a#6 v=0
91504 On ch=1 n=d#7 v=0
91568 On ch=1 n=c#5 v=91
91656 On ch=1 n=f#7 v=124
91660 On ch=1 n=f#6 v=115
91664 On ch=1 n=c#7 v=100
91664 On ch=1 n=a#6 v=92
91728 On ch=1 n=f#6 v=0
91740 On ch=1 n=a#6 v=0
91760 On ch=1 n=c#5 v=0
91764 On ch=1 n=c#7 v=0
91784 On ch=1 n=g5 v=88
91788 On ch=1 n=f#7 v=0
91856 On ch=1 n=g5 v=0
91936 On ch=1 n=g7 v=127
91936 On ch=1 n=c#7 v=109
91936 On ch=1 n=g6 v=120
91964 On ch=1 n=a#5 v=94
91988 On ch=1 n=g6 v=0
91992 On ch=1 n=c#7 v=0
92016 On ch=1 n=g7 v=0
92084 On ch=1 n=c#6 v=100
92156 On ch=1 n=c#6 v=0
92204 On ch=1 n=a7 v=127
92212 On ch=1 n=a6 v=104
92212 On ch=1 n=c#7 v=101
92216 On ch=1 n=c#6 v=44
92308 On ch=1 n=a6 v=0
92336 On ch=1 n=g6 v=88
92360 On ch=1 n=c#7 v=0
92364 On ch=1 n=g6 v=0
92364 On ch=1 n=a7 v=0
92372 On ch=1 n=c#6 v=0
92388 On ch=1 n=a#5 v=0
92620 On ch=1 n=a#7 v=123
92624 On ch=1 n=a#6 v=100
92632 On ch=1 n=g7 v=109
92632 On ch=1 n=d7 v=105
92632 Par ch=1 c=64 v=56
92644 Par ch=1 c=64 v=0
92652 On ch=1 n=e2 v=94
92656 On ch=1 n=e3 v=84
92696 Par ch=1 c=64 v=127
92700 On ch=1 n=e3 v=0
92704 On ch=1 n=e2 v=0
92744 On ch=1 n=d7 v=0
92748 On ch=1 n=g7 v=0
92748 On ch=1 n=a#6 v=0
92788 On ch=1 n=a#7 v=0
92888 On ch=1 n=b3 v=81
92960 On ch=1 n=b7 v=124
92972 On ch=1 n=b6 v=98
92972 On ch=1 n=g7 v=98
92972 On ch=1 n=b3 v=0
92976 On ch=1 n=d7 v=93
93052 On ch=1 n=b7 v=0
93056 On ch=1 n=g4 v=72
93056 On ch=1 n=d7 v=0
93064 On ch=1 n=g7 v=0
93068 On ch=1 n=b6 v=0
93180 On ch=1 n=g4 v=0
93208 On ch=1 n=a7 v=124
93212 On ch=1 n=f#7 v=97
93220 On ch=1 n=a6 v=91
93220 On ch=1 n=d7 v=97
93224 On ch=1 n=d5 v=88
93252 On ch=1 n=d7 v=0
93280 On ch=1 n=f#7 v=0
93288 On ch=1 n=a7 v=0
93308 On ch=1 n=d5 v=0
93312 On ch=1 n=a6 v=0
93372 On ch=1 n=e5 v=88
93456 On ch=1 n=g7 v=119
93464 On ch=1 n=g6 v=92
93468 On ch=1 n=e7 v=96
93472 On ch=1 n=b6 v=94
93512 On ch=1 n=e5 v=0
93524 On ch=1 n=g6 v=0
93544 On ch=1 n=b6 v=0
93544 On ch=1 n=g7 v=0
93556 On ch=1 n=g5 v=71
93556 On ch=1 n=e7 v=0
93700 On ch=1 n=g5 v=0
93712 On ch=1 n=f#7 v=115
93720 On ch=1 n=f#6 v=96
93720 On ch=1 n=d7 v=104
93728 On ch=1 n=b6 v=85
93736 On ch=1 n=a5 v=88
93752 On ch=1 n=b6 v=0
93776 On ch=1 n=d7 v=0
93804 On ch=1 n=f#6 v=0
93812 On ch=1 n=f#7 v=0
93832 On ch=1 n=a5 v=0
93892 On ch=1 n=b5 v=93
93968 On ch=1 n=e7 v=120
93968 On ch=1 n=b6 v=100
93976 On ch=1 n=g6 v=88
93976 On ch=1 n=e6 v=89
94024 On ch=1 n=b5 v=0
94048 On ch=1 n=b6 v=0
94056 On ch=1 n=g6 v=0
94060 On ch=1 n=e7 v=0
94076 On ch=1 n=g5 v=93
94084 On ch=1 n=e6 v=0
94248 On ch=1 n=d7 v=113
94256 On ch=1 n=f#5 v=92
94256 On ch=1 n=d6 v=93
94256 On ch=1 n=f#6 v=92
94260 On ch=1 n=b6 v=89
94264 On ch=1 n=g5 v=0
94328 On ch=1 n=f#6 v=0
94328 On ch=1 n=f#5 v=0
94336 On ch=1 n=d7 v=0
94340 On ch=1 n=b6 v=0
94364 On ch=1 n=d6 v=0
94448 On ch=1 n=e5 v=85
94516 On ch=1 n=b6 v=111
94524 On ch=1 n=b5 v=85
94532 On ch=1 n=g6 v=89
94532 On ch=1 n=d6 v=84
94580 On ch=1 n=e5 v=0
94612 On ch=1 n=b6 v=0
94616 On ch=1 n=d6 v=0
94620 On ch=1 n=g6 v=0
94632 On ch=1 n=d5 v=93
94640 On ch=1 n=b5 v=0
94788 On ch=1 n=d5 v=0
94800 On ch=1 n=a6 v=105
94804 On ch=1 n=f#6 v=80
94808 On ch=1 n=a5 v=80
94808 On ch=1 n=b4 v=75
94820 On ch=1 n=d6 v=71
94848 On ch=1 n=d6 v=0
94864 On ch=1 n=f#6 v=0
94880 On ch=1 n=a5 v=0
94888 On ch=1 n=a6 v=0
94988 On ch=1 n=a4 v=76
94988 On ch=1 n=b4 v=0
95088 On ch=1 n=g6 v=102
95096 On ch=1 n=g5 v=58
95108 On ch=1 n=b5 v=61
95112 On ch=1 n=e6 v=70
95172 On ch=1 n=g5 v=0
95180 On ch=1 n=g6 v=0
95184 On ch=1 n=e6 v=0
95184 On ch=1 n=b5 v=0
95192 On ch=1 n=a4 v=0
95216 On ch=1 n=g4 v=70
95268 On ch=1 n=g4 v=0
95420 On ch=1 n=f#6 v=94
95428 On ch=1 n=f#5 v=58
95440 On ch=1 n=d6 v=71
95440 On ch=1 n=a4 v=71
95468 On ch=1 n=b5 v=54
95468 Par ch=1 c=64 v=104
95484 Par ch=1 c=64 v=0
95544 On ch=1 n=b5 v=0
95560 Par ch=1 c=64 v=88
95572 Par ch=1 c=64 v=127
95576 On ch=1 n=d6 v=0
95600 On ch=1 n=a4 v=0
95604 On ch=1 n=f#6 v=0
95612 On ch=1 n=g4 v=70
95628 On ch=1 n=f#5 v=0
95676 On ch=1 n=g4 v=0
95764 On ch=1 n=e6 v=92
95768 On ch=1 n=e5 v=68
95780 On ch=1 n=c#6 v=55
95888 On ch=1 n=a3 v=67
95924 On ch=1 n=c#6 v=0
95948 On ch=1 n=e5 v=0
95972 On ch=1 n=a3 v=0
96000 On ch=1 n=e6 v=0
96260 On ch=1 n=f#6 v=92
96268 On ch=1 n=d3 v=61
96280 On ch=1 n=f#5 v=58
96288 On ch=1 n=d6 v=55
96308 Par ch=1 c=64 v=104
96320 Par ch=1 c=64 v=0
96400 On ch=1 n=d6 v=0
96424 Par ch=1 c=64 v=104
96424 On ch=1 n=f#5 v=0
96436 Par ch=1 c=64 v=127
96460 On ch=1 n=f#6 v=0
96468 On ch=1 n=d3 v=0
96524 On ch=1 n=a3 v=57
96616 On ch=1 n=d7 v=89
96624 On ch=1 n=a3 v=0
96692 On ch=1 n=f#4 v=59
96744 On ch=1 n=f#4 v=0
96872 On ch=1 n=d5 v=68
96984 On ch=1 n=d5 v=0
97020 On ch=1 n=d7 v=0
97048 On ch=1 n=e5 v=57
97132 On ch=1 n=e5 v=0
97220 On ch=1 n=f#5 v=67
97368 On ch=1 n=f#5 v=0
97428 On ch=1 n=e6 v=98
97432 Par ch=1 c=64 v=72
97440 On ch=1 n=c#6 v=75
97448 On ch=1 n=e5 v=63
97448 Par ch=1 c=64 v=0
97456 On ch=1 n=g5 v=67
97456 On ch=1 n=a#4 v=55
97488 On ch=1 n=g5 v=0
97496 Par ch=1 c=64 v=88
97512 Par ch=1 c=64 v=127
97512 On ch=1 n=e5 v=0
97528 On ch=1 n=a#4 v=0
97532 On ch=1 n=c#6 v=0
97540 On ch=1 n=e6 v=0
97680 On ch=1 n=g4 v=55
97756 On ch=1 n=c#7 v=92
97796 On ch=1 n=g4 v=0
97816 On ch=1 n=c#7 v=0
97852 On ch=1 n=a#3 v=65
97904 On ch=1 n=a#3 v=0
98116 On ch=1 n=f#6 v=97
98128 On ch=1 n=f#5 v=58
98136 On ch=1 n=d6 v=63
98152 On ch=1 n=d3 v=65
98152 Par ch=1 c=64 v=56
98168 Par ch=1 c=64 v=0
98224 On ch=1 n=d6 v=0
98228 On ch=1 n=f#5 v=0
98244 Par ch=1 c=64 v=127
98268 On ch=1 n=f#6 v=0
98292 On ch=1 n=d3 v=0
98360 On ch=1 n=a3 v=61
98440 On ch=1 n=d7 v=76
98484 On ch=1 n=a3 v=0
98528 On ch=1 n=f#4 v=54
98584 On ch=1 n=f#4 v=0
98724 On ch=1 n=a4 v=58
98780 On ch=1 n=a4 v=0
98884 On ch=1 n=b4 v=61
98896 On ch=1 n=d7 v=0
98988 On ch=1 n=b4 v=0
99056 On ch=1 n=c#5 v=63
99244 On ch=1 n=c#5 v=0
99264 On ch=1 n=b5 v=89
99264 Par ch=1 c=64 v=40
99268 On ch=1 n=f#5 v=48
99276 On ch=1 n=b4 v=67
99276 Par ch=1 c=64 v=0
99284 On ch=1 n=d5 v=75
99316 Par ch=1 c=64 v=127
99316 On ch=1 n=b4 v=0
99332 On ch=1 n=f#5 v=0
99340 On ch=1 n=d5 v=0
99348 On ch=1 n=b5 v=0
99436 On ch=1 n=f#4 v=62
99532 On ch=1 n=f#4 v=0
99572 On ch=1 n=g6 v=81
99616 On ch=1 n=g6 v=0
99668 On ch=1 n=a3 v=65
99724 On ch=1 n=a3 v=0
99880 On ch=1 n=c#6 v=100
99888 On ch=1 n=c#5 v=75
99896 Par ch=1 c=64 v=72
99900 On ch=1 n=a5 v=75
99900 On ch=1 n=g5 v=67
99908 Par ch=1 c=64 v=0
99932 On ch=1 n=d3 v=65
99936 On ch=1 n=g5 v=0
99948 On ch=1 n=c#5 v=0
99960 On ch=1 n=a5 v=0
99964 Par ch=1 c=64 v=88
99976 Par ch=1 c=64 v=127
100000 On ch=1 n=c#6 v=0
100072 On ch=1 n=d3 v=0
100084 On ch=1 n=a3 v=68
100164 On ch=1 n=a3 v=0
100196 On ch=1 n=a6 v=83
100268 On ch=1 n=g4 v=62
100324 On ch=1 n=g4 v=0
100440 On ch=1 n=c#5 v=71
100532 On ch=1 n=c#5 v=0
100604 On ch=1 n=d5 v=74
100668 On ch=1 n=a6 v=0
100712 On ch=1 n=d5 v=0
100780 On ch=1 n=e5 v=75
100920 On ch=1 n=e5 v=0
100956 Par ch=1 c=64 v=56
100968 Par ch=1 c=64 v=0
100976 On ch=1 n=f#5 v=63
100980 On ch=1 n=d6 v=91
100980 On ch=1 n=d5 v=78
100980 On ch=1 n=b5 v=81
101008 Par ch=1 c=64 v=88
101012 On ch=1 n=d5 v=0
101012 On ch=1 n=f#5 v=0
101020 Par ch=1 c=64 v=127
101040 On ch=1 n=b5 v=0
101052 On ch=1 n=d6 v=0
101152 On ch=1 n=f#4 v=55
101248 On ch=1 n=b6 v=93
101252 On ch=1 n=c#6 v=79
101280 On ch=1 n=b6 v=0
101304 On ch=1 n=c#6 v=0
101360 On ch=1 n=f#4 v=0
101368 On ch=1 n=a3 v=57
101376 On ch=1 n=d6 v=94
101376 On ch=1 n=b5 v=63
101376 On ch=1 n=d5 v=67
101436 On ch=1 n=a3 v=0
101452 On ch=1 n=d6 v=0
101456 On ch=1 n=b5 v=0
101472 On ch=1 n=d5 v=0
101564 On ch=1 n=c#5 v=63
101616 On ch=1 n=g5 v=75
101616 On ch=1 n=d3 v=63
101616 Par ch=1 c=64 v=56
101616 On ch=1 n=c#5 v=0
101628 Par ch=1 c=64 v=0
101648 On ch=1 n=c#6 v=75
101672 On ch=1 n=g5 v=0
101692 Par ch=1 c=64 v=104
101704 On ch=1 n=e6 v=102
101704 Par ch=1 c=64 v=127
101716 On ch=1 n=c#6 v=0
101748 On ch=1 n=e6 v=0
101820 On ch=1 n=d3 v=0
101864 On ch=1 n=a3 v=66
101956 On ch=1 n=a3 v=0
101992 On ch=1 n=c#7 v=97
102064 On ch=1 n=g4 v=70
102120 On ch=1 n=g4 v=0
102268 On ch=1 n=e5 v=74
102268 On ch=1 n=c#5 v=53
102400 On ch=1 n=c#5 v=0
102404 On ch=1 n=e5 v=0
102424 On ch=1 n=f#5 v=76
102476 On ch=1 n=c#7 v=0
102540 On ch=1 n=f#5 v=0
102600 On ch=1 n=g5 v=78
102676 On ch=1 n=g5 v=0
102788 On ch=1 n=f#6 v=105
102788 Par ch=1 c=64 v=40
102796 On ch=1 n=f#5 v=63
102800 Par ch=1 c=64 v=0
102808 On ch=1 n=d6 v=80
102824 On ch=1 n=a5 v=75
102832 On ch=1 n=d6 v=0
102836 On ch=1 n=c5 v=66
102844 On ch=1 n=f#5 v=0
102852 Par ch=1 c=64 v=127
102880 On ch=1 n=f#6 v=0
102956 On ch=1 n=c5 v=0
102964 On ch=1 n=a5 v=0
102968 On ch=1 n=d5 v=70
103020 On ch=1 n=d5 v=0
103064 On ch=1 n=d7 v=106
103132 On ch=1 n=d7 v=0
103176 On ch=1 n=d4 v=72
103216 On ch=1 n=d4 v=0
103324 On ch=1 n=g5 v=71
103372 Par ch=1 c=64 v=104
103376 On ch=1 n=b5 v=78
103384 Par ch=1 c=64 v=0
103396 On ch=1 n=d3 v=78
103420 On ch=1 n=d3 v=0
103420 On ch=1 n=g5 v=0
103436 Par ch=1 c=64 v=72
103440 On ch=1 n=e6 v=84
103444 Par ch=1 c=64 v=127
103472 On ch=1 n=b5 v=0
103500 On ch=1 n=g6 v=106
103520 On ch=1 n=e6 v=0
103536 On ch=1 n=g4 v=59
103548 On ch=1 n=g6 v=0
103648 On ch=1 n=g4 v=0
103692 On ch=1 n=b4 v=62
103776 On ch=1 n=e7 v=100
103812 On ch=1 n=b4 v=0
103860 On ch=1 n=e5 v=74
103984 On ch=1 n=e5 v=0
104032 On ch=1 n=g5 v=70
104156 On ch=1 n=g5 v=0
104196 On ch=1 n=a5 v=91
104248 On ch=1 n=e7 v=0
104304 On ch=1 n=a5 v=0
104352 On ch=1 n=b5 v=91
104380 On ch=1 n=b5 v=0
104552 On ch=1 n=f#6 v=104
104556 On ch=1 n=f#5 v=79
104560 Par ch=1 c=64 v=104
104572 On ch=1 n=d#6 v=83
104572 Par ch=1 c=64 v=0
104576 On ch=1 n=c6 v=72
104600 On ch=1 n=f#5 v=0
104624 Par ch=1 c=64 v=72
104632 On ch=1 n=d#6 v=0
104636 Par ch=1 c=64 v=127
104644 On ch=1 n=f#6 v=0
104692 On ch=1 n=c6 v=0
104736 On ch=1 n=d#5 v=59
104840 On ch=1 n=d#7 v=97
104880 On ch=1 n=d#5 v=0
104888 On ch=1 n=a4 v=76
104900 On ch=1 n=d#7 v=0
104928 On ch=1 n=a4 v=0
105048 On ch=1 n=g5 v=81
105072 Par ch=1 c=64 v=72
105076 On ch=1 n=d3 v=72
105080 On ch=1 n=b5 v=70
105084 Par ch=1 c=64 v=0
105128 On ch=1 n=e6 v=88
105132 On ch=1 n=g5 v=0
105136 Par ch=1 c=64 v=104
105136 On ch=1 n=d3 v=0
105148 On ch=1 n=b5 v=0
105152 Par ch=1 c=64 v=127
105176 On ch=1 n=g6 v=98
105196 On ch=1 n=e6 v=0
105204 On ch=1 n=g4 v=75
105220 On ch=1 n=g6 v=0
105224 On ch=1 n=g4 v=0
105328 On ch=1 n=b4 v=68
105444 On ch=1 n=e7 v=101
105492 On ch=1 n=b4 v=0
105532 On ch=1 n=e5 v=59
105660 On ch=1 n=e5 v=0
105708 On ch=1 n=d#5 v=78
105824 On ch=1 n=d#5 v=0
105860 On ch=1 n=e7 v=0
105868 On ch=1 n=e5 v=81
105988 On ch=1 n=e5 v=0
106044 On ch=1 n=f#5 v=72
106208 Par ch=1 c=64 v=104
106220 Par ch=1 c=64 v=24
106220 On ch=1 n=f#5 v=0
106224 On ch=1 n=d6 v=96
106232 On ch=1 n=d5 v=70
106232 Par ch=1 c=64 v=0
106244 On ch=1 n=b5 v=76
106244 On ch=1 n=g5 v=81
106260 Par ch=1 c=64 v=40
106272 Par ch=1 c=64 v=127
106288 On ch=1 n=b5 v=0
106308 On ch=1 n=d6 v=0
106316 On ch=1 n=d5 v=0
106324 On ch=1 n=g5 v=0
106432 On ch=1 n=b4 v=75
106532 On ch=1 n=b6 v=89
106604 On ch=1 n=b6 v=0
106608 On ch=1 n=b4 v=0
106632 On ch=1 n=d4 v=55
106716 On ch=1 n=d4 v=0
106860 On ch=1 n=e6 v=101
106860 On ch=1 n=e5 v=68
106860 On ch=1 n=g5 v=65
106860 On ch=1 n=c#6 v=66
106860 On ch=1 n=d3 v=67
106876 Par ch=1 c=64 v=56
106892 Par ch=1 c=64 v=0
106944 Par ch=1 c=64 v=56
106952 On ch=1 n=d3 v=0
106956 Par ch=1 c=64 v=127
106976 On ch=1 n=e5 v=0
106988 On ch=1 n=c#6 v=0
106992 On ch=1 n=g5 v=0
106992 On ch=1 n=e6 v=0
107068 On ch=1 n=a3 v=75
107128 On ch=1 n=a3 v=0
107180 On ch=1 n=c#7 v=102
107272 On ch=1 n=g4 v=72
107332 On ch=1 n=g4 v=0
107436 On ch=1 n=e5 v=71
107452 On ch=1 n=c#5 v=61
107560 On ch=1 n=e5 v=0
107576 On ch=1 n=c#5 v=0
107596 On ch=1 n=f#5 v=72
107676 On ch=1 n=c#7 v=0
107716 On ch=1 n=f#5 v=0
107768 On ch=1 n=g5 v=88
107836 On ch=1 n=g5 v=0
107952 On ch=1 n=f#6 v=106
107952 Par ch=1 c=64 v=88
107956 On ch=1 n=f#5 v=79
107964 Par ch=1 c=64 v=0
107976 On ch=1 n=d6 v=72
107980 On ch=1 n=a5 v=78
107992 On ch=1 n=c5 v=70
108000 On ch=1 n=d6 v=0
108000 On ch=1 n=f#5 v=0
108016 Par ch=1 c=64 v=72
108028 Par ch=1 c=64 v=127
108044 On ch=1 n=f#6 v=0
108108 On ch=1 n=a5 v=0
108132 On ch=1 n=c5 v=0
108140 On ch=1 n=d5 v=76
108204 On ch=1 n=d5 v=0
108220 On ch=1 n=d7 v=104
108284 On ch=1 n=d7 v=0
108324 On ch=1 n=d4 v=79
108380 On ch=1 n=d4 v=0
108532 Par ch=1 c=64 v=56
108540 On ch=1 n=g6 v=106
108544 Par ch=1 c=64 v=0
108548 On ch=1 n=d3 v=81
108552 On ch=1 n=g5 v=87
108556 On ch=1 n=b5 v=85
108568 On ch=1 n=e6 v=71
108592 On ch=1 n=e6 v=0
108596 Par ch=1 c=64 v=127
108596 On ch=1 n=g5 v=0
108604 On ch=1 n=b5 v=0
108616 On ch=1 n=d3 v=0
108640 On ch=1 n=g6 v=0
108732 On ch=1 n=g4 v=68
108752 On ch=1 n=g4 v=0
108824 On ch=1 n=e7 v=113
108932 On ch=1 n=b4 v=81
109040 On ch=1 n=b4 v=0
109088 On ch=1 n=g5 v=89
109096 On ch=1 n=e5 v=79
109204 On ch=1 n=g5 v=0
109240 On ch=1 n=e5 v=0
109260 On ch=1 n=a5 v=97
109300 On ch=1 n=e7 v=0
109372 On ch=1 n=a5 v=0
109408 On ch=1 n=a#5 v=84
109536 On ch=1 n=a#5 v=0
109616 Par ch=1 c=64 v=104
109628 Par ch=1 c=64 v=24
109632 On ch=1 n=g#6 v=119
109640 On ch=1 n=g#5 v=93
109640 On ch=1 n=b5 v=83
109644 On ch=1 n=f6 v=96
109644 On ch=1 n=f5 v=80
109644 Par ch=1 c=64 v=0
109680 Par ch=1 c=64 v=56
109684 On ch=1 n=b5 v=0
109692 Par ch=1 c=64 v=127
109696 On ch=1 n=g#5 v=0
109700 On ch=1 n=f5 v=0
109712 On ch=1 n=f6 v=0
109740 On ch=1 n=g#6 v=0
109848 On ch=1 n=b4 v=76
109932 On ch=1 n=f7 v=115
109996 On ch=1 n=f7 v=0
110032 On ch=1 n=d4 v=89
110036 On ch=1 n=b4 v=0
110068 On ch=1 n=d4 v=0
110176 On ch=1 n=c#5 v=80
110228 On ch=1 n=f#5 v=55
110232 Par ch=1 c=64 v=104
110248 Par ch=1 c=64 v=0
110252 On ch=1 n=a5 v=79
110252 On ch=1 n=c#5 v=0
110276 On ch=1 n=c#6 v=93
110276 On ch=1 n=a5 v=0
110284 On ch=1 n=f#5 v=0
110288 Par ch=1 c=64 v=56
110300 Par ch=1 c=64 v=127
110320 On ch=1 n=c#6 v=0
110364 On ch=1 n=c#3 v=55
110364 On ch=1 n=f#2 v=55
110424 On ch=1 n=a6 v=119
110460 On ch=1 n=f#2 v=0
110460 On ch=1 n=c#3 v=0
110668 On ch=1 n=a4 v=68
110748 On ch=1 n=f#7 v=110
110788 On ch=1 n=a4 v=0
110852 On ch=1 n=c#5 v=71
110876 On ch=1 n=c#5 v=0
111008 On ch=1 n=a5 v=89
111096 On ch=1 n=a5 v=0
111104 On ch=1 n=b5 v=79
111184 On ch=1 n=b5 v=0
111196 On ch=1 n=c6 v=96
111196 On ch=1 n=f#7 v=0
111208 On ch=1 n=a6 v=0
111276 On ch=1 n=c6 v=0
111288 On ch=1 n=c#6 v=100
111332 On ch=1 n=c#6 v=0
111440 Par ch=1 c=64 v=56
111456 Par ch=1 c=64 v=0
111460 On ch=1 n=g#6 v=107
111468 On ch=1 n=f6 v=96
111468 On ch=1 n=d6 v=72
111468 On ch=1 n=f5 v=55
111468 On ch=1 n=g#5 v=62
111504 On ch=1 n=d6 v=0
111508 Par ch=1 c=64 v=88
111516 On ch=1 n=f6 v=0
111520 Par ch=1 c=64 v=127
111524 On ch=1 n=f5 v=0
111540 On ch=1 n=g#6 v=0
111564 On ch=1 n=g#5 v=0
111652 On ch=1 n=d5 v=83
111744 On ch=1 n=f7 v=109
111752 On ch=1 n=d5 v=0
111788 On ch=1 n=f7 v=0
111840 On ch=1 n=b4 v=65
111872 On ch=1 n=b4 v=0
111956 On ch=1 n=f#3 v=52
111960 On ch=1 n=c#5 v=80
111972 Par ch=1 c=64 v=104
111984 Par ch=1 c=64 v=0
112012 On ch=1 n=f#5 v=62
112028 On ch=1 n=a5 v=78
112028 On ch=1 n=c#5 v=0
112048 On ch=1 n=c#4 v=57
112048 Par ch=1 c=64 v=56
112056 On ch=1 n=c#6 v=94
112064 Par ch=1 c=64 v=127
112064 On ch=1 n=a5 v=0
112072 On ch=1 n=f#5 v=0
112084 On ch=1 n=f#3 v=0
112104 On ch=1 n=c#4 v=0
112108 On ch=1 n=c#6 v=0
112164 On ch=1 n=a6 v=113
112348 On ch=1 n=a4 v=72
112440 On ch=1 n=a4 v=0
112464 On ch=1 n=f#7 v=102
112544 On ch=1 n=c#5 v=75
112640 On ch=1 n=c#5 v=0
112688 On ch=1 n=f#5 v=78
112760 On ch=1 n=f#5 v=0
112784 On ch=1 n=g5 v=84
112816 On ch=1 n=a6 v=0
112824 On ch=1 n=f#7 v=0
112856 On ch=1 n=g5 v=0
112864 On ch=1 n=g#5 v=88
112932 On ch=1 n=g#5 v=0
112972 On ch=1 n=a5 v=92
113084 On ch=1 n=a5 v=0
113120 Par ch=1 c=64 v=56
113132 On ch=1 n=g6 v=101
113136 Par ch=1 c=64 v=0
113144 On ch=1 n=g5 v=62
113148 On ch=1 n=d6 v=75
113152 On ch=1 n=a#5 v=67
113160 On ch=1 n=d5 v=67
113184 On ch=1 n=g5 v=0
113192 On ch=1 n=d6 v=0
113200 Par ch=1 c=64 v=127
113208 On ch=1 n=a#5 v=0
113228 On ch=1 n=d5 v=0
113236 On ch=1 n=g6 v=0
113408 On ch=1 n=e7 v=83
113408 On ch=1 n=a#4 v=63
113468 On ch=1 n=e7 v=0
113528 On ch=1 n=a#4 v=0
113612 On ch=1 n=d4 v=58
113612 On ch=1 n=f#6 v=89
113732 On ch=1 n=d4 v=0
113736 On ch=1 n=f#6 v=0
113740 On ch=1 n=a6 v=80
113804 On ch=1 n=g6 v=92
113812 On ch=1 n=a6 v=0
113856 On ch=1 n=g6 v=0
114036 On ch=1 n=f#6 v=93
114036 On ch=1 n=d6 v=63
114036 On ch=1 n=d3 v=61
114036 On ch=1 n=f#5 v=61
114064 Par ch=1 c=64 v=88
114076 Par ch=1 c=64 v=0
114136 On ch=1 n=d6 v=0
114144 On ch=1 n=f#5 v=0
114156 Par ch=1 c=64 v=72
114168 Par ch=1 c=64 v=127
114196 On ch=1 n=d3 v=0
114196 On ch=1 n=f#6 v=0
114244 On ch=1 n=a3 v=62
114336 On ch=1 n=d7 v=71
114340 On ch=1 n=a3 v=0
114452 On ch=1 n=f#4 v=63
114524 On ch=1 n=f#4 v=0
114592 On ch=1 n=d5 v=62
114660 On ch=1 n=d5 v=0
114688 On ch=1 n=e5 v=63
114760 On ch=1 n=d7 v=0
114792 On ch=1 n=e5 v=0
114796 On ch=1 n=f5 v=65
114888 On ch=1 n=f5 v=0
114904 On ch=1 n=f#5 v=67
115020 On ch=1 n=f#5 v=0
115056 On ch=1 n=e6 v=98
115072 On ch=1 n=c#6 v=63
115072 On ch=1 n=e5 v=54
115072 Par ch=1 c=64 v=56
115084 Par ch=1 c=64 v=0
115096 On ch=1 n=g5 v=68
115108 On ch=1 n=a#4 v=49
115124 On ch=1 n=e5 v=0
115136 Par ch=1 c=64 v=88
115148 Par ch=1 c=64 v=127
115148 On ch=1 n=g5 v=0
115156 On ch=1 n=c#6 v=0
115172 On ch=1 n=a#4 v=0
115176 On ch=1 n=e6 v=0
115316 On ch=1 n=g4 v=62
115384 On ch=1 n=c#7 v=84
115456 On ch=1 n=c#7 v=0
115456 On ch=1 n=g4 v=0
115484 On ch=1 n=a#3 v=68
115512 On ch=1 n=a#3 v=0
115692 On ch=1 n=f#6 v=93
115704 On ch=1 n=f#5 v=48
115716 Par ch=1 c=64 v=88
115720 On ch=1 n=d6 v=57
115728 Par ch=1 c=64 v=0
115748 On ch=1 n=d3 v=61
115788 On ch=1 n=f#5 v=0
115804 Par ch=1 c=64 v=127
115804 On ch=1 n=d6 v=0
115840 On ch=1 n=f#6 v=0
115876 On ch=1 n=d3 v=0
115924 On ch=1 n=a3 v=54
116008 On ch=1 n=a3 v=0
116016 On ch=1 n=d7 v=80
116068 On ch=1 n=f#4 v=59
116112 On ch=1 n=f#4 v=0
116248 On ch=1 n=d5 v=66
116332 On ch=1 n=d5 v=0
116416 On ch=1 n=e5 v=70
116416 On ch=1 n=d7 v=0
116520 On ch=1 n=e5 v=0
116588 On ch=1 n=f#5 v=72
116720 On ch=1 n=f#5 v=0
116784 Par ch=1 c=64 v=24
116788 On ch=1 n=e6 v=97
116800 On ch=1 n=c#6 v=65
116800 On ch=1 n=e5 v=78
116800 Par ch=1 c=64 v=0
116812 On ch=1 n=g5 v=68
116816 On ch=1 n=a#4 v=52
116852 Par ch=1 c=64 v=88
116856 On ch=1 n=e5 v=0
116864 Par ch=1 c=64 v=127
116864 On ch=1 n=g5 v=0
116880 On ch=1 n=c#6 v=0
116892 On ch=1 n=e6 v=0
116892 On ch=1 n=a#4 v=0
117032 On ch=1 n=g4 v=67
117104 On ch=1 n=c#7 v=71
117212 On ch=1 n=f#6 v=93
117220 On ch=1 n=g4 v=0
117232 On ch=1 n=c#7 v=0
117240 On ch=1 n=a#3 v=65
117288 On ch=1 n=f#6 v=0
117292 On ch=1 n=a#3 v=0
117540 On ch=1 n=d6 v=96
117548 Par ch=1 c=64 v=88
117560 On ch=1 n=d5 v=55
117560 Par ch=1 c=64 v=0
117568 On ch=1 n=f#5 v=52
117576 On ch=1 n=b2 v=59
117640 On ch=1 n=b2 v=0
117648 On ch=1 n=d5 v=0
117652 Par ch=1 c=64 v=127
117668 On ch=1 n=f#5 v=0
117704 On ch=1 n=d6 v=0
117816 On ch=1 n=f#4 v=58
117900 On ch=1 n=b6 v=72
117964 On ch=1 n=f#4 v=0
117984 On ch=1 n=b4 v=63
117996 On ch=1 n=b6 v=0
118144 On ch=1 n=b4 v=0
118164 On ch=1 n=d5 v=66
118280 On ch=1 n=d5 v=0
118312 On ch=1 n=c#5 v=70
118412 On ch=1 n=f#6 v=96
118412 On ch=1 n=f#5 v=81
118428 On ch=1 n=c#5 v=0
118472 On ch=1 n=f#5 v=0
118492 On ch=1 n=b4 v=54
118544 On ch=1 n=f#6 v=0
118564 On ch=1 n=b4 v=0
118684 On ch=1 n=f#3 v=79
118712 Par ch=1 c=64 v=40
118720 On ch=1 n=a6 v=114
118724 Par ch=1 c=64 v=0
118732 On ch=1 n=a5 v=92
118740 On ch=1 n=d6 v=81
118756 On ch=1 n=f#3 v=0
118768 On ch=1 n=d6 v=0
118776 Par ch=1 c=64 v=127
118784 On ch=1 n=a5 v=0
118800 On ch=1 n=a4 v=80
118824 On ch=1 n=a6 v=0
118868 On ch=1 n=a4 v=0
118912 On ch=1 n=e4 v=88
119016 On ch=1 n=d7 v=117
119024 On ch=1 n=d6 v=96
119040 On ch=1 n=e4 v=0
119048 On ch=1 n=d4 v=72
119116 On ch=1 n=d7 v=0
119140 On ch=1 n=d6 v=0
119152 On ch=1 n=f#3 v=72
119152 On ch=1 n=d4 v=0
119184 On ch=1 n=f#3 v=0
119380 Par ch=1 c=64 v=40
119388 On ch=1 n=c#7 v=119
119388 On ch=1 n=c#6 v=91
119388 On ch=1 n=d6 v=74
119388 On ch=1 n=e2 v=79
119388 On ch=1 n=a6 v=75
119392 Par ch=1 c=64 v=0
119432 On ch=1 n=e3 v=52
119432 Par ch=1 c=64 v=72
119432 On ch=1 n=d6 v=0
119444 Par ch=1 c=64 v=127
119456 On ch=1 n=c#6 v=0
119468 On ch=1 n=e3 v=0
119472 On ch=1 n=e2 v=0
119484 On ch=1 n=a6 v=0
119504 On ch=1 n=c#7 v=0
119672 On ch=1 n=b3 v=85
119728 On ch=1 n=a7 v=113
119784 On ch=1 n=b3 v=0
119860 On ch=1 n=g4 v=67
119952 On ch=1 n=g4 v=0
120016 On ch=1 n=d5 v=80
120124 On ch=1 n=d5 v=0
120192 On ch=1 n=f#5 v=57
120272 On ch=1 n=a7 v=0
120348 On ch=1 n=f#5 v=0
120384 On ch=1 n=a5 v=84
120560 On ch=1 n=a5 v=0
120612 On ch=1 n=b6 v=100
120612 On ch=1 n=g5 v=49
120624 On ch=1 n=b5 v=74
120628 On ch=1 n=d6 v=78
120632 Par ch=1 c=64 v=56
120648 On ch=1 n=g6 v=52
120648 Par ch=1 c=64 v=0
120688 On ch=1 n=b5 v=0
120692 On ch=1 n=d6 v=0
120696 Par ch=1 c=64 v=127
120696 On ch=1 n=g6 v=0
120732 On ch=1 n=b6 v=0
120852 On ch=1 n=g5 v=0
120856 On ch=1 n=d5 v=62
120996 On ch=1 n=g7 v=84
121052 On ch=1 n=g7 v=0
121128 On ch=1 n=d5 v=0
121136 On ch=1 n=g4 v=61
121192 On ch=1 n=g4 v=0
121440 On ch=1 n=e6 v=91
121444 On ch=1 n=d5 v=53
121444 Par ch=1 c=64 v=72
121452 On ch=1 n=b5 v=59
121452 On ch=1 n=g5 v=59
121456 Par ch=1 c=64 v=0
121480 On ch=1 n=a2 v=58
121508 On ch=1 n=a2 v=0
121516 On ch=1 n=d5 v=0
121524 Par ch=1 c=64 v=88
121528 On ch=1 n=g5 v=0
121536 Par ch=1 c=64 v=127
121552 On ch=1 n=b5 v=0
121584 On ch=1 n=e6 v=0
121640 On ch=1 n=a3 v=62
121736 On ch=1 n=a3 v=0
121764 On ch=1 n=g6 v=91
121840 On ch=1 n=e4 v=63
122000 On ch=1 n=e4 v=0
122024 On ch=1 n=b4 v=65
122168 On ch=1 n=b4 v=0
122228 On ch=1 n=d5 v=70
122360 On ch=1 n=d5 v=0
122412 On ch=1 n=f#5 v=72
122452 On ch=1 n=f#5 v=0
122596 On ch=1 n=g5 v=75
122792 On ch=1 n=f#5 v=67
122884 On ch=1 n=g5 v=0
122924 On ch=1 n=f#5 v=0
122972 On ch=1 n=e5 v=70
123072 On ch=1 n=e5 v=0
123112 On ch=1 n=g6 v=0
123180 On ch=1 n=d5 v=66
123304 On ch=1 n=d5 v=0
123400 On ch=1 n=b4 v=62
123500 On ch=1 n=d6 v=80
123500 On ch=1 n=d5 v=66
123560 On ch=1 n=b4 v=0
123596 On ch=1 n=d5 v=0
123596 On ch=1 n=d6 v=0
123608 On ch=1 n=e4 v=48
123680 On ch=1 n=e4 v=0
123808 On ch=1 n=c#6 v=89
123820 On ch=1 n=c#5 v=59
123828 On ch=1 n=a4 v=54
123832 Par ch=1 c=64 v=24
123836 On ch=1 n=g5 v=54
123844 Par ch=1 c=64 v=0
123880 On ch=1 n=g5 v=0
123892 On ch=1 n=c#5 v=0
123908 Par ch=1 c=64 v=72
123920 Par ch=1 c=64 v=127
123944 On ch=1 n=c#6 v=0
123996 On ch=1 n=f#4 v=52
123996 On ch=1 n=a4 v=0
124132 On ch=1 n=a6 v=80
124164 On ch=1 n=f#4 v=0
124204 On ch=1 n=e4 v=57
124228 On ch=1 n=e4 v=0
124364 On ch=1 n=b3 v=54
124364 On ch=1 n=a6 v=0
124488 On ch=1 n=b3 v=0
124540 On ch=1 n=a3 v=40
124560 On ch=1 n=a3 v=0
124736 On ch=1 n=d6 v=92
124736 On ch=1 n=d5 v=65
124816 On ch=1 n=d5 v=0
124832 On ch=1 n=a2 v=62
124860 On ch=1 n=d6 v=0
124928 On ch=1 n=a2 v=0
125140 On ch=1 n=d6 v=78
125156 On ch=1 n=b5 v=54
125160 On ch=1 n=d5 v=40
125168 On ch=1 n=b2 v=48
125212 Par ch=1 c=64 v=24
125228 Par ch=1 c=64 v=0
125280 On ch=1 n=d5 v=0
125304 Par ch=1 c=64 v=127
125308 On ch=1 n=b5 v=0
125336 On ch=1 n=d6 v=0
125392 On ch=1 n=b2 v=0
125416 On ch=1 n=b3 v=48
125448 On ch=1 n=b3 v=0
125528 On ch=1 n=b6 v=76
125636 On ch=1 n=f4 v=49
125724 On ch=1 n=f4 v=0
125804 On ch=1 n=f#4 v=49
125932 On ch=1 n=f#4 v=0
125988 On ch=1 n=b4 v=61
126160 On ch=1 n=b4 v=0
126168 On ch=1 n=c#5 v=52
126264 On ch=1 n=c#5 v=0
126364 On ch=1 n=d5 v=63
126448 On ch=1 n=d5 v=0
126504 On ch=1 n=b6 v=0
126532 On ch=1 n=f#4 v=49
126764 On ch=1 n=b3 v=53
126784 On ch=1 n=f#4 v=0
126800 On ch=1 n=b3 v=0
127096 Par ch=1 c=64 v=104
127108 Par ch=1 c=64 v=24
127112 On ch=1 n=c6 v=84
127120 Par ch=1 c=64 v=0
127124 On ch=1 n=a5 v=66
127128 On ch=1 n=c5 v=54
127132 On ch=1 n=d5 v=61
127132 On ch=1 n=e2 v=61
127156 On ch=1 n=e3 v=52
127176 On ch=1 n=e2 v=0
127188 Par ch=1 c=64 v=56
127200 Par ch=1 c=64 v=127
127212 On ch=1 n=e3 v=0
127220 On ch=1 n=c5 v=0
127236 On ch=1 n=d5 v=0
127264 On ch=1 n=c6 v=0
127388 On ch=1 n=d5 v=65
127476 On ch=1 n=d6 v=72
127548 On ch=1 n=d5 v=0
127584 On ch=1 n=a4 v=46
127636 On ch=1 n=a4 v=0
127776 On ch=1 n=g4 v=63
127840 On ch=1 n=g4 v=0
127964 On ch=1 n=d4 v=58
127980 On ch=1 n=d6 v=0
128004 On ch=1 n=a5 v=0
128028 On ch=1 n=d4 v=0
128152 On ch=1 n=e3 v=54
128380 On ch=1 n=a#5 v=84
128388 Par ch=1 c=64 v=104
128396 On ch=1 n=a#4 v=40
128400 Par ch=1 c=64 v=0
128416 On ch=1 n=g5 v=44
128480 Par ch=1 c=64 v=104
128484 On ch=1 n=a#4 v=0
128492 Par ch=1 c=64 v=127
128500 On ch=1 n=g5 v=0
128536 On ch=1 n=a#5 v=0
128564 On ch=1 n=e3 v=0
128628 On ch=1 n=d4 v=57
128772 On ch=1 n=g6 v=66
128832 On ch=1 n=g6 v=0
128892 On ch=1 n=a#4 v=54
128928 On ch=1 n=d4 v=0
128936 On ch=1 n=a#4 v=0
129168 On ch=1 n=f#4 v=66
129188 Par ch=1 c=64 v=72
129200 Par ch=1 c=64 v=0
129208 On ch=1 n=a2 v=59
129252 On ch=1 n=d5 v=61
129264 On ch=1 n=f#4 v=0
129276 Par ch=1 c=64 v=127
129308 On ch=1 n=a2 v=0
129388 On ch=1 n=a5 v=89
129388 On ch=1 n=d5 v=0
129448 On ch=1 n=a5 v=0
129596 On ch=1 n=a3 v=53
129716 On ch=1 n=f#6 v=67
129780 On ch=1 n=a3 v=0
129816 On ch=1 n=f#4 v=49
129980 On ch=1 n=f#4 v=0
130008 On ch=1 n=a4 v=66
130096 On ch=1 n=a4 v=0
130180 On ch=1 n=b4 v=68
130324 On ch=1 n=b4 v=0
130364 On ch=1 n=d5 v=75
130508 On ch=1 n=d5 v=0
130540 On ch=1 n=c#5 v=66
130664 On ch=1 n=c#5 v=0
130720 On ch=1 n=b4 v=53
130860 On ch=1 n=b4 v=0
130900 On ch=1 n=a4 v=71
130900 On ch=1 n=f#6 v=0
131016 On ch=1 n=a4 v=0
131088 On ch=1 n=b4 v=62
131204 On ch=1 n=b4 v=0
131256 On ch=1 n=a4 v=58
131376 On ch=1 n=a4 v=0
131440 On ch=1 n=f#4 v=59
131568 On ch=1 n=f#4 v=0
131664 Par ch=1 c=64 v=88
131668 On ch=1 n=g5 v=80
131680 On ch=1 n=c#5 v=44
131680 On ch=1 n=g4 v=50
131680 Par ch=1 c=64 v=0
131688 On ch=1 n=a4 v=52
131756 Par ch=1 c=64 v=88
131764 On ch=1 n=g4 v=0
131768 Par ch=1 c=64 v=127
131784 On ch=1 n=c#5 v=0
131792 On ch=1 n=g5 v=0
131792 On ch=1 n=a4 v=0
131848 On ch=1 n=f#4 v=58
131968 On ch=1 n=c#6 v=62
132012 On ch=1 n=f#4 v=0
132064 On ch=1 n=c#6 v=0
132092 On ch=1 n=e4 v=54
132180 On ch=1 n=e4 v=0
132260 On ch=1 n=a3 v=52
132316 On ch=1 n=a3 v=0
132476 On ch=1 n=a2 v=50
132536 On ch=1 n=a2 v=0
132736 On ch=1 n=f#5 v=76
132844 On ch=1 n=f#5 v=0
133152 On ch=1 n=f#5 v=67
133168 On ch=1 n=f#4 v=32
133172 On ch=1 n=d5 v=49
133188 Par ch=1 c=64 v=88
133200 Par ch=1 c=64 v=0
133216 On ch=1 n=d3 v=52
133292 Par ch=1 c=64 v=127
133292 On ch=1 n=f#4 v=0
133300 On ch=1 n=d5 v=0
133344 On ch=1 n=f#5 v=0
133404 On ch=1 n=d3 v=0
133460 On ch=1 n=a3 v=41
133540 On ch=1 n=d6 v=49
133564 On ch=1 n=a3 v=0
133616 On ch=1 n=f#4 v=46
133672 On ch=1 n=f#4 v=0
133796 On ch=1 n=a4 v=40
133808 On ch=1 n=d6 v=0
133904 On ch=1 n=a4 v=0
133952 On ch=1 n=b4 v=48
134048 On ch=1 n=e5 v=71
134084 On ch=1 n=b4 v=0
134148 On ch=1 n=c#5 v=55
134292 On ch=1 n=c#5 v=0
134304 On ch=1 n=e5 v=0
134328 On ch=1 n=f#5 v=70
134344 On ch=1 n=d5 v=57
134388 Par ch=1 c=64 v=56
134404 Par ch=1 c=64 v=40
134416 Par ch=1 c=64 v=72
134428 Par ch=1 c=64 v=127
134428 On ch=1 n=d5 v=0
134520 On ch=1 n=a4 v=52
134556 On ch=1 n=f#5 v=0
134616 On ch=1 n=b4 v=75
134632 On ch=1 n=a4 v=0
134744 On ch=1 n=g4 v=55
134848 On ch=1 n=b4 v=0
134892 On ch=1 n=g4 v=0
134916 On ch=1 n=c#5 v=66
134936 On ch=1 n=f#4 v=55
134956 Par ch=1 c=64 v=72
134968 Par ch=1 c=64 v=0
135048 Par ch=1 c=64 v=127
135084 On ch=1 n=f#4 v=0
135112 On ch=1 n=a4 v=57
135140 On ch=1 n=c#5 v=0
135184 On ch=1 n=d5 v=83
135244 On ch=1 n=a4 v=0
135312 On ch=1 n=b4 v=62
135344 On ch=1 n=d5 v=0
135476 On ch=1 n=b4 v=0
135500 On ch=1 n=f#5 v=79
135504 On ch=1 n=c#5 v=57
135536 Par ch=1 c=64 v=88
135548 Par ch=1 c=64 v=0
135612 Par ch=1 c=64 v=104
135628 Par ch=1 c=64 v=127
135672 On ch=1 n=c#5 v=0
135684 On ch=1 n=d5 v=80
135748 On ch=1 n=f#5 v=0
135792 On ch=1 n=a5 v=78
135852 On ch=1 n=d5 v=0
135900 On ch=1 n=e5 v=72
135932 On ch=1 n=a5 v=0
136080 On ch=1 n=e5 v=0
136104 On ch=1 n=f#5 v=44
136112 On ch=1 n=d6 v=84
136168 Par ch=1 c=64 v=56
136180 Par ch=1 c=64 v=0
136236 Par ch=1 c=64 v=104
136248 Par ch=1 c=64 v=127
136332 On ch=1 n=a5 v=59
136356 On ch=1 n=f#5 v=0
136404 On ch=1 n=d6 v=0
136420 On ch=1 n=a5 v=0
136444 On ch=1 n=e6 v=78
136584 On ch=1 n=c#6 v=46
136636 On ch=1 n=e6 v=0
136668 On ch=1 n=c#6 v=0
137052 On ch=1 n=d5 v=55
137052 On ch=1 n=b4 v=49
137052 On ch=1 n=d6 v=57
137052 On ch=1 n=g#5 v=62
137052 On ch=1 n=f#6 v=74
137052 On ch=1 n=b5 v=49
137052 On ch=1 n=f#5 v=49
137192 Par ch=1 c=64 v=88
137204 Par ch=1 c=64 v=0
137356 Par ch=1 c=64 v=72
137368 Par ch=1 c=64 v=127
138248 On ch=1 n=b5 v=0
138368 On ch=1 n=d5 v=0
138372 On ch=1 n=b4 v=0
138404 On ch=1 n=d6 v=0
138412 On ch=1 n=f#5 v=0
138428 On ch=1 n=f#6 v=0
138432 On ch=1 n=g#5 v=0
139332 On ch=1 n=e5 v=57
139332 On ch=1 n=g4 v=53
139336 On ch=1 n=c#5 v=44
139344 On ch=1 n=a3 v=52
139472 Par ch=1 c=64 v=88
139488 Par ch=1 c=64 v=0
139588 Par ch=1 c=64 v=88
139600 Par ch=1 c=64 v=127
140072 On ch=1 n=e5 v=0
140096 On ch=1 n=c#5 v=0
140236 On ch=1 n=g4 v=0
140284 On ch=1 n=d5 v=62
140356 On ch=1 n=a3 v=0
140392 On ch=1 n=d5 v=0
140696 On ch=1 n=d5 v=57
140708 On ch=1 n=f#4 v=32
140708 On ch=1 n=a3 v=33
140716 On ch=1 n=d3 v=28
140804 Par ch=1 c=64 v=88
140816 Par ch=1 c=64 v=0
140916 Par ch=1 c=64 v=72
140932 Par ch=1 c=64 v=127
141180 On ch=1 n=d3 v=0
141192 On ch=1 n=a3 v=0
141208 On ch=1 n=f#4 v=0
141228 On ch=1 n=d5 v=0
142544 Par ch=1 c=64 v=104
142556 Par ch=1 c=64 v=40
142568 Par ch=1 c=64 v=0
142568 Meta TrkEnd
TrkEnd
MTrk
0 Meta 0x21 00
0 Meta TrkName "Serge Rachmaninoff"
0 Meta TrkEnd
TrkEnd
MTrk
0 Meta 0x21 00
0 Meta TrkName "Copyright R Finley 1996"
0 Meta TrkEnd
TrkEnd
