MFile 1 6 384
MTrk
0 Tempo 309670
0 TimeSig 4/4 24 8
8064 Tempo 309670
8400 Tempo 309670
8448 Tempo 310390
8496 Tempo 311120
8544 Tempo 311850
8592 Tempo 312580
8640 Tempo 313310
8688 Tempo 314050
8736 Tempo 314790
8784 Tempo 315540
8832 Tempo 316280
8880 Tempo 317040
8928 Tempo 317790
8976 Tempo 318550
9024 Tempo 319310
9072 Tempo 306120
32256 Tempo 306120
32736 Tempo 306120
32832 Tempo 308584
32928 Tempo 311088
33024 Tempo 313632
33120 Tempo 316225
33216 Tempo 318870
33312 Tempo 321557
33408 Tempo 324271
33504 Tempo 327044
33600 Tempo 329857
33696 Tempo 347320
33792 Tempo 343640
33888 Tempo 340044
33984 Tempo 336514
34080 Tempo 333077
34176 Tempo 329700
34272 Tempo 326381
34368 Tempo 323141
34464 Tempo 319952
34560 Tempo 316835
34656 Tempo 313787
34752 Tempo 310779
34848 Tempo 307841
39360 Tempo 306120
39456 Tempo 312500
39552 Tempo 319140
39648 Tempo 326080
39744 Tempo 333330
39840 Tempo 340900
39936 Tempo 356610
40032 Tempo 351476
40128 Tempo 346489
40224 Tempo 341650
40320 Tempo 336934
40416 Tempo 332364
40512 Tempo 327898
40608 Tempo 323567
40704 Tempo 319331
40800 Tempo 315220
40896 Tempo 307290
55584 Tempo 306120
55680 Tempo 307239
55776 Tempo 308388
55872 Tempo 309537
55968 Tempo 310686
56064 Tempo 311868
56160 Tempo 313047
56256 Tempo 314225
56352 Tempo 315425
56448 Tempo 316624
56544 Tempo 317835
56640 Tempo 319065
56736 Tempo 320294
56832 Tempo 321532
56928 Tempo 322784
57024 Tempo 324054
57120 Tempo 325311
57216 Tempo 326591
57312 Tempo 327891
57408 Tempo 329181
57504 Tempo 330501
57600 Tempo 331831
57696 Tempo 333160
57792 Tempo 334497
57888 Tempo 335860
57984 Tempo 337230
58080 Tempo 338587
58176 Tempo 339987
58368 Tempo 341390
58464 Tempo 335190
58560 Tempo 329210
58656 Tempo 323450
58752 Tempo 317880
58848 Tempo 308480
81504 Tempo 308480
81600 Tempo 309604
81696 Tempo 310738
81792 Tempo 311875
81888 Tempo 313029
81984 Tempo 314182
82080 Tempo 315370
82176 Tempo 316544
82272 Tempo 317728
82368 Tempo 318925
82464 Tempo 320128
82560 Tempo 321342
82656 Tempo 322580
82752 Tempo 323804
82848 Tempo 325047
82944 Tempo 366410
83040 Tempo 361320
83136 Tempo 356376
83232 Tempo 351570
83328 Tempo 346887
83424 Tempo 342317
83520 Tempo 337887
83616 Tempo 333554
83712 Tempo 329334
83808 Tempo 325224
83904 Tempo 321214
84000 Tempo 317292
84096 Tempo 313484
84192 Tempo 309752
88608 Tempo 309670
88704 Tempo 322140
88800 Tempo 335660
88896 Tempo 350360
88992 Tempo 373250
89088 Tempo 366823
89184 Tempo 360622
89280 Tempo 354626
89376 Tempo 348830
89472 Tempo 343214
89568 Tempo 337774
89664 Tempo 332507
89760 Tempo 327420
89856 Tempo 322464
89952 Tempo 317655
90048 Tempo 312999
94368 Tempo 310880
94464 Tempo 316878
94560 Tempo 323105
94656 Tempo 329604
94752 Tempo 336354
94848 Tempo 343390
94944 Tempo 350740
95040 Tempo 358395
95136 Tempo 375000
95232 Tempo 365469
95328 Tempo 356430
95424 Tempo 347820
95520 Tempo 339610
95616 Tempo 331791
95712 Tempo 324320
95808 Tempo 317171
95904 Tempo 310341
105120 Tempo 309670
105216 Tempo 311940
105312 Tempo 314250
105408 Tempo 316580
105504 Tempo 318960
105600 Tempo 321370
105696 Tempo 323810
105792 Tempo 326290
105888 Tempo 328820
105984 Tempo 331380
106080 Tempo 333980
106176 Tempo 336620
106272 Tempo 339300
106368 Tempo 342030
106464 Tempo 344800
106560 Tempo 347620
106656 Tempo 350480
106752 Tempo 353390
106848 Tempo 356350
106944 Tempo 358200
107040 Tempo 364740
107136 Tempo 371510
107232 Tempo 409550
107328 Tempo 417390
107424 Tempo 425530
107520 Tempo 401330
107616 Tempo 350360
107712 Tempo 341680
107808 Tempo 333420
107904 Tempo 325550
108000 Tempo 318040
130272 Tempo 317040
130368 Tempo 319225
130464 Tempo 321454
130560 Tempo 323711
130656 Tempo 326010
130752 Tempo 328328
130848 Tempo 330684
130944 Tempo 333084
131040 Tempo 335500
131136 Tempo 337967
131232 Tempo 340467
131328 Tempo 343004
131424 Tempo 345569
131520 Tempo 348180
131616 Tempo 350836
131712 Tempo 353537
131808 Tempo 356262
131904 Tempo 359039
132000 Tempo 361870
132096 Tempo 359059
132192 Tempo 355143
132288 Tempo 351292
132384 Tempo 347547
132480 Tempo 343870
132576 Tempo 340270
132672 Tempo 336740
132768 Tempo 333281
132864 Tempo 329904
132960 Tempo 326597
133056 Tempo 323338
133152 Tempo 320161
137088 Tempo 319570
137184 Tempo 322354
137280 Tempo 325200
137376 Tempo 328084
137472 Tempo 330262
137568 Tempo 334014
137664 Tempo 337070
137760 Tempo 340173
137856 Tempo 343340
137952 Tempo 346563
138048 Tempo 349850
138144 Tempo 353193
138240 Tempo 371222
138336 Tempo 365850
138432 Tempo 360622
138528 Tempo 355550
138624 Tempo 350613
138720 Tempo 345820
138816 Tempo 341143
138912 Tempo 336600
139008 Tempo 332164
139104 Tempo 327860
139200 Tempo 323654
149280 Tempo 350360
149376 Tempo 350360
149472 Tempo 350360
149568 Tempo 350360
149664 Tempo 350360
149760 Tempo 350360
149856 Tempo 350360
149952 Tempo 350360
150048 Tempo 350360
150144 Tempo 350360
150240 Tempo 350360
150336 Tempo 350360
150432 Tempo 350360
150528 Tempo 350360
150624 Tempo 350360
150720 Tempo 364973
150816 Tempo 362606
150912 Tempo 360272
151008 Tempo 357965
151104 Tempo 355692
151200 Tempo 353460
151296 Tempo 351237
151392 Tempo 349054
151488 Tempo 346887
151584 Tempo 344743
151680 Tempo 342637
151776 Tempo 340553
151872 Tempo 338500
151968 Tempo 336467
152064 Tempo 334454
152160 Tempo 332467
152256 Tempo 330504
152352 Tempo 328557
152448 Tempo 326644
161952 Tempo 324760
162048 Tempo 326668
162144 Tempo 328607
162240 Tempo 330570
162336 Tempo 332547
162432 Tempo 334557
162528 Tempo 336600
162624 Tempo 338647
162720 Tempo 340737
162816 Tempo 351900
162912 Tempo 347873
163008 Tempo 343946
163104 Tempo 340110
163200 Tempo 336354
163296 Tempo 332691
163392 Tempo 329094
163488 Tempo 325587
207979 Meta TrkEnd
TrkEnd
MTrk
0 Meta TrkName "Op25 No6"
0 Par ch=1 c=10 v=10
4 SysEx f0 7e 00 00 7f f7
16 Par ch=1 c=0 v=0
20 Par ch=1 c=32 v=0
36 Par ch=1 c=91 v=127
40 Par ch=1 c=93 v=0
44 Par ch=1 c=101 v=0
48 Par ch=1 c=100 v=0
52 Par ch=1 c=6 v=2
33792 Par ch=1 c=10 v=64
33792 On ch=1 n=e8 v=88
33792 On ch=1 n=c#8 v=90
33956 Off ch=1 n=e8 v=0
33960 Off ch=1 n=c#8 v=0
33984 On ch=1 n=b7 v=70
33984 On ch=1 n=d#8 v=66
34172 Off ch=1 n=b7 v=0
34173 Off ch=1 n=d#8 v=0
34176 On ch=1 n=a#7 v=76
34176 On ch=1 n=c#8 v=90
34352 Off ch=1 n=a#7 v=0
34361 Off ch=1 n=c#8 v=0
34368 On ch=1 n=b7 v=58
34368 On ch=1 n=g#7 v=42
34545 Off ch=1 n=b7 v=0
34556 Off ch=1 n=g#7 v=0
34560 On ch=1 n=a#7 v=74
34560 On ch=1 n=g7 v=72
34752 On ch=1 n=e7 v=80
34752 On ch=1 n=g#7 v=68
34781 Off ch=1 n=g7 v=0
34805 Off ch=1 n=a#7 v=0
34944 On ch=1 n=g7 v=74
34944 On ch=1 n=d#7 v=49
34978 Off ch=1 n=e7 v=0
34994 Off ch=1 n=g#7 v=0
35119 Off ch=1 n=g7 v=0
35127 Off ch=1 n=d#7 v=0
35136 On ch=1 n=e7 v=80
35136 On ch=1 n=c#7 v=51
35328 On ch=1 n=d#7 v=54
35328 On ch=1 n=b6 v=62
35348 Off ch=1 n=c#7 v=0
35352 Off ch=1 n=e7 v=0
35520 Off ch=1 n=b6 v=0
35520 On ch=1 n=a#6 v=49
35520 On ch=1 n=c#7 v=70
35522 Off ch=1 n=d#7 v=0
35702 Off ch=1 n=c#7 v=0
35705 Off ch=1 n=a#6 v=0
35712 On ch=1 n=g#6 v=50
35712 On ch=1 n=b6 v=60
35904 On ch=1 n=g6 v=70
35904 On ch=1 n=a#6 v=56
35911 Off ch=1 n=b6 v=0
35919 Off ch=1 n=g#6 v=0
36004 Off ch=1 n=a#6 v=0
36096 On ch=1 n=g#6 v=68
36096 On ch=1 n=e6 v=70
36108 Off ch=1 n=g6 v=0
36288 On ch=1 n=g6 v=70
36288 On ch=1 n=d#6 v=44
36298 Off ch=1 n=e6 v=0
36315 Off ch=1 n=g#6 v=0
36479 Off ch=1 n=g6 v=0
36480 On ch=1 n=c#6 v=60
36480 On ch=1 n=e6 v=84
36481 Off ch=1 n=d#6 v=0
36654 Off ch=1 n=c#6 v=0
36672 On ch=1 n=b5 v=66
36672 On ch=1 n=d#6 v=44
36714 Off ch=1 n=e6 v=0
36837 Off ch=1 n=b5 v=0
36839 Off ch=1 n=d#6 v=0
46080 Par ch=1 c=10 v=64
46849 On ch=1 n=d#8 v=92
46853 On ch=1 n=b7 v=92
47029 On ch=1 n=c#8 v=30
47030 On ch=1 n=e8 v=66
47035 Off ch=1 n=b7 v=0
47035 Off ch=1 n=d#8 v=0
47216 On ch=1 n=d#8 v=64
47218 On ch=1 n=b7 v=58
47221 Off ch=1 n=e8 v=0
47243 Off ch=1 n=c#8 v=0
47309 Off ch=1 n=d#8 v=0
47405 On ch=1 n=a#7 v=49
47411 On ch=1 n=c#8 v=70
47425 Off ch=1 n=b7 v=0
47603 On ch=1 n=g#7 v=47
47604 On ch=1 n=b7 v=80
47623 Off ch=1 n=a#7 v=0
47627 Off ch=1 n=c#8 v=0
47797 On ch=1 n=a#7 v=53
47798 On ch=1 n=c#8 v=46
47813 Off ch=1 n=b7 v=0
47814 Off ch=1 n=g#7 v=0
47996 On ch=1 n=b7 v=72
47997 On ch=1 n=g#7 v=42
48014 Off ch=1 n=a#7 v=0
48026 Off ch=1 n=c#8 v=0
48061 Off ch=1 n=b7 v=0
48191 On ch=1 n=f#7 v=44
48192 On ch=1 n=a#7 v=62
48218 Off ch=1 n=g#7 v=0
48396 On ch=1 n=g#7 v=48
48399 On ch=1 n=e7 v=53
48418 Off ch=1 n=a#7 v=0
48422 Off ch=1 n=f#7 v=0
48581 On ch=1 n=f#7 v=49
48581 On ch=1 n=a#7 v=51
48602 Off ch=1 n=e7 v=0
48604 Off ch=1 n=g#7 v=0
48759 On ch=1 n=g#7 v=52
48760 On ch=1 n=e7 v=47
48789 Off ch=1 n=f#7 v=0
48791 Off ch=1 n=a#7 v=0
48867 Off ch=1 n=g#7 v=0
48945 On ch=1 n=d#7 v=43
48946 On ch=1 n=f#7 v=49
48964 Off ch=1 n=e7 v=0
49133 On ch=1 n=c#7 v=47
49135 On ch=1 n=e7 v=78
49155 Off ch=1 n=d#7 v=0
49162 Off ch=1 n=f#7 v=0
49322 On ch=1 n=f#7 v=48
49324 On ch=1 n=d#7 v=53
49342 Off ch=1 n=e7 v=0
49347 Off ch=1 n=c#7 v=0
49510 On ch=1 n=e7 v=76
49512 On ch=1 n=c#7 v=43
49541 Off ch=1 n=f#7 v=0
49569 Off ch=1 n=d#7 v=0
49589 Off ch=1 n=e7 v=0
49706 On ch=1 n=b6 v=58
49706 On ch=1 n=d#7 v=56
49727 Off ch=1 n=c#7 v=0
49901 On ch=1 n=a#6 v=50
49902 On ch=1 n=c#7 v=50
49922 Off ch=1 n=b6 v=0
49929 Off ch=1 n=d#7 v=0
50098 On ch=1 n=b6 v=76
50098 On ch=1 n=d#7 v=48
50118 Off ch=1 n=a#6 v=0
50119 Off ch=1 n=c#7 v=0
50284 On ch=1 n=a#6 v=47
50284 On ch=1 n=c#7 v=58
50299 Off ch=1 n=b6 v=0
50315 Off ch=1 n=d#7 v=0
50380 Off ch=1 n=c#7 v=0
50474 On ch=1 n=b6 v=78
50498 Off ch=1 n=a#6 v=0
50498 On ch=1 n=g#6 v=42
50668 On ch=1 n=a#6 v=62
50669 On ch=1 n=f#6 v=50
50686 Off ch=1 n=b6 v=0
50693 Off ch=1 n=g#6 v=0
50859 On ch=1 n=b6 v=72
50861 On ch=1 n=g#6 v=49
50879 Off ch=1 n=a#6 v=0
50883 Off ch=1 n=f#6 v=0
51048 On ch=1 n=a#6 v=53
51053 On ch=1 n=f#6 v=47
51060 Off ch=1 n=b6 v=0
51078 Off ch=1 n=g#6 v=0
51141 Off ch=1 n=a#6 v=0
51245 On ch=1 n=e6 v=48
51245 On ch=1 n=g#6 v=31
51271 Off ch=1 n=f#6 v=0
51426 Off ch=1 n=g#6 v=0
51429 On ch=1 n=d#6 v=45
51431 On ch=1 n=f#6 v=45
51457 Off ch=1 n=e6 v=0
51624 On ch=1 n=g#6 v=48
51628 On ch=1 n=e6 v=72
51647 Off ch=1 n=f#6 v=0
51651 Off ch=1 n=d#6 v=0
51814 On ch=1 n=f#6 v=48
51815 On ch=1 n=d#6 v=43
51833 Off ch=1 n=e6 v=0
51843 Off ch=1 n=g#6 v=0
51893 Off ch=1 n=f#6 v=0
52000 On ch=1 n=c#6 v=45
52001 On ch=1 n=e6 v=76
52025 Off ch=1 n=d#6 v=0
52150 Off ch=1 n=c#6 v=0
52152 Off ch=1 n=e6 v=0
70653 Par ch=1 c=10 v=64
70653 On ch=1 n=d6 v=74
70653 On ch=1 n=f6 v=76
70844 On ch=1 n=g6 v=66
70844 On ch=1 n=e6 v=62
70863 Off ch=1 n=d6 v=0
70864 Off ch=1 n=f6 v=0
71047 On ch=1 n=f6 v=62
71050 On ch=1 n=d6 v=68
71058 Off ch=1 n=e6 v=0
71073 Off ch=1 n=g6 v=0
71237 On ch=1 n=e6 v=70
71240 On ch=1 n=g6 v=78
71258 Off ch=1 n=d6 v=0
71260 Off ch=1 n=f6 v=0
71446 On ch=1 n=f6 v=70
71449 On ch=1 n=d6 v=78
71471 Off ch=1 n=g6 v=0
71473 Off ch=1 n=e6 v=0
71626 On ch=1 n=e6 v=70
71627 On ch=1 n=g6 v=72
71647 Off ch=1 n=d6 v=0
71649 Off ch=1 n=f6 v=0
71811 On ch=1 n=f6 v=70
71812 On ch=1 n=d6 v=68
71836 Off ch=1 n=g6 v=0
71836 Off ch=1 n=e6 v=0
71990 On ch=1 n=e6 v=74
71992 On ch=1 n=g6 v=72
72012 Off ch=1 n=f6 v=0
72013 Off ch=1 n=d6 v=0
72170 On ch=1 n=f6 v=64
72174 On ch=1 n=d6 v=72
72195 Off ch=1 n=g6 v=0
72196 Off ch=1 n=e6 v=0
72364 On ch=1 n=e6 v=74
72367 On ch=1 n=g6 v=80
72385 Off ch=1 n=d6 v=0
72392 Off ch=1 n=f6 v=0
72545 On ch=1 n=f6 v=68
72549 On ch=1 n=d6 v=70
72570 Off ch=1 n=g6 v=0
72570 Off ch=1 n=e6 v=0
72736 On ch=1 n=e6 v=70
72737 On ch=1 n=g6 v=74
72757 Off ch=1 n=f6 v=0
72759 Off ch=1 n=d6 v=0
72933 On ch=1 n=f6 v=62
72933 On ch=1 n=d6 v=62
72953 Off ch=1 n=g6 v=0
72959 Off ch=1 n=e6 v=0
73133 On ch=1 n=g6 v=68
73134 On ch=1 n=e6 v=68
73153 Off ch=1 n=f6 v=0
73156 Off ch=1 n=d6 v=0
73321 On ch=1 n=f6 v=58
73327 On ch=1 n=d6 v=66
73338 Off ch=1 n=g6 v=0
73349 Off ch=1 n=e6 v=0
73510 On ch=1 n=e6 v=70
73511 On ch=1 n=g6 v=72
73532 Off ch=1 n=f6 v=0
73533 Off ch=1 n=d6 v=0
73707 On ch=1 n=d6 v=68
73712 On ch=1 n=f6 v=66
73731 Off ch=1 n=e6 v=0
73741 Off ch=1 n=g6 v=0
73901 On ch=1 n=e6 v=68
73902 On ch=1 n=g6 v=70
73923 Off ch=1 n=f6 v=0
73924 Off ch=1 n=d6 v=0
74094 On ch=1 n=f6 v=62
74097 On ch=1 n=d6 v=68
74112 Off ch=1 n=e6 v=0
74121 Off ch=1 n=g6 v=0
74287 On ch=1 n=c#6 v=45
74289 On ch=1 n=e6 v=68
74312 Off ch=1 n=d6 v=0
74347 Off ch=1 n=f6 v=0
74484 On ch=1 n=f6 v=70
74489 On ch=1 n=d6 v=72
74501 Off ch=1 n=e6 v=0
74509 Off ch=1 n=c#6 v=0
74684 On ch=1 n=e6 v=66
74686 On ch=1 n=g6 v=78
74709 Off ch=1 n=d6 v=0
74709 Off ch=1 n=f6 v=0
74870 On ch=1 n=f6 v=68
74871 On ch=1 n=d6 v=72
74888 Off ch=1 n=e6 v=0
74898 Off ch=1 n=g6 v=0
75050 On ch=1 n=c#6 v=47
75052 On ch=1 n=e6 v=74
75074 Off ch=1 n=d6 v=0
75081 Off ch=1 n=f6 v=0
75246 On ch=1 n=f6 v=70
75251 On ch=1 n=d6 v=74
75259 Off ch=1 n=e6 v=0
75271 Off ch=1 n=c#6 v=0
75438 On ch=1 n=e6 v=76
75438 On ch=1 n=g6 v=82
75463 Off ch=1 n=d6 v=0
75464 Off ch=1 n=f6 v=0
75630 On ch=1 n=f6 v=64
75633 On ch=1 n=d6 v=72
75652 Off ch=1 n=e6 v=0
75662 Off ch=1 n=g6 v=0
75822 On ch=1 n=c#6 v=46
75825 On ch=1 n=e6 v=70
75847 Off ch=1 n=d6 v=0
75855 Off ch=1 n=f6 v=0
76008 On ch=1 n=f6 v=72
76012 On ch=1 n=d6 v=72
76028 Off ch=1 n=e6 v=0
76032 Off ch=1 n=c#6 v=0
76207 On ch=1 n=g6 v=78
76207 On ch=1 n=e6 v=74
76231 Off ch=1 n=f6 v=0
76236 Off ch=1 n=d6 v=0
76392 On ch=1 n=f6 v=58
76397 On ch=1 n=d6 v=66
76415 Off ch=1 n=e6 v=0
76422 Off ch=1 n=g6 v=0
76569 On ch=1 n=c#6 v=43
76571 On ch=1 n=e6 v=68
76593 Off ch=1 n=d6 v=0
76598 Off ch=1 n=f6 v=0
76777 On ch=1 n=f6 v=68
76782 On ch=1 n=d6 v=68
76787 Off ch=1 n=e6 v=0
76799 Off ch=1 n=c#6 v=0
76967 On ch=1 n=d#6 v=72
76967 On ch=1 n=f#6 v=72
76990 Off ch=1 n=f6 v=0
76994 Off ch=1 n=d6 v=0
77166 On ch=1 n=g6 v=76
77168 On ch=1 n=e6 v=70
77185 Off ch=1 n=f#6 v=0
77187 Off ch=1 n=d#6 v=0
77350 On ch=1 n=f6 v=70
77350 On ch=1 n=g#6 v=52
77371 Off ch=1 n=g6 v=0
77376 Off ch=1 n=e6 v=0
77546 On ch=1 n=f#6 v=58
77547 On ch=1 n=a6 v=74
77568 Off ch=1 n=g#6 v=0
77574 Off ch=1 n=f6 v=0
77745 On ch=1 n=g6 v=58
77746 On ch=1 n=a#6 v=47
77765 Off ch=1 n=f#6 v=0
77777 Off ch=1 n=a6 v=0
77928 On ch=1 n=b6 v=78
77929 On ch=1 n=g#6 v=54
77948 Off ch=1 n=a#6 v=0
77958 Off ch=1 n=g6 v=0
78117 On ch=1 n=c7 v=68
78121 On ch=1 n=a6 v=64
78139 Off ch=1 n=g#6 v=0
78142 Off ch=1 n=b6 v=0
78305 On ch=1 n=a#6 v=74
78307 On ch=1 n=c#7 v=84
78326 Off ch=1 n=c7 v=0
78329 Off ch=1 n=a6 v=0
78501 On ch=1 n=d7 v=80
78502 On ch=1 n=b6 v=74
78520 Off ch=1 n=c#7 v=0
78522 Off ch=1 n=a#6 v=0
78686 On ch=1 n=d#7 v=62
78686 On ch=1 n=c7 v=78
78706 Off ch=1 n=d7 v=0
78713 Off ch=1 n=b6 v=0
78880 On ch=1 n=c#7 v=49
78882 On ch=1 n=e7 v=74
78903 Off ch=1 n=d#7 v=0
78908 Off ch=1 n=c7 v=0
79073 On ch=1 n=f7 v=74
79076 On ch=1 n=d7 v=68
79099 Off ch=1 n=e7 v=0
79100 Off ch=1 n=c#7 v=0
79265 On ch=1 n=f#7 v=72
79265 On ch=1 n=d#7 v=60
79287 Off ch=1 n=f7 v=0
79292 Off ch=1 n=d7 v=0
79449 On ch=1 n=g7 v=80
79452 On ch=1 n=e7 v=70
79467 Off ch=1 n=f#7 v=0
79470 Off ch=1 n=d#7 v=0
79638 On ch=1 n=g#7 v=70
79640 On ch=1 n=f7 v=78
79659 Off ch=1 n=g7 v=0
79663 Off ch=1 n=e7 v=0
79837 On ch=1 n=a7 v=78
79837 On ch=1 n=f#7 v=66
79858 Off ch=1 n=g#7 v=0
79860 Off ch=1 n=f7 v=0
80031 On ch=1 n=a#7 v=72
80033 On ch=1 n=g7 v=78
80051 Off ch=1 n=a7 v=0
80058 Off ch=1 n=f#7 v=0
80221 On ch=1 n=b7 v=80
80228 Off ch=1 n=a#7 v=0
80228 On ch=1 n=g#7 v=58
80249 Off ch=1 n=g7 v=0
80420 On ch=1 n=c8 v=68
80422 On ch=1 n=a7 v=66
80441 Off ch=1 n=g#7 v=0
80446 Off ch=1 n=b7 v=0
80610 On ch=1 n=a#7 v=78
80611 On ch=1 n=c#8 v=88
80630 Off ch=1 n=c8 v=0
80636 Off ch=1 n=a7 v=0
80806 On ch=1 n=d8 v=84
80807 On ch=1 n=b7 v=76
80826 Off ch=1 n=c#8 v=0
80828 Off ch=1 n=a#7 v=0
80992 On ch=1 n=d#8 v=82
80994 On ch=1 n=c8 v=84
81009 Off ch=1 n=d8 v=0
81019 Off ch=1 n=b7 v=0
81183 On ch=1 n=c#8 v=76
81184 On ch=1 n=e8 v=88
81207 Off ch=1 n=c8 v=0
81211 Off ch=1 n=d#8 v=0
81380 Off ch=1 n=e8 v=0
81387 Off ch=1 n=c#8 v=0
81393 On ch=1 n=d8 v=98
81393 On ch=1 n=f8 v=100
81555 Off ch=1 n=f8 v=0
81556 Off ch=1 n=d8 v=0
82938 Par ch=1 c=10 v=64
82954 On ch=1 n=f8 v=58
82955 On ch=1 n=d8 v=68
83154 On ch=1 n=b7 v=56
83155 On ch=1 n=g7 v=64
83162 Off ch=1 n=f8 v=0
83171 Off ch=1 n=d8 v=0
83346 On ch=1 n=e8 v=68
83346 On ch=1 n=c8 v=70
83356 Off ch=1 n=b7 v=0
83359 Off ch=1 n=g7 v=0
83526 On ch=1 n=a7 v=50
83530 On ch=1 n=f7 v=52
83540 Off ch=1 n=e8 v=0
83546 Off ch=1 n=c8 v=0
83707 On ch=1 n=d8 v=53
83710 On ch=1 n=b7 v=74
83734 Off ch=1 n=a7 v=0
83741 Off ch=1 n=f7 v=0
83890 On ch=1 n=e7 v=60
83891 On ch=1 n=g7 v=70
83900 Off ch=1 n=d8 v=0
83918 Off ch=1 n=b7 v=0
84074 On ch=1 n=c8 v=58
84074 On ch=1 n=a7 v=50
84094 Off ch=1 n=g7 v=0
84094 Off ch=1 n=e7 v=0
84258 On ch=1 n=d7 v=54
84260 On ch=1 n=f7 v=54
84268 Off ch=1 n=c8 v=0
84285 Off ch=1 n=a7 v=0
84441 On ch=1 n=g7 v=56
84443 On ch=1 n=b7 v=58
84466 Off ch=1 n=f7 v=0
84468 Off ch=1 n=d7 v=0
84633 On ch=1 n=c7 v=53
84634 On ch=1 n=e7 v=52
84646 Off ch=1 n=b7 v=0
84661 Off ch=1 n=g7 v=0
84831 On ch=1 n=a7 v=50
84833 On ch=1 n=f7 v=56
84849 Off ch=1 n=c7 v=0
84853 Off ch=1 n=e7 v=0
85017 On ch=1 n=d7 v=58
85018 On ch=1 n=b6 v=52
85034 Off ch=1 n=a7 v=0
85048 Off ch=1 n=f7 v=0
85208 On ch=1 n=g7 v=60
85209 On ch=1 n=e7 v=48
85226 Off ch=1 n=b6 v=0
85230 Off ch=1 n=d7 v=0
85398 On ch=1 n=c7 v=49
85398 On ch=1 n=a6 v=49
85409 Off ch=1 n=g7 v=0
85424 Off ch=1 n=e7 v=0
85595 On ch=1 n=f7 v=54
85597 On ch=1 n=d7 v=52
85606 Off ch=1 n=a6 v=0
85620 Off ch=1 n=c7 v=0
85788 On ch=1 n=b6 v=52
85788 On ch=1 n=g6 v=50
85793 Off ch=1 n=f7 v=0
85812 Off ch=1 n=d7 v=0
85980 On ch=1 n=c7 v=50
85980 On ch=1 n=e7 v=51
85997 Off ch=1 n=g6 v=0
85999 Off ch=1 n=b6 v=0
86170 On ch=1 n=a6 v=50
86172 On ch=1 n=f6 v=44
86190 Off ch=1 n=e7 v=0
86197 Off ch=1 n=c7 v=0
86366 On ch=1 n=b6 v=48
86368 On ch=1 n=d7 v=52
86382 Off ch=1 n=f6 v=0
86390 Off ch=1 n=a6 v=0
86554 On ch=1 n=g6 v=49
86556 On ch=1 n=e6 v=43
86570 Off ch=1 n=d7 v=0
86582 Off ch=1 n=b6 v=0
86750 On ch=1 n=c7 v=52
86752 On ch=1 n=a6 v=50
86769 Off ch=1 n=e6 v=0
86779 Off ch=1 n=g6 v=0
86944 On ch=1 n=f6 v=46
86947 On ch=1 n=d6 v=42
86968 Off ch=1 n=c7 v=0
86969 Off ch=1 n=a6 v=0
87148 On ch=1 n=g6 v=53
87148 On ch=1 n=b6 v=51
87170 Off ch=1 n=f6 v=0
87172 Off ch=1 n=d6 v=0
87335 On ch=1 n=e6 v=48
87335 On ch=1 n=c6 v=48
87346 Off ch=1 n=b6 v=0
87360 Off ch=1 n=g6 v=0
87527 On ch=1 n=a6 v=56
87527 On ch=1 n=f6 v=50
87549 Off ch=1 n=e6 v=0
87554 Off ch=1 n=c6 v=0
87722 On ch=1 n=b5 v=49
87723 On ch=1 n=d6 v=48
87728 Off ch=1 n=a6 v=0
87747 Off ch=1 n=f6 v=0
87912 On ch=1 n=e6 v=48
87913 On ch=1 n=g6 v=56
87925 Off ch=1 n=b5 v=0
87932 Off ch=1 n=d6 v=0
88095 On ch=1 n=a5 v=48
88095 On ch=1 n=c6 v=52
88105 Off ch=1 n=g6 v=0
88115 Off ch=1 n=e6 v=0
88283 On ch=1 n=f6 v=53
88285 On ch=1 n=d6 v=52
88303 Off ch=1 n=a5 v=0
88304 Off ch=1 n=c6 v=0
88475 On ch=1 n=g5 v=49
88477 On ch=1 n=b5 v=53
88483 Off ch=1 n=f6 v=0
88493 Off ch=1 n=d6 v=0
88671 Off ch=1 n=g5 v=0
88671 On ch=1 n=e6 v=60
88672 On ch=1 n=c6 v=54
88674 Off ch=1 n=b5 v=0
88758 Off ch=1 n=c6 v=0
88764 Off ch=1 n=e6 v=0
89076 On ch=1 n=c8 v=82
89076 On ch=1 n=d#8 v=68
89086 Par ch=1 c=10 v=64
89270 On ch=1 n=a7 v=62
89272 On ch=1 n=f7 v=64
89284 Off ch=1 n=c8 v=0
89295 Off ch=1 n=d#8 v=0
89459 On ch=1 n=a#7 v=48
89463 On ch=1 n=d8 v=70
89475 Off ch=1 n=a7 v=0
89479 Off ch=1 n=f7 v=0
89645 Off ch=1 n=d8 v=0
89651 On ch=1 n=d#7 v=37
89653 On ch=1 n=g7 v=64
89680 Off ch=1 n=a#7 v=0
89829 On ch=1 n=a7 v=54
89833 On ch=1 n=c8 v=66
89843 Off ch=1 n=g7 v=0
89864 Off ch=1 n=d#7 v=0
90008 On ch=1 n=f7 v=74
90010 On ch=1 n=d7 v=52
90012 Off ch=1 n=c8 v=0
90027 Off ch=1 n=a7 v=0
90194 On ch=1 n=a#7 v=47
90198 On ch=1 n=g7 v=72
90209 Off ch=1 n=f7 v=0
90210 Off ch=1 n=d7 v=0
90380 On ch=1 n=d#7 v=46
90386 On ch=1 n=c7 v=54
90394 Off ch=1 n=g7 v=0
90401 Off ch=1 n=a#7 v=0
90576 On ch=1 n=a7 v=64
90576 On ch=1 n=f7 v=68
90593 Off ch=1 n=c7 v=0
90597 Off ch=1 n=d#7 v=0
90778 Off ch=1 n=a7 v=0
90781 On ch=1 n=a#6 v=44
90783 On ch=1 n=d7 v=76
90801 Off ch=1 n=f7 v=0
90980 On ch=1 n=g7 v=70
90982 On ch=1 n=d#7 v=52
90993 Off ch=1 n=d7 v=0
91018 Off ch=1 n=a#6 v=0
91171 Off ch=1 n=g7 v=0
91175 On ch=1 n=a6 v=54
91176 On ch=1 n=c7 v=72
91206 Off ch=1 n=d#7 v=0
91371 On ch=1 n=f7 v=64
91372 On ch=1 n=d7 v=64
91388 Off ch=1 n=c7 v=0
91558 Off ch=1 n=f7 v=0
91558 Off ch=1 n=a6 v=0
91558 On ch=1 n=a#6 v=44
91561 On ch=1 n=g6 v=47
91578 Off ch=1 n=d7 v=0
91751 On ch=1 n=d#7 v=37
91753 On ch=1 n=c7 v=52
91759 Off ch=1 n=g6 v=0
91779 Off ch=1 n=a#6 v=0
91929 On ch=1 n=a6 v=53
91938 On ch=1 n=f6 v=37
91953 Off ch=1 n=c7 v=0
91954 Off ch=1 n=d#7 v=0
92125 On ch=1 n=a#6 v=50
92128 On ch=1 n=d7 v=60
92150 Off ch=1 n=a6 v=0
92160 Off ch=1 n=f6 v=0
92316 Off ch=1 n=d7 v=0
92316 On ch=1 n=d#6 v=26
92317 On ch=1 n=g6 v=50
92354 Off ch=1 n=a#6 v=0
92511 On ch=1 n=a6 v=56
92513 On ch=1 n=c7 v=64
92523 Off ch=1 n=g6 v=0
92554 Off ch=1 n=d#6 v=0
92691 Off ch=1 n=c7 v=0
92691 On ch=1 n=f6 v=48
92699 On ch=1 n=d6 v=39
92720 Off ch=1 n=a6 v=0
92898 On ch=1 n=a#6 v=46
92899 On ch=1 n=g6 v=66
92915 Off ch=1 n=f6 v=0
92924 Off ch=1 n=d6 v=0
93083 On ch=1 n=d#6 v=47
93088 On ch=1 n=c6 v=50
93100 Off ch=1 n=g6 v=0
93111 Off ch=1 n=a#6 v=0
93285 On ch=1 n=a6 v=56
93285 On ch=1 n=f6 v=53
93305 Off ch=1 n=c6 v=0
93312 Off ch=1 n=d#6 v=0
93461 Off ch=1 n=a6 v=0
93468 On ch=1 n=d6 v=44
93469 On ch=1 n=a#5 v=41
93488 Off ch=1 n=f6 v=0
93661 On ch=1 n=g6 v=64
93662 On ch=1 n=d#6 v=45
93678 Off ch=1 n=d6 v=0
93703 Off ch=1 n=a#5 v=0
93842 Off ch=1 n=g6 v=0
93847 On ch=1 n=c6 v=66
93848 On ch=1 n=a5 v=52
93878 Off ch=1 n=d#6 v=0
94041 On ch=1 n=d6 v=60
94044 On ch=1 n=f6 v=72
94060 Off ch=1 n=a5 v=0
94061 Off ch=1 n=c6 v=0
94219 Off ch=1 n=f6 v=0
94219 On ch=1 n=a#5 v=49
94223 On ch=1 n=g5 v=53
94233 Off ch=1 n=d6 v=0
94426 On ch=1 n=d#6 v=47
94428 On ch=1 n=c6 v=64
94445 Off ch=1 n=g5 v=0
94455 Off ch=1 n=a#5 v=0
94617 On ch=1 n=a5 v=78
94620 On ch=1 n=f5 v=56
94637 Off ch=1 n=c6 v=0
94648 Off ch=1 n=d#6 v=0
94818 On ch=1 n=d6 v=88
94852 Off ch=1 n=f5 v=0
95029 Off ch=1 n=d6 v=0
95209 On ch=1 n=c#6 v=74
95214 On ch=1 n=c#5 v=112
95409 Off ch=1 n=a5 v=0
95433 Off ch=1 n=c#5 v=0
95436 Off ch=1 n=c#6 v=0
95628 On ch=1 n=a#7 v=98
95628 On ch=1 n=c#8 v=94
95708 Par ch=1 c=10 v=64
95807 On ch=1 n=g7 v=92
95814 On ch=1 n=e7 v=82
95822 Off ch=1 n=c#8 v=0
95823 Off ch=1 n=a#7 v=0
95987 On ch=1 n=a#7 v=98
95987 On ch=1 n=c#8 v=96
95996 Off ch=1 n=e7 v=0
96005 Off ch=1 n=g7 v=0
96167 On ch=1 n=g7 v=90
96172 On ch=1 n=e7 v=80
96182 Off ch=1 n=c#8 v=0
96182 Off ch=1 n=a#7 v=0
96354 On ch=1 n=a7 v=84
96356 On ch=1 n=c8 v=84
96366 Off ch=1 n=e7 v=0
96368 Off ch=1 n=g7 v=0
96534 On ch=1 n=f#7 v=76
96536 On ch=1 n=d#7 v=76
96537 Off ch=1 n=c8 v=0
96548 Off ch=1 n=a7 v=0
96720 On ch=1 n=g#7 v=76
96724 On ch=1 n=b7 v=90
96742 Off ch=1 n=f#7 v=0
96908 Off ch=1 n=d#7 v=0
96908 On ch=1 n=f7 v=90
96909 On ch=1 n=d7 v=82
96919 Off ch=1 n=b7 v=0
96936 Off ch=1 n=g#7 v=0
97103 On ch=1 n=g7 v=88
97103 On ch=1 n=a#7 v=74
97122 Off ch=1 n=f7 v=0
97124 Off ch=1 n=d7 v=0
97299 On ch=1 n=e7 v=88
97301 On ch=1 n=c#7 v=70
97313 Off ch=1 n=g7 v=0
97319 Off ch=1 n=a#7 v=0
97501 On ch=1 n=f#7 v=76
97503 On ch=1 n=a7 v=92
97520 Off ch=1 n=e7 v=0
97522 Off ch=1 n=c#7 v=0
97692 On ch=1 n=d#7 v=66
97695 On ch=1 n=c7 v=82
97702 Off ch=1 n=a7 v=0
97714 Off ch=1 n=f#7 v=0
97886 On ch=1 n=f7 v=88
97887 On ch=1 n=g#7 v=78
97899 Off ch=1 n=d#7 v=0
97905 Off ch=1 n=c7 v=0
98070 On ch=1 n=d7 v=84
98073 On ch=1 n=b6 v=74
98084 Off ch=1 n=g#7 v=0
98088 Off ch=1 n=f7 v=0
98258 On ch=1 n=e7 v=80
98258 On ch=1 n=g7 v=86
98274 Off ch=1 n=d7 v=0
98280 Off ch=1 n=b6 v=0
98442 Off ch=1 n=g7 v=0
98443 On ch=1 n=c#7 v=72
98445 On ch=1 n=a#6 v=70
98455 Off ch=1 n=e7 v=0
98628 On ch=1 n=f#7 v=80
98629 On ch=1 n=d#7 v=90
98651 Off ch=1 n=c#7 v=0
98656 Off ch=1 n=a#6 v=0
98820 On ch=1 n=c7 v=86
98822 On ch=1 n=a6 v=80
98832 Off ch=1 n=f#7 v=0
98836 Off ch=1 n=d#7 v=0
99012 On ch=1 n=f7 v=80
99013 On ch=1 n=d7 v=84
99031 Off ch=1 n=a6 v=0
99032 Off ch=1 n=c7 v=0
99199 On ch=1 n=b6 v=84
99200 On ch=1 n=g#6 v=56
99211 Off ch=1 n=f7 v=0
99213 Off ch=1 n=d7 v=0
99399 On ch=1 n=c#7 v=60
99402 On ch=1 n=e7 v=82
99418 Off ch=1 n=b6 v=0
99427 Off ch=1 n=g#6 v=0
99591 On ch=1 n=a#6 v=60
99594 On ch=1 n=g6 v=72
99603 Off ch=1 n=e7 v=0
99617 Off ch=1 n=c#7 v=0
99785 On ch=1 n=c7 v=84
99786 On ch=1 n=d#7 v=72
99806 Off ch=1 n=g6 v=0
99806 Off ch=1 n=a#6 v=0
99974 On ch=1 n=f#6 v=53
99975 On ch=1 n=a6 v=82
99991 Off ch=1 n=d#7 v=0
99992 Off ch=1 n=c7 v=0
100165 On ch=1 n=b6 v=84
100168 On ch=1 n=d7 v=86
100182 Off ch=1 n=a6 v=0
100197 Off ch=1 n=f#6 v=0
100345 On ch=1 n=f6 v=72
100345 On ch=1 n=g#6 v=78
100354 Off ch=1 n=d7 v=0
100360 Off ch=1 n=b6 v=0
100543 On ch=1 n=a#6 v=88
100547 On ch=1 n=c#7 v=86
100571 Off ch=1 n=f6 v=0
100572 Off ch=1 n=g#6 v=0
100738 On ch=1 n=g6 v=84
100741 On ch=1 n=e6 v=72
100756 Off ch=1 n=c#7 v=0
100761 Off ch=1 n=a#6 v=0
100934 On ch=1 n=a6 v=82
100953 Off ch=1 n=g6 v=0
100953 On ch=1 n=c7 v=84
100959 Off ch=1 n=e6 v=0
101143 On ch=1 n=f#6 v=72
101145 On ch=1 n=d#6 v=70
101156 Off ch=1 n=c7 v=0
101165 Off ch=1 n=a6 v=0
101304 Off ch=1 n=f#6 v=0
101310 Off ch=1 n=d#6 v=0
119781 Par ch=1 c=10 v=64
119781 On ch=1 n=d#6 v=50
119781 On ch=1 n=f#6 v=48
119978 On ch=1 n=g#6 v=52
119984 On ch=1 n=e6 v=68
120008 Off ch=1 n=f#6 v=0
120011 Off ch=1 n=d#6 v=0
120179 On ch=1 n=d#6 v=52
120183 On ch=1 n=f#6 v=56
120201 Off ch=1 n=e6 v=0
120208 Off ch=1 n=g#6 v=0
120361 On ch=1 n=g#6 v=54
120363 On ch=1 n=e6 v=68
120386 Off ch=1 n=d#6 v=0
120387 Off ch=1 n=f#6 v=0
120538 On ch=1 n=d#6 v=44
120539 On ch=1 n=f#6 v=48
120559 Off ch=1 n=e6 v=0
120570 Off ch=1 n=g#6 v=0
120712 On ch=1 n=g#6 v=50
120719 On ch=1 n=e6 v=64
120741 Off ch=1 n=f#6 v=0
120742 Off ch=1 n=d#6 v=0
120893 On ch=1 n=d#6 v=50
120898 On ch=1 n=f#6 v=53
120915 Off ch=1 n=e6 v=0
120923 Off ch=1 n=g#6 v=0
121101 On ch=1 n=g#6 v=54
121104 On ch=1 n=e6 v=66
121123 Off ch=1 n=f#6 v=0
121125 Off ch=1 n=d#6 v=0
121304 On ch=1 n=d#6 v=45
121305 On ch=1 n=f#6 v=44
121325 Off ch=1 n=e6 v=0
121335 Off ch=1 n=g#6 v=0
121503 On ch=1 n=e6 v=62
121504 On ch=1 n=g#6 v=49
121527 Off ch=1 n=d#6 v=0
121529 Off ch=1 n=f#6 v=0
121695 On ch=1 n=d#6 v=43
121696 On ch=1 n=f#6 v=47
121717 Off ch=1 n=e6 v=0
121723 Off ch=1 n=g#6 v=0
121878 On ch=1 n=g#6 v=50
121880 On ch=1 n=e6 v=58
121901 Off ch=1 n=f#6 v=0
121904 Off ch=1 n=d#6 v=0
122075 On ch=1 n=d#6 v=44
122076 On ch=1 n=f#6 v=44
122098 Off ch=1 n=e6 v=0
122106 Off ch=1 n=g#6 v=0
122263 On ch=1 n=g#6 v=56
122264 On ch=1 n=e6 v=66
122288 Off ch=1 n=f#6 v=0
122288 Off ch=1 n=d#6 v=0
122445 On ch=1 n=d#6 v=47
122447 On ch=1 n=f#6 v=49
122470 Off ch=1 n=e6 v=0
122477 Off ch=1 n=g#6 v=0
122632 On ch=1 n=e6 v=54
122633 On ch=1 n=g#6 v=50
122659 Off ch=1 n=f#6 v=0
122661 Off ch=1 n=d#6 v=0
122830 On ch=1 n=d#6 v=48
122833 On ch=1 n=f#6 v=51
122852 Off ch=1 n=e6 v=0
122862 Off ch=1 n=g#6 v=0
123030 On ch=1 n=e6 v=66
123030 On ch=1 n=g#6 v=66
123052 Off ch=1 n=d#6 v=0
123053 Off ch=1 n=f#6 v=0
123215 On ch=1 n=d#6 v=46
123215 On ch=1 n=f#6 v=45
123235 Off ch=1 n=e6 v=0
123254 Off ch=1 n=g#6 v=0
123403 On ch=1 n=f6 v=68
123406 On ch=1 n=d6 v=60
123423 Off ch=1 n=d#6 v=0
123431 Off ch=1 n=f#6 v=0
123590 On ch=1 n=d#6 v=49
123590 On ch=1 n=f#6 v=51
123608 Off ch=1 n=f6 v=0
123617 Off ch=1 n=d6 v=0
123781 On ch=1 n=e6 v=52
123784 On ch=1 n=g#6 v=62
123804 Off ch=1 n=d#6 v=0
123810 Off ch=1 n=f#6 v=0
123969 On ch=1 n=d#6 v=45
123969 On ch=1 n=f#6 v=48
123990 Off ch=1 n=e6 v=0
124167 Off ch=1 n=g#6 v=0
124167 On ch=1 n=f6 v=60
124167 On ch=1 n=d6 v=49
124193 Off ch=1 n=f#6 v=0
124197 Off ch=1 n=d#6 v=0
124364 On ch=1 n=d#6 v=49
124365 On ch=1 n=f#6 v=52
124379 Off ch=1 n=f6 v=0
124396 Off ch=1 n=d6 v=0
124559 On ch=1 n=g#6 v=50
124561 On ch=1 n=e6 v=60
124586 Off ch=1 n=d#6 v=0
124592 Off ch=1 n=f#6 v=0
124748 On ch=1 n=d#6 v=52
124748 On ch=1 n=f#6 v=54
124769 Off ch=1 n=e6 v=0
124779 Off ch=1 n=g#6 v=0
124938 On ch=1 n=f6 v=68
124940 On ch=1 n=d6 v=56
124960 Off ch=1 n=d#6 v=0
124964 Off ch=1 n=f#6 v=0
125131 On ch=1 n=f#6 v=45
125131 On ch=1 n=d#6 v=47
125151 Off ch=1 n=f6 v=0
125160 Off ch=1 n=d6 v=0
125327 On ch=1 n=g#6 v=64
125349 Off ch=1 n=d#6 v=0
125349 On ch=1 n=e6 v=68
125354 Off ch=1 n=f#6 v=0
125511 On ch=1 n=d#6 v=51
125513 On ch=1 n=f#6 v=51
125531 Off ch=1 n=e6 v=0
125540 Off ch=1 n=g#6 v=0
125705 On ch=1 n=f6 v=45
125709 On ch=1 n=d6 v=66
125726 Off ch=1 n=d#6 v=0
125728 Off ch=1 n=f#6 v=0
125878 Off ch=1 n=f6 v=0
125892 On ch=1 n=d#6 v=68
125893 On ch=1 n=f#6 v=80
125918 Off ch=1 n=d6 v=0
126094 On ch=1 n=e6 v=70
126094 On ch=1 n=g6 v=78
126109 Off ch=1 n=f#6 v=0
126114 Off ch=1 n=d#6 v=0
126279 On ch=1 n=g#6 v=68
126281 On ch=1 n=f6 v=70
126298 Off ch=1 n=g6 v=0
126305 Off ch=1 n=e6 v=0
126474 On ch=1 n=f#6 v=60
126474 On ch=1 n=a6 v=78
126494 Off ch=1 n=f6 v=0
126495 Off ch=1 n=g#6 v=0
126662 On ch=1 n=a#6 v=49
126663 On ch=1 n=g6 v=68
126683 Off ch=1 n=f#6 v=0
126688 Off ch=1 n=a6 v=0
126865 On ch=1 n=g#6 v=49
126867 On ch=1 n=b6 v=70
126887 Off ch=1 n=a#6 v=0
126889 Off ch=1 n=g6 v=0
127059 On ch=1 n=c7 v=68
127066 On ch=1 n=a6 v=70
127081 Off ch=1 n=b6 v=0
127083 Off ch=1 n=g#6 v=0
127249 On ch=1 n=a#6 v=54
127251 On ch=1 n=c#7 v=70
127270 Off ch=1 n=c7 v=0
127274 Off ch=1 n=a6 v=0
127440 On ch=1 n=d7 v=80
127441 On ch=1 n=b6 v=68
127459 Off ch=1 n=c#7 v=0
127460 Off ch=1 n=a#6 v=0
127625 On ch=1 n=d#7 v=54
127625 On ch=1 n=c7 v=74
127641 Off ch=1 n=d7 v=0
127650 Off ch=1 n=b6 v=0
127837 On ch=1 n=e7 v=72
127838 On ch=1 n=c#7 v=56
127861 Off ch=1 n=c7 v=0
127862 Off ch=1 n=d#7 v=0
128022 On ch=1 n=f7 v=60
128025 On ch=1 n=d7 v=64
128041 Off ch=1 n=c#7 v=0
128042 Off ch=1 n=e7 v=0
128209 On ch=1 n=d#7 v=58
128211 On ch=1 n=f#7 v=72
128232 Off ch=1 n=f7 v=0
128233 Off ch=1 n=d7 v=0
128398 On ch=1 n=e7 v=66
128398 On ch=1 n=g7 v=78
128417 Off ch=1 n=f#7 v=0
128417 Off ch=1 n=d#7 v=0
128587 On ch=1 n=g#7 v=52
128588 On ch=1 n=f7 v=70
128607 Off ch=1 n=g7 v=0
128608 Off ch=1 n=e7 v=0
128782 On ch=1 n=f#7 v=58
128783 On ch=1 n=a7 v=70
128806 Off ch=1 n=g#7 v=0
128808 Off ch=1 n=f7 v=0
128882 Off ch=1 n=a7 v=0
128892 Off ch=1 n=f#7 v=0
129000 On ch=1 n=d#8 v=84
129001 On ch=1 n=f#7 v=84
129105 Off ch=1 n=d#8 v=0
129109 Off ch=1 n=f#7 v=0
132063 Par ch=1 c=10 v=64
132073 On ch=1 n=c#8 v=60
132075 On ch=1 n=e8 v=76
132260 On ch=1 n=b7 v=62
132261 On ch=1 n=d#8 v=50
132290 Off ch=1 n=e8 v=0
132295 Off ch=1 n=c#8 v=0
132455 On ch=1 n=e8 v=62
132457 On ch=1 n=c#8 v=50
132482 Off ch=1 n=d#8 v=0
132482 Off ch=1 n=b7 v=0
132618 On ch=1 n=d#8 v=48
132624 On ch=1 n=b7 v=56
132648 Off ch=1 n=e8 v=0
132652 Off ch=1 n=c#8 v=0
132692 Off ch=1 n=d#8 v=0
132804 On ch=1 n=c#8 v=43
132805 On ch=1 n=a#7 v=42
132825 Off ch=1 n=b7 v=0
133003 On ch=1 n=g#7 v=37
133005 On ch=1 n=b7 v=64
133033 Off ch=1 n=a#7 v=0
133048 Off ch=1 n=c#8 v=0
133207 On ch=1 n=c#8 v=46
133207 On ch=1 n=a#7 v=52
133235 Off ch=1 n=g#7 v=0
133237 Off ch=1 n=b7 v=0
133386 On ch=1 n=g#7 v=30
133391 On ch=1 n=b7 v=74
133419 Off ch=1 n=a#7 v=0
133421 Off ch=1 n=c#8 v=0
133462 Off ch=1 n=b7 v=0
133587 On ch=1 n=a#7 v=60
133591 On ch=1 n=f#7 v=44
133601 Off ch=1 n=g#7 v=0
133777 On ch=1 n=e7 v=54
133779 On ch=1 n=g#7 v=46
133808 Off ch=1 n=f#7 v=0
133812 Off ch=1 n=a#7 v=0
133970 On ch=1 n=a#7 v=52
133972 On ch=1 n=f#7 v=50
134000 Off ch=1 n=e7 v=0
134006 Off ch=1 n=g#7 v=0
134156 On ch=1 n=g#7 v=48
134159 On ch=1 n=e7 v=51
134192 Off ch=1 n=f#7 v=0
134192 Off ch=1 n=a#7 v=0
134228 Off ch=1 n=g#7 v=0
134345 On ch=1 n=f#7 v=47
134346 On ch=1 n=d#7 v=43
134368 Off ch=1 n=e7 v=0
134542 On ch=1 n=c#7 v=44
134543 On ch=1 n=e7 v=68
134572 Off ch=1 n=d#7 v=0
134578 Off ch=1 n=f#7 v=0
134735 On ch=1 n=f#7 v=44
134736 On ch=1 n=d#7 v=49
134762 Off ch=1 n=e7 v=0
134763 Off ch=1 n=c#7 v=0
134917 On ch=1 n=c#7 v=37
134918 On ch=1 n=e7 v=66
134947 Off ch=1 n=d#7 v=0
134956 Off ch=1 n=f#7 v=0
134994 Off ch=1 n=e7 v=0
135103 Off ch=1 n=c#7 v=0
135114 On ch=1 n=b6 v=64
135114 On ch=1 n=d#7 v=47
135310 On ch=1 n=a#6 v=43
135312 On ch=1 n=c#7 v=48
135338 Off ch=1 n=b6 v=0
135348 Off ch=1 n=d#7 v=0
135500 On ch=1 n=d#7 v=52
135502 On ch=1 n=b6 v=54
135516 Off ch=1 n=a#6 v=0
135535 Off ch=1 n=c#7 v=0
135677 On ch=1 n=c#7 v=50
135681 On ch=1 n=a#6 v=41
135703 Off ch=1 n=b6 v=0
135713 Off ch=1 n=d#7 v=0
135760 Off ch=1 n=c#7 v=0
135862 Off ch=1 n=a#6 v=0
135873 On ch=1 n=g#6 v=41
135876 On ch=1 n=b6 v=72
136066 On ch=1 n=a#6 v=51
136069 On ch=1 n=f#6 v=46
136079 Off ch=1 n=b6 v=0
136102 Off ch=1 n=g#6 v=0
136259 On ch=1 n=b6 v=60
136264 On ch=1 n=g#6 v=60
136289 Off ch=1 n=a#6 v=0
136293 Off ch=1 n=f#6 v=0
136447 On ch=1 n=f#6 v=42
136449 On ch=1 n=a#6 v=49
136465 Off ch=1 n=b6 v=0
136483 Off ch=1 n=g#6 v=0
136529 Off ch=1 n=a#6 v=0
136642 On ch=1 n=g#6 v=47
136643 Off ch=1 n=f#6 v=0
136652 On ch=1 n=e6 v=62
136843 On ch=1 n=d#6 v=43
136845 On ch=1 n=f#6 v=46
136873 Off ch=1 n=e6 v=0
136878 Off ch=1 n=g#6 v=0
137035 On ch=1 n=g#6 v=51
137038 On ch=1 n=e6 v=64
137063 Off ch=1 n=f#6 v=0
137074 Off ch=1 n=d#6 v=0
137224 On ch=1 n=d#6 v=33
137225 On ch=1 n=f#6 v=47
137252 Off ch=1 n=e6 v=0
137261 Off ch=1 n=g#6 v=0
137310 Off ch=1 n=f#6 v=0
137400 Off ch=1 n=d#6 v=0
137414 On ch=1 n=c#6 v=30
137421 On ch=1 n=e6 v=58
137607 On ch=1 n=b5 v=51
137607 On ch=1 n=d#6 v=50
137627 Off ch=1 n=e6 v=0
137646 Off ch=1 n=c#6 v=0
137793 On ch=1 n=e6 v=72
137796 On ch=1 n=c#6 v=48
137821 Off ch=1 n=d#6 v=0
137832 Off ch=1 n=b5 v=0
137977 On ch=1 n=d#6 v=53
137982 On ch=1 n=b5 v=70
137996 Off ch=1 n=e6 v=0
138013 Off ch=1 n=c#6 v=0
138104 Off ch=1 n=d#6 v=0
138108 Off ch=1 n=b5 v=0
138198 On ch=1 n=g#7 v=49
138198 On ch=1 n=b7 v=74
138380 Par ch=1 c=10 v=64
138386 On ch=1 n=a#7 v=52
138388 On ch=1 n=f#7 v=47
138434 Off ch=1 n=b7 v=0
138445 Off ch=1 n=g#7 v=0
138602 On ch=1 n=b7 v=64
138605 On ch=1 n=g#7 v=52
138631 Off ch=1 n=f#7 v=0
138638 Off ch=1 n=a#7 v=0
138762 On ch=1 n=a#7 v=52
138765 On ch=1 n=f#7 v=46
138780 Off ch=1 n=b7 v=0
138790 Off ch=1 n=g#7 v=0
138835 Off ch=1 n=a#7 v=0
138947 Off ch=1 n=f#7 v=0
138964 On ch=1 n=g#7 v=41
138973 On ch=1 n=e7 v=76
139167 On ch=1 n=d#7 v=45
139170 On ch=1 n=f#7 v=50
139191 Off ch=1 n=e7 v=0
139205 Off ch=1 n=g#7 v=0
139375 On ch=1 n=g#7 v=47
139375 On ch=1 n=e7 v=64
139402 Off ch=1 n=f#7 v=0
139407 Off ch=1 n=d#7 v=0
139539 On ch=1 n=f#7 v=51
139543 On ch=1 n=d#7 v=42
139562 Off ch=1 n=e7 v=0
139574 Off ch=1 n=g#7 v=0
139605 Off ch=1 n=f#7 v=0
139713 Off ch=1 n=d#7 v=0
139732 On ch=1 n=c#7 v=28
139734 On ch=1 n=e7 v=68
139923 On ch=1 n=d#7 v=48
139927 On ch=1 n=b6 v=51
139937 Off ch=1 n=e7 v=0
139955 Off ch=1 n=c#7 v=0
140105 On ch=1 n=e7 v=62
140106 On ch=1 n=c#7 v=51
140130 Off ch=1 n=d#7 v=0
140138 Off ch=1 n=b6 v=0
140286 On ch=1 n=d#7 v=46
140291 Off ch=1 n=e7 v=0
140294 On ch=1 n=b6 v=44
140325 Off ch=1 n=c#7 v=0
140351 Off ch=1 n=d#7 v=0
140472 On ch=1 n=a#6 v=33
140472 On ch=1 n=c#7 v=41
140479 Off ch=1 n=b6 v=0
140666 On ch=1 n=g#6 v=45
140667 On ch=1 n=b6 v=78
140694 Off ch=1 n=a#6 v=0
140704 Off ch=1 n=c#7 v=0
140856 On ch=1 n=c#7 v=46
140859 On ch=1 n=a#6 v=51
140887 Off ch=1 n=b6 v=0
140888 Off ch=1 n=g#6 v=0
141038 On ch=1 n=b6 v=68
141038 On ch=1 n=g#6 v=37
141065 Off ch=1 n=a#6 v=0
141076 Off ch=1 n=c#7 v=0
141107 Off ch=1 n=b6 v=0
141222 Off ch=1 n=g#6 v=0
141239 On ch=1 n=a#6 v=51
141241 On ch=1 n=f#6 v=43
141441 On ch=1 n=g#6 v=47
141441 On ch=1 n=e6 v=50
141475 Off ch=1 n=a#6 v=0
141476 Off ch=1 n=f#6 v=0
141641 On ch=1 n=a#6 v=48
141644 On ch=1 n=f#6 v=52
141677 Off ch=1 n=e6 v=0
141678 Off ch=1 n=g#6 v=0
141826 On ch=1 n=g#6 v=46
141829 On ch=1 n=e6 v=56
141856 Off ch=1 n=f#6 v=0
141863 Off ch=1 n=a#6 v=0
141893 Off ch=1 n=g#6 v=0
142011 On ch=1 n=f#6 v=42
142012 On ch=1 n=d#6 v=33
142020 Off ch=1 n=e6 v=0
142198 On ch=1 n=c#6 v=41
142201 On ch=1 n=e6 v=58
142228 Off ch=1 n=d#6 v=0
142238 Off ch=1 n=f#6 v=0
142387 On ch=1 n=f#6 v=45
142389 On ch=1 n=d#6 v=47
142413 Off ch=1 n=e6 v=0
142419 Off ch=1 n=c#6 v=0
142581 On ch=1 n=c#6 v=39
142583 On ch=1 n=e6 v=70
142611 Off ch=1 n=d#6 v=0
142618 Off ch=1 n=f#6 v=0
142651 Off ch=1 n=e6 v=0
142766 Off ch=1 n=c#6 v=0
142781 On ch=1 n=d#6 v=44
142784 On ch=1 n=b5 v=70
142974 On ch=1 n=a#5 v=39
142976 On ch=1 n=c#6 v=48
142996 Off ch=1 n=b5 v=0
143011 Off ch=1 n=d#6 v=0
143168 On ch=1 n=b5 v=60
143168 On ch=1 n=d#6 v=46
143200 Off ch=1 n=c#6 v=0
143201 Off ch=1 n=a#5 v=0
143353 On ch=1 n=c#6 v=49
143356 On ch=1 n=a#5 v=39
143373 Off ch=1 n=b5 v=0
143393 Off ch=1 n=d#6 v=0
143420 Off ch=1 n=c#6 v=0
143528 Off ch=1 n=a#5 v=0
143553 On ch=1 n=g#5 v=20
143554 On ch=1 n=b5 v=56
143732 On ch=1 n=a#5 v=52
143737 On ch=1 n=f#5 v=44
143742 Off ch=1 n=b5 v=0
143767 Off ch=1 n=g#5 v=0
143810 Off ch=1 n=a#5 v=0
143921 On ch=1 n=g#5 v=37
143922 Off ch=1 n=f#5 v=0
143932 On ch=1 n=e5 v=53
144113 On ch=1 n=f#5 v=48
144115 On ch=1 n=d#5 v=44
144138 Off ch=1 n=e5 v=0
144148 Off ch=1 n=g#5 v=0
144245 Off ch=1 n=d#5 v=0
144331 On ch=1 n=e5 v=76
144332 On ch=1 n=c#5 v=47
144360 Off ch=1 n=f#5 v=0
144655 Off ch=1 n=e5 v=0
144671 Off ch=1 n=c#5 v=0
162768 Par ch=1 c=10 v=64
163528 On ch=1 n=d#7 v=48
163529 On ch=1 n=c7 v=48
163709 On ch=1 n=c#7 v=30
163709 On ch=1 n=e7 v=66
163721 Off ch=1 n=c7 v=0
163756 Off ch=1 n=d#7 v=0
163904 On ch=1 n=c7 v=56
163905 On ch=1 n=d#7 v=45
163922 Off ch=1 n=e7 v=0
163928 Off ch=1 n=c#7 v=0
164092 On ch=1 n=c#7 v=39
164095 On ch=1 n=e7 v=64
164109 Off ch=1 n=d#7 v=0
164109 Off ch=1 n=c7 v=0
164284 On ch=1 n=d#7 v=41
164286 On ch=1 n=c7 v=48
164296 Off ch=1 n=e7 v=0
164313 Off ch=1 n=c#7 v=0
164474 On ch=1 n=c#7 v=31
164476 On ch=1 n=e7 v=42
164491 Off ch=1 n=c7 v=0
164498 Off ch=1 n=d#7 v=0
164664 On ch=1 n=c7 v=45
164666 On ch=1 n=d#7 v=39
164680 Off ch=1 n=e7 v=0
164690 Off ch=1 n=c#7 v=0
164850 On ch=1 n=e7 v=49
164850 On ch=1 n=c#7 v=35
164867 Off ch=1 n=c7 v=0
164874 Off ch=1 n=d#7 v=0
165049 On ch=1 n=c7 v=48
165055 On ch=1 n=d#7 v=45
165070 Off ch=1 n=e7 v=0
165076 Off ch=1 n=c#7 v=0
165243 On ch=1 n=c#7 v=39
165246 On ch=1 n=e7 v=48
165261 Off ch=1 n=c7 v=0
165265 Off ch=1 n=d#7 v=0
165445 On ch=1 n=d#7 v=33
165446 On ch=1 n=c7 v=49
165454 Off ch=1 n=e7 v=0
165476 Off ch=1 n=c#7 v=0
165638 On ch=1 n=c#7 v=33
165638 On ch=1 n=e7 v=48
165658 Off ch=1 n=d#7 v=0
165700 Off ch=1 n=c7 v=0
165734 Off ch=1 n=c#7 v=0
165796 Off ch=1 n=e7 v=0
165838 On ch=1 n=d#7 v=44
165841 On ch=1 n=f#7 v=49
166028 On ch=1 n=g#7 v=41
166031 On ch=1 n=e7 v=52
166041 Off ch=1 n=f#7 v=0
166043 Off ch=1 n=d#7 v=0
166222 On ch=1 n=f#7 v=50
166222 On ch=1 n=d#7 v=45
166237 Off ch=1 n=e7 v=0
166249 Off ch=1 n=g#7 v=0
166404 On ch=1 n=g#7 v=39
166408 On ch=1 n=e7 v=48
166420 Off ch=1 n=d#7 v=0
166421 Off ch=1 n=f#7 v=0
166597 On ch=1 n=f#7 v=50
166597 On ch=1 n=d#7 v=47
166615 Off ch=1 n=e7 v=0
166626 Off ch=1 n=g#7 v=0
166785 On ch=1 n=g#7 v=41
166786 On ch=1 n=e7 v=53
166796 Off ch=1 n=f#7 v=0
166801 Off ch=1 n=d#7 v=0
166966 On ch=1 n=d#7 v=42
166966 On ch=1 n=f#7 v=45
166984 Off ch=1 n=e7 v=0
166994 Off ch=1 n=g#7 v=0
167156 On ch=1 n=g#7 v=39
167159 On ch=1 n=e7 v=53
167174 Off ch=1 n=f#7 v=0
167174 Off ch=1 n=d#7 v=0
167348 On ch=1 n=d#7 v=42
167348 On ch=1 n=f#7 v=47
167369 Off ch=1 n=e7 v=0
167375 Off ch=1 n=g#7 v=0
167550 On ch=1 n=g#7 v=39
167551 On ch=1 n=e7 v=56
167568 Off ch=1 n=f#7 v=0
167573 Off ch=1 n=d#7 v=0
167742 On ch=1 n=d#7 v=43
167744 On ch=1 n=f#7 v=45
167761 Off ch=1 n=e7 v=0
167770 Off ch=1 n=g#7 v=0
167936 On ch=1 n=g#7 v=35
167944 On ch=1 n=e7 v=45
167956 Off ch=1 n=f#7 v=0
167964 Off ch=1 n=d#7 v=0
168128 On ch=1 n=d#7 v=44
168129 On ch=1 n=f#7 v=47
168147 Off ch=1 n=e7 v=0
168157 Off ch=1 n=g#7 v=0
168325 On ch=1 n=g#7 v=42
168326 On ch=1 n=e7 v=62
168336 Off ch=1 n=f#7 v=0
168340 Off ch=1 n=d#7 v=0
168519 On ch=1 n=d#7 v=44
168521 On ch=1 n=f#7 v=47
168539 Off ch=1 n=e7 v=0
168547 Off ch=1 n=g#7 v=0
168694 On ch=1 n=g#7 v=35
168697 On ch=1 n=e7 v=51
168707 Off ch=1 n=f#7 v=0
168723 Off ch=1 n=d#7 v=0
168880 Off ch=1 n=g#7 v=0
168885 On ch=1 n=f#7 v=44
168892 On ch=1 n=a7 v=54
168900 Off ch=1 n=e7 v=0
169060 Off ch=1 n=f#7 v=0
169063 Off ch=1 n=a7 v=0
169069 On ch=1 n=g#7 v=30
169077 On ch=1 n=f7 v=56
169217 Off ch=1 n=g#7 v=0
169272 On ch=1 n=g7 v=58
169278 On ch=1 n=e7 v=48
169295 Off ch=1 n=f7 v=0
169459 On ch=1 n=d#7 v=42
169461 On ch=1 n=f#7 v=49
169479 Off ch=1 n=e7 v=0
169482 Off ch=1 n=g7 v=0
169663 On ch=1 n=f7 v=58
169665 On ch=1 n=d7 v=60
169685 Off ch=1 n=f#7 v=0
169688 Off ch=1 n=d#7 v=0
169859 On ch=1 n=c#7 v=31
169861 On ch=1 n=e7 v=68
169878 Off ch=1 n=d7 v=0
169885 Off ch=1 n=f7 v=0
170069 On ch=1 n=f7 v=60
170070 On ch=1 n=d7 v=64
170084 Off ch=1 n=e7 v=0
170092 Off ch=1 n=c#7 v=0
170242 On ch=1 n=f#7 v=42
170242 On ch=1 n=d#7 v=44
170261 Off ch=1 n=f7 v=0
170263 Off ch=1 n=d7 v=0
170435 On ch=1 n=e7 v=52
170436 On ch=1 n=g7 v=72
170458 Off ch=1 n=d#7 v=0
170462 Off ch=1 n=f#7 v=0
170629 On ch=1 n=f#7 v=50
170630 On ch=1 n=d#7 v=46
170647 Off ch=1 n=e7 v=0
170653 Off ch=1 n=g7 v=0
170827 On ch=1 n=d7 v=51
170827 On ch=1 n=f7 v=68
170848 Off ch=1 n=d#7 v=0
170852 Off ch=1 n=f#7 v=0
171005 On ch=1 n=c#7 v=41
171006 On ch=1 n=e7 v=68
171027 Off ch=1 n=f7 v=0
171031 Off ch=1 n=d7 v=0
171203 On ch=1 n=d#7 v=48
171203 On ch=1 n=c7 v=56
171218 Off ch=1 n=e7 v=0
171233 Off ch=1 n=c#7 v=0
171304 Off ch=1 n=c7 v=0
171397 On ch=1 n=d7 v=53
171398 On ch=1 n=b6 v=47
171405 Off ch=1 n=d#7 v=0
171583 On ch=1 n=d#7 v=50
171584 On ch=1 n=c7 v=60
171594 Off ch=1 n=d7 v=0
171598 Off ch=1 n=b6 v=0
171707 Off ch=1 n=d#7 v=0
171763 On ch=1 n=e7 v=56
171765 On ch=1 n=c#7 v=44
171789 Off ch=1 n=c7 v=0
171961 On ch=1 n=f7 v=52
171962 On ch=1 n=d7 v=58
171974 Off ch=1 n=c#7 v=0
171979 Off ch=1 n=e7 v=0
172169 On ch=1 n=e7 v=52
172170 On ch=1 n=c#7 v=42
172181 Off ch=1 n=d7 v=0
172191 Off ch=1 n=f7 v=0
172348 On ch=1 n=c7 v=46
172353 On ch=1 n=d#7 v=51
172373 Off ch=1 n=e7 v=0
172424 Off ch=1 n=c7 v=0
172428 Off ch=1 n=c#7 v=0
172529 On ch=1 n=b6 v=51
172531 On ch=1 n=d7 v=60
172552 Off ch=1 n=d#7 v=0
172712 On ch=1 n=c#7 v=48
172714 On ch=1 n=a#6 v=43
172731 Off ch=1 n=d7 v=0
172734 Off ch=1 n=b6 v=0
172903 On ch=1 n=c7 v=62
172903 On ch=1 n=a6 v=50
172921 Off ch=1 n=a#6 v=0
172930 Off ch=1 n=c#7 v=0
173087 On ch=1 n=b6 v=58
173088 On ch=1 n=g6 v=49
173093 Off ch=1 n=c7 v=0
173111 Off ch=1 n=a6 v=0
173291 On ch=1 n=c#7 v=42
173294 On ch=1 n=a6 v=53
173316 Off ch=1 n=g6 v=0
173316 Off ch=1 n=b6 v=0
173492 On ch=1 n=g6 v=62
173493 On ch=1 n=b6 v=58
173517 Off ch=1 n=a6 v=0
173519 Off ch=1 n=c#7 v=0
173689 On ch=1 n=c#7 v=37
173691 On ch=1 n=a6 v=54
173711 Off ch=1 n=g6 v=0
173714 Off ch=1 n=b6 v=0
173884 On ch=1 n=g6 v=58
173885 On ch=1 n=b6 v=53
173905 Off ch=1 n=a6 v=0
173913 Off ch=1 n=c#7 v=0
174075 On ch=1 n=a6 v=49
174075 On ch=1 n=c#7 v=37
174094 Off ch=1 n=g6 v=0
174097 Off ch=1 n=b6 v=0
174265 On ch=1 n=b6 v=53
174265 On ch=1 n=g6 v=46
174286 Off ch=1 n=a6 v=0
174294 Off ch=1 n=c#7 v=0
174446 On ch=1 n=a6 v=48
174446 On ch=1 n=c#7 v=41
174461 Off ch=1 n=g6 v=0
174471 Off ch=1 n=b6 v=0
174660 On ch=1 n=b6 v=54
174660 On ch=1 n=g6 v=48
174688 Off ch=1 n=a6 v=0
174698 Off ch=1 n=c#7 v=0
174837 Off ch=1 n=g6 v=0
174854 On ch=1 n=a6 v=74
174855 On ch=1 n=e6 v=51
174864 Off ch=1 n=b6 v=0
175020 Off ch=1 n=e6 v=0
175038 Off ch=1 n=a6 v=0
175045 On ch=1 n=d#6 v=52
175046 On ch=1 n=g#6 v=46
175330 Off ch=1 n=d#6 v=0
175338 Off ch=1 n=g#6 v=0
175620 Par ch=1 c=10 v=64
175794 On ch=1 n=d#8 v=90
175796 On ch=1 n=c8 v=92
175986 Off ch=1 n=c8 v=0
175990 Off ch=1 n=d#8 v=0
175997 On ch=1 n=b7 v=80
175999 On ch=1 n=d8 v=80
176195 On ch=1 n=c#8 v=90
176195 On ch=1 n=a#7 v=76
176213 Off ch=1 n=b7 v=0
176217 Off ch=1 n=d8 v=0
176391 On ch=1 n=c8 v=84
176396 On ch=1 n=a7 v=82
176404 Off ch=1 n=a#7 v=0
176409 Off ch=1 n=c#8 v=0
176589 On ch=1 n=g#7 v=76
176590 On ch=1 n=b7 v=86
176611 Off ch=1 n=a7 v=0
176614 Off ch=1 n=c8 v=0
176777 On ch=1 n=a#7 v=68
176779 On ch=1 n=g7 v=78
176798 Off ch=1 n=b7 v=0
176803 Off ch=1 n=g#7 v=0
176970 On ch=1 n=f#7 v=46
176973 On ch=1 n=a7 v=74
176987 Off ch=1 n=g7 v=0
176995 Off ch=1 n=a#7 v=0
177158 On ch=1 n=g#7 v=58
177158 On ch=1 n=f7 v=64
177186 Off ch=1 n=a7 v=0
177191 Off ch=1 n=f#7 v=0
177242 Off ch=1 n=f7 v=0
177364 On ch=1 n=g7 v=68
177365 On ch=1 n=e7 v=70
177392 Off ch=1 n=g#7 v=0
177537 On ch=1 n=f#7 v=72
177537 On ch=1 n=d#7 v=53
177557 Off ch=1 n=e7 v=0
177560 Off ch=1 n=g7 v=0
177729 On ch=1 n=f7 v=78
177733 On ch=1 n=d7 v=76
177748 Off ch=1 n=d#7 v=0
177756 Off ch=1 n=f#7 v=0
177912 On ch=1 n=e7 v=72
177913 On ch=1 n=c#7 v=50
177935 Off ch=1 n=d7 v=0
177943 Off ch=1 n=f7 v=0
178101 On ch=1 n=d#7 v=58
178102 On ch=1 n=c7 v=66
178117 Off ch=1 n=e7 v=0
178139 Off ch=1 n=c#7 v=0
178188 Off ch=1 n=c7 v=0
178295 On ch=1 n=b6 v=66
178301 On ch=1 n=d7 v=53
178322 Off ch=1 n=d#7 v=0
178472 On ch=1 n=a#6 v=56
178473 On ch=1 n=c#7 v=78
178494 Off ch=1 n=b6 v=0
178495 Off ch=1 n=d7 v=0
178679 On ch=1 n=c7 v=70
178682 On ch=1 n=a6 v=74
178696 Off ch=1 n=a#6 v=0
178711 Off ch=1 n=c#7 v=0
178867 On ch=1 n=g#6 v=45
178868 On ch=1 n=b6 v=76
178891 Off ch=1 n=a6 v=0
178894 Off ch=1 n=c7 v=0
179047 On ch=1 n=a#6 v=60
179048 On ch=1 n=g6 v=68
179068 Off ch=1 n=b6 v=0
179072 Off ch=1 n=g#6 v=0
179235 On ch=1 n=f#6 v=45
179239 On ch=1 n=a6 v=64
179259 Off ch=1 n=g6 v=0
179260 Off ch=1 n=a#6 v=0
179437 On ch=1 n=f6 v=54
179438 On ch=1 n=g#6 v=51
179463 Off ch=1 n=a6 v=0
179465 Off ch=1 n=f#6 v=0
179510 Off ch=1 n=f6 v=0
179647 On ch=1 n=g6 v=74
179650 On ch=1 n=e6 v=68
179671 Off ch=1 n=g#6 v=0
179847 On ch=1 n=f#6 v=72
179849 On ch=1 n=d#6 v=60
179871 Off ch=1 n=e6 v=0
179872 Off ch=1 n=g6 v=0
180041 On ch=1 n=f6 v=60
180043 On ch=1 n=d6 v=66
180058 Off ch=1 n=d#6 v=0
180066 Off ch=1 n=f#6 v=0
180223 On ch=1 n=e6 v=70
180224 On ch=1 n=c#6 v=45
180252 Off ch=1 n=d6 v=0
180252 Off ch=1 n=f6 v=0
180412 On ch=1 n=d#6 v=53
180415 On ch=1 n=c6 v=64
180435 Off ch=1 n=e6 v=0
180463 Off ch=1 n=c#6 v=0
180503 Off ch=1 n=c6 v=0
180589 On ch=1 n=d6 v=48
180590 On ch=1 n=b5 v=62
180612 Off ch=1 n=d#6 v=0
180771 On ch=1 n=a#5 v=49
180771 On ch=1 n=c#6 v=58
180791 Off ch=1 n=b5 v=0
180799 Off ch=1 n=d6 v=0
180964 On ch=1 n=c6 v=68
180964 On ch=1 n=a5 v=60
180987 Off ch=1 n=a#5 v=0
180991 Off ch=1 n=c#6 v=0
181074 Off ch=1 n=c6 v=0
181161 On ch=1 n=g#5 v=44
181162 On ch=1 n=b5 v=74
181186 Off ch=1 n=a5 v=0
181341 On ch=1 n=a#5 v=54
181341 On ch=1 n=g5 v=62
181365 Off ch=1 n=b5 v=0
181370 Off ch=1 n=g#5 v=0
181529 On ch=1 n=a5 v=70
181529 On ch=1 n=f#5 v=50
181545 Off ch=1 n=a#5 v=0
181554 Off ch=1 n=g5 v=0
181727 On ch=1 n=g#5 v=52
181729 On ch=1 n=f5 v=52
181753 Off ch=1 n=f#5 v=0
181756 Off ch=1 n=a5 v=0
181815 Off ch=1 n=f5 v=0
181936 On ch=1 n=g5 v=64
181936 On ch=1 n=e5 v=62
181960 Off ch=1 n=g#5 v=0
182137 On ch=1 n=f#5 v=54
182138 On ch=1 n=d#5 v=45
182159 Off ch=1 n=e5 v=0
182165 Off ch=1 n=g5 v=0
182327 On ch=1 n=f5 v=66
182327 On ch=1 n=d5 v=66
182347 Off ch=1 n=d#5 v=0
182351 Off ch=1 n=f#5 v=0
182515 On ch=1 n=e5 v=72
182516 On ch=1 n=c#5 v=43
182538 Off ch=1 n=f5 v=0
182543 Off ch=1 n=d5 v=0
182711 On ch=1 n=d#5 v=48
182714 On ch=1 n=c5 v=62
182735 Off ch=1 n=e5 v=0
182757 Off ch=1 n=c#5 v=0
182815 Off ch=1 n=c5 v=0
182909 On ch=1 n=d5 v=52
182911 On ch=1 n=b4 v=48
182938 Off ch=1 n=d#5 v=0
183096 On ch=1 n=c#5 v=56
183098 On ch=1 n=a#4 v=47
183121 Off ch=1 n=b4 v=0
183123 Off ch=1 n=d5 v=0
183287 On ch=1 n=a4 v=60
183289 On ch=1 n=c5 v=62
183306 Off ch=1 n=a#4 v=0
183312 Off ch=1 n=c#5 v=0
183419 Off ch=1 n=c5 v=0
183477 On ch=1 n=b4 v=64
183483 On ch=1 n=g#4 v=44
183507 Off ch=1 n=a4 v=0
183654 On ch=1 n=g4 v=54
183655 On ch=1 n=a#4 v=51
183682 Off ch=1 n=b4 v=0
183683 Off ch=1 n=g#4 v=0
183781 Off ch=1 n=a#4 v=0
183837 On ch=1 n=f#4 v=47
183837 On ch=1 n=a4 v=66
183865 Off ch=1 n=g4 v=0
184023 On ch=1 n=g#4 v=44
184026 On ch=1 n=f4 v=49
184050 Off ch=1 n=a4 v=0
184059 Off ch=1 n=f#4 v=0
184116 Off ch=1 n=g#4 v=0
184216 On ch=1 n=g4 v=66
184222 On ch=1 n=e4 v=60
184246 Off ch=1 n=f4 v=0
184409 On ch=1 n=d#4 v=52
184413 On ch=1 n=f#4 v=50
184419 Off ch=1 n=g4 v=0
184437 Off ch=1 n=e4 v=0
184539 Off ch=1 n=d#4 v=0
184594 On ch=1 n=d4 v=54
184595 On ch=1 n=f4 v=68
184616 Off ch=1 n=f#4 v=0
184802 On ch=1 n=c#4 v=42
184805 On ch=1 n=e4 v=66
184828 Off ch=1 n=f4 v=0
184828 Off ch=1 n=d4 v=0
184995 On ch=1 n=c4 v=54
184997 On ch=1 n=d#4 v=49
185024 Off ch=1 n=e4 v=0
185027 Off ch=1 n=c#4 v=0
185191 On ch=1 n=e4 v=72
185194 On ch=1 n=c#4 v=46
185219 Off ch=1 n=d#4 v=0
185221 Off ch=1 n=c4 v=0
185386 On ch=1 n=d#4 v=47
185387 On ch=1 n=c4 v=54
185414 Off ch=1 n=c#4 v=0
185418 Off ch=1 n=e4 v=0
185584 On ch=1 n=e4 v=68
185586 On ch=1 n=c#4 v=46
185610 Off ch=1 n=c4 v=0
185615 Off ch=1 n=d#4 v=0
185777 On ch=1 n=d#4 v=46
185778 On ch=1 n=c4 v=56
185808 Off ch=1 n=e4 v=0
185810 Off ch=1 n=c#4 v=0
185973 On ch=1 n=e4 v=68
185974 On ch=1 n=c#4 v=44
186003 Off ch=1 n=d#4 v=0
186007 Off ch=1 n=c4 v=0
186180 On ch=1 n=c4 v=56
186183 On ch=1 n=d#4 v=46
186193 Off ch=1 n=e4 v=0
186194 Off ch=1 n=c#4 v=0
186352 On ch=1 n=e4 v=56
186352 On ch=1 n=c#4 v=41
186398 Off ch=1 n=d#4 v=0
186403 Off ch=1 n=c4 v=0
186564 On ch=1 n=c4 v=47
186570 On ch=1 n=d#4 v=41
186585 Off ch=1 n=e4 v=0
186588 Off ch=1 n=c#4 v=0
186738 On ch=1 n=c#4 v=37
186739 On ch=1 n=e4 v=50
186780 Off ch=1 n=c4 v=0
186781 Off ch=1 n=d#4 v=0
186948 On ch=1 n=c4 v=37
186953 On ch=1 n=d#4 v=31
186960 Off ch=1 n=e4 v=0
186966 Off ch=1 n=c#4 v=0
187132 On ch=1 n=e4 v=42
187133 On ch=1 n=c#4 v=30
187175 Off ch=1 n=c4 v=0
187181 Off ch=1 n=d#4 v=0
187335 On ch=1 n=c4 v=26
187338 On ch=1 n=d#4 v=28
187366 Off ch=1 n=e4 v=0
187369 Off ch=1 n=c#4 v=0
187710 Off ch=1 n=d#4 v=0
187714 Off ch=1 n=c4 v=0
188048 Meta TrkEnd
TrkEnd
MTrk
0 Meta TrkName "Chopin"
3072 Par ch=1 c=10 v=64
3097 On ch=1 n=d#6 v=68
3099 On ch=1 n=b5 v=56
3275 On ch=1 n=c#6 v=44
3279 On ch=1 n=e6 v=49
3286 Off ch=1 n=b5 v=0
3294 Off ch=1 n=d#6 v=0
3460 On ch=1 n=d#6 v=45
3466 On ch=1 n=b5 v=43
3467 Off ch=1 n=e6 v=0
3483 Off ch=1 n=c#6 v=0
3641 On ch=1 n=c#6 v=37
3643 On ch=1 n=e6 v=58
3660 Off ch=1 n=b5 v=0
3670 Off ch=1 n=d#6 v=0
3822 On ch=1 n=d#6 v=41
3826 On ch=1 n=b5 v=47
3829 Off ch=1 n=e6 v=0
3843 Off ch=1 n=c#6 v=0
4003 On ch=1 n=c#6 v=37
4007 On ch=1 n=e6 v=52
4021 Off ch=1 n=b5 v=0
4029 Off ch=1 n=d#6 v=0
4183 On ch=1 n=d#6 v=43
4186 On ch=1 n=b5 v=48
4196 Off ch=1 n=e6 v=0
4211 Off ch=1 n=c#6 v=0
4384 On ch=1 n=c#6 v=42
4389 On ch=1 n=e6 v=54
4403 Off ch=1 n=b5 v=0
4410 Off ch=1 n=d#6 v=0
4594 On ch=1 n=d#6 v=46
4596 On ch=1 n=b5 v=54
4600 Off ch=1 n=e6 v=0
4611 Off ch=1 n=c#6 v=0
4794 On ch=1 n=c#6 v=39
4797 On ch=1 n=e6 v=58
4815 Off ch=1 n=b5 v=0
4818 Off ch=1 n=d#6 v=0
4990 On ch=1 n=d#6 v=45
4992 On ch=1 n=b5 v=58
5002 Off ch=1 n=e6 v=0
5010 Off ch=1 n=c#6 v=0
5176 On ch=1 n=c#6 v=41
5179 On ch=1 n=e6 v=58
5198 Off ch=1 n=d#6 v=0
5199 Off ch=1 n=b5 v=0
5364 On ch=1 n=d#6 v=41
5366 Off ch=1 n=e6 v=0
5371 On ch=1 n=b5 v=45
5394 Off ch=1 n=c#6 v=0
5551 On ch=1 n=c#6 v=42
5559 On ch=1 n=e6 v=52
5573 Off ch=1 n=b5 v=0
5576 Off ch=1 n=d#6 v=0
5737 On ch=1 n=d#6 v=44
5745 On ch=1 n=b5 v=50
5751 Off ch=1 n=e6 v=0
5761 Off ch=1 n=c#6 v=0
5926 On ch=1 n=c#6 v=41
5928 On ch=1 n=e6 v=58
5949 Off ch=1 n=b5 v=0
5952 Off ch=1 n=d#6 v=0
6128 On ch=1 n=d#6 v=41
6131 On ch=1 n=b5 v=58
6135 Off ch=1 n=e6 v=0
6152 Off ch=1 n=c#6 v=0
6321 On ch=1 n=c#6 v=31
6324 On ch=1 n=e6 v=52
6344 Off ch=1 n=b5 v=0
6347 Off ch=1 n=d#6 v=0
6504 On ch=1 n=d#6 v=43
6507 On ch=1 n=b5 v=49
6522 Off ch=1 n=e6 v=0
6526 Off ch=1 n=c#6 v=0
6690 On ch=1 n=c#6 v=37
6694 On ch=1 n=e6 v=54
6708 Off ch=1 n=b5 v=0
6713 Off ch=1 n=d#6 v=0
6899 On ch=1 n=d#6 v=42
6902 On ch=1 n=b5 v=56
6911 Off ch=1 n=e6 v=0
6921 Off ch=1 n=c#6 v=0
7086 On ch=1 n=e6 v=60
7086 On ch=1 n=c#6 v=35
7106 Off ch=1 n=b5 v=0
7113 Off ch=1 n=d#6 v=0
7271 On ch=1 n=d#6 v=43
7274 On ch=1 n=b5 v=52
7288 Off ch=1 n=c#6 v=0
7290 Off ch=1 n=e6 v=0
7450 On ch=1 n=c#6 v=35
7451 On ch=1 n=e6 v=56
7471 Off ch=1 n=b5 v=0
7472 Off ch=1 n=d#6 v=0
7638 On ch=1 n=b5 v=51
7638 On ch=1 n=d#6 v=45
7655 Off ch=1 n=c#6 v=0
7657 Off ch=1 n=e6 v=0
7826 On ch=1 n=c#6 v=41
7831 On ch=1 n=e6 v=52
7848 Off ch=1 n=b5 v=0
7852 Off ch=1 n=d#6 v=0
8019 On ch=1 n=d#6 v=41
8022 On ch=1 n=b5 v=46
8028 Off ch=1 n=e6 v=0
8039 Off ch=1 n=c#6 v=0
8207 On ch=1 n=c#6 v=35
8211 On ch=1 n=e6 v=53
8229 Off ch=1 n=b5 v=0
8232 Off ch=1 n=d#6 v=0
8404 On ch=1 n=d#6 v=41
8407 On ch=1 n=b5 v=49
8416 Off ch=1 n=e6 v=0
8426 Off ch=1 n=c#6 v=0
8596 On ch=1 n=c#6 v=41
8599 On ch=1 n=e6 v=60
8616 Off ch=1 n=b5 v=0
8622 Off ch=1 n=d#6 v=0
8798 On ch=1 n=d#6 v=43
8800 On ch=1 n=b5 v=53
8816 Off ch=1 n=e6 v=0
8822 Off ch=1 n=c#6 v=0
8989 On ch=1 n=c#6 v=35
8994 On ch=1 n=e6 v=51
9011 Off ch=1 n=b5 v=0
9013 Off ch=1 n=d#6 v=0
9189 On ch=1 n=d#6 v=37
9191 On ch=1 n=b5 v=54
9194 Off ch=1 n=e6 v=0
9209 Off ch=1 n=c#6 v=0
9386 On ch=1 n=c#6 v=35
9389 On ch=1 n=e6 v=52
9410 Off ch=1 n=b5 v=0
9410 Off ch=1 n=d#6 v=0
9571 On ch=1 n=d#6 v=44
9575 On ch=1 n=b5 v=48
9590 Off ch=1 n=e6 v=0
9595 Off ch=1 n=c#6 v=0
9767 On ch=1 n=c#6 v=35
9768 On ch=1 n=e6 v=48
9788 Off ch=1 n=b5 v=0
9790 Off ch=1 n=d#6 v=0
9955 On ch=1 n=d#6 v=39
9961 On ch=1 n=b5 v=43
9972 Off ch=1 n=e6 v=0
9978 Off ch=1 n=c#6 v=0
10163 On ch=1 n=c#6 v=31
10165 On ch=1 n=e6 v=52
10182 Off ch=1 n=b5 v=0
10191 Off ch=1 n=d#6 v=0
10347 On ch=1 n=d#6 v=31
10353 On ch=1 n=b5 v=53
10363 Off ch=1 n=e6 v=0
10373 Off ch=1 n=c#6 v=0
10518 On ch=1 n=c#6 v=37
10523 On ch=1 n=e6 v=56
10537 Off ch=1 n=b5 v=0
10546 Off ch=1 n=d#6 v=0
10714 On ch=1 n=d#6 v=42
10717 On ch=1 n=b5 v=49
10722 Off ch=1 n=e6 v=0
10738 Off ch=1 n=c#6 v=0
10901 On ch=1 n=c#6 v=45
10907 On ch=1 n=e6 v=60
10922 Off ch=1 n=b5 v=0
10927 Off ch=1 n=d#6 v=0
11090 On ch=1 n=d#6 v=46
11093 On ch=1 n=b5 v=66
11112 Off ch=1 n=e6 v=0
11114 Off ch=1 n=c#6 v=0
11275 On ch=1 n=c#6 v=45
11280 On ch=1 n=e6 v=66
11295 Off ch=1 n=b5 v=0
11300 Off ch=1 n=d#6 v=0
11464 On ch=1 n=d#6 v=47
11471 On ch=1 n=b5 v=68
11485 Off ch=1 n=e6 v=0
11495 Off ch=1 n=c#6 v=0
11665 On ch=1 n=c#6 v=47
11669 On ch=1 n=e6 v=66
11690 Off ch=1 n=b5 v=0
11692 Off ch=1 n=d#6 v=0
11863 On ch=1 n=d#6 v=46
11870 On ch=1 n=b5 v=70
11880 Off ch=1 n=e6 v=0
11890 Off ch=1 n=c#6 v=0
12051 On ch=1 n=e6 v=64
12052 On ch=1 n=c#6 v=44
12073 Off ch=1 n=b5 v=0
12074 Off ch=1 n=d#6 v=0
12253 On ch=1 n=b5 v=68
12253 On ch=1 n=d#6 v=54
12278 Off ch=1 n=e6 v=0
12281 Off ch=1 n=c#6 v=0
12450 On ch=1 n=e6 v=70
12452 On ch=1 n=c#6 v=48
12475 Off ch=1 n=d#6 v=0
12478 Off ch=1 n=b5 v=0
12644 On ch=1 n=d#6 v=44
12646 Off ch=1 n=e6 v=0
12650 On ch=1 n=b5 v=68
12667 Off ch=1 n=c#6 v=0
12818 On ch=1 n=a#5 v=49
12825 On ch=1 n=d6 v=70
12837 Off ch=1 n=b5 v=0
12854 Off ch=1 n=d#6 v=0
13013 On ch=1 n=d#6 v=41
13020 Off ch=1 n=d6 v=0
13021 On ch=1 n=b5 v=66
13031 Off ch=1 n=a#5 v=0
13218 On ch=1 n=e6 v=74
13218 On ch=1 n=c#6 v=54
13243 Off ch=1 n=d#6 v=0
13245 Off ch=1 n=b5 v=0
13407 On ch=1 n=d#6 v=47
13408 Off ch=1 n=e6 v=0
13414 On ch=1 n=b5 v=72
13428 Off ch=1 n=c#6 v=0
13585 On ch=1 n=a#5 v=60
13589 On ch=1 n=d6 v=74
13612 Off ch=1 n=b5 v=0
13614 Off ch=1 n=d#6 v=0
13780 Off ch=1 n=d6 v=0
13780 On ch=1 n=d#6 v=66
13786 On ch=1 n=b5 v=80
13798 Off ch=1 n=a#5 v=0
13971 On ch=1 n=e6 v=72
13972 On ch=1 n=c#6 v=47
13995 Off ch=1 n=b5 v=0
13995 Off ch=1 n=d#6 v=0
14165 On ch=1 n=d#6 v=52
14167 On ch=1 n=b5 v=76
14184 Off ch=1 n=c#6 v=0
14193 Off ch=1 n=e6 v=0
14354 On ch=1 n=a#5 v=56
14359 On ch=1 n=d6 v=68
14376 Off ch=1 n=b5 v=0
14390 Off ch=1 n=d#6 v=0
14543 On ch=1 n=d#6 v=47
14546 Off ch=1 n=d6 v=0
14551 On ch=1 n=b5 v=70
14566 Off ch=1 n=a#5 v=0
14731 On ch=1 n=c#6 v=42
14731 On ch=1 n=e6 v=68
14754 Off ch=1 n=b5 v=0
14755 Off ch=1 n=d#6 v=0
14915 On ch=1 n=d#6 v=47
14921 On ch=1 n=b5 v=58
14932 Off ch=1 n=e6 v=0
14937 Off ch=1 n=c#6 v=0
15111 On ch=1 n=a#5 v=50
15114 Off ch=1 n=d#6 v=0
15114 On ch=1 n=d6 v=68
15139 Off ch=1 n=b5 v=0
15285 Off ch=1 n=a#5 v=0
15306 On ch=1 n=b5 v=72
15307 On ch=1 n=d#6 v=72
15327 Off ch=1 n=d6 v=0
15510 On ch=1 n=c#6 v=56
15511 On ch=1 n=e6 v=72
15531 Off ch=1 n=d#6 v=0
15534 Off ch=1 n=b5 v=0
15712 On ch=1 n=f6 v=74
15716 On ch=1 n=d6 v=74
15732 Off ch=1 n=c#6 v=0
15734 Off ch=1 n=e6 v=0
15908 On ch=1 n=d#6 v=76
15910 On ch=1 n=f#6 v=82
15926 Off ch=1 n=f6 v=0
15932 Off ch=1 n=d6 v=0
16092 On ch=1 n=e6 v=72
16092 On ch=1 n=g6 v=84
16111 Off ch=1 n=f#6 v=0
16112 Off ch=1 n=d#6 v=0
16273 On ch=1 n=g#6 v=74
16273 On ch=1 n=f6 v=80
16292 Off ch=1 n=g6 v=0
16294 Off ch=1 n=e6 v=0
16474 On ch=1 n=f#6 v=58
16475 On ch=1 n=a6 v=72
16494 Off ch=1 n=g#6 v=0
16498 Off ch=1 n=f6 v=0
16671 On ch=1 n=a#6 v=66
16671 On ch=1 n=g6 v=78
16691 Off ch=1 n=f#6 v=0
16692 Off ch=1 n=a6 v=0
16845 On ch=1 n=b6 v=82
16847 On ch=1 n=g#6 v=56
16863 Off ch=1 n=a#6 v=0
16872 Off ch=1 n=g6 v=0
17055 On ch=1 n=c7 v=74
17059 On ch=1 n=a6 v=53
17075 Off ch=1 n=g#6 v=0
17085 Off ch=1 n=b6 v=0
17253 On ch=1 n=a#6 v=84
17255 On ch=1 n=c#7 v=81
17271 Off ch=1 n=c7 v=0
17277 Off ch=1 n=a6 v=0
17444 On ch=1 n=d7 v=80
17447 On ch=1 n=b6 v=74
17461 Off ch=1 n=c#7 v=0
17464 Off ch=1 n=a#6 v=0
17630 On ch=1 n=c7 v=84
17630 On ch=1 n=d#7 v=84
17650 Off ch=1 n=d7 v=0
17653 Off ch=1 n=b6 v=0
17819 On ch=1 n=c#7 v=68
17821 On ch=1 n=e7 v=78
17839 Off ch=1 n=c7 v=0
17846 Off ch=1 n=d#7 v=0
18013 On ch=1 n=f7 v=80
18016 On ch=1 n=d7 v=74
18034 Off ch=1 n=c#7 v=0
18041 Off ch=1 n=e7 v=0
18199 On ch=1 n=d#7 v=69
18218 Off ch=1 n=f7 v=0
18218 On ch=1 n=f#7 v=76
18220 Off ch=1 n=d7 v=0
18400 On ch=1 n=g7 v=86
18401 On ch=1 n=e7 v=82
18419 Off ch=1 n=f#7 v=0
18420 Off ch=1 n=d#7 v=0
18591 On ch=1 n=g#7 v=94
18591 On ch=1 n=f7 v=94
18611 Off ch=1 n=g7 v=0
18614 Off ch=1 n=e7 v=0
18772 On ch=1 n=f#7 v=90
18772 On ch=1 n=a7 v=90
18799 Off ch=1 n=g#7 v=0
18800 Off ch=1 n=f7 v=0
18974 On ch=1 n=a#7 v=94
18977 On ch=1 n=g7 v=94
18997 Off ch=1 n=f#7 v=0
19000 Off ch=1 n=a7 v=0
19153 Off ch=1 n=g7 v=0
19160 Off ch=1 n=a#7 v=0
19168 On ch=1 n=g#7 v=102
19168 On ch=1 n=b7 v=102
19276 Off ch=1 n=b7 v=0
19277 Off ch=1 n=g#7 v=0
21495 Par ch=1 c=10 v=64
21516 On ch=1 n=g#6 v=60
21519 On ch=1 n=e6 v=51
21689 Off ch=1 n=g#6 v=0
21694 On ch=1 n=a6 v=48
21699 On ch=1 n=f#6 v=45
21709 Off ch=1 n=e6 v=0
21884 On ch=1 n=g#6 v=43
21885 On ch=1 n=e6 v=58
21890 Off ch=1 n=a6 v=0
21910 Off ch=1 n=f#6 v=0
22081 On ch=1 n=f#6 v=39
22085 On ch=1 n=a6 v=53
22099 Off ch=1 n=e6 v=0
22107 Off ch=1 n=g#6 v=0
22269 On ch=1 n=g#6 v=41
22273 On ch=1 n=e6 v=66
22277 Off ch=1 n=a6 v=0
22295 Off ch=1 n=f#6 v=0
22454 On ch=1 n=f#6 v=43
22457 On ch=1 n=a6 v=54
22475 Off ch=1 n=e6 v=0
22481 Off ch=1 n=g#6 v=0
22643 On ch=1 n=g#6 v=42
22644 On ch=1 n=e6 v=48
22654 Off ch=1 n=f#6 v=0
22663 Off ch=1 n=a6 v=0
22825 On ch=1 n=f#6 v=35
22828 On ch=1 n=a6 v=53
22850 Off ch=1 n=e6 v=0
22853 Off ch=1 n=g#6 v=0
23000 On ch=1 n=g#6 v=41
23001 On ch=1 n=e6 v=52
23019 Off ch=1 n=a6 v=0
23019 Off ch=1 n=f#6 v=0
23209 On ch=1 n=f#6 v=39
23213 On ch=1 n=a6 v=66
23228 Off ch=1 n=e6 v=0
23236 Off ch=1 n=g#6 v=0
23396 On ch=1 n=g#6 v=39
23400 On ch=1 n=e6 v=54
23407 Off ch=1 n=a6 v=0
23416 Off ch=1 n=f#6 v=0
23581 On ch=1 n=f#6 v=33
23582 On ch=1 n=a6 v=52
23602 Off ch=1 n=e6 v=0
23607 Off ch=1 n=g#6 v=0
23772 On ch=1 n=e6 v=43
23772 On ch=1 n=g#6 v=44
23792 Off ch=1 n=a6 v=0
23794 Off ch=1 n=f#6 v=0
23960 On ch=1 n=f#6 v=33
23962 On ch=1 n=a6 v=49
23981 Off ch=1 n=e6 v=0
23986 Off ch=1 n=g#6 v=0
24147 On ch=1 n=e6 v=53
24147 On ch=1 n=g#6 v=35
24163 Off ch=1 n=a6 v=0
24179 Off ch=1 n=f#6 v=0
24336 On ch=1 n=f#6 v=42
24342 On ch=1 n=a6 v=56
24358 Off ch=1 n=e6 v=0
24364 Off ch=1 n=g#6 v=0
24516 On ch=1 n=g#6 v=26
24522 On ch=1 n=e6 v=41
24530 Off ch=1 n=a6 v=0
24564 Off ch=1 n=f#6 v=0
24722 On ch=1 n=f#6 v=39
24726 On ch=1 n=a6 v=56
24747 Off ch=1 n=e6 v=0
24752 Off ch=1 n=g#6 v=0
24916 Off ch=1 n=a6 v=0
24919 On ch=1 n=g#6 v=41
24923 On ch=1 n=e6 v=60
24933 Off ch=1 n=f#6 v=0
25107 On ch=1 n=d#6 v=35
25111 On ch=1 n=g6 v=51
25132 Off ch=1 n=e6 v=0
25141 Off ch=1 n=g#6 v=0
25299 On ch=1 n=g#6 v=43
25310 On ch=1 n=e6 v=54
25316 Off ch=1 n=g6 v=0
25323 Off ch=1 n=d#6 v=0
25494 On ch=1 n=f#6 v=44
25498 On ch=1 n=a6 v=56
25519 Off ch=1 n=e6 v=0
25519 Off ch=1 n=g#6 v=0
25689 On ch=1 n=g#6 v=39
25695 On ch=1 n=e6 v=54
25707 Off ch=1 n=a6 v=0
25711 Off ch=1 n=f#6 v=0
25879 On ch=1 n=d#6 v=37
25883 On ch=1 n=g6 v=56
25901 Off ch=1 n=e6 v=0
25912 Off ch=1 n=g#6 v=0
26072 On ch=1 n=g#6 v=47
26079 On ch=1 n=e6 v=58
26089 Off ch=1 n=g6 v=0
26092 Off ch=1 n=d#6 v=0
26262 On ch=1 n=f#6 v=43
26267 On ch=1 n=a6 v=56
26286 Off ch=1 n=e6 v=0
26293 Off ch=1 n=g#6 v=0
26453 On ch=1 n=g#6 v=39
26454 Off ch=1 n=a6 v=0
26460 On ch=1 n=e6 v=54
26475 Off ch=1 n=f#6 v=0
26649 On ch=1 n=d#6 v=43
26653 On ch=1 n=g6 v=64
26670 Off ch=1 n=e6 v=0
26676 Off ch=1 n=g#6 v=0
26840 On ch=1 n=g#6 v=51
26846 Off ch=1 n=g6 v=0
26846 On ch=1 n=e6 v=62
26860 Off ch=1 n=d#6 v=0
27028 On ch=1 n=f#6 v=43
27030 On ch=1 n=a6 v=68
27050 Off ch=1 n=e6 v=0
27056 Off ch=1 n=g#6 v=0
27217 On ch=1 n=g#6 v=41
27219 Off ch=1 n=a6 v=0
27222 On ch=1 n=e6 v=58
27237 Off ch=1 n=f#6 v=0
27410 On ch=1 n=d#6 v=31
27417 Off ch=1 n=e6 v=0
27418 On ch=1 n=g6 v=68
27422 Off ch=1 n=g#6 v=0
27582 Off ch=1 n=d#6 v=0
27607 On ch=1 n=e6 v=58
27609 On ch=1 n=g#6 v=49
27626 Off ch=1 n=g6 v=0
27801 On ch=1 n=a6 v=68
27805 On ch=1 n=f#6 v=66
27817 Off ch=1 n=g#6 v=0
27829 Off ch=1 n=e6 v=0
27892 Off ch=1 n=f#6 v=0
28010 Off ch=1 n=a6 v=0
28010 On ch=1 n=a#6 v=39
28011 On ch=1 n=g6 v=54
28189 On ch=1 n=g#6 v=44
28190 On ch=1 n=b6 v=66
28209 Off ch=1 n=a#6 v=0
28213 Off ch=1 n=g6 v=0
28394 On ch=1 n=c7 v=70
28399 On ch=1 n=a6 v=60
28414 Off ch=1 n=g#6 v=0
28419 Off ch=1 n=b6 v=0
28586 On ch=1 n=a#6 v=58
28588 On ch=1 n=c#7 v=74
28604 Off ch=1 n=c7 v=0
28609 Off ch=1 n=a6 v=0
28778 On ch=1 n=d7 v=80
28779 On ch=1 n=b6 v=68
28796 Off ch=1 n=c#7 v=0
28802 Off ch=1 n=a#6 v=0
28955 On ch=1 n=d#7 v=47
28956 On ch=1 n=c7 v=68
28972 Off ch=1 n=d7 v=0
28983 Off ch=1 n=b6 v=0
29139 On ch=1 n=c#7 v=47
29141 On ch=1 n=e7 v=70
29162 Off ch=1 n=d#7 v=0
29166 Off ch=1 n=c7 v=0
29340 On ch=1 n=f7 v=72
29343 On ch=1 n=d7 v=68
29362 Off ch=1 n=e7 v=0
29367 Off ch=1 n=c#7 v=0
29534 On ch=1 n=d#7 v=68
29536 On ch=1 n=f#7 v=78
29554 Off ch=1 n=f7 v=0
29556 Off ch=1 n=d7 v=0
29723 On ch=1 n=g7 v=76
29724 On ch=1 n=e7 v=66
29738 Off ch=1 n=f#7 v=0
29743 Off ch=1 n=d#7 v=0
29912 On ch=1 n=g#7 v=64
29914 On ch=1 n=f7 v=78
29932 Off ch=1 n=g7 v=0
29936 Off ch=1 n=e7 v=0
30102 On ch=1 n=f#7 v=58
30105 On ch=1 n=a7 v=72
30126 Off ch=1 n=g#7 v=0
30127 Off ch=1 n=f7 v=0
30294 On ch=1 n=a#7 v=66
30297 On ch=1 n=g7 v=80
30314 Off ch=1 n=f#7 v=0
30317 Off ch=1 n=a7 v=0
30489 On ch=1 n=g#7 v=52
30489 On ch=1 n=b7 v=76
30508 Off ch=1 n=a#7 v=0
30512 Off ch=1 n=g7 v=0
30673 On ch=1 n=c8 v=66
30678 On ch=1 n=a7 v=62
30698 Off ch=1 n=g#7 v=0
30700 Off ch=1 n=b7 v=0
30874 On ch=1 n=a#7 v=82
30874 On ch=1 n=c#8 v=88
30891 Off ch=1 n=c8 v=0
30898 Off ch=1 n=a7 v=0
31071 On ch=1 n=d8 v=86
31072 On ch=1 n=b7 v=82
31088 Off ch=1 n=c#8 v=0
31090 Off ch=1 n=a#7 v=0
31254 On ch=1 n=c8 v=84
31254 On ch=1 n=d#8 v=86
31271 Off ch=1 n=d8 v=0
31318 Off ch=1 n=b7 v=0
31443 Off ch=1 n=c8 v=0
31446 Off ch=1 n=d#8 v=0
31453 On ch=1 n=c#8 v=86
31453 On ch=1 n=e8 v=96
31458 On ch=1 n=d#8 v=70
31472 Off ch=1 n=d#8 v=0
31623 Off ch=1 n=c#8 v=0
31625 Off ch=1 n=e8 v=0
36849 Par ch=1 c=10 v=64
36859 On ch=1 n=a#5 v=49
36861 On ch=1 n=d6 v=56
37017 Off ch=1 n=d6 v=0
37020 On ch=1 n=d#6 v=47
37021 On ch=1 n=b5 v=58
37031 Off ch=1 n=a#5 v=0
37218 On ch=1 n=a#5 v=54
37222 On ch=1 n=d6 v=66
37232 Off ch=1 n=d#6 v=0
37233 Off ch=1 n=b5 v=0
37406 On ch=1 n=d#6 v=53
37409 On ch=1 n=b5 v=64
37416 Off ch=1 n=a#5 v=0
37419 Off ch=1 n=d6 v=0
37593 On ch=1 n=e6 v=60
37593 On ch=1 n=c#6 v=41
37603 Off ch=1 n=b5 v=0
37603 Off ch=1 n=d#6 v=0
37784 On ch=1 n=d#6 v=41
37790 On ch=1 n=b5 v=60
37795 Off ch=1 n=e6 v=0
37806 Off ch=1 n=c#6 v=0
37968 On ch=1 n=c#6 v=45
37970 On ch=1 n=e6 v=60
37984 Off ch=1 n=b5 v=0
37984 Off ch=1 n=d#6 v=0
38167 On ch=1 n=d#6 v=43
38169 On ch=1 n=b5 v=56
38178 Off ch=1 n=c#6 v=0
38182 Off ch=1 n=e6 v=0
38375 On ch=1 n=d6 v=64
38375 On ch=1 n=a#5 v=49
38389 Off ch=1 n=b5 v=0
38396 Off ch=1 n=d#6 v=0
38564 On ch=1 n=d#6 v=46
38567 On ch=1 n=b5 v=58
38571 Off ch=1 n=d6 v=0
38576 Off ch=1 n=a#5 v=0
38760 On ch=1 n=a#5 v=51
38763 On ch=1 n=d6 v=58
38775 Off ch=1 n=b5 v=0
38782 Off ch=1 n=d#6 v=0
38945 On ch=1 n=d#6 v=46
38947 On ch=1 n=b5 v=56
38950 Off ch=1 n=d6 v=0
38956 Off ch=1 n=a#5 v=0
39150 On ch=1 n=a#5 v=51
39150 On ch=1 n=c#6 v=76
39160 Off ch=1 n=b5 v=0
39162 Off ch=1 n=d#6 v=0
39336 On ch=1 n=g#5 v=47
39336 On ch=1 n=b5 v=49
39341 Off ch=1 n=c#6 v=0
39351 Off ch=1 n=a#5 v=0
39525 On ch=1 n=c#6 v=45
39525 On ch=1 n=a#5 v=44
39540 Off ch=1 n=g#5 v=0
39541 Off ch=1 n=b5 v=0
39716 On ch=1 n=b5 v=56
39717 On ch=1 n=g#5 v=43
39731 Off ch=1 n=a#5 v=0
39734 Off ch=1 n=c#6 v=0
39869 Off ch=1 n=g#5 v=0
39869 Off ch=1 n=b5 v=0
39920 On ch=1 n=c#7 v=88
39921 On ch=1 n=e7 v=90
40091 On ch=1 n=d#7 v=46
40094 On ch=1 n=b6 v=84
40095 Off ch=1 n=e7 v=0
40107 Off ch=1 n=c#7 v=0
40281 On ch=1 n=c#7 v=86
40281 On ch=1 n=a#6 v=74
40292 Off ch=1 n=b6 v=0
40300 Off ch=1 n=d#7 v=0
40460 On ch=1 n=g#6 v=49
40467 On ch=1 n=b6 v=76
40468 Off ch=1 n=a#6 v=0
40474 Off ch=1 n=c#7 v=0
40649 On ch=1 n=g6 v=72
40649 On ch=1 n=a#6 v=74
40658 Off ch=1 n=b6 v=0
40664 Off ch=1 n=g#6 v=0
40839 Off ch=1 n=g6 v=0
40845 On ch=1 n=e6 v=66
40847 On ch=1 n=g#6 v=44
40871 Off ch=1 n=a#6 v=0
41043 On ch=1 n=f#6 v=78
41043 On ch=1 n=d#6 v=68
41055 Off ch=1 n=e6 v=0
41061 Off ch=1 n=g#6 v=0
41197 Off ch=1 n=f#6 v=0
41237 On ch=1 n=c#6 v=31
41244 On ch=1 n=e6 v=74
41273 Off ch=1 n=d#6 v=0
41437 On ch=1 n=b5 v=62
41437 On ch=1 n=d#6 v=64
41447 Off ch=1 n=e6 v=0
41454 Off ch=1 n=c#6 v=0
41621 On ch=1 n=c#6 v=80
41622 On ch=1 n=a#5 v=62
41633 Off ch=1 n=b5 v=0
41642 Off ch=1 n=d#6 v=0
41769 Off ch=1 n=c#6 v=0
41810 On ch=1 n=b5 v=54
41810 On ch=1 n=g#5 v=44
41820 Off ch=1 n=a#5 v=0
41981 On ch=1 n=a#5 v=62
41982 On ch=1 n=g5 v=62
41993 Off ch=1 n=b5 v=0
41997 Off ch=1 n=g#5 v=0
42168 On ch=1 n=e5 v=58
42170 On ch=1 n=g#5 v=46
42174 Off ch=1 n=g5 v=0
42199 Off ch=1 n=a#5 v=0
42377 On ch=1 n=f#5 v=66
42377 On ch=1 n=d#5 v=56
42387 Off ch=1 n=e5 v=0
42399 Off ch=1 n=g#5 v=0
42579 On ch=1 n=e5 v=68
42581 On ch=1 n=c#5 v=54
42593 Off ch=1 n=f#5 v=0
42596 Off ch=1 n=d#5 v=0
42779 On ch=1 n=d#5 v=54
42780 On ch=1 n=b4 v=74
42792 Off ch=1 n=e5 v=0
42798 Off ch=1 n=c#5 v=0
42950 Off ch=1 n=b4 v=0
42956 Off ch=1 n=d#5 v=0
42988 Par ch=1 c=10 v=64
43005 On ch=1 n=d5 v=53
43006 On ch=1 n=a#4 v=45
43187 On ch=1 n=b4 v=50
43189 On ch=1 n=d#5 v=42
43191 Off ch=1 n=a#4 v=0
43211 Off ch=1 n=d5 v=0
43389 On ch=1 n=c#5 v=43
43392 On ch=1 n=e5 v=64
43410 Off ch=1 n=b4 v=0
43414 Off ch=1 n=d#5 v=0
43572 On ch=1 n=f5 v=56
43574 On ch=1 n=d5 v=52
43593 Off ch=1 n=c#5 v=0
43608 Off ch=1 n=e5 v=0
43750 On ch=1 n=f#5 v=44
43755 On ch=1 n=d#5 v=35
43760 Off ch=1 n=f5 v=0
43780 Off ch=1 n=d5 v=0
43935 On ch=1 n=e5 v=53
43936 On ch=1 n=g5 v=66
43960 Off ch=1 n=d#5 v=0
43961 Off ch=1 n=f#5 v=0
44117 On ch=1 n=g#5 v=47
44119 On ch=1 n=f5 v=62
44138 Off ch=1 n=g5 v=0
44142 Off ch=1 n=e5 v=0
44300 On ch=1 n=f#5 v=60
44303 On ch=1 n=a5 v=70
44324 Off ch=1 n=f5 v=0
44330 Off ch=1 n=g#5 v=0
44487 On ch=1 n=a#5 v=47
44488 On ch=1 n=g5 v=58
44507 Off ch=1 n=a5 v=0
44510 Off ch=1 n=f#5 v=0
44680 On ch=1 n=g#5 v=46
44682 On ch=1 n=b5 v=72
44703 Off ch=1 n=g5 v=0
44705 Off ch=1 n=a#5 v=0
44872 On ch=1 n=c6 v=66
44874 On ch=1 n=a5 v=62
44895 Off ch=1 n=g#5 v=0
44901 Off ch=1 n=b5 v=0
45064 On ch=1 n=c#6 v=70
45064 On ch=1 n=a#5 v=53
45086 Off ch=1 n=c6 v=0
45089 Off ch=1 n=a5 v=0
45260 On ch=1 n=d6 v=82
45260 On ch=1 n=b5 v=68
45280 Off ch=1 n=c#6 v=0
45285 Off ch=1 n=a#5 v=0
45461 On ch=1 n=d#6 v=66
45462 On ch=1 n=c6 v=82
45482 Off ch=1 n=d6 v=0
45485 Off ch=1 n=b5 v=0
45654 On ch=1 n=e6 v=78
45654 On ch=1 n=c#6 v=68
45680 Off ch=1 n=c6 v=0
45684 Off ch=1 n=d#6 v=0
45848 On ch=1 n=f6 v=74
45854 On ch=1 n=d6 v=72
45883 Off ch=1 n=c#6 v=0
45887 Off ch=1 n=e6 v=0
46038 Off ch=1 n=f6 v=0
46049 On ch=1 n=d#6 v=40
46050 On ch=1 n=f#6 v=89
46071 Off ch=1 n=d6 v=0
46190 Off ch=1 n=f#6 v=0
46190 Off ch=1 n=d#6 v=0
52200 Par ch=1 c=10 v=64
52200 On ch=1 n=d#6 v=49
52200 On ch=1 n=b5 v=70
52362 On ch=1 n=c#6 v=50
52362 On ch=1 n=e6 v=66
52405 Off ch=1 n=d#6 v=0
52407 Off ch=1 n=b5 v=0
52547 On ch=1 n=d6 v=64
52547 On ch=1 n=f6 v=58
52565 Off ch=1 n=c#6 v=0
52570 Off ch=1 n=e6 v=0
52734 On ch=1 n=d#6 v=51
52737 On ch=1 n=f#6 v=60
52755 Off ch=1 n=f6 v=0
52757 Off ch=1 n=d6 v=0
52924 On ch=1 n=g6 v=74
52928 On ch=1 n=e6 v=66
52947 Off ch=1 n=f#6 v=0
52949 Off ch=1 n=d#6 v=0
53118 On ch=1 n=f6 v=72
53118 On ch=1 n=g#6 v=44
53139 Off ch=1 n=e6 v=0
53141 Off ch=1 n=g6 v=0
53323 On ch=1 n=f#6 v=56
53324 On ch=1 n=a6 v=70
53348 Off ch=1 n=g#6 v=0
53348 Off ch=1 n=f6 v=0
53523 On ch=1 n=a#6 v=60
53524 On ch=1 n=g6 v=64
53544 Off ch=1 n=f#6 v=0
53545 Off ch=1 n=a6 v=0
53721 On ch=1 n=g#6 v=48
53724 On ch=1 n=b6 v=74
53743 Off ch=1 n=a#6 v=0
53745 Off ch=1 n=g6 v=0
53918 On ch=1 n=g6 v=60
53920 On ch=1 n=a#6 v=50
53939 Off ch=1 n=b6 v=0
53949 Off ch=1 n=g#6 v=0
54109 On ch=1 n=f#6 v=43
54114 On ch=1 n=a6 v=51
54134 Off ch=1 n=g6 v=0
54136 Off ch=1 n=a#6 v=0
54291 On ch=1 n=g#6 v=42
54292 On ch=1 n=f6 v=62
54312 Off ch=1 n=a6 v=0
54333 Off ch=1 n=f#6 v=0
54408 Off ch=1 n=f6 v=0
54491 On ch=1 n=e6 v=56
54495 On ch=1 n=g6 v=60
54517 Off ch=1 n=g#6 v=0
54666 On ch=1 n=f#6 v=50
54668 On ch=1 n=d#6 v=39
54689 Off ch=1 n=g6 v=0
54689 Off ch=1 n=e6 v=0
54854 On ch=1 n=d6 v=54
54858 On ch=1 n=f6 v=58
54879 Off ch=1 n=f#6 v=0
54881 Off ch=1 n=d#6 v=0
55037 On ch=1 n=c#6 v=37
55043 On ch=1 n=e6 v=53
55062 Off ch=1 n=d6 v=0
55081 Off ch=1 n=f6 v=0
55226 On ch=1 n=d#6 v=44
55226 On ch=1 n=c6 v=53
55248 Off ch=1 n=e6 v=0
55251 Off ch=1 n=c#6 v=0
55378 Off ch=1 n=c6 v=0
55427 On ch=1 n=b5 v=46
55437 On ch=1 n=d6 v=62
55456 Off ch=1 n=d#6 v=0
55612 On ch=1 n=c#6 v=46
55615 On ch=1 n=a#5 v=39
55638 Off ch=1 n=d6 v=0
55640 Off ch=1 n=b5 v=0
55808 On ch=1 n=a5 v=58
55826 Off ch=1 n=a#5 v=0
55826 On ch=1 n=c6 v=58
55832 Off ch=1 n=c#6 v=0
56008 On ch=1 n=b5 v=62
56008 On ch=1 n=g#5 v=31
56031 Off ch=1 n=c6 v=0
56034 Off ch=1 n=a5 v=0
56192 On ch=1 n=a5 v=53
56193 On ch=1 n=c6 v=60
56209 Off ch=1 n=b5 v=0
56214 Off ch=1 n=g#5 v=0
56388 On ch=1 n=a#5 v=49
56388 On ch=1 n=c#6 v=53
56405 Off ch=1 n=c6 v=0
56414 Off ch=1 n=a5 v=0
56584 On ch=1 n=d6 v=74
56585 On ch=1 n=b5 v=60
56608 Off ch=1 n=a#5 v=0
56609 Off ch=1 n=c#6 v=0
56777 On ch=1 n=d#6 v=52
56779 On ch=1 n=c6 v=64
56800 Off ch=1 n=d6 v=0
56810 Off ch=1 n=b5 v=0
56973 On ch=1 n=e6 v=68
56973 On ch=1 n=c#6 v=52
57000 Off ch=1 n=c6 v=0
57001 Off ch=1 n=d#6 v=0
57163 On ch=1 n=f6 v=72
57169 On ch=1 n=d6 v=56
57187 Off ch=1 n=c#6 v=0
57194 Off ch=1 n=e6 v=0
57357 On ch=1 n=d#6 v=66
57357 On ch=1 n=f#6 v=72
57380 Off ch=1 n=f6 v=0
57382 Off ch=1 n=d6 v=0
57543 On ch=1 n=g6 v=72
57544 On ch=1 n=e6 v=56
57567 Off ch=1 n=f#6 v=0
57571 Off ch=1 n=d#6 v=0
57735 On ch=1 n=d#6 v=46
57735 On ch=1 n=f#6 v=50
57761 Off ch=1 n=e6 v=0
57763 Off ch=1 n=g6 v=0
57932 On ch=1 n=d6 v=62
57937 On ch=1 n=f6 v=58
57953 Off ch=1 n=d#6 v=0
57958 Off ch=1 n=f#6 v=0
58124 On ch=1 n=c#6 v=33
58131 On ch=1 n=e6 v=56
58152 Off ch=1 n=d6 v=0
58164 Off ch=1 n=f6 v=0
58299 Off ch=1 n=c#6 v=0
58300 Off ch=1 n=e6 v=0
58342 On ch=1 n=d#6 v=45
58343 On ch=1 n=b5 v=46
58479 Par ch=1 c=10 v=64
58526 On ch=1 n=c#6 v=30
58532 On ch=1 n=e6 v=35
58538 Off ch=1 n=d#6 v=0
58547 Off ch=1 n=b5 v=0
58721 On ch=1 n=d#6 v=42
58723 On ch=1 n=b5 v=33
58743 Off ch=1 n=e6 v=0
58750 Off ch=1 n=c#6 v=0
58915 On ch=1 n=c#6 v=39
58922 On ch=1 n=e6 v=44
58938 Off ch=1 n=b5 v=0
58939 Off ch=1 n=d#6 v=0
59110 On ch=1 n=d#6 v=37
59113 On ch=1 n=b5 v=46
59130 Off ch=1 n=e6 v=0
59137 Off ch=1 n=c#6 v=0
59296 On ch=1 n=c#6 v=43
59300 On ch=1 n=e6 v=56
59317 Off ch=1 n=b5 v=0
59319 Off ch=1 n=d#6 v=0
59486 On ch=1 n=b5 v=47
59486 On ch=1 n=d#6 v=45
59506 Off ch=1 n=e6 v=0
59512 Off ch=1 n=c#6 v=0
59673 On ch=1 n=c#6 v=39
59675 On ch=1 n=e6 v=51
59691 Off ch=1 n=b5 v=0
59696 Off ch=1 n=d#6 v=0
59868 On ch=1 n=b5 v=47
59868 On ch=1 n=d#6 v=43
59877 Off ch=1 n=e6 v=0
59895 Off ch=1 n=c#6 v=0
60050 On ch=1 n=c#6 v=41
60054 On ch=1 n=e6 v=56
60069 Off ch=1 n=b5 v=0
60075 Off ch=1 n=d#6 v=0
60251 On ch=1 n=d#6 v=43
60253 On ch=1 n=b5 v=56
60260 Off ch=1 n=e6 v=0
60279 Off ch=1 n=c#6 v=0
60432 On ch=1 n=c#6 v=43
60436 On ch=1 n=e6 v=58
60446 Off ch=1 n=b5 v=0
60454 Off ch=1 n=d#6 v=0
60624 On ch=1 n=d#6 v=31
60625 On ch=1 n=b5 v=49
60628 Off ch=1 n=e6 v=0
60649 Off ch=1 n=c#6 v=0
60812 On ch=1 n=c#6 v=39
60817 On ch=1 n=e6 v=47
60832 Off ch=1 n=b5 v=0
60835 Off ch=1 n=d#6 v=0
61001 On ch=1 n=d#6 v=41
61003 On ch=1 n=b5 v=48
61013 Off ch=1 n=e6 v=0
61021 Off ch=1 n=c#6 v=0
61195 On ch=1 n=c#6 v=43
61200 On ch=1 n=e6 v=50
61215 Off ch=1 n=b5 v=0
61220 Off ch=1 n=d#6 v=0
61396 On ch=1 n=d#6 v=48
61397 On ch=1 n=b5 v=50
61416 Off ch=1 n=e6 v=0
61419 Off ch=1 n=c#6 v=0
61583 On ch=1 n=c#6 v=43
61585 On ch=1 n=e6 v=53
61603 Off ch=1 n=b5 v=0
61607 Off ch=1 n=d#6 v=0
61762 Off ch=1 n=e6 v=0
61765 On ch=1 n=d#6 v=41
61766 On ch=1 n=b5 v=51
61780 Off ch=1 n=c#6 v=0
61958 On ch=1 n=a#5 v=41
61960 On ch=1 n=d6 v=58
61977 Off ch=1 n=b5 v=0
61984 Off ch=1 n=d#6 v=0
62160 On ch=1 n=d#6 v=41
62163 On ch=1 n=b5 v=58
62165 Off ch=1 n=d6 v=0
62177 Off ch=1 n=a#5 v=0
62354 On ch=1 n=c#6 v=41
62355 On ch=1 n=e6 v=56
62378 Off ch=1 n=b5 v=0
62381 Off ch=1 n=d#6 v=0
62549 Off ch=1 n=e6 v=0
62549 On ch=1 n=d#6 v=37
62550 On ch=1 n=b5 v=60
62572 Off ch=1 n=c#6 v=0
62736 On ch=1 n=a#5 v=42
62740 On ch=1 n=d6 v=64
62760 Off ch=1 n=b5 v=0
62761 Off ch=1 n=d#6 v=0
62931 On ch=1 n=d#6 v=44
62934 On ch=1 n=b5 v=56
62944 Off ch=1 n=a#5 v=0
62947 Off ch=1 n=d6 v=0
63140 On ch=1 n=c#6 v=33
63142 On ch=1 n=e6 v=60
63163 Off ch=1 n=d#6 v=0
63168 Off ch=1 n=b5 v=0
63332 Off ch=1 n=e6 v=0
63332 On ch=1 n=d#6 v=42
63336 On ch=1 n=b5 v=53
63353 Off ch=1 n=c#6 v=0
63514 On ch=1 n=a#5 v=49
63518 On ch=1 n=d6 v=58
63537 Off ch=1 n=b5 v=0
63542 Off ch=1 n=d#6 v=0
63698 On ch=1 n=d#6 v=46
63703 On ch=1 n=b5 v=64
63713 Off ch=1 n=d6 v=0
63719 Off ch=1 n=a#5 v=0
63883 On ch=1 n=c#6 v=39
63885 On ch=1 n=e6 v=66
63904 Off ch=1 n=b5 v=0
63906 Off ch=1 n=d#6 v=0
64063 On ch=1 n=d#6 v=43
64067 Off ch=1 n=e6 v=0
64068 On ch=1 n=b5 v=49
64086 Off ch=1 n=c#6 v=0
64244 On ch=1 n=a#5 v=39
64249 On ch=1 n=d6 v=68
64261 Off ch=1 n=d#6 v=0
64271 Off ch=1 n=b5 v=0
64436 Off ch=1 n=d6 v=0
64437 On ch=1 n=d#6 v=46
64438 On ch=1 n=b5 v=64
64448 Off ch=1 n=a#5 v=0
64633 On ch=1 n=c#6 v=43
64634 On ch=1 n=e6 v=62
64653 Off ch=1 n=b5 v=0
64655 Off ch=1 n=d#6 v=0
64841 On ch=1 n=d6 v=68
64842 On ch=1 n=f6 v=62
64861 Off ch=1 n=c#6 v=0
64865 Off ch=1 n=e6 v=0
65043 On ch=1 n=d#6 v=58
65044 On ch=1 n=f#6 v=64
65063 Off ch=1 n=f6 v=0
65063 Off ch=1 n=d6 v=0
65232 On ch=1 n=g6 v=72
65234 On ch=1 n=e6 v=62
65252 Off ch=1 n=f#6 v=0
65252 Off ch=1 n=d#6 v=0
65415 On ch=1 n=g#6 v=43
65416 On ch=1 n=f6 v=72
65433 Off ch=1 n=g6 v=0
65439 Off ch=1 n=e6 v=0
65604 On ch=1 n=f#6 v=51
65606 On ch=1 n=a6 v=66
65623 Off ch=1 n=g#6 v=0
65629 Off ch=1 n=f6 v=0
65796 On ch=1 n=g6 v=64
65797 On ch=1 n=a#6 v=58
65802 Off ch=1 n=a6 v=0
65814 Off ch=1 n=f#6 v=0
65988 On ch=1 n=g#6 v=51
65989 On ch=1 n=b6 v=74
66009 Off ch=1 n=a#6 v=0
66015 Off ch=1 n=g6 v=0
66187 On ch=1 n=c7 v=64
66189 On ch=1 n=a6 v=56
66207 Off ch=1 n=g#6 v=0
66209 Off ch=1 n=b6 v=0
66373 On ch=1 n=a#6 v=66
66375 On ch=1 n=c#7 v=84
66392 Off ch=1 n=c7 v=0
66398 Off ch=1 n=a6 v=0
66563 On ch=1 n=d7 v=74
66564 On ch=1 n=b6 v=68
66580 Off ch=1 n=c#7 v=0
66583 Off ch=1 n=a#6 v=0
66748 On ch=1 n=d#7 v=60
66750 On ch=1 n=c7 v=68
66765 Off ch=1 n=d7 v=0
66776 Off ch=1 n=b6 v=0
66945 On ch=1 n=c#7 v=52
66945 On ch=1 n=e7 v=76
66968 Off ch=1 n=c7 v=0
66968 Off ch=1 n=d#7 v=0
67143 On ch=1 n=f7 v=64
67148 On ch=1 n=d7 v=64
67162 Off ch=1 n=c#7 v=0
67165 Off ch=1 n=e7 v=0
67331 On ch=1 n=d#7 v=64
67335 On ch=1 n=f#7 v=80
67354 Off ch=1 n=f7 v=0
67355 Off ch=1 n=d7 v=0
67533 On ch=1 n=e7 v=70
67533 On ch=1 n=g7 v=78
67547 Off ch=1 n=f#7 v=0
67551 Off ch=1 n=d#7 v=0
67720 On ch=1 n=f7 v=78
67721 On ch=1 n=g#7 v=68
67737 Off ch=1 n=g7 v=0
67743 Off ch=1 n=e7 v=0
67907 On ch=1 n=f#7 v=74
67908 On ch=1 n=a7 v=84
67927 Off ch=1 n=g#7 v=0
67930 Off ch=1 n=f7 v=0
68100 Off ch=1 n=a7 v=0
68103 On ch=1 n=a#7 v=76
68105 On ch=1 n=g7 v=74
68128 Off ch=1 n=f#7 v=0
68284 Off ch=1 n=g7 v=0
68301 Off ch=1 n=a#7 v=0
68309 On ch=1 n=g#7 v=90
68310 On ch=1 n=b7 v=90
68435 Off ch=1 n=g#7 v=0
68438 Off ch=1 n=b7 v=0
101340 Par ch=1 c=10 v=64
101348 On ch=1 n=b6 v=92
101348 On ch=1 n=g#6 v=94
101533 On ch=1 n=f6 v=84
101534 On ch=1 n=d6 v=74
101544 Off ch=1 n=b6 v=0
101547 Off ch=1 n=g#6 v=0
101726 On ch=1 n=g6 v=86
101726 On ch=1 n=a#6 v=70
101730 Off ch=1 n=d6 v=0
101736 Off ch=1 n=f6 v=0
101906 On ch=1 n=e6 v=88
101909 On ch=1 n=c#6 v=72
101917 Off ch=1 n=g6 v=0
101925 Off ch=1 n=a#6 v=0
102093 On ch=1 n=f#6 v=66
102094 On ch=1 n=a6 v=84
102098 Off ch=1 n=c#6 v=0
102109 Off ch=1 n=e6 v=0
102272 On ch=1 n=d#6 v=64
102275 On ch=1 n=c6 v=74
102287 Off ch=1 n=a6 v=0
102294 Off ch=1 n=f#6 v=0
102463 On ch=1 n=f6 v=84
102465 On ch=1 n=g#6 v=66
102480 Off ch=1 n=c6 v=0
102480 Off ch=1 n=d#6 v=0
102658 On ch=1 n=d6 v=88
102661 On ch=1 n=b5 v=72
102676 Off ch=1 n=g#6 v=0
102676 Off ch=1 n=f6 v=0
102857 On ch=1 n=e6 v=84
102858 On ch=1 n=g6 v=82
102876 Off ch=1 n=b5 v=0
102876 Off ch=1 n=d6 v=0
103046 On ch=1 n=a#5 v=70
103046 On ch=1 n=c#6 v=76
103047 Off ch=1 n=g6 v=0
103062 Off ch=1 n=e6 v=0
103241 On ch=1 n=d#6 v=90
103241 On ch=1 n=f#6 v=84
103260 Off ch=1 n=c#6 v=0
103262 Off ch=1 n=a#5 v=0
103437 On ch=1 n=c6 v=82
103440 On ch=1 n=a5 v=72
103450 Off ch=1 n=f#6 v=0
103455 Off ch=1 n=d#6 v=0
103631 On ch=1 n=d#6 v=80
103632 On ch=1 n=f6 v=86
103650 Off ch=1 n=c6 v=0
103651 Off ch=1 n=a5 v=0
103820 On ch=1 n=c6 v=76
103822 On ch=1 n=a5 v=70
103837 Off ch=1 n=f6 v=0
103843 Off ch=1 n=d#6 v=0
104008 On ch=1 n=d#6 v=72
104011 On ch=1 n=f6 v=80
104032 Off ch=1 n=a5 v=0
104032 Off ch=1 n=c6 v=0
104187 On ch=1 n=c6 v=78
104189 On ch=1 n=a5 v=66
104204 Off ch=1 n=f6 v=0
104210 Off ch=1 n=d#6 v=0
104382 On ch=1 n=d6 v=84
104385 On ch=1 n=f6 v=86
104399 Off ch=1 n=c6 v=0
104407 Off ch=1 n=a5 v=0
104576 On ch=1 n=b5 v=70
104578 On ch=1 n=a5 v=64
104582 Off ch=1 n=f6 v=0
104599 Off ch=1 n=d6 v=0
104766 On ch=1 n=e6 v=66
104767 On ch=1 n=d6 v=80
104787 Off ch=1 n=b5 v=0
104792 Off ch=1 n=a5 v=0
104950 On ch=1 n=g#5 v=47
104952 On ch=1 n=b5 v=72
104969 Off ch=1 n=e6 v=0
104971 Off ch=1 n=d6 v=0
105148 On ch=1 n=e6 v=58
105150 On ch=1 n=d6 v=80
105173 Off ch=1 n=b5 v=0
105177 Off ch=1 n=g#5 v=0
105342 On ch=1 n=g#5 v=50
105343 On ch=1 n=b5 v=78
105353 Off ch=1 n=e6 v=0
105362 Off ch=1 n=d6 v=0
105542 On ch=1 n=e6 v=53
105542 On ch=1 n=d6 v=78
105565 Off ch=1 n=b5 v=0
105573 Off ch=1 n=g#5 v=0
105728 On ch=1 n=g#5 v=47
105728 On ch=1 n=b5 v=76
105745 Off ch=1 n=e6 v=0
105752 Off ch=1 n=d6 v=0
105921 On ch=1 n=c#6 v=53
105926 On ch=1 n=e6 v=80
105936 Off ch=1 n=b5 v=0
105951 Off ch=1 n=g#5 v=0
106112 On ch=1 n=a#5 v=52
106112 On ch=1 n=g5 v=64
106134 Off ch=1 n=c#6 v=0
106135 Off ch=1 n=e6 v=0
106299 On ch=1 n=c#6 v=76
106300 On ch=1 n=d#6 v=76
106322 Off ch=1 n=a#5 v=0
106325 Off ch=1 n=g5 v=0
106492 On ch=1 n=a#5 v=47
106495 On ch=1 n=g5 v=70
106513 Off ch=1 n=d#6 v=0
106515 Off ch=1 n=c#6 v=0
106683 On ch=1 n=c#6 v=50
106685 On ch=1 n=d#6 v=49
106709 Off ch=1 n=a#5 v=0
106877 Off ch=1 n=g5 v=0
106877 On ch=1 n=a#5 v=49
106881 On ch=1 n=g5 v=66
106901 Off ch=1 n=d#6 v=0
106904 Off ch=1 n=c#6 v=0
107083 On ch=1 n=c#6 v=45
107084 On ch=1 n=d#6 v=51
107105 Off ch=1 n=g5 v=0
107108 Off ch=1 n=a#5 v=0
107272 On ch=1 n=a#5 v=33
107276 On ch=1 n=g5 v=51
107298 Off ch=1 n=c#6 v=0
107299 Off ch=1 n=d#6 v=0
107423 Off ch=1 n=a#5 v=0
107430 Off ch=1 n=g5 v=0
107489 On ch=1 n=d#6 v=48
107489 On ch=1 n=b5 v=56
107491 On ch=1 n=g#3 v=76
107666 Par ch=1 c=10 v=64
107680 On ch=1 n=c#6 v=35
107683 On ch=1 n=e6 v=41
107689 Off ch=1 n=b5 v=0
107704 Off ch=1 n=d#6 v=0
107865 On ch=1 n=d#4 v=60
107875 On ch=1 n=d#6 v=31
107876 Off ch=1 n=e6 v=0
107880 On ch=1 n=b5 v=35
107887 Off ch=1 n=g#3 v=0
107910 Off ch=1 n=c#6 v=0
108052 On ch=1 n=c#6 v=44
108059 On ch=1 n=e6 v=52
108069 Off ch=1 n=b5 v=0
108081 Off ch=1 n=d#6 v=0
108228 On ch=1 n=d#6 v=39
108232 On ch=1 n=b5 v=51
108240 Off ch=1 n=e6 v=0
108243 On ch=1 n=b4 v=64
108252 Off ch=1 n=d#4 v=0
108255 Off ch=1 n=c#6 v=0
108411 On ch=1 n=c#6 v=35
108415 On ch=1 n=e6 v=48
108430 Off ch=1 n=b5 v=0
108438 Off ch=1 n=d#6 v=0
108494 Off ch=1 n=b4 v=0
108591 On ch=1 n=b5 v=45
108592 On ch=1 n=d#6 v=48
108596 On ch=1 n=g3 v=60
108611 Off ch=1 n=c#6 v=0
108612 Off ch=1 n=e6 v=0
108791 On ch=1 n=c#6 v=35
108794 On ch=1 n=e6 v=52
108813 Off ch=1 n=b5 v=0
108820 Off ch=1 n=d#6 v=0
108959 On ch=1 n=g#3 v=53
108980 On ch=1 n=d#6 v=46
108982 On ch=1 n=b5 v=54
109001 Off ch=1 n=g3 v=0
109003 Off ch=1 n=e6 v=0
109004 Off ch=1 n=c#6 v=0
109173 On ch=1 n=c#6 v=41
109176 On ch=1 n=e6 v=54
109192 Off ch=1 n=b5 v=0
109201 Off ch=1 n=d#6 v=0
109329 On ch=1 n=d#4 v=39
109357 On ch=1 n=d#6 v=44
109363 On ch=1 n=b5 v=47
109377 Off ch=1 n=c#6 v=0
109381 Off ch=1 n=e6 v=0
109555 On ch=1 n=c#6 v=37
109557 On ch=1 n=e6 v=50
109576 Off ch=1 n=b5 v=0
109582 Off ch=1 n=d#6 v=0
109751 On ch=1 n=d#6 v=37
109754 On ch=1 n=b5 v=48
109757 Off ch=1 n=e6 v=0
109760 On ch=1 n=b4 v=66
109765 Off ch=1 n=d#4 v=0
109781 Off ch=1 n=c#6 v=0
109940 On ch=1 n=c#6 v=39
109945 On ch=1 n=e6 v=58
109959 Off ch=1 n=b5 v=0
109974 Off ch=1 n=d#6 v=0
110016 Off ch=1 n=g#3 v=0
110038 Off ch=1 n=b4 v=0
110131 On ch=1 n=d#6 v=43
110133 On ch=1 n=d#3 v=72
110136 On ch=1 n=b5 v=49
110138 Off ch=1 n=e6 v=0
110158 Off ch=1 n=c#6 v=0
110320 On ch=1 n=c#6 v=35
110323 On ch=1 n=e6 v=49
110333 Off ch=1 n=b5 v=0
110344 Off ch=1 n=d#6 v=0
110508 On ch=1 n=g#3 v=88
110514 On ch=1 n=d#6 v=39
110515 On ch=1 n=b5 v=64
110532 Off ch=1 n=e6 v=0
110538 Off ch=1 n=c#6 v=0
110552 Off ch=1 n=d#3 v=0
110711 On ch=1 n=c#6 v=44
110714 On ch=1 n=e6 v=52
110729 Off ch=1 n=b5 v=0
110736 Off ch=1 n=d#6 v=0
110883 On ch=1 n=d#4 v=54
110902 On ch=1 n=d#6 v=35
110906 On ch=1 n=b5 v=54
110908 Off ch=1 n=e6 v=0
110923 Off ch=1 n=c#6 v=0
111094 On ch=1 n=a#5 v=39
111100 On ch=1 n=d6 v=56
111112 Off ch=1 n=b5 v=0
111122 Off ch=1 n=d#6 v=0
111279 On ch=1 n=b4 v=80
111287 On ch=1 n=d#6 v=35
111291 On ch=1 n=b5 v=54
111302 Off ch=1 n=d6 v=0
111305 Off ch=1 n=a#5 v=0
111316 Off ch=1 n=d#4 v=0
111479 On ch=1 n=e6 v=49
111499 Off ch=1 n=d#6 v=0
111499 On ch=1 n=c#6 v=41
111502 Off ch=1 n=b5 v=0
111558 Off ch=1 n=g#3 v=0
111585 Off ch=1 n=b4 v=0
111643 On ch=1 n=c#4 v=72
111671 On ch=1 n=d#6 v=43
111675 On ch=1 n=b5 v=53
111679 Off ch=1 n=e6 v=0
111695 Off ch=1 n=c#6 v=0
111859 On ch=1 n=a#5 v=49
111860 On ch=1 n=d6 v=62
111876 Off ch=1 n=b5 v=0
111885 Off ch=1 n=d#6 v=0
112030 On ch=1 n=b3 v=88
112052 On ch=1 n=d#6 v=43
112055 On ch=1 n=b5 v=60
112059 Off ch=1 n=d6 v=0
112069 Off ch=1 n=a#5 v=0
112078 Off ch=1 n=c#4 v=0
112244 On ch=1 n=c#6 v=43
112247 On ch=1 n=e6 v=58
112264 Off ch=1 n=b5 v=0
112270 Off ch=1 n=d#6 v=0
112421 On ch=1 n=d#4 v=52
112431 On ch=1 n=d#6 v=39
112437 On ch=1 n=b5 v=53
112453 Off ch=1 n=e6 v=0
112453 Off ch=1 n=c#6 v=0
112615 On ch=1 n=a#5 v=41
112621 On ch=1 n=d6 v=64
112631 Off ch=1 n=b5 v=0
112643 Off ch=1 n=d#6 v=0
112805 On ch=1 n=d#6 v=44
112808 On ch=1 n=b5 v=64
112817 Off ch=1 n=d6 v=0
112818 On ch=1 n=b4 v=70
112822 Off ch=1 n=a#5 v=0
112862 Off ch=1 n=d#4 v=0
112997 On ch=1 n=c#6 v=43
113001 On ch=1 n=e6 v=62
113022 Off ch=1 n=b5 v=0
113025 Off ch=1 n=d#6 v=0
113083 Off ch=1 n=b3 v=0
113086 Off ch=1 n=b4 v=0
113179 Off ch=1 n=e6 v=0
113186 On ch=1 n=d#6 v=42
113195 On ch=1 n=b5 v=62
113195 On ch=1 n=d#3 v=50
113213 Off ch=1 n=c#6 v=0
113381 On ch=1 n=a#5 v=43
113385 On ch=1 n=d6 v=62
113400 Off ch=1 n=b5 v=0
113409 Off ch=1 n=d#6 v=0
113566 On ch=1 n=g#3 v=50
113580 On ch=1 n=d#6 v=46
113582 On ch=1 n=b5 v=64
113596 Off ch=1 n=d6 v=0
113597 Off ch=1 n=a#5 v=0
113613 Off ch=1 n=d#3 v=0
113766 On ch=1 n=c#6 v=39
113767 On ch=1 n=e6 v=53
113786 Off ch=1 n=b5 v=0
113800 Off ch=1 n=d#6 v=0
113838 Off ch=1 n=g#3 v=0
113933 On ch=1 n=g#5 v=43
113936 On ch=1 n=d#5 v=43
113937 On ch=1 n=b4 v=70
113939 Off ch=1 n=e6 v=0
113958 On ch=1 n=f6 v=54
113960 On ch=1 n=d6 v=60
113979 Off ch=1 n=c#6 v=0
114147 On ch=1 n=d#6 v=49
114151 On ch=1 n=f#6 v=49
114167 Off ch=1 n=f6 v=0
114170 Off ch=1 n=d6 v=0
114221 Off ch=1 n=b4 v=0
114237 Off ch=1 n=d#5 v=0
114240 Off ch=1 n=g#5 v=0
114332 On ch=1 n=g6 v=68
114335 On ch=1 n=e6 v=56
114351 Off ch=1 n=f#6 v=0
114351 Off ch=1 n=d#6 v=0
114353 On ch=1 n=g#5 v=50
114354 On ch=1 n=d#5 v=46
114365 On ch=1 n=b4 v=72
114525 On ch=1 n=f6 v=51
114527 On ch=1 n=g#6 v=35
114551 Off ch=1 n=g6 v=0
114560 Off ch=1 n=e6 v=0
114659 Off ch=1 n=d#5 v=0
114669 Off ch=1 n=b4 v=0
114709 On ch=1 n=d#5 v=62
114712 On ch=1 n=f#5 v=47
114713 On ch=1 n=b4 v=54
114717 On ch=1 n=f#6 v=48
114717 On ch=1 n=a6 v=64
114736 Off ch=1 n=g#6 v=0
114742 Off ch=1 n=f6 v=0
114779 Off ch=1 n=g#5 v=0
114926 On ch=1 n=a#6 v=50
114926 On ch=1 n=g6 v=62
114946 Off ch=1 n=f#6 v=0
114952 Off ch=1 n=a6 v=0
115084 Off ch=1 n=f#5 v=0
115084 Off ch=1 n=d#5 v=0
115089 Off ch=1 n=b4 v=0
115112 On ch=1 n=f#5 v=58
115113 On ch=1 n=d#5 v=53
115123 On ch=1 n=g#6 v=48
115124 On ch=1 n=b6 v=74
115134 On ch=1 n=b4 v=66
115144 Off ch=1 n=g6 v=0
115144 Off ch=1 n=a#6 v=0
115319 On ch=1 n=c7 v=62
115325 On ch=1 n=a6 v=50
115339 Off ch=1 n=b6 v=0
115342 Off ch=1 n=g#6 v=0
115461 Off ch=1 n=b4 v=0
115507 On ch=1 n=a#6 v=68
115508 On ch=1 n=e5 v=76
115509 On ch=1 n=c#7 v=74
115514 On ch=1 n=g#4 v=41
115518 On ch=1 n=b4 v=53
115528 Off ch=1 n=c7 v=0
115532 Off ch=1 n=a6 v=0
115538 Off ch=1 n=d#5 v=0
115577 Off ch=1 n=f#5 v=0
115699 On ch=1 n=d7 v=74
115699 On ch=1 n=b6 v=60
115715 Off ch=1 n=c#7 v=0
115716 Off ch=1 n=a#6 v=0
115844 Off ch=1 n=b4 v=0
115844 Off ch=1 n=e5 v=0
115849 Off ch=1 n=g#4 v=0
115879 On ch=1 n=d#7 v=56
115879 On ch=1 n=c7 v=68
115885 On ch=1 n=e5 v=80
115895 On ch=1 n=g#4 v=53
115898 On ch=1 n=b4 v=60
115899 Off ch=1 n=d7 v=0
115901 Off ch=1 n=b6 v=0
116070 On ch=1 n=c#7 v=51
116071 On ch=1 n=e7 v=70
116090 Off ch=1 n=c7 v=0
116090 Off ch=1 n=d#7 v=0
116208 Off ch=1 n=b4 v=0
116224 Off ch=1 n=g#4 v=0
116257 On ch=1 n=g#4 v=45
116260 On ch=1 n=d#5 v=64
116263 On ch=1 n=f7 v=62
116264 On ch=1 n=b4 v=54
116269 On ch=1 n=d7 v=54
116275 Off ch=1 n=e7 v=0
116285 Off ch=1 n=c#7 v=0
116313 Off ch=1 n=e5 v=0
116458 On ch=1 n=d#7 v=72
116460 On ch=1 n=f#7 v=78
116479 Off ch=1 n=d7 v=0
116479 Off ch=1 n=f7 v=0
116566 Off ch=1 n=b4 v=0
116583 Off ch=1 n=d#5 v=0
116583 Off ch=1 n=g#4 v=0
116632 On ch=1 n=d#5 v=78
116639 On ch=1 n=g#4 v=54
116644 On ch=1 n=b4 v=68
116660 On ch=1 n=g7 v=76
116660 On ch=1 n=e7 v=60
116678 Off ch=1 n=d#7 v=0
116681 Off ch=1 n=f#7 v=0
116843 On ch=1 n=g#7 v=58
116843 On ch=1 n=f7 v=74
116861 Off ch=1 n=g7 v=0
116864 Off ch=1 n=e7 v=0
116910 Off ch=1 n=g#4 v=0
117010 On ch=1 n=g#4 v=46
117012 On ch=1 n=d#4 v=41
117013 On ch=1 n=c#5 v=74
117031 On ch=1 n=f#7 v=68
117031 On ch=1 n=a7 v=78
117053 Off ch=1 n=g#7 v=0
117056 Off ch=1 n=f7 v=0
117066 Off ch=1 n=b4 v=0
117066 Off ch=1 n=d#5 v=0
117225 On ch=1 n=a#7 v=68
117227 On ch=1 n=g7 v=74
117246 Off ch=1 n=f#7 v=0
117250 Off ch=1 n=a7 v=0
117346 Off ch=1 n=g#4 v=0
117351 Off ch=1 n=d#4 v=0
117353 Off ch=1 n=c#5 v=0
117400 On ch=1 n=d#4 v=24
117402 On ch=1 n=c#5 v=74
117405 On ch=1 n=g#4 v=39
117435 Off ch=1 n=g7 v=0
117437 Off ch=1 n=a#7 v=0
117444 On ch=1 n=g#7 v=62
117444 On ch=1 n=b7 v=72
117592 Off ch=1 n=g#7 v=0
117594 Off ch=1 n=b7 v=0
117722 Off ch=1 n=d#4 v=0
117726 Off ch=1 n=g#4 v=0
117795 On ch=1 n=d#4 v=35
117799 On ch=1 n=b4 v=80
117799 On ch=1 n=g#4 v=42
117838 Par ch=1 c=10 v=64
117856 Off ch=1 n=c#5 v=0
118109 Off ch=1 n=g#4 v=0
118112 Off ch=1 n=b4 v=0
118117 Off ch=1 n=d#4 v=0
118165 On ch=1 n=b4 v=78
118172 On ch=1 n=d#4 v=80
118176 On ch=1 n=g#4 v=66
118462 Off ch=1 n=g#4 v=0
118537 On ch=1 n=g#4 v=45
118543 On ch=1 n=c#4 v=50
118544 On ch=1 n=a#4 v=82
118609 Off ch=1 n=b4 v=0
118862 Off ch=1 n=g#4 v=0
118868 Off ch=1 n=d#4 v=0
118870 Off ch=1 n=c#4 v=0
118875 Off ch=1 n=a#4 v=0
118910 On ch=1 n=a#4 v=66
118922 On ch=1 n=d#4 v=54
118925 On ch=1 n=g#4 v=48
118925 On ch=1 n=c#4 v=46
119255 Off ch=1 n=g#4 v=0
119267 Off ch=1 n=c#4 v=0
119274 Off ch=1 n=d#4 v=0
119346 On ch=1 n=d#4 v=26
119353 On ch=1 n=b3 v=60
119357 On ch=1 n=g#4 v=51
119404 Off ch=1 n=a#4 v=0
119605 Off ch=1 n=b3 v=0
119611 Off ch=1 n=d#4 v=0
119776 On ch=1 n=g#3 v=45
119787 Off ch=1 n=g#4 v=0
120127 On ch=1 n=d#4 v=58
120157 Off ch=1 n=g#3 v=0
120496 On ch=1 n=c5 v=60
120535 Off ch=1 n=d#4 v=0
120853 Off ch=1 n=c5 v=0
120867 On ch=1 n=g3 v=64
121239 On ch=1 n=g#3 v=68
121281 Off ch=1 n=g3 v=0
121657 On ch=1 n=d#4 v=47
121702 Off ch=1 n=g#3 v=0
122048 On ch=1 n=c5 v=60
122112 Off ch=1 n=d#4 v=0
122392 Off ch=1 n=c5 v=0
122418 On ch=1 n=d#3 v=68
122803 On ch=1 n=g#3 v=66
122853 Off ch=1 n=d#3 v=0
123196 On ch=1 n=d#4 v=76
123234 Off ch=1 n=g#3 v=0
123572 On ch=1 n=c5 v=76
123609 Off ch=1 n=d#4 v=0
123906 Off ch=1 n=c5 v=0
123955 On ch=1 n=c#4 v=74
124334 On ch=1 n=c4 v=82
124376 Off ch=1 n=c#4 v=0
124724 On ch=1 n=d#4 v=70
124742 Off ch=1 n=c4 v=0
125095 On ch=1 n=c5 v=78
125146 Off ch=1 n=d#4 v=0
125395 Off ch=1 n=c5 v=0
125477 On ch=1 n=d#3 v=80
125893 On ch=1 n=g#3 v=90
125928 Off ch=1 n=d#3 v=0
126139 Off ch=1 n=g#3 v=0
126262 On ch=1 n=g#5 v=54
126264 On ch=1 n=d#6 v=72
126265 On ch=1 n=f#5 v=46
126531 Off ch=1 n=g#5 v=0
126537 Off ch=1 n=f#5 v=0
126539 Off ch=1 n=d#6 v=0
126622 On ch=1 n=g#5 v=80
126623 On ch=1 n=f#5 v=54
126626 On ch=1 n=d#6 v=80
126942 Off ch=1 n=g#5 v=0
126976 Off ch=1 n=f#5 v=0
127010 On ch=1 n=c#6 v=54
127011 On ch=1 n=e5 v=62
127014 On ch=1 n=g#5 v=74
127064 Off ch=1 n=d#6 v=0
127334 Off ch=1 n=g#5 v=0
127340 Off ch=1 n=e5 v=0
127344 Off ch=1 n=c#6 v=0
127394 On ch=1 n=g#5 v=74
127397 On ch=1 n=c#6 v=70
127404 On ch=1 n=e5 v=76
127741 Off ch=1 n=c#6 v=0
127800 On ch=1 n=f#5 v=45
127800 On ch=1 n=c6 v=74
127802 On ch=1 n=d#5 v=54
127805 Off ch=1 n=g#5 v=0
127819 Off ch=1 n=e5 v=0
128127 Off ch=1 n=d#5 v=0
128128 Off ch=1 n=c6 v=0
128131 Off ch=1 n=f#5 v=0
128176 On ch=1 n=c6 v=72
128179 On ch=1 n=d#5 v=58
128538 On ch=1 n=a5 v=80
128538 On ch=1 n=f#5 v=51
128542 On ch=1 n=e5 v=60
128581 On ch=1 n=c#5 v=51
128582 Off ch=1 n=c6 v=0
128585 Off ch=1 n=f#5 v=0
128597 Off ch=1 n=d#5 v=0
128849 Off ch=1 n=a5 v=0
128883 Off ch=1 n=c#5 v=0
128888 Off ch=1 n=e5 v=0
128925 On ch=1 n=c5 v=53
128925 On ch=1 n=d#5 v=41
128928 On ch=1 n=a5 v=86
129274 Off ch=1 n=d#5 v=0
129291 Off ch=1 n=c5 v=0
129357 On ch=1 n=c5 v=66
129363 On ch=1 n=g#5 v=70
129377 On ch=1 n=d#5 v=35
129410 Off ch=1 n=a5 v=0
129663 Off ch=1 n=c5 v=0
129674 Off ch=1 n=d#5 v=0
129674 Off ch=1 n=g#5 v=0
129717 On ch=1 n=g#5 v=84
129721 On ch=1 n=c5 v=72
129722 On ch=1 n=d#5 v=48
130048 Off ch=1 n=d#5 v=0
130084 On ch=1 n=c#5 v=48
130085 On ch=1 n=a4 v=56
130088 On ch=1 n=f#5 v=78
130110 Off ch=1 n=c5 v=0
130150 Off ch=1 n=g#5 v=0
130416 Off ch=1 n=a4 v=0
130423 Off ch=1 n=c#5 v=0
130431 Off ch=1 n=f#5 v=0
130466 On ch=1 n=f#5 v=84
130472 On ch=1 n=a4 v=76
130472 On ch=1 n=c#5 v=54
130756 Off ch=1 n=c#5 v=0
130853 On ch=1 n=c#5 v=47
130853 On ch=1 n=e5 v=66
130857 On ch=1 n=g#4 v=43
130867 Off ch=1 n=a4 v=0
130899 Off ch=1 n=f#5 v=0
131169 Off ch=1 n=g#4 v=0
131180 Off ch=1 n=c#5 v=0
131181 Off ch=1 n=e5 v=0
131239 On ch=1 n=c#5 v=60
131239 On ch=1 n=e5 v=70
131240 On ch=1 n=g#4 v=51
131562 Off ch=1 n=g#4 v=0
131607 On ch=1 n=g#4 v=28
131608 On ch=1 n=d#5 v=78
131611 On ch=1 n=f#4 v=44
131639 Off ch=1 n=e5 v=0
131651 Off ch=1 n=c#5 v=0
131932 Off ch=1 n=f#4 v=0
131933 Off ch=1 n=g#4 v=0
131939 Off ch=1 n=d#5 v=0
144318 Par ch=1 c=10 v=64
145110 On ch=1 n=a7 v=88
145112 On ch=1 n=f#7 v=80
145275 Off ch=1 n=a7 v=0
145283 Off ch=1 n=f#7 v=0
145288 On ch=1 n=g#7 v=49
145292 On ch=1 n=e7 v=72
145472 On ch=1 n=f#7 v=60
145472 On ch=1 n=d7 v=62
145497 Off ch=1 n=e7 v=0
145504 Off ch=1 n=g#7 v=0
145535 Off ch=1 n=f#7 v=0
145648 On ch=1 n=c#7 v=53
145649 Off ch=1 n=d7 v=0
145653 On ch=1 n=e7 v=60
145845 Off ch=1 n=e7 v=0
145856 Off ch=1 n=c#7 v=0
145857 On ch=1 n=d7 v=81
145857 On ch=1 n=b6 v=81
146032 On ch=1 n=a6 v=52
146034 On ch=1 n=c#7 v=64
146058 Off ch=1 n=d7 v=0
146062 Off ch=1 n=b6 v=0
146108 Off ch=1 n=c#7 v=0
146230 On ch=1 n=g#6 v=53
146232 Off ch=1 n=a6 v=0
146233 On ch=1 n=b6 v=64
146419 On ch=1 n=f#6 v=50
146421 On ch=1 n=a6 v=54
146445 Off ch=1 n=g#6 v=0
146464 Off ch=1 n=b6 v=0
146596 On ch=1 n=g#6 v=54
146601 On ch=1 n=e6 v=62
146626 Off ch=1 n=a6 v=0
146626 Off ch=1 n=f#6 v=0
146704 Off ch=1 n=e6 v=0
146789 On ch=1 n=f#6 v=56
146793 On ch=1 n=d6 v=64
146830 Off ch=1 n=g#6 v=0
146876 Off ch=1 n=f#6 v=0
146973 On ch=1 n=c#6 v=62
146974 Off ch=1 n=d6 v=0
146976 On ch=1 n=e6 v=56
146982 On ch=1 n=d#6 v=39
147024 Off ch=1 n=d#6 v=0
147168 On ch=1 n=d6 v=68
147168 On ch=1 n=b5 v=68
147194 Off ch=1 n=c#6 v=0
147204 Off ch=1 n=e6 v=0
147343 On ch=1 n=a5 v=49
147344 On ch=1 n=c#6 v=72
147373 Off ch=1 n=b5 v=0
147373 Off ch=1 n=d6 v=0
147424 Off ch=1 n=c#6 v=0
147542 On ch=1 n=g#5 v=45
147547 On ch=1 n=b5 v=53
147552 Off ch=1 n=a5 v=0
147729 On ch=1 n=a5 v=58
147735 On ch=1 n=f#5 v=46
147763 Off ch=1 n=g#5 v=0
147765 Off ch=1 n=b5 v=0
147921 On ch=1 n=g#5 v=66
147922 On ch=1 n=e5 v=58
147951 Off ch=1 n=a5 v=0
147955 Off ch=1 n=f#5 v=0
148017 Off ch=1 n=e5 v=0
148098 On ch=1 n=f#5 v=58
148102 On ch=1 n=d5 v=51
148144 Off ch=1 n=g#5 v=0
148198 Off ch=1 n=f#5 v=0
148290 On ch=1 n=c#5 v=64
148292 On ch=1 n=e5 v=71
148293 Off ch=1 n=d5 v=0
148486 On ch=1 n=d5 v=71
148487 On ch=1 n=b4 v=87
148520 Off ch=1 n=c#5 v=0
148528 Off ch=1 n=e5 v=0
148697 On ch=1 n=c#5 v=94
148697 On ch=1 n=a4 v=94
148727 Off ch=1 n=b4 v=0
148727 Off ch=1 n=d5 v=0
148789 Off ch=1 n=a4 v=0
148918 On ch=1 n=b4 v=96
148921 On ch=1 n=g#4 v=74
148941 Off ch=1 n=c#5 v=0
149649 Off ch=1 n=b4 v=0
149676 Off ch=1 n=g#4 v=0
149719 On ch=1 n=a#4 v=74
149719 On ch=1 n=g4 v=78
150447 Off ch=1 n=g4 v=0
150453 Off ch=1 n=a#4 v=0
150476 On ch=1 n=g#4 v=78
150775 Off ch=1 n=g#4 v=0
151066 Par ch=1 c=10 v=64
151240 On ch=1 n=d#6 v=50
151241 On ch=1 n=b5 v=64
151425 On ch=1 n=c#6 v=48
151428 On ch=1 n=e6 v=64
151436 Off ch=1 n=d#6 v=0
151444 Off ch=1 n=b5 v=0
151621 On ch=1 n=b5 v=60
151621 On ch=1 n=d#6 v=48
151638 Off ch=1 n=e6 v=0
151648 Off ch=1 n=c#6 v=0
151804 On ch=1 n=c#6 v=37
151806 On ch=1 n=e6 v=54
151826 Off ch=1 n=d#6 v=0
151832 Off ch=1 n=b5 v=0
151981 On ch=1 n=d#6 v=47
151983 On ch=1 n=b5 v=66
151999 Off ch=1 n=e6 v=0
152013 Off ch=1 n=c#6 v=0
152177 On ch=1 n=c#6 v=47
152180 On ch=1 n=e6 v=62
152190 Off ch=1 n=d#6 v=0
152199 Off ch=1 n=b5 v=0
152372 On ch=1 n=d#6 v=47
152372 On ch=1 n=b5 v=58
152395 Off ch=1 n=e6 v=0
152400 Off ch=1 n=c#6 v=0
152553 On ch=1 n=c#6 v=45
152555 On ch=1 n=e6 v=68
152576 Off ch=1 n=b5 v=0
152577 Off ch=1 n=d#6 v=0
152756 On ch=1 n=d#6 v=44
152757 On ch=1 n=b5 v=54
152776 Off ch=1 n=e6 v=0
152785 Off ch=1 n=c#6 v=0
152949 On ch=1 n=c#6 v=48
152950 On ch=1 n=e6 v=66
152973 Off ch=1 n=d#6 v=0
152975 Off ch=1 n=b5 v=0
153147 On ch=1 n=d#6 v=50
153149 On ch=1 n=b5 v=56
153167 Off ch=1 n=e6 v=0
153181 Off ch=1 n=c#6 v=0
153332 On ch=1 n=c#6 v=53
153336 On ch=1 n=e6 v=54
153360 Off ch=1 n=d#6 v=0
153387 Off ch=1 n=b5 v=0
153441 Off ch=1 n=c#6 v=0
153501 Off ch=1 n=e6 v=0
153534 On ch=1 n=d#6 v=46
153535 On ch=1 n=f#6 v=71
153730 On ch=1 n=g#6 v=42
153732 On ch=1 n=e6 v=64
153751 Off ch=1 n=f#6 v=0
153753 Off ch=1 n=d#6 v=0
153933 On ch=1 n=f#6 v=70
153956 Off ch=1 n=e6 v=0
153956 On ch=1 n=d#6 v=64
153966 Off ch=1 n=g#6 v=0
154124 On ch=1 n=g#6 v=46
154132 On ch=1 n=e6 v=66
154148 Off ch=1 n=d#6 v=0
154151 Off ch=1 n=f#6 v=0
154315 On ch=1 n=f#6 v=74
154319 On ch=1 n=d#6 v=70
154340 Off ch=1 n=e6 v=0
154346 Off ch=1 n=g#6 v=0
154491 On ch=1 n=g#6 v=43
154497 On ch=1 n=e6 v=66
154517 Off ch=1 n=f#6 v=0
154518 Off ch=1 n=d#6 v=0
154679 On ch=1 n=d#6 v=54
154681 On ch=1 n=f#6 v=56
154702 Off ch=1 n=e6 v=0
154710 Off ch=1 n=g#6 v=0
154868 On ch=1 n=g#6 v=41
154871 On ch=1 n=e6 v=64
154889 Off ch=1 n=f#6 v=0
154890 Off ch=1 n=d#6 v=0
155056 On ch=1 n=f#6 v=66
155058 On ch=1 n=d#6 v=60
155082 Off ch=1 n=e6 v=0
155088 Off ch=1 n=g#6 v=0
155238 On ch=1 n=g#6 v=42
155246 On ch=1 n=e6 v=66
155260 Off ch=1 n=f#6 v=0
155264 Off ch=1 n=d#6 v=0
155425 On ch=1 n=d#6 v=52
155426 On ch=1 n=f#6 v=54
155448 Off ch=1 n=e6 v=0
155456 Off ch=1 n=g#6 v=0
155618 On ch=1 n=g#6 v=41
155620 On ch=1 n=e6 v=60
155642 Off ch=1 n=f#6 v=0
155642 Off ch=1 n=d#6 v=0
155811 On ch=1 n=f#6 v=58
155811 On ch=1 n=d#6 v=53
155834 Off ch=1 n=e6 v=0
155844 Off ch=1 n=g#6 v=0
156004 On ch=1 n=g#6 v=43
156007 On ch=1 n=e6 v=62
156026 Off ch=1 n=f#6 v=0
156029 Off ch=1 n=d#6 v=0
156198 On ch=1 n=d#6 v=44
156201 On ch=1 n=f#6 v=50
156223 Off ch=1 n=e6 v=0
156232 Off ch=1 n=g#6 v=0
156379 On ch=1 n=g#6 v=28
156385 Off ch=1 n=f#6 v=0
156396 On ch=1 n=e6 v=47
156440 Off ch=1 n=d#6 v=0
156569 Off ch=1 n=g#6 v=0
156581 On ch=1 n=f#6 v=37
156588 On ch=1 n=a6 v=62
156598 Off ch=1 n=e6 v=0
156774 Off ch=1 n=a6 v=0
156776 On ch=1 n=f6 v=56
156777 On ch=1 n=g#6 v=46
156783 On ch=1 n=a6 v=42
156793 Off ch=1 n=f#6 v=0
156804 Off ch=1 n=a6 v=0
156917 Off ch=1 n=f6 v=0
156959 On ch=1 n=g6 v=60
156962 On ch=1 n=e6 v=58
156984 Off ch=1 n=g#6 v=0
157146 On ch=1 n=d#6 v=42
157150 On ch=1 n=f#6 v=50
157160 Off ch=1 n=e6 v=0
157167 Off ch=1 n=g6 v=0
157345 On ch=1 n=f6 v=66
157348 On ch=1 n=d6 v=62
157365 Off ch=1 n=d#6 v=0
157367 Off ch=1 n=f#6 v=0
157542 On ch=1 n=c#6 v=37
157543 On ch=1 n=e6 v=76
157565 Off ch=1 n=d6 v=0
157568 Off ch=1 n=f6 v=0
157730 On ch=1 n=f6 v=68
157734 On ch=1 n=d6 v=70
157744 Off ch=1 n=e6 v=0
157752 Off ch=1 n=c#6 v=0
157919 On ch=1 n=f#6 v=64
157919 On ch=1 n=d#6 v=60
157934 Off ch=1 n=f6 v=0
157942 Off ch=1 n=d6 v=0
158120 On ch=1 n=g6 v=72
158122 On ch=1 n=e6 v=58
158139 Off ch=1 n=d#6 v=0
158143 Off ch=1 n=f#6 v=0
158303 On ch=1 n=f#6 v=51
158303 On ch=1 n=d#6 v=46
158321 Off ch=1 n=e6 v=0
158328 Off ch=1 n=g6 v=0
158504 On ch=1 n=f6 v=68
158505 On ch=1 n=d6 v=62
158528 Off ch=1 n=d#6 v=0
158531 Off ch=1 n=f#6 v=0
158691 On ch=1 n=e6 v=72
158694 On ch=1 n=c#6 v=41
158712 Off ch=1 n=f6 v=0
158722 Off ch=1 n=d6 v=0
158880 On ch=1 n=d#6 v=43
158887 On ch=1 n=c6 v=54
158897 Off ch=1 n=e6 v=0
158920 Off ch=1 n=c#6 v=0
159039 Off ch=1 n=c6 v=0
159061 Off ch=1 n=d#6 v=0
159073 On ch=1 n=b5 v=56
159073 On ch=1 n=d6 v=64
159263 Off ch=1 n=b5 v=0
159263 On ch=1 n=c6 v=52
159265 On ch=1 n=d#6 v=49
159285 Off ch=1 n=d6 v=0
159435 Off ch=1 n=c6 v=0
159440 Off ch=1 n=d#6 v=0
159445 On ch=1 n=c#6 v=43
159451 On ch=1 n=e6 v=68
159608 Off ch=1 n=e6 v=0
159616 Off ch=1 n=c#6 v=0
159645 On ch=1 n=d6 v=62
159647 On ch=1 n=f6 v=66
159824 Off ch=1 n=f6 v=0
159836 On ch=1 n=c#6 v=47
159837 On ch=1 n=e6 v=62
159855 Off ch=1 n=d6 v=0
160039 On ch=1 n=c6 v=56
160041 On ch=1 n=d#6 v=52
160050 Off ch=1 n=c#6 v=0
160056 Off ch=1 n=e6 v=0
160112 Off ch=1 n=c6 v=0
160232 On ch=1 n=b5 v=53
160234 On ch=1 n=d6 v=68
160257 Off ch=1 n=d#6 v=0
160417 On ch=1 n=c#6 v=60
160419 On ch=1 n=a#5 v=48
160441 Off ch=1 n=d6 v=0
160442 Off ch=1 n=b5 v=0
160608 On ch=1 n=c6 v=66
160609 On ch=1 n=a5 v=53
160637 Off ch=1 n=a#5 v=0
160641 Off ch=1 n=c#6 v=0
160740 Off ch=1 n=a5 v=0
160792 On ch=1 n=g5 v=51
160794 On ch=1 n=b5 v=80
160822 Off ch=1 n=c6 v=0
160990 On ch=1 n=c#6 v=45
160993 On ch=1 n=a5 v=68
161014 Off ch=1 n=g5 v=0
161015 Off ch=1 n=b5 v=0
161191 On ch=1 n=g5 v=58
161196 On ch=1 n=b5 v=70
161221 Off ch=1 n=a5 v=0
161229 Off ch=1 n=c#6 v=0
161380 On ch=1 n=c#6 v=43
161387 On ch=1 n=a5 v=62
161412 Off ch=1 n=b5 v=0
161413 Off ch=1 n=g5 v=0
161573 On ch=1 n=b5 v=62
161574 On ch=1 n=g5 v=49
161600 Off ch=1 n=c#6 v=0
161601 Off ch=1 n=a5 v=0
161762 On ch=1 n=c#6 v=39
161766 On ch=1 n=a5 v=56
161790 Off ch=1 n=b5 v=0
161961 Off ch=1 n=g5 v=0
161961 On ch=1 n=g5 v=50
161962 On ch=1 n=b5 v=72
161985 Off ch=1 n=a5 v=0
161995 Off ch=1 n=c#6 v=0
162137 On ch=1 n=c#6 v=43
162143 On ch=1 n=a5 v=66
162163 Off ch=1 n=b5 v=0
162163 Off ch=1 n=g5 v=0
162307 Off ch=1 n=a5 v=0
162325 On ch=1 n=b5 v=70
162328 On ch=1 n=f#5 v=48
162465 Off ch=1 n=f#5 v=0
162465 Off ch=1 n=c#6 v=0
162516 On ch=1 n=a5 v=78
162520 On ch=1 n=e5 v=49
162536 Off ch=1 n=b5 v=0
162639 Off ch=1 n=a5 v=0
162722 On ch=1 n=d#5 v=49
162722 On ch=1 n=g#5 v=58
162747 Off ch=1 n=e5 v=0
163063 Off ch=1 n=d#5 v=0
163068 Off ch=1 n=g#5 v=0
185775 Par ch=1 c=10 v=64
194650 Par ch=1 c=64 v=127
194674 On ch=1 n=d#3 v=92
194925 Off ch=1 n=d#3 v=0
195515 On ch=1 n=g4 v=68
195808 On ch=1 n=c#5 v=68
196041 On ch=1 n=d#5 v=76
196346 On ch=1 n=a#5 v=94
198035 Off ch=1 n=g4 v=0
198166 Off ch=1 n=c#5 v=0
198181 Off ch=1 n=d#5 v=0
198206 Off ch=1 n=a#5 v=0
200257 On ch=1 n=d#4 v=51
200259 On ch=1 n=d#5 v=47
200259 On ch=1 n=g#3 v=47
200262 On ch=1 n=g#4 v=46
200262 On ch=1 n=c6 v=70
200308 On ch=1 n=c5 v=56
200408 Par ch=1 c=64 v=0
205487 Par ch=1 c=64 v=127
206797 Off ch=1 n=c5 v=0
206819 Par ch=1 c=64 v=0
206879 Off ch=1 n=c6 v=0
206879 Off ch=1 n=d#4 v=0
206891 Off ch=1 n=d#5 v=0
206898 Off ch=1 n=g#3 v=0
206913 Off ch=1 n=g#4 v=0
207898 Meta TrkEnd
TrkEnd
MTrk
0 Meta TrkName "Walsingham"
3072 Par ch=1 c=10 v=64
9173 On ch=1 n=g#3 v=48
9555 On ch=1 n=d#4 v=48
9595 Off ch=1 n=g#3 v=0
9955 On ch=1 n=b4 v=54
10017 Off ch=1 n=d#4 v=0
10201 Off ch=1 n=b4 v=0
10343 On ch=1 n=g3 v=66
10691 On ch=1 n=g#3 v=47
10729 Off ch=1 n=g3 v=0
11086 On ch=1 n=d#4 v=37
11120 Off ch=1 n=g#3 v=0
11465 On ch=1 n=b4 v=58
11509 Off ch=1 n=d#4 v=0
11696 Off ch=1 n=b4 v=0
11860 On ch=1 n=d#3 v=54
12223 On ch=1 n=g#3 v=43
12271 Off ch=1 n=d#3 v=0
12626 On ch=1 n=d#4 v=51
12673 Off ch=1 n=g#3 v=0
13023 On ch=1 n=b4 v=76
13067 Off ch=1 n=d#4 v=0
13255 Off ch=1 n=b4 v=0
13398 On ch=1 n=c#4 v=56
13766 On ch=1 n=b3 v=80
13802 Off ch=1 n=c#4 v=0
14155 On ch=1 n=d#4 v=60
14183 Off ch=1 n=b3 v=0
14551 On ch=1 n=b4 v=68
14590 Off ch=1 n=d#4 v=0
14789 Off ch=1 n=b4 v=0
14929 On ch=1 n=d#3 v=86
15163 Off ch=1 n=d#3 v=0
15309 On ch=1 n=g#3 v=90
15544 Off ch=1 n=g#3 v=0
15691 On ch=1 n=g#5 v=54
15692 On ch=1 n=d#5 v=51
15697 On ch=1 n=b4 v=70
15968 Off ch=1 n=b4 v=0
15986 Off ch=1 n=g#5 v=0
15987 Off ch=1 n=d#5 v=0
16116 On ch=1 n=d#5 v=62
16117 On ch=1 n=g#5 v=74
16120 On ch=1 n=b4 v=84
16388 Off ch=1 n=b4 v=0
16395 Off ch=1 n=d#5 v=0
16465 On ch=1 n=d#5 v=70
16467 On ch=1 n=f#5 v=62
16470 On ch=1 n=b4 v=80
16511 Off ch=1 n=g#5 v=0
16773 Off ch=1 n=d#5 v=0
16776 Off ch=1 n=f#5 v=0
16790 Off ch=1 n=b4 v=0
16863 On ch=1 n=d#5 v=51
16866 On ch=1 n=b4 v=76
16866 On ch=1 n=f#5 v=54
17023 Off ch=1 n=b4 v=0
17130 Off ch=1 n=d#5 v=0
17231 On ch=1 n=b4 v=74
17233 On ch=1 n=e5 v=78
17233 On ch=1 n=g#4 v=39
17276 Off ch=1 n=f#5 v=0
17508 Off ch=1 n=b4 v=0
17513 Off ch=1 n=g#4 v=0
17523 Off ch=1 n=e5 v=0
17634 On ch=1 n=b4 v=88
17635 On ch=1 n=g#4 v=49
17635 On ch=1 n=e5 v=80
17923 Off ch=1 n=b4 v=0
17933 Off ch=1 n=g#4 v=0
18027 On ch=1 n=b4 v=78
18027 On ch=1 n=g#4 v=47
18028 On ch=1 n=d#5 v=46
18056 Off ch=1 n=e5 v=0
18272 Off ch=1 n=b4 v=0
18303 Off ch=1 n=d#5 v=0
18327 Off ch=1 n=g#4 v=0
18392 On ch=1 n=d#5 v=62
18393 On ch=1 n=b4 v=94
18394 On ch=1 n=g#4 v=53
18583 Off ch=1 n=g#4 v=0
18678 Off ch=1 n=d#5 v=0
18766 On ch=1 n=c#5 v=48
18767 On ch=1 n=g#4 v=53
18770 Off ch=1 n=b4 v=0
18770 On ch=1 n=d#4 v=64
19068 Off ch=1 n=g#4 v=0
19073 Off ch=1 n=c#5 v=0
19074 Off ch=1 n=d#4 v=0
19153 On ch=1 n=c#5 v=76
19154 On ch=1 n=g#4 v=88
19157 On ch=1 n=d#4 v=78
19418 Off ch=1 n=g#4 v=0
19430 Off ch=1 n=d#4 v=0
19539 On ch=1 n=d#4 v=48
19539 On ch=1 n=g#4 v=50
19577 Off ch=1 n=c#5 v=0
19577 On ch=1 n=b4 v=84
19864 Off ch=1 n=g#4 v=0
19881 Off ch=1 n=b4 v=0
19899 Off ch=1 n=d#4 v=0
19976 On ch=1 n=g#4 v=58
19977 On ch=1 n=b4 v=86
19978 On ch=1 n=d#4 v=56
20227 Off ch=1 n=d#4 v=0
20277 Off ch=1 n=g#4 v=0
20317 Off ch=1 n=b4 v=0
20340 On ch=1 n=d#4 v=60
20342 On ch=1 n=a#4 v=72
20343 On ch=1 n=c#4 v=58
20635 Off ch=1 n=d#4 v=0
20646 Off ch=1 n=c#4 v=0
20646 Off ch=1 n=a#4 v=0
20711 On ch=1 n=d#4 v=53
20711 On ch=1 n=a#4 v=53
20713 On ch=1 n=c#4 v=64
20997 Off ch=1 n=c#4 v=0
21018 Off ch=1 n=d#4 v=0
21108 On ch=1 n=g#4 v=62
21109 On ch=1 n=d#4 v=56
21110 On ch=1 n=b3 v=48
21138 Off ch=1 n=a#4 v=0
21385 Off ch=1 n=d#4 v=0
21386 Off ch=1 n=b3 v=0
21388 Off ch=1 n=g#4 v=0
33792 Par ch=1 c=10 v=64
33802 On ch=1 n=d#4 v=84
33996 Off ch=1 n=d#4 v=0
34179 On ch=1 n=c#5 v=31
34180 On ch=1 n=b5 v=78
34183 On ch=1 n=d#5 v=35
34464 Off ch=1 n=d#5 v=0
34467 Off ch=1 n=b5 v=0
34468 Off ch=1 n=c#5 v=0
34544 On ch=1 n=b5 v=78
34546 On ch=1 n=d#5 v=64
34547 On ch=1 n=c#5 v=60
34917 On ch=1 n=a#5 v=88
34951 Off ch=1 n=b5 v=0
35318 On ch=1 n=g#5 v=88
35344 Off ch=1 n=a#5 v=0
35709 On ch=1 n=g5 v=66
35753 Off ch=1 n=g#5 v=0
35983 Off ch=1 n=d#5 v=0
35987 Off ch=1 n=c#5 v=0
35997 Off ch=1 n=g5 v=0
36835 On ch=1 n=g#3 v=70
37223 On ch=1 n=b4 v=74
37223 On ch=1 n=d#4 v=41
37285 Off ch=1 n=g#3 v=0
37388 Off ch=1 n=d#4 v=0
37391 Off ch=1 n=b4 v=0
37615 On ch=1 n=a#3 v=72
37981 On ch=1 n=g#3 v=72
38019 Off ch=1 n=a#3 v=0
38348 On ch=1 n=g3 v=66
38375 Off ch=1 n=g#3 v=0
38489 Off ch=1 n=g3 v=0
38767 On ch=1 n=d#5 v=54
38771 On ch=1 n=d#4 v=49
38853 Off ch=1 n=d#4 v=0
38865 Off ch=1 n=d#5 v=0
39145 On ch=1 n=g#3 v=78
39260 Off ch=1 n=g#3 v=0
39550 On ch=1 n=d#5 v=74
39554 On ch=1 n=d#4 v=54
39690 Off ch=1 n=d#4 v=0
39700 Off ch=1 n=d#5 v=0
39927 On ch=1 n=d#3 v=72
40113 Off ch=1 n=d#3 v=0
40279 On ch=1 n=c#4 v=51
40281 On ch=1 n=d#4 v=48
40286 On ch=1 n=b4 v=78
40567 Off ch=1 n=d#4 v=0
40569 Off ch=1 n=b4 v=0
40570 Off ch=1 n=c#4 v=0
40653 On ch=1 n=b4 v=78
40660 On ch=1 n=c#4 v=53
40661 On ch=1 n=d#4 v=52
41026 On ch=1 n=a#4 v=74
41070 Off ch=1 n=b4 v=0
41427 On ch=1 n=g#4 v=51
41463 Off ch=1 n=a#4 v=0
41802 On ch=1 n=g4 v=54
41846 Off ch=1 n=g#4 v=0
42121 Off ch=1 n=g4 v=0
42121 Off ch=1 n=d#4 v=0
42121 Off ch=1 n=c#4 v=0
43002 Par ch=1 c=10 v=64
43008 On ch=1 n=g#3 v=86
43409 On ch=1 n=b4 v=76
43410 On ch=1 n=d#4 v=42
43499 Off ch=1 n=g#3 v=0
43516 Off ch=1 n=b4 v=0
43519 Off ch=1 n=d#4 v=0
43817 On ch=1 n=a#3 v=66
44164 On ch=1 n=g#3 v=70
44220 Off ch=1 n=a#3 v=0
44502 On ch=1 n=g3 v=76
44550 Off ch=1 n=g#3 v=0
44862 On ch=1 n=f4 v=72
44863 On ch=1 n=b4 v=74
44904 Off ch=1 n=g3 v=0
44989 Off ch=1 n=f4 v=0
44993 Off ch=1 n=b4 v=0
45241 On ch=1 n=a3 v=74
45673 On ch=1 n=g3 v=84
45723 Off ch=1 n=a3 v=0
46031 On ch=1 n=f#3 v=54
46072 Off ch=1 n=g3 v=0
46307 Off ch=1 n=f#3 v=0
46481 On ch=1 n=f#4 v=76
46692 Off ch=1 n=f#4 v=0
46789 Par ch=1 c=10 v=64
46860 On ch=1 n=d#6 v=49
46860 On ch=1 n=f#6 v=51
46862 On ch=1 n=b6 v=68
47191 On ch=1 n=f#5 v=41
47426 Off ch=1 n=b6 v=0
47432 Off ch=1 n=f#6 v=0
47472 Off ch=1 n=d#6 v=0
47599 On ch=1 n=a#6 v=66
47599 On ch=1 n=c#6 v=50
47600 On ch=1 n=e6 v=82
47641 Off ch=1 n=f#5 v=0
47968 On ch=1 n=f#5 v=82
48155 Off ch=1 n=e6 v=0
48162 Off ch=1 n=a#6 v=0
48190 Off ch=1 n=c#6 v=0
48358 On ch=1 n=g#6 v=45
48360 On ch=1 n=d#6 v=54
48362 On ch=1 n=b5 v=72
48385 Off ch=1 n=f#5 v=0
48775 On ch=1 n=f#5 v=76
48931 On ch=1 n=f#6 v=53
48955 Off ch=1 n=d#6 v=0
49022 Off ch=1 n=g#6 v=0
49057 Off ch=1 n=b5 v=0
49074 Off ch=1 n=f#5 v=0
49084 Off ch=1 n=f#6 v=0
49138 On ch=1 n=f#6 v=49
49140 On ch=1 n=f#5 v=50
49140 On ch=1 n=a#5 v=48
49141 On ch=1 n=e6 v=78
49316 Off ch=1 n=e6 v=0
49322 Off ch=1 n=f#5 v=0
49323 Off ch=1 n=a#5 v=0
49324 Off ch=1 n=f#6 v=0
52218 Par ch=1 c=10 v=64
52218 On ch=1 n=b3 v=56
52547 On ch=1 n=f#4 v=54
52933 On ch=1 n=b4 v=66
53345 On ch=1 n=d#5 v=74
53743 On ch=1 n=c#4 v=74
53774 Off ch=1 n=b4 v=0
53776 Off ch=1 n=b3 v=0
53787 Off ch=1 n=d#5 v=0
53792 Off ch=1 n=f#4 v=0
54130 On ch=1 n=e4 v=64
54510 On ch=1 n=a#4 v=62
54885 On ch=1 n=c#5 v=76
55242 On ch=1 n=d#4 v=68
55258 Off ch=1 n=e4 v=0
55270 Off ch=1 n=a#4 v=0
55286 Off ch=1 n=c#4 v=0
55295 Off ch=1 n=c#5 v=0
55624 On ch=1 n=g#4 v=49
56038 On ch=1 n=b4 v=72
56412 On ch=1 n=d#5 v=50
56648 Off ch=1 n=d#4 v=0
56781 On ch=1 n=d#4 v=47
56790 Off ch=1 n=b4 v=0
56806 Off ch=1 n=g#4 v=0
56816 Off ch=1 n=d#5 v=0
57193 On ch=1 n=g4 v=58
57568 On ch=1 n=c#5 v=50
57908 On ch=1 n=d#5 v=40
58288 Off ch=1 n=d#4 v=0
58289 Off ch=1 n=c#5 v=0
58292 Off ch=1 n=d#5 v=0
58294 Off ch=1 n=g4 v=0
58361 On ch=1 n=g#3 v=62
58563 Par ch=1 c=10 v=64
58713 On ch=1 n=d#4 v=45
58775 Off ch=1 n=g#3 v=0
59106 On ch=1 n=b4 v=58
59160 Off ch=1 n=d#4 v=0
59381 Off ch=1 n=b4 v=0
59484 On ch=1 n=g3 v=70
59882 On ch=1 n=g#3 v=84
59924 Off ch=1 n=g3 v=0
60248 On ch=1 n=d#4 v=50
60639 On ch=1 n=b4 v=64
60681 Off ch=1 n=d#4 v=0
60948 Off ch=1 n=g#3 v=0
60959 Off ch=1 n=b4 v=0
61004 On ch=1 n=d#3 v=84
61398 On ch=1 n=g#3 v=58
61434 Off ch=1 n=d#3 v=0
61772 On ch=1 n=d#4 v=44
62159 On ch=1 n=b4 v=51
62186 Off ch=1 n=d#4 v=0
62401 Off ch=1 n=g#3 v=0
62424 Off ch=1 n=b4 v=0
62555 On ch=1 n=c#4 v=49
62928 On ch=1 n=b3 v=70
62990 Off ch=1 n=c#4 v=0
63334 On ch=1 n=d#4 v=60
63728 On ch=1 n=b4 v=58
63768 Off ch=1 n=d#4 v=0
63965 Off ch=1 n=b4 v=0
63981 Off ch=1 n=b3 v=0
64090 On ch=1 n=d#3 v=74
64462 On ch=1 n=g#3 v=72
64501 Off ch=1 n=d#3 v=0
64737 Off ch=1 n=g#3 v=0
64854 On ch=1 n=g#5 v=56
64856 On ch=1 n=d#5 v=64
64858 On ch=1 n=b4 v=76
65177 Off ch=1 n=b4 v=0
65192 Off ch=1 n=d#5 v=0
65193 Off ch=1 n=g#5 v=0
65253 On ch=1 n=g#5 v=64
65254 On ch=1 n=d#5 v=53
65258 On ch=1 n=b4 v=62
65593 Off ch=1 n=b4 v=0
65594 Off ch=1 n=d#5 v=0
65629 On ch=1 n=d#5 v=72
65632 On ch=1 n=f#5 v=60
65633 On ch=1 n=b4 v=66
65690 Off ch=1 n=g#5 v=0
65941 Off ch=1 n=f#5 v=0
65945 Off ch=1 n=d#5 v=0
65953 Off ch=1 n=b4 v=0
65987 On ch=1 n=d#5 v=51
65991 On ch=1 n=f#5 v=66
65992 On ch=1 n=b4 v=68
66325 Off ch=1 n=b4 v=0
66359 Off ch=1 n=f#5 v=0
66385 On ch=1 n=e5 v=68
66387 On ch=1 n=g#4 v=46
66388 On ch=1 n=b4 v=70
66407 Off ch=1 n=d#5 v=0
66739 Off ch=1 n=b4 v=0
66744 Off ch=1 n=g#4 v=0
66746 Off ch=1 n=e5 v=0
66769 On ch=1 n=e5 v=68
66771 On ch=1 n=b4 v=68
66778 On ch=1 n=g#4 v=56
67108 Off ch=1 n=b4 v=0
67141 On ch=1 n=g#4 v=56
67142 On ch=1 n=b4 v=64
67145 On ch=1 n=d#5 v=53
67155 Off ch=1 n=g#4 v=0
67178 Off ch=1 n=e5 v=0
67302 On ch=1 n=g#4 v=24
67326 Off ch=1 n=g#4 v=0
67502 Off ch=1 n=g#4 v=0
67502 Off ch=1 n=b4 v=0
67511 Off ch=1 n=d#5 v=0
67555 On ch=1 n=b4 v=64
67555 On ch=1 n=d#5 v=66
67563 On ch=1 n=g#4 v=62
67878 Off ch=1 n=g#4 v=0
67923 On ch=1 n=g#4 v=46
67924 On ch=1 n=c#5 v=94
67927 On ch=1 n=d#4 v=37
67930 Off ch=1 n=b4 v=0
67952 Off ch=1 n=d#5 v=0
68264 Off ch=1 n=c#5 v=0
68268 Off ch=1 n=d#4 v=0
68271 Off ch=1 n=g#4 v=0
68305 On ch=1 n=c#5 v=82
68312 On ch=1 n=d#4 v=84
68314 On ch=1 n=g#4 v=56
68644 Off ch=1 n=g#4 v=0
68665 Off ch=1 n=d#4 v=0
68701 On ch=1 n=g#4 v=54
68701 On ch=1 n=b4 v=84
68706 On ch=1 n=d#4 v=70
68730 Off ch=1 n=c#5 v=0
69072 Off ch=1 n=d#4 v=0
69076 Off ch=1 n=b4 v=0
69083 Off ch=1 n=g#4 v=0
69098 On ch=1 n=g#4 v=49
69099 On ch=1 n=b4 v=70
69107 On ch=1 n=d#4 v=68
69447 Off ch=1 n=d#4 v=0
69472 On ch=1 n=d#4 v=52
69472 On ch=1 n=a#4 v=66
69475 On ch=1 n=c#4 v=50
69498 Off ch=1 n=b4 v=0
69500 Off ch=1 n=g#4 v=0
69828 Off ch=1 n=c#4 v=0
69828 Off ch=1 n=d#4 v=0
69838 Off ch=1 n=a#4 v=0
69848 On ch=1 n=a#4 v=66
69851 On ch=1 n=c#4 v=51
69852 On ch=1 n=d#4 v=48
70193 Off ch=1 n=d#4 v=0
70228 On ch=1 n=g#4 v=58
70229 On ch=1 n=d#4 v=49
70234 On ch=1 n=b3 v=46
70253 Off ch=1 n=c#4 v=0
70260 Off ch=1 n=a#4 v=0
70526 Off ch=1 n=b3 v=0
70529 Off ch=1 n=g#4 v=0
70537 Off ch=1 n=d#4 v=0
70635 On ch=1 n=g#3 v=78
70647 On ch=1 n=g#3 v=84
70732 Par ch=1 c=10 v=64
71022 On ch=1 n=d4 v=64
71401 On ch=1 n=b4 v=74
71443 Off ch=1 n=d4 v=0
71573 Off ch=1 n=g#3 v=0
71659 Off ch=1 n=b4 v=0
71711 Off ch=1 n=g#3 v=0
71789 On ch=1 n=g3 v=68
72142 On ch=1 n=g#3 v=70
72181 Off ch=1 n=g3 v=0
72500 On ch=1 n=d4 v=53
72893 On ch=1 n=b4 v=50
72951 Off ch=1 n=d4 v=0
73177 Off ch=1 n=g#3 v=0
73194 Off ch=1 n=b4 v=0
73290 On ch=1 n=d3 v=76
73662 On ch=1 n=g#3 v=49
73713 Off ch=1 n=d3 v=0
74059 On ch=1 n=d4 v=64
74449 On ch=1 n=b4 v=58
74491 Off ch=1 n=d4 v=0
74675 Off ch=1 n=g#3 v=0
74715 Off ch=1 n=b4 v=0
74817 On ch=1 n=c#4 v=58
75198 On ch=1 n=b3 v=80
75268 Off ch=1 n=c#4 v=0
75604 On ch=1 n=d4 v=68
75990 On ch=1 n=b4 v=68
76031 Off ch=1 n=d4 v=0
76183 Off ch=1 n=b4 v=0
76212 Off ch=1 n=b3 v=0
76368 On ch=1 n=d3 v=88
76762 On ch=1 n=g#3 v=94
76795 Off ch=1 n=d3 v=0
77040 Off ch=1 n=g#3 v=0
77148 On ch=1 n=f5 v=76
77148 On ch=1 n=b5 v=80
77149 On ch=1 n=d5 v=76
77434 Off ch=1 n=d5 v=0
77450 Off ch=1 n=b5 v=0
77454 Off ch=1 n=f5 v=0
77500 On ch=1 n=b5 v=84
77507 On ch=1 n=d5 v=76
77511 On ch=1 n=f5 v=58
77832 Off ch=1 n=d5 v=0
77846 Off ch=1 n=f5 v=0
77897 On ch=1 n=a#5 v=80
77897 On ch=1 n=d5 v=56
77901 On ch=1 n=f5 v=49
77932 Off ch=1 n=b5 v=0
78224 Off ch=1 n=d5 v=0
78225 Off ch=1 n=f5 v=0
78225 Off ch=1 n=a#5 v=0
78276 On ch=1 n=a#5 v=80
78284 On ch=1 n=d5 v=74
78286 On ch=1 n=f5 v=64
78589 Off ch=1 n=d5 v=0
78665 On ch=1 n=g#5 v=86
78666 On ch=1 n=d5 v=66
78670 On ch=1 n=b4 v=78
78709 Off ch=1 n=f5 v=0
78715 Off ch=1 n=a#5 v=0
78981 Off ch=1 n=b4 v=0
78982 Off ch=1 n=d5 v=0
79002 Off ch=1 n=g#5 v=0
79037 On ch=1 n=g#5 v=82
79047 On ch=1 n=d5 v=72
79047 On ch=1 n=b4 v=78
79325 Off ch=1 n=b4 v=0
79404 Off ch=1 n=d5 v=0
79427 On ch=1 n=b4 v=76
79429 On ch=1 n=g#4 v=62
79432 On ch=1 n=f#5 v=68
79473 Off ch=1 n=g#5 v=0
79771 Off ch=1 n=g#4 v=0
79772 Off ch=1 n=b4 v=0
79774 Off ch=1 n=f#5 v=0
79812 On ch=1 n=f#5 v=84
79815 On ch=1 n=g#4 v=74
80152 On ch=1 n=b4 v=62
80153 Off ch=1 n=b4 v=0
80202 Off ch=1 n=g#4 v=0
80202 On ch=1 n=g#4 v=62
80202 On ch=1 n=f5 v=72
80206 On ch=1 n=b4 v=70
80238 Off ch=1 n=f#5 v=0
80512 Off ch=1 n=f5 v=0
80520 Off ch=1 n=b4 v=0
80532 Off ch=1 n=g#4 v=0
80568 On ch=1 n=g#4 v=56
80569 On ch=1 n=f5 v=80
80576 On ch=1 n=b4 v=62
80824 Off ch=1 n=g#4 v=0
80950 On ch=1 n=e5 v=82
80952 On ch=1 n=g#4 v=44
80959 On ch=1 n=f4 v=60
80994 Off ch=1 n=f5 v=0
80995 Off ch=1 n=b4 v=0
81283 Off ch=1 n=f4 v=0
81295 Off ch=1 n=g#4 v=0
81302 Off ch=1 n=e5 v=0
81340 On ch=1 n=e5 v=78
81340 On ch=1 n=g#4 v=60
81345 On ch=1 n=f4 v=76
81692 Off ch=1 n=f4 v=0
81692 Off ch=1 n=g#4 v=0
81733 On ch=1 n=d5 v=76
81744 On ch=1 n=g#4 v=54
81754 On ch=1 n=f4 v=66
81777 Off ch=1 n=e5 v=0
82089 Off ch=1 n=f4 v=0
82097 Off ch=1 n=g#4 v=0
82136 On ch=1 n=c5 v=56
82139 On ch=1 n=g#4 v=39
82150 On ch=1 n=f4 v=52
82169 Off ch=1 n=d5 v=0
82454 Off ch=1 n=f4 v=0
82458 Off ch=1 n=g#4 v=0
82512 On ch=1 n=b4 v=68
82514 On ch=1 n=f4 v=45
82515 On ch=1 n=g4 v=49
82559 Off ch=1 n=c5 v=0
82777 Off ch=1 n=b4 v=0
82778 Off ch=1 n=g4 v=0
82782 Off ch=1 n=f4 v=0
82936 On ch=1 n=g3 v=76
83046 Off ch=1 n=g3 v=0
83092 Par ch=1 c=10 v=64
83336 On ch=1 n=a5 v=66
83336 On ch=1 n=f5 v=64
83340 On ch=1 n=b4 v=62
83411 Off ch=1 n=b4 v=0
83413 Off ch=1 n=a5 v=0
83415 Off ch=1 n=f5 v=0
83699 On ch=1 n=a5 v=64
83699 On ch=1 n=f5 v=66
83703 On ch=1 n=b4 v=66
85189 On ch=1 n=e5 v=62
85190 On ch=1 n=g5 v=52
85190 On ch=1 n=c5 v=53
85215 Off ch=1 n=f5 v=0
85217 Off ch=1 n=a5 v=0
85218 Off ch=1 n=b4 v=0
85575 Off ch=1 n=c5 v=0
85592 Off ch=1 n=g5 v=0
85602 On ch=1 n=a5 v=64
85603 On ch=1 n=g4 v=54
85613 Off ch=1 n=e5 v=0
85900 Off ch=1 n=a5 v=0
85943 Off ch=1 n=g4 v=0
85955 On ch=1 n=f5 v=66
85955 On ch=1 n=a5 v=68
85958 On ch=1 n=b4 v=66
87139 On ch=1 n=g5 v=62
87140 On ch=1 n=g4 v=60
87171 Off ch=1 n=f5 v=0
87177 Off ch=1 n=a5 v=0
87178 Off ch=1 n=b4 v=0
87369 Off ch=1 n=g5 v=0
87374 Off ch=1 n=g4 v=0
88284 On ch=1 n=g4 v=56
88393 Off ch=1 n=g4 v=0
88650 On ch=1 n=c4 v=72
88794 Off ch=1 n=c4 v=0
89055 On ch=1 n=f3 v=54
89242 Off ch=1 n=f3 v=0
89432 On ch=1 n=d#5 v=39
89437 On ch=1 n=g5 v=58
89446 On ch=1 n=a4 v=53
89651 Off ch=1 n=a4 v=0
89656 Off ch=1 n=d#5 v=0
89658 Off ch=1 n=g5 v=0
89818 On ch=1 n=d#5 v=49
89820 On ch=1 n=g5 v=74
89823 On ch=1 n=a4 v=58
91301 Off ch=1 n=g5 v=0
91350 On ch=1 n=f5 v=51
91351 On ch=1 n=a#4 v=42
91353 On ch=1 n=d5 v=60
91379 Off ch=1 n=d#5 v=0
91386 Off ch=1 n=a4 v=0
91753 On ch=1 n=g5 v=66
91755 On ch=1 n=f4 v=48
91787 Off ch=1 n=d5 v=0
91793 Off ch=1 n=a#4 v=0
91794 Off ch=1 n=f5 v=0
92067 Off ch=1 n=g5 v=0
92101 Off ch=1 n=f4 v=0
92113 On ch=1 n=d#5 v=46
92117 On ch=1 n=g5 v=68
92118 On ch=1 n=a4 v=66
93275 Off ch=1 n=g5 v=0
93285 On ch=1 n=f5 v=60
93294 On ch=1 n=f4 v=46
93328 Off ch=1 n=d#5 v=0
93350 Off ch=1 n=a4 v=0
93582 Off ch=1 n=f5 v=0
93591 Off ch=1 n=f4 v=0
94420 On ch=1 n=f4 v=76
94551 Off ch=1 n=f4 v=0
94809 On ch=1 n=a#3 v=84
94982 Off ch=1 n=a#3 v=0
95182 On ch=1 n=e3 v=115
95368 Off ch=1 n=e3 v=0
95674 Par ch=1 c=10 v=64
95802 On ch=1 n=a#6 v=94
95802 On ch=1 n=c#7 v=90
95989 On ch=1 n=g6 v=96
95999 Off ch=1 n=c#7 v=0
95999 On ch=1 n=e6 v=90
96004 Off ch=1 n=a#6 v=0
96158 On ch=1 n=a#6 v=90
96158 On ch=1 n=c#7 v=84
96168 Off ch=1 n=e6 v=0
96171 Off ch=1 n=g6 v=0
96330 On ch=1 n=f#6 v=84
96332 On ch=1 n=d#6 v=70
96337 Off ch=1 n=c#7 v=0
96346 Off ch=1 n=a#6 v=0
96511 On ch=1 n=c7 v=84
96511 On ch=1 n=a6 v=82
96528 Off ch=1 n=f#6 v=0
96537 Off ch=1 n=d#6 v=0
96688 On ch=1 n=f6 v=90
96691 On ch=1 n=d6 v=84
96695 Off ch=1 n=c7 v=0
96703 Off ch=1 n=a6 v=0
96896 On ch=1 n=g#6 v=51
96898 On ch=1 n=b6 v=84
96913 Off ch=1 n=f6 v=0
96920 Off ch=1 n=d6 v=0
97084 Off ch=1 n=b6 v=0
97087 On ch=1 n=c#6 v=76
97088 On ch=1 n=e6 v=86
97112 Off ch=1 n=g#6 v=0
97282 On ch=1 n=g6 v=90
97283 On ch=1 n=a#6 v=66
97298 Off ch=1 n=e6 v=0
97310 Off ch=1 n=c#6 v=0
97466 On ch=1 n=d#6 v=74
97468 On ch=1 n=c6 v=74
97478 Off ch=1 n=g6 v=0
97486 Off ch=1 n=a#6 v=0
97666 On ch=1 n=f#6 v=64
97669 On ch=1 n=a6 v=84
97685 Off ch=1 n=c6 v=0
97690 Off ch=1 n=d#6 v=0
97861 On ch=1 n=d6 v=80
97863 On ch=1 n=b5 v=70
97868 Off ch=1 n=a6 v=0
97885 Off ch=1 n=f#6 v=0
98057 On ch=1 n=f6 v=88
98058 On ch=1 n=g#6 v=76
98067 Off ch=1 n=b5 v=0
98075 Off ch=1 n=d6 v=0
98241 On ch=1 n=c#6 v=76
98244 On ch=1 n=a#5 v=72
98254 Off ch=1 n=f6 v=0
98256 Off ch=1 n=g#6 v=0
98426 On ch=1 n=e6 v=82
98430 On ch=1 n=g6 v=90
98451 Off ch=1 n=a#5 v=0
98451 Off ch=1 n=c#6 v=0
98606 On ch=1 n=c6 v=92
98608 On ch=1 n=a5 v=78
98611 Off ch=1 n=g6 v=0
98623 Off ch=1 n=e6 v=0
98803 On ch=1 n=d#6 v=56
98823 Off ch=1 n=c6 v=0
98823 On ch=1 n=f#6 v=60
98991 Off ch=1 n=a5 v=0
98991 On ch=1 n=b5 v=86
98991 On ch=1 n=g#5 v=74
99009 Off ch=1 n=f#6 v=0
99009 Off ch=1 n=d#6 v=0
99192 On ch=1 n=f6 v=86
99193 On ch=1 n=d6 v=92
99208 Off ch=1 n=b5 v=0
99218 Off ch=1 n=g#5 v=0
99372 On ch=1 n=a#5 v=76
99375 On ch=1 n=g5 v=76
99377 Off ch=1 n=f6 v=0
99389 Off ch=1 n=d6 v=0
99570 On ch=1 n=c#6 v=51
99574 On ch=1 n=e6 v=86
99589 Off ch=1 n=g5 v=0
99594 Off ch=1 n=a#5 v=0
99758 On ch=1 n=a5 v=82
99759 On ch=1 n=f#5 v=62
99762 Off ch=1 n=e6 v=0
99780 Off ch=1 n=c#6 v=0
99962 On ch=1 n=c6 v=88
99962 On ch=1 n=d#6 v=70
99979 Off ch=1 n=a5 v=0
99989 Off ch=1 n=f#5 v=0
100139 On ch=1 n=g#5 v=76
100142 On ch=1 n=f5 v=72
100156 Off ch=1 n=c6 v=0
100157 Off ch=1 n=d#6 v=0
100333 On ch=1 n=d6 v=86
100333 On ch=1 n=b5 v=84
100352 Off ch=1 n=f5 v=0
100358 Off ch=1 n=g#5 v=0
100526 On ch=1 n=g5 v=82
100527 Off ch=1 n=d6 v=0
100528 On ch=1 n=e5 v=66
100538 Off ch=1 n=b5 v=0
100715 On ch=1 n=c#6 v=70
100715 On ch=1 n=a#5 v=66
100734 Off ch=1 n=e5 v=0
100736 Off ch=1 n=g5 v=0
100908 On ch=1 n=f#5 v=70
100910 On ch=1 n=d#5 v=68
100920 Off ch=1 n=c#6 v=0
100925 Off ch=1 n=a#5 v=0
101118 On ch=1 n=a5 v=76
101121 On ch=1 n=c6 v=74
101141 Off ch=1 n=d#5 v=0
101143 Off ch=1 n=f#5 v=0
101293 Off ch=1 n=a5 v=0
101300 Off ch=1 n=c6 v=0
101337 On ch=1 n=f5 v=76
101337 On ch=1 n=d5 v=76
101401 Par ch=1 c=10 v=64
101522 On ch=1 n=g#5 v=64
101525 On ch=1 n=b5 v=86
101542 Off ch=1 n=f5 v=0
101546 Off ch=1 n=d5 v=0
101703 Off ch=1 n=b5 v=0
101707 On ch=1 n=e5 v=80
101709 On ch=1 n=c#5 v=60
101732 Off ch=1 n=g#5 v=0
101907 On ch=1 n=a#5 v=64
101908 On ch=1 n=g5 v=90
101922 Off ch=1 n=e5 v=0
101934 Off ch=1 n=c#5 v=0
102088 On ch=1 n=d#5 v=74
102090 On ch=1 n=c5 v=80
102100 Off ch=1 n=g5 v=0
102105 Off ch=1 n=a#5 v=0
102274 On ch=1 n=f#5 v=64
102277 On ch=1 n=a5 v=86
102298 Off ch=1 n=d#5 v=0
102299 Off ch=1 n=c5 v=0
102446 On ch=1 n=d5 v=80
102447 Off ch=1 n=a5 v=0
102449 On ch=1 n=b4 v=68
102471 Off ch=1 n=f#5 v=0
102644 On ch=1 n=g#5 v=62
102645 On ch=1 n=f5 v=82
102656 Off ch=1 n=b4 v=0
102662 Off ch=1 n=d5 v=0
102829 On ch=1 n=c#5 v=72
102831 On ch=1 n=a#4 v=58
102846 Off ch=1 n=f5 v=0
102847 Off ch=1 n=g#5 v=0
103037 On ch=1 n=g5 v=80
103037 On ch=1 n=e5 v=82
103057 Off ch=1 n=c#5 v=0
103063 Off ch=1 n=a#4 v=0
103228 On ch=1 n=c5 v=84
103230 On ch=1 n=a4 v=68
103232 Off ch=1 n=g5 v=0
103247 Off ch=1 n=e5 v=0
103421 On ch=1 n=f#5 v=68
103421 On ch=1 n=d#5 v=70
103441 Off ch=1 n=a4 v=0
103441 Off ch=1 n=c5 v=0
103617 On ch=1 n=c5 v=82
103619 On ch=1 n=a4 v=70
103636 Off ch=1 n=f#5 v=0
103639 Off ch=1 n=d#5 v=0
103815 On ch=1 n=d#5 v=66
103818 On ch=1 n=f5 v=74
103837 Off ch=1 n=c5 v=0
103841 Off ch=1 n=a4 v=0
104008 On ch=1 n=c5 v=76
104009 On ch=1 n=a4 v=66
104030 Off ch=1 n=f5 v=0
104036 Off ch=1 n=d#5 v=0
104188 On ch=1 n=d#5 v=50
104192 On ch=1 n=f5 v=74
104210 Off ch=1 n=c5 v=0
104213 Off ch=1 n=a4 v=0
104368 On ch=1 n=b4 v=78
104371 On ch=1 n=a4 v=60
104381 Off ch=1 n=f5 v=0
104393 Off ch=1 n=d#5 v=0
104553 On ch=1 n=d5 v=76
104554 On ch=1 n=f5 v=72
104573 Off ch=1 n=b4 v=0
104575 Off ch=1 n=a4 v=0
104740 On ch=1 n=b4 v=82
104742 On ch=1 n=g#4 v=46
104751 Off ch=1 n=d5 v=0
104754 Off ch=1 n=f5 v=0
104934 On ch=1 n=e5 v=58
104937 On ch=1 n=d5 v=80
104952 Off ch=1 n=b4 v=0
104964 Off ch=1 n=g#4 v=0
105120 On ch=1 n=g#4 v=46
105122 On ch=1 n=b4 v=76
105132 Off ch=1 n=e5 v=0
105139 Off ch=1 n=d5 v=0
105335 On ch=1 n=d5 v=76
105354 Off ch=1 n=b4 v=0
105354 On ch=1 n=e5 v=56
105366 Off ch=1 n=g#4 v=0
105513 On ch=1 n=g#4 v=42
105517 On ch=1 n=b4 v=78
105535 Off ch=1 n=e5 v=0
105535 Off ch=1 n=d5 v=0
105716 On ch=1 n=e5 v=50
105719 On ch=1 n=d5 v=72
105729 Off ch=1 n=b4 v=0
105747 Off ch=1 n=g#4 v=0
105902 On ch=1 n=a#4 v=43
105905 On ch=1 n=g4 v=52
105913 Off ch=1 n=e5 v=0
105919 Off ch=1 n=d5 v=0
106095 On ch=1 n=c#5 v=42
106099 On ch=1 n=e5 v=66
106119 Off ch=1 n=g4 v=0
106122 Off ch=1 n=a#4 v=0
106288 On ch=1 n=a#4 v=44
106291 On ch=1 n=g4 v=49
106307 Off ch=1 n=e5 v=0
106317 Off ch=1 n=c#5 v=0
106474 On ch=1 n=d#5 v=43
106474 On ch=1 n=c#5 v=46
106504 Off ch=1 n=a#4 v=0
106506 Off ch=1 n=g4 v=0
106659 On ch=1 n=a#4 v=42
106660 On ch=1 n=g4 v=52
106689 Off ch=1 n=d#5 v=0
106695 Off ch=1 n=c#5 v=0
106871 On ch=1 n=c#5 v=51
106872 On ch=1 n=d#5 v=49
106898 Off ch=1 n=g4 v=0
106901 Off ch=1 n=a#4 v=0
107063 On ch=1 n=a#4 v=43
107068 On ch=1 n=g4 v=52
107088 Off ch=1 n=c#5 v=0
107089 Off ch=1 n=d#5 v=0
107254 On ch=1 n=c#5 v=35
107255 On ch=1 n=d#5 v=43
107277 Off ch=1 n=g4 v=0
107280 Off ch=1 n=a#4 v=0
107430 Off ch=1 n=c#5 v=0
107434 Off ch=1 n=d#5 v=0
142794 Par ch=1 c=10 v=64
145040 On ch=1 n=c#4 v=86
145090 On ch=1 n=a4 v=94
145114 On ch=1 n=e5 v=96
145828 Off ch=1 n=e5 v=0
145851 Off ch=1 n=a4 v=0
145860 Off ch=1 n=c#4 v=0
148912 On ch=1 n=d#4 v=88
148914 On ch=1 n=d#3 v=80
149704 On ch=1 n=c#4 v=76
149768 Off ch=1 n=d#4 v=0
150414 Off ch=1 n=c#4 v=0
150421 Off ch=1 n=d#3 v=0
171978 Par ch=1 c=10 v=64
175414 On ch=1 n=d#4 v=43
175775 On ch=1 n=c5 v=64
175849 Off ch=1 n=d#4 v=0
176162 Off ch=1 n=c5 v=0
176174 On ch=1 n=c#4 v=69
176589 On ch=1 n=c4 v=66
176639 Off ch=1 n=c#4 v=0
176963 On ch=1 n=d#4 v=72
176991 Off ch=1 n=c4 v=0
177347 On ch=1 n=c5 v=82
177396 Off ch=1 n=d#4 v=0
177698 Off ch=1 n=c5 v=0
177702 On ch=1 n=d#3 v=78
178095 On ch=1 n=g#3 v=90
178136 Off ch=1 n=d#3 v=0
178480 On ch=1 n=d#4 v=72
178518 Off ch=1 n=g#3 v=0
178876 On ch=1 n=c5 v=72
178909 Off ch=1 n=d#4 v=0
179238 On ch=1 n=c#4 v=56
179611 Off ch=1 n=c5 v=0
179647 Off ch=1 n=c#4 v=0
179647 On ch=1 n=c4 v=62
180027 On ch=1 n=d#4 v=54
180046 Off ch=1 n=c4 v=0
180413 On ch=1 n=c5 v=68
180447 Off ch=1 n=d#4 v=0
180697 Off ch=1 n=c5 v=0
180770 On ch=1 n=d#3 v=58
181151 Off ch=1 n=d#3 v=0
181194 On ch=1 n=g#3 v=53
181343 Off ch=1 n=g#3 v=0
182340 On ch=1 n=d#3 v=45
182711 On ch=1 n=g#3 v=76
182742 Off ch=1 n=d#3 v=0
182847 Off ch=1 n=g#3 v=0
183858 On ch=1 n=d#3 v=54
184238 Off ch=1 n=d#3 v=0
184266 On ch=1 n=g#3 v=66
184404 Off ch=1 n=g#3 v=0
184811 Meta TrkEnd
TrkEnd
MTrk
0 Meta TrkName "Track 4"
21504 Par ch=1 c=10 v=64
21506 On ch=1 n=g#3 v=54
21925 On ch=1 n=e4 v=46
21970 Off ch=1 n=g#3 v=0
22322 Off ch=1 n=e4 v=0
22322 On ch=1 n=c#5 v=39
22588 Off ch=1 n=c#5 v=0
22686 On ch=1 n=g3 v=58
23013 On ch=1 n=g#3 v=44
23047 Off ch=1 n=g3 v=0
23375 On ch=1 n=e4 v=60
23485 Off ch=1 n=g#3 v=0
23795 On ch=1 n=c#5 v=46
23838 Off ch=1 n=e4 v=0
24113 Off ch=1 n=c#5 v=0
24169 On ch=1 n=g#2 v=78
24549 On ch=1 n=g#3 v=62
24600 Off ch=1 n=g#2 v=0
24932 On ch=1 n=e4 v=64
25002 Off ch=1 n=g#3 v=0
25317 On ch=1 n=c#5 v=58
25351 Off ch=1 n=e4 v=0
25652 Off ch=1 n=c#5 v=0
25687 On ch=1 n=d#4 v=39
26048 On ch=1 n=c#4 v=50
26106 Off ch=1 n=d#4 v=0
26479 On ch=1 n=e4 v=62
26505 Off ch=1 n=c#4 v=0
26870 On ch=1 n=c#5 v=50
26913 Off ch=1 n=e4 v=0
27200 Off ch=1 n=c#5 v=0
27258 On ch=1 n=g#2 v=78
27628 On ch=1 n=g#3 v=70
27681 Off ch=1 n=g#2 v=0
28021 On ch=1 n=g#5 v=44
28021 On ch=1 n=c#6 v=48
28024 On ch=1 n=e5 v=62
28047 Off ch=1 n=g#3 v=0
28328 Off ch=1 n=g#5 v=0
28344 Off ch=1 n=e5 v=0
28344 Off ch=1 n=c#6 v=0
28389 On ch=1 n=g#5 v=68
28393 On ch=1 n=c#6 v=60
28398 On ch=1 n=e5 v=74
28627 Off ch=1 n=e5 v=0
28686 Off ch=1 n=c#6 v=0
28749 Off ch=1 n=g#5 v=0
28758 On ch=1 n=e5 v=74
28759 On ch=1 n=a5 v=62
28764 On ch=1 n=c#5 v=53
29079 Off ch=1 n=e5 v=0
29080 Off ch=1 n=a5 v=0
29092 Off ch=1 n=c#5 v=0
29148 On ch=1 n=e5 v=80
29150 On ch=1 n=a5 v=68
29151 On ch=1 n=c#5 v=58
29479 Off ch=1 n=e5 v=0
29486 Off ch=1 n=c#5 v=0
29528 On ch=1 n=e5 v=74
29530 On ch=1 n=g#5 v=45
29532 On ch=1 n=c#5 v=58
29566 Off ch=1 n=a5 v=0
29832 Off ch=1 n=e5 v=0
29873 Off ch=1 n=g#5 v=0
29876 Off ch=1 n=c#5 v=0
29919 On ch=1 n=g#5 v=39
29923 On ch=1 n=e5 v=62
29923 On ch=1 n=c#5 v=41
30140 Off ch=1 n=c#5 v=0
30265 Off ch=1 n=g#5 v=0
30295 On ch=1 n=f#5 v=52
30298 On ch=1 n=g#4 v=48
30298 On ch=1 n=c#5 v=47
30330 Off ch=1 n=e5 v=0
30583 Off ch=1 n=f#5 v=0
30592 Off ch=1 n=c#5 v=0
30595 Off ch=1 n=g#4 v=0
30668 On ch=1 n=c#5 v=74
30671 On ch=1 n=g#4 v=60
30671 On ch=1 n=f#5 v=74
30979 Off ch=1 n=c#5 v=0
30990 Off ch=1 n=g#4 v=0
31048 On ch=1 n=c#5 v=44
31050 On ch=1 n=g#4 v=51
31057 On ch=1 n=e5 v=76
31103 Off ch=1 n=f#5 v=0
31351 Off ch=1 n=e5 v=0
31352 Off ch=1 n=c#5 v=0
31375 Off ch=1 n=g#4 v=0
31430 On ch=1 n=c#5 v=46
31431 On ch=1 n=g#4 v=46
31434 On ch=1 n=e5 v=72
31685 Off ch=1 n=g#4 v=0
31739 Off ch=1 n=e5 v=0
31786 Off ch=1 n=c#5 v=0
31827 On ch=1 n=d#5 v=76
31827 On ch=1 n=g#4 v=72
31833 On ch=1 n=f#4 v=52
32142 Off ch=1 n=g#4 v=0
32147 Off ch=1 n=f#4 v=0
32157 Off ch=1 n=d#5 v=0
32239 On ch=1 n=d#5 v=78
32241 On ch=1 n=g#4 v=88
32243 On ch=1 n=f#4 v=72
32423 Off ch=1 n=f#4 v=0
32517 Off ch=1 n=g#4 v=0
32589 On ch=1 n=c#5 v=60
32594 On ch=1 n=g#4 v=78
32594 On ch=1 n=e4 v=72
32636 Off ch=1 n=d#5 v=0
32805 Off ch=1 n=e4 v=0
32840 Off ch=1 n=g#4 v=0
32985 On ch=1 n=g#4 v=46
32988 On ch=1 n=d#5 v=66
32991 On ch=1 n=f#4 v=48
33034 Off ch=1 n=c#5 v=0
33156 Off ch=1 n=g#4 v=0
33188 Off ch=1 n=d#5 v=0
33194 Off ch=1 n=f#4 v=0
33326 On ch=1 n=f#5 v=47
33340 On ch=1 n=c#5 v=50
33342 On ch=1 n=g#4 v=53
33358 On ch=1 n=e5 v=78
33411 Off ch=1 n=f#5 v=0
33738 Off ch=1 n=e5 v=0
33743 Off ch=1 n=g#4 v=0
33751 Off ch=1 n=c#5 v=0
49152 Par ch=1 c=10 v=64
49516 On ch=1 n=f#5 v=72
49695 Off ch=1 n=f#5 v=0
49915 On ch=1 n=f#4 v=48
50074 Off ch=1 n=f#4 v=0
50279 On ch=1 n=f#3 v=74
50427 Off ch=1 n=f#3 v=0
50657 On ch=1 n=f#2 v=60
50818 Off ch=1 n=f#2 v=0
51050 On ch=1 n=f#3 v=49
51220 Off ch=1 n=f#3 v=0
51438 On ch=1 n=f#4 v=45
51614 Off ch=1 n=f#4 v=0
51829 On ch=1 n=f#5 v=60
51993 Off ch=1 n=f#5 v=0
132096 Par ch=1 c=10 v=64
132096 On ch=1 n=c#3 v=58
132332 Off ch=1 n=c#3 v=0
132501 On ch=1 n=c#4 v=68
132846 On ch=1 n=g#4 v=64
132884 Off ch=1 n=c#4 v=0
133211 On ch=1 n=d#5 v=58
133263 Off ch=1 n=g#4 v=0
133603 On ch=1 n=e5 v=76
133626 Off ch=1 n=d#5 v=0
133981 On ch=1 n=c#5 v=58
133995 Off ch=1 n=e5 v=0
134384 On ch=1 n=g#5 v=66
134435 Off ch=1 n=c#5 v=0
134770 On ch=1 n=a#5 v=62
134801 Off ch=1 n=g#5 v=0
135139 On ch=1 n=b5 v=76
135175 Off ch=1 n=a#5 v=0
135435 Off ch=1 n=b5 v=0
135529 On ch=1 n=g#3 v=66
135920 On ch=1 n=d#4 v=47
135956 Off ch=1 n=g#3 v=0
136285 On ch=1 n=a#4 v=47
136311 Off ch=1 n=d#4 v=0
136653 On ch=1 n=b4 v=78
136689 Off ch=1 n=a#4 v=0
136904 Off ch=1 n=b4 v=0
138226 On ch=1 n=e3 v=54
138626 On ch=1 n=b3 v=68
138672 Off ch=1 n=e3 v=0
139007 On ch=1 n=e4 v=70
139046 Off ch=1 n=b3 v=0
139394 On ch=1 n=f#4 v=51
139431 Off ch=1 n=e4 v=0
139777 On ch=1 n=g#4 v=62
139841 Off ch=1 n=f#4 v=0
140154 On ch=1 n=e4 v=64
140159 Off ch=1 n=g#4 v=0
140524 On ch=1 n=b4 v=78
140543 Off ch=1 n=e4 v=0
140897 On ch=1 n=c#5 v=60
140942 Off ch=1 n=b4 v=0
141278 On ch=1 n=d#5 v=52
141314 Off ch=1 n=c#5 v=0
141554 Off ch=1 n=d#5 v=0
141679 On ch=1 n=b2 v=80
142048 On ch=1 n=f#3 v=52
142096 Off ch=1 n=b2 v=0
142432 On ch=1 n=c#4 v=53
142450 Off ch=1 n=f#3 v=0
142798 On ch=1 n=d#4 v=44
142842 Off ch=1 n=c#4 v=0
143138 Off ch=1 n=d#4 v=0
144261 On ch=1 n=c#3 v=82
144365 On ch=1 n=e4 v=86
144627 Off ch=1 n=e4 v=0
144627 Off ch=1 n=c#3 v=0
150525 Par ch=1 c=10 v=64
150526 On ch=1 n=g#2 v=74
150798 Off ch=1 n=g#2 v=0
150942 On ch=1 n=d#3 v=82
151294 On ch=1 n=d#4 v=30
151316 Off ch=1 n=d#3 v=0
151320 On ch=1 n=b4 v=58
151347 Off ch=1 n=d#4 v=0
151631 Off ch=1 n=b4 v=0
151656 On ch=1 n=g3 v=70
152044 On ch=1 n=g#3 v=64
152071 Off ch=1 n=g3 v=0
152402 On ch=1 n=d#4 v=46
152429 Off ch=1 n=g#3 v=0
152806 On ch=1 n=b4 v=72
152862 Off ch=1 n=d#4 v=0
153127 Off ch=1 n=b4 v=0
153182 On ch=1 n=d#3 v=78
153560 On ch=1 n=g#3 v=72
153602 Off ch=1 n=d#3 v=0
153973 On ch=1 n=d#4 v=68
153993 Off ch=1 n=g#3 v=0
154369 On ch=1 n=c5 v=72
154390 Off ch=1 n=d#4 v=0
154704 Off ch=1 n=c5 v=0
154747 On ch=1 n=c#4 v=74
155097 On ch=1 n=c4 v=72
155154 Off ch=1 n=c#4 v=0
155489 Off ch=1 n=c4 v=0
155490 On ch=1 n=d#4 v=64
155875 On ch=1 n=c5 v=78
155920 Off ch=1 n=d#4 v=0
156186 Off ch=1 n=c5 v=0
156245 On ch=1 n=d#3 v=80
156635 On ch=1 n=g#3 v=80
156677 Off ch=1 n=d#3 v=0
157012 On ch=1 n=e4 v=70
157024 Off ch=1 n=g#3 v=0
157429 Off ch=1 n=e4 v=0
157437 On ch=1 n=c#5 v=48
157776 Off ch=1 n=c#5 v=0
157786 On ch=1 n=d#4 v=66
158169 On ch=1 n=c#4 v=62
158218 Off ch=1 n=d#4 v=0
158589 On ch=1 n=e4 v=64
158946 On ch=1 n=c#5 v=51
158999 Off ch=1 n=c#4 v=0
159053 Off ch=1 n=e4 v=0
159319 Off ch=1 n=c#5 v=0
159352 On ch=1 n=g#2 v=82
159727 On ch=1 n=g#3 v=70
159771 Off ch=1 n=g#2 v=0
160088 On ch=1 n=e4 v=70
160467 Off ch=1 n=g#3 v=0
160467 On ch=1 n=c#5 v=60
160490 Off ch=1 n=e4 v=0
160817 Off ch=1 n=c#5 v=0
160852 On ch=1 n=d#4 v=74
161219 On ch=1 n=c#4 v=82
161265 Off ch=1 n=d#4 v=0
161630 On ch=1 n=e4 v=68
161924 Off ch=1 n=c#4 v=0
162026 On ch=1 n=c#5 v=66
162065 Off ch=1 n=e4 v=0
162379 Off ch=1 n=c#5 v=0
162409 On ch=1 n=g#2 v=84
162798 Off ch=1 n=g#2 v=0
162810 On ch=1 n=g#3 v=84
163112 Off ch=1 n=g#3 v=0
163214 On ch=1 n=d#4 v=56
163419 Par ch=1 c=10 v=64
163567 On ch=1 n=c5 v=62
163646 Off ch=1 n=d#4 v=0
163884 Off ch=1 n=c5 v=0
163924 On ch=1 n=c#4 v=43
164317 On ch=1 n=c4 v=46
164408 Off ch=1 n=c#4 v=0
164691 On ch=1 n=d#4 v=47
164727 Off ch=1 n=c4 v=0
165087 On ch=1 n=c5 v=54
165097 Off ch=1 n=d#4 v=0
165392 Off ch=1 n=c5 v=0
165455 On ch=1 n=d#3 v=46
165838 On ch=1 n=g#3 v=58
165866 Off ch=1 n=d#3 v=0
166258 On ch=1 n=d#4 v=49
166672 Off ch=1 n=g#3 v=0
166672 On ch=1 n=c5 v=58
166743 Off ch=1 n=d#4 v=0
166948 Off ch=1 n=c5 v=0
167006 On ch=1 n=c#4 v=48
167370 On ch=1 n=c4 v=53
167406 Off ch=1 n=c#4 v=0
167765 On ch=1 n=d#4 v=45
168158 On ch=1 n=c5 v=58
168184 Off ch=1 n=c4 v=0
168238 Off ch=1 n=d#4 v=0
168458 Off ch=1 n=c5 v=0
168542 On ch=1 n=d#3 v=52
168917 On ch=1 n=g#3 v=51
168954 Off ch=1 n=d#3 v=0
169296 On ch=1 n=e4 v=49
169690 On ch=1 n=c#5 v=39
169733 Off ch=1 n=e4 v=0
169878 Off ch=1 n=g#3 v=0
170030 Off ch=1 n=c#5 v=0
170087 On ch=1 n=d#4 v=46
170471 On ch=1 n=c#4 v=33
170540 Off ch=1 n=d#4 v=0
170842 On ch=1 n=e4 v=50
171127 Off ch=1 n=c#4 v=0
171231 On ch=1 n=c#5 v=37
171274 Off ch=1 n=e4 v=0
171592 Off ch=1 n=c#5 v=0
171642 On ch=1 n=g#2 v=48
171987 On ch=1 n=g#3 v=45
172030 Off ch=1 n=g#2 v=0
172383 On ch=1 n=e4 v=51
172467 Off ch=1 n=g#3 v=0
172754 On ch=1 n=c#5 v=41
172796 Off ch=1 n=e4 v=0
173101 Off ch=1 n=c#5 v=0
173127 On ch=1 n=d#4 v=41
173517 On ch=1 n=c#4 v=45
173555 Off ch=1 n=d#4 v=0
173927 On ch=1 n=e4 v=52
173942 Off ch=1 n=c#4 v=0
174296 On ch=1 n=c#5 v=43
174339 Off ch=1 n=e4 v=0
174633 Off ch=1 n=c#5 v=0
174672 On ch=1 n=g#2 v=45
175073 On ch=1 n=g#3 v=44
175124 Off ch=1 n=g#2 v=0
175453 Off ch=1 n=g#3 v=0
181236 Par ch=1 c=10 v=64
185834 On ch=1 n=g#2 v=68
185834 On ch=1 n=g#3 v=60
185970 Off ch=1 n=g#2 v=0
185979 Off ch=1 n=g#3 v=0
186612 On ch=1 n=g#2 v=43
186617 On ch=1 n=g#3 v=52
186757 Off ch=1 n=g#2 v=0
186769 Off ch=1 n=g#3 v=0
187380 On ch=1 n=g#2 v=48
187394 On ch=1 n=g#3 v=53
187532 Off ch=1 n=g#3 v=0
187535 Off ch=1 n=g#2 v=0
189362 On ch=1 n=a#4 v=88
189363 On ch=1 n=g#4 v=84
189373 On ch=1 n=g#3 v=52
189375 On ch=1 n=e4 v=72
189378 On ch=1 n=c#3 v=86
191100 Off ch=1 n=e4 v=0
191265 Off ch=1 n=g#4 v=0
191468 Off ch=1 n=g#3 v=0
191962 On ch=1 n=c5 v=58
191962 On ch=1 n=g#4 v=44
191968 On ch=1 n=g#3 v=22
191969 On ch=1 n=d#4 v=31
191972 On ch=1 n=g#2 v=26
192094 Off ch=1 n=c#3 v=0
192096 Off ch=1 n=a#4 v=0
193685 Off ch=1 n=c5 v=0
193690 Off ch=1 n=g#4 v=0
193718 Off ch=1 n=g#2 v=0
193718 Off ch=1 n=d#4 v=0
193733 Off ch=1 n=g#3 v=0
194757 Meta TrkEnd
TrkEnd
MTrk
0 Meta TrkName "Track 3"
3072 Par ch=1 c=10 v=64
9288 Par ch=1 c=64 v=127
10081 Par ch=1 c=64 v=0
11043 Par ch=1 c=64 v=127
11626 Par ch=1 c=64 v=0
12566 Par ch=1 c=64 v=127
13128 Par ch=1 c=64 v=0
13996 Par ch=1 c=64 v=127
14663 Par ch=1 c=64 v=0
15455 Par ch=1 c=64 v=127
17079 Par ch=1 c=64 v=0
21702 Par ch=1 c=64 v=127
22454 Par ch=1 c=64 v=0
23384 Par ch=1 c=64 v=127
24182 Par ch=1 c=64 v=0
24836 Par ch=1 c=64 v=127
25681 Par ch=1 c=64 v=0
26263 Par ch=1 c=64 v=127
27261 Par ch=1 c=64 v=0
27853 Par ch=1 c=64 v=127
29155 Par ch=1 c=64 v=0
33868 Par ch=1 c=64 v=127
35258 Par ch=1 c=64 v=0
38533 Par ch=1 c=64 v=127
39065 Par ch=1 c=64 v=0
39385 Par ch=1 c=64 v=127
39680 Par ch=1 c=64 v=0
40105 Par ch=1 c=64 v=127
41254 Par ch=1 c=64 v=0
46278 Par ch=1 c=64 v=127
47618 Par ch=1 c=64 v=0
47776 Par ch=1 c=64 v=127
48329 Par ch=1 c=64 v=0
48553 Par ch=1 c=64 v=127
49109 Par ch=1 c=64 v=0
49294 Par ch=1 c=64 v=127
52198 Par ch=1 c=64 v=0
58588 Par ch=1 c=64 v=127
59413 Par ch=1 c=64 v=0
60195 Par ch=1 c=64 v=127
60956 Par ch=1 c=64 v=0
61688 Par ch=1 c=64 v=127
62462 Par ch=1 c=64 v=0
63190 Par ch=1 c=64 v=127
64027 Par ch=1 c=64 v=0
64651 Par ch=1 c=64 v=127
66007 Par ch=1 c=64 v=0
70881 Par ch=1 c=64 v=127
71768 Par ch=1 c=64 v=0
72564 Par ch=1 c=64 v=127
73504 Par ch=1 c=64 v=0
74034 Par ch=1 c=64 v=127
74977 Par ch=1 c=64 v=0
75453 Par ch=1 c=64 v=127
76363 Par ch=1 c=64 v=0
76988 Par ch=1 c=64 v=127
77577 Par ch=1 c=64 v=0
83095 Par ch=1 c=64 v=127
85199 Par ch=1 c=64 v=0
89259 Par ch=1 c=64 v=127
91334 Par ch=1 c=64 v=0
95316 Par ch=1 c=64 v=127
96684 Par ch=1 c=64 v=0
107738 Par ch=1 c=64 v=127
108554 Par ch=1 c=64 v=0
109218 Par ch=1 c=64 v=127
110077 Par ch=1 c=64 v=0
110890 Par ch=1 c=64 v=127
111654 Par ch=1 c=64 v=0
112310 Par ch=1 c=64 v=127
113230 Par ch=1 c=64 v=0
113812 Par ch=1 c=64 v=127
115147 Par ch=1 c=64 v=0
120036 Par ch=1 c=64 v=127
120842 Par ch=1 c=64 v=0
121496 Par ch=1 c=64 v=127
122504 Par ch=1 c=64 v=0
123052 Par ch=1 c=64 v=127
123942 Par ch=1 c=64 v=0
124545 Par ch=1 c=64 v=127
125404 Par ch=1 c=64 v=0
126091 Par ch=1 c=64 v=127
127415 Par ch=1 c=64 v=0
132158 Par ch=1 c=64 v=127
132200 Par ch=1 c=64 v=0
132294 Par ch=1 c=64 v=127
133565 Par ch=1 c=64 v=0
135575 Par ch=1 c=64 v=127
135608 Par ch=1 c=64 v=0
135746 Par ch=1 c=64 v=127
136772 Par ch=1 c=64 v=0
138405 Par ch=1 c=64 v=127
139804 Par ch=1 c=64 v=0
141851 Par ch=1 c=64 v=127
142816 Par ch=1 c=64 v=0
144436 Par ch=1 c=64 v=127
145958 Par ch=1 c=64 v=0
150740 Par ch=1 c=64 v=127
151642 Par ch=1 c=64 v=0
152341 Par ch=1 c=64 v=127
153494 Par ch=1 c=64 v=0
153790 Par ch=1 c=64 v=127
155050 Par ch=1 c=64 v=0
155294 Par ch=1 c=64 v=127
156247 Par ch=1 c=64 v=0
159462 Par ch=1 c=64 v=127
160520 Par ch=1 c=64 v=0
161282 Par ch=1 c=64 v=127
162064 Par ch=1 c=64 v=0
163014 Par ch=1 c=64 v=127
163954 Par ch=1 c=64 v=0
164600 Par ch=1 c=64 v=127
165732 Par ch=1 c=64 v=0
166114 Par ch=1 c=64 v=127
167319 Par ch=1 c=64 v=0
167649 Par ch=1 c=64 v=127
168579 Par ch=1 c=64 v=0
169163 Par ch=1 c=64 v=127
169988 Par ch=1 c=64 v=0
170739 Par ch=1 c=64 v=127
171470 Par ch=1 c=64 v=0
171766 Par ch=1 c=64 v=127
172857 Par ch=1 c=64 v=0
173691 Par ch=1 c=64 v=127
174338 Par ch=1 c=64 v=0
174730 Par ch=1 c=64 v=127
174753 Par ch=1 c=64 v=0
174827 Par ch=1 c=64 v=127
175979 Par ch=1 c=64 v=0
176772 Par ch=1 c=64 v=127
177682 Par ch=1 c=64 v=0
178381 Par ch=1 c=64 v=127
179165 Par ch=1 c=64 v=0
179915 Par ch=1 c=64 v=127
180498 Par ch=1 c=64 v=0
182685 Meta TrkEnd
TrkEnd
