MFile 0 1 480
MTrk
0 Meta SeqName "untitled"
0 TimeSig 2/2 48 8
0 KeySig -3 major
0 Tempo 394737
0 PrCh ch=1 p=0
0 Par ch=1 c=7 v=90
0 PrCh ch=1 p=0
0 Par ch=1 c=7 v=90
0 PrCh ch=1 p=0
0 Par ch=1 c=7 v=90
0 PrCh ch=1 p=0
0 Par ch=1 c=7 v=90
0 On ch=1 n=c3 v=125
0 On ch=1 n=d#4 v=125
0 PrCh ch=1 p=0
0 Par ch=1 c=64 v=127
120 On ch=1 n=d#4 v=0
120 On ch=1 n=c3 v=0
120 On ch=1 n=g3 v=97
120 On ch=1 n=g4 v=97
240 On ch=1 n=g4 v=0
240 On ch=1 n=g3 v=0
240 On ch=1 n=d#5 v=110
240 On ch=1 n=c4 v=97
360 On ch=1 n=c4 v=0
360 On ch=1 n=d#5 v=0
360 On ch=1 n=d#5 v=110
360 On ch=1 n=c4 v=97
480 On ch=1 n=c4 v=0
480 On ch=1 n=d#5 v=0
480 On ch=1 n=g5 v=110
480 On ch=1 n=g4 v=97
600 On ch=1 n=g4 v=0
600 On ch=1 n=g5 v=0
600 On ch=1 n=d#6 v=110
600 On ch=1 n=c5 v=97
720 On ch=1 n=c5 v=0
720 On ch=1 n=d#6 v=0
720 On ch=1 n=d#6 v=110
840 On ch=1 n=d#6 v=0
840 On ch=1 n=g5 v=110
840 On ch=1 n=g6 v=110
840 On ch=1 n=c5 v=97
960 On ch=1 n=c5 v=0
960 On ch=1 n=g6 v=0
960 On ch=1 n=g5 v=0
960 On ch=1 n=c6 v=125
960 On ch=1 n=d#7 v=125
1080 On ch=1 n=d#7 v=0
1080 On ch=1 n=c6 v=0
1080 On ch=1 n=g5 v=110
1080 On ch=1 n=g6 v=110
1200 On ch=1 n=g6 v=0
1200 On ch=1 n=g5 v=0
1200 On ch=1 n=c5 v=110
1200 On ch=1 n=d#6 v=110
1320 On ch=1 n=d#6 v=0
1320 On ch=1 n=c5 v=0
1320 On ch=1 n=c5 v=110
1320 On ch=1 n=d#6 v=110
1440 On ch=1 n=d#6 v=0
1440 On ch=1 n=c5 v=0
1440 On ch=1 n=g5 v=110
1440 On ch=1 n=g4 v=97
1560 On ch=1 n=g4 v=0
1560 On ch=1 n=g5 v=0
1560 On ch=1 n=d#5 v=110
1560 On ch=1 n=c4 v=97
1680 On ch=1 n=c4 v=0
1680 On ch=1 n=d#5 v=0
1680 On ch=1 n=d#5 v=110
1680 On ch=1 n=c4 v=97
1800 On ch=1 n=c4 v=0
1800 On ch=1 n=d#5 v=0
1800 On ch=1 n=g4 v=110
1800 On ch=1 n=g3 v=97
1900 Par ch=1 c=64 v=0
1920 On ch=1 n=g3 v=0
1920 On ch=1 n=g4 v=0
1920 On ch=1 n=c3 v=125
1920 On ch=1 n=d4 v=125
1920 Par ch=1 c=64 v=127
2040 On ch=1 n=d4 v=0
2040 On ch=1 n=c3 v=0
2040 On ch=1 n=g#4 v=97
2040 On ch=1 n=f3 v=97
2160 On ch=1 n=f3 v=0
2160 On ch=1 n=g#4 v=0
2160 On ch=1 n=d5 v=110
2160 On ch=1 n=c4 v=97
2280 On ch=1 n=c4 v=0
2280 On ch=1 n=d5 v=0
2280 On ch=1 n=d5 v=110
2280 On ch=1 n=c4 v=97
2400 On ch=1 n=c4 v=0
2400 On ch=1 n=d5 v=0
2400 On ch=1 n=g#5 v=110
2400 On ch=1 n=f4 v=97
2520 On ch=1 n=f4 v=0
2520 On ch=1 n=g#5 v=0
2520 On ch=1 n=d6 v=110
2520 On ch=1 n=c5 v=97
2640 On ch=1 n=c5 v=0
2640 On ch=1 n=d6 v=0
2640 On ch=1 n=d6 v=110
2640 On ch=1 n=c5 v=97
2760 On ch=1 n=c5 v=0
2760 On ch=1 n=d6 v=0
2760 On ch=1 n=f5 v=110
2760 On ch=1 n=g#6 v=110
2880 On ch=1 n=g#6 v=0
2880 On ch=1 n=f5 v=0
2880 On ch=1 n=c6 v=125
2880 On ch=1 n=d7 v=125
3000 On ch=1 n=d7 v=0
3000 On ch=1 n=c6 v=0
3000 On ch=1 n=f5 v=110
3000 On ch=1 n=g#6 v=110
3120 On ch=1 n=g#6 v=0
3120 On ch=1 n=f5 v=0
3120 On ch=1 n=c5 v=110
3120 On ch=1 n=d6 v=110
3240 On ch=1 n=d6 v=0
3240 On ch=1 n=c5 v=0
3240 On ch=1 n=c5 v=110
3240 On ch=1 n=d6 v=110
3360 On ch=1 n=d6 v=0
3360 On ch=1 n=c5 v=0
3360 On ch=1 n=g#5 v=110
3360 On ch=1 n=f4 v=97
3480 On ch=1 n=f4 v=0
3480 On ch=1 n=g#5 v=0
3480 On ch=1 n=d5 v=110
3480 On ch=1 n=c4 v=97
3600 On ch=1 n=c4 v=0
3600 On ch=1 n=d5 v=0
3600 On ch=1 n=d5 v=110
3600 On ch=1 n=c4 v=97
3720 On ch=1 n=c4 v=0
3720 On ch=1 n=d5 v=0
3720 On ch=1 n=g#4 v=110
3720 On ch=1 n=f3 v=97
3820 Par ch=1 c=64 v=0
3840 On ch=1 n=f3 v=0
3840 On ch=1 n=g#4 v=0
3840 On ch=1 n=f4 v=125
3840 On ch=1 n=c3 v=125
3840 Par ch=1 c=64 v=127
3960 On ch=1 n=c3 v=0
3960 On ch=1 n=f4 v=0
3960 On ch=1 n=c5 v=110
3960 On ch=1 n=g#3 v=97
4080 On ch=1 n=g#3 v=0
4080 On ch=1 n=c5 v=0
4080 On ch=1 n=f5 v=110
4080 On ch=1 n=c4 v=97
4200 On ch=1 n=c4 v=0
4200 On ch=1 n=f5 v=0
4200 On ch=1 n=f5 v=110
4200 On ch=1 n=c4 v=97
4320 On ch=1 n=c4 v=0
4320 On ch=1 n=f5 v=0
4320 On ch=1 n=c6 v=110
4320 On ch=1 n=g#4 v=97
4440 On ch=1 n=g#4 v=0
4440 On ch=1 n=c6 v=0
4440 On ch=1 n=f6 v=110
4440 On ch=1 n=c5 v=97
4560 On ch=1 n=c5 v=0
4560 On ch=1 n=f6 v=0
4560 On ch=1 n=f6 v=110
4560 On ch=1 n=c5 v=97
4680 On ch=1 n=c5 v=0
4680 On ch=1 n=f6 v=0
4680 On ch=1 n=g#5 v=110
4680 On ch=1 n=c7 v=110
4800 On ch=1 n=c7 v=0
4800 On ch=1 n=g#5 v=0
4800 On ch=1 n=c6 v=125
4800 On ch=1 n=f7 v=125
4920 On ch=1 n=f7 v=0
4920 On ch=1 n=c6 v=0
4920 On ch=1 n=g#5 v=110
4920 On ch=1 n=c7 v=110
5040 On ch=1 n=c7 v=0
5040 On ch=1 n=g#5 v=0
5040 On ch=1 n=c5 v=110
5040 On ch=1 n=f6 v=110
5160 On ch=1 n=f6 v=0
5160 On ch=1 n=c5 v=0
5160 On ch=1 n=c5 v=110
5160 On ch=1 n=f6 v=110
5280 On ch=1 n=f6 v=0
5280 On ch=1 n=c5 v=0
5280 On ch=1 n=c6 v=110
5280 On ch=1 n=g#4 v=97
5400 On ch=1 n=g#4 v=0
5400 On ch=1 n=c6 v=0
5400 On ch=1 n=f5 v=110
5400 On ch=1 n=c4 v=97
5520 On ch=1 n=c4 v=0
5520 On ch=1 n=f5 v=0
5520 On ch=1 n=f5 v=110
5520 On ch=1 n=c4 v=97
5640 On ch=1 n=c4 v=0
5640 On ch=1 n=f5 v=0
5640 On ch=1 n=c5 v=110
5640 On ch=1 n=g#3 v=97
5740 Par ch=1 c=64 v=0
5760 On ch=1 n=g#3 v=0
5760 On ch=1 n=c5 v=0
5760 On ch=1 n=c3 v=125
5760 On ch=1 n=d#4 v=125
5760 Par ch=1 c=64 v=127
5880 On ch=1 n=d#4 v=0
5880 On ch=1 n=c3 v=0
5880 On ch=1 n=g3 v=97
5880 On ch=1 n=g4 v=97
6000 On ch=1 n=g4 v=0
6000 On ch=1 n=g3 v=0
6000 On ch=1 n=d#5 v=110
6000 On ch=1 n=c4 v=97
6120 On ch=1 n=c4 v=0
6120 On ch=1 n=d#5 v=0
6120 On ch=1 n=d#5 v=110
6120 On ch=1 n=c4 v=97
6240 On ch=1 n=c4 v=0
6240 On ch=1 n=d#5 v=0
6240 On ch=1 n=g5 v=110
6240 On ch=1 n=g4 v=97
6360 On ch=1 n=g4 v=0
6360 On ch=1 n=g5 v=0
6360 On ch=1 n=d#6 v=110
6360 On ch=1 n=c5 v=97
6480 On ch=1 n=c5 v=0
6480 On ch=1 n=d#6 v=0
6480 On ch=1 n=d#6 v=110
6480 On ch=1 n=c5 v=97
6600 On ch=1 n=c5 v=0
6600 On ch=1 n=d#6 v=0
6600 On ch=1 n=g5 v=110
6600 On ch=1 n=g6 v=110
6720 On ch=1 n=g6 v=0
6720 On ch=1 n=g5 v=0
6720 On ch=1 n=c6 v=125
6720 On ch=1 n=d#7 v=125
6840 On ch=1 n=d#7 v=0
6840 On ch=1 n=c6 v=0
6840 On ch=1 n=g5 v=110
6840 On ch=1 n=g6 v=110
6960 On ch=1 n=g6 v=0
6960 On ch=1 n=g5 v=0
6960 On ch=1 n=c5 v=110
6960 On ch=1 n=d#6 v=110
7080 On ch=1 n=d#6 v=0
7080 On ch=1 n=c5 v=0
7080 On ch=1 n=c5 v=110
7080 On ch=1 n=d#6 v=110
7200 On ch=1 n=d#6 v=0
7200 On ch=1 n=c5 v=0
7200 On ch=1 n=g5 v=110
7200 On ch=1 n=g4 v=97
7320 On ch=1 n=g4 v=0
7320 On ch=1 n=g5 v=0
7320 On ch=1 n=d#5 v=110
7320 On ch=1 n=c4 v=97
7440 On ch=1 n=c4 v=0
7440 On ch=1 n=d#5 v=0
7440 On ch=1 n=d#5 v=110
7440 On ch=1 n=c4 v=97
7560 On ch=1 n=c4 v=0
7560 On ch=1 n=d#5 v=0
7560 On ch=1 n=g4 v=110
7560 On ch=1 n=g3 v=97
7660 Par ch=1 c=64 v=0
7680 On ch=1 n=g3 v=0
7680 On ch=1 n=g4 v=0
7680 On ch=1 n=c3 v=125
7680 On ch=1 n=d4 v=125
7680 Par ch=1 c=64 v=127
7800 On ch=1 n=d4 v=0
7800 On ch=1 n=c3 v=0
7800 On ch=1 n=g#4 v=97
7800 On ch=1 n=f3 v=97
7920 On ch=1 n=f3 v=0
7920 On ch=1 n=g#4 v=0
7920 On ch=1 n=d5 v=110
7920 On ch=1 n=c4 v=97
8040 On ch=1 n=c4 v=0
8040 On ch=1 n=d5 v=0
8040 On ch=1 n=d5 v=110
8040 On ch=1 n=c4 v=97
8160 On ch=1 n=c4 v=0
8160 On ch=1 n=d5 v=0
8160 On ch=1 n=g#5 v=110
8160 On ch=1 n=f4 v=97
8280 On ch=1 n=f4 v=0
8280 On ch=1 n=g#5 v=0
8280 On ch=1 n=d6 v=110
8280 On ch=1 n=c5 v=97
8400 On ch=1 n=c5 v=0
8400 On ch=1 n=d6 v=0
8400 On ch=1 n=d6 v=110
8400 On ch=1 n=c5 v=97
8520 On ch=1 n=c5 v=0
8520 On ch=1 n=d6 v=0
8520 On ch=1 n=f5 v=110
8520 On ch=1 n=g#6 v=110
8640 On ch=1 n=g#6 v=0
8640 On ch=1 n=f5 v=0
8640 On ch=1 n=c6 v=125
8640 On ch=1 n=d7 v=125
8760 On ch=1 n=d7 v=0
8760 On ch=1 n=c6 v=0
8760 On ch=1 n=f5 v=110
8760 On ch=1 n=g#6 v=110
8880 On ch=1 n=g#6 v=0
8880 On ch=1 n=f5 v=0
8880 On ch=1 n=c5 v=110
8880 On ch=1 n=d6 v=110
9000 On ch=1 n=d6 v=0
9000 On ch=1 n=c5 v=0
9000 On ch=1 n=c5 v=110
9000 On ch=1 n=d6 v=110
9120 On ch=1 n=d6 v=0
9120 On ch=1 n=c5 v=0
9120 On ch=1 n=g#5 v=110
9120 On ch=1 n=f4 v=97
9240 On ch=1 n=f4 v=0
9240 On ch=1 n=g#5 v=0
9240 On ch=1 n=d5 v=110
9240 On ch=1 n=c4 v=97
9360 On ch=1 n=c4 v=0
9360 On ch=1 n=d5 v=0
9360 On ch=1 n=d5 v=110
9360 On ch=1 n=c4 v=97
9480 On ch=1 n=c4 v=0
9480 On ch=1 n=d5 v=0
9480 On ch=1 n=g#4 v=110
9480 On ch=1 n=f3 v=97
9580 Par ch=1 c=64 v=0
9600 On ch=1 n=f3 v=0
9600 On ch=1 n=g#4 v=0
9600 On ch=1 n=c3 v=125
9600 On ch=1 n=d#4 v=125
9600 Par ch=1 c=64 v=127
9720 On ch=1 n=d#4 v=0
9720 On ch=1 n=c3 v=0
9720 On ch=1 n=f3 v=97
9720 On ch=1 n=g#4 v=97
9840 On ch=1 n=g#4 v=0
9840 On ch=1 n=f3 v=0
9840 On ch=1 n=d#5 v=110
9840 On ch=1 n=b3 v=97
9960 On ch=1 n=b3 v=0
9960 On ch=1 n=d#5 v=0
9960 On ch=1 n=d#5 v=110
9960 On ch=1 n=c4 v=97
10080 On ch=1 n=c4 v=0
10080 On ch=1 n=d#5 v=0
10080 On ch=1 n=g#5 v=110
10080 On ch=1 n=f4 v=97
10200 On ch=1 n=f4 v=0
10200 On ch=1 n=g#5 v=0
10200 On ch=1 n=d#6 v=110
10200 On ch=1 n=b4 v=97
10320 On ch=1 n=b4 v=0
10320 On ch=1 n=d#6 v=0
10320 On ch=1 n=d#6 v=110
10320 On ch=1 n=c5 v=97
10440 On ch=1 n=c5 v=0
10440 On ch=1 n=d#6 v=0
10440 On ch=1 n=f5 v=110
10440 On ch=1 n=g#6 v=110
10560 On ch=1 n=g#6 v=0
10560 On ch=1 n=f5 v=0
10560 On ch=1 n=b5 v=125
10560 On ch=1 n=d#7 v=125
10680 On ch=1 n=d#7 v=0
10680 On ch=1 n=b5 v=0
10680 On ch=1 n=f5 v=110
10680 On ch=1 n=g#6 v=110
10800 On ch=1 n=g#6 v=0
10800 On ch=1 n=f5 v=0
10800 On ch=1 n=c5 v=110
10800 On ch=1 n=d#6 v=110
10920 On ch=1 n=d#6 v=0
10920 On ch=1 n=c5 v=0
10920 On ch=1 n=b4 v=110
10920 On ch=1 n=d#6 v=110
11040 On ch=1 n=d#6 v=0
11040 On ch=1 n=b4 v=0
11040 On ch=1 n=g#5 v=110
11040 On ch=1 n=f4 v=97
11160 On ch=1 n=f4 v=0
11160 On ch=1 n=g#5 v=0
11160 On ch=1 n=d#5 v=110
11160 On ch=1 n=c4 v=97
11280 On ch=1 n=c4 v=0
11280 On ch=1 n=d#5 v=0
11280 On ch=1 n=d#5 v=110
11280 On ch=1 n=b3 v=97
11400 On ch=1 n=b3 v=0
11400 On ch=1 n=d#5 v=0
11400 On ch=1 n=g#4 v=110
11400 On ch=1 n=f3 v=97
11500 Par ch=1 c=64 v=0
11520 On ch=1 n=f3 v=0
11520 On ch=1 n=g#4 v=0
11520 On ch=1 n=c3 v=120
11520 On ch=1 n=c4 v=120
11520 Par ch=1 c=64 v=127
11640 On ch=1 n=c4 v=0
11640 On ch=1 n=c3 v=0
11640 On ch=1 n=g3 v=100
11640 On ch=1 n=d#4 v=100
11760 On ch=1 n=d#4 v=0
11760 On ch=1 n=g3 v=0
11760 On ch=1 n=c4 v=99
11760 On ch=1 n=c5 v=99
11880 On ch=1 n=c5 v=0
11880 On ch=1 n=c4 v=0
11880 On ch=1 n=c4 v=98
11880 On ch=1 n=c5 v=98
12000 On ch=1 n=c5 v=0
12000 On ch=1 n=c4 v=0
12000 On ch=1 n=d#5 v=114
12000 On ch=1 n=g4 v=98
12120 On ch=1 n=g4 v=0
12120 On ch=1 n=d#5 v=0
12120 On ch=1 n=c6 v=113
12120 On ch=1 n=c5 v=97
12240 On ch=1 n=c5 v=0
12240 On ch=1 n=c6 v=0
12240 On ch=1 n=d#5 v=111
12240 On ch=1 n=g4 v=96
12360 On ch=1 n=g4 v=0
12360 On ch=1 n=d#5 v=0
12360 On ch=1 n=c5 v=110
12360 On ch=1 n=c4 v=96
12480 On ch=1 n=c4 v=0
12480 On ch=1 n=c5 v=0
12480 On ch=1 n=d#5 v=109
12480 On ch=1 n=g4 v=95
12600 On ch=1 n=g4 v=0
12600 On ch=1 n=d#5 v=0
12600 On ch=1 n=a#5 v=108
12600 On ch=1 n=c5 v=95
12720 On ch=1 n=c5 v=0
12720 On ch=1 n=a#5 v=0
12720 On ch=1 n=d#5 v=107
12720 On ch=1 n=g4 v=94
12840 On ch=1 n=g4 v=0
12840 On ch=1 n=d#5 v=0
12840 On ch=1 n=c5 v=106
12840 On ch=1 n=c4 v=93
12960 On ch=1 n=c4 v=0
12960 On ch=1 n=c5 v=0
12960 On ch=1 n=d#5 v=104
12960 On ch=1 n=g4 v=93
13080 On ch=1 n=g4 v=0
13080 On ch=1 n=d#5 v=0
13080 On ch=1 n=g#5 v=103
13080 On ch=1 n=c5 v=92
13200 On ch=1 n=c5 v=0
13200 On ch=1 n=g#5 v=0
13200 On ch=1 n=d#5 v=102
13200 On ch=1 n=g4 v=91
13320 On ch=1 n=g4 v=0
13320 On ch=1 n=d#5 v=0
13320 On ch=1 n=c5 v=101
13320 On ch=1 n=c4 v=91
13420 Par ch=1 c=64 v=0
13440 On ch=1 n=c4 v=0
13440 On ch=1 n=c5 v=0
13440 On ch=1 n=d5 v=100
13440 On ch=1 n=g4 v=90
13560 On ch=1 n=g4 v=0
13560 On ch=1 n=d5 v=0
13560 On ch=1 n=g5 v=99
13560 On ch=1 n=b4 v=90
13560 Par ch=1 c=64 v=127
13680 On ch=1 n=b4 v=0
13680 On ch=1 n=g5 v=0
13680 On ch=1 n=d5 v=97
13680 On ch=1 n=g4 v=89
13800 On ch=1 n=g4 v=0
13800 On ch=1 n=d5 v=0
13800 On ch=1 n=b4 v=96
13800 On ch=1 n=c4 v=88
13920 On ch=1 n=c4 v=0
13920 On ch=1 n=b4 v=0
13920 On ch=1 n=c#5 v=95
13920 On ch=1 n=g4 v=88
14040 On ch=1 n=g4 v=0
14040 On ch=1 n=c#5 v=0
14040 On ch=1 n=g5 v=94
14040 On ch=1 n=a#4 v=87
14160 On ch=1 n=a#4 v=0
14160 On ch=1 n=g5 v=0
14160 On ch=1 n=c#5 v=93
14160 On ch=1 n=g4 v=86
14280 On ch=1 n=g4 v=0
14280 On ch=1 n=c#5 v=0
14280 On ch=1 n=a#4 v=92
14280 On ch=1 n=c4 v=86
14400 On ch=1 n=c4 v=0
14400 On ch=1 n=a#4 v=0
14400 On ch=1 n=c5 v=90
14400 On ch=1 n=f4 v=85
14500 Par ch=1 c=64 v=0
14520 On ch=1 n=f4 v=0
14520 On ch=1 n=c5 v=0
14520 On ch=1 n=f5 v=89
14520 On ch=1 n=a4 v=85
14520 Par ch=1 c=64 v=127
14640 On ch=1 n=a4 v=0
14640 On ch=1 n=f5 v=0
14640 On ch=1 n=c5 v=88
14640 On ch=1 n=f4 v=84
14760 On ch=1 n=f4 v=0
14760 On ch=1 n=c5 v=0
14760 On ch=1 n=a4 v=87
14760 On ch=1 n=c4 v=83
14880 On ch=1 n=c4 v=0
14880 On ch=1 n=a4 v=0
14880 On ch=1 n=b4 v=86
14880 On ch=1 n=f4 v=83
15000 On ch=1 n=f4 v=0
15000 On ch=1 n=b4 v=0
15000 On ch=1 n=f5 v=85
15000 On ch=1 n=g#4 v=82
15120 On ch=1 n=g#4 v=0
15120 On ch=1 n=f5 v=0
15120 On ch=1 n=b4 v=83
15120 On ch=1 n=f4 v=81
15240 On ch=1 n=f4 v=0
15240 On ch=1 n=b4 v=0
15240 On ch=1 n=g#4 v=82
15240 On ch=1 n=c4 v=81
15340 Par ch=1 c=64 v=0
15360 On ch=1 n=c4 v=0
15360 On ch=1 n=g#4 v=0
15360 Tempo 394737
15360 On ch=1 n=c3 v=97
15360 On ch=1 n=d#4 v=97
15360 Par ch=1 c=64 v=127
15480 On ch=1 n=d#4 v=0
15480 On ch=1 n=c3 v=0
15480 On ch=1 n=g3 v=80
15480 On ch=1 n=g4 v=80
15600 On ch=1 n=g4 v=0
15600 On ch=1 n=g3 v=0
15600 On ch=1 n=d#5 v=80
15600 On ch=1 n=c4 v=80
15720 On ch=1 n=c4 v=0
15720 On ch=1 n=d#5 v=0
15720 On ch=1 n=d#5 v=80
15720 On ch=1 n=c4 v=80
15840 On ch=1 n=c4 v=0
15840 On ch=1 n=d#5 v=0
15840 On ch=1 n=g5 v=80
15840 On ch=1 n=g4 v=80
15960 On ch=1 n=g4 v=0
15960 On ch=1 n=g5 v=0
15960 On ch=1 n=d#6 v=80
15960 On ch=1 n=c5 v=80
16080 On ch=1 n=c5 v=0
16080 On ch=1 n=d#6 v=0
16080 On ch=1 n=d#6 v=80
16200 On ch=1 n=d#6 v=0
16200 On ch=1 n=g5 v=80
16200 On ch=1 n=g6 v=80
16200 On ch=1 n=c5 v=80
16320 On ch=1 n=c5 v=0
16320 On ch=1 n=g6 v=0
16320 On ch=1 n=g5 v=0
16320 On ch=1 n=c6 v=80
16320 On ch=1 n=d#7 v=80
16440 On ch=1 n=d#7 v=0
16440 On ch=1 n=c6 v=0
16440 On ch=1 n=g5 v=80
16440 On ch=1 n=g6 v=80
16560 On ch=1 n=g6 v=0
16560 On ch=1 n=g5 v=0
16560 On ch=1 n=c5 v=80
16560 On ch=1 n=d#6 v=80
16680 On ch=1 n=d#6 v=0
16680 On ch=1 n=c5 v=0
16680 On ch=1 n=c5 v=80
16680 On ch=1 n=d#6 v=80
16800 On ch=1 n=d#6 v=0
16800 On ch=1 n=c5 v=0
16800 On ch=1 n=g5 v=80
16800 On ch=1 n=g4 v=80
16920 On ch=1 n=g4 v=0
16920 On ch=1 n=g5 v=0
16920 On ch=1 n=d#5 v=80
16920 On ch=1 n=c4 v=80
17040 On ch=1 n=c4 v=0
17040 On ch=1 n=d#5 v=0
17040 On ch=1 n=d#5 v=80
17040 On ch=1 n=c4 v=80
17160 On ch=1 n=c4 v=0
17160 On ch=1 n=d#5 v=0
17160 On ch=1 n=g4 v=80
17160 On ch=1 n=g3 v=80
17260 Par ch=1 c=64 v=0
17280 On ch=1 n=g3 v=0
17280 On ch=1 n=g4 v=0
17280 On ch=1 n=c3 v=80
17280 On ch=1 n=d4 v=80
17280 Par ch=1 c=64 v=127
17400 On ch=1 n=d4 v=0
17400 On ch=1 n=c3 v=0
17400 On ch=1 n=g#4 v=80
17400 On ch=1 n=f3 v=80
17520 On ch=1 n=f3 v=0
17520 On ch=1 n=g#4 v=0
17520 On ch=1 n=d5 v=80
17520 On ch=1 n=c4 v=80
17640 On ch=1 n=c4 v=0
17640 On ch=1 n=d5 v=0
17640 On ch=1 n=d5 v=80
17640 On ch=1 n=c4 v=80
17760 On ch=1 n=c4 v=0
17760 On ch=1 n=d5 v=0
17760 On ch=1 n=g#5 v=80
17760 On ch=1 n=f4 v=80
17880 On ch=1 n=f4 v=0
17880 On ch=1 n=g#5 v=0
17880 On ch=1 n=d6 v=80
17880 On ch=1 n=c5 v=80
18000 On ch=1 n=c5 v=0
18000 On ch=1 n=d6 v=0
18000 On ch=1 n=d6 v=80
18000 On ch=1 n=c5 v=80
18120 On ch=1 n=c5 v=0
18120 On ch=1 n=d6 v=0
18120 On ch=1 n=f5 v=80
18120 On ch=1 n=g#6 v=80
18240 On ch=1 n=g#6 v=0
18240 On ch=1 n=f5 v=0
18240 On ch=1 n=c6 v=80
18240 On ch=1 n=d7 v=80
18360 On ch=1 n=d7 v=0
18360 On ch=1 n=c6 v=0
18360 On ch=1 n=f5 v=80
18360 On ch=1 n=g#6 v=80
18480 On ch=1 n=g#6 v=0
18480 On ch=1 n=f5 v=0
18480 On ch=1 n=c5 v=80
18480 On ch=1 n=d6 v=80
18600 On ch=1 n=d6 v=0
18600 On ch=1 n=c5 v=0
18600 On ch=1 n=c5 v=80
18600 On ch=1 n=d6 v=80
18720 On ch=1 n=d6 v=0
18720 On ch=1 n=c5 v=0
18720 On ch=1 n=g#5 v=80
18720 On ch=1 n=f4 v=80
18840 On ch=1 n=f4 v=0
18840 On ch=1 n=g#5 v=0
18840 On ch=1 n=d5 v=80
18840 On ch=1 n=c4 v=80
18960 On ch=1 n=c4 v=0
18960 On ch=1 n=d5 v=0
18960 On ch=1 n=d5 v=80
18960 On ch=1 n=c4 v=80
19080 On ch=1 n=c4 v=0
19080 On ch=1 n=d5 v=0
19080 On ch=1 n=g#4 v=80
19080 On ch=1 n=f3 v=80
19180 Par ch=1 c=64 v=0
19200 On ch=1 n=f3 v=0
19200 On ch=1 n=g#4 v=0
19200 On ch=1 n=f4 v=80
19200 On ch=1 n=c3 v=80
19200 Par ch=1 c=64 v=127
19320 On ch=1 n=c3 v=0
19320 On ch=1 n=f4 v=0
19320 On ch=1 n=c5 v=80
19320 On ch=1 n=g#3 v=80
19440 On ch=1 n=g#3 v=0
19440 On ch=1 n=c5 v=0
19440 On ch=1 n=f5 v=80
19440 On ch=1 n=c4 v=80
19560 On ch=1 n=c4 v=0
19560 On ch=1 n=f5 v=0
19560 On ch=1 n=f5 v=80
19560 On ch=1 n=c4 v=80
19680 On ch=1 n=c4 v=0
19680 On ch=1 n=f5 v=0
19680 On ch=1 n=c6 v=80
19680 On ch=1 n=g#4 v=80
19800 On ch=1 n=g#4 v=0
19800 On ch=1 n=c6 v=0
19800 On ch=1 n=f6 v=80
19800 On ch=1 n=c5 v=80
19920 On ch=1 n=c5 v=0
19920 On ch=1 n=f6 v=0
19920 On ch=1 n=f6 v=80
19920 On ch=1 n=c5 v=80
20040 On ch=1 n=c5 v=0
20040 On ch=1 n=f6 v=0
20040 On ch=1 n=g#5 v=80
20040 On ch=1 n=c7 v=80
20160 On ch=1 n=c7 v=0
20160 On ch=1 n=g#5 v=0
20160 On ch=1 n=c6 v=80
20160 On ch=1 n=f7 v=80
20280 On ch=1 n=f7 v=0
20280 On ch=1 n=c6 v=0
20280 On ch=1 n=g#5 v=80
20280 On ch=1 n=c7 v=80
20400 On ch=1 n=c7 v=0
20400 On ch=1 n=g#5 v=0
20400 On ch=1 n=c5 v=80
20400 On ch=1 n=f6 v=80
20520 On ch=1 n=f6 v=0
20520 On ch=1 n=c5 v=0
20520 On ch=1 n=c5 v=80
20520 On ch=1 n=f6 v=80
20640 On ch=1 n=f6 v=0
20640 On ch=1 n=c5 v=0
20640 On ch=1 n=c6 v=80
20640 On ch=1 n=g#4 v=80
20760 On ch=1 n=g#4 v=0
20760 On ch=1 n=c6 v=0
20760 On ch=1 n=f5 v=80
20760 On ch=1 n=c4 v=80
20880 On ch=1 n=c4 v=0
20880 On ch=1 n=f5 v=0
20880 On ch=1 n=f5 v=80
20880 On ch=1 n=c4 v=80
21000 On ch=1 n=c4 v=0
21000 On ch=1 n=f5 v=0
21000 On ch=1 n=c5 v=80
21000 On ch=1 n=g#3 v=80
21100 Par ch=1 c=64 v=0
21120 On ch=1 n=g#3 v=0
21120 On ch=1 n=c5 v=0
21120 On ch=1 n=e4 v=80
21120 On ch=1 n=c3 v=80
21120 Par ch=1 c=64 v=127
21240 On ch=1 n=c3 v=0
21240 On ch=1 n=e4 v=0
21240 On ch=1 n=c5 v=80
21240 On ch=1 n=g3 v=80
21360 On ch=1 n=g3 v=0
21360 On ch=1 n=c5 v=0
21360 On ch=1 n=e5 v=80
21360 On ch=1 n=c4 v=80
21480 On ch=1 n=c4 v=0
21480 On ch=1 n=e5 v=0
21480 On ch=1 n=e5 v=80
21480 On ch=1 n=c4 v=80
21600 On ch=1 n=c4 v=0
21600 On ch=1 n=e5 v=0
21600 On ch=1 n=c6 v=80
21600 On ch=1 n=g4 v=80
21720 On ch=1 n=g4 v=0
21720 On ch=1 n=c6 v=0
21720 On ch=1 n=e6 v=80
21720 On ch=1 n=c5 v=80
21840 On ch=1 n=c5 v=0
21840 On ch=1 n=e6 v=0
21840 On ch=1 n=e6 v=80
21840 On ch=1 n=c5 v=80
21960 On ch=1 n=c5 v=0
21960 On ch=1 n=e6 v=0
21960 On ch=1 n=c7 v=80
21960 On ch=1 n=g5 v=80
22080 On ch=1 n=g5 v=0
22080 On ch=1 n=c7 v=0
22080 On ch=1 n=e7 v=80
22080 On ch=1 n=c6 v=80
22200 On ch=1 n=c6 v=0
22200 On ch=1 n=e7 v=0
22200 On ch=1 n=c7 v=80
22200 On ch=1 n=g5 v=80
22320 On ch=1 n=g5 v=0
22320 On ch=1 n=c7 v=0
22320 On ch=1 n=e6 v=80
22320 On ch=1 n=c5 v=80
22440 On ch=1 n=c5 v=0
22440 On ch=1 n=e6 v=0
22440 On ch=1 n=e6 v=80
22440 On ch=1 n=c5 v=80
22560 On ch=1 n=c5 v=0
22560 On ch=1 n=e6 v=0
22560 On ch=1 n=c6 v=80
22560 On ch=1 n=g4 v=80
22680 On ch=1 n=g4 v=0
22680 On ch=1 n=c6 v=0
22680 On ch=1 n=e5 v=80
22680 On ch=1 n=c4 v=80
22800 On ch=1 n=c4 v=0
22800 On ch=1 n=e5 v=0
22800 On ch=1 n=e5 v=80
22800 On ch=1 n=c4 v=80
22920 On ch=1 n=c4 v=0
22920 On ch=1 n=e5 v=0
22920 On ch=1 n=c5 v=80
22920 On ch=1 n=g3 v=80
23020 Par ch=1 c=64 v=0
23040 On ch=1 n=g3 v=0
23040 On ch=1 n=c5 v=0
23040 On ch=1 n=g#4 v=83
23040 On ch=1 n=f3 v=82
23040 Par ch=1 c=64 v=127
23160 On ch=1 n=f3 v=0
23160 On ch=1 n=g#4 v=0
23160 On ch=1 n=c#5 v=84
23160 On ch=1 n=c#4 v=82
23280 On ch=1 n=c#4 v=0
23280 On ch=1 n=c#5 v=0
23280 On ch=1 n=g#5 v=85
23280 On ch=1 n=f4 v=84
23400 On ch=1 n=f4 v=0
23400 On ch=1 n=g#5 v=0
23400 On ch=1 n=g#5 v=86
23400 On ch=1 n=f4 v=85
23520 On ch=1 n=f4 v=0
23520 On ch=1 n=g#5 v=0
23520 On ch=1 n=c#5 v=88
23520 On ch=1 n=c#6 v=88
23640 On ch=1 n=c#6 v=0
23640 On ch=1 n=c#5 v=0
23640 On ch=1 n=f5 v=88
23640 On ch=1 n=g#6 v=88
23760 On ch=1 n=g#6 v=0
23760 On ch=1 n=f5 v=0
23760 On ch=1 n=f5 v=90
23760 On ch=1 n=g#6 v=90
23880 On ch=1 n=g#6 v=0
23880 On ch=1 n=f5 v=0
23880 On ch=1 n=c#6 v=91
23880 On ch=1 n=c#7 v=91
24000 On ch=1 n=c#7 v=0
24000 On ch=1 n=c#6 v=0
24000 On ch=1 n=f6 v=92
24000 On ch=1 n=g#7 v=92
24120 On ch=1 n=g#7 v=0
24120 On ch=1 n=f6 v=0
24120 On ch=1 n=c#6 v=93
24120 On ch=1 n=c#7 v=93
24240 On ch=1 n=c#7 v=0
24240 On ch=1 n=c#6 v=0
24240 On ch=1 n=f5 v=94
24240 On ch=1 n=g#6 v=94
24360 On ch=1 n=g#6 v=0
24360 On ch=1 n=f5 v=0
24360 On ch=1 n=f5 v=95
24360 On ch=1 n=g#6 v=95
24480 On ch=1 n=g#6 v=0
24480 On ch=1 n=f5 v=0
24480 On ch=1 n=c#6 v=97
24480 On ch=1 n=c#5 v=96
24600 On ch=1 n=c#5 v=0
24600 On ch=1 n=c#6 v=0
24600 On ch=1 n=g#5 v=98
24600 On ch=1 n=f4 v=97
24720 On ch=1 n=f4 v=0
24720 On ch=1 n=g#5 v=0
24720 On ch=1 n=g#5 v=99
24720 On ch=1 n=f4 v=98
24840 On ch=1 n=f4 v=0
24840 On ch=1 n=g#5 v=0
24840 On ch=1 n=c#5 v=100
24840 On ch=1 n=c#4 v=99
24940 Par ch=1 c=64 v=0
24960 On ch=1 n=c#4 v=0
24960 On ch=1 n=c#5 v=0
24960 On ch=1 n=g4 v=101
24960 On ch=1 n=g3 v=101
24960 Par ch=1 c=64 v=127
25080 On ch=1 n=g3 v=0
25080 On ch=1 n=g4 v=0
25080 On ch=1 n=b4 v=102
25080 On ch=1 n=d4 v=101
25200 On ch=1 n=d4 v=0
25200 On ch=1 n=b4 v=0
25200 On ch=1 n=g5 v=104
25200 On ch=1 n=f4 v=103
25320 On ch=1 n=f4 v=0
25320 On ch=1 n=g5 v=0
25320 On ch=1 n=g5 v=104
25320 On ch=1 n=g4 v=104
25440 On ch=1 n=g4 v=0
25440 On ch=1 n=g5 v=0
25440 On ch=1 n=d5 v=106
25440 On ch=1 n=b5 v=106
25560 On ch=1 n=b5 v=0
25560 On ch=1 n=d5 v=0
25560 On ch=1 n=f5 v=107
25560 On ch=1 n=g6 v=107
25680 On ch=1 n=g6 v=0
25680 On ch=1 n=f5 v=0
25680 On ch=1 n=g5 v=108
25680 On ch=1 n=g6 v=108
25800 On ch=1 n=g6 v=0
25800 On ch=1 n=g5 v=0
25800 On ch=1 n=d6 v=109
25800 On ch=1 n=b6 v=109
25920 On ch=1 n=b6 v=0
25920 On ch=1 n=d6 v=0
25920 On ch=1 n=f6 v=110
25920 On ch=1 n=g7 v=110
26040 On ch=1 n=g7 v=0
26040 On ch=1 n=f6 v=0
26040 On ch=1 n=d6 v=111
26040 On ch=1 n=b6 v=111
26160 On ch=1 n=b6 v=0
26160 On ch=1 n=d6 v=0
26160 On ch=1 n=g5 v=113
26160 On ch=1 n=g6 v=113
26280 On ch=1 n=g6 v=0
26280 On ch=1 n=g5 v=0
26280 On ch=1 n=f5 v=114
26280 On ch=1 n=g6 v=114
26400 On ch=1 n=g6 v=0
26400 On ch=1 n=f5 v=0
26400 On ch=1 n=b5 v=115
26400 On ch=1 n=d5 v=115
26520 On ch=1 n=d5 v=0
26520 On ch=1 n=b5 v=0
26520 On ch=1 n=g5 v=116
26520 On ch=1 n=g4 v=116
26640 On ch=1 n=g4 v=0
26640 On ch=1 n=g5 v=0
26640 On ch=1 n=g5 v=117
26640 On ch=1 n=d4 v=117
26760 On ch=1 n=d4 v=0
26760 On ch=1 n=g5 v=0
26760 On ch=1 n=b4 v=118
26760 On ch=1 n=g3 v=118
26860 Par ch=1 c=64 v=0
26880 On ch=1 n=g3 v=0
26880 On ch=1 n=b4 v=0
26880 On ch=1 n=e4 v=120
26880 On ch=1 n=c3 v=120
26880 Par ch=1 c=64 v=127
27000 On ch=1 n=c3 v=0
27000 On ch=1 n=e4 v=0
27000 On ch=1 n=g4 v=120
27000 On ch=1 n=g3 v=120
27120 On ch=1 n=g3 v=0
27120 On ch=1 n=g4 v=0
27120 On ch=1 n=e5 v=120
27120 On ch=1 n=c4 v=120
27240 On ch=1 n=c4 v=0
27240 On ch=1 n=e5 v=0
27240 On ch=1 n=e5 v=120
27240 On ch=1 n=c4 v=120
27360 On ch=1 n=c4 v=0
27360 On ch=1 n=e5 v=0
27360 On ch=1 n=g5 v=120
27360 On ch=1 n=g4 v=120
27480 On ch=1 n=g4 v=0
27480 On ch=1 n=g5 v=0
27480 On ch=1 n=e6 v=120
27480 On ch=1 n=c5 v=120
27600 On ch=1 n=c5 v=0
27600 On ch=1 n=e6 v=0
27600 On ch=1 n=e6 v=120
27600 On ch=1 n=c5 v=120
27720 On ch=1 n=c5 v=0
27720 On ch=1 n=e6 v=0
27720 On ch=1 n=g6 v=120
27720 On ch=1 n=g5 v=120
27840 On ch=1 n=g5 v=0
27840 On ch=1 n=g6 v=0
27840 On ch=1 n=e7 v=120
27840 On ch=1 n=c6 v=110
27960 On ch=1 n=c6 v=0
27960 On ch=1 n=e7 v=0
27960 On ch=1 n=e7 v=120
27960 On ch=1 n=c6 v=110
28080 On ch=1 n=c6 v=0
28080 On ch=1 n=e7 v=0
28080 On ch=1 n=g7 v=120
28080 On ch=1 n=g6 v=110
28200 On ch=1 n=g6 v=0
28200 On ch=1 n=g7 v=0
28200 On ch=1 n=e8 v=120
28200 On ch=1 n=c7 v=110
28320 On ch=1 n=c7 v=0
28320 On ch=1 n=e8 v=0
28320 On ch=1 n=g7 v=120
28320 On ch=1 n=g6 v=110
28440 On ch=1 n=g6 v=0
28440 On ch=1 n=g7 v=0
28440 On ch=1 n=e7 v=120
28440 On ch=1 n=c6 v=110
28560 On ch=1 n=c6 v=0
28560 On ch=1 n=e7 v=0
28560 On ch=1 n=e7 v=120
28560 On ch=1 n=c6 v=110
28680 On ch=1 n=c6 v=0
28680 On ch=1 n=e7 v=0
28680 On ch=1 n=g6 v=120
28680 On ch=1 n=g5 v=110
28800 On ch=1 n=g5 v=0
28800 On ch=1 n=g6 v=0
28800 On ch=1 n=e6 v=120
28800 On ch=1 n=c5 v=120
28920 On ch=1 n=c5 v=0
28920 On ch=1 n=e6 v=0
28920 On ch=1 n=e6 v=120
28920 On ch=1 n=c5 v=120
29040 On ch=1 n=c5 v=0
29040 On ch=1 n=e6 v=0
29040 On ch=1 n=g5 v=120
29040 On ch=1 n=g4 v=120
29160 On ch=1 n=g4 v=0
29160 On ch=1 n=g5 v=0
29160 On ch=1 n=e5 v=120
29160 On ch=1 n=c4 v=120
29280 On ch=1 n=c4 v=0
29280 On ch=1 n=e5 v=0
29280 On ch=1 n=e5 v=120
29280 On ch=1 n=c4 v=120
29400 On ch=1 n=c4 v=0
29400 On ch=1 n=e5 v=0
29400 On ch=1 n=g3 v=120
29400 On ch=1 n=g4 v=120
29520 On ch=1 n=g4 v=0
29520 On ch=1 n=g3 v=0
29520 On ch=1 n=c3 v=120
29520 On ch=1 n=e4 v=120
29640 On ch=1 n=e4 v=0
29640 On ch=1 n=c3 v=0
29640 On ch=1 n=g3 v=120
29640 On ch=1 n=g4 v=120
29740 Par ch=1 c=64 v=0
29760 On ch=1 n=g4 v=0
29760 On ch=1 n=g3 v=0
29760 On ch=1 n=d4 v=120
29760 Par ch=1 c=64 v=127
29880 On ch=1 n=d4 v=0
29880 On ch=1 n=g3 v=120
29880 On ch=1 n=g4 v=120
30000 On ch=1 n=g4 v=0
30000 On ch=1 n=g3 v=0
30000 On ch=1 n=d5 v=120
30000 On ch=1 n=c3 v=120
30120 On ch=1 n=c3 v=0
30120 On ch=1 n=d5 v=0
30120 On ch=1 n=g3 v=120
30120 On ch=1 n=g4 v=120
30240 On ch=1 n=g4 v=0
30240 On ch=1 n=g3 v=0
30240 On ch=1 n=f4 v=120
30360 On ch=1 n=f4 v=0
30360 On ch=1 n=g3 v=120
30360 On ch=1 n=g4 v=120
30480 On ch=1 n=g4 v=0
30480 On ch=1 n=g3 v=0
30480 On ch=1 n=f5 v=120
30480 On ch=1 n=c3 v=120
30600 On ch=1 n=c3 v=0
30600 On ch=1 n=f5 v=0
30600 On ch=1 n=g3 v=120
30600 On ch=1 n=g4 v=120
30700 Par ch=1 c=64 v=0
30720 On ch=1 n=g4 v=0
30720 On ch=1 n=g3 v=0
30720 On ch=1 n=c3 v=120
30720 On ch=1 n=e4 v=120
30720 Par ch=1 c=64 v=0
30740 Par ch=1 c=64 v=127
30840 On ch=1 n=e4 v=0
30840 On ch=1 n=c3 v=0
30840 On ch=1 n=g3 v=120
30840 On ch=1 n=g4 v=120
30960 On ch=1 n=g4 v=0
30960 On ch=1 n=g3 v=0
30960 On ch=1 n=e5 v=120
30960 On ch=1 n=c4 v=120
31080 On ch=1 n=c4 v=0
31080 On ch=1 n=e5 v=0
31080 On ch=1 n=e5 v=120
31080 On ch=1 n=c4 v=120
31200 On ch=1 n=c4 v=0
31200 On ch=1 n=e5 v=0
31200 On ch=1 n=g5 v=120
31200 On ch=1 n=g4 v=120
31320 On ch=1 n=g4 v=0
31320 On ch=1 n=g5 v=0
31320 On ch=1 n=e6 v=120
31320 On ch=1 n=c5 v=120
31440 On ch=1 n=c5 v=0
31440 On ch=1 n=e6 v=0
31440 On ch=1 n=e6 v=120
31440 On ch=1 n=c5 v=120
31560 On ch=1 n=c5 v=0
31560 On ch=1 n=e6 v=0
31560 On ch=1 n=g5 v=120
31560 On ch=1 n=g6 v=120
31680 On ch=1 n=g6 v=0
31680 On ch=1 n=g5 v=0
31680 On ch=1 n=e7 v=120
31680 On ch=1 n=c6 v=110
31800 On ch=1 n=c6 v=0
31800 On ch=1 n=e7 v=0
31800 On ch=1 n=e7 v=120
31800 On ch=1 n=c6 v=110
31920 On ch=1 n=c6 v=0
31920 On ch=1 n=e7 v=0
31920 On ch=1 n=g7 v=120
31920 On ch=1 n=g6 v=110
32040 On ch=1 n=g6 v=0
32040 On ch=1 n=g7 v=0
32040 On ch=1 n=e8 v=120
32040 On ch=1 n=c7 v=110
32160 On ch=1 n=c7 v=0
32160 On ch=1 n=e8 v=0
32160 On ch=1 n=g7 v=120
32160 On ch=1 n=g6 v=110
32280 On ch=1 n=g6 v=0
32280 On ch=1 n=g7 v=0
32280 On ch=1 n=e7 v=120
32280 On ch=1 n=c6 v=110
32400 On ch=1 n=c6 v=0
32400 On ch=1 n=e7 v=0
32400 On ch=1 n=e7 v=120
32400 On ch=1 n=c6 v=110
32520 On ch=1 n=c6 v=0
32520 On ch=1 n=e7 v=0
32520 On ch=1 n=g6 v=120
32520 On ch=1 n=g5 v=110
32640 On ch=1 n=g5 v=0
32640 On ch=1 n=g6 v=0
32640 On ch=1 n=e6 v=120
32640 On ch=1 n=c5 v=120
32760 On ch=1 n=c5 v=0
32760 On ch=1 n=e6 v=0
32760 On ch=1 n=e6 v=120
32760 On ch=1 n=c5 v=120
32880 On ch=1 n=c5 v=0
32880 On ch=1 n=e6 v=0
32880 On ch=1 n=g5 v=120
32880 On ch=1 n=g4 v=120
33000 On ch=1 n=g4 v=0
33000 On ch=1 n=g5 v=0
33000 On ch=1 n=e5 v=120
33000 On ch=1 n=c4 v=120
33120 On ch=1 n=c4 v=0
33120 On ch=1 n=e5 v=0
33120 On ch=1 n=e5 v=120
33120 On ch=1 n=c4 v=120
33240 On ch=1 n=c4 v=0
33240 On ch=1 n=e5 v=0
33240 On ch=1 n=g4 v=120
33240 On ch=1 n=g3 v=120
33360 On ch=1 n=g3 v=0
33360 On ch=1 n=g4 v=0
33360 On ch=1 n=e4 v=120
33360 On ch=1 n=c3 v=120
33480 On ch=1 n=c3 v=0
33480 On ch=1 n=e4 v=0
33480 On ch=1 n=g4 v=120
33480 On ch=1 n=g3 v=120
33580 Par ch=1 c=64 v=0
33600 On ch=1 n=g3 v=0
33600 On ch=1 n=g4 v=0
33600 On ch=1 n=d4 v=120
33600 On ch=1 n=b3 v=120
33600 Par ch=1 c=64 v=127
33720 On ch=1 n=b3 v=0
33720 On ch=1 n=d4 v=0
33720 On ch=1 n=g4 v=120
33720 On ch=1 n=g3 v=120
33840 On ch=1 n=g3 v=0
33840 On ch=1 n=g4 v=0
33840 On ch=1 n=d5 v=127
33840 On ch=1 n=c3 v=120
33960 On ch=1 n=c3 v=0
33960 On ch=1 n=d5 v=0
33960 On ch=1 n=g4 v=120
33960 On ch=1 n=g3 v=120
34060 Par ch=1 c=64 v=0
34080 On ch=1 n=g3 v=0
34080 On ch=1 n=g4 v=0
34080 On ch=1 n=c4 v=120
34080 On ch=1 n=a3 v=120
34080 Par ch=1 c=64 v=127
34200 On ch=1 n=a3 v=0
34200 On ch=1 n=c4 v=0
34200 On ch=1 n=g4 v=120
34200 On ch=1 n=g3 v=120
34320 On ch=1 n=g3 v=0
34320 On ch=1 n=g4 v=0
34320 On ch=1 n=c5 v=127
34320 On ch=1 n=c3 v=120
34440 On ch=1 n=c3 v=0
34440 On ch=1 n=c5 v=0
34440 On ch=1 n=g4 v=120
34440 On ch=1 n=g3 v=120
34560 On ch=1 n=g3 v=0
34560 On ch=1 n=g4 v=0
34560 On ch=1 n=d4 v=120
34560 On ch=1 n=c3 v=120
34560 Par ch=1 c=64 v=0
34580 Par ch=1 c=64 v=127
34680 On ch=1 n=c3 v=0
34680 On ch=1 n=d4 v=0
34680 On ch=1 n=g4 v=120
34680 On ch=1 n=g3 v=120
34800 On ch=1 n=g3 v=0
34800 On ch=1 n=g4 v=0
34800 On ch=1 n=d5 v=127
34800 On ch=1 n=b3 v=120
34920 On ch=1 n=b3 v=0
34920 On ch=1 n=d5 v=0
34920 On ch=1 n=d5 v=120
34920 On ch=1 n=c4 v=120
35040 On ch=1 n=c4 v=0
35040 On ch=1 n=d5 v=0
35040 On ch=1 n=g5 v=120
35040 On ch=1 n=g4 v=120
35160 On ch=1 n=g4 v=0
35160 On ch=1 n=g5 v=0
35160 On ch=1 n=d6 v=120
35160 On ch=1 n=b4 v=120
35280 On ch=1 n=b4 v=0
35280 On ch=1 n=d6 v=0
35280 On ch=1 n=d6 v=120
35280 On ch=1 n=c5 v=120
35400 On ch=1 n=c5 v=0
35400 On ch=1 n=d6 v=0
35400 On ch=1 n=g6 v=120
35400 On ch=1 n=g5 v=120
35520 On ch=1 n=g5 v=0
35520 On ch=1 n=g6 v=0
35520 On ch=1 n=d7 v=120
35520 On ch=1 n=b5 v=110
35640 On ch=1 n=b5 v=0
35640 On ch=1 n=d7 v=0
35640 On ch=1 n=d7 v=120
35640 On ch=1 n=c6 v=110
35760 On ch=1 n=c6 v=0
35760 On ch=1 n=d7 v=0
35760 On ch=1 n=g7 v=120
35760 On ch=1 n=g6 v=110
35880 On ch=1 n=g6 v=0
35880 On ch=1 n=g7 v=0
35880 On ch=1 n=d8 v=120
35880 On ch=1 n=b6 v=110
36000 On ch=1 n=b6 v=0
36000 On ch=1 n=d8 v=0
36000 On ch=1 n=g7 v=120
36000 On ch=1 n=g6 v=110
36120 On ch=1 n=g6 v=0
36120 On ch=1 n=g7 v=0
36120 On ch=1 n=d7 v=120
36120 On ch=1 n=c6 v=110
36240 On ch=1 n=c6 v=0
36240 On ch=1 n=d7 v=0
36240 On ch=1 n=d7 v=120
36240 On ch=1 n=b5 v=110
36360 On ch=1 n=b5 v=0
36360 On ch=1 n=d7 v=0
36360 On ch=1 n=g6 v=120
36360 On ch=1 n=g5 v=110
36480 On ch=1 n=g5 v=0
36480 On ch=1 n=g6 v=0
36480 On ch=1 n=d6 v=120
36480 On ch=1 n=c5 v=120
36600 On ch=1 n=c5 v=0
36600 On ch=1 n=d6 v=0
36600 On ch=1 n=d6 v=120
36600 On ch=1 n=b4 v=120
36720 On ch=1 n=b4 v=0
36720 On ch=1 n=d6 v=0
36720 On ch=1 n=g5 v=120
36720 On ch=1 n=b4 v=120
36840 On ch=1 n=b4 v=0
36840 On ch=1 n=g5 v=0
36840 On ch=1 n=d5 v=120
36840 On ch=1 n=c4 v=120
36960 On ch=1 n=c4 v=0
36960 On ch=1 n=d5 v=0
36960 On ch=1 n=d5 v=120
36960 On ch=1 n=b3 v=120
37080 On ch=1 n=b3 v=0
37080 On ch=1 n=d5 v=0
37080 On ch=1 n=g4 v=120
37080 On ch=1 n=g3 v=120
37200 On ch=1 n=g3 v=0
37200 On ch=1 n=g4 v=0
37200 On ch=1 n=d4 v=120
37200 On ch=1 n=c3 v=120
37320 On ch=1 n=c3 v=0
37320 On ch=1 n=d4 v=0
37320 On ch=1 n=g4 v=120
37320 On ch=1 n=g3 v=120
37440 On ch=1 n=g3 v=0
37440 On ch=1 n=g4 v=0
37440 On ch=1 n=c4 v=120
37440 On ch=1 n=a3 v=120
37440 Par ch=1 c=64 v=0
37460 Par ch=1 c=64 v=127
37560 On ch=1 n=a3 v=0
37560 On ch=1 n=c4 v=0
37560 On ch=1 n=f4 v=120
37560 On ch=1 n=f3 v=120
37680 On ch=1 n=f3 v=0
37680 On ch=1 n=f4 v=0
37680 On ch=1 n=c5 v=127
37680 On ch=1 n=c3 v=120
37800 On ch=1 n=c3 v=0
37800 On ch=1 n=c5 v=0
37800 On ch=1 n=f4 v=120
37800 On ch=1 n=f3 v=120
37920 On ch=1 n=f3 v=0
37920 On ch=1 n=f4 v=0
37920 On ch=1 n=c4 v=120
37920 On ch=1 n=a3 v=120
38040 On ch=1 n=a3 v=0
38040 On ch=1 n=c4 v=0
38040 On ch=1 n=f4 v=120
38040 On ch=1 n=f3 v=120
38160 On ch=1 n=f3 v=0
38160 On ch=1 n=f4 v=0
38160 On ch=1 n=a4 v=127
38160 On ch=1 n=c3 v=120
38280 On ch=1 n=c3 v=0
38280 On ch=1 n=a4 v=0
38280 On ch=1 n=f4 v=120
38280 On ch=1 n=f3 v=120
38400 On ch=1 n=f3 v=0
38400 On ch=1 n=f4 v=0
38400 On ch=1 n=c4 v=120
38400 On ch=1 n=c3 v=120
38400 Par ch=1 c=64 v=0
38400 Par ch=1 c=64 v=127
38520 On ch=1 n=c3 v=0
38520 On ch=1 n=c4 v=0
38520 On ch=1 n=f4 v=120
38520 On ch=1 n=g#3 v=120
38640 On ch=1 n=g#3 v=0
38640 On ch=1 n=f4 v=0
38640 On ch=1 n=c5 v=127
38640 On ch=1 n=c4 v=120
38760 On ch=1 n=c4 v=0
38760 On ch=1 n=c5 v=0
38760 On ch=1 n=c5 v=120
38760 On ch=1 n=c4 v=120
38880 On ch=1 n=c4 v=0
38880 On ch=1 n=c5 v=0
38880 On ch=1 n=f5 v=112
38880 On ch=1 n=g#4 v=120
39000 On ch=1 n=g#4 v=0
39000 On ch=1 n=f5 v=0
39000 On ch=1 n=c6 v=111
39000 On ch=1 n=c5 v=120
39120 On ch=1 n=c5 v=0
39120 On ch=1 n=c6 v=0
39120 On ch=1 n=c6 v=110
39120 On ch=1 n=c5 v=120
39240 On ch=1 n=c5 v=0
39240 On ch=1 n=c6 v=0
39240 On ch=1 n=g#5 v=110
39240 On ch=1 n=f6 v=110
39360 On ch=1 n=f6 v=0
39360 On ch=1 n=g#5 v=0
39360 On ch=1 n=c6 v=109
39360 On ch=1 n=c7 v=109
39480 On ch=1 n=c7 v=0
39480 On ch=1 n=c6 v=0
39480 On ch=1 n=g#5 v=108
39480 On ch=1 n=f6 v=108
39600 On ch=1 n=f6 v=0
39600 On ch=1 n=g#5 v=0
39600 On ch=1 n=c5 v=107
39600 On ch=1 n=c6 v=107
39720 On ch=1 n=c6 v=0
39720 On ch=1 n=c5 v=0
39720 On ch=1 n=c5 v=106
39720 On ch=1 n=c6 v=106
39840 On ch=1 n=c6 v=0
39840 On ch=1 n=c5 v=0
39840 On ch=1 n=f5 v=105
39840 On ch=1 n=g#4 v=120
39960 On ch=1 n=g#4 v=0
39960 On ch=1 n=f5 v=0
39960 On ch=1 n=c5 v=104
39960 On ch=1 n=c4 v=120
40080 On ch=1 n=c4 v=0
40080 On ch=1 n=c5 v=0
40080 On ch=1 n=c5 v=103
40080 On ch=1 n=c4 v=118
40200 On ch=1 n=c4 v=0
40200 On ch=1 n=c5 v=0
40200 On ch=1 n=f4 v=118
40200 On ch=1 n=g#3 v=118
40300 Par ch=1 c=64 v=0
40320 On ch=1 n=g#3 v=0
40320 On ch=1 n=f4 v=0
40320 On ch=1 n=c4 v=116
40320 On ch=1 n=c3 v=116
40320 Par ch=1 c=64 v=127
40440 On ch=1 n=c3 v=0
40440 On ch=1 n=c4 v=0
40440 On ch=1 n=e4 v=116
40440 On ch=1 n=g3 v=116
40560 On ch=1 n=g3 v=0
40560 On ch=1 n=e4 v=0
40560 On ch=1 n=c5 v=114
40560 On ch=1 n=c4 v=114
40680 On ch=1 n=c4 v=0
40680 On ch=1 n=c5 v=0
40680 On ch=1 n=c5 v=114
40680 On ch=1 n=c4 v=114
40800 On ch=1 n=c4 v=0
40800 On ch=1 n=c5 v=0
40800 On ch=1 n=e5 v=98
40800 On ch=1 n=g4 v=112
40920 On ch=1 n=g4 v=0
40920 On ch=1 n=e5 v=0
40920 On ch=1 n=c6 v=97
40920 On ch=1 n=c5 v=112
41040 On ch=1 n=c5 v=0
41040 On ch=1 n=c6 v=0
41040 On ch=1 n=c6 v=96
41040 On ch=1 n=c5 v=110
41160 On ch=1 n=c5 v=0
41160 On ch=1 n=c6 v=0
41160 On ch=1 n=g5 v=95
41160 On ch=1 n=e6 v=95
41280 On ch=1 n=e6 v=0
41280 On ch=1 n=g5 v=0
41280 On ch=1 n=c6 v=94
41280 On ch=1 n=c7 v=94
41400 On ch=1 n=c7 v=0
41400 On ch=1 n=c6 v=0
41400 On ch=1 n=g5 v=93
41400 On ch=1 n=e6 v=93
41520 On ch=1 n=e6 v=0
41520 On ch=1 n=g5 v=0
41520 On ch=1 n=c5 v=92
41520 On ch=1 n=c6 v=92
41640 On ch=1 n=c6 v=0
41640 On ch=1 n=c5 v=0
41640 On ch=1 n=c5 v=92
41640 On ch=1 n=c6 v=92
41760 On ch=1 n=c6 v=0
41760 On ch=1 n=c5 v=0
41760 On ch=1 n=e5 v=90
41760 On ch=1 n=g4 v=106
41880 On ch=1 n=g4 v=0
41880 On ch=1 n=e5 v=0
41880 On ch=1 n=c5 v=90
41880 On ch=1 n=c4 v=105
42000 On ch=1 n=c4 v=0
42000 On ch=1 n=c5 v=0
42000 On ch=1 n=c5 v=89
42000 On ch=1 n=c4 v=104
42120 On ch=1 n=c4 v=0
42120 On ch=1 n=c5 v=0
42120 On ch=1 n=e4 v=103
42120 On ch=1 n=g3 v=103
42220 Par ch=1 c=64 v=0
42240 On ch=1 n=g3 v=0
42240 On ch=1 n=e4 v=0
42240 On ch=1 n=c4 v=119
42240 On ch=1 n=g#2 v=119
42240 Par ch=1 c=64 v=127
42360 On ch=1 n=g#2 v=0
42360 On ch=1 n=c4 v=0
42360 On ch=1 n=d#4 v=119
42360 On ch=1 n=d#3 v=119
42480 On ch=1 n=d#3 v=0
42480 On ch=1 n=d#4 v=0
42480 On ch=1 n=c5 v=120
42480 On ch=1 n=g#3 v=120
42600 On ch=1 n=g#3 v=0
42600 On ch=1 n=c5 v=0
42600 On ch=1 n=c5 v=120
42600 On ch=1 n=g#3 v=120
42720 On ch=1 n=g#3 v=0
42720 On ch=1 n=c5 v=0
42720 On ch=1 n=d#5 v=120
42720 On ch=1 n=d#4 v=120
42840 On ch=1 n=d#4 v=0
42840 On ch=1 n=d#5 v=0
42840 On ch=1 n=c6 v=120
42840 On ch=1 n=g#4 v=120
42960 On ch=1 n=g#4 v=0
42960 On ch=1 n=c6 v=0
42960 On ch=1 n=c6 v=120
42960 On ch=1 n=g#4 v=120
43080 On ch=1 n=g#4 v=0
43080 On ch=1 n=c6 v=0
43080 On ch=1 n=d#6 v=120
43080 On ch=1 n=d#5 v=120
43200 On ch=1 n=d#5 v=0
43200 On ch=1 n=d#6 v=0
43200 On ch=1 n=c7 v=120
43200 On ch=1 n=g#5 v=116
43320 On ch=1 n=g#5 v=0
43320 On ch=1 n=c7 v=0
43320 On ch=1 n=c7 v=120
43320 On ch=1 n=g#5 v=116
43440 On ch=1 n=g#5 v=0
43440 On ch=1 n=c7 v=0
43440 On ch=1 n=d#7 v=120
43440 On ch=1 n=d#6 v=116
43560 On ch=1 n=d#6 v=0
43560 On ch=1 n=d#7 v=0
43560 On ch=1 n=c8 v=120
43560 On ch=1 n=g#6 v=116
43680 On ch=1 n=g#6 v=0
43680 On ch=1 n=c8 v=0
43680 On ch=1 n=d#7 v=120
43680 On ch=1 n=d#6 v=116
43800 On ch=1 n=d#6 v=0
43800 On ch=1 n=d#7 v=0
43800 On ch=1 n=c7 v=120
43800 On ch=1 n=g#5 v=116
43920 On ch=1 n=g#5 v=0
43920 On ch=1 n=c7 v=0
43920 On ch=1 n=c7 v=120
43920 On ch=1 n=g#5 v=116
44040 On ch=1 n=g#5 v=0
44040 On ch=1 n=c7 v=0
44040 On ch=1 n=d#6 v=120
44040 On ch=1 n=d#5 v=116
44160 On ch=1 n=d#5 v=0
44160 On ch=1 n=d#6 v=0
44160 On ch=1 n=c6 v=120
44160 On ch=1 n=g#4 v=120
44280 On ch=1 n=g#4 v=0
44280 On ch=1 n=c6 v=0
44280 On ch=1 n=c6 v=120
44280 On ch=1 n=g#4 v=120
44400 On ch=1 n=g#4 v=0
44400 On ch=1 n=c6 v=0
44400 On ch=1 n=d#5 v=120
44400 On ch=1 n=d#4 v=120
44520 On ch=1 n=d#4 v=0
44520 On ch=1 n=d#5 v=0
44520 On ch=1 n=c5 v=120
44520 On ch=1 n=g#3 v=120
44640 On ch=1 n=g#3 v=0
44640 On ch=1 n=c5 v=0
44640 On ch=1 n=c5 v=120
44640 On ch=1 n=g#3 v=120
44760 On ch=1 n=g#3 v=0
44760 On ch=1 n=c5 v=0
44760 On ch=1 n=d#4 v=120
44760 On ch=1 n=d#3 v=120
44880 On ch=1 n=d#3 v=0
44880 On ch=1 n=d#4 v=0
44880 On ch=1 n=c4 v=120
44880 On ch=1 n=g#2 v=120
45000 On ch=1 n=g#2 v=0
45000 On ch=1 n=c4 v=0
45000 On ch=1 n=d#4 v=120
45000 On ch=1 n=d#3 v=120
45100 Par ch=1 c=64 v=0
45120 On ch=1 n=d#3 v=0
45120 On ch=1 n=d#4 v=0
45120 On ch=1 n=a#3 v=120
45120 On ch=1 n=g3 v=120
45120 Par ch=1 c=64 v=127
45240 On ch=1 n=g3 v=0
45240 On ch=1 n=a#3 v=0
45240 On ch=1 n=d#4 v=120
45240 On ch=1 n=d#3 v=120
45360 On ch=1 n=d#3 v=0
45360 On ch=1 n=d#4 v=0
45360 On ch=1 n=a#4 v=127
45360 On ch=1 n=g#2 v=120
45480 On ch=1 n=g#2 v=0
45480 On ch=1 n=a#4 v=0
45480 On ch=1 n=d#4 v=120
45480 On ch=1 n=d#3 v=120
45600 On ch=1 n=d#3 v=0
45600 On ch=1 n=d#4 v=0
45600 On ch=1 n=c#4 v=120
45600 On ch=1 n=a#3 v=120
45720 On ch=1 n=a#3 v=0
45720 On ch=1 n=c#4 v=0
45720 On ch=1 n=d#4 v=120
45720 On ch=1 n=d#3 v=120
45840 On ch=1 n=d#3 v=0
45840 On ch=1 n=d#4 v=0
45840 On ch=1 n=c#5 v=127
45840 On ch=1 n=g#2 v=120
45960 On ch=1 n=g#2 v=0
45960 On ch=1 n=c#5 v=0
45960 On ch=1 n=d#4 v=120
45960 On ch=1 n=d#3 v=120
46060 Par ch=1 c=64 v=0
46080 On ch=1 n=d#3 v=0
46080 On ch=1 n=d#4 v=0
46080 On ch=1 n=c4 v=120
46080 On ch=1 n=g#2 v=120
46080 Par ch=1 c=64 v=0
46100 Par ch=1 c=64 v=127
46200 On ch=1 n=g#2 v=0
46200 On ch=1 n=c4 v=0
46200 On ch=1 n=d#4 v=120
46200 On ch=1 n=d#3 v=120
46320 On ch=1 n=d#3 v=0
46320 On ch=1 n=d#4 v=0
46320 On ch=1 n=c5 v=127
46320 On ch=1 n=g#3 v=120
46440 On ch=1 n=g#3 v=0
46440 On ch=1 n=c5 v=0
46440 On ch=1 n=c5 v=120
46440 On ch=1 n=g#3 v=120
46560 On ch=1 n=g#3 v=0
46560 On ch=1 n=c5 v=0
46560 On ch=1 n=d#5 v=120
46560 On ch=1 n=d#4 v=120
46680 On ch=1 n=d#4 v=0
46680 On ch=1 n=d#5 v=0
46680 On ch=1 n=c6 v=120
46680 On ch=1 n=g#4 v=120
46800 On ch=1 n=g#4 v=0
46800 On ch=1 n=c6 v=0
46800 On ch=1 n=c6 v=120
46800 On ch=1 n=g#4 v=120
46920 On ch=1 n=g#4 v=0
46920 On ch=1 n=c6 v=0
46920 On ch=1 n=d#6 v=120
46920 On ch=1 n=d#5 v=120
47040 On ch=1 n=d#5 v=0
47040 On ch=1 n=d#6 v=0
47040 On ch=1 n=c7 v=120
47040 On ch=1 n=g#5 v=116
47160 On ch=1 n=g#5 v=0
47160 On ch=1 n=c7 v=0
47160 On ch=1 n=c7 v=120
47160 On ch=1 n=g#5 v=116
47280 On ch=1 n=g#5 v=0
47280 On ch=1 n=c7 v=0
47280 On ch=1 n=d#7 v=120
47280 On ch=1 n=d#6 v=116
47400 On ch=1 n=d#6 v=0
47400 On ch=1 n=d#7 v=0
47400 On ch=1 n=c8 v=120
47400 On ch=1 n=g#6 v=116
47520 On ch=1 n=g#6 v=0
47520 On ch=1 n=c8 v=0
47520 On ch=1 n=d#7 v=120
47520 On ch=1 n=d#6 v=116
47640 On ch=1 n=d#6 v=0
47640 On ch=1 n=d#7 v=0
47640 On ch=1 n=c7 v=120
47640 On ch=1 n=g#5 v=116
47760 On ch=1 n=g#5 v=0
47760 On ch=1 n=c7 v=0
47760 On ch=1 n=c7 v=120
47760 On ch=1 n=g#5 v=116
47880 On ch=1 n=g#5 v=0
47880 On ch=1 n=c7 v=0
47880 On ch=1 n=d#6 v=120
47880 On ch=1 n=d#5 v=116
48000 On ch=1 n=d#5 v=0
48000 On ch=1 n=d#6 v=0
48000 On ch=1 n=c6 v=120
48000 On ch=1 n=g#4 v=120
48120 On ch=1 n=g#4 v=0
48120 On ch=1 n=c6 v=0
48120 On ch=1 n=c6 v=120
48120 On ch=1 n=g#4 v=120
48240 On ch=1 n=g#4 v=0
48240 On ch=1 n=c6 v=0
48240 On ch=1 n=d#5 v=120
48240 On ch=1 n=d#4 v=120
48360 On ch=1 n=d#4 v=0
48360 On ch=1 n=d#5 v=0
48360 On ch=1 n=c5 v=120
48360 On ch=1 n=g#3 v=120
48480 On ch=1 n=g#3 v=0
48480 On ch=1 n=c5 v=0
48480 On ch=1 n=c5 v=120
48480 On ch=1 n=g#3 v=120
48600 On ch=1 n=g#3 v=0
48600 On ch=1 n=c5 v=0
48600 On ch=1 n=d#4 v=120
48600 On ch=1 n=d#3 v=120
48720 On ch=1 n=d#3 v=0
48720 On ch=1 n=d#4 v=0
48720 On ch=1 n=c4 v=120
48720 On ch=1 n=g#2 v=120
48840 On ch=1 n=g#2 v=0
48840 On ch=1 n=c4 v=0
48840 On ch=1 n=d#4 v=120
48840 On ch=1 n=d#3 v=120
48940 Par ch=1 c=64 v=0
48960 On ch=1 n=d#3 v=0
48960 On ch=1 n=d#4 v=0
48960 On ch=1 n=a#3 v=120
48960 On ch=1 n=g3 v=120
48960 Par ch=1 c=64 v=127
49080 On ch=1 n=g3 v=0
49080 On ch=1 n=a#3 v=0
49080 On ch=1 n=d#4 v=120
49080 On ch=1 n=d#3 v=120
49200 On ch=1 n=d#3 v=0
49200 On ch=1 n=d#4 v=0
49200 On ch=1 n=a#4 v=127
49200 On ch=1 n=g#2 v=120
49320 On ch=1 n=g#2 v=0
49320 On ch=1 n=a#4 v=0
49320 On ch=1 n=d#4 v=120
49320 On ch=1 n=d#3 v=120
49420 Par ch=1 c=64 v=0
49440 On ch=1 n=d#3 v=0
49440 On ch=1 n=d#4 v=0
49440 On ch=1 n=g#3 v=120
49440 On ch=1 n=f3 v=120
49440 Par ch=1 c=64 v=127
49560 On ch=1 n=f3 v=0
49560 On ch=1 n=g#3 v=0
49560 On ch=1 n=d#4 v=120
49560 On ch=1 n=d#3 v=120
49680 On ch=1 n=d#3 v=0
49680 On ch=1 n=d#4 v=0
49680 On ch=1 n=g#4 v=127
49680 On ch=1 n=g#2 v=120
49800 On ch=1 n=g#2 v=0
49800 On ch=1 n=g#4 v=0
49800 On ch=1 n=d#4 v=120
49800 On ch=1 n=d#3 v=120
49900 Par ch=1 c=64 v=0
49920 On ch=1 n=d#3 v=0
49920 On ch=1 n=d#4 v=0
49920 On ch=1 n=a#3 v=120
49920 On ch=1 n=g#2 v=120
49920 Par ch=1 c=64 v=0
49920 Par ch=1 c=64 v=0
49920 Par ch=1 c=64 v=0
49920 Par ch=1 c=64 v=0
49920 Par ch=1 c=64 v=0
49920 Par ch=1 c=64 v=0
49940 Par ch=1 c=64 v=127
50040 On ch=1 n=g#2 v=0
50040 On ch=1 n=a#3 v=0
50040 On ch=1 n=d#4 v=120
50040 On ch=1 n=d#3 v=120
50160 On ch=1 n=d#3 v=0
50160 On ch=1 n=d#4 v=0
50160 On ch=1 n=a#4 v=127
50160 On ch=1 n=g3 v=120
50280 On ch=1 n=g3 v=0
50280 On ch=1 n=a#4 v=0
50280 On ch=1 n=a#4 v=120
50280 On ch=1 n=g#3 v=120
50400 On ch=1 n=g#3 v=0
50400 On ch=1 n=a#4 v=0
50400 On ch=1 n=d#5 v=120
50400 On ch=1 n=d#4 v=120
50520 On ch=1 n=d#4 v=0
50520 On ch=1 n=d#5 v=0
50520 On ch=1 n=a#5 v=120
50520 On ch=1 n=g4 v=120
50640 On ch=1 n=g4 v=0
50640 On ch=1 n=a#5 v=0
50640 On ch=1 n=a#5 v=120
50640 On ch=1 n=g#4 v=120
50760 On ch=1 n=g#4 v=0
50760 On ch=1 n=a#5 v=0
50760 On ch=1 n=d#6 v=120
50760 On ch=1 n=d#5 v=120
50880 On ch=1 n=d#5 v=0
50880 On ch=1 n=d#6 v=0
50880 On ch=1 n=a#6 v=120
50880 On ch=1 n=g5 v=117
51000 On ch=1 n=g5 v=0
51000 On ch=1 n=a#6 v=0
51000 On ch=1 n=a#6 v=120
51000 On ch=1 n=g#5 v=117
51120 On ch=1 n=g#5 v=0
51120 On ch=1 n=a#6 v=0
51120 On ch=1 n=d#7 v=120
51120 On ch=1 n=d#6 v=117
51240 On ch=1 n=d#6 v=0
51240 On ch=1 n=d#7 v=0
51240 On ch=1 n=a#7 v=120
51240 On ch=1 n=g6 v=117
51360 On ch=1 n=g6 v=0
51360 On ch=1 n=a#7 v=0
51360 On ch=1 n=d#7 v=120
51360 On ch=1 n=d#6 v=117
51480 On ch=1 n=d#6 v=0
51480 On ch=1 n=d#7 v=0
51480 On ch=1 n=a#6 v=120
51480 On ch=1 n=g#5 v=117
51600 On ch=1 n=g#5 v=0
51600 On ch=1 n=a#6 v=0
51600 On ch=1 n=a#6 v=120
51600 On ch=1 n=g5 v=117
51720 On ch=1 n=g5 v=0
51720 On ch=1 n=a#6 v=0
51720 On ch=1 n=d#6 v=120
51720 On ch=1 n=d#5 v=117
51840 On ch=1 n=d#5 v=0
51840 On ch=1 n=d#6 v=0
51840 On ch=1 n=a#5 v=120
51840 On ch=1 n=g#4 v=120
51960 On ch=1 n=g#4 v=0
51960 On ch=1 n=a#5 v=0
51960 On ch=1 n=a#5 v=120
51960 On ch=1 n=g4 v=120
52080 On ch=1 n=g4 v=0
52080 On ch=1 n=a#5 v=0
52080 On ch=1 n=d#5 v=120
52080 On ch=1 n=d#4 v=120
52200 On ch=1 n=d#4 v=0
52200 On ch=1 n=d#5 v=0
52200 On ch=1 n=a#4 v=120
52200 On ch=1 n=g#3 v=120
52320 On ch=1 n=g#3 v=0
52320 On ch=1 n=a#4 v=0
52320 On ch=1 n=a#4 v=120
52320 On ch=1 n=g3 v=120
52440 On ch=1 n=g3 v=0
52440 On ch=1 n=a#4 v=0
52440 On ch=1 n=d#4 v=120
52440 On ch=1 n=d#3 v=120
52560 On ch=1 n=d#3 v=0
52560 On ch=1 n=d#4 v=0
52560 On ch=1 n=a#3 v=120
52560 On ch=1 n=g#2 v=120
52680 On ch=1 n=g#2 v=0
52680 On ch=1 n=a#3 v=0
52680 On ch=1 n=d#4 v=120
52680 On ch=1 n=d#3 v=120
52800 On ch=1 n=d#3 v=0
52800 On ch=1 n=d#4 v=0
52800 On ch=1 n=g#3 v=120
52800 On ch=1 n=f3 v=120
52800 Par ch=1 c=64 v=0
52820 Par ch=1 c=64 v=127
52920 On ch=1 n=f3 v=0
52920 On ch=1 n=g#3 v=0
52920 On ch=1 n=c#4 v=120
52920 On ch=1 n=c#3 v=120
53040 On ch=1 n=c#3 v=0
53040 On ch=1 n=c#4 v=0
53040 On ch=1 n=g#4 v=127
53040 On ch=1 n=g#2 v=120
53160 On ch=1 n=g#2 v=0
53160 On ch=1 n=g#4 v=0
53160 On ch=1 n=c#4 v=120
53160 On ch=1 n=c#3 v=120
53280 On ch=1 n=c#3 v=0
53280 On ch=1 n=c#4 v=0
53280 On ch=1 n=g#3 v=120
53280 On ch=1 n=f3 v=120
53400 On ch=1 n=f3 v=0
53400 On ch=1 n=g#3 v=0
53400 On ch=1 n=c#4 v=120
53400 On ch=1 n=c#3 v=120
53520 On ch=1 n=c#3 v=0
53520 On ch=1 n=c#4 v=0
53520 On ch=1 n=f4 v=127
53520 On ch=1 n=g#2 v=120
53640 On ch=1 n=g#2 v=0
53640 On ch=1 n=f4 v=0
53640 On ch=1 n=c#4 v=120
53640 On ch=1 n=c#3 v=120
53760 On ch=1 n=c#3 v=0
53760 On ch=1 n=c#4 v=0
53760 On ch=1 n=g#3 v=120
53760 On ch=1 n=g#2 v=120
53760 Par ch=1 c=64 v=0
53760 Par ch=1 c=64 v=127
53880 On ch=1 n=g#2 v=0
53880 On ch=1 n=g#3 v=0
53880 On ch=1 n=c#4 v=120
53880 On ch=1 n=e3 v=120
54000 On ch=1 n=e3 v=0
54000 On ch=1 n=c#4 v=0
54000 On ch=1 n=g#4 v=127
54000 On ch=1 n=g#3 v=120
54120 On ch=1 n=g#3 v=0
54120 On ch=1 n=g#4 v=0
54120 On ch=1 n=g#4 v=120
54120 On ch=1 n=g#3 v=120
54240 On ch=1 n=g#3 v=0
54240 On ch=1 n=g#4 v=0
54240 On ch=1 n=c#5 v=120
54240 On ch=1 n=e4 v=120
54360 On ch=1 n=e4 v=0
54360 On ch=1 n=c#5 v=0
54360 On ch=1 n=g#5 v=120
54360 On ch=1 n=g#4 v=120
54480 On ch=1 n=g#4 v=0
54480 On ch=1 n=g#5 v=0
54480 On ch=1 n=g#5 v=120
54480 On ch=1 n=g#4 v=120
54600 On ch=1 n=g#4 v=0
54600 On ch=1 n=g#5 v=0
54600 On ch=1 n=e5 v=120
54600 On ch=1 n=c#6 v=120
54720 On ch=1 n=c#6 v=0
54720 On ch=1 n=e5 v=0
54720 On ch=1 n=g#5 v=120
54720 On ch=1 n=g#6 v=120
54840 On ch=1 n=g#6 v=0
54840 On ch=1 n=g#5 v=0
54840 On ch=1 n=e5 v=120
54840 On ch=1 n=c#6 v=120
54960 On ch=1 n=c#6 v=0
54960 On ch=1 n=e5 v=0
54960 On ch=1 n=g#5 v=120
54960 On ch=1 n=g#4 v=120
55080 On ch=1 n=g#4 v=0
55080 On ch=1 n=g#5 v=0
55080 On ch=1 n=g#5 v=120
55080 On ch=1 n=g#4 v=120
55200 On ch=1 n=g#4 v=0
55200 On ch=1 n=g#5 v=0
55200 On ch=1 n=c#5 v=120
55200 On ch=1 n=e4 v=120
55320 On ch=1 n=e4 v=0
55320 On ch=1 n=c#5 v=0
55320 On ch=1 n=g#4 v=120
55320 On ch=1 n=g#3 v=120
55440 On ch=1 n=g#3 v=0
55440 On ch=1 n=g#4 v=0
55440 On ch=1 n=g#4 v=120
55440 On ch=1 n=g#3 v=120
55560 On ch=1 n=g#3 v=0
55560 On ch=1 n=g#4 v=0
55560 On ch=1 n=c#4 v=120
55560 On ch=1 n=e3 v=120
55660 Par ch=1 c=64 v=0
55680 On ch=1 n=e3 v=0
55680 On ch=1 n=c#4 v=0
55680 On ch=1 n=g#3 v=120
55680 On ch=1 n=g#2 v=120
55680 Par ch=1 c=64 v=127
55800 On ch=1 n=g#2 v=0
55800 On ch=1 n=g#3 v=0
55800 On ch=1 n=c4 v=118
55800 On ch=1 n=d#3 v=118
55920 On ch=1 n=d#3 v=0
55920 On ch=1 n=c4 v=0
55920 On ch=1 n=g#4 v=116
55920 On ch=1 n=g#3 v=116
56040 On ch=1 n=g#3 v=0
56040 On ch=1 n=g#4 v=0
56040 On ch=1 n=g#4 v=114
56040 On ch=1 n=g#3 v=114
56160 On ch=1 n=g#3 v=0
56160 On ch=1 n=g#4 v=0
56160 On ch=1 n=c5 v=114
56160 On ch=1 n=d#4 v=112
56280 On ch=1 n=d#4 v=0
56280 On ch=1 n=c5 v=0
56280 On ch=1 n=g#5 v=113
56280 On ch=1 n=g#4 v=111
56400 On ch=1 n=g#4 v=0
56400 On ch=1 n=g#5 v=0
56400 On ch=1 n=c5 v=111
56400 On ch=1 n=d#4 v=108
56520 On ch=1 n=d#4 v=0
56520 On ch=1 n=c5 v=0
56520 On ch=1 n=g#4 v=109
56520 On ch=1 n=g#3 v=107
56620 Par ch=1 c=64 v=0
56640 On ch=1 n=g#3 v=0
56640 On ch=1 n=g#4 v=0
56640 On ch=1 n=f#3 v=104
56640 On ch=1 n=g#2 v=104
56640 Par ch=1 c=64 v=127
56760 On ch=1 n=g#2 v=0
56760 On ch=1 n=f#3 v=0
56760 On ch=1 n=c4 v=103
56760 On ch=1 n=d3 v=103
56880 On ch=1 n=d3 v=0
56880 On ch=1 n=c4 v=0
56880 On ch=1 n=f#4 v=101
56880 On ch=1 n=g#3 v=101
57000 On ch=1 n=g#3 v=0
57000 On ch=1 n=f#4 v=0
57000 On ch=1 n=f#4 v=99
57000 On ch=1 n=g#3 v=99
57120 On ch=1 n=g#3 v=0
57120 On ch=1 n=f#4 v=0
57120 On ch=1 n=c5 v=100
57120 On ch=1 n=d4 v=97
57240 On ch=1 n=d4 v=0
57240 On ch=1 n=c5 v=0
57240 On ch=1 n=f#5 v=98
57240 On ch=1 n=g#4 v=95
57360 On ch=1 n=g#4 v=0
57360 On ch=1 n=f#5 v=0
57360 On ch=1 n=c5 v=96
57360 On ch=1 n=d4 v=93
57480 On ch=1 n=d4 v=0
57480 On ch=1 n=c5 v=0
57480 On ch=1 n=f#4 v=92
57480 On ch=1 n=g#3 v=92
57580 Par ch=1 c=64 v=0
57600 On ch=1 n=g#3 v=0
57600 On ch=1 n=f#4 v=0
57600 On ch=1 n=g3 v=87
57600 On ch=1 n=g2 v=87
57600 Par ch=1 c=64 v=127
57720 On ch=1 n=g2 v=0
57720 On ch=1 n=g3 v=0
57720 On ch=1 n=b3 v=88
57720 On ch=1 n=d3 v=88
57840 On ch=1 n=d3 v=0
57840 On ch=1 n=b3 v=0
57840 On ch=1 n=g4 v=89
57840 On ch=1 n=g3 v=89
57960 On ch=1 n=g3 v=0
57960 On ch=1 n=g4 v=0
57960 On ch=1 n=g4 v=89
57960 On ch=1 n=g3 v=89
58080 On ch=1 n=g3 v=0
58080 On ch=1 n=g4 v=0
58080 On ch=1 n=b4 v=88
58080 On ch=1 n=d4 v=90
58200 On ch=1 n=d4 v=0
58200 On ch=1 n=b4 v=0
58200 On ch=1 n=g5 v=88
58200 On ch=1 n=g4 v=91
58320 On ch=1 n=g4 v=0
58320 On ch=1 n=g5 v=0
58320 On ch=1 n=g5 v=89
58320 On ch=1 n=g4 v=92
58440 On ch=1 n=g4 v=0
58440 On ch=1 n=g5 v=0
58440 On ch=1 n=b5 v=90
58440 On ch=1 n=d5 v=93
58560 On ch=1 n=d5 v=0
58560 On ch=1 n=b5 v=0
58560 On ch=1 n=g5 v=90
58560 On ch=1 n=g6 v=90
58680 On ch=1 n=g6 v=0
58680 On ch=1 n=g5 v=0
58680 On ch=1 n=b5 v=91
58680 On ch=1 n=d5 v=94
58800 On ch=1 n=d5 v=0
58800 On ch=1 n=b5 v=0
58800 On ch=1 n=g5 v=91
58800 On ch=1 n=g4 v=95
58920 On ch=1 n=g4 v=0
58920 On ch=1 n=g5 v=0
58920 On ch=1 n=g5 v=92
58920 On ch=1 n=g4 v=96
59040 On ch=1 n=g4 v=0
59040 On ch=1 n=g5 v=0
59040 On ch=1 n=b4 v=92
59040 On ch=1 n=d4 v=97
59160 On ch=1 n=d4 v=0
59160 On ch=1 n=b4 v=0
59160 On ch=1 n=g4 v=97
59160 On ch=1 n=g3 v=97
59280 On ch=1 n=g3 v=0
59280 On ch=1 n=g4 v=0
59280 On ch=1 n=g4 v=98
59280 On ch=1 n=g3 v=98
59400 On ch=1 n=g3 v=0
59400 On ch=1 n=g4 v=0
59400 On ch=1 n=b3 v=99
59400 On ch=1 n=d3 v=99
59500 Par ch=1 c=64 v=0
59520 On ch=1 n=d3 v=0
59520 On ch=1 n=b3 v=0
59520 On ch=1 n=g#3 v=100
59520 On ch=1 n=g2 v=100
59520 Par ch=1 c=64 v=127
59640 On ch=1 n=g2 v=0
59640 On ch=1 n=g#3 v=0
59640 On ch=1 n=c4 v=100
59640 On ch=1 n=d#3 v=100
59760 On ch=1 n=d#3 v=0
59760 On ch=1 n=c4 v=0
59760 On ch=1 n=g#4 v=101
59760 On ch=1 n=g3 v=101
59880 On ch=1 n=g3 v=0
59880 On ch=1 n=g#4 v=0
59880 On ch=1 n=g#4 v=102
59880 On ch=1 n=g3 v=102
60000 On ch=1 n=g3 v=0
60000 On ch=1 n=g#4 v=0
60000 On ch=1 n=c5 v=97
60000 On ch=1 n=d#4 v=103
60120 On ch=1 n=d#4 v=0
60120 On ch=1 n=c5 v=0
60120 On ch=1 n=g#5 v=97
60120 On ch=1 n=g4 v=104
60240 On ch=1 n=g4 v=0
60240 On ch=1 n=g#5 v=0
60240 On ch=1 n=g#5 v=98
60240 On ch=1 n=g4 v=105
60360 On ch=1 n=g4 v=0
60360 On ch=1 n=g#5 v=0
60360 On ch=1 n=d#5 v=98
60360 On ch=1 n=c6 v=98
60480 On ch=1 n=c6 v=0
60480 On ch=1 n=d#5 v=0
60480 On ch=1 n=g5 v=99
60480 On ch=1 n=g#6 v=99
60600 On ch=1 n=g#6 v=0
60600 On ch=1 n=g5 v=0
60600 On ch=1 n=d#5 v=100
60600 On ch=1 n=c6 v=100
60720 On ch=1 n=c6 v=0
60720 On ch=1 n=d#5 v=0
60720 On ch=1 n=g#5 v=100
60720 On ch=1 n=g4 v=108
60840 On ch=1 n=g4 v=0
60840 On ch=1 n=g#5 v=0
60840 On ch=1 n=g#5 v=101
60840 On ch=1 n=g4 v=108
60960 On ch=1 n=g4 v=0
60960 On ch=1 n=g#5 v=0
60960 On ch=1 n=c5 v=101
60960 On ch=1 n=d#4 v=109
61080 On ch=1 n=d#4 v=0
61080 On ch=1 n=c5 v=0
61080 On ch=1 n=g#4 v=110
61080 On ch=1 n=g3 v=110
61200 On ch=1 n=g3 v=0
61200 On ch=1 n=g#4 v=0
61200 On ch=1 n=g#4 v=111
61200 On ch=1 n=g3 v=111
61320 On ch=1 n=g3 v=0
61320 On ch=1 n=g#4 v=0
61320 On ch=1 n=c4 v=112
61320 On ch=1 n=d#3 v=112
61420 Par ch=1 c=64 v=0
61440 On ch=1 n=d#3 v=0
61440 On ch=1 n=c4 v=0
61440 On ch=1 n=c4 v=113
61440 On ch=1 n=g2 v=113
61440 Par ch=1 c=64 v=127
61560 On ch=1 n=g2 v=0
61560 On ch=1 n=c4 v=0
61560 On ch=1 n=f4 v=113
61560 On ch=1 n=d3 v=113
61680 On ch=1 n=d3 v=0
61680 On ch=1 n=f4 v=0
61680 On ch=1 n=c5 v=112
61680 On ch=1 n=g#3 v=112
61800 On ch=1 n=g#3 v=0
61800 On ch=1 n=c5 v=0
61800 On ch=1 n=c5 v=112
61800 On ch=1 n=g#3 v=112
61920 On ch=1 n=g#3 v=0
61920 On ch=1 n=c5 v=0
61920 On ch=1 n=f5 v=102
61920 On ch=1 n=d4 v=111
62040 On ch=1 n=d4 v=0
62040 On ch=1 n=f5 v=0
62040 On ch=1 n=c6 v=102
62040 On ch=1 n=g#4 v=110
62160 On ch=1 n=g#4 v=0
62160 On ch=1 n=c6 v=0
62160 On ch=1 n=c6 v=101
62160 On ch=1 n=g#4 v=109
62280 On ch=1 n=g#4 v=0
62280 On ch=1 n=c6 v=0
62280 On ch=1 n=d5 v=101
62280 On ch=1 n=f6 v=101
62400 On ch=1 n=f6 v=0
62400 On ch=1 n=d5 v=0
62400 On ch=1 n=g#5 v=100
62400 On ch=1 n=c7 v=100
62520 On ch=1 n=c7 v=0
62520 On ch=1 n=g#5 v=0
62520 On ch=1 n=d5 v=100
62520 On ch=1 n=f6 v=100
62640 On ch=1 n=f6 v=0
62640 On ch=1 n=d5 v=0
62640 On ch=1 n=c6 v=99
62640 On ch=1 n=g#4 v=106
62760 On ch=1 n=g#4 v=0
62760 On ch=1 n=c6 v=0
62760 On ch=1 n=c6 v=99
62760 On ch=1 n=g#4 v=105
62880 On ch=1 n=g#4 v=0
62880 On ch=1 n=c6 v=0
62880 On ch=1 n=f5 v=98
62880 On ch=1 n=d4 v=105
63000 On ch=1 n=d4 v=0
63000 On ch=1 n=f5 v=0
63000 On ch=1 n=c5 v=98
63000 On ch=1 n=g#3 v=104
63120 On ch=1 n=g#3 v=0
63120 On ch=1 n=c5 v=0
63120 On ch=1 n=c5 v=97
63120 On ch=1 n=g#3 v=103
63240 On ch=1 n=g#3 v=0
63240 On ch=1 n=c5 v=0
63240 On ch=1 n=f4 v=102
63240 On ch=1 n=d3 v=102
63340 Par ch=1 c=64 v=0
63360 On ch=1 n=d3 v=0
63360 On ch=1 n=f4 v=0
63360 On ch=1 n=b3 v=101
63360 On ch=1 n=g2 v=101
63360 Par ch=1 c=64 v=127
63480 On ch=1 n=g2 v=0
63480 On ch=1 n=b3 v=0
63480 On ch=1 n=f4 v=101
63480 On ch=1 n=d3 v=101
63600 On ch=1 n=d3 v=0
63600 On ch=1 n=f4 v=0
63600 On ch=1 n=b4 v=100
63600 On ch=1 n=g#3 v=100
63720 On ch=1 n=g#3 v=0
63720 On ch=1 n=b4 v=0
63720 On ch=1 n=b4 v=99
63720 On ch=1 n=g#3 v=99
63840 On ch=1 n=g#3 v=0
63840 On ch=1 n=b4 v=0
63840 On ch=1 n=f5 v=94
63840 On ch=1 n=d4 v=98
63960 On ch=1 n=d4 v=0
63960 On ch=1 n=f5 v=0
63960 On ch=1 n=b5 v=93
63960 On ch=1 n=g#4 v=98
64080 On ch=1 n=g#4 v=0
64080 On ch=1 n=b5 v=0
64080 On ch=1 n=b5 v=93
64080 On ch=1 n=g#4 v=97
64200 On ch=1 n=g#4 v=0
64200 On ch=1 n=b5 v=0
64200 On ch=1 n=f6 v=92
64200 On ch=1 n=d5 v=96
64320 On ch=1 n=d5 v=0
64320 On ch=1 n=f6 v=0
64320 On ch=1 n=g5 v=92
64320 On ch=1 n=b6 v=92
64440 On ch=1 n=b6 v=0
64440 On ch=1 n=g5 v=0
64440 On ch=1 n=f6 v=91
64440 On ch=1 n=d5 v=95
64560 On ch=1 n=d5 v=0
64560 On ch=1 n=f6 v=0
64560 On ch=1 n=b5 v=91
64560 On ch=1 n=g#4 v=94
64680 On ch=1 n=g#4 v=0
64680 On ch=1 n=b5 v=0
64680 On ch=1 n=b5 v=90
64680 On ch=1 n=g#4 v=93
64800 On ch=1 n=g#4 v=0
64800 On ch=1 n=b5 v=0
64800 On ch=1 n=f5 v=90
64800 On ch=1 n=d4 v=92
64920 On ch=1 n=d4 v=0
64920 On ch=1 n=f5 v=0
64920 On ch=1 n=b4 v=89
64920 On ch=1 n=g3 v=92
65040 On ch=1 n=g3 v=0
65040 On ch=1 n=b4 v=0
65040 On ch=1 n=b4 v=89
65040 On ch=1 n=g3 v=91
65160 On ch=1 n=g3 v=0
65160 On ch=1 n=b4 v=0
65160 On ch=1 n=f4 v=90
65160 On ch=1 n=d3 v=90
65280 On ch=1 n=d3 v=0
65280 On ch=1 n=f4 v=0
65280 On ch=1 n=b3 v=89
65280 On ch=1 n=g2 v=89
65400 On ch=1 n=g2 v=0
65400 On ch=1 n=b3 v=0
65400 On ch=1 n=f4 v=89
65400 On ch=1 n=d3 v=89
65520 On ch=1 n=d3 v=0
65520 On ch=1 n=f4 v=0
65520 On ch=1 n=b4 v=90
65520 On ch=1 n=g#3 v=90
65640 On ch=1 n=g#3 v=0
65640 On ch=1 n=b4 v=0
65640 On ch=1 n=b4 v=90
65640 On ch=1 n=g#3 v=90
65760 On ch=1 n=g#3 v=0
65760 On ch=1 n=b4 v=0
65760 On ch=1 n=f5 v=89
65760 On ch=1 n=d4 v=91
65880 On ch=1 n=d4 v=0
65880 On ch=1 n=f5 v=0
65880 On ch=1 n=b5 v=90
65880 On ch=1 n=g#4 v=91
66000 On ch=1 n=g#4 v=0
66000 On ch=1 n=b5 v=0
66000 On ch=1 n=b5 v=90
66000 On ch=1 n=g#4 v=92
66120 On ch=1 n=g#4 v=0
66120 On ch=1 n=b5 v=0
66120 On ch=1 n=f6 v=91
66120 On ch=1 n=d5 v=92
66240 On ch=1 n=d5 v=0
66240 On ch=1 n=f6 v=0
66240 On ch=1 n=g5 v=91
66240 On ch=1 n=b6 v=91
66360 On ch=1 n=b6 v=0
66360 On ch=1 n=g5 v=0
66360 On ch=1 n=f6 v=92
66360 On ch=1 n=d5 v=93
66480 On ch=1 n=d5 v=0
66480 On ch=1 n=f6 v=0
66480 On ch=1 n=b5 v=93
66480 On ch=1 n=g#4 v=94
66600 On ch=1 n=g#4 v=0
66600 On ch=1 n=b5 v=0
66600 On ch=1 n=b5 v=93
66600 On ch=1 n=g#4 v=94
66720 On ch=1 n=g#4 v=0
66720 On ch=1 n=b5 v=0
66720 On ch=1 n=f5 v=94
66720 On ch=1 n=d4 v=95
66840 On ch=1 n=d4 v=0
66840 On ch=1 n=f5 v=0
66840 On ch=1 n=b4 v=94
66840 On ch=1 n=g3 v=95
66960 On ch=1 n=g3 v=0
66960 On ch=1 n=b4 v=0
66960 On ch=1 n=b4 v=95
66960 On ch=1 n=g3 v=96
67080 On ch=1 n=g3 v=0
67080 On ch=1 n=b4 v=0
67080 On ch=1 n=f4 v=96
67080 On ch=1 n=d3 v=96
67180 Par ch=1 c=64 v=0
67200 On ch=1 n=d3 v=0
67200 On ch=1 n=f4 v=0
67200 On ch=1 n=c4 v=97
67200 On ch=1 n=g#2 v=97
67200 Par ch=1 c=64 v=127
67320 On ch=1 n=g#2 v=0
67320 On ch=1 n=c4 v=0
67320 On ch=1 n=f4 v=98
67320 On ch=1 n=f3 v=98
67440 On ch=1 n=f3 v=0
67440 On ch=1 n=f4 v=0
67440 On ch=1 n=c5 v=98
67440 On ch=1 n=g#3 v=98
67560 On ch=1 n=g#3 v=0
67560 On ch=1 n=c5 v=0
67560 On ch=1 n=c5 v=99
67560 On ch=1 n=g#3 v=99
67680 On ch=1 n=g#3 v=0
67680 On ch=1 n=c5 v=0
67680 On ch=1 n=f5 v=98
67680 On ch=1 n=f4 v=99
67800 On ch=1 n=f4 v=0
67800 On ch=1 n=f5 v=0
67800 On ch=1 n=c6 v=99
67800 On ch=1 n=g#4 v=100
67920 On ch=1 n=g#4 v=0
67920 On ch=1 n=c6 v=0
67920 On ch=1 n=c6 v=99
67920 On ch=1 n=g#4 v=100
68040 On ch=1 n=g#4 v=0
68040 On ch=1 n=c6 v=0
68040 On ch=1 n=f5 v=100
68040 On ch=1 n=f6 v=100
68160 On ch=1 n=f6 v=0
68160 On ch=1 n=f5 v=0
68160 On ch=1 n=g#5 v=100
68160 On ch=1 n=c7 v=100
68280 On ch=1 n=c7 v=0
68280 On ch=1 n=g#5 v=0
68280 On ch=1 n=f5 v=101
68280 On ch=1 n=f6 v=101
68400 On ch=1 n=f6 v=0
68400 On ch=1 n=f5 v=0
68400 On ch=1 n=c6 v=101
68400 On ch=1 n=g#4 v=102
68520 On ch=1 n=g#4 v=0
68520 On ch=1 n=c6 v=0
68520 On ch=1 n=c6 v=102
68520 On ch=1 n=g#4 v=103
68640 On ch=1 n=g#4 v=0
68640 On ch=1 n=c6 v=0
68640 On ch=1 n=f5 v=103
68640 On ch=1 n=f4 v=104
68760 On ch=1 n=f4 v=0
68760 On ch=1 n=f5 v=0
68760 On ch=1 n=c5 v=103
68760 On ch=1 n=g#3 v=104
68880 On ch=1 n=g#3 v=0
68880 On ch=1 n=c5 v=0
68880 On ch=1 n=c5 v=104
68880 On ch=1 n=g#3 v=105
69000 On ch=1 n=g#3 v=0
69000 On ch=1 n=c5 v=0
69000 On ch=1 n=f4 v=105
69000 On ch=1 n=f3 v=105
69100 Par ch=1 c=64 v=0
69120 On ch=1 n=f3 v=0
69120 On ch=1 n=f4 v=0
69120 On ch=1 n=d#4 v=107
69120 On ch=1 n=a2 v=107
69120 Par ch=1 c=64 v=127
69240 On ch=1 n=a2 v=0
69240 On ch=1 n=d#4 v=0
69240 On ch=1 n=f#3 v=107
69240 On ch=1 n=f#4 v=107
69360 On ch=1 n=f#4 v=0
69360 On ch=1 n=f#3 v=0
69360 On ch=1 n=d#5 v=104
69360 On ch=1 n=a3 v=106
69480 On ch=1 n=a3 v=0
69480 On ch=1 n=d#5 v=0
69480 On ch=1 n=d#5 v=104
69480 On ch=1 n=a3 v=105
69600 On ch=1 n=a3 v=0
69600 On ch=1 n=d#5 v=0
69600 On ch=1 n=f#5 v=103
69600 On ch=1 n=f#4 v=105
69720 On ch=1 n=f#4 v=0
69720 On ch=1 n=f#5 v=0
69720 On ch=1 n=d#6 v=102
69720 On ch=1 n=a4 v=104
69840 On ch=1 n=a4 v=0
69840 On ch=1 n=d#6 v=0
69840 On ch=1 n=d#6 v=102
69840 On ch=1 n=a4 v=103
69960 On ch=1 n=a4 v=0
69960 On ch=1 n=d#6 v=0
69960 On ch=1 n=f#5 v=101
69960 On ch=1 n=f#6 v=101
70080 On ch=1 n=f#6 v=0
70080 On ch=1 n=f#5 v=0
70080 On ch=1 n=a5 v=100
70080 On ch=1 n=d#7 v=100
70200 On ch=1 n=d#7 v=0
70200 On ch=1 n=a5 v=0
70200 On ch=1 n=f#5 v=100
70200 On ch=1 n=f#6 v=100
70320 On ch=1 n=f#6 v=0
70320 On ch=1 n=f#5 v=0
70320 On ch=1 n=d#6 v=99
70320 On ch=1 n=a4 v=101
70440 On ch=1 n=a4 v=0
70440 On ch=1 n=d#6 v=0
70440 On ch=1 n=d#6 v=98
70440 On ch=1 n=a4 v=100
70560 On ch=1 n=a4 v=0
70560 On ch=1 n=d#6 v=0
70560 On ch=1 n=f#5 v=97
70560 On ch=1 n=f#4 v=99
70680 On ch=1 n=f#4 v=0
70680 On ch=1 n=f#5 v=0
70680 On ch=1 n=d#5 v=97
70680 On ch=1 n=a3 v=99
70800 On ch=1 n=a3 v=0
70800 On ch=1 n=d#5 v=0
70800 On ch=1 n=d#5 v=96
70800 On ch=1 n=a3 v=98
70920 On ch=1 n=a3 v=0
70920 On ch=1 n=d#5 v=0
70920 On ch=1 n=f#3 v=97
70920 On ch=1 n=f#4 v=97
71020 Par ch=1 c=64 v=0
71040 On ch=1 n=f#4 v=0
71040 On ch=1 n=f#3 v=0
71040 On ch=1 n=d4 v=97
71040 On ch=1 n=a#2 v=97
71040 Par ch=1 c=64 v=127
71160 On ch=1 n=a#2 v=0
71160 On ch=1 n=d4 v=0
71160 On ch=1 n=g4 v=96
71160 On ch=1 n=g3 v=96
71280 On ch=1 n=g3 v=0
71280 On ch=1 n=g4 v=0
71280 On ch=1 n=d5 v=93
71280 On ch=1 n=a#3 v=95
71400 On ch=1 n=a#3 v=0
71400 On ch=1 n=d5 v=0
71400 On ch=1 n=d5 v=93
71400 On ch=1 n=a#3 v=95
71520 On ch=1 n=a#3 v=0
71520 On ch=1 n=d5 v=0
71520 On ch=1 n=g5 v=92
71520 On ch=1 n=g4 v=94
71640 On ch=1 n=g4 v=0
71640 On ch=1 n=g5 v=0
71640 On ch=1 n=d6 v=91
71640 On ch=1 n=a#4 v=93
71760 On ch=1 n=a#4 v=0
71760 On ch=1 n=d6 v=0
71760 On ch=1 n=d6 v=90
71760 On ch=1 n=a#4 v=93
71880 On ch=1 n=a#4 v=0
71880 On ch=1 n=d6 v=0
71880 On ch=1 n=g5 v=90
71880 On ch=1 n=g6 v=90
72000 On ch=1 n=g6 v=0
72000 On ch=1 n=g5 v=0
72000 On ch=1 n=a#5 v=89
72000 On ch=1 n=d7 v=89
72120 On ch=1 n=d7 v=0
72120 On ch=1 n=a#5 v=0
72120 On ch=1 n=g5 v=88
72120 On ch=1 n=g6 v=88
72240 On ch=1 n=g6 v=0
72240 On ch=1 n=g5 v=0
72240 On ch=1 n=d6 v=87
72240 On ch=1 n=a#4 v=90
72360 On ch=1 n=a#4 v=0
72360 On ch=1 n=d6 v=0
72360 On ch=1 n=d6 v=87
72360 On ch=1 n=a#4 v=89
72480 On ch=1 n=a#4 v=0
72480 On ch=1 n=d6 v=0
72480 On ch=1 n=g5 v=86
72480 On ch=1 n=g4 v=89
72600 On ch=1 n=g4 v=0
72600 On ch=1 n=g5 v=0
72600 On ch=1 n=d5 v=85
72600 On ch=1 n=a#3 v=88
72720 On ch=1 n=a#3 v=0
72720 On ch=1 n=d5 v=0
72720 On ch=1 n=d5 v=85
72720 On ch=1 n=a#3 v=87
72840 On ch=1 n=a#3 v=0
72840 On ch=1 n=d5 v=0
72840 On ch=1 n=g4 v=84
72840 On ch=1 n=g3 v=87
72940 Par ch=1 c=64 v=0
72960 On ch=1 n=g3 v=0
72960 On ch=1 n=g4 v=0
72960 On ch=1 n=d4 v=88
72960 On ch=1 n=b2 v=88
72960 Par ch=1 c=64 v=127
73080 On ch=1 n=b2 v=0
73080 On ch=1 n=d4 v=0
73080 On ch=1 n=g#4 v=88
73080 On ch=1 n=f3 v=88
73200 On ch=1 n=f3 v=0
73200 On ch=1 n=g#4 v=0
73200 On ch=1 n=d5 v=86
73200 On ch=1 n=b3 v=89
73320 On ch=1 n=b3 v=0
73320 On ch=1 n=d5 v=0
73320 On ch=1 n=d5 v=86
73320 On ch=1 n=b3 v=89
73440 On ch=1 n=b3 v=0
73440 On ch=1 n=d5 v=0
73440 On ch=1 n=g#5 v=87
73440 On ch=1 n=f4 v=90
73560 On ch=1 n=f4 v=0
73560 On ch=1 n=g#5 v=0
73560 On ch=1 n=d6 v=87
73560 On ch=1 n=b4 v=90
73680 On ch=1 n=b4 v=0
73680 On ch=1 n=d6 v=0
73680 On ch=1 n=d6 v=88
73680 On ch=1 n=b4 v=90
73800 On ch=1 n=b4 v=0
73800 On ch=1 n=d6 v=0
73800 On ch=1 n=f5 v=88
73800 On ch=1 n=g#6 v=88
73920 On ch=1 n=g#6 v=0
73920 On ch=1 n=f5 v=0
73920 On ch=1 n=b5 v=89
73920 On ch=1 n=d7 v=89
74040 On ch=1 n=d7 v=0
74040 On ch=1 n=b5 v=0
74040 On ch=1 n=f5 v=90
74040 On ch=1 n=g#6 v=90
74160 On ch=1 n=g#6 v=0
74160 On ch=1 n=f5 v=0
74160 On ch=1 n=d6 v=90
74160 On ch=1 n=b4 v=92
74280 On ch=1 n=b4 v=0
74280 On ch=1 n=d6 v=0
74280 On ch=1 n=d6 v=91
74280 On ch=1 n=b4 v=93
74400 On ch=1 n=b4 v=0
74400 On ch=1 n=d6 v=0
74400 On ch=1 n=g#5 v=91
74400 On ch=1 n=f4 v=93
74520 On ch=1 n=f4 v=0
74520 On ch=1 n=g#5 v=0
74520 On ch=1 n=d5 v=92
74520 On ch=1 n=b3 v=94
74640 On ch=1 n=b3 v=0
74640 On ch=1 n=d5 v=0
74640 On ch=1 n=d5 v=93
74640 On ch=1 n=b3 v=94
74760 On ch=1 n=b3 v=0
74760 On ch=1 n=d5 v=0
74760 On ch=1 n=g#4 v=93
74760 On ch=1 n=f3 v=94
74860 Par ch=1 c=64 v=0
74880 On ch=1 n=f3 v=0
74880 On ch=1 n=g#4 v=0
74880 On ch=1 n=d#4 v=95
74880 On ch=1 n=c3 v=95
74880 Par ch=1 c=64 v=127
75000 On ch=1 n=c3 v=0
75000 On ch=1 n=d#4 v=0
75000 On ch=1 n=g#4 v=95
75000 On ch=1 n=f3 v=95
75120 On ch=1 n=f3 v=0
75120 On ch=1 n=g#4 v=0
75120 On ch=1 n=d#5 v=95
75120 On ch=1 n=c4 v=96
75240 On ch=1 n=c4 v=0
75240 On ch=1 n=d#5 v=0
75240 On ch=1 n=d#5 v=95
75240 On ch=1 n=c4 v=96
75360 On ch=1 n=c4 v=0
75360 On ch=1 n=d#5 v=0
75360 On ch=1 n=g#5 v=96
75360 On ch=1 n=f4 v=97
75480 On ch=1 n=f4 v=0
75480 On ch=1 n=g#5 v=0
75480 On ch=1 n=d#6 v=96
75480 On ch=1 n=c5 v=97
75600 On ch=1 n=c5 v=0
75600 On ch=1 n=d#6 v=0
75600 On ch=1 n=d#6 v=97
75600 On ch=1 n=c5 v=98
75720 On ch=1 n=c5 v=0
75720 On ch=1 n=d#6 v=0
75720 On ch=1 n=f5 v=98
75720 On ch=1 n=g#6 v=98
75840 On ch=1 n=g#6 v=0
75840 On ch=1 n=f5 v=0
75840 On ch=1 n=c6 v=98
75840 On ch=1 n=d#7 v=98
75960 On ch=1 n=d#7 v=0
75960 On ch=1 n=c6 v=0
75960 On ch=1 n=f5 v=99
75960 On ch=1 n=g#6 v=99
76080 On ch=1 n=g#6 v=0
76080 On ch=1 n=f5 v=0
76080 On ch=1 n=d#6 v=99
76080 On ch=1 n=c5 v=100
76200 On ch=1 n=c5 v=0
76200 On ch=1 n=d#6 v=0
76200 On ch=1 n=d#6 v=100
76200 On ch=1 n=c5 v=100
76320 On ch=1 n=c5 v=0
76320 On ch=1 n=d#6 v=0
76320 On ch=1 n=g#5 v=101
76320 On ch=1 n=f4 v=101
76440 On ch=1 n=f4 v=0
76440 On ch=1 n=g#5 v=0
76440 On ch=1 n=d#5 v=101
76440 On ch=1 n=c4 v=101
76560 On ch=1 n=c4 v=0
76560 On ch=1 n=d#5 v=0
76560 On ch=1 n=d#5 v=102
76560 On ch=1 n=c4 v=101
76680 On ch=1 n=c4 v=0
76680 On ch=1 n=d#5 v=0
76680 On ch=1 n=g#4 v=102
76680 On ch=1 n=f3 v=102
76780 Par ch=1 c=64 v=0
76800 On ch=1 n=f3 v=0
76800 On ch=1 n=g#4 v=0
76800 On ch=1 n=g4 v=102
76800 On ch=1 n=d#3 v=102
76800 Par ch=1 c=64 v=127
76920 On ch=1 n=d#3 v=0
76920 On ch=1 n=g4 v=0
76920 On ch=1 n=c5 v=103
76920 On ch=1 n=g#3 v=103
77040 On ch=1 n=g#3 v=0
77040 On ch=1 n=c5 v=0
77040 On ch=1 n=g5 v=104
77040 On ch=1 n=d#4 v=103
77160 On ch=1 n=d#4 v=0
77160 On ch=1 n=g5 v=0
77160 On ch=1 n=g5 v=104
77160 On ch=1 n=d#4 v=104
77280 On ch=1 n=d#4 v=0
77280 On ch=1 n=g5 v=0
77280 On ch=1 n=c6 v=105
77280 On ch=1 n=g#4 v=104
77400 On ch=1 n=g#4 v=0
77400 On ch=1 n=c6 v=0
77400 On ch=1 n=g6 v=106
77400 On ch=1 n=d#5 v=106
77520 On ch=1 n=d#5 v=0
77520 On ch=1 n=g6 v=0
77520 On ch=1 n=g6 v=106
77520 On ch=1 n=d#5 v=106
77640 On ch=1 n=d#5 v=0
77640 On ch=1 n=g6 v=0
77640 On ch=1 n=c7 v=107
77640 On ch=1 n=g#5 v=107
77760 On ch=1 n=g#5 v=0
77760 On ch=1 n=c7 v=0
77760 On ch=1 n=d#6 v=107
77760 On ch=1 n=g7 v=107
77880 On ch=1 n=g7 v=0
77880 On ch=1 n=d#6 v=0
77880 On ch=1 n=c7 v=108
77880 On ch=1 n=g#5 v=108
78000 On ch=1 n=g#5 v=0
78000 On ch=1 n=c7 v=0
78000 On ch=1 n=g6 v=109
78000 On ch=1 n=d#5 v=109
78120 On ch=1 n=d#5 v=0
78120 On ch=1 n=g6 v=0
78120 On ch=1 n=g6 v=109
78120 On ch=1 n=d#5 v=109
78240 On ch=1 n=d#5 v=0
78240 On ch=1 n=g6 v=0
78240 On ch=1 n=c6 v=110
78240 On ch=1 n=g#4 v=108
78360 On ch=1 n=g#4 v=0
78360 On ch=1 n=c6 v=0
78360 On ch=1 n=g5 v=110
78360 On ch=1 n=d#4 v=108
78480 On ch=1 n=d#4 v=0
78480 On ch=1 n=g5 v=0
78480 On ch=1 n=g5 v=111
78480 On ch=1 n=d#4 v=109
78600 On ch=1 n=d#4 v=0
78600 On ch=1 n=g5 v=0
78600 On ch=1 n=c5 v=111
78600 On ch=1 n=g#3 v=109
78700 Par ch=1 c=64 v=0
78720 On ch=1 n=g#3 v=0
78720 On ch=1 n=c5 v=0
78720 On ch=1 n=f4 v=110
78720 On ch=1 n=d3 v=110
78720 Par ch=1 c=64 v=127
78840 On ch=1 n=d3 v=0
78840 On ch=1 n=f4 v=0
78840 On ch=1 n=c5 v=113
78840 On ch=1 n=g#3 v=110
78960 On ch=1 n=g#3 v=0
78960 On ch=1 n=c5 v=0
78960 On ch=1 n=f5 v=113
78960 On ch=1 n=d4 v=111
79080 On ch=1 n=d4 v=0
79080 On ch=1 n=f5 v=0
79080 On ch=1 n=f5 v=114
79080 On ch=1 n=d4 v=111
79200 On ch=1 n=d4 v=0
79200 On ch=1 n=f5 v=0
79200 On ch=1 n=c6 v=114
79200 On ch=1 n=g#4 v=112
79320 On ch=1 n=g#4 v=0
79320 On ch=1 n=c6 v=0
79320 On ch=1 n=f6 v=115
79320 On ch=1 n=d5 v=115
79440 On ch=1 n=d5 v=0
79440 On ch=1 n=f6 v=0
79440 On ch=1 n=f6 v=116
79440 On ch=1 n=d5 v=116
79560 On ch=1 n=d5 v=0
79560 On ch=1 n=f6 v=0
79560 On ch=1 n=c7 v=116
79560 On ch=1 n=g#5 v=116
79680 On ch=1 n=g#5 v=0
79680 On ch=1 n=c7 v=0
79680 On ch=1 n=d6 v=117
79680 On ch=1 n=f7 v=117
79800 On ch=1 n=f7 v=0
79800 On ch=1 n=d6 v=0
79800 On ch=1 n=b6 v=117
79800 On ch=1 n=g#5 v=117
79920 On ch=1 n=g#5 v=0
79920 On ch=1 n=b6 v=0
79920 On ch=1 n=f6 v=118
79920 On ch=1 n=d5 v=118
80040 On ch=1 n=d5 v=0
80040 On ch=1 n=f6 v=0
80040 On ch=1 n=f6 v=118
80040 On ch=1 n=d5 v=118
80160 On ch=1 n=d5 v=0
80160 On ch=1 n=f6 v=0
80160 On ch=1 n=b5 v=119
80160 On ch=1 n=g#4 v=115
80280 On ch=1 n=g#4 v=0
80280 On ch=1 n=b5 v=0
80280 On ch=1 n=f5 v=119
80280 On ch=1 n=d4 v=116
80400 On ch=1 n=d4 v=0
80400 On ch=1 n=f5 v=0
80400 On ch=1 n=f5 v=120
80400 On ch=1 n=d4 v=116
80520 On ch=1 n=d4 v=0
80520 On ch=1 n=f5 v=0
80520 On ch=1 n=b4 v=121
80520 On ch=1 n=g#3 v=117
80620 Par ch=1 c=64 v=0
80640 On ch=1 n=g#3 v=0
80640 On ch=1 n=b4 v=0
80640 On ch=1 n=g#4 v=121
80640 On ch=1 n=g3 v=117
80760 On ch=1 n=g3 v=0
80760 On ch=1 n=g#4 v=0
80760 On ch=1 n=b4 v=122
80760 On ch=1 n=d4 v=117
80760 Par ch=1 c=64 v=127
80880 On ch=1 n=d4 v=0
80880 On ch=1 n=b4 v=0
80880 On ch=1 n=g#5 v=122
80880 On ch=1 n=f4 v=118
81000 On ch=1 n=f4 v=0
81000 On ch=1 n=g#5 v=0
81000 On ch=1 n=g#5 v=122
81000 On ch=1 n=g4 v=118
81120 On ch=1 n=g4 v=0
81120 On ch=1 n=g#5 v=0
81120 On ch=1 n=b5 v=122
81120 On ch=1 n=d5 v=122
81240 On ch=1 n=d5 v=0
81240 On ch=1 n=b5 v=0
81240 On ch=1 n=g#6 v=122
81240 On ch=1 n=f5 v=122
81360 On ch=1 n=f5 v=0
81360 On ch=1 n=g#6 v=0
81360 On ch=1 n=g#6 v=122
81360 On ch=1 n=g5 v=122
81480 On ch=1 n=g5 v=0
81480 On ch=1 n=g#6 v=0
81480 On ch=1 n=b6 v=123
81480 On ch=1 n=d6 v=123
81600 On ch=1 n=d6 v=0
81600 On ch=1 n=b6 v=0
81600 On ch=1 n=f6 v=123
81600 On ch=1 n=g#7 v=123
81720 On ch=1 n=g#7 v=0
81720 On ch=1 n=f6 v=0
81720 On ch=1 n=b6 v=123
81720 On ch=1 n=d6 v=123
81840 On ch=1 n=d6 v=0
81840 On ch=1 n=b6 v=0
81840 On ch=1 n=g#6 v=123
81840 On ch=1 n=g5 v=123
81960 On ch=1 n=g5 v=0
81960 On ch=1 n=g#6 v=0
81960 On ch=1 n=g#6 v=123
81960 On ch=1 n=f5 v=123
82080 On ch=1 n=f5 v=0
82080 On ch=1 n=g#6 v=0
82080 On ch=1 n=b5 v=123
82080 On ch=1 n=d5 v=121
82200 On ch=1 n=d5 v=0
82200 On ch=1 n=b5 v=0
82200 On ch=1 n=g#5 v=123
82200 On ch=1 n=g4 v=121
82320 On ch=1 n=g4 v=0
82320 On ch=1 n=g#5 v=0
82320 On ch=1 n=g#5 v=124
82320 On ch=1 n=f4 v=121
82440 On ch=1 n=f4 v=0
82440 On ch=1 n=g#5 v=0
82440 On ch=1 n=b4 v=124
82440 On ch=1 n=d4 v=121
82540 Par ch=1 c=64 v=0
82560 On ch=1 n=d4 v=0
82560 On ch=1 n=b4 v=0
82560 On ch=1 n=g4 v=121
82560 On ch=1 n=g3 v=121
82620 Par ch=1 c=64 v=127
82680 On ch=1 n=g3 v=0
82680 On ch=1 n=g4 v=0
82680 On ch=1 n=b4 v=121
82680 On ch=1 n=d4 v=121
82800 On ch=1 n=d4 v=0
82800 On ch=1 n=b4 v=0
82800 On ch=1 n=g5 v=124
82800 On ch=1 n=f4 v=121
82920 On ch=1 n=f4 v=0
82920 On ch=1 n=g5 v=0
82920 On ch=1 n=g5 v=124
82920 On ch=1 n=g4 v=122
83040 On ch=1 n=g4 v=0
83040 On ch=1 n=g5 v=0
83040 On ch=1 n=b5 v=125
83040 On ch=1 n=d5 v=125
83160 On ch=1 n=d5 v=0
83160 On ch=1 n=b5 v=0
83160 On ch=1 n=g6 v=125
83160 On ch=1 n=f5 v=125
83280 On ch=1 n=f5 v=0
83280 On ch=1 n=g6 v=0
83280 On ch=1 n=g6 v=125
83280 On ch=1 n=g5 v=125
83400 On ch=1 n=g5 v=0
83400 On ch=1 n=g6 v=0
83400 On ch=1 n=b6 v=125
83400 On ch=1 n=d6 v=125
83520 On ch=1 n=d6 v=0
83520 On ch=1 n=b6 v=0
83520 On ch=1 n=f6 v=125
83520 On ch=1 n=g7 v=125
83640 On ch=1 n=g7 v=0
83640 On ch=1 n=f6 v=0
83640 On ch=1 n=b6 v=125
83640 On ch=1 n=d6 v=125
83760 On ch=1 n=d6 v=0
83760 On ch=1 n=b6 v=0
83760 On ch=1 n=g6 v=126
83760 On ch=1 n=g5 v=126
83880 On ch=1 n=g5 v=0
83880 On ch=1 n=g6 v=0
83880 On ch=1 n=g6 v=126
83880 On ch=1 n=f5 v=126
84000 On ch=1 n=f5 v=0
84000 On ch=1 n=g6 v=0
84000 On ch=1 n=b5 v=126
84000 On ch=1 n=d5 v=126
84120 On ch=1 n=d5 v=0
84120 On ch=1 n=b5 v=0
84120 On ch=1 n=g5 v=126
84120 On ch=1 n=g4 v=123
84240 On ch=1 n=g4 v=0
84240 On ch=1 n=g5 v=0
84240 On ch=1 n=g5 v=126
84240 On ch=1 n=f4 v=123
84360 On ch=1 n=f4 v=0
84360 On ch=1 n=g5 v=0
84360 On ch=1 n=b4 v=126
84360 On ch=1 n=d4 v=123
84460 Par ch=1 c=64 v=0
84480 On ch=1 n=d4 v=0
84480 On ch=1 n=b4 v=0
84480 On ch=1 n=g3 v=65
84480 On ch=1 n=g2 v=65
84480 Par ch=1 c=64 v=127
84600 On ch=1 n=g2 v=0
84600 On ch=1 n=g3 v=0
84600 On ch=1 n=b3 v=66
84600 On ch=1 n=d3 v=66
84720 On ch=1 n=d3 v=0
84720 On ch=1 n=b3 v=0
84720 On ch=1 n=g4 v=68
84720 On ch=1 n=g3 v=68
84840 On ch=1 n=g3 v=0
84840 On ch=1 n=g4 v=0
84840 On ch=1 n=g4 v=69
84840 On ch=1 n=g3 v=69
84960 On ch=1 n=g3 v=0
84960 On ch=1 n=g4 v=0
84960 On ch=1 n=b4 v=78
84960 On ch=1 n=d4 v=71
85080 On ch=1 n=d4 v=0
85080 On ch=1 n=b4 v=0
85080 On ch=1 n=g5 v=79
85080 On ch=1 n=g4 v=72
85200 On ch=1 n=g4 v=0
85200 On ch=1 n=g5 v=0
85200 On ch=1 n=b4 v=81
85200 On ch=1 n=d4 v=74
85320 On ch=1 n=d4 v=0
85320 On ch=1 n=b4 v=0
85320 On ch=1 n=g4 v=82
85320 On ch=1 n=g3 v=75
85420 Par ch=1 c=64 v=0
85440 On ch=1 n=g3 v=0
85440 On ch=1 n=g4 v=0
85440 On ch=1 n=g3 v=77
85440 On ch=1 n=g#2 v=77
85440 Par ch=1 c=64 v=127
85560 On ch=1 n=g#2 v=0
85560 On ch=1 n=g3 v=0
85560 On ch=1 n=c4 v=78
85560 On ch=1 n=c3 v=78
85680 On ch=1 n=c3 v=0
85680 On ch=1 n=c4 v=0
85680 On ch=1 n=g4 v=80
85680 On ch=1 n=g#3 v=80
85800 On ch=1 n=g#3 v=0
85800 On ch=1 n=g4 v=0
85800 On ch=1 n=g4 v=81
85800 On ch=1 n=g#3 v=81
85920 On ch=1 n=g#3 v=0
85920 On ch=1 n=g4 v=0
85920 On ch=1 n=c5 v=89
85920 On ch=1 n=c4 v=83
86040 On ch=1 n=c4 v=0
86040 On ch=1 n=c5 v=0
86040 On ch=1 n=g5 v=90
86040 On ch=1 n=g#4 v=85
86160 On ch=1 n=g#4 v=0
86160 On ch=1 n=g5 v=0
86160 On ch=1 n=c5 v=91
86160 On ch=1 n=c4 v=86
86280 On ch=1 n=c4 v=0
86280 On ch=1 n=c5 v=0
86280 On ch=1 n=g4 v=93
86280 On ch=1 n=g#3 v=88
86380 Par ch=1 c=64 v=0
86400 On ch=1 n=g#3 v=0
86400 On ch=1 n=g4 v=0
86400 On ch=1 n=g3 v=90
86400 On ch=1 n=a2 v=90
86400 Par ch=1 c=64 v=127
86520 On ch=1 n=a2 v=0
86520 On ch=1 n=g3 v=0
86520 On ch=1 n=c#4 v=91
86520 On ch=1 n=c#3 v=91
86640 On ch=1 n=c#3 v=0
86640 On ch=1 n=c#4 v=0
86640 On ch=1 n=g4 v=93
86640 On ch=1 n=a3 v=93
86760 On ch=1 n=a3 v=0
86760 On ch=1 n=g4 v=0
86760 On ch=1 n=g4 v=94
86760 On ch=1 n=a3 v=94
86880 On ch=1 n=a3 v=0
86880 On ch=1 n=g4 v=0
86880 On ch=1 n=c#5 v=99
86880 On ch=1 n=c4 v=96
87000 On ch=1 n=c4 v=0
87000 On ch=1 n=c#5 v=0
87000 On ch=1 n=g5 v=100
87000 On ch=1 n=a4 v=97
87120 On ch=1 n=a4 v=0
87120 On ch=1 n=g5 v=0
87120 On ch=1 n=c#5 v=102
87120 On ch=1 n=c4 v=99
87240 On ch=1 n=c4 v=0
87240 On ch=1 n=c#5 v=0
87240 On ch=1 n=g4 v=103
87240 On ch=1 n=a3 v=100
87340 Par ch=1 c=64 v=0
87360 On ch=1 n=a3 v=0
87360 On ch=1 n=g4 v=0
87360 On ch=1 n=g3 v=102
87360 On ch=1 n=a#2 v=102
87360 Par ch=1 c=64 v=127
87480 On ch=1 n=a#2 v=0
87480 On ch=1 n=g3 v=0
87480 On ch=1 n=c4 v=103
87480 On ch=1 n=c3 v=103
87600 On ch=1 n=c3 v=0
87600 On ch=1 n=c4 v=0
87600 On ch=1 n=g4 v=105
87600 On ch=1 n=a#3 v=105
87720 On ch=1 n=a#3 v=0
87720 On ch=1 n=g4 v=0
87720 On ch=1 n=c4 v=107
87720 On ch=1 n=c3 v=107
87820 Par ch=1 c=64 v=0
87840 On ch=1 n=c3 v=0
87840 On ch=1 n=c4 v=0
87840 On ch=1 n=g3 v=108
87840 On ch=1 n=b2 v=108
87840 Par ch=1 c=64 v=127
87960 On ch=1 n=b2 v=0
87960 On ch=1 n=g3 v=0
87960 On ch=1 n=d4 v=110
87960 On ch=1 n=d3 v=110
88080 On ch=1 n=d3 v=0
88080 On ch=1 n=d4 v=0
88080 On ch=1 n=g4 v=112
88080 On ch=1 n=b3 v=112
88200 On ch=1 n=b3 v=0
88200 On ch=1 n=g4 v=0
88200 On ch=1 n=d4 v=113
88200 On ch=1 n=d3 v=113
88300 Par ch=1 c=64 v=0
88320 On ch=1 n=d3 v=0
88320 On ch=1 n=d4 v=0
88320 On ch=1 n=c3 v=114
88320 On ch=1 n=d#4 v=114
88320 Par ch=1 c=64 v=127
88440 On ch=1 n=d#4 v=0
88440 On ch=1 n=c3 v=0
88440 On ch=1 n=g3 v=114
88440 On ch=1 n=g4 v=114
88560 On ch=1 n=g4 v=0
88560 On ch=1 n=g3 v=0
88560 On ch=1 n=d#5 v=118
88560 On ch=1 n=c4 v=114
88680 On ch=1 n=c4 v=0
88680 On ch=1 n=d#5 v=0
88680 On ch=1 n=d#5 v=118
88680 On ch=1 n=c4 v=114
88800 On ch=1 n=c4 v=0
88800 On ch=1 n=d#5 v=0
88800 On ch=1 n=g5 v=118
88800 On ch=1 n=g4 v=114
88920 On ch=1 n=g4 v=0
88920 On ch=1 n=g5 v=0
88920 On ch=1 n=d#6 v=118
88920 On ch=1 n=c5 v=114
89040 On ch=1 n=c5 v=0
89040 On ch=1 n=d#6 v=0
89040 On ch=1 n=d#6 v=118
89160 On ch=1 n=d#6 v=0
89160 On ch=1 n=g5 v=118
89160 On ch=1 n=g6 v=118
89160 On ch=1 n=c5 v=114
89280 On ch=1 n=c5 v=0
89280 On ch=1 n=g6 v=0
89280 On ch=1 n=g5 v=0
89280 On ch=1 n=c6 v=118
89280 On ch=1 n=d#7 v=118
89400 On ch=1 n=d#7 v=0
89400 On ch=1 n=c6 v=0
89400 On ch=1 n=g5 v=118
89400 On ch=1 n=g6 v=118
89520 On ch=1 n=g6 v=0
89520 On ch=1 n=g5 v=0
89520 On ch=1 n=c5 v=118
89520 On ch=1 n=d#6 v=118
89640 On ch=1 n=d#6 v=0
89640 On ch=1 n=c5 v=0
89640 On ch=1 n=c5 v=118
89640 On ch=1 n=d#6 v=118
89760 On ch=1 n=d#6 v=0
89760 On ch=1 n=c5 v=0
89760 On ch=1 n=g5 v=118
89760 On ch=1 n=g4 v=114
89880 On ch=1 n=g4 v=0
89880 On ch=1 n=g5 v=0
89880 On ch=1 n=d#5 v=118
89880 On ch=1 n=c4 v=114
90000 On ch=1 n=c4 v=0
90000 On ch=1 n=d#5 v=0
90000 On ch=1 n=d#5 v=118
90000 On ch=1 n=c4 v=114
90120 On ch=1 n=c4 v=0
90120 On ch=1 n=d#5 v=0
90120 On ch=1 n=g4 v=118
90120 On ch=1 n=g3 v=114
90220 Par ch=1 c=64 v=0
90240 On ch=1 n=g3 v=0
90240 On ch=1 n=g4 v=0
90240 On ch=1 n=c3 v=114
90240 On ch=1 n=d4 v=114
90240 Par ch=1 c=64 v=127
90360 On ch=1 n=d4 v=0
90360 On ch=1 n=c3 v=0
90360 On ch=1 n=g#4 v=114
90360 On ch=1 n=f3 v=114
90480 On ch=1 n=f3 v=0
90480 On ch=1 n=g#4 v=0
90480 On ch=1 n=d5 v=118
90480 On ch=1 n=c4 v=114
90600 On ch=1 n=c4 v=0
90600 On ch=1 n=d5 v=0
90600 On ch=1 n=d5 v=118
90600 On ch=1 n=c4 v=114
90720 On ch=1 n=c4 v=0
90720 On ch=1 n=d5 v=0
90720 On ch=1 n=g#5 v=118
90720 On ch=1 n=f4 v=114
90840 On ch=1 n=f4 v=0
90840 On ch=1 n=g#5 v=0
90840 On ch=1 n=d6 v=118
90840 On ch=1 n=c5 v=114
90960 On ch=1 n=c5 v=0
90960 On ch=1 n=d6 v=0
90960 On ch=1 n=d6 v=118
90960 On ch=1 n=c5 v=114
91080 On ch=1 n=c5 v=0
91080 On ch=1 n=d6 v=0
91080 On ch=1 n=f5 v=118
91080 On ch=1 n=g#6 v=118
91200 On ch=1 n=g#6 v=0
91200 On ch=1 n=f5 v=0
91200 On ch=1 n=c6 v=118
91200 On ch=1 n=d7 v=118
91320 On ch=1 n=d7 v=0
91320 On ch=1 n=c6 v=0
91320 On ch=1 n=f5 v=118
91320 On ch=1 n=g#6 v=118
91440 On ch=1 n=g#6 v=0
91440 On ch=1 n=f5 v=0
91440 On ch=1 n=c5 v=118
91440 On ch=1 n=d6 v=118
91560 On ch=1 n=d6 v=0
91560 On ch=1 n=c5 v=0
91560 On ch=1 n=c5 v=118
91560 On ch=1 n=d6 v=118
91680 On ch=1 n=d6 v=0
91680 On ch=1 n=c5 v=0
91680 On ch=1 n=g#5 v=118
91680 On ch=1 n=f4 v=114
91800 On ch=1 n=f4 v=0
91800 On ch=1 n=g#5 v=0
91800 On ch=1 n=d5 v=118
91800 On ch=1 n=c4 v=114
91920 On ch=1 n=c4 v=0
91920 On ch=1 n=d5 v=0
91920 On ch=1 n=d5 v=118
91920 On ch=1 n=c4 v=114
92040 On ch=1 n=c4 v=0
92040 On ch=1 n=d5 v=0
92040 On ch=1 n=g#4 v=118
92040 On ch=1 n=f3 v=114
92140 Par ch=1 c=64 v=0
92160 On ch=1 n=f3 v=0
92160 On ch=1 n=g#4 v=0
92160 On ch=1 n=f4 v=114
92160 On ch=1 n=c3 v=114
92160 Par ch=1 c=64 v=127
92280 On ch=1 n=c3 v=0
92280 On ch=1 n=f4 v=0
92280 On ch=1 n=c5 v=118
92280 On ch=1 n=g#3 v=114
92400 On ch=1 n=g#3 v=0
92400 On ch=1 n=c5 v=0
92400 On ch=1 n=f5 v=118
92400 On ch=1 n=c4 v=114
92520 On ch=1 n=c4 v=0
92520 On ch=1 n=f5 v=0
92520 On ch=1 n=f5 v=118
92520 On ch=1 n=c4 v=114
92640 On ch=1 n=c4 v=0
92640 On ch=1 n=f5 v=0
92640 On ch=1 n=c6 v=118
92640 On ch=1 n=g#4 v=114
92760 On ch=1 n=g#4 v=0
92760 On ch=1 n=c6 v=0
92760 On ch=1 n=f6 v=118
92760 On ch=1 n=c5 v=114
92880 On ch=1 n=c5 v=0
92880 On ch=1 n=f6 v=0
92880 On ch=1 n=f6 v=118
92880 On ch=1 n=c5 v=114
93000 On ch=1 n=c5 v=0
93000 On ch=1 n=f6 v=0
93000 On ch=1 n=g#5 v=118
93000 On ch=1 n=c7 v=118
93120 On ch=1 n=c7 v=0
93120 On ch=1 n=g#5 v=0
93120 On ch=1 n=c6 v=118
93120 On ch=1 n=f7 v=118
93240 On ch=1 n=f7 v=0
93240 On ch=1 n=c6 v=0
93240 On ch=1 n=g#5 v=118
93240 On ch=1 n=c7 v=118
93360 On ch=1 n=c7 v=0
93360 On ch=1 n=g#5 v=0
93360 On ch=1 n=c5 v=118
93360 On ch=1 n=f6 v=118
93480 On ch=1 n=f6 v=0
93480 On ch=1 n=c5 v=0
93480 On ch=1 n=c5 v=118
93480 On ch=1 n=f6 v=118
93600 On ch=1 n=f6 v=0
93600 On ch=1 n=c5 v=0
93600 On ch=1 n=c6 v=118
93600 On ch=1 n=g#4 v=114
93720 On ch=1 n=g#4 v=0
93720 On ch=1 n=c6 v=0
93720 On ch=1 n=f5 v=118
93720 On ch=1 n=c4 v=114
93840 On ch=1 n=c4 v=0
93840 On ch=1 n=f5 v=0
93840 On ch=1 n=f5 v=118
93840 On ch=1 n=c4 v=114
93960 On ch=1 n=c4 v=0
93960 On ch=1 n=f5 v=0
93960 On ch=1 n=c5 v=118
93960 On ch=1 n=g#3 v=114
94060 Par ch=1 c=64 v=0
94080 On ch=1 n=g#3 v=0
94080 On ch=1 n=c5 v=0
94080 On ch=1 n=c3 v=114
94080 On ch=1 n=d#4 v=114
94080 Par ch=1 c=64 v=127
94200 On ch=1 n=d#4 v=0
94200 On ch=1 n=c3 v=0
94200 On ch=1 n=g3 v=114
94200 On ch=1 n=g4 v=114
94320 On ch=1 n=g4 v=0
94320 On ch=1 n=g3 v=0
94320 On ch=1 n=d#5 v=118
94320 On ch=1 n=c4 v=114
94440 On ch=1 n=c4 v=0
94440 On ch=1 n=d#5 v=0
94440 On ch=1 n=d#5 v=118
94440 On ch=1 n=c4 v=115
94560 On ch=1 n=c4 v=0
94560 On ch=1 n=d#5 v=0
94560 On ch=1 n=g5 v=118
94560 On ch=1 n=g4 v=115
94680 On ch=1 n=g4 v=0
94680 On ch=1 n=g5 v=0
94680 On ch=1 n=d#6 v=118
94680 On ch=1 n=c5 v=115
94800 On ch=1 n=c5 v=0
94800 On ch=1 n=d#6 v=0
94800 On ch=1 n=d#6 v=118
94800 On ch=1 n=c5 v=115
94920 On ch=1 n=c5 v=0
94920 On ch=1 n=d#6 v=0
94920 On ch=1 n=g5 v=118
94920 On ch=1 n=g6 v=118
95040 On ch=1 n=g6 v=0
95040 On ch=1 n=g5 v=0
95040 On ch=1 n=c6 v=118
95040 On ch=1 n=d#7 v=118
95160 On ch=1 n=d#7 v=0
95160 On ch=1 n=c6 v=0
95160 On ch=1 n=g5 v=118
95160 On ch=1 n=g6 v=118
95280 On ch=1 n=g6 v=0
95280 On ch=1 n=g5 v=0
95280 On ch=1 n=c5 v=118
95280 On ch=1 n=d#6 v=118
95400 On ch=1 n=d#6 v=0
95400 On ch=1 n=c5 v=0
95400 On ch=1 n=c5 v=118
95400 On ch=1 n=d#6 v=118
95520 On ch=1 n=d#6 v=0
95520 On ch=1 n=c5 v=0
95520 On ch=1 n=g5 v=118
95520 On ch=1 n=g4 v=115
95640 On ch=1 n=g4 v=0
95640 On ch=1 n=g5 v=0
95640 On ch=1 n=d#5 v=118
95640 On ch=1 n=c4 v=115
95760 On ch=1 n=c4 v=0
95760 On ch=1 n=d#5 v=0
95760 On ch=1 n=d#5 v=118
95760 On ch=1 n=c4 v=115
95880 On ch=1 n=c4 v=0
95880 On ch=1 n=d#5 v=0
95880 On ch=1 n=g4 v=118
95880 On ch=1 n=g3 v=115
95980 Par ch=1 c=64 v=0
96000 On ch=1 n=g3 v=0
96000 On ch=1 n=g4 v=0
96000 On ch=1 n=c3 v=115
96000 On ch=1 n=d4 v=115
96000 Par ch=1 c=64 v=127
96120 On ch=1 n=d4 v=0
96120 On ch=1 n=c3 v=0
96120 On ch=1 n=g#4 v=115
96120 On ch=1 n=f3 v=115
96240 On ch=1 n=f3 v=0
96240 On ch=1 n=g#4 v=0
96240 On ch=1 n=d5 v=118
96240 On ch=1 n=c4 v=115
96360 On ch=1 n=c4 v=0
96360 On ch=1 n=d5 v=0
96360 On ch=1 n=d5 v=118
96360 On ch=1 n=c4 v=115
96480 On ch=1 n=c4 v=0
96480 On ch=1 n=d5 v=0
96480 On ch=1 n=g#5 v=118
96480 On ch=1 n=f4 v=115
96600 On ch=1 n=f4 v=0
96600 On ch=1 n=g#5 v=0
96600 On ch=1 n=d6 v=118
96600 On ch=1 n=c5 v=115
96720 On ch=1 n=c5 v=0
96720 On ch=1 n=d6 v=0
96720 On ch=1 n=d6 v=118
96720 On ch=1 n=c5 v=115
96840 On ch=1 n=c5 v=0
96840 On ch=1 n=d6 v=0
96840 On ch=1 n=f5 v=118
96840 On ch=1 n=g#6 v=118
96960 On ch=1 n=g#6 v=0
96960 On ch=1 n=f5 v=0
96960 On ch=1 n=c6 v=118
96960 On ch=1 n=d7 v=118
97080 On ch=1 n=d7 v=0
97080 On ch=1 n=c6 v=0
97080 On ch=1 n=f5 v=118
97080 On ch=1 n=g#6 v=118
97200 On ch=1 n=g#6 v=0
97200 On ch=1 n=f5 v=0
97200 On ch=1 n=c5 v=118
97200 On ch=1 n=d6 v=118
97320 On ch=1 n=d6 v=0
97320 On ch=1 n=c5 v=0
97320 On ch=1 n=c5 v=118
97320 On ch=1 n=d6 v=118
97440 On ch=1 n=d6 v=0
97440 On ch=1 n=c5 v=0
97440 On ch=1 n=g#5 v=118
97440 On ch=1 n=f4 v=115
97560 On ch=1 n=f4 v=0
97560 On ch=1 n=g#5 v=0
97560 On ch=1 n=d5 v=118
97560 On ch=1 n=c4 v=115
97680 On ch=1 n=c4 v=0
97680 On ch=1 n=d5 v=0
97680 On ch=1 n=d5 v=118
97680 On ch=1 n=c4 v=115
97800 On ch=1 n=c4 v=0
97800 On ch=1 n=d5 v=0
97800 On ch=1 n=g#4 v=118
97800 On ch=1 n=f3 v=115
97900 Par ch=1 c=64 v=0
97920 On ch=1 n=f3 v=0
97920 On ch=1 n=g#4 v=0
97920 On ch=1 n=c3 v=115
97920 On ch=1 n=d#4 v=115
97920 Par ch=1 c=64 v=127
98040 On ch=1 n=d#4 v=0
98040 On ch=1 n=c3 v=0
98040 On ch=1 n=f3 v=115
98040 On ch=1 n=g#4 v=115
98160 On ch=1 n=g#4 v=0
98160 On ch=1 n=f3 v=0
98160 On ch=1 n=d#5 v=118
98160 On ch=1 n=b3 v=115
98280 On ch=1 n=b3 v=0
98280 On ch=1 n=d#5 v=0
98280 On ch=1 n=d#5 v=118
98280 On ch=1 n=c4 v=115
98400 On ch=1 n=c4 v=0
98400 On ch=1 n=d#5 v=0
98400 On ch=1 n=g#5 v=118
98400 On ch=1 n=f4 v=115
98520 On ch=1 n=f4 v=0
98520 On ch=1 n=g#5 v=0
98520 On ch=1 n=d#6 v=118
98520 On ch=1 n=b4 v=115
98640 On ch=1 n=b4 v=0
98640 On ch=1 n=d#6 v=0
98640 On ch=1 n=d#6 v=118
98640 On ch=1 n=c5 v=115
98760 On ch=1 n=c5 v=0
98760 On ch=1 n=d#6 v=0
98760 On ch=1 n=f5 v=118
98760 On ch=1 n=g#6 v=118
98880 On ch=1 n=g#6 v=0
98880 On ch=1 n=f5 v=0
98880 On ch=1 n=b5 v=118
98880 On ch=1 n=d#7 v=118
99000 On ch=1 n=d#7 v=0
99000 On ch=1 n=b5 v=0
99000 On ch=1 n=f5 v=118
99000 On ch=1 n=g#6 v=118
99120 On ch=1 n=g#6 v=0
99120 On ch=1 n=f5 v=0
99120 On ch=1 n=c5 v=118
99120 On ch=1 n=d#6 v=118
99240 On ch=1 n=d#6 v=0
99240 On ch=1 n=c5 v=0
99240 On ch=1 n=b4 v=118
99240 On ch=1 n=d#6 v=118
99360 On ch=1 n=d#6 v=0
99360 On ch=1 n=b4 v=0
99360 On ch=1 n=g#5 v=118
99360 On ch=1 n=f4 v=115
99480 On ch=1 n=f4 v=0
99480 On ch=1 n=g#5 v=0
99480 On ch=1 n=d#5 v=118
99480 On ch=1 n=c4 v=115
99600 On ch=1 n=c4 v=0
99600 On ch=1 n=d#5 v=0
99600 On ch=1 n=d#5 v=118
99600 On ch=1 n=b3 v=115
99720 On ch=1 n=b3 v=0
99720 On ch=1 n=d#5 v=0
99720 On ch=1 n=g#4 v=118
99720 On ch=1 n=f3 v=115
99820 Par ch=1 c=64 v=0
99840 On ch=1 n=f3 v=0
99840 On ch=1 n=g#4 v=0
99840 On ch=1 n=c3 v=116
99840 On ch=1 n=c4 v=116
99840 Par ch=1 c=64 v=127
99960 On ch=1 n=c4 v=0
99960 On ch=1 n=c3 v=0
99960 On ch=1 n=g3 v=116
99960 On ch=1 n=d#4 v=116
100080 On ch=1 n=d#4 v=0
100080 On ch=1 n=g3 v=0
100080 On ch=1 n=c4 v=115
100080 On ch=1 n=c5 v=115
100200 On ch=1 n=c5 v=0
100200 On ch=1 n=c4 v=0
100200 On ch=1 n=c4 v=114
100200 On ch=1 n=c5 v=114
100320 On ch=1 n=c5 v=0
100320 On ch=1 n=c4 v=0
100320 On ch=1 n=d#5 v=117
100320 On ch=1 n=g4 v=113
100440 On ch=1 n=g4 v=0
100440 On ch=1 n=d#5 v=0
100440 On ch=1 n=c6 v=116
100440 On ch=1 n=c5 v=112
100560 On ch=1 n=c5 v=0
100560 On ch=1 n=c6 v=0
100560 On ch=1 n=d#5 v=115
100560 On ch=1 n=g4 v=111
100680 On ch=1 n=g4 v=0
100680 On ch=1 n=d#5 v=0
100680 On ch=1 n=c5 v=114
100680 On ch=1 n=c4 v=111
100800 On ch=1 n=c4 v=0
100800 On ch=1 n=c5 v=0
100800 On ch=1 n=d#5 v=113
100800 On ch=1 n=g4 v=110
100920 On ch=1 n=g4 v=0
100920 On ch=1 n=d#5 v=0
100920 On ch=1 n=a#5 v=113
100920 On ch=1 n=c5 v=109
101040 On ch=1 n=c5 v=0
101040 On ch=1 n=a#5 v=0
101040 On ch=1 n=d#5 v=111
101040 On ch=1 n=g4 v=108
101160 On ch=1 n=g4 v=0
101160 On ch=1 n=d#5 v=0
101160 On ch=1 n=c5 v=111
101160 On ch=1 n=c4 v=107
101280 On ch=1 n=c4 v=0
101280 On ch=1 n=c5 v=0
101280 On ch=1 n=d#5 v=110
101280 On ch=1 n=g4 v=106
101400 On ch=1 n=g4 v=0
101400 On ch=1 n=d#5 v=0
101400 On ch=1 n=g#5 v=109
101400 On ch=1 n=c5 v=106
101520 On ch=1 n=c5 v=0
101520 On ch=1 n=g#5 v=0
101520 On ch=1 n=d#5 v=108
101520 On ch=1 n=g4 v=105
101640 On ch=1 n=g4 v=0
101640 On ch=1 n=d#5 v=0
101640 On ch=1 n=c5 v=107
101640 On ch=1 n=c4 v=104
101740 Par ch=1 c=64 v=0
101760 On ch=1 n=c4 v=0
101760 On ch=1 n=c5 v=0
101760 On ch=1 n=d5 v=106
101760 On ch=1 n=g4 v=103
101880 On ch=1 n=g4 v=0
101880 On ch=1 n=d5 v=0
101880 On ch=1 n=g5 v=105
101880 On ch=1 n=b4 v=102
101880 Par ch=1 c=64 v=127
102000 On ch=1 n=b4 v=0
102000 On ch=1 n=g5 v=0
102000 On ch=1 n=d5 v=104
102000 On ch=1 n=g4 v=101
102120 On ch=1 n=g4 v=0
102120 On ch=1 n=d5 v=0
102120 On ch=1 n=b4 v=103
102120 On ch=1 n=c4 v=101
102240 On ch=1 n=c4 v=0
102240 On ch=1 n=b4 v=0
102240 On ch=1 n=c#5 v=102
102240 On ch=1 n=g4 v=100
102360 On ch=1 n=g4 v=0
102360 On ch=1 n=c#5 v=0
102360 On ch=1 n=g5 v=101
102360 On ch=1 n=a#4 v=99
102480 On ch=1 n=a#4 v=0
102480 On ch=1 n=g5 v=0
102480 On ch=1 n=c#5 v=100
102480 On ch=1 n=g4 v=98
102600 On ch=1 n=g4 v=0
102600 On ch=1 n=c#5 v=0
102600 On ch=1 n=a#4 v=100
102600 On ch=1 n=c4 v=97
102720 On ch=1 n=c4 v=0
102720 On ch=1 n=a#4 v=0
102720 On ch=1 n=c5 v=98
102720 On ch=1 n=f4 v=96
102820 Par ch=1 c=64 v=0
102840 On ch=1 n=f4 v=0
102840 On ch=1 n=c5 v=0
102840 On ch=1 n=f5 v=98
102840 On ch=1 n=a4 v=96
102840 Par ch=1 c=64 v=127
102960 On ch=1 n=a4 v=0
102960 On ch=1 n=f5 v=0
102960 On ch=1 n=c5 v=97
102960 On ch=1 n=f4 v=95
103080 On ch=1 n=f4 v=0
103080 On ch=1 n=c5 v=0
103080 On ch=1 n=a4 v=96
103080 On ch=1 n=c4 v=94
103200 On ch=1 n=c4 v=0
103200 On ch=1 n=a4 v=0
103200 On ch=1 n=b4 v=95
103200 On ch=1 n=f4 v=93
103320 On ch=1 n=f4 v=0
103320 On ch=1 n=b4 v=0
103320 On ch=1 n=f5 v=94
103320 On ch=1 n=g#4 v=92
103440 On ch=1 n=g#4 v=0
103440 On ch=1 n=f5 v=0
103440 On ch=1 n=b4 v=93
103440 On ch=1 n=f4 v=91
103560 On ch=1 n=f4 v=0
103560 On ch=1 n=b4 v=0
103560 On ch=1 n=g#4 v=92
103560 On ch=1 n=c4 v=91
103660 Par ch=1 c=64 v=0
103680 On ch=1 n=c4 v=0
103680 On ch=1 n=g#4 v=0
103680 On ch=1 n=c3 v=115
103680 On ch=1 n=d#4 v=115
103680 Par ch=1 c=64 v=127
103800 On ch=1 n=d#4 v=0
103800 On ch=1 n=c3 v=0
103800 On ch=1 n=g3 v=115
103800 On ch=1 n=g4 v=115
103920 On ch=1 n=g4 v=0
103920 On ch=1 n=g3 v=0
103920 On ch=1 n=d#5 v=114
103920 On ch=1 n=c4 v=115
104040 On ch=1 n=c4 v=0
104040 On ch=1 n=d#5 v=0
104040 On ch=1 n=d#5 v=114
104040 On ch=1 n=c4 v=115
104160 On ch=1 n=c4 v=0
104160 On ch=1 n=d#5 v=0
104160 On ch=1 n=g5 v=114
104160 On ch=1 n=g4 v=115
104280 On ch=1 n=g4 v=0
104280 On ch=1 n=g5 v=0
104280 On ch=1 n=d#6 v=114
104280 On ch=1 n=c5 v=115
104400 On ch=1 n=c5 v=0
104400 On ch=1 n=d#6 v=0
104400 On ch=1 n=d#6 v=114
104520 On ch=1 n=d#6 v=0
104520 On ch=1 n=g5 v=114
104520 On ch=1 n=g6 v=114
104520 On ch=1 n=c5 v=115
104640 On ch=1 n=c5 v=0
104640 On ch=1 n=g6 v=0
104640 On ch=1 n=g5 v=0
104640 On ch=1 n=c6 v=114
104640 On ch=1 n=d#7 v=114
104760 On ch=1 n=d#7 v=0
104760 On ch=1 n=c6 v=0
104760 On ch=1 n=g5 v=114
104760 On ch=1 n=g6 v=114
104880 On ch=1 n=g6 v=0
104880 On ch=1 n=g5 v=0
104880 On ch=1 n=c5 v=114
104880 On ch=1 n=d#6 v=114
105000 On ch=1 n=d#6 v=0
105000 On ch=1 n=c5 v=0
105000 On ch=1 n=c5 v=114
105000 On ch=1 n=d#6 v=114
105120 On ch=1 n=d#6 v=0
105120 On ch=1 n=c5 v=0
105120 On ch=1 n=g5 v=114
105120 On ch=1 n=g4 v=115
105240 On ch=1 n=g4 v=0
105240 On ch=1 n=g5 v=0
105240 On ch=1 n=d#5 v=114
105240 On ch=1 n=c4 v=115
105360 On ch=1 n=c4 v=0
105360 On ch=1 n=d#5 v=0
105360 On ch=1 n=d#5 v=114
105360 On ch=1 n=c4 v=115
105480 On ch=1 n=c4 v=0
105480 On ch=1 n=d#5 v=0
105480 On ch=1 n=g4 v=114
105480 On ch=1 n=g3 v=115
105580 Par ch=1 c=64 v=0
105600 On ch=1 n=g3 v=0
105600 On ch=1 n=g4 v=0
105600 On ch=1 n=c3 v=115
105600 On ch=1 n=d4 v=115
105600 Par ch=1 c=64 v=127
105720 On ch=1 n=d4 v=0
105720 On ch=1 n=c3 v=0
105720 On ch=1 n=g#4 v=115
105720 On ch=1 n=f3 v=115
105840 On ch=1 n=f3 v=0
105840 On ch=1 n=g#4 v=0
105840 On ch=1 n=d5 v=114
105840 On ch=1 n=c4 v=115
105960 On ch=1 n=c4 v=0
105960 On ch=1 n=d5 v=0
105960 On ch=1 n=d5 v=114
105960 On ch=1 n=c4 v=115
106080 On ch=1 n=c4 v=0
106080 On ch=1 n=d5 v=0
106080 On ch=1 n=g#5 v=114
106080 On ch=1 n=f4 v=115
106200 On ch=1 n=f4 v=0
106200 On ch=1 n=g#5 v=0
106200 On ch=1 n=d6 v=114
106200 On ch=1 n=c5 v=115
106320 On ch=1 n=c5 v=0
106320 On ch=1 n=d6 v=0
106320 On ch=1 n=d6 v=114
106320 On ch=1 n=c5 v=115
106440 On ch=1 n=c5 v=0
106440 On ch=1 n=d6 v=0
106440 On ch=1 n=f5 v=114
106440 On ch=1 n=g#6 v=114
106560 On ch=1 n=g#6 v=0
106560 On ch=1 n=f5 v=0
106560 On ch=1 n=c6 v=114
106560 On ch=1 n=d7 v=114
106680 On ch=1 n=d7 v=0
106680 On ch=1 n=c6 v=0
106680 On ch=1 n=f5 v=114
106680 On ch=1 n=g#6 v=114
106800 On ch=1 n=g#6 v=0
106800 On ch=1 n=f5 v=0
106800 On ch=1 n=c5 v=114
106800 On ch=1 n=d6 v=114
106920 On ch=1 n=d6 v=0
106920 On ch=1 n=c5 v=0
106920 On ch=1 n=c5 v=114
106920 On ch=1 n=d6 v=114
107040 On ch=1 n=d6 v=0
107040 On ch=1 n=c5 v=0
107040 On ch=1 n=g#5 v=114
107040 On ch=1 n=f4 v=115
107160 On ch=1 n=f4 v=0
107160 On ch=1 n=g#5 v=0
107160 On ch=1 n=d5 v=114
107160 On ch=1 n=c4 v=115
107280 On ch=1 n=c4 v=0
107280 On ch=1 n=d5 v=0
107280 On ch=1 n=d5 v=114
107280 On ch=1 n=c4 v=115
107400 On ch=1 n=c4 v=0
107400 On ch=1 n=d5 v=0
107400 On ch=1 n=g#4 v=114
107400 On ch=1 n=f3 v=115
107500 Par ch=1 c=64 v=0
107520 On ch=1 n=f3 v=0
107520 On ch=1 n=g#4 v=0
107520 On ch=1 n=e4 v=115
107520 On ch=1 n=c3 v=115
107520 Par ch=1 c=64 v=127
107640 On ch=1 n=c3 v=0
107640 On ch=1 n=e4 v=0
107640 On ch=1 n=a#4 v=115
107640 On ch=1 n=g3 v=115
107760 On ch=1 n=g3 v=0
107760 On ch=1 n=a#4 v=0
107760 On ch=1 n=e5 v=114
107760 On ch=1 n=c4 v=115
107880 On ch=1 n=c4 v=0
107880 On ch=1 n=e5 v=0
107880 On ch=1 n=e5 v=114
107880 On ch=1 n=c4 v=115
108000 On ch=1 n=c4 v=0
108000 On ch=1 n=e5 v=0
108000 On ch=1 n=a#5 v=114
108000 On ch=1 n=g4 v=115
108120 On ch=1 n=g4 v=0
108120 On ch=1 n=a#5 v=0
108120 On ch=1 n=e6 v=114
108120 On ch=1 n=c5 v=115
108240 On ch=1 n=c5 v=0
108240 On ch=1 n=e6 v=0
108240 On ch=1 n=e6 v=114
108240 On ch=1 n=c5 v=115
108360 On ch=1 n=c5 v=0
108360 On ch=1 n=e6 v=0
108360 On ch=1 n=a#6 v=114
108360 On ch=1 n=g5 v=114
108480 On ch=1 n=g5 v=0
108480 On ch=1 n=a#6 v=0
108480 On ch=1 n=e7 v=114
108480 On ch=1 n=c6 v=114
108600 On ch=1 n=c6 v=0
108600 On ch=1 n=e7 v=0
108600 On ch=1 n=a#6 v=114
108600 On ch=1 n=g5 v=114
108720 On ch=1 n=g5 v=0
108720 On ch=1 n=a#6 v=0
108720 On ch=1 n=e6 v=114
108720 On ch=1 n=c5 v=114
108840 On ch=1 n=c5 v=0
108840 On ch=1 n=e6 v=0
108840 On ch=1 n=e6 v=114
108840 On ch=1 n=c5 v=114
108960 On ch=1 n=c5 v=0
108960 On ch=1 n=e6 v=0
108960 On ch=1 n=a#5 v=114
108960 On ch=1 n=g4 v=115
109080 On ch=1 n=g4 v=0
109080 On ch=1 n=a#5 v=0
109080 On ch=1 n=e5 v=114
109080 On ch=1 n=c4 v=115
109200 On ch=1 n=c4 v=0
109200 On ch=1 n=e5 v=0
109200 On ch=1 n=e5 v=114
109200 On ch=1 n=c4 v=115
109320 On ch=1 n=c4 v=0
109320 On ch=1 n=e5 v=0
109320 On ch=1 n=a#4 v=114
109320 On ch=1 n=g3 v=115
109420 Par ch=1 c=64 v=0
109440 On ch=1 n=g3 v=0
109440 On ch=1 n=a#4 v=0
109440 On ch=1 n=f4 v=115
109440 On ch=1 n=c#3 v=115
109440 Par ch=1 c=64 v=127
109560 On ch=1 n=c#3 v=0
109560 On ch=1 n=f4 v=0
109560 On ch=1 n=g#4 v=115
109560 On ch=1 n=g#3 v=115
109680 On ch=1 n=g#3 v=0
109680 On ch=1 n=g#4 v=0
109680 On ch=1 n=f5 v=114
109680 On ch=1 n=c#4 v=115
109800 On ch=1 n=c#4 v=0
109800 On ch=1 n=f5 v=0
109800 On ch=1 n=f5 v=114
109800 On ch=1 n=c#4 v=115
109920 On ch=1 n=c#4 v=0
109920 On ch=1 n=f5 v=0
109920 On ch=1 n=g#5 v=114
109920 On ch=1 n=g#4 v=115
110040 On ch=1 n=g#4 v=0
110040 On ch=1 n=g#5 v=0
110040 On ch=1 n=f6 v=114
110040 On ch=1 n=c#5 v=115
110160 On ch=1 n=c#5 v=0
110160 On ch=1 n=f6 v=0
110160 On ch=1 n=f6 v=114
110160 On ch=1 n=c#5 v=115
110280 On ch=1 n=c#5 v=0
110280 On ch=1 n=f6 v=0
110280 On ch=1 n=g#6 v=114
110280 On ch=1 n=g#5 v=114
110400 On ch=1 n=g#5 v=0
110400 On ch=1 n=g#6 v=0
110400 On ch=1 n=f7 v=114
110400 On ch=1 n=c#6 v=114
110520 On ch=1 n=c#6 v=0
110520 On ch=1 n=f7 v=0
110520 On ch=1 n=g#6 v=114
110520 On ch=1 n=g#5 v=114
110640 On ch=1 n=g#5 v=0
110640 On ch=1 n=g#6 v=0
110640 On ch=1 n=f6 v=114
110640 On ch=1 n=c#5 v=114
110760 On ch=1 n=c#5 v=0
110760 On ch=1 n=f6 v=0
110760 On ch=1 n=f6 v=114
110760 On ch=1 n=c#5 v=114
110880 On ch=1 n=c#5 v=0
110880 On ch=1 n=f6 v=0
110880 On ch=1 n=g#5 v=114
110880 On ch=1 n=g#4 v=115
111000 On ch=1 n=g#4 v=0
111000 On ch=1 n=g#5 v=0
111000 On ch=1 n=f5 v=114
111000 On ch=1 n=c#4 v=110
111120 On ch=1 n=c#4 v=0
111120 On ch=1 n=f5 v=0
111120 On ch=1 n=f5 v=114
111120 On ch=1 n=c#4 v=110
111240 On ch=1 n=c#4 v=0
111240 On ch=1 n=f5 v=0
111240 On ch=1 n=g#4 v=114
111240 On ch=1 n=g#3 v=110
111360 On ch=1 n=g#3 v=0
111360 On ch=1 n=g#4 v=0
111360 On ch=1 n=f4 v=110
111360 On ch=1 n=c#3 v=110
111480 On ch=1 n=c#3 v=0
111480 On ch=1 n=f4 v=0
111480 On ch=1 n=g#4 v=110
111480 On ch=1 n=g#3 v=110
111600 On ch=1 n=g#3 v=0
111600 On ch=1 n=g#4 v=0
111600 On ch=1 n=f5 v=114
111600 On ch=1 n=c#4 v=110
111720 On ch=1 n=c#4 v=0
111720 On ch=1 n=f5 v=0
111720 On ch=1 n=f5 v=114
111720 On ch=1 n=c#4 v=110
111840 On ch=1 n=c#4 v=0
111840 On ch=1 n=f5 v=0
111840 On ch=1 n=g#5 v=114
111840 On ch=1 n=g#4 v=110
111960 On ch=1 n=g#4 v=0
111960 On ch=1 n=g#5 v=0
111960 On ch=1 n=f6 v=114
111960 On ch=1 n=c#5 v=110
112080 On ch=1 n=c#5 v=0
112080 On ch=1 n=f6 v=0
112080 On ch=1 n=f6 v=114
112080 On ch=1 n=c#5 v=110
112200 On ch=1 n=c#5 v=0
112200 On ch=1 n=f6 v=0
112200 On ch=1 n=g#6 v=114
112200 On ch=1 n=g#5 v=114
112320 On ch=1 n=g#5 v=0
112320 On ch=1 n=g#6 v=0
112320 On ch=1 n=f7 v=114
112320 On ch=1 n=c#6 v=114
112440 On ch=1 n=c#6 v=0
112440 On ch=1 n=f7 v=0
112440 On ch=1 n=g#6 v=114
112440 On ch=1 n=g#5 v=114
112560 On ch=1 n=g#5 v=0
112560 On ch=1 n=g#6 v=0
112560 On ch=1 n=f6 v=114
112560 On ch=1 n=c#5 v=114
112680 On ch=1 n=c#5 v=0
112680 On ch=1 n=f6 v=0
112680 On ch=1 n=f6 v=114
112680 On ch=1 n=c#5 v=114
112800 On ch=1 n=c#5 v=0
112800 On ch=1 n=f6 v=0
112800 On ch=1 n=g#5 v=114
112800 On ch=1 n=g#4 v=110
112920 On ch=1 n=g#4 v=0
112920 On ch=1 n=g#5 v=0
112920 On ch=1 n=f5 v=114
112920 On ch=1 n=c#4 v=110
113040 On ch=1 n=c#4 v=0
113040 On ch=1 n=f5 v=0
113040 On ch=1 n=f5 v=114
113040 On ch=1 n=c#4 v=110
113160 On ch=1 n=c#4 v=0
113160 On ch=1 n=f5 v=0
113160 On ch=1 n=g#4 v=114
113160 On ch=1 n=g#3 v=110
113260 Par ch=1 c=64 v=0
113280 On ch=1 n=g#3 v=0
113280 On ch=1 n=g#4 v=0
113280 On ch=1 n=e4 v=110
113280 On ch=1 n=c#3 v=110
113280 Par ch=1 c=64 v=127
113400 On ch=1 n=c#3 v=0
113400 On ch=1 n=e4 v=0
113400 On ch=1 n=a#4 v=110
113400 On ch=1 n=g3 v=110
113520 On ch=1 n=g3 v=0
113520 On ch=1 n=a#4 v=0
113520 On ch=1 n=e5 v=114
113520 On ch=1 n=c#4 v=110
113640 On ch=1 n=c#4 v=0
113640 On ch=1 n=e5 v=0
113640 On ch=1 n=e5 v=114
113640 On ch=1 n=c#4 v=110
113760 On ch=1 n=c#4 v=0
113760 On ch=1 n=e5 v=0
113760 On ch=1 n=a#5 v=114
113760 On ch=1 n=g4 v=110
113880 On ch=1 n=g4 v=0
113880 On ch=1 n=a#5 v=0
113880 On ch=1 n=e6 v=114
113880 On ch=1 n=c#5 v=110
114000 On ch=1 n=c#5 v=0
114000 On ch=1 n=e6 v=0
114000 On ch=1 n=e6 v=114
114000 On ch=1 n=c#5 v=110
114120 On ch=1 n=c#5 v=0
114120 On ch=1 n=e6 v=0
114120 On ch=1 n=a#6 v=114
114120 On ch=1 n=g5 v=114
114240 On ch=1 n=g5 v=0
114240 On ch=1 n=a#6 v=0
114240 On ch=1 n=e7 v=114
114240 On ch=1 n=c#6 v=114
114360 On ch=1 n=c#6 v=0
114360 On ch=1 n=e7 v=0
114360 On ch=1 n=a#6 v=114
114360 On ch=1 n=g5 v=114
114480 On ch=1 n=g5 v=0
114480 On ch=1 n=a#6 v=0
114480 On ch=1 n=e6 v=114
114480 On ch=1 n=c#5 v=114
114600 On ch=1 n=c#5 v=0
114600 On ch=1 n=e6 v=0
114600 On ch=1 n=e6 v=114
114600 On ch=1 n=c#5 v=114
114720 On ch=1 n=c#5 v=0
114720 On ch=1 n=e6 v=0
114720 On ch=1 n=a#5 v=114
114720 On ch=1 n=g4 v=110
114840 On ch=1 n=g4 v=0
114840 On ch=1 n=a#5 v=0
114840 On ch=1 n=e5 v=114
114840 On ch=1 n=c#4 v=110
114960 On ch=1 n=c#4 v=0
114960 On ch=1 n=e5 v=0
114960 On ch=1 n=e5 v=114
114960 On ch=1 n=c#4 v=110
115080 On ch=1 n=c#4 v=0
115080 On ch=1 n=e5 v=0
115080 On ch=1 n=a#4 v=114
115080 On ch=1 n=g3 v=110
115180 Par ch=1 c=64 v=0
115200 On ch=1 n=g3 v=0
115200 On ch=1 n=a#4 v=0
115200 On ch=1 n=f4 v=110
115200 On ch=1 n=c#3 v=110
115200 Par ch=1 c=64 v=127
115320 On ch=1 n=c#3 v=0
115320 On ch=1 n=f4 v=0
115320 On ch=1 n=b4 v=110
115320 On ch=1 n=g#3 v=110
115440 On ch=1 n=g#3 v=0
115440 On ch=1 n=b4 v=0
115440 On ch=1 n=f5 v=114
115440 On ch=1 n=c#4 v=110
115560 On ch=1 n=c#4 v=0
115560 On ch=1 n=f5 v=0
115560 On ch=1 n=f5 v=114
115560 On ch=1 n=c#4 v=110
115680 On ch=1 n=c#4 v=0
115680 On ch=1 n=f5 v=0
115680 On ch=1 n=b5 v=114
115680 On ch=1 n=g#4 v=110
115800 On ch=1 n=g#4 v=0
115800 On ch=1 n=b5 v=0
115800 On ch=1 n=f6 v=114
115800 On ch=1 n=c#5 v=110
115920 On ch=1 n=c#5 v=0
115920 On ch=1 n=f6 v=0
115920 On ch=1 n=f6 v=114
115920 On ch=1 n=c#5 v=110
116040 On ch=1 n=c#5 v=0
116040 On ch=1 n=f6 v=0
116040 On ch=1 n=b6 v=114
116040 On ch=1 n=g#5 v=114
116160 On ch=1 n=g#5 v=0
116160 On ch=1 n=b6 v=0
116160 On ch=1 n=f7 v=114
116160 On ch=1 n=c#6 v=114
116280 On ch=1 n=c#6 v=0
116280 On ch=1 n=f7 v=0
116280 On ch=1 n=b6 v=114
116280 On ch=1 n=g#5 v=114
116400 On ch=1 n=g#5 v=0
116400 On ch=1 n=b6 v=0
116400 On ch=1 n=f6 v=114
116400 On ch=1 n=c#5 v=114
116520 On ch=1 n=c#5 v=0
116520 On ch=1 n=f6 v=0
116520 On ch=1 n=f6 v=114
116520 On ch=1 n=c#5 v=114
116640 On ch=1 n=c#5 v=0
116640 On ch=1 n=f6 v=0
116640 On ch=1 n=b5 v=114
116640 On ch=1 n=g#4 v=110
116760 On ch=1 n=g#4 v=0
116760 On ch=1 n=b5 v=0
116760 On ch=1 n=f5 v=114
116760 On ch=1 n=c#4 v=110
116880 On ch=1 n=c#4 v=0
116880 On ch=1 n=f5 v=0
116880 On ch=1 n=f5 v=114
116880 On ch=1 n=c#4 v=110
117000 On ch=1 n=c#4 v=0
117000 On ch=1 n=f5 v=0
117000 On ch=1 n=b4 v=114
117000 On ch=1 n=g#3 v=110
117100 Par ch=1 c=64 v=0
117120 On ch=1 n=g#3 v=0
117120 On ch=1 n=b4 v=0
117120 On ch=1 n=g4 v=114
117120 On ch=1 n=d3 v=110
117120 Par ch=1 c=64 v=127
117240 On ch=1 n=d3 v=0
117240 On ch=1 n=g4 v=0
117240 On ch=1 n=b4 v=114
117240 On ch=1 n=g3 v=110
117360 On ch=1 n=g3 v=0
117360 On ch=1 n=b4 v=0
117360 On ch=1 n=g5 v=114
117360 On ch=1 n=d4 v=110
117480 On ch=1 n=d4 v=0
117480 On ch=1 n=g5 v=0
117480 On ch=1 n=g5 v=114
117480 On ch=1 n=d4 v=110
117600 On ch=1 n=d4 v=0
117600 On ch=1 n=g5 v=0
117600 On ch=1 n=b5 v=114
117600 On ch=1 n=g4 v=110
117720 On ch=1 n=g4 v=0
117720 On ch=1 n=b5 v=0
117720 On ch=1 n=g6 v=110
117720 On ch=1 n=d5 v=110
117840 On ch=1 n=d5 v=0
117840 On ch=1 n=g6 v=0
117840 On ch=1 n=b5 v=110
117840 On ch=1 n=g4 v=110
117960 On ch=1 n=g4 v=0
117960 On ch=1 n=b5 v=0
117960 On ch=1 n=g5 v=110
117960 On ch=1 n=d4 v=110
118060 Par ch=1 c=64 v=0
118080 On ch=1 n=d4 v=0
118080 On ch=1 n=g5 v=0
118080 On ch=1 n=g#4 v=110
118080 On ch=1 n=d3 v=110
118080 Par ch=1 c=64 v=127
118200 On ch=1 n=d3 v=0
118200 On ch=1 n=g#4 v=0
118200 On ch=1 n=b4 v=110
118200 On ch=1 n=f3 v=110
118320 On ch=1 n=f3 v=0
118320 On ch=1 n=b4 v=0
118320 On ch=1 n=g#5 v=110
118320 On ch=1 n=d4 v=110
118440 On ch=1 n=d4 v=0
118440 On ch=1 n=g#5 v=0
118440 On ch=1 n=g#5 v=110
118440 On ch=1 n=d4 v=110
118560 On ch=1 n=d4 v=0
118560 On ch=1 n=g#5 v=0
118560 On ch=1 n=b5 v=110
118560 On ch=1 n=f4 v=110
118680 On ch=1 n=f4 v=0
118680 On ch=1 n=b5 v=0
118680 On ch=1 n=g#6 v=110
118680 On ch=1 n=d5 v=110
118800 On ch=1 n=d5 v=0
118800 On ch=1 n=g#6 v=0
118800 On ch=1 n=b5 v=110
118800 On ch=1 n=f4 v=110
118920 On ch=1 n=f4 v=0
118920 On ch=1 n=b5 v=0
118920 On ch=1 n=g#5 v=110
118920 On ch=1 n=d4 v=110
119020 Par ch=1 c=64 v=0
119040 On ch=1 n=d4 v=0
119040 On ch=1 n=g#5 v=0
119040 On ch=1 n=g4 v=110
119040 On ch=1 n=d#3 v=110
119040 Par ch=1 c=64 v=127
119160 On ch=1 n=d#3 v=0
119160 On ch=1 n=g4 v=0
119160 On ch=1 n=c5 v=110
119160 On ch=1 n=c4 v=110
119280 On ch=1 n=c4 v=0
119280 On ch=1 n=c5 v=0
119280 On ch=1 n=g5 v=110
119280 On ch=1 n=d#4 v=110
119400 On ch=1 n=d#4 v=0
119400 On ch=1 n=g5 v=0
119400 On ch=1 n=g5 v=110
119400 On ch=1 n=d#4 v=110
119520 On ch=1 n=d#4 v=0
119520 On ch=1 n=g5 v=0
119520 On ch=1 n=c5 v=110
119520 On ch=1 n=c6 v=110
119640 On ch=1 n=c6 v=0
119640 On ch=1 n=c5 v=0
119640 On ch=1 n=d#5 v=110
119640 On ch=1 n=g6 v=110
119760 On ch=1 n=g6 v=0
119760 On ch=1 n=d#5 v=0
119760 On ch=1 n=d#5 v=110
119760 On ch=1 n=g6 v=110
119880 On ch=1 n=g6 v=0
119880 On ch=1 n=d#5 v=0
119880 On ch=1 n=c6 v=110
119880 On ch=1 n=c7 v=110
120000 On ch=1 n=c7 v=0
120000 On ch=1 n=c6 v=0
120000 On ch=1 n=d#6 v=110
120000 On ch=1 n=g7 v=110
120120 On ch=1 n=g7 v=0
120120 On ch=1 n=d#6 v=0
120120 On ch=1 n=c6 v=110
120120 On ch=1 n=c7 v=110
120240 On ch=1 n=c7 v=0
120240 On ch=1 n=c6 v=0
120240 On ch=1 n=d#5 v=110
120240 On ch=1 n=g6 v=110
120360 On ch=1 n=g6 v=0
120360 On ch=1 n=d#5 v=0
120360 On ch=1 n=d#5 v=110
120360 On ch=1 n=g6 v=110
120480 On ch=1 n=g6 v=0
120480 On ch=1 n=d#5 v=0
120480 On ch=1 n=c6 v=110
120480 On ch=1 n=c5 v=110
120600 On ch=1 n=c5 v=0
120600 On ch=1 n=c6 v=0
120600 On ch=1 n=g5 v=110
120600 On ch=1 n=d#4 v=110
120720 On ch=1 n=d#4 v=0
120720 On ch=1 n=g5 v=0
120720 On ch=1 n=g5 v=110
120720 On ch=1 n=d#4 v=110
120840 On ch=1 n=d#4 v=0
120840 On ch=1 n=g5 v=0
120840 On ch=1 n=c5 v=110
120840 On ch=1 n=c4 v=110
120940 Par ch=1 c=64 v=0
120960 On ch=1 n=c4 v=0
120960 On ch=1 n=c5 v=0
120960 On ch=1 n=c5 v=110
120960 On ch=1 n=e3 v=110
120960 Par ch=1 c=64 v=127
121080 On ch=1 n=e3 v=0
121080 On ch=1 n=c5 v=0
121080 On ch=1 n=g5 v=110
121080 On ch=1 n=a#3 v=110
121200 On ch=1 n=a#3 v=0
121200 On ch=1 n=g5 v=0
121200 On ch=1 n=c6 v=110
121200 On ch=1 n=e4 v=110
121320 On ch=1 n=e4 v=0
121320 On ch=1 n=c6 v=0
121320 On ch=1 n=c6 v=110
121320 On ch=1 n=e4 v=110
121440 On ch=1 n=e4 v=0
121440 On ch=1 n=c6 v=0
121440 On ch=1 n=g6 v=121
121440 On ch=1 n=c5 v=119
121560 On ch=1 n=c5 v=0
121560 On ch=1 n=g6 v=0
121560 On ch=1 n=c7 v=121
121560 On ch=1 n=e5 v=119
121680 On ch=1 n=e5 v=0
121680 On ch=1 n=c7 v=0
121680 On ch=1 n=c7 v=121
121680 On ch=1 n=e5 v=119
121800 On ch=1 n=e5 v=0
121800 On ch=1 n=c7 v=0
121800 On ch=1 n=g7 v=121
121800 On ch=1 n=c6 v=119
121920 On ch=1 n=c6 v=0
121920 On ch=1 n=g7 v=0
121920 On ch=1 n=c8 v=121
121920 On ch=1 n=e6 v=119
122040 On ch=1 n=e6 v=0
122040 On ch=1 n=c8 v=0
122040 On ch=1 n=g7 v=121
122040 On ch=1 n=c6 v=119
122160 On ch=1 n=c6 v=0
122160 On ch=1 n=g7 v=0
122160 On ch=1 n=c7 v=121
122160 On ch=1 n=e5 v=119
122280 On ch=1 n=e5 v=0
122280 On ch=1 n=c7 v=0
122280 On ch=1 n=c7 v=121
122280 On ch=1 n=e5 v=119
122400 On ch=1 n=e5 v=0
122400 On ch=1 n=c7 v=0
122400 On ch=1 n=g6 v=110
122400 On ch=1 n=c5 v=110
122520 On ch=1 n=c5 v=0
122520 On ch=1 n=g6 v=0
122520 On ch=1 n=c6 v=110
122520 On ch=1 n=e4 v=110
122640 On ch=1 n=e4 v=0
122640 On ch=1 n=c6 v=0
122640 On ch=1 n=c6 v=110
122640 On ch=1 n=e4 v=110
122760 On ch=1 n=e4 v=0
122760 On ch=1 n=c6 v=0
122760 On ch=1 n=g5 v=110
122760 On ch=1 n=a#3 v=110
122860 Par ch=1 c=64 v=0
122880 On ch=1 n=a#3 v=0
122880 On ch=1 n=g5 v=0
122880 On ch=1 n=a#4 v=110
122880 On ch=1 n=f3 v=110
122880 Par ch=1 c=64 v=127
123000 On ch=1 n=f3 v=0
123000 On ch=1 n=a#4 v=0
123000 On ch=1 n=c5 v=110
123000 On ch=1 n=c4 v=110
123120 On ch=1 n=c4 v=0
123120 On ch=1 n=c5 v=0
123120 On ch=1 n=a#5 v=110
123120 On ch=1 n=f4 v=110
123240 On ch=1 n=f4 v=0
123240 On ch=1 n=a#5 v=0
123240 On ch=1 n=a#5 v=110
123240 On ch=1 n=f4 v=110
123360 On ch=1 n=f4 v=0
123360 On ch=1 n=a#5 v=0
123360 On ch=1 n=c6 v=110
123360 On ch=1 n=c5 v=110
123480 On ch=1 n=c5 v=0
123480 On ch=1 n=c6 v=0
123480 On ch=1 n=f5 v=110
123480 On ch=1 n=a#6 v=110
123600 On ch=1 n=a#6 v=0
123600 On ch=1 n=f5 v=0
123600 On ch=1 n=c6 v=110
123600 On ch=1 n=c5 v=110
123720 On ch=1 n=c5 v=0
123720 On ch=1 n=c6 v=0
123720 On ch=1 n=a#5 v=110
123720 On ch=1 n=f4 v=110
123820 Par ch=1 c=64 v=0
123840 On ch=1 n=f4 v=0
123840 On ch=1 n=a#5 v=0
123840 On ch=1 n=g#4 v=110
123840 On ch=1 n=f3 v=110
123840 Par ch=1 c=64 v=127
123960 On ch=1 n=f3 v=0
123960 On ch=1 n=g#4 v=0
123960 On ch=1 n=c5 v=110
123960 On ch=1 n=c4 v=110
124080 On ch=1 n=c4 v=0
124080 On ch=1 n=c5 v=0
124080 On ch=1 n=g#5 v=110
124080 On ch=1 n=f4 v=110
124200 On ch=1 n=f4 v=0
124200 On ch=1 n=g#5 v=0
124200 On ch=1 n=g#5 v=110
124200 On ch=1 n=f4 v=110
124320 On ch=1 n=f4 v=0
124320 On ch=1 n=g#5 v=0
124320 On ch=1 n=c6 v=110
124320 On ch=1 n=c5 v=110
124440 On ch=1 n=c5 v=0
124440 On ch=1 n=c6 v=0
124440 On ch=1 n=f5 v=110
124440 On ch=1 n=g#6 v=110
124560 On ch=1 n=g#6 v=0
124560 On ch=1 n=f5 v=0
124560 On ch=1 n=c6 v=110
124560 On ch=1 n=c5 v=110
124680 On ch=1 n=c5 v=0
124680 On ch=1 n=c6 v=0
124680 On ch=1 n=g#5 v=110
124680 On ch=1 n=f4 v=110
124800 On ch=1 n=f4 v=0
124800 On ch=1 n=g#5 v=0
124800 On ch=1 n=f3 v=110
124800 On ch=1 n=f4 v=110
124920 On ch=1 n=f4 v=0
124920 On ch=1 n=f3 v=0
124920 On ch=1 n=c4 v=110
124920 On ch=1 n=g#4 v=110
125040 On ch=1 n=g#4 v=0
125040 On ch=1 n=c4 v=0
125040 On ch=1 n=f5 v=110
125040 On ch=1 n=f4 v=110
125160 On ch=1 n=f4 v=0
125160 On ch=1 n=f5 v=0
125160 On ch=1 n=f5 v=110
125160 On ch=1 n=f4 v=110
125280 On ch=1 n=f4 v=0
125280 On ch=1 n=f5 v=0
125280 On ch=1 n=g#5 v=110
125280 On ch=1 n=c5 v=110
125400 On ch=1 n=c5 v=0
125400 On ch=1 n=g#5 v=0
125400 On ch=1 n=f5 v=110
125400 On ch=1 n=f6 v=110
125520 On ch=1 n=f6 v=0
125520 On ch=1 n=f5 v=0
125520 On ch=1 n=g#5 v=110
125520 On ch=1 n=c5 v=110
125640 On ch=1 n=c5 v=0
125640 On ch=1 n=g#5 v=0
125640 On ch=1 n=f5 v=110
125640 On ch=1 n=g#4 v=110
125760 On ch=1 n=g#4 v=0
125760 On ch=1 n=f5 v=0
125760 On ch=1 n=f4 v=110
125760 On ch=1 n=f3 v=110
125880 On ch=1 n=f3 v=0
125880 On ch=1 n=f4 v=0
125880 On ch=1 n=g#4 v=110
125880 On ch=1 n=c4 v=110
126000 On ch=1 n=c4 v=0
126000 On ch=1 n=g#4 v=0
126000 On ch=1 n=d5 v=110
126000 On ch=1 n=f4 v=110
126120 On ch=1 n=f4 v=0
126120 On ch=1 n=d5 v=0
126120 On ch=1 n=d5 v=110
126120 On ch=1 n=f4 v=110
126240 On ch=1 n=f4 v=0
126240 On ch=1 n=d5 v=0
126240 On ch=1 n=g#5 v=110
126240 On ch=1 n=c5 v=110
126360 On ch=1 n=c5 v=0
126360 On ch=1 n=g#5 v=0
126360 On ch=1 n=f5 v=110
126360 On ch=1 n=d6 v=110
126480 On ch=1 n=d6 v=0
126480 On ch=1 n=f5 v=0
126480 On ch=1 n=g#5 v=110
126480 On ch=1 n=c5 v=110
126600 On ch=1 n=c5 v=0
126600 On ch=1 n=g#5 v=0
126600 On ch=1 n=d5 v=110
126600 On ch=1 n=f4 v=110
126700 Par ch=1 c=64 v=0
126720 On ch=1 n=f4 v=0
126720 On ch=1 n=d5 v=0
126720 On ch=1 n=g4 v=100
126720 On ch=1 n=g3 v=111
126720 Par ch=1 c=64 v=127
126840 On ch=1 n=g3 v=0
126840 On ch=1 n=g4 v=0
126840 On ch=1 n=c5 v=100
126840 On ch=1 n=d#4 v=111
126960 On ch=1 n=d#4 v=0
126960 On ch=1 n=c5 v=0
126960 On ch=1 n=g5 v=100
126960 On ch=1 n=g4 v=111
127080 On ch=1 n=g4 v=0
127080 On ch=1 n=g5 v=0
127080 On ch=1 n=g5 v=101
127080 On ch=1 n=g4 v=111
127200 On ch=1 n=g4 v=0
127200 On ch=1 n=g5 v=0
127200 On ch=1 n=c6 v=101
127200 On ch=1 n=d#5 v=101
127320 On ch=1 n=d#5 v=0
127320 On ch=1 n=c6 v=0
127320 On ch=1 n=g6 v=101
127320 On ch=1 n=g5 v=101
127440 On ch=1 n=g5 v=0
127440 On ch=1 n=g6 v=0
127440 On ch=1 n=g6 v=102
127440 On ch=1 n=g5 v=102
127560 On ch=1 n=g5 v=0
127560 On ch=1 n=g6 v=0
127560 On ch=1 n=c7 v=102
127560 On ch=1 n=d#6 v=102
127680 On ch=1 n=d#6 v=0
127680 On ch=1 n=c7 v=0
127680 On ch=1 n=g7 v=103
127680 On ch=1 n=g6 v=103
127800 On ch=1 n=g6 v=0
127800 On ch=1 n=g7 v=0
127800 On ch=1 n=c7 v=103
127800 On ch=1 n=d#6 v=103
127920 On ch=1 n=d#6 v=0
127920 On ch=1 n=c7 v=0
127920 On ch=1 n=g6 v=103
127920 On ch=1 n=g5 v=103
128040 On ch=1 n=g5 v=0
128040 On ch=1 n=g6 v=0
128040 On ch=1 n=g6 v=104
128040 On ch=1 n=g5 v=104
128160 On ch=1 n=g5 v=0
128160 On ch=1 n=g6 v=0
128160 On ch=1 n=c6 v=104
128160 On ch=1 n=d#5 v=104
128280 On ch=1 n=d#5 v=0
128280 On ch=1 n=c6 v=0
128280 On ch=1 n=g5 v=104
128280 On ch=1 n=g4 v=114
128400 On ch=1 n=g4 v=0
128400 On ch=1 n=g5 v=0
128400 On ch=1 n=g5 v=105
128400 On ch=1 n=g4 v=114
128520 On ch=1 n=g4 v=0
128520 On ch=1 n=g5 v=0
128520 On ch=1 n=c5 v=105
128520 On ch=1 n=d#4 v=114
128640 On ch=1 n=d#4 v=0
128640 On ch=1 n=c5 v=0
128640 On ch=1 n=g#4 v=106
128640 On ch=1 n=g3 v=115
128760 On ch=1 n=g3 v=0
128760 On ch=1 n=g#4 v=0
128760 On ch=1 n=c5 v=106
128760 On ch=1 n=d#4 v=115
128880 On ch=1 n=d#4 v=0
128880 On ch=1 n=c5 v=0
128880 On ch=1 n=g#5 v=106
128880 On ch=1 n=g4 v=115
129000 On ch=1 n=g4 v=0
129000 On ch=1 n=g#5 v=0
129000 On ch=1 n=g#5 v=107
129000 On ch=1 n=g4 v=115
129120 On ch=1 n=g4 v=0
129120 On ch=1 n=g#5 v=0
129120 On ch=1 n=c6 v=107
129120 On ch=1 n=d#5 v=107
129240 On ch=1 n=d#5 v=0
129240 On ch=1 n=c6 v=0
129240 On ch=1 n=g#6 v=107
129240 On ch=1 n=g5 v=107
129360 On ch=1 n=g5 v=0
129360 On ch=1 n=g#6 v=0
129360 On ch=1 n=g#6 v=108
129360 On ch=1 n=g5 v=108
129480 On ch=1 n=g5 v=0
129480 On ch=1 n=g#6 v=0
129480 On ch=1 n=c7 v=108
129480 On ch=1 n=d#6 v=108
129600 On ch=1 n=d#6 v=0
129600 On ch=1 n=c7 v=0
129600 On ch=1 n=g#7 v=109
129600 On ch=1 n=g6 v=109
129720 On ch=1 n=g6 v=0
129720 On ch=1 n=g#7 v=0
129720 On ch=1 n=c7 v=109
129720 On ch=1 n=d#6 v=109
129840 On ch=1 n=d#6 v=0
129840 On ch=1 n=c7 v=0
129840 On ch=1 n=g#6 v=109
129840 On ch=1 n=g5 v=109
129960 On ch=1 n=g5 v=0
129960 On ch=1 n=g#6 v=0
129960 On ch=1 n=g#6 v=110
129960 On ch=1 n=g5 v=110
130080 On ch=1 n=g5 v=0
130080 On ch=1 n=g#6 v=0
130080 On ch=1 n=c6 v=110
130080 On ch=1 n=d#5 v=110
130200 On ch=1 n=d#5 v=0
130200 On ch=1 n=c6 v=0
130200 On ch=1 n=g#5 v=110
130200 On ch=1 n=g4 v=118
130320 On ch=1 n=g4 v=0
130320 On ch=1 n=g#5 v=0
130320 On ch=1 n=g#5 v=111
130320 On ch=1 n=g4 v=118
130440 On ch=1 n=g4 v=0
130440 On ch=1 n=g#5 v=0
130440 On ch=1 n=c5 v=111
130440 On ch=1 n=d#4 v=119
130540 Par ch=1 c=64 v=0
130560 On ch=1 n=d#4 v=0
130560 On ch=1 n=c5 v=0
130560 On ch=1 n=g#4 v=112
130560 On ch=1 n=g3 v=119
130560 Par ch=1 c=64 v=127
130680 On ch=1 n=g3 v=0
130680 On ch=1 n=g#4 v=0
130680 On ch=1 n=b4 v=112
130680 On ch=1 n=d4 v=119
130800 On ch=1 n=d4 v=0
130800 On ch=1 n=b4 v=0
130800 On ch=1 n=g#5 v=112
130800 On ch=1 n=f4 v=120
130920 On ch=1 n=f4 v=0
130920 On ch=1 n=g#5 v=0
130920 On ch=1 n=g#5 v=113
130920 On ch=1 n=g4 v=120
131040 On ch=1 n=g4 v=0
131040 On ch=1 n=g#5 v=0
131040 On ch=1 n=b5 v=113
131040 On ch=1 n=d5 v=113
131160 On ch=1 n=d5 v=0
131160 On ch=1 n=b5 v=0
131160 On ch=1 n=g#6 v=113
131160 On ch=1 n=d#5 v=113
131280 On ch=1 n=d#5 v=0
131280 On ch=1 n=g#6 v=0
131280 On ch=1 n=g#6 v=114
131280 On ch=1 n=g5 v=114
131400 On ch=1 n=g5 v=0
131400 On ch=1 n=g#6 v=0
131400 On ch=1 n=b6 v=114
131400 On ch=1 n=d6 v=114
131520 On ch=1 n=d6 v=0
131520 On ch=1 n=b6 v=0
131520 On ch=1 n=g#7 v=115
131520 On ch=1 n=f6 v=115
131640 On ch=1 n=f6 v=0
131640 On ch=1 n=g#7 v=0
131640 On ch=1 n=b6 v=115
131640 On ch=1 n=d6 v=115
131760 On ch=1 n=d6 v=0
131760 On ch=1 n=b6 v=0
131760 On ch=1 n=g#6 v=115
131760 On ch=1 n=g5 v=115
131880 On ch=1 n=g5 v=0
131880 On ch=1 n=g#6 v=0
131880 On ch=1 n=g#6 v=116
131880 On ch=1 n=f5 v=116
132000 On ch=1 n=f5 v=0
132000 On ch=1 n=g#6 v=0
132000 On ch=1 n=b5 v=116
132000 On ch=1 n=d5 v=122
132120 On ch=1 n=d5 v=0
132120 On ch=1 n=b5 v=0
132120 On ch=1 n=g#5 v=117
132120 On ch=1 n=g4 v=122
132240 On ch=1 n=g4 v=0
132240 On ch=1 n=g#5 v=0
132240 On ch=1 n=g#5 v=117
132240 On ch=1 n=f4 v=123
132360 On ch=1 n=f4 v=0
132360 On ch=1 n=g#5 v=0
132360 On ch=1 n=b4 v=117
132360 On ch=1 n=d4 v=123
132480 On ch=1 n=d4 v=0
132480 On ch=1 n=b4 v=0
132480 On ch=1 n=g4 v=118
132480 On ch=1 n=g3 v=123
132600 On ch=1 n=g3 v=0
132600 On ch=1 n=g4 v=0
132600 On ch=1 n=b4 v=118
132600 On ch=1 n=d4 v=123
132720 On ch=1 n=d4 v=0
132720 On ch=1 n=b4 v=0
132720 On ch=1 n=g5 v=118
132720 On ch=1 n=f4 v=124
132840 On ch=1 n=f4 v=0
132840 On ch=1 n=g5 v=0
132840 On ch=1 n=g5 v=119
132840 On ch=1 n=g4 v=124
132960 On ch=1 n=g4 v=0
132960 On ch=1 n=g5 v=0
132960 On ch=1 n=b5 v=119
132960 On ch=1 n=d5 v=119
133080 On ch=1 n=d5 v=0
133080 On ch=1 n=b5 v=0
133080 On ch=1 n=g6 v=120
133080 On ch=1 n=d#5 v=120
133200 On ch=1 n=d#5 v=0
133200 On ch=1 n=g6 v=0
133200 On ch=1 n=g6 v=120
133200 On ch=1 n=g5 v=120
133320 On ch=1 n=g5 v=0
133320 On ch=1 n=g6 v=0
133320 On ch=1 n=b6 v=120
133320 On ch=1 n=d6 v=120
133440 On ch=1 n=d6 v=0
133440 On ch=1 n=b6 v=0
133440 On ch=1 n=g7 v=121
133440 On ch=1 n=f6 v=121
133560 On ch=1 n=f6 v=0
133560 On ch=1 n=g7 v=0
133560 On ch=1 n=b6 v=121
133560 On ch=1 n=d6 v=121
133680 On ch=1 n=d6 v=0
133680 On ch=1 n=b6 v=0
133680 On ch=1 n=g6 v=122
133680 On ch=1 n=g5 v=122
133800 On ch=1 n=g5 v=0
133800 On ch=1 n=g6 v=0
133800 On ch=1 n=g6 v=122
133800 On ch=1 n=d#5 v=122
133920 On ch=1 n=d#5 v=0
133920 On ch=1 n=g6 v=0
133920 On ch=1 n=b5 v=122
133920 On ch=1 n=d5 v=126
134040 On ch=1 n=d5 v=0
134040 On ch=1 n=b5 v=0
134040 On ch=1 n=g5 v=123
134040 On ch=1 n=g4 v=127
134160 On ch=1 n=g4 v=0
134160 On ch=1 n=g5 v=0
134160 On ch=1 n=g5 v=123
134160 On ch=1 n=f4 v=127
134280 On ch=1 n=f4 v=0
134280 On ch=1 n=g5 v=0
134280 On ch=1 n=b4 v=123
134280 On ch=1 n=d4 v=127
134380 Par ch=1 c=64 v=0
134400 On ch=1 n=d4 v=0
134400 On ch=1 n=b4 v=0
134400 On ch=1 n=e4 v=127
134400 On ch=1 n=c3 v=127
134400 Par ch=1 c=64 v=127
134520 On ch=1 n=c3 v=0
134520 On ch=1 n=e4 v=0
134520 On ch=1 n=g4 v=121
134520 On ch=1 n=g3 v=121
134640 On ch=1 n=g3 v=0
134640 On ch=1 n=g4 v=0
134640 On ch=1 n=e5 v=124
134640 On ch=1 n=c4 v=121
134760 On ch=1 n=c4 v=0
134760 On ch=1 n=e5 v=0
134760 On ch=1 n=e5 v=124
134760 On ch=1 n=c4 v=121
134880 On ch=1 n=c4 v=0
134880 On ch=1 n=e5 v=0
134880 On ch=1 n=g5 v=124
134880 On ch=1 n=g4 v=121
135000 On ch=1 n=g4 v=0
135000 On ch=1 n=g5 v=0
135000 On ch=1 n=e6 v=124
135000 On ch=1 n=c5 v=121
135120 On ch=1 n=c5 v=0
135120 On ch=1 n=e6 v=0
135120 On ch=1 n=e6 v=124
135120 On ch=1 n=c5 v=121
135240 On ch=1 n=c5 v=0
135240 On ch=1 n=e6 v=0
135240 On ch=1 n=g6 v=124
135240 On ch=1 n=g5 v=124
135360 On ch=1 n=g5 v=0
135360 On ch=1 n=g6 v=0
135360 On ch=1 n=e7 v=121
135360 On ch=1 n=c6 v=121
135480 On ch=1 n=c6 v=0
135480 On ch=1 n=e7 v=0
135480 On ch=1 n=e7 v=121
135480 On ch=1 n=c6 v=121
135600 On ch=1 n=c6 v=0
135600 On ch=1 n=e7 v=0
135600 On ch=1 n=g7 v=121
135600 On ch=1 n=g6 v=121
135720 On ch=1 n=g6 v=0
135720 On ch=1 n=g7 v=0
135720 On ch=1 n=e8 v=121
135720 On ch=1 n=c7 v=121
135840 On ch=1 n=c7 v=0
135840 On ch=1 n=e8 v=0
135840 On ch=1 n=g7 v=121
135840 On ch=1 n=g6 v=121
135960 On ch=1 n=g6 v=0
135960 On ch=1 n=g7 v=0
135960 On ch=1 n=e7 v=121
135960 On ch=1 n=c6 v=121
136080 On ch=1 n=c6 v=0
136080 On ch=1 n=e7 v=0
136080 On ch=1 n=e7 v=121
136080 On ch=1 n=c6 v=121
136200 On ch=1 n=c6 v=0
136200 On ch=1 n=e7 v=0
136200 On ch=1 n=g6 v=121
136200 On ch=1 n=g5 v=121
136320 On ch=1 n=g5 v=0
136320 On ch=1 n=g6 v=0
136320 On ch=1 n=e6 v=124
136320 On ch=1 n=c5 v=121
136440 On ch=1 n=c5 v=0
136440 On ch=1 n=e6 v=0
136440 On ch=1 n=e6 v=124
136440 On ch=1 n=c5 v=121
136560 On ch=1 n=c5 v=0
136560 On ch=1 n=e6 v=0
136560 On ch=1 n=g5 v=124
136560 On ch=1 n=g4 v=121
136680 On ch=1 n=g4 v=0
136680 On ch=1 n=g5 v=0
136680 On ch=1 n=e5 v=124
136680 On ch=1 n=c4 v=121
136800 On ch=1 n=c4 v=0
136800 On ch=1 n=e5 v=0
136800 On ch=1 n=e5 v=124
136800 On ch=1 n=c4 v=121
136920 On ch=1 n=c4 v=0
136920 On ch=1 n=e5 v=0
136920 On ch=1 n=g3 v=121
136920 On ch=1 n=g4 v=121
137040 On ch=1 n=g4 v=0
137040 On ch=1 n=g3 v=0
137040 On ch=1 n=c3 v=121
137040 On ch=1 n=e4 v=121
137160 On ch=1 n=e4 v=0
137160 On ch=1 n=c3 v=0
137160 On ch=1 n=g3 v=121
137160 On ch=1 n=g4 v=121
137260 Par ch=1 c=64 v=0
137280 On ch=1 n=g4 v=0
137280 On ch=1 n=g3 v=0
137280 On ch=1 n=d4 v=121
137280 Par ch=1 c=64 v=127
137400 On ch=1 n=d4 v=0
137400 On ch=1 n=g3 v=121
137400 On ch=1 n=g4 v=121
137520 On ch=1 n=g4 v=0
137520 On ch=1 n=g3 v=0
137520 On ch=1 n=d5 v=127
137520 On ch=1 n=c3 v=121
137640 On ch=1 n=c3 v=0
137640 On ch=1 n=d5 v=0
137640 On ch=1 n=g3 v=121
137640 On ch=1 n=g4 v=121
137760 On ch=1 n=g4 v=0
137760 On ch=1 n=g3 v=0
137760 On ch=1 n=f4 v=121
137880 On ch=1 n=f4 v=0
137880 On ch=1 n=g3 v=121
137880 On ch=1 n=g4 v=121
138000 On ch=1 n=g4 v=0
138000 On ch=1 n=g3 v=0
138000 On ch=1 n=f5 v=127
138000 On ch=1 n=c3 v=121
138120 On ch=1 n=c3 v=0
138120 On ch=1 n=f5 v=0
138120 On ch=1 n=g3 v=121
138120 On ch=1 n=g4 v=121
138220 Par ch=1 c=64 v=0
138240 On ch=1 n=g4 v=0
138240 On ch=1 n=g3 v=0
138240 On ch=1 n=c3 v=121
138240 On ch=1 n=e4 v=121
138240 Par ch=1 c=64 v=0
138260 Par ch=1 c=64 v=127
138360 On ch=1 n=e4 v=0
138360 On ch=1 n=c3 v=0
138360 On ch=1 n=g3 v=121
138360 On ch=1 n=g4 v=121
138480 On ch=1 n=g4 v=0
138480 On ch=1 n=g3 v=0
138480 On ch=1 n=e5 v=127
138480 On ch=1 n=c4 v=121
138600 On ch=1 n=c4 v=0
138600 On ch=1 n=e5 v=0
138600 On ch=1 n=e5 v=124
138600 On ch=1 n=c4 v=121
138720 On ch=1 n=c4 v=0
138720 On ch=1 n=e5 v=0
138720 On ch=1 n=g5 v=124
138720 On ch=1 n=g4 v=121
138840 On ch=1 n=g4 v=0
138840 On ch=1 n=g5 v=0
138840 On ch=1 n=e6 v=124
138840 On ch=1 n=c5 v=121
138960 On ch=1 n=c5 v=0
138960 On ch=1 n=e6 v=0
138960 On ch=1 n=e6 v=124
138960 On ch=1 n=c5 v=121
139080 On ch=1 n=c5 v=0
139080 On ch=1 n=e6 v=0
139080 On ch=1 n=g5 v=124
139080 On ch=1 n=g6 v=124
139200 On ch=1 n=g6 v=0
139200 On ch=1 n=g5 v=0
139200 On ch=1 n=e7 v=121
139200 On ch=1 n=c6 v=121
139320 On ch=1 n=c6 v=0
139320 On ch=1 n=e7 v=0
139320 On ch=1 n=e7 v=121
139320 On ch=1 n=c6 v=121
139440 On ch=1 n=c6 v=0
139440 On ch=1 n=e7 v=0
139440 On ch=1 n=g7 v=121
139440 On ch=1 n=g6 v=121
139560 On ch=1 n=g6 v=0
139560 On ch=1 n=g7 v=0
139560 On ch=1 n=e8 v=121
139560 On ch=1 n=c7 v=121
139680 On ch=1 n=c7 v=0
139680 On ch=1 n=e8 v=0
139680 On ch=1 n=g7 v=121
139680 On ch=1 n=g6 v=121
139800 On ch=1 n=g6 v=0
139800 On ch=1 n=g7 v=0
139800 On ch=1 n=e7 v=121
139800 On ch=1 n=c6 v=121
139920 On ch=1 n=c6 v=0
139920 On ch=1 n=e7 v=0
139920 On ch=1 n=e7 v=121
139920 On ch=1 n=c6 v=121
140040 On ch=1 n=c6 v=0
140040 On ch=1 n=e7 v=0
140040 On ch=1 n=g6 v=121
140040 On ch=1 n=g5 v=121
140160 On ch=1 n=g5 v=0
140160 On ch=1 n=g6 v=0
140160 On ch=1 n=e6 v=124
140160 On ch=1 n=c5 v=121
140280 On ch=1 n=c5 v=0
140280 On ch=1 n=e6 v=0
140280 On ch=1 n=e6 v=124
140280 On ch=1 n=c5 v=121
140400 On ch=1 n=c5 v=0
140400 On ch=1 n=e6 v=0
140400 On ch=1 n=g5 v=124
140400 On ch=1 n=g4 v=121
140520 On ch=1 n=g4 v=0
140520 On ch=1 n=g5 v=0
140520 On ch=1 n=e5 v=124
140520 On ch=1 n=c4 v=121
140640 On ch=1 n=c4 v=0
140640 On ch=1 n=e5 v=0
140640 On ch=1 n=e5 v=124
140640 On ch=1 n=c4 v=121
140760 On ch=1 n=c4 v=0
140760 On ch=1 n=e5 v=0
140760 On ch=1 n=g4 v=121
140760 On ch=1 n=g3 v=121
140880 On ch=1 n=g3 v=0
140880 On ch=1 n=g4 v=0
140880 On ch=1 n=e4 v=121
140880 On ch=1 n=c3 v=121
141000 On ch=1 n=c3 v=0
141000 On ch=1 n=e4 v=0
141000 On ch=1 n=g4 v=121
141000 On ch=1 n=g3 v=121
141100 Par ch=1 c=64 v=0
141120 On ch=1 n=g3 v=0
141120 On ch=1 n=g4 v=0
141120 On ch=1 n=d4 v=121
141120 On ch=1 n=b3 v=121
141120 Par ch=1 c=64 v=127
141240 On ch=1 n=b3 v=0
141240 On ch=1 n=d4 v=0
141240 On ch=1 n=g4 v=121
141240 On ch=1 n=g3 v=121
141360 On ch=1 n=g3 v=0
141360 On ch=1 n=g4 v=0
141360 On ch=1 n=d5 v=127
141360 On ch=1 n=c3 v=121
141480 On ch=1 n=c3 v=0
141480 On ch=1 n=d5 v=0
141480 On ch=1 n=g4 v=121
141480 On ch=1 n=g3 v=121
141580 Par ch=1 c=64 v=0
141600 On ch=1 n=g3 v=0
141600 On ch=1 n=g4 v=0
141600 On ch=1 n=c4 v=121
141600 On ch=1 n=a3 v=121
141600 Par ch=1 c=64 v=127
141720 On ch=1 n=a3 v=0
141720 On ch=1 n=c4 v=0
141720 On ch=1 n=g4 v=121
141720 On ch=1 n=g3 v=121
141840 On ch=1 n=g3 v=0
141840 On ch=1 n=g4 v=0
141840 On ch=1 n=c5 v=127
141840 On ch=1 n=c3 v=121
141960 On ch=1 n=c3 v=0
141960 On ch=1 n=c5 v=0
141960 On ch=1 n=g4 v=121
141960 On ch=1 n=g3 v=121
142080 On ch=1 n=g3 v=0
142080 On ch=1 n=g4 v=0
142080 On ch=1 n=d4 v=121
142080 On ch=1 n=c3 v=121
142080 Par ch=1 c=64 v=0
142100 Par ch=1 c=64 v=127
142200 On ch=1 n=c3 v=0
142200 On ch=1 n=d4 v=0
142200 On ch=1 n=g4 v=121
142200 On ch=1 n=g3 v=121
142320 On ch=1 n=g3 v=0
142320 On ch=1 n=g4 v=0
142320 On ch=1 n=d5 v=127
142320 On ch=1 n=b3 v=121
142440 On ch=1 n=b3 v=0
142440 On ch=1 n=d5 v=0
142440 On ch=1 n=d5 v=124
142440 On ch=1 n=c4 v=121
142560 On ch=1 n=c4 v=0
142560 On ch=1 n=d5 v=0
142560 On ch=1 n=g5 v=124
142560 On ch=1 n=g4 v=121
142680 On ch=1 n=g4 v=0
142680 On ch=1 n=g5 v=0
142680 On ch=1 n=d6 v=124
142680 On ch=1 n=b4 v=121
142800 On ch=1 n=b4 v=0
142800 On ch=1 n=d6 v=0
142800 On ch=1 n=d6 v=124
142800 On ch=1 n=c5 v=124
142920 On ch=1 n=c5 v=0
142920 On ch=1 n=d6 v=0
142920 On ch=1 n=g6 v=124
142920 On ch=1 n=g5 v=124
143040 On ch=1 n=g5 v=0
143040 On ch=1 n=g6 v=0
143040 On ch=1 n=d7 v=121
143040 On ch=1 n=b5 v=121
143160 On ch=1 n=b5 v=0
143160 On ch=1 n=d7 v=0
143160 On ch=1 n=d7 v=121
143160 On ch=1 n=c6 v=121
143280 On ch=1 n=c6 v=0
143280 On ch=1 n=d7 v=0
143280 On ch=1 n=g7 v=121
143280 On ch=1 n=g6 v=121
143400 On ch=1 n=g6 v=0
143400 On ch=1 n=g7 v=0
143400 On ch=1 n=d8 v=121
143400 On ch=1 n=b6 v=121
143520 On ch=1 n=b6 v=0
143520 On ch=1 n=d8 v=0
143520 On ch=1 n=g7 v=121
143520 On ch=1 n=g6 v=121
143640 On ch=1 n=g6 v=0
143640 On ch=1 n=g7 v=0
143640 On ch=1 n=d7 v=121
143640 On ch=1 n=c6 v=121
143760 On ch=1 n=c6 v=0
143760 On ch=1 n=d7 v=0
143760 On ch=1 n=d7 v=121
143760 On ch=1 n=b5 v=121
143880 On ch=1 n=b5 v=0
143880 On ch=1 n=d7 v=0
143880 On ch=1 n=g6 v=121
143880 On ch=1 n=g5 v=121
144000 On ch=1 n=g5 v=0
144000 On ch=1 n=g6 v=0
144000 On ch=1 n=d6 v=124
144000 On ch=1 n=c5 v=119
144120 On ch=1 n=c5 v=0
144120 On ch=1 n=d6 v=0
144120 On ch=1 n=d6 v=124
144120 On ch=1 n=b4 v=119
144240 On ch=1 n=b4 v=0
144240 On ch=1 n=d6 v=0
144240 On ch=1 n=g5 v=124
144240 On ch=1 n=b4 v=119
144360 On ch=1 n=b4 v=0
144360 On ch=1 n=g5 v=0
144360 On ch=1 n=d5 v=124
144360 On ch=1 n=c4 v=119
144480 On ch=1 n=c4 v=0
144480 On ch=1 n=d5 v=0
144480 On ch=1 n=d5 v=124
144480 On ch=1 n=b3 v=119
144600 On ch=1 n=b3 v=0
144600 On ch=1 n=d5 v=0
144600 On ch=1 n=g4 v=119
144600 On ch=1 n=g3 v=119
144720 On ch=1 n=g3 v=0
144720 On ch=1 n=g4 v=0
144720 On ch=1 n=d4 v=119
144720 On ch=1 n=c3 v=119
144840 On ch=1 n=c3 v=0
144840 On ch=1 n=d4 v=0
144840 On ch=1 n=g4 v=119
144840 On ch=1 n=g3 v=119
144960 On ch=1 n=g3 v=0
144960 On ch=1 n=g4 v=0
144960 On ch=1 n=c4 v=119
144960 On ch=1 n=a3 v=119
144960 Par ch=1 c=64 v=0
144980 Par ch=1 c=64 v=127
145080 On ch=1 n=a3 v=0
145080 On ch=1 n=c4 v=0
145080 On ch=1 n=f4 v=119
145080 On ch=1 n=f3 v=119
145200 On ch=1 n=f3 v=0
145200 On ch=1 n=f4 v=0
145200 On ch=1 n=c5 v=127
145200 On ch=1 n=c3 v=119
145320 On ch=1 n=c3 v=0
145320 On ch=1 n=c5 v=0
145320 On ch=1 n=f4 v=119
145320 On ch=1 n=f3 v=119
145440 On ch=1 n=f3 v=0
145440 On ch=1 n=f4 v=0
145440 On ch=1 n=c4 v=119
145440 On ch=1 n=a3 v=119
145560 On ch=1 n=a3 v=0
145560 On ch=1 n=c4 v=0
145560 On ch=1 n=f4 v=119
145560 On ch=1 n=f3 v=119
145680 On ch=1 n=f3 v=0
145680 On ch=1 n=f4 v=0
145680 On ch=1 n=a4 v=127
145680 On ch=1 n=c3 v=119
145800 On ch=1 n=c3 v=0
145800 On ch=1 n=a4 v=0
145800 On ch=1 n=f4 v=119
145800 On ch=1 n=f3 v=119
145900 Par ch=1 c=64 v=0
145920 On ch=1 n=f3 v=0
145920 On ch=1 n=f4 v=0
145920 On ch=1 n=c4 v=119
145920 On ch=1 n=c3 v=119
145920 Par ch=1 c=64 v=127
146040 On ch=1 n=c3 v=0
146040 On ch=1 n=c4 v=0
146040 On ch=1 n=f4 v=119
146040 On ch=1 n=g#3 v=119
146160 On ch=1 n=g#3 v=0
146160 On ch=1 n=f4 v=0
146160 On ch=1 n=c5 v=127
146160 On ch=1 n=c4 v=119
146280 On ch=1 n=c4 v=0
146280 On ch=1 n=c5 v=0
146280 On ch=1 n=c5 v=119
146280 On ch=1 n=c4 v=119
146400 On ch=1 n=c4 v=0
146400 On ch=1 n=c5 v=0
146400 On ch=1 n=f5 v=124
146400 On ch=1 n=g#4 v=119
146520 On ch=1 n=g#4 v=0
146520 On ch=1 n=f5 v=0
146520 On ch=1 n=c6 v=124
146520 On ch=1 n=c5 v=119
146640 On ch=1 n=c5 v=0
146640 On ch=1 n=c6 v=0
146640 On ch=1 n=c6 v=124
146640 On ch=1 n=c5 v=119
146760 On ch=1 n=c5 v=0
146760 On ch=1 n=c6 v=0
146760 On ch=1 n=f6 v=124
146760 On ch=1 n=g#5 v=124
146880 On ch=1 n=g#5 v=0
146880 On ch=1 n=f6 v=0
146880 On ch=1 n=c7 v=122
146880 On ch=1 n=c6 v=121
147000 On ch=1 n=c6 v=0
147000 On ch=1 n=c7 v=0
147000 On ch=1 n=c7 v=122
147000 On ch=1 n=c6 v=121
147120 On ch=1 n=c6 v=0
147120 On ch=1 n=c7 v=0
147120 On ch=1 n=f7 v=122
147120 On ch=1 n=g#6 v=121
147240 On ch=1 n=g#6 v=0
147240 On ch=1 n=f7 v=0
147240 On ch=1 n=c8 v=122
147240 On ch=1 n=c7 v=121
147360 On ch=1 n=c7 v=0
147360 On ch=1 n=c8 v=0
147360 On ch=1 n=f7 v=122
147360 On ch=1 n=g#6 v=121
147480 On ch=1 n=g#6 v=0
147480 On ch=1 n=f7 v=0
147480 On ch=1 n=c7 v=122
147480 On ch=1 n=c6 v=121
147600 On ch=1 n=c6 v=0
147600 On ch=1 n=c7 v=0
147600 On ch=1 n=c7 v=122
147600 On ch=1 n=c6 v=121
147720 On ch=1 n=c6 v=0
147720 On ch=1 n=c7 v=0
147720 On ch=1 n=f6 v=122
147720 On ch=1 n=g#5 v=121
147840 On ch=1 n=g#5 v=0
147840 On ch=1 n=f6 v=0
147840 On ch=1 n=c6 v=124
147840 On ch=1 n=c5 v=119
147960 On ch=1 n=c5 v=0
147960 On ch=1 n=c6 v=0
147960 On ch=1 n=c6 v=124
147960 On ch=1 n=c5 v=119
148080 On ch=1 n=c5 v=0
148080 On ch=1 n=c6 v=0
148080 On ch=1 n=f5 v=124
148080 On ch=1 n=g#4 v=119
148200 On ch=1 n=g#4 v=0
148200 On ch=1 n=f5 v=0
148200 On ch=1 n=c5 v=124
148200 On ch=1 n=c4 v=119
148320 On ch=1 n=c4 v=0
148320 On ch=1 n=c5 v=0
148320 On ch=1 n=c5 v=124
148320 On ch=1 n=c4 v=119
148440 On ch=1 n=c4 v=0
148440 On ch=1 n=c5 v=0
148440 On ch=1 n=f4 v=119
148440 On ch=1 n=g#3 v=119
148560 On ch=1 n=g#3 v=0
148560 On ch=1 n=f4 v=0
148560 On ch=1 n=c4 v=119
148560 On ch=1 n=c3 v=119
148680 On ch=1 n=c3 v=0
148680 On ch=1 n=c4 v=0
148680 On ch=1 n=f4 v=119
148680 On ch=1 n=g#3 v=119
148800 On ch=1 n=g#3 v=0
148800 On ch=1 n=f4 v=0
148800 On ch=1 n=c4 v=119
148800 On ch=1 n=c3 v=119
148920 On ch=1 n=c3 v=0
148920 On ch=1 n=c4 v=0
148920 On ch=1 n=f4 v=119
148920 On ch=1 n=g#3 v=119
149040 On ch=1 n=g#3 v=0
149040 On ch=1 n=f4 v=0
149040 On ch=1 n=c5 v=127
149040 On ch=1 n=c4 v=119
149160 On ch=1 n=c4 v=0
149160 On ch=1 n=c5 v=0
149160 On ch=1 n=f4 v=119
149160 On ch=1 n=g#3 v=119
149280 On ch=1 n=g#3 v=0
149280 On ch=1 n=f4 v=0
149280 On ch=1 n=c4 v=119
149280 On ch=1 n=c3 v=119
149400 On ch=1 n=c3 v=0
149400 On ch=1 n=c4 v=0
149400 On ch=1 n=f4 v=119
149400 On ch=1 n=g#3 v=119
149520 On ch=1 n=g#3 v=0
149520 On ch=1 n=f4 v=0
149520 On ch=1 n=d5 v=127
149520 On ch=1 n=c4 v=119
149640 On ch=1 n=c4 v=0
149640 On ch=1 n=d5 v=0
149640 On ch=1 n=f4 v=119
149640 On ch=1 n=g#3 v=119
149740 Par ch=1 c=64 v=0
149760 On ch=1 n=g#3 v=0
149760 On ch=1 n=f4 v=0
149760 On ch=1 n=c4 v=119
149760 On ch=1 n=c3 v=119
149760 Par ch=1 c=64 v=127
149880 On ch=1 n=c3 v=0
149880 On ch=1 n=c4 v=0
149880 On ch=1 n=f4 v=119
149880 On ch=1 n=g#3 v=119
150000 On ch=1 n=g#3 v=0
150000 On ch=1 n=f4 v=0
150000 On ch=1 n=c5 v=127
150000 On ch=1 n=c4 v=119
150120 On ch=1 n=c4 v=0
150120 On ch=1 n=c5 v=0
150120 On ch=1 n=c5 v=119
150120 On ch=1 n=c4 v=119
150240 On ch=1 n=c4 v=0
150240 On ch=1 n=c5 v=0
150240 On ch=1 n=f5 v=124
150240 On ch=1 n=g#4 v=119
150360 On ch=1 n=g#4 v=0
150360 On ch=1 n=f5 v=0
150360 On ch=1 n=c6 v=120
150360 On ch=1 n=c5 v=119
150480 On ch=1 n=c5 v=0
150480 On ch=1 n=c6 v=0
150480 On ch=1 n=c6 v=120
150480 On ch=1 n=c5 v=119
150600 On ch=1 n=c5 v=0
150600 On ch=1 n=c6 v=0
150600 On ch=1 n=f6 v=120
150600 On ch=1 n=g#5 v=120
150720 On ch=1 n=g#5 v=0
150720 On ch=1 n=f6 v=0
150720 On ch=1 n=c7 v=122
150720 On ch=1 n=c6 v=121
150840 On ch=1 n=c6 v=0
150840 On ch=1 n=c7 v=0
150840 On ch=1 n=c7 v=122
150840 On ch=1 n=c6 v=121
150960 On ch=1 n=c6 v=0
150960 On ch=1 n=c7 v=0
150960 On ch=1 n=f7 v=122
150960 On ch=1 n=g#6 v=121
151080 On ch=1 n=g#6 v=0
151080 On ch=1 n=f7 v=0
151080 On ch=1 n=c8 v=122
151080 On ch=1 n=c7 v=121
151200 On ch=1 n=c7 v=0
151200 On ch=1 n=c8 v=0
151200 On ch=1 n=f7 v=122
151200 On ch=1 n=g#6 v=121
151320 On ch=1 n=g#6 v=0
151320 On ch=1 n=f7 v=0
151320 On ch=1 n=c7 v=122
151320 On ch=1 n=c6 v=121
151440 On ch=1 n=c6 v=0
151440 On ch=1 n=c7 v=0
151440 On ch=1 n=c7 v=122
151440 On ch=1 n=c6 v=121
151560 On ch=1 n=c6 v=0
151560 On ch=1 n=c7 v=0
151560 On ch=1 n=f6 v=122
151560 On ch=1 n=g#5 v=121
151680 On ch=1 n=g#5 v=0
151680 On ch=1 n=f6 v=0
151680 On ch=1 n=c6 v=120
151680 On ch=1 n=c5 v=119
151800 On ch=1 n=c5 v=0
151800 On ch=1 n=c6 v=0
151800 On ch=1 n=c6 v=120
151800 On ch=1 n=c5 v=119
151920 On ch=1 n=c5 v=0
151920 On ch=1 n=c6 v=0
151920 On ch=1 n=f5 v=120
151920 On ch=1 n=g#4 v=119
152040 On ch=1 n=g#4 v=0
152040 On ch=1 n=f5 v=0
152040 On ch=1 n=c5 v=120
152040 On ch=1 n=c4 v=119
152160 On ch=1 n=c4 v=0
152160 On ch=1 n=c5 v=0
152160 On ch=1 n=c5 v=120
152160 On ch=1 n=c4 v=119
152280 On ch=1 n=c4 v=0
152280 On ch=1 n=c5 v=0
152280 On ch=1 n=f4 v=119
152280 On ch=1 n=g#3 v=119
152400 On ch=1 n=g#3 v=0
152400 On ch=1 n=f4 v=0
152400 On ch=1 n=c4 v=119
152400 On ch=1 n=c3 v=119
152520 On ch=1 n=c3 v=0
152520 On ch=1 n=c4 v=0
152520 On ch=1 n=f4 v=119
152520 On ch=1 n=g#3 v=119
152640 On ch=1 n=g#3 v=0
152640 On ch=1 n=f4 v=0
152640 On ch=1 n=c4 v=119
152640 On ch=1 n=c3 v=119
152760 On ch=1 n=c3 v=0
152760 On ch=1 n=c4 v=0
152760 On ch=1 n=f4 v=119
152760 On ch=1 n=g#3 v=119
152880 On ch=1 n=g#3 v=0
152880 On ch=1 n=f4 v=0
152880 On ch=1 n=c5 v=127
152880 On ch=1 n=c4 v=119
153000 On ch=1 n=c4 v=0
153000 On ch=1 n=c5 v=0
153000 On ch=1 n=f4 v=119
153000 On ch=1 n=g#3 v=119
153120 On ch=1 n=g#3 v=0
153120 On ch=1 n=f4 v=0
153120 On ch=1 n=c4 v=119
153120 On ch=1 n=c3 v=119
153240 On ch=1 n=c3 v=0
153240 On ch=1 n=c4 v=0
153240 On ch=1 n=f4 v=119
153240 On ch=1 n=g#3 v=119
153360 On ch=1 n=g#3 v=0
153360 On ch=1 n=f4 v=0
153360 On ch=1 n=d5 v=127
153360 On ch=1 n=c4 v=119
153480 On ch=1 n=c4 v=0
153480 On ch=1 n=d5 v=0
153480 On ch=1 n=f4 v=119
153480 On ch=1 n=g#3 v=119
153580 Par ch=1 c=64 v=0
153600 On ch=1 n=g#3 v=0
153600 On ch=1 n=f4 v=0
153600 On ch=1 n=e4 v=107
153600 On ch=1 n=c3 v=120
153600 Par ch=1 c=64 v=127
153720 On ch=1 n=c3 v=0
153720 On ch=1 n=e4 v=0
153720 On ch=1 n=g3 v=107
153720 On ch=1 n=g4 v=107
153840 On ch=1 n=g4 v=0
153840 On ch=1 n=g3 v=0
153840 On ch=1 n=e5 v=127
153840 On ch=1 n=c4 v=108
153960 On ch=1 n=c4 v=0
153960 On ch=1 n=e5 v=0
153960 On ch=1 n=g3 v=109
153960 On ch=1 n=g4 v=109
154080 On ch=1 n=g4 v=0
154080 On ch=1 n=g3 v=0
154080 On ch=1 n=e4 v=110
154080 On ch=1 n=g2 v=120
154200 On ch=1 n=g2 v=0
154200 On ch=1 n=e4 v=0
154200 On ch=1 n=g3 v=110
154200 On ch=1 n=g4 v=110
154320 On ch=1 n=g4 v=0
154320 On ch=1 n=g3 v=0
154320 On ch=1 n=e5 v=110
154320 On ch=1 n=c4 v=111
154440 On ch=1 n=c4 v=0
154440 On ch=1 n=e5 v=0
154440 On ch=1 n=g3 v=112
154440 On ch=1 n=g4 v=112
154560 On ch=1 n=g4 v=0
154560 On ch=1 n=g3 v=0
154560 On ch=1 n=e4 v=113
154560 On ch=1 n=c3 v=125
154680 On ch=1 n=c3 v=0
154680 On ch=1 n=e4 v=0
154680 On ch=1 n=g3 v=113
154680 On ch=1 n=g4 v=113
154800 On ch=1 n=g4 v=0
154800 On ch=1 n=g3 v=0
154800 On ch=1 n=e5 v=113
154800 On ch=1 n=c4 v=114
154920 On ch=1 n=c4 v=0
154920 On ch=1 n=e5 v=0
154920 On ch=1 n=g3 v=115
154920 On ch=1 n=g4 v=115
155040 On ch=1 n=g4 v=0
155040 On ch=1 n=g3 v=0
155040 On ch=1 n=e4 v=116
155040 On ch=1 n=g2 v=125
155160 On ch=1 n=g2 v=0
155160 On ch=1 n=e4 v=0
155160 On ch=1 n=g3 v=116
155160 On ch=1 n=g4 v=116
155280 On ch=1 n=g4 v=0
155280 On ch=1 n=g3 v=0
155280 On ch=1 n=e5 v=116
155280 On ch=1 n=c4 v=117
155400 On ch=1 n=c4 v=0
155400 On ch=1 n=e5 v=0
155400 On ch=1 n=g3 v=118
155400 On ch=1 n=g4 v=118
155520 On ch=1 n=g4 v=0
155520 On ch=1 n=g3 v=0
155520 On ch=1 n=c3 v=127
155520 On ch=1 n=e4 v=119
155640 On ch=1 n=e4 v=0
155640 On ch=1 n=c3 v=0
155640 On ch=1 n=g4 v=119
155640 On ch=1 n=g3 v=119
155760 On ch=1 n=g3 v=0
155760 On ch=1 n=g4 v=0
155760 On ch=1 n=e5 v=119
155760 On ch=1 n=c4 v=120
155880 On ch=1 n=c4 v=0
155880 On ch=1 n=e5 v=0
155880 On ch=1 n=g4 v=121
155880 On ch=1 n=g3 v=121
156000 On ch=1 n=g3 v=0
156000 On ch=1 n=g4 v=0
156000 On ch=1 n=g2 v=127
156000 On ch=1 n=e4 v=122
156120 On ch=1 n=e4 v=0
156120 On ch=1 n=g2 v=0
156120 On ch=1 n=g3 v=122
156120 On ch=1 n=g4 v=122
156240 On ch=1 n=g4 v=0
156240 On ch=1 n=g3 v=0
156240 On ch=1 n=e5 v=122
156240 On ch=1 n=c4 v=123
156360 On ch=1 n=c4 v=0
156360 On ch=1 n=e5 v=0
156360 On ch=1 n=g4 v=124
156360 On ch=1 n=g3 v=124
156480 On ch=1 n=g3 v=0
156480 On ch=1 n=g4 v=0
156480 On ch=1 n=e4 v=125
156480 On ch=1 n=c3 v=127
156600 On ch=1 n=c3 v=0
156600 On ch=1 n=e4 v=0
156600 On ch=1 n=g3 v=125
156600 On ch=1 n=g4 v=125
156720 On ch=1 n=g4 v=0
156720 On ch=1 n=g3 v=0
156720 On ch=1 n=e5 v=125
156720 On ch=1 n=c4 v=126
156840 On ch=1 n=c4 v=0
156840 On ch=1 n=e5 v=0
156840 On ch=1 n=g3 v=127
156840 On ch=1 n=g4 v=127
156960 On ch=1 n=g4 v=0
156960 On ch=1 n=g3 v=0
156960 On ch=1 n=e4 v=127
156960 On ch=1 n=g2 v=127
157080 On ch=1 n=g2 v=0
157080 On ch=1 n=e4 v=0
157080 On ch=1 n=g4 v=127
157080 On ch=1 n=g3 v=127
157200 On ch=1 n=g3 v=0
157200 On ch=1 n=g4 v=0
157200 On ch=1 n=e5 v=127
157200 On ch=1 n=c4 v=127
157320 On ch=1 n=c4 v=0
157320 On ch=1 n=e5 v=0
157320 On ch=1 n=g3 v=127
157320 On ch=1 n=g4 v=127
157440 On ch=1 n=g4 v=0
157440 On ch=1 n=g3 v=0
157440 On ch=1 n=c2 v=127
157440 On ch=1 n=c3 v=127
157440 On ch=1 n=e4 v=127
157920 On ch=1 n=e4 v=0
157920 On ch=1 n=c3 v=0
157920 On ch=1 n=c2 v=0
158400 On ch=1 n=e5 v=127
158400 On ch=1 n=g5 v=127
158400 On ch=1 n=c6 v=127
158400 On ch=1 n=e6 v=127
158400 On ch=1 n=g4 v=127
158400 On ch=1 n=c5 v=127
158400 On ch=1 n=c4 v=127
158760 Tempo 2222222
159240 Tempo 2222222
159360 On ch=1 n=c4 v=0
159360 On ch=1 n=c5 v=0
159360 On ch=1 n=g4 v=0
159360 On ch=1 n=e6 v=0
159360 On ch=1 n=c6 v=0
159360 On ch=1 n=g5 v=0
159360 On ch=1 n=e5 v=0
159360 Tempo 2222222
159360 Par ch=1 c=64 v=0
159360 Meta TrkEnd
TrkEnd
