MFile 1 17 384
MTrk
0 TimeSig 4/4 96 8
0 SeqSpec 00 00 41
0 Tempo 400000
15960 Tempo 387096
56664 Tempo 400000
95832 Tempo 402684
157496 Tempo 394736
202772 Tempo 410958
202772 Meta TrkEnd
TrkEnd
MTrk
0 Meta TrkName "Winter Wind Etude "
0 Par ch=1 c=0 v=0
0 PrCh ch=1 p=0
0 Par ch=1 c=91 v=127
0 KeySig 0 major
384 Par ch=1 c=91 v=127
568 Par ch=1 c=64 v=40
588 Par ch=1 c=64 v=56
608 Par ch=1 c=64 v=104
628 Par ch=1 c=64 v=127
664 On ch=1 n=e5 v=82
888 Off ch=1 n=e5 v=0
1384 On ch=1 n=e5 v=86
1548 Off ch=1 n=e5 v=0
1968 On ch=1 n=e5 v=82
2092 Off ch=1 n=e5 v=0
2148 On ch=1 n=e5 v=85
2272 Par ch=1 c=64 v=56
2288 Par ch=1 c=64 v=0
2388 Par ch=1 c=64 v=24
2408 Par ch=1 c=64 v=88
2428 Par ch=1 c=64 v=127
2904 On ch=1 n=f5 v=83
2952 Off ch=1 n=e5 v=0
2972 Par ch=1 c=64 v=56
2988 Par ch=1 c=64 v=0
3180 Par ch=1 c=64 v=40
3200 Par ch=1 c=64 v=72
3220 Par ch=1 c=64 v=127
3644 On ch=1 n=e5 v=80
3684 Par ch=1 c=64 v=56
3696 Off ch=1 n=f5 v=0
3704 Par ch=1 c=64 v=0
3856 Par ch=1 c=64 v=56
3880 Par ch=1 c=64 v=104
3900 Par ch=1 c=64 v=127
4428 On ch=1 n=c5 v=79
4440 Off ch=1 n=e5 v=0
4440 Par ch=1 c=64 v=72
4456 Par ch=1 c=64 v=0
4596 Par ch=1 c=64 v=24
4616 Par ch=1 c=64 v=88
4632 Par ch=1 c=64 v=127
5192 On ch=1 n=e5 v=80
5220 Off ch=1 n=c5 v=0
5276 Par ch=1 c=64 v=88
5296 Par ch=1 c=64 v=56
5312 Par ch=1 c=64 v=0
5544 Par ch=1 c=64 v=24
5564 Par ch=1 c=64 v=72
5584 Par ch=1 c=64 v=104
5604 Par ch=1 c=64 v=127
6092 Off ch=1 n=e5 v=0
8356 On ch=1 n=c5 v=26
8364 On ch=1 n=e5 v=42
8380 On ch=1 n=c4 v=29
8384 On ch=1 n=g4 v=18
8468 Par ch=1 c=64 v=72
8492 Par ch=1 c=64 v=24
8512 Par ch=1 c=64 v=0
8624 Par ch=1 c=64 v=40
8640 Par ch=1 c=64 v=104
8664 Par ch=1 c=64 v=127
8672 Off ch=1 n=c5 v=0
8704 Off ch=1 n=e5 v=0
8704 Off ch=1 n=g4 v=0
8784 Off ch=1 n=c4 v=0
9144 On ch=1 n=e5 v=47
9172 On ch=1 n=c4 v=32
9176 On ch=1 n=g4 v=25
9184 On ch=1 n=c5 v=31
9208 Par ch=1 c=64 v=104
9224 Par ch=1 c=64 v=40
9244 Par ch=1 c=64 v=0
9340 Par ch=1 c=64 v=56
9360 Par ch=1 c=64 v=127
9408 Off ch=1 n=c4 v=0
9412 Off ch=1 n=g4 v=0
9416 Off ch=1 n=c5 v=0
9432 Off ch=1 n=e5 v=0
9736 On ch=1 n=e5 v=47
9756 On ch=1 n=c4 v=38
9760 On ch=1 n=c5 v=38
9772 On ch=1 n=g4 v=24
9804 Off ch=1 n=c4 v=0
9824 Off ch=1 n=g4 v=0
9832 Off ch=1 n=c5 v=0
9840 Off ch=1 n=e5 v=0
9952 On ch=1 n=e5 v=53
9964 On ch=1 n=c4 v=35
9972 On ch=1 n=c5 v=37
9980 On ch=1 n=g4 v=36
10040 Par ch=1 c=64 v=104
10060 Par ch=1 c=64 v=56
10080 Par ch=1 c=64 v=0
10192 Par ch=1 c=64 v=72
10212 Par ch=1 c=64 v=127
10288 Off ch=1 n=g4 v=0
10324 Off ch=1 n=c5 v=0
10452 Off ch=1 n=e5 v=0
10588 Off ch=1 n=c4 v=0
10716 On ch=1 n=f5 v=47
10744 On ch=1 n=c5 v=36
10748 On ch=1 n=f3 v=27
10752 On ch=1 n=a4 v=26
10856 Par ch=1 c=64 v=72
10872 Par ch=1 c=64 v=0
11028 Par ch=1 c=64 v=88
11048 Par ch=1 c=64 v=127
11108 Off ch=1 n=c5 v=0
11112 Off ch=1 n=f5 v=0
11172 Off ch=1 n=a4 v=0
11516 Off ch=1 n=f3 v=0
11592 On ch=1 n=e5 v=45
11596 On ch=1 n=c5 v=38
11604 On ch=1 n=g4 v=31
11616 On ch=1 n=c3 v=25
11708 Par ch=1 c=64 v=56
11724 Par ch=1 c=64 v=0
11860 Par ch=1 c=64 v=40
11880 Par ch=1 c=64 v=104
11900 Par ch=1 c=64 v=127
12024 Off ch=1 n=e5 v=0
12024 Off ch=1 n=c3 v=0
12060 Off ch=1 n=c5 v=0
12124 Off ch=1 n=g4 v=0
12488 On ch=1 n=c5 v=44
12500 On ch=1 n=a4 v=30
12516 On ch=1 n=f3 v=26
12580 Par ch=1 c=64 v=104
12600 Par ch=1 c=64 v=24
12616 Par ch=1 c=64 v=0
12732 Par ch=1 c=64 v=40
12752 Par ch=1 c=64 v=104
12772 Par ch=1 c=64 v=127
12836 Off ch=1 n=a4 v=0
12968 Off ch=1 n=c5 v=0
13052 Off ch=1 n=f3 v=0
13412 On ch=1 n=e5 v=40
13432 On ch=1 n=g4 v=27
13432 On ch=1 n=c3 v=19
13436 On ch=1 n=c5 v=33
13568 Par ch=1 c=64 v=88
13588 Par ch=1 c=64 v=40
13604 Par ch=1 c=64 v=0
13740 Par ch=1 c=64 v=40
13760 Par ch=1 c=64 v=104
13780 Par ch=1 c=64 v=127
14056 Off ch=1 n=g4 v=0
14092 Off ch=1 n=c5 v=0
14232 Off ch=1 n=c3 v=0
14532 On ch=1 n=d5 v=19
14536 On ch=1 n=g#4 v=10
14540 On ch=1 n=b2 v=21
14652 Par ch=1 c=64 v=88
14672 Par ch=1 c=64 v=56
14688 Par ch=1 c=64 v=0
14868 Off ch=1 n=e5 v=0
14924 Par ch=1 c=64 v=24
14944 Par ch=1 c=64 v=72
14964 Par ch=1 c=64 v=127
15096 Off ch=1 n=g#4 v=0
15148 Off ch=1 n=d5 v=0
15376 Off ch=1 n=b2 v=0
15964 On ch=1 n=a2 v=90
15964 On ch=1 n=f8 v=107
15972 Par ch=1 c=64 v=127
16056 Off ch=1 n=a2 v=0
16112 On ch=1 n=c8 v=90
16152 Off ch=1 n=f8 v=64
16200 Off ch=1 n=c8 v=64
16204 On ch=1 n=e8 v=84
16276 Off ch=1 n=e8 v=0
16292 On ch=1 n=a7 v=81
16380 On ch=1 n=d#8 v=76
16388 Off ch=1 n=a7 v=0
16480 On ch=1 n=c8 v=71
16492 Off ch=1 n=d#8 v=0
16544 Off ch=1 n=c8 v=0
16568 On ch=1 n=e5 v=84
16576 On ch=1 n=d8 v=92
16576 On ch=1 n=a4 v=68
16576 On ch=1 n=c5 v=74
16608 Par ch=1 c=64 v=104
16620 Par ch=1 c=64 v=88
16632 Par ch=1 c=64 v=127
16672 On ch=1 n=a7 v=82
16676 Off ch=1 n=d8 v=0
16752 Off ch=1 n=a7 v=0
16764 On ch=1 n=c#8 v=71
16836 Off ch=1 n=c5 v=0
16844 Off ch=1 n=a4 v=0
16856 On ch=1 n=a7 v=73
16860 Off ch=1 n=e5 v=0
16872 Off ch=1 n=c#8 v=0
16952 Off ch=1 n=a7 v=0
16956 On ch=1 n=c8 v=83
17040 Off ch=1 n=c8 v=0
17044 On ch=1 n=e7 v=79
17052 On ch=1 n=e5 v=85
17060 On ch=1 n=a4 v=66
17060 On ch=1 n=c5 v=71
17096 Off ch=1 n=c5 v=0
17100 Off ch=1 n=e5 v=0
17108 Off ch=1 n=a4 v=0
17136 Off ch=1 n=e7 v=0
17148 On ch=1 n=b7 v=100
17156 On ch=1 n=e5 v=82
17156 On ch=1 n=a4 v=74
17160 On ch=1 n=c5 v=73
17204 Par ch=1 c=64 v=72
17244 Par ch=1 c=64 v=127
17252 Off ch=1 n=b7 v=0
17256 On ch=1 n=e7 v=84
17356 Off ch=1 n=e7 v=0
17356 On ch=1 n=a#7 v=71
17420 Off ch=1 n=a4 v=0
17424 Off ch=1 n=c5 v=0
17444 Off ch=1 n=a#7 v=0
17444 On ch=1 n=c7 v=75
17468 Off ch=1 n=e5 v=0
17532 Off ch=1 n=c7 v=0
17544 On ch=1 n=a7 v=94
17636 On ch=1 n=e7 v=80
17644 Off ch=1 n=a7 v=0
17728 On ch=1 n=g#7 v=79
17728 On ch=1 n=f5 v=89
17740 On ch=1 n=a4 v=69
17740 On ch=1 n=c5 v=74
17744 Off ch=1 n=e7 v=64
17752 Par ch=1 c=64 v=88
17764 Par ch=1 c=64 v=0
17824 Off ch=1 n=g#7 v=0
17824 On ch=1 n=c7 v=77
17828 Par ch=1 c=64 v=72
17840 Par ch=1 c=64 v=127
17904 Off ch=1 n=c7 v=0
17920 On ch=1 n=g7 v=83
18012 Off ch=1 n=g7 v=0
18020 On ch=1 n=c7 v=69
18060 Off ch=1 n=a4 v=0
18072 Off ch=1 n=c5 v=0
18084 Off ch=1 n=f5 v=0
18088 Off ch=1 n=c7 v=0
18092 On ch=1 n=f#7 v=64
18168 Off ch=1 n=f#7 v=0
18192 On ch=1 n=a6 v=68
18284 Off ch=1 n=a6 v=0
18296 On ch=1 n=f7 v=87
18312 On ch=1 n=e5 v=82
18316 On ch=1 n=a4 v=66
18316 On ch=1 n=c5 v=68
18336 Par ch=1 c=64 v=56
18348 Par ch=1 c=64 v=0
18400 On ch=1 n=c7 v=73
18400 Par ch=1 c=64 v=72
18412 Par ch=1 c=64 v=127
18420 Off ch=1 n=f7 v=0
18488 On ch=1 n=e7 v=73
18492 Off ch=1 n=c7 v=0
18532 Off ch=1 n=c5 v=0
18560 Off ch=1 n=a4 v=0
18572 Off ch=1 n=e7 v=0
18592 On ch=1 n=a6 v=66
18672 On ch=1 n=d#7 v=64
18692 Off ch=1 n=a6 v=0
18764 On ch=1 n=c7 v=70
18788 Off ch=1 n=d#7 v=0
18796 Off ch=1 n=e5 v=0
18824 Off ch=1 n=c7 v=0
18852 On ch=1 n=c5 v=78
18856 On ch=1 n=d7 v=82
18856 On ch=1 n=a4 v=64
18868 On ch=1 n=e4 v=64
18892 Par ch=1 c=64 v=40
18904 Par ch=1 c=64 v=0
18944 Par ch=1 c=64 v=72
18952 On ch=1 n=a6 v=68
18956 Par ch=1 c=64 v=127
18960 Off ch=1 n=d7 v=0
19032 Off ch=1 n=a6 v=0
19044 On ch=1 n=c#7 v=68
19132 On ch=1 n=a6 v=68
19140 Off ch=1 n=c#7 v=0
19152 Off ch=1 n=a4 v=0
19196 Off ch=1 n=c5 v=64
19216 Off ch=1 n=a6 v=64
19224 On ch=1 n=c7 v=78
19308 Off ch=1 n=c7 v=0
19312 On ch=1 n=e6 v=69
19404 Off ch=1 n=e6 v=0
19412 On ch=1 n=b6 v=87
19412 On ch=1 n=e5 v=81
19420 On ch=1 n=c5 v=71
19428 Par ch=1 c=64 v=104
19432 On ch=1 n=a4 v=54
19440 Par ch=1 c=64 v=0
19444 Off ch=1 n=e4 v=64
19500 On ch=1 n=e6 v=74
19516 Off ch=1 n=b6 v=0
19516 Par ch=1 c=64 v=88
19528 Par ch=1 c=64 v=127
19596 On ch=1 n=a#6 v=65
19600 Off ch=1 n=e6 v=0
19612 Off ch=1 n=a4 v=0
19620 Off ch=1 n=c5 v=0
19648 Off ch=1 n=e5 v=0
19680 Off ch=1 n=a#6 v=0
19688 On ch=1 n=c6 v=60
19772 On ch=1 n=a6 v=76
19784 Off ch=1 n=c6 v=0
19868 On ch=1 n=e6 v=63
19872 Off ch=1 n=a6 v=0
19948 On ch=1 n=g#6 v=68
19956 Off ch=1 n=e6 v=0
20040 Off ch=1 n=g#6 v=0
20048 On ch=1 n=c6 v=67
20116 Off ch=1 n=c6 v=0
20132 On ch=1 n=g6 v=78
20216 Off ch=1 n=g6 v=0
20220 On ch=1 n=c6 v=70
20288 Off ch=1 n=c6 v=0
20300 On ch=1 n=f#6 v=64
20388 On ch=1 n=a5 v=58
20396 Off ch=1 n=f#6 v=0
20492 On ch=1 n=a2 v=93
20504 Off ch=1 n=a5 v=0
20504 On ch=1 n=f6 v=74
20532 Par ch=1 c=64 v=56
20544 Par ch=1 c=64 v=0
20604 On ch=1 n=c6 v=64
20608 Off ch=1 n=f6 v=0
20620 Par ch=1 c=64 v=104
20632 Par ch=1 c=64 v=127
20684 Off ch=1 n=c6 v=0
20688 On ch=1 n=e6 v=65
20724 Off ch=1 n=a2 v=0
20772 Off ch=1 n=e6 v=64
20788 On ch=1 n=a5 v=62
20876 Off ch=1 n=a5 v=0
20876 On ch=1 n=d#6 v=57
20956 On ch=1 n=c6 v=67
20968 Off ch=1 n=d#6 v=0
21024 Off ch=1 n=c6 v=0
21068 On ch=1 n=e4 v=88
21072 On ch=1 n=d6 v=77
21072 On ch=1 n=a3 v=80
21112 Par ch=1 c=64 v=40
21128 Par ch=1 c=64 v=0
21168 Par ch=1 c=64 v=56
21176 On ch=1 n=a5 v=70
21180 Par ch=1 c=64 v=127
21188 Off ch=1 n=d6 v=0
21272 Off ch=1 n=a5 v=0
21280 On ch=1 n=c#6 v=60
21368 Off ch=1 n=a3 v=0
21368 On ch=1 n=a5 v=70
21376 Off ch=1 n=e4 v=0
21384 Off ch=1 n=c#6 v=0
21452 Off ch=1 n=a5 v=0
21452 On ch=1 n=c6 v=77
21528 On ch=1 n=e4 v=84
21532 On ch=1 n=a3 v=82
21536 Off ch=1 n=c6 v=0
21540 On ch=1 n=e5 v=70
21584 Off ch=1 n=e4 v=0
21584 Off ch=1 n=a3 v=0
21628 Off ch=1 n=e5 v=0
21644 On ch=1 n=e4 v=94
21644 On ch=1 n=a3 v=82
21648 On ch=1 n=b5 v=82
21672 Par ch=1 c=64 v=104
21688 Par ch=1 c=64 v=24
21700 Par ch=1 c=64 v=0
21736 Off ch=1 n=b5 v=0
21736 Par ch=1 c=64 v=56
21740 On ch=1 n=e5 v=64
21748 Par ch=1 c=64 v=127
21824 On ch=1 n=a#5 v=65
21828 Off ch=1 n=e5 v=0
21908 Off ch=1 n=a#5 v=0
21916 On ch=1 n=c5 v=62
21972 Off ch=1 n=a3 v=0
21996 Off ch=1 n=e4 v=0
22008 Off ch=1 n=c5 v=0
22008 On ch=1 n=a5 v=74
22100 On ch=1 n=e5 v=64
22104 Off ch=1 n=a5 v=0
22184 Off ch=1 n=e5 v=0
22196 On ch=1 n=g#5 v=60
22200 On ch=1 n=f4 v=93
22200 On ch=1 n=a3 v=83
22248 Par ch=1 c=64 v=104
22256 Par ch=1 c=64 v=40
22272 Par ch=1 c=64 v=0
22304 Off ch=1 n=g#5 v=64
22304 On ch=1 n=c5 v=63
22324 Par ch=1 c=64 v=40
22332 Par ch=1 c=64 v=104
22348 Par ch=1 c=64 v=127
22380 Off ch=1 n=c5 v=0
22392 On ch=1 n=g5 v=73
22480 Off ch=1 n=g5 v=0
22484 On ch=1 n=c5 v=61
22552 Off ch=1 n=c5 v=0
22560 Off ch=1 n=a3 v=64
22564 On ch=1 n=f#5 v=55
22632 Off ch=1 n=f4 v=64
22648 Off ch=1 n=f#5 v=0
22668 On ch=1 n=a4 v=54
22768 On ch=1 n=e4 v=81
22772 Off ch=1 n=a4 v=0
22772 On ch=1 n=a3 v=78
22780 On ch=1 n=f5 v=69
22804 Par ch=1 c=64 v=104
22816 Par ch=1 c=64 v=0
22872 On ch=1 n=c5 v=58
22876 Off ch=1 n=f5 v=0
22892 Par ch=1 c=64 v=88
22904 Par ch=1 c=64 v=127
22956 Off ch=1 n=c5 v=0
22960 On ch=1 n=e5 v=63
23004 Off ch=1 n=e4 v=0
23024 Off ch=1 n=a3 v=0
23040 Off ch=1 n=e5 v=0
23064 On ch=1 n=a4 v=58
23156 On ch=1 n=d#5 v=62
23172 Off ch=1 n=a4 v=0
23248 On ch=1 n=c5 v=66
23256 Off ch=1 n=d#5 v=0
23320 Off ch=1 n=c5 v=0
23332 On ch=1 n=a2 v=80
23352 On ch=1 n=d5 v=67
23388 Par ch=1 c=64 v=88
23400 Par ch=1 c=64 v=0
23444 Off ch=1 n=d5 v=0
23460 On ch=1 n=a4 v=50
23464 Par ch=1 c=64 v=72
23476 Par ch=1 c=64 v=127
23532 Off ch=1 n=a4 v=0
23532 On ch=1 n=c#5 v=67
23628 On ch=1 n=a4 v=64
23636 Off ch=1 n=c#5 v=0
23708 Off ch=1 n=a4 v=0
23716 On ch=1 n=c5 v=74
23784 Off ch=1 n=c5 v=0
23796 On ch=1 n=e4 v=69
23860 Off ch=1 n=a2 v=64
23872 Off ch=1 n=e4 v=0
23888 On ch=1 n=b4 v=78
23896 Par ch=1 c=64 v=40
23900 On ch=1 n=e3 v=73
23908 Par ch=1 c=64 v=0
23960 Par ch=1 c=64 v=56
23972 Par ch=1 c=64 v=127
23984 Off ch=1 n=b4 v=0
23984 On ch=1 n=e4 v=60
24060 Off ch=1 n=e4 v=0
24076 On ch=1 n=a#4 v=63
24080 Off ch=1 n=e3 v=0
24156 On ch=1 n=c4 v=76
24164 Off ch=1 n=a#4 v=0
24256 Off ch=1 n=c4 v=0
24268 On ch=1 n=a4 v=74
24356 On ch=1 n=e4 v=64
24364 Off ch=1 n=a4 v=0
24424 Off ch=1 n=e4 v=0
24436 On ch=1 n=g#4 v=69
24540 On ch=1 n=c4 v=71
24544 Off ch=1 n=g#4 v=0
24616 Off ch=1 n=c4 v=0
24628 On ch=1 n=a4 v=68
24716 On ch=1 n=e4 v=67
24744 Off ch=1 n=a4 v=0
24776 Off ch=1 n=e4 v=0
24804 On ch=1 n=c5 v=70
24868 Off ch=1 n=c5 v=0
24892 On ch=1 n=f4 v=62
24924 Off ch=1 n=f4 v=0
25036 On ch=1 n=e5 v=83
25036 On ch=1 n=g#2 v=70
25052 Par ch=1 c=64 v=88
25064 Par ch=1 c=64 v=0
25152 Par ch=1 c=64 v=88
25160 On ch=1 n=b4 v=60
25168 Par ch=1 c=64 v=127
25228 Off ch=1 n=g#2 v=0
25228 Off ch=1 n=b4 v=0
25232 On ch=1 n=d5 v=70
25256 Off ch=1 n=e5 v=0
25268 Off ch=1 n=d5 v=0
25328 On ch=1 n=f5 v=75
25392 Off ch=1 n=f5 v=64
25424 On ch=1 n=e6 v=74
25520 On ch=1 n=b5 v=63
25576 Off ch=1 n=e6 v=0
25596 On ch=1 n=d5 v=85
25604 Off ch=1 n=b5 v=0
25604 On ch=1 n=d6 v=76
25604 On ch=1 n=f4 v=79
25652 Off ch=1 n=d6 v=0
25708 On ch=1 n=f6 v=86
25796 Off ch=1 n=f4 v=0
25808 Off ch=1 n=f6 v=0
25820 On ch=1 n=e7 v=82
25872 Off ch=1 n=d5 v=0
25912 On ch=1 n=b6 v=53
25920 Off ch=1 n=e7 v=0
25992 On ch=1 n=d7 v=70
25996 Off ch=1 n=b6 v=0
26056 On ch=1 n=d5 v=85
26068 On ch=1 n=f4 v=81
26072 Off ch=1 n=d7 v=0
26072 On ch=1 n=f6 v=79
26116 Off ch=1 n=d5 v=0
26128 Off ch=1 n=f4 v=0
26176 Off ch=1 n=f6 v=0
26188 On ch=1 n=d7 v=86
26188 On ch=1 n=c5 v=97
26192 On ch=1 n=f4 v=74
26220 Par ch=1 c=64 v=88
26232 Par ch=1 c=64 v=0
26288 On ch=1 n=a6 v=66
26296 Par ch=1 c=64 v=56
26308 Off ch=1 n=d7 v=0
26308 Par ch=1 c=64 v=127
26360 Off ch=1 n=c5 v=0
26380 Off ch=1 n=f4 v=0
26380 On ch=1 n=c7 v=69
26412 Off ch=1 n=a6 v=0
26460 On ch=1 n=f6 v=70
26464 Off ch=1 n=c7 v=0
26496 Off ch=1 n=f6 v=0
26568 On ch=1 n=d6 v=74
26668 On ch=1 n=a5 v=52
26688 Off ch=1 n=d6 v=0
26752 On ch=1 n=a3 v=90
26752 On ch=1 n=a2 v=74
26756 Off ch=1 n=a5 v=0
26760 On ch=1 n=c6 v=68
26804 Par ch=1 c=64 v=88
26816 Par ch=1 c=64 v=0
26840 On ch=1 n=f5 v=69
26848 Off ch=1 n=c6 v=0
26864 Par ch=1 c=64 v=56
26880 Par ch=1 c=64 v=127
26892 Off ch=1 n=f5 v=64
26960 On ch=1 n=d5 v=71
27032 On ch=1 n=a4 v=54
27064 Off ch=1 n=d5 v=0
27124 Off ch=1 n=a4 v=0
27132 On ch=1 n=c5 v=64
27148 Off ch=1 n=a3 v=64
27160 Off ch=1 n=a2 v=64
27208 Off ch=1 n=c5 v=0
27224 On ch=1 n=f4 v=70
27300 Off ch=1 n=f4 v=0
27340 On ch=1 n=g#3 v=86
27340 On ch=1 n=g#2 v=82
27340 On ch=1 n=e5 v=64
27436 Par ch=1 c=64 v=24
27452 On ch=1 n=b4 v=55
27452 Par ch=1 c=64 v=0
27480 Off ch=1 n=e5 v=0
27512 Par ch=1 c=64 v=56
27520 Off ch=1 n=b4 v=0
27528 On ch=1 n=d5 v=59
27528 Par ch=1 c=64 v=127
27560 Off ch=1 n=d5 v=0
27600 Off ch=1 n=g#2 v=0
27632 Off ch=1 n=g#3 v=0
27632 On ch=1 n=f5 v=70
27700 Off ch=1 n=f5 v=0
27728 On ch=1 n=e6 v=74
27816 On ch=1 n=b5 v=63
27892 Off ch=1 n=e6 v=0
27908 Off ch=1 n=b5 v=0
27908 On ch=1 n=d6 v=68
27908 Par ch=1 c=64 v=72
27920 On ch=1 n=g4 v=80
27920 Par ch=1 c=64 v=0
27924 On ch=1 n=d5 v=80
27940 Off ch=1 n=d6 v=0
27944 Par ch=1 c=64 v=40
27960 Par ch=1 c=64 v=88
27968 Par ch=1 c=64 v=127
28012 On ch=1 n=f6 v=82
28040 Off ch=1 n=g4 v=0
28040 Off ch=1 n=d5 v=0
28096 Off ch=1 n=f6 v=0
28116 On ch=1 n=d5 v=84
28116 On ch=1 n=e7 v=87
28120 On ch=1 n=f4 v=73
28212 On ch=1 n=b6 v=75
28216 Off ch=1 n=d5 v=0
28232 Off ch=1 n=f4 v=0
28240 Off ch=1 n=e7 v=0
28304 Off ch=1 n=b6 v=0
28304 On ch=1 n=d7 v=77
28308 On ch=1 n=d5 v=88
28316 On ch=1 n=e4 v=80
28384 Off ch=1 n=d7 v=0
28392 On ch=1 n=f6 v=71
28428 Off ch=1 n=d5 v=64
28432 Off ch=1 n=e4 v=64
28496 Off ch=1 n=f6 v=64
28504 On ch=1 n=d7 v=82
28512 On ch=1 n=e4 v=83
28512 On ch=1 n=c5 v=93
28556 Par ch=1 c=64 v=40
28568 Par ch=1 c=64 v=0
28612 On ch=1 n=a6 v=59
28628 Off ch=1 n=d7 v=0
28644 Par ch=1 c=64 v=72
28656 Par ch=1 c=64 v=127
28696 On ch=1 n=c7 v=67
28716 Off ch=1 n=c5 v=0
28728 Off ch=1 n=a6 v=0
28744 Off ch=1 n=e4 v=0
28780 Off ch=1 n=c7 v=0
28788 On ch=1 n=e6 v=68
28812 Off ch=1 n=e6 v=0
28888 On ch=1 n=d6 v=71
28980 On ch=1 n=a5 v=64
29000 Off ch=1 n=d6 v=0
29072 On ch=1 n=c6 v=70
29076 On ch=1 n=a3 v=92
29080 On ch=1 n=a2 v=76
29084 Off ch=1 n=a5 v=0
29116 Par ch=1 c=64 v=40
29128 Par ch=1 c=64 v=0
29164 Par ch=1 c=64 v=72
29168 Off ch=1 n=c6 v=0
29176 On ch=1 n=e5 v=74
29180 Par ch=1 c=64 v=127
29228 Off ch=1 n=e5 v=0
29300 On ch=1 n=d5 v=71
29408 On ch=1 n=a4 v=58
29416 Off ch=1 n=d5 v=0
29424 Off ch=1 n=a2 v=0
29464 Off ch=1 n=a3 v=0
29492 Off ch=1 n=a4 v=0
29500 On ch=1 n=c5 v=54
29576 On ch=1 n=b4 v=68
29588 Off ch=1 n=c5 v=0
29620 Off ch=1 n=b4 v=0
29708 On ch=1 n=b3 v=89
29708 On ch=1 n=b2 v=80
29736 On ch=1 n=a5 v=51
29736 Par ch=1 c=64 v=40
29748 Par ch=1 c=64 v=0
29804 Off ch=1 n=a5 v=0
29812 Par ch=1 c=64 v=56
29824 On ch=1 n=e5 v=65
29824 Par ch=1 c=64 v=127
29868 Off ch=1 n=b2 v=0
29896 Off ch=1 n=e5 v=0
29900 On ch=1 n=g#5 v=57
29904 Off ch=1 n=b3 v=0
29944 Off ch=1 n=g#5 v=64
30004 On ch=1 n=b5 v=75
30072 Off ch=1 n=b5 v=0
30092 On ch=1 n=a6 v=70
30176 On ch=1 n=e6 v=66
30216 Off ch=1 n=a6 v=0
30260 Off ch=1 n=e6 v=0
30260 On ch=1 n=g#6 v=69
30268 Par ch=1 c=64 v=104
30280 On ch=1 n=e5 v=81
30280 On ch=1 n=g#4 v=66
30284 Par ch=1 c=64 v=72
30288 On ch=1 n=b4 v=60
30292 Off ch=1 n=g#6 v=0
30296 Par ch=1 c=64 v=127
30360 On ch=1 n=b6 v=82
30420 Off ch=1 n=e5 v=0
30420 Off ch=1 n=g#4 v=0
30432 Off ch=1 n=b4 v=0
30464 On ch=1 n=a7 v=92
30472 On ch=1 n=g#5 v=84
30500 Off ch=1 n=b6 v=0
30532 Off ch=1 n=g#5 v=0
30564 On ch=1 n=e7 v=72
30572 Off ch=1 n=a7 v=0
30656 On ch=1 n=g#7 v=84
30656 On ch=1 n=c#6 v=97
30660 Off ch=1 n=e7 v=0
30716 Off ch=1 n=c#6 v=0
30728 Off ch=1 n=g#7 v=0
30744 On ch=1 n=b6 v=75
30860 On ch=1 n=b5 v=93
30864 On ch=1 n=a5 v=97
30864 On ch=1 n=b4 v=82
30868 On ch=1 n=d#5 v=79
30880 Par ch=1 c=64 v=104
30884 Off ch=1 n=b6 v=0
30884 On ch=1 n=g#7 v=84
30892 Par ch=1 c=64 v=0
30968 Par ch=1 c=64 v=56
30976 On ch=1 n=d#7 v=65
30980 Par ch=1 c=64 v=127
31004 Off ch=1 n=g#7 v=0
31068 On ch=1 n=f#7 v=63
31092 Off ch=1 n=b5 v=0
31092 Off ch=1 n=a5 v=0
31112 Off ch=1 n=b4 v=0
31116 Off ch=1 n=d#7 v=0
31128 Off ch=1 n=d#5 v=0
31148 Off ch=1 n=f#7 v=0
31148 On ch=1 n=b6 v=69
31192 Off ch=1 n=b6 v=0
31248 On ch=1 n=g#6 v=62
31340 On ch=1 n=d#6 v=64
31372 Off ch=1 n=g#6 v=0
31436 On ch=1 n=f#6 v=59
31444 Off ch=1 n=d#6 v=0
31444 On ch=1 n=b3 v=90
31444 On ch=1 n=b4 v=80
31524 Off ch=1 n=f#6 v=64
31532 On ch=1 n=b5 v=66
31576 Off ch=1 n=b5 v=0
31636 On ch=1 n=g#5 v=64
31700 Off ch=1 n=b4 v=0
31712 On ch=1 n=d#5 v=53
31728 Off ch=1 n=g#5 v=0
31740 Off ch=1 n=b3 v=64
31792 Off ch=1 n=d#5 v=0
31800 On ch=1 n=f#5 v=62
31872 Off ch=1 n=f#5 v=0
31884 On ch=1 n=b4 v=67
31968 Off ch=1 n=b4 v=0
32004 On ch=1 n=e3 v=84
32004 On ch=1 n=e4 v=80
32012 On ch=1 n=a5 v=79
32048 Par ch=1 c=64 v=104
32060 Par ch=1 c=64 v=24
32072 Par ch=1 c=64 v=0
32112 On ch=1 n=e5 v=63
32136 Par ch=1 c=64 v=56
32144 Off ch=1 n=a5 v=0
32148 Par ch=1 c=64 v=127
32184 On ch=1 n=g#5 v=57
32188 Off ch=1 n=e5 v=0
32232 Off ch=1 n=g#5 v=0
32244 Off ch=1 n=e3 v=0
32260 Off ch=1 n=e4 v=0
32300 On ch=1 n=b5 v=63
32368 Off ch=1 n=b5 v=0
32396 On ch=1 n=a6 v=66
32476 On ch=1 n=e6 v=68
32508 Off ch=1 n=a6 v=0
32556 On ch=1 n=g#6 v=71
32568 Off ch=1 n=e6 v=0
32592 On ch=1 n=g#5 v=80
32592 On ch=1 n=b4 v=74
32604 Off ch=1 n=g#6 v=0
32664 On ch=1 n=b6 v=87
32696 Off ch=1 n=g#5 v=0
32704 Off ch=1 n=b4 v=0
32764 On ch=1 n=a7 v=93
32772 On ch=1 n=g5 v=74
32784 On ch=1 n=a#4 v=62
32808 Off ch=1 n=b6 v=0
32852 Off ch=1 n=g5 v=0
32872 On ch=1 n=e7 v=67
32884 Off ch=1 n=a7 v=0
32892 Off ch=1 n=a#4 v=0
32960 On ch=1 n=g#5 v=88
32964 On ch=1 n=g#7 v=81
32964 On ch=1 n=b4 v=73
32980 Off ch=1 n=e7 v=0
33012 Off ch=1 n=g#5 v=0
33020 Off ch=1 n=b4 v=64
33028 Off ch=1 n=g#7 v=64
33048 On ch=1 n=b6 v=81
33088 Off ch=1 n=b6 v=0
33196 On ch=1 n=e8 v=102
33200 On ch=1 n=e5 v=99
33200 On ch=1 n=g#4 v=77
33204 On ch=1 n=e4 v=89
33204 Par ch=1 c=64 v=88
33216 Par ch=1 c=64 v=0
33292 Par ch=1 c=64 v=127
33304 Off ch=1 n=e4 v=0
33320 Off ch=1 n=e5 v=0
33324 Off ch=1 n=e8 v=0
33328 Off ch=1 n=g#4 v=0
34208 Par ch=1 c=64 v=104
34216 Par ch=1 c=64 v=40
34232 Par ch=1 c=64 v=0
34440 On ch=1 n=a2 v=96
34444 On ch=1 n=f8 v=103
34472 Par ch=1 c=64 v=127
34512 Off ch=1 n=a2 v=0
34564 On ch=1 n=c8 v=87
34604 Off ch=1 n=f8 v=64
34648 On ch=1 n=e8 v=85
34668 Off ch=1 n=c8 v=0
34732 Off ch=1 n=e8 v=0
34740 On ch=1 n=a7 v=79
34824 On ch=1 n=d#8 v=82
34840 Off ch=1 n=a7 v=0
34908 On ch=1 n=c8 v=73
34936 Off ch=1 n=d#8 v=0
34976 Off ch=1 n=c8 v=0
35008 On ch=1 n=e5 v=89
35012 On ch=1 n=d8 v=85
35012 On ch=1 n=a4 v=68
35012 On ch=1 n=c5 v=78
35104 On ch=1 n=a7 v=77
35116 Off ch=1 n=d8 v=0
35192 Off ch=1 n=a7 v=0
35208 On ch=1 n=c#8 v=69
35288 On ch=1 n=a7 v=72
35296 Off ch=1 n=a4 v=0
35300 Off ch=1 n=c5 v=0
35304 Off ch=1 n=e5 v=0
35312 Off ch=1 n=c#8 v=0
35388 Off ch=1 n=a7 v=0
35388 On ch=1 n=c8 v=76
35456 On ch=1 n=e5 v=85
35464 On ch=1 n=a4 v=68
35464 On ch=1 n=c5 v=70
35464 On ch=1 n=e7 v=64
35484 Off ch=1 n=c8 v=0
35492 Off ch=1 n=c5 v=0
35496 Off ch=1 n=e5 v=0
35496 Off ch=1 n=a4 v=0
35544 Off ch=1 n=e7 v=0
35552 On ch=1 n=e5 v=86
35552 On ch=1 n=a4 v=80
35556 On ch=1 n=c5 v=67
35560 On ch=1 n=b7 v=86
35588 Par ch=1 c=64 v=88
35600 Par ch=1 c=64 v=40
35616 Par ch=1 c=64 v=0
35628 Par ch=1 c=64 v=24
35640 Par ch=1 c=64 v=72
35644 On ch=1 n=e7 v=66
35652 Par ch=1 c=64 v=127
35660 Off ch=1 n=b7 v=0
35728 Off ch=1 n=e7 v=0
35740 On ch=1 n=a#7 v=68
35828 Off ch=1 n=a#7 v=0
35832 On ch=1 n=c7 v=66
35904 Off ch=1 n=a4 v=0
35912 Off ch=1 n=c5 v=0
35920 Off ch=1 n=c7 v=0
35924 Off ch=1 n=e5 v=0
35932 On ch=1 n=a7 v=82
36016 On ch=1 n=e7 v=60
36036 Off ch=1 n=a7 v=0
36116 On ch=1 n=f5 v=90
36120 On ch=1 n=g#7 v=75
36124 Off ch=1 n=e7 v=64
36128 On ch=1 n=c5 v=72
36128 On ch=1 n=a4 v=66
36160 Par ch=1 c=64 v=72
36172 Par ch=1 c=64 v=24
36188 Par ch=1 c=64 v=40
36200 Par ch=1 c=64 v=72
36212 On ch=1 n=c7 v=68
36212 Par ch=1 c=64 v=127
36220 Off ch=1 n=g#7 v=0
36292 Off ch=1 n=c7 v=0
36312 On ch=1 n=g7 v=83
36396 On ch=1 n=c7 v=63
36412 Off ch=1 n=g7 v=0
36436 Off ch=1 n=f5 v=0
36444 Off ch=1 n=a4 v=0
36448 Off ch=1 n=c5 v=0
36476 Off ch=1 n=c7 v=0
36492 On ch=1 n=f#7 v=67
36580 Off ch=1 n=f#7 v=0
36580 On ch=1 n=a6 v=60
36668 On ch=1 n=e5 v=82
36668 On ch=1 n=c5 v=70
36672 On ch=1 n=a4 v=62
36676 On ch=1 n=f7 v=83
36688 Off ch=1 n=a6 v=0
36696 Par ch=1 c=64 v=88
36708 Par ch=1 c=64 v=24
36720 Par ch=1 c=64 v=0
36744 Par ch=1 c=64 v=40
36756 Par ch=1 c=64 v=104
36772 On ch=1 n=c7 v=71
36772 Par ch=1 c=64 v=127
36784 Off ch=1 n=f7 v=0
36852 Off ch=1 n=c7 v=0
36860 On ch=1 n=e7 v=68
36880 Off ch=1 n=c5 v=0
36900 Off ch=1 n=a4 v=0
36940 Off ch=1 n=e7 v=0
36956 On ch=1 n=a6 v=65
37036 On ch=1 n=d#7 v=61
37056 Off ch=1 n=a6 v=0
37128 Off ch=1 n=e5 v=0
37132 On ch=1 n=c7 v=66
37144 Off ch=1 n=d#7 v=0
37192 Off ch=1 n=c7 v=0
37220 On ch=1 n=c5 v=75
37220 On ch=1 n=a4 v=64
37232 On ch=1 n=e4 v=64
37236 On ch=1 n=d7 v=82
37240 Par ch=1 c=64 v=72
37256 Par ch=1 c=64 v=0
37288 Par ch=1 c=64 v=40
37304 Par ch=1 c=64 v=88
37316 Par ch=1 c=64 v=127
37324 On ch=1 n=a6 v=64
37336 Off ch=1 n=d7 v=0
37408 Off ch=1 n=a6 v=0
37420 On ch=1 n=c#7 v=67
37508 On ch=1 n=a6 v=67
37516 Off ch=1 n=c#7 v=0
37520 Off ch=1 n=a4 v=0
37540 Off ch=1 n=c5 v=0
37592 Off ch=1 n=a6 v=0
37596 On ch=1 n=c7 v=80
37668 Off ch=1 n=c7 v=64
37676 On ch=1 n=e6 v=74
37752 Off ch=1 n=e6 v=0
37772 On ch=1 n=b6 v=86
37772 On ch=1 n=e5 v=89
37776 On ch=1 n=c5 v=80
37780 On ch=1 n=a4 v=62
37812 Par ch=1 c=64 v=104
37824 Par ch=1 c=64 v=40
37836 Off ch=1 n=e4 v=64
37836 Par ch=1 c=64 v=0
37848 Par ch=1 c=64 v=24
37856 On ch=1 n=e6 v=56
37864 Off ch=1 n=b6 v=0
37864 Par ch=1 c=64 v=56
37876 Par ch=1 c=64 v=127
37924 Off ch=1 n=e6 v=0
37932 On ch=1 n=a#6 v=61
38020 Off ch=1 n=a#6 v=0
38032 On ch=1 n=c6 v=59
38060 Off ch=1 n=a4 v=0
38064 Off ch=1 n=c5 v=0
38084 Off ch=1 n=e5 v=0
38120 Off ch=1 n=c6 v=0
38120 On ch=1 n=a6 v=68
38208 On ch=1 n=e6 v=58
38220 Off ch=1 n=a6 v=0
38288 Off ch=1 n=e6 v=0
38292 On ch=1 n=g#6 v=62
38384 Off ch=1 n=g#6 v=0
38388 On ch=1 n=c6 v=64
38460 Off ch=1 n=c6 v=0
38468 On ch=1 n=g6 v=74
38548 On ch=1 n=c6 v=64
38552 Off ch=1 n=g6 v=0
38624 Off ch=1 n=c6 v=0
38624 On ch=1 n=f#6 v=62
38716 Off ch=1 n=f#6 v=0
38720 On ch=1 n=a5 v=61
38820 Off ch=1 n=a5 v=0
38840 On ch=1 n=f6 v=82
38848 On ch=1 n=c2 v=64
38848 On ch=1 n=c3 v=70
38868 Par ch=1 c=64 v=40
38880 Par ch=1 c=64 v=0
38940 Off ch=1 n=f6 v=0
38940 On ch=1 n=a#5 v=67
38944 Par ch=1 c=64 v=104
38956 Par ch=1 c=64 v=127
39012 Off ch=1 n=c2 v=0
39012 Off ch=1 n=c3 v=0
39040 Off ch=1 n=a#5 v=0
39044 On ch=1 n=e6 v=75
39128 On ch=1 n=g5 v=62
39132 Off ch=1 n=e6 v=0
39220 Off ch=1 n=g5 v=64
39224 On ch=1 n=d#6 v=71
39312 On ch=1 n=a#5 v=54
39324 Off ch=1 n=d#6 v=0
39392 Off ch=1 n=a#5 v=0
39392 On ch=1 n=e4 v=79
39400 On ch=1 n=d6 v=79
39400 On ch=1 n=g3 v=63
39400 Par ch=1 c=64 v=88
39412 Par ch=1 c=64 v=24
39448 Par ch=1 c=64 v=127
39484 On ch=1 n=g5 v=67
39492 Off ch=1 n=d6 v=0
39572 On ch=1 n=c#6 v=62
39580 Off ch=1 n=g5 v=0
39648 Off ch=1 n=g3 v=0
39656 On ch=1 n=a#5 v=63
39664 Off ch=1 n=e4 v=0
39676 Off ch=1 n=c#6 v=0
39760 Off ch=1 n=a#5 v=0
39776 On ch=1 n=c6 v=82
39780 On ch=1 n=e4 v=77
39788 On ch=1 n=g3 v=68
39836 Off ch=1 n=e4 v=0
39844 Off ch=1 n=g3 v=0
39856 Off ch=1 n=c6 v=0
39860 On ch=1 n=g5 v=74
39948 On ch=1 n=g3 v=60
39948 On ch=1 n=e4 v=72
39952 On ch=1 n=b5 v=78
39964 Off ch=1 n=g5 v=0
39972 Par ch=1 c=64 v=88
39984 Par ch=1 c=64 v=24
39996 Par ch=1 c=64 v=0
40008 Par ch=1 c=64 v=40
40020 Par ch=1 c=64 v=88
40036 On ch=1 n=g5 v=63
40036 Par ch=1 c=64 v=127
40040 Off ch=1 n=b5 v=0
40120 Off ch=1 n=g5 v=0
40144 On ch=1 n=a#5 v=67
40216 Off ch=1 n=a#5 v=0
40240 On ch=1 n=e5 v=72
40308 Off ch=1 n=e5 v=0
40336 On ch=1 n=a5 v=65
40364 Off ch=1 n=g3 v=0
40384 Off ch=1 n=e4 v=0
40412 Off ch=1 n=a5 v=0
40416 On ch=1 n=c5 v=67
40504 Off ch=1 n=c5 v=0
40512 On ch=1 n=g#5 v=69
40520 On ch=1 n=f4 v=79
40520 On ch=1 n=g3 v=64
40528 Par ch=1 c=64 v=104
40540 Par ch=1 c=64 v=24
40556 Par ch=1 c=64 v=0
40568 Par ch=1 c=64 v=56
40580 Par ch=1 c=64 v=104
40592 Par ch=1 c=64 v=127
40612 Off ch=1 n=g#5 v=0
40632 On ch=1 n=a#4 v=57
40680 Off ch=1 n=a#4 v=0
40716 On ch=1 n=g5 v=74
40796 Off ch=1 n=g5 v=0
40804 On ch=1 n=c5 v=49
40872 Off ch=1 n=f4 v=64
40880 Off ch=1 n=g3 v=64
40900 Off ch=1 n=c5 v=0
40900 On ch=1 n=f#5 v=57
40976 On ch=1 n=a#4 v=46
40984 Off ch=1 n=f#5 v=0
41060 Off ch=1 n=a#4 v=0
41076 On ch=1 n=f5 v=74
41088 On ch=1 n=e4 v=74
41096 On ch=1 n=g3 v=66
41100 Par ch=1 c=64 v=88
41112 Par ch=1 c=64 v=24
41128 Par ch=1 c=64 v=0
41140 Par ch=1 c=64 v=24
41152 Par ch=1 c=64 v=72
41164 Par ch=1 c=64 v=127
41172 Off ch=1 n=f5 v=0
41172 On ch=1 n=c5 v=66
41248 On ch=1 n=e5 v=66
41252 Off ch=1 n=c5 v=0
41316 Off ch=1 n=e4 v=0
41328 Off ch=1 n=e5 v=0
41344 On ch=1 n=a#4 v=61
41352 Off ch=1 n=g3 v=0
41424 Off ch=1 n=a#4 v=0
41432 On ch=1 n=d#5 v=59
41508 On ch=1 n=c5 v=63
41532 Off ch=1 n=d#5 v=0
41576 Off ch=1 n=c5 v=0
41612 On ch=1 n=d5 v=74
41616 On ch=1 n=c3 v=74
41616 On ch=1 n=c4 v=70
41636 Par ch=1 c=64 v=72
41648 Par ch=1 c=64 v=24
41684 Par ch=1 c=64 v=127
41696 Off ch=1 n=d5 v=0
41696 On ch=1 n=g4 v=60
41772 On ch=1 n=c#5 v=63
41792 Off ch=1 n=g4 v=0
41864 On ch=1 n=a#4 v=51
41868 Off ch=1 n=c#5 v=0
41908 Off ch=1 n=c4 v=0
41916 Off ch=1 n=c3 v=0
41944 Off ch=1 n=a#4 v=0
41960 On ch=1 n=c5 v=68
42036 On ch=1 n=g4 v=59
42044 Off ch=1 n=c5 v=0
42120 Off ch=1 n=g4 v=0
42132 On ch=1 n=e4 v=70
42136 On ch=1 n=g3 v=63
42136 On ch=1 n=b4 v=77
42140 Par ch=1 c=64 v=104
42152 Par ch=1 c=64 v=24
42168 Par ch=1 c=64 v=0
42220 Par ch=1 c=64 v=72
42228 Par ch=1 c=64 v=127
42256 On ch=1 n=a#4 v=49
42264 Off ch=1 n=b4 v=64
42344 Off ch=1 n=a#4 v=0
42352 On ch=1 n=c5 v=74
42408 Off ch=1 n=g3 v=64
42416 Off ch=1 n=e4 v=64
42428 Off ch=1 n=c5 v=0
42436 On ch=1 n=g4 v=64
42528 On ch=1 n=c#5 v=69
42548 Off ch=1 n=g4 v=0
42612 On ch=1 n=a#4 v=59
42616 Off ch=1 n=c#5 v=0
42692 Off ch=1 n=a#4 v=0
42696 On ch=1 n=d5 v=67
42772 Off ch=1 n=d5 v=0
42784 On ch=1 n=g4 v=70
42872 On ch=1 n=d#5 v=68
42876 Par ch=1 c=64 v=88
42892 Par ch=1 c=64 v=0
42900 Off ch=1 n=g4 v=0
42928 Par ch=1 c=64 v=40
42940 Par ch=1 c=64 v=104
42956 Par ch=1 c=64 v=127
42964 On ch=1 n=a#4 v=57
42996 Off ch=1 n=d#5 v=0
43052 Off ch=1 n=a#4 v=0
43060 On ch=1 n=e5 v=74
43148 Off ch=1 n=e5 v=0
43148 On ch=1 n=g4 v=66
43212 Off ch=1 n=g4 v=0
43300 On ch=1 n=a5 v=63
43316 On ch=1 n=c3 v=71
43348 Par ch=1 c=64 v=104
43360 Par ch=1 c=64 v=0
43408 On ch=1 n=e5 v=65
43440 Par ch=1 c=64 v=104
43448 Par ch=1 c=64 v=127
43456 Off ch=1 n=a5 v=0
43492 On ch=1 n=g5 v=66
43496 Off ch=1 n=c3 v=0
43496 Off ch=1 n=e5 v=0
43536 Off ch=1 n=g5 v=0
43592 On ch=1 n=a#5 v=78
43632 Off ch=1 n=a#5 v=0
43684 On ch=1 n=a6 v=78
43780 On ch=1 n=e6 v=66
43812 Off ch=1 n=a6 v=64
43848 On ch=1 n=e5 v=78
43856 On ch=1 n=g6 v=72
43856 On ch=1 n=g4 v=65
43864 Off ch=1 n=e6 v=0
43892 Off ch=1 n=e5 v=0
43892 Off ch=1 n=g4 v=0
43896 Off ch=1 n=g6 v=0
43940 On ch=1 n=a#6 v=82
44036 Off ch=1 n=a#6 v=0
44048 On ch=1 n=b3 v=70
44052 On ch=1 n=a7 v=93
44148 Off ch=1 n=b3 v=0
44160 On ch=1 n=e7 v=59
44164 Off ch=1 n=a7 v=0
44208 On ch=1 n=c4 v=77
44224 On ch=1 n=g7 v=80
44236 Off ch=1 n=e7 v=0
44256 Off ch=1 n=c4 v=0
44312 On ch=1 n=a#6 v=73
44320 Off ch=1 n=g7 v=0
44396 On ch=1 n=c#4 v=70
44416 Par ch=1 c=64 v=40
44424 On ch=1 n=g4 v=72
44424 Par ch=1 c=64 v=0
44428 Off ch=1 n=a#6 v=0
44452 Off ch=1 n=c#4 v=0
44456 On ch=1 n=a7 v=96
44480 Par ch=1 c=64 v=40
44484 On ch=1 n=d#5 v=82
44492 Par ch=1 c=64 v=127
44504 On ch=1 n=a#4 v=67
44544 Off ch=1 n=a#4 v=0
44568 On ch=1 n=d#7 v=71
44612 Off ch=1 n=a7 v=0
44656 Off ch=1 n=g4 v=0
44664 On ch=1 n=g7 v=64
44672 Off ch=1 n=d#5 v=0
44712 Off ch=1 n=d#7 v=0
44728 On ch=1 n=a#6 v=69
44732 Off ch=1 n=g7 v=0
44768 Off ch=1 n=a#6 v=0
44832 On ch=1 n=a6 v=73
44916 On ch=1 n=d#6 v=64
44948 Off ch=1 n=a6 v=0
45004 On ch=1 n=c#3 v=81
45004 On ch=1 n=c#4 v=70
45008 Off ch=1 n=d#6 v=0
45012 On ch=1 n=g6 v=70
45096 On ch=1 n=a#5 v=65
45104 Off ch=1 n=g6 v=0
45136 Off ch=1 n=a#5 v=0
45212 On ch=1 n=a5 v=74
45292 On ch=1 n=d#5 v=60
45296 Off ch=1 n=c#4 v=0
45308 Off ch=1 n=a5 v=64
45376 Off ch=1 n=d#5 v=64
45376 On ch=1 n=g5 v=60
45452 On ch=1 n=a#4 v=61
45460 Off ch=1 n=g5 v=0
45504 Off ch=1 n=c#3 v=64
45528 Off ch=1 n=a#4 v=0
45576 On ch=1 n=d3 v=79
45576 On ch=1 n=d4 v=75
45584 On ch=1 n=a5 v=74
45596 Par ch=1 c=64 v=24
45608 Par ch=1 c=64 v=0
45668 On ch=1 n=d5 v=55
45684 Par ch=1 c=64 v=104
45692 Off ch=1 n=a5 v=0
45696 Par ch=1 c=64 v=127
45752 Off ch=1 n=d5 v=0
45760 On ch=1 n=g5 v=54
45768 Off ch=1 n=d3 v=0
45812 Off ch=1 n=g5 v=0
45868 Off ch=1 n=d4 v=0
45868 On ch=1 n=a#5 v=76
45928 Off ch=1 n=a#5 v=0
45964 On ch=1 n=a6 v=74
46052 On ch=1 n=d6 v=70
46084 Off ch=1 n=a6 v=0
46128 On ch=1 n=g6 v=70
46132 Off ch=1 n=d6 v=0
46132 On ch=1 n=g5 v=79
46132 On ch=1 n=d5 v=74
46140 On ch=1 n=a#4 v=56
46172 Off ch=1 n=d5 v=0
46176 Off ch=1 n=g6 v=0
46176 Off ch=1 n=g5 v=0
46200 Off ch=1 n=a#4 v=0
46236 On ch=1 n=a#6 v=73
46304 Off ch=1 n=a#6 v=0
46328 On ch=1 n=c#4 v=74
46332 On ch=1 n=a7 v=94
46372 Off ch=1 n=c#4 v=0
46404 On ch=1 n=d7 v=75
46436 Off ch=1 n=a7 v=0
46464 Off ch=1 n=d7 v=0
46480 On ch=1 n=d4 v=82
46492 On ch=1 n=g7 v=79
46544 Off ch=1 n=d4 v=0
46580 On ch=1 n=a#6 v=73
46596 Off ch=1 n=g7 v=0
46636 Par ch=1 c=64 v=24
46644 On ch=1 n=d#4 v=71
46652 Par ch=1 c=64 v=0
46692 Off ch=1 n=a#6 v=0
46700 Par ch=1 c=64 v=40
46712 Par ch=1 c=64 v=127
46724 Off ch=1 n=d#4 v=0
46724 On ch=1 n=a#4 v=70
46732 On ch=1 n=c#5 v=76
46748 On ch=1 n=a7 v=99
46780 On ch=1 n=g5 v=83
46844 On ch=1 n=c#7 v=73
46860 Off ch=1 n=a7 v=64
46908 Off ch=1 n=g5 v=64
46940 Off ch=1 n=a#4 v=64
46940 On ch=1 n=g7 v=68
46952 Off ch=1 n=c#7 v=0
46964 Off ch=1 n=c#5 v=64
46996 On ch=1 n=a#6 v=71
47004 Off ch=1 n=g7 v=0
47032 Off ch=1 n=a#6 v=0
47108 On ch=1 n=a6 v=64
47196 On ch=1 n=c#6 v=59
47204 Off ch=1 n=a6 v=0
47288 Off ch=1 n=c#6 v=0
47292 On ch=1 n=g6 v=75
47296 On ch=1 n=d#3 v=69
47340 On ch=1 n=d#4 v=31
47364 On ch=1 n=a#5 v=64
47372 Off ch=1 n=g6 v=0
47400 Off ch=1 n=a#5 v=0
47484 On ch=1 n=a5 v=68
47576 Off ch=1 n=a5 v=0
47584 On ch=1 n=c#5 v=60
47640 Off ch=1 n=c#5 v=0
47652 On ch=1 n=g5 v=62
47664 Off ch=1 n=d#4 v=0
47724 Off ch=1 n=g5 v=0
47736 On ch=1 n=a#4 v=63
47812 Off ch=1 n=d#3 v=0
47812 Off ch=1 n=a#4 v=0
47860 On ch=1 n=a5 v=81
47860 On ch=1 n=e3 v=69
47860 On ch=1 n=e4 v=70
47908 Par ch=1 c=64 v=88
47920 Par ch=1 c=64 v=24
47932 Par ch=1 c=64 v=0
47964 Off ch=1 n=a5 v=0
47964 On ch=1 n=c5 v=59
48020 Par ch=1 c=64 v=104
48036 Par ch=1 c=64 v=127
48040 Off ch=1 n=c5 v=0
48060 On ch=1 n=g5 v=60
48132 Off ch=1 n=g5 v=0
48148 On ch=1 n=a#4 v=62
48152 Off ch=1 n=e4 v=0
48168 Off ch=1 n=e3 v=0
48184 Off ch=1 n=a#4 v=0
48240 On ch=1 n=c6 v=82
48324 On ch=1 n=a5 v=68
48336 Off ch=1 n=c6 v=0
48416 On ch=1 n=a#5 v=68
48428 Off ch=1 n=a5 v=64
48428 On ch=1 n=c5 v=88
48508 Off ch=1 n=a#5 v=0
48524 On ch=1 n=g5 v=73
48584 Off ch=1 n=g5 v=0
48616 On ch=1 n=a6 v=74
48696 On ch=1 n=c6 v=73
48700 Off ch=1 n=a6 v=0
48740 Off ch=1 n=c5 v=0
48780 On ch=1 n=g6 v=72
48796 Off ch=1 n=c6 v=0
48852 On ch=1 n=c5 v=83
48860 Off ch=1 n=g6 v=0
48888 On ch=1 n=a#5 v=63
48912 Off ch=1 n=c5 v=0
48944 Off ch=1 n=a#5 v=0
48984 On ch=1 n=c5 v=92
48988 On ch=1 n=c7 v=83
49080 On ch=1 n=a6 v=64
49100 Off ch=1 n=c7 v=0
49164 Off ch=1 n=c5 v=0
49180 Off ch=1 n=a6 v=0
49180 On ch=1 n=a#6 v=65
49244 Off ch=1 n=a#6 v=0
49272 On ch=1 n=g6 v=77
49336 Off ch=1 n=g6 v=0
49364 On ch=1 n=a7 v=89
49452 On ch=1 n=c7 v=74
49456 Off ch=1 n=a7 v=0
49524 Off ch=1 n=c7 v=0
49536 On ch=1 n=c4 v=76
49544 On ch=1 n=c3 v=60
49556 On ch=1 n=g7 v=77
49600 Off ch=1 n=g7 v=0
49640 On ch=1 n=a#6 v=65
49696 Off ch=1 n=a#6 v=0
49736 On ch=1 n=c8 v=83
49828 Off ch=1 n=c8 v=0
49832 On ch=1 n=a7 v=81
49856 Off ch=1 n=c3 v=0
49892 Off ch=1 n=c4 v=0
49916 Off ch=1 n=a7 v=64
49936 On ch=1 n=a#7 v=73
50028 Off ch=1 n=a#7 v=0
50028 On ch=1 n=g7 v=73
50116 Off ch=1 n=g7 v=0
50132 On ch=1 n=d8 v=86
50160 On ch=1 n=f4 v=70
50164 On ch=1 n=f3 v=71
50192 Par ch=1 c=64 v=40
50204 Par ch=1 c=64 v=0
50232 On ch=1 n=a7 v=77
50276 Off ch=1 n=d8 v=0
50284 Par ch=1 c=64 v=88
50292 Par ch=1 c=64 v=127
50328 On ch=1 n=c8 v=71
50340 Off ch=1 n=f3 v=0
50340 Off ch=1 n=a7 v=0
50380 Off ch=1 n=f4 v=0
50400 Off ch=1 n=c8 v=0
50412 On ch=1 n=f7 v=74
50472 Off ch=1 n=f7 v=0
50496 On ch=1 n=g#7 v=73
50596 On ch=1 n=f7 v=69
50608 Off ch=1 n=g#7 v=0
50648 Off ch=1 n=f7 v=0
50680 On ch=1 n=a7 v=80
50680 On ch=1 n=a5 v=82
50752 Off ch=1 n=a7 v=0
50760 On ch=1 n=c7 v=73
50816 Off ch=1 n=a5 v=0
50836 Off ch=1 n=c7 v=0
50848 On ch=1 n=e7 v=70
50940 Off ch=1 n=e7 v=0
50956 On ch=1 n=c7 v=49
51008 Off ch=1 n=c7 v=0
51020 On ch=1 n=f7 v=74
51092 On ch=1 n=a4 v=63
51100 Off ch=1 n=f7 v=0
51112 On ch=1 n=a6 v=71
51160 Off ch=1 n=a4 v=0
51196 Off ch=1 n=a6 v=0
51212 On ch=1 n=c#7 v=76
51216 On ch=1 n=a4 v=63
51224 On ch=1 n=d5 v=72
51244 On ch=1 n=f4 v=51
51296 Par ch=1 c=64 v=88
51308 On ch=1 n=a6 v=70
51308 Par ch=1 c=64 v=24
51320 Par ch=1 c=64 v=0
51336 Off ch=1 n=c#7 v=0
51384 Par ch=1 c=64 v=56
51396 Off ch=1 n=a6 v=0
51400 Par ch=1 c=64 v=127
51404 On ch=1 n=d7 v=71
51460 Off ch=1 n=a4 v=64
51472 Off ch=1 n=f4 v=64
51476 On ch=1 n=f6 v=70
51480 Off ch=1 n=d7 v=64
51560 Off ch=1 n=f6 v=0
51564 On ch=1 n=g#6 v=68
51596 Off ch=1 n=d5 v=64
51612 On ch=1 n=e5 v=79
51652 Off ch=1 n=g#6 v=0
51652 On ch=1 n=f6 v=71
51708 Off ch=1 n=e5 v=0
51728 On ch=1 n=f5 v=88
51744 Off ch=1 n=f6 v=0
51744 On ch=1 n=a6 v=72
51776 Par ch=1 c=64 v=72
51792 Par ch=1 c=64 v=0
51820 On ch=1 n=d6 v=68
51820 Par ch=1 c=64 v=40
51828 Par ch=1 c=64 v=88
51832 Off ch=1 n=a6 v=0
51840 Par ch=1 c=64 v=127
51904 Off ch=1 n=f5 v=0
51908 Off ch=1 n=d6 v=0
51916 On ch=1 n=e6 v=74
52004 Off ch=1 n=e6 v=0
52012 On ch=1 n=d6 v=74
52076 Off ch=1 n=d6 v=0
52112 On ch=1 n=f6 v=74
52192 Off ch=1 n=f6 v=0
52204 On ch=1 n=a5 v=66
52296 Off ch=1 n=a5 v=0
52316 On ch=1 n=g2 v=94
52316 On ch=1 n=g3 v=78
52328 On ch=1 n=e6 v=78
52336 Par ch=1 c=64 v=24
52352 Par ch=1 c=64 v=0
52416 On ch=1 n=b5 v=63
52428 Par ch=1 c=64 v=104
52440 Par ch=1 c=64 v=127
52448 Off ch=1 n=e6 v=0
52504 Off ch=1 n=b5 v=0
52504 On ch=1 n=d6 v=68
52512 Off ch=1 n=g2 v=0
52524 Off ch=1 n=g3 v=0
52540 Off ch=1 n=d6 v=0
52600 On ch=1 n=f6 v=83
52668 Off ch=1 n=f6 v=0
52704 On ch=1 n=e7 v=70
52780 On ch=1 n=b6 v=70
52812 Off ch=1 n=e7 v=0
52868 Off ch=1 n=b6 v=0
52868 On ch=1 n=b4 v=71
52872 On ch=1 n=d7 v=68
52872 On ch=1 n=g4 v=74
52896 Off ch=1 n=d7 v=0
52932 Off ch=1 n=g4 v=0
52944 Off ch=1 n=b4 v=0
52964 On ch=1 n=f7 v=82
53048 Off ch=1 n=f7 v=64
53060 On ch=1 n=e8 v=88
53072 On ch=1 n=f5 v=64
53156 On ch=1 n=b7 v=70
53184 Off ch=1 n=e8 v=0
53204 Off ch=1 n=f5 v=0
53228 On ch=1 n=a5 v=82
53240 On ch=1 n=d8 v=78
53264 Off ch=1 n=b7 v=0
53312 Off ch=1 n=a5 v=0
53316 On ch=1 n=f7 v=77
53324 Off ch=1 n=d8 v=0
53384 Off ch=1 n=f7 v=0
53424 On ch=1 n=a7 v=83
53424 On ch=1 n=g5 v=88
53520 On ch=1 n=f7 v=75
53540 Off ch=1 n=a7 v=0
53600 On ch=1 n=g7 v=73
53604 Off ch=1 n=f7 v=0
53640 Off ch=1 n=g5 v=0
53652 Off ch=1 n=g7 v=0
53688 On ch=1 n=b6 v=72
53736 Off ch=1 n=b6 v=0
53772 On ch=1 n=a6 v=76
53860 On ch=1 n=f6 v=81
53884 Off ch=1 n=a6 v=0
53952 Off ch=1 n=f6 v=0
53956 On ch=1 n=g6 v=82
53956 On ch=1 n=f5 v=78
53964 On ch=1 n=b4 v=68
53976 On ch=1 n=g4 v=63
53976 Par ch=1 c=64 v=72
53988 Par ch=1 c=64 v=0
54028 Off ch=1 n=g6 v=0
54028 Par ch=1 c=64 v=24
54036 On ch=1 n=b5 v=68
54040 Par ch=1 c=64 v=88
54052 Par ch=1 c=64 v=127
54084 Off ch=1 n=b5 v=0
54104 Off ch=1 n=f5 v=0
54116 Off ch=1 n=b4 v=0
54128 Off ch=1 n=g4 v=0
54136 On ch=1 n=e7 v=82
54192 Off ch=1 n=e7 v=0
54220 On ch=1 n=g6 v=80
54292 Off ch=1 n=g6 v=0
54316 On ch=1 n=d7 v=86
54392 On ch=1 n=f6 v=83
54396 Off ch=1 n=d7 v=0
54476 Off ch=1 n=f6 v=0
54492 On ch=1 n=c3 v=78
54492 On ch=1 n=c4 v=78
54500 On ch=1 n=b6 v=86
54508 Par ch=1 c=64 v=24
54524 Par ch=1 c=64 v=0
54572 Par ch=1 c=64 v=72
54588 Par ch=1 c=64 v=127
54592 On ch=1 n=g6 v=70
54596 Off ch=1 n=c4 v=0
54608 Off ch=1 n=c3 v=64
54636 Off ch=1 n=b6 v=64
54700 Off ch=1 n=g6 v=0
54700 On ch=1 n=c7 v=70
54752 Off ch=1 n=c7 v=0
54776 On ch=1 n=e6 v=79
54844 Off ch=1 n=e6 v=0
54880 On ch=1 n=d#7 v=77
54964 On ch=1 n=c4 v=72
54968 Par ch=1 c=64 v=104
54976 On ch=1 n=g4 v=74
54980 On ch=1 n=c7 v=64
54980 Par ch=1 c=64 v=40
54992 Par ch=1 c=64 v=24
55000 Off ch=1 n=d#7 v=0
55004 Par ch=1 c=64 v=72
55016 Par ch=1 c=64 v=127
55020 Off ch=1 n=c4 v=0
55036 Off ch=1 n=g4 v=0
55052 On ch=1 n=e5 v=87
55076 On ch=1 n=e7 v=80
55080 Off ch=1 n=c7 v=0
55096 Off ch=1 n=e5 v=0
55152 Off ch=1 n=e7 v=0
55152 On ch=1 n=g6 v=77
55228 Off ch=1 n=g6 v=0
55248 On ch=1 n=f#7 v=84
55336 On ch=1 n=e7 v=74
55340 Off ch=1 n=f#7 v=0
55412 On ch=1 n=g7 v=74
55424 Off ch=1 n=e7 v=0
55488 Off ch=1 n=g7 v=0
55500 On ch=1 n=c7 v=80
55584 Off ch=1 n=c7 v=0
55592 On ch=1 n=a#7 v=84
55684 On ch=1 n=g7 v=68
55688 Off ch=1 n=a#7 v=0
55772 On ch=1 n=b7 v=76
55776 Off ch=1 n=g7 v=0
55832 On ch=1 n=e7 v=73
55868 Off ch=1 n=b7 v=0
55932 On ch=1 n=c8 v=82
55984 Off ch=1 n=e7 v=0
56020 On ch=1 n=g7 v=66
56024 On ch=1 n=e7 v=9
56036 Off ch=1 n=c8 v=0
56068 Off ch=1 n=e7 v=64
56096 Off ch=1 n=g7 v=64
56108 On ch=1 n=c#8 v=72
56188 On ch=1 n=e7 v=79
56216 Off ch=1 n=c#8 v=0
56276 On ch=1 n=d8 v=85
56288 Off ch=1 n=e7 v=0
56344 On ch=1 n=g7 v=74
56364 Off ch=1 n=d8 v=0
56400 Off ch=1 n=g7 v=0
56452 On ch=1 n=d#8 v=73
56516 On ch=1 n=e7 v=70
56540 Off ch=1 n=d#8 v=0
56568 Off ch=1 n=e7 v=0
56656 Par ch=1 c=64 v=88
56660 On ch=1 n=e2 v=96
56660 On ch=1 n=e3 v=80
56668 Par ch=1 c=64 v=0
56676 On ch=1 n=e8 v=97
56744 Par ch=1 c=64 v=127
56776 On ch=1 n=b7 v=74
56792 Off ch=1 n=e3 v=0
56792 Off ch=1 n=e8 v=0
56804 Off ch=1 n=e2 v=0
56856 On ch=1 n=d#8 v=71
56876 Off ch=1 n=b7 v=0
56940 On ch=1 n=g7 v=67
56952 Off ch=1 n=d#8 v=0
57024 Off ch=1 n=g7 v=0
57024 On ch=1 n=d8 v=79
57124 On ch=1 n=b7 v=76
57132 Off ch=1 n=d8 v=0
57188 Off ch=1 n=b7 v=0
57224 On ch=1 n=b4 v=96
57228 On ch=1 n=e4 v=77
57228 On ch=1 n=c#8 v=74
57232 On ch=1 n=g4 v=81
57320 Off ch=1 n=c#8 v=0
57320 On ch=1 n=g7 v=74
57392 Off ch=1 n=g7 v=0
57412 On ch=1 n=c8 v=78
57484 Off ch=1 n=e4 v=0
57484 Off ch=1 n=g4 v=0
57484 On ch=1 n=g7 v=68
57500 Off ch=1 n=b4 v=0
57508 Off ch=1 n=c8 v=0
57576 Off ch=1 n=g7 v=0
57576 On ch=1 n=b7 v=75
57652 Off ch=1 n=b7 v=64
57660 On ch=1 n=e7 v=75
57668 On ch=1 n=b4 v=89
57672 On ch=1 n=g4 v=79
57676 On ch=1 n=e4 v=73
57700 Off ch=1 n=e4 v=0
57712 Off ch=1 n=b4 v=0
57716 Off ch=1 n=g4 v=0
57756 On ch=1 n=a#7 v=61
57768 Off ch=1 n=e7 v=0
57784 On ch=1 n=b4 v=94
57784 On ch=1 n=e4 v=84
57788 On ch=1 n=g4 v=76
57824 On ch=1 n=g7 v=68
57844 Par ch=1 c=64 v=88
57860 Off ch=1 n=a#7 v=0
57884 Par ch=1 c=64 v=127
57896 Off ch=1 n=g7 v=0
57940 On ch=1 n=a7 v=76
58024 On ch=1 n=e7 v=65
58032 Off ch=1 n=a7 v=0
58100 Off ch=1 n=e4 v=0
58100 Off ch=1 n=g4 v=0
58100 Off ch=1 n=e7 v=0
58108 Off ch=1 n=b4 v=0
58124 On ch=1 n=g#7 v=67
58216 On ch=1 n=b6 v=67
58260 Off ch=1 n=g#7 v=0
58280 Off ch=1 n=b6 v=0
58324 On ch=1 n=c5 v=94
58328 On ch=1 n=e4 v=82
58332 On ch=1 n=g4 v=78
58344 On ch=1 n=g7 v=86
58392 Par ch=1 c=64 v=88
58404 Par ch=1 c=64 v=24
58420 Par ch=1 c=64 v=0
58432 Par ch=1 c=64 v=24
58440 Off ch=1 n=g7 v=0
58440 On ch=1 n=c7 v=73
58444 Par ch=1 c=64 v=72
58460 Par ch=1 c=64 v=127
58512 Off ch=1 n=c7 v=0
58524 On ch=1 n=f#7 v=67
58612 Off ch=1 n=f#7 v=0
58612 On ch=1 n=c7 v=61
58688 Off ch=1 n=c7 v=0
58700 On ch=1 n=f7 v=77
58724 Off ch=1 n=c5 v=0
58744 Off ch=1 n=e4 v=0
58772 Off ch=1 n=f7 v=0
58776 Off ch=1 n=g4 v=0
58784 On ch=1 n=g6 v=75
58884 On ch=1 n=e7 v=82
58892 Off ch=1 n=g6 v=0
58892 On ch=1 n=b4 v=85
58896 On ch=1 n=e4 v=72
58896 On ch=1 n=g4 v=70
58952 Par ch=1 c=64 v=104
58968 On ch=1 n=b6 v=68
58968 Par ch=1 c=64 v=24
58980 Off ch=1 n=e7 v=0
58980 Par ch=1 c=64 v=0
59016 Par ch=1 c=64 v=40
59028 Par ch=1 c=64 v=127
59052 On ch=1 n=d#7 v=69
59056 Off ch=1 n=b6 v=0
59132 Off ch=1 n=d#7 v=64
59140 On ch=1 n=g6 v=64
59172 Off ch=1 n=g4 v=64
59208 Off ch=1 n=g6 v=0
59216 Off ch=1 n=e4 v=64
59220 On ch=1 n=d7 v=81
59304 Off ch=1 n=d7 v=0
59304 On ch=1 n=g6 v=76
59356 Off ch=1 n=b4 v=64
59388 Off ch=1 n=g6 v=0
59392 On ch=1 n=c#7 v=71
59420 On ch=1 n=g4 v=85
59424 On ch=1 n=e4 v=73
59432 On ch=1 n=b3 v=74
59460 Par ch=1 c=64 v=88
59472 Par ch=1 c=64 v=24
59480 On ch=1 n=e6 v=62
59484 Off ch=1 n=c#7 v=0
59488 Par ch=1 c=64 v=0
59512 Par ch=1 c=64 v=24
59524 Par ch=1 c=64 v=88
59536 Par ch=1 c=64 v=127
59572 Off ch=1 n=e6 v=0
59572 On ch=1 n=c7 v=72
59652 On ch=1 n=g6 v=65
59664 Off ch=1 n=c7 v=0
59732 Off ch=1 n=g6 v=0
59740 On ch=1 n=b6 v=66
59756 Off ch=1 n=e4 v=0
59784 Off ch=1 n=g4 v=0
59804 Off ch=1 n=b6 v=0
59824 On ch=1 n=e6 v=67
59928 On ch=1 n=a#6 v=48
59932 Off ch=1 n=e6 v=0
59936 On ch=1 n=b4 v=85
59940 On ch=1 n=g4 v=76
59948 On ch=1 n=e4 v=77
59980 Par ch=1 c=64 v=88
59984 Off ch=1 n=b3 v=0
59996 Par ch=1 c=64 v=0
60032 Off ch=1 n=a#6 v=0
60040 On ch=1 n=g6 v=57
60056 Par ch=1 c=64 v=104
60072 Par ch=1 c=64 v=127
60096 Off ch=1 n=g6 v=0
60144 On ch=1 n=a6 v=68
60224 On ch=1 n=e6 v=64
60228 Off ch=1 n=a6 v=0
60272 Off ch=1 n=g4 v=0
60280 Off ch=1 n=b4 v=0
60280 Off ch=1 n=e4 v=0
60296 Off ch=1 n=e6 v=0
60308 On ch=1 n=g#6 v=60
60392 Off ch=1 n=g#6 v=0
60392 On ch=1 n=e6 v=66
60468 Off ch=1 n=e6 v=0
60484 On ch=1 n=g6 v=77
60556 On ch=1 n=b5 v=67
60564 Off ch=1 n=g6 v=0
60636 Off ch=1 n=b5 v=0
60636 On ch=1 n=f#6 v=65
60728 On ch=1 n=b5 v=70
60732 Off ch=1 n=f#6 v=64
60808 Off ch=1 n=b5 v=0
60820 On ch=1 n=f6 v=82
60896 Off ch=1 n=f6 v=0
60916 On ch=1 n=b5 v=56
60988 Off ch=1 n=b5 v=0
61008 On ch=1 n=e2 v=82
61012 On ch=1 n=e6 v=78
61048 Par ch=1 c=64 v=56
61060 Par ch=1 c=64 v=0
61104 On ch=1 n=b5 v=57
61108 Off ch=1 n=e6 v=0
61124 Par ch=1 c=64 v=56
61136 Par ch=1 c=64 v=127
61188 Off ch=1 n=b5 v=0
61192 On ch=1 n=d#6 v=60
61236 Off ch=1 n=e2 v=0
61272 Off ch=1 n=d#6 v=0
61276 On ch=1 n=g5 v=63
61368 Off ch=1 n=g5 v=0
61368 On ch=1 n=d6 v=73
61444 Off ch=1 n=d6 v=0
61456 On ch=1 n=b5 v=68
61524 Off ch=1 n=b5 v=0
61552 On ch=1 n=c#6 v=68
61556 On ch=1 n=b3 v=90
61556 On ch=1 n=e3 v=70
61596 Par ch=1 c=64 v=72
61608 Par ch=1 c=64 v=0
61652 Off ch=1 n=c#6 v=0
61652 On ch=1 n=g5 v=67
61656 Par ch=1 c=64 v=56
61672 Par ch=1 c=64 v=127
61732 Off ch=1 n=g5 v=0
61740 On ch=1 n=c6 v=68
61816 On ch=1 n=g5 v=59
61824 Off ch=1 n=c6 v=0
61828 Off ch=1 n=e3 v=0
61832 Off ch=1 n=b3 v=0
61892 Off ch=1 n=g5 v=0
61896 On ch=1 n=b5 v=68
61968 Off ch=1 n=b5 v=0
61972 On ch=1 n=b3 v=84
61976 On ch=1 n=e3 v=66
61988 On ch=1 n=e5 v=70
62016 Off ch=1 n=b3 v=0
62036 Off ch=1 n=e3 v=0
62080 On ch=1 n=a#5 v=60
62084 On ch=1 n=e3 v=64
62088 On ch=1 n=b3 v=89
62092 Off ch=1 n=e5 v=0
62116 Par ch=1 c=64 v=88
62128 Par ch=1 c=64 v=0
62156 On ch=1 n=g5 v=60
62176 Par ch=1 c=64 v=24
62180 Off ch=1 n=a#5 v=0
62192 Par ch=1 c=64 v=104
62204 Par ch=1 c=64 v=127
62220 Off ch=1 n=g5 v=64
62268 On ch=1 n=a5 v=62
62344 Off ch=1 n=a5 v=0
62344 On ch=1 n=e5 v=56
62416 Off ch=1 n=e5 v=0
62432 On ch=1 n=g#5 v=56
62496 Off ch=1 n=e3 v=64
62516 On ch=1 n=e5 v=60
62524 Off ch=1 n=g#5 v=0
62588 Off ch=1 n=e5 v=0
62608 Off ch=1 n=b3 v=64
62620 On ch=1 n=c4 v=89
62620 On ch=1 n=g5 v=64
62628 On ch=1 n=e3 v=64
62700 Par ch=1 c=64 v=104
62712 Par ch=1 c=64 v=24
62724 On ch=1 n=c5 v=40
62724 Par ch=1 c=64 v=0
62732 Off ch=1 n=g5 v=0
62788 Off ch=1 n=c5 v=0
62788 Par ch=1 c=64 v=72
62800 Par ch=1 c=64 v=127
62808 On ch=1 n=f#5 v=47
62900 On ch=1 n=c5 v=51
62904 Off ch=1 n=f#5 v=0
62980 Off ch=1 n=c5 v=0
63000 On ch=1 n=f5 v=57
63016 Off ch=1 n=e3 v=0
63064 Off ch=1 n=f5 v=0
63064 On ch=1 n=c5 v=58
63128 Off ch=1 n=c4 v=0
63148 Off ch=1 n=c5 v=0
63180 On ch=1 n=e5 v=67
63184 On ch=1 n=b3 v=79
63196 On ch=1 n=e3 v=64
63232 Par ch=1 c=64 v=40
63244 Par ch=1 c=64 v=0
63280 Off ch=1 n=e5 v=0
63284 On ch=1 n=b4 v=61
63296 Par ch=1 c=64 v=72
63308 Par ch=1 c=64 v=127
63364 Off ch=1 n=b4 v=0
63364 On ch=1 n=d#5 v=58
63380 Off ch=1 n=b3 v=0
63424 Off ch=1 n=e3 v=0
63448 Off ch=1 n=d#5 v=0
63456 On ch=1 n=g4 v=56
63544 On ch=1 n=d5 v=73
63548 Off ch=1 n=g4 v=0
63632 Off ch=1 n=d5 v=0
63648 On ch=1 n=b4 v=58
63700 On ch=1 n=e2 v=90
63708 Off ch=1 n=b4 v=0
63728 Par ch=1 c=64 v=104
63732 On ch=1 n=c#5 v=60
63740 Par ch=1 c=64 v=24
63752 Par ch=1 c=64 v=0
63788 Par ch=1 c=64 v=56
63804 Par ch=1 c=64 v=127
63832 Off ch=1 n=c#5 v=0
63836 On ch=1 n=g4 v=65
63900 Off ch=1 n=g4 v=0
63920 On ch=1 n=c5 v=70
63992 On ch=1 n=g4 v=68
64004 Off ch=1 n=c5 v=0
64060 Off ch=1 n=g4 v=0
64064 On ch=1 n=b4 v=68
64140 Off ch=1 n=b4 v=0
64148 On ch=1 n=e4 v=80
64224 Off ch=1 n=e2 v=64
64244 On ch=1 n=a#4 v=69
64252 On ch=1 n=b2 v=82
64260 Par ch=1 c=64 v=104
64268 Off ch=1 n=e4 v=0
64272 Par ch=1 c=64 v=24
64288 Par ch=1 c=64 v=0
64324 On ch=1 n=g4 v=66
64336 Par ch=1 c=64 v=56
64348 Par ch=1 c=64 v=127
64372 Off ch=1 n=a#4 v=0
64396 Off ch=1 n=g4 v=0
64432 On ch=1 n=a4 v=60
64484 Off ch=1 n=b2 v=0
64512 On ch=1 n=e4 v=68
64520 Off ch=1 n=a4 v=0
64584 Off ch=1 n=e4 v=0
64592 On ch=1 n=g#4 v=67
64676 Off ch=1 n=g#4 v=0
64680 On ch=1 n=b3 v=71
64772 Off ch=1 n=b3 v=0
64776 On ch=1 n=g4 v=70
64852 On ch=1 n=e4 v=68
64872 Off ch=1 n=g4 v=0
64936 Off ch=1 n=e4 v=0
64936 On ch=1 n=f#4 v=71
65040 Off ch=1 n=f#4 v=0
65068 On ch=1 n=c4 v=64
65096 Off ch=1 n=c4 v=0
65144 On ch=1 n=g4 v=79
65228 Off ch=1 n=g4 v=0
65232 On ch=1 n=c4 v=69
65320 Off ch=1 n=c4 v=0
65372 On ch=1 n=b4 v=75
65380 On ch=1 n=d#2 v=72
65452 Par ch=1 c=64 v=72
65468 Par ch=1 c=64 v=127
65472 On ch=1 n=f#4 v=63
65492 Off ch=1 n=b4 v=0
65532 Off ch=1 n=d#2 v=0
65552 On ch=1 n=a4 v=62
65560 Off ch=1 n=f#4 v=0
65596 Off ch=1 n=a4 v=0
65648 On ch=1 n=c5 v=71
65724 Off ch=1 n=c5 v=0
65744 On ch=1 n=b5 v=74
65828 On ch=1 n=f#5 v=60
65876 Par ch=1 c=64 v=72
65880 Off ch=1 n=b5 v=0
65888 On ch=1 n=a5 v=72
65888 Par ch=1 c=64 v=0
65896 Off ch=1 n=f#5 v=0
65904 On ch=1 n=d#4 v=71
65904 On ch=1 n=c5 v=81
65920 Off ch=1 n=a5 v=0
65928 Par ch=1 c=64 v=40
65940 Par ch=1 c=64 v=88
65956 Par ch=1 c=64 v=127
65976 On ch=1 n=c6 v=89
66032 Off ch=1 n=d#4 v=0
66072 Off ch=1 n=c6 v=0
66080 On ch=1 n=b6 v=85
66088 Off ch=1 n=c5 v=0
66164 On ch=1 n=f#6 v=73
66192 Off ch=1 n=b6 v=0
66256 On ch=1 n=a6 v=79
66260 Off ch=1 n=f#6 v=0
66312 On ch=1 n=d#4 v=68
66320 On ch=1 n=c5 v=78
66340 Off ch=1 n=a6 v=0
66348 On ch=1 n=c6 v=82
66368 Off ch=1 n=d#4 v=0
66368 Off ch=1 n=c5 v=0
66416 Par ch=1 c=64 v=56
66424 On ch=1 n=c5 v=86
66428 Par ch=1 c=64 v=0
66432 On ch=1 n=e4 v=82
66440 Off ch=1 n=c6 v=0
66448 On ch=1 n=a6 v=92
66520 Par ch=1 c=64 v=88
66532 Off ch=1 n=c5 v=0
66536 On ch=1 n=e6 v=77
66536 Par ch=1 c=64 v=127
66548 Off ch=1 n=e4 v=0
66560 Off ch=1 n=a6 v=0
66628 On ch=1 n=g6 v=76
66652 Off ch=1 n=e6 v=0
66708 Off ch=1 n=g6 v=0
66724 On ch=1 n=c6 v=58
66752 Off ch=1 n=c6 v=0
66816 On ch=1 n=a5 v=68
66888 On ch=1 n=e5 v=70
66896 Off ch=1 n=a5 v=0
66980 On ch=1 n=g5 v=74
66984 On ch=1 n=e3 v=74
66988 Off ch=1 n=e5 v=0
66996 On ch=1 n=e2 v=59
67068 Off ch=1 n=g5 v=0
67084 On ch=1 n=c5 v=74
67136 Off ch=1 n=c5 v=0
67204 On ch=1 n=a4 v=58
67268 On ch=1 n=e4 v=41
67292 Off ch=1 n=a4 v=0
67356 Off ch=1 n=e4 v=0
67372 Off ch=1 n=e3 v=0
67376 On ch=1 n=g4 v=60
67388 Off ch=1 n=e2 v=0
67432 Off ch=1 n=g4 v=0
67452 On ch=1 n=c4 v=66
67540 Off ch=1 n=c4 v=0
67568 On ch=1 n=b4 v=68
67576 On ch=1 n=d#3 v=67
67584 On ch=1 n=d#2 v=60
67588 Par ch=1 c=64 v=72
67600 Par ch=1 c=64 v=0
67672 On ch=1 n=f#4 v=57
67708 Par ch=1 c=64 v=72
67712 Off ch=1 n=b4 v=0
67720 Par ch=1 c=64 v=127
67740 On ch=1 n=a4 v=62
67752 Off ch=1 n=f#4 v=0
67784 Off ch=1 n=a4 v=0
67796 Off ch=1 n=d#2 v=0
67804 Off ch=1 n=d#3 v=0
67848 On ch=1 n=c5 v=72
67904 Off ch=1 n=c5 v=0
67936 On ch=1 n=b5 v=74
68028 On ch=1 n=f#5 v=57
68080 On ch=1 n=d5 v=83
68084 On ch=1 n=a5 v=73
68088 Off ch=1 n=f#5 v=0
68096 Off ch=1 n=b5 v=0
68096 On ch=1 n=d#4 v=65
68108 Off ch=1 n=a5 v=0
68180 Off ch=1 n=d5 v=0
68180 On ch=1 n=c6 v=83
68192 Off ch=1 n=d#4 v=0
68264 Off ch=1 n=c6 v=0
68276 On ch=1 n=b6 v=86
68292 On ch=1 n=c5 v=81
68300 On ch=1 n=d#4 v=73
68352 On ch=1 n=f#6 v=59
68384 Off ch=1 n=b6 v=0
68384 Off ch=1 n=c5 v=0
68396 Off ch=1 n=d#4 v=0
68420 On ch=1 n=a6 v=74
68440 Off ch=1 n=f#6 v=0
68508 Off ch=1 n=a6 v=0
68524 On ch=1 n=b5 v=77
68556 On ch=1 n=d#4 v=73
68564 On ch=1 n=b4 v=81
68600 Off ch=1 n=b5 v=0
68608 Off ch=1 n=d#4 v=0
68608 Off ch=1 n=b4 v=0
68628 On ch=1 n=a6 v=85
68628 Par ch=1 c=64 v=104
68644 Par ch=1 c=64 v=24
68652 On ch=1 n=b4 v=87
68656 Par ch=1 c=64 v=0
68660 On ch=1 n=e4 v=77
68732 On ch=1 n=e6 v=73
68736 Par ch=1 c=64 v=40
68744 Off ch=1 n=b4 v=0
68748 Par ch=1 c=64 v=127
68764 Off ch=1 n=a6 v=0
68768 Off ch=1 n=e4 v=0
68808 On ch=1 n=g6 v=70
68840 Off ch=1 n=e6 v=0
68892 On ch=1 n=b5 v=69
68896 Off ch=1 n=g6 v=0
68940 Off ch=1 n=b5 v=0
69000 On ch=1 n=a5 v=60
69084 On ch=1 n=e5 v=62
69096 Off ch=1 n=a5 v=0
69156 On ch=1 n=g5 v=67
69160 Off ch=1 n=e5 v=0
69172 On ch=1 n=e3 v=84
69180 On ch=1 n=e2 v=74
69248 Off ch=1 n=g5 v=0
69264 On ch=1 n=b4 v=64
69292 Off ch=1 n=b4 v=0
69360 On ch=1 n=a4 v=72
69460 On ch=1 n=e4 v=66
69484 Off ch=1 n=a4 v=0
69532 Off ch=1 n=e2 v=0
69536 Off ch=1 n=e3 v=0
69536 On ch=1 n=g4 v=58
69556 Off ch=1 n=e4 v=0
69612 On ch=1 n=f#4 v=73
69628 Off ch=1 n=g4 v=0
69668 Off ch=1 n=f#4 v=0
69764 On ch=1 n=f#3 v=80
69764 On ch=1 n=f#2 v=78
69764 Par ch=1 c=64 v=104
69768 On ch=1 n=e5 v=78
69776 Par ch=1 c=64 v=56
69788 Par ch=1 c=64 v=0
69864 Off ch=1 n=e5 v=0
69864 On ch=1 n=b4 v=68
69896 Par ch=1 c=64 v=104
69908 Par ch=1 c=64 v=127
69940 On ch=1 n=d#5 v=63
69948 Off ch=1 n=b4 v=0
69956 Off ch=1 n=f#2 v=0
69976 Off ch=1 n=f#3 v=0
69984 Off ch=1 n=d#5 v=0
70040 On ch=1 n=f#5 v=73
70120 Off ch=1 n=f#5 v=0
70136 On ch=1 n=e6 v=81
70236 On ch=1 n=b5 v=68
70244 Off ch=1 n=e6 v=0
70316 On ch=1 n=d#6 v=73
70324 On ch=1 n=b4 v=74
70324 On ch=1 n=f#4 v=69
70332 Off ch=1 n=b5 v=0
70364 Off ch=1 n=d#6 v=0
70420 On ch=1 n=f#6 v=73
70424 Off ch=1 n=f#4 v=0
70464 Off ch=1 n=b4 v=0
70500 Off ch=1 n=f#6 v=0
70500 On ch=1 n=d#5 v=78
70508 On ch=1 n=e7 v=86
70612 Off ch=1 n=d#5 v=0
70616 On ch=1 n=b6 v=74
70620 Off ch=1 n=e7 v=0
70684 On ch=1 n=g#5 v=79
70696 Off ch=1 n=b6 v=0
70696 On ch=1 n=d#7 v=84
70740 Off ch=1 n=g#5 v=0
70768 Off ch=1 n=d#7 v=0
70784 On ch=1 n=f#6 v=69
70868 Off ch=1 n=f#6 v=0
70880 On ch=1 n=e5 v=79
70884 Par ch=1 c=64 v=88
70888 On ch=1 n=f#5 v=82
70892 On ch=1 n=d#7 v=85
70896 On ch=1 n=a#4 v=50
70896 Par ch=1 c=64 v=0
70904 On ch=1 n=f#4 v=50
70988 Par ch=1 c=64 v=88
71000 On ch=1 n=a#6 v=67
71000 Par ch=1 c=64 v=127
71016 Off ch=1 n=d#7 v=0
71048 Off ch=1 n=e5 v=0
71048 Off ch=1 n=f#5 v=0
71072 On ch=1 n=c#7 v=64
71092 Off ch=1 n=a#4 v=0
71104 Off ch=1 n=f#4 v=0
71108 Off ch=1 n=a#6 v=0
71144 On ch=1 n=f#6 v=67
71152 Off ch=1 n=c#7 v=0
71192 Off ch=1 n=f#6 v=0
71252 On ch=1 n=d#6 v=69
71348 On ch=1 n=a#5 v=61
71360 Off ch=1 n=d#6 v=0
71432 On ch=1 n=f#3 v=91
71432 On ch=1 n=c#6 v=60
71436 On ch=1 n=f#2 v=73
71444 Off ch=1 n=a#5 v=0
71536 Off ch=1 n=c#6 v=0
71540 On ch=1 n=f#5 v=61
71572 Off ch=1 n=f#5 v=0
71652 On ch=1 n=d#5 v=64
71748 On ch=1 n=a#4 v=57
71756 Off ch=1 n=f#2 v=0
71756 Off ch=1 n=d#5 v=0
71792 Off ch=1 n=f#3 v=0
71832 Off ch=1 n=a#4 v=0
71836 On ch=1 n=c#5 v=57
71908 Off ch=1 n=c#5 v=0
71924 On ch=1 n=f#4 v=64
72004 Off ch=1 n=f#4 v=0
72036 On ch=1 n=b3 v=87
72036 On ch=1 n=e5 v=77
72040 On ch=1 n=b2 v=71
72044 Par ch=1 c=64 v=40
72056 Par ch=1 c=64 v=0
72132 On ch=1 n=b4 v=60
72148 Par ch=1 c=64 v=40
72152 Off ch=1 n=e5 v=0
72160 Par ch=1 c=64 v=127
72228 On ch=1 n=d#5 v=59
72236 Off ch=1 n=b4 v=0
72240 Off ch=1 n=b2 v=0
72276 Off ch=1 n=d#5 v=0
72284 Off ch=1 n=b3 v=0
72336 On ch=1 n=f#5 v=65
72416 Off ch=1 n=f#5 v=0
72432 On ch=1 n=e6 v=73
72516 On ch=1 n=b5 v=61
72548 Off ch=1 n=e6 v=0
72588 On ch=1 n=d#6 v=73
72592 On ch=1 n=d#5 v=81
72596 On ch=1 n=f#4 v=69
72600 Off ch=1 n=b5 v=0
72640 Off ch=1 n=d#6 v=0
72652 Off ch=1 n=d#5 v=0
72664 Off ch=1 n=f#4 v=0
72696 On ch=1 n=f#6 v=75
72780 Off ch=1 n=f#6 v=0
72788 On ch=1 n=d5 v=68
72792 On ch=1 n=f4 v=70
72792 On ch=1 n=e7 v=85
72844 Off ch=1 n=d5 v=0
72848 Off ch=1 n=f4 v=0
72884 On ch=1 n=b6 v=68
72896 Off ch=1 n=e7 v=0
72960 On ch=1 n=d#5 v=79
72964 On ch=1 n=d#7 v=77
72976 On ch=1 n=f#4 v=65
72984 Off ch=1 n=b6 v=0
72996 Off ch=1 n=f#4 v=0
73012 Off ch=1 n=d#5 v=0
73036 Off ch=1 n=d#7 v=0
73052 On ch=1 n=f#6 v=77
73088 Off ch=1 n=f#6 v=0
73180 On ch=1 n=b7 v=107
73188 On ch=1 n=b4 v=89
73192 On ch=1 n=d#4 v=80
73192 Par ch=1 c=64 v=40
73196 On ch=1 n=b3 v=73
73200 Par ch=1 c=64 v=0
73276 Off ch=1 n=b7 v=0
73284 Par ch=1 c=64 v=127
73304 Off ch=1 n=d#4 v=0
73312 Off ch=1 n=b3 v=0
73320 Off ch=1 n=b4 v=0
74136 Par ch=1 c=64 v=104
74152 Par ch=1 c=64 v=72
74164 Par ch=1 c=64 v=40
74180 Par ch=1 c=64 v=0
74404 On ch=1 n=c8 v=94
74408 On ch=1 n=e2 v=88
74428 Par ch=1 c=64 v=104
74440 Par ch=1 c=64 v=127
74516 Off ch=1 n=e2 v=0
74516 On ch=1 n=g7 v=82
74548 Off ch=1 n=c8 v=0
74592 On ch=1 n=b7 v=79
74616 Off ch=1 n=g7 v=0
74688 Off ch=1 n=b7 v=0
74688 On ch=1 n=e7 v=70
74780 On ch=1 n=a#7 v=61
74784 Off ch=1 n=e7 v=0
74856 On ch=1 n=g7 v=70
74888 Off ch=1 n=a#7 v=0
74924 Off ch=1 n=g7 v=0
74964 On ch=1 n=a7 v=89
74964 On ch=1 n=b4 v=84
74968 On ch=1 n=e4 v=74
74976 On ch=1 n=g4 v=74
75056 On ch=1 n=e7 v=76
75068 Off ch=1 n=a7 v=0
75136 Off ch=1 n=e7 v=0
75140 On ch=1 n=g#7 v=75
75224 Off ch=1 n=g#7 v=0
75224 On ch=1 n=e7 v=77
75232 Off ch=1 n=e4 v=0
75248 Off ch=1 n=b4 v=0
75248 Off ch=1 n=g4 v=0
75316 Off ch=1 n=e7 v=0
75316 On ch=1 n=g7 v=79
75392 On ch=1 n=b4 v=84
75396 On ch=1 n=b6 v=66
75400 On ch=1 n=g4 v=74
75400 On ch=1 n=e4 v=67
75412 Off ch=1 n=g7 v=0
75420 Off ch=1 n=g4 v=0
75428 Off ch=1 n=e4 v=0
75440 Off ch=1 n=b4 v=0
75476 Off ch=1 n=b6 v=0
75480 On ch=1 n=f#7 v=77
75488 On ch=1 n=e4 v=75
75488 On ch=1 n=b4 v=77
75496 On ch=1 n=g4 v=76
75572 On ch=1 n=b6 v=72
75596 Off ch=1 n=f#7 v=0
75648 Off ch=1 n=b6 v=0
75676 On ch=1 n=f7 v=79
75744 Off ch=1 n=f7 v=0
75752 On ch=1 n=g6 v=77
75788 Off ch=1 n=g4 v=0
75792 Off ch=1 n=e4 v=0
75808 Off ch=1 n=b4 v=0
75836 Off ch=1 n=g6 v=0
75844 On ch=1 n=e7 v=78
75920 On ch=1 n=b6 v=68
75940 Off ch=1 n=e7 v=0
76000 On ch=1 n=c5 v=86
76008 On ch=1 n=g4 v=71
76008 On ch=1 n=e4 v=67
76016 On ch=1 n=d#7 v=71
76036 Off ch=1 n=b6 v=0
76036 Par ch=1 c=64 v=56
76048 Par ch=1 c=64 v=0
76108 On ch=1 n=g6 v=68
76116 Off ch=1 n=d#7 v=0
76116 Par ch=1 c=64 v=40
76128 Par ch=1 c=64 v=104
76140 Par ch=1 c=64 v=127
76184 Off ch=1 n=g6 v=0
76192 On ch=1 n=d7 v=78
76276 On ch=1 n=g6 v=70
76280 Off ch=1 n=d7 v=0
76304 Off ch=1 n=e4 v=0
76316 Off ch=1 n=c5 v=0
76332 Off ch=1 n=g4 v=0
76344 Off ch=1 n=g6 v=0
76356 On ch=1 n=c#7 v=64
76440 Off ch=1 n=c#7 v=0
76444 On ch=1 n=e6 v=65
76536 On ch=1 n=c7 v=85
76544 Off ch=1 n=e6 v=0
76548 On ch=1 n=b4 v=77
76552 On ch=1 n=g4 v=68
76556 On ch=1 n=e4 v=58
76576 Par ch=1 c=64 v=56
76588 Par ch=1 c=64 v=0
76628 On ch=1 n=g6 v=71
76628 Par ch=1 c=64 v=24
76640 Par ch=1 c=64 v=72
76652 Off ch=1 n=c7 v=0
76656 Par ch=1 c=64 v=127
76676 Off ch=1 n=g4 v=0
76712 On ch=1 n=b6 v=79
76724 Off ch=1 n=e4 v=0
76724 Off ch=1 n=g6 v=0
76792 Off ch=1 n=b6 v=0
76800 On ch=1 n=e6 v=72
76808 Off ch=1 n=b4 v=0
76884 On ch=1 n=a#6 v=69
76888 Off ch=1 n=e6 v=0
76964 On ch=1 n=g6 v=70
77000 Off ch=1 n=a#6 v=0
77028 Off ch=1 n=g6 v=0
77048 On ch=1 n=g4 v=79
77048 Par ch=1 c=64 v=104
77052 On ch=1 n=e4 v=64
77064 Par ch=1 c=64 v=40
77068 On ch=1 n=a6 v=82
77072 On ch=1 n=b3 v=60
77076 Par ch=1 c=64 v=24
77092 Par ch=1 c=64 v=40
77104 Par ch=1 c=64 v=88
77116 Par ch=1 c=64 v=127
77156 On ch=1 n=e6 v=73
77168 Off ch=1 n=a6 v=0
77244 Off ch=1 n=e6 v=0
77244 On ch=1 n=g#6 v=65
77268 Off ch=1 n=e4 v=0
77300 Off ch=1 n=g4 v=0
77320 On ch=1 n=e6 v=64
77328 Off ch=1 n=g#6 v=0
77400 Off ch=1 n=e6 v=0
77408 On ch=1 n=g6 v=81
77492 On ch=1 n=b5 v=64
77508 Off ch=1 n=g6 v=0
77576 On ch=1 n=f#6 v=73
77580 Off ch=1 n=b5 v=0
77584 On ch=1 n=b4 v=79
77592 On ch=1 n=g4 v=71
77592 On ch=1 n=e4 v=68
77624 Off ch=1 n=b3 v=0
77632 Par ch=1 c=64 v=56
77644 Par ch=1 c=64 v=0
77672 On ch=1 n=b5 v=68
77684 Par ch=1 c=64 v=40
77696 Off ch=1 n=f#6 v=0
77696 Par ch=1 c=64 v=104
77712 Par ch=1 c=64 v=127
77748 Off ch=1 n=b5 v=0
77776 On ch=1 n=f6 v=73
77840 Off ch=1 n=f6 v=0
77856 On ch=1 n=g5 v=65
77872 Off ch=1 n=g4 v=0
77872 Off ch=1 n=e4 v=0
77900 Off ch=1 n=b4 v=0
77944 On ch=1 n=e6 v=78
77952 Off ch=1 n=g5 v=0
78028 On ch=1 n=b5 v=65
78040 Off ch=1 n=e6 v=0
78108 On ch=1 n=d#6 v=69
78120 Off ch=1 n=b5 v=0
78192 Off ch=1 n=d#6 v=0
78196 On ch=1 n=g5 v=65
78268 Off ch=1 n=g5 v=0
78276 On ch=1 n=d6 v=82
78356 Off ch=1 n=d6 v=0
78360 On ch=1 n=g5 v=68
78428 On ch=1 n=c#6 v=64
78432 Off ch=1 n=g5 v=0
78508 Off ch=1 n=c#6 v=0
78540 On ch=1 n=e5 v=39
78612 Off ch=1 n=e5 v=0
78628 On ch=1 n=c6 v=85
78644 On ch=1 n=g2 v=70
78660 Par ch=1 c=64 v=104
78672 Par ch=1 c=64 v=24
78684 Par ch=1 c=64 v=0
78712 On ch=1 n=g5 v=66
78736 Par ch=1 c=64 v=56
78744 Off ch=1 n=c6 v=0
78748 Par ch=1 c=64 v=127
78796 On ch=1 n=b5 v=63
78812 Off ch=1 n=g5 v=0
78848 Off ch=1 n=g2 v=0
78876 Off ch=1 n=b5 v=0
78876 On ch=1 n=f5 v=66
78952 Off ch=1 n=f5 v=0
78964 On ch=1 n=a#5 v=73
79056 On ch=1 n=f5 v=68
79072 Off ch=1 n=a#5 v=0
79136 Off ch=1 n=f5 v=0
79152 On ch=1 n=a5 v=83
79156 On ch=1 n=b3 v=70
79164 On ch=1 n=d3 v=61
79172 Par ch=1 c=64 v=56
79188 Par ch=1 c=64 v=0
79212 Par ch=1 c=64 v=40
79224 On ch=1 n=d5 v=64
79224 Par ch=1 c=64 v=88
79240 Par ch=1 c=64 v=127
79244 Off ch=1 n=a5 v=0
79292 On ch=1 n=g#5 v=69
79308 Off ch=1 n=d5 v=0
79368 Off ch=1 n=b3 v=0
79392 Off ch=1 n=d3 v=0
79396 Off ch=1 n=g#5 v=0
79404 On ch=1 n=d5 v=70
79476 On ch=1 n=g5 v=74
79480 Off ch=1 n=d5 v=0
79556 On ch=1 n=b3 v=70
79564 On ch=1 n=d3 v=63
79568 Off ch=1 n=g5 v=0
79568 On ch=1 n=b4 v=66
79612 Off ch=1 n=b3 v=0
79620 Off ch=1 n=d3 v=0
79644 Off ch=1 n=b4 v=0
79652 On ch=1 n=f#5 v=73
79700 On ch=1 n=b3 v=77
79700 On ch=1 n=d3 v=62
79728 Par ch=1 c=64 v=72
79736 On ch=1 n=b4 v=75
79740 Par ch=1 c=64 v=40
79752 Off ch=1 n=f#5 v=0
79752 Par ch=1 c=64 v=56
79764 Par ch=1 c=64 v=104
79780 Par ch=1 c=64 v=127
79816 Off ch=1 n=b4 v=0
79832 On ch=1 n=f5 v=82
79900 Off ch=1 n=f5 v=0
79912 On ch=1 n=g4 v=70
79992 On ch=1 n=e5 v=82
79996 Off ch=1 n=g4 v=0
80048 Off ch=1 n=b3 v=0
80052 Off ch=1 n=d3 v=0
80100 On ch=1 n=f#4 v=71
80104 Off ch=1 n=e5 v=0
80172 Off ch=1 n=f#4 v=0
80196 On ch=1 n=d#5 v=76
80196 On ch=1 n=c4 v=80
80208 On ch=1 n=d3 v=64
80212 Par ch=1 c=64 v=72
80216 On ch=1 n=c#5 v=30
80224 Par ch=1 c=64 v=0
80252 Off ch=1 n=d#5 v=0
80268 Par ch=1 c=64 v=88
80272 On ch=1 n=f#4 v=63
80276 Off ch=1 n=c#5 v=0
80280 Par ch=1 c=64 v=127
80348 Off ch=1 n=f#4 v=0
80352 On ch=1 n=d5 v=83
80440 Off ch=1 n=d5 v=0
80444 On ch=1 n=g4 v=81
80532 Off ch=1 n=c4 v=0
80532 Off ch=1 n=d3 v=0
80544 Off ch=1 n=g4 v=0
80544 On ch=1 n=c#5 v=71
80608 On ch=1 n=f#4 v=67
80640 Off ch=1 n=c#5 v=0
80704 Off ch=1 n=f#4 v=0
80716 On ch=1 n=c5 v=74
80728 On ch=1 n=b3 v=79
80728 Par ch=1 c=64 v=40
80732 On ch=1 n=d3 v=64
80740 Par ch=1 c=64 v=0
80792 Par ch=1 c=64 v=24
80808 Par ch=1 c=64 v=104
80820 Par ch=1 c=64 v=127
80824 On ch=1 n=g4 v=72
80836 Off ch=1 n=c5 v=0
80880 Off ch=1 n=b3 v=0
80880 On ch=1 n=b4 v=69
80892 Off ch=1 n=g4 v=0
80924 Off ch=1 n=d3 v=0
80956 Off ch=1 n=b4 v=0
80964 On ch=1 n=f4 v=72
81044 Off ch=1 n=f4 v=0
81044 On ch=1 n=a#4 v=73
81152 Off ch=1 n=a#4 v=0
81152 On ch=1 n=f4 v=70
81228 Off ch=1 n=f4 v=0
81228 On ch=1 n=g2 v=72
81228 Par ch=1 c=64 v=104
81232 On ch=1 n=a4 v=80
81240 Par ch=1 c=64 v=0
81308 On ch=1 n=d4 v=68
81308 Par ch=1 c=64 v=24
81320 Off ch=1 n=a4 v=0
81320 Par ch=1 c=64 v=104
81332 Par ch=1 c=64 v=127
81384 On ch=1 n=g#4 v=73
81396 Off ch=1 n=d4 v=0
81480 Off ch=1 n=g#4 v=0
81492 On ch=1 n=f4 v=68
81564 Off ch=1 n=f4 v=0
81564 On ch=1 n=g4 v=76
81648 On ch=1 n=b3 v=74
81688 Off ch=1 n=g4 v=0
81708 Off ch=1 n=g2 v=0
81764 Off ch=1 n=b3 v=0
81764 On ch=1 n=f#4 v=77
81768 Par ch=1 c=64 v=56
81776 On ch=1 n=d3 v=75
81784 Par ch=1 c=64 v=0
81848 Par ch=1 c=64 v=40
81860 Off ch=1 n=f#4 v=0
81860 On ch=1 n=f4 v=66
81860 Par ch=1 c=64 v=104
81876 Par ch=1 c=64 v=127
81940 On ch=1 n=g4 v=70
81944 Off ch=1 n=f4 v=0
81996 Off ch=1 n=g4 v=0
82016 On ch=1 n=b3 v=78
82052 Off ch=1 n=d3 v=0
82104 On ch=1 n=g#4 v=74
82112 Off ch=1 n=b3 v=0
82200 On ch=1 n=f4 v=71
82212 Off ch=1 n=g#4 v=0
82264 Off ch=1 n=f4 v=0
82280 On ch=1 n=a4 v=74
82360 Par ch=1 c=64 v=72
82364 Off ch=1 n=a4 v=0
82368 On ch=1 n=d4 v=74
82372 Par ch=1 c=64 v=0
82416 Par ch=1 c=64 v=24
82428 Par ch=1 c=64 v=56
82440 Par ch=1 c=64 v=104
82452 Off ch=1 n=d4 v=0
82452 Par ch=1 c=64 v=127
82468 On ch=1 n=a#4 v=64
82560 On ch=1 n=g4 v=72
82568 Off ch=1 n=a#4 v=0
82628 Off ch=1 n=g4 v=0
82652 On ch=1 n=b4 v=66
82720 Off ch=1 n=b4 v=0
82732 On ch=1 n=f4 v=74
82812 Off ch=1 n=f4 v=0
82824 Par ch=1 c=64 v=88
82828 On ch=1 n=e5 v=80
82836 Par ch=1 c=64 v=0
82840 On ch=1 n=g2 v=71
82916 On ch=1 n=b4 v=64
82916 Par ch=1 c=64 v=40
82928 Par ch=1 c=64 v=104
82944 Par ch=1 c=64 v=127
82968 Off ch=1 n=e5 v=0
82984 Off ch=1 n=b4 v=0
82988 On ch=1 n=d5 v=66
83004 Off ch=1 n=g2 v=0
83020 Off ch=1 n=d5 v=0
83092 On ch=1 n=f5 v=70
83160 Off ch=1 n=f5 v=0
83176 On ch=1 n=e6 v=78
83268 On ch=1 n=b5 v=59
83332 On ch=1 n=d6 v=72
83336 Off ch=1 n=b5 v=0
83348 Off ch=1 n=e6 v=0
83356 On ch=1 n=b4 v=79
83356 On ch=1 n=d4 v=78
83376 Off ch=1 n=d6 v=0
83404 Off ch=1 n=b4 v=0
83412 Off ch=1 n=d4 v=0
83432 On ch=1 n=f6 v=82
83524 Off ch=1 n=f6 v=0
83540 On ch=1 n=e7 v=88
83544 On ch=1 n=f#3 v=64
83636 Off ch=1 n=f#3 v=0
83640 On ch=1 n=b6 v=64
83652 Off ch=1 n=e7 v=0
83704 On ch=1 n=g3 v=72
83708 On ch=1 n=d7 v=79
83712 Off ch=1 n=b6 v=0
83736 Off ch=1 n=g3 v=0
83792 Off ch=1 n=d7 v=0
83796 On ch=1 n=f6 v=79
83852 Par ch=1 c=64 v=24
83864 Par ch=1 c=64 v=0
83868 On ch=1 n=g#3 v=71
83892 On ch=1 n=d4 v=71
83904 Off ch=1 n=f6 v=0
83936 On ch=1 n=e7 v=82
83944 Par ch=1 c=64 v=88
83948 On ch=1 n=a#4 v=85
83952 Off ch=1 n=g#3 v=0
83956 Par ch=1 c=64 v=127
83984 Off ch=1 n=d4 v=0
84000 Off ch=1 n=a#4 v=0
84044 On ch=1 n=a#6 v=54
84060 Off ch=1 n=e7 v=0
84108 On ch=1 n=d7 v=60
84144 Off ch=1 n=a#6 v=0
84192 Off ch=1 n=d7 v=0
84192 On ch=1 n=f6 v=70
84224 Off ch=1 n=f6 v=0
84296 On ch=1 n=e6 v=81
84384 On ch=1 n=a#5 v=64
84404 Off ch=1 n=e6 v=0
84480 On ch=1 n=d6 v=61
84484 On ch=1 n=g#2 v=77
84504 Off ch=1 n=a#5 v=0
84556 Off ch=1 n=d6 v=0
84556 On ch=1 n=f5 v=68
84600 Off ch=1 n=f5 v=0
84668 On ch=1 n=e5 v=67
84752 On ch=1 n=a#4 v=55
84760 Off ch=1 n=e5 v=0
84824 Off ch=1 n=a#4 v=0
84832 On ch=1 n=d5 v=65
84916 Off ch=1 n=d5 v=0
84924 On ch=1 n=f4 v=69
84948 Off ch=1 n=g#2 v=0
85000 Off ch=1 n=f4 v=0
85024 On ch=1 n=e5 v=70
85024 Par ch=1 c=64 v=88
85036 Par ch=1 c=64 v=0
85052 On ch=1 n=a2 v=78
85096 On ch=1 n=a4 v=58
85116 Par ch=1 c=64 v=72
85128 Par ch=1 c=64 v=127
85140 Off ch=1 n=e5 v=0
85168 Off ch=1 n=a4 v=0
85172 On ch=1 n=d5 v=67
85180 Off ch=1 n=a2 v=0
85224 Off ch=1 n=d5 v=0
85288 On ch=1 n=f5 v=70
85360 Off ch=1 n=f5 v=0
85376 On ch=1 n=e6 v=75
85460 On ch=1 n=a5 v=70
85504 Off ch=1 n=e6 v=0
85528 On ch=1 n=d6 v=74
85536 Off ch=1 n=a5 v=0
85548 On ch=1 n=d5 v=82
85556 On ch=1 n=f4 v=79
85580 Off ch=1 n=d6 v=0
85592 Off ch=1 n=d5 v=0
85596 Off ch=1 n=f4 v=0
85624 On ch=1 n=f6 v=86
85716 Off ch=1 n=f6 v=0
85720 On ch=1 n=e7 v=88
85736 On ch=1 n=g#3 v=64
85804 On ch=1 n=a6 v=70
85832 Off ch=1 n=g#3 v=0
85836 Off ch=1 n=e7 v=0
85888 Off ch=1 n=a6 v=0
85888 On ch=1 n=a3 v=81
85888 On ch=1 n=d7 v=82
85920 On ch=1 n=c7 v=33
85936 Off ch=1 n=a3 v=0
85944 Off ch=1 n=c7 v=0
85968 Off ch=1 n=d7 v=0
85980 On ch=1 n=f6 v=81
86012 Par ch=1 c=64 v=88
86024 Par ch=1 c=64 v=0
86056 On ch=1 n=a#3 v=68
86100 On ch=1 n=f4 v=61
86104 Par ch=1 c=64 v=104
86120 Off ch=1 n=f6 v=0
86120 Par ch=1 c=64 v=127
86128 Off ch=1 n=a#3 v=0
86128 On ch=1 n=g#4 v=58
86144 On ch=1 n=e7 v=87
86172 On ch=1 n=d5 v=80
86224 Off ch=1 n=f4 v=0
86232 Off ch=1 n=d5 v=0
86244 On ch=1 n=g#6 v=68
86256 Off ch=1 n=g#4 v=0
86264 Off ch=1 n=e7 v=0
86320 On ch=1 n=d7 v=64
86344 Off ch=1 n=g#6 v=0
86384 On ch=1 n=f6 v=77
86396 Off ch=1 n=d7 v=0
86436 Off ch=1 n=f6 v=0
86496 On ch=1 n=e6 v=82
86588 On ch=1 n=g#5 v=57
86604 Off ch=1 n=e6 v=0
86676 On ch=1 n=d6 v=67
86680 On ch=1 n=a#2 v=73
86692 Off ch=1 n=g#5 v=0
86752 Off ch=1 n=d6 v=0
86760 On ch=1 n=f5 v=67
86792 Off ch=1 n=f5 v=0
86868 On ch=1 n=e5 v=72
86948 On ch=1 n=g#4 v=54
86968 Off ch=1 n=e5 v=0
87032 Off ch=1 n=g#4 v=0
87032 On ch=1 n=d5 v=72
87124 Off ch=1 n=d5 v=0
87136 On ch=1 n=f4 v=66
87176 Off ch=1 n=a#2 v=0
87220 Off ch=1 n=f4 v=0
87248 On ch=1 n=e5 v=78
87256 On ch=1 n=b2 v=74
87292 Par ch=1 c=64 v=72
87304 Par ch=1 c=64 v=0
87332 On ch=1 n=g4 v=74
87348 Off ch=1 n=e5 v=0
87384 Par ch=1 c=64 v=56
87396 Par ch=1 c=64 v=127
87408 Off ch=1 n=g4 v=0
87424 On ch=1 n=d5 v=60
87504 Off ch=1 n=d5 v=0
87512 Off ch=1 n=b2 v=0
87524 On ch=1 n=f4 v=64
87552 Off ch=1 n=f4 v=0
87592 On ch=1 n=g5 v=78
87684 On ch=1 n=e5 v=64
87696 Off ch=1 n=g5 v=0
87768 On ch=1 n=f5 v=75
87776 Off ch=1 n=e5 v=0
87776 On ch=1 n=g4 v=87
87836 Off ch=1 n=f5 v=0
87868 On ch=1 n=d5 v=71
87928 Off ch=1 n=d5 v=0
87960 On ch=1 n=e6 v=74
88012 Off ch=1 n=g4 v=0
88020 On ch=1 n=g5 v=72
88040 Off ch=1 n=e6 v=0
88104 Off ch=1 n=g5 v=0
88120 On ch=1 n=d6 v=71
88188 Off ch=1 n=d6 v=0
88192 On ch=1 n=g4 v=82
88216 On ch=1 n=f5 v=71
88236 Off ch=1 n=g4 v=0
88276 Off ch=1 n=f5 v=0
88304 On ch=1 n=g6 v=74
88312 On ch=1 n=g4 v=88
88396 On ch=1 n=e6 v=49
88404 Off ch=1 n=g6 v=0
88440 Off ch=1 n=g4 v=0
88468 On ch=1 n=f6 v=82
88476 Off ch=1 n=e6 v=0
88528 Off ch=1 n=f6 v=0
88576 On ch=1 n=d6 v=49
88576 On ch=1 n=e6 v=61
88616 Off ch=1 n=d6 v=0
88620 Off ch=1 n=e6 v=0
88648 On ch=1 n=e7 v=85
88720 On ch=1 n=g6 v=76
88736 Off ch=1 n=e7 v=0
88788 Off ch=1 n=g6 v=0
88808 On ch=1 n=g3 v=74
88812 On ch=1 n=d7 v=68
88816 On ch=1 n=g2 v=59
88872 Off ch=1 n=d7 v=0
88900 On ch=1 n=f6 v=73
88960 Off ch=1 n=f6 v=0
88988 On ch=1 n=g7 v=82
88996 Off ch=1 n=g2 v=0
89052 Off ch=1 n=g3 v=0
89080 On ch=1 n=e7 v=66
89096 Off ch=1 n=g7 v=0
89168 Off ch=1 n=e7 v=0
89168 On ch=1 n=f7 v=74
89252 Off ch=1 n=f7 v=0
89252 On ch=1 n=d7 v=66
89348 Off ch=1 n=d7 v=0
89360 On ch=1 n=a7 v=83
89372 Par ch=1 c=64 v=104
89380 On ch=1 n=c4 v=74
89388 Par ch=1 c=64 v=24
89396 On ch=1 n=c3 v=54
89400 Par ch=1 c=64 v=0
89440 On ch=1 n=e7 v=66
89464 Par ch=1 c=64 v=72
89480 Off ch=1 n=a7 v=0
89480 Par ch=1 c=64 v=127
89492 Off ch=1 n=c3 v=0
89524 Off ch=1 n=c4 v=0
89524 On ch=1 n=g7 v=68
89540 Off ch=1 n=e7 v=0
89600 Off ch=1 n=g7 v=0
89608 On ch=1 n=c7 v=77
89660 Off ch=1 n=c7 v=0
89704 On ch=1 n=e8 v=93
89768 Off ch=1 n=e8 v=0
89808 On ch=1 n=g7 v=73
89864 Off ch=1 n=g7 v=0
89864 On ch=1 n=e4 v=65
89884 On ch=1 n=d8 v=84
89960 On ch=1 n=g7 v=72
89964 Off ch=1 n=d8 v=0
90008 Off ch=1 n=e4 v=0
90036 Off ch=1 n=g7 v=0
90060 On ch=1 n=c8 v=82
90084 On ch=1 n=c5 v=60
90128 On ch=1 n=e7 v=72
90148 Off ch=1 n=c8 v=0
90216 On ch=1 n=b7 v=77
90228 Off ch=1 n=e7 v=0
90248 On ch=1 n=g#5 v=79
90284 Off ch=1 n=c5 v=0
90284 Off ch=1 n=g#5 v=0
90296 Off ch=1 n=b7 v=0
90316 On ch=1 n=g#7 v=73
90388 Off ch=1 n=g#7 v=0
90420 On ch=1 n=a#7 v=77
90428 Par ch=1 c=64 v=56
90440 Par ch=1 c=64 v=0
90456 On ch=1 n=f3 v=75
90496 Par ch=1 c=64 v=56
90508 Par ch=1 c=64 v=127
90516 Off ch=1 n=f3 v=0
90516 On ch=1 n=f7 v=76
90548 Off ch=1 n=a#7 v=0
90608 On ch=1 n=g#7 v=70
90624 Off ch=1 n=f7 v=0
90684 Off ch=1 n=g#7 v=0
90684 On ch=1 n=c#7 v=67
90772 Off ch=1 n=c#7 v=0
90772 On ch=1 n=f#7 v=65
90840 Off ch=1 n=f#7 v=0
90840 On ch=1 n=c#7 v=62
90856 On ch=1 n=g#4 v=67
90872 On ch=1 n=f4 v=63
90892 Off ch=1 n=c#7 v=0
90932 On ch=1 n=f7 v=85
91024 Off ch=1 n=f7 v=0
91036 On ch=1 n=g#6 v=65
91096 Off ch=1 n=g#6 v=0
91104 On ch=1 n=d#7 v=78
91120 On ch=1 n=c#5 v=65
91192 Off ch=1 n=d#7 v=0
91192 On ch=1 n=g#6 v=77
91232 Off ch=1 n=f4 v=0
91256 Off ch=1 n=g#6 v=0
91272 On ch=1 n=c#7 v=79
91280 On ch=1 n=g#5 v=73
91300 Off ch=1 n=g#4 v=0
91300 Off ch=1 n=c#5 v=0
91324 Off ch=1 n=g#5 v=0
91340 Off ch=1 n=c#7 v=0
91364 On ch=1 n=f6 v=74
91432 Off ch=1 n=f6 v=0
91464 Par ch=1 c=64 v=104
91480 On ch=1 n=c#7 v=87
91480 Par ch=1 c=64 v=40
91492 Par ch=1 c=64 v=0
91500 On ch=1 n=g3 v=67
91564 Par ch=1 c=64 v=40
91576 Par ch=1 c=64 v=104
91584 Off ch=1 n=c#7 v=0
91584 On ch=1 n=f#6 v=74
91592 Par ch=1 c=64 v=127
91620 Off ch=1 n=g3 v=0
91672 On ch=1 n=c7 v=82
91680 Off ch=1 n=f#6 v=0
91748 On ch=1 n=e6 v=74
91780 Off ch=1 n=c7 v=0
91844 Off ch=1 n=e6 v=0
91844 On ch=1 n=g6 v=76
91924 Off ch=1 n=g6 v=0
91944 On ch=1 n=c6 v=64
91996 On ch=1 n=c5 v=64
92012 On ch=1 n=g#6 v=79
92028 Off ch=1 n=c6 v=0
92028 On ch=1 n=g4 v=45
92104 On ch=1 n=e6 v=77
92108 Off ch=1 n=g#6 v=64
92192 Off ch=1 n=e6 v=0
92196 On ch=1 n=f#6 v=72
92228 On ch=1 n=e5 v=44
92256 Off ch=1 n=g4 v=64
92288 On ch=1 n=c6 v=74
92300 Off ch=1 n=f#6 v=0
92316 Off ch=1 n=c5 v=64
92340 Off ch=1 n=e5 v=0
92372 Off ch=1 n=c6 v=0
92372 On ch=1 n=g5 v=39
92380 On ch=1 n=g6 v=82
92400 Off ch=1 n=g5 v=0
92476 On ch=1 n=c6 v=70
92496 Off ch=1 n=g6 v=0
92540 Par ch=1 c=64 v=104
92552 Par ch=1 c=64 v=56
92560 Off ch=1 n=c6 v=0
92568 On ch=1 n=a6 v=89
92568 Par ch=1 c=64 v=0
92596 On ch=1 n=g3 v=59
92648 Par ch=1 c=64 v=56
92668 On ch=1 n=b5 v=59
92668 Par ch=1 c=64 v=127
92688 Off ch=1 n=g3 v=0
92716 Off ch=1 n=a6 v=0
92764 On ch=1 n=f#6 v=80
92780 Off ch=1 n=b5 v=0
92856 Off ch=1 n=f#6 v=0
92864 On ch=1 n=f6 v=68
92940 On ch=1 n=g6 v=77
92948 Off ch=1 n=f6 v=0
93008 Off ch=1 n=g6 v=0
93008 On ch=1 n=b5 v=67
93056 Off ch=1 n=b5 v=0
93120 On ch=1 n=b6 v=84
93124 Par ch=1 c=64 v=88
93132 On ch=1 n=d5 v=62
93140 On ch=1 n=f5 v=57
93140 On ch=1 n=g5 v=60
93140 Par ch=1 c=64 v=24
93144 On ch=1 n=g4 v=61
93152 Par ch=1 c=64 v=0
93208 Par ch=1 c=64 v=24
93216 On ch=1 n=f6 v=79
93224 Off ch=1 n=b6 v=0
93224 Par ch=1 c=64 v=88
93236 Par ch=1 c=64 v=127
93280 Off ch=1 n=d5 v=0
93280 Off ch=1 n=g5 v=0
93284 Off ch=1 n=f5 v=0
93304 Off ch=1 n=f6 v=0
93320 Off ch=1 n=g4 v=0
93320 On ch=1 n=e7 v=89
93396 On ch=1 n=g6 v=84
93416 Off ch=1 n=e7 v=0
93484 Off ch=1 n=g6 v=0
93508 On ch=1 n=d7 v=87
93580 On ch=1 n=f6 v=73
93600 Off ch=1 n=d7 v=0
93644 Par ch=1 c=64 v=72
93648 On ch=1 n=c4 v=62
93652 On ch=1 n=g4 v=61
93656 Par ch=1 c=64 v=0
93672 Off ch=1 n=f6 v=64
93700 On ch=1 n=d7 v=88
93732 On ch=1 n=e5 v=62
93736 Off ch=1 n=c4 v=0
93752 Par ch=1 c=64 v=104
93768 Par ch=1 c=64 v=127
93796 Off ch=1 n=g4 v=0
93804 On ch=1 n=g6 v=72
93816 Off ch=1 n=d7 v=0
93820 Off ch=1 n=e5 v=0
93876 On ch=1 n=c7 v=70
93888 Off ch=1 n=g6 v=0
93956 Off ch=1 n=c7 v=0
93968 On ch=1 n=e6 v=67
94044 Off ch=1 n=e6 v=0
94056 On ch=1 n=a6 v=79
94156 Off ch=1 n=a6 v=0
94156 On ch=1 n=e6 v=66
94224 On ch=1 n=g6 v=66
94228 Off ch=1 n=e6 v=0
94300 Off ch=1 n=g6 v=0
94308 On ch=1 n=c6 v=63
94384 Off ch=1 n=c6 v=0
94404 On ch=1 n=f6 v=71
94488 Off ch=1 n=f6 v=0
94492 On ch=1 n=c6 v=68
94552 Off ch=1 n=c6 v=0
94588 On ch=1 n=e6 v=70
94648 Off ch=1 n=e6 v=0
94672 On ch=1 n=g5 v=54
94728 Off ch=1 n=g5 v=0
94764 On ch=1 n=a6 v=82
94856 On ch=1 n=e6 v=70
94864 Off ch=1 n=a6 v=0
94944 On ch=1 n=g6 v=70
94952 Off ch=1 n=e6 v=0
95032 Off ch=1 n=g6 v=0
95032 On ch=1 n=c6 v=68
95112 Off ch=1 n=c6 v=0
95124 On ch=1 n=f6 v=81
95216 Off ch=1 n=f6 v=64
95216 On ch=1 n=c6 v=61
95272 Off ch=1 n=c6 v=0
95304 On ch=1 n=e6 v=75
95368 Off ch=1 n=e6 v=0
95392 On ch=1 n=g5 v=69
95456 Off ch=1 n=g5 v=0
95480 On ch=1 n=a6 v=72
95564 Off ch=1 n=a6 v=0
95580 On ch=1 n=e6 v=59
95628 Off ch=1 n=e6 v=0
95652 On ch=1 n=g6 v=68
95736 On ch=1 n=c6 v=61
95740 Off ch=1 n=g6 v=0
95748 Par ch=1 c=64 v=104
95760 Par ch=1 c=64 v=40
95776 Par ch=1 c=64 v=0
95824 Off ch=1 n=c6 v=0
95844 On ch=1 n=g6 v=99
95852 On ch=1 n=e6 v=84
95852 On ch=1 n=a5 v=59
95912 Par ch=1 c=64 v=24
95924 Par ch=1 c=64 v=72
95932 Par ch=1 c=64 v=104
95944 Par ch=1 c=64 v=127
95952 Off ch=1 n=a5 v=0
95964 On ch=1 n=e5 v=56
96016 Off ch=1 n=e5 v=0
96052 On ch=1 n=g5 v=66
96108 Off ch=1 n=g5 v=0
96144 On ch=1 n=c#5 v=57
96204 Off ch=1 n=g6 v=0
96216 Off ch=1 n=e6 v=0
96216 Off ch=1 n=c#5 v=0
96232 On ch=1 n=f5 v=60
96296 Off ch=1 n=f5 v=0
96316 On ch=1 n=c#5 v=60
96396 Off ch=1 n=c#5 v=0
96420 On ch=1 n=e5 v=65
96420 Par ch=1 c=64 v=104
96424 On ch=1 n=g6 v=94
96428 On ch=1 n=g5 v=78
96428 On ch=1 n=e6 v=82
96432 Par ch=1 c=64 v=56
96444 Par ch=1 c=64 v=0
96496 Off ch=1 n=e5 v=0
96504 Par ch=1 c=64 v=56
96516 Par ch=1 c=64 v=104
96520 On ch=1 n=a#4 v=57
96528 Par ch=1 c=64 v=127
96592 Off ch=1 n=a#4 v=0
96604 On ch=1 n=d5 v=68
96688 Off ch=1 n=d5 v=0
96708 On ch=1 n=a#4 v=54
96772 Off ch=1 n=g5 v=64
96776 Off ch=1 n=a#4 v=0
96796 On ch=1 n=c#5 v=65
96804 Off ch=1 n=g6 v=64
96832 Off ch=1 n=e6 v=64
96876 Off ch=1 n=c#5 v=0
96888 On ch=1 n=g6 v=94
96888 On ch=1 n=g5 v=82
96888 On ch=1 n=e6 v=73
96900 On ch=1 n=g4 v=66
96928 Off ch=1 n=g5 v=0
96932 Off ch=1 n=g6 v=0
96932 Off ch=1 n=e6 v=0
96956 Par ch=1 c=64 v=104
96964 Off ch=1 n=g4 v=0
96968 Par ch=1 c=64 v=56
96972 On ch=1 n=g6 v=94
96976 On ch=1 n=g5 v=76
96980 On ch=1 n=e6 v=82
96980 On ch=1 n=c5 v=68
96980 Par ch=1 c=64 v=24
96992 Par ch=1 c=64 v=0
97004 Par ch=1 c=64 v=24
97016 Par ch=1 c=64 v=56
97028 Par ch=1 c=64 v=104
97040 Par ch=1 c=64 v=127
97060 Off ch=1 n=c5 v=0
97088 On ch=1 n=g4 v=64
97140 Off ch=1 n=g4 v=0
97160 On ch=1 n=a#4 v=60
97252 Off ch=1 n=a#4 v=0
97268 On ch=1 n=e4 v=68
97316 Off ch=1 n=g5 v=0
97328 Off ch=1 n=e4 v=0
97356 On ch=1 n=a4 v=60
97388 Off ch=1 n=g6 v=0
97420 Off ch=1 n=e6 v=0
97420 Off ch=1 n=a4 v=0
97436 On ch=1 n=e4 v=70
97508 Off ch=1 n=e4 v=0
97528 Par ch=1 c=64 v=104
97532 On ch=1 n=g4 v=75
97532 On ch=1 n=a6 v=92
97536 On ch=1 n=a5 v=86
97536 On ch=1 n=e6 v=78
97540 Par ch=1 c=64 v=40
97548 Par ch=1 c=64 v=0
97608 Off ch=1 n=g4 v=0
97624 Par ch=1 c=64 v=40
97628 On ch=1 n=c#4 v=69
97636 Par ch=1 c=64 v=104
97648 Par ch=1 c=64 v=127
97700 Off ch=1 n=c#4 v=0
97720 On ch=1 n=f4 v=68
97780 Off ch=1 n=f4 v=0
97804 On ch=1 n=c#4 v=61
97860 Off ch=1 n=c#4 v=0
97888 On ch=1 n=e4 v=69
97936 Off ch=1 n=a6 v=0
97944 Off ch=1 n=e4 v=0
97972 Off ch=1 n=a5 v=0
97984 On ch=1 n=a#3 v=62
98020 Off ch=1 n=e6 v=0
98056 Off ch=1 n=a#3 v=0
98064 On ch=1 n=d4 v=73
98072 On ch=1 n=g6 v=97
98072 Par ch=1 c=64 v=72
98076 On ch=1 n=e6 v=78
98076 On ch=1 n=g5 v=84
98084 Par ch=1 c=64 v=0
98144 Par ch=1 c=64 v=40
98156 Par ch=1 c=64 v=88
98164 On ch=1 n=a#3 v=61
98168 Off ch=1 n=d4 v=0
98168 Par ch=1 c=64 v=127
98252 Off ch=1 n=a#3 v=64
98256 On ch=1 n=c#4 v=77
98340 Off ch=1 n=c#4 v=0
98368 On ch=1 n=g3 v=68
98424 Off ch=1 n=g3 v=0
98440 On ch=1 n=c4 v=69
98512 Off ch=1 n=c4 v=0
98528 On ch=1 n=g3 v=71
98536 Off ch=1 n=e6 v=64
98560 Off ch=1 n=g5 v=64
98596 Off ch=1 n=g6 v=64
98604 Off ch=1 n=g3 v=0
98628 On ch=1 n=a#3 v=67
98632 On ch=1 n=e6 v=92
98636 On ch=1 n=g5 v=73
98640 On ch=1 n=c#6 v=74
98644 Par ch=1 c=64 v=104
98656 Par ch=1 c=64 v=72
98668 Par ch=1 c=64 v=24
98680 Par ch=1 c=64 v=0
98716 Par ch=1 c=64 v=40
98728 Off ch=1 n=a#3 v=0
98728 Par ch=1 c=64 v=72
98740 Par ch=1 c=64 v=127
98744 On ch=1 n=e3 v=65
98808 Off ch=1 n=e3 v=0
98820 On ch=1 n=a3 v=65
98892 Off ch=1 n=a3 v=0
98912 On ch=1 n=e3 v=66
98976 Off ch=1 n=e3 v=0
98996 On ch=1 n=g3 v=69
99028 Off ch=1 n=c#6 v=0
99064 Off ch=1 n=g3 v=0
99068 Off ch=1 n=g5 v=0
99084 On ch=1 n=c#3 v=63
99108 Off ch=1 n=e6 v=0
99164 Par ch=1 c=64 v=72
99168 Off ch=1 n=c#3 v=0
99168 On ch=1 n=g6 v=97
99168 On ch=1 n=e6 v=82
99172 On ch=1 n=g5 v=82
99176 On ch=1 n=f3 v=66
99176 Par ch=1 c=64 v=24
99188 Par ch=1 c=64 v=0
99236 Par ch=1 c=64 v=24
99244 Off ch=1 n=f3 v=0
99248 Par ch=1 c=64 v=72
99260 Par ch=1 c=64 v=127
99268 On ch=1 n=c#3 v=63
99332 Off ch=1 n=c#3 v=0
99352 On ch=1 n=e3 v=61
99412 Off ch=1 n=e3 v=0
99440 On ch=1 n=a#2 v=64
99504 Off ch=1 n=a#2 v=0
99512 On ch=1 n=d3 v=68
99596 On ch=1 n=a#2 v=70
99600 Off ch=1 n=d3 v=0
99676 Off ch=1 n=a#2 v=0
99684 On ch=1 n=c#3 v=80
99792 Off ch=1 n=c#3 v=64
99792 On ch=1 n=g2 v=70
99860 On ch=1 n=c3 v=63
99872 Off ch=1 n=g2 v=0
99952 Off ch=1 n=g5 v=64
99952 On ch=1 n=g2 v=66
99956 Off ch=1 n=c3 v=0
100028 Off ch=1 n=g2 v=0
100028 On ch=1 n=a#2 v=67
100032 Off ch=1 n=e6 v=64
100060 Off ch=1 n=g6 v=64
100120 On ch=1 n=e2 v=72
100132 Off ch=1 n=a#2 v=0
100168 Off ch=1 n=e2 v=0
100308 On ch=1 n=a#6 v=93
100312 On ch=1 n=g6 v=82
100320 On ch=1 n=c6 v=86
100328 Par ch=1 c=64 v=24
100340 Par ch=1 c=64 v=0
100416 Off ch=1 n=c6 v=0
100416 Par ch=1 c=64 v=72
100424 On ch=1 n=g5 v=64
100428 Par ch=1 c=64 v=127
100500 Off ch=1 n=g5 v=0
100512 On ch=1 n=a#5 v=70
100608 Off ch=1 n=a#5 v=0
100620 On ch=1 n=e5 v=68
100668 Off ch=1 n=e5 v=0
100692 On ch=1 n=a5 v=70
100752 Off ch=1 n=a5 v=0
100760 Off ch=1 n=a#6 v=0
100760 Off ch=1 n=g6 v=0
100776 On ch=1 n=e5 v=65
100856 Off ch=1 n=e5 v=0
100872 On ch=1 n=a#6 v=91
100872 On ch=1 n=a#5 v=65
100880 On ch=1 n=g5 v=73
100884 On ch=1 n=g6 v=79
100888 Par ch=1 c=64 v=72
100900 Par ch=1 c=64 v=0
100940 Par ch=1 c=64 v=24
100952 Off ch=1 n=g5 v=0
100952 Par ch=1 c=64 v=88
100960 Off ch=1 n=a#5 v=0
100964 Par ch=1 c=64 v=127
100972 On ch=1 n=c#5 v=57
101040 Off ch=1 n=c#5 v=0
101056 On ch=1 n=f5 v=67
101124 Off ch=1 n=f5 v=0
101140 On ch=1 n=c#5 v=58
101200 Off ch=1 n=c#5 v=0
101228 On ch=1 n=e5 v=65
101268 Off ch=1 n=a#6 v=0
101280 Off ch=1 n=g6 v=0
101296 Off ch=1 n=e5 v=0
101320 On ch=1 n=a#4 v=57
101332 On ch=1 n=a#6 v=96
101336 On ch=1 n=a#5 v=87
101340 On ch=1 n=g6 v=74
101368 Off ch=1 n=g6 v=0
101376 Off ch=1 n=a#5 v=0
101388 Off ch=1 n=a#6 v=0
101392 Off ch=1 n=a#4 v=0
101412 On ch=1 n=d5 v=70
101416 On ch=1 n=a#6 v=90
101424 On ch=1 n=a#5 v=84
101428 On ch=1 n=g6 v=86
101436 Par ch=1 c=64 v=88
101448 Par ch=1 c=64 v=40
101460 Par ch=1 c=64 v=0
101496 Par ch=1 c=64 v=56
101500 On ch=1 n=a#4 v=58
101508 Par ch=1 c=64 v=127
101512 Off ch=1 n=d5 v=0
101600 On ch=1 n=c#5 v=67
101612 Off ch=1 n=a#4 v=0
101696 Off ch=1 n=c#5 v=0
101700 On ch=1 n=g4 v=73
101720 Off ch=1 n=a#5 v=0
101744 Off ch=1 n=g6 v=0
101760 Off ch=1 n=g4 v=0
101772 On ch=1 n=c5 v=69
101840 Off ch=1 n=a#6 v=0
101856 Off ch=1 n=c5 v=0
101860 On ch=1 n=g4 v=74
101936 Off ch=1 n=g4 v=0
101956 On ch=1 n=a#4 v=64
101960 On ch=1 n=c7 v=93
101968 On ch=1 n=c6 v=85
101972 On ch=1 n=g6 v=82
101972 Par ch=1 c=64 v=104
101984 Par ch=1 c=64 v=40
101996 Par ch=1 c=64 v=0
102044 Par ch=1 c=64 v=24
102056 Par ch=1 c=64 v=88
102068 Par ch=1 c=64 v=127
102072 Off ch=1 n=a#4 v=0
102080 On ch=1 n=e4 v=69
102148 Off ch=1 n=e4 v=0
102156 On ch=1 n=a4 v=63
102236 Off ch=1 n=a4 v=0
102256 On ch=1 n=e4 v=54
102312 Off ch=1 n=c7 v=0
102312 Off ch=1 n=e4 v=0
102328 Off ch=1 n=c6 v=0
102340 On ch=1 n=g4 v=69
102408 Off ch=1 n=g4 v=0
102428 On ch=1 n=c#4 v=67
102432 Off ch=1 n=g6 v=0
102496 Off ch=1 n=c#4 v=0
102520 On ch=1 n=f4 v=68
102524 On ch=1 n=a#6 v=88
102528 On ch=1 n=a#5 v=82
102532 On ch=1 n=g6 v=82
102552 Par ch=1 c=64 v=72
102564 Par ch=1 c=64 v=0
102588 Par ch=1 c=64 v=24
102600 Off ch=1 n=f4 v=0
102600 Par ch=1 c=64 v=72
102612 Par ch=1 c=64 v=127
102616 On ch=1 n=c#4 v=68
102684 Off ch=1 n=c#4 v=0
102716 On ch=1 n=e4 v=54
102772 Off ch=1 n=e4 v=0
102800 On ch=1 n=a#3 v=62
102868 Off ch=1 n=a#3 v=64
102880 On ch=1 n=d4 v=71
102956 Off ch=1 n=d4 v=0
102956 Off ch=1 n=g6 v=64
102964 On ch=1 n=a#3 v=73
103016 Off ch=1 n=a#5 v=64
103040 Off ch=1 n=a#6 v=64
103040 Off ch=1 n=a#3 v=0
103056 On ch=1 n=c#4 v=83
103080 On ch=1 n=a#5 v=72
103080 On ch=1 n=g6 v=90
103096 On ch=1 n=e6 v=72
103096 Par ch=1 c=64 v=104
103112 Par ch=1 c=64 v=72
103124 Par ch=1 c=64 v=24
103136 Par ch=1 c=64 v=0
103156 Off ch=1 n=c#4 v=0
103160 Par ch=1 c=64 v=40
103172 Par ch=1 c=64 v=104
103176 On ch=1 n=g3 v=74
103180 Par ch=1 c=64 v=127
103252 Off ch=1 n=g3 v=0
103252 On ch=1 n=c4 v=74
103272 Off ch=1 n=e6 v=0
103340 Off ch=1 n=c4 v=0
103344 On ch=1 n=g3 v=68
103420 Off ch=1 n=g3 v=0
103424 On ch=1 n=a#3 v=62
103460 Off ch=1 n=a#5 v=0
103520 Off ch=1 n=a#3 v=0
103524 On ch=1 n=e3 v=65
103540 Off ch=1 n=g6 v=0
103608 Off ch=1 n=e3 v=0
103612 On ch=1 n=a#6 v=87
103612 On ch=1 n=a#5 v=81
103616 On ch=1 n=a3 v=72
103616 On ch=1 n=g6 v=81
103624 Par ch=1 c=64 v=56
103636 Par ch=1 c=64 v=0
103680 Par ch=1 c=64 v=24
103696 Off ch=1 n=a3 v=0
103696 Par ch=1 c=64 v=72
103700 On ch=1 n=e3 v=60
103708 Par ch=1 c=64 v=127
103772 Off ch=1 n=e3 v=0
103792 On ch=1 n=g3 v=73
103860 Off ch=1 n=g3 v=0
103880 On ch=1 n=c#3 v=67
103948 Off ch=1 n=c#3 v=0
103956 On ch=1 n=f3 v=66
104036 Off ch=1 n=f3 v=0
104040 On ch=1 n=c#3 v=58
104116 Off ch=1 n=c#3 v=0
104136 On ch=1 n=e3 v=63
104220 Off ch=1 n=e3 v=0
104220 On ch=1 n=a#2 v=70
104304 Off ch=1 n=a#2 v=0
104304 On ch=1 n=d3 v=73
104388 On ch=1 n=a#2 v=66
104392 Off ch=1 n=d3 v=64
104460 Off ch=1 n=a#5 v=64
104480 Off ch=1 n=a#2 v=0
104484 On ch=1 n=c#3 v=76
104500 Off ch=1 n=g6 v=64
104540 Off ch=1 n=a#6 v=64
104584 Off ch=1 n=c#3 v=0
104584 On ch=1 n=g2 v=68
104620 Off ch=1 n=g2 v=0
104796 On ch=1 n=c8 v=81
104812 On ch=1 n=d#3 v=67
104816 On ch=1 n=d#2 v=67
104832 Par ch=1 c=64 v=88
104848 Par ch=1 c=64 v=0
104952 On ch=1 n=d#7 v=73
104968 Par ch=1 c=64 v=127
104988 Off ch=1 n=c8 v=0
105024 Off ch=1 n=d#2 v=0
105036 Off ch=1 n=d#7 v=0
105048 On ch=1 n=a#7 v=71
105064 Off ch=1 n=d#3 v=0
105124 Off ch=1 n=a#7 v=0
105132 On ch=1 n=c#7 v=65
105204 Off ch=1 n=c#7 v=0
105228 On ch=1 n=g#7 v=69
105296 Off ch=1 n=g#7 v=0
105296 On ch=1 n=d#7 v=64
105368 Off ch=1 n=d#7 v=0
105392 On ch=1 n=g7 v=72
105412 On ch=1 n=d#5 v=74
105488 On ch=1 n=c#7 v=68
105500 Off ch=1 n=g7 v=0
105564 Off ch=1 n=c#7 v=0
105588 On ch=1 n=f7 v=69
105664 Off ch=1 n=f7 v=0
105664 On ch=1 n=c#7 v=72
105724 Off ch=1 n=d#5 v=0
105744 Off ch=1 n=c#7 v=0
105756 On ch=1 n=d#7 v=68
105828 Off ch=1 n=d#7 v=0
105832 On ch=1 n=d#5 v=78
105840 On ch=1 n=g6 v=74
105900 Off ch=1 n=d#5 v=0
105936 On ch=1 n=d#4 v=67
105940 Par ch=1 c=64 v=104
105944 On ch=1 n=c5 v=68
105948 Off ch=1 n=g6 v=64
105952 Par ch=1 c=64 v=24
105964 Par ch=1 c=64 v=0
106000 On ch=1 n=f7 v=78
106000 Par ch=1 c=64 v=40
106004 Off ch=1 n=d#4 v=0
106012 Par ch=1 c=64 v=127
106016 On ch=1 n=d#5 v=85
106064 Off ch=1 n=c5 v=0
106104 Off ch=1 n=f7 v=0
106112 On ch=1 n=c7 v=76
106124 On ch=1 n=c5 v=16
106196 On ch=1 n=d#7 v=65
106208 Off ch=1 n=c7 v=0
106264 On ch=1 n=g#6 v=57
106268 Off ch=1 n=d#5 v=0
106296 Off ch=1 n=d#7 v=0
106348 On ch=1 n=c#7 v=67
106352 Off ch=1 n=g#6 v=0
106416 Off ch=1 n=c#7 v=0
106424 On ch=1 n=g#6 v=70
106456 Off ch=1 n=g#6 v=0
106488 Off ch=1 n=c5 v=0
106524 On ch=1 n=g#5 v=77
106528 On ch=1 n=c7 v=82
106612 Off ch=1 n=c7 v=0
106628 On ch=1 n=d#6 v=72
106696 Off ch=1 n=d#6 v=0
106720 On ch=1 n=a#6 v=67
106800 Off ch=1 n=a#6 v=0
106800 On ch=1 n=d#6 v=73
106872 Off ch=1 n=d#6 v=0
106884 On ch=1 n=g#6 v=73
106932 Off ch=1 n=g#5 v=0
106956 Off ch=1 n=g#6 v=0
106968 On ch=1 n=c6 v=78
106968 On ch=1 n=c5 v=66
107036 Off ch=1 n=c5 v=0
107064 Off ch=1 n=c6 v=0
107080 On ch=1 n=c7 v=84
107080 On ch=1 n=d#5 v=69
107096 On ch=1 n=d#4 v=65
107116 Par ch=1 c=64 v=40
107132 Par ch=1 c=64 v=0
107184 On ch=1 n=d#6 v=73
107188 Off ch=1 n=c7 v=0
107204 Par ch=1 c=64 v=72
107216 Par ch=1 c=64 v=127
107264 Off ch=1 n=d#6 v=0
107272 On ch=1 n=a#6 v=64
107344 Off ch=1 n=a#6 v=0
107352 On ch=1 n=c#6 v=65
107416 Off ch=1 n=c#6 v=0
107432 On ch=1 n=a6 v=67
107508 Off ch=1 n=a6 v=64
107516 On ch=1 n=d#6 v=71
107596 Off ch=1 n=d#6 v=0
107604 On ch=1 n=a#4 v=65
107604 On ch=1 n=a#6 v=70
107616 Off ch=1 n=d#5 v=64
107652 Par ch=1 c=64 v=88
107688 Off ch=1 n=a#6 v=0
107688 On ch=1 n=c#6 v=61
107688 Par ch=1 c=64 v=127
107772 Off ch=1 n=c#6 v=0
107784 On ch=1 n=c#7 v=75
107864 On ch=1 n=d#6 v=67
107880 Off ch=1 n=c#7 v=0
107956 Off ch=1 n=d#6 v=0
107968 On ch=1 n=g6 v=75
107988 Off ch=1 n=d#4 v=64
107992 Off ch=1 n=a#4 v=0
108000 On ch=1 n=d#5 v=74
108040 Off ch=1 n=d#5 v=0
108044 Off ch=1 n=g6 v=0
108060 On ch=1 n=c#6 v=51
108172 Par ch=1 c=64 v=104
108180 On ch=1 n=g#3 v=64
108184 Par ch=1 c=64 v=0
108196 On ch=1 n=d#4 v=40
108208 Off ch=1 n=c#6 v=0
108228 Off ch=1 n=g#3 v=0
108232 On ch=1 n=a#6 v=70
108236 Par ch=1 c=64 v=24
108248 Par ch=1 c=64 v=88
108260 Par ch=1 c=64 v=127
108264 On ch=1 n=c5 v=74
108280 Off ch=1 n=d#4 v=0
108312 Off ch=1 n=c5 v=0
108348 Off ch=1 n=a#6 v=0
108348 On ch=1 n=d#6 v=67
108420 Off ch=1 n=d#6 v=0
108428 On ch=1 n=g#6 v=62
108496 Off ch=1 n=g#6 v=0
108504 On ch=1 n=c6 v=58
108588 On ch=1 n=g6 v=64
108600 Off ch=1 n=c6 v=0
108660 Off ch=1 n=g6 v=0
108680 On ch=1 n=d#6 v=67
108748 Off ch=1 n=d#6 v=0
108768 On ch=1 n=g#6 v=64
108848 Off ch=1 n=g#6 v=0
108848 On ch=1 n=c6 v=64
108932 Off ch=1 n=c6 v=0
108940 On ch=1 n=a#6 v=65
109032 On ch=1 n=d#6 v=64
109056 Off ch=1 n=a#6 v=64
109116 On ch=1 n=g#6 v=69
109120 Off ch=1 n=d#6 v=0
109192 Off ch=1 n=g#6 v=0
109200 On ch=1 n=c6 v=59
109260 Off ch=1 n=c6 v=0
109416 On ch=1 n=g#7 v=85
109424 On ch=1 n=b3 v=68
109436 On ch=1 n=b2 v=68
109448 Par ch=1 c=64 v=88
109460 Par ch=1 c=64 v=0
109532 On ch=1 n=b6 v=67
109544 Off ch=1 n=g#7 v=0
109556 Par ch=1 c=64 v=127
109604 Off ch=1 n=b2 v=0
109620 Off ch=1 n=b6 v=0
109632 On ch=1 n=f#7 v=76
109636 Off ch=1 n=b3 v=0
109720 Off ch=1 n=f#7 v=0
109724 On ch=1 n=a6 v=60
109816 Off ch=1 n=a6 v=0
109816 On ch=1 n=e7 v=73
109912 On ch=1 n=b6 v=76
109920 Off ch=1 n=e7 v=0
109988 On ch=1 n=b4 v=81
109996 Off ch=1 n=b6 v=0
110000 On ch=1 n=d#7 v=67
110088 On ch=1 n=a6 v=54
110104 Off ch=1 n=d#7 v=0
110148 Off ch=1 n=a6 v=0
110156 On ch=1 n=c#7 v=63
110220 Off ch=1 n=b4 v=0
110236 On ch=1 n=a6 v=59
110244 Off ch=1 n=c#7 v=0
110304 Off ch=1 n=a6 v=0
110312 On ch=1 n=b6 v=71
110372 Off ch=1 n=b6 v=0
110384 On ch=1 n=b4 v=70
110396 On ch=1 n=f#6 v=69
110444 Off ch=1 n=b4 v=0
110464 Off ch=1 n=f#6 v=0
110484 On ch=1 n=b3 v=73
110504 Par ch=1 c=64 v=88
110516 Par ch=1 c=64 v=40
110520 On ch=1 n=g#4 v=64
110528 Par ch=1 c=64 v=0
110540 Par ch=1 c=64 v=24
110544 On ch=1 n=e7 v=80
110552 Off ch=1 n=b3 v=64
110552 Par ch=1 c=64 v=72
110564 Par ch=1 c=64 v=127
110580 On ch=1 n=b4 v=76
110656 Off ch=1 n=e7 v=0
110656 On ch=1 n=g#6 v=77
110732 Off ch=1 n=g#6 v=0
110748 Off ch=1 n=b4 v=0
110748 On ch=1 n=d#7 v=71
110828 Off ch=1 n=d#7 v=0
110832 On ch=1 n=g#6 v=71
110904 Off ch=1 n=g#6 v=0
110908 On ch=1 n=c#7 v=71
110984 Off ch=1 n=c#7 v=0
110992 On ch=1 n=e6 v=66
111060 Off ch=1 n=g#4 v=0
111064 Off ch=1 n=e6 v=0
111076 On ch=1 n=e5 v=79
111092 On ch=1 n=b6 v=76
111160 Off ch=1 n=b6 v=0
111196 On ch=1 n=e6 v=66
111252 Off ch=1 n=e6 v=0
111272 On ch=1 n=a6 v=71
111356 Off ch=1 n=a6 v=0
111356 On ch=1 n=e6 v=69
111432 Off ch=1 n=e5 v=0
111432 Off ch=1 n=e6 v=0
111444 On ch=1 n=g#6 v=71
111488 On ch=1 n=g#4 v=76
111532 Off ch=1 n=g#6 v=0
111532 On ch=1 n=b5 v=58
111544 Off ch=1 n=g#4 v=0
111624 Off ch=1 n=b5 v=0
111644 On ch=1 n=g#6 v=73
111644 On ch=1 n=b4 v=73
111656 On ch=1 n=b3 v=70
111692 Par ch=1 c=64 v=40
111704 Par ch=1 c=64 v=0
111740 On ch=1 n=d#6 v=65
111748 Off ch=1 n=g#6 v=0
111780 Par ch=1 c=64 v=104
111792 Par ch=1 c=64 v=127
111820 Off ch=1 n=d#6 v=0
111824 On ch=1 n=f#6 v=64
111896 Off ch=1 n=f#6 v=0
111912 On ch=1 n=a5 v=68
111972 Off ch=1 n=b3 v=0
112000 Off ch=1 n=a5 v=0
112000 On ch=1 n=f6 v=77
112068 Off ch=1 n=f6 v=64
112088 On ch=1 n=a5 v=71
112164 Off ch=1 n=a5 v=0
112176 On ch=1 n=f#6 v=71
112184 On ch=1 n=f#4 v=70
112212 Off ch=1 n=b4 v=64
112252 Off ch=1 n=f#6 v=0
112260 On ch=1 n=a5 v=62
112328 Off ch=1 n=a5 v=0
112348 On ch=1 n=a6 v=78
112352 Off ch=1 n=f#4 v=0
112352 On ch=1 n=g#4 v=73
112424 Off ch=1 n=a6 v=0
112432 On ch=1 n=b5 v=63
112508 Off ch=1 n=b5 v=0
112520 Off ch=1 n=g#4 v=0
112520 On ch=1 n=d#6 v=72
112520 On ch=1 n=a4 v=76
112572 Off ch=1 n=a4 v=0
112588 Off ch=1 n=d#6 v=0
112600 On ch=1 n=a5 v=68
112680 On ch=1 n=e3 v=64
112680 Par ch=1 c=64 v=56
112692 Par ch=1 c=64 v=0
112700 On ch=1 n=b3 v=35
112704 Off ch=1 n=a5 v=0
112732 Off ch=1 n=e3 v=0
112744 On ch=1 n=f#6 v=77
112752 Par ch=1 c=64 v=56
112764 Par ch=1 c=64 v=127
112768 On ch=1 n=g#4 v=77
112776 Off ch=1 n=b3 v=0
112812 Off ch=1 n=g#4 v=0
112852 Off ch=1 n=f#6 v=0
112876 On ch=1 n=b5 v=63
112968 Off ch=1 n=b5 v=0
112968 On ch=1 n=f6 v=76
113036 Off ch=1 n=f6 v=0
113052 On ch=1 n=g#5 v=61
113140 Off ch=1 n=g#5 v=0
113148 On ch=1 n=e6 v=74
113228 Off ch=1 n=e6 v=0
113240 On ch=1 n=b5 v=59
113308 Off ch=1 n=b5 v=0
113308 On ch=1 n=d#6 v=64
113388 On ch=1 n=g#5 v=49
113404 Off ch=1 n=d#6 v=0
113476 On ch=1 n=d6 v=73
113480 Off ch=1 n=g#5 v=0
113552 Off ch=1 n=d6 v=0
113572 On ch=1 n=b5 v=67
113656 Off ch=1 n=b5 v=64
113668 On ch=1 n=c#6 v=64
113752 Off ch=1 n=c#6 v=0
113764 On ch=1 n=g#5 v=53
113820 Off ch=1 n=g#5 v=0
113904 On ch=1 n=e4 v=76
113904 On ch=1 n=c#6 v=78
113908 On ch=1 n=e3 v=64
113948 Par ch=1 c=64 v=88
113960 Par ch=1 c=64 v=127
114012 On ch=1 n=g#5 v=75
114036 Off ch=1 n=c#6 v=0
114060 Off ch=1 n=e4 v=0
114088 Off ch=1 n=e3 v=0
114096 Off ch=1 n=g#5 v=0
114116 On ch=1 n=b5 v=79
114184 Off ch=1 n=b5 v=0
114200 On ch=1 n=d5 v=69
114304 On ch=1 n=c#6 v=73
114352 Off ch=1 n=d5 v=0
114384 On ch=1 n=g#5 v=72
114416 Off ch=1 n=c#6 v=0
114484 On ch=1 n=b5 v=77
114504 On ch=1 n=b3 v=71
114508 Off ch=1 n=g#5 v=0
114508 On ch=1 n=b2 v=63
114532 Off ch=1 n=b3 v=0
114536 Off ch=1 n=b5 v=0
114548 Off ch=1 n=b2 v=0
114592 On ch=1 n=d6 v=87
114656 Off ch=1 n=d6 v=0
114684 On ch=1 n=g#3 v=72
114688 On ch=1 n=g#2 v=71
114688 On ch=1 n=c#7 v=78
114724 Off ch=1 n=g#3 v=0
114728 Off ch=1 n=g#2 v=0
114788 On ch=1 n=g#6 v=85
114800 Off ch=1 n=c#7 v=0
114856 On ch=1 n=b3 v=82
114860 On ch=1 n=b2 v=66
114872 On ch=1 n=b6 v=83
114892 Off ch=1 n=g#6 v=0
114900 Off ch=1 n=b3 v=0
114900 Off ch=1 n=b2 v=0
114912 Off ch=1 n=b6 v=0
114964 On ch=1 n=d7 v=84
115040 Off ch=1 n=d7 v=0
115064 Par ch=1 c=64 v=104
115072 On ch=1 n=c#8 v=97
115076 On ch=1 n=e3 v=92
115076 On ch=1 n=e2 v=86
115076 Par ch=1 c=64 v=40
115088 Par ch=1 c=64 v=0
115156 Off ch=1 n=e2 v=64
115164 Par ch=1 c=64 v=56
115176 Par ch=1 c=64 v=127
115180 On ch=1 n=g#7 v=80
115192 Off ch=1 n=e3 v=64
115196 Off ch=1 n=c#8 v=64
115280 On ch=1 n=b7 v=81
115284 Off ch=1 n=g#7 v=0
115356 Off ch=1 n=b7 v=0
115364 On ch=1 n=d7 v=68
115388 Off ch=1 n=d7 v=0
115460 On ch=1 n=c#7 v=83
115524 Off ch=1 n=c#7 v=0
115544 On ch=1 n=e4 v=86
115548 On ch=1 n=e3 v=69
115552 On ch=1 n=g#6 v=80
115588 Off ch=1 n=e4 v=0
115596 Off ch=1 n=e3 v=0
115632 Off ch=1 n=g#6 v=0
115636 Par ch=1 c=64 v=72
115644 On ch=1 n=b6 v=86
115648 On ch=1 n=f#4 v=85
115648 Par ch=1 c=64 v=0
115652 On ch=1 n=f#3 v=71
115708 Par ch=1 c=64 v=40
115720 Par ch=1 c=64 v=104
115728 Off ch=1 n=b6 v=0
115732 Par ch=1 c=64 v=127
115736 On ch=1 n=d6 v=70
115764 Off ch=1 n=d6 v=0
115832 On ch=1 n=c#6 v=77
115904 Off ch=1 n=c#6 v=0
115920 On ch=1 n=g#5 v=68
115932 Off ch=1 n=f#4 v=0
115996 Off ch=1 n=g#5 v=0
116000 Off ch=1 n=f#3 v=0
116020 On ch=1 n=b5 v=72
116092 On ch=1 n=e4 v=64
116100 Off ch=1 n=b5 v=0
116100 On ch=1 n=e3 v=51
116104 On ch=1 n=d5 v=71
116116 Off ch=1 n=e4 v=0
116128 Off ch=1 n=e3 v=0
116172 Off ch=1 n=d5 v=0
116220 On ch=1 n=d6 v=86
116232 On ch=1 n=d#4 v=78
116232 Par ch=1 c=64 v=88
116240 On ch=1 n=d#3 v=65
116244 Par ch=1 c=64 v=40
116256 Par ch=1 c=64 v=0
116320 On ch=1 n=g5 v=74
116336 Off ch=1 n=d6 v=0
116340 Par ch=1 c=64 v=88
116352 Par ch=1 c=64 v=127
116424 On ch=1 n=c6 v=77
116432 Off ch=1 n=g5 v=0
116492 Off ch=1 n=c6 v=0
116508 On ch=1 n=c5 v=77
116540 Off ch=1 n=d#4 v=0
116556 Off ch=1 n=c5 v=0
116608 Off ch=1 n=d#3 v=0
116612 On ch=1 n=f6 v=87
116700 Off ch=1 n=f6 v=64
116704 On ch=1 n=c6 v=82
116760 On ch=1 n=c4 v=77
116760 Par ch=1 c=64 v=56
116764 On ch=1 n=c3 v=61
116768 On ch=1 n=d#6 v=79
116772 Par ch=1 c=64 v=0
116784 Off ch=1 n=c6 v=0
116832 Par ch=1 c=64 v=40
116844 Off ch=1 n=d#6 v=0
116844 Par ch=1 c=64 v=88
116848 On ch=1 n=g5 v=71
116856 Par ch=1 c=64 v=127
116904 Off ch=1 n=g5 v=0
116940 On ch=1 n=g#6 v=74
116952 Off ch=1 n=c3 v=0
116988 Off ch=1 n=c4 v=0
116996 Off ch=1 n=g#6 v=0
117028 On ch=1 n=d#6 v=77
117104 Off ch=1 n=d#6 v=0
117124 On ch=1 n=g6 v=84
117192 Off ch=1 n=g6 v=0
117220 On ch=1 n=c6 v=84
117280 Off ch=1 n=c6 v=0
117308 On ch=1 n=c7 v=92
117320 Par ch=1 c=64 v=72
117324 On ch=1 n=d#4 v=85
117324 On ch=1 n=d#3 v=65
117332 Par ch=1 c=64 v=24
117344 Par ch=1 c=64 v=0
117392 Par ch=1 c=64 v=24
117400 Par ch=1 c=64 v=72
117408 On ch=1 n=g6 v=82
117416 Par ch=1 c=64 v=127
117424 Off ch=1 n=c7 v=0
117488 On ch=1 n=b6 v=73
117496 Off ch=1 n=g6 v=0
117564 Off ch=1 n=b6 v=0
117568 On ch=1 n=d#6 v=72
117644 Off ch=1 n=d#6 v=0
117672 On ch=1 n=a#6 v=71
117688 Off ch=1 n=d#3 v=0
117728 Off ch=1 n=d#4 v=0
117740 Off ch=1 n=a#6 v=0
117764 On ch=1 n=g6 v=81
117828 Off ch=1 n=g6 v=0
117828 Par ch=1 c=64 v=104
117840 Par ch=1 c=64 v=40
117848 On ch=1 n=a6 v=81
117852 Par ch=1 c=64 v=0
117868 On ch=1 n=f4 v=72
117872 On ch=1 n=f3 v=66
117912 Par ch=1 c=64 v=40
117924 Par ch=1 c=64 v=88
117936 Par ch=1 c=64 v=127
117944 On ch=1 n=d#6 v=79
117956 Off ch=1 n=a6 v=0
117956 Off ch=1 n=f4 v=0
117956 Off ch=1 n=f3 v=0
118024 Off ch=1 n=d#6 v=0
118036 On ch=1 n=g#6 v=77
118052 On ch=1 n=f#4 v=77
118052 On ch=1 n=f#3 v=71
118104 Off ch=1 n=f#3 v=0
118128 On ch=1 n=d#6 v=73
118132 Off ch=1 n=g#6 v=0
118156 Off ch=1 n=f#4 v=0
118220 On ch=1 n=g6 v=86
118228 Off ch=1 n=d#6 v=64
118232 On ch=1 n=g4 v=82
118236 On ch=1 n=g3 v=70
118260 Off ch=1 n=g3 v=0
118308 Off ch=1 n=g6 v=0
118312 Off ch=1 n=g4 v=0
118312 On ch=1 n=c6 v=82
118376 Off ch=1 n=c6 v=0
118404 On ch=1 n=f6 v=90
118416 On ch=1 n=g#4 v=86
118420 On ch=1 n=g#3 v=72
118420 Par ch=1 c=64 v=104
118436 Par ch=1 c=64 v=72
118448 Par ch=1 c=64 v=40
118460 Par ch=1 c=64 v=0
118504 On ch=1 n=c6 v=78
118520 Off ch=1 n=f6 v=0
118556 Par ch=1 c=64 v=24
118568 Par ch=1 c=64 v=88
118584 Par ch=1 c=64 v=127
118592 On ch=1 n=d#6 v=67
118596 Off ch=1 n=c6 v=0
118668 Off ch=1 n=d#6 v=0
118676 On ch=1 n=f#5 v=72
118688 Off ch=1 n=g#4 v=0
118708 Off ch=1 n=g#3 v=0
118748 Off ch=1 n=f#5 v=0
118776 On ch=1 n=f6 v=86
118864 On ch=1 n=c6 v=78
118880 Off ch=1 n=f6 v=0
118944 On ch=1 n=d#6 v=73
118960 Off ch=1 n=c6 v=0
118964 On ch=1 n=d#4 v=79
118968 On ch=1 n=d#3 v=65
118988 Off ch=1 n=d#6 v=0
119020 Off ch=1 n=d#4 v=0
119036 On ch=1 n=f#6 v=80
119096 Off ch=1 n=d#3 v=0
119096 Off ch=1 n=f#6 v=0
119132 On ch=1 n=f7 v=90
119148 On ch=1 n=c4 v=90
119152 On ch=1 n=c3 v=75
119184 Off ch=1 n=c3 v=0
119188 Off ch=1 n=c4 v=0
119224 On ch=1 n=c7 v=87
119236 Off ch=1 n=f7 v=0
119300 On ch=1 n=d#4 v=96
119304 On ch=1 n=d#7 v=80
119304 On ch=1 n=d#3 v=78
119316 Off ch=1 n=c7 v=0
119332 Off ch=1 n=d#4 v=0
119340 Off ch=1 n=d#3 v=0
119344 Off ch=1 n=d#7 v=0
119392 On ch=1 n=f#7 v=84
119468 Off ch=1 n=f#7 v=0
119512 On ch=1 n=f8 v=90
119516 Par ch=1 c=64 v=88
119520 On ch=1 n=g#3 v=103
119520 On ch=1 n=g#2 v=90
119528 Par ch=1 c=64 v=40
119540 Par ch=1 c=64 v=0
119616 On ch=1 n=c8 v=83
119624 Par ch=1 c=64 v=72
119636 Off ch=1 n=f8 v=0
119640 Par ch=1 c=64 v=127
119676 Off ch=1 n=g#2 v=0
119696 Off ch=1 n=g#3 v=0
119716 On ch=1 n=d#8 v=77
119732 Off ch=1 n=c8 v=64
119792 Off ch=1 n=d#8 v=0
119800 On ch=1 n=f#7 v=60
119820 Off ch=1 n=f#7 v=0
119896 On ch=1 n=f7 v=72
119956 Off ch=1 n=f7 v=0
119988 On ch=1 n=g#4 v=78
119992 On ch=1 n=g#3 v=77
119992 On ch=1 n=c7 v=74
120028 Off ch=1 n=g#4 v=0
120036 Off ch=1 n=g#3 v=0
120088 On ch=1 n=d#7 v=75
120088 On ch=1 n=a#4 v=84
120088 Par ch=1 c=64 v=88
120096 On ch=1 n=a#3 v=72
120100 Par ch=1 c=64 v=40
120112 Par ch=1 c=64 v=0
120132 Off ch=1 n=c7 v=0
120160 Par ch=1 c=64 v=56
120172 Par ch=1 c=64 v=127
120176 On ch=1 n=f#6 v=72
120188 Off ch=1 n=d#7 v=0
120216 Off ch=1 n=f#6 v=0
120280 On ch=1 n=f6 v=84
120300 Off ch=1 n=a#4 v=0
120328 Off ch=1 n=a#3 v=0
120348 Off ch=1 n=f6 v=0
120372 On ch=1 n=c6 v=82
120452 Off ch=1 n=c6 v=0
120456 On ch=1 n=d#6 v=73
120540 Off ch=1 n=d#6 v=0
120540 On ch=1 n=g#4 v=78
120548 On ch=1 n=g#3 v=72
120560 On ch=1 n=f#5 v=72
120584 Off ch=1 n=g#4 v=0
120592 Off ch=1 n=g#3 v=0
120620 Off ch=1 n=f#5 v=0
120640 On ch=1 n=g4 v=88
120644 On ch=1 n=g3 v=86
120652 On ch=1 n=f#6 v=85
120656 Par ch=1 c=64 v=104
120668 Par ch=1 c=64 v=56
120680 Par ch=1 c=64 v=0
120740 Off ch=1 n=f#6 v=0
120748 On ch=1 n=b5 v=74
120768 Par ch=1 c=64 v=72
120780 Par ch=1 c=64 v=127
120832 Off ch=1 n=b5 v=0
120860 On ch=1 n=e6 v=68
120920 Off ch=1 n=g4 v=0
120924 Off ch=1 n=e6 v=0
120940 On ch=1 n=e5 v=65
120948 Off ch=1 n=g3 v=0
120984 Off ch=1 n=e5 v=0
121044 On ch=1 n=a6 v=83
121116 Off ch=1 n=a6 v=0
121140 On ch=1 n=e6 v=74
121200 On ch=1 n=e4 v=82
121204 On ch=1 n=e3 v=83
121204 Par ch=1 c=64 v=88
121216 Par ch=1 c=64 v=24
121220 On ch=1 n=g6 v=75
121228 Par ch=1 c=64 v=0
121232 Off ch=1 n=e6 v=0
121292 Par ch=1 c=64 v=72
121296 Off ch=1 n=g6 v=64
121304 Par ch=1 c=64 v=127
121308 On ch=1 n=b5 v=72
121360 Off ch=1 n=b5 v=0
121400 On ch=1 n=c7 v=82
121480 Off ch=1 n=c7 v=0
121488 Off ch=1 n=e3 v=64
121492 On ch=1 n=g6 v=74
121516 Off ch=1 n=e4 v=64
121568 Off ch=1 n=g6 v=0
121576 On ch=1 n=b6 v=65
121628 Off ch=1 n=b6 v=0
121652 On ch=1 n=e6 v=79
121716 Off ch=1 n=e6 v=0
121756 On ch=1 n=e7 v=90
121768 On ch=1 n=g4 v=82
121772 On ch=1 n=g3 v=82
121776 Par ch=1 c=64 v=88
121788 Par ch=1 c=64 v=24
121800 Par ch=1 c=64 v=0
121860 Off ch=1 n=e7 v=0
121860 Par ch=1 c=64 v=56
121864 On ch=1 n=b6 v=76
121872 Par ch=1 c=64 v=127
121948 Off ch=1 n=b6 v=0
121948 On ch=1 n=d#7 v=69
122040 Off ch=1 n=d#7 v=0
122056 On ch=1 n=g6 v=66
122076 Off ch=1 n=g3 v=0
122120 Off ch=1 n=g4 v=0
122128 Off ch=1 n=g6 v=0
122136 On ch=1 n=d7 v=81
122220 Off ch=1 n=d7 v=0
122236 On ch=1 n=b6 v=80
122284 Par ch=1 c=64 v=88
122296 Par ch=1 c=64 v=24
122304 Off ch=1 n=b6 v=0
122312 Par ch=1 c=64 v=0
122324 On ch=1 n=c#7 v=77
122336 On ch=1 n=a4 v=78
122344 On ch=1 n=a3 v=70
122372 Par ch=1 c=64 v=56
122384 Par ch=1 c=64 v=104
122392 Off ch=1 n=a3 v=0
122396 Par ch=1 c=64 v=127
122400 Off ch=1 n=a4 v=0
122424 On ch=1 n=g6 v=81
122428 Off ch=1 n=c#7 v=0
122504 Off ch=1 n=g6 v=0
122516 On ch=1 n=c7 v=84
122528 On ch=1 n=a#4 v=79
122536 On ch=1 n=a#3 v=72
122592 Off ch=1 n=a#4 v=0
122592 Off ch=1 n=a#3 v=0
122604 On ch=1 n=g6 v=82
122608 Off ch=1 n=c7 v=0
122692 On ch=1 n=b6 v=80
122696 Off ch=1 n=g6 v=0
122708 On ch=1 n=b4 v=81
122708 On ch=1 n=b3 v=76
122756 Off ch=1 n=b3 v=0
122776 Off ch=1 n=b6 v=0
122784 Off ch=1 n=b4 v=64
122788 On ch=1 n=e6 v=78
122872 Off ch=1 n=e6 v=0
122892 On ch=1 n=a#6 v=78
122892 Par ch=1 c=64 v=72
122900 On ch=1 n=c5 v=84
122904 On ch=1 n=c4 v=79
122904 Par ch=1 c=64 v=0
122976 Par ch=1 c=64 v=40
122988 Par ch=1 c=64 v=104
122996 Off ch=1 n=a#6 v=0
123000 On ch=1 n=e6 v=73
123000 Par ch=1 c=64 v=127
123008 Off ch=1 n=c5 v=0
123044 Off ch=1 n=c4 v=0
123084 Off ch=1 n=e6 v=0
123084 On ch=1 n=a6 v=73
123164 Off ch=1 n=a6 v=0
123172 On ch=1 n=a#5 v=64
123260 Off ch=1 n=a#5 v=0
123268 On ch=1 n=g#6 v=79
123316 Par ch=1 c=64 v=72
123328 Par ch=1 c=64 v=0
123352 Off ch=1 n=g#6 v=0
123360 On ch=1 n=c3 v=67
123364 On ch=1 n=e6 v=73
123384 On ch=1 n=g3 v=60
123404 Par ch=1 c=64 v=40
123416 Off ch=1 n=c3 v=0
123416 Par ch=1 c=64 v=104
123428 Par ch=1 c=64 v=127
123448 Off ch=1 n=e6 v=0
123448 Off ch=1 n=g3 v=0
123464 On ch=1 n=g6 v=84
123476 On ch=1 n=e4 v=73
123528 Off ch=1 n=e4 v=0
123552 Off ch=1 n=g6 v=0
123556 On ch=1 n=a#5 v=64
123648 Off ch=1 n=a#5 v=0
123648 On ch=1 n=a6 v=84
123732 Off ch=1 n=a6 v=0
123756 On ch=1 n=e6 v=74
123828 Off ch=1 n=e6 v=0
123840 On ch=1 n=g6 v=79
123888 Par ch=1 c=64 v=88
123900 Par ch=1 c=64 v=0
123916 On ch=1 n=a#5 v=69
123920 Off ch=1 n=g6 v=0
123924 On ch=1 n=f3 v=67
123944 On ch=1 n=c4 v=66
123960 Par ch=1 c=64 v=56
123972 Off ch=1 n=a#5 v=0
123972 Par ch=1 c=64 v=127
123984 Off ch=1 n=f3 v=0
124000 Off ch=1 n=c4 v=0
124028 On ch=1 n=g6 v=77
124032 On ch=1 n=a4 v=74
124080 Off ch=1 n=a4 v=0
124088 Off ch=1 n=g6 v=0
124112 On ch=1 n=c6 v=77
124180 Off ch=1 n=c6 v=0
124200 On ch=1 n=f#6 v=82
124288 Off ch=1 n=f#6 v=0
124288 On ch=1 n=a5 v=71
124380 Off ch=1 n=a5 v=64
124384 On ch=1 n=f6 v=85
124456 Par ch=1 c=64 v=72
124468 On ch=1 n=c6 v=80
124472 Par ch=1 c=64 v=0
124476 Off ch=1 n=f6 v=0
124492 On ch=1 n=b2 v=70
124536 Off ch=1 n=b2 v=0
124544 Par ch=1 c=64 v=72
124548 Off ch=1 n=c6 v=0
124556 Par ch=1 c=64 v=127
124576 On ch=1 n=f#6 v=81
124592 On ch=1 n=d#4 v=77
124636 Off ch=1 n=d#4 v=0
124676 On ch=1 n=a5 v=71
124700 Off ch=1 n=f#6 v=0
124768 Off ch=1 n=a5 v=0
124776 On ch=1 n=g6 v=81
124864 Off ch=1 n=g6 v=0
124864 On ch=1 n=b5 v=69
124932 Off ch=1 n=b5 v=0
124956 On ch=1 n=f#6 v=71
125032 On ch=1 n=a5 v=62
125036 Off ch=1 n=f#6 v=0
125056 Par ch=1 c=64 v=104
125068 Par ch=1 c=64 v=40
125080 Par ch=1 c=64 v=0
125092 On ch=1 n=e3 v=68
125112 Off ch=1 n=a5 v=0
125116 On ch=1 n=b3 v=66
125136 Par ch=1 c=64 v=40
125144 Off ch=1 n=e3 v=0
125148 On ch=1 n=f#6 v=82
125152 Par ch=1 c=64 v=127
125160 Off ch=1 n=b3 v=0
125176 On ch=1 n=g4 v=79
125220 Off ch=1 n=g4 v=0
125240 Off ch=1 n=f#6 v=0
125252 On ch=1 n=g5 v=68
125316 Off ch=1 n=g5 v=0
125344 On ch=1 n=f6 v=82
125428 Off ch=1 n=f6 v=0
125440 On ch=1 n=b5 v=66
125512 Off ch=1 n=b5 v=0
125540 On ch=1 n=e6 v=77
125616 Off ch=1 n=e6 v=0
125620 On ch=1 n=g5 v=70
125624 Par ch=1 c=64 v=88
125636 Par ch=1 c=64 v=0
125652 On ch=1 n=a3 v=69
125688 On ch=1 n=e4 v=70
125696 Off ch=1 n=a3 v=0
125696 Par ch=1 c=64 v=40
125700 Off ch=1 n=g5 v=0
125708 Par ch=1 c=64 v=127
125732 Off ch=1 n=e4 v=0
125732 On ch=1 n=e6 v=85
125752 On ch=1 n=c#5 v=75
125788 Off ch=1 n=c#5 v=0
125816 Off ch=1 n=e6 v=0
125840 On ch=1 n=g5 v=74
125908 Off ch=1 n=g5 v=64
125932 On ch=1 n=f6 v=88
125996 Off ch=1 n=f6 v=0
126004 On ch=1 n=a5 v=78
126084 Off ch=1 n=a5 v=0
126104 On ch=1 n=e6 v=79
126176 On ch=1 n=g5 v=66
126184 Off ch=1 n=e6 v=0
126232 On ch=1 n=d4 v=70
126232 Par ch=1 c=64 v=72
126244 Par ch=1 c=64 v=0
126248 Off ch=1 n=g5 v=0
126248 On ch=1 n=a4 v=63
126284 On ch=1 n=e6 v=82
126292 Off ch=1 n=d4 v=0
126304 On ch=1 n=d5 v=77
126316 Par ch=1 c=64 v=88
126328 Par ch=1 c=64 v=127
126344 Off ch=1 n=a4 v=0
126360 Off ch=1 n=d5 v=0
126376 On ch=1 n=a5 v=65
126384 Off ch=1 n=e6 v=0
126468 Off ch=1 n=a5 v=0
126472 On ch=1 n=c#6 v=68
126552 On ch=1 n=f5 v=63
126572 Off ch=1 n=c#6 v=0
126656 Off ch=1 n=f5 v=0
126664 On ch=1 n=d6 v=81
126748 Off ch=1 n=d6 v=0
126760 On ch=1 n=a5 v=71
126824 Par ch=1 c=64 v=104
126832 Off ch=1 n=a5 v=0
126836 On ch=1 n=a3 v=68
126836 Par ch=1 c=64 v=40
126848 Par ch=1 c=64 v=0
126852 On ch=1 n=e4 v=69
126856 On ch=1 n=d6 v=86
126884 Off ch=1 n=a3 v=0
126896 Par ch=1 c=64 v=56
126908 Off ch=1 n=e4 v=0
126912 On ch=1 n=c5 v=74
126912 Par ch=1 c=64 v=127
126952 Off ch=1 n=c5 v=0
126960 On ch=1 n=e5 v=75
126964 Off ch=1 n=d6 v=0
127064 On ch=1 n=b5 v=75
127108 Off ch=1 n=e5 v=0
127148 Off ch=1 n=b5 v=0
127148 On ch=1 n=a5 v=70
127244 Off ch=1 n=a5 v=0
127252 On ch=1 n=c6 v=79
127340 Off ch=1 n=c6 v=0
127344 On ch=1 n=e5 v=68
127416 Off ch=1 n=e5 v=64
127464 On ch=1 n=c6 v=85
127476 On ch=1 n=d4 v=59
127480 On ch=1 n=d3 v=47
127548 Par ch=1 c=64 v=56
127560 Par ch=1 c=64 v=104
127564 On ch=1 n=a5 v=72
127568 Par ch=1 c=64 v=127
127584 Off ch=1 n=c6 v=0
127640 Off ch=1 n=a5 v=0
127652 Off ch=1 n=d3 v=0
127652 On ch=1 n=b5 v=74
127676 Off ch=1 n=d4 v=0
127724 Off ch=1 n=b5 v=0
127744 On ch=1 n=f5 v=80
127820 Off ch=1 n=f5 v=0
127848 On ch=1 n=c6 v=88
127936 On ch=1 n=a5 v=81
127960 Off ch=1 n=c6 v=0
128020 On ch=1 n=b5 v=82
128040 Off ch=1 n=a5 v=0
128044 On ch=1 n=f5 v=71
128056 On ch=1 n=f4 v=61
128060 Off ch=1 n=b5 v=0
128124 Off ch=1 n=f5 v=0
128124 On ch=1 n=d6 v=84
128140 Off ch=1 n=f4 v=0
128208 Off ch=1 n=d6 v=0
128220 On ch=1 n=c7 v=88
128308 On ch=1 n=a6 v=69
128340 Off ch=1 n=c7 v=0
128396 On ch=1 n=b6 v=80
128416 Off ch=1 n=a6 v=0
128440 Off ch=1 n=b6 v=0
128484 On ch=1 n=d7 v=82
128584 Off ch=1 n=d7 v=0
128596 On ch=1 n=c8 v=88
128608 On ch=1 n=a#4 v=67
128612 On ch=1 n=a#3 v=64
128692 Off ch=1 n=c8 v=0
128692 On ch=1 n=a7 v=93
128772 Off ch=1 n=a7 v=0
128792 On ch=1 n=b7 v=82
128812 Off ch=1 n=a#3 v=0
128856 Off ch=1 n=a#4 v=0
128884 On ch=1 n=f7 v=86
128888 Off ch=1 n=b7 v=0
128972 On ch=1 n=c7 v=83
128976 Off ch=1 n=f7 v=64
129028 Off ch=1 n=c7 v=0
129056 On ch=1 n=c5 v=68
129064 On ch=1 n=c4 v=62
129072 On ch=1 n=a6 v=74
129076 Off ch=1 n=c5 v=0
129084 Off ch=1 n=c4 v=0
129128 Off ch=1 n=a6 v=0
129156 On ch=1 n=b4 v=75
129164 On ch=1 n=b3 v=72
129164 On ch=1 n=b6 v=90
129180 Par ch=1 c=64 v=56
129192 Par ch=1 c=64 v=0
129248 Par ch=1 c=64 v=24
129264 Par ch=1 c=64 v=88
129268 On ch=1 n=f6 v=88
129272 Off ch=1 n=b6 v=0
129276 Par ch=1 c=64 v=127
129348 On ch=1 n=c6 v=76
129356 Off ch=1 n=f6 v=0
129428 Off ch=1 n=c6 v=0
129440 On ch=1 n=a5 v=77
129504 Off ch=1 n=a5 v=0
129508 Off ch=1 n=b4 v=0
129532 On ch=1 n=b5 v=80
129540 Off ch=1 n=b3 v=0
129600 Off ch=1 n=b5 v=0
129628 On ch=1 n=f5 v=80
129672 Off ch=1 n=f5 v=0
129780 On ch=1 n=d#4 v=76
129780 On ch=1 n=d#3 v=61
129784 On ch=1 n=b5 v=70
129816 Par ch=1 c=64 v=88
129828 Par ch=1 c=64 v=56
129840 Par ch=1 c=64 v=0
129880 On ch=1 n=f#5 v=67
129908 Off ch=1 n=b5 v=0
129932 Par ch=1 c=64 v=56
129944 Par ch=1 c=64 v=127
129960 Off ch=1 n=f#5 v=0
129968 On ch=1 n=a5 v=71
130040 Off ch=1 n=a5 v=0
130048 Off ch=1 n=d#3 v=0
130052 On ch=1 n=c5 v=77
130064 Off ch=1 n=d#4 v=0
130152 On ch=1 n=b5 v=74
130156 Off ch=1 n=c5 v=0
130228 On ch=1 n=f#5 v=65
130272 Off ch=1 n=b5 v=0
130292 Off ch=1 n=f#5 v=0
130304 On ch=1 n=a5 v=66
130324 Off ch=1 n=a5 v=0
130328 On ch=1 n=f#5 v=88
130332 On ch=1 n=f#4 v=74
130424 On ch=1 n=c6 v=73
130492 Off ch=1 n=f#5 v=64
130516 On ch=1 n=b6 v=79
130524 Off ch=1 n=f#4 v=64
130528 Off ch=1 n=c6 v=64
130596 On ch=1 n=f#6 v=69
130632 Off ch=1 n=b6 v=0
130672 On ch=1 n=a6 v=55
130676 Off ch=1 n=f#6 v=0
130704 Off ch=1 n=a6 v=0
130772 On ch=1 n=c7 v=83
130880 On ch=1 n=a4 v=74
130880 On ch=1 n=b7 v=83
130880 On ch=1 n=a3 v=76
130884 Off ch=1 n=c7 v=0
130944 Off ch=1 n=a3 v=0
130968 On ch=1 n=f#7 v=69
130980 Off ch=1 n=a4 v=0
130984 Off ch=1 n=b7 v=0
131064 Off ch=1 n=f#7 v=0
131064 On ch=1 n=a7 v=77
131140 Off ch=1 n=a7 v=0
131152 On ch=1 n=c7 v=73
131184 Off ch=1 n=c7 v=0
131252 On ch=1 n=b6 v=78
131320 On ch=1 n=d5 v=75
131328 On ch=1 n=d4 v=70
131352 Off ch=1 n=d4 v=0
131352 On ch=1 n=f#6 v=65
131364 Off ch=1 n=d5 v=0
131372 Off ch=1 n=b6 v=0
131432 Off ch=1 n=f#6 v=0
131444 On ch=1 n=a6 v=75
131456 On ch=1 n=c5 v=73
131468 On ch=1 n=c4 v=72
131492 Par ch=1 c=64 v=104
131508 Par ch=1 c=64 v=40
131520 Par ch=1 c=64 v=0
131548 On ch=1 n=c6 v=75
131556 Off ch=1 n=a6 v=0
131556 Par ch=1 c=64 v=104
131564 Par ch=1 c=64 v=127
131596 Off ch=1 n=c6 v=0
131660 On ch=1 n=b5 v=55
131744 Off ch=1 n=c5 v=0
131748 On ch=1 n=f#5 v=60
131756 Off ch=1 n=c4 v=0
131776 Off ch=1 n=b5 v=0
131824 Off ch=1 n=f#5 v=0
131848 On ch=1 n=a5 v=64
131912 Off ch=1 n=a5 v=0
131952 On ch=1 n=c5 v=60
132040 Off ch=1 n=c5 v=64
132092 On ch=1 n=e3 v=54
132112 On ch=1 n=a5 v=80
132128 Par ch=1 c=64 v=104
132140 Par ch=1 c=64 v=56
132152 Par ch=1 c=64 v=0
132164 On ch=1 n=e4 v=71
132224 On ch=1 n=e5 v=70
132224 Par ch=1 c=64 v=56
132236 Par ch=1 c=64 v=127
132244 Off ch=1 n=e3 v=0
132248 Off ch=1 n=a5 v=0
132320 Off ch=1 n=e5 v=0
132328 On ch=1 n=g#5 v=61
132368 Off ch=1 n=g#5 v=0
132380 Off ch=1 n=e4 v=0
132444 On ch=1 n=b5 v=61
132484 Off ch=1 n=b5 v=0
132524 On ch=1 n=a6 v=79
132608 On ch=1 n=e6 v=75
132632 Off ch=1 n=a6 v=0
132700 On ch=1 n=g#6 v=70
132708 Off ch=1 n=e6 v=0
132720 On ch=1 n=b4 v=63
132748 Off ch=1 n=g#6 v=0
132800 On ch=1 n=b6 v=78
132900 On ch=1 n=a7 v=84
132936 Off ch=1 n=b6 v=0
132992 Off ch=1 n=a7 v=0
132992 On ch=1 n=e7 v=70
133064 Off ch=1 n=e7 v=0
133076 On ch=1 n=g#7 v=80
133156 Off ch=1 n=g#7 v=0
133168 On ch=1 n=b6 v=73
133176 On ch=1 n=e5 v=60
133232 Off ch=1 n=e5 v=0
133268 On ch=1 n=g#7 v=81
133272 On ch=1 n=d5 v=66
133316 Off ch=1 n=b4 v=0
133316 Off ch=1 n=b6 v=0
133356 On ch=1 n=d7 v=75
133368 Off ch=1 n=g#7 v=0
133460 On ch=1 n=f#7 v=67
133492 Off ch=1 n=d7 v=0
133528 On ch=1 n=b6 v=75
133536 Off ch=1 n=f#7 v=64
133576 Off ch=1 n=b6 v=0
133624 On ch=1 n=g#6 v=69
133712 Off ch=1 n=d5 v=64
133712 On ch=1 n=d6 v=71
133724 Off ch=1 n=g#6 v=0
133804 On ch=1 n=f#6 v=62
133820 Off ch=1 n=d6 v=0
133868 Off ch=1 n=f#6 v=0
133888 On ch=1 n=b5 v=60
133924 Off ch=1 n=b5 v=0
133972 On ch=1 n=g#5 v=65
134064 On ch=1 n=d5 v=51
134080 Off ch=1 n=g#5 v=0
134156 Off ch=1 n=d5 v=0
134156 On ch=1 n=f#5 v=53
134228 Off ch=1 n=f#5 v=0
134256 On ch=1 n=b4 v=56
134348 Off ch=1 n=b4 v=0
134400 On ch=1 n=f#5 v=62
134416 On ch=1 n=e2 v=57
134444 Par ch=1 c=64 v=72
134452 On ch=1 n=e3 v=55
134456 Par ch=1 c=64 v=0
134504 On ch=1 n=c#5 v=57
134528 Par ch=1 c=64 v=72
134540 Off ch=1 n=f#5 v=0
134540 Par ch=1 c=64 v=127
134600 On ch=1 n=e5 v=63
134608 Off ch=1 n=c#5 v=0
134612 Off ch=1 n=e2 v=0
134628 Off ch=1 n=e5 v=0
134672 Off ch=1 n=e3 v=0
134700 On ch=1 n=g#5 v=69
134784 Off ch=1 n=g#5 v=0
134796 On ch=1 n=f#6 v=73
134880 On ch=1 n=c#6 v=67
134912 Off ch=1 n=f#6 v=0
134972 On ch=1 n=g#4 v=64
134972 On ch=1 n=e6 v=69
134976 Off ch=1 n=c#6 v=0
135000 Off ch=1 n=e6 v=0
135068 On ch=1 n=g#6 v=60
135152 Off ch=1 n=g#6 v=0
135164 On ch=1 n=f#7 v=73
135260 On ch=1 n=c#7 v=61
135272 Off ch=1 n=f#7 v=0
135328 On ch=1 n=e7 v=70
135332 Off ch=1 n=c#7 v=0
135408 Off ch=1 n=e7 v=0
135420 On ch=1 n=g#6 v=73
135432 On ch=1 n=c#5 v=56
135464 Off ch=1 n=g#4 v=64
135504 Off ch=1 n=c#5 v=0
135520 Off ch=1 n=g#6 v=0
135536 On ch=1 n=e7 v=85
135548 On ch=1 n=b4 v=67
135628 On ch=1 n=b6 v=70
135636 Off ch=1 n=e7 v=0
135644 Off ch=1 n=b4 v=0
135728 On ch=1 n=d7 v=64
135744 Off ch=1 n=b6 v=0
135804 Off ch=1 n=d7 v=0
135808 On ch=1 n=f#6 v=65
135844 Off ch=1 n=f#6 v=0
135908 On ch=1 n=e6 v=72
135988 On ch=1 n=b5 v=69
135996 Off ch=1 n=e6 v=0
136072 Off ch=1 n=b5 v=0
136084 On ch=1 n=d6 v=62
136148 Off ch=1 n=d6 v=0
136264 On ch=1 n=e5 v=59
136348 On ch=1 n=b4 v=62
136360 Off ch=1 n=e5 v=0
136420 Off ch=1 n=b4 v=0
136436 On ch=1 n=d5 v=56
136504 Off ch=1 n=d5 v=0
136532 On ch=1 n=f#4 v=49
136608 Off ch=1 n=f#4 v=64
136688 On ch=1 n=c#5 v=57
136712 On ch=1 n=e3 v=42
136724 On ch=1 n=e2 v=33
136760 On ch=1 n=g#4 v=36
136760 Par ch=1 c=64 v=72
136772 Par ch=1 c=64 v=0
136776 Off ch=1 n=c#5 v=0
136856 Par ch=1 c=64 v=88
136868 Off ch=1 n=g#4 v=0
136868 Par ch=1 c=64 v=127
136872 On ch=1 n=b4 v=55
136944 Off ch=1 n=b4 v=0
136952 Off ch=1 n=e2 v=0
136960 On ch=1 n=f4 v=61
136984 Off ch=1 n=e3 v=0
137024 Off ch=1 n=f4 v=0
137056 On ch=1 n=e5 v=68
137148 On ch=1 n=b4 v=63
137172 Off ch=1 n=e5 v=0
137240 On ch=1 n=d5 v=59
137244 On ch=1 n=f4 v=81
137248 Off ch=1 n=b4 v=0
137336 Off ch=1 n=d5 v=0
137352 On ch=1 n=g#4 v=48
137404 Off ch=1 n=g#4 v=0
137484 On ch=1 n=g5 v=66
137584 On ch=1 n=d5 v=69
137588 Off ch=1 n=g5 v=0
137644 Off ch=1 n=f4 v=0
137664 On ch=1 n=f5 v=66
137676 Off ch=1 n=d5 v=0
137736 Off ch=1 n=f5 v=0
137740 On ch=1 n=b4 v=66
137760 On ch=1 n=f4 v=81
137800 Off ch=1 n=f4 v=0
137808 Off ch=1 n=b4 v=0
137840 On ch=1 n=a5 v=82
137848 On ch=1 n=f4 v=82
137928 On ch=1 n=f5 v=63
137944 Off ch=1 n=a5 v=0
138032 On ch=1 n=g#5 v=57
138044 Off ch=1 n=f5 v=0
138116 Off ch=1 n=g#5 v=0
138132 On ch=1 n=d5 v=66
138204 Off ch=1 n=d5 v=0
138212 On ch=1 n=c6 v=86
138296 On ch=1 n=g#5 v=64
138340 Off ch=1 n=c6 v=0
138368 Off ch=1 n=f4 v=64
138392 On ch=1 n=g4 v=94
138392 On ch=1 n=b5 v=73
138408 Off ch=1 n=g#5 v=0
138464 Off ch=1 n=b5 v=0
138480 On ch=1 n=f5 v=74
138552 Off ch=1 n=f5 v=0
138568 On ch=1 n=e6 v=82
138660 On ch=1 n=b5 v=74
138680 Off ch=1 n=e6 v=0
138740 On ch=1 n=d6 v=74
138756 Off ch=1 n=b5 v=0
138808 Off ch=1 n=d6 v=0
138824 On ch=1 n=g#5 v=79
138892 Off ch=1 n=g#5 v=0
138916 Off ch=1 n=g4 v=0
138932 On ch=1 n=g6 v=89
138944 On ch=1 n=f4 v=94
139028 Off ch=1 n=g6 v=0
139032 On ch=1 n=d6 v=82
139112 Off ch=1 n=d6 v=0
139116 On ch=1 n=f6 v=77
139184 Off ch=1 n=f6 v=0
139200 On ch=1 n=b5 v=74
139268 Off ch=1 n=b5 v=0
139288 On ch=1 n=a6 v=87
139372 On ch=1 n=f6 v=78
139388 Off ch=1 n=a6 v=0
139448 Off ch=1 n=f4 v=0
139464 On ch=1 n=g#6 v=74
139472 On ch=1 n=d4 v=96
139488 Off ch=1 n=f6 v=0
139544 Off ch=1 n=g#6 v=0
139568 On ch=1 n=d6 v=68
139640 Off ch=1 n=d6 v=0
139652 On ch=1 n=c7 v=90
139740 Off ch=1 n=c7 v=64
139756 On ch=1 n=g#6 v=57
139824 Off ch=1 n=g#6 v=0
139844 On ch=1 n=b6 v=74
139904 Off ch=1 n=b6 v=0
139912 On ch=1 n=f6 v=78
139988 Off ch=1 n=d4 v=64
139992 Off ch=1 n=f6 v=0
140004 On ch=1 n=e7 v=90
140004 On ch=1 n=f4 v=99
140064 Par ch=1 c=64 v=104
140076 Par ch=1 c=64 v=72
140100 On ch=1 n=b6 v=82
140108 Par ch=1 c=64 v=127
140140 Off ch=1 n=e7 v=0
140176 On ch=1 n=d7 v=71
140188 Off ch=1 n=b6 v=0
140244 Off ch=1 n=d7 v=0
140264 On ch=1 n=g#6 v=77
140300 Off ch=1 n=f4 v=0
140328 Off ch=1 n=g#6 v=0
140348 On ch=1 n=g7 v=86
140420 Off ch=1 n=g7 v=0
140444 On ch=1 n=d7 v=86
140516 Off ch=1 n=d7 v=0
140528 On ch=1 n=f7 v=86
140596 Off ch=1 n=f7 v=0
140616 On ch=1 n=b6 v=86
140676 Off ch=1 n=b6 v=0
140696 On ch=1 n=a7 v=97
140784 On ch=1 n=f7 v=94
140808 Off ch=1 n=a7 v=0
140872 On ch=1 n=g#7 v=93
140888 Off ch=1 n=f7 v=0
140928 Off ch=1 n=g#7 v=0
140944 On ch=1 n=d7 v=89
140996 Off ch=1 n=d7 v=0
141060 On ch=1 n=f8 v=103
141064 On ch=1 n=e3 v=80
141100 Par ch=1 c=64 v=104
141112 Par ch=1 c=64 v=127
141172 On ch=1 n=b3 v=65
141180 On ch=1 n=b7 v=83
141208 Off ch=1 n=f8 v=64
141212 Off ch=1 n=e3 v=64
141252 On ch=1 n=g#3 v=57
141264 On ch=1 n=e8 v=84
141272 Off ch=1 n=b7 v=64
141276 Off ch=1 n=b3 v=64
141340 Off ch=1 n=g#3 v=0
141340 Off ch=1 n=e8 v=0
141344 On ch=1 n=d4 v=66
141356 On ch=1 n=g#7 v=81
141412 Off ch=1 n=d4 v=0
141420 Off ch=1 n=g#7 v=0
141424 On ch=1 n=g#3 v=58
141440 On ch=1 n=d#8 v=85
141512 On ch=1 n=b7 v=81
141516 Off ch=1 n=d#8 v=0
141524 On ch=1 n=d4 v=72
141564 Off ch=1 n=g#3 v=0
141572 Off ch=1 n=b7 v=0
141608 On ch=1 n=d8 v=93
141608 On ch=1 n=b3 v=67
141640 Off ch=1 n=d4 v=0
141676 Off ch=1 n=b3 v=0
141684 On ch=1 n=f4 v=66
141708 On ch=1 n=g#7 v=85
141712 Off ch=1 n=d8 v=0
141740 Off ch=1 n=f4 v=0
141776 Off ch=1 n=g#7 v=0
141784 On ch=1 n=b3 v=57
141784 On ch=1 n=c#8 v=85
141864 On ch=1 n=f4 v=60
141868 On ch=1 n=g#7 v=80
141888 Off ch=1 n=c#8 v=0
141892 Off ch=1 n=b3 v=0
141948 On ch=1 n=d4 v=54
141948 On ch=1 n=c8 v=83
141956 Off ch=1 n=g#7 v=0
141972 Off ch=1 n=f4 v=0
142004 Off ch=1 n=d4 v=0
142016 On ch=1 n=g#4 v=58
142032 On ch=1 n=f7 v=79
142036 Off ch=1 n=c8 v=0
142080 Off ch=1 n=g#4 v=0
142092 Off ch=1 n=f7 v=0
142112 On ch=1 n=d4 v=70
142112 Par ch=1 c=64 v=88
142120 On ch=1 n=b7 v=96
142120 Par ch=1 c=64 v=24
142136 Par ch=1 c=64 v=0
142172 Par ch=1 c=64 v=56
142180 Par ch=1 c=64 v=104
142188 On ch=1 n=g#4 v=53
142192 Par ch=1 c=64 v=127
142208 On ch=1 n=f7 v=86
142220 Off ch=1 n=d4 v=0
142220 Off ch=1 n=b7 v=0
142284 On ch=1 n=f4 v=58
142288 Off ch=1 n=f7 v=0
142296 On ch=1 n=a#7 v=82
142320 Off ch=1 n=g#4 v=0
142340 Off ch=1 n=f4 v=0
142356 On ch=1 n=b4 v=60
142384 Off ch=1 n=a#7 v=0
142384 On ch=1 n=d7 v=77
142416 Off ch=1 n=b4 v=0
142436 On ch=1 n=f4 v=51
142456 Off ch=1 n=d7 v=0
142472 On ch=1 n=a7 v=94
142532 On ch=1 n=b4 v=51
142556 Off ch=1 n=a7 v=0
142560 On ch=1 n=f7 v=83
142564 Off ch=1 n=f4 v=0
142628 On ch=1 n=g#4 v=62
142632 Off ch=1 n=f7 v=0
142636 Off ch=1 n=b4 v=0
142656 On ch=1 n=g#7 v=96
142716 Off ch=1 n=g#4 v=0
142724 On ch=1 n=d5 v=69
142744 On ch=1 n=b6 v=86
142764 Off ch=1 n=g#7 v=64
142808 Off ch=1 n=d5 v=64
142820 Off ch=1 n=b6 v=0
142824 On ch=1 n=g7 v=92
142824 On ch=1 n=g#4 v=64
142900 On ch=1 n=d7 v=80
142908 On ch=1 n=d5 v=66
142920 Off ch=1 n=g7 v=0
142924 Off ch=1 n=g#4 v=0
142976 Off ch=1 n=d5 v=0
142988 On ch=1 n=f#7 v=85
142996 Off ch=1 n=d7 v=0
143000 On ch=1 n=b4 v=64
143064 On ch=1 n=g#6 v=82
143084 On ch=1 n=f5 v=63
143088 Off ch=1 n=f#7 v=0
143092 Off ch=1 n=b4 v=0
143136 Off ch=1 n=g#6 v=0
143140 Off ch=1 n=f5 v=0
143160 On ch=1 n=f7 v=96
143180 On ch=1 n=b4 v=70
143244 On ch=1 n=b6 v=85
143248 Off ch=1 n=f7 v=0
143252 Off ch=1 n=b4 v=0
143260 On ch=1 n=f5 v=65
143320 Off ch=1 n=f5 v=0
143324 Off ch=1 n=b6 v=0
143324 On ch=1 n=e7 v=92
143344 On ch=1 n=d5 v=60
143400 On ch=1 n=g#6 v=82
143404 Off ch=1 n=d5 v=0
143420 On ch=1 n=g#5 v=62
143428 Off ch=1 n=e7 v=0
143476 Off ch=1 n=g#6 v=0
143476 Off ch=1 n=g#5 v=0
143492 On ch=1 n=d#7 v=87
143520 On ch=1 n=d5 v=66
143560 On ch=1 n=b6 v=66
143584 Off ch=1 n=d#7 v=0
143600 Off ch=1 n=d5 v=0
143604 On ch=1 n=g#5 v=65
143628 Off ch=1 n=b6 v=0
143656 On ch=1 n=d7 v=96
143660 Off ch=1 n=g#5 v=0
143676 On ch=1 n=f5 v=74
143744 On ch=1 n=g#6 v=85
143752 On ch=1 n=b5 v=60
143756 Off ch=1 n=f5 v=0
143760 Off ch=1 n=d7 v=0
143816 Off ch=1 n=g#6 v=0
143824 Off ch=1 n=b5 v=0
143828 On ch=1 n=c#7 v=84
143832 On ch=1 n=f5 v=61
143904 Off ch=1 n=f5 v=0
143908 On ch=1 n=g#6 v=81
143912 Off ch=1 n=c#7 v=0
143920 On ch=1 n=d6 v=63
143980 Off ch=1 n=d6 v=0
143988 Off ch=1 n=g#6 v=0
143996 On ch=1 n=c7 v=86
143996 On ch=1 n=g#5 v=56
144072 Off ch=1 n=g#5 v=0
144080 On ch=1 n=f6 v=76
144080 On ch=1 n=d6 v=67
144112 Off ch=1 n=c7 v=0
144160 Off ch=1 n=f6 v=0
144180 On ch=1 n=b6 v=99
144208 On ch=1 n=g#6 v=74
144248 Off ch=1 n=b6 v=0
144292 Off ch=1 n=g#6 v=64
144316 Off ch=1 n=d6 v=64
144848 Par ch=1 c=64 v=104
144864 Par ch=1 c=64 v=72
144876 Par ch=1 c=64 v=40
144888 Par ch=1 c=64 v=24
144900 Par ch=1 c=64 v=0
145192 On ch=1 n=b7 v=107
145192 Par ch=1 c=64 v=72
145200 On ch=1 n=b2 v=69
145200 Par ch=1 c=64 v=127
145300 On ch=1 n=f7 v=89
145304 On ch=1 n=f3 v=60
145320 Off ch=1 n=b2 v=0
145336 Off ch=1 n=b7 v=0
145388 On ch=1 n=a#7 v=77
145400 On ch=1 n=d3 v=54
145404 Off ch=1 n=f3 v=0
145412 Off ch=1 n=f7 v=0
145456 Off ch=1 n=d3 v=0
145468 On ch=1 n=d7 v=82
145472 Off ch=1 n=a#7 v=0
145476 On ch=1 n=g#3 v=47
145532 Off ch=1 n=d7 v=0
145532 Off ch=1 n=g#3 v=0
145556 On ch=1 n=a7 v=94
145564 On ch=1 n=d3 v=66
145644 On ch=1 n=g#3 v=61
145652 Off ch=1 n=a7 v=0
145652 On ch=1 n=f7 v=84
145664 Off ch=1 n=d3 v=0
145728 Off ch=1 n=f7 v=0
145736 On ch=1 n=g#7 v=90
145744 On ch=1 n=f3 v=68
145756 Off ch=1 n=g#3 v=0
145816 Off ch=1 n=f3 v=64
145832 On ch=1 n=b3 v=68
145832 On ch=1 n=d7 v=77
145844 Off ch=1 n=g#7 v=64
145892 Off ch=1 n=b3 v=0
145908 Off ch=1 n=d7 v=0
145908 On ch=1 n=f3 v=58
145916 On ch=1 n=g7 v=87
145980 On ch=1 n=b3 v=53
146004 On ch=1 n=d7 v=75
146012 Off ch=1 n=g7 v=0
146020 Off ch=1 n=f3 v=0
146064 On ch=1 n=g#3 v=56
146084 On ch=1 n=f#7 v=72
146100 Off ch=1 n=b3 v=0
146100 Off ch=1 n=d7 v=0
146148 Off ch=1 n=g#3 v=0
146148 On ch=1 n=d4 v=66
146160 On ch=1 n=b6 v=77
146176 Off ch=1 n=f#7 v=0
146212 Off ch=1 n=d4 v=0
146228 Off ch=1 n=b6 v=0
146244 On ch=1 n=g#3 v=72
146252 On ch=1 n=f7 v=99
146332 Off ch=1 n=f7 v=0
146332 On ch=1 n=d4 v=68
146340 On ch=1 n=b6 v=82
146352 Off ch=1 n=g#3 v=0
146416 On ch=1 n=e7 v=87
146424 On ch=1 n=b3 v=65
146432 Off ch=1 n=b6 v=0
146444 Off ch=1 n=d4 v=0
146488 Off ch=1 n=b3 v=0
146508 Off ch=1 n=e7 v=0
146508 On ch=1 n=f4 v=63
146508 On ch=1 n=g#6 v=80
146568 Off ch=1 n=f4 v=0
146580 Off ch=1 n=g#6 v=0
146592 On ch=1 n=b3 v=70
146596 On ch=1 n=d#7 v=85
146668 On ch=1 n=f4 v=65
146676 On ch=1 n=b6 v=74
146680 Off ch=1 n=b3 v=0
146688 Off ch=1 n=d#7 v=0
146744 Off ch=1 n=b6 v=0
146768 Off ch=1 n=f4 v=0
146772 On ch=1 n=d7 v=89
146776 On ch=1 n=d4 v=68
146840 Off ch=1 n=d4 v=0
146844 On ch=1 n=g#4 v=64
146868 On ch=1 n=g#6 v=79
146872 Off ch=1 n=d7 v=0
146904 Off ch=1 n=g#4 v=0
146936 On ch=1 n=d4 v=59
146940 Off ch=1 n=g#6 v=0
146948 On ch=1 n=c#7 v=80
147008 On ch=1 n=g#4 v=58
147024 On ch=1 n=g#6 v=73
147036 Off ch=1 n=d4 v=0
147044 Off ch=1 n=c#7 v=0
147108 On ch=1 n=f4 v=62
147116 On ch=1 n=c7 v=87
147120 Off ch=1 n=g#6 v=0
147144 Off ch=1 n=g#4 v=0
147176 Off ch=1 n=f4 v=0
147192 On ch=1 n=b4 v=64
147208 Off ch=1 n=c7 v=0
147208 On ch=1 n=f6 v=80
147248 Off ch=1 n=b4 v=0
147264 Off ch=1 n=f6 v=0
147284 On ch=1 n=f4 v=70
147284 Par ch=1 c=64 v=104
147292 On ch=1 n=b6 v=97
147296 Par ch=1 c=64 v=56
147308 Par ch=1 c=64 v=40
147320 Par ch=1 c=64 v=56
147332 Par ch=1 c=64 v=88
147344 Par ch=1 c=64 v=127
147368 On ch=1 n=b4 v=54
147380 On ch=1 n=f6 v=84
147392 Off ch=1 n=f4 v=64
147400 Off ch=1 n=b6 v=64
147460 On ch=1 n=g#4 v=59
147460 On ch=1 n=a#6 v=76
147480 Off ch=1 n=f6 v=0
147484 Off ch=1 n=b4 v=0
147524 Off ch=1 n=g#4 v=0
147540 On ch=1 n=d5 v=66
147548 On ch=1 n=d6 v=69
147552 Off ch=1 n=a#6 v=0
147600 Off ch=1 n=d5 v=0
147616 Off ch=1 n=d6 v=0
147620 On ch=1 n=g#4 v=64
147628 On ch=1 n=a6 v=88
147712 On ch=1 n=d5 v=64
147716 On ch=1 n=f6 v=84
147724 Off ch=1 n=a6 v=0
147732 Off ch=1 n=g#4 v=0
147788 Off ch=1 n=f6 v=0
147796 On ch=1 n=g#6 v=87
147808 On ch=1 n=b4 v=65
147832 Off ch=1 n=d5 v=0
147868 Off ch=1 n=b4 v=0
147880 On ch=1 n=f5 v=64
147892 On ch=1 n=d6 v=81
147900 Off ch=1 n=g#6 v=0
147944 Off ch=1 n=f5 v=0
147964 On ch=1 n=b4 v=61
147968 On ch=1 n=g6 v=88
147972 Off ch=1 n=d6 v=0
148036 On ch=1 n=f5 v=62
148052 On ch=1 n=d6 v=82
148064 Off ch=1 n=b4 v=0
148064 Off ch=1 n=g6 v=0
148124 Off ch=1 n=f5 v=0
148132 Off ch=1 n=d6 v=0
148132 On ch=1 n=d5 v=61
148136 On ch=1 n=f#6 v=83
148192 On ch=1 n=g#5 v=65
148208 On ch=1 n=b5 v=74
148216 Off ch=1 n=f#6 v=0
148220 Off ch=1 n=d5 v=0
148308 On ch=1 n=f6 v=99
148312 On ch=1 n=f5 v=58
148312 On ch=1 n=b5 v=65
148312 On ch=1 n=d5 v=65
148320 On ch=1 n=d6 v=74
148360 Off ch=1 n=f5 v=0
148372 Off ch=1 n=g#5 v=0
148372 Off ch=1 n=b5 v=0
148384 Off ch=1 n=d6 v=0
148396 Off ch=1 n=f6 v=0
148400 Off ch=1 n=b5 v=0
148400 Off ch=1 n=d5 v=0
148756 Par ch=1 c=64 v=104
148768 Par ch=1 c=64 v=88
148776 Par ch=1 c=64 v=72
148788 Par ch=1 c=64 v=56
148812 Par ch=1 c=64 v=40
148836 Par ch=1 c=64 v=24
148844 Par ch=1 c=64 v=0
149048 Par ch=1 c=64 v=40
149060 Par ch=1 c=64 v=88
149072 Par ch=1 c=64 v=104
149084 Par ch=1 c=64 v=127
149220 On ch=1 n=f5 v=41
149224 On ch=1 n=f6 v=58
149264 Off ch=1 n=f5 v=0
149288 Off ch=1 n=f6 v=0
149292 On ch=1 n=d6 v=68
149292 On ch=1 n=d5 v=34
149340 Off ch=1 n=d5 v=0
149364 Off ch=1 n=d6 v=0
149376 On ch=1 n=e6 v=69
149376 On ch=1 n=e5 v=53
149436 Par ch=1 c=64 v=88
149444 Off ch=1 n=e6 v=0
149448 Off ch=1 n=e5 v=0
149448 Par ch=1 c=64 v=40
149456 On ch=1 n=g#5 v=61
149460 Par ch=1 c=64 v=0
149476 On ch=1 n=b4 v=59
149516 Par ch=1 c=64 v=56
149528 Par ch=1 c=64 v=104
149540 Par ch=1 c=64 v=127
149544 Off ch=1 n=g#5 v=0
149544 Off ch=1 n=b4 v=0
149716 Par ch=1 c=64 v=104
149728 Par ch=1 c=64 v=72
149740 Par ch=1 c=64 v=56
149752 Par ch=1 c=64 v=40
149764 Par ch=1 c=64 v=24
149776 Par ch=1 c=64 v=0
150128 Par ch=1 c=64 v=24
150164 Par ch=1 c=64 v=40
150200 Par ch=1 c=64 v=56
150232 Par ch=1 c=64 v=72
150244 Par ch=1 c=64 v=88
150268 Par ch=1 c=64 v=104
150272 On ch=1 n=f6 v=65
150284 On ch=1 n=f5 v=37
150316 Par ch=1 c=64 v=127
150328 Off ch=1 n=f5 v=0
150340 Off ch=1 n=f6 v=0
150360 On ch=1 n=d5 v=42
150364 On ch=1 n=d6 v=64
150420 Off ch=1 n=d5 v=64
150420 Off ch=1 n=d6 v=64
150428 On ch=1 n=e6 v=65
150452 On ch=1 n=e5 v=53
150480 Par ch=1 c=64 v=72
150492 Par ch=1 c=64 v=56
150504 Par ch=1 c=64 v=24
150508 Off ch=1 n=e6 v=0
150516 Par ch=1 c=64 v=0
150520 Off ch=1 n=e5 v=0
150532 On ch=1 n=g#5 v=59
150548 On ch=1 n=b4 v=52
150564 Par ch=1 c=64 v=72
150576 Off ch=1 n=b4 v=0
150576 Par ch=1 c=64 v=127
150592 Off ch=1 n=g#5 v=0
150820 Par ch=1 c=64 v=104
150844 Par ch=1 c=64 v=88
150856 Par ch=1 c=64 v=72
150868 Par ch=1 c=64 v=56
150892 Par ch=1 c=64 v=40
150940 Par ch=1 c=64 v=0
151244 Par ch=1 c=64 v=24
151256 Par ch=1 c=64 v=40
151268 Par ch=1 c=64 v=72
151272 On ch=1 n=f6 v=72
151276 On ch=1 n=f5 v=55
151280 Par ch=1 c=64 v=88
151292 Par ch=1 c=64 v=104
151344 Off ch=1 n=f5 v=0
151360 Off ch=1 n=f6 v=0
151364 On ch=1 n=d6 v=70
151368 On ch=1 n=d5 v=53
151440 Off ch=1 n=d6 v=0
151444 Off ch=1 n=d5 v=0
151456 On ch=1 n=e6 v=71
151464 On ch=1 n=e5 v=63
151524 Off ch=1 n=e6 v=0
151532 On ch=1 n=g#5 v=65
151540 Off ch=1 n=e5 v=0
151564 On ch=1 n=b4 v=51
151624 Off ch=1 n=b4 v=0
151628 On ch=1 n=f6 v=80
151632 On ch=1 n=f5 v=57
151636 Off ch=1 n=g#5 v=0
151704 Off ch=1 n=f5 v=0
151712 Off ch=1 n=f6 v=0
151716 On ch=1 n=d5 v=47
151720 On ch=1 n=d6 v=77
151784 Off ch=1 n=d5 v=0
151792 Off ch=1 n=d6 v=0
151804 On ch=1 n=e6 v=74
151804 On ch=1 n=e5 v=65
151808 Par ch=1 c=64 v=88
151868 Off ch=1 n=e6 v=0
151868 Par ch=1 c=64 v=72
151876 On ch=1 n=g#5 v=73
151880 Off ch=1 n=e5 v=0
151896 On ch=1 n=b4 v=62
151904 Par ch=1 c=64 v=56
151924 Par ch=1 c=64 v=40
151948 Par ch=1 c=64 v=24
151972 Off ch=1 n=b4 v=64
151976 On ch=1 n=f6 v=89
151976 On ch=1 n=f5 v=64
152000 Off ch=1 n=g#5 v=64
152008 Par ch=1 c=64 v=56
152052 Off ch=1 n=f5 v=0
152056 Par ch=1 c=64 v=72
152064 On ch=1 n=d5 v=60
152068 On ch=1 n=d6 v=77
152080 Off ch=1 n=f6 v=0
152132 Off ch=1 n=d5 v=0
152148 Off ch=1 n=d6 v=0
152148 On ch=1 n=e6 v=80
152156 On ch=1 n=e5 v=64
152224 Off ch=1 n=e6 v=0
152228 On ch=1 n=g#5 v=75
152232 Off ch=1 n=e5 v=0
152252 On ch=1 n=b4 v=67
152320 Off ch=1 n=g#5 v=0
152320 On ch=1 n=f6 v=86
152328 Off ch=1 n=b4 v=0
152328 On ch=1 n=f5 v=60
152388 Off ch=1 n=f5 v=0
152400 On ch=1 n=d5 v=55
152408 On ch=1 n=d6 v=79
152416 Off ch=1 n=f6 v=0
152476 Off ch=1 n=d5 v=0
152480 On ch=1 n=e5 v=68
152488 Off ch=1 n=d6 v=0
152492 On ch=1 n=e6 v=81
152568 Off ch=1 n=e5 v=0
152568 Off ch=1 n=e6 v=0
152568 On ch=1 n=g#5 v=73
152580 On ch=1 n=b4 v=68
152656 Off ch=1 n=b4 v=0
152656 On ch=1 n=f5 v=64
152660 On ch=1 n=f6 v=86
152668 Off ch=1 n=g#5 v=0
152724 Off ch=1 n=f5 v=0
152736 On ch=1 n=d5 v=59
152744 On ch=1 n=d6 v=82
152756 Off ch=1 n=f6 v=0
152772 Par ch=1 c=64 v=88
152808 Off ch=1 n=d5 v=0
152820 On ch=1 n=e5 v=68
152828 Off ch=1 n=d6 v=0
152836 On ch=1 n=e6 v=82
152908 Off ch=1 n=e6 v=0
152912 Off ch=1 n=e5 v=0
152912 On ch=1 n=g#5 v=78
152920 On ch=1 n=b4 v=69
152980 Off ch=1 n=b4 v=0
152996 Par ch=1 c=64 v=40
153000 Off ch=1 n=g#5 v=0
153004 On ch=1 n=f5 v=72
153008 On ch=1 n=f6 v=93
153008 Par ch=1 c=64 v=0
153080 Par ch=1 c=64 v=40
153092 Par ch=1 c=64 v=88
153096 Off ch=1 n=f5 v=0
153100 On ch=1 n=e5 v=75
153104 On ch=1 n=d6 v=82
153104 Par ch=1 c=64 v=127
153116 Off ch=1 n=f6 v=0
153168 Off ch=1 n=e5 v=0
153180 Off ch=1 n=d6 v=0
153188 On ch=1 n=d#5 v=57
153192 On ch=1 n=e6 v=78
153256 Off ch=1 n=d#5 v=0
153260 Off ch=1 n=e6 v=0
153268 On ch=1 n=g#5 v=71
153276 On ch=1 n=d5 v=63
153332 Off ch=1 n=d5 v=0
153356 On ch=1 n=c#5 v=68
153360 Off ch=1 n=g#5 v=0
153360 On ch=1 n=f6 v=82
153432 Off ch=1 n=c#5 v=0
153444 On ch=1 n=d6 v=75
153448 Off ch=1 n=f6 v=0
153448 On ch=1 n=c5 v=74
153512 Off ch=1 n=d6 v=64
153516 Off ch=1 n=c5 v=64
153532 On ch=1 n=e6 v=82
153544 On ch=1 n=b4 v=74
153608 Off ch=1 n=e6 v=0
153612 Off ch=1 n=b4 v=0
153616 On ch=1 n=g#5 v=75
153632 On ch=1 n=a#4 v=60
153704 Off ch=1 n=a#4 v=0
153712 On ch=1 n=f6 v=82
153720 Off ch=1 n=g#5 v=0
153724 On ch=1 n=a4 v=64
153776 Off ch=1 n=a4 v=0
153796 Off ch=1 n=f6 v=0
153800 On ch=1 n=d6 v=78
153800 On ch=1 n=g#4 v=67
153868 Off ch=1 n=d6 v=0
153868 Off ch=1 n=g#4 v=0
153888 On ch=1 n=e6 v=81
153892 On ch=1 n=g4 v=77
153952 Off ch=1 n=g4 v=0
153960 Off ch=1 n=e6 v=0
153968 On ch=1 n=g#5 v=76
153980 On ch=1 n=f#4 v=68
154040 Off ch=1 n=f#4 v=0
154060 Off ch=1 n=g#5 v=0
154064 On ch=1 n=f4 v=87
154068 On ch=1 n=f6 v=88
154144 Off ch=1 n=f4 v=0
154156 On ch=1 n=d6 v=84
154160 On ch=1 n=e4 v=87
154164 Off ch=1 n=f6 v=0
154228 Off ch=1 n=e4 v=0
154232 Off ch=1 n=d6 v=0
154244 On ch=1 n=e6 v=85
154244 On ch=1 n=d#4 v=83
154312 Off ch=1 n=e6 v=0
154312 Off ch=1 n=d#4 v=0
154324 On ch=1 n=g#5 v=81
154328 On ch=1 n=d4 v=84
154388 Off ch=1 n=d4 v=0
154416 Off ch=1 n=g#5 v=0
154416 On ch=1 n=f6 v=87
154416 On ch=1 n=c#4 v=81
154480 Off ch=1 n=c#4 v=0
154504 On ch=1 n=d6 v=88
154504 On ch=1 n=c4 v=84
154508 Off ch=1 n=f6 v=0
154576 Off ch=1 n=d6 v=0
154576 Off ch=1 n=c4 v=0
154592 On ch=1 n=b3 v=81
154592 On ch=1 n=e6 v=88
154660 Off ch=1 n=b3 v=0
154668 Off ch=1 n=e6 v=0
154672 On ch=1 n=a#3 v=73
154676 On ch=1 n=g#5 v=79
154736 Off ch=1 n=a#3 v=0
154760 On ch=1 n=a3 v=80
154768 On ch=1 n=f6 v=88
154784 Off ch=1 n=g#5 v=0
154820 Off ch=1 n=a3 v=0
154848 On ch=1 n=g#3 v=71
154860 Off ch=1 n=f6 v=0
154860 On ch=1 n=d6 v=81
154916 Off ch=1 n=g#3 v=0
154932 Off ch=1 n=d6 v=0
154944 On ch=1 n=g3 v=72
154948 On ch=1 n=e6 v=84
155004 Off ch=1 n=g3 v=0
155020 Off ch=1 n=e6 v=0
155024 On ch=1 n=f#3 v=68
155028 On ch=1 n=g#5 v=81
155092 Off ch=1 n=f#3 v=0
155116 Off ch=1 n=g#5 v=0
155116 On ch=1 n=f3 v=80
155124 On ch=1 n=f6 v=92
155184 Off ch=1 n=f3 v=0
155208 On ch=1 n=e3 v=75
155216 Off ch=1 n=f6 v=0
155216 On ch=1 n=d6 v=84
155292 Off ch=1 n=e3 v=0
155292 Off ch=1 n=d6 v=0
155300 On ch=1 n=d#3 v=82
155308 On ch=1 n=e6 v=87
155372 Off ch=1 n=d#3 v=0
155376 Off ch=1 n=e6 v=0
155384 On ch=1 n=g#5 v=80
155384 On ch=1 n=e3 v=86
155472 Off ch=1 n=e3 v=0
155476 On ch=1 n=f6 v=86
155480 On ch=1 n=f3 v=86
155496 Off ch=1 n=g#5 v=0
155564 On ch=1 n=d6 v=83
155568 Off ch=1 n=f3 v=0
155568 On ch=1 n=e3 v=86
155584 Off ch=1 n=f6 v=0
155648 On ch=1 n=e6 v=81
155656 Off ch=1 n=e3 v=0
155656 On ch=1 n=d#3 v=88
155664 Off ch=1 n=d6 v=0
155680 Off ch=1 n=e6 v=0
155732 Off ch=1 n=d#3 v=0
155732 On ch=1 n=g#6 v=92
155740 On ch=1 n=e3 v=94
155792 Off ch=1 n=g#6 v=0
155824 Off ch=1 n=e3 v=0
155824 On ch=1 n=f3 v=88
155832 On ch=1 n=f7 v=89
155892 Off ch=1 n=f3 v=0
155916 On ch=1 n=d7 v=90
155916 On ch=1 n=e3 v=88
155936 Off ch=1 n=f7 v=0
156004 On ch=1 n=e7 v=83
156004 On ch=1 n=d#3 v=86
156012 Off ch=1 n=e3 v=0
156020 Off ch=1 n=d7 v=0
156040 Off ch=1 n=e7 v=0
156072 Off ch=1 n=d#3 v=0
156092 On ch=1 n=g#7 v=97
156092 On ch=1 n=e3 v=89
156156 Off ch=1 n=g#7 v=0
156172 Off ch=1 n=e3 v=0
156184 On ch=1 n=f8 v=93
156184 On ch=1 n=f3 v=83
156252 Off ch=1 n=f3 v=0
156268 Off ch=1 n=f8 v=0
156272 On ch=1 n=d8 v=88
156272 On ch=1 n=e3 v=86
156336 Off ch=1 n=d8 v=0
156348 Off ch=1 n=e3 v=0
156368 On ch=1 n=d#3 v=82
156372 On ch=1 n=e8 v=97
156432 Off ch=1 n=e8 v=0
156436 Off ch=1 n=d#3 v=0
156452 On ch=1 n=g#7 v=89
156460 On ch=1 n=e3 v=88
156536 Off ch=1 n=e3 v=0
156540 Off ch=1 n=g#7 v=0
156548 On ch=1 n=f8 v=87
156556 On ch=1 n=f3 v=82
156624 Off ch=1 n=f3 v=0
156636 Off ch=1 n=f8 v=64
156652 On ch=1 n=d8 v=97
156652 On ch=1 n=e3 v=87
156724 Off ch=1 n=d8 v=0
156728 Off ch=1 n=e3 v=0
156748 On ch=1 n=e8 v=93
156748 On ch=1 n=d#3 v=85
156824 Off ch=1 n=d#3 v=0
156832 Off ch=1 n=e8 v=0
156848 On ch=1 n=g#7 v=95
156852 On ch=1 n=e3 v=93
156936 Off ch=1 n=e3 v=0
156944 Off ch=1 n=g#7 v=0
156956 On ch=1 n=f8 v=94
156956 On ch=1 n=f3 v=86
157032 Off ch=1 n=f3 v=0
157048 Off ch=1 n=f8 v=0
157060 On ch=1 n=e3 v=86
157064 On ch=1 n=d8 v=96
157144 Off ch=1 n=e3 v=0
157148 Off ch=1 n=d8 v=0
157164 On ch=1 n=d#3 v=77
157176 On ch=1 n=e8 v=99
157264 Off ch=1 n=d#3 v=0
157264 Off ch=1 n=e8 v=0
157288 On ch=1 n=g#7 v=102
157292 On ch=1 n=e3 v=83
157368 Off ch=1 n=g#7 v=0
157388 Off ch=1 n=e3 v=0
157452 Par ch=1 c=64 v=104
157464 Par ch=1 c=64 v=24
157476 Par ch=1 c=64 v=0
157484 On ch=1 n=a2 v=90
157484 On ch=1 n=f8 v=107
157492 Par ch=1 c=64 v=127
157576 Off ch=1 n=a2 v=0
157632 On ch=1 n=c8 v=90
157672 Off ch=1 n=f8 v=64
157720 Off ch=1 n=c8 v=64
157724 On ch=1 n=e8 v=84
157796 Off ch=1 n=e8 v=0
157812 On ch=1 n=a7 v=81
157900 On ch=1 n=d#8 v=76
157908 Off ch=1 n=a7 v=0
158000 On ch=1 n=c8 v=71
158012 Off ch=1 n=d#8 v=0
158064 Off ch=1 n=c8 v=0
158088 On ch=1 n=e5 v=84
158096 On ch=1 n=d8 v=92
158096 On ch=1 n=a4 v=68
158096 On ch=1 n=c5 v=74
158128 Par ch=1 c=64 v=104
158140 Par ch=1 c=64 v=88
158152 Par ch=1 c=64 v=127
158192 On ch=1 n=a7 v=82
158196 Off ch=1 n=d8 v=0
158272 Off ch=1 n=a7 v=0
158284 On ch=1 n=c#8 v=71
158356 Off ch=1 n=c5 v=0
158364 Off ch=1 n=a4 v=0
158376 On ch=1 n=a7 v=73
158380 Off ch=1 n=e5 v=0
158392 Off ch=1 n=c#8 v=0
158472 Off ch=1 n=a7 v=64
158476 On ch=1 n=c8 v=83
158560 Off ch=1 n=c8 v=0
158564 On ch=1 n=e7 v=79
158572 On ch=1 n=e5 v=85
158580 On ch=1 n=a4 v=66
158580 On ch=1 n=c5 v=71
158616 Off ch=1 n=c5 v=0
158620 Off ch=1 n=e5 v=0
158628 Off ch=1 n=a4 v=0
158656 Off ch=1 n=e7 v=0
158668 On ch=1 n=b7 v=100
158676 On ch=1 n=e5 v=82
158676 On ch=1 n=a4 v=74
158680 On ch=1 n=c5 v=73
158724 Par ch=1 c=64 v=72
158764 Par ch=1 c=64 v=127
158772 Off ch=1 n=b7 v=0
158776 On ch=1 n=e7 v=84
158876 Off ch=1 n=e7 v=0
158876 On ch=1 n=a#7 v=71
158940 Off ch=1 n=a4 v=0
158944 Off ch=1 n=c5 v=0
158964 Off ch=1 n=a#7 v=0
158964 On ch=1 n=c7 v=75
158988 Off ch=1 n=e5 v=0
159052 Off ch=1 n=c7 v=0
159064 On ch=1 n=a7 v=94
159156 On ch=1 n=e7 v=80
159164 Off ch=1 n=a7 v=0
159248 On ch=1 n=g#7 v=79
159248 On ch=1 n=f5 v=89
159260 On ch=1 n=a4 v=69
159260 On ch=1 n=c5 v=74
159264 Off ch=1 n=e7 v=64
159272 Par ch=1 c=64 v=88
159284 Par ch=1 c=64 v=0
159344 Off ch=1 n=g#7 v=0
159344 On ch=1 n=c7 v=77
159348 Par ch=1 c=64 v=72
159360 Par ch=1 c=64 v=127
159424 Off ch=1 n=c7 v=0
159440 On ch=1 n=g7 v=83
159532 Off ch=1 n=g7 v=0
159540 On ch=1 n=c7 v=69
159580 Off ch=1 n=a4 v=0
159592 Off ch=1 n=c5 v=0
159604 Off ch=1 n=f5 v=0
159608 Off ch=1 n=c7 v=0
159612 On ch=1 n=f#7 v=64
159688 Off ch=1 n=f#7 v=0
159712 On ch=1 n=a6 v=68
159804 Off ch=1 n=a6 v=0
159816 On ch=1 n=f7 v=87
159832 On ch=1 n=e5 v=82
159836 On ch=1 n=a4 v=66
159836 On ch=1 n=c5 v=68
159856 Par ch=1 c=64 v=56
159868 Par ch=1 c=64 v=0
159920 On ch=1 n=c7 v=73
159920 Par ch=1 c=64 v=72
159932 Par ch=1 c=64 v=127
159940 Off ch=1 n=f7 v=0
160008 On ch=1 n=e7 v=73
160012 Off ch=1 n=c7 v=64
160052 Off ch=1 n=c5 v=64
160080 Off ch=1 n=a4 v=64
160092 Off ch=1 n=e7 v=0
160112 On ch=1 n=a6 v=66
160192 On ch=1 n=d#7 v=64
160212 Off ch=1 n=a6 v=0
160284 On ch=1 n=c7 v=70
160308 Off ch=1 n=d#7 v=0
160316 Off ch=1 n=e5 v=64
160344 Off ch=1 n=c7 v=0
160372 On ch=1 n=c5 v=78
160376 On ch=1 n=d7 v=82
160376 On ch=1 n=a4 v=64
160388 On ch=1 n=e4 v=64
160412 Par ch=1 c=64 v=40
160424 Par ch=1 c=64 v=0
160464 Par ch=1 c=64 v=72
160472 On ch=1 n=a6 v=68
160476 Par ch=1 c=64 v=127
160480 Off ch=1 n=d7 v=0
160552 Off ch=1 n=a6 v=0
160564 On ch=1 n=c#7 v=68
160652 On ch=1 n=a6 v=68
160660 Off ch=1 n=c#7 v=0
160672 Off ch=1 n=a4 v=0
160716 Off ch=1 n=c5 v=64
160736 Off ch=1 n=a6 v=64
160744 On ch=1 n=c7 v=78
160828 Off ch=1 n=c7 v=0
160832 On ch=1 n=e6 v=69
160924 Off ch=1 n=e6 v=0
160932 On ch=1 n=b6 v=87
160932 On ch=1 n=e5 v=81
160940 On ch=1 n=c5 v=71
160948 Par ch=1 c=64 v=104
160952 On ch=1 n=a4 v=54
160960 Par ch=1 c=64 v=0
160964 Off ch=1 n=e4 v=64
161020 On ch=1 n=e6 v=74
161036 Off ch=1 n=b6 v=0
161036 Par ch=1 c=64 v=88
161048 Par ch=1 c=64 v=127
161116 On ch=1 n=a#6 v=65
161120 Off ch=1 n=e6 v=0
161132 Off ch=1 n=a4 v=0
161140 Off ch=1 n=c5 v=0
161168 Off ch=1 n=e5 v=0
161200 Off ch=1 n=a#6 v=0
161208 On ch=1 n=c6 v=60
161292 On ch=1 n=a6 v=76
161304 Off ch=1 n=c6 v=0
161388 On ch=1 n=e6 v=63
161392 Off ch=1 n=a6 v=0
161468 On ch=1 n=g#6 v=68
161476 Off ch=1 n=e6 v=0
161560 Off ch=1 n=g#6 v=64
161568 On ch=1 n=c6 v=67
161636 Off ch=1 n=c6 v=0
161652 On ch=1 n=g6 v=78
161736 Off ch=1 n=g6 v=0
161740 On ch=1 n=c6 v=70
161808 Off ch=1 n=c6 v=0
161820 On ch=1 n=f#6 v=64
161908 On ch=1 n=a5 v=58
161916 Off ch=1 n=f#6 v=0
162012 On ch=1 n=a2 v=93
162024 Off ch=1 n=a5 v=0
162024 On ch=1 n=f6 v=74
162052 Par ch=1 c=64 v=56
162064 Par ch=1 c=64 v=0
162124 On ch=1 n=c6 v=64
162128 Off ch=1 n=f6 v=0
162140 Par ch=1 c=64 v=104
162152 Par ch=1 c=64 v=127
162204 Off ch=1 n=c6 v=0
162208 On ch=1 n=e6 v=65
162244 Off ch=1 n=a2 v=0
162292 Off ch=1 n=e6 v=64
162308 On ch=1 n=a5 v=62
162396 Off ch=1 n=a5 v=0
162396 On ch=1 n=d#6 v=57
162476 On ch=1 n=c6 v=67
162488 Off ch=1 n=d#6 v=0
162544 Off ch=1 n=c6 v=0
162588 On ch=1 n=e4 v=88
162592 On ch=1 n=d6 v=77
162592 On ch=1 n=a3 v=80
162632 Par ch=1 c=64 v=40
162648 Par ch=1 c=64 v=0
162688 Par ch=1 c=64 v=56
162696 On ch=1 n=a5 v=70
162700 Par ch=1 c=64 v=127
162708 Off ch=1 n=d6 v=0
162792 Off ch=1 n=a5 v=0
162800 On ch=1 n=c#6 v=60
162888 Off ch=1 n=a3 v=0
162888 On ch=1 n=a5 v=70
162896 Off ch=1 n=e4 v=0
162904 Off ch=1 n=c#6 v=0
162972 Off ch=1 n=a5 v=0
162972 On ch=1 n=c6 v=77
163048 On ch=1 n=e4 v=84
163052 On ch=1 n=a3 v=82
163056 Off ch=1 n=c6 v=64
163060 On ch=1 n=e5 v=70
163104 Off ch=1 n=e4 v=0
163104 Off ch=1 n=a3 v=0
163148 Off ch=1 n=e5 v=0
163164 On ch=1 n=e4 v=94
163164 On ch=1 n=a3 v=82
163168 On ch=1 n=b5 v=82
163192 Par ch=1 c=64 v=104
163208 Par ch=1 c=64 v=24
163220 Par ch=1 c=64 v=0
163256 Off ch=1 n=b5 v=0
163256 Par ch=1 c=64 v=56
163260 On ch=1 n=e5 v=64
163268 Par ch=1 c=64 v=127
163344 On ch=1 n=a#5 v=65
163348 Off ch=1 n=e5 v=0
163428 Off ch=1 n=a#5 v=0
163436 On ch=1 n=c5 v=62
163492 Off ch=1 n=a3 v=0
163516 Off ch=1 n=e4 v=0
163528 Off ch=1 n=c5 v=0
163528 On ch=1 n=a5 v=74
163620 On ch=1 n=e5 v=64
163624 Off ch=1 n=a5 v=0
163704 Off ch=1 n=e5 v=0
163716 On ch=1 n=g#5 v=60
163720 On ch=1 n=f4 v=93
163720 On ch=1 n=a3 v=83
163768 Par ch=1 c=64 v=104
163776 Par ch=1 c=64 v=40
163792 Par ch=1 c=64 v=0
163824 Off ch=1 n=g#5 v=64
163824 On ch=1 n=c5 v=63
163844 Par ch=1 c=64 v=40
163852 Par ch=1 c=64 v=104
163868 Par ch=1 c=64 v=127
163900 Off ch=1 n=c5 v=0
163912 On ch=1 n=g5 v=73
164000 Off ch=1 n=g5 v=0
164004 On ch=1 n=c5 v=61
164072 Off ch=1 n=c5 v=0
164080 Off ch=1 n=a3 v=64
164084 On ch=1 n=f#5 v=55
164152 Off ch=1 n=f4 v=64
164168 Off ch=1 n=f#5 v=0
164188 On ch=1 n=a4 v=54
164288 On ch=1 n=e4 v=81
164292 Off ch=1 n=a4 v=0
164292 On ch=1 n=a3 v=78
164300 On ch=1 n=f5 v=69
164324 Par ch=1 c=64 v=104
164336 Par ch=1 c=64 v=0
164392 On ch=1 n=c5 v=58
164396 Off ch=1 n=f5 v=0
164412 Par ch=1 c=64 v=88
164424 Par ch=1 c=64 v=127
164476 Off ch=1 n=c5 v=0
164480 On ch=1 n=e5 v=63
164524 Off ch=1 n=e4 v=0
164544 Off ch=1 n=a3 v=0
164560 Off ch=1 n=e5 v=0
164584 On ch=1 n=a4 v=58
164676 On ch=1 n=d#5 v=62
164692 Off ch=1 n=a4 v=0
164768 On ch=1 n=c5 v=66
164776 Off ch=1 n=d#5 v=0
164840 Off ch=1 n=c5 v=0
164852 On ch=1 n=a2 v=80
164872 On ch=1 n=d5 v=67
164908 Par ch=1 c=64 v=88
164920 Par ch=1 c=64 v=0
164964 Off ch=1 n=d5 v=0
164980 On ch=1 n=a4 v=50
164984 Par ch=1 c=64 v=72
164996 Par ch=1 c=64 v=127
165052 Off ch=1 n=a4 v=0
165052 On ch=1 n=c#5 v=67
165148 On ch=1 n=a4 v=64
165156 Off ch=1 n=c#5 v=0
165228 Off ch=1 n=a4 v=0
165236 On ch=1 n=c5 v=74
165304 Off ch=1 n=c5 v=0
165316 On ch=1 n=e4 v=69
165380 Off ch=1 n=a2 v=64
165392 Off ch=1 n=e4 v=0
165408 On ch=1 n=b4 v=78
165416 Par ch=1 c=64 v=40
165420 On ch=1 n=e3 v=73
165428 Par ch=1 c=64 v=0
165480 Par ch=1 c=64 v=56
165492 Par ch=1 c=64 v=127
165504 Off ch=1 n=b4 v=0
165504 On ch=1 n=e4 v=60
165580 Off ch=1 n=e4 v=0
165596 On ch=1 n=a#4 v=63
165600 Off ch=1 n=e3 v=0
165676 On ch=1 n=c4 v=76
165684 Off ch=1 n=a#4 v=0
165776 Off ch=1 n=c4 v=0
165788 On ch=1 n=a4 v=74
165876 On ch=1 n=e4 v=64
165884 Off ch=1 n=a4 v=0
165944 Off ch=1 n=e4 v=0
165956 On ch=1 n=g#4 v=69
166060 On ch=1 n=c4 v=71
166064 Off ch=1 n=g#4 v=0
166136 Off ch=1 n=c4 v=64
166148 On ch=1 n=a4 v=68
166236 On ch=1 n=e4 v=67
166264 Off ch=1 n=a4 v=0
166296 Off ch=1 n=e4 v=0
166324 On ch=1 n=c5 v=70
166388 Off ch=1 n=c5 v=0
166412 On ch=1 n=f4 v=62
166444 Off ch=1 n=f4 v=0
166556 On ch=1 n=e5 v=83
166556 On ch=1 n=g#2 v=70
166572 Par ch=1 c=64 v=88
166584 Par ch=1 c=64 v=0
166672 Par ch=1 c=64 v=88
166680 On ch=1 n=b4 v=60
166688 Par ch=1 c=64 v=127
166748 Off ch=1 n=g#2 v=0
166748 Off ch=1 n=b4 v=0
166752 On ch=1 n=d5 v=70
166776 Off ch=1 n=e5 v=0
166788 Off ch=1 n=d5 v=0
166848 On ch=1 n=f5 v=75
166912 Off ch=1 n=f5 v=64
166944 On ch=1 n=e6 v=74
167040 On ch=1 n=b5 v=63
167096 Off ch=1 n=e6 v=0
167116 On ch=1 n=d5 v=85
167124 Off ch=1 n=b5 v=0
167124 On ch=1 n=d6 v=76
167124 On ch=1 n=f4 v=79
167172 Off ch=1 n=d6 v=0
167228 On ch=1 n=f6 v=86
167316 Off ch=1 n=f4 v=0
167328 Off ch=1 n=f6 v=0
167340 On ch=1 n=e7 v=82
167392 Off ch=1 n=d5 v=0
167432 On ch=1 n=b6 v=53
167440 Off ch=1 n=e7 v=0
167512 On ch=1 n=d7 v=70
167516 Off ch=1 n=b6 v=0
167576 On ch=1 n=d5 v=85
167588 On ch=1 n=f4 v=81
167592 Off ch=1 n=d7 v=0
167592 On ch=1 n=f6 v=79
167636 Off ch=1 n=d5 v=64
167648 Off ch=1 n=f4 v=64
167696 Off ch=1 n=f6 v=64
167708 On ch=1 n=d7 v=86
167708 On ch=1 n=c5 v=97
167712 On ch=1 n=f4 v=74
167740 Par ch=1 c=64 v=88
167752 Par ch=1 c=64 v=0
167808 On ch=1 n=a6 v=66
167816 Par ch=1 c=64 v=56
167828 Off ch=1 n=d7 v=0
167828 Par ch=1 c=64 v=127
167880 Off ch=1 n=c5 v=0
167900 Off ch=1 n=f4 v=0
167900 On ch=1 n=c7 v=69
167932 Off ch=1 n=a6 v=0
167980 On ch=1 n=f6 v=70
167984 Off ch=1 n=c7 v=0
168016 Off ch=1 n=f6 v=0
168088 On ch=1 n=d6 v=74
168188 On ch=1 n=a5 v=52
168208 Off ch=1 n=d6 v=0
168272 On ch=1 n=a3 v=90
168272 On ch=1 n=a2 v=74
168276 Off ch=1 n=a5 v=0
168280 On ch=1 n=c6 v=68
168324 Par ch=1 c=64 v=88
168336 Par ch=1 c=64 v=0
168360 On ch=1 n=f5 v=69
168368 Off ch=1 n=c6 v=0
168384 Par ch=1 c=64 v=56
168400 Par ch=1 c=64 v=127
168412 Off ch=1 n=f5 v=64
168480 On ch=1 n=d5 v=71
168552 On ch=1 n=a4 v=54
168584 Off ch=1 n=d5 v=0
168644 Off ch=1 n=a4 v=0
168652 On ch=1 n=c5 v=64
168668 Off ch=1 n=a3 v=64
168680 Off ch=1 n=a2 v=64
168728 Off ch=1 n=c5 v=0
168744 On ch=1 n=f4 v=70
168820 Off ch=1 n=f4 v=0
168860 On ch=1 n=g#3 v=86
168860 On ch=1 n=g#2 v=82
168860 On ch=1 n=e5 v=64
168956 Par ch=1 c=64 v=24
168972 On ch=1 n=b4 v=55
168972 Par ch=1 c=64 v=0
169000 Off ch=1 n=e5 v=0
169032 Par ch=1 c=64 v=56
169040 Off ch=1 n=b4 v=0
169048 On ch=1 n=d5 v=59
169048 Par ch=1 c=64 v=127
169080 Off ch=1 n=d5 v=0
169120 Off ch=1 n=g#2 v=0
169152 Off ch=1 n=g#3 v=0
169152 On ch=1 n=f5 v=70
169220 Off ch=1 n=f5 v=64
169248 On ch=1 n=e6 v=74
169336 On ch=1 n=b5 v=63
169412 Off ch=1 n=e6 v=0
169428 Off ch=1 n=b5 v=0
169428 On ch=1 n=d6 v=68
169428 Par ch=1 c=64 v=72
169440 On ch=1 n=g4 v=80
169440 Par ch=1 c=64 v=0
169444 On ch=1 n=d5 v=80
169460 Off ch=1 n=d6 v=0
169464 Par ch=1 c=64 v=40
169480 Par ch=1 c=64 v=88
169488 Par ch=1 c=64 v=127
169532 On ch=1 n=f6 v=82
169560 Off ch=1 n=g4 v=0
169560 Off ch=1 n=d5 v=0
169616 Off ch=1 n=f6 v=0
169636 On ch=1 n=d5 v=84
169636 On ch=1 n=e7 v=87
169640 On ch=1 n=f4 v=73
169732 On ch=1 n=b6 v=75
169736 Off ch=1 n=d5 v=0
169752 Off ch=1 n=f4 v=0
169760 Off ch=1 n=e7 v=0
169824 Off ch=1 n=b6 v=0
169824 On ch=1 n=d7 v=77
169828 On ch=1 n=d5 v=88
169836 On ch=1 n=e4 v=80
169904 Off ch=1 n=d7 v=0
169912 On ch=1 n=f6 v=71
169948 Off ch=1 n=d5 v=64
169952 Off ch=1 n=e4 v=64
170016 Off ch=1 n=f6 v=64
170024 On ch=1 n=d7 v=82
170032 On ch=1 n=e4 v=83
170032 On ch=1 n=c5 v=93
170076 Par ch=1 c=64 v=40
170088 Par ch=1 c=64 v=0
170132 On ch=1 n=a6 v=59
170148 Off ch=1 n=d7 v=0
170164 Par ch=1 c=64 v=72
170176 Par ch=1 c=64 v=127
170216 On ch=1 n=c7 v=67
170236 Off ch=1 n=c5 v=0
170248 Off ch=1 n=a6 v=0
170264 Off ch=1 n=e4 v=0
170300 Off ch=1 n=c7 v=0
170308 On ch=1 n=e6 v=68
170332 Off ch=1 n=e6 v=0
170408 On ch=1 n=d6 v=71
170500 On ch=1 n=a5 v=64
170520 Off ch=1 n=d6 v=0
170592 On ch=1 n=c6 v=70
170596 On ch=1 n=a3 v=92
170600 On ch=1 n=a2 v=76
170604 Off ch=1 n=a5 v=0
170636 Par ch=1 c=64 v=40
170648 Par ch=1 c=64 v=0
170684 Par ch=1 c=64 v=72
170688 Off ch=1 n=c6 v=0
170696 On ch=1 n=e5 v=74
170700 Par ch=1 c=64 v=127
170748 Off ch=1 n=e5 v=64
170820 On ch=1 n=d5 v=71
170928 On ch=1 n=a4 v=58
170936 Off ch=1 n=d5 v=0
170944 Off ch=1 n=a2 v=64
170984 Off ch=1 n=a3 v=64
171012 Off ch=1 n=a4 v=0
171020 On ch=1 n=c5 v=54
171096 On ch=1 n=b4 v=68
171108 Off ch=1 n=c5 v=0
171140 Off ch=1 n=b4 v=0
171228 On ch=1 n=b3 v=89
171228 On ch=1 n=b2 v=80
171256 On ch=1 n=a5 v=51
171256 Par ch=1 c=64 v=40
171268 Par ch=1 c=64 v=0
171324 Off ch=1 n=a5 v=0
171332 Par ch=1 c=64 v=56
171344 On ch=1 n=e5 v=65
171344 Par ch=1 c=64 v=127
171388 Off ch=1 n=b2 v=0
171416 Off ch=1 n=e5 v=0
171420 On ch=1 n=g#5 v=57
171424 Off ch=1 n=b3 v=0
171464 Off ch=1 n=g#5 v=64
171524 On ch=1 n=b5 v=75
171592 Off ch=1 n=b5 v=0
171612 On ch=1 n=a6 v=70
171696 On ch=1 n=e6 v=66
171736 Off ch=1 n=a6 v=0
171780 Off ch=1 n=e6 v=0
171780 On ch=1 n=g#6 v=69
171788 Par ch=1 c=64 v=104
171800 On ch=1 n=e5 v=81
171800 On ch=1 n=g#4 v=66
171804 Par ch=1 c=64 v=72
171808 On ch=1 n=b4 v=60
171812 Off ch=1 n=g#6 v=0
171816 Par ch=1 c=64 v=127
171880 On ch=1 n=b6 v=82
171940 Off ch=1 n=e5 v=0
171940 Off ch=1 n=g#4 v=0
171952 Off ch=1 n=b4 v=0
171984 On ch=1 n=a7 v=92
171992 On ch=1 n=g#5 v=84
172020 Off ch=1 n=b6 v=0
172052 Off ch=1 n=g#5 v=0
172084 On ch=1 n=e7 v=72
172092 Off ch=1 n=a7 v=0
172176 On ch=1 n=g#7 v=84
172176 On ch=1 n=c#6 v=97
172180 Off ch=1 n=e7 v=0
172236 Off ch=1 n=c#6 v=0
172248 Off ch=1 n=g#7 v=64
172264 On ch=1 n=b6 v=75
172380 On ch=1 n=b5 v=93
172384 On ch=1 n=a5 v=97
172384 On ch=1 n=b4 v=82
172388 On ch=1 n=d#5 v=79
172400 Par ch=1 c=64 v=104
172404 Off ch=1 n=b6 v=0
172404 On ch=1 n=g#7 v=84
172412 Par ch=1 c=64 v=0
172488 Par ch=1 c=64 v=56
172496 On ch=1 n=d#7 v=65
172500 Par ch=1 c=64 v=127
172524 Off ch=1 n=g#7 v=0
172588 On ch=1 n=f#7 v=63
172612 Off ch=1 n=b5 v=0
172612 Off ch=1 n=a5 v=0
172632 Off ch=1 n=b4 v=0
172636 Off ch=1 n=d#7 v=0
172648 Off ch=1 n=d#5 v=0
172668 Off ch=1 n=f#7 v=0
172668 On ch=1 n=b6 v=69
172712 Off ch=1 n=b6 v=0
172768 On ch=1 n=g#6 v=62
172860 On ch=1 n=d#6 v=64
172892 Off ch=1 n=g#6 v=0
172956 On ch=1 n=f#6 v=59
172964 Off ch=1 n=d#6 v=0
172964 On ch=1 n=b3 v=90
172964 On ch=1 n=b4 v=80
173044 Off ch=1 n=f#6 v=64
173052 On ch=1 n=b5 v=66
173096 Off ch=1 n=b5 v=0
173156 On ch=1 n=g#5 v=64
173232 On ch=1 n=d#5 v=53
173244 Off ch=1 n=b4 v=0
173248 Off ch=1 n=g#5 v=0
173260 Off ch=1 n=b3 v=64
173312 Off ch=1 n=d#5 v=0
173320 On ch=1 n=f#5 v=62
173392 Off ch=1 n=f#5 v=0
173404 On ch=1 n=b4 v=67
173488 Off ch=1 n=b4 v=0
173524 On ch=1 n=e3 v=86
173524 On ch=1 n=e4 v=75
173532 On ch=1 n=a5 v=79
173568 Par ch=1 c=64 v=104
173580 Par ch=1 c=64 v=24
173592 Par ch=1 c=64 v=0
173632 On ch=1 n=e5 v=63
173656 Par ch=1 c=64 v=56
173664 Off ch=1 n=a5 v=0
173668 Par ch=1 c=64 v=127
173704 On ch=1 n=g#5 v=57
173708 Off ch=1 n=e5 v=0
173752 Off ch=1 n=g#5 v=0
173764 Off ch=1 n=e3 v=0
173768 Off ch=1 n=e4 v=0
173820 On ch=1 n=b5 v=63
173888 Off ch=1 n=b5 v=0
173916 On ch=1 n=a6 v=66
173996 On ch=1 n=e6 v=68
174028 Off ch=1 n=a6 v=0
174076 On ch=1 n=g#6 v=71
174088 Off ch=1 n=e6 v=0
174112 On ch=1 n=g#5 v=80
174112 On ch=1 n=b4 v=74
174124 Off ch=1 n=g#6 v=0
174184 On ch=1 n=b6 v=87
174216 Off ch=1 n=g#5 v=0
174224 Off ch=1 n=b4 v=0
174284 On ch=1 n=a7 v=93
174292 On ch=1 n=g5 v=74
174304 On ch=1 n=a#4 v=62
174328 Off ch=1 n=b6 v=0
174372 Off ch=1 n=g5 v=0
174392 On ch=1 n=e7 v=67
174404 Off ch=1 n=a7 v=0
174412 Off ch=1 n=a#4 v=0
174480 On ch=1 n=g#5 v=88
174484 On ch=1 n=g#7 v=81
174484 On ch=1 n=b4 v=73
174500 Off ch=1 n=e7 v=0
174532 Off ch=1 n=g#5 v=0
174540 Off ch=1 n=b4 v=64
174548 Off ch=1 n=g#7 v=64
174568 On ch=1 n=b6 v=81
174608 Off ch=1 n=b6 v=0
174716 On ch=1 n=e8 v=102
174720 On ch=1 n=e5 v=99
174720 On ch=1 n=g#4 v=77
174724 On ch=1 n=e4 v=89
174724 Par ch=1 c=64 v=88
174736 Par ch=1 c=64 v=0
174812 Par ch=1 c=64 v=127
174824 Off ch=1 n=e4 v=0
174840 Off ch=1 n=e5 v=0
174844 Off ch=1 n=e8 v=0
174848 Off ch=1 n=g#4 v=0
175728 Par ch=1 c=64 v=104
175736 Par ch=1 c=64 v=40
175752 Par ch=1 c=64 v=0
175960 On ch=1 n=a2 v=96
175964 On ch=1 n=f8 v=103
175992 Par ch=1 c=64 v=127
176032 Off ch=1 n=a2 v=0
176084 On ch=1 n=c8 v=87
176124 Off ch=1 n=f8 v=64
176168 On ch=1 n=e8 v=85
176188 Off ch=1 n=c8 v=0
176252 Off ch=1 n=e8 v=0
176260 On ch=1 n=a7 v=79
176344 On ch=1 n=d#8 v=82
176360 Off ch=1 n=a7 v=0
176428 On ch=1 n=c8 v=73
176456 Off ch=1 n=d#8 v=0
176496 Off ch=1 n=c8 v=0
176528 On ch=1 n=e5 v=89
176532 On ch=1 n=d8 v=85
176532 On ch=1 n=a4 v=68
176532 On ch=1 n=c5 v=78
176624 On ch=1 n=a7 v=77
176636 Off ch=1 n=d8 v=0
176712 Off ch=1 n=a7 v=0
176728 On ch=1 n=c#8 v=69
176808 On ch=1 n=a7 v=72
176816 Off ch=1 n=a4 v=0
176820 Off ch=1 n=c5 v=0
176824 Off ch=1 n=e5 v=0
176832 Off ch=1 n=c#8 v=0
176908 Off ch=1 n=a7 v=64
176908 On ch=1 n=c8 v=76
176976 On ch=1 n=e5 v=85
176984 On ch=1 n=a4 v=68
176984 On ch=1 n=c5 v=70
176984 On ch=1 n=e7 v=64
177004 Off ch=1 n=c8 v=0
177012 Off ch=1 n=c5 v=0
177016 Off ch=1 n=e5 v=0
177016 Off ch=1 n=a4 v=0
177064 Off ch=1 n=e7 v=0
177072 On ch=1 n=e5 v=81
177072 On ch=1 n=a4 v=80
177076 On ch=1 n=c5 v=67
177080 On ch=1 n=b7 v=86
177108 Par ch=1 c=64 v=88
177120 Par ch=1 c=64 v=40
177136 Par ch=1 c=64 v=0
177148 Par ch=1 c=64 v=24
177160 Par ch=1 c=64 v=72
177164 On ch=1 n=e7 v=66
177172 Par ch=1 c=64 v=127
177180 Off ch=1 n=b7 v=0
177248 Off ch=1 n=e7 v=0
177260 On ch=1 n=a#7 v=68
177348 Off ch=1 n=a#7 v=0
177352 On ch=1 n=c7 v=66
177424 Off ch=1 n=a4 v=0
177432 Off ch=1 n=c5 v=0
177440 Off ch=1 n=c7 v=0
177444 Off ch=1 n=e5 v=0
177452 On ch=1 n=a7 v=82
177536 On ch=1 n=e7 v=60
177556 Off ch=1 n=a7 v=0
177636 On ch=1 n=f5 v=85
177640 On ch=1 n=g#7 v=75
177644 Off ch=1 n=e7 v=64
177648 On ch=1 n=c5 v=72
177648 On ch=1 n=a4 v=66
177680 Par ch=1 c=64 v=72
177692 Par ch=1 c=64 v=24
177708 Par ch=1 c=64 v=40
177720 Par ch=1 c=64 v=72
177732 On ch=1 n=c7 v=68
177732 Par ch=1 c=64 v=127
177740 Off ch=1 n=g#7 v=0
177812 Off ch=1 n=c7 v=0
177832 On ch=1 n=g7 v=83
177916 On ch=1 n=c7 v=63
177932 Off ch=1 n=g7 v=0
177956 Off ch=1 n=f5 v=0
177964 Off ch=1 n=a4 v=0
177968 Off ch=1 n=c5 v=0
177996 Off ch=1 n=c7 v=0
178012 On ch=1 n=f#7 v=67
178100 Off ch=1 n=f#7 v=0
178100 On ch=1 n=a6 v=60
178188 On ch=1 n=e5 v=82
178188 On ch=1 n=c5 v=70
178192 On ch=1 n=a4 v=62
178196 On ch=1 n=f7 v=83
178208 Off ch=1 n=a6 v=0
178216 Par ch=1 c=64 v=88
178228 Par ch=1 c=64 v=24
178240 Par ch=1 c=64 v=0
178264 Par ch=1 c=64 v=40
178276 Par ch=1 c=64 v=104
178292 On ch=1 n=c7 v=71
178292 Par ch=1 c=64 v=127
178304 Off ch=1 n=f7 v=0
178372 Off ch=1 n=c7 v=0
178380 On ch=1 n=e7 v=68
178400 Off ch=1 n=c5 v=64
178420 Off ch=1 n=a4 v=64
178460 Off ch=1 n=e7 v=64
178476 On ch=1 n=a6 v=65
178556 On ch=1 n=d#7 v=61
178576 Off ch=1 n=a6 v=0
178648 Off ch=1 n=e5 v=64
178652 On ch=1 n=c7 v=66
178664 Off ch=1 n=d#7 v=0
178712 Off ch=1 n=c7 v=0
178740 On ch=1 n=c5 v=75
178740 On ch=1 n=a4 v=64
178752 On ch=1 n=e4 v=64
178756 On ch=1 n=d7 v=82
178760 Par ch=1 c=64 v=72
178776 Par ch=1 c=64 v=0
178808 Par ch=1 c=64 v=40
178824 Par ch=1 c=64 v=88
178836 Par ch=1 c=64 v=127
178844 On ch=1 n=a6 v=64
178856 Off ch=1 n=d7 v=0
178928 Off ch=1 n=a6 v=0
178940 On ch=1 n=c#7 v=67
179028 On ch=1 n=a6 v=67
179036 Off ch=1 n=c#7 v=0
179040 Off ch=1 n=a4 v=0
179060 Off ch=1 n=c5 v=0
179112 Off ch=1 n=a6 v=0
179116 On ch=1 n=c7 v=80
179188 Off ch=1 n=c7 v=64
179196 On ch=1 n=e6 v=74
179272 Off ch=1 n=e6 v=0
179292 On ch=1 n=b6 v=86
179292 On ch=1 n=e5 v=89
179296 On ch=1 n=c5 v=80
179300 On ch=1 n=a4 v=62
179332 Par ch=1 c=64 v=104
179344 Par ch=1 c=64 v=40
179356 Off ch=1 n=e4 v=64
179356 Par ch=1 c=64 v=0
179368 Par ch=1 c=64 v=24
179376 On ch=1 n=e6 v=56
179384 Off ch=1 n=b6 v=0
179384 Par ch=1 c=64 v=56
179396 Par ch=1 c=64 v=127
179444 Off ch=1 n=e6 v=0
179452 On ch=1 n=a#6 v=61
179540 Off ch=1 n=a#6 v=0
179552 On ch=1 n=c6 v=59
179580 Off ch=1 n=a4 v=0
179584 Off ch=1 n=c5 v=0
179604 Off ch=1 n=e5 v=0
179640 Off ch=1 n=c6 v=0
179640 On ch=1 n=a6 v=68
179728 On ch=1 n=e6 v=58
179740 Off ch=1 n=a6 v=0
179808 Off ch=1 n=e6 v=0
179812 On ch=1 n=g#6 v=62
179904 Off ch=1 n=g#6 v=0
179908 On ch=1 n=c6 v=64
179980 Off ch=1 n=c6 v=64
179988 On ch=1 n=g6 v=74
180068 On ch=1 n=c6 v=64
180072 Off ch=1 n=g6 v=0
180144 Off ch=1 n=c6 v=0
180144 On ch=1 n=f#6 v=62
180236 Off ch=1 n=f#6 v=0
180240 On ch=1 n=a5 v=61
180340 Off ch=1 n=a5 v=0
180360 On ch=1 n=f6 v=82
180368 On ch=1 n=g2 v=64
180388 Par ch=1 c=64 v=40
180400 Par ch=1 c=64 v=0
180460 Off ch=1 n=f6 v=0
180460 On ch=1 n=c6 v=67
180464 Par ch=1 c=64 v=104
180476 Par ch=1 c=64 v=127
180532 Off ch=1 n=g2 v=0
180560 Off ch=1 n=c6 v=0
180564 On ch=1 n=e6 v=75
180648 On ch=1 n=a5 v=62
180652 Off ch=1 n=e6 v=0
180740 Off ch=1 n=a5 v=64
180744 On ch=1 n=d#6 v=71
180832 On ch=1 n=c6 v=54
180844 Off ch=1 n=d#6 v=0
180912 Off ch=1 n=c6 v=0
180912 On ch=1 n=e4 v=79
180920 On ch=1 n=d6 v=79
180920 On ch=1 n=g3 v=63
180920 Par ch=1 c=64 v=88
180932 Par ch=1 c=64 v=24
180968 Par ch=1 c=64 v=127
181004 On ch=1 n=a5 v=67
181012 Off ch=1 n=d6 v=0
181092 On ch=1 n=c#6 v=62
181100 Off ch=1 n=a5 v=0
181168 Off ch=1 n=g3 v=0
181176 On ch=1 n=a5 v=63
181184 Off ch=1 n=e4 v=0
181196 Off ch=1 n=c#6 v=0
181280 Off ch=1 n=a5 v=0
181296 On ch=1 n=c6 v=82
181300 On ch=1 n=e4 v=77
181308 On ch=1 n=g3 v=68
181356 Off ch=1 n=e4 v=0
181364 Off ch=1 n=g3 v=0
181376 Off ch=1 n=c6 v=0
181380 On ch=1 n=e5 v=74
181468 On ch=1 n=g3 v=60
181468 On ch=1 n=e4 v=72
181472 On ch=1 n=b5 v=78
181484 Off ch=1 n=e5 v=64
181492 Par ch=1 c=64 v=88
181504 Par ch=1 c=64 v=24
181516 Par ch=1 c=64 v=0
181528 Par ch=1 c=64 v=40
181540 Par ch=1 c=64 v=88
181556 On ch=1 n=e5 v=63
181556 Par ch=1 c=64 v=127
181560 Off ch=1 n=b5 v=0
181640 Off ch=1 n=e5 v=0
181664 On ch=1 n=a#5 v=67
181736 Off ch=1 n=a#5 v=0
181760 On ch=1 n=c5 v=72
181828 Off ch=1 n=c5 v=0
181856 On ch=1 n=a5 v=65
181884 Off ch=1 n=g3 v=0
181904 Off ch=1 n=e4 v=0
181932 Off ch=1 n=a5 v=0
181936 On ch=1 n=e5 v=67
182024 Off ch=1 n=e5 v=0
182032 On ch=1 n=g#5 v=69
182040 On ch=1 n=f4 v=79
182048 Par ch=1 c=64 v=104
182060 Par ch=1 c=64 v=24
182076 Par ch=1 c=64 v=0
182088 Par ch=1 c=64 v=56
182100 Par ch=1 c=64 v=104
182112 Par ch=1 c=64 v=127
182132 Off ch=1 n=g#5 v=0
182152 On ch=1 n=c5 v=57
182200 Off ch=1 n=c5 v=0
182236 On ch=1 n=g5 v=74
182316 Off ch=1 n=g5 v=0
182324 On ch=1 n=c5 v=49
182392 Off ch=1 n=f4 v=64
182420 Off ch=1 n=c5 v=0
182420 On ch=1 n=f#5 v=57
182496 On ch=1 n=a4 v=60
182504 Off ch=1 n=f#5 v=0
182576 Off ch=1 n=a4 v=0
182596 On ch=1 n=f5 v=74
182608 On ch=1 n=e4 v=74
182620 Par ch=1 c=64 v=88
182632 Par ch=1 c=64 v=24
182648 Par ch=1 c=64 v=0
182660 Par ch=1 c=64 v=24
182672 Par ch=1 c=64 v=72
182684 Par ch=1 c=64 v=127
182692 Off ch=1 n=f5 v=0
182692 On ch=1 n=c5 v=66
182768 On ch=1 n=e5 v=66
182772 Off ch=1 n=c5 v=0
182836 Off ch=1 n=e4 v=0
182848 Off ch=1 n=e5 v=0
182864 On ch=1 n=a4 v=61
182944 Off ch=1 n=a4 v=0
182952 On ch=1 n=d#5 v=59
183028 On ch=1 n=c5 v=63
183052 Off ch=1 n=d#5 v=64
183096 Off ch=1 n=c5 v=0
183132 On ch=1 n=d5 v=74
183136 On ch=1 n=c3 v=74
183156 Par ch=1 c=64 v=72
183168 Par ch=1 c=64 v=24
183204 Par ch=1 c=64 v=127
183216 Off ch=1 n=d5 v=0
183216 On ch=1 n=a4 v=60
183292 On ch=1 n=c#5 v=63
183312 Off ch=1 n=a4 v=0
183384 On ch=1 n=a4 v=62
183388 Off ch=1 n=c#5 v=0
183436 Off ch=1 n=c3 v=0
183464 Off ch=1 n=a4 v=0
183480 On ch=1 n=c5 v=68
183556 On ch=1 n=e4 v=59
183564 Off ch=1 n=c5 v=0
183640 Off ch=1 n=e4 v=0
183656 On ch=1 n=f2 v=72
183656 On ch=1 n=b4 v=77
183660 Par ch=1 c=64 v=104
183672 Par ch=1 c=64 v=24
183688 Par ch=1 c=64 v=0
183740 Par ch=1 c=64 v=72
183748 Par ch=1 c=64 v=127
183776 On ch=1 n=f4 v=60
183784 Off ch=1 n=b4 v=64
183864 Off ch=1 n=f4 v=0
183872 On ch=1 n=a4 v=74
183928 Off ch=1 n=f2 v=64
183948 Off ch=1 n=a4 v=0
183956 On ch=1 n=c4 v=64
184048 On ch=1 n=g#4 v=69
184068 Off ch=1 n=c4 v=0
184132 On ch=1 n=f4 v=59
184136 Off ch=1 n=g#4 v=0
184212 Off ch=1 n=f4 v=0
184216 On ch=1 n=a4 v=67
184216 On ch=1 n=e2 v=73
184292 Off ch=1 n=a4 v=0
184304 On ch=1 n=c4 v=70
184348 Off ch=1 n=e2 v=0
184392 On ch=1 n=b4 v=68
184396 Par ch=1 c=64 v=88
184412 Par ch=1 c=64 v=0
184420 Off ch=1 n=c4 v=0
184448 Par ch=1 c=64 v=40
184460 Par ch=1 c=64 v=104
184476 Par ch=1 c=64 v=127
184484 On ch=1 n=e4 v=57
184516 Off ch=1 n=b4 v=0
184572 Off ch=1 n=e4 v=64
184580 On ch=1 n=c5 v=74
184668 Off ch=1 n=c5 v=0
184668 On ch=1 n=c4 v=66
184732 Off ch=1 n=c4 v=0
184804 On ch=1 n=c5 v=82
184812 On ch=1 n=d3 v=71
184856 Par ch=1 c=64 v=72
184868 Par ch=1 c=64 v=127
184904 On ch=1 n=f4 v=74
184916 Off ch=1 n=c5 v=0
184976 Off ch=1 n=d3 v=0
184996 On ch=1 n=b4 v=68
185004 Off ch=1 n=f4 v=0
185040 Off ch=1 n=b4 v=0
185092 On ch=1 n=b4 v=74
185148 Off ch=1 n=b4 v=0
185200 On ch=1 n=c6 v=85
185292 On ch=1 n=f5 v=71
185316 Off ch=1 n=c6 v=0
185352 Par ch=1 c=64 v=88
185364 Par ch=1 c=64 v=56
185380 Off ch=1 n=f5 v=0
185380 On ch=1 n=a4 v=69
185380 Par ch=1 c=64 v=40
185384 On ch=1 n=b5 v=72
185384 On ch=1 n=f5 v=73
185404 Par ch=1 c=64 v=88
185408 Par ch=1 c=64 v=127
185416 Off ch=1 n=b5 v=0
185428 Off ch=1 n=f5 v=0
185432 Off ch=1 n=a4 v=0
185472 On ch=1 n=b5 v=79
185532 Off ch=1 n=b5 v=0
185576 On ch=1 n=c7 v=89
185576 On ch=1 n=c#4 v=71
185660 Off ch=1 n=c#4 v=0
185676 On ch=1 n=f6 v=80
185712 Off ch=1 n=c7 v=0
185732 On ch=1 n=d4 v=73
185756 Off ch=1 n=f6 v=0
185756 On ch=1 n=b6 v=79
185764 Off ch=1 n=d4 v=0
185788 Off ch=1 n=b6 v=0
185848 On ch=1 n=b6 v=82
185904 Off ch=1 n=b6 v=0
185912 On ch=1 n=d#4 v=71
185912 Par ch=1 c=64 v=40
185924 Par ch=1 c=64 v=0
185944 On ch=1 n=a4 v=70
185980 On ch=1 n=c8 v=99
185984 Off ch=1 n=d#4 v=0
185984 Par ch=1 c=64 v=88
185996 Par ch=1 c=64 v=127
186000 On ch=1 n=f#5 v=78
186024 Off ch=1 n=a4 v=0
186048 Off ch=1 n=f#5 v=0
186052 Off ch=1 n=c8 v=0
186080 On ch=1 n=f#7 v=85
186184 On ch=1 n=b7 v=88
186196 Off ch=1 n=f#7 v=0
186264 Off ch=1 n=b7 v=0
186288 On ch=1 n=b6 v=73
186340 Off ch=1 n=b6 v=0
186368 On ch=1 n=c7 v=84
186460 On ch=1 n=f#6 v=67
186492 Off ch=1 n=c7 v=0
186532 Off ch=1 n=f#6 v=0
186552 On ch=1 n=b6 v=85
186552 On ch=1 n=d#3 v=83
186628 Off ch=1 n=b6 v=0
186664 On ch=1 n=b5 v=53
186708 Off ch=1 n=b5 v=0
186744 On ch=1 n=c6 v=77
186844 On ch=1 n=f#5 v=67
186856 Off ch=1 n=c6 v=0
186936 Off ch=1 n=f#5 v=0
186936 On ch=1 n=b5 v=74
187004 On ch=1 n=b4 v=68
187008 Off ch=1 n=b5 v=0
187028 Off ch=1 n=b4 v=0
187052 On ch=1 n=f#5 v=32
187076 Off ch=1 n=d#3 v=0
187076 Off ch=1 n=f#5 v=0
187112 Par ch=1 c=64 v=104
187120 On ch=1 n=e3 v=81
187124 On ch=1 n=d6 v=83
187124 Par ch=1 c=64 v=24
187136 Par ch=1 c=64 v=0
187196 Par ch=1 c=64 v=72
187208 Par ch=1 c=64 v=127
187212 On ch=1 n=g5 v=78
187228 Off ch=1 n=d6 v=0
187240 Off ch=1 n=e3 v=0
187312 On ch=1 n=c#6 v=73
187316 Off ch=1 n=g5 v=0
187360 Off ch=1 n=c#6 v=0
187412 On ch=1 n=c#6 v=71
187460 Off ch=1 n=c#6 v=0
187524 On ch=1 n=d7 v=80
187600 On ch=1 n=g6 v=74
187624 Off ch=1 n=d7 v=0
187676 On ch=1 n=c#7 v=75
187688 Off ch=1 n=g6 v=0
187700 On ch=1 n=g5 v=82
187700 On ch=1 n=a#4 v=70
187720 Off ch=1 n=c#7 v=0
187736 Off ch=1 n=g5 v=0
187756 Off ch=1 n=a#4 v=0
187776 On ch=1 n=c#7 v=82
187840 Off ch=1 n=c#7 v=0
187884 On ch=1 n=d#4 v=61
187888 On ch=1 n=d8 v=88
187976 On ch=1 n=a#7 v=76
187984 Off ch=1 n=d8 v=0
187996 Off ch=1 n=d#4 v=0
188060 On ch=1 n=e4 v=83
188068 Off ch=1 n=a#7 v=0
188072 On ch=1 n=d8 v=89
188080 On ch=1 n=c#8 v=27
188104 Off ch=1 n=e4 v=0
188132 Off ch=1 n=d8 v=0
188136 Off ch=1 n=c#8 v=0
188156 On ch=1 n=c#7 v=80
188204 Par ch=1 c=64 v=56
188216 Off ch=1 n=c#7 v=0
188216 Par ch=1 c=64 v=0
188232 On ch=1 n=f4 v=75
188256 On ch=1 n=d5 v=61
188268 On ch=1 n=a#4 v=67
188280 Off ch=1 n=f4 v=0
188280 Par ch=1 c=64 v=72
188292 Par ch=1 c=64 v=127
188316 On ch=1 n=d#8 v=89
188320 On ch=1 n=a#5 v=84
188332 Off ch=1 n=a#4 v=0
188356 Off ch=1 n=d5 v=0
188360 Off ch=1 n=a#5 v=0
188400 Off ch=1 n=d#8 v=0
188412 On ch=1 n=a#7 v=71
188508 On ch=1 n=d8 v=77
188516 Off ch=1 n=a#7 v=0
188580 Off ch=1 n=d8 v=0
188612 On ch=1 n=e7 v=54
188632 Off ch=1 n=e7 v=0
188688 On ch=1 n=d#7 v=87
188752 Off ch=1 n=d#7 v=0
188788 On ch=1 n=a#6 v=74
188876 On ch=1 n=f3 v=82
188876 On ch=1 n=f4 v=80
188884 On ch=1 n=d7 v=88
188896 Off ch=1 n=a#6 v=0
188956 Off ch=1 n=d7 v=0
188988 On ch=1 n=d6 v=46
189012 Off ch=1 n=d6 v=0
189068 On ch=1 n=d#6 v=83
189120 Off ch=1 n=f4 v=0
189124 Off ch=1 n=f3 v=0
189124 Off ch=1 n=d#6 v=0
189156 On ch=1 n=a#5 v=76
189228 Off ch=1 n=a#5 v=0
189256 On ch=1 n=d6 v=82
189320 Off ch=1 n=d6 v=0
189336 On ch=1 n=d5 v=70
189400 Off ch=1 n=d5 v=0
189464 On ch=1 n=e6 v=87
189464 On ch=1 n=f3 v=89
189464 On ch=1 n=f2 v=79
189480 Par ch=1 c=64 v=56
189492 Par ch=1 c=64 v=0
189564 Par ch=1 c=64 v=56
189568 On ch=1 n=a5 v=80
189572 Off ch=1 n=e6 v=0
189576 Par ch=1 c=64 v=127
189656 On ch=1 n=d#6 v=75
189668 Off ch=1 n=f2 v=0
189684 Off ch=1 n=a5 v=0
189704 Off ch=1 n=f3 v=0
189748 Off ch=1 n=d#6 v=0
189748 On ch=1 n=d#5 v=78
189812 Off ch=1 n=d#5 v=0
189856 On ch=1 n=e6 v=86
189920 On ch=1 n=a5 v=59
189964 Off ch=1 n=e6 v=0
190012 On ch=1 n=d#6 v=71
190020 On ch=1 n=f4 v=83
190020 On ch=1 n=f5 v=90
190024 Off ch=1 n=a5 v=0
190068 Off ch=1 n=d#6 v=0
190120 On ch=1 n=d#6 v=81
190180 Off ch=1 n=d#6 v=0
190216 On ch=1 n=e7 v=84
190300 On ch=1 n=a6 v=75
190308 Off ch=1 n=f4 v=0
190312 Off ch=1 n=e7 v=0
190344 Off ch=1 n=f5 v=0
190380 On ch=1 n=d#7 v=71
190392 Off ch=1 n=a6 v=0
190428 Off ch=1 n=d#7 v=0
190464 On ch=1 n=f4 v=82
190464 On ch=1 n=f5 v=89
190468 On ch=1 n=d#7 v=85
190508 Off ch=1 n=f4 v=0
190508 Off ch=1 n=f5 v=0
190532 Off ch=1 n=d#7 v=0
190548 On ch=1 n=f5 v=89
190552 On ch=1 n=f4 v=85
190568 On ch=1 n=e8 v=94
190656 Off ch=1 n=e8 v=0
190664 On ch=1 n=a7 v=88
190760 On ch=1 n=d#8 v=79
190788 Off ch=1 n=a7 v=0
190840 Off ch=1 n=f4 v=0
190840 Off ch=1 n=d#8 v=0
190844 On ch=1 n=d#7 v=80
190884 Off ch=1 n=d#7 v=0
190900 Off ch=1 n=f5 v=0
190932 On ch=1 n=e7 v=89
190996 Off ch=1 n=e7 v=0
191028 On ch=1 n=a6 v=81
191104 Off ch=1 n=a6 v=0
191108 On ch=1 n=g5 v=95
191112 On ch=1 n=g4 v=86
191116 On ch=1 n=d#7 v=80
191200 Off ch=1 n=d#7 v=0
191212 On ch=1 n=d#6 v=87
191276 Off ch=1 n=d#6 v=0
191316 On ch=1 n=e7 v=84
191368 Off ch=1 n=g5 v=0
191388 Off ch=1 n=g4 v=0
191396 Off ch=1 n=e7 v=0
191400 On ch=1 n=a6 v=74
191480 On ch=1 n=d#7 v=72
191492 Off ch=1 n=a6 v=0
191532 Off ch=1 n=d#7 v=0
191572 On ch=1 n=d#7 v=81
191636 Off ch=1 n=d#7 v=0
191668 On ch=1 n=f5 v=89
191668 Par ch=1 c=64 v=104
191672 On ch=1 n=f4 v=84
191676 On ch=1 n=e8 v=93
191680 Par ch=1 c=64 v=40
191692 Par ch=1 c=64 v=24
191704 Par ch=1 c=64 v=56
191716 Par ch=1 c=64 v=127
191756 Off ch=1 n=e8 v=0
191776 On ch=1 n=a7 v=88
191812 Off ch=1 n=f5 v=0
191844 Off ch=1 n=f4 v=0
191872 On ch=1 n=d#8 v=81
191896 Off ch=1 n=a7 v=0
191956 Off ch=1 n=d#8 v=0
191956 On ch=1 n=d#7 v=79
192004 Off ch=1 n=d#7 v=0
192052 On ch=1 n=e7 v=85
192128 Off ch=1 n=e7 v=0
192140 On ch=1 n=a6 v=79
192216 Off ch=1 n=a6 v=0
192220 On ch=1 n=c5 v=89
192224 On ch=1 n=c4 v=82
192236 On ch=1 n=d#7 v=80
192312 Off ch=1 n=c4 v=0
192316 Off ch=1 n=d#7 v=0
192316 On ch=1 n=d#6 v=82
192324 Off ch=1 n=c5 v=0
192412 Off ch=1 n=d#6 v=0
192424 On ch=1 n=e7 v=83
192516 On ch=1 n=a6 v=67
192524 Off ch=1 n=e7 v=0
192584 On ch=1 n=d#7 v=72
192596 Off ch=1 n=a6 v=0
192636 Off ch=1 n=d#7 v=0
192676 On ch=1 n=d#7 v=74
192744 Off ch=1 n=d#7 v=0
192780 On ch=1 n=e8 v=96
192780 On ch=1 n=f5 v=91
192780 On ch=1 n=f4 v=84
192808 Par ch=1 c=64 v=104
192820 Par ch=1 c=64 v=24
192832 Par ch=1 c=64 v=0
192872 On ch=1 n=a7 v=85
192880 Par ch=1 c=64 v=40
192888 Off ch=1 n=e8 v=0
192892 Par ch=1 c=64 v=127
192968 On ch=1 n=d#8 v=75
192972 Off ch=1 n=f4 v=0
192980 Off ch=1 n=a7 v=0
193012 Off ch=1 n=f5 v=0
193040 Off ch=1 n=d#8 v=0
193040 On ch=1 n=d#7 v=77
193116 Off ch=1 n=d#7 v=0
193136 On ch=1 n=e8 v=92
193224 On ch=1 n=a7 v=74
193228 Off ch=1 n=e8 v=0
193300 Off ch=1 n=a7 v=0
193312 On ch=1 n=d#8 v=84
193396 On ch=1 n=d#7 v=75
193412 Off ch=1 n=d#8 v=0
193472 Off ch=1 n=d#7 v=0
193480 On ch=1 n=e8 v=97
193572 On ch=1 n=a7 v=79
193584 Off ch=1 n=e8 v=0
193664 On ch=1 n=d#8 v=85
193668 Off ch=1 n=a7 v=0
193740 Off ch=1 n=d#8 v=0
193748 On ch=1 n=d#7 v=61
193820 Off ch=1 n=d#7 v=0
193840 Par ch=1 c=64 v=88
193852 Par ch=1 c=64 v=0
193860 On ch=1 n=f3 v=47
193876 On ch=1 n=e8 v=70
193912 Par ch=1 c=64 v=72
193924 Par ch=1 c=64 v=127
193956 Off ch=1 n=f3 v=0
193964 On ch=1 n=b3 v=49
193968 Off ch=1 n=e8 v=0
193980 On ch=1 n=b7 v=63
194040 Off ch=1 n=b3 v=0
194060 Off ch=1 n=b7 v=0
194064 On ch=1 n=a3 v=46
194064 On ch=1 n=d#8 v=60
194096 Off ch=1 n=a3 v=0
194136 On ch=1 n=d#4 v=38
194156 Off ch=1 n=d#8 v=0
194156 On ch=1 n=a7 v=64
194192 Off ch=1 n=d#4 v=0
194224 Off ch=1 n=a7 v=0
194240 On ch=1 n=a3 v=56
194252 On ch=1 n=e8 v=76
194320 Off ch=1 n=a3 v=0
194324 On ch=1 n=d#4 v=57
194336 Off ch=1 n=e8 v=0
194344 On ch=1 n=b7 v=71
194420 Off ch=1 n=b7 v=0
194432 On ch=1 n=d#8 v=71
194436 On ch=1 n=b3 v=56
194440 Off ch=1 n=d#4 v=0
194496 Off ch=1 n=b3 v=0
194520 Off ch=1 n=d#8 v=0
194528 On ch=1 n=a7 v=72
194528 On ch=1 n=f4 v=44
194560 Off ch=1 n=f4 v=0
194600 Off ch=1 n=a7 v=0
194616 On ch=1 n=b3 v=52
194624 On ch=1 n=e8 v=81
194688 On ch=1 n=f4 v=55
194692 Off ch=1 n=b3 v=0
194712 Off ch=1 n=e8 v=0
194712 On ch=1 n=b7 v=77
194780 On ch=1 n=d#4 v=54
194796 Off ch=1 n=f4 v=0
194800 Off ch=1 n=b7 v=0
194804 On ch=1 n=d#8 v=76
194852 Off ch=1 n=d#4 v=0
194864 On ch=1 n=a4 v=51
194892 On ch=1 n=a7 v=70
194896 Off ch=1 n=d#8 v=0
194936 Off ch=1 n=a4 v=0
194964 Off ch=1 n=a7 v=0
194964 On ch=1 n=d#4 v=58
194968 Par ch=1 c=64 v=88
194980 Par ch=1 c=64 v=24
194988 On ch=1 n=e8 v=89
194992 Par ch=1 c=64 v=56
195004 Par ch=1 c=64 v=104
195016 Par ch=1 c=64 v=127
195068 On ch=1 n=a4 v=58
195080 Off ch=1 n=d#4 v=0
195080 On ch=1 n=b7 v=78
195088 Off ch=1 n=e8 v=0
195168 On ch=1 n=d#8 v=77
195168 On ch=1 n=f4 v=63
195180 Off ch=1 n=a4 v=0
195184 Off ch=1 n=b7 v=0
195236 Off ch=1 n=f4 v=0
195256 On ch=1 n=a7 v=75
195256 On ch=1 n=b4 v=46
195260 Off ch=1 n=d#8 v=0
195324 Off ch=1 n=b4 v=0
195332 Off ch=1 n=a7 v=0
195344 On ch=1 n=e8 v=88
195356 On ch=1 n=f4 v=63
195432 Off ch=1 n=e8 v=0
195436 On ch=1 n=b7 v=85
195448 On ch=1 n=b4 v=63
195452 Off ch=1 n=f4 v=0
195528 On ch=1 n=d#8 v=87
195532 Off ch=1 n=b7 v=0
195540 On ch=1 n=a4 v=69
195556 Off ch=1 n=b4 v=0
195556 On ch=1 n=c#8 v=32
195576 Off ch=1 n=c#8 v=0
195604 Off ch=1 n=a4 v=0
195620 On ch=1 n=a7 v=84
195620 On ch=1 n=d#5 v=67
195632 Off ch=1 n=d#8 v=0
195680 Off ch=1 n=d#5 v=0
195696 Off ch=1 n=a7 v=0
195708 On ch=1 n=e8 v=93
195716 On ch=1 n=a4 v=60
195800 On ch=1 n=d#5 v=56
195804 Off ch=1 n=e8 v=0
195804 On ch=1 n=b7 v=86
195808 Off ch=1 n=a4 v=0
195888 On ch=1 n=d#8 v=84
195892 On ch=1 n=b4 v=60
195900 Off ch=1 n=b7 v=0
195916 On ch=1 n=c#8 v=27
195920 Off ch=1 n=d#5 v=0
195936 Off ch=1 n=c#8 v=0
195964 Off ch=1 n=b4 v=0
195976 On ch=1 n=a7 v=84
195980 On ch=1 n=f5 v=51
195992 Off ch=1 n=d#8 v=0
196036 Off ch=1 n=f5 v=0
196056 Off ch=1 n=a7 v=0
196068 On ch=1 n=e8 v=100
196072 On ch=1 n=b4 v=66
196156 On ch=1 n=f5 v=38
196160 On ch=1 n=b7 v=85
196168 Off ch=1 n=b4 v=0
196180 Off ch=1 n=e8 v=0
196240 On ch=1 n=d#5 v=50
196248 On ch=1 n=d#8 v=85
196264 Off ch=1 n=b7 v=0
196280 Off ch=1 n=f5 v=0
196312 Off ch=1 n=d#5 v=0
196312 On ch=1 n=a5 v=61
196340 On ch=1 n=a7 v=82
196356 Off ch=1 n=d#8 v=0
196376 Off ch=1 n=a5 v=0
196404 On ch=1 n=d#5 v=54
196420 Off ch=1 n=a7 v=0
196428 On ch=1 n=e8 v=97
196508 On ch=1 n=a5 v=66
196520 On ch=1 n=b7 v=89
196532 Off ch=1 n=e8 v=0
196556 Off ch=1 n=d#5 v=0
196604 On ch=1 n=d#8 v=88
196608 On ch=1 n=f5 v=61
196624 Off ch=1 n=b7 v=0
196632 On ch=1 n=c#8 v=37
196640 Off ch=1 n=a5 v=0
196652 Off ch=1 n=c#8 v=0
196680 Off ch=1 n=f5 v=0
196692 On ch=1 n=a7 v=90
196692 On ch=1 n=b5 v=63
196712 Off ch=1 n=d#8 v=0
196752 Off ch=1 n=b5 v=0
196764 Off ch=1 n=a7 v=0
196776 On ch=1 n=e8 v=93
196780 On ch=1 n=f5 v=55
196860 On ch=1 n=b5 v=66
196868 On ch=1 n=b7 v=93
196880 Off ch=1 n=e8 v=0
196880 Off ch=1 n=f5 v=0
196952 On ch=1 n=d#8 v=87
196960 Off ch=1 n=b7 v=0
196964 On ch=1 n=a5 v=65
196976 On ch=1 n=c#8 v=36
196988 Off ch=1 n=b5 v=0
196996 Off ch=1 n=c#8 v=0
197020 Off ch=1 n=a5 v=0
197036 On ch=1 n=d#6 v=65
197036 On ch=1 n=a7 v=87
197056 Off ch=1 n=d#8 v=0
197092 Off ch=1 n=d#6 v=0
197104 Off ch=1 n=a7 v=0
197124 On ch=1 n=e8 v=105
197124 On ch=1 n=a5 v=71
197208 On ch=1 n=d#6 v=60
197220 On ch=1 n=b7 v=93
197228 Off ch=1 n=e8 v=0
197228 Off ch=1 n=a5 v=0
197300 On ch=1 n=d#8 v=85
197300 On ch=1 n=b5 v=69
197308 Off ch=1 n=b7 v=0
197336 Off ch=1 n=d#6 v=0
197372 Off ch=1 n=b5 v=0
197384 On ch=1 n=a7 v=90
197388 On ch=1 n=f6 v=71
197412 Off ch=1 n=d#8 v=0
197444 Off ch=1 n=f6 v=0
197460 Off ch=1 n=a7 v=0
197472 On ch=1 n=b5 v=62
197472 On ch=1 n=e8 v=99
197556 On ch=1 n=f6 v=68
197564 On ch=1 n=b7 v=90
197568 Off ch=1 n=b5 v=0
197576 Off ch=1 n=e8 v=0
197644 On ch=1 n=d#8 v=82
197652 On ch=1 n=d#6 v=61
197656 Off ch=1 n=b7 v=0
197668 On ch=1 n=c#8 v=44
197684 Off ch=1 n=f6 v=0
197692 Off ch=1 n=c#8 v=0
197728 Off ch=1 n=d#6 v=0
197740 On ch=1 n=a7 v=89
197744 On ch=1 n=a6 v=66
197772 Off ch=1 n=d#8 v=0
197800 Off ch=1 n=a6 v=0
197816 Off ch=1 n=a7 v=0
197824 On ch=1 n=d#6 v=58
197828 On ch=1 n=e8 v=99
197920 On ch=1 n=b7 v=94
197924 On ch=1 n=a6 v=71
197932 Off ch=1 n=e8 v=0
197952 Off ch=1 n=d#6 v=0
198004 Off ch=1 n=a6 v=0
198012 On ch=1 n=d#8 v=90
198024 Off ch=1 n=b7 v=0
198024 On ch=1 n=f6 v=74
198028 On ch=1 n=c#8 v=57
198052 Off ch=1 n=c#8 v=0
198088 Off ch=1 n=f6 v=0
198088 On ch=1 n=b6 v=68
198096 Off ch=1 n=d#8 v=0
198096 On ch=1 n=a7 v=94
198108 Off ch=1 n=b6 v=0
198172 Off ch=1 n=a7 v=0
198252 On ch=1 n=f8 v=107
198260 Par ch=1 c=64 v=88
198264 On ch=1 n=e5 v=73
198268 On ch=1 n=c6 v=89
198272 On ch=1 n=e6 v=96
198272 Par ch=1 c=64 v=0
198276 On ch=1 n=a5 v=82
198344 Par ch=1 c=64 v=72
198356 Par ch=1 c=64 v=127
198380 On ch=1 n=c8 v=90
198412 Off ch=1 n=e5 v=0
198420 Off ch=1 n=f8 v=0
198428 Off ch=1 n=a5 v=0
198440 Off ch=1 n=c6 v=0
198452 Off ch=1 n=e6 v=0
198472 On ch=1 n=e8 v=86
198488 Off ch=1 n=c8 v=0
198556 Off ch=1 n=e8 v=0
198560 On ch=1 n=a7 v=85
198628 Off ch=1 n=a7 v=0
198660 On ch=1 n=d8 v=94
198660 On ch=1 n=d7 v=72
198732 Off ch=1 n=d7 v=0
198760 Off ch=1 n=d8 v=0
198764 On ch=1 n=a7 v=87
198764 On ch=1 n=a6 v=63
198824 Off ch=1 n=a6 v=0
198844 On ch=1 n=c8 v=80
198844 On ch=1 n=c7 v=74
198852 Off ch=1 n=a7 v=0
198900 Off ch=1 n=c7 v=0
198928 Off ch=1 n=c8 v=0
198936 On ch=1 n=e7 v=75
198936 On ch=1 n=e6 v=66
198996 Off ch=1 n=e7 v=0
198996 Off ch=1 n=e6 v=0
199020 On ch=1 n=b7 v=96
199020 On ch=1 n=b6 v=74
199080 Off ch=1 n=b6 v=0
199108 Off ch=1 n=b7 v=0
199116 On ch=1 n=e7 v=86
199116 On ch=1 n=e6 v=68
199188 Off ch=1 n=e6 v=0
199208 On ch=1 n=a7 v=87
199208 On ch=1 n=a6 v=71
199232 Off ch=1 n=e7 v=0
199276 Off ch=1 n=a6 v=0
199288 Off ch=1 n=a7 v=0
199292 On ch=1 n=c7 v=83
199292 On ch=1 n=c6 v=81
199340 Off ch=1 n=c6 v=0
199344 Off ch=1 n=c7 v=0
199388 On ch=1 n=f6 v=74
199388 On ch=1 n=f7 v=94
199456 Off ch=1 n=f6 v=0
199472 Off ch=1 n=f7 v=0
199476 On ch=1 n=c7 v=89
199476 On ch=1 n=c6 v=65
199544 Off ch=1 n=c6 v=0
199568 On ch=1 n=e7 v=81
199568 On ch=1 n=e6 v=68
199576 Off ch=1 n=c7 v=0
199640 Off ch=1 n=e6 v=0
199652 Off ch=1 n=e7 v=0
199668 On ch=1 n=a6 v=69
199668 On ch=1 n=a5 v=61
199688 Off ch=1 n=a6 v=0
199732 Off ch=1 n=a5 v=0
199744 On ch=1 n=d7 v=96
199744 On ch=1 n=d6 v=70
199820 Off ch=1 n=d6 v=0
199832 On ch=1 n=a6 v=84
199832 On ch=1 n=a5 v=55
199848 Off ch=1 n=d7 v=0
199908 Off ch=1 n=a5 v=0
199908 On ch=1 n=c7 v=79
199908 On ch=1 n=c6 v=73
199932 Off ch=1 n=a6 v=0
199972 Off ch=1 n=c6 v=0
199988 Off ch=1 n=c7 v=0
199992 On ch=1 n=e6 v=83
199992 On ch=1 n=e5 v=47
200040 Off ch=1 n=e5 v=0
200060 Off ch=1 n=e6 v=0
200072 On ch=1 n=b6 v=96
200072 On ch=1 n=b5 v=67
200136 Off ch=1 n=b5 v=0
200172 Off ch=1 n=b6 v=0
200172 On ch=1 n=e6 v=88
200172 On ch=1 n=e5 v=63
200252 Off ch=1 n=e5 v=0
200264 On ch=1 n=a6 v=79
200264 On ch=1 n=a5 v=60
200284 Off ch=1 n=e6 v=0
200332 Off ch=1 n=a5 v=0
200348 On ch=1 n=c6 v=87
200348 On ch=1 n=c5 v=70
200352 Off ch=1 n=a6 v=0
200404 Off ch=1 n=c5 v=0
200408 Off ch=1 n=c6 v=0
200444 On ch=1 n=f5 v=69
200444 On ch=1 n=f6 v=96
200528 Off ch=1 n=f5 v=0
200532 On ch=1 n=c6 v=89
200532 On ch=1 n=c5 v=59
200548 Off ch=1 n=f6 v=0
200604 Off ch=1 n=c5 v=0
200620 On ch=1 n=e6 v=83
200620 On ch=1 n=e5 v=68
200628 Off ch=1 n=c6 v=0
200684 Off ch=1 n=e5 v=0
200700 Off ch=1 n=e6 v=0
200700 On ch=1 n=a5 v=74
200700 On ch=1 n=a4 v=63
200764 Off ch=1 n=a5 v=0
200764 Off ch=1 n=a4 v=0
200788 On ch=1 n=d6 v=99
200788 On ch=1 n=d5 v=65
200856 Off ch=1 n=d5 v=0
200880 On ch=1 n=a5 v=78
200880 On ch=1 n=a4 v=62
200888 Off ch=1 n=d6 v=0
200944 Off ch=1 n=a4 v=0
200952 On ch=1 n=c6 v=81
200952 On ch=1 n=c5 v=72
200980 Off ch=1 n=a5 v=0
201016 Off ch=1 n=c5 v=0
201040 Off ch=1 n=c6 v=0
201044 On ch=1 n=e5 v=82
201044 On ch=1 n=e4 v=59
201092 Off ch=1 n=e4 v=0
201124 Off ch=1 n=e5 v=0
201136 On ch=1 n=b5 v=90
201136 On ch=1 n=b4 v=58
201196 Off ch=1 n=b4 v=0
201224 On ch=1 n=e5 v=85
201224 On ch=1 n=e4 v=63
201236 Off ch=1 n=b5 v=0
201308 On ch=1 n=a5 v=74
201308 On ch=1 n=a4 v=68
201312 Off ch=1 n=e4 v=0
201332 Off ch=1 n=e5 v=0
201400 Off ch=1 n=a4 v=0
201404 Off ch=1 n=a5 v=0
201404 On ch=1 n=c5 v=86
201404 On ch=1 n=c4 v=77
201432 Off ch=1 n=c4 v=0
201480 Off ch=1 n=c5 v=0
201536 On ch=1 n=b5 v=90
201552 On ch=1 n=b4 v=87
201552 On ch=1 n=e5 v=84
201552 On ch=1 n=a5 v=80
201556 On ch=1 n=e4 v=87
201560 On ch=1 n=e3 v=85
201600 Par ch=1 c=64 v=72
201612 Par ch=1 c=64 v=0
201708 Par ch=1 c=64 v=72
201720 Par ch=1 c=64 v=127
201764 Off ch=1 n=b4 v=0
201776 Off ch=1 n=e4 v=0
201784 Off ch=1 n=e5 v=0
201800 Off ch=1 n=e3 v=0
201812 Off ch=1 n=a5 v=0
201828 Off ch=1 n=b5 v=0
202192 On ch=1 n=e6 v=107
202200 On ch=1 n=g#5 v=79
202200 On ch=1 n=d5 v=89
202200 On ch=1 n=e5 v=89
202200 On ch=1 n=b5 v=89
202204 On ch=1 n=e2 v=82
202204 On ch=1 n=e3 v=93
202204 Par ch=1 c=64 v=104
202220 Par ch=1 c=64 v=24
202232 Par ch=1 c=64 v=0
202272 Off ch=1 n=e2 v=0
202292 Par ch=1 c=64 v=56
202300 Off ch=1 n=e3 v=0
202304 Par ch=1 c=64 v=127
202312 Off ch=1 n=d5 v=0
202312 Off ch=1 n=e5 v=0
202328 Off ch=1 n=g#5 v=0
202332 Off ch=1 n=b5 v=0
202344 Off ch=1 n=e6 v=0
202772 On ch=1 n=a2 v=93
202772 On ch=1 n=a7 v=112
202796 Par ch=1 c=64 v=72
202812 Par ch=1 c=64 v=127
202896 On ch=1 n=e7 v=86
202920 Off ch=1 n=a2 v=0
202932 Off ch=1 n=a7 v=0
202932 On ch=1 n=e3 v=63
202976 On ch=1 n=g#7 v=83
202992 Off ch=1 n=e7 v=0
203044 Off ch=1 n=e3 v=0
203060 On ch=1 n=c4 v=63
203064 On ch=1 n=c7 v=80
203072 Off ch=1 n=g#7 v=0
203120 Off ch=1 n=c4 v=0
203148 Off ch=1 n=c7 v=0
203156 On ch=1 n=g7 v=89
203176 On ch=1 n=e3 v=62
203236 On ch=1 n=e7 v=86
203260 Off ch=1 n=g7 v=0
203316 Off ch=1 n=e3 v=0
203316 Off ch=1 n=e7 v=0
203316 On ch=1 n=f#7 v=87
203324 On ch=1 n=a2 v=86
203408 On ch=1 n=c7 v=84
203424 Off ch=1 n=f#7 v=0
203428 Off ch=1 n=a2 v=0
203460 On ch=1 n=e3 v=66
203484 Off ch=1 n=c7 v=0
203484 On ch=1 n=f7 v=89
203552 Off ch=1 n=e3 v=0
203572 On ch=1 n=c7 v=82
203584 On ch=1 n=c4 v=63
203588 Off ch=1 n=f7 v=0
203648 Off ch=1 n=c7 v=0
203648 Off ch=1 n=c4 v=0
203652 On ch=1 n=e7 v=83
203696 On ch=1 n=e3 v=58
203728 On ch=1 n=c7 v=88
203736 Off ch=1 n=e7 v=0
203820 Off ch=1 n=c7 v=0
203828 On ch=1 n=d#7 v=48
203828 On ch=1 n=e7 v=88
203832 Off ch=1 n=e3 v=0
203840 On ch=1 n=a2 v=85
203876 Off ch=1 n=d#7 v=0
203896 Off ch=1 n=e7 v=0
203912 On ch=1 n=a6 v=80
203940 Off ch=1 n=a2 v=0
203976 On ch=1 n=e3 v=64
203984 Off ch=1 n=a6 v=0
204000 On ch=1 n=d7 v=88
204080 On ch=1 n=a6 v=82
204084 Off ch=1 n=e3 v=0
204092 Off ch=1 n=d7 v=0
204100 On ch=1 n=c4 v=66
204156 Off ch=1 n=a6 v=0
204164 Off ch=1 n=c4 v=0
204168 On ch=1 n=c#7 v=83
204204 On ch=1 n=e3 v=63
204240 On ch=1 n=a6 v=82
204260 Off ch=1 n=c#7 v=0
204320 Off ch=1 n=e3 v=64
204328 On ch=1 n=b2 v=86
204328 On ch=1 n=c7 v=92
204332 Off ch=1 n=a6 v=64
204408 On ch=1 n=e6 v=82
204416 Off ch=1 n=b2 v=0
204416 Off ch=1 n=c7 v=0
204444 On ch=1 n=e3 v=62
204484 Off ch=1 n=e6 v=0
204488 On ch=1 n=b6 v=94
204528 Off ch=1 n=e3 v=0
204552 On ch=1 n=c4 v=64
204568 On ch=1 n=e6 v=82
204576 Off ch=1 n=b6 v=0
204616 Off ch=1 n=c4 v=0
204644 On ch=1 n=a#6 v=83
204656 Off ch=1 n=e6 v=0
204664 On ch=1 n=e3 v=59
204728 On ch=1 n=c6 v=83
204744 Off ch=1 n=a#6 v=0
204812 Off ch=1 n=e3 v=0
204816 Off ch=1 n=c6 v=0
204816 On ch=1 n=a6 v=99
204820 On ch=1 n=a2 v=83
204836 Par ch=1 c=64 v=72
204848 Par ch=1 c=64 v=0
204884 Par ch=1 c=64 v=40
204896 Par ch=1 c=64 v=88
204904 On ch=1 n=e6 v=87
204908 Par ch=1 c=64 v=127
204924 Off ch=1 n=a6 v=0
204928 Off ch=1 n=a2 v=0
204944 On ch=1 n=e3 v=55
204984 On ch=1 n=g#6 v=81
205004 On ch=1 n=f#6 v=43
205008 Off ch=1 n=e6 v=0
205032 Off ch=1 n=f#6 v=0
205052 Off ch=1 n=e3 v=0
205072 Off ch=1 n=g#6 v=0
205072 On ch=1 n=c4 v=64
205076 On ch=1 n=c6 v=82
205132 Off ch=1 n=c4 v=0
205148 Off ch=1 n=c6 v=0
205160 On ch=1 n=g6 v=89
205180 On ch=1 n=e3 v=58
205228 On ch=1 n=e6 v=83
205240 Off ch=1 n=g6 v=0
205308 Off ch=1 n=e6 v=0
205320 On ch=1 n=f#6 v=85
205324 Off ch=1 n=e3 v=0
205324 On ch=1 n=e2 v=91
205408 On ch=1 n=c6 v=89
205416 Off ch=1 n=e2 v=0
205424 Off ch=1 n=f#6 v=0
205448 On ch=1 n=e3 v=64
205488 Off ch=1 n=c6 v=0
205488 On ch=1 n=f6 v=92
205560 Off ch=1 n=e3 v=0
205564 On ch=1 n=c6 v=83
205576 On ch=1 n=c4 v=66
205584 Off ch=1 n=f6 v=0
205632 Off ch=1 n=c4 v=0
205636 On ch=1 n=e6 v=85
205652 Off ch=1 n=c6 v=0
205672 On ch=1 n=d6 v=29
205680 On ch=1 n=e3 v=59
205696 Off ch=1 n=d6 v=0
205712 On ch=1 n=a5 v=76
205716 Off ch=1 n=e6 v=0
205780 Off ch=1 n=a5 v=0
205792 Off ch=1 n=e3 v=0
205792 On ch=1 n=d#6 v=91
205800 On ch=1 n=a2 v=90
205828 Par ch=1 c=64 v=56
205844 Par ch=1 c=64 v=0
205880 Par ch=1 c=64 v=88
205888 On ch=1 n=c6 v=71
205892 Off ch=1 n=d#6 v=64
205892 On ch=1 n=b5 v=65
205892 Par ch=1 c=64 v=127
205904 Off ch=1 n=a2 v=64
205912 Off ch=1 n=b5 v=0
205916 On ch=1 n=e3 v=62
205964 Off ch=1 n=c6 v=0
205972 On ch=1 n=d6 v=96
206016 Off ch=1 n=e3 v=0
206040 On ch=1 n=c4 v=60
206048 On ch=1 n=a5 v=86
206060 Off ch=1 n=d6 v=0
206112 Off ch=1 n=c4 v=0
206124 Off ch=1 n=a5 v=0
206132 On ch=1 n=c#6 v=79
206156 On ch=1 n=e3 v=51
206196 On ch=1 n=a5 v=70
206236 Off ch=1 n=c#6 v=0
206284 On ch=1 n=a2 v=75
206284 On ch=1 n=c6 v=89
206284 Par ch=1 c=64 v=72
206288 Off ch=1 n=e3 v=0
206296 Off ch=1 n=a5 v=0
206296 Par ch=1 c=64 v=0
206332 Par ch=1 c=64 v=127
206368 Off ch=1 n=c6 v=0
206368 On ch=1 n=e5 v=79
206380 Off ch=1 n=a2 v=0
206416 On ch=1 n=e3 v=56
206444 Off ch=1 n=e5 v=0
206444 On ch=1 n=b5 v=88
206520 Off ch=1 n=e3 v=0
206520 On ch=1 n=e5 v=70
206532 Off ch=1 n=b5 v=0
206540 On ch=1 n=c4 v=60
206596 Off ch=1 n=c4 v=0
206600 On ch=1 n=a#5 v=74
206612 Off ch=1 n=e5 v=0
206656 On ch=1 n=e3 v=58
206680 On ch=1 n=c5 v=76
206692 Off ch=1 n=a#5 v=0
206772 On ch=1 n=a5 v=92
206780 Off ch=1 n=e3 v=0
206780 Off ch=1 n=c5 v=0
206796 On ch=1 n=a2 v=70
206812 Par ch=1 c=64 v=56
206824 Par ch=1 c=64 v=0
206848 On ch=1 n=e5 v=81
206860 Par ch=1 c=64 v=40
206872 Off ch=1 n=a5 v=0
206872 Par ch=1 c=64 v=104
206888 Par ch=1 c=64 v=127
206900 Off ch=1 n=a2 v=0
206916 On ch=1 n=e3 v=59
206928 On ch=1 n=g#5 v=73
206956 Off ch=1 n=e5 v=0
206968 On ch=1 n=f#5 v=23
206992 Off ch=1 n=f#5 v=0
207012 Off ch=1 n=e3 v=0
207012 On ch=1 n=c5 v=79
207016 Off ch=1 n=g#5 v=0
207036 On ch=1 n=c4 v=61
207088 Off ch=1 n=c5 v=0
207092 On ch=1 n=g5 v=86
207096 Off ch=1 n=c4 v=0
207152 On ch=1 n=e3 v=58
207172 On ch=1 n=c5 v=80
207176 Off ch=1 n=g5 v=0
207216 Par ch=1 c=64 v=72
207228 Par ch=1 c=64 v=0
207248 On ch=1 n=f#5 v=80
207252 Off ch=1 n=c5 v=0
207268 Off ch=1 n=e3 v=0
207276 On ch=1 n=d#5 v=26
207276 On ch=1 n=a2 v=66
207280 Par ch=1 c=64 v=24
207292 Par ch=1 c=64 v=88
207304 Par ch=1 c=64 v=127
207308 Off ch=1 n=d#5 v=0
207340 On ch=1 n=c5 v=80
207344 Off ch=1 n=f#5 v=0
207364 Off ch=1 n=a2 v=64
207388 On ch=1 n=e3 v=54
207428 Off ch=1 n=c5 v=64
207428 On ch=1 n=f5 v=75
207496 Off ch=1 n=e3 v=0
207512 On ch=1 n=c4 v=58
207524 On ch=1 n=a4 v=71
207544 Off ch=1 n=f5 v=0
207568 Off ch=1 n=c4 v=0
207588 On ch=1 n=e5 v=70
207616 On ch=1 n=e3 v=62
207632 Off ch=1 n=a4 v=0
207656 Off ch=1 n=e5 v=0
207668 On ch=1 n=c5 v=78
207744 Off ch=1 n=e3 v=0
207744 Off ch=1 n=c5 v=0
207744 On ch=1 n=d#5 v=84
207744 Par ch=1 c=64 v=72
207748 On ch=1 n=a2 v=70
207756 Par ch=1 c=64 v=0
207764 On ch=1 n=c#5 v=40
207784 Off ch=1 n=c#5 v=0
207808 Par ch=1 c=64 v=56
207820 Par ch=1 c=64 v=127
207836 Off ch=1 n=d#5 v=0
207840 On ch=1 n=b4 v=56
207872 On ch=1 n=e3 v=59
207884 Off ch=1 n=b4 v=0
207892 Off ch=1 n=a2 v=0
207904 On ch=1 n=d5 v=85
207980 On ch=1 n=a4 v=81
207992 Off ch=1 n=e3 v=0
207996 Off ch=1 n=d5 v=0
208016 On ch=1 n=c4 v=31
208060 Off ch=1 n=a4 v=0
208064 On ch=1 n=c#5 v=75
208072 Off ch=1 n=c4 v=0
208112 On ch=1 n=e3 v=56
208140 On ch=1 n=a4 v=73
208156 Off ch=1 n=c#5 v=0
208216 Off ch=1 n=a4 v=0
208220 Off ch=1 n=e3 v=0
208220 On ch=1 n=c5 v=88
208236 On ch=1 n=a2 v=69
208236 Par ch=1 c=64 v=56
208248 Par ch=1 c=64 v=24
208260 Par ch=1 c=64 v=40
208272 Par ch=1 c=64 v=72
208284 Par ch=1 c=64 v=127
208296 On ch=1 n=e4 v=72
208300 Off ch=1 n=c5 v=0
208332 Off ch=1 n=a2 v=0
208344 On ch=1 n=e3 v=62
208368 On ch=1 n=b4 v=85
208380 Off ch=1 n=e4 v=0
208432 Off ch=1 n=e3 v=0
208456 Off ch=1 n=b4 v=0
208456 On ch=1 n=c4 v=54
208460 On ch=1 n=e4 v=65
208468 On ch=1 n=f4 v=45
208488 Off ch=1 n=c4 v=0
208496 Off ch=1 n=f4 v=0
208524 Off ch=1 n=e4 v=0
208524 On ch=1 n=a#4 v=74
208552 On ch=1 n=e3 v=58
208600 Off ch=1 n=a#4 v=0
208604 On ch=1 n=c4 v=88
208672 Off ch=1 n=e3 v=0
208684 Off ch=1 n=c4 v=0
208692 On ch=1 n=a4 v=87
208700 On ch=1 n=a3 v=71
208716 Par ch=1 c=64 v=88
208728 Par ch=1 c=64 v=40
208740 Par ch=1 c=64 v=0
208768 Off ch=1 n=a3 v=0
208772 On ch=1 n=e4 v=77
208788 Off ch=1 n=a4 v=0
208848 On ch=1 n=g#4 v=74
208860 On ch=1 n=g#3 v=82
208864 Off ch=1 n=e4 v=0
208920 Off ch=1 n=g#3 v=64
208920 On ch=1 n=c4 v=85
208928 Off ch=1 n=g#4 v=64
209008 Off ch=1 n=c4 v=0
209012 On ch=1 n=g4 v=82
209020 On ch=1 n=g3 v=82
209076 Off ch=1 n=g3 v=0
209084 On ch=1 n=e4 v=82
209092 Off ch=1 n=g4 v=0
209164 Off ch=1 n=e4 v=0
209168 On ch=1 n=f#4 v=79
209176 On ch=1 n=f#3 v=103
209232 Off ch=1 n=f#3 v=0
209260 On ch=1 n=c4 v=88
209276 Off ch=1 n=f#4 v=0
209328 On ch=1 n=f3 v=93
209340 Off ch=1 n=c4 v=0
209340 On ch=1 n=f4 v=92
209400 Off ch=1 n=f3 v=0
209416 On ch=1 n=c4 v=89
209436 Off ch=1 n=f4 v=0
209480 On ch=1 n=e3 v=97
209492 On ch=1 n=e4 v=86
209512 Off ch=1 n=c4 v=0
209544 Off ch=1 n=e3 v=0
209568 Off ch=1 n=e4 v=0
209572 On ch=1 n=a3 v=87
209648 On ch=1 n=d#3 v=88
209652 Off ch=1 n=a3 v=0
209656 On ch=1 n=d#4 v=87
209716 Off ch=1 n=d#3 v=0
209748 Off ch=1 n=d#4 v=0
209748 On ch=1 n=c4 v=85
209808 On ch=1 n=d3 v=89
209816 Off ch=1 n=c4 v=0
209828 On ch=1 n=d4 v=96
209876 Off ch=1 n=d3 v=0
209904 On ch=1 n=a3 v=85
209920 Off ch=1 n=d4 v=0
209980 On ch=1 n=c#3 v=99
209984 Off ch=1 n=a3 v=0
209984 On ch=1 n=c#4 v=88
210040 Off ch=1 n=c#3 v=0
210064 On ch=1 n=a3 v=92
210080 Off ch=1 n=c#4 v=0
210144 On ch=1 n=c4 v=90
210152 Off ch=1 n=a3 v=0
210152 On ch=1 n=c3 v=92
210220 Off ch=1 n=c3 v=0
210232 On ch=1 n=e3 v=73
210256 Off ch=1 n=c4 v=0
210312 On ch=1 n=b2 v=96
210320 On ch=1 n=b3 v=83
210324 Off ch=1 n=e3 v=0
210384 Off ch=1 n=b2 v=0
210404 On ch=1 n=e3 v=81
210436 Off ch=1 n=b3 v=64
210484 On ch=1 n=a#3 v=82
210492 On ch=1 n=a#2 v=76
210496 Off ch=1 n=e3 v=64
210560 On ch=1 n=e3 v=77
210564 Off ch=1 n=a#2 v=0
210592 Off ch=1 n=a#3 v=0
210640 Off ch=1 n=e3 v=0
210664 On ch=1 n=a3 v=109
210672 On ch=1 n=a2 v=103
210740 Par ch=1 c=64 v=88
210752 Par ch=1 c=64 v=127
210776 Off ch=1 n=a3 v=0
210776 Off ch=1 n=a2 v=0
211204 Par ch=1 c=64 v=88
211212 On ch=1 n=a5 v=102
211216 On ch=1 n=a4 v=89
211216 On ch=1 n=c5 v=87
211216 On ch=1 n=e5 v=87
211216 Par ch=1 c=64 v=0
211224 On ch=1 n=a3 v=90
211232 On ch=1 n=e3 v=74
211232 On ch=1 n=a2 v=76
211280 Par ch=1 c=64 v=72
211292 Off ch=1 n=a2 v=0
211292 Par ch=1 c=64 v=127
211296 Off ch=1 n=a3 v=0
211304 Off ch=1 n=a4 v=0
211304 Off ch=1 n=e3 v=0
211316 Off ch=1 n=c5 v=0
211328 Off ch=1 n=a5 v=0
211328 Off ch=1 n=e5 v=0
211628 On ch=1 n=e3 v=71
211632 On ch=1 n=a5 v=97
211632 On ch=1 n=a3 v=80
211632 On ch=1 n=c5 v=88
211632 On ch=1 n=e5 v=83
211636 On ch=1 n=a4 v=89
211640 On ch=1 n=a2 v=62
211684 Off ch=1 n=a3 v=0
211684 Off ch=1 n=c5 v=0
211684 Off ch=1 n=a4 v=0
211688 Off ch=1 n=e5 v=0
211688 Off ch=1 n=a2 v=0
211696 Off ch=1 n=e3 v=0
211704 Off ch=1 n=a5 v=0
211748 On ch=1 n=a5 v=89
211752 On ch=1 n=e5 v=88
211752 On ch=1 n=a4 v=100
211756 On ch=1 n=c5 v=99
211760 On ch=1 n=e3 v=74
211760 On ch=1 n=a3 v=93
211760 Par ch=1 c=64 v=24
211764 On ch=1 n=a2 v=74
211772 Par ch=1 c=64 v=0
211808 Par ch=1 c=64 v=40
211820 Off ch=1 n=a2 v=0
211820 Par ch=1 c=64 v=127
211824 Off ch=1 n=a3 v=0
211828 Off ch=1 n=a4 v=0
211836 Off ch=1 n=e3 v=0
211844 Off ch=1 n=c5 v=0
211864 Off ch=1 n=a5 v=0
211868 Off ch=1 n=e5 v=0
212280 On ch=1 n=a5 v=105
212284 On ch=1 n=a4 v=94
212284 On ch=1 n=d5 v=92
212288 On ch=1 n=f5 v=85
212288 Par ch=1 c=64 v=72
212292 On ch=1 n=d3 v=85
212292 On ch=1 n=a3 v=96
212296 On ch=1 n=a2 v=75
212296 Par ch=1 c=64 v=0
212348 Par ch=1 c=64 v=72
212352 Off ch=1 n=a2 v=0
212360 Off ch=1 n=a3 v=0
212360 Par ch=1 c=64 v=127
212368 Off ch=1 n=d3 v=0
212380 Off ch=1 n=a4 v=0
212388 Off ch=1 n=d5 v=0
212408 Off ch=1 n=a5 v=0
212412 Off ch=1 n=f5 v=0
212812 Par ch=1 c=64 v=72
212824 On ch=1 n=a5 v=103
212824 Par ch=1 c=64 v=0
212828 On ch=1 n=e5 v=90
212832 On ch=1 n=c5 v=92
212832 On ch=1 n=a4 v=89
212832 On ch=1 n=e3 v=89
212836 On ch=1 n=a3 v=103
212836 On ch=1 n=a2 v=81
212888 Par ch=1 c=64 v=72
212900 Off ch=1 n=a2 v=0
212900 Par ch=1 c=64 v=127
212916 Off ch=1 n=a3 v=0
212920 Off ch=1 n=e3 v=0
212936 Off ch=1 n=a4 v=0
212952 Off ch=1 n=c5 v=0
212968 Off ch=1 n=a5 v=0
212968 Off ch=1 n=e5 v=0
213768 Par ch=1 c=64 v=104
213772 On ch=1 n=a5 v=112
213776 On ch=1 n=d5 v=107
213776 On ch=1 n=b4 v=93
213780 On ch=1 n=a4 v=99
213780 On ch=1 n=f3 v=94
213784 On ch=1 n=a3 v=109
213784 Par ch=1 c=64 v=0
213788 On ch=1 n=a2 v=89
213844 Off ch=1 n=a2 v=0
213844 Par ch=1 c=64 v=88
213856 Off ch=1 n=a3 v=0
213856 Par ch=1 c=64 v=127
213868 Off ch=1 n=f3 v=0
213872 Off ch=1 n=a4 v=0
213876 Off ch=1 n=b4 v=0
213900 Off ch=1 n=d5 v=0
213912 Off ch=1 n=a5 v=0
214748 On ch=1 n=a5 v=105
214748 On ch=1 n=e3 v=88
214748 On ch=1 n=a4 v=99
214748 On ch=1 n=e5 v=93
214752 On ch=1 n=a3 v=109
214752 On ch=1 n=a2 v=83
214752 On ch=1 n=c5 v=94
214764 Par ch=1 c=64 v=72
214776 Par ch=1 c=64 v=0
214860 Par ch=1 c=64 v=127
214924 Off ch=1 n=a5 v=0
214936 Off ch=1 n=e5 v=0
214940 Off ch=1 n=c5 v=0
214944 Off ch=1 n=a4 v=0
214960 Off ch=1 n=a3 v=0
214960 Off ch=1 n=a2 v=0
214964 Off ch=1 n=e3 v=0
215220 On ch=1 n=a3 v=88
215220 On ch=1 n=a2 v=72
215292 Off ch=1 n=a2 v=0
215300 Off ch=1 n=a3 v=0
215316 On ch=1 n=b2 v=59
215316 On ch=1 n=b3 v=84
215384 Off ch=1 n=b3 v=0
215412 Off ch=1 n=b2 v=0
215412 On ch=1 n=c3 v=72
215412 On ch=1 n=c4 v=90
215488 On ch=1 n=d4 v=86
215488 On ch=1 n=d3 v=74
215492 Off ch=1 n=c4 v=0
215500 Off ch=1 n=c3 v=0
215532 Off ch=1 n=d3 v=0
215564 On ch=1 n=e3 v=62
215564 On ch=1 n=e4 v=81
215580 Off ch=1 n=d4 v=0
215640 On ch=1 n=f#4 v=82
215648 On ch=1 n=f#3 v=60
215660 Off ch=1 n=e4 v=0
215664 Off ch=1 n=e3 v=0
215724 On ch=1 n=g#3 v=72
215724 On ch=1 n=g#4 v=81
215728 Off ch=1 n=f#3 v=0
215760 Off ch=1 n=f#4 v=0
215776 Off ch=1 n=g#4 v=0
215788 Off ch=1 n=g#3 v=0
215804 On ch=1 n=a3 v=78
215804 On ch=1 n=a4 v=82
215868 Par ch=1 c=64 v=88
215876 Off ch=1 n=a4 v=0
215880 Par ch=1 c=64 v=0
215884 On ch=1 n=b4 v=84
215884 On ch=1 n=b3 v=73
215900 Off ch=1 n=a3 v=0
215952 Par ch=1 c=64 v=72
215960 Off ch=1 n=b3 v=0
215964 On ch=1 n=c5 v=89
215964 On ch=1 n=c4 v=79
215964 Par ch=1 c=64 v=127
215972 Off ch=1 n=b4 v=0
216016 Off ch=1 n=c5 v=0
216044 Off ch=1 n=c4 v=0
216048 On ch=1 n=d5 v=87
216048 On ch=1 n=d4 v=81
216104 Off ch=1 n=d4 v=0
216120 On ch=1 n=e5 v=85
216120 On ch=1 n=e4 v=73
216132 Off ch=1 n=d5 v=0
216184 On ch=1 n=f#5 v=82
216184 On ch=1 n=f#4 v=67
216204 Off ch=1 n=e4 v=0
216228 Off ch=1 n=e5 v=0
216260 Off ch=1 n=f#4 v=0
216260 On ch=1 n=g#5 v=82
216260 On ch=1 n=g#4 v=74
216296 Off ch=1 n=f#5 v=0
216312 Off ch=1 n=g#5 v=0
216320 Off ch=1 n=g#4 v=0
216344 On ch=1 n=a5 v=87
216344 On ch=1 n=a4 v=76
216372 Par ch=1 c=64 v=104
216384 Par ch=1 c=64 v=24
216396 Par ch=1 c=64 v=0
216412 On ch=1 n=b5 v=88
216412 On ch=1 n=b4 v=74
216424 Off ch=1 n=a5 v=0
216436 Off ch=1 n=a4 v=0
216444 Par ch=1 c=64 v=56
216456 Par ch=1 c=64 v=127
216484 Off ch=1 n=b4 v=0
216488 On ch=1 n=c6 v=93
216488 On ch=1 n=c5 v=69
216496 Off ch=1 n=b5 v=0
216536 Off ch=1 n=c5 v=0
216540 Off ch=1 n=c6 v=0
216564 On ch=1 n=d6 v=87
216564 On ch=1 n=d5 v=61
216612 Off ch=1 n=d5 v=0
216628 Par ch=1 c=64 v=72
216636 On ch=1 n=e6 v=86
216636 On ch=1 n=e5 v=64
216644 Par ch=1 c=64 v=40
216664 Off ch=1 n=d6 v=64
216680 Par ch=1 c=64 v=127
216700 On ch=1 n=f#6 v=82
216700 On ch=1 n=f#5 v=64
216720 Off ch=1 n=e5 v=0
216756 Off ch=1 n=e6 v=0
216780 Off ch=1 n=f#5 v=0
216784 On ch=1 n=g#6 v=84
216784 On ch=1 n=g#5 v=63
216816 Off ch=1 n=f#6 v=0
216828 Off ch=1 n=g#6 v=0
216844 Off ch=1 n=g#5 v=0
216852 On ch=1 n=a6 v=84
216852 On ch=1 n=a5 v=63
216920 On ch=1 n=b6 v=91
216920 On ch=1 n=b5 v=74
216932 Off ch=1 n=a5 v=0
216948 Off ch=1 n=a6 v=0
216988 On ch=1 n=c7 v=97
216988 On ch=1 n=c6 v=80
216992 Off ch=1 n=b5 v=0
217000 Off ch=1 n=b6 v=0
217044 Off ch=1 n=c7 v=0
217056 Off ch=1 n=c6 v=0
217064 On ch=1 n=d7 v=86
217064 On ch=1 n=d6 v=77
217116 Off ch=1 n=d6 v=0
217136 On ch=1 n=e6 v=72
217136 On ch=1 n=e7 v=88
217156 Off ch=1 n=d7 v=0
217212 On ch=1 n=f#7 v=87
217212 On ch=1 n=f#6 v=73
217224 Off ch=1 n=e6 v=0
217228 Off ch=1 n=e7 v=0
217284 Off ch=1 n=f#6 v=0
217292 On ch=1 n=g#7 v=88
217292 On ch=1 n=g#6 v=73
217316 Off ch=1 n=f#7 v=0
217340 Par ch=1 c=64 v=88
217352 Par ch=1 c=64 v=0
217356 On ch=1 n=a6 v=90
217356 On ch=1 n=a7 v=99
217364 Off ch=1 n=g#6 v=0
217388 Off ch=1 n=g#7 v=0
217416 Par ch=1 c=64 v=72
217428 Off ch=1 n=a6 v=0
217428 Par ch=1 c=64 v=127
217488 Off ch=1 n=a7 v=0
217868 Par ch=1 c=64 v=104
217880 Par ch=1 c=64 v=72
217892 Par ch=1 c=64 v=24
217904 Par ch=1 c=64 v=0
218288 Par ch=1 c=64 v=72
218300 Par ch=1 c=64 v=127
219016 Par ch=1 c=64 v=104
219028 Par ch=1 c=64 v=72
219040 Par ch=1 c=64 v=24
219048 Par ch=1 c=64 v=0
220068 Par ch=1 c=64 v=104
220088 Par ch=1 c=64 v=40
220108 Par ch=1 c=64 v=0
220224 Par ch=1 c=64 v=104
220240 Par ch=1 c=64 v=127
220768 Par ch=1 c=64 v=72
220788 Par ch=1 c=64 v=40
220808 Par ch=1 c=64 v=0
220808 Meta TrkEnd
TrkEnd
MTrk
0 Meta TrkName "Frederik Chopin"
0 KeySig 0 major
0 Meta TrkEnd
TrkEnd
MTrk
0 Meta TrkName "Robert Finley, Piano"
0 KeySig 0 major
0 Meta TrkEnd
TrkEnd
MTrk
0 KeySig 0 major
0 Meta TrkEnd
TrkEnd
MTrk
0 KeySig 0 major
0 Meta TrkEnd
TrkEnd
MTrk
0 KeySig 0 major
0 Meta TrkEnd
TrkEnd
MTrk
0 KeySig 0 major
0 Meta TrkEnd
TrkEnd
MTrk
0 KeySig 0 major
0 Meta TrkEnd
TrkEnd
MTrk
0 KeySig 0 major
0 Meta TrkEnd
TrkEnd
MTrk
0 KeySig 0 major
0 Meta TrkEnd
TrkEnd
MTrk
0 KeySig 0 major
0 Meta TrkEnd
TrkEnd
MTrk
0 KeySig 0 major
0 Meta TrkEnd
TrkEnd
MTrk
0 KeySig 0 major
0 Meta TrkEnd
TrkEnd
MTrk
0 KeySig 0 major
0 Meta TrkEnd
TrkEnd
MTrk
0 KeySig 0 major
0 Meta TrkEnd
TrkEnd
MTrk
0 KeySig 0 major
0 Meta TrkEnd
TrkEnd
