MFile 1 5 120
MTrk
0 TimeSig 4/4 24 8
0 KeySig 0 major
0 Tempo 571429
30703 Tempo 545455
32081 Tempo 560748
32192 Tempo 571429
33878 Tempo 571429
33963 Tempo 566038
34049 Tempo 560748
34135 Tempo 555556
34220 Tempo 550459
34306 Tempo 545455
34392 Tempo 540541
34477 Tempo 535714
34563 Tempo 530973
34649 Tempo 526316
34734 Tempo 521739
34820 Tempo 517241
34906 Tempo 512821
34991 Tempo 508475
35077 Tempo 504202
35163 Tempo 500000
35248 Tempo 495868
35295 Tempo 500000
36023 Tempo 500000
38401 Tempo 500000
38437 Tempo 504202
38474 Tempo 508475
38511 Tempo 512821
38547 Tempo 517241
38584 Tempo 521739
38621 Tempo 526316
38658 Tempo 530973
38694 Tempo 535714
38731 Tempo 540541
38768 Tempo 545455
38805 Tempo 550459
38841 Tempo 555556
38878 Tempo 560748
38915 Tempo 566038
38952 Tempo 571429
38953 Tempo 535714
44299 Tempo 545455
44299 Meta TrkEnd
TrkEnd
MTrk
0 Meta 0x21 00
0 Meta TrkName "\"Paysage\""
0 PrCh ch=1 p=0
0 Par ch=1 c=7 v=127
128 Par ch=1 c=91 v=127
131 Par ch=1 c=64 v=72
135 Par ch=1 c=64 v=127
180 Par ch=1 c=67 v=127
246 On ch=1 n=f4 v=40
267 On ch=1 n=f4 v=0
277 On ch=1 n=c5 v=51
308 On ch=1 n=f5 v=45
310 On ch=1 n=c5 v=0
370 On ch=1 n=a5 v=74
391 On ch=1 n=f5 v=0
483 On ch=1 n=a5 v=0
494 On ch=1 n=c5 v=65
581 On ch=1 n=a5 v=75
586 On ch=1 n=f5 v=50
609 On ch=1 n=f5 v=0
625 On ch=1 n=a5 v=0
673 On ch=1 n=g5 v=69
677 On ch=1 n=e5 v=56
705 On ch=1 n=e5 v=0
713 On ch=1 n=g5 v=0
764 On ch=1 n=f5 v=69
769 On ch=1 n=d5 v=58
769 Par ch=1 c=64 v=72
773 Par ch=1 c=64 v=0
777 On ch=1 n=c5 v=0
802 Par ch=1 c=64 v=127
835 On ch=1 n=f5 v=0
850 On ch=1 n=d5 v=0
854 On ch=1 n=f4 v=55
940 On ch=1 n=f5 v=66
942 On ch=1 n=d5 v=54
971 On ch=1 n=f5 v=0
983 On ch=1 n=d5 v=0
1023 On ch=1 n=e5 v=67
1028 On ch=1 n=c5 v=57
1031 Par ch=1 c=64 v=104
1035 Par ch=1 c=64 v=0
1060 Par ch=1 c=64 v=24
1064 Par ch=1 c=64 v=88
1068 Par ch=1 c=64 v=127
1083 On ch=1 n=e5 v=0
1088 On ch=1 n=c5 v=0
1114 On ch=1 n=d5 v=68
1120 On ch=1 n=a#4 v=31
1120 Par ch=1 c=64 v=104
1124 Par ch=1 c=64 v=40
1128 Par ch=1 c=64 v=0
1155 On ch=1 n=a#4 v=0
1156 Par ch=1 c=64 v=127
1166 On ch=1 n=f4 v=0
1177 On ch=1 n=d5 v=0
1200 On ch=1 n=f4 v=52
1286 On ch=1 n=d5 v=66
1287 On ch=1 n=a#4 v=44
1326 On ch=1 n=d5 v=0
1330 On ch=1 n=a#4 v=0
1373 On ch=1 n=c5 v=72
1379 Par ch=1 c=64 v=88
1382 Par ch=1 c=64 v=40
1384 On ch=1 n=a4 v=47
1386 Par ch=1 c=64 v=24
1391 Par ch=1 c=64 v=40
1395 Par ch=1 c=64 v=72
1399 Par ch=1 c=64 v=127
1402 On ch=1 n=a4 v=0
1418 On ch=1 n=c5 v=0
1423 On ch=1 n=f4 v=0
1475 On ch=1 n=b4 v=73
1481 On ch=1 n=g#4 v=51
1492 Par ch=1 c=64 v=88
1496 Par ch=1 c=64 v=24
1500 Par ch=1 c=64 v=0
1524 Par ch=1 c=64 v=88
1528 Par ch=1 c=64 v=127
1534 On ch=1 n=g#4 v=0
1569 On ch=1 n=g4 v=55
1584 Par ch=1 c=64 v=56
1589 Par ch=1 c=64 v=0
1593 Par ch=1 c=64 v=40
1597 Par ch=1 c=64 v=72
1601 Par ch=1 c=64 v=127
1648 On ch=1 n=g4 v=0
1655 On ch=1 n=f4 v=56
1660 On ch=1 n=d4 v=60
1661 Par ch=1 c=64 v=56
1665 Par ch=1 c=64 v=0
1669 Par ch=1 c=64 v=24
1673 Par ch=1 c=64 v=72
1677 Par ch=1 c=64 v=127
1681 On ch=1 n=d4 v=0
1687 On ch=1 n=f4 v=0
1712 On ch=1 n=b4 v=0
1733 On ch=1 n=c#4 v=47
1747 On ch=1 n=f4 v=47
1766 Par ch=1 c=64 v=56
1767 On ch=1 n=a#4 v=74
1770 Par ch=1 c=64 v=0
1799 Par ch=1 c=64 v=40
1801 On ch=1 n=f4 v=0
1803 Par ch=1 c=64 v=127
1819 On ch=1 n=c#4 v=0
1869 On ch=1 n=c4 v=46
1871 On ch=1 n=e4 v=51
1871 Par ch=1 c=64 v=40
1874 Par ch=1 c=64 v=0
1884 Par ch=1 c=64 v=72
1888 Par ch=1 c=64 v=127
1897 On ch=1 n=c4 v=0
1899 On ch=1 n=e4 v=0
1909 On ch=1 n=a#4 v=0
1963 On ch=1 n=c5 v=66
1968 On ch=1 n=g4 v=48
1973 On ch=1 n=e4 v=47
1982 Par ch=1 c=64 v=72
1986 Par ch=1 c=64 v=0
1998 Par ch=1 c=64 v=24
2001 On ch=1 n=e4 v=0
2002 Par ch=1 c=64 v=88
2004 On ch=1 n=g4 v=0
2006 Par ch=1 c=64 v=127
2043 On ch=1 n=c5 v=0
2092 On ch=1 n=a4 v=58
2097 On ch=1 n=f4 v=56
2107 Par ch=1 c=64 v=56
2111 Par ch=1 c=64 v=0
2147 Par ch=1 c=64 v=56
2151 Par ch=1 c=64 v=127
2153 On ch=1 n=f4 v=0
2167 On ch=1 n=a4 v=0
2217 On ch=1 n=f4 v=54
2244 On ch=1 n=f4 v=0
2311 On ch=1 n=a5 v=65
2314 On ch=1 n=f5 v=48
2345 On ch=1 n=f5 v=0
2347 On ch=1 n=a5 v=0
2409 On ch=1 n=a6 v=81
2413 On ch=1 n=a5 v=59
2417 On ch=1 n=g5 v=44
2421 On ch=1 n=e5 v=40
2431 Par ch=1 c=64 v=88
2435 Par ch=1 c=64 v=0
2447 Par ch=1 c=64 v=40
2451 Par ch=1 c=64 v=72
2455 Par ch=1 c=64 v=127
2464 On ch=1 n=g5 v=0
2487 On ch=1 n=e5 v=0
2503 On ch=1 n=f5 v=50
2507 Par ch=1 c=64 v=104
2509 On ch=1 n=d5 v=44
2511 Par ch=1 c=64 v=40
2515 Par ch=1 c=64 v=0
2520 Par ch=1 c=64 v=24
2524 Par ch=1 c=64 v=72
2528 Par ch=1 c=64 v=127
2530 On ch=1 n=d5 v=0
2572 On ch=1 n=f5 v=0
2596 On ch=1 n=f4 v=51
2680 On ch=1 n=f5 v=54
2687 On ch=1 n=d5 v=44
2718 On ch=1 n=f5 v=0
2745 On ch=1 n=d5 v=0
2767 On ch=1 n=e5 v=58
2772 On ch=1 n=c5 v=39
2774 Par ch=1 c=64 v=72
2778 Par ch=1 c=64 v=40
2790 Par ch=1 c=64 v=88
2794 Par ch=1 c=64 v=127
2830 On ch=1 n=c5 v=0
2840 On ch=1 n=e5 v=0
2842 Par ch=1 c=64 v=88
2846 Par ch=1 c=64 v=56
2850 Par ch=1 c=64 v=24
2861 On ch=1 n=d5 v=53
2862 Par ch=1 c=64 v=88
2864 On ch=1 n=a#4 v=33
2866 Par ch=1 c=64 v=127
2872 On ch=1 n=a5 v=0
2895 On ch=1 n=a#4 v=0
2902 On ch=1 n=a6 v=0
2906 On ch=1 n=f4 v=0
2911 On ch=1 n=d5 v=0
2951 On ch=1 n=a#6 v=85
2954 On ch=1 n=a#5 v=65
2959 On ch=1 n=f4 v=47
2959 Par ch=1 c=64 v=88
2962 Par ch=1 c=64 v=24
2967 Par ch=1 c=64 v=0
2979 Par ch=1 c=64 v=40
2983 Par ch=1 c=64 v=104
2987 Par ch=1 c=64 v=127
3023 On ch=1 n=a#5 v=0
3043 On ch=1 n=a#4 v=42
3044 On ch=1 n=d5 v=58
3077 On ch=1 n=d5 v=0
3092 On ch=1 n=a#4 v=0
3107 On ch=1 n=a#6 v=0
3131 On ch=1 n=c7 v=88
3134 On ch=1 n=c5 v=53
3134 On ch=1 n=c6 v=71
3136 Par ch=1 c=64 v=40
3140 On ch=1 n=a4 v=30
3140 Par ch=1 c=64 v=0
3162 On ch=1 n=a4 v=0
3165 Par ch=1 c=64 v=104
3169 Par ch=1 c=64 v=127
3170 On ch=1 n=c5 v=0
3170 On ch=1 n=c6 v=0
3221 Par ch=1 c=64 v=88
3222 On ch=1 n=d7 v=94
3223 On ch=1 n=c7 v=0
3225 Par ch=1 c=64 v=0
3226 On ch=1 n=d6 v=77
3230 On ch=1 n=b4 v=48
3230 On ch=1 n=g#4 v=44
3231 On ch=1 n=f4 v=0
3245 Par ch=1 c=64 v=104
3249 Par ch=1 c=64 v=127
3259 On ch=1 n=g#4 v=0
3299 On ch=1 n=d6 v=0
3306 On ch=1 n=g4 v=58
3316 On ch=1 n=d7 v=0
3372 On ch=1 n=g4 v=0
3391 On ch=1 n=f7 v=94
3393 On ch=1 n=f6 v=80
3394 On ch=1 n=f4 v=46
3397 On ch=1 n=d4 v=46
3422 On ch=1 n=d4 v=0
3426 On ch=1 n=b4 v=0
3437 On ch=1 n=f4 v=0
3445 On ch=1 n=f7 v=0
3447 On ch=1 n=f6 v=0
3493 On ch=1 n=e7 v=98
3495 On ch=1 n=e6 v=77
3501 On ch=1 n=c#4 v=50
3501 On ch=1 n=a#4 v=39
3504 On ch=1 n=g4 v=44
3514 Par ch=1 c=64 v=88
3518 Par ch=1 c=64 v=0
3528 On ch=1 n=c#4 v=0
3550 Par ch=1 c=64 v=127
3582 On ch=1 n=e6 v=0
3589 On ch=1 n=c4 v=61
3601 On ch=1 n=e7 v=0
3619 On ch=1 n=a#4 v=0
3628 On ch=1 n=c4 v=0
3654 On ch=1 n=g4 v=0
3680 On ch=1 n=g7 v=93
3683 On ch=1 n=g6 v=75
3691 On ch=1 n=c5 v=35
3696 On ch=1 n=e4 v=35
3720 On ch=1 n=c5 v=0
3725 On ch=1 n=e4 v=0
3729 On ch=1 n=g6 v=0
3796 On ch=1 n=g7 v=0
3801 On ch=1 n=a7 v=96
3805 On ch=1 n=a6 v=66
3809 On ch=1 n=a4 v=36
3811 On ch=1 n=f4 v=45
3821 Par ch=1 c=64 v=72
3825 Par ch=1 c=64 v=0
3851 On ch=1 n=f4 v=0
3853 Par ch=1 c=64 v=56
3857 Par ch=1 c=64 v=127
3890 On ch=1 n=a4 v=0
3906 On ch=1 n=a3 v=60
3998 On ch=1 n=a4 v=57
4001 On ch=1 n=f4 v=53
4036 On ch=1 n=a4 v=0
4040 On ch=1 n=f4 v=0
4055 On ch=1 n=a6 v=0
4065 On ch=1 n=a7 v=0
4094 On ch=1 n=a7 v=91
4097 On ch=1 n=a6 v=69
4099 On ch=1 n=g4 v=57
4103 On ch=1 n=e4 v=47
4115 Par ch=1 c=64 v=72
4119 Par ch=1 c=64 v=0
4146 On ch=1 n=g4 v=0
4148 Par ch=1 c=64 v=40
4152 Par ch=1 c=64 v=104
4156 Par ch=1 c=64 v=127
4178 On ch=1 n=e4 v=0
4183 On ch=1 n=f4 v=57
4183 Par ch=1 c=64 v=72
4188 Par ch=1 c=64 v=0
4189 On ch=1 n=d4 v=55
4199 On ch=1 n=a3 v=0
4200 Par ch=1 c=64 v=56
4204 Par ch=1 c=64 v=127
4249 On ch=1 n=d4 v=0
4257 On ch=1 n=f4 v=0
4267 On ch=1 n=a3 v=55
4358 On ch=1 n=c#4 v=48
4359 On ch=1 n=a3 v=0
4359 On ch=1 n=e4 v=44
4369 Par ch=1 c=64 v=72
4373 Par ch=1 c=64 v=0
4398 Par ch=1 c=64 v=72
4402 Par ch=1 c=64 v=127
4423 On ch=1 n=e4 v=0
4437 On ch=1 n=c#4 v=0
4448 On ch=1 n=a3 v=56
4464 On ch=1 n=a6 v=0
4469 On ch=1 n=a7 v=0
4528 On ch=1 n=a7 v=96
4530 On ch=1 n=a6 v=77
4533 On ch=1 n=a#4 v=51
4536 On ch=1 n=g4 v=34
4561 On ch=1 n=g4 v=0
4563 On ch=1 n=a6 v=0
4579 On ch=1 n=a#4 v=0
4621 On ch=1 n=a7 v=0
4621 On ch=1 n=b7 v=97
4623 On ch=1 n=b6 v=79
4627 On ch=1 n=f4 v=48
4627 On ch=1 n=a4 v=50
4627 Par ch=1 c=64 v=88
4632 Par ch=1 c=64 v=0
4656 Par ch=1 c=64 v=40
4660 On ch=1 n=a4 v=0
4660 Par ch=1 c=64 v=127
4661 On ch=1 n=f4 v=0
4709 On ch=1 n=g4 v=60
4710 On ch=1 n=e4 v=60
4719 On ch=1 n=b6 v=0
4726 On ch=1 n=a3 v=0
4732 On ch=1 n=b7 v=0
4759 On ch=1 n=e4 v=0
4777 On ch=1 n=g4 v=0
4797 Par ch=1 c=67 v=0
4799 On ch=1 n=c#8 v=103
4801 On ch=1 n=a3 v=53
4801 On ch=1 n=c#7 v=89
4837 Par ch=1 c=67 v=127
4855 On ch=1 n=c#7 v=0
4863 On ch=1 n=a3 v=0
4865 Par ch=1 c=67 v=0
4879 On ch=1 n=c#8 v=0
4896 On ch=1 n=f4 v=55
4896 On ch=1 n=d8 v=107
4897 On ch=1 n=d7 v=81
4897 On ch=1 n=d4 v=57
4902 Par ch=1 c=64 v=56
4906 Par ch=1 c=64 v=0
4921 On ch=1 n=d4 v=0
4927 On ch=1 n=f4 v=0
4930 Par ch=1 c=64 v=104
4934 Par ch=1 c=64 v=127
4977 On ch=1 n=d7 v=0
4987 On ch=1 n=d3 v=60
5003 On ch=1 n=d3 v=0
5060 On ch=1 n=d8 v=0
5079 On ch=1 n=e8 v=103
5079 On ch=1 n=e7 v=80
5082 On ch=1 n=g4 v=57
5121 On ch=1 n=e7 v=0
5187 On ch=1 n=e8 v=0
5188 On ch=1 n=g4 v=0
5192 On ch=1 n=f8 v=97
5193 On ch=1 n=f7 v=90
5201 On ch=1 n=a4 v=47
5237 Par ch=1 c=64 v=88
5241 Par ch=1 c=64 v=24
5245 Par ch=1 c=64 v=0
5277 Par ch=1 c=64 v=72
5281 Par ch=1 c=64 v=127
5284 On ch=1 n=d4 v=52
5355 On ch=1 n=d4 v=0
5371 On ch=1 n=c4 v=53
5435 On ch=1 n=c4 v=0
5457 On ch=1 n=b3 v=57
5471 Par ch=1 c=64 v=72
5475 Par ch=1 c=64 v=0
5503 Par ch=1 c=64 v=40
5507 Par ch=1 c=64 v=127
5527 On ch=1 n=a4 v=0
5547 On ch=1 n=g#4 v=58
5549 On ch=1 n=f8 v=0
5560 On ch=1 n=f7 v=0
5634 On ch=1 n=e8 v=101
5635 On ch=1 n=g#4 v=0
5636 On ch=1 n=g4 v=57
5638 On ch=1 n=e7 v=76
5653 On ch=1 n=b3 v=0
5672 On ch=1 n=e8 v=0
5675 On ch=1 n=g4 v=0
5679 On ch=1 n=e7 v=0
5704 On ch=1 n=g3 v=54
5713 On ch=1 n=b3 v=47
5743 On ch=1 n=d8 v=92
5745 On ch=1 n=d7 v=73
5745 On ch=1 n=f4 v=55
5749 Par ch=1 c=64 v=72
5753 Par ch=1 c=64 v=0
5777 Par ch=1 c=64 v=56
5781 Par ch=1 c=64 v=127
5793 On ch=1 n=d7 v=0
5803 On ch=1 n=f4 v=0
5847 On ch=1 n=d8 v=0
5847 On ch=1 n=e8 v=91
5849 On ch=1 n=e7 v=68
5853 On ch=1 n=g4 v=43
5874 Par ch=1 c=64 v=56
5878 Par ch=1 c=64 v=0
5886 Par ch=1 c=64 v=56
5890 Par ch=1 c=64 v=127
5898 On ch=1 n=g4 v=0
5934 On ch=1 n=e8 v=0
5944 On ch=1 n=e7 v=0
5952 On ch=1 n=f4 v=44
5963 On ch=1 n=g3 v=0
5967 On ch=1 n=f4 v=0
5967 On ch=1 n=b3 v=0
6000 On ch=1 n=d8 v=84
6002 On ch=1 n=d7 v=65
6025 On ch=1 n=d7 v=0
6026 On ch=1 n=d8 v=0
6041 On ch=1 n=c3 v=58
6087 Par ch=1 c=64 v=104
6088 On ch=1 n=c8 v=81
6091 On ch=1 n=c7 v=69
6091 Par ch=1 c=64 v=0
6093 On ch=1 n=e4 v=50
6124 Par ch=1 c=64 v=104
6126 On ch=1 n=c3 v=0
6128 Par ch=1 c=64 v=127
6130 On ch=1 n=e4 v=0
6211 On ch=1 n=a#4 v=65
6223 On ch=1 n=g4 v=39
6231 On ch=1 n=g4 v=0
6231 On ch=1 n=c8 v=0
6233 On ch=1 n=c7 v=0
6268 On ch=1 n=a#4 v=0
6306 On ch=1 n=a4 v=70
6307 On ch=1 n=f#4 v=61
6317 Par ch=1 c=64 v=72
6317 Par ch=1 c=67 v=127
6321 Par ch=1 c=64 v=0
6337 Par ch=1 c=64 v=40
6341 Par ch=1 c=64 v=104
6345 Par ch=1 c=64 v=127
6355 On ch=1 n=a4 v=0
6379 On ch=1 n=f#4 v=0
6386 Par ch=1 c=67 v=0
6422 On ch=1 n=d5 v=80
6425 On ch=1 n=a#4 v=50
6442 Par ch=1 c=64 v=104
6446 Par ch=1 c=64 v=24
6450 Par ch=1 c=64 v=0
6479 Par ch=1 c=64 v=104
6483 Par ch=1 c=64 v=127
6520 On ch=1 n=g4 v=51
6527 Par ch=1 c=64 v=104
6531 Par ch=1 c=64 v=56
6535 Par ch=1 c=64 v=40
6539 Par ch=1 c=64 v=56
6543 Par ch=1 c=64 v=104
6547 Par ch=1 c=64 v=127
6605 On ch=1 n=g4 v=0
6607 On ch=1 n=f4 v=55
6699 On ch=1 n=e4 v=65
6710 On ch=1 n=f4 v=0
6713 Par ch=1 c=64 v=40
6717 Par ch=1 c=64 v=0
6729 On ch=1 n=a#4 v=0
6741 Par ch=1 c=64 v=40
6745 Par ch=1 c=64 v=104
6746 On ch=1 n=d5 v=0
6748 Par ch=1 c=64 v=127
6795 On ch=1 n=c#5 v=65
6795 On ch=1 n=a#4 v=53
6828 On ch=1 n=a#4 v=0
6843 On ch=1 n=c#5 v=0
6884 On ch=1 n=c5 v=74
6885 On ch=1 n=e4 v=0
6886 Par ch=1 c=64 v=88
6889 On ch=1 n=a4 v=51
6890 Par ch=1 c=64 v=40
6901 Par ch=1 c=64 v=127
6907 On ch=1 n=a4 v=0
6921 On ch=1 n=c5 v=0
6950 On ch=1 n=c4 v=46
6958 On ch=1 n=e4 v=47
6973 On ch=1 n=g#4 v=48
6983 Par ch=1 c=64 v=88
6987 Par ch=1 c=64 v=0
6993 On ch=1 n=b4 v=69
7019 Par ch=1 c=64 v=104
7023 Par ch=1 c=64 v=127
7025 On ch=1 n=g#4 v=0
7045 On ch=1 n=b4 v=0
7095 On ch=1 n=c5 v=60
7100 On ch=1 n=a4 v=42
7108 Par ch=1 c=64 v=56
7112 Par ch=1 c=64 v=0
7120 Par ch=1 c=64 v=24
7124 Par ch=1 c=64 v=72
7128 Par ch=1 c=64 v=127
7144 On ch=1 n=a4 v=0
7144 On ch=1 n=c5 v=0
7213 On ch=1 n=e4 v=0
7217 On ch=1 n=a#4 v=50
7221 On ch=1 n=g4 v=47
7233 Par ch=1 c=64 v=72
7237 Par ch=1 c=64 v=0
7248 Par ch=1 c=64 v=40
7253 Par ch=1 c=64 v=88
7257 Par ch=1 c=64 v=127
7273 On ch=1 n=c4 v=0
7287 On ch=1 n=g4 v=0
7294 On ch=1 n=a#4 v=0
7329 Par ch=1 c=64 v=24
7333 Par ch=1 c=64 v=0
7335 On ch=1 n=f6 v=51
7350 Par ch=1 c=64 v=88
7352 On ch=1 n=f6 v=0
7354 Par ch=1 c=64 v=127
7354 On ch=1 n=c7 v=58
7363 On ch=1 n=f4 v=46
7373 On ch=1 n=c7 v=0
7373 On ch=1 n=f7 v=69
7400 On ch=1 n=f7 v=0
7408 On ch=1 n=a7 v=81
7409 On ch=1 n=a4 v=66
7505 On ch=1 n=a7 v=0
7516 On ch=1 n=a6 v=65
7535 On ch=1 n=a4 v=0
7542 On ch=1 n=f4 v=0
7600 On ch=1 n=a7 v=87
7605 On ch=1 n=f7 v=55
7624 On ch=1 n=a7 v=0
7627 On ch=1 n=f7 v=0
7649 On ch=1 n=f3 v=55
7689 On ch=1 n=a6 v=0
7692 On ch=1 n=g7 v=72
7697 On ch=1 n=a4 v=66
7700 On ch=1 n=e7 v=51
7718 Par ch=1 c=64 v=72
7722 Par ch=1 c=64 v=0
7750 Par ch=1 c=64 v=127
7770 On ch=1 n=e7 v=0
7772 On ch=1 n=g7 v=0
7787 On ch=1 n=f7 v=77
7793 On ch=1 n=d7 v=66
7820 On ch=1 n=d7 v=0
7858 On ch=1 n=f7 v=0
7870 On ch=1 n=f6 v=72
7953 On ch=1 n=f7 v=71
7954 On ch=1 n=d7 v=65
7997 On ch=1 n=d7 v=0
8014 On ch=1 n=f7 v=0
8032 On ch=1 n=e7 v=69
8038 On ch=1 n=c7 v=61
8053 On ch=1 n=c7 v=0
8058 On ch=1 n=e7 v=0
8074 On ch=1 n=f3 v=0
8115 On ch=1 n=f6 v=0
8121 On ch=1 n=d7 v=76
8124 On ch=1 n=a#6 v=49
8134 On ch=1 n=a4 v=0
8140 On ch=1 n=a#6 v=0
8173 On ch=1 n=d7 v=0
8206 On ch=1 n=a#4 v=67
8210 On ch=1 n=f4 v=66
8212 On ch=1 n=d6 v=51
8216 On ch=1 n=f6 v=56
8226 Par ch=1 c=64 v=72
8230 Par ch=1 c=64 v=0
8255 Par ch=1 c=64 v=40
8259 Par ch=1 c=64 v=127
8269 On ch=1 n=f6 v=0
8289 On ch=1 n=d7 v=74
8291 On ch=1 n=a#6 v=56
8312 On ch=1 n=d7 v=0
8324 On ch=1 n=a#6 v=0
8372 On ch=1 n=f4 v=0
8374 On ch=1 n=a#4 v=0
8374 On ch=1 n=c7 v=77
8376 On ch=1 n=c5 v=74
8382 On ch=1 n=a6 v=51
8390 On ch=1 n=a6 v=0
8397 On ch=1 n=c7 v=0
8408 On ch=1 n=d6 v=0
8438 On ch=1 n=c5 v=0
8438 On ch=1 n=g#4 v=48
8469 On ch=1 n=d5 v=77
8469 On ch=1 n=b6 v=68
8473 On ch=1 n=f6 v=57
8474 Par ch=1 c=64 v=72
8478 Par ch=1 c=64 v=0
8510 Par ch=1 c=64 v=88
8514 Par ch=1 c=64 v=127
8539 On ch=1 n=f6 v=0
8560 On ch=1 n=d6 v=69
8568 On ch=1 n=g#4 v=0
8570 On ch=1 n=d5 v=0
8573 On ch=1 n=b6 v=0
8630 On ch=1 n=d6 v=0
8646 On ch=1 n=f5 v=67
8647 On ch=1 n=g6 v=81
8652 On ch=1 n=b5 v=50
8653 On ch=1 n=g4 v=61
8660 On ch=1 n=g4 v=0
8660 On ch=1 n=b5 v=0
8664 On ch=1 n=f5 v=0
8673 On ch=1 n=g6 v=0
8726 On ch=1 n=c4 v=48
8742 On ch=1 n=a#6 v=75
8748 Par ch=1 c=64 v=88
8750 On ch=1 n=e5 v=75
8752 On ch=1 n=g6 v=52
8752 Par ch=1 c=64 v=0
8753 On ch=1 n=c#6 v=57
8784 Par ch=1 c=64 v=72
8788 Par ch=1 c=64 v=127
8799 On ch=1 n=c#6 v=0
8835 On ch=1 n=c6 v=73
8843 On ch=1 n=c4 v=0
8852 On ch=1 n=e5 v=0
8854 On ch=1 n=a#6 v=0
8856 On ch=1 n=c6 v=0
8866 On ch=1 n=g6 v=0
8930 On ch=1 n=c7 v=80
8932 On ch=1 n=g5 v=66
8934 On ch=1 n=a#5 v=46
8942 On ch=1 n=e6 v=51
8953 On ch=1 n=e6 v=0
8958 On ch=1 n=c7 v=0
8963 On ch=1 n=a#5 v=0
8984 On ch=1 n=g5 v=0
9004 On ch=1 n=f4 v=48
9046 On ch=1 n=a5 v=69
9046 On ch=1 n=a6 v=73
9054 Par ch=1 c=64 v=72
9056 On ch=1 n=f6 v=52
9058 Par ch=1 c=64 v=0
9091 Par ch=1 c=64 v=88
9095 Par ch=1 c=64 v=127
9106 On ch=1 n=a5 v=0
9128 On ch=1 n=a6 v=0
9130 On ch=1 n=f6 v=0
9141 On ch=1 n=f4 v=0
9153 On ch=1 n=a5 v=61
9232 On ch=1 n=a6 v=74
9236 On ch=1 n=f6 v=67
9252 On ch=1 n=a6 v=0
9257 On ch=1 n=f6 v=0
9279 On ch=1 n=f3 v=51
9321 On ch=1 n=g6 v=68
9323 On ch=1 n=a4 v=68
9327 On ch=1 n=e6 v=63
9337 Par ch=1 c=64 v=56
9341 Par ch=1 c=64 v=0
9369 Par ch=1 c=64 v=104
9373 Par ch=1 c=64 v=127
9395 On ch=1 n=g6 v=0
9399 On ch=1 n=e6 v=0
9401 On ch=1 n=a5 v=0
9411 On ch=1 n=f6 v=77
9415 On ch=1 n=d6 v=59
9435 On ch=1 n=d6 v=0
9471 On ch=1 n=f6 v=0
9496 On ch=1 n=f5 v=65
9580 On ch=1 n=f6 v=76
9585 On ch=1 n=d6 v=54
9630 On ch=1 n=d6 v=0
9640 On ch=1 n=f6 v=0
9656 On ch=1 n=e6 v=70
9662 On ch=1 n=c6 v=56
9674 On ch=1 n=c6 v=0
9679 On ch=1 n=e6 v=0
9712 On ch=1 n=f3 v=0
9732 On ch=1 n=f5 v=0
9741 On ch=1 n=a4 v=0
9745 On ch=1 n=d6 v=66
9748 On ch=1 n=a#5 v=36
9778 On ch=1 n=a#5 v=0
9805 On ch=1 n=d6 v=0
9831 On ch=1 n=a#4 v=66
9838 On ch=1 n=f4 v=47
9842 On ch=1 n=d5 v=45
9844 On ch=1 n=f5 v=39
9863 Par ch=1 c=64 v=72
9867 Par ch=1 c=64 v=0
9908 Par ch=1 c=64 v=72
9910 On ch=1 n=d5 v=0
9912 Par ch=1 c=64 v=127
9916 On ch=1 n=a#5 v=59
9918 On ch=1 n=d6 v=73
9928 On ch=1 n=f5 v=0
9935 On ch=1 n=d6 v=0
9943 On ch=1 n=a#5 v=0
9998 On ch=1 n=c5 v=75
9999 On ch=1 n=f4 v=0
9999 On ch=1 n=c6 v=68
9999 On ch=1 n=a5 v=49
10010 On ch=1 n=a#4 v=0
10015 On ch=1 n=a5 v=0
10015 On ch=1 n=c6 v=0
10075 On ch=1 n=c5 v=0
10086 Par ch=1 c=64 v=72
10090 Par ch=1 c=64 v=0
10092 On ch=1 n=d5 v=77
10097 On ch=1 n=g#4 v=45
10098 On ch=1 n=b5 v=77
10100 On ch=1 n=f5 v=54
10114 Par ch=1 c=64 v=88
10118 Par ch=1 c=64 v=127
10124 On ch=1 n=d5 v=0
10153 On ch=1 n=g#4 v=0
10176 On ch=1 n=g4 v=48
10178 On ch=1 n=f5 v=0
10178 On ch=1 n=d5 v=59
10205 On ch=1 n=b5 v=0
10229 On ch=1 n=g4 v=0
10231 On ch=1 n=d5 v=0
10263 On ch=1 n=g5 v=76
10267 On ch=1 n=b4 v=47
10270 On ch=1 n=d4 v=45
10270 On ch=1 n=f4 v=43
10276 Par ch=1 c=64 v=104
10280 Par ch=1 c=64 v=56
10281 On ch=1 n=b4 v=0
10284 Par ch=1 c=64 v=24
10291 On ch=1 n=d4 v=0
10296 Par ch=1 c=64 v=88
10300 Par ch=1 c=64 v=127
10305 On ch=1 n=f4 v=0
10310 On ch=1 n=g5 v=0
10366 On ch=1 n=a#5 v=81
10373 On ch=1 n=g5 v=47
10376 On ch=1 n=e4 v=34
10377 On ch=1 n=c#4 v=39
10385 Par ch=1 c=64 v=104
10389 Par ch=1 c=64 v=0
10416 Par ch=1 c=64 v=56
10421 Par ch=1 c=64 v=127
10445 On ch=1 n=c#4 v=0
10449 On ch=1 n=e4 v=0
10459 On ch=1 n=g4 v=48
10461 On ch=1 n=e5 v=54
10492 On ch=1 n=g4 v=0
10493 On ch=1 n=g5 v=0
10495 On ch=1 n=e5 v=0
10496 On ch=1 n=a#5 v=0
10570 On ch=1 n=c6 v=73
10571 On ch=1 n=e5 v=49
10571 On ch=1 n=a#4 v=36
10576 On ch=1 n=c5 v=39
10578 On ch=1 n=c4 v=48
10588 Par ch=1 c=64 v=88
10592 Par ch=1 c=64 v=0
10613 On ch=1 n=c5 v=0
10615 On ch=1 n=c6 v=0
10617 Par ch=1 c=64 v=72
10621 On ch=1 n=e5 v=0
10621 Par ch=1 c=64 v=127
10627 On ch=1 n=c4 v=0
10643 On ch=1 n=a#4 v=0
10703 On ch=1 n=a5 v=65
10709 On ch=1 n=f5 v=46
10710 On ch=1 n=a4 v=42
10714 On ch=1 n=f4 v=41
10729 Par ch=1 c=64 v=104
10733 Par ch=1 c=64 v=0
10762 Par ch=1 c=64 v=104
10766 Par ch=1 c=64 v=127
10780 On ch=1 n=a4 v=0
10786 On ch=1 n=f4 v=0
10787 On ch=1 n=f5 v=0
10828 On ch=1 n=a4 v=58
10920 On ch=1 n=f#5 v=70
10925 On ch=1 n=d#5 v=54
10959 On ch=1 n=d#5 v=0
10961 On ch=1 n=a5 v=0
10968 On ch=1 n=f#5 v=0
10984 On ch=1 n=a4 v=0
11030 On ch=1 n=a5 v=66
11030 On ch=1 n=f5 v=56
11032 On ch=1 n=c#5 v=38
11036 On ch=1 n=f3 v=42
11043 On ch=1 n=f2 v=39
11052 Par ch=1 c=64 v=56
11056 Par ch=1 c=64 v=0
11078 On ch=1 n=c#5 v=0
11084 Par ch=1 c=64 v=40
11088 Par ch=1 c=64 v=127
11115 On ch=1 n=f5 v=0
11127 On ch=1 n=d#5 v=48
11129 On ch=1 n=c5 v=46
11194 On ch=1 n=c5 v=0
11206 On ch=1 n=d#5 v=0
11211 On ch=1 n=a4 v=50
11285 On ch=1 n=a4 v=0
11297 On ch=1 n=d#5 v=51
11303 On ch=1 n=c5 v=36
11336 On ch=1 n=c5 v=0
11377 On ch=1 n=d#5 v=0
11381 On ch=1 n=a4 v=43
11450 On ch=1 n=a5 v=0
11456 On ch=1 n=f#5 v=64
11462 On ch=1 n=d#5 v=35
11491 On ch=1 n=d#5 v=0
11493 On ch=1 n=f#5 v=0
11495 On ch=1 n=f2 v=0
11501 On ch=1 n=f3 v=0
11559 On ch=1 n=a5 v=77
11559 On ch=1 n=f5 v=57
11561 On ch=1 n=c#5 v=38
11562 On ch=1 n=f3 v=38
11570 On ch=1 n=f2 v=34
11588 Par ch=1 c=64 v=88
11592 Par ch=1 c=64 v=0
11607 On ch=1 n=c#5 v=0
11625 Par ch=1 c=64 v=56
11629 Par ch=1 c=64 v=127
11640 On ch=1 n=f5 v=0
11647 On ch=1 n=a4 v=0
11650 On ch=1 n=d#5 v=52
11654 On ch=1 n=c5 v=51
11698 On ch=1 n=c5 v=0
11735 On ch=1 n=a4 v=64
11754 On ch=1 n=a4 v=0
11754 On ch=1 n=d#5 v=0
11766 On ch=1 n=a5 v=0
11829 On ch=1 n=a#5 v=79
11830 On ch=1 n=f#5 v=58
11832 On ch=1 n=d#5 v=55
11855 Par ch=1 c=64 v=88
11859 Par ch=1 c=64 v=24
11863 Par ch=1 c=64 v=0
11874 On ch=1 n=d#5 v=0
11874 Par ch=1 c=64 v=40
11879 Par ch=1 c=64 v=127
11881 On ch=1 n=f#5 v=0
11920 On ch=1 n=f5 v=60
11923 On ch=1 n=c#5 v=49
12000 On ch=1 n=a#4 v=54
12019 On ch=1 n=c#5 v=0
12019 On ch=1 n=f5 v=0
12021 On ch=1 n=a#4 v=0
12035 On ch=1 n=a#5 v=0
12039 On ch=1 n=f2 v=0
12046 On ch=1 n=f3 v=0
12099 On ch=1 n=c6 v=81
12101 On ch=1 n=d#5 v=44
12103 On ch=1 n=f#5 v=48
12103 On ch=1 n=a5 v=61
12107 On ch=1 n=f3 v=38
12117 On ch=1 n=f2 v=42
12117 Par ch=1 c=64 v=56
12121 Par ch=1 c=64 v=0
12146 On ch=1 n=f#5 v=0
12149 Par ch=1 c=64 v=104
12151 On ch=1 n=d#5 v=0
12153 Par ch=1 c=64 v=127
12171 On ch=1 n=a5 v=0
12186 On ch=1 n=c#5 v=51
12190 On ch=1 n=f5 v=63
12221 On ch=1 n=f5 v=0
12222 On ch=1 n=c#5 v=0
12272 On ch=1 n=c5 v=60
12273 On ch=1 n=d#5 v=65
12281 On ch=1 n=c6 v=0
12291 On ch=1 n=c5 v=0
12300 On ch=1 n=d#5 v=0
12371 On ch=1 n=c#6 v=88
12375 On ch=1 n=c#5 v=50
12379 On ch=1 n=f5 v=59
12379 On ch=1 n=a#5 v=45
12388 Par ch=1 c=64 v=72
12392 Par ch=1 c=64 v=0
12408 On ch=1 n=f5 v=0
12416 Par ch=1 c=64 v=127
12426 On ch=1 n=c#5 v=0
12462 On ch=1 n=c5 v=60
12463 On ch=1 n=d#5 v=66
12464 On ch=1 n=f2 v=0
12479 On ch=1 n=f3 v=0
12497 On ch=1 n=c5 v=0
12504 On ch=1 n=d#5 v=0
12505 On ch=1 n=c#6 v=0
12547 On ch=1 n=a#4 v=45
12547 On ch=1 n=c#5 v=65
12555 On ch=1 n=f3 v=50
12556 On ch=1 n=f2 v=44
12588 On ch=1 n=a#4 v=0
12589 On ch=1 n=c#5 v=0
12590 On ch=1 n=f3 v=0
12631 On ch=1 n=f2 v=0
12641 On ch=1 n=a#4 v=47
12641 On ch=1 n=c#5 v=66
12647 Par ch=1 c=64 v=40
12651 On ch=1 n=f#3 v=47
12651 Par ch=1 c=64 v=0
12655 On ch=1 n=f#2 v=42
12675 Par ch=1 c=64 v=88
12679 Par ch=1 c=64 v=127
12682 On ch=1 n=c#5 v=0
12683 On ch=1 n=a#4 v=0
12722 On ch=1 n=a#5 v=0
12734 On ch=1 n=c6 v=91
12740 On ch=1 n=c5 v=51
12741 On ch=1 n=d#5 v=53
12745 On ch=1 n=f#2 v=0
12765 On ch=1 n=f#3 v=0
12775 On ch=1 n=c5 v=0
12784 On ch=1 n=c6 v=0
12793 On ch=1 n=d#5 v=0
12823 On ch=1 n=g2 v=48
12839 On ch=1 n=a#5 v=92
12846 On ch=1 n=c#5 v=59
12849 On ch=1 n=e5 v=51
12858 On ch=1 n=e5 v=0
12858 On ch=1 n=g3 v=52
12864 On ch=1 n=g2 v=0
12893 On ch=1 n=g3 v=0
12908 On ch=1 n=a#5 v=0
12917 On ch=1 n=c#5 v=0
12920 On ch=1 n=g#2 v=50
12966 On ch=1 n=a#5 v=80
12970 On ch=1 n=f5 v=61
12972 On ch=1 n=c#5 v=42
12974 Par ch=1 c=64 v=104
12978 Par ch=1 c=64 v=0
12979 On ch=1 n=g#3 v=47
13010 Par ch=1 c=64 v=127
13028 On ch=1 n=g#2 v=0
13040 On ch=1 n=g#3 v=0
13046 On ch=1 n=c#5 v=0
13069 On ch=1 n=g#4 v=49
13102 On ch=1 n=f5 v=0
13109 On ch=1 n=g#4 v=0
13121 On ch=1 n=a#5 v=0
13149 On ch=1 n=c#4 v=49
13149 On ch=1 n=g#5 v=67
13149 On ch=1 n=f5 v=53
13157 On ch=1 n=c#4 v=0
13159 On ch=1 n=c#5 v=52
13192 On ch=1 n=c#5 v=0
13216 Par ch=1 c=64 v=40
13218 On ch=1 n=g#2 v=57
13220 Par ch=1 c=64 v=0
13234 On ch=1 n=g#2 v=0
13236 Par ch=1 c=64 v=72
13237 On ch=1 n=f5 v=0
13237 On ch=1 n=g#5 v=0
13240 Par ch=1 c=64 v=127
13250 On ch=1 n=a#5 v=86
13256 On ch=1 n=b4 v=60
13256 On ch=1 n=f5 v=63
13262 On ch=1 n=d4 v=56
13273 On ch=1 n=b4 v=0
13334 On ch=1 n=a#5 v=0
13343 On ch=1 n=g#4 v=56
13363 On ch=1 n=f5 v=0
13373 On ch=1 n=g#4 v=0
13421 On ch=1 n=g#5 v=76
13427 On ch=1 n=g#3 v=49
13429 On ch=1 n=f5 v=54
13429 On ch=1 n=b4 v=51
13435 On ch=1 n=d4 v=0
13439 On ch=1 n=g#3 v=0
13449 On ch=1 n=b4 v=0
13449 On ch=1 n=f5 v=0
13466 On ch=1 n=g#5 v=0
13489 On ch=1 n=g#2 v=59
13492 Par ch=1 c=64 v=24
13496 Par ch=1 c=64 v=0
13506 On ch=1 n=g#2 v=0
13516 Par ch=1 c=64 v=88
13520 Par ch=1 c=64 v=127
13521 On ch=1 n=a#5 v=78
13526 On ch=1 n=f#5 v=55
13527 On ch=1 n=c5 v=50
13535 On ch=1 n=d#4 v=65
13538 On ch=1 n=c5 v=0
13572 On ch=1 n=a#5 v=0
13597 On ch=1 n=f#5 v=0
13615 On ch=1 n=g#5 v=76
13619 On ch=1 n=g#4 v=63
13683 On ch=1 n=g#5 v=0
13692 On ch=1 n=g#4 v=0
13698 On ch=1 n=f#5 v=76
13703 On ch=1 n=g#3 v=33
13708 On ch=1 n=c5 v=50
13714 On ch=1 n=d#4 v=0
13715 On ch=1 n=g#3 v=0
13754 Par ch=1 c=64 v=72
13758 Par ch=1 c=64 v=0
13764 On ch=1 n=f#5 v=0
13764 On ch=1 n=g#2 v=43
13772 On ch=1 n=c5 v=0
13774 Par ch=1 c=64 v=56
13778 Par ch=1 c=64 v=127
13784 On ch=1 n=g#2 v=0
13789 On ch=1 n=f#5 v=81
13793 On ch=1 n=c4 v=47
13793 On ch=1 n=g#4 v=52
13835 On ch=1 n=f#5 v=0
13850 On ch=1 n=g#5 v=75
13868 On ch=1 n=f#5 v=72
13870 On ch=1 n=g#4 v=0
13870 On ch=1 n=c4 v=0
13882 On ch=1 n=g#5 v=0
13899 On ch=1 n=f#5 v=0
13902 On ch=1 n=f5 v=79
13909 On ch=1 n=g#3 v=45
13915 Par ch=1 c=64 v=72
13919 Par ch=1 c=64 v=0
13944 Par ch=1 c=64 v=104
13948 Par ch=1 c=64 v=127
13949 On ch=1 n=g#3 v=0
13956 On ch=1 n=f5 v=0
13984 On ch=1 n=g#2 v=45
14012 On ch=1 n=g#2 v=0
14022 On ch=1 n=d#5 v=72
14027 On ch=1 n=f#4 v=50
14028 On ch=1 n=g#4 v=52
14040 On ch=1 n=c4 v=46
14046 Par ch=1 c=64 v=104
14050 Par ch=1 c=64 v=24
14054 Par ch=1 c=64 v=0
14062 Par ch=1 c=64 v=40
14066 Par ch=1 c=64 v=104
14070 Par ch=1 c=64 v=127
14078 On ch=1 n=c4 v=0
14080 On ch=1 n=f#4 v=0
14096 On ch=1 n=d#5 v=0
14102 On ch=1 n=g#4 v=0
14119 On ch=1 n=c#3 v=39
14135 On ch=1 n=g#3 v=42
14152 On ch=1 n=c#5 v=63
14158 On ch=1 n=f4 v=54
14158 Par ch=1 c=64 v=88
14162 Par ch=1 c=64 v=0
14167 On ch=1 n=c#4 v=38
14195 Par ch=1 c=64 v=104
14199 Par ch=1 c=64 v=127
14201 On ch=1 n=c#3 v=0
14212 On ch=1 n=c#4 v=0
14214 On ch=1 n=f4 v=0
14217 On ch=1 n=g#3 v=0
14222 On ch=1 n=c#5 v=0
14288 On ch=1 n=c#4 v=52
14304 Par ch=1 c=67 v=127
14313 On ch=1 n=c#4 v=0
14388 On ch=1 n=f5 v=54
14392 On ch=1 n=c#5 v=35
14419 On ch=1 n=f5 v=0
14438 On ch=1 n=c#5 v=0
14491 On ch=1 n=f6 v=78
14495 On ch=1 n=f5 v=52
14499 On ch=1 n=d#5 v=33
14502 On ch=1 n=c5 v=38
14522 Par ch=1 c=64 v=72
14522 Par ch=1 c=67 v=0
14526 Par ch=1 c=64 v=0
14530 Par ch=1 c=67 v=127
14557 On ch=1 n=c5 v=0
14558 Par ch=1 c=64 v=88
14558 Par ch=1 c=67 v=0
14562 Par ch=1 c=64 v=127
14586 On ch=1 n=c#5 v=53
14586 On ch=1 n=a#4 v=36
14600 On ch=1 n=d#5 v=0
14604 On ch=1 n=a#4 v=0
14611 On ch=1 n=c#5 v=0
14677 On ch=1 n=c#4 v=53
14760 On ch=1 n=c#5 v=47
14762 On ch=1 n=a#4 v=46
14792 On ch=1 n=a#4 v=0
14800 On ch=1 n=c#5 v=0
14852 On ch=1 n=c5 v=44
14854 On ch=1 n=g#4 v=38
14882 On ch=1 n=c5 v=0
14919 On ch=1 n=g#4 v=0
14938 On ch=1 n=a#4 v=45
14945 Par ch=1 c=64 v=104
14948 On ch=1 n=f#4 v=39
14949 Par ch=1 c=64 v=40
14953 Par ch=1 c=64 v=0
14969 Par ch=1 c=64 v=56
14973 Par ch=1 c=64 v=127
14979 On ch=1 n=f5 v=0
14982 On ch=1 n=c#4 v=0
14983 On ch=1 n=f6 v=0
15002 On ch=1 n=f#4 v=0
15018 On ch=1 n=a#4 v=0
15036 On ch=1 n=f#6 v=85
15038 On ch=1 n=f#5 v=68
15040 On ch=1 n=c#4 v=47
15062 Par ch=1 c=64 v=104
15066 Par ch=1 c=64 v=40
15070 Par ch=1 c=64 v=0
15098 Par ch=1 c=64 v=56
15101 Par ch=1 c=64 v=127
15123 On ch=1 n=f#5 v=0
15128 On ch=1 n=a#4 v=39
15131 On ch=1 n=f#4 v=42
15156 On ch=1 n=a#4 v=0
15171 On ch=1 n=f#4 v=0
15212 On ch=1 n=g#6 v=87
15213 On ch=1 n=f#6 v=0
15216 On ch=1 n=g#5 v=67
15217 On ch=1 n=g#4 v=31
15219 Par ch=1 c=64 v=72
15223 Par ch=1 c=64 v=0
15227 On ch=1 n=f4 v=39
15238 On ch=1 n=f4 v=0
15243 Par ch=1 c=64 v=72
15247 Par ch=1 c=64 v=127
15251 On ch=1 n=g#5 v=0
15261 On ch=1 n=g#4 v=0
15300 On ch=1 n=g#6 v=0
15306 On ch=1 n=a#6 v=86
15309 On ch=1 n=a#5 v=67
15309 On ch=1 n=e4 v=50
15315 On ch=1 n=g4 v=44
15329 Par ch=1 c=64 v=88
15333 Par ch=1 c=64 v=0
15335 On ch=1 n=e4 v=0
15342 On ch=1 n=c#4 v=0
15361 Par ch=1 c=64 v=72
15365 Par ch=1 c=64 v=127
15395 On ch=1 n=c#4 v=52
15399 On ch=1 n=a#5 v=0
15409 On ch=1 n=a#6 v=0
15430 On ch=1 n=c#4 v=0
15475 On ch=1 n=c#7 v=91
15476 On ch=1 n=a#3 v=52
15478 On ch=1 n=c#6 v=74
15500 On ch=1 n=g4 v=0
15518 On ch=1 n=a#3 v=0
15535 On ch=1 n=c#6 v=0
15539 On ch=1 n=c#7 v=0
15572 On ch=1 n=c7 v=91
15575 On ch=1 n=c6 v=78
15577 On ch=1 n=a3 v=55
15577 On ch=1 n=f#4 v=33
15580 Par ch=1 c=64 v=24
15584 On ch=1 n=d#4 v=45
15584 Par ch=1 c=64 v=0
15600 Par ch=1 c=64 v=56
15604 Par ch=1 c=64 v=127
15605 On ch=1 n=c6 v=0
15606 On ch=1 n=a3 v=0
15618 On ch=1 n=c7 v=0
15668 On ch=1 n=d#7 v=88
15669 On ch=1 n=d#6 v=71
15678 On ch=1 n=g#3 v=36
15698 On ch=1 n=d#6 v=0
15710 On ch=1 n=f#4 v=0
15721 On ch=1 n=d#4 v=0
15758 On ch=1 n=g#3 v=0
15766 On ch=1 n=g#7 v=92
15768 On ch=1 n=g#6 v=70
15770 On ch=1 n=d#7 v=0
15773 On ch=1 n=c4 v=57
15775 On ch=1 n=g#4 v=52
15800 On ch=1 n=c4 v=0
15816 On ch=1 n=g#7 v=0
15821 On ch=1 n=g#6 v=0
15851 On ch=1 n=g#4 v=0
15883 On ch=1 n=f7 v=79
15886 On ch=1 n=f6 v=65
15895 On ch=1 n=f4 v=53
15900 On ch=1 n=c#4 v=46
15903 Par ch=1 c=64 v=88
15907 Par ch=1 c=64 v=0
15935 Par ch=1 c=64 v=127
15944 On ch=1 n=f4 v=0
15947 On ch=1 n=c#4 v=0
16004 On ch=1 n=c#3 v=52
16025 On ch=1 n=c#3 v=0
16093 On ch=1 n=f4 v=58
16094 On ch=1 n=c#4 v=48
16127 On ch=1 n=f4 v=0
16141 On ch=1 n=f6 v=0
16144 On ch=1 n=c#4 v=0
16159 On ch=1 n=f7 v=0
16188 On ch=1 n=f7 v=78
16190 On ch=1 n=f6 v=65
16192 On ch=1 n=d#4 v=38
16198 On ch=1 n=c4 v=56
16213 Par ch=1 c=64 v=40
16217 Par ch=1 c=64 v=0
16246 Par ch=1 c=64 v=88
16250 Par ch=1 c=64 v=127
16262 Par ch=1 c=64 v=72
16265 On ch=1 n=c4 v=0
16266 Par ch=1 c=64 v=40
16270 Par ch=1 c=64 v=0
16273 Par ch=1 c=64 v=24
16277 On ch=1 n=a#3 v=49
16278 Par ch=1 c=64 v=72
16282 On ch=1 n=c#4 v=57
16282 Par ch=1 c=64 v=127
16302 On ch=1 n=a#3 v=0
16306 On ch=1 n=d#4 v=0
16314 On ch=1 n=c#4 v=0
16364 On ch=1 n=c#3 v=49
16444 On ch=1 n=c#4 v=52
16444 On ch=1 n=a#3 v=55
16455 Par ch=1 c=64 v=72
16459 Par ch=1 c=64 v=0
16471 Par ch=1 c=64 v=24
16475 Par ch=1 c=64 v=72
16480 Par ch=1 c=64 v=127
16492 On ch=1 n=a#3 v=0
16502 On ch=1 n=c#4 v=0
16533 On ch=1 n=c4 v=65
16536 On ch=1 n=g#3 v=50
16540 Par ch=1 c=64 v=88
16552 Par ch=1 c=64 v=127
16566 On ch=1 n=c4 v=0
16599 On ch=1 n=g#3 v=0
16616 Par ch=1 c=64 v=104
16618 On ch=1 n=a#3 v=52
16621 Par ch=1 c=64 v=24
16624 On ch=1 n=f#3 v=51
16624 Par ch=1 c=64 v=0
16634 Par ch=1 c=64 v=56
16638 Par ch=1 c=64 v=127
16640 On ch=1 n=c#3 v=0
16646 On ch=1 n=f6 v=0
16651 On ch=1 n=f7 v=0
16660 On ch=1 n=f#3 v=0
16682 On ch=1 n=a#3 v=0
16703 On ch=1 n=c#3 v=46
16711 On ch=1 n=f#7 v=90
16714 On ch=1 n=f#6 v=72
16781 On ch=1 n=f#6 v=0
16799 On ch=1 n=a#3 v=53
16802 On ch=1 n=f#3 v=50
16803 Par ch=1 c=64 v=88
16807 Par ch=1 c=64 v=24
16810 Par ch=1 c=64 v=0
16818 Par ch=1 c=64 v=56
16823 Par ch=1 c=64 v=127
16830 On ch=1 n=a#3 v=0
16850 On ch=1 n=f#3 v=0
16872 On ch=1 n=f#7 v=0
16886 On ch=1 n=g#7 v=94
16887 On ch=1 n=g#6 v=76
16889 On ch=1 n=g#3 v=40
16896 On ch=1 n=f3 v=45
16921 On ch=1 n=f3 v=0
16925 On ch=1 n=g#6 v=0
16954 On ch=1 n=g#3 v=0
16973 On ch=1 n=g#7 v=0
16981 On ch=1 n=a#7 v=93
16982 On ch=1 n=a#6 v=84
16985 On ch=1 n=c#3 v=0
16985 On ch=1 n=g3 v=55
16986 On ch=1 n=e3 v=45
16997 Par ch=1 c=64 v=24
17001 Par ch=1 c=64 v=0
17029 Par ch=1 c=64 v=127
17060 On ch=1 n=a#6 v=0
17063 On ch=1 n=g3 v=0
17064 On ch=1 n=c#3 v=50
17066 On ch=1 n=e3 v=0
17076 On ch=1 n=a#7 v=0
17149 On ch=1 n=c#8 v=99
17150 On ch=1 n=a#3 v=48
17152 On ch=1 n=c#7 v=84
17193 On ch=1 n=a#3 v=0
17201 On ch=1 n=c#7 v=0
17211 On ch=1 n=c#8 v=0
17225 On ch=1 n=c#3 v=0
17245 On ch=1 n=c8 v=96
17247 On ch=1 n=c7 v=84
17253 On ch=1 n=a3 v=49
17253 On ch=1 n=d#3 v=39
17256 On ch=1 n=f#3 v=29
17257 Par ch=1 c=64 v=56
17261 Par ch=1 c=64 v=0
17293 Par ch=1 c=64 v=104
17296 Par ch=1 c=64 v=127
17335 On ch=1 n=f#3 v=0
17338 On ch=1 n=a3 v=0
17343 On ch=1 n=c#3 v=42
17347 On ch=1 n=c7 v=0
17355 On ch=1 n=d#3 v=0
17360 On ch=1 n=c8 v=0
17436 On ch=1 n=d#8 v=93
17439 On ch=1 n=d#7 v=78
17444 On ch=1 n=c4 v=56
17445 On ch=1 n=g#3 v=45
17461 On ch=1 n=c#3 v=0
17502 On ch=1 n=c4 v=0
17502 On ch=1 n=d#7 v=0
17543 On ch=1 n=d#8 v=0
17543 On ch=1 n=g#3 v=0
17562 On ch=1 n=f8 v=86
17563 On ch=1 n=f7 v=71
17572 On ch=1 n=c#3 v=49
17579 Par ch=1 c=64 v=40
17583 Par ch=1 c=64 v=0
17612 Par ch=1 c=64 v=127
17617 On ch=1 n=c#3 v=0
17685 On ch=1 n=f3 v=53
17771 On ch=1 n=f4 v=61
17773 On ch=1 n=c#4 v=48
17804 On ch=1 n=f4 v=0
17811 On ch=1 n=c#4 v=0
17826 On ch=1 n=f7 v=0
17834 On ch=1 n=f8 v=0
17862 On ch=1 n=f8 v=80
17864 On ch=1 n=f7 v=69
17866 On ch=1 n=d#4 v=53
17876 On ch=1 n=c4 v=44
17893 Par ch=1 c=64 v=104
17897 Par ch=1 c=64 v=40
17902 Par ch=1 c=64 v=0
17921 On ch=1 n=d#4 v=0
17938 Par ch=1 c=64 v=40
17942 Par ch=1 c=64 v=104
17946 Par ch=1 c=64 v=127
17953 On ch=1 n=c4 v=0
17955 On ch=1 n=c#4 v=48
17957 On ch=1 n=a#3 v=46
17982 On ch=1 n=f3 v=0
17996 On ch=1 n=a#3 v=0
18046 On ch=1 n=f3 v=42
18051 Par ch=1 c=64 v=88
18055 Par ch=1 c=64 v=40
18059 Par ch=1 c=64 v=0
18075 Par ch=1 c=64 v=56
18079 Par ch=1 c=64 v=127
18095 On ch=1 n=c#4 v=0
18137 On ch=1 n=c4 v=60
18140 On ch=1 n=a3 v=43
18143 Par ch=1 c=64 v=72
18145 On ch=1 n=f3 v=0
18147 Par ch=1 c=64 v=0
18164 Par ch=1 c=64 v=40
18168 Par ch=1 c=64 v=127
18194 On ch=1 n=a3 v=0
18200 On ch=1 n=c4 v=0
18222 On ch=1 n=f3 v=52
18305 On ch=1 n=d#4 v=70
18305 On ch=1 n=f#4 v=59
18339 On ch=1 n=d#4 v=0
18345 On ch=1 n=f7 v=0
18360 On ch=1 n=f#4 v=0
18369 On ch=1 n=f8 v=0
18405 On ch=1 n=f8 v=92
18406 On ch=1 n=f7 v=77
18409 On ch=1 n=f4 v=60
18411 On ch=1 n=c#4 v=55
18414 Par ch=1 c=64 v=72
18418 Par ch=1 c=64 v=0
18447 Par ch=1 c=64 v=40
18449 On ch=1 n=c#4 v=0
18449 On ch=1 n=f4 v=0
18451 Par ch=1 c=64 v=127
18498 On ch=1 n=d#4 v=59
18503 On ch=1 n=c4 v=65
18510 On ch=1 n=f3 v=0
18558 On ch=1 n=c4 v=0
18563 On ch=1 n=d#4 v=0
18585 On ch=1 n=f3 v=50
18604 Par ch=1 c=64 v=40
18608 Par ch=1 c=64 v=0
18624 Par ch=1 c=64 v=56
18628 Par ch=1 c=64 v=127
18660 Par ch=1 c=64 v=104
18664 Par ch=1 c=64 v=56
18668 On ch=1 n=c#4 v=52
18668 Par ch=1 c=64 v=24
18672 On ch=1 n=a#3 v=52
18672 Par ch=1 c=64 v=40
18676 Par ch=1 c=64 v=88
18680 On ch=1 n=f3 v=0
18680 Par ch=1 c=64 v=127
18746 On ch=1 n=a#3 v=0
18747 On ch=1 n=c#4 v=0
18755 On ch=1 n=f3 v=57
18762 On ch=1 n=f3 v=0
18804 On ch=1 n=f8 v=0
18819 On ch=1 n=f7 v=0
18852 On ch=1 n=f5 v=58
18854 On ch=1 n=c#5 v=51
18885 On ch=1 n=f5 v=0
18902 On ch=1 n=c#5 v=0
18941 On ch=1 n=f7 v=88
18943 On ch=1 n=f6 v=75
18948 On ch=1 n=d#5 v=51
18955 On ch=1 n=c5 v=56
18974 Par ch=1 c=64 v=40
18978 Par ch=1 c=64 v=0
19002 Par ch=1 c=64 v=72
19006 On ch=1 n=d#5 v=0
19006 Par ch=1 c=64 v=127
19030 On ch=1 n=c5 v=0
19034 On ch=1 n=c#5 v=61
19040 On ch=1 n=a#4 v=38
19072 On ch=1 n=a#4 v=0
19107 On ch=1 n=c#5 v=0
19119 On ch=1 n=f4 v=51
19204 On ch=1 n=c5 v=63
19206 On ch=1 n=a4 v=56
19207 On ch=1 n=f4 v=0
19212 Par ch=1 c=64 v=72
19216 Par ch=1 c=64 v=0
19239 Par ch=1 c=64 v=56
19243 Par ch=1 c=64 v=127
19270 On ch=1 n=c5 v=0
19286 On ch=1 n=a4 v=0
19291 On ch=1 n=f4 v=60
19373 On ch=1 n=f#5 v=71
19375 On ch=1 n=d#5 v=65
19422 On ch=1 n=f6 v=0
19423 On ch=1 n=d#5 v=0
19429 On ch=1 n=f#5 v=0
19435 On ch=1 n=f7 v=0
19474 On ch=1 n=f7 v=88
19477 On ch=1 n=f6 v=72
19483 On ch=1 n=f5 v=48
19484 On ch=1 n=c#5 v=48
19494 Par ch=1 c=64 v=88
19498 Par ch=1 c=64 v=0
19522 On ch=1 n=f5 v=0
19526 Par ch=1 c=64 v=56
19529 On ch=1 n=c#5 v=0
19530 Par ch=1 c=64 v=127
19573 On ch=1 n=d#5 v=50
19575 On ch=1 n=c5 v=55
19587 On ch=1 n=f4 v=0
19645 On ch=1 n=c5 v=0
19646 On ch=1 n=d#5 v=0
19661 On ch=1 n=f4 v=56
19746 On ch=1 n=d#5 v=55
19753 On ch=1 n=c5 v=57
19782 On ch=1 n=d#5 v=0
19803 On ch=1 n=c5 v=0
19844 On ch=1 n=c#5 v=49
19848 On ch=1 n=a#4 v=51
19849 Par ch=1 c=64 v=56
19853 Par ch=1 c=64 v=0
19857 On ch=1 n=f4 v=0
19865 Par ch=1 c=64 v=88
19869 Par ch=1 c=64 v=127
19912 On ch=1 n=f7 v=0
19917 On ch=1 n=a#4 v=0
19925 On ch=1 n=f6 v=0
19934 On ch=1 n=c#5 v=0
19935 On ch=1 n=f4 v=48
20028 On ch=1 n=f6 v=73
20031 On ch=1 n=f5 v=55
20037 On ch=1 n=c#5 v=37
20041 On ch=1 n=a#4 v=32
20051 Par ch=1 c=64 v=40
20055 Par ch=1 c=64 v=0
20079 Par ch=1 c=64 v=40
20083 Par ch=1 c=64 v=127
20090 On ch=1 n=c#5 v=0
20100 On ch=1 n=a#4 v=0
20105 Par ch=1 c=64 v=88
20109 Par ch=1 c=64 v=0
20121 On ch=1 n=c5 v=56
20121 On ch=1 n=a4 v=43
20128 On ch=1 n=f4 v=0
20128 Par ch=1 c=64 v=104
20133 Par ch=1 c=64 v=127
20140 On ch=1 n=c5 v=0
20140 On ch=1 n=a4 v=0
20210 On ch=1 n=f3 v=58
20221 On ch=1 n=f3 v=0
20286 On ch=1 n=f5 v=0
20307 On ch=1 n=c5 v=47
20314 On ch=1 n=a4 v=39
20341 On ch=1 n=c5 v=0
20356 On ch=1 n=a4 v=0
20402 On ch=1 n=a#4 v=42
20405 On ch=1 n=g4 v=48
20419 Par ch=1 c=64 v=24
20423 Par ch=1 c=64 v=0
20444 On ch=1 n=g4 v=0
20448 Par ch=1 c=64 v=127
20470 On ch=1 n=a#4 v=0
20516 On ch=1 n=f3 v=54
20537 On ch=1 n=f3 v=0
20576 On ch=1 n=f6 v=0
20626 On ch=1 n=f6 v=69
20630 On ch=1 n=f5 v=51
20632 On ch=1 n=d#5 v=39
20640 On ch=1 n=c5 v=35
20649 Par ch=1 c=64 v=40
20653 Par ch=1 c=64 v=0
20673 Par ch=1 c=64 v=88
20678 Par ch=1 c=64 v=127
20694 On ch=1 n=d#5 v=0
20704 On ch=1 n=c5 v=0
20760 On ch=1 n=c#5 v=37
20761 On ch=1 n=a#4 v=35
20773 Par ch=1 c=64 v=72
20778 Par ch=1 c=64 v=0
20798 Par ch=1 c=64 v=88
20802 Par ch=1 c=64 v=127
20818 On ch=1 n=a#4 v=0
20820 On ch=1 n=c#5 v=0
20915 On ch=1 n=f3 v=39
20948 On ch=1 n=f3 v=0
20967 On ch=1 n=f5 v=0
21034 On ch=1 n=f6 v=0
21151 On ch=1 n=a6 v=68
21157 On ch=1 n=a5 v=48
21159 On ch=1 n=f6 v=51
21159 On ch=1 n=f5 v=32
21163 On ch=1 n=f4 v=34
21166 On ch=1 n=c5 v=35
21182 Par ch=1 c=64 v=72
21186 Par ch=1 c=64 v=0
21214 Par ch=1 c=64 v=104
21218 Par ch=1 c=64 v=127
21225 On ch=1 n=f4 v=0
21227 On ch=1 n=c5 v=0
21228 On ch=1 n=f5 v=0
21234 On ch=1 n=f6 v=0
21237 On ch=1 n=a5 v=0
21258 On ch=1 n=a6 v=0
21305 On ch=1 n=c6 v=72
21309 On ch=1 n=a5 v=50
21312 On ch=1 n=c5 v=23
21312 On ch=1 n=f5 v=31
21318 On ch=1 n=f4 v=26
21333 On ch=1 n=a5 v=0
21340 On ch=1 n=c5 v=0
21341 On ch=1 n=c6 v=0
21342 On ch=1 n=f4 v=0
21343 On ch=1 n=f5 v=0
21399 On ch=1 n=a6 v=77
21404 On ch=1 n=a5 v=44
21404 On ch=1 n=f5 v=34
21405 On ch=1 n=c6 v=53
21406 On ch=1 n=c5 v=35
21409 On ch=1 n=f4 v=25
21423 On ch=1 n=a6 v=0
21428 On ch=1 n=c6 v=0
21432 On ch=1 n=c5 v=0
21432 On ch=1 n=a5 v=0
21436 On ch=1 n=f5 v=0
21437 On ch=1 n=f4 v=0
21492 On ch=1 n=g6 v=75
21494 On ch=1 n=e5 v=47
21494 On ch=1 n=g5 v=44
21495 On ch=1 n=c#6 v=46
21498 On ch=1 n=a#5 v=38
21504 On ch=1 n=f4 v=28
21511 Par ch=1 c=64 v=72
21516 Par ch=1 c=64 v=0
21526 On ch=1 n=c#6 v=0
21529 Par ch=1 c=64 v=56
21533 On ch=1 n=g5 v=0
21533 Par ch=1 c=64 v=127
21537 On ch=1 n=g6 v=0
21539 On ch=1 n=e5 v=0
21547 On ch=1 n=f4 v=0
21549 On ch=1 n=a#5 v=0
21600 On ch=1 n=f6 v=68
21602 On ch=1 n=f5 v=40
21603 On ch=1 n=d6 v=46
21603 On ch=1 n=a#5 v=35
21610 On ch=1 n=d5 v=37
21612 On ch=1 n=f4 v=29
21618 Par ch=1 c=64 v=104
21622 Par ch=1 c=64 v=40
21626 Par ch=1 c=64 v=0
21642 Par ch=1 c=64 v=88
21646 Par ch=1 c=64 v=127
21655 On ch=1 n=d5 v=0
21656 On ch=1 n=f5 v=0
21656 On ch=1 n=f4 v=0
21663 On ch=1 n=a#5 v=0
21667 On ch=1 n=d6 v=0
21677 On ch=1 n=f6 v=0
21706 On ch=1 n=a#5 v=72
21711 On ch=1 n=d5 v=46
21712 On ch=1 n=f5 v=36
21716 On ch=1 n=f4 v=37
21721 On ch=1 n=f5 v=0
21739 On ch=1 n=a#5 v=0
21745 On ch=1 n=f4 v=0
21748 On ch=1 n=d5 v=0
21793 On ch=1 n=f6 v=81
21795 Par ch=1 c=64 v=104
21799 On ch=1 n=g#5 v=48
21799 Par ch=1 c=64 v=40
21801 On ch=1 n=b5 v=59
21802 On ch=1 n=f5 v=46
21804 Par ch=1 c=64 v=0
21807 On ch=1 n=d5 v=44
21810 On ch=1 n=f4 v=45
21820 On ch=1 n=g#5 v=0
21820 Par ch=1 c=64 v=40
21824 Par ch=1 c=64 v=104
21828 On ch=1 n=f6 v=0
21828 On ch=1 n=b5 v=0
21828 Par ch=1 c=64 v=127
21829 On ch=1 n=f5 v=0
21838 On ch=1 n=f4 v=0
21840 On ch=1 n=d5 v=0
21884 On ch=1 n=e6 v=81
21884 Par ch=1 c=64 v=56
21888 Par ch=1 c=64 v=24
21890 On ch=1 n=a5 v=55
21891 On ch=1 n=c5 v=43
21891 On ch=1 n=e5 v=39
21894 On ch=1 n=c6 v=35
21901 Par ch=1 c=64 v=104
21901 On ch=1 n=f4 v=47
21905 Par ch=1 c=64 v=127
21907 On ch=1 n=c6 v=0
21911 On ch=1 n=a5 v=0
21914 On ch=1 n=e6 v=0
21914 On ch=1 n=c5 v=0
21919 On ch=1 n=e5 v=0
21927 On ch=1 n=f4 v=0
21982 On ch=1 n=d6 v=72
21989 On ch=1 n=a#5 v=46
21989 Par ch=1 c=64 v=88
21990 On ch=1 n=f5 v=40
21990 On ch=1 n=d5 v=34
21993 Par ch=1 c=64 v=0
21994 On ch=1 n=a#4 v=35
21995 On ch=1 n=f4 v=28
22004 On ch=1 n=f5 v=0
22021 Par ch=1 c=64 v=56
22023 On ch=1 n=d5 v=0
22025 Par ch=1 c=64 v=127
22031 On ch=1 n=f4 v=0
22037 On ch=1 n=a#4 v=0
22049 On ch=1 n=d6 v=0
22054 On ch=1 n=a#5 v=0
22075 On ch=1 n=f5 v=71
22078 On ch=1 n=a#4 v=37
22085 On ch=1 n=f4 v=39
22097 On ch=1 n=f4 v=0
22099 On ch=1 n=f5 v=0
22107 On ch=1 n=a#4 v=0
22157 On ch=1 n=d6 v=81
22158 On ch=1 n=f5 v=66
22164 On ch=1 n=d5 v=36
22165 On ch=1 n=a#4 v=34
22169 On ch=1 n=f4 v=34
22180 On ch=1 n=f5 v=0
22188 On ch=1 n=f4 v=0
22189 On ch=1 n=d6 v=0
22190 On ch=1 n=d5 v=0
22201 On ch=1 n=a#4 v=0
22243 Par ch=1 c=64 v=104
22247 On ch=1 n=c6 v=82
22247 Par ch=1 c=64 v=40
22250 On ch=1 n=d#5 v=38
22251 On ch=1 n=f4 v=49
22252 Par ch=1 c=64 v=0
22252 On ch=1 n=f5 v=64
22258 On ch=1 n=a4 v=39
22267 Par ch=1 c=64 v=40
22271 On ch=1 n=f5 v=0
22271 Par ch=1 c=64 v=88
22276 Par ch=1 c=64 v=127
22282 On ch=1 n=a4 v=0
22284 On ch=1 n=f4 v=0
22293 On ch=1 n=d#5 v=0
22304 On ch=1 n=c6 v=0
22343 On ch=1 n=b5 v=73
22348 On ch=1 n=f5 v=44
22349 On ch=1 n=d5 v=45
22350 On ch=1 n=g#4 v=46
22352 Par ch=1 c=64 v=104
22355 On ch=1 n=b4 v=43
22356 Par ch=1 c=64 v=40
22360 Par ch=1 c=64 v=0
22377 Par ch=1 c=64 v=24
22381 Par ch=1 c=64 v=88
22385 On ch=1 n=g#4 v=0
22385 Par ch=1 c=64 v=127
22387 On ch=1 n=f5 v=0
22434 On ch=1 n=g5 v=56
22438 On ch=1 n=e5 v=52
22441 Par ch=1 c=64 v=88
22443 On ch=1 n=g4 v=43
22443 On ch=1 n=e4 v=38
22445 Par ch=1 c=64 v=72
22449 On ch=1 n=b4 v=0
22449 Par ch=1 c=64 v=104
22453 On ch=1 n=g4 v=0
22453 On ch=1 n=e4 v=0
22453 Par ch=1 c=64 v=127
22469 On ch=1 n=e5 v=0
22519 On ch=1 n=g5 v=0
22520 On ch=1 n=f5 v=67
22520 On ch=1 n=d5 v=48
22529 On ch=1 n=f4 v=49
22529 On ch=1 n=d4 v=43
22543 On ch=1 n=d5 v=0
22551 On ch=1 n=b5 v=0
22553 On ch=1 n=f4 v=0
22553 On ch=1 n=d4 v=0
22556 On ch=1 n=d5 v=0
22556 On ch=1 n=f5 v=0
22617 On ch=1 n=a#5 v=82
22619 On ch=1 n=c#5 v=33
22619 On ch=1 n=f5 v=51
22620 On ch=1 n=a#4 v=42
22621 On ch=1 n=c#4 v=29
22621 On ch=1 n=f4 v=32
22631 Par ch=1 c=64 v=56
22658 On ch=1 n=f5 v=0
22658 Par ch=1 c=64 v=56
22663 Par ch=1 c=64 v=127
22666 On ch=1 n=c#4 v=0
22666 On ch=1 n=f4 v=0
22677 On ch=1 n=c#5 v=0
22704 On ch=1 n=a#4 v=0
22727 Par ch=1 c=64 v=88
22729 On ch=1 n=e5 v=46
22730 On ch=1 n=c5 v=42
22731 On ch=1 n=c4 v=43
22731 Par ch=1 c=64 v=0
22732 On ch=1 n=e4 v=45
22747 On ch=1 n=c5 v=0
22757 Par ch=1 c=64 v=88
22758 On ch=1 n=c4 v=0
22759 On ch=1 n=e4 v=0
22761 Par ch=1 c=64 v=127
22769 On ch=1 n=e5 v=0
22790 On ch=1 n=a#5 v=0
22829 On ch=1 n=c6 v=70
22833 On ch=1 n=c5 v=37
22833 Par ch=1 c=64 v=72
22837 On ch=1 n=e4 v=45
22838 On ch=1 n=e5 v=47
22838 Par ch=1 c=64 v=56
22841 Par ch=1 c=64 v=72
22841 On ch=1 n=g4 v=35
22845 Par ch=1 c=64 v=104
22849 Par ch=1 c=64 v=127
22856 On ch=1 n=c5 v=0
22860 On ch=1 n=e5 v=0
22864 On ch=1 n=e4 v=0
22879 On ch=1 n=g4 v=0
22923 On ch=1 n=c6 v=0
22964 On ch=1 n=a5 v=60
22971 On ch=1 n=f5 v=40
22974 On ch=1 n=a4 v=42
22978 Par ch=1 c=64 v=88
22979 On ch=1 n=f4 v=36
22982 Par ch=1 c=64 v=40
22986 Par ch=1 c=64 v=0
23019 Par ch=1 c=64 v=127
23022 On ch=1 n=f5 v=0
23023 On ch=1 n=f4 v=0
23030 On ch=1 n=a4 v=0
23032 On ch=1 n=a5 v=0
23101 On ch=1 n=c6 v=69
23109 On ch=1 n=a5 v=37
23110 On ch=1 n=c5 v=43
23114 On ch=1 n=f4 v=46
23133 On ch=1 n=c6 v=0
23135 On ch=1 n=a5 v=0
23139 On ch=1 n=c5 v=0
23140 On ch=1 n=f4 v=0
23201 On ch=1 n=a6 v=79
23205 On ch=1 n=a5 v=47
23206 On ch=1 n=c6 v=48
23207 On ch=1 n=f5 v=33
23209 On ch=1 n=c5 v=30
23210 On ch=1 n=f4 v=33
23230 On ch=1 n=c6 v=0
23230 On ch=1 n=a6 v=0
23238 On ch=1 n=a5 v=0
23242 On ch=1 n=f5 v=0
23246 On ch=1 n=c5 v=0
23251 On ch=1 n=f4 v=0
23296 On ch=1 n=g6 v=80
23300 On ch=1 n=c#6 v=51
23302 On ch=1 n=a#5 v=39
23302 On ch=1 n=g5 v=46
23302 On ch=1 n=e5 v=44
23309 On ch=1 n=f4 v=36
23313 Par ch=1 c=64 v=40
23317 Par ch=1 c=64 v=0
23338 Par ch=1 c=64 v=40
23340 On ch=1 n=c#6 v=0
23342 Par ch=1 c=64 v=127
23346 On ch=1 n=e5 v=0
23346 On ch=1 n=g5 v=0
23350 On ch=1 n=g6 v=0
23356 On ch=1 n=f4 v=0
23362 On ch=1 n=a#5 v=0
23391 On ch=1 n=f6 v=80
23393 On ch=1 n=a#5 v=35
23394 On ch=1 n=d6 v=58
23395 On ch=1 n=f5 v=51
23401 On ch=1 n=d5 v=38
23402 Par ch=1 c=64 v=40
23405 On ch=1 n=f4 v=42
23406 Par ch=1 c=64 v=0
23434 Par ch=1 c=64 v=88
23435 On ch=1 n=f5 v=0
23438 Par ch=1 c=64 v=127
23441 On ch=1 n=f4 v=0
23442 On ch=1 n=d5 v=0
23443 On ch=1 n=a#5 v=0
23445 On ch=1 n=d6 v=0
23480 On ch=1 n=f5 v=58
23480 On ch=1 n=a#5 v=73
23489 On ch=1 n=d5 v=36
23491 On ch=1 n=f4 v=37
23499 On ch=1 n=f5 v=0
23509 On ch=1 n=f6 v=0
23512 On ch=1 n=a#5 v=0
23517 On ch=1 n=d5 v=0
23527 On ch=1 n=f4 v=0
23568 On ch=1 n=f6 v=90
23573 On ch=1 n=f5 v=38
23575 On ch=1 n=g#5 v=39
23580 On ch=1 n=d5 v=36
23581 On ch=1 n=b5 v=32
23585 Par ch=1 c=64 v=104
23589 Par ch=1 c=64 v=24
23593 Par ch=1 c=64 v=0
23595 On ch=1 n=f4 v=46
23605 Par ch=1 c=64 v=40
23609 Par ch=1 c=64 v=88
23612 Par ch=1 c=64 v=127
23618 On ch=1 n=f5 v=0
23618 On ch=1 n=f6 v=0
23622 On ch=1 n=g#5 v=0
23626 On ch=1 n=b5 v=0
23629 On ch=1 n=d5 v=0
23649 Par ch=1 c=64 v=104
23653 Par ch=1 c=64 v=40
23657 On ch=1 n=e6 v=84
23657 Par ch=1 c=64 v=0
23659 On ch=1 n=e5 v=61
23663 On ch=1 n=c5 v=53
23664 On ch=1 n=c6 v=53
23664 On ch=1 n=a5 v=47
23669 Par ch=1 c=64 v=56
23673 Par ch=1 c=64 v=127
23680 On ch=1 n=a5 v=0
23685 On ch=1 n=c5 v=0
23685 On ch=1 n=c6 v=0
23688 On ch=1 n=e6 v=0
23693 On ch=1 n=e5 v=0
23703 On ch=1 n=f4 v=0
23748 On ch=1 n=d6 v=74
23753 On ch=1 n=d5 v=54
23753 On ch=1 n=a#4 v=43
23754 Par ch=1 c=64 v=40
23755 On ch=1 n=a#5 v=42
23757 On ch=1 n=f5 v=32
23758 Par ch=1 c=64 v=0
23761 On ch=1 n=f4 v=44
23770 Par ch=1 c=64 v=24
23774 Par ch=1 c=64 v=88
23778 On ch=1 n=f5 v=0
23778 Par ch=1 c=64 v=127
23787 On ch=1 n=d5 v=0
23791 On ch=1 n=f4 v=0
23792 On ch=1 n=a#4 v=0
23798 On ch=1 n=a#5 v=0
23815 On ch=1 n=d6 v=0
23834 On ch=1 n=f5 v=73
23837 On ch=1 n=a#4 v=45
23842 On ch=1 n=f4 v=37
23858 On ch=1 n=f5 v=0
23863 On ch=1 n=a#4 v=0
23870 On ch=1 n=f4 v=0
23907 Par ch=1 c=64 v=88
23911 Par ch=1 c=64 v=40
23915 On ch=1 n=d6 v=86
23915 Par ch=1 c=64 v=24
23916 On ch=1 n=a#5 v=58
23919 On ch=1 n=f5 v=61
23919 Par ch=1 c=64 v=56
23920 On ch=1 n=a#4 v=35
23921 On ch=1 n=d5 v=51
23923 Par ch=1 c=64 v=104
23923 On ch=1 n=f4 v=48
23927 Par ch=1 c=64 v=127
23949 On ch=1 n=d5 v=0
23949 On ch=1 n=d6 v=0
23951 On ch=1 n=f4 v=0
23956 On ch=1 n=a#5 v=0
23962 On ch=1 n=f5 v=0
23966 On ch=1 n=a#4 v=0
24003 On ch=1 n=c6 v=85
24009 On ch=1 n=f5 v=53
24009 On ch=1 n=a5 v=56
24009 On ch=1 n=c5 v=42
24012 Par ch=1 c=64 v=56
24013 On ch=1 n=f4 v=45
24016 Par ch=1 c=64 v=0
24019 On ch=1 n=a4 v=25
24020 Par ch=1 c=64 v=40
24024 Par ch=1 c=64 v=88
24026 On ch=1 n=a4 v=0
24028 Par ch=1 c=64 v=127
24035 On ch=1 n=a5 v=0
24041 On ch=1 n=c5 v=0
24047 On ch=1 n=c6 v=0
24051 On ch=1 n=f4 v=0
24065 On ch=1 n=f5 v=0
24100 On ch=1 n=b5 v=82
24104 On ch=1 n=g#4 v=33
24105 On ch=1 n=f4 v=43
24105 On ch=1 n=g#5 v=47
24105 Par ch=1 c=64 v=40
24107 On ch=1 n=b4 v=36
24109 Par ch=1 c=64 v=0
24129 Par ch=1 c=64 v=40
24133 Par ch=1 c=64 v=127
24135 On ch=1 n=g#4 v=0
24136 On ch=1 n=f4 v=0
24164 On ch=1 n=g#5 v=0
24185 On ch=1 n=g5 v=53
24193 On ch=1 n=e5 v=39
24195 On ch=1 n=g4 v=39
24196 On ch=1 n=e4 v=34
24202 Par ch=1 c=64 v=56
24206 Par ch=1 c=64 v=40
24210 Par ch=1 c=64 v=72
24212 On ch=1 n=g4 v=0
24214 Par ch=1 c=64 v=127
24216 On ch=1 n=e5 v=0
24221 On ch=1 n=e4 v=0
24263 On ch=1 n=g5 v=0
24273 On ch=1 n=f5 v=69
24279 On ch=1 n=d4 v=46
24279 Par ch=1 c=64 v=88
24279 On ch=1 n=d5 v=40
24283 On ch=1 n=f4 v=46
24283 Par ch=1 c=64 v=40
24294 On ch=1 n=d5 v=0
24296 Par ch=1 c=64 v=127
24302 On ch=1 n=d4 v=0
24309 On ch=1 n=f4 v=0
24312 On ch=1 n=f5 v=0
24318 On ch=1 n=b4 v=0
24335 On ch=1 n=b5 v=0
24374 On ch=1 n=a#5 v=82
24384 On ch=1 n=f5 v=50
24384 On ch=1 n=c#5 v=46
24386 On ch=1 n=c#4 v=42
24386 On ch=1 n=a#4 v=27
24391 On ch=1 n=f4 v=45
24401 Par ch=1 c=64 v=56
24405 Par ch=1 c=64 v=0
24415 On ch=1 n=f4 v=0
24426 Par ch=1 c=64 v=56
24427 On ch=1 n=f5 v=0
24429 On ch=1 n=c#4 v=0
24430 Par ch=1 c=64 v=127
24445 On ch=1 n=c#5 v=0
24481 On ch=1 n=e5 v=49
24485 On ch=1 n=c5 v=37
24486 On ch=1 n=c4 v=34
24486 Par ch=1 c=64 v=72
24488 On ch=1 n=e4 v=39
24490 Par ch=1 c=64 v=0
24509 On ch=1 n=c5 v=0
24510 Par ch=1 c=64 v=56
24514 Par ch=1 c=64 v=127
24520 On ch=1 n=c4 v=0
24520 On ch=1 n=e4 v=0
24524 On ch=1 n=e5 v=0
24527 On ch=1 n=a#4 v=0
24544 On ch=1 n=a#5 v=0
24586 On ch=1 n=c6 v=71
24592 On ch=1 n=g5 v=43
24593 On ch=1 n=e5 v=40
24596 On ch=1 n=c5 v=37
24597 On ch=1 n=g4 v=35
24599 Par ch=1 c=64 v=40
24601 On ch=1 n=e4 v=40
24602 Par ch=1 c=64 v=0
24619 Par ch=1 c=64 v=40
24623 Par ch=1 c=64 v=127
24625 On ch=1 n=c5 v=0
24630 On ch=1 n=e5 v=0
24631 On ch=1 n=e4 v=0
24648 On ch=1 n=g4 v=0
24653 On ch=1 n=c6 v=0
24665 On ch=1 n=g5 v=0
24721 On ch=1 n=a5 v=59
24727 On ch=1 n=f5 v=45
24731 On ch=1 n=a4 v=29
24733 On ch=1 n=f4 v=37
24744 Par ch=1 c=64 v=72
24748 Par ch=1 c=64 v=0
24785 Par ch=1 c=64 v=72
24789 Par ch=1 c=64 v=127
24799 On ch=1 n=f4 v=0
24803 On ch=1 n=a5 v=0
24807 On ch=1 n=f5 v=0
24811 On ch=1 n=a4 v=0
24888 On ch=1 n=f#5 v=38
24889 On ch=1 n=a5 v=49
24897 On ch=1 n=a3 v=38
24897 Par ch=1 c=64 v=56
24901 Par ch=1 c=64 v=0
24907 On ch=1 n=a4 v=7
24922 Par ch=1 c=64 v=88
24926 Par ch=1 c=64 v=127
24935 On ch=1 n=a3 v=0
24938 On ch=1 n=a4 v=0
24944 On ch=1 n=a5 v=0
24952 On ch=1 n=f#5 v=0
24992 On ch=1 n=a5 v=48
24994 On ch=1 n=e5 v=46
24996 On ch=1 n=g5 v=43
24996 On ch=1 n=a4 v=33
24997 On ch=1 n=a3 v=40
25017 On ch=1 n=a3 v=0
25021 On ch=1 n=a4 v=0
25023 On ch=1 n=g5 v=0
25025 On ch=1 n=a5 v=0
25027 On ch=1 n=e5 v=0
25077 On ch=1 n=a5 v=46
25077 On ch=1 n=f#5 v=32
25080 On ch=1 n=d5 v=45
25081 On ch=1 n=a4 v=33
25082 On ch=1 n=a3 v=44
25102 On ch=1 n=a3 v=0
25106 On ch=1 n=a5 v=0
25106 On ch=1 n=a4 v=0
25108 On ch=1 n=d5 v=0
25113 On ch=1 n=f#5 v=0
25157 On ch=1 n=g5 v=45
25159 On ch=1 n=a5 v=51
25159 On ch=1 n=e5 v=46
25161 On ch=1 n=a4 v=33
25164 On ch=1 n=a3 v=37
25182 On ch=1 n=a3 v=0
25185 On ch=1 n=e5 v=0
25185 On ch=1 n=a5 v=0
25186 On ch=1 n=g5 v=0
25186 On ch=1 n=a4 v=0
25236 On ch=1 n=f#5 v=42
25237 On ch=1 n=a5 v=43
25238 On ch=1 n=d5 v=48
25245 On ch=1 n=a4 v=29
25247 On ch=1 n=a3 v=37
25266 On ch=1 n=d5 v=0
25267 On ch=1 n=a3 v=0
25267 On ch=1 n=a5 v=0
25271 On ch=1 n=f#5 v=0
25272 On ch=1 n=a4 v=0
25325 On ch=1 n=a5 v=52
25329 On ch=1 n=e5 v=52
25329 Par ch=1 c=64 v=104
25330 On ch=1 n=c#5 v=35
25333 Par ch=1 c=64 v=24
25334 On ch=1 n=a3 v=30
25337 Par ch=1 c=64 v=0
25340 On ch=1 n=a4 v=7
25350 Par ch=1 c=64 v=24
25354 Par ch=1 c=64 v=88
25357 On ch=1 n=a5 v=0
25358 On ch=1 n=a3 v=0
25358 Par ch=1 c=64 v=127
25359 On ch=1 n=c#5 v=0
25362 On ch=1 n=e5 v=0
25363 On ch=1 n=a4 v=0
25407 On ch=1 n=b5 v=56
25407 On ch=1 n=g5 v=52
25411 On ch=1 n=a4 v=25
25413 On ch=1 n=a3 v=35
25436 On ch=1 n=a3 v=0
25436 On ch=1 n=b5 v=0
25439 On ch=1 n=a4 v=0
25453 On ch=1 n=g5 v=0
25486 On ch=1 n=a5 v=67
25488 On ch=1 n=f#5 v=50
25492 On ch=1 n=a4 v=29
25493 On ch=1 n=a3 v=37
25516 On ch=1 n=a3 v=0
25519 On ch=1 n=a4 v=0
25519 On ch=1 n=f#5 v=0
25525 On ch=1 n=a5 v=0
25566 On ch=1 n=a5 v=63
25566 On ch=1 n=g5 v=50
25568 On ch=1 n=e5 v=46
25572 On ch=1 n=a4 v=36
25575 On ch=1 n=a3 v=43
25592 On ch=1 n=e5 v=0
25595 On ch=1 n=a3 v=0
25598 On ch=1 n=a4 v=0
25598 On ch=1 n=a5 v=0
25600 On ch=1 n=g5 v=0
25645 On ch=1 n=f#5 v=54
25646 On ch=1 n=a5 v=69
25653 On ch=1 n=a4 v=34
25655 On ch=1 n=a3 v=39
25674 On ch=1 n=a3 v=0
25678 On ch=1 n=a4 v=0
25678 On ch=1 n=f#5 v=0
25681 On ch=1 n=a5 v=0
25725 On ch=1 n=a5 v=58
25728 On ch=1 n=g5 v=50
25729 On ch=1 n=e5 v=40
25733 On ch=1 n=a4 v=35
25734 On ch=1 n=a3 v=44
25744 On ch=1 n=g5 v=0
25750 On ch=1 n=a5 v=0
25750 On ch=1 n=e5 v=0
25753 On ch=1 n=a3 v=0
25755 On ch=1 n=a4 v=0
25816 On ch=1 n=a5 v=42
25817 On ch=1 n=f#5 v=36
25819 On ch=1 n=d5 v=38
25819 Par ch=1 c=64 v=24
25820 On ch=1 n=a4 v=35
25823 Par ch=1 c=64 v=0
25824 On ch=1 n=a3 v=37
25847 On ch=1 n=a4 v=0
25847 Par ch=1 c=64 v=72
25849 On ch=1 n=d5 v=0
25851 Par ch=1 c=64 v=127
25853 On ch=1 n=f#5 v=0
25855 On ch=1 n=a5 v=0
25857 On ch=1 n=a3 v=0
25942 On ch=1 n=f5 v=34
25943 On ch=1 n=a5 v=37
25944 On ch=1 n=a4 v=25
25947 On ch=1 n=a3 v=33
25952 Par ch=1 c=64 v=104
25954 On ch=1 n=a2 v=23
25956 Par ch=1 c=64 v=0
25985 Par ch=1 c=64 v=127
25989 On ch=1 n=a2 v=0
25989 On ch=1 n=a3 v=0
25992 On ch=1 n=a4 v=0
25992 On ch=1 n=a5 v=0
25995 On ch=1 n=f5 v=0
26043 On ch=1 n=a5 v=37
26043 On ch=1 n=e5 v=50
26044 On ch=1 n=a3 v=35
26044 On ch=1 n=a2 v=32
26045 On ch=1 n=a4 v=25
26046 On ch=1 n=g5 v=40
26068 On ch=1 n=e5 v=0
26070 On ch=1 n=a2 v=0
26070 On ch=1 n=a3 v=0
26077 On ch=1 n=a5 v=0
26078 On ch=1 n=g5 v=0
26080 On ch=1 n=a4 v=0
26119 On ch=1 n=d5 v=52
26122 On ch=1 n=f5 v=56
26122 On ch=1 n=a4 v=44
26123 On ch=1 n=a5 v=56
26124 On ch=1 n=a3 v=48
26126 On ch=1 n=a2 v=38
26138 On ch=1 n=d5 v=0
26145 On ch=1 n=a2 v=0
26146 On ch=1 n=a4 v=0
26147 On ch=1 n=a3 v=0
26156 On ch=1 n=a5 v=0
26157 On ch=1 n=f5 v=0
26196 On ch=1 n=g5 v=54
26197 On ch=1 n=e5 v=57
26197 On ch=1 n=a5 v=61
26198 On ch=1 n=a4 v=47
26200 On ch=1 n=a3 v=45
26201 On ch=1 n=a2 v=40
26219 On ch=1 n=e5 v=0
26226 On ch=1 n=a3 v=0
26226 On ch=1 n=a4 v=0
26227 On ch=1 n=a5 v=0
26227 On ch=1 n=a2 v=0
26230 On ch=1 n=g5 v=0
26271 On ch=1 n=d5 v=44
26271 On ch=1 n=a5 v=63
26273 On ch=1 n=a4 v=49
26273 On ch=1 n=f5 v=55
26275 On ch=1 n=a3 v=50
26278 On ch=1 n=a2 v=37
26289 On ch=1 n=d5 v=0
26295 On ch=1 n=f5 v=0
26300 On ch=1 n=a3 v=0
26301 On ch=1 n=a2 v=0
26302 On ch=1 n=a5 v=0
26312 On ch=1 n=a4 v=0
26340 Par ch=1 c=64 v=104
26344 Par ch=1 c=64 v=40
26348 Par ch=1 c=64 v=0
26348 On ch=1 n=a5 v=63
26350 On ch=1 n=a4 v=58
26350 On ch=1 n=c#5 v=48
26352 On ch=1 n=a3 v=51
26354 On ch=1 n=e5 v=54
26354 On ch=1 n=a2 v=42
26362 On ch=1 n=e5 v=0
26364 On ch=1 n=c#5 v=0
26364 Par ch=1 c=64 v=56
26368 Par ch=1 c=64 v=127
26369 On ch=1 n=a4 v=0
26372 On ch=1 n=a5 v=0
26383 On ch=1 n=a2 v=0
26383 On ch=1 n=a3 v=0
26429 On ch=1 n=g5 v=66
26429 On ch=1 n=a#5 v=72
26432 On ch=1 n=a3 v=46
26435 On ch=1 n=a2 v=36
26445 On ch=1 n=a4 v=7
26447 On ch=1 n=g5 v=0
26454 On ch=1 n=a3 v=0
26457 On ch=1 n=a#5 v=0
26468 On ch=1 n=a4 v=0
26474 On ch=1 n=a2 v=0
26511 On ch=1 n=a5 v=73
26511 On ch=1 n=a#3 v=51
26513 On ch=1 n=f5 v=66
26515 On ch=1 n=a4 v=51
26515 On ch=1 n=a2 v=42
26540 On ch=1 n=a2 v=0
26545 On ch=1 n=a4 v=0
26547 On ch=1 n=f5 v=0
26547 On ch=1 n=a#3 v=0
26549 On ch=1 n=a5 v=0
26573 Par ch=1 c=64 v=104
26578 Par ch=1 c=64 v=56
26582 Par ch=1 c=64 v=24
26586 On ch=1 n=b3 v=51
26586 Par ch=1 c=64 v=0
26587 On ch=1 n=a2 v=39
26588 On ch=1 n=a5 v=74
26588 On ch=1 n=e5 v=67
26590 On ch=1 n=g5 v=61
26590 Par ch=1 c=64 v=40
26590 On ch=1 n=a4 v=53
26592 On ch=1 n=a3 v=35
26594 Par ch=1 c=64 v=88
26598 On ch=1 n=a3 v=0
26598 Par ch=1 c=64 v=127
26608 On ch=1 n=b3 v=0
26608 On ch=1 n=a2 v=0
26619 On ch=1 n=a4 v=0
26620 On ch=1 n=e5 v=0
26621 On ch=1 n=a5 v=0
26625 On ch=1 n=g5 v=0
26637 On ch=1 n=a2 v=44
26647 On ch=1 n=a2 v=0
26663 On ch=1 n=a5 v=75
26666 On ch=1 n=f5 v=60
26666 On ch=1 n=a4 v=56
26666 On ch=1 n=c4 v=42
26680 On ch=1 n=c4 v=0
26699 On ch=1 n=a4 v=0
26700 On ch=1 n=f5 v=0
26706 On ch=1 n=a2 v=50
26707 On ch=1 n=a5 v=0
26725 On ch=1 n=a2 v=0
26745 On ch=1 n=a5 v=77
26747 On ch=1 n=e5 v=61
26748 On ch=1 n=g5 v=61
26748 On ch=1 n=a4 v=55
26749 On ch=1 n=c#4 v=61
26769 On ch=1 n=e5 v=0
26778 On ch=1 n=c#4 v=0
26784 On ch=1 n=a4 v=0
26785 On ch=1 n=a5 v=0
26787 On ch=1 n=g5 v=0
26838 On ch=1 n=d5 v=61
26840 On ch=1 n=a5 v=60
26841 On ch=1 n=f5 v=60
26841 On ch=1 n=a4 v=50
26842 On ch=1 n=d4 v=53
26848 Par ch=1 c=64 v=56
26850 On ch=1 n=d3 v=36
26852 Par ch=1 c=64 v=0
26877 Par ch=1 c=64 v=72
26879 On ch=1 n=d5 v=0
26881 Par ch=1 c=64 v=127
26918 On ch=1 n=f5 v=0
26927 On ch=1 n=d#5 v=54
26929 On ch=1 n=g5 v=75
26960 On ch=1 n=d#5 v=0
26965 On ch=1 n=g5 v=0
27001 On ch=1 n=a5 v=0
27004 On ch=1 n=g#5 v=77
27008 On ch=1 n=e5 v=68
27022 Par ch=1 c=64 v=88
27026 Par ch=1 c=64 v=56
27034 Par ch=1 c=64 v=88
27038 Par ch=1 c=64 v=127
27042 On ch=1 n=e5 v=0
27051 On ch=1 n=d3 v=0
27061 On ch=1 n=a4 v=0
27079 On ch=1 n=g#5 v=0
27101 On ch=1 n=f5 v=60
27105 On ch=1 n=a5 v=70
27115 Par ch=1 c=64 v=88
27119 Par ch=1 c=64 v=0
27148 Par ch=1 c=64 v=56
27152 Par ch=1 c=64 v=127
27172 On ch=1 n=d4 v=0
27182 On ch=1 n=c#5 v=67
27190 On ch=1 n=e4 v=50
27215 On ch=1 n=c#5 v=0
27244 On ch=1 n=f5 v=0
27259 On ch=1 n=c5 v=73
27260 On ch=1 n=e4 v=0
27265 Par ch=1 c=64 v=88
27269 Par ch=1 c=64 v=40
27272 On ch=1 n=f4 v=51
27273 Par ch=1 c=64 v=0
27285 Par ch=1 c=64 v=24
27290 Par ch=1 c=64 v=72
27294 Par ch=1 c=64 v=127
27315 On ch=1 n=c5 v=0
27358 On ch=1 n=b4 v=75
27358 Par ch=1 c=64 v=88
27360 On ch=1 n=f4 v=0
27362 Par ch=1 c=64 v=0
27364 On ch=1 n=g4 v=55
27391 Par ch=1 c=64 v=88
27395 Par ch=1 c=64 v=127
27420 On ch=1 n=a5 v=0
27447 On ch=1 n=g#5 v=76
27447 Par ch=1 c=64 v=88
27451 Par ch=1 c=64 v=40
27453 On ch=1 n=f5 v=63
27455 Par ch=1 c=64 v=24
27457 On ch=1 n=g3 v=48
27459 Par ch=1 c=64 v=56
27463 Par ch=1 c=64 v=88
27467 Par ch=1 c=64 v=127
27475 On ch=1 n=f5 v=0
27484 On ch=1 n=g#5 v=0
27517 On ch=1 n=g3 v=0
27523 Par ch=1 c=64 v=104
27527 Par ch=1 c=64 v=40
27531 On ch=1 n=g5 v=79
27531 Par ch=1 c=64 v=0
27535 On ch=1 n=e5 v=71
27535 Par ch=1 c=64 v=24
27540 On ch=1 n=g#3 v=54
27540 Par ch=1 c=64 v=56
27544 Par ch=1 c=64 v=88
27548 Par ch=1 c=64 v=127
27571 On ch=1 n=g#3 v=0
27589 On ch=1 n=e5 v=0
27590 On ch=1 n=g5 v=0
27604 Par ch=1 c=64 v=72
27608 Par ch=1 c=64 v=0
27610 On ch=1 n=f#5 v=73
27615 On ch=1 n=d#5 v=67
27618 On ch=1 n=a3 v=52
27624 Par ch=1 c=64 v=24
27628 Par ch=1 c=64 v=88
27633 Par ch=1 c=64 v=127
27655 On ch=1 n=d#5 v=0
27657 On ch=1 n=f#5 v=0
27680 Par ch=1 c=64 v=72
27682 On ch=1 n=a3 v=0
27685 Par ch=1 c=64 v=0
27690 On ch=1 n=g5 v=77
27692 On ch=1 n=a#3 v=55
27693 On ch=1 n=e5 v=71
27697 Par ch=1 c=64 v=24
27701 Par ch=1 c=64 v=72
27705 Par ch=1 c=64 v=127
27726 On ch=1 n=a#3 v=0
27738 On ch=1 n=g5 v=0
27750 On ch=1 n=e5 v=0
27761 On ch=1 n=b4 v=0
27761 Par ch=1 c=64 v=72
27765 Par ch=1 c=64 v=0
27769 On ch=1 n=f5 v=73
27771 On ch=1 n=b3 v=49
27774 On ch=1 n=d5 v=66
27777 Par ch=1 c=64 v=56
27782 Par ch=1 c=64 v=88
27786 Par ch=1 c=64 v=127
27807 On ch=1 n=d5 v=0
27817 On ch=1 n=b3 v=0
27835 Par ch=1 c=64 v=72
27839 Par ch=1 c=64 v=0
27849 On ch=1 n=f5 v=0
27851 On ch=1 n=e5 v=71
27857 On ch=1 n=c4 v=66
27857 On ch=1 n=c5 v=60
27863 Par ch=1 c=64 v=56
27867 Par ch=1 c=64 v=127
27876 On ch=1 n=c4 v=0
27880 On ch=1 n=g4 v=0
27883 On ch=1 n=e5 v=0
27940 On ch=1 n=c5 v=0
27948 On ch=1 n=a#5 v=86
27950 On ch=1 n=g5 v=69
27968 Par ch=1 c=67 v=127
27993 On ch=1 n=a#5 v=0
28010 On ch=1 n=g5 v=0
28028 On ch=1 n=a5 v=86
28029 On ch=1 n=f#5 v=72
28047 On ch=1 n=f#5 v=0
28054 On ch=1 n=a5 v=0
28101 Par ch=1 c=67 v=0
28130 Par ch=1 c=67 v=127
28134 On ch=1 n=d6 v=89
28135 On ch=1 n=a#5 v=72
28178 Par ch=1 c=67 v=0
28217 On ch=1 n=g5 v=77
28223 On ch=1 n=a#4 v=48
28234 Par ch=1 c=64 v=40
28238 Par ch=1 c=64 v=0
28239 Par ch=1 c=67 v=127
28254 Par ch=1 c=67 v=0
28262 Par ch=1 c=64 v=40
28266 Par ch=1 c=64 v=104
28271 Par ch=1 c=64 v=127
28297 On ch=1 n=a#4 v=0
28300 On ch=1 n=f5 v=74
28305 On ch=1 n=b4 v=54
28341 On ch=1 n=f5 v=0
28382 On ch=1 n=g5 v=0
28384 On ch=1 n=e5 v=75
28386 On ch=1 n=b4 v=0
28388 Par ch=1 c=64 v=88
28390 On ch=1 n=c5 v=66
28392 On ch=1 n=a#5 v=0
28392 Par ch=1 c=64 v=24
28396 Par ch=1 c=64 v=0
28420 Par ch=1 c=64 v=56
28424 Par ch=1 c=64 v=127
28451 On ch=1 n=d6 v=0
28466 On ch=1 n=c#6 v=88
28468 On ch=1 n=a#5 v=74
28477 On ch=1 n=c4 v=56
28494 On ch=1 n=a#5 v=0
28508 On ch=1 n=c#6 v=0
28553 On ch=1 n=c6 v=90
28556 On ch=1 n=a5 v=71
28556 On ch=1 n=c#4 v=60
28558 On ch=1 n=c4 v=0
28560 Par ch=1 c=64 v=56
28565 Par ch=1 c=64 v=0
28581 Par ch=1 c=64 v=72
28585 Par ch=1 c=64 v=127
28591 On ch=1 n=c#4 v=0
28620 On ch=1 n=c6 v=0
28628 On ch=1 n=a5 v=0
28633 On ch=1 n=b5 v=80
28636 On ch=1 n=g#5 v=67
28637 Par ch=1 c=64 v=72
28642 Par ch=1 c=64 v=0
28643 On ch=1 n=d4 v=48
28658 Par ch=1 c=64 v=24
28662 Par ch=1 c=64 v=88
28666 Par ch=1 c=64 v=127
28682 On ch=1 n=g#5 v=0
28696 On ch=1 n=b5 v=0
28716 On ch=1 n=c6 v=84
28719 On ch=1 n=d4 v=0
28719 On ch=1 n=a5 v=71
28720 On ch=1 n=d#4 v=66
28722 Par ch=1 c=64 v=72
28726 Par ch=1 c=64 v=0
28742 Par ch=1 c=64 v=24
28746 Par ch=1 c=64 v=88
28750 Par ch=1 c=64 v=127
28759 On ch=1 n=a5 v=0
28762 On ch=1 n=d#4 v=0
28782 On ch=1 n=c6 v=0
28806 On ch=1 n=a#5 v=72
28811 Par ch=1 c=64 v=104
28812 On ch=1 n=e4 v=44
28812 On ch=1 n=g5 v=57
28815 Par ch=1 c=64 v=24
28819 Par ch=1 c=64 v=0
28820 On ch=1 n=e5 v=0
28851 Par ch=1 c=64 v=104
28856 Par ch=1 c=64 v=127
28862 On ch=1 n=g5 v=0
28870 On ch=1 n=e4 v=0
28880 On ch=1 n=a#5 v=0
28898 On ch=1 n=a5 v=70
28904 On ch=1 n=f5 v=55
28908 Par ch=1 c=64 v=40
28909 On ch=1 n=f4 v=59
28912 Par ch=1 c=64 v=0
28934 On ch=1 n=f4 v=0
28936 Par ch=1 c=64 v=88
28939 On ch=1 n=f5 v=0
28940 On ch=1 n=a5 v=0
28940 Par ch=1 c=64 v=127
28947 On ch=1 n=c5 v=0
29006 On ch=1 n=a5 v=80
29009 On ch=1 n=f5 v=63
29013 On ch=1 n=c5 v=47
29017 On ch=1 n=f4 v=38
29024 On ch=1 n=f5 v=0
29032 On ch=1 n=a5 v=0
29044 On ch=1 n=c5 v=0
29044 On ch=1 n=f4 v=0
29080 On ch=1 n=f4 v=31
29086 On ch=1 n=c5 v=32
29112 On ch=1 n=a6 v=88
29112 On ch=1 n=a5 v=53
29116 On ch=1 n=c6 v=71
29118 Par ch=1 c=64 v=104
29119 On ch=1 n=f5 v=49
29122 Par ch=1 c=64 v=40
29126 Par ch=1 c=64 v=0
29138 Par ch=1 c=64 v=56
29141 Par ch=1 c=64 v=127
29146 On ch=1 n=a6 v=0
29147 On ch=1 n=c6 v=0
29152 On ch=1 n=f5 v=0
29156 On ch=1 n=a5 v=0
29163 On ch=1 n=f4 v=0
29166 On ch=1 n=c5 v=0
29203 On ch=1 n=g6 v=92
29205 On ch=1 n=c#6 v=60
29206 On ch=1 n=a#5 v=59
29207 On ch=1 n=g5 v=60
29210 Par ch=1 c=64 v=72
29210 On ch=1 n=e5 v=51
29214 On ch=1 n=f4 v=48
29214 Par ch=1 c=64 v=40
29218 Par ch=1 c=64 v=56
29222 Par ch=1 c=64 v=104
29226 Par ch=1 c=64 v=127
29240 On ch=1 n=e5 v=0
29240 On ch=1 n=g6 v=0
29242 On ch=1 n=c#6 v=0
29247 On ch=1 n=g5 v=0
29255 On ch=1 n=f4 v=0
29258 On ch=1 n=a#5 v=0
29294 On ch=1 n=f6 v=82
29296 On ch=1 n=a#5 v=50
29297 On ch=1 n=f5 v=55
29300 On ch=1 n=d6 v=50
29302 On ch=1 n=d5 v=44
29303 On ch=1 n=f4 v=48
29307 Par ch=1 c=64 v=56
29311 Par ch=1 c=64 v=0
29331 Par ch=1 c=64 v=56
29336 Par ch=1 c=64 v=127
29340 On ch=1 n=f5 v=0
29341 On ch=1 n=d5 v=0
29342 On ch=1 n=f4 v=0
29346 On ch=1 n=a#5 v=0
29346 On ch=1 n=d6 v=0
29380 On ch=1 n=a#5 v=77
29380 On ch=1 n=f5 v=64
29384 On ch=1 n=f6 v=0
29387 On ch=1 n=d5 v=38
29390 On ch=1 n=f4 v=44
29398 On ch=1 n=f5 v=0
29410 On ch=1 n=a#5 v=0
29416 On ch=1 n=f4 v=0
29433 On ch=1 n=d5 v=0
29460 Par ch=1 c=64 v=40
29461 On ch=1 n=f6 v=92
29462 On ch=1 n=g#5 v=64
29464 Par ch=1 c=64 v=0
29464 On ch=1 n=b5 v=76
29466 On ch=1 n=d5 v=43
29466 On ch=1 n=f5 v=56
29472 On ch=1 n=f4 v=40
29481 Par ch=1 c=64 v=72
29485 Par ch=1 c=64 v=127
29495 On ch=1 n=f6 v=0
29496 On ch=1 n=f5 v=0
29496 On ch=1 n=b5 v=0
29497 On ch=1 n=g#5 v=0
29505 On ch=1 n=f4 v=0
29510 On ch=1 n=d5 v=0
29545 On ch=1 n=e6 v=88
29545 Par ch=1 c=64 v=72
29549 On ch=1 n=c6 v=79
29549 On ch=1 n=a5 v=65
29549 Par ch=1 c=64 v=40
29550 On ch=1 n=e5 v=57
29551 On ch=1 n=f4 v=60
29554 On ch=1 n=c5 v=44
29561 Par ch=1 c=64 v=127
29571 On ch=1 n=e5 v=0
29571 On ch=1 n=a5 v=0
29571 On ch=1 n=c6 v=0
29572 On ch=1 n=c5 v=0
29576 On ch=1 n=e6 v=0
29582 On ch=1 n=f4 v=0
29626 Par ch=1 c=64 v=56
29629 On ch=1 n=d6 v=86
29630 Par ch=1 c=64 v=0
29630 On ch=1 n=a#4 v=49
29631 On ch=1 n=a#5 v=63
29632 On ch=1 n=f5 v=60
29634 On ch=1 n=d5 v=48
29636 On ch=1 n=f4 v=51
29646 Par ch=1 c=64 v=88
29650 Par ch=1 c=64 v=127
29655 On ch=1 n=d5 v=0
29656 On ch=1 n=f5 v=0
29661 On ch=1 n=a#4 v=0
29664 On ch=1 n=f4 v=0
29678 On ch=1 n=a#5 v=0
29696 On ch=1 n=d6 v=0
29708 On ch=1 n=f5 v=84
29709 On ch=1 n=d5 v=57
29713 On ch=1 n=a#4 v=40
29718 On ch=1 n=f4 v=40
29734 On ch=1 n=d5 v=0
29736 On ch=1 n=f4 v=0
29738 On ch=1 n=f5 v=0
29742 On ch=1 n=a#4 v=0
29779 Par ch=1 c=64 v=72
29783 Par ch=1 c=64 v=40
29787 Par ch=1 c=64 v=0
29787 On ch=1 n=d6 v=92
29789 On ch=1 n=a#4 v=33
29790 On ch=1 n=f5 v=76
29793 On ch=1 n=d5 v=39
29795 On ch=1 n=f4 v=50
29799 Par ch=1 c=64 v=88
29803 Par ch=1 c=64 v=127
29810 On ch=1 n=f5 v=0
29814 On ch=1 n=d5 v=0
29824 On ch=1 n=d6 v=0
29832 On ch=1 n=a#4 v=0
29849 On ch=1 n=f4 v=0
29876 On ch=1 n=c6 v=94
29878 On ch=1 n=f#5 v=72
29879 On ch=1 n=d#5 v=52
29880 Par ch=1 c=64 v=88
29880 On ch=1 n=f4 v=44
29882 On ch=1 n=a4 v=53
29884 Par ch=1 c=64 v=72
29887 Par ch=1 c=64 v=104
29891 Par ch=1 c=64 v=127
29909 On ch=1 n=f4 v=0
29909 On ch=1 n=c6 v=0
29918 On ch=1 n=a4 v=0
29918 On ch=1 n=d#5 v=0
29922 On ch=1 n=f#5 v=0
29963 On ch=1 n=b5 v=88
29965 Par ch=1 c=64 v=40
29966 On ch=1 n=g#5 v=59
29968 On ch=1 n=d5 v=54
29968 On ch=1 n=f5 v=56
29968 On ch=1 n=g#4 v=54
29973 Par ch=1 c=64 v=0
29973 On ch=1 n=b4 v=53
29993 Par ch=1 c=64 v=104
29997 Par ch=1 c=64 v=127
30002 On ch=1 n=g#4 v=0
30013 On ch=1 n=g#5 v=0
30039 On ch=1 n=f5 v=0
30049 On ch=1 n=g5 v=68
30051 Par ch=1 c=64 v=88
30051 On ch=1 n=g4 v=55
30059 Par ch=1 c=64 v=127
30063 On ch=1 n=b4 v=0
30067 On ch=1 n=d5 v=0
30069 On ch=1 n=g4 v=0
30074 On ch=1 n=b5 v=0
30082 On ch=1 n=g5 v=0
30135 On ch=1 n=a#5 v=91
30138 On ch=1 n=g5 v=75
30140 On ch=1 n=c#5 v=60
30140 On ch=1 n=a#4 v=50
30143 Par ch=1 c=64 v=0
30146 On ch=1 n=f4 v=54
30146 On ch=1 n=g4 v=45
30167 Par ch=1 c=64 v=88
30171 Par ch=1 c=64 v=127
30187 On ch=1 n=c#5 v=0
30209 On ch=1 n=f4 v=0
30223 Par ch=1 c=64 v=104
30227 On ch=1 n=c5 v=69
30227 On ch=1 n=e4 v=60
30228 Par ch=1 c=64 v=24
30231 Par ch=1 c=64 v=0
30241 Par ch=1 c=64 v=56
30245 Par ch=1 c=64 v=127
30248 On ch=1 n=c5 v=0
30253 On ch=1 n=g4 v=0
30259 On ch=1 n=e4 v=0
30261 On ch=1 n=g5 v=0
30267 On ch=1 n=a#5 v=0
30278 On ch=1 n=a#4 v=0
30319 On ch=1 n=c#6 v=97
30324 On ch=1 n=c#5 v=64
30326 Par ch=1 c=64 v=56
30326 On ch=1 n=f5 v=73
30329 On ch=1 n=a#4 v=52
30330 Par ch=1 c=64 v=0
30331 On ch=1 n=c#4 v=49
30331 On ch=1 n=g4 v=50
30338 Par ch=1 c=64 v=24
30342 Par ch=1 c=64 v=72
30346 Par ch=1 c=64 v=127
30358 On ch=1 n=c#4 v=0
30362 On ch=1 n=f5 v=0
30372 On ch=1 n=c#5 v=0
30382 On ch=1 n=c#6 v=0
30388 On ch=1 n=a#4 v=0
30409 On ch=1 n=a#4 v=36
30411 On ch=1 n=c6 v=96
30415 On ch=1 n=c5 v=67
30415 Par ch=1 c=64 v=24
30416 On ch=1 n=e5 v=76
30417 On ch=1 n=c4 v=70
30420 Par ch=1 c=64 v=0
30432 Par ch=1 c=64 v=40
30436 Par ch=1 c=64 v=127
30446 On ch=1 n=c4 v=0
30447 On ch=1 n=e5 v=0
30458 On ch=1 n=a#4 v=0
30460 On ch=1 n=c5 v=0
30472 On ch=1 n=c6 v=0
30476 On ch=1 n=g4 v=0
30510 On ch=1 n=a5 v=91
30513 On ch=1 n=f4 v=60
30513 On ch=1 n=a4 v=38
30514 Par ch=1 c=64 v=88
30516 On ch=1 n=f5 v=65
30517 On ch=1 n=c5 v=65
30518 Par ch=1 c=64 v=0
30530 On ch=1 n=f4 v=0
30531 On ch=1 n=a4 v=0
30538 Par ch=1 c=64 v=88
30542 Par ch=1 c=64 v=127
30546 On ch=1 n=f5 v=0
30557 On ch=1 n=c5 v=0
30568 On ch=1 n=a5 v=0
30580 On ch=1 n=f3 v=71
30592 On ch=1 n=c4 v=57
30598 On ch=1 n=f3 v=0
30617 On ch=1 n=f4 v=58
30619 On ch=1 n=a5 v=92
30621 On ch=1 n=c4 v=0
30622 On ch=1 n=c5 v=71
30623 On ch=1 n=f5 v=72
30634 On ch=1 n=a4 v=55
30635 On ch=1 n=c5 v=0
30636 On ch=1 n=f4 v=0
30638 On ch=1 n=f5 v=0
30646 On ch=1 n=a4 v=0
30652 On ch=1 n=a5 v=0
30728 On ch=1 n=a6 v=99
30732 On ch=1 n=a5 v=73
30733 On ch=1 n=c6 v=65
30736 On ch=1 n=c5 v=60
30737 On ch=1 n=f5 v=56
30739 On ch=1 n=f4 v=55
30760 On ch=1 n=c6 v=0
30762 On ch=1 n=a6 v=0
30764 On ch=1 n=f5 v=0
30766 On ch=1 n=a5 v=0
30766 On ch=1 n=c5 v=0
30778 On ch=1 n=f4 v=0
30820 On ch=1 n=g6 v=97
30824 On ch=1 n=a#5 v=59
30824 On ch=1 n=c#6 v=64
30825 On ch=1 n=g5 v=65
30827 On ch=1 n=c#5 v=47
30830 On ch=1 n=e5 v=51
30832 Par ch=1 c=64 v=72
30832 On ch=1 n=f4 v=56
30835 Par ch=1 c=64 v=40
30840 Par ch=1 c=64 v=56
30844 Par ch=1 c=64 v=104
30848 Par ch=1 c=64 v=127
30854 On ch=1 n=c#5 v=0
30863 On ch=1 n=g5 v=0
30865 On ch=1 n=e5 v=0
30866 On ch=1 n=c#6 v=0
30871 On ch=1 n=g6 v=0
30881 On ch=1 n=f4 v=0
30882 On ch=1 n=a#5 v=0
30905 On ch=1 n=f6 v=96
30907 On ch=1 n=a#5 v=63
30908 On ch=1 n=d6 v=76
30909 On ch=1 n=f5 v=63
30910 On ch=1 n=d5 v=61
30914 Par ch=1 c=64 v=24
30916 On ch=1 n=a#4 v=52
30917 On ch=1 n=f4 v=50
30918 Par ch=1 c=64 v=0
30930 Par ch=1 c=64 v=72
30934 Par ch=1 c=64 v=127
30943 On ch=1 n=a#4 v=0
30943 On ch=1 n=f5 v=0
30944 On ch=1 n=d5 v=0
30948 On ch=1 n=a#5 v=0
30951 On ch=1 n=d6 v=0
30951 On ch=1 n=f4 v=0
30983 On ch=1 n=f6 v=0
30989 On ch=1 n=a#5 v=90
30993 On ch=1 n=f5 v=65
30997 On ch=1 n=a#4 v=47
30997 On ch=1 n=d5 v=53
31001 On ch=1 n=f4 v=49
31003 On ch=1 n=f5 v=0
31025 On ch=1 n=a#5 v=0
31026 On ch=1 n=a#4 v=0
31029 On ch=1 n=d5 v=0
31030 On ch=1 n=f4 v=0
31066 On ch=1 n=f6 v=100
31066 On ch=1 n=b5 v=64
31074 On ch=1 n=g#5 v=57
31074 On ch=1 n=f5 v=54
31074 On ch=1 n=d5 v=51
31075 On ch=1 n=b5 v=63
31081 On ch=1 n=f4 v=57
31096 On ch=1 n=b5 v=0
31098 On ch=1 n=f6 v=0
31098 On ch=1 n=b5 v=0
31101 On ch=1 n=f5 v=0
31101 On ch=1 n=g#5 v=0
31103 On ch=1 n=d5 v=0
31134 On ch=1 n=f4 v=0
31151 On ch=1 n=e6 v=92
31153 On ch=1 n=e5 v=59
31155 On ch=1 n=c5 v=61
31155 On ch=1 n=f4 v=22
31155 On ch=1 n=a5 v=69
31160 On ch=1 n=c6 v=74
31160 Par ch=1 c=64 v=88
31164 Par ch=1 c=64 v=0
31172 Par ch=1 c=64 v=40
31175 On ch=1 n=c6 v=0
31176 Par ch=1 c=64 v=104
31177 On ch=1 n=c5 v=0
31179 On ch=1 n=a5 v=0
31180 On ch=1 n=e5 v=0
31180 Par ch=1 c=64 v=127
31181 On ch=1 n=e6 v=0
31196 On ch=1 n=f4 v=0
31237 On ch=1 n=d6 v=92
31238 On ch=1 n=a#5 v=71
31240 On ch=1 n=f5 v=66
31241 Par ch=1 c=64 v=40
31243 On ch=1 n=d5 v=55
31244 On ch=1 n=a#4 v=49
31245 On ch=1 n=f4 v=53
31245 Par ch=1 c=64 v=0
31256 Par ch=1 c=64 v=127
31260 On ch=1 n=f5 v=0
31268 On ch=1 n=d5 v=0
31273 On ch=1 n=a#4 v=0
31279 On ch=1 n=f4 v=0
31287 On ch=1 n=a#5 v=0
31304 On ch=1 n=d6 v=0
31320 On ch=1 n=f5 v=86
31325 On ch=1 n=d5 v=40
31325 On ch=1 n=a#4 v=45
31330 On ch=1 n=f4 v=34
31345 On ch=1 n=f5 v=0
31347 On ch=1 n=f4 v=0
31353 On ch=1 n=d5 v=0
31360 On ch=1 n=a#4 v=0
31397 On ch=1 n=d6 v=94
31400 On ch=1 n=f5 v=84
31403 On ch=1 n=f4 v=54
31404 On ch=1 n=d5 v=52
31414 On ch=1 n=f5 v=0
31420 On ch=1 n=d5 v=0
31429 On ch=1 n=d6 v=0
31431 On ch=1 n=f4 v=0
31478 On ch=1 n=c6 v=96
31480 On ch=1 n=f#5 v=72
31482 On ch=1 n=d#5 v=51
31486 On ch=1 n=a4 v=48
31486 On ch=1 n=f4 v=49
31510 On ch=1 n=f4 v=0
31512 On ch=1 n=f#5 v=0
31514 On ch=1 n=c6 v=0
31522 On ch=1 n=a4 v=0
31526 On ch=1 n=d#5 v=0
31563 On ch=1 n=b5 v=103
31565 On ch=1 n=g#5 v=70
31567 On ch=1 n=f5 v=73
31570 On ch=1 n=d5 v=68
31570 On ch=1 n=g#4 v=59
31572 Par ch=1 c=64 v=0
31573 On ch=1 n=b4 v=63
31601 Par ch=1 c=64 v=127
31605 On ch=1 n=g#5 v=0
31611 On ch=1 n=g#4 v=0
31629 On ch=1 n=f5 v=0
31650 On ch=1 n=g5 v=79
31650 On ch=1 n=g4 v=63
31660 On ch=1 n=b4 v=0
31662 On ch=1 n=d5 v=0
31667 On ch=1 n=g4 v=0
31667 On ch=1 n=b5 v=0
31678 On ch=1 n=g5 v=0
31735 On ch=1 n=a#5 v=97
31738 On ch=1 n=g5 v=82
31739 On ch=1 n=c#5 v=72
31741 On ch=1 n=a#4 v=55
31745 On ch=1 n=f4 v=63
31747 On ch=1 n=g4 v=56
31751 Par ch=1 c=64 v=0
31775 Par ch=1 c=64 v=127
31793 On ch=1 n=c#5 v=0
31823 On ch=1 n=f4 v=0
31832 On ch=1 n=c5 v=86
31837 On ch=1 n=e4 v=66
31844 Par ch=1 c=64 v=88
31848 Par ch=1 c=64 v=0
31860 Par ch=1 c=64 v=104
31862 On ch=1 n=g4 v=0
31864 Par ch=1 c=64 v=127
31868 On ch=1 n=c5 v=0
31868 On ch=1 n=a#4 v=0
31874 On ch=1 n=e4 v=0
31877 On ch=1 n=g5 v=0
31891 On ch=1 n=a#5 v=0
31949 On ch=1 n=c#6 v=103
31953 On ch=1 n=c#5 v=74
31954 On ch=1 n=f5 v=79
31957 On ch=1 n=c#4 v=59
31957 On ch=1 n=a#4 v=49
31960 On ch=1 n=g4 v=55
31961 On ch=1 n=f5 v=0
31965 Par ch=1 c=64 v=56
31969 Par ch=1 c=64 v=24
31972 Par ch=1 c=64 v=0
31977 Par ch=1 c=64 v=56
31981 Par ch=1 c=64 v=127
31999 On ch=1 n=c#4 v=0
32009 On ch=1 n=a#4 v=0
32009 On ch=1 n=g4 v=0
32020 On ch=1 n=c#5 v=0
32026 On ch=1 n=c#6 v=0
32060 On ch=1 n=c6 v=97
32065 On ch=1 n=e5 v=77
32065 On ch=1 n=c5 v=67
32066 On ch=1 n=a#4 v=63
32069 On ch=1 n=g4 v=57
32071 On ch=1 n=c4 v=60
32081 Par ch=1 c=64 v=88
32085 Par ch=1 c=64 v=0
32105 Par ch=1 c=64 v=127
32113 On ch=1 n=c4 v=0
32113 On ch=1 n=e5 v=0
32124 On ch=1 n=c5 v=0
32135 On ch=1 n=c6 v=0
32138 On ch=1 n=a#4 v=0
32146 On ch=1 n=g4 v=0
32175 On ch=1 n=a5 v=89
32180 On ch=1 n=f5 v=71
32180 On ch=1 n=c5 v=63
32186 On ch=1 n=a4 v=59
32190 On ch=1 n=f4 v=52
32194 Par ch=1 c=64 v=72
32198 Par ch=1 c=64 v=0
32226 On ch=1 n=c5 v=0
32226 Par ch=1 c=64 v=127
32228 On ch=1 n=f5 v=0
32231 On ch=1 n=a4 v=0
32232 On ch=1 n=f4 v=0
32242 On ch=1 n=a5 v=0
32318 On ch=1 n=c6 v=63
32323 On ch=1 n=f5 v=35
32324 On ch=1 n=a5 v=46
32327 Par ch=1 c=64 v=72
32328 On ch=1 n=f4 v=25
32329 On ch=1 n=f3 v=34
32331 Par ch=1 c=64 v=0
32343 Par ch=1 c=64 v=104
32347 Par ch=1 c=64 v=127
32364 On ch=1 n=f5 v=0
32366 On ch=1 n=f3 v=0
32368 On ch=1 n=f4 v=0
32369 On ch=1 n=c6 v=0
32376 On ch=1 n=a5 v=0
32413 On ch=1 n=c6 v=57
32413 On ch=1 n=g5 v=49
32416 On ch=1 n=e5 v=43
32422 On ch=1 n=f4 v=42
32423 On ch=1 n=f3 v=37
32438 On ch=1 n=g5 v=0
32440 On ch=1 n=f3 v=0
32443 On ch=1 n=e5 v=0
32444 On ch=1 n=c6 v=0
32444 On ch=1 n=f4 v=0
32492 On ch=1 n=c6 v=52
32492 On ch=1 n=d5 v=37
32493 On ch=1 n=f5 v=47
32500 On ch=1 n=f3 v=32
32500 On ch=1 n=f4 v=31
32506 On ch=1 n=d5 v=0
32514 On ch=1 n=f3 v=0
32516 On ch=1 n=f4 v=0
32521 On ch=1 n=f5 v=0
32521 On ch=1 n=c6 v=0
32566 On ch=1 n=c6 v=56
32567 On ch=1 n=e5 v=46
32567 On ch=1 n=g5 v=48
32573 On ch=1 n=f3 v=36
32576 On ch=1 n=f4 v=25
32587 On ch=1 n=e5 v=0
32590 On ch=1 n=f3 v=0
32590 On ch=1 n=c6 v=0
32591 On ch=1 n=f4 v=0
32594 On ch=1 n=g5 v=0
32643 On ch=1 n=f5 v=43
32644 On ch=1 n=c6 v=49
32646 On ch=1 n=d5 v=39
32650 On ch=1 n=f3 v=34
32652 On ch=1 n=f4 v=29
32666 On ch=1 n=f5 v=0
32668 On ch=1 n=c6 v=0
32668 On ch=1 n=d5 v=0
32670 On ch=1 n=f3 v=0
32672 On ch=1 n=f4 v=0
32724 On ch=1 n=e5 v=49
32726 Par ch=1 c=64 v=24
32726 On ch=1 n=c6 v=51
32728 On ch=1 n=c5 v=38
32730 Par ch=1 c=64 v=0
32734 On ch=1 n=f4 v=30
32735 On ch=1 n=f3 v=31
32741 On ch=1 n=c5 v=0
32741 Par ch=1 c=64 v=40
32746 Par ch=1 c=64 v=127
32747 On ch=1 n=e5 v=0
32754 On ch=1 n=c6 v=0
32759 On ch=1 n=f3 v=0
32760 On ch=1 n=f4 v=0
32810 On ch=1 n=d6 v=64
32811 On ch=1 n=a#5 v=52
32813 On ch=1 n=g5 v=31
32815 On ch=1 n=f4 v=30
32816 On ch=1 n=f3 v=30
32825 On ch=1 n=g5 v=0
32836 On ch=1 n=a#5 v=0
32838 On ch=1 n=f3 v=0
32838 On ch=1 n=f4 v=0
32844 On ch=1 n=d6 v=0
32885 On ch=1 n=d6 v=53
32886 On ch=1 n=a5 v=64
32886 On ch=1 n=f5 v=48
32889 On ch=1 n=f4 v=36
32890 On ch=1 n=f3 v=37
32908 On ch=1 n=f5 v=0
32912 On ch=1 n=f3 v=0
32913 On ch=1 n=f4 v=0
32913 On ch=1 n=a5 v=0
32916 On ch=1 n=d6 v=0
32960 On ch=1 n=d6 v=56
32962 On ch=1 n=g5 v=50
32964 On ch=1 n=e5 v=43
32968 On ch=1 n=f4 v=38
32969 On ch=1 n=f3 v=39
32978 On ch=1 n=e5 v=0
32988 On ch=1 n=f4 v=0
32988 On ch=1 n=f3 v=0
32988 On ch=1 n=d6 v=0
32992 On ch=1 n=g5 v=0
33036 On ch=1 n=d6 v=56
33037 On ch=1 n=f5 v=52
33039 On ch=1 n=a5 v=56
33043 On ch=1 n=f3 v=40
33044 On ch=1 n=f4 v=33
33054 On ch=1 n=f5 v=0
33059 On ch=1 n=f3 v=0
33059 On ch=1 n=f4 v=0
33059 On ch=1 n=a5 v=0
33061 On ch=1 n=d6 v=0
33108 On ch=1 n=g5 v=55
33108 On ch=1 n=d6 v=47
33109 On ch=1 n=e5 v=48
33114 On ch=1 n=f3 v=39
33116 On ch=1 n=f4 v=30
33126 On ch=1 n=g5 v=0
33129 On ch=1 n=e5 v=0
33130 On ch=1 n=d6 v=0
33134 On ch=1 n=f4 v=0
33134 On ch=1 n=f3 v=0
33184 Par ch=1 c=64 v=56
33185 On ch=1 n=d5 v=55
33186 On ch=1 n=d6 v=58
33187 On ch=1 n=f5 v=46
33188 Par ch=1 c=64 v=0
33189 On ch=1 n=f3 v=40
33194 On ch=1 n=f4 v=25
33204 On ch=1 n=f5 v=0
33204 On ch=1 n=d5 v=0
33207 Par ch=1 c=64 v=88
33212 On ch=1 n=d6 v=0
33212 Par ch=1 c=64 v=127
33216 On ch=1 n=f3 v=0
33218 On ch=1 n=f4 v=0
33266 On ch=1 n=f6 v=60
33266 On ch=1 n=a#5 v=46
33267 On ch=1 n=f5 v=49
33269 On ch=1 n=d6 v=56
33270 On ch=1 n=f3 v=37
33270 On ch=1 n=f4 v=34
33289 On ch=1 n=f3 v=0
33290 On ch=1 n=f4 v=0
33293 On ch=1 n=a#5 v=0
33294 On ch=1 n=f5 v=0
33299 On ch=1 n=d6 v=0
33300 On ch=1 n=f6 v=0
33339 On ch=1 n=f6 v=63
33339 On ch=1 n=f5 v=55
33340 On ch=1 n=c6 v=63
33340 On ch=1 n=a5 v=53
33345 On ch=1 n=f4 v=38
33346 On ch=1 n=f3 v=40
33356 On ch=1 n=a5 v=0
33366 On ch=1 n=f5 v=0
33366 On ch=1 n=f3 v=0
33367 On ch=1 n=f4 v=0
33370 On ch=1 n=c6 v=0
33374 On ch=1 n=f6 v=0
33413 On ch=1 n=f6 v=80
33414 On ch=1 n=a#5 v=68
33414 On ch=1 n=f5 v=69
33422 On ch=1 n=f3 v=46
33422 On ch=1 n=f4 v=40
33422 On ch=1 n=g5 v=35
33447 On ch=1 n=f3 v=0
33449 On ch=1 n=g5 v=0
33450 On ch=1 n=f4 v=0
33451 On ch=1 n=f5 v=0
33453 On ch=1 n=a#5 v=0
33455 On ch=1 n=f6 v=0
33490 On ch=1 n=f6 v=79
33491 On ch=1 n=f5 v=70
33491 On ch=1 n=d6 v=73
33491 On ch=1 n=a#5 v=57
33500 On ch=1 n=f3 v=43
33500 On ch=1 n=f4 v=37
33517 On ch=1 n=a#5 v=0
33519 On ch=1 n=f5 v=0
33522 On ch=1 n=d6 v=0
33522 On ch=1 n=f4 v=0
33523 On ch=1 n=f6 v=0
33523 On ch=1 n=f3 v=0
33567 On ch=1 n=f6 v=87
33570 On ch=1 n=f5 v=66
33571 On ch=1 n=f3 v=51
33572 On ch=1 n=f4 v=48
33572 On ch=1 n=a5 v=66
33579 On ch=1 n=c6 v=33
33596 On ch=1 n=a5 v=0
33598 On ch=1 n=f3 v=0
33598 On ch=1 n=c6 v=0
33600 On ch=1 n=f4 v=0
33601 On ch=1 n=f5 v=0
33607 On ch=1 n=f6 v=0
33636 Par ch=1 c=64 v=104
33640 Par ch=1 c=64 v=24
33642 On ch=1 n=f5 v=67
33643 On ch=1 n=f6 v=76
33644 On ch=1 n=a5 v=67
33644 Par ch=1 c=64 v=0
33649 On ch=1 n=f4 v=57
33649 On ch=1 n=f3 v=51
33660 On ch=1 n=f3 v=0
33660 On ch=1 n=f5 v=0
33662 On ch=1 n=a5 v=0
33664 Par ch=1 c=64 v=72
33668 Par ch=1 c=64 v=127
33672 On ch=1 n=f6 v=0
33672 On ch=1 n=f4 v=0
33737 On ch=1 n=a6 v=71
33741 On ch=1 n=a5 v=38
33743 On ch=1 n=c6 v=50
33746 On ch=1 n=f5 v=42
33746 On ch=1 n=c5 v=36
33749 Par ch=1 c=64 v=56
33751 On ch=1 n=f4 v=29
33753 Par ch=1 c=64 v=0
33757 Par ch=1 c=64 v=24
33761 Par ch=1 c=64 v=88
33765 Par ch=1 c=64 v=127
33766 On ch=1 n=a6 v=0
33772 On ch=1 n=f5 v=0
33772 On ch=1 n=f4 v=0
33774 On ch=1 n=a5 v=0
33782 On ch=1 n=c5 v=0
33783 On ch=1 n=c6 v=0
33815 On ch=1 n=g6 v=76
33821 On ch=1 n=g5 v=47
33821 On ch=1 n=e5 v=50
33822 On ch=1 n=c6 v=57
33827 On ch=1 n=c5 v=25
33830 On ch=1 n=f4 v=25
33840 On ch=1 n=g6 v=0
33842 On ch=1 n=c5 v=0
33842 On ch=1 n=f4 v=0
33843 On ch=1 n=g5 v=0
33844 On ch=1 n=e5 v=0
33859 On ch=1 n=c6 v=0
33888 On ch=1 n=f6 v=77
33892 On ch=1 n=c6 v=56
33893 On ch=1 n=f5 v=49
33894 On ch=1 n=d5 v=45
33902 On ch=1 n=c5 v=31
33907 On ch=1 n=f5 v=0
33915 On ch=1 n=d5 v=0
33915 On ch=1 n=f6 v=0
33920 On ch=1 n=c5 v=0
33928 On ch=1 n=c6 v=0
33963 On ch=1 n=g6 v=77
33968 On ch=1 n=c6 v=71
33968 On ch=1 n=g5 v=56
33968 On ch=1 n=e5 v=40
33976 On ch=1 n=c5 v=30
33979 On ch=1 n=f4 v=18
33988 On ch=1 n=g5 v=0
33989 On ch=1 n=e5 v=0
33989 On ch=1 n=g6 v=0
33990 On ch=1 n=f4 v=0
33993 On ch=1 n=c5 v=0
34003 On ch=1 n=c6 v=0
34034 On ch=1 n=f6 v=78
34038 On ch=1 n=c6 v=68
34040 On ch=1 n=f5 v=51
34042 On ch=1 n=d5 v=44
34044 On ch=1 n=f4 v=37
34047 On ch=1 n=c5 v=30
34057 On ch=1 n=f6 v=0
34061 On ch=1 n=c5 v=0
34063 On ch=1 n=f5 v=0
34065 On ch=1 n=d5 v=0
34067 On ch=1 n=f4 v=0
34071 On ch=1 n=c6 v=0
34108 On ch=1 n=e6 v=80
34109 On ch=1 n=c6 v=64
34110 On ch=1 n=e5 v=51
34113 On ch=1 n=c5 v=58
34117 On ch=1 n=f4 v=35
34119 On ch=1 n=e5 v=0
34123 On ch=1 n=c6 v=0
34127 On ch=1 n=c5 v=0
34129 On ch=1 n=e6 v=0
34131 On ch=1 n=f4 v=0
34166 On ch=1 n=f4 v=44
34177 On ch=1 n=d5 v=26
34185 Par ch=1 c=64 v=40
34187 On ch=1 n=a#6 v=81
34189 Par ch=1 c=64 v=0
34193 On ch=1 n=a#5 v=57
34195 On ch=1 n=d6 v=69
34199 On ch=1 n=g5 v=39
34202 Par ch=1 c=64 v=56
34205 On ch=1 n=f5 v=27
34206 Par ch=1 c=64 v=127
34211 On ch=1 n=f5 v=0
34218 On ch=1 n=g5 v=0
34219 On ch=1 n=f4 v=0
34230 On ch=1 n=a#6 v=0
34231 On ch=1 n=d5 v=0
34232 On ch=1 n=d6 v=0
34233 On ch=1 n=a#5 v=0
34264 On ch=1 n=a6 v=90
34268 On ch=1 n=a5 v=66
34268 On ch=1 n=d6 v=77
34271 On ch=1 n=d5 v=50
34272 On ch=1 n=f5 v=59
34275 On ch=1 n=b5 v=32
34282 On ch=1 n=b5 v=0
34293 On ch=1 n=a6 v=0
34295 On ch=1 n=d5 v=0
34297 On ch=1 n=a5 v=0
34297 On ch=1 n=f5 v=0
34309 On ch=1 n=d6 v=0
34338 On ch=1 n=g6 v=87
34341 On ch=1 n=d6 v=73
34341 On ch=1 n=g5 v=67
34345 On ch=1 n=e5 v=57
34348 On ch=1 n=f4 v=42
34349 On ch=1 n=d5 v=46
34359 On ch=1 n=g5 v=0
34367 On ch=1 n=g6 v=0
34370 On ch=1 n=e5 v=0
34374 On ch=1 n=f4 v=0
34375 On ch=1 n=d5 v=0
34381 On ch=1 n=d6 v=0
34414 On ch=1 n=a6 v=85
34417 On ch=1 n=d5 v=58
34417 On ch=1 n=a5 v=69
34418 On ch=1 n=d6 v=76
34419 On ch=1 n=f5 v=56
34424 On ch=1 n=f4 v=29
34440 On ch=1 n=f5 v=0
34443 On ch=1 n=a6 v=0
34445 On ch=1 n=a5 v=0
34447 On ch=1 n=d5 v=0
34451 On ch=1 n=f4 v=0
34460 On ch=1 n=d6 v=0
34487 On ch=1 n=g6 v=87
34488 On ch=1 n=d6 v=73
34491 On ch=1 n=g5 v=66
34493 On ch=1 n=d5 v=53
34498 On ch=1 n=f4 v=30
34509 On ch=1 n=d6 v=0
34512 On ch=1 n=g6 v=0
34520 On ch=1 n=g5 v=0
34522 On ch=1 n=d5 v=0
34523 On ch=1 n=f4 v=0
34564 On ch=1 n=f6 v=90
34564 On ch=1 n=f5 v=74
34564 Par ch=1 c=64 v=56
34565 On ch=1 n=d6 v=82
34568 On ch=1 n=d5 v=59
34569 Par ch=1 c=64 v=0
34576 On ch=1 n=f5 v=0
34581 Par ch=1 c=64 v=72
34582 On ch=1 n=d6 v=0
34585 Par ch=1 c=64 v=127
34586 On ch=1 n=f6 v=0
34597 On ch=1 n=d5 v=0
34607 On ch=1 n=f4 v=58
34623 On ch=1 n=d5 v=55
34626 On ch=1 n=f4 v=0
34642 On ch=1 n=d7 v=98
34645 On ch=1 n=d6 v=71
34645 On ch=1 n=f6 v=78
34648 On ch=1 n=a#5 v=67
34665 On ch=1 n=a#5 v=0
34671 On ch=1 n=d6 v=0
34672 On ch=1 n=f6 v=0
34672 On ch=1 n=d7 v=0
34686 On ch=1 n=d5 v=0
34695 On ch=1 n=f4 v=55
34702 On ch=1 n=f4 v=0
34705 On ch=1 n=c5 v=54
34709 Par ch=1 c=64 v=104
34714 Par ch=1 c=64 v=127
34715 On ch=1 n=c7 v=93
34719 On ch=1 n=c6 v=79
34720 On ch=1 n=f6 v=84
34721 On ch=1 n=a5 v=72
34733 On ch=1 n=a5 v=0
34734 On ch=1 n=c5 v=0
34737 On ch=1 n=c6 v=0
34748 On ch=1 n=c7 v=0
34759 On ch=1 n=f6 v=0
34766 On ch=1 n=f4 v=66
34775 On ch=1 n=f4 v=0
34777 On ch=1 n=d5 v=25
34787 On ch=1 n=a#6 v=89
34789 On ch=1 n=a#5 v=78
34790 On ch=1 n=f6 v=71
34812 On ch=1 n=f6 v=0
34815 On ch=1 n=a#5 v=0
34825 On ch=1 n=a#6 v=0
34841 On ch=1 n=f4 v=58
34848 On ch=1 n=f4 v=0
34860 On ch=1 n=d7 v=96
34862 On ch=1 n=f6 v=77
34862 On ch=1 n=d6 v=75
34871 On ch=1 n=a#5 v=68
34883 On ch=1 n=a#5 v=0
34883 On ch=1 n=d6 v=0
34885 On ch=1 n=f6 v=0
34887 On ch=1 n=d7 v=0
34897 On ch=1 n=d5 v=0
34905 On ch=1 n=f4 v=67
34915 On ch=1 n=a4 v=19
34916 On ch=1 n=f4 v=0
34924 On ch=1 n=a4 v=0
34927 On ch=1 n=c7 v=92
34929 On ch=1 n=c6 v=86
34930 On ch=1 n=f6 v=79
34944 On ch=1 n=f6 v=0
34944 On ch=1 n=c7 v=0
34949 On ch=1 n=c6 v=0
34979 On ch=1 n=c5 v=26
34991 On ch=1 n=f4 v=57
34994 Par ch=1 c=64 v=104
34998 Par ch=1 c=64 v=40
35000 On ch=1 n=a5 v=90
35000 On ch=1 n=a6 v=97
35000 On ch=1 n=f6 v=91
35002 Par ch=1 c=64 v=24
35006 Par ch=1 c=64 v=72
35010 Par ch=1 c=64 v=127
35010 On ch=1 n=f5 v=60
35012 On ch=1 n=a5 v=0
35014 On ch=1 n=c5 v=0
35017 On ch=1 n=f4 v=0
35018 On ch=1 n=f6 v=0
35022 On ch=1 n=a6 v=0
35025 On ch=1 n=f5 v=0
35073 On ch=1 n=f7 v=97
35074 On ch=1 n=d7 v=86
35074 On ch=1 n=a#6 v=76
35075 On ch=1 n=f6 v=91
35077 On ch=1 n=a#4 v=52
35077 Par ch=1 c=64 v=72
35079 On ch=1 n=f4 v=65
35079 On ch=1 n=d5 v=59
35079 On ch=1 n=f5 v=54
35081 Par ch=1 c=64 v=0
35093 On ch=1 n=d5 v=0
35094 Par ch=1 c=64 v=127
35098 On ch=1 n=a#4 v=0
35099 On ch=1 n=a#6 v=0
35103 On ch=1 n=f5 v=0
35106 On ch=1 n=f6 v=0
35106 On ch=1 n=f7 v=0
35108 On ch=1 n=f4 v=0
35110 On ch=1 n=d7 v=0
35148 On ch=1 n=f7 v=97
35149 On ch=1 n=c7 v=86
35150 On ch=1 n=a6 v=85
35150 On ch=1 n=f6 v=91
35151 Par ch=1 c=64 v=104
35153 On ch=1 n=c5 v=49
35154 On ch=1 n=f5 v=63
35155 Par ch=1 c=64 v=88
35156 On ch=1 n=a4 v=56
35159 Par ch=1 c=64 v=127
35159 On ch=1 n=f4 v=52
35168 On ch=1 n=c5 v=0
35168 On ch=1 n=a6 v=0
35178 On ch=1 n=a4 v=0
35182 On ch=1 n=f6 v=0
35182 On ch=1 n=c7 v=0
35191 On ch=1 n=f5 v=0
35192 On ch=1 n=f7 v=0
35198 On ch=1 n=f4 v=0
35224 On ch=1 n=f7 v=91
35225 On ch=1 n=a#6 v=78
35226 On ch=1 n=f6 v=89
35226 On ch=1 n=d7 v=86
35228 On ch=1 n=g4 v=66
35229 On ch=1 n=a#4 v=56
35231 On ch=1 n=f5 v=57
35235 On ch=1 n=f4 v=49
35247 On ch=1 n=a#4 v=0
35253 On ch=1 n=g4 v=0
35258 On ch=1 n=a#6 v=0
35261 On ch=1 n=f6 v=0
35263 On ch=1 n=f5 v=0
35264 On ch=1 n=f7 v=0
35266 On ch=1 n=f4 v=0
35269 On ch=1 n=d7 v=0
35300 On ch=1 n=f7 v=97
35300 On ch=1 n=d7 v=89
35301 On ch=1 n=a#6 v=81
35301 On ch=1 n=d5 v=75
35302 On ch=1 n=f6 v=91
35303 On ch=1 n=a#4 v=60
35304 Par ch=1 c=64 v=56
35305 On ch=1 n=f5 v=69
35306 On ch=1 n=f4 v=57
35308 Par ch=1 c=64 v=24
35312 Par ch=1 c=64 v=72
35316 Par ch=1 c=64 v=127
35321 On ch=1 n=d5 v=0
35328 On ch=1 n=a#4 v=0
35332 On ch=1 n=a#6 v=0
35336 On ch=1 n=f6 v=0
35338 On ch=1 n=f7 v=0
35340 On ch=1 n=d7 v=0
35343 On ch=1 n=f5 v=0
35353 On ch=1 n=f4 v=0
35368 On ch=1 n=f7 v=103
35369 On ch=1 n=c5 v=64
35369 On ch=1 n=c7 v=88
35370 Par ch=1 c=64 v=88
35371 On ch=1 n=f6 v=93
35371 On ch=1 n=a6 v=86
35371 On ch=1 n=a4 v=66
35372 On ch=1 n=f5 v=57
35374 On ch=1 n=f4 v=51
35374 Par ch=1 c=64 v=24
35385 Par ch=1 c=64 v=127
35395 On ch=1 n=a4 v=0
35399 On ch=1 n=a6 v=0
35401 On ch=1 n=c5 v=0
35405 On ch=1 n=f6 v=0
35405 On ch=1 n=f5 v=0
35411 On ch=1 n=f7 v=0
35412 On ch=1 n=c7 v=0
35418 On ch=1 n=f4 v=0
35447 Par ch=1 c=64 v=56
35449 On ch=1 n=f7 v=110
35449 On ch=1 n=f6 v=100
35449 On ch=1 n=a4 v=67
35449 On ch=1 n=f5 v=60
35450 On ch=1 n=a6 v=90
35451 On ch=1 n=c5 v=50
35451 Par ch=1 c=64 v=0
35451 On ch=1 n=f4 v=52
35455 On ch=1 n=c#7 v=42
35457 On ch=1 n=c5 v=0
35458 On ch=1 n=f5 v=0
35462 On ch=1 n=c#7 v=0
35462 Par ch=1 c=64 v=127
35464 On ch=1 n=a4 v=0
35465 On ch=1 n=a6 v=0
35465 On ch=1 n=f4 v=0
35465 On ch=1 n=f6 v=0
35476 On ch=1 n=f7 v=0
35502 On ch=1 n=d4 v=34
35513 On ch=1 n=f3 v=57
35520 On ch=1 n=g#3 v=26
35528 On ch=1 n=g#3 v=0
35528 On ch=1 n=f3 v=0
35532 On ch=1 n=a#7 v=105
35534 On ch=1 n=a#6 v=90
35535 On ch=1 n=d7 v=93
35538 On ch=1 n=a#4 v=73
35552 On ch=1 n=d7 v=0
35553 On ch=1 n=a#4 v=0
35565 On ch=1 n=a#6 v=0
35567 On ch=1 n=a#7 v=0
35567 On ch=1 n=d4 v=0
35581 On ch=1 n=f3 v=73
35590 On ch=1 n=c4 v=57
35595 On ch=1 n=f3 v=0
35605 Par ch=1 c=64 v=56
35607 On ch=1 n=a4 v=77
35608 On ch=1 n=a7 v=114
35609 Par ch=1 c=64 v=88
35610 On ch=1 n=a6 v=89
35610 On ch=1 n=c7 v=89
35613 Par ch=1 c=64 v=127
35620 On ch=1 n=c4 v=0
35625 On ch=1 n=a4 v=0
35636 On ch=1 n=c7 v=0
35637 On ch=1 n=a7 v=0
35643 On ch=1 n=a6 v=0
35653 On ch=1 n=f3 v=69
35663 On ch=1 n=d4 v=58
35667 On ch=1 n=f3 v=0
35667 Par ch=1 c=64 v=104
35671 Par ch=1 c=64 v=24
35679 Par ch=1 c=64 v=104
35683 Par ch=1 c=64 v=127
35684 On ch=1 n=g7 v=108
35685 On ch=1 n=g6 v=98
35685 On ch=1 n=a#6 v=85
35686 On ch=1 n=a#4 v=74
35693 On ch=1 n=d#7 v=32
35694 On ch=1 n=d4 v=0
35698 On ch=1 n=a#6 v=0
35698 On ch=1 n=g6 v=0
35700 On ch=1 n=d#7 v=0
35701 On ch=1 n=a#4 v=0
35710 On ch=1 n=g7 v=0
35733 On ch=1 n=f3 v=77
35748 On ch=1 n=f3 v=0
35748 On ch=1 n=a#3 v=64
35770 On ch=1 n=a#7 v=103
35771 On ch=1 n=a#4 v=74
35772 On ch=1 n=a#6 v=90
35773 On ch=1 n=d7 v=94
35789 On ch=1 n=a#4 v=0
35791 On ch=1 n=a#3 v=0
35801 On ch=1 n=d7 v=0
35810 On ch=1 n=a#6 v=0
35810 On ch=1 n=a#7 v=0
35824 On ch=1 n=f3 v=73
35833 On ch=1 n=c4 v=55
35836 Par ch=1 c=64 v=40
35840 Par ch=1 c=64 v=0
35844 On ch=1 n=f3 v=0
35852 Par ch=1 c=64 v=127
35864 On ch=1 n=a7 v=114
35866 On ch=1 n=a6 v=103
35869 On ch=1 n=a4 v=72
35884 On ch=1 n=c4 v=0
35889 On ch=1 n=a4 v=0
35936 On ch=1 n=a7 v=0
35944 On ch=1 n=a6 v=0
35953 On ch=1 n=f7 v=100
35955 On ch=1 n=c7 v=89
35969 Par ch=1 c=64 v=40
35973 Par ch=1 c=64 v=0
35981 Par ch=1 c=64 v=56
35984 Par ch=1 c=64 v=127
35996 On ch=1 n=f4 v=66
36007 On ch=1 n=c5 v=60
36012 On ch=1 n=f4 v=0
36015 On ch=1 n=c7 v=0
36015 On ch=1 n=d#5 v=59
36025 On ch=1 n=f7 v=0
36035 On ch=1 n=a7 v=107
36037 On ch=1 n=a6 v=80
36038 On ch=1 n=a5 v=65
36042 On ch=1 n=c5 v=0
36052 On ch=1 n=d#5 v=0
36055 On ch=1 n=a5 v=0
36072 On ch=1 n=a7 v=0
36084 On ch=1 n=a6 v=0
36119 On ch=1 n=g7 v=97
36123 On ch=1 n=g6 v=87
36152 On ch=1 n=g7 v=0
36157 On ch=1 n=g6 v=0
36200 On ch=1 n=f7 v=98
36202 On ch=1 n=f6 v=92
36220 Par ch=1 c=64 v=72
36223 Par ch=1 c=64 v=0
36227 Par ch=1 c=64 v=24
36232 Par ch=1 c=64 v=88
36236 Par ch=1 c=64 v=127
36244 On ch=1 n=f4 v=34
36252 On ch=1 n=f4 v=0
36252 On ch=1 n=c5 v=60
36258 On ch=1 n=d#5 v=60
36270 On ch=1 n=f7 v=0
36273 On ch=1 n=f6 v=0
36282 On ch=1 n=c7 v=80
36283 On ch=1 n=a6 v=71
36284 On ch=1 n=a5 v=70
36326 On ch=1 n=a6 v=0
36344 On ch=1 n=c7 v=0
36353 On ch=1 n=f7 v=96
36355 On ch=1 n=f6 v=91
36380 On ch=1 n=f6 v=0
36380 On ch=1 n=f7 v=0
36413 On ch=1 n=a5 v=0
36430 On ch=1 n=d#7 v=95
36433 On ch=1 n=d#6 v=92
36443 On ch=1 n=c5 v=0
36447 On ch=1 n=d#5 v=0
36447 Par ch=1 c=64 v=88
36451 Par ch=1 c=64 v=40
36455 Par ch=1 c=64 v=72
36459 Par ch=1 c=64 v=127
36462 On ch=1 n=f4 v=60
36472 On ch=1 n=d#6 v=0
36474 On ch=1 n=f4 v=0
36474 On ch=1 n=d#7 v=0
36478 On ch=1 n=d#5 v=39
36478 On ch=1 n=c5 v=46
36503 On ch=1 n=a5 v=59
36507 On ch=1 n=d7 v=96
36509 On ch=1 n=d6 v=87
36563 On ch=1 n=d7 v=0
36569 On ch=1 n=d6 v=0
36586 On ch=1 n=a6 v=77
36586 On ch=1 n=f6 v=80
36604 On ch=1 n=a5 v=0
36619 On ch=1 n=f6 v=0
36637 On ch=1 n=d#5 v=0
36646 On ch=1 n=c5 v=0
36651 On ch=1 n=a6 v=0
36658 On ch=1 n=d7 v=94
36660 On ch=1 n=d6 v=85
36680 On ch=1 n=d7 v=0
36681 On ch=1 n=d6 v=0
36699 On ch=1 n=f4 v=59
36714 On ch=1 n=f4 v=0
36717 On ch=1 n=c5 v=37
36719 On ch=1 n=d#5 v=44
36739 On ch=1 n=c7 v=92
36743 On ch=1 n=c6 v=80
36743 On ch=1 n=a5 v=56
36763 On ch=1 n=c7 v=0
36768 On ch=1 n=c6 v=0
36775 On ch=1 n=a5 v=0
36786 On ch=1 n=c5 v=0
36788 On ch=1 n=d#5 v=0
36824 On ch=1 n=a6 v=85
36825 On ch=1 n=a5 v=76
36877 On ch=1 n=a6 v=0
36881 On ch=1 n=a5 v=0
36899 On ch=1 n=d#6 v=78
36903 On ch=1 n=c6 v=74
36919 Par ch=1 c=64 v=56
36923 Par ch=1 c=64 v=0
36931 Par ch=1 c=64 v=72
36935 Par ch=1 c=64 v=127
36939 On ch=1 n=f3 v=65
36959 On ch=1 n=f3 v=0
36959 On ch=1 n=c4 v=61
36962 On ch=1 n=c6 v=0
36969 On ch=1 n=d#4 v=55
36973 On ch=1 n=a6 v=89
36976 On ch=1 n=a5 v=80
36985 On ch=1 n=d#6 v=0
36990 On ch=1 n=a4 v=47
37001 On ch=1 n=a6 v=0
37004 On ch=1 n=a5 v=0
37059 On ch=1 n=g6 v=87
37061 On ch=1 n=g5 v=71
37084 On ch=1 n=g6 v=0
37100 On ch=1 n=g5 v=0
37134 On ch=1 n=a4 v=0
37134 On ch=1 n=f6 v=88
37137 On ch=1 n=f5 v=71
37147 On ch=1 n=d#4 v=0
37149 On ch=1 n=c4 v=0
37170 Par ch=1 c=64 v=88
37174 Par ch=1 c=64 v=24
37178 Par ch=1 c=64 v=0
37181 On ch=1 n=f3 v=58
37181 Par ch=1 c=64 v=40
37186 Par ch=1 c=64 v=104
37190 Par ch=1 c=64 v=127
37199 On ch=1 n=f5 v=0
37200 On ch=1 n=f6 v=0
37201 On ch=1 n=f3 v=0
37208 On ch=1 n=d#4 v=38
37209 On ch=1 n=c6 v=77
37209 On ch=1 n=a5 v=66
37210 On ch=1 n=c4 v=47
37226 On ch=1 n=a4 v=52
37249 On ch=1 n=c6 v=0
37257 On ch=1 n=a5 v=0
37280 On ch=1 n=f6 v=100
37280 On ch=1 n=f5 v=84
37301 On ch=1 n=f5 v=0
37301 On ch=1 n=f6 v=0
37354 On ch=1 n=d#6 v=92
37355 On ch=1 n=d#5 v=89
37365 On ch=1 n=a4 v=0
37381 On ch=1 n=d#4 v=0
37381 On ch=1 n=c4 v=0
37389 On ch=1 n=d#6 v=0
37395 On ch=1 n=d#5 v=0
37412 On ch=1 n=f3 v=55
37433 On ch=1 n=f3 v=0
37437 On ch=1 n=d#4 v=49
37437 On ch=1 n=d6 v=89
37439 On ch=1 n=d5 v=80
37440 Par ch=1 c=64 v=88
37443 On ch=1 n=c4 v=28
37444 Par ch=1 c=64 v=0
37455 On ch=1 n=a4 v=50
37456 Par ch=1 c=64 v=56
37460 Par ch=1 c=64 v=127
37495 On ch=1 n=d6 v=0
37501 On ch=1 n=d5 v=0
37518 On ch=1 n=a5 v=72
37518 On ch=1 n=f5 v=67
37530 On ch=1 n=a4 v=0
37545 On ch=1 n=d#4 v=0
37549 On ch=1 n=c4 v=0
37550 On ch=1 n=f5 v=0
37586 On ch=1 n=a5 v=0
37590 On ch=1 n=d6 v=79
37595 On ch=1 n=d5 v=66
37611 On ch=1 n=d6 v=0
37615 On ch=1 n=d5 v=0
37641 On ch=1 n=f3 v=55
37656 On ch=1 n=f3 v=0
37658 Par ch=1 c=64 v=104
37667 On ch=1 n=d#4 v=46
37670 Par ch=1 c=64 v=127
37671 On ch=1 n=c6 v=80
37673 On ch=1 n=c4 v=25
37673 On ch=1 n=c5 v=71
37681 On ch=1 n=a4 v=51
37684 On ch=1 n=c4 v=0
37690 On ch=1 n=c6 v=0
37694 On ch=1 n=c5 v=0
37706 On ch=1 n=a4 v=0
37707 On ch=1 n=d#4 v=0
37755 On ch=1 n=a5 v=79
37756 On ch=1 n=a4 v=65
37805 On ch=1 n=a5 v=0
37820 On ch=1 n=a4 v=0
37832 On ch=1 n=d#5 v=64
37836 On ch=1 n=c5 v=61
37860 On ch=1 n=c5 v=0
37868 On ch=1 n=f3 v=47
37900 On ch=1 n=d#5 v=0
37900 On ch=1 n=d#4 v=26
37906 On ch=1 n=a5 v=80
37909 On ch=1 n=a4 v=57
37913 On ch=1 n=f4 v=39
37915 On ch=1 n=f3 v=0
37915 On ch=1 n=c4 v=33
37925 Par ch=1 c=64 v=24
37929 Par ch=1 c=64 v=0
37949 Par ch=1 c=64 v=127
37951 On ch=1 n=a5 v=0
37980 On ch=1 n=a4 v=0
37988 On ch=1 n=g5 v=77
37989 On ch=1 n=d#5 v=55
37992 On ch=1 n=c5 v=63
38034 On ch=1 n=c5 v=0
38035 On ch=1 n=g5 v=0
38050 On ch=1 n=d#5 v=0
38071 On ch=1 n=f5 v=74
38076 On ch=1 n=f4 v=0
38077 On ch=1 n=a4 v=56
38078 On ch=1 n=d#4 v=0
38079 On ch=1 n=c4 v=0
38143 On ch=1 n=a4 v=0
38152 On ch=1 n=d#5 v=65
38154 On ch=1 n=f5 v=0
38154 On ch=1 n=d#4 v=36
38155 On ch=1 n=c5 v=69
38161 On ch=1 n=f3 v=36
38166 On ch=1 n=c4 v=35
38175 Par ch=1 c=64 v=104
38179 Par ch=1 c=64 v=40
38183 Par ch=1 c=64 v=56
38187 Par ch=1 c=64 v=127
38211 On ch=1 n=c5 v=0
38229 On ch=1 n=f3 v=0
38229 On ch=1 n=d#5 v=0
38233 On ch=1 n=a5 v=91
38236 On ch=1 n=a4 v=61
38238 On ch=1 n=c4 v=0
38241 On ch=1 n=d#4 v=0
38297 On ch=1 n=a5 v=0
38307 On ch=1 n=a4 v=0
38312 On ch=1 n=d#5 v=76
38316 On ch=1 n=c5 v=77
38362 On ch=1 n=f3 v=40
38370 On ch=1 n=c4 v=44
38379 On ch=1 n=c5 v=0
38387 On ch=1 n=a5 v=91
38389 On ch=1 n=d#4 v=35
38390 On ch=1 n=a4 v=66
38397 On ch=1 n=f4 v=49
38402 Par ch=1 c=64 v=0
38426 On ch=1 n=d#5 v=0
38427 Par ch=1 c=64 v=127
38434 On ch=1 n=a5 v=0
38469 On ch=1 n=a4 v=0
38472 On ch=1 n=g5 v=93
38476 On ch=1 n=c5 v=85
38532 On ch=1 n=g5 v=0
38550 On ch=1 n=c5 v=0
38564 On ch=1 n=f5 v=88
38570 On ch=1 n=a4 v=71
38593 On ch=1 n=c4 v=0
38594 On ch=1 n=f3 v=0
38595 On ch=1 n=f4 v=0
38598 On ch=1 n=d#4 v=0
38643 On ch=1 n=f5 v=0
38657 On ch=1 n=d#5 v=85
38660 On ch=1 n=d#4 v=49
38660 On ch=1 n=c5 v=81
38664 On ch=1 n=c4 v=58
38672 On ch=1 n=f3 v=42
38674 On ch=1 n=a4 v=0
38684 On ch=1 n=c5 v=0
38688 On ch=1 n=c4 v=0
38689 On ch=1 n=d#4 v=0
38690 On ch=1 n=f3 v=0
38707 On ch=1 n=d#5 v=0
38778 On ch=1 n=a5 v=101
38781 On ch=1 n=a4 v=81
38783 On ch=1 n=c#4 v=63
38784 On ch=1 n=e4 v=71
38785 On ch=1 n=e3 v=70
38787 Par ch=1 c=64 v=0
38811 Par ch=1 c=64 v=127
38823 On ch=1 n=e3 v=0
38829 On ch=1 n=e4 v=0
38835 On ch=1 n=c#4 v=0
38864 On ch=1 n=a5 v=0
38866 On ch=1 n=a4 v=0
38874 On ch=1 n=e5 v=73
38878 On ch=1 n=c#5 v=54
38944 On ch=1 n=c#5 v=0
38952 On ch=1 n=a5 v=86
38955 On ch=1 n=c#6 v=63
38956 On ch=1 n=a6 v=82
38957 On ch=1 n=e6 v=68
38958 On ch=1 n=a4 v=58
38981 On ch=1 n=a4 v=0
38982 On ch=1 n=a5 v=0
38983 On ch=1 n=c#6 v=0
38994 On ch=1 n=a6 v=0
39029 On ch=1 n=e5 v=0
39036 On ch=1 n=b6 v=98
39037 On ch=1 n=g#5 v=89
39039 On ch=1 n=c#6 v=67
39041 On ch=1 n=c#5 v=68
39107 On ch=1 n=g#5 v=0
39118 On ch=1 n=c#5 v=0
39123 On ch=1 n=f#5 v=77
39129 On ch=1 n=a4 v=66
39132 On ch=1 n=c#6 v=0
39137 On ch=1 n=b6 v=0
39182 On ch=1 n=a4 v=0
39192 On ch=1 n=f#5 v=0
39206 On ch=1 n=c#7 v=95
39206 On ch=1 n=e5 v=85
39207 On ch=1 n=c#6 v=68
39208 On ch=1 n=c#5 v=73
39222 On ch=1 n=c#7 v=0
39229 On ch=1 n=c#6 v=0
39229 On ch=1 n=e6 v=0
39240 On ch=1 n=c#5 v=0
39258 On ch=1 n=e5 v=0
39313 On ch=1 n=g#5 v=96
39316 On ch=1 n=g#4 v=80
39316 Par ch=1 c=64 v=88
39319 On ch=1 n=e4 v=89
39319 On ch=1 n=d4 v=98
39320 On ch=1 n=e3 v=85
39320 Par ch=1 c=64 v=0
39344 Par ch=1 c=64 v=127
39353 On ch=1 n=e3 v=0
39357 On ch=1 n=e4 v=0
39358 On ch=1 n=d4 v=0
39389 On ch=1 n=g#5 v=0
39396 On ch=1 n=g#4 v=0
39400 On ch=1 n=e5 v=73
39404 On ch=1 n=d5 v=65
39464 On ch=1 n=d5 v=0
39476 On ch=1 n=g#5 v=87
39477 On ch=1 n=e5 v=0
39480 On ch=1 n=d7 v=94
39480 On ch=1 n=g#4 v=75
39481 On ch=1 n=e6 v=57
39481 On ch=1 n=d6 v=66
39516 On ch=1 n=g#5 v=0
39544 On ch=1 n=g#4 v=0
39563 On ch=1 n=f#5 v=84
39568 On ch=1 n=b4 v=74
39619 On ch=1 n=f#5 v=0
39636 On ch=1 n=b4 v=0
39646 On ch=1 n=e5 v=77
39648 On ch=1 n=d7 v=0
39648 On ch=1 n=g#4 v=63
39703 On ch=1 n=d6 v=0
39719 On ch=1 n=e6 v=0
39719 On ch=1 n=g#4 v=0
39721 On ch=1 n=e5 v=0
39729 On ch=1 n=d6 v=71
39729 On ch=1 n=e6 v=57
39730 On ch=1 n=g#6 v=88
39732 On ch=1 n=d5 v=70
39736 On ch=1 n=b4 v=55
39746 On ch=1 n=d6 v=0
39748 On ch=1 n=e6 v=0
39748 On ch=1 n=g#6 v=0
39756 On ch=1 n=b4 v=0
39766 On ch=1 n=d5 v=0
39844 On ch=1 n=g#5 v=91
39848 On ch=1 n=g#4 v=75
39850 On ch=1 n=d#4 v=90
39850 Par ch=1 c=64 v=56
39852 On ch=1 n=c4 v=82
39854 On ch=1 n=d#3 v=65
39854 Par ch=1 c=64 v=0
39858 On ch=1 n=c4 v=0
39864 On ch=1 n=c4 v=59
39874 Par ch=1 c=64 v=127
39877 On ch=1 n=c4 v=0
39880 On ch=1 n=d#3 v=0
39885 On ch=1 n=d#4 v=0
39928 On ch=1 n=g#5 v=0
39934 On ch=1 n=d#5 v=70
39940 On ch=1 n=g#4 v=0
39942 On ch=1 n=c5 v=52
39986 On ch=1 n=c5 v=0
40008 On ch=1 n=g#5 v=76
40012 On ch=1 n=g#6 v=96
40013 On ch=1 n=g#4 v=57
40013 On ch=1 n=c6 v=74
40015 On ch=1 n=d#6 v=73
40034 On ch=1 n=g#4 v=0
40036 On ch=1 n=c6 v=0
40050 On ch=1 n=g#6 v=0
40051 On ch=1 n=g#5 v=0
40068 On ch=1 n=d#6 v=0
40089 On ch=1 n=d#5 v=0
40099 On ch=1 n=g5 v=79
40099 On ch=1 n=a#6 v=91
40100 On ch=1 n=d#6 v=42
40102 On ch=1 n=c6 v=72
40106 On ch=1 n=c5 v=53
40150 On ch=1 n=c6 v=0
40160 On ch=1 n=g5 v=0
40168 On ch=1 n=c5 v=0
40182 On ch=1 n=a#6 v=0
40182 On ch=1 n=f5 v=77
40185 On ch=1 n=g#4 v=50
40203 On ch=1 n=g#4 v=0
40206 On ch=1 n=d#6 v=0
40252 On ch=1 n=f5 v=0
40255 On ch=1 n=d#6 v=63
40261 On ch=1 n=c6 v=76
40262 On ch=1 n=c7 v=94
40263 On ch=1 n=d#5 v=74
40271 On ch=1 n=c5 v=56
40274 On ch=1 n=c7 v=0
40281 On ch=1 n=c6 v=0
40284 On ch=1 n=d#6 v=0
40288 On ch=1 n=c5 v=0
40294 On ch=1 n=d#5 v=0
40364 On ch=1 n=g5 v=93
40368 On ch=1 n=g4 v=84
40371 Par ch=1 c=64 v=72
40375 Par ch=1 c=64 v=0
40376 On ch=1 n=d#3 v=63
40376 On ch=1 n=a#3 v=60
40376 On ch=1 n=d#4 v=63
40377 On ch=1 n=c#4 v=57
40395 Par ch=1 c=64 v=72
40399 Par ch=1 c=64 v=127
40421 On ch=1 n=c#4 v=0
40431 On ch=1 n=a#3 v=0
40431 On ch=1 n=d#3 v=0
40431 On ch=1 n=d#4 v=0
40439 On ch=1 n=g4 v=0
40443 On ch=1 n=g5 v=0
40447 On ch=1 n=c#5 v=76
40449 On ch=1 n=a#4 v=63
40530 On ch=1 n=g5 v=81
40530 On ch=1 n=c#7 v=101
40531 On ch=1 n=c#5 v=0
40533 On ch=1 n=d#6 v=61
40534 On ch=1 n=g6 v=80
40534 On ch=1 n=c#6 v=60
40536 On ch=1 n=g4 v=57
40559 On ch=1 n=a#4 v=0
40562 On ch=1 n=g5 v=0
40594 On ch=1 n=g4 v=0
40613 On ch=1 n=f5 v=75
40615 On ch=1 n=a#4 v=55
40677 On ch=1 n=f5 v=0
40693 On ch=1 n=d#5 v=76
40697 On ch=1 n=g4 v=63
40698 On ch=1 n=a#4 v=0
40699 On ch=1 n=c#7 v=0
40720 On ch=1 n=g6 v=0
40724 On ch=1 n=d#6 v=0
40730 On ch=1 n=c#6 v=0
40770 On ch=1 n=g4 v=0
40778 On ch=1 n=g6 v=88
40780 On ch=1 n=c#6 v=65
40780 On ch=1 n=d#6 v=68
40782 On ch=1 n=c#5 v=64
40786 On ch=1 n=a#4 v=38
40791 On ch=1 n=d#5 v=0
40796 On ch=1 n=g6 v=0
40802 On ch=1 n=c#6 v=0
40805 On ch=1 n=d#6 v=0
40861 On ch=1 n=c#5 v=0
40877 On ch=1 n=a#4 v=0
40895 On ch=1 n=f#5 v=89
40900 On ch=1 n=f#4 v=66
40904 On ch=1 n=c#4 v=65
40906 On ch=1 n=a#3 v=67
40911 On ch=1 n=c#3 v=53
40911 Par ch=1 c=64 v=24
40915 Par ch=1 c=64 v=0
40935 Par ch=1 c=64 v=104
40937 On ch=1 n=c#3 v=0
40939 Par ch=1 c=64 v=127
40942 On ch=1 n=c#4 v=0
40946 On ch=1 n=a#3 v=0
40980 On ch=1 n=f#5 v=0
40985 On ch=1 n=c#5 v=64
40987 On ch=1 n=a#4 v=48
40989 On ch=1 n=f#4 v=0
41042 On ch=1 n=a#4 v=0
41056 On ch=1 n=f#5 v=78
41058 On ch=1 n=f#6 v=95
41061 On ch=1 n=f#4 v=64
41063 On ch=1 n=a#5 v=64
41084 On ch=1 n=f#4 v=0
41100 On ch=1 n=f#5 v=0
41121 On ch=1 n=c#6 v=24
41123 On ch=1 n=f#6 v=0
41137 On ch=1 n=a#5 v=0
41140 On ch=1 n=c#5 v=0
41156 On ch=1 n=f5 v=77
41160 On ch=1 n=f6 v=96
41160 On ch=1 n=a#4 v=56
41161 On ch=1 n=a#5 v=66
41233 On ch=1 n=f5 v=0
41241 On ch=1 n=f6 v=0
41248 On ch=1 n=a#5 v=0
41248 On ch=1 n=f#4 v=57
41250 On ch=1 n=c#6 v=0
41252 On ch=1 n=d#5 v=67
41268 On ch=1 n=a#4 v=0
41274 On ch=1 n=d#5 v=0
41326 On ch=1 n=d#6 v=94
41327 On ch=1 n=a#5 v=67
41328 On ch=1 n=f#5 v=68
41332 On ch=1 n=d#5 v=74
41342 On ch=1 n=d#6 v=0
41343 On ch=1 n=a#4 v=56
41347 On ch=1 n=a#5 v=0
41349 On ch=1 n=f#5 v=0
41352 On ch=1 n=f#4 v=0
41357 On ch=1 n=d#5 v=0
41363 On ch=1 n=a#4 v=0
41422 On ch=1 n=d5 v=86
41429 On ch=1 n=f4 v=70
41429 On ch=1 n=c#4 v=63
41432 On ch=1 n=b3 v=57
41432 On ch=1 n=c#3 v=55
41440 Par ch=1 c=64 v=0
41462 On ch=1 n=c#3 v=0
41468 Par ch=1 c=64 v=127
41474 On ch=1 n=c#4 v=0
41474 On ch=1 n=b3 v=0
41502 On ch=1 n=d5 v=0
41506 On ch=1 n=f4 v=0
41512 On ch=1 n=b4 v=60
41514 On ch=1 n=g#4 v=45
41572 On ch=1 n=g#4 v=0
41584 On ch=1 n=d5 v=75
41585 On ch=1 n=d6 v=87
41588 On ch=1 n=f5 v=60
41590 On ch=1 n=b5 v=61
41593 On ch=1 n=f4 v=56
41593 On ch=1 n=g#5 v=48
41616 On ch=1 n=f5 v=0
41640 On ch=1 n=b4 v=0
41651 On ch=1 n=d5 v=0
41655 On ch=1 n=f4 v=0
41669 On ch=1 n=c#5 v=73
41671 On ch=1 n=g#4 v=67
41728 On ch=1 n=c#5 v=0
41736 On ch=1 n=g#4 v=0
41748 On ch=1 n=b4 v=73
41748 On ch=1 n=f4 v=60
41762 On ch=1 n=f4 v=0
41766 On ch=1 n=d6 v=0
41769 On ch=1 n=b4 v=0
41787 On ch=1 n=b5 v=0
41812 On ch=1 n=g#5 v=0
41839 On ch=1 n=c#6 v=84
41841 On ch=1 n=f5 v=71
41843 On ch=1 n=b5 v=63
41849 On ch=1 n=g#4 v=31
41859 On ch=1 n=c#6 v=0
41862 On ch=1 n=b5 v=0
41866 On ch=1 n=f5 v=0
41871 On ch=1 n=g#4 v=0
41948 On ch=1 n=f#5 v=91
41952 On ch=1 n=f#4 v=78
41955 On ch=1 n=c#4 v=70
41957 Par ch=1 c=64 v=104
41959 On ch=1 n=a#3 v=55
41959 On ch=1 n=c#3 v=49
41961 Par ch=1 c=64 v=0
41985 On ch=1 n=c#3 v=0
41985 Par ch=1 c=64 v=88
41989 On ch=1 n=c#4 v=0
41989 Par ch=1 c=64 v=127
41995 On ch=1 n=a#3 v=0
42026 On ch=1 n=f#4 v=0
42027 On ch=1 n=f#5 v=0
42036 On ch=1 n=c#5 v=73
42039 On ch=1 n=a#4 v=55
42091 On ch=1 n=a#4 v=0
42109 On ch=1 n=f#5 v=80
42111 On ch=1 n=a#6 v=91
42113 On ch=1 n=c#6 v=59
42113 On ch=1 n=a#5 v=66
42118 On ch=1 n=f#4 v=49
42128 On ch=1 n=f#4 v=0
42134 On ch=1 n=c#5 v=0
42155 On ch=1 n=f#5 v=0
42161 On ch=1 n=a#6 v=0
42177 On ch=1 n=a#5 v=0
42186 On ch=1 n=c#6 v=0
42208 On ch=1 n=f5 v=82
42209 On ch=1 n=g#6 v=93
42212 On ch=1 n=a#4 v=59
42212 On ch=1 n=c#6 v=59
42213 On ch=1 n=a#5 v=66
42281 On ch=1 n=f5 v=0
42293 On ch=1 n=a#4 v=0
42293 On ch=1 n=d#5 v=70
42295 On ch=1 n=f#4 v=57
42311 On ch=1 n=g#6 v=0
42326 On ch=1 n=a#5 v=0
42363 On ch=1 n=c#6 v=0
42369 On ch=1 n=d#5 v=0
42375 On ch=1 n=f#6 v=90
42378 On ch=1 n=c#5 v=66
42378 On ch=1 n=a#5 v=64
42378 On ch=1 n=c#6 v=42
42381 On ch=1 n=a#4 v=50
42390 On ch=1 n=f#6 v=0
42394 On ch=1 n=a#5 v=0
42395 On ch=1 n=c#6 v=0
42399 On ch=1 n=f#4 v=0
42403 On ch=1 n=a#4 v=0
42404 On ch=1 n=c#5 v=0
42477 On ch=1 n=d5 v=83
42483 On ch=1 n=c#4 v=55
42484 On ch=1 n=f4 v=67
42484 On ch=1 n=b3 v=56
42485 On ch=1 n=c#3 v=52
42488 Par ch=1 c=64 v=88
42492 Par ch=1 c=64 v=0
42516 On ch=1 n=c#3 v=0
42517 Par ch=1 c=64 v=127
42527 On ch=1 n=b3 v=0
42528 On ch=1 n=c#4 v=0
42544 On ch=1 n=f4 v=0
42549 On ch=1 n=d5 v=0
42565 On ch=1 n=b4 v=66
42566 On ch=1 n=g#4 v=55
42627 On ch=1 n=g#4 v=0
42637 On ch=1 n=b4 v=0
42638 On ch=1 n=d5 v=70
42640 On ch=1 n=f6 v=89
42641 On ch=1 n=g#5 v=64
42644 On ch=1 n=b5 v=66
42648 On ch=1 n=f4 v=29
42706 On ch=1 n=d5 v=0
42710 On ch=1 n=f4 v=0
42726 On ch=1 n=c#5 v=68
42726 On ch=1 n=g#4 v=56
42791 On ch=1 n=c#5 v=0
42795 On ch=1 n=g#4 v=0
42805 On ch=1 n=b4 v=66
42810 On ch=1 n=f4 v=49
42819 On ch=1 n=f6 v=0
42831 On ch=1 n=g#5 v=0
42837 On ch=1 n=b5 v=0
42885 On ch=1 n=f4 v=0
42889 On ch=1 n=g#4 v=67
42905 On ch=1 n=b4 v=0
42912 On ch=1 n=g#4 v=0
42971 On ch=1 n=f4 v=66
43051 On ch=1 n=d4 v=66
43056 On ch=1 n=f4 v=0
43075 Par ch=1 c=64 v=104
43079 Par ch=1 c=64 v=56
43084 Par ch=1 c=64 v=40
43088 Par ch=1 c=64 v=72
43092 Par ch=1 c=64 v=127
43143 On ch=1 n=f4 v=49
43145 On ch=1 n=d4 v=0
43228 On ch=1 n=c#4 v=54
43245 Par ch=1 c=64 v=40
43249 Par ch=1 c=64 v=0
43251 On ch=1 n=f4 v=0
43269 Par ch=1 c=64 v=88
43273 Par ch=1 c=64 v=127
43302 On ch=1 n=c#4 v=0
43311 On ch=1 n=b3 v=49
43393 On ch=1 n=g#3 v=44
43397 On ch=1 n=b3 v=0
43415 On ch=1 n=g#3 v=0
43473 On ch=1 n=f3 v=50
43557 On ch=1 n=f3 v=0
43562 On ch=1 n=d3 v=49
43592 Par ch=1 c=64 v=88
43596 Par ch=1 c=64 v=0
43616 Par ch=1 c=64 v=88
43620 Par ch=1 c=64 v=127
43649 On ch=1 n=d3 v=0
43655 On ch=1 n=f3 v=44
43740 On ch=1 n=c#3 v=51
43741 On ch=1 n=f3 v=0
43765 Par ch=1 c=64 v=56
43769 Par ch=1 c=64 v=0
43781 Par ch=1 c=64 v=40
43785 Par ch=1 c=64 v=104
43790 Par ch=1 c=64 v=127
43848 On ch=1 n=c#3 v=0
43849 On ch=1 n=f3 v=43
43866 Par ch=1 c=64 v=104
43870 Par ch=1 c=64 v=88
43874 Par ch=1 c=64 v=127
43944 On ch=1 n=f3 v=0
43959 On ch=1 n=b2 v=42
43982 Par ch=1 c=64 v=72
43987 Par ch=1 c=64 v=0
44003 Par ch=1 c=64 v=56
44007 Par ch=1 c=64 v=127
44087 On ch=1 n=b2 v=0
44107 On ch=1 n=c3 v=46
44161 Par ch=1 c=64 v=40
44165 Par ch=1 c=64 v=0
44193 Par ch=1 c=64 v=127
44228 On ch=1 n=c5 v=58
44267 On ch=1 n=c5 v=0
44321 On ch=1 n=a5 v=72
44324 On ch=1 n=f5 v=60
44341 On ch=1 n=f5 v=0
44368 On ch=1 n=a5 v=0
44429 On ch=1 n=c6 v=81
44432 On ch=1 n=e5 v=44
44433 On ch=1 n=g5 v=54
44467 Par ch=1 c=64 v=40
44471 Par ch=1 c=64 v=0
44476 On ch=1 n=e5 v=0
44482 Par ch=1 c=64 v=56
44486 Par ch=1 c=64 v=127
44520 On ch=1 n=g5 v=0
44525 On ch=1 n=f5 v=56
44527 On ch=1 n=d5 v=37
44528 Par ch=1 c=64 v=88
44531 Par ch=1 c=64 v=24
44541 Par ch=1 c=64 v=127
44549 On ch=1 n=d5 v=0
44559 On ch=1 n=f5 v=0
44605 On ch=1 n=c5 v=63
44630 On ch=1 n=c3 v=0
44663 On ch=1 n=c5 v=0
44674 On ch=1 n=b2 v=38
44689 On ch=1 n=g5 v=40
44691 On ch=1 n=b2 v=0
44693 On ch=1 n=e5 v=23
44695 On ch=1 n=c3 v=38
44703 Par ch=1 c=64 v=56
44707 Par ch=1 c=64 v=0
44726 Par ch=1 c=64 v=72
44731 Par ch=1 c=64 v=127
44741 On ch=1 n=e5 v=0
44769 On ch=1 n=g5 v=0
44769 On ch=1 n=d5 v=66
44842 On ch=1 n=c6 v=0
44852 On ch=1 n=a#5 v=75
44856 On ch=1 n=g5 v=65
44858 On ch=1 n=d5 v=0
44882 On ch=1 n=g5 v=0
44891 On ch=1 n=a#5 v=0
44959 On ch=1 n=d6 v=81
44965 On ch=1 n=a5 v=66
44966 On ch=1 n=f5 v=40
45009 On ch=1 n=f5 v=0
45010 Par ch=1 c=64 v=56
45013 Par ch=1 c=64 v=0
45023 Par ch=1 c=64 v=24
45027 Par ch=1 c=64 v=88
45031 Par ch=1 c=64 v=127
45047 On ch=1 n=g5 v=58
45048 On ch=1 n=e5 v=51
45063 Par ch=1 c=64 v=56
45067 Par ch=1 c=64 v=72
45070 Par ch=1 c=64 v=127
45072 On ch=1 n=a5 v=0
45074 On ch=1 n=e5 v=0
45120 On ch=1 n=g5 v=0
45132 On ch=1 n=d5 v=55
45148 On ch=1 n=d5 v=0
45178 On ch=1 n=c3 v=0
45196 On ch=1 n=b2 v=32
45208 On ch=1 n=b2 v=0
45214 On ch=1 n=f5 v=40
45215 On ch=1 n=c3 v=49
45217 On ch=1 n=a5 v=55
45224 Par ch=1 c=64 v=0
45252 Par ch=1 c=64 v=88
45256 Par ch=1 c=64 v=127
45258 On ch=1 n=f5 v=0
45292 On ch=1 n=a5 v=0
45303 On ch=1 n=f5 v=66
45304 On ch=1 n=d6 v=0
45384 On ch=1 n=f6 v=92
45388 On ch=1 n=d6 v=69
45423 On ch=1 n=d6 v=0
45448 On ch=1 n=f6 v=0
45491 On ch=1 n=f6 v=84
45492 On ch=1 n=c6 v=70
45494 On ch=1 n=e6 v=73
45537 On ch=1 n=c6 v=0
45574 On ch=1 n=e6 v=0
45580 On ch=1 n=f5 v=0
45584 On ch=1 n=d6 v=58
45587 On ch=1 n=a#5 v=46
45599 Par ch=1 c=64 v=104
45603 Par ch=1 c=64 v=24
45607 Par ch=1 c=64 v=0
45611 Par ch=1 c=64 v=40
45615 Par ch=1 c=64 v=127
45663 On ch=1 n=a#5 v=0
45669 On ch=1 n=d6 v=0
45671 On ch=1 n=f5 v=58
45681 On ch=1 n=f6 v=0
45754 On ch=1 n=f6 v=79
45754 On ch=1 n=c6 v=71
45758 On ch=1 n=a5 v=60
45769 Par ch=1 c=64 v=24
45773 Par ch=1 c=64 v=0
45785 On ch=1 n=a5 v=0
45785 Par ch=1 c=64 v=56
45789 Par ch=1 c=64 v=127
45826 On ch=1 n=c6 v=0
45836 On ch=1 n=f5 v=0
45836 On ch=1 n=d6 v=53
45838 On ch=1 n=a#5 v=54
45919 On ch=1 n=f5 v=55
45949 On ch=1 n=f5 v=0
45971 On ch=1 n=a#5 v=0
45976 On ch=1 n=d6 v=0
45991 On ch=1 n=f6 v=0
46018 On ch=1 n=f6 v=80
46022 On ch=1 n=a#5 v=52
46022 On ch=1 n=g5 v=43
46044 Par ch=1 c=64 v=72
46048 Par ch=1 c=64 v=0
46055 On ch=1 n=g5 v=0
46060 Par ch=1 c=64 v=88
46064 Par ch=1 c=64 v=127
46096 On ch=1 n=a#5 v=0
46106 On ch=1 n=a5 v=47
46112 On ch=1 n=c6 v=68
46126 Par ch=1 c=64 v=104
46129 On ch=1 n=a5 v=0
46130 Par ch=1 c=64 v=0
46154 Par ch=1 c=64 v=56
46158 Par ch=1 c=64 v=127
46194 On ch=1 n=f5 v=45
46210 On ch=1 n=f5 v=0
46217 On ch=1 n=c6 v=0
46224 On ch=1 n=f6 v=0
46235 On ch=1 n=c3 v=0
46267 On ch=1 n=a5 v=60
46285 On ch=1 n=a5 v=0
46287 Par ch=1 c=64 v=104
46290 On ch=1 n=f6 v=55
46291 Par ch=1 c=64 v=40
46294 Par ch=1 c=64 v=56
46299 Par ch=1 c=64 v=127
46337 On ch=1 n=c7 v=89
46426 On ch=1 n=f4 v=56
46443 On ch=1 n=f4 v=0
46477 On ch=1 n=c7 v=0
46511 On ch=1 n=a5 v=63
46519 On ch=1 n=f5 v=27
46542 On ch=1 n=f5 v=0
46542 On ch=1 n=a5 v=0
46585 On ch=1 n=f6 v=0
46602 On ch=1 n=c7 v=79
46607 On ch=1 n=c6 v=61
46610 On ch=1 n=g5 v=44
46617 On ch=1 n=e5 v=43
46622 Par ch=1 c=64 v=88
46626 Par ch=1 c=64 v=0
46641 Par ch=1 c=64 v=56
46646 Par ch=1 c=64 v=127
46658 On ch=1 n=g5 v=0
46684 On ch=1 n=e5 v=0
46689 Par ch=1 c=64 v=104
46694 On ch=1 n=f5 v=55
46694 Par ch=1 c=64 v=56
46695 On ch=1 n=d5 v=52
46698 Par ch=1 c=64 v=72
46702 Par ch=1 c=64 v=127
46709 On ch=1 n=d5 v=0
46751 On ch=1 n=f5 v=0
46782 On ch=1 n=f4 v=60
46864 On ch=1 n=e5 v=43
46865 On ch=1 n=c5 v=48
46868 On ch=1 n=f4 v=0
46872 Par ch=1 c=64 v=24
46876 Par ch=1 c=64 v=0
46887 Par ch=1 c=64 v=56
46892 Par ch=1 c=64 v=127
46939 On ch=1 n=c5 v=0
46948 On ch=1 n=f4 v=55
46957 On ch=1 n=f4 v=0
46957 On ch=1 n=e5 v=0
47015 On ch=1 n=c6 v=0
47031 On ch=1 n=a#5 v=68
47036 On ch=1 n=g5 v=59
47067 On ch=1 n=g5 v=0
47082 On ch=1 n=a#5 v=0
47131 On ch=1 n=d7 v=84
47134 On ch=1 n=a5 v=59
47136 On ch=1 n=c7 v=0
47136 On ch=1 n=d6 v=60
47146 On ch=1 n=f5 v=30
47146 Par ch=1 c=64 v=88
47150 Par ch=1 c=64 v=0
47178 Par ch=1 c=64 v=127
47202 On ch=1 n=a5 v=0
47203 On ch=1 n=f5 v=0
47218 On ch=1 n=g5 v=58
47223 On ch=1 n=e5 v=43
47232 On ch=1 n=e5 v=0
47232 On ch=1 n=g5 v=0
47302 On ch=1 n=f4 v=50
47389 On ch=1 n=f5 v=42
47390 On ch=1 n=d5 v=46
47396 Par ch=1 c=64 v=72
47400 Par ch=1 c=64 v=40
47404 Par ch=1 c=64 v=56
47408 Par ch=1 c=64 v=104
47412 Par ch=1 c=64 v=127
47433 On ch=1 n=f4 v=0
47458 On ch=1 n=f5 v=0
47463 On ch=1 n=d5 v=0
47484 On ch=1 n=f4 v=42
47494 On ch=1 n=d6 v=0
47562 On ch=1 n=f5 v=55
47564 On ch=1 n=d5 v=50
47574 On ch=1 n=d7 v=0
47597 On ch=1 n=f5 v=0
47613 On ch=1 n=d5 v=0
47655 On ch=1 n=f7 v=87
47659 On ch=1 n=f6 v=73
47662 On ch=1 n=e5 v=40
47663 On ch=1 n=c5 v=43
47675 Par ch=1 c=64 v=72
47678 Par ch=1 c=64 v=0
47707 Par ch=1 c=64 v=56
47711 Par ch=1 c=64 v=127
47729 On ch=1 n=c5 v=0
47736 On ch=1 n=e5 v=0
47750 On ch=1 n=d5 v=57
47750 On ch=1 n=a#4 v=26
47768 On ch=1 n=f4 v=0
47771 On ch=1 n=a#4 v=0
47808 On ch=1 n=d5 v=0
47835 On ch=1 n=f4 v=34
47866 On ch=1 n=f6 v=0
47881 On ch=1 n=f7 v=0
47920 On ch=1 n=f7 v=93
47920 On ch=1 n=c5 v=47
47924 On ch=1 n=f6 v=74
47926 On ch=1 n=a4 v=44
47929 Par ch=1 c=64 v=104
47933 Par ch=1 c=64 v=56
47937 Par ch=1 c=64 v=0
47947 On ch=1 n=c5 v=0
47953 Par ch=1 c=64 v=56
47957 Par ch=1 c=64 v=127
48000 On ch=1 n=a4 v=0
48011 On ch=1 n=a#4 v=50
48015 On ch=1 n=f4 v=0
48015 On ch=1 n=d5 v=58
48089 On ch=1 n=a#4 v=0
48091 On ch=1 n=d5 v=0
48099 On ch=1 n=f4 v=55
48126 On ch=1 n=f6 v=0
48141 On ch=1 n=f7 v=0
48182 On ch=1 n=f7 v=96
48185 On ch=1 n=g4 v=59
48186 On ch=1 n=f6 v=81
48188 On ch=1 n=a#4 v=46
48195 Par ch=1 c=64 v=104
48199 Par ch=1 c=64 v=0
48211 On ch=1 n=f4 v=0
48219 Par ch=1 c=64 v=40
48224 Par ch=1 c=64 v=127
48257 On ch=1 n=g4 v=0
48259 On ch=1 n=a#4 v=0
48267 On ch=1 n=c5 v=63
48271 On ch=1 n=a4 v=31
48350 On ch=1 n=f6 v=0
48362 On ch=1 n=a4 v=0
48364 On ch=1 n=f4 v=43
48372 On ch=1 n=f7 v=0
48410 On ch=1 n=c5 v=0
48453 Par ch=1 c=64 v=104
48455 On ch=1 n=c8 v=90
48456 On ch=1 n=a4 v=39
48457 On ch=1 n=c7 v=73
48457 Par ch=1 c=64 v=24
48461 Par ch=1 c=64 v=0
48471 Par ch=1 c=64 v=56
48472 On ch=1 n=a4 v=0
48474 On ch=1 n=f4 v=0
48475 Par ch=1 c=64 v=127
48547 On ch=1 n=f3 v=58
48567 On ch=1 n=f3 v=0
48639 On ch=1 n=a4 v=51
48642 On ch=1 n=f4 v=39
48671 On ch=1 n=a4 v=0
48681 On ch=1 n=f4 v=0
48696 On ch=1 n=c7 v=0
48706 On ch=1 n=c8 v=0
48734 On ch=1 n=c8 v=77
48736 On ch=1 n=c7 v=60
48738 On ch=1 n=g4 v=44
48742 On ch=1 n=e4 v=43
48745 Par ch=1 c=64 v=72
48749 Par ch=1 c=64 v=0
48769 Par ch=1 c=64 v=40
48773 Par ch=1 c=64 v=127
48799 On ch=1 n=e4 v=0
48808 On ch=1 n=g4 v=0
48830 On ch=1 n=d4 v=37
48834 On ch=1 n=f4 v=39
48842 On ch=1 n=d4 v=0
48843 On ch=1 n=f4 v=0
48914 On ch=1 n=f3 v=57
48941 On ch=1 n=c7 v=0
48956 On ch=1 n=c8 v=0
49006 On ch=1 n=c8 v=75
49006 On ch=1 n=e4 v=48
49006 On ch=1 n=c4 v=46
49009 On ch=1 n=c7 v=54
49021 On ch=1 n=c4 v=0
49039 On ch=1 n=e4 v=0
49087 On ch=1 n=f3 v=0
49101 On ch=1 n=f4 v=46
49102 On ch=1 n=d4 v=46
49148 On ch=1 n=d4 v=0
49151 On ch=1 n=f4 v=0
49192 On ch=1 n=f3 v=47
49193 Par ch=1 c=64 v=72
49196 Par ch=1 c=64 v=0
49213 Par ch=1 c=64 v=104
49217 Par ch=1 c=64 v=127
49235 On ch=1 n=c7 v=0
49241 On ch=1 n=c8 v=0
49285 On ch=1 n=d4 v=45
49288 On ch=1 n=c8 v=71
49289 On ch=1 n=c7 v=54
49290 On ch=1 n=a#3 v=42
49304 On ch=1 n=d4 v=0
49355 On ch=1 n=a#3 v=0
49380 On ch=1 n=f3 v=0
49386 On ch=1 n=e4 v=51
49394 On ch=1 n=c4 v=40
49443 On ch=1 n=c7 v=0
49448 On ch=1 n=e4 v=0
49462 On ch=1 n=c4 v=0
49481 On ch=1 n=c8 v=0
49485 On ch=1 n=f3 v=39
49609 On ch=1 n=f8 v=71
49610 On ch=1 n=f7 v=57
49618 On ch=1 n=c4 v=42
49618 On ch=1 n=a3 v=37
49620 Par ch=1 c=64 v=40
49624 Par ch=1 c=64 v=0
49644 Par ch=1 c=64 v=104
49648 On ch=1 n=a3 v=0
49648 On ch=1 n=c4 v=0
49648 Par ch=1 c=64 v=127
49657 On ch=1 n=f3 v=0
49739 On ch=1 n=f3 v=43
49806 On ch=1 n=f3 v=0
49836 On ch=1 n=e3 v=47
49884 On ch=1 n=e3 v=0
49924 On ch=1 n=f3 v=34
49925 On ch=1 n=a3 v=54
49932 On ch=1 n=d3 v=39
49950 Par ch=1 c=64 v=72
49954 Par ch=1 c=64 v=0
49995 Par ch=1 c=64 v=127
49996 On ch=1 n=f3 v=0
49999 On ch=1 n=d3 v=0
50009 On ch=1 n=e3 v=49
50065 On ch=1 n=e3 v=0
50067 On ch=1 n=a3 v=0
50094 On ch=1 n=d3 v=54
50129 On ch=1 n=d3 v=0
50184 On ch=1 n=a3 v=49
50185 On ch=1 n=c3 v=42
50185 On ch=1 n=f3 v=35
50197 Par ch=1 c=64 v=56
50201 Par ch=1 c=64 v=0
50222 Par ch=1 c=64 v=56
50226 Par ch=1 c=64 v=127
50241 On ch=1 n=c3 v=0
50255 On ch=1 n=f3 v=0
50261 On ch=1 n=d3 v=47
50345 On ch=1 n=c3 v=37
50352 On ch=1 n=d3 v=0
50370 On ch=1 n=c3 v=0
50387 On ch=1 n=a3 v=0
50438 On ch=1 n=a#2 v=55
50443 Par ch=1 c=64 v=104
50445 On ch=1 n=f3 v=39
50447 On ch=1 n=a3 v=46
50448 Par ch=1 c=64 v=40
50451 Par ch=1 c=64 v=0
50472 Par ch=1 c=64 v=72
50476 Par ch=1 c=64 v=127
50509 On ch=1 n=a#2 v=0
50515 On ch=1 n=f3 v=0
50532 On ch=1 n=c3 v=40
50579 On ch=1 n=a3 v=0
50602 On ch=1 n=a#2 v=35
50626 On ch=1 n=a#2 v=0
50628 On ch=1 n=c3 v=0
50645 On ch=1 n=f7 v=0
50648 Par ch=1 c=64 v=104
50652 Par ch=1 c=64 v=40
50657 Par ch=1 c=64 v=0
50658 On ch=1 n=f8 v=0
50666 On ch=1 n=a2 v=55
50669 Par ch=1 c=64 v=72
50673 Par ch=1 c=64 v=127
50684 On ch=1 n=a2 v=0
50693 On ch=1 n=f3 v=46
50702 On ch=1 n=f8 v=63
50703 On ch=1 n=f7 v=51
50717 On ch=1 n=c4 v=36
50736 On ch=1 n=f3 v=0
50741 On ch=1 n=c4 v=0
50805 On ch=1 n=f3 v=54
50859 On ch=1 n=f3 v=0
50889 On ch=1 n=e3 v=57
50928 On ch=1 n=e3 v=0
50974 On ch=1 n=a3 v=42
50974 On ch=1 n=f3 v=36
50975 On ch=1 n=d3 v=45
50980 Par ch=1 c=64 v=104
50984 Par ch=1 c=64 v=40
50988 Par ch=1 c=64 v=0
51008 Par ch=1 c=64 v=88
51012 Par ch=1 c=64 v=127
51030 On ch=1 n=d3 v=0
51030 On ch=1 n=f3 v=0
51061 On ch=1 n=e3 v=61
51106 On ch=1 n=a3 v=0
51121 On ch=1 n=e3 v=0
51146 On ch=1 n=d3 v=64
51178 On ch=1 n=d3 v=0
51179 On ch=1 n=f7 v=0
51191 On ch=1 n=f8 v=0
51233 On ch=1 n=f8 v=68
51237 On ch=1 n=f7 v=48
51241 On ch=1 n=a3 v=48
51242 On ch=1 n=c3 v=42
51243 On ch=1 n=f3 v=37
51245 Par ch=1 c=64 v=72
51250 Par ch=1 c=64 v=0
51278 Par ch=1 c=64 v=88
51282 Par ch=1 c=64 v=127
51305 On ch=1 n=c3 v=0
51309 On ch=1 n=f3 v=0
51319 On ch=1 n=d3 v=43
51376 On ch=1 n=a3 v=0
51377 On ch=1 n=d3 v=0
51399 On ch=1 n=c3 v=54
51420 On ch=1 n=c3 v=0
51485 On ch=1 n=a#2 v=46
51488 On ch=1 n=a3 v=44
51490 On ch=1 n=f3 v=33
51493 Par ch=1 c=64 v=88
51497 Par ch=1 c=64 v=24
51501 Par ch=1 c=64 v=0
51517 Par ch=1 c=64 v=24
51521 Par ch=1 c=64 v=104
51525 Par ch=1 c=64 v=127
51550 On ch=1 n=f3 v=0
51558 On ch=1 n=a#2 v=0
51575 On ch=1 n=c3 v=36
51597 On ch=1 n=a3 v=0
51620 On ch=1 n=c3 v=0
51646 On ch=1 n=a#2 v=46
51671 On ch=1 n=f7 v=0
51674 On ch=1 n=a#2 v=0
51682 On ch=1 n=f8 v=0
51703 Par ch=1 c=64 v=104
51707 Par ch=1 c=64 v=24
51711 Par ch=1 c=64 v=0
51717 On ch=1 n=a2 v=49
51727 Par ch=1 c=64 v=72
51730 Par ch=1 c=64 v=127
51736 On ch=1 n=a2 v=0
51746 On ch=1 n=f3 v=45
51756 On ch=1 n=f8 v=67
51758 On ch=1 n=f7 v=57
51768 On ch=1 n=c4 v=42
51785 On ch=1 n=f3 v=0
51801 On ch=1 n=f8 v=0
51803 On ch=1 n=c4 v=0
51804 On ch=1 n=f7 v=0
51852 On ch=1 n=f3 v=60
51905 On ch=1 n=f3 v=0
51949 On ch=1 n=e3 v=63
51998 On ch=1 n=e3 v=0
52098 On ch=1 n=d3 v=57
52098 On ch=1 n=f3 v=57
52099 On ch=1 n=a3 v=48
52167 Par ch=1 c=64 v=56
52171 Par ch=1 c=64 v=0
52220 Par ch=1 c=64 v=88
52223 Par ch=1 c=64 v=127
52297 On ch=1 n=f3 v=0
52330 On ch=1 n=d3 v=0
52404 On ch=1 n=a3 v=0
52453 On ch=1 n=d3 v=65
52518 On ch=1 n=d3 v=0
52547 On ch=1 n=c3 v=58
52585 On ch=1 n=c3 v=0
52663 On ch=1 n=a#2 v=56
52669 On ch=1 n=a3 v=52
52673 On ch=1 n=f3 v=47
52688 Par ch=1 c=64 v=40
52692 Par ch=1 c=64 v=0
52720 Par ch=1 c=64 v=104
52724 Par ch=1 c=64 v=127
52761 On ch=1 n=f3 v=0
52831 On ch=1 n=a#2 v=0
52859 On ch=1 n=b2 v=61
52861 Par ch=1 c=64 v=104
52865 Par ch=1 c=64 v=88
52871 On ch=1 n=a3 v=0
52873 Par ch=1 c=64 v=127
52898 On ch=1 n=b2 v=0
52959 On ch=1 n=b2 v=58
52985 On ch=1 n=b2 v=0
52991 On ch=1 n=c3 v=51
53024 On ch=1 n=c3 v=0
53026 On ch=1 n=d3 v=65
53041 On ch=1 n=d3 v=0
53101 On ch=1 n=f3 v=43
53104 On ch=1 n=a3 v=60
53111 On ch=1 n=c3 v=36
53123 Par ch=1 c=64 v=104
53127 Par ch=1 c=64 v=56
53131 Par ch=1 c=64 v=0
53179 Par ch=1 c=64 v=88
53183 Par ch=1 c=64 v=127
53255 On ch=1 n=f3 v=0
53305 On ch=1 n=c3 v=0
53326 On ch=1 n=a2 v=47
53342 On ch=1 n=a3 v=0
53351 On ch=1 n=a2 v=0
53413 Par ch=1 c=64 v=88
53417 Par ch=1 c=64 v=0
53420 On ch=1 n=f2 v=57
53425 Par ch=1 c=64 v=24
53429 Par ch=1 c=64 v=88
53433 Par ch=1 c=64 v=127
53441 On ch=1 n=f2 v=0
53447 On ch=1 n=f3 v=38
53482 On ch=1 n=f3 v=0
53511 On ch=1 n=a3 v=43
53660 On ch=1 n=a3 v=0
54260 Par ch=1 c=64 v=104
54268 Par ch=1 c=64 v=88
54276 Par ch=1 c=64 v=72
54288 Par ch=1 c=64 v=56
54300 Par ch=1 c=64 v=40
54310 Par ch=1 c=64 v=24
54314 Par ch=1 c=64 v=0
54314 Meta TrkEnd
TrkEnd
MTrk
0 Meta 0x21 00
0 Meta TrkName "Franz Liszt"
0 Meta TrkEnd
TrkEnd
MTrk
0 Meta 0x21 00
0 Meta TrkName "Copyright 1998"
0 Meta TrkEnd
TrkEnd
MTrk
0 Meta 0x21 00
0 Meta TrkName "Robert Fin"
