MFile 0 1 480
MTrk
0 SMPTE 96 0 0 0 0
0 TimeSig 4/4 24 8
0 KeySig 0 major
0 Tempo 500000
0 Par ch=1 c=64 v=127
0 Par ch=1 c=64 v=0
0 On ch=1 n=a4 v=105
8 On ch=1 n=a3 v=97
8 On ch=1 n=a2 v=99
164 Par ch=1 c=64 v=127
1350 Off ch=1 n=a3 v=64
1566 Off ch=1 n=a4 v=64
1578 Off ch=1 n=a2 v=64
1880 On ch=1 n=g#4 v=106
1880 On ch=1 n=g#2 v=92
1880 On ch=1 n=g#3 v=103
2208 Par ch=1 c=64 v=0
2884 Par ch=1 c=64 v=127
3354 Off ch=1 n=g#3 v=64
3608 Off ch=1 n=g#4 v=64
3886 Off ch=1 n=g#2 v=64
4226 On ch=1 n=c#4 v=107
4236 On ch=1 n=c#3 v=107
4238 On ch=1 n=c#2 v=104
4822 Par ch=1 c=64 v=0
5096 Par ch=1 c=64 v=127
7934 Off ch=1 n=c#4 v=64
8196 Off ch=1 n=c#2 v=64
8258 Off ch=1 n=c#3 v=64
10392 On ch=1 n=c#6 v=36
10404 On ch=1 n=g#4 v=17
10412 On ch=1 n=c#5 v=27
10418 On ch=1 n=e5 v=27
10430 On ch=1 n=g#5 v=21
10434 On ch=1 n=e4 v=35
10618 Off ch=1 n=e5 v=64
10624 Off ch=1 n=g#4 v=64
10624 Off ch=1 n=c#5 v=64
10640 Off ch=1 n=e4 v=64
10664 Off ch=1 n=g#5 v=64
10812 Off ch=1 n=c#6 v=64
11076 On ch=1 n=e6 v=60
11098 On ch=1 n=b5 v=47
11098 On ch=1 n=g#5 v=23
11108 On ch=1 n=g#4 v=31
11108 On ch=1 n=e5 v=29
11126 On ch=1 n=b4 v=32
11236 Off ch=1 n=e5 v=64
11304 Off ch=1 n=b4 v=64
11306 Off ch=1 n=g#5 v=64
11360 Off ch=1 n=b5 v=64
11400 Off ch=1 n=e6 v=64
11446 Off ch=1 n=g#4 v=64
11678 On ch=1 n=d#5 v=55
11686 On ch=1 n=d#6 v=54
11696 On ch=1 n=a#5 v=38
11699 On ch=1 n=g5 v=37
11710 On ch=1 n=a#4 v=28
11724 On ch=1 n=g4 v=22
11748 Off ch=1 n=d#5 v=64
11764 Off ch=1 n=g5 v=64
11770 Off ch=1 n=a#5 v=64
11808 Off ch=1 n=d#6 v=64
11808 Off ch=1 n=a#4 v=64
11811 Off ch=1 n=g4 v=64
12282 On ch=1 n=a4 v=70
12298 On ch=1 n=a3 v=41
12304 Par ch=1 c=64 v=0
12306 On ch=1 n=a2 v=47
12526 Off ch=1 n=a2 v=64
12534 Par ch=1 c=64 v=127
12582 Off ch=1 n=a3 v=64
12598 Off ch=1 n=a4 v=64
13014 On ch=1 n=d6 v=57
13020 On ch=1 n=a5 v=34
13022 On ch=1 n=f#5 v=21
13032 On ch=1 n=d5 v=32
13054 On ch=1 n=f#4 v=28
13078 On ch=1 n=c5 v=24
13194 Off ch=1 n=d5 v=64
13196 Off ch=1 n=f#5 v=64
13262 Off ch=1 n=a5 v=64
13268 Off ch=1 n=c5 v=64
13284 Off ch=1 n=d6 v=64
13356 Off ch=1 n=f#4 v=64
13714 On ch=1 n=g#4 v=48
13730 On ch=1 n=g#3 v=43
13733 On ch=1 n=g#2 v=36
13748 Par ch=1 c=64 v=0
13978 Off ch=1 n=g#2 v=64
13978 Par ch=1 c=64 v=127
14024 Off ch=1 n=g#3 v=64
14042 Off ch=1 n=g#4 v=64
14438 On ch=1 n=d#5 v=33
14444 On ch=1 n=c6 v=42
14462 On ch=1 n=c5 v=27
14465 On ch=1 n=f#5 v=24
14498 On ch=1 n=d#4 v=19
14510 On ch=1 n=f#4 v=29
14594 Off ch=1 n=d#5 v=64
14620 Off ch=1 n=c5 v=64
14628 Off ch=1 n=f#4 v=64
14664 Off ch=1 n=c6 v=64
14674 Off ch=1 n=f#5 v=64
14702 Off ch=1 n=d#4 v=64
15226 On ch=1 n=c#4 v=50
15238 On ch=1 n=c#3 v=32
15240 On ch=1 n=c#2 v=42
15268 Par ch=1 c=64 v=0
15500 Par ch=1 c=64 v=127
15514 Off ch=1 n=c#2 v=64
15554 Off ch=1 n=c#3 v=64
15592 Off ch=1 n=c#4 v=64
16090 On ch=1 n=c#6 v=45
16102 On ch=1 n=g#4 v=22
16104 On ch=1 n=e5 v=31
16112 On ch=1 n=c#5 v=33
16115 On ch=1 n=g#5 v=31
16122 On ch=1 n=e4 v=26
16258 Off ch=1 n=e5 v=64
16258 Off ch=1 n=c#5 v=64
16272 Off ch=1 n=g#5 v=64
16292 Off ch=1 n=g#4 v=64
16326 Off ch=1 n=e4 v=64
16414 Off ch=1 n=c#6 v=64
16698 On ch=1 n=e6 v=67
16706 On ch=1 n=g#5 v=43
16712 On ch=1 n=g#4 v=37
16712 On ch=1 n=e5 v=46
16724 On ch=1 n=b5 v=44
16752 On ch=1 n=b4 v=35
16840 Off ch=1 n=b4 v=64
16868 Off ch=1 n=e5 v=64
16880 Off ch=1 n=g#5 v=64
16978 Off ch=1 n=b5 v=64
16984 Off ch=1 n=g#4 v=64
16986 Off ch=1 n=e6 v=64
17278 On ch=1 n=d#6 v=60
17280 On ch=1 n=d#5 v=51
17284 On ch=1 n=a#5 v=39
17296 On ch=1 n=g5 v=42
17308 On ch=1 n=a#4 v=26
17332 On ch=1 n=g4 v=35
17368 Off ch=1 n=g5 v=64
17370 Off ch=1 n=d#5 v=64
17426 Off ch=1 n=d#6 v=64
17434 Off ch=1 n=a#5 v=64
17436 Off ch=1 n=g4 v=64
17440 Off ch=1 n=a#4 v=64
17890 On ch=1 n=a4 v=55
17892 Par ch=1 c=64 v=0
17900 On ch=1 n=a2 v=34
17902 On ch=1 n=a3 v=28
18094 Off ch=1 n=a2 v=64
18120 Par ch=1 c=64 v=127
18134 Off ch=1 n=a4 v=64
18138 Off ch=1 n=a3 v=64
18540 On ch=1 n=d6 v=53
18550 On ch=1 n=a5 v=24
18550 On ch=1 n=f#5 v=19
18556 On ch=1 n=d5 v=31
18568 On ch=1 n=f#4 v=17
18598 On ch=1 n=c5 v=20
18698 Off ch=1 n=f#5 v=64
18698 Off ch=1 n=d5 v=64
18754 Off ch=1 n=a5 v=64
18762 Off ch=1 n=c5 v=64
18764 Off ch=1 n=d6 v=64
18788 Off ch=1 n=f#4 v=64
19210 On ch=1 n=g#4 v=52
19240 On ch=1 n=g#3 v=41
19246 On ch=1 n=g#2 v=36
19248 Par ch=1 c=64 v=0
19450 Off ch=1 n=g#2 v=64
19464 Par ch=1 c=64 v=127
19496 Off ch=1 n=g#3 v=64
19530 Off ch=1 n=g#4 v=64
19873 On ch=1 n=c6 v=54
19880 On ch=1 n=d#5 v=39
19886 On ch=1 n=c5 v=35
19898 On ch=1 n=f#5 v=30
19912 On ch=1 n=f#4 v=25
19946 On ch=1 n=d#4 v=39
20094 Off ch=1 n=d#5 v=64
20144 Off ch=1 n=c5 v=64
20180 Off ch=1 n=c6 v=64
20200 Off ch=1 n=f#4 v=64
20216 Off ch=1 n=f#5 v=64
20230 Off ch=1 n=d#4 v=64
20746 On ch=1 n=c#4 v=53
20752 On ch=1 n=c#2 v=49
20758 On ch=1 n=c#3 v=38
20832 Par ch=1 c=64 v=0
21046 Par ch=1 c=64 v=127
21048 Off ch=1 n=c#2 v=64
21088 Off ch=1 n=c#3 v=64
21108 Off ch=1 n=c#4 v=64
21652 On ch=1 n=c#6 v=64
21670 On ch=1 n=c#5 v=43
21670 On ch=1 n=g#4 v=26
21674 On ch=1 n=e5 v=39
21680 On ch=1 n=g#5 v=37
21692 On ch=1 n=e4 v=37
21822 Off ch=1 n=c#5 v=64
21962 Off ch=1 n=e4 v=64
21976 Off ch=1 n=g#5 v=64
21988 Off ch=1 n=g#4 v=64
22016 Off ch=1 n=e5 v=64
22036 Off ch=1 n=c#6 v=64
22346 On ch=1 n=g#6 v=83
22351 On ch=1 n=b5 v=71
22355 On ch=1 n=g#5 v=50
22370 On ch=1 n=c#5 v=38
22376 On ch=1 n=b4 v=38
22376 On ch=1 n=c#6 v=35
22470 Off ch=1 n=c#6 v=64
22554 On ch=1 n=c#6 v=2
22764 Off ch=1 n=c#6 v=64
22814 Off ch=1 n=b5 v=64
22820 Off ch=1 n=g#5 v=64
22826 Off ch=1 n=g#6 v=64
22838 Off ch=1 n=b4 v=64
22854 Off ch=1 n=c#5 v=64
22956 On ch=1 n=f#6 v=79
22960 On ch=1 n=c#5 v=39
22964 On ch=1 n=f#5 v=49
22966 On ch=1 n=a5 v=52
22994 On ch=1 n=a4 v=36
22998 On ch=1 n=c#6 v=37
23076 Off ch=1 n=a5 v=64
23096 Off ch=1 n=f#5 v=64
23145 Off ch=1 n=f#6 v=64
23152 Off ch=1 n=c#5 v=64
23152 Off ch=1 n=a4 v=64
23152 Off ch=1 n=c#6 v=64
23576 On ch=1 n=c5 v=84
23590 On ch=1 n=c4 v=45
23598 Par ch=1 c=64 v=0
23601 On ch=1 n=c3 v=47
23790 Off ch=1 n=c3 v=64
23800 Par ch=1 c=64 v=127
23844 Off ch=1 n=c4 v=64
23868 Off ch=1 n=c5 v=64
24312 On ch=1 n=e6 v=61
24312 On ch=1 n=f#5 v=46
24318 On ch=1 n=e5 v=58
24326 On ch=1 n=a5 v=36
24342 On ch=1 n=a4 v=22
24350 On ch=1 n=f#4 v=41
24482 Off ch=1 n=f#5 v=64
24490 Off ch=1 n=a4 v=64
24528 Off ch=1 n=e5 v=64
24536 Off ch=1 n=f#4 v=64
24584 Off ch=1 n=e6 v=64
24584 Off ch=1 n=a5 v=64
24968 On ch=1 n=b4 v=79
24980 Par ch=1 c=64 v=0
24986 On ch=1 n=b2 v=55
24988 On ch=1 n=b3 v=48
25144 Off ch=1 n=b2 v=64
25164 Par ch=1 c=64 v=127
25190 Off ch=1 n=b3 v=64
25196 Off ch=1 n=b4 v=64
25600 On ch=1 n=d#6 v=58
25600 On ch=1 n=d#5 v=20
25614 On ch=1 n=a5 v=40
25616 On ch=1 n=f#5 v=40
25634 On ch=1 n=f#4 v=35
25656 On ch=1 n=a4 v=34
25750 Off ch=1 n=f#5 v=64
25752 Off ch=1 n=a4 v=64
25798 Off ch=1 n=d#5 v=64
25802 Off ch=1 n=a5 v=64
25826 Off ch=1 n=d#6 v=64
25832 Off ch=1 n=f#4 v=64
26344 On ch=1 n=e4 v=83
26350 On ch=1 n=e3 v=56
26360 On ch=1 n=e2 v=36
26363 Par ch=1 c=64 v=0
26534 Off ch=1 n=e2 v=64
26578 Off ch=1 n=e3 v=64
26578 Par ch=1 c=64 v=127
26604 Off ch=1 n=e4 v=64
27110 On ch=1 n=e6 v=81
27110 On ch=1 n=g#5 v=48
27130 On ch=1 n=e5 v=56
27134 On ch=1 n=b5 v=59
27146 On ch=1 n=g#4 v=30
27162 On ch=1 n=b4 v=26
27268 Off ch=1 n=e5 v=64
27312 Off ch=1 n=g#4 v=64
27318 Off ch=1 n=b4 v=64
27330 Off ch=1 n=g#5 v=64
27336 Off ch=1 n=b5 v=64
27406 Off ch=1 n=e6 v=64
27776 On ch=1 n=b6 v=108
27794 On ch=1 n=d6 v=88
27806 On ch=1 n=b5 v=52
27822 On ch=1 n=d5 v=47
27826 On ch=1 n=e5 v=50
27844 On ch=1 n=e6 v=15
27980 Off ch=1 n=e6 v=64
28054 Off ch=1 n=d5 v=64
28092 Off ch=1 n=e5 v=64
28108 Off ch=1 n=d6 v=64
28158 Off ch=1 n=b6 v=64
28182 Off ch=1 n=b5 v=64
28382 On ch=1 n=a6 v=85
28388 On ch=1 n=a5 v=58
28391 On ch=1 n=c#6 v=68
28404 On ch=1 n=e6 v=51
28410 On ch=1 n=c#5 v=52
28430 On ch=1 n=e5 v=47
28450 Off ch=1 n=a5 v=64
28482 Off ch=1 n=e6 v=64
28508 Off ch=1 n=c#6 v=64
28511 Off ch=1 n=a6 v=64
28518 Off ch=1 n=e5 v=64
28600 Off ch=1 n=c#5 v=64
28970 On ch=1 n=e5 v=97
28982 On ch=1 n=e3 v=92
28982 On ch=1 n=e4 v=81
29006 Par ch=1 c=64 v=0
29172 Off ch=1 n=e3 v=64
29204 Par ch=1 c=64 v=127
29222 Off ch=1 n=e4 v=64
29260 Off ch=1 n=e5 v=64
29566 On ch=1 n=g#6 v=90
29574 On ch=1 n=g#5 v=63
29574 On ch=1 n=a#5 v=72
29584 On ch=1 n=a#4 v=51
29586 On ch=1 n=c#6 v=57
29604 On ch=1 n=c#5 v=46
29668 Off ch=1 n=a#4 v=64
29690 Off ch=1 n=a#5 v=64
29740 Off ch=1 n=g#5 v=64
29758 Off ch=1 n=c#6 v=64
29794 Off ch=1 n=g#6 v=64
29802 Off ch=1 n=c#5 v=64
30194 On ch=1 n=d#5 v=89
30204 On ch=1 n=d#4 v=80
30214 On ch=1 n=d#3 v=75
30279 Par ch=1 c=64 v=0
30496 Par ch=1 c=64 v=127
30506 Off ch=1 n=d#3 v=64
30550 Off ch=1 n=d#4 v=64
30584 Off ch=1 n=d#5 v=64
30864 On ch=1 n=a#5 v=58
30870 On ch=1 n=g6 v=89
30874 On ch=1 n=c#6 v=60
30874 On ch=1 n=g5 v=71
30888 On ch=1 n=a#4 v=31
30900 On ch=1 n=c#5 v=50
31018 Off ch=1 n=a#5 v=64
31100 Off ch=1 n=g5 v=64
31110 Off ch=1 n=g6 v=64
31160 Off ch=1 n=c#6 v=64
31160 Off ch=1 n=c#5 v=64
31166 Off ch=1 n=a#4 v=64
31630 On ch=1 n=g#4 v=84
31635 On ch=1 n=g#3 v=76
31638 On ch=1 n=g#2 v=81
31756 Par ch=1 c=64 v=0
31986 Par ch=1 c=64 v=127
32050 Off ch=1 n=g#2 v=64
32110 Off ch=1 n=g#3 v=64
32134 Off ch=1 n=g#4 v=64
32584 On ch=1 n=g#6 v=89
32592 On ch=1 n=b5 v=75
32596 On ch=1 n=g#5 v=60
32608 On ch=1 n=d#6 v=55
32612 On ch=1 n=d#5 v=47
32622 On ch=1 n=b4 v=38
32684 Off ch=1 n=d#6 v=64
32716 Off ch=1 n=g#5 v=64
32852 Off ch=1 n=b5 v=64
32916 Off ch=1 n=d#5 v=64
32958 Off ch=1 n=b4 v=64
33006 Off ch=1 n=g#6 v=64
33190 On ch=1 n=a6 v=92
33192 On ch=1 n=c#6 v=67
33192 On ch=1 n=a5 v=72
33206 On ch=1 n=e6 v=64
33220 On ch=1 n=c#5 v=48
33236 On ch=1 n=e5 v=49
33332 Off ch=1 n=a5 v=64
33364 Off ch=1 n=c#6 v=64
33366 Off ch=1 n=e5 v=64
33438 Off ch=1 n=a6 v=64
33448 Off ch=1 n=c#5 v=64
33478 Off ch=1 n=e6 v=64
33712 On ch=1 n=f#6 v=89
33712 On ch=1 n=a5 v=70
33720 On ch=1 n=f#5 v=67
33724 On ch=1 n=c#5 v=62
33730 On ch=1 n=c#6 v=64
33740 On ch=1 n=a4 v=46
33936 Off ch=1 n=c#5 v=64
33944 Off ch=1 n=a4 v=64
33996 Off ch=1 n=a5 v=64
33999 Off ch=1 n=f#5 v=64
34076 Off ch=1 n=f#6 v=64
34082 Off ch=1 n=c#6 v=64
34196 On ch=1 n=g#6 v=89
34202 On ch=1 n=g#5 v=76
34205 On ch=1 n=d#6 v=71
34208 On ch=1 n=b5 v=80
34218 On ch=1 n=d#5 v=58
34246 On ch=1 n=b4 v=42
34334 Off ch=1 n=b5 v=64
34370 Off ch=1 n=d#5 v=64
34386 Off ch=1 n=b4 v=64
34428 Off ch=1 n=d#6 v=64
34436 Off ch=1 n=g#6 v=64
34480 Off ch=1 n=g#5 v=64
34674 On ch=1 n=g#5 v=66
34674 On ch=1 n=e6 v=88
34680 On ch=1 n=e5 v=83
34682 On ch=1 n=b5 v=78
34698 On ch=1 n=g#4 v=35
34704 On ch=1 n=b4 v=49
34764 Off ch=1 n=b4 v=64
34786 Off ch=1 n=e5 v=64
34798 Off ch=1 n=g#5 v=64
34864 Off ch=1 n=b5 v=64
34890 Off ch=1 n=g#4 v=64
34908 Off ch=1 n=e6 v=64
35134 On ch=1 n=f#6 v=86
35137 On ch=1 n=a5 v=68
35137 On ch=1 n=f#5 v=69
35144 On ch=1 n=c#6 v=68
35156 On ch=1 n=c#5 v=60
35159 On ch=1 n=a4 v=51
35242 Off ch=1 n=c#5 v=64
35266 Off ch=1 n=a5 v=64
35269 Off ch=1 n=a4 v=64
35342 Off ch=1 n=c#6 v=64
35345 Off ch=1 n=f#6 v=64
35370 Off ch=1 n=f#5 v=64
35570 On ch=1 n=d#6 v=80
35574 On ch=1 n=d#5 v=72
35578 On ch=1 n=f#5 v=59
35582 On ch=1 n=a5 v=62
35592 On ch=1 n=f#4 v=52
35594 On ch=1 n=a4 v=44
35666 Off ch=1 n=a4 v=64
35738 Off ch=1 n=d#5 v=64
35750 Off ch=1 n=f#5 v=64
35750 Off ch=1 n=f#4 v=64
35848 Off ch=1 n=a5 v=64
35874 Off ch=1 n=d#6 v=64
36030 On ch=1 n=g#5 v=53
36036 On ch=1 n=e5 v=74
36040 On ch=1 n=e6 v=67
36046 On ch=1 n=b5 v=69
36060 On ch=1 n=g#4 v=32
36074 On ch=1 n=b4 v=39
36180 Par ch=1 c=64 v=0
36308 Off ch=1 n=b5 v=64
36352 Off ch=1 n=e6 v=64
36364 Off ch=1 n=b4 v=64
36364 Par ch=1 c=64 v=127
36367 Off ch=1 n=g#5 v=64
36374 Off ch=1 n=e5 v=64
36380 Off ch=1 n=g#4 v=64
36518 On ch=1 n=g#5 v=72
36518 On ch=1 n=e6 v=88
36521 On ch=1 n=e5 v=91
36528 On ch=1 n=b5 v=81
36528 On ch=1 n=b4 v=58
36542 On ch=1 n=g#4 v=36
36622 Off ch=1 n=b4 v=64
36628 Off ch=1 n=e5 v=64
36676 Off ch=1 n=b5 v=64
36678 Off ch=1 n=g#5 v=64
36708 Off ch=1 n=e6 v=64
36714 Off ch=1 n=g#4 v=64
36968 On ch=1 n=f#6 v=90
36974 On ch=1 n=c#6 v=73
36976 On ch=1 n=f#5 v=71
36982 On ch=1 n=a5 v=71
36996 On ch=1 n=c#5 v=55
37010 Par ch=1 c=64 v=0
37012 On ch=1 n=a4 v=42
37136 Off ch=1 n=a5 v=64
37148 Par ch=1 c=64 v=127
37166 Off ch=1 n=c#5 v=64
37168 Off ch=1 n=a4 v=64
37206 Off ch=1 n=f#6 v=64
37208 Off ch=1 n=c#6 v=64
37260 Off ch=1 n=f#5 v=64
37414 On ch=1 n=d#5 v=84
37414 On ch=1 n=d#6 v=83
37422 On ch=1 n=a5 v=60
37432 On ch=1 n=f#5 v=62
37442 On ch=1 n=f#4 v=58
37450 On ch=1 n=a4 v=44
37510 Off ch=1 n=a4 v=64
37558 Off ch=1 n=f#5 v=64
37566 Off ch=1 n=f#4 v=64
37578 Off ch=1 n=d#5 v=64
37624 Off ch=1 n=a5 v=64
37698 Off ch=1 n=d#6 v=64
37838 On ch=1 n=g#5 v=66
37840 Par ch=1 c=64 v=0
37844 On ch=1 n=e6 v=88
37848 On ch=1 n=e5 v=89
37856 On ch=1 n=b5 v=80
37862 On ch=1 n=b4 v=55
37870 On ch=1 n=g#4 v=45
37978 Par ch=1 c=64 v=127
37984 Off ch=1 n=b4 v=64
37998 Off ch=1 n=e5 v=64
38001 Off ch=1 n=g#5 v=64
38036 Off ch=1 n=g#4 v=64
38039 Off ch=1 n=e6 v=64
38100 Off ch=1 n=b5 v=64
38260 On ch=1 n=c#6 v=86
38262 On ch=1 n=g#4 v=63
38265 On ch=1 n=c#5 v=90
38265 On ch=1 n=e5 v=76
38269 On ch=1 n=g#5 v=72
38280 On ch=1 n=e4 v=69
38356 Off ch=1 n=e5 v=64
38416 Off ch=1 n=c#5 v=64
38418 Off ch=1 n=g#4 v=64
38421 Off ch=1 n=e4 v=64
38486 Off ch=1 n=g#5 v=64
38526 Off ch=1 n=c#6 v=64
38680 On ch=1 n=d#6 v=83
38686 On ch=1 n=d#5 v=73
38692 On ch=1 n=a5 v=57
38696 On ch=1 n=f#5 v=65
38700 Par ch=1 c=64 v=0
38710 On ch=1 n=f#4 v=56
38710 On ch=1 n=a4 v=49
38854 Par ch=1 c=64 v=127
38876 Off ch=1 n=f#5 v=64
38902 Off ch=1 n=a5 v=64
38916 Off ch=1 n=a4 v=64
38934 Off ch=1 n=d#6 v=64
38972 Off ch=1 n=f#4 v=64
38974 Off ch=1 n=d#5 v=64
39174 On ch=1 n=c6 v=75
39182 On ch=1 n=c5 v=62
39192 On ch=1 n=d#5 v=49
39200 On ch=1 n=f#5 v=37
39218 On ch=1 n=d#4 v=22
39224 On ch=1 n=f#4 v=44
39316 Par ch=1 c=64 v=0
39432 Off ch=1 n=c5 v=64
39454 Par ch=1 c=64 v=127
39464 Off ch=1 n=f#4 v=64
39512 Off ch=1 n=d#5 v=64
39540 Off ch=1 n=c6 v=64
39582 Off ch=1 n=f#5 v=64
39618 Off ch=1 n=d#4 v=64
39712 On ch=1 n=c#6 v=54
39716 On ch=1 n=c#5 v=46
39724 On ch=1 n=g#4 v=31
39734 On ch=1 n=e5 v=38
39734 On ch=1 n=g#5 v=38
39766 On ch=1 n=e4 v=29
39852 Par ch=1 c=64 v=0
40036 Par ch=1 c=64 v=127
40079 Off ch=1 n=e4 v=64
40086 Off ch=1 n=c#5 v=64
40090 Off ch=1 n=g#4 v=64
40098 Off ch=1 n=g#5 v=64
40100 Off ch=1 n=e5 v=64
40110 Off ch=1 n=c#6 v=64
40240 On ch=1 n=c#6 v=72
40243 On ch=1 n=c#5 v=59
40256 On ch=1 n=g#5 v=43
40262 On ch=1 n=g#4 v=32
40266 On ch=1 n=e5 v=53
40272 On ch=1 n=e4 v=46
40394 Off ch=1 n=e5 v=64
40426 Off ch=1 n=g#5 v=64
40442 Off ch=1 n=c#5 v=64
40448 Off ch=1 n=g#4 v=64
40466 Off ch=1 n=e4 v=64
40592 Off ch=1 n=c#6 v=64
40884 On ch=1 n=e6 v=50
40886 On ch=1 n=g#5 v=27
40906 On ch=1 n=e5 v=36
40906 On ch=1 n=b5 v=46
40912 On ch=1 n=g#4 v=27
40914 Par ch=1 c=64 v=0
40974 On ch=1 n=b4 v=18
41128 Par ch=1 c=64 v=127
41182 Off ch=1 n=e5 v=64
41222 Off ch=1 n=b4 v=64
41225 Off ch=1 n=g#5 v=64
41244 Off ch=1 n=e6 v=64
41252 Off ch=1 n=b5 v=64
41276 Off ch=1 n=g#4 v=64
41540 On ch=1 n=d#6 v=38
41546 On ch=1 n=d#5 v=34
41548 On ch=1 n=g5 v=29
41564 On ch=1 n=a#5 v=29
41574 On ch=1 n=a#4 v=19
41578 On ch=1 n=g4 v=18
41588 Par ch=1 c=64 v=0
41758 Par ch=1 c=64 v=127
41804 Off ch=1 n=g5 v=64
41864 Off ch=1 n=d#5 v=64
41868 Off ch=1 n=g4 v=64
41876 Off ch=1 n=a#4 v=64
41886 Off ch=1 n=d#6 v=64
41920 Off ch=1 n=a#5 v=64
42358 On ch=1 n=a2 v=28
42361 On ch=1 n=a4 v=38
42368 On ch=1 n=a3 v=26
42434 Par ch=1 c=64 v=0
42604 Par ch=1 c=64 v=127
42626 Off ch=1 n=a2 v=64
42666 Off ch=1 n=a3 v=64
42670 Off ch=1 n=a4 v=64
43096 On ch=1 n=f#5 v=22
43100 On ch=1 n=d6 v=44
43102 On ch=1 n=a5 v=30
43105 On ch=1 n=d5 v=33
43126 On ch=1 n=f#4 v=23
43158 On ch=1 n=c5 v=20
43294 Off ch=1 n=f#5 v=64
43340 Off ch=1 n=d6 v=64
43340 Off ch=1 n=d5 v=64
43364 Off ch=1 n=a5 v=64
43367 Off ch=1 n=c5 v=64
43428 Off ch=1 n=f#4 v=64
43804 On ch=1 n=g#4 v=46
43812 On ch=1 n=g#2 v=53
43822 On ch=1 n=g#3 v=39
43878 Par ch=1 c=64 v=0
44094 Par ch=1 c=64 v=127
44114 Off ch=1 n=g#2 v=64
44152 Off ch=1 n=g#3 v=64
44155 Off ch=1 n=g#4 v=64
44504 On ch=1 n=d#5 v=34
44506 On ch=1 n=c6 v=48
44520 On ch=1 n=c5 v=38
44524 On ch=1 n=f#5 v=30
44546 On ch=1 n=f#4 v=34
44562 On ch=1 n=d#4 v=41
44692 Off ch=1 n=d#5 v=64
44754 Off ch=1 n=c5 v=64
44764 Off ch=1 n=c6 v=64
44828 Off ch=1 n=f#5 v=64
44858 Off ch=1 n=f#4 v=64
44868 Off ch=1 n=d#4 v=64
45396 On ch=1 n=c#4 v=56
45406 On ch=1 n=c#2 v=61
45418 On ch=1 n=c#3 v=43
45508 Par ch=1 c=64 v=0
45738 Par ch=1 c=64 v=127
45741 Off ch=1 n=c#2 v=64
45776 Off ch=1 n=c#3 v=64
45798 Off ch=1 n=c#4 v=64
46330 On ch=1 n=c#6 v=60
46346 On ch=1 n=e5 v=48
46352 On ch=1 n=c#5 v=46
46364 On ch=1 n=g#5 v=37
46364 On ch=1 n=g#4 v=25
46380 On ch=1 n=e4 v=35
46496 Off ch=1 n=c#5 v=64
46588 Off ch=1 n=e4 v=64
46620 Off ch=1 n=g#4 v=64
46626 Off ch=1 n=g#5 v=64
46672 Off ch=1 n=e5 v=64
46706 Off ch=1 n=c#6 v=64
47010 On ch=1 n=g#6 v=84
47024 On ch=1 n=b5 v=70
47027 On ch=1 n=g#5 v=42
47048 On ch=1 n=c#6 v=33
47054 On ch=1 n=b4 v=34
47054 On ch=1 n=c#5 v=37
47446 Off ch=1 n=c#6 v=64
47462 Off ch=1 n=g#5 v=64
47486 Off ch=1 n=b5 v=64
47488 Off ch=1 n=g#6 v=64
47514 Off ch=1 n=b4 v=64
47548 Off ch=1 n=c#5 v=64
47756 On ch=1 n=f#6 v=56
47776 On ch=1 n=a5 v=32
47784 On ch=1 n=f#5 v=24
47792 On ch=1 n=c#6 v=29
47794 On ch=1 n=c#5 v=31
47822 On ch=1 n=a4 v=32
47908 Off ch=1 n=a5 v=64
47910 Off ch=1 n=a4 v=64
47920 Off ch=1 n=f#5 v=64
47938 Off ch=1 n=f#6 v=64
47968 Off ch=1 n=c#6 v=64
48008 Off ch=1 n=c#5 v=64
48398 On ch=1 n=a4 v=54
48424 On ch=1 n=a3 v=33
48424 On ch=1 n=a2 v=38
48427 Par ch=1 c=64 v=0
48628 Off ch=1 n=a2 v=64
48642 Par ch=1 c=64 v=127
48682 Off ch=1 n=a4 v=64
48684 Off ch=1 n=a3 v=64
49024 On ch=1 n=e6 v=53
49034 On ch=1 n=e5 v=50
49034 On ch=1 n=f#5 v=36
49040 On ch=1 n=a5 v=37
49068 On ch=1 n=f#4 v=25
49074 On ch=1 n=c5 v=27
49142 Off ch=1 n=f#5 v=64
49178 Off ch=1 n=e5 v=64
49208 Off ch=1 n=e6 v=64
49226 Off ch=1 n=a5 v=64
49244 Off ch=1 n=c5 v=64
49260 Off ch=1 n=f#4 v=64
49748 On ch=1 n=g#4 v=48
49754 On ch=1 n=g#2 v=22
49760 On ch=1 n=g#3 v=36
49808 Par ch=1 c=64 v=0
49994 Par ch=1 c=64 v=127
50012 Off ch=1 n=g#2 v=64
50040 Off ch=1 n=g#4 v=64
50048 Off ch=1 n=g#3 v=64
50412 On ch=1 n=d#5 v=25
50412 On ch=1 n=c6 v=38
50430 On ch=1 n=c5 v=23
50432 On ch=1 n=f#5 v=18
50440 On ch=1 n=f#4 v=23
50494 On ch=1 n=d#4 v=23
50590 Off ch=1 n=d#5 v=64
50640 Off ch=1 n=c5 v=64
50692 Off ch=1 n=c6 v=64
50726 Off ch=1 n=f#4 v=64
50734 Off ch=1 n=d#4 v=64
50750 Off ch=1 n=f#5 v=64
51374 On ch=1 n=c#4 v=42
51388 On ch=1 n=c#2 v=52
51391 On ch=1 n=c#3 v=36
51484 Par ch=1 c=64 v=0
51746 Par ch=1 c=64 v=127
51948 Off ch=1 n=c#4 v=64
51954 Off ch=1 n=c#2 v=64
51998 Off ch=1 n=c#3 v=64
52528 On ch=1 n=c#6 v=36
52546 On ch=1 n=g#4 v=24
52556 On ch=1 n=e5 v=34
52568 On ch=1 n=c#5 v=26
52584 On ch=1 n=e4 v=40
52586 On ch=1 n=g#5 v=20
52812 Off ch=1 n=e5 v=64
52862 Off ch=1 n=c#5 v=64
52882 Off ch=1 n=g#5 v=64
52910 Off ch=1 n=g#4 v=64
52950 Off ch=1 n=e4 v=64
53002 Off ch=1 n=c#6 v=64
53180 On ch=1 n=d6 v=70
53184 On ch=1 n=f#5 v=40
53190 On ch=1 n=d5 v=45
53204 On ch=1 n=a5 v=32
53224 On ch=1 n=a4 v=30
53240 On ch=1 n=f#4 v=32
53354 Off ch=1 n=f#5 v=64
53374 Off ch=1 n=d5 v=64
53406 Off ch=1 n=a4 v=64
53414 Off ch=1 n=f#4 v=64
53426 Off ch=1 n=d6 v=64
53430 Off ch=1 n=a5 v=64
53724 On ch=1 n=b5 v=79
53744 On ch=1 n=d5 v=42
53746 On ch=1 n=f#4 v=48
53746 On ch=1 n=b4 v=45
53746 On ch=1 n=f#5 v=37
53774 On ch=1 n=d4 v=24
53914 Off ch=1 n=f#4 v=64
53917 Off ch=1 n=b4 v=64
53940 Off ch=1 n=d4 v=64
53962 Off ch=1 n=d5 v=64
53970 Off ch=1 n=b5 v=64
53986 Off ch=1 n=f#5 v=64
54224 On ch=1 n=c#6 v=66
54234 On ch=1 n=c#5 v=52
54236 On ch=1 n=e5 v=52
54244 On ch=1 n=g#5 v=47
54247 On ch=1 n=g#4 v=34
54272 On ch=1 n=e4 v=37
54358 Off ch=1 n=e5 v=64
54368 Off ch=1 n=g#4 v=64
54392 Off ch=1 n=g#5 v=64
54402 Off ch=1 n=e4 v=64
54440 Off ch=1 n=c#6 v=64
54470 Off ch=1 n=c#5 v=64
54680 On ch=1 n=a5 v=69
54698 On ch=1 n=c#5 v=43
54698 On ch=1 n=a4 v=47
54708 On ch=1 n=e5 v=55
54714 On ch=1 n=e4 v=48
54720 On ch=1 n=c#4 v=31
54822 Off ch=1 n=e4 v=64
54872 Off ch=1 n=a4 v=64
54882 Off ch=1 n=c#5 v=64
54934 Off ch=1 n=e5 v=64
54974 Off ch=1 n=c#4 v=64
54990 Off ch=1 n=a5 v=64
55166 On ch=1 n=b5 v=79
55186 On ch=1 n=d5 v=44
55194 On ch=1 n=f#4 v=39
55212 On ch=1 n=f#5 v=19
55212 On ch=1 n=d4 v=38
55232 On ch=1 n=b4 v=4
55336 Off ch=1 n=d5 v=64
55338 Off ch=1 n=f#5 v=64
55352 Off ch=1 n=f#4 v=64
55362 Off ch=1 n=d4 v=64
55374 Off ch=1 n=b5 v=64
55378 Off ch=1 n=b4 v=64
55660 On ch=1 n=g#5 v=60
55668 On ch=1 n=b4 v=36
55670 On ch=1 n=b3 v=34
55678 On ch=1 n=g#4 v=37
55692 On ch=1 n=d5 v=45
55704 On ch=1 n=f#4 v=42
55740 Par ch=1 c=64 v=0
55854 Off ch=1 n=b4 v=64
55888 Off ch=1 n=g#4 v=64
55908 Par ch=1 c=64 v=127
55913 Off ch=1 n=d5 v=64
55922 Off ch=1 n=b3 v=64
55944 Off ch=1 n=f#4 v=64
55968 Off ch=1 n=g#5 v=64
56224 On ch=1 n=c#5 v=26
56230 On ch=1 n=a5 v=37
56232 On ch=1 n=f#5 v=22
56236 On ch=1 n=a4 v=30
56244 On ch=1 n=c#4 v=25
56278 Par ch=1 c=64 v=0
56288 On ch=1 n=f#4 v=28
56508 Par ch=1 c=64 v=127
56596 Off ch=1 n=f#4 v=64
56602 Off ch=1 n=c#5 v=64
56606 Off ch=1 n=a5 v=64
56606 Off ch=1 n=a4 v=64
56610 Off ch=1 n=f#5 v=64
56612 Off ch=1 n=c#4 v=64
56814 On ch=1 n=a5 v=63
56816 On ch=1 n=a4 v=57
56819 On ch=1 n=c#5 v=55
56842 On ch=1 n=c#4 v=31
56846 On ch=1 n=f#5 v=29
56882 On ch=1 n=f#4 v=29
56958 Off ch=1 n=a4 v=64
57002 Off ch=1 n=f#4 v=64
57084 Off ch=1 n=c#5 v=64
57104 Off ch=1 n=c#4 v=64
57162 Off ch=1 n=a5 v=64
57220 Off ch=1 n=f#5 v=64
57428 On ch=1 n=c#6 v=55
57434 On ch=1 n=c#5 v=46
57442 On ch=1 n=e5 v=46
57454 On ch=1 n=e4 v=36
57460 On ch=1 n=f#4 v=38
57476 Par ch=1 c=64 v=0
57506 On ch=1 n=f#5 v=4
57692 Par ch=1 c=64 v=127
57712 Off ch=1 n=e4 v=64
57724 Off ch=1 n=f#5 v=64
57740 Off ch=1 n=f#4 v=64
57758 Off ch=1 n=e5 v=64
57830 Off ch=1 n=c#6 v=64
57850 Off ch=1 n=c#5 v=64
58114 On ch=1 n=b5 v=51
58122 On ch=1 n=d5 v=31
58132 On ch=1 n=f#4 v=31
58132 On ch=1 n=b4 v=26
58136 On ch=1 n=f#5 v=18
58152 Par ch=1 c=64 v=0
58184 On ch=1 n=d4 v=28
58336 Par ch=1 c=64 v=127
58338 Off ch=1 n=d5 v=64
58388 Off ch=1 n=b4 v=64
58391 Off ch=1 n=b5 v=64
58394 Off ch=1 n=f#4 v=64
58406 Off ch=1 n=d4 v=64
58472 Off ch=1 n=f#5 v=64
59044 On ch=1 n=g4 v=56
59066 On ch=1 n=g2 v=28
59066 On ch=1 n=g3 v=23
59074 Par ch=1 c=64 v=0
59274 Par ch=1 c=64 v=127
59300 Off ch=1 n=g2 v=64
59336 Off ch=1 n=g3 v=64
59376 Off ch=1 n=g4 v=64
59774 On ch=1 n=a5 v=34
59792 On ch=1 n=a4 v=14
59794 On ch=1 n=c#5 v=26
59798 On ch=1 n=e5 v=33
59846 On ch=1 n=e4 v=26
59994 Off ch=1 n=c#5 v=64
60032 Off ch=1 n=a4 v=64
60052 Off ch=1 n=a5 v=64
60082 Off ch=1 n=e4 v=64
60198 Off ch=1 n=e5 v=64
60464 On ch=1 n=g#4 v=45
60510 On ch=1 n=g#3 v=33
60510 On ch=1 n=g#2 v=29
60534 Par ch=1 c=64 v=0
60748 Off ch=1 n=g#2 v=64
60764 Par ch=1 c=64 v=127
60774 Off ch=1 n=g#3 v=64
60870 Off ch=1 n=g#4 v=64
61268 On ch=1 n=g#5 v=23
61290 On ch=1 n=g#4 v=23
61304 On ch=1 n=f#4 v=22
61308 On ch=1 n=d#5 v=26
61308 On ch=1 n=c5 v=15
61358 On ch=1 n=d#4 v=6
61426 Off ch=1 n=g#4 v=64
61488 Off ch=1 n=c5 v=64
61546 Off ch=1 n=d#5 v=64
61554 Off ch=1 n=g#5 v=64
61632 Off ch=1 n=f#4 v=64
61704 Off ch=1 n=d#4 v=64
62232 On ch=1 n=c#4 v=39
62252 On ch=1 n=c#2 v=31
62286 Par ch=1 c=64 v=0
62298 On ch=1 n=c#3 v=26
62532 Par ch=1 c=64 v=127
62600 Off ch=1 n=c#2 v=64
62662 Off ch=1 n=c#4 v=64
62662 Off ch=1 n=c#3 v=64
63040 On ch=1 n=c#5 v=36
63060 On ch=1 n=g#3 v=28
63066 On ch=1 n=e4 v=31
63578 Off ch=1 n=e4 v=64
63584 On ch=1 n=g#4 v=39
63594 On ch=1 n=b3 v=28
63598 On ch=1 n=e5 v=54
63636 Off ch=1 n=g#3 v=64
63670 Off ch=1 n=c#5 v=64
63960 Off ch=1 n=g#4 v=64
64046 Off ch=1 n=b3 v=64
64116 On ch=1 n=d#5 v=51
64126 On ch=1 n=g4 v=41
64144 On ch=1 n=a#3 v=21
64166 Off ch=1 n=e5 v=64
64280 Off ch=1 n=d#5 v=64
64438 Off ch=1 n=a#3 v=64
64514 Off ch=1 n=g4 v=64
64638 On ch=1 n=a4 v=51
64652 On ch=1 n=a3 v=22
64674 On ch=1 n=a2 v=21
65158 On ch=1 n=f#4 v=29
65172 On ch=1 n=d5 v=18
65208 On ch=1 n=c5 v=16
65220 Par ch=1 c=64 v=0
65436 Par ch=1 c=64 v=127
65448 Off ch=1 n=a3 v=64
65508 Off ch=1 n=a4 v=64
65552 Off ch=1 n=a2 v=64
65596 Off ch=1 n=f#4 v=64
65634 On ch=1 n=g#4 v=46
65642 On ch=1 n=g#3 v=27
65652 On ch=1 n=g#2 v=15
65694 Off ch=1 n=c5 v=64
65702 Off ch=1 n=d5 v=64
66250 Par ch=1 c=64 v=0
66262 On ch=1 n=f#4 v=36
66268 On ch=1 n=c5 v=31
66272 On ch=1 n=d#4 v=28
66424 Off ch=1 n=g#3 v=64
66450 Par ch=1 c=64 v=127
66554 Off ch=1 n=g#2 v=64
66610 Off ch=1 n=d#4 v=64
66632 Off ch=1 n=f#4 v=64
66648 Off ch=1 n=g#4 v=64
66770 On ch=1 n=f#4 v=2
66872 On ch=1 n=c#4 v=47
66874 Off ch=1 n=c5 v=64
66890 Off ch=1 n=f#4 v=64
66902 On ch=1 n=c#3 v=19
66905 On ch=1 n=c#2 v=30
66910 Par ch=1 c=64 v=0
67126 Off ch=1 n=c#2 v=64
67126 Par ch=1 c=64 v=127
67166 Off ch=1 n=c#4 v=64
67180 Off ch=1 n=c#3 v=64
67478 On ch=1 n=c#5 v=46
67498 On ch=1 n=g#3 v=39
67502 On ch=1 n=e4 v=50
67670 On ch=1 n=c#3 v=2
67846 Off ch=1 n=e4 v=64
67872 Off ch=1 n=c#3 v=64
67968 On ch=1 n=e5 v=50
67970 On ch=1 n=g#4 v=47
67970 On ch=1 n=b3 v=37
67982 Off ch=1 n=g#3 v=64
68054 Off ch=1 n=c#5 v=64
68230 On ch=1 n=c#3 v=2
68292 Off ch=1 n=g#4 v=64
68456 Off ch=1 n=b3 v=64
68484 On ch=1 n=d#5 v=47
68487 Off ch=1 n=e5 v=64
68496 On ch=1 n=g4 v=38
68498 Off ch=1 n=c#3 v=64
68500 On ch=1 n=a#3 v=30
68622 Off ch=1 n=d#5 v=64
68768 Off ch=1 n=a#3 v=64
68894 Off ch=1 n=g4 v=64
69042 On ch=1 n=a4 v=37
69066 On ch=1 n=a3 v=26
69088 On ch=1 n=a2 v=22
69584 Par ch=1 c=64 v=0
69614 On ch=1 n=f#4 v=34
69616 On ch=1 n=d5 v=22
69648 On ch=1 n=c5 v=15
69846 Par ch=1 c=64 v=127
69902 Off ch=1 n=a3 v=64
69964 Off ch=1 n=a4 v=64
69992 Off ch=1 n=a2 v=64
70086 Off ch=1 n=f#4 v=64
70220 On ch=1 n=g#2 v=14
70220 On ch=1 n=g#4 v=32
70228 Off ch=1 n=d5 v=64
70228 On ch=1 n=g#3 v=23
70264 Off ch=1 n=c5 v=64
70890 Par ch=1 c=64 v=0
70920 On ch=1 n=c5 v=25
70928 On ch=1 n=f#4 v=30
70952 On ch=1 n=d#4 v=19
71170 Off ch=1 n=g#3 v=64
71182 Par ch=1 c=64 v=127
71318 Off ch=1 n=c5 v=64
71330 Off ch=1 n=g#4 v=64
71346 Off ch=1 n=d#4 v=64
71366 Off ch=1 n=f#4 v=64
71412 Off ch=1 n=g#2 v=64
71820 On ch=1 n=e5 v=53
71826 On ch=1 n=c#2 v=24
71858 On ch=1 n=c#3 v=5
72074 Par ch=1 c=64 v=0
72132 On ch=1 n=g#4 v=32
72236 Off ch=1 n=c#2 v=64
72242 Par ch=1 c=64 v=127
72294 Off ch=1 n=c#3 v=64
72356 On ch=1 n=c#5 v=43
72430 Off ch=1 n=c#5 v=64
72438 Off ch=1 n=g#4 v=64
72534 On ch=1 n=d#5 v=67
72564 On ch=1 n=a#3 v=32
72634 Off ch=1 n=e5 v=64
72718 On ch=1 n=g4 v=39
72856 Off ch=1 n=g4 v=64
72866 On ch=1 n=c#5 v=50
72928 Off ch=1 n=d#5 v=64
72950 Off ch=1 n=a#3 v=64
73032 On ch=1 n=d5 v=68
73035 On ch=1 n=a3 v=35
73038 Off ch=1 n=c#5 v=64
73158 On ch=1 n=f#4 v=52
73218 On ch=1 n=c#3 v=2
73316 On ch=1 n=c5 v=41
73322 Off ch=1 n=f#4 v=64
73366 Off ch=1 n=c#3 v=64
73436 On ch=1 n=c#5 v=78
73439 On ch=1 n=g#3 v=59
73470 Off ch=1 n=a3 v=64
73476 Off ch=1 n=c5 v=64
73478 Off ch=1 n=d5 v=64
73552 On ch=1 n=e4 v=51
73614 Off ch=1 n=e4 v=64
73666 On ch=1 n=g#4 v=49
73718 Off ch=1 n=g#4 v=64
73816 On ch=1 n=b3 v=62
73822 On ch=1 n=e5 v=70
73844 On ch=1 n=c#3 v=38
73856 Par ch=1 c=64 v=0
73884 Off ch=1 n=c#5 v=64
73956 On ch=1 n=g#4 v=44
73959 Off ch=1 n=g#3 v=64
74072 On ch=1 n=c#5 v=52
74114 Off ch=1 n=g#4 v=64
74162 Par ch=1 c=64 v=127
74214 On ch=1 n=d#5 v=70
74230 Off ch=1 n=c#5 v=64
74233 Off ch=1 n=b3 v=64
74233 On ch=1 n=a#3 v=42
74240 Par ch=1 c=64 v=0
74252 Off ch=1 n=e5 v=64
74338 On ch=1 n=g4 v=37
74438 Off ch=1 n=g4 v=64
74440 Par ch=1 c=64 v=127
74444 On ch=1 n=c#5 v=46
74488 Off ch=1 n=d#5 v=64
74590 On ch=1 n=a3 v=32
74592 On ch=1 n=d5 v=50
74608 Par ch=1 c=64 v=0
74610 Off ch=1 n=a#3 v=64
74616 Off ch=1 n=c#5 v=64
74696 On ch=1 n=f#4 v=44
74844 On ch=1 n=c5 v=26
74866 Off ch=1 n=f#4 v=64
74870 Par ch=1 c=64 v=127
74950 Off ch=1 n=c5 v=64
74974 On ch=1 n=c#5 v=57
74986 Off ch=1 n=a3 v=64
74992 On ch=1 n=g#3 v=33
75020 Off ch=1 n=d5 v=64
75038 Par ch=1 c=64 v=0
75112 On ch=1 n=e4 v=45
75190 Off ch=1 n=e4 v=64
75224 Par ch=1 c=64 v=127
75227 On ch=1 n=g#4 v=35
75286 Off ch=1 n=g#4 v=64
75304 Off ch=1 n=c#5 v=64
75382 Off ch=1 n=g#3 v=64
75386 On ch=1 n=g#5 v=75
75402 On ch=1 n=e3 v=63
75494 On ch=1 n=g#4 v=48
75498 Off ch=1 n=c#3 v=64
75514 Par ch=1 c=64 v=0
75622 Par ch=1 c=64 v=127
75627 On ch=1 n=c#5 v=52
75644 Off ch=1 n=g#4 v=64
75728 Off ch=1 n=c#5 v=64
75736 On ch=1 n=f#5 v=71
75766 Off ch=1 n=g#5 v=64
75768 On ch=1 n=d#3 v=53
75774 Off ch=1 n=e3 v=64
75792 Par ch=1 c=64 v=0
75852 On ch=1 n=a4 v=43
75970 On ch=1 n=c#5 v=52
75975 Par ch=1 c=64 v=127
75988 Off ch=1 n=a4 v=64
76024 Off ch=1 n=f#5 v=64
76027 Off ch=1 n=c#5 v=64
76114 Off ch=1 n=d#3 v=64
76118 On ch=1 n=a5 v=78
76126 On ch=1 n=f#3 v=50
76184 Off ch=1 n=a5 v=64
76314 On ch=1 n=f#4 v=54
76386 Off ch=1 n=f#4 v=64
76424 On ch=1 n=c#5 v=33
76520 On ch=1 n=g#5 v=64
76530 Off ch=1 n=c#5 v=64
76536 On ch=1 n=e3 v=61
76544 Par ch=1 c=64 v=0
76568 Off ch=1 n=f#3 v=64
76650 On ch=1 n=g#4 v=43
76714 Par ch=1 c=64 v=127
76738 Off ch=1 n=g#5 v=64
76754 On ch=1 n=c#5 v=48
76812 Off ch=1 n=g#4 v=64
76834 Off ch=1 n=e3 v=64
76860 On ch=1 n=f#5 v=62
76863 Off ch=1 n=c#5 v=64
76863 On ch=1 n=a3 v=50
76882 Par ch=1 c=64 v=0
76984 On ch=1 n=f#4 v=62
77112 Par ch=1 c=64 v=127
77130 Off ch=1 n=f#4 v=64
77150 On ch=1 n=c#5 v=39
77150 On ch=1 n=e5 v=74
77172 Off ch=1 n=f#5 v=64
77232 Off ch=1 n=c#5 v=64
77252 Par ch=1 c=64 v=0
77292 On ch=1 n=d#3 v=38
77324 On ch=1 n=f#5 v=61
77338 Off ch=1 n=e5 v=64
77392 Off ch=1 n=a3 v=64
77438 On ch=1 n=f#4 v=52
77542 Par ch=1 c=64 v=127
77576 On ch=1 n=c#5 v=43
77588 Off ch=1 n=f#4 v=64
77594 Off ch=1 n=f#5 v=64
77720 On ch=1 n=e5 v=56
77723 Off ch=1 n=d#3 v=64
77723 On ch=1 n=g#3 v=39
77728 Par ch=1 c=64 v=0
77754 Off ch=1 n=c#5 v=64
77858 On ch=1 n=f#4 v=48
77988 Off ch=1 n=f#4 v=64
78020 Par ch=1 c=64 v=127
78022 Off ch=1 n=e5 v=64
78022 On ch=1 n=d#5 v=56
78044 On ch=1 n=c5 v=34
78184 Off ch=1 n=c5 v=64
78232 On ch=1 n=e5 v=48
78235 Par ch=1 c=64 v=0
78248 Off ch=1 n=d#5 v=64
78258 On ch=1 n=c#3 v=35
78348 Off ch=1 n=g#3 v=64
78400 On ch=1 n=e4 v=39
78512 Par ch=1 c=64 v=127
78526 Off ch=1 n=e4 v=64
78552 Off ch=1 n=e5 v=64
78572 On ch=1 n=c#5 v=25
78780 Off ch=1 n=c#5 v=64
78796 On ch=1 n=b3 v=42
78808 On ch=1 n=e5 v=49
78912 Par ch=1 c=64 v=0
78924 On ch=1 n=g#4 v=34
79068 On ch=1 n=c#5 v=38
79080 Par ch=1 c=64 v=127
79126 Off ch=1 n=g#4 v=64
79204 On ch=1 n=d#5 v=62
79208 Off ch=1 n=b3 v=64
79212 Off ch=1 n=c#5 v=64
79214 Off ch=1 n=e5 v=64
79214 On ch=1 n=a#3 v=49
79234 Par ch=1 c=64 v=0
79340 On ch=1 n=g4 v=40
79418 Par ch=1 c=64 v=127
79452 On ch=1 n=c#5 v=41
79470 Off ch=1 n=g4 v=64
79504 Off ch=1 n=d#5 v=64
79578 Off ch=1 n=c#5 v=64
79584 On ch=1 n=d5 v=68
79592 On ch=1 n=a3 v=50
79684 Off ch=1 n=a#3 v=64
79692 On ch=1 n=f#4 v=50
79695 Par ch=1 c=64 v=0
79826 On ch=1 n=c5 v=56
79838 Off ch=1 n=f#4 v=64
79864 Par ch=1 c=64 v=127
79942 Off ch=1 n=d5 v=64
79942 On ch=1 n=c#5 v=76
79952 On ch=1 n=g#3 v=69
79982 Off ch=1 n=a3 v=64
79984 Off ch=1 n=c5 v=64
80016 Par ch=1 c=64 v=0
80054 On ch=1 n=e4 v=63
80086 Off ch=1 n=c#3 v=64
80156 Par ch=1 c=64 v=127
80162 Off ch=1 n=e4 v=64
80164 On ch=1 n=g#4 v=54
80200 Off ch=1 n=g#3 v=64
80212 Off ch=1 n=g#4 v=64
80222 Off ch=1 n=c#5 v=64
80386 On ch=1 n=e5 v=81
80418 On ch=1 n=b3 v=73
80436 On ch=1 n=c#3 v=49
80510 On ch=1 n=g#4 v=47
80652 On ch=1 n=c#5 v=52
80708 Off ch=1 n=g#4 v=64
80788 On ch=1 n=d#5 v=77
80804 Off ch=1 n=e5 v=64
80808 On ch=1 n=a#3 v=64
80842 Off ch=1 n=c#5 v=64
80856 Off ch=1 n=b3 v=64
80906 On ch=1 n=g4 v=57
81000 On ch=1 n=c#5 v=61
81030 Off ch=1 n=g4 v=64
81046 Off ch=1 n=d#5 v=64
81154 On ch=1 n=d5 v=76
81160 On ch=1 n=a3 v=66
81188 Off ch=1 n=c#5 v=64
81234 Off ch=1 n=a#3 v=64
81276 On ch=1 n=f#4 v=66
81324 Par ch=1 c=64 v=0
81388 On ch=1 n=c5 v=65
81420 Off ch=1 n=f#4 v=64
81492 Par ch=1 c=64 v=127
81506 On ch=1 n=c#5 v=83
81514 On ch=1 n=g#3 v=75
81568 Off ch=1 n=c5 v=64
81570 Off ch=1 n=a3 v=64
81574 Off ch=1 n=d5 v=64
81620 On ch=1 n=e4 v=64
81702 Off ch=1 n=e4 v=64
81720 On ch=1 n=g#4 v=62
81766 Off ch=1 n=g#4 v=64
81798 Off ch=1 n=c#5 v=64
81908 On ch=1 n=g#5 v=81
81916 On ch=1 n=e3 v=95
81974 Off ch=1 n=g#3 v=64
82030 Par ch=1 c=64 v=0
82033 On ch=1 n=g#4 v=65
82170 On ch=1 n=c#5 v=54
82192 Off ch=1 n=g#4 v=64
82204 Off ch=1 n=c#3 v=64
82214 Par ch=1 c=64 v=127
82282 On ch=1 n=f#5 v=73
82285 On ch=1 n=d#3 v=76
82322 Off ch=1 n=c#5 v=64
82332 Off ch=1 n=e3 v=64
82340 Par ch=1 c=64 v=0
82354 Off ch=1 n=g#5 v=64
82394 On ch=1 n=a4 v=48
82476 Par ch=1 c=64 v=127
82503 On ch=1 n=c#5 v=70
82528 Off ch=1 n=a4 v=64
82532 Off ch=1 n=f#5 v=64
82556 Off ch=1 n=c#5 v=64
82632 On ch=1 n=a5 v=91
82638 On ch=1 n=f#3 v=83
82672 Off ch=1 n=d#3 v=64
82702 Off ch=1 n=a5 v=64
82788 On ch=1 n=f#4 v=82
82896 Off ch=1 n=f#4 v=64
82910 On ch=1 n=c#5 v=57
82964 Off ch=1 n=f#3 v=64
82964 On ch=1 n=e3 v=101
82982 On ch=1 n=g#5 v=84
83028 Par ch=1 c=64 v=0
83040 Off ch=1 n=c#5 v=64
83068 On ch=1 n=g#4 v=78
83118 Off ch=1 n=e3 v=64
83166 On ch=1 n=c#5 v=59
83166 Par ch=1 c=64 v=127
83176 Off ch=1 n=g#4 v=64
83210 Off ch=1 n=c#5 v=64
83214 Off ch=1 n=g#5 v=64
83317 On ch=1 n=a3 v=76
83317 On ch=1 n=c#6 v=92
83342 On ch=1 n=e4 v=89
83422 On ch=1 n=c#5 v=66
83550 On ch=1 n=a5 v=61
83586 Off ch=1 n=c#5 v=64
83646 Off ch=1 n=c#6 v=64
83658 On ch=1 n=f#4 v=96
83661 On ch=1 n=b5 v=92
83700 Off ch=1 n=e4 v=64
83736 Par ch=1 c=64 v=0
83742 Off ch=1 n=a5 v=64
83766 On ch=1 n=d5 v=51
83860 On ch=1 n=a5 v=63
83874 Par ch=1 c=64 v=127
83908 Off ch=1 n=d5 v=64
83928 Off ch=1 n=b5 v=64
84000 On ch=1 n=d6 v=100
84005 On ch=1 n=f4 v=110
84028 Par ch=1 c=64 v=0
84044 Off ch=1 n=f#4 v=64
84052 Off ch=1 n=a5 v=64
84104 On ch=1 n=d5 v=71
84212 Par ch=1 c=64 v=127
84216 On ch=1 n=g#5 v=62
84244 Off ch=1 n=d6 v=64
84278 Off ch=1 n=d5 v=64
84290 Off ch=1 n=f4 v=64
84340 On ch=1 n=c#6 v=91
84344 On ch=1 n=e4 v=99
84386 Off ch=1 n=g#5 v=64
84396 Off ch=1 n=a3 v=64
84426 Off ch=1 n=e4 v=64
84426 On ch=1 n=c#5 v=78
84532 Off ch=1 n=c#5 v=64
84538 On ch=1 n=a5 v=57
84584 Off ch=1 n=a5 v=64
84600 Off ch=1 n=c#6 v=64
84732 On ch=1 n=f#6 v=99
84736 On ch=1 n=d#5 v=78
84746 On ch=1 n=c5 v=54
84764 Par ch=1 c=64 v=0
84858 On ch=1 n=a5 v=51
84968 On ch=1 n=d#6 v=62
84980 Par ch=1 c=64 v=127
85010 Off ch=1 n=a5 v=64
85036 Off ch=1 n=f#6 v=64
85066 Off ch=1 n=c5 v=64
85082 Off ch=1 n=d#5 v=64
85088 On ch=1 n=e6 v=84
85102 On ch=1 n=e5 v=79
85106 On ch=1 n=c#5 v=68
85118 Par ch=1 c=64 v=0
85130 Off ch=1 n=d#6 v=64
85188 On ch=1 n=g#5 v=69
85234 Off ch=1 n=c#5 v=64
85240 Par ch=1 c=64 v=127
85290 On ch=1 n=c#6 v=67
85300 Off ch=1 n=e6 v=64
85314 Off ch=1 n=g#5 v=64
85332 Off ch=1 n=c#6 v=64
85422 On ch=1 n=d6 v=99
85426 On ch=1 n=b4 v=69
85432 On ch=1 n=g#4 v=54
85434 Off ch=1 n=e5 v=64
85472 Par ch=1 c=64 v=0
85532 On ch=1 n=f5 v=50
85618 On ch=1 n=b5 v=74
85656 Par ch=1 c=64 v=127
85662 Off ch=1 n=f5 v=64
85712 Off ch=1 n=g#4 v=64
85722 Off ch=1 n=d6 v=64
85759 On ch=1 n=c#6 v=79
85763 On ch=1 n=c#5 v=70
85774 On ch=1 n=a4 v=57
85782 Off ch=1 n=b4 v=64
85794 Par ch=1 c=64 v=0
85836 Off ch=1 n=b5 v=64
85864 On ch=1 n=f#5 v=57
85948 Par ch=1 c=64 v=127
85960 Off ch=1 n=c#5 v=64
85968 On ch=1 n=a5 v=53
85994 Off ch=1 n=c#6 v=64
86004 Off ch=1 n=f#5 v=64
86020 Off ch=1 n=a5 v=64
86023 Off ch=1 n=a4 v=64
86110 On ch=1 n=d6 v=97
86116 On ch=1 n=g#4 v=53
86126 On ch=1 n=b4 v=54
86148 Par ch=1 c=64 v=0
86224 On ch=1 n=f5 v=51
86318 On ch=1 n=b5 v=74
86348 Par ch=1 c=64 v=127
86364 Off ch=1 n=f5 v=64
86422 Off ch=1 n=b4 v=64
86425 Off ch=1 n=g#4 v=64
86440 On ch=1 n=c#5 v=68
86442 On ch=1 n=c#6 v=78
86454 Par ch=1 c=64 v=0
86464 On ch=1 n=a4 v=46
86466 Off ch=1 n=d6 v=64
86506 Off ch=1 n=b5 v=64
86538 On ch=1 n=f#5 v=55
86550 Off ch=1 n=a4 v=64
86610 Par ch=1 c=64 v=127
86650 On ch=1 n=a5 v=51
86674 Off ch=1 n=c#6 v=64
86702 Off ch=1 n=a5 v=64
86705 Off ch=1 n=c#5 v=64
86716 Off ch=1 n=f#5 v=64
86786 On ch=1 n=b5 v=88
86792 On ch=1 n=g#4 v=50
86806 On ch=1 n=f4 v=64
86886 Par ch=1 c=64 v=0
86894 On ch=1 n=d5 v=56
86988 On ch=1 n=g#5 v=56
87030 Off ch=1 n=d5 v=64
87054 Par ch=1 c=64 v=127
87080 Off ch=1 n=f4 v=64
87122 Off ch=1 n=g#4 v=64
87128 On ch=1 n=a4 v=56
87128 On ch=1 n=a5 v=64
87136 Off ch=1 n=b5 v=64
87142 On ch=1 n=f#4 v=47
87162 Par ch=1 c=64 v=0
87180 Off ch=1 n=g#5 v=64
87216 On ch=1 n=c#5 v=60
87324 On ch=1 n=f#5 v=49
87326 Off ch=1 n=f#4 v=64
87330 Par ch=1 c=64 v=127
87340 Off ch=1 n=a5 v=64
87340 Off ch=1 n=c#5 v=64
87376 Off ch=1 n=f#5 v=64
87468 On ch=1 n=a5 v=73
87470 Par ch=1 c=64 v=0
87478 On ch=1 n=f#4 v=75
87488 On ch=1 n=d#4 v=59
87518 Off ch=1 n=a4 v=64
87568 On ch=1 n=c5 v=57
87674 On ch=1 n=f#5 v=48
87684 Par ch=1 c=64 v=127
87686 Off ch=1 n=c5 v=64
87792 Par ch=1 c=64 v=0
87792 On ch=1 n=g#5 v=70
87795 Off ch=1 n=f#4 v=64
87810 On ch=1 n=g#4 v=56
87824 On ch=1 n=e4 v=62
87826 Off ch=1 n=a5 v=64
87828 Off ch=1 n=d#4 v=64
87842 Off ch=1 n=f#5 v=64
87872 On ch=1 n=c#5 v=61
87934 Off ch=1 n=e4 v=64
87976 Par ch=1 c=64 v=127
87986 On ch=1 n=e5 v=70
87996 Off ch=1 n=c#5 v=64
88004 Off ch=1 n=g#5 v=64
88024 Off ch=1 n=e5 v=64
88134 On ch=1 n=f#5 v=69
88154 Off ch=1 n=g#4 v=64
88154 On ch=1 n=d#4 v=50
88184 On ch=1 n=c4 v=27
88258 On ch=1 n=a4 v=38
88348 On ch=1 n=d#5 v=54
88384 Off ch=1 n=a4 v=64
88486 Off ch=1 n=d#4 v=64
88486 On ch=1 n=e4 v=49
88492 On ch=1 n=e5 v=65
88500 Off ch=1 n=d#5 v=64
88506 On ch=1 n=c#4 v=38
88512 Off ch=1 n=c4 v=64
88515 Off ch=1 n=f#5 v=64
88544 Par ch=1 c=64 v=0
88582 On ch=1 n=g#4 v=49
88698 On ch=1 n=c#5 v=51
88714 Par ch=1 c=64 v=127
88734 Off ch=1 n=g#4 v=64
88758 Off ch=1 n=e5 v=64
88768 Off ch=1 n=c#4 v=64
88796 Off ch=1 n=c#5 v=64
88840 Off ch=1 n=e4 v=64
88842 On ch=1 n=d5 v=71
88876 On ch=1 n=f#3 v=55
88928 Par ch=1 c=64 v=0
88974 On ch=1 n=a4 v=34
89084 On ch=1 n=c#5 v=57
89114 Par ch=1 c=64 v=127
89120 Off ch=1 n=a4 v=64
89164 Off ch=1 n=d5 v=64
89224 On ch=1 n=a5 v=61
89242 Off ch=1 n=c#5 v=64
89256 On ch=1 n=d4 v=49
89342 On ch=1 n=a4 v=41
89446 Off ch=1 n=a5 v=64
89446 On ch=1 n=c#5 v=54
89460 Off ch=1 n=a4 v=64
89552 Off ch=1 n=d4 v=64
89552 On ch=1 n=g3 v=76
89558 On ch=1 n=d#5 v=77
89572 Off ch=1 n=c#5 v=64
89574 Off ch=1 n=f#3 v=64
89662 On ch=1 n=a#4 v=50
89696 Par ch=1 c=64 v=0
89764 On ch=1 n=c#5 v=59
89806 Off ch=1 n=a#4 v=64
89852 Par ch=1 c=64 v=127
89855 On ch=1 n=a#5 v=78
89880 On ch=1 n=d#4 v=73
89908 Off ch=1 n=c#5 v=64
89932 Off ch=1 n=d#5 v=64
89960 On ch=1 n=a#4 v=68
90060 On ch=1 n=c#5 v=68
90078 Off ch=1 n=a#4 v=64
90100 Off ch=1 n=a#5 v=64
90182 Off ch=1 n=c#5 v=64
90185 On ch=1 n=e5 v=96
90198 On ch=1 n=g#3 v=81
90238 Off ch=1 n=g3 v=64
90250 Par ch=1 c=64 v=0
90296 On ch=1 n=b4 v=50
90402 On ch=1 n=d#5 v=67
90405 Par ch=1 c=64 v=127
90446 Off ch=1 n=b4 v=64
90484 Off ch=1 n=d#4 v=64
90490 Off ch=1 n=e5 v=64
90526 On ch=1 n=b5 v=105
90532 Off ch=1 n=d#5 v=64
90540 On ch=1 n=e4 v=98
90618 Par ch=1 c=64 v=0
90622 On ch=1 n=b4 v=70
90732 On ch=1 n=d#5 v=73
90742 Par ch=1 c=64 v=127
90764 Off ch=1 n=b4 v=64
90786 Off ch=1 n=d#5 v=64
90792 Off ch=1 n=b5 v=64
90858 On ch=1 n=c6 v=101
90868 On ch=1 n=d#4 v=87
90922 Off ch=1 n=e4 v=64
90946 On ch=1 n=c5 v=74
91062 On ch=1 n=f#5 v=59
91094 Off ch=1 n=c5 v=64
91106 Off ch=1 n=c6 v=64
91172 Off ch=1 n=d#4 v=64
91196 Off ch=1 n=f#5 v=64
91204 On ch=1 n=c#6 v=97
91214 On ch=1 n=c#4 v=65
91218 Par ch=1 c=64 v=0
91242 Off ch=1 n=g#3 v=64
91288 On ch=1 n=c#5 v=77
91372 Par ch=1 c=64 v=127
91412 On ch=1 n=e5 v=64
91420 Off ch=1 n=c#5 v=64
91426 Off ch=1 n=c#4 v=64
91432 On ch=1 n=c#3 v=101
91460 Off ch=1 n=e5 v=64
91528 Off ch=1 n=c#3 v=64
91536 Off ch=1 n=c#6 v=64
91674 On ch=1 n=e6 v=105
91732 On ch=1 n=b4 v=79
91826 On ch=1 n=g#5 v=62
91950 On ch=1 n=c#6 v=64
91966 Off ch=1 n=g#5 v=64
92058 On ch=1 n=d#6 v=90
92068 On ch=1 n=a#4 v=79
92128 Off ch=1 n=c#6 v=64
92131 Off ch=1 n=b4 v=64
92138 Off ch=1 n=e6 v=64
92156 On ch=1 n=g5 v=72
92262 On ch=1 n=c#6 v=76
92284 Off ch=1 n=g5 v=64
92300 Off ch=1 n=d#6 v=64
92382 Off ch=1 n=a#4 v=64
92396 On ch=1 n=d6 v=101
92399 On ch=1 n=a4 v=87
92454 Off ch=1 n=c#6 v=64
92502 On ch=1 n=f#5 v=58
92602 On ch=1 n=c6 v=71
92622 Off ch=1 n=f#5 v=64
92652 Off ch=1 n=a4 v=64
92660 Off ch=1 n=d6 v=64
92734 On ch=1 n=g#4 v=83
92737 On ch=1 n=c#6 v=90
92774 Off ch=1 n=g#4 v=64
92812 Off ch=1 n=c6 v=64
92852 On ch=1 n=e5 v=71
92894 Par ch=1 c=64 v=0
92908 On ch=1 n=c#3 v=100
92950 On ch=1 n=g#5 v=67
92992 Off ch=1 n=e5 v=64
93000 Par ch=1 c=64 v=127
93008 Off ch=1 n=c#3 v=64
93048 Off ch=1 n=g#5 v=64
93050 Off ch=1 n=c#6 v=64
93110 On ch=1 n=e6 v=105
93126 On ch=1 n=b4 v=84
93220 On ch=1 n=g#5 v=75
93356 On ch=1 n=c#6 v=72
93374 Off ch=1 n=g#5 v=64
93430 Off ch=1 n=e6 v=64
93474 On ch=1 n=d#6 v=95
93480 On ch=1 n=a#4 v=76
93552 Off ch=1 n=b4 v=64
93555 Off ch=1 n=c#6 v=64
93580 On ch=1 n=g5 v=71
93696 On ch=1 n=c#6 v=73
93736 Off ch=1 n=g5 v=64
93738 Off ch=1 n=d#6 v=64
93812 On ch=1 n=d6 v=107
93834 On ch=1 n=a4 v=81
93856 Off ch=1 n=c#6 v=64
93890 Off ch=1 n=a#4 v=64
93938 On ch=1 n=f#5 v=60
94022 On ch=1 n=c6 v=75
94076 Off ch=1 n=f#5 v=64
94082 Off ch=1 n=d6 v=64
94146 On ch=1 n=c#6 v=92
94148 On ch=1 n=g#4 v=81
94174 Off ch=1 n=a4 v=64
94230 Off ch=1 n=c6 v=64
94258 On ch=1 n=e5 v=70
94338 On ch=1 n=g#5 v=66
94356 Off ch=1 n=e5 v=64
94380 Off ch=1 n=g#5 v=64
94400 Off ch=1 n=c#6 v=64
94458 Off ch=1 n=g#4 v=64
94506 On ch=1 n=g#6 v=99
94512 On ch=1 n=e4 v=87
94514 On ch=1 n=c#5 v=76
94602 On ch=1 n=g#5 v=66
94738 On ch=1 n=c#6 v=71
94776 Off ch=1 n=g#5 v=64
94814 Off ch=1 n=g#6 v=64
94848 On ch=1 n=f#6 v=90
94860 On ch=1 n=d#4 v=86
94866 Off ch=1 n=c#6 v=64
94890 Off ch=1 n=e4 v=64
94890 Par ch=1 c=64 v=0
94950 On ch=1 n=a5 v=69
95058 On ch=1 n=c#6 v=70
95060 Par ch=1 c=64 v=127
95094 Off ch=1 n=f#6 v=64
95102 Off ch=1 n=a5 v=64
95112 Off ch=1 n=c#6 v=64
95196 Off ch=1 n=d#4 v=64
95196 On ch=1 n=a6 v=102
95202 On ch=1 n=f#4 v=83
95274 Off ch=1 n=a6 v=64
95338 On ch=1 n=f#5 v=69
95474 On ch=1 n=c#6 v=46
95486 Off ch=1 n=f#5 v=64
95574 On ch=1 n=g#6 v=88
95586 On ch=1 n=e4 v=90
95610 Off ch=1 n=c#6 v=64
95618 Off ch=1 n=f#4 v=64
95690 On ch=1 n=g#5 v=68
95764 Off ch=1 n=c#5 v=64
95764 Off ch=1 n=g#6 v=64
95782 On ch=1 n=c#6 v=65
95830 Off ch=1 n=g#5 v=64
95842 Off ch=1 n=c#6 v=64
95892 On ch=1 n=f#6 v=92
95904 On ch=1 n=a4 v=78
95934 Par ch=1 c=64 v=0
95942 Off ch=1 n=e4 v=64
95996 On ch=1 n=f#5 v=60
96118 Off ch=1 n=f#5 v=64
96120 Par ch=1 c=64 v=127
96136 Off ch=1 n=f#6 v=64
96136 On ch=1 n=c#6 v=49
96136 On ch=1 n=e6 v=76
96284 On ch=1 n=f#6 v=72
96316 On ch=1 n=d#4 v=62
96342 Off ch=1 n=c#6 v=64
96346 Off ch=1 n=e6 v=64
96384 On ch=1 n=f#5 v=54
96434 Off ch=1 n=a4 v=64
96474 Off ch=1 n=f#6 v=64
96502 On ch=1 n=c#6 v=67
96552 Off ch=1 n=f#5 v=64
96642 On ch=1 n=e6 v=63
96664 On ch=1 n=g#4 v=58
96670 Off ch=1 n=c#6 v=64
96734 Par ch=1 c=64 v=0
96794 Off ch=1 n=d#4 v=64
96802 On ch=1 n=f#5 v=38
96904 Par ch=1 c=64 v=127
96930 On ch=1 n=d#6 v=59
96950 Off ch=1 n=e6 v=64
96950 On ch=1 n=c6 v=40
96996 Off ch=1 n=f#5 v=64
97016 Off ch=1 n=c6 v=64
97088 Par ch=1 c=64 v=0
97102 On ch=1 n=e6 v=71
97106 On ch=1 n=c#4 v=49
97124 Off ch=1 n=d#6 v=64
97194 Off ch=1 n=g#4 v=64
97226 On ch=1 n=e5 v=60
97228 Par ch=1 c=64 v=127
97254 Off ch=1 n=c#4 v=64
97310 Off ch=1 n=e5 v=64
97330 On ch=1 n=c#3 v=84
97336 On ch=1 n=c#6 v=58
97384 Off ch=1 n=e6 v=64
97390 Off ch=1 n=c#3 v=64
97538 On ch=1 n=e6 v=78
97568 On ch=1 n=b4 v=81
97598 Off ch=1 n=c#6 v=64
97658 On ch=1 n=g#5 v=59
97786 On ch=1 n=c#6 v=65
97792 Off ch=1 n=g#5 v=64
97908 On ch=1 n=d#6 v=85
97914 On ch=1 n=a#4 v=68
97928 Off ch=1 n=e6 v=64
97962 Off ch=1 n=c#6 v=64
97974 Off ch=1 n=b4 v=64
98020 On ch=1 n=g5 v=55
98104 On ch=1 n=c#6 v=73
98146 Off ch=1 n=d#6 v=64
98164 Off ch=1 n=g5 v=64
98246 On ch=1 n=d6 v=98
98272 Off ch=1 n=c#6 v=64
98272 On ch=1 n=a4 v=80
98298 Off ch=1 n=a#4 v=64
98400 On ch=1 n=f#5 v=42
98482 On ch=1 n=c6 v=66
98518 Off ch=1 n=f#5 v=64
98521 Off ch=1 n=d6 v=64
98560 Off ch=1 n=a4 v=64
98604 On ch=1 n=c#6 v=87
98607 On ch=1 n=g#4 v=85
98650 Off ch=1 n=g#4 v=64
98668 Off ch=1 n=c6 v=64
98712 On ch=1 n=e5 v=69
98788 On ch=1 n=c#3 v=86
98826 On ch=1 n=g#5 v=60
98836 Off ch=1 n=c#3 v=64
98842 Off ch=1 n=e5 v=64
98896 Off ch=1 n=g#5 v=64
98960 Off ch=1 n=c#6 v=64
99012 On ch=1 n=e6 v=87
99074 On ch=1 n=b4 v=89
99160 On ch=1 n=g#5 v=48
99294 On ch=1 n=c#6 v=55
99342 Off ch=1 n=g#5 v=64
99402 Off ch=1 n=e6 v=64
99418 On ch=1 n=d#6 v=81
99438 On ch=1 n=a#4 v=81
99468 Off ch=1 n=c#6 v=64
99514 Off ch=1 n=b4 v=64
99528 On ch=1 n=g5 v=62
99636 On ch=1 n=c#6 v=69
99672 Off ch=1 n=d#6 v=64
99672 Off ch=1 n=g5 v=64
99758 On ch=1 n=d6 v=93
99774 On ch=1 n=a4 v=82
99796 Off ch=1 n=c#6 v=64
99866 Off ch=1 n=a#4 v=64
99878 On ch=1 n=f#5 v=51
99964 On ch=1 n=c6 v=69
100004 Off ch=1 n=f#5 v=64
100010 Off ch=1 n=d6 v=64
100078 On ch=1 n=c#6 v=81
100102 Off ch=1 n=a4 v=64
100102 On ch=1 n=g#4 v=75
100148 Off ch=1 n=c6 v=64
100188 On ch=1 n=e5 v=68
100266 Off ch=1 n=e5 v=64
100269 On ch=1 n=g#5 v=69
100312 Off ch=1 n=g#5 v=64
100324 Off ch=1 n=c#6 v=64
100442 Off ch=1 n=g#4 v=64
100442 On ch=1 n=g#6 v=86
100450 On ch=1 n=c#5 v=52
100464 On ch=1 n=e4 v=60
100467 Par ch=1 c=64 v=0
100560 On ch=1 n=g#5 v=57
100668 Par ch=1 c=64 v=127
100680 On ch=1 n=c#6 v=57
100722 Off ch=1 n=g#5 v=64
100778 On ch=1 n=f#6 v=80
100784 Off ch=1 n=g#6 v=64
100800 On ch=1 n=d#4 v=73
100804 Off ch=1 n=c#6 v=64
100814 Off ch=1 n=e4 v=64
100896 On ch=1 n=a5 v=63
100972 On ch=1 n=c#6 v=70
100974 Off ch=1 n=f#6 v=64
101010 Off ch=1 n=d#4 v=64
101013 Off ch=1 n=a5 v=64
101018 Off ch=1 n=c#6 v=64
101098 Par ch=1 c=64 v=0
101116 On ch=1 n=a6 v=106
101124 On ch=1 n=f#4 v=79
101206 Par ch=1 c=64 v=127
101212 Off ch=1 n=a6 v=64
101257 On ch=1 n=f#5 v=66
101344 On ch=1 n=c#6 v=52
101376 Off ch=1 n=f#5 v=64
101440 Off ch=1 n=f#4 v=64
101442 On ch=1 n=g#6 v=96
101456 On ch=1 n=e4 v=92
101468 Off ch=1 n=c#5 v=64
101480 Off ch=1 n=c#6 v=64
101498 Off ch=1 n=e4 v=64
101542 On ch=1 n=g#5 v=71
101642 On ch=1 n=c#6 v=59
101666 Off ch=1 n=g#5 v=64
101678 Off ch=1 n=g#6 v=64
101684 Off ch=1 n=c#6 v=64
101782 On ch=1 n=b6 v=120
101794 On ch=1 n=g#5 v=80
101802 On ch=1 n=f5 v=75
101820 Par ch=1 c=64 v=0
101872 On ch=1 n=d6 v=76
101982 On ch=1 n=g#6 v=74
101988 Par ch=1 c=64 v=127
101992 Off ch=1 n=d6 v=64
102014 Off ch=1 n=b6 v=64
102052 Off ch=1 n=f5 v=64
102090 Off ch=1 n=g#5 v=64
102104 On ch=1 n=a6 v=96
102110 On ch=1 n=f#5 v=73
102112 On ch=1 n=a5 v=80
102146 Off ch=1 n=g#6 v=64
102162 Off ch=1 n=f#5 v=64
102186 On ch=1 n=c#6 v=69
102276 On ch=1 n=f#6 v=78
102300 Off ch=1 n=c#6 v=64
102306 Off ch=1 n=a6 v=64
102310 Off ch=1 n=a5 v=64
102314 Off ch=1 n=f#6 v=64
102412 On ch=1 n=d7 v=112
102412 On ch=1 n=g#5 v=73
102415 On ch=1 n=b5 v=87
102420 Par ch=1 c=64 v=0
102512 On ch=1 n=f6 v=71
102588 Par ch=1 c=64 v=127
102624 On ch=1 n=b6 v=91
102634 Off ch=1 n=f6 v=64
102636 Off ch=1 n=b5 v=64
102644 Off ch=1 n=d7 v=64
102656 Off ch=1 n=g#5 v=64
102718 On ch=1 n=c#6 v=84
102724 On ch=1 n=a5 v=58
102724 On ch=1 n=c#7 v=93
102770 Off ch=1 n=a5 v=64
102792 Off ch=1 n=b6 v=64
102802 On ch=1 n=f#6 v=83
102824 Off ch=1 n=c#6 v=64
102876 On ch=1 n=a6 v=65
102892 Off ch=1 n=f#6 v=64
102914 Off ch=1 n=c#7 v=64
102916 Off ch=1 n=a6 v=64
103014 On ch=1 n=f#7 v=104
103016 On ch=1 n=d#6 v=88
103016 On ch=1 n=c6 v=81
103019 Par ch=1 c=64 v=0
103124 On ch=1 n=a6 v=83
103188 Par ch=1 c=64 v=127
103202 On ch=1 n=d#7 v=70
103240 Off ch=1 n=c6 v=64
103242 Off ch=1 n=a6 v=64
103248 Off ch=1 n=f#7 v=64
103292 Off ch=1 n=d#6 v=64
103310 On ch=1 n=e7 v=94
103312 On ch=1 n=e6 v=89
103316 On ch=1 n=c#6 v=73
103376 Off ch=1 n=d#7 v=64
103404 Par ch=1 c=64 v=0
103404 On ch=1 n=g#6 v=81
103418 Off ch=1 n=c#6 v=64
103476 On ch=1 n=c#7 v=75
103478 Par ch=1 c=64 v=127
103494 Off ch=1 n=g#6 v=64
103496 Off ch=1 n=e6 v=64
103510 Off ch=1 n=e7 v=64
103512 Off ch=1 n=c#7 v=64
103626 On ch=1 n=f#7 v=100
103626 On ch=1 n=a7 v=103
103632 On ch=1 n=c7 v=101
103664 Par ch=1 c=64 v=0
103684 On ch=1 n=d7 v=16
103715 Off ch=1 n=c7 v=64
103742 Off ch=1 n=d7 v=64
103750 On ch=1 n=f#6 v=93
103752 Off ch=1 n=f#7 v=64
103752 Off ch=1 n=a7 v=64
103752 On ch=1 n=d#6 v=85
103802 Par ch=1 c=64 v=127
103820 On ch=1 n=a7 v=81
103822 On ch=1 n=f#7 v=70
103822 On ch=1 n=c7 v=99
103828 Off ch=1 n=f#6 v=64
103860 Off ch=1 n=d#6 v=64
103896 Off ch=1 n=c7 v=64
103932 Off ch=1 n=a7 v=64
103932 On ch=1 n=g#6 v=99
103938 On ch=1 n=e6 v=93
103956 Par ch=1 c=64 v=0
103966 Off ch=1 n=f#7 v=64
104010 Off ch=1 n=g#6 v=64
104026 On ch=1 n=g#7 v=81
104029 On ch=1 n=c#7 v=81
104029 On ch=1 n=e7 v=82
104054 Off ch=1 n=e6 v=64
104074 Off ch=1 n=c#7 v=64
104074 Off ch=1 n=e7 v=64
104094 Par ch=1 c=64 v=127
104106 Off ch=1 n=g#7 v=64
104116 On ch=1 n=e6 v=84
104116 On ch=1 n=g#6 v=69
104210 Off ch=1 n=e6 v=64
104218 Off ch=1 n=g#6 v=64
104218 On ch=1 n=f#7 v=97
104222 On ch=1 n=a6 v=104
104222 On ch=1 n=d#7 v=88
104284 Off ch=1 n=a6 v=64
104310 Off ch=1 n=f#7 v=64
104322 On ch=1 n=d#6 v=90
104328 On ch=1 n=c6 v=81
104346 Off ch=1 n=d#7 v=64
104380 Off ch=1 n=c6 v=64
104398 On ch=1 n=f#7 v=58
104404 On ch=1 n=d#7 v=64
104410 On ch=1 n=a6 v=85
104426 Off ch=1 n=d#6 v=64
104472 Off ch=1 n=a6 v=64
104476 Off ch=1 n=d#7 v=64
104498 Off ch=1 n=f#7 v=64
104500 On ch=1 n=e6 v=99
104508 On ch=1 n=c#6 v=86
104580 Off ch=1 n=e6 v=64
104580 Off ch=1 n=c#6 v=64
104598 On ch=1 n=e7 v=85
104601 On ch=1 n=g#6 v=88
104601 On ch=1 n=c#7 v=74
104646 Off ch=1 n=c#7 v=64
104648 Off ch=1 n=e7 v=64
104650 Off ch=1 n=g#6 v=64
104676 On ch=1 n=e6 v=69
104682 On ch=1 n=c#6 v=78
104780 Off ch=1 n=e6 v=64
104786 Off ch=1 n=c#6 v=64
104786 On ch=1 n=d7 v=95
104786 On ch=1 n=f6 v=101
104789 On ch=1 n=b6 v=109
104852 Off ch=1 n=b6 v=64
104862 Par ch=1 c=64 v=0
104864 Off ch=1 n=f6 v=64
104878 Off ch=1 n=d7 v=64
104884 On ch=1 n=b5 v=95
104887 On ch=1 n=g#5 v=78
104964 On ch=1 n=b6 v=101
104969 On ch=1 n=d7 v=63
104976 On ch=1 n=f6 v=78
104978 Off ch=1 n=b5 v=64
104986 Par ch=1 c=64 v=127
104998 Off ch=1 n=g#5 v=64
105032 Off ch=1 n=f6 v=64
105068 On ch=1 n=c#6 v=90
105076 On ch=1 n=a5 v=79
105080 Off ch=1 n=d7 v=64
105082 Off ch=1 n=b6 v=64
105124 Off ch=1 n=a5 v=64
105162 On ch=1 n=f#6 v=85
105166 Off ch=1 n=c#6 v=64
105168 On ch=1 n=a6 v=76
105170 On ch=1 n=c#7 v=77
105208 Off ch=1 n=a6 v=64
105211 Off ch=1 n=f#6 v=64
105214 Off ch=1 n=c#7 v=64
105234 On ch=1 n=c#6 v=74
105252 On ch=1 n=a5 v=73
105302 Off ch=1 n=a5 v=64
105326 Off ch=1 n=c#6 v=64
105343 On ch=1 n=b6 v=114
105343 On ch=1 n=g#6 v=97
105348 On ch=1 n=d6 v=106
105414 Off ch=1 n=d6 v=64
105430 Off ch=1 n=b6 v=64
105448 On ch=1 n=g#5 v=81
105451 Off ch=1 n=g#6 v=64
105454 On ch=1 n=f5 v=71
105510 Off ch=1 n=f5 v=64
105534 On ch=1 n=b6 v=97
105534 On ch=1 n=g#6 v=65
105540 On ch=1 n=d6 v=91
105554 Off ch=1 n=g#5 v=64
105594 Off ch=1 n=d6 v=64
105628 On ch=1 n=a5 v=85
105630 Off ch=1 n=b6 v=64
105642 On ch=1 n=f#5 v=76
105666 Off ch=1 n=g#6 v=64
105688 Off ch=1 n=f#5 v=64
105710 Off ch=1 n=a5 v=64
105730 On ch=1 n=c#6 v=75
105733 On ch=1 n=f#6 v=69
105733 On ch=1 n=a6 v=76
105780 Off ch=1 n=a6 v=64
105786 Off ch=1 n=c#6 v=64
105786 Off ch=1 n=f#6 v=64
105818 On ch=1 n=a5 v=87
105824 On ch=1 n=f#5 v=76
105912 Off ch=1 n=f#5 v=64
105914 On ch=1 n=a6 v=102
105922 On ch=1 n=f#6 v=83
105922 On ch=1 n=c6 v=96
105922 Par ch=1 c=64 v=0
105932 Off ch=1 n=a5 v=64
105990 Off ch=1 n=c6 v=64
105998 Off ch=1 n=a6 v=64
106022 On ch=1 n=f#5 v=86
106025 On ch=1 n=d#5 v=86
106048 Off ch=1 n=f#6 v=64
106076 Par ch=1 c=64 v=127
106094 On ch=1 n=a6 v=71
106094 On ch=1 n=c6 v=84
106102 On ch=1 n=f#6 v=72
106104 Off ch=1 n=d#5 v=64
106134 Off ch=1 n=f#5 v=64
106168 Off ch=1 n=c6 v=64
106182 On ch=1 n=g#5 v=78
106196 Off ch=1 n=f#6 v=64
106198 On ch=1 n=e5 v=83
106200 Off ch=1 n=a6 v=64
106252 Off ch=1 n=e5 v=64
106276 On ch=1 n=c#6 v=81
106276 On ch=1 n=g#6 v=83
106282 Off ch=1 n=g#5 v=64
106282 On ch=1 n=e6 v=71
106324 Off ch=1 n=e6 v=64
106332 Off ch=1 n=g#6 v=64
106338 Off ch=1 n=c#6 v=64
106352 On ch=1 n=g#5 v=76
106362 On ch=1 n=e5 v=78
106408 Off ch=1 n=e5 v=64
106456 On ch=1 n=f#6 v=93
106466 On ch=1 n=d#6 v=84
106466 On ch=1 n=a5 v=84
106468 Off ch=1 n=g#5 v=64
106542 Off ch=1 n=a5 v=64
106545 Off ch=1 n=f#6 v=64
106548 On ch=1 n=c5 v=88
106556 On ch=1 n=d#5 v=86
106574 Off ch=1 n=d#6 v=64
106624 Off ch=1 n=d#5 v=64
106627 Off ch=1 n=c5 v=64
106634 On ch=1 n=f#6 v=62
106637 On ch=1 n=d#6 v=75
106642 On ch=1 n=a5 v=76
106724 Off ch=1 n=a5 v=64
106730 Off ch=1 n=f#6 v=64
106736 On ch=1 n=e5 v=97
106744 On ch=1 n=c#5 v=87
106778 Off ch=1 n=d#6 v=64
106794 Off ch=1 n=c#5 v=64
106804 Off ch=1 n=e5 v=64
106834 On ch=1 n=g#5 v=79
106834 On ch=1 n=e6 v=76
106834 On ch=1 n=c#6 v=67
106880 Off ch=1 n=e6 v=64
106888 Off ch=1 n=c#6 v=64
106904 Off ch=1 n=g#5 v=64
106912 On ch=1 n=e5 v=92
106926 On ch=1 n=c#5 v=88
106976 Off ch=1 n=c#5 v=64
106982 Off ch=1 n=e5 v=64
107024 On ch=1 n=d6 v=97
107032 On ch=1 n=f5 v=91
107035 On ch=1 n=b5 v=90
107084 Off ch=1 n=f5 v=64
107089 Par ch=1 c=64 v=0
107092 Off ch=1 n=b5 v=64
107095 On ch=1 n=g#4 v=83
107106 On ch=1 n=b4 v=84
107134 Off ch=1 n=d6 v=64
107190 On ch=1 n=d6 v=91
107190 On ch=1 n=b5 v=80
107193 On ch=1 n=f5 v=74
107210 Off ch=1 n=g#4 v=64
107213 Off ch=1 n=b4 v=64
107244 Par ch=1 c=64 v=127
107286 Off ch=1 n=f5 v=64
107292 On ch=1 n=c#5 v=96
107294 Off ch=1 n=d6 v=64
107296 On ch=1 n=a4 v=77
107318 Off ch=1 n=b5 v=64
107346 Off ch=1 n=a4 v=64
107378 On ch=1 n=f#5 v=78
107386 Off ch=1 n=c#5 v=64
107390 On ch=1 n=c#6 v=75
107392 On ch=1 n=a5 v=62
107442 Off ch=1 n=a5 v=64
107456 Off ch=1 n=c#6 v=64
107466 On ch=1 n=c#5 v=70
107474 On ch=1 n=a4 v=73
107484 Off ch=1 n=f#5 v=64
107522 Off ch=1 n=a4 v=64
107570 On ch=1 n=b5 v=99
107574 On ch=1 n=d5 v=98
107576 Off ch=1 n=c#5 v=64
107576 On ch=1 n=g#5 v=83
107642 Off ch=1 n=d5 v=64
107660 On ch=1 n=g#4 v=84
107680 Off ch=1 n=b5 v=64
107683 On ch=1 n=f4 v=79
107702 Off ch=1 n=g#5 v=64
107730 Off ch=1 n=g#4 v=64
107730 Off ch=1 n=f4 v=64
107744 On ch=1 n=b5 v=88
107754 On ch=1 n=d5 v=86
107756 On ch=1 n=g#5 v=77
107842 Off ch=1 n=b5 v=64
107842 Off ch=1 n=d5 v=64
107864 On ch=1 n=f#4 v=94
107864 On ch=1 n=a4 v=94
107894 Off ch=1 n=g#5 v=64
107940 Off ch=1 n=f#4 v=64
107942 On ch=1 n=c#5 v=78
107942 On ch=1 n=a5 v=68
107944 On ch=1 n=f#5 v=59
107970 Off ch=1 n=a4 v=64
108022 Off ch=1 n=a5 v=64
108022 Off ch=1 n=f#5 v=64
108028 Off ch=1 n=c#5 v=64
108042 On ch=1 n=a4 v=80
108052 On ch=1 n=f#4 v=90
108100 Off ch=1 n=f#4 v=64
108134 Par ch=1 c=64 v=0
108139 Off ch=1 n=a4 v=64
108139 On ch=1 n=a5 v=89
108143 On ch=1 n=c5 v=97
108148 On ch=1 n=f#5 v=76
108216 On ch=1 n=d#4 v=90
108219 Off ch=1 n=c5 v=64
108219 On ch=1 n=f#4 v=93
108236 Off ch=1 n=f#5 v=64
108252 Off ch=1 n=a5 v=64
108290 Off ch=1 n=f#4 v=64
108290 Par ch=1 c=64 v=127
108302 On ch=1 n=a5 v=85
108306 On ch=1 n=c5 v=78
108314 On ch=1 n=f#5 v=60
108317 Off ch=1 n=d#4 v=64
108382 On ch=1 n=d#4 v=76
108392 On ch=1 n=f#4 v=83
108402 Off ch=1 n=c5 v=64
108410 Off ch=1 n=a5 v=64
108446 Off ch=1 n=f#5 v=64
108482 On ch=1 n=c#5 v=91
108482 On ch=1 n=g#5 v=76
108490 Off ch=1 n=f#4 v=64
108490 On ch=1 n=e5 v=77
108493 Off ch=1 n=d#4 v=64
108536 Off ch=1 n=e5 v=64
108552 On ch=1 n=g#4 v=88
108560 Off ch=1 n=g#5 v=64
108560 On ch=1 n=e4 v=97
108580 Off ch=1 n=c#5 v=64
108604 Off ch=1 n=e4 v=64
108668 Off ch=1 n=g#4 v=64
108672 On ch=1 n=f#5 v=79
108674 On ch=1 n=a4 v=93
108680 On ch=1 n=d#5 v=85
108744 On ch=1 n=c4 v=78
108744 On ch=1 n=d#4 v=85
108758 Off ch=1 n=d#5 v=64
108770 Off ch=1 n=f#5 v=64
108776 Off ch=1 n=a4 v=64
108802 Off ch=1 n=c4 v=64
108836 On ch=1 n=f#5 v=71
108836 On ch=1 n=a4 v=83
108848 On ch=1 n=d#5 v=70
108850 Off ch=1 n=d#4 v=64
108922 On ch=1 n=d#4 v=84
108932 Off ch=1 n=a4 v=64
108940 On ch=1 n=c4 v=72
108962 Off ch=1 n=f#5 v=64
108972 Off ch=1 n=d#5 v=64
108990 Off ch=1 n=c4 v=64
109016 On ch=1 n=g#4 v=88
109026 Off ch=1 n=d#4 v=64
109026 On ch=1 n=e5 v=85
109029 On ch=1 n=c#5 v=72
109084 Off ch=1 n=c#5 v=64
109108 On ch=1 n=e4 v=104
109110 Off ch=1 n=g#4 v=64
109114 On ch=1 n=c#4 v=86
109128 Off ch=1 n=e5 v=64
109182 Off ch=1 n=c#4 v=64
109198 Off ch=1 n=e4 v=64
109210 Par ch=1 c=64 v=0
109212 On ch=1 n=a5 v=87
109212 On ch=1 n=f#5 v=81
109212 On ch=1 n=c5 v=97
109276 Off ch=1 n=c5 v=64
109292 On ch=1 n=f#4 v=100
109294 Off ch=1 n=a5 v=64
109302 On ch=1 n=d#4 v=86
109328 Off ch=1 n=f#5 v=64
109348 Par ch=1 c=64 v=127
109370 On ch=1 n=a5 v=71
109372 On ch=1 n=c5 v=84
109378 Off ch=1 n=f#4 v=64
109388 On ch=1 n=f#5 v=71
109392 Off ch=1 n=d#4 v=64
109452 On ch=1 n=g#4 v=86
109462 On ch=1 n=e4 v=98
109466 Off ch=1 n=c5 v=64
109482 Off ch=1 n=a5 v=64
109510 Off ch=1 n=e4 v=64
109512 Off ch=1 n=f#5 v=64
109538 On ch=1 n=c#5 v=87
109542 Off ch=1 n=g#4 v=64
109544 On ch=1 n=g#5 v=73
109550 On ch=1 n=e5 v=78
109596 Off ch=1 n=e5 v=64
109602 Off ch=1 n=g#5 v=64
109620 On ch=1 n=g#4 v=73
109632 On ch=1 n=e4 v=87
109644 Off ch=1 n=c#5 v=64
109676 Off ch=1 n=e4 v=64
109714 Off ch=1 n=g#4 v=64
109714 On ch=1 n=f#5 v=83
109720 On ch=1 n=a4 v=91
109728 On ch=1 n=d#5 v=84
109806 Off ch=1 n=f#5 v=64
109808 On ch=1 n=d#4 v=90
109810 On ch=1 n=c4 v=83
109820 Off ch=1 n=a4 v=64
109828 Off ch=1 n=d#5 v=64
109894 On ch=1 n=a4 v=67
109898 On ch=1 n=f#5 v=60
109902 Off ch=1 n=d#4 v=64
109904 On ch=1 n=d#5 v=73
109918 Off ch=1 n=c4 v=64
109988 Off ch=1 n=a4 v=64
110006 On ch=1 n=e4 v=100
110014 Off ch=1 n=f#5 v=64
110018 On ch=1 n=c#4 v=67
110020 Off ch=1 n=d#5 v=64
110068 Off ch=1 n=c#4 v=64
110074 On ch=1 n=g#4 v=86
110086 On ch=1 n=e5 v=80
110088 On ch=1 n=c#5 v=67
110094 Off ch=1 n=e4 v=64
110156 Off ch=1 n=c#5 v=64
110184 On ch=1 n=d#4 v=94
110189 Off ch=1 n=g#4 v=64
110194 Off ch=1 n=e5 v=64
110200 On ch=1 n=c4 v=68
110256 Par ch=1 c=64 v=0
110260 On ch=1 n=f#5 v=83
110270 Off ch=1 n=d#4 v=64
110270 On ch=1 n=a4 v=88
110273 Off ch=1 n=c4 v=64
110280 On ch=1 n=d#5 v=79
110350 Off ch=1 n=d#5 v=64
110356 On ch=1 n=d#4 v=76
110356 On ch=1 n=c4 v=64
110362 Off ch=1 n=f#5 v=64
110370 Off ch=1 n=a4 v=64
110410 Par ch=1 c=64 v=127
110428 On ch=1 n=f#5 v=64
110430 On ch=1 n=a4 v=78
110442 Off ch=1 n=c4 v=64
110445 Off ch=1 n=d#4 v=64
110445 On ch=1 n=d#5 v=61
110496 Off ch=1 n=d#5 v=64
110522 On ch=1 n=e4 v=106
110525 On ch=1 n=c#4 v=88
110530 Off ch=1 n=f#5 v=64
110530 Off ch=1 n=a4 v=64
110598 Off ch=1 n=e4 v=64
110604 On ch=1 n=e5 v=82
110606 On ch=1 n=g#4 v=78
110606 On ch=1 n=c#5 v=72
110624 Off ch=1 n=c#4 v=64
110704 Off ch=1 n=g#4 v=64
110712 Off ch=1 n=e5 v=64
110714 Off ch=1 n=c#5 v=64
110714 On ch=1 n=d#4 v=92
110718 On ch=1 n=c4 v=81
110786 On ch=1 n=f#5 v=80
110794 On ch=1 n=a4 v=89
110800 On ch=1 n=d#5 v=84
110812 Off ch=1 n=d#4 v=64
110820 Off ch=1 n=c4 v=64
110854 Par ch=1 c=64 v=0
110878 Off ch=1 n=f#5 v=64
110880 On ch=1 n=d#4 v=84
110880 On ch=1 n=c4 v=84
110900 Off ch=1 n=a4 v=64
110900 Off ch=1 n=d#5 v=64
110946 Par ch=1 c=64 v=127
110948 On ch=1 n=f#5 v=65
110951 On ch=1 n=a4 v=89
110964 On ch=1 n=d#5 v=84
110974 Off ch=1 n=c4 v=64
110978 Off ch=1 n=d#4 v=64
111042 On ch=1 n=e4 v=105
111052 On ch=1 n=c#4 v=82
111054 Off ch=1 n=a4 v=64
111056 Off ch=1 n=f#5 v=64
111068 Off ch=1 n=d#5 v=64
111118 Off ch=1 n=e4 v=64
111118 On ch=1 n=g#4 v=86
111128 On ch=1 n=e5 v=83
111128 On ch=1 n=c#5 v=75
111136 Off ch=1 n=c#4 v=64
111216 Off ch=1 n=g#4 v=64
111226 Off ch=1 n=e5 v=64
111226 On ch=1 n=d#4 v=95
111229 On ch=1 n=c4 v=90
111240 Off ch=1 n=c#5 v=64
111302 On ch=1 n=f#5 v=83
111302 Par ch=1 c=64 v=0
111305 On ch=1 n=a4 v=94
111308 On ch=1 n=d#5 v=88
111324 Off ch=1 n=c4 v=64
111330 Off ch=1 n=d#4 v=64
111386 On ch=1 n=c4 v=77
111386 On ch=1 n=d#4 v=90
111396 Off ch=1 n=a4 v=64
111398 Off ch=1 n=f#5 v=64
111404 Off ch=1 n=d#5 v=64
111438 Par ch=1 c=64 v=127
111464 On ch=1 n=a4 v=73
111466 On ch=1 n=f#5 v=68
111474 On ch=1 n=d#5 v=74
111480 Off ch=1 n=c4 v=64
111502 Off ch=1 n=d#4 v=64
111556 Off ch=1 n=a4 v=64
111564 On ch=1 n=e4 v=102
111572 Off ch=1 n=f#5 v=64
111572 On ch=1 n=c#4 v=84
111588 Off ch=1 n=d#5 v=64
111636 On ch=1 n=g#4 v=86
111636 On ch=1 n=c#5 v=79
111639 On ch=1 n=e5 v=87
111663 Off ch=1 n=c#4 v=64
111672 Off ch=1 n=e4 v=64
111746 Off ch=1 n=g#4 v=64
111750 Off ch=1 n=c#5 v=64
111750 Off ch=1 n=e5 v=64
111750 On ch=1 n=d#4 v=94
111754 On ch=1 n=c4 v=84
111836 Off ch=1 n=d#4 v=64
111866 Off ch=1 n=c4 v=64
111950 On ch=1 n=a5 v=98
111950 On ch=1 n=a4 v=105
111962 On ch=1 n=a2 v=105
111966 On ch=1 n=a3 v=94
111974 Par ch=1 c=64 v=0
112454 Off ch=1 n=a4 v=64
112466 Par ch=1 c=64 v=127
112472 Off ch=1 n=a2 v=64
112508 Off ch=1 n=a3 v=64
112556 Off ch=1 n=a5 v=64
112984 On ch=1 n=f#6 v=104
112988 On ch=1 n=f#5 v=99
112990 On ch=1 n=c#6 v=96
112992 On ch=1 n=c#5 v=106
113000 On ch=1 n=f#4 v=94
113002 On ch=1 n=c#4 v=84
113032 Off ch=1 n=c#5 v=64
113040 Off ch=1 n=f#4 v=64
113044 Off ch=1 n=c#4 v=64
113170 Off ch=1 n=f#5 v=64
113228 Off ch=1 n=f#6 v=64
113246 Off ch=1 n=c#6 v=64
113916 On ch=1 n=g#3 v=113
113919 On ch=1 n=g#4 v=103
113919 On ch=1 n=g#5 v=97
113922 On ch=1 n=g#2 v=106
114002 Par ch=1 c=64 v=0
114370 Par ch=1 c=64 v=127
114406 Off ch=1 n=g#4 v=64
114458 Off ch=1 n=g#2 v=64
114522 Off ch=1 n=g#3 v=64
114594 Off ch=1 n=g#5 v=64
115008 On ch=1 n=g#6 v=103
115010 On ch=1 n=f#5 v=91
115010 On ch=1 n=g#5 v=102
115018 On ch=1 n=c6 v=98
115022 On ch=1 n=f#4 v=85
115032 On ch=1 n=c5 v=73
115032 On ch=1 n=d#5 v=78
115066 Off ch=1 n=f#4 v=64
115088 Off ch=1 n=c5 v=64
115091 Off ch=1 n=f#5 v=64
115130 Off ch=1 n=g#5 v=64
115130 Off ch=1 n=d#5 v=64
115142 Off ch=1 n=c6 v=64
115188 Off ch=1 n=g#6 v=64
116490 On ch=1 n=c#5 v=103
116492 On ch=1 n=g#4 v=90
116492 On ch=1 n=c#4 v=105
116494 On ch=1 n=c#3 v=106
116496 On ch=1 n=e4 v=108
116496 On ch=1 n=c#2 v=102
116504 On ch=1 n=g#2 v=86
116506 On ch=1 n=e2 v=87
116522 Par ch=1 c=64 v=0
116654 Off ch=1 n=c#4 v=64
116674 Off ch=1 n=c#2 v=64
116698 Off ch=1 n=e2 v=64
116706 Par ch=1 c=64 v=127
116716 Off ch=1 n=e4 v=64
116734 Off ch=1 n=g#2 v=64
116750 Off ch=1 n=c#3 v=64
116768 Off ch=1 n=g#4 v=64
116792 Off ch=1 n=c#5 v=64
117140 On ch=1 n=c#7 v=97
117145 On ch=1 n=c#6 v=95
117145 On ch=1 n=e5 v=106
117145 On ch=1 n=g#6 v=88
117148 On ch=1 n=e6 v=90
117150 On ch=1 n=e4 v=96
117152 On ch=1 n=c#5 v=88
117156 On ch=1 n=g#4 v=75
117224 Off ch=1 n=e4 v=64
117226 Off ch=1 n=e5 v=64
117264 Off ch=1 n=c#5 v=64
117272 Off ch=1 n=g#4 v=64
117296 Off ch=1 n=c#6 v=64
117310 Off ch=1 n=e6 v=64
117356 Off ch=1 n=g#6 v=64
117386 Off ch=1 n=c#7 v=64
117788 On ch=1 n=e7 v=103
117790 On ch=1 n=g#6 v=84
117792 On ch=1 n=g#5 v=90
117792 On ch=1 n=e6 v=100
117796 On ch=1 n=b6 v=106
117798 On ch=1 n=g#4 v=81
117806 On ch=1 n=e5 v=88
117812 On ch=1 n=b4 v=73
117994 Off ch=1 n=e7 v=64
118040 Off ch=1 n=e5 v=64
118056 Off ch=1 n=b6 v=64
118098 Off ch=1 n=e6 v=64
118114 Off ch=1 n=g#6 v=64
118122 Off ch=1 n=b4 v=64
118140 Off ch=1 n=g#5 v=64
118168 Off ch=1 n=g#4 v=64
118360 On ch=1 n=d#6 v=103
118362 On ch=1 n=d#7 v=91
118362 On ch=1 n=g5 v=103
118365 On ch=1 n=g6 v=104
118365 On ch=1 n=a#6 v=88
118370 On ch=1 n=g4 v=89
118374 On ch=1 n=d#5 v=87
118374 On ch=1 n=a#4 v=70
118450 Off ch=1 n=g5 v=64
118456 Off ch=1 n=d#7 v=64
118480 Off ch=1 n=g4 v=64
118502 Off ch=1 n=a#6 v=64
118504 Off ch=1 n=g6 v=64
118504 Off ch=1 n=d#5 v=64
118524 Off ch=1 n=d#6 v=64
118540 Off ch=1 n=a#4 v=64
119054 On ch=1 n=a5 v=106
119056 On ch=1 n=a4 v=111
119070 On ch=1 n=a3 v=109
119072 On ch=1 n=a2 v=112
119088 Par ch=1 c=64 v=0
119266 Off ch=1 n=a2 v=64
119272 Off ch=1 n=a4 v=64
119272 Par ch=1 c=64 v=127
119318 Off ch=1 n=a3 v=64
119358 Off ch=1 n=a5 v=64
119620 On ch=1 n=f#6 v=98
119620 On ch=1 n=d7 v=103
119620 On ch=1 n=d6 v=111
119623 On ch=1 n=c7 v=101
119626 On ch=1 n=f#5 v=94
119636 On ch=1 n=c5 v=89
119636 On ch=1 n=f#4 v=89
119644 On ch=1 n=d5 v=83
119702 Off ch=1 n=d5 v=64
119712 Off ch=1 n=f#5 v=64
119740 Off ch=1 n=f#4 v=64
119754 Off ch=1 n=d6 v=64
119756 Off ch=1 n=c5 v=64
119764 Off ch=1 n=d7 v=64
119772 Off ch=1 n=c7 v=64
119804 Off ch=1 n=f#6 v=64
120228 On ch=1 n=g#5 v=100
120230 On ch=1 n=g#4 v=104
120230 On ch=1 n=g#3 v=116
120236 On ch=1 n=g#2 v=104
120256 Par ch=1 c=64 v=0
120476 Off ch=1 n=g#4 v=64
120500 Par ch=1 c=64 v=127
120504 Off ch=1 n=g#2 v=64
120538 Off ch=1 n=g#3 v=64
120576 Off ch=1 n=g#5 v=64
120876 On ch=1 n=f#6 v=91
120876 On ch=1 n=c6 v=105
120876 On ch=1 n=c7 v=108
120879 On ch=1 n=d#6 v=95
120882 On ch=1 n=d#5 v=101
120890 On ch=1 n=c5 v=87
120893 On ch=1 n=f#4 v=88
120896 On ch=1 n=d#4 v=74
120966 Off ch=1 n=d#5 v=64
120994 Off ch=1 n=d#4 v=64
120997 Off ch=1 n=c7 v=64
121016 Off ch=1 n=c6 v=64
121020 Off ch=1 n=c5 v=64
121056 Off ch=1 n=f#6 v=64
121056 Off ch=1 n=d#6 v=64
121056 Off ch=1 n=f#4 v=64
121648 On ch=1 n=c#3 v=109
121653 On ch=1 n=c#5 v=102
121656 On ch=1 n=c#4 v=103
121656 On ch=1 n=c#2 v=100
121659 On ch=1 n=g#4 v=86
121659 On ch=1 n=e2 v=80
121659 On ch=1 n=e4 v=106
121664 On ch=1 n=g#2 v=69
121684 Par ch=1 c=64 v=0
121848 Off ch=1 n=c#4 v=64
121864 Off ch=1 n=c#2 v=64
121888 Off ch=1 n=e4 v=64
121900 Off ch=1 n=e2 v=64
121900 Par ch=1 c=64 v=127
121918 Off ch=1 n=g#2 v=64
121934 Off ch=1 n=c#3 v=64
121934 Off ch=1 n=g#4 v=64
121978 Off ch=1 n=c#5 v=64
122374 On ch=1 n=c#7 v=103
122374 On ch=1 n=e5 v=104
122377 On ch=1 n=c#6 v=100
122377 On ch=1 n=g#6 v=89
122381 On ch=1 n=e6 v=94
122381 On ch=1 n=c#5 v=90
122384 On ch=1 n=e4 v=98
122386 On ch=1 n=g#4 v=78
122558 Off ch=1 n=e4 v=64
122620 Off ch=1 n=c#6 v=64
122620 Off ch=1 n=e6 v=64
122638 Off ch=1 n=g#4 v=64
122644 Off ch=1 n=g#6 v=64
122650 Off ch=1 n=e5 v=64
122656 Off ch=1 n=c#5 v=64
122674 Off ch=1 n=c#7 v=64
122940 On ch=1 n=g#5 v=97
122942 On ch=1 n=e7 v=105
122942 On ch=1 n=g#6 v=97
122944 On ch=1 n=e6 v=98
122944 On ch=1 n=b6 v=114
122948 On ch=1 n=g#4 v=78
122956 On ch=1 n=e5 v=92
122964 On ch=1 n=b4 v=82
123230 Off ch=1 n=e7 v=64
123268 Off ch=1 n=b6 v=64
123268 Off ch=1 n=b4 v=64
123274 Off ch=1 n=e5 v=64
123294 Off ch=1 n=g#6 v=64
123310 Off ch=1 n=e6 v=64
123346 Off ch=1 n=g#5 v=64
123446 Off ch=1 n=g#4 v=64
123502 On ch=1 n=d#6 v=103
123504 On ch=1 n=d#7 v=95
123506 On ch=1 n=a#6 v=88
123506 On ch=1 n=g5 v=101
123508 On ch=1 n=g6 v=100
123510 On ch=1 n=g4 v=93
123510 On ch=1 n=d#5 v=94
123518 On ch=1 n=a#4 v=74
123592 Off ch=1 n=d#7 v=64
123608 Off ch=1 n=g5 v=64
123642 Off ch=1 n=g6 v=64
123664 Off ch=1 n=a#6 v=64
123668 Off ch=1 n=g4 v=64
123676 Off ch=1 n=d#5 v=64
123690 Off ch=1 n=d#6 v=64
123744 Off ch=1 n=a#4 v=64
124066 On ch=1 n=a4 v=108
124068 On ch=1 n=a5 v=101
124076 On ch=1 n=a3 v=108
124076 On ch=1 n=a2 v=108
124082 Par ch=1 c=64 v=0
124244 Off ch=1 n=a4 v=64
124246 Off ch=1 n=a2 v=64
124294 Off ch=1 n=a3 v=64
124296 Par ch=1 c=64 v=127
124330 Off ch=1 n=a5 v=64
124590 On ch=1 n=d7 v=103
124590 On ch=1 n=f#6 v=96
124594 On ch=1 n=d6 v=110
124596 On ch=1 n=c7 v=100
124602 On ch=1 n=f#5 v=97
124608 On ch=1 n=f#4 v=93
124614 On ch=1 n=c5 v=84
124622 On ch=1 n=d5 v=74
124672 Off ch=1 n=d5 v=64
124692 Off ch=1 n=f#5 v=64
124708 Off ch=1 n=f#4 v=64
124720 Off ch=1 n=c5 v=64
124732 Off ch=1 n=d6 v=64
124736 Off ch=1 n=d7 v=64
124752 Off ch=1 n=c7 v=64
124780 Off ch=1 n=f#6 v=64
125178 On ch=1 n=g#5 v=97
125178 On ch=1 n=g#4 v=102
125184 On ch=1 n=g#3 v=115
125192 On ch=1 n=g#2 v=105
125218 Par ch=1 c=64 v=0
125390 Off ch=1 n=g#4 v=64
125402 Off ch=1 n=g#2 v=64
125418 Par ch=1 c=64 v=127
125446 Off ch=1 n=g#3 v=64
125494 Off ch=1 n=g#5 v=64
125782 On ch=1 n=f#6 v=96
125786 On ch=1 n=c7 v=107
125788 On ch=1 n=d#6 v=94
125790 On ch=1 n=c6 v=100
125790 On ch=1 n=d#5 v=102
125798 On ch=1 n=c5 v=83
125802 On ch=1 n=f#4 v=85
125804 On ch=1 n=d#4 v=78
125872 Off ch=1 n=d#5 v=64
125878 Off ch=1 n=d#4 v=64
125894 Off ch=1 n=c7 v=64
125904 Off ch=1 n=c6 v=64
125918 Off ch=1 n=c5 v=64
125922 Off ch=1 n=f#4 v=64
125932 Off ch=1 n=f#6 v=64
125948 Off ch=1 n=d#6 v=64
126502 On ch=1 n=c#5 v=100
126507 On ch=1 n=c#4 v=106
126507 On ch=1 n=c#3 v=108
126507 On ch=1 n=g#4 v=85
126510 On ch=1 n=e4 v=106
126512 On ch=1 n=c#2 v=101
126520 On ch=1 n=g#2 v=84
126522 On ch=1 n=e2 v=88
126524 Par ch=1 c=64 v=0
126664 Off ch=1 n=c#4 v=64
126664 Off ch=1 n=c#2 v=64
126692 Off ch=1 n=e2 v=64
126700 Off ch=1 n=e4 v=64
126710 Par ch=1 c=64 v=127
126718 Off ch=1 n=g#2 v=64
126722 Off ch=1 n=c#3 v=64
126736 Off ch=1 n=g#4 v=64
126778 Off ch=1 n=c#5 v=64
127146 On ch=1 n=e5 v=108
127146 On ch=1 n=c#7 v=102
127146 On ch=1 n=c#6 v=103
127152 On ch=1 n=e4 v=100
127152 On ch=1 n=c#5 v=93
127154 On ch=1 n=e6 v=94
127154 On ch=1 n=g#6 v=91
127164 On ch=1 n=g#4 v=73
127234 Off ch=1 n=e5 v=64
127250 Off ch=1 n=e4 v=64
127262 Off ch=1 n=c#5 v=64
127274 Off ch=1 n=g#4 v=64
127280 Off ch=1 n=c#6 v=64
127296 Off ch=1 n=e6 v=64
127356 Off ch=1 n=g#6 v=64
127390 Off ch=1 n=c#7 v=64
127830 On ch=1 n=g#7 v=100
127834 On ch=1 n=g#6 v=106
127834 On ch=1 n=b5 v=112
127834 On ch=1 n=c#7 v=97
127840 On ch=1 n=c#5 v=90
127842 On ch=1 n=b4 v=93
128256 Off ch=1 n=g#7 v=64
128261 Off ch=1 n=c#7 v=64
128318 Off ch=1 n=g#6 v=64
128318 Off ch=1 n=b5 v=64
128342 Off ch=1 n=b4 v=64
128350 Off ch=1 n=c#5 v=64
128432 On ch=1 n=f#6 v=106
128432 On ch=1 n=f#7 v=99
128435 On ch=1 n=a5 v=97
128435 On ch=1 n=c#7 v=96
128440 On ch=1 n=c#5 v=78
128452 On ch=1 n=a4 v=80
128536 Off ch=1 n=a5 v=64
128542 Off ch=1 n=f#7 v=64
128544 Off ch=1 n=f#6 v=64
128570 Off ch=1 n=c#7 v=64
128610 Off ch=1 n=a4 v=64
128618 Off ch=1 n=c#5 v=64
128998 Par ch=1 c=64 v=0
129000 On ch=1 n=c5 v=114
129000 On ch=1 n=c6 v=110
129010 On ch=1 n=c4 v=110
129010 On ch=1 n=c3 v=109
129146 Off ch=1 n=c3 v=64
129170 Off ch=1 n=c5 v=64
129182 Par ch=1 c=64 v=127
129196 Off ch=1 n=c4 v=64
129224 Off ch=1 n=c6 v=64
129582 On ch=1 n=e7 v=108
129584 On ch=1 n=a6 v=94
129587 On ch=1 n=e6 v=103
129587 On ch=1 n=f#5 v=92
129587 On ch=1 n=f#6 v=94
129594 On ch=1 n=a4 v=76
129602 On ch=1 n=e5 v=88
129612 On ch=1 n=f#4 v=79
129650 Off ch=1 n=f#4 v=64
129686 Off ch=1 n=f#5 v=64
129690 Off ch=1 n=e7 v=64
129690 Off ch=1 n=e5 v=64
129694 Off ch=1 n=a4 v=64
129698 Off ch=1 n=e6 v=64
129738 Off ch=1 n=a6 v=64
129762 Off ch=1 n=f#6 v=64
130162 On ch=1 n=b5 v=111
130162 On ch=1 n=b4 v=113
130170 On ch=1 n=b3 v=109
130172 On ch=1 n=b2 v=113
130182 Par ch=1 c=64 v=0
130378 Off ch=1 n=b4 v=64
130378 Off ch=1 n=b2 v=64
130381 Par ch=1 c=64 v=127
130436 Off ch=1 n=b3 v=64
130456 Off ch=1 n=b5 v=64
130758 On ch=1 n=d#7 v=97
130760 On ch=1 n=f#5 v=95
130760 On ch=1 n=d#6 v=99
130764 On ch=1 n=f#6 v=92
130768 On ch=1 n=a6 v=94
130768 On ch=1 n=f#4 v=90
130774 On ch=1 n=a4 v=74
130774 On ch=1 n=d#5 v=84
130838 Off ch=1 n=d#5 v=64
130844 Off ch=1 n=f#5 v=64
130854 Off ch=1 n=f#4 v=64
130858 Off ch=1 n=a4 v=64
130884 Off ch=1 n=d#7 v=64
130910 Off ch=1 n=a6 v=64
130944 Off ch=1 n=d#6 v=64
130944 Off ch=1 n=f#6 v=64
131468 On ch=1 n=b2 v=115
131470 On ch=1 n=e2 v=110
131470 On ch=1 n=e3 v=119
131470 On ch=1 n=g#2 v=95
131470 On ch=1 n=g#4 v=90
131472 On ch=1 n=e5 v=108
131472 On ch=1 n=e4 v=115
131474 On ch=1 n=b4 v=98
131522 On ch=1 n=c#5 v=38
131534 Par ch=1 c=64 v=0
131594 Off ch=1 n=c#5 v=64
131682 Off ch=1 n=e4 v=64
131685 Off ch=1 n=b2 v=64
131685 Off ch=1 n=e2 v=64
131718 Par ch=1 c=64 v=127
131728 Off ch=1 n=g#2 v=64
131742 Off ch=1 n=e3 v=64
131742 Off ch=1 n=g#4 v=64
131748 Off ch=1 n=b4 v=64
131800 Off ch=1 n=e5 v=64
132202 On ch=1 n=e7 v=107
132204 On ch=1 n=g#6 v=96
132207 On ch=1 n=e6 v=104
132207 On ch=1 n=b6 v=117
132207 On ch=1 n=g#5 v=100
132220 On ch=1 n=g#4 v=79
132224 On ch=1 n=b4 v=81
132226 On ch=1 n=e5 v=91
132346 Off ch=1 n=g#4 v=64
132354 Off ch=1 n=e6 v=64
132480 Off ch=1 n=g#6 v=64
132480 Off ch=1 n=b6 v=64
132480 Off ch=1 n=b4 v=64
132486 Off ch=1 n=e5 v=64
132554 Off ch=1 n=e7 v=64
132576 Off ch=1 n=g#5 v=64
132880 On ch=1 n=b7 v=109
132880 On ch=1 n=b6 v=123
132883 On ch=1 n=d#6 v=102
132883 On ch=1 n=e7 v=101
132896 On ch=1 n=d#5 v=81
132898 On ch=1 n=e5 v=91
133150 Off ch=1 n=e5 v=64
133194 Off ch=1 n=e7 v=64
133224 Off ch=1 n=b7 v=64
133236 Off ch=1 n=d#5 v=64
133248 Off ch=1 n=d#6 v=64
133286 Off ch=1 n=b6 v=64
133452 On ch=1 n=a7 v=105
133454 On ch=1 n=a6 v=108
133454 On ch=1 n=c#6 v=98
133456 On ch=1 n=e7 v=101
133462 On ch=1 n=c#5 v=88
133474 On ch=1 n=e5 v=87
133524 Off ch=1 n=a7 v=64
133562 Off ch=1 n=e7 v=64
133566 Off ch=1 n=c#6 v=64
133574 Off ch=1 n=a6 v=64
133590 Off ch=1 n=c#5 v=64
133596 Off ch=1 n=e5 v=64
134034 On ch=1 n=e6 v=108
134036 On ch=1 n=e5 v=113
134038 Par ch=1 c=64 v=0
134042 On ch=1 n=e4 v=117
134042 On ch=1 n=e3 v=115
134192 Off ch=1 n=e5 v=64
134192 Off ch=1 n=e3 v=64
134208 Par ch=1 c=64 v=127
134242 Off ch=1 n=e4 v=64
134292 Off ch=1 n=e6 v=64
134720 On ch=1 n=g#6 v=102
134722 On ch=1 n=g#7 v=103
134724 On ch=1 n=a#5 v=90
134728 On ch=1 n=c#7 v=89
134732 On ch=1 n=g#5 v=71
134740 On ch=1 n=c#5 v=67
134742 On ch=1 n=a#4 v=50
134876 Off ch=1 n=a#5 v=64
134920 Off ch=1 n=g#7 v=64
134934 Off ch=1 n=c#7 v=64
134958 Off ch=1 n=g#6 v=64
134970 Off ch=1 n=g#5 v=64
135090 Off ch=1 n=c#5 v=64
135134 Off ch=1 n=a#4 v=64
135336 On ch=1 n=d#6 v=103
135338 On ch=1 n=d#5 v=109
135340 On ch=1 n=d#4 v=110
135350 On ch=1 n=d#3 v=101
135374 Par ch=1 c=64 v=0
135544 Par ch=1 c=64 v=127
135572 Off ch=1 n=d#5 v=64
135574 Off ch=1 n=d#3 v=64
135598 Off ch=1 n=d#4 v=64
135660 Off ch=1 n=d#6 v=64
135994 On ch=1 n=g7 v=105
135998 On ch=1 n=a#6 v=91
135998 On ch=1 n=g6 v=107
135998 On ch=1 n=c#7 v=91
135998 On ch=1 n=a#5 v=90
136012 On ch=1 n=g5 v=83
136012 On ch=1 n=c#5 v=74
136026 On ch=1 n=a#4 v=37
136076 Off ch=1 n=g5 v=64
136082 Off ch=1 n=a#4 v=64
136102 Off ch=1 n=g7 v=64
136112 Off ch=1 n=a#5 v=64
136132 Off ch=1 n=g6 v=64
136134 Off ch=1 n=c#5 v=64
136158 Off ch=1 n=c#7 v=64
136168 Off ch=1 n=a#6 v=64
136794 On ch=1 n=g#4 v=100
136796 On ch=1 n=g#5 v=95
136799 On ch=1 n=d#5 v=93
136799 On ch=1 n=b4 v=101
136799 On ch=1 n=g#2 v=92
136803 On ch=1 n=g#3 v=105
136816 On ch=1 n=d#3 v=86
136818 Par ch=1 c=64 v=0
136820 On ch=1 n=b2 v=91
137050 Par ch=1 c=64 v=127
137080 Off ch=1 n=g#4 v=64
137100 Off ch=1 n=g#2 v=64
137114 Off ch=1 n=b4 v=64
137124 Off ch=1 n=b2 v=64
137144 Off ch=1 n=d#3 v=64
137160 Off ch=1 n=d#5 v=64
137160 Off ch=1 n=g#3 v=64
137194 Off ch=1 n=g#5 v=64
137664 On ch=1 n=g#7 v=100
137670 On ch=1 n=b6 v=112
137670 On ch=1 n=g#6 v=98
137670 On ch=1 n=d#7 v=82
137678 On ch=1 n=g#5 v=95
137680 On ch=1 n=b5 v=106
137688 On ch=1 n=d#5 v=83
137696 On ch=1 n=b4 v=72
137856 Off ch=1 n=b5 v=64
137876 Off ch=1 n=d#5 v=64
137892 Off ch=1 n=b4 v=64
137946 Off ch=1 n=g#5 v=64
137960 Off ch=1 n=b6 v=64
137966 Off ch=1 n=g#6 v=64
138014 Off ch=1 n=d#7 v=64
138050 Off ch=1 n=g#7 v=64
138280 On ch=1 n=a7 v=100
138282 On ch=1 n=a6 v=105
138284 On ch=1 n=c#7 v=88
138284 On ch=1 n=e7 v=94
138288 On ch=1 n=c#6 v=99
138298 On ch=1 n=c#5 v=78
138300 On ch=1 n=a5 v=76
138308 On ch=1 n=e5 v=84
138492 Off ch=1 n=a7 v=64
138500 Off ch=1 n=a5 v=64
138516 Off ch=1 n=e7 v=64
138516 Off ch=1 n=c#6 v=64
138520 Off ch=1 n=e5 v=64
138534 Off ch=1 n=c#5 v=64
138546 Off ch=1 n=c#7 v=64
138576 Off ch=1 n=a6 v=64
138810 On ch=1 n=f#7 v=97
138810 On ch=1 n=a5 v=95
138814 On ch=1 n=f#6 v=102
138818 On ch=1 n=a6 v=93
138818 On ch=1 n=f#5 v=79
138818 On ch=1 n=c#7 v=86
138821 On ch=1 n=c#5 v=79
138824 On ch=1 n=a4 v=80
138976 Off ch=1 n=c#5 v=64
138984 Off ch=1 n=a4 v=64
139000 Off ch=1 n=a6 v=64
139016 Off ch=1 n=f#6 v=64
139024 Off ch=1 n=f#5 v=64
139054 Off ch=1 n=c#7 v=64
139057 Off ch=1 n=a5 v=64
139074 Off ch=1 n=f#7 v=64
139306 On ch=1 n=g#7 v=100
139308 On ch=1 n=g#6 v=97
139308 On ch=1 n=b5 v=106
139311 On ch=1 n=b6 v=111
139314 On ch=1 n=d#7 v=83
139316 On ch=1 n=g#5 v=83
139322 On ch=1 n=b4 v=84
139330 On ch=1 n=d#5 v=77
139490 Off ch=1 n=b4 v=64
139504 Off ch=1 n=g#7 v=64
139514 Off ch=1 n=b5 v=64
139526 Off ch=1 n=b6 v=64
139534 Off ch=1 n=g#5 v=64
139544 Off ch=1 n=d#5 v=64
139552 Off ch=1 n=d#7 v=64
139580 Off ch=1 n=g#6 v=64
139842 On ch=1 n=g#5 v=91
139844 On ch=1 n=e7 v=101
139846 On ch=1 n=g#6 v=89
139848 On ch=1 n=e6 v=101
139852 On ch=1 n=b6 v=104
139854 On ch=1 n=g#4 v=72
139862 On ch=1 n=e5 v=85
139862 On ch=1 n=b4 v=71
140058 Off ch=1 n=e5 v=64
140080 Off ch=1 n=b6 v=64
140088 Off ch=1 n=e6 v=64
140092 Off ch=1 n=g#4 v=64
140094 Off ch=1 n=e7 v=64
140100 Off ch=1 n=g#6 v=64
140108 Off ch=1 n=b4 v=64
140130 Off ch=1 n=g#5 v=64
140320 On ch=1 n=a5 v=87
140324 On ch=1 n=f#7 v=93
140324 On ch=1 n=f#6 v=96
140326 On ch=1 n=a6 v=89
140326 On ch=1 n=f#5 v=77
140328 On ch=1 n=a4 v=81
140330 On ch=1 n=c#7 v=83
140340 On ch=1 n=c#5 v=73
140474 Off ch=1 n=a4 v=64
140484 Off ch=1 n=a5 v=64
140490 Off ch=1 n=f#7 v=64
140510 Off ch=1 n=f#5 v=64
140513 Off ch=1 n=c#5 v=64
140522 Off ch=1 n=a6 v=64
140532 Off ch=1 n=c#7 v=64
140572 Off ch=1 n=f#6 v=64
140796 On ch=1 n=d#7 v=90
140796 On ch=1 n=f#6 v=86
140798 On ch=1 n=a6 v=88
140800 On ch=1 n=f#5 v=89
140800 On ch=1 n=d#6 v=95
140812 On ch=1 n=a4 v=74
140812 On ch=1 n=d#5 v=83
140815 On ch=1 n=f#4 v=83
140954 Off ch=1 n=a4 v=64
140957 Off ch=1 n=f#4 v=64
140982 Off ch=1 n=d#6 v=64
140994 Off ch=1 n=d#5 v=64
140998 Off ch=1 n=a6 v=64
141016 Off ch=1 n=f#6 v=64
141036 Off ch=1 n=f#5 v=64
141076 Off ch=1 n=d#7 v=64
141240 On ch=1 n=g#5 v=84
141244 On ch=1 n=g#6 v=83
141246 On ch=1 n=e7 v=99
141246 On ch=1 n=e6 v=98
141246 On ch=1 n=b6 v=111
141252 On ch=1 n=g#4 v=62
141258 On ch=1 n=e5 v=80
141264 On ch=1 n=b4 v=68
141382 Par ch=1 c=64 v=0
141490 Off ch=1 n=e5 v=64
141493 Off ch=1 n=b4 v=64
141514 Off ch=1 n=b6 v=64
141528 Off ch=1 n=g#6 v=64
141530 Off ch=1 n=e7 v=64
141550 Off ch=1 n=g#4 v=64
141552 Off ch=1 n=g#5 v=64
141566 Par ch=1 c=64 v=127
141574 Off ch=1 n=e6 v=64
141686 On ch=1 n=g#5 v=94
141689 On ch=1 n=b6 v=111
141689 On ch=1 n=e7 v=103
141689 On ch=1 n=g#6 v=85
141692 On ch=1 n=g#4 v=75
141692 On ch=1 n=e6 v=100
141700 On ch=1 n=e5 v=83
141704 On ch=1 n=b4 v=72
141882 Off ch=1 n=e5 v=64
141890 Off ch=1 n=g#4 v=64
141896 Off ch=1 n=e6 v=64
141908 Off ch=1 n=b4 v=64
141922 Off ch=1 n=b6 v=64
141930 Off ch=1 n=g#5 v=64
141936 Off ch=1 n=e7 v=64
141958 Off ch=1 n=g#6 v=64
142210 On ch=1 n=f#7 v=97
142210 On ch=1 n=a5 v=88
142213 On ch=1 n=f#6 v=97
142213 On ch=1 n=c#7 v=85
142216 On ch=1 n=a6 v=87
142219 On ch=1 n=f#5 v=74
142219 On ch=1 n=a4 v=74
142226 On ch=1 n=c#5 v=75
142274 Par ch=1 c=64 v=0
142396 Par ch=1 c=64 v=127
142418 Off ch=1 n=a4 v=64
142424 Off ch=1 n=a5 v=64
142444 Off ch=1 n=f#5 v=64
142446 Off ch=1 n=f#7 v=64
142454 Off ch=1 n=a6 v=64
142454 Off ch=1 n=c#5 v=64
142462 Off ch=1 n=c#7 v=64
142514 Off ch=1 n=f#6 v=64
142684 On ch=1 n=d#7 v=91
142684 On ch=1 n=f#5 v=84
142684 On ch=1 n=d#6 v=91
142690 On ch=1 n=a6 v=88
142690 On ch=1 n=f#6 v=80
142700 On ch=1 n=a4 v=66
142700 On ch=1 n=d#5 v=78
142704 On ch=1 n=f#4 v=77
142826 Off ch=1 n=a4 v=64
142832 Off ch=1 n=f#4 v=64
142850 Off ch=1 n=d#5 v=64
142856 Off ch=1 n=a6 v=64
142874 Off ch=1 n=f#6 v=64
142880 Off ch=1 n=d#6 v=64
142910 Off ch=1 n=f#5 v=64
142956 Off ch=1 n=d#7 v=64
143144 On ch=1 n=g#5 v=90
143144 On ch=1 n=e7 v=101
143146 On ch=1 n=b6 v=110
143146 On ch=1 n=e6 v=103
143148 On ch=1 n=g#6 v=86
143160 On ch=1 n=e5 v=78
143160 On ch=1 n=b4 v=71
143166 On ch=1 n=g#4 v=67
143196 Par ch=1 c=64 v=0
143288 Par ch=1 c=64 v=127
143298 Off ch=1 n=e5 v=64
143312 Off ch=1 n=e7 v=64
143314 Off ch=1 n=g#5 v=64
143320 Off ch=1 n=b4 v=64
143330 Off ch=1 n=b6 v=64
143344 Off ch=1 n=g#4 v=64
143350 Off ch=1 n=g#6 v=64
143364 Off ch=1 n=e6 v=64
143566 On ch=1 n=c#7 v=96
143568 On ch=1 n=c#6 v=94
143572 On ch=1 n=g#6 v=84
143574 On ch=1 n=e6 v=84
143576 On ch=1 n=e5 v=95
143576 On ch=1 n=c#5 v=83
143582 On ch=1 n=e4 v=93
143584 On ch=1 n=g#4 v=62
143698 Off ch=1 n=e4 v=64
143728 Off ch=1 n=g#4 v=64
143732 Off ch=1 n=c#5 v=64
143748 Off ch=1 n=e6 v=64
143763 Off ch=1 n=e5 v=64
143767 Off ch=1 n=c#6 v=64
143792 Off ch=1 n=g#6 v=64
143810 Off ch=1 n=c#7 v=64
144022 On ch=1 n=d#7 v=95
144026 On ch=1 n=d#6 v=94
144028 On ch=1 n=f#5 v=87
144028 On ch=1 n=a6 v=88
144030 On ch=1 n=f#6 v=84
144038 On ch=1 n=a4 v=73
144040 Par ch=1 c=64 v=0
144042 On ch=1 n=d#5 v=84
144048 On ch=1 n=f#4 v=82
144164 Par ch=1 c=64 v=127
144230 Off ch=1 n=f#5 v=64
144230 Off ch=1 n=d#5 v=64
144233 Off ch=1 n=a4 v=64
144250 Off ch=1 n=d#7 v=64
144252 Off ch=1 n=f#4 v=64
144272 Off ch=1 n=a6 v=64
144298 Off ch=1 n=f#6 v=64
144328 Off ch=1 n=d#6 v=64
144542 On ch=1 n=c7 v=106
144544 On ch=1 n=c6 v=95
144550 On ch=1 n=f#6 v=82
144550 On ch=1 n=d#6 v=84
144550 On ch=1 n=d#5 v=98
144564 On ch=1 n=c5 v=76
144564 On ch=1 n=d#4 v=74
144590 On ch=1 n=g#4 v=28
144614 Off ch=1 n=c7 v=64
144622 Off ch=1 n=f#6 v=64
144626 Off ch=1 n=c5 v=64
144632 Off ch=1 n=c6 v=64
144642 Off ch=1 n=d#5 v=64
144660 Off ch=1 n=g#4 v=64
144662 Off ch=1 n=d#6 v=64
144694 Off ch=1 n=d#4 v=64
144994 Par ch=1 c=64 v=0
145000 On ch=1 n=c#5 v=97
145002 On ch=1 n=c#4 v=99
145004 On ch=1 n=c#3 v=111
145008 On ch=1 n=c#2 v=106
145112 Off ch=1 n=c#2 v=64
145128 Off ch=1 n=c#3 v=64
145140 Off ch=1 n=c#4 v=64
145148 Par ch=1 c=64 v=127
145212 Off ch=1 n=c#5 v=64
145450 On ch=1 n=c#7 v=103
145452 On ch=1 n=g#6 v=91
145454 On ch=1 n=c#6 v=100
145456 On ch=1 n=e5 v=101
145459 On ch=1 n=e6 v=91
145459 On ch=1 n=c#5 v=88
145463 On ch=1 n=e4 v=92
145466 On ch=1 n=g#4 v=72
145860 Off ch=1 n=e6 v=64
145878 Off ch=1 n=c#7 v=64
145880 Off ch=1 n=g#6 v=64
145902 Off ch=1 n=c#6 v=64
145905 Off ch=1 n=e4 v=64
145926 Off ch=1 n=c#5 v=64
145934 Off ch=1 n=e5 v=64
145958 Off ch=1 n=g#4 v=64
146046 On ch=1 n=c#7 v=100
146046 On ch=1 n=c#6 v=97
146052 On ch=1 n=g#6 v=87
146056 On ch=1 n=e6 v=86
146060 On ch=1 n=e5 v=105
146062 On ch=1 n=c#5 v=84
146066 On ch=1 n=g#4 v=69
146068 On ch=1 n=e4 v=88
146236 Off ch=1 n=e4 v=64
146290 Off ch=1 n=e6 v=64
146302 Off ch=1 n=g#4 v=64
146305 Off ch=1 n=c#5 v=64
146318 Off ch=1 n=c#6 v=64
146326 Off ch=1 n=g#6 v=64
146342 Off ch=1 n=e5 v=64
146368 Off ch=1 n=c#7 v=64
146590 On ch=1 n=e7 v=105
146594 On ch=1 n=g#5 v=95
146594 On ch=1 n=e6 v=101
146594 On ch=1 n=g#6 v=88
146594 On ch=1 n=b6 v=110
146604 On ch=1 n=g#4 v=75
146612 On ch=1 n=e5 v=91
146614 On ch=1 n=b4 v=82
146872 Off ch=1 n=e7 v=64
146894 Off ch=1 n=e5 v=64
146904 Off ch=1 n=b6 v=64
146930 Off ch=1 n=g#6 v=64
146938 Off ch=1 n=e6 v=64
146948 Off ch=1 n=b4 v=64
146982 Off ch=1 n=g#5 v=64
147072 Off ch=1 n=g#4 v=64
147136 On ch=1 n=d#6 v=100
147140 On ch=1 n=d#7 v=91
147140 On ch=1 n=g5 v=99
147142 On ch=1 n=a#6 v=83
147144 On ch=1 n=g6 v=96
147144 On ch=1 n=d#5 v=90
147148 On ch=1 n=a#4 v=72
147150 On ch=1 n=g4 v=88
147232 Off ch=1 n=g5 v=64
147240 Off ch=1 n=d#7 v=64
147284 Off ch=1 n=g6 v=64
147290 Off ch=1 n=a#6 v=64
147296 Off ch=1 n=d#5 v=64
147322 Off ch=1 n=d#6 v=64
147360 Off ch=1 n=g4 v=64
147378 Off ch=1 n=a#4 v=64
147710 On ch=1 n=a5 v=97
147710 On ch=1 n=a4 v=103
147720 On ch=1 n=a3 v=106
147720 On ch=1 n=a2 v=107
147728 Par ch=1 c=64 v=0
147910 Off ch=1 n=a2 v=64
147914 Par ch=1 c=64 v=127
147920 Off ch=1 n=a4 v=64
147956 Off ch=1 n=a3 v=64
147988 Off ch=1 n=a5 v=64
148260 On ch=1 n=f#6 v=101
148260 On ch=1 n=c7 v=101
148264 On ch=1 n=d6 v=108
148264 On ch=1 n=d7 v=101
148268 On ch=1 n=f#5 v=92
148274 On ch=1 n=f#4 v=87
148278 On ch=1 n=c5 v=80
148284 On ch=1 n=d5 v=74
148352 Off ch=1 n=f#5 v=64
148392 Off ch=1 n=d6 v=64
148392 Off ch=1 n=d5 v=64
148408 Off ch=1 n=d7 v=64
148422 Off ch=1 n=c7 v=64
148434 Off ch=1 n=c5 v=64
148440 Off ch=1 n=f#6 v=64
148454 Off ch=1 n=f#4 v=64
148870 On ch=1 n=g#5 v=94
148870 On ch=1 n=g#4 v=98
148876 On ch=1 n=g#3 v=112
148882 On ch=1 n=g#2 v=102
148912 Par ch=1 c=64 v=0
149092 Off ch=1 n=g#4 v=64
149100 Par ch=1 c=64 v=127
149128 Off ch=1 n=g#2 v=64
149162 Off ch=1 n=g#3 v=64
149182 Off ch=1 n=g#5 v=64
149488 On ch=1 n=c7 v=106
149488 On ch=1 n=f#6 v=89
149488 On ch=1 n=c6 v=98
149488 On ch=1 n=d#6 v=93
149496 On ch=1 n=d#5 v=92
149506 On ch=1 n=c5 v=77
149506 On ch=1 n=f#4 v=76
149588 Off ch=1 n=d#5 v=64
149600 Off ch=1 n=c6 v=64
149603 Off ch=1 n=c7 v=64
149646 Off ch=1 n=c5 v=64
149652 Off ch=1 n=f#6 v=64
149658 Off ch=1 n=d#6 v=64
149748 Off ch=1 n=f#4 v=64
150216 On ch=1 n=c#5 v=101
150218 On ch=1 n=c#4 v=101
150222 On ch=1 n=g#4 v=83
150224 On ch=1 n=e4 v=105
150228 On ch=1 n=c#3 v=106
150236 On ch=1 n=g#2 v=86
150239 On ch=1 n=c#2 v=89
150239 On ch=1 n=e2 v=78
150248 Par ch=1 c=64 v=0
150392 Off ch=1 n=c#4 v=64
150418 Par ch=1 c=64 v=127
150428 Off ch=1 n=e4 v=64
150428 Off ch=1 n=c#2 v=64
150444 Off ch=1 n=e2 v=64
150462 Off ch=1 n=g#4 v=64
150466 Off ch=1 n=g#2 v=64
150478 Off ch=1 n=c#3 v=64
150514 Off ch=1 n=c#5 v=64
150836 On ch=1 n=c#7 v=102
150839 On ch=1 n=g#6 v=90
150839 On ch=1 n=c#6 v=100
150843 On ch=1 n=e5 v=103
150843 On ch=1 n=e6 v=92
150847 On ch=1 n=c#5 v=88
150850 On ch=1 n=e4 v=93
150853 On ch=1 n=g#4 v=73
150990 Off ch=1 n=e4 v=64
151060 Off ch=1 n=c#6 v=64
151082 Off ch=1 n=e6 v=64
151108 Off ch=1 n=g#4 v=64
151144 Off ch=1 n=c#5 v=64
151147 Off ch=1 n=e5 v=64
151156 Off ch=1 n=g#6 v=64
151190 Off ch=1 n=c#7 v=64
151530 On ch=1 n=g#7 v=98
151532 On ch=1 n=g#6 v=103
151538 On ch=1 n=c#7 v=92
151538 On ch=1 n=b5 v=105
151546 On ch=1 n=b4 v=84
151554 On ch=1 n=c#5 v=74
151948 Off ch=1 n=c#7 v=64
152016 Off ch=1 n=g#7 v=64
152020 Off ch=1 n=b4 v=64
152072 Off ch=1 n=b5 v=64
152090 Off ch=1 n=g#6 v=64
152122 Off ch=1 n=c#5 v=64
152234 On ch=1 n=f#7 v=96
152234 On ch=1 n=f#6 v=100
152237 On ch=1 n=a5 v=91
152237 On ch=1 n=c#7 v=92
152248 On ch=1 n=f#5 v=70
152252 On ch=1 n=a4 v=70
152262 On ch=1 n=c#5 v=73
152338 Off ch=1 n=a5 v=64
152354 Off ch=1 n=f#7 v=64
152370 Off ch=1 n=c#7 v=64
152382 Off ch=1 n=f#6 v=64
152390 Off ch=1 n=f#5 v=64
152408 Off ch=1 n=c#5 v=64
152430 Off ch=1 n=a4 v=64
152812 On ch=1 n=a5 v=97
152814 On ch=1 n=a4 v=105
152824 On ch=1 n=a3 v=101
152828 On ch=1 n=a2 v=105
152846 Par ch=1 c=64 v=0
152998 Off ch=1 n=a2 v=64
153010 Off ch=1 n=a4 v=64
153020 Par ch=1 c=64 v=127
153052 Off ch=1 n=a3 v=64
153092 Off ch=1 n=a5 v=64
153388 On ch=1 n=e7 v=106
153392 On ch=1 n=f#5 v=91
153392 On ch=1 n=e6 v=102
153392 On ch=1 n=f#6 v=99
153394 On ch=1 n=c7 v=100
153400 On ch=1 n=f#4 v=83
153400 On ch=1 n=e5 v=81
153408 On ch=1 n=c5 v=71
153440 Off ch=1 n=f#4 v=64
153462 Off ch=1 n=c5 v=64
153468 Off ch=1 n=e5 v=64
153474 Off ch=1 n=f#5 v=64
153514 Off ch=1 n=e6 v=64
153516 Off ch=1 n=e7 v=64
153544 Off ch=1 n=c7 v=64
153580 Off ch=1 n=f#6 v=64
154048 On ch=1 n=g#4 v=95
154050 On ch=1 n=g#5 v=94
154054 On ch=1 n=g#3 v=108
154062 On ch=1 n=g#2 v=103
154106 Par ch=1 c=64 v=0
154286 Off ch=1 n=g#4 v=64
154290 Par ch=1 c=64 v=127
154324 Off ch=1 n=g#2 v=64
154364 Off ch=1 n=g#3 v=64
154408 Off ch=1 n=g#5 v=64
154792 On ch=1 n=c7 v=108
154794 On ch=1 n=c6 v=103
154794 On ch=1 n=d#6 v=95
154794 On ch=1 n=d#5 v=95
154797 On ch=1 n=f#6 v=92
154810 On ch=1 n=f#4 v=79
154810 On ch=1 n=c5 v=80
154822 On ch=1 n=d#4 v=64
154862 Off ch=1 n=d#4 v=64
154878 Off ch=1 n=d#5 v=64
154914 Off ch=1 n=c7 v=64
154922 Off ch=1 n=c5 v=64
154925 Off ch=1 n=f#4 v=64
154930 Off ch=1 n=c6 v=64
154984 Off ch=1 n=f#6 v=64
154986 Off ch=1 n=d#6 v=64
155582 On ch=1 n=c#3 v=106
155584 On ch=1 n=c#4 v=102
155584 On ch=1 n=c#5 v=100
155586 On ch=1 n=c#2 v=106
155594 Par ch=1 c=64 v=0
155712 Off ch=1 n=c#2 v=64
155730 Off ch=1 n=c#4 v=64
155732 Off ch=1 n=c#3 v=64
155734 Par ch=1 c=64 v=127
155794 Off ch=1 n=c#5 v=64
156070 On ch=1 n=c#7 v=101
156072 On ch=1 n=c#6 v=99
156076 On ch=1 n=g#6 v=88
156080 On ch=1 n=e6 v=88
156080 On ch=1 n=e5 v=95
156083 On ch=1 n=c#5 v=81
156086 On ch=1 n=e4 v=91
156092 On ch=1 n=g#4 v=66
156410 Off ch=1 n=e6 v=64
156422 Off ch=1 n=e4 v=64
156438 Off ch=1 n=c#7 v=64
156484 Off ch=1 n=g#6 v=64
156518 Off ch=1 n=c#6 v=64
156892 Off ch=1 n=e5 v=64
156938 Off ch=1 n=c#5 v=64
156974 Off ch=1 n=g#4 v=64
157090 On ch=1 n=c#6 v=89
157098 On ch=1 n=c#5 v=85
157106 On ch=1 n=e5 v=90
157106 On ch=1 n=g#5 v=67
157112 On ch=1 n=g#4 v=61
157134 On ch=1 n=e4 v=64
157276 Off ch=1 n=c#5 v=64
157294 Off ch=1 n=e5 v=64
157392 Off ch=1 n=g#4 v=64
157406 Off ch=1 n=g#5 v=64
157442 Off ch=1 n=e4 v=64
157536 Off ch=1 n=c#6 v=64
157766 On ch=1 n=d6 v=100
157769 On ch=1 n=d5 v=90
157772 On ch=1 n=f#5 v=78
157780 On ch=1 n=a5 v=64
157786 On ch=1 n=f#4 v=69
157792 On ch=1 n=a4 v=61
157932 Off ch=1 n=d5 v=64
157980 Off ch=1 n=f#5 v=64
157996 Off ch=1 n=a4 v=64
158022 Off ch=1 n=a5 v=64
158046 Off ch=1 n=d6 v=64
158070 Off ch=1 n=f#4 v=64
158358 On ch=1 n=b5 v=100
158360 On ch=1 n=d5 v=89
158368 On ch=1 n=f#4 v=78
158372 On ch=1 n=b4 v=85
158374 On ch=1 n=f#5 v=62
158376 On ch=1 n=d4 v=70
158542 Off ch=1 n=b4 v=64
158554 Off ch=1 n=f#5 v=64
158568 Off ch=1 n=f#4 v=64
158570 Off ch=1 n=d4 v=64
158612 Off ch=1 n=b5 v=64
158640 Off ch=1 n=d5 v=64
158868 Par ch=1 c=64 v=0
158880 On ch=1 n=c#6 v=84
158884 On ch=1 n=c#5 v=76
158890 On ch=1 n=e5 v=86
158890 On ch=1 n=g#5 v=62
158893 On ch=1 n=g#4 v=64
158928 On ch=1 n=e4 v=62
159006 Par ch=1 c=64 v=127
159046 Off ch=1 n=e5 v=64
159064 Off ch=1 n=g#4 v=64
159084 Off ch=1 n=e4 v=64
159094 Off ch=1 n=g#5 v=64
159120 Off ch=1 n=c#6 v=64
159126 Off ch=1 n=c#5 v=64
159358 On ch=1 n=c#5 v=78
159358 On ch=1 n=a5 v=76
159364 On ch=1 n=a4 v=74
159376 On ch=1 n=e5 v=71
159384 On ch=1 n=e4 v=72
159390 On ch=1 n=c#4 v=56
159478 Off ch=1 n=a4 v=64
159484 Off ch=1 n=e4 v=64
159508 Off ch=1 n=c#5 v=64
159538 Off ch=1 n=e5 v=64
159590 Off ch=1 n=a5 v=64
159593 Off ch=1 n=c#4 v=64
159882 On ch=1 n=d5 v=72
159882 On ch=1 n=b5 v=93
159884 On ch=1 n=f#4 v=62
159892 On ch=1 n=b4 v=69
159898 Par ch=1 c=64 v=0
159906 On ch=1 n=f#5 v=43
159908 On ch=1 n=d4 v=42
160050 Par ch=1 c=64 v=127
160102 Off ch=1 n=b5 v=64
160112 Off ch=1 n=d5 v=64
160128 Off ch=1 n=b4 v=64
160128 Off ch=1 n=d4 v=64
160132 Off ch=1 n=f#4 v=64
160164 Off ch=1 n=f#5 v=64
160382 On ch=1 n=g#5 v=72
160384 On ch=1 n=g#4 v=69
160386 On ch=1 n=b4 v=59
160392 On ch=1 n=d5 v=68
160400 On ch=1 n=f#4 v=53
160408 On ch=1 n=b3 v=40
160528 Off ch=1 n=b4 v=64
160568 Off ch=1 n=g#4 v=64
160586 Off ch=1 n=d5 v=64
160626 Off ch=1 n=b3 v=64
160658 Off ch=1 n=f#4 v=64
160724 Off ch=1 n=g#5 v=64
160968 On ch=1 n=c#5 v=57
160974 On ch=1 n=a5 v=59
160978 On ch=1 n=a4 v=52
160982 On ch=1 n=f#5 v=40
161004 On ch=1 n=f#4 v=40
161006 On ch=1 n=c#4 v=31
161066 Par ch=1 c=64 v=0
161234 Par ch=1 c=64 v=127
161316 Off ch=1 n=a4 v=64
161338 Off ch=1 n=f#5 v=64
161358 Off ch=1 n=a5 v=64
161358 Off ch=1 n=f#4 v=64
161364 Off ch=1 n=c#5 v=64
161374 Off ch=1 n=c#4 v=64
161576 On ch=1 n=a5 v=76
161586 On ch=1 n=a4 v=63
161588 On ch=1 n=c#5 v=67
161600 On ch=1 n=f#5 v=46
161606 On ch=1 n=c#4 v=47
161622 On ch=1 n=f#4 v=41
161712 Off ch=1 n=a4 v=64
161808 Off ch=1 n=f#4 v=64
161844 Off ch=1 n=c#5 v=64
161890 Off ch=1 n=c#4 v=64
161902 Off ch=1 n=a5 v=64
161904 Off ch=1 n=f#5 v=64
162190 On ch=1 n=c#6 v=72
162202 On ch=1 n=c#5 v=47
162208 On ch=1 n=e5 v=71
162224 On ch=1 n=f#5 v=32
162224 On ch=1 n=f#4 v=48
162244 On ch=1 n=e4 v=43
162308 Off ch=1 n=f#5 v=64
162448 Off ch=1 n=f#4 v=64
162454 Off ch=1 n=e4 v=64
162552 Off ch=1 n=c#6 v=64
162556 Off ch=1 n=e5 v=64
162612 Off ch=1 n=c#5 v=64
162876 On ch=1 n=b5 v=81
162882 On ch=1 n=d5 v=59
162890 On ch=1 n=f#5 v=39
162892 On ch=1 n=b4 v=50
162895 On ch=1 n=f#4 v=45
162914 On ch=1 n=d4 v=41
163012 Off ch=1 n=f#5 v=64
163080 Off ch=1 n=d5 v=64
163092 Off ch=1 n=b4 v=64
163140 Off ch=1 n=f#4 v=64
163142 Off ch=1 n=b5 v=64
163146 Off ch=1 n=d4 v=64
163530 On ch=1 n=g4 v=84
163552 On ch=1 n=g3 v=41
163555 On ch=1 n=g2 v=52
163586 Par ch=1 c=64 v=0
163816 Par ch=1 c=64 v=127
163834 Off ch=1 n=g2 v=64
163890 Off ch=1 n=g3 v=64
163918 Off ch=1 n=g4 v=64
164260 On ch=1 n=a5 v=60
164265 On ch=1 n=a4 v=42
164270 On ch=1 n=c#5 v=53
164270 On ch=1 n=e5 v=57
164296 On ch=1 n=e4 v=51
164556 Off ch=1 n=c#5 v=64
164638 Off ch=1 n=a4 v=64
164690 Off ch=1 n=a5 v=64
164698 Off ch=1 n=e4 v=64
165074 On ch=1 n=g#4 v=70
165082 On ch=1 n=g#3 v=58
165082 On ch=1 n=g#2 v=64
165152 Par ch=1 c=64 v=0
165200 Off ch=1 n=e5 v=64
165398 Par ch=1 c=64 v=127
165452 Off ch=1 n=g#2 v=64
165516 Off ch=1 n=g#3 v=64
165684 Off ch=1 n=g#4 v=64
165942 On ch=1 n=g#5 v=49
165952 On ch=1 n=g#4 v=41
165962 On ch=1 n=f#5 v=38
165964 On ch=1 n=f#4 v=38
165972 On ch=1 n=d#4 v=25
165974 On ch=1 n=c5 v=16
166200 Off ch=1 n=c5 v=64
166218 Off ch=1 n=g#4 v=64
166418 Off ch=1 n=g#5 v=64
166434 Off ch=1 n=f#4 v=64
166492 Off ch=1 n=d#4 v=64
166518 Off ch=1 n=f#5 v=64
167092 On ch=1 n=c#2 v=84
167096 On ch=1 n=c#3 v=69
167098 On ch=1 n=c#4 v=86
167364 Par ch=1 c=64 v=0
167534 Par ch=1 c=64 v=127
167662 Off ch=1 n=c#2 v=64
167698 Off ch=1 n=c#4 v=64
167710 Off ch=1 n=c#3 v=64
168172 On ch=1 n=c#5 v=81
168174 On ch=1 n=c#6 v=77
168182 On ch=1 n=a5 v=67
168184 On ch=1 n=e5 v=72
168186 On ch=1 n=a4 v=54
168194 On ch=1 n=e4 v=69
169604 Off ch=1 n=e5 v=64
169850 Off ch=1 n=e4 v=64
169872 Off ch=1 n=c#5 v=64
169875 Off ch=1 n=a4 v=64
169912 Off ch=1 n=c#6 v=64
169982 Off ch=1 n=a5 v=64
170930 On ch=1 n=c#3 v=77
170936 On ch=1 n=c#2 v=78
170940 On ch=1 n=c#4 v=81
171160 Par ch=1 c=64 v=0
171376 Par ch=1 c=64 v=127
171454 Off ch=1 n=c#2 v=64
171492 Off ch=1 n=c#4 v=64
171504 Off ch=1 n=c#3 v=64
172116 On ch=1 n=c#6 v=84
172124 On ch=1 n=c#5 v=84
172126 On ch=1 n=g#5 v=69
172132 On ch=1 n=a#4 v=56
172132 On ch=1 n=e5 v=80
172148 On ch=1 n=e4 v=61
173961 Off ch=1 n=e5 v=64
173994 Off ch=1 n=c#5 v=64
174064 Off ch=1 n=c#6 v=64
174082 Off ch=1 n=a#4 v=64
174112 Off ch=1 n=e4 v=64
174114 Off ch=1 n=g#5 v=64
175118 On ch=1 n=c#4 v=76
175124 On ch=1 n=c#2 v=76
175130 On ch=1 n=c#3 v=59
175248 Par ch=1 c=64 v=0
175462 Par ch=1 c=64 v=127
175550 Off ch=1 n=c#2 v=64
175608 Off ch=1 n=c#4 v=64
175620 Off ch=1 n=c#3 v=64
176190 On ch=1 n=c#6 v=78
176196 On ch=1 n=c#5 v=68
176200 On ch=1 n=a5 v=63
176204 On ch=1 n=e5 v=65
176206 On ch=1 n=g4 v=60
176220 On ch=1 n=e4 v=52
178100 Off ch=1 n=e5 v=64
178194 Off ch=1 n=e4 v=64
178197 Off ch=1 n=c#5 v=64
178220 Off ch=1 n=c#6 v=64
178244 Off ch=1 n=g4 v=64
178306 Off ch=1 n=a5 v=64
179434 On ch=1 n=c#3 v=57
179434 On ch=1 n=c#2 v=72
179440 On ch=1 n=c#4 v=60
179550 Par ch=1 c=64 v=0
179764 Par ch=1 c=64 v=127
179800 Off ch=1 n=c#2 v=64
179850 Off ch=1 n=c#3 v=64
179906 Off ch=1 n=c#4 v=64
180862 On ch=1 n=c#5 v=67
180862 On ch=1 n=c#6 v=62
180874 On ch=1 n=a#5 v=45
180874 On ch=1 n=a#4 v=32
180877 On ch=1 n=e5 v=50
180880 On ch=1 n=f#5 v=40
180898 On ch=1 n=f#4 v=37
180898 On ch=1 n=e4 v=44
181312 Off ch=1 n=c#5 v=64
182708 Off ch=1 n=e5 v=64
182834 Off ch=1 n=e4 v=64
182840 Off ch=1 n=c#6 v=64
182840 Off ch=1 n=a#4 v=64
182864 Off ch=1 n=f#4 v=64
182910 Off ch=1 n=a#5 v=64
182914 Off ch=1 n=f#5 v=64
183888 On ch=1 n=c#4 v=62
183902 On ch=1 n=c#2 v=73
183912 On ch=1 n=c#3 v=50
183960 Par ch=1 c=64 v=0
184086 Off ch=1 n=c#3 v=64
184190 Par ch=1 c=64 v=127
184460 Off ch=1 n=c#2 v=64
184494 Off ch=1 n=c#4 v=64
185526 On ch=1 n=c#6 v=60
185532 On ch=1 n=c#5 v=55
185538 On ch=1 n=a5 v=47
185538 On ch=1 n=f#5 v=43
185540 On ch=1 n=d#4 v=46
185548 On ch=1 n=d#5 v=50
185566 On ch=1 n=f#4 v=50
185574 On ch=1 n=a4 v=38
185712 Off ch=1 n=c#5 v=64
187396 Off ch=1 n=d#5 v=64
187428 Off ch=1 n=a4 v=64
187510 Off ch=1 n=c#6 v=64
187532 Off ch=1 n=a5 v=64
187642 Off ch=1 n=f#5 v=64
187674 Off ch=1 n=f#4 v=64
187696 Off ch=1 n=d#4 v=64
189176 On ch=1 n=c#4 v=48
189179 On ch=1 n=c#2 v=61
189202 On ch=1 n=c#3 v=33
189614 Par ch=1 c=64 v=0
190166 Par ch=1 c=64 v=127
191054 Off ch=1 n=c#4 v=64
191064 Off ch=1 n=c#2 v=64
191142 Off ch=1 n=c#3 v=64
192868 On ch=1 n=c#6 v=51
192886 On ch=1 n=c#5 v=30
192886 On ch=1 n=g#5 v=28
192886 On ch=1 n=g#4 v=18
192894 On ch=1 n=g#3 v=26
192896 On ch=1 n=e5 v=36
192900 On ch=1 n=e4 v=28
192912 On ch=1 n=c#4 v=21
193250 Off ch=1 n=c#5 v=64
193358 Off ch=1 n=e5 v=64
193448 Off ch=1 n=c#4 v=64
193484 Off ch=1 n=g#4 v=64
193502 Off ch=1 n=e4 v=64
193580 Off ch=1 n=g#3 v=64
193770 Off ch=1 n=g#5 v=64
193934 Off ch=1 n=c#6 v=64
194878 On ch=1 n=g#6 v=34
194885 On ch=1 n=c#6 v=23
194886 On ch=1 n=g#4 v=15
194888 On ch=1 n=c#5 v=20
194892 On ch=1 n=e6 v=24
194892 On ch=1 n=e4 v=18
194892 On ch=1 n=g#5 v=23
194902 On ch=1 n=e5 v=18
195018 Off ch=1 n=c#6 v=64
195082 Off ch=1 n=g#4 v=64
195090 Off ch=1 n=e6 v=64
195100 Off ch=1 n=c#5 v=64
195110 Off ch=1 n=e4 v=64
195114 Off ch=1 n=g#5 v=64
195170 Off ch=1 n=e5 v=64
195222 Off ch=1 n=g#6 v=64
195916 On ch=1 n=g#6 v=41
195940 On ch=1 n=g#5 v=15
195940 On ch=1 n=c#5 v=15
195943 On ch=1 n=e5 v=16
195948 On ch=1 n=c#6 v=17
195952 On ch=1 n=e4 v=20
195956 On ch=1 n=g#4 v=9
195962 On ch=1 n=e6 v=10
201630 Off ch=1 n=g#5 v=64
201802 Off ch=1 n=e6 v=64
201840 Off ch=1 n=e5 v=64
201846 Off ch=1 n=c#5 v=64
201864 Off ch=1 n=g#6 v=64
201872 Off ch=1 n=g#4 v=64
201878 Off ch=1 n=c#6 v=64
201898 Off ch=1 n=e4 v=64
203520 Par ch=1 c=64 v=0
203520 Meta TrkEnd
TrkEnd
