MFile 1 4 384
MTrk
0 Tempo 400000
0 TimeSig 12/8 24 8
4416 Tempo 545450
4608 Tempo 416660
6144 Tempo 526310
6336 Tempo 416660
6720 Tempo 550450
6912 Tempo 416660
7296 Tempo 560740
7488 Tempo 413790
8448 Tempo 545450
8640 Tempo 422530
9024 Tempo 600000
9216 Tempo 416660
10752 Tempo 504200
10944 Tempo 410950
11328 Tempo 560740
11520 Tempo 410950
12288 Tempo 458010
12672 Tempo 416660
14784 Tempo 476190
14976 Tempo 416660
15360 Tempo 461530
15646 Tempo 425530
15936 Tempo 480000
16200 Tempo 416660
20544 Tempo 600000
20736 Tempo 416660
21696 Tempo 428570
21888 Tempo 441170
22080 Tempo 454540
22464 Tempo 461530
22848 Tempo 447760
23040 Tempo 422530
27648 TimeSig 6/8 24 8
28800 TimeSig 12/8 24 8
32256 Tempo 428570
32448 Tempo 444440
32640 Tempo 461530
32832 Tempo 480000
33024 Tempo 500000
33216 Tempo 857140
33408 Tempo 428570
42048 Tempo 454540
42624 Tempo 1333330
42718 Tempo 416660
51264 Tempo 444440
51456 Tempo 500000
51648 Tempo 500000
51840 Tempo 500000
52416 Tempo 480000
52992 Tempo 461530
53568 Tempo 444440
54144 Tempo 428570
55296 Tempo 413790
67008 Tempo 428570
67200 Tempo 451120
67392 Tempo 480000
67584 Tempo 545450
67776 Tempo 600000
68160 Tempo 413790
74304 Tempo 444440
74496 Tempo 480000
74688 Tempo 545450
74880 Tempo 461530
77184 Tempo 428570
79296 Tempo 600000
79488 Tempo 441170
81024 Tempo 566030
81216 Tempo 461530
81600 Tempo 600000
81792 Tempo 500000
82176 Tempo 666660
82368 Tempo 545450
83520 Tempo 1200000
83712 Tempo 545450
84096 Tempo 500000
85056 Tempo 491800
86400 Tempo 428570
95616 Tempo 1153840
95808 Tempo 461530
97344 Tempo 1200000
97728 Tempo 472440
97920 Tempo 428570
102528 Tempo 408160
106560 Tempo 461530
106752 Tempo 500000
106944 Tempo 545450
107136 Tempo 666660
109440 Meta TrkEnd
TrkEnd
MTrk
0 Meta TrkName "rechte H."
0 PrCh ch=1 p=0
0 On ch=1 n=g#6 v=46
96 Off ch=1 n=g#6 v=64
96 On ch=1 n=d#6 v=40
192 Off ch=1 n=d#6 v=64
192 On ch=1 n=g#5 v=40
288 Off ch=1 n=g#5 v=64
288 On ch=1 n=d#6 v=40
384 Off ch=1 n=d#6 v=64
384 On ch=1 n=g#6 v=46
480 Off ch=1 n=g#6 v=64
480 On ch=1 n=d#6 v=40
576 Off ch=1 n=d#6 v=64
576 On ch=1 n=g#6 v=46
672 Off ch=1 n=g#6 v=64
672 On ch=1 n=d#6 v=40
768 Off ch=1 n=d#6 v=64
768 On ch=1 n=g#5 v=40
864 Off ch=1 n=g#5 v=64
864 On ch=1 n=d#6 v=40
960 Off ch=1 n=d#6 v=64
960 On ch=1 n=g#6 v=46
1056 Off ch=1 n=g#6 v=64
1056 On ch=1 n=d#6 v=40
1152 Off ch=1 n=d#6 v=64
1152 On ch=1 n=g#6 v=46
1248 Off ch=1 n=g#6 v=64
1248 On ch=1 n=d#6 v=40
1344 Off ch=1 n=d#6 v=64
1344 On ch=1 n=g#5 v=40
1440 Off ch=1 n=g#5 v=64
1440 On ch=1 n=d#6 v=40
1536 Off ch=1 n=d#6 v=64
1536 On ch=1 n=g#6 v=46
1632 Off ch=1 n=g#6 v=64
1632 On ch=1 n=d#6 v=40
1728 Off ch=1 n=d#6 v=64
1728 On ch=1 n=g#6 v=46
1824 Off ch=1 n=g#6 v=64
1824 On ch=1 n=d#6 v=40
1920 Off ch=1 n=d#6 v=64
1920 On ch=1 n=g#5 v=40
2016 Off ch=1 n=g#5 v=64
2016 On ch=1 n=d#6 v=40
2112 Off ch=1 n=d#6 v=64
2112 On ch=1 n=g#6 v=46
2208 Off ch=1 n=g#6 v=64
2208 On ch=1 n=d#6 v=40
2304 Off ch=1 n=d#6 v=64
2304 On ch=1 n=g#6 v=46
2400 Off ch=1 n=g#6 v=64
2400 On ch=1 n=d#6 v=40
2496 Off ch=1 n=d#6 v=64
2496 On ch=1 n=g#5 v=40
2592 Off ch=1 n=g#5 v=64
2592 On ch=1 n=d#6 v=40
2688 Off ch=1 n=d#6 v=64
2688 On ch=1 n=g#6 v=46
2784 Off ch=1 n=g#6 v=64
2784 On ch=1 n=d#6 v=40
2880 Off ch=1 n=d#6 v=64
2880 On ch=1 n=g#6 v=46
2976 Off ch=1 n=g#6 v=64
2976 On ch=1 n=d#6 v=40
3072 Off ch=1 n=d#6 v=64
3072 On ch=1 n=g#5 v=40
3168 Off ch=1 n=g#5 v=64
3168 On ch=1 n=d#6 v=40
3264 Off ch=1 n=d#6 v=64
3264 On ch=1 n=g#6 v=46
3360 Off ch=1 n=g#6 v=64
3360 On ch=1 n=d#6 v=40
3456 Off ch=1 n=d#6 v=64
3456 On ch=1 n=g#6 v=50
3552 Off ch=1 n=g#6 v=64
3552 On ch=1 n=d#6 v=42
3648 Off ch=1 n=d#6 v=64
3648 On ch=1 n=g#5 v=42
3744 Off ch=1 n=g#5 v=64
3744 On ch=1 n=d#6 v=42
3840 Off ch=1 n=d#6 v=64
3840 On ch=1 n=g#6 v=50
3936 Off ch=1 n=g#6 v=64
3936 On ch=1 n=d#6 v=42
4032 Off ch=1 n=d#6 v=64
4032 On ch=1 n=g#6 v=50
4128 Off ch=1 n=g#6 v=64
4128 On ch=1 n=d#6 v=42
4224 Off ch=1 n=d#6 v=64
4224 On ch=1 n=g#5 v=42
4320 Off ch=1 n=g#5 v=64
4320 On ch=1 n=d#6 v=42
4416 Off ch=1 n=d#6 v=64
4416 On ch=1 n=g#6 v=58
4512 Off ch=1 n=g#6 v=64
4512 On ch=1 n=d#6 v=51
4608 Off ch=1 n=d#6 v=64
4608 On ch=1 n=g#6 v=51
4704 Off ch=1 n=g#6 v=64
4704 On ch=1 n=d#6 v=43
4800 Off ch=1 n=d#6 v=64
4800 On ch=1 n=g#5 v=43
4896 Off ch=1 n=g#5 v=64
4896 On ch=1 n=d#6 v=43
4992 Off ch=1 n=d#6 v=64
4992 On ch=1 n=g#6 v=51
5088 Off ch=1 n=g#6 v=64
5088 On ch=1 n=d#6 v=43
5184 Off ch=1 n=d#6 v=64
5184 On ch=1 n=g#6 v=51
5280 Off ch=1 n=g#6 v=64
5280 On ch=1 n=d#6 v=43
5376 Off ch=1 n=d#6 v=64
5376 On ch=1 n=g#5 v=43
5472 Off ch=1 n=g#5 v=64
5472 On ch=1 n=d#6 v=43
5568 Off ch=1 n=d#6 v=64
5568 On ch=1 n=g#6 v=51
5664 Off ch=1 n=g#6 v=64
5664 On ch=1 n=d#6 v=43
5760 Off ch=1 n=d#6 v=64
5760 On ch=1 n=g#6 v=51
5856 Off ch=1 n=g#6 v=64
5856 On ch=1 n=d#6 v=43
5952 Off ch=1 n=d#6 v=64
5952 On ch=1 n=g#5 v=43
6048 Off ch=1 n=g#5 v=64
6048 On ch=1 n=d#6 v=43
6144 Off ch=1 n=d#6 v=64
6144 On ch=1 n=g#6 v=51
6240 Off ch=1 n=g#6 v=64
6240 On ch=1 n=d#6 v=43
6336 Off ch=1 n=d#6 v=64
6336 On ch=1 n=g#6 v=51
6432 Off ch=1 n=g#6 v=64
6432 On ch=1 n=d#6 v=43
6528 Off ch=1 n=d#6 v=64
6528 On ch=1 n=g#5 v=43
6624 Off ch=1 n=g#5 v=64
6624 On ch=1 n=d#6 v=43
6720 Off ch=1 n=d#6 v=64
6720 On ch=1 n=g#6 v=51
6816 Off ch=1 n=g#6 v=64
6816 On ch=1 n=d#6 v=43
6912 Off ch=1 n=d#6 v=64
6912 On ch=1 n=g#6 v=51
7008 Off ch=1 n=g#6 v=64
7008 On ch=1 n=d#6 v=44
7104 Off ch=1 n=d#6 v=64
7104 On ch=1 n=g#5 v=44
7200 Off ch=1 n=g#5 v=64
7200 On ch=1 n=d#6 v=44
7296 Off ch=1 n=d#6 v=64
7296 On ch=1 n=g#6 v=51
7392 Off ch=1 n=g#6 v=64
7392 On ch=1 n=d#6 v=44
7488 Off ch=1 n=d#6 v=64
7488 On ch=1 n=g#6 v=51
7584 Off ch=1 n=g#6 v=64
7584 On ch=1 n=d#6 v=44
7680 Off ch=1 n=d#6 v=64
7680 On ch=1 n=g#5 v=44
7776 Off ch=1 n=g#5 v=64
7776 On ch=1 n=d#6 v=44
7872 Off ch=1 n=d#6 v=64
7872 On ch=1 n=g#6 v=51
7968 Off ch=1 n=g#6 v=64
7968 On ch=1 n=d#6 v=44
8064 Off ch=1 n=d#6 v=64
8064 On ch=1 n=g#6 v=51
8160 Off ch=1 n=g#6 v=64
8160 On ch=1 n=d#6 v=44
8256 Off ch=1 n=d#6 v=64
8256 On ch=1 n=g#5 v=44
8352 Off ch=1 n=g#5 v=64
8352 On ch=1 n=d#6 v=44
8448 Off ch=1 n=d#6 v=64
8448 On ch=1 n=g#6 v=51
8544 Off ch=1 n=g#6 v=64
8544 On ch=1 n=d#6 v=44
8640 Off ch=1 n=d#6 v=64
8640 On ch=1 n=a6 v=51
8736 Off ch=1 n=a6 v=64
8736 On ch=1 n=e6 v=44
8832 Off ch=1 n=e6 v=64
8832 On ch=1 n=a5 v=44
8928 Off ch=1 n=a5 v=64
8928 On ch=1 n=e6 v=44
9024 Off ch=1 n=e6 v=64
9024 On ch=1 n=a6 v=51
9120 Off ch=1 n=a6 v=64
9120 On ch=1 n=e6 v=44
9216 Off ch=1 n=e6 v=64
9216 On ch=1 n=g#6 v=51
9312 Off ch=1 n=g#6 v=64
9312 On ch=1 n=d#6 v=44
9408 Off ch=1 n=d#6 v=64
9408 On ch=1 n=g#5 v=44
9504 Off ch=1 n=g#5 v=64
9504 On ch=1 n=d#6 v=44
9600 Off ch=1 n=d#6 v=64
9600 On ch=1 n=g#6 v=51
9696 Off ch=1 n=g#6 v=64
9696 On ch=1 n=e6 v=44
9792 Off ch=1 n=e6 v=64
9792 On ch=1 n=d#6 v=51
9888 Off ch=1 n=d#6 v=64
9888 On ch=1 n=g#5 v=44
9984 Off ch=1 n=g#5 v=64
9984 On ch=1 n=d#5 v=44
10080 Off ch=1 n=d#5 v=64
10080 On ch=1 n=g#5 v=44
10176 Off ch=1 n=g#5 v=64
10176 On ch=1 n=d#6 v=52
10272 Off ch=1 n=d#6 v=64
10272 On ch=1 n=g#5 v=45
10368 Off ch=1 n=g#5 v=64
10368 On ch=1 n=d#6 v=52
10464 Off ch=1 n=d#6 v=64
10464 On ch=1 n=g#5 v=45
10560 Off ch=1 n=g#5 v=64
10560 On ch=1 n=d#5 v=45
10656 Off ch=1 n=d#5 v=64
10656 On ch=1 n=g#5 v=45
10752 Off ch=1 n=g#5 v=64
10752 On ch=1 n=d#6 v=52
10848 Off ch=1 n=d#6 v=64
10848 On ch=1 n=g#5 v=45
10944 Off ch=1 n=g#5 v=64
10944 On ch=1 n=d#6 v=52
11040 Off ch=1 n=d#6 v=64
11040 On ch=1 n=g5 v=45
11136 Off ch=1 n=g5 v=64
11136 On ch=1 n=c#5 v=45
11232 Off ch=1 n=c#5 v=64
11232 On ch=1 n=g5 v=45
11328 Off ch=1 n=g5 v=64
11328 On ch=1 n=d#6 v=52
11424 Off ch=1 n=d#6 v=64
11424 On ch=1 n=g5 v=45
11520 Off ch=1 n=g5 v=64
11520 On ch=1 n=d#6 v=52
11616 Off ch=1 n=d#6 v=64
11616 On ch=1 n=g#5 v=45
11712 Off ch=1 n=g#5 v=64
11712 On ch=1 n=d#5 v=45
11808 Off ch=1 n=d#5 v=64
11808 On ch=1 n=g#5 v=45
11904 Off ch=1 n=g#5 v=64
11904 On ch=1 n=d#6 v=52
12000 Off ch=1 n=d#6 v=64
12000 On ch=1 n=g#5 v=45
12096 Off ch=1 n=g#5 v=64
12096 On ch=1 n=d#6 v=52
12192 Off ch=1 n=d#6 v=64
12192 On ch=1 n=g#5 v=45
12288 Off ch=1 n=g#5 v=64
12288 On ch=1 n=d#5 v=45
12384 Off ch=1 n=d#5 v=64
12384 On ch=1 n=g#5 v=45
12480 Off ch=1 n=g#5 v=64
12480 On ch=1 n=d#6 v=52
12576 Off ch=1 n=d#6 v=64
12576 On ch=1 n=g#5 v=45
12672 Off ch=1 n=g#5 v=64
12672 On ch=1 n=d#6 v=52
12768 Off ch=1 n=d#6 v=64
12768 On ch=1 n=g#5 v=45
12864 Off ch=1 n=g#5 v=64
12864 On ch=1 n=d#5 v=45
12960 Off ch=1 n=d#5 v=64
12960 On ch=1 n=g#5 v=45
13056 Off ch=1 n=g#5 v=64
13056 On ch=1 n=d#6 v=52
13152 Off ch=1 n=d#6 v=64
13152 On ch=1 n=g#5 v=45
13248 Off ch=1 n=g#5 v=64
13248 On ch=1 n=d#6 v=52
13344 Off ch=1 n=d#6 v=64
13344 On ch=1 n=g#5 v=45
13440 Off ch=1 n=g#5 v=64
13440 On ch=1 n=d#5 v=45
13536 Off ch=1 n=d#5 v=64
13536 On ch=1 n=g#5 v=45
13632 Off ch=1 n=g#5 v=64
13632 On ch=1 n=d#6 v=52
13728 Off ch=1 n=d#6 v=64
13728 On ch=1 n=g#5 v=45
13824 Off ch=1 n=g#5 v=64
13824 On ch=1 n=d#6 v=52
13920 Off ch=1 n=d#6 v=64
13920 On ch=1 n=g#5 v=45
14016 Off ch=1 n=g#5 v=64
14016 On ch=1 n=d#5 v=45
14112 Off ch=1 n=d#5 v=64
14112 On ch=1 n=g#5 v=45
14208 Off ch=1 n=g#5 v=64
14208 On ch=1 n=d#6 v=52
14304 Off ch=1 n=d#6 v=64
14304 On ch=1 n=g#5 v=45
14400 Off ch=1 n=g#5 v=64
14400 On ch=1 n=d#6 v=52
14496 Off ch=1 n=d#6 v=64
14496 On ch=1 n=g#5 v=45
14592 Off ch=1 n=g#5 v=64
14592 On ch=1 n=d#5 v=45
14688 Off ch=1 n=d#5 v=64
14688 On ch=1 n=g#5 v=45
14784 Off ch=1 n=g#5 v=64
14784 On ch=1 n=e6 v=52
14880 Off ch=1 n=e6 v=64
14880 On ch=1 n=g#5 v=45
14976 Off ch=1 n=g#5 v=64
14976 On ch=1 n=e6 v=52
15072 Off ch=1 n=e6 v=64
15072 On ch=1 n=a5 v=45
15168 Off ch=1 n=a5 v=64
15168 On ch=1 n=e5 v=45
15264 Off ch=1 n=e5 v=64
15264 On ch=1 n=a5 v=45
15360 Off ch=1 n=a5 v=64
15360 On ch=1 n=e6 v=53
15456 Off ch=1 n=e6 v=64
15456 On ch=1 n=a5 v=46
15552 Off ch=1 n=a5 v=64
15552 On ch=1 n=d#6 v=53
15648 Off ch=1 n=d#6 v=64
15648 On ch=1 n=g5 v=46
15744 Off ch=1 n=g5 v=64
15744 On ch=1 n=c#5 v=46
15840 Off ch=1 n=c#5 v=64
15840 On ch=1 n=g5 v=46
15936 Off ch=1 n=g5 v=64
15936 On ch=1 n=d#6 v=53
16032 Off ch=1 n=d#6 v=64
16032 On ch=1 n=g5 v=46
16128 Off ch=1 n=g5 v=64
16128 On ch=1 n=d#6 v=53
16224 Off ch=1 n=d#6 v=64
16224 On ch=1 n=g#5 v=46
16320 Off ch=1 n=g#5 v=64
16320 On ch=1 n=d#5 v=46
16416 Off ch=1 n=d#5 v=64
16416 On ch=1 n=g#5 v=46
16512 Off ch=1 n=g#5 v=64
16512 On ch=1 n=d#6 v=53
16608 Off ch=1 n=d#6 v=64
16608 On ch=1 n=g#5 v=46
16704 Off ch=1 n=g#5 v=64
16704 On ch=1 n=d#6 v=53
16800 Off ch=1 n=d#6 v=64
16800 On ch=1 n=g#5 v=46
16896 Off ch=1 n=g#5 v=64
16896 On ch=1 n=d#5 v=46
16992 Off ch=1 n=d#5 v=64
16992 On ch=1 n=g#5 v=46
17088 Off ch=1 n=g#5 v=64
17088 On ch=1 n=d#6 v=53
17184 Off ch=1 n=d#6 v=64
17184 On ch=1 n=g#5 v=46
17280 Off ch=1 n=g#5 v=64
17280 On ch=1 n=g#6 v=53
17376 Off ch=1 n=g#6 v=64
17376 On ch=1 n=d#6 v=46
17472 Off ch=1 n=d#6 v=64
17472 On ch=1 n=g#5 v=46
17568 Off ch=1 n=g#5 v=64
17568 On ch=1 n=d#6 v=46
17664 Off ch=1 n=d#6 v=64
17664 On ch=1 n=g#6 v=53
17760 Off ch=1 n=g#6 v=64
17760 On ch=1 n=d#6 v=46
17856 Off ch=1 n=d#6 v=64
17856 On ch=1 n=g#6 v=53
17952 Off ch=1 n=g#6 v=64
17952 On ch=1 n=d#6 v=46
18048 Off ch=1 n=d#6 v=64
18048 On ch=1 n=g#5 v=46
18144 Off ch=1 n=g#5 v=64
18144 On ch=1 n=d#6 v=46
18240 Off ch=1 n=d#6 v=64
18240 On ch=1 n=g#6 v=53
18336 Off ch=1 n=g#6 v=64
18336 On ch=1 n=d#6 v=46
18432 Off ch=1 n=d#6 v=64
18432 On ch=1 n=g#6 v=53
18528 Off ch=1 n=g#6 v=64
18528 On ch=1 n=d#6 v=47
18624 Off ch=1 n=d#6 v=64
18624 On ch=1 n=g#5 v=47
18720 Off ch=1 n=g#5 v=64
18720 On ch=1 n=d#6 v=47
18816 Off ch=1 n=d#6 v=64
18816 On ch=1 n=g#6 v=53
18912 Off ch=1 n=g#6 v=64
18912 On ch=1 n=d#6 v=47
19008 Off ch=1 n=d#6 v=64
19008 On ch=1 n=g#6 v=53
19104 Off ch=1 n=g#6 v=64
19104 On ch=1 n=d#6 v=47
19200 Off ch=1 n=d#6 v=64
19200 On ch=1 n=g#5 v=47
19296 Off ch=1 n=g#5 v=64
19296 On ch=1 n=d#6 v=47
19392 Off ch=1 n=d#6 v=64
19392 On ch=1 n=g#6 v=53
19488 Off ch=1 n=g#6 v=64
19488 On ch=1 n=d#6 v=47
19584 Off ch=1 n=d#6 v=64
19584 On ch=1 n=g#6 v=53
19680 Off ch=1 n=g#6 v=64
19680 On ch=1 n=d#6 v=47
19776 Off ch=1 n=d#6 v=64
19776 On ch=1 n=g#5 v=47
19872 Off ch=1 n=g#5 v=64
19872 On ch=1 n=d#6 v=47
19968 Off ch=1 n=d#6 v=64
19968 On ch=1 n=g#6 v=53
20064 Off ch=1 n=g#6 v=64
20064 On ch=1 n=d#6 v=47
20160 Off ch=1 n=d#6 v=64
20160 On ch=1 n=g#6 v=53
20256 Off ch=1 n=g#6 v=64
20256 On ch=1 n=d#6 v=47
20352 Off ch=1 n=d#6 v=64
20352 On ch=1 n=g#5 v=47
20448 Off ch=1 n=g#5 v=64
20448 On ch=1 n=d#6 v=47
20544 Off ch=1 n=d#6 v=64
20544 On ch=1 n=g#6 v=53
20640 Off ch=1 n=g#6 v=64
20640 On ch=1 n=d#6 v=47
20736 Off ch=1 n=d#6 v=64
20736 On ch=1 n=g#6 v=53
20832 Off ch=1 n=g#6 v=64
20832 On ch=1 n=d#6 v=47
20928 Off ch=1 n=d#6 v=64
20928 On ch=1 n=g#5 v=47
21024 Off ch=1 n=g#5 v=64
21024 On ch=1 n=d#6 v=47
21120 Off ch=1 n=d#6 v=64
21120 On ch=1 n=g#6 v=53
21216 Off ch=1 n=g#6 v=64
21216 On ch=1 n=d#6 v=47
21312 Off ch=1 n=d#6 v=64
21312 On ch=1 n=g#6 v=53
21408 Off ch=1 n=g#6 v=64
21408 On ch=1 n=d#6 v=47
21504 Off ch=1 n=d#6 v=64
21504 On ch=1 n=g#5 v=47
21600 Off ch=1 n=g#5 v=64
21600 On ch=1 n=d#6 v=47
21696 Off ch=1 n=d#6 v=64
21696 On ch=1 n=g#6 v=53
21792 Off ch=1 n=g#6 v=64
21792 On ch=1 n=d#6 v=47
21888 Off ch=1 n=d#6 v=64
21888 On ch=1 n=g#6 v=53
21984 Off ch=1 n=g#6 v=64
21984 On ch=1 n=d#6 v=47
22080 Off ch=1 n=d#6 v=64
22080 On ch=1 n=g#5 v=47
22176 Off ch=1 n=g#5 v=64
22176 On ch=1 n=d#6 v=47
22272 Off ch=1 n=d#6 v=64
22272 On ch=1 n=g#6 v=53
22368 Off ch=1 n=g#6 v=64
22368 On ch=1 n=d#6 v=47
22464 Off ch=1 n=d#6 v=64
22464 On ch=1 n=g#6 v=53
22560 Off ch=1 n=g#6 v=64
22560 On ch=1 n=g#5 v=47
22656 Off ch=1 n=g#5 v=64
22656 On ch=1 n=d#6 v=47
22752 Off ch=1 n=d#6 v=64
22752 On ch=1 n=g#6 v=47
22848 Off ch=1 n=g#6 v=64
22848 On ch=1 n=d#6 v=53
22944 Off ch=1 n=d#6 v=64
22944 On ch=1 n=e6 v=47
23040 Off ch=1 n=e6 v=64
23040 On ch=1 n=g#6 v=49
23136 Off ch=1 n=g#6 v=64
23136 On ch=1 n=d#6 v=53
23232 Off ch=1 n=d#6 v=64
23232 On ch=1 n=g#5 v=53
23328 Off ch=1 n=g#5 v=64
23328 On ch=1 n=d#6 v=53
23424 Off ch=1 n=d#6 v=64
23424 On ch=1 n=g#6 v=49
23520 Off ch=1 n=g#6 v=64
23520 On ch=1 n=d#6 v=53
23616 Off ch=1 n=d#6 v=64
23616 On ch=1 n=g#6 v=49
23712 Off ch=1 n=g#6 v=64
23712 On ch=1 n=d#6 v=53
23808 Off ch=1 n=d#6 v=64
23808 On ch=1 n=g#5 v=53
23904 Off ch=1 n=g#5 v=64
23904 On ch=1 n=d#6 v=53
24000 Off ch=1 n=d#6 v=64
24000 On ch=1 n=g#6 v=49
24096 Off ch=1 n=g#6 v=64
24096 On ch=1 n=d#6 v=53
24192 Off ch=1 n=d#6 v=64
24192 On ch=1 n=g#6 v=49
24288 Off ch=1 n=g#6 v=64
24288 On ch=1 n=d#6 v=53
24384 Off ch=1 n=d#6 v=64
24384 On ch=1 n=g#5 v=53
24480 Off ch=1 n=g#5 v=64
24480 On ch=1 n=d#6 v=53
24576 Off ch=1 n=d#6 v=64
24576 On ch=1 n=g#6 v=49
24672 Off ch=1 n=g#6 v=64
24672 On ch=1 n=d#6 v=53
24768 Off ch=1 n=d#6 v=64
24768 On ch=1 n=g6 v=49
24864 Off ch=1 n=g6 v=64
24864 On ch=1 n=b5 v=53
24960 Off ch=1 n=b5 v=64
24960 On ch=1 n=g5 v=53
25056 Off ch=1 n=g5 v=64
25056 On ch=1 n=b5 v=53
25152 Off ch=1 n=b5 v=64
25152 On ch=1 n=g6 v=49
25248 Off ch=1 n=g6 v=64
25248 On ch=1 n=b5 v=53
25344 Off ch=1 n=b5 v=64
25344 On ch=1 n=f#6 v=49
25440 Off ch=1 n=f#6 v=64
25440 On ch=1 n=b5 v=53
25536 Off ch=1 n=b5 v=64
25536 On ch=1 n=f#5 v=53
25632 Off ch=1 n=f#5 v=64
25632 On ch=1 n=b5 v=53
25728 Off ch=1 n=b5 v=64
25728 On ch=1 n=f#6 v=43
25824 Off ch=1 n=f#6 v=64
25824 On ch=1 n=e6 v=35
25920 Off ch=1 n=e6 v=64
25920 On ch=1 n=d#6 v=48
26016 Off ch=1 n=d#6 v=64
26016 On ch=1 n=f#5 v=51
26112 Off ch=1 n=f#5 v=64
26112 On ch=1 n=d#5 v=51
26208 Off ch=1 n=d#5 v=64
26208 On ch=1 n=f#5 v=51
26304 Off ch=1 n=f#5 v=64
26304 On ch=1 n=d#6 v=48
26400 Off ch=1 n=d#6 v=64
26400 On ch=1 n=f#5 v=51
26496 Off ch=1 n=f#5 v=64
26496 On ch=1 n=d#6 v=48
26592 Off ch=1 n=d#6 v=64
26592 On ch=1 n=f#5 v=51
26688 Off ch=1 n=f#5 v=64
26688 On ch=1 n=d#5 v=51
26784 Off ch=1 n=d#5 v=64
26784 On ch=1 n=f#5 v=51
26880 Off ch=1 n=f#5 v=64
26880 On ch=1 n=d#6 v=48
26976 Off ch=1 n=d#6 v=64
26976 On ch=1 n=f#5 v=51
27072 Off ch=1 n=f#5 v=64
27072 On ch=1 n=d#6 v=48
27168 Off ch=1 n=d#6 v=64
27168 On ch=1 n=g5 v=51
27264 Off ch=1 n=g5 v=64
27264 On ch=1 n=c#5 v=51
27360 Off ch=1 n=c#5 v=64
27360 On ch=1 n=g5 v=51
27456 Off ch=1 n=g5 v=64
27456 On ch=1 n=d#6 v=58
27552 Off ch=1 n=d#6 v=64
27552 On ch=1 n=g5 v=51
27648 Off ch=1 n=g5 v=64
27648 On ch=1 n=d#6 v=51
27744 Off ch=1 n=d#6 v=64
27744 On ch=1 n=g#5 v=51
27840 Off ch=1 n=g#5 v=64
27840 On ch=1 n=d#5 v=51
27936 Off ch=1 n=d#5 v=64
27936 On ch=1 n=g#5 v=51
28032 Off ch=1 n=g#5 v=64
28032 On ch=1 n=d#6 v=51
28128 Off ch=1 n=d#6 v=64
28128 On ch=1 n=g#5 v=51
28224 Off ch=1 n=g#5 v=64
28224 On ch=1 n=d#6 v=51
28320 Off ch=1 n=d#6 v=64
28320 On ch=1 n=g#5 v=51
28416 Off ch=1 n=g#5 v=64
28416 On ch=1 n=d#5 v=51
28512 Off ch=1 n=d#5 v=64
28512 On ch=1 n=g#5 v=51
28608 Off ch=1 n=g#5 v=64
28608 On ch=1 n=d#6 v=51
28704 Off ch=1 n=d#6 v=64
28704 On ch=1 n=g#5 v=51
28800 Off ch=1 n=g#5 v=64
28800 On ch=1 n=d#6 v=57
28896 Off ch=1 n=d#6 v=64
28896 On ch=1 n=g5 v=57
28992 Off ch=1 n=g5 v=64
28992 On ch=1 n=d#5 v=57
29088 Off ch=1 n=d#5 v=64
29088 On ch=1 n=g5 v=57
29184 Off ch=1 n=g5 v=64
29184 On ch=1 n=d#6 v=57
29280 Off ch=1 n=d#6 v=64
29280 On ch=1 n=g5 v=57
29376 Off ch=1 n=g5 v=64
29376 On ch=1 n=d#6 v=57
29472 Off ch=1 n=d#6 v=64
29472 On ch=1 n=g5 v=57
29568 Off ch=1 n=g5 v=64
29568 On ch=1 n=d#5 v=57
29664 Off ch=1 n=d#5 v=64
29664 On ch=1 n=g5 v=57
29760 Off ch=1 n=g5 v=64
29760 On ch=1 n=d#6 v=57
29856 Off ch=1 n=d#6 v=64
29856 On ch=1 n=g5 v=57
29952 Off ch=1 n=g5 v=64
29952 On ch=1 n=d#6 v=57
30048 Off ch=1 n=d#6 v=64
30048 On ch=1 n=g#5 v=57
30144 Off ch=1 n=g#5 v=64
30144 On ch=1 n=d#5 v=57
30240 Off ch=1 n=d#5 v=64
30240 On ch=1 n=g#5 v=57
30336 Off ch=1 n=g#5 v=64
30336 On ch=1 n=d#6 v=57
30432 Off ch=1 n=d#6 v=64
30432 On ch=1 n=g#5 v=57
30528 Off ch=1 n=g#5 v=64
30528 On ch=1 n=d#6 v=57
30624 Off ch=1 n=d#6 v=64
30624 On ch=1 n=g#5 v=57
30720 Off ch=1 n=g#5 v=64
30720 On ch=1 n=d#5 v=57
30816 Off ch=1 n=d#5 v=64
30816 On ch=1 n=g#5 v=57
30912 Off ch=1 n=g#5 v=64
30912 On ch=1 n=d#6 v=57
31008 Off ch=1 n=d#6 v=64
31008 On ch=1 n=g#5 v=57
31104 Off ch=1 n=g#5 v=64
31104 On ch=1 n=d#6 v=57
31200 Off ch=1 n=d#6 v=64
31200 On ch=1 n=a#5 v=57
31296 Off ch=1 n=a#5 v=64
31296 On ch=1 n=d#5 v=57
31392 Off ch=1 n=d#5 v=64
31392 On ch=1 n=a#5 v=57
31488 Off ch=1 n=a#5 v=64
31488 On ch=1 n=d#6 v=57
31584 Off ch=1 n=d#6 v=64
31584 On ch=1 n=a#5 v=57
31680 Off ch=1 n=a#5 v=64
31680 On ch=1 n=d#6 v=57
31776 Off ch=1 n=d#6 v=64
31776 On ch=1 n=a#5 v=57
31872 Off ch=1 n=a#5 v=64
31872 On ch=1 n=d#5 v=57
31968 Off ch=1 n=d#5 v=64
31968 On ch=1 n=a#5 v=57
32064 Off ch=1 n=a#5 v=64
32064 On ch=1 n=d#6 v=57
32160 Off ch=1 n=d#6 v=64
32160 On ch=1 n=a#5 v=57
32256 Off ch=1 n=a#5 v=64
32352 On ch=1 n=b5 v=49
32448 Off ch=1 n=b5 v=64
32448 On ch=1 n=d#6 v=49
32544 Off ch=1 n=d#6 v=64
32544 On ch=1 n=b5 v=49
32640 Off ch=1 n=b5 v=64
32640 On ch=1 n=d#5 v=49
32736 Off ch=1 n=d#5 v=64
32736 On ch=1 n=b5 v=49
32832 Off ch=1 n=b5 v=64
32928 On ch=1 n=b5 v=49
33024 Off ch=1 n=b5 v=64
33024 On ch=1 n=d6 v=49
33120 Off ch=1 n=d6 v=64
33120 On ch=1 n=b5 v=49
33216 Off ch=1 n=b5 v=64
33216 On ch=1 n=d5 v=49
33312 Off ch=1 n=d5 v=64
33312 On ch=1 n=b5 v=49
33408 Off ch=1 n=b5 v=64
33408 On ch=1 n=d#5 v=81
33408 On ch=1 n=a#5 v=51
33408 On ch=1 n=d#6 v=51
33600 Off ch=1 n=d#6 v=15
33600 Off ch=1 n=a#5 v=13
33600 On ch=1 n=d#6 v=56
33696 Off ch=1 n=d#6 v=11
33696 On ch=1 n=a#6 v=58
33792 Off ch=1 n=a#6 v=7
33792 On ch=1 n=d#7 v=61
33888 Off ch=1 n=d#7 v=8
33888 On ch=1 n=a#6 v=63
33984 Off ch=1 n=a#6 v=7
33984 On ch=1 n=d#7 v=66
34080 Off ch=1 n=d#7 v=8
34080 On ch=1 n=a#6 v=69
34176 Off ch=1 n=a#6 v=7
34176 On ch=1 n=d#6 v=71
34272 Off ch=1 n=d#6 v=9
34272 On ch=1 n=a#6 v=75
34368 Off ch=1 n=a#6 v=7
34368 Off ch=1 n=d#5 v=13
34368 On ch=1 n=d#7 v=77
34464 Off ch=1 n=d#7 v=8
34464 On ch=1 n=a#6 v=80
34560 Off ch=1 n=a#6 v=7
34560 On ch=1 n=d#7 v=81
34656 Off ch=1 n=d#7 v=8
34656 On ch=1 n=a#6 v=85
34752 Off ch=1 n=a#6 v=7
34752 On ch=1 n=d#6 v=87
34848 Off ch=1 n=d#6 v=9
34848 On ch=1 n=a#6 v=91
34944 Off ch=1 n=a#6 v=7
34944 On ch=1 n=d#7 v=92
35040 Off ch=1 n=d#7 v=8
35040 On ch=1 n=a#6 v=95
35136 Off ch=1 n=a#6 v=4
35136 On ch=1 n=d#6 v=87
35136 On ch=1 n=b6 v=83
35136 On ch=1 n=d#7 v=86
35520 Off ch=1 n=d#7 v=11
35520 Off ch=1 n=b6 v=13
35520 Off ch=1 n=d#6 v=11
35520 On ch=1 n=f#6 v=80
35520 On ch=1 n=f#7 v=81
35712 Off ch=1 n=f#7 v=10
35712 Off ch=1 n=f#6 v=6
35712 On ch=1 n=d#6 v=87
35712 On ch=1 n=a#6 v=79
35712 On ch=1 n=d#7 v=81
35904 Off ch=1 n=a#6 v=13
35904 Off ch=1 n=d#6 v=15
35904 On ch=1 n=d#6 v=83
36000 Off ch=1 n=d#6 v=11
36000 On ch=1 n=a#6 v=75
36096 Off ch=1 n=a#6 v=7
36096 On ch=1 n=d#7 v=80
36192 Off ch=1 n=d#7 v=8
36192 On ch=1 n=a#6 v=75
36288 Off ch=1 n=a#6 v=7
36288 On ch=1 n=d#7 v=79
36384 Off ch=1 n=d#7 v=8
36384 On ch=1 n=a#6 v=78
36480 Off ch=1 n=a#6 v=7
36480 On ch=1 n=d#6 v=77
36576 Off ch=1 n=d#6 v=9
36576 On ch=1 n=a#6 v=75
36672 Off ch=1 n=a#6 v=7
36672 Off ch=1 n=d#7 v=13
36672 On ch=1 n=d#7 v=75
36768 Off ch=1 n=d#7 v=8
36768 On ch=1 n=a#6 v=75
36864 Off ch=1 n=a#6 v=7
36864 On ch=1 n=d#7 v=79
36960 Off ch=1 n=d#7 v=8
36960 On ch=1 n=a#6 v=73
37056 Off ch=1 n=a#6 v=7
37056 On ch=1 n=d#6 v=71
37152 Off ch=1 n=d#6 v=9
37152 On ch=1 n=a#6 v=75
37248 Off ch=1 n=a#6 v=7
37248 On ch=1 n=d#7 v=73
37344 Off ch=1 n=d#7 v=8
37344 On ch=1 n=a#6 v=75
37440 Off ch=1 n=a#6 v=4
37440 On ch=1 n=d#6 v=87
37440 On ch=1 n=a6 v=83
37440 On ch=1 n=d#7 v=86
37824 Off ch=1 n=d#7 v=11
37824 Off ch=1 n=a6 v=13
37824 Off ch=1 n=d#6 v=11
37824 On ch=1 n=f#6 v=80
37824 On ch=1 n=f#7 v=81
38016 Off ch=1 n=f#7 v=10
38016 Off ch=1 n=f#6 v=6
38016 On ch=1 n=d#6 v=81
38016 On ch=1 n=g#6 v=79
38016 On ch=1 n=d#7 v=87
38208 On ch=1 n=d#6 v=83
38304 Off ch=1 n=d#6 v=11
38304 On ch=1 n=g#6 v=75
38400 Off ch=1 n=g#6 v=7
38400 On ch=1 n=d#7 v=80
38496 Off ch=1 n=d#7 v=8
38496 On ch=1 n=g#6 v=75
38592 Off ch=1 n=g#6 v=7
38592 On ch=1 n=d#7 v=79
38688 Off ch=1 n=d#7 v=8
38688 On ch=1 n=g#6 v=78
38784 Off ch=1 n=g#6 v=7
38784 On ch=1 n=d#6 v=77
38880 Off ch=1 n=d#6 v=9
38880 On ch=1 n=g#6 v=75
38976 Off ch=1 n=g#6 v=7
38976 Off ch=1 n=d#7 v=15
38976 Off ch=1 n=g#6 v=13
38976 Off ch=1 n=d#6 v=13
38976 On ch=1 n=d#7 v=75
39072 Off ch=1 n=d#7 v=8
39072 On ch=1 n=g#6 v=75
39168 Off ch=1 n=g#6 v=7
39168 On ch=1 n=d#7 v=79
39264 Off ch=1 n=d#7 v=8
39264 On ch=1 n=g#6 v=73
39360 Off ch=1 n=g#6 v=7
39360 On ch=1 n=d#6 v=71
39456 Off ch=1 n=d#6 v=9
39456 On ch=1 n=g#6 v=75
39552 Off ch=1 n=g#6 v=7
39552 On ch=1 n=d#7 v=73
39648 Off ch=1 n=d#7 v=8
39648 On ch=1 n=g#6 v=75
39744 Off ch=1 n=g#6 v=4
39744 On ch=1 n=d#6 v=86
39744 On ch=1 n=g6 v=87
39744 On ch=1 n=d#7 v=83
40128 Off ch=1 n=d#7 v=13
40128 Off ch=1 n=g6 v=11
40128 Off ch=1 n=d#6 v=11
40128 On ch=1 n=f#6 v=80
40128 On ch=1 n=f#7 v=81
40320 Off ch=1 n=f#7 v=10
40320 Off ch=1 n=f#6 v=6
40320 On ch=1 n=d#6 v=79
40320 On ch=1 n=f#6 v=81
40320 On ch=1 n=d#7 v=87
40512 On ch=1 n=d#6 v=83
40608 Off ch=1 n=d#6 v=11
40608 On ch=1 n=f#6 v=75
40704 Off ch=1 n=f#6 v=7
40704 On ch=1 n=d#7 v=80
40800 Off ch=1 n=d#7 v=8
40800 On ch=1 n=f#6 v=75
40896 Off ch=1 n=f#6 v=7
40896 On ch=1 n=d#7 v=79
40992 Off ch=1 n=d#7 v=8
40992 On ch=1 n=f#6 v=78
41088 Off ch=1 n=f#6 v=7
41088 On ch=1 n=d#6 v=77
41184 Off ch=1 n=d#6 v=9
41184 On ch=1 n=f#6 v=75
41280 Off ch=1 n=f#6 v=7
41280 Off ch=1 n=d#7 v=15
41280 Off ch=1 n=f#6 v=13
41280 Off ch=1 n=d#6 v=13
41280 On ch=1 n=d#7 v=75
41376 Off ch=1 n=d#7 v=8
41376 On ch=1 n=f#6 v=75
41472 Off ch=1 n=f#6 v=7
41472 On ch=1 n=d#7 v=79
41568 Off ch=1 n=d#7 v=8
41568 On ch=1 n=f#6 v=73
41664 Off ch=1 n=f#6 v=7
41664 On ch=1 n=d#6 v=71
41760 Off ch=1 n=d#6 v=9
41760 On ch=1 n=f#6 v=75
41856 Off ch=1 n=f#6 v=7
41856 On ch=1 n=d#7 v=73
41952 Off ch=1 n=d#7 v=8
41952 On ch=1 n=f#6 v=75
42048 Off ch=1 n=f#6 v=4
42048 On ch=1 n=d#6 v=83
42048 On ch=1 n=d#7 v=87
42432 Off ch=1 n=d#7 v=11
42432 Off ch=1 n=d#6 v=13
42432 On ch=1 n=f#6 v=80
42432 On ch=1 n=f#7 v=81
42624 Off ch=1 n=f#7 v=10
42624 Off ch=1 n=f#6 v=6
42720 On ch=1 n=d#6 v=92
42720 On ch=1 n=d#7 v=89
43206 On ch=1 n=d#7 v=87
44160 Off ch=1 n=d#7 v=7
44160 Off ch=1 n=d#6 v=7
44164 Off ch=1 n=d#7 v=8
44178 On ch=1 n=c#7 v=69
44312 Off ch=1 n=c#7 v=8
44312 On ch=1 n=b6 v=77
44354 Off ch=1 n=b6 v=7
44360 On ch=1 n=c#7 v=69
44414 On ch=1 n=b6 v=81
44432 Off ch=1 n=c#7 v=8
44522 Off ch=1 n=b6 v=5
44566 On ch=1 n=a#6 v=71
44750 On ch=1 n=g#6 v=77
44764 Off ch=1 n=a#6 v=7
44934 Off ch=1 n=g#6 v=12
44940 On ch=1 n=f#6 v=73
45462 Off ch=1 n=f#6 v=4
45526 On ch=1 n=a#6 v=80
46466 On ch=1 n=g#6 v=70
46472 Off ch=1 n=a#6 v=7
46570 Off ch=1 n=g#6 v=12
46574 On ch=1 n=f#6 v=70
46626 Off ch=1 n=f#6 v=10
46626 On ch=1 n=g#6 v=80
46684 On ch=1 n=f#6 v=71
46694 Off ch=1 n=g#6 v=9
46846 Off ch=1 n=f#6 v=10
46852 On ch=1 n=e6 v=63
47038 On ch=1 n=d#6 v=75
47048 Off ch=1 n=e6 v=6
47236 On ch=1 n=c#6 v=80
47246 Off ch=1 n=d#6 v=10
47712 Off ch=1 n=c#6 v=8
47806 On ch=1 n=g#6 v=83
48776 Off ch=1 n=g#6 v=8
48776 On ch=1 n=f#6 v=69
48880 On ch=1 n=e6 v=71
48882 Off ch=1 n=f#6 v=7
48920 Off ch=1 n=e6 v=9
48924 On ch=1 n=f#6 v=75
48968 On ch=1 n=e6 v=73
48976 Off ch=1 n=f#6 v=7
49158 On ch=1 n=d#6 v=78
49166 Off ch=1 n=e6 v=8
49346 Off ch=1 n=d#6 v=12
49352 On ch=1 n=c#6 v=79
49548 Off ch=1 n=c#6 v=11
49548 On ch=1 n=b5 v=77
50028 Off ch=1 n=b5 v=7
50110 On ch=1 n=e6 v=83
51084 On ch=1 n=d#6 v=70
51096 Off ch=1 n=e6 v=6
51260 On ch=1 n=c#6 v=73
51280 Off ch=1 n=d#6 v=6
51454 Off ch=1 n=c#6 v=11
51456 On ch=1 n=b5 v=75
51648 On ch=1 n=a#5 v=70
51652 Off ch=1 n=b5 v=8
51840 On ch=1 n=d#6 v=71
52032 On ch=1 n=g6 v=45
52032 On ch=1 n=a#6 v=45
52128 Off ch=1 n=a#6 v=9
52128 Off ch=1 n=g6 v=8
52128 On ch=1 n=d#6 v=45
52224 Off ch=1 n=d#6 v=9
52224 On ch=1 n=g6 v=45
52224 On ch=1 n=a#6 v=45
52320 Off ch=1 n=a#6 v=8
52320 Off ch=1 n=g6 v=8
52320 On ch=1 n=a#5 v=45
52416 Off ch=1 n=a#5 v=10
52416 Off ch=1 n=d#6 v=4
52416 Off ch=1 n=a#5 v=14
52608 On ch=1 n=g6 v=46
52608 On ch=1 n=a#6 v=46
52704 Off ch=1 n=a#6 v=8
52704 Off ch=1 n=g6 v=8
52704 On ch=1 n=d#6 v=46
52800 Off ch=1 n=d#6 v=9
52800 On ch=1 n=g6 v=47
52800 On ch=1 n=a#6 v=47
52896 Off ch=1 n=a#6 v=8
52896 Off ch=1 n=g6 v=9
52896 On ch=1 n=a#5 v=47
52992 Off ch=1 n=a#5 v=10
53184 On ch=1 n=g6 v=48
53184 On ch=1 n=a#6 v=48
53280 Off ch=1 n=a#6 v=7
53280 Off ch=1 n=g6 v=8
53280 On ch=1 n=d#6 v=48
53376 Off ch=1 n=d#6 v=9
53376 On ch=1 n=g6 v=49
53376 On ch=1 n=a#6 v=49
53472 Off ch=1 n=a#6 v=8
53472 Off ch=1 n=g6 v=8
53472 On ch=1 n=a#5 v=49
53568 Off ch=1 n=a#5 v=8
53760 On ch=1 n=g6 v=51
53760 On ch=1 n=b6 v=51
53856 Off ch=1 n=b6 v=9
53856 Off ch=1 n=g6 v=8
53856 On ch=1 n=d#6 v=51
53952 Off ch=1 n=d#6 v=9
53952 On ch=1 n=g6 v=51
53952 On ch=1 n=b6 v=51
54048 Off ch=1 n=b6 v=10
54048 Off ch=1 n=g6 v=8
54048 On ch=1 n=b5 v=51
54144 Off ch=1 n=b5 v=11
54336 On ch=1 n=d#6 v=52
54336 On ch=1 n=g6 v=52
54336 On ch=1 n=c#7 v=52
54432 Off ch=1 n=c#7 v=8
54432 Off ch=1 n=g6 v=9
54432 Off ch=1 n=d#6 v=8
54432 On ch=1 n=c#6 v=52
54528 Off ch=1 n=c#6 v=9
54528 On ch=1 n=d#6 v=52
54528 On ch=1 n=g6 v=52
54528 On ch=1 n=c#7 v=52
54624 Off ch=1 n=c#7 v=8
54624 Off ch=1 n=g6 v=8
54624 Off ch=1 n=d#6 v=8
54624 On ch=1 n=c#6 v=52
54720 Off ch=1 n=c#6 v=10
54912 On ch=1 n=g6 v=53
54912 On ch=1 n=a#6 v=53
55008 Off ch=1 n=a#6 v=8
55008 Off ch=1 n=g6 v=8
55008 On ch=1 n=d#6 v=53
55104 Off ch=1 n=d#6 v=9
55104 On ch=1 n=g6 v=53
55104 On ch=1 n=a#6 v=53
55200 Off ch=1 n=a#6 v=8
55200 Off ch=1 n=g6 v=9
55200 On ch=1 n=a#5 v=53
55296 Off ch=1 n=a#5 v=10
55488 On ch=1 n=g6 v=56
55488 On ch=1 n=a#6 v=56
55584 Off ch=1 n=a#6 v=7
55584 Off ch=1 n=g6 v=8
55584 On ch=1 n=d#6 v=56
55680 Off ch=1 n=d#6 v=9
55680 On ch=1 n=g6 v=57
55680 On ch=1 n=a#6 v=57
55776 Off ch=1 n=a#6 v=8
55776 Off ch=1 n=g6 v=8
55776 On ch=1 n=a#5 v=57
55872 Off ch=1 n=a#5 v=8
56064 On ch=1 n=g6 v=57
56064 On ch=1 n=b6 v=57
56160 Off ch=1 n=b6 v=9
56160 Off ch=1 n=g6 v=8
56160 On ch=1 n=d#6 v=57
56256 Off ch=1 n=d#6 v=9
56256 On ch=1 n=g6 v=58
56256 On ch=1 n=b6 v=58
56352 Off ch=1 n=b6 v=10
56352 Off ch=1 n=g6 v=8
56352 On ch=1 n=b5 v=58
56448 Off ch=1 n=b5 v=11
56640 On ch=1 n=d#6 v=59
56640 On ch=1 n=g6 v=59
56640 On ch=1 n=c#7 v=59
56736 Off ch=1 n=c#7 v=8
56736 Off ch=1 n=g6 v=9
56736 Off ch=1 n=d#6 v=8
56736 On ch=1 n=c#6 v=60
56832 Off ch=1 n=c#6 v=9
56832 On ch=1 n=d#6 v=60
56832 On ch=1 n=g6 v=60
56832 On ch=1 n=c#7 v=60
56928 Off ch=1 n=c#7 v=8
56928 Off ch=1 n=g6 v=8
56928 Off ch=1 n=d#6 v=8
56928 On ch=1 n=c#6 v=60
57024 Off ch=1 n=c#6 v=10
57216 On ch=1 n=g6 v=61
57216 On ch=1 n=b6 v=61
57312 Off ch=1 n=b6 v=8
57312 Off ch=1 n=g6 v=8
57312 On ch=1 n=e6 v=62
57408 Off ch=1 n=e6 v=9
57408 On ch=1 n=g6 v=62
57408 On ch=1 n=b6 v=62
57504 Off ch=1 n=b6 v=8
57504 Off ch=1 n=g6 v=9
57504 On ch=1 n=b5 v=63
57600 Off ch=1 n=b5 v=10
57792 On ch=1 n=g6 v=63
57792 On ch=1 n=b6 v=63
57888 Off ch=1 n=b6 v=7
57888 Off ch=1 n=g6 v=8
57888 On ch=1 n=e6 v=63
57984 Off ch=1 n=e6 v=9
57984 On ch=1 n=g6 v=63
57984 On ch=1 n=b6 v=63
58080 Off ch=1 n=b6 v=8
58080 Off ch=1 n=g6 v=8
58080 On ch=1 n=b5 v=63
58176 Off ch=1 n=b5 v=8
58368 On ch=1 n=b6 v=63
58368 On ch=1 n=c#7 v=63
58464 Off ch=1 n=c#7 v=9
58464 Off ch=1 n=b6 v=8
58464 On ch=1 n=g6 v=65
58560 Off ch=1 n=g6 v=9
58560 On ch=1 n=b6 v=65
58560 On ch=1 n=c#7 v=65
58656 Off ch=1 n=c#7 v=10
58656 Off ch=1 n=b6 v=8
58656 On ch=1 n=c#6 v=66
58752 Off ch=1 n=c#6 v=11
58944 On ch=1 n=g6 v=66
58944 On ch=1 n=b6 v=66
58944 On ch=1 n=d#7 v=66
59040 Off ch=1 n=d#7 v=8
59040 Off ch=1 n=b6 v=9
59040 Off ch=1 n=g6 v=8
59040 On ch=1 n=d#6 v=67
59136 Off ch=1 n=d#6 v=9
59136 On ch=1 n=g6 v=67
59136 On ch=1 n=b6 v=67
59136 On ch=1 n=d#7 v=67
59232 Off ch=1 n=d#7 v=8
59232 Off ch=1 n=b6 v=8
59232 Off ch=1 n=g6 v=8
59232 On ch=1 n=d#6 v=67
59328 Off ch=1 n=d#6 v=10
59520 On ch=1 n=g6 v=69
59520 On ch=1 n=b6 v=69
59616 Off ch=1 n=b6 v=8
59616 Off ch=1 n=g6 v=8
59616 On ch=1 n=e6 v=69
59712 Off ch=1 n=e6 v=9
59712 On ch=1 n=g6 v=69
59712 On ch=1 n=b6 v=69
59808 Off ch=1 n=b6 v=8
59808 Off ch=1 n=g6 v=9
59808 On ch=1 n=b5 v=69
59904 Off ch=1 n=b5 v=10
60096 On ch=1 n=g6 v=70
60096 On ch=1 n=b6 v=70
60192 Off ch=1 n=b6 v=7
60192 Off ch=1 n=g6 v=8
60192 On ch=1 n=e6 v=70
60288 Off ch=1 n=e6 v=9
60288 On ch=1 n=g6 v=70
60288 On ch=1 n=b6 v=70
60384 Off ch=1 n=b6 v=8
60384 Off ch=1 n=g6 v=8
60384 On ch=1 n=b5 v=71
60480 Off ch=1 n=b5 v=8
60672 On ch=1 n=b6 v=71
60672 On ch=1 n=c#7 v=71
60768 Off ch=1 n=c#7 v=9
60768 Off ch=1 n=b6 v=8
60768 On ch=1 n=g6 v=71
60864 Off ch=1 n=g6 v=9
60864 On ch=1 n=b6 v=71
60864 On ch=1 n=c#7 v=71
60960 Off ch=1 n=c#7 v=10
60960 Off ch=1 n=b6 v=8
60960 On ch=1 n=c#6 v=73
61056 Off ch=1 n=c#6 v=11
61248 On ch=1 n=g6 v=75
61248 On ch=1 n=b6 v=75
61248 On ch=1 n=d#7 v=75
61344 Off ch=1 n=d#7 v=8
61344 Off ch=1 n=b6 v=9
61344 Off ch=1 n=g6 v=8
61344 On ch=1 n=d#6 v=75
61440 Off ch=1 n=d#6 v=9
61440 On ch=1 n=g6 v=75
61440 On ch=1 n=b6 v=75
61440 On ch=1 n=d#7 v=75
61536 Off ch=1 n=d#7 v=8
61536 Off ch=1 n=b6 v=8
61536 Off ch=1 n=g6 v=8
61536 On ch=1 n=d#6 v=75
61632 Off ch=1 n=d#6 v=10
61824 On ch=1 n=b6 v=75
61824 On ch=1 n=c#7 v=75
61920 Off ch=1 n=c#7 v=8
61920 Off ch=1 n=b6 v=8
61920 On ch=1 n=g6 v=75
62016 Off ch=1 n=g6 v=9
62016 On ch=1 n=b6 v=75
62016 On ch=1 n=c#7 v=75
62112 Off ch=1 n=c#7 v=8
62112 Off ch=1 n=b6 v=9
62112 On ch=1 n=c#6 v=75
62208 Off ch=1 n=c#6 v=10
62400 On ch=1 n=b6 v=78
62400 On ch=1 n=c#7 v=78
62496 Off ch=1 n=c#7 v=7
62496 Off ch=1 n=b6 v=8
62496 On ch=1 n=g6 v=78
62592 Off ch=1 n=g6 v=9
62592 On ch=1 n=b6 v=78
62592 On ch=1 n=c#7 v=78
62688 Off ch=1 n=c#7 v=8
62688 Off ch=1 n=b6 v=8
62688 On ch=1 n=c#6 v=78
62784 Off ch=1 n=c#6 v=8
62976 On ch=1 n=g6 v=80
62976 On ch=1 n=b6 v=80
62976 On ch=1 n=d#7 v=80
63072 Off ch=1 n=d#7 v=9
63072 Off ch=1 n=b6 v=8
63072 Off ch=1 n=g6 v=8
63072 On ch=1 n=d#6 v=80
63168 Off ch=1 n=d#6 v=9
63168 On ch=1 n=g6 v=80
63168 On ch=1 n=b6 v=80
63168 On ch=1 n=d#7 v=80
63264 Off ch=1 n=d#7 v=9
63264 Off ch=1 n=b6 v=10
63264 Off ch=1 n=g6 v=8
63264 On ch=1 n=d#6 v=80
63360 Off ch=1 n=d#6 v=11
63552 On ch=1 n=g6 v=80
63552 On ch=1 n=b6 v=80
63552 On ch=1 n=e7 v=80
63648 Off ch=1 n=e7 v=8
63648 Off ch=1 n=b6 v=9
63648 Off ch=1 n=g6 v=8
63648 On ch=1 n=e6 v=80
63744 Off ch=1 n=e6 v=9
63744 On ch=1 n=g6 v=81
63744 On ch=1 n=b6 v=81
63744 On ch=1 n=e7 v=81
63840 Off ch=1 n=e7 v=8
63840 Off ch=1 n=b6 v=8
63840 Off ch=1 n=g6 v=8
63840 On ch=1 n=e6 v=81
63936 Off ch=1 n=e6 v=10
64128 On ch=1 n=g6 v=83
64128 On ch=1 n=b6 v=83
64128 On ch=1 n=c#7 v=83
64224 Off ch=1 n=c#7 v=8
64224 Off ch=1 n=b6 v=8
64224 Off ch=1 n=g6 v=8
64224 On ch=1 n=c#6 v=83
64320 Off ch=1 n=c#6 v=9
64320 On ch=1 n=g6 v=83
64320 On ch=1 n=b6 v=83
64320 On ch=1 n=c#7 v=83
64416 Off ch=1 n=c#7 v=8
64416 Off ch=1 n=b6 v=8
64416 Off ch=1 n=g6 v=9
64416 On ch=1 n=c#6 v=83
64512 Off ch=1 n=c#6 v=10
64704 On ch=1 n=g6 v=85
64704 On ch=1 n=b6 v=85
64704 On ch=1 n=c#7 v=85
64800 Off ch=1 n=c#7 v=7
64800 Off ch=1 n=b6 v=8
64800 Off ch=1 n=g6 v=7
64800 On ch=1 n=c#6 v=85
64896 Off ch=1 n=c#6 v=9
64896 On ch=1 n=g6 v=85
64896 On ch=1 n=b6 v=85
64896 On ch=1 n=c#7 v=85
64992 Off ch=1 n=c#7 v=8
64992 Off ch=1 n=b6 v=7
64992 Off ch=1 n=g6 v=8
64992 On ch=1 n=c#6 v=85
65088 Off ch=1 n=c#6 v=8
65280 On ch=1 n=g6 v=86
65280 On ch=1 n=b6 v=86
65280 On ch=1 n=d#7 v=86
65376 Off ch=1 n=d#7 v=9
65376 Off ch=1 n=b6 v=8
65376 Off ch=1 n=g6 v=8
65376 On ch=1 n=d#6 v=86
65472 Off ch=1 n=d#6 v=9
65472 On ch=1 n=g6 v=86
65472 On ch=1 n=b6 v=86
65472 On ch=1 n=d#7 v=86
65568 Off ch=1 n=d#7 v=9
65568 Off ch=1 n=b6 v=10
65568 Off ch=1 n=g6 v=8
65568 On ch=1 n=d#6 v=86
65664 Off ch=1 n=d#6 v=11
65856 On ch=1 n=g6 v=87
65856 On ch=1 n=b6 v=87
65856 On ch=1 n=e7 v=87
65952 Off ch=1 n=e7 v=8
65952 Off ch=1 n=b6 v=8
65952 Off ch=1 n=g6 v=5
65952 On ch=1 n=e6 v=89
66048 Off ch=1 n=e6 v=7
66048 On ch=1 n=g6 v=89
66048 On ch=1 n=b6 v=89
66048 On ch=1 n=e7 v=89
66144 Off ch=1 n=e7 v=8
66144 Off ch=1 n=b6 v=8
66144 Off ch=1 n=g6 v=6
66144 On ch=1 n=e6 v=89
66240 Off ch=1 n=e6 v=12
66432 On ch=1 n=c#7 v=89
66432 On ch=1 n=d#7 v=89
66432 On ch=1 n=f#7 v=89
66528 Off ch=1 n=f#7 v=5
66528 Off ch=1 n=d#7 v=8
66528 Off ch=1 n=c#7 v=8
66528 On ch=1 n=f#6 v=91
66624 Off ch=1 n=f#6 v=8
66624 On ch=1 n=c#7 v=91
66624 On ch=1 n=d#7 v=91
66624 On ch=1 n=f#7 v=91
66720 Off ch=1 n=f#7 v=12
66720 Off ch=1 n=d#7 v=9
66720 Off ch=1 n=c#7 v=7
66720 On ch=1 n=f#6 v=91
66816 Off ch=1 n=f#6 v=9
67008 On ch=1 n=c#7 v=92
67008 On ch=1 n=d#7 v=92
67008 On ch=1 n=f#7 v=92
67104 Off ch=1 n=f#7 v=11
67104 Off ch=1 n=d#7 v=5
67104 Off ch=1 n=c#7 v=9
67104 On ch=1 n=f#6 v=92
67200 Off ch=1 n=f#6 v=9
67200 On ch=1 n=c#7 v=92
67200 On ch=1 n=d#7 v=92
67200 On ch=1 n=f#7 v=92
67296 Off ch=1 n=f#7 v=11
67296 Off ch=1 n=d#7 v=11
67296 Off ch=1 n=c#7 v=7
67296 On ch=1 n=f#6 v=92
67392 Off ch=1 n=f#6 v=7
67392 On ch=1 n=g6 v=92
67392 On ch=1 n=c#7 v=92
67392 On ch=1 n=e7 v=92
67392 On ch=1 n=g7 v=92
67488 Off ch=1 n=g7 v=7
67488 Off ch=1 n=e7 v=8
67488 Off ch=1 n=c#7 v=7
67488 Off ch=1 n=g6 v=7
67584 On ch=1 n=g#6 v=92
67584 On ch=1 n=c#7 v=92
67584 On ch=1 n=e7 v=92
67584 On ch=1 n=g#7 v=92
67680 Off ch=1 n=g#7 v=6
67680 Off ch=1 n=e7 v=7
67680 Off ch=1 n=c#7 v=6
67680 Off ch=1 n=g#6 v=7
67776 On ch=1 n=a6 v=92
67776 On ch=1 n=c#7 v=92
67776 On ch=1 n=e7 v=92
67776 On ch=1 n=a7 v=92
67872 Off ch=1 n=a7 v=10
67872 Off ch=1 n=e7 v=9
67872 Off ch=1 n=c#7 v=10
67872 Off ch=1 n=a6 v=12
67968 On ch=1 n=a#6 v=94
67968 On ch=1 n=d#7 v=94
67968 On ch=1 n=a#7 v=94
68160 Off ch=1 n=a#7 v=11
68160 Off ch=1 n=d#7 v=11
68160 Off ch=1 n=a#6 v=3
68160 On ch=1 n=d#6 v=83
68256 Off ch=1 n=d#6 v=5
68256 On ch=1 n=c#6 v=83
68352 Off ch=1 n=c#6 v=7
68352 On ch=1 n=d#6 v=83
68448 Off ch=1 n=d#6 v=5
68448 On ch=1 n=a#5 v=85
68544 Off ch=1 n=a#5 v=6
68544 On ch=1 n=d#6 v=85
68640 Off ch=1 n=d#6 v=6
68640 On ch=1 n=c#6 v=85
68736 Off ch=1 n=c#6 v=5
68736 On ch=1 n=d#6 v=85
68832 Off ch=1 n=d#6 v=6
68832 On ch=1 n=a#5 v=86
68928 Off ch=1 n=a#5 v=7
68928 On ch=1 n=d#6 v=86
69024 Off ch=1 n=d#6 v=7
69024 On ch=1 n=c#6 v=86
69120 Off ch=1 n=c#6 v=5
69120 On ch=1 n=d#6 v=86
69216 Off ch=1 n=d#6 v=7
69216 On ch=1 n=c#6 v=86
69312 Off ch=1 n=c#6 v=5
69312 On ch=1 n=d#6 v=86
69408 Off ch=1 n=d#6 v=8
69408 On ch=1 n=c#6 v=87
69504 Off ch=1 n=c#6 v=6
69504 On ch=1 n=d#6 v=87
69600 Off ch=1 n=d#6 v=6
69600 On ch=1 n=c#6 v=87
69696 Off ch=1 n=c#6 v=6
69696 On ch=1 n=d#6 v=87
69792 Off ch=1 n=d#6 v=6
69792 On ch=1 n=c#6 v=89
69888 Off ch=1 n=c#6 v=6
69888 On ch=1 n=d#6 v=89
69984 Off ch=1 n=d#6 v=5
69984 On ch=1 n=c#6 v=89
70080 Off ch=1 n=c#6 v=7
70080 On ch=1 n=d#6 v=89
70176 Off ch=1 n=d#6 v=7
70176 On ch=1 n=c#6 v=89
70272 Off ch=1 n=c#6 v=13
70272 On ch=1 n=d#6 v=77
70368 Off ch=1 n=d#6 v=64
70368 On ch=1 n=c#6 v=77
70464 Off ch=1 n=c#6 v=64
70464 On ch=1 n=d#6 v=77
70560 Off ch=1 n=d#6 v=64
70560 On ch=1 n=a#5 v=77
70656 Off ch=1 n=a#5 v=64
70656 On ch=1 n=d#6 v=77
70752 Off ch=1 n=d#6 v=64
70752 On ch=1 n=c#6 v=77
70848 Off ch=1 n=c#6 v=64
70848 On ch=1 n=d#6 v=77
70944 Off ch=1 n=d#6 v=64
70944 On ch=1 n=a#5 v=77
71040 Off ch=1 n=a#5 v=64
71040 On ch=1 n=d#6 v=77
71136 Off ch=1 n=d#6 v=64
71136 On ch=1 n=c#6 v=77
71232 Off ch=1 n=c#6 v=64
71232 On ch=1 n=d#6 v=77
71328 Off ch=1 n=d#6 v=64
71328 On ch=1 n=a#5 v=77
71424 Off ch=1 n=a#5 v=64
71424 On ch=1 n=d#7 v=77
71520 Off ch=1 n=d#7 v=64
71520 On ch=1 n=d#6 v=77
71616 Off ch=1 n=d#6 v=64
71616 On ch=1 n=d#6 v=77
71712 Off ch=1 n=d#6 v=64
71712 On ch=1 n=c#6 v=77
71808 Off ch=1 n=c#6 v=64
71808 On ch=1 n=d#7 v=77
71904 Off ch=1 n=d#7 v=64
71904 On ch=1 n=d#6 v=77
72000 Off ch=1 n=d#6 v=64
72000 On ch=1 n=d#6 v=77
72096 Off ch=1 n=d#6 v=64
72096 On ch=1 n=c#6 v=77
72192 Off ch=1 n=c#6 v=64
72192 On ch=1 n=d#7 v=77
72288 Off ch=1 n=d#7 v=64
72288 On ch=1 n=d#6 v=77
72384 Off ch=1 n=d#6 v=64
72384 On ch=1 n=d#6 v=77
72480 Off ch=1 n=d#6 v=64
72480 On ch=1 n=c#6 v=77
72576 Off ch=1 n=c#6 v=64
72576 On ch=1 n=d#6 v=75
72672 Off ch=1 n=d#6 v=64
72672 On ch=1 n=c#6 v=69
72768 Off ch=1 n=c#6 v=64
72768 On ch=1 n=d#6 v=69
72864 Off ch=1 n=d#6 v=64
72864 On ch=1 n=a#5 v=57
72960 Off ch=1 n=a#5 v=64
73344 On ch=1 n=d#5 v=42
73440 Off ch=1 n=d#5 v=64
73440 On ch=1 n=c#5 v=46
73536 Off ch=1 n=c#5 v=64
73536 On ch=1 n=d#5 v=50
73632 Off ch=1 n=d#5 v=64
73632 On ch=1 n=c#5 v=53
73728 Off ch=1 n=c#5 v=64
73920 On ch=1 n=d#6 v=63
74016 Off ch=1 n=d#6 v=64
74016 On ch=1 n=c#6 v=67
74112 Off ch=1 n=c#6 v=64
74112 On ch=1 n=d#6 v=71
74208 Off ch=1 n=d#6 v=64
74208 On ch=1 n=c#6 v=75
74304 Off ch=1 n=c#6 v=64
74304 On ch=1 n=d#6 v=79
74400 Off ch=1 n=d#6 v=64
74400 On ch=1 n=c#6 v=81
74496 Off ch=1 n=c#6 v=64
74496 On ch=1 n=d#6 v=86
74592 Off ch=1 n=d#6 v=64
74592 On ch=1 n=c#6 v=89
74688 Off ch=1 n=c#6 v=64
74688 On ch=1 n=d#6 v=92
74784 Off ch=1 n=d#6 v=64
74784 On ch=1 n=c#6 v=97
74880 Off ch=1 n=c#6 v=64
74880 On ch=1 n=b5 v=99
74880 On ch=1 n=d#6 v=99
75456 Off ch=1 n=d#6 v=6
75456 Off ch=1 n=b5 v=7
75456 On ch=1 n=g#6 v=75
75552 Off ch=1 n=g#6 v=8
75552 On ch=1 n=d#6 v=92
75648 Off ch=1 n=d#6 v=9
75648 On ch=1 n=g#5 v=87
75744 Off ch=1 n=g#5 v=7
75744 On ch=1 n=d#6 v=87
75840 Off ch=1 n=d#6 v=7
75840 On ch=1 n=g#6 v=78
75936 Off ch=1 n=g#6 v=9
75936 On ch=1 n=d#6 v=91
76032 Off ch=1 n=d#6 v=7
76032 On ch=1 n=g#6 v=83
76128 Off ch=1 n=g#6 v=8
76128 On ch=1 n=d#6 v=89
76224 Off ch=1 n=d#6 v=8
76224 On ch=1 n=g#5 v=86
76320 Off ch=1 n=g#5 v=8
76320 On ch=1 n=d#6 v=89
76416 Off ch=1 n=d#6 v=7
76416 On ch=1 n=g#6 v=80
76512 Off ch=1 n=g#6 v=8
76512 On ch=1 n=d#6 v=86
76608 Off ch=1 n=d#6 v=7
76608 On ch=1 n=g#6 v=80
76704 Off ch=1 n=g#6 v=10
76704 On ch=1 n=d#6 v=95
76800 Off ch=1 n=d#6 v=8
76800 On ch=1 n=g#5 v=91
76896 Off ch=1 n=g#5 v=7
76896 On ch=1 n=d#6 v=85
76992 Off ch=1 n=d#6 v=9
76992 On ch=1 n=g#6 v=80
77088 Off ch=1 n=g#6 v=10
77088 On ch=1 n=d#6 v=91
77184 Off ch=1 n=d#6 v=9
77184 On ch=1 n=g#6 v=70
77280 Off ch=1 n=g#6 v=9
77280 On ch=1 n=d#6 v=78
77376 Off ch=1 n=d#6 v=8
77376 On ch=1 n=g#5 v=71
77472 Off ch=1 n=g#5 v=9
77472 On ch=1 n=d#6 v=77
77568 Off ch=1 n=d#6 v=7
77568 On ch=1 n=g#6 v=69
77664 Off ch=1 n=g#6 v=9
77664 On ch=1 n=d#6 v=80
77760 Off ch=1 n=d#6 v=8
77760 On ch=1 n=g#6 v=71
77856 Off ch=1 n=g#6 v=9
77856 On ch=1 n=d#6 v=80
77952 Off ch=1 n=d#6 v=8
77952 On ch=1 n=g#5 v=78
78048 Off ch=1 n=g#5 v=7
78048 On ch=1 n=d#6 v=78
78144 Off ch=1 n=d#6 v=7
78144 On ch=1 n=g#6 v=67
78240 Off ch=1 n=g#6 v=8
78240 On ch=1 n=d#6 v=83
78336 Off ch=1 n=d#6 v=8
78336 On ch=1 n=g#6 v=69
78432 Off ch=1 n=g#6 v=8
78432 On ch=1 n=d#6 v=80
78528 Off ch=1 n=d#6 v=8
78528 On ch=1 n=g#5 v=75
78624 Off ch=1 n=g#5 v=7
78624 On ch=1 n=d#6 v=75
78720 Off ch=1 n=d#6 v=8
78720 On ch=1 n=g#6 v=63
78816 Off ch=1 n=g#6 v=8
78816 On ch=1 n=d#6 v=60
78912 Off ch=1 n=d#6 v=8
78912 On ch=1 n=g#6 v=70
79008 Off ch=1 n=g#6 v=10
79008 On ch=1 n=d#6 v=66
79104 Off ch=1 n=d#6 v=8
79104 On ch=1 n=g#5 v=63
79200 Off ch=1 n=g#5 v=10
79200 On ch=1 n=d#6 v=63
79296 Off ch=1 n=d#6 v=8
79296 On ch=1 n=g#6 v=69
79392 Off ch=1 n=g#6 v=9
79392 On ch=1 n=d#6 v=71
79488 Off ch=1 n=d#6 v=13
79488 On ch=1 n=g#6 v=69
79584 Off ch=1 n=g#6 v=9
79584 On ch=1 n=d#6 v=60
79680 Off ch=1 n=d#6 v=8
79680 On ch=1 n=g#5 v=65
79776 Off ch=1 n=g#5 v=9
79776 On ch=1 n=d#6 v=58
79872 Off ch=1 n=d#6 v=7
79872 On ch=1 n=g#6 v=69
79968 Off ch=1 n=g#6 v=9
79968 On ch=1 n=d#6 v=63
80064 Off ch=1 n=d#6 v=8
80064 On ch=1 n=g#6 v=70
80160 Off ch=1 n=g#6 v=9
80160 On ch=1 n=d#6 v=63
80256 Off ch=1 n=d#6 v=8
80256 On ch=1 n=g#5 v=71
80352 Off ch=1 n=g#5 v=7
80352 On ch=1 n=d#6 v=59
80448 Off ch=1 n=d#6 v=7
80448 On ch=1 n=g#6 v=66
80544 Off ch=1 n=g#6 v=8
80544 On ch=1 n=d#6 v=63
80640 Off ch=1 n=d#6 v=8
80640 On ch=1 n=g#6 v=69
80736 Off ch=1 n=g#6 v=8
80736 On ch=1 n=d#6 v=61
80832 Off ch=1 n=d#6 v=8
80832 On ch=1 n=g#5 v=69
80928 Off ch=1 n=g#5 v=7
80928 On ch=1 n=d#6 v=57
81024 Off ch=1 n=d#6 v=8
81024 On ch=1 n=g#6 v=63
81120 Off ch=1 n=g#6 v=8
81120 On ch=1 n=d#6 v=58
81216 Off ch=1 n=d#6 v=8
81216 On ch=1 n=g#6 v=70
81312 Off ch=1 n=g#6 v=10
81312 On ch=1 n=d#6 v=66
81408 Off ch=1 n=d#6 v=8
81408 On ch=1 n=g#5 v=75
81504 Off ch=1 n=g#5 v=10
81504 On ch=1 n=d#6 v=63
81600 Off ch=1 n=d#6 v=8
81600 On ch=1 n=g#6 v=69
81696 Off ch=1 n=g#6 v=9
81696 On ch=1 n=d#6 v=71
81792 Off ch=1 n=d#6 v=13
81792 On ch=1 n=g#6 v=52
81888 Off ch=1 n=g#6 v=7
81888 On ch=1 n=d#6 v=59
81984 Off ch=1 n=d#6 v=9
81984 On ch=1 n=g#5 v=70
82080 Off ch=1 n=g#5 v=8
82080 On ch=1 n=d#6 v=73
82176 Off ch=1 n=d#6 v=8
82176 On ch=1 n=g#6 v=69
82272 Off ch=1 n=g#6 v=9
82272 On ch=1 n=d#6 v=69
82368 Off ch=1 n=d#6 v=7
82368 On ch=1 n=g#6 v=69
82464 Off ch=1 n=g#6 v=7
82464 On ch=1 n=d#6 v=65
82560 Off ch=1 n=d#6 v=7
82560 On ch=1 n=g#5 v=69
82656 Off ch=1 n=g#5 v=7
82656 On ch=1 n=d#6 v=66
82752 Off ch=1 n=d#6 v=8
82752 On ch=1 n=g#6 v=60
82848 Off ch=1 n=g#6 v=7
82848 On ch=1 n=d#6 v=67
82944 Off ch=1 n=d#6 v=8
82944 On ch=1 n=g#6 v=65
83040 Off ch=1 n=g#6 v=8
83040 On ch=1 n=d#6 v=65
83136 Off ch=1 n=d#6 v=8
83136 On ch=1 n=g#5 v=67
83232 Off ch=1 n=g#5 v=7
83232 On ch=1 n=d#6 v=69
83328 Off ch=1 n=d#6 v=8
83328 On ch=1 n=g#6 v=60
83424 Off ch=1 n=g#6 v=8
83424 On ch=1 n=d#6 v=66
83520 Off ch=1 n=d#6 v=8
83520 On ch=1 n=b5 v=63
83544 On ch=1 n=e6 v=75
83568 On ch=1 n=b6 v=78
83592 On ch=1 n=d#7 v=73
83616 Off ch=1 n=b5 v=8
83616 On ch=1 n=e6 v=65
83640 Off ch=1 n=e6 v=7
83664 Off ch=1 n=b6 v=9
83688 Off ch=1 n=d#7 v=8
83712 Off ch=1 n=e6 v=9
83712 On ch=1 n=b5 v=60
83808 Off ch=1 n=b5 v=8
83808 On ch=1 n=e6 v=73
83904 Off ch=1 n=e6 v=5
83904 On ch=1 n=c#6 v=65
83904 On ch=1 n=a6 v=69
83904 On ch=1 n=c#7 v=73
84000 Off ch=1 n=c#7 v=8
84000 Off ch=1 n=a6 v=7
84000 Off ch=1 n=c#6 v=5
84000 On ch=1 n=e6 v=73
84096 Off ch=1 n=e6 v=10
84096 On ch=1 n=b5 v=71
84096 On ch=1 n=g#6 v=81
84096 On ch=1 n=b6 v=80
84192 Off ch=1 n=g#6 v=6
84192 On ch=1 n=d#6 v=63
84288 Off ch=1 n=d#6 v=9
84288 On ch=1 n=g#5 v=65
84384 Off ch=1 n=g#5 v=5
84384 On ch=1 n=d#6 v=62
84480 Off ch=1 n=d#6 v=7
84480 On ch=1 n=g#6 v=63
84576 Off ch=1 n=g#6 v=7
84576 On ch=1 n=d#6 v=57
84672 Off ch=1 n=d#6 v=7
84672 On ch=1 n=g#6 v=58
84768 Off ch=1 n=g#6 v=6
84768 On ch=1 n=d#6 v=55
84864 Off ch=1 n=d#6 v=8
84864 On ch=1 n=g#5 v=66
84960 Off ch=1 n=g#5 v=5
84960 On ch=1 n=d#6 v=55
85056 Off ch=1 n=d#6 v=7
85056 On ch=1 n=g#6 v=63
85152 Off ch=1 n=g#6 v=7
85152 On ch=1 n=d#6 v=57
85248 Off ch=1 n=d#6 v=7
85248 Off ch=1 n=b6 v=4
85248 Off ch=1 n=b5 v=6
85248 On ch=1 n=g#6 v=63
85344 Off ch=1 n=g#6 v=6
85344 On ch=1 n=d#6 v=59
85440 Off ch=1 n=d#6 v=7
85440 On ch=1 n=g#5 v=67
85536 Off ch=1 n=g#5 v=7
85536 On ch=1 n=d#6 v=70
85632 Off ch=1 n=d#6 v=8
85632 On ch=1 n=c#6 v=71
85632 On ch=1 n=g#6 v=70
85632 On ch=1 n=c#7 v=65
85728 Off ch=1 n=g#6 v=6
85728 On ch=1 n=d#6 v=75
85824 Off ch=1 n=d#6 v=6
85824 Off ch=1 n=c#7 v=6
85824 Off ch=1 n=c#6 v=6
85824 On ch=1 n=a#5 v=71
85824 On ch=1 n=g6 v=75
85824 On ch=1 n=a#6 v=71
85920 Off ch=1 n=g6 v=7
85920 On ch=1 n=d#6 v=63
86016 Off ch=1 n=d#6 v=8
86016 On ch=1 n=a#5 v=59
86112 Off ch=1 n=a#5 v=7
86112 On ch=1 n=d#6 v=66
86208 Off ch=1 n=d#6 v=9
86208 Off ch=1 n=a#6 v=9
86208 Off ch=1 n=a#5 v=8
86208 On ch=1 n=b5 v=69
86208 On ch=1 n=b6 v=75
86304 Off ch=1 n=b5 v=8
86304 On ch=1 n=d#6 v=75
86400 Off ch=1 n=b6 v=6
86400 On ch=1 n=g#5 v=57
86400 On ch=1 n=g#6 v=63
86784 Off ch=1 n=g#6 v=12
86784 Off ch=1 n=g#5 v=12
86784 Off ch=1 n=d#6 v=11
86976 On ch=1 n=b5 v=63
87072 Off ch=1 n=b5 v=6
87072 On ch=1 n=d#5 v=61
87168 Off ch=1 n=d#5 v=6
87168 On ch=1 n=b4 v=57
87264 Off ch=1 n=b4 v=6
87264 On ch=1 n=d#5 v=66
87360 Off ch=1 n=d#5 v=8
87360 On ch=1 n=b5 v=69
87456 Off ch=1 n=b5 v=7
87456 On ch=1 n=d#5 v=66
87552 Off ch=1 n=d#5 v=7
87552 On ch=1 n=b5 v=71
87648 Off ch=1 n=b5 v=8
87648 On ch=1 n=e5 v=75
87744 Off ch=1 n=e5 v=8
87744 On ch=1 n=c#5 v=70
87840 Off ch=1 n=c#5 v=6
87840 On ch=1 n=e5 v=70
87936 Off ch=1 n=e5 v=8
87936 On ch=1 n=c#6 v=67
88032 Off ch=1 n=c#6 v=7
88032 On ch=1 n=e5 v=67
88128 Off ch=1 n=e5 v=7
88128 On ch=1 n=c#6 v=65
88224 Off ch=1 n=c#6 v=6
88224 On ch=1 n=e5 v=69
88320 Off ch=1 n=e5 v=8
88320 On ch=1 n=c#5 v=65
88416 Off ch=1 n=c#5 v=6
88416 On ch=1 n=e5 v=66
88512 Off ch=1 n=e5 v=9
88512 On ch=1 n=c#6 v=69
88608 Off ch=1 n=c#6 v=7
88608 On ch=1 n=e5 v=66
88704 Off ch=1 n=e5 v=13
88704 On ch=1 n=c#6 v=75
88800 Off ch=1 n=c#6 v=64
88800 On ch=1 n=f#5 v=71
88896 Off ch=1 n=f#5 v=64
88896 On ch=1 n=d#5 v=67
88992 Off ch=1 n=d#5 v=64
88992 On ch=1 n=f#5 v=63
89088 Off ch=1 n=f#5 v=64
89088 On ch=1 n=c#6 v=58
89184 Off ch=1 n=c#6 v=64
89184 On ch=1 n=f#5 v=60
89280 Off ch=1 n=f#5 v=64
89280 On ch=1 n=d#6 v=63
89376 Off ch=1 n=d#6 v=64
89376 On ch=1 n=f#5 v=67
89472 Off ch=1 n=f#5 v=64
89472 On ch=1 n=d#5 v=70
89568 Off ch=1 n=d#5 v=64
89568 On ch=1 n=f#5 v=58
89664 Off ch=1 n=f#5 v=64
89664 On ch=1 n=d#6 v=69
89760 Off ch=1 n=d#6 v=64
89760 On ch=1 n=f#5 v=58
89856 Off ch=1 n=f#5 v=64
89856 On ch=1 n=d#6 v=63
89952 Off ch=1 n=d#6 v=64
89952 On ch=1 n=g#5 v=60
90048 Off ch=1 n=g#5 v=64
90048 On ch=1 n=e5 v=67
90144 Off ch=1 n=e5 v=64
90144 On ch=1 n=g#5 v=69
90240 Off ch=1 n=g#5 v=64
90240 On ch=1 n=e6 v=69
90336 Off ch=1 n=e6 v=64
90336 On ch=1 n=g#5 v=59
90432 Off ch=1 n=g#5 v=64
90432 On ch=1 n=e6 v=67
90528 Off ch=1 n=e6 v=64
90528 On ch=1 n=g#5 v=66
90624 Off ch=1 n=g#5 v=64
90624 On ch=1 n=e5 v=67
90720 Off ch=1 n=e5 v=64
90720 On ch=1 n=g#5 v=63
90816 Off ch=1 n=g#5 v=64
90816 On ch=1 n=e6 v=67
90912 Off ch=1 n=e6 v=64
90912 On ch=1 n=g#5 v=65
91008 On ch=1 n=d#5 v=69
91008 On ch=1 n=d#6 v=77
91392 Off ch=1 n=d#6 v=11
91392 Off ch=1 n=d#5 v=7
91392 Off ch=1 n=g#5 v=64
91392 On ch=1 n=d#5 v=80
91584 Off ch=1 n=d#5 v=11
91584 On ch=1 n=g#5 v=81
92544 Off ch=1 n=g#5 v=5
92544 On ch=1 n=g#5 v=75
92736 Off ch=1 n=g#5 v=8
92736 On ch=1 n=b5 v=99
93696 Off ch=1 n=b5 v=12
93696 On ch=1 n=b5 v=91
93890 On ch=1 n=d#5 v=83
93930 On ch=1 n=d#6 v=86
94848 Off ch=1 n=b5 v=9
94848 On ch=1 n=d#6 v=89
94850 Off ch=1 n=d#5 v=9
94890 Off ch=1 n=d#6 v=11
95040 On ch=1 n=g#5 v=83
95040 On ch=1 n=g#6 v=83
95424 Off ch=1 n=g#6 v=6
95424 Off ch=1 n=g#5 v=7
95424 Off ch=1 n=d#6 v=8
95424 On ch=1 n=g#5 v=80
95424 On ch=1 n=d#6 v=87
95424 On ch=1 n=g#6 v=85
95616 Off ch=1 n=g#6 v=11
95616 Off ch=1 n=d#6 v=13
95616 Off ch=1 n=g#5 v=13
95616 On ch=1 n=e5 v=77
95642 On ch=1 n=g5 v=80
95658 On ch=1 n=e6 v=83
95678 On ch=1 n=g6 v=83
95696 On ch=1 n=b6 v=91
95712 On ch=1 n=g5 v=45
95808 Off ch=1 n=g5 v=11
95808 On ch=1 n=e5 v=71
95904 Off ch=1 n=e5 v=7
95904 On ch=1 n=g5 v=57
96000 Off ch=1 n=g5 v=7
96000 On ch=1 n=b4 v=58
96096 Off ch=1 n=b4 v=4
96096 On ch=1 n=g5 v=62
96192 Off ch=1 n=g5 v=10
96288 On ch=1 n=g5 v=71
96384 Off ch=1 n=g5 v=7
96384 On ch=1 n=f#5 v=69
96480 Off ch=1 n=f#5 v=8
96480 On ch=1 n=g5 v=63
96576 Off ch=1 n=g5 v=4
96576 On ch=1 n=g4 v=58
96672 Off ch=1 n=g4 v=6
96672 On ch=1 n=g5 v=75
96768 Off ch=1 n=g5 v=6
96768 Off ch=1 n=e5 v=11
96768 On ch=1 n=g4 v=53
96768 On ch=1 n=c#5 v=67
96768 On ch=1 n=d#5 v=65
96770 On ch=1 n=g4 v=70
96794 Off ch=1 n=g5 v=12
96810 Off ch=1 n=e6 v=8
96830 Off ch=1 n=g6 v=11
96848 Off ch=1 n=b6 v=8
96864 On ch=1 n=c#5 v=67
96960 On ch=1 n=d#5 v=65
97056 On ch=1 n=b5 v=71
97152 On ch=1 n=c#6 v=71
97248 On ch=1 n=d#6 v=71
97344 Off ch=1 n=d#5 v=11
97344 Off ch=1 n=c#5 v=10
97344 Off ch=1 n=g4 v=9
97344 On ch=1 n=b6 v=71
97632 Off ch=1 n=c#5 v=64
97632 Off ch=1 n=g4 v=64
97728 Off ch=1 n=b6 v=5
97728 Off ch=1 n=d#6 v=64
97728 Off ch=1 n=c#6 v=64
97728 Off ch=1 n=b5 v=64
97728 Off ch=1 n=d#5 v=64
97728 On ch=1 n=d#6 v=70
97920 On ch=1 n=g#5 v=70
97920 On ch=1 n=g#6 v=70
98112 Off ch=1 n=g#6 v=64
98112 Off ch=1 n=g#5 v=64
98112 Off ch=1 n=d#6 v=13
98112 On ch=1 n=g#5 v=71
98208 Off ch=1 n=g#5 v=64
98208 On ch=1 n=d#6 v=63
98304 Off ch=1 n=d#6 v=64
98304 On ch=1 n=g#6 v=63
98400 Off ch=1 n=g#6 v=64
98400 On ch=1 n=d#6 v=63
98496 Off ch=1 n=d#6 v=64
98496 On ch=1 n=g#6 v=51
98592 Off ch=1 n=g#6 v=64
98592 On ch=1 n=d#6 v=51
98688 Off ch=1 n=d#6 v=64
98688 On ch=1 n=g#5 v=48
98784 Off ch=1 n=g#5 v=64
98784 On ch=1 n=d#6 v=42
98880 Off ch=1 n=d#6 v=64
98880 On ch=1 n=g#6 v=44
98976 Off ch=1 n=g#6 v=64
98976 On ch=1 n=d#6 v=46
99072 Off ch=1 n=d#6 v=64
99072 On ch=1 n=g#6 v=48
99168 Off ch=1 n=g#6 v=64
99168 On ch=1 n=d#6 v=48
99264 Off ch=1 n=d#6 v=64
99264 On ch=1 n=g#5 v=48
99360 Off ch=1 n=g#5 v=64
99360 On ch=1 n=d#6 v=48
99456 Off ch=1 n=d#6 v=64
99456 On ch=1 n=g#6 v=48
99552 Off ch=1 n=g#6 v=64
99552 On ch=1 n=d#6 v=51
99648 Off ch=1 n=d#6 v=64
99648 On ch=1 n=g#6 v=51
99744 Off ch=1 n=g#6 v=64
99744 On ch=1 n=d#6 v=51
99840 Off ch=1 n=d#6 v=64
99840 On ch=1 n=g#5 v=48
99936 Off ch=1 n=g#5 v=64
99936 On ch=1 n=d#6 v=51
100032 Off ch=1 n=d#6 v=64
100032 On ch=1 n=g#6 v=46
100128 Off ch=1 n=g#6 v=64
100128 On ch=1 n=d#6 v=58
100224 Off ch=1 n=d#6 v=64
100224 On ch=1 n=g#6 v=58
100320 Off ch=1 n=g#6 v=64
100320 On ch=1 n=d#6 v=46
100416 Off ch=1 n=d#6 v=64
100416 On ch=1 n=g#5 v=53
100512 Off ch=1 n=g#5 v=64
100512 On ch=1 n=d#6 v=60
100608 Off ch=1 n=d#6 v=64
100608 On ch=1 n=g#6 v=60
100704 Off ch=1 n=g#6 v=64
100704 On ch=1 n=d#6 v=60
100800 Off ch=1 n=d#6 v=64
100800 On ch=1 n=g#6 v=58
100896 Off ch=1 n=g#6 v=64
100896 On ch=1 n=d#6 v=53
100992 Off ch=1 n=d#6 v=64
100992 On ch=1 n=g#5 v=51
101088 Off ch=1 n=g#5 v=64
101088 On ch=1 n=d#6 v=53
101184 Off ch=1 n=d#6 v=64
101184 On ch=1 n=g#6 v=53
101280 Off ch=1 n=g#6 v=64
101280 On ch=1 n=d#6 v=63
101376 Off ch=1 n=d#6 v=64
101376 On ch=1 n=g#6 v=60
101472 Off ch=1 n=g#6 v=64
101472 On ch=1 n=d#6 v=58
101568 Off ch=1 n=d#6 v=64
101568 On ch=1 n=g#5 v=58
101664 Off ch=1 n=g#5 v=64
101664 On ch=1 n=d#6 v=58
101760 Off ch=1 n=d#6 v=64
101760 On ch=1 n=g#6 v=56
101856 Off ch=1 n=g#6 v=64
101856 On ch=1 n=d#6 v=56
101952 Off ch=1 n=d#6 v=64
101952 On ch=1 n=g#6 v=60
102048 Off ch=1 n=g#6 v=64
102048 On ch=1 n=d#6 v=58
102144 Off ch=1 n=d#6 v=64
102144 On ch=1 n=g#5 v=58
102240 Off ch=1 n=g#5 v=64
102240 On ch=1 n=d#6 v=63
102336 Off ch=1 n=d#6 v=64
102336 On ch=1 n=g#6 v=63
102432 Off ch=1 n=g#6 v=64
102432 On ch=1 n=d#6 v=60
102528 Off ch=1 n=d#6 v=64
102528 On ch=1 n=g#6 v=56
102720 Off ch=1 n=g#6 v=64
102720 On ch=1 n=d#7 v=53
102816 Off ch=1 n=d#7 v=64
102816 On ch=1 n=e7 v=48
102912 Off ch=1 n=e7 v=64
102912 On ch=1 n=d#7 v=46
103008 Off ch=1 n=d#7 v=64
103008 On ch=1 n=e7 v=46
103104 Off ch=1 n=e7 v=64
103104 On ch=1 n=d#7 v=46
103200 Off ch=1 n=d#7 v=64
103200 On ch=1 n=e7 v=44
103296 Off ch=1 n=e7 v=64
103296 On ch=1 n=d#7 v=44
103392 Off ch=1 n=d#7 v=64
103392 On ch=1 n=e7 v=46
103488 Off ch=1 n=e7 v=64
103488 On ch=1 n=d#7 v=48
103584 Off ch=1 n=d#7 v=64
103584 On ch=1 n=e7 v=51
103680 Off ch=1 n=e7 v=64
103680 On ch=1 n=d#7 v=46
103776 Off ch=1 n=d#7 v=64
103776 On ch=1 n=e7 v=44
103872 Off ch=1 n=e7 v=64
103872 On ch=1 n=d#7 v=44
103968 Off ch=1 n=d#7 v=64
103968 On ch=1 n=e7 v=48
104064 Off ch=1 n=e7 v=64
104064 On ch=1 n=d#7 v=51
104160 Off ch=1 n=d#7 v=64
104160 On ch=1 n=e7 v=51
104256 Off ch=1 n=e7 v=64
104256 On ch=1 n=d#7 v=53
104352 Off ch=1 n=d#7 v=64
104352 On ch=1 n=e7 v=53
104448 Off ch=1 n=e7 v=64
104448 On ch=1 n=d#7 v=53
104544 Off ch=1 n=d#7 v=64
104544 On ch=1 n=e7 v=53
104640 Off ch=1 n=e7 v=64
104640 On ch=1 n=d#7 v=53
104736 Off ch=1 n=d#7 v=64
104736 On ch=1 n=e7 v=46
104832 Off ch=1 n=e7 v=64
104832 On ch=1 n=d#7 v=46
105024 Off ch=1 n=d#7 v=64
105024 On ch=1 n=f#7 v=51
105120 Off ch=1 n=f#7 v=64
105120 On ch=1 n=d#7 v=51
105216 Off ch=1 n=d#7 v=64
105216 On ch=1 n=g7 v=51
105312 Off ch=1 n=g7 v=64
105312 On ch=1 n=d#7 v=51
105408 Off ch=1 n=d#7 v=64
105408 On ch=1 n=g#7 v=51
105504 Off ch=1 n=g#7 v=64
105504 On ch=1 n=d#7 v=48
105600 Off ch=1 n=d#7 v=64
105600 On ch=1 n=a7 v=46
105696 Off ch=1 n=a7 v=64
105696 On ch=1 n=d#7 v=46
105792 Off ch=1 n=d#7 v=64
105792 On ch=1 n=a#7 v=46
105888 Off ch=1 n=a#7 v=64
105888 On ch=1 n=d#7 v=46
105984 Off ch=1 n=d#7 v=64
105984 On ch=1 n=b7 v=46
106080 Off ch=1 n=b7 v=64
106080 On ch=1 n=d#7 v=46
106176 Off ch=1 n=d#7 v=64
106176 On ch=1 n=c#8 v=48
106272 Off ch=1 n=c#8 v=64
106272 On ch=1 n=d#7 v=51
106368 Off ch=1 n=d#7 v=64
106368 On ch=1 n=d8 v=51
106464 Off ch=1 n=d8 v=64
106464 On ch=1 n=d#7 v=51
106560 Off ch=1 n=d#7 v=64
106560 On ch=1 n=d#8 v=51
106656 Off ch=1 n=d#8 v=64
106656 On ch=1 n=d#7 v=48
106752 Off ch=1 n=d#7 v=64
106752 On ch=1 n=f8 v=48
106848 Off ch=1 n=f8 v=64
106848 On ch=1 n=d#7 v=51
106944 Off ch=1 n=d#7 v=64
106944 On ch=1 n=g8 v=51
107040 Off ch=1 n=g8 v=64
107040 On ch=1 n=d#7 v=53
107136 Off ch=1 n=d#7 v=64
107136 On ch=1 n=g#8 v=58
107520 Off ch=1 n=g#8 v=64
107520 On ch=1 n=g#7 v=56
107904 Off ch=1 n=g#7 v=64
109440 Meta TrkEnd
TrkEnd
MTrk
0 Meta TrkName "linke Hand"
0 PrCh ch=1 p=0
4416 On ch=1 n=e5 v=61
4608 On ch=1 n=d#5 v=53
4704 Off ch=1 n=e5 v=7
6144 Off ch=1 n=d#5 v=9
6144 On ch=1 n=c#5 v=63
6336 Off ch=1 n=c#5 v=8
6336 On ch=1 n=d#5 v=63
6720 Off ch=1 n=d#5 v=8
6720 On ch=1 n=b4 v=63
6912 Off ch=1 n=b4 v=9
6912 On ch=1 n=d#5 v=63
7296 Off ch=1 n=d#5 v=11
7296 On ch=1 n=a#4 v=58
7488 Off ch=1 n=a#4 v=8
7488 On ch=1 n=g#4 v=55
8352 Off ch=1 n=g#4 v=8
8544 On ch=1 n=c#4 v=57
8596 On ch=1 n=a4 v=58
8640 On ch=1 n=d#5 v=70
8928 Off ch=1 n=d#5 v=10
9024 Off ch=1 n=c#4 v=9
9024 On ch=1 n=c#5 v=67
9172 Off ch=1 n=a4 v=8
9216 On ch=1 n=d#4 v=51
9216 On ch=1 n=b4 v=66
9312 Off ch=1 n=c#5 v=9
9804 On ch=1 n=d#3 v=56
10758 Off ch=1 n=b4 v=5
10762 On ch=1 n=c#5 v=60
10884 Off ch=1 n=d#4 v=4
10954 On ch=1 n=a#4 v=60
10958 On ch=1 n=d#4 v=45
10962 Off ch=1 n=c#5 v=6
11310 Off ch=1 n=a#4 v=12
11320 On ch=1 n=b4 v=58
11514 Off ch=1 n=d#3 v=12
11516 Off ch=1 n=d#4 v=8
11524 On ch=1 n=g#4 v=61
11616 Off ch=1 n=b4 v=7
12500 On ch=1 n=f#4 v=52
12680 Off ch=1 n=f#4 v=8
12680 On ch=1 n=e4 v=60
13536 Off ch=1 n=g#4 v=3
14784 Off ch=1 n=e4 v=7
14798 On ch=1 n=d4 v=57
14982 Off ch=1 n=d4 v=8
14986 On ch=1 n=c#4 v=58
15354 On ch=1 n=e4 v=66
15356 Off ch=1 n=c#4 v=11
15480 On ch=1 n=d#3 v=69
15484 Off ch=1 n=e4 v=11
15524 On ch=1 n=a#3 v=66
15526 Off ch=1 n=d#3 v=15
15566 On ch=1 n=g4 v=59
15938 On ch=1 n=a#4 v=63
15958 Off ch=1 n=a#3 v=11
16022 Off ch=1 n=g4 v=4
16082 On ch=1 n=g#3 v=66
16088 Off ch=1 n=a#4 v=12
16126 Off ch=1 n=g#3 v=12
16126 On ch=1 n=d#4 v=69
16192 On ch=1 n=b4 v=73
16408 Off ch=1 n=d#4 v=4
16526 On ch=1 n=g#4 v=63
16542 Off ch=1 n=b4 v=8
16708 On ch=1 n=d#4 v=57
16716 Off ch=1 n=g#4 v=7
17858 Off ch=1 n=d#4 v=13
20542 On ch=1 n=e5 v=60
20746 On ch=1 n=d#5 v=58
20754 Off ch=1 n=e5 v=6
21704 Off ch=1 n=d#5 v=11
21710 On ch=1 n=f#5 v=62
21886 On ch=1 n=d#5 v=66
21896 Off ch=1 n=f#5 v=8
22080 Off ch=1 n=d#5 v=8
22082 On ch=1 n=e5 v=63
22282 On ch=1 n=c#5 v=63
22292 Off ch=1 n=e5 v=6
22470 Off ch=1 n=c#5 v=8
22478 On ch=1 n=d#5 v=61
22854 Off ch=1 n=d#5 v=8
22856 On ch=1 n=b4 v=63
23040 Off ch=1 n=b4 v=0
23052 On ch=1 n=d#5 v=63
23430 On ch=1 n=a#4 v=60
23452 Off ch=1 n=d#5 v=6
23624 On ch=1 n=g#4 v=57
23630 Off ch=1 n=a#4 v=8
24438 Off ch=1 n=g#4 v=8
24742 On ch=1 n=e4 v=55
24750 On ch=1 n=g4 v=63
24790 On ch=1 n=d#5 v=63
25150 On ch=1 n=c#5 v=63
25158 Off ch=1 n=d#5 v=10
25334 Off ch=1 n=g4 v=11
25334 Off ch=1 n=e4 v=9
25336 Off ch=1 n=c#5 v=11
25348 On ch=1 n=f#4 v=57
25354 On ch=1 n=d#5 v=58
25928 On ch=1 n=b2 v=71
26796 Off ch=1 n=d#5 v=9
26886 On ch=1 n=c#5 v=60
26938 Off ch=1 n=f#4 v=7
27064 Off ch=1 n=c#5 v=5
27078 On ch=1 n=d#4 v=51
27078 On ch=1 n=b4 v=61
27082 Off ch=1 n=b2 v=13
27440 Off ch=1 n=b4 v=6
27456 On ch=1 n=a#4 v=52
27590 Off ch=1 n=d#4 v=11
27594 Off ch=1 n=a#4 v=9
27648 On ch=1 n=d#4 v=62
27672 On ch=1 n=b4 v=70
27696 Off ch=1 n=d#4 v=11
28018 On ch=1 n=g#4 v=65
28040 Off ch=1 n=b4 v=7
28224 On ch=1 n=d4 v=67
28226 Off ch=1 n=g#4 v=7
28608 Off ch=1 n=d4 v=9
28608 On ch=1 n=d#4 v=57
28796 Off ch=1 n=d#4 v=14
28800 On ch=1 n=e4 v=67
29184 On ch=1 n=b3 v=73
29376 Off ch=1 n=b3 v=9
29376 On ch=1 n=e3 v=71
29664 Off ch=1 n=e4 v=9
29760 On ch=1 n=g4 v=75
29952 Off ch=1 n=g4 v=8
29952 Off ch=1 n=e3 v=7
29952 On ch=1 n=f4 v=75
30336 On ch=1 n=g#3 v=69
30528 On ch=1 n=c#3 v=66
30720 Off ch=1 n=f4 v=7
30912 Off ch=1 n=g#3 v=7
30912 On ch=1 n=b4 v=70
31008 Off ch=1 n=c#3 v=5
31104 Off ch=1 n=b4 v=9
31104 On ch=1 n=g4 v=78
31488 On ch=1 n=a#3 v=67
31680 On ch=1 n=d#3 v=75
32064 Off ch=1 n=g4 v=7
32064 On ch=1 n=a#4 v=80
32256 Off ch=1 n=a#4 v=9
32256 Off ch=1 n=d#3 v=7
32256 Off ch=1 n=a#3 v=6
32256 On ch=1 n=g#4 v=73
32448 Off ch=1 n=g#4 v=13
32448 On ch=1 n=g#3 v=63
32448 On ch=1 n=d#4 v=63
32640 Off ch=1 n=d#4 v=9
32640 Off ch=1 n=g#3 v=5
32640 On ch=1 n=b4 v=71
32832 Off ch=1 n=b4 v=10
32832 On ch=1 n=d5 v=69
33024 Off ch=1 n=d5 v=4
33024 On ch=1 n=g#4 v=63
33024 On ch=1 n=b4 v=71
33216 Off ch=1 n=b4 v=6
33216 Off ch=1 n=g#4 v=10
33216 On ch=1 n=g5 v=67
33408 Off ch=1 n=g5 v=15
33408 On ch=1 n=d#3 v=61
33408 On ch=1 n=a#3 v=51
33408 On ch=1 n=g4 v=51
33792 Off ch=1 n=g4 v=10
33792 Off ch=1 n=a#3 v=8
33792 Off ch=1 n=d#3 v=11
33792 On ch=1 n=d#5 v=61
33792 On ch=1 n=g5 v=61
33792 On ch=1 n=a#5 v=61
33984 Off ch=1 n=a#5 v=8
33984 Off ch=1 n=g5 v=8
33984 Off ch=1 n=d#5 v=5
33984 On ch=1 n=d#5 v=66
33984 On ch=1 n=g5 v=66
33984 On ch=1 n=a#5 v=66
34176 Off ch=1 n=a#5 v=10
34176 Off ch=1 n=g5 v=9
34176 Off ch=1 n=d#5 v=8
34368 On ch=1 n=d#5 v=77
34368 On ch=1 n=g5 v=77
34368 On ch=1 n=a#5 v=77
34560 Off ch=1 n=a#5 v=10
34560 Off ch=1 n=g5 v=9
34560 Off ch=1 n=d#5 v=7
34560 On ch=1 n=d#5 v=81
34560 On ch=1 n=g5 v=81
34560 On ch=1 n=a#5 v=81
34752 Off ch=1 n=a#5 v=9
34752 Off ch=1 n=g5 v=7
34752 Off ch=1 n=d#5 v=7
34944 On ch=1 n=d#5 v=92
34944 On ch=1 n=g5 v=92
34944 On ch=1 n=a#5 v=92
35136 Off ch=1 n=a#5 v=7
35136 Off ch=1 n=g5 v=6
35136 Off ch=1 n=d#5 v=7
35136 On ch=1 n=d#5 v=71
35136 On ch=1 n=g5 v=81
35136 On ch=1 n=b5 v=86
35328 On ch=1 n=b4 v=80
35424 Off ch=1 n=b4 v=9
35424 On ch=1 n=d#4 v=81
35520 Off ch=1 n=d#4 v=14
35520 On ch=1 n=b3 v=86
35616 Off ch=1 n=b3 v=9
35616 On ch=1 n=d#3 v=81
35712 Off ch=1 n=d#3 v=12
35712 Off ch=1 n=b5 v=11
35712 Off ch=1 n=g5 v=8
35712 Off ch=1 n=d#5 v=12
35712 On ch=1 n=a#3 v=80
35712 On ch=1 n=d#4 v=79
35712 On ch=1 n=a#4 v=78
36096 Off ch=1 n=a#4 v=10
36096 Off ch=1 n=d#4 v=8
36096 Off ch=1 n=a#3 v=11
36096 On ch=1 n=d#5 v=71
36096 On ch=1 n=g5 v=79
36096 On ch=1 n=a#5 v=79
36288 Off ch=1 n=a#5 v=8
36288 Off ch=1 n=g5 v=8
36288 Off ch=1 n=d#5 v=5
36288 On ch=1 n=d#5 v=77
36288 On ch=1 n=g5 v=83
36288 On ch=1 n=a#5 v=80
36480 Off ch=1 n=a#5 v=10
36480 Off ch=1 n=g5 v=9
36480 Off ch=1 n=d#5 v=8
36672 On ch=1 n=d#5 v=77
36672 On ch=1 n=g5 v=83
36672 On ch=1 n=a#5 v=83
36864 Off ch=1 n=a#5 v=10
36864 Off ch=1 n=g5 v=9
36864 Off ch=1 n=d#5 v=7
36864 On ch=1 n=d#5 v=80
36864 On ch=1 n=g5 v=81
36864 On ch=1 n=a#5 v=81
37056 Off ch=1 n=a#5 v=9
37056 Off ch=1 n=g5 v=7
37056 Off ch=1 n=d#5 v=7
37248 On ch=1 n=d#5 v=69
37248 On ch=1 n=g5 v=75
37248 On ch=1 n=a#5 v=75
37440 Off ch=1 n=a#5 v=7
37440 Off ch=1 n=g5 v=6
37440 Off ch=1 n=d#5 v=7
37440 On ch=1 n=c#5 v=71
37440 On ch=1 n=f#5 v=81
37440 On ch=1 n=a5 v=86
37632 On ch=1 n=a4 v=80
37728 Off ch=1 n=a4 v=9
37728 On ch=1 n=d#4 v=81
37824 Off ch=1 n=d#4 v=14
37824 On ch=1 n=c#4 v=86
37920 Off ch=1 n=c#4 v=9
37920 On ch=1 n=d#3 v=81
38016 Off ch=1 n=d#3 v=12
38016 Off ch=1 n=a5 v=11
38016 Off ch=1 n=f#5 v=8
38016 Off ch=1 n=c#5 v=12
38016 On ch=1 n=c4 v=79
38016 On ch=1 n=d#4 v=80
38016 On ch=1 n=g#4 v=78
38400 Off ch=1 n=g#4 v=10
38400 Off ch=1 n=d#4 v=11
38400 Off ch=1 n=c4 v=8
38400 On ch=1 n=c5 v=71
38400 On ch=1 n=d#5 v=79
38400 On ch=1 n=g#5 v=79
38592 Off ch=1 n=g#5 v=8
38592 Off ch=1 n=d#5 v=8
38592 Off ch=1 n=c5 v=5
38592 On ch=1 n=c5 v=65
38592 On ch=1 n=d#5 v=77
38592 On ch=1 n=g#5 v=63
38784 Off ch=1 n=g#5 v=0
38784 Off ch=1 n=d#5 v=8
38784 Off ch=1 n=c5 v=0
38976 On ch=1 n=c5 v=63
38976 On ch=1 n=d#5 v=71
38976 On ch=1 n=g#5 v=65
39168 Off ch=1 n=g#5 v=0
39168 Off ch=1 n=d#5 v=0
39168 Off ch=1 n=c5 v=0
39168 On ch=1 n=c5 v=92
39168 On ch=1 n=d#5 v=80
39168 On ch=1 n=g#5 v=80
39360 Off ch=1 n=g#5 v=0
39360 Off ch=1 n=d#5 v=7
39360 Off ch=1 n=c5 v=0
39552 On ch=1 n=c5 v=75
39552 On ch=1 n=d#5 v=75
39552 On ch=1 n=g#5 v=69
39744 Off ch=1 n=g#5 v=7
39744 Off ch=1 n=d#5 v=7
39744 Off ch=1 n=c5 v=6
39744 On ch=1 n=b4 v=81
39744 On ch=1 n=d#5 v=86
39744 On ch=1 n=g5 v=71
39936 On ch=1 n=g4 v=80
40032 Off ch=1 n=g4 v=9
40032 On ch=1 n=c#4 v=81
40128 Off ch=1 n=c#4 v=14
40128 On ch=1 n=b3 v=86
40224 Off ch=1 n=b3 v=9
40224 On ch=1 n=d#3 v=81
40320 Off ch=1 n=d#3 v=12
40320 Off ch=1 n=g5 v=12
40320 Off ch=1 n=d#5 v=11
40320 Off ch=1 n=b4 v=8
40320 On ch=1 n=a#3 v=79
40320 On ch=1 n=d#4 v=80
40320 On ch=1 n=f#4 v=78
40704 On ch=1 n=a#4 v=79
40704 On ch=1 n=d#5 v=79
40704 On ch=1 n=f#5 v=71
40896 Off ch=1 n=f#5 v=5
40896 Off ch=1 n=d#5 v=8
40896 Off ch=1 n=a#4 v=8
40896 On ch=1 n=a#4 v=80
40896 On ch=1 n=d#5 v=83
40896 On ch=1 n=f#5 v=77
41088 Off ch=1 n=f#5 v=8
41088 Off ch=1 n=d#5 v=9
41088 Off ch=1 n=a#4 v=10
41280 Off ch=1 n=f#4 v=10
41280 Off ch=1 n=d#4 v=11
41280 Off ch=1 n=a#3 v=8
41280 On ch=1 n=a#4 v=83
41280 On ch=1 n=d#5 v=77
41280 On ch=1 n=f#5 v=83
41472 Off ch=1 n=f#5 v=9
41472 Off ch=1 n=d#5 v=7
41472 Off ch=1 n=a#4 v=10
41472 On ch=1 n=a#4 v=81
41472 On ch=1 n=d#5 v=81
41472 On ch=1 n=f#5 v=80
41664 Off ch=1 n=f#5 v=7
41664 Off ch=1 n=d#5 v=7
41664 Off ch=1 n=a#4 v=9
41856 On ch=1 n=a#4 v=75
41856 On ch=1 n=d#5 v=75
41856 On ch=1 n=f#5 v=69
42048 Off ch=1 n=f#5 v=7
42048 Off ch=1 n=d#5 v=7
42048 Off ch=1 n=a#4 v=6
42048 On ch=1 n=g#4 v=81
42048 On ch=1 n=b4 v=86
42048 On ch=1 n=e5 v=71
42240 On ch=1 n=e4 v=80
42336 Off ch=1 n=e4 v=9
42336 On ch=1 n=c#4 v=81
42432 Off ch=1 n=c#4 v=14
42432 On ch=1 n=b3 v=86
42528 Off ch=1 n=b3 v=9
42528 On ch=1 n=d#3 v=81
42624 Off ch=1 n=d#3 v=12
42624 Off ch=1 n=e5 v=12
42624 Off ch=1 n=b4 v=11
42624 Off ch=1 n=g#4 v=8
42624 On ch=1 n=a#3 v=91
42668 On ch=1 n=d#4 v=91
42698 On ch=1 n=g4 v=86
42720 Off ch=1 n=a#3 v=64
42720 On ch=1 n=d#5 v=99
42764 Off ch=1 n=d#4 v=64
42794 Off ch=1 n=g4 v=64
43200 Off ch=1 n=d#5 v=64
43200 On ch=1 n=d#5 v=69
43296 On ch=1 n=a#5 v=58
43392 Off ch=1 n=a#5 v=64
43392 On ch=1 n=d#6 v=58
43488 Off ch=1 n=d#6 v=64
43488 On ch=1 n=a5 v=58
43584 Off ch=1 n=a5 v=64
43584 On ch=1 n=a#5 v=58
43680 Off ch=1 n=a#5 v=64
43680 On ch=1 n=d#6 v=58
43776 Off ch=1 n=d#6 v=64
43776 Off ch=1 n=d#5 v=64
43776 On ch=1 n=e5 v=69
43872 On ch=1 n=a#5 v=58
43968 Off ch=1 n=a#5 v=64
43968 On ch=1 n=d#6 v=58
44064 Off ch=1 n=d#6 v=64
44064 On ch=1 n=a5 v=58
44160 Off ch=1 n=a5 v=64
44160 On ch=1 n=a#5 v=58
44256 Off ch=1 n=a#5 v=64
44256 On ch=1 n=d#6 v=58
44352 Off ch=1 n=d#6 v=64
44352 Off ch=1 n=e5 v=64
44352 On ch=1 n=f5 v=69
44448 On ch=1 n=b5 v=58
44544 Off ch=1 n=b5 v=64
44544 On ch=1 n=d#6 v=58
44640 Off ch=1 n=d#6 v=64
44640 On ch=1 n=a#5 v=58
44736 Off ch=1 n=a#5 v=64
44736 On ch=1 n=b5 v=58
44832 Off ch=1 n=b5 v=64
44832 On ch=1 n=d#6 v=58
44928 Off ch=1 n=d#6 v=64
44928 Off ch=1 n=f5 v=64
44928 On ch=1 n=f#5 v=69
45024 On ch=1 n=b5 v=58
45120 Off ch=1 n=b5 v=64
45120 On ch=1 n=d#6 v=58
45216 Off ch=1 n=d#6 v=64
45216 On ch=1 n=a#5 v=58
45312 Off ch=1 n=a#5 v=64
45312 On ch=1 n=b5 v=58
45408 Off ch=1 n=b5 v=64
45408 On ch=1 n=d#6 v=58
45504 Off ch=1 n=d#6 v=64
45504 Off ch=1 n=f#5 v=64
45504 On ch=1 n=g5 v=58
45600 On ch=1 n=b5 v=58
45696 Off ch=1 n=b5 v=64
45696 On ch=1 n=d#6 v=58
45792 Off ch=1 n=d#6 v=64
45792 On ch=1 n=a#5 v=58
45888 Off ch=1 n=a#5 v=64
45888 On ch=1 n=b5 v=58
45984 Off ch=1 n=b5 v=64
45984 On ch=1 n=d#6 v=58
46080 Off ch=1 n=d#6 v=64
46080 Off ch=1 n=g5 v=64
46080 On ch=1 n=g#5 v=69
46176 On ch=1 n=b5 v=58
46272 Off ch=1 n=b5 v=64
46272 On ch=1 n=d#6 v=58
46368 Off ch=1 n=d#6 v=64
46368 On ch=1 n=a#5 v=58
46464 Off ch=1 n=a#5 v=64
46464 On ch=1 n=b5 v=58
46560 Off ch=1 n=b5 v=64
46560 On ch=1 n=d#6 v=58
46656 Off ch=1 n=d#6 v=64
46656 Off ch=1 n=g#5 v=64
46656 On ch=1 n=b4 v=69
46752 On ch=1 n=g#5 v=58
46848 Off ch=1 n=g#5 v=64
46848 On ch=1 n=b5 v=58
46944 Off ch=1 n=b5 v=64
46944 On ch=1 n=g5 v=58
47040 Off ch=1 n=g5 v=64
47040 On ch=1 n=g#5 v=58
47136 Off ch=1 n=g#5 v=64
47136 On ch=1 n=b5 v=58
47232 Off ch=1 n=b5 v=64
47232 Off ch=1 n=b4 v=64
47232 On ch=1 n=c#5 v=69
47328 On ch=1 n=g#5 v=58
47424 Off ch=1 n=g#5 v=64
47424 On ch=1 n=b5 v=58
47520 Off ch=1 n=b5 v=64
47520 On ch=1 n=g5 v=58
47616 Off ch=1 n=g5 v=64
47616 On ch=1 n=g#5 v=58
47712 Off ch=1 n=g#5 v=64
47712 On ch=1 n=b5 v=58
47808 Off ch=1 n=b5 v=64
47808 Off ch=1 n=c#5 v=64
47808 On ch=1 n=d5 v=69
47904 On ch=1 n=g#5 v=58
48000 Off ch=1 n=g#5 v=64
48000 On ch=1 n=b5 v=58
48096 Off ch=1 n=b5 v=64
48096 On ch=1 n=g5 v=58
48192 Off ch=1 n=g5 v=64
48192 On ch=1 n=g#5 v=58
48288 Off ch=1 n=g#5 v=64
48288 On ch=1 n=b5 v=58
48384 Off ch=1 n=b5 v=64
48384 Off ch=1 n=d5 v=64
48384 On ch=1 n=d#5 v=69
48480 On ch=1 n=g#5 v=58
48576 Off ch=1 n=g#5 v=64
48576 On ch=1 n=b5 v=58
48672 Off ch=1 n=b5 v=64
48672 On ch=1 n=g5 v=58
48768 Off ch=1 n=g5 v=64
48768 On ch=1 n=g#5 v=58
48864 Off ch=1 n=g#5 v=64
48864 On ch=1 n=b5 v=58
48960 Off ch=1 n=b5 v=64
48960 Off ch=1 n=d#5 v=64
48960 On ch=1 n=g#4 v=69
49056 On ch=1 n=e5 v=58
49152 Off ch=1 n=e5 v=64
49152 On ch=1 n=g#5 v=58
49248 Off ch=1 n=g#5 v=64
49248 On ch=1 n=d#5 v=58
49344 Off ch=1 n=d#5 v=64
49344 On ch=1 n=e5 v=58
49440 Off ch=1 n=e5 v=64
49440 On ch=1 n=g#5 v=58
49536 Off ch=1 n=g#5 v=64
49536 Off ch=1 n=g#4 v=64
49536 On ch=1 n=a4 v=69
49632 On ch=1 n=e5 v=58
49728 Off ch=1 n=e5 v=64
49728 On ch=1 n=g#5 v=58
49824 Off ch=1 n=g#5 v=64
49824 On ch=1 n=d#5 v=58
49920 Off ch=1 n=d#5 v=64
49920 On ch=1 n=e5 v=58
50016 Off ch=1 n=e5 v=64
50016 On ch=1 n=g#5 v=58
50112 Off ch=1 n=g#5 v=64
50112 Off ch=1 n=a4 v=64
50112 On ch=1 n=a#4 v=86
50208 On ch=1 n=e5 v=58
50304 Off ch=1 n=e5 v=64
50304 On ch=1 n=g#5 v=58
50400 Off ch=1 n=g#5 v=64
50400 On ch=1 n=d#5 v=75
50496 Off ch=1 n=d#5 v=64
50496 On ch=1 n=e5 v=58
50592 Off ch=1 n=e5 v=64
50592 On ch=1 n=g#5 v=58
50688 Off ch=1 n=g#5 v=64
50688 Off ch=1 n=a#4 v=64
50688 On ch=1 n=b4 v=81
50784 On ch=1 n=e5 v=58
50880 Off ch=1 n=e5 v=64
50880 On ch=1 n=g#5 v=58
50976 Off ch=1 n=g#5 v=64
50976 On ch=1 n=c5 v=70
51072 Off ch=1 n=c5 v=64
51072 On ch=1 n=e5 v=58
51168 Off ch=1 n=e5 v=64
51168 On ch=1 n=g#5 v=58
51264 Off ch=1 n=g#5 v=64
51264 Off ch=1 n=b4 v=64
51264 On ch=1 n=c#5 v=80
51360 On ch=1 n=e5 v=58
51456 Off ch=1 n=e5 v=64
51456 On ch=1 n=g#5 v=58
51552 Off ch=1 n=g#5 v=64
51552 On ch=1 n=d5 v=71
51648 Off ch=1 n=d5 v=64
51648 On ch=1 n=e5 v=58
51744 Off ch=1 n=e5 v=64
51744 On ch=1 n=g#5 v=58
51840 Off ch=1 n=g#5 v=64
51840 Off ch=1 n=c#5 v=64
51840 On ch=1 n=d#5 v=53
52032 On ch=1 n=g5 v=45
52416 Off ch=1 n=g5 v=10
52416 Off ch=1 n=d#5 v=6
52416 On ch=1 n=d#5 v=55
52608 On ch=1 n=g5 v=46
52992 Off ch=1 n=g5 v=10
52992 Off ch=1 n=d#5 v=7
52992 On ch=1 n=c#5 v=57
53184 On ch=1 n=d#5 v=48
53184 On ch=1 n=g5 v=48
53568 Off ch=1 n=g5 v=8
53568 Off ch=1 n=d#5 v=8
53568 Off ch=1 n=c#5 v=4
53568 On ch=1 n=b4 v=58
53760 On ch=1 n=d#5 v=51
53760 On ch=1 n=g5 v=51
54144 Off ch=1 n=g5 v=12
54144 Off ch=1 n=d#5 v=11
54144 Off ch=1 n=b4 v=8
54144 On ch=1 n=d#4 v=60
54144 On ch=1 n=a#4 v=60
54336 On ch=1 n=d#5 v=52
54336 On ch=1 n=g5 v=52
54720 Off ch=1 n=g5 v=9
54720 Off ch=1 n=d#5 v=10
54720 Off ch=1 n=a#4 v=6
54720 Off ch=1 n=d#4 v=6
54720 On ch=1 n=d#5 v=63
54912 On ch=1 n=g5 v=53
55296 Off ch=1 n=g5 v=10
55296 Off ch=1 n=d#5 v=7
55296 On ch=1 n=c#5 v=63
55488 On ch=1 n=d#5 v=56
55488 On ch=1 n=g5 v=56
55872 Off ch=1 n=g5 v=8
55872 Off ch=1 n=d#5 v=8
55872 Off ch=1 n=c#5 v=4
55872 On ch=1 n=b4 v=66
56064 On ch=1 n=d#5 v=57
56064 On ch=1 n=g5 v=57
56448 Off ch=1 n=g5 v=12
56448 Off ch=1 n=d#5 v=11
56448 Off ch=1 n=b4 v=8
56448 On ch=1 n=d#4 v=67
56448 On ch=1 n=a#4 v=67
56640 On ch=1 n=d#5 v=59
56640 On ch=1 n=g5 v=59
57024 Off ch=1 n=g5 v=9
57024 Off ch=1 n=d#5 v=10
57024 Off ch=1 n=a#4 v=6
57024 Off ch=1 n=d#4 v=6
57024 On ch=1 n=e5 v=69
57216 On ch=1 n=g5 v=61
57600 Off ch=1 n=g5 v=10
57600 Off ch=1 n=e5 v=7
57600 On ch=1 n=d#5 v=71
57792 On ch=1 n=e5 v=63
57792 On ch=1 n=g5 v=63
58176 Off ch=1 n=g5 v=8
58176 Off ch=1 n=e5 v=9
58176 Off ch=1 n=d#5 v=4
58176 On ch=1 n=c#5 v=73
58368 On ch=1 n=e5 v=63
58368 On ch=1 n=g5 v=63
58368 On ch=1 n=b5 v=63
58752 Off ch=1 n=b5 v=11
58752 Off ch=1 n=g5 v=11
58752 Off ch=1 n=e5 v=12
58752 Off ch=1 n=c#5 v=12
58752 On ch=1 n=d#4 v=75
58752 On ch=1 n=c#5 v=75
58944 On ch=1 n=e5 v=66
58944 On ch=1 n=g5 v=66
58944 On ch=1 n=b5 v=66
59328 Off ch=1 n=b5 v=7
59328 Off ch=1 n=g5 v=10
59328 Off ch=1 n=e5 v=9
59328 Off ch=1 n=c#5 v=6
59328 Off ch=1 n=d#4 v=6
59328 On ch=1 n=e5 v=75
59520 On ch=1 n=g5 v=69
59520 On ch=1 n=b5 v=69
59904 Off ch=1 n=b5 v=9
59904 Off ch=1 n=g5 v=10
59904 Off ch=1 n=e5 v=7
59904 On ch=1 n=d#5 v=78
60096 On ch=1 n=g5 v=70
60096 On ch=1 n=b5 v=70
60480 Off ch=1 n=b5 v=8
60480 Off ch=1 n=g5 v=9
60480 Off ch=1 n=d#5 v=4
60480 On ch=1 n=c#5 v=80
60672 On ch=1 n=e5 v=71
60672 On ch=1 n=g5 v=71
60672 On ch=1 n=b5 v=71
61056 Off ch=1 n=b5 v=11
61056 Off ch=1 n=g5 v=11
61056 Off ch=1 n=e5 v=12
61056 Off ch=1 n=c#5 v=12
61056 On ch=1 n=d#4 v=81
61056 On ch=1 n=b4 v=81
61248 On ch=1 n=e5 v=75
61248 On ch=1 n=g5 v=75
61248 On ch=1 n=b5 v=75
61632 Off ch=1 n=b5 v=7
61632 Off ch=1 n=g5 v=10
61632 Off ch=1 n=e5 v=9
61632 Off ch=1 n=b4 v=6
61632 Off ch=1 n=d#4 v=6
61632 On ch=1 n=f#5 v=83
61824 On ch=1 n=g5 v=75
61824 On ch=1 n=b5 v=75
62208 Off ch=1 n=b5 v=10
62208 Off ch=1 n=g5 v=10
62208 Off ch=1 n=f#5 v=7
62208 On ch=1 n=e5 v=86
62400 On ch=1 n=g5 v=78
62400 On ch=1 n=b5 v=78
62784 Off ch=1 n=b5 v=8
62784 Off ch=1 n=g5 v=9
62784 Off ch=1 n=e5 v=4
62784 On ch=1 n=d#5 v=87
62976 On ch=1 n=e5 v=80
62976 On ch=1 n=g5 v=80
62976 On ch=1 n=b5 v=80
63360 Off ch=1 n=b5 v=11
63360 Off ch=1 n=g5 v=11
63360 Off ch=1 n=e5 v=12
63360 Off ch=1 n=d#5 v=12
63360 On ch=1 n=d#4 v=89
63360 On ch=1 n=c#5 v=89
63552 On ch=1 n=e5 v=80
63552 On ch=1 n=g5 v=80
63552 On ch=1 n=b5 v=80
63936 Off ch=1 n=b5 v=7
63936 Off ch=1 n=g5 v=10
63936 Off ch=1 n=e5 v=9
63936 Off ch=1 n=c#5 v=6
63936 Off ch=1 n=d#4 v=6
63936 On ch=1 n=f#5 v=91
64128 On ch=1 n=g5 v=83
64128 On ch=1 n=b5 v=83
64512 Off ch=1 n=b5 v=9
64512 Off ch=1 n=g5 v=10
64512 Off ch=1 n=f#5 v=7
64512 On ch=1 n=e5 v=92
64704 On ch=1 n=g5 v=85
64704 On ch=1 n=b5 v=85
65088 Off ch=1 n=b5 v=8
65088 Off ch=1 n=g5 v=8
65088 Off ch=1 n=e5 v=4
65088 On ch=1 n=d#5 v=94
65280 On ch=1 n=e5 v=86
65280 On ch=1 n=g5 v=86
65280 On ch=1 n=b5 v=86
65664 Off ch=1 n=b5 v=11
65664 Off ch=1 n=g5 v=11
65664 Off ch=1 n=e5 v=12
65664 Off ch=1 n=d#5 v=12
65664 On ch=1 n=d#4 v=97
65664 On ch=1 n=c#5 v=97
65856 On ch=1 n=e5 v=87
65856 On ch=1 n=g5 v=87
65856 On ch=1 n=b5 v=87
66240 Off ch=1 n=b5 v=8
66240 Off ch=1 n=g5 v=6
66240 Off ch=1 n=e5 v=9
66240 Off ch=1 n=c#5 v=6
66240 Off ch=1 n=d#4 v=11
66240 On ch=1 n=b4 v=99
66432 On ch=1 n=c#5 v=89
66432 On ch=1 n=e5 v=89
66432 On ch=1 n=g5 v=89
66816 Off ch=1 n=g5 v=8
66816 Off ch=1 n=e5 v=8
66816 Off ch=1 n=c#5 v=6
66816 Off ch=1 n=b4 v=14
66816 On ch=1 n=a3 v=99
66816 On ch=1 n=e4 v=99
66816 On ch=1 n=b4 v=91
67008 On ch=1 n=c#5 v=92
67008 On ch=1 n=e5 v=92
67008 On ch=1 n=g5 v=92
67200 Off ch=1 n=g5 v=12
67200 Off ch=1 n=e5 v=5
67200 Off ch=1 n=c#5 v=8
67392 Off ch=1 n=b4 v=12
67392 Off ch=1 n=e4 v=9
67392 On ch=1 n=a4 v=92
67776 Off ch=1 n=a4 v=8
67776 On ch=1 n=g#4 v=92
67968 Off ch=1 n=g#4 v=15
67968 Off ch=1 n=a3 v=9
67968 On ch=1 n=d#3 v=94
67968 On ch=1 n=a#3 v=94
67968 On ch=1 n=g4 v=94
68160 Off ch=1 n=g4 v=12
68160 Off ch=1 n=a#3 v=14
68160 Off ch=1 n=d#3 v=14
69120 On ch=1 n=a5 v=99
69312 Off ch=1 n=a5 v=8
69312 On ch=1 n=f#5 v=99
69504 Off ch=1 n=f#5 v=9
69504 On ch=1 n=g#5 v=99
69696 Off ch=1 n=g#5 v=4
69696 On ch=1 n=f5 v=99
69888 Off ch=1 n=f5 v=7
69888 On ch=1 n=g5 v=99
70080 Off ch=1 n=g5 v=6
70080 On ch=1 n=e5 v=100
70272 Off ch=1 n=e5 v=8
70272 On ch=1 n=d#5 v=83
70464 Off ch=1 n=d#5 v=64
70464 On ch=1 n=a#4 v=71
70656 Off ch=1 n=a#4 v=64
70656 On ch=1 n=d#4 v=71
70848 Off ch=1 n=d#4 v=64
71424 On ch=1 n=a5 v=66
71616 Off ch=1 n=a5 v=64
71616 On ch=1 n=f#5 v=57
71808 Off ch=1 n=f#5 v=64
71808 On ch=1 n=g#5 v=86
72000 Off ch=1 n=g#5 v=64
72000 On ch=1 n=f5 v=75
72192 Off ch=1 n=f5 v=64
72192 On ch=1 n=g5 v=80
72384 Off ch=1 n=g5 v=64
72384 On ch=1 n=e5 v=66
72576 Off ch=1 n=e5 v=64
72576 On ch=1 n=d#5 v=86
72768 Off ch=1 n=d#5 v=64
72768 On ch=1 n=a#4 v=71
72960 Off ch=1 n=a#4 v=64
72960 On ch=1 n=d#4 v=79
73152 Off ch=1 n=d#4 v=64
73152 On ch=1 n=f4 v=42
73344 Off ch=1 n=f4 v=64
73344 On ch=1 n=g4 v=48
73536 Off ch=1 n=g4 v=64
73536 On ch=1 n=g#4 v=56
73728 Off ch=1 n=g#4 v=64
73728 On ch=1 n=a#4 v=63
73920 Off ch=1 n=a#4 v=64
73920 On ch=1 n=b4 v=70
74112 Off ch=1 n=b4 v=64
74112 On ch=1 n=c#5 v=78
74304 Off ch=1 n=c#5 v=64
74304 On ch=1 n=d#5 v=85
74496 Off ch=1 n=d#5 v=64
74496 On ch=1 n=f5 v=92
74688 Off ch=1 n=f5 v=64
74688 On ch=1 n=g5 v=99
74880 Off ch=1 n=g5 v=64
74880 On ch=1 n=d#5 v=106
74880 On ch=1 n=g#5 v=106
75264 Off ch=1 n=g#5 v=6
75264 Off ch=1 n=d#5 v=11
75264 On ch=1 n=g#3 v=92
75264 On ch=1 n=d#4 v=95
75456 Off ch=1 n=d#4 v=7
75456 Off ch=1 n=g#3 v=7
75456 On ch=1 n=d#5 v=95
75456 On ch=1 n=b5 v=92
75648 Off ch=1 n=b5 v=8
75648 Off ch=1 n=d#5 v=8
75840 On ch=1 n=d#5 v=99
75840 On ch=1 n=b5 v=99
76032 Off ch=1 n=b5 v=9
76032 Off ch=1 n=d#5 v=8
76032 On ch=1 n=d#5 v=91
76032 On ch=1 n=b5 v=92
76224 Off ch=1 n=b5 v=6
76224 Off ch=1 n=d#5 v=8
76416 On ch=1 n=d#5 v=87
76416 On ch=1 n=b5 v=89
76608 Off ch=1 n=b5 v=8
76608 Off ch=1 n=d#5 v=7
76608 On ch=1 n=d#5 v=83
76608 On ch=1 n=b5 v=86
76800 Off ch=1 n=b5 v=8
76800 Off ch=1 n=d#5 v=8
76992 On ch=1 n=d#5 v=86
76992 On ch=1 n=b5 v=86
77184 Off ch=1 n=b5 v=9
77184 Off ch=1 n=d#5 v=11
77184 On ch=1 n=d#5 v=83
77184 On ch=1 n=b5 v=73
77568 Off ch=1 n=b5 v=12
77568 Off ch=1 n=d#5 v=14
79296 On ch=1 n=e3 v=80
79296 On ch=1 n=g#3 v=75
79296 On ch=1 n=e4 v=80
79488 Off ch=1 n=e4 v=12
79488 Off ch=1 n=g#3 v=14
79488 Off ch=1 n=e3 v=11
79488 On ch=1 n=d#3 v=81
79488 On ch=1 n=g#3 v=75
79488 On ch=1 n=d#4 v=71
81024 Off ch=1 n=d#4 v=11
81024 Off ch=1 n=g#3 v=6
81024 Off ch=1 n=d#3 v=7
81024 On ch=1 n=c#3 v=86
81024 On ch=1 n=g#3 v=78
81024 On ch=1 n=c#4 v=80
81216 Off ch=1 n=c#4 v=8
81216 Off ch=1 n=g#3 v=6
81216 Off ch=1 n=c#3 v=8
81216 On ch=1 n=d#3 v=81
81216 On ch=1 n=g#3 v=73
81216 On ch=1 n=d#4 v=71
81600 Off ch=1 n=d#4 v=11
81600 Off ch=1 n=g#3 v=8
81600 Off ch=1 n=d#3 v=11
81600 On ch=1 n=b2 v=80
81600 On ch=1 n=d#3 v=80
81600 On ch=1 n=b3 v=78
81792 Off ch=1 n=b3 v=11
81792 Off ch=1 n=d#3 v=12
81792 Off ch=1 n=b2 v=11
81792 On ch=1 n=d#3 v=69
81792 On ch=1 n=g#3 v=70
81792 On ch=1 n=d#4 v=75
82176 Off ch=1 n=d#4 v=6
82176 Off ch=1 n=g#3 v=8
82176 Off ch=1 n=d#3 v=9
82176 On ch=1 n=a#2 v=83
82176 On ch=1 n=d#3 v=75
82176 On ch=1 n=a#3 v=67
82368 Off ch=1 n=a#3 v=7
82368 Off ch=1 n=d#3 v=6
82368 Off ch=1 n=a#2 v=6
82368 On ch=1 n=g#2 v=86
82368 On ch=1 n=d#3 v=78
82368 On ch=1 n=g#3 v=69
83520 Off ch=1 n=g#3 v=7
83520 Off ch=1 n=d#3 v=6
83520 Off ch=1 n=g#2 v=4
83520 On ch=1 n=c#3 v=86
83520 On ch=1 n=e4 v=81
83712 Off ch=1 n=e4 v=11
83712 Off ch=1 n=c#3 v=10
83712 On ch=1 n=a4 v=81
83904 Off ch=1 n=a4 v=13
83904 On ch=1 n=c#5 v=73
83904 On ch=1 n=e5 v=80
83904 On ch=1 n=a5 v=77
84096 Off ch=1 n=a5 v=14
84096 Off ch=1 n=e5 v=15
84096 Off ch=1 n=c#5 v=12
84096 On ch=1 n=b4 v=78
84096 On ch=1 n=d#5 v=80
84096 On ch=1 n=g#5 v=81
84440 On ch=1 n=d#3 v=78
84672 On ch=1 n=b4 v=81
85016 Off ch=1 n=d#3 v=14
85248 Off ch=1 n=b4 v=12
85248 Off ch=1 n=g#5 v=13
85248 Off ch=1 n=d#5 v=12
85248 Off ch=1 n=b4 v=5
85824 On ch=1 n=d#4 v=75
85824 On ch=1 n=g4 v=77
85824 On ch=1 n=c#5 v=81
86208 Off ch=1 n=c#5 v=13
86208 On ch=1 n=d#5 v=86
86400 Off ch=1 n=g4 v=11
86400 Off ch=1 n=d#4 v=11
86400 On ch=1 n=g#3 v=75
86400 On ch=1 n=d#4 v=73
86400 On ch=1 n=b4 v=92
86496 Off ch=1 n=d#5 v=11
86784 Off ch=1 n=b4 v=13
86784 Off ch=1 n=d#4 v=11
86784 Off ch=1 n=g#3 v=7
86784 On ch=1 n=f#4 v=91
86976 On ch=1 n=g#3 v=70
86976 On ch=1 n=e4 v=86
87168 Off ch=1 n=f#4 v=9
87552 Off ch=1 n=g#3 v=9
87552 On ch=1 n=a3 v=83
87936 Off ch=1 n=e4 v=15
87936 On ch=1 n=g#4 v=80
88128 Off ch=1 n=a3 v=12
88128 On ch=1 n=a#3 v=73
88128 On ch=1 n=f#4 v=78
88320 Off ch=1 n=g#4 v=12
88704 Off ch=1 n=a#3 v=11
88704 On ch=1 n=b3 v=75
89088 Off ch=1 n=f#4 v=11
89088 On ch=1 n=a4 v=75
89280 Off ch=1 n=b3 v=6
89280 On ch=1 n=c4 v=71
89280 On ch=1 n=g#4 v=75
89472 Off ch=1 n=a4 v=11
89856 Off ch=1 n=c4 v=9
89856 On ch=1 n=c#4 v=75
90240 Off ch=1 n=g#4 v=10
90240 On ch=1 n=b4 v=80
90432 Off ch=1 n=b4 v=9
90432 Off ch=1 n=c#4 v=8
90432 On ch=1 n=d4 v=71
90432 On ch=1 n=a#4 v=75
90816 Off ch=1 n=a#4 v=11
90816 On ch=1 n=c#5 v=78
91008 Off ch=1 n=d4 v=13
91008 On ch=1 n=d#4 v=70
91200 Off ch=1 n=d#4 v=10
91200 Off ch=1 n=c#5 v=13
91200 On ch=1 n=g#4 v=69
91296 Off ch=1 n=g#4 v=9
91296 On ch=1 n=b4 v=71
91392 Off ch=1 n=b4 v=6
91392 On ch=1 n=a#4 v=69
91488 Off ch=1 n=a#4 v=12
91488 On ch=1 n=b4 v=78
91584 Off ch=1 n=b4 v=7
91584 On ch=1 n=d#4 v=89
91680 On ch=1 n=b4 v=75
91776 Off ch=1 n=b4 v=13
91776 On ch=1 n=d#5 v=75
91872 Off ch=1 n=d#5 v=8
91872 On ch=1 n=a#4 v=73
91968 Off ch=1 n=a#4 v=8
91968 On ch=1 n=b4 v=75
92064 Off ch=1 n=b4 v=9
92064 On ch=1 n=d#5 v=69
92160 Off ch=1 n=d#5 v=5
92160 Off ch=1 n=d#4 v=7
92160 On ch=1 n=e4 v=92
92256 On ch=1 n=b4 v=71
92352 Off ch=1 n=b4 v=12
92352 On ch=1 n=d#5 v=70
92448 Off ch=1 n=d#5 v=9
92448 On ch=1 n=a#4 v=67
92544 Off ch=1 n=a#4 v=8
92544 On ch=1 n=b4 v=73
92640 Off ch=1 n=b4 v=9
92640 On ch=1 n=d#5 v=75
92736 Off ch=1 n=d#5 v=9
92736 Off ch=1 n=e4 v=12
92736 On ch=1 n=f4 v=83
92832 On ch=1 n=b4 v=75
92928 Off ch=1 n=b4 v=12
92928 On ch=1 n=d#5 v=77
93024 Off ch=1 n=d#5 v=8
93024 On ch=1 n=a#4 v=69
93120 Off ch=1 n=a#4 v=5
93120 On ch=1 n=b4 v=75
93216 Off ch=1 n=b4 v=14
93216 On ch=1 n=d#5 v=75
93312 Off ch=1 n=d#5 v=14
93312 Off ch=1 n=f4 v=13
93312 On ch=1 n=f#4 v=75
93408 On ch=1 n=b4 v=75
93504 Off ch=1 n=b4 v=12
93504 On ch=1 n=d#5 v=71
93600 Off ch=1 n=d#5 v=7
93600 On ch=1 n=a#4 v=65
93696 Off ch=1 n=a#4 v=9
93696 On ch=1 n=b4 v=75
93792 Off ch=1 n=b4 v=12
93792 On ch=1 n=d#5 v=71
93888 Off ch=1 n=d#5 v=8
93888 Off ch=1 n=f#4 v=8
93888 On ch=1 n=g4 v=78
93984 On ch=1 n=d#5 v=67
94080 Off ch=1 n=d#5 v=11
94080 On ch=1 n=b5 v=69
94176 Off ch=1 n=b5 v=6
94176 On ch=1 n=d5 v=63
94272 Off ch=1 n=d5 v=8
94272 On ch=1 n=d#5 v=60
94368 Off ch=1 n=d#5 v=7
94368 On ch=1 n=b5 v=63
94464 Off ch=1 n=b5 v=7
94464 Off ch=1 n=g4 v=9
94464 On ch=1 n=g#4 v=79
94560 On ch=1 n=d#5 v=63
94656 Off ch=1 n=d#5 v=9
94656 On ch=1 n=b5 v=78
94752 Off ch=1 n=b5 v=8
94752 On ch=1 n=d5 v=67
94848 Off ch=1 n=d5 v=8
94848 On ch=1 n=d#5 v=65
94944 Off ch=1 n=d#5 v=9
94944 On ch=1 n=b5 v=69
95040 Off ch=1 n=b5 v=7
95040 Off ch=1 n=g#4 v=9
95040 On ch=1 n=a4 v=81
95136 On ch=1 n=d#5 v=75
95232 Off ch=1 n=d#5 v=11
95232 On ch=1 n=b5 v=75
95328 Off ch=1 n=b5 v=7
95328 On ch=1 n=c#5 v=71
95424 Off ch=1 n=c#5 v=8
95424 Off ch=1 n=a4 v=8
95424 On ch=1 n=a#4 v=69
95424 On ch=1 n=d#5 v=78
95520 Off ch=1 n=d#5 v=8
95520 On ch=1 n=b5 v=70
95616 Off ch=1 n=b5 v=12
95616 Off ch=1 n=a#4 v=13
95616 On ch=1 n=e2 v=103
95636 On ch=1 n=e3 v=99
95656 On ch=1 n=b3 v=99
95676 On ch=1 n=e4 v=99
95696 On ch=1 n=g4 v=103
95716 On ch=1 n=b4 v=103
96192 Off ch=1 n=e2 v=8
96192 On ch=1 n=c#5 v=78
96212 Off ch=1 n=e3 v=9
96232 Off ch=1 n=b3 v=9
96252 Off ch=1 n=e4 v=4
96272 Off ch=1 n=g4 v=12
96292 Off ch=1 n=b4 v=8
96768 Off ch=1 n=c#5 v=8
96768 On ch=1 n=d#3 v=83
96864 On ch=1 n=d#4 v=63
96960 On ch=1 n=g4 v=65
97056 On ch=1 n=c#5 v=67
97152 On ch=1 n=d#5 v=75
97248 On ch=1 n=g5 v=80
97344 On ch=1 n=d#6 v=86
97728 Off ch=1 n=d#5 v=6
97728 Off ch=1 n=c#5 v=5
97824 Off ch=1 n=g5 v=8
97824 Off ch=1 n=d#3 v=4
97920 Off ch=1 n=d#6 v=15
97920 Off ch=1 n=g4 v=6
97920 Off ch=1 n=d#4 v=7
97920 On ch=1 n=g#3 v=75
97920 On ch=1 n=d#4 v=75
97920 On ch=1 n=b4 v=51
98496 Off ch=1 n=b4 v=64
98496 Off ch=1 n=d#4 v=64
98496 Off ch=1 n=g#3 v=64
100608 On ch=1 n=b6 v=51
100608 On ch=1 n=d#7 v=51
100800 Off ch=1 n=d#7 v=6
100800 Off ch=1 n=b6 v=6
100800 On ch=1 n=b6 v=51
100800 On ch=1 n=d#7 v=51
100992 Off ch=1 n=d#7 v=7
100992 Off ch=1 n=b6 v=6
101184 On ch=1 n=b6 v=51
101184 On ch=1 n=d#7 v=46
101376 Off ch=1 n=d#7 v=5
101376 Off ch=1 n=b6 v=4
101376 On ch=1 n=b6 v=48
101376 On ch=1 n=d#7 v=46
101568 Off ch=1 n=d#7 v=6
101568 Off ch=1 n=b6 v=5
101760 On ch=1 n=b6 v=56
101760 On ch=1 n=d#7 v=51
101952 Off ch=1 n=d#7 v=6
101952 Off ch=1 n=b6 v=6
101952 On ch=1 n=b6 v=56
101952 On ch=1 n=d#7 v=53
102144 Off ch=1 n=d#7 v=6
102144 Off ch=1 n=b6 v=5
102336 On ch=1 n=b6 v=53
102336 On ch=1 n=d#7 v=53
102528 Off ch=1 n=d#7 v=6
102528 Off ch=1 n=b6 v=5
102528 On ch=1 n=b6 v=51
102528 On ch=1 n=d#7 v=46
102720 Off ch=1 n=d#7 v=4
102720 Off ch=1 n=b6 v=6
102720 On ch=1 n=g#7 v=46
102720 On ch=1 n=b7 v=51
102912 Off ch=1 n=b7 v=4
102912 Off ch=1 n=g#7 v=5
102912 On ch=1 n=g#7 v=51
102912 On ch=1 n=b7 v=51
103104 Off ch=1 n=b7 v=6
103104 Off ch=1 n=g#7 v=3
103104 On ch=1 n=g#7 v=51
103104 On ch=1 n=b7 v=51
103296 Off ch=1 n=b7 v=10
103296 Off ch=1 n=g#7 v=5
103296 On ch=1 n=g#7 v=51
103296 On ch=1 n=b7 v=48
103488 Off ch=1 n=b7 v=5
103488 Off ch=1 n=g#7 v=16
103488 On ch=1 n=g#7 v=46
103488 On ch=1 n=b7 v=46
103680 Off ch=1 n=b7 v=14
103680 Off ch=1 n=g#7 v=5
103680 On ch=1 n=g#7 v=51
103680 On ch=1 n=g#7 v=46
103680 On ch=1 n=b7 v=48
103680 On ch=1 n=b7 v=48
103872 Off ch=1 n=b7 v=5
103872 Off ch=1 n=b7 v=4
103872 Off ch=1 n=g#7 v=29
103872 Off ch=1 n=g#7 v=4
103872 On ch=1 n=g#7 v=51
103872 On ch=1 n=b7 v=51
104064 Off ch=1 n=b7 v=7
104064 Off ch=1 n=g#7 v=14
104064 On ch=1 n=g#7 v=53
104064 On ch=1 n=b7 v=53
104256 Off ch=1 n=b7 v=6
104256 Off ch=1 n=g#7 v=4
104256 On ch=1 n=g#7 v=56
104256 On ch=1 n=b7 v=56
104448 Off ch=1 n=b7 v=5
104448 Off ch=1 n=g#7 v=5
104448 On ch=1 n=g#7 v=56
104448 On ch=1 n=b7 v=56
104640 Off ch=1 n=b7 v=11
104640 Off ch=1 n=g#7 v=18
104832 On ch=1 n=g#7 v=56
104832 On ch=1 n=b7 v=56
105024 Off ch=1 n=b7 v=64
105024 Off ch=1 n=g#7 v=64
105024 On ch=1 n=d#6 v=56
105120 Off ch=1 n=d#6 v=64
105120 On ch=1 n=b6 v=53
105216 Off ch=1 n=b6 v=64
105216 On ch=1 n=g#6 v=53
105312 Off ch=1 n=g#6 v=64
105312 On ch=1 n=b6 v=53
105408 Off ch=1 n=b6 v=64
105600 On ch=1 n=d#6 v=56
105696 Off ch=1 n=d#6 v=64
105696 On ch=1 n=b6 v=51
105792 Off ch=1 n=b6 v=64
105792 On ch=1 n=g#6 v=51
105888 Off ch=1 n=g#6 v=64
105888 On ch=1 n=b6 v=51
105984 Off ch=1 n=b6 v=64
106176 On ch=1 n=d#6 v=51
106272 Off ch=1 n=d#6 v=64
106272 On ch=1 n=b6 v=51
106368 Off ch=1 n=b6 v=64
106368 On ch=1 n=g#6 v=51
106464 Off ch=1 n=g#6 v=64
106464 On ch=1 n=b6 v=44
106560 Off ch=1 n=b6 v=64
106560 On ch=1 n=d#6 v=44
106656 Off ch=1 n=d#6 v=64
106656 On ch=1 n=b6 v=44
106752 Off ch=1 n=b6 v=64
106752 On ch=1 n=g#6 v=48
106848 Off ch=1 n=g#6 v=64
106848 On ch=1 n=b6 v=53
106944 Off ch=1 n=b6 v=64
106944 On ch=1 n=d#6 v=53
107040 Off ch=1 n=d#6 v=64
107040 On ch=1 n=b6 v=56
107136 Off ch=1 n=b6 v=64
107136 On ch=1 n=g#6 v=56
107520 Off ch=1 n=g#6 v=64
107520 On ch=1 n=g#5 v=56
107904 Off ch=1 n=g#5 v=64
109440 Meta TrkEnd
TrkEnd
MTrk
0 Meta TrkName "Pedal rech"
988 Par ch=1 c=64 v=127
2117 Par ch=1 c=64 v=0
2952 Par ch=1 c=64 v=127
4569 Par ch=1 c=64 v=0
5195 Par ch=1 c=64 v=127
6536 Par ch=1 c=64 v=0
7588 Par ch=1 c=64 v=127
7754 Par ch=1 c=64 v=0
7921 Par ch=1 c=64 v=127
8968 Par ch=1 c=64 v=0
9148 Par ch=1 c=64 v=127
9591 Par ch=1 c=64 v=0
9827 Par ch=1 c=64 v=127
10746 Par ch=1 c=64 v=0
12021 Par ch=1 c=64 v=127
12955 Par ch=1 c=64 v=0
15025 Par ch=1 c=64 v=127
15285 Par ch=1 c=64 v=0
15527 Par ch=1 c=64 v=127
15771 Par ch=1 c=64 v=0
16245 Par ch=1 c=64 v=127
16412 Par ch=1 c=64 v=0
16813 Par ch=1 c=64 v=127
18772 Par ch=1 c=64 v=0
19950 Par ch=1 c=64 v=127
20304 Par ch=1 c=64 v=0
20738 Par ch=1 c=64 v=127
20973 Par ch=1 c=64 v=0
21044 Par ch=1 c=64 v=127
22000 Par ch=1 c=64 v=0
22306 Par ch=1 c=64 v=127
22691 Par ch=1 c=64 v=0
23643 Par ch=1 c=64 v=127
23806 Par ch=1 c=64 v=0
24619 Par ch=1 c=64 v=127
25340 Par ch=1 c=64 v=0
26015 Par ch=1 c=64 v=127
27107 Par ch=1 c=64 v=0
27667 Par ch=1 c=64 v=127
28992 Par ch=1 c=64 v=0
29294 Par ch=1 c=64 v=127
30086 Par ch=1 c=64 v=0
30573 Par ch=1 c=64 v=127
31226 Par ch=1 c=64 v=0
31714 Par ch=1 c=64 v=127
32457 Par ch=1 c=64 v=0
32676 Par ch=1 c=64 v=127
33009 Par ch=1 c=64 v=0
33425 Par ch=1 c=64 v=127
33953 Par ch=1 c=64 v=0
34045 Par ch=1 c=64 v=127
34527 Par ch=1 c=64 v=0
34618 Par ch=1 c=64 v=127
35054 Par ch=1 c=64 v=0
35238 Par ch=1 c=64 v=127
35857 Par ch=1 c=64 v=0
36385 Par ch=1 c=64 v=127
37165 Par ch=1 c=64 v=0
37394 Par ch=1 c=64 v=127
38197 Par ch=1 c=64 v=0
39801 Par ch=1 c=64 v=127
40535 Par ch=1 c=64 v=0
42137 Par ch=1 c=64 v=127
42525 Par ch=1 c=64 v=0
42649 Par ch=1 c=64 v=127
43537 Par ch=1 c=64 v=0
52002 Par ch=1 c=64 v=127
52061 Par ch=1 c=64 v=0
52356 Par ch=1 c=64 v=127
53180 Par ch=1 c=64 v=0
53673 Par ch=1 c=64 v=127
54505 Par ch=1 c=64 v=0
54734 Par ch=1 c=64 v=127
57019 Par ch=1 c=64 v=0
57587 Par ch=1 c=64 v=127
59228 Par ch=1 c=64 v=0
61151 Par ch=1 c=64 v=127
61863 Par ch=1 c=64 v=0
63407 Par ch=1 c=64 v=127
64120 Par ch=1 c=64 v=0
65688 Par ch=1 c=64 v=127
66425 Par ch=1 c=64 v=0
66875 Par ch=1 c=64 v=127
67288 Par ch=1 c=64 v=0
67439 Par ch=1 c=64 v=127
67708 Par ch=1 c=64 v=0
67943 Par ch=1 c=64 v=127
67960 Par ch=1 c=64 v=0
68025 Par ch=1 c=64 v=127
68202 Par ch=1 c=64 v=0
74976 Par ch=1 c=64 v=127
79312 Par ch=1 c=64 v=0
80496 Par ch=1 c=64 v=127
81168 Par ch=1 c=64 v=0
81637 Par ch=1 c=64 v=127
81960 Par ch=1 c=64 v=0
83322 Par ch=1 c=64 v=127
83832 Par ch=1 c=64 v=0
84888 Par ch=1 c=64 v=127
85905 Par ch=1 c=64 v=0
86520 Par ch=1 c=64 v=127
87344 Par ch=1 c=64 v=0
88744 Par ch=1 c=64 v=127
89341 Par ch=1 c=64 v=0
89891 Par ch=1 c=64 v=127
90442 Par ch=1 c=64 v=0
91106 Par ch=1 c=64 v=127
91679 Par ch=1 c=64 v=0
92183 Par ch=1 c=64 v=127
92805 Par ch=1 c=64 v=0
93353 Par ch=1 c=64 v=127
93858 Par ch=1 c=64 v=0
95653 Par ch=1 c=64 v=127
96317 Par ch=1 c=64 v=0
99082 Par ch=1 c=64 v=127
100391 Par ch=1 c=64 v=0
100849 Par ch=1 c=64 v=127
102739 Par ch=1 c=64 v=0
103172 Par ch=1 c=64 v=127
105099 Par ch=1 c=64 v=0
105605 Par ch=1 c=64 v=127
108536 Par ch=1 c=64 v=0
109440 Meta TrkEnd
TrkEnd
