MFile 1 4 480
MTrk
0 Meta SeqName "Prelude in G, Opus 32, No. 5"
0 Meta Copyright "\xffffffa9copyright - performed by Larry Ellis 10-22-1999"
0 SMPTE 0 0 0 0 0
0 Tempo 163043
0 TimeSig 5/4 24 8
0 KeySig 1 major
33580 Tempo 200000
33600 Tempo 173913
36000 Tempo 175953
37440 Tempo 188679
37920 Tempo 491803
38380 Tempo 188087
38400 Tempo 163043
40780 Tempo 428571
40800 Tempo 163043
47208 Tempo 198019
48000 Tempo 175953
48480 Tempo 166666
49440 Tempo 198675
49590 Tempo 196721
50400 Tempo 172413
51280 Tempo 164835
57600 Tempo 204081
57600 TimeSig 4/4 24 8
67200 Tempo 206185
69120 Tempo 210526
72460 Tempo 342857
72480 Tempo 352941
72720 Tempo 397350
72940 Tempo 375000
72960 Tempo 163043
72960 TimeSig 5/4 24 8
76320 Tempo 175953
76550 Tempo 413793
76560 Tempo 175953
77740 Tempo 413793
77760 Tempo 166204
79680 Tempo 206896
80133 Tempo 400000
80160 Tempo 166204
80940 Tempo 444444
80960 Tempo 164835
81755 Tempo 200000
82550 Tempo 352941
82560 Tempo 163043
109437 Tempo 177514
110404 Tempo 319148
111363 Tempo 163043
113710 Tempo 428571
113760 Tempo 163043
130560 Tempo 199335
130560 TimeSig 4/4 24 8
145570 Tempo 333333
145920 Tempo 200668
147840 Tempo 200000
149760 Tempo 198675
151680 Tempo 200668
153600 Tempo 202020
155520 Tempo 196078
157440 Tempo 194805
159360 Tempo 201342
161280 Tempo 191693
168960 Tempo 187500
174712 Tempo 857142
174720 Tempo 181818
176640 Tempo 179640
178552 Tempo 750000
178560 Tempo 176991
180480 Tempo 174927
182392 Tempo 857142
182400 Tempo 174418
184320 Tempo 168067
190080 Tempo 169491
190200 Tempo 169971
190320 Tempo 170454
190440 Tempo 171428
190560 Tempo 173410
190680 Tempo 178041
190800 Tempo 190476
193200 Tempo 218978
194400 Tempo 731707
194520 Tempo 372670
194880 Tempo 327868
195360 Tempo 303030
195840 Tempo 283018
199680 Tempo 283018
207360 Tempo 163043
207360 TimeSig 5/4 24 8
226540 Tempo 315789
226560 Tempo 163043
245752 Tempo 923076
245760 Tempo 165745
246000 Tempo 167597
246120 Tempo 169971
246240 Tempo 170940
246360 Tempo 172910
246480 Tempo 174927
246600 Tempo 176470
246720 Tempo 178041
246960 Tempo 189274
250552 Tempo 1052631
250560 Tempo 192926
251280 Tempo 184049
251752 Tempo 1304347
251760 Tempo 175438
255360 Tempo 163043
302580 Tempo 169014
303360 Tempo 175953
310560 Tempo 193548
311520 Tempo 198019
312952 Tempo 857142
312960 Tempo 169491
313440 Tempo 167130
318240 Tempo 163043
336960 Tempo 163043
339360 Tempo 168539
341760 Tempo 170940
344160 Tempo 178041
347520 Tempo 182926
348960 Tempo 185185
351360 Tempo 189274
353760 Tempo 197368
356018 Tempo 372670
359490 Tempo 480000
359500 Tempo 400000
362880 Tempo 408163
364560 Tempo 300000
364560 Meta TrkEnd
TrkEnd
MTrk
0 Meta TrkName "Acoustic Grand Piano"
0 Meta 0x21 00
0 Meta 0x20 01
0 Par ch=2 c=7 v=127
0 Par ch=2 c=10 v=64
0 PrCh ch=2 p=0
15600 Par ch=2 c=10 v=115
15600 On ch=2 n=f#6 v=107
16800 On ch=2 n=e6 v=109
16810 Off ch=2 n=f#6 v=64
18395 On ch=2 n=d6 v=101
18400 Off ch=2 n=e6 v=64
19200 On ch=2 n=g6 v=109
19205 Off ch=2 n=d6 v=64
20780 Off ch=2 n=g6 v=64
20795 On ch=2 n=g6 v=103
21595 Off ch=2 n=g6 v=64
21600 On ch=2 n=g6 v=93
27969 Off ch=2 n=g6 v=64
28000 On ch=2 n=a6 v=99
28794 Off ch=2 n=a6 v=64
28800 On ch=2 n=b6 v=103
30380 Off ch=2 n=b6 v=64
30400 On ch=2 n=c7 v=105
31200 On ch=2 n=d7 v=107
31205 Off ch=2 n=c7 v=64
34248 Off ch=2 n=d7 v=64
34313 On ch=2 n=e7 v=127
37608 On ch=2 n=d7 v=103
37633 Off ch=2 n=e7 v=64
38373 Off ch=2 n=d7 v=64
38400 On ch=2 n=d7 v=92
40800 On ch=2 n=b6 v=81
40830 Off ch=2 n=d7 v=64
47160 Off ch=2 n=b6 v=64
47208 On ch=2 n=a6 v=77
48000 On ch=2 n=b6 v=78
48028 Off ch=2 n=a6 v=64
49600 On ch=2 n=c7 v=70
49621 Off ch=2 n=b6 v=64
50400 On ch=2 n=b6 v=68
50430 Off ch=2 n=c7 v=64
55800 Off ch=2 n=b6 v=64
56080 On ch=2 n=d6 v=69
56636 On ch=2 n=d7 v=66
56660 Off ch=2 n=d6 v=64
56877 On ch=2 n=g6 v=77
56891 Off ch=2 n=d7 v=64
57118 On ch=2 n=f#6 v=65
57132 Off ch=2 n=g6 v=64
57359 On ch=2 n=g6 v=63
57373 Off ch=2 n=f#6 v=64
57600 On ch=2 n=f#6 v=78
57624 Off ch=2 n=g6 v=64
58276 Off ch=2 n=f#6 v=64
58320 On ch=2 n=c6 v=69
58572 Off ch=2 n=c6 v=64
58835 On ch=2 n=b6 v=93
59005 On ch=2 n=f#6 v=66
59087 Off ch=2 n=b6 v=64
59180 On ch=2 n=e6 v=65
59257 Off ch=2 n=f#6 v=64
59350 On ch=2 n=f#6 v=63
59432 Off ch=2 n=e6 v=64
59520 On ch=2 n=e6 v=81
59602 Off ch=2 n=f#6 v=64
60196 Off ch=2 n=e6 v=64
60240 On ch=2 n=b5 v=68
60492 Off ch=2 n=b5 v=64
60755 On ch=2 n=b6 v=91
60925 On ch=2 n=e6 v=65
61007 Off ch=2 n=b6 v=64
61100 On ch=2 n=d6 v=63
61177 Off ch=2 n=e6 v=64
61270 On ch=2 n=e6 v=61
61352 Off ch=2 n=d6 v=64
61440 On ch=2 n=d6 v=81
61522 Off ch=2 n=e6 v=64
62116 Off ch=2 n=d6 v=64
62160 On ch=2 n=c6 v=67
62412 Off ch=2 n=c6 v=64
62675 On ch=2 n=b6 v=91
62845 On ch=2 n=f#6 v=61
62927 Off ch=2 n=b6 v=64
63020 On ch=2 n=e6 v=59
63097 Off ch=2 n=f#6 v=64
63190 On ch=2 n=f#6 v=58
63272 Off ch=2 n=e6 v=64
63360 On ch=2 n=e6 v=78
63442 Off ch=2 n=f#6 v=64
64036 Off ch=2 n=e6 v=64
64080 On ch=2 n=d6 v=66
64560 Off ch=2 n=d6 v=64
64595 On ch=2 n=b6 v=91
64765 On ch=2 n=g6 v=59
64847 Off ch=2 n=b6 v=64
64940 On ch=2 n=f#6 v=58
65017 Off ch=2 n=g6 v=64
65110 On ch=2 n=g6 v=56
65192 Off ch=2 n=f#6 v=64
65280 On ch=2 n=f#6 v=81
65362 Off ch=2 n=g6 v=64
65956 Off ch=2 n=f#6 v=64
66000 On ch=2 n=c6 v=69
66360 Off ch=2 n=c6 v=64
66475 On ch=2 n=b6 v=91
66655 On ch=2 n=f#6 v=61
66727 Off ch=2 n=b6 v=64
66840 On ch=2 n=e6 v=59
66907 Off ch=2 n=f#6 v=64
67020 On ch=2 n=f#6 v=74
67092 Off ch=2 n=e6 v=64
67200 On ch=2 n=e6 v=94
67272 Off ch=2 n=f#6 v=64
67876 Off ch=2 n=e6 v=64
67920 On ch=2 n=b5 v=67
68172 Off ch=2 n=b5 v=64
68395 On ch=2 n=b6 v=86
68575 On ch=2 n=e6 v=90
68647 Off ch=2 n=b6 v=64
68760 On ch=2 n=d6 v=74
68827 Off ch=2 n=e6 v=64
68940 On ch=2 n=e6 v=71
69012 Off ch=2 n=d6 v=64
69120 On ch=2 n=d6 v=76
69192 Off ch=2 n=e6 v=64
70028 Off ch=2 n=d6 v=64
70080 On ch=2 n=a5 v=61
70320 On ch=2 n=d6 v=61
70332 Off ch=2 n=a5 v=64
70560 On ch=2 n=c6 v=59
70572 Off ch=2 n=d6 v=64
70800 On ch=2 n=d6 v=56
70812 Off ch=2 n=c6 v=64
71040 On ch=2 n=c6 v=78
71052 Off ch=2 n=d6 v=64
71716 Off ch=2 n=c6 v=64
71760 On ch=2 n=d5 v=63
72000 On ch=2 n=d6 v=78
72012 Off ch=2 n=d5 v=64
72240 On ch=2 n=c6 v=66
72252 Off ch=2 n=d6 v=64
72480 On ch=2 n=b5 v=61
72492 Off ch=2 n=c6 v=64
72720 On ch=2 n=c6 v=59
72732 Off ch=2 n=b5 v=64
72960 On ch=2 n=b5 v=67
72972 Off ch=2 n=c6 v=64
76080 Off ch=2 n=b5 v=64
76560 On ch=2 n=a4 v=77
77753 Off ch=2 n=a4 v=64
77810 On ch=2 n=g4 v=72
80090 Off ch=2 n=g4 v=64
80160 On ch=2 n=f#4 v=69
80960 On ch=2 n=e4 v=69
80965 Off ch=2 n=f#4 v=64
81755 On ch=2 n=d4 v=59
81765 Off ch=2 n=e4 v=64
82555 Off ch=2 n=d4 v=64
82560 On ch=2 n=d4 v=67
82560 On ch=2 n=g3 v=55
88080 Off ch=2 n=g3 v=64
88080 Off ch=2 n=d4 v=64
88560 On ch=2 n=f#6 v=98
89760 Off ch=2 n=f#6 v=64
89760 On ch=2 n=e6 v=105
91355 On ch=2 n=d6 v=97
91360 Off ch=2 n=e6 v=64
92160 On ch=2 n=g6 v=103
92165 Off ch=2 n=d6 v=64
93740 Off ch=2 n=g6 v=64
93755 On ch=2 n=g6 v=94
94555 Off ch=2 n=g6 v=64
94560 On ch=2 n=g6 v=94
100929 Off ch=2 n=g6 v=64
100955 On ch=2 n=a6 v=93
101749 Off ch=2 n=a6 v=64
101760 On ch=2 n=b6 v=114
103340 Off ch=2 n=b6 v=64
103360 On ch=2 n=c7 v=117
104160 On ch=2 n=d7 v=117
104165 Off ch=2 n=c7 v=64
107208 Off ch=2 n=d7 v=64
107273 On ch=2 n=e7 v=127
108960 On ch=2 n=f#7 v=107
108996 Off ch=2 n=e7 v=64
109760 On ch=2 n=e7 v=107
109804 Off ch=2 n=f#7 v=64
110555 On ch=2 n=d7 v=107
110595 Off ch=2 n=e7 v=64
111240 Off ch=2 n=d7 v=64
111360 On ch=2 n=d7 v=92
113760 On ch=2 n=b6 v=70
113810 Off ch=2 n=d7 v=64
118540 Off ch=2 n=b6 v=64
118560 On ch=2 n=g6 v=85
120155 On ch=2 n=a6 v=85
120160 Off ch=2 n=g6 v=64
120955 Off ch=2 n=a6 v=64
120960 On ch=2 n=b6 v=79
122160 Off ch=2 n=b6 v=64
122460 On ch=2 n=a6 v=67
122750 Off ch=2 n=a6 v=64
122760 On ch=2 n=b6 v=66
123050 Off ch=2 n=b6 v=64
123060 On ch=2 n=c7 v=58
123350 Off ch=2 n=c7 v=64
123360 On ch=2 n=b6 v=50
128760 Off ch=2 n=b6 v=64
129040 On ch=2 n=d6 v=61
129596 On ch=2 n=d7 v=59
129620 Off ch=2 n=d6 v=64
129837 On ch=2 n=g6 v=65
129851 Off ch=2 n=d7 v=64
130078 On ch=2 n=f#6 v=68
130092 Off ch=2 n=g6 v=64
130319 On ch=2 n=g6 v=63
130333 Off ch=2 n=f#6 v=64
130560 On ch=2 n=f#6 v=78
130584 Off ch=2 n=g6 v=64
131236 Off ch=2 n=f#6 v=64
131280 On ch=2 n=c6 v=69
131532 Off ch=2 n=c6 v=64
131795 On ch=2 n=b6 v=93
131965 On ch=2 n=f#6 v=66
132047 Off ch=2 n=b6 v=64
132140 On ch=2 n=e6 v=65
132217 Off ch=2 n=f#6 v=64
132310 On ch=2 n=f#6 v=63
132392 Off ch=2 n=e6 v=64
132480 On ch=2 n=e6 v=81
132562 Off ch=2 n=f#6 v=64
133156 Off ch=2 n=e6 v=64
133200 On ch=2 n=b5 v=65
133452 Off ch=2 n=b5 v=64
133715 On ch=2 n=b6 v=66
133885 On ch=2 n=e6 v=65
133967 Off ch=2 n=b6 v=64
134060 On ch=2 n=d6 v=63
134137 Off ch=2 n=e6 v=64
134230 On ch=2 n=e6 v=61
134312 Off ch=2 n=d6 v=64
134400 On ch=2 n=d6 v=81
134482 Off ch=2 n=e6 v=64
135076 Off ch=2 n=d6 v=64
135120 On ch=2 n=c6 v=59
135372 Off ch=2 n=c6 v=64
135635 On ch=2 n=b6 v=61
135805 On ch=2 n=f#6 v=61
135887 Off ch=2 n=b6 v=64
135980 On ch=2 n=e6 v=59
136057 Off ch=2 n=f#6 v=64
136150 On ch=2 n=f#6 v=58
136232 Off ch=2 n=e6 v=64
136320 On ch=2 n=e6 v=78
136402 Off ch=2 n=f#6 v=64
136996 Off ch=2 n=e6 v=64
137040 On ch=2 n=d6 v=61
137520 Off ch=2 n=d6 v=64
137555 On ch=2 n=b6 v=61
137725 On ch=2 n=g6 v=59
137807 Off ch=2 n=b6 v=64
137900 On ch=2 n=f#6 v=58
137977 Off ch=2 n=g6 v=64
138070 On ch=2 n=g6 v=56
138152 Off ch=2 n=f#6 v=64
138240 On ch=2 n=f#6 v=81
138322 Off ch=2 n=g6 v=64
138875 Off ch=2 n=f#6 v=64
138960 On ch=2 n=c6 v=59
139475 On ch=2 n=b6 v=65
139524 Off ch=2 n=c6 v=64
139645 On ch=2 n=f#6 v=61
139727 Off ch=2 n=b6 v=64
139820 On ch=2 n=e6 v=59
139897 Off ch=2 n=f#6 v=64
139990 On ch=2 n=f#6 v=58
140072 Off ch=2 n=e6 v=64
140160 On ch=2 n=e6 v=80
140242 Off ch=2 n=f#6 v=64
140836 Off ch=2 n=e6 v=64
140880 On ch=2 n=b5 v=56
141395 On ch=2 n=b6 v=61
141431 Off ch=2 n=b5 v=64
141565 On ch=2 n=e6 v=59
141647 Off ch=2 n=b6 v=64
141740 On ch=2 n=d6 v=58
141817 Off ch=2 n=e6 v=64
141910 On ch=2 n=e6 v=56
141992 Off ch=2 n=d6 v=64
142080 On ch=2 n=d6 v=76
142162 Off ch=2 n=e6 v=64
142988 Off ch=2 n=d6 v=64
143215 On ch=2 n=a5 v=61
143415 On ch=2 n=e6 v=61
143467 Off ch=2 n=a5 v=64
143600 On ch=2 n=d6 v=59
143667 Off ch=2 n=e6 v=64
143800 On ch=2 n=e6 v=56
143852 Off ch=2 n=d6 v=64
144000 On ch=2 n=d6 v=78
144052 Off ch=2 n=e6 v=64
144676 Off ch=2 n=d6 v=64
145135 On ch=2 n=e5 v=61
145335 On ch=2 n=d6 v=66
145387 Off ch=2 n=e5 v=64
145520 On ch=2 n=c6 v=67
145587 Off ch=2 n=d6 v=64
145720 On ch=2 n=d6 v=69
145772 Off ch=2 n=c6 v=64
145920 On ch=2 n=c6 v=85
145972 Off ch=2 n=d6 v=64
146880 On ch=2 n=d5 v=66
146945 Off ch=2 n=c6 v=64
147155 On ch=2 n=d6 v=90
147160 Off ch=2 n=d5 v=64
147325 On ch=2 n=c6 v=90
147435 Off ch=2 n=d6 v=64
147500 On ch=2 n=b5 v=90
147605 Off ch=2 n=c6 v=64
147670 On ch=2 n=c6 v=90
147780 Off ch=2 n=b5 v=64
147840 On ch=2 n=b5 v=90
147950 Off ch=2 n=c6 v=64
148800 On ch=2 n=c5 v=71
148865 Off ch=2 n=b5 v=64
149075 On ch=2 n=d6 v=77
149245 On ch=2 n=b5 v=77
149280 Off ch=2 n=c5 v=64
149355 Off ch=2 n=d6 v=64
149420 On ch=2 n=a5 v=77
149525 Off ch=2 n=b5 v=64
149590 On ch=2 n=b5 v=77
149700 Off ch=2 n=a5 v=64
149760 On ch=2 n=a5 v=90
149870 Off ch=2 n=b5 v=64
150720 On ch=2 n=d5 v=90
150785 Off ch=2 n=a5 v=64
150995 On ch=2 n=d6 v=77
151000 Off ch=2 n=d5 v=64
151165 On ch=2 n=c6 v=77
151275 Off ch=2 n=d6 v=64
151340 On ch=2 n=b5 v=77
151445 Off ch=2 n=c6 v=64
151510 On ch=2 n=c6 v=77
151620 Off ch=2 n=b5 v=64
151680 On ch=2 n=b5 v=90
151762 Off ch=2 n=c6 v=64
152705 Off ch=2 n=b5 v=64
152770 On ch=2 n=e5 v=83
153030 On ch=2 n=d6 v=78
153175 Off ch=2 n=e5 v=64
153220 On ch=2 n=c6 v=78
153325 Off ch=2 n=d6 v=64
153410 On ch=2 n=d6 v=78
153515 Off ch=2 n=c6 v=64
153600 On ch=2 n=c6 v=77
153705 Off ch=2 n=d6 v=64
154625 Off ch=2 n=c6 v=64
154660 On ch=2 n=d5 v=69
154950 On ch=2 n=c6 v=69
154960 Off ch=2 n=d5 v=64
155140 On ch=2 n=b5 v=69
155245 Off ch=2 n=c6 v=64
155330 On ch=2 n=c6 v=69
155435 Off ch=2 n=b5 v=64
155520 On ch=2 n=b5 v=86
155625 Off ch=2 n=c6 v=64
156480 On ch=2 n=c5 v=69
156545 Off ch=2 n=b5 v=64
156755 On ch=2 n=d6 v=76
156760 Off ch=2 n=c5 v=64
156925 On ch=2 n=b5 v=80
157035 Off ch=2 n=d6 v=64
157100 On ch=2 n=a5 v=78
157205 Off ch=2 n=b5 v=64
157270 On ch=2 n=b5 v=77
157380 Off ch=2 n=a5 v=64
157440 On ch=2 n=a5 v=105
157550 Off ch=2 n=b5 v=64
158400 On ch=2 n=b4 v=78
158465 Off ch=2 n=a5 v=64
158675 On ch=2 n=d6 v=81
158680 Off ch=2 n=b4 v=64
158845 On ch=2 n=a5 v=82
158955 Off ch=2 n=d6 v=64
159020 On ch=2 n=g5 v=81
159125 Off ch=2 n=a5 v=64
159190 On ch=2 n=a5 v=83
159300 Off ch=2 n=g5 v=64
159360 On ch=2 n=g5 v=92
159470 Off ch=2 n=a5 v=64
160320 On ch=2 n=c#5 v=78
160385 Off ch=2 n=g5 v=64
160595 On ch=2 n=a5 v=78
160600 Off ch=2 n=c#5 v=64
160765 On ch=2 n=g5 v=77
160875 Off ch=2 n=a5 v=64
160940 On ch=2 n=f#5 v=71
161045 Off ch=2 n=g5 v=64
161110 On ch=2 n=g5 v=69
161220 Off ch=2 n=f#5 v=64
161280 On ch=2 n=f#5 v=74
161390 Off ch=2 n=g5 v=64
162240 On ch=2 n=b4 v=66
162305 Off ch=2 n=f#5 v=64
162515 On ch=2 n=a5 v=67
162520 Off ch=2 n=b4 v=64
162685 On ch=2 n=f#5 v=69
162795 Off ch=2 n=a5 v=64
162860 On ch=2 n=e5 v=68
162965 Off ch=2 n=f#5 v=64
163030 On ch=2 n=f#5 v=67
163140 Off ch=2 n=e5 v=64
163200 On ch=2 n=e5 v=74
163310 Off ch=2 n=f#5 v=64
164160 On ch=2 n=a4 v=68
164225 Off ch=2 n=e5 v=64
164435 On ch=2 n=a5 v=69
164440 Off ch=2 n=a4 v=64
164605 On ch=2 n=e5 v=69
164715 Off ch=2 n=a5 v=64
164780 On ch=2 n=d5 v=69
164885 Off ch=2 n=e5 v=64
164950 On ch=2 n=e5 v=68
165060 Off ch=2 n=d5 v=64
165120 On ch=2 n=d5 v=80
165230 Off ch=2 n=e5 v=64
165975 On ch=2 n=b4 v=65
166145 Off ch=2 n=d5 v=64
166255 Off ch=2 n=b4 v=64
166355 On ch=2 n=a5 v=65
166525 On ch=2 n=f#5 v=61
166635 Off ch=2 n=a5 v=64
166700 On ch=2 n=e5 v=65
166805 Off ch=2 n=f#5 v=64
166870 On ch=2 n=f#5 v=63
166980 Off ch=2 n=e5 v=64
167040 On ch=2 n=e5 v=82
167150 Off ch=2 n=f#5 v=64
168000 On ch=2 n=c#5 v=59
168065 Off ch=2 n=e5 v=64
168275 On ch=2 n=a5 v=61
168280 Off ch=2 n=c#5 v=64
168445 On ch=2 n=g5 v=65
168555 Off ch=2 n=a5 v=64
168620 On ch=2 n=f#5 v=74
168725 Off ch=2 n=g5 v=64
168790 On ch=2 n=g5 v=71
168900 Off ch=2 n=f#5 v=64
168960 On ch=2 n=f#5 v=68
169070 Off ch=2 n=g5 v=64
169920 On ch=2 n=b4 v=66
169985 Off ch=2 n=f#5 v=64
170195 On ch=2 n=a5 v=69
170200 Off ch=2 n=b4 v=64
170365 On ch=2 n=f#5 v=71
170475 Off ch=2 n=a5 v=64
170540 On ch=2 n=e5 v=69
170645 Off ch=2 n=f#5 v=64
170710 On ch=2 n=f#5 v=68
170820 Off ch=2 n=e5 v=64
170880 On ch=2 n=e5 v=86
170990 Off ch=2 n=f#5 v=64
171840 On ch=2 n=a4 v=74
171905 Off ch=2 n=e5 v=64
172115 On ch=2 n=a5 v=76
172120 Off ch=2 n=a4 v=64
172285 On ch=2 n=e5 v=71
172395 Off ch=2 n=a5 v=64
172460 On ch=2 n=d5 v=71
172565 Off ch=2 n=e5 v=64
172630 On ch=2 n=e5 v=69
172740 Off ch=2 n=d5 v=64
172800 On ch=2 n=d5 v=92
172910 Off ch=2 n=e5 v=64
173760 On ch=2 n=b4 v=58
173825 Off ch=2 n=d5 v=64
174035 On ch=2 n=a5 v=58
174040 Off ch=2 n=b4 v=64
174205 On ch=2 n=f#5 v=58
174315 Off ch=2 n=a5 v=64
174380 On ch=2 n=e5 v=58
174485 Off ch=2 n=f#5 v=64
174550 On ch=2 n=f#5 v=58
174660 Off ch=2 n=e5 v=64
174720 On ch=2 n=e5 v=81
174830 Off ch=2 n=f#5 v=64
175680 On ch=2 n=c#5 v=78
175745 Off ch=2 n=e5 v=64
175955 On ch=2 n=a5 v=56
176125 On ch=2 n=g5 v=56
176235 Off ch=2 n=a5 v=64
176300 On ch=2 n=f#5 v=56
176405 Off ch=2 n=g5 v=64
176470 On ch=2 n=g5 v=56
176580 Off ch=2 n=f#5 v=64
176640 Off ch=2 n=c#5 v=64
176640 On ch=2 n=f#5 v=81
176750 Off ch=2 n=g5 v=64
177600 On ch=2 n=d5 v=77
177665 Off ch=2 n=f#5 v=64
177875 On ch=2 n=b5 v=58
178045 On ch=2 n=g5 v=58
178155 Off ch=2 n=b5 v=64
178220 On ch=2 n=f#5 v=58
178325 Off ch=2 n=g5 v=64
178390 On ch=2 n=g5 v=58
178500 Off ch=2 n=f#5 v=64
178560 Off ch=2 n=d5 v=64
178560 On ch=2 n=f#5 v=82
178670 Off ch=2 n=g5 v=64
179520 On ch=2 n=c#5 v=56
179585 Off ch=2 n=f#5 v=64
179795 On ch=2 n=a5 v=56
179800 Off ch=2 n=c#5 v=64
179965 On ch=2 n=g5 v=56
180075 Off ch=2 n=a5 v=64
180140 On ch=2 n=f#5 v=56
180245 Off ch=2 n=g5 v=64
180310 On ch=2 n=g5 v=56
180420 Off ch=2 n=f#5 v=64
180480 On ch=2 n=f#5 v=81
180590 Off ch=2 n=g5 v=64
181440 On ch=2 n=d5 v=78
181505 Off ch=2 n=f#5 v=64
181715 On ch=2 n=b5 v=63
181885 On ch=2 n=g5 v=63
181995 Off ch=2 n=b5 v=64
182060 On ch=2 n=f#5 v=63
182165 Off ch=2 n=g5 v=64
182230 On ch=2 n=g5 v=63
182340 Off ch=2 n=f#5 v=64
182400 Off ch=2 n=d5 v=64
182400 On ch=2 n=f#5 v=83
182510 Off ch=2 n=g5 v=64
183360 On ch=2 n=c#5 v=63
183425 Off ch=2 n=f#5 v=64
183635 On ch=2 n=a5 v=63
183640 Off ch=2 n=c#5 v=64
183805 On ch=2 n=g5 v=63
183915 Off ch=2 n=a5 v=64
183980 On ch=2 n=f#5 v=63
184085 Off ch=2 n=g5 v=64
184150 On ch=2 n=g5 v=61
184260 Off ch=2 n=f#5 v=64
184320 On ch=2 n=f#5 v=76
184371 Off ch=2 n=g5 v=64
184560 On ch=2 n=d5 v=65
184569 Off ch=2 n=f#5 v=64
184800 On ch=2 n=b5 v=65
184809 Off ch=2 n=d5 v=64
185040 On ch=2 n=g5 v=65
185049 Off ch=2 n=b5 v=64
185280 On ch=2 n=f#5 v=65
185289 Off ch=2 n=g5 v=64
185520 On ch=2 n=g5 v=65
185529 Off ch=2 n=f#5 v=64
185760 On ch=2 n=f#5 v=65
185769 Off ch=2 n=g5 v=64
186000 On ch=2 n=c#5 v=65
186009 Off ch=2 n=f#5 v=64
186240 On ch=2 n=a5 v=65
186249 Off ch=2 n=c#5 v=64
186480 On ch=2 n=g5 v=65
186489 Off ch=2 n=a5 v=64
186720 On ch=2 n=f#5 v=65
186729 Off ch=2 n=g5 v=64
186960 On ch=2 n=c#5 v=65
186969 Off ch=2 n=f#5 v=64
187200 On ch=2 n=b5 v=65
187209 Off ch=2 n=c#5 v=64
187440 On ch=2 n=g5 v=65
187449 Off ch=2 n=b5 v=64
187680 On ch=2 n=f#5 v=65
187689 Off ch=2 n=g5 v=64
187920 On ch=2 n=d5 v=65
187929 Off ch=2 n=f#5 v=64
188160 On ch=2 n=c#6 v=65
188169 Off ch=2 n=d5 v=64
188400 On ch=2 n=g5 v=65
188409 Off ch=2 n=c#6 v=64
188640 On ch=2 n=f#5 v=65
188649 Off ch=2 n=g5 v=64
188880 On ch=2 n=e5 v=65
188889 Off ch=2 n=f#5 v=64
189120 On ch=2 n=d6 v=65
189129 Off ch=2 n=e5 v=64
189360 On ch=2 n=g5 v=69
189369 Off ch=2 n=d6 v=64
189600 On ch=2 n=f#5 v=69
189609 Off ch=2 n=g5 v=64
189840 On ch=2 n=f5 v=69
189849 Off ch=2 n=f#5 v=64
190080 On ch=2 n=d6 v=69
190089 Off ch=2 n=f5 v=64
190320 On ch=2 n=a5 v=69
190329 Off ch=2 n=d6 v=64
190560 On ch=2 n=f#5 v=76
190569 Off ch=2 n=a5 v=64
190800 On ch=2 n=g5 v=76
190809 Off ch=2 n=f#5 v=64
191040 On ch=2 n=d6 v=76
191049 Off ch=2 n=g5 v=64
191280 On ch=2 n=b5 v=76
191289 Off ch=2 n=d6 v=64
191520 On ch=2 n=g#5 v=76
191529 Off ch=2 n=b5 v=64
191760 On ch=2 n=a5 v=78
191769 Off ch=2 n=g#5 v=64
192000 On ch=2 n=d6 v=81
192009 Off ch=2 n=a5 v=64
192240 On ch=2 n=c6 v=81
192249 Off ch=2 n=d6 v=64
192480 On ch=2 n=a#5 v=81
192489 Off ch=2 n=c6 v=64
192720 On ch=2 n=b5 v=85
192729 Off ch=2 n=a#5 v=64
192960 On ch=2 n=d6 v=85
192969 Off ch=2 n=b5 v=64
193200 On ch=2 n=c#6 v=85
193209 Off ch=2 n=d6 v=64
193440 On ch=2 n=c6 v=85
193449 Off ch=2 n=c#6 v=64
193680 On ch=2 n=c#6 v=90
193689 Off ch=2 n=c6 v=64
193920 On ch=2 n=e6 v=90
193929 Off ch=2 n=c#6 v=64
194160 On ch=2 n=d#6 v=67
194169 Off ch=2 n=e6 v=64
194400 On ch=2 n=d6 v=67
194409 Off ch=2 n=d#6 v=64
194520 On ch=2 n=e6 v=67
194640 On ch=2 n=d6 v=67
194649 Off ch=2 n=d6 v=64
194760 On ch=2 n=e6 v=67
194769 Off ch=2 n=e6 v=64
194880 On ch=2 n=d6 v=67
194889 Off ch=2 n=d6 v=64
195000 On ch=2 n=e6 v=67
195009 Off ch=2 n=e6 v=64
195120 On ch=2 n=d6 v=67
195129 Off ch=2 n=d6 v=64
195240 On ch=2 n=e6 v=67
195249 Off ch=2 n=e6 v=64
195360 On ch=2 n=d6 v=69
195369 Off ch=2 n=d6 v=64
195480 On ch=2 n=e6 v=69
195489 Off ch=2 n=e6 v=64
195600 On ch=2 n=d6 v=69
195609 Off ch=2 n=d6 v=64
195720 On ch=2 n=e6 v=69
195729 Off ch=2 n=e6 v=64
195840 On ch=2 n=d6 v=69
195849 Off ch=2 n=d6 v=64
195960 On ch=2 n=e6 v=69
195969 Off ch=2 n=e6 v=64
196080 On ch=2 n=d6 v=69
196089 Off ch=2 n=d6 v=64
196200 On ch=2 n=e6 v=69
196209 Off ch=2 n=e6 v=64
196320 On ch=2 n=d6 v=69
196329 Off ch=2 n=d6 v=64
196440 On ch=2 n=e6 v=76
196449 Off ch=2 n=e6 v=64
196560 On ch=2 n=d6 v=76
196569 Off ch=2 n=d6 v=64
196680 On ch=2 n=e6 v=76
196689 Off ch=2 n=e6 v=64
196800 On ch=2 n=d6 v=76
196809 Off ch=2 n=d6 v=64
196920 On ch=2 n=e6 v=76
196929 Off ch=2 n=e6 v=64
197040 On ch=2 n=d6 v=76
197049 Off ch=2 n=d6 v=64
197160 On ch=2 n=e6 v=76
197169 Off ch=2 n=e6 v=64
197280 On ch=2 n=d6 v=76
197289 Off ch=2 n=d6 v=64
197400 On ch=2 n=e6 v=76
197409 Off ch=2 n=e6 v=64
197520 On ch=2 n=d6 v=76
197529 Off ch=2 n=d6 v=64
197640 On ch=2 n=e6 v=78
197649 Off ch=2 n=e6 v=64
197760 On ch=2 n=d6 v=78
197769 Off ch=2 n=d6 v=64
197880 On ch=2 n=e6 v=78
197889 Off ch=2 n=e6 v=64
198000 On ch=2 n=d6 v=78
198009 Off ch=2 n=d6 v=64
198120 On ch=2 n=e6 v=78
198129 Off ch=2 n=e6 v=64
198240 On ch=2 n=d6 v=78
198249 Off ch=2 n=d6 v=64
198360 On ch=2 n=e6 v=81
198369 Off ch=2 n=e6 v=64
198480 On ch=2 n=d6 v=81
198489 Off ch=2 n=d6 v=64
198600 On ch=2 n=e6 v=85
198609 Off ch=2 n=e6 v=64
198720 On ch=2 n=d6 v=85
198729 Off ch=2 n=d6 v=64
198840 On ch=2 n=e6 v=85
198849 Off ch=2 n=e6 v=64
198960 On ch=2 n=d6 v=90
198969 Off ch=2 n=d6 v=64
199080 On ch=2 n=e6 v=90
199089 Off ch=2 n=e6 v=64
199200 On ch=2 n=d6 v=92
199209 Off ch=2 n=d6 v=64
199320 On ch=2 n=e6 v=92
199329 Off ch=2 n=e6 v=64
199440 On ch=2 n=d6 v=92
199449 Off ch=2 n=d6 v=64
199560 On ch=2 n=e6 v=97
199569 Off ch=2 n=e6 v=64
199680 On ch=2 n=d6 v=117
199689 Off ch=2 n=d6 v=64
199800 On ch=2 n=d#6 v=122
199809 Off ch=2 n=e6 v=64
199920 On ch=2 n=d6 v=124
199929 Off ch=2 n=d6 v=64
200040 On ch=2 n=d#6 v=122
200049 Off ch=2 n=d#6 v=64
200160 On ch=2 n=d6 v=117
200169 Off ch=2 n=d6 v=64
200280 On ch=2 n=d#6 v=117
200289 Off ch=2 n=d#6 v=64
200400 On ch=2 n=d6 v=114
200409 Off ch=2 n=d6 v=64
200520 On ch=2 n=d#6 v=114
200529 Off ch=2 n=d#6 v=64
200640 On ch=2 n=d6 v=110
200649 Off ch=2 n=d6 v=64
200760 On ch=2 n=d#6 v=107
200769 Off ch=2 n=d#6 v=64
200880 On ch=2 n=d6 v=107
200889 Off ch=2 n=d6 v=64
201000 On ch=2 n=d#6 v=99
201009 Off ch=2 n=d#6 v=64
201120 On ch=2 n=d6 v=99
201129 Off ch=2 n=d6 v=64
201240 On ch=2 n=d#6 v=97
201249 Off ch=2 n=d#6 v=64
201360 On ch=2 n=d6 v=92
201369 Off ch=2 n=d6 v=64
201480 On ch=2 n=d#6 v=90
201489 Off ch=2 n=d#6 v=64
201600 On ch=2 n=d6 v=85
201609 Off ch=2 n=d6 v=64
201720 On ch=2 n=d#6 v=81
201729 Off ch=2 n=d#6 v=64
201840 On ch=2 n=d6 v=78
201849 Off ch=2 n=d6 v=64
201960 On ch=2 n=d#6 v=78
201969 Off ch=2 n=d#6 v=64
202080 On ch=2 n=d6 v=76
202089 Off ch=2 n=d6 v=64
202200 On ch=2 n=d#6 v=76
202209 Off ch=2 n=d#6 v=64
202320 On ch=2 n=d6 v=76
202329 Off ch=2 n=d6 v=64
202440 On ch=2 n=d#6 v=76
202449 Off ch=2 n=d#6 v=64
202560 On ch=2 n=d6 v=76
202569 Off ch=2 n=d6 v=64
202680 On ch=2 n=d#6 v=76
202689 Off ch=2 n=d#6 v=64
202800 On ch=2 n=d6 v=76
202809 Off ch=2 n=d6 v=64
202920 On ch=2 n=d#6 v=69
202929 Off ch=2 n=d#6 v=64
203040 On ch=2 n=d6 v=69
203049 Off ch=2 n=d6 v=64
203160 On ch=2 n=d#6 v=69
203169 Off ch=2 n=d#6 v=64
203280 On ch=2 n=d6 v=69
203289 Off ch=2 n=d6 v=64
203400 On ch=2 n=d#6 v=69
203409 Off ch=2 n=d#6 v=64
203520 On ch=2 n=d6 v=69
203529 Off ch=2 n=d6 v=64
203640 On ch=2 n=d#6 v=69
203649 Off ch=2 n=d#6 v=64
203760 On ch=2 n=d6 v=69
203769 Off ch=2 n=d6 v=64
203880 On ch=2 n=d#6 v=67
203889 Off ch=2 n=d#6 v=64
204000 On ch=2 n=d6 v=67
204009 Off ch=2 n=d6 v=64
204120 On ch=2 n=d#6 v=67
204129 Off ch=2 n=d#6 v=64
204240 On ch=2 n=d6 v=67
204249 Off ch=2 n=d6 v=64
204360 On ch=2 n=d#6 v=67
204369 Off ch=2 n=d#6 v=64
204480 On ch=2 n=d6 v=67
204489 Off ch=2 n=d6 v=64
204600 On ch=2 n=d#6 v=67
204609 Off ch=2 n=d#6 v=64
204720 On ch=2 n=d6 v=67
204729 Off ch=2 n=d6 v=64
204840 On ch=2 n=d#6 v=65
204849 Off ch=2 n=d#6 v=64
204960 On ch=2 n=d6 v=65
204969 Off ch=2 n=d6 v=64
205080 On ch=2 n=d#6 v=65
205089 Off ch=2 n=d#6 v=64
205200 On ch=2 n=d6 v=65
205209 Off ch=2 n=d6 v=64
205320 On ch=2 n=d#6 v=65
205329 Off ch=2 n=d#6 v=64
205440 On ch=2 n=d6 v=65
205449 Off ch=2 n=d6 v=64
205560 On ch=2 n=d#6 v=65
205569 Off ch=2 n=d#6 v=64
205680 On ch=2 n=d6 v=65
205689 Off ch=2 n=d6 v=64
205800 On ch=2 n=d#6 v=61
205809 Off ch=2 n=d#6 v=64
205920 On ch=2 n=d6 v=61
205929 Off ch=2 n=d6 v=64
206040 On ch=2 n=d#6 v=61
206049 Off ch=2 n=d#6 v=64
206160 On ch=2 n=d6 v=61
206169 Off ch=2 n=d6 v=64
206280 On ch=2 n=d#6 v=61
206289 Off ch=2 n=d#6 v=64
206400 On ch=2 n=d6 v=61
206409 Off ch=2 n=d6 v=64
206520 On ch=2 n=d#6 v=61
206529 Off ch=2 n=d#6 v=64
206640 On ch=2 n=d6 v=56
206649 Off ch=2 n=d6 v=64
206760 On ch=2 n=d#6 v=56
206769 Off ch=2 n=d#6 v=64
206880 On ch=2 n=d6 v=56
206889 Off ch=2 n=d6 v=64
207000 On ch=2 n=d#6 v=56
207009 Off ch=2 n=d#6 v=64
207120 On ch=2 n=d6 v=56
207129 Off ch=2 n=d6 v=64
207240 On ch=2 n=d#6 v=56
207249 Off ch=2 n=d#6 v=64
207369 Off ch=2 n=d6 v=64
207489 Off ch=2 n=d#6 v=64
212160 On ch=2 n=d6 v=88
213360 Off ch=2 n=d6 v=64
213360 On ch=2 n=f6 v=91
214560 Off ch=2 n=f6 v=64
214560 On ch=2 n=d#6 v=97
216120 On ch=2 n=d6 v=82
216240 Off ch=2 n=d#6 v=64
216960 On ch=2 n=g6 v=105
216970 Off ch=2 n=d6 v=64
217200 On ch=2 n=d#6 v=71
217440 Off ch=2 n=d#6 v=64
217440 On ch=2 n=d6 v=56
217680 On ch=2 n=d#6 v=61
217695 Off ch=2 n=d6 v=64
217920 On ch=2 n=d6 v=65
217935 Off ch=2 n=d#6 v=64
218160 On ch=2 n=d#6 v=67
218175 Off ch=2 n=d6 v=64
218400 On ch=2 n=d6 v=69
218415 Off ch=2 n=d#6 v=64
218640 On ch=2 n=d#6 v=68
218655 Off ch=2 n=d6 v=64
218880 On ch=2 n=d6 v=67
218895 Off ch=2 n=d#6 v=64
219120 On ch=2 n=d#6 v=63
219135 Off ch=2 n=d6 v=64
219360 On ch=2 n=d6 v=58
219375 Off ch=2 n=d#6 v=64
219600 On ch=2 n=d#6 v=54
219615 Off ch=2 n=d6 v=64
219840 On ch=2 n=d6 v=53
219855 Off ch=2 n=d#6 v=64
220080 On ch=2 n=d#6 v=52
220095 Off ch=2 n=d6 v=64
220320 On ch=2 n=d6 v=49
220335 Off ch=2 n=d#6 v=64
220560 On ch=2 n=d#6 v=49
220575 Off ch=2 n=d6 v=64
220800 On ch=2 n=d6 v=49
220815 Off ch=2 n=d#6 v=64
220920 Off ch=2 n=g6 v=64
220920 On ch=2 n=g6 v=93
221040 On ch=2 n=d#6 v=52
221055 Off ch=2 n=d6 v=64
221280 On ch=2 n=d6 v=52
221295 Off ch=2 n=d#6 v=64
221520 On ch=2 n=d#6 v=52
221535 Off ch=2 n=d6 v=64
221760 Off ch=2 n=g6 v=64
221760 On ch=2 n=g6 v=83
221760 On ch=2 n=d6 v=53
221775 Off ch=2 n=d#6 v=64
222000 On ch=2 n=d#6 v=51
222120 Off ch=2 n=d6 v=64
222240 On ch=2 n=d6 v=52
222255 Off ch=2 n=d#6 v=64
222480 On ch=2 n=d#6 v=51
222495 Off ch=2 n=d6 v=64
222720 On ch=2 n=d6 v=46
222735 Off ch=2 n=d#6 v=64
224158 Off ch=2 n=d6 v=64
224160 Off ch=2 n=g6 v=64
224160 On ch=2 n=d4 v=77
225000 On ch=2 n=c4 v=75
225020 Off ch=2 n=d4 v=64
225840 On ch=2 n=a#3 v=73
225860 Off ch=2 n=c4 v=64
226440 Off ch=2 n=a#3 v=64
226560 On ch=2 n=a#3 v=75
230510 Off ch=2 n=a#3 v=64
230520 On ch=2 n=a3 v=80
231360 Off ch=2 n=a3 v=64
231360 On ch=2 n=g3 v=73
231360 On ch=2 n=c3 v=71
232679 Off ch=2 n=g3 v=64
232800 On ch=2 n=g3 v=71
233759 Off ch=2 n=g3 v=64
233760 On ch=2 n=g3 v=68
236160 Off ch=2 n=c3 v=64
236160 Off ch=2 n=g3 v=64
237360 On ch=2 n=f6 v=82
238560 On ch=2 n=d#6 v=82
238580 Off ch=2 n=f6 v=64
240120 On ch=2 n=d6 v=77
240130 Off ch=2 n=d#6 v=64
240960 On ch=2 n=g6 v=91
241080 Off ch=2 n=d6 v=64
241200 On ch=2 n=d#6 v=53
241440 On ch=2 n=d6 v=56
241450 Off ch=2 n=d#6 v=64
241680 On ch=2 n=d#6 v=65
241690 Off ch=2 n=d6 v=64
241920 On ch=2 n=d6 v=69
241930 Off ch=2 n=d#6 v=64
242160 On ch=2 n=d#6 v=69
242170 Off ch=2 n=d6 v=64
242400 On ch=2 n=d6 v=67
242410 Off ch=2 n=d#6 v=64
242640 On ch=2 n=d#6 v=65
242650 Off ch=2 n=d6 v=64
242880 On ch=2 n=d6 v=63
242890 Off ch=2 n=d#6 v=64
243120 On ch=2 n=d#6 v=59
243130 Off ch=2 n=d6 v=64
243360 On ch=2 n=d6 v=56
243370 Off ch=2 n=d#6 v=64
243600 On ch=2 n=d#6 v=52
243610 Off ch=2 n=d6 v=64
243840 On ch=2 n=d6 v=52
243850 Off ch=2 n=d#6 v=64
244080 On ch=2 n=d#6 v=52
244090 Off ch=2 n=d6 v=64
244320 On ch=2 n=d6 v=52
244330 Off ch=2 n=d#6 v=64
244560 On ch=2 n=d#6 v=52
244570 Off ch=2 n=d6 v=64
244800 On ch=2 n=d6 v=52
244810 Off ch=2 n=d#6 v=64
244917 Off ch=2 n=g6 v=64
244920 On ch=2 n=g6 v=74
245035 Off ch=2 n=d6 v=64
245040 On ch=2 n=d#6 v=52
245270 Off ch=2 n=d#6 v=64
245280 On ch=2 n=d6 v=52
245505 Off ch=2 n=d6 v=64
245520 On ch=2 n=d#6 v=52
245735 Off ch=2 n=d#6 v=64
245760 Off ch=2 n=g6 v=64
245760 On ch=2 n=d6 v=44
245760 On ch=2 n=g6 v=81
246000 On ch=2 n=d#6 v=45
246010 Off ch=2 n=d6 v=64
246240 On ch=2 n=d6 v=44
246250 Off ch=2 n=d#6 v=64
246480 On ch=2 n=d#6 v=45
246490 Off ch=2 n=d6 v=64
246720 On ch=2 n=d6 v=45
246730 Off ch=2 n=d#6 v=64
246960 On ch=2 n=d#6 v=45
246970 Off ch=2 n=d6 v=64
247200 On ch=2 n=d6 v=44
247210 Off ch=2 n=d#6 v=64
247440 On ch=2 n=d#6 v=44
247450 Off ch=2 n=d6 v=64
247680 On ch=2 n=d6 v=44
247690 Off ch=2 n=d#6 v=64
247920 On ch=2 n=d#6 v=44
247930 Off ch=2 n=d6 v=64
248160 On ch=2 n=d6 v=51
248170 Off ch=2 n=d#6 v=64
249730 Off ch=2 n=d6 v=64
249730 On ch=2 n=d4 v=71
250560 Off ch=2 n=g6 v=64
250560 On ch=2 n=d4 v=66
250560 On ch=2 n=g3 v=62
250570 Off ch=2 n=d4 v=64
251760 On ch=2 n=f#6 v=99
252960 Off ch=2 n=f#6 v=64
252960 On ch=2 n=e6 v=105
254555 On ch=2 n=d6 v=97
254560 Off ch=2 n=e6 v=64
255360 Off ch=2 n=d4 v=64
255360 Off ch=2 n=g3 v=64
255360 On ch=2 n=g6 v=103
255365 Off ch=2 n=d6 v=64
256940 Off ch=2 n=g6 v=64
256955 On ch=2 n=g6 v=109
257755 Off ch=2 n=g6 v=64
257760 On ch=2 n=g6 v=106
264180 Off ch=2 n=g6 v=64
264180 On ch=2 n=a6 v=105
264960 On ch=2 n=b6 v=106
265020 Off ch=2 n=a6 v=64
266560 On ch=2 n=c7 v=107
266580 Off ch=2 n=b6 v=64
267360 On ch=2 n=d7 v=109
267370 Off ch=2 n=c7 v=64
270408 Off ch=2 n=d7 v=64
270473 On ch=2 n=e7 v=120
272160 On ch=2 n=f#7 v=99
272196 Off ch=2 n=e7 v=64
272930 Off ch=2 n=f#7 v=64
272960 On ch=2 n=a7 v=99
273730 Off ch=2 n=a7 v=64
273780 On ch=2 n=g7 v=99
274260 Off ch=2 n=g7 v=64
274280 On ch=2 n=f#7 v=105
274390 Off ch=2 n=f#7 v=64
274420 On ch=2 n=g7 v=99
274530 Off ch=2 n=g7 v=64
274560 On ch=2 n=f#7 v=103
276180 On ch=2 n=e7 v=99
276240 Off ch=2 n=f#7 v=64
276960 On ch=2 n=g6 v=103
276980 Off ch=2 n=e7 v=64
280500 Off ch=2 n=g6 v=64
280560 On ch=2 n=a6 v=103
281760 Off ch=2 n=a6 v=64
281760 On ch=2 n=b6 v=103
283380 On ch=2 n=c7 v=103
283440 Off ch=2 n=b6 v=64
283800 Off ch=2 n=c7 v=64
283860 On ch=2 n=c7 v=103
283970 Off ch=2 n=c7 v=64
284020 On ch=2 n=d7 v=103
284130 Off ch=2 n=d7 v=64
284160 On ch=2 n=c7 v=109
285780 On ch=2 n=b6 v=99
285840 Off ch=2 n=c7 v=64
286560 On ch=2 n=d6 v=99
286580 Off ch=2 n=b6 v=64
290090 Off ch=2 n=d6 v=64
290160 On ch=2 n=e6 v=99
291360 Off ch=2 n=e6 v=64
291360 On ch=2 n=f#6 v=99
292980 On ch=2 n=g6 v=99
293040 Off ch=2 n=f#6 v=64
293305 Off ch=2 n=g6 v=64
293383 On ch=2 n=a6 v=92
293488 Off ch=2 n=a6 v=64
293565 On ch=2 n=b6 v=92
293670 Off ch=2 n=b6 v=64
293760 On ch=2 n=a6 v=90
295380 Off ch=2 n=a6 v=64
295380 On ch=2 n=g6 v=92
296160 On ch=2 n=b5 v=83
296180 Off ch=2 n=g6 v=64
302520 Off ch=2 n=b5 v=64
302580 On ch=2 n=c6 v=67
303360 Off ch=2 n=c6 v=64
303360 On ch=2 n=d6 v=69
308160 On ch=2 n=f#4 v=76
311400 Off ch=2 n=f#4 v=64
311400 On ch=2 n=e4 v=78
312180 On ch=2 n=d4 v=76
312200 Off ch=2 n=e4 v=64
312960 Off ch=2 n=d6 v=64
312960 On ch=2 n=g3 v=57
312960 On ch=2 n=d4 v=71
312975 Off ch=2 n=d4 v=64
315960 On ch=2 n=f#6 v=68
315960 On ch=2 n=d6 v=65
316560 On ch=2 n=c#6 v=63
316560 On ch=2 n=e6 v=58
316565 Off ch=2 n=d6 v=64
316565 Off ch=2 n=f#6 v=64
317160 On ch=2 n=d6 v=65
317160 On ch=2 n=c6 v=65
317165 Off ch=2 n=c#6 v=64
317165 Off ch=2 n=e6 v=64
317760 Off ch=2 n=g3 v=64
317760 Off ch=2 n=d4 v=64
317760 On ch=2 n=g6 v=68
317760 On ch=2 n=b5 v=68
317765 Off ch=2 n=d6 v=64
317765 Off ch=2 n=c6 v=64
318360 On ch=2 n=c6 v=66
318365 Off ch=2 n=b5 v=64
318960 On ch=2 n=d6 v=66
318965 Off ch=2 n=c6 v=64
319560 On ch=2 n=e6 v=66
319565 Off ch=2 n=d6 v=64
320160 On ch=2 n=f6 v=66
320165 Off ch=2 n=e6 v=64
320700 Off ch=2 n=f6 v=64
320705 Off ch=2 n=g6 v=64
320760 On ch=2 n=f#6 v=67
320760 On ch=2 n=g#6 v=67
321360 On ch=2 n=d#6 v=67
321360 On ch=2 n=a6 v=67
321365 Off ch=2 n=g#6 v=64
321365 Off ch=2 n=f#6 v=64
321960 On ch=2 n=a#6 v=68
321960 On ch=2 n=d6 v=68
321965 Off ch=2 n=d#6 v=64
321965 Off ch=2 n=a6 v=64
322560 On ch=2 n=b6 v=74
322560 On ch=2 n=g6 v=74
322565 Off ch=2 n=a#6 v=64
322565 Off ch=2 n=d6 v=64
323160 On ch=2 n=a6 v=76
323160 On ch=2 n=c7 v=76
323165 Off ch=2 n=b6 v=64
323165 Off ch=2 n=g6 v=64
323760 On ch=2 n=c#7 v=80
323760 On ch=2 n=a#6 v=80
323765 Off ch=2 n=a6 v=64
323765 Off ch=2 n=c7 v=64
324360 On ch=2 n=d7 v=90
324360 On ch=2 n=b6 v=81
324365 Off ch=2 n=c#7 v=64
324365 Off ch=2 n=a#6 v=64
324960 On ch=2 n=c7 v=82
324960 On ch=2 n=e7 v=82
324965 Off ch=2 n=d7 v=64
324965 Off ch=2 n=b6 v=64
325500 Off ch=2 n=c7 v=64
325500 Off ch=2 n=e7 v=64
325560 On ch=2 n=f#6 v=63
325560 On ch=2 n=d6 v=56
326160 On ch=2 n=c#6 v=56
326160 On ch=2 n=e6 v=56
326165 Off ch=2 n=d6 v=64
326165 Off ch=2 n=f#6 v=64
326760 On ch=2 n=d6 v=61
326760 On ch=2 n=c6 v=56
326765 Off ch=2 n=c#6 v=64
326765 Off ch=2 n=e6 v=64
327360 On ch=2 n=b5 v=66
327360 On ch=2 n=g6 v=69
327365 Off ch=2 n=d6 v=64
327365 Off ch=2 n=c6 v=64
327960 On ch=2 n=c6 v=66
327965 Off ch=2 n=b5 v=64
328560 On ch=2 n=d6 v=66
328565 Off ch=2 n=c6 v=64
329160 On ch=2 n=e6 v=66
329165 Off ch=2 n=d6 v=64
329760 On ch=2 n=f6 v=66
329765 Off ch=2 n=e6 v=64
330300 Off ch=2 n=f6 v=64
330305 Off ch=2 n=g6 v=64
330360 On ch=2 n=f#6 v=67
330360 On ch=2 n=g#6 v=67
330960 On ch=2 n=d#6 v=67
330960 On ch=2 n=a6 v=67
330965 Off ch=2 n=g#6 v=64
330965 Off ch=2 n=f#6 v=64
331560 On ch=2 n=a#6 v=68
331560 On ch=2 n=d6 v=68
331565 Off ch=2 n=d#6 v=64
331565 Off ch=2 n=a6 v=64
332160 On ch=2 n=b6 v=69
332160 On ch=2 n=g6 v=69
332165 Off ch=2 n=a#6 v=64
332165 Off ch=2 n=d6 v=64
332760 On ch=2 n=a6 v=71
332760 On ch=2 n=c7 v=71
332765 Off ch=2 n=b6 v=64
332765 Off ch=2 n=g6 v=64
333360 On ch=2 n=c#7 v=74
333360 On ch=2 n=a#6 v=74
333365 Off ch=2 n=a6 v=64
333365 Off ch=2 n=c7 v=64
333960 On ch=2 n=d7 v=77
333960 On ch=2 n=b6 v=77
333965 Off ch=2 n=c#7 v=64
333965 Off ch=2 n=a#6 v=64
334560 On ch=2 n=c7 v=82
334560 On ch=2 n=e7 v=82
334565 Off ch=2 n=d7 v=64
334565 Off ch=2 n=b6 v=64
335100 Off ch=2 n=c7 v=64
335100 Off ch=2 n=e7 v=64
335160 On ch=2 n=f#7 v=90
335160 On ch=2 n=g#6 v=78
335760 On ch=2 n=e7 v=86
335760 On ch=2 n=a6 v=77
335765 Off ch=2 n=g#6 v=64
335765 Off ch=2 n=f#7 v=64
336360 On ch=2 n=d7 v=76
336360 On ch=2 n=a#6 v=74
336365 Off ch=2 n=e7 v=64
336365 Off ch=2 n=a6 v=64
336960 On ch=2 n=g7 v=80
336960 On ch=2 n=b6 v=74
336965 Off ch=2 n=d7 v=64
336965 Off ch=2 n=a#6 v=64
337507 Off ch=2 n=g7 v=64
337507 Off ch=2 n=b6 v=64
337560 On ch=2 n=f#7 v=78
337560 On ch=2 n=a6 v=71
338160 On ch=2 n=e7 v=68
338160 On ch=2 n=a#6 v=66
338165 Off ch=2 n=a6 v=64
338165 Off ch=2 n=f#7 v=64
338760 On ch=2 n=d7 v=66
338760 On ch=2 n=b6 v=61
338765 Off ch=2 n=e7 v=64
338765 Off ch=2 n=a#6 v=64
339360 On ch=2 n=c7 v=66
339360 On ch=2 n=g7 v=76
339365 Off ch=2 n=d7 v=64
339365 Off ch=2 n=b6 v=64
339891 Off ch=2 n=c7 v=64
339891 Off ch=2 n=g7 v=64
339960 On ch=2 n=f#7 v=74
339960 On ch=2 n=g#6 v=66
340560 On ch=2 n=a6 v=66
340560 On ch=2 n=e7 v=71
340565 Off ch=2 n=g#6 v=64
340565 Off ch=2 n=f#7 v=64
341160 On ch=2 n=d7 v=66
341160 On ch=2 n=a#6 v=66
341165 Off ch=2 n=a6 v=64
341165 Off ch=2 n=e7 v=64
341760 On ch=2 n=g7 v=76
341760 On ch=2 n=b6 v=69
341765 Off ch=2 n=d7 v=64
341765 Off ch=2 n=a#6 v=64
342320 Off ch=2 n=g7 v=64
342320 Off ch=2 n=b6 v=64
342360 On ch=2 n=f#7 v=71
342360 On ch=2 n=g6 v=66
342960 On ch=2 n=e7 v=68
342960 On ch=2 n=a#6 v=66
342965 Off ch=2 n=g6 v=64
342965 Off ch=2 n=f#7 v=64
343560 On ch=2 n=d7 v=66
343560 On ch=2 n=b6 v=66
343565 Off ch=2 n=e7 v=64
343565 Off ch=2 n=a#6 v=64
344160 On ch=2 n=g7 v=66
344160 On ch=2 n=c7 v=61
344165 Off ch=2 n=d7 v=64
344165 Off ch=2 n=b6 v=64
344720 Off ch=2 n=g7 v=64
344720 Off ch=2 n=c7 v=64
344760 On ch=2 n=g#6 v=66
344760 On ch=2 n=f#7 v=61
345360 On ch=2 n=e7 v=66
345360 On ch=2 n=a6 v=61
345365 Off ch=2 n=f#7 v=64
345365 Off ch=2 n=g#6 v=64
345960 On ch=2 n=a#6 v=66
345960 On ch=2 n=d7 v=61
345965 Off ch=2 n=e7 v=64
345965 Off ch=2 n=a6 v=64
346560 On ch=2 n=b6 v=69
346560 On ch=2 n=g7 v=66
346565 Off ch=2 n=a#6 v=64
346565 Off ch=2 n=d7 v=64
346800 On ch=2 n=a7 v=66
346805 Off ch=2 n=b6 v=64
347040 Off ch=2 n=g7 v=64
347040 On ch=2 n=g7 v=65
347045 Off ch=2 n=a7 v=64
347280 On ch=2 n=a7 v=65
347285 Off ch=2 n=g7 v=64
347520 On ch=2 n=g7 v=63
347525 Off ch=2 n=a7 v=64
347760 On ch=2 n=a7 v=63
348000 Off ch=2 n=g7 v=64
348000 On ch=2 n=g7 v=61
348005 Off ch=2 n=a7 v=64
348240 On ch=2 n=a7 v=59
348245 Off ch=2 n=g7 v=64
348480 On ch=2 n=g7 v=58
348485 Off ch=2 n=a7 v=64
348720 On ch=2 n=a7 v=56
348725 Off ch=2 n=g7 v=64
348960 On ch=2 n=g7 v=54
348965 Off ch=2 n=a7 v=64
349200 On ch=2 n=a7 v=53
349440 Off ch=2 n=g7 v=64
349440 On ch=2 n=g7 v=52
349445 Off ch=2 n=a7 v=64
349680 On ch=2 n=a7 v=46
349685 Off ch=2 n=g7 v=64
349920 On ch=2 n=g7 v=45
349925 Off ch=2 n=a7 v=64
350160 On ch=2 n=a7 v=44
350400 Off ch=2 n=g7 v=64
350400 On ch=2 n=g7 v=42
350405 Off ch=2 n=a7 v=64
350640 On ch=2 n=a7 v=46
350645 Off ch=2 n=g7 v=64
350880 On ch=2 n=g7 v=61
350885 Off ch=2 n=a7 v=64
351120 On ch=2 n=a7 v=61
351125 Off ch=2 n=g7 v=64
351360 On ch=2 n=g7 v=59
351365 Off ch=2 n=a7 v=64
351600 On ch=2 n=a7 v=59
351840 Off ch=2 n=g7 v=64
351840 On ch=2 n=g7 v=59
351845 Off ch=2 n=a7 v=64
352080 On ch=2 n=a7 v=58
352085 Off ch=2 n=g7 v=64
352320 On ch=2 n=g7 v=58
352325 Off ch=2 n=a7 v=64
352560 On ch=2 n=a7 v=56
352800 Off ch=2 n=g7 v=64
352800 On ch=2 n=g7 v=56
352805 Off ch=2 n=a7 v=64
353040 On ch=2 n=a7 v=56
353045 Off ch=2 n=g7 v=64
353280 On ch=2 n=g7 v=52
353285 Off ch=2 n=a7 v=64
353520 On ch=2 n=a7 v=49
353525 Off ch=2 n=g7 v=64
353760 On ch=2 n=g7 v=45
353765 Off ch=2 n=a7 v=64
354000 On ch=2 n=a7 v=45
354240 Off ch=2 n=g7 v=64
354240 On ch=2 n=g7 v=44
354245 Off ch=2 n=a7 v=64
354480 On ch=2 n=a7 v=42
354485 Off ch=2 n=g7 v=64
354720 On ch=2 n=g7 v=42
354725 Off ch=2 n=a7 v=64
354960 On ch=2 n=a7 v=46
355200 Off ch=2 n=g7 v=64
355200 On ch=2 n=g7 v=45
355205 Off ch=2 n=a7 v=64
355440 On ch=2 n=a7 v=44
355445 Off ch=2 n=g7 v=64
355680 On ch=2 n=g7 v=42
355685 Off ch=2 n=a7 v=64
355925 Off ch=2 n=g7 v=64
356000 On ch=2 n=a7 v=38
356245 Off ch=2 n=a7 v=64
356400 On ch=2 n=b6 v=45
356560 On ch=2 n=g7 v=52
358080 Off ch=2 n=g7 v=64
358080 Off ch=2 n=b6 v=64
359520 On ch=2 n=g5 v=44
359520 On ch=2 n=b4 v=41
362880 Off ch=2 n=b4 v=64
362880 Off ch=2 n=g5 v=64
362880 On ch=2 n=d5 v=35
362880 On ch=2 n=b5 v=35
364560 Off ch=2 n=b5 v=64
364560 Off ch=2 n=d5 v=64
364560 On ch=2 n=g5 v=30
364560 On ch=2 n=b4 v=30
369840 Off ch=2 n=b4 v=64
369840 Off ch=2 n=g5 v=64
369840 Meta TrkEnd
TrkEnd
MTrk
0 Meta TrkName "Acoustic Grand Piano"
0 Meta 0x21 00
0 Meta 0x20 02
0 Par ch=3 c=7 v=125
0 Par ch=3 c=10 v=10
0 PrCh ch=3 p=0
0 On ch=3 n=d5 v=53
0 Par ch=3 c=64 v=127
480 On ch=3 n=g5 v=54
960 Off ch=3 n=g5 v=64
960 On ch=3 n=b5 v=56
1440 Off ch=3 n=b5 v=64
1440 On ch=3 n=g5 v=56
1920 Off ch=3 n=g5 v=64
1920 On ch=3 n=b4 v=56
2398 Off ch=3 n=d5 v=64
2398 Off ch=3 n=b4 v=64
2400 On ch=3 n=e5 v=56
2880 On ch=3 n=g5 v=59
3360 Off ch=3 n=g5 v=64
3360 On ch=3 n=b5 v=61
3840 Off ch=3 n=b5 v=64
3840 On ch=3 n=g5 v=58
4319 Par ch=3 c=64 v=65
4320 Off ch=3 n=g5 v=64
4320 On ch=3 n=b4 v=53
4798 Off ch=3 n=e5 v=64
4798 Off ch=3 n=b4 v=64
4800 On ch=3 n=d5 v=51
4800 Par ch=3 c=64 v=127
5280 On ch=3 n=g5 v=52
5760 Off ch=3 n=g5 v=64
5760 On ch=3 n=b5 v=52
6240 Off ch=3 n=b5 v=64
6240 On ch=3 n=g5 v=52
6720 Off ch=3 n=g5 v=64
6720 On ch=3 n=b4 v=53
7190 Off ch=3 n=b4 v=64
7198 Off ch=3 n=d5 v=64
7200 On ch=3 n=e5 v=54
7680 On ch=3 n=g5 v=56
8160 Off ch=3 n=g5 v=64
8160 On ch=3 n=b5 v=54
8640 Off ch=3 n=b5 v=64
8640 On ch=3 n=g5 v=53
9119 Par ch=3 c=64 v=67
9120 Off ch=3 n=g5 v=64
9120 On ch=3 n=b4 v=51
9598 Off ch=3 n=e5 v=64
9598 Off ch=3 n=b4 v=64
9600 On ch=3 n=d5 v=51
9600 Par ch=3 c=64 v=127
10080 On ch=3 n=g5 v=51
10560 Off ch=3 n=g5 v=64
10560 On ch=3 n=b5 v=52
11040 Off ch=3 n=b5 v=64
11040 On ch=3 n=g5 v=51
11520 Off ch=3 n=g5 v=64
11520 On ch=3 n=b4 v=51
11998 Off ch=3 n=d5 v=64
11998 Off ch=3 n=b4 v=64
12000 On ch=3 n=e5 v=51
12480 On ch=3 n=g5 v=51
12960 Off ch=3 n=g5 v=64
12960 On ch=3 n=b5 v=51
13440 Off ch=3 n=b5 v=64
13440 On ch=3 n=g5 v=51
13918 Par ch=3 c=64 v=37
13920 Off ch=3 n=g5 v=64
13920 On ch=3 n=b4 v=49
14398 Off ch=3 n=e5 v=64
14398 Off ch=3 n=b4 v=64
14400 On ch=3 n=d5 v=46
14400 Par ch=3 c=64 v=127
14880 On ch=3 n=g5 v=46
15360 Off ch=3 n=g5 v=64
15360 On ch=3 n=b5 v=46
15840 Off ch=3 n=b5 v=64
15840 On ch=3 n=g5 v=49
16320 Off ch=3 n=g5 v=64
16320 On ch=3 n=b4 v=46
16790 Off ch=3 n=b4 v=64
16798 Off ch=3 n=d5 v=64
16800 On ch=3 n=e5 v=51
17280 On ch=3 n=g5 v=52
17760 Off ch=3 n=g5 v=64
17760 On ch=3 n=b5 v=53
18240 Off ch=3 n=b5 v=64
18240 On ch=3 n=g5 v=52
18719 Par ch=3 c=64 v=35
18720 Off ch=3 n=g5 v=64
18720 On ch=3 n=b4 v=49
19198 Off ch=3 n=e5 v=64
19198 Off ch=3 n=b4 v=64
19200 On ch=3 n=d5 v=52
19200 Par ch=3 c=64 v=127
19680 On ch=3 n=g5 v=53
20160 Off ch=3 n=g5 v=64
20160 On ch=3 n=b5 v=56
20640 Off ch=3 n=b5 v=64
20640 On ch=3 n=g5 v=53
21120 Off ch=3 n=g5 v=64
21120 On ch=3 n=b4 v=52
21598 Off ch=3 n=d5 v=64
21598 Off ch=3 n=b4 v=64
21600 On ch=3 n=e5 v=53
22080 On ch=3 n=g5 v=53
22560 Off ch=3 n=g5 v=64
22560 On ch=3 n=b5 v=56
23040 Off ch=3 n=b5 v=64
23040 On ch=3 n=g5 v=53
23519 Par ch=3 c=64 v=35
23520 Off ch=3 n=g5 v=64
23520 On ch=3 n=b4 v=52
23998 Off ch=3 n=e5 v=64
23998 Off ch=3 n=b4 v=64
24000 On ch=3 n=d5 v=52
24000 Par ch=3 c=64 v=127
24480 On ch=3 n=g5 v=52
24960 Off ch=3 n=g5 v=64
24960 On ch=3 n=b5 v=52
25440 Off ch=3 n=b5 v=64
25440 On ch=3 n=g5 v=52
25920 Off ch=3 n=g5 v=64
25920 On ch=3 n=b4 v=52
26398 Off ch=3 n=d5 v=64
26398 Off ch=3 n=b4 v=64
26400 On ch=3 n=e5 v=53
26880 On ch=3 n=g5 v=53
27360 Off ch=3 n=g5 v=64
27360 On ch=3 n=b5 v=53
27840 Off ch=3 n=b5 v=64
27840 On ch=3 n=g5 v=53
28318 Par ch=3 c=64 v=35
28320 Off ch=3 n=g5 v=64
28320 On ch=3 n=b4 v=52
28798 Off ch=3 n=e5 v=64
28798 Off ch=3 n=b4 v=64
28800 On ch=3 n=d5 v=52
28800 Par ch=3 c=64 v=127
29280 On ch=3 n=g5 v=52
29760 Off ch=3 n=g5 v=64
29760 On ch=3 n=b5 v=53
30240 Off ch=3 n=b5 v=64
30240 On ch=3 n=g5 v=53
30720 Off ch=3 n=g5 v=64
30720 On ch=3 n=b4 v=52
31198 Off ch=3 n=d5 v=64
31198 Off ch=3 n=b4 v=64
31200 On ch=3 n=e5 v=53
31680 On ch=3 n=g5 v=54
32160 Off ch=3 n=g5 v=64
32160 On ch=3 n=b5 v=56
32640 Off ch=3 n=b5 v=64
32640 On ch=3 n=g5 v=54
33119 Par ch=3 c=64 v=35
33120 Off ch=3 n=g5 v=64
33120 On ch=3 n=b4 v=53
33598 Off ch=3 n=e5 v=64
33598 Off ch=3 n=b4 v=64
33600 On ch=3 n=d5 v=52
33600 Par ch=3 c=64 v=127
34080 On ch=3 n=g5 v=54
34560 Off ch=3 n=g5 v=64
34560 On ch=3 n=b5 v=59
35040 Off ch=3 n=b5 v=64
35040 On ch=3 n=g5 v=61
35520 Off ch=3 n=g5 v=64
35520 On ch=3 n=b4 v=65
35998 Off ch=3 n=d5 v=64
35998 Off ch=3 n=b4 v=64
36000 On ch=3 n=e5 v=68
36480 On ch=3 n=g5 v=71
36960 Off ch=3 n=g5 v=64
36960 On ch=3 n=b5 v=76
37440 Off ch=3 n=b5 v=64
37440 On ch=3 n=g5 v=67
37918 Par ch=3 c=64 v=35
37920 Off ch=3 n=g5 v=64
37920 On ch=3 n=b4 v=54
38398 Off ch=3 n=e5 v=64
38398 Off ch=3 n=b4 v=64
38400 On ch=3 n=d5 v=52
38400 Par ch=3 c=64 v=127
38880 On ch=3 n=g5 v=52
39360 Off ch=3 n=g5 v=64
39360 On ch=3 n=b5 v=53
39840 Off ch=3 n=b5 v=64
39840 On ch=3 n=g5 v=51
40320 Off ch=3 n=g5 v=64
40320 On ch=3 n=b4 v=49
40798 Off ch=3 n=d5 v=64
40798 Off ch=3 n=b4 v=64
40800 On ch=3 n=e5 v=45
41280 On ch=3 n=g5 v=45
41760 Off ch=3 n=g5 v=64
41760 On ch=3 n=b5 v=45
42240 Off ch=3 n=b5 v=64
42240 On ch=3 n=g5 v=45
42719 Par ch=3 c=64 v=0
42720 Off ch=3 n=g5 v=64
42720 On ch=3 n=b4 v=44
43198 Off ch=3 n=e5 v=64
43198 Off ch=3 n=b4 v=64
43200 On ch=3 n=d5 v=44
43200 Par ch=3 c=64 v=127
43680 On ch=3 n=g5 v=46
44160 Off ch=3 n=g5 v=64
44160 On ch=3 n=b5 v=49
44640 Off ch=3 n=b5 v=64
44640 On ch=3 n=g5 v=46
45120 Off ch=3 n=g5 v=64
45120 On ch=3 n=b4 v=49
45598 Off ch=3 n=d5 v=64
45598 Off ch=3 n=b4 v=64
45600 On ch=3 n=e5 v=46
46080 On ch=3 n=g5 v=51
46560 Off ch=3 n=g5 v=64
46560 On ch=3 n=b5 v=45
47040 Off ch=3 n=b5 v=64
47040 On ch=3 n=g5 v=39
47519 Par ch=3 c=64 v=35
47520 Off ch=3 n=g5 v=64
47520 On ch=3 n=b4 v=38
47998 Off ch=3 n=e5 v=64
47998 Off ch=3 n=b4 v=64
48000 Par ch=3 c=64 v=127
48000 On ch=3 n=d5 v=39
48480 On ch=3 n=g5 v=39
48960 Off ch=3 n=g5 v=64
48960 On ch=3 n=b5 v=40
49440 Off ch=3 n=b5 v=64
49440 On ch=3 n=g5 v=37
49920 Off ch=3 n=g5 v=64
49920 On ch=3 n=b4 v=31
50398 Off ch=3 n=d5 v=64
50398 Off ch=3 n=b4 v=64
50400 On ch=3 n=e5 v=36
50880 On ch=3 n=g5 v=34
51360 Off ch=3 n=g5 v=64
51360 On ch=3 n=b5 v=35
51840 Off ch=3 n=b5 v=64
51840 On ch=3 n=g5 v=35
52319 Par ch=3 c=64 v=35
52320 Off ch=3 n=g5 v=64
52320 On ch=3 n=b4 v=34
52798 Off ch=3 n=e5 v=64
52798 Off ch=3 n=b4 v=64
52800 Par ch=3 c=64 v=127
52800 On ch=3 n=d5 v=32
53280 On ch=3 n=g5 v=34
53760 Off ch=3 n=g5 v=64
53760 On ch=3 n=b5 v=38
54240 Off ch=3 n=b5 v=64
54240 On ch=3 n=g5 v=34
54720 Off ch=3 n=d5 v=64
54720 Off ch=3 n=g5 v=64
54720 On ch=3 n=b4 v=41
55198 Off ch=3 n=b4 v=64
55198 Par ch=3 c=64 v=35
55200 On ch=3 n=e5 v=40
55680 On ch=3 n=g5 v=42
56160 Off ch=3 n=g5 v=64
56160 On ch=3 n=b5 v=44
56640 Off ch=3 n=b5 v=64
56640 On ch=3 n=g5 v=45
57120 Off ch=3 n=g5 v=64
57120 On ch=3 n=b4 v=43
57590 Off ch=3 n=b4 v=64
57598 Off ch=3 n=e5 v=64
57600 Par ch=3 c=64 v=127
57600 On ch=3 n=f#5 v=49
57600 On ch=3 n=d5 v=49
58080 On ch=3 n=b5 v=59
58104 Off ch=3 n=d5 v=64
58104 Off ch=3 n=f#5 v=64
58560 On ch=3 n=c5 v=53
58560 On ch=3 n=e5 v=53
58584 Off ch=3 n=b5 v=64
59040 On ch=3 n=g4 v=53
59064 Off ch=3 n=c5 v=64
59064 Off ch=3 n=e5 v=64
59505 Off ch=3 n=g4 v=64
59520 On ch=3 n=e5 v=51
59520 On ch=3 n=c5 v=51
60000 On ch=3 n=b5 v=61
60024 Off ch=3 n=c5 v=64
60024 Off ch=3 n=e5 v=64
60480 On ch=3 n=b4 v=52
60480 On ch=3 n=d5 v=52
60504 Off ch=3 n=b5 v=64
60960 On ch=3 n=f#4 v=52
60984 Off ch=3 n=b4 v=64
60984 Off ch=3 n=d5 v=64
61425 Off ch=3 n=f#4 v=64
61438 Par ch=3 c=64 v=35
61440 Par ch=3 c=64 v=127
61440 On ch=3 n=b4 v=53
61440 On ch=3 n=d5 v=53
61920 On ch=3 n=b5 v=63
61944 Off ch=3 n=d5 v=64
61944 Off ch=3 n=b4 v=64
62400 On ch=3 n=c5 v=53
62400 On ch=3 n=e5 v=53
62424 Off ch=3 n=b5 v=64
62880 On ch=3 n=g4 v=53
62904 Off ch=3 n=c5 v=64
62904 Off ch=3 n=e5 v=64
63345 Off ch=3 n=g4 v=64
63360 On ch=3 n=e5 v=53
63360 On ch=3 n=c5 v=53
63840 On ch=3 n=b5 v=65
63864 Off ch=3 n=c5 v=64
63864 Off ch=3 n=e5 v=64
64320 On ch=3 n=d5 v=54
64320 On ch=3 n=f#5 v=54
64344 Off ch=3 n=b5 v=64
64800 On ch=3 n=a4 v=54
64824 Off ch=3 n=d5 v=64
64824 Off ch=3 n=f#5 v=64
65265 Off ch=3 n=a4 v=64
65278 Par ch=3 c=64 v=35
65280 Par ch=3 c=64 v=127
65280 On ch=3 n=f#5 v=53
65280 On ch=3 n=d5 v=53
65760 On ch=3 n=b5 v=59
65784 Off ch=3 n=d5 v=64
65784 Off ch=3 n=f#5 v=64
66240 On ch=3 n=c5 v=53
66240 On ch=3 n=e5 v=53
66264 Off ch=3 n=b5 v=64
66720 On ch=3 n=g4 v=53
66744 Off ch=3 n=c5 v=64
66744 Off ch=3 n=e5 v=64
67185 Off ch=3 n=g4 v=64
67200 On ch=3 n=e5 v=51
67200 On ch=3 n=c5 v=34
67680 On ch=3 n=b5 v=40
67704 Off ch=3 n=c5 v=64
67704 Off ch=3 n=e5 v=64
68160 On ch=3 n=d5 v=34
68160 On ch=3 n=b4 v=34
68184 Off ch=3 n=b5 v=64
68640 On ch=3 n=f#4 v=34
68664 Off ch=3 n=d5 v=64
68664 Off ch=3 n=b4 v=64
69105 Off ch=3 n=f#4 v=64
69118 Par ch=3 c=64 v=35
69120 Par ch=3 c=64 v=127
69120 On ch=3 n=b4 v=32
69120 On ch=3 n=d5 v=32
69600 On ch=3 n=f#5 v=41
69624 Off ch=3 n=d5 v=64
69624 Off ch=3 n=b4 v=64
70080 On ch=3 n=c5 v=32
70080 On ch=3 n=a4 v=32
70104 Off ch=3 n=f#5 v=64
70560 On ch=3 n=e4 v=32
70584 Off ch=3 n=c5 v=64
70584 Off ch=3 n=a4 v=64
71025 Off ch=3 n=e4 v=64
71040 On ch=3 n=c5 v=29
71040 On ch=3 n=a4 v=29
71520 On ch=3 n=f#5 v=34
71544 Off ch=3 n=a4 v=64
71544 Off ch=3 n=c5 v=64
72000 On ch=3 n=b4 v=27
72000 On ch=3 n=g4 v=27
72024 Off ch=3 n=f#5 v=64
72480 On ch=3 n=d4 v=26
72504 Off ch=3 n=b4 v=64
72504 Off ch=3 n=g4 v=64
72945 Off ch=3 n=d4 v=64
72958 Par ch=3 c=64 v=0
72960 On ch=3 n=b4 v=80
72960 Par ch=3 c=64 v=127
72960 On ch=3 n=d5 v=37
73440 On ch=3 n=g5 v=39
73920 Off ch=3 n=g5 v=64
73920 On ch=3 n=b5 v=40
74400 Off ch=3 n=b5 v=64
74400 On ch=3 n=g5 v=46
74880 Off ch=3 n=g5 v=64
75358 Off ch=3 n=d5 v=64
75358 Off ch=3 n=b4 v=64
75360 On ch=3 n=e5 v=44
75840 On ch=3 n=g5 v=44
76320 Off ch=3 n=g5 v=64
76320 On ch=3 n=b5 v=49
76800 Off ch=3 n=b5 v=64
76800 On ch=3 n=g5 v=44
77279 Par ch=3 c=64 v=65
77280 Off ch=3 n=g5 v=64
77280 On ch=3 n=b4 v=44
77758 Off ch=3 n=e5 v=64
77758 Off ch=3 n=b4 v=64
77760 On ch=3 n=d5 v=44
77760 Par ch=3 c=64 v=127
78240 On ch=3 n=g5 v=44
78720 Off ch=3 n=g5 v=64
78720 On ch=3 n=b5 v=44
79200 Off ch=3 n=b5 v=64
79200 On ch=3 n=g5 v=44
79680 Off ch=3 n=g5 v=64
79680 On ch=3 n=b4 v=44
80150 Off ch=3 n=b4 v=64
80158 Off ch=3 n=d5 v=64
80160 On ch=3 n=e5 v=32
80640 On ch=3 n=g5 v=46
81120 Off ch=3 n=g5 v=64
81120 On ch=3 n=b5 v=46
81600 Off ch=3 n=b5 v=64
81600 On ch=3 n=g5 v=46
82079 Par ch=3 c=64 v=67
82080 Off ch=3 n=g5 v=64
82080 On ch=3 n=b4 v=46
82558 Off ch=3 n=e5 v=64
82558 Off ch=3 n=b4 v=64
82560 On ch=3 n=d5 v=46
82560 Par ch=3 c=64 v=127
83040 On ch=3 n=g5 v=46
83520 Off ch=3 n=g5 v=64
83520 On ch=3 n=b5 v=49
84000 Off ch=3 n=b5 v=64
84000 On ch=3 n=g5 v=51
84480 Off ch=3 n=g5 v=64
84480 On ch=3 n=b4 v=46
84958 Off ch=3 n=d5 v=64
84958 Off ch=3 n=b4 v=64
84960 On ch=3 n=e5 v=49
85440 On ch=3 n=g5 v=51
85920 Off ch=3 n=g5 v=64
85920 On ch=3 n=b5 v=51
86400 Off ch=3 n=b5 v=64
86400 On ch=3 n=g5 v=51
86878 Par ch=3 c=64 v=37
86880 Off ch=3 n=g5 v=64
86880 On ch=3 n=b4 v=49
87358 Off ch=3 n=e5 v=64
87358 Off ch=3 n=b4 v=64
87360 On ch=3 n=d5 v=46
87360 Par ch=3 c=64 v=127
87840 On ch=3 n=g5 v=46
88320 Off ch=3 n=g5 v=64
88320 On ch=3 n=b5 v=46
88800 Off ch=3 n=b5 v=64
88800 On ch=3 n=g5 v=49
89280 Off ch=3 n=g5 v=64
89280 On ch=3 n=b4 v=46
89750 Off ch=3 n=b4 v=64
89758 Off ch=3 n=d5 v=64
89760 On ch=3 n=e5 v=51
90240 On ch=3 n=g5 v=52
90720 Off ch=3 n=g5 v=64
90720 On ch=3 n=b5 v=53
91200 Off ch=3 n=b5 v=64
91200 On ch=3 n=g5 v=52
91679 Par ch=3 c=64 v=35
91680 Off ch=3 n=g5 v=64
91680 On ch=3 n=b4 v=49
92158 Off ch=3 n=e5 v=64
92158 Off ch=3 n=b4 v=64
92160 On ch=3 n=d5 v=52
92160 Par ch=3 c=64 v=127
92640 On ch=3 n=g5 v=53
93120 Off ch=3 n=g5 v=64
93120 On ch=3 n=b5 v=56
93600 Off ch=3 n=b5 v=64
93600 On ch=3 n=g5 v=53
94080 Off ch=3 n=g5 v=64
94080 On ch=3 n=b4 v=52
94558 Off ch=3 n=d5 v=64
94558 Off ch=3 n=b4 v=64
94560 On ch=3 n=e5 v=53
95040 On ch=3 n=g5 v=53
95520 Off ch=3 n=g5 v=64
95520 On ch=3 n=b5 v=56
96000 Off ch=3 n=b5 v=64
96000 On ch=3 n=g5 v=53
96479 Par ch=3 c=64 v=35
96480 Off ch=3 n=g5 v=64
96480 On ch=3 n=b4 v=52
96958 Off ch=3 n=e5 v=64
96958 Off ch=3 n=b4 v=64
96960 On ch=3 n=d5 v=52
96960 Par ch=3 c=64 v=127
97440 On ch=3 n=g5 v=52
97920 Off ch=3 n=g5 v=64
97920 On ch=3 n=b5 v=52
98400 Off ch=3 n=b5 v=64
98400 On ch=3 n=g5 v=52
98880 Off ch=3 n=g5 v=64
98880 On ch=3 n=b4 v=52
99358 Off ch=3 n=d5 v=64
99358 Off ch=3 n=b4 v=64
99360 On ch=3 n=e5 v=53
99840 On ch=3 n=g5 v=53
100320 Off ch=3 n=g5 v=64
100320 On ch=3 n=b5 v=53
100800 Off ch=3 n=b5 v=64
100800 On ch=3 n=g5 v=53
101278 Par ch=3 c=64 v=35
101280 Off ch=3 n=g5 v=64
101280 On ch=3 n=b4 v=52
101758 Off ch=3 n=e5 v=64
101758 Off ch=3 n=b4 v=64
101760 On ch=3 n=d5 v=52
101760 Par ch=3 c=64 v=127
102240 On ch=3 n=g5 v=52
102720 Off ch=3 n=g5 v=64
102720 On ch=3 n=b5 v=53
103200 Off ch=3 n=b5 v=64
103200 On ch=3 n=g5 v=53
103680 Off ch=3 n=g5 v=64
103680 On ch=3 n=b4 v=37
104158 Off ch=3 n=d5 v=64
104158 Off ch=3 n=b4 v=64
104160 On ch=3 n=e5 v=53
104640 On ch=3 n=g5 v=54
105120 Off ch=3 n=g5 v=64
105120 On ch=3 n=b5 v=56
105600 Off ch=3 n=b5 v=64
105600 On ch=3 n=g5 v=54
106079 Par ch=3 c=64 v=35
106080 Off ch=3 n=g5 v=64
106080 On ch=3 n=b4 v=53
106558 Off ch=3 n=e5 v=64
106558 Off ch=3 n=b4 v=64
106560 On ch=3 n=d5 v=52
106560 Par ch=3 c=64 v=127
107040 On ch=3 n=g5 v=54
107520 Off ch=3 n=g5 v=64
107520 On ch=3 n=b5 v=59
108000 Off ch=3 n=b5 v=64
108000 On ch=3 n=g5 v=61
108480 Off ch=3 n=g5 v=64
108480 On ch=3 n=b4 v=65
108958 Off ch=3 n=d5 v=64
108958 Off ch=3 n=b4 v=64
108960 On ch=3 n=e5 v=68
109440 On ch=3 n=g5 v=71
109920 Off ch=3 n=g5 v=64
109920 On ch=3 n=b5 v=76
110400 Off ch=3 n=b5 v=64
110400 On ch=3 n=g5 v=67
110878 Par ch=3 c=64 v=35
110880 Off ch=3 n=g5 v=64
110880 On ch=3 n=b4 v=54
111358 Off ch=3 n=e5 v=64
111358 Off ch=3 n=b4 v=64
111360 On ch=3 n=d5 v=52
111360 Par ch=3 c=64 v=127
111840 On ch=3 n=g5 v=52
112320 Off ch=3 n=g5 v=64
112320 On ch=3 n=b5 v=53
112800 Off ch=3 n=b5 v=64
112800 On ch=3 n=g5 v=51
113280 Off ch=3 n=g5 v=64
113280 On ch=3 n=b4 v=49
113758 Off ch=3 n=d5 v=64
113758 Off ch=3 n=b4 v=64
113760 On ch=3 n=e5 v=37
114240 On ch=3 n=g5 v=37
114720 Off ch=3 n=g5 v=64
114720 On ch=3 n=b5 v=37
115200 Off ch=3 n=b5 v=64
115200 On ch=3 n=g5 v=37
115679 Par ch=3 c=64 v=0
115680 Off ch=3 n=g5 v=64
115680 On ch=3 n=b4 v=35
116158 Off ch=3 n=e5 v=64
116158 Off ch=3 n=b4 v=64
116160 On ch=3 n=d5 v=37
116160 Par ch=3 c=64 v=127
116640 On ch=3 n=g5 v=41
117120 Off ch=3 n=g5 v=64
117120 On ch=3 n=b5 v=45
117600 Off ch=3 n=b5 v=64
117600 On ch=3 n=g5 v=46
118080 Off ch=3 n=g5 v=64
118080 On ch=3 n=b4 v=49
118558 Off ch=3 n=d5 v=64
118558 Off ch=3 n=b4 v=64
118560 On ch=3 n=e5 v=46
119040 On ch=3 n=g5 v=51
119520 Off ch=3 n=g5 v=64
119520 On ch=3 n=b5 v=49
120000 Off ch=3 n=b5 v=64
120000 On ch=3 n=g5 v=44
120479 Par ch=3 c=64 v=35
120480 Off ch=3 n=g5 v=64
120480 On ch=3 n=b4 v=37
120958 Off ch=3 n=e5 v=64
120958 Off ch=3 n=b4 v=64
120960 Par ch=3 c=64 v=127
120960 On ch=3 n=d5 v=35
121440 On ch=3 n=g5 v=38
121920 Off ch=3 n=g5 v=64
121920 On ch=3 n=b5 v=38
122400 Off ch=3 n=b5 v=64
122400 On ch=3 n=g5 v=36
122880 Off ch=3 n=g5 v=64
122880 On ch=3 n=b4 v=35
123358 Off ch=3 n=d5 v=64
123358 Off ch=3 n=b4 v=64
123360 On ch=3 n=e5 v=30
123840 On ch=3 n=g5 v=30
124320 Off ch=3 n=g5 v=64
124320 On ch=3 n=b5 v=31
124800 Off ch=3 n=b5 v=64
124800 On ch=3 n=g5 v=30
125279 Par ch=3 c=64 v=35
125280 Off ch=3 n=g5 v=64
125280 On ch=3 n=b4 v=28
125758 Off ch=3 n=e5 v=64
125758 Off ch=3 n=b4 v=64
125760 On ch=3 n=d5 v=31
125760 Par ch=3 c=64 v=127
126240 On ch=3 n=g5 v=34
126720 Off ch=3 n=g5 v=64
126720 On ch=3 n=b5 v=34
127200 Off ch=3 n=b5 v=64
127200 On ch=3 n=g5 v=36
127680 Off ch=3 n=d5 v=64
127680 Off ch=3 n=g5 v=64
127680 On ch=3 n=b4 v=33
128158 Off ch=3 n=b4 v=64
128158 Par ch=3 c=64 v=35
128160 On ch=3 n=e5 v=41
128640 On ch=3 n=g5 v=42
129120 Off ch=3 n=g5 v=64
129120 On ch=3 n=b5 v=44
129600 Off ch=3 n=b5 v=64
129600 On ch=3 n=g5 v=44
130080 Off ch=3 n=g5 v=64
130080 On ch=3 n=b4 v=41
130550 Off ch=3 n=b4 v=64
130558 Off ch=3 n=e5 v=64
130560 Par ch=3 c=64 v=127
130560 On ch=3 n=f#5 v=49
130560 On ch=3 n=d5 v=49
131040 On ch=3 n=b5 v=59
131064 Off ch=3 n=d5 v=64
131064 Off ch=3 n=f#5 v=64
131520 On ch=3 n=c5 v=53
131520 On ch=3 n=e5 v=53
131544 Off ch=3 n=b5 v=64
132000 On ch=3 n=g4 v=53
132024 Off ch=3 n=c5 v=64
132024 Off ch=3 n=e5 v=64
132465 Off ch=3 n=g4 v=64
132480 On ch=3 n=e5 v=51
132480 On ch=3 n=c5 v=51
132960 On ch=3 n=b5 v=61
132984 Off ch=3 n=c5 v=64
132984 Off ch=3 n=e5 v=64
133440 On ch=3 n=b4 v=52
133440 On ch=3 n=d5 v=52
133464 Off ch=3 n=b5 v=64
133920 On ch=3 n=f#4 v=52
133944 Off ch=3 n=b4 v=64
133944 Off ch=3 n=d5 v=64
134385 Off ch=3 n=f#4 v=64
134398 Par ch=3 c=64 v=35
134400 Par ch=3 c=64 v=127
134400 On ch=3 n=b4 v=53
134400 On ch=3 n=d5 v=53
134880 On ch=3 n=b5 v=63
134904 Off ch=3 n=d5 v=64
134904 Off ch=3 n=b4 v=64
135360 On ch=3 n=c5 v=53
135360 On ch=3 n=e5 v=53
135384 Off ch=3 n=b5 v=64
135840 On ch=3 n=g4 v=53
135864 Off ch=3 n=c5 v=64
135864 Off ch=3 n=e5 v=64
136305 Off ch=3 n=g4 v=64
136320 On ch=3 n=e5 v=53
136320 On ch=3 n=c5 v=53
136800 On ch=3 n=b5 v=65
136824 Off ch=3 n=c5 v=64
136824 Off ch=3 n=e5 v=64
137280 On ch=3 n=d5 v=54
137280 On ch=3 n=f#5 v=54
137304 Off ch=3 n=b5 v=64
137760 On ch=3 n=a4 v=54
137784 Off ch=3 n=d5 v=64
137784 Off ch=3 n=f#5 v=64
138225 Off ch=3 n=a4 v=64
138238 Par ch=3 c=64 v=35
138240 Par ch=3 c=64 v=127
138240 On ch=3 n=f#5 v=53
138240 On ch=3 n=d5 v=53
138720 On ch=3 n=b5 v=59
138744 Off ch=3 n=d5 v=64
138744 Off ch=3 n=f#5 v=64
139200 On ch=3 n=c5 v=53
139200 On ch=3 n=e5 v=53
139224 Off ch=3 n=b5 v=64
139680 On ch=3 n=g4 v=53
139704 Off ch=3 n=c5 v=64
139704 Off ch=3 n=e5 v=64
140145 Off ch=3 n=g4 v=64
140160 On ch=3 n=e5 v=51
140160 On ch=3 n=c5 v=51
140640 On ch=3 n=b5 v=54
140664 Off ch=3 n=c5 v=64
140664 Off ch=3 n=e5 v=64
141120 On ch=3 n=d5 v=51
141120 On ch=3 n=b4 v=51
141144 Off ch=3 n=b5 v=64
141600 On ch=3 n=f#4 v=51
141624 Off ch=3 n=d5 v=64
141624 Off ch=3 n=b4 v=64
142065 Off ch=3 n=f#4 v=64
142078 Par ch=3 c=64 v=35
142080 Par ch=3 c=64 v=127
142080 On ch=3 n=b4 v=46
142080 On ch=3 n=d5 v=46
142560 On ch=3 n=b5 v=56
142584 Off ch=3 n=d5 v=64
142584 Off ch=3 n=b4 v=64
143040 On ch=3 n=d5 v=46
143040 On ch=3 n=b4 v=46
143064 Off ch=3 n=b5 v=64
143520 On ch=3 n=f#4 v=46
143544 Off ch=3 n=d5 v=64
143544 Off ch=3 n=b4 v=64
143985 Off ch=3 n=f#4 v=64
144000 On ch=3 n=c5 v=44
144000 On ch=3 n=a4 v=44
144480 On ch=3 n=g5 v=51
144504 Off ch=3 n=a4 v=64
144504 Off ch=3 n=c5 v=64
144960 On ch=3 n=a4 v=44
144960 On ch=3 n=c5 v=44
144984 Off ch=3 n=g5 v=64
145440 On ch=3 n=e4 v=61
145464 Off ch=3 n=a4 v=64
145464 Off ch=3 n=c5 v=64
145580 On ch=3 n=d3 v=65
145750 On ch=3 n=a3 v=67
145905 Off ch=3 n=e4 v=64
145918 Par ch=3 c=64 v=0
145920 Par ch=3 c=64 v=127
145920 On ch=3 n=f#4 v=69
146860 Off ch=3 n=a3 v=64
146880 Off ch=3 n=d3 v=64
146880 Off ch=3 n=f#4 v=64
146880 On ch=3 n=a3 v=56
147200 On ch=3 n=f#4 v=61
147520 On ch=3 n=c5 v=56
147840 On ch=3 n=f#5 v=67
148800 Off ch=3 n=c5 v=64
148800 Off ch=3 n=f#4 v=64
148800 Off ch=3 n=a3 v=64
151030 Off ch=3 n=f#5 v=64
151040 On ch=3 n=e5 v=67
151680 On ch=3 n=e4 v=61
151680 On ch=3 n=g4 v=61
151680 On ch=3 n=d5 v=61
151690 Off ch=3 n=e5 v=64
152957 Off ch=3 n=e4 v=64
152957 Off ch=3 n=g4 v=64
152957 Off ch=3 n=d5 v=64
152960 On ch=3 n=a3 v=69
152960 On ch=3 n=e4 v=69
153581 Par ch=3 c=64 v=0
153600 Off ch=3 n=a3 v=64
153600 On ch=3 n=d3 v=67
153600 Par ch=3 c=64 v=127
153600 On ch=3 n=f#4 v=90
153633 Off ch=3 n=e4 v=64
154720 Off ch=3 n=d3 v=64
154720 Off ch=3 n=f#4 v=64
154880 On ch=3 n=f#4 v=66
155520 On ch=3 n=e5 v=69
155520 On ch=3 n=c5 v=69
155640 Off ch=3 n=f#4 v=64
158710 Off ch=3 n=e5 v=64
158710 Off ch=3 n=c5 v=64
158720 On ch=3 n=d5 v=71
159360 On ch=3 n=e4 v=71
159360 On ch=3 n=b4 v=63
159370 Off ch=3 n=d5 v=64
160640 Off ch=3 n=e4 v=64
160640 Off ch=3 n=b4 v=64
160640 On ch=3 n=a3 v=63
160640 On ch=3 n=g4 v=59
160640 On ch=3 n=a4 v=74
161234 Par ch=3 c=64 v=0
161280 On ch=3 n=d3 v=74
161290 Off ch=3 n=a4 v=64
161290 Off ch=3 n=g4 v=64
161290 Off ch=3 n=a3 v=64
161300 Par ch=3 c=64 v=127
162560 On ch=3 n=a3 v=59
162570 Off ch=3 n=d3 v=64
163200 On ch=3 n=g4 v=65
163210 Off ch=3 n=a3 v=64
166386 Off ch=3 n=g4 v=64
166400 Par ch=3 c=64 v=40
166400 On ch=3 n=f#4 v=63
167040 Off ch=3 n=f#4 v=64
167040 On ch=3 n=g4 v=66
168320 Off ch=3 n=g4 v=64
168320 On ch=3 n=a3 v=68
168960 Off ch=3 n=a3 v=64
168960 Par ch=3 c=64 v=127
168960 On ch=3 n=d3 v=68
170220 Off ch=3 n=d3 v=64
170240 Par ch=3 c=64 v=40
170240 On ch=3 n=a3 v=68
170880 On ch=3 n=g4 v=69
170897 Par ch=3 c=64 v=127
171532 Off ch=3 n=a3 v=64
174066 Off ch=3 n=g4 v=64
174073 Par ch=3 c=64 v=40
174080 On ch=3 n=f#4 v=66
174720 Off ch=3 n=f#4 v=64
174720 Par ch=3 c=64 v=127
174720 On ch=3 n=g4 v=66
176000 Par ch=3 c=64 v=0
176000 On ch=3 n=a3 v=71
176040 Off ch=3 n=g4 v=64
176640 Par ch=3 c=64 v=127
176640 On ch=3 n=d3 v=68
176660 Off ch=3 n=a3 v=64
177940 Off ch=3 n=d3 v=64
177960 On ch=3 n=a3 v=68
178560 On ch=3 n=b4 v=71
178560 On ch=3 n=g4 v=71
178610 Off ch=3 n=a3 v=64
179820 Off ch=3 n=b4 v=64
179820 Off ch=3 n=g4 v=64
179880 On ch=3 n=a3 v=71
180480 On ch=3 n=d3 v=74
180540 Off ch=3 n=a3 v=64
181740 Off ch=3 n=d3 v=64
181800 On ch=3 n=a3 v=74
182400 On ch=3 n=b4 v=81
182400 On ch=3 n=g4 v=81
182460 Off ch=3 n=a3 v=64
183700 Off ch=3 n=b4 v=64
183700 Off ch=3 n=g4 v=64
183702 Par ch=3 c=64 v=0
183720 On ch=3 n=a3 v=78
184320 Par ch=3 c=64 v=127
184320 On ch=3 n=d3 v=78
184380 Off ch=3 n=a3 v=64
185760 On ch=3 n=a3 v=92
185880 Off ch=3 n=d3 v=64
186240 On ch=3 n=a5 v=99
186739 Off ch=3 n=a3 v=64
188160 Par ch=3 c=64 v=0
188335 Off ch=3 n=a5 v=64
194405 Par ch=3 c=64 v=127
204480 On ch=3 n=f5 v=83
205440 Off ch=3 n=f5 v=64
205440 On ch=3 n=d#5 v=82
206760 On ch=3 n=d5 v=78
206880 Off ch=3 n=d#5 v=64
207360 On ch=3 n=g5 v=91
207480 Off ch=3 n=d5 v=64
207840 On ch=3 n=a#5 v=54
208320 Off ch=3 n=a#5 v=64
208320 On ch=3 n=g5 v=56
208800 On ch=3 n=d5 v=56
209280 Off ch=3 n=d5 v=64
209280 On ch=3 n=a#4 v=53
209758 Off ch=3 n=g5 v=64
209758 Off ch=3 n=a#4 v=64
209760 On ch=3 n=d#5 v=56
210240 On ch=3 n=g5 v=56
210720 Off ch=3 n=g5 v=64
210720 On ch=3 n=a#5 v=56
211200 Off ch=3 n=a#5 v=64
211200 On ch=3 n=g5 v=58
211679 Par ch=3 c=64 v=65
211680 Off ch=3 n=g5 v=64
211680 On ch=3 n=a#4 v=51
212158 Off ch=3 n=d#5 v=64
212158 Off ch=3 n=a#4 v=64
212160 On ch=3 n=d5 v=45
212160 Par ch=3 c=64 v=127
212640 On ch=3 n=g5 v=46
213120 Off ch=3 n=g5 v=64
213120 On ch=3 n=a#5 v=45
213600 Off ch=3 n=a#5 v=64
213600 On ch=3 n=g5 v=44
214080 Off ch=3 n=g5 v=64
214080 On ch=3 n=a#4 v=44
214550 Off ch=3 n=a#4 v=64
214558 Off ch=3 n=d5 v=64
214560 On ch=3 n=d#5 v=45
215040 On ch=3 n=g5 v=49
215520 Off ch=3 n=g5 v=64
215520 On ch=3 n=a#5 v=52
216000 Off ch=3 n=a#5 v=64
216000 On ch=3 n=g5 v=53
216479 Par ch=3 c=64 v=67
216480 Off ch=3 n=g5 v=64
216480 On ch=3 n=a#4 v=45
216958 Off ch=3 n=d#5 v=64
216958 Off ch=3 n=a#4 v=64
216960 Off ch=3 n=g5 v=64
216960 On ch=3 n=d5 v=45
216960 Par ch=3 c=64 v=127
217440 On ch=3 n=g5 v=46
217920 Off ch=3 n=g5 v=64
217920 On ch=3 n=a#5 v=46
218400 Off ch=3 n=a#5 v=64
218400 On ch=3 n=g5 v=45
218880 Off ch=3 n=g5 v=64
218880 On ch=3 n=a#4 v=44
219358 Off ch=3 n=d5 v=64
219358 Off ch=3 n=a#4 v=64
219360 On ch=3 n=d#5 v=42
219840 On ch=3 n=g5 v=45
220320 Off ch=3 n=g5 v=64
220320 On ch=3 n=a#5 v=44
220800 Off ch=3 n=a#5 v=64
220800 On ch=3 n=g5 v=45
221278 Par ch=3 c=64 v=37
221280 Off ch=3 n=g5 v=64
221280 On ch=3 n=a#4 v=44
221758 Off ch=3 n=d#5 v=64
221758 Off ch=3 n=a#4 v=64
221760 On ch=3 n=d5 v=44
221760 Par ch=3 c=64 v=127
222240 On ch=3 n=g5 v=46
222720 Off ch=3 n=g5 v=64
222720 On ch=3 n=a#5 v=46
223200 Off ch=3 n=a#5 v=64
223200 On ch=3 n=g5 v=49
223680 Off ch=3 n=g5 v=64
223680 On ch=3 n=a#4 v=44
224150 Off ch=3 n=a#4 v=64
224158 Off ch=3 n=d5 v=64
224160 On ch=3 n=d#5 v=45
224640 On ch=3 n=g5 v=45
225120 Off ch=3 n=g5 v=64
225120 On ch=3 n=a#5 v=46
225600 Off ch=3 n=a#5 v=64
225600 On ch=3 n=g5 v=45
226079 Par ch=3 c=64 v=0
226080 Off ch=3 n=g5 v=64
226080 On ch=3 n=a#4 v=44
226558 Off ch=3 n=d#5 v=64
226558 Off ch=3 n=a#4 v=64
226560 On ch=3 n=d5 v=42
226564 Par ch=3 c=64 v=127
227040 On ch=3 n=g5 v=44
227520 Off ch=3 n=g5 v=64
227520 On ch=3 n=a#5 v=44
228000 Off ch=3 n=a#5 v=64
228000 On ch=3 n=g5 v=44
228480 Off ch=3 n=g5 v=64
228480 On ch=3 n=a#4 v=42
228958 Off ch=3 n=d5 v=64
228958 Off ch=3 n=a#4 v=64
228960 On ch=3 n=d#5 v=41
229440 On ch=3 n=g5 v=42
229920 Off ch=3 n=g5 v=64
229920 On ch=3 n=a#5 v=44
230400 Off ch=3 n=a#5 v=64
230400 On ch=3 n=g5 v=42
230878 Par ch=3 c=64 v=37
230880 Off ch=3 n=g5 v=64
230880 On ch=3 n=a#4 v=41
231358 Off ch=3 n=d#5 v=64
231358 Off ch=3 n=a#4 v=64
231360 On ch=3 n=d5 v=40
231360 Par ch=3 c=64 v=127
231840 On ch=3 n=g5 v=53
232320 Off ch=3 n=g5 v=64
232320 On ch=3 n=a#5 v=53
232800 Off ch=3 n=a#5 v=64
232800 On ch=3 n=g5 v=53
233280 Off ch=3 n=g5 v=64
233280 On ch=3 n=a#4 v=53
233750 Off ch=3 n=a#4 v=64
233758 Off ch=3 n=d5 v=64
233760 On ch=3 n=d#5 v=53
234240 On ch=3 n=g5 v=53
234720 Off ch=3 n=g5 v=64
234720 On ch=3 n=a#5 v=53
235200 Off ch=3 n=a#5 v=64
235200 On ch=3 n=g5 v=53
235679 Par ch=3 c=64 v=35
235680 Off ch=3 n=g5 v=64
235680 On ch=3 n=a#4 v=53
236158 Off ch=3 n=d#5 v=64
236158 Off ch=3 n=a#4 v=64
236160 Par ch=3 c=64 v=127
236160 On ch=3 n=d5 v=38
236640 On ch=3 n=g5 v=53
237120 Off ch=3 n=g5 v=64
237120 On ch=3 n=a#5 v=53
237600 Off ch=3 n=a#5 v=64
237600 On ch=3 n=g5 v=53
238080 Off ch=3 n=g5 v=64
238080 On ch=3 n=a#4 v=53
238558 Off ch=3 n=d5 v=64
238558 Off ch=3 n=a#4 v=64
238560 On ch=3 n=d#5 v=53
239040 On ch=3 n=g5 v=51
239520 Off ch=3 n=g5 v=64
239520 On ch=3 n=a#5 v=51
240000 Off ch=3 n=a#5 v=64
240000 On ch=3 n=g5 v=51
240478 Par ch=3 c=64 v=37
240480 Off ch=3 n=g5 v=64
240480 On ch=3 n=a#4 v=49
240958 Off ch=3 n=d#5 v=64
240958 Off ch=3 n=a#4 v=64
240960 On ch=3 n=d5 v=46
240960 Par ch=3 c=64 v=127
241440 On ch=3 n=g5 v=46
241920 Off ch=3 n=g5 v=64
241920 On ch=3 n=a#5 v=46
242400 Off ch=3 n=a#5 v=64
242400 On ch=3 n=g5 v=49
242880 Off ch=3 n=g5 v=64
242880 On ch=3 n=a#4 v=46
243350 Off ch=3 n=a#4 v=64
243358 Off ch=3 n=d5 v=64
243360 On ch=3 n=d#5 v=45
243840 On ch=3 n=g5 v=46
244320 Off ch=3 n=g5 v=64
244320 On ch=3 n=a#5 v=53
244800 Off ch=3 n=a#5 v=64
244800 On ch=3 n=g5 v=46
245280 Off ch=3 n=g5 v=64
245280 On ch=3 n=a#4 v=59
245730 Par ch=3 c=64 v=0
245758 Off ch=3 n=d#5 v=64
245758 Off ch=3 n=a#4 v=64
245760 On ch=3 n=d5 v=42
245760 Par ch=3 c=64 v=127
246240 On ch=3 n=g5 v=42
246720 Off ch=3 n=g5 v=64
246720 On ch=3 n=a#5 v=44
247200 Off ch=3 n=a#5 v=64
247200 On ch=3 n=g5 v=42
247680 Off ch=3 n=g5 v=64
247680 On ch=3 n=a#4 v=42
248158 Off ch=3 n=d5 v=64
248158 Off ch=3 n=a#4 v=64
248160 On ch=3 n=d#5 v=42
248640 On ch=3 n=g5 v=42
249120 Off ch=3 n=g5 v=64
249120 On ch=3 n=a#5 v=42
249600 Off ch=3 n=a#5 v=64
249600 On ch=3 n=g5 v=42
250078 Par ch=3 c=64 v=37
250080 Off ch=3 n=g5 v=64
250080 On ch=3 n=a#4 v=42
250558 Off ch=3 n=d#5 v=64
250558 Off ch=3 n=a#4 v=64
250560 On ch=3 n=d5 v=59
250560 Par ch=3 c=64 v=127
251040 On ch=3 n=g5 v=56
251520 Off ch=3 n=g5 v=64
251520 On ch=3 n=b5 v=52
252000 Off ch=3 n=b5 v=64
252000 On ch=3 n=g5 v=53
252480 Off ch=3 n=g5 v=64
252480 On ch=3 n=b4 v=46
252950 Off ch=3 n=b4 v=64
252958 Off ch=3 n=d5 v=64
252960 On ch=3 n=e5 v=53
253440 On ch=3 n=g5 v=58
253920 Off ch=3 n=g5 v=64
253920 On ch=3 n=b5 v=56
254400 Off ch=3 n=b5 v=64
254400 On ch=3 n=g5 v=52
254879 Par ch=3 c=64 v=35
254880 Off ch=3 n=g5 v=64
254880 On ch=3 n=b4 v=49
255358 Off ch=3 n=e5 v=64
255358 Off ch=3 n=b4 v=64
255360 On ch=3 n=d5 v=53
255360 Par ch=3 c=64 v=127
255840 On ch=3 n=g5 v=54
256320 Off ch=3 n=g5 v=64
256320 On ch=3 n=b5 v=56
256800 Off ch=3 n=b5 v=64
256800 On ch=3 n=g5 v=56
257280 Off ch=3 n=g5 v=64
257280 On ch=3 n=b4 v=53
257758 Off ch=3 n=d5 v=64
257758 Off ch=3 n=b4 v=64
257760 On ch=3 n=e5 v=56
258240 On ch=3 n=g5 v=59
258720 Off ch=3 n=g5 v=64
258720 On ch=3 n=b5 v=61
259200 Off ch=3 n=b5 v=64
259200 On ch=3 n=g5 v=58
259679 Par ch=3 c=64 v=65
259680 Off ch=3 n=g5 v=64
259680 On ch=3 n=b4 v=53
260158 Off ch=3 n=e5 v=64
260158 Off ch=3 n=b4 v=64
260160 On ch=3 n=d5 v=51
260160 Par ch=3 c=64 v=127
260640 On ch=3 n=g5 v=52
261120 Off ch=3 n=g5 v=64
261120 On ch=3 n=b5 v=52
261600 Off ch=3 n=b5 v=64
261600 On ch=3 n=g5 v=52
262080 Off ch=3 n=g5 v=64
262080 On ch=3 n=b4 v=53
262550 Off ch=3 n=b4 v=64
262558 Off ch=3 n=d5 v=64
262560 On ch=3 n=e5 v=54
263040 On ch=3 n=g5 v=56
263520 Off ch=3 n=g5 v=64
263520 On ch=3 n=b5 v=54
264000 Off ch=3 n=b5 v=64
264000 On ch=3 n=g5 v=53
264479 Par ch=3 c=64 v=67
264480 Off ch=3 n=g5 v=64
264480 On ch=3 n=b4 v=51
264958 Off ch=3 n=e5 v=64
264958 Off ch=3 n=b4 v=64
264960 On ch=3 n=d5 v=51
264960 Par ch=3 c=64 v=127
265440 On ch=3 n=g5 v=51
265920 Off ch=3 n=g5 v=64
265920 On ch=3 n=b5 v=52
266400 Off ch=3 n=b5 v=64
266400 On ch=3 n=g5 v=51
266880 Off ch=3 n=g5 v=64
266880 On ch=3 n=b4 v=49
267358 Off ch=3 n=d5 v=64
267358 Off ch=3 n=b4 v=64
267360 On ch=3 n=e5 v=49
267840 On ch=3 n=g5 v=51
268320 Off ch=3 n=g5 v=64
268320 On ch=3 n=b5 v=51
268800 Off ch=3 n=b5 v=64
268800 On ch=3 n=g5 v=51
269278 Par ch=3 c=64 v=37
269280 Off ch=3 n=g5 v=64
269280 On ch=3 n=b4 v=49
269758 Off ch=3 n=e5 v=64
269758 Off ch=3 n=b4 v=64
269760 On ch=3 n=d5 v=46
269760 Par ch=3 c=64 v=127
270240 On ch=3 n=g5 v=46
270720 Off ch=3 n=g5 v=64
270720 On ch=3 n=b5 v=46
271200 Off ch=3 n=b5 v=64
271200 On ch=3 n=g5 v=49
271680 Off ch=3 n=g5 v=64
271680 On ch=3 n=b4 v=46
272150 Off ch=3 n=b4 v=64
272158 Off ch=3 n=d5 v=64
272160 On ch=3 n=e5 v=51
272640 On ch=3 n=g5 v=52
273120 Off ch=3 n=g5 v=64
273120 On ch=3 n=b5 v=53
273600 Off ch=3 n=b5 v=64
273600 On ch=3 n=g5 v=52
274079 Par ch=3 c=64 v=35
274080 Off ch=3 n=g5 v=64
274080 On ch=3 n=b4 v=49
274558 Off ch=3 n=e5 v=64
274558 Off ch=3 n=b4 v=64
274560 On ch=3 n=d5 v=51
274560 Par ch=3 c=64 v=127
275040 On ch=3 n=g5 v=51
275520 Off ch=3 n=g5 v=64
275520 On ch=3 n=b5 v=52
276000 Off ch=3 n=b5 v=64
276000 On ch=3 n=g5 v=51
276480 Off ch=3 n=g5 v=64
276480 On ch=3 n=b4 v=49
276958 Off ch=3 n=d5 v=64
276958 Off ch=3 n=b4 v=64
276960 On ch=3 n=e5 v=49
277440 On ch=3 n=g5 v=51
277920 Off ch=3 n=g5 v=64
277920 On ch=3 n=b5 v=51
278400 Off ch=3 n=b5 v=64
278400 On ch=3 n=g5 v=51
278878 Par ch=3 c=64 v=37
278880 Off ch=3 n=g5 v=64
278880 On ch=3 n=b4 v=49
279358 Off ch=3 n=e5 v=64
279358 Off ch=3 n=b4 v=64
279360 On ch=3 n=d5 v=46
279360 Par ch=3 c=64 v=127
279840 On ch=3 n=g5 v=46
280320 Off ch=3 n=g5 v=64
280320 On ch=3 n=b5 v=46
280800 Off ch=3 n=b5 v=64
280800 On ch=3 n=g5 v=49
281280 Off ch=3 n=g5 v=64
281280 On ch=3 n=b4 v=46
281750 Off ch=3 n=b4 v=64
281758 Off ch=3 n=d5 v=64
281760 On ch=3 n=e5 v=51
282240 On ch=3 n=g5 v=52
282720 Off ch=3 n=g5 v=64
282720 On ch=3 n=b5 v=53
283200 Off ch=3 n=b5 v=64
283200 On ch=3 n=g5 v=52
283679 Par ch=3 c=64 v=35
283680 Off ch=3 n=g5 v=64
283680 On ch=3 n=b4 v=49
284158 Off ch=3 n=e5 v=64
284158 Off ch=3 n=b4 v=64
284160 On ch=3 n=d5 v=49
284160 Par ch=3 c=64 v=127
284640 On ch=3 n=g5 v=49
285120 Off ch=3 n=g5 v=64
285120 On ch=3 n=b5 v=51
285600 Off ch=3 n=b5 v=64
285600 On ch=3 n=g5 v=49
286080 Off ch=3 n=g5 v=64
286080 On ch=3 n=b4 v=45
286558 Off ch=3 n=d5 v=64
286558 Off ch=3 n=b4 v=64
286560 On ch=3 n=e5 v=45
287040 On ch=3 n=g5 v=46
287520 Off ch=3 n=g5 v=64
287520 On ch=3 n=b5 v=46
288000 Off ch=3 n=b5 v=64
288000 On ch=3 n=g5 v=45
288479 Par ch=3 c=64 v=65
288480 Off ch=3 n=g5 v=64
288480 On ch=3 n=b4 v=45
288958 Off ch=3 n=e5 v=64
288958 Off ch=3 n=b4 v=64
288960 On ch=3 n=d5 v=45
288960 Par ch=3 c=64 v=127
289440 On ch=3 n=g5 v=49
289920 Off ch=3 n=g5 v=64
289920 On ch=3 n=b5 v=49
290400 Off ch=3 n=b5 v=64
290400 On ch=3 n=g5 v=49
290880 Off ch=3 n=g5 v=64
290880 On ch=3 n=b4 v=45
291350 Off ch=3 n=b4 v=64
291358 Off ch=3 n=d5 v=64
291360 On ch=3 n=e5 v=44
291840 On ch=3 n=g5 v=46
292320 Off ch=3 n=g5 v=64
292320 On ch=3 n=b5 v=46
292800 Off ch=3 n=b5 v=64
292800 On ch=3 n=g5 v=45
293279 Par ch=3 c=64 v=67
293280 Off ch=3 n=g5 v=64
293280 On ch=3 n=b4 v=44
293758 Off ch=3 n=e5 v=64
293758 Off ch=3 n=b4 v=64
293760 On ch=3 n=d5 v=42
293760 Par ch=3 c=64 v=127
294240 On ch=3 n=g5 v=44
294720 Off ch=3 n=g5 v=64
294720 On ch=3 n=b5 v=45
295200 Off ch=3 n=b5 v=64
295200 On ch=3 n=g5 v=42
295680 Off ch=3 n=g5 v=64
295680 On ch=3 n=b4 v=41
296158 Off ch=3 n=d5 v=64
296158 Off ch=3 n=b4 v=64
296160 On ch=3 n=e5 v=41
296640 On ch=3 n=g5 v=41
297120 Off ch=3 n=g5 v=64
297120 On ch=3 n=a5 v=40
297600 Off ch=3 n=a5 v=64
297600 On ch=3 n=g5 v=41
298078 Par ch=3 c=64 v=37
298080 Off ch=3 n=g5 v=64
298080 On ch=3 n=b4 v=41
298558 Off ch=3 n=e5 v=64
298558 Off ch=3 n=b4 v=64
298560 On ch=3 n=d5 v=46
298560 Par ch=3 c=64 v=127
299040 On ch=3 n=f#5 v=46
299520 Off ch=3 n=f#5 v=64
299520 On ch=3 n=g5 v=46
300000 Off ch=3 n=g5 v=64
300000 On ch=3 n=f#5 v=49
300480 Off ch=3 n=f#5 v=64
300480 On ch=3 n=b4 v=46
300950 Off ch=3 n=b4 v=64
300958 Off ch=3 n=d5 v=64
300960 On ch=3 n=e5 v=51
301440 On ch=3 n=g5 v=42
301920 Off ch=3 n=g5 v=64
301920 On ch=3 n=a5 v=42
302400 Off ch=3 n=a5 v=64
302400 On ch=3 n=g5 v=42
302879 Par ch=3 c=64 v=35
302880 Off ch=3 n=g5 v=64
302880 On ch=3 n=b4 v=42
303358 Off ch=3 n=e5 v=64
303358 Off ch=3 n=b4 v=64
303360 On ch=3 n=d5 v=51
303360 Par ch=3 c=64 v=127
303840 On ch=3 n=f#5 v=51
304320 Off ch=3 n=f#5 v=64
304320 On ch=3 n=g5 v=51
304800 Off ch=3 n=g5 v=64
304800 On ch=3 n=f#5 v=51
305280 Off ch=3 n=f#5 v=64
305280 On ch=3 n=b4 v=51
305758 Off ch=3 n=d5 v=64
305758 Off ch=3 n=b4 v=64
305760 On ch=3 n=e5 v=51
306240 On ch=3 n=g5 v=42
306720 Off ch=3 n=g5 v=64
306720 On ch=3 n=a5 v=42
307200 Off ch=3 n=a5 v=64
307200 On ch=3 n=g5 v=42
307678 Par ch=3 c=64 v=37
307680 Off ch=3 n=g5 v=64
307680 On ch=3 n=b4 v=42
308158 Off ch=3 n=e5 v=64
308158 Off ch=3 n=b4 v=64
308160 Par ch=3 c=64 v=127
308160 On ch=3 n=d5 v=56
308640 On ch=3 n=f#5 v=56
309120 Off ch=3 n=f#5 v=64
309120 On ch=3 n=c6 v=56
309600 Off ch=3 n=c6 v=64
309600 On ch=3 n=f#5 v=56
310080 Off ch=3 n=f#5 v=64
310080 On ch=3 n=d5 v=56
310550 Off ch=3 n=d5 v=64
310558 Off ch=3 n=d5 v=64
310560 On ch=3 n=c5 v=56
310959 On ch=3 n=e5 v=56
311339 Off ch=3 n=e5 v=64
311358 On ch=3 n=c6 v=56
311738 Off ch=3 n=c6 v=64
311760 On ch=3 n=e5 v=56
312140 Off ch=3 n=e5 v=64
312168 On ch=3 n=d5 v=56
312479 Par ch=3 c=64 v=35
312537 On ch=3 n=b4 v=56
312548 Off ch=3 n=d5 v=64
312917 Off ch=3 n=b4 v=64
312958 Off ch=3 n=c5 v=64
312960 Par ch=3 c=64 v=127
312960 On ch=3 n=b4 v=50
313440 Off ch=3 n=b4 v=64
313440 On ch=3 n=d5 v=45
313920 Off ch=3 n=d5 v=64
313920 On ch=3 n=c6 v=45
314400 Off ch=3 n=c6 v=64
314400 On ch=3 n=d5 v=45
314880 Off ch=3 n=d5 v=64
314880 On ch=3 n=g4 v=45
315350 Off ch=3 n=g4 v=64
315360 On ch=3 n=d5 v=52
315801 On ch=3 n=c6 v=51
315840 Off ch=3 n=d5 v=64
316281 Off ch=3 n=c6 v=64
316320 On ch=3 n=f#5 v=51
316800 Off ch=3 n=f#5 v=64
316800 On ch=3 n=d5 v=45
317278 Par ch=3 c=64 v=37
317280 Off ch=3 n=d5 v=64
317280 On ch=3 n=g4 v=40
317750 Off ch=3 n=g4 v=64
317760 On ch=3 n=d5 v=53
317760 Par ch=3 c=64 v=127
318240 Off ch=3 n=d5 v=64
318240 On ch=3 n=g5 v=46
318720 Off ch=3 n=g5 v=64
318720 On ch=3 n=e5 v=46
319200 Off ch=3 n=e5 v=64
319200 On ch=3 n=d5 v=44
319680 Off ch=3 n=d5 v=64
319680 On ch=3 n=g4 v=40
320150 Off ch=3 n=g4 v=64
320160 On ch=3 n=d#5 v=58
320640 Off ch=3 n=d#5 v=64
320640 On ch=3 n=c6 v=52
321120 Off ch=3 n=c6 v=64
321120 On ch=3 n=f#5 v=53
321600 Off ch=3 n=f#5 v=64
321600 On ch=3 n=d5 v=45
322079 Par ch=3 c=64 v=35
322080 Off ch=3 n=d5 v=64
322080 On ch=3 n=g4 v=54
322550 Off ch=3 n=g4 v=64
322560 On ch=3 n=d5 v=58
322560 Par ch=3 c=64 v=127
323040 Off ch=3 n=d5 v=64
323040 On ch=3 n=b5 v=51
323520 Off ch=3 n=b5 v=64
323520 On ch=3 n=g5 v=52
324000 Off ch=3 n=g5 v=64
324000 On ch=3 n=d5 v=45
324480 Off ch=3 n=d5 v=64
324480 On ch=3 n=g4 v=40
324950 Off ch=3 n=g4 v=64
324960 On ch=3 n=e5 v=56
325440 Off ch=3 n=e5 v=64
325440 On ch=3 n=c6 v=51
325920 Off ch=3 n=c6 v=64
325920 On ch=3 n=f#5 v=51
326400 Off ch=3 n=f#5 v=64
326400 On ch=3 n=d5 v=45
326878 Par ch=3 c=64 v=37
326880 Off ch=3 n=d5 v=64
326880 On ch=3 n=g4 v=40
327350 Off ch=3 n=g4 v=64
327360 On ch=3 n=d5 v=56
327360 Par ch=3 c=64 v=127
327840 Off ch=3 n=d5 v=64
327840 On ch=3 n=g5 v=46
328320 Off ch=3 n=g5 v=64
328320 On ch=3 n=e5 v=46
328800 Off ch=3 n=e5 v=64
328800 On ch=3 n=d5 v=44
329280 Off ch=3 n=d5 v=64
329280 On ch=3 n=g4 v=40
329750 Off ch=3 n=g4 v=64
329760 On ch=3 n=d#5 v=56
330240 Off ch=3 n=d#5 v=64
330240 On ch=3 n=c6 v=52
330720 Off ch=3 n=c6 v=64
330720 On ch=3 n=f#5 v=53
331200 Off ch=3 n=f#5 v=64
331200 On ch=3 n=d5 v=45
331679 Par ch=3 c=64 v=35
331680 Off ch=3 n=d5 v=64
331680 On ch=3 n=g4 v=40
332150 Off ch=3 n=g4 v=64
332160 On ch=3 n=d5 v=56
332160 Par ch=3 c=64 v=127
332640 Off ch=3 n=d5 v=64
332640 On ch=3 n=b5 v=46
333120 Off ch=3 n=b5 v=64
333120 On ch=3 n=g5 v=61
333600 Off ch=3 n=g5 v=64
333600 On ch=3 n=d5 v=58
334080 Off ch=3 n=d5 v=64
334080 On ch=3 n=g4 v=53
334550 Off ch=3 n=g4 v=64
334560 On ch=3 n=e5 v=51
335040 Off ch=3 n=e5 v=64
335040 On ch=3 n=c6 v=54
335520 Off ch=3 n=c6 v=64
335520 On ch=3 n=f#5 v=58
336000 Off ch=3 n=f#5 v=64
336000 On ch=3 n=d5 v=54
336479 Par ch=3 c=64 v=35
336480 Off ch=3 n=d5 v=64
336480 On ch=3 n=g4 v=52
336950 Off ch=3 n=g4 v=64
336960 On ch=3 n=d5 v=53
336960 Par ch=3 c=64 v=127
337440 Off ch=3 n=d5 v=64
337440 On ch=3 n=b5 v=71
337920 Off ch=3 n=b5 v=64
337920 On ch=3 n=g5 v=80
338400 Off ch=3 n=g5 v=64
338400 On ch=3 n=d5 v=61
338880 Off ch=3 n=d5 v=64
338880 On ch=3 n=g4 v=59
339350 Off ch=3 n=g4 v=64
339360 On ch=3 n=e5 v=63
339840 Off ch=3 n=e5 v=64
339840 On ch=3 n=c6 v=53
340320 Off ch=3 n=c6 v=64
340320 On ch=3 n=f#5 v=54
340800 Off ch=3 n=f#5 v=64
340800 On ch=3 n=d5 v=61
341279 Par ch=3 c=64 v=67
341280 Off ch=3 n=d5 v=64
341280 On ch=3 n=g4 v=45
341750 Off ch=3 n=g4 v=64
341760 On ch=3 n=d5 v=54
341760 Par ch=3 c=64 v=127
342240 Off ch=3 n=d5 v=64
342240 On ch=3 n=b5 v=66
342720 Off ch=3 n=b5 v=64
342720 On ch=3 n=g5 v=59
343200 Off ch=3 n=g5 v=64
343200 On ch=3 n=d5 v=52
343680 Off ch=3 n=d5 v=64
343680 On ch=3 n=g4 v=45
344150 Off ch=3 n=g4 v=64
344160 On ch=3 n=e5 v=56
344640 Off ch=3 n=e5 v=64
344640 On ch=3 n=c6 v=51
345120 Off ch=3 n=c6 v=64
345120 On ch=3 n=f#5 v=51
345600 Off ch=3 n=f#5 v=64
345600 On ch=3 n=d5 v=45
346078 Par ch=3 c=64 v=37
346080 Off ch=3 n=d5 v=64
346080 On ch=3 n=g4 v=44
346550 Off ch=3 n=g4 v=64
346560 On ch=3 n=d5 v=54
346560 Par ch=3 c=64 v=127
347040 Off ch=3 n=d5 v=64
347040 On ch=3 n=b5 v=46
347520 Off ch=3 n=b5 v=64
347520 On ch=3 n=e5 v=46
348000 Off ch=3 n=e5 v=64
348000 On ch=3 n=d5 v=44
348480 Off ch=3 n=d5 v=64
348480 On ch=3 n=g4 v=42
348950 Off ch=3 n=g4 v=64
348960 On ch=3 n=b4 v=58
349440 Off ch=3 n=b4 v=64
349440 On ch=3 n=d6 v=52
349920 Off ch=3 n=d6 v=64
349920 On ch=3 n=f#5 v=53
350400 Off ch=3 n=f#5 v=64
350400 On ch=3 n=e5 v=45
350879 Par ch=3 c=64 v=35
350880 Off ch=3 n=e5 v=64
350880 On ch=3 n=b4 v=40
351350 Off ch=3 n=b4 v=64
351360 On ch=3 n=d5 v=56
351360 Par ch=3 c=64 v=127
351840 Off ch=3 n=d5 v=64
351840 On ch=3 n=g6 v=51
352320 Off ch=3 n=g6 v=64
352320 On ch=3 n=c6 v=52
352800 Off ch=3 n=c6 v=64
352800 On ch=3 n=b5 v=45
353280 Off ch=3 n=b5 v=64
353280 On ch=3 n=d5 v=44
353750 Off ch=3 n=d5 v=64
353760 On ch=3 n=g5 v=58
354240 Off ch=3 n=g5 v=64
354240 On ch=3 n=b6 v=51
354720 Off ch=3 n=b6 v=64
354720 On ch=3 n=f#6 v=51
355200 Off ch=3 n=f#6 v=64
355200 On ch=3 n=e6 v=44
355560 Off ch=3 n=e6 v=64
355678 Par ch=3 c=64 v=37
355680 On ch=3 n=b5 v=45
356293 On ch=3 n=d6 v=45
356559 On ch=3 n=g6 v=45
356720 On ch=3 n=d7 v=45
358080 Off ch=3 n=d7 v=64
358080 Off ch=3 n=g6 v=64
358080 Off ch=3 n=d6 v=64
358080 Off ch=3 n=b5 v=64
359520 On ch=3 n=g3 v=41
359520 On ch=3 n=d4 v=41
362880 Off ch=3 n=g3 v=64
362880 On ch=3 n=d3 v=35
364560 Off ch=3 n=d3 v=64
364560 On ch=3 n=g3 v=30
369840 Off ch=3 n=d4 v=64
369840 Off ch=3 n=g3 v=64
369840 Meta TrkEnd
TrkEnd
MTrk
0 Meta TrkName "Acoustic Grand Piano "
0 Meta 0x21 00
0 Meta 0x20 03
0 Par ch=4 c=7 v=127
0 Par ch=4 c=10 v=64
0 PrCh ch=4 p=0
37894 Par ch=4 c=10 v=55
37894 Par ch=4 c=7 v=126
37920 On ch=4 n=g3 v=69
38062 On ch=4 n=d4 v=76
38179 On ch=4 n=b4 v=80
38254 Par ch=4 c=7 v=125
38494 Par ch=4 c=7 v=124
38854 Par ch=4 c=7 v=123
39334 Par ch=4 c=7 v=122
39694 Par ch=4 c=7 v=121
39934 Par ch=4 c=7 v=120
40174 Par ch=4 c=7 v=119
40534 Par ch=4 c=7 v=118
41134 Par ch=4 c=7 v=117
41374 Par ch=4 c=7 v=116
41614 Par ch=4 c=7 v=115
41915 Par ch=4 c=7 v=114
42035 Par ch=4 c=7 v=113
42155 Par ch=4 c=7 v=112
42275 Par ch=4 c=7 v=110
42395 Par ch=4 c=7 v=108
42515 Par ch=4 c=7 v=107
42635 Par ch=4 c=7 v=105
42755 Par ch=4 c=7 v=103
42875 Par ch=4 c=7 v=102
42995 Par ch=4 c=7 v=100
43115 Par ch=4 c=7 v=98
43235 Par ch=4 c=7 v=97
43355 Par ch=4 c=7 v=95
43475 Par ch=4 c=7 v=93
43595 Par ch=4 c=7 v=92
43667 Par ch=4 c=7 v=91
43787 Par ch=4 c=7 v=88
43907 Par ch=4 c=7 v=86
44027 Par ch=4 c=7 v=83
44147 Par ch=4 c=7 v=80
44267 Par ch=4 c=7 v=77
44387 Par ch=4 c=7 v=74
44507 Par ch=4 c=7 v=72
44627 Par ch=4 c=7 v=69
44747 Par ch=4 c=7 v=66
44867 Par ch=4 c=7 v=63
44987 Par ch=4 c=7 v=60
45107 Par ch=4 c=7 v=57
45227 Par ch=4 c=7 v=54
45347 Par ch=4 c=7 v=51
45467 Par ch=4 c=7 v=49
45587 Par ch=4 c=7 v=46
45600 Off ch=4 n=b4 v=64
45600 Off ch=4 n=d4 v=64
45600 Off ch=4 n=g3 v=64
72480 Par ch=4 c=64 v=127
72480 On ch=4 n=g3 v=114
72505 Par ch=4 c=7 v=64
72720 On ch=4 n=d4 v=117
72745 Par ch=4 c=7 v=63
72865 Par ch=4 c=7 v=62
72960 Par ch=4 c=64 v=0
73105 Par ch=4 c=7 v=61
73225 Par ch=4 c=7 v=60
73345 Par ch=4 c=7 v=59
73585 Par ch=4 c=7 v=58
73705 Par ch=4 c=7 v=57
73945 Par ch=4 c=7 v=56
74065 Par ch=4 c=7 v=55
74185 Par ch=4 c=7 v=54
74425 Par ch=4 c=7 v=53
74545 Par ch=4 c=7 v=52
74665 Par ch=4 c=7 v=51
75029 Par ch=4 c=7 v=50
75149 Par ch=4 c=7 v=49
75269 Par ch=4 c=7 v=48
75509 Par ch=4 c=7 v=47
75629 Par ch=4 c=7 v=46
75749 Par ch=4 c=7 v=45
75989 Par ch=4 c=7 v=44
76109 Par ch=4 c=7 v=43
76229 Par ch=4 c=7 v=42
76469 Par ch=4 c=7 v=41
76589 Par ch=4 c=7 v=40
76709 Par ch=4 c=7 v=39
76949 Par ch=4 c=7 v=38
77069 Par ch=4 c=7 v=37
77189 Par ch=4 c=7 v=36
77429 Par ch=4 c=7 v=35
77549 Par ch=4 c=7 v=34
77669 Par ch=4 c=7 v=33
77909 Par ch=4 c=7 v=32
78029 Par ch=4 c=7 v=31
78149 Par ch=4 c=7 v=30
78389 Par ch=4 c=7 v=29
78619 Par ch=4 c=7 v=28
78739 Par ch=4 c=7 v=26
78859 Par ch=4 c=7 v=24
78985 Par ch=4 c=7 v=21
79105 Par ch=4 c=7 v=20
79225 Par ch=4 c=7 v=19
79345 Par ch=4 c=7 v=18
79465 Par ch=4 c=7 v=17
79705 Par ch=4 c=7 v=16
79825 Par ch=4 c=7 v=15
79945 Par ch=4 c=7 v=14
80065 Par ch=4 c=7 v=13
80160 Off ch=4 n=d4 v=64
80160 Off ch=4 n=g3 v=64
110996 Par ch=4 c=7 v=73
111000 On ch=4 n=e3 v=92
111120 On ch=4 n=b3 v=97
111236 Par ch=4 c=7 v=72
111240 On ch=4 n=g4 v=99
111476 Par ch=4 c=7 v=71
111596 Par ch=4 c=7 v=69
111836 Par ch=4 c=7 v=68
111956 Par ch=4 c=7 v=67
112196 Par ch=4 c=7 v=66
112316 Par ch=4 c=7 v=65
112556 Par ch=4 c=7 v=63
112676 Par ch=4 c=7 v=62
112916 Par ch=4 c=7 v=61
113036 Par ch=4 c=7 v=60
113276 Par ch=4 c=7 v=59
113396 Par ch=4 c=7 v=57
113636 Par ch=4 c=7 v=56
113756 Par ch=4 c=7 v=55
113902 Par ch=4 c=7 v=56
114022 Par ch=4 c=7 v=55
114142 Par ch=4 c=7 v=54
114262 Par ch=4 c=7 v=53
114382 Par ch=4 c=7 v=50
114502 Par ch=4 c=7 v=49
114622 Par ch=4 c=7 v=48
114742 Par ch=4 c=7 v=46
114862 Par ch=4 c=7 v=44
114982 Par ch=4 c=7 v=43
115102 Par ch=4 c=7 v=42
115222 Par ch=4 c=7 v=39
115342 Par ch=4 c=7 v=38
115462 Par ch=4 c=7 v=37
115582 Par ch=4 c=7 v=36
115702 Par ch=4 c=7 v=33
115822 Par ch=4 c=7 v=32
115942 Par ch=4 c=7 v=31
116062 Par ch=4 c=7 v=28
116147 Par ch=4 c=7 v=27
116160 Off ch=4 n=g4 v=64
116160 Off ch=4 n=b3 v=64
116160 Off ch=4 n=e3 v=64
116160 Meta TrkEnd
TrkEnd
