MFile 1 2 256
MTrk
0 TimeSig 4/4 24 8
0 KeySig 0 major
0 TimeSig 6/4 24 8
0 Tempo 428571
7936 TimeSig 4/4 24 8
9984 TimeSig 6/4 24 8
22272 TimeSig 4/4 24 8
32000 Tempo 428571
32038 Tempo 434782
32076 Tempo 441176
32114 Tempo 447761
32152 Tempo 454545
32190 Tempo 461538
32228 Tempo 468750
32266 Tempo 476190
32304 Tempo 483870
32342 Tempo 491803
32380 Tempo 500000
32512 TimeSig 6/4 24 8
32512 Tempo 428571
40192 TimeSig 4/4 24 8
43776 Tempo 428571
43814 Tempo 434782
43852 Tempo 441176
43890 Tempo 447761
43928 Tempo 454545
43966 Tempo 461538
44004 Tempo 468750
44042 Tempo 476190
44080 Tempo 483870
44118 Tempo 491803
44156 Tempo 500000
44288 TimeSig 6/4 24 8
44288 Tempo 428571
46336 Tempo 428571
46374 Tempo 434782
46412 Tempo 441176
46450 Tempo 447761
46488 Tempo 454545
46526 Tempo 461538
46564 Tempo 468750
46602 Tempo 476190
46640 Tempo 483870
46678 Tempo 491803
46716 Tempo 500000
47360 TimeSig 4/4 24 8
47360 Tempo 444444
55552 Tempo 428571
57600 Tempo 444444
58624 Tempo 428571
58625 Meta TrkEnd
TrkEnd
MTrk
0 Meta TrkName "Piano"
0 Par ch=1 c=91 v=60
0 Par ch=1 c=10 v=76
0 Par ch=2 c=91 v=60
0 Par ch=2 c=10 v=50
0 Par ch=1 c=0 v=0
0 Par ch=1 c=32 v=0
0 PrCh ch=1 p=0
0 On ch=1 n=e6 v=104
0 Par ch=2 c=0 v=0
0 Par ch=2 c=32 v=0
0 PrCh ch=2 p=0
0 On ch=2 n=e4 v=103
0 On ch=2 n=a4 v=103
0 On ch=2 n=e5 v=103
58 On ch=1 n=e6 v=0
64 On ch=1 n=d6 v=101
116 On ch=2 n=e4 v=0
116 On ch=2 n=a4 v=0
116 On ch=2 n=e5 v=0
122 On ch=1 n=d6 v=0
128 On ch=1 n=e6 v=116
128 On ch=2 n=e4 v=110
128 On ch=2 n=a4 v=110
128 On ch=2 n=e5 v=110
186 On ch=1 n=e6 v=0
192 On ch=1 n=c6 v=99
244 On ch=2 n=e4 v=0
244 On ch=2 n=a4 v=0
244 On ch=2 n=e5 v=0
250 On ch=1 n=c6 v=0
256 On ch=1 n=e6 v=124
256 On ch=2 n=e4 v=115
256 On ch=2 n=a4 v=116
256 On ch=2 n=e5 v=114
314 On ch=1 n=e6 v=0
320 On ch=1 n=b5 v=95
378 On ch=1 n=b5 v=0
384 On ch=1 n=c6 v=116
442 On ch=1 n=c6 v=0
448 On ch=1 n=g5 v=95
487 On ch=2 n=e4 v=0
487 On ch=2 n=a4 v=0
487 On ch=2 n=e5 v=0
506 On ch=1 n=g5 v=0
512 On ch=1 n=a5 v=117
512 On ch=2 n=e4 v=95
570 On ch=1 n=a5 v=0
576 On ch=1 n=d5 v=91
589 On ch=2 n=e4 v=0
597 On ch=2 n=a3 v=97
634 On ch=1 n=d5 v=0
640 On ch=1 n=e5 v=113
674 On ch=2 n=a3 v=0
682 On ch=2 n=e3 v=103
698 On ch=1 n=e5 v=0
704 On ch=1 n=c5 v=100
760 On ch=2 n=e3 v=0
762 On ch=1 n=c5 v=0
768 On ch=1 n=a4 v=114
768 On ch=2 n=a2 v=126
768 On ch=2 n=a3 v=126
1486 On ch=1 n=a4 v=0
1486 On ch=2 n=a2 v=0
1486 On ch=2 n=a3 v=0
1536 On ch=1 n=e6 v=127
1536 On ch=2 n=e4 v=127
1536 On ch=2 n=a4 v=127
1536 On ch=2 n=e5 v=127
1594 On ch=1 n=e6 v=0
1600 On ch=1 n=d6 v=110
1652 On ch=2 n=e4 v=0
1652 On ch=2 n=a4 v=0
1652 On ch=2 n=e5 v=0
1658 On ch=1 n=d6 v=0
1664 On ch=1 n=e6 v=117
1664 On ch=2 n=e4 v=115
1664 On ch=2 n=a4 v=114
1664 On ch=2 n=e5 v=117
1722 On ch=1 n=e6 v=0
1728 On ch=1 n=c6 v=99
1780 On ch=2 n=e4 v=0
1780 On ch=2 n=a4 v=0
1780 On ch=2 n=e5 v=0
1786 On ch=1 n=c6 v=0
1792 On ch=1 n=e6 v=124
1792 On ch=2 n=e4 v=114
1792 On ch=2 n=a4 v=116
1792 On ch=2 n=e5 v=112
1850 On ch=1 n=e6 v=0
1856 On ch=1 n=b5 v=97
1914 On ch=1 n=b5 v=0
1920 On ch=1 n=c6 v=115
1978 On ch=1 n=c6 v=0
1984 On ch=1 n=g5 v=97
2023 On ch=2 n=e4 v=0
2023 On ch=2 n=a4 v=0
2023 On ch=2 n=e5 v=0
2042 On ch=1 n=g5 v=0
2048 On ch=1 n=a5 v=119
2048 On ch=2 n=e4 v=96
2106 On ch=1 n=a5 v=0
2112 On ch=1 n=d5 v=91
2125 On ch=2 n=e4 v=0
2133 On ch=2 n=a3 v=96
2170 On ch=1 n=d5 v=0
2176 On ch=1 n=e5 v=113
2210 On ch=2 n=a3 v=0
2218 On ch=2 n=e3 v=104
2234 On ch=1 n=e5 v=0
2240 On ch=1 n=c5 v=96
2296 On ch=2 n=e3 v=0
2298 On ch=1 n=c5 v=0
2304 On ch=1 n=a4 v=98
2304 On ch=2 n=a2 v=127
2304 On ch=2 n=a3 v=125
2535 On ch=1 n=a4 v=0
2535 On ch=2 n=a2 v=0
2535 On ch=2 n=a3 v=0
2560 On ch=1 n=c5 v=117
2560 On ch=2 n=c3 v=121
2560 On ch=2 n=c4 v=121
2791 On ch=1 n=c5 v=0
2791 On ch=2 n=c3 v=0
2791 On ch=2 n=c4 v=0
2816 On ch=1 n=a4 v=102
2816 On ch=2 n=a2 v=119
2816 On ch=2 n=a3 v=118
4270 Tempo 3750000
4302 On ch=1 n=a4 v=0
4302 Tempo 428571
4302 On ch=2 n=a2 v=0
4302 On ch=2 n=a3 v=0
4608 On ch=1 n=e6 v=67
4666 On ch=1 n=e6 v=0
4672 On ch=1 n=d6 v=43
4730 On ch=1 n=d6 v=0
4736 On ch=1 n=e6 v=77
4794 On ch=1 n=e6 v=0
4800 On ch=1 n=c6 v=42
4858 On ch=1 n=c6 v=0
4864 On ch=1 n=e6 v=55
4864 On ch=1 n=e6 v=46
4922 On ch=1 n=e6 v=0
4928 On ch=1 n=b5 v=40
4980 On ch=1 n=e6 v=0
4986 On ch=1 n=b5 v=0
4992 On ch=1 n=c6 v=51
5050 On ch=1 n=c6 v=0
5056 On ch=1 n=a5 v=41
5114 On ch=1 n=a5 v=0
5120 On ch=1 n=c6 v=53
5120 On ch=2 n=e6 v=82
5178 On ch=1 n=c6 v=0
5183 On ch=2 n=e6 v=0
5184 On ch=1 n=g5 v=44
5242 On ch=1 n=g5 v=0
5248 On ch=1 n=a5 v=49
5248 On ch=2 n=e6 v=87
5306 On ch=1 n=a5 v=0
5311 On ch=2 n=e6 v=0
5312 On ch=1 n=f5 v=42
5370 On ch=1 n=f5 v=0
5376 On ch=1 n=a5 v=54
5376 On ch=2 n=c6 v=78
5434 On ch=1 n=a5 v=0
5440 On ch=1 n=e5 v=41
5498 On ch=1 n=e5 v=0
5502 On ch=2 n=c6 v=0
5504 On ch=1 n=f5 v=51
5562 On ch=1 n=f5 v=0
5568 On ch=1 n=d5 v=45
5626 On ch=1 n=d5 v=0
5632 On ch=2 n=c5 v=63
5695 On ch=2 n=c5 v=0
5696 On ch=1 n=e5 v=43
5754 On ch=1 n=e5 v=0
5760 On ch=1 n=a5 v=52
5760 On ch=2 n=c5 v=82
5818 On ch=1 n=a5 v=0
5823 On ch=2 n=c5 v=0
5824 On ch=1 n=b5 v=51
5882 On ch=1 n=b5 v=0
5888 On ch=1 n=c6 v=53
5888 On ch=2 n=a4 v=87
5946 On ch=1 n=c6 v=0
5952 On ch=1 n=a5 v=44
6010 On ch=1 n=a5 v=0
6016 On ch=1 n=c6 v=51
6074 On ch=1 n=c6 v=0
6080 On ch=1 n=a6 v=59
6138 On ch=1 n=a6 v=0
6144 On ch=1 n=e6 v=69
6202 On ch=1 n=e6 v=0
6208 On ch=1 n=d6 v=46
6266 On ch=1 n=d6 v=0
6272 On ch=1 n=e6 v=77
6330 On ch=1 n=e6 v=0
6336 On ch=1 n=c6 v=43
6394 On ch=1 n=c6 v=0
6400 On ch=2 n=a4 v=0
6400 On ch=1 n=e6 v=56
6400 On ch=1 n=e6 v=50
6458 On ch=1 n=e6 v=0
6464 On ch=1 n=b5 v=41
6516 On ch=1 n=e6 v=0
6522 On ch=1 n=b5 v=0
6528 On ch=1 n=c6 v=50
6586 On ch=1 n=c6 v=0
6592 On ch=1 n=a5 v=42
6650 On ch=1 n=a5 v=0
6656 On ch=1 n=c6 v=56
6656 On ch=2 n=e6 v=80
6714 On ch=1 n=c6 v=0
6719 On ch=2 n=e6 v=0
6720 On ch=1 n=g5 v=43
6778 On ch=1 n=g5 v=0
6784 On ch=1 n=a5 v=49
6784 On ch=2 n=e6 v=85
6842 On ch=1 n=a5 v=0
6847 On ch=2 n=e6 v=0
6848 On ch=1 n=f5 v=40
6906 On ch=1 n=f5 v=0
6912 On ch=1 n=a5 v=57
6912 On ch=2 n=c6 v=80
6970 On ch=1 n=a5 v=0
6976 On ch=1 n=e5 v=43
7034 On ch=1 n=e5 v=0
7038 On ch=2 n=c6 v=0
7040 On ch=1 n=f5 v=48
7098 On ch=1 n=f5 v=0
7104 On ch=1 n=d5 v=45
7162 On ch=1 n=d5 v=0
7168 On ch=2 n=c5 v=64
7231 On ch=2 n=c5 v=0
7232 On ch=1 n=e5 v=41
7290 On ch=1 n=e5 v=0
7296 On ch=1 n=a5 v=52
7296 On ch=2 n=c5 v=83
7354 On ch=1 n=a5 v=0
7359 On ch=2 n=c5 v=0
7360 On ch=1 n=b5 v=51
7418 On ch=1 n=b5 v=0
7424 On ch=1 n=c6 v=52
7424 On ch=2 n=a4 v=85
7482 On ch=1 n=c6 v=0
7488 On ch=1 n=a5 v=44
7546 On ch=1 n=a5 v=0
7552 On ch=1 n=c6 v=50
7610 On ch=1 n=c6 v=0
7616 On ch=1 n=a6 v=59
7674 On ch=1 n=a6 v=0
7680 On ch=1 n=e6 v=71
7738 On ch=1 n=e6 v=0
7744 On ch=1 n=d6 v=43
7802 On ch=1 n=d6 v=0
7808 On ch=1 n=e6 v=77
7866 On ch=1 n=e6 v=0
7872 On ch=1 n=c6 v=43
7930 On ch=1 n=c6 v=0
7936 On ch=2 n=a4 v=0
7936 On ch=1 n=e6 v=55
7936 On ch=1 n=e6 v=52
7994 On ch=1 n=e6 v=0
8000 On ch=1 n=b5 v=40
8052 On ch=1 n=e6 v=0
8058 On ch=1 n=b5 v=0
8064 On ch=1 n=c6 v=49
8122 On ch=1 n=c6 v=0
8128 On ch=1 n=a5 v=42
8186 On ch=1 n=a5 v=0
8192 On ch=1 n=a6 v=62
8192 On ch=2 n=c7 v=80
8250 On ch=1 n=a6 v=0
8256 On ch=1 n=g6 v=46
8314 On ch=1 n=g6 v=0
8318 On ch=2 n=c7 v=0
8320 On ch=1 n=e6 v=42
8378 On ch=1 n=e6 v=0
8384 On ch=1 n=c6 v=44
8442 On ch=1 n=c6 v=0
8448 On ch=1 n=g6 v=59
8448 On ch=2 n=a6 v=78
8506 On ch=1 n=g6 v=0
8512 On ch=1 n=f6 v=48
8570 On ch=1 n=f6 v=0
8574 On ch=2 n=a6 v=0
8576 On ch=1 n=d6 v=42
8634 On ch=1 n=d6 v=0
8640 On ch=1 n=b5 v=43
8698 On ch=1 n=b5 v=0
8704 On ch=1 n=f6 v=57
8704 On ch=2 n=f5 v=62
8762 On ch=1 n=f6 v=0
8768 On ch=1 n=e6 v=46
8826 On ch=1 n=e6 v=0
8830 On ch=2 n=f5 v=0
8832 On ch=1 n=c6 v=42
8890 On ch=1 n=c6 v=0
8896 On ch=1 n=a5 v=43
8954 On ch=1 n=a5 v=0
8960 On ch=1 n=e6 v=59
8960 On ch=2 n=d5 v=80
9018 On ch=1 n=e6 v=0
9024 On ch=1 n=d6 v=47
9082 On ch=1 n=d6 v=0
9086 On ch=2 n=d5 v=0
9088 On ch=1 n=a#5 v=42
9146 On ch=1 n=a#5 v=0
9152 On ch=1 n=g5 v=43
9210 On ch=1 n=g5 v=0
9216 On ch=1 n=d6 v=56
9216 On ch=2 n=f6 v=111
9274 On ch=1 n=d6 v=0
9280 On ch=1 n=c6 v=46
9338 On ch=1 n=c6 v=0
9342 On ch=2 n=f6 v=0
9344 On ch=1 n=a5 v=44
9402 On ch=1 n=a5 v=0
9408 On ch=1 n=f5 v=42
9466 On ch=1 n=f5 v=0
9472 On ch=1 n=c6 v=58
9472 On ch=2 n=d6 v=85
9530 On ch=1 n=c6 v=0
9536 On ch=1 n=b5 v=46
9594 On ch=1 n=b5 v=0
9598 On ch=2 n=d6 v=0
9600 On ch=1 n=g#5 v=44
9658 On ch=1 n=g#5 v=0
9664 On ch=1 n=e5 v=42
9722 On ch=1 n=e5 v=0
9728 On ch=1 n=e6 v=95
9728 On ch=2 n=c5 v=49
9786 On ch=1 n=e6 v=0
9792 On ch=1 n=d6 v=46
9844 On ch=2 n=c5 v=0
9850 On ch=1 n=d6 v=0
9856 On ch=1 n=e6 v=79
9856 On ch=2 n=c5 v=60
9914 On ch=1 n=e6 v=0
9920 On ch=1 n=c6 v=45
9972 On ch=2 n=c5 v=0
9978 On ch=1 n=c6 v=0
9984 On ch=1 n=e6 v=55
9984 On ch=1 n=e6 v=51
9984 On ch=2 n=a4 v=63
10042 On ch=1 n=e6 v=0
10048 On ch=1 n=b5 v=42
10100 On ch=1 n=e6 v=0
10106 On ch=1 n=b5 v=0
10112 On ch=1 n=c6 v=50
10170 On ch=1 n=c6 v=0
10176 On ch=1 n=a5 v=42
10234 On ch=1 n=a5 v=0
10240 On ch=1 n=c6 v=55
10240 On ch=2 n=e6 v=113
10298 On ch=1 n=c6 v=0
10303 On ch=2 n=e6 v=0
10304 On ch=1 n=g5 v=42
10362 On ch=1 n=g5 v=0
10368 On ch=1 n=a5 v=48
10368 On ch=2 n=e6 v=90
10426 On ch=1 n=a5 v=0
10431 On ch=2 n=e6 v=0
10432 On ch=1 n=f5 v=43
10490 On ch=1 n=f5 v=0
10496 On ch=1 n=a5 v=54
10496 On ch=2 n=c6 v=78
10554 On ch=1 n=a5 v=0
10560 On ch=1 n=e5 v=43
10618 On ch=1 n=e5 v=0
10622 On ch=2 n=c6 v=0
10624 On ch=1 n=f5 v=48
10682 On ch=1 n=f5 v=0
10688 On ch=1 n=d5 v=42
10746 On ch=1 n=d5 v=0
10752 On ch=2 n=a4 v=0
10752 On ch=2 n=c5 v=65
10815 On ch=2 n=c5 v=0
10816 On ch=1 n=e5 v=42
10874 On ch=1 n=e5 v=0
10880 On ch=1 n=a5 v=52
10880 On ch=2 n=c5 v=81
10938 On ch=1 n=a5 v=0
10943 On ch=2 n=c5 v=0
10944 On ch=1 n=b5 v=50
11002 On ch=1 n=b5 v=0
11008 On ch=1 n=c6 v=53
11008 On ch=2 n=a4 v=56
11066 On ch=1 n=c6 v=0
11072 On ch=1 n=a5 v=45
11130 On ch=1 n=a5 v=0
11136 On ch=1 n=c6 v=53
11194 On ch=1 n=c6 v=0
11200 On ch=1 n=a6 v=59
11239 On ch=2 n=a4 v=0
11258 On ch=1 n=a6 v=0
11264 On ch=1 n=e6 v=70
11264 On ch=2 n=a4 v=65
11322 On ch=1 n=e6 v=0
11328 On ch=1 n=d6 v=44
11380 On ch=2 n=a4 v=0
11386 On ch=1 n=d6 v=0
11392 On ch=1 n=e6 v=76
11392 On ch=2 n=a4 v=62
11450 On ch=1 n=e6 v=0
11456 On ch=1 n=c6 v=42
11508 On ch=2 n=a4 v=0
11514 On ch=1 n=c6 v=0
11520 On ch=1 n=e6 v=57
11520 On ch=1 n=e6 v=51
11520 On ch=2 n=f4 v=57
11578 On ch=1 n=e6 v=0
11584 On ch=1 n=b5 v=43
11636 On ch=1 n=e6 v=0
11642 On ch=1 n=b5 v=0
11648 On ch=1 n=c6 v=48
11706 On ch=1 n=c6 v=0
11712 On ch=1 n=a5 v=41
11770 On ch=1 n=a5 v=0
11776 On ch=1 n=c6 v=52
11776 On ch=2 n=e6 v=83
11834 On ch=1 n=c6 v=0
11839 On ch=2 n=e6 v=0
11840 On ch=1 n=g5 v=43
11898 On ch=1 n=g5 v=0
11904 On ch=1 n=a5 v=51
11904 On ch=2 n=e6 v=85
11962 On ch=1 n=a5 v=0
11967 On ch=2 n=e6 v=0
11968 On ch=1 n=f5 v=41
12026 On ch=1 n=f5 v=0
12032 On ch=1 n=a5 v=56
12032 On ch=2 n=c6 v=77
12090 On ch=1 n=a5 v=0
12096 On ch=1 n=e5 v=41
12154 On ch=1 n=e5 v=0
12158 On ch=2 n=c6 v=0
12160 On ch=1 n=f5 v=48
12218 On ch=1 n=f5 v=0
12224 On ch=1 n=d5 v=41
12238 On ch=2 n=f4 v=0
12282 On ch=1 n=d5 v=0
12288 On ch=2 n=a4 v=66
12351 On ch=2 n=a4 v=0
12352 On ch=1 n=e5 v=45
12410 On ch=1 n=e5 v=0
12416 On ch=1 n=a5 v=52
12416 On ch=2 n=a4 v=81
12474 On ch=1 n=a5 v=0
12479 On ch=2 n=a4 v=0
12480 On ch=1 n=b5 v=53
12538 On ch=1 n=b5 v=0
12544 On ch=1 n=c6 v=54
12544 On ch=2 n=f4 v=56
12602 On ch=1 n=c6 v=0
12608 On ch=1 n=a5 v=45
12666 On ch=1 n=a5 v=0
12672 On ch=1 n=c6 v=50
12730 On ch=1 n=c6 v=0
12736 On ch=1 n=a6 v=60
12775 On ch=2 n=f4 v=0
12794 On ch=1 n=a6 v=0
12800 On ch=1 n=e6 v=69
12800 On ch=2 n=e4 v=59
12858 On ch=1 n=e6 v=0
12864 On ch=1 n=d6 v=47
12916 On ch=2 n=e4 v=0
12922 On ch=1 n=d6 v=0
12928 On ch=1 n=e6 v=88
12928 On ch=2 n=e4 v=65
12986 On ch=1 n=e6 v=0
12992 On ch=1 n=c6 v=55
13044 On ch=2 n=e4 v=0
13050 On ch=1 n=c6 v=0
13056 On ch=1 n=e6 v=74
13056 On ch=1 n=e6 v=49
13056 On ch=2 n=c4 v=59
13114 On ch=1 n=e6 v=0
13120 On ch=1 n=b5 v=62
13172 On ch=1 n=e6 v=0
13178 On ch=1 n=b5 v=0
13184 On ch=1 n=c6 v=75
13242 On ch=1 n=c6 v=0
13248 On ch=1 n=a5 v=75
13306 On ch=1 n=a5 v=0
13312 On ch=1 n=a6 v=105
13312 On ch=2 n=c7 v=93
13370 On ch=1 n=a6 v=0
13376 On ch=1 n=g6 v=76
13434 On ch=1 n=g6 v=0
13438 On ch=2 n=c7 v=0
13440 On ch=1 n=e6 v=71
13498 On ch=1 n=e6 v=0
13504 On ch=1 n=c6 v=69
13562 On ch=1 n=c6 v=0
13568 On ch=1 n=g6 v=94
13568 On ch=2 n=a6 v=92
13626 On ch=1 n=g6 v=0
13632 On ch=1 n=f6 v=75
13690 On ch=1 n=f6 v=0
13694 On ch=2 n=a6 v=0
13696 On ch=1 n=d6 v=71
13754 On ch=1 n=d6 v=0
13760 On ch=1 n=a#5 v=69
13818 On ch=1 n=a#5 v=0
13824 On ch=1 n=f6 v=94
13824 On ch=2 n=f5 v=72
13882 On ch=1 n=f6 v=0
13888 On ch=1 n=e6 v=79
13946 On ch=1 n=e6 v=0
13950 On ch=2 n=f5 v=0
13952 On ch=1 n=c6 v=69
14010 On ch=1 n=c6 v=0
14016 On ch=1 n=a5 v=72
14074 On ch=1 n=a5 v=0
14080 On ch=1 n=e6 v=97
14080 On ch=2 n=d5 v=91
14138 On ch=1 n=e6 v=0
14144 On ch=1 n=d6 v=78
14202 On ch=1 n=d6 v=0
14206 On ch=2 n=d5 v=0
14208 On ch=1 n=a#5 v=72
14266 On ch=1 n=a#5 v=0
14272 On ch=1 n=g5 v=71
14330 On ch=1 n=g5 v=0
14336 On ch=1 n=d6 v=97
14336 On ch=2 n=f6 v=127
14394 On ch=1 n=d6 v=0
14400 On ch=1 n=c6 v=74
14458 On ch=1 n=c6 v=0
14462 On ch=2 n=f6 v=0
14464 On ch=1 n=a5 v=67
14522 On ch=1 n=a5 v=0
14528 On ch=1 n=f5 v=65
14542 On ch=2 n=c4 v=0
14586 On ch=1 n=f5 v=0
14592 On ch=1 n=c6 v=86
14592 On ch=2 n=d6 v=93
14650 On ch=1 n=c6 v=0
14656 On ch=1 n=b5 v=69
14714 On ch=1 n=b5 v=0
14718 On ch=2 n=d6 v=0
14720 On ch=1 n=g#5 v=63
14778 On ch=1 n=g#5 v=0
14784 On ch=1 n=e5 v=56
14842 On ch=1 n=e5 v=0
14848 On ch=1 n=b5 v=77
14848 On ch=2 n=b4 v=64
14906 On ch=1 n=b5 v=0
14912 On ch=1 n=a5 v=56
14970 On ch=1 n=a5 v=0
14974 On ch=2 n=b4 v=0
14976 On ch=1 n=f5 v=52
15034 On ch=1 n=f5 v=0
15040 On ch=1 n=d5 v=49
15098 On ch=1 n=d5 v=0
15104 On ch=1 n=a#5 v=68
15104 On ch=2 n=g#4 v=71
15162 On ch=1 n=a#5 v=0
15168 On ch=1 n=a5 v=51
15226 On ch=1 n=a5 v=0
15230 On ch=2 n=g#4 v=0
15232 On ch=1 n=f5 v=46
15290 On ch=1 n=f5 v=0
15296 On ch=1 n=d5 v=43
15354 On ch=1 n=d5 v=0
15360 On ch=1 n=a5 v=56
15360 On ch=2 n=b5 v=110
15418 On ch=1 n=a5 v=0
15424 On ch=1 n=f5 v=42
15482 On ch=1 n=f5 v=0
15486 On ch=2 n=b5 v=0
15488 On ch=1 n=e5 v=43
15546 On ch=1 n=e5 v=0
15552 On ch=1 n=d5 v=44
15610 On ch=1 n=d5 v=0
15616 On ch=1 n=f5 v=54
15616 On ch=2 n=g#5 v=82
15674 On ch=1 n=f5 v=0
15680 On ch=1 n=e5 v=45
15738 On ch=1 n=e5 v=0
15742 On ch=2 n=g#5 v=0
15744 On ch=1 n=d#5 v=45
15802 On ch=1 n=d#5 v=0
15808 On ch=1 n=d5 v=46
15866 On ch=1 n=d5 v=0
15872 On ch=1 n=e6 v=95
15872 On ch=2 n=b2 v=47
15872 On ch=2 n=b3 v=49
15930 On ch=1 n=e6 v=0
15936 On ch=1 n=d6 v=47
15988 On ch=2 n=b2 v=0
15988 On ch=2 n=b3 v=0
15994 On ch=1 n=d6 v=0
16000 On ch=1 n=e6 v=78
16000 On ch=2 n=b2 v=61
16000 On ch=2 n=b3 v=60
16058 On ch=1 n=e6 v=0
16063 On ch=2 n=b2 v=0
16063 On ch=2 n=b3 v=0
16064 On ch=1 n=c6 v=42
16122 On ch=1 n=c6 v=0
16128 On ch=1 n=e6 v=54
16128 On ch=1 n=e6 v=46
16128 On ch=2 n=e2 v=50
16128 On ch=2 n=e3 v=53
16186 On ch=1 n=e6 v=0
16192 On ch=1 n=b5 v=42
16244 On ch=1 n=e6 v=0
16250 On ch=1 n=b5 v=0
16256 On ch=1 n=c6 v=50
16256 On ch=2 n=c4 v=57
16314 On ch=1 n=c6 v=0
16320 On ch=1 n=a5 v=41
16372 On ch=2 n=c4 v=0
16378 On ch=1 n=a5 v=0
16384 On ch=1 n=c6 v=53
16384 On ch=2 n=d#4 v=70
16442 On ch=1 n=c6 v=0
16448 On ch=1 n=g#5 v=42
16500 On ch=2 n=d#4 v=0
16506 On ch=1 n=g#5 v=0
16512 On ch=1 n=a5 v=50
16512 On ch=2 n=f#4 v=81
16512 On ch=2 n=a4 v=80
16512 On ch=2 n=d#5 v=79
16570 On ch=1 n=a5 v=0
16576 On ch=1 n=f#5 v=45
16634 On ch=1 n=f#5 v=0
16640 On ch=1 n=a5 v=54
16698 On ch=1 n=a5 v=0
16704 On ch=1 n=d5 v=40
16762 On ch=1 n=d5 v=0
16768 On ch=1 n=d#5 v=47
16826 On ch=1 n=d#5 v=0
16832 On ch=1 n=c5 v=44
16890 On ch=1 n=c5 v=0
16896 On ch=1 n=a4 v=48
17012 On ch=1 n=a4 v=0
17024 On ch=1 n=c5 v=52
17082 On ch=1 n=c5 v=0
17088 On ch=1 n=d#5 v=51
17146 On ch=1 n=d#5 v=0
17152 On ch=1 n=f#5 v=57
17210 On ch=1 n=f#5 v=0
17216 On ch=1 n=a5 v=50
17274 On ch=1 n=a5 v=0
17280 On ch=1 n=c6 v=52
17338 On ch=1 n=c6 v=0
17344 On ch=1 n=d#6 v=52
17401 On ch=2 n=f#4 v=0
17401 On ch=2 n=a4 v=0
17401 On ch=2 n=d#5 v=0
17402 On ch=1 n=d#6 v=0
17408 On ch=1 n=e6 v=54
17408 On ch=2 n=g#4 v=67
17408 On ch=2 n=e5 v=66
17466 On ch=1 n=e6 v=0
17472 On ch=1 n=d6 v=44
17530 On ch=1 n=d6 v=0
17536 On ch=1 n=e6 v=52
17594 On ch=1 n=e6 v=0
17600 On ch=1 n=c6 v=46
17614 On ch=2 n=e2 v=0
17614 On ch=2 n=e3 v=0
17658 On ch=1 n=c6 v=0
17662 On ch=2 n=g#4 v=0
17662 On ch=2 n=e5 v=0
17664 On ch=1 n=e6 v=62
17664 On ch=1 n=e6 v=45
17664 On ch=2 n=e2 v=64
17664 On ch=2 n=e3 v=61
17722 On ch=1 n=e6 v=0
17728 On ch=1 n=b5 v=48
17780 On ch=1 n=e6 v=0
17786 On ch=1 n=b5 v=0
17792 On ch=1 n=c6 v=58
17792 On ch=2 n=c4 v=59
17850 On ch=1 n=c6 v=0
17856 On ch=1 n=a5 v=53
17908 On ch=2 n=c4 v=0
17914 On ch=1 n=a5 v=0
17920 On ch=1 n=c6 v=68
17920 On ch=2 n=d#4 v=74
17978 On ch=1 n=c6 v=0
17984 On ch=1 n=g#5 v=57
18036 On ch=2 n=d#4 v=0
18042 On ch=1 n=g#5 v=0
18048 On ch=1 n=a5 v=66
18048 On ch=2 n=f#4 v=89
18048 On ch=2 n=a4 v=90
18048 On ch=2 n=d#5 v=90
18106 On ch=1 n=a5 v=0
18112 On ch=1 n=f#5 v=61
18170 On ch=1 n=f#5 v=0
18176 On ch=1 n=a5 v=74
18176 On ch=2 n=d#5 v=68
18234 On ch=1 n=a5 v=0
18240 On ch=1 n=d5 v=57
18292 On ch=2 n=d#5 v=0
18298 On ch=1 n=d5 v=0
18304 On ch=1 n=d#5 v=71
18362 On ch=1 n=d#5 v=0
18368 On ch=1 n=c5 v=66
18426 On ch=1 n=c5 v=0
18432 On ch=1 n=a4 v=68
18432 On ch=2 n=c7 v=96
18548 On ch=1 n=a4 v=0
18548 On ch=2 n=c7 v=0
18560 On ch=1 n=c5 v=82
18560 On ch=2 n=c7 v=101
18618 On ch=1 n=c5 v=0
18624 On ch=1 n=d#5 v=88
18676 On ch=2 n=c7 v=0
18682 On ch=1 n=d#5 v=0
18688 On ch=1 n=f#5 v=93
18688 On ch=2 n=a6 v=98
18746 On ch=1 n=f#5 v=0
18752 On ch=1 n=a5 v=90
18810 On ch=1 n=a5 v=0
18816 On ch=1 n=c6 v=90
18874 On ch=1 n=c6 v=0
18880 On ch=1 n=d#6 v=93
18894 On ch=2 n=f#4 v=0
18894 On ch=2 n=a4 v=0
18894 On ch=2 n=d#5 v=0
18919 On ch=2 n=a6 v=0
18938 On ch=1 n=d#6 v=0
18944 On ch=1 n=e6 v=96
18944 On ch=2 n=g#4 v=92
18944 On ch=2 n=e5 v=89
19002 On ch=1 n=e6 v=0
19008 On ch=1 n=d6 v=85
19066 On ch=1 n=d6 v=0
19072 On ch=1 n=e6 v=93
19130 On ch=1 n=e6 v=0
19136 On ch=1 n=c6 v=85
19150 On ch=2 n=e2 v=0
19150 On ch=2 n=e3 v=0
19175 On ch=2 n=g#4 v=0
19175 On ch=2 n=e5 v=0
19194 On ch=1 n=c6 v=0
19200 On ch=1 n=e6 v=106
19258 On ch=1 n=e6 v=0
19264 On ch=1 n=b5 v=84
19322 On ch=1 n=b5 v=0
19328 On ch=1 n=c6 v=97
19386 On ch=1 n=c6 v=0
19392 On ch=1 n=a5 v=88
19450 On ch=1 n=a5 v=0
19456 On ch=1 n=e5 v=85
19456 On ch=2 n=c3 v=88
19456 On ch=2 n=c4 v=86
19514 On ch=1 n=e5 v=0
19519 On ch=2 n=c3 v=0
19519 On ch=2 n=c4 v=0
19520 On ch=1 n=a4 v=77
19578 On ch=1 n=a4 v=0
19584 On ch=1 n=c5 v=100
19584 On ch=2 n=c3 v=95
19584 On ch=2 n=c4 v=91
19642 On ch=1 n=c5 v=0
19647 On ch=2 n=c3 v=0
19647 On ch=2 n=c4 v=0
19648 On ch=1 n=e4 v=77
19706 On ch=1 n=e4 v=0
19712 On ch=2 n=a2 v=108
19712 On ch=2 n=a3 v=109
19840 On ch=1 n=a4 v=88
19898 On ch=1 n=a4 v=0
19904 On ch=1 n=c5 v=102
19943 On ch=2 n=a2 v=0
19943 On ch=2 n=a3 v=0
19962 On ch=1 n=c5 v=0
19968 On ch=1 n=e5 v=109
19968 On ch=2 n=f#2 v=86
19968 On ch=2 n=f#3 v=88
20026 On ch=1 n=e5 v=0
20031 On ch=2 n=f#2 v=0
20031 On ch=2 n=f#3 v=0
20032 On ch=1 n=e4 v=70
20090 On ch=1 n=e4 v=0
20096 On ch=1 n=b4 v=109
20096 On ch=2 n=g#2 v=97
20096 On ch=2 n=g#3 v=97
20154 On ch=1 n=b4 v=0
20159 On ch=2 n=g#2 v=0
20159 On ch=2 n=g#3 v=0
20160 On ch=1 n=d5 v=107
20218 On ch=1 n=d5 v=0
20224 On ch=1 n=c5 v=96
20224 On ch=2 n=a2 v=104
20224 On ch=2 n=a3 v=104
20282 On ch=1 n=c5 v=0
20287 On ch=2 n=a2 v=0
20287 On ch=2 n=a3 v=0
20288 On ch=1 n=g#4 v=86
20346 On ch=1 n=g#4 v=0
20352 On ch=1 n=a4 v=100
20352 On ch=2 n=b2 v=100
20352 On ch=2 n=b3 v=102
20410 On ch=1 n=a4 v=0
20415 On ch=2 n=b2 v=0
20415 On ch=2 n=b3 v=0
20416 On ch=1 n=e4 v=82
20474 On ch=1 n=e4 v=0
20480 On ch=2 n=c3 v=104
20480 On ch=2 n=c4 v=104
20543 On ch=2 n=c3 v=0
20543 On ch=2 n=c4 v=0
20544 On ch=1 n=a4 v=86
20602 On ch=1 n=a4 v=0
20608 On ch=1 n=c5 v=100
20608 On ch=2 n=e3 v=105
20608 On ch=2 n=e4 v=104
20666 On ch=1 n=c5 v=0
20671 On ch=2 n=e3 v=0
20671 On ch=2 n=e4 v=0
20672 On ch=1 n=e5 v=108
20736 On ch=1 n=c5 v=109
20736 On ch=1 n=g5 v=109
20736 On ch=2 n=g3 v=106
20736 On ch=2 n=c4 v=107
20736 On ch=2 n=e4 v=106
20736 On ch=2 n=g4 v=106
20967 On ch=1 n=c5 v=0
20967 On ch=1 n=e5 v=0
20967 On ch=1 n=g5 v=0
20967 On ch=2 n=g3 v=0
20967 On ch=2 n=c4 v=0
20967 On ch=2 n=e4 v=0
20967 On ch=2 n=g4 v=0
20992 On ch=1 n=g5 v=98
20992 On ch=2 n=e3 v=91
20992 On ch=2 n=e4 v=92
21050 On ch=1 n=g5 v=0
21055 On ch=2 n=e3 v=0
21055 On ch=2 n=e4 v=0
21056 On ch=1 n=c5 v=76
21114 On ch=1 n=c5 v=0
21120 On ch=1 n=e5 v=101
21120 On ch=2 n=e3 v=96
21120 On ch=2 n=e4 v=92
21178 On ch=1 n=e5 v=0
21183 On ch=2 n=e3 v=0
21183 On ch=2 n=e4 v=0
21184 On ch=1 n=g4 v=73
21242 On ch=1 n=g4 v=0
21248 On ch=2 n=c3 v=106
21248 On ch=2 n=c4 v=105
21376 On ch=1 n=c5 v=88
21434 On ch=1 n=c5 v=0
21440 On ch=1 n=e5 v=106
21479 On ch=2 n=c3 v=0
21479 On ch=2 n=c4 v=0
21498 On ch=1 n=e5 v=0
21504 On ch=1 n=g5 v=108
21504 On ch=2 n=a2 v=87
21504 On ch=2 n=a3 v=89
21562 On ch=1 n=g5 v=0
21567 On ch=2 n=a2 v=0
21567 On ch=2 n=a3 v=0
21568 On ch=1 n=g4 v=70
21626 On ch=1 n=g4 v=0
21632 On ch=1 n=d5 v=110
21632 On ch=2 n=b2 v=99
21632 On ch=2 n=b3 v=98
21690 On ch=1 n=d5 v=0
21695 On ch=2 n=b2 v=0
21695 On ch=2 n=b3 v=0
21696 On ch=1 n=f5 v=106
21754 On ch=1 n=f5 v=0
21760 On ch=1 n=e5 v=97
21760 On ch=2 n=c3 v=101
21760 On ch=2 n=c4 v=104
21818 On ch=1 n=e5 v=0
21823 On ch=2 n=c3 v=0
21823 On ch=2 n=c4 v=0
21824 On ch=1 n=b4 v=82
21882 On ch=1 n=b4 v=0
21888 On ch=1 n=c5 v=100
21888 On ch=2 n=d3 v=99
21888 On ch=2 n=d4 v=102
21946 On ch=1 n=c5 v=0
21951 On ch=2 n=d3 v=0
21951 On ch=2 n=d4 v=0
21952 On ch=1 n=e4 v=75
22010 On ch=1 n=e4 v=0
22016 On ch=2 n=e3 v=103
22016 On ch=2 n=e4 v=104
22079 On ch=2 n=e3 v=0
22079 On ch=2 n=e4 v=0
22080 On ch=1 n=c5 v=87
22138 On ch=1 n=c5 v=0
22144 On ch=1 n=e5 v=107
22144 On ch=2 n=g3 v=102
22144 On ch=2 n=g4 v=103
22202 On ch=1 n=e5 v=0
22207 On ch=2 n=g3 v=0
22207 On ch=2 n=g4 v=0
22208 On ch=1 n=g5 v=106
22272 On ch=1 n=e5 v=111
22272 On ch=1 n=b5 v=109
22272 On ch=2 n=b3 v=109
22272 On ch=2 n=e4 v=108
22272 On ch=2 n=g4 v=111
22272 On ch=2 n=b4 v=108
22388 On ch=1 n=e5 v=0
22388 On ch=1 n=g5 v=0
22388 On ch=1 n=b5 v=0
22400 On ch=1 n=e5 v=79
22458 On ch=1 n=e5 v=0
22464 On ch=1 n=g5 v=103
22503 On ch=2 n=b3 v=0
22503 On ch=2 n=e4 v=0
22503 On ch=2 n=g4 v=0
22503 On ch=2 n=b4 v=0
22522 On ch=1 n=g5 v=0
22528 On ch=1 n=b5 v=108
22528 On ch=2 n=c#3 v=78
22528 On ch=2 n=c#4 v=77
22586 On ch=1 n=b5 v=0
22591 On ch=2 n=c#3 v=0
22591 On ch=2 n=c#4 v=0
22592 On ch=1 n=b4 v=72
22650 On ch=1 n=b4 v=0
22656 On ch=1 n=f#5 v=107
22656 On ch=2 n=d#3 v=96
22656 On ch=2 n=d#4 v=98
22714 On ch=1 n=f#5 v=0
22719 On ch=2 n=d#3 v=0
22719 On ch=2 n=d#4 v=0
22720 On ch=1 n=a5 v=104
22778 On ch=1 n=a5 v=0
22784 On ch=1 n=g5 v=95
22784 On ch=2 n=e3 v=102
22784 On ch=2 n=e4 v=102
22842 On ch=1 n=g5 v=0
22847 On ch=2 n=e3 v=0
22847 On ch=2 n=e4 v=0
22848 On ch=1 n=d#5 v=86
22906 On ch=1 n=d#5 v=0
22912 On ch=1 n=e5 v=101
22912 On ch=2 n=f#3 v=102
22912 On ch=2 n=f#4 v=101
22970 On ch=1 n=e5 v=0
22975 On ch=2 n=f#3 v=0
22975 On ch=2 n=f#4 v=0
22976 On ch=1 n=b4 v=84
23034 On ch=1 n=b4 v=0
23040 On ch=2 n=g3 v=103
23040 On ch=2 n=g4 v=103
23103 On ch=2 n=g3 v=0
23103 On ch=2 n=g4 v=0
23104 On ch=1 n=e5 v=85
23162 On ch=1 n=e5 v=0
23168 On ch=1 n=g5 v=101
23168 On ch=2 n=b3 v=105
23168 On ch=2 n=b4 v=108
23226 On ch=1 n=g5 v=0
23231 On ch=2 n=b3 v=0
23231 On ch=2 n=b4 v=0
23232 On ch=1 n=b5 v=107
23290 On ch=1 n=b5 v=0
23296 On ch=1 n=g5 v=108
23296 On ch=1 n=b5 v=110
23296 On ch=1 n=d6 v=109
23296 On ch=2 n=d4 v=105
23296 On ch=2 n=g4 v=106
23296 On ch=2 n=b4 v=107
23296 On ch=2 n=d5 v=105
23412 On ch=1 n=g5 v=0
23412 On ch=1 n=b5 v=0
23412 On ch=1 n=d6 v=0
23424 On ch=1 n=g5 v=79
23482 On ch=1 n=g5 v=0
23488 On ch=1 n=b5 v=105
23527 On ch=2 n=d4 v=0
23527 On ch=2 n=g4 v=0
23527 On ch=2 n=b4 v=0
23527 On ch=2 n=d5 v=0
23546 On ch=1 n=b5 v=0
23552 On ch=1 n=d6 v=110
23552 On ch=2 n=e3 v=79
23552 On ch=2 n=e4 v=76
23610 On ch=1 n=d6 v=0
23615 On ch=2 n=e3 v=0
23615 On ch=2 n=e4 v=0
23616 On ch=1 n=d5 v=71
23674 On ch=1 n=d5 v=0
23680 On ch=1 n=a5 v=108
23680 On ch=2 n=f#3 v=95
23680 On ch=2 n=f#4 v=97
23738 On ch=1 n=a5 v=0
23743 On ch=2 n=f#3 v=0
23743 On ch=2 n=f#4 v=0
23744 On ch=1 n=c6 v=107
23802 On ch=1 n=c6 v=0
23808 On ch=1 n=b5 v=95
23808 On ch=2 n=g3 v=103
23808 On ch=2 n=g4 v=101
23866 On ch=1 n=b5 v=0
23871 On ch=2 n=g3 v=0
23871 On ch=2 n=g4 v=0
23872 On ch=1 n=f#5 v=84
23930 On ch=1 n=f#5 v=0
23936 On ch=1 n=g5 v=97
23936 On ch=2 n=a3 v=102
23936 On ch=2 n=a4 v=99
23994 On ch=1 n=g5 v=0
23999 On ch=2 n=a3 v=0
23999 On ch=2 n=a4 v=0
24000 On ch=1 n=d5 v=83
24058 On ch=1 n=d5 v=0
24064 On ch=2 n=b3 v=104
24064 On ch=2 n=b4 v=104
24127 On ch=2 n=b3 v=0
24127 On ch=2 n=b4 v=0
24128 On ch=1 n=g5 v=90
24186 On ch=1 n=g5 v=0
24192 On ch=1 n=b5 v=112
24192 On ch=2 n=d4 v=111
24192 On ch=2 n=d5 v=112
24250 On ch=1 n=b5 v=0
24255 On ch=2 n=d4 v=0
24255 On ch=2 n=d5 v=0
24256 On ch=1 n=d6 v=115
24314 On ch=1 n=d6 v=0
24320 On ch=1 n=a#5 v=127
24320 On ch=1 n=d6 v=127
24320 On ch=1 n=f6 v=127
24320 On ch=2 n=f4 v=127
24320 On ch=2 n=a#4 v=127
24320 On ch=2 n=d5 v=127
24320 On ch=2 n=f5 v=127
24551 On ch=1 n=a#5 v=0
24551 On ch=1 n=d6 v=0
24551 On ch=1 n=f6 v=0
24551 On ch=2 n=f4 v=0
24551 On ch=2 n=a#4 v=0
24551 On ch=2 n=d5 v=0
24551 On ch=2 n=f5 v=0
24576 On ch=1 n=f5 v=127
24576 On ch=1 n=a#5 v=127
24576 On ch=1 n=d6 v=127
24576 On ch=1 n=f6 v=127
24576 On ch=2 n=d4 v=118
24576 On ch=2 n=f4 v=118
24576 On ch=2 n=a#4 v=119
24576 On ch=2 n=d5 v=119
24692 On ch=1 n=f5 v=0
24692 On ch=1 n=a#5 v=0
24692 On ch=1 n=d6 v=0
24692 On ch=1 n=f6 v=0
24692 On ch=2 n=d4 v=0
24692 On ch=2 n=f4 v=0
24692 On ch=2 n=a#4 v=0
24692 On ch=2 n=d5 v=0
24704 On ch=1 n=f5 v=116
24704 On ch=1 n=a#5 v=120
24704 On ch=1 n=d6 v=118
24704 On ch=1 n=f6 v=118
24704 On ch=2 n=d4 v=108
24704 On ch=2 n=f4 v=109
24704 On ch=2 n=a#4 v=110
24704 On ch=2 n=d5 v=112
24767 On ch=2 n=d4 v=0
24767 On ch=2 n=f4 v=0
24767 On ch=2 n=a#4 v=0
24767 On ch=2 n=d5 v=0
24832 On ch=2 n=a#3 v=114
24832 On ch=2 n=a#4 v=114
25063 On ch=1 n=f5 v=0
25063 On ch=1 n=a#5 v=0
25063 On ch=1 n=d6 v=0
25063 On ch=1 n=f6 v=0
25088 On ch=1 n=d6 v=127
25088 On ch=1 n=f6 v=127
25088 On ch=1 n=a#5 v=102
25088 On ch=2 n=a#3 v=0
25088 On ch=2 n=a#4 v=0
25088 On ch=2 n=f3 v=110
25088 On ch=2 n=a#3 v=109
25088 On ch=2 n=d4 v=110
25088 On ch=2 n=f4 v=109
25146 On ch=1 n=a#5 v=0
25152 On ch=1 n=a5 v=106
25204 On ch=1 n=d6 v=0
25204 On ch=1 n=f6 v=0
25204 On ch=2 n=f3 v=0
25204 On ch=2 n=a#3 v=0
25204 On ch=2 n=d4 v=0
25204 On ch=2 n=f4 v=0
25210 On ch=1 n=a5 v=0
25216 On ch=1 n=d6 v=113
25216 On ch=1 n=f6 v=110
25216 On ch=1 n=a#5 v=115
25216 On ch=2 n=f3 v=107
25216 On ch=2 n=a#3 v=107
25216 On ch=2 n=d4 v=110
25216 On ch=2 n=f4 v=108
25279 On ch=2 n=f3 v=0
25279 On ch=2 n=a#3 v=0
25279 On ch=2 n=d4 v=0
25279 On ch=2 n=f4 v=0
25280 On ch=1 n=f5 v=95
25344 On ch=2 n=d3 v=120
25344 On ch=2 n=d4 v=117
25575 On ch=1 n=d6 v=0
25575 On ch=1 n=f6 v=0
25575 On ch=1 n=f5 v=0
25575 On ch=1 n=a#5 v=0
25600 On ch=1 n=f5 v=125
25600 On ch=1 n=a#5 v=127
25600 On ch=1 n=d6 v=126
25600 On ch=1 n=f6 v=126
25600 On ch=2 n=d3 v=0
25600 On ch=2 n=d4 v=0
25600 On ch=2 n=a#2 v=109
25600 On ch=2 n=d3 v=110
25600 On ch=2 n=f3 v=111
25600 On ch=2 n=a#3 v=109
25831 On ch=1 n=f5 v=0
25831 On ch=1 n=a#5 v=0
25831 On ch=1 n=d6 v=0
25831 On ch=1 n=f6 v=0
25856 On ch=1 n=g6 v=118
25856 On ch=1 n=e6 v=102
25856 On ch=2 n=a#2 v=0
25856 On ch=2 n=d3 v=0
25856 On ch=2 n=f3 v=0
25856 On ch=2 n=a#3 v=0
25856 On ch=2 n=a2 v=108
25856 On ch=2 n=a3 v=108
25914 On ch=1 n=e6 v=0
25920 On ch=1 n=d6 v=101
25978 On ch=1 n=d6 v=0
25984 On ch=1 n=e6 v=119
26042 On ch=1 n=e6 v=0
26048 On ch=1 n=c6 v=100
26106 On ch=1 n=c6 v=0
26112 On ch=1 n=e6 v=122
26112 On ch=2 n=a2 v=0
26112 On ch=2 n=a3 v=0
26112 On ch=2 n=f2 v=115
26112 On ch=2 n=f3 v=114
26170 On ch=1 n=e6 v=0
26176 On ch=1 n=b5 v=99
26228 On ch=2 n=f2 v=0
26228 On ch=2 n=f3 v=0
26234 On ch=1 n=b5 v=0
26240 On ch=1 n=e6 v=125
26240 On ch=2 n=f2 v=124
26240 On ch=2 n=f3 v=125
26298 On ch=1 n=e6 v=0
26304 On ch=1 n=a5 v=94
26318 On ch=1 n=g6 v=0
26356 On ch=2 n=f2 v=0
26356 On ch=2 n=f3 v=0
26362 On ch=1 n=a5 v=0
26368 On ch=1 n=g6 v=114
26368 On ch=1 n=e6 v=127
26368 On ch=2 n=d2 v=119
26368 On ch=2 n=d3 v=121
26426 On ch=1 n=e6 v=0
26432 On ch=1 n=d6 v=105
26490 On ch=1 n=d6 v=0
26496 On ch=1 n=e6 v=117
26554 On ch=1 n=e6 v=0
26560 On ch=1 n=c6 v=100
26618 On ch=1 n=c6 v=0
26624 On ch=1 n=e6 v=125
26624 On ch=2 n=a3 v=107
26682 On ch=1 n=e6 v=0
26688 On ch=1 n=b5 v=96
26746 On ch=1 n=b5 v=0
26752 On ch=1 n=e6 v=122
26810 On ch=1 n=e6 v=0
26816 On ch=1 n=a5 v=94
26874 On ch=1 n=a5 v=0
26880 On ch=1 n=e6 v=127
26880 On ch=2 n=a3 v=0
26880 On ch=2 n=g4 v=127
26880 On ch=2 n=a4 v=126
26880 On ch=2 n=e5 v=126
26938 On ch=1 n=e6 v=0
26944 On ch=1 n=d6 v=107
27002 On ch=1 n=d6 v=0
27008 On ch=1 n=e6 v=117
27066 On ch=1 n=e6 v=0
27072 On ch=1 n=c6 v=101
27130 On ch=1 n=c6 v=0
27136 On ch=1 n=e6 v=122
27194 On ch=1 n=e6 v=0
27200 On ch=1 n=b5 v=96
27258 On ch=1 n=b5 v=0
27264 On ch=1 n=e6 v=126
27322 On ch=1 n=e6 v=0
27328 On ch=1 n=a5 v=93
27342 On ch=1 n=g6 v=0
27342 On ch=2 n=d2 v=0
27342 On ch=2 n=d3 v=0
27342 On ch=2 n=g4 v=0
27342 On ch=2 n=a4 v=0
27342 On ch=2 n=e5 v=0
27386 On ch=1 n=a5 v=0
27392 On ch=1 n=f6 v=109
27392 On ch=1 n=e6 v=127
27392 On ch=2 n=f4 v=114
27392 On ch=2 n=a4 v=113
27392 On ch=2 n=d5 v=112
27450 On ch=1 n=e6 v=0
27456 On ch=1 n=d6 v=108
27514 On ch=1 n=d6 v=0
27520 On ch=1 n=e6 v=116
27578 On ch=1 n=e6 v=0
27584 On ch=1 n=c6 v=97
27642 On ch=1 n=c6 v=0
27648 On ch=1 n=e6 v=126
27706 On ch=1 n=e6 v=0
27712 On ch=1 n=b5 v=98
27770 On ch=1 n=b5 v=0
27776 On ch=1 n=e6 v=122
27834 On ch=1 n=e6 v=0
27840 On ch=1 n=a5 v=91
27854 On ch=1 n=f6 v=0
27854 On ch=2 n=f4 v=0
27854 On ch=2 n=a4 v=0
27854 On ch=2 n=d5 v=0
27898 On ch=1 n=a5 v=0
27904 On ch=1 n=f6 v=112
27904 On ch=1 n=e6 v=127
27904 On ch=2 n=g3 v=100
27951 On ch=2 n=f4 v=100
27962 On ch=1 n=e6 v=0
27968 On ch=1 n=d6 v=106
27998 On ch=2 n=b4 v=101
28026 On ch=1 n=d6 v=0
28032 On ch=1 n=e6 v=119
28090 On ch=1 n=e6 v=0
28096 On ch=1 n=c6 v=100
28154 On ch=1 n=c6 v=0
28160 On ch=1 n=e6 v=126
28160 On ch=2 n=e2 v=115
28160 On ch=2 n=e3 v=115
28218 On ch=1 n=e6 v=0
28224 On ch=1 n=b5 v=98
28276 On ch=2 n=e2 v=0
28276 On ch=2 n=e3 v=0
28282 On ch=1 n=b5 v=0
28288 On ch=1 n=e6 v=124
28288 On ch=2 n=e2 v=123
28288 On ch=2 n=e3 v=125
28346 On ch=1 n=e6 v=0
28352 On ch=1 n=a5 v=93
28366 On ch=1 n=f6 v=0
28366 On ch=2 n=g3 v=0
28366 On ch=2 n=f4 v=0
28366 On ch=2 n=b4 v=0
28404 On ch=2 n=e2 v=0
28404 On ch=2 n=e3 v=0
28410 On ch=1 n=a5 v=0
28416 On ch=1 n=f6 v=112
28416 On ch=1 n=e6 v=127
28416 On ch=2 n=c2 v=114
28416 On ch=2 n=c3 v=114
28474 On ch=1 n=e6 v=0
28480 On ch=1 n=d6 v=107
28538 On ch=1 n=d6 v=0
28544 On ch=1 n=e6 v=115
28602 On ch=1 n=e6 v=0
28608 On ch=1 n=c6 v=100
28666 On ch=1 n=c6 v=0
28672 On ch=1 n=e6 v=124
28672 On ch=2 n=g3 v=99
28730 On ch=1 n=e6 v=0
28736 On ch=1 n=b5 v=99
28794 On ch=1 n=b5 v=0
28800 On ch=1 n=e6 v=123
28858 On ch=1 n=e6 v=0
28864 On ch=1 n=a5 v=92
28903 On ch=2 n=g3 v=0
28922 On ch=1 n=a5 v=0
28928 On ch=1 n=e6 v=127
28928 On ch=2 n=f4 v=127
28928 On ch=2 n=a4 v=126
28928 On ch=2 n=d5 v=127
28986 On ch=1 n=e6 v=0
28992 On ch=1 n=d6 v=105
29050 On ch=1 n=d6 v=0
29056 On ch=1 n=e6 v=118
29114 On ch=1 n=e6 v=0
29120 On ch=1 n=c6 v=99
29178 On ch=1 n=c6 v=0
29184 On ch=1 n=e6 v=126
29242 On ch=1 n=e6 v=0
29248 On ch=1 n=b5 v=98
29306 On ch=1 n=b5 v=0
29312 On ch=1 n=e6 v=123
29370 On ch=1 n=e6 v=0
29376 On ch=1 n=a5 v=92
29390 On ch=1 n=f6 v=0
29390 On ch=2 n=c2 v=0
29390 On ch=2 n=c3 v=0
29390 On ch=2 n=f4 v=0
29390 On ch=2 n=a4 v=0
29390 On ch=2 n=d5 v=0
29434 On ch=1 n=a5 v=0
29440 On ch=1 n=e6 v=106
29440 On ch=1 n=e6 v=127
29440 On ch=2 n=e4 v=111
29440 On ch=2 n=g4 v=111
29440 On ch=2 n=c5 v=110
29498 On ch=1 n=e6 v=0
29504 On ch=1 n=d6 v=105
29562 On ch=1 n=d6 v=0
29568 On ch=1 n=e6 v=119
29626 On ch=1 n=e6 v=0
29632 On ch=1 n=c6 v=98
29690 On ch=1 n=c6 v=0
29696 On ch=1 n=e6 v=124
29754 On ch=1 n=e6 v=0
29760 On ch=1 n=b5 v=99
29818 On ch=1 n=b5 v=0
29824 On ch=1 n=e6 v=124
29882 On ch=1 n=e6 v=0
29888 On ch=1 n=a5 v=90
29902 On ch=1 n=e6 v=0
29902 On ch=2 n=e4 v=0
29902 On ch=2 n=g4 v=0
29902 On ch=2 n=c5 v=0
29946 On ch=1 n=a5 v=0
29952 On ch=2 n=d4 v=125
29999 On ch=2 n=b4 v=125
30046 On ch=2 n=f5 v=126
30080 On ch=1 n=e6 v=97
30138 On ch=1 n=e6 v=0
30144 On ch=1 n=c6 v=92
30202 On ch=1 n=c6 v=0
30208 On ch=1 n=e6 v=113
30266 On ch=1 n=e6 v=0
30272 On ch=1 n=b5 v=89
30330 On ch=1 n=b5 v=0
30336 On ch=1 n=e6 v=107
30394 On ch=1 n=e6 v=0
30400 On ch=1 n=a5 v=77
30414 On ch=2 n=d4 v=0
30414 On ch=2 n=b4 v=0
30414 On ch=2 n=f5 v=0
30464 On ch=1 n=c6 v=97
30464 On ch=2 n=e3 v=85
30534 On ch=2 n=e3 v=0
30592 On ch=1 n=e6 v=92
30592 On ch=2 n=e4 v=124
30650 On ch=1 n=e6 v=0
30656 On ch=1 n=d6 v=91
30662 On ch=2 n=e4 v=0
30714 On ch=1 n=d6 v=0
30720 On ch=1 n=e6 v=102
30720 On ch=2 n=a4 v=115
30778 On ch=1 n=e6 v=0
30784 On ch=1 n=c6 v=80
30790 On ch=2 n=a4 v=0
30842 On ch=1 n=c6 v=0
30848 On ch=1 n=e6 v=95
30848 On ch=2 n=d5 v=102
30906 On ch=1 n=e6 v=0
30912 On ch=1 n=b5 v=75
30918 On ch=2 n=d5 v=0
30970 On ch=1 n=b5 v=0
30976 On ch=1 n=e6 v=93
30976 On ch=2 n=e5 v=89
31034 On ch=1 n=e6 v=0
31034 On ch=2 n=e5 v=0
31040 On ch=1 n=a5 v=65
31040 On ch=2 n=d5 v=73
31098 On ch=1 n=a5 v=0
31098 On ch=2 n=d5 v=0
31104 On ch=2 n=e5 v=77
31162 On ch=2 n=e5 v=0
31168 On ch=2 n=c5 v=65
31226 On ch=2 n=c5 v=0
31232 On ch=1 n=e6 v=67
31232 On ch=2 n=e5 v=82
31290 On ch=1 n=e6 v=0
31290 On ch=2 n=e5 v=0
31296 On ch=1 n=g5 v=56
31296 On ch=2 n=b4 v=62
31354 On ch=1 n=g5 v=0
31354 On ch=2 n=b4 v=0
31360 On ch=1 n=e6 v=86
31360 On ch=2 n=e5 v=81
31418 On ch=1 n=e6 v=0
31418 On ch=2 n=e5 v=0
31424 On ch=1 n=f5 v=56
31424 On ch=2 n=b4 v=61
31438 On ch=1 n=a5 v=0
31438 On ch=1 n=c6 v=0
31482 On ch=1 n=f5 v=0
31482 On ch=2 n=b4 v=0
31488 On ch=1 n=e5 v=67
31488 On ch=2 n=f4 v=70
31488 On ch=2 n=a4 v=68
31546 On ch=1 n=e5 v=0
31551 On ch=2 n=f4 v=0
31551 On ch=2 n=a4 v=0
31552 On ch=1 n=d5 v=67
31610 On ch=1 n=d5 v=0
31616 On ch=1 n=e5 v=74
31616 On ch=2 n=e4 v=67
31616 On ch=2 n=g4 v=66
31674 On ch=1 n=e5 v=0
31679 On ch=2 n=e4 v=0
31679 On ch=2 n=g4 v=0
31680 On ch=1 n=c5 v=64
31738 On ch=1 n=c5 v=0
31744 On ch=1 n=e5 v=82
31744 On ch=2 n=d4 v=70
31744 On ch=2 n=f4 v=69
31802 On ch=1 n=e5 v=0
31807 On ch=2 n=d4 v=0
31807 On ch=2 n=f4 v=0
31808 On ch=1 n=b4 v=64
31866 On ch=1 n=b4 v=0
31872 On ch=1 n=e5 v=82
31872 On ch=2 n=c4 v=69
31872 On ch=2 n=e4 v=66
31930 On ch=1 n=e5 v=0
31935 On ch=2 n=c4 v=0
31935 On ch=2 n=e4 v=0
31936 On ch=1 n=a4 v=58
31994 On ch=1 n=a4 v=0
32000 On ch=1 n=c5 v=76
32000 On ch=1 n=g4 v=30
32000 On ch=2 n=e3 v=60
32128 On ch=1 n=g4 v=0
32128 On ch=1 n=f4 v=22
32128 On ch=2 n=e3 v=0
32128 On ch=2 n=d3 v=65
32198 On ch=1 n=f4 v=0
32198 On ch=2 n=d3 v=0
32256 On ch=1 n=e4 v=23
32256 On ch=2 n=c3 v=71
32319 On ch=1 n=e4 v=0
32319 On ch=2 n=c3 v=0
32384 On ch=1 n=d4 v=21
32384 On ch=2 n=b2 v=66
32447 On ch=1 n=d4 v=0
32447 On ch=2 n=b2 v=0
32507 On ch=1 n=c5 v=0
32512 On ch=1 n=c4 v=67
32512 On ch=1 n=a4 v=70
32512 On ch=2 n=a2 v=70
32628 On ch=1 n=c4 v=0
32628 On ch=1 n=a4 v=0
32640 On ch=1 n=c6 v=58
32698 On ch=1 n=c6 v=0
32704 On ch=1 n=e6 v=54
32743 On ch=2 n=a2 v=0
32762 On ch=1 n=e6 v=0
32768 On ch=1 n=f6 v=56
32768 On ch=2 n=c7 v=79
32826 On ch=1 n=f6 v=0
32832 On ch=1 n=d6 v=44
32890 On ch=1 n=d6 v=0
32894 On ch=2 n=c7 v=0
32896 On ch=1 n=f6 v=51
32954 On ch=1 n=f6 v=0
32960 On ch=1 n=c6 v=40
33018 On ch=1 n=c6 v=0
33024 On ch=1 n=e6 v=56
33024 On ch=2 n=a6 v=60
33082 On ch=1 n=e6 v=0
33088 On ch=1 n=c6 v=43
33146 On ch=1 n=c6 v=0
33150 On ch=2 n=a6 v=0
33152 On ch=1 n=e6 v=53
33210 On ch=1 n=e6 v=0
33216 On ch=1 n=b5 v=42
33274 On ch=1 n=b5 v=0
33280 On ch=1 n=d#6 v=56
33280 On ch=2 n=f5 v=46
33338 On ch=1 n=d#6 v=0
33344 On ch=1 n=c6 v=43
33402 On ch=1 n=c6 v=0
33406 On ch=2 n=f5 v=0
33408 On ch=1 n=d#6 v=52
33466 On ch=1 n=d#6 v=0
33472 On ch=1 n=b5 v=44
33530 On ch=1 n=b5 v=0
33536 On ch=1 n=d6 v=54
33536 On ch=2 n=d5 v=55
33594 On ch=1 n=d6 v=0
33600 On ch=1 n=a#5 v=45
33658 On ch=1 n=a#5 v=0
33662 On ch=2 n=d5 v=0
33664 On ch=1 n=d6 v=50
33722 On ch=1 n=d6 v=0
33728 On ch=1 n=a5 v=42
33786 On ch=1 n=a5 v=0
33792 On ch=1 n=c#6 v=55
33792 On ch=2 n=f6 v=78
33850 On ch=1 n=c#6 v=0
33856 On ch=1 n=a#5 v=43
33914 On ch=1 n=a#5 v=0
33918 On ch=2 n=f6 v=0
33920 On ch=1 n=c#6 v=50
33978 On ch=1 n=c#6 v=0
33984 On ch=1 n=a5 v=42
34042 On ch=1 n=a5 v=0
34048 On ch=1 n=a5 v=53
34048 On ch=1 n=c6 v=55
34164 On ch=1 n=a5 v=0
34164 On ch=1 n=c6 v=0
34176 On ch=1 n=a4 v=39
34176 On ch=1 n=e5 v=38
34292 On ch=1 n=a4 v=0
34292 On ch=1 n=e5 v=0
34304 On ch=1 n=e7 v=64
34304 On ch=1 n=a6 v=47
34362 On ch=1 n=a6 v=0
34367 On ch=1 n=e7 v=0
34368 On ch=1 n=g6 v=43
34426 On ch=1 n=g6 v=0
34432 On ch=1 n=e7 v=51
34432 On ch=1 n=a6 v=49
34432 On ch=2 n=e5 v=56
34432 On ch=2 n=b5 v=55
34490 On ch=1 n=a6 v=0
34495 On ch=1 n=e7 v=0
34496 On ch=1 n=g6 v=43
34548 On ch=2 n=e5 v=0
34548 On ch=2 n=b5 v=0
34554 On ch=1 n=g6 v=0
34560 On ch=1 n=c7 v=49
34560 On ch=1 n=g6 v=50
34560 On ch=2 n=c5 v=64
34560 On ch=2 n=a#5 v=62
34618 On ch=1 n=g6 v=0
34624 On ch=1 n=c6 v=40
34676 On ch=2 n=c5 v=0
34676 On ch=2 n=a#5 v=0
34682 On ch=1 n=c6 v=0
34688 On ch=1 n=g6 v=55
34688 On ch=2 n=f4 v=47
34688 On ch=2 n=c5 v=46
34746 On ch=1 n=g6 v=0
34752 On ch=1 n=a6 v=54
34804 On ch=2 n=f4 v=0
34804 On ch=2 n=c5 v=0
34810 On ch=1 n=a6 v=0
34816 On ch=1 n=c7 v=0
34816 On ch=1 n=c7 v=51
34816 On ch=1 n=g6 v=49
34874 On ch=1 n=g6 v=0
34879 On ch=1 n=c7 v=0
34880 On ch=1 n=c6 v=40
34938 On ch=1 n=c6 v=0
34944 On ch=1 n=c7 v=49
34944 On ch=1 n=f6 v=53
34944 On ch=2 n=d5 v=56
34944 On ch=2 n=a5 v=56
35002 On ch=1 n=f6 v=0
35007 On ch=1 n=c7 v=0
35008 On ch=1 n=e6 v=45
35060 On ch=2 n=d5 v=0
35060 On ch=2 n=a5 v=0
35066 On ch=1 n=e6 v=0
35072 On ch=1 n=a6 v=49
35072 On ch=1 n=e6 v=52
35072 On ch=2 n=a4 v=60
35072 On ch=2 n=g5 v=60
35130 On ch=1 n=e6 v=0
35136 On ch=1 n=a5 v=40
35188 On ch=2 n=a4 v=0
35188 On ch=2 n=g5 v=0
35194 On ch=1 n=a5 v=0
35200 On ch=1 n=e6 v=55
35200 On ch=2 n=d4 v=47
35200 On ch=2 n=a4 v=48
35258 On ch=1 n=e6 v=0
35264 On ch=1 n=f6 v=52
35316 On ch=2 n=d4 v=0
35316 On ch=2 n=a4 v=0
35322 On ch=1 n=f6 v=0
35328 On ch=1 n=a6 v=0
35328 On ch=1 n=a6 v=50
35328 On ch=1 n=e6 v=51
35386 On ch=1 n=e6 v=0
35391 On ch=1 n=a6 v=0
35392 On ch=1 n=a5 v=38
35450 On ch=1 n=a5 v=0
35456 On ch=1 n=a6 v=47
35456 On ch=1 n=d6 v=51
35456 On ch=2 n=d5 v=57
35456 On ch=2 n=f5 v=57
35514 On ch=1 n=d6 v=0
35519 On ch=1 n=a6 v=0
35519 On ch=2 n=d5 v=0
35519 On ch=2 n=f5 v=0
35520 On ch=1 n=c6 v=43
35578 On ch=1 n=c6 v=0
35584 On ch=1 n=c6 v=46
35584 On ch=1 n=e6 v=44
35584 On ch=2 n=a4 v=64
35584 On ch=2 n=e5 v=63
35642 On ch=2 n=a4 v=0
35642 On ch=2 n=e5 v=0
35648 On ch=2 n=a5 v=70
35706 On ch=2 n=a5 v=0
35712 On ch=1 n=c6 v=43
35770 On ch=1 n=c6 v=0
35776 On ch=1 n=e6 v=50
35815 On ch=1 n=c6 v=0
35815 On ch=1 n=e6 v=0
35834 On ch=1 n=e6 v=0
35840 On ch=1 n=c7 v=57
35840 On ch=1 n=a6 v=60
35898 On ch=1 n=a6 v=0
35904 On ch=1 n=g6 v=46
35962 On ch=1 n=g6 v=0
35968 On ch=1 n=e6 v=42
36026 On ch=1 n=e6 v=0
36032 On ch=1 n=c6 v=40
36071 On ch=1 n=c7 v=0
36090 On ch=1 n=c6 v=0
36096 On ch=1 n=g6 v=58
36096 On ch=2 n=a6 v=78
36154 On ch=1 n=g6 v=0
36160 On ch=1 n=f6 v=46
36218 On ch=1 n=f6 v=0
36222 On ch=2 n=a6 v=0
36224 On ch=1 n=d6 v=44
36282 On ch=1 n=d6 v=0
36288 On ch=1 n=b5 v=41
36346 On ch=1 n=b5 v=0
36352 On ch=1 n=e6 v=54
36352 On ch=2 n=f5 v=46
36410 On ch=1 n=e6 v=0
36416 On ch=1 n=d6 v=45
36474 On ch=1 n=d6 v=0
36478 On ch=2 n=f5 v=0
36480 On ch=1 n=c6 v=45
36538 On ch=1 n=c6 v=0
36544 On ch=1 n=a5 v=41
36602 On ch=1 n=a5 v=0
36608 On ch=1 n=e6 v=56
36608 On ch=2 n=d5 v=54
36666 On ch=1 n=e6 v=0
36672 On ch=1 n=d6 v=47
36730 On ch=1 n=d6 v=0
36734 On ch=2 n=d5 v=0
36736 On ch=1 n=a#5 v=43
36794 On ch=1 n=a#5 v=0
36800 On ch=1 n=g5 v=43
36858 On ch=1 n=g5 v=0
36864 On ch=1 n=d6 v=59
36864 On ch=2 n=f6 v=78
36922 On ch=1 n=d6 v=0
36928 On ch=1 n=c6 v=47
36986 On ch=1 n=c6 v=0
36990 On ch=2 n=f6 v=0
36992 On ch=1 n=a5 v=41
37050 On ch=1 n=a5 v=0
37056 On ch=1 n=f5 v=41
37114 On ch=1 n=f5 v=0
37120 On ch=1 n=f5 v=48
37120 On ch=1 n=a5 v=45
37236 On ch=1 n=f5 v=0
37236 On ch=1 n=a5 v=0
37248 On ch=1 n=f4 v=37
37248 On ch=1 n=c5 v=38
37364 On ch=1 n=f4 v=0
37364 On ch=1 n=c5 v=0
37376 On ch=1 n=c7 v=61
37376 On ch=1 n=f6 v=45
37434 On ch=1 n=f6 v=0
37439 On ch=1 n=c7 v=0
37440 On ch=1 n=e6 v=46
37498 On ch=1 n=e6 v=0
37504 On ch=1 n=c7 v=48
37504 On ch=1 n=f6 v=49
37504 On ch=2 n=d5 v=58
37504 On ch=2 n=a5 v=55
37562 On ch=1 n=f6 v=0
37567 On ch=1 n=c7 v=0
37568 On ch=1 n=e6 v=46
37620 On ch=2 n=d5 v=0
37620 On ch=2 n=a5 v=0
37626 On ch=1 n=e6 v=0
37632 On ch=1 n=a6 v=48
37632 On ch=1 n=e6 v=51
37632 On ch=2 n=a4 v=60
37632 On ch=2 n=g5 v=60
37690 On ch=1 n=e6 v=0
37696 On ch=1 n=a5 v=39
37748 On ch=2 n=a4 v=0
37748 On ch=2 n=g5 v=0
37754 On ch=1 n=a5 v=0
37760 On ch=1 n=e6 v=56
37760 On ch=2 n=d4 v=46
37760 On ch=2 n=a4 v=49
37818 On ch=1 n=e6 v=0
37824 On ch=1 n=f6 v=50
37876 On ch=2 n=d4 v=0
37876 On ch=2 n=a4 v=0
37882 On ch=1 n=f6 v=0
37888 On ch=1 n=a6 v=0
37888 On ch=1 n=a6 v=52
37888 On ch=1 n=e6 v=49
37946 On ch=1 n=e6 v=0
37951 On ch=1 n=a6 v=0
37952 On ch=1 n=a5 v=40
38010 On ch=1 n=a5 v=0
38016 On ch=1 n=a6 v=50
38016 On ch=1 n=d6 v=51
38016 On ch=2 n=a4 v=55
38016 On ch=2 n=f5 v=54
38074 On ch=1 n=d6 v=0
38079 On ch=1 n=a6 v=0
38080 On ch=1 n=c6 v=44
38132 On ch=2 n=a4 v=0
38132 On ch=2 n=f5 v=0
38138 On ch=1 n=c6 v=0
38144 On ch=1 n=f6 v=49
38144 On ch=1 n=c6 v=50
38144 On ch=2 n=f4 v=60
38144 On ch=2 n=d#5 v=61
38202 On ch=1 n=c6 v=0
38208 On ch=1 n=f5 v=41
38260 On ch=2 n=f4 v=0
38260 On ch=2 n=d#5 v=0
38266 On ch=1 n=f5 v=0
38272 On ch=1 n=c6 v=56
38272 On ch=2 n=a#3 v=49
38272 On ch=2 n=f4 v=46
38330 On ch=1 n=c6 v=0
38336 On ch=1 n=d6 v=51
38388 On ch=2 n=a#3 v=0
38388 On ch=2 n=f4 v=0
38394 On ch=1 n=d6 v=0
38400 On ch=1 n=f6 v=0
38400 On ch=1 n=f6 v=49
38400 On ch=1 n=a#5 v=45
38458 On ch=1 n=a#5 v=0
38463 On ch=1 n=f6 v=0
38464 On ch=1 n=f5 v=40
38522 On ch=1 n=f5 v=0
38528 On ch=1 n=f6 v=47
38528 On ch=1 n=a#5 v=52
38528 On ch=2 n=a#4 v=57
38528 On ch=2 n=d5 v=57
38586 On ch=1 n=a#5 v=0
38591 On ch=1 n=f6 v=0
38591 On ch=2 n=a#4 v=0
38591 On ch=2 n=d5 v=0
38592 On ch=1 n=a5 v=46
38650 On ch=1 n=a5 v=0
38656 On ch=1 n=g#5 v=43
38656 On ch=1 n=b5 v=41
38656 On ch=2 n=e4 v=60
38656 On ch=2 n=b4 v=61
38714 On ch=2 n=e4 v=0
38714 On ch=2 n=b4 v=0
38720 On ch=2 n=e6 v=81
38778 On ch=2 n=e6 v=0
38784 On ch=2 n=f#6 v=69
38842 On ch=2 n=f#6 v=0
38848 On ch=2 n=g6 v=84
38887 On ch=1 n=g#5 v=0
38887 On ch=1 n=b5 v=0
38906 On ch=2 n=g6 v=0
38912 On ch=1 n=c6 v=83
38912 On ch=2 n=g#6 v=110
38970 On ch=1 n=c6 v=0
38976 On ch=1 n=a5 v=72
39034 On ch=1 n=a5 v=0
39038 On ch=2 n=g#6 v=0
39040 On ch=1 n=c6 v=84
39098 On ch=1 n=c6 v=0
39104 On ch=1 n=g#5 v=71
39162 On ch=1 n=g#5 v=0
39168 On ch=1 n=b5 v=89
39168 On ch=2 n=e6 v=93
39226 On ch=1 n=b5 v=0
39232 On ch=1 n=g#5 v=72
39290 On ch=1 n=g#5 v=0
39294 On ch=2 n=e6 v=0
39296 On ch=1 n=b5 v=88
39354 On ch=1 n=b5 v=0
39360 On ch=1 n=g5 v=73
39418 On ch=1 n=g5 v=0
39424 On ch=1 n=a#5 v=89
39424 On ch=2 n=c5 v=75
39482 On ch=1 n=a#5 v=0
39488 On ch=1 n=g5 v=73
39546 On ch=1 n=g5 v=0
39550 On ch=2 n=c5 v=0
39552 On ch=1 n=a#5 v=84
39610 On ch=1 n=a#5 v=0
39616 On ch=1 n=f#5 v=69
39674 On ch=1 n=f#5 v=0
39680 On ch=1 n=a5 v=90
39680 On ch=2 n=a4 v=92
39738 On ch=1 n=a5 v=0
39744 On ch=1 n=f#5 v=73
39802 On ch=1 n=f#5 v=0
39806 On ch=2 n=a4 v=0
39808 On ch=1 n=g5 v=81
39866 On ch=1 n=g5 v=0
39872 On ch=1 n=e5 v=74
39930 On ch=1 n=e5 v=0
39936 On ch=1 n=g#5 v=91
39936 On ch=2 n=c6 v=127
39994 On ch=1 n=g#5 v=0
40000 On ch=1 n=f#5 v=75
40058 On ch=1 n=f#5 v=0
40062 On ch=2 n=c6 v=0
40064 On ch=1 n=g#5 v=84
40122 On ch=1 n=g#5 v=0
40128 On ch=1 n=e5 v=70
40186 On ch=1 n=e5 v=0
40192 On ch=1 n=e5 v=89
40192 On ch=1 n=g5 v=90
40192 On ch=2 n=b3 v=64
40308 On ch=2 n=b3 v=0
40320 On ch=2 n=e3 v=61
40423 On ch=1 n=e5 v=0
40423 On ch=1 n=g5 v=0
40436 On ch=2 n=e3 v=0
40448 On ch=1 n=b6 v=105
40448 On ch=1 n=e6 v=74
40448 On ch=2 n=g4 v=101
40448 On ch=2 n=b4 v=103
40448 On ch=2 n=e5 v=100
40506 On ch=1 n=e6 v=0
40511 On ch=1 n=b6 v=0
40512 On ch=1 n=d6 v=73
40564 On ch=2 n=g4 v=0
40564 On ch=2 n=b4 v=0
40564 On ch=2 n=e5 v=0
40570 On ch=1 n=d6 v=0
40576 On ch=1 n=b6 v=81
40576 On ch=1 n=e6 v=85
40576 On ch=2 n=g4 v=79
40576 On ch=2 n=b4 v=78
40576 On ch=2 n=d5 v=77
40634 On ch=1 n=e6 v=0
40639 On ch=1 n=b6 v=0
40640 On ch=1 n=d6 v=76
40692 On ch=2 n=g4 v=0
40692 On ch=2 n=b4 v=0
40692 On ch=2 n=d5 v=0
40698 On ch=1 n=d6 v=0
40704 On ch=1 n=g6 v=69
40704 On ch=1 n=d6 v=84
40704 On ch=2 n=d4 v=59
40762 On ch=1 n=d6 v=0
40768 On ch=1 n=g5 v=66
40820 On ch=2 n=d4 v=0
40826 On ch=1 n=g5 v=0
40830 On ch=1 n=g6 v=0
40832 On ch=1 n=d6 v=92
40832 On ch=2 n=g3 v=60
40890 On ch=1 n=d6 v=0
40896 On ch=1 n=c6 v=75
40948 On ch=2 n=g3 v=0
40954 On ch=1 n=c6 v=0
40960 On ch=1 n=d6 v=70
40960 On ch=1 n=c6 v=84
40960 On ch=2 n=g4 v=102
40960 On ch=2 n=d5 v=101
40960 On ch=2 n=f5 v=102
41018 On ch=1 n=c6 v=0
41023 On ch=1 n=d6 v=0
41024 On ch=1 n=g5 v=71
41076 On ch=2 n=g4 v=0
41076 On ch=2 n=d5 v=0
41076 On ch=2 n=f5 v=0
41082 On ch=1 n=g5 v=0
41088 On ch=1 n=e6 v=83
41088 On ch=1 n=b5 v=86
41088 On ch=2 n=g4 v=80
41088 On ch=2 n=d5 v=80
41088 On ch=2 n=e5 v=78
41146 On ch=1 n=b5 v=0
41151 On ch=1 n=e6 v=0
41152 On ch=1 n=b5 v=82
41204 On ch=2 n=g4 v=0
41204 On ch=2 n=d5 v=0
41204 On ch=2 n=e5 v=0
41210 On ch=1 n=b5 v=0
41216 On ch=1 n=f6 v=85
41216 On ch=1 n=a#5 v=80
41216 On ch=2 n=f4 v=60
41274 On ch=1 n=a#5 v=0
41280 On ch=1 n=f5 v=68
41332 On ch=2 n=f4 v=0
41338 On ch=1 n=f5 v=0
41344 On ch=1 n=a#5 v=88
41344 On ch=2 n=a#3 v=61
41402 On ch=1 n=a#5 v=0
41408 On ch=1 n=d6 v=89
41447 On ch=1 n=f6 v=0
41460 On ch=2 n=a#3 v=0
41466 On ch=1 n=d6 v=0
41472 On ch=1 n=d7 v=102
41472 On ch=1 n=g6 v=94
41472 On ch=2 n=a#4 v=103
41472 On ch=2 n=d5 v=100
41472 On ch=2 n=g5 v=101
41530 On ch=1 n=g6 v=0
41535 On ch=1 n=d7 v=0
41536 On ch=1 n=d6 v=70
41588 On ch=2 n=a#4 v=0
41588 On ch=2 n=d5 v=0
41588 On ch=2 n=g5 v=0
41594 On ch=1 n=d6 v=0
41600 On ch=1 n=d7 v=84
41600 On ch=1 n=g6 v=89
41600 On ch=2 n=a#4 v=77
41600 On ch=2 n=d5 v=78
41600 On ch=2 n=f5 v=80
41658 On ch=1 n=g6 v=0
41663 On ch=1 n=d7 v=0
41664 On ch=1 n=f6 v=76
41716 On ch=2 n=a#4 v=0
41716 On ch=2 n=d5 v=0
41716 On ch=2 n=f5 v=0
41722 On ch=1 n=f6 v=0
41728 On ch=1 n=a#6 v=73
41728 On ch=1 n=f6 v=81
41728 On ch=2 n=a#4 v=68
41786 On ch=1 n=f6 v=0
41792 On ch=1 n=a#5 v=67
41844 On ch=2 n=a#4 v=0
41850 On ch=1 n=a#5 v=0
41856 On ch=1 n=f6 v=92
41856 On ch=2 n=d#4 v=62
41914 On ch=1 n=f6 v=0
41920 On ch=1 n=g6 v=86
41959 On ch=1 n=a#6 v=0
41972 On ch=2 n=d#4 v=0
41978 On ch=1 n=g6 v=0
41984 On ch=1 n=f6 v=69
41984 On ch=1 n=f6 v=78
41984 On ch=2 n=a#4 v=101
41984 On ch=2 n=d5 v=100
41984 On ch=2 n=a5 v=102
42042 On ch=1 n=f6 v=0
42047 On ch=1 n=f6 v=0
42048 On ch=1 n=d6 v=71
42100 On ch=2 n=a#4 v=0
42100 On ch=2 n=d5 v=0
42100 On ch=2 n=a5 v=0
42106 On ch=1 n=d6 v=0
42112 On ch=1 n=g6 v=84
42112 On ch=1 n=g6 v=90
42112 On ch=2 n=a#4 v=78
42112 On ch=2 n=d5 v=77
42112 On ch=2 n=g5 v=76
42170 On ch=1 n=g6 v=0
42175 On ch=1 n=g6 v=0
42176 On ch=1 n=d#6 v=73
42228 On ch=2 n=a#4 v=0
42228 On ch=2 n=d5 v=0
42228 On ch=2 n=g5 v=0
42234 On ch=1 n=d#6 v=0
42240 On ch=1 n=a6 v=88
42240 On ch=1 n=a6 v=94
42240 On ch=2 n=d5 v=74
42298 On ch=1 n=a6 v=0
42304 On ch=1 n=d6 v=68
42356 On ch=2 n=d5 v=0
42362 On ch=1 n=d6 v=0
42368 On ch=1 n=a6 v=90
42368 On ch=2 n=f4 v=60
42426 On ch=1 n=a6 v=0
42432 On ch=1 n=e7 v=98
42471 On ch=1 n=a6 v=0
42484 On ch=2 n=f4 v=0
42490 On ch=1 n=e7 v=0
42496 On ch=1 n=f7 v=99
42496 On ch=1 n=a#6 v=74
42496 On ch=2 n=f5 v=127
42496 On ch=2 n=d6 v=127
42554 On ch=1 n=a#6 v=0
42559 On ch=1 n=f7 v=0
42560 On ch=1 n=f6 v=67
42612 On ch=2 n=f5 v=0
42612 On ch=2 n=d6 v=0
42618 On ch=1 n=f6 v=0
42624 On ch=1 n=f7 v=82
42624 On ch=1 n=a#6 v=89
42624 On ch=2 n=a5 v=97
42682 On ch=1 n=a#6 v=0
42687 On ch=1 n=f7 v=0
42688 On ch=1 n=a6 v=81
42740 On ch=2 n=a5 v=0
42746 On ch=1 n=a6 v=0
42752 On ch=1 n=d7 v=74
42752 On ch=1 n=a6 v=87
42752 On ch=2 n=f5 v=76
42810 On ch=1 n=a6 v=0
42816 On ch=1 n=d6 v=67
42868 On ch=2 n=f5 v=0
42874 On ch=1 n=d6 v=0
42880 On ch=1 n=a6 v=98
42880 On ch=2 n=a#4 v=67
42938 On ch=1 n=a6 v=0
42944 On ch=1 n=a6 v=90
42983 On ch=1 n=d7 v=0
42996 On ch=2 n=a#4 v=0
43002 On ch=1 n=a6 v=0
43008 On ch=1 n=a7 v=105
43008 On ch=1 n=d7 v=101
43008 On ch=2 n=a5 v=127
43008 On ch=2 n=f6 v=127
43066 On ch=1 n=d7 v=0
43071 On ch=1 n=a7 v=0
43072 On ch=1 n=a6 v=79
43124 On ch=2 n=a5 v=0
43124 On ch=2 n=f6 v=0
43130 On ch=1 n=a6 v=0
43136 On ch=1 n=a7 v=94
43136 On ch=1 n=d7 v=99
43136 On ch=2 n=d6 v=108
43194 On ch=1 n=d7 v=0
43199 On ch=1 n=a7 v=0
43200 On ch=1 n=c7 v=88
43252 On ch=2 n=d6 v=0
43258 On ch=1 n=c7 v=0
43264 On ch=1 n=f7 v=86
43264 On ch=1 n=c7 v=95
43264 On ch=2 n=a5 v=83
43322 On ch=1 n=c7 v=0
43328 On ch=1 n=f6 v=78
43380 On ch=2 n=a5 v=0
43386 On ch=1 n=f6 v=0
43392 On ch=1 n=c7 v=111
43392 On ch=2 n=d5 v=75
43450 On ch=1 n=c7 v=0
43456 On ch=1 n=c7 v=100
43495 On ch=1 n=f7 v=0
43508 On ch=2 n=d5 v=0
43514 On ch=1 n=c7 v=0
43520 On ch=1 n=c8 v=85
43520 On ch=1 n=f7 v=82
43520 On ch=2 n=a5 v=127
43520 On ch=2 n=f6 v=127
43578 On ch=1 n=f7 v=0
43583 On ch=1 n=c8 v=0
43584 On ch=1 n=c7 v=82
43636 On ch=2 n=a5 v=0
43636 On ch=2 n=f6 v=0
43642 On ch=1 n=c7 v=0
43648 On ch=1 n=c8 v=99
43648 On ch=1 n=f7 v=111
43648 On ch=2 n=d6 v=119
43706 On ch=1 n=f7 v=0
43711 On ch=1 n=c8 v=0
43712 On ch=1 n=c7 v=89
43764 On ch=2 n=d6 v=0
43770 On ch=1 n=c7 v=0
43776 On ch=1 n=a7 v=92
43776 On ch=1 n=f7 v=115
43776 On ch=2 n=a5 v=91
43834 On ch=1 n=f7 v=0
43840 On ch=1 n=a6 v=86
43892 On ch=2 n=a5 v=0
43898 On ch=1 n=a6 v=0
43904 On ch=1 n=c7 v=110
43904 On ch=2 n=d#5 v=85
43962 On ch=1 n=c7 v=0
43968 On ch=1 n=f7 v=122
44007 On ch=1 n=a7 v=0
44020 On ch=2 n=d#5 v=0
44026 On ch=1 n=f7 v=0
44032 On ch=1 n=c8 v=115
44032 On ch=1 n=c8 v=127
44032 On ch=2 n=c6 v=127
44032 On ch=2 n=a6 v=127
44090 On ch=1 n=c8 v=0
44096 On ch=1 n=c7 v=83
44148 On ch=1 n=c8 v=0
44148 On ch=2 n=c6 v=0
44148 On ch=2 n=a6 v=0
44154 On ch=1 n=c7 v=0
44160 On ch=1 n=c8 v=107
44160 On ch=1 n=f7 v=118
44160 On ch=2 n=f6 v=118
44218 On ch=1 n=f7 v=0
44224 On ch=1 n=e7 v=104
44276 On ch=1 n=c8 v=0
44276 On ch=2 n=f6 v=0
44282 On ch=1 n=e7 v=0
44288 On ch=1 n=c7 v=125
44288 On ch=1 n=e7 v=125
44288 On ch=2 n=e5 v=106
44288 On ch=2 n=a5 v=105
44288 On ch=2 n=c6 v=107
44288 On ch=2 n=e6 v=108
44404 On ch=1 n=c7 v=0
44404 On ch=1 n=e7 v=0
44404 On ch=2 n=e5 v=0
44404 On ch=2 n=a5 v=0
44404 On ch=2 n=c6 v=0
44404 On ch=2 n=e6 v=0
44416 On ch=1 n=a6 v=43
44416 On ch=1 n=c7 v=41
44474 On ch=1 n=a6 v=0
44474 On ch=1 n=c7 v=0
44480 On ch=1 n=g6 v=45
44480 On ch=1 n=a#6 v=43
44538 On ch=1 n=g6 v=0
44538 On ch=1 n=a#6 v=0
44544 On ch=1 n=a6 v=54
44544 On ch=1 n=c7 v=53
44602 On ch=1 n=a6 v=0
44602 On ch=1 n=c7 v=0
44608 On ch=1 n=f#6 v=42
44608 On ch=1 n=a6 v=44
44666 On ch=1 n=f#6 v=0
44666 On ch=1 n=a6 v=0
44672 On ch=1 n=a6 v=60
44672 On ch=1 n=a7 v=62
44730 On ch=1 n=a6 v=0
44730 On ch=1 n=a7 v=0
44736 On ch=1 n=c6 v=36
44794 On ch=1 n=c6 v=0
44800 On ch=1 n=a6 v=62
44800 On ch=1 n=c7 v=61
44858 On ch=1 n=a6 v=0
44858 On ch=1 n=c7 v=0
44864 On ch=1 n=f#6 v=43
44864 On ch=1 n=g#6 v=44
44922 On ch=1 n=f#6 v=0
44922 On ch=1 n=g#6 v=0
44928 On ch=1 n=a6 v=53
44928 On ch=1 n=c7 v=51
44986 On ch=1 n=a6 v=0
44986 On ch=1 n=c7 v=0
44992 On ch=1 n=e6 v=41
44992 On ch=1 n=g6 v=41
45050 On ch=1 n=e6 v=0
45050 On ch=1 n=g6 v=0
45056 On ch=1 n=a6 v=55
45056 On ch=1 n=c7 v=55
45114 On ch=1 n=a6 v=0
45114 On ch=1 n=c7 v=0
45120 On ch=1 n=d#6 v=42
45120 On ch=1 n=f#6 v=41
45178 On ch=1 n=d#6 v=0
45178 On ch=1 n=f#6 v=0
45184 On ch=1 n=e6 v=57
45184 On ch=1 n=e7 v=59
45242 On ch=1 n=e6 v=0
45242 On ch=1 n=e7 v=0
45248 On ch=1 n=c6 v=35
45306 On ch=1 n=c6 v=0
45312 On ch=1 n=f#6 v=60
45312 On ch=1 n=a6 v=59
45370 On ch=1 n=f#6 v=0
45370 On ch=1 n=a6 v=0
45376 On ch=1 n=d#6 v=44
45376 On ch=1 n=f#6 v=47
45434 On ch=1 n=d#6 v=0
45434 On ch=1 n=f#6 v=0
45440 On ch=1 n=f#6 v=52
45440 On ch=1 n=a6 v=51
45498 On ch=1 n=f#6 v=0
45498 On ch=1 n=a6 v=0
45504 On ch=1 n=c#6 v=41
45504 On ch=1 n=e6 v=42
45562 On ch=1 n=c#6 v=0
45562 On ch=1 n=e6 v=0
45568 On ch=1 n=f#6 v=58
45568 On ch=1 n=a6 v=57
45626 On ch=1 n=f#6 v=0
45626 On ch=1 n=a6 v=0
45632 On ch=1 n=c#6 v=40
45632 On ch=1 n=d#6 v=41
45690 On ch=1 n=c#6 v=0
45690 On ch=1 n=d#6 v=0
45696 On ch=1 n=c6 v=57
45696 On ch=1 n=c7 v=55
45754 On ch=1 n=c6 v=0
45754 On ch=1 n=c7 v=0
45760 On ch=1 n=e5 v=36
45818 On ch=1 n=e5 v=0
45824 On ch=1 n=c6 v=63
45824 On ch=1 n=e6 v=62
45882 On ch=1 n=c6 v=0
45882 On ch=1 n=e6 v=0
45888 On ch=1 n=a5 v=42
45946 On ch=1 n=a5 v=0
45952 On ch=1 n=b5 v=55
45952 On ch=1 n=d#6 v=52
46010 On ch=1 n=b5 v=0
46010 On ch=1 n=d#6 v=0
46016 On ch=1 n=e5 v=38
46074 On ch=1 n=e5 v=0
46080 On ch=1 n=c6 v=61
46080 On ch=1 n=e6 v=60
46138 On ch=1 n=c6 v=0
46138 On ch=1 n=e6 v=0
46144 On ch=1 n=a5 v=41
46202 On ch=1 n=a5 v=0
46208 On ch=1 n=a#5 v=53
46208 On ch=1 n=d6 v=52
46266 On ch=1 n=a#5 v=0
46266 On ch=1 n=d6 v=0
46272 On ch=1 n=e5 v=38
46330 On ch=1 n=e5 v=0
46336 On ch=1 n=c6 v=62
46336 On ch=1 n=e6 v=60
46394 On ch=1 n=c6 v=0
46394 On ch=1 n=e6 v=0
46400 On ch=1 n=a5 v=42
46458 On ch=1 n=a5 v=0
46464 On ch=1 n=a5 v=52
46464 On ch=1 n=c#6 v=53
46522 On ch=1 n=a5 v=0
46522 On ch=1 n=c#6 v=0
46528 On ch=1 n=e5 v=38
46586 On ch=1 n=e5 v=0
46592 On ch=1 n=c6 v=63
46592 On ch=1 n=e6 v=63
46650 On ch=1 n=c6 v=0
46650 On ch=1 n=e6 v=0
46656 On ch=1 n=a5 v=39
46714 On ch=1 n=a5 v=0
46720 On ch=1 n=g#5 v=51
46720 On ch=1 n=c6 v=51
46778 On ch=1 n=g#5 v=0
46778 On ch=1 n=c6 v=0
46784 On ch=1 n=e5 v=40
46842 On ch=1 n=e5 v=0
46848 On ch=1 n=c6 v=58
46848 On ch=1 n=e6 v=59
47079 On ch=1 n=c6 v=0
47079 On ch=1 n=e6 v=0
47104 On ch=1 n=e5 v=40
47104 On ch=1 n=g#5 v=41
47104 On ch=2 n=e4 v=44
47104 On ch=2 n=c5 v=42
47335 On ch=1 n=e5 v=0
47335 On ch=1 n=g#5 v=0
47335 On ch=2 n=e4 v=0
47335 On ch=2 n=c5 v=0
47360 On ch=2 n=a4 v=59
47424 On ch=1 n=e5 v=41
47482 On ch=1 n=e5 v=0
47486 On ch=2 n=a4 v=0
47488 On ch=1 n=a5 v=54
47546 On ch=1 n=a5 v=0
47552 On ch=1 n=c6 v=51
47610 On ch=1 n=c6 v=0
47616 On ch=1 n=e6 v=55
47616 On ch=2 n=a6 v=77
47674 On ch=1 n=e6 v=0
47680 On ch=1 n=a5 v=38
47738 On ch=1 n=a5 v=0
47742 On ch=2 n=a6 v=0
47744 On ch=1 n=e6 v=56
47802 On ch=1 n=e6 v=0
47808 On ch=1 n=a5 v=41
47866 On ch=1 n=a5 v=0
47872 On ch=1 n=c6 v=54
47872 On ch=2 n=c5 v=48
47930 On ch=1 n=c6 v=0
47936 On ch=1 n=e5 v=41
47994 On ch=1 n=e5 v=0
47998 On ch=2 n=c5 v=0
48000 On ch=1 n=a5 v=52
48058 On ch=1 n=a5 v=0
48064 On ch=1 n=c6 v=53
48122 On ch=1 n=c6 v=0
48128 On ch=1 n=e6 v=57
48128 On ch=2 n=c7 v=76
48186 On ch=1 n=e6 v=0
48192 On ch=1 n=a5 v=40
48250 On ch=1 n=a5 v=0
48254 On ch=2 n=c7 v=0
48256 On ch=1 n=e6 v=55
48314 On ch=1 n=e6 v=0
48320 On ch=1 n=a5 v=41
48378 On ch=1 n=a5 v=0
48384 On ch=1 n=c6 v=53
48384 On ch=2 n=a4 v=50
48442 On ch=1 n=c6 v=0
48448 On ch=1 n=e5 v=39
48506 On ch=1 n=e5 v=0
48510 On ch=2 n=a4 v=0
48512 On ch=1 n=a5 v=52
48570 On ch=1 n=a5 v=0
48576 On ch=1 n=c6 v=54
48634 On ch=1 n=c6 v=0
48640 On ch=1 n=e6 v=55
48640 On ch=2 n=a6 v=77
48698 On ch=1 n=e6 v=0
48704 On ch=1 n=a5 v=40
48762 On ch=1 n=a5 v=0
48766 On ch=2 n=a6 v=0
48768 On ch=1 n=e6 v=55
48826 On ch=1 n=e6 v=0
48832 On ch=1 n=a5 v=42
48890 On ch=1 n=a5 v=0
48896 On ch=1 n=c6 v=54
48896 On ch=2 n=f4 v=46
48954 On ch=1 n=c6 v=0
48960 On ch=1 n=c5 v=33
49018 On ch=1 n=c5 v=0
49022 On ch=2 n=f4 v=0
49024 On ch=1 n=f5 v=51
49082 On ch=1 n=f5 v=0
49088 On ch=1 n=a5 v=52
49146 On ch=1 n=a5 v=0
49152 On ch=1 n=c6 v=57
49152 On ch=2 n=f6 v=75
49210 On ch=1 n=c6 v=0
49216 On ch=1 n=f5 v=39
49274 On ch=1 n=f5 v=0
49278 On ch=2 n=f6 v=0
49280 On ch=1 n=c6 v=54
49338 On ch=1 n=c6 v=0
49344 On ch=1 n=f5 v=42
49402 On ch=1 n=f5 v=0
49408 On ch=1 n=a5 v=55
49408 On ch=2 n=d4 v=53
49466 On ch=1 n=a5 v=0
49472 On ch=1 n=a4 v=35
49530 On ch=1 n=a4 v=0
49534 On ch=2 n=d4 v=0
49536 On ch=1 n=d5 v=52
49594 On ch=1 n=d5 v=0
49600 On ch=1 n=f5 v=51
49658 On ch=1 n=f5 v=0
49664 On ch=1 n=a5 v=56
49664 On ch=2 n=d6 v=79
49722 On ch=1 n=a5 v=0
49728 On ch=1 n=d5 v=40
49786 On ch=1 n=d5 v=0
49790 On ch=2 n=d6 v=0
49792 On ch=1 n=a5 v=53
49850 On ch=1 n=a5 v=0
49856 On ch=1 n=d5 v=39
49914 On ch=1 n=d5 v=0
49920 On ch=1 n=f5 v=54
49920 On ch=2 n=a#3 v=46
49978 On ch=1 n=f5 v=0
49984 On ch=1 n=f4 v=34
50042 On ch=1 n=f4 v=0
50046 On ch=2 n=a#3 v=0
50048 On ch=1 n=a#4 v=51
50106 On ch=1 n=a#4 v=0
50112 On ch=1 n=d5 v=54
50170 On ch=1 n=d5 v=0
50176 On ch=1 n=f5 v=54
50176 On ch=2 n=a#5 v=77
50234 On ch=1 n=f5 v=0
50240 On ch=1 n=a#4 v=41
50298 On ch=1 n=a#4 v=0
50302 On ch=2 n=a#5 v=0
50304 On ch=1 n=f5 v=56
50362 On ch=1 n=f5 v=0
50368 On ch=1 n=a#4 v=38
50426 On ch=1 n=a#4 v=0
50432 On ch=1 n=d5 v=54
50432 On ch=2 n=g3 v=52
50490 On ch=1 n=d5 v=0
50496 On ch=1 n=d4 v=35
50554 On ch=1 n=d4 v=0
50558 On ch=2 n=g3 v=0
50560 On ch=1 n=g4 v=54
50618 On ch=1 n=g4 v=0
50624 On ch=1 n=a#4 v=53
50682 On ch=1 n=a#4 v=0
50688 On ch=1 n=d5 v=59
50688 On ch=2 n=g5 v=78
50746 On ch=1 n=d5 v=0
50752 On ch=1 n=g4 v=42
50810 On ch=1 n=g4 v=0
50814 On ch=2 n=g5 v=0
50816 On ch=1 n=d5 v=56
50874 On ch=1 n=d5 v=0
50880 On ch=1 n=g4 v=41
50938 On ch=1 n=g4 v=0
50944 On ch=1 n=d5 v=56
50944 On ch=2 n=f3 v=46
51002 On ch=1 n=d5 v=0
51008 On ch=1 n=d4 v=35
51066 On ch=1 n=d4 v=0
51070 On ch=2 n=f3 v=0
51072 On ch=1 n=g4 v=54
51130 On ch=1 n=g4 v=0
51136 On ch=1 n=a#4 v=51
51194 On ch=1 n=a#4 v=0
51200 On ch=1 n=d5 v=57
51200 On ch=2 n=f5 v=77
51258 On ch=1 n=d5 v=0
51264 On ch=1 n=g4 v=38
51322 On ch=1 n=g4 v=0
51326 On ch=2 n=f5 v=0
51328 On ch=1 n=d5 v=53
51386 On ch=1 n=d5 v=0
51392 On ch=1 n=g4 v=39
51450 On ch=1 n=g4 v=0
51456 On ch=1 n=f4 v=53
51456 On ch=1 n=a4 v=53
51456 On ch=2 n=d2 v=69
51456 On ch=2 n=d3 v=68
51572 On ch=1 n=f4 v=0
51572 On ch=1 n=a4 v=0
51584 On ch=1 n=c5 v=57
51584 On ch=1 n=e5 v=55
51584 On ch=2 n=a3 v=54
51642 On ch=1 n=c5 v=0
51642 On ch=1 n=e5 v=0
51647 On ch=2 n=a3 v=0
51648 On ch=1 n=a5 v=53
51706 On ch=1 n=a5 v=0
51712 On ch=1 n=e5 v=54
51712 On ch=1 n=a5 v=51
51712 On ch=2 n=d4 v=71
51770 On ch=1 n=e5 v=0
51770 On ch=1 n=a5 v=0
51775 On ch=2 n=d4 v=0
51776 On ch=1 n=c6 v=52
51834 On ch=1 n=c6 v=0
51840 On ch=1 n=a5 v=46
51840 On ch=1 n=c6 v=48
51840 On ch=2 n=f4 v=68
51898 On ch=1 n=a5 v=0
51898 On ch=1 n=c6 v=0
51903 On ch=2 n=f4 v=0
51904 On ch=1 n=e6 v=54
51962 On ch=1 n=e6 v=0
51968 On ch=1 n=a6 v=85
51968 On ch=1 n=c6 v=43
51968 On ch=2 n=c5 v=76
52031 On ch=2 n=c5 v=0
52084 On ch=1 n=c6 v=0
52096 On ch=1 n=e6 v=53
52096 On ch=2 n=a4 v=58
52154 On ch=1 n=e6 v=0
52159 On ch=2 n=a4 v=0
52160 On ch=1 n=c6 v=44
52218 On ch=1 n=c6 v=0
52224 On ch=1 n=e6 v=53
52224 On ch=2 n=d4 v=57
52224 On ch=2 n=f4 v=58
52282 On ch=1 n=e6 v=0
52287 On ch=2 n=d4 v=0
52287 On ch=2 n=f4 v=0
52288 On ch=1 n=b5 v=42
52346 On ch=1 n=b5 v=0
52352 On ch=1 n=e6 v=52
52352 On ch=2 n=a3 v=48
52410 On ch=1 n=e6 v=0
52415 On ch=2 n=a3 v=0
52416 On ch=1 n=a5 v=40
52430 On ch=1 n=a6 v=0
52430 On ch=2 n=d2 v=0
52430 On ch=2 n=d3 v=0
52474 On ch=1 n=a5 v=0
52480 On ch=1 n=a6 v=76
52480 On ch=1 n=e6 v=59
52480 On ch=2 n=c5 v=81
52538 On ch=1 n=e6 v=0
52543 On ch=2 n=c5 v=0
52544 On ch=1 n=d6 v=48
52602 On ch=1 n=d6 v=0
52608 On ch=1 n=e6 v=49
52608 On ch=2 n=a4 v=60
52666 On ch=1 n=e6 v=0
52671 On ch=2 n=a4 v=0
52672 On ch=1 n=c6 v=42
52730 On ch=1 n=c6 v=0
52736 On ch=1 n=e6 v=54
52736 On ch=2 n=d4 v=57
52736 On ch=2 n=f4 v=59
52794 On ch=1 n=e6 v=0
52799 On ch=2 n=d4 v=0
52799 On ch=2 n=f4 v=0
52800 On ch=1 n=b5 v=43
52858 On ch=1 n=b5 v=0
52864 On ch=1 n=e6 v=52
52864 On ch=2 n=a3 v=50
52922 On ch=1 n=e6 v=0
52927 On ch=2 n=a3 v=0
52928 On ch=1 n=a5 v=41
52942 On ch=1 n=a6 v=0
52986 On ch=1 n=a5 v=0
52992 On ch=1 n=a6 v=73
52992 On ch=1 n=e6 v=56
52992 On ch=2 n=c5 v=80
53050 On ch=1 n=e6 v=0
53055 On ch=2 n=c5 v=0
53056 On ch=1 n=d6 v=46
53114 On ch=1 n=d6 v=0
53120 On ch=1 n=e6 v=51
53120 On ch=2 n=a4 v=58
53178 On ch=1 n=e6 v=0
53183 On ch=2 n=a4 v=0
53184 On ch=1 n=c6 v=43
53242 On ch=1 n=c6 v=0
53248 On ch=1 n=e6 v=54
53248 On ch=2 n=d4 v=59
53248 On ch=2 n=f4 v=59
53306 On ch=1 n=e6 v=0
53311 On ch=2 n=d4 v=0
53311 On ch=2 n=f4 v=0
53312 On ch=1 n=b5 v=41
53370 On ch=1 n=b5 v=0
53376 On ch=1 n=e6 v=51
53376 On ch=2 n=a3 v=48
53434 On ch=1 n=e6 v=0
53439 On ch=2 n=a3 v=0
53440 On ch=1 n=a5 v=40
53454 On ch=1 n=a6 v=0
53498 On ch=1 n=a5 v=0
53504 On ch=1 n=a7 v=63
53504 On ch=2 n=d2 v=64
53504 On ch=2 n=d3 v=67
53562 On ch=1 n=a7 v=0
53568 On ch=1 n=e7 v=44
53626 On ch=1 n=e7 v=0
53632 On ch=1 n=f#7 v=52
53632 On ch=1 n=a7 v=53
53632 On ch=2 n=a3 v=55
53690 On ch=1 n=f#7 v=0
53690 On ch=1 n=a7 v=0
53695 On ch=2 n=a3 v=0
53696 On ch=1 n=d7 v=40
53754 On ch=1 n=d7 v=0
53760 On ch=1 n=f#7 v=57
53760 On ch=1 n=a7 v=57
53760 On ch=2 n=d4 v=71
53818 On ch=1 n=f#7 v=0
53818 On ch=1 n=a7 v=0
53823 On ch=2 n=d4 v=0
53824 On ch=1 n=c#7 v=38
53882 On ch=1 n=c#7 v=0
53888 On ch=1 n=f#7 v=56
53888 On ch=1 n=a7 v=54
53888 On ch=2 n=f#4 v=68
53946 On ch=1 n=f#7 v=0
53946 On ch=1 n=a7 v=0
53951 On ch=2 n=f#4 v=0
53952 On ch=1 n=b6 v=38
54010 On ch=1 n=b6 v=0
54016 On ch=1 n=f#7 v=59
54016 On ch=1 n=a7 v=59
54016 On ch=2 n=a4 v=71
54074 On ch=1 n=f#7 v=0
54074 On ch=1 n=a7 v=0
54079 On ch=2 n=a4 v=0
54080 On ch=1 n=a6 v=37
54138 On ch=1 n=a6 v=0
54144 On ch=1 n=f#7 v=57
54144 On ch=1 n=a7 v=61
54144 On ch=2 n=d5 v=73
54202 On ch=1 n=f#7 v=0
54202 On ch=1 n=a7 v=0
54207 On ch=2 n=d5 v=0
54208 On ch=1 n=g#6 v=38
54266 On ch=1 n=g#6 v=0
54272 On ch=1 n=f#7 v=61
54272 On ch=1 n=a7 v=62
54272 On ch=2 n=f#5 v=73
54330 On ch=1 n=f#7 v=0
54330 On ch=1 n=a7 v=0
54335 On ch=2 n=f#5 v=0
54336 On ch=1 n=g6 v=38
54394 On ch=1 n=g6 v=0
54400 On ch=1 n=f#7 v=58
54400 On ch=1 n=a7 v=60
54400 On ch=2 n=a5 v=69
54458 On ch=1 n=f#7 v=0
54458 On ch=1 n=a7 v=0
54463 On ch=2 n=a5 v=0
54464 On ch=1 n=f#6 v=34
54478 On ch=2 n=d2 v=0
54478 On ch=2 n=d3 v=0
54522 On ch=1 n=f#6 v=0
54528 On ch=1 n=f#6 v=52
54528 On ch=1 n=a6 v=51
54528 On ch=2 n=c5 v=100
54528 On ch=2 n=c6 v=101
54586 On ch=1 n=f#6 v=0
54586 On ch=1 n=a6 v=0
54592 On ch=1 n=e6 v=41
54650 On ch=1 n=e6 v=0
54656 On ch=1 n=f#6 v=54
54656 On ch=1 n=a6 v=51
54714 On ch=1 n=f#6 v=0
54714 On ch=1 n=a6 v=0
54720 On ch=1 n=d6 v=39
54759 On ch=2 n=c5 v=0
54759 On ch=2 n=c6 v=0
54778 On ch=1 n=d6 v=0
54784 On ch=1 n=f#6 v=59
54784 On ch=1 n=a6 v=57
54784 On ch=2 n=a4 v=58
54784 On ch=2 n=a5 v=57
54842 On ch=1 n=f#6 v=0
54842 On ch=1 n=a6 v=0
54848 On ch=1 n=c#6 v=39
54906 On ch=1 n=c#6 v=0
54912 On ch=1 n=f#6 v=54
54912 On ch=1 n=a6 v=55
54970 On ch=1 n=f#6 v=0
54970 On ch=1 n=a6 v=0
54976 On ch=1 n=b5 v=37
55015 On ch=2 n=a4 v=0
55015 On ch=2 n=a5 v=0
55034 On ch=1 n=b5 v=0
55040 On ch=1 n=f#6 v=60
55040 On ch=1 n=a6 v=62
55098 On ch=1 n=f#6 v=0
55098 On ch=1 n=a6 v=0
55104 On ch=1 n=a5 v=35
55162 On ch=1 n=a5 v=0
55168 On ch=1 n=f#6 v=60
55168 On ch=1 n=a6 v=59
55226 On ch=1 n=f#6 v=0
55226 On ch=1 n=a6 v=0
55232 On ch=1 n=g#5 v=34
55290 On ch=1 n=g#5 v=0
55296 On ch=1 n=f#6 v=63
55296 On ch=1 n=a6 v=64
55354 On ch=1 n=f#6 v=0
55354 On ch=1 n=a6 v=0
55360 On ch=1 n=g5 v=36
55418 On ch=1 n=g5 v=0
55424 On ch=1 n=f#6 v=61
55424 On ch=1 n=a6 v=60
55482 On ch=1 n=f#6 v=0
55482 On ch=1 n=a6 v=0
55488 On ch=1 n=f#5 v=34
55546 On ch=1 n=f#5 v=0
55552 On ch=1 n=f5 v=54
55552 On ch=1 n=a5 v=52
55616 On ch=1 n=f5 v=0
55616 On ch=1 n=a5 v=0
55616 On ch=1 n=f#5 v=44
55680 On ch=1 n=f#5 v=0
55680 On ch=1 n=a4 v=40
55680 On ch=1 n=c#5 v=43
55744 On ch=1 n=a4 v=0
55744 On ch=1 n=c#5 v=0
55744 On ch=1 n=d5 v=50
55808 On ch=1 n=d5 v=0
55808 On ch=1 n=f5 v=59
55808 On ch=1 n=a5 v=60
55872 On ch=1 n=f5 v=0
55872 On ch=1 n=a5 v=0
55872 On ch=1 n=f#5 v=43
55936 On ch=1 n=f#5 v=0
55936 On ch=1 n=a#4 v=44
55936 On ch=1 n=d5 v=40
56000 On ch=1 n=a#4 v=0
56000 On ch=1 n=d5 v=0
56000 On ch=1 n=d#5 v=49
56064 On ch=1 n=d#5 v=0
56064 On ch=1 n=f5 v=56
56064 On ch=1 n=a5 v=56
56128 On ch=1 n=f5 v=0
56128 On ch=1 n=a5 v=0
56128 On ch=1 n=f#5 v=46
56192 On ch=1 n=f#5 v=0
56192 On ch=1 n=b4 v=45
56192 On ch=1 n=d#5 v=43
56256 On ch=1 n=b4 v=0
56256 On ch=1 n=d#5 v=0
56256 On ch=1 n=e5 v=51
56320 On ch=1 n=e5 v=0
56320 On ch=1 n=f5 v=57
56320 On ch=1 n=a5 v=58
56384 On ch=1 n=f5 v=0
56384 On ch=1 n=a5 v=0
56384 On ch=1 n=f#5 v=45
56448 On ch=1 n=f#5 v=0
56448 On ch=1 n=c5 v=46
56448 On ch=1 n=e5 v=45
56512 On ch=1 n=c5 v=0
56512 On ch=1 n=e5 v=0
56512 On ch=1 n=f#5 v=49
56576 On ch=1 n=f#5 v=0
56576 On ch=1 n=f5 v=55
56576 On ch=1 n=a5 v=55
56634 On ch=1 n=f5 v=0
56634 On ch=1 n=a5 v=0
56640 On ch=1 n=f#5 v=46
56698 On ch=1 n=f#5 v=0
56704 On ch=1 n=c#5 v=48
56768 On ch=1 n=c#5 v=0
56768 On ch=1 n=f5 v=64
56832 On ch=1 n=f5 v=0
56832 On ch=1 n=f5 v=77
56832 On ch=1 n=a5 v=77
56896 On ch=1 n=f5 v=0
56896 On ch=1 n=a5 v=0
56896 On ch=1 n=f#5 v=61
56960 On ch=1 n=f#5 v=0
56960 On ch=1 n=d5 v=63
57024 On ch=1 n=d5 v=0
57024 On ch=1 n=f#5 v=81
57088 On ch=1 n=f#5 v=0
57088 On ch=1 n=f5 v=90
57088 On ch=1 n=a5 v=92
57152 On ch=1 n=f5 v=0
57152 On ch=1 n=a5 v=0
57152 On ch=1 n=f#5 v=77
57216 On ch=1 n=f#5 v=0
57216 On ch=1 n=d#5 v=80
57280 On ch=1 n=d#5 v=0
57280 On ch=1 n=g5 v=99
57344 On ch=1 n=g5 v=0
57344 On ch=1 n=f5 v=105
57344 On ch=1 n=a5 v=105
57408 On ch=1 n=f5 v=0
57408 On ch=1 n=a5 v=0
57408 On ch=1 n=f#5 v=90
57472 On ch=1 n=f#5 v=0
57472 On ch=1 n=e5 v=95
57536 On ch=1 n=e5 v=0
57536 On ch=1 n=g#5 v=117
57600 On ch=1 n=g#5 v=0
57600 On ch=1 n=f5 v=106
57600 On ch=1 n=a5 v=105
57726 On ch=1 n=f5 v=0
57726 On ch=1 n=a5 v=0
57856 On ch=1 n=f5 v=81
57856 On ch=1 n=a5 v=80
57982 On ch=1 n=f5 v=0
57982 On ch=1 n=a5 v=0
58112 On ch=1 n=f5 v=63
58112 On ch=1 n=a5 v=66
58238 On ch=1 n=f5 v=0
58238 On ch=1 n=a5 v=0
58368 On ch=1 n=f5 v=47
58368 On ch=1 n=a5 v=46
58494 On ch=1 n=f5 v=0
58494 On ch=1 n=a5 v=0
58624 On ch=2 n=e5 v=58
58624 On ch=2 n=g#5 v=59
58750 On ch=2 n=e5 v=0
58750 On ch=2 n=g#5 v=0
58752 On ch=1 n=f5 v=58
58752 On ch=1 n=a5 v=57
58816 On ch=1 n=f5 v=0
58816 On ch=1 n=a5 v=0
58816 On ch=1 n=c6 v=67
58880 On ch=1 n=c6 v=0
58880 On ch=2 n=e5 v=60
58880 On ch=2 n=g#5 v=64
59006 On ch=2 n=e5 v=0
59006 On ch=2 n=g#5 v=0
59008 On ch=1 n=f5 v=58
59008 On ch=1 n=a5 v=57
59072 On ch=1 n=f5 v=0
59072 On ch=1 n=a5 v=0
59072 On ch=1 n=c6 v=69
59136 On ch=1 n=c6 v=0
59136 On ch=2 n=e5 v=64
59136 On ch=2 n=g#5 v=64
59262 On ch=2 n=e5 v=0
59262 On ch=2 n=g#5 v=0
59264 On ch=1 n=f5 v=58
59264 On ch=1 n=a5 v=56
59328 On ch=1 n=f5 v=0
59328 On ch=1 n=a5 v=0
59328 On ch=1 n=c6 v=67
59392 On ch=1 n=c6 v=0
59392 On ch=2 n=e5 v=64
59392 On ch=2 n=g#5 v=62
59518 On ch=2 n=e5 v=0
59518 On ch=2 n=g#5 v=0
59520 On ch=1 n=f5 v=55
59520 On ch=1 n=a5 v=56
59584 On ch=1 n=f5 v=0
59584 On ch=1 n=a5 v=0
59584 On ch=1 n=c6 v=67
59648 On ch=1 n=c6 v=0
59648 On ch=2 n=b5 v=77
59648 On ch=2 n=d#6 v=78
59774 On ch=2 n=b5 v=0
59774 On ch=2 n=d#6 v=0
59776 On ch=1 n=f5 v=53
59776 On ch=1 n=a5 v=53
59840 On ch=1 n=f5 v=0
59840 On ch=1 n=a5 v=0
59840 On ch=1 n=c6 v=63
59904 On ch=1 n=c6 v=0
59904 On ch=2 n=b5 v=56
59904 On ch=2 n=d#6 v=59
60030 On ch=2 n=b5 v=0
60030 On ch=2 n=d#6 v=0
60032 On ch=1 n=f5 v=47
60032 On ch=1 n=a5 v=47
60096 On ch=1 n=f5 v=0
60096 On ch=1 n=a5 v=0
60096 On ch=1 n=c6 v=55
60160 On ch=1 n=c6 v=0
60160 On ch=2 n=b5 v=50
60160 On ch=2 n=d#6 v=50
60286 On ch=2 n=b5 v=0
60286 On ch=2 n=d#6 v=0
60288 On ch=1 n=f5 v=38
60288 On ch=1 n=a5 v=37
60352 On ch=1 n=f5 v=0
60352 On ch=1 n=a5 v=0
60352 On ch=1 n=c6 v=46
60416 On ch=1 n=c6 v=0
60416 On ch=2 n=b5 v=41
60416 On ch=2 n=d#6 v=40
60542 On ch=2 n=b5 v=0
60542 On ch=2 n=d#6 v=0
60544 On ch=1 n=f5 v=34
60544 On ch=1 n=a5 v=32
60608 On ch=1 n=f5 v=0
60608 On ch=1 n=a5 v=0
60608 On ch=1 n=c6 v=37
60672 On ch=1 n=c6 v=0
60672 On ch=2 n=a6 v=45
60672 On ch=2 n=c7 v=44
60798 On ch=2 n=a6 v=0
60798 On ch=2 n=c7 v=0
61184 On ch=1 n=g#4 v=42
61184 On ch=1 n=c5 v=44
61184 On ch=1 n=e5 v=42
61184 On ch=2 n=e3 v=41
61184 On ch=2 n=c4 v=43
61184 On ch=2 n=e4 v=45
61310 On ch=1 n=g#4 v=0
61310 On ch=1 n=c5 v=0
61310 On ch=1 n=e5 v=0
61310 On ch=2 n=e3 v=0
61310 On ch=2 n=c4 v=0
61310 On ch=2 n=e4 v=0
61696 On ch=2 n=a2 v=43
61952 On ch=1 n=a6 v=88
61952 On ch=1 n=e6 v=87
61952 On ch=2 n=e4 v=87
61952 On ch=2 n=a4 v=86
61952 On ch=2 n=c5 v=84
61952 On ch=2 n=e5 v=86
62010 On ch=1 n=e6 v=0
62016 On ch=1 n=d6 v=87
62074 On ch=1 n=d6 v=0
62080 On ch=1 n=e6 v=102
62144 On ch=1 n=c6 v=97
62208 On ch=1 n=a5 v=120
62638 Tempo 3750000
62638 Tempo 3750000
62638 Tempo 3750000
62638 Tempo 3750000
62670 On ch=1 n=a6 v=0
62670 Tempo 428571
62670 On ch=1 n=a5 v=0
62670 On ch=1 n=c6 v=0
62670 On ch=1 n=e6 v=0
62670 Tempo 428571
62670 On ch=2 n=a2 v=0
62670 Tempo 428571
62670 On ch=2 n=e4 v=0
62670 On ch=2 n=a4 v=0
62670 On ch=2 n=c5 v=0
62670 On ch=2 n=e5 v=0
62670 Tempo 428571
65792 On ch=1 n=g9 v=25
65794 On ch=1 n=g9 v=0
65795 Meta TrkEnd
TrkEnd
