MFile 1 2 256
MTrk
0 TimeSig 4/4 24 8
0 KeySig 5 major
0 TimeSig 3/8 36 8
0 Tempo 923076
10560 Tempo 923076
10590 Tempo 937442
10620 Tempo 952262
10650 Tempo 967559
10680 Tempo 983354
10710 Tempo 999674
10740 Tempo 1016545
10770 Tempo 1033995
10800 Tempo 1052054
10830 Tempo 1070756
10860 Tempo 1090134
10890 Tempo 1110227
10920 Tempo 1131075
10950 Tempo 1152720
10980 Tempo 1175210
11010 Tempo 1198595
11040 Tempo 1222929
11070 Tempo 1248273
11264 Tempo 923076
17024 Tempo 923076
17069 Tempo 937442
17114 Tempo 952262
17159 Tempo 967559
17204 Tempo 983354
17249 Tempo 999674
17294 Tempo 1016545
17339 Tempo 1033995
17384 Tempo 1052054
17429 Tempo 1070756
17474 Tempo 1090134
17519 Tempo 1110227
17564 Tempo 1131075
17609 Tempo 1152720
17654 Tempo 1175210
17699 Tempo 1198595
17744 Tempo 1222929
17789 Tempo 1248273
18048 Tempo 923076
18944 TimeSig 6/8 36 8
19712 TimeSig 3/8 36 8
20096 TimeSig 9/8 36 8
22400 TimeSig 3/8 36 8
23168 TimeSig 6/8 36 8
25472 TimeSig 3/8 36 8
28160 Tempo 923076
28190 Tempo 937442
28220 Tempo 952262
28250 Tempo 967559
28280 Tempo 983354
28310 Tempo 999674
28340 Tempo 1016545
28370 Tempo 1033995
28400 Tempo 1052054
28430 Tempo 1070756
28460 Tempo 1090134
28490 Tempo 1110227
28520 Tempo 1131075
28864 Tempo 923076
31040 Tempo 923076
31062 Tempo 937155
31084 Tempo 951671
31106 Tempo 966642
31128 Tempo 982093
31150 Tempo 998045
31172 Tempo 1014524
31194 Tempo 1031557
31216 Tempo 1049171
31476 Tempo 923076
34304 Tempo 923076
34320 Tempo 938416
34336 Tempo 954274
34352 Tempo 970677
34368 Tempo 987654
34384 Tempo 1005235
34400 Tempo 1023454
34416 Tempo 1042345
34432 Tempo 1061946
34448 Tempo 1082299
34464 Tempo 1103448
34480 Tempo 1125439
34496 Tempo 1148325
34512 Tempo 1172161
34528 Tempo 1197007
34544 Tempo 1222929
34560 Tempo 1250000
34688 Tempo 967741
35456 Tempo 1090909
35584 Tempo 923076
36736 Tempo 923076
36826 Tempo 920585
36916 Tempo 918107
37006 Tempo 915643
37096 Tempo 913192
37186 Tempo 910754
37276 Tempo 908328
37366 Tempo 905916
37456 Tempo 903516
37546 Tempo 901130
37636 Tempo 898755
37726 Tempo 896393
37816 Tempo 894044
37906 Tempo 891707
37996 Tempo 889382
38086 Tempo 887069
38176 Tempo 884768
38266 Tempo 882479
38528 TimeSig 9/8 36 8
38528 Tempo 923076
39680 TimeSig 3/8 36 8
39680 Tempo 923076
39736 Tempo 951128
39792 Tempo 980937
39848 Tempo 1012675
39904 Tempo 1046536
39960 Tempo 1082740
40016 Tempo 1121538
40072 Tempo 1163220
40128 Tempo 1208121
40184 Tempo 1256626
40240 Tempo 1309189
40296 Tempo 1366342
40352 Tempo 1428712
40408 Tempo 1497049
40464 Tempo 1572251
40520 Tempo 1655409
40576 Tempo 1747854
40632 Tempo 1851235
40832 TimeSig 6/8 36 8
40833 Meta TrkEnd
TrkEnd
MTrk
0 Par ch=1 c=121 v=0
0 Par ch=1 c=91 v=60
0 Par ch=1 c=10 v=76
0 Par ch=1 c=7 v=100
0 Par ch=2 c=121 v=0
0 Par ch=2 c=91 v=60
0 Par ch=2 c=10 v=51
0 Par ch=2 c=7 v=85
0 Meta TrkName "Piano"
0 Par ch=1 c=0 v=0
0 Par ch=1 c=32 v=0
0 PrCh ch=1 p=0
0 On ch=1 n=f#4 v=54
0 On ch=1 n=b4 v=54
0 On ch=1 n=d#5 v=54
0 Par ch=2 c=0 v=0
0 Par ch=2 c=32 v=0
0 PrCh ch=2 p=0
0 On ch=2 n=b2 v=53
0 On ch=2 n=b3 v=53
70 On ch=1 n=f#4 v=0
70 On ch=1 n=b4 v=0
70 On ch=1 n=d#5 v=0
70 On ch=2 n=b2 v=0
70 On ch=2 n=b3 v=0
128 TimeSig 3/8 36 8
128 On ch=1 n=f#4 v=58
128 On ch=1 n=b4 v=58
128 On ch=1 n=d#5 v=58
128 On ch=2 n=b2 v=59
128 On ch=2 n=b3 v=59
320 On ch=1 n=f#4 v=0
320 On ch=1 n=b4 v=0
320 On ch=1 n=d#5 v=0
320 On ch=1 n=e5 v=63
384 On ch=1 n=e5 v=0
384 On ch=1 n=g#4 v=56
384 On ch=1 n=b4 v=56
384 On ch=1 n=c#5 v=56
384 On ch=2 n=b2 v=0
384 On ch=2 n=b3 v=0
384 On ch=2 n=e3 v=58
384 On ch=2 n=b3 v=58
454 On ch=1 n=g#4 v=0
454 On ch=1 n=b4 v=0
454 On ch=1 n=c#5 v=0
454 On ch=2 n=e3 v=0
454 On ch=2 n=b3 v=0
512 On ch=1 n=g#4 v=58
512 On ch=1 n=b4 v=58
512 On ch=1 n=c#5 v=58
512 On ch=2 n=e3 v=74
512 On ch=2 n=b3 v=74
704 On ch=1 n=g#4 v=0
704 On ch=1 n=b4 v=0
704 On ch=1 n=c#5 v=0
704 On ch=1 n=e5 v=60
737 On ch=2 n=e3 v=0
737 On ch=2 n=b3 v=0
768 On ch=1 n=e5 v=0
768 On ch=1 n=f#4 v=57
768 On ch=1 n=b4 v=57
768 On ch=1 n=d#5 v=57
768 On ch=2 n=b2 v=60
768 On ch=2 n=b3 v=60
838 On ch=1 n=f#4 v=0
838 On ch=1 n=b4 v=0
838 On ch=1 n=d#5 v=0
838 On ch=2 n=b2 v=0
838 On ch=2 n=b3 v=0
896 On ch=1 n=f#4 v=60
896 On ch=1 n=b4 v=60
896 On ch=1 n=d#5 v=60
896 On ch=2 n=b2 v=60
896 On ch=2 n=b3 v=60
960 On ch=1 n=f#4 v=0
960 On ch=1 n=b4 v=0
960 On ch=1 n=d#5 v=0
960 On ch=1 n=f#5 v=67
966 On ch=2 n=b2 v=0
966 On ch=2 n=b3 v=0
1024 On ch=1 n=f#5 v=0
1024 On ch=1 n=g#4 v=73
1024 On ch=1 n=b4 v=73
1024 On ch=1 n=e5 v=73
1024 On ch=2 n=e3 v=73
1024 On ch=2 n=b3 v=73
1216 On ch=1 n=g#4 v=0
1216 On ch=1 n=b4 v=0
1216 On ch=1 n=e5 v=0
1216 On ch=1 n=g#5 v=77
1280 On ch=1 n=g#5 v=0
1280 On ch=2 n=e3 v=0
1280 On ch=2 n=b3 v=0
1280 On ch=1 n=a#4 v=73
1280 On ch=1 n=d#5 v=73
1280 On ch=1 n=f#5 v=73
1280 On ch=2 n=d#3 v=73
1280 On ch=2 n=d#4 v=73
1536 On ch=1 n=a#4 v=0
1536 On ch=1 n=d#5 v=0
1536 On ch=1 n=f#5 v=0
1536 On ch=1 n=b4 v=56
1536 On ch=1 n=d#5 v=56
1536 On ch=1 n=g#5 v=56
1536 On ch=2 n=d#3 v=0
1536 On ch=2 n=d#4 v=0
1536 On ch=2 n=g#3 v=56
1536 On ch=2 n=d#4 v=56
1606 On ch=1 n=b4 v=0
1606 On ch=1 n=d#5 v=0
1606 On ch=1 n=g#5 v=0
1606 On ch=2 n=g#3 v=0
1606 On ch=2 n=d#4 v=0
1664 On ch=1 n=f#4 v=52
1664 On ch=1 n=b4 v=52
1664 On ch=1 n=d#5 v=52
1664 On ch=2 n=b2 v=61
1664 On ch=2 n=b3 v=61
1832 On ch=1 n=f#4 v=0
1832 On ch=1 n=b4 v=0
1832 On ch=1 n=d#5 v=0
1856 On ch=1 n=e5 v=49
1889 On ch=2 n=b2 v=0
1889 On ch=2 n=b3 v=0
1920 On ch=1 n=e5 v=0
1920 On ch=1 n=g#4 v=43
1920 On ch=1 n=b4 v=43
1920 On ch=1 n=c#5 v=43
1920 On ch=2 n=e3 v=48
1920 On ch=2 n=b3 v=48
1990 On ch=1 n=g#4 v=0
1990 On ch=1 n=b4 v=0
1990 On ch=1 n=c#5 v=0
1990 On ch=2 n=e3 v=0
1990 On ch=2 n=b3 v=0
2048 On ch=1 n=g#4 v=47
2048 On ch=1 n=b4 v=47
2048 On ch=1 n=c#5 v=47
2048 On ch=2 n=e3 v=57
2048 On ch=2 n=b3 v=57
2240 On ch=1 n=g#4 v=0
2240 On ch=1 n=b4 v=0
2240 On ch=1 n=c#5 v=0
2240 On ch=1 n=e5 v=54
2273 On ch=2 n=e3 v=0
2273 On ch=2 n=b3 v=0
2304 On ch=1 n=e5 v=0
2304 On ch=1 n=f#4 v=47
2304 On ch=1 n=b4 v=47
2304 On ch=1 n=d#5 v=47
2304 On ch=2 n=b2 v=44
2304 On ch=2 n=b3 v=44
2374 On ch=1 n=f#4 v=0
2374 On ch=1 n=b4 v=0
2374 On ch=1 n=d#5 v=0
2374 On ch=2 n=b2 v=0
2374 On ch=2 n=b3 v=0
2432 On ch=1 n=f#4 v=48
2432 On ch=1 n=b4 v=48
2432 On ch=1 n=d#5 v=48
2432 On ch=2 n=b2 v=48
2432 On ch=2 n=b3 v=48
2496 On ch=1 n=f#4 v=0
2496 On ch=1 n=b4 v=0
2496 On ch=1 n=d#5 v=0
2496 On ch=1 n=f#5 v=60
2502 On ch=2 n=b2 v=0
2502 On ch=2 n=b3 v=0
2560 On ch=1 n=f#5 v=0
2560 On ch=1 n=g#4 v=73
2560 On ch=1 n=b4 v=73
2560 On ch=1 n=e5 v=73
2560 On ch=2 n=e3 v=73
2560 On ch=2 n=b3 v=73
2752 On ch=1 n=g#4 v=0
2752 On ch=1 n=b4 v=0
2752 On ch=1 n=e5 v=0
2752 On ch=1 n=g#5 v=77
2816 On ch=1 n=g#5 v=0
2816 On ch=2 n=e3 v=0
2816 On ch=2 n=b3 v=0
2816 On ch=1 n=a#4 v=70
2816 On ch=1 n=d#5 v=70
2816 On ch=1 n=f#5 v=70
2816 On ch=2 n=d#3 v=74
2816 On ch=2 n=d#4 v=74
3072 On ch=1 n=a#4 v=0
3072 On ch=1 n=d#5 v=0
3072 On ch=1 n=f#5 v=0
3072 On ch=1 n=b4 v=79
3072 On ch=1 n=d#5 v=79
3072 On ch=1 n=g#5 v=79
3072 On ch=2 n=d#3 v=0
3072 On ch=2 n=d#4 v=0
3072 On ch=2 n=g#3 v=75
3072 On ch=2 n=d#4 v=75
3142 On ch=1 n=b4 v=0
3142 On ch=1 n=d#5 v=0
3142 On ch=1 n=g#5 v=0
3142 On ch=2 n=g#3 v=0
3142 On ch=2 n=d#4 v=0
3200 On ch=1 n=a#4 v=89
3200 On ch=1 n=f#5 v=89
3200 On ch=1 n=a#5 v=89
3200 On ch=2 n=f#3 v=98
3200 On ch=2 n=d#4 v=98
3392 On ch=1 n=a#4 v=0
3392 On ch=1 n=f#5 v=0
3392 On ch=1 n=a#5 v=0
3392 On ch=1 n=b5 v=85
3425 On ch=2 n=f#3 v=0
3425 On ch=2 n=d#4 v=0
3456 On ch=1 n=b5 v=0
3456 On ch=1 n=b4 v=76
3456 On ch=1 n=e5 v=76
3456 On ch=1 n=g#5 v=76
3456 On ch=2 n=g#3 v=87
3456 On ch=2 n=e4 v=87
3526 On ch=1 n=b4 v=0
3526 On ch=1 n=e5 v=0
3526 On ch=1 n=g#5 v=0
3526 On ch=2 n=g#3 v=0
3526 On ch=2 n=e4 v=0
3584 On ch=1 n=b4 v=85
3584 On ch=1 n=e5 v=85
3584 On ch=1 n=g#5 v=85
3584 On ch=2 n=g#3 v=86
3584 On ch=2 n=e4 v=86
3648 On ch=1 n=b4 v=0
3648 On ch=1 n=e5 v=0
3648 On ch=1 n=g#5 v=0
3648 On ch=1 n=b5 v=90
3712 On ch=1 n=b5 v=0
3712 On ch=1 n=a#4 v=81
3712 On ch=1 n=f#5 v=81
3712 On ch=1 n=a#5 v=81
3712 On ch=2 n=g#3 v=0
3712 On ch=2 n=e4 v=0
3712 On ch=2 n=f#3 v=82
3712 On ch=2 n=d#4 v=82
3776 On ch=1 n=a#4 v=0
3776 On ch=1 n=f#5 v=0
3776 On ch=1 n=a#5 v=0
3776 On ch=1 n=b5 v=90
3840 On ch=1 n=b5 v=0
3840 On ch=1 n=b4 v=72
3840 On ch=1 n=e5 v=72
3840 On ch=1 n=g#5 v=72
3840 On ch=2 n=f#3 v=0
3840 On ch=2 n=d#4 v=0
3840 On ch=2 n=g#3 v=87
3840 On ch=2 n=e4 v=87
3910 On ch=1 n=b4 v=0
3910 On ch=1 n=e5 v=0
3910 On ch=1 n=g#5 v=0
3910 On ch=2 n=g#3 v=0
3910 On ch=2 n=e4 v=0
3968 On ch=1 n=b4 v=77
3968 On ch=1 n=e5 v=77
3968 On ch=1 n=g#5 v=77
3968 On ch=2 n=g#3 v=96
3968 On ch=2 n=e4 v=96
4160 On ch=1 n=b4 v=0
4160 On ch=1 n=e5 v=0
4160 On ch=1 n=g#5 v=0
4160 On ch=1 n=a#5 v=87
4193 On ch=2 n=g#3 v=0
4193 On ch=2 n=e4 v=0
4224 On ch=1 n=a#5 v=0
4224 On ch=1 n=a#4 v=73
4224 On ch=1 n=d#5 v=73
4224 On ch=1 n=f#5 v=73
4224 On ch=2 n=d#3 v=82
4224 On ch=2 n=d#4 v=82
4294 On ch=1 n=a#4 v=0
4294 On ch=1 n=d#5 v=0
4294 On ch=1 n=f#5 v=0
4294 On ch=2 n=d#3 v=0
4294 On ch=2 n=d#4 v=0
4352 On ch=1 n=a#4 v=82
4352 On ch=1 n=d#5 v=82
4352 On ch=1 n=f#5 v=82
4352 On ch=2 n=d#3 v=82
4352 On ch=2 n=d#4 v=82
4416 On ch=1 n=a#4 v=0
4416 On ch=1 n=d#5 v=0
4416 On ch=1 n=f#5 v=0
4416 On ch=1 n=a#5 v=99
4480 On ch=1 n=a#5 v=0
4480 On ch=1 n=b4 v=78
4480 On ch=1 n=e5 v=78
4480 On ch=1 n=g#5 v=78
4480 On ch=2 n=d#3 v=0
4480 On ch=2 n=d#4 v=0
4480 On ch=2 n=g#3 v=80
4480 On ch=2 n=e4 v=80
4544 On ch=1 n=b4 v=0
4544 On ch=1 n=e5 v=0
4544 On ch=1 n=g#5 v=0
4544 On ch=1 n=a#5 v=86
4608 On ch=1 n=a#5 v=0
4608 On ch=1 n=a#4 v=75
4608 On ch=1 n=d#5 v=75
4608 On ch=1 n=f#5 v=75
4608 On ch=2 n=g#3 v=0
4608 On ch=2 n=e4 v=0
4608 On ch=2 n=d#3 v=84
4608 On ch=2 n=d#4 v=84
4678 On ch=1 n=a#4 v=0
4678 On ch=1 n=d#5 v=0
4678 On ch=1 n=f#5 v=0
4678 On ch=2 n=d#3 v=0
4678 On ch=2 n=d#4 v=0
4736 On ch=1 n=a#4 v=84
4736 On ch=1 n=d#5 v=84
4736 On ch=1 n=f#5 v=84
4736 On ch=2 n=d#3 v=80
4736 On ch=2 n=d#4 v=80
4928 On ch=1 n=a#4 v=0
4928 On ch=1 n=d#5 v=0
4928 On ch=1 n=f#5 v=0
4928 On ch=1 n=g#5 v=79
4992 On ch=1 n=g#5 v=0
4992 On ch=1 n=g#4 v=69
4992 On ch=1 n=c#5 v=69
4992 On ch=1 n=e5 v=69
4992 On ch=2 n=d#3 v=0
4992 On ch=2 n=d#4 v=0
4992 On ch=2 n=g#3 v=75
4992 On ch=2 n=e4 v=75
5120 On ch=1 n=g#4 v=0
5120 On ch=1 n=c#5 v=0
5120 On ch=1 n=e5 v=0
5120 On ch=2 n=g#3 v=0
5120 On ch=2 n=e4 v=0
5120 On ch=1 n=g#4 v=63
5120 On ch=1 n=c#5 v=63
5120 On ch=1 n=e5 v=63
5120 On ch=2 n=g#3 v=67
5120 On ch=2 n=e4 v=67
5225 On ch=1 n=g#4 v=0
5225 On ch=1 n=c#5 v=0
5225 On ch=1 n=e5 v=0
5312 On ch=1 n=f#5 v=65
5376 On ch=1 n=f#5 v=0
5376 On ch=1 n=g#4 v=60
5376 On ch=1 n=b4 v=60
5376 On ch=1 n=d#5 v=60
5376 On ch=2 n=g#3 v=0
5376 On ch=2 n=e4 v=0
5376 On ch=2 n=g#3 v=60
5376 On ch=2 n=d#4 v=60
5446 On ch=1 n=g#4 v=0
5446 On ch=1 n=b4 v=0
5446 On ch=1 n=d#5 v=0
5504 On ch=2 n=g#3 v=0
5504 On ch=2 n=d#4 v=0
5504 On ch=1 n=g#4 v=60
5504 On ch=1 n=b4 v=60
5504 On ch=1 n=d#5 v=60
5504 On ch=2 n=g#3 v=60
5504 On ch=2 n=d#4 v=60
5888 On ch=1 n=g#4 v=0
5888 On ch=2 n=g#3 v=0
5888 On ch=1 n=g4 v=60
5888 On ch=2 n=d#3 v=63
6144 On ch=1 n=g4 v=0
6144 On ch=1 n=b4 v=0
6144 On ch=1 n=d#5 v=0
6144 On ch=1 n=g#4 v=45
6144 On ch=1 n=b4 v=45
6144 On ch=1 n=c#5 v=45
6144 On ch=2 n=d#3 v=0
6144 On ch=2 n=d#4 v=0
6144 On ch=2 n=e3 v=51
6144 On ch=2 n=b3 v=51
6272 On ch=1 n=g#4 v=0
6272 On ch=1 n=b4 v=0
6272 On ch=1 n=c#5 v=0
6272 On ch=2 n=e3 v=0
6272 On ch=2 n=b3 v=0
6272 On ch=1 n=g#4 v=49
6272 On ch=1 n=b4 v=49
6272 On ch=1 n=c#5 v=49
6272 On ch=2 n=e3 v=52
6272 On ch=2 n=b3 v=52
6464 On ch=1 n=g#4 v=0
6464 On ch=1 n=b4 v=0
6464 On ch=1 n=c#5 v=0
6464 On ch=1 n=e5 v=60
6528 On ch=1 n=e5 v=0
6528 On ch=1 n=f#4 v=46
6528 On ch=1 n=b4 v=46
6528 On ch=1 n=d#5 v=46
6528 On ch=2 n=e3 v=0
6528 On ch=2 n=b3 v=0
6528 On ch=2 n=b2 v=42
6598 On ch=1 n=f#4 v=0
6598 On ch=1 n=b4 v=0
6598 On ch=1 n=d#5 v=0
6656 On ch=2 n=b2 v=0
6656 On ch=1 n=g#4 v=50
6656 On ch=1 n=b4 v=50
6656 On ch=1 n=d#5 v=50
6656 On ch=2 n=g#3 v=49
6720 On ch=1 n=g#4 v=0
6720 On ch=1 n=b4 v=0
6720 On ch=1 n=d#5 v=0
6720 On ch=1 n=f#5 v=75
6784 On ch=1 n=f#5 v=0
6784 On ch=1 n=g#4 v=74
6784 On ch=1 n=c#5 v=74
6784 On ch=1 n=e5 v=74
6784 On ch=2 n=g#3 v=0
6784 On ch=2 n=c#3 v=55
6784 On ch=2 n=c#4 v=55
6848 On ch=1 n=g#4 v=0
6848 On ch=1 n=c#5 v=0
6848 On ch=1 n=e5 v=0
6848 On ch=1 n=g#5 v=76
6912 On ch=1 n=g#5 v=0
6912 On ch=1 n=a#4 v=67
6912 On ch=1 n=d#5 v=67
6912 On ch=1 n=f#5 v=67
6912 On ch=2 n=c#3 v=0
6912 On ch=2 n=c#4 v=0
6912 On ch=2 n=d#3 v=45
6982 On ch=1 n=a#4 v=0
6982 On ch=1 n=d#5 v=0
6982 On ch=1 n=f#5 v=0
6982 On ch=2 n=d#3 v=0
7040 On ch=1 n=g#4 v=54
7040 On ch=1 n=b4 v=54
7040 On ch=1 n=c#5 v=54
7040 On ch=2 n=e3 v=63
7040 On ch=2 n=b3 v=63
7208 On ch=1 n=g#4 v=0
7208 On ch=1 n=b4 v=0
7208 On ch=1 n=c#5 v=0
7232 On ch=1 n=e5 v=54
7265 On ch=2 n=e3 v=0
7265 On ch=2 n=b3 v=0
7296 On ch=1 n=e5 v=0
7296 On ch=1 n=f#4 v=49
7296 On ch=1 n=b4 v=49
7296 On ch=1 n=d#5 v=49
7296 On ch=2 n=b2 v=41
7366 On ch=1 n=f#4 v=0
7366 On ch=1 n=b4 v=0
7366 On ch=1 n=d#5 v=0
7366 On ch=2 n=b2 v=0
7424 On ch=1 n=g#4 v=50
7424 On ch=1 n=b4 v=50
7424 On ch=1 n=d#5 v=50
7424 On ch=2 n=g#3 v=54
7488 On ch=1 n=g#4 v=0
7488 On ch=1 n=b4 v=0
7488 On ch=1 n=d#5 v=0
7488 On ch=1 n=f#5 v=75
7552 On ch=1 n=f#5 v=0
7552 On ch=1 n=g#4 v=73
7552 On ch=1 n=c#5 v=73
7552 On ch=1 n=e5 v=73
7552 On ch=2 n=g#3 v=0
7552 On ch=2 n=c#3 v=56
7552 On ch=2 n=c#4 v=56
7616 On ch=1 n=g#4 v=0
7616 On ch=1 n=c#5 v=0
7616 On ch=1 n=e5 v=0
7616 On ch=1 n=g#5 v=76
7680 On ch=1 n=g#5 v=0
7680 On ch=1 n=a#4 v=67
7680 On ch=1 n=d#5 v=67
7680 On ch=1 n=f#5 v=67
7680 On ch=2 n=c#3 v=0
7680 On ch=2 n=c#4 v=0
7680 On ch=2 n=d#3 v=45
7750 On ch=1 n=a#4 v=0
7750 On ch=1 n=d#5 v=0
7750 On ch=1 n=f#5 v=0
7750 On ch=2 n=d#3 v=0
7808 On ch=1 n=g#4 v=58
7808 On ch=1 n=b4 v=58
7808 On ch=1 n=c#5 v=58
7808 On ch=2 n=e3 v=69
7808 On ch=2 n=c#4 v=69
7976 On ch=1 n=g#4 v=0
7976 On ch=1 n=b4 v=0
7976 On ch=1 n=c#5 v=0
8000 On ch=1 n=e5 v=52
8033 On ch=2 n=e3 v=0
8033 On ch=2 n=c#4 v=0
8064 On ch=1 n=e5 v=0
8064 On ch=1 n=g#4 v=48
8064 On ch=1 n=b4 v=48
8064 On ch=1 n=d#5 v=48
8064 On ch=2 n=g#3 v=51
8064 On ch=2 n=d#4 v=51
8134 On ch=1 n=g#4 v=0
8134 On ch=1 n=b4 v=0
8134 On ch=1 n=d#5 v=0
8192 On ch=2 n=g#3 v=0
8192 On ch=2 n=d#4 v=0
8192 On ch=1 n=g#4 v=51
8192 On ch=1 n=b4 v=51
8192 On ch=1 n=d#5 v=51
8192 On ch=2 n=g#3 v=49
8192 On ch=2 n=d#4 v=49
8768 On ch=1 n=g#4 v=0
8768 On ch=1 n=b4 v=0
8768 On ch=1 n=d#5 v=0
8768 On ch=1 n=e5 v=55
8832 On ch=1 n=e5 v=0
8832 On ch=1 n=f4 v=80
8832 On ch=1 n=a#4 v=80
8832 On ch=1 n=d5 v=80
8832 On ch=2 n=g#3 v=0
8832 On ch=2 n=d#4 v=0
8832 On ch=2 n=g#2 v=80
8832 On ch=2 n=g#3 v=80
8902 On ch=1 n=f4 v=0
8902 On ch=1 n=a#4 v=0
8902 On ch=1 n=d5 v=0
8960 On ch=2 n=g#2 v=0
8960 On ch=2 n=g#3 v=0
8960 On ch=1 n=f4 v=82
8960 On ch=1 n=a#4 v=82
8960 On ch=1 n=d5 v=82
8960 On ch=2 n=g#2 v=81
8960 On ch=2 n=g#3 v=81
9152 On ch=1 n=f4 v=0
9152 On ch=1 n=a#4 v=0
9152 On ch=1 n=d5 v=0
9152 On ch=1 n=d#5 v=87
9216 On ch=1 n=d#5 v=0
9216 On ch=1 n=e4 v=78
9216 On ch=1 n=a4 v=78
9216 On ch=1 n=c#5 v=78
9216 On ch=2 n=g#2 v=0
9216 On ch=2 n=g#3 v=0
9216 On ch=2 n=a2 v=88
9216 On ch=2 n=a3 v=88
9286 On ch=1 n=e4 v=0
9286 On ch=1 n=a4 v=0
9286 On ch=1 n=c#5 v=0
9344 On ch=2 n=a2 v=0
9344 On ch=2 n=a3 v=0
9344 On ch=1 n=e4 v=83
9344 On ch=1 n=a#4 v=83
9344 On ch=1 n=c#5 v=83
9344 On ch=2 n=a2 v=83
9344 On ch=2 n=a3 v=83
9408 On ch=1 n=e4 v=0
9408 On ch=1 n=a#4 v=0
9408 On ch=1 n=c#5 v=0
9408 On ch=1 n=d#5 v=79
9472 On ch=1 n=d#5 v=0
9472 On ch=1 n=d#4 v=75
9472 On ch=1 n=g#4 v=75
9472 On ch=1 n=c5 v=75
9472 On ch=2 n=a2 v=0
9472 On ch=2 n=a3 v=0
9472 On ch=2 n=f#2 v=75
9472 On ch=2 n=f#3 v=75
9640 On ch=1 n=d#4 v=0
9640 On ch=1 n=g#4 v=0
9640 On ch=1 n=c5 v=0
9664 On ch=1 n=c#5 v=62
9728 On ch=1 n=c#5 v=0
9728 On ch=2 n=f#2 v=0
9728 On ch=2 n=f#3 v=0
9728 On ch=1 n=d#4 v=72
9728 On ch=1 n=g#4 v=72
9728 On ch=1 n=b4 v=72
9728 On ch=2 n=g#2 v=63
9728 On ch=2 n=g#3 v=63
9896 On ch=1 n=d#4 v=0
9896 On ch=1 n=g#4 v=0
9896 On ch=1 n=b4 v=0
9920 On ch=1 n=c#5 v=61
9984 On ch=1 n=c#5 v=0
9984 On ch=1 n=d#4 v=71
9984 On ch=1 n=g#4 v=71
9984 On ch=1 n=b4 v=71
9984 On ch=2 n=g#2 v=0
9984 On ch=2 n=g#3 v=0
9984 On ch=2 n=g#2 v=60
9984 On ch=2 n=g#3 v=60
10560 On ch=1 n=d#4 v=0
10560 On ch=1 n=g#4 v=0
10560 On ch=1 n=b4 v=0
10560 On ch=1 n=c#5 v=67
10624 On ch=1 n=c#5 v=0
10624 On ch=1 n=e4 v=55
10624 On ch=1 n=g#4 v=55
10624 On ch=1 n=b4 v=55
10624 On ch=2 n=g#2 v=0
10624 On ch=2 n=g#3 v=0
10624 On ch=2 n=c#3 v=54
10816 On ch=1 n=e4 v=0
10816 On ch=1 n=g#4 v=0
10816 On ch=1 n=b4 v=0
10816 On ch=1 n=c#5 v=59
10880 On ch=1 n=c#5 v=0
10880 On ch=2 n=c#3 v=0
10880 On ch=1 n=e4 v=55
10880 On ch=1 n=f#4 v=55
10880 On ch=1 n=b4 v=55
10880 On ch=2 n=f#2 v=55
10880 On ch=2 n=f#3 v=55
11072 On ch=1 n=e4 v=0
11072 On ch=1 n=f#4 v=0
11072 On ch=1 n=b4 v=0
11072 On ch=1 n=c#5 v=52
11136 On ch=1 n=c#5 v=0
11136 On ch=1 n=f#4 v=50
11136 On ch=1 n=b4 v=50
11136 On ch=1 n=d#5 v=50
11136 On ch=2 n=f#2 v=0
11136 On ch=2 n=f#3 v=0
11136 On ch=2 n=b2 v=52
11136 On ch=2 n=b3 v=52
11264 On ch=1 n=f#4 v=0
11264 On ch=1 n=b4 v=0
11264 On ch=1 n=d#5 v=0
11264 On ch=2 n=b2 v=0
11264 On ch=2 n=b3 v=0
11264 On ch=1 n=f#4 v=51
11264 On ch=1 n=b4 v=51
11264 On ch=1 n=d#5 v=51
11264 On ch=2 n=b2 v=50
11264 On ch=2 n=b3 v=50
11456 On ch=1 n=f#4 v=0
11456 On ch=1 n=b4 v=0
11456 On ch=1 n=d#5 v=0
11456 On ch=1 n=e5 v=56
11520 On ch=1 n=e5 v=0
11520 On ch=1 n=g#4 v=42
11520 On ch=1 n=b4 v=42
11520 On ch=1 n=c#5 v=42
11520 On ch=2 n=b2 v=0
11520 On ch=2 n=b3 v=0
11520 On ch=2 n=e3 v=53
11520 On ch=2 n=b3 v=53
11590 On ch=1 n=g#4 v=0
11590 On ch=1 n=b4 v=0
11590 On ch=1 n=c#5 v=0
11590 On ch=2 n=e3 v=0
11590 On ch=2 n=b3 v=0
11648 On ch=1 n=g#4 v=51
11648 On ch=1 n=b4 v=51
11648 On ch=1 n=c#5 v=51
11648 On ch=2 n=e3 v=61
11648 On ch=2 n=b3 v=61
11840 On ch=1 n=g#4 v=0
11840 On ch=1 n=b4 v=0
11840 On ch=1 n=c#5 v=0
11840 On ch=1 n=e5 v=51
11873 On ch=2 n=e3 v=0
11873 On ch=2 n=b3 v=0
11904 On ch=1 n=e5 v=0
11904 On ch=1 n=f#4 v=50
11904 On ch=1 n=b4 v=50
11904 On ch=1 n=d#5 v=50
11904 On ch=2 n=b2 v=47
11904 On ch=2 n=b3 v=47
11974 On ch=1 n=f#4 v=0
11974 On ch=1 n=b4 v=0
11974 On ch=1 n=d#5 v=0
11974 On ch=2 n=b2 v=0
11974 On ch=2 n=b3 v=0
12032 On ch=1 n=f#4 v=50
12032 On ch=1 n=b4 v=50
12032 On ch=1 n=d#5 v=50
12032 On ch=2 n=b2 v=50
12032 On ch=2 n=b3 v=50
12096 On ch=1 n=f#4 v=0
12096 On ch=1 n=b4 v=0
12096 On ch=1 n=d#5 v=0
12096 On ch=1 n=f#5 v=57
12102 On ch=2 n=b2 v=0
12102 On ch=2 n=b3 v=0
12160 On ch=1 n=f#5 v=0
12160 On ch=1 n=g#4 v=63
12160 On ch=1 n=b4 v=63
12160 On ch=1 n=e5 v=63
12160 On ch=2 n=e3 v=63
12160 On ch=2 n=b3 v=63
12352 On ch=1 n=g#4 v=0
12352 On ch=1 n=b4 v=0
12352 On ch=1 n=e5 v=0
12352 On ch=1 n=g#5 v=68
12416 On ch=1 n=g#5 v=0
12416 On ch=2 n=e3 v=0
12416 On ch=2 n=b3 v=0
12416 On ch=1 n=a#4 v=63
12416 On ch=1 n=d#5 v=63
12416 On ch=1 n=f#5 v=63
12416 On ch=2 n=d#3 v=63
12416 On ch=2 n=d#4 v=63
12641 On ch=1 n=a#4 v=0
12641 On ch=1 n=d#5 v=0
12641 On ch=1 n=f#5 v=0
12641 On ch=2 n=d#3 v=0
12641 On ch=2 n=d#4 v=0
12672 On ch=1 n=b4 v=55
12672 On ch=1 n=d#5 v=55
12672 On ch=1 n=g#5 v=55
12672 On ch=2 n=g#3 v=55
12672 On ch=2 n=d#4 v=55
12742 On ch=1 n=b4 v=0
12742 On ch=1 n=d#5 v=0
12742 On ch=1 n=g#5 v=0
12742 On ch=2 n=g#3 v=0
12742 On ch=2 n=d#4 v=0
12800 On ch=1 n=a#4 v=66
12800 On ch=1 n=d#5 v=66
12800 On ch=1 n=f#5 v=66
12800 On ch=2 n=d#3 v=60
12800 On ch=2 n=d#4 v=60
12968 On ch=1 n=a#4 v=0
12968 On ch=1 n=d#5 v=0
12968 On ch=1 n=f#5 v=0
12992 On ch=1 n=g#5 v=65
13025 On ch=2 n=d#3 v=0
13025 On ch=2 n=d#4 v=0
13056 On ch=1 n=g#5 v=0
13056 On ch=1 n=g#4 v=57
13056 On ch=1 n=c#5 v=57
13056 On ch=1 n=e5 v=57
13056 On ch=2 n=e3 v=49
13056 On ch=2 n=c#4 v=49
13126 On ch=1 n=g#4 v=0
13126 On ch=1 n=c#5 v=0
13126 On ch=1 n=e5 v=0
13126 On ch=2 n=e3 v=0
13126 On ch=2 n=c#4 v=0
13184 On ch=1 n=g#4 v=65
13184 On ch=1 n=c#5 v=65
13184 On ch=1 n=e5 v=65
13184 On ch=2 n=e3 v=48
13184 On ch=2 n=c#4 v=48
13376 On ch=1 n=g#4 v=0
13376 On ch=1 n=c#5 v=0
13376 On ch=1 n=e5 v=0
13376 On ch=1 n=g#5 v=68
13440 On ch=1 n=g#5 v=0
13440 On ch=1 n=a#4 v=57
13440 On ch=1 n=d#5 v=57
13440 On ch=1 n=f#5 v=57
13440 On ch=2 n=e3 v=0
13440 On ch=2 n=c#4 v=0
13440 On ch=2 n=d#3 v=51
13440 On ch=2 n=d#4 v=51
13510 On ch=1 n=a#4 v=0
13510 On ch=1 n=d#5 v=0
13510 On ch=1 n=f#5 v=0
13510 On ch=2 n=d#3 v=0
13510 On ch=2 n=d#4 v=0
13568 On ch=1 n=a#4 v=60
13568 On ch=1 n=d#5 v=60
13568 On ch=1 n=f#5 v=60
13568 On ch=2 n=d#3 v=50
13568 On ch=2 n=d#4 v=50
13632 On ch=1 n=a#4 v=0
13632 On ch=1 n=d#5 v=0
13632 On ch=1 n=f#5 v=0
13632 On ch=1 n=a#5 v=67
13638 On ch=2 n=d#3 v=0
13638 On ch=2 n=d#4 v=0
13696 On ch=1 n=a#5 v=0
13696 On ch=1 n=b4 v=73
13696 On ch=1 n=e5 v=73
13696 On ch=1 n=g#5 v=73
13696 On ch=2 n=g#3 v=63
13696 On ch=2 n=e4 v=63
13888 On ch=1 n=b4 v=0
13888 On ch=1 n=e5 v=0
13888 On ch=1 n=g#5 v=0
13888 On ch=1 n=b5 v=78
13952 On ch=1 n=b5 v=0
13952 On ch=2 n=g#3 v=0
13952 On ch=2 n=e4 v=0
13952 On ch=1 n=c#5 v=73
13952 On ch=1 n=f#5 v=73
13952 On ch=1 n=a#5 v=73
13952 On ch=2 n=f#3 v=63
13952 On ch=2 n=f#4 v=63
14177 On ch=1 n=c#5 v=0
14177 On ch=1 n=f#5 v=0
14177 On ch=1 n=a#5 v=0
14177 On ch=2 n=f#3 v=0
14177 On ch=2 n=f#4 v=0
14208 On ch=1 n=d#5 v=65
14208 On ch=1 n=b5 v=65
14208 On ch=2 n=b3 v=55
14208 On ch=2 n=f#4 v=55
14278 On ch=1 n=d#5 v=0
14278 On ch=1 n=b5 v=0
14278 On ch=2 n=b3 v=0
14278 On ch=2 n=f#4 v=0
14336 On ch=1 n=f#5 v=90
14336 On ch=1 n=c#6 v=90
14336 On ch=2 n=a#4 v=106
14336 On ch=2 n=c#5 v=106
14528 On ch=1 n=f#5 v=0
14528 On ch=1 n=c#6 v=0
14528 On ch=1 n=d#6 v=96
14561 On ch=2 n=a#4 v=0
14561 On ch=2 n=c#5 v=0
14592 On ch=1 n=d#6 v=0
14592 On ch=1 n=g#5 v=76
14592 On ch=1 n=b5 v=76
14592 On ch=2 n=g#4 v=91
14592 On ch=2 n=d#5 v=91
14662 On ch=1 n=g#5 v=0
14662 On ch=1 n=b5 v=0
14662 On ch=2 n=g#4 v=0
14662 On ch=2 n=d#5 v=0
14720 On ch=1 n=g#5 v=79
14720 On ch=1 n=b5 v=79
14720 On ch=2 n=g#4 v=88
14720 On ch=2 n=d#5 v=88
14784 On ch=1 n=g#5 v=0
14784 On ch=1 n=b5 v=0
14784 On ch=1 n=d#6 v=92
14848 On ch=1 n=d#6 v=0
14848 On ch=1 n=f#5 v=79
14848 On ch=1 n=c#6 v=79
14848 On ch=2 n=g#4 v=0
14848 On ch=2 n=d#5 v=0
14848 On ch=2 n=d#4 v=76
14848 On ch=2 n=a#4 v=76
14848 On ch=2 n=c#5 v=76
14912 On ch=1 n=f#5 v=0
14912 On ch=1 n=c#6 v=0
14912 On ch=1 n=d#6 v=84
14976 On ch=1 n=d#6 v=0
14976 On ch=1 n=g#5 v=74
14976 On ch=1 n=b5 v=74
14976 On ch=2 n=d#4 v=0
14976 On ch=2 n=a#4 v=0
14976 On ch=2 n=c#5 v=0
14976 On ch=2 n=g#4 v=84
14976 On ch=2 n=d#5 v=84
15046 On ch=1 n=g#5 v=0
15046 On ch=1 n=b5 v=0
15046 On ch=2 n=g#4 v=0
15046 On ch=2 n=d#5 v=0
15104 On ch=1 n=e5 v=85
15104 On ch=1 n=b5 v=85
15104 On ch=2 n=g#4 v=92
15104 On ch=2 n=b4 v=92
15296 On ch=1 n=e5 v=0
15296 On ch=1 n=b5 v=0
15296 On ch=1 n=c#6 v=89
15329 On ch=2 n=g#4 v=0
15329 On ch=2 n=b4 v=0
15360 On ch=1 n=c#6 v=0
15360 On ch=1 n=f#5 v=80
15360 On ch=1 n=a#5 v=80
15360 On ch=2 n=f#4 v=87
15360 On ch=2 n=c#5 v=87
15430 On ch=1 n=f#5 v=0
15430 On ch=1 n=a#5 v=0
15430 On ch=2 n=f#4 v=0
15430 On ch=2 n=c#5 v=0
15488 On ch=1 n=f#5 v=79
15488 On ch=1 n=a#5 v=79
15488 On ch=2 n=f#4 v=83
15488 On ch=2 n=c#5 v=83
15552 On ch=1 n=f#5 v=0
15552 On ch=1 n=a#5 v=0
15552 On ch=1 n=c#6 v=88
15616 On ch=1 n=c#6 v=0
15616 On ch=1 n=e5 v=79
15616 On ch=1 n=b5 v=79
15616 On ch=2 n=f#4 v=0
15616 On ch=2 n=c#5 v=0
15616 On ch=2 n=c#4 v=75
15616 On ch=2 n=g#4 v=75
15616 On ch=2 n=b4 v=75
15680 On ch=1 n=e5 v=0
15680 On ch=1 n=b5 v=0
15680 On ch=1 n=c#6 v=88
15744 On ch=1 n=c#6 v=0
15744 On ch=1 n=f#5 v=82
15744 On ch=1 n=a#5 v=82
15744 On ch=2 n=c#4 v=0
15744 On ch=2 n=g#4 v=0
15744 On ch=2 n=b4 v=0
15744 On ch=2 n=f#4 v=90
15744 On ch=2 n=c#5 v=90
15814 On ch=1 n=f#5 v=0
15814 On ch=1 n=a#5 v=0
15814 On ch=2 n=f#4 v=0
15814 On ch=2 n=c#5 v=0
15872 On ch=1 n=f#5 v=81
15872 On ch=1 n=a#5 v=81
15872 On ch=2 n=f#4 v=82
15872 On ch=2 n=c#5 v=82
16064 On ch=1 n=f#5 v=0
16064 On ch=1 n=a#5 v=0
16064 On ch=1 n=b5 v=79
16128 On ch=1 n=b5 v=0
16128 On ch=1 n=e5 v=67
16128 On ch=1 n=g#5 v=67
16128 On ch=2 n=f#4 v=0
16128 On ch=2 n=c#5 v=0
16128 On ch=2 n=g#4 v=72
16128 On ch=2 n=b4 v=72
16198 On ch=1 n=e5 v=0
16198 On ch=1 n=g#5 v=0
16198 On ch=2 n=g#4 v=0
16198 On ch=2 n=b4 v=0
16256 On ch=1 n=e5 v=69
16256 On ch=1 n=g#5 v=69
16256 On ch=2 n=g#4 v=70
16256 On ch=2 n=b4 v=70
16448 On ch=1 n=e5 v=0
16448 On ch=1 n=g#5 v=0
16448 On ch=1 n=a#5 v=63
16512 On ch=1 n=a#5 v=0
16512 On ch=1 n=d#5 v=60
16512 On ch=1 n=f#5 v=60
16512 On ch=2 n=g#4 v=0
16512 On ch=2 n=b4 v=0
16512 On ch=2 n=d#4 v=60
16512 On ch=2 n=a#4 v=60
16582 On ch=1 n=d#5 v=0
16582 On ch=1 n=f#5 v=0
16582 On ch=2 n=d#4 v=0
16582 On ch=2 n=a#4 v=0
16640 On ch=1 n=d#5 v=60
16640 On ch=1 n=f#5 v=60
16640 On ch=2 n=d#4 v=60
16640 On ch=2 n=a#4 v=60
17024 On ch=1 n=d#5 v=0
17024 On ch=2 n=d#4 v=0
17024 On ch=2 n=a#4 v=0
17024 On ch=1 n=d5 v=60
17024 On ch=2 n=f#4 v=60
17024 On ch=2 n=a4 v=60
17216 On ch=1 n=f#5 v=0
17216 On ch=1 n=g#5 v=79
17280 On ch=1 n=d5 v=0
17280 On ch=1 n=g#5 v=0
17280 On ch=1 n=f5 v=86
17280 On ch=1 n=c#5 v=86
17280 On ch=2 n=f#4 v=0
17280 On ch=2 n=a4 v=0
17280 On ch=2 n=c#4 v=86
17280 On ch=2 n=g#4 v=86
17350 On ch=1 n=f5 v=0
17350 On ch=1 n=c#5 v=0
17350 On ch=2 n=c#4 v=0
17350 On ch=2 n=g#4 v=0
17408 On ch=1 n=f5 v=86
17408 On ch=1 n=c#5 v=86
17408 On ch=2 n=c#4 v=86
17408 On ch=2 n=g#4 v=86
17984 On ch=1 n=f5 v=0
17984 On ch=1 n=f#5 v=65
18048 On ch=1 n=c#5 v=0
18048 On ch=1 n=f#5 v=0
18048 On ch=1 n=e5 v=49
18048 On ch=1 n=a4 v=56
18048 On ch=1 n=c5 v=56
18048 On ch=2 n=c#4 v=0
18048 On ch=2 n=g#4 v=0
18048 On ch=2 n=a3 v=48
18048 On ch=2 n=e4 v=48
18176 On ch=2 n=a3 v=0
18176 On ch=2 n=a3 v=53
18304 On ch=1 n=a4 v=0
18304 On ch=1 n=c5 v=0
18304 On ch=1 n=g#4 v=58
18304 On ch=2 n=a3 v=0
18304 On ch=2 n=e3 v=56
18368 On ch=1 n=e5 v=0
18368 On ch=1 n=f#5 v=51
18374 On ch=2 n=e3 v=0
18432 On ch=1 n=f#5 v=0
18432 On ch=1 n=b4 v=49
18432 On ch=1 n=d#5 v=49
18432 On ch=2 n=e4 v=0
18432 On ch=2 n=d#4 v=47
18432 On ch=2 n=g#3 v=62
18502 On ch=1 n=b4 v=0
18502 On ch=1 n=d#5 v=0
18560 On ch=1 n=g#4 v=0
18560 On ch=2 n=g#3 v=0
18560 On ch=1 n=b4 v=45
18560 On ch=1 n=d#5 v=45
18560 On ch=1 n=g#4 v=59
18560 On ch=2 n=g#3 v=58
18816 On ch=1 n=g#4 v=0
18816 On ch=1 n=g4 v=59
18816 On ch=2 n=g#3 v=0
18816 On ch=2 n=d#3 v=58
18944 On ch=1 n=b5 v=49
18944 On ch=1 n=d#6 v=49
19328 On ch=1 n=b4 v=0
19328 On ch=1 n=d#5 v=0
19328 On ch=1 n=g4 v=0
19328 On ch=2 n=d#4 v=0
19328 On ch=2 n=d#3 v=0
19584 On ch=1 n=d#5 v=43
19584 On ch=1 n=g#4 v=57
19584 On ch=1 n=b4 v=57
19584 On ch=2 n=g#3 v=49
19584 On ch=2 n=d#4 v=49
19654 On ch=1 n=d#5 v=0
19712 On ch=1 n=b5 v=0
19712 On ch=1 n=d#6 v=0
19712 On ch=1 n=g#4 v=0
19712 On ch=1 n=b4 v=0
19712 On ch=2 n=g#3 v=0
19712 On ch=2 n=d#4 v=0
19712 On ch=1 n=d#5 v=45
19712 On ch=1 n=g#4 v=61
19712 On ch=1 n=b4 v=61
19712 On ch=2 n=g#3 v=48
19712 On ch=2 n=d#4 v=48
19904 On ch=1 n=d#5 v=0
19904 On ch=1 n=e5 v=59
19968 On ch=1 n=g#4 v=0
19968 On ch=1 n=b4 v=0
19968 On ch=1 n=e5 v=0
19968 On ch=1 n=c#5 v=60
19968 On ch=1 n=g#4 v=60
19968 On ch=1 n=b4 v=60
19968 On ch=2 n=g#3 v=0
19968 On ch=2 n=d#4 v=0
19968 On ch=2 n=e3 v=60
19968 On ch=2 n=c#4 v=60
20096 On ch=1 n=c#5 v=0
20096 On ch=1 n=g#4 v=0
20096 On ch=1 n=b4 v=0
20096 On ch=2 n=e3 v=0
20096 On ch=2 n=c#4 v=0
20096 On ch=1 n=c#5 v=58
20096 On ch=1 n=g#4 v=58
20096 On ch=1 n=b4 v=58
20096 On ch=2 n=e3 v=62
20096 On ch=2 n=c#4 v=62
20480 On ch=1 n=g#6 v=42
20480 On ch=1 n=b6 v=42
20864 On ch=1 n=c#5 v=0
20864 On ch=1 n=g#4 v=0
20864 On ch=1 n=b4 v=0
20864 On ch=2 n=e3 v=0
20864 On ch=2 n=c#4 v=0
21120 On ch=1 n=c#5 v=60
21120 On ch=1 n=g#4 v=54
21120 On ch=1 n=b4 v=54
21120 On ch=2 n=e3 v=60
21120 On ch=2 n=c#4 v=60
21248 On ch=1 n=g#6 v=0
21248 On ch=1 n=b6 v=0
21248 On ch=1 n=c#5 v=0
21248 On ch=1 n=g#4 v=0
21248 On ch=1 n=b4 v=0
21248 On ch=2 n=e3 v=0
21248 On ch=2 n=c#4 v=0
21248 On ch=1 n=c#5 v=48
21248 On ch=1 n=g#4 v=64
21248 On ch=1 n=b4 v=64
21248 On ch=2 n=e3 v=48
21248 On ch=2 n=c#4 v=48
21312 On ch=1 n=c#5 v=0
21312 On ch=1 n=e5 v=41
21376 On ch=1 n=e5 v=0
21376 On ch=1 n=d#5 v=35
21376 On ch=2 n=e3 v=0
21376 On ch=2 n=c#4 v=0
21376 On ch=2 n=g#3 v=35
21376 On ch=2 n=d#4 v=35
21632 On ch=1 n=b6 v=49
21632 On ch=1 n=d#7 v=49
22016 On ch=1 n=d#5 v=0
22016 On ch=1 n=g#4 v=0
22016 On ch=1 n=b4 v=0
22016 On ch=2 n=g#3 v=0
22016 On ch=2 n=d#4 v=0
22272 On ch=1 n=c#5 v=52
22272 On ch=1 n=g#4 v=54
22272 On ch=1 n=b4 v=54
22272 On ch=2 n=e3 v=58
22272 On ch=2 n=c#4 v=58
22400 On ch=1 n=b6 v=0
22400 On ch=1 n=d#7 v=0
22400 On ch=1 n=c#5 v=0
22400 On ch=1 n=g#4 v=0
22400 On ch=1 n=b4 v=0
22400 On ch=2 n=e3 v=0
22400 On ch=2 n=c#4 v=0
22400 On ch=1 n=g#4 v=58
22400 On ch=1 n=b4 v=58
22400 On ch=1 n=c#5 v=58
22400 On ch=2 n=e3 v=64
22400 On ch=2 n=b3 v=64
22592 On ch=1 n=g#4 v=0
22592 On ch=1 n=b4 v=0
22592 On ch=1 n=c#5 v=0
22592 On ch=1 n=e5 v=63
22656 On ch=1 n=e5 v=0
22656 On ch=1 n=f#4 v=60
22656 On ch=1 n=b4 v=60
22656 On ch=1 n=d#5 v=60
22656 On ch=2 n=e3 v=0
22656 On ch=2 n=b3 v=0
22656 On ch=2 n=b2 v=52
22726 On ch=1 n=f#4 v=0
22726 On ch=1 n=b4 v=0
22726 On ch=1 n=d#5 v=0
22726 On ch=2 n=b2 v=0
22784 On ch=1 n=g#4 v=63
22784 On ch=1 n=b4 v=63
22784 On ch=1 n=d#5 v=63
22784 On ch=2 n=g#3 v=66
22848 On ch=1 n=g#4 v=0
22848 On ch=1 n=b4 v=0
22848 On ch=1 n=d#5 v=0
22848 On ch=1 n=f#5 v=69
22912 On ch=1 n=f#5 v=0
22912 On ch=1 n=g#4 v=55
22912 On ch=1 n=c#5 v=55
22912 On ch=1 n=e5 v=55
22912 On ch=2 n=g#3 v=0
22912 On ch=2 n=c#3 v=70
22912 On ch=2 n=c#4 v=70
22976 On ch=1 n=g#4 v=0
22976 On ch=1 n=c#5 v=0
22976 On ch=1 n=e5 v=0
22976 On ch=1 n=g#5 v=66
23040 On ch=1 n=g#5 v=0
23040 On ch=1 n=a#4 v=58
23040 On ch=1 n=d#5 v=58
23040 On ch=1 n=f#5 v=58
23040 On ch=2 n=c#3 v=0
23040 On ch=2 n=c#4 v=0
23040 On ch=2 n=d#3 v=50
23168 On ch=1 n=d#7 v=54
23168 On ch=1 n=f#7 v=54
23552 On ch=1 n=a#4 v=0
23552 On ch=1 n=d#5 v=0
23552 On ch=1 n=f#5 v=0
23552 On ch=2 n=d#3 v=0
23808 On ch=1 n=g#4 v=61
23808 On ch=1 n=b4 v=61
23808 On ch=1 n=c#5 v=61
23808 On ch=2 n=e3 v=57
23808 On ch=2 n=b3 v=57
23936 On ch=1 n=d#7 v=0
23936 On ch=1 n=f#7 v=0
23936 On ch=1 n=g#4 v=0
23936 On ch=1 n=b4 v=0
23936 On ch=1 n=c#5 v=0
23936 On ch=2 n=e3 v=0
23936 On ch=2 n=b3 v=0
23936 On ch=1 n=g#4 v=57
23936 On ch=1 n=b4 v=57
23936 On ch=1 n=c#5 v=57
23936 On ch=2 n=e3 v=58
23936 On ch=2 n=b3 v=58
24128 On ch=1 n=g#4 v=0
24128 On ch=1 n=b4 v=0
24128 On ch=1 n=c#5 v=0
24128 On ch=1 n=e5 v=68
24192 On ch=1 n=e5 v=0
24192 On ch=1 n=f#4 v=54
24192 On ch=1 n=b4 v=54
24192 On ch=1 n=d#5 v=54
24192 On ch=2 n=e3 v=0
24192 On ch=2 n=b3 v=0
24192 On ch=2 n=b2 v=53
24320 On ch=1 n=f#4 v=0
24320 On ch=1 n=b4 v=0
24320 On ch=1 n=d#5 v=0
24320 On ch=1 n=g#4 v=60
24320 On ch=1 n=b4 v=60
24320 On ch=1 n=d#5 v=60
24320 On ch=2 n=b2 v=0
24320 On ch=2 n=g#3 v=60
24384 On ch=1 n=g#4 v=0
24384 On ch=1 n=b4 v=0
24384 On ch=1 n=d#5 v=0
24384 On ch=1 n=f#5 v=64
24448 On ch=1 n=f#5 v=0
24448 On ch=1 n=g#4 v=68
24448 On ch=1 n=c#5 v=68
24448 On ch=1 n=e5 v=68
24448 On ch=2 n=g#3 v=0
24448 On ch=2 n=c#3 v=68
24448 On ch=2 n=c#4 v=68
24512 On ch=1 n=g#4 v=0
24512 On ch=1 n=c#5 v=0
24512 On ch=1 n=e5 v=0
24512 On ch=1 n=g#5 v=71
24576 On ch=1 n=g#5 v=0
24576 On ch=1 n=a#4 v=75
24576 On ch=1 n=d#5 v=75
24576 On ch=1 n=f#5 v=75
24576 On ch=2 n=c#3 v=0
24576 On ch=2 n=c#4 v=0
24576 On ch=2 n=d#3 v=75
24576 On ch=2 n=d#4 v=75
24768 On ch=1 n=a#4 v=0
24768 On ch=1 n=d#5 v=0
24768 On ch=1 n=f#5 v=0
24768 On ch=1 n=a#5 v=86
24832 On ch=1 n=a#5 v=0
24832 On ch=1 n=b4 v=83
24832 On ch=1 n=d#5 v=83
24832 On ch=1 n=g#5 v=83
24832 On ch=2 n=d#3 v=0
24832 On ch=2 n=d#4 v=0
24832 On ch=2 n=g#3 v=79
24832 On ch=2 n=d#4 v=79
25088 On ch=1 n=g#7 v=51
25088 On ch=1 n=b7 v=51
25408 On ch=1 n=b4 v=0
25408 On ch=1 n=d#5 v=0
25408 On ch=1 n=g#5 v=0
25408 On ch=1 n=b5 v=93
25472 On ch=1 n=g#7 v=0
25472 On ch=1 n=b7 v=0
25472 On ch=1 n=b5 v=0
25472 On ch=2 n=g#3 v=0
25472 On ch=2 n=d#4 v=0
25472 On ch=1 n=c#5 v=87
25472 On ch=1 n=f#5 v=87
25472 On ch=1 n=a#5 v=87
25472 On ch=2 n=f#3 v=87
25472 On ch=2 n=f#4 v=87
25536 On ch=1 n=c#5 v=0
25536 On ch=1 n=f#5 v=0
25536 On ch=1 n=a#5 v=0
25536 On ch=1 n=c#6 v=96
25600 On ch=1 n=c#6 v=0
25600 On ch=1 n=d#5 v=93
25600 On ch=1 n=f#5 v=93
25600 On ch=1 n=b5 v=93
25600 On ch=2 n=f#3 v=0
25600 On ch=2 n=f#4 v=0
25600 On ch=2 n=b3 v=99
25600 On ch=2 n=f#4 v=99
25825 On ch=1 n=d#5 v=0
25825 On ch=1 n=f#5 v=0
25825 On ch=1 n=b5 v=0
25825 On ch=2 n=b3 v=0
25825 On ch=2 n=f#4 v=0
25856 On ch=1 n=a#4 v=91
25856 On ch=1 n=f#5 v=91
25856 On ch=1 n=a#5 v=91
25856 On ch=2 n=f#3 v=99
25856 On ch=2 n=d#4 v=99
26048 On ch=1 n=a#4 v=0
26048 On ch=1 n=f#5 v=0
26048 On ch=1 n=a#5 v=0
26048 On ch=1 n=b5 v=105
26081 On ch=2 n=f#3 v=0
26081 On ch=2 n=d#4 v=0
26112 On ch=1 n=b5 v=0
26112 On ch=1 n=b4 v=88
26112 On ch=1 n=e5 v=88
26112 On ch=1 n=g#5 v=88
26112 On ch=2 n=g#3 v=114
26112 On ch=2 n=e4 v=114
26182 On ch=1 n=b4 v=0
26182 On ch=1 n=e5 v=0
26182 On ch=1 n=g#5 v=0
26182 On ch=2 n=g#3 v=0
26182 On ch=2 n=e4 v=0
26240 On ch=1 n=b4 v=102
26240 On ch=1 n=e5 v=102
26240 On ch=1 n=g#5 v=102
26240 On ch=2 n=g#3 v=112
26240 On ch=2 n=e4 v=112
26304 On ch=1 n=b4 v=0
26304 On ch=1 n=e5 v=0
26304 On ch=1 n=g#5 v=0
26304 On ch=1 n=b5 v=103
26368 On ch=1 n=b5 v=0
26368 On ch=1 n=a#4 v=91
26368 On ch=1 n=f#5 v=91
26368 On ch=1 n=a#5 v=91
26368 On ch=2 n=g#3 v=0
26368 On ch=2 n=e4 v=0
26368 On ch=2 n=f#3 v=108
26368 On ch=2 n=d#4 v=108
26432 On ch=1 n=a#4 v=0
26432 On ch=1 n=f#5 v=0
26432 On ch=1 n=a#5 v=0
26432 On ch=1 n=b5 v=106
26496 On ch=1 n=b5 v=0
26496 On ch=1 n=b4 v=84
26496 On ch=1 n=e5 v=84
26496 On ch=1 n=g#5 v=84
26496 On ch=2 n=f#3 v=0
26496 On ch=2 n=d#4 v=0
26496 On ch=2 n=g#3 v=114
26496 On ch=2 n=e4 v=114
26566 On ch=1 n=b4 v=0
26566 On ch=1 n=e5 v=0
26566 On ch=1 n=g#5 v=0
26566 On ch=2 n=g#3 v=0
26566 On ch=2 n=e4 v=0
26624 On ch=1 n=b4 v=88
26624 On ch=1 n=e5 v=88
26624 On ch=1 n=g#5 v=88
26624 On ch=2 n=g#3 v=85
26624 On ch=2 n=e4 v=85
26816 On ch=1 n=b4 v=0
26816 On ch=1 n=e5 v=0
26816 On ch=1 n=g#5 v=0
26816 On ch=1 n=a#5 v=82
26880 On ch=1 n=a#5 v=0
26880 On ch=1 n=a#4 v=78
26880 On ch=1 n=d#5 v=78
26880 On ch=1 n=f#5 v=78
26880 On ch=2 n=g#3 v=0
26880 On ch=2 n=e4 v=0
26880 On ch=2 n=d#3 v=82
26880 On ch=2 n=d#4 v=82
26950 On ch=1 n=a#4 v=0
26950 On ch=1 n=d#5 v=0
26950 On ch=1 n=f#5 v=0
26950 On ch=2 n=d#3 v=0
26950 On ch=2 n=d#4 v=0
27008 On ch=1 n=a#4 v=79
27008 On ch=1 n=d#5 v=79
27008 On ch=1 n=f#5 v=79
27008 On ch=2 n=d#3 v=83
27008 On ch=2 n=d#4 v=83
27072 On ch=1 n=a#4 v=0
27072 On ch=1 n=d#5 v=0
27072 On ch=1 n=f#5 v=0
27072 On ch=1 n=a#5 v=87
27136 On ch=1 n=a#5 v=0
27136 On ch=1 n=b4 v=82
27136 On ch=1 n=e5 v=82
27136 On ch=1 n=g#5 v=82
27136 On ch=2 n=d#3 v=0
27136 On ch=2 n=d#4 v=0
27136 On ch=2 n=g#3 v=81
27136 On ch=2 n=e4 v=81
27200 On ch=1 n=b4 v=0
27200 On ch=1 n=e5 v=0
27200 On ch=1 n=g#5 v=0
27200 On ch=1 n=a#5 v=88
27264 On ch=1 n=a#5 v=0
27264 On ch=1 n=b4 v=75
27264 On ch=1 n=d#5 v=75
27264 On ch=1 n=f#5 v=75
27264 On ch=2 n=g#3 v=0
27264 On ch=2 n=e4 v=0
27264 On ch=2 n=d#3 v=79
27264 On ch=2 n=d#4 v=79
27392 On ch=1 n=b4 v=0
27392 On ch=1 n=d#5 v=0
27392 On ch=1 n=f#5 v=0
27392 On ch=2 n=d#3 v=0
27392 On ch=2 n=d#4 v=0
27392 On ch=1 n=a#4 v=85
27392 On ch=1 n=d#5 v=85
27392 On ch=1 n=f#5 v=85
27392 On ch=2 n=d#3 v=80
27392 On ch=2 n=d#4 v=80
27584 On ch=1 n=a#4 v=0
27584 On ch=1 n=d#5 v=0
27584 On ch=1 n=f#5 v=0
27584 On ch=1 n=g#5 v=78
27648 On ch=1 n=g#5 v=0
27648 On ch=1 n=g#4 v=72
27648 On ch=1 n=c#5 v=72
27648 On ch=1 n=e5 v=72
27648 On ch=2 n=d#3 v=0
27648 On ch=2 n=d#4 v=0
27648 On ch=2 n=e3 v=72
27648 On ch=2 n=c#4 v=72
27776 On ch=1 n=g#4 v=0
27776 On ch=1 n=c#5 v=0
27776 On ch=1 n=e5 v=0
27776 On ch=2 n=e3 v=0
27776 On ch=2 n=c#4 v=0
27776 On ch=1 n=g#4 v=53
27776 On ch=1 n=c#5 v=53
27776 On ch=1 n=e5 v=53
27776 On ch=2 n=e3 v=71
27776 On ch=2 n=c#4 v=71
27968 On ch=1 n=g#4 v=0
27968 On ch=1 n=c#5 v=0
27968 On ch=1 n=e5 v=0
27968 On ch=1 n=f#5 v=63
28032 On ch=1 n=f#5 v=0
28032 On ch=1 n=f#4 v=56
28032 On ch=1 n=b4 v=56
28032 On ch=1 n=d#5 v=56
28032 On ch=2 n=e3 v=0
28032 On ch=2 n=c#4 v=0
28032 On ch=2 n=f#3 v=61
28032 On ch=2 n=d#4 v=61
28160 On ch=1 n=f#4 v=0
28160 On ch=1 n=b4 v=0
28160 On ch=1 n=d#5 v=0
28160 On ch=2 n=f#3 v=0
28160 On ch=2 n=d#4 v=0
28160 On ch=1 n=f#4 v=60
28160 On ch=1 n=b4 v=60
28160 On ch=1 n=d#5 v=60
28160 On ch=2 n=f#3 v=60
28160 On ch=2 n=d#4 v=60
28352 On ch=1 n=f#4 v=0
28352 On ch=1 n=b4 v=0
28352 On ch=1 n=d#5 v=0
28352 On ch=1 n=e5 v=66
28416 On ch=1 n=e5 v=0
28416 On ch=1 n=e4 v=60
28416 On ch=1 n=a#4 v=60
28416 On ch=1 n=c#5 v=60
28416 On ch=2 n=f#3 v=0
28416 On ch=2 n=d#4 v=0
28416 On ch=2 n=g3 v=50
28544 On ch=1 n=e4 v=0
28544 On ch=1 n=a#4 v=0
28544 On ch=1 n=c#5 v=0
28544 On ch=2 n=g3 v=0
28544 On ch=1 n=e4 v=73
28544 On ch=1 n=a#4 v=73
28544 On ch=1 n=c#5 v=73
28544 On ch=2 n=g3 v=61
28608 On ch=1 n=e4 v=0
28608 On ch=1 n=a#4 v=0
28608 On ch=1 n=c#5 v=0
28608 On ch=1 n=d#5 v=77
28672 On ch=1 n=d#5 v=0
28672 On ch=1 n=d#4 v=72
28672 On ch=1 n=g#4 v=72
28672 On ch=1 n=b4 v=72
28672 On ch=2 n=g3 v=0
28672 On ch=2 n=g#3 v=71
28864 On ch=1 n=d#4 v=0
28864 On ch=1 n=g#4 v=0
28864 On ch=1 n=b4 v=0
28864 On ch=1 n=c#5 v=55
28928 On ch=1 n=c#5 v=0
28928 On ch=2 n=g#3 v=0
28928 On ch=1 n=e4 v=44
28928 On ch=1 n=g#4 v=44
28928 On ch=1 n=b4 v=44
28928 On ch=2 n=c#3 v=44
28928 On ch=2 n=g#3 v=44
29120 On ch=1 n=e4 v=0
29120 On ch=1 n=g#4 v=0
29120 On ch=1 n=b4 v=0
29120 On ch=1 n=c#5 v=51
29184 On ch=1 n=c#5 v=0
29184 On ch=1 n=d#4 v=53
29184 On ch=1 n=g#4 v=53
29184 On ch=1 n=b4 v=53
29184 On ch=2 n=c#3 v=0
29184 On ch=2 n=g#2 v=45
29312 On ch=1 n=d#4 v=0
29312 On ch=1 n=g#4 v=0
29312 On ch=1 n=b4 v=0
29312 On ch=2 n=g#2 v=0
29312 On ch=2 n=g#3 v=0
29312 On ch=1 n=e4 v=50
29312 On ch=1 n=g#4 v=50
29312 On ch=1 n=b4 v=50
29312 On ch=2 n=e3 v=48
29376 On ch=1 n=e4 v=0
29376 On ch=1 n=g#4 v=0
29376 On ch=1 n=b4 v=0
29376 On ch=1 n=d#5 v=57
29440 On ch=1 n=d#5 v=0
29440 On ch=1 n=e4 v=63
29440 On ch=1 n=g#4 v=63
29440 On ch=1 n=c#5 v=63
29440 On ch=2 n=e3 v=0
29440 On ch=2 n=a#2 v=60
29440 On ch=2 n=a#3 v=60
29504 On ch=1 n=e4 v=0
29504 On ch=1 n=g#4 v=0
29504 On ch=1 n=c#5 v=0
29504 On ch=1 n=e5 v=69
29568 On ch=1 n=e5 v=0
29568 On ch=1 n=g4 v=76
29568 On ch=1 n=c#5 v=76
29568 On ch=1 n=d#5 v=76
29568 On ch=2 n=a#2 v=0
29568 On ch=2 n=a#3 v=0
29568 On ch=2 n=d#3 v=73
29696 On ch=1 n=g4 v=0
29696 On ch=1 n=c#5 v=0
29696 On ch=1 n=d#5 v=0
29696 On ch=2 n=d#3 v=0
29696 On ch=1 n=e4 v=45
29696 On ch=1 n=g4 v=45
29696 On ch=1 n=b4 v=45
29696 On ch=2 n=e3 v=55
29696 On ch=2 n=b3 v=55
29888 On ch=1 n=e4 v=0
29888 On ch=1 n=g4 v=0
29888 On ch=1 n=b4 v=0
29888 On ch=1 n=c#5 v=54
29952 On ch=1 n=c#5 v=0
29952 On ch=1 n=d#4 v=47
29952 On ch=1 n=g#4 v=47
29952 On ch=1 n=b4 v=47
29952 On ch=2 n=e3 v=0
29952 On ch=2 n=b3 v=0
29952 On ch=2 n=g#2 v=45
29952 On ch=2 n=g#3 v=45
30080 On ch=1 n=d#4 v=0
30080 On ch=1 n=g#4 v=0
30080 On ch=1 n=b4 v=0
30080 On ch=2 n=g#2 v=0
30080 On ch=2 n=g#3 v=0
30080 On ch=1 n=e4 v=50
30080 On ch=1 n=g#4 v=50
30080 On ch=1 n=b4 v=50
30080 On ch=2 n=c#3 v=50
30144 On ch=1 n=e4 v=0
30144 On ch=1 n=g#4 v=0
30144 On ch=1 n=b4 v=0
30144 On ch=1 n=d#5 v=57
30208 On ch=1 n=d#5 v=0
30208 On ch=1 n=e4 v=63
30208 On ch=1 n=g#4 v=63
30208 On ch=1 n=c#5 v=63
30208 On ch=2 n=c#3 v=0
30208 On ch=2 n=a#2 v=63
30208 On ch=2 n=a#3 v=63
30272 On ch=1 n=e4 v=0
30272 On ch=1 n=g#4 v=0
30272 On ch=1 n=c#5 v=0
30272 On ch=1 n=e5 v=69
30336 On ch=1 n=e5 v=0
30336 On ch=1 n=g4 v=76
30336 On ch=1 n=c#5 v=76
30336 On ch=1 n=d#5 v=76
30336 On ch=2 n=a#2 v=0
30336 On ch=2 n=a#3 v=0
30336 On ch=2 n=d#3 v=76
30406 On ch=1 n=g4 v=0
30406 On ch=1 n=c#5 v=0
30406 On ch=1 n=d#5 v=0
30406 On ch=2 n=d#3 v=0
30464 On ch=1 n=f#5 v=93
30464 On ch=1 n=b4 v=112
30464 On ch=1 n=d#5 v=112
30464 On ch=2 n=d#4 v=90
30464 On ch=2 n=g#3 v=105
30656 On ch=1 n=f#5 v=0
30656 On ch=1 n=g#5 v=90
30720 On ch=1 n=b4 v=0
30720 On ch=1 n=d#5 v=0
30720 On ch=1 n=g#5 v=0
30720 On ch=1 n=f#5 v=79
30720 On ch=1 n=a#4 v=101
30720 On ch=1 n=d#5 v=101
30720 On ch=2 n=g#3 v=0
30720 On ch=2 n=d#3 v=99
30784 On ch=1 n=f#5 v=0
30784 On ch=1 n=g#5 v=83
30790 On ch=2 n=d#3 v=0
30819 On ch=1 n=g#5 v=0
30848 On ch=1 n=a#4 v=0
30848 On ch=1 n=d#5 v=0
30848 On ch=2 n=d#4 v=0
30848 On ch=1 n=e5 v=80
30848 On ch=1 n=a4 v=95
30848 On ch=1 n=c#5 v=95
30848 On ch=2 n=c#4 v=77
30848 On ch=2 n=f#3 v=92
31040 On ch=1 n=e5 v=0
31040 On ch=1 n=f#5 v=69
31104 On ch=1 n=a4 v=0
31104 On ch=1 n=c#5 v=0
31104 On ch=1 n=f#5 v=0
31104 On ch=1 n=e5 v=65
31104 On ch=1 n=g#4 v=80
31104 On ch=1 n=c#5 v=80
31104 On ch=2 n=f#3 v=0
31104 On ch=2 n=c#3 v=80
31168 On ch=1 n=e5 v=0
31168 On ch=1 n=f#5 v=62
31174 On ch=2 n=c#3 v=0
31203 On ch=1 n=f#5 v=0
31232 On ch=1 n=g#4 v=0
31232 On ch=1 n=c#5 v=0
31232 On ch=2 n=c#4 v=0
31232 On ch=1 n=a#4 v=60
31232 On ch=1 n=c#5 v=60
31232 On ch=1 n=e5 v=60
31232 On ch=2 n=f#3 v=59
31296 On ch=1 n=a#4 v=0
31296 On ch=1 n=c#5 v=0
31296 On ch=1 n=e5 v=0
31296 On ch=1 n=f#5 v=65
31360 On ch=1 n=f#5 v=0
31360 On ch=1 n=f#4 v=58
31360 On ch=1 n=b4 v=58
31360 On ch=1 n=d#5 v=58
31360 On ch=2 n=f#3 v=0
31360 On ch=2 n=b2 v=61
31360 On ch=2 n=b3 v=61
31616 On ch=1 n=f#4 v=0
31616 On ch=1 n=b4 v=0
31616 On ch=1 n=d#5 v=0
31616 On ch=2 n=b2 v=0
31616 On ch=2 n=b3 v=0
31616 On ch=1 n=a#5 v=77
31616 On ch=1 n=f#6 v=77
31616 On ch=2 n=d#5 v=79
31616 On ch=2 n=f#5 v=79
31872 On ch=1 n=a#5 v=0
31872 On ch=1 n=f#6 v=0
31872 On ch=1 n=d#6 v=67
31872 On ch=1 n=g#6 v=67
31872 On ch=2 n=d#5 v=0
31872 On ch=2 n=f#5 v=0
31872 On ch=2 n=b4 v=67
31872 On ch=2 n=d#5 v=67
31872 On ch=2 n=g#5 v=67
32064 On ch=1 n=d#6 v=0
32064 On ch=1 n=g#6 v=0
32064 On ch=1 n=a#6 v=61
32064 On ch=2 n=b4 v=0
32064 On ch=2 n=d#5 v=0
32064 On ch=2 n=g#5 v=0
32064 On ch=2 n=a#5 v=63
32128 On ch=1 n=a#6 v=0
32128 On ch=1 n=b5 v=52
32128 On ch=1 n=f#6 v=52
32128 On ch=2 n=a#5 v=0
32128 On ch=2 n=d#5 v=51
32128 On ch=2 n=f#5 v=51
32192 On ch=1 n=b5 v=0
32192 On ch=1 n=f#6 v=0
32192 On ch=1 n=a#6 v=68
32192 On ch=2 n=f#5 v=0
32192 On ch=2 n=a#5 v=65
32256 On ch=1 n=a#6 v=0
32256 On ch=1 n=d#6 v=62
32256 On ch=1 n=g#6 v=62
32256 On ch=2 n=a#5 v=0
32256 On ch=2 n=b4 v=53
32256 On ch=2 n=g#5 v=53
32326 On ch=1 n=d#6 v=0
32326 On ch=1 n=g#6 v=0
32326 On ch=2 n=b4 v=0
32326 On ch=2 n=d#5 v=0
32326 On ch=2 n=g#5 v=0
32384 On ch=1 n=g#4 v=37
32384 On ch=1 n=c#5 v=37
32384 On ch=1 n=e5 v=37
32384 On ch=2 n=c#4 v=46
32384 On ch=2 n=c#3 v=53
32640 On ch=1 n=g#4 v=0
32640 On ch=1 n=c#5 v=0
32640 On ch=1 n=e5 v=0
32640 On ch=1 n=a#4 v=48
32640 On ch=1 n=c#5 v=48
32640 On ch=1 n=f#5 v=48
32640 On ch=2 n=c#3 v=0
32640 On ch=2 n=f#3 v=56
32768 On ch=2 n=c#4 v=0
32768 On ch=2 n=c#4 v=50
32832 On ch=1 n=a#4 v=0
32832 On ch=1 n=c#5 v=0
32832 On ch=1 n=f#5 v=0
32832 On ch=1 n=g#5 v=55
32896 On ch=1 n=g#5 v=0
32896 On ch=1 n=g#4 v=48
32896 On ch=1 n=c#5 v=48
32896 On ch=1 n=e5 v=48
32896 On ch=2 n=c#4 v=0
32896 On ch=2 n=f#3 v=0
32896 On ch=2 n=c#4 v=48
32896 On ch=2 n=c#3 v=45
32960 On ch=1 n=g#4 v=0
32960 On ch=1 n=c#5 v=0
32960 On ch=1 n=e5 v=0
32960 On ch=1 n=g#5 v=51
33024 On ch=1 n=g#5 v=0
33024 On ch=1 n=a#4 v=45
33024 On ch=1 n=c#5 v=45
33024 On ch=1 n=f#5 v=45
33024 On ch=2 n=c#3 v=0
33024 On ch=2 n=f#3 v=53
33094 On ch=1 n=a#4 v=0
33094 On ch=1 n=c#5 v=0
33094 On ch=1 n=f#5 v=0
33094 On ch=2 n=f#3 v=0
33152 On ch=2 n=c#4 v=0
33152 On ch=1 n=f#5 v=73
33152 On ch=1 n=d#6 v=73
33152 On ch=2 n=b4 v=77
33152 On ch=2 n=d#5 v=77
33408 On ch=1 n=f#5 v=0
33408 On ch=1 n=d#6 v=0
33408 On ch=1 n=b5 v=64
33408 On ch=1 n=e6 v=64
33408 On ch=2 n=b4 v=0
33408 On ch=2 n=d#5 v=0
33408 On ch=2 n=g#4 v=66
33408 On ch=2 n=b4 v=66
33408 On ch=2 n=e5 v=66
33600 On ch=1 n=b5 v=0
33600 On ch=1 n=e6 v=0
33600 On ch=1 n=f#6 v=68
33600 On ch=2 n=g#4 v=0
33600 On ch=2 n=b4 v=0
33600 On ch=2 n=e5 v=0
33600 On ch=2 n=f#5 v=66
33664 On ch=1 n=f#6 v=0
33664 On ch=1 n=g#5 v=55
33664 On ch=1 n=d#6 v=55
33664 On ch=2 n=f#5 v=0
33664 On ch=2 n=b4 v=58
33664 On ch=2 n=d#5 v=58
33728 On ch=1 n=g#5 v=0
33728 On ch=1 n=d#6 v=0
33728 On ch=1 n=f#6 v=67
33728 On ch=2 n=d#5 v=0
33728 On ch=2 n=f#5 v=62
33792 On ch=1 n=f#6 v=0
33792 On ch=1 n=b5 v=53
33792 On ch=1 n=e6 v=53
33792 On ch=2 n=f#5 v=0
33792 On ch=2 n=g#4 v=60
33792 On ch=2 n=e5 v=60
33862 On ch=1 n=b5 v=0
33862 On ch=1 n=e6 v=0
33862 On ch=2 n=g#4 v=0
33862 On ch=2 n=b4 v=0
33862 On ch=2 n=e5 v=0
33920 On ch=1 n=g#4 v=60
33920 On ch=1 n=b4 v=60
33920 On ch=1 n=c#5 v=60
33920 On ch=2 n=e3 v=75
33920 On ch=2 n=c#4 v=75
34176 On ch=1 n=g#4 v=0
34176 On ch=1 n=b4 v=0
34176 On ch=1 n=c#5 v=0
34176 On ch=1 n=g4 v=79
34176 On ch=1 n=b4 v=79
34176 On ch=1 n=d#5 v=79
34176 On ch=2 n=e3 v=0
34176 On ch=2 n=c#4 v=0
34176 On ch=2 n=d#3 v=76
34176 On ch=2 n=b3 v=76
34304 On ch=1 n=a#4 v=83
34368 On ch=1 n=g4 v=0
34368 On ch=1 n=a#4 v=0
34368 On ch=1 n=d#5 v=0
34368 On ch=1 n=e5 v=77
34432 On ch=1 n=e5 v=0
34432 On ch=1 n=g#4 v=71
34432 On ch=1 n=c#5 v=71
34432 On ch=2 n=d#3 v=0
34432 On ch=2 n=b3 v=0
34432 On ch=2 n=e3 v=71
34432 On ch=2 n=c#4 v=71
34496 On ch=1 n=g#4 v=0
34496 On ch=1 n=b4 v=0
34496 On ch=1 n=c#5 v=0
34496 On ch=1 n=e5 v=64
34560 On ch=1 n=e5 v=0
34560 On ch=1 n=g4 v=58
34560 On ch=1 n=a#4 v=58
34560 On ch=1 n=d#5 v=58
34560 On ch=2 n=e3 v=0
34560 On ch=2 n=c#4 v=0
34560 On ch=2 n=d#3 v=58
34560 On ch=2 n=b3 v=58
34630 On ch=1 n=g4 v=0
34630 On ch=1 n=a#4 v=0
34630 On ch=1 n=d#5 v=0
34630 On ch=2 n=d#3 v=0
34630 On ch=2 n=b3 v=0
34688 On ch=1 n=c#5 v=54
34688 On ch=1 n=g#4 v=35
34688 On ch=1 n=b4 v=35
34688 On ch=2 n=e3 v=54
34880 On ch=1 n=c#5 v=0
34880 On ch=1 n=e5 v=68
34944 On ch=1 n=g#4 v=0
34944 On ch=1 n=b4 v=0
34944 On ch=1 n=e5 v=0
34944 On ch=1 n=d#5 v=56
34944 On ch=1 n=f#4 v=32
34944 On ch=1 n=b4 v=32
34944 On ch=2 n=e3 v=0
34944 On ch=2 n=b2 v=62
34944 On ch=2 n=b3 v=62
35014 On ch=1 n=d#5 v=0
35014 On ch=2 n=b2 v=0
35014 On ch=2 n=b3 v=0
35072 On ch=1 n=f#4 v=0
35072 On ch=1 n=b4 v=0
35072 On ch=1 n=d#5 v=62
35072 On ch=1 n=g#4 v=36
35072 On ch=1 n=b4 v=36
35072 On ch=2 n=g#3 v=59
35264 On ch=1 n=d#5 v=0
35264 On ch=1 n=f#5 v=68
35328 On ch=1 n=g#4 v=0
35328 On ch=1 n=b4 v=0
35328 On ch=1 n=f#5 v=0
35328 On ch=1 n=e5 v=53
35328 On ch=1 n=g#4 v=34
35328 On ch=1 n=c#5 v=34
35328 On ch=2 n=g#3 v=0
35328 On ch=2 n=c#3 v=65
35328 On ch=2 n=c#4 v=65
35398 On ch=1 n=e5 v=0
35456 On ch=1 n=g#4 v=0
35456 On ch=1 n=c#5 v=0
35456 On ch=2 n=c#3 v=0
35456 On ch=2 n=c#4 v=0
35456 On ch=1 n=a#4 v=62
35456 On ch=1 n=c#5 v=62
35456 On ch=1 n=e5 v=62
35456 On ch=2 n=f#3 v=58
35520 On ch=1 n=a#4 v=0
35520 On ch=1 n=c#5 v=0
35520 On ch=1 n=e5 v=0
35520 On ch=1 n=f#5 v=65
35584 On ch=1 n=f#5 v=0
35584 On ch=1 n=f#4 v=60
35584 On ch=1 n=b4 v=60
35584 On ch=1 n=d#5 v=60
35584 On ch=2 n=f#3 v=0
35584 On ch=2 n=b2 v=64
35584 On ch=2 n=b3 v=64
35840 On ch=1 n=f#4 v=0
35840 On ch=1 n=b4 v=0
35840 On ch=1 n=d#5 v=0
35840 On ch=2 n=b2 v=0
35840 On ch=2 n=b3 v=0
35840 On ch=1 n=a#4 v=43
35840 On ch=1 n=e4 v=60
35840 On ch=1 n=g#4 v=60
35840 On ch=2 n=g#3 v=51
35840 On ch=2 n=c#3 v=59
36032 On ch=1 n=a#4 v=0
36032 On ch=1 n=c#5 v=49
36096 On ch=1 n=e4 v=0
36096 On ch=1 n=g#4 v=0
36096 On ch=1 n=c#5 v=0
36096 On ch=1 n=b4 v=49
36096 On ch=1 n=d#4 v=59
36096 On ch=1 n=g#4 v=59
36096 On ch=2 n=c#3 v=0
36096 On ch=2 n=g#2 v=56
36166 On ch=1 n=b4 v=0
36224 On ch=1 n=d#4 v=0
36224 On ch=1 n=g#4 v=0
36224 On ch=2 n=g#3 v=0
36224 On ch=2 n=g#2 v=0
36224 On ch=1 n=c#5 v=50
36224 On ch=1 n=g#4 v=60
36224 On ch=1 n=b4 v=60
36224 On ch=2 n=b3 v=50
36224 On ch=2 n=e3 v=60
36416 On ch=1 n=c#5 v=0
36416 On ch=1 n=e5 v=69
36480 On ch=1 n=g#4 v=0
36480 On ch=1 n=b4 v=0
36480 On ch=1 n=e5 v=0
36480 On ch=1 n=d#5 v=76
36480 On ch=1 n=g4 v=86
36480 On ch=1 n=b4 v=86
36480 On ch=2 n=e3 v=0
36480 On ch=2 n=d#3 v=86
36550 On ch=1 n=g4 v=0
36550 On ch=1 n=b4 v=0
36550 On ch=2 n=d#3 v=0
36608 On ch=1 n=d#5 v=0
36608 On ch=2 n=b3 v=0
36608 On ch=1 n=f#4 v=76
36608 On ch=1 n=a#4 v=76
36608 On ch=1 n=e5 v=76
36608 On ch=2 n=f#3 v=76
36672 On ch=1 n=f#4 v=0
36672 On ch=1 n=a#4 v=0
36672 On ch=1 n=e5 v=0
36672 On ch=1 n=f#5 v=71
36736 On ch=1 n=f#5 v=0
36736 On ch=1 n=f#4 v=67
36736 On ch=1 n=b4 v=67
36736 On ch=1 n=d#5 v=67
36736 On ch=2 n=f#3 v=0
36736 On ch=2 n=b2 v=67
36736 On ch=2 n=b3 v=67
37120 On ch=1 n=f#4 v=0
37120 On ch=1 n=b4 v=0
37120 On ch=1 n=d#5 v=0
37120 On ch=1 n=g#4 v=50
37120 On ch=1 n=b4 v=50
37120 On ch=1 n=e5 v=50
37120 On ch=2 n=b2 v=0
37120 On ch=2 n=b3 v=0
37120 On ch=2 n=e3 v=50
37120 On ch=2 n=b3 v=50
37312 On ch=1 n=g#4 v=0
37312 On ch=1 n=b4 v=0
37312 On ch=1 n=e5 v=0
37312 On ch=1 n=g#5 v=69
37376 On ch=1 n=g#5 v=0
37376 On ch=2 n=e3 v=0
37376 On ch=2 n=b3 v=0
37376 On ch=1 n=a#4 v=76
37376 On ch=1 n=d#5 v=76
37376 On ch=1 n=f#5 v=76
37376 On ch=2 n=d#4 v=76
37376 On ch=2 n=d#3 v=86
37504 On ch=2 n=d#3 v=0
37504 On ch=2 n=g#3 v=91
37568 On ch=1 n=a#4 v=0
37568 On ch=1 n=d#5 v=0
37568 On ch=1 n=f#5 v=0
37568 On ch=1 n=a#5 v=80
37632 On ch=1 n=a#5 v=0
37632 On ch=1 n=b4 v=72
37632 On ch=1 n=d#5 v=72
37632 On ch=1 n=g#5 v=72
37702 On ch=1 n=b4 v=0
37702 On ch=1 n=d#5 v=0
37702 On ch=1 n=g#5 v=0
37760 On ch=2 n=d#4 v=0
37760 On ch=2 n=g#3 v=0
37760 On ch=1 n=c#5 v=89
37760 On ch=1 n=f#5 v=89
37760 On ch=1 n=a#5 v=89
37760 On ch=2 n=f#4 v=83
37760 On ch=2 n=f#3 v=82
37888 On ch=1 n=c#5 v=0
37888 On ch=1 n=f#5 v=0
37888 On ch=1 n=a#5 v=0
37888 On ch=1 n=d#5 v=91
37888 On ch=1 n=b5 v=91
37888 On ch=2 n=f#3 v=0
37888 On ch=2 n=b3 v=90
38208 On ch=1 n=d#5 v=0
38208 On ch=1 n=b5 v=0
38208 On ch=1 n=d#6 v=93
38272 On ch=1 n=d#6 v=0
38272 On ch=1 n=e5 v=76
38272 On ch=1 n=c#6 v=76
38272 On ch=2 n=f#4 v=0
38272 On ch=2 n=b3 v=0
38272 On ch=2 n=g#4 v=87
38272 On ch=2 n=a#3 v=82
38464 On ch=1 n=e5 v=0
38464 On ch=1 n=c#6 v=0
38464 On ch=1 n=e6 v=94
38528 On ch=1 n=e6 v=0
38528 On ch=2 n=g#4 v=0
38528 On ch=2 n=a#3 v=0
38528 On ch=1 n=g5 v=53
38528 On ch=1 n=d#6 v=53
38528 On ch=2 n=a#4 v=66
38528 On ch=2 n=d#4 v=64
38912 On ch=1 n=g6 v=51
38912 On ch=1 n=a#6 v=51
39296 On ch=1 n=g5 v=0
39296 On ch=1 n=d#6 v=0
39296 On ch=2 n=a#4 v=0
39296 On ch=2 n=d#4 v=0
39552 On ch=2 n=d#3 v=39
39680 On ch=1 n=g6 v=0
39680 On ch=1 n=a#6 v=0
39680 On ch=2 n=d#3 v=0
39680 On ch=1 n=g#4 v=38
39680 On ch=1 n=b4 v=38
39680 On ch=1 n=c#5 v=38
39680 On ch=2 n=e3 v=45
39872 On ch=1 n=g#4 v=0
39872 On ch=1 n=b4 v=0
39872 On ch=1 n=c#5 v=0
39872 On ch=1 n=e5 v=44
39936 On ch=1 n=e5 v=0
39936 On ch=1 n=f#4 v=41
39936 On ch=1 n=b4 v=41
39936 On ch=1 n=d#5 v=41
39936 On ch=2 n=e3 v=0
39936 On ch=2 n=f#3 v=45
40006 On ch=1 n=f#4 v=0
40006 On ch=1 n=b4 v=0
40006 On ch=1 n=d#5 v=0
40006 On ch=2 n=f#3 v=0
40064 On ch=1 n=g#4 v=40
40064 On ch=1 n=b4 v=40
40064 On ch=1 n=d#5 v=40
40064 On ch=2 n=g#3 v=42
40256 On ch=1 n=g#4 v=0
40256 On ch=1 n=b4 v=0
40256 On ch=1 n=d#5 v=0
40256 On ch=1 n=e5 v=40
40320 On ch=1 n=e5 v=0
40320 On ch=1 n=g#4 v=43
40320 On ch=1 n=c#5 v=43
40320 On ch=1 n=e5 v=43
40320 On ch=2 n=g#3 v=0
40320 On ch=2 n=c#3 v=45
40320 On ch=2 n=c#4 v=45
40390 On ch=1 n=g#4 v=0
40390 On ch=1 n=c#5 v=0
40390 On ch=1 n=e5 v=0
40390 On ch=2 n=c#3 v=0
40390 On ch=2 n=c#4 v=0
40448 On ch=1 n=a#4 v=43
40448 On ch=1 n=c#5 v=43
40448 On ch=1 n=e5 v=43
40448 On ch=2 n=f#3 v=41
40512 On ch=1 n=a#4 v=0
40512 On ch=1 n=c#5 v=0
40512 On ch=1 n=e5 v=0
40512 On ch=1 n=f#5 v=46
40576 On ch=1 n=f#5 v=0
40576 On ch=1 n=f#4 v=34
40576 On ch=1 n=b4 v=34
40576 On ch=1 n=d#5 v=34
40576 On ch=2 n=f#3 v=0
40576 On ch=2 n=b2 v=46
40576 On ch=2 n=b3 v=46
40832 On ch=1 n=b6 v=54
40832 On ch=1 n=d#7 v=54
41600 On ch=1 n=f#4 v=0
41600 On ch=1 n=b4 v=0
41600 On ch=1 n=d#5 v=0
41600 On ch=1 n=b6 v=0
41600 On ch=1 n=d#7 v=0
41600 On ch=2 n=b2 v=0
41600 On ch=2 n=b3 v=0
42016 Par ch=2 c=7 v=0
42368 On ch=2 n=d#0 v=38
42370 On ch=2 n=d#0 v=0
42372 Par ch=1 c=7 v=127
42373 Meta TrkEnd
TrkEnd
