MFile 0 1 96
MTrk
0 Meta SeqName "Piano"
0 Par ch=1 c=0 v=0
0 PrCh ch=1 p=0
144 On ch=1 n=f3 v=120
144 On ch=1 n=f2 v=113
160 On ch=1 n=f3 v=0
160 On ch=1 n=f2 v=0
160 On ch=1 n=g2 v=113
160 On ch=1 n=g3 v=115
176 On ch=1 n=g2 v=0
176 On ch=1 n=g3 v=0
176 On ch=1 n=f3 v=97
176 On ch=1 n=f2 v=115
192 On ch=1 n=f3 v=0
192 On ch=1 n=f2 v=0
192 On ch=1 n=g2 v=104
192 On ch=1 n=g3 v=112
240 On ch=1 n=g2 v=0
240 On ch=1 n=g3 v=0
288 On ch=1 n=g#2 v=95
288 On ch=1 n=g#3 v=115
336 On ch=1 n=g#2 v=0
336 On ch=1 n=g#3 v=0
432 On ch=1 n=a#3 v=105
432 On ch=1 n=a#2 v=82
448 On ch=1 n=a#3 v=0
448 On ch=1 n=a#2 v=0
448 On ch=1 n=c4 v=106
448 On ch=1 n=c3 v=88
464 On ch=1 n=c4 v=0
464 On ch=1 n=c3 v=0
464 On ch=1 n=a#3 v=105
464 On ch=1 n=a#2 v=91
480 On ch=1 n=a#3 v=0
480 On ch=1 n=a#2 v=0
480 On ch=1 n=c4 v=115
480 On ch=1 n=c3 v=65
528 On ch=1 n=c4 v=0
528 On ch=1 n=c3 v=0
528 On ch=1 n=b3 v=79
544 On ch=1 n=b3 v=0
544 On ch=1 n=c#4 v=77
560 On ch=1 n=c#4 v=0
560 On ch=1 n=b3 v=76
576 On ch=1 n=b3 v=0
576 On ch=1 n=c#4 v=76
576 On ch=1 n=g#4 v=72
576 On ch=1 n=f4 v=67
592 On ch=1 n=c#4 v=0
592 On ch=1 n=c4 v=92
608 On ch=1 n=c4 v=0
608 On ch=1 n=b3 v=74
624 On ch=1 n=b3 v=0
624 On ch=1 n=c#4 v=77
640 On ch=1 n=c#4 v=0
640 On ch=1 n=c4 v=92
656 On ch=1 n=c4 v=0
656 On ch=1 n=f3 v=58
672 On ch=1 n=f3 v=0
672 On ch=1 n=c4 v=95
688 On ch=1 n=c4 v=0
688 On ch=1 n=f3 v=60
704 On ch=1 n=f3 v=0
704 On ch=1 n=c3 v=76
720 On ch=1 n=c3 v=0
720 On ch=1 n=g#3 v=74
720 On ch=1 n=g#4 v=0
720 On ch=1 n=f4 v=0
720 On ch=1 n=a#3 v=88
720 On ch=1 n=f4 v=82
736 On ch=1 n=g#3 v=0
736 On ch=1 n=c#3 v=59
752 On ch=1 n=c#3 v=0
752 On ch=1 n=g#3 v=79
768 On ch=1 n=g#3 v=0
768 On ch=1 n=d#3 v=58
784 On ch=1 n=d#3 v=0
784 On ch=1 n=g#2 v=69
800 On ch=1 n=g#2 v=0
800 On ch=1 n=d#3 v=60
816 On ch=1 n=d#3 v=0
816 On ch=1 n=f3 v=71
816 On ch=1 n=a#3 v=0
816 On ch=1 n=c4 v=85
832 On ch=1 n=f3 v=0
832 On ch=1 n=a#2 v=72
848 On ch=1 n=a#2 v=0
848 On ch=1 n=f3 v=71
864 On ch=1 n=f3 v=0
864 On ch=1 n=c3 v=53
864 On ch=1 n=f4 v=0
864 On ch=1 n=c4 v=0
880 On ch=1 n=c3 v=0
880 On ch=1 n=f2 v=80
896 On ch=1 n=f2 v=0
896 On ch=1 n=c3 v=65
912 On ch=1 n=c3 v=0
912 On ch=1 n=a#3 v=81
928 On ch=1 n=a#3 v=0
928 On ch=1 n=c#4 v=71
944 On ch=1 n=c#4 v=0
944 On ch=1 n=a#3 v=79
960 On ch=1 n=a#3 v=0
960 On ch=1 n=c#4 v=75
960 On ch=1 n=g#4 v=84
960 On ch=1 n=f4 v=60
976 On ch=1 n=c#4 v=0
976 On ch=1 n=c4 v=77
992 On ch=1 n=c4 v=0
992 On ch=1 n=b3 v=64
1008 On ch=1 n=b3 v=0
1008 On ch=1 n=c#4 v=79
1024 On ch=1 n=c#4 v=0
1024 On ch=1 n=c4 v=75
1040 On ch=1 n=c4 v=0
1040 On ch=1 n=f3 v=67
1056 On ch=1 n=f3 v=0
1056 On ch=1 n=c4 v=113
1072 On ch=1 n=c4 v=0
1072 On ch=1 n=f3 v=64
1088 On ch=1 n=f3 v=0
1088 On ch=1 n=c3 v=88
1104 On ch=1 n=c3 v=0
1104 On ch=1 n=g#3 v=100
1104 On ch=1 n=g#4 v=0
1104 On ch=1 n=f4 v=0
1104 On ch=1 n=b4 v=75
1104 On ch=1 n=g#4 v=65
1104 On ch=1 n=e4 v=58
1120 On ch=1 n=g#3 v=0
1120 On ch=1 n=c#3 v=71
1136 On ch=1 n=c#3 v=0
1136 On ch=1 n=g#3 v=91
1152 On ch=1 n=g#3 v=0
1152 On ch=1 n=d#3 v=63
1152 On ch=1 n=b4 v=0
1152 On ch=1 n=g#4 v=0
1152 On ch=1 n=e4 v=0
1152 On ch=1 n=f4 v=64
1152 On ch=1 n=c5 v=74
1152 On ch=1 n=g#4 v=68
1168 On ch=1 n=d#3 v=0
1168 On ch=1 n=g#2 v=90
1184 On ch=1 n=g#2 v=0
1184 On ch=1 n=d#3 v=65
1200 On ch=1 n=d#3 v=0
1200 On ch=1 n=f3 v=97
1200 On ch=1 n=f4 v=0
1200 On ch=1 n=g4 v=84
1216 On ch=1 n=f3 v=0
1216 On ch=1 n=a#2 v=88
1232 On ch=1 n=a#2 v=0
1232 On ch=1 n=f3 v=91
1248 On ch=1 n=f3 v=0
1248 On ch=1 n=c3 v=76
1248 On ch=1 n=g4 v=0
1248 On ch=1 n=g#4 v=81
1264 On ch=1 n=c3 v=0
1264 On ch=1 n=f2 v=67
1280 On ch=1 n=f2 v=0
1280 On ch=1 n=c3 v=80
1296 On ch=1 n=c3 v=0
1296 On ch=1 n=b3 v=97
1296 On ch=1 n=c5 v=0
1296 On ch=1 n=g#4 v=0
1296 On ch=1 n=g#4 v=0
1312 On ch=1 n=b3 v=0
1312 On ch=1 n=c#4 v=105
1328 On ch=1 n=c#4 v=0
1328 On ch=1 n=b3 v=101
1344 On ch=1 n=b3 v=0
1344 On ch=1 n=c#4 v=78
1344 On ch=1 n=g#4 v=90
1344 On ch=1 n=f4 v=74
1360 On ch=1 n=c#4 v=0
1360 On ch=1 n=c4 v=96
1376 On ch=1 n=c4 v=0
1376 On ch=1 n=f3 v=76
1392 On ch=1 n=f3 v=0
1392 On ch=1 n=d#4 v=100
1408 On ch=1 n=d#4 v=0
1408 On ch=1 n=f#4 v=102
1424 On ch=1 n=f#4 v=0
1424 On ch=1 n=d#4 v=99
1440 On ch=1 n=d#4 v=0
1440 On ch=1 n=f#4 v=105
1440 On ch=1 n=g#4 v=0
1440 On ch=1 n=f4 v=0
1440 On ch=1 n=f#6 v=99
1440 On ch=1 n=a5 v=113
1440 On ch=1 n=f#5 v=95
1456 On ch=1 n=f#4 v=0
1456 On ch=1 n=f4 v=96
1472 On ch=1 n=f4 v=0
1472 On ch=1 n=c4 v=71
1488 On ch=1 n=c4 v=0
1488 On ch=1 n=f4 v=81
1504 On ch=1 n=f4 v=0
1504 On ch=1 n=d#4 v=110
1520 On ch=1 n=d#4 v=0
1520 On ch=1 n=a3 v=91
1536 On ch=1 n=a3 v=0
1536 On ch=1 n=d#4 v=104
1552 On ch=1 n=d#4 v=0
1552 On ch=1 n=c#4 v=85
1568 On ch=1 n=c#4 v=0
1568 On ch=1 n=a#3 v=99
1584 On ch=1 n=a#3 v=0
1584 On ch=1 n=c#4 v=93
1584 On ch=1 n=f#6 v=0
1584 On ch=1 n=a5 v=0
1584 On ch=1 n=f#5 v=0
1584 On ch=1 n=f#4 v=82
1584 On ch=1 n=e5 v=99
1584 On ch=1 n=e4 v=86
1600 On ch=1 n=c#4 v=0
1600 On ch=1 n=d#4 v=105
1616 On ch=1 n=d#4 v=0
1616 On ch=1 n=c#4 v=84
1632 On ch=1 n=c#4 v=0
1632 On ch=1 n=d#4 v=95
1648 On ch=1 n=d#4 v=0
1648 On ch=1 n=c#4 v=87
1664 On ch=1 n=c#4 v=0
1664 On ch=1 n=c4 v=99
1680 On ch=1 n=c4 v=0
1680 On ch=1 n=b3 v=74
1696 On ch=1 n=b3 v=0
1696 On ch=1 n=c#4 v=77
1712 On ch=1 n=c#4 v=0
1712 On ch=1 n=b3 v=75
1728 On ch=1 n=b3 v=0
1728 On ch=1 n=c#4 v=80
1728 On ch=1 n=f#4 v=0
1728 On ch=1 n=e5 v=0
1728 On ch=1 n=e4 v=0
1728 On ch=1 n=g#4 v=79
1728 On ch=1 n=f4 v=71
1744 On ch=1 n=c#4 v=0
1744 On ch=1 n=c4 v=92
1760 On ch=1 n=c4 v=0
1760 On ch=1 n=b3 v=63
1776 On ch=1 n=b3 v=0
1776 On ch=1 n=c#4 v=75
1792 On ch=1 n=c#4 v=0
1792 On ch=1 n=c4 v=92
1808 On ch=1 n=c4 v=0
1808 On ch=1 n=f3 v=79
1824 On ch=1 n=f3 v=0
1824 On ch=1 n=c4 v=97
1840 On ch=1 n=c4 v=0
1840 On ch=1 n=f3 v=64
1856 On ch=1 n=f3 v=0
1856 On ch=1 n=c3 v=71
1872 On ch=1 n=c3 v=0
1872 On ch=1 n=g#3 v=82
1872 On ch=1 n=b4 v=80
1872 On ch=1 n=g#4 v=0
1872 On ch=1 n=f4 v=0
1872 On ch=1 n=f4 v=74
1872 On ch=1 n=f5 v=79
1888 On ch=1 n=g#3 v=0
1888 On ch=1 n=c#3 v=69
1904 On ch=1 n=c#3 v=0
1904 On ch=1 n=g#3 v=76
1920 On ch=1 n=b4 v=0
1920 On ch=1 n=g#3 v=0
1920 On ch=1 n=d#3 v=62
1920 On ch=1 n=c5 v=67
1936 On ch=1 n=d#3 v=0
1936 On ch=1 n=g#2 v=65
1952 On ch=1 n=g#2 v=0
1952 On ch=1 n=d#3 v=73
1968 On ch=1 n=d#3 v=0
1968 On ch=1 n=f3 v=86
1968 On ch=1 n=g4 v=86
1984 On ch=1 n=f3 v=0
1984 On ch=1 n=a#2 v=74
2000 On ch=1 n=a#2 v=0
2000 On ch=1 n=f3 v=89
2016 On ch=1 n=f3 v=0
2016 On ch=1 n=c3 v=89
2016 On ch=1 n=g4 v=0
2016 On ch=1 n=g#4 v=88
2032 On ch=1 n=c3 v=0
2032 On ch=1 n=f2 v=84
2048 On ch=1 n=f2 v=0
2048 On ch=1 n=c3 v=82
2064 On ch=1 n=c3 v=0
2064 On ch=1 n=b3 v=77
2064 On ch=1 n=f4 v=0
2064 On ch=1 n=f5 v=0
2064 On ch=1 n=c5 v=0
2064 On ch=1 n=g#4 v=0
2080 On ch=1 n=b3 v=0
2080 On ch=1 n=c#4 v=81
2096 On ch=1 n=c#4 v=0
2096 On ch=1 n=b3 v=76
2112 On ch=1 n=b3 v=0
2112 On ch=1 n=c#4 v=78
2112 On ch=1 n=g#4 v=91
2112 On ch=1 n=f4 v=84
2128 On ch=1 n=c#4 v=0
2128 On ch=1 n=c4 v=93
2144 On ch=1 n=c4 v=0
2144 On ch=1 n=b3 v=67
2160 On ch=1 n=b3 v=0
2160 On ch=1 n=c#4 v=82
2176 On ch=1 n=c#4 v=0
2176 On ch=1 n=c4 v=88
2192 On ch=1 n=c4 v=0
2192 On ch=1 n=f3 v=80
2208 On ch=1 n=f3 v=0
2208 On ch=1 n=c4 v=95
2224 On ch=1 n=c4 v=0
2224 On ch=1 n=f3 v=82
2240 On ch=1 n=f3 v=0
2240 On ch=1 n=c3 v=82
2256 On ch=1 n=c3 v=0
2256 On ch=1 n=g#3 v=80
2256 On ch=1 n=b5 v=89
2256 On ch=1 n=g#4 v=0
2256 On ch=1 n=f4 v=0
2256 On ch=1 n=f5 v=71
2256 On ch=1 n=f6 v=91
2272 On ch=1 n=g#3 v=0
2272 On ch=1 n=c#3 v=90
2288 On ch=1 n=c#3 v=0
2288 On ch=1 n=g#3 v=108
2304 On ch=1 n=b5 v=0
2304 On ch=1 n=g#3 v=0
2304 On ch=1 n=d#3 v=102
2304 On ch=1 n=c6 v=101
2304 On ch=1 n=f5 v=0
2304 On ch=1 n=f6 v=0
2320 On ch=1 n=d#3 v=0
2320 On ch=1 n=g#2 v=91
2336 On ch=1 n=g#2 v=0
2336 On ch=1 n=d#3 v=95
2352 On ch=1 n=c6 v=0
2352 On ch=1 n=d#3 v=0
2352 On ch=1 n=f3 v=89
2352 On ch=1 n=g5 v=93
2352 On ch=1 n=d5 v=69
2352 On ch=1 n=g4 v=80
2368 On ch=1 n=f3 v=0
2368 On ch=1 n=a#2 v=102
2384 On ch=1 n=a#2 v=0
2384 On ch=1 n=f3 v=86
2400 On ch=1 n=f3 v=0
2400 On ch=1 n=c3 v=99
2400 On ch=1 n=g5 v=0
2400 On ch=1 n=d5 v=0
2400 On ch=1 n=g4 v=0
2400 On ch=1 n=g#5 v=95
2400 On ch=1 n=c5 v=74
2400 On ch=1 n=g#4 v=68
2416 On ch=1 n=c3 v=0
2416 On ch=1 n=f2 v=82
2432 On ch=1 n=f2 v=0
2432 On ch=1 n=c3 v=91
2448 On ch=1 n=c3 v=0
2448 On ch=1 n=b3 v=67
2448 On ch=1 n=g#5 v=0
2448 On ch=1 n=c5 v=0
2448 On ch=1 n=g#4 v=0
2464 On ch=1 n=b3 v=0
2464 On ch=1 n=c#4 v=72
2480 On ch=1 n=c#4 v=0
2480 On ch=1 n=b3 v=79
2496 On ch=1 n=b3 v=0
2496 On ch=1 n=c#4 v=72
2496 On ch=1 n=g#4 v=76
2496 On ch=1 n=f4 v=95
2512 On ch=1 n=c#4 v=0
2512 On ch=1 n=c4 v=85
2528 On ch=1 n=c4 v=0
2528 On ch=1 n=f3 v=79
2544 On ch=1 n=f3 v=0
2544 On ch=1 n=g4 v=106
2560 On ch=1 n=g4 v=0
2560 On ch=1 n=g#4 v=88
2576 On ch=1 n=g#4 v=0
2576 On ch=1 n=a#4 v=105
2592 On ch=1 n=a#4 v=0
2592 On ch=1 n=b4 v=106
2592 On ch=1 n=g#4 v=0
2592 On ch=1 n=f4 v=0
2592 On ch=1 n=g#6 v=105
2592 On ch=1 n=a#5 v=111
2592 On ch=1 n=f6 v=115
2592 On ch=1 n=g#5 v=115
2608 On ch=1 n=b4 v=0
2608 On ch=1 n=a#4 v=110
2624 On ch=1 n=a#4 v=0
2624 On ch=1 n=f4 v=88
2640 On ch=1 n=f4 v=0
2640 On ch=1 n=a#4 v=93
2656 On ch=1 n=a#4 v=0
2656 On ch=1 n=g#4 v=104
2672 On ch=1 n=g#4 v=0
2672 On ch=1 n=d4 v=74
2688 On ch=1 n=d4 v=0
2688 On ch=1 n=g#4 v=97
2704 On ch=1 n=g#4 v=0
2704 On ch=1 n=f#4 v=107
2720 On ch=1 n=f#4 v=0
2720 On ch=1 n=a#3 v=88
2736 On ch=1 n=a#3 v=0
2736 On ch=1 n=f#4 v=75
2736 On ch=1 n=g#6 v=0
2736 On ch=1 n=a#5 v=0
2736 On ch=1 n=f6 v=0
2736 On ch=1 n=g#5 v=0
2736 On ch=1 n=d#5 v=77
2736 On ch=1 n=a#5 v=108
2736 On ch=1 n=a#4 v=91
2752 On ch=1 n=f#4 v=0
2752 On ch=1 n=g#4 v=80
2768 On ch=1 n=g#4 v=0
2768 On ch=1 n=f#4 v=71
2784 On ch=1 n=f#4 v=0
2784 On ch=1 n=g#4 v=107
2800 On ch=1 n=g#4 v=0
2800 On ch=1 n=f#4 v=84
2816 On ch=1 n=f#4 v=0
2816 On ch=1 n=c4 v=65
2832 On ch=1 n=c4 v=0
2832 On ch=1 n=d#4 v=69
2848 On ch=1 n=d#4 v=0
2848 On ch=1 n=f4 v=41
2864 On ch=1 n=f4 v=0
2864 On ch=1 n=d#4 v=65
2880 On ch=1 n=d#4 v=0
2880 On ch=1 n=f4 v=107
2896 On ch=1 n=f4 v=0
2896 On ch=1 n=d#4 v=64
2912 On ch=1 n=d#4 v=0
2912 On ch=1 n=a#3 v=84
2928 On ch=1 n=a#3 v=0
2928 On ch=1 n=c#4 v=60
2928 On ch=1 n=d#5 v=0
2928 On ch=1 n=a#5 v=0
2928 On ch=1 n=a#4 v=0
2928 On ch=1 n=d#5 v=104
2928 On ch=1 n=f#4 v=64
2928 On ch=1 n=a#4 v=60
2944 On ch=1 n=c#4 v=0
2944 On ch=1 n=d#4 v=59
2960 On ch=1 n=d#4 v=0
2960 On ch=1 n=c#4 v=21
2976 On ch=1 n=c#4 v=0
2976 On ch=1 n=d#4 v=72
2976 On ch=1 n=d#5 v=0
2976 On ch=1 n=f#4 v=0
2976 On ch=1 n=a#4 v=0
2976 On ch=1 n=e5 v=96
2976 On ch=1 n=g4 v=62
2976 On ch=1 n=a#4 v=53
2992 On ch=1 n=d#4 v=0
2992 On ch=1 n=c#4 v=57
3008 On ch=1 n=c#4 v=0
3008 On ch=1 n=f3 v=64
3024 On ch=1 n=f3 v=0
3024 On ch=1 n=b4 v=76
3024 On ch=1 n=e5 v=0
3024 On ch=1 n=g4 v=0
3024 On ch=1 n=a#4 v=0
3024 On ch=1 n=f5 v=73
3024 On ch=1 n=c#4 v=57
3024 On ch=1 n=g#4 v=59
3040 On ch=1 n=b4 v=0
3040 On ch=1 n=c#5 v=60
3056 On ch=1 n=c#5 v=0
3056 On ch=1 n=b4 v=61
3072 On ch=1 n=b4 v=0
3072 On ch=1 n=c#5 v=70
3072 On ch=1 n=f5 v=0
3072 On ch=1 n=c#4 v=0
3072 On ch=1 n=g#4 v=0
3072 On ch=1 n=g#4 v=77
3072 On ch=1 n=c4 v=79
3072 On ch=1 n=f5 v=64
3088 On ch=1 n=c#5 v=0
3088 On ch=1 n=c5 v=64
3104 On ch=1 n=c5 v=0
3104 On ch=1 n=f4 v=82
3120 On ch=1 n=f4 v=0
3120 On ch=1 n=g5 v=82
3120 On ch=1 n=g#4 v=0
3120 On ch=1 n=c4 v=0
3120 On ch=1 n=f3 v=86
3136 On ch=1 n=g5 v=0
3136 On ch=1 n=a#5 v=91
3152 On ch=1 n=a#5 v=0
3152 On ch=1 n=g5 v=88
3168 On ch=1 n=g5 v=0
3168 On ch=1 n=a#5 v=91
3168 On ch=1 n=f5 v=0
3168 On ch=1 n=f3 v=0
3168 On ch=1 n=d#5 v=90
3168 On ch=1 n=a#4 v=91
3168 On ch=1 n=d#4 v=73
3168 On ch=1 n=c6 v=82
3184 On ch=1 n=a#5 v=0
3184 On ch=1 n=g5 v=96
3200 On ch=1 n=g5 v=0
3200 On ch=1 n=c5 v=76
3216 On ch=1 n=c5 v=0
3216 On ch=1 n=f#5 v=100
3216 On ch=1 n=d#5 v=0
3216 On ch=1 n=a#4 v=0
3216 On ch=1 n=d#4 v=0
3216 On ch=1 n=f3 v=74
3232 On ch=1 n=f#5 v=0
3232 On ch=1 n=a#5 v=81
3248 On ch=1 n=a#5 v=0
3248 On ch=1 n=f#5 v=90
3264 On ch=1 n=f#5 v=0
3264 On ch=1 n=a#5 v=80
3264 On ch=1 n=c6 v=0
3264 On ch=1 n=f3 v=0
3264 On ch=1 n=d5 v=82
3264 On ch=1 n=a#4 v=95
3264 On ch=1 n=d4 v=59
3264 On ch=1 n=c6 v=57
3280 On ch=1 n=a#5 v=0
3280 On ch=1 n=f#5 v=80
3296 On ch=1 n=f#5 v=0
3296 On ch=1 n=c5 v=65
3312 On ch=1 n=c5 v=0
3312 On ch=1 n=f5 v=80
3312 On ch=1 n=d5 v=0
3312 On ch=1 n=a#4 v=0
3312 On ch=1 n=d4 v=0
3312 On ch=1 n=f3 v=77
3328 On ch=1 n=f5 v=0
3328 On ch=1 n=a#5 v=91
3344 On ch=1 n=a#5 v=0
3344 On ch=1 n=f5 v=77
3360 On ch=1 n=f5 v=0
3360 On ch=1 n=a#5 v=100
3360 On ch=1 n=c6 v=0
3360 On ch=1 n=f3 v=0
3360 On ch=1 n=c#5 v=70
3360 On ch=1 n=a#4 v=93
3360 On ch=1 n=c#4 v=69
3360 On ch=1 n=c6 v=79
3376 On ch=1 n=a#5 v=0
3376 On ch=1 n=f5 v=84
3392 On ch=1 n=f5 v=0
3392 On ch=1 n=c5 v=79
3408 On ch=1 n=c5 v=0
3408 On ch=1 n=e5 v=97
3408 On ch=1 n=c#5 v=0
3408 On ch=1 n=a#4 v=0
3408 On ch=1 n=c#4 v=0
3408 On ch=1 n=f3 v=65
3424 On ch=1 n=e5 v=0
3424 On ch=1 n=a#5 v=99
3440 On ch=1 n=a#5 v=0
3440 On ch=1 n=e5 v=96
3456 On ch=1 n=e5 v=0
3456 On ch=1 n=a#5 v=81
3456 On ch=1 n=c6 v=0
3456 On ch=1 n=f3 v=0
3456 On ch=1 n=f4 v=81
3456 On ch=1 n=c5 v=65
3456 On ch=1 n=c4 v=77
3456 On ch=1 n=f6 v=81
3472 On ch=1 n=a#5 v=0
3472 On ch=1 n=g#5 v=82
3488 On ch=1 n=g#5 v=0
3488 On ch=1 n=f5 v=69
3504 On ch=1 n=f5 v=0
3504 On ch=1 n=g5 v=81
3504 On ch=1 n=f4 v=0
3504 On ch=1 n=c5 v=0
3504 On ch=1 n=c4 v=0
3504 On ch=1 n=f6 v=0
3504 On ch=1 n=f3 v=64
3504 On ch=1 n=c6 v=92
3520 On ch=1 n=g5 v=0
3520 On ch=1 n=a#5 v=93
3536 On ch=1 n=a#5 v=0
3536 On ch=1 n=g5 v=85
3552 On ch=1 n=g5 v=0
3552 On ch=1 n=a#5 v=82
3552 On ch=1 n=f3 v=0
3552 On ch=1 n=c6 v=0
3552 On ch=1 n=d#5 v=81
3552 On ch=1 n=a#4 v=90
3552 On ch=1 n=d#4 v=64
3552 On ch=1 n=c6 v=91
3568 On ch=1 n=a#5 v=0
3568 On ch=1 n=g5 v=76
3584 On ch=1 n=g5 v=0
3584 On ch=1 n=c5 v=71
3600 On ch=1 n=c5 v=0
3600 On ch=1 n=f#5 v=74
3600 On ch=1 n=d#5 v=0
3600 On ch=1 n=a#4 v=0
3600 On ch=1 n=d#4 v=0
3600 On ch=1 n=f3 v=73
3616 On ch=1 n=f#5 v=0
3616 On ch=1 n=a#5 v=79
3632 On ch=1 n=a#5 v=0
3632 On ch=1 n=f#5 v=79
3648 On ch=1 n=f#5 v=0
3648 On ch=1 n=a#5 v=79
3648 On ch=1 n=c6 v=0
3648 On ch=1 n=f3 v=0
3648 On ch=1 n=d5 v=80
3648 On ch=1 n=a#4 v=80
3648 On ch=1 n=d4 v=64
3648 On ch=1 n=c6 v=81
3664 On ch=1 n=a#5 v=0
3664 On ch=1 n=f#5 v=67
3680 On ch=1 n=f#5 v=0
3680 On ch=1 n=c5 v=61
3696 On ch=1 n=c5 v=0
3696 On ch=1 n=f5 v=71
3696 On ch=1 n=d5 v=0
3696 On ch=1 n=a#4 v=0
3696 On ch=1 n=d4 v=0
3696 On ch=1 n=f3 v=75
3712 On ch=1 n=f5 v=0
3712 On ch=1 n=a#5 v=73
3728 On ch=1 n=a#5 v=0
3728 On ch=1 n=f5 v=88
3744 On ch=1 n=f5 v=0
3744 On ch=1 n=a#5 v=81
3744 On ch=1 n=c6 v=0
3744 On ch=1 n=f3 v=0
3744 On ch=1 n=c#5 v=82
3744 On ch=1 n=a#4 v=80
3744 On ch=1 n=c#4 v=60
3744 On ch=1 n=c6 v=84
3760 On ch=1 n=a#5 v=0
3760 On ch=1 n=f5 v=89
3776 On ch=1 n=f5 v=0
3776 On ch=1 n=c5 v=82
3792 On ch=1 n=c5 v=0
3792 On ch=1 n=e5 v=102
3792 On ch=1 n=c#5 v=0
3792 On ch=1 n=a#4 v=0
3792 On ch=1 n=c#4 v=0
3792 On ch=1 n=f3 v=75
3808 On ch=1 n=e5 v=0
3808 On ch=1 n=a#5 v=100
3824 On ch=1 n=a#5 v=0
3824 On ch=1 n=e5 v=112
3840 On ch=1 n=e5 v=0
3840 On ch=1 n=a#5 v=76
3840 On ch=1 n=c6 v=0
3840 On ch=1 n=f3 v=0
3840 On ch=1 n=c5 v=62
3840 On ch=1 n=g#4 v=90
3840 On ch=1 n=c4 v=65
3840 On ch=1 n=f6 v=95
3856 On ch=1 n=a#5 v=0
3856 On ch=1 n=g#5 v=100
3872 On ch=1 n=g#5 v=0
3872 On ch=1 n=f5 v=77
3888 On ch=1 n=f5 v=0
3888 On ch=1 n=g#5 v=105
3888 On ch=1 n=c5 v=0
3888 On ch=1 n=g#4 v=0
3888 On ch=1 n=c4 v=0
3888 On ch=1 n=c5 v=55
3904 On ch=1 n=g#5 v=0
3904 On ch=1 n=a#5 v=100
3904 On ch=1 n=c5 v=0
3904 On ch=1 n=c#5 v=78
3920 On ch=1 n=a#5 v=0
3920 On ch=1 n=c6 v=112
3920 On ch=1 n=c#5 v=0
3920 On ch=1 n=c5 v=65
3936 On ch=1 n=c6 v=0
3936 On ch=1 n=c#6 v=107
3936 On ch=1 n=f6 v=0
3936 On ch=1 n=c5 v=0
3936 On ch=1 n=c#5 v=62
3936 On ch=1 n=f5 v=71
3936 On ch=1 n=g#6 v=105
3952 On ch=1 n=c#6 v=0
3952 On ch=1 n=c6 v=95
3960 On ch=1 n=c#5 v=0
3960 On ch=1 n=f5 v=0
3960 On ch=1 n=f4 v=64
3960 On ch=1 n=c5 v=63
3968 On ch=1 n=c6 v=0
3968 On ch=1 n=a#5 v=99
3984 On ch=1 n=a#5 v=0
3984 On ch=1 n=g#5 v=107
3984 On ch=1 n=f4 v=0
3984 On ch=1 n=c5 v=0
3984 On ch=1 n=f5 v=67
4000 On ch=1 n=g#5 v=0
4000 On ch=1 n=c6 v=84
4000 On ch=1 n=f5 v=0
4000 On ch=1 n=g5 v=76
4016 On ch=1 n=c6 v=0
4016 On ch=1 n=f6 v=88
4016 On ch=1 n=g5 v=0
4016 On ch=1 n=f5 v=85
4032 On ch=1 n=f6 v=0
4032 On ch=1 n=g#6 v=0
4032 On ch=1 n=f5 v=0
4032 On ch=1 n=g5 v=81
4032 On ch=1 n=c6 v=75
4032 On ch=1 n=c7 v=109
4048 On ch=1 n=f6 v=99
4056 On ch=1 n=g5 v=0
4056 On ch=1 n=c6 v=0
4056 On ch=1 n=f5 v=53
4056 On ch=1 n=c5 v=60
4064 On ch=1 n=f6 v=0
4064 On ch=1 n=c6 v=101
4080 On ch=1 n=c6 v=0
4080 On ch=1 n=f6 v=97
4080 On ch=1 n=f5 v=0
4080 On ch=1 n=c5 v=0
4080 On ch=1 n=c6 v=71
4096 On ch=1 n=f6 v=0
4096 On ch=1 n=g6 v=93
4096 On ch=1 n=c6 v=0
4096 On ch=1 n=c#6 v=66
4112 On ch=1 n=g6 v=0
4112 On ch=1 n=g#6 v=102
4112 On ch=1 n=c#6 v=0
4112 On ch=1 n=c6 v=86
4128 On ch=1 n=g#6 v=0
4128 On ch=1 n=a#6 v=90
4128 On ch=1 n=c7 v=0
4128 On ch=1 n=c6 v=0
4128 On ch=1 n=c#6 v=73
4128 On ch=1 n=f6 v=86
4128 On ch=1 n=f7 v=115
4144 On ch=1 n=a#6 v=0
4144 On ch=1 n=g#6 v=95
4152 On ch=1 n=c#6 v=0
4152 On ch=1 n=f6 v=0
4152 On ch=1 n=f5 v=74
4152 On ch=1 n=c6 v=58
4160 On ch=1 n=g#6 v=0
4160 On ch=1 n=f6 v=106
4176 On ch=1 n=f6 v=0
4176 On ch=1 n=g#6 v=107
4176 On ch=1 n=f5 v=0
4176 On ch=1 n=c6 v=0
4192 On ch=1 n=g#6 v=0
4192 On ch=1 n=a#6 v=117
4192 On ch=1 n=c#6 v=59
4208 On ch=1 n=a#6 v=0
4208 On ch=1 n=c7 v=102
4208 On ch=1 n=c#6 v=0
4208 On ch=1 n=c6 v=93
4224 On ch=1 n=c7 v=0
4224 On ch=1 n=c#7 v=79
4224 On ch=1 n=f7 v=0
4224 On ch=1 n=c6 v=0
4224 On ch=1 n=g#6 v=78
4224 On ch=1 n=f7 v=121
4240 On ch=1 n=c#7 v=0
4240 On ch=1 n=c7 v=80
4240 On ch=1 n=g#6 v=0
4240 On ch=1 n=c#6 v=80
4256 On ch=1 n=c7 v=0
4256 On ch=1 n=a#6 v=77
4256 On ch=1 n=c#6 v=0
4256 On ch=1 n=c6 v=82
4272 On ch=1 n=a#6 v=0
4272 On ch=1 n=g#6 v=77
4272 On ch=1 n=c6 v=0
4272 On ch=1 n=f5 v=74
4288 On ch=1 n=g#6 v=0
4288 On ch=1 n=c7 v=88
4288 On ch=1 n=f5 v=0
4288 On ch=1 n=c6 v=75
4304 On ch=1 n=c7 v=0
4304 On ch=1 n=c8 v=97
4304 On ch=1 n=c6 v=0
4304 On ch=1 n=c#6 v=79
4320 On ch=1 n=c8 v=0
4320 On ch=1 n=g#7 v=113
4320 On ch=1 n=f7 v=0
4320 On ch=1 n=c#6 v=0
4320 On ch=1 n=g#6 v=97
4336 On ch=1 n=g#7 v=0
4336 On ch=1 n=c#7 v=91
4336 On ch=1 n=g#6 v=0
4336 On ch=1 n=c#6 v=82
4352 On ch=1 n=c#7 v=0
4352 On ch=1 n=c7 v=84
4352 On ch=1 n=c#6 v=0
4352 On ch=1 n=c6 v=97
4368 On ch=1 n=c7 v=0
4368 On ch=1 n=g#6 v=72
4368 On ch=1 n=c6 v=0
4368 On ch=1 n=f5 v=64
4384 On ch=1 n=g#6 v=0
4384 On ch=1 n=c7 v=85
4384 On ch=1 n=f5 v=0
4384 On ch=1 n=c6 v=77
4400 On ch=1 n=c7 v=0
4400 On ch=1 n=c8 v=97
4400 On ch=1 n=c6 v=0
4400 On ch=1 n=c#6 v=80
4416 On ch=1 n=c8 v=0
4416 On ch=1 n=g#7 v=102
4416 On ch=1 n=c#6 v=0
4416 On ch=1 n=g#6 v=81
4432 On ch=1 n=g#7 v=0
4432 On ch=1 n=c#7 v=82
4432 On ch=1 n=g#6 v=0
4432 On ch=1 n=c#6 v=78
4448 On ch=1 n=c#7 v=0
4448 On ch=1 n=c7 v=82
4448 On ch=1 n=c#6 v=0
4448 On ch=1 n=c6 v=85
4464 On ch=1 n=c7 v=0
4464 On ch=1 n=g#6 v=81
4464 On ch=1 n=c6 v=0
4464 On ch=1 n=f5 v=67
4480 On ch=1 n=g#6 v=0
4480 On ch=1 n=c7 v=86
4480 On ch=1 n=f5 v=0
4480 On ch=1 n=c6 v=80
4496 On ch=1 n=c7 v=0
4496 On ch=1 n=c8 v=80
4496 On ch=1 n=c6 v=0
4496 On ch=1 n=c#6 v=82
4512 On ch=1 n=c8 v=0
4512 On ch=1 n=g#7 v=100
4512 On ch=1 n=c#6 v=0
4512 On ch=1 n=g#6 v=99
4528 On ch=1 n=g#7 v=0
4528 On ch=1 n=c#7 v=91
4528 On ch=1 n=g#6 v=0
4528 On ch=1 n=c#6 v=88
4544 On ch=1 n=c#7 v=0
4544 On ch=1 n=c7 v=97
4544 On ch=1 n=c#6 v=0
4544 On ch=1 n=c6 v=97
4560 On ch=1 n=c7 v=0
4560 On ch=1 n=g#6 v=78
4560 On ch=1 n=c6 v=0
4560 On ch=1 n=f5 v=93
4576 On ch=1 n=g#6 v=0
4576 On ch=1 n=c7 v=96
4576 On ch=1 n=f5 v=0
4576 On ch=1 n=c6 v=106
4592 On ch=1 n=c7 v=0
4592 On ch=1 n=c8 v=101
4592 On ch=1 n=c6 v=0
4592 On ch=1 n=c#6 v=102
4608 On ch=1 n=c8 v=0
4608 On ch=1 n=g#7 v=97
4608 On ch=1 n=g#6 v=91
4608 On ch=1 n=c#6 v=0
4624 On ch=1 n=g#7 v=0
4624 On ch=1 n=g#6 v=0
4624 On ch=1 n=c7 v=67
4624 On ch=1 n=f6 v=95
4640 On ch=1 n=c7 v=0
4640 On ch=1 n=f6 v=0
4640 On ch=1 n=g7 v=101
4640 On ch=1 n=e6 v=91
4656 On ch=1 n=g7 v=0
4656 On ch=1 n=e6 v=0
4656 On ch=1 n=g#7 v=95
4656 On ch=1 n=f#6 v=105
4672 On ch=1 n=g#7 v=0
4672 On ch=1 n=f#6 v=0
4672 On ch=1 n=b6 v=93
4672 On ch=1 n=d#6 v=88
4688 On ch=1 n=b6 v=0
4688 On ch=1 n=d#6 v=0
4688 On ch=1 n=g7 v=86
4688 On ch=1 n=d6 v=92
4704 On ch=1 n=g7 v=0
4704 On ch=1 n=d6 v=0
4704 On ch=1 n=g#7 v=87
4704 On ch=1 n=f6 v=112
4720 On ch=1 n=g#7 v=0
4720 On ch=1 n=f6 v=0
4720 On ch=1 n=a#6 v=81
4720 On ch=1 n=d6 v=75
4736 On ch=1 n=a#6 v=0
4736 On ch=1 n=d6 v=0
4736 On ch=1 n=g7 v=92
4736 On ch=1 n=c#6 v=93
4752 On ch=1 n=g7 v=0
4752 On ch=1 n=c#6 v=0
4752 On ch=1 n=g#7 v=95
4752 On ch=1 n=e6 v=85
4768 On ch=1 n=g#7 v=0
4768 On ch=1 n=e6 v=0
4768 On ch=1 n=g#6 v=84
4768 On ch=1 n=c#6 v=85
4784 On ch=1 n=g#6 v=0
4784 On ch=1 n=c#6 v=0
4784 On ch=1 n=g7 v=107
4784 On ch=1 n=c6 v=95
4800 On ch=1 n=g7 v=0
4800 On ch=1 n=c6 v=0
4800 On ch=1 n=g#7 v=114
4800 On ch=1 n=d#6 v=99
4816 On ch=1 n=g#7 v=0
4816 On ch=1 n=d#6 v=0
4816 On ch=1 n=g6 v=88
4816 On ch=1 n=c6 v=106
4832 On ch=1 n=g6 v=0
4832 On ch=1 n=c6 v=0
4832 On ch=1 n=g#6 v=82
4832 On ch=1 n=b5 v=113
4848 On ch=1 n=g#6 v=0
4848 On ch=1 n=b5 v=0
4848 On ch=1 n=g6 v=99
4848 On ch=1 n=g#6 v=99
4848 On ch=1 n=d6 v=113
4864 On ch=1 n=g6 v=0
4864 On ch=1 n=g#6 v=0
4864 On ch=1 n=d6 v=0
4864 On ch=1 n=f#6 v=111
4864 On ch=1 n=b5 v=89
4880 On ch=1 n=f#6 v=0
4880 On ch=1 n=b5 v=0
4880 On ch=1 n=g#6 v=111
4880 On ch=1 n=a#5 v=110
4896 On ch=1 n=g#6 v=0
4896 On ch=1 n=a#5 v=0
4896 On ch=1 n=g#6 v=108
4896 On ch=1 n=f#6 v=108
4896 On ch=1 n=c#6 v=97
4912 On ch=1 n=g#6 v=0
4912 On ch=1 n=f#6 v=0
4912 On ch=1 n=c#6 v=0
4912 On ch=1 n=f6 v=107
4912 On ch=1 n=a#5 v=88
4928 On ch=1 n=f6 v=0
4928 On ch=1 n=a#5 v=0
4928 On ch=1 n=g#6 v=114
4928 On ch=1 n=a5 v=104
4944 On ch=1 n=g#6 v=0
4944 On ch=1 n=a5 v=0
4944 On ch=1 n=g#6 v=113
4944 On ch=1 n=f6 v=118
4944 On ch=1 n=c6 v=120
4960 On ch=1 n=g#6 v=0
4960 On ch=1 n=f6 v=0
4960 On ch=1 n=c6 v=0
4960 On ch=1 n=e6 v=121
4960 On ch=1 n=a5 v=113
4976 On ch=1 n=e6 v=0
4976 On ch=1 n=a5 v=0
4976 On ch=1 n=g#6 v=120
4976 On ch=1 n=g#5 v=105
4992 On ch=1 n=g#6 v=0
4992 On ch=1 n=g#5 v=0
4992 On ch=1 n=g#6 v=115
4992 On ch=1 n=e6 v=120
4992 On ch=1 n=b4 v=115
4992 On ch=1 n=b3 v=101
5008 On ch=1 n=g#6 v=0
5008 On ch=1 n=e6 v=0
5008 On ch=1 n=g#5 v=114
5024 On ch=1 n=g#5 v=0
5024 On ch=1 n=g#4 v=108
5024 On ch=1 n=f#5 v=115
5040 On ch=1 n=g#4 v=0
5040 On ch=1 n=f#5 v=0
5040 On ch=1 n=g#5 v=113
5040 On ch=1 n=e5 v=127
5056 On ch=1 n=g#5 v=0
5056 On ch=1 n=e5 v=0
5056 On ch=1 n=g#5 v=110
5072 On ch=1 n=g#5 v=0
5072 On ch=1 n=d#6 v=121
5072 On ch=1 n=f#6 v=117
5088 On ch=1 n=d#6 v=0
5088 On ch=1 n=f#6 v=0
5088 On ch=1 n=g#6 v=108
5088 On ch=1 n=e6 v=120
5088 On ch=1 n=b4 v=0
5088 On ch=1 n=b3 v=0
5088 On ch=1 n=b4 v=120
5088 On ch=1 n=b3 v=117
5104 On ch=1 n=g#6 v=0
5104 On ch=1 n=e6 v=0
5104 On ch=1 n=g#5 v=113
5120 On ch=1 n=g#5 v=0
5120 On ch=1 n=g#4 v=100
5120 On ch=1 n=f#5 v=107
5136 On ch=1 n=g#4 v=0
5136 On ch=1 n=f#5 v=0
5136 On ch=1 n=e5 v=126
5136 On ch=1 n=g#5 v=111
5152 On ch=1 n=e5 v=0
5152 On ch=1 n=g#5 v=0
5152 On ch=1 n=g#5 v=105
5168 On ch=1 n=g#5 v=0
5168 On ch=1 n=f#6 v=111
5168 On ch=1 n=d#6 v=118
5184 On ch=1 n=f#6 v=0
5184 On ch=1 n=d#6 v=0
5184 On ch=1 n=g#6 v=117
5184 On ch=1 n=e6 v=121
5184 On ch=1 n=b4 v=0
5184 On ch=1 n=b3 v=0
5184 On ch=1 n=b4 v=126
5184 On ch=1 n=b3 v=120
5200 On ch=1 n=g#6 v=0
5200 On ch=1 n=e6 v=0
5200 On ch=1 n=g#5 v=113
5216 On ch=1 n=g#5 v=0
5216 On ch=1 n=f#5 v=111
5216 On ch=1 n=g#4 v=100
5232 On ch=1 n=f#5 v=0
5232 On ch=1 n=g#4 v=0
5232 On ch=1 n=g#5 v=104
5232 On ch=1 n=e5 v=120
5248 On ch=1 n=g#5 v=0
5248 On ch=1 n=e5 v=0
5248 On ch=1 n=g#5 v=115
5264 On ch=1 n=g#5 v=0
5264 On ch=1 n=d#6 v=115
5264 On ch=1 n=f#6 v=113
5280 On ch=1 n=d#6 v=0
5280 On ch=1 n=f#6 v=0
5280 On ch=1 n=g#6 v=113
5280 On ch=1 n=e6 v=118
5280 On ch=1 n=b4 v=0
5280 On ch=1 n=b3 v=0
5280 On ch=1 n=b4 v=126
5280 On ch=1 n=b3 v=125
5296 On ch=1 n=g#6 v=0
5296 On ch=1 n=e6 v=0
5296 On ch=1 n=g#5 v=115
5312 On ch=1 n=g#5 v=0
5312 On ch=1 n=g#4 v=91
5312 On ch=1 n=f#5 v=97
5328 On ch=1 n=g#4 v=0
5328 On ch=1 n=f#5 v=0
5328 On ch=1 n=g#5 v=108
5328 On ch=1 n=e5 v=102
5344 On ch=1 n=g#5 v=0
5344 On ch=1 n=e5 v=0
5344 On ch=1 n=g#5 v=113
5360 On ch=1 n=g#5 v=0
5360 On ch=1 n=f#6 v=115
5360 On ch=1 n=d#6 v=117
5376 On ch=1 n=f#6 v=0
5376 On ch=1 n=d#6 v=0
5376 On ch=1 n=b4 v=0
5376 On ch=1 n=b3 v=0
5376 On ch=1 n=d3 v=115
5376 On ch=1 n=g#6 v=120
5376 On ch=1 n=b5 v=125
5376 On ch=1 n=d2 v=117
5376 On ch=1 n=g#5 v=114
5376 On ch=1 n=f6 v=124
5424 On ch=1 n=a5 v=120
5424 On ch=1 n=a#4 v=115
5424 On ch=1 n=f4 v=110
5424 On ch=1 n=a#3 v=123
5424 On ch=1 n=f6 v=120
5440 On ch=1 n=a5 v=0
5440 On ch=1 n=a#5 v=115
5456 On ch=1 n=a#5 v=0
5456 On ch=1 n=b5 v=125
5472 On ch=1 n=b5 v=0
5472 On ch=1 n=c#6 v=124
5488 On ch=1 n=c#6 v=0
5488 On ch=1 n=b5 v=120
5504 On ch=1 n=b5 v=0
5504 On ch=1 n=a#5 v=115
5520 On ch=1 n=a#4 v=0
5520 On ch=1 n=f4 v=0
5520 On ch=1 n=a#3 v=0
5520 On ch=1 n=a#5 v=0
5520 On ch=1 n=a5 v=121
5520 On ch=1 n=a#2 v=111
5520 On ch=1 n=a#3 v=114
5536 On ch=1 n=a5 v=0
5536 On ch=1 n=g#5 v=114
5552 On ch=1 n=g#5 v=0
5552 On ch=1 n=f5 v=113
5568 On ch=1 n=a#2 v=0
5568 On ch=1 n=a#3 v=0
5568 On ch=1 n=f5 v=0
5568 On ch=1 n=e5 v=110
5568 On ch=1 n=d3 v=0
5568 On ch=1 n=g#6 v=0
5568 On ch=1 n=b5 v=0
5568 On ch=1 n=d2 v=0
5568 On ch=1 n=g#5 v=0
5568 On ch=1 n=f6 v=0
5568 On ch=1 n=f6 v=0
5568 On ch=1 n=d3 v=112
5568 On ch=1 n=d2 v=110
5584 On ch=1 n=e5 v=0
5584 On ch=1 n=d#5 v=107
5600 On ch=1 n=d#5 v=0
5600 On ch=1 n=d5 v=107
5616 On ch=1 n=d5 v=0
5616 On ch=1 n=b4 v=101
5616 On ch=1 n=a#3 v=110
5616 On ch=1 n=f4 v=106
5632 On ch=1 n=b4 v=0
5632 On ch=1 n=a#4 v=115
5648 On ch=1 n=a#4 v=0
5648 On ch=1 n=a4 v=77
5664 On ch=1 n=a4 v=0
5664 On ch=1 n=g#4 v=91
5680 On ch=1 n=g#4 v=0
5680 On ch=1 n=g4 v=85
5696 On ch=1 n=g4 v=0
5696 On ch=1 n=g#4 v=105
5712 On ch=1 n=g#4 v=0
5712 On ch=1 n=a4 v=110
5712 On ch=1 n=a#3 v=0
5712 On ch=1 n=f4 v=0
5712 On ch=1 n=a#2 v=118
5728 On ch=1 n=a4 v=0
5728 On ch=1 n=c5 v=107
5744 On ch=1 n=c5 v=0
5744 On ch=1 n=a4 v=110
5760 On ch=1 n=a4 v=0
5760 On ch=1 n=b4 v=73
5760 On ch=1 n=d3 v=0
5760 On ch=1 n=d2 v=0
5760 On ch=1 n=a#2 v=0
5760 On ch=1 n=d2 v=106
5760 On ch=1 n=d3 v=109
5776 On ch=1 n=b4 v=0
5776 On ch=1 n=a#4 v=100
5792 On ch=1 n=a#4 v=0
5792 On ch=1 n=f4 v=88
5808 On ch=1 n=f4 v=0
5808 On ch=1 n=a4 v=85
5824 On ch=1 n=a4 v=0
5824 On ch=1 n=b4 v=85
5832 On ch=1 n=e5 v=101
5832 On ch=1 n=g5 v=109
5840 On ch=1 n=b4 v=0
5840 On ch=1 n=a4 v=96
5856 On ch=1 n=a4 v=0
5856 On ch=1 n=b4 v=101
5856 On ch=1 n=e5 v=0
5856 On ch=1 n=g5 v=0
5856 On ch=1 n=f5 v=104
5856 On ch=1 n=g#5 v=75
5872 On ch=1 n=b4 v=0
5872 On ch=1 n=a#4 v=104
5888 On ch=1 n=a#4 v=0
5888 On ch=1 n=f4 v=107
5904 On ch=1 n=f4 v=0
5904 On ch=1 n=e4 v=102
5920 On ch=1 n=e4 v=0
5920 On ch=1 n=f#4 v=99
5936 On ch=1 n=f#4 v=0
5936 On ch=1 n=e4 v=107
5952 On ch=1 n=e4 v=0
5952 On ch=1 n=f#4 v=97
5952 On ch=1 n=d2 v=0
5952 On ch=1 n=d3 v=0
5952 On ch=1 n=f5 v=0
5952 On ch=1 n=g#5 v=0
5968 On ch=1 n=f#4 v=0
5968 On ch=1 n=f4 v=106
5984 On ch=1 n=f4 v=0
5984 On ch=1 n=a#3 v=100
6000 On ch=1 n=a#3 v=0
6000 On ch=1 n=a3 v=97
6016 On ch=1 n=a3 v=0
6016 On ch=1 n=b3 v=96
6032 On ch=1 n=b3 v=0
6032 On ch=1 n=a3 v=106
6048 On ch=1 n=a3 v=0
6048 On ch=1 n=b3 v=99
6064 On ch=1 n=b3 v=0
6064 On ch=1 n=a#3 v=107
6080 On ch=1 n=a#3 v=0
6080 On ch=1 n=d3 v=110
6096 On ch=1 n=d3 v=0
6096 On ch=1 n=b5 v=112
6096 On ch=1 n=c#3 v=124
6096 On ch=1 n=c#2 v=121
6096 On ch=1 n=f6 v=95
6112 On ch=1 n=b5 v=0
6112 On ch=1 n=c#6 v=111
6128 On ch=1 n=c#6 v=0
6128 On ch=1 n=b5 v=101
6144 On ch=1 n=b5 v=0
6144 On ch=1 n=c#6 v=114
6144 On ch=1 n=c#3 v=0
6144 On ch=1 n=c#2 v=0
6144 On ch=1 n=f6 v=0
6144 On ch=1 n=c#5 v=105
6144 On ch=1 n=f4 v=102
6144 On ch=1 n=g#3 v=99
6144 On ch=1 n=f6 v=112
6160 On ch=1 n=c#6 v=0
6160 On ch=1 n=c6 v=110
6176 On ch=1 n=c6 v=0
6176 On ch=1 n=f5 v=102
6192 On ch=1 n=f5 v=0
6192 On ch=1 n=c6 v=124
6208 On ch=1 n=c6 v=0
6208 On ch=1 n=f5 v=96
6224 On ch=1 n=f5 v=0
6224 On ch=1 n=c5 v=102
6240 On ch=1 n=c5 v=0
6240 On ch=1 n=f5 v=110
6256 On ch=1 n=f5 v=0
6256 On ch=1 n=c5 v=82
6272 On ch=1 n=c5 v=0
6272 On ch=1 n=f4 v=92
6288 On ch=1 n=f4 v=0
6288 On ch=1 n=b4 v=113
6288 On ch=1 n=c#5 v=0
6288 On ch=1 n=f4 v=0
6288 On ch=1 n=g#3 v=0
6288 On ch=1 n=f6 v=0
6288 On ch=1 n=c#3 v=93
6288 On ch=1 n=c#2 v=91
6288 On ch=1 n=f5 v=99
6304 On ch=1 n=b4 v=0
6304 On ch=1 n=c#5 v=115
6320 On ch=1 n=c#5 v=0
6320 On ch=1 n=b4 v=113
6336 On ch=1 n=b4 v=0
6336 On ch=1 n=c#5 v=104
6336 On ch=1 n=c#3 v=0
6336 On ch=1 n=c#2 v=0
6336 On ch=1 n=f5 v=0
6336 On ch=1 n=g#3 v=99
6336 On ch=1 n=f4 v=99
6336 On ch=1 n=f5 v=101
6352 On ch=1 n=c#5 v=0
6352 On ch=1 n=c5 v=93
6368 On ch=1 n=c5 v=0
6368 On ch=1 n=f4 v=84
6384 On ch=1 n=f4 v=0
6384 On ch=1 n=c5 v=92
6400 On ch=1 n=c5 v=0
6400 On ch=1 n=f4 v=97
6416 On ch=1 n=f4 v=0
6416 On ch=1 n=c4 v=106
6432 On ch=1 n=c4 v=0
6432 On ch=1 n=f4 v=112
6448 On ch=1 n=f4 v=0
6448 On ch=1 n=c4 v=124
6464 On ch=1 n=c4 v=0
6464 On ch=1 n=f3 v=79
6480 On ch=1 n=f3 v=0
6480 On ch=1 n=b3 v=97
6480 On ch=1 n=g#3 v=0
6480 On ch=1 n=f4 v=0
6480 On ch=1 n=f5 v=0
6480 On ch=1 n=f4 v=109
6496 On ch=1 n=b3 v=0
6496 On ch=1 n=c#4 v=88
6512 On ch=1 n=c#4 v=0
6512 On ch=1 n=b3 v=91
6528 On ch=1 n=b3 v=0
6528 On ch=1 n=c#4 v=100
6528 On ch=1 n=f4 v=0
6528 On ch=1 n=f4 v=82
6544 On ch=1 n=c#4 v=0
6544 On ch=1 n=c4 v=120
6560 On ch=1 n=c4 v=0
6560 On ch=1 n=f3 v=62
6576 On ch=1 n=f3 v=0
6576 On ch=1 n=b3 v=77
6592 On ch=1 n=b3 v=0
6592 On ch=1 n=c#4 v=75
6608 On ch=1 n=c#4 v=0
6608 On ch=1 n=b3 v=77
6624 On ch=1 n=b3 v=0
6624 On ch=1 n=c#4 v=75
6640 On ch=1 n=c#4 v=0
6640 On ch=1 n=c4 v=75
6656 On ch=1 n=c4 v=0
6656 On ch=1 n=f3 v=50
6672 On ch=1 n=f3 v=0
6672 On ch=1 n=b3 v=64
6688 On ch=1 n=b3 v=0
6688 On ch=1 n=c#4 v=68
6704 On ch=1 n=c#4 v=0
6704 On ch=1 n=b3 v=65
6720 On ch=1 n=b3 v=0
6720 On ch=1 n=c#4 v=78
6720 On ch=1 n=f4 v=0
6736 On ch=1 n=c#4 v=0
6736 On ch=1 n=c4 v=74
6752 On ch=1 n=c4 v=0
6752 On ch=1 n=f3 v=81
6768 On ch=1 n=f3 v=0
6768 On ch=1 n=b3 v=81
6784 On ch=1 n=b3 v=0
6784 On ch=1 n=c#4 v=84
6800 On ch=1 n=c#4 v=0
6800 On ch=1 n=c4 v=67
6816 On ch=1 n=c4 v=0
6816 On ch=1 n=c#4 v=85
6832 On ch=1 n=c#4 v=0
6832 On ch=1 n=c4 v=71
6848 On ch=1 n=c4 v=0
6848 On ch=1 n=f3 v=82
6864 On ch=1 n=f3 v=0
6864 On ch=1 n=b3 v=82
6864 On ch=1 n=c#3 v=105
6880 On ch=1 n=b3 v=0
6880 On ch=1 n=c#4 v=93
6880 On ch=1 n=c#3 v=0
6880 On ch=1 n=d#3 v=115
6896 On ch=1 n=c#4 v=0
6896 On ch=1 n=b3 v=77
6896 On ch=1 n=d#3 v=0
6896 On ch=1 n=c#3 v=110
6912 On ch=1 n=b3 v=0
6912 On ch=1 n=c#4 v=81
6912 On ch=1 n=c#3 v=0
6912 On ch=1 n=d#3 v=115
6912 On ch=1 n=d#2 v=124
6928 On ch=1 n=c#4 v=0
6928 On ch=1 n=c4 v=65
6944 On ch=1 n=c4 v=0
6944 On ch=1 n=f3 v=61
6960 On ch=1 n=f3 v=0
6960 On ch=1 n=b3 v=74
6960 On ch=1 n=d#3 v=0
6960 On ch=1 n=d#2 v=0
6976 On ch=1 n=b3 v=0
6976 On ch=1 n=c#4 v=80
6992 On ch=1 n=c#4 v=0
6992 On ch=1 n=b3 v=86
7008 On ch=1 n=b3 v=0
7008 On ch=1 n=c#4 v=95
7008 On ch=1 n=f2 v=106
7008 On ch=1 n=f3 v=106
7024 On ch=1 n=c#4 v=0
7024 On ch=1 n=c4 v=65
7040 On ch=1 n=c4 v=0
7040 On ch=1 n=f3 v=75
7056 On ch=1 n=f3 v=0
7056 On ch=1 n=b3 v=86
7056 On ch=1 n=f2 v=0
7056 On ch=1 n=f3 v=0
7072 On ch=1 n=b3 v=0
7072 On ch=1 n=c#4 v=82
7088 On ch=1 n=c#4 v=0
7088 On ch=1 n=b3 v=82
7104 On ch=1 n=b3 v=0
7104 On ch=1 n=c#4 v=82
7120 On ch=1 n=c#4 v=0
7120 On ch=1 n=c4 v=62
7136 On ch=1 n=c4 v=0
7136 On ch=1 n=f3 v=71
7152 On ch=1 n=f3 v=0
7152 On ch=1 n=b3 v=86
7152 On ch=1 n=g3 v=123
7168 On ch=1 n=b3 v=0
7168 On ch=1 n=c#4 v=91
7168 On ch=1 n=g3 v=0
7168 On ch=1 n=g#3 v=115
7184 On ch=1 n=c#4 v=0
7184 On ch=1 n=b3 v=81
7184 On ch=1 n=g#3 v=0
7184 On ch=1 n=g3 v=115
7200 On ch=1 n=b3 v=0
7200 On ch=1 n=c#4 v=88
7200 On ch=1 n=g3 v=0
7200 On ch=1 n=g#2 v=115
7200 On ch=1 n=g#3 v=118
7216 On ch=1 n=c#4 v=0
7216 On ch=1 n=c4 v=65
7232 On ch=1 n=c4 v=0
7232 On ch=1 n=f3 v=82
7248 On ch=1 n=f3 v=0
7248 On ch=1 n=b3 v=88
7248 On ch=1 n=g#2 v=0
7248 On ch=1 n=g#3 v=0
7264 On ch=1 n=b3 v=0
7264 On ch=1 n=c#4 v=84
7280 On ch=1 n=c#4 v=0
7280 On ch=1 n=b3 v=86
7296 On ch=1 n=b3 v=0
7296 On ch=1 n=c#4 v=88
7312 On ch=1 n=c#4 v=0
7312 On ch=1 n=c4 v=82
7328 On ch=1 n=c4 v=0
7328 On ch=1 n=f3 v=74
7344 On ch=1 n=f3 v=0
7344 On ch=1 n=b3 v=75
7344 On ch=1 n=g4 v=85
7360 On ch=1 n=b3 v=0
7360 On ch=1 n=c#4 v=81
7360 On ch=1 n=g4 v=0
7360 On ch=1 n=g#4 v=85
7376 On ch=1 n=c#4 v=0
7376 On ch=1 n=b3 v=85
7376 On ch=1 n=g#4 v=0
7376 On ch=1 n=g4 v=93
7392 On ch=1 n=b3 v=0
7392 On ch=1 n=c#4 v=85
7392 On ch=1 n=g4 v=0
7392 On ch=1 n=g#4 v=93
7408 On ch=1 n=c#4 v=0
7408 On ch=1 n=c4 v=74
7424 On ch=1 n=c4 v=0
7424 On ch=1 n=f3 v=79
7440 On ch=1 n=f3 v=0
7440 On ch=1 n=b3 v=89
7440 On ch=1 n=g#4 v=0
7456 On ch=1 n=b3 v=0
7456 On ch=1 n=c#4 v=90
7472 On ch=1 n=c#4 v=0
7472 On ch=1 n=b3 v=76
7488 On ch=1 n=b3 v=0
7488 On ch=1 n=c#4 v=90
7488 On ch=1 n=g#6 v=111
7504 On ch=1 n=c#4 v=0
7504 On ch=1 n=c4 v=82
7520 On ch=1 n=c4 v=0
7520 On ch=1 n=f3 v=84
7536 On ch=1 n=f3 v=0
7536 On ch=1 n=b3 v=85
7552 On ch=1 n=b3 v=0
7552 On ch=1 n=c#4 v=95
7568 On ch=1 n=c#4 v=0
7568 On ch=1 n=b3 v=91
7584 On ch=1 n=b3 v=0
7584 On ch=1 n=c#4 v=88
7600 On ch=1 n=c#4 v=0
7600 On ch=1 n=c4 v=96
7616 On ch=1 n=c4 v=0
7616 On ch=1 n=f3 v=96
7632 On ch=1 n=f3 v=0
7632 On ch=1 n=b4 v=93
7632 On ch=1 n=g#6 v=0
7632 On ch=1 n=c#4 v=79
7632 On ch=1 n=f5 v=82
7632 On ch=1 n=g#4 v=62
7648 On ch=1 n=b4 v=0
7648 On ch=1 n=c#5 v=93
7664 On ch=1 n=c#5 v=0
7664 On ch=1 n=b4 v=88
7680 On ch=1 n=b4 v=0
7680 On ch=1 n=c#5 v=93
7680 On ch=1 n=c#4 v=0
7696 On ch=1 n=c#5 v=0
7696 On ch=1 n=c5 v=80
7712 On ch=1 n=c5 v=0
7712 On ch=1 n=b4 v=88
7728 On ch=1 n=b4 v=0
7728 On ch=1 n=c#5 v=75
7728 On ch=1 n=f3 v=89
7744 On ch=1 n=c#5 v=0
7744 On ch=1 n=c5 v=71
7760 On ch=1 n=c5 v=0
7760 On ch=1 n=g4 v=71
7776 On ch=1 n=g4 v=0
7776 On ch=1 n=c5 v=79
7792 On ch=1 n=c5 v=0
7792 On ch=1 n=g4 v=76
7800 On ch=1 n=f3 v=0
7800 On ch=1 n=d#4 v=74
7808 On ch=1 n=g4 v=0
7808 On ch=1 n=f4 v=74
7824 On ch=1 n=f4 v=0
7824 On ch=1 n=b4 v=74
7824 On ch=1 n=f5 v=0
7824 On ch=1 n=g#4 v=0
7824 On ch=1 n=d#4 v=0
7824 On ch=1 n=c#4 v=88
7824 On ch=1 n=g#4 v=91
7824 On ch=1 n=f5 v=88
7840 On ch=1 n=b4 v=0
7840 On ch=1 n=c#5 v=79
7856 On ch=1 n=c#5 v=0
7856 On ch=1 n=b4 v=64
7872 On ch=1 n=b4 v=0
7872 On ch=1 n=c#5 v=81
7872 On ch=1 n=c#4 v=0
7872 On ch=1 n=c4 v=89
7888 On ch=1 n=c#5 v=0
7888 On ch=1 n=c5 v=64
7904 On ch=1 n=c5 v=0
7904 On ch=1 n=b4 v=75
7920 On ch=1 n=b4 v=0
7920 On ch=1 n=c#5 v=88
7920 On ch=1 n=c4 v=0
7920 On ch=1 n=f3 v=82
7936 On ch=1 n=c#5 v=0
7936 On ch=1 n=c5 v=76
7952 On ch=1 n=c5 v=0
7952 On ch=1 n=g4 v=81
7968 On ch=1 n=g4 v=0
7968 On ch=1 n=c5 v=60
7984 On ch=1 n=c5 v=0
7984 On ch=1 n=g4 v=82
7992 On ch=1 n=f3 v=0
7992 On ch=1 n=g#4 v=85
8000 On ch=1 n=g4 v=0
8000 On ch=1 n=f4 v=81
8016 On ch=1 n=f4 v=0
8016 On ch=1 n=g5 v=81
8016 On ch=1 n=g#4 v=0
8016 On ch=1 n=f5 v=0
8016 On ch=1 n=g#4 v=0
8016 On ch=1 n=a#4 v=70
8016 On ch=1 n=c#5 v=54
8016 On ch=1 n=g4 v=81
8016 On ch=1 n=a#5 v=76
8016 On ch=1 n=g5 v=84
8016 On ch=1 n=d6 v=85
8032 On ch=1 n=g5 v=0
8032 On ch=1 n=f#5 v=91
8048 On ch=1 n=f#5 v=0
8048 On ch=1 n=f5 v=99
8064 On ch=1 n=f5 v=0
8064 On ch=1 n=g#5 v=81
8064 On ch=1 n=c6 v=86
8064 On ch=1 n=e5 v=95
8064 On ch=1 n=a#4 v=0
8064 On ch=1 n=c#5 v=0
8064 On ch=1 n=g4 v=0
8064 On ch=1 n=a#5 v=0
8064 On ch=1 n=g5 v=0
8064 On ch=1 n=d6 v=0
8064 On ch=1 n=c5 v=74
8064 On ch=1 n=g#4 v=85
8064 On ch=1 n=e4 v=81
8096 On ch=1 n=c5 v=0
8096 On ch=1 n=g#4 v=0
8096 On ch=1 n=e4 v=0
8096 On ch=1 n=a#4 v=95
8112 On ch=1 n=e5 v=0
8112 On ch=1 n=d#5 v=91
8112 On ch=1 n=a#4 v=0
8112 On ch=1 n=g#4 v=80
8128 On ch=1 n=g#4 v=0
8128 On ch=1 n=g4 v=74
8144 On ch=1 n=g4 v=0
8144 On ch=1 n=f#4 v=77
8160 On ch=1 n=d#5 v=0
8160 On ch=1 n=d5 v=88
8160 On ch=1 n=f#4 v=0
8160 On ch=1 n=f4 v=79
8176 On ch=1 n=f4 v=0
8176 On ch=1 n=e4 v=88
8192 On ch=1 n=e4 v=0
8192 On ch=1 n=d#4 v=102
8208 On ch=1 n=g#5 v=0
8208 On ch=1 n=c6 v=0
8208 On ch=1 n=d5 v=0
8208 On ch=1 n=g#5 v=79
8208 On ch=1 n=b5 v=97
8208 On ch=1 n=f5 v=89
8208 On ch=1 n=d#4 v=0
8208 On ch=1 n=d4 v=79
8208 On ch=1 n=f3 v=82
8224 On ch=1 n=f5 v=0
8224 On ch=1 n=e5 v=102
8240 On ch=1 n=e5 v=0
8240 On ch=1 n=d#5 v=82
8256 On ch=1 n=g#5 v=0
8256 On ch=1 n=b5 v=0
8256 On ch=1 n=d#5 v=0
8256 On ch=1 n=d5 v=99
8256 On ch=1 n=a#5 v=88
8256 On ch=1 n=f#5 v=95
8256 On ch=1 n=d4 v=0
8256 On ch=1 n=f3 v=0
8256 On ch=1 n=a#4 v=66
8256 On ch=1 n=c#4 v=74
8256 On ch=1 n=f#4 v=93
8288 On ch=1 n=a#4 v=0
8288 On ch=1 n=c#4 v=0
8288 On ch=1 n=f#4 v=0
8288 On ch=1 n=g#4 v=99
8304 On ch=1 n=d5 v=0
8304 On ch=1 n=c#5 v=81
8304 On ch=1 n=g#4 v=0
8304 On ch=1 n=f#4 v=97
8320 On ch=1 n=f#4 v=0
8320 On ch=1 n=f4 v=97
8336 On ch=1 n=f4 v=0
8336 On ch=1 n=e4 v=60
8352 On ch=1 n=c#5 v=0
8352 On ch=1 n=c5 v=67
8352 On ch=1 n=e4 v=0
8352 On ch=1 n=d#4 v=93
8368 On ch=1 n=d#4 v=0
8368 On ch=1 n=d4 v=75
8384 On ch=1 n=d4 v=0
8384 On ch=1 n=c#4 v=102
8400 On ch=1 n=a#5 v=0
8400 On ch=1 n=f#5 v=0
8400 On ch=1 n=c5 v=0
8400 On ch=1 n=f#5 v=79
8400 On ch=1 n=a5 v=95
8400 On ch=1 n=d#5 v=105
8400 On ch=1 n=c#4 v=0
8400 On ch=1 n=f3 v=88
8400 On ch=1 n=b3 v=80
8416 On ch=1 n=d#5 v=0
8416 On ch=1 n=d5 v=82
8432 On ch=1 n=d5 v=0
8432 On ch=1 n=c#5 v=93
8448 On ch=1 n=f#5 v=0
8448 On ch=1 n=a5 v=0
8448 On ch=1 n=c#5 v=0
8448 On ch=1 n=c5 v=92
8448 On ch=1 n=f3 v=0
8448 On ch=1 n=b3 v=0
8448 On ch=1 n=c4 v=92
8448 On ch=1 n=g#4 v=67
8448 On ch=1 n=f4 v=64
8448 On ch=1 n=g#5 v=76
8448 On ch=1 n=f5 v=74
8480 On ch=1 n=c5 v=0
8480 On ch=1 n=b4 v=88
8496 On ch=1 n=b4 v=0
8496 On ch=1 n=c#5 v=82
8496 On ch=1 n=c4 v=0
8496 On ch=1 n=f3 v=84
8512 On ch=1 n=c#5 v=0
8512 On ch=1 n=c5 v=74
8528 On ch=1 n=c5 v=0
8528 On ch=1 n=g4 v=76
8544 On ch=1 n=g4 v=0
8544 On ch=1 n=c5 v=85
8544 On ch=1 n=f3 v=0
8560 On ch=1 n=c5 v=0
8560 On ch=1 n=g4 v=75
8568 On ch=1 n=d#4 v=105
8576 On ch=1 n=g4 v=0
8576 On ch=1 n=f4 v=75
8592 On ch=1 n=f4 v=0
8592 On ch=1 n=b4 v=73
8592 On ch=1 n=g#4 v=0
8592 On ch=1 n=f4 v=0
8592 On ch=1 n=g#5 v=0
8592 On ch=1 n=f5 v=0
8592 On ch=1 n=d#4 v=0
8592 On ch=1 n=g#4 v=73
8592 On ch=1 n=f5 v=96
8592 On ch=1 n=c#4 v=77
8608 On ch=1 n=b4 v=0
8608 On ch=1 n=c#5 v=79
8624 On ch=1 n=c#5 v=0
8624 On ch=1 n=b4 v=67
8640 On ch=1 n=b4 v=0
8640 On ch=1 n=c#5 v=75
8640 On ch=1 n=c#4 v=0
8640 On ch=1 n=c4 v=82
8656 On ch=1 n=c#5 v=0
8656 On ch=1 n=c5 v=74
8672 On ch=1 n=c5 v=0
8672 On ch=1 n=b4 v=64
8688 On ch=1 n=b4 v=0
8688 On ch=1 n=c#5 v=84
8688 On ch=1 n=c4 v=0
8688 On ch=1 n=f3 v=93
8704 On ch=1 n=c#5 v=0
8704 On ch=1 n=c5 v=80
8720 On ch=1 n=c5 v=0
8720 On ch=1 n=g4 v=76
8736 On ch=1 n=g4 v=0
8736 On ch=1 n=c5 v=84
8752 On ch=1 n=c5 v=0
8752 On ch=1 n=g4 v=79
8760 On ch=1 n=f3 v=0
8760 On ch=1 n=d#5 v=108
8768 On ch=1 n=g4 v=0
8768 On ch=1 n=f4 v=69
8784 On ch=1 n=f4 v=0
8784 On ch=1 n=d6 v=120
8784 On ch=1 n=g#4 v=0
8784 On ch=1 n=f5 v=0
8784 On ch=1 n=d#5 v=0
8784 On ch=1 n=d5 v=79
8784 On ch=1 n=f5 v=99
8784 On ch=1 n=g#6 v=90
8784 On ch=1 n=g#5 v=73
8784 On ch=1 n=f6 v=107
8800 On ch=1 n=d6 v=0
8800 On ch=1 n=c#6 v=118
8816 On ch=1 n=c#6 v=0
8816 On ch=1 n=c6 v=126
8832 On ch=1 n=c6 v=0
8832 On ch=1 n=b5 v=97
8832 On ch=1 n=b4 v=89
8832 On ch=1 n=d5 v=0
8832 On ch=1 n=f5 v=0
8832 On ch=1 n=g#6 v=0
8832 On ch=1 n=g#5 v=0
8832 On ch=1 n=f6 v=0
8832 On ch=1 n=d#6 v=93
8832 On ch=1 n=g6 v=79
8832 On ch=1 n=d#5 v=70
8832 On ch=1 n=g5 v=65
8848 On ch=1 n=b4 v=0
8848 On ch=1 n=a#4 v=91
8864 On ch=1 n=a#4 v=0
8864 On ch=1 n=b4 v=85
8880 On ch=1 n=b5 v=0
8880 On ch=1 n=b4 v=0
8880 On ch=1 n=a#5 v=102
8880 On ch=1 n=c5 v=88
8880 On ch=1 n=f4 v=96
8896 On ch=1 n=c5 v=0
8896 On ch=1 n=c#5 v=73
8912 On ch=1 n=c#5 v=0
8912 On ch=1 n=d5 v=84
8928 On ch=1 n=a#5 v=0
8928 On ch=1 n=d5 v=0
8928 On ch=1 n=a5 v=115
8928 On ch=1 n=d#5 v=107
8944 On ch=1 n=d#5 v=0
8944 On ch=1 n=e5 v=109
8960 On ch=1 n=e5 v=0
8960 On ch=1 n=f5 v=110
8976 On ch=1 n=a5 v=0
8976 On ch=1 n=f5 v=0
8976 On ch=1 n=d#6 v=111
8976 On ch=1 n=f#6 v=111
8976 On ch=1 n=d#5 v=78
8976 On ch=1 n=f#5 v=77
8976 On ch=1 n=c5 v=84
8976 On ch=1 n=d#6 v=0
8976 On ch=1 n=g6 v=0
8976 On ch=1 n=d#5 v=0
8976 On ch=1 n=g5 v=0
8976 On ch=1 n=f4 v=0
8976 On ch=1 n=c6 v=110
8992 On ch=1 n=c6 v=0
8992 On ch=1 n=b5 v=102
9008 On ch=1 n=b5 v=0
9008 On ch=1 n=a#5 v=100
9024 On ch=1 n=d#6 v=0
9024 On ch=1 n=f#6 v=0
9024 On ch=1 n=d#5 v=0
9024 On ch=1 n=f#5 v=0
9024 On ch=1 n=c5 v=0
9024 On ch=1 n=a5 v=102
9024 On ch=1 n=a#5 v=0
9024 On ch=1 n=a4 v=96
9024 On ch=1 n=c#6 v=79
9024 On ch=1 n=c#5 v=79
9024 On ch=1 n=f5 v=73
9024 On ch=1 n=f6 v=64
9040 On ch=1 n=a4 v=0
9040 On ch=1 n=g#4 v=93
9056 On ch=1 n=g#4 v=0
9056 On ch=1 n=a4 v=92
9072 On ch=1 n=a5 v=0
9072 On ch=1 n=g#5 v=110
9072 On ch=1 n=a4 v=0
9072 On ch=1 n=a#4 v=93
9072 On ch=1 n=f4 v=96
9088 On ch=1 n=a#4 v=0
9088 On ch=1 n=b4 v=91
9104 On ch=1 n=b4 v=0
9104 On ch=1 n=c5 v=88
9120 On ch=1 n=g#5 v=0
9120 On ch=1 n=g5 v=104
9120 On ch=1 n=f4 v=0
9120 On ch=1 n=c5 v=0
9120 On ch=1 n=c#5 v=81
9136 On ch=1 n=c#5 v=0
9136 On ch=1 n=d5 v=80
9152 On ch=1 n=d5 v=0
9152 On ch=1 n=d#5 v=107
9168 On ch=1 n=g5 v=0
9168 On ch=1 n=c#6 v=100
9168 On ch=1 n=e6 v=102
9168 On ch=1 n=c#6 v=0
9168 On ch=1 n=c#5 v=0
9168 On ch=1 n=f5 v=0
9168 On ch=1 n=f6 v=0
9168 On ch=1 n=d#5 v=0
9168 On ch=1 n=a#5 v=99
9168 On ch=1 n=e5 v=71
9168 On ch=1 n=c#5 v=73
9168 On ch=1 n=a#4 v=95
9184 On ch=1 n=a#5 v=0
9184 On ch=1 n=a5 v=89
9200 On ch=1 n=a5 v=0
9200 On ch=1 n=g#5 v=113
9216 On ch=1 n=c#6 v=0
9216 On ch=1 n=e6 v=0
9216 On ch=1 n=c6 v=89
9216 On ch=1 n=f6 v=89
9216 On ch=1 n=e5 v=0
9216 On ch=1 n=c#5 v=0
9216 On ch=1 n=a#4 v=0
9216 On ch=1 n=g#5 v=0
9216 On ch=1 n=c5 v=80
9216 On ch=1 n=f5 v=93
9216 On ch=1 n=g#4 v=66
9232 On ch=1 n=f5 v=74
9248 On ch=1 n=f5 v=0
9248 On ch=1 n=g#5 v=88
9264 On ch=1 n=g#5 v=0
9264 On ch=1 n=g5 v=107
9264 On ch=1 n=c5 v=0
9264 On ch=1 n=f5 v=0
9264 On ch=1 n=g#4 v=0
9264 On ch=1 n=c4 v=91
9264 On ch=1 n=f3 v=102
9280 On ch=1 n=g5 v=0
9280 On ch=1 n=g#5 v=73
9296 On ch=1 n=g#5 v=0
9296 On ch=1 n=f5 v=74
9312 On ch=1 n=c6 v=0
9312 On ch=1 n=f6 v=0
9312 On ch=1 n=f5 v=0
9312 On ch=1 n=b5 v=93
9312 On ch=1 n=f6 v=93
9312 On ch=1 n=g5 v=84
9312 On ch=1 n=c4 v=0
9312 On ch=1 n=f3 v=0
9312 On ch=1 n=d#5 v=91
9312 On ch=1 n=g4 v=93
9312 On ch=1 n=b4 v=102
9312 On ch=1 n=d#4 v=74
9328 On ch=1 n=f5 v=86
9344 On ch=1 n=f5 v=0
9344 On ch=1 n=g#5 v=100
9360 On ch=1 n=g#5 v=0
9360 On ch=1 n=g5 v=113
9360 On ch=1 n=d#5 v=0
9360 On ch=1 n=g4 v=0
9360 On ch=1 n=b4 v=0
9360 On ch=1 n=d#4 v=0
9360 On ch=1 n=f3 v=88
9376 On ch=1 n=g5 v=0
9376 On ch=1 n=g#5 v=68
9392 On ch=1 n=g#5 v=0
9392 On ch=1 n=f5 v=88
9408 On ch=1 n=b5 v=0
9408 On ch=1 n=f6 v=0
9408 On ch=1 n=g5 v=0
9408 On ch=1 n=f5 v=0
9408 On ch=1 n=g#5 v=105
9408 On ch=1 n=c6 v=118
9408 On ch=1 n=f6 v=64
9408 On ch=1 n=f3 v=0
9408 On ch=1 n=g#4 v=90
9408 On ch=1 n=d5 v=97
9408 On ch=1 n=d4 v=89
9408 On ch=1 n=c5 v=97
9424 On ch=1 n=f5 v=89
9440 On ch=1 n=f5 v=0
9440 On ch=1 n=g#5 v=60
9456 On ch=1 n=g#5 v=0
9456 On ch=1 n=g5 v=93
9456 On ch=1 n=g#4 v=0
9456 On ch=1 n=d5 v=0
9456 On ch=1 n=d4 v=0
9456 On ch=1 n=c5 v=0
9456 On ch=1 n=f3 v=86
9472 On ch=1 n=g5 v=0
9472 On ch=1 n=g#5 v=75
9488 On ch=1 n=g#5 v=0
9488 On ch=1 n=f5 v=106
9504 On ch=1 n=g#5 v=0
9504 On ch=1 n=c6 v=0
9504 On ch=1 n=f6 v=0
9504 On ch=1 n=f5 v=0
9504 On ch=1 n=a6 v=113
9504 On ch=1 n=c#6 v=111
9504 On ch=1 n=a5 v=110
9504 On ch=1 n=e6 v=113
9504 On ch=1 n=e5 v=93
9504 On ch=1 n=f3 v=0
9504 On ch=1 n=e4 v=121
9504 On ch=1 n=c#5 v=115
9504 On ch=1 n=a4 v=112
9504 On ch=1 n=c#4 v=100
9520 On ch=1 n=e5 v=0
9520 On ch=1 n=g#5 v=110
9536 On ch=1 n=g#5 v=0
9536 On ch=1 n=c#6 v=80
9552 On ch=1 n=c#6 v=0
9552 On ch=1 n=c6 v=88
9552 On ch=1 n=e4 v=0
9552 On ch=1 n=c#5 v=0
9552 On ch=1 n=a4 v=0
9552 On ch=1 n=c#4 v=0
9552 On ch=1 n=f3 v=101
9568 On ch=1 n=c6 v=0
9568 On ch=1 n=c#6 v=88
9576 On ch=1 n=a6 v=0
9576 On ch=1 n=c#6 v=0
9576 On ch=1 n=a5 v=0
9576 On ch=1 n=e6 v=0
9576 On ch=1 n=g#6 v=117
9576 On ch=1 n=g#5 v=108
9584 On ch=1 n=c#6 v=0
9600 On ch=1 n=g#6 v=0
9600 On ch=1 n=g#5 v=0
9600 On ch=1 n=f5 v=101
9600 On ch=1 n=f3 v=0
9600 On ch=1 n=c5 v=95
9600 On ch=1 n=g#4 v=99
9600 On ch=1 n=f4 v=102
9600 On ch=1 n=c4 v=104
9600 On ch=1 n=c6 v=104
9600 On ch=1 n=g#5 v=79
9600 On ch=1 n=f6 v=99
9616 On ch=1 n=f5 v=0
9616 On ch=1 n=f5 v=106
9632 On ch=1 n=f5 v=0
9632 On ch=1 n=g#5 v=108
9648 On ch=1 n=g#5 v=0
9648 On ch=1 n=g5 v=113
9648 On ch=1 n=c5 v=0
9648 On ch=1 n=g#4 v=0
9648 On ch=1 n=f4 v=0
9648 On ch=1 n=c4 v=0
9648 On ch=1 n=f3 v=110
9664 On ch=1 n=g5 v=0
9664 On ch=1 n=g#5 v=115
9680 On ch=1 n=g#5 v=0
9680 On ch=1 n=f5 v=110
9696 On ch=1 n=f5 v=0
9696 On ch=1 n=c6 v=0
9696 On ch=1 n=g#5 v=0
9696 On ch=1 n=f6 v=0
9696 On ch=1 n=f3 v=0
9696 On ch=1 n=d#5 v=105
9696 On ch=1 n=b4 v=110
9696 On ch=1 n=g4 v=117
9696 On ch=1 n=d#4 v=99
9696 On ch=1 n=f6 v=107
9696 On ch=1 n=b5 v=107
9696 On ch=1 n=g5 v=110
9712 On ch=1 n=f5 v=113
9728 On ch=1 n=f5 v=0
9728 On ch=1 n=g#5 v=93
9744 On ch=1 n=g#5 v=0
9744 On ch=1 n=g5 v=115
9744 On ch=1 n=d#5 v=0
9744 On ch=1 n=b4 v=0
9744 On ch=1 n=g4 v=0
9744 On ch=1 n=d#4 v=0
9744 On ch=1 n=f3 v=101
9760 On ch=1 n=g5 v=0
9760 On ch=1 n=g#5 v=104
9776 On ch=1 n=g#5 v=0
9776 On ch=1 n=f5 v=113
9792 On ch=1 n=f5 v=0
9792 On ch=1 n=f6 v=0
9792 On ch=1 n=b5 v=0
9792 On ch=1 n=g5 v=0
9792 On ch=1 n=f3 v=0
9792 On ch=1 n=d4 v=107
9792 On ch=1 n=d5 v=112
9792 On ch=1 n=c5 v=107
9792 On ch=1 n=c6 v=118
9792 On ch=1 n=f6 v=112
9792 On ch=1 n=g#5 v=107
9808 On ch=1 n=f5 v=110
9824 On ch=1 n=f5 v=0
9824 On ch=1 n=g#5 v=111
9840 On ch=1 n=g#5 v=0
9840 On ch=1 n=g5 v=112
9840 On ch=1 n=d4 v=0
9840 On ch=1 n=d5 v=0
9840 On ch=1 n=c5 v=0
9840 On ch=1 n=f3 v=109
9856 On ch=1 n=g5 v=0
9856 On ch=1 n=g#5 v=100
9872 On ch=1 n=g#5 v=0
9872 On ch=1 n=f5 v=109
9888 On ch=1 n=f5 v=0
9888 On ch=1 n=e5 v=101
9888 On ch=1 n=c6 v=0
9888 On ch=1 n=f6 v=0
9888 On ch=1 n=g#5 v=0
9888 On ch=1 n=f3 v=0
9888 On ch=1 n=c#5 v=118
9888 On ch=1 n=e4 v=121
9888 On ch=1 n=c#4 v=91
9888 On ch=1 n=a4 v=113
9888 On ch=1 n=a5 v=124
9888 On ch=1 n=a6 v=107
9888 On ch=1 n=c#6 v=121
9888 On ch=1 n=e6 v=121
9904 On ch=1 n=e5 v=0
9904 On ch=1 n=a5 v=124
9920 On ch=1 n=a5 v=0
9920 On ch=1 n=c#6 v=105
9936 On ch=1 n=c#6 v=0
9936 On ch=1 n=c6 v=124
9936 On ch=1 n=c#5 v=0
9936 On ch=1 n=e4 v=0
9936 On ch=1 n=c#4 v=0
9936 On ch=1 n=a4 v=0
9936 On ch=1 n=f3 v=109
9952 On ch=1 n=c6 v=0
9952 On ch=1 n=c#6 v=118
9960 On ch=1 n=a5 v=0
9960 On ch=1 n=a6 v=0
9960 On ch=1 n=c#6 v=0
9960 On ch=1 n=e6 v=0
9960 On ch=1 n=g#5 v=113
9960 On ch=1 n=g#6 v=115
9968 On ch=1 n=c#6 v=0
9984 On ch=1 n=g#5 v=113
9984 On ch=1 n=f6 v=120
9984 On ch=1 n=c6 v=123
9984 On ch=1 n=f5 v=96
9984 On ch=1 n=f3 v=0
9984 On ch=1 n=g#5 v=0
9984 On ch=1 n=g#6 v=0
9984 On ch=1 n=c5 v=106
9984 On ch=1 n=g#4 v=107
9984 On ch=1 n=c4 v=95
9984 On ch=1 n=f4 v=112
10016 On ch=1 n=g#5 v=0
10016 On ch=1 n=f6 v=0
10016 On ch=1 n=c6 v=0
10016 On ch=1 n=f5 v=0
10016 On ch=1 n=c6 v=107
10032 On ch=1 n=c6 v=0
10032 On ch=1 n=g6 v=102
10032 On ch=1 n=c5 v=0
10032 On ch=1 n=g#4 v=0
10032 On ch=1 n=c4 v=0
10032 On ch=1 n=f4 v=0
10032 On ch=1 n=f3 v=85
10032 On ch=1 n=c4 v=93
10032 On ch=1 n=g#4 v=104
10048 On ch=1 n=g6 v=0
10048 On ch=1 n=c6 v=102
10056 On ch=1 n=f3 v=0
10056 On ch=1 n=c4 v=0
10056 On ch=1 n=g#4 v=0
10056 On ch=1 n=a#4 v=95
10064 On ch=1 n=c6 v=0
10064 On ch=1 n=c7 v=109
10080 On ch=1 n=c7 v=0
10080 On ch=1 n=f6 v=106
10080 On ch=1 n=a#4 v=0
10080 On ch=1 n=f4 v=84
10080 On ch=1 n=c5 v=104
10096 On ch=1 n=f6 v=0
10096 On ch=1 n=c6 v=115
10104 On ch=1 n=f4 v=0
10104 On ch=1 n=c5 v=0
10104 On ch=1 n=c#5 v=110
10112 On ch=1 n=c6 v=0
10112 On ch=1 n=c#7 v=115
10128 On ch=1 n=c#7 v=0
10128 On ch=1 n=c7 v=106
10128 On ch=1 n=c#5 v=0
10128 On ch=1 n=g#4 v=88
10128 On ch=1 n=d#5 v=108
10144 On ch=1 n=c7 v=0
10144 On ch=1 n=g6 v=106
10152 On ch=1 n=g#4 v=0
10152 On ch=1 n=d#5 v=0
10152 On ch=1 n=f5 v=113
10160 On ch=1 n=g6 v=0
10160 On ch=1 n=f7 v=110
10176 On ch=1 n=f7 v=0
10176 On ch=1 n=c7 v=107
10176 On ch=1 n=f5 v=0
10176 On ch=1 n=c5 v=81
10176 On ch=1 n=g5 v=113
10192 On ch=1 n=c7 v=0
10192 On ch=1 n=f6 v=97
10200 On ch=1 n=c5 v=0
10200 On ch=1 n=g5 v=0
10200 On ch=1 n=g#5 v=105
10208 On ch=1 n=f6 v=0
10208 On ch=1 n=g#7 v=117
10224 On ch=1 n=g#7 v=0
10224 On ch=1 n=g7 v=112
10224 On ch=1 n=g#5 v=0
10224 On ch=1 n=a#5 v=108
10224 On ch=1 n=f5 v=101
10240 On ch=1 n=g7 v=0
10240 On ch=1 n=c7 v=107
10248 On ch=1 n=a#5 v=0
10248 On ch=1 n=f5 v=0
10248 On ch=1 n=c6 v=110
10256 On ch=1 n=c7 v=0
10256 On ch=1 n=c8 v=112
10272 On ch=1 n=c8 v=0
10272 On ch=1 n=f7 v=117
10272 On ch=1 n=c6 v=0
10272 On ch=1 n=c#6 v=117
10272 On ch=1 n=g#5 v=102
10288 On ch=1 n=f7 v=0
10288 On ch=1 n=c7 v=106
10296 On ch=1 n=c#6 v=0
10296 On ch=1 n=g#5 v=0
10296 On ch=1 n=d6 v=121
10304 On ch=1 n=c7 v=0
10304 On ch=1 n=c8 v=110
10320 On ch=1 n=c8 v=0
10320 On ch=1 n=g7 v=115
10320 On ch=1 n=d6 v=0
10320 On ch=1 n=g5 v=118
10320 On ch=1 n=d#6 v=117
10336 On ch=1 n=g7 v=0
10336 On ch=1 n=a#7 v=124
10344 On ch=1 n=g5 v=0
10344 On ch=1 n=f#5 v=121
10352 On ch=1 n=a#7 v=0
10352 On ch=1 n=c7 v=120
10368 On ch=1 n=c7 v=0
10368 On ch=1 n=a#7 v=115
10368 On ch=1 n=d#6 v=0
10368 On ch=1 n=f#5 v=0
10368 On ch=1 n=c6 v=120
10368 On ch=1 n=f5 v=101
10368 On ch=1 n=c8 v=113
10384 On ch=1 n=a#7 v=0
10384 On ch=1 n=f7 v=110
10392 On ch=1 n=f5 v=0
10392 On ch=1 n=c5 v=102
10400 On ch=1 n=f7 v=0
10400 On ch=1 n=c7 v=107
10416 On ch=1 n=c7 v=0
10416 On ch=1 n=b6 v=101
10416 On ch=1 n=c6 v=0
10416 On ch=1 n=c5 v=0
10416 On ch=1 n=g#5 v=115
10416 On ch=1 n=d#5 v=108
10416 On ch=1 n=c#5 v=105
10432 On ch=1 n=b6 v=0
10432 On ch=1 n=c#7 v=108
10440 On ch=1 n=d#5 v=0
10440 On ch=1 n=c#5 v=0
10440 On ch=1 n=c5 v=109
10448 On ch=1 n=c#7 v=0
10448 On ch=1 n=b6 v=102
10464 On ch=1 n=b6 v=0
10464 On ch=1 n=c#7 v=115
10464 On ch=1 n=c8 v=0
10464 On ch=1 n=g#5 v=0
10464 On ch=1 n=c5 v=0
10464 On ch=1 n=f5 v=120
10464 On ch=1 n=f4 v=106
10464 On ch=1 n=f7 v=123
10480 On ch=1 n=c#7 v=0
10480 On ch=1 n=c7 v=101
10488 On ch=1 n=f4 v=0
10488 On ch=1 n=g4 v=113
10496 On ch=1 n=c7 v=0
10496 On ch=1 n=f6 v=113
10512 On ch=1 n=f6 v=0
10512 On ch=1 n=g6 v=117
10512 On ch=1 n=f5 v=0
10512 On ch=1 n=g4 v=0
10512 On ch=1 n=d#5 v=115
10512 On ch=1 n=f#4 v=102
10528 On ch=1 n=g6 v=0
10528 On ch=1 n=a#6 v=114
10536 On ch=1 n=f#4 v=0
10536 On ch=1 n=f4 v=109
10544 On ch=1 n=a#6 v=0
10544 On ch=1 n=c6 v=109
10560 On ch=1 n=c6 v=0
10560 On ch=1 n=a#6 v=113
10560 On ch=1 n=f7 v=0
10560 On ch=1 n=d#5 v=0
10560 On ch=1 n=f4 v=0
10560 On ch=1 n=c5 v=112
10560 On ch=1 n=c4 v=113
10560 On ch=1 n=c7 v=118
10576 On ch=1 n=a#6 v=0
10576 On ch=1 n=f6 v=115
10584 On ch=1 n=c4 v=0
10584 On ch=1 n=c#4 v=108
10592 On ch=1 n=f6 v=0
10592 On ch=1 n=c6 v=113
10608 On ch=1 n=c6 v=0
10608 On ch=1 n=c#6 v=115
10608 On ch=1 n=c5 v=0
10608 On ch=1 n=c7 v=0
10608 On ch=1 n=c#4 v=0
10608 On ch=1 n=g#4 v=119
10608 On ch=1 n=c4 v=106
10608 On ch=1 n=f6 v=120
10624 On ch=1 n=c#6 v=0
10624 On ch=1 n=c6 v=124
10632 On ch=1 n=c4 v=0
10632 On ch=1 n=c4 v=124
10640 On ch=1 n=c6 v=0
10640 On ch=1 n=f5 v=101
10656 On ch=1 n=f5 v=0
10656 On ch=1 n=g#4 v=0
10656 On ch=1 n=f6 v=0
10656 On ch=1 n=c4 v=0
10656 On ch=1 n=g#4 v=115
10656 On ch=1 n=f3 v=101
10656 On ch=1 n=c6 v=125
10656 On ch=1 n=c6 v=121
10672 On ch=1 n=f5 v=102
10680 On ch=1 n=f3 v=0
10680 On ch=1 n=d#3 v=105
10688 On ch=1 n=f5 v=0
10688 On ch=1 n=c5 v=97
10704 On ch=1 n=c5 v=0
10704 On ch=1 n=b4 v=106
10704 On ch=1 n=g#4 v=0
10704 On ch=1 n=c6 v=0
10704 On ch=1 n=c6 v=0
10704 On ch=1 n=d#3 v=0
10704 On ch=1 n=g#3 v=125
10704 On ch=1 n=c#3 v=105
10720 On ch=1 n=b4 v=0
10720 On ch=1 n=c#5 v=108
10728 On ch=1 n=c#3 v=0
10736 On ch=1 n=c#5 v=0
10736 On ch=1 n=b4 v=110
10752 On ch=1 n=b4 v=0
10752 On ch=1 n=c#5 v=104
10752 On ch=1 n=g#3 v=0
10752 On ch=1 n=f3 v=117
10752 On ch=1 n=c3 v=120
10752 On ch=1 n=f5 v=126
10768 On ch=1 n=c#5 v=0
10768 On ch=1 n=c5 v=109
10776 On ch=1 n=c3 v=0
10776 On ch=1 n=f2 v=113
10784 On ch=1 n=c5 v=0
10784 On ch=1 n=f4 v=102
10800 On ch=1 n=f4 v=0
10800 On ch=1 n=b4 v=113
10800 On ch=1 n=f3 v=0
10800 On ch=1 n=f2 v=0
10800 On ch=1 n=g#3 v=120
10800 On ch=1 n=d#3 v=113
10816 On ch=1 n=b4 v=0
10816 On ch=1 n=c#5 v=111
10824 On ch=1 n=d#3 v=0
10824 On ch=1 n=c#3 v=117
10832 On ch=1 n=c#5 v=0
10832 On ch=1 n=b4 v=109
10848 On ch=1 n=b4 v=0
10848 On ch=1 n=c#5 v=110
10848 On ch=1 n=f5 v=0
10848 On ch=1 n=g#3 v=0
10848 On ch=1 n=c#3 v=0
10848 On ch=1 n=f3 v=120
10848 On ch=1 n=c3 v=117
10848 On ch=1 n=f5 v=124
10864 On ch=1 n=c#5 v=0
10864 On ch=1 n=c5 v=109
10872 On ch=1 n=c3 v=0
10872 On ch=1 n=f2 v=112
10880 On ch=1 n=c5 v=0
10880 On ch=1 n=f4 v=102
10896 On ch=1 n=f4 v=0
10896 On ch=1 n=b4 v=110
10896 On ch=1 n=f3 v=0
10896 On ch=1 n=f2 v=0
10896 On ch=1 n=g#3 v=123
10896 On ch=1 n=d#3 v=100
10912 On ch=1 n=b4 v=0
10912 On ch=1 n=c#5 v=111
10920 On ch=1 n=d#3 v=0
10920 On ch=1 n=c#3 v=115
10928 On ch=1 n=c#5 v=0
10928 On ch=1 n=b4 v=101
10944 On ch=1 n=b4 v=0
10944 On ch=1 n=c#5 v=113
10944 On ch=1 n=f5 v=0
10944 On ch=1 n=g#3 v=0
10944 On ch=1 n=c#3 v=0
10944 On ch=1 n=f3 v=125
10944 On ch=1 n=c3 v=120
10944 On ch=1 n=f5 v=126
10960 On ch=1 n=c#5 v=0
10960 On ch=1 n=c5 v=106
10968 On ch=1 n=c3 v=0
10968 On ch=1 n=f2 v=107
10976 On ch=1 n=c5 v=0
10976 On ch=1 n=f4 v=106
10992 On ch=1 n=f4 v=0
10992 On ch=1 n=b4 v=107
10992 On ch=1 n=f3 v=0
10992 On ch=1 n=f2 v=0
10992 On ch=1 n=g#3 v=126
10992 On ch=1 n=d#3 v=81
11008 On ch=1 n=b4 v=0
11008 On ch=1 n=c#5 v=108
11016 On ch=1 n=d#3 v=0
11016 On ch=1 n=c#3 v=115
11024 On ch=1 n=c#5 v=0
11024 On ch=1 n=b4 v=96
11040 On ch=1 n=b4 v=0
11040 On ch=1 n=c#5 v=113
11040 On ch=1 n=f5 v=0
11040 On ch=1 n=g#3 v=0
11040 On ch=1 n=c#3 v=0
11040 On ch=1 n=f3 v=127
11040 On ch=1 n=c3 v=113
11040 On ch=1 n=f5 v=127
11056 On ch=1 n=c#5 v=0
11056 On ch=1 n=c5 v=109
11064 On ch=1 n=c3 v=0
11064 On ch=1 n=f2 v=120
11072 On ch=1 n=c5 v=0
11072 On ch=1 n=f4 v=113
11088 On ch=1 n=f4 v=0
11088 On ch=1 n=f4 v=126
11088 On ch=1 n=f3 v=0
11088 On ch=1 n=f2 v=0
11088 On ch=1 n=f3 v=124
11088 On ch=1 n=f2 v=118
11104 On ch=1 n=f4 v=0
11104 On ch=1 n=g4 v=120
11112 On ch=1 n=f3 v=0
11112 On ch=1 n=f2 v=0
11112 On ch=1 n=f3 v=125
11112 On ch=1 n=f2 v=127
11120 On ch=1 n=g4 v=0
11120 On ch=1 n=f4 v=126
11136 On ch=1 n=f4 v=0
11136 On ch=1 n=g2 v=118
11136 On ch=1 n=g3 v=124
11136 On ch=1 n=g4 v=127
11136 On ch=1 n=f5 v=0
11136 On ch=1 n=f3 v=0
11136 On ch=1 n=f2 v=0
11184 On ch=1 n=g2 v=0
11184 On ch=1 n=g3 v=0
11184 On ch=1 n=g4 v=0
11184 On ch=1 n=g#4 v=121
11184 On ch=1 n=g#3 v=126
11184 On ch=1 n=g#2 v=125
11232 On ch=1 n=g#4 v=0
11232 On ch=1 n=g#3 v=0
11232 On ch=1 n=g#2 v=0
11280 On ch=1 n=f#5 v=121
11280 On ch=1 n=a2 v=112
11280 On ch=1 n=c#5 v=120
11280 On ch=1 n=a3 v=120
11280 On ch=1 n=f#4 v=118
11376 On ch=1 n=f#5 v=0
11376 On ch=1 n=a2 v=0
11376 On ch=1 n=c#5 v=0
11376 On ch=1 n=a3 v=0
11376 On ch=1 n=f#4 v=0
11376 On ch=1 n=a#3 v=111
11376 On ch=1 n=c#5 v=113
11376 On ch=1 n=a#2 v=104
11376 On ch=1 n=f5 v=117
11376 On ch=1 n=g4 v=102
11424 On ch=1 n=a#3 v=0
11424 On ch=1 n=c#5 v=0
11424 On ch=1 n=a#2 v=0
11424 On ch=1 n=f5 v=0
11424 On ch=1 n=g4 v=0
11424 On ch=1 n=b2 v=109
11424 On ch=1 n=b3 v=110
11424 On ch=1 n=f5 v=120
11424 On ch=1 n=g#4 v=111
11424 On ch=1 n=d5 v=115
11472 On ch=1 n=b2 v=0
11472 On ch=1 n=b3 v=0
11472 On ch=1 n=f5 v=0
11472 On ch=1 n=g#4 v=0
11472 On ch=1 n=d5 v=0
11472 On ch=1 n=c4 v=126
11472 On ch=1 n=c3 v=120
11472 On ch=1 n=e5 v=127
11472 On ch=1 n=g4 v=120
11472 On ch=1 n=c5 v=124
11520 On ch=1 n=c4 v=0
11520 On ch=1 n=c3 v=0
11520 On ch=1 n=e5 v=0
11520 On ch=1 n=g4 v=0
11520 On ch=1 n=c5 v=0
11520 On ch=1 n=f5 v=127
11520 On ch=1 n=f4 v=126
11520 On ch=1 n=f6 v=127
11520 On ch=1 n=f7 v=127
11568 On ch=1 n=c#3 v=118
11568 On ch=1 n=c#4 v=126
11584 On ch=1 n=c#3 v=0
11584 On ch=1 n=c#4 v=0
11584 On ch=1 n=b3 v=124
11584 On ch=1 n=b2 v=120
11600 On ch=1 n=b3 v=0
11600 On ch=1 n=b2 v=0
11600 On ch=1 n=c4 v=126
11600 On ch=1 n=c3 v=126
11616 On ch=1 n=c4 v=0
11616 On ch=1 n=c3 v=0
11616 On ch=1 n=f3 v=127
11616 On ch=1 n=f2 v=127
11616 On ch=1 n=f4 v=127
11808 On ch=1 n=f3 v=0
11808 On ch=1 n=f2 v=0
11808 On ch=1 n=f4 v=0
11904 On ch=1 n=f5 v=0
11904 On ch=1 n=f4 v=0
11904 On ch=1 n=f6 v=0
11904 On ch=1 n=f7 v=0
11904 Meta TrkEnd
TrkEnd
