MFile 1 11 480
MTrk
0 TimeSig 4/4 96 8
0 Tempo 400000
90030 Tempo 428571
132620 Tempo 375000
157440 Tempo 444444
199655 Tempo 405405
239355 Tempo 413793
251195 Tempo 480000
254645 Tempo 413793
281430 Tempo 461538
342075 Tempo 600000
401375 Tempo 545454
407625 Tempo 444444
412800 Tempo 444444
413290 Tempo 441176
413780 Tempo 437956
414270 Tempo 434782
414760 Tempo 431654
415250 Tempo 428571
415740 Tempo 425531
416230 Tempo 422535
416720 Tempo 419580
417210 Tempo 416666
417700 Tempo 413793
417700 Meta TrkEnd
TrkEnd
MTrk
0 SeqSpec 43 00 01 00
0 KeySig -1 minor
480 Par ch=1 c=64 v=40
495 Par ch=1 c=64 v=72
510 Par ch=1 c=64 v=104
525 Par ch=1 c=64 v=127
580 Par ch=1 c=64 v=104
695 Par ch=1 c=64 v=72
710 Par ch=1 c=64 v=24
725 Par ch=1 c=64 v=0
820 On ch=1 n=c#5 v=45
825 Par ch=1 c=64 v=72
845 On ch=1 n=c#5 v=0
845 Par ch=1 c=64 v=127
865 On ch=1 n=g5 v=52
875 On ch=1 n=g6 v=65
880 On ch=1 n=a#5 v=62
900 On ch=1 n=c#7 v=65
925 On ch=1 n=e6 v=66
930 On ch=1 n=g6 v=0
930 On ch=1 n=e7 v=72
935 On ch=1 n=g5 v=0
960 On ch=1 n=c#7 v=0
970 On ch=1 n=e6 v=0
970 On ch=1 n=a#5 v=0
970 On ch=1 n=a#7 v=95
995 On ch=1 n=e7 v=0
1020 On ch=1 n=a#7 v=0
1715 Par ch=1 c=64 v=104
1725 On ch=1 n=g#4 v=57
1730 Par ch=1 c=64 v=0
1760 On ch=1 n=d5 v=60
1785 On ch=1 n=f5 v=62
1785 Par ch=1 c=64 v=56
1790 On ch=1 n=g#4 v=0
1790 On ch=1 n=d6 v=58
1800 Par ch=1 c=64 v=127
1825 On ch=1 n=d5 v=0
1825 On ch=1 n=b5 v=61
1825 On ch=1 n=g#6 v=62
1855 On ch=1 n=d6 v=0
1860 On ch=1 n=f5 v=0
1865 On ch=1 n=b5 v=0
1875 On ch=1 n=b6 v=69
1895 On ch=1 n=g#6 v=0
1955 On ch=1 n=b6 v=0
1995 On ch=1 n=f7 v=97
2050 On ch=1 n=f7 v=0
2630 Par ch=1 c=64 v=88
2645 Par ch=1 c=64 v=0
2670 On ch=1 n=d#4 v=60
2705 On ch=1 n=a5 v=62
2725 On ch=1 n=a4 v=41
2730 On ch=1 n=c5 v=41
2730 Par ch=1 c=64 v=127
2735 On ch=1 n=d#4 v=0
2750 On ch=1 n=d#6 v=64
2780 On ch=1 n=f#6 v=71
2785 On ch=1 n=a5 v=0
2790 On ch=1 n=f#5 v=43
2825 On ch=1 n=d#6 v=0
2825 On ch=1 n=a4 v=0
2845 On ch=1 n=f#5 v=0
2845 On ch=1 n=c5 v=0
2855 On ch=1 n=f#6 v=0
2855 On ch=1 n=c7 v=96
2895 On ch=1 n=c7 v=0
3240 On ch=1 n=a#3 v=52
3265 Par ch=1 c=64 v=88
3285 Par ch=1 c=64 v=24
3290 On ch=1 n=c5 v=68
3300 On ch=1 n=a#3 v=0
3300 On ch=1 n=e5 v=55
3300 Par ch=1 c=64 v=0
3310 On ch=1 n=e4 v=48
3315 Par ch=1 c=64 v=40
3330 Par ch=1 c=64 v=104
3335 On ch=1 n=g4 v=43
3340 Par ch=1 c=64 v=127
3350 On ch=1 n=a#5 v=55
3355 On ch=1 n=c#6 v=73
3365 On ch=1 n=c5 v=0
3370 On ch=1 n=e5 v=0
3375 On ch=1 n=c#5 v=46
3390 On ch=1 n=e4 v=0
3395 On ch=1 n=a#5 v=0
3410 On ch=1 n=c#5 v=0
3410 On ch=1 n=g4 v=0
3410 On ch=1 n=g6 v=97
3425 On ch=1 n=c#6 v=0
3455 On ch=1 n=g6 v=0
3745 On ch=1 n=f3 v=62
3765 Par ch=1 c=64 v=88
3770 On ch=1 n=b4 v=55
3775 Par ch=1 c=64 v=24
3800 On ch=1 n=f3 v=0
3805 On ch=1 n=d4 v=51
3805 On ch=1 n=b3 v=45
3805 Par ch=1 c=64 v=72
3820 Par ch=1 c=64 v=127
3825 On ch=1 n=f5 v=62
3845 On ch=1 n=g#5 v=70
3850 On ch=1 n=b4 v=0
3870 On ch=1 n=g#4 v=48
3880 On ch=1 n=b3 v=0
3890 On ch=1 n=f5 v=0
3905 On ch=1 n=d4 v=0
3905 On ch=1 n=d6 v=97
3915 On ch=1 n=g#5 v=0
3920 On ch=1 n=g#4 v=0
3945 On ch=1 n=d6 v=0
4285 On ch=1 n=c3 v=64
4315 Par ch=1 c=64 v=88
4325 On ch=1 n=f#4 v=67
4330 Par ch=1 c=64 v=40
4335 On ch=1 n=f#3 v=56
4340 On ch=1 n=c3 v=0
4340 On ch=1 n=a3 v=58
4345 Par ch=1 c=64 v=88
4360 Par ch=1 c=64 v=127
4380 On ch=1 n=c5 v=62
4385 On ch=1 n=f#4 v=0
4390 On ch=1 n=d#5 v=71
4395 On ch=1 n=d#4 v=58
4410 On ch=1 n=f#3 v=0
4430 On ch=1 n=a3 v=0
4435 On ch=1 n=d#4 v=0
4435 On ch=1 n=c5 v=0
4455 On ch=1 n=a5 v=97
4470 On ch=1 n=d#5 v=0
4500 On ch=1 n=a5 v=0
4790 On ch=1 n=c#3 v=61
4810 Par ch=1 c=64 v=104
4825 Par ch=1 c=64 v=24
4830 On ch=1 n=a#3 v=42
4830 On ch=1 n=g3 v=50
4840 Par ch=1 c=64 v=0
4850 Par ch=1 c=64 v=56
4855 On ch=1 n=g4 v=62
4860 On ch=1 n=c#3 v=0
4865 Par ch=1 c=64 v=127
4910 On ch=1 n=e4 v=62
4910 On ch=1 n=c#5 v=52
4915 On ch=1 n=g3 v=0
4925 On ch=1 n=e5 v=69
4935 On ch=1 n=g4 v=0
4960 On ch=1 n=c#5 v=0
4960 On ch=1 n=e4 v=0
4960 On ch=1 n=a#3 v=0
4975 On ch=1 n=a#5 v=95
4985 On ch=1 n=e5 v=0
5020 On ch=1 n=a#5 v=0
5325 On ch=1 n=d3 v=64
5365 On ch=1 n=g#3 v=52
5370 On ch=1 n=b3 v=55
5375 Par ch=1 c=64 v=56
5385 On ch=1 n=d3 v=0
5390 Par ch=1 c=64 v=0
5430 On ch=1 n=g#4 v=60
5445 On ch=1 n=f4 v=63
5450 Par ch=1 c=64 v=88
5460 On ch=1 n=g#3 v=0
5460 Par ch=1 c=64 v=127
5475 On ch=1 n=b3 v=0
5475 On ch=1 n=b4 v=68
5495 On ch=1 n=f4 v=0
5505 On ch=1 n=g#4 v=0
5520 On ch=1 n=f5 v=95
5530 On ch=1 n=b4 v=0
5565 On ch=1 n=f5 v=0
5905 On ch=1 n=a#2 v=64
5925 Par ch=1 c=64 v=88
5940 On ch=1 n=f3 v=36
5940 Par ch=1 c=64 v=0
5960 On ch=1 n=g#3 v=50
5975 On ch=1 n=a#2 v=0
5990 On ch=1 n=f4 v=73
6000 Par ch=1 c=64 v=88
6015 On ch=1 n=g#4 v=67
6015 Par ch=1 c=64 v=127
6020 On ch=1 n=d4 v=69
6035 On ch=1 n=f3 v=0
6050 On ch=1 n=f4 v=0
6060 On ch=1 n=g#3 v=0
6060 On ch=1 n=d5 v=90
6070 On ch=1 n=d4 v=0
6085 On ch=1 n=g#4 v=0
6115 On ch=1 n=d5 v=0
6435 Par ch=1 c=64 v=24
6445 On ch=1 n=a2 v=73
6450 Par ch=1 c=64 v=0
6455 On ch=1 n=d3 v=68
6470 On ch=1 n=f3 v=62
6505 Par ch=1 c=64 v=56
6510 On ch=1 n=a2 v=0
6510 On ch=1 n=a4 v=71
6520 On ch=1 n=a3 v=77
6525 Par ch=1 c=64 v=127
6540 On ch=1 n=d3 v=0
6540 On ch=1 n=d5 v=66
6550 On ch=1 n=f3 v=0
6560 On ch=1 n=a3 v=0
6560 On ch=1 n=f5 v=75
6590 On ch=1 n=a4 v=0
6615 On ch=1 n=d5 v=0
6620 On ch=1 n=a5 v=102
6640 On ch=1 n=f5 v=0
6665 On ch=1 n=a5 v=0
7395 Par ch=1 c=64 v=56
7410 Par ch=1 c=64 v=0
7570 On ch=1 n=a6 v=102
7570 Par ch=1 c=64 v=127
7580 On ch=1 n=f6 v=86
7580 On ch=1 n=a5 v=84
7585 On ch=1 n=d6 v=77
7590 On ch=1 n=f4 v=79
7590 On ch=1 n=a3 v=75
7590 On ch=1 n=a4 v=81
7595 On ch=1 n=d4 v=73
7610 On ch=1 n=d6 v=0
7615 On ch=1 n=a3 v=0
7625 On ch=1 n=a5 v=0
7630 On ch=1 n=f6 v=0
7635 On ch=1 n=d4 v=0
7640 On ch=1 n=a4 v=0
7645 On ch=1 n=f4 v=0
7675 On ch=1 n=a6 v=0
8365 Par ch=1 c=64 v=56
8380 Par ch=1 c=64 v=0
8600 On ch=1 n=a7 v=112
8605 On ch=1 n=c#5 v=61
8610 On ch=1 n=e7 v=92
8610 On ch=1 n=a6 v=89
8610 On ch=1 n=g6 v=87
8610 On ch=1 n=c#7 v=78
8610 On ch=1 n=a5 v=89
8615 On ch=1 n=e5 v=81
8615 Par ch=1 c=64 v=127
8620 On ch=1 n=a4 v=70
8640 On ch=1 n=a4 v=0
8655 On ch=1 n=a5 v=0
8655 On ch=1 n=c#7 v=0
8660 On ch=1 n=e5 v=0
8660 On ch=1 n=g6 v=0
8660 On ch=1 n=e7 v=0
8660 On ch=1 n=c#5 v=0
8670 On ch=1 n=a6 v=0
8695 On ch=1 n=a7 v=0
10570 On ch=1 n=a3 v=33
10585 Par ch=1 c=67 v=127
10600 On ch=1 n=a2 v=24
10600 Par ch=1 c=64 v=24
10610 Par ch=1 c=64 v=56
10625 Par ch=1 c=64 v=72
10650 Par ch=1 c=64 v=88
10665 Par ch=1 c=64 v=104
10740 On ch=1 n=a3 v=0
10760 On ch=1 n=a2 v=0
10765 On ch=1 n=a#2 v=43
10770 On ch=1 n=a#3 v=42
10870 On ch=1 n=a#3 v=0
10875 On ch=1 n=a#2 v=0
10895 Par ch=1 c=64 v=88
10910 On ch=1 n=c#4 v=45
10920 On ch=1 n=c#3 v=27
11020 On ch=1 n=c#4 v=0
11025 On ch=1 n=c#3 v=0
11070 On ch=1 n=f3 v=39
11075 On ch=1 n=f4 v=49
11145 On ch=1 n=f4 v=0
11165 On ch=1 n=f3 v=0
11215 On ch=1 n=e4 v=49
11225 On ch=1 n=e3 v=30
11290 On ch=1 n=e3 v=0
11325 On ch=1 n=e4 v=0
11365 On ch=1 n=d3 v=36
11480 On ch=1 n=d3 v=0
11495 On ch=1 n=c#4 v=47
11510 On ch=1 n=c#3 v=39
11590 On ch=1 n=c#4 v=0
11615 On ch=1 n=c#3 v=0
11630 On ch=1 n=a#3 v=44
11635 On ch=1 n=a#2 v=39
11735 On ch=1 n=a#2 v=0
11745 On ch=1 n=a#3 v=0
11760 Par ch=1 c=64 v=24
11775 Par ch=1 c=64 v=0
11785 On ch=1 n=a3 v=47
11785 On ch=1 n=a2 v=42
11870 On ch=1 n=a3 v=0
11895 On ch=1 n=a2 v=0
11900 On ch=1 n=a#3 v=49
11905 On ch=1 n=a#2 v=46
11905 Par ch=1 c=64 v=40
11915 Par ch=1 c=64 v=72
11930 Par ch=1 c=64 v=88
11980 Par ch=1 c=64 v=104
12015 On ch=1 n=a#2 v=0
12015 On ch=1 n=a#3 v=0
12030 On ch=1 n=c#3 v=39
12030 On ch=1 n=c#4 v=54
12110 On ch=1 n=c#4 v=0
12120 Par ch=1 c=64 v=88
12125 On ch=1 n=c#3 v=0
12155 On ch=1 n=d4 v=63
12160 On ch=1 n=d3 v=45
12230 On ch=1 n=d3 v=0
12240 On ch=1 n=d4 v=0
12285 On ch=1 n=e4 v=62
12285 On ch=1 n=e3 v=44
12385 On ch=1 n=e4 v=0
12390 On ch=1 n=e3 v=0
12405 On ch=1 n=f4 v=66
12420 On ch=1 n=f3 v=41
12490 On ch=1 n=f4 v=0
12500 On ch=1 n=f3 v=0
12525 Par ch=1 c=64 v=24
12535 Par ch=1 c=64 v=0
12545 On ch=1 n=a#3 v=55
12550 On ch=1 n=a#4 v=64
12640 Par ch=1 c=64 v=24
12650 On ch=1 n=a#3 v=0
12650 Par ch=1 c=64 v=56
12660 On ch=1 n=a#4 v=0
12665 Par ch=1 c=64 v=72
12685 On ch=1 n=a4 v=63
12690 On ch=1 n=a3 v=56
12770 On ch=1 n=a4 v=0
12805 On ch=1 n=a3 v=0
12820 On ch=1 n=g4 v=62
12830 On ch=1 n=g3 v=53
12895 On ch=1 n=g4 v=0
12935 On ch=1 n=f4 v=70
12955 On ch=1 n=f3 v=49
12975 On ch=1 n=g3 v=0
13015 Par ch=1 c=67 v=0
13020 On ch=1 n=f3 v=0
13035 On ch=1 n=f4 v=0
13065 On ch=1 n=e4 v=63
13070 On ch=1 n=e3 v=44
13150 On ch=1 n=e4 v=0
13170 On ch=1 n=e3 v=0
13180 On ch=1 n=d4 v=66
13185 On ch=1 n=d3 v=58
13285 On ch=1 n=d4 v=0
13310 On ch=1 n=d3 v=0
13310 Par ch=1 c=64 v=24
13320 On ch=1 n=c#3 v=52
13320 Par ch=1 c=64 v=0
13330 On ch=1 n=c#4 v=53
13430 On ch=1 n=c#4 v=0
13450 On ch=1 n=c#3 v=0
13460 On ch=1 n=d4 v=68
13470 On ch=1 n=d3 v=51
13480 Par ch=1 c=64 v=24
13490 Par ch=1 c=64 v=40
13505 Par ch=1 c=64 v=56
13540 On ch=1 n=d4 v=0
13555 Par ch=1 c=64 v=72
13565 On ch=1 n=d3 v=0
13575 On ch=1 n=e4 v=68
13595 On ch=1 n=e3 v=58
13620 Par ch=1 c=64 v=88
13680 On ch=1 n=e4 v=0
13695 On ch=1 n=e3 v=0
13700 On ch=1 n=f3 v=62
13700 On ch=1 n=f4 v=81
13780 On ch=1 n=f4 v=0
13805 On ch=1 n=f3 v=0
13820 On ch=1 n=g4 v=76
13820 On ch=1 n=g3 v=59
13880 On ch=1 n=g3 v=0
13915 On ch=1 n=g4 v=0
13920 On ch=1 n=a3 v=46
13940 On ch=1 n=a4 v=75
14030 On ch=1 n=a#3 v=56
14035 On ch=1 n=a4 v=0
14035 On ch=1 n=a3 v=0
14050 On ch=1 n=a#4 v=72
14135 On ch=1 n=a#3 v=0
14145 On ch=1 n=a#4 v=0
14160 On ch=1 n=c#4 v=60
14165 On ch=1 n=c#5 v=77
14275 On ch=1 n=c#5 v=0
14275 On ch=1 n=c#4 v=0
14300 On ch=1 n=f4 v=70
14305 On ch=1 n=f5 v=73
14320 Par ch=1 c=64 v=24
14330 Par ch=1 c=64 v=0
14410 On ch=1 n=f4 v=0
14425 On ch=1 n=e4 v=64
14440 On ch=1 n=e5 v=77
14445 Par ch=1 c=64 v=24
14460 On ch=1 n=f5 v=0
14460 Par ch=1 c=64 v=56
14470 Par ch=1 c=64 v=88
14485 Par ch=1 c=64 v=104
14510 On ch=1 n=e4 v=0
14550 On ch=1 n=e5 v=0
14555 On ch=1 n=d5 v=65
14560 On ch=1 n=d4 v=56
14630 On ch=1 n=d5 v=0
14640 On ch=1 n=d4 v=0
14675 On ch=1 n=c#5 v=46
14680 On ch=1 n=c#4 v=56
14690 Par ch=1 c=64 v=88
14750 On ch=1 n=c#4 v=0
14765 On ch=1 n=c#5 v=0
14790 On ch=1 n=a#3 v=54
14795 On ch=1 n=a#4 v=53
14890 On ch=1 n=a#3 v=0
14905 On ch=1 n=a#4 v=0
14925 Par ch=1 c=64 v=40
14935 On ch=1 n=a3 v=56
14940 On ch=1 n=a4 v=48
14940 Par ch=1 c=64 v=0
15040 On ch=1 n=a4 v=0
15040 On ch=1 n=a#4 v=54
15045 On ch=1 n=a3 v=0
15045 On ch=1 n=a#3 v=58
15065 Par ch=1 c=64 v=40
15080 Par ch=1 c=64 v=72
15090 Par ch=1 c=64 v=88
15140 Par ch=1 c=64 v=104
15160 On ch=1 n=a#4 v=0
15165 On ch=1 n=c#5 v=58
15165 On ch=1 n=c#4 v=55
15175 On ch=1 n=a#3 v=0
15230 On ch=1 n=c#5 v=0
15260 On ch=1 n=c#4 v=0
15270 On ch=1 n=d5 v=78
15280 On ch=1 n=d4 v=68
15320 Par ch=1 c=64 v=88
15365 On ch=1 n=d4 v=0
15365 On ch=1 n=d5 v=0
15380 On ch=1 n=e5 v=82
15390 On ch=1 n=e4 v=62
15470 On ch=1 n=e5 v=0
15490 On ch=1 n=f5 v=80
15495 On ch=1 n=e4 v=0
15505 On ch=1 n=f4 v=69
15545 Par ch=1 c=64 v=104
15575 On ch=1 n=f4 v=0
15575 On ch=1 n=f5 v=0
15610 Par ch=1 c=64 v=88
15615 On ch=1 n=a#5 v=85
15615 On ch=1 n=a#4 v=75
15620 Par ch=1 c=64 v=56
15630 Par ch=1 c=64 v=0
15705 On ch=1 n=a#4 v=0
15705 On ch=1 n=a#5 v=0
15730 On ch=1 n=a4 v=48
15735 Par ch=1 c=64 v=56
15740 On ch=1 n=a5 v=76
15750 Par ch=1 c=64 v=88
15760 Par ch=1 c=64 v=104
15835 On ch=1 n=a5 v=0
15855 On ch=1 n=g5 v=74
15860 On ch=1 n=a4 v=0
15860 On ch=1 n=g4 v=56
15930 Par ch=1 c=64 v=88
15940 On ch=1 n=g5 v=0
15960 On ch=1 n=f5 v=71
15980 On ch=1 n=f4 v=58
15990 On ch=1 n=g4 v=0
16035 On ch=1 n=f4 v=0
16050 On ch=1 n=f5 v=0
16075 On ch=1 n=e5 v=69
16085 On ch=1 n=e4 v=62
16155 On ch=1 n=e5 v=0
16180 On ch=1 n=d5 v=69
16185 On ch=1 n=e4 v=0
16190 On ch=1 n=d4 v=66
16260 On ch=1 n=d5 v=0
16290 On ch=1 n=d4 v=0
16305 On ch=1 n=c#5 v=59
16305 Par ch=1 c=64 v=24
16310 On ch=1 n=c#4 v=56
16320 Par ch=1 c=64 v=0
16390 On ch=1 n=c#5 v=0
16415 On ch=1 n=c#4 v=0
16415 On ch=1 n=d5 v=68
16440 On ch=1 n=d4 v=62
16460 Par ch=1 c=64 v=40
16475 Par ch=1 c=64 v=56
16505 On ch=1 n=d5 v=0
16515 On ch=1 n=d4 v=0
16525 On ch=1 n=e5 v=72
16535 Par ch=1 c=64 v=72
16555 On ch=1 n=e4 v=56
16620 On ch=1 n=e5 v=0
16630 On ch=1 n=f5 v=82
16645 On ch=1 n=f4 v=64
16655 On ch=1 n=e4 v=0
16695 On ch=1 n=f5 v=0
16730 On ch=1 n=g5 v=79
16735 On ch=1 n=f4 v=0
16750 On ch=1 n=g4 v=64
16810 On ch=1 n=g4 v=0
16845 On ch=1 n=g5 v=0
16845 On ch=1 n=a5 v=82
16845 On ch=1 n=a4 v=59
16910 Par ch=1 c=64 v=88
16925 On ch=1 n=a5 v=0
16935 On ch=1 n=a#4 v=50
16945 On ch=1 n=a4 v=0
16945 On ch=1 n=a#5 v=77
16975 Par ch=1 c=64 v=104
17030 On ch=1 n=a#5 v=0
17035 On ch=1 n=a#4 v=0
17045 On ch=1 n=c#5 v=64
17050 On ch=1 n=c#6 v=82
17140 On ch=1 n=c#6 v=0
17140 On ch=1 n=c#5 v=0
17155 Par ch=1 c=64 v=40
17160 On ch=1 n=f5 v=66
17170 Par ch=1 c=64 v=0
17175 On ch=1 n=f6 v=82
17260 On ch=1 n=f5 v=0
17270 Par ch=1 c=64 v=24
17280 On ch=1 n=f6 v=0
17285 Par ch=1 c=64 v=56
17290 On ch=1 n=e6 v=79
17290 On ch=1 n=e5 v=62
17300 Par ch=1 c=64 v=88
17325 Par ch=1 c=64 v=104
17355 On ch=1 n=e5 v=0
17390 On ch=1 n=e6 v=0
17395 On ch=1 n=d6 v=68
17395 On ch=1 n=d5 v=56
17460 On ch=1 n=d6 v=0
17480 On ch=1 n=d5 v=0
17500 On ch=1 n=c#5 v=57
17500 On ch=1 n=c#6 v=50
17570 On ch=1 n=c#6 v=0
17595 On ch=1 n=c#5 v=0
17600 On ch=1 n=a#5 v=65
17610 On ch=1 n=a#4 v=51
17635 Par ch=1 c=64 v=88
17685 On ch=1 n=a#5 v=0
17695 On ch=1 n=a#4 v=0
17695 Par ch=1 c=64 v=56
17710 On ch=1 n=a5 v=65
17710 Par ch=1 c=64 v=0
17730 On ch=1 n=a4 v=51
17800 On ch=1 n=a#5 v=68
17805 On ch=1 n=a5 v=0
17830 On ch=1 n=a#4 v=57
17830 Par ch=1 c=64 v=40
17840 On ch=1 n=a4 v=0
17840 Par ch=1 c=64 v=72
17855 Par ch=1 c=64 v=88
17905 On ch=1 n=a#5 v=0
17905 Par ch=1 c=64 v=104
17915 On ch=1 n=c#6 v=72
17940 On ch=1 n=c#5 v=53
17970 On ch=1 n=a#4 v=0
17985 On ch=1 n=c#6 v=0
18010 On ch=1 n=d6 v=83
18020 On ch=1 n=c#5 v=0
18020 Par ch=1 c=64 v=88
18040 On ch=1 n=d5 v=68
18115 On ch=1 n=d5 v=0
18115 On ch=1 n=d6 v=0
18120 On ch=1 n=e6 v=83
18125 On ch=1 n=d#5 v=47
18125 Par ch=1 c=64 v=72
18145 On ch=1 n=e5 v=70
18150 On ch=1 n=d#5 v=0
18205 On ch=1 n=e6 v=0
18215 On ch=1 n=e5 v=0
18215 On ch=1 n=f6 v=87
18230 On ch=1 n=f5 v=69
18230 Par ch=1 c=64 v=88
18270 Par ch=1 c=64 v=104
18290 On ch=1 n=f6 v=0
18295 On ch=1 n=f5 v=0
18305 Par ch=1 c=64 v=40
18320 Par ch=1 c=64 v=0
18330 On ch=1 n=a#5 v=73
18335 On ch=1 n=a#6 v=79
18385 Par ch=1 c=64 v=40
18395 Par ch=1 c=64 v=88
18405 On ch=1 n=a#5 v=0
18410 On ch=1 n=a#6 v=0
18410 Par ch=1 c=64 v=127
18430 On ch=1 n=a5 v=64
18445 On ch=1 n=a6 v=82
18530 On ch=1 n=a6 v=0
18540 Par ch=1 c=64 v=104
18550 On ch=1 n=g6 v=87
18550 On ch=1 n=g5 v=58
18560 On ch=1 n=a5 v=0
18630 On ch=1 n=g6 v=0
18650 On ch=1 n=f6 v=85
18665 On ch=1 n=f5 v=57
18680 On ch=1 n=g5 v=0
18725 On ch=1 n=f5 v=0
18740 On ch=1 n=f6 v=0
18760 On ch=1 n=e6 v=77
18760 On ch=1 n=e5 v=64
18770 Par ch=1 c=64 v=88
18840 On ch=1 n=e6 v=0
18855 On ch=1 n=e5 v=0
18855 On ch=1 n=d5 v=68
18860 On ch=1 n=d6 v=78
18930 On ch=1 n=d6 v=0
18960 On ch=1 n=d5 v=0
18965 On ch=1 n=c#5 v=63
18965 Par ch=1 c=64 v=24
18970 On ch=1 n=c#6 v=72
18975 Par ch=1 c=64 v=0
19055 On ch=1 n=c#6 v=0
19065 Par ch=1 c=64 v=24
19075 On ch=1 n=d6 v=74
19080 Par ch=1 c=64 v=56
19090 On ch=1 n=c#5 v=0
19095 On ch=1 n=d5 v=73
19095 Par ch=1 c=64 v=88
19110 Par ch=1 c=64 v=104
19120 Par ch=1 c=64 v=127
19170 On ch=1 n=e6 v=82
19175 On ch=1 n=d5 v=0
19175 On ch=1 n=d6 v=0
19195 On ch=1 n=e5 v=66
19280 On ch=1 n=e6 v=0
19280 On ch=1 n=f6 v=90
19295 On ch=1 n=f5 v=70
19310 On ch=1 n=e5 v=0
19340 On ch=1 n=f6 v=0
19340 Par ch=1 c=64 v=104
19375 On ch=1 n=g6 v=85
19380 On ch=1 n=f5 v=0
19395 On ch=1 n=g5 v=66
19470 On ch=1 n=g5 v=0
19480 On ch=1 n=g6 v=0
19485 On ch=1 n=a6 v=83
19490 On ch=1 n=a5 v=64
19575 On ch=1 n=a6 v=0
19585 On ch=1 n=a#6 v=81
19590 On ch=1 n=a5 v=0
19590 On ch=1 n=a#5 v=64
19670 On ch=1 n=a#6 v=0
19675 On ch=1 n=a#5 v=0
19685 On ch=1 n=c#7 v=86
19690 On ch=1 n=c#6 v=73
19740 Par ch=1 c=64 v=127
19765 On ch=1 n=c#7 v=0
19780 On ch=1 n=c#6 v=0
19780 Par ch=1 c=64 v=104
19790 Par ch=1 c=64 v=40
19795 On ch=1 n=f7 v=92
19795 On ch=1 n=f6 v=82
19805 Par ch=1 c=64 v=0
19870 Par ch=1 c=64 v=40
19880 Par ch=1 c=64 v=88
19885 On ch=1 n=f6 v=0
19895 Par ch=1 c=64 v=127
19900 On ch=1 n=f7 v=0
19900 On ch=1 n=e7 v=86
19905 On ch=1 n=e6 v=68
19955 On ch=1 n=e6 v=0
19990 On ch=1 n=e7 v=0
20000 On ch=1 n=d7 v=66
20005 On ch=1 n=d6 v=55
20060 On ch=1 n=d7 v=0
20075 On ch=1 n=d6 v=0
20095 On ch=1 n=c#7 v=49
20100 On ch=1 n=c#6 v=57
20150 On ch=1 n=c#7 v=0
20185 On ch=1 n=a#6 v=65
20190 On ch=1 n=c#6 v=0
20195 On ch=1 n=a#5 v=56
20270 Par ch=1 c=64 v=104
20275 On ch=1 n=a#6 v=0
20285 On ch=1 n=a#5 v=0
20285 On ch=1 n=a6 v=85
20285 Par ch=1 c=64 v=24
20295 Par ch=1 c=64 v=0
20300 On ch=1 n=a5 v=74
20360 Par ch=1 c=64 v=56
20370 Par ch=1 c=64 v=127
20375 On ch=1 n=a#6 v=83
20390 On ch=1 n=a#5 v=64
20400 On ch=1 n=a6 v=0
20410 On ch=1 n=a5 v=0
20485 On ch=1 n=c#7 v=77
20490 On ch=1 n=a#6 v=0
20495 On ch=1 n=c#6 v=65
20500 On ch=1 n=a#5 v=0
20540 On ch=1 n=c#7 v=0
20570 On ch=1 n=c#6 v=0
20580 On ch=1 n=d7 v=92
20590 On ch=1 n=d6 v=55
20590 On ch=1 n=e6 v=50
20620 On ch=1 n=e6 v=0
20640 On ch=1 n=d6 v=0
20655 On ch=1 n=d7 v=0
20685 On ch=1 n=e7 v=92
20690 On ch=1 n=e6 v=74
20775 On ch=1 n=e6 v=0
20780 On ch=1 n=e7 v=0
20780 On ch=1 n=f7 v=93
20785 On ch=1 n=f6 v=75
20845 On ch=1 n=f7 v=0
20870 On ch=1 n=f6 v=0
20880 On ch=1 n=g7 v=88
20885 On ch=1 n=g6 v=74
20985 On ch=1 n=a7 v=93
20990 On ch=1 n=g6 v=0
20995 On ch=1 n=a6 v=70
21000 On ch=1 n=g7 v=0
21075 On ch=1 n=a7 v=0
21090 On ch=1 n=a6 v=0
21095 On ch=1 n=a#7 v=81
21100 On ch=1 n=a#6 v=72
21190 On ch=1 n=a#7 v=0
21195 On ch=1 n=a#6 v=0
21200 On ch=1 n=c#8 v=88
21210 On ch=1 n=c#7 v=79
21285 On ch=1 n=c#8 v=0
21305 On ch=1 n=c#7 v=0
21330 On ch=1 n=f8 v=87
21330 On ch=1 n=f7 v=90
21340 Par ch=1 c=64 v=88
21355 Par ch=1 c=64 v=40
21365 Par ch=1 c=64 v=0
21405 Par ch=1 c=64 v=88
21415 Par ch=1 c=64 v=127
21440 On ch=1 n=f7 v=0
21455 On ch=1 n=f8 v=0
21455 On ch=1 n=e8 v=90
21465 On ch=1 n=e7 v=82
21535 On ch=1 n=e7 v=0
21545 On ch=1 n=e8 v=0
21565 On ch=1 n=d8 v=70
21565 On ch=1 n=d7 v=66
21585 On ch=1 n=c8 v=55
21625 On ch=1 n=d8 v=0
21635 On ch=1 n=c8 v=0
21645 On ch=1 n=d7 v=0
21665 On ch=1 n=c#8 v=75
21670 On ch=1 n=c#7 v=74
21690 On ch=1 n=c8 v=55
21715 On ch=1 n=c#8 v=0
21730 On ch=1 n=c8 v=0
21750 On ch=1 n=c#7 v=0
21765 On ch=1 n=a#7 v=77
21770 On ch=1 n=a#6 v=64
21855 On ch=1 n=a#6 v=0
21855 On ch=1 n=a#7 v=0
21865 On ch=1 n=a7 v=89
21870 On ch=1 n=a6 v=74
21955 On ch=1 n=a7 v=0
21960 On ch=1 n=a6 v=0
21970 On ch=1 n=g6 v=66
21975 On ch=1 n=g7 v=80
22050 On ch=1 n=g7 v=0
22060 On ch=1 n=g6 v=0
22065 On ch=1 n=f7 v=74
22065 On ch=1 n=f6 v=61
22170 On ch=1 n=f7 v=0
22170 On ch=1 n=e7 v=85
22175 On ch=1 n=e6 v=70
22180 On ch=1 n=f6 v=0
22230 On ch=1 n=e6 v=0
22270 On ch=1 n=e7 v=0
22275 On ch=1 n=d7 v=82
22275 On ch=1 n=d6 v=69
22350 On ch=1 n=d7 v=0
22370 On ch=1 n=c#7 v=80
22375 On ch=1 n=d6 v=0
22375 Par ch=1 c=64 v=104
22380 On ch=1 n=c#6 v=77
22385 Par ch=1 c=64 v=88
22400 Par ch=1 c=64 v=72
22450 Par ch=1 c=64 v=56
22480 On ch=1 n=a#6 v=79
22480 On ch=1 n=a#5 v=62
22485 On ch=1 n=c#6 v=0
22485 On ch=1 n=c#7 v=0
22580 On ch=1 n=a#5 v=0
22585 On ch=1 n=a6 v=84
22585 On ch=1 n=a5 v=74
22595 On ch=1 n=a#6 v=0
22685 On ch=1 n=a6 v=0
22685 On ch=1 n=g6 v=82
22685 On ch=1 n=g5 v=74
22690 On ch=1 n=a5 v=0
22770 On ch=1 n=g6 v=0
22790 On ch=1 n=f5 v=65
22790 On ch=1 n=g6 v=38
22795 On ch=1 n=g5 v=0
22795 On ch=1 n=f6 v=94
22820 On ch=1 n=g6 v=0
22905 On ch=1 n=e6 v=88
22910 On ch=1 n=e5 v=66
22915 On ch=1 n=f6 v=0
22935 On ch=1 n=f5 v=0
22980 On ch=1 n=e5 v=0
23005 On ch=1 n=e6 v=0
23005 On ch=1 n=d5 v=66
23010 On ch=1 n=d6 v=87
23100 On ch=1 n=d6 v=0
23105 On ch=1 n=c#6 v=88
23105 On ch=1 n=c#5 v=70
23125 On ch=1 n=d5 v=0
23175 Par ch=1 c=64 v=40
23205 On ch=1 n=a#4 v=63
23205 On ch=1 n=a#5 v=80
23210 On ch=1 n=c#5 v=0
23215 Par ch=1 c=64 v=24
23220 On ch=1 n=c#6 v=0
23255 Par ch=1 c=64 v=0
23295 On ch=1 n=a#4 v=0
23300 On ch=1 n=a5 v=89
23305 On ch=1 n=a4 v=76
23315 On ch=1 n=a#5 v=0
23400 On ch=1 n=a5 v=0
23400 On ch=1 n=g4 v=79
23400 On ch=1 n=g5 v=84
23405 On ch=1 n=a4 v=0
23490 On ch=1 n=f5 v=85
23495 On ch=1 n=f4 v=73
23505 On ch=1 n=g4 v=0
23510 On ch=1 n=g5 v=0
23590 On ch=1 n=e5 v=85
23595 On ch=1 n=e4 v=67
23600 On ch=1 n=f5 v=0
23610 On ch=1 n=f4 v=0
23660 On ch=1 n=e4 v=0
23690 On ch=1 n=e5 v=0
23690 On ch=1 n=d5 v=86
23690 On ch=1 n=d4 v=75
23780 On ch=1 n=c#5 v=86
23790 On ch=1 n=c#4 v=77
23795 On ch=1 n=d4 v=0
23795 Par ch=1 c=64 v=24
23800 On ch=1 n=d5 v=0
23870 Par ch=1 c=64 v=40
23885 On ch=1 n=a#4 v=79
23890 On ch=1 n=c#4 v=0
23890 On ch=1 n=a#3 v=71
23910 On ch=1 n=c#5 v=0
23980 On ch=1 n=a#3 v=0
23980 On ch=1 n=a4 v=83
23990 On ch=1 n=a#4 v=0
23990 On ch=1 n=a3 v=82
24080 On ch=1 n=a3 v=0
24080 On ch=1 n=g4 v=85
24085 On ch=1 n=a4 v=0
24085 On ch=1 n=g3 v=70
24180 On ch=1 n=f4 v=90
24180 On ch=1 n=f3 v=64
24195 On ch=1 n=g3 v=0
24195 On ch=1 n=g4 v=0
24275 On ch=1 n=f4 v=0
24280 On ch=1 n=e4 v=86
24280 On ch=1 n=e3 v=60
24295 On ch=1 n=f3 v=0
24335 On ch=1 n=e3 v=0
24335 Par ch=1 c=64 v=56
24375 On ch=1 n=d3 v=70
24375 Par ch=1 c=64 v=72
24380 On ch=1 n=e4 v=0
24380 On ch=1 n=d4 v=86
24475 On ch=1 n=d3 v=0
24475 On ch=1 n=c#3 v=67
24480 On ch=1 n=d4 v=0
24480 On ch=1 n=c#4 v=87
24575 On ch=1 n=a#2 v=60
24580 On ch=1 n=c#3 v=0
24590 On ch=1 n=a#3 v=85
24595 On ch=1 n=c#4 v=0
24660 On ch=1 n=a#2 v=0
24680 On ch=1 n=a2 v=69
24690 On ch=1 n=a3 v=88
24695 On ch=1 n=a#3 v=0
24780 On ch=1 n=a2 v=0
24790 On ch=1 n=g2 v=61
24820 On ch=1 n=g3 v=89
24825 Par ch=1 c=64 v=56
24830 On ch=1 n=a3 v=0
24890 On ch=1 n=g2 v=0
24890 Par ch=1 c=64 v=40
24905 Par ch=1 c=64 v=24
24935 On ch=1 n=f3 v=82
24960 On ch=1 n=g3 v=0
24995 Par ch=1 c=64 v=40
25020 Par ch=1 c=64 v=24
25030 Par ch=1 c=64 v=0
25050 On ch=1 n=e3 v=78
25060 On ch=1 n=f3 v=0
25280 On ch=1 n=d7 v=96
25285 On ch=1 n=d6 v=74
25295 On ch=1 n=f6 v=84
25310 On ch=1 n=d4 v=66
25310 Par ch=1 c=64 v=104
25315 On ch=1 n=d3 v=60
25320 On ch=1 n=a3 v=63
25320 Par ch=1 c=64 v=127
25425 On ch=1 n=a3 v=0
25425 On ch=1 n=d3 v=0
25460 On ch=1 n=d4 v=0
25460 On ch=1 n=d7 v=0
25475 On ch=1 n=f6 v=0
25490 On ch=1 n=d6 v=0
25570 On ch=1 n=e3 v=0
25650 On ch=1 n=e4 v=48
25650 On ch=1 n=g#4 v=62
25760 On ch=1 n=a4 v=68
25785 On ch=1 n=e4 v=0
25800 On ch=1 n=g#4 v=0
25815 On ch=1 n=a4 v=0
25905 On ch=1 n=e5 v=68
26025 On ch=1 n=f5 v=74
26025 On ch=1 n=d5 v=68
26050 On ch=1 n=d5 v=0
26060 On ch=1 n=e5 v=0
26095 On ch=1 n=f5 v=0
26145 On ch=1 n=g#5 v=53
26150 On ch=1 n=e5 v=29
26200 On ch=1 n=e5 v=0
26240 On ch=1 n=g#5 v=0
26265 On ch=1 n=a5 v=73
26275 On ch=1 n=f5 v=66
26290 On ch=1 n=a5 v=0
26310 On ch=1 n=f5 v=0
26510 On ch=1 n=d7 v=103
26520 On ch=1 n=d6 v=93
26525 On ch=1 n=f6 v=90
26525 Par ch=1 c=64 v=24
26535 On ch=1 n=a3 v=70
26540 On ch=1 n=d4 v=74
26545 Par ch=1 c=64 v=0
26555 On ch=1 n=d3 v=63
26620 On ch=1 n=d3 v=0
26625 On ch=1 n=a3 v=0
26630 Par ch=1 c=64 v=127
26655 On ch=1 n=d4 v=0
26680 On ch=1 n=d7 v=0
26695 On ch=1 n=f6 v=0
26710 On ch=1 n=d6 v=0
26850 On ch=1 n=g#4 v=58
26860 On ch=1 n=e4 v=63
26945 On ch=1 n=e4 v=0
26975 On ch=1 n=a4 v=73
26985 On ch=1 n=f4 v=56
27010 On ch=1 n=g#4 v=0
27015 On ch=1 n=f4 v=0
27030 On ch=1 n=a4 v=0
27105 On ch=1 n=e5 v=72
27190 On ch=1 n=e5 v=0
27230 On ch=1 n=f5 v=70
27235 On ch=1 n=d5 v=63
27260 On ch=1 n=d5 v=0
27290 On ch=1 n=f5 v=0
27365 On ch=1 n=g#5 v=71
27375 On ch=1 n=e5 v=59
27410 On ch=1 n=e5 v=0
27445 On ch=1 n=g#5 v=0
27475 On ch=1 n=a5 v=72
27480 On ch=1 n=f5 v=66
27505 On ch=1 n=a5 v=0
27530 On ch=1 n=f5 v=0
27600 On ch=1 n=c7 v=93
27600 On ch=1 n=c6 v=88
27650 On ch=1 n=c6 v=0
27680 On ch=1 n=c7 v=0
27765 On ch=1 n=a#6 v=92
27765 Par ch=1 c=64 v=104
27770 On ch=1 n=a#5 v=85
27775 On ch=1 n=e6 v=79
27780 Par ch=1 c=64 v=0
27800 On ch=1 n=d4 v=66
27800 On ch=1 n=g3 v=68
27810 On ch=1 n=d3 v=55
27885 On ch=1 n=d3 v=0
27890 Par ch=1 c=64 v=127
27900 On ch=1 n=g3 v=0
27920 On ch=1 n=d4 v=0
27925 On ch=1 n=e6 v=0
27955 On ch=1 n=a#5 v=0
27955 On ch=1 n=a#6 v=0
28120 On ch=1 n=a4 v=54
28130 On ch=1 n=f#4 v=43
28195 On ch=1 n=f#4 v=0
28225 On ch=1 n=a#4 v=62
28245 On ch=1 n=a4 v=0
28250 On ch=1 n=g4 v=41
28280 On ch=1 n=g4 v=0
28280 On ch=1 n=a#4 v=0
28380 On ch=1 n=f#5 v=56
28380 On ch=1 n=d#5 v=51
28450 On ch=1 n=d#5 v=0
28455 On ch=1 n=f#5 v=0
28490 On ch=1 n=e5 v=59
28490 On ch=1 n=g5 v=64
28505 On ch=1 n=f#5 v=37
28515 On ch=1 n=e5 v=0
28530 On ch=1 n=f#5 v=0
28555 On ch=1 n=g5 v=0
28625 On ch=1 n=f#5 v=58
28635 On ch=1 n=a5 v=68
28700 On ch=1 n=f#5 v=0
28730 On ch=1 n=a#5 v=74
28735 On ch=1 n=a5 v=0
28750 On ch=1 n=g5 v=61
28760 On ch=1 n=a#5 v=0
28770 On ch=1 n=g5 v=0
28965 On ch=1 n=a#6 v=92
28965 On ch=1 n=a#5 v=85
28975 On ch=1 n=e6 v=88
28985 Par ch=1 c=64 v=40
28995 On ch=1 n=g3 v=61
29000 Par ch=1 c=64 v=0
29005 On ch=1 n=d3 v=60
29005 On ch=1 n=d4 v=60
29080 On ch=1 n=d3 v=0
29090 On ch=1 n=g3 v=0
29090 Par ch=1 c=64 v=88
29100 Par ch=1 c=64 v=127
29120 On ch=1 n=d4 v=0
29155 On ch=1 n=e6 v=0
29155 On ch=1 n=a#6 v=0
29175 On ch=1 n=a#5 v=0
29295 On ch=1 n=a4 v=68
29300 On ch=1 n=f#4 v=55
29355 On ch=1 n=a4 v=0
29365 On ch=1 n=f#4 v=0
29420 On ch=1 n=g4 v=66
29420 On ch=1 n=a4 v=30
29420 On ch=1 n=a#4 v=51
29445 On ch=1 n=g4 v=0
29450 On ch=1 n=a4 v=0
29455 On ch=1 n=a#4 v=0
29545 On ch=1 n=f#5 v=61
29555 On ch=1 n=d#5 v=55
29620 On ch=1 n=d#5 v=0
29625 On ch=1 n=f#5 v=0
29660 On ch=1 n=e5 v=62
29660 On ch=1 n=g5 v=67
29690 On ch=1 n=e5 v=0
29720 On ch=1 n=g5 v=0
29785 On ch=1 n=f#5 v=49
29790 On ch=1 n=a5 v=68
29850 On ch=1 n=f#5 v=0
29890 On ch=1 n=a#5 v=77
29895 On ch=1 n=g5 v=63
29910 On ch=1 n=a5 v=0
29925 On ch=1 n=g5 v=0
29930 On ch=1 n=a#5 v=0
30010 On ch=1 n=a#6 v=88
30015 On ch=1 n=a#5 v=77
30065 On ch=1 n=a#5 v=0
30080 On ch=1 n=a#6 v=0
30140 On ch=1 n=a6 v=90
30150 On ch=1 n=a5 v=82
30150 On ch=1 n=e6 v=81
30160 Par ch=1 c=64 v=56
30175 Par ch=1 c=64 v=0
30190 On ch=1 n=c#4 v=65
30195 On ch=1 n=c#3 v=59
30265 Par ch=1 c=64 v=72
30280 Par ch=1 c=64 v=127
30285 On ch=1 n=c#3 v=0
30285 On ch=1 n=c#4 v=0
30320 On ch=1 n=a6 v=0
30330 On ch=1 n=e6 v=0
30360 On ch=1 n=a5 v=0
30470 On ch=1 n=f#4 v=58
30490 On ch=1 n=d#4 v=47
30545 On ch=1 n=d#4 v=0
30550 On ch=1 n=f#4 v=0
30580 On ch=1 n=g4 v=68
30585 On ch=1 n=e4 v=64
30620 On ch=1 n=g4 v=0
30625 On ch=1 n=e4 v=0
30705 On ch=1 n=d#5 v=58
30725 On ch=1 n=c5 v=52
30780 On ch=1 n=d#5 v=0
30815 On ch=1 n=c5 v=0
30815 On ch=1 n=e5 v=70
30870 On ch=1 n=e5 v=0
30940 On ch=1 n=d#5 v=57
30940 On ch=1 n=f#5 v=64
30990 On ch=1 n=f#5 v=0
31010 On ch=1 n=d#5 v=0
31020 On ch=1 n=e5 v=76
31020 On ch=1 n=g5 v=73
31055 On ch=1 n=g5 v=0
31075 On ch=1 n=e5 v=0
31130 On ch=1 n=a6 v=93
31130 On ch=1 n=a5 v=80
31155 On ch=1 n=a5 v=0
31185 On ch=1 n=a6 v=0
31345 On ch=1 n=e7 v=103
31345 On ch=1 n=e6 v=89
31350 Par ch=1 c=64 v=0
31360 On ch=1 n=g6 v=81
31365 On ch=1 n=a3 v=80
31365 On ch=1 n=a2 v=64
31455 Par ch=1 c=64 v=104
31470 On ch=1 n=a2 v=0
31470 Par ch=1 c=64 v=127
31505 On ch=1 n=a3 v=0
31520 On ch=1 n=e7 v=0
31535 On ch=1 n=g6 v=0
31555 On ch=1 n=e6 v=0
31680 On ch=1 n=f#4 v=46
31700 On ch=1 n=d#4 v=25
31710 On ch=1 n=f#4 v=0
31725 On ch=1 n=d#4 v=0
31770 On ch=1 n=g4 v=70
31775 On ch=1 n=e4 v=64
31800 On ch=1 n=e4 v=0
31820 On ch=1 n=g4 v=0
31905 On ch=1 n=d#5 v=59
31910 On ch=1 n=c5 v=63
32000 On ch=1 n=c5 v=0
32010 On ch=1 n=e5 v=73
32030 On ch=1 n=d#5 v=0
32070 On ch=1 n=e5 v=0
32135 On ch=1 n=f#5 v=71
32140 On ch=1 n=d#5 v=52
32175 On ch=1 n=d#5 v=0
32195 On ch=1 n=f#5 v=0
32230 On ch=1 n=d#5 v=61
32245 On ch=1 n=g5 v=39
32255 On ch=1 n=d#5 v=0
32255 On ch=1 n=e5 v=70
32275 On ch=1 n=g5 v=0
32280 On ch=1 n=e5 v=0
32340 On ch=1 n=g5 v=67
32345 On ch=1 n=g6 v=89
32410 On ch=1 n=g6 v=0
32415 On ch=1 n=g5 v=0
32515 Par ch=1 c=64 v=56
32530 On ch=1 n=f6 v=92
32530 Par ch=1 c=64 v=0
32535 On ch=1 n=f5 v=68
32540 On ch=1 n=a5 v=68
32560 On ch=1 n=d3 v=65
32565 On ch=1 n=d4 v=62
32630 Par ch=1 c=64 v=88
32645 On ch=1 n=d3 v=0
32645 Par ch=1 c=64 v=127
32675 On ch=1 n=d4 v=0
32685 On ch=1 n=f6 v=0
32705 On ch=1 n=a5 v=0
32725 On ch=1 n=f5 v=0
32840 On ch=1 n=g#4 v=57
32840 On ch=1 n=e4 v=59
32950 On ch=1 n=e4 v=0
32950 On ch=1 n=a4 v=70
32975 On ch=1 n=g#4 v=0
32975 On ch=1 n=f4 v=44
33005 On ch=1 n=f4 v=0
33005 On ch=1 n=a4 v=0
33075 On ch=1 n=e5 v=63
33095 On ch=1 n=c#5 v=34
33135 On ch=1 n=c#5 v=0
33150 On ch=1 n=e5 v=0
33180 On ch=1 n=d5 v=63
33185 On ch=1 n=f5 v=62
33215 On ch=1 n=d5 v=0
33250 On ch=1 n=f5 v=0
33315 On ch=1 n=g#5 v=65
33320 On ch=1 n=e5 v=63
33350 On ch=1 n=e5 v=0
33380 On ch=1 n=g#5 v=0
33405 On ch=1 n=a5 v=72
33415 On ch=1 n=f5 v=56
33450 On ch=1 n=a5 v=0
33460 On ch=1 n=f5 v=0
33520 On ch=1 n=a6 v=83
33520 On ch=1 n=a5 v=70
33580 On ch=1 n=a6 v=0
33585 On ch=1 n=a5 v=0
33730 On ch=1 n=d6 v=89
33735 On ch=1 n=d5 v=77
33735 Par ch=1 c=64 v=72
33740 On ch=1 n=f5 v=70
33750 Par ch=1 c=64 v=0
33775 On ch=1 n=d4 v=48
33785 On ch=1 n=d3 v=41
33870 On ch=1 n=d3 v=0
33870 Par ch=1 c=64 v=88
33880 Par ch=1 c=64 v=127
33915 On ch=1 n=d4 v=0
33960 On ch=1 n=d6 v=0
33980 On ch=1 n=f5 v=0
34000 On ch=1 n=d5 v=0
34035 On ch=1 n=g#4 v=54
34045 On ch=1 n=e4 v=54
34080 On ch=1 n=e4 v=0
34100 On ch=1 n=g#4 v=0
34155 On ch=1 n=a4 v=62
34175 On ch=1 n=f4 v=42
34200 On ch=1 n=f4 v=0
34210 On ch=1 n=a4 v=0
34305 On ch=1 n=e5 v=58
34310 On ch=1 n=c#5 v=37
34345 On ch=1 n=c#5 v=0
34370 On ch=1 n=e5 v=0
34420 On ch=1 n=d5 v=60
34420 On ch=1 n=f5 v=62
34445 On ch=1 n=d5 v=0
34485 On ch=1 n=f5 v=0
34540 On ch=1 n=e5 v=55
34545 On ch=1 n=g#5 v=42
34595 On ch=1 n=g#5 v=0
34595 On ch=1 n=e5 v=0
34655 On ch=1 n=a5 v=65
34655 On ch=1 n=f5 v=63
34685 On ch=1 n=a5 v=0
34705 On ch=1 n=f5 v=0
34825 On ch=1 n=c#4 v=34
34850 On ch=1 n=c#4 v=0
34920 On ch=1 n=c7 v=99
34930 On ch=1 n=c6 v=82
34935 On ch=1 n=e6 v=77
34945 Par ch=1 c=64 v=56
34955 On ch=1 n=c4 v=71
34955 Par ch=1 c=64 v=0
34965 On ch=1 n=c3 v=60
35060 Par ch=1 c=64 v=127
35070 On ch=1 n=c3 v=0
35100 On ch=1 n=c4 v=0
35120 On ch=1 n=c7 v=0
35135 On ch=1 n=e6 v=0
35145 On ch=1 n=c6 v=0
35255 On ch=1 n=b4 v=63
35270 On ch=1 n=f#4 v=35
35290 On ch=1 n=b4 v=0
35295 On ch=1 n=f#4 v=0
35380 On ch=1 n=c5 v=68
35385 On ch=1 n=g4 v=58
35440 On ch=1 n=g4 v=0
35440 On ch=1 n=c5 v=0
35535 On ch=1 n=d#5 v=64
35540 On ch=1 n=b4 v=60
35595 On ch=1 n=b4 v=0
35610 On ch=1 n=d#5 v=0
35655 On ch=1 n=e5 v=71
35730 On ch=1 n=e5 v=0
35815 On ch=1 n=b5 v=68
35815 On ch=1 n=f#5 v=50
35875 On ch=1 n=f#5 v=0
35880 On ch=1 n=b5 v=0
35915 On ch=1 n=g5 v=51
35930 On ch=1 n=c6 v=75
35955 On ch=1 n=c6 v=0
35970 On ch=1 n=g5 v=0
36135 On ch=1 n=c7 v=93
36145 On ch=1 n=c6 v=79
36145 On ch=1 n=g6 v=79
36145 Par ch=1 c=64 v=72
36160 Par ch=1 c=64 v=0
36175 On ch=1 n=e3 v=57
36190 On ch=1 n=e4 v=66
36245 On ch=1 n=e3 v=0
36265 On ch=1 n=e4 v=0
36265 Par ch=1 c=64 v=127
36315 On ch=1 n=c7 v=0
36325 On ch=1 n=g6 v=0
36350 On ch=1 n=c6 v=0
36460 On ch=1 n=b4 v=64
36480 On ch=1 n=f#4 v=54
36525 On ch=1 n=b4 v=0
36535 On ch=1 n=f#4 v=0
36575 On ch=1 n=c5 v=69
36580 On ch=1 n=g4 v=59
36635 On ch=1 n=g4 v=0
36640 On ch=1 n=c5 v=0
36715 On ch=1 n=f#5 v=56
36720 On ch=1 n=d#5 v=56
36790 On ch=1 n=d#5 v=0
36790 On ch=1 n=f#5 v=0
36815 On ch=1 n=e5 v=59
36825 On ch=1 n=g5 v=66
36840 On ch=1 n=e5 v=0
36880 On ch=1 n=g5 v=0
36960 On ch=1 n=f#5 v=42
36960 On ch=1 n=a5 v=66
37010 On ch=1 n=f#5 v=0
37025 On ch=1 n=a5 v=0
37075 On ch=1 n=g5 v=53
37075 On ch=1 n=a#5 v=76
37120 On ch=1 n=a#5 v=0
37125 On ch=1 n=g5 v=0
37240 On ch=1 n=a#6 v=84
37240 On ch=1 n=a#5 v=76
37305 On ch=1 n=a#5 v=0
37320 On ch=1 n=a#6 v=0
37380 On ch=1 n=a6 v=87
37390 On ch=1 n=a5 v=71
37395 On ch=1 n=f6 v=74
37410 Par ch=1 c=64 v=56
37425 On ch=1 n=f4 v=59
37425 Par ch=1 c=64 v=0
37440 On ch=1 n=f3 v=47
37515 Par ch=1 c=64 v=104
37525 Par ch=1 c=64 v=127
37540 On ch=1 n=f3 v=0
37570 On ch=1 n=f4 v=0
37585 On ch=1 n=f6 v=0
37590 On ch=1 n=a6 v=0
37595 On ch=1 n=a5 v=0
37690 On ch=1 n=b4 v=68
37695 On ch=1 n=g#4 v=56
37715 On ch=1 n=b4 v=0
37735 On ch=1 n=g#4 v=0
37785 On ch=1 n=c5 v=68
37790 On ch=1 n=a4 v=63
37825 On ch=1 n=a4 v=0
37840 On ch=1 n=c5 v=0
37925 On ch=1 n=b4 v=54
37925 On ch=1 n=e5 v=67
37975 On ch=1 n=b4 v=0
37990 On ch=1 n=e5 v=0
38050 On ch=1 n=f5 v=63
38075 On ch=1 n=c5 v=26
38100 On ch=1 n=c5 v=0
38130 On ch=1 n=f5 v=0
38185 On ch=1 n=e5 v=67
38190 On ch=1 n=g#5 v=63
38265 On ch=1 n=g#5 v=0
38265 On ch=1 n=e5 v=0
38280 On ch=1 n=a5 v=72
38290 On ch=1 n=f5 v=62
38325 On ch=1 n=a5 v=0
38335 On ch=1 n=f5 v=0
38395 On ch=1 n=c7 v=89
38395 On ch=1 n=c6 v=87
38450 On ch=1 n=c7 v=0
38455 On ch=1 n=c6 v=0
38585 On ch=1 n=f5 v=83
38585 On ch=1 n=f6 v=99
38590 On ch=1 n=a5 v=80
38615 On ch=1 n=a5 v=0
38620 Par ch=1 c=64 v=88
38625 On ch=1 n=f4 v=49
38635 On ch=1 n=f3 v=44
38635 Par ch=1 c=64 v=0
38715 On ch=1 n=a5 v=2
38720 Par ch=1 c=64 v=72
38735 On ch=1 n=f3 v=0
38735 Par ch=1 c=64 v=127
38770 On ch=1 n=f4 v=0
38795 On ch=1 n=f6 v=0
38800 On ch=1 n=a5 v=0
38810 On ch=1 n=f5 v=0
38885 On ch=1 n=b4 v=65
38895 On ch=1 n=g#4 v=49
38920 On ch=1 n=b4 v=0
38940 On ch=1 n=g#4 v=0
38985 On ch=1 n=c5 v=71
38990 On ch=1 n=a4 v=59
39020 On ch=1 n=a4 v=0
39040 On ch=1 n=c5 v=0
39130 On ch=1 n=e5 v=72
39135 On ch=1 n=b4 v=60
39185 On ch=1 n=b4 v=0
39200 On ch=1 n=e5 v=0
39250 On ch=1 n=f5 v=68
39265 On ch=1 n=c5 v=44
39300 On ch=1 n=c5 v=0
39335 On ch=1 n=f5 v=0
39370 On ch=1 n=e5 v=65
39380 On ch=1 n=g#5 v=60
39455 On ch=1 n=g#5 v=0
39455 On ch=1 n=e5 v=0
39485 On ch=1 n=f5 v=66
39490 On ch=1 n=a5 v=68
39515 On ch=1 n=a5 v=0
39540 On ch=1 n=f5 v=0
39750 On ch=1 n=e7 v=99
39750 Par ch=1 c=64 v=104
39755 On ch=1 n=e6 v=81
39765 On ch=1 n=g#6 v=73
39765 Par ch=1 c=64 v=0
39785 On ch=1 n=e4 v=62
39785 On ch=1 n=e3 v=62
39880 Par ch=1 c=64 v=127
39895 On ch=1 n=e3 v=0
39925 On ch=1 n=e4 v=0
39945 On ch=1 n=e7 v=0
39970 On ch=1 n=e6 v=0
39975 On ch=1 n=g#6 v=0
40050 On ch=1 n=a#4 v=61
40065 On ch=1 n=g4 v=64
40090 On ch=1 n=g4 v=0
40115 On ch=1 n=a#4 v=0
40180 On ch=1 n=g#4 v=60
40190 On ch=1 n=b4 v=63
40275 On ch=1 n=g#4 v=0
40290 On ch=1 n=b4 v=0
40320 On ch=1 n=d#5 v=60
40335 On ch=1 n=g5 v=61
40380 On ch=1 n=d#5 v=0
40400 On ch=1 n=g5 v=0
40450 On ch=1 n=e5 v=74
40455 On ch=1 n=g#5 v=55
40480 On ch=1 n=e5 v=0
40525 On ch=1 n=g#5 v=0
40590 On ch=1 n=g5 v=74
40590 On ch=1 n=a#5 v=73
40655 On ch=1 n=a#5 v=0
40670 On ch=1 n=g5 v=0
40705 On ch=1 n=b5 v=72
40705 On ch=1 n=g#5 v=65
40735 On ch=1 n=b5 v=0
40755 On ch=1 n=g#5 v=0
40910 On ch=1 n=e7 v=97
40910 Par ch=1 c=64 v=40
40925 On ch=1 n=e6 v=77
40925 On ch=1 n=b6 v=82
40925 Par ch=1 c=64 v=0
40955 On ch=1 n=g#4 v=70
40965 On ch=1 n=g#3 v=58
41030 Par ch=1 c=64 v=127
41045 On ch=1 n=g#3 v=0
41060 On ch=1 n=g#4 v=0
41085 On ch=1 n=b6 v=0
41095 On ch=1 n=e7 v=0
41110 On ch=1 n=e6 v=0
41245 On ch=1 n=g4 v=61
41245 On ch=1 n=a#4 v=57
41310 On ch=1 n=g4 v=0
41365 On ch=1 n=b4 v=67
41365 On ch=1 n=g#4 v=57
41395 On ch=1 n=a#4 v=0
41400 On ch=1 n=b4 v=0
41410 On ch=1 n=g#4 v=0
41490 On ch=1 n=d#5 v=57
41500 On ch=1 n=g5 v=66
41575 On ch=1 n=d#5 v=0
41595 On ch=1 n=g5 v=0
41595 On ch=1 n=g#5 v=57
41645 On ch=1 n=g#5 v=0
41700 On ch=1 n=g5 v=74
41715 On ch=1 n=a#5 v=62
41800 On ch=1 n=a#5 v=0
41805 On ch=1 n=g#5 v=70
41815 On ch=1 n=g5 v=0
41820 On ch=1 n=b5 v=70
41845 On ch=1 n=b5 v=0
41865 On ch=1 n=g#5 v=0
41910 On ch=1 n=d7 v=87
41920 On ch=1 n=d6 v=73
41975 On ch=1 n=d6 v=0
42000 On ch=1 n=d7 v=0
42070 On ch=1 n=c#7 v=98
42075 Par ch=1 c=64 v=72
42080 On ch=1 n=c#6 v=80
42090 On ch=1 n=a6 v=74
42090 Par ch=1 c=64 v=0
42105 On ch=1 n=e4 v=67
42105 On ch=1 n=a3 v=68
42110 On ch=1 n=a4 v=52
42165 On ch=1 n=a3 v=0
42175 On ch=1 n=e4 v=0
42190 Par ch=1 c=64 v=127
42205 On ch=1 n=a4 v=0
42215 On ch=1 n=a6 v=0
42250 On ch=1 n=c#6 v=0
42250 On ch=1 n=c#7 v=0
42370 On ch=1 n=c5 v=41
42370 On ch=1 n=d#5 v=37
42470 On ch=1 n=e5 v=76
42475 On ch=1 n=c#5 v=62
42485 On ch=1 n=d#5 v=0
42490 On ch=1 n=c5 v=0
42530 On ch=1 n=c#5 v=0
42530 On ch=1 n=e5 v=0
42600 On ch=1 n=g#5 v=56
42605 On ch=1 n=c6 v=71
42680 On ch=1 n=c6 v=0
42695 On ch=1 n=c#6 v=72
42700 On ch=1 n=g#5 v=0
42700 On ch=1 n=a5 v=66
42720 On ch=1 n=a5 v=0
42755 On ch=1 n=c#6 v=0
42830 On ch=1 n=c6 v=82
42835 On ch=1 n=d#6 v=73
42900 On ch=1 n=d#6 v=0
42910 On ch=1 n=c6 v=0
42925 On ch=1 n=e6 v=76
42925 On ch=1 n=c#6 v=67
42960 On ch=1 n=e6 v=0
42980 On ch=1 n=c#6 v=0
43015 On ch=1 n=e7 v=91
43020 On ch=1 n=e6 v=74
43070 On ch=1 n=e7 v=0
43075 On ch=1 n=e6 v=0
43245 On ch=1 n=a6 v=88
43255 On ch=1 n=a5 v=68
43255 On ch=1 n=c#6 v=60
43260 On ch=1 n=e4 v=68
43260 On ch=1 n=a4 v=58
43265 On ch=1 n=a3 v=60
43265 Par ch=1 c=64 v=24
43280 Par ch=1 c=64 v=0
43365 On ch=1 n=a3 v=0
43370 On ch=1 n=e4 v=0
43370 Par ch=1 c=64 v=127
43400 On ch=1 n=a4 v=0
43435 On ch=1 n=a6 v=0
43470 On ch=1 n=c#6 v=0
43470 On ch=1 n=a5 v=0
43580 On ch=1 n=c5 v=67
43580 On ch=1 n=d#5 v=60
43640 On ch=1 n=d#5 v=0
43650 On ch=1 n=c5 v=0
43680 On ch=1 n=e5 v=69
43680 On ch=1 n=c#5 v=42
43740 On ch=1 n=e5 v=0
43785 On ch=1 n=c#5 v=0
43820 On ch=1 n=c6 v=61
43840 On ch=1 n=g#5 v=56
43890 On ch=1 n=g#5 v=0
43900 On ch=1 n=c6 v=0
43935 On ch=1 n=a5 v=72
43935 On ch=1 n=c#6 v=60
43995 On ch=1 n=c#6 v=0
44000 On ch=1 n=a5 v=0
44045 On ch=1 n=c6 v=54
44055 On ch=1 n=d#6 v=63
44100 On ch=1 n=d#6 v=0
44125 On ch=1 n=c6 v=0
44170 On ch=1 n=c#6 v=75
44170 On ch=1 n=e6 v=75
44230 On ch=1 n=e6 v=0
44235 On ch=1 n=c#6 v=0
44305 Par ch=1 c=64 v=56
44320 Par ch=1 c=64 v=88
44335 Par ch=1 c=64 v=127
44375 On ch=1 n=a6 v=92
44375 On ch=1 n=a5 v=84
44395 On ch=1 n=a5 v=0
44430 On ch=1 n=a6 v=0
44645 On ch=1 n=g7 v=100
44650 On ch=1 n=g6 v=82
44655 On ch=1 n=c#7 v=76
44660 Par ch=1 c=64 v=40
44670 On ch=1 n=a#3 v=62
44670 On ch=1 n=a#4 v=50
44675 Par ch=1 c=64 v=0
44690 On ch=1 n=e4 v=51
44760 Par ch=1 c=64 v=56
44775 Par ch=1 c=64 v=127
44810 On ch=1 n=e4 v=0
44815 On ch=1 n=a#3 v=0
44845 On ch=1 n=g7 v=0
44850 On ch=1 n=a#4 v=0
44870 On ch=1 n=c#7 v=0
44885 On ch=1 n=g6 v=0
44980 On ch=1 n=f#5 v=64
44995 On ch=1 n=d#5 v=42
45025 On ch=1 n=d#5 v=0
45050 On ch=1 n=f#5 v=0
45100 On ch=1 n=g5 v=68
45105 On ch=1 n=e5 v=68
45165 On ch=1 n=e5 v=0
45170 On ch=1 n=g5 v=0
45245 On ch=1 n=d#6 v=68
45250 On ch=1 n=c6 v=72
45320 On ch=1 n=c6 v=0
45375 On ch=1 n=e6 v=77
45400 On ch=1 n=d#6 v=0
45425 On ch=1 n=e6 v=0
45485 On ch=1 n=f#6 v=73
45490 On ch=1 n=d#6 v=48
45540 On ch=1 n=f#6 v=0
45555 On ch=1 n=d#6 v=0
45605 On ch=1 n=g6 v=70
45605 On ch=1 n=e6 v=64
45625 On ch=1 n=g6 v=0
45635 On ch=1 n=e6 v=0
45855 On ch=1 n=a6 v=89
45870 On ch=1 n=a5 v=74
45905 On ch=1 n=a3 v=62
45910 On ch=1 n=a4 v=60
45910 Par ch=1 c=64 v=56
45925 Par ch=1 c=64 v=0
46010 On ch=1 n=a3 v=0
46025 Par ch=1 c=64 v=104
46040 Par ch=1 c=64 v=127
46045 On ch=1 n=a4 v=0
46090 On ch=1 n=a5 v=0
46120 On ch=1 n=a6 v=0
46200 On ch=1 n=f#5 v=63
46265 On ch=1 n=f#5 v=0
46330 On ch=1 n=e5 v=66
46335 On ch=1 n=g5 v=67
46395 On ch=1 n=e5 v=0
46400 On ch=1 n=g5 v=0
46450 On ch=1 n=d#6 v=67
46455 On ch=1 n=c6 v=65
46520 On ch=1 n=c6 v=0
46525 On ch=1 n=d#6 v=0
46560 On ch=1 n=e6 v=76
46565 On ch=1 n=c#6 v=60
46590 On ch=1 n=c#6 v=0
46620 On ch=1 n=e6 v=0
46675 On ch=1 n=f#6 v=65
46680 On ch=1 n=d#6 v=45
46720 On ch=1 n=d#6 v=0
46735 On ch=1 n=f#6 v=0
46785 On ch=1 n=g6 v=84
46790 On ch=1 n=e6 v=78
46830 On ch=1 n=g6 v=0
46845 On ch=1 n=e6 v=0
46900 On ch=1 n=a6 v=88
46905 On ch=1 n=a5 v=75
46925 On ch=1 n=a5 v=0
46960 On ch=1 n=a6 v=0
47130 On ch=1 n=f#7 v=93
47135 On ch=1 n=f#6 v=85
47140 On ch=1 n=c7 v=82
47145 Par ch=1 c=64 v=40
47150 On ch=1 n=a#4 v=58
47155 On ch=1 n=d#4 v=60
47160 On ch=1 n=a#3 v=51
47160 Par ch=1 c=64 v=0
47255 On ch=1 n=d#4 v=0
47260 Par ch=1 c=64 v=127
47275 On ch=1 n=a#3 v=0
47300 On ch=1 n=a#4 v=0
47320 On ch=1 n=c7 v=0
47330 On ch=1 n=f#7 v=0
47340 On ch=1 n=f#6 v=0
47425 On ch=1 n=e5 v=56
47455 On ch=1 n=e5 v=0
47560 On ch=1 n=d#5 v=46
47560 On ch=1 n=f#5 v=44
47615 On ch=1 n=f#5 v=0
47615 On ch=1 n=d#5 v=0
47710 On ch=1 n=d6 v=76
47710 On ch=1 n=b5 v=65
47780 On ch=1 n=b5 v=0
47780 On ch=1 n=d6 v=0
47830 On ch=1 n=d#6 v=62
47840 On ch=1 n=c6 v=54
47855 On ch=1 n=d#6 v=0
47855 On ch=1 n=e6 v=55
47860 On ch=1 n=c6 v=0
47880 On ch=1 n=e6 v=0
47960 On ch=1 n=f6 v=80
47960 On ch=1 n=d6 v=59
48025 On ch=1 n=d6 v=0
48025 On ch=1 n=f6 v=0
48075 On ch=1 n=f#6 v=74
48095 On ch=1 n=d#6 v=77
48100 On ch=1 n=f#6 v=0
48115 On ch=1 n=d#6 v=0
48210 On ch=1 n=g#4 v=34
48235 On ch=1 n=g#4 v=0
48275 On ch=1 n=a6 v=90
48290 On ch=1 n=a5 v=75
48310 Par ch=1 c=64 v=40
48320 On ch=1 n=a4 v=58
48320 Par ch=1 c=64 v=0
48325 On ch=1 n=a3 v=54
48385 On ch=1 n=a3 v=0
48395 Par ch=1 c=64 v=72
48410 Par ch=1 c=64 v=127
48420 On ch=1 n=a4 v=0
48435 On ch=1 n=a5 v=0
48480 On ch=1 n=a6 v=0
48570 On ch=1 n=d5 v=61
48580 On ch=1 n=f5 v=46
48605 On ch=1 n=f5 v=0
48605 On ch=1 n=d5 v=0
48680 On ch=1 n=d#5 v=56
48685 On ch=1 n=f#5 v=62
48730 On ch=1 n=f#5 v=0
48735 On ch=1 n=d#5 v=0
48820 On ch=1 n=d6 v=77
48830 On ch=1 n=b5 v=51
48885 On ch=1 n=b5 v=0
48890 On ch=1 n=d6 v=0
48930 On ch=1 n=d#6 v=65
48940 On ch=1 n=c6 v=64
48965 On ch=1 n=c6 v=0
48995 On ch=1 n=d#6 v=0
49050 On ch=1 n=f6 v=65
49060 On ch=1 n=d6 v=56
49090 On ch=1 n=d6 v=0
49115 On ch=1 n=f6 v=0
49155 On ch=1 n=f#6 v=83
49180 On ch=1 n=d#6 v=70
49195 On ch=1 n=f#6 v=0
49200 On ch=1 n=d#6 v=0
49260 On ch=1 n=a6 v=87
49260 On ch=1 n=a5 v=83
49280 On ch=1 n=a5 v=0
49305 On ch=1 n=a6 v=0
49485 On ch=1 n=f7 v=97
49490 On ch=1 n=f6 v=92
49490 On ch=1 n=g#6 v=85
49505 On ch=1 n=b4 v=67
49505 Par ch=1 c=64 v=88
49515 On ch=1 n=b3 v=58
49520 On ch=1 n=d4 v=64
49520 Par ch=1 c=64 v=0
49595 Par ch=1 c=64 v=72
49600 On ch=1 n=b3 v=0
49605 On ch=1 n=d4 v=0
49605 Par ch=1 c=64 v=127
49645 On ch=1 n=b4 v=0
49660 On ch=1 n=f7 v=0
49695 On ch=1 n=g#6 v=0
49700 On ch=1 n=f6 v=0
49795 On ch=1 n=e5 v=62
49810 On ch=1 n=c#5 v=49
49870 On ch=1 n=c#5 v=0
49905 On ch=1 n=e5 v=0
49905 On ch=1 n=f5 v=70
49910 On ch=1 n=d5 v=57
49945 On ch=1 n=d5 v=0
49955 On ch=1 n=f5 v=0
50020 On ch=1 n=a#5 v=60
50030 On ch=1 n=g5 v=59
50085 On ch=1 n=a#5 v=0
50105 On ch=1 n=g5 v=0
50125 On ch=1 n=b5 v=61
50130 On ch=1 n=g#5 v=45
50150 On ch=1 n=g#5 v=0
50175 On ch=1 n=b5 v=0
50235 On ch=1 n=d#6 v=64
50245 On ch=1 n=c#6 v=56
50260 On ch=1 n=d#6 v=0
50260 On ch=1 n=e6 v=67
50310 On ch=1 n=c#6 v=0
50320 On ch=1 n=e6 v=0
50350 On ch=1 n=f6 v=78
50355 On ch=1 n=d6 v=66
50375 On ch=1 n=f6 v=0
50395 On ch=1 n=d6 v=0
50480 On ch=1 n=f7 v=93
50485 On ch=1 n=f6 v=87
50525 On ch=1 n=f6 v=0
50535 On ch=1 n=f7 v=0
50600 On ch=1 n=e7 v=99
50605 On ch=1 n=g#6 v=77
50610 On ch=1 n=e6 v=86
50615 Par ch=1 c=64 v=72
50630 Par ch=1 c=64 v=0
50650 On ch=1 n=e3 v=66
50660 On ch=1 n=d4 v=11
50695 On ch=1 n=d4 v=0
50705 Par ch=1 c=64 v=127
50715 On ch=1 n=e3 v=0
50810 On ch=1 n=e7 v=0
50845 On ch=1 n=g#6 v=0
50850 On ch=1 n=e6 v=0
50905 On ch=1 n=a#4 v=43
50910 On ch=1 n=g4 v=51
50965 On ch=1 n=g4 v=0
50965 On ch=1 n=a#4 v=0
51010 On ch=1 n=b4 v=64
51015 On ch=1 n=g#4 v=56
51060 On ch=1 n=b4 v=0
51065 On ch=1 n=g#4 v=0
51130 On ch=1 n=d#5 v=51
51130 On ch=1 n=g5 v=64
51185 On ch=1 n=d#5 v=0
51190 On ch=1 n=g5 v=0
51230 On ch=1 n=e5 v=63
51230 On ch=1 n=g#5 v=67
51250 On ch=1 n=e5 v=0
51285 On ch=1 n=g#5 v=0
51340 On ch=1 n=g5 v=73
51340 On ch=1 n=a#5 v=69
51410 On ch=1 n=a#5 v=0
51425 On ch=1 n=g#5 v=67
51430 On ch=1 n=b5 v=69
51435 On ch=1 n=g5 v=0
51455 On ch=1 n=b5 v=0
51480 On ch=1 n=g#5 v=0
51525 On ch=1 n=d7 v=94
51535 On ch=1 n=d6 v=75
51565 On ch=1 n=d6 v=0
51610 On ch=1 n=d7 v=0
51695 On ch=1 n=c#7 v=88
51700 On ch=1 n=c#6 v=77
51700 Par ch=1 c=64 v=104
51705 On ch=1 n=a6 v=71
51710 Par ch=1 c=64 v=0
51720 On ch=1 n=a4 v=65
51720 On ch=1 n=e4 v=64
51725 On ch=1 n=a3 v=65
51800 On ch=1 n=a3 v=0
51800 Par ch=1 c=64 v=72
51810 On ch=1 n=e4 v=0
51815 Par ch=1 c=64 v=127
51840 On ch=1 n=a4 v=0
51840 On ch=1 n=a6 v=0
51875 On ch=1 n=c#6 v=0
51875 On ch=1 n=c#7 v=0
51980 On ch=1 n=d#5 v=27
52000 On ch=1 n=c5 v=48
52090 On ch=1 n=c5 v=0
52090 On ch=1 n=d#5 v=0
52090 On ch=1 n=c#5 v=56
52090 On ch=1 n=e5 v=68
52140 On ch=1 n=e5 v=0
52140 On ch=1 n=c#5 v=0
52200 On ch=1 n=g#5 v=50
52205 On ch=1 n=c6 v=70
52255 On ch=1 n=g#5 v=0
52265 On ch=1 n=c6 v=0
52300 On ch=1 n=c#6 v=70
52305 On ch=1 n=a5 v=55
52325 On ch=1 n=a5 v=0
52355 On ch=1 n=c#6 v=0
52415 On ch=1 n=c6 v=73
52420 On ch=1 n=d#6 v=67
52480 On ch=1 n=d#6 v=0
52485 On ch=1 n=c6 v=0
52510 On ch=1 n=e6 v=76
52510 On ch=1 n=c#6 v=63
52540 On ch=1 n=e6 v=0
52560 On ch=1 n=c#6 v=0
52615 On ch=1 n=e7 v=89
52625 On ch=1 n=e6 v=78
52665 On ch=1 n=e7 v=0
52670 On ch=1 n=e6 v=0
52810 On ch=1 n=a6 v=88
52820 On ch=1 n=a5 v=68
52820 On ch=1 n=c#6 v=61
52830 On ch=1 n=e4 v=53
52830 Par ch=1 c=64 v=88
52835 On ch=1 n=a4 v=45
52835 On ch=1 n=a3 v=52
52845 Par ch=1 c=64 v=0
52915 On ch=1 n=e4 v=0
52920 On ch=1 n=a3 v=0
52920 Par ch=1 c=64 v=72
52935 Par ch=1 c=64 v=127
52965 On ch=1 n=a4 v=0
52975 On ch=1 n=a6 v=0
53005 On ch=1 n=c#6 v=0
53005 On ch=1 n=a5 v=0
53105 On ch=1 n=c5 v=57
53105 On ch=1 n=g#4 v=31
53140 On ch=1 n=g#4 v=0
53150 On ch=1 n=c5 v=0
53180 On ch=1 n=a4 v=21
53205 On ch=1 n=c#5 v=51
53245 On ch=1 n=c#5 v=0
53250 On ch=1 n=a4 v=0
53320 On ch=1 n=d#5 v=50
53330 On ch=1 n=c5 v=49
53375 On ch=1 n=d#5 v=0
53385 On ch=1 n=c5 v=0
53415 On ch=1 n=e5 v=68
53420 On ch=1 n=c#5 v=43
53445 On ch=1 n=c#5 v=0
53465 On ch=1 n=e5 v=0
53530 On ch=1 n=g#5 v=67
53545 On ch=1 n=d#5 v=27
53590 On ch=1 n=d#5 v=0
53605 On ch=1 n=g#5 v=0
53640 On ch=1 n=a5 v=69
53640 On ch=1 n=e5 v=66
53670 On ch=1 n=a5 v=0
53690 On ch=1 n=e5 v=0
53780 Par ch=1 c=64 v=104
53790 Par ch=1 c=64 v=72
53805 Par ch=1 c=64 v=24
53820 Par ch=1 c=64 v=0
53930 On ch=1 n=g6 v=102
53930 On ch=1 n=g5 v=79
53940 On ch=1 n=c#6 v=73
53950 On ch=1 n=a#3 v=60
53955 On ch=1 n=d#3 v=59
53955 On ch=1 n=a#2 v=56
54010 Par ch=1 c=64 v=72
54025 Par ch=1 c=64 v=127
54045 On ch=1 n=d#3 v=0
54055 On ch=1 n=a#2 v=0
54070 On ch=1 n=a#3 v=0
54075 On ch=1 n=g6 v=0
54090 On ch=1 n=c#6 v=0
54105 On ch=1 n=g5 v=0
54215 On ch=1 n=f#4 v=64
54225 On ch=1 n=d#4 v=48
54250 On ch=1 n=d#4 v=0
54270 On ch=1 n=f#4 v=0
54320 On ch=1 n=g4 v=66
54320 On ch=1 n=e4 v=61
54355 On ch=1 n=e4 v=0
54370 On ch=1 n=g4 v=0
54445 On ch=1 n=d#5 v=54
54450 On ch=1 n=c5 v=62
54495 On ch=1 n=d#5 v=0
54500 On ch=1 n=c5 v=0
54550 On ch=1 n=e5 v=65
54550 On ch=1 n=c#5 v=53
54575 On ch=1 n=c#5 v=0
54615 On ch=1 n=e5 v=0
54660 On ch=1 n=f#5 v=67
54670 On ch=1 n=d#5 v=47
54700 On ch=1 n=d#5 v=0
54730 On ch=1 n=f#5 v=0
54780 On ch=1 n=g5 v=70
54780 On ch=1 n=e5 v=71
54800 On ch=1 n=g5 v=0
54815 On ch=1 n=e5 v=0
54995 On ch=1 n=a5 v=92
55000 On ch=1 n=a4 v=73
55020 Par ch=1 c=64 v=104
55030 Par ch=1 c=64 v=0
55035 On ch=1 n=a2 v=58
55040 On ch=1 n=a3 v=60
55100 On ch=1 n=a2 v=0
55110 Par ch=1 c=64 v=56
55120 Par ch=1 c=64 v=127
55130 On ch=1 n=a3 v=0
55145 On ch=1 n=a4 v=0
55185 On ch=1 n=a5 v=0
55275 On ch=1 n=f#4 v=71
55290 On ch=1 n=d#4 v=45
55320 On ch=1 n=d#4 v=0
55330 On ch=1 n=f#4 v=0
55380 On ch=1 n=e4 v=68
55380 On ch=1 n=g4 v=70
55420 On ch=1 n=e4 v=0
55425 On ch=1 n=g4 v=0
55485 On ch=1 n=c5 v=61
55485 On ch=1 n=d#5 v=54
55545 On ch=1 n=d#5 v=0
55545 On ch=1 n=c5 v=0
55595 On ch=1 n=e5 v=71
55600 On ch=1 n=c#5 v=51
55635 On ch=1 n=c#5 v=0
55655 On ch=1 n=e5 v=0
55710 On ch=1 n=d#5 v=68
55805 On ch=1 n=g5 v=82
55845 On ch=1 n=g5 v=0
55870 On ch=1 n=d#5 v=0
55910 On ch=1 n=a4 v=71
55915 On ch=1 n=a5 v=84
55930 On ch=1 n=a4 v=0
55970 On ch=1 n=a5 v=0
56170 On ch=1 n=f#6 v=92
56170 On ch=1 n=f#5 v=77
56180 On ch=1 n=c6 v=82
56195 Par ch=1 c=64 v=104
56205 Par ch=1 c=64 v=24
56215 On ch=1 n=a#3 v=56
56220 Par ch=1 c=64 v=0
56230 On ch=1 n=c#3 v=30
56255 On ch=1 n=c#3 v=0
56275 On ch=1 n=e3 v=42
56295 Par ch=1 c=64 v=72
56310 On ch=1 n=e3 v=0
56310 Par ch=1 c=64 v=127
56340 On ch=1 n=a#3 v=0
56360 On ch=1 n=c6 v=0
56375 On ch=1 n=f#6 v=0
56380 On ch=1 n=f#5 v=0
56455 On ch=1 n=f4 v=66
56460 On ch=1 n=d4 v=64
56500 On ch=1 n=f4 v=0
56515 On ch=1 n=d4 v=0
56570 On ch=1 n=d#4 v=63
56580 On ch=1 n=f#4 v=55
56615 On ch=1 n=f#4 v=0
56620 On ch=1 n=d#4 v=0
56695 On ch=1 n=d5 v=62
56700 On ch=1 n=b4 v=57
56750 On ch=1 n=d5 v=0
56760 On ch=1 n=b4 v=0
56800 On ch=1 n=d#5 v=58
56805 On ch=1 n=c5 v=64
56830 On ch=1 n=c5 v=0
56860 On ch=1 n=d#5 v=0
56915 On ch=1 n=f5 v=64
56920 On ch=1 n=d5 v=48
56955 On ch=1 n=d5 v=0
56975 On ch=1 n=f5 v=0
57020 On ch=1 n=d#5 v=58
57030 On ch=1 n=f#5 v=61
57055 On ch=1 n=f#5 v=0
57060 On ch=1 n=d#5 v=0
57210 On ch=1 n=a5 v=88
57220 On ch=1 n=a4 v=67
57250 Par ch=1 c=64 v=24
57265 Par ch=1 c=64 v=0
57275 On ch=1 n=a3 v=53
57275 On ch=1 n=a2 v=58
57310 On ch=1 n=a2 v=0
57330 Par ch=1 c=64 v=56
57345 On ch=1 n=a3 v=0
57345 Par ch=1 c=64 v=127
57390 On ch=1 n=a4 v=0
57420 On ch=1 n=a5 v=0
57470 On ch=1 n=f4 v=71
57480 On ch=1 n=d4 v=59
57510 On ch=1 n=d4 v=0
57525 On ch=1 n=f4 v=0
57585 On ch=1 n=d#4 v=68
57590 On ch=1 n=f#4 v=69
57635 On ch=1 n=f#4 v=0
57635 On ch=1 n=d#4 v=0
57715 On ch=1 n=d5 v=64
57720 On ch=1 n=b4 v=45
57770 On ch=1 n=b4 v=0
57770 On ch=1 n=d5 v=0
57810 On ch=1 n=d#5 v=63
57820 On ch=1 n=c5 v=58
57845 On ch=1 n=c5 v=0
57870 On ch=1 n=d#5 v=0
57925 On ch=1 n=d5 v=46
57935 On ch=1 n=f5 v=55
57980 On ch=1 n=f5 v=0
57980 On ch=1 n=d5 v=0
58005 On ch=1 n=d#5 v=57
58005 On ch=1 n=f#5 v=76
58040 On ch=1 n=f#5 v=0
58055 On ch=1 n=d#5 v=0
58125 On ch=1 n=a5 v=85
58125 On ch=1 n=a4 v=69
58150 On ch=1 n=a4 v=0
58175 On ch=1 n=a5 v=0
58355 On ch=1 n=f6 v=99
58360 On ch=1 n=g#5 v=76
58360 Par ch=1 c=64 v=72
58365 On ch=1 n=f5 v=78
58375 Par ch=1 c=64 v=0
58380 On ch=1 n=b3 v=70
58385 On ch=1 n=d3 v=64
58385 On ch=1 n=b2 v=60
58450 Par ch=1 c=64 v=72
58460 On ch=1 n=b2 v=0
58460 On ch=1 n=d3 v=0
58465 Par ch=1 c=64 v=127
58500 On ch=1 n=b3 v=0
58520 On ch=1 n=f6 v=0
58550 On ch=1 n=g#5 v=0
58560 On ch=1 n=f5 v=0
58630 On ch=1 n=e4 v=66
58645 On ch=1 n=c#4 v=34
58655 On ch=1 n=e4 v=0
58670 On ch=1 n=c#4 v=0
58735 On ch=1 n=d4 v=59
58735 On ch=1 n=f4 v=63
58760 On ch=1 n=d4 v=0
58770 On ch=1 n=f4 v=0
58840 On ch=1 n=a#4 v=57
58850 On ch=1 n=g4 v=62
58910 On ch=1 n=a#4 v=0
58930 On ch=1 n=g4 v=0
58950 On ch=1 n=b4 v=54
58995 On ch=1 n=b4 v=0
59085 On ch=1 n=e5 v=63
59125 On ch=1 n=e5 v=0
59165 On ch=1 n=d5 v=69
59170 On ch=1 n=f5 v=71
59205 On ch=1 n=f5 v=0
59215 On ch=1 n=d5 v=0
59280 On ch=1 n=f6 v=94
59280 On ch=1 n=f5 v=74
59335 On ch=1 n=f6 v=0
59340 On ch=1 n=f5 v=0
59440 On ch=1 n=e6 v=96
59450 On ch=1 n=g#5 v=69
59450 On ch=1 n=e5 v=74
59460 Par ch=1 c=64 v=0
59470 On ch=1 n=a#3 v=73
59470 On ch=1 n=d3 v=74
59475 On ch=1 n=a#2 v=63
59550 Par ch=1 c=64 v=127
59560 On ch=1 n=d3 v=0
59570 On ch=1 n=a#2 v=0
59600 On ch=1 n=a#3 v=0
59610 On ch=1 n=e6 v=0
59640 On ch=1 n=e5 v=0
59640 On ch=1 n=g#5 v=0
59725 On ch=1 n=e4 v=70
59735 On ch=1 n=c#4 v=45
59755 On ch=1 n=c#4 v=0
59760 On ch=1 n=e4 v=0
59835 On ch=1 n=d4 v=66
59840 On ch=1 n=f4 v=64
59890 On ch=1 n=d4 v=0
59900 On ch=1 n=f4 v=0
59945 On ch=1 n=c#5 v=57
59965 On ch=1 n=a4 v=49
60000 On ch=1 n=a4 v=0
60015 On ch=1 n=c#5 v=0
60060 On ch=1 n=d5 v=73
60060 On ch=1 n=g#4 v=49
60080 On ch=1 n=g#4 v=0
60130 On ch=1 n=d5 v=0
60210 On ch=1 n=d#5 v=72
60210 On ch=1 n=g4 v=65
60260 On ch=1 n=g4 v=0
60265 On ch=1 n=d#5 v=0
60310 On ch=1 n=e5 v=75
60320 On ch=1 n=g#4 v=69
60350 On ch=1 n=e5 v=0
60380 On ch=1 n=g#4 v=0
60495 On ch=1 n=d6 v=85
60510 On ch=1 n=d5 v=76
60570 On ch=1 n=d5 v=0
60570 On ch=1 n=d6 v=0
60720 On ch=1 n=a5 v=84
60730 On ch=1 n=a4 v=59
60730 On ch=1 n=c#5 v=50
60750 On ch=1 n=a3 v=60
60765 On ch=1 n=a2 v=38
60985 On ch=1 n=a3 v=0
60985 On ch=1 n=c#5 v=0
60985 On ch=1 n=a4 v=0
60995 On ch=1 n=a2 v=0
60995 On ch=1 n=a5 v=0
61105 On ch=1 n=c#6 v=80
61110 On ch=1 n=a#3 v=52
61115 On ch=1 n=g4 v=54
61125 On ch=1 n=e5 v=63
61140 Par ch=1 c=64 v=40
61155 Par ch=1 c=64 v=72
61165 Par ch=1 c=64 v=88
61180 Par ch=1 c=64 v=127
61190 On ch=1 n=a#3 v=0
61215 On ch=1 n=e5 v=0
61235 On ch=1 n=f5 v=70
61245 On ch=1 n=g4 v=0
61250 On ch=1 n=g#4 v=60
61280 On ch=1 n=c#6 v=0
61345 On ch=1 n=f#5 v=70
61350 On ch=1 n=g#4 v=0
61355 On ch=1 n=f5 v=0
61365 On ch=1 n=a4 v=54
61390 On ch=1 n=f#5 v=0
61435 Par ch=1 c=64 v=88
61440 On ch=1 n=a4 v=0
61445 Par ch=1 c=64 v=72
61460 Par ch=1 c=64 v=24
61470 Par ch=1 c=64 v=0
61490 On ch=1 n=a#4 v=61
61490 On ch=1 n=e6 v=88
61500 On ch=1 n=g5 v=70
61505 On ch=1 n=c#4 v=51
61570 On ch=1 n=g5 v=0
61575 Par ch=1 c=64 v=40
61585 Par ch=1 c=64 v=88
61590 On ch=1 n=c#4 v=0
61600 Par ch=1 c=64 v=127
61615 On ch=1 n=a#4 v=0
61620 On ch=1 n=b4 v=69
61625 On ch=1 n=g#5 v=71
61725 On ch=1 n=g#5 v=0
61725 On ch=1 n=b4 v=0
61725 On ch=1 n=e6 v=0
61750 On ch=1 n=c5 v=47
61755 On ch=1 n=a5 v=82
61815 On ch=1 n=c5 v=0
61840 On ch=1 n=a5 v=0
61855 Par ch=1 c=64 v=104
61865 Par ch=1 c=64 v=40
61880 Par ch=1 c=64 v=0
61885 On ch=1 n=c#5 v=59
61885 On ch=1 n=g6 v=93
61890 On ch=1 n=a#5 v=77
61895 On ch=1 n=e4 v=62
61955 Par ch=1 c=64 v=56
61970 On ch=1 n=e4 v=0
61970 Par ch=1 c=64 v=127
61975 On ch=1 n=a#5 v=0
62000 On ch=1 n=c#5 v=0
62005 On ch=1 n=b5 v=81
62010 On ch=1 n=d5 v=77
62090 On ch=1 n=d5 v=0
62125 On ch=1 n=d#5 v=64
62130 On ch=1 n=b5 v=0
62130 On ch=1 n=g6 v=0
62130 On ch=1 n=c6 v=85
62195 On ch=1 n=c6 v=0
62235 On ch=1 n=d#5 v=0
62250 Par ch=1 c=64 v=56
62260 Par ch=1 c=64 v=0
62270 On ch=1 n=a#6 v=87
62275 On ch=1 n=c#6 v=90
62275 On ch=1 n=e5 v=81
62290 On ch=1 n=g4 v=70
62325 Par ch=1 c=64 v=40
62340 Par ch=1 c=64 v=88
62350 Par ch=1 c=64 v=127
62360 On ch=1 n=c#6 v=0
62370 On ch=1 n=e5 v=0
62400 On ch=1 n=d6 v=82
62400 On ch=1 n=d5 v=75
62475 On ch=1 n=g4 v=0
62485 On ch=1 n=d6 v=0
62495 On ch=1 n=a#6 v=0
62505 On ch=1 n=d5 v=0
62515 On ch=1 n=c#5 v=74
62525 On ch=1 n=e6 v=87
62555 On ch=1 n=c#5 v=0
62595 On ch=1 n=e6 v=0
62620 Par ch=1 c=64 v=104
62630 Par ch=1 c=64 v=0
62665 On ch=1 n=d4 v=71
62670 On ch=1 n=b4 v=41
62680 On ch=1 n=b6 v=102
62680 On ch=1 n=b5 v=92
62680 On ch=1 n=e4 v=43
62685 On ch=1 n=g#4 v=64
62705 On ch=1 n=d4 v=0
62720 On ch=1 n=e4 v=0
62735 On ch=1 n=f5 v=72
62735 Par ch=1 c=64 v=88
62745 Par ch=1 c=64 v=127
62775 On ch=1 n=b4 v=0
62790 On ch=1 n=f5 v=0
62795 On ch=1 n=g#4 v=0
62805 On ch=1 n=f6 v=81
62835 On ch=1 n=b6 v=0
62875 On ch=1 n=b5 v=0
62910 On ch=1 n=g#6 v=77
62920 On ch=1 n=f6 v=0
62950 On ch=1 n=g#6 v=0
63090 On ch=1 n=e7 v=100
63095 On ch=1 n=e6 v=86
63095 Par ch=1 c=64 v=104
63100 On ch=1 n=c#7 v=82
63105 On ch=1 n=a6 v=81
63105 Par ch=1 c=64 v=0
63110 On ch=1 n=e4 v=72
63115 On ch=1 n=a4 v=71
63120 On ch=1 n=a3 v=73
63195 Par ch=1 c=64 v=56
63205 Par ch=1 c=64 v=127
63225 On ch=1 n=a3 v=0
63235 On ch=1 n=a6 v=0
63245 On ch=1 n=e4 v=0
63250 On ch=1 n=a4 v=0
63255 On ch=1 n=c#7 v=0
63260 On ch=1 n=e6 v=0
63260 On ch=1 n=e7 v=0
63485 Par ch=1 c=64 v=56
63500 Par ch=1 c=64 v=0
63505 On ch=1 n=c#7 v=82
63515 On ch=1 n=a#4 v=48
63520 On ch=1 n=g5 v=60
63520 On ch=1 n=e6 v=70
63575 Par ch=1 c=64 v=24
63590 On ch=1 n=a#4 v=0
63590 Par ch=1 c=64 v=88
63600 Par ch=1 c=64 v=127
63605 On ch=1 n=g5 v=0
63610 On ch=1 n=e6 v=0
63625 On ch=1 n=f6 v=68
63655 On ch=1 n=g#5 v=59
63690 On ch=1 n=c#7 v=0
63740 On ch=1 n=g#5 v=0
63750 On ch=1 n=f6 v=0
63750 On ch=1 n=f#6 v=65
63765 On ch=1 n=a5 v=66
63800 On ch=1 n=f#6 v=0
63845 On ch=1 n=a5 v=0
63880 On ch=1 n=a#5 v=70
63880 Par ch=1 c=64 v=56
63885 On ch=1 n=e7 v=92
63885 On ch=1 n=g6 v=81
63895 Par ch=1 c=64 v=0
63900 On ch=1 n=c#5 v=51
63930 Par ch=1 c=64 v=40
63945 Par ch=1 c=64 v=104
63955 Par ch=1 c=64 v=127
63960 On ch=1 n=g6 v=0
63985 On ch=1 n=c#5 v=0
63995 On ch=1 n=a#5 v=0
64005 On ch=1 n=b5 v=78
64010 On ch=1 n=g#6 v=74
64105 On ch=1 n=g#6 v=0
64105 On ch=1 n=b5 v=0
64105 On ch=1 n=e7 v=0
64135 On ch=1 n=a6 v=86
64135 On ch=1 n=c6 v=71
64210 On ch=1 n=c6 v=0
64225 On ch=1 n=a6 v=0
64250 Par ch=1 c=64 v=104
64265 On ch=1 n=g7 v=92
64265 Par ch=1 c=64 v=40
64270 On ch=1 n=a#6 v=79
64270 On ch=1 n=c#6 v=65
64275 On ch=1 n=e5 v=64
64275 Par ch=1 c=64 v=0
64315 Par ch=1 c=64 v=24
64330 Par ch=1 c=64 v=88
64340 On ch=1 n=e5 v=0
64340 Par ch=1 c=64 v=127
64360 On ch=1 n=a#6 v=0
64380 On ch=1 n=c#6 v=0
64380 On ch=1 n=b6 v=78
64385 On ch=1 n=d6 v=77
64485 On ch=1 n=d6 v=0
64495 On ch=1 n=b6 v=0
64500 On ch=1 n=c7 v=90
64510 On ch=1 n=d#6 v=61
64515 On ch=1 n=g7 v=0
64555 On ch=1 n=c7 v=0
64620 On ch=1 n=d#6 v=0
64620 Par ch=1 c=64 v=88
64635 Par ch=1 c=64 v=0
64645 On ch=1 n=a#7 v=90
64645 On ch=1 n=c#7 v=89
64650 On ch=1 n=e6 v=79
64665 On ch=1 n=g5 v=68
64685 Par ch=1 c=64 v=56
64695 On ch=1 n=c#7 v=0
64700 Par ch=1 c=64 v=127
64740 On ch=1 n=e6 v=0
64750 On ch=1 n=g5 v=0
64765 On ch=1 n=d7 v=79
64775 On ch=1 n=d6 v=68
64825 On ch=1 n=a#7 v=0
64855 On ch=1 n=d7 v=0
64865 On ch=1 n=d6 v=0
64895 On ch=1 n=e7 v=89
64900 On ch=1 n=c#6 v=69
64920 On ch=1 n=c#6 v=0
64960 On ch=1 n=e7 v=0
65005 Par ch=1 c=64 v=104
65015 Par ch=1 c=64 v=0
65030 On ch=1 n=d5 v=71
65060 On ch=1 n=b7 v=103
65060 On ch=1 n=b6 v=92
65060 On ch=1 n=b5 v=49
65065 On ch=1 n=g#5 v=65
65080 On ch=1 n=d5 v=0
65095 Par ch=1 c=64 v=56
65105 Par ch=1 c=64 v=127
65115 On ch=1 n=f6 v=76
65145 On ch=1 n=b5 v=0
65155 On ch=1 n=g#5 v=0
65160 On ch=1 n=f6 v=0
65180 On ch=1 n=f7 v=77
65215 On ch=1 n=b7 v=0
65265 On ch=1 n=b6 v=0
65285 On ch=1 n=g#7 v=74
65300 On ch=1 n=f7 v=0
65320 On ch=1 n=g#7 v=0
65460 Par ch=1 c=64 v=40
65465 On ch=1 n=e8 v=100
65470 On ch=1 n=e7 v=85
65475 On ch=1 n=a5 v=77
65475 On ch=1 n=a7 v=83
65475 Par ch=1 c=64 v=0
65480 On ch=1 n=c#8 v=69
65480 On ch=1 n=e5 v=70
65480 On ch=1 n=c#5 v=64
65480 On ch=1 n=a4 v=68
65555 Par ch=1 c=64 v=127
65560 On ch=1 n=a7 v=0
65565 On ch=1 n=a5 v=0
65570 On ch=1 n=a4 v=0
65570 On ch=1 n=e5 v=0
65575 On ch=1 n=e7 v=0
65580 On ch=1 n=e8 v=0
65585 On ch=1 n=c#8 v=0
65590 On ch=1 n=c#5 v=0
65830 Par ch=1 c=64 v=104
65845 On ch=1 n=b7 v=99
65845 On ch=1 n=b6 v=97
65845 Par ch=1 c=64 v=0
65860 On ch=1 n=d5 v=81
65865 On ch=1 n=g#4 v=67
65870 On ch=1 n=d4 v=71
65870 On ch=1 n=f4 v=71
65920 Par ch=1 c=64 v=72
65935 Par ch=1 c=64 v=127
65945 On ch=1 n=d4 v=0
65945 On ch=1 n=d5 v=0
65960 On ch=1 n=f4 v=0
65960 On ch=1 n=g#4 v=0
65970 On ch=1 n=f7 v=90
66030 On ch=1 n=b7 v=0
66085 On ch=1 n=b6 v=0
66095 On ch=1 n=g#7 v=92
66115 On ch=1 n=f7 v=0
66145 On ch=1 n=g#7 v=0
66255 Par ch=1 c=64 v=24
66265 On ch=1 n=e8 v=103
66265 Par ch=1 c=64 v=0
66275 On ch=1 n=a7 v=87
66275 On ch=1 n=e7 v=85
66275 On ch=1 n=c#8 v=78
66275 On ch=1 n=a4 v=77
66275 On ch=1 n=a3 v=79
66275 On ch=1 n=e4 v=75
66275 On ch=1 n=c#4 v=72
66340 Par ch=1 c=64 v=88
66350 On ch=1 n=e4 v=0
66350 On ch=1 n=a4 v=0
66350 On ch=1 n=a7 v=0
66355 On ch=1 n=a3 v=0
66355 Par ch=1 c=64 v=127
66365 On ch=1 n=c#4 v=0
66365 On ch=1 n=c#8 v=0
66375 On ch=1 n=e8 v=0
66395 On ch=1 n=e7 v=0
66620 Par ch=1 c=64 v=56
66635 Par ch=1 c=64 v=0
66655 On ch=1 n=b6 v=102
66655 On ch=1 n=b7 v=107
66665 On ch=1 n=g#3 v=79
66665 On ch=1 n=d4 v=89
66670 On ch=1 n=d3 v=73
66670 On ch=1 n=f3 v=70
66725 Par ch=1 c=64 v=127
66730 On ch=1 n=d3 v=0
66740 On ch=1 n=d4 v=0
66750 On ch=1 n=f3 v=0
66755 On ch=1 n=g#3 v=0
66775 On ch=1 n=f7 v=82
66805 On ch=1 n=b7 v=0
66875 On ch=1 n=b6 v=0
66890 On ch=1 n=g#7 v=84
66905 On ch=1 n=f7 v=0
66930 On ch=1 n=g#7 v=0
67055 Par ch=1 c=64 v=88
67065 On ch=1 n=e8 v=102
67070 Par ch=1 c=64 v=0
67075 On ch=1 n=e7 v=85
67075 On ch=1 n=a2 v=83
67075 On ch=1 n=c#3 v=74
67075 On ch=1 n=c#8 v=84
67075 On ch=1 n=a3 v=86
67080 On ch=1 n=a7 v=78
67080 On ch=1 n=e3 v=74
67105 On ch=1 n=a7 v=0
67135 On ch=1 n=a2 v=0
67135 Par ch=1 c=64 v=88
67145 On ch=1 n=e3 v=0
67145 Par ch=1 c=64 v=127
67155 On ch=1 n=a3 v=0
67155 On ch=1 n=c#3 v=0
67155 On ch=1 n=e8 v=0
67165 On ch=1 n=c#8 v=0
67180 On ch=1 n=e7 v=0
67460 On ch=1 n=b6 v=96
67460 On ch=1 n=b7 v=100
67465 Par ch=1 c=64 v=40
67475 On ch=1 n=d4 v=89
67475 On ch=1 n=g#3 v=73
67475 Par ch=1 c=64 v=0
67480 On ch=1 n=d3 v=72
67485 On ch=1 n=f3 v=70
67540 Par ch=1 c=64 v=104
67555 Par ch=1 c=64 v=127
67565 On ch=1 n=d4 v=0
67570 On ch=1 n=d3 v=0
67580 On ch=1 n=f7 v=74
67590 On ch=1 n=g#3 v=0
67595 On ch=1 n=f3 v=0
67660 On ch=1 n=b7 v=0
67670 On ch=1 n=b6 v=0
67680 On ch=1 n=g#7 v=73
67700 On ch=1 n=f7 v=0
67720 On ch=1 n=g#7 v=0
67915 On ch=1 n=e8 v=105
67920 On ch=1 n=e7 v=89
67920 On ch=1 n=c#8 v=82
67925 On ch=1 n=a7 v=92
67925 On ch=1 n=a2 v=81
67925 On ch=1 n=e3 v=76
67925 On ch=1 n=a3 v=82
67925 Par ch=1 c=64 v=40
67930 On ch=1 n=c#3 v=71
67935 Par ch=1 c=64 v=0
68015 Par ch=1 c=64 v=104
68025 Par ch=1 c=64 v=127
68105 On ch=1 n=e8 v=0
68115 On ch=1 n=a7 v=0
68125 On ch=1 n=a2 v=0
68125 On ch=1 n=c#8 v=0
68135 On ch=1 n=c#3 v=0
68135 On ch=1 n=e7 v=0
68145 On ch=1 n=e3 v=0
68150 On ch=1 n=a3 v=0
68672 On ch=1 n=a#6 v=106
68672 On ch=1 n=a#5 v=89
68682 On ch=1 n=a#4 v=87
68687 On ch=1 n=a#3 v=77
68802 Par ch=1 c=64 v=72
68812 Par ch=1 c=64 v=0
69067 Par ch=1 c=64 v=127
69157 On ch=1 n=a#3 v=0
69177 On ch=1 n=a#4 v=0
69197 On ch=1 n=a#6 v=0
69202 On ch=1 n=a#5 v=0
69422 On ch=1 n=a6 v=97
69427 On ch=1 n=a5 v=88
69437 On ch=1 n=a4 v=80
69437 Par ch=1 c=64 v=72
69442 On ch=1 n=a3 v=82
69452 Par ch=1 c=64 v=0
69502 Par ch=1 c=64 v=72
69512 On ch=1 n=a3 v=0
69512 Par ch=1 c=64 v=127
69527 On ch=1 n=a4 v=0
69527 On ch=1 n=a6 v=0
69537 On ch=1 n=a5 v=0
69722 On ch=1 n=g6 v=97
69727 On ch=1 n=g5 v=84
69732 On ch=1 n=g4 v=82
69732 On ch=1 n=g3 v=74
69787 On ch=1 n=g4 v=0
69792 On ch=1 n=g3 v=0
69812 On ch=1 n=g5 v=0
69817 On ch=1 n=g6 v=0
69937 On ch=1 n=f6 v=93
69947 On ch=1 n=f5 v=74
69952 On ch=1 n=f4 v=74
69957 On ch=1 n=f3 v=73
69997 On ch=1 n=f3 v=0
70007 On ch=1 n=f4 v=0
70017 On ch=1 n=f5 v=0
70027 On ch=1 n=f6 v=0
70127 On ch=1 n=e6 v=92
70137 On ch=1 n=e5 v=73
70142 On ch=1 n=e4 v=69
70157 On ch=1 n=e3 v=62
70177 On ch=1 n=e3 v=0
70187 On ch=1 n=e5 v=0
70197 On ch=1 n=e4 v=0
70207 On ch=1 n=e6 v=0
70312 On ch=1 n=d6 v=90
70317 On ch=1 n=d5 v=74
70327 On ch=1 n=d4 v=78
70337 On ch=1 n=d3 v=63
70377 On ch=1 n=d4 v=0
70377 On ch=1 n=d5 v=0
70382 On ch=1 n=d3 v=0
70392 On ch=1 n=d6 v=0
70457 Par ch=1 c=64 v=56
70472 Par ch=1 c=64 v=0
70502 On ch=1 n=c#5 v=82
70502 On ch=1 n=c#4 v=90
70502 On ch=1 n=c#6 v=84
70502 On ch=1 n=c#3 v=80
70532 Par ch=1 c=64 v=40
70542 On ch=1 n=c#3 v=0
70547 On ch=1 n=c#4 v=0
70547 Par ch=1 c=64 v=127
70552 On ch=1 n=c#5 v=0
70597 On ch=1 n=c#6 v=0
70687 On ch=1 n=e6 v=93
70692 On ch=1 n=e5 v=80
70702 On ch=1 n=e4 v=80
70702 On ch=1 n=e3 v=71
70727 On ch=1 n=e4 v=0
70737 On ch=1 n=e5 v=0
70737 On ch=1 n=e6 v=0
70747 On ch=1 n=e3 v=0
70837 Par ch=1 c=64 v=88
70852 Par ch=1 c=64 v=0
70862 On ch=1 n=c5 v=88
70862 On ch=1 n=c6 v=96
70882 On ch=1 n=c3 v=66
70887 On ch=1 n=c4 v=71
70902 On ch=1 n=c5 v=0
70907 Par ch=1 c=64 v=56
70917 Par ch=1 c=64 v=127
70922 On ch=1 n=c6 v=0
70927 On ch=1 n=c3 v=0
70937 On ch=1 n=c4 v=0
71042 On ch=1 n=e6 v=87
71047 On ch=1 n=e4 v=81
71052 On ch=1 n=e5 v=73
71052 On ch=1 n=e3 v=68
71077 On ch=1 n=e4 v=0
71097 On ch=1 n=e3 v=0
71097 On ch=1 n=e5 v=0
71102 On ch=1 n=e6 v=0
71197 Par ch=1 c=64 v=72
71212 Par ch=1 c=64 v=0
71222 On ch=1 n=b5 v=89
71222 On ch=1 n=b4 v=83
71232 On ch=1 n=b3 v=81
71232 On ch=1 n=b2 v=68
71262 On ch=1 n=b4 v=0
71262 Par ch=1 c=64 v=24
71272 Par ch=1 c=64 v=104
71277 On ch=1 n=b2 v=0
71282 On ch=1 n=b3 v=0
71282 On ch=1 n=b5 v=0
71287 Par ch=1 c=64 v=127
71412 On ch=1 n=e6 v=83
71422 On ch=1 n=e5 v=75
71422 On ch=1 n=e4 v=80
71427 On ch=1 n=e3 v=60
71452 On ch=1 n=e4 v=0
71457 On ch=1 n=e6 v=0
71467 On ch=1 n=e5 v=0
71472 On ch=1 n=e3 v=0
71587 On ch=1 n=a#2 v=83
71587 On ch=1 n=a#3 v=93
71592 On ch=1 n=a#5 v=83
71592 On ch=1 n=a#4 v=71
71612 On ch=1 n=a#4 v=0
71622 On ch=1 n=a#5 v=0
71622 On ch=1 n=a#3 v=0
71622 On ch=1 n=a#2 v=0
71787 On ch=1 n=e6 v=93
71792 On ch=1 n=e4 v=86
71797 On ch=1 n=e5 v=76
71807 On ch=1 n=e3 v=71
71817 On ch=1 n=e5 v=0
71827 On ch=1 n=e3 v=0
71832 On ch=1 n=e4 v=0
71832 On ch=1 n=e6 v=0
72027 On ch=1 n=a5 v=94
72027 Par ch=1 c=64 v=40
72032 On ch=1 n=a4 v=88
72037 On ch=1 n=a2 v=86
72037 On ch=1 n=a3 v=100
72037 Par ch=1 c=64 v=0
72092 On ch=1 n=a4 v=0
72117 Par ch=1 c=64 v=104
72127 Par ch=1 c=64 v=127
72137 On ch=1 n=a2 v=0
72147 On ch=1 n=a3 v=0
72147 On ch=1 n=a5 v=0
72507 On ch=1 n=c#7 v=110
72512 On ch=1 n=c#6 v=100
72517 On ch=1 n=c#5 v=97
72522 On ch=1 n=c#4 v=89
72637 Par ch=1 c=64 v=104
72652 Par ch=1 c=64 v=40
72667 Par ch=1 c=64 v=0
72852 Par ch=1 c=64 v=88
72867 Par ch=1 c=64 v=127
72967 On ch=1 n=c#4 v=0
72967 On ch=1 n=c#5 v=0
72967 On ch=1 n=c#7 v=0
72982 On ch=1 n=c#6 v=0
73202 On ch=1 n=a#6 v=87
73207 On ch=1 n=a#5 v=81
73222 On ch=1 n=a#3 v=77
73222 On ch=1 n=a#4 v=77
73237 Par ch=1 c=64 v=104
73247 Par ch=1 c=64 v=0
73312 Par ch=1 c=64 v=40
73327 Par ch=1 c=64 v=127
73332 On ch=1 n=a#3 v=0
73337 On ch=1 n=a#5 v=0
73377 On ch=1 n=a#4 v=0
73377 On ch=1 n=a#6 v=0
73477 Par ch=1 c=64 v=72
73492 On ch=1 n=a6 v=90
73492 Par ch=1 c=64 v=0
73497 On ch=1 n=a5 v=84
73502 On ch=1 n=a4 v=80
73507 On ch=1 n=a3 v=79
73527 Par ch=1 c=64 v=56
73542 Par ch=1 c=64 v=127
73562 On ch=1 n=a3 v=0
73582 On ch=1 n=a4 v=0
73592 On ch=1 n=a5 v=0
73597 On ch=1 n=a6 v=0
73717 On ch=1 n=g6 v=92
73722 On ch=1 n=g5 v=79
73727 On ch=1 n=g4 v=74
73732 On ch=1 n=g3 v=64
73782 On ch=1 n=g4 v=0
73792 On ch=1 n=g3 v=0
73792 On ch=1 n=g5 v=0
73802 On ch=1 n=g6 v=0
73897 On ch=1 n=f6 v=93
73902 On ch=1 n=f5 v=78
73912 On ch=1 n=f4 v=75
73917 On ch=1 n=f3 v=70
73957 On ch=1 n=f5 v=0
73962 On ch=1 n=f4 v=0
73967 On ch=1 n=f3 v=0
73967 On ch=1 n=f6 v=0
74052 Par ch=1 c=64 v=88
74062 On ch=1 n=e6 v=94
74062 On ch=1 n=e5 v=82
74067 Par ch=1 c=64 v=24
74077 Par ch=1 c=64 v=0
74082 On ch=1 n=e4 v=72
74087 On ch=1 n=e3 v=66
74092 Par ch=1 c=64 v=24
74102 Par ch=1 c=64 v=56
74112 On ch=1 n=e5 v=0
74117 Par ch=1 c=64 v=127
74127 On ch=1 n=e3 v=0
74127 On ch=1 n=e6 v=0
74137 On ch=1 n=e4 v=0
74247 On ch=1 n=g4 v=77
74247 On ch=1 n=g6 v=66
74252 On ch=1 n=g3 v=70
74257 On ch=1 n=f5 v=34
74267 On ch=1 n=g6 v=0
74287 On ch=1 n=f5 v=0
74287 On ch=1 n=g4 v=0
74292 On ch=1 n=g3 v=0
74372 Par ch=1 c=64 v=88
74382 Par ch=1 c=64 v=0
74402 On ch=1 n=d#6 v=82
74402 On ch=1 n=d#5 v=79
74407 On ch=1 n=d#4 v=76
74407 On ch=1 n=d#3 v=71
74412 Par ch=1 c=64 v=24
74422 Par ch=1 c=64 v=72
74437 On ch=1 n=d#3 v=0
74437 Par ch=1 c=64 v=127
74447 On ch=1 n=d#5 v=0
74452 On ch=1 n=d#4 v=0
74472 On ch=1 n=d#6 v=0
74572 On ch=1 n=a4 v=68
74572 On ch=1 n=g6 v=88
74582 On ch=1 n=g5 v=76
74582 On ch=1 n=a3 v=63
74612 On ch=1 n=a4 v=0
74617 On ch=1 n=a3 v=0
74617 On ch=1 n=g5 v=0
74627 On ch=1 n=g6 v=0
74727 Par ch=1 c=64 v=104
74742 Par ch=1 c=64 v=24
74747 On ch=1 n=d4 v=82
74752 On ch=1 n=d5 v=80
74752 On ch=1 n=d6 v=90
74752 On ch=1 n=d3 v=71
74757 Par ch=1 c=64 v=0
74767 Par ch=1 c=64 v=40
74772 On ch=1 n=d5 v=0
74782 Par ch=1 c=64 v=88
74787 On ch=1 n=d3 v=0
74792 On ch=1 n=d6 v=0
74792 Par ch=1 c=64 v=127
74797 On ch=1 n=d4 v=0
74922 On ch=1 n=g6 v=87
74922 On ch=1 n=g4 v=73
74932 On ch=1 n=g5 v=62
74937 On ch=1 n=g3 v=62
74947 On ch=1 n=g4 v=0
74952 On ch=1 n=g5 v=0
74962 On ch=1 n=g3 v=0
74972 On ch=1 n=g6 v=0
75072 Par ch=1 c=64 v=40
75087 Par ch=1 c=64 v=0
75092 On ch=1 n=c#6 v=87
75092 On ch=1 n=c#4 v=84
75092 On ch=1 n=c#5 v=79
75102 On ch=1 n=c#3 v=75
75102 Par ch=1 c=64 v=40
75112 Par ch=1 c=64 v=72
75127 On ch=1 n=c#5 v=0
75127 Par ch=1 c=64 v=127
75132 On ch=1 n=c#3 v=0
75132 On ch=1 n=c#6 v=0
75137 On ch=1 n=c#4 v=0
75282 On ch=1 n=g6 v=87
75292 On ch=1 n=g5 v=79
75302 On ch=1 n=g4 v=76
75312 On ch=1 n=g3 v=63
75327 On ch=1 n=g4 v=0
75337 On ch=1 n=g6 v=0
75342 On ch=1 n=g5 v=0
75347 On ch=1 n=g3 v=0
75462 On ch=1 n=a#3 v=85
75467 On ch=1 n=a#5 v=86
75467 On ch=1 n=a#4 v=76
75467 On ch=1 n=a#2 v=77
75487 On ch=1 n=a#4 v=0
75492 On ch=1 n=a#2 v=0
75497 On ch=1 n=a#3 v=0
75502 On ch=1 n=a#5 v=0
75667 On ch=1 n=g6 v=96
75672 On ch=1 n=g5 v=82
75677 On ch=1 n=g4 v=75
75682 On ch=1 n=g3 v=71
75697 On ch=1 n=g4 v=0
75707 On ch=1 n=g6 v=0
75712 On ch=1 n=g3 v=0
75712 On ch=1 n=g5 v=0
75902 Par ch=1 c=64 v=56
75912 On ch=1 n=a5 v=99
75917 On ch=1 n=a4 v=89
75917 Par ch=1 c=64 v=0
75927 On ch=1 n=a3 v=100
75927 On ch=1 n=a2 v=83
75972 On ch=1 n=a4 v=0
75987 On ch=1 n=a2 v=0
75992 Par ch=1 c=64 v=104
76002 On ch=1 n=a3 v=0
76007 Par ch=1 c=64 v=127
76017 On ch=1 n=a5 v=0
76342 On ch=1 n=e7 v=105
76347 On ch=1 n=e6 v=99
76357 On ch=1 n=e5 v=87
76357 On ch=1 n=e4 v=80
76477 Par ch=1 c=64 v=40
76487 Par ch=1 c=64 v=0
76577 Par ch=1 c=64 v=104
76592 Par ch=1 c=64 v=127
76742 On ch=1 n=e4 v=0
76752 On ch=1 n=e7 v=0
76762 On ch=1 n=e5 v=0
76762 On ch=1 n=e6 v=0
76812 On ch=1 n=d7 v=97
76817 On ch=1 n=d6 v=97
76837 On ch=1 n=d5 v=82
76837 On ch=1 n=d4 v=82
76842 Par ch=1 c=64 v=104
76857 Par ch=1 c=64 v=24
76887 Par ch=1 c=64 v=72
76897 Par ch=1 c=64 v=127
76912 On ch=1 n=d6 v=0
76917 On ch=1 n=d4 v=0
76917 On ch=1 n=d5 v=0
76947 On ch=1 n=d7 v=0
77032 On ch=1 n=c#7 v=89
77032 On ch=1 n=c#6 v=88
77037 On ch=1 n=c#5 v=73
77042 On ch=1 n=c#4 v=74
77067 On ch=1 n=c#4 v=0
77082 On ch=1 n=c#5 v=0
77087 On ch=1 n=c#6 v=0
77107 On ch=1 n=c#7 v=0
77217 On ch=1 n=a#6 v=85
77222 On ch=1 n=a#5 v=84
77222 On ch=1 n=a#4 v=64
77227 On ch=1 n=a#3 v=67
77277 On ch=1 n=a#5 v=0
77282 On ch=1 n=a#3 v=0
77292 On ch=1 n=a#4 v=0
77292 On ch=1 n=a#6 v=0
77392 Par ch=1 c=64 v=104
77397 On ch=1 n=a6 v=87
77402 On ch=1 n=a5 v=79
77407 On ch=1 n=a4 v=77
77407 Par ch=1 c=64 v=0
77412 On ch=1 n=a3 v=80
77452 On ch=1 n=a3 v=0
77457 On ch=1 n=a4 v=0
77457 Par ch=1 c=64 v=40
77462 On ch=1 n=a5 v=0
77472 Par ch=1 c=64 v=104
77482 Par ch=1 c=64 v=127
77492 On ch=1 n=a6 v=0
77507 Par ch=1 c=64 v=88
77522 Par ch=1 c=64 v=40
77532 Par ch=1 c=64 v=0
77557 Par ch=1 c=64 v=40
77572 Par ch=1 c=64 v=88
77577 On ch=1 n=g5 v=70
77582 Par ch=1 c=64 v=127
77587 On ch=1 n=g7 v=86
77592 On ch=1 n=g4 v=70
77597 On ch=1 n=g6 v=73
77612 On ch=1 n=g4 v=0
77617 On ch=1 n=g6 v=0
77632 On ch=1 n=g5 v=0
77637 On ch=1 n=g7 v=0
77772 On ch=1 n=f7 v=94
77777 On ch=1 n=f6 v=87
77777 On ch=1 n=f5 v=72
77782 On ch=1 n=f4 v=74
77822 On ch=1 n=f4 v=0
77827 On ch=1 n=f5 v=0
77827 On ch=1 n=f6 v=0
77842 On ch=1 n=f7 v=0
77942 On ch=1 n=e7 v=94
77952 On ch=1 n=e6 v=82
77957 On ch=1 n=e5 v=71
77962 On ch=1 n=e4 v=78
78007 On ch=1 n=e5 v=0
78007 On ch=1 n=e6 v=0
78017 On ch=1 n=e4 v=0
78017 On ch=1 n=e7 v=0
78117 On ch=1 n=d7 v=96
78122 On ch=1 n=d5 v=74
78122 On ch=1 n=d6 v=85
78132 On ch=1 n=d4 v=73
78162 On ch=1 n=d4 v=0
78167 On ch=1 n=d6 v=0
78172 On ch=1 n=d5 v=0
78187 On ch=1 n=d7 v=0
78267 Par ch=1 c=64 v=0
78287 On ch=1 n=c#6 v=85
78287 On ch=1 n=c#7 v=91
78297 On ch=1 n=c#5 v=83
78297 On ch=1 n=c#4 v=84
78312 On ch=1 n=a#6 v=28
78317 On ch=1 n=c#4 v=0
78322 On ch=1 n=c#6 v=0
78332 On ch=1 n=a#6 v=0
78332 On ch=1 n=c#5 v=0
78337 Par ch=1 c=64 v=88
78342 On ch=1 n=c#7 v=0
78352 Par ch=1 c=64 v=127
78467 On ch=1 n=a#7 v=93
78467 On ch=1 n=a#5 v=83
78467 On ch=1 n=a#6 v=80
78472 On ch=1 n=a#4 v=73
78522 On ch=1 n=a#4 v=0
78522 On ch=1 n=a#5 v=0
78552 On ch=1 n=a#6 v=0
78557 On ch=1 n=a#7 v=0
78642 On ch=1 n=a7 v=97
78642 Par ch=1 c=64 v=72
78647 On ch=1 n=a5 v=80
78647 On ch=1 n=a6 v=83
78652 On ch=1 n=a4 v=67
78652 Par ch=1 c=64 v=24
78667 Par ch=1 c=64 v=40
78677 Par ch=1 c=64 v=88
78692 Par ch=1 c=64 v=127
78707 On ch=1 n=a4 v=0
78717 On ch=1 n=a6 v=0
78722 On ch=1 n=a5 v=0
78727 On ch=1 n=a7 v=0
78822 On ch=1 n=g7 v=96
78827 On ch=1 n=g6 v=86
78827 On ch=1 n=g5 v=72
78837 On ch=1 n=g4 v=70
78882 On ch=1 n=g5 v=0
78887 On ch=1 n=g4 v=0
78887 On ch=1 n=g6 v=0
78897 On ch=1 n=g7 v=0
78992 On ch=1 n=f7 v=96
78997 On ch=1 n=f5 v=71
78997 On ch=1 n=f6 v=84
79007 On ch=1 n=f4 v=71
79047 On ch=1 n=f4 v=0
79047 On ch=1 n=f6 v=0
79052 On ch=1 n=f5 v=0
79062 On ch=1 n=f7 v=0
79147 Par ch=1 c=64 v=40
79152 On ch=1 n=e7 v=100
79157 On ch=1 n=e6 v=87
79157 Par ch=1 c=64 v=0
79167 On ch=1 n=e5 v=74
79167 On ch=1 n=e4 v=68
79182 On ch=1 n=e6 v=0
79187 On ch=1 n=e4 v=0
79197 Par ch=1 c=64 v=56
79202 On ch=1 n=e7 v=0
79207 Par ch=1 c=64 v=127
79217 On ch=1 n=e5 v=0
79362 On ch=1 n=e8 v=97
79367 On ch=1 n=e7 v=90
79382 On ch=1 n=e5 v=77
79382 On ch=1 n=e6 v=82
79422 On ch=1 n=e7 v=0
79437 On ch=1 n=e5 v=0
79447 On ch=1 n=e6 v=0
79447 On ch=1 n=e8 v=0
79542 On ch=1 n=d8 v=99
79547 On ch=1 n=d7 v=87
79547 On ch=1 n=d6 v=79
79562 On ch=1 n=d5 v=64
79587 On ch=1 n=d5 v=0
79592 On ch=1 n=d7 v=0
79602 On ch=1 n=d6 v=0
79622 On ch=1 n=d8 v=0
79712 On ch=1 n=c#8 v=90
79712 On ch=1 n=c#7 v=95
79717 On ch=1 n=c#6 v=77
79727 On ch=1 n=c#5 v=69
79747 On ch=1 n=c#5 v=0
79767 On ch=1 n=c#6 v=0
79767 On ch=1 n=c#7 v=0
79782 On ch=1 n=c#8 v=0
79872 On ch=1 n=a#7 v=87
79877 On ch=1 n=a#6 v=88
79882 On ch=1 n=a#5 v=67
79887 On ch=1 n=a#4 v=63
79957 On ch=1 n=a#7 v=0
79967 On ch=1 n=a#4 v=0
79967 On ch=1 n=a#6 v=0
79982 On ch=1 n=a#5 v=0
80027 Par ch=1 c=64 v=56
80037 On ch=1 n=a7 v=102
80037 On ch=1 n=a6 v=87
80037 Par ch=1 c=64 v=0
80042 On ch=1 n=a4 v=69
80042 On ch=1 n=a5 v=82
80062 On ch=1 n=a4 v=0
80082 On ch=1 n=a5 v=0
80082 On ch=1 n=a6 v=0
80087 Par ch=1 c=64 v=40
80097 On ch=1 n=a7 v=0
80102 Par ch=1 c=64 v=127
80177 On ch=1 n=a#6 v=56
80197 On ch=1 n=a#6 v=0
80272 On ch=1 n=a#8 v=106
80272 On ch=1 n=a#7 v=102
80277 On ch=1 n=a#6 v=95
80282 On ch=1 n=a#5 v=83
80352 On ch=1 n=a#5 v=0
80362 On ch=1 n=a#7 v=0
80372 On ch=1 n=a#6 v=0
80387 On ch=1 n=a#8 v=0
80507 On ch=1 n=a8 v=103
80512 On ch=1 n=a7 v=94
80517 On ch=1 n=a6 v=86
80522 On ch=1 n=a5 v=80
80572 On ch=1 n=a5 v=0
80572 On ch=1 n=a7 v=0
80577 On ch=1 n=a6 v=0
80587 On ch=1 n=a8 v=0
80687 On ch=1 n=g8 v=103
80692 On ch=1 n=g7 v=92
80692 On ch=1 n=g6 v=81
80697 On ch=1 n=g5 v=80
80737 On ch=1 n=g5 v=0
80737 On ch=1 n=g6 v=0
80742 On ch=1 n=g7 v=0
80757 On ch=1 n=g8 v=0
80852 On ch=1 n=f8 v=92
80857 On ch=1 n=f7 v=88
80857 On ch=1 n=f6 v=80
80867 On ch=1 n=f5 v=70
80897 On ch=1 n=f5 v=0
80907 On ch=1 n=f6 v=0
80912 On ch=1 n=f7 v=0
80917 On ch=1 n=f8 v=0
81017 On ch=1 n=e8 v=92
81017 On ch=1 n=e6 v=75
81022 On ch=1 n=e7 v=82
81022 On ch=1 n=e5 v=69
81057 On ch=1 n=e5 v=0
81067 On ch=1 n=e7 v=0
81067 On ch=1 n=e6 v=0
81077 On ch=1 n=e8 v=0
81177 On ch=1 n=d6 v=77
81182 On ch=1 n=d8 v=78
81187 On ch=1 n=d5 v=63
81187 On ch=1 n=d7 v=54
81212 On ch=1 n=d5 v=0
81227 On ch=1 n=d7 v=0
81227 On ch=1 n=d6 v=0
81242 On ch=1 n=d8 v=0
81312 Par ch=1 c=64 v=40
81322 Par ch=1 c=64 v=0
81342 On ch=1 n=c#7 v=81
81342 On ch=1 n=c#8 v=85
81342 On ch=1 n=c#6 v=76
81342 On ch=1 n=c#5 v=75
81362 Par ch=1 c=64 v=56
81372 Par ch=1 c=64 v=127
81387 On ch=1 n=c#5 v=0
81387 On ch=1 n=c#6 v=0
81392 On ch=1 n=c#7 v=0
81432 On ch=1 n=c#8 v=0
81512 On ch=1 n=e8 v=92
81512 On ch=1 n=e7 v=81
81522 On ch=1 n=e6 v=75
81537 On ch=1 n=e5 v=44
81547 On ch=1 n=e8 v=0
81562 On ch=1 n=e6 v=0
81562 On ch=1 n=e7 v=0
81567 On ch=1 n=e5 v=0
81667 On ch=1 n=a#7 v=89
81672 On ch=1 n=a#6 v=83
81672 On ch=1 n=a#5 v=77
81677 On ch=1 n=a#4 v=71
81697 On ch=1 n=a#4 v=0
81707 On ch=1 n=a#5 v=0
81707 On ch=1 n=a#6 v=0
81717 On ch=1 n=a#7 v=0
81832 On ch=1 n=c#6 v=79
81837 On ch=1 n=c#8 v=83
81837 On ch=1 n=c#5 v=69
81842 On ch=1 n=c#7 v=74
81857 On ch=1 n=c#5 v=0
81867 On ch=1 n=c#7 v=0
81872 On ch=1 n=c#6 v=0
81877 On ch=1 n=c#8 v=0
82002 On ch=1 n=a5 v=77
82002 Par ch=1 c=64 v=72
82007 On ch=1 n=a7 v=92
82007 On ch=1 n=a4 v=71
82012 On ch=1 n=a6 v=77
82017 Par ch=1 c=64 v=24
82027 Par ch=1 c=64 v=0
82042 Par ch=1 c=64 v=24
82052 On ch=1 n=a5 v=0
82052 Par ch=1 c=64 v=88
82057 On ch=1 n=a6 v=0
82057 On ch=1 n=a4 v=0
82062 Par ch=1 c=64 v=127
82082 On ch=1 n=a7 v=0
82162 On ch=1 n=a#5 v=75
82167 On ch=1 n=a#7 v=81
82172 On ch=1 n=a#4 v=56
82172 On ch=1 n=a#6 v=80
82187 On ch=1 n=a#5 v=0
82192 On ch=1 n=a#4 v=0
82202 On ch=1 n=a#6 v=0
82212 On ch=1 n=a#7 v=0
82317 Par ch=1 c=64 v=104
82332 On ch=1 n=f7 v=90
82332 Par ch=1 c=64 v=56
82337 On ch=1 n=f4 v=64
82337 On ch=1 n=f6 v=82
82342 On ch=1 n=f5 v=65
82342 Par ch=1 c=64 v=40
82357 Par ch=1 c=64 v=56
82367 Par ch=1 c=64 v=104
82377 On ch=1 n=f6 v=0
82382 On ch=1 n=f4 v=0
82382 Par ch=1 c=64 v=127
82397 On ch=1 n=f5 v=0
82402 On ch=1 n=f7 v=0
82492 On ch=1 n=g7 v=92
82502 On ch=1 n=g6 v=81
82502 On ch=1 n=g5 v=72
82512 On ch=1 n=g4 v=65
82537 On ch=1 n=g4 v=0
82537 On ch=1 n=g6 v=0
82542 On ch=1 n=g5 v=0
82552 On ch=1 n=g7 v=0
82632 Par ch=1 c=64 v=104
82642 Par ch=1 c=64 v=56
82657 On ch=1 n=e7 v=92
82657 On ch=1 n=e6 v=84
82657 Par ch=1 c=64 v=0
82662 On ch=1 n=e5 v=68
82667 On ch=1 n=e4 v=70
82667 Par ch=1 c=64 v=24
82682 Par ch=1 c=64 v=72
82692 On ch=1 n=e4 v=0
82697 Par ch=1 c=64 v=127
82702 On ch=1 n=e5 v=0
82702 On ch=1 n=e6 v=0
82712 On ch=1 n=e7 v=0
82812 On ch=1 n=g5 v=71
82812 On ch=1 n=g7 v=86
82822 On ch=1 n=g4 v=70
82827 On ch=1 n=g6 v=67
82842 On ch=1 n=g6 v=0
82847 On ch=1 n=g4 v=0
82847 On ch=1 n=g5 v=0
82862 On ch=1 n=g7 v=0
82947 Par ch=1 c=64 v=88
82962 Par ch=1 c=64 v=24
82972 On ch=1 n=d7 v=92
82972 On ch=1 n=d6 v=87
82972 Par ch=1 c=64 v=0
82977 On ch=1 n=d5 v=70
82982 On ch=1 n=d4 v=73
82997 Par ch=1 c=64 v=56
83002 On ch=1 n=d4 v=0
83002 On ch=1 n=d5 v=0
83012 On ch=1 n=d6 v=0
83012 Par ch=1 c=64 v=127
83017 On ch=1 n=d7 v=0
83132 On ch=1 n=e7 v=90
83137 On ch=1 n=e6 v=73
83142 On ch=1 n=e5 v=60
83162 On ch=1 n=e4 v=33
83167 On ch=1 n=e5 v=0
83167 On ch=1 n=e6 v=0
83182 On ch=1 n=e7 v=0
83187 On ch=1 n=e4 v=0
83252 Par ch=1 c=64 v=0
83282 On ch=1 n=c#6 v=80
83282 On ch=1 n=c#7 v=79
83287 On ch=1 n=c#5 v=69
83287 On ch=1 n=c#4 v=69
83297 On ch=1 n=a#6 v=43
83312 On ch=1 n=c#4 v=0
83317 On ch=1 n=a#6 v=0
83327 On ch=1 n=c#5 v=0
83332 On ch=1 n=c#6 v=0
83337 Par ch=1 c=64 v=127
83367 On ch=1 n=c#7 v=0
83432 On ch=1 n=e5 v=75
83437 On ch=1 n=e7 v=83
83447 On ch=1 n=e4 v=64
83447 On ch=1 n=e6 v=68
83472 On ch=1 n=e6 v=0
83472 On ch=1 n=e4 v=0
83472 On ch=1 n=e5 v=0
83487 On ch=1 n=e7 v=0
83562 Par ch=1 c=64 v=40
83577 Par ch=1 c=64 v=0
83592 On ch=1 n=a#4 v=76
83597 On ch=1 n=a#6 v=84
83597 On ch=1 n=a#3 v=73
83597 On ch=1 n=a#5 v=75
83627 On ch=1 n=a#3 v=0
83627 Par ch=1 c=64 v=56
83632 On ch=1 n=a#4 v=0
83637 Par ch=1 c=64 v=127
83642 On ch=1 n=a#5 v=0
83642 On ch=1 n=a#6 v=0
83747 On ch=1 n=c#7 v=88
83752 On ch=1 n=c#6 v=73
83752 On ch=1 n=c#5 v=67
83767 On ch=1 n=c#4 v=54
83787 On ch=1 n=c#4 v=0
83792 On ch=1 n=c#6 v=0
83797 On ch=1 n=c#7 v=0
83802 On ch=1 n=c#5 v=0
83902 Par ch=1 c=64 v=72
83907 On ch=1 n=a6 v=89
83912 On ch=1 n=a5 v=75
83912 On ch=1 n=a4 v=68
83917 On ch=1 n=a3 v=72
83917 Par ch=1 c=64 v=0
83952 On ch=1 n=a3 v=0
83952 Par ch=1 c=64 v=88
83957 On ch=1 n=a5 v=0
83967 On ch=1 n=a4 v=0
83967 Par ch=1 c=64 v=127
83977 On ch=1 n=a6 v=0
84067 On ch=1 n=a#6 v=85
84072 On ch=1 n=a#4 v=69
84072 On ch=1 n=a#5 v=79
84077 On ch=1 n=a#3 v=63
84102 On ch=1 n=a#5 v=0
84127 On ch=1 n=a#4 v=0
84127 On ch=1 n=a#6 v=0
84162 On ch=1 n=a#3 v=0
84217 Par ch=1 c=64 v=24
84222 On ch=1 n=g6 v=96
84227 On ch=1 n=g5 v=82
84227 On ch=1 n=g4 v=73
84227 On ch=1 n=g3 v=70
84232 Par ch=1 c=64 v=0
84242 Par ch=1 c=64 v=24
84257 Par ch=1 c=64 v=88
84262 On ch=1 n=g5 v=0
84267 On ch=1 n=g3 v=0
84272 On ch=1 n=g4 v=0
84272 Par ch=1 c=64 v=127
84277 On ch=1 n=g6 v=0
84367 On ch=1 n=a#4 v=73
84377 On ch=1 n=a#6 v=80
84377 On ch=1 n=a#3 v=61
84387 On ch=1 n=a#5 v=73
84397 On ch=1 n=a#4 v=0
84402 On ch=1 n=a#3 v=0
84407 On ch=1 n=a#5 v=0
84422 On ch=1 n=a#6 v=0
84522 Par ch=1 c=64 v=56
84527 On ch=1 n=f6 v=89
84527 On ch=1 n=f5 v=85
84527 On ch=1 n=f3 v=62
84532 Par ch=1 c=64 v=24
84537 On ch=1 n=f4 v=53
84547 Par ch=1 c=64 v=56
84562 Par ch=1 c=64 v=104
84567 On ch=1 n=f5 v=0
84567 On ch=1 n=f6 v=0
84572 On ch=1 n=f4 v=0
84572 Par ch=1 c=64 v=127
84587 On ch=1 n=f3 v=0
84677 On ch=1 n=g6 v=92
84677 On ch=1 n=g4 v=70
84682 On ch=1 n=g5 v=74
84702 On ch=1 n=g3 v=34
84707 On ch=1 n=g4 v=0
84712 On ch=1 n=g5 v=0
84717 On ch=1 n=g6 v=0
84727 On ch=1 n=g3 v=0
84812 Par ch=1 c=64 v=104
84822 Par ch=1 c=64 v=40
84827 On ch=1 n=e6 v=93
84832 On ch=1 n=e5 v=83
84832 On ch=1 n=e4 v=74
84832 On ch=1 n=e3 v=68
84857 On ch=1 n=e3 v=0
84862 Par ch=1 c=64 v=127
84867 On ch=1 n=e4 v=0
84867 On ch=1 n=e6 v=0
84872 On ch=1 n=e5 v=0
84982 On ch=1 n=g6 v=87
84987 On ch=1 n=g4 v=65
84987 On ch=1 n=g5 v=69
84997 On ch=1 n=g3 v=52
85007 On ch=1 n=g4 v=0
85012 On ch=1 n=g5 v=0
85022 On ch=1 n=g3 v=0
85027 On ch=1 n=g6 v=0
85117 Par ch=1 c=64 v=88
85127 On ch=1 n=d6 v=92
85127 On ch=1 n=d5 v=86
85127 Par ch=1 c=64 v=24
85132 On ch=1 n=d4 v=74
85137 Par ch=1 c=64 v=40
85142 On ch=1 n=d3 v=60
85152 Par ch=1 c=64 v=88
85162 On ch=1 n=d3 v=0
85162 On ch=1 n=d4 v=0
85162 Par ch=1 c=64 v=127
85167 On ch=1 n=d6 v=0
85172 On ch=1 n=d5 v=0
85277 On ch=1 n=e6 v=90
85277 On ch=1 n=e4 v=66
85287 On ch=1 n=e5 v=60
85302 On ch=1 n=e3 v=41
85307 On ch=1 n=e4 v=0
85312 On ch=1 n=e5 v=0
85322 On ch=1 n=e6 v=0
85327 On ch=1 n=e3 v=0
85402 Par ch=1 c=64 v=88
85417 On ch=1 n=c#5 v=77
85417 On ch=1 n=c#6 v=83
85417 Par ch=1 c=64 v=0
85432 On ch=1 n=c#3 v=73
85432 On ch=1 n=c#4 v=78
85452 Par ch=1 c=64 v=127
85457 On ch=1 n=c#3 v=0
85462 On ch=1 n=c#4 v=0
85467 On ch=1 n=c#5 v=0
85497 On ch=1 n=c#6 v=0
85567 On ch=1 n=e4 v=71
85572 On ch=1 n=e6 v=80
85587 On ch=1 n=e5 v=57
85587 On ch=1 n=e3 v=48
85597 On ch=1 n=e4 v=0
85612 On ch=1 n=e3 v=0
85612 On ch=1 n=e5 v=0
85617 On ch=1 n=e6 v=0
85707 Par ch=1 c=64 v=88
85712 On ch=1 n=a#3 v=80
85712 On ch=1 n=a#2 v=75
85717 On ch=1 n=a#5 v=88
85717 On ch=1 n=a#4 v=73
85717 Par ch=1 c=64 v=40
85732 On ch=1 n=a#2 v=0
85732 Par ch=1 c=64 v=72
85742 On ch=1 n=a#3 v=0
85742 Par ch=1 c=64 v=127
85752 On ch=1 n=a#5 v=0
85757 On ch=1 n=a#4 v=0
85857 On ch=1 n=c#6 v=85
85857 On ch=1 n=c#5 v=78
85867 On ch=1 n=c#4 v=75
85872 On ch=1 n=c#3 v=62
85892 On ch=1 n=c#3 v=0
85892 On ch=1 n=c#4 v=0
85897 On ch=1 n=c#5 v=0
85897 On ch=1 n=c#6 v=0
86007 Par ch=1 c=64 v=56
86012 On ch=1 n=a3 v=80
86012 On ch=1 n=a2 v=68
86017 On ch=1 n=a4 v=75
86017 On ch=1 n=a5 v=84
86022 Par ch=1 c=64 v=0
86032 Par ch=1 c=64 v=24
86047 Par ch=1 c=64 v=88
86057 On ch=1 n=a4 v=0
86057 On ch=1 n=a3 v=0
86057 Par ch=1 c=64 v=127
86062 On ch=1 n=a2 v=0
86077 On ch=1 n=a5 v=0
86167 On ch=1 n=a#5 v=84
86172 On ch=1 n=a#4 v=65
86172 On ch=1 n=a#3 v=64
86177 On ch=1 n=a#2 v=60
86197 On ch=1 n=a#3 v=0
86202 On ch=1 n=a#2 v=0
86207 On ch=1 n=a#4 v=0
86227 On ch=1 n=a#5 v=0
86312 Par ch=1 c=64 v=40
86317 On ch=1 n=g#5 v=84
86317 On ch=1 n=g#4 v=80
86317 On ch=1 n=g#3 v=77
86322 On ch=1 n=g#2 v=69
86322 Par ch=1 c=64 v=0
86337 Par ch=1 c=64 v=40
86342 On ch=1 n=g#2 v=0
86347 Par ch=1 c=64 v=104
86362 On ch=1 n=g#3 v=0
86362 Par ch=1 c=64 v=127
86387 On ch=1 n=g#5 v=0
86397 On ch=1 n=g#4 v=0
86462 Par ch=1 c=64 v=104
86467 On ch=1 n=a3 v=75
86467 On ch=1 n=a5 v=90
86472 On ch=1 n=a4 v=81
86472 Par ch=1 c=64 v=72
86482 On ch=1 n=a2 v=54
86487 Par ch=1 c=64 v=104
86497 Par ch=1 c=64 v=127
86517 On ch=1 n=a3 v=0
86522 On ch=1 n=a2 v=0
86532 On ch=1 n=a4 v=0
86532 On ch=1 n=a5 v=0
86612 Par ch=1 c=64 v=72
86627 Par ch=1 c=64 v=0
86632 On ch=1 n=g4 v=89
86637 On ch=1 n=g5 v=99
86637 Par ch=1 c=64 v=24
86652 Par ch=1 c=64 v=72
86657 On ch=1 n=f3 v=56
86657 On ch=1 n=g2 v=58
86662 Par ch=1 c=64 v=127
86677 On ch=1 n=g4 v=0
86687 On ch=1 n=g2 v=0
86692 On ch=1 n=g5 v=0
86697 On ch=1 n=f3 v=0
86787 Par ch=1 c=64 v=56
86802 On ch=1 n=a5 v=96
86802 Par ch=1 c=64 v=0
86807 On ch=1 n=a4 v=79
86807 On ch=1 n=a3 v=80
86812 Par ch=1 c=64 v=40
86822 On ch=1 n=a2 v=60
86827 Par ch=1 c=64 v=104
86837 On ch=1 n=a3 v=0
86837 On ch=1 n=a4 v=0
86837 Par ch=1 c=64 v=127
86842 On ch=1 n=a2 v=0
86847 On ch=1 n=a5 v=0
86947 Par ch=1 c=64 v=0
86967 On ch=1 n=f#5 v=81
86967 On ch=1 n=f#4 v=85
86977 On ch=1 n=f#2 v=77
86977 On ch=1 n=f#3 v=86
87012 Par ch=1 c=64 v=127
87027 On ch=1 n=f#3 v=0
87027 On ch=1 n=f#2 v=0
87032 On ch=1 n=f#4 v=0
87067 On ch=1 n=f#5 v=0
87137 Par ch=1 c=64 v=56
87152 On ch=1 n=a5 v=90
87152 On ch=1 n=a4 v=75
87152 Par ch=1 c=64 v=24
87167 Par ch=1 c=64 v=72
87177 Par ch=1 c=64 v=127
87182 On ch=1 n=a3 v=71
87192 On ch=1 n=a5 v=0
87192 On ch=1 n=a2 v=48
87197 On ch=1 n=a4 v=0
87202 On ch=1 n=a3 v=0
87222 On ch=1 n=a2 v=0
87327 On ch=1 n=f4 v=93
87327 Par ch=1 c=64 v=40
87332 On ch=1 n=f5 v=100
87342 Par ch=1 c=64 v=0
87347 On ch=1 n=f2 v=67
87347 On ch=1 n=f3 v=75
87352 Par ch=1 c=64 v=56
87367 On ch=1 n=f4 v=0
87367 Par ch=1 c=64 v=127
87377 On ch=1 n=f5 v=0
87392 On ch=1 n=f2 v=0
87407 On ch=1 n=f3 v=0
87522 On ch=1 n=a5 v=92
87527 On ch=1 n=a4 v=82
87527 Par ch=1 c=64 v=56
87537 On ch=1 n=a3 v=84
87537 On ch=1 n=a2 v=60
87552 Par ch=1 c=64 v=127
87572 On ch=1 n=a2 v=0
87572 On ch=1 n=a4 v=0
87577 On ch=1 n=a3 v=0
87577 On ch=1 n=a5 v=0
87707 Par ch=1 c=64 v=72
87712 On ch=1 n=e4 v=90
87717 On ch=1 n=e5 v=96
87722 Par ch=1 c=64 v=0
87727 On ch=1 n=e3 v=74
87727 On ch=1 n=e2 v=73
87747 Par ch=1 c=64 v=56
87752 On ch=1 n=e4 v=0
87757 Par ch=1 c=64 v=127
87762 On ch=1 n=e2 v=0
87762 On ch=1 n=e5 v=0
87782 On ch=1 n=e3 v=0
87922 Par ch=1 c=64 v=56
87927 On ch=1 n=a5 v=81
87932 On ch=1 n=a3 v=79
87932 Par ch=1 c=64 v=0
87937 On ch=1 n=a4 v=72
87947 On ch=1 n=a2 v=70
87947 Par ch=1 c=64 v=40
87957 On ch=1 n=a4 v=0
87957 Par ch=1 c=64 v=104
87972 On ch=1 n=a2 v=0
87972 On ch=1 n=a5 v=0
87972 Par ch=1 c=64 v=127
87977 On ch=1 n=a3 v=0
88052 On ch=1 n=d#3 v=32
88077 On ch=1 n=d#3 v=0
88112 Par ch=1 c=64 v=104
88122 Par ch=1 c=64 v=0
88132 On ch=1 n=d#4 v=85
88137 On ch=1 n=d#5 v=90
88137 On ch=1 n=d#3 v=89
88142 On ch=1 n=d#2 v=91
88162 Par ch=1 c=64 v=40
88167 On ch=1 n=d#4 v=0
88172 Par ch=1 c=64 v=127
88182 On ch=1 n=d#3 v=0
88187 On ch=1 n=d#2 v=0
88187 On ch=1 n=d#5 v=0
88377 Par ch=1 c=64 v=88
88387 On ch=1 n=a5 v=92
88387 Par ch=1 c=64 v=0
88397 On ch=1 n=a4 v=85
88412 On ch=1 n=a3 v=94
88417 On ch=1 n=a2 v=73
88437 On ch=1 n=a4 v=0
88437 Par ch=1 c=64 v=127
88442 On ch=1 n=a5 v=0
88457 On ch=1 n=a3 v=0
88462 On ch=1 n=a2 v=0
88637 Par ch=1 c=64 v=88
88652 On ch=1 n=c4 v=94
88652 On ch=1 n=c5 v=97
88652 On ch=1 n=c2 v=72
88652 Par ch=1 c=64 v=0
88657 On ch=1 n=c3 v=88
88687 On ch=1 n=c4 v=0
88687 Par ch=1 c=64 v=56
88702 On ch=1 n=c2 v=0
88702 Par ch=1 c=64 v=127
88712 On ch=1 n=c3 v=0
88712 On ch=1 n=c5 v=0
88942 On ch=1 n=a5 v=92
88942 Par ch=1 c=64 v=24
88947 On ch=1 n=a4 v=86
88952 Par ch=1 c=64 v=0
88957 On ch=1 n=a3 v=93
88957 On ch=1 n=a2 v=74
88992 On ch=1 n=a3 v=0
88992 On ch=1 n=a4 v=0
88997 On ch=1 n=a5 v=0
89002 Par ch=1 c=64 v=127
89007 On ch=1 n=a2 v=0
89242 Par ch=1 c=64 v=88
89257 Par ch=1 c=64 v=0
89262 On ch=1 n=c#5 v=83
89262 On ch=1 n=c#2 v=87
89262 On ch=1 n=c#4 v=65
89267 On ch=1 n=c#3 v=76
89297 On ch=1 n=c#3 v=0
89307 On ch=1 n=c#4 v=0
89307 On ch=1 n=c#2 v=0
89317 Par ch=1 c=64 v=104
89327 Par ch=1 c=64 v=127
89332 On ch=1 n=c#5 v=0
89632 Par ch=1 c=64 v=88
89647 On ch=1 n=a5 v=94
89647 Par ch=1 c=64 v=0
89652 On ch=1 n=a4 v=86
89662 On ch=1 n=a2 v=74
89662 On ch=1 n=a3 v=97
89672 Par ch=1 c=64 v=56
89682 Par ch=1 c=64 v=127
89707 On ch=1 n=a3 v=0
89707 On ch=1 n=a2 v=0
89707 On ch=1 n=a4 v=0
89727 On ch=1 n=a5 v=0
90027 On ch=1 n=d3 v=96
90292 On ch=1 n=d7 v=97
90302 On ch=1 n=d6 v=75
90302 Par ch=1 c=64 v=104
90307 On ch=1 n=f6 v=82
90317 Par ch=1 c=64 v=127
90327 On ch=1 n=d4 v=57
90332 On ch=1 n=a3 v=58
90357 On ch=1 n=a3 v=0
90357 On ch=1 n=d3 v=0
90392 On ch=1 n=d4 v=0
90417 On ch=1 n=d7 v=0
90437 On ch=1 n=f6 v=0
90437 On ch=1 n=d6 v=0
90537 On ch=1 n=g#4 v=53
90542 On ch=1 n=e4 v=56
90577 On ch=1 n=e4 v=0
90602 On ch=1 n=g#4 v=0
90672 On ch=1 n=a4 v=68
90677 On ch=1 n=f4 v=65
90717 On ch=1 n=f4 v=0
90727 On ch=1 n=a4 v=0
90827 On ch=1 n=e5 v=73
90827 On ch=1 n=c#5 v=60
90897 On ch=1 n=c#5 v=0
90912 On ch=1 n=e5 v=0
90957 On ch=1 n=f5 v=76
90962 On ch=1 n=d5 v=70
90992 On ch=1 n=d5 v=0
91022 On ch=1 n=f5 v=0
91132 On ch=1 n=d3 v=70
91147 On ch=1 n=e3 v=42
91147 On ch=1 n=g#3 v=20
91177 On ch=1 n=e3 v=0
91192 On ch=1 n=g#3 v=0
91262 Par ch=1 c=64 v=40
91277 Par ch=1 c=64 v=0
91307 On ch=1 n=d7 v=97
91312 On ch=1 n=d6 v=81
91317 On ch=1 n=f6 v=85
91322 On ch=1 n=a3 v=68
91337 On ch=1 n=d4 v=64
91342 On ch=1 n=d3 v=0
91372 On ch=1 n=a3 v=0
91372 Par ch=1 c=64 v=127
91397 On ch=1 n=d4 v=0
91412 On ch=1 n=d7 v=0
91427 On ch=1 n=f6 v=0
91442 On ch=1 n=d6 v=0
91507 On ch=1 n=g#4 v=64
91517 On ch=1 n=e4 v=63
91547 On ch=1 n=e4 v=0
91567 On ch=1 n=g#4 v=0
91642 On ch=1 n=a4 v=66
91652 On ch=1 n=f4 v=66
91697 On ch=1 n=f4 v=0
91697 On ch=1 n=a4 v=0
91742 On ch=1 n=e5 v=66
91757 On ch=1 n=c#5 v=47
91812 On ch=1 n=c#5 v=0
91832 On ch=1 n=e5 v=0
91867 On ch=1 n=f5 v=70
91877 On ch=1 n=d5 v=62
91902 On ch=1 n=d5 v=0
91922 On ch=1 n=f5 v=0
92042 On ch=1 n=d3 v=78
92142 On ch=1 n=c7 v=94
92152 On ch=1 n=c6 v=83
92192 On ch=1 n=c6 v=0
92212 On ch=1 n=c7 v=0
92267 Par ch=1 c=64 v=0
92282 On ch=1 n=a#6 v=90
92282 On ch=1 n=a#5 v=84
92292 On ch=1 n=d4 v=63
92292 On ch=1 n=e6 v=77
92292 On ch=1 n=g3 v=60
92312 On ch=1 n=e6 v=0
92312 On ch=1 n=d3 v=0
92327 On ch=1 n=g3 v=0
92347 Par ch=1 c=64 v=127
92362 On ch=1 n=d4 v=0
92402 On ch=1 n=a#5 v=0
92402 On ch=1 n=a#6 v=0
92497 On ch=1 n=a4 v=31
92497 On ch=1 n=f#4 v=30
92532 On ch=1 n=f#4 v=0
92532 On ch=1 n=a4 v=0
92627 On ch=1 n=g4 v=66
92632 On ch=1 n=a#4 v=57
92667 On ch=1 n=g4 v=0
92672 On ch=1 n=a#4 v=0
92762 On ch=1 n=f#5 v=65
92772 On ch=1 n=d#5 v=54
92837 On ch=1 n=d#5 v=0
92837 On ch=1 n=f#5 v=0
92892 On ch=1 n=g5 v=61
92902 On ch=1 n=e5 v=54
92922 On ch=1 n=e5 v=0
92952 On ch=1 n=g5 v=0
93042 On ch=1 n=d3 v=83
93192 Par ch=1 c=64 v=40
93202 Par ch=1 c=64 v=0
93217 On ch=1 n=a#6 v=90
93222 On ch=1 n=a#5 v=82
93227 On ch=1 n=e6 v=85
93237 On ch=1 n=g3 v=63
93242 On ch=1 n=d4 v=54
93262 On ch=1 n=d3 v=0
93282 Par ch=1 c=64 v=104
93287 On ch=1 n=g3 v=0
93297 Par ch=1 c=64 v=127
93312 On ch=1 n=d4 v=0
93327 On ch=1 n=e6 v=0
93327 On ch=1 n=a#6 v=0
93347 On ch=1 n=a#5 v=0
93417 On ch=1 n=a4 v=70
93422 On ch=1 n=f#4 v=57
93457 On ch=1 n=a4 v=0
93477 On ch=1 n=f#4 v=0
93562 On ch=1 n=a#4 v=63
93562 On ch=1 n=g4 v=64
93607 On ch=1 n=g4 v=0
93617 On ch=1 n=a#4 v=0
93682 On ch=1 n=f#5 v=61
93687 On ch=1 n=d#5 v=58
93782 On ch=1 n=f#5 v=0
93802 On ch=1 n=g5 v=65
93817 On ch=1 n=e5 v=53
93842 On ch=1 n=e5 v=0
93842 On ch=1 n=d#5 v=0
93867 On ch=1 n=g5 v=0
93972 On ch=1 n=c#3 v=71
94062 On ch=1 n=a#6 v=88
94072 On ch=1 n=a#5 v=79
94132 On ch=1 n=a#5 v=0
94137 On ch=1 n=a#6 v=0
94182 Par ch=1 c=64 v=40
94197 On ch=1 n=a6 v=92
94197 Par ch=1 c=64 v=0
94202 On ch=1 n=e6 v=78
94207 On ch=1 n=a5 v=80
94222 On ch=1 n=c#4 v=45
94237 On ch=1 n=a3 v=48
94262 On ch=1 n=a3 v=0
94267 On ch=1 n=c#3 v=0
94277 Par ch=1 c=64 v=127
94292 On ch=1 n=c#4 v=0
94307 On ch=1 n=a6 v=0
94317 On ch=1 n=e6 v=0
94337 On ch=1 n=a5 v=0
94427 On ch=1 n=d#4 v=51
94457 On ch=1 n=d#4 v=0
94542 On ch=1 n=e4 v=66
94542 On ch=1 n=g4 v=64
94572 On ch=1 n=g4 v=0
94602 On ch=1 n=e4 v=0
94632 On ch=1 n=d#5 v=58
94642 On ch=1 n=c5 v=59
94707 On ch=1 n=d#5 v=0
94727 On ch=1 n=c5 v=0
94747 On ch=1 n=e5 v=68
94752 On ch=1 n=c#5 v=47
94777 On ch=1 n=c#5 v=0
94797 On ch=1 n=e5 v=0
94882 On ch=1 n=a2 v=79
94977 On ch=1 n=a6 v=93
94977 On ch=1 n=a5 v=81
95007 On ch=1 n=a5 v=0
95042 On ch=1 n=a6 v=0
95117 On ch=1 n=f#6 v=29
95147 On ch=1 n=f#6 v=0
95187 Par ch=1 c=64 v=24
95197 On ch=1 n=a3 v=69
95197 On ch=1 n=c#3 v=62
95202 On ch=1 n=e7 v=100
95202 On ch=1 n=e6 v=82
95202 Par ch=1 c=64 v=0
95212 On ch=1 n=g6 v=76
95267 On ch=1 n=a2 v=0
95267 Par ch=1 c=64 v=72
95282 Par ch=1 c=64 v=127
95287 On ch=1 n=c#3 v=0
95302 On ch=1 n=a3 v=0
95307 On ch=1 n=e7 v=0
95332 On ch=1 n=g6 v=0
95352 On ch=1 n=e6 v=0
95427 On ch=1 n=d#4 v=48
95452 On ch=1 n=d#4 v=0
95522 On ch=1 n=g4 v=63
95527 On ch=1 n=e4 v=60
95572 On ch=1 n=e4 v=0
95572 On ch=1 n=g4 v=0
95627 On ch=1 n=d#5 v=61
95642 On ch=1 n=c5 v=56
95717 On ch=1 n=e5 v=70
95722 On ch=1 n=c5 v=0
95742 On ch=1 n=e5 v=0
95742 On ch=1 n=d#5 v=0
95847 On ch=1 n=a2 v=72
95967 On ch=1 n=g6 v=93
95967 On ch=1 n=g5 v=82
96022 On ch=1 n=a2 v=0
96027 On ch=1 n=g6 v=0
96037 On ch=1 n=g5 v=0
96107 Par ch=1 c=64 v=56
96122 On ch=1 n=f6 v=96
96122 Par ch=1 c=64 v=0
96127 On ch=1 n=f5 v=79
96132 On ch=1 n=d3 v=70
96132 On ch=1 n=a5 v=77
96137 On ch=1 n=a3 v=57
96157 On ch=1 n=a5 v=0
96182 On ch=1 n=d3 v=0
96202 Par ch=1 c=64 v=127
96212 On ch=1 n=a3 v=0
96217 On ch=1 n=a5 v=15
96252 On ch=1 n=f6 v=0
96282 On ch=1 n=a5 v=0
96302 On ch=1 n=f5 v=0
96342 On ch=1 n=e4 v=66
96347 On ch=1 n=g#4 v=50
96372 On ch=1 n=e4 v=0
96392 On ch=1 n=g#4 v=0
96457 On ch=1 n=a4 v=61
96462 On ch=1 n=f4 v=60
96487 On ch=1 n=f4 v=0
96487 On ch=1 n=a4 v=0
96562 On ch=1 n=e5 v=65
96562 On ch=1 n=c#5 v=49
96627 On ch=1 n=c#5 v=0
96632 On ch=1 n=e5 v=0
96662 On ch=1 n=d5 v=51
96662 On ch=1 n=f5 v=70
96687 On ch=1 n=d5 v=0
96712 On ch=1 n=f5 v=0
96787 On ch=1 n=d3 v=72
96902 On ch=1 n=a6 v=86
96907 On ch=1 n=a5 v=74
96962 On ch=1 n=a5 v=0
96962 On ch=1 n=a6 v=0
97032 Par ch=1 c=64 v=104
97047 Par ch=1 c=64 v=0
97052 On ch=1 n=d4 v=54
97062 On ch=1 n=d6 v=79
97062 On ch=1 n=d5 v=70
97067 On ch=1 n=a3 v=58
97072 On ch=1 n=f5 v=59
97107 On ch=1 n=f5 v=0
97112 On ch=1 n=d3 v=0
97127 On ch=1 n=a3 v=0
97127 Par ch=1 c=64 v=72
97137 Par ch=1 c=64 v=127
97157 On ch=1 n=d4 v=0
97177 On ch=1 n=d6 v=0
97242 On ch=1 n=d5 v=0
97267 On ch=1 n=g#4 v=60
97272 On ch=1 n=e4 v=52
97322 On ch=1 n=e4 v=0
97342 On ch=1 n=g#4 v=0
97367 On ch=1 n=a4 v=65
97382 On ch=1 n=f4 v=54
97417 On ch=1 n=f4 v=0
97427 On ch=1 n=a4 v=0
97512 On ch=1 n=e5 v=58
97522 On ch=1 n=c#5 v=31
97557 On ch=1 n=c#5 v=0
97582 On ch=1 n=e5 v=0
97622 On ch=1 n=d5 v=62
97627 On ch=1 n=f5 v=64
97647 On ch=1 n=d5 v=0
97667 On ch=1 n=f5 v=0
97767 On ch=1 n=c3 v=79
97942 Par ch=1 c=64 v=72
97952 Par ch=1 c=64 v=0
97957 On ch=1 n=c7 v=93
97967 On ch=1 n=c6 v=74
97972 On ch=1 n=e6 v=74
98007 On ch=1 n=c4 v=44
98007 On ch=1 n=g3 v=55
98042 On ch=1 n=c3 v=0
98062 On ch=1 n=g3 v=0
98062 Par ch=1 c=64 v=127
98077 On ch=1 n=c7 v=0
98087 On ch=1 n=e6 v=0
98102 On ch=1 n=c4 v=0
98102 On ch=1 n=c6 v=0
98207 On ch=1 n=d#4 v=55
98272 On ch=1 n=d#4 v=0
98297 On ch=1 n=g4 v=61
98312 On ch=1 n=e4 v=45
98357 On ch=1 n=e4 v=0
98357 On ch=1 n=g4 v=0
98412 On ch=1 n=d#5 v=55
98427 On ch=1 n=b4 v=52
98497 On ch=1 n=d#5 v=0
98527 On ch=1 n=e5 v=66
98532 On ch=1 n=b4 v=0
98547 On ch=1 n=c5 v=32
98572 On ch=1 n=c5 v=0
98587 On ch=1 n=e5 v=0
98667 On ch=1 n=e3 v=74
98842 On ch=1 n=c7 v=97
98847 Par ch=1 c=64 v=24
98852 On ch=1 n=c6 v=83
98852 On ch=1 n=g6 v=85
98862 Par ch=1 c=64 v=0
98872 On ch=1 n=c4 v=69
98872 On ch=1 n=e4 v=59
98902 On ch=1 n=c4 v=0
98902 On ch=1 n=e3 v=0
98932 Par ch=1 c=64 v=72
98942 On ch=1 n=e4 v=0
98942 Par ch=1 c=64 v=127
98957 On ch=1 n=c7 v=0
98977 On ch=1 n=g6 v=0
99002 On ch=1 n=c6 v=0
99062 On ch=1 n=b4 v=66
99062 On ch=1 n=f#4 v=48
99107 On ch=1 n=f#4 v=0
99112 On ch=1 n=b4 v=0
99172 On ch=1 n=c5 v=58
99187 On ch=1 n=g4 v=56
99237 On ch=1 n=g4 v=0
99237 On ch=1 n=c5 v=0
99287 On ch=1 n=f#5 v=51
99302 On ch=1 n=d#5 v=51
99362 On ch=1 n=f#5 v=0
99392 On ch=1 n=g5 v=63
99427 On ch=1 n=d#5 v=0
99442 On ch=1 n=g5 v=0
99522 On ch=1 n=f3 v=72
99637 On ch=1 n=a#6 v=83
99647 On ch=1 n=a#5 v=62
99697 On ch=1 n=a#5 v=0
99717 On ch=1 n=a#6 v=0
99767 Par ch=1 c=64 v=88
99782 Par ch=1 c=64 v=0
99787 On ch=1 n=g#6 v=89
99792 On ch=1 n=g#5 v=72
99797 On ch=1 n=f6 v=82
99802 On ch=1 n=f4 v=44
99817 On ch=1 n=c4 v=52
99857 On ch=1 n=c4 v=0
99857 On ch=1 n=f3 v=0
99877 Par ch=1 c=64 v=127
99902 On ch=1 n=f4 v=0
99902 On ch=1 n=f6 v=0
99932 On ch=1 n=g#6 v=0
99952 On ch=1 n=g#5 v=0
100012 On ch=1 n=b4 v=59
100012 On ch=1 n=g#4 v=47
100047 On ch=1 n=b4 v=0
100072 On ch=1 n=g#4 v=0
100112 On ch=1 n=c5 v=61
100132 On ch=1 n=a4 v=36
100172 On ch=1 n=a4 v=0
100172 On ch=1 n=c5 v=0
100222 On ch=1 n=g5 v=54
100222 On ch=1 n=e5 v=59
100292 On ch=1 n=g#5 v=67
100317 On ch=1 n=e5 v=0
100317 On ch=1 n=g5 v=0
100347 On ch=1 n=g#5 v=0
100442 On ch=1 n=f3 v=64
100457 On ch=1 n=c7 v=37
100482 On ch=1 n=c7 v=0
100547 On ch=1 n=c7 v=82
100567 On ch=1 n=c6 v=61
100587 On ch=1 n=c6 v=0
100592 On ch=1 n=c7 v=0
100712 On ch=1 n=f5 v=82
100712 On ch=1 n=f6 v=96
100717 On ch=1 n=g#5 v=71
100717 Par ch=1 c=64 v=88
100732 On ch=1 n=f4 v=39
100732 Par ch=1 c=64 v=0
100747 On ch=1 n=c4 v=48
100782 On ch=1 n=c4 v=0
100782 On ch=1 n=f3 v=0
100817 Par ch=1 c=64 v=127
100822 On ch=1 n=f4 v=0
100877 On ch=1 n=f6 v=0
100907 On ch=1 n=b4 v=73
100912 On ch=1 n=g#4 v=55
100922 On ch=1 n=f5 v=0
100927 On ch=1 n=g#5 v=0
100952 On ch=1 n=b4 v=0
100972 On ch=1 n=g#4 v=0
101037 On ch=1 n=c5 v=59
101042 On ch=1 n=a4 v=42
101082 On ch=1 n=c5 v=0
101092 On ch=1 n=a4 v=0
101147 On ch=1 n=g5 v=76
101152 On ch=1 n=e5 v=66
101227 On ch=1 n=g5 v=0
101267 On ch=1 n=g#5 v=67
101287 On ch=1 n=e5 v=0
101297 On ch=1 n=f5 v=28
101322 On ch=1 n=f5 v=0
101327 On ch=1 n=g#5 v=0
101417 On ch=1 n=d#3 v=83
101557 Par ch=1 c=64 v=56
101572 Par ch=1 c=64 v=0
101582 On ch=1 n=d#7 v=95
101587 On ch=1 n=d#6 v=88
101597 On ch=1 n=g6 v=85
101607 On ch=1 n=d#4 v=60
101607 On ch=1 n=a#3 v=57
101642 Par ch=1 c=64 v=72
101652 Par ch=1 c=64 v=127
101657 On ch=1 n=d#3 v=0
101662 On ch=1 n=a#3 v=0
101672 On ch=1 n=d#7 v=0
101682 On ch=1 n=d#4 v=0
101682 On ch=1 n=g6 v=0
101692 On ch=1 n=d#6 v=0
101782 On ch=1 n=a4 v=66
101797 On ch=1 n=f#4 v=40
101827 On ch=1 n=f#4 v=0
101837 On ch=1 n=a4 v=0
101922 On ch=1 n=g4 v=66
101927 On ch=1 n=a#4 v=55
101957 On ch=1 n=g4 v=0
101972 On ch=1 n=a#4 v=0
102042 On ch=1 n=f#5 v=60
102052 On ch=1 n=d5 v=63
102122 On ch=1 n=f#5 v=0
102157 On ch=1 n=g5 v=65
102162 On ch=1 n=d#5 v=39
102167 On ch=1 n=d5 v=0
102187 On ch=1 n=d#5 v=0
102207 On ch=1 n=g5 v=0
102292 On ch=1 n=g3 v=83
102442 Par ch=1 c=64 v=72
102457 On ch=1 n=d#7 v=99
102457 Par ch=1 c=64 v=0
102462 On ch=1 n=d#6 v=90
102472 On ch=1 n=a#6 v=76
102477 On ch=1 n=d#4 v=68
102487 On ch=1 n=g4 v=60
102527 On ch=1 n=g3 v=0
102537 On ch=1 n=d#4 v=0
102547 Par ch=1 c=64 v=127
102562 On ch=1 n=g4 v=0
102582 On ch=1 n=d#7 v=0
102587 On ch=1 n=a#6 v=0
102612 On ch=1 n=d#6 v=0
102662 On ch=1 n=a4 v=55
102667 On ch=1 n=d5 v=64
102692 On ch=1 n=d5 v=0
102717 On ch=1 n=a4 v=0
102782 On ch=1 n=d#5 v=63
102787 On ch=1 n=a#4 v=44
102837 On ch=1 n=d#5 v=0
102862 On ch=1 n=a#4 v=0
102892 On ch=1 n=a5 v=70
102897 On ch=1 n=f#5 v=56
103007 On ch=1 n=a#5 v=71
103022 On ch=1 n=g5 v=57
103027 On ch=1 n=a5 v=0
103032 On ch=1 n=f#5 v=0
103042 On ch=1 n=g5 v=0
103062 On ch=1 n=a#5 v=0
103117 On ch=1 n=g#3 v=69
103237 On ch=1 n=c#7 v=96
103237 On ch=1 n=c#6 v=85
103287 On ch=1 n=c#6 v=0
103312 On ch=1 n=c#7 v=0
103362 Par ch=1 c=64 v=24
103367 On ch=1 n=c7 v=94
103377 On ch=1 n=c6 v=79
103377 On ch=1 n=g#6 v=76
103377 Par ch=1 c=64 v=0
103397 On ch=1 n=g#4 v=54
103402 On ch=1 n=d#4 v=57
103457 On ch=1 n=d#4 v=0
103457 Par ch=1 c=64 v=127
103462 On ch=1 n=g#3 v=0
103487 On ch=1 n=g#4 v=0
103487 On ch=1 n=c7 v=0
103507 On ch=1 n=g#6 v=0
103517 On ch=1 n=c6 v=0
103567 On ch=1 n=d5 v=67
103572 On ch=1 n=b4 v=62
103602 On ch=1 n=b4 v=0
103632 On ch=1 n=d5 v=0
103702 On ch=1 n=c5 v=56
103702 On ch=1 n=d#5 v=44
103732 On ch=1 n=d#5 v=0
103732 On ch=1 n=c5 v=0
103777 On ch=1 n=g5 v=62
103787 On ch=1 n=b5 v=62
103882 On ch=1 n=c6 v=70
103907 On ch=1 n=b5 v=0
103907 On ch=1 n=g5 v=0
103907 On ch=1 n=g#5 v=35
103927 On ch=1 n=g#5 v=0
103937 On ch=1 n=c6 v=0
104027 On ch=1 n=g#3 v=67
104122 On ch=1 n=d#7 v=90
104132 On ch=1 n=d#6 v=73
104167 On ch=1 n=d#6 v=0
104167 On ch=1 n=d#7 v=0
104287 On ch=1 n=g#4 v=40
104302 On ch=1 n=c4 v=62
104302 Par ch=1 c=64 v=56
104307 On ch=1 n=g#6 v=89
104312 On ch=1 n=g#5 v=76
104312 Par ch=1 c=64 v=0
104317 On ch=1 n=c6 v=82
104367 On ch=1 n=c4 v=0
104377 On ch=1 n=g#3 v=0
104382 Par ch=1 c=64 v=56
104392 Par ch=1 c=64 v=127
104412 On ch=1 n=g#4 v=0
104427 On ch=1 n=g#6 v=0
104442 On ch=1 n=c6 v=0
104482 On ch=1 n=g#5 v=0
104632 On ch=1 n=d#5 v=62
104637 On ch=1 n=c5 v=63
104677 On ch=1 n=c5 v=0
104682 On ch=1 n=d#5 v=0
104747 On ch=1 n=b5 v=71
104752 On ch=1 n=g5 v=59
104847 On ch=1 n=c6 v=79
104872 On ch=1 n=g5 v=0
104877 On ch=1 n=b5 v=0
104902 On ch=1 n=c6 v=0
104982 On ch=1 n=g#3 v=77
105152 Par ch=1 c=64 v=104
105167 On ch=1 n=f7 v=99
105167 Par ch=1 c=64 v=24
105172 On ch=1 n=f6 v=90
105182 Par ch=1 c=64 v=0
105187 On ch=1 n=b6 v=82
105197 On ch=1 n=g#4 v=59
105202 On ch=1 n=d4 v=63
105227 On ch=1 n=d4 v=0
105242 On ch=1 n=g#3 v=0
105262 Par ch=1 c=64 v=127
105277 On ch=1 n=g#4 v=0
105282 On ch=1 n=b6 v=0
105282 On ch=1 n=f7 v=0
105317 On ch=1 n=f6 v=0
105387 On ch=1 n=e5 v=70
105387 On ch=1 n=c#5 v=55
105422 On ch=1 n=e5 v=0
105452 On ch=1 n=c#5 v=0
105512 On ch=1 n=f5 v=62
105522 On ch=1 n=d5 v=53
105557 On ch=1 n=d5 v=0
105567 On ch=1 n=f5 v=0
105657 On ch=1 n=c#6 v=54
105662 On ch=1 n=a#5 v=55
105737 On ch=1 n=c#6 v=0
105777 On ch=1 n=d6 v=62
105807 On ch=1 n=b5 v=44
105812 On ch=1 n=a#5 v=0
105837 On ch=1 n=b5 v=0
105842 On ch=1 n=d6 v=0
105897 On ch=1 n=g#3 v=76
106032 Par ch=1 c=64 v=72
106047 On ch=1 n=f7 v=92
106047 Par ch=1 c=64 v=0
106052 On ch=1 n=f6 v=81
106062 On ch=1 n=b6 v=82
106077 On ch=1 n=g#4 v=51
106082 On ch=1 n=d4 v=54
106107 On ch=1 n=d4 v=0
106117 Par ch=1 c=64 v=72
106122 On ch=1 n=g#3 v=0
106127 Par ch=1 c=64 v=127
106137 On ch=1 n=f7 v=0
106147 On ch=1 n=g#4 v=0
106147 On ch=1 n=b6 v=0
106167 On ch=1 n=f6 v=0
106242 On ch=1 n=c#5 v=55
106247 On ch=1 n=e5 v=66
106277 On ch=1 n=e5 v=0
106307 On ch=1 n=c#5 v=0
106347 On ch=1 n=f5 v=68
106362 On ch=1 n=d5 v=56
106397 On ch=1 n=d5 v=0
106402 On ch=1 n=f5 v=0
106457 On ch=1 n=c#6 v=65
106457 On ch=1 n=a#5 v=61
106527 On ch=1 n=d6 v=55
106537 On ch=1 n=a#5 v=0
106557 On ch=1 n=d6 v=0
106562 On ch=1 n=c#6 v=0
106672 On ch=1 n=g#3 v=77
106762 On ch=1 n=f7 v=105
106767 On ch=1 n=f6 v=86
106797 On ch=1 n=f6 v=0
106817 On ch=1 n=f7 v=0
106932 Par ch=1 c=64 v=88
106937 On ch=1 n=g#7 v=96
106942 On ch=1 n=g#6 v=77
106942 Par ch=1 c=64 v=0
106947 On ch=1 n=c7 v=84
106952 On ch=1 n=g#4 v=61
106952 On ch=1 n=c4 v=73
107002 On ch=1 n=c4 v=0
107012 On ch=1 n=g#3 v=0
107012 Par ch=1 c=64 v=56
107022 Par ch=1 c=64 v=127
107037 On ch=1 n=g#7 v=0
107047 On ch=1 n=g#4 v=0
107047 On ch=1 n=c7 v=0
107062 On ch=1 n=g#6 v=0
107147 On ch=1 n=e5 v=67
107152 On ch=1 n=c5 v=46
107187 On ch=1 n=c5 v=0
107197 On ch=1 n=e5 v=0
107272 On ch=1 n=d#5 v=62
107277 On ch=1 n=c5 v=67
107307 On ch=1 n=c5 v=0
107332 On ch=1 n=d#5 v=0
107357 On ch=1 n=b5 v=70
107357 On ch=1 n=g5 v=68
107442 On ch=1 n=b5 v=0
107477 On ch=1 n=c6 v=74
107477 On ch=1 n=g#5 v=65
107492 On ch=1 n=g5 v=0
107517 On ch=1 n=g#5 v=0
107522 On ch=1 n=c6 v=0
107617 On ch=1 n=g#3 v=81
107742 Par ch=1 c=64 v=24
107747 On ch=1 n=d#7 v=92
107752 On ch=1 n=d#6 v=83
107757 Par ch=1 c=64 v=0
107762 On ch=1 n=g#6 v=73
107792 On ch=1 n=c4 v=45
107807 On ch=1 n=g#4 v=26
107822 On ch=1 n=c4 v=0
107822 On ch=1 n=g#3 v=0
107837 Par ch=1 c=64 v=127
107862 On ch=1 n=g#4 v=0
107862 On ch=1 n=d#7 v=0
107872 On ch=1 n=g#6 v=0
107877 On ch=1 n=d#6 v=0
107962 On ch=1 n=b4 v=62
107967 On ch=1 n=d5 v=54
107997 On ch=1 n=d5 v=0
108002 On ch=1 n=b4 v=0
108077 On ch=1 n=d#5 v=56
108077 On ch=1 n=c5 v=62
108107 On ch=1 n=c5 v=0
108117 On ch=1 n=d#5 v=0
108192 On ch=1 n=g5 v=55
108197 On ch=1 n=b5 v=61
108282 On ch=1 n=c6 v=70
108292 On ch=1 n=g5 v=0
108297 On ch=1 n=b5 v=0
108322 On ch=1 n=c6 v=0
108417 On ch=1 n=g#3 v=77
108547 Par ch=1 c=64 v=88
108552 On ch=1 n=f7 v=97
108557 Par ch=1 c=64 v=0
108562 On ch=1 n=f6 v=85
108572 On ch=1 n=b6 v=80
108587 On ch=1 n=g#4 v=55
108592 On ch=1 n=d4 v=57
108612 On ch=1 n=d4 v=0
108627 On ch=1 n=g#3 v=0
108637 Par ch=1 c=64 v=127
108652 On ch=1 n=g#4 v=0
108652 On ch=1 n=f7 v=0
108662 On ch=1 n=b6 v=0
108682 On ch=1 n=f6 v=0
108752 On ch=1 n=c#5 v=61
108757 On ch=1 n=e5 v=71
108782 On ch=1 n=e5 v=0
108812 On ch=1 n=c#5 v=0
108867 On ch=1 n=f5 v=64
108872 On ch=1 n=d5 v=65
108897 On ch=1 n=d5 v=0
108897 On ch=1 n=f5 v=0
108972 On ch=1 n=c#6 v=64
108982 On ch=1 n=a#5 v=59
109057 On ch=1 n=a#5 v=0
109057 On ch=1 n=c#6 v=0
109092 On ch=1 n=d6 v=67
109112 On ch=1 n=b5 v=50
109142 On ch=1 n=b5 v=0
109152 On ch=1 n=d6 v=0
109212 On ch=1 n=g#3 v=74
109372 Par ch=1 c=64 v=56
109377 On ch=1 n=f7 v=96
109387 On ch=1 n=f6 v=82
109387 Par ch=1 c=64 v=0
109402 On ch=1 n=b6 v=82
109402 On ch=1 n=g#4 v=58
109412 On ch=1 n=d4 v=58
109437 On ch=1 n=d4 v=0
109447 On ch=1 n=g#3 v=0
109452 Par ch=1 c=64 v=56
109467 Par ch=1 c=64 v=127
109477 On ch=1 n=g#4 v=0
109477 On ch=1 n=f7 v=0
109482 On ch=1 n=b6 v=0
109507 On ch=1 n=f6 v=0
109587 On ch=1 n=c#5 v=57
109592 On ch=1 n=e5 v=68
109617 On ch=1 n=e5 v=0
109652 On ch=1 n=c#5 v=0
109682 On ch=1 n=f5 v=59
109697 On ch=1 n=d5 v=58
109742 On ch=1 n=d5 v=0
109742 On ch=1 n=f5 v=0
109782 On ch=1 n=c#6 v=63
109792 On ch=1 n=a#5 v=60
109887 On ch=1 n=d6 v=64
109902 On ch=1 n=a#5 v=0
109917 On ch=1 n=d6 v=0
109917 On ch=1 n=c#6 v=0
110007 On ch=1 n=g#3 v=69
110122 On ch=1 n=f7 v=97
110127 On ch=1 n=f6 v=86
110167 On ch=1 n=f6 v=0
110182 On ch=1 n=f7 v=0
110277 Par ch=1 c=64 v=104
110287 On ch=1 n=g#7 v=99
110287 On ch=1 n=d#4 v=64
110292 On ch=1 n=g#4 v=53
110292 On ch=1 n=g#6 v=81
110292 Par ch=1 c=64 v=0
110302 On ch=1 n=c7 v=79
110352 On ch=1 n=d#4 v=0
110362 On ch=1 n=g#3 v=0
110372 On ch=1 n=g#7 v=0
110372 Par ch=1 c=64 v=127
110382 On ch=1 n=c7 v=0
110387 On ch=1 n=g#4 v=0
110402 On ch=1 n=g#6 v=0
110492 On ch=1 n=d5 v=70
110492 On ch=1 n=b4 v=60
110527 On ch=1 n=b4 v=0
110532 On ch=1 n=d5 v=0
110607 On ch=1 n=d#5 v=61
110612 On ch=1 n=c5 v=60
110667 On ch=1 n=c5 v=0
110667 On ch=1 n=d#5 v=0
110742 On ch=1 n=b5 v=67
110742 On ch=1 n=g5 v=64
110842 On ch=1 n=c6 v=78
110852 On ch=1 n=g5 v=0
110862 On ch=1 n=b5 v=0
110887 On ch=1 n=c6 v=0
110972 On ch=1 n=g#3 v=79
111107 Par ch=1 c=64 v=104
111117 Par ch=1 c=64 v=0
111127 On ch=1 n=g#7 v=103
111137 On ch=1 n=g#6 v=93
111147 On ch=1 n=g#4 v=71
111177 On ch=1 n=g#3 v=0
111202 On ch=1 n=g#4 v=0
111202 Par ch=1 c=64 v=104
111212 Par ch=1 c=64 v=127
111217 On ch=1 n=g#7 v=0
111247 On ch=1 n=g#6 v=0
111312 On ch=1 n=e5 v=74
111322 On ch=1 n=g#5 v=56
111347 On ch=1 n=e5 v=0
111387 On ch=1 n=g#5 v=0
111437 On ch=1 n=a5 v=75
111442 On ch=1 n=f5 v=62
111492 On ch=1 n=f5 v=0
111492 On ch=1 n=a5 v=0
111572 On ch=1 n=e6 v=80
111572 On ch=1 n=c#6 v=70
111672 On ch=1 n=f6 v=82
111687 On ch=1 n=e6 v=0
111697 On ch=1 n=c#6 v=0
111717 On ch=1 n=f6 v=0
111832 On ch=1 n=g#4 v=73
111837 On ch=1 n=g#3 v=65
111917 On ch=1 n=g#7 v=100
111922 On ch=1 n=g#6 v=90
111972 On ch=1 n=g#6 v=0
111972 On ch=1 n=g#3 v=0
112002 On ch=1 n=g#4 v=0
112022 On ch=1 n=g#7 v=0
112082 Par ch=1 c=64 v=24
112087 On ch=1 n=a7 v=103
112092 On ch=1 n=a6 v=86
112097 Par ch=1 c=64 v=0
112102 On ch=1 n=a3 v=77
112112 On ch=1 n=a4 v=66
112157 On ch=1 n=a3 v=0
112162 Par ch=1 c=64 v=56
112177 Par ch=1 c=64 v=127
112187 On ch=1 n=a4 v=0
112192 On ch=1 n=a7 v=0
112227 On ch=1 n=a6 v=0
112307 On ch=1 n=e5 v=70
112312 On ch=1 n=g#5 v=47
112362 On ch=1 n=e5 v=0
112372 On ch=1 n=g#5 v=0
112412 On ch=1 n=a5 v=68
112422 On ch=1 n=f5 v=37
112462 On ch=1 n=f5 v=0
112467 On ch=1 n=a5 v=0
112522 On ch=1 n=e6 v=69
112537 On ch=1 n=c#6 v=53
112607 On ch=1 n=f6 v=77
112612 On ch=1 n=e6 v=0
112622 On ch=1 n=d6 v=59
112637 On ch=1 n=c#6 v=0
112642 On ch=1 n=d6 v=0
112662 On ch=1 n=f6 v=0
112742 On ch=1 n=f3 v=86
112852 Par ch=1 c=64 v=88
112867 Par ch=1 c=64 v=0
112897 On ch=1 n=f7 v=97
112907 On ch=1 n=f6 v=85
112922 On ch=1 n=f4 v=70
112952 On ch=1 n=f3 v=0
112967 Par ch=1 c=64 v=104
112972 On ch=1 n=f7 v=0
112977 On ch=1 n=f4 v=0
112982 Par ch=1 c=64 v=127
112987 On ch=1 n=f6 v=0
113107 On ch=1 n=c#5 v=67
113122 On ch=1 n=e5 v=39
113152 On ch=1 n=e5 v=0
113167 On ch=1 n=c#5 v=0
113187 On ch=1 n=e5 v=74
113207 On ch=1 n=f5 v=82
113217 On ch=1 n=d5 v=61
113222 On ch=1 n=e5 v=0
113247 On ch=1 n=d5 v=0
113257 On ch=1 n=f5 v=0
113342 On ch=1 n=c#6 v=78
113342 On ch=1 n=g#5 v=70
113392 On ch=1 n=g#5 v=0
113427 On ch=1 n=c#6 v=0
113467 On ch=1 n=d6 v=82
113467 On ch=1 n=a5 v=78
113497 On ch=1 n=a5 v=0
113522 On ch=1 n=d6 v=0
113602 On ch=1 n=d3 v=85
113682 Par ch=1 c=64 v=24
113692 Par ch=1 c=64 v=0
113727 On ch=1 n=d7 v=89
113732 On ch=1 n=d6 v=86
113752 On ch=1 n=d4 v=74
113762 On ch=1 n=d3 v=0
113772 Par ch=1 c=64 v=56
113787 On ch=1 n=d7 v=0
113787 Par ch=1 c=64 v=127
113797 On ch=1 n=d4 v=0
113797 On ch=1 n=d6 v=0
113902 On ch=1 n=g#4 v=64
113902 On ch=1 n=c#5 v=62
113932 On ch=1 n=c#5 v=0
113947 On ch=1 n=g#4 v=0
114012 On ch=1 n=d5 v=78
114017 On ch=1 n=a4 v=69
114057 On ch=1 n=d5 v=0
114067 On ch=1 n=a4 v=0
114122 On ch=1 n=g#5 v=62
114137 On ch=1 n=e5 v=60
114202 On ch=1 n=g#5 v=0
114212 On ch=1 n=e5 v=0
114237 On ch=1 n=a5 v=70
114252 On ch=1 n=f5 v=54
114277 On ch=1 n=f5 v=0
114287 On ch=1 n=a5 v=0
114382 On ch=1 n=a2 v=74
114387 On ch=1 n=b2 v=59
114407 On ch=1 n=b2 v=0
114472 Par ch=1 c=64 v=72
114487 Par ch=1 c=64 v=0
114537 On ch=1 n=a3 v=79
114547 On ch=1 n=a6 v=91
114552 On ch=1 n=a2 v=0
114557 On ch=1 n=a5 v=71
114572 Par ch=1 c=64 v=127
114587 On ch=1 n=a3 v=0
114617 On ch=1 n=a6 v=0
114632 On ch=1 n=a5 v=0
114697 On ch=1 n=g#4 v=64
114707 On ch=1 n=e4 v=57
114732 On ch=1 n=e4 v=0
114757 On ch=1 n=g#4 v=0
114812 On ch=1 n=a4 v=69
114817 On ch=1 n=f4 v=66
114852 On ch=1 n=f4 v=0
114852 On ch=1 n=a4 v=0
114912 On ch=1 n=e5 v=74
114912 On ch=1 n=c#5 v=60
114977 On ch=1 n=c#5 v=0
114987 On ch=1 n=e5 v=0
115032 On ch=1 n=d5 v=64
115037 On ch=1 n=f5 v=69
115057 On ch=1 n=d5 v=0
115077 On ch=1 n=f5 v=0
115202 On ch=1 n=a#2 v=64
115287 Par ch=1 c=64 v=72
115302 Par ch=1 c=64 v=0
115337 On ch=1 n=a#3 v=68
115347 On ch=1 n=a#6 v=90
115352 On ch=1 n=a#5 v=84
115357 On ch=1 n=a#2 v=0
115387 On ch=1 n=a#3 v=0
115392 Par ch=1 c=64 v=127
115437 On ch=1 n=a#6 v=0
115452 On ch=1 n=a#5 v=0
115497 On ch=1 n=a4 v=70
115502 On ch=1 n=f#4 v=60
115552 On ch=1 n=a4 v=0
115557 On ch=1 n=f#4 v=0
115627 On ch=1 n=g4 v=66
115627 On ch=1 n=a#4 v=57
115662 On ch=1 n=a#4 v=0
115662 On ch=1 n=g4 v=0
115757 On ch=1 n=f#5 v=40
115762 On ch=1 n=d5 v=50
115852 On ch=1 n=d5 v=0
115852 On ch=1 n=f#5 v=0
115882 On ch=1 n=g5 v=74
115882 On ch=1 n=d#5 v=53
115917 On ch=1 n=d#5 v=0
115942 On ch=1 n=g5 v=0
115997 On ch=1 n=g2 v=81
116102 Par ch=1 c=64 v=40
116117 Par ch=1 c=64 v=0
116142 On ch=1 n=g6 v=86
116147 On ch=1 n=g5 v=81
116147 On ch=1 n=g3 v=72
116152 On ch=1 n=g2 v=0
116182 Par ch=1 c=64 v=56
116192 On ch=1 n=g3 v=0
116192 Par ch=1 c=64 v=127
116202 On ch=1 n=g6 v=0
116217 On ch=1 n=g5 v=0
116297 On ch=1 n=d4 v=76
116302 On ch=1 n=f#4 v=67
116347 On ch=1 n=f#4 v=0
116347 On ch=1 n=d4 v=0
116407 On ch=1 n=g4 v=77
116412 On ch=1 n=d#4 v=68
116447 On ch=1 n=g4 v=0
116467 On ch=1 n=d#4 v=0
116502 On ch=1 n=d5 v=72
116512 On ch=1 n=a4 v=59
116572 On ch=1 n=d5 v=0
116587 On ch=1 n=a4 v=0
116612 On ch=1 n=d#5 v=67
116612 On ch=1 n=a#4 v=50
116637 On ch=1 n=a#4 v=0
116672 On ch=1 n=d#5 v=0
116747 On ch=1 n=e2 v=83
116867 Par ch=1 c=64 v=72
116882 Par ch=1 c=64 v=0
116897 On ch=1 n=e6 v=93
116902 On ch=1 n=e5 v=80
116912 On ch=1 n=e3 v=69
116917 On ch=1 n=e2 v=0
116957 Par ch=1 c=64 v=104
116962 On ch=1 n=e3 v=0
116962 On ch=1 n=e5 v=0
116962 On ch=1 n=e6 v=0
116972 Par ch=1 c=64 v=127
117062 On ch=1 n=a3 v=76
117087 On ch=1 n=a3 v=0
117167 On ch=1 n=d4 v=82
117172 On ch=1 n=a#3 v=65
117212 On ch=1 n=d4 v=0
117237 On ch=1 n=a#3 v=0
117282 On ch=1 n=a4 v=73
117282 On ch=1 n=f#4 v=57
117347 On ch=1 n=a4 v=0
117352 On ch=1 n=f#4 v=0
117387 On ch=1 n=a#4 v=62
117402 On ch=1 n=g4 v=27
117427 On ch=1 n=g4 v=0
117432 On ch=1 n=a#4 v=0
117522 On ch=1 n=a2 v=85
117647 Par ch=1 c=64 v=72
117662 Par ch=1 c=64 v=0
117682 On ch=1 n=a6 v=94
117692 On ch=1 n=a5 v=88
117692 On ch=1 n=a3 v=81
117707 On ch=1 n=a2 v=0
117737 On ch=1 n=a3 v=0
117737 Par ch=1 c=64 v=127
117747 On ch=1 n=a6 v=0
117762 On ch=1 n=a5 v=0
117847 On ch=1 n=f#4 v=71
117847 On ch=1 n=d#4 v=69
117897 On ch=1 n=d#4 v=0
117902 On ch=1 n=f#4 v=0
117947 On ch=1 n=g4 v=66
117952 On ch=1 n=e4 v=68
117982 On ch=1 n=g4 v=0
117997 On ch=1 n=e4 v=0
118032 On ch=1 n=d#5 v=57
118037 On ch=1 n=c5 v=64
118087 On ch=1 n=d#5 v=0
118102 On ch=1 n=c5 v=0
118142 On ch=1 n=e5 v=65
118152 On ch=1 n=c#5 v=32
118167 On ch=1 n=e5 v=0
118172 On ch=1 n=c#5 v=0
118337 On ch=1 n=a4 v=81
118337 On ch=1 n=a3 v=77
118337 On ch=1 n=a2 v=49
118337 On ch=1 n=a5 v=88
118357 On ch=1 n=a4 v=0
118362 On ch=1 n=a2 v=0
118367 On ch=1 n=a3 v=0
118387 On ch=1 n=a5 v=0
118572 On ch=1 n=d6 v=100
118577 On ch=1 n=d5 v=82
118577 Par ch=1 c=64 v=88
118587 On ch=1 n=d4 v=87
118587 On ch=1 n=d3 v=84
118592 Par ch=1 c=64 v=0
118687 On ch=1 n=d3 v=0
118712 Par ch=1 c=64 v=127
118717 On ch=1 n=d4 v=0
118802 On ch=1 n=d5 v=0
118802 On ch=1 n=d6 v=0
118887 On ch=1 n=g#4 v=63
118897 On ch=1 n=e4 v=62
118967 On ch=1 n=e4 v=0
118972 On ch=1 n=g#4 v=0
119017 On ch=1 n=f4 v=70
119017 On ch=1 n=a4 v=70
119067 On ch=1 n=f4 v=0
119072 On ch=1 n=a4 v=0
119127 On ch=1 n=g#5 v=71
119132 On ch=1 n=e5 v=70
119202 On ch=1 n=e5 v=0
119207 On ch=1 n=g#5 v=0
119237 On ch=1 n=a5 v=75
119242 On ch=1 n=f5 v=64
119267 On ch=1 n=f5 v=0
119312 On ch=1 n=a5 v=0
119377 On ch=1 n=e6 v=69
119382 On ch=1 n=d#6 v=25
119387 On ch=1 n=g#6 v=46
119402 On ch=1 n=d#6 v=0
119437 On ch=1 n=e6 v=0
119442 On ch=1 n=g#6 v=0
119502 On ch=1 n=a6 v=75
119507 On ch=1 n=f6 v=63
119547 On ch=1 n=f6 v=0
119552 On ch=1 n=a6 v=0
119617 On ch=1 n=g#7 v=86
119622 On ch=1 n=e7 v=70
119687 On ch=1 n=e7 v=0
119707 On ch=1 n=g#7 v=0
119762 On ch=1 n=a7 v=102
119772 On ch=1 n=f7 v=76
119792 On ch=1 n=f7 v=0
119812 On ch=1 n=a7 v=0
120037 On ch=1 n=d5 v=85
120042 On ch=1 n=d6 v=92
120077 On ch=1 n=d5 v=0
120077 On ch=1 n=d4 v=71
120077 On ch=1 n=d3 v=62
120092 On ch=1 n=d6 v=0
120107 On ch=1 n=d3 v=0
120132 On ch=1 n=d4 v=0
120257 Par ch=1 c=64 v=104
120262 On ch=1 n=c7 v=97
120262 On ch=1 n=c6 v=92
120267 On ch=1 n=f#6 v=77
120272 Par ch=1 c=64 v=40
120277 On ch=1 n=d4 v=78
120277 On ch=1 n=d3 v=68
120282 On ch=1 n=a3 v=70
120282 Par ch=1 c=64 v=0
120387 On ch=1 n=a3 v=0
120387 On ch=1 n=d3 v=0
120387 Par ch=1 c=64 v=104
120397 Par ch=1 c=64 v=127
120422 On ch=1 n=d4 v=0
120427 On ch=1 n=c7 v=0
120457 On ch=1 n=f#6 v=0
120457 On ch=1 n=c6 v=0
120552 On ch=1 n=b4 v=65
120557 On ch=1 n=g#4 v=55
120592 On ch=1 n=b4 v=0
120602 On ch=1 n=g#4 v=0
120662 On ch=1 n=c5 v=68
120667 On ch=1 n=a4 v=61
120697 On ch=1 n=a4 v=0
120717 On ch=1 n=c5 v=0
120777 On ch=1 n=b5 v=79
120777 On ch=1 n=g#5 v=65
120842 On ch=1 n=g#5 v=0
120852 On ch=1 n=b5 v=0
120897 On ch=1 n=c6 v=81
120907 On ch=1 n=a5 v=68
120927 On ch=1 n=a5 v=0
120967 On ch=1 n=c6 v=0
121012 On ch=1 n=g#6 v=83
121027 On ch=1 n=b6 v=57
121067 On ch=1 n=g#6 v=0
121082 On ch=1 n=b6 v=0
121147 On ch=1 n=c7 v=81
121152 On ch=1 n=a6 v=64
121192 On ch=1 n=a6 v=0
121192 On ch=1 n=c7 v=0
121262 On ch=1 n=b7 v=90
121262 On ch=1 n=g#7 v=82
121322 On ch=1 n=g#7 v=0
121347 On ch=1 n=b7 v=0
121407 On ch=1 n=c8 v=93
121417 On ch=1 n=a7 v=81
121437 On ch=1 n=a7 v=0
121457 On ch=1 n=c8 v=0
121692 On ch=1 n=d5 v=84
121692 On ch=1 n=d6 v=93
121712 On ch=1 n=d4 v=80
121717 On ch=1 n=d3 v=63
121732 On ch=1 n=d5 v=0
121742 On ch=1 n=d3 v=0
121752 On ch=1 n=d6 v=0
121757 On ch=1 n=d4 v=0
121897 Par ch=1 c=64 v=72
121907 On ch=1 n=b6 v=99
121907 On ch=1 n=b5 v=79
121907 Par ch=1 c=64 v=0
121917 On ch=1 n=f6 v=84
121927 On ch=1 n=d4 v=80
121927 On ch=1 n=d3 v=67
121932 On ch=1 n=g#3 v=59
122007 On ch=1 n=d3 v=0
122007 Par ch=1 c=64 v=127
122012 On ch=1 n=g#3 v=0
122037 On ch=1 n=d4 v=0
122052 On ch=1 n=b6 v=0
122057 On ch=1 n=f6 v=0
122087 On ch=1 n=b5 v=0
122192 On ch=1 n=a4 v=42
122252 On ch=1 n=a4 v=0
122302 On ch=1 n=g#4 v=67
122307 On ch=1 n=b4 v=68
122362 On ch=1 n=g#4 v=0
122367 On ch=1 n=b4 v=0
122422 On ch=1 n=a#5 v=70
122422 On ch=1 n=g5 v=71
122497 On ch=1 n=a#5 v=0
122512 On ch=1 n=g5 v=0
122527 On ch=1 n=b5 v=72
122532 On ch=1 n=g#5 v=60
122552 On ch=1 n=g#5 v=0
122582 On ch=1 n=b5 v=0
122657 On ch=1 n=a#6 v=80
122662 On ch=1 n=g6 v=75
122677 On ch=1 n=g6 v=0
122717 On ch=1 n=a#6 v=0
122772 On ch=1 n=g#6 v=74
122782 On ch=1 n=b6 v=79
122832 On ch=1 n=b6 v=0
122832 On ch=1 n=g#6 v=0
122897 On ch=1 n=a#7 v=79
122907 On ch=1 n=g7 v=77
122992 On ch=1 n=g7 v=0
122997 On ch=1 n=a#7 v=0
123042 On ch=1 n=b7 v=88
123052 On ch=1 n=g#7 v=72
123077 On ch=1 n=g#7 v=0
123092 On ch=1 n=b7 v=0
123322 On ch=1 n=d6 v=89
123322 On ch=1 n=d5 v=82
123337 On ch=1 n=d4 v=76
123342 On ch=1 n=d3 v=63
123347 On ch=1 n=d5 v=0
123357 On ch=1 n=d4 v=0
123377 On ch=1 n=d3 v=0
123377 On ch=1 n=d6 v=0
123517 Par ch=1 c=64 v=104
123532 Par ch=1 c=64 v=24
123542 Par ch=1 c=64 v=0
123547 On ch=1 n=a#6 v=96
123547 On ch=1 n=a#5 v=87
123557 On ch=1 n=a#2 v=76
123557 On ch=1 n=a#3 v=85
123607 On ch=1 n=a#3 v=0
123607 On ch=1 n=a#2 v=0
123607 Par ch=1 c=64 v=40
123622 Par ch=1 c=64 v=127
123632 On ch=1 n=a#6 v=0
123647 On ch=1 n=a#5 v=0
123727 On ch=1 n=f#4 v=67
123732 On ch=1 n=d#4 v=57
123757 On ch=1 n=d#4 v=0
123762 On ch=1 n=f#4 v=0
123827 On ch=1 n=e4 v=77
123832 On ch=1 n=g4 v=64
123857 On ch=1 n=g4 v=0
123872 On ch=1 n=e4 v=0
123937 On ch=1 n=d#5 v=49
123942 On ch=1 n=c5 v=60
124002 On ch=1 n=d#5 v=0
124037 On ch=1 n=e5 v=59
124047 On ch=1 n=c#5 v=44
124057 On ch=1 n=c5 v=0
124072 On ch=1 n=c#5 v=0
124087 On ch=1 n=e5 v=0
124192 On ch=1 n=a#3 v=85
124197 On ch=1 n=a#2 v=72
124212 On ch=1 n=a#6 v=83
124212 On ch=1 n=a#5 v=85
124237 On ch=1 n=a#3 v=0
124252 On ch=1 n=a#2 v=0
124267 On ch=1 n=a#5 v=0
124267 On ch=1 n=a#6 v=0
124352 Par ch=1 c=64 v=72
124362 Par ch=1 c=64 v=0
124387 On ch=1 n=a6 v=93
124392 On ch=1 n=a5 v=83
124402 On ch=1 n=a2 v=64
124407 On ch=1 n=a3 v=81
124412 On ch=1 n=b5 v=39
124432 On ch=1 n=a2 v=0
124442 On ch=1 n=b5 v=0
124452 On ch=1 n=a3 v=0
124452 Par ch=1 c=64 v=127
124457 On ch=1 n=a6 v=0
124467 On ch=1 n=a5 v=0
124552 On ch=1 n=d#4 v=54
124557 On ch=1 n=f#4 v=36
124577 On ch=1 n=f#4 v=0
124577 On ch=1 n=d#4 v=0
124652 On ch=1 n=e4 v=70
124657 On ch=1 n=g4 v=66
124677 On ch=1 n=g4 v=0
124697 On ch=1 n=e4 v=0
124757 On ch=1 n=d#5 v=51
124757 On ch=1 n=c5 v=63
124822 On ch=1 n=d#5 v=0
124862 On ch=1 n=e5 v=75
124867 On ch=1 n=c#5 v=62
124882 On ch=1 n=c5 v=0
124897 On ch=1 n=c#5 v=0
124902 On ch=1 n=e5 v=0
125027 On ch=1 n=a2 v=64
125037 On ch=1 n=a3 v=80
125062 On ch=1 n=g6 v=85
125067 On ch=1 n=a2 v=0
125067 On ch=1 n=g5 v=74
125087 On ch=1 n=a3 v=0
125107 On ch=1 n=g5 v=0
125112 On ch=1 n=g6 v=0
125282 On ch=1 n=d6 v=96
125282 Par ch=1 c=64 v=104
125287 On ch=1 n=d5 v=77
125292 On ch=1 n=f#5 v=60
125292 Par ch=1 c=64 v=40
125302 On ch=1 n=d4 v=79
125307 On ch=1 n=a3 v=64
125307 On ch=1 n=d3 v=66
125307 Par ch=1 c=64 v=0
125432 On ch=1 n=d3 v=0
125432 On ch=1 n=a3 v=0
125447 Par ch=1 c=64 v=104
125457 Par ch=1 c=64 v=127
125472 On ch=1 n=d4 v=0
125512 On ch=1 n=d5 v=0
125517 On ch=1 n=d6 v=0
125522 On ch=1 n=f#5 v=0
125577 On ch=1 n=g#4 v=67
125577 On ch=1 n=f4 v=73
125632 On ch=1 n=f4 v=0
125632 On ch=1 n=g#4 v=0
125697 On ch=1 n=f#4 v=65
125707 On ch=1 n=a4 v=70
125757 On ch=1 n=f#4 v=0
125762 On ch=1 n=a4 v=0
125822 On ch=1 n=g#5 v=73
125822 On ch=1 n=f5 v=70
125902 On ch=1 n=f5 v=0
125902 On ch=1 n=g#5 v=0
125937 On ch=1 n=a5 v=82
125942 On ch=1 n=f#5 v=57
125962 On ch=1 n=f#5 v=0
126007 On ch=1 n=a5 v=0
126062 On ch=1 n=g#6 v=78
126062 On ch=1 n=f6 v=68
126087 Par ch=1 c=64 v=56
126127 Par ch=1 c=64 v=127
126142 On ch=1 n=f6 v=0
126142 On ch=1 n=g#6 v=0
126182 On ch=1 n=a6 v=81
126182 On ch=1 n=f#6 v=64
126222 On ch=1 n=f#6 v=0
126222 On ch=1 n=a6 v=0
126302 On ch=1 n=g#7 v=79
126307 On ch=1 n=f7 v=76
126397 On ch=1 n=f7 v=0
126397 On ch=1 n=g#7 v=0
126447 On ch=1 n=a7 v=93
126452 On ch=1 n=f#7 v=68
126482 On ch=1 n=f#7 v=0
126487 On ch=1 n=a7 v=0
126712 On ch=1 n=d5 v=86
126717 On ch=1 n=d6 v=93
126732 On ch=1 n=d4 v=75
126732 On ch=1 n=d3 v=59
126752 On ch=1 n=d5 v=0
126772 On ch=1 n=d3 v=0
126772 On ch=1 n=d4 v=0
126777 On ch=1 n=d6 v=0
127042 On ch=1 n=c7 v=102
127047 On ch=1 n=c6 v=87
127047 On ch=1 n=d#4 v=70
127047 On ch=1 n=f#6 v=77
127052 On ch=1 n=a3 v=70
127052 On ch=1 n=d#3 v=57
127092 Par ch=1 c=64 v=24
127107 Par ch=1 c=64 v=0
127162 On ch=1 n=a3 v=0
127172 Par ch=1 c=64 v=88
127177 On ch=1 n=d#3 v=0
127182 Par ch=1 c=64 v=127
127197 On ch=1 n=d#4 v=0
127207 On ch=1 n=c7 v=0
127227 On ch=1 n=f#6 v=0
127232 On ch=1 n=c6 v=0
127372 On ch=1 n=b4 v=68
127382 On ch=1 n=a4 v=67
127422 On ch=1 n=b4 v=0
127447 On ch=1 n=a4 v=0
127492 On ch=1 n=c5 v=75
127492 On ch=1 n=a4 v=64
127547 On ch=1 n=a4 v=0
127552 On ch=1 n=c5 v=0
127607 On ch=1 n=g#5 v=67
127607 On ch=1 n=b5 v=77
127667 On ch=1 n=g#5 v=0
127672 On ch=1 n=b5 v=0
127707 On ch=1 n=a5 v=77
127712 On ch=1 n=c6 v=83
127752 On ch=1 n=a5 v=0
127772 On ch=1 n=c6 v=0
127842 On ch=1 n=b6 v=90
127842 On ch=1 n=g#6 v=68
127897 On ch=1 n=g#6 v=0
127907 On ch=1 n=b6 v=0
127962 On ch=1 n=c7 v=82
127967 On ch=1 n=a6 v=72
128012 On ch=1 n=c7 v=0
128017 On ch=1 n=a6 v=0
128077 On ch=1 n=g#7 v=84
128082 On ch=1 n=b7 v=86
128157 On ch=1 n=b7 v=0
128157 On ch=1 n=g#7 v=0
128212 On ch=1 n=c8 v=92
128222 On ch=1 n=a7 v=82
128242 On ch=1 n=a7 v=0
128262 On ch=1 n=c8 v=0
128477 On ch=1 n=d5 v=83
128487 On ch=1 n=d6 v=90
128492 On ch=1 n=d4 v=74
128497 On ch=1 n=d3 v=63
128522 On ch=1 n=d5 v=0
128537 On ch=1 n=d3 v=0
128537 On ch=1 n=d6 v=0
128547 On ch=1 n=d4 v=0
128697 On ch=1 n=b6 v=97
128697 On ch=1 n=b5 v=81
128707 On ch=1 n=f6 v=85
128707 Par ch=1 c=64 v=24
128712 On ch=1 n=d#4 v=86
128712 On ch=1 n=d#3 v=69
128717 On ch=1 n=g#3 v=61
128717 Par ch=1 c=64 v=0
128807 Par ch=1 c=64 v=88
128812 On ch=1 n=g#3 v=0
128812 On ch=1 n=d#3 v=0
128817 Par ch=1 c=64 v=127
128837 On ch=1 n=d#4 v=0
128872 On ch=1 n=b6 v=0
128877 On ch=1 n=f6 v=0
128912 On ch=1 n=b5 v=0
129012 On ch=1 n=a#4 v=47
129087 On ch=1 n=a#4 v=0
129092 On ch=1 n=g#4 v=62
129117 On ch=1 n=b4 v=64
129157 On ch=1 n=g#4 v=0
129167 On ch=1 n=b4 v=0
129237 On ch=1 n=a#5 v=77
129242 On ch=1 n=g5 v=75
129312 On ch=1 n=a#5 v=0
129322 On ch=1 n=g5 v=0
129342 On ch=1 n=b5 v=80
129352 On ch=1 n=g#5 v=57
129372 On ch=1 n=g#5 v=0
129402 On ch=1 n=b5 v=0
129477 On ch=1 n=a#6 v=63
129477 On ch=1 n=g6 v=70
129497 On ch=1 n=b6 v=67
129517 On ch=1 n=b6 v=0
129532 On ch=1 n=a#6 v=0
129542 On ch=1 n=g6 v=0
129597 On ch=1 n=g#6 v=76
129602 On ch=1 n=b6 v=79
129652 On ch=1 n=b6 v=0
129667 On ch=1 n=g#6 v=0
129732 On ch=1 n=a#7 v=79
129737 On ch=1 n=g7 v=73
129812 On ch=1 n=g7 v=0
129827 On ch=1 n=a#7 v=0
129872 On ch=1 n=b7 v=89
129887 On ch=1 n=g#7 v=57
129912 On ch=1 n=g#7 v=0
129922 On ch=1 n=b7 v=0
130152 On ch=1 n=d6 v=89
130152 On ch=1 n=d5 v=81
130162 On ch=1 n=d3 v=63
130167 On ch=1 n=d4 v=74
130172 On ch=1 n=d5 v=0
130187 On ch=1 n=d4 v=0
130192 On ch=1 n=d3 v=0
130207 On ch=1 n=d6 v=0
130342 Par ch=1 c=64 v=24
130352 Par ch=1 c=64 v=0
130382 On ch=1 n=a#6 v=91
130382 On ch=1 n=a#5 v=88
130397 On ch=1 n=a#2 v=71
130397 On ch=1 n=a#3 v=88
130442 On ch=1 n=a#2 v=0
130442 Par ch=1 c=64 v=88
130452 On ch=1 n=a#3 v=0
130457 Par ch=1 c=64 v=127
130472 On ch=1 n=a#6 v=0
130487 On ch=1 n=a#5 v=0
130572 On ch=1 n=f#4 v=63
130577 On ch=1 n=d#4 v=56
130617 On ch=1 n=d#4 v=0
130617 On ch=1 n=f#4 v=0
130662 On ch=1 n=e4 v=70
130667 On ch=1 n=g4 v=70
130717 On ch=1 n=g4 v=0
130717 On ch=1 n=e4 v=0
130792 On ch=1 n=c5 v=74
130797 On ch=1 n=d#5 v=64
130857 On ch=1 n=d#5 v=0
130897 On ch=1 n=e5 v=82
130912 On ch=1 n=c#5 v=56
130922 On ch=1 n=c5 v=0
130932 On ch=1 n=c#5 v=0
130952 On ch=1 n=e5 v=0
131042 On ch=1 n=a#3 v=82
131047 On ch=1 n=a#2 v=51
131062 On ch=1 n=a#6 v=84
131062 On ch=1 n=a#5 v=84
131092 On ch=1 n=a#2 v=0
131092 On ch=1 n=a#3 v=0
131102 On ch=1 n=a#5 v=0
131127 On ch=1 n=a#6 v=0
131197 Par ch=1 c=64 v=72
131212 Par ch=1 c=64 v=0
131232 On ch=1 n=a6 v=97
131237 On ch=1 n=a5 v=86
131247 On ch=1 n=a3 v=90
131247 On ch=1 n=a2 v=68
131272 On ch=1 n=a2 v=0
131277 On ch=1 n=b2 v=35
131287 Par ch=1 c=64 v=88
131297 On ch=1 n=a3 v=0
131302 On ch=1 n=b2 v=0
131302 On ch=1 n=a6 v=0
131302 Par ch=1 c=64 v=127
131312 On ch=1 n=a5 v=0
131402 On ch=1 n=f#4 v=61
131407 On ch=1 n=d#4 v=48
131422 On ch=1 n=f#4 v=0
131432 On ch=1 n=d#4 v=0
131507 On ch=1 n=g4 v=69
131507 On ch=1 n=e4 v=76
131532 On ch=1 n=e4 v=0
131537 On ch=1 n=g4 v=0
131622 On ch=1 n=d#5 v=61
131627 On ch=1 n=c5 v=63
131712 On ch=1 n=e5 v=71
131722 On ch=1 n=c5 v=0
131722 On ch=1 n=c#5 v=40
131742 On ch=1 n=d#5 v=0
131747 On ch=1 n=c#5 v=0
131747 On ch=1 n=e5 v=0
131892 On ch=1 n=a2 v=61
131902 On ch=1 n=a3 v=79
131917 On ch=1 n=a2 v=0
131917 On ch=1 n=g6 v=88
131922 On ch=1 n=g5 v=77
131947 On ch=1 n=a3 v=0
131957 On ch=1 n=g6 v=0
131967 On ch=1 n=g5 v=0
132132 On ch=1 n=d6 v=92
132137 On ch=1 n=d5 v=79
132142 On ch=1 n=f#5 v=64
132142 Par ch=1 c=64 v=56
132152 On ch=1 n=a3 v=68
132152 On ch=1 n=d4 v=75
132157 On ch=1 n=d3 v=61
132157 Par ch=1 c=64 v=0
132277 On ch=1 n=d5 v=0
132277 Par ch=1 c=64 v=72
132292 Par ch=1 c=64 v=127
132297 On ch=1 n=f#5 v=0
132302 On ch=1 n=a3 v=0
132307 On ch=1 n=d3 v=0
132327 On ch=1 n=d6 v=0
132342 On ch=1 n=d4 v=0
132597 Par ch=1 c=64 v=104
132607 On ch=1 n=a#7 v=89
132607 Par ch=1 c=64 v=0
132617 On ch=1 n=e6 v=82
132617 On ch=1 n=c#7 v=80
132622 On ch=1 n=g5 v=66
132657 Par ch=1 c=64 v=56
132672 Par ch=1 c=64 v=127
132697 On ch=1 n=e6 v=0
132702 On ch=1 n=c#7 v=0
132707 On ch=1 n=g5 v=0
132742 On ch=1 n=c7 v=65
132747 On ch=1 n=d#6 v=73
132782 On ch=1 n=a#7 v=0
132812 On ch=1 n=c7 v=0
132822 On ch=1 n=d#6 v=0
132857 On ch=1 n=b6 v=80
132862 On ch=1 n=d6 v=70
132902 On ch=1 n=b6 v=0
132937 On ch=1 n=d6 v=0
132987 On ch=1 n=g7 v=86
132987 Par ch=1 c=64 v=104
132992 On ch=1 n=c#6 v=71
132997 On ch=1 n=a#6 v=74
132997 On ch=1 n=e5 v=63
132997 Par ch=1 c=64 v=40
133037 Par ch=1 c=64 v=127
133072 On ch=1 n=c#6 v=0
133077 On ch=1 n=e5 v=0
133077 On ch=1 n=a#6 v=0
133087 On ch=1 n=g7 v=0
133107 On ch=1 n=c6 v=68
133112 On ch=1 n=a6 v=71
133192 On ch=1 n=a6 v=0
133197 On ch=1 n=c6 v=0
133217 On ch=1 n=b5 v=68
133222 On ch=1 n=g#6 v=70
133262 On ch=1 n=b5 v=0
133302 On ch=1 n=g#6 v=0
133342 On ch=1 n=e7 v=84
133342 Par ch=1 c=64 v=72
133347 On ch=1 n=a#5 v=80
133352 On ch=1 n=g6 v=76
133352 Par ch=1 c=64 v=40
133367 On ch=1 n=c#5 v=49
133367 Par ch=1 c=64 v=72
133377 Par ch=1 c=64 v=127
133402 On ch=1 n=g6 v=0
133412 On ch=1 n=a#5 v=0
133427 On ch=1 n=e7 v=0
133457 On ch=1 n=a5 v=65
133462 On ch=1 n=f#6 v=78
133532 On ch=1 n=a5 v=0
133552 On ch=1 n=f#6 v=0
133567 On ch=1 n=f6 v=81
133572 On ch=1 n=g#5 v=58
133597 On ch=1 n=c#5 v=0
133622 On ch=1 n=g#5 v=0
133652 On ch=1 n=f6 v=0
133732 On ch=1 n=c#7 v=88
133742 On ch=1 n=e6 v=86
133742 Par ch=1 c=64 v=56
133752 Par ch=1 c=64 v=0
133757 On ch=1 n=g5 v=74
133757 On ch=1 n=e5 v=66
133757 On ch=1 n=a#4 v=56
133792 Par ch=1 c=64 v=72
133802 Par ch=1 c=64 v=127
133817 On ch=1 n=a#4 v=0
133817 On ch=1 n=e6 v=0
133822 On ch=1 n=e5 v=0
133822 On ch=1 n=g5 v=0
133832 On ch=1 n=c#7 v=0
134082 Par ch=1 c=64 v=88
134092 Par ch=1 c=64 v=0
134127 On ch=1 n=a#6 v=85
134132 On ch=1 n=a#5 v=85
134137 On ch=1 n=g4 v=77
134137 On ch=1 n=e4 v=69
134137 On ch=1 n=c#4 v=62
134142 On ch=1 n=g3 v=62
134182 Par ch=1 c=64 v=127
134187 On ch=1 n=g3 v=0
134197 On ch=1 n=g4 v=0
134202 On ch=1 n=e4 v=0
134207 On ch=1 n=c#4 v=0
134262 On ch=1 n=c#6 v=68
134322 On ch=1 n=a#6 v=0
134327 On ch=1 n=a#5 v=0
134377 On ch=1 n=e6 v=88
134402 On ch=1 n=c#6 v=0
134417 On ch=1 n=e6 v=0
134487 On ch=1 n=g#6 v=57
134497 On ch=1 n=f#6 v=36
134507 On ch=1 n=g#6 v=0
134517 On ch=1 n=f#6 v=0
134567 On ch=1 n=d7 v=94
134572 On ch=1 n=a6 v=81
134577 On ch=1 n=d6 v=82
134577 On ch=1 n=f#6 v=58
134577 On ch=1 n=d5 v=74
134582 On ch=1 n=a4 v=66
134582 On ch=1 n=f#4 v=58
134582 Par ch=1 c=64 v=24
134592 On ch=1 n=d4 v=65
134597 Par ch=1 c=64 v=0
134687 Par ch=1 c=64 v=88
134697 Par ch=1 c=64 v=127
134737 On ch=1 n=d7 v=0
134747 On ch=1 n=d4 v=0
134747 On ch=1 n=a4 v=0
134747 On ch=1 n=a6 v=0
134762 On ch=1 n=f#6 v=0
134772 On ch=1 n=f#4 v=0
134772 On ch=1 n=d5 v=0
134782 On ch=1 n=d6 v=0
134952 Par ch=1 c=64 v=24
134962 Par ch=1 c=64 v=0
134967 On ch=1 n=a#6 v=76
134977 On ch=1 n=c#6 v=73
134977 On ch=1 n=e5 v=71
134992 On ch=1 n=g4 v=62
135017 On ch=1 n=g4 v=0
135037 On ch=1 n=e5 v=0
135037 Par ch=1 c=64 v=127
135072 On ch=1 n=c#6 v=0
135082 On ch=1 n=a#6 v=0
135092 On ch=1 n=c6 v=74
135097 On ch=1 n=d#5 v=62
135162 On ch=1 n=d#5 v=0
135167 On ch=1 n=c6 v=0
135202 On ch=1 n=d5 v=66
135207 On ch=1 n=b5 v=73
135257 On ch=1 n=b5 v=0
135272 On ch=1 n=d5 v=0
135322 On ch=1 n=c#5 v=49
135327 On ch=1 n=g6 v=81
135327 Par ch=1 c=64 v=88
135342 On ch=1 n=a#5 v=70
135342 Par ch=1 c=64 v=24
135382 Par ch=1 c=64 v=127
135407 On ch=1 n=c#5 v=0
135422 On ch=1 n=g6 v=0
135427 On ch=1 n=c5 v=70
135432 On ch=1 n=a#5 v=0
135442 On ch=1 n=a5 v=82
135502 On ch=1 n=c5 v=0
135517 On ch=1 n=a5 v=0
135537 On ch=1 n=b4 v=48
135547 On ch=1 n=g#5 v=69
135602 On ch=1 n=b4 v=0
135627 On ch=1 n=g#5 v=0
135682 On ch=1 n=e6 v=83
135682 Par ch=1 c=64 v=72
135692 On ch=1 n=a#4 v=79
135692 On ch=1 n=g5 v=69
135692 Par ch=1 c=64 v=24
135702 On ch=1 n=c#4 v=69
135707 Par ch=1 c=64 v=56
135717 Par ch=1 c=64 v=104
135732 Par ch=1 c=64 v=127
135742 On ch=1 n=g5 v=0
135757 On ch=1 n=e6 v=0
135772 On ch=1 n=a#4 v=0
135797 On ch=1 n=f#5 v=75
135812 On ch=1 n=a4 v=70
135887 On ch=1 n=a4 v=0
135887 On ch=1 n=f#5 v=0
135912 On ch=1 n=f5 v=65
135922 On ch=1 n=g#4 v=71
135947 On ch=1 n=c#4 v=0
135967 On ch=1 n=g#4 v=0
135977 On ch=1 n=f5 v=0
136067 On ch=1 n=c#6 v=90
136067 On ch=1 n=e5 v=79
136067 Par ch=1 c=64 v=88
136082 On ch=1 n=g4 v=75
136082 On ch=1 n=a#3 v=56
136082 Par ch=1 c=64 v=0
136132 On ch=1 n=e5 v=0
136147 Par ch=1 c=64 v=104
136157 Par ch=1 c=64 v=127
136177 On ch=1 n=g4 v=0
136182 On ch=1 n=c#6 v=0
136207 On ch=1 n=a#3 v=0
136437 Par ch=1 c=64 v=40
136447 Par ch=1 c=64 v=0
136462 On ch=1 n=a#5 v=85
136462 On ch=1 n=a#4 v=80
136472 On ch=1 n=g4 v=70
136472 On ch=1 n=e4 v=68
136472 On ch=1 n=g3 v=66
136477 On ch=1 n=c#4 v=55
136522 Par ch=1 c=64 v=104
136532 On ch=1 n=e4 v=0
136532 On ch=1 n=g4 v=0
136537 Par ch=1 c=64 v=127
136552 On ch=1 n=c#4 v=0
136557 On ch=1 n=a#4 v=0
136567 On ch=1 n=g3 v=0
136582 On ch=1 n=c#5 v=71
136622 On ch=1 n=a#5 v=0
136687 On ch=1 n=e5 v=71
136697 On ch=1 n=c#5 v=0
136707 On ch=1 n=e5 v=0
136882 On ch=1 n=d6 v=92
136887 On ch=1 n=f#5 v=58
136887 On ch=1 n=d5 v=74
136892 On ch=1 n=a5 v=73
136902 On ch=1 n=a3 v=62
136902 On ch=1 n=d3 v=59
136902 On ch=1 n=d4 v=43
136907 On ch=1 n=f#3 v=42
136917 Par ch=1 c=64 v=72
136927 Par ch=1 c=64 v=0
136947 Par ch=1 c=64 v=56
136962 Par ch=1 c=64 v=127
137157 On ch=1 n=d3 v=0
137167 On ch=1 n=a3 v=0
137172 On ch=1 n=d4 v=0
137172 On ch=1 n=d5 v=0
137177 On ch=1 n=f#5 v=0
137182 On ch=1 n=f#3 v=0
137182 On ch=1 n=a5 v=0
137182 On ch=1 n=d6 v=0
137212 Par ch=1 c=64 v=88
137227 Par ch=1 c=64 v=40
137242 Par ch=1 c=64 v=0
137282 On ch=1 n=e6 v=90
137282 On ch=1 n=e5 v=81
137282 On ch=1 n=a#3 v=55
137287 On ch=1 n=g4 v=71
137287 On ch=1 n=g3 v=65
137287 On ch=1 n=c#4 v=60
137317 On ch=1 n=g3 v=0
137337 On ch=1 n=c#4 v=0
137342 On ch=1 n=a#3 v=0
137342 Par ch=1 c=64 v=24
137352 Par ch=1 c=64 v=72
137362 On ch=1 n=g4 v=0
137367 Par ch=1 c=64 v=104
137387 Par ch=1 c=64 v=127
137417 On ch=1 n=a#5 v=49
137442 On ch=1 n=e5 v=0
137482 On ch=1 n=e6 v=0
137502 On ch=1 n=c#6 v=61
137517 On ch=1 n=a#5 v=0
137597 On ch=1 n=c#6 v=0
137627 Par ch=1 c=64 v=72
137642 Par ch=1 c=64 v=0
137677 On ch=1 n=f#6 v=91
137677 On ch=1 n=f#5 v=72
137682 On ch=1 n=a5 v=80
137682 On ch=1 n=d5 v=68
137687 On ch=1 n=f#4 v=55
137687 On ch=1 n=a4 v=59
137687 On ch=1 n=d4 v=60
137742 On ch=1 n=a5 v=0
137742 Par ch=1 c=64 v=40
137747 On ch=1 n=d5 v=0
137747 On ch=1 n=f#5 v=0
137752 On ch=1 n=a4 v=0
137752 Par ch=1 c=64 v=104
137767 Par ch=1 c=64 v=127
137772 On ch=1 n=f#4 v=0
137782 On ch=1 n=d4 v=0
137807 On ch=1 n=f#6 v=0
138022 Par ch=1 c=64 v=40
138037 Par ch=1 c=64 v=0
138062 On ch=1 n=a#6 v=86
138067 On ch=1 n=a#5 v=88
138067 On ch=1 n=g4 v=73
138072 On ch=1 n=g3 v=66
138077 On ch=1 n=c#4 v=61
138077 On ch=1 n=a#3 v=54
138122 On ch=1 n=c#4 v=0
138122 On ch=1 n=g4 v=0
138122 Par ch=1 c=64 v=40
138132 On ch=1 n=a#3 v=0
138137 On ch=1 n=g3 v=0
138137 Par ch=1 c=64 v=104
138152 Par ch=1 c=64 v=127
138172 On ch=1 n=a#5 v=0
138187 On ch=1 n=c#6 v=71
138232 On ch=1 n=a#6 v=0
138292 On ch=1 n=e6 v=76
138302 On ch=1 n=c#6 v=0
138317 On ch=1 n=e6 v=0
138452 Par ch=1 c=64 v=56
138462 Par ch=1 c=64 v=0
138467 On ch=1 n=d7 v=90
138467 On ch=1 n=d4 v=80
138472 On ch=1 n=a3 v=74
138472 On ch=1 n=f#3 v=60
138472 On ch=1 n=d3 v=70
138477 On ch=1 n=d6 v=79
138477 On ch=1 n=f#6 v=71
138532 On ch=1 n=a3 v=0
138532 Par ch=1 c=64 v=56
138542 On ch=1 n=d6 v=0
138547 On ch=1 n=d4 v=0
138552 On ch=1 n=f#6 v=0
138552 Par ch=1 c=64 v=127
138562 On ch=1 n=f#3 v=0
138567 On ch=1 n=d3 v=0
138587 On ch=1 n=d7 v=0
138817 Par ch=1 c=64 v=72
138832 Par ch=1 c=64 v=0
138847 On ch=1 n=e7 v=92
138852 On ch=1 n=e6 v=85
138857 On ch=1 n=g3 v=73
138857 On ch=1 n=g2 v=65
138857 On ch=1 n=c#3 v=60
138862 On ch=1 n=a#2 v=56
138907 On ch=1 n=c#3 v=0
138907 On ch=1 n=g2 v=0
138917 On ch=1 n=a#2 v=0
138917 On ch=1 n=g3 v=0
138922 Par ch=1 c=64 v=56
138932 Par ch=1 c=64 v=127
138977 On ch=1 n=a#6 v=61
139042 On ch=1 n=e7 v=0
139047 On ch=1 n=e6 v=0
139082 On ch=1 n=c#7 v=74
139097 On ch=1 n=a#6 v=0
139187 On ch=1 n=c#7 v=0
139202 Par ch=1 c=64 v=72
139217 Par ch=1 c=64 v=0
139237 On ch=1 n=f#7 v=96
139237 On ch=1 n=f#6 v=84
139242 On ch=1 n=d4 v=74
139247 On ch=1 n=a6 v=83
139252 On ch=1 n=f#3 v=56
139252 On ch=1 n=d3 v=62
139252 On ch=1 n=a3 v=70
139302 On ch=1 n=a6 v=0
139302 On ch=1 n=d4 v=0
139302 Par ch=1 c=64 v=88
139312 On ch=1 n=a3 v=0
139312 On ch=1 n=f#6 v=0
139317 Par ch=1 c=64 v=127
139327 On ch=1 n=f#3 v=0
139342 On ch=1 n=d3 v=0
139352 On ch=1 n=f#7 v=0
139602 Par ch=1 c=64 v=56
139617 Par ch=1 c=64 v=0
139622 On ch=1 n=a#7 v=86
139622 On ch=1 n=a#6 v=90
139627 On ch=1 n=g3 v=74
139627 On ch=1 n=g2 v=65
139627 On ch=1 n=c#3 v=61
139632 On ch=1 n=a#2 v=57
139677 On ch=1 n=c#3 v=0
139682 On ch=1 n=a#2 v=0
139682 On ch=1 n=g2 v=0
139682 Par ch=1 c=64 v=40
139697 On ch=1 n=g3 v=0
139702 Par ch=1 c=64 v=127
139747 On ch=1 n=c#7 v=83
139787 On ch=1 n=a#6 v=0
139797 On ch=1 n=a#7 v=0
139862 On ch=1 n=e7 v=87
139867 On ch=1 n=c#7 v=0
139897 On ch=1 n=e7 v=0
139997 Par ch=1 c=64 v=40
140012 On ch=1 n=d8 v=94
140012 Par ch=1 c=64 v=0
140017 On ch=1 n=d7 v=80
140017 On ch=1 n=f#7 v=73
140022 On ch=1 n=d3 v=72
140022 On ch=1 n=d4 v=82
140022 On ch=1 n=f#3 v=65
140022 On ch=1 n=a3 v=79
140067 Par ch=1 c=64 v=72
140082 Par ch=1 c=64 v=127
140087 On ch=1 n=a3 v=0
140092 On ch=1 n=d4 v=0
140107 On ch=1 n=d8 v=0
140112 On ch=1 n=f#3 v=0
140122 On ch=1 n=d3 v=0
140122 On ch=1 n=f#7 v=0
140122 On ch=1 n=d7 v=0
140367 Par ch=1 c=64 v=0
140387 On ch=1 n=a#7 v=87
140392 On ch=1 n=a#6 v=87
140392 On ch=1 n=a#2 v=65
140397 On ch=1 n=g2 v=66
140397 On ch=1 n=c#3 v=57
140402 On ch=1 n=g3 v=68
140437 Par ch=1 c=64 v=24
140447 On ch=1 n=c#3 v=0
140452 On ch=1 n=g2 v=0
140457 On ch=1 n=a#2 v=0
140457 Par ch=1 c=64 v=104
140467 Par ch=1 c=64 v=127
140477 On ch=1 n=g3 v=0
140502 On ch=1 n=c#7 v=65
140512 On ch=1 n=a#7 v=0
140567 On ch=1 n=a#6 v=0
140587 On ch=1 n=e7 v=70
140602 On ch=1 n=c#7 v=0
140622 On ch=1 n=e7 v=0
140752 Par ch=1 c=64 v=104
140767 Par ch=1 c=64 v=0
140787 On ch=1 n=d8 v=102
140792 On ch=1 n=d4 v=82
140792 On ch=1 n=f#7 v=69
140792 On ch=1 n=d7 v=83
140792 On ch=1 n=f#3 v=61
140792 On ch=1 n=d3 v=69
140797 On ch=1 n=a3 v=77
140852 Par ch=1 c=64 v=56
140867 On ch=1 n=a3 v=0
140867 Par ch=1 c=64 v=127
140877 On ch=1 n=d4 v=0
140887 On ch=1 n=d8 v=0
140897 On ch=1 n=f#3 v=0
140902 On ch=1 n=d3 v=0
140902 On ch=1 n=f#7 v=0
140907 On ch=1 n=d7 v=0
141147 Par ch=1 c=64 v=72
141162 Par ch=1 c=64 v=0
141172 On ch=1 n=a#2 v=64
141172 On ch=1 n=a#6 v=88
141172 On ch=1 n=a#7 v=85
141177 On ch=1 n=g2 v=67
141177 On ch=1 n=c#3 v=64
141177 On ch=1 n=g3 v=70
141222 On ch=1 n=c#3 v=0
141222 Par ch=1 c=64 v=24
141227 On ch=1 n=g2 v=0
141227 On ch=1 n=a#2 v=0
141237 Par ch=1 c=64 v=88
141247 Par ch=1 c=64 v=127
141257 On ch=1 n=g3 v=0
141292 On ch=1 n=c#7 v=73
141332 On ch=1 n=a#7 v=0
141337 On ch=1 n=a#6 v=0
141372 On ch=1 n=e7 v=66
141382 On ch=1 n=c#7 v=0
141392 On ch=1 n=e7 v=0
141547 Par ch=1 c=64 v=56
141562 Par ch=1 c=64 v=0
141582 On ch=1 n=d8 v=102
141592 On ch=1 n=d3 v=74
141592 On ch=1 n=d4 v=79
141592 On ch=1 n=d7 v=83
141592 On ch=1 n=f#3 v=62
141597 On ch=1 n=f#7 v=76
141597 On ch=1 n=a3 v=74
141622 On ch=1 n=a3 v=0
141622 On ch=1 n=d3 v=0
141642 On ch=1 n=f#3 v=0
141642 On ch=1 n=d7 v=0
141642 Par ch=1 c=64 v=127
141647 On ch=1 n=f#7 v=0
141652 On ch=1 n=d8 v=0
141657 On ch=1 n=d4 v=0
141817 On ch=1 n=a#7 v=96
141817 On ch=1 n=a#6 v=87
141872 On ch=1 n=a#6 v=0
141882 On ch=1 n=a#7 v=0
141997 On ch=1 n=a6 v=89
141997 Par ch=1 c=64 v=88
142002 On ch=1 n=a5 v=78
142017 Par ch=1 c=64 v=104
142027 Par ch=1 c=64 v=127
142057 On ch=1 n=a6 v=0
142062 On ch=1 n=a5 v=0
142172 On ch=1 n=f#6 v=95
142182 On ch=1 n=f#5 v=75
142207 On ch=1 n=f#5 v=0
142217 On ch=1 n=f#6 v=0
142367 On ch=1 n=d7 v=89
142372 On ch=1 n=d6 v=82
142422 On ch=1 n=d6 v=0
142442 On ch=1 n=d7 v=0
142547 On ch=1 n=a#5 v=89
142547 On ch=1 n=a#6 v=92
142597 On ch=1 n=a#5 v=0
142602 On ch=1 n=a#6 v=0
142742 On ch=1 n=a5 v=92
142767 On ch=1 n=a4 v=59
142797 On ch=1 n=a4 v=0
142802 On ch=1 n=a5 v=0
142917 On ch=1 n=f#5 v=93
142922 On ch=1 n=f#4 v=86
142957 On ch=1 n=f#5 v=0
142962 On ch=1 n=f#4 v=0
143107 On ch=1 n=d6 v=89
143112 On ch=1 n=d5 v=82
143162 On ch=1 n=d5 v=0
143177 On ch=1 n=d6 v=0
143292 On ch=1 n=a#5 v=87
143292 On ch=1 n=a#4 v=85
143342 On ch=1 n=a#4 v=0
143352 On ch=1 n=a#5 v=0
143477 On ch=1 n=a4 v=90
143482 On ch=1 n=a3 v=81
143482 Par ch=1 c=64 v=72
143492 Par ch=1 c=64 v=56
143517 Par ch=1 c=64 v=104
143527 On ch=1 n=a4 v=0
143532 Par ch=1 c=64 v=127
143537 On ch=1 n=a3 v=0
143647 On ch=1 n=f#4 v=91
143652 On ch=1 n=f#3 v=78
143692 On ch=1 n=f#4 v=0
143702 On ch=1 n=f#3 v=0
143837 On ch=1 n=d5 v=87
143842 On ch=1 n=d4 v=85
143847 Par ch=1 c=64 v=88
143862 Par ch=1 c=64 v=24
143897 On ch=1 n=d4 v=0
143907 On ch=1 n=d5 v=0
143907 Par ch=1 c=64 v=104
143917 Par ch=1 c=64 v=127
144017 On ch=1 n=a#4 v=84
144022 On ch=1 n=a#3 v=88
144062 On ch=1 n=a#3 v=0
144082 On ch=1 n=a#4 v=0
144217 On ch=1 n=a3 v=82
144242 On ch=1 n=a2 v=29
144267 On ch=1 n=a2 v=0
144267 On ch=1 n=a3 v=0
144402 On ch=1 n=f#3 v=97
144402 On ch=1 n=f#2 v=79
144447 On ch=1 n=f#2 v=0
144447 On ch=1 n=f#3 v=0
144597 On ch=1 n=d5 v=89
144607 On ch=1 n=d4 v=83
144692 Par ch=1 c=64 v=24
144707 Par ch=1 c=64 v=40
144722 Par ch=1 c=64 v=72
144727 On ch=1 n=d4 v=0
144737 Par ch=1 c=64 v=88
144757 On ch=1 n=d5 v=0
144767 Par ch=1 c=64 v=104
144782 On ch=1 n=c4 v=80
144787 On ch=1 n=c3 v=68
144847 On ch=1 n=c4 v=0
144857 On ch=1 n=c3 v=0
144862 Par ch=1 c=64 v=127
144982 Par ch=1 c=64 v=104
144992 On ch=1 n=d5 v=88
144997 On ch=1 n=d4 v=83
144997 Par ch=1 c=64 v=72
145012 Par ch=1 c=64 v=0
145157 On ch=1 n=d4 v=0
145162 On ch=1 n=d5 v=0
145162 Par ch=1 c=64 v=40
145177 Par ch=1 c=64 v=72
145187 On ch=1 n=b3 v=84
145197 On ch=1 n=b2 v=74
145197 Par ch=1 c=64 v=88
145212 Par ch=1 c=64 v=104
145227 Par ch=1 c=64 v=127
145257 On ch=1 n=b2 v=0
145262 On ch=1 n=b3 v=0
145357 On ch=1 n=d5 v=84
145362 On ch=1 n=d4 v=78
145362 Par ch=1 c=64 v=88
145377 Par ch=1 c=64 v=24
145392 Par ch=1 c=64 v=0
145482 Par ch=1 c=64 v=24
145487 On ch=1 n=d4 v=0
145497 Par ch=1 c=64 v=56
145502 On ch=1 n=d5 v=0
145512 Par ch=1 c=64 v=88
145527 Par ch=1 c=64 v=104
145532 On ch=1 n=a#3 v=85
145537 On ch=1 n=a#2 v=67
145542 Par ch=1 c=64 v=127
145582 On ch=1 n=a#3 v=0
145602 On ch=1 n=a#2 v=0
145717 On ch=1 n=d5 v=85
145722 On ch=1 n=d4 v=82
145737 Par ch=1 c=64 v=72
145752 Par ch=1 c=64 v=24
145767 Par ch=1 c=64 v=0
145852 On ch=1 n=d4 v=0
145867 On ch=1 n=d5 v=0
145872 Par ch=1 c=64 v=40
145887 Par ch=1 c=64 v=72
145892 On ch=1 n=g3 v=83
145897 On ch=1 n=g2 v=73
145907 Par ch=1 c=64 v=104
145922 Par ch=1 c=64 v=127
145962 On ch=1 n=g2 v=0
145972 On ch=1 n=g3 v=0
146087 On ch=1 n=d5 v=83
146087 On ch=1 n=d4 v=78
146147 Par ch=1 c=64 v=88
146162 Par ch=1 c=64 v=40
146177 Par ch=1 c=64 v=0
146252 Par ch=1 c=64 v=40
146257 On ch=1 n=g#3 v=86
146262 On ch=1 n=g#2 v=69
146267 On ch=1 n=d4 v=0
146272 Par ch=1 c=64 v=72
146287 Par ch=1 c=64 v=104
146292 On ch=1 n=d5 v=0
146302 Par ch=1 c=64 v=127
146322 On ch=1 n=g#2 v=0
146342 On ch=1 n=g#3 v=0
146447 On ch=1 n=d5 v=85
146457 On ch=1 n=d4 v=78
146482 Par ch=1 c=64 v=72
146497 Par ch=1 c=64 v=24
146512 Par ch=1 c=64 v=0
146557 Par ch=1 c=64 v=24
146572 Par ch=1 c=64 v=56
146587 Par ch=1 c=64 v=88
146602 Par ch=1 c=64 v=127
146637 On ch=1 n=a3 v=88
146652 On ch=1 n=a2 v=56
146667 On ch=1 n=d5 v=0
146687 On ch=1 n=d4 v=0
146692 On ch=1 n=a3 v=0
146697 On ch=1 n=a2 v=0
146702 Par ch=1 c=64 v=104
146712 Par ch=1 c=64 v=104
146717 Par ch=1 c=64 v=88
146727 Par ch=1 c=64 v=72
146732 Par ch=1 c=64 v=88
146747 Par ch=1 c=64 v=56
146757 Par ch=1 c=64 v=24
146767 Par ch=1 c=64 v=0
146832 On ch=1 n=d3 v=93
146837 On ch=1 n=d2 v=77
146897 On ch=1 n=d2 v=0
146912 Par ch=1 c=64 v=24
146927 Par ch=1 c=64 v=40
146932 On ch=1 n=d3 v=0
146937 Par ch=1 c=64 v=56
146952 Par ch=1 c=64 v=72
146972 Par ch=1 c=64 v=88
146982 Par ch=1 c=64 v=104
146992 Par ch=1 c=64 v=127
147002 On ch=1 n=d#4 v=80
147002 On ch=1 n=d#3 v=72
147057 On ch=1 n=d#3 v=0
147087 On ch=1 n=d#4 v=0
147152 Par ch=1 c=64 v=72
147162 Par ch=1 c=64 v=0
147177 On ch=1 n=e3 v=92
147177 On ch=1 n=e2 v=78
147237 On ch=1 n=e2 v=0
147252 On ch=1 n=e3 v=0
147277 Par ch=1 c=64 v=24
147287 Par ch=1 c=64 v=56
147297 Par ch=1 c=64 v=72
147312 Par ch=1 c=64 v=88
147322 Par ch=1 c=64 v=104
147337 On ch=1 n=f4 v=83
147337 On ch=1 n=f3 v=78
147342 Par ch=1 c=64 v=127
147397 On ch=1 n=f3 v=0
147407 On ch=1 n=f4 v=0
147457 Par ch=1 c=64 v=40
147467 On ch=1 n=f#3 v=83
147467 On ch=1 n=f#2 v=65
147467 Par ch=1 c=64 v=0
147527 On ch=1 n=f#2 v=0
147537 On ch=1 n=f#3 v=0
147537 Par ch=1 c=64 v=24
147547 Par ch=1 c=64 v=40
147557 Par ch=1 c=64 v=72
147567 Par ch=1 c=64 v=88
147592 Par ch=1 c=64 v=104
147632 On ch=1 n=g4 v=83
147632 On ch=1 n=g3 v=77
147637 Par ch=1 c=64 v=127
147697 On ch=1 n=g3 v=0
147717 On ch=1 n=g4 v=0
147752 Par ch=1 c=64 v=72
147762 Par ch=1 c=64 v=24
147772 On ch=1 n=g#3 v=82
147772 Par ch=1 c=64 v=0
147777 On ch=1 n=g#2 v=76
147837 On ch=1 n=g#2 v=0
147842 Par ch=1 c=64 v=24
147852 Par ch=1 c=64 v=56
147857 On ch=1 n=g#3 v=0
147862 Par ch=1 c=64 v=72
147877 Par ch=1 c=64 v=104
147897 Par ch=1 c=64 v=127
147917 On ch=1 n=a4 v=78
147917 On ch=1 n=a3 v=80
147977 On ch=1 n=a3 v=0
147997 On ch=1 n=a4 v=0
148002 Par ch=1 c=64 v=88
148012 Par ch=1 c=64 v=24
148022 Par ch=1 c=64 v=0
148042 On ch=1 n=a#3 v=84
148047 On ch=1 n=a#2 v=71
148077 Par ch=1 c=64 v=40
148087 Par ch=1 c=64 v=56
148097 On ch=1 n=a#2 v=0
148102 Par ch=1 c=64 v=88
148112 On ch=1 n=a#3 v=0
148122 Par ch=1 c=64 v=104
148157 Par ch=1 c=64 v=127
148182 On ch=1 n=b3 v=72
148187 On ch=1 n=b4 v=74
148202 Par ch=1 c=64 v=104
148212 Par ch=1 c=64 v=88
148222 Par ch=1 c=64 v=72
148227 On ch=1 n=b3 v=0
148237 Par ch=1 c=64 v=56
148247 Par ch=1 c=64 v=40
148257 On ch=1 n=b4 v=0
148262 Par ch=1 c=64 v=24
148272 Par ch=1 c=64 v=0
148317 On ch=1 n=c4 v=88
148322 On ch=1 n=c3 v=72
148377 On ch=1 n=c3 v=0
148417 On ch=1 n=c4 v=0
148447 On ch=1 n=c#5 v=75
148447 On ch=1 n=c#4 v=73
148507 On ch=1 n=c#4 v=0
148532 On ch=1 n=c#5 v=0
148587 On ch=1 n=d4 v=90
148592 On ch=1 n=d3 v=77
148647 On ch=1 n=d3 v=0
148657 Par ch=1 c=64 v=24
148667 Par ch=1 c=64 v=56
148677 Par ch=1 c=64 v=72
148687 On ch=1 n=d4 v=0
148687 Par ch=1 c=64 v=88
148697 Par ch=1 c=64 v=104
148712 On ch=1 n=d#5 v=78
148712 On ch=1 n=d#4 v=72
148742 Par ch=1 c=64 v=127
148767 On ch=1 n=d#4 v=0
148782 On ch=1 n=d#5 v=0
148782 Par ch=1 c=64 v=88
148792 Par ch=1 c=64 v=56
148802 Par ch=1 c=64 v=40
148812 Par ch=1 c=64 v=0
148832 On ch=1 n=e4 v=86
148837 On ch=1 n=e3 v=74
148857 Par ch=1 c=64 v=24
148872 Par ch=1 c=64 v=40
148877 Par ch=1 c=64 v=56
148887 On ch=1 n=e3 v=0
148907 On ch=1 n=e4 v=0
148927 Par ch=1 c=64 v=72
148952 On ch=1 n=f5 v=80
148952 On ch=1 n=f4 v=76
148982 Par ch=1 c=64 v=40
148992 Par ch=1 c=64 v=24
149002 Par ch=1 c=64 v=0
149007 On ch=1 n=f4 v=0
149022 On ch=1 n=f5 v=0
149072 On ch=1 n=f#4 v=81
149082 On ch=1 n=f#3 v=70
149142 On ch=1 n=f#3 v=0
149162 On ch=1 n=f#4 v=0
149192 On ch=1 n=g5 v=82
149197 On ch=1 n=g4 v=72
149257 On ch=1 n=g4 v=0
149282 On ch=1 n=g5 v=0
149312 On ch=1 n=g#4 v=71
149322 On ch=1 n=g#3 v=67
149392 On ch=1 n=g#3 v=0
149402 On ch=1 n=g#4 v=0
149432 Par ch=1 c=64 v=24
149437 On ch=1 n=a5 v=83
149437 On ch=1 n=a4 v=71
149447 Par ch=1 c=64 v=40
149467 Par ch=1 c=64 v=56
149497 On ch=1 n=a4 v=0
149512 Par ch=1 c=64 v=0
149517 On ch=1 n=a5 v=0
149542 On ch=1 n=a#4 v=81
149552 On ch=1 n=a#3 v=69
149582 Par ch=1 c=64 v=24
149592 Par ch=1 c=64 v=56
149607 On ch=1 n=a#3 v=0
149607 Par ch=1 c=64 v=72
149617 Par ch=1 c=64 v=104
149627 On ch=1 n=a#4 v=0
149627 Par ch=1 c=64 v=127
149662 On ch=1 n=b4 v=68
149662 On ch=1 n=b5 v=82
149702 On ch=1 n=b4 v=0
149727 Par ch=1 c=64 v=72
149732 On ch=1 n=b5 v=0
149737 Par ch=1 c=64 v=40
149752 Par ch=1 c=64 v=0
149772 On ch=1 n=c5 v=89
149782 On ch=1 n=c4 v=80
149782 Par ch=1 c=64 v=24
149797 Par ch=1 c=64 v=56
149807 Par ch=1 c=64 v=72
149817 Par ch=1 c=64 v=104
149827 On ch=1 n=c4 v=0
149827 Par ch=1 c=64 v=127
149857 On ch=1 n=c5 v=0
149892 On ch=1 n=c#6 v=83
149892 On ch=1 n=c#5 v=67
149942 On ch=1 n=c#5 v=0
149962 On ch=1 n=c#6 v=0
149967 Par ch=1 c=64 v=72
149977 Par ch=1 c=64 v=0
150017 On ch=1 n=d5 v=82
150022 On ch=1 n=d4 v=77
150042 Par ch=1 c=64 v=40
150057 Par ch=1 c=64 v=88
150067 Par ch=1 c=64 v=127
150072 On ch=1 n=d4 v=0
150107 On ch=1 n=d5 v=0
150132 On ch=1 n=d#6 v=80
150137 On ch=1 n=d#5 v=67
150197 On ch=1 n=d#5 v=0
150207 On ch=1 n=d#6 v=0
150227 Par ch=1 c=64 v=88
150237 Par ch=1 c=64 v=24
150247 On ch=1 n=e5 v=87
150247 Par ch=1 c=64 v=0
150252 On ch=1 n=e4 v=75
150292 Par ch=1 c=64 v=24
150302 Par ch=1 c=64 v=56
150317 On ch=1 n=e4 v=0
150317 Par ch=1 c=64 v=88
150327 Par ch=1 c=64 v=127
150332 On ch=1 n=e5 v=0
150377 On ch=1 n=f6 v=83
150377 On ch=1 n=f5 v=73
150427 On ch=1 n=f5 v=0
150447 On ch=1 n=f6 v=0
150472 Par ch=1 c=64 v=88
150487 Par ch=1 c=64 v=0
150492 On ch=1 n=f#5 v=84
150497 On ch=1 n=f#4 v=74
150542 Par ch=1 c=64 v=40
150552 On ch=1 n=f#4 v=0
150552 Par ch=1 c=64 v=72
150557 On ch=1 n=f#5 v=0
150562 Par ch=1 c=64 v=104
150577 Par ch=1 c=64 v=127
150622 On ch=1 n=g6 v=85
150627 On ch=1 n=g5 v=60
150687 On ch=1 n=g5 v=0
150707 On ch=1 n=g6 v=0
150722 Par ch=1 c=64 v=72
150732 Par ch=1 c=64 v=0
150737 On ch=1 n=g#5 v=81
150747 On ch=1 n=g#4 v=71
150777 Par ch=1 c=64 v=24
150792 Par ch=1 c=64 v=56
150802 Par ch=1 c=64 v=88
150807 On ch=1 n=g#4 v=0
150812 Par ch=1 c=64 v=127
150827 On ch=1 n=g#5 v=0
150857 On ch=1 n=a6 v=82
150857 On ch=1 n=a5 v=71
150922 On ch=1 n=a5 v=0
150942 On ch=1 n=a6 v=0
150947 Par ch=1 c=64 v=104
150962 Par ch=1 c=64 v=40
150972 On ch=1 n=a#5 v=83
150972 Par ch=1 c=64 v=0
150977 On ch=1 n=a#4 v=67
151002 Par ch=1 c=64 v=56
151017 Par ch=1 c=64 v=88
151027 Par ch=1 c=64 v=127
151032 On ch=1 n=a#4 v=0
151057 On ch=1 n=a#5 v=0
151097 On ch=1 n=b6 v=92
151097 On ch=1 n=b5 v=74
151142 On ch=1 n=b5 v=0
151167 On ch=1 n=b6 v=0
151197 Par ch=1 c=64 v=88
151207 Par ch=1 c=64 v=40
151217 On ch=1 n=c6 v=92
151222 On ch=1 n=c5 v=73
151222 Par ch=1 c=64 v=0
151252 Par ch=1 c=64 v=72
151267 On ch=1 n=c5 v=0
151267 Par ch=1 c=64 v=104
151272 Par ch=1 c=64 v=127
151297 On ch=1 n=c6 v=0
151337 On ch=1 n=c#6 v=79
151337 On ch=1 n=c#7 v=90
151402 On ch=1 n=c#6 v=0
151422 On ch=1 n=c#7 v=0
151447 Par ch=1 c=64 v=56
151452 On ch=1 n=d6 v=93
151457 On ch=1 n=d5 v=83
151457 Par ch=1 c=64 v=0
151492 Par ch=1 c=64 v=24
151502 Par ch=1 c=64 v=56
151507 On ch=1 n=d5 v=0
151512 Par ch=1 c=64 v=104
151522 Par ch=1 c=64 v=127
151542 On ch=1 n=d6 v=0
151577 On ch=1 n=c#7 v=83
151582 On ch=1 n=c#6 v=79
151637 On ch=1 n=c#7 v=0
151662 On ch=1 n=c#6 v=0
151672 Par ch=1 c=64 v=56
151682 Par ch=1 c=64 v=0
151687 On ch=1 n=c6 v=94
151692 On ch=1 n=c5 v=75
151727 Par ch=1 c=64 v=40
151737 On ch=1 n=c6 v=0
151742 On ch=1 n=c5 v=0
151742 Par ch=1 c=64 v=88
151752 Par ch=1 c=64 v=127
151812 On ch=1 n=b6 v=82
151817 On ch=1 n=b5 v=64
151867 On ch=1 n=b5 v=0
151872 On ch=1 n=b6 v=0
151912 On ch=1 n=a#5 v=86
151912 On ch=1 n=a#4 v=76
151932 Par ch=1 c=64 v=72
151942 Par ch=1 c=64 v=40
151962 On ch=1 n=a#5 v=0
151967 On ch=1 n=a#4 v=0
151977 Par ch=1 c=64 v=88
151987 Par ch=1 c=64 v=127
152027 On ch=1 n=a6 v=84
152032 On ch=1 n=a5 v=73
152102 On ch=1 n=a5 v=0
152112 On ch=1 n=a6 v=0
152132 On ch=1 n=g#5 v=82
152132 On ch=1 n=g#4 v=74
152137 Par ch=1 c=64 v=104
152147 Par ch=1 c=64 v=40
152157 Par ch=1 c=64 v=0
152192 Par ch=1 c=64 v=40
152202 On ch=1 n=g#4 v=0
152202 Par ch=1 c=64 v=72
152207 On ch=1 n=g#5 v=0
152212 Par ch=1 c=64 v=104
152227 Par ch=1 c=64 v=127
152252 On ch=1 n=g6 v=86
152257 On ch=1 n=g5 v=67
152342 On ch=1 n=g6 v=0
152352 On ch=1 n=g5 v=0
152357 On ch=1 n=f#5 v=77
152362 Par ch=1 c=64 v=88
152367 On ch=1 n=f#4 v=69
152372 Par ch=1 c=64 v=56
152407 On ch=1 n=f#5 v=0
152407 Par ch=1 c=64 v=104
152417 On ch=1 n=f#4 v=0
152417 Par ch=1 c=64 v=127
152467 On ch=1 n=f6 v=82
152472 On ch=1 n=f5 v=66
152532 On ch=1 n=f6 v=0
152537 On ch=1 n=f5 v=0
152592 On ch=1 n=e5 v=85
152592 On ch=1 n=e4 v=73
152597 Par ch=1 c=64 v=104
152612 Par ch=1 c=64 v=56
152617 Par ch=1 c=64 v=0
152652 On ch=1 n=e4 v=0
152652 Par ch=1 c=64 v=40
152667 Par ch=1 c=64 v=72
152672 On ch=1 n=e5 v=0
152677 Par ch=1 c=64 v=104
152687 Par ch=1 c=64 v=127
152697 On ch=1 n=d#6 v=77
152702 On ch=1 n=d#5 v=73
152782 On ch=1 n=d#5 v=0
152782 On ch=1 n=d#6 v=0
152827 On ch=1 n=d5 v=92
152827 Par ch=1 c=64 v=88
152832 On ch=1 n=d4 v=81
152832 Par ch=1 c=64 v=40
152847 Par ch=1 c=64 v=0
152882 Par ch=1 c=64 v=40
152887 On ch=1 n=d4 v=0
152892 On ch=1 n=d5 v=0
152892 Par ch=1 c=64 v=72
152902 Par ch=1 c=64 v=127
152937 On ch=1 n=c#6 v=77
152937 On ch=1 n=c#5 v=73
152997 On ch=1 n=c#6 v=0
153017 Par ch=1 c=64 v=88
153027 Par ch=1 c=64 v=24
153032 On ch=1 n=c#5 v=0
153042 On ch=1 n=c5 v=87
153042 Par ch=1 c=64 v=0
153052 On ch=1 n=c4 v=78
153087 On ch=1 n=c5 v=0
153097 Par ch=1 c=64 v=56
153107 On ch=1 n=c4 v=0
153107 Par ch=1 c=64 v=88
153117 Par ch=1 c=64 v=127
153162 On ch=1 n=b5 v=84
153172 On ch=1 n=b4 v=69
153242 On ch=1 n=b4 v=0
153242 On ch=1 n=b5 v=0
153242 Par ch=1 c=64 v=104
153252 Par ch=1 c=64 v=88
153262 Par ch=1 c=64 v=56
153267 On ch=1 n=a#4 v=82
153272 On ch=1 n=a#3 v=76
153277 Par ch=1 c=64 v=40
153317 On ch=1 n=a#4 v=0
153322 On ch=1 n=a#3 v=0
153322 Par ch=1 c=64 v=0
153377 On ch=1 n=a5 v=86
153382 On ch=1 n=a4 v=70
153462 On ch=1 n=a5 v=0
153467 Par ch=1 c=64 v=56
153477 On ch=1 n=a4 v=0
153477 Par ch=1 c=64 v=104
153482 On ch=1 n=g#4 v=85
153487 On ch=1 n=g#3 v=77
153492 Par ch=1 c=64 v=127
153527 On ch=1 n=g#4 v=0
153532 On ch=1 n=g#3 v=0
153597 On ch=1 n=g5 v=84
153602 On ch=1 n=g4 v=74
153682 On ch=1 n=g5 v=0
153682 Par ch=1 c=64 v=72
153692 On ch=1 n=g4 v=0
153692 Par ch=1 c=64 v=0
153697 On ch=1 n=f#4 v=87
153702 On ch=1 n=f#3 v=78
153727 Par ch=1 c=64 v=24
153737 Par ch=1 c=64 v=56
153752 On ch=1 n=f#4 v=0
153752 Par ch=1 c=64 v=88
153757 On ch=1 n=f#3 v=0
153762 Par ch=1 c=64 v=104
153772 Par ch=1 c=64 v=127
153807 On ch=1 n=f5 v=81
153812 On ch=1 n=f4 v=74
153872 On ch=1 n=f4 v=0
153872 On ch=1 n=f5 v=0
153912 On ch=1 n=e4 v=89
153917 On ch=1 n=e3 v=71
153922 Par ch=1 c=64 v=88
153932 Par ch=1 c=64 v=56
153942 Par ch=1 c=64 v=40
153952 Par ch=1 c=64 v=56
153967 Par ch=1 c=64 v=72
153972 On ch=1 n=e3 v=0
153977 Par ch=1 c=64 v=88
153987 On ch=1 n=e4 v=0
153987 Par ch=1 c=64 v=104
153997 Par ch=1 c=64 v=127
154017 On ch=1 n=d#5 v=76
154022 On ch=1 n=d#4 v=74
154097 On ch=1 n=d#5 v=0
154102 On ch=1 n=d#4 v=0
154142 On ch=1 n=d4 v=93
154147 On ch=1 n=d3 v=79
154147 Par ch=1 c=64 v=72
154157 Par ch=1 c=64 v=0
154197 On ch=1 n=d3 v=0
154212 On ch=1 n=d4 v=0
154212 Par ch=1 c=64 v=40
154227 Par ch=1 c=64 v=72
154237 Par ch=1 c=64 v=104
154242 On ch=1 n=c#5 v=76
154242 On ch=1 n=c#4 v=76
154247 Par ch=1 c=64 v=127
154317 On ch=1 n=c#5 v=0
154317 Par ch=1 c=64 v=72
154322 On ch=1 n=c#4 v=0
154327 Par ch=1 c=64 v=0
154342 On ch=1 n=c4 v=93
154352 On ch=1 n=c3 v=75
154392 On ch=1 n=c4 v=0
154407 Par ch=1 c=64 v=24
154412 On ch=1 n=c3 v=0
154417 Par ch=1 c=64 v=56
154427 Par ch=1 c=64 v=72
154437 Par ch=1 c=64 v=88
154447 Par ch=1 c=64 v=104
154467 On ch=1 n=b4 v=82
154467 On ch=1 n=b3 v=74
154472 Par ch=1 c=64 v=127
154537 On ch=1 n=b4 v=0
154542 On ch=1 n=b3 v=0
154562 Par ch=1 c=64 v=104
154572 On ch=1 n=a#3 v=89
154572 On ch=1 n=a#2 v=73
154577 Par ch=1 c=64 v=40
154587 Par ch=1 c=64 v=0
154612 On ch=1 n=a#3 v=0
154617 On ch=1 n=a#2 v=0
154622 Par ch=1 c=64 v=24
154632 Par ch=1 c=64 v=40
154642 Par ch=1 c=64 v=56
154657 Par ch=1 c=64 v=72
154667 Par ch=1 c=64 v=88
154672 On ch=1 n=a4 v=78
154677 On ch=1 n=a3 v=73
154677 Par ch=1 c=64 v=104
154697 Par ch=1 c=64 v=127
154762 On ch=1 n=a4 v=0
154767 On ch=1 n=a3 v=0
154787 On ch=1 n=g#3 v=84
154792 On ch=1 n=g#2 v=73
154792 Par ch=1 c=64 v=72
154802 Par ch=1 c=64 v=24
154812 Par ch=1 c=64 v=0
154837 On ch=1 n=g#2 v=0
154837 On ch=1 n=g#3 v=0
154837 Par ch=1 c=64 v=40
154847 Par ch=1 c=64 v=56
154872 Par ch=1 c=64 v=72
154882 Par ch=1 c=64 v=88
154892 Par ch=1 c=64 v=104
154897 On ch=1 n=g4 v=74
154902 On ch=1 n=g3 v=54
154902 Par ch=1 c=64 v=127
154962 On ch=1 n=g3 v=0
154967 On ch=1 n=g4 v=0
155007 On ch=1 n=f#3 v=83
155012 On ch=1 n=f#2 v=71
155052 On ch=1 n=f#2 v=0
155052 On ch=1 n=f#3 v=0
155107 On ch=1 n=f4 v=69
155112 On ch=1 n=f3 v=67
155167 On ch=1 n=f3 v=0
155172 On ch=1 n=f4 v=0
155207 Par ch=1 c=64 v=104
155222 Par ch=1 c=64 v=72
155227 On ch=1 n=e3 v=84
155232 On ch=1 n=e2 v=75
155252 Par ch=1 c=64 v=104
155282 On ch=1 n=e2 v=0
155282 On ch=1 n=e3 v=0
155287 Par ch=1 c=64 v=127
155327 On ch=1 n=d#4 v=75
155327 On ch=1 n=d#3 v=73
155377 On ch=1 n=d#3 v=0
155387 On ch=1 n=d#4 v=0
155462 On ch=1 n=d3 v=94
155467 On ch=1 n=d2 v=81
155477 Par ch=1 c=64 v=88
155492 Par ch=1 c=64 v=24
155502 Par ch=1 c=64 v=0
155602 Par ch=1 c=64 v=40
155612 Par ch=1 c=64 v=72
155627 Par ch=1 c=64 v=104
155637 Par ch=1 c=64 v=127
155672 On ch=1 n=d3 v=0
155912 On ch=1 n=d4 v=90
155917 On ch=1 n=d3 v=71
155957 On ch=1 n=d3 v=0
156002 On ch=1 n=d4 v=0
156192 On ch=1 n=d2 v=0
156302 On ch=1 n=d5 v=84
156307 On ch=1 n=d4 v=76
156362 On ch=1 n=d4 v=0
156377 On ch=1 n=d5 v=0
156912 Par ch=1 c=64 v=0
157622 Par ch=1 c=64 v=40
157637 On ch=1 n=a#3 v=44
157637 Par ch=1 c=64 v=88
157657 Par ch=1 c=64 v=127
157712 On ch=1 n=a#3 v=0
157852 On ch=1 n=a#4 v=49
157947 On ch=1 n=a#4 v=0
157977 On ch=1 n=d5 v=72
158047 On ch=1 n=d5 v=0
158172 On ch=1 n=d5 v=26
158177 On ch=1 n=f5 v=49
158242 On ch=1 n=d5 v=0
158307 On ch=1 n=f5 v=0
158347 On ch=1 n=d6 v=62
158347 On ch=1 n=a#5 v=40
158377 On ch=1 n=d6 v=0
158382 On ch=1 n=a#5 v=0
158497 On ch=1 n=d6 v=63
158517 On ch=1 n=f6 v=68
158542 On ch=1 n=d6 v=0
158557 On ch=1 n=f6 v=0
158602 On ch=1 n=f6 v=10
158652 On ch=1 n=f6 v=0
158677 On ch=1 n=d7 v=60
158687 On ch=1 n=a#6 v=25
158702 On ch=1 n=d7 v=0
158717 On ch=1 n=a#6 v=0
158722 On ch=1 n=a#2 v=39
158797 On ch=1 n=a#2 v=0
158797 On ch=1 n=a#3 v=39
158842 On ch=1 n=d7 v=51
158847 On ch=1 n=a#3 v=0
158862 On ch=1 n=f7 v=58
158892 On ch=1 n=f7 v=0
158912 On ch=1 n=d7 v=0
159072 On ch=1 n=a#4 v=6
159087 On ch=1 n=f4 v=29
159092 On ch=1 n=d5 v=76
159102 On ch=1 n=d8 v=71
159102 On ch=1 n=a#7 v=44
159107 On ch=1 n=f7 v=55
159222 On ch=1 n=f7 v=0
159227 On ch=1 n=d8 v=0
159272 On ch=1 n=d7 v=64
159282 On ch=1 n=a#7 v=0
159322 On ch=1 n=d7 v=0
159457 On ch=1 n=a#6 v=42
159462 On ch=1 n=d7 v=36
159532 On ch=1 n=d7 v=0
159602 On ch=1 n=f6 v=45
159612 On ch=1 n=a#6 v=0
159652 On ch=1 n=f6 v=0
159667 On ch=1 n=d6 v=62
159707 On ch=1 n=d6 v=0
159797 On ch=1 n=d5 v=0
159837 On ch=1 n=d6 v=43
159852 On ch=1 n=a#5 v=37
159927 On ch=1 n=d6 v=0
159957 On ch=1 n=f4 v=0
159972 On ch=1 n=a#4 v=0
159977 On ch=1 n=c5 v=78
159997 On ch=1 n=a#5 v=0
160022 On ch=1 n=f5 v=25
160047 On ch=1 n=c5 v=0
160067 On ch=1 n=f5 v=0
160187 On ch=1 n=a#3 v=56
160237 On ch=1 n=d4 v=53
160267 On ch=1 n=f4 v=55
160272 Par ch=1 c=64 v=24
160287 Par ch=1 c=64 v=0
160307 On ch=1 n=a#4 v=75
160367 On ch=1 n=f4 v=0
160377 Par ch=1 c=64 v=40
160392 Par ch=1 c=64 v=127
160522 On ch=1 n=d5 v=44
160527 On ch=1 n=f5 v=58
160572 On ch=1 n=d5 v=0
160682 On ch=1 n=f5 v=0
160702 On ch=1 n=a#5 v=42
160712 On ch=1 n=d6 v=55
160732 On ch=1 n=a#5 v=0
160732 On ch=1 n=a#4 v=0
160737 On ch=1 n=d4 v=0
160742 On ch=1 n=d6 v=0
160782 On ch=1 n=a#3 v=0
160862 On ch=1 n=d6 v=56
160882 On ch=1 n=f6 v=65
160907 On ch=1 n=d6 v=0
161002 On ch=1 n=f6 v=0
161027 On ch=1 n=d7 v=53
161032 On ch=1 n=a#6 v=33
161062 On ch=1 n=a#6 v=0
161062 On ch=1 n=d7 v=0
161097 On ch=1 n=a#2 v=50
161157 On ch=1 n=a#3 v=62
161162 On ch=1 n=d7 v=60
161177 On ch=1 n=a#2 v=0
161207 On ch=1 n=d7 v=0
161222 On ch=1 n=a#3 v=0
161372 On ch=1 n=d4 v=57
161382 On ch=1 n=f4 v=46
161442 On ch=1 n=a#7 v=57
161452 On ch=1 n=d8 v=69
161452 On ch=1 n=f7 v=62
161462 On ch=1 n=a#4 v=74
161502 On ch=1 n=d4 v=0
161562 On ch=1 n=d8 v=0
161582 On ch=1 n=f7 v=0
161617 On ch=1 n=d7 v=65
161622 On ch=1 n=a#7 v=0
161662 On ch=1 n=d7 v=0
161797 On ch=1 n=d7 v=57
161802 On ch=1 n=a#6 v=47
161902 On ch=1 n=d7 v=0
161922 On ch=1 n=d4 v=1
161952 On ch=1 n=f6 v=54
161997 On ch=1 n=f6 v=0
162017 On ch=1 n=a#6 v=0
162027 On ch=1 n=d6 v=64
162077 On ch=1 n=d6 v=0
162117 On ch=1 n=a#4 v=0
162242 On ch=1 n=a#5 v=25
162317 On ch=1 n=d4 v=0
162317 On ch=1 n=f4 v=0
162317 On ch=1 n=a#4 v=75
162327 On ch=1 n=a#5 v=0
162367 On ch=1 n=f5 v=49
162427 On ch=1 n=f5 v=0
162467 On ch=1 n=a#4 v=0
162552 On ch=1 n=a#3 v=54
162572 Par ch=1 c=64 v=104
162587 On ch=1 n=d#4 v=67
162587 Par ch=1 c=64 v=0
162642 On ch=1 n=a#3 v=0
162672 On ch=1 n=f#4 v=43
162692 Par ch=1 c=64 v=104
162702 On ch=1 n=d#4 v=0
162707 Par ch=1 c=64 v=127
162717 On ch=1 n=a4 v=79
162752 On ch=1 n=f#4 v=0
162802 On ch=1 n=a4 v=0
162937 On ch=1 n=d#5 v=38
162947 On ch=1 n=f#5 v=44
163007 On ch=1 n=d#5 v=0
163082 On ch=1 n=f#5 v=0
163097 On ch=1 n=d#6 v=56
163147 On ch=1 n=d#6 v=0
163257 On ch=1 n=d#6 v=56
163292 On ch=1 n=d#6 v=0
163292 On ch=1 n=f#6 v=36
163402 On ch=1 n=f#6 v=0
163437 On ch=1 n=d#7 v=64
163492 On ch=1 n=d#7 v=0
163562 On ch=1 n=d#7 v=62
163582 On ch=1 n=a4 v=69
163652 On ch=1 n=d#7 v=0
163682 On ch=1 n=a4 v=0
163762 On ch=1 n=f#4 v=67
163822 On ch=1 n=a4 v=64
163837 On ch=1 n=f#4 v=0
163927 On ch=1 n=f#5 v=86
163932 On ch=1 n=a4 v=0
163932 On ch=1 n=d#8 v=65
163957 On ch=1 n=c8 v=51
163962 On ch=1 n=f#7 v=35
163982 On ch=1 n=f#5 v=0
164082 On ch=1 n=f#7 v=0
164082 On ch=1 n=d#8 v=0
164092 On ch=1 n=c8 v=0
164102 On ch=1 n=d#7 v=63
164162 On ch=1 n=d#7 v=0
164272 On ch=1 n=d#7 v=58
164387 On ch=1 n=c7 v=5
164442 On ch=1 n=d#7 v=0
164457 On ch=1 n=f#6 v=27
164472 On ch=1 n=c7 v=0
164477 On ch=1 n=d#6 v=67
164497 On ch=1 n=f#6 v=0
164527 On ch=1 n=d#6 v=0
164647 On ch=1 n=d#6 v=60
164757 On ch=1 n=d#6 v=0
164857 On ch=1 n=d#5 v=34
164857 On ch=1 n=f#5 v=27
164862 On ch=1 n=a4 v=72
164907 On ch=1 n=f#5 v=0
164917 On ch=1 n=d#5 v=0
164922 On ch=1 n=a4 v=0
165107 On ch=1 n=a#3 v=64
165107 Par ch=1 c=64 v=0
165152 On ch=1 n=f4 v=63
165202 On ch=1 n=a#3 v=0
165207 Par ch=1 c=64 v=56
165227 Par ch=1 c=64 v=127
165232 On ch=1 n=c5 v=81
165462 On ch=1 n=f5 v=61
165467 On ch=1 n=d5 v=39
165517 On ch=1 n=d5 v=0
165592 On ch=1 n=f5 v=0
165627 On ch=1 n=a#5 v=38
165637 On ch=1 n=d6 v=52
165657 On ch=1 n=a#5 v=0
165667 On ch=1 n=d6 v=0
165772 On ch=1 n=d6 v=46
165802 On ch=1 n=f6 v=52
165832 On ch=1 n=d6 v=0
165902 On ch=1 n=f6 v=0
165952 On ch=1 n=a#6 v=35
165982 On ch=1 n=a#6 v=0
166072 On ch=1 n=d7 v=62
166122 On ch=1 n=f7 v=32
166142 On ch=1 n=d7 v=0
166157 On ch=1 n=c5 v=0
166162 On ch=1 n=f7 v=0
166267 On ch=1 n=a#4 v=71
166307 On ch=1 n=d8 v=62
166307 On ch=1 n=f7 v=56
166307 On ch=1 n=a#7 v=39
166412 On ch=1 n=f7 v=0
166412 On ch=1 n=d8 v=0
166467 On ch=1 n=d7 v=52
166472 On ch=1 n=a#7 v=0
166522 On ch=1 n=d7 v=0
166652 On ch=1 n=d7 v=48
166662 On ch=1 n=a#6 v=46
166772 On ch=1 n=d7 v=0
166862 On ch=1 n=a#6 v=0
166872 On ch=1 n=d6 v=64
166912 On ch=1 n=d6 v=0
167062 On ch=1 n=a#5 v=49
167067 On ch=1 n=d6 v=44
167137 On ch=1 n=d6 v=0
167197 On ch=1 n=f4 v=0
167207 On ch=1 n=a#5 v=0
167277 On ch=1 n=d5 v=43
167317 On ch=1 n=a#4 v=0
167322 On ch=1 n=d5 v=0
167502 On ch=1 n=d4 v=55
167557 Par ch=1 c=64 v=72
167577 On ch=1 n=g4 v=44
167577 Par ch=1 c=64 v=0
167632 On ch=1 n=a#4 v=51
167707 Par ch=1 c=64 v=104
167717 On ch=1 n=d5 v=79
167727 Par ch=1 c=64 v=127
167812 On ch=1 n=d5 v=0
167822 On ch=1 n=g4 v=0
167847 On ch=1 n=a#4 v=0
167867 On ch=1 n=d4 v=0
167917 On ch=1 n=d5 v=44
167937 On ch=1 n=g5 v=60
167982 On ch=1 n=d5 v=0
168067 On ch=1 n=g5 v=0
168087 On ch=1 n=a#5 v=39
168097 On ch=1 n=d6 v=48
168122 On ch=1 n=a#5 v=0
168127 On ch=1 n=d6 v=0
168242 On ch=1 n=d6 v=76
168257 On ch=1 n=g6 v=67
168317 On ch=1 n=d6 v=0
168362 On ch=1 n=g2 v=55
168397 On ch=1 n=g6 v=0
168417 On ch=1 n=g2 v=0
168417 On ch=1 n=a#6 v=53
168422 On ch=1 n=d7 v=47
168432 On ch=1 n=g3 v=54
168442 On ch=1 n=a#6 v=0
168457 On ch=1 n=d7 v=0
168462 On ch=1 n=g3 v=0
168557 On ch=1 n=d7 v=63
168657 On ch=1 n=d7 v=0
168682 On ch=1 n=g4 v=40
168692 On ch=1 n=d4 v=58
168742 On ch=1 n=a#4 v=52
168822 On ch=1 n=d5 v=84
168832 On ch=1 n=d4 v=0
168847 On ch=1 n=g7 v=49
168862 On ch=1 n=d8 v=67
168867 On ch=1 n=a#7 v=45
168962 On ch=1 n=g7 v=0
168972 On ch=1 n=d8 v=0
169012 On ch=1 n=d7 v=69
169017 On ch=1 n=a#7 v=0
169047 On ch=1 n=d7 v=0
169192 On ch=1 n=d7 v=38
169207 On ch=1 n=a#6 v=47
169247 On ch=1 n=a#6 v=0
169262 On ch=1 n=d7 v=0
169382 On ch=1 n=d6 v=68
169397 On ch=1 n=d5 v=0
169417 On ch=1 n=d6 v=0
169542 On ch=1 n=d6 v=63
169592 On ch=1 n=a#5 v=30
169667 On ch=1 n=d6 v=0
169682 On ch=1 n=g4 v=0
169687 On ch=1 n=c5 v=83
169697 On ch=1 n=a#5 v=0
169697 On ch=1 n=a#4 v=0
169727 On ch=1 n=g5 v=43
169747 On ch=1 n=d5 v=49
169757 On ch=1 n=c5 v=0
169777 On ch=1 n=g5 v=0
169837 On ch=1 n=d5 v=0
169937 On ch=1 n=g3 v=63
169957 Par ch=1 c=64 v=72
169977 On ch=1 n=d4 v=68
169977 Par ch=1 c=64 v=0
170012 On ch=1 n=g3 v=0
170042 Par ch=1 c=64 v=40
170047 On ch=1 n=a#4 v=79
170057 Par ch=1 c=64 v=127
170092 On ch=1 n=d4 v=0
170142 On ch=1 n=a#4 v=0
170242 On ch=1 n=d5 v=63
170302 On ch=1 n=g5 v=25
170337 On ch=1 n=d5 v=0
170437 On ch=1 n=g5 v=0
170457 On ch=1 n=a#5 v=44
170462 On ch=1 n=d6 v=56
170497 On ch=1 n=d6 v=0
170497 On ch=1 n=a#5 v=0
170617 On ch=1 n=d6 v=67
170677 On ch=1 n=g6 v=31
170697 On ch=1 n=d6 v=0
170747 On ch=1 n=g2 v=62
170802 On ch=1 n=g6 v=0
170802 On ch=1 n=d7 v=59
170812 On ch=1 n=a#6 v=48
170827 On ch=1 n=g2 v=0
170837 On ch=1 n=d7 v=0
170837 On ch=1 n=g3 v=62
170842 On ch=1 n=a#6 v=0
170872 On ch=1 n=g3 v=0
170937 On ch=1 n=d7 v=76
171032 On ch=1 n=d7 v=0
171082 On ch=1 n=d4 v=39
171107 On ch=1 n=g4 v=53
171192 On ch=1 n=a#4 v=77
171202 On ch=1 n=g7 v=41
171212 On ch=1 n=d8 v=69
171212 On ch=1 n=a#7 v=52
171252 On ch=1 n=d4 v=0
171302 On ch=1 n=g7 v=0
171317 On ch=1 n=d8 v=0
171322 On ch=1 n=d4 v=6
171352 On ch=1 n=d7 v=65
171357 On ch=1 n=a#7 v=0
171397 On ch=1 n=d7 v=0
171522 On ch=1 n=d7 v=72
171557 On ch=1 n=a#6 v=37
171642 On ch=1 n=d7 v=0
171687 On ch=1 n=g6 v=36
171727 On ch=1 n=a#6 v=0
171732 On ch=1 n=g6 v=0
171742 On ch=1 n=d6 v=56
171792 On ch=1 n=d6 v=0
171812 On ch=1 n=a#4 v=0
171882 On ch=1 n=d6 v=64
171932 On ch=1 n=a#5 v=32
171977 On ch=1 n=d6 v=0
171977 On ch=1 n=g4 v=0
171997 On ch=1 n=d4 v=0
172022 On ch=1 n=a#5 v=0
172032 On ch=1 n=a#4 v=73
172082 On ch=1 n=g5 v=55
172152 On ch=1 n=a#4 v=0
172162 On ch=1 n=g5 v=0
172247 On ch=1 n=c4 v=66
172257 Par ch=1 c=64 v=24
172277 Par ch=1 c=64 v=0
172312 On ch=1 n=c4 v=0
172317 On ch=1 n=e4 v=65
172377 Par ch=1 c=64 v=88
172392 Par ch=1 c=64 v=127
172407 On ch=1 n=e4 v=0
172407 On ch=1 n=a#4 v=58
172512 On ch=1 n=c#5 v=83
172517 On ch=1 n=a#4 v=0
172577 On ch=1 n=c#5 v=0
172712 On ch=1 n=g5 v=61
172722 On ch=1 n=e5 v=44
172762 On ch=1 n=e5 v=0
172837 On ch=1 n=g5 v=0
172872 On ch=1 n=e6 v=51
172877 On ch=1 n=c#6 v=33
172902 On ch=1 n=e6 v=0
172907 On ch=1 n=c#6 v=0
173017 On ch=1 n=e6 v=68
173047 On ch=1 n=g6 v=59
173092 On ch=1 n=e6 v=0
173177 On ch=1 n=g6 v=0
173187 On ch=1 n=e7 v=55
173192 On ch=1 n=c#7 v=46
173217 On ch=1 n=e7 v=0
173227 On ch=1 n=c#7 v=0
173347 On ch=1 n=c5 v=75
173352 On ch=1 n=e7 v=74
173372 On ch=1 n=g7 v=73
173407 On ch=1 n=g7 v=0
173412 On ch=1 n=e7 v=0
173452 On ch=1 n=c5 v=0
173552 Par ch=1 c=64 v=72
173562 On ch=1 n=g4 v=63
173567 Par ch=1 c=64 v=0
173587 On ch=1 n=c5 v=64
173592 On ch=1 n=g4 v=0
173632 Par ch=1 c=64 v=40
173652 Par ch=1 c=64 v=127
173722 On ch=1 n=a#5 v=85
173747 On ch=1 n=c5 v=0
173762 On ch=1 n=a#7 v=48
173767 On ch=1 n=e8 v=71
173782 On ch=1 n=a#5 v=0
173887 On ch=1 n=a#7 v=0
173892 On ch=1 n=e8 v=0
173917 On ch=1 n=g7 v=55
173987 On ch=1 n=g7 v=0
173997 On ch=1 n=e7 v=70
174027 On ch=1 n=e7 v=0
174142 On ch=1 n=e7 v=76
174167 On ch=1 n=a#6 v=49
174292 On ch=1 n=g6 v=64
174312 On ch=1 n=e7 v=0
174362 On ch=1 n=a#6 v=0
174372 On ch=1 n=g6 v=0
174377 On ch=1 n=e6 v=69
174422 On ch=1 n=e6 v=0
174532 On ch=1 n=e6 v=74
174562 On ch=1 n=a#5 v=48
174627 On ch=1 n=e6 v=0
174687 On ch=1 n=a#5 v=0
174732 On ch=1 n=e5 v=80
174827 On ch=1 n=e5 v=0
174962 Par ch=1 c=64 v=104
174967 On ch=1 n=f3 v=56
174977 Par ch=1 c=64 v=24
174997 On ch=1 n=f5 v=80
174997 Par ch=1 c=64 v=0
175007 On ch=1 n=c4 v=55
175027 Par ch=1 c=64 v=24
175047 Par ch=1 c=64 v=88
175052 On ch=1 n=f3 v=0
175057 Par ch=1 c=64 v=127
175117 On ch=1 n=c4 v=0
175132 On ch=1 n=a4 v=42
175162 On ch=1 n=f5 v=0
175247 On ch=1 n=a5 v=69
175247 On ch=1 n=f5 v=50
175337 On ch=1 n=f5 v=0
175352 On ch=1 n=a5 v=0
175417 On ch=1 n=c6 v=54
175417 On ch=1 n=f6 v=69
175447 On ch=1 n=c6 v=0
175477 On ch=1 n=f6 v=0
175567 On ch=1 n=f6 v=70
175587 On ch=1 n=a6 v=67
175632 On ch=1 n=f6 v=0
175637 On ch=1 n=a4 v=0
175667 On ch=1 n=a6 v=0
175742 On ch=1 n=f7 v=62
175757 On ch=1 n=c7 v=35
175787 On ch=1 n=f7 v=0
175792 On ch=1 n=c7 v=0
175892 On ch=1 n=f7 v=72
175912 On ch=1 n=a7 v=65
175947 On ch=1 n=a7 v=0
175962 On ch=1 n=f7 v=0
176092 On ch=1 n=f8 v=68
176097 On ch=1 n=a7 v=58
176107 On ch=1 n=c8 v=59
176162 On ch=1 n=a7 v=0
176207 On ch=1 n=f8 v=0
176227 On ch=1 n=c8 v=0
176252 On ch=1 n=f7 v=69
176322 On ch=1 n=f7 v=0
176437 On ch=1 n=f7 v=70
176462 On ch=1 n=c7 v=60
176492 On ch=1 n=c7 v=0
176522 On ch=1 n=f7 v=0
176642 On ch=1 n=f6 v=70
176692 On ch=1 n=f6 v=0
176837 On ch=1 n=f6 v=48
176872 On ch=1 n=c6 v=40
176922 On ch=1 n=c6 v=0
176932 On ch=1 n=f6 v=0
177027 On ch=1 n=f5 v=33
177097 On ch=1 n=f5 v=0
177397 On ch=1 n=c#4 v=48
177442 Par ch=1 c=64 v=40
177457 Par ch=1 c=64 v=0
177487 On ch=1 n=c#4 v=0
177507 On ch=1 n=g#4 v=46
177547 Par ch=1 c=64 v=72
177562 Par ch=1 c=64 v=127
177597 On ch=1 n=g#4 v=0
177627 On ch=1 n=c#5 v=50
177767 On ch=1 n=f5 v=82
177827 On ch=1 n=c#5 v=0
177847 On ch=1 n=f5 v=0
177962 On ch=1 n=f5 v=55
177967 On ch=1 n=g#5 v=57
178042 On ch=1 n=f5 v=0
178087 On ch=1 n=g#5 v=0
178132 On ch=1 n=c#6 v=45
178137 On ch=1 n=f6 v=58
178162 On ch=1 n=c#6 v=0
178167 On ch=1 n=f6 v=0
178277 On ch=1 n=f6 v=75
178307 On ch=1 n=g#6 v=64
178367 On ch=1 n=f6 v=0
178407 On ch=1 n=c#3 v=33
178457 On ch=1 n=g#6 v=0
178457 On ch=1 n=f7 v=63
178462 On ch=1 n=c#7 v=51
178462 On ch=1 n=c#4 v=44
178487 On ch=1 n=f7 v=0
178492 On ch=1 n=c#7 v=0
178497 On ch=1 n=c#3 v=0
178542 On ch=1 n=c#4 v=0
178602 On ch=1 n=f7 v=66
178637 On ch=1 n=g#7 v=59
178692 On ch=1 n=f7 v=0
178717 On ch=1 n=g#7 v=0
178817 On ch=1 n=f5 v=84
178832 On ch=1 n=c#5 v=35
178837 On ch=1 n=g#4 v=28
178837 On ch=1 n=f8 v=70
178842 On ch=1 n=c#8 v=56
178852 On ch=1 n=g#7 v=38
178977 On ch=1 n=g#7 v=0
178977 On ch=1 n=f8 v=0
178997 On ch=1 n=f7 v=66
179007 On ch=1 n=c#8 v=0
179052 On ch=1 n=f7 v=0
179172 On ch=1 n=f7 v=68
179192 On ch=1 n=c#7 v=57
179287 On ch=1 n=f7 v=0
179332 On ch=1 n=g#6 v=22
179352 On ch=1 n=c#7 v=0
179367 On ch=1 n=g#6 v=0
179372 On ch=1 n=f6 v=68
179417 On ch=1 n=f6 v=0
179432 On ch=1 n=f5 v=0
179527 On ch=1 n=f6 v=59
179582 On ch=1 n=g#4 v=0
179612 On ch=1 n=f6 v=0
179627 On ch=1 n=f5 v=88
179642 On ch=1 n=c#5 v=0
179782 On ch=1 n=f5 v=0
179817 On ch=1 n=g#4 v=51
179877 Par ch=1 c=64 v=104
179892 On ch=1 n=c#5 v=64
179897 Par ch=1 c=64 v=0
179907 On ch=1 n=g#4 v=0
179977 Par ch=1 c=64 v=56
179982 On ch=1 n=d#5 v=56
179997 Par ch=1 c=64 v=127
180007 On ch=1 n=c#5 v=0
180052 On ch=1 n=g#5 v=83
180092 On ch=1 n=d#5 v=0
180122 On ch=1 n=g#5 v=0
180267 On ch=1 n=d#5 v=42
180277 On ch=1 n=g#5 v=51
180377 On ch=1 n=d#5 v=0
180427 On ch=1 n=g#5 v=0
180442 On ch=1 n=d#6 v=27
180447 On ch=1 n=c#6 v=34
180472 On ch=1 n=c#6 v=0
180472 On ch=1 n=d#6 v=0
180577 On ch=1 n=d#6 v=69
180637 On ch=1 n=g#6 v=44
180657 On ch=1 n=d#6 v=0
180747 On ch=1 n=d#7 v=61
180752 On ch=1 n=g#6 v=0
180762 On ch=1 n=c7 v=59
180777 On ch=1 n=g#3 v=40
180787 On ch=1 n=d#7 v=0
180792 On ch=1 n=c7 v=0
180857 On ch=1 n=d#4 v=54
180892 On ch=1 n=d#4 v=0
180892 On ch=1 n=g#3 v=0
180892 On ch=1 n=d#7 v=63
180922 On ch=1 n=g#4 v=48
180972 On ch=1 n=g#4 v=0
181012 On ch=1 n=d#7 v=0
181052 On ch=1 n=c5 v=59
181107 On ch=1 n=g#4 v=57
181162 On ch=1 n=d#5 v=88
181172 On ch=1 n=d#8 v=70
181172 On ch=1 n=g#7 v=58
181187 On ch=1 n=c8 v=62
181222 Par ch=1 c=64 v=56
181237 Par ch=1 c=64 v=0
181292 Par ch=1 c=64 v=104
181307 Par ch=1 c=64 v=127
181317 On ch=1 n=c8 v=0
181317 On ch=1 n=d#8 v=0
181332 On ch=1 n=d#7 v=67
181337 On ch=1 n=g#7 v=0
181382 On ch=1 n=d#7 v=0
181487 On ch=1 n=d#7 v=67
181657 On ch=1 n=g#6 v=48
181702 On ch=1 n=d#7 v=0
181732 On ch=1 n=d#6 v=71
181752 On ch=1 n=g#6 v=0
181782 On ch=1 n=d#6 v=0
181932 On ch=1 n=d#6 v=28
181937 On ch=1 n=c6 v=55
181962 On ch=1 n=c5 v=0
181977 On ch=1 n=c6 v=0
181977 On ch=1 n=d#5 v=0
182002 On ch=1 n=d#6 v=0
182007 On ch=1 n=g#4 v=0
182102 On ch=1 n=g#5 v=23
182122 On ch=1 n=d#5 v=47
182172 On ch=1 n=g#5 v=0
182192 On ch=1 n=d#5 v=0
182312 Par ch=1 c=64 v=104
182322 On ch=1 n=c4 v=65
182332 On ch=1 n=g4 v=58
182332 Par ch=1 c=64 v=0
182387 On ch=1 n=c4 v=0
182397 On ch=1 n=g4 v=0
182427 On ch=1 n=c5 v=63
182432 Par ch=1 c=64 v=104
182447 Par ch=1 c=64 v=127
182542 On ch=1 n=c5 v=0
182557 On ch=1 n=d#5 v=79
182637 On ch=1 n=d#5 v=0
182777 On ch=1 n=d#5 v=38
182787 On ch=1 n=g5 v=56
182857 On ch=1 n=d#5 v=0
182877 On ch=1 n=g5 v=0
182902 On ch=1 n=d#6 v=53
182947 On ch=1 n=d#6 v=0
183057 On ch=1 n=d#6 v=48
183107 On ch=1 n=d#6 v=0
183137 On ch=1 n=g6 v=46
183177 On ch=1 n=g6 v=0
183197 On ch=1 n=d#7 v=55
183247 On ch=1 n=d#7 v=0
183277 On ch=1 n=c3 v=43
183317 On ch=1 n=g3 v=36
183337 On ch=1 n=c3 v=0
183347 On ch=1 n=d#7 v=65
183347 On ch=1 n=c4 v=68
183357 On ch=1 n=g3 v=0
183397 On ch=1 n=c4 v=0
183437 On ch=1 n=d#7 v=0
183557 On ch=1 n=g4 v=49
183567 On ch=1 n=c5 v=42
183572 On ch=1 n=d#8 v=73
183587 On ch=1 n=c8 v=67
183637 On ch=1 n=d#5 v=89
183667 On ch=1 n=d#7 v=56
183687 On ch=1 n=d#8 v=0
183697 On ch=1 n=c8 v=0
183697 On ch=1 n=c5 v=0
183702 On ch=1 n=g4 v=0
183747 On ch=1 n=d#7 v=0
183772 On ch=1 n=g4 v=6
183862 On ch=1 n=d#7 v=32
183867 On ch=1 n=g6 v=49
183907 On ch=1 n=g6 v=0
183982 On ch=1 n=d#7 v=0
184042 On ch=1 n=c5 v=1
184042 On ch=1 n=d#6 v=65
184127 On ch=1 n=d#6 v=0
184202 On ch=1 n=d#5 v=0
184232 On ch=1 n=d#6 v=65
184327 On ch=1 n=d#6 v=0
184352 On ch=1 n=c5 v=0
184362 On ch=1 n=g4 v=0
184382 On ch=1 n=d#5 v=79
184387 On ch=1 n=g5 v=60
184422 On ch=1 n=c6 v=39
184427 On ch=1 n=g5 v=0
184462 On ch=1 n=c6 v=0
184507 On ch=1 n=d#5 v=0
184602 On ch=1 n=g4 v=50
184622 On ch=1 n=c5 v=56
184632 Par ch=1 c=64 v=72
184647 Par ch=1 c=64 v=0
184692 On ch=1 n=d5 v=67
184747 On ch=1 n=g5 v=85
184752 Par ch=1 c=64 v=127
184802 On ch=1 n=c5 v=0
184802 On ch=1 n=g4 v=0
184812 On ch=1 n=d5 v=0
184837 On ch=1 n=g5 v=0
184932 On ch=1 n=g5 v=58
184942 On ch=1 n=d5 v=40
184987 On ch=1 n=d5 v=0
185037 On ch=1 n=g5 v=0
185047 On ch=1 n=d6 v=64
185082 On ch=1 n=d6 v=0
185082 On ch=1 n=c6 v=32
185112 On ch=1 n=c6 v=0
185217 On ch=1 n=d6 v=57
185242 On ch=1 n=g6 v=52
185277 On ch=1 n=d6 v=0
185337 On ch=1 n=g6 v=0
185362 On ch=1 n=d7 v=52
185392 On ch=1 n=d7 v=0
185497 On ch=1 n=d7 v=61
185507 On ch=1 n=g3 v=49
185542 On ch=1 n=g7 v=34
185592 On ch=1 n=d7 v=0
185612 On ch=1 n=g4 v=66
185617 On ch=1 n=g3 v=0
185662 On ch=1 n=g7 v=0
185672 On ch=1 n=g4 v=0
185747 On ch=1 n=b4 v=66
185817 On ch=1 n=d8 v=74
185822 On ch=1 n=b7 v=63
185822 On ch=1 n=g7 v=60
185827 On ch=1 n=d5 v=84
185837 Par ch=1 c=64 v=72
185857 Par ch=1 c=64 v=24
185872 Par ch=1 c=64 v=56
185887 On ch=1 n=b4 v=0
185887 Par ch=1 c=64 v=104
185907 Par ch=1 c=64 v=127
185927 On ch=1 n=d8 v=0
185942 On ch=1 n=g7 v=0
185962 On ch=1 n=b7 v=0
185972 On ch=1 n=d7 v=62
186007 On ch=1 n=d7 v=0
186082 On ch=1 n=b4 v=12
186122 On ch=1 n=d7 v=60
186147 On ch=1 n=b6 v=45
186247 On ch=1 n=d7 v=0
186262 On ch=1 n=g6 v=42
186332 On ch=1 n=g6 v=0
186332 On ch=1 n=b6 v=0
186357 On ch=1 n=d6 v=66
186412 On ch=1 n=d6 v=0
186457 On ch=1 n=d5 v=0
186537 On ch=1 n=d6 v=48
186567 On ch=1 n=b5 v=46
186637 On ch=1 n=d6 v=0
186672 On ch=1 n=b5 v=0
186747 On ch=1 n=b4 v=0
186802 On ch=1 n=d5 v=59
186872 On ch=1 n=d5 v=0
187072 On ch=1 n=a#3 v=59
187082 Par ch=1 c=64 v=0
187147 On ch=1 n=a#3 v=0
187162 Par ch=1 c=64 v=40
187172 On ch=1 n=f4 v=45
187182 Par ch=1 c=64 v=127
187232 On ch=1 n=a#4 v=40
187322 On ch=1 n=d5 v=78
187332 On ch=1 n=f4 v=0
187432 On ch=1 n=d5 v=0
187442 On ch=1 n=a#4 v=0
187522 On ch=1 n=d5 v=29
187542 On ch=1 n=f5 v=51
187587 On ch=1 n=d5 v=0
187657 On ch=1 n=f5 v=0
187677 On ch=1 n=d6 v=56
187682 On ch=1 n=a#5 v=38
187707 On ch=1 n=a#5 v=0
187707 On ch=1 n=d6 v=0
187822 On ch=1 n=d6 v=67
187857 On ch=1 n=f6 v=55
187902 On ch=1 n=d6 v=0
187957 On ch=1 n=f6 v=0
187992 On ch=1 n=a#2 v=38
188002 On ch=1 n=d7 v=42
188037 On ch=1 n=d7 v=0
188052 On ch=1 n=a#3 v=47
188072 On ch=1 n=a#2 v=0
188122 On ch=1 n=a#3 v=0
188152 On ch=1 n=d7 v=30
188222 On ch=1 n=d7 v=0
188322 On ch=1 n=f4 v=35
188322 On ch=1 n=a#4 v=5
188367 On ch=1 n=d5 v=81
188382 On ch=1 n=d8 v=70
188387 On ch=1 n=a#7 v=48
188497 On ch=1 n=d8 v=0
188537 On ch=1 n=d7 v=65
188542 On ch=1 n=a#7 v=0
188587 On ch=1 n=d7 v=0
188717 On ch=1 n=d7 v=42
188727 On ch=1 n=a#6 v=46
188832 On ch=1 n=d7 v=0
188852 On ch=1 n=f6 v=44
188877 On ch=1 n=d5 v=0
188882 On ch=1 n=a#6 v=0
188892 On ch=1 n=f6 v=0
188907 On ch=1 n=d6 v=63
188947 On ch=1 n=d6 v=0
189112 On ch=1 n=f4 v=0
189117 On ch=1 n=a#5 v=33
189132 On ch=1 n=c5 v=76
189152 On ch=1 n=a#4 v=0
189202 On ch=1 n=a#5 v=0
189217 On ch=1 n=f5 v=42
189227 On ch=1 n=c5 v=0
189302 On ch=1 n=f5 v=0
189412 On ch=1 n=g3 v=60
189447 Par ch=1 c=64 v=72
189462 On ch=1 n=d4 v=59
189462 Par ch=1 c=64 v=0
189487 On ch=1 n=g3 v=0
189522 On ch=1 n=a#4 v=77
189532 Par ch=1 c=64 v=88
189552 Par ch=1 c=64 v=127
189592 On ch=1 n=d4 v=0
189717 On ch=1 n=g5 v=63
189717 On ch=1 n=d5 v=43
189777 On ch=1 n=d5 v=0
189812 On ch=1 n=a#4 v=0
189872 On ch=1 n=g5 v=0
189882 On ch=1 n=d6 v=59
189882 On ch=1 n=a#5 v=36
189922 On ch=1 n=d6 v=0
189932 On ch=1 n=a#5 v=0
190047 On ch=1 n=d6 v=68
190067 On ch=1 n=g6 v=73
190127 On ch=1 n=d6 v=0
190197 On ch=1 n=g6 v=0
190212 On ch=1 n=d7 v=59
190212 On ch=1 n=a#6 v=47
190222 On ch=1 n=g2 v=56
190247 On ch=1 n=a#6 v=0
190247 On ch=1 n=d7 v=0
190297 On ch=1 n=g3 v=63
190302 On ch=1 n=g2 v=0
190337 On ch=1 n=g3 v=0
190357 On ch=1 n=d7 v=63
190387 On ch=1 n=g7 v=57
190432 On ch=1 n=g7 v=0
190447 On ch=1 n=d7 v=0
190577 On ch=1 n=g4 v=54
190577 On ch=1 n=d4 v=42
190617 On ch=1 n=d8 v=80
190622 On ch=1 n=g7 v=65
190627 On ch=1 n=a#7 v=60
190627 On ch=1 n=a#4 v=81
190712 On ch=1 n=g7 v=0
190737 On ch=1 n=d8 v=0
190762 On ch=1 n=d7 v=70
190767 On ch=1 n=a#7 v=0
190817 On ch=1 n=d7 v=0
190937 On ch=1 n=d7 v=64
191092 On ch=1 n=g6 v=51
191102 On ch=1 n=d7 v=0
191157 On ch=1 n=d6 v=68
191162 On ch=1 n=g6 v=0
191207 On ch=1 n=d6 v=0
191237 On ch=1 n=a#4 v=0
191302 On ch=1 n=d6 v=55
191392 On ch=1 n=d4 v=0
191412 On ch=1 n=g4 v=0
191427 On ch=1 n=a#4 v=87
191482 On ch=1 n=d6 v=0
191492 On ch=1 n=g5 v=44
191567 On ch=1 n=g5 v=0
191622 On ch=1 n=a#4 v=0
191647 On ch=1 n=d#4 v=51
191677 On ch=1 n=g4 v=48
191732 Par ch=1 c=64 v=0
191762 On ch=1 n=d5 v=87
191832 Par ch=1 c=64 v=104
191847 Par ch=1 c=64 v=127
191872 On ch=1 n=d5 v=0
191892 On ch=1 n=g4 v=0
191927 On ch=1 n=d#4 v=0
191977 On ch=1 n=g5 v=54
191982 On ch=1 n=d#5 v=28
192017 On ch=1 n=d#5 v=0
192082 On ch=1 n=g5 v=0
192087 On ch=1 n=d6 v=68
192147 On ch=1 n=d6 v=0
192172 On ch=1 n=d#3 v=63
192232 On ch=1 n=d#3 v=0
192267 Par ch=1 c=64 v=88
192282 Par ch=1 c=64 v=127
192317 On ch=1 n=c5 v=87
192492 On ch=1 n=d#6 v=56
192512 On ch=1 n=c5 v=0
192512 On ch=1 n=g6 v=58
192612 On ch=1 n=g6 v=0
192617 On ch=1 n=d#6 v=0
192647 On ch=1 n=c7 v=66
192687 On ch=1 n=c7 v=0
192777 On ch=1 n=g4 v=38
192797 On ch=1 n=d#4 v=46
192857 Par ch=1 c=64 v=88
192862 On ch=1 n=a#4 v=86
192872 Par ch=1 c=64 v=56
192887 Par ch=1 c=64 v=72
192907 Par ch=1 c=64 v=127
192927 On ch=1 n=d#4 v=0
193007 On ch=1 n=a#4 v=0
193012 On ch=1 n=g4 v=0
193067 On ch=1 n=a#6 v=53
193097 On ch=1 n=d#7 v=53
193142 On ch=1 n=d#7 v=0
193197 On ch=1 n=a#6 v=0
193237 On ch=1 n=a#7 v=64
193282 On ch=1 n=d#3 v=60
193322 On ch=1 n=a#7 v=0
193352 On ch=1 n=d#3 v=0
193437 On ch=1 n=c5 v=82
193532 On ch=1 n=c5 v=0
193597 On ch=1 n=c7 v=56
193607 On ch=1 n=d#7 v=56
193692 On ch=1 n=c7 v=0
193732 On ch=1 n=d#7 v=0
193767 On ch=1 n=c8 v=66
193832 On ch=1 n=c8 v=0
193857 Par ch=1 c=64 v=104
193867 On ch=1 n=d3 v=61
193897 Par ch=1 c=64 v=0
193907 On ch=1 n=d3 v=0
193962 Par ch=1 c=64 v=72
193982 Par ch=1 c=64 v=127
194027 On ch=1 n=f#4 v=57
194137 On ch=1 n=d5 v=79
194402 On ch=1 n=f#7 v=46
194407 On ch=1 n=d7 v=22
194552 On ch=1 n=f#7 v=0
194572 On ch=1 n=d8 v=64
194577 On ch=1 n=d7 v=0
194637 On ch=1 n=d8 v=0
194692 On ch=1 n=f#4 v=0
194697 On ch=1 n=d6 v=71
194702 On ch=1 n=d5 v=0
194717 On ch=1 n=f#6 v=61
194757 On ch=1 n=d6 v=0
194847 On ch=1 n=f#6 v=0
194862 On ch=1 n=a6 v=42
194862 On ch=1 n=d7 v=62
194892 On ch=1 n=d7 v=0
194897 On ch=1 n=a6 v=0
195007 On ch=1 n=d7 v=74
195022 On ch=1 n=f#7 v=71
195087 On ch=1 n=d7 v=0
195092 On ch=1 n=f#7 v=0
195202 On ch=1 n=d8 v=87
195202 On ch=1 n=a7 v=79
195297 On ch=1 n=a7 v=0
195362 On ch=1 n=d8 v=0
195382 On ch=1 n=f#7 v=28
195397 On ch=1 n=d7 v=72
195437 On ch=1 n=f#7 v=0
195452 On ch=1 n=d7 v=0
195552 On ch=1 n=a6 v=59
195557 On ch=1 n=d7 v=61
195642 On ch=1 n=d7 v=0
195692 On ch=1 n=a6 v=0
195692 On ch=1 n=d6 v=70
195762 On ch=1 n=d6 v=0
195852 On ch=1 n=d7 v=70
195857 On ch=1 n=a6 v=56
195947 On ch=1 n=a6 v=0
195947 On ch=1 n=d7 v=0
195977 On ch=1 n=f#6 v=51
195987 On ch=1 n=d6 v=64
196032 On ch=1 n=d6 v=0
196047 On ch=1 n=f#6 v=0
196112 On ch=1 n=a5 v=59
196112 On ch=1 n=d6 v=46
196207 On ch=1 n=d6 v=0
196242 On ch=1 n=a5 v=0
196247 On ch=1 n=d5 v=61
196277 On ch=1 n=d5 v=0
196402 On ch=1 n=d6 v=69
196407 On ch=1 n=a5 v=62
196482 On ch=1 n=d6 v=0
196487 On ch=1 n=a5 v=0
196522 On ch=1 n=f#5 v=30
196537 On ch=1 n=d5 v=46
196577 On ch=1 n=d5 v=0
196597 On ch=1 n=f#5 v=0
196672 On ch=1 n=d5 v=47
196692 On ch=1 n=a4 v=38
196782 On ch=1 n=d5 v=0
196817 On ch=1 n=a4 v=0
196832 On ch=1 n=d4 v=54
196862 On ch=1 n=d4 v=0
196992 On ch=1 n=d5 v=42
196997 On ch=1 n=a4 v=43
197067 On ch=1 n=d5 v=0
197077 On ch=1 n=a4 v=0
197157 On ch=1 n=d4 v=41
197162 On ch=1 n=f#4 v=25
197197 On ch=1 n=d4 v=0
197202 On ch=1 n=f#4 v=0
197337 On ch=1 n=d3 v=48
197467 On ch=1 n=d3 v=0
197482 On ch=1 n=d4 v=53
197512 On ch=1 n=d4 v=0
197627 On ch=1 n=d4 v=64
197702 On ch=1 n=d4 v=0
197777 On ch=1 n=d5 v=64
197852 On ch=1 n=d5 v=0
197922 On ch=1 n=d5 v=44
197972 On ch=1 n=d5 v=0
198092 On ch=1 n=d6 v=54
198122 On ch=1 n=d6 v=0
198402 On ch=1 n=d7 v=66
198452 On ch=1 n=d7 v=0
198562 On ch=1 n=d7 v=66
198607 On ch=1 n=d7 v=0
198747 On ch=1 n=d8 v=72
198802 On ch=1 n=d8 v=0
199597 Par ch=1 c=64 v=24
199617 Par ch=1 c=64 v=56
199632 Par ch=1 c=64 v=88
199647 On ch=1 n=d7 v=62
199647 Par ch=1 c=64 v=127
199657 On ch=1 n=d6 v=38
199737 On ch=1 n=d6 v=0
199762 On ch=1 n=d7 v=0
199917 On ch=1 n=d7 v=69
199927 On ch=1 n=d6 v=59
200022 On ch=1 n=d6 v=0
200032 On ch=1 n=d7 v=0
200152 On ch=1 n=d7 v=72
200162 On ch=1 n=d6 v=64
200242 On ch=1 n=d6 v=0
200267 On ch=1 n=d7 v=0
200347 On ch=1 n=d7 v=70
200357 On ch=1 n=d6 v=61
200437 On ch=1 n=d6 v=0
200457 On ch=1 n=d7 v=0
200547 On ch=1 n=d7 v=79
200557 On ch=1 n=d6 v=65
200652 On ch=1 n=d6 v=0
200692 On ch=1 n=d7 v=0
200922 On ch=1 n=d7 v=77
200927 On ch=1 n=d6 v=64
200927 Par ch=1 c=64 v=40
200947 Par ch=1 c=64 v=0
200957 On ch=1 n=a#3 v=64
201022 Par ch=1 c=64 v=40
201037 Par ch=1 c=64 v=104
201052 On ch=1 n=a#3 v=0
201052 Par ch=1 c=64 v=127
201317 On ch=1 n=f4 v=54
201322 On ch=1 n=a#6 v=39
201322 On ch=1 n=f5 v=45
201327 On ch=1 n=f6 v=51
201362 On ch=1 n=d5 v=22
201367 On ch=1 n=f4 v=0
201382 On ch=1 n=f6 v=0
201397 On ch=1 n=d5 v=0
201397 On ch=1 n=f5 v=0
201407 On ch=1 n=a#6 v=0
201507 On ch=1 n=f#4 v=59
201507 On ch=1 n=a#6 v=47
201517 On ch=1 n=f5 v=40
201527 On ch=1 n=f6 v=40
201532 On ch=1 n=d5 v=25
201572 On ch=1 n=f6 v=0
201577 On ch=1 n=d5 v=0
201577 On ch=1 n=f5 v=0
201577 On ch=1 n=f#4 v=0
201602 On ch=1 n=a#6 v=0
201687 On ch=1 n=f5 v=43
201692 On ch=1 n=a#6 v=49
201702 On ch=1 n=f6 v=47
201707 On ch=1 n=g4 v=36
201747 On ch=1 n=g4 v=0
201747 On ch=1 n=f6 v=0
201747 On ch=1 n=f5 v=0
201777 On ch=1 n=a#6 v=0
201857 On ch=1 n=g#4 v=53
201857 On ch=1 n=a#6 v=46
201862 On ch=1 n=f6 v=59
201862 On ch=1 n=f5 v=41
201877 On ch=1 n=d7 v=0
201887 On ch=1 n=g#4 v=0
201897 On ch=1 n=f6 v=0
201907 On ch=1 n=f5 v=0
201937 On ch=1 n=a#6 v=0
201942 On ch=1 n=d6 v=0
202002 On ch=1 n=a4 v=62
202007 On ch=1 n=a#6 v=52
202012 On ch=1 n=f5 v=40
202017 On ch=1 n=f6 v=63
202057 On ch=1 n=f5 v=0
202072 On ch=1 n=f6 v=0
202072 On ch=1 n=a4 v=0
202107 On ch=1 n=a#6 v=0
202187 On ch=1 n=d7 v=92
202197 On ch=1 n=d6 v=75
202207 On ch=1 n=a#4 v=46
202207 On ch=1 n=f5 v=45
202262 On ch=1 n=f5 v=0
202277 On ch=1 n=a#4 v=0
202312 On ch=1 n=d6 v=0
202357 On ch=1 n=b4 v=63
202367 On ch=1 n=a#6 v=77
202367 On ch=1 n=d6 v=47
202377 On ch=1 n=f6 v=75
202377 On ch=1 n=f5 v=37
202407 On ch=1 n=f6 v=0
202437 On ch=1 n=f5 v=0
202442 On ch=1 n=b4 v=0
202452 On ch=1 n=a#6 v=0
202532 On ch=1 n=a#6 v=68
202532 On ch=1 n=c5 v=63
202542 On ch=1 n=f6 v=70
202557 On ch=1 n=f5 v=30
202577 On ch=1 n=f6 v=0
202602 On ch=1 n=f5 v=0
202602 On ch=1 n=c5 v=0
202617 On ch=1 n=a#6 v=0
202677 On ch=1 n=a#6 v=54
202697 On ch=1 n=c#5 v=60
202697 On ch=1 n=f6 v=63
202732 On ch=1 n=f6 v=0
202762 On ch=1 n=c#5 v=0
202772 On ch=1 n=a#6 v=0
202847 On ch=1 n=a#6 v=58
202857 On ch=1 n=f6 v=67
202867 On ch=1 n=d5 v=59
202872 On ch=1 n=d7 v=0
202872 On ch=1 n=f5 v=54
202892 On ch=1 n=d6 v=0
202907 On ch=1 n=f5 v=0
202907 On ch=1 n=d5 v=0
202932 On ch=1 n=f6 v=0
202992 On ch=1 n=a#6 v=0
203047 On ch=1 n=c7 v=89
203057 On ch=1 n=c6 v=72
203127 On ch=1 n=c6 v=0
203137 On ch=1 n=c7 v=0
203332 Par ch=1 c=64 v=88
203347 On ch=1 n=a#6 v=78
203352 Par ch=1 c=64 v=0
203362 On ch=1 n=a#5 v=67
203372 On ch=1 n=a#3 v=67
203452 On ch=1 n=a#3 v=0
203467 Par ch=1 c=64 v=104
203477 Par ch=1 c=64 v=127
203672 On ch=1 n=f6 v=60
203682 On ch=1 n=f5 v=51
203682 On ch=1 n=f4 v=58
203682 On ch=1 n=d5 v=39
203712 On ch=1 n=f4 v=0
203737 On ch=1 n=d5 v=0
203737 On ch=1 n=f6 v=0
203747 On ch=1 n=f5 v=0
203847 On ch=1 n=f6 v=59
203847 On ch=1 n=d5 v=37
203852 On ch=1 n=f#4 v=54
203867 On ch=1 n=d6 v=32
203897 On ch=1 n=d5 v=0
203907 On ch=1 n=d6 v=0
203907 On ch=1 n=f#4 v=0
203922 On ch=1 n=f6 v=0
204002 On ch=1 n=f5 v=44
204007 On ch=1 n=f6 v=59
204012 On ch=1 n=g4 v=60
204022 On ch=1 n=d5 v=33
204057 On ch=1 n=g4 v=0
204062 On ch=1 n=d5 v=0
204077 On ch=1 n=f5 v=0
204092 On ch=1 n=f6 v=0
204167 On ch=1 n=f6 v=58
204167 On ch=1 n=g#4 v=48
204182 On ch=1 n=d5 v=33
204187 On ch=1 n=f5 v=21
204197 On ch=1 n=d6 v=35
204202 On ch=1 n=g#4 v=0
204222 On ch=1 n=d5 v=0
204232 On ch=1 n=f5 v=0
204237 On ch=1 n=d6 v=0
204252 On ch=1 n=f6 v=0
204312 On ch=1 n=a4 v=59
204322 On ch=1 n=f6 v=55
204322 On ch=1 n=f5 v=37
204337 On ch=1 n=a#5 v=0
204352 On ch=1 n=a#6 v=0
204357 On ch=1 n=d6 v=31
204377 On ch=1 n=f5 v=0
204382 On ch=1 n=a4 v=0
204397 On ch=1 n=d6 v=0
204417 On ch=1 n=f6 v=0
204497 On ch=1 n=a#6 v=82
204502 On ch=1 n=f5 v=51
204507 On ch=1 n=a#5 v=71
204507 On ch=1 n=a#4 v=45
204522 On ch=1 n=d5 v=31
204562 On ch=1 n=d5 v=0
204572 On ch=1 n=f5 v=0
204582 On ch=1 n=a#4 v=0
204677 On ch=1 n=f6 v=74
204687 On ch=1 n=f5 v=31
204692 On ch=1 n=d6 v=58
204722 On ch=1 n=d6 v=0
204737 On ch=1 n=f5 v=0
204747 On ch=1 n=f6 v=0
204817 On ch=1 n=c5 v=62
204817 On ch=1 n=f6 v=64
204842 On ch=1 n=d6 v=49
204847 On ch=1 n=f5 v=27
204877 On ch=1 n=d6 v=0
204877 On ch=1 n=c5 v=0
204887 On ch=1 n=f5 v=0
204917 On ch=1 n=f6 v=0
204977 On ch=1 n=f6 v=65
204987 On ch=1 n=c#5 v=58
205002 On ch=1 n=f5 v=33
205012 On ch=1 n=d6 v=41
205047 On ch=1 n=d6 v=0
205052 On ch=1 n=f5 v=0
205067 On ch=1 n=c#5 v=0
205067 On ch=1 n=f6 v=0
205092 On ch=1 n=a#5 v=0
205117 On ch=1 n=a#6 v=0
205147 On ch=1 n=f6 v=52
205162 On ch=1 n=d6 v=51
205167 On ch=1 n=d5 v=47
205172 On ch=1 n=f5 v=34
205217 On ch=1 n=d5 v=0
205222 On ch=1 n=f5 v=0
205237 On ch=1 n=d6 v=0
205257 On ch=1 n=f6 v=0
205337 On ch=1 n=a#6 v=85
205347 On ch=1 n=a#5 v=75
205447 On ch=1 n=a#5 v=0
205472 On ch=1 n=a#6 v=0
205632 On ch=1 n=a6 v=85
205632 Par ch=1 c=64 v=72
205647 On ch=1 n=a5 v=65
205652 Par ch=1 c=64 v=0
205657 On ch=1 n=a#3 v=69
205742 Par ch=1 c=64 v=40
205762 Par ch=1 c=64 v=127
205767 On ch=1 n=a#3 v=0
205967 On ch=1 n=f#4 v=42
205972 On ch=1 n=d#6 v=57
205982 On ch=1 n=d#5 v=33
205982 On ch=1 n=f#5 v=38
205997 On ch=1 n=c6 v=44
206027 On ch=1 n=c6 v=0
206037 On ch=1 n=f#5 v=0
206037 On ch=1 n=f#4 v=0
206052 On ch=1 n=d#6 v=0
206067 On ch=1 n=d#5 v=0
206137 On ch=1 n=d#6 v=64
206137 On ch=1 n=g4 v=58
206147 On ch=1 n=c6 v=57
206147 On ch=1 n=f#5 v=36
206182 On ch=1 n=c6 v=0
206192 On ch=1 n=g4 v=0
206207 On ch=1 n=f#5 v=0
206232 On ch=1 n=d#6 v=0
206282 On ch=1 n=d#6 v=51
206307 On ch=1 n=c6 v=60
206312 On ch=1 n=g#4 v=43
206312 On ch=1 n=f#5 v=43
206337 On ch=1 n=c6 v=0
206342 On ch=1 n=f#5 v=0
206342 On ch=1 n=g#4 v=0
206382 On ch=1 n=d#6 v=0
206437 On ch=1 n=d#6 v=48
206452 On ch=1 n=a4 v=61
206467 On ch=1 n=c6 v=51
206467 On ch=1 n=f#5 v=35
206482 On ch=1 n=d#5 v=30
206502 On ch=1 n=c6 v=0
206512 On ch=1 n=d#5 v=0
206512 On ch=1 n=a5 v=0
206517 On ch=1 n=f#5 v=0
206527 On ch=1 n=a4 v=0
206547 On ch=1 n=a6 v=0
206582 On ch=1 n=d#6 v=0
206617 On ch=1 n=a6 v=82
206617 On ch=1 n=f#5 v=64
206627 On ch=1 n=a5 v=84
206637 On ch=1 n=d#5 v=34
206637 On ch=1 n=a#4 v=39
206667 On ch=1 n=a#4 v=0
206667 On ch=1 n=d#5 v=0
206677 On ch=1 n=a5 v=0
206687 On ch=1 n=f#5 v=0
206722 On ch=1 n=a6 v=0
206887 On ch=1 n=f#7 v=92
206892 On ch=1 n=f#6 v=85
206897 On ch=1 n=b4 v=47
206907 On ch=1 n=f#5 v=28
206957 On ch=1 n=f#6 v=0
206987 On ch=1 n=f#5 v=0
206987 On ch=1 n=b4 v=0
207057 On ch=1 n=f#6 v=4
207087 On ch=1 n=c5 v=60
207087 On ch=1 n=c7 v=67
207097 On ch=1 n=f#5 v=32
207102 On ch=1 n=a6 v=46
207132 On ch=1 n=a6 v=0
207142 On ch=1 n=f#5 v=0
207142 On ch=1 n=c5 v=0
207162 On ch=1 n=c7 v=0
207242 On ch=1 n=c7 v=62
207242 On ch=1 n=f#5 v=43
207252 On ch=1 n=a6 v=55
207292 On ch=1 n=a6 v=0
207292 On ch=1 n=f#5 v=0
207327 On ch=1 n=c7 v=0
207387 On ch=1 n=c7 v=60
207412 On ch=1 n=d5 v=61
207417 On ch=1 n=f#5 v=23
207427 On ch=1 n=a6 v=24
207452 On ch=1 n=d5 v=0
207462 On ch=1 n=f#5 v=0
207467 On ch=1 n=a6 v=0
207482 On ch=1 n=c7 v=0
207552 On ch=1 n=c7 v=56
207562 On ch=1 n=f#5 v=46
207572 On ch=1 n=d#5 v=48
207582 On ch=1 n=f#7 v=0
207597 On ch=1 n=c7 v=0
207602 On ch=1 n=f#6 v=0
207612 On ch=1 n=d#5 v=0
207612 On ch=1 n=f#5 v=0
207787 On ch=1 n=a6 v=85
207792 On ch=1 n=a5 v=70
207852 On ch=1 n=a5 v=0
207887 On ch=1 n=a6 v=0
208072 On ch=1 n=a#3 v=69
208087 Par ch=1 c=64 v=72
208102 On ch=1 n=c7 v=81
208102 Par ch=1 c=64 v=0
208117 On ch=1 n=c6 v=74
208212 Par ch=1 c=64 v=104
208227 Par ch=1 c=64 v=127
208232 On ch=1 n=a#3 v=0
208417 On ch=1 n=f6 v=58
208422 On ch=1 n=f4 v=58
208427 On ch=1 n=d6 v=38
208427 On ch=1 n=d5 v=31
208447 On ch=1 n=f5 v=21
208462 On ch=1 n=f4 v=0
208467 On ch=1 n=d6 v=0
208482 On ch=1 n=d5 v=0
208487 On ch=1 n=f5 v=0
208487 On ch=1 n=f6 v=0
208582 On ch=1 n=f6 v=69
208592 On ch=1 n=f#4 v=53
208592 On ch=1 n=d6 v=35
208607 On ch=1 n=f5 v=37
208622 On ch=1 n=d5 v=19
208627 On ch=1 n=d6 v=0
208642 On ch=1 n=f#4 v=0
208647 On ch=1 n=d5 v=0
208647 On ch=1 n=f5 v=0
208652 On ch=1 n=f6 v=0
208732 On ch=1 n=f6 v=62
208747 On ch=1 n=g4 v=63
208752 On ch=1 n=f5 v=54
208767 On ch=1 n=d5 v=31
208802 On ch=1 n=f5 v=0
208807 On ch=1 n=d5 v=0
208807 On ch=1 n=g4 v=0
208807 On ch=1 n=f6 v=0
208887 On ch=1 n=f6 v=57
208907 On ch=1 n=d6 v=46
208917 On ch=1 n=f5 v=62
208917 On ch=1 n=g#4 v=40
208942 On ch=1 n=d6 v=0
208942 On ch=1 n=d5 v=25
208952 On ch=1 n=f5 v=0
208957 On ch=1 n=g#4 v=0
208972 On ch=1 n=d5 v=0
208972 On ch=1 n=f6 v=0
209052 On ch=1 n=f6 v=70
209062 On ch=1 n=a4 v=58
209072 On ch=1 n=f5 v=47
209077 On ch=1 n=c7 v=0
209077 On ch=1 n=d6 v=40
209097 On ch=1 n=c6 v=0
209117 On ch=1 n=d6 v=0
209117 On ch=1 n=f5 v=0
209127 On ch=1 n=a4 v=0
209147 On ch=1 n=f6 v=0
209227 On ch=1 n=a#6 v=83
209237 On ch=1 n=a#5 v=68
209237 On ch=1 n=f5 v=47
209247 On ch=1 n=a#4 v=54
209252 On ch=1 n=d5 v=37
209272 On ch=1 n=a#4 v=0
209282 On ch=1 n=f5 v=0
209287 On ch=1 n=d5 v=0
209337 On ch=1 n=a#5 v=0
209387 On ch=1 n=b4 v=62
209387 On ch=1 n=f6 v=75
209397 On ch=1 n=a#5 v=32
209397 On ch=1 n=f5 v=53
209407 On ch=1 n=d5 v=39
209417 On ch=1 n=d6 v=55
209442 On ch=1 n=d5 v=0
209442 On ch=1 n=f5 v=0
209447 On ch=1 n=d6 v=0
209457 On ch=1 n=b4 v=0
209482 On ch=1 n=f6 v=0
209532 On ch=1 n=f6 v=66
209542 On ch=1 n=c5 v=70
209562 On ch=1 n=f5 v=52
209567 On ch=1 n=d6 v=58
209597 On ch=1 n=d6 v=0
209597 On ch=1 n=f5 v=0
209607 On ch=1 n=c5 v=0
209632 On ch=1 n=f6 v=0
209687 On ch=1 n=f6 v=68
209697 On ch=1 n=c#5 v=69
209707 On ch=1 n=d6 v=63
209722 On ch=1 n=f5 v=42
209747 On ch=1 n=d6 v=0
209762 On ch=1 n=f5 v=0
209777 On ch=1 n=c#5 v=0
209787 On ch=1 n=f6 v=0
209862 On ch=1 n=d5 v=72
209867 On ch=1 n=f6 v=54
209877 On ch=1 n=f5 v=55
209907 On ch=1 n=d6 v=21
209912 On ch=1 n=f5 v=0
209937 On ch=1 n=d6 v=0
209937 On ch=1 n=d5 v=0
209952 On ch=1 n=f6 v=0
210032 On ch=1 n=f6 v=60
210047 On ch=1 n=d6 v=48
210057 On ch=1 n=a#5 v=0
210057 On ch=1 n=a#6 v=0
210077 On ch=1 n=d6 v=0
210102 On ch=1 n=f6 v=0
210397 Par ch=1 c=64 v=56
210412 On ch=1 n=d7 v=84
210412 Par ch=1 c=64 v=0
210427 On ch=1 n=d6 v=67
210457 On ch=1 n=g3 v=71
210527 Par ch=1 c=64 v=72
210532 On ch=1 n=g3 v=0
210542 Par ch=1 c=64 v=127
210777 On ch=1 n=a#6 v=58
210787 On ch=1 n=a#4 v=53
210797 On ch=1 n=g6 v=57
210802 On ch=1 n=g5 v=29
210812 On ch=1 n=a#5 v=36
210837 On ch=1 n=g6 v=0
210862 On ch=1 n=g5 v=0
210867 On ch=1 n=a#4 v=0
210867 On ch=1 n=a#6 v=0
210877 On ch=1 n=a#5 v=0
210967 On ch=1 n=a#6 v=64
210972 On ch=1 n=g6 v=57
210977 On ch=1 n=b4 v=54
210982 On ch=1 n=a#5 v=51
211007 On ch=1 n=g5 v=24
211022 On ch=1 n=b4 v=0
211022 On ch=1 n=g6 v=0
211042 On ch=1 n=g5 v=0
211042 On ch=1 n=a#5 v=0
211047 On ch=1 n=a#6 v=0
211122 On ch=1 n=a#6 v=54
211132 On ch=1 n=g6 v=66
211142 On ch=1 n=c5 v=61
211142 On ch=1 n=a#5 v=44
211157 On ch=1 n=g5 v=25
211187 On ch=1 n=g6 v=0
211202 On ch=1 n=a#5 v=0
211202 On ch=1 n=c5 v=0
211207 On ch=1 n=g5 v=0
211212 On ch=1 n=a#6 v=0
211267 On ch=1 n=a#6 v=57
211282 On ch=1 n=g6 v=62
211287 On ch=1 n=c#5 v=62
211292 On ch=1 n=g5 v=41
211302 On ch=1 n=a#5 v=49
211337 On ch=1 n=a#5 v=0
211337 On ch=1 n=g5 v=0
211337 On ch=1 n=g6 v=0
211352 On ch=1 n=c#5 v=0
211367 On ch=1 n=a#6 v=0
211417 On ch=1 n=a#6 v=65
211437 On ch=1 n=d5 v=70
211437 On ch=1 n=a#5 v=50
211437 On ch=1 n=g6 v=66
211452 On ch=1 n=g5 v=37
211462 On ch=1 n=d7 v=0
211467 On ch=1 n=d6 v=0
211487 On ch=1 n=g5 v=0
211497 On ch=1 n=d5 v=0
211502 On ch=1 n=g6 v=0
211502 On ch=1 n=a#5 v=0
211527 On ch=1 n=a#6 v=0
211602 On ch=1 n=d7 v=93
211612 On ch=1 n=a#5 v=48
211612 On ch=1 n=d6 v=79
211617 On ch=1 n=g5 v=43
211627 On ch=1 n=d#5 v=39
211657 On ch=1 n=g5 v=0
211672 On ch=1 n=a#5 v=0
211677 On ch=1 n=d#5 v=0
211702 On ch=1 n=d6 v=0
211772 On ch=1 n=a#6 v=81
211772 On ch=1 n=a#5 v=55
211777 On ch=1 n=d6 v=67
211782 On ch=1 n=e5 v=49
211782 On ch=1 n=g6 v=74
211802 On ch=1 n=g5 v=25
211832 On ch=1 n=g6 v=0
211837 On ch=1 n=g5 v=0
211837 On ch=1 n=e5 v=0
211842 On ch=1 n=d6 v=0
211842 On ch=1 n=a#5 v=0
211852 On ch=1 n=a#6 v=0
211922 On ch=1 n=f5 v=60
211922 On ch=1 n=a#6 v=65
211927 On ch=1 n=d6 v=25
211932 On ch=1 n=a#5 v=44
211942 On ch=1 n=g6 v=70
211977 On ch=1 n=g6 v=0
211997 On ch=1 n=a#5 v=0
212002 On ch=1 n=f5 v=0
212017 On ch=1 n=a#6 v=0
212082 On ch=1 n=a#6 v=58
212092 On ch=1 n=f#5 v=62
212092 On ch=1 n=g6 v=66
212102 On ch=1 n=a#5 v=38
212137 On ch=1 n=a#5 v=0
212147 On ch=1 n=g6 v=0
212167 On ch=1 n=f#5 v=0
212177 On ch=1 n=a#6 v=0
212242 On ch=1 n=a#6 v=61
212247 On ch=1 n=d6 v=0
212247 On ch=1 n=g5 v=71
212252 On ch=1 n=a#5 v=55
212262 On ch=1 n=d7 v=0
212262 On ch=1 n=g6 v=70
212307 On ch=1 n=a#5 v=0
212307 On ch=1 n=g5 v=0
212362 On ch=1 n=g6 v=0
212402 On ch=1 n=a#6 v=0
212437 On ch=1 n=c7 v=86
212442 On ch=1 n=c6 v=76
212502 On ch=1 n=c6 v=0
212507 On ch=1 n=c7 v=0
212722 Par ch=1 c=64 v=104
212727 On ch=1 n=a#6 v=79
212732 On ch=1 n=a#5 v=70
212742 Par ch=1 c=64 v=0
212757 On ch=1 n=g3 v=70
212817 On ch=1 n=g3 v=0
212832 Par ch=1 c=64 v=104
212852 Par ch=1 c=64 v=127
213027 On ch=1 n=g5 v=52
213027 On ch=1 n=d6 v=50
213027 On ch=1 n=g6 v=48
213037 On ch=1 n=d5 v=36
213037 On ch=1 n=g4 v=38
213062 On ch=1 n=d6 v=0
213072 On ch=1 n=g4 v=0
213082 On ch=1 n=d5 v=0
213087 On ch=1 n=g6 v=0
213087 On ch=1 n=g5 v=0
213177 On ch=1 n=g#4 v=60
213177 On ch=1 n=d5 v=46
213187 On ch=1 n=g5 v=49
213187 On ch=1 n=g6 v=44
213202 On ch=1 n=d6 v=35
213222 On ch=1 n=d5 v=0
213232 On ch=1 n=g5 v=0
213242 On ch=1 n=d6 v=0
213247 On ch=1 n=g#4 v=0
213267 On ch=1 n=g6 v=0
213337 On ch=1 n=a4 v=65
213342 On ch=1 n=g5 v=64
213347 On ch=1 n=g6 v=41
213357 On ch=1 n=d5 v=35
213362 On ch=1 n=d6 v=55
213392 On ch=1 n=d6 v=0
213392 On ch=1 n=d5 v=0
213397 On ch=1 n=a4 v=0
213407 On ch=1 n=g5 v=0
213422 On ch=1 n=g6 v=0
213492 On ch=1 n=g6 v=56
213497 On ch=1 n=a#4 v=59
213502 On ch=1 n=g5 v=51
213507 On ch=1 n=d6 v=60
213537 On ch=1 n=d6 v=0
213542 On ch=1 n=g5 v=0
213557 On ch=1 n=a#4 v=0
213582 On ch=1 n=g6 v=0
213602 On ch=1 n=a#5 v=0
213617 On ch=1 n=a#6 v=0
213647 On ch=1 n=g6 v=62
213652 On ch=1 n=b4 v=68
213657 On ch=1 n=d6 v=63
213657 On ch=1 n=g5 v=49
213702 On ch=1 n=g5 v=0
213717 On ch=1 n=d6 v=0
213722 On ch=1 n=b4 v=0
213757 On ch=1 n=g6 v=0
213807 On ch=1 n=a#6 v=85
213812 On ch=1 n=a#5 v=75
213812 On ch=1 n=c5 v=68
213832 On ch=1 n=g5 v=49
213867 On ch=1 n=g5 v=0
213877 On ch=1 n=c5 v=0
213927 On ch=1 n=a#5 v=0
213972 On ch=1 n=c#5 v=62
213977 On ch=1 n=g6 v=63
213977 On ch=1 n=a#5 v=27
213987 On ch=1 n=d6 v=62
214022 On ch=1 n=d6 v=0
214052 On ch=1 n=a#5 v=0
214057 On ch=1 n=c#5 v=0
214062 On ch=1 n=g6 v=0
214127 On ch=1 n=d5 v=72
214137 On ch=1 n=g6 v=54
214147 On ch=1 n=d6 v=63
214147 On ch=1 n=g5 v=45
214182 On ch=1 n=d6 v=0
214187 On ch=1 n=a#6 v=0
214207 On ch=1 n=g5 v=0
214217 On ch=1 n=d5 v=0
214222 On ch=1 n=g6 v=0
214307 On ch=1 n=g6 v=59
214307 On ch=1 n=d6 v=64
214307 On ch=1 n=g5 v=49
214312 On ch=1 n=a#4 v=53
214342 On ch=1 n=d6 v=0
214357 On ch=1 n=g5 v=0
214382 On ch=1 n=g6 v=0
214427 On ch=1 n=a#4 v=0
214467 On ch=1 n=g6 v=62
214472 On ch=1 n=d6 v=62
214552 On ch=1 n=d6 v=0
214587 On ch=1 n=g6 v=0
214617 On ch=1 n=a#6 v=83
214622 On ch=1 n=a#5 v=71
214677 On ch=1 n=a#5 v=0
214712 On ch=1 n=a#6 v=0
214937 On ch=1 n=c#7 v=90
214937 Par ch=1 c=64 v=56
214942 On ch=1 n=c#6 v=78
214957 Par ch=1 c=64 v=0
214967 On ch=1 n=c4 v=54
214972 On ch=1 n=c3 v=68
215032 On ch=1 n=c3 v=0
215047 Par ch=1 c=64 v=127
215057 On ch=1 n=c4 v=0
215272 On ch=1 n=g6 v=58
215282 On ch=1 n=a#4 v=58
215282 On ch=1 n=a#5 v=50
215292 On ch=1 n=e6 v=48
215292 On ch=1 n=g5 v=31
215327 On ch=1 n=e6 v=0
215352 On ch=1 n=g5 v=0
215357 On ch=1 n=g6 v=0
215362 On ch=1 n=a#5 v=0
215362 On ch=1 n=a#4 v=0
215467 On ch=1 n=g6 v=62
215467 On ch=1 n=a#5 v=40
215477 On ch=1 n=b4 v=54
215482 On ch=1 n=e6 v=49
215492 On ch=1 n=g5 v=33
215512 On ch=1 n=e6 v=0
215522 On ch=1 n=b4 v=0
215537 On ch=1 n=g5 v=0
215547 On ch=1 n=a#5 v=0
215547 On ch=1 n=g6 v=0
215627 On ch=1 n=g6 v=53
215637 On ch=1 n=c5 v=66
215637 On ch=1 n=a#5 v=54
215642 On ch=1 n=g5 v=39
215647 On ch=1 n=e6 v=51
215682 On ch=1 n=e6 v=0
215702 On ch=1 n=a#5 v=0
215702 On ch=1 n=c5 v=0
215707 On ch=1 n=g5 v=0
215722 On ch=1 n=g6 v=0
215787 On ch=1 n=g6 v=54
215797 On ch=1 n=a#5 v=62
215797 On ch=1 n=g5 v=45
215797 On ch=1 n=c#5 v=56
215807 On ch=1 n=e6 v=48
215832 On ch=1 n=c#5 v=0
215832 On ch=1 n=g5 v=0
215857 On ch=1 n=a#5 v=0
215867 On ch=1 n=c#6 v=0
215882 On ch=1 n=c#7 v=0
215892 On ch=1 n=e6 v=0
215922 On ch=1 n=g6 v=0
215942 On ch=1 n=d5 v=68
215952 On ch=1 n=c7 v=94
215952 On ch=1 n=c6 v=87
215952 On ch=1 n=a#5 v=40
215957 On ch=1 n=g5 v=28
216002 On ch=1 n=g5 v=0
216002 On ch=1 n=c6 v=0
216017 On ch=1 n=d5 v=0
216022 On ch=1 n=a#5 v=0
216027 On ch=1 n=c7 v=0
216217 On ch=1 n=d#5 v=44
216217 On ch=1 n=a#5 v=40
216227 On ch=1 n=a#7 v=91
216227 On ch=1 n=a#6 v=83
216242 On ch=1 n=g5 v=33
216292 On ch=1 n=g5 v=0
216292 On ch=1 n=a#6 v=0
216302 On ch=1 n=a#5 v=0
216307 On ch=1 n=d#5 v=0
216397 On ch=1 n=a#6 v=17
216402 On ch=1 n=e5 v=62
216412 On ch=1 n=a#5 v=37
216412 On ch=1 n=e7 v=64
216422 On ch=1 n=c#7 v=50
216452 On ch=1 n=c#7 v=0
216472 On ch=1 n=a#5 v=0
216482 On ch=1 n=e5 v=0
216487 On ch=1 n=e7 v=0
216492 On ch=1 n=a#6 v=0
216572 On ch=1 n=f5 v=64
216582 On ch=1 n=a#6 v=22
216582 On ch=1 n=e7 v=53
216582 On ch=1 n=c#7 v=50
216587 On ch=1 n=a#5 v=37
216642 On ch=1 n=a#5 v=0
216642 On ch=1 n=f5 v=0
216647 On ch=1 n=c#7 v=0
216657 On ch=1 n=e7 v=0
216732 On ch=1 n=e7 v=56
216742 On ch=1 n=a#5 v=50
216742 On ch=1 n=f#5 v=58
216747 On ch=1 n=c#7 v=37
216787 On ch=1 n=c#7 v=0
216792 On ch=1 n=a#5 v=0
216807 On ch=1 n=f#5 v=0
216827 On ch=1 n=e7 v=0
216902 On ch=1 n=e7 v=56
216902 On ch=1 n=a#5 v=55
216902 On ch=1 n=c#7 v=55
216902 On ch=1 n=g5 v=68
216927 On ch=1 n=a#7 v=0
216937 On ch=1 n=a#6 v=0
216952 On ch=1 n=g5 v=0
216962 On ch=1 n=c#7 v=0
216962 On ch=1 n=a#5 v=0
216962 On ch=1 n=e7 v=0
217087 On ch=1 n=e7 v=88
217087 On ch=1 n=e6 v=81
217157 On ch=1 n=e6 v=0
217197 On ch=1 n=e7 v=0
217402 On ch=1 n=f7 v=88
217412 On ch=1 n=f6 v=75
217422 Par ch=1 c=64 v=40
217442 Par ch=1 c=64 v=0
217452 On ch=1 n=f3 v=71
217517 On ch=1 n=f3 v=0
217532 Par ch=1 c=64 v=104
217547 Par ch=1 c=64 v=127
217707 On ch=1 n=c7 v=63
217717 On ch=1 n=a4 v=42
217727 On ch=1 n=a5 v=48
217727 On ch=1 n=f5 v=45
217737 On ch=1 n=a6 v=40
217767 On ch=1 n=a4 v=0
217777 On ch=1 n=a6 v=0
217777 On ch=1 n=f5 v=0
217777 On ch=1 n=a5 v=0
217792 On ch=1 n=c7 v=0
217882 On ch=1 n=c7 v=62
217892 On ch=1 n=a#4 v=46
217892 On ch=1 n=a6 v=46
217912 On ch=1 n=a5 v=32
217927 On ch=1 n=a6 v=0
217952 On ch=1 n=a5 v=0
217952 On ch=1 n=c7 v=0
217957 On ch=1 n=a#4 v=0
218042 On ch=1 n=c7 v=64
218047 On ch=1 n=a5 v=57
218047 On ch=1 n=b4 v=63
218057 On ch=1 n=a6 v=52
218057 On ch=1 n=f5 v=29
218087 On ch=1 n=a6 v=0
218102 On ch=1 n=f5 v=0
218107 On ch=1 n=a5 v=0
218112 On ch=1 n=b4 v=0
218112 On ch=1 n=c7 v=0
218187 On ch=1 n=c7 v=67
218197 On ch=1 n=a6 v=63
218197 On ch=1 n=c5 v=64
218212 On ch=1 n=a5 v=39
218232 On ch=1 n=a6 v=0
218247 On ch=1 n=c5 v=0
218257 On ch=1 n=a5 v=0
218272 On ch=1 n=c7 v=0
218332 On ch=1 n=c7 v=73
218347 On ch=1 n=a6 v=68
218352 On ch=1 n=c#5 v=67
218352 On ch=1 n=f5 v=56
218357 On ch=1 n=a5 v=41
218377 On ch=1 n=a6 v=0
218382 On ch=1 n=f5 v=0
218402 On ch=1 n=a5 v=0
218402 On ch=1 n=c#5 v=0
218422 On ch=1 n=c7 v=0
218487 On ch=1 n=c7 v=76
218497 On ch=1 n=d5 v=67
218497 On ch=1 n=a6 v=66
218502 On ch=1 n=f5 v=56
218507 On ch=1 n=a5 v=39
218537 On ch=1 n=a6 v=0
218542 On ch=1 n=f5 v=0
218552 On ch=1 n=a5 v=0
218567 On ch=1 n=d5 v=0
218572 On ch=1 n=c7 v=0
218627 On ch=1 n=c7 v=68
218642 On ch=1 n=a6 v=60
218647 On ch=1 n=d#5 v=56
218652 On ch=1 n=a5 v=34
218672 On ch=1 n=a6 v=0
218702 On ch=1 n=a5 v=0
218712 On ch=1 n=c7 v=0
218722 On ch=1 n=d#5 v=0
218787 On ch=1 n=c7 v=67
218797 On ch=1 n=a6 v=56
218802 On ch=1 n=e5 v=60
218817 On ch=1 n=a5 v=29
218827 On ch=1 n=a6 v=0
218862 On ch=1 n=a5 v=0
218867 On ch=1 n=c7 v=0
218872 On ch=1 n=e5 v=0
218977 On ch=1 n=c7 v=70
218982 On ch=1 n=f5 v=54
218982 On ch=1 n=a6 v=51
218997 On ch=1 n=a5 v=42
219052 Par ch=1 c=64 v=88
219067 Par ch=1 c=64 v=24
219072 On ch=1 n=c7 v=0
219082 On ch=1 n=a6 v=0
219082 Par ch=1 c=64 v=0
219102 Par ch=1 c=64 v=24
219117 Par ch=1 c=64 v=88
219132 Par ch=1 c=64 v=127
219177 On ch=1 n=c7 v=50
219182 On ch=1 n=a6 v=30
219227 On ch=1 n=a6 v=0
219237 On ch=1 n=a5 v=0
219252 On ch=1 n=c7 v=0
219262 On ch=1 n=f5 v=0
219357 On ch=1 n=c7 v=36
219367 On ch=1 n=f6 v=0
219367 On ch=1 n=a6 v=28
219372 On ch=1 n=f7 v=0
219417 On ch=1 n=a6 v=0
219462 On ch=1 n=c7 v=0
219747 Par ch=1 c=64 v=40
219762 On ch=1 n=f7 v=86
219762 Par ch=1 c=64 v=0
219772 On ch=1 n=f6 v=74
219787 On ch=1 n=c#4 v=40
219797 On ch=1 n=c#3 v=67
219827 Par ch=1 c=64 v=56
219847 Par ch=1 c=64 v=127
219862 On ch=1 n=c#3 v=0
219872 On ch=1 n=c#4 v=0
220132 On ch=1 n=c#7 v=40
220137 On ch=1 n=f4 v=49
220142 On ch=1 n=g#6 v=34
220152 On ch=1 n=f5 v=18
220177 On ch=1 n=f4 v=0
220187 On ch=1 n=g#6 v=0
220197 On ch=1 n=f5 v=0
220202 On ch=1 n=c#7 v=0
220302 On ch=1 n=c#5 v=40
220302 On ch=1 n=c#7 v=58
220307 On ch=1 n=f#4 v=55
220322 On ch=1 n=g#6 v=30
220357 On ch=1 n=g#6 v=0
220357 On ch=1 n=f#4 v=0
220362 On ch=1 n=c#5 v=0
220382 On ch=1 n=c#7 v=0
220462 On ch=1 n=f5 v=58
220472 On ch=1 n=c#7 v=53
220477 On ch=1 n=c#5 v=39
220477 On ch=1 n=g4 v=55
220482 On ch=1 n=g#6 v=46
220522 On ch=1 n=g4 v=0
220522 On ch=1 n=c#5 v=0
220532 On ch=1 n=f5 v=0
220537 On ch=1 n=g#6 v=0
220547 On ch=1 n=c#7 v=0
220627 On ch=1 n=c#5 v=55
220627 On ch=1 n=c#7 v=46
220627 On ch=1 n=g#6 v=50
220632 On ch=1 n=g#4 v=62
220637 On ch=1 n=f5 v=54
220657 On ch=1 n=c#5 v=0
220672 On ch=1 n=f5 v=0
220682 On ch=1 n=g#4 v=0
220692 On ch=1 n=g#6 v=0
220702 On ch=1 n=c#7 v=0
220757 On ch=1 n=f6 v=0
220772 On ch=1 n=c#7 v=54
220777 On ch=1 n=a4 v=66
220782 On ch=1 n=g#6 v=54
220782 On ch=1 n=f5 v=60
220787 On ch=1 n=c#5 v=46
220822 On ch=1 n=f7 v=0
220842 On ch=1 n=c#5 v=0
220842 On ch=1 n=f5 v=0
220847 On ch=1 n=a4 v=0
220852 On ch=1 n=g#6 v=0
220877 On ch=1 n=c#7 v=0
220942 On ch=1 n=f7 v=93
220947 On ch=1 n=c#5 v=46
220952 On ch=1 n=f6 v=82
220952 On ch=1 n=a#4 v=49
220952 On ch=1 n=f5 v=58
220997 On ch=1 n=f5 v=0
221002 On ch=1 n=c#5 v=0
221022 On ch=1 n=a#4 v=0
221052 On ch=1 n=f6 v=0
221097 On ch=1 n=b4 v=64
221102 On ch=1 n=f5 v=49
221102 On ch=1 n=c#7 v=75
221112 On ch=1 n=f6 v=46
221122 On ch=1 n=g#6 v=47
221147 On ch=1 n=f5 v=0
221152 On ch=1 n=g#6 v=0
221162 On ch=1 n=b4 v=0
221177 On ch=1 n=f6 v=0
221177 On ch=1 n=c#7 v=0
221247 On ch=1 n=c5 v=66
221247 On ch=1 n=g#6 v=71
221247 On ch=1 n=c#7 v=55
221252 On ch=1 n=f6 v=33
221257 On ch=1 n=f5 v=48
221297 On ch=1 n=f5 v=0
221312 On ch=1 n=g#6 v=0
221312 On ch=1 n=c5 v=0
221317 On ch=1 n=f6 v=0
221317 On ch=1 n=c#7 v=0
221387 On ch=1 n=c#7 v=65
221392 On ch=1 n=g#6 v=57
221392 On ch=1 n=c#5 v=60
221397 On ch=1 n=f5 v=52
221427 On ch=1 n=f7 v=0
221437 On ch=1 n=f5 v=0
221457 On ch=1 n=g#6 v=0
221467 On ch=1 n=c#5 v=0
221472 On ch=1 n=c#7 v=0
221532 On ch=1 n=c#7 v=59
221557 On ch=1 n=g#6 v=58
221617 On ch=1 n=g#6 v=0
221657 On ch=1 n=c#7 v=0
221682 On ch=1 n=f7 v=99
221687 On ch=1 n=f6 v=86
221737 On ch=1 n=f6 v=0
221762 On ch=1 n=f7 v=0
221962 Par ch=1 c=64 v=72
221977 On ch=1 n=g#7 v=106
221977 On ch=1 n=g#2 v=74
221982 On ch=1 n=g#6 v=93
221982 On ch=1 n=g#3 v=55
221982 Par ch=1 c=64 v=0
222027 On ch=1 n=g#2 v=0
222027 Par ch=1 c=64 v=40
222047 On ch=1 n=g#3 v=0
222047 Par ch=1 c=64 v=127
222237 On ch=1 n=g#4 v=49
222257 On ch=1 n=g#5 v=34
222267 On ch=1 n=d#7 v=67
222267 On ch=1 n=c#7 v=62
222317 On ch=1 n=g#5 v=0
222327 On ch=1 n=g#4 v=0
222332 On ch=1 n=c#7 v=0
222337 On ch=1 n=d#7 v=0
222417 On ch=1 n=d#5 v=38
222417 On ch=1 n=g#5 v=51
222422 On ch=1 n=a4 v=64
222432 On ch=1 n=d#7 v=74
222432 On ch=1 n=c#7 v=67
222482 On ch=1 n=a4 v=0
222492 On ch=1 n=g#5 v=0
222492 On ch=1 n=d#5 v=0
222497 On ch=1 n=c#7 v=0
222507 On ch=1 n=d#7 v=0
222567 On ch=1 n=a#4 v=60
222572 On ch=1 n=g#5 v=44
222577 On ch=1 n=d#5 v=27
222582 On ch=1 n=d#7 v=61
222582 On ch=1 n=c#7 v=60
222627 On ch=1 n=d#5 v=0
222642 On ch=1 n=g#5 v=0
222642 On ch=1 n=a#4 v=0
222647 On ch=1 n=c#7 v=0
222657 On ch=1 n=d#7 v=0
222727 On ch=1 n=d#7 v=56
222727 On ch=1 n=g#5 v=53
222727 On ch=1 n=b4 v=60
222732 On ch=1 n=c#7 v=54
222742 On ch=1 n=d#5 v=31
222787 On ch=1 n=d#5 v=0
222792 On ch=1 n=g#5 v=0
222797 On ch=1 n=b4 v=0
222807 On ch=1 n=c#7 v=0
222812 On ch=1 n=d#7 v=0
222877 On ch=1 n=g#5 v=57
222882 On ch=1 n=c5 v=66
222882 On ch=1 n=d#7 v=65
222882 On ch=1 n=c#7 v=58
222897 On ch=1 n=g#7 v=0
222897 On ch=1 n=d#5 v=37
222922 On ch=1 n=g#6 v=0
222932 On ch=1 n=d#5 v=0
222932 On ch=1 n=c5 v=0
222937 On ch=1 n=g#5 v=0
222947 On ch=1 n=c#7 v=0
222962 On ch=1 n=d#7 v=0
223047 On ch=1 n=d#7 v=95
223057 On ch=1 n=d#6 v=85
223132 On ch=1 n=d#6 v=0
223192 On ch=1 n=d#6 v=35
223202 On ch=1 n=b4 v=60
223207 On ch=1 n=g#5 v=47
223212 On ch=1 n=d#5 v=43
223217 On ch=1 n=c7 v=68
223227 On ch=1 n=g#6 v=42
223267 On ch=1 n=g#6 v=0
223272 On ch=1 n=g#5 v=0
223282 On ch=1 n=b4 v=0
223287 On ch=1 n=d#5 v=0
223302 On ch=1 n=c7 v=0
223357 On ch=1 n=c5 v=68
223357 On ch=1 n=g#5 v=51
223362 On ch=1 n=c7 v=65
223372 On ch=1 n=g#6 v=50
223377 On ch=1 n=d#5 v=25
223417 On ch=1 n=d#5 v=0
223422 On ch=1 n=g#5 v=0
223432 On ch=1 n=g#6 v=0
223432 On ch=1 n=c5 v=0
223452 On ch=1 n=c7 v=0
223467 On ch=1 n=d#6 v=0
223497 On ch=1 n=d#6 v=22
223497 On ch=1 n=c#5 v=64
223507 On ch=1 n=g#5 v=49
223512 On ch=1 n=c7 v=77
223522 On ch=1 n=g#6 v=61
223572 On ch=1 n=g#5 v=0
223577 On ch=1 n=c#5 v=0
223597 On ch=1 n=g#6 v=0
223607 On ch=1 n=c7 v=0
223662 On ch=1 n=c7 v=70
223662 On ch=1 n=d5 v=68
223672 On ch=1 n=g#6 v=55
223672 On ch=1 n=g#5 v=39
223722 On ch=1 n=g#5 v=0
223747 On ch=1 n=d5 v=0
223752 On ch=1 n=g#6 v=0
223762 On ch=1 n=c7 v=0
223797 On ch=1 n=d#7 v=0
223822 On ch=1 n=d#5 v=74
223832 On ch=1 n=c7 v=66
223832 On ch=1 n=g#5 v=61
223837 On ch=1 n=g#6 v=58
223857 On ch=1 n=d#6 v=0
223862 On ch=1 n=g#5 v=0
223882 On ch=1 n=g#6 v=0
223882 On ch=1 n=d#5 v=0
223897 On ch=1 n=c7 v=0
224137 Par ch=1 c=64 v=40
224147 On ch=1 n=g#7 v=102
224152 Par ch=1 c=64 v=0
224157 On ch=1 n=g#6 v=95
224167 On ch=1 n=e3 v=74
224172 On ch=1 n=e4 v=62
224212 On ch=1 n=e3 v=0
224242 Par ch=1 c=64 v=127
224247 On ch=1 n=e4 v=0
224387 On ch=1 n=g#6 v=0
224457 On ch=1 n=g#4 v=61
224462 On ch=1 n=g#5 v=69
224462 On ch=1 n=g#6 v=50
224467 On ch=1 n=e7 v=66
224482 On ch=1 n=b6 v=59
224482 On ch=1 n=e5 v=45
224507 On ch=1 n=b6 v=0
224522 On ch=1 n=e5 v=0
224532 On ch=1 n=g#6 v=0
224532 On ch=1 n=g#4 v=0
224537 On ch=1 n=g#5 v=0
224547 On ch=1 n=e7 v=0
224622 On ch=1 n=g#6 v=46
224632 On ch=1 n=e7 v=58
224637 On ch=1 n=g#5 v=52
224642 On ch=1 n=a4 v=58
224642 On ch=1 n=b6 v=57
224667 On ch=1 n=e5 v=32
224672 On ch=1 n=b6 v=0
224682 On ch=1 n=a4 v=0
224697 On ch=1 n=g#6 v=0
224702 On ch=1 n=e5 v=0
224702 On ch=1 n=g#5 v=0
224717 On ch=1 n=e7 v=0
224782 On ch=1 n=g#6 v=48
224782 On ch=1 n=e7 v=56
224792 On ch=1 n=g#5 v=67
224802 On ch=1 n=a#4 v=50
224807 On ch=1 n=b6 v=46
224817 On ch=1 n=e5 v=27
224842 On ch=1 n=b6 v=0
224852 On ch=1 n=e5 v=0
224857 On ch=1 n=a#4 v=0
224857 On ch=1 n=g#5 v=0
224882 On ch=1 n=e7 v=0
224882 On ch=1 n=g#6 v=0
224937 On ch=1 n=b4 v=59
224937 On ch=1 n=g#6 v=49
224942 On ch=1 n=e7 v=62
224947 On ch=1 n=g#5 v=53
224952 On ch=1 n=b6 v=69
224982 On ch=1 n=b6 v=0
225002 On ch=1 n=g#6 v=0
225007 On ch=1 n=b4 v=0
225012 On ch=1 n=g#5 v=0
225022 On ch=1 n=e7 v=0
225087 On ch=1 n=e5 v=61
225097 On ch=1 n=g#5 v=60
225097 On ch=1 n=e7 v=62
225097 On ch=1 n=b6 v=71
225102 On ch=1 n=c5 v=73
225137 On ch=1 n=g#7 v=0
225167 On ch=1 n=c5 v=0
225167 On ch=1 n=b6 v=0
225167 On ch=1 n=e5 v=0
225172 On ch=1 n=g#5 v=0
225192 On ch=1 n=e7 v=0
225252 On ch=1 n=g#5 v=72
225257 On ch=1 n=g#7 v=97
225262 On ch=1 n=g#6 v=90
225262 On ch=1 n=c#5 v=67
225277 On ch=1 n=e5 v=37
225312 On ch=1 n=e5 v=0
225332 On ch=1 n=g#5 v=0
225347 On ch=1 n=c#5 v=0
225357 On ch=1 n=g#6 v=0
225407 On ch=1 n=d5 v=76
225417 On ch=1 n=g#5 v=51
225422 On ch=1 n=g#6 v=47
225422 On ch=1 n=e7 v=68
225432 On ch=1 n=b6 v=65
225462 On ch=1 n=b6 v=0
225467 On ch=1 n=g#6 v=0
225472 On ch=1 n=d5 v=0
225482 On ch=1 n=g#5 v=0
225492 On ch=1 n=e7 v=0
225557 On ch=1 n=d#5 v=71
225567 On ch=1 n=e7 v=54
225567 On ch=1 n=b6 v=67
225567 On ch=1 n=g#5 v=58
225602 On ch=1 n=g#5 v=0
225607 On ch=1 n=b6 v=0
225642 On ch=1 n=e7 v=0
225642 On ch=1 n=d#5 v=0
225702 On ch=1 n=e5 v=81
225707 On ch=1 n=g#5 v=64
225707 On ch=1 n=e7 v=62
225722 On ch=1 n=b6 v=62
225752 On ch=1 n=b6 v=0
225757 On ch=1 n=g#5 v=0
225762 On ch=1 n=g#7 v=0
225767 On ch=1 n=e5 v=0
225792 On ch=1 n=e7 v=0
225862 On ch=1 n=e7 v=65
225877 On ch=1 n=b6 v=61
225927 On ch=1 n=b6 v=0
225962 On ch=1 n=e7 v=0
225997 On ch=1 n=g#6 v=73
226002 On ch=1 n=g#7 v=97
226052 On ch=1 n=g#6 v=0
226077 On ch=1 n=g#7 v=0
226257 Par ch=1 c=64 v=24
226272 Par ch=1 c=64 v=0
226287 On ch=1 n=b2 v=76
226287 On ch=1 n=b7 v=109
226292 On ch=1 n=b3 v=82
226292 On ch=1 n=b6 v=94
226317 On ch=1 n=b2 v=0
226347 On ch=1 n=b3 v=0
226347 Par ch=1 c=64 v=88
226367 Par ch=1 c=64 v=127
226572 On ch=1 n=f#7 v=70
226572 On ch=1 n=b4 v=53
226572 On ch=1 n=f#5 v=47
226577 On ch=1 n=b5 v=55
226582 On ch=1 n=e7 v=63
226617 On ch=1 n=e7 v=0
226637 On ch=1 n=b5 v=0
226642 On ch=1 n=f#5 v=0
226642 On ch=1 n=b4 v=0
226642 On ch=1 n=f#7 v=0
226722 On ch=1 n=c#5 v=67
226732 On ch=1 n=f#7 v=77
226737 On ch=1 n=e7 v=68
226737 On ch=1 n=f#5 v=31
226747 On ch=1 n=b5 v=46
226787 On ch=1 n=b5 v=0
226802 On ch=1 n=f#5 v=0
226802 On ch=1 n=e7 v=0
226802 On ch=1 n=c#5 v=0
226822 On ch=1 n=f#7 v=0
226867 On ch=1 n=c#5 v=60
226882 On ch=1 n=f#7 v=61
226887 On ch=1 n=b5 v=47
226892 On ch=1 n=e7 v=73
226897 On ch=1 n=c#5 v=0
226897 On ch=1 n=d5 v=74
226912 On ch=1 n=f#5 v=10
226952 On ch=1 n=f#5 v=0
226952 On ch=1 n=d5 v=0
226957 On ch=1 n=e7 v=0
226957 On ch=1 n=b5 v=0
226972 On ch=1 n=f#7 v=0
227027 On ch=1 n=d5 v=53
227027 On ch=1 n=f#7 v=65
227032 On ch=1 n=b5 v=49
227042 On ch=1 n=e7 v=68
227042 On ch=1 n=f#5 v=49
227092 On ch=1 n=d5 v=0
227102 On ch=1 n=f#5 v=0
227102 On ch=1 n=b5 v=0
227107 On ch=1 n=e7 v=0
227122 On ch=1 n=f#7 v=0
227182 On ch=1 n=d#5 v=69
227187 On ch=1 n=f#7 v=71
227187 On ch=1 n=b5 v=60
227192 On ch=1 n=e7 v=71
227207 On ch=1 n=f#5 v=44
227227 On ch=1 n=b7 v=0
227237 On ch=1 n=f#5 v=0
227237 On ch=1 n=b6 v=0
227252 On ch=1 n=b5 v=0
227257 On ch=1 n=e7 v=0
227267 On ch=1 n=d#5 v=0
227277 On ch=1 n=f#7 v=0
227367 On ch=1 n=f#7 v=97
227372 On ch=1 n=f#6 v=85
227442 On ch=1 n=f#6 v=0
227507 On ch=1 n=f#6 v=14
227537 On ch=1 n=d5 v=62
227537 On ch=1 n=d#7 v=60
227547 On ch=1 n=b5 v=54
227547 On ch=1 n=b6 v=61
227552 On ch=1 n=f#5 v=36
227587 On ch=1 n=b6 v=0
227597 On ch=1 n=b5 v=0
227602 On ch=1 n=d5 v=0
227607 On ch=1 n=f#5 v=0
227617 On ch=1 n=d#7 v=0
227687 On ch=1 n=d#5 v=69
227692 On ch=1 n=d#7 v=56
227697 On ch=1 n=f#5 v=36
227702 On ch=1 n=b6 v=69
227707 On ch=1 n=b5 v=59
227737 On ch=1 n=b5 v=0
227737 On ch=1 n=f#5 v=0
227757 On ch=1 n=b6 v=0
227767 On ch=1 n=d#5 v=0
227772 On ch=1 n=f#6 v=0
227787 On ch=1 n=d#7 v=0
227837 On ch=1 n=e5 v=75
227852 On ch=1 n=f#6 v=64
227852 On ch=1 n=d#7 v=58
227857 On ch=1 n=b5 v=56
227867 On ch=1 n=b6 v=78
227907 On ch=1 n=b5 v=0
227922 On ch=1 n=e5 v=0
227927 On ch=1 n=b6 v=0
227942 On ch=1 n=f#6 v=0
227952 On ch=1 n=d#7 v=0
228007 On ch=1 n=f5 v=73
228007 On ch=1 n=d#7 v=64
228027 On ch=1 n=b5 v=63
228027 On ch=1 n=b6 v=70
228027 On ch=1 n=f#6 v=30
228062 On ch=1 n=b5 v=0
228067 On ch=1 n=f#6 v=0
228082 On ch=1 n=b6 v=0
228092 On ch=1 n=f5 v=0
228117 On ch=1 n=d#7 v=0
228142 On ch=1 n=f#7 v=0
228177 On ch=1 n=d#7 v=63
228192 On ch=1 n=f#5 v=68
228192 On ch=1 n=b5 v=68
228197 On ch=1 n=b6 v=69
228232 On ch=1 n=b6 v=0
228242 On ch=1 n=b5 v=0
228252 On ch=1 n=f#5 v=0
228277 On ch=1 n=d#7 v=0
228407 On ch=1 n=g#4 v=46
228452 On ch=1 n=g#4 v=0
228462 On ch=1 n=d5 v=58
228502 On ch=1 n=f5 v=64
228517 Par ch=1 c=64 v=56
228532 Par ch=1 c=64 v=127
228572 On ch=1 n=b5 v=90
228612 On ch=1 n=d5 v=0
228627 On ch=1 n=b5 v=0
228627 On ch=1 n=f5 v=0
228927 On ch=1 n=c#5 v=61
228947 On ch=1 n=b5 v=51
229002 On ch=1 n=b5 v=0
229002 On ch=1 n=c#5 v=0
229102 On ch=1 n=d5 v=69
229102 On ch=1 n=b5 v=66
229167 On ch=1 n=d5 v=0
229187 On ch=1 n=b5 v=0
229247 On ch=1 n=d#5 v=64
229252 On ch=1 n=b5 v=51
229327 On ch=1 n=b5 v=0
229332 On ch=1 n=d#5 v=0
229422 On ch=1 n=e5 v=60
229427 On ch=1 n=b5 v=56
229507 On ch=1 n=e5 v=0
229517 On ch=1 n=b5 v=0
229557 On ch=1 n=g#3 v=51
229562 Par ch=1 c=64 v=56
229577 Par ch=1 c=64 v=0
229587 On ch=1 n=d4 v=66
229592 On ch=1 n=f5 v=65
229602 On ch=1 n=b5 v=58
229612 On ch=1 n=f4 v=69
229617 On ch=1 n=g#3 v=0
229647 On ch=1 n=b4 v=65
229652 Par ch=1 c=64 v=88
229667 Par ch=1 c=64 v=127
229672 On ch=1 n=f5 v=0
229707 On ch=1 n=b5 v=0
229777 On ch=1 n=f#5 v=71
229782 On ch=1 n=b5 v=61
229847 On ch=1 n=b5 v=0
229872 On ch=1 n=f#5 v=0
229942 On ch=1 n=g5 v=71
229947 On ch=1 n=b5 v=68
230007 On ch=1 n=b5 v=0
230027 On ch=1 n=g5 v=0
230102 On ch=1 n=g#5 v=62
230112 On ch=1 n=b5 v=69
230177 On ch=1 n=b5 v=0
230192 On ch=1 n=g#5 v=0
230252 On ch=1 n=b5 v=66
230267 On ch=1 n=a5 v=71
230282 On ch=1 n=b4 v=0
230337 On ch=1 n=a5 v=0
230347 On ch=1 n=f4 v=0
230357 On ch=1 n=b5 v=0
230392 On ch=1 n=b4 v=82
230452 On ch=1 n=b5 v=66
230472 On ch=1 n=b4 v=0
230492 On ch=1 n=a#5 v=30
230522 On ch=1 n=a#5 v=0
230532 On ch=1 n=b5 v=0
230542 On ch=1 n=d4 v=0
230582 On ch=1 n=b4 v=69
230612 Par ch=1 c=64 v=104
230627 Par ch=1 c=64 v=24
230637 On ch=1 n=b4 v=0
230642 Par ch=1 c=64 v=0
230667 On ch=1 n=b5 v=80
230672 On ch=1 n=d#4 v=49
230682 On ch=1 n=g#3 v=73
230702 Par ch=1 c=64 v=88
230717 Par ch=1 c=64 v=127
230737 On ch=1 n=g#3 v=0
230747 On ch=1 n=b4 v=63
230777 On ch=1 n=b5 v=0
230787 On ch=1 n=d#4 v=0
230837 On ch=1 n=b4 v=0
230837 On ch=1 n=b5 v=66
230837 On ch=1 n=c6 v=88
230907 On ch=1 n=b5 v=0
230932 On ch=1 n=c6 v=0
230992 On ch=1 n=c#6 v=72
230997 On ch=1 n=b5 v=46
231077 On ch=1 n=b5 v=0
231092 On ch=1 n=c#6 v=0
231172 On ch=1 n=d6 v=67
231172 On ch=1 n=b5 v=51
231227 On ch=1 n=b5 v=0
231232 On ch=1 n=d6 v=0
231332 On ch=1 n=d#6 v=76
231332 On ch=1 n=b5 v=57
231397 On ch=1 n=b5 v=0
231407 On ch=1 n=d#6 v=0
231487 On ch=1 n=e6 v=83
231497 On ch=1 n=b5 v=53
231572 On ch=1 n=b5 v=0
231587 On ch=1 n=e6 v=0
231602 On ch=1 n=g#2 v=73
231602 On ch=1 n=d#3 v=84
231642 On ch=1 n=d#3 v=0
231652 On ch=1 n=g#2 v=0
231682 On ch=1 n=f6 v=80
231687 On ch=1 n=b5 v=67
231712 On ch=1 n=d#3 v=73
231712 On ch=1 n=g#2 v=57
231762 On ch=1 n=b5 v=0
231777 On ch=1 n=f6 v=0
231782 On ch=1 n=g#2 v=0
231802 On ch=1 n=d#3 v=0
231857 On ch=1 n=f#6 v=77
231862 On ch=1 n=b5 v=60
231937 On ch=1 n=b5 v=0
231952 On ch=1 n=f#6 v=0
232012 On ch=1 n=g6 v=82
232027 On ch=1 n=b5 v=58
232087 On ch=1 n=b5 v=0
232097 On ch=1 n=g6 v=0
232167 On ch=1 n=g#6 v=78
232177 On ch=1 n=b5 v=64
232242 On ch=1 n=b5 v=0
232257 On ch=1 n=g#6 v=0
232322 On ch=1 n=a6 v=82
232337 On ch=1 n=b5 v=58
232377 On ch=1 n=b5 v=0
232397 On ch=1 n=a6 v=0
232487 On ch=1 n=a#6 v=86
232492 On ch=1 n=b5 v=75
232542 On ch=1 n=b5 v=0
232597 On ch=1 n=a#6 v=0
232597 Par ch=1 c=64 v=56
232612 Par ch=1 c=64 v=0
232622 On ch=1 n=g#4 v=60
232652 On ch=1 n=d5 v=62
232672 On ch=1 n=f5 v=63
232692 On ch=1 n=g#4 v=0
232722 On ch=1 n=b6 v=92
232722 Par ch=1 c=64 v=127
232747 On ch=1 n=b5 v=75
232817 On ch=1 n=b6 v=0
232902 On ch=1 n=b6 v=86
232902 On ch=1 n=c6 v=79
232957 On ch=1 n=c6 v=0
232977 On ch=1 n=b6 v=0
233052 On ch=1 n=b5 v=0
233062 On ch=1 n=c#6 v=71
233067 On ch=1 n=b6 v=83
233132 On ch=1 n=c#6 v=0
233142 On ch=1 n=b6 v=0
233152 On ch=1 n=f5 v=0
233182 On ch=1 n=d5 v=0
233232 On ch=1 n=d6 v=78
233232 On ch=1 n=b6 v=88
233287 On ch=1 n=d6 v=0
233302 On ch=1 n=b6 v=0
233382 On ch=1 n=b6 v=78
233382 On ch=1 n=d#6 v=84
233447 On ch=1 n=b6 v=0
233452 On ch=1 n=d#6 v=0
233537 On ch=1 n=e6 v=77
233542 On ch=1 n=b6 v=80
233632 On ch=1 n=b6 v=0
233632 On ch=1 n=e6 v=0
233632 On ch=1 n=g#3 v=56
233632 Par ch=1 c=64 v=104
233647 Par ch=1 c=64 v=56
233662 Par ch=1 c=64 v=0
233677 On ch=1 n=d4 v=64
233692 Par ch=1 c=64 v=24
233702 On ch=1 n=f4 v=53
233707 On ch=1 n=g#3 v=0
233707 Par ch=1 c=64 v=72
233717 Par ch=1 c=64 v=127
233722 On ch=1 n=f6 v=86
233722 On ch=1 n=b6 v=88
233742 On ch=1 n=b4 v=67
233777 On ch=1 n=f6 v=0
233807 On ch=1 n=b6 v=0
233892 On ch=1 n=f#6 v=85
233892 On ch=1 n=b6 v=92
233967 On ch=1 n=b6 v=0
233972 On ch=1 n=f#6 v=0
234047 On ch=1 n=g6 v=78
234052 On ch=1 n=b6 v=78
234117 On ch=1 n=b6 v=0
234127 On ch=1 n=g6 v=0
234212 On ch=1 n=b6 v=96
234232 On ch=1 n=g6 v=70
234257 On ch=1 n=g6 v=0
234287 On ch=1 n=b6 v=0
234292 On ch=1 n=b4 v=0
234357 On ch=1 n=f4 v=0
234357 On ch=1 n=b6 v=82
234367 On ch=1 n=a6 v=80
234432 On ch=1 n=b6 v=0
234442 On ch=1 n=a6 v=0
234447 On ch=1 n=b4 v=74
234517 On ch=1 n=d4 v=0
234532 On ch=1 n=b6 v=93
234542 On ch=1 n=a#6 v=77
234547 On ch=1 n=b4 v=0
234597 On ch=1 n=b6 v=0
234607 On ch=1 n=a#6 v=0
234647 On ch=1 n=g#3 v=65
234647 Par ch=1 c=64 v=72
234652 On ch=1 n=d#4 v=65
234662 Par ch=1 c=64 v=0
234722 On ch=1 n=g#3 v=0
234737 On ch=1 n=b4 v=72
234737 Par ch=1 c=64 v=72
234752 On ch=1 n=b6 v=88
234752 Par ch=1 c=64 v=127
234787 On ch=1 n=d#4 v=0
234797 On ch=1 n=b4 v=0
234827 On ch=1 n=b6 v=0
234917 On ch=1 n=c7 v=84
234917 On ch=1 n=b6 v=69
234987 On ch=1 n=b6 v=0
235002 On ch=1 n=c7 v=0
235072 On ch=1 n=c#7 v=77
235077 On ch=1 n=b6 v=66
235152 On ch=1 n=b6 v=0
235167 On ch=1 n=c#7 v=0
235237 On ch=1 n=d7 v=85
235242 On ch=1 n=b6 v=61
235287 On ch=1 n=b6 v=0
235287 On ch=1 n=d7 v=0
235392 On ch=1 n=d#7 v=85
235392 On ch=1 n=b6 v=73
235452 On ch=1 n=b6 v=0
235462 On ch=1 n=d#7 v=0
235537 On ch=1 n=e7 v=85
235542 On ch=1 n=b6 v=61
235607 On ch=1 n=d#3 v=82
235612 On ch=1 n=g#2 v=65
235617 On ch=1 n=b6 v=0
235642 On ch=1 n=e7 v=0
235647 On ch=1 n=g#2 v=0
235652 On ch=1 n=d#3 v=0
235717 On ch=1 n=f7 v=87
235717 On ch=1 n=b6 v=71
235732 On ch=1 n=d#3 v=86
235732 On ch=1 n=g#2 v=76
235742 Par ch=1 c=64 v=88
235757 Par ch=1 c=64 v=24
235772 Par ch=1 c=64 v=0
235802 On ch=1 n=b6 v=0
235817 Par ch=1 c=64 v=24
235822 On ch=1 n=f7 v=0
235827 Par ch=1 c=64 v=88
235847 Par ch=1 c=64 v=127
235897 On ch=1 n=f#7 v=81
235907 On ch=1 n=b6 v=69
235937 On ch=1 n=g#2 v=0
235972 On ch=1 n=b6 v=0
235972 On ch=1 n=d#3 v=0
235992 On ch=1 n=f#7 v=0
236067 On ch=1 n=g7 v=80
236072 On ch=1 n=b6 v=69
236137 On ch=1 n=b6 v=0
236142 On ch=1 n=g7 v=0
236217 On ch=1 n=g#7 v=82
236222 On ch=1 n=b6 v=64
236277 On ch=1 n=b6 v=0
236287 On ch=1 n=g#7 v=0
236367 On ch=1 n=a7 v=79
236387 On ch=1 n=b6 v=66
236417 On ch=1 n=b6 v=0
236432 On ch=1 n=a7 v=0
236542 On ch=1 n=a#7 v=86
236547 On ch=1 n=b6 v=75
236587 Par ch=1 c=64 v=104
236602 On ch=1 n=b6 v=0
236602 Par ch=1 c=64 v=0
236627 On ch=1 n=g#4 v=64
236652 On ch=1 n=a#7 v=0
236672 On ch=1 n=d5 v=68
236682 On ch=1 n=f5 v=62
236692 On ch=1 n=g#4 v=0
236722 Par ch=1 c=64 v=127
236747 On ch=1 n=b5 v=76
236767 On ch=1 n=b6 v=79
236767 On ch=1 n=b7 v=97
236817 On ch=1 n=b6 v=0
236847 On ch=1 n=b7 v=0
236927 On ch=1 n=b7 v=96
236932 On ch=1 n=c7 v=74
236987 On ch=1 n=c7 v=0
237002 On ch=1 n=b7 v=0
237087 On ch=1 n=c#7 v=77
237102 On ch=1 n=b7 v=94
237162 On ch=1 n=c#7 v=0
237167 On ch=1 n=b7 v=0
237252 On ch=1 n=b7 v=94
237257 On ch=1 n=d7 v=80
237312 On ch=1 n=d7 v=0
237327 On ch=1 n=b7 v=0
237327 On ch=1 n=b5 v=0
237332 On ch=1 n=f5 v=0
237372 On ch=1 n=d5 v=0
237407 On ch=1 n=d#7 v=83
237417 On ch=1 n=b7 v=87
237467 On ch=1 n=d#7 v=0
237472 On ch=1 n=b7 v=0
237567 On ch=1 n=b7 v=102
237567 On ch=1 n=e7 v=90
237617 On ch=1 n=e7 v=0
237637 On ch=1 n=b7 v=0
237682 On ch=1 n=g#3 v=59
237697 Par ch=1 c=64 v=40
237712 Par ch=1 c=64 v=0
237727 On ch=1 n=d4 v=68
237732 On ch=1 n=f4 v=64
237762 On ch=1 n=g#3 v=0
237772 Par ch=1 c=64 v=88
237777 On ch=1 n=b4 v=79
237787 Par ch=1 c=64 v=127
237932 On ch=1 n=b7 v=94
237932 On ch=1 n=e7 v=84
237932 On ch=1 n=d7 v=74
237992 On ch=1 n=e7 v=0
237997 On ch=1 n=d7 v=0
238012 On ch=1 n=b7 v=0
238102 On ch=1 n=f7 v=90
238102 On ch=1 n=d7 v=74
238107 On ch=1 n=b7 v=89
238157 On ch=1 n=f7 v=0
238172 On ch=1 n=b7 v=0
238172 On ch=1 n=d7 v=0
238242 On ch=1 n=d4 v=0
238272 On ch=1 n=b4 v=0
238277 On ch=1 n=f#7 v=85
238277 On ch=1 n=b7 v=92
238287 On ch=1 n=d7 v=75
238332 On ch=1 n=d7 v=0
238352 On ch=1 n=b7 v=0
238352 On ch=1 n=f#7 v=0
238437 On ch=1 n=b7 v=88
238437 On ch=1 n=g7 v=89
238442 On ch=1 n=d7 v=75
238447 On ch=1 n=f4 v=0
238497 On ch=1 n=g7 v=0
238512 On ch=1 n=d7 v=0
238537 On ch=1 n=b7 v=0
238547 On ch=1 n=b4 v=85
238607 On ch=1 n=b4 v=0
238652 On ch=1 n=b7 v=88
238652 On ch=1 n=d7 v=77
238657 On ch=1 n=g#7 v=71
238787 Par ch=1 c=64 v=56
238802 On ch=1 n=g3 v=57
238802 Par ch=1 c=64 v=0
238822 On ch=1 n=e4 v=70
238827 On ch=1 n=d7 v=0
238842 On ch=1 n=g#7 v=0
238862 Par ch=1 c=64 v=56
238872 On ch=1 n=g3 v=0
238872 On ch=1 n=b7 v=0
238882 Par ch=1 c=64 v=127
238897 On ch=1 n=g4 v=79
238907 On ch=1 n=e4 v=0
238937 On ch=1 n=g4 v=0
239007 On ch=1 n=c5 v=81
239132 On ch=1 n=e5 v=99
239167 On ch=1 n=c5 v=0
239182 On ch=1 n=e5 v=0
239342 On ch=1 n=e8 v=86
239352 On ch=1 n=c8 v=83
239352 On ch=1 n=g7 v=62
239397 On ch=1 n=g7 v=0
239432 On ch=1 n=c8 v=0
239472 On ch=1 n=e8 v=0
239557 On ch=1 n=d#8 v=87
239562 On ch=1 n=f#7 v=76
239577 On ch=1 n=b7 v=73
239627 On ch=1 n=b7 v=0
239647 On ch=1 n=f#7 v=0
239677 On ch=1 n=d#8 v=0
239742 On ch=1 n=d8 v=90
239757 On ch=1 n=f7 v=80
239757 On ch=1 n=a#7 v=70
239817 On ch=1 n=f7 v=0
239827 On ch=1 n=d8 v=0
239842 On ch=1 n=a#7 v=0
239907 On ch=1 n=c#8 v=82
239917 On ch=1 n=a7 v=90
239992 On ch=1 n=a7 v=0
240012 On ch=1 n=c#8 v=0
240077 On ch=1 n=c8 v=90
240077 On ch=1 n=d#7 v=77
240082 On ch=1 n=g#7 v=74
240147 On ch=1 n=d#7 v=0
240157 On ch=1 n=c8 v=0
240172 On ch=1 n=g#7 v=0
240247 On ch=1 n=b7 v=96
240257 On ch=1 n=g7 v=80
240257 On ch=1 n=d7 v=74
240262 On ch=1 n=g3 v=67
240272 On ch=1 n=g2 v=73
240302 On ch=1 n=d7 v=0
240307 On ch=1 n=g7 v=0
240327 On ch=1 n=g2 v=0
240332 On ch=1 n=b7 v=0
240372 On ch=1 n=g3 v=0
240417 On ch=1 n=c#7 v=69
240417 On ch=1 n=a#7 v=73
240422 On ch=1 n=f#7 v=62
240477 On ch=1 n=c#7 v=0
240482 On ch=1 n=f#7 v=0
240482 On ch=1 n=a#7 v=0
240572 On ch=1 n=a7 v=93
240577 On ch=1 n=f7 v=74
240582 On ch=1 n=c7 v=66
240617 On ch=1 n=c7 v=0
240622 On ch=1 n=f7 v=0
240667 On ch=1 n=a7 v=0
240757 On ch=1 n=e5 v=75
240762 On ch=1 n=g#7 v=77
240762 On ch=1 n=e7 v=74
240762 On ch=1 n=g4 v=62
240767 On ch=1 n=b6 v=74
240767 On ch=1 n=c5 v=66
240777 On ch=1 n=f#7 v=47
240807 On ch=1 n=f#7 v=0
240822 On ch=1 n=b6 v=0
240832 On ch=1 n=e7 v=0
240852 On ch=1 n=g#7 v=0
240927 On ch=1 n=g7 v=84
240937 On ch=1 n=a#6 v=68
240947 On ch=1 n=d#7 v=54
240972 On ch=1 n=d#7 v=0
241002 On ch=1 n=a#6 v=0
241012 On ch=1 n=g7 v=0
241072 On ch=1 n=g4 v=0
241087 On ch=1 n=f#7 v=85
241092 On ch=1 n=a6 v=72
241102 On ch=1 n=c5 v=0
241127 On ch=1 n=e5 v=0
241152 On ch=1 n=a6 v=0
241167 On ch=1 n=f#7 v=0
241277 Par ch=1 c=64 v=72
241292 Par ch=1 c=64 v=0
241297 On ch=1 n=f7 v=89
241307 On ch=1 n=g#6 v=77
241307 On ch=1 n=c#7 v=75
241312 On ch=1 n=f5 v=82
241312 On ch=1 n=c#5 v=71
241317 On ch=1 n=g#4 v=67
241367 Par ch=1 c=64 v=40
241382 Par ch=1 c=64 v=127
241397 On ch=1 n=g#6 v=0
241397 On ch=1 n=f7 v=0
241402 On ch=1 n=c#7 v=0
241482 On ch=1 n=e7 v=84
241492 On ch=1 n=g6 v=68
241497 On ch=1 n=c7 v=67
241542 On ch=1 n=c7 v=0
241547 On ch=1 n=g6 v=0
241557 On ch=1 n=e7 v=0
241647 On ch=1 n=d#7 v=79
241652 On ch=1 n=f#6 v=69
241657 On ch=1 n=b6 v=68
241682 On ch=1 n=b6 v=0
241712 On ch=1 n=f#6 v=0
241732 On ch=1 n=d#7 v=0
241797 On ch=1 n=d7 v=87
241807 On ch=1 n=f6 v=76
241827 On ch=1 n=a#6 v=47
241852 On ch=1 n=a#6 v=0
241867 On ch=1 n=f6 v=0
241872 On ch=1 n=d7 v=0
241887 On ch=1 n=f5 v=0
241922 On ch=1 n=c#5 v=0
241927 On ch=1 n=g#4 v=0
241957 On ch=1 n=c#7 v=83
241972 On ch=1 n=a#6 v=55
241972 On ch=1 n=e6 v=69
242007 On ch=1 n=e6 v=0
242012 On ch=1 n=a#6 v=0
242037 On ch=1 n=c#7 v=0
242112 On ch=1 n=c7 v=90
242122 On ch=1 n=e6 v=68
242162 On ch=1 n=e6 v=0
242172 On ch=1 n=c7 v=0
242222 On ch=1 n=g3 v=69
242232 Par ch=1 c=64 v=104
242247 Par ch=1 c=64 v=24
242262 On ch=1 n=d4 v=62
242262 Par ch=1 c=64 v=0
242272 On ch=1 n=f4 v=67
242277 On ch=1 n=g3 v=0
242322 Par ch=1 c=64 v=88
242327 On ch=1 n=b4 v=80
242337 Par ch=1 c=64 v=127
242457 On ch=1 n=b6 v=85
242467 On ch=1 n=d6 v=66
242472 On ch=1 n=g6 v=67
242527 On ch=1 n=d6 v=0
242542 On ch=1 n=g6 v=0
242542 On ch=1 n=b6 v=0
242642 On ch=1 n=a#6 v=72
242647 On ch=1 n=f#6 v=64
242652 On ch=1 n=c#6 v=63
242697 On ch=1 n=c#6 v=0
242712 On ch=1 n=f#6 v=0
242717 On ch=1 n=a#6 v=0
242792 On ch=1 n=a6 v=80
242807 On ch=1 n=c6 v=64
242827 On ch=1 n=f6 v=37
242847 On ch=1 n=c6 v=0
242857 On ch=1 n=f6 v=0
242872 On ch=1 n=a6 v=0
242907 On ch=1 n=b4 v=0
242927 On ch=1 n=f4 v=0
242947 On ch=1 n=d4 v=0
242962 On ch=1 n=g#6 v=84
242962 On ch=1 n=b5 v=69
242967 On ch=1 n=d6 v=67
242997 On ch=1 n=d6 v=0
243027 On ch=1 n=b5 v=0
243047 On ch=1 n=d4 v=77
243047 On ch=1 n=b4 v=82
243052 On ch=1 n=g#6 v=0
243052 On ch=1 n=f4 v=64
243082 On ch=1 n=f4 v=0
243092 On ch=1 n=d4 v=0
243127 On ch=1 n=b4 v=0
243152 On ch=1 n=g6 v=88
243157 On ch=1 n=b5 v=60
243187 On ch=1 n=b5 v=0
243222 On ch=1 n=g6 v=0
243362 On ch=1 n=c5 v=87
243367 On ch=1 n=e5 v=92
243377 On ch=1 n=g4 v=78
243397 Par ch=1 c=64 v=104
243417 Par ch=1 c=64 v=0
243562 On ch=1 n=e7 v=82
243562 Par ch=1 c=64 v=72
243577 On ch=1 n=g6 v=63
243582 Par ch=1 c=64 v=127
243587 On ch=1 n=c7 v=68
243637 On ch=1 n=g6 v=0
243657 On ch=1 n=c7 v=0
243667 On ch=1 n=e7 v=0
243752 On ch=1 n=d#7 v=76
243752 On ch=1 n=f#6 v=67
243762 On ch=1 n=b6 v=72
243812 On ch=1 n=f#6 v=0
243822 On ch=1 n=b6 v=0
243847 On ch=1 n=d#7 v=0
243922 On ch=1 n=d7 v=83
243937 On ch=1 n=f6 v=64
243942 On ch=1 n=a#6 v=58
243957 On ch=1 n=e5 v=0
243977 On ch=1 n=f6 v=0
243982 On ch=1 n=c5 v=0
244002 On ch=1 n=d7 v=0
244002 On ch=1 n=g4 v=0
244007 On ch=1 n=a#6 v=0
244082 On ch=1 n=c#7 v=74
244092 On ch=1 n=a6 v=74
244097 On ch=1 n=e6 v=66
244132 On ch=1 n=e6 v=0
244162 On ch=1 n=a6 v=0
244182 On ch=1 n=c#7 v=0
244242 On ch=1 n=c7 v=87
244252 On ch=1 n=d#6 v=65
244267 On ch=1 n=g#6 v=51
244312 On ch=1 n=d#6 v=0
244327 On ch=1 n=c7 v=0
244342 On ch=1 n=g#6 v=0
244417 On ch=1 n=b6 v=88
244427 On ch=1 n=d6 v=62
244427 On ch=1 n=g6 v=71
244432 On ch=1 n=g3 v=68
244437 On ch=1 n=g2 v=74
244452 On ch=1 n=d6 v=0
244462 On ch=1 n=g6 v=0
244487 On ch=1 n=b6 v=0
244582 On ch=1 n=g2 v=0
244582 On ch=1 n=a#6 v=73
244587 On ch=1 n=c#6 v=71
244597 On ch=1 n=f#6 v=46
244627 On ch=1 n=f#6 v=0
244642 On ch=1 n=c#6 v=0
244652 On ch=1 n=g3 v=0
244662 On ch=1 n=a#6 v=0
244732 On ch=1 n=a6 v=83
244742 On ch=1 n=c6 v=68
244752 On ch=1 n=f6 v=72
244772 On ch=1 n=f6 v=0
244782 On ch=1 n=c6 v=0
244807 On ch=1 n=a6 v=0
244927 On ch=1 n=g#6 v=77
244932 On ch=1 n=e5 v=84
244932 On ch=1 n=c5 v=70
244937 On ch=1 n=e6 v=70
244942 On ch=1 n=b5 v=40
244947 On ch=1 n=g4 v=70
244982 On ch=1 n=b5 v=0
244997 On ch=1 n=e6 v=0
245017 On ch=1 n=g#6 v=0
245092 On ch=1 n=g6 v=90
245097 On ch=1 n=a#5 v=71
245167 On ch=1 n=a#5 v=0
245172 On ch=1 n=g6 v=0
245262 On ch=1 n=f#6 v=85
245272 On ch=1 n=a5 v=71
245287 On ch=1 n=g4 v=0
245307 On ch=1 n=a5 v=0
245317 On ch=1 n=c5 v=0
245337 On ch=1 n=f#6 v=0
245352 On ch=1 n=e5 v=0
245507 On ch=1 n=f6 v=96
245512 On ch=1 n=g#5 v=67
245512 On ch=1 n=f5 v=76
245512 On ch=1 n=c#5 v=67
245522 On ch=1 n=c#6 v=62
245522 On ch=1 n=g#4 v=57
245542 Par ch=1 c=64 v=24
245557 Par ch=1 c=64 v=0
245567 Par ch=1 c=64 v=56
245582 Par ch=1 c=64 v=88
245592 Par ch=1 c=64 v=104
245612 Par ch=1 c=64 v=127
245627 On ch=1 n=c#6 v=0
245637 On ch=1 n=g#5 v=0
245667 On ch=1 n=f6 v=0
245672 On ch=1 n=e6 v=82
245697 On ch=1 n=c6 v=55
245732 On ch=1 n=c6 v=0
245747 On ch=1 n=g#4 v=0
245747 On ch=1 n=c#5 v=0
245747 On ch=1 n=f5 v=0
245787 On ch=1 n=e6 v=0
245822 On ch=1 n=d#6 v=73
245842 On ch=1 n=b5 v=62
245922 On ch=1 n=d#6 v=0
245937 On ch=1 n=b5 v=0
245987 On ch=1 n=d6 v=75
246007 On ch=1 n=a#5 v=64
246102 On ch=1 n=d6 v=0
246112 On ch=1 n=a#5 v=0
246142 Par ch=1 c=64 v=104
246152 On ch=1 n=c#6 v=76
246157 Par ch=1 c=64 v=72
246162 On ch=1 n=e5 v=64
246162 On ch=1 n=a5 v=72
246172 Par ch=1 c=64 v=56
246187 Par ch=1 c=64 v=40
246212 Par ch=1 c=64 v=24
246242 Par ch=1 c=64 v=0
246292 On ch=1 n=a5 v=0
246302 On ch=1 n=e5 v=0
246302 On ch=1 n=c#6 v=0
246312 On ch=1 n=d#5 v=61
246317 On ch=1 n=c6 v=80
246327 On ch=1 n=g#5 v=64
246432 On ch=1 n=c6 v=0
246457 On ch=1 n=d#5 v=0
246462 On ch=1 n=g#5 v=0
246472 On ch=1 n=b5 v=72
246477 On ch=1 n=d5 v=73
246482 On ch=1 n=g5 v=67
246567 On ch=1 n=g5 v=0
246607 On ch=1 n=b5 v=0
246612 On ch=1 n=d5 v=0
246627 On ch=1 n=c#5 v=62
246632 On ch=1 n=a#5 v=67
246637 On ch=1 n=f#5 v=50
246757 On ch=1 n=f#5 v=0
246762 On ch=1 n=a#5 v=0
246772 On ch=1 n=c#5 v=0
246787 On ch=1 n=a5 v=70
246792 On ch=1 n=c5 v=70
246797 On ch=1 n=f5 v=58
246867 On ch=1 n=f5 v=0
246922 On ch=1 n=a5 v=0
246927 On ch=1 n=c5 v=0
246957 On ch=1 n=b4 v=66
246957 On ch=1 n=e5 v=68
246962 On ch=1 n=g#5 v=71
247057 On ch=1 n=e5 v=0
247077 On ch=1 n=g#5 v=0
247102 On ch=1 n=b4 v=0
247117 On ch=1 n=a#4 v=64
247122 On ch=1 n=g5 v=82
247137 On ch=1 n=d#5 v=61
247222 On ch=1 n=g5 v=0
247252 On ch=1 n=d#5 v=0
247252 On ch=1 n=a#4 v=0
247272 On ch=1 n=f#5 v=68
247272 On ch=1 n=a4 v=69
247282 On ch=1 n=d5 v=67
247372 On ch=1 n=d5 v=0
247387 On ch=1 n=f#5 v=0
247392 On ch=1 n=a4 v=0
247417 On ch=1 n=g#4 v=65
247417 On ch=1 n=f5 v=73
247437 On ch=1 n=c#5 v=63
247517 On ch=1 n=c#5 v=0
247547 On ch=1 n=f5 v=0
247547 On ch=1 n=g#4 v=0
247577 On ch=1 n=e5 v=74
247577 On ch=1 n=g4 v=63
247587 On ch=1 n=c5 v=62
247657 On ch=1 n=c5 v=0
247692 On ch=1 n=g4 v=0
247712 On ch=1 n=e5 v=0
247727 On ch=1 n=d#5 v=70
247727 On ch=1 n=f#4 v=58
247742 On ch=1 n=b4 v=66
247832 On ch=1 n=d#5 v=0
247842 On ch=1 n=b4 v=0
247877 On ch=1 n=f#4 v=0
247892 On ch=1 n=d5 v=85
247902 On ch=1 n=f4 v=68
247902 On ch=1 n=a#4 v=63
247992 On ch=1 n=d5 v=0
248027 On ch=1 n=a#4 v=0
248042 On ch=1 n=f4 v=0
248052 On ch=1 n=c#5 v=70
248057 On ch=1 n=a4 v=63
248062 On ch=1 n=e4 v=68
248147 On ch=1 n=a4 v=0
248172 On ch=1 n=c#5 v=0
248192 On ch=1 n=e4 v=0
248207 On ch=1 n=c5 v=79
248217 On ch=1 n=d#4 v=61
248222 On ch=1 n=g#4 v=58
248322 On ch=1 n=c5 v=0
248337 On ch=1 n=d#4 v=0
248342 On ch=1 n=g#4 v=0
248367 On ch=1 n=b4 v=70
248372 On ch=1 n=d4 v=74
248382 On ch=1 n=g4 v=62
248452 On ch=1 n=g4 v=0
248487 On ch=1 n=d4 v=0
248507 On ch=1 n=b4 v=0
248527 On ch=1 n=c#4 v=67
248527 On ch=1 n=a#4 v=62
248552 On ch=1 n=f4 v=44
248597 On ch=1 n=f4 v=0
248652 On ch=1 n=a#4 v=0
248652 On ch=1 n=c#4 v=0
248687 On ch=1 n=c4 v=68
248692 On ch=1 n=a4 v=85
248712 On ch=1 n=f4 v=51
248782 On ch=1 n=f4 v=0
248792 On ch=1 n=a4 v=0
248817 On ch=1 n=c4 v=0
248842 On ch=1 n=g#4 v=65
248852 On ch=1 n=b3 v=70
248892 On ch=1 n=e4 v=39
248927 On ch=1 n=e4 v=0
248947 On ch=1 n=g#4 v=0
248982 On ch=1 n=b3 v=0
248997 On ch=1 n=g4 v=74
249007 On ch=1 n=a#3 v=63
249077 On ch=1 n=g4 v=0
249132 On ch=1 n=a#3 v=0
249142 On ch=1 n=f#4 v=73
249157 On ch=1 n=a3 v=77
249187 Par ch=1 c=64 v=24
249247 Par ch=1 c=64 v=40
249257 On ch=1 n=f#4 v=0
249292 On ch=1 n=a3 v=0
249307 On ch=1 n=f4 v=77
249307 On ch=1 n=c#4 v=70
249312 On ch=1 n=g#3 v=61
249347 Par ch=1 c=64 v=0
249407 On ch=1 n=f4 v=0
249432 On ch=1 n=c#4 v=0
249457 On ch=1 n=g#3 v=0
249457 On ch=1 n=e4 v=76
249472 On ch=1 n=c4 v=66
249477 On ch=1 n=g3 v=68
249527 On ch=1 n=c4 v=0
249582 On ch=1 n=e4 v=0
249592 On ch=1 n=g3 v=0
249617 On ch=1 n=d#4 v=71
249627 On ch=1 n=f#3 v=61
249632 On ch=1 n=b3 v=62
249712 On ch=1 n=d#4 v=0
249717 On ch=1 n=b3 v=0
249757 On ch=1 n=f#3 v=0
249777 On ch=1 n=d4 v=83
249787 On ch=1 n=f3 v=70
249802 On ch=1 n=a#3 v=46
249862 On ch=1 n=d4 v=0
249897 On ch=1 n=a#3 v=0
249912 On ch=1 n=f3 v=0
249932 On ch=1 n=e3 v=63
249932 On ch=1 n=c#4 v=71
249942 On ch=1 n=a3 v=69
250012 On ch=1 n=a3 v=0
250027 On ch=1 n=c#4 v=0
250067 On ch=1 n=e3 v=0
250087 On ch=1 n=c4 v=81
250087 On ch=1 n=d#3 v=59
250102 On ch=1 n=g#3 v=60
250167 On ch=1 n=c4 v=0
250197 On ch=1 n=g#3 v=0
250217 On ch=1 n=d#3 v=0
250242 On ch=1 n=b3 v=66
250247 On ch=1 n=d3 v=63
250252 On ch=1 n=g3 v=59
250322 On ch=1 n=g3 v=0
250337 Par ch=1 c=64 v=24
250342 On ch=1 n=b3 v=0
250362 On ch=1 n=d3 v=0
250382 Par ch=1 c=64 v=40
250392 On ch=1 n=a#3 v=74
250392 On ch=1 n=c#3 v=62
250407 On ch=1 n=f#3 v=48
250427 Par ch=1 c=64 v=56
250487 On ch=1 n=f#3 v=0
250492 On ch=1 n=a#3 v=0
250527 On ch=1 n=c#3 v=0
250552 On ch=1 n=c3 v=68
250557 On ch=1 n=a3 v=78
250567 On ch=1 n=f3 v=60
250632 On ch=1 n=a3 v=0
250652 On ch=1 n=f3 v=0
250677 On ch=1 n=c3 v=0
250697 Par ch=1 c=64 v=24
250712 On ch=1 n=g#3 v=69
250712 On ch=1 n=b2 v=63
250712 Par ch=1 c=64 v=0
250797 Par ch=1 c=64 v=24
250802 On ch=1 n=g#3 v=0
250822 On ch=1 n=b2 v=0
250827 Par ch=1 c=64 v=40
250842 Par ch=1 c=64 v=56
250852 On ch=1 n=a#2 v=60
250857 On ch=1 n=g3 v=85
250942 On ch=1 n=g3 v=0
250972 On ch=1 n=a#2 v=0
251002 On ch=1 n=a2 v=64
251002 On ch=1 n=f#3 v=73
251072 Par ch=1 c=64 v=72
251102 On ch=1 n=f#3 v=0
251122 On ch=1 n=a2 v=0
251182 On ch=1 n=f3 v=78
251187 On ch=1 n=c#3 v=49
251187 On ch=1 n=g#2 v=52
251282 On ch=1 n=c#3 v=0
251297 On ch=1 n=f3 v=0
251337 On ch=1 n=g#2 v=0
251337 On ch=1 n=a2 v=60
251337 On ch=1 n=f#3 v=64
251342 On ch=1 n=d3 v=63
251442 On ch=1 n=d3 v=0
251447 On ch=1 n=f#3 v=0
251472 On ch=1 n=a2 v=0
251477 On ch=1 n=a#2 v=58
251477 On ch=1 n=g3 v=66
251477 On ch=1 n=d#3 v=57
251602 On ch=1 n=d#3 v=0
251622 On ch=1 n=g3 v=0
251622 On ch=1 n=g#3 v=71
251627 On ch=1 n=a#2 v=0
251627 On ch=1 n=e3 v=58
251632 On ch=1 n=b2 v=63
251742 On ch=1 n=g#3 v=0
251757 On ch=1 n=e3 v=0
251762 On ch=1 n=b2 v=0
251762 On ch=1 n=g3 v=59
251762 On ch=1 n=a#2 v=53
251762 On ch=1 n=d#3 v=47
251852 On ch=1 n=d#3 v=0
251867 On ch=1 n=g3 v=0
251872 On ch=1 n=a#2 v=0
251897 On ch=1 n=f#3 v=62
251897 On ch=1 n=d3 v=44
251897 On ch=1 n=a2 v=41
251937 On ch=1 n=d3 v=0
252032 On ch=1 n=f#3 v=0
252037 On ch=1 n=f3 v=75
252042 On ch=1 n=c#3 v=49
252047 On ch=1 n=g#2 v=61
252052 On ch=1 n=a2 v=0
252137 On ch=1 n=c#3 v=0
252152 On ch=1 n=f3 v=0
252177 On ch=1 n=g#2 v=0
252177 On ch=1 n=f#3 v=69
252182 On ch=1 n=d3 v=64
252182 On ch=1 n=a2 v=63
252282 On ch=1 n=d3 v=0
252287 On ch=1 n=f#3 v=0
252302 On ch=1 n=a2 v=0
252307 On ch=1 n=g3 v=71
252307 On ch=1 n=a#2 v=62
252307 On ch=1 n=d#3 v=65
252442 On ch=1 n=d#3 v=0
252452 On ch=1 n=g#3 v=77
252457 On ch=1 n=a#2 v=0
252462 On ch=1 n=g3 v=0
252462 On ch=1 n=e3 v=63
252462 On ch=1 n=b2 v=73
252582 On ch=1 n=g#3 v=0
252597 On ch=1 n=g3 v=66
252602 On ch=1 n=b2 v=0
252602 On ch=1 n=e3 v=0
252602 On ch=1 n=a#2 v=58
252607 On ch=1 n=d#3 v=51
252702 On ch=1 n=d#3 v=0
252722 On ch=1 n=a#2 v=0
252722 On ch=1 n=g3 v=0
252732 On ch=1 n=f#3 v=64
252742 On ch=1 n=a2 v=41
252757 On ch=1 n=d3 v=28
252832 On ch=1 n=f#3 v=0
252847 On ch=1 n=d3 v=0
252872 On ch=1 n=a2 v=0
252872 On ch=1 n=g#2 v=52
252877 On ch=1 n=c#3 v=42
252877 On ch=1 n=f3 v=61
252942 On ch=1 n=c#3 v=0
252982 On ch=1 n=f3 v=0
253002 On ch=1 n=g#2 v=0
253002 On ch=1 n=f#3 v=64
253002 On ch=1 n=a2 v=71
253007 On ch=1 n=d3 v=53
253097 On ch=1 n=d3 v=0
253097 On ch=1 n=f#3 v=0
253137 On ch=1 n=a2 v=0
253137 On ch=1 n=d#3 v=65
253137 On ch=1 n=a#2 v=69
253137 On ch=1 n=g3 v=82
253267 On ch=1 n=d#3 v=0
253277 On ch=1 n=g#3 v=82
253282 On ch=1 n=e3 v=69
253287 On ch=1 n=g3 v=0
253287 On ch=1 n=a#2 v=0
253287 On ch=1 n=b2 v=77
253387 On ch=1 n=g#3 v=0
253407 On ch=1 n=e3 v=0
253417 On ch=1 n=a#2 v=60
253417 On ch=1 n=g3 v=72
253422 On ch=1 n=b2 v=0
253422 On ch=1 n=d#3 v=46
253517 On ch=1 n=d#3 v=0
253517 On ch=1 n=g3 v=0
253542 On ch=1 n=a#2 v=0
253552 On ch=1 n=f#3 v=64
253552 On ch=1 n=a2 v=59
253657 On ch=1 n=f#3 v=0
253682 On ch=1 n=f3 v=74
253682 On ch=1 n=g#2 v=58
253687 On ch=1 n=a2 v=0
253687 On ch=1 n=c#3 v=46
253787 On ch=1 n=c#3 v=0
253797 On ch=1 n=f3 v=0
253817 On ch=1 n=f#3 v=67
253822 On ch=1 n=g#2 v=0
253822 On ch=1 n=a2 v=63
253827 On ch=1 n=d3 v=64
253917 On ch=1 n=d3 v=0
253937 On ch=1 n=f#3 v=0
253947 On ch=1 n=a2 v=0
253952 On ch=1 n=a#2 v=58
253952 On ch=1 n=d#3 v=60
253952 On ch=1 n=g3 v=70
254092 On ch=1 n=d#3 v=0
254092 On ch=1 n=a#2 v=0
254092 On ch=1 n=g#3 v=70
254097 On ch=1 n=b2 v=58
254102 On ch=1 n=g3 v=0
254112 On ch=1 n=e3 v=39
254142 On ch=1 n=e3 v=0
254247 On ch=1 n=g#3 v=0
254252 On ch=1 n=f3 v=70
254252 On ch=1 n=g#2 v=48
254257 On ch=1 n=b2 v=0
254397 On ch=1 n=g#2 v=0
254397 On ch=1 n=f3 v=0
254407 On ch=1 n=g3 v=74
254632 On ch=1 n=c5 v=79
254642 On ch=1 n=g3 v=0
254642 On ch=1 n=c4 v=63
254802 On ch=1 n=g4 v=55
254812 On ch=1 n=e4 v=49
254837 On ch=1 n=c4 v=0
254847 Par ch=1 c=64 v=40
254862 Par ch=1 c=64 v=88
254872 Par ch=1 c=64 v=127
254927 On ch=1 n=c5 v=0
254957 On ch=1 n=c3 v=62
254962 On ch=1 n=e4 v=0
254987 On ch=1 n=g4 v=0
254997 On ch=1 n=c3 v=0
255102 On ch=1 n=c#5 v=69
255112 On ch=1 n=c#4 v=54
255177 Par ch=1 c=64 v=104
255187 Par ch=1 c=64 v=24
255202 Par ch=1 c=64 v=0
255217 On ch=1 n=g#4 v=54
255242 On ch=1 n=f4 v=45
255287 Par ch=1 c=64 v=88
255302 Par ch=1 c=64 v=127
255317 On ch=1 n=c#4 v=0
255362 On ch=1 n=b3 v=44
255372 On ch=1 n=b2 v=28
255392 On ch=1 n=c#5 v=0
255402 On ch=1 n=b3 v=0
255407 On ch=1 n=b2 v=0
255417 On ch=1 n=f4 v=0
255442 On ch=1 n=g#4 v=0
255512 On ch=1 n=d5 v=69
255517 On ch=1 n=d4 v=62
255567 Par ch=1 c=64 v=24
255577 Par ch=1 c=64 v=0
255647 On ch=1 n=g#4 v=53
255667 On ch=1 n=f4 v=39
255677 Par ch=1 c=64 v=127
255732 On ch=1 n=d4 v=0
255737 On ch=1 n=f4 v=0
255757 On ch=1 n=d5 v=0
255777 On ch=1 n=g#4 v=0
255787 On ch=1 n=a#3 v=68
255787 On ch=1 n=a#2 v=56
255827 On ch=1 n=a#3 v=0
255842 On ch=1 n=a#2 v=0
255947 On ch=1 n=d#5 v=70
255952 On ch=1 n=d#4 v=62
256032 Par ch=1 c=64 v=88
256047 Par ch=1 c=64 v=0
256077 On ch=1 n=a#4 v=54
256087 On ch=1 n=g4 v=47
256132 Par ch=1 c=64 v=72
256147 On ch=1 n=g4 v=0
256147 Par ch=1 c=64 v=127
256167 On ch=1 n=d#4 v=0
256197 On ch=1 n=a#4 v=0
256207 On ch=1 n=d#2 v=56
256212 On ch=1 n=d#3 v=62
256232 On ch=1 n=d#2 v=0
256242 On ch=1 n=d#3 v=0
256267 On ch=1 n=d#5 v=0
256372 On ch=1 n=e5 v=80
256372 On ch=1 n=e4 v=66
256447 Par ch=1 c=64 v=56
256457 Par ch=1 c=64 v=0
256487 On ch=1 n=b4 v=58
256487 On ch=1 n=g#4 v=44
256547 Par ch=1 c=64 v=127
256587 On ch=1 n=e4 v=0
256612 On ch=1 n=e5 v=0
256632 On ch=1 n=d4 v=68
256637 On ch=1 n=d3 v=53
256662 On ch=1 n=b4 v=0
256667 On ch=1 n=d3 v=0
256682 On ch=1 n=d4 v=0
256702 On ch=1 n=g#4 v=0
256782 On ch=1 n=f5 v=82
256792 On ch=1 n=f4 v=70
256872 Par ch=1 c=64 v=56
256887 Par ch=1 c=64 v=0
256912 On ch=1 n=b4 v=58
256922 On ch=1 n=g#4 v=42
256952 Par ch=1 c=64 v=88
256962 Par ch=1 c=64 v=127
256997 On ch=1 n=f4 v=0
257022 On ch=1 n=g#4 v=0
257042 On ch=1 n=b4 v=0
257047 On ch=1 n=f5 v=0
257052 On ch=1 n=c#4 v=68
257052 On ch=1 n=c#3 v=46
257092 On ch=1 n=c#4 v=0
257102 On ch=1 n=c#3 v=0
257202 On ch=1 n=f#5 v=74
257207 On ch=1 n=f#4 v=62
257317 Par ch=1 c=64 v=104
257327 On ch=1 n=a#4 v=48
257327 Par ch=1 c=64 v=0
257332 On ch=1 n=c#5 v=57
257417 Par ch=1 c=64 v=104
257427 Par ch=1 c=64 v=127
257447 On ch=1 n=f#3 v=62
257452 On ch=1 n=f#2 v=45
257462 On ch=1 n=f#4 v=0
257467 On ch=1 n=c#5 v=0
257477 On ch=1 n=f#2 v=0
257477 On ch=1 n=f#3 v=0
257502 On ch=1 n=a#4 v=0
257517 On ch=1 n=f#5 v=0
257592 On ch=1 n=g5 v=82
257597 On ch=1 n=g4 v=69
257707 Par ch=1 c=64 v=40
257717 Par ch=1 c=64 v=0
257722 On ch=1 n=d5 v=62
257732 On ch=1 n=b4 v=45
257742 Par ch=1 c=64 v=40
257757 Par ch=1 c=64 v=104
257767 Par ch=1 c=64 v=127
257782 On ch=1 n=g4 v=0
257817 On ch=1 n=g5 v=0
257867 On ch=1 n=f3 v=71
257877 On ch=1 n=f2 v=50
257892 On ch=1 n=f3 v=0
257907 On ch=1 n=f2 v=0
257912 On ch=1 n=b4 v=0
257927 On ch=1 n=d5 v=0
258012 On ch=1 n=g#5 v=79
258012 On ch=1 n=g#4 v=75
258082 Par ch=1 c=64 v=104
258097 Par ch=1 c=64 v=24
258107 Par ch=1 c=64 v=0
258132 On ch=1 n=d5 v=64
258147 On ch=1 n=b4 v=43
258147 Par ch=1 c=64 v=72
258157 Par ch=1 c=64 v=127
258202 On ch=1 n=b4 v=0
258212 On ch=1 n=d5 v=0
258247 On ch=1 n=g#5 v=0
258252 On ch=1 n=e3 v=73
258257 On ch=1 n=g#4 v=0
258257 On ch=1 n=e2 v=58
258287 On ch=1 n=e2 v=0
258292 On ch=1 n=e3 v=0
258397 On ch=1 n=a5 v=86
258407 On ch=1 n=a4 v=71
258462 Par ch=1 c=64 v=104
258472 Par ch=1 c=64 v=0
258517 On ch=1 n=e5 v=63
258522 Par ch=1 c=64 v=72
258527 On ch=1 n=c#5 v=42
258537 Par ch=1 c=64 v=127
258572 On ch=1 n=a4 v=0
258587 On ch=1 n=a5 v=0
258617 On ch=1 n=c#5 v=0
258622 On ch=1 n=e5 v=0
258632 On ch=1 n=a3 v=84
258637 On ch=1 n=a2 v=63
258662 On ch=1 n=a2 v=0
258677 On ch=1 n=a3 v=0
258797 On ch=1 n=a#5 v=85
258802 On ch=1 n=a#4 v=75
258852 Par ch=1 c=64 v=104
258862 Par ch=1 c=64 v=0
258912 Par ch=1 c=64 v=72
258927 On ch=1 n=f5 v=71
258927 Par ch=1 c=64 v=127
258932 On ch=1 n=d5 v=68
259017 On ch=1 n=d5 v=0
259027 On ch=1 n=f5 v=0
259042 On ch=1 n=a#4 v=0
259057 On ch=1 n=a3 v=92
259057 On ch=1 n=a2 v=71
259067 On ch=1 n=a#5 v=0
259087 On ch=1 n=a2 v=0
259097 On ch=1 n=a3 v=0
259187 On ch=1 n=b5 v=90
259192 On ch=1 n=b4 v=79
259242 Par ch=1 c=64 v=56
259252 Par ch=1 c=64 v=72
259267 Par ch=1 c=64 v=127
259307 On ch=1 n=f#5 v=73
259312 On ch=1 n=d#5 v=65
259357 On ch=1 n=b4 v=0
259392 On ch=1 n=b5 v=0
259427 On ch=1 n=a3 v=93
259432 On ch=1 n=a2 v=74
259437 On ch=1 n=f#5 v=0
259462 On ch=1 n=a2 v=0
259472 On ch=1 n=a3 v=0
259482 On ch=1 n=d#5 v=0
259562 On ch=1 n=c6 v=97
259567 On ch=1 n=c5 v=92
259607 Par ch=1 c=64 v=24
259617 Par ch=1 c=64 v=0
259652 Par ch=1 c=64 v=88
259667 Par ch=1 c=64 v=127
259672 On ch=1 n=g5 v=70
259687 On ch=1 n=e5 v=66
259752 On ch=1 n=c6 v=0
259782 On ch=1 n=c5 v=0
259787 On ch=1 n=a2 v=63
259787 On ch=1 n=a3 v=80
259807 On ch=1 n=a2 v=0
259822 On ch=1 n=e5 v=0
259827 On ch=1 n=a3 v=0
259837 On ch=1 n=g5 v=0
260037 On ch=1 n=c#6 v=100
260042 On ch=1 n=c#5 v=87
260047 Par ch=1 c=64 v=72
260057 On ch=1 n=g4 v=93
260057 On ch=1 n=a3 v=84
260062 On ch=1 n=e4 v=86
260062 Par ch=1 c=64 v=0
260117 On ch=1 n=a3 v=0
260122 On ch=1 n=c#5 v=0
260122 Par ch=1 c=64 v=127
260132 On ch=1 n=g4 v=0
260137 On ch=1 n=e4 v=0
260182 On ch=1 n=c#6 v=0
260592 On ch=1 n=a#6 v=105
260597 On ch=1 n=a#5 v=91
260602 On ch=1 n=a#4 v=89
260612 On ch=1 n=a#3 v=85
260727 Par ch=1 c=64 v=104
260737 Par ch=1 c=64 v=40
260752 Par ch=1 c=64 v=0
260977 Par ch=1 c=64 v=127
261057 On ch=1 n=a#3 v=0
261072 On ch=1 n=a#5 v=0
261082 On ch=1 n=a#4 v=0
261087 On ch=1 n=a#6 v=0
261317 On ch=1 n=a6 v=99
261317 On ch=1 n=a5 v=93
261327 On ch=1 n=a4 v=84
261327 On ch=1 n=a3 v=85
261327 Par ch=1 c=64 v=40
261342 Par ch=1 c=64 v=0
261392 On ch=1 n=a3 v=0
261392 Par ch=1 c=64 v=72
261407 On ch=1 n=a4 v=0
261407 Par ch=1 c=64 v=127
261427 On ch=1 n=a6 v=0
261437 On ch=1 n=a5 v=0
261592 Par ch=1 c=64 v=88
261607 On ch=1 n=g6 v=100
261607 On ch=1 n=g5 v=88
261607 Par ch=1 c=64 v=0
261612 On ch=1 n=g4 v=81
261617 On ch=1 n=g3 v=72
261642 Par ch=1 c=64 v=127
261672 On ch=1 n=g3 v=0
261682 On ch=1 n=g4 v=0
261702 On ch=1 n=g5 v=0
261707 On ch=1 n=g6 v=0
261837 On ch=1 n=f6 v=93
261837 On ch=1 n=f5 v=82
261842 On ch=1 n=f4 v=74
261847 On ch=1 n=f3 v=68
261892 On ch=1 n=f4 v=0
261902 On ch=1 n=f3 v=0
261907 On ch=1 n=f5 v=0
261917 On ch=1 n=f6 v=0
262022 On ch=1 n=e6 v=94
262027 On ch=1 n=e5 v=80
262032 On ch=1 n=e4 v=72
262037 On ch=1 n=e3 v=64
262077 On ch=1 n=e3 v=0
262082 On ch=1 n=e4 v=0
262082 On ch=1 n=e5 v=0
262097 On ch=1 n=e6 v=0
262212 On ch=1 n=d6 v=82
262212 On ch=1 n=d4 v=75
262217 On ch=1 n=d5 v=61
262222 On ch=1 n=d3 v=60
262252 On ch=1 n=d3 v=0
262252 On ch=1 n=d5 v=0
262262 On ch=1 n=d4 v=0
262277 On ch=1 n=d6 v=0
262377 Par ch=1 c=64 v=104
262387 Par ch=1 c=64 v=0
262397 On ch=1 n=c#5 v=81
262397 On ch=1 n=c#6 v=85
262402 On ch=1 n=c#4 v=76
262407 On ch=1 n=c#3 v=75
262437 Par ch=1 c=64 v=72
262447 On ch=1 n=c#3 v=0
262447 On ch=1 n=c#4 v=0
262447 On ch=1 n=c#5 v=0
262452 Par ch=1 c=64 v=127
262497 On ch=1 n=c#6 v=0
262587 On ch=1 n=e6 v=93
262592 On ch=1 n=e4 v=76
262597 On ch=1 n=e5 v=78
262597 On ch=1 n=e3 v=38
262622 On ch=1 n=e4 v=0
262627 On ch=1 n=e3 v=0
262637 On ch=1 n=e5 v=0
262642 On ch=1 n=e6 v=0
262742 Par ch=1 c=64 v=88
262752 Par ch=1 c=64 v=24
262757 On ch=1 n=c5 v=86
262762 On ch=1 n=c6 v=97
262767 On ch=1 n=c3 v=67
262772 On ch=1 n=c4 v=74
262792 Par ch=1 c=64 v=127
262797 On ch=1 n=c5 v=0
262802 On ch=1 n=c3 v=0
262802 On ch=1 n=c6 v=0
262822 On ch=1 n=c4 v=0
262942 On ch=1 n=e6 v=92
262942 On ch=1 n=e4 v=66
262947 On ch=1 n=e5 v=79
262962 On ch=1 n=e3 v=39
262967 On ch=1 n=e4 v=0
262992 On ch=1 n=e3 v=0
262992 On ch=1 n=e5 v=0
262997 On ch=1 n=e6 v=0
263092 Par ch=1 c=64 v=88
263102 Par ch=1 c=64 v=0
263117 On ch=1 n=b5 v=93
263117 On ch=1 n=b4 v=82
263127 On ch=1 n=b2 v=76
263132 On ch=1 n=b3 v=82
263142 Par ch=1 c=64 v=72
263157 On ch=1 n=b2 v=0
263157 On ch=1 n=b4 v=0
263157 Par ch=1 c=64 v=127
263167 On ch=1 n=b5 v=0
263172 On ch=1 n=b3 v=0
263307 On ch=1 n=e6 v=85
263307 On ch=1 n=e4 v=74
263312 On ch=1 n=e5 v=69
263312 On ch=1 n=e3 v=38
263342 On ch=1 n=e3 v=0
263342 On ch=1 n=e5 v=0
263342 On ch=1 n=e4 v=0
263357 On ch=1 n=e6 v=0
263482 On ch=1 n=a#3 v=90
263482 On ch=1 n=a#5 v=83
263482 On ch=1 n=a#4 v=77
263487 On ch=1 n=a#2 v=84
263512 On ch=1 n=a#2 v=0
263517 On ch=1 n=a#3 v=0
263522 On ch=1 n=a#4 v=0
263522 On ch=1 n=a#5 v=0
263667 On ch=1 n=e4 v=80
263677 On ch=1 n=e6 v=85
263677 On ch=1 n=e3 v=64
263677 On ch=1 n=e5 v=72
263692 On ch=1 n=e4 v=0
263702 On ch=1 n=e5 v=0
263702 On ch=1 n=e3 v=0
263727 On ch=1 n=e6 v=0
263897 Par ch=1 c=64 v=40
263902 On ch=1 n=a5 v=97
263902 On ch=1 n=a4 v=86
263902 On ch=1 n=a2 v=85
263907 On ch=1 n=a3 v=94
263912 Par ch=1 c=64 v=0
263937 On ch=1 n=a4 v=0
263957 On ch=1 n=a3 v=0
263957 On ch=1 n=a2 v=0
263962 Par ch=1 c=64 v=88
263972 Par ch=1 c=64 v=127
263977 On ch=1 n=a5 v=0
264347 On ch=1 n=c#7 v=106
264352 On ch=1 n=c#6 v=96
264352 On ch=1 n=c#5 v=87
264357 On ch=1 n=c#4 v=85
264427 Par ch=1 c=64 v=104
264442 Par ch=1 c=64 v=24
264452 Par ch=1 c=64 v=0
264692 Par ch=1 c=64 v=104
264707 Par ch=1 c=64 v=127
264732 On ch=1 n=c#7 v=0
264737 On ch=1 n=c#5 v=0
264742 On ch=1 n=c#4 v=0
264752 On ch=1 n=c#6 v=0
264962 On ch=1 n=a#6 v=93
264962 On ch=1 n=a#5 v=84
264982 On ch=1 n=a#4 v=74
264982 On ch=1 n=a#3 v=74
264992 Par ch=1 c=64 v=88
265007 Par ch=1 c=64 v=0
265067 Par ch=1 c=64 v=88
265082 On ch=1 n=a#3 v=0
265082 On ch=1 n=a#5 v=0
265082 On ch=1 n=a#6 v=0
265082 Par ch=1 c=64 v=127
265112 On ch=1 n=a#4 v=0
265207 Par ch=1 c=64 v=104
265222 On ch=1 n=a6 v=88
265222 Par ch=1 c=64 v=40
265227 On ch=1 n=a5 v=85
265232 On ch=1 n=a4 v=73
265232 Par ch=1 c=64 v=0
265237 On ch=1 n=a3 v=70
265247 Par ch=1 c=64 v=24
265257 Par ch=1 c=64 v=72
265272 Par ch=1 c=64 v=127
265292 On ch=1 n=a3 v=0
265292 On ch=1 n=a4 v=0
265302 On ch=1 n=a5 v=0
265307 On ch=1 n=a6 v=0
265422 On ch=1 n=g6 v=92
265422 On ch=1 n=g5 v=79
265427 On ch=1 n=g4 v=68
265437 On ch=1 n=g3 v=62
265462 On ch=1 n=g3 v=0
265477 On ch=1 n=g4 v=0
265482 On ch=1 n=g5 v=0
265492 On ch=1 n=g6 v=0
265592 On ch=1 n=f6 v=89
265592 On ch=1 n=f5 v=75
265597 On ch=1 n=f3 v=60
265602 On ch=1 n=f4 v=66
265632 On ch=1 n=f3 v=0
265647 On ch=1 n=f5 v=0
265652 On ch=1 n=f4 v=0
265652 On ch=1 n=f6 v=0
265762 Par ch=1 c=64 v=72
265767 On ch=1 n=e6 v=90
265767 On ch=1 n=e5 v=79
265772 Par ch=1 c=64 v=24
265777 On ch=1 n=e4 v=65
265787 On ch=1 n=e3 v=61
265787 Par ch=1 c=64 v=40
265802 Par ch=1 c=64 v=88
265807 On ch=1 n=e3 v=0
265812 On ch=1 n=e5 v=0
265812 Par ch=1 c=64 v=127
265822 On ch=1 n=e6 v=0
265827 On ch=1 n=e4 v=0
265932 On ch=1 n=g6 v=88
265937 On ch=1 n=g4 v=72
265937 On ch=1 n=g5 v=70
265947 On ch=1 n=g3 v=65
265967 On ch=1 n=g5 v=0
265972 On ch=1 n=g3 v=0
265977 On ch=1 n=g4 v=0
265982 On ch=1 n=g6 v=0
266077 Par ch=1 c=64 v=104
266087 Par ch=1 c=64 v=40
266102 Par ch=1 c=64 v=24
266107 On ch=1 n=d#5 v=77
266107 On ch=1 n=d#6 v=75
266107 On ch=1 n=d#4 v=76
266107 On ch=1 n=d#3 v=75
266117 Par ch=1 c=64 v=56
266127 Par ch=1 c=64 v=104
266142 Par ch=1 c=64 v=127
266147 On ch=1 n=d#3 v=0
266147 On ch=1 n=d#4 v=0
266147 On ch=1 n=d#5 v=0
266157 On ch=1 n=d#6 v=0
266277 On ch=1 n=g6 v=82
266282 On ch=1 n=g5 v=64
266287 On ch=1 n=g3 v=60
266297 On ch=1 n=g4 v=51
266312 On ch=1 n=g5 v=0
266317 On ch=1 n=g3 v=0
266322 On ch=1 n=g4 v=0
266322 On ch=1 n=g6 v=0
266437 On ch=1 n=d6 v=90
266437 On ch=1 n=d5 v=74
266442 On ch=1 n=d4 v=80
266442 On ch=1 n=d3 v=68
266457 On ch=1 n=d5 v=0
266467 On ch=1 n=d3 v=0
266487 On ch=1 n=d4 v=0
266487 On ch=1 n=d6 v=0
266592 Par ch=1 c=64 v=56
266602 Par ch=1 c=64 v=40
266607 On ch=1 n=g6 v=94
266607 On ch=1 n=g5 v=78
266617 On ch=1 n=g4 v=80
266617 Par ch=1 c=64 v=88
266622 On ch=1 n=g3 v=77
266632 Par ch=1 c=64 v=127
266647 On ch=1 n=g3 v=0
266652 On ch=1 n=g4 v=0
266652 On ch=1 n=g5 v=0
266652 On ch=1 n=g6 v=0
266782 On ch=1 n=c#6 v=85
266782 On ch=1 n=c#5 v=71
266782 On ch=1 n=c#3 v=63
266792 On ch=1 n=c4 v=57
266802 On ch=1 n=c#5 v=0
266807 On ch=1 n=c#6 v=0
266812 On ch=1 n=c4 v=0
266812 On ch=1 n=c#3 v=0
266962 On ch=1 n=g6 v=92
266967 On ch=1 n=g4 v=73
266967 On ch=1 n=g5 v=80
266972 On ch=1 n=g3 v=64
267002 On ch=1 n=g4 v=0
267002 On ch=1 n=g6 v=0
267007 On ch=1 n=g5 v=0
267017 On ch=1 n=g3 v=0
267122 On ch=1 n=a#3 v=88
267127 On ch=1 n=a#2 v=76
267132 On ch=1 n=a#5 v=82
267132 On ch=1 n=a#4 v=67
267152 On ch=1 n=a#5 v=0
267157 On ch=1 n=a#4 v=0
267162 On ch=1 n=a#3 v=0
267167 On ch=1 n=a#2 v=0
267322 On ch=1 n=g6 v=94
267327 On ch=1 n=g5 v=89
267337 On ch=1 n=g4 v=80
267347 On ch=1 n=g3 v=70
267357 On ch=1 n=g4 v=0
267362 On ch=1 n=g5 v=0
267367 On ch=1 n=g3 v=0
267367 On ch=1 n=g6 v=0
267552 Par ch=1 c=64 v=72
267562 On ch=1 n=a4 v=89
267562 Par ch=1 c=64 v=0
267567 On ch=1 n=a5 v=94
267567 On ch=1 n=a3 v=94
267567 On ch=1 n=a2 v=83
267607 On ch=1 n=a2 v=0
267612 On ch=1 n=a4 v=0
267612 Par ch=1 c=64 v=40
267622 On ch=1 n=a3 v=0
267627 Par ch=1 c=64 v=127
267642 On ch=1 n=a5 v=0
267992 On ch=1 n=e7 v=107
267997 On ch=1 n=e6 v=94
268002 On ch=1 n=e5 v=88
268002 On ch=1 n=e4 v=82
268102 Par ch=1 c=64 v=88
268117 Par ch=1 c=64 v=0
268192 Par ch=1 c=64 v=127
268222 On ch=1 n=e4 v=0
268232 On ch=1 n=e7 v=0
268247 On ch=1 n=e5 v=0
268262 On ch=1 n=e6 v=0
268422 On ch=1 n=d7 v=93
268427 On ch=1 n=d6 v=88
268432 On ch=1 n=d5 v=75
268442 On ch=1 n=d4 v=68
268442 Par ch=1 c=64 v=56
268457 Par ch=1 c=64 v=0
268467 Par ch=1 c=64 v=24
268482 Par ch=1 c=64 v=88
268492 Par ch=1 c=64 v=127
268502 On ch=1 n=d6 v=0
268507 On ch=1 n=d4 v=0
268507 On ch=1 n=d5 v=0
268512 On ch=1 n=d7 v=0
268637 On ch=1 n=c#7 v=89
268637 On ch=1 n=c#6 v=83
268652 On ch=1 n=c#5 v=68
268657 On ch=1 n=c#4 v=75
268687 On ch=1 n=c#4 v=0
268692 On ch=1 n=c#5 v=0
268717 On ch=1 n=c#6 v=0
268752 On ch=1 n=c#7 v=0
268827 On ch=1 n=a#5 v=82
268827 On ch=1 n=a#6 v=86
268832 On ch=1 n=a#4 v=55
268832 On ch=1 n=a#3 v=58
268897 On ch=1 n=a#4 v=0
268902 On ch=1 n=a#6 v=0
268907 On ch=1 n=a#3 v=0
268912 On ch=1 n=a#5 v=0
268987 On ch=1 n=a3 v=80
268992 On ch=1 n=a4 v=73
268997 On ch=1 n=a5 v=82
268997 Par ch=1 c=64 v=56
269002 On ch=1 n=a6 v=83
269007 Par ch=1 c=64 v=0
269012 On ch=1 n=a3 v=0
269037 On ch=1 n=a5 v=0
269037 On ch=1 n=a4 v=0
269037 Par ch=1 c=64 v=40
269047 Par ch=1 c=64 v=104
269062 On ch=1 n=a6 v=0
269062 Par ch=1 c=64 v=127
269197 Par ch=1 c=64 v=72
269207 On ch=1 n=g6 v=89
269207 On ch=1 n=g7 v=97
269212 Par ch=1 c=64 v=24
269217 On ch=1 n=g5 v=76
269217 On ch=1 n=g4 v=75
269222 Par ch=1 c=64 v=56
269237 Par ch=1 c=64 v=104
269247 Par ch=1 c=64 v=127
269267 On ch=1 n=g5 v=0
269272 On ch=1 n=g4 v=0
269277 On ch=1 n=g6 v=0
269282 On ch=1 n=g7 v=0
269392 On ch=1 n=f7 v=94
269392 On ch=1 n=f5 v=76
269392 On ch=1 n=f6 v=89
269397 On ch=1 n=f4 v=75
269442 On ch=1 n=f5 v=0
269447 On ch=1 n=f4 v=0
269462 On ch=1 n=f6 v=0
269477 On ch=1 n=f7 v=0
269562 On ch=1 n=e7 v=90
269562 On ch=1 n=e6 v=82
269562 On ch=1 n=e5 v=72
269562 On ch=1 n=e4 v=68
269607 On ch=1 n=e4 v=0
269617 On ch=1 n=e5 v=0
269617 On ch=1 n=e6 v=0
269642 On ch=1 n=e7 v=0
269727 On ch=1 n=d5 v=76
269727 On ch=1 n=d7 v=92
269727 Par ch=1 c=64 v=40
269737 On ch=1 n=d6 v=83
269737 On ch=1 n=d4 v=70
269742 Par ch=1 c=64 v=0
269767 Par ch=1 c=64 v=56
269777 On ch=1 n=d4 v=0
269777 Par ch=1 c=64 v=127
269787 On ch=1 n=d6 v=0
269787 On ch=1 n=d5 v=0
269817 On ch=1 n=d7 v=0
269862 Par ch=1 c=64 v=88
269877 Par ch=1 c=64 v=0
269887 On ch=1 n=c#5 v=77
269892 On ch=1 n=c#4 v=82
269897 On ch=1 n=c#7 v=91
269897 On ch=1 n=c#6 v=80
269917 On ch=1 n=c#4 v=0
269917 Par ch=1 c=64 v=56
269927 On ch=1 n=c#6 v=0
269927 Par ch=1 c=64 v=127
269932 On ch=1 n=c#5 v=0
269947 On ch=1 n=c#7 v=0
270067 On ch=1 n=a#5 v=88
270067 On ch=1 n=a#4 v=87
270067 Par ch=1 c=64 v=40
270072 On ch=1 n=a#6 v=95
270072 On ch=1 n=a#7 v=102
270077 Par ch=1 c=64 v=0
270102 Par ch=1 c=64 v=72
270112 On ch=1 n=a#5 v=0
270117 Par ch=1 c=64 v=127
270122 On ch=1 n=a#4 v=0
270162 On ch=1 n=a#6 v=0
270197 On ch=1 n=a#7 v=0
270252 On ch=1 n=a7 v=100
270252 On ch=1 n=a5 v=79
270257 On ch=1 n=a6 v=86
270257 On ch=1 n=a4 v=70
270317 On ch=1 n=a4 v=0
270317 On ch=1 n=a6 v=0
270317 On ch=1 n=a5 v=0
270332 On ch=1 n=a7 v=0
270417 On ch=1 n=g7 v=96
270417 On ch=1 n=g5 v=74
270427 On ch=1 n=g6 v=93
270427 On ch=1 n=g4 v=58
270477 On ch=1 n=g4 v=0
270477 On ch=1 n=g5 v=0
270482 On ch=1 n=g6 v=0
270497 On ch=1 n=g7 v=0
270577 On ch=1 n=f5 v=74
270582 On ch=1 n=f7 v=92
270587 On ch=1 n=f6 v=86
270587 On ch=1 n=f4 v=68
270622 On ch=1 n=f4 v=0
270637 On ch=1 n=f6 v=0
270637 On ch=1 n=f5 v=0
270647 On ch=1 n=f7 v=0
270747 On ch=1 n=e7 v=100
270747 On ch=1 n=e6 v=94
270747 Par ch=1 c=64 v=40
270757 On ch=1 n=e5 v=79
270757 On ch=1 n=e4 v=74
270757 Par ch=1 c=64 v=0
270782 On ch=1 n=e4 v=0
270782 On ch=1 n=e6 v=0
270787 Par ch=1 c=64 v=56
270797 On ch=1 n=e7 v=0
270797 Par ch=1 c=64 v=127
270807 On ch=1 n=e5 v=0
270947 On ch=1 n=e8 v=103
270947 On ch=1 n=e7 v=96
270962 On ch=1 n=e6 v=81
270967 On ch=1 n=e5 v=66
271002 On ch=1 n=e7 v=0
271022 On ch=1 n=e6 v=0
271027 On ch=1 n=e5 v=0
271027 On ch=1 n=e8 v=0
271107 On ch=1 n=d8 v=100
271107 On ch=1 n=d7 v=93
271122 On ch=1 n=d6 v=76
271132 On ch=1 n=d5 v=68
271152 On ch=1 n=d7 v=0
271162 On ch=1 n=d5 v=0
271172 On ch=1 n=d6 v=0
271177 On ch=1 n=d8 v=0
271272 On ch=1 n=c#8 v=89
271277 On ch=1 n=c#7 v=93
271282 On ch=1 n=c#6 v=75
271287 On ch=1 n=c#5 v=73
271322 On ch=1 n=c#6 v=0
271322 On ch=1 n=c#7 v=0
271327 On ch=1 n=c#5 v=0
271342 On ch=1 n=c#8 v=0
271432 On ch=1 n=a#7 v=92
271437 On ch=1 n=a#6 v=91
271442 On ch=1 n=a#5 v=65
271447 On ch=1 n=a#4 v=64
271487 On ch=1 n=a#6 v=0
271507 On ch=1 n=a#4 v=0
271512 On ch=1 n=a#7 v=0
271537 On ch=1 n=a#5 v=0
271587 Par ch=1 c=64 v=56
271592 On ch=1 n=a5 v=82
271592 On ch=1 n=a4 v=66
271592 On ch=1 n=a6 v=75
271597 On ch=1 n=a7 v=82
271602 Par ch=1 c=64 v=0
271617 On ch=1 n=a6 v=0
271622 On ch=1 n=a4 v=0
271642 On ch=1 n=a5 v=0
271642 Par ch=1 c=64 v=72
271647 On ch=1 n=a7 v=0
271652 Par ch=1 c=64 v=127
271832 On ch=1 n=a#8 v=103
271832 On ch=1 n=a#7 v=96
271837 On ch=1 n=a#6 v=95
271842 On ch=1 n=a#5 v=77
271852 Par ch=1 c=64 v=56
271867 Par ch=1 c=64 v=0
271877 Par ch=1 c=64 v=56
271892 Par ch=1 c=64 v=127
271932 On ch=1 n=a#5 v=0
271932 On ch=1 n=a#6 v=0
271937 On ch=1 n=a#7 v=0
271957 On ch=1 n=a#8 v=0
272027 On ch=1 n=a8 v=102
272027 On ch=1 n=a7 v=97
272032 On ch=1 n=a6 v=82
272037 On ch=1 n=a5 v=66
272092 On ch=1 n=a5 v=0
272092 On ch=1 n=a6 v=0
272092 On ch=1 n=a7 v=0
272102 On ch=1 n=a8 v=0
272192 On ch=1 n=g8 v=97
272192 On ch=1 n=g6 v=78
272197 On ch=1 n=g7 v=89
272202 On ch=1 n=g5 v=70
272237 On ch=1 n=g5 v=0
272242 On ch=1 n=g6 v=0
272252 On ch=1 n=g7 v=0
272267 On ch=1 n=g8 v=0
272357 On ch=1 n=f8 v=90
272357 On ch=1 n=f6 v=79
272362 On ch=1 n=f7 v=88
272367 On ch=1 n=f5 v=72
272407 On ch=1 n=f6 v=0
272412 On ch=1 n=f5 v=0
272417 On ch=1 n=f7 v=0
272422 On ch=1 n=f8 v=0
272517 On ch=1 n=e6 v=75
272522 On ch=1 n=e8 v=90
272522 On ch=1 n=e7 v=86
272522 On ch=1 n=e5 v=70
272562 On ch=1 n=e5 v=0
272567 On ch=1 n=e7 v=0
272572 On ch=1 n=e6 v=0
272582 On ch=1 n=e8 v=0
272687 On ch=1 n=d8 v=78
272687 On ch=1 n=d5 v=59
272687 On ch=1 n=d7 v=70
272687 On ch=1 n=d6 v=70
272712 On ch=1 n=d5 v=0
272712 On ch=1 n=d8 v=0
272737 On ch=1 n=d6 v=0
272737 On ch=1 n=d7 v=0
272812 Par ch=1 c=64 v=40
272827 Par ch=1 c=64 v=0
272837 On ch=1 n=c#5 v=82
272837 On ch=1 n=c#7 v=88
272842 On ch=1 n=c#8 v=85
272842 On ch=1 n=c#6 v=81
272852 Par ch=1 c=64 v=56
272862 Par ch=1 c=64 v=127
272882 On ch=1 n=c#6 v=0
272892 On ch=1 n=c#7 v=0
272892 On ch=1 n=c#5 v=0
272937 On ch=1 n=c#8 v=0
273002 On ch=1 n=e6 v=80
273007 On ch=1 n=e8 v=93
273012 On ch=1 n=e7 v=80
273012 On ch=1 n=e5 v=75
273042 On ch=1 n=e6 v=0
273052 On ch=1 n=e5 v=0
273052 On ch=1 n=e7 v=0
273052 On ch=1 n=e8 v=0
273152 Par ch=1 c=64 v=104
273162 On ch=1 n=a#5 v=79
273162 On ch=1 n=a#7 v=90
273162 On ch=1 n=a#4 v=79
273162 On ch=1 n=a#6 v=85
273192 Par ch=1 c=64 v=127
273197 On ch=1 n=a#5 v=0
273207 On ch=1 n=a#6 v=0
273207 On ch=1 n=a#4 v=0
273217 On ch=1 n=a#7 v=0
273322 On ch=1 n=c#6 v=84
273322 On ch=1 n=c#5 v=77
273327 On ch=1 n=c#8 v=89
273332 On ch=1 n=c#7 v=79
273362 On ch=1 n=c#6 v=0
273367 On ch=1 n=c#5 v=0
273372 On ch=1 n=c#7 v=0
273382 On ch=1 n=c#8 v=0
273482 On ch=1 n=a5 v=74
273487 On ch=1 n=a4 v=67
273487 On ch=1 n=a7 v=99
273492 On ch=1 n=a6 v=82
273502 Par ch=1 c=64 v=56
273517 Par ch=1 c=64 v=40
273527 Par ch=1 c=64 v=88
273537 On ch=1 n=a6 v=0
273537 On ch=1 n=a4 v=0
273542 On ch=1 n=a5 v=0
273542 Par ch=1 c=64 v=127
273552 On ch=1 n=a7 v=0
273647 On ch=1 n=a#7 v=87
273652 On ch=1 n=a#5 v=77
273652 On ch=1 n=a#6 v=82
273657 On ch=1 n=a#4 v=56
273687 On ch=1 n=a#6 v=0
273702 On ch=1 n=a#5 v=0
273702 On ch=1 n=a#7 v=0
273732 On ch=1 n=a#4 v=0
273807 On ch=1 n=g7 v=96
273807 On ch=1 n=g6 v=88
273812 On ch=1 n=g5 v=78
273812 On ch=1 n=g4 v=82
273832 Par ch=1 c=64 v=88
273842 Par ch=1 c=64 v=72
273847 On ch=1 n=g6 v=0
273857 On ch=1 n=g4 v=0
273857 On ch=1 n=g5 v=0
273857 Par ch=1 c=64 v=104
273862 On ch=1 n=g7 v=0
273867 Par ch=1 c=64 v=127
273962 On ch=1 n=a#5 v=74
273967 On ch=1 n=a#7 v=85
273967 On ch=1 n=a#4 v=68
273972 On ch=1 n=a#6 v=80
274002 On ch=1 n=a#4 v=0
274002 On ch=1 n=a#5 v=0
274007 On ch=1 n=a#6 v=0
274022 On ch=1 n=a#7 v=0
274122 On ch=1 n=f6 v=92
274122 On ch=1 n=f7 v=94
274122 On ch=1 n=f5 v=69
274122 On ch=1 n=f4 v=71
274122 Par ch=1 c=64 v=72
274132 Par ch=1 c=64 v=40
274147 Par ch=1 c=64 v=72
274157 Par ch=1 c=64 v=104
274167 On ch=1 n=f4 v=0
274167 On ch=1 n=f6 v=0
274172 On ch=1 n=f5 v=0
274172 Par ch=1 c=64 v=127
274177 On ch=1 n=f7 v=0
274287 On ch=1 n=g7 v=90
274287 On ch=1 n=g6 v=83
274287 On ch=1 n=g5 v=69
274292 On ch=1 n=g4 v=63
274322 On ch=1 n=g7 v=0
274327 On ch=1 n=g4 v=0
274327 On ch=1 n=g5 v=0
274332 On ch=1 n=g6 v=0
274422 Par ch=1 c=64 v=88
274432 On ch=1 n=e6 v=87
274432 On ch=1 n=e7 v=94
274437 On ch=1 n=e5 v=72
274437 Par ch=1 c=64 v=56
274447 On ch=1 n=e4 v=52
274447 Par ch=1 c=64 v=88
274462 Par ch=1 c=64 v=127
274472 On ch=1 n=e4 v=0
274477 On ch=1 n=e6 v=0
274482 On ch=1 n=e5 v=0
274482 On ch=1 n=e7 v=0
274582 On ch=1 n=g5 v=74
274592 On ch=1 n=g7 v=87
274592 On ch=1 n=g4 v=71
274597 On ch=1 n=g6 v=80
274617 On ch=1 n=g6 v=0
274617 On ch=1 n=g4 v=0
274622 On ch=1 n=g5 v=0
274637 On ch=1 n=g7 v=0
274727 Par ch=1 c=64 v=56
274737 On ch=1 n=d7 v=94
274737 On ch=1 n=d6 v=88
274737 On ch=1 n=d5 v=73
274737 Par ch=1 c=64 v=24
274747 On ch=1 n=d4 v=75
274752 Par ch=1 c=64 v=56
274762 Par ch=1 c=64 v=127
274767 On ch=1 n=d4 v=0
274777 On ch=1 n=d5 v=0
274777 On ch=1 n=d6 v=0
274782 On ch=1 n=d7 v=0
274882 On ch=1 n=e5 v=67
274887 On ch=1 n=e7 v=93
274892 On ch=1 n=e6 v=80
274907 On ch=1 n=e4 v=46
274917 On ch=1 n=e5 v=0
274927 On ch=1 n=e7 v=0
274932 On ch=1 n=e4 v=0
274932 On ch=1 n=e6 v=0
275002 Par ch=1 c=64 v=104
275012 Par ch=1 c=64 v=24
275027 Par ch=1 c=64 v=0
275032 On ch=1 n=c#6 v=82
275037 On ch=1 n=c#7 v=81
275037 On ch=1 n=c#4 v=69
275037 On ch=1 n=c#5 v=72
275052 Par ch=1 c=64 v=24
275062 Par ch=1 c=64 v=104
275067 On ch=1 n=c#4 v=0
275072 On ch=1 n=c#5 v=0
275077 Par ch=1 c=64 v=127
275092 On ch=1 n=c#6 v=0
275127 On ch=1 n=c#7 v=0
275167 Par ch=1 c=64 v=72
275177 Par ch=1 c=64 v=56
275182 On ch=1 n=e5 v=74
275187 On ch=1 n=e7 v=87
275192 On ch=1 n=e6 v=74
275192 Par ch=1 c=64 v=88
275197 On ch=1 n=e4 v=60
275202 Par ch=1 c=64 v=127
275217 On ch=1 n=e6 v=0
275217 On ch=1 n=e5 v=0
275222 On ch=1 n=e4 v=0
275232 On ch=1 n=e7 v=0
275302 Par ch=1 c=64 v=88
275317 Par ch=1 c=64 v=0
275327 Par ch=1 c=64 v=24
275337 On ch=1 n=a#4 v=73
275337 On ch=1 n=a#3 v=75
275337 On ch=1 n=a#6 v=84
275342 On ch=1 n=a#5 v=76
275342 Par ch=1 c=64 v=72
275352 Par ch=1 c=64 v=127
275357 On ch=1 n=a#3 v=0
275372 On ch=1 n=a#4 v=0
275382 On ch=1 n=a#5 v=0
275387 On ch=1 n=a#6 v=0
275457 Par ch=1 c=64 v=104
275487 On ch=1 n=c#7 v=82
275487 On ch=1 n=c#5 v=73
275487 On ch=1 n=c#4 v=79
275487 On ch=1 n=c#6 v=67
275492 Par ch=1 c=64 v=127
275512 On ch=1 n=c#4 v=0
275517 On ch=1 n=c#5 v=0
275532 On ch=1 n=c#6 v=0
275537 On ch=1 n=c#7 v=0
275632 Par ch=1 c=64 v=88
275637 On ch=1 n=a6 v=87
275637 On ch=1 n=a5 v=82
275642 On ch=1 n=a4 v=68
275647 On ch=1 n=a3 v=68
275647 Par ch=1 c=64 v=40
275657 Par ch=1 c=64 v=56
275672 Par ch=1 c=64 v=104
275682 On ch=1 n=a5 v=0
275682 Par ch=1 c=64 v=127
275692 On ch=1 n=a3 v=0
275692 On ch=1 n=a4 v=0
275697 On ch=1 n=a6 v=0
275787 On ch=1 n=a#6 v=80
275792 On ch=1 n=a#5 v=76
275792 On ch=1 n=a#4 v=68
275797 On ch=1 n=a#3 v=62
275822 On ch=1 n=a#3 v=0
275832 On ch=1 n=a#5 v=0
275842 On ch=1 n=a#6 v=0
275847 On ch=1 n=a#4 v=0
275932 Par ch=1 c=64 v=40
275937 On ch=1 n=g3 v=77
275937 On ch=1 n=g5 v=84
275942 On ch=1 n=g6 v=89
275942 On ch=1 n=g4 v=71
275947 Par ch=1 c=64 v=0
275962 Par ch=1 c=64 v=24
275972 Par ch=1 c=64 v=72
275982 On ch=1 n=g5 v=0
275987 On ch=1 n=g3 v=0
275987 Par ch=1 c=64 v=127
275992 On ch=1 n=g4 v=0
275992 On ch=1 n=g6 v=0
276087 On ch=1 n=a#4 v=68
276097 On ch=1 n=a#6 v=76
276102 On ch=1 n=a#3 v=63
276107 On ch=1 n=a#5 v=68
276122 On ch=1 n=a#3 v=0
276127 On ch=1 n=a#5 v=0
276132 On ch=1 n=a#4 v=0
276142 On ch=1 n=a#6 v=0
276247 On ch=1 n=f6 v=94
276247 On ch=1 n=f5 v=85
276252 Par ch=1 c=64 v=72
276257 On ch=1 n=f3 v=64
276262 Par ch=1 c=64 v=24
276267 On ch=1 n=f4 v=66
276277 Par ch=1 c=64 v=40
276287 Par ch=1 c=64 v=88
276297 On ch=1 n=f5 v=0
276302 On ch=1 n=f6 v=0
276302 Par ch=1 c=64 v=127
276312 On ch=1 n=f4 v=0
276312 On ch=1 n=f3 v=0
276402 On ch=1 n=g4 v=76
276402 On ch=1 n=g5 v=73
276407 On ch=1 n=g6 v=71
276412 On ch=1 n=g3 v=60
276427 On ch=1 n=g4 v=0
276442 On ch=1 n=g3 v=0
276442 On ch=1 n=g6 v=0
276442 On ch=1 n=g5 v=0
276542 Par ch=1 c=64 v=56
276547 On ch=1 n=e6 v=93
276547 On ch=1 n=e5 v=86
276552 Par ch=1 c=64 v=0
276557 On ch=1 n=e4 v=63
276567 On ch=1 n=e3 v=56
276567 Par ch=1 c=64 v=56
276577 Par ch=1 c=64 v=127
276587 On ch=1 n=e3 v=0
276587 On ch=1 n=e5 v=0
276592 On ch=1 n=e4 v=0
276592 On ch=1 n=e6 v=0
276687 On ch=1 n=g4 v=74
276692 On ch=1 n=g6 v=88
276697 On ch=1 n=g5 v=72
276697 On ch=1 n=g3 v=68
276717 On ch=1 n=g4 v=0
276722 On ch=1 n=g3 v=0
276727 On ch=1 n=g5 v=0
276737 On ch=1 n=g6 v=0
276827 Par ch=1 c=64 v=72
276837 On ch=1 n=d5 v=85
276842 On ch=1 n=d6 v=92
276842 On ch=1 n=d4 v=71
276842 Par ch=1 c=64 v=0
276847 On ch=1 n=d3 v=74
276852 Par ch=1 c=64 v=24
276867 On ch=1 n=d3 v=0
276867 Par ch=1 c=64 v=72
276877 On ch=1 n=d4 v=0
276877 Par ch=1 c=64 v=127
276882 On ch=1 n=d6 v=0
276882 On ch=1 n=d5 v=0
276982 On ch=1 n=e6 v=90
276992 On ch=1 n=e4 v=64
276992 On ch=1 n=e5 v=52
276992 On ch=1 n=e3 v=59
277017 On ch=1 n=e3 v=0
277017 On ch=1 n=e5 v=0
277017 On ch=1 n=e4 v=0
277037 On ch=1 n=e6 v=0
277117 Par ch=1 c=64 v=72
277132 On ch=1 n=c#6 v=83
277132 On ch=1 n=c#5 v=79
277132 Par ch=1 c=64 v=0
277137 On ch=1 n=c#4 v=78
277142 On ch=1 n=c#3 v=70
277157 Par ch=1 c=64 v=72
277167 Par ch=1 c=64 v=127
277177 On ch=1 n=c#3 v=0
277177 On ch=1 n=c#4 v=0
277182 On ch=1 n=c#5 v=0
277217 On ch=1 n=c#6 v=0
277282 On ch=1 n=e4 v=72
277287 On ch=1 n=e6 v=85
277292 On ch=1 n=e5 v=66
277297 On ch=1 n=e3 v=55
277312 On ch=1 n=e4 v=0
277317 On ch=1 n=e3 v=0
277317 On ch=1 n=e5 v=0
277337 On ch=1 n=e6 v=0
277422 Par ch=1 c=64 v=72
277427 On ch=1 n=a#3 v=80
277427 On ch=1 n=a#2 v=73
277432 On ch=1 n=a#5 v=83
277432 On ch=1 n=a#4 v=73
277432 Par ch=1 c=64 v=24
277447 Par ch=1 c=64 v=40
277457 Par ch=1 c=64 v=88
277462 On ch=1 n=a#2 v=0
277462 On ch=1 n=a#3 v=0
277472 Par ch=1 c=64 v=127
277477 On ch=1 n=a#4 v=0
277477 On ch=1 n=a#5 v=0
277577 On ch=1 n=c#6 v=84
277582 On ch=1 n=c#4 v=79
277582 On ch=1 n=c#5 v=73
277582 On ch=1 n=c#3 v=62
277607 On ch=1 n=c#3 v=0
277617 On ch=1 n=c#5 v=0
277617 On ch=1 n=c#6 v=0
277622 On ch=1 n=c#4 v=0
277732 On ch=1 n=a3 v=83
277732 On ch=1 n=a4 v=76
277737 On ch=1 n=a2 v=72
277737 On ch=1 n=a5 v=89
277737 Par ch=1 c=64 v=104
277747 Par ch=1 c=64 v=40
277777 On ch=1 n=a3 v=0
277782 On ch=1 n=a2 v=0
277782 On ch=1 n=a4 v=0
277782 Par ch=1 c=64 v=127
277797 On ch=1 n=a5 v=0
277882 On ch=1 n=a#5 v=84
277882 On ch=1 n=a#4 v=74
277882 On ch=1 n=a#3 v=70
277882 On ch=1 n=a#2 v=70
277932 On ch=1 n=a#2 v=0
277932 On ch=1 n=a#3 v=0
277942 On ch=1 n=a#4 v=0
277947 On ch=1 n=a#5 v=0
278012 Par ch=1 c=64 v=88
278027 Par ch=1 c=64 v=0
278032 On ch=1 n=g#5 v=83
278032 On ch=1 n=g#3 v=75
278032 On ch=1 n=g#4 v=78
278032 On ch=1 n=g#2 v=69
278062 Par ch=1 c=64 v=127
278067 On ch=1 n=g#2 v=0
278072 On ch=1 n=g#3 v=0
278107 On ch=1 n=g#4 v=0
278112 On ch=1 n=g#5 v=0
278182 On ch=1 n=a5 v=88
278182 On ch=1 n=a3 v=69
278187 On ch=1 n=a4 v=78
278187 Par ch=1 c=64 v=56
278197 On ch=1 n=a2 v=42
278227 Par ch=1 c=64 v=127
278232 On ch=1 n=a4 v=0
278232 On ch=1 n=a3 v=0
278237 On ch=1 n=a2 v=0
278242 On ch=1 n=a5 v=0
278317 Par ch=1 c=64 v=104
278327 On ch=1 n=g5 v=92
278327 On ch=1 n=g4 v=89
278327 Par ch=1 c=64 v=40
278332 On ch=1 n=g3 v=72
278337 Par ch=1 c=64 v=56
278352 On ch=1 n=g2 v=41
278352 Par ch=1 c=64 v=104
278367 On ch=1 n=g4 v=0
278367 Par ch=1 c=64 v=127
278372 On ch=1 n=g3 v=0
278377 On ch=1 n=g2 v=0
278382 On ch=1 n=g5 v=0
278467 On ch=1 n=a5 v=93
278467 On ch=1 n=a3 v=83
278477 On ch=1 n=a4 v=71
278487 On ch=1 n=a2 v=62
278502 On ch=1 n=a4 v=0
278507 On ch=1 n=a2 v=0
278512 On ch=1 n=a3 v=0
278522 On ch=1 n=a5 v=0
278592 Par ch=1 c=64 v=104
278602 Par ch=1 c=64 v=24
278607 On ch=1 n=f#5 v=84
278612 On ch=1 n=f#4 v=84
278617 On ch=1 n=f#3 v=78
278617 On ch=1 n=f#2 v=65
278637 Par ch=1 c=64 v=127
278657 On ch=1 n=f#2 v=0
278657 On ch=1 n=f#3 v=0
278657 On ch=1 n=f#4 v=0
278687 On ch=1 n=f#5 v=0
278757 On ch=1 n=a5 v=88
278762 On ch=1 n=a4 v=74
278762 On ch=1 n=a3 v=80
278772 On ch=1 n=a2 v=66
278782 On ch=1 n=a3 v=0
278792 On ch=1 n=a2 v=0
278797 On ch=1 n=a4 v=0
278802 On ch=1 n=a5 v=0
278902 On ch=1 n=f5 v=93
278902 On ch=1 n=f4 v=88
278902 On ch=1 n=e3 v=67
278902 On ch=1 n=e2 v=70
278907 Par ch=1 c=64 v=56
278937 On ch=1 n=e3 v=0
278942 Par ch=1 c=64 v=127
278947 On ch=1 n=f4 v=0
278952 On ch=1 n=e2 v=0
278952 On ch=1 n=f5 v=0
279057 On ch=1 n=a5 v=89
279062 On ch=1 n=a4 v=76
279062 On ch=1 n=a3 v=80
279082 On ch=1 n=a2 v=32
279087 On ch=1 n=a3 v=0
279092 On ch=1 n=a4 v=0
279097 On ch=1 n=a5 v=0
279107 On ch=1 n=a2 v=0
279207 Par ch=1 c=64 v=72
279217 On ch=1 n=e5 v=94
279217 On ch=1 n=e4 v=87
279217 On ch=1 n=e3 v=70
279222 Par ch=1 c=64 v=40
279232 On ch=1 n=e2 v=71
279232 Par ch=1 c=64 v=88
279247 Par ch=1 c=64 v=127
279252 On ch=1 n=e2 v=0
279262 On ch=1 n=e3 v=0
279262 On ch=1 n=e4 v=0
279262 On ch=1 n=e5 v=0
279387 On ch=1 n=a5 v=92
279392 On ch=1 n=a3 v=76
279392 On ch=1 n=a4 v=77
279402 On ch=1 n=a2 v=64
279417 On ch=1 n=a3 v=0
279427 On ch=1 n=a2 v=0
279427 On ch=1 n=a4 v=0
279427 On ch=1 n=a5 v=0
279547 Par ch=1 c=64 v=72
279562 On ch=1 n=d#3 v=80
279562 Par ch=1 c=64 v=24
279567 On ch=1 n=d#4 v=91
279567 On ch=1 n=d#2 v=75
279572 On ch=1 n=d#5 v=84
279572 Par ch=1 c=64 v=72
279587 Par ch=1 c=64 v=127
279602 On ch=1 n=d#2 v=0
279602 On ch=1 n=d#4 v=0
279602 On ch=1 n=d#3 v=0
279607 On ch=1 n=d#5 v=0
279782 On ch=1 n=a5 v=94
279787 On ch=1 n=a4 v=87
279787 Par ch=1 c=64 v=56
279807 On ch=1 n=a3 v=68
279812 On ch=1 n=a2 v=62
279822 On ch=1 n=a4 v=0
279827 On ch=1 n=a3 v=0
279827 Par ch=1 c=64 v=127
279837 On ch=1 n=a5 v=0
279847 On ch=1 n=a2 v=0
280007 On ch=1 n=c4 v=96
280012 On ch=1 n=c5 v=96
280017 Par ch=1 c=64 v=88
280022 On ch=1 n=c2 v=74
280022 On ch=1 n=c3 v=89
280027 Par ch=1 c=64 v=24
280042 Par ch=1 c=64 v=40
280047 On ch=1 n=c4 v=0
280052 On ch=1 n=c5 v=0
280052 Par ch=1 c=64 v=104
280067 On ch=1 n=c2 v=0
280067 Par ch=1 c=64 v=127
280082 On ch=1 n=c3 v=0
280277 On ch=1 n=a5 v=86
280282 On ch=1 n=a4 v=84
280292 On ch=1 n=a3 v=97
280292 On ch=1 n=a2 v=80
280292 Par ch=1 c=64 v=56
280302 Par ch=1 c=64 v=0
280317 Par ch=1 c=64 v=56
280327 On ch=1 n=a4 v=0
280327 On ch=1 n=a5 v=0
280327 Par ch=1 c=64 v=104
280332 On ch=1 n=a3 v=0
280342 Par ch=1 c=64 v=127
280347 On ch=1 n=a2 v=0
280542 Par ch=1 c=64 v=40
280552 On ch=1 n=c#4 v=88
280557 On ch=1 n=c#3 v=95
280557 Par ch=1 c=64 v=0
280562 On ch=1 n=c#2 v=80
280562 On ch=1 n=c#5 v=85
280592 Par ch=1 c=64 v=72
280602 On ch=1 n=c#3 v=0
280602 On ch=1 n=c#4 v=0
280607 On ch=1 n=c#2 v=0
280607 Par ch=1 c=64 v=127
280622 On ch=1 n=c#5 v=0
280882 On ch=1 n=a5 v=93
280882 Par ch=1 c=64 v=72
280887 On ch=1 n=a4 v=89
280892 On ch=1 n=a3 v=90
280897 On ch=1 n=a2 v=76
280897 Par ch=1 c=64 v=0
280922 Par ch=1 c=64 v=24
280932 Par ch=1 c=64 v=88
280947 Par ch=1 c=64 v=127
280952 On ch=1 n=a2 v=0
280957 On ch=1 n=a3 v=0
280957 On ch=1 n=a4 v=0
280997 On ch=1 n=a5 v=0
281417 On ch=1 n=d7 v=93
281427 On ch=1 n=d6 v=77
281432 On ch=1 n=f6 v=77
281447 On ch=1 n=d4 v=67
281447 On ch=1 n=d3 v=61
281457 On ch=1 n=a3 v=55
281467 Par ch=1 c=64 v=40
281477 Par ch=1 c=64 v=127
281482 On ch=1 n=a3 v=0
281492 On ch=1 n=d3 v=0
281502 On ch=1 n=d6 v=0
281507 On ch=1 n=d4 v=0
281507 On ch=1 n=f6 v=0
281507 On ch=1 n=d7 v=0
281692 On ch=1 n=e4 v=43
281707 On ch=1 n=g#4 v=49
281742 On ch=1 n=f4 v=72
281747 On ch=1 n=g#4 v=0
281747 On ch=1 n=e4 v=0
281747 On ch=1 n=a4 v=66
281767 On ch=1 n=f4 v=0
281767 Par ch=1 c=64 v=104
281777 On ch=1 n=a4 v=0
281777 Par ch=1 c=64 v=72
281787 Par ch=1 c=64 v=24
281802 Par ch=1 c=64 v=0
281972 On ch=1 n=c#5 v=56
281987 On ch=1 n=e5 v=37
281987 On ch=1 n=d5 v=79
281997 Par ch=1 c=64 v=24
282007 On ch=1 n=f5 v=64
282007 Par ch=1 c=64 v=88
282017 Par ch=1 c=64 v=127
282027 On ch=1 n=d5 v=0
282032 On ch=1 n=c#5 v=0
282037 On ch=1 n=e5 v=0
282052 On ch=1 n=f5 v=0
282072 Par ch=1 c=64 v=104
282082 Par ch=1 c=64 v=88
282092 Par ch=1 c=64 v=56
282102 Par ch=1 c=64 v=24
282112 Par ch=1 c=64 v=0
282272 On ch=1 n=d7 v=93
282277 On ch=1 n=d6 v=80
282277 On ch=1 n=f6 v=81
282282 Par ch=1 c=64 v=56
282287 On ch=1 n=d3 v=42
282292 On ch=1 n=d4 v=59
282292 On ch=1 n=a3 v=49
282292 Par ch=1 c=64 v=127
282312 On ch=1 n=a3 v=0
282312 On ch=1 n=d3 v=0
282312 On ch=1 n=d6 v=0
282317 On ch=1 n=d4 v=0
282317 On ch=1 n=d7 v=0
282322 On ch=1 n=f6 v=0
282507 On ch=1 n=e4 v=57
282507 On ch=1 n=g#4 v=64
282547 On ch=1 n=e4 v=0
282552 On ch=1 n=g#4 v=0
282552 On ch=1 n=a4 v=55
282552 On ch=1 n=f4 v=54
282552 Par ch=1 c=64 v=72
282562 Par ch=1 c=64 v=40
282572 On ch=1 n=f4 v=0
282572 Par ch=1 c=64 v=0
282582 On ch=1 n=a4 v=0
282787 On ch=1 n=f5 v=71
282787 On ch=1 n=d5 v=72
282792 On ch=1 n=e5 v=44
282807 On ch=1 n=d5 v=0
282812 On ch=1 n=e5 v=0
282822 On ch=1 n=f5 v=0
282967 On ch=1 n=c7 v=96
282972 On ch=1 n=c6 v=81
282987 On ch=1 n=c6 v=0
283002 On ch=1 n=c7 v=0
283047 On ch=1 n=a#6 v=85
283047 On ch=1 n=a#5 v=82
283057 On ch=1 n=e6 v=66
283062 On ch=1 n=d3 v=58
283062 On ch=1 n=g3 v=62
283062 On ch=1 n=d4 v=63
283072 Par ch=1 c=64 v=24
283077 On ch=1 n=e6 v=0
283077 Par ch=1 c=64 v=104
283082 On ch=1 n=d3 v=0
283087 On ch=1 n=g3 v=0
283087 On ch=1 n=a#5 v=0
283092 Par ch=1 c=64 v=127
283102 On ch=1 n=a#6 v=0
283107 On ch=1 n=d4 v=0
283282 On ch=1 n=f#4 v=44
283287 On ch=1 n=a4 v=53
283307 On ch=1 n=g4 v=68
283317 On ch=1 n=f#4 v=0
283322 On ch=1 n=a4 v=0
283322 On ch=1 n=a#4 v=64
283332 Par ch=1 c=64 v=72
283342 Par ch=1 c=64 v=40
283347 On ch=1 n=g4 v=0
283352 On ch=1 n=a#4 v=0
283352 Par ch=1 c=64 v=24
283362 Par ch=1 c=64 v=0
283547 On ch=1 n=d#5 v=55
283552 On ch=1 n=f#5 v=61
283572 On ch=1 n=e5 v=57
283577 On ch=1 n=g5 v=66
283607 On ch=1 n=d#5 v=0
283612 On ch=1 n=e5 v=0
283632 On ch=1 n=g5 v=0
283632 On ch=1 n=f#5 v=0
283837 On ch=1 n=a#6 v=90
283842 On ch=1 n=a#5 v=79
283852 On ch=1 n=e6 v=74
283852 Par ch=1 c=64 v=40
283857 On ch=1 n=d3 v=63
283862 Par ch=1 c=64 v=104
283867 On ch=1 n=e6 v=0
283867 On ch=1 n=g3 v=46
283872 On ch=1 n=d4 v=40
283872 Par ch=1 c=64 v=127
283877 On ch=1 n=d3 v=0
283877 On ch=1 n=a#5 v=0
283887 On ch=1 n=g3 v=0
283887 On ch=1 n=a#6 v=0
283902 On ch=1 n=d4 v=0
284082 On ch=1 n=f#4 v=60
284082 On ch=1 n=a#4 v=26
284092 On ch=1 n=a4 v=65
284097 On ch=1 n=a#4 v=0
284107 On ch=1 n=g4 v=59
284127 On ch=1 n=f#4 v=0
284127 On ch=1 n=a#4 v=63
284147 On ch=1 n=a4 v=0
284152 On ch=1 n=g4 v=0
284152 Par ch=1 c=64 v=104
284162 On ch=1 n=a#4 v=0
284162 Par ch=1 c=64 v=72
284172 Par ch=1 c=64 v=56
284182 Par ch=1 c=64 v=40
284192 Par ch=1 c=64 v=24
284202 Par ch=1 c=64 v=0
284342 On ch=1 n=d#5 v=59
284352 On ch=1 n=f#5 v=48
284357 On ch=1 n=e5 v=64
284367 On ch=1 n=g5 v=74
284372 On ch=1 n=e5 v=0
284382 Par ch=1 c=64 v=40
284387 On ch=1 n=d#5 v=0
284392 Par ch=1 c=64 v=88
284397 On ch=1 n=f#5 v=0
284402 On ch=1 n=g5 v=0
284402 Par ch=1 c=64 v=127
284532 Par ch=1 c=64 v=88
284542 Par ch=1 c=64 v=72
284552 Par ch=1 c=64 v=40
284562 On ch=1 n=a#6 v=85
284562 Par ch=1 c=64 v=24
284567 On ch=1 n=a#5 v=67
284572 Par ch=1 c=64 v=0
284602 On ch=1 n=a#5 v=0
284607 On ch=1 n=a#6 v=0
284652 On ch=1 n=a6 v=89
284652 On ch=1 n=e6 v=80
284657 On ch=1 n=a5 v=79
284662 On ch=1 n=c#3 v=55
284667 On ch=1 n=c#4 v=54
284692 Par ch=1 c=64 v=56
284702 Par ch=1 c=64 v=127
284707 On ch=1 n=a5 v=0
284712 On ch=1 n=c#4 v=0
284712 On ch=1 n=c#3 v=0
284712 On ch=1 n=e6 v=0
284712 On ch=1 n=a6 v=0
284897 On ch=1 n=d#4 v=59
284897 On ch=1 n=f#4 v=54
284937 On ch=1 n=e4 v=74
284942 On ch=1 n=f#4 v=0
284947 On ch=1 n=d#4 v=0
284952 Par ch=1 c=64 v=88
284962 On ch=1 n=g4 v=64
284962 Par ch=1 c=64 v=56
284972 Par ch=1 c=64 v=24
284982 Par ch=1 c=64 v=0
284992 On ch=1 n=e4 v=0
285002 On ch=1 n=g4 v=0
285192 On ch=1 n=c#5 v=58
285197 On ch=1 n=e5 v=69
285202 On ch=1 n=c5 v=74
285202 On ch=1 n=d#5 v=38
285202 Par ch=1 c=64 v=72
285212 Par ch=1 c=64 v=127
285227 On ch=1 n=c5 v=0
285227 On ch=1 n=c#5 v=0
285237 On ch=1 n=d#5 v=0
285237 On ch=1 n=e5 v=0
285362 Par ch=1 c=64 v=104
285372 Par ch=1 c=64 v=88
285382 Par ch=1 c=64 v=72
285392 On ch=1 n=a6 v=87
285392 On ch=1 n=a5 v=54
285392 Par ch=1 c=64 v=56
285402 Par ch=1 c=64 v=40
285412 On ch=1 n=a5 v=0
285412 Par ch=1 c=64 v=24
285422 Par ch=1 c=64 v=0
285432 On ch=1 n=a6 v=0
285507 On ch=1 n=e7 v=100
285512 On ch=1 n=e6 v=88
285512 On ch=1 n=g6 v=83
285532 On ch=1 n=g6 v=0
285532 On ch=1 n=a3 v=63
285532 On ch=1 n=a2 v=55
285542 Par ch=1 c=64 v=40
285552 Par ch=1 c=64 v=104
285562 Par ch=1 c=64 v=127
285567 On ch=1 n=g6 v=22
285577 On ch=1 n=a2 v=0
285592 On ch=1 n=a3 v=0
285592 On ch=1 n=e7 v=0
285597 On ch=1 n=g6 v=0
285612 On ch=1 n=e6 v=0
285752 On ch=1 n=d#4 v=65
285757 On ch=1 n=f#4 v=58
285802 On ch=1 n=f#4 v=0
285802 On ch=1 n=d#4 v=0
285802 On ch=1 n=e4 v=77
285812 On ch=1 n=g4 v=69
285832 Par ch=1 c=64 v=88
285842 On ch=1 n=g4 v=0
285842 On ch=1 n=e4 v=0
285842 Par ch=1 c=64 v=56
285852 Par ch=1 c=64 v=40
285862 Par ch=1 c=64 v=0
286037 On ch=1 n=c5 v=58
286037 On ch=1 n=d#5 v=18
286042 On ch=1 n=e5 v=79
286042 Par ch=1 c=64 v=56
286047 On ch=1 n=c#5 v=49
286052 Par ch=1 c=64 v=127
286067 On ch=1 n=c5 v=0
286072 On ch=1 n=c#5 v=0
286072 On ch=1 n=e5 v=0
286082 On ch=1 n=d#5 v=0
286147 Par ch=1 c=64 v=104
286157 Par ch=1 c=64 v=88
286167 Par ch=1 c=64 v=72
286177 Par ch=1 c=64 v=56
286187 Par ch=1 c=64 v=40
286197 Par ch=1 c=64 v=24
286242 On ch=1 n=g6 v=87
286242 On ch=1 n=g5 v=71
286257 Par ch=1 c=64 v=0
286272 On ch=1 n=g5 v=0
286277 On ch=1 n=g6 v=0
286322 On ch=1 n=f6 v=94
286327 On ch=1 n=f5 v=78
286332 On ch=1 n=a5 v=70
286347 On ch=1 n=d3 v=46
286347 On ch=1 n=d4 v=55
286352 On ch=1 n=a5 v=0
286357 Par ch=1 c=64 v=72
286367 Par ch=1 c=64 v=127
286377 On ch=1 n=d3 v=0
286377 On ch=1 n=f5 v=0
286377 On ch=1 n=f6 v=0
286402 On ch=1 n=d4 v=0
286542 On ch=1 n=e4 v=31
286557 On ch=1 n=g#4 v=54
286577 On ch=1 n=f4 v=69
286582 On ch=1 n=e4 v=0
286597 On ch=1 n=a4 v=72
286597 Par ch=1 c=64 v=104
286602 On ch=1 n=g#4 v=0
286607 Par ch=1 c=64 v=72
286617 Par ch=1 c=64 v=40
286627 On ch=1 n=f4 v=0
286627 Par ch=1 c=64 v=24
286637 On ch=1 n=a4 v=0
286637 Par ch=1 c=64 v=0
286812 On ch=1 n=e5 v=36
286817 On ch=1 n=c#5 v=30
286842 On ch=1 n=f5 v=77
286842 On ch=1 n=d5 v=77
286847 On ch=1 n=c#5 v=0
286857 On ch=1 n=e5 v=0
286857 Par ch=1 c=64 v=24
286867 Par ch=1 c=64 v=88
286877 Par ch=1 c=64 v=127
286882 On ch=1 n=d5 v=0
286887 On ch=1 n=f5 v=0
287007 Par ch=1 c=64 v=104
287027 Par ch=1 c=64 v=88
287032 On ch=1 n=a6 v=79
287037 On ch=1 n=a5 v=61
287037 Par ch=1 c=64 v=72
287047 Par ch=1 c=64 v=56
287057 On ch=1 n=a6 v=0
287057 Par ch=1 c=64 v=40
287062 On ch=1 n=a5 v=0
287067 Par ch=1 c=64 v=24
287077 Par ch=1 c=64 v=0
287127 On ch=1 n=d6 v=86
287127 On ch=1 n=f5 v=79
287127 On ch=1 n=d5 v=78
287142 On ch=1 n=d4 v=53
287142 On ch=1 n=d3 v=42
287147 Par ch=1 c=64 v=56
287157 Par ch=1 c=64 v=104
287162 On ch=1 n=f5 v=0
287167 Par ch=1 c=64 v=127
287172 On ch=1 n=d3 v=0
287177 On ch=1 n=d6 v=0
287192 On ch=1 n=d5 v=0
287202 On ch=1 n=d4 v=0
287332 On ch=1 n=e4 v=52
287347 On ch=1 n=g#4 v=55
287372 On ch=1 n=f4 v=68
287382 On ch=1 n=e4 v=0
287392 On ch=1 n=g#4 v=0
287402 On ch=1 n=a4 v=68
287407 Par ch=1 c=64 v=104
287422 On ch=1 n=f4 v=0
287422 Par ch=1 c=64 v=88
287432 Par ch=1 c=64 v=56
287442 On ch=1 n=a4 v=0
287442 Par ch=1 c=64 v=24
287452 Par ch=1 c=64 v=0
287617 On ch=1 n=c#5 v=49
287622 On ch=1 n=e5 v=60
287667 On ch=1 n=e5 v=0
287667 On ch=1 n=c#5 v=0
287672 On ch=1 n=f5 v=74
287672 On ch=1 n=d5 v=70
287702 Par ch=1 c=64 v=24
287712 On ch=1 n=d5 v=0
287712 Par ch=1 c=64 v=88
287722 On ch=1 n=f5 v=0
287722 Par ch=1 c=64 v=127
287827 Par ch=1 c=64 v=104
287837 Par ch=1 c=64 v=72
287847 Par ch=1 c=64 v=40
287857 Par ch=1 c=64 v=24
287867 Par ch=1 c=64 v=0
287967 On ch=1 n=c7 v=93
287972 On ch=1 n=c6 v=77
287972 On ch=1 n=e6 v=79
287987 On ch=1 n=c3 v=56
287987 Par ch=1 c=64 v=56
287992 On ch=1 n=c4 v=62
287997 Par ch=1 c=64 v=127
288012 On ch=1 n=c3 v=0
288022 On ch=1 n=e6 v=0
288022 On ch=1 n=c6 v=0
288022 On ch=1 n=c7 v=0
288032 On ch=1 n=c4 v=0
288202 On ch=1 n=d#4 v=61
288207 On ch=1 n=f#4 v=43
288252 On ch=1 n=e4 v=69
288257 On ch=1 n=f#4 v=0
288257 On ch=1 n=d#4 v=0
288257 Par ch=1 c=64 v=88
288267 On ch=1 n=g4 v=72
288267 Par ch=1 c=64 v=56
288277 Par ch=1 c=64 v=24
288287 Par ch=1 c=64 v=0
288297 On ch=1 n=e4 v=0
288302 On ch=1 n=g4 v=0
288477 On ch=1 n=b4 v=55
288482 On ch=1 n=d#5 v=43
288497 Par ch=1 c=64 v=40
288502 On ch=1 n=c5 v=64
288507 Par ch=1 c=64 v=104
288517 Par ch=1 c=64 v=127
288532 On ch=1 n=b4 v=0
288532 On ch=1 n=e5 v=64
288562 On ch=1 n=c5 v=0
288572 On ch=1 n=d#5 v=0
288577 On ch=1 n=e5 v=0
288642 Par ch=1 c=64 v=88
288652 Par ch=1 c=64 v=56
288662 Par ch=1 c=64 v=24
288672 Par ch=1 c=64 v=0
288812 On ch=1 n=c7 v=92
288817 On ch=1 n=g6 v=81
288817 On ch=1 n=c6 v=82
288827 Par ch=1 c=64 v=56
288832 On ch=1 n=e3 v=57
288837 On ch=1 n=e4 v=45
288842 Par ch=1 c=64 v=127
288862 On ch=1 n=e3 v=0
288862 On ch=1 n=c6 v=0
288872 On ch=1 n=g6 v=0
288872 On ch=1 n=c7 v=0
288882 On ch=1 n=e4 v=0
289047 On ch=1 n=f#4 v=47
289052 On ch=1 n=b4 v=60
289087 On ch=1 n=g4 v=65
289097 On ch=1 n=f#4 v=0
289102 On ch=1 n=b4 v=0
289107 On ch=1 n=c5 v=74
289122 Par ch=1 c=64 v=88
289132 Par ch=1 c=64 v=56
289137 On ch=1 n=g4 v=0
289142 On ch=1 n=c5 v=0
289142 Par ch=1 c=64 v=40
289152 Par ch=1 c=64 v=0
289307 On ch=1 n=d#5 v=45
289327 On ch=1 n=f#5 v=37
289332 On ch=1 n=e5 v=70
289377 On ch=1 n=g5 v=76
289397 On ch=1 n=d#5 v=0
289402 On ch=1 n=e5 v=0
289407 Par ch=1 c=64 v=72
289412 On ch=1 n=f#5 v=0
289422 On ch=1 n=g5 v=0
289422 Par ch=1 c=64 v=127
289572 On ch=1 n=a#6 v=81
289577 On ch=1 n=a#5 v=65
289607 On ch=1 n=a#5 v=0
289617 On ch=1 n=a#6 v=0
289622 Par ch=1 c=64 v=88
289632 Par ch=1 c=64 v=56
289642 Par ch=1 c=64 v=24
289647 Par ch=1 c=64 v=0
289652 On ch=1 n=a6 v=85
289662 On ch=1 n=g6 v=70
289662 On ch=1 n=a5 v=68
289687 On ch=1 n=f3 v=59
289692 On ch=1 n=f4 v=52
289712 Par ch=1 c=64 v=40
289717 On ch=1 n=g6 v=0
289722 On ch=1 n=a5 v=0
289722 Par ch=1 c=64 v=104
289727 On ch=1 n=f3 v=0
289732 On ch=1 n=a6 v=0
289732 Par ch=1 c=64 v=127
289742 On ch=1 n=f4 v=0
289887 On ch=1 n=g#4 v=43
289912 On ch=1 n=b4 v=26
289932 On ch=1 n=a4 v=74
289942 On ch=1 n=b4 v=0
289942 On ch=1 n=g#4 v=0
289952 On ch=1 n=c5 v=64
289982 On ch=1 n=a4 v=0
289982 Par ch=1 c=64 v=104
289992 On ch=1 n=c5 v=0
289992 Par ch=1 c=64 v=88
290012 Par ch=1 c=64 v=72
290022 Par ch=1 c=64 v=56
290042 Par ch=1 c=64 v=40
290052 Par ch=1 c=64 v=24
290072 Par ch=1 c=64 v=0
290157 On ch=1 n=e5 v=57
290172 On ch=1 n=g#5 v=43
290182 On ch=1 n=f5 v=60
290217 On ch=1 n=a5 v=81
290222 On ch=1 n=e5 v=0
290222 Par ch=1 c=64 v=24
290232 On ch=1 n=f5 v=0
290232 Par ch=1 c=64 v=88
290237 On ch=1 n=g#5 v=0
290242 Par ch=1 c=64 v=127
290252 On ch=1 n=a5 v=0
290392 On ch=1 n=c7 v=81
290407 On ch=1 n=b5 v=47
290412 On ch=1 n=c6 v=40
290422 On ch=1 n=c7 v=0
290427 On ch=1 n=b5 v=0
290432 On ch=1 n=c6 v=0
290472 Par ch=1 c=64 v=104
290482 Par ch=1 c=64 v=72
290492 On ch=1 n=f6 v=90
290492 On ch=1 n=f5 v=77
290492 Par ch=1 c=64 v=24
290497 On ch=1 n=a5 v=66
290502 Par ch=1 c=64 v=0
290517 On ch=1 n=f3 v=54
290532 On ch=1 n=f4 v=21
290542 On ch=1 n=f3 v=0
290542 Par ch=1 c=64 v=24
290552 Par ch=1 c=64 v=88
290562 Par ch=1 c=64 v=127
290572 On ch=1 n=f6 v=0
290577 On ch=1 n=f4 v=0
290597 On ch=1 n=a5 v=0
290622 On ch=1 n=f5 v=0
290717 On ch=1 n=g#4 v=53
290722 On ch=1 n=b4 v=64
290767 On ch=1 n=b4 v=0
290767 On ch=1 n=a4 v=63
290772 On ch=1 n=c5 v=67
290782 On ch=1 n=g#4 v=0
290792 Par ch=1 c=64 v=104
290797 On ch=1 n=a4 v=0
290802 Par ch=1 c=64 v=72
290807 On ch=1 n=c5 v=0
290807 Par ch=1 c=64 v=56
290822 Par ch=1 c=64 v=40
290832 Par ch=1 c=64 v=24
290842 Par ch=1 c=64 v=0
290987 On ch=1 n=e5 v=64
290997 On ch=1 n=g#5 v=43
291002 On ch=1 n=f5 v=64
291052 On ch=1 n=e5 v=0
291052 On ch=1 n=a5 v=75
291057 Par ch=1 c=64 v=40
291067 On ch=1 n=f5 v=0
291072 Par ch=1 c=64 v=104
291082 On ch=1 n=g#5 v=0
291082 Par ch=1 c=64 v=127
291097 On ch=1 n=a5 v=0
291192 Par ch=1 c=64 v=88
291202 Par ch=1 c=64 v=72
291212 Par ch=1 c=64 v=40
291222 Par ch=1 c=64 v=24
291227 Par ch=1 c=64 v=0
291342 On ch=1 n=e7 v=90
291347 On ch=1 n=g#6 v=73
291347 On ch=1 n=e6 v=74
291357 On ch=1 n=e3 v=58
291362 On ch=1 n=e4 v=61
291362 Par ch=1 c=64 v=56
291372 Par ch=1 c=64 v=127
291377 On ch=1 n=e3 v=0
291387 On ch=1 n=e6 v=0
291392 On ch=1 n=e7 v=0
291397 On ch=1 n=g#6 v=0
291407 On ch=1 n=e4 v=0
291567 On ch=1 n=g4 v=54
291577 On ch=1 n=a#4 v=50
291622 On ch=1 n=g#4 v=61
291627 On ch=1 n=a#4 v=0
291627 On ch=1 n=g4 v=0
291632 On ch=1 n=b4 v=64
291642 Par ch=1 c=64 v=88
291652 Par ch=1 c=64 v=56
291657 On ch=1 n=b4 v=0
291657 On ch=1 n=g#4 v=0
291662 Par ch=1 c=64 v=40
291672 Par ch=1 c=64 v=0
291827 On ch=1 n=d#5 v=34
291857 On ch=1 n=e5 v=69
291862 On ch=1 n=g5 v=54
291892 On ch=1 n=d#5 v=0
291892 Par ch=1 c=64 v=40
291897 On ch=1 n=g#5 v=77
291902 Par ch=1 c=64 v=104
291912 On ch=1 n=e5 v=0
291912 Par ch=1 c=64 v=127
291927 On ch=1 n=g5 v=0
291937 On ch=1 n=g#5 v=0
292022 Par ch=1 c=64 v=88
292032 Par ch=1 c=64 v=56
292042 Par ch=1 c=64 v=40
292052 Par ch=1 c=64 v=0
292157 On ch=1 n=e7 v=88
292167 On ch=1 n=b6 v=79
292167 On ch=1 n=e6 v=68
292182 On ch=1 n=g#3 v=52
292182 On ch=1 n=g#4 v=47
292182 Par ch=1 c=64 v=72
292192 Par ch=1 c=64 v=127
292207 On ch=1 n=e7 v=0
292212 On ch=1 n=e6 v=0
292222 On ch=1 n=b6 v=0
292227 On ch=1 n=g#3 v=0
292232 On ch=1 n=g#4 v=0
292447 On ch=1 n=d#5 v=33
292457 On ch=1 n=a#4 v=63
292472 On ch=1 n=e5 v=80
292477 On ch=1 n=d#5 v=0
292492 On ch=1 n=b4 v=71
292497 On ch=1 n=a#4 v=0
292532 On ch=1 n=b4 v=0
292537 On ch=1 n=e5 v=0
292542 Par ch=1 c=64 v=88
292552 Par ch=1 c=64 v=56
292562 Par ch=1 c=64 v=40
292572 Par ch=1 c=64 v=24
292612 Par ch=1 c=64 v=0
292717 On ch=1 n=g5 v=60
292722 On ch=1 n=g#5 v=67
292722 Par ch=1 c=64 v=24
292732 On ch=1 n=a#5 v=31
292732 On ch=1 n=b5 v=75
292732 Par ch=1 c=64 v=72
292742 Par ch=1 c=64 v=127
292762 On ch=1 n=g#5 v=0
292762 On ch=1 n=g5 v=0
292772 On ch=1 n=a#5 v=0
292777 On ch=1 n=b5 v=0
292912 Par ch=1 c=64 v=88
292917 On ch=1 n=d7 v=90
292932 On ch=1 n=d6 v=54
292932 Par ch=1 c=64 v=56
292942 Par ch=1 c=64 v=40
292947 On ch=1 n=a6 v=27
292952 On ch=1 n=d6 v=0
292952 Par ch=1 c=64 v=24
292962 On ch=1 n=d7 v=0
292962 Par ch=1 c=64 v=0
292967 On ch=1 n=a6 v=0
293002 On ch=1 n=c#7 v=93
293007 On ch=1 n=c#6 v=79
293012 On ch=1 n=a6 v=66
293027 On ch=1 n=a6 v=0
293027 On ch=1 n=a3 v=58
293032 On ch=1 n=a4 v=42
293032 Par ch=1 c=64 v=24
293042 On ch=1 n=c#6 v=0
293042 Par ch=1 c=64 v=88
293047 On ch=1 n=a3 v=0
293052 Par ch=1 c=64 v=127
293072 On ch=1 n=c#7 v=0
293082 On ch=1 n=a4 v=0
293227 On ch=1 n=c5 v=47
293252 On ch=1 n=d#5 v=44
293277 On ch=1 n=c#5 v=68
293287 On ch=1 n=d#5 v=0
293292 On ch=1 n=c5 v=0
293297 On ch=1 n=e5 v=70
293327 On ch=1 n=c#5 v=0
293342 On ch=1 n=e5 v=0
293452 Par ch=1 c=64 v=104
293462 Par ch=1 c=64 v=88
293472 Par ch=1 c=64 v=56
293482 Par ch=1 c=64 v=24
293492 Par ch=1 c=64 v=0
293497 On ch=1 n=g#5 v=34
293522 On ch=1 n=a5 v=67
293527 On ch=1 n=c6 v=63
293552 Par ch=1 c=64 v=40
293562 On ch=1 n=c#6 v=79
293562 Par ch=1 c=64 v=104
293567 On ch=1 n=g#5 v=0
293572 On ch=1 n=a5 v=0
293572 Par ch=1 c=64 v=127
293587 On ch=1 n=c6 v=0
293597 On ch=1 n=c#6 v=0
293742 On ch=1 n=e7 v=85
293752 On ch=1 n=e6 v=65
293777 On ch=1 n=e6 v=0
293777 On ch=1 n=e7 v=0
293842 On ch=1 n=a6 v=89
293842 On ch=1 n=a5 v=81
293842 Par ch=1 c=64 v=104
293847 On ch=1 n=c#6 v=63
293852 Par ch=1 c=64 v=56
293862 Par ch=1 c=64 v=0
293867 On ch=1 n=a4 v=51
293872 On ch=1 n=a3 v=52
293912 On ch=1 n=a3 v=0
293912 Par ch=1 c=64 v=56
293922 Par ch=1 c=64 v=127
293942 On ch=1 n=a4 v=0
293962 On ch=1 n=a6 v=0
294007 On ch=1 n=c#6 v=0
294012 On ch=1 n=a5 v=0
294062 On ch=1 n=c5 v=65
294092 On ch=1 n=d#5 v=28
294127 On ch=1 n=d#5 v=0
294127 On ch=1 n=c5 v=0
294127 On ch=1 n=c#5 v=59
294147 On ch=1 n=e5 v=63
294172 On ch=1 n=e5 v=0
294172 On ch=1 n=c#5 v=0
294332 On ch=1 n=g#5 v=62
294342 On ch=1 n=c6 v=70
294377 On ch=1 n=a5 v=25
294392 On ch=1 n=c#6 v=55
294397 On ch=1 n=g#5 v=0
294407 On ch=1 n=c6 v=0
294417 On ch=1 n=a5 v=0
294442 On ch=1 n=c#6 v=0
294577 On ch=1 n=a6 v=93
294582 On ch=1 n=a5 v=82
294597 On ch=1 n=a5 v=0
294607 On ch=1 n=a3 v=67
294612 On ch=1 n=a4 v=46
294622 On ch=1 n=a6 v=0
294627 On ch=1 n=a3 v=0
294647 On ch=1 n=a4 v=0
294732 Par ch=1 c=64 v=88
294742 On ch=1 n=g6 v=96
294742 On ch=1 n=g7 v=103
294747 On ch=1 n=c#7 v=81
294747 Par ch=1 c=64 v=0
294752 On ch=1 n=a#4 v=71
294757 On ch=1 n=d#4 v=76
294757 On ch=1 n=a#3 v=75
294812 Par ch=1 c=64 v=88
294822 On ch=1 n=d#4 v=0
294822 Par ch=1 c=64 v=127
294832 On ch=1 n=a#3 v=0
294847 On ch=1 n=a#4 v=0
294862 On ch=1 n=g7 v=0
294882 On ch=1 n=c#7 v=0
294892 On ch=1 n=g6 v=0
294972 On ch=1 n=d#5 v=64
294972 On ch=1 n=f#5 v=60
295012 On ch=1 n=f#5 v=0
295017 On ch=1 n=e5 v=70
295027 On ch=1 n=g5 v=68
295042 On ch=1 n=d#5 v=0
295057 On ch=1 n=e5 v=0
295067 On ch=1 n=g5 v=0
295102 Par ch=1 c=64 v=104
295112 Par ch=1 c=64 v=88
295122 Par ch=1 c=64 v=72
295142 Par ch=1 c=64 v=56
295152 Par ch=1 c=64 v=40
295162 Par ch=1 c=64 v=24
295172 Par ch=1 c=64 v=0
295252 On ch=1 n=c6 v=48
295262 On ch=1 n=d#6 v=23
295277 On ch=1 n=e6 v=82
295282 On ch=1 n=c#6 v=69
295282 Par ch=1 c=64 v=56
295292 On ch=1 n=c6 v=0
295292 Par ch=1 c=64 v=104
295302 Par ch=1 c=64 v=127
295322 On ch=1 n=d#6 v=0
295332 On ch=1 n=e6 v=0
295342 On ch=1 n=c#6 v=0
295392 Par ch=1 c=64 v=88
295402 Par ch=1 c=64 v=56
295412 Par ch=1 c=64 v=40
295422 Par ch=1 c=64 v=0
295537 On ch=1 n=a6 v=82
295542 On ch=1 n=a5 v=74
295552 Par ch=1 c=64 v=40
295557 On ch=1 n=a3 v=59
295562 On ch=1 n=a4 v=52
295562 Par ch=1 c=64 v=88
295572 Par ch=1 c=64 v=127
295577 On ch=1 n=a5 v=0
295582 On ch=1 n=a3 v=0
295592 On ch=1 n=a6 v=0
295602 On ch=1 n=a4 v=0
295752 On ch=1 n=d#5 v=49
295762 On ch=1 n=f#5 v=58
295797 On ch=1 n=d#5 v=0
295797 On ch=1 n=e5 v=70
295812 On ch=1 n=f#5 v=0
295812 On ch=1 n=g5 v=74
295822 Par ch=1 c=64 v=104
295832 Par ch=1 c=64 v=88
295837 On ch=1 n=e5 v=0
295842 On ch=1 n=g5 v=0
295842 Par ch=1 c=64 v=56
295852 Par ch=1 c=64 v=40
295872 Par ch=1 c=64 v=24
295967 Par ch=1 c=64 v=40
296017 On ch=1 n=c6 v=63
296027 On ch=1 n=d#6 v=50
296032 Par ch=1 c=64 v=24
296052 On ch=1 n=c#6 v=63
296062 Par ch=1 c=64 v=0
296067 On ch=1 n=c6 v=0
296072 On ch=1 n=e6 v=72
296102 On ch=1 n=c#6 v=0
296102 Par ch=1 c=64 v=24
296112 Par ch=1 c=64 v=56
296117 On ch=1 n=d#6 v=0
296122 Par ch=1 c=64 v=88
296132 On ch=1 n=e6 v=0
296132 Par ch=1 c=64 v=127
296267 On ch=1 n=a6 v=93
296267 On ch=1 n=a5 v=81
296267 On ch=1 n=a4 v=70
296267 On ch=1 n=a3 v=70
296267 Par ch=1 c=64 v=104
296277 Par ch=1 c=64 v=127
296287 On ch=1 n=a5 v=0
296317 On ch=1 n=a3 v=0
296317 On ch=1 n=a4 v=0
296317 On ch=1 n=a6 v=0
296412 On ch=1 n=f#7 v=97
296417 On ch=1 n=f#6 v=89
296417 Par ch=1 c=64 v=72
296422 On ch=1 n=d#4 v=65
296422 On ch=1 n=a#3 v=65
296422 On ch=1 n=c7 v=87
296422 On ch=1 n=a#4 v=62
296427 Par ch=1 c=64 v=0
296467 Par ch=1 c=64 v=56
296477 Par ch=1 c=64 v=127
296482 On ch=1 n=c7 v=0
296482 On ch=1 n=a#3 v=0
296482 On ch=1 n=d#4 v=0
296487 On ch=1 n=f#6 v=0
296497 On ch=1 n=a#4 v=0
296497 On ch=1 n=f#7 v=0
296642 On ch=1 n=d5 v=24
296647 On ch=1 n=f5 v=46
296672 On ch=1 n=d5 v=0
296672 On ch=1 n=d#5 v=65
296687 On ch=1 n=f5 v=0
296697 On ch=1 n=f#5 v=62
296707 Par ch=1 c=64 v=88
296717 Par ch=1 c=64 v=72
296727 On ch=1 n=f#5 v=0
296727 On ch=1 n=d#5 v=0
296727 Par ch=1 c=64 v=56
296737 Par ch=1 c=64 v=40
296777 Par ch=1 c=64 v=24
296807 Par ch=1 c=64 v=0
296907 On ch=1 n=b5 v=64
296907 On ch=1 n=d6 v=63
296927 Par ch=1 c=64 v=24
296932 On ch=1 n=c6 v=70
296937 Par ch=1 c=64 v=56
296947 On ch=1 n=d#6 v=73
296947 Par ch=1 c=64 v=88
296957 On ch=1 n=b5 v=0
296957 Par ch=1 c=64 v=104
296977 On ch=1 n=c6 v=0
296977 On ch=1 n=d6 v=0
296997 On ch=1 n=d#6 v=0
297027 Par ch=1 c=64 v=88
297037 Par ch=1 c=64 v=72
297047 Par ch=1 c=64 v=56
297057 Par ch=1 c=64 v=40
297067 Par ch=1 c=64 v=24
297082 Par ch=1 c=64 v=0
297192 On ch=1 n=a6 v=82
297192 On ch=1 n=a5 v=68
297197 Par ch=1 c=64 v=40
297207 On ch=1 n=a3 v=60
297207 Par ch=1 c=64 v=88
297212 On ch=1 n=a4 v=53
297212 Par ch=1 c=64 v=127
297227 On ch=1 n=a3 v=0
297237 On ch=1 n=a5 v=0
297247 On ch=1 n=a4 v=0
297252 On ch=1 n=a6 v=0
297412 On ch=1 n=f5 v=51
297412 On ch=1 n=d5 v=34
297432 On ch=1 n=d#5 v=65
297442 On ch=1 n=d5 v=0
297442 On ch=1 n=f5 v=0
297457 On ch=1 n=f#5 v=53
297487 On ch=1 n=d#5 v=0
297502 On ch=1 n=f#5 v=0
297617 Par ch=1 c=64 v=104
297647 Par ch=1 c=64 v=88
297672 On ch=1 n=b5 v=56
297677 On ch=1 n=d#6 v=69
297677 On ch=1 n=d6 v=64
297677 Par ch=1 c=64 v=72
297682 On ch=1 n=c6 v=70
297682 Par ch=1 c=64 v=56
297697 On ch=1 n=b5 v=0
297702 On ch=1 n=c6 v=0
297702 Par ch=1 c=64 v=40
297712 On ch=1 n=d6 v=0
297722 On ch=1 n=d#6 v=0
297727 Par ch=1 c=64 v=24
297737 Par ch=1 c=64 v=0
297817 Par ch=1 c=64 v=40
297827 On ch=1 n=a4 v=71
297827 On ch=1 n=a6 v=92
297827 On ch=1 n=a5 v=78
297827 On ch=1 n=a3 v=74
297827 Par ch=1 c=64 v=72
297837 Par ch=1 c=64 v=127
297847 On ch=1 n=a3 v=0
297847 On ch=1 n=a5 v=0
297867 On ch=1 n=a6 v=0
297872 On ch=1 n=a4 v=0
297937 Par ch=1 c=64 v=88
297947 Par ch=1 c=64 v=72
297957 Par ch=1 c=64 v=40
297967 Par ch=1 c=64 v=0
297987 On ch=1 n=f7 v=102
297992 On ch=1 n=f6 v=97
297997 On ch=1 n=g#6 v=79
298007 On ch=1 n=d4 v=67
298007 On ch=1 n=b3 v=65
298007 On ch=1 n=b4 v=58
298037 Par ch=1 c=64 v=56
298047 On ch=1 n=b3 v=0
298047 Par ch=1 c=64 v=127
298057 On ch=1 n=d4 v=0
298067 On ch=1 n=b4 v=0
298077 On ch=1 n=f7 v=0
298087 On ch=1 n=g#6 v=0
298112 On ch=1 n=f6 v=0
298212 On ch=1 n=e5 v=62
298217 On ch=1 n=c#5 v=38
298257 On ch=1 n=e5 v=0
298257 On ch=1 n=d5 v=78
298267 On ch=1 n=c#5 v=0
298267 On ch=1 n=f5 v=76
298287 Par ch=1 c=64 v=104
298297 On ch=1 n=d5 v=0
298297 Par ch=1 c=64 v=72
298302 On ch=1 n=f5 v=0
298307 Par ch=1 c=64 v=40
298317 Par ch=1 c=64 v=24
298327 Par ch=1 c=64 v=0
298502 On ch=1 n=a#5 v=40
298502 On ch=1 n=g5 v=60
298512 On ch=1 n=b5 v=83
298517 On ch=1 n=g#5 v=62
298517 Par ch=1 c=64 v=40
298527 Par ch=1 c=64 v=104
298537 On ch=1 n=g#5 v=0
298537 On ch=1 n=g5 v=0
298537 Par ch=1 c=64 v=127
298542 On ch=1 n=b5 v=0
298557 On ch=1 n=a#5 v=0
298622 Par ch=1 c=64 v=104
298637 Par ch=1 c=64 v=72
298647 Par ch=1 c=64 v=56
298657 Par ch=1 c=64 v=40
298677 Par ch=1 c=64 v=24
298687 Par ch=1 c=64 v=0
298702 On ch=1 n=f7 v=94
298712 On ch=1 n=f6 v=88
298732 On ch=1 n=f6 v=0
298732 On ch=1 n=f7 v=0
298777 On ch=1 n=e7 v=103
298782 On ch=1 n=e6 v=94
298782 On ch=1 n=g#6 v=87
298797 On ch=1 n=e3 v=64
298797 On ch=1 n=b3 v=66
298797 On ch=1 n=e4 v=70
298817 On ch=1 n=g#6 v=0
298817 On ch=1 n=e6 v=0
298817 Par ch=1 c=64 v=104
298822 On ch=1 n=b3 v=0
298822 On ch=1 n=e3 v=0
298827 On ch=1 n=e4 v=0
298827 On ch=1 n=e7 v=0
298827 Par ch=1 c=64 v=127
299012 On ch=1 n=a#4 v=43
299017 On ch=1 n=g4 v=22
299042 On ch=1 n=g#4 v=73
299047 On ch=1 n=g4 v=0
299047 On ch=1 n=a#4 v=0
299047 On ch=1 n=b4 v=66
299067 Par ch=1 c=64 v=104
299077 Par ch=1 c=64 v=72
299082 On ch=1 n=g#4 v=0
299087 On ch=1 n=b4 v=0
299087 Par ch=1 c=64 v=40
299097 Par ch=1 c=64 v=24
299107 Par ch=1 c=64 v=0
299297 On ch=1 n=d#5 v=60
299307 On ch=1 n=e5 v=74
299312 On ch=1 n=g5 v=62
299327 Par ch=1 c=64 v=72
299332 On ch=1 n=g#5 v=67
299337 On ch=1 n=d#5 v=0
299337 Par ch=1 c=64 v=127
299342 On ch=1 n=e5 v=0
299352 On ch=1 n=g5 v=0
299362 On ch=1 n=g#5 v=0
299437 Par ch=1 c=64 v=88
299447 Par ch=1 c=64 v=56
299457 Par ch=1 c=64 v=40
299467 Par ch=1 c=64 v=24
299477 Par ch=1 c=64 v=0
299502 On ch=1 n=d7 v=86
299512 On ch=1 n=d6 v=53
299532 On ch=1 n=d6 v=0
299547 On ch=1 n=d7 v=0
299587 On ch=1 n=c#7 v=92
299587 On ch=1 n=c#6 v=86
299587 On ch=1 n=a6 v=82
299597 On ch=1 n=a3 v=71
299602 On ch=1 n=a4 v=63
299602 On ch=1 n=e4 v=67
299607 On ch=1 n=a6 v=0
299607 Par ch=1 c=64 v=40
299617 On ch=1 n=a3 v=0
299617 On ch=1 n=c#6 v=0
299617 Par ch=1 c=64 v=127
299622 On ch=1 n=e4 v=0
299637 On ch=1 n=a4 v=0
299642 On ch=1 n=c#7 v=0
299807 On ch=1 n=c5 v=72
299822 On ch=1 n=d#5 v=60
299857 On ch=1 n=d#5 v=0
299857 On ch=1 n=c#5 v=61
299857 Par ch=1 c=64 v=104
299867 On ch=1 n=e5 v=77
299867 Par ch=1 c=64 v=72
299872 On ch=1 n=c5 v=0
299877 Par ch=1 c=64 v=40
299887 Par ch=1 c=64 v=0
299902 On ch=1 n=c#5 v=0
299912 On ch=1 n=e5 v=0
300072 On ch=1 n=g#5 v=58
300092 On ch=1 n=c6 v=66
300097 On ch=1 n=a5 v=66
300117 Par ch=1 c=64 v=72
300127 On ch=1 n=c#6 v=78
300127 Par ch=1 c=64 v=127
300137 On ch=1 n=g#5 v=0
300142 On ch=1 n=a5 v=0
300157 On ch=1 n=c6 v=0
300167 On ch=1 n=c#6 v=0
300227 Par ch=1 c=64 v=104
300237 Par ch=1 c=64 v=72
300247 Par ch=1 c=64 v=56
300257 Par ch=1 c=64 v=40
300267 Par ch=1 c=64 v=24
300277 Par ch=1 c=64 v=0
300317 On ch=1 n=e7 v=81
300327 On ch=1 n=d6 v=51
300327 On ch=1 n=e6 v=44
300347 On ch=1 n=d6 v=0
300347 On ch=1 n=e7 v=0
300352 On ch=1 n=e6 v=0
300402 On ch=1 n=a6 v=92
300402 On ch=1 n=a5 v=83
300402 On ch=1 n=c#6 v=73
300422 On ch=1 n=a4 v=46
300432 On ch=1 n=a3 v=54
300437 Par ch=1 c=64 v=24
300442 On ch=1 n=a5 v=0
300447 Par ch=1 c=64 v=72
300457 Par ch=1 c=64 v=127
300467 On ch=1 n=c#6 v=0
300482 On ch=1 n=a3 v=0
300502 On ch=1 n=a4 v=0
300522 On ch=1 n=a6 v=0
300617 On ch=1 n=c5 v=81
300622 On ch=1 n=d#5 v=73
300652 On ch=1 n=c#5 v=56
300662 On ch=1 n=c5 v=0
300667 On ch=1 n=d#5 v=0
300682 On ch=1 n=e5 v=64
300687 Par ch=1 c=64 v=104
300697 Par ch=1 c=64 v=88
300707 On ch=1 n=e5 v=0
300707 On ch=1 n=c#5 v=0
300707 Par ch=1 c=64 v=56
300717 Par ch=1 c=64 v=40
300727 Par ch=1 c=64 v=24
300737 Par ch=1 c=64 v=0
300897 On ch=1 n=g#5 v=43
300897 Par ch=1 c=64 v=40
300907 Par ch=1 c=64 v=88
300912 On ch=1 n=c6 v=68
300917 Par ch=1 c=64 v=127
300922 On ch=1 n=c#6 v=65
300922 On ch=1 n=a5 v=51
300942 On ch=1 n=a5 v=0
300952 On ch=1 n=c6 v=0
300952 On ch=1 n=g#5 v=0
300957 On ch=1 n=c#6 v=0
301007 Par ch=1 c=64 v=104
301017 Par ch=1 c=64 v=88
301047 Par ch=1 c=64 v=127
301062 On ch=1 n=a3 v=83
301067 On ch=1 n=a2 v=73
301067 On ch=1 n=a4 v=82
301072 On ch=1 n=a5 v=94
301087 On ch=1 n=a2 v=0
301092 On ch=1 n=a4 v=0
301097 On ch=1 n=a3 v=0
301117 On ch=1 n=a5 v=0
301187 Par ch=1 c=64 v=104
301197 Par ch=1 c=64 v=72
301207 Par ch=1 c=64 v=24
301217 Par ch=1 c=64 v=0
301232 On ch=1 n=g6 v=105
301237 On ch=1 n=g5 v=89
301242 On ch=1 n=c#6 v=77
301252 On ch=1 n=a#3 v=76
301252 On ch=1 n=a#2 v=68
301252 On ch=1 n=d#3 v=57
301297 Par ch=1 c=64 v=72
301302 On ch=1 n=a#2 v=0
301307 On ch=1 n=d#3 v=0
301307 Par ch=1 c=64 v=127
301317 On ch=1 n=a#3 v=0
301357 On ch=1 n=g6 v=0
301372 On ch=1 n=c#6 v=0
301387 On ch=1 n=g5 v=0
301452 On ch=1 n=d#4 v=62
301462 On ch=1 n=f#4 v=56
301492 On ch=1 n=d#4 v=0
301497 On ch=1 n=e4 v=64
301507 On ch=1 n=f#4 v=0
301512 On ch=1 n=g4 v=76
301537 Par ch=1 c=64 v=88
301547 On ch=1 n=e4 v=0
301547 Par ch=1 c=64 v=56
301552 On ch=1 n=g4 v=0
301557 Par ch=1 c=64 v=40
301567 Par ch=1 c=64 v=0
301732 On ch=1 n=c5 v=44
301752 On ch=1 n=d#5 v=45
301767 On ch=1 n=c#5 v=73
301772 On ch=1 n=e5 v=79
301787 On ch=1 n=c5 v=0
301812 On ch=1 n=e5 v=0
301817 On ch=1 n=c#5 v=0
301817 On ch=1 n=d#5 v=0
302017 On ch=1 n=a5 v=78
302022 On ch=1 n=a4 v=62
302027 Par ch=1 c=64 v=40
302032 On ch=1 n=a2 v=58
302037 On ch=1 n=a3 v=62
302037 Par ch=1 c=64 v=88
302047 Par ch=1 c=64 v=127
302052 On ch=1 n=a2 v=0
302057 On ch=1 n=a4 v=0
302067 On ch=1 n=a5 v=0
302072 On ch=1 n=a3 v=0
302247 On ch=1 n=f#4 v=57
302252 On ch=1 n=d#4 v=53
302272 On ch=1 n=e4 v=66
302292 On ch=1 n=d#4 v=0
302292 On ch=1 n=f#4 v=0
302307 On ch=1 n=g4 v=67
302337 On ch=1 n=e4 v=0
302347 On ch=1 n=g4 v=0
302467 Par ch=1 c=64 v=104
302487 Par ch=1 c=64 v=88
302497 Par ch=1 c=64 v=72
302507 Par ch=1 c=64 v=56
302512 On ch=1 n=c5 v=43
302517 On ch=1 n=d#5 v=65
302522 On ch=1 n=c#5 v=59
302532 Par ch=1 c=64 v=40
302537 Par ch=1 c=64 v=24
302547 On ch=1 n=c5 v=0
302552 Par ch=1 c=64 v=0
302572 On ch=1 n=c#5 v=0
302597 On ch=1 n=d#5 v=0
302677 On ch=1 n=a5 v=94
302677 On ch=1 n=a4 v=84
302682 On ch=1 n=a3 v=80
302687 On ch=1 n=a2 v=64
302707 On ch=1 n=a2 v=0
302712 On ch=1 n=a4 v=0
302722 On ch=1 n=a3 v=0
302722 On ch=1 n=a5 v=0
302837 On ch=1 n=f#6 v=97
302837 On ch=1 n=f#5 v=85
302837 On ch=1 n=c6 v=89
302842 On ch=1 n=a#3 v=77
302847 On ch=1 n=a#2 v=67
302847 On ch=1 n=d#3 v=64
302857 On ch=1 n=c6 v=0
302867 Par ch=1 c=64 v=72
302872 On ch=1 n=f#5 v=0
302877 On ch=1 n=a#3 v=0
302877 Par ch=1 c=64 v=127
302882 On ch=1 n=a#2 v=0
302887 On ch=1 n=d#3 v=0
302907 On ch=1 n=f#6 v=0
303027 On ch=1 n=d4 v=63
303052 On ch=1 n=f4 v=44
303077 On ch=1 n=d#4 v=78
303087 On ch=1 n=d4 v=0
303097 On ch=1 n=f4 v=0
303097 Par ch=1 c=64 v=104
303102 On ch=1 n=f#4 v=78
303107 Par ch=1 c=64 v=72
303117 Par ch=1 c=64 v=40
303127 Par ch=1 c=64 v=0
303132 On ch=1 n=d#4 v=0
303137 On ch=1 n=f#4 v=0
303327 On ch=1 n=b4 v=59
303332 On ch=1 n=d5 v=53
303357 On ch=1 n=c5 v=71
303357 Par ch=1 c=64 v=24
303367 Par ch=1 c=64 v=72
303372 On ch=1 n=d#5 v=69
303377 Par ch=1 c=64 v=127
303382 On ch=1 n=b4 v=0
303402 On ch=1 n=c5 v=0
303412 On ch=1 n=d5 v=0
303422 On ch=1 n=d#5 v=0
303427 Par ch=1 c=64 v=104
303437 Par ch=1 c=64 v=88
303447 Par ch=1 c=64 v=72
303457 Par ch=1 c=64 v=56
303467 Par ch=1 c=64 v=24
303477 Par ch=1 c=64 v=0
303622 On ch=1 n=a5 v=82
303622 On ch=1 n=a4 v=64
303627 On ch=1 n=a2 v=62
303627 Par ch=1 c=64 v=24
303632 On ch=1 n=a3 v=67
303637 Par ch=1 c=64 v=88
303647 Par ch=1 c=64 v=127
303652 On ch=1 n=a2 v=0
303662 On ch=1 n=a4 v=0
303667 On ch=1 n=a5 v=0
303677 On ch=1 n=a3 v=0
303827 On ch=1 n=d4 v=67
303847 On ch=1 n=f4 v=44
303872 On ch=1 n=d#4 v=74
303877 On ch=1 n=d4 v=0
303877 Par ch=1 c=64 v=104
303887 Par ch=1 c=64 v=72
303892 On ch=1 n=f#4 v=70
303897 On ch=1 n=f4 v=0
303897 Par ch=1 c=64 v=40
303907 Par ch=1 c=64 v=24
303917 On ch=1 n=d#4 v=0
303917 Par ch=1 c=64 v=0
303927 On ch=1 n=f#4 v=0
304107 On ch=1 n=b4 v=51
304117 On ch=1 n=c5 v=64
304127 On ch=1 n=d5 v=49
304127 On ch=1 n=d#5 v=58
304147 On ch=1 n=d5 v=0
304147 On ch=1 n=b4 v=0
304157 On ch=1 n=c5 v=0
304172 On ch=1 n=d#5 v=0
304252 Par ch=1 c=64 v=24
304262 Par ch=1 c=64 v=72
304267 On ch=1 n=a5 v=88
304267 On ch=1 n=a4 v=72
304272 Par ch=1 c=64 v=104
304282 Par ch=1 c=64 v=127
304287 On ch=1 n=a4 v=0
304312 On ch=1 n=a5 v=0
304362 Par ch=1 c=64 v=104
304367 Par ch=1 c=64 v=88
304377 Par ch=1 c=64 v=72
304387 Par ch=1 c=64 v=40
304397 Par ch=1 c=64 v=0
304422 On ch=1 n=f6 v=97
304427 On ch=1 n=f5 v=78
304427 On ch=1 n=g#5 v=75
304437 On ch=1 n=b2 v=62
304442 On ch=1 n=b3 v=68
304442 On ch=1 n=d3 v=63
304462 Par ch=1 c=64 v=40
304472 On ch=1 n=b2 v=0
304472 On ch=1 n=f5 v=0
304472 Par ch=1 c=64 v=127
304477 On ch=1 n=d3 v=0
304482 On ch=1 n=b3 v=0
304487 On ch=1 n=f6 v=0
304492 On ch=1 n=g#5 v=0
304602 On ch=1 n=e4 v=36
304642 On ch=1 n=g#4 v=56
304662 On ch=1 n=f4 v=70
304667 On ch=1 n=e4 v=0
304682 On ch=1 n=a4 v=63
304687 Par ch=1 c=64 v=104
304692 On ch=1 n=g#4 v=0
304697 Par ch=1 c=64 v=72
304702 On ch=1 n=f4 v=0
304707 On ch=1 n=a4 v=0
304707 Par ch=1 c=64 v=40
304717 Par ch=1 c=64 v=24
304732 Par ch=1 c=64 v=0
304907 On ch=1 n=c#5 v=64
304907 On ch=1 n=c5 v=68
304907 On ch=1 n=d#5 v=43
304912 On ch=1 n=e5 v=82
304917 Par ch=1 c=64 v=56
304927 On ch=1 n=c5 v=0
304927 Par ch=1 c=64 v=88
304937 On ch=1 n=c#5 v=0
304942 Par ch=1 c=64 v=104
304947 On ch=1 n=e5 v=0
304947 On ch=1 n=d#5 v=0
304992 Par ch=1 c=64 v=88
305002 Par ch=1 c=64 v=72
305012 Par ch=1 c=64 v=40
305027 Par ch=1 c=64 v=24
305037 Par ch=1 c=64 v=0
305092 On ch=1 n=f6 v=92
305097 On ch=1 n=f5 v=71
305122 On ch=1 n=f5 v=0
305127 On ch=1 n=f6 v=0
305187 On ch=1 n=e6 v=93
305187 On ch=1 n=e5 v=82
305192 On ch=1 n=g#5 v=61
305197 On ch=1 n=a#2 v=57
305197 On ch=1 n=a#3 v=56
305222 Par ch=1 c=64 v=56
305232 Par ch=1 c=64 v=127
305237 On ch=1 n=a#2 v=0
305247 On ch=1 n=a#3 v=0
305272 On ch=1 n=e5 v=0
305272 On ch=1 n=e6 v=0
305287 On ch=1 n=g#5 v=0
305407 On ch=1 n=d#4 v=60
305457 On ch=1 n=e4 v=89
305462 On ch=1 n=d#4 v=0
305472 On ch=1 n=e4 v=0
305507 Par ch=1 c=64 v=88
305517 Par ch=1 c=64 v=72
305527 Par ch=1 c=64 v=40
305537 Par ch=1 c=64 v=24
305547 Par ch=1 c=64 v=0
305657 On ch=1 n=g4 v=60
305692 On ch=1 n=g#4 v=82
305712 On ch=1 n=g4 v=0
305717 Par ch=1 c=64 v=40
305727 On ch=1 n=g#4 v=0
305727 Par ch=1 c=64 v=56
305782 Par ch=1 c=64 v=40
305822 Par ch=1 c=64 v=72
305832 Par ch=1 c=64 v=104
305842 Par ch=1 c=64 v=127
305862 On ch=1 n=d6 v=84
305877 On ch=1 n=d5 v=58
305897 On ch=1 n=d5 v=0
305917 On ch=1 n=d6 v=0
306022 On ch=1 n=a5 v=94
306022 Par ch=1 c=64 v=88
306027 On ch=1 n=a4 v=78
306032 On ch=1 n=c#5 v=69
306032 Par ch=1 c=64 v=40
306042 Par ch=1 c=64 v=0
306052 On ch=1 n=a3 v=59
306057 On ch=1 n=a2 v=47
306107 Par ch=1 c=64 v=56
306112 On ch=1 n=a2 v=0
306117 Par ch=1 c=64 v=127
306132 On ch=1 n=a3 v=0
306137 On ch=1 n=a4 v=0
306162 On ch=1 n=c#5 v=0
306202 On ch=1 n=a5 v=0
306272 Par ch=1 c=64 v=56
306282 Par ch=1 c=64 v=0
306297 On ch=1 n=a#3 v=63
306302 On ch=1 n=g4 v=73
306317 Par ch=1 c=64 v=88
306327 Par ch=1 c=64 v=127
306342 On ch=1 n=g4 v=0
306342 On ch=1 n=a#3 v=0
306417 On ch=1 n=c#6 v=77
306417 On ch=1 n=e5 v=68
306442 On ch=1 n=e5 v=0
306467 On ch=1 n=c#6 v=0
306502 Par ch=1 c=64 v=88
306517 Par ch=1 c=64 v=40
306527 On ch=1 n=a#4 v=65
306527 On ch=1 n=c#4 v=56
306527 Par ch=1 c=64 v=0
306552 On ch=1 n=c#4 v=0
306557 Par ch=1 c=64 v=40
306567 Par ch=1 c=64 v=88
306572 On ch=1 n=a#4 v=0
306577 Par ch=1 c=64 v=127
306647 On ch=1 n=g5 v=64
306647 On ch=1 n=e6 v=78
306677 On ch=1 n=g5 v=0
306692 On ch=1 n=e6 v=0
306747 Par ch=1 c=64 v=72
306757 Par ch=1 c=64 v=24
306762 On ch=1 n=e4 v=61
306767 On ch=1 n=c#5 v=62
306767 Par ch=1 c=64 v=0
306782 On ch=1 n=e4 v=0
306797 Par ch=1 c=64 v=56
306807 Par ch=1 c=64 v=104
306817 On ch=1 n=c#5 v=0
306817 Par ch=1 c=64 v=127
306877 On ch=1 n=g6 v=84
306882 On ch=1 n=a#5 v=59
306917 On ch=1 n=a#5 v=0
306937 On ch=1 n=g6 v=0
306962 Par ch=1 c=64 v=88
306972 Par ch=1 c=64 v=40
306987 Par ch=1 c=64 v=0
306997 On ch=1 n=e5 v=76
306997 On ch=1 n=g4 v=69
307017 Par ch=1 c=64 v=72
307027 Par ch=1 c=64 v=104
307037 On ch=1 n=e5 v=0
307037 Par ch=1 c=64 v=127
307042 On ch=1 n=g4 v=0
307112 On ch=1 n=a#6 v=85
307117 On ch=1 n=c#6 v=75
307157 On ch=1 n=c#6 v=0
307192 On ch=1 n=a#6 v=0
307227 Par ch=1 c=64 v=104
307237 Par ch=1 c=64 v=40
307247 On ch=1 n=b6 v=94
307247 Par ch=1 c=64 v=0
307252 On ch=1 n=b5 v=80
307257 On ch=1 n=g#6 v=77
307262 On ch=1 n=f6 v=80
307262 On ch=1 n=d5 v=68
307267 On ch=1 n=d4 v=67
307297 On ch=1 n=b5 v=0
307302 On ch=1 n=f6 v=0
307302 Par ch=1 c=64 v=56
307307 On ch=1 n=d5 v=0
307312 Par ch=1 c=64 v=127
307322 On ch=1 n=d4 v=0
307322 On ch=1 n=g#6 v=0
307332 On ch=1 n=b6 v=0
307422 Par ch=1 c=64 v=72
307432 Par ch=1 c=64 v=40
307442 Par ch=1 c=64 v=0
307527 On ch=1 n=e7 v=97
307532 On ch=1 n=c#7 v=79
307532 On ch=1 n=e6 v=85
307537 On ch=1 n=a6 v=82
307547 On ch=1 n=a4 v=77
307547 On ch=1 n=a3 v=76
307557 Par ch=1 c=64 v=72
307567 Par ch=1 c=64 v=127
307582 On ch=1 n=a3 v=0
307582 On ch=1 n=e6 v=0
307587 On ch=1 n=a6 v=0
307592 On ch=1 n=a4 v=0
307597 On ch=1 n=c#7 v=0
307607 On ch=1 n=e7 v=0
307792 On ch=1 n=a#4 v=62
307797 On ch=1 n=g5 v=74
307797 Par ch=1 c=64 v=72
307807 Par ch=1 c=64 v=0
307837 On ch=1 n=a#4 v=0
307842 On ch=1 n=g5 v=0
307872 Par ch=1 c=64 v=40
307882 Par ch=1 c=64 v=88
307892 Par ch=1 c=64 v=127
307912 On ch=1 n=c#7 v=83
307912 On ch=1 n=e6 v=68
307947 On ch=1 n=e6 v=0
307967 On ch=1 n=c#7 v=0
308017 Par ch=1 c=64 v=72
308022 On ch=1 n=a#5 v=71
308022 On ch=1 n=c#5 v=60
308027 Par ch=1 c=64 v=24
308057 Par ch=1 c=64 v=88
308067 On ch=1 n=c#5 v=0
308067 On ch=1 n=a#5 v=0
308072 Par ch=1 c=64 v=127
308137 On ch=1 n=e7 v=86
308137 On ch=1 n=g6 v=68
308162 On ch=1 n=g6 v=0
308187 On ch=1 n=e7 v=0
308217 Par ch=1 c=64 v=72
308227 Par ch=1 c=64 v=0
308242 On ch=1 n=c#6 v=73
308242 On ch=1 n=e5 v=59
308257 Par ch=1 c=64 v=56
308267 On ch=1 n=e5 v=0
308267 Par ch=1 c=64 v=104
308282 Par ch=1 c=64 v=127
308297 On ch=1 n=c#6 v=0
308357 On ch=1 n=g7 v=86
308362 On ch=1 n=a#6 v=56
308392 On ch=1 n=a#6 v=0
308407 On ch=1 n=g7 v=0
308427 Par ch=1 c=64 v=104
308437 Par ch=1 c=64 v=40
308447 Par ch=1 c=64 v=0
308467 On ch=1 n=g5 v=68
308467 On ch=1 n=e6 v=82
308477 Par ch=1 c=64 v=88
308492 Par ch=1 c=64 v=127
308507 On ch=1 n=e6 v=0
308512 On ch=1 n=g5 v=0
308567 On ch=1 n=c#7 v=84
308567 On ch=1 n=a#7 v=91
308612 On ch=1 n=c#7 v=0
308652 On ch=1 n=a#7 v=0
308692 Par ch=1 c=64 v=56
308702 On ch=1 n=b7 v=105
308702 On ch=1 n=b6 v=89
308702 On ch=1 n=g#7 v=78
308702 Par ch=1 c=64 v=0
308712 On ch=1 n=f7 v=76
308717 On ch=1 n=d6 v=76
308717 On ch=1 n=d5 v=70
308737 On ch=1 n=b6 v=0
308742 Par ch=1 c=64 v=56
308752 On ch=1 n=d6 v=0
308752 On ch=1 n=f7 v=0
308752 Par ch=1 c=64 v=127
308762 On ch=1 n=d5 v=0
308767 On ch=1 n=g#7 v=0
308777 On ch=1 n=b7 v=0
308952 On ch=1 n=e8 v=99
308962 On ch=1 n=c#8 v=78
308962 On ch=1 n=e7 v=82
308962 On ch=1 n=a7 v=83
308967 On ch=1 n=a5 v=79
308967 On ch=1 n=a4 v=70
308972 Par ch=1 c=64 v=104
308982 Par ch=1 c=64 v=40
308992 Par ch=1 c=64 v=0
309057 Par ch=1 c=64 v=24
309067 Par ch=1 c=64 v=88
309077 Par ch=1 c=64 v=127
309112 On ch=1 n=a7 v=0
309127 On ch=1 n=e8 v=0
309137 On ch=1 n=c#8 v=0
309142 On ch=1 n=a5 v=0
309147 On ch=1 n=a4 v=0
309162 On ch=1 n=e7 v=0
309277 Par ch=1 c=64 v=104
309287 Par ch=1 c=64 v=40
309297 Par ch=1 c=64 v=0
309332 On ch=1 n=b7 v=93
309332 On ch=1 n=g#7 v=85
309337 On ch=1 n=b6 v=67
309337 On ch=1 n=d5 v=78
309342 On ch=1 n=d4 v=78
309342 Par ch=1 c=64 v=24
309347 On ch=1 n=f7 v=53
309352 On ch=1 n=b6 v=0
309352 Par ch=1 c=64 v=88
309357 On ch=1 n=c7 v=35
309362 Par ch=1 c=64 v=127
309367 On ch=1 n=f7 v=0
309367 On ch=1 n=d5 v=0
309372 On ch=1 n=c7 v=0
309372 On ch=1 n=g#7 v=0
309377 On ch=1 n=d4 v=0
309377 On ch=1 n=b7 v=0
309467 Par ch=1 c=64 v=56
309477 On ch=1 n=e8 v=92
309477 Par ch=1 c=64 v=0
309482 On ch=1 n=e7 v=82
309482 On ch=1 n=c#8 v=81
309482 On ch=1 n=a7 v=74
309487 On ch=1 n=a4 v=74
309497 On ch=1 n=a3 v=60
309497 Par ch=1 c=64 v=24
309507 Par ch=1 c=64 v=72
309517 Par ch=1 c=64 v=127
309522 On ch=1 n=a4 v=0
309522 On ch=1 n=a7 v=0
309522 On ch=1 n=e8 v=0
309527 On ch=1 n=a3 v=0
309527 On ch=1 n=c#8 v=0
309532 On ch=1 n=e7 v=0
309677 Par ch=1 c=64 v=72
309687 Par ch=1 c=64 v=0
309707 On ch=1 n=b7 v=97
309707 On ch=1 n=b6 v=80
309712 On ch=1 n=g#7 v=85
309712 On ch=1 n=d3 v=71
309712 On ch=1 n=d4 v=77
309717 On ch=1 n=f7 v=79
309732 On ch=1 n=f7 v=0
309732 On ch=1 n=c7 v=39
309737 Par ch=1 c=64 v=56
309742 On ch=1 n=d4 v=0
309742 On ch=1 n=b6 v=0
309747 Par ch=1 c=64 v=127
309752 On ch=1 n=c7 v=0
309757 On ch=1 n=d3 v=0
309762 On ch=1 n=g#7 v=0
309767 On ch=1 n=b7 v=0
309927 Par ch=1 c=64 v=72
309937 On ch=1 n=e8 v=90
309937 Par ch=1 c=64 v=0
309942 On ch=1 n=c#8 v=76
309947 On ch=1 n=a2 v=53
309947 On ch=1 n=e7 v=70
309952 On ch=1 n=a3 v=67
309957 On ch=1 n=a7 v=67
309967 Par ch=1 c=64 v=24
309972 On ch=1 n=a2 v=0
309977 On ch=1 n=a7 v=0
309982 Par ch=1 c=64 v=72
309992 On ch=1 n=a3 v=0
309992 On ch=1 n=c#8 v=0
309992 On ch=1 n=e8 v=0
309992 Par ch=1 c=64 v=127
310002 On ch=1 n=e7 v=0
310167 Par ch=1 c=64 v=104
310177 On ch=1 n=b7 v=93
310177 On ch=1 n=b6 v=83
310182 On ch=1 n=g#7 v=83
310182 Par ch=1 c=64 v=24
310187 On ch=1 n=f7 v=76
310187 On ch=1 n=d3 v=68
310187 On ch=1 n=d4 v=77
310192 Par ch=1 c=64 v=0
310207 On ch=1 n=f7 v=0
310212 On ch=1 n=b6 v=0
310212 Par ch=1 c=64 v=40
310222 Par ch=1 c=64 v=88
310227 On ch=1 n=d4 v=0
310232 On ch=1 n=d3 v=0
310232 Par ch=1 c=64 v=127
310237 On ch=1 n=g#7 v=0
310242 On ch=1 n=b7 v=0
310402 Par ch=1 c=64 v=88
310412 Par ch=1 c=64 v=0
310437 On ch=1 n=e8 v=99
310442 On ch=1 n=c#8 v=84
310447 On ch=1 n=e7 v=81
310452 On ch=1 n=a7 v=87
310452 On ch=1 n=a3 v=94
310452 On ch=1 n=a2 v=78
310472 Par ch=1 c=64 v=40
310482 Par ch=1 c=64 v=127
310487 On ch=1 n=a2 v=0
310502 On ch=1 n=a3 v=0
310502 On ch=1 n=a7 v=0
310507 On ch=1 n=e8 v=0
310512 On ch=1 n=c#8 v=0
310517 On ch=1 n=e7 v=0
310737 Par ch=1 c=64 v=104
310747 Par ch=1 c=64 v=56
310757 Par ch=1 c=64 v=0
310817 Par ch=1 c=64 v=24
310827 Par ch=1 c=64 v=88
310832 On ch=1 n=b7 v=99
310832 On ch=1 n=g#7 v=86
310837 On ch=1 n=d5 v=77
310837 On ch=1 n=f7 v=75
310837 On ch=1 n=b6 v=75
310842 On ch=1 n=d4 v=71
310842 Par ch=1 c=64 v=127
310852 On ch=1 n=b6 v=0
310857 On ch=1 n=f7 v=0
310857 On ch=1 n=d5 v=0
310862 On ch=1 n=d4 v=0
310877 On ch=1 n=g#7 v=0
310882 On ch=1 n=b7 v=0
310932 Par ch=1 c=64 v=88
310947 Par ch=1 c=64 v=24
310957 On ch=1 n=e8 v=96
310957 On ch=1 n=c#8 v=88
310957 On ch=1 n=e7 v=89
310957 On ch=1 n=a7 v=82
310957 Par ch=1 c=64 v=0
310967 On ch=1 n=a4 v=74
310967 Par ch=1 c=64 v=40
310977 On ch=1 n=a7 v=0
310977 On ch=1 n=a3 v=70
310977 Par ch=1 c=64 v=88
310987 On ch=1 n=e7 v=0
310987 Par ch=1 c=64 v=127
310992 On ch=1 n=e8 v=0
310997 On ch=1 n=a3 v=0
310997 On ch=1 n=c#8 v=0
311007 On ch=1 n=a4 v=0
311207 On ch=1 n=b7 v=97
311207 On ch=1 n=g#7 v=83
311207 On ch=1 n=b6 v=86
311212 On ch=1 n=f7 v=75
311217 On ch=1 n=d3 v=70
311217 On ch=1 n=d4 v=77
311232 On ch=1 n=d4 v=0
311242 On ch=1 n=f7 v=0
311242 On ch=1 n=b6 v=0
311257 On ch=1 n=d3 v=0
311257 On ch=1 n=g#7 v=0
311267 On ch=1 n=b7 v=0
311447 On ch=1 n=e8 v=97
311452 On ch=1 n=c#8 v=80
311457 On ch=1 n=a7 v=82
311457 On ch=1 n=e7 v=77
311457 On ch=1 n=a3 v=66
311467 On ch=1 n=a2 v=73
311482 On ch=1 n=a3 v=0
311482 On ch=1 n=a7 v=0
311487 On ch=1 n=a2 v=0
311492 On ch=1 n=e8 v=0
311497 On ch=1 n=c#8 v=0
311507 On ch=1 n=e7 v=0
311682 On ch=1 n=b7 v=94
311687 On ch=1 n=b6 v=82
311687 On ch=1 n=g#7 v=83
311692 On ch=1 n=d4 v=86
311692 On ch=1 n=f7 v=80
311692 On ch=1 n=d3 v=72
311712 On ch=1 n=f7 v=0
311717 On ch=1 n=b6 v=0
311732 On ch=1 n=d3 v=0
311732 On ch=1 n=d4 v=0
311737 On ch=1 n=g#7 v=0
311742 On ch=1 n=b7 v=0
311922 Par ch=1 c=64 v=88
311932 Par ch=1 c=64 v=0
311937 On ch=1 n=e8 v=93
311937 On ch=1 n=c#8 v=77
311942 On ch=1 n=e7 v=74
311947 On ch=1 n=a2 v=73
311947 On ch=1 n=a7 v=70
311952 On ch=1 n=a3 v=87
311977 On ch=1 n=e8 v=0
311982 On ch=1 n=a7 v=0
311982 Par ch=1 c=64 v=40
311987 On ch=1 n=a2 v=0
311987 On ch=1 n=e7 v=0
311992 On ch=1 n=c#8 v=0
311992 Par ch=1 c=64 v=127
311997 On ch=1 n=a3 v=0
312162 Par ch=1 c=64 v=104
312172 Par ch=1 c=64 v=56
312182 Par ch=1 c=64 v=40
312187 On ch=1 n=g#6 v=77
312192 On ch=1 n=g#5 v=71
312192 Par ch=1 c=64 v=72
312197 On ch=1 n=g#4 v=63
312197 On ch=1 n=g#3 v=52
312202 Par ch=1 c=64 v=104
312212 Par ch=1 c=64 v=127
312237 On ch=1 n=g#3 v=0
312237 On ch=1 n=g#4 v=0
312237 On ch=1 n=g#5 v=0
312247 On ch=1 n=g#6 v=0
312292 On ch=1 n=a6 v=87
312297 On ch=1 n=a5 v=77
312302 On ch=1 n=a4 v=76
312312 On ch=1 n=a3 v=52
312337 On ch=1 n=a5 v=0
312342 On ch=1 n=a3 v=0
312347 On ch=1 n=a4 v=0
312347 On ch=1 n=a6 v=0
312402 Par ch=1 c=64 v=104
312412 On ch=1 n=a#6 v=95
312417 On ch=1 n=a#5 v=86
312417 Par ch=1 c=64 v=24
312422 On ch=1 n=a#4 v=74
312422 Par ch=1 c=64 v=0
312427 On ch=1 n=a#3 v=75
312477 Par ch=1 c=64 v=88
312487 Par ch=1 c=64 v=127
312502 On ch=1 n=a#3 v=0
312522 On ch=1 n=a#6 v=0
312542 On ch=1 n=a#5 v=0
312562 On ch=1 n=a#4 v=0
312647 On ch=1 n=a6 v=82
312652 On ch=1 n=a5 v=64
312657 On ch=1 n=a4 v=63
312662 On ch=1 n=a3 v=60
312672 On ch=1 n=a5 v=0
312682 On ch=1 n=a3 v=0
312682 On ch=1 n=a4 v=0
312692 On ch=1 n=a6 v=0
312747 On ch=1 n=a#6 v=87
312747 On ch=1 n=a#4 v=64
312752 On ch=1 n=a#5 v=82
312752 On ch=1 n=a#3 v=69
312802 On ch=1 n=a#5 v=0
312807 On ch=1 n=a#4 v=0
312812 On ch=1 n=a#3 v=0
312832 On ch=1 n=a#6 v=0
312877 On ch=1 n=b6 v=99
312882 On ch=1 n=b5 v=80
312887 On ch=1 n=b4 v=68
312892 On ch=1 n=b3 v=66
312897 Par ch=1 c=64 v=56
312907 Par ch=1 c=64 v=0
312957 Par ch=1 c=64 v=40
312962 On ch=1 n=b5 v=0
312967 Par ch=1 c=64 v=127
312972 On ch=1 n=b4 v=0
312982 On ch=1 n=b3 v=0
313022 On ch=1 n=b6 v=0
313117 On ch=1 n=a#3 v=70
313117 On ch=1 n=a#4 v=63
313117 On ch=1 n=a#6 v=79
313117 On ch=1 n=a#5 v=74
313157 On ch=1 n=a#4 v=0
313162 On ch=1 n=a#5 v=0
313162 On ch=1 n=a#3 v=0
313177 On ch=1 n=a#6 v=0
313212 On ch=1 n=b6 v=97
313217 On ch=1 n=b5 v=81
313217 On ch=1 n=b4 v=72
313227 On ch=1 n=b3 v=78
313242 On ch=1 n=b3 v=0
313262 On ch=1 n=b4 v=0
313262 On ch=1 n=b5 v=0
313277 On ch=1 n=b6 v=0
313337 Par ch=1 c=64 v=104
313347 Par ch=1 c=64 v=24
313357 On ch=1 n=c7 v=102
313357 On ch=1 n=c5 v=86
313357 On ch=1 n=c6 v=94
313357 On ch=1 n=c4 v=65
313357 Par ch=1 c=64 v=0
313377 On ch=1 n=c4 v=0
313387 On ch=1 n=c6 v=0
313387 Par ch=1 c=64 v=40
313402 On ch=1 n=c5 v=0
313402 Par ch=1 c=64 v=127
313412 On ch=1 n=c7 v=0
313572 Par ch=1 c=64 v=88
313587 On ch=1 n=a6 v=70
313587 On ch=1 n=a5 v=54
313587 On ch=1 n=a3 v=50
313587 On ch=1 n=a4 v=54
313587 Par ch=1 c=64 v=24
313602 Par ch=1 c=64 v=0
313607 On ch=1 n=a4 v=0
313607 On ch=1 n=a5 v=0
313612 On ch=1 n=a3 v=0
313617 Par ch=1 c=64 v=56
313632 Par ch=1 c=64 v=88
313637 On ch=1 n=a6 v=0
313642 Par ch=1 c=64 v=127
313697 On ch=1 n=a#5 v=69
313697 On ch=1 n=a#6 v=77
313697 On ch=1 n=a#4 v=57
313697 On ch=1 n=a#3 v=62
313737 On ch=1 n=a#4 v=0
313747 On ch=1 n=a#3 v=0
313747 On ch=1 n=a#5 v=0
313772 On ch=1 n=a#6 v=0
313842 On ch=1 n=b4 v=79
313842 On ch=1 n=b6 v=93
313847 On ch=1 n=b3 v=71
313852 On ch=1 n=b5 v=69
313862 On ch=1 n=b3 v=0
313872 Par ch=1 c=64 v=56
313882 Par ch=1 c=64 v=40
313892 Par ch=1 c=64 v=72
313902 Par ch=1 c=64 v=104
313907 On ch=1 n=b3 v=59
313912 Par ch=1 c=64 v=127
313947 On ch=1 n=b5 v=0
313952 On ch=1 n=b4 v=0
313957 On ch=1 n=b3 v=0
314007 On ch=1 n=b6 v=0
314067 On ch=1 n=a#6 v=85
314072 On ch=1 n=a#5 v=76
314072 On ch=1 n=a#4 v=65
314072 On ch=1 n=a#3 v=68
314107 On ch=1 n=a#3 v=0
314107 On ch=1 n=a#4 v=0
314117 On ch=1 n=a#5 v=0
314132 On ch=1 n=a#6 v=0
314172 On ch=1 n=b6 v=96
314177 On ch=1 n=b4 v=70
314177 On ch=1 n=b5 v=81
314182 On ch=1 n=b3 v=72
314212 On ch=1 n=b5 v=0
314217 On ch=1 n=b3 v=0
314217 On ch=1 n=b4 v=0
314232 On ch=1 n=b6 v=0
314292 On ch=1 n=c7 v=102
314297 On ch=1 n=c5 v=83
314302 On ch=1 n=c6 v=92
314302 On ch=1 n=c4 v=87
314302 Par ch=1 c=64 v=104
314312 Par ch=1 c=64 v=24
314322 Par ch=1 c=64 v=0
314342 Par ch=1 c=64 v=56
314347 On ch=1 n=c4 v=0
314352 On ch=1 n=c5 v=0
314357 Par ch=1 c=64 v=127
314372 On ch=1 n=c6 v=0
314382 On ch=1 n=c7 v=0
314532 On ch=1 n=b6 v=89
314537 On ch=1 n=b4 v=70
314537 On ch=1 n=b5 v=76
314542 On ch=1 n=b3 v=65
314572 On ch=1 n=b3 v=0
314572 On ch=1 n=b5 v=0
314577 On ch=1 n=b4 v=0
314582 On ch=1 n=b6 v=0
314632 On ch=1 n=c7 v=99
314637 On ch=1 n=c6 v=87
314642 On ch=1 n=c5 v=62
314647 On ch=1 n=c4 v=82
314662 On ch=1 n=c4 v=0
314677 On ch=1 n=c6 v=0
314682 On ch=1 n=c5 v=0
314692 On ch=1 n=c7 v=0
314767 On ch=1 n=c#7 v=102
314767 On ch=1 n=c#6 v=95
314767 Par ch=1 c=64 v=88
314772 On ch=1 n=c#5 v=85
314777 On ch=1 n=c#4 v=79
314777 Par ch=1 c=64 v=0
314827 Par ch=1 c=64 v=104
314837 On ch=1 n=c#4 v=0
314837 On ch=1 n=c#5 v=0
314837 Par ch=1 c=64 v=127
314872 On ch=1 n=c#7 v=0
314887 On ch=1 n=c#6 v=0
314997 On ch=1 n=a#6 v=77
315002 On ch=1 n=a#4 v=64
315002 On ch=1 n=a#5 v=67
315002 On ch=1 n=a#3 v=69
315037 On ch=1 n=a#4 v=0
315047 On ch=1 n=a#3 v=0
315052 On ch=1 n=a#5 v=0
315062 On ch=1 n=a#6 v=0
315102 On ch=1 n=b6 v=89
315102 On ch=1 n=b4 v=68
315107 On ch=1 n=b5 v=74
315112 On ch=1 n=b3 v=69
315127 On ch=1 n=b3 v=0
315147 On ch=1 n=b5 v=0
315147 On ch=1 n=b4 v=0
315162 On ch=1 n=b6 v=0
315217 On ch=1 n=c7 v=94
315217 Par ch=1 c=64 v=56
315222 On ch=1 n=c6 v=85
315227 On ch=1 n=c5 v=83
315227 On ch=1 n=c4 v=83
315227 Par ch=1 c=64 v=0
315287 Par ch=1 c=64 v=127
315302 On ch=1 n=c4 v=0
315307 On ch=1 n=c5 v=0
315317 On ch=1 n=c7 v=0
315332 On ch=1 n=c6 v=0
315437 Par ch=1 c=64 v=104
315447 On ch=1 n=b6 v=87
315447 Par ch=1 c=64 v=40
315452 On ch=1 n=b5 v=76
315452 On ch=1 n=b4 v=73
315457 On ch=1 n=b3 v=71
315457 Par ch=1 c=64 v=56
315467 Par ch=1 c=64 v=88
315477 Par ch=1 c=64 v=127
315492 On ch=1 n=b5 v=0
315497 On ch=1 n=b3 v=0
315497 On ch=1 n=b4 v=0
315502 On ch=1 n=b6 v=0
315552 On ch=1 n=c7 v=99
315557 On ch=1 n=c6 v=88
315562 On ch=1 n=c5 v=81
315567 On ch=1 n=c4 v=82
315597 On ch=1 n=c6 v=0
315602 On ch=1 n=c5 v=0
315607 On ch=1 n=c4 v=0
315622 On ch=1 n=c7 v=0
315677 On ch=1 n=c#7 v=92
315682 On ch=1 n=c#6 v=91
315687 On ch=1 n=c#5 v=83
315697 On ch=1 n=c#4 v=77
315697 Par ch=1 c=64 v=24
315707 Par ch=1 c=64 v=0
315757 Par ch=1 c=64 v=127
315817 On ch=1 n=c#4 v=0
315832 On ch=1 n=c#5 v=0
315862 On ch=1 n=c#6 v=0
315867 On ch=1 n=c#7 v=0
315932 On ch=1 n=c7 v=92
315937 On ch=1 n=c6 v=82
315947 On ch=1 n=c5 v=69
315947 On ch=1 n=c4 v=74
315972 On ch=1 n=c6 v=0
315982 On ch=1 n=c4 v=0
315982 On ch=1 n=c5 v=0
315992 On ch=1 n=c7 v=0
316052 Par ch=1 c=64 v=72
316062 On ch=1 n=c#7 v=93
316067 On ch=1 n=c#6 v=92
316067 Par ch=1 c=64 v=0
316072 On ch=1 n=c#5 v=80
316077 On ch=1 n=c#4 v=77
316097 Par ch=1 c=64 v=88
316107 On ch=1 n=c#5 v=0
316107 Par ch=1 c=64 v=127
316112 On ch=1 n=c#6 v=0
316117 On ch=1 n=c#4 v=0
316192 On ch=1 n=c#7 v=0
316287 Par ch=1 c=64 v=88
316292 On ch=1 n=d6 v=96
316297 On ch=1 n=d7 v=89
316297 Par ch=1 c=64 v=0
316302 On ch=1 n=d3 v=74
316307 On ch=1 n=d4 v=86
316347 On ch=1 n=d6 v=0
316352 Par ch=1 c=64 v=88
316357 On ch=1 n=d4 v=0
316357 Par ch=1 c=64 v=127
316362 On ch=1 n=d3 v=0
316362 On ch=1 n=d7 v=0
316512 On ch=1 n=g#5 v=55
316512 On ch=1 n=f5 v=54
316517 On ch=1 n=d5 v=52
316537 On ch=1 n=f#4 v=36
316547 On ch=1 n=f5 v=0
316557 On ch=1 n=g#5 v=0
316567 On ch=1 n=a5 v=70
316567 On ch=1 n=f#5 v=58
316582 On ch=1 n=a4 v=68
316582 Par ch=1 c=64 v=104
316587 Par ch=1 c=64 v=127
316602 On ch=1 n=d5 v=0
316607 On ch=1 n=f#5 v=0
316612 On ch=1 n=a5 v=0
316617 On ch=1 n=a4 v=0
316627 On ch=1 n=f#4 v=0
316817 Par ch=1 c=64 v=104
316822 Par ch=1 c=64 v=56
316832 Par ch=1 c=64 v=0
316852 On ch=1 n=d7 v=99
316857 On ch=1 n=d6 v=89
316867 On ch=1 n=d3 v=77
316867 On ch=1 n=d4 v=85
316877 Par ch=1 c=64 v=24
316882 Par ch=1 c=64 v=104
316892 Par ch=1 c=64 v=127
316897 On ch=1 n=d3 v=0
316902 On ch=1 n=d4 v=0
316907 On ch=1 n=d7 v=0
316912 On ch=1 n=d6 v=0
317082 On ch=1 n=g#5 v=39
317097 On ch=1 n=f5 v=57
317097 On ch=1 n=d5 v=31
317127 On ch=1 n=f#4 v=42
317132 On ch=1 n=g#5 v=0
317132 On ch=1 n=a5 v=56
317147 On ch=1 n=f#5 v=60
317152 On ch=1 n=f5 v=0
317162 On ch=1 n=a4 v=49
317172 On ch=1 n=f#5 v=0
317182 On ch=1 n=a5 v=0
317182 On ch=1 n=d5 v=0
317187 On ch=1 n=f#4 v=0
317197 On ch=1 n=a4 v=0
317337 On ch=1 n=c7 v=96
317337 On ch=1 n=c6 v=82
317367 On ch=1 n=c6 v=0
317377 On ch=1 n=c7 v=0
317422 Par ch=1 c=64 v=88
317427 On ch=1 n=a#6 v=88
317427 Par ch=1 c=64 v=24
317432 On ch=1 n=a#5 v=87
317437 Par ch=1 c=64 v=0
317442 On ch=1 n=d3 v=70
317447 On ch=1 n=d4 v=74
317472 Par ch=1 c=64 v=24
317477 On ch=1 n=d3 v=0
317477 Par ch=1 c=64 v=88
317487 On ch=1 n=d4 v=0
317487 Par ch=1 c=64 v=127
317492 On ch=1 n=a#6 v=0
317507 On ch=1 n=a#5 v=0
317657 On ch=1 n=f#4 v=58
317657 On ch=1 n=a4 v=63
317662 On ch=1 n=f#5 v=49
317667 On ch=1 n=d#5 v=49
317692 On ch=1 n=d#5 v=0
317697 On ch=1 n=f#5 v=0
317702 On ch=1 n=a4 v=0
317702 On ch=1 n=f#4 v=0
317722 Par ch=1 c=64 v=104
317727 On ch=1 n=g5 v=74
317727 On ch=1 n=e5 v=55
317732 On ch=1 n=a#4 v=59
317732 On ch=1 n=g4 v=68
317732 Par ch=1 c=64 v=72
317737 Par ch=1 c=64 v=88
317747 Par ch=1 c=64 v=127
317752 On ch=1 n=e5 v=0
317767 On ch=1 n=a#4 v=0
317772 On ch=1 n=g4 v=0
317772 On ch=1 n=g5 v=0
317947 Par ch=1 c=64 v=72
317957 Par ch=1 c=64 v=0
318012 On ch=1 n=a#6 v=90
318012 On ch=1 n=a#5 v=88
318022 On ch=1 n=d3 v=66
318022 On ch=1 n=d4 v=72
318037 On ch=1 n=d3 v=0
318042 Par ch=1 c=64 v=127
318057 On ch=1 n=a#5 v=0
318057 On ch=1 n=a#6 v=0
318062 On ch=1 n=d4 v=0
318232 On ch=1 n=f#4 v=50
318242 On ch=1 n=f#5 v=27
318252 On ch=1 n=a4 v=41
318267 On ch=1 n=e5 v=62
318267 On ch=1 n=g5 v=50
318277 On ch=1 n=f#4 v=0
318287 On ch=1 n=a4 v=0
318287 Par ch=1 c=64 v=72
318292 On ch=1 n=g4 v=43
318292 Par ch=1 c=64 v=40
318302 Par ch=1 c=64 v=56
318307 On ch=1 n=e5 v=0
318307 On ch=1 n=a#4 v=62
318312 Par ch=1 c=64 v=88
318317 On ch=1 n=f#5 v=0
318317 Par ch=1 c=64 v=127
318322 On ch=1 n=g5 v=0
318342 On ch=1 n=a#4 v=0
318342 On ch=1 n=g4 v=0
318502 On ch=1 n=a#6 v=86
318502 On ch=1 n=a#5 v=80
318537 On ch=1 n=a#5 v=0
318542 On ch=1 n=a#6 v=0
318577 Par ch=1 c=64 v=72
318582 On ch=1 n=a6 v=93
318587 Par ch=1 c=64 v=0
318592 On ch=1 n=a5 v=82
318597 On ch=1 n=c#3 v=61
318602 On ch=1 n=c#4 v=69
318627 Par ch=1 c=64 v=24
318637 Par ch=1 c=64 v=104
318647 Par ch=1 c=64 v=127
318652 On ch=1 n=c#4 v=0
318652 On ch=1 n=a6 v=0
318657 On ch=1 n=c#3 v=0
318672 On ch=1 n=a5 v=0
318822 On ch=1 n=d#5 v=63
318822 On ch=1 n=c5 v=56
318822 On ch=1 n=f#4 v=54
318842 On ch=1 n=f#4 v=0
318857 On ch=1 n=c5 v=0
318867 On ch=1 n=d#5 v=0
318882 On ch=1 n=e5 v=66
318882 On ch=1 n=c#5 v=57
318882 On ch=1 n=g4 v=56
318882 Par ch=1 c=64 v=104
318897 Par ch=1 c=64 v=72
318907 On ch=1 n=g4 v=0
318912 On ch=1 n=c#5 v=0
318922 Par ch=1 c=64 v=127
318927 On ch=1 n=e5 v=0
319087 On ch=1 n=a6 v=86
319087 On ch=1 n=a5 v=78
319117 On ch=1 n=a5 v=0
319132 On ch=1 n=a6 v=0
319217 On ch=1 n=e7 v=89
319217 Par ch=1 c=64 v=56
319222 On ch=1 n=e6 v=83
319222 On ch=1 n=a3 v=80
319222 On ch=1 n=a2 v=66
319227 Par ch=1 c=64 v=0
319257 On ch=1 n=e6 v=0
319267 Par ch=1 c=64 v=72
319277 Par ch=1 c=64 v=127
319287 On ch=1 n=e7 v=0
319347 On ch=1 n=a2 v=0
319352 On ch=1 n=a3 v=0
319427 On ch=1 n=d#5 v=57
319427 On ch=1 n=d#4 v=48
319427 On ch=1 n=f#4 v=47
319437 On ch=1 n=c5 v=54
319462 On ch=1 n=c5 v=0
319462 On ch=1 n=f#4 v=0
319462 On ch=1 n=d#4 v=0
319462 On ch=1 n=d#5 v=0
319492 On ch=1 n=e5 v=59
319502 On ch=1 n=e4 v=60
319502 On ch=1 n=c#5 v=37
319507 On ch=1 n=g4 v=64
319507 Par ch=1 c=64 v=56
319517 Par ch=1 c=64 v=0
319522 On ch=1 n=c#5 v=0
319532 On ch=1 n=e5 v=0
319537 Par ch=1 c=64 v=24
319542 On ch=1 n=g4 v=0
319547 On ch=1 n=e4 v=0
319547 Par ch=1 c=64 v=72
319552 Par ch=1 c=64 v=127
319697 On ch=1 n=g6 v=94
319702 On ch=1 n=g5 v=80
319732 On ch=1 n=g5 v=0
319737 On ch=1 n=g6 v=0
319817 Par ch=1 c=64 v=88
319822 Par ch=1 c=64 v=56
319832 On ch=1 n=f#6 v=90
319832 Par ch=1 c=64 v=0
319837 On ch=1 n=f#5 v=77
319847 On ch=1 n=d4 v=65
319852 On ch=1 n=d3 v=54
319892 Par ch=1 c=64 v=56
319902 On ch=1 n=d3 v=0
319902 Par ch=1 c=64 v=127
319917 On ch=1 n=f#6 v=0
319922 On ch=1 n=d4 v=0
319937 On ch=1 n=f#5 v=0
320067 On ch=1 n=g#5 v=61
320072 On ch=1 n=f5 v=64
320072 On ch=1 n=d5 v=54
320077 On ch=1 n=f4 v=41
320077 On ch=1 n=g#4 v=20
320097 On ch=1 n=g#4 v=0
320097 On ch=1 n=f4 v=0
320102 On ch=1 n=d5 v=0
320102 On ch=1 n=f5 v=0
320107 On ch=1 n=g#5 v=0
320132 On ch=1 n=a5 v=81
320137 On ch=1 n=f#5 v=62
320137 On ch=1 n=a4 v=53
320142 On ch=1 n=f#4 v=56
320147 Par ch=1 c=64 v=88
320157 Par ch=1 c=64 v=24
320167 Par ch=1 c=64 v=0
320197 Par ch=1 c=64 v=72
320202 On ch=1 n=f#5 v=0
320207 Par ch=1 c=64 v=127
320212 On ch=1 n=a5 v=0
320222 On ch=1 n=a4 v=0
320237 On ch=1 n=f#4 v=0
320342 On ch=1 n=a6 v=82
320347 On ch=1 n=a5 v=70
320367 On ch=1 n=a6 v=0
320372 On ch=1 n=a5 v=0
320427 On ch=1 n=d6 v=88
320427 On ch=1 n=d5 v=72
320442 On ch=1 n=d4 v=60
320442 Par ch=1 c=64 v=88
320447 On ch=1 n=d3 v=44
320452 Par ch=1 c=64 v=40
320457 Par ch=1 c=64 v=0
320502 On ch=1 n=d3 v=0
320507 Par ch=1 c=64 v=88
320512 Par ch=1 c=64 v=127
320522 On ch=1 n=d4 v=0
320532 On ch=1 n=d6 v=0
320552 On ch=1 n=d5 v=0
320677 On ch=1 n=g#4 v=39
320677 On ch=1 n=f4 v=49
320677 On ch=1 n=f5 v=67
320687 On ch=1 n=c#5 v=27
320697 On ch=1 n=g#4 v=0
320702 On ch=1 n=c#5 v=0
320702 On ch=1 n=f4 v=0
320712 On ch=1 n=f5 v=0
320732 On ch=1 n=f#5 v=65
320742 On ch=1 n=d5 v=68
320742 On ch=1 n=a4 v=45
320747 On ch=1 n=f#4 v=38
320752 Par ch=1 c=64 v=104
320762 Par ch=1 c=64 v=24
320772 Par ch=1 c=64 v=0
320802 On ch=1 n=d5 v=0
320802 Par ch=1 c=64 v=40
320807 Par ch=1 c=64 v=104
320817 Par ch=1 c=64 v=127
320832 On ch=1 n=a4 v=0
320837 On ch=1 n=f#5 v=0
320852 On ch=1 n=f#4 v=0
321027 Par ch=1 c=64 v=88
321032 Par ch=1 c=64 v=24
321037 On ch=1 n=c#7 v=96
321037 On ch=1 n=c#6 v=88
321042 Par ch=1 c=64 v=0
321047 On ch=1 n=c#3 v=61
321052 On ch=1 n=c#4 v=71
321072 Par ch=1 c=64 v=40
321077 Par ch=1 c=64 v=127
321092 On ch=1 n=c#4 v=0
321102 On ch=1 n=c#3 v=0
321112 On ch=1 n=c#7 v=0
321117 On ch=1 n=c#6 v=0
321267 On ch=1 n=c#5 v=53
321272 On ch=1 n=e5 v=58
321272 On ch=1 n=g5 v=58
321277 On ch=1 n=e4 v=50
321282 On ch=1 n=g4 v=32
321292 On ch=1 n=e4 v=0
321297 On ch=1 n=e5 v=0
321302 On ch=1 n=g4 v=0
321302 On ch=1 n=g5 v=0
321327 On ch=1 n=g#5 v=67
321332 On ch=1 n=f5 v=67
321332 On ch=1 n=g#4 v=48
321337 On ch=1 n=f4 v=50
321362 On ch=1 n=f5 v=0
321382 On ch=1 n=g#5 v=0
321387 On ch=1 n=f4 v=0
321387 On ch=1 n=g#4 v=0
321387 On ch=1 n=c#5 v=0
321597 Par ch=1 c=64 v=72
321607 Par ch=1 c=64 v=0
321642 On ch=1 n=c#7 v=96
321642 On ch=1 n=c#6 v=87
321647 On ch=1 n=f3 v=62
321652 On ch=1 n=f4 v=60
321682 Par ch=1 c=64 v=127
321692 On ch=1 n=f3 v=0
321702 On ch=1 n=f4 v=0
321702 On ch=1 n=c#7 v=0
321707 On ch=1 n=c#6 v=0
321882 On ch=1 n=c#5 v=52
321887 On ch=1 n=g5 v=63
321887 On ch=1 n=e5 v=55
321887 On ch=1 n=g4 v=54
321907 On ch=1 n=e5 v=0
321912 On ch=1 n=g4 v=0
321917 On ch=1 n=g5 v=0
321937 On ch=1 n=g#5 v=67
321947 On ch=1 n=g#4 v=55
321947 On ch=1 n=f5 v=66
321972 Par ch=1 c=64 v=56
321977 Par ch=1 c=64 v=0
322007 On ch=1 n=f5 v=0
322007 Par ch=1 c=64 v=56
322017 Par ch=1 c=64 v=127
322022 On ch=1 n=g#5 v=0
322037 On ch=1 n=c#5 v=0
322052 On ch=1 n=g#4 v=0
322162 On ch=1 n=b6 v=88
322167 On ch=1 n=b5 v=71
322187 On ch=1 n=b5 v=0
322187 On ch=1 n=b6 v=0
322237 On ch=1 n=a6 v=92
322237 On ch=1 n=a5 v=79
322247 Par ch=1 c=64 v=104
322252 On ch=1 n=f#4 v=55
322257 On ch=1 n=f#3 v=54
322257 Par ch=1 c=64 v=24
322267 Par ch=1 c=64 v=0
322312 Par ch=1 c=64 v=88
322317 Par ch=1 c=64 v=127
322327 On ch=1 n=a6 v=0
322337 On ch=1 n=f#3 v=0
322347 On ch=1 n=f#4 v=0
322352 On ch=1 n=a5 v=0
322472 On ch=1 n=c#5 v=57
322472 On ch=1 n=g#4 v=58
322477 On ch=1 n=g#5 v=57
322482 On ch=1 n=f5 v=42
322502 On ch=1 n=f5 v=0
322507 On ch=1 n=g#5 v=0
322507 On ch=1 n=g#4 v=0
322512 On ch=1 n=c#5 v=0
322532 On ch=1 n=a5 v=69
322532 On ch=1 n=f#5 v=57
322542 On ch=1 n=a4 v=56
322572 On ch=1 n=f#5 v=0
322582 On ch=1 n=a4 v=0
322582 On ch=1 n=a5 v=0
322797 Par ch=1 c=64 v=104
322807 Par ch=1 c=64 v=24
322817 On ch=1 n=f#6 v=85
322817 On ch=1 n=f#5 v=82
322817 Par ch=1 c=64 v=0
322822 On ch=1 n=a3 v=68
322827 On ch=1 n=a4 v=58
322842 On ch=1 n=a3 v=0
322852 Par ch=1 c=64 v=72
322857 On ch=1 n=f#6 v=0
322857 Par ch=1 c=64 v=127
322862 On ch=1 n=a4 v=0
322867 On ch=1 n=f#5 v=0
323012 On ch=1 n=g#4 v=50
323022 On ch=1 n=g#5 v=46
323022 On ch=1 n=c#5 v=40
323027 On ch=1 n=f5 v=53
323052 On ch=1 n=g#4 v=0
323057 On ch=1 n=g#5 v=0
323067 On ch=1 n=f5 v=0
323072 On ch=1 n=a5 v=59
323072 On ch=1 n=f#5 v=47
323092 On ch=1 n=a4 v=71
323102 On ch=1 n=f#5 v=0
323102 On ch=1 n=c#5 v=0
323107 On ch=1 n=a5 v=0
323112 On ch=1 n=a4 v=0
323272 On ch=1 n=a5 v=80
323277 On ch=1 n=a6 v=96
323302 On ch=1 n=a5 v=0
323307 On ch=1 n=a6 v=0
323412 On ch=1 n=e7 v=99
323412 On ch=1 n=e6 v=84
323412 Par ch=1 c=64 v=88
323417 Par ch=1 c=64 v=0
323422 On ch=1 n=e3 v=66
323422 On ch=1 n=e4 v=69
323472 Par ch=1 c=64 v=104
323482 Par ch=1 c=64 v=127
323492 On ch=1 n=e7 v=0
323502 On ch=1 n=e3 v=0
323517 On ch=1 n=e4 v=0
323522 On ch=1 n=e6 v=0
323687 On ch=1 n=a#5 v=73
323692 On ch=1 n=g4 v=60
323692 On ch=1 n=e5 v=64
323692 On ch=1 n=a#4 v=47
323697 On ch=1 n=g5 v=59
323712 On ch=1 n=g5 v=0
323717 On ch=1 n=a#4 v=0
323717 On ch=1 n=a#5 v=0
323722 On ch=1 n=g4 v=0
323752 On ch=1 n=b5 v=73
323757 On ch=1 n=b4 v=56
323757 On ch=1 n=g#5 v=56
323762 On ch=1 n=g#4 v=44
323797 Par ch=1 c=64 v=72
323807 Par ch=1 c=64 v=0
323842 Par ch=1 c=64 v=88
323852 On ch=1 n=g#5 v=0
323852 Par ch=1 c=64 v=127
323862 On ch=1 n=b5 v=0
323862 On ch=1 n=e5 v=0
323872 On ch=1 n=b4 v=0
323887 On ch=1 n=g#4 v=0
323912 Par ch=1 c=64 v=72
323917 Par ch=1 c=64 v=0
324007 On ch=1 n=e7 v=97
324007 On ch=1 n=e6 v=87
324017 On ch=1 n=g#4 v=69
324017 On ch=1 n=g#3 v=64
324032 Par ch=1 c=64 v=72
324037 Par ch=1 c=64 v=127
324067 On ch=1 n=e7 v=0
324072 On ch=1 n=g#3 v=0
324072 On ch=1 n=g#4 v=0
324082 On ch=1 n=e6 v=0
324232 On ch=1 n=a#5 v=58
324232 On ch=1 n=a#4 v=50
324237 On ch=1 n=e5 v=59
324237 On ch=1 n=g5 v=60
324272 On ch=1 n=e5 v=0
324272 On ch=1 n=a#4 v=0
324272 On ch=1 n=a#5 v=0
324277 On ch=1 n=g5 v=0
324292 On ch=1 n=b5 v=65
324297 On ch=1 n=g#5 v=56
324302 On ch=1 n=b4 v=64
324307 On ch=1 n=e5 v=56
324312 On ch=1 n=g#5 v=0
324322 On ch=1 n=e5 v=0
324322 On ch=1 n=b5 v=0
324332 On ch=1 n=b4 v=0
324497 On ch=1 n=d7 v=89
324497 On ch=1 n=d6 v=73
324522 On ch=1 n=d6 v=0
324537 On ch=1 n=d7 v=0
324572 On ch=1 n=c#7 v=92
324572 Par ch=1 c=64 v=40
324577 On ch=1 n=c#6 v=88
324582 Par ch=1 c=64 v=0
324587 On ch=1 n=a3 v=68
324587 On ch=1 n=a4 v=64
324632 Par ch=1 c=64 v=127
324637 On ch=1 n=a3 v=0
324652 On ch=1 n=c#7 v=0
324657 On ch=1 n=a4 v=0
324662 On ch=1 n=c#6 v=0
324782 On ch=1 n=c5 v=66
324792 On ch=1 n=g#5 v=42
324797 On ch=1 n=c6 v=61
324797 On ch=1 n=d#5 v=34
324812 On ch=1 n=c6 v=0
324817 On ch=1 n=g#5 v=0
324822 On ch=1 n=d#5 v=0
324827 On ch=1 n=c5 v=0
324847 On ch=1 n=c#6 v=69
324852 On ch=1 n=c#5 v=59
324852 On ch=1 n=a5 v=63
324852 On ch=1 n=e5 v=62
324867 On ch=1 n=a5 v=0
324877 On ch=1 n=e5 v=0
324882 On ch=1 n=c#5 v=0
324892 On ch=1 n=c#6 v=0
325117 On ch=1 n=a6 v=86
325117 Par ch=1 c=64 v=56
325122 On ch=1 n=a5 v=74
325122 Par ch=1 c=64 v=0
325132 On ch=1 n=a4 v=63
325132 On ch=1 n=a3 v=62
325147 On ch=1 n=a3 v=0
325162 On ch=1 n=a6 v=0
325167 On ch=1 n=a5 v=0
325167 Par ch=1 c=64 v=127
325172 On ch=1 n=a4 v=0
325307 On ch=1 n=c5 v=52
325337 On ch=1 n=c6 v=48
325337 On ch=1 n=e5 v=41
325347 On ch=1 n=g#5 v=44
325362 On ch=1 n=c#5 v=71
325372 On ch=1 n=c5 v=0
325372 On ch=1 n=c#6 v=73
325377 On ch=1 n=a5 v=58
325382 On ch=1 n=g#5 v=0
325382 On ch=1 n=e5 v=0
325387 On ch=1 n=c6 v=0
325392 On ch=1 n=a5 v=0
325392 On ch=1 n=c#5 v=0
325407 On ch=1 n=c#6 v=0
325567 On ch=1 n=a6 v=97
325567 On ch=1 n=a5 v=76
325572 On ch=1 n=a4 v=74
325572 On ch=1 n=a3 v=77
325582 On ch=1 n=a5 v=0
325587 On ch=1 n=a3 v=0
325587 On ch=1 n=a4 v=0
325597 On ch=1 n=a6 v=0
325692 Par ch=1 c=64 v=56
325697 On ch=1 n=f#7 v=103
325697 On ch=1 n=f#6 v=85
325702 On ch=1 n=c7 v=82
325702 Par ch=1 c=64 v=0
325707 On ch=1 n=d#4 v=64
325707 On ch=1 n=a4 v=64
325707 On ch=1 n=a3 v=65
325712 On ch=1 n=c7 v=0
325727 On ch=1 n=c7 v=25
325762 Par ch=1 c=64 v=127
325777 On ch=1 n=a3 v=0
325787 On ch=1 n=c7 v=0
325787 On ch=1 n=d#4 v=0
325792 On ch=1 n=f#7 v=0
325797 On ch=1 n=a4 v=0
325802 On ch=1 n=f#6 v=0
325907 On ch=1 n=d5 v=63
325912 On ch=1 n=f5 v=60
325922 On ch=1 n=b5 v=59
325927 On ch=1 n=d6 v=59
325942 On ch=1 n=f5 v=0
325947 On ch=1 n=d5 v=0
325957 On ch=1 n=d6 v=0
325962 On ch=1 n=b5 v=0
325972 On ch=1 n=d#6 v=71
325977 On ch=1 n=f#5 v=62
325977 On ch=1 n=d#5 v=56
325977 On ch=1 n=c6 v=74
325992 On ch=1 n=c6 v=0
326002 On ch=1 n=f#5 v=0
326007 On ch=1 n=d#5 v=0
326012 On ch=1 n=d#6 v=0
326237 On ch=1 n=f#7 v=99
326237 Par ch=1 c=64 v=88
326242 Par ch=1 c=64 v=0
326242 On ch=1 n=f#6 v=84
326247 On ch=1 n=c7 v=83
326252 On ch=1 n=d#4 v=71
326252 On ch=1 n=a4 v=70
326252 On ch=1 n=a3 v=68
326287 On ch=1 n=a3 v=0
326287 Par ch=1 c=64 v=72
326297 On ch=1 n=d#4 v=0
326297 Par ch=1 c=64 v=127
326302 On ch=1 n=a4 v=0
326302 On ch=1 n=c7 v=0
326307 On ch=1 n=f#7 v=0
326312 On ch=1 n=f#6 v=0
326442 On ch=1 n=d5 v=72
326452 On ch=1 n=f5 v=45
326452 On ch=1 n=d6 v=60
326467 On ch=1 n=b5 v=35
326482 On ch=1 n=f5 v=0
326482 On ch=1 n=d5 v=0
326502 On ch=1 n=d#6 v=65
326507 On ch=1 n=d6 v=0
326512 On ch=1 n=b5 v=0
326512 On ch=1 n=f5 v=30
326517 On ch=1 n=c6 v=37
326527 On ch=1 n=c6 v=0
326527 On ch=1 n=f#5 v=67
326532 On ch=1 n=f5 v=0
326532 On ch=1 n=d#6 v=0
326532 On ch=1 n=d#5 v=63
326552 On ch=1 n=d#5 v=0
326552 On ch=1 n=f#5 v=0
326722 On ch=1 n=f#6 v=73
326722 On ch=1 n=f#7 v=88
326722 On ch=1 n=d#4 v=74
326722 On ch=1 n=a4 v=70
326727 On ch=1 n=c7 v=74
326732 On ch=1 n=a3 v=45
326737 On ch=1 n=c7 v=0
326737 On ch=1 n=d#4 v=0
326742 On ch=1 n=f#6 v=0
326752 On ch=1 n=a3 v=0
326752 On ch=1 n=a4 v=0
326757 On ch=1 n=f#7 v=0
326822 Par ch=1 c=64 v=88
326832 On ch=1 n=a7 v=105
326832 On ch=1 n=a6 v=82
326832 On ch=1 n=c#7 v=69
326832 Par ch=1 c=64 v=24
326837 On ch=1 n=e4 v=81
326837 Par ch=1 c=64 v=0
326842 On ch=1 n=a4 v=71
326842 On ch=1 n=a3 v=77
326897 Par ch=1 c=64 v=104
326902 Par ch=1 c=64 v=127
326907 On ch=1 n=a7 v=0
326917 On ch=1 n=a3 v=0
326927 On ch=1 n=e4 v=0
326927 On ch=1 n=c#7 v=0
326932 On ch=1 n=a6 v=0
326937 On ch=1 n=a4 v=0
327057 On ch=1 n=d#5 v=58
327057 On ch=1 n=c5 v=64
327057 On ch=1 n=d#6 v=75
327062 On ch=1 n=c6 v=38
327082 On ch=1 n=c6 v=0
327087 On ch=1 n=d#6 v=0
327092 On ch=1 n=c5 v=0
327092 On ch=1 n=d#5 v=0
327107 On ch=1 n=e6 v=77
327112 On ch=1 n=e5 v=68
327112 On ch=1 n=c#6 v=74
327117 On ch=1 n=c#5 v=56
327132 On ch=1 n=c#6 v=0
327137 On ch=1 n=e5 v=0
327147 On ch=1 n=c#5 v=0
327152 On ch=1 n=e6 v=0
327367 On ch=1 n=e7 v=99
327372 On ch=1 n=e6 v=83
327372 On ch=1 n=a6 v=75
327372 Par ch=1 c=64 v=104
327377 On ch=1 n=a4 v=67
327377 On ch=1 n=c#4 v=64
327377 Par ch=1 c=64 v=24
327382 On ch=1 n=a3 v=68
327387 Par ch=1 c=64 v=0
327417 On ch=1 n=a3 v=0
327422 On ch=1 n=a6 v=0
327422 Par ch=1 c=64 v=72
327427 On ch=1 n=c#4 v=0
327427 On ch=1 n=a4 v=0
327427 On ch=1 n=e7 v=0
327432 On ch=1 n=e6 v=0
327432 Par ch=1 c=64 v=127
327582 On ch=1 n=c5 v=68
327587 On ch=1 n=d#5 v=48
327592 On ch=1 n=g#5 v=31
327592 On ch=1 n=c6 v=42
327612 On ch=1 n=c6 v=0
327612 On ch=1 n=g#5 v=0
327612 On ch=1 n=d#5 v=0
327617 On ch=1 n=c5 v=0
327637 On ch=1 n=c#6 v=64
327637 On ch=1 n=a5 v=68
327642 On ch=1 n=c#5 v=60
327647 On ch=1 n=e5 v=65
327657 On ch=1 n=a5 v=0
327667 On ch=1 n=e5 v=0
327677 On ch=1 n=c#5 v=0
327682 On ch=1 n=c#6 v=0
327877 Par ch=1 c=64 v=72
327882 Par ch=1 c=64 v=0
327907 On ch=1 n=f#7 v=96
327907 On ch=1 n=f#6 v=84
327912 On ch=1 n=c7 v=81
327917 On ch=1 n=d#4 v=73
327917 On ch=1 n=a3 v=72
327917 On ch=1 n=a4 v=70
327927 On ch=1 n=c7 v=0
327937 On ch=1 n=c7 v=22
327937 Par ch=1 c=64 v=104
327942 Par ch=1 c=64 v=127
327947 On ch=1 n=a3 v=0
327952 On ch=1 n=c7 v=0
327952 On ch=1 n=d#4 v=0
327957 On ch=1 n=a4 v=0
327957 On ch=1 n=f#6 v=0
327962 On ch=1 n=f#7 v=0
328117 On ch=1 n=f5 v=61
328117 On ch=1 n=d5 v=62
328127 On ch=1 n=d6 v=61
328127 On ch=1 n=b5 v=53
328142 On ch=1 n=f5 v=0
328152 On ch=1 n=b5 v=0
328152 On ch=1 n=d6 v=0
328152 On ch=1 n=d5 v=0
328172 On ch=1 n=f#5 v=73
328177 On ch=1 n=d#6 v=70
328182 On ch=1 n=d#5 v=53
328182 On ch=1 n=c6 v=74
328192 On ch=1 n=c6 v=0
328197 On ch=1 n=d#5 v=0
328202 On ch=1 n=f#5 v=0
328217 On ch=1 n=d#6 v=0
328357 Par ch=1 c=64 v=104
328367 Par ch=1 c=64 v=56
328372 Par ch=1 c=64 v=0
328432 On ch=1 n=f#7 v=95
328437 On ch=1 n=f#6 v=83
328442 On ch=1 n=c7 v=84
328442 On ch=1 n=d#4 v=76
328442 On ch=1 n=a4 v=77
328442 On ch=1 n=a3 v=70
328452 On ch=1 n=c7 v=0
328457 Par ch=1 c=64 v=104
328462 Par ch=1 c=64 v=127
328467 On ch=1 n=a3 v=0
328472 On ch=1 n=d#4 v=0
328472 On ch=1 n=f#6 v=0
328472 On ch=1 n=f#7 v=0
328477 On ch=1 n=a4 v=0
328632 On ch=1 n=d5 v=30
328642 On ch=1 n=b5 v=42
328647 On ch=1 n=d6 v=31
328647 On ch=1 n=d#6 v=75
328652 On ch=1 n=f5 v=34
328657 On ch=1 n=b5 v=0
328662 On ch=1 n=d6 v=0
328667 On ch=1 n=f#5 v=62
328672 On ch=1 n=d#5 v=63
328677 On ch=1 n=f5 v=0
328682 On ch=1 n=d#6 v=0
328682 On ch=1 n=d5 v=0
328697 On ch=1 n=d#5 v=0
328697 On ch=1 n=f#5 v=0
328847 On ch=1 n=a4 v=25
328862 On ch=1 n=a4 v=0
328892 On ch=1 n=f#6 v=86
328892 On ch=1 n=f#7 v=92
328897 On ch=1 n=c7 v=86
328897 On ch=1 n=d#4 v=77
328897 On ch=1 n=a4 v=72
328902 On ch=1 n=a3 v=68
328907 On ch=1 n=c7 v=0
328917 On ch=1 n=a3 v=0
328917 On ch=1 n=f#6 v=0
328922 On ch=1 n=d#4 v=0
328927 On ch=1 n=a4 v=0
328927 On ch=1 n=f#7 v=0
329002 On ch=1 n=a#7 v=97
329002 On ch=1 n=a#6 v=80
329007 On ch=1 n=d7 v=86
329012 On ch=1 n=a#4 v=69
329012 On ch=1 n=f4 v=75
329012 Par ch=1 c=64 v=56
329017 On ch=1 n=a#3 v=67
329017 Par ch=1 c=64 v=0
329087 Par ch=1 c=64 v=104
329092 Par ch=1 c=64 v=127
329102 On ch=1 n=f4 v=0
329107 On ch=1 n=a#3 v=0
329107 On ch=1 n=a#7 v=0
329112 On ch=1 n=d7 v=0
329122 On ch=1 n=a#6 v=0
329127 On ch=1 n=a#4 v=0
329227 On ch=1 n=c#5 v=52
329227 On ch=1 n=e5 v=69
329237 On ch=1 n=e6 v=66
329242 On ch=1 n=c#6 v=38
329257 On ch=1 n=c#6 v=0
329262 On ch=1 n=e5 v=0
329262 On ch=1 n=c#5 v=0
329267 On ch=1 n=e6 v=0
329287 On ch=1 n=d6 v=71
329287 On ch=1 n=f6 v=72
329292 On ch=1 n=f5 v=66
329292 On ch=1 n=d5 v=64
329302 On ch=1 n=d6 v=0
329322 On ch=1 n=d5 v=0
329322 On ch=1 n=f5 v=0
329322 On ch=1 n=f6 v=0
329477 Par ch=1 c=64 v=104
329482 Par ch=1 c=64 v=88
329492 Par ch=1 c=64 v=72
329497 Par ch=1 c=64 v=40
329507 Par ch=1 c=64 v=0
329567 On ch=1 n=f7 v=96
329567 On ch=1 n=f6 v=82
329572 On ch=1 n=a#6 v=77
329577 On ch=1 n=a#4 v=63
329577 On ch=1 n=d4 v=66
329582 On ch=1 n=a#3 v=56
329597 On ch=1 n=d4 v=0
329597 Par ch=1 c=64 v=56
329607 Par ch=1 c=64 v=127
329612 On ch=1 n=a#3 v=0
329612 On ch=1 n=f7 v=0
329617 On ch=1 n=a#4 v=0
329617 On ch=1 n=a#6 v=0
329617 On ch=1 n=f6 v=0
329777 On ch=1 n=c#6 v=64
329777 On ch=1 n=c#5 v=51
329782 On ch=1 n=e5 v=62
329787 On ch=1 n=a5 v=56
329807 On ch=1 n=a5 v=0
329812 On ch=1 n=e5 v=0
329817 On ch=1 n=c#5 v=0
329817 On ch=1 n=c#6 v=0
329832 On ch=1 n=d6 v=78
329837 On ch=1 n=f5 v=64
329837 On ch=1 n=d5 v=60
329842 On ch=1 n=a#5 v=49
329852 On ch=1 n=a#5 v=0
329867 On ch=1 n=f5 v=0
329872 On ch=1 n=d5 v=0
329877 On ch=1 n=d6 v=0
330142 Par ch=1 c=64 v=104
330147 On ch=1 n=g7 v=105
330147 Par ch=1 c=64 v=56
330152 On ch=1 n=c#7 v=82
330152 On ch=1 n=g6 v=86
330157 Par ch=1 c=64 v=0
330162 On ch=1 n=a#4 v=65
330162 On ch=1 n=a#3 v=62
330167 On ch=1 n=e4 v=71
330212 Par ch=1 c=64 v=56
330217 On ch=1 n=g7 v=0
330222 On ch=1 n=e4 v=0
330222 On ch=1 n=a#3 v=0
330222 Par ch=1 c=64 v=127
330227 On ch=1 n=a#4 v=0
330232 On ch=1 n=c#7 v=0
330237 On ch=1 n=g6 v=0
330372 On ch=1 n=d#5 v=48
330372 On ch=1 n=d#6 v=61
330372 On ch=1 n=f#5 v=58
330372 On ch=1 n=c6 v=63
330402 On ch=1 n=c6 v=0
330407 On ch=1 n=d#6 v=0
330407 On ch=1 n=d#5 v=0
330412 On ch=1 n=f#5 v=0
330417 On ch=1 n=c#6 v=55
330422 On ch=1 n=e6 v=75
330427 On ch=1 n=g5 v=61
330432 On ch=1 n=e5 v=58
330442 On ch=1 n=c#6 v=0
330452 On ch=1 n=e6 v=0
330457 On ch=1 n=e5 v=0
330457 On ch=1 n=g5 v=0
330677 Par ch=1 c=64 v=88
330682 Par ch=1 c=64 v=24
330692 On ch=1 n=g7 v=94
330692 On ch=1 n=c#7 v=79
330692 Par ch=1 c=64 v=0
330697 On ch=1 n=g6 v=84
330697 On ch=1 n=a#4 v=68
330697 On ch=1 n=a#3 v=71
330697 On ch=1 n=e4 v=70
330717 On ch=1 n=e4 v=0
330732 On ch=1 n=a#3 v=0
330732 On ch=1 n=a#4 v=0
330732 On ch=1 n=g7 v=0
330732 Par ch=1 c=64 v=56
330737 Par ch=1 c=64 v=127
330742 On ch=1 n=c#7 v=0
330747 On ch=1 n=g6 v=0
330887 On ch=1 n=d#5 v=43
330892 On ch=1 n=f#5 v=38
330897 On ch=1 n=d#6 v=34
330907 On ch=1 n=e6 v=57
330912 On ch=1 n=c6 v=38
330917 On ch=1 n=c#6 v=48
330927 On ch=1 n=c6 v=0
330927 On ch=1 n=g5 v=53
330932 On ch=1 n=c#6 v=0
330932 On ch=1 n=d#6 v=0
330932 On ch=1 n=e5 v=66
330937 On ch=1 n=e6 v=0
330947 On ch=1 n=f#5 v=0
330947 On ch=1 n=d#5 v=0
330952 On ch=1 n=g5 v=0
330962 On ch=1 n=e5 v=0
331077 On ch=1 n=g7 v=97
331077 On ch=1 n=g6 v=84
331082 On ch=1 n=c#7 v=76
331087 On ch=1 n=a#4 v=65
331087 On ch=1 n=e4 v=60
331087 On ch=1 n=a#3 v=67
331097 On ch=1 n=e4 v=0
331102 On ch=1 n=c#7 v=0
331107 On ch=1 n=a#4 v=0
331107 On ch=1 n=g6 v=0
331112 On ch=1 n=g7 v=0
331137 On ch=1 n=a#3 v=0
331202 Par ch=1 c=64 v=88
331212 Par ch=1 c=64 v=56
331217 Par ch=1 c=64 v=0
331222 On ch=1 n=b7 v=100
331227 On ch=1 n=b6 v=86
331227 On ch=1 n=d#7 v=81
331232 On ch=1 n=f#4 v=62
331232 On ch=1 n=b4 v=69
331237 On ch=1 n=b3 v=64
331287 Par ch=1 c=64 v=72
331297 Par ch=1 c=64 v=127
331302 On ch=1 n=b3 v=0
331302 On ch=1 n=b7 v=0
331312 On ch=1 n=f#4 v=0
331322 On ch=1 n=b4 v=0
331322 On ch=1 n=d#7 v=0
331327 On ch=1 n=b6 v=0
331447 On ch=1 n=f5 v=66
331447 On ch=1 n=d5 v=64
331457 On ch=1 n=d6 v=53
331462 On ch=1 n=a#5 v=50
331467 On ch=1 n=d5 v=0
331482 On ch=1 n=f5 v=0
331487 On ch=1 n=a#5 v=0
331502 On ch=1 n=d6 v=0
331502 On ch=1 n=f#5 v=64
331507 On ch=1 n=d#5 v=50
331517 On ch=1 n=d#6 v=62
331517 On ch=1 n=b5 v=59
331532 On ch=1 n=b5 v=0
331542 On ch=1 n=d#5 v=0
331542 On ch=1 n=f#5 v=0
331547 On ch=1 n=d#6 v=0
331742 On ch=1 n=b7 v=102
331742 Par ch=1 c=64 v=104
331747 On ch=1 n=b6 v=85
331752 On ch=1 n=b3 v=66
331752 On ch=1 n=b4 v=70
331752 Par ch=1 c=64 v=56
331762 Par ch=1 c=64 v=0
331782 Par ch=1 c=64 v=104
331787 On ch=1 n=b3 v=0
331792 Par ch=1 c=64 v=127
331797 On ch=1 n=b7 v=0
331802 On ch=1 n=b4 v=0
331802 Par ch=1 c=64 v=127
331807 On ch=1 n=b6 v=0
331937 On ch=1 n=c#5 v=45
331952 On ch=1 n=e5 v=47
331977 On ch=1 n=c#5 v=0
331977 On ch=1 n=d6 v=36
331992 On ch=1 n=d6 v=0
331997 On ch=1 n=d5 v=34
332002 On ch=1 n=e5 v=0
332007 On ch=1 n=f5 v=54
332022 On ch=1 n=f5 v=0
332037 On ch=1 n=d5 v=0
332152 On ch=1 n=b7 v=94
332162 On ch=1 n=b6 v=80
332162 On ch=1 n=b4 v=66
332162 On ch=1 n=b3 v=68
332182 On ch=1 n=b3 v=0
332182 On ch=1 n=b4 v=0
332187 On ch=1 n=b6 v=0
332197 On ch=1 n=b7 v=0
332242 Par ch=1 c=64 v=104
332252 Par ch=1 c=64 v=88
332257 Par ch=1 c=64 v=56
332262 Par ch=1 c=64 v=24
332272 Par ch=1 c=64 v=0
332292 On ch=1 n=c8 v=100
332292 On ch=1 n=c7 v=86
332297 On ch=1 n=c4 v=76
332297 On ch=1 n=c5 v=76
332342 On ch=1 n=c4 v=0
332342 On ch=1 n=c8 v=0
332342 Par ch=1 c=64 v=104
332352 On ch=1 n=c5 v=0
332352 On ch=1 n=c7 v=0
332352 Par ch=1 c=64 v=127
332497 On ch=1 n=d5 v=52
332497 On ch=1 n=d6 v=66
332502 On ch=1 n=b5 v=58
332502 On ch=1 n=b4 v=42
332517 On ch=1 n=b4 v=0
332522 On ch=1 n=d5 v=0
332532 On ch=1 n=b5 v=0
332537 On ch=1 n=d6 v=0
332547 On ch=1 n=c5 v=25
332552 On ch=1 n=d#6 v=71
332552 On ch=1 n=d#5 v=65
332557 On ch=1 n=c6 v=55
332567 On ch=1 n=c6 v=0
332587 On ch=1 n=c5 v=0
332592 On ch=1 n=d#5 v=0
332592 On ch=1 n=d#6 v=0
332732 Par ch=1 c=64 v=104
332737 Par ch=1 c=64 v=88
332752 Par ch=1 c=64 v=72
332762 Par ch=1 c=64 v=56
332767 Par ch=1 c=64 v=24
332777 Par ch=1 c=64 v=0
332817 On ch=1 n=c#8 v=99
332822 On ch=1 n=c#7 v=84
332827 On ch=1 n=c#4 v=71
332827 On ch=1 n=c#5 v=68
332847 Par ch=1 c=64 v=40
332857 Par ch=1 c=64 v=127
332872 On ch=1 n=c#4 v=0
332872 On ch=1 n=c#8 v=0
332877 On ch=1 n=c#5 v=0
332877 On ch=1 n=c#7 v=0
333022 On ch=1 n=f#5 v=64
333022 On ch=1 n=d#5 v=54
333022 On ch=1 n=d#6 v=67
333027 On ch=1 n=f#6 v=70
333052 On ch=1 n=d#6 v=0
333057 On ch=1 n=d#5 v=0
333062 On ch=1 n=f#6 v=0
333067 On ch=1 n=f#5 v=0
333077 On ch=1 n=g6 v=82
333077 On ch=1 n=e5 v=60
333082 On ch=1 n=e6 v=73
333087 On ch=1 n=g5 v=64
333097 On ch=1 n=e6 v=0
333097 On ch=1 n=f#6 v=30
333102 On ch=1 n=g5 v=0
333107 On ch=1 n=f#6 v=0
333112 On ch=1 n=e5 v=0
333117 On ch=1 n=g6 v=0
333252 On ch=1 n=c#8 v=100
333252 On ch=1 n=c#5 v=68
333252 On ch=1 n=c#4 v=65
333252 On ch=1 n=c#7 v=74
333272 On ch=1 n=c#4 v=0
333282 On ch=1 n=c#5 v=0
333287 On ch=1 n=c#7 v=0
333292 On ch=1 n=c#8 v=0
333362 On ch=1 n=d8 v=105
333362 On ch=1 n=d7 v=80
333367 Par ch=1 c=64 v=104
333372 On ch=1 n=d5 v=74
333372 Par ch=1 c=64 v=56
333377 On ch=1 n=d4 v=75
333382 Par ch=1 c=64 v=0
333432 On ch=1 n=d8 v=0
333442 On ch=1 n=d4 v=0
333442 Par ch=1 c=64 v=104
333452 On ch=1 n=d7 v=0
333452 Par ch=1 c=64 v=127
333462 On ch=1 n=d5 v=0
333567 On ch=1 n=e5 v=64
333577 On ch=1 n=g#5 v=46
333582 On ch=1 n=g#6 v=57
333582 On ch=1 n=e6 v=58
333607 On ch=1 n=e5 v=0
333612 On ch=1 n=e6 v=0
333612 On ch=1 n=g#6 v=0
333612 On ch=1 n=g#5 v=0
333642 On ch=1 n=a6 v=77
333647 On ch=1 n=f6 v=70
333647 On ch=1 n=a5 v=69
333647 On ch=1 n=f5 v=58
333662 On ch=1 n=f6 v=0
333677 On ch=1 n=f5 v=0
333677 On ch=1 n=a5 v=0
333682 On ch=1 n=a6 v=0
333902 Par ch=1 c=64 v=88
333907 Par ch=1 c=64 v=24
333912 On ch=1 n=a7 v=102
333912 On ch=1 n=a6 v=84
333917 Par ch=1 c=64 v=0
333922 On ch=1 n=a3 v=70
333927 On ch=1 n=a4 v=68
333957 On ch=1 n=a3 v=0
333957 On ch=1 n=a7 v=0
333957 Par ch=1 c=64 v=56
333962 Par ch=1 c=64 v=127
333967 On ch=1 n=a4 v=0
333977 On ch=1 n=a6 v=0
334112 On ch=1 n=c#5 v=48
334122 On ch=1 n=e6 v=56
334122 On ch=1 n=e5 v=34
334142 On ch=1 n=e5 v=0
334147 On ch=1 n=e6 v=0
334147 On ch=1 n=c#5 v=0
334172 On ch=1 n=f6 v=81
334172 On ch=1 n=f5 v=66
334172 On ch=1 n=d5 v=68
334177 On ch=1 n=d6 v=56
334192 On ch=1 n=d6 v=0
334202 On ch=1 n=d5 v=0
334202 On ch=1 n=f5 v=0
334207 On ch=1 n=f6 v=0
334437 On ch=1 n=f7 v=96
334442 On ch=1 n=f6 v=90
334442 Par ch=1 c=64 v=88
334447 On ch=1 n=f3 v=74
334447 On ch=1 n=f4 v=76
334447 Par ch=1 c=64 v=0
334482 On ch=1 n=f3 v=0
334487 On ch=1 n=f4 v=0
334487 On ch=1 n=f7 v=0
334487 Par ch=1 c=64 v=72
334492 On ch=1 n=f6 v=0
334497 Par ch=1 c=64 v=127
334657 On ch=1 n=c#5 v=52
334657 On ch=1 n=c#6 v=64
334662 On ch=1 n=g#5 v=56
334692 On ch=1 n=g#5 v=0
334692 On ch=1 n=c#5 v=0
334697 On ch=1 n=c#6 v=0
334712 On ch=1 n=d5 v=68
334717 On ch=1 n=d6 v=85
334717 On ch=1 n=a5 v=74
334722 On ch=1 n=a4 v=46
334747 On ch=1 n=a5 v=0
334747 On ch=1 n=d5 v=0
334762 On ch=1 n=a4 v=0
334762 On ch=1 n=d6 v=0
334987 On ch=1 n=d7 v=90
334992 On ch=1 n=d6 v=85
334992 Par ch=1 c=64 v=72
334997 On ch=1 n=d4 v=80
334997 On ch=1 n=d3 v=68
334997 Par ch=1 c=64 v=0
335032 On ch=1 n=d3 v=0
335032 Par ch=1 c=64 v=40
335037 Par ch=1 c=64 v=104
335042 On ch=1 n=d7 v=0
335047 On ch=1 n=d4 v=0
335047 On ch=1 n=d6 v=0
335047 Par ch=1 c=64 v=127
335187 On ch=1 n=g#4 v=57
335187 On ch=1 n=e4 v=59
335192 On ch=1 n=g#5 v=55
335197 On ch=1 n=e5 v=52
335217 On ch=1 n=e5 v=0
335222 On ch=1 n=g#5 v=0
335222 On ch=1 n=e4 v=0
335227 On ch=1 n=g#4 v=0
335252 On ch=1 n=a5 v=72
335257 On ch=1 n=f4 v=61
335257 On ch=1 n=a4 v=58
335262 On ch=1 n=f5 v=49
335277 On ch=1 n=f5 v=0
335282 On ch=1 n=a4 v=0
335287 On ch=1 n=f4 v=0
335297 On ch=1 n=a5 v=0
335502 Par ch=1 c=64 v=40
335512 Par ch=1 c=64 v=0
335527 On ch=1 n=a#7 v=100
335532 On ch=1 n=a#6 v=90
335537 On ch=1 n=a#3 v=75
335537 On ch=1 n=a#4 v=82
335567 Par ch=1 c=64 v=104
335572 Par ch=1 c=64 v=127
335582 On ch=1 n=a#3 v=0
335582 On ch=1 n=a#7 v=0
335587 On ch=1 n=a#4 v=0
335592 On ch=1 n=a#6 v=0
335732 On ch=1 n=c#5 v=46
335732 On ch=1 n=e5 v=56
335737 On ch=1 n=e6 v=55
335742 On ch=1 n=c#6 v=32
335752 On ch=1 n=e5 v=0
335757 On ch=1 n=c#6 v=0
335762 On ch=1 n=e6 v=0
335762 On ch=1 n=c#5 v=0
335792 On ch=1 n=d6 v=68
335792 On ch=1 n=f6 v=70
335797 On ch=1 n=f5 v=64
335797 On ch=1 n=d5 v=64
335812 On ch=1 n=d6 v=0
335822 On ch=1 n=f5 v=0
335827 On ch=1 n=d5 v=0
335832 On ch=1 n=f6 v=0
336052 On ch=1 n=f7 v=96
336052 Par ch=1 c=64 v=88
336057 On ch=1 n=f6 v=89
336057 Par ch=1 c=64 v=0
336067 On ch=1 n=f4 v=79
336067 On ch=1 n=f3 v=73
336097 On ch=1 n=f3 v=0
336097 Par ch=1 c=64 v=56
336102 On ch=1 n=f7 v=0
336107 Par ch=1 c=64 v=127
336112 On ch=1 n=f4 v=0
336117 On ch=1 n=f6 v=0
336262 On ch=1 n=a4 v=62
336262 On ch=1 n=c#5 v=51
336262 On ch=1 n=c#6 v=55
336272 On ch=1 n=a5 v=53
336292 On ch=1 n=a5 v=0
336292 On ch=1 n=c#5 v=0
336292 On ch=1 n=a4 v=0
336302 On ch=1 n=c#6 v=0
336307 On ch=1 n=d6 v=80
336312 On ch=1 n=d5 v=76
336312 On ch=1 n=a#5 v=57
336312 On ch=1 n=a#4 v=55
336332 On ch=1 n=a#5 v=0
336337 On ch=1 n=d5 v=0
336347 On ch=1 n=a#4 v=0
336347 On ch=1 n=d6 v=0
336567 Par ch=1 c=64 v=56
336572 Par ch=1 c=64 v=0
336577 On ch=1 n=d7 v=90
336582 On ch=1 n=d6 v=84
336587 On ch=1 n=d4 v=78
336587 On ch=1 n=d3 v=69
336607 On ch=1 n=d3 v=0
336612 Par ch=1 c=64 v=72
336617 Par ch=1 c=64 v=127
336627 On ch=1 n=d4 v=0
336627 On ch=1 n=d7 v=0
336632 On ch=1 n=d6 v=0
336792 On ch=1 n=e4 v=66
336797 On ch=1 n=a4 v=61
336802 On ch=1 n=e5 v=67
336802 On ch=1 n=a5 v=66
336827 On ch=1 n=e4 v=0
336832 On ch=1 n=a5 v=0
336832 On ch=1 n=e5 v=0
336832 On ch=1 n=a4 v=0
336852 On ch=1 n=a#4 v=65
336857 On ch=1 n=a#5 v=73
336857 On ch=1 n=f4 v=68
336857 On ch=1 n=f5 v=70
336877 On ch=1 n=f5 v=0
336877 On ch=1 n=a#4 v=0
336882 On ch=1 n=f4 v=0
336897 On ch=1 n=a#5 v=0
337092 Par ch=1 c=64 v=104
337097 Par ch=1 c=64 v=24
337102 On ch=1 n=a#6 v=87
337102 On ch=1 n=a#5 v=85
337107 On ch=1 n=a#2 v=65
337107 Par ch=1 c=64 v=0
337112 On ch=1 n=a#3 v=77
337147 On ch=1 n=a#3 v=0
337147 On ch=1 n=a#2 v=0
337147 On ch=1 n=a#6 v=0
337147 Par ch=1 c=64 v=56
337152 On ch=1 n=a#5 v=0
337152 Par ch=1 c=64 v=127
337297 On ch=1 n=e4 v=68
337297 On ch=1 n=c#4 v=56
337307 On ch=1 n=e5 v=44
337307 On ch=1 n=c#5 v=32
337322 On ch=1 n=c#5 v=0
337322 On ch=1 n=e5 v=0
337327 On ch=1 n=e4 v=0
337332 On ch=1 n=c#4 v=0
337357 On ch=1 n=d5 v=69
337357 On ch=1 n=f5 v=51
337362 On ch=1 n=d4 v=70
337362 On ch=1 n=f4 v=61
337362 On ch=1 n=f#5 v=40
337372 On ch=1 n=d5 v=0
337382 On ch=1 n=f4 v=0
337387 On ch=1 n=d4 v=0
337392 On ch=1 n=f5 v=0
337397 On ch=1 n=f#5 v=0
337592 Par ch=1 c=64 v=72
337602 Par ch=1 c=64 v=0
337667 On ch=1 n=d#4 v=85
337667 On ch=1 n=d#3 v=67
337672 On ch=1 n=d#7 v=82
337672 On ch=1 n=d#6 v=81
337672 Par ch=1 c=64 v=56
337682 Par ch=1 c=64 v=127
337702 On ch=1 n=d#7 v=0
337712 On ch=1 n=d#6 v=0
337747 On ch=1 n=d#4 v=0
337752 On ch=1 n=d#3 v=0
337862 On ch=1 n=f#4 v=53
337867 On ch=1 n=f#5 v=51
337867 On ch=1 n=a4 v=59
337872 On ch=1 n=d5 v=58
337892 On ch=1 n=d5 v=0
337897 On ch=1 n=a4 v=0
337897 On ch=1 n=f#5 v=0
337897 On ch=1 n=f#4 v=0
337917 On ch=1 n=g5 v=73
337927 On ch=1 n=a#4 v=64
337927 On ch=1 n=d#5 v=54
337932 On ch=1 n=g4 v=66
337942 On ch=1 n=g4 v=0
337942 On ch=1 n=d#5 v=0
337952 On ch=1 n=a#4 v=0
337957 On ch=1 n=g5 v=0
338167 Par ch=1 c=64 v=56
338172 Par ch=1 c=64 v=0
338182 On ch=1 n=a#6 v=88
338182 On ch=1 n=a#5 v=83
338192 On ch=1 n=a#2 v=62
338192 On ch=1 n=a#3 v=77
338217 Par ch=1 c=64 v=56
338222 On ch=1 n=a#3 v=0
338222 On ch=1 n=a#5 v=0
338222 Par ch=1 c=64 v=127
338227 On ch=1 n=a#2 v=0
338227 On ch=1 n=a#6 v=0
338377 On ch=1 n=f#5 v=61
338377 On ch=1 n=a4 v=63
338377 On ch=1 n=f#4 v=51
338382 On ch=1 n=d5 v=56
338397 On ch=1 n=d5 v=0
338397 On ch=1 n=a4 v=0
338407 On ch=1 n=f#4 v=0
338407 On ch=1 n=f#5 v=0
338432 On ch=1 n=g5 v=79
338437 On ch=1 n=d#5 v=53
338437 On ch=1 n=a#4 v=57
338442 On ch=1 n=g4 v=69
338452 On ch=1 n=d#5 v=0
338467 On ch=1 n=g4 v=0
338467 On ch=1 n=a#4 v=0
338477 On ch=1 n=g5 v=0
338617 Par ch=1 c=64 v=104
338622 Par ch=1 c=64 v=40
338632 Par ch=1 c=64 v=0
338697 On ch=1 n=d#6 v=82
338702 On ch=1 n=d#7 v=95
338702 On ch=1 n=d#4 v=82
338702 On ch=1 n=d#3 v=64
338717 Par ch=1 c=64 v=127
338737 On ch=1 n=d#3 v=0
338742 On ch=1 n=d#4 v=0
338742 On ch=1 n=d#7 v=0
338742 On ch=1 n=d#6 v=0
338897 On ch=1 n=f#4 v=55
338902 On ch=1 n=f#5 v=64
338902 On ch=1 n=a4 v=58
338902 On ch=1 n=d5 v=63
338917 On ch=1 n=d5 v=0
338917 On ch=1 n=a4 v=0
338922 On ch=1 n=f#4 v=0
338927 On ch=1 n=f#5 v=0
338947 On ch=1 n=g5 v=84
338952 On ch=1 n=a#4 v=62
338952 On ch=1 n=d#5 v=50
338957 On ch=1 n=g4 v=61
338967 On ch=1 n=d#5 v=0
338972 On ch=1 n=g4 v=0
338982 On ch=1 n=a#4 v=0
338987 On ch=1 n=g5 v=0
339167 Par ch=1 c=64 v=104
339177 Par ch=1 c=64 v=40
339182 Par ch=1 c=64 v=0
339202 On ch=1 n=a#6 v=90
339202 On ch=1 n=a#5 v=86
339212 On ch=1 n=a#3 v=75
339212 On ch=1 n=a#2 v=68
339232 Par ch=1 c=64 v=72
339242 On ch=1 n=a#2 v=0
339242 On ch=1 n=a#6 v=0
339242 Par ch=1 c=64 v=127
339247 On ch=1 n=a#3 v=0
339247 On ch=1 n=a#5 v=0
339387 On ch=1 n=f#5 v=57
339392 On ch=1 n=a4 v=62
339392 On ch=1 n=f#4 v=48
339402 On ch=1 n=d5 v=38
339417 On ch=1 n=d5 v=0
339417 On ch=1 n=a4 v=0
339417 On ch=1 n=f#5 v=0
339427 On ch=1 n=f#4 v=0
339442 On ch=1 n=g5 v=81
339447 On ch=1 n=d#5 v=59
339452 On ch=1 n=a#4 v=61
339457 On ch=1 n=g4 v=67
339462 On ch=1 n=d#5 v=0
339467 On ch=1 n=g4 v=0
339477 On ch=1 n=a#4 v=0
339477 On ch=1 n=g5 v=0
339707 Par ch=1 c=64 v=72
339712 Par ch=1 c=64 v=0
339717 On ch=1 n=a6 v=93
339722 On ch=1 n=a5 v=88
339732 On ch=1 n=a2 v=70
339732 On ch=1 n=a3 v=82
339762 On ch=1 n=a2 v=0
339762 On ch=1 n=a6 v=0
339762 Par ch=1 c=64 v=127
339767 On ch=1 n=a5 v=0
339772 On ch=1 n=a3 v=0
339927 On ch=1 n=c#5 v=64
339932 On ch=1 n=e5 v=72
339932 On ch=1 n=e4 v=59
339957 On ch=1 n=c#5 v=0
339967 On ch=1 n=e4 v=0
339967 On ch=1 n=e5 v=0
339987 On ch=1 n=f4 v=73
339987 On ch=1 n=f5 v=79
339992 On ch=1 n=d5 v=78
340017 On ch=1 n=d5 v=0
340017 On ch=1 n=f4 v=0
340032 On ch=1 n=f5 v=0
340257 On ch=1 n=f6 v=92
340257 Par ch=1 c=64 v=56
340262 On ch=1 n=f5 v=77
340262 Par ch=1 c=64 v=0
340267 On ch=1 n=f2 v=66
340267 On ch=1 n=f3 v=68
340297 On ch=1 n=f2 v=0
340297 On ch=1 n=f6 v=0
340307 On ch=1 n=f3 v=0
340307 Par ch=1 c=64 v=104
340312 On ch=1 n=f5 v=0
340312 Par ch=1 c=64 v=127
340457 On ch=1 n=c#5 v=67
340462 On ch=1 n=g#4 v=65
340467 On ch=1 n=e4 v=68
340492 On ch=1 n=g#4 v=0
340497 On ch=1 n=c#5 v=0
340502 On ch=1 n=e4 v=0
340517 On ch=1 n=d5 v=79
340517 On ch=1 n=a4 v=64
340522 On ch=1 n=f4 v=66
340542 On ch=1 n=a4 v=0
340552 On ch=1 n=f4 v=0
340557 On ch=1 n=d5 v=0
340777 Par ch=1 c=64 v=72
340787 On ch=1 n=e6 v=97
340787 On ch=1 n=e5 v=84
340787 Par ch=1 c=64 v=0
340797 On ch=1 n=e3 v=75
340797 On ch=1 n=e2 v=70
340837 Par ch=1 c=64 v=104
340842 On ch=1 n=e2 v=0
340842 Par ch=1 c=64 v=127
340852 On ch=1 n=e6 v=0
340857 On ch=1 n=e3 v=0
340872 On ch=1 n=e5 v=0
341057 On ch=1 n=d5 v=79
341057 On ch=1 n=a#4 v=58
341062 On ch=1 n=g4 v=66
341072 On ch=1 n=e4 v=69
341072 On ch=1 n=a#3 v=57
341072 On ch=1 n=d4 v=60
341092 On ch=1 n=d4 v=0
341097 On ch=1 n=g4 v=0
341102 On ch=1 n=a#4 v=0
341107 On ch=1 n=e4 v=0
341112 On ch=1 n=a#3 v=0
341127 On ch=1 n=d5 v=0
341357 Par ch=1 c=64 v=40
341362 On ch=1 n=a6 v=96
341362 On ch=1 n=a5 v=84
341367 Par ch=1 c=64 v=0
341372 On ch=1 n=a3 v=86
341372 On ch=1 n=a2 v=71
341422 Par ch=1 c=64 v=88
341432 Par ch=1 c=64 v=127
341462 On ch=1 n=a2 v=0
341467 On ch=1 n=a3 v=0
341467 On ch=1 n=a6 v=0
341477 On ch=1 n=a5 v=0
341672 On ch=1 n=a5 v=94
341677 On ch=1 n=e5 v=76
341677 On ch=1 n=a4 v=78
341677 On ch=1 n=c#5 v=65
341682 On ch=1 n=g4 v=71
341682 On ch=1 n=e4 v=64
341682 On ch=1 n=c#4 v=55
341682 On ch=1 n=a3 v=68
341712 On ch=1 n=a3 v=0
341712 On ch=1 n=e4 v=0
341717 On ch=1 n=c#4 v=0
341722 On ch=1 n=g4 v=0
341732 On ch=1 n=a4 v=0
341737 On ch=1 n=c#5 v=0
341737 On ch=1 n=e5 v=0
341742 On ch=1 n=a5 v=0
342052 On ch=1 n=d5 v=94
342057 On ch=1 n=f4 v=82
342057 On ch=1 n=d4 v=77
342057 On ch=1 n=a4 v=76
342062 On ch=1 n=a3 v=75
342062 On ch=1 n=d3 v=71
342072 Par ch=1 c=64 v=127
342102 On ch=1 n=f4 v=0
342107 On ch=1 n=a4 v=0
342132 On ch=1 n=d5 v=0
342207 On ch=1 n=d5 v=86
342267 On ch=1 n=d5 v=0
342297 On ch=1 n=d6 v=82
342327 On ch=1 n=d6 v=0
342387 On ch=1 n=d6 v=99
342472 On ch=1 n=d6 v=0
342482 On ch=1 n=d7 v=87
342512 On ch=1 n=d7 v=0
342572 On ch=1 n=d7 v=100
342657 On ch=1 n=d7 v=0
342662 On ch=1 n=d8 v=102
342762 On ch=1 n=d8 v=0
342762 On ch=1 n=d7 v=84
342792 On ch=1 n=d7 v=0
342857 On ch=1 n=d7 v=75
342892 On ch=1 n=d7 v=0
342952 On ch=1 n=d6 v=44
342972 On ch=1 n=d6 v=0
343012 On ch=1 n=d3 v=0
343027 On ch=1 n=d4 v=0
343042 On ch=1 n=d6 v=59
343072 On ch=1 n=a3 v=0
343097 On ch=1 n=d4 v=93
343107 On ch=1 n=d6 v=0
343107 On ch=1 n=a3 v=51
343122 On ch=1 n=a3 v=0
343127 On ch=1 n=d5 v=64
343152 On ch=1 n=d4 v=0
343167 On ch=1 n=d5 v=0
343187 On ch=1 n=d#3 v=68
343202 On ch=1 n=f#3 v=61
343237 On ch=1 n=a3 v=59
343237 Par ch=1 c=64 v=72
343242 Par ch=1 c=64 v=0
343257 On ch=1 n=d#4 v=112
343312 Par ch=1 c=64 v=104
343322 Par ch=1 c=64 v=127
343352 On ch=1 n=f#5 v=69
343352 On ch=1 n=d5 v=63
343387 On ch=1 n=d5 v=0
343427 On ch=1 n=f#5 v=0
343447 On ch=1 n=d6 v=86
343452 On ch=1 n=c6 v=77
343467 On ch=1 n=c6 v=0
343482 On ch=1 n=d6 v=0
343542 On ch=1 n=d6 v=80
343542 On ch=1 n=f#6 v=85
343572 On ch=1 n=d6 v=0
343627 On ch=1 n=f#6 v=0
343627 On ch=1 n=d7 v=71
343632 On ch=1 n=c7 v=66
343647 On ch=1 n=c7 v=0
343652 On ch=1 n=d7 v=0
343717 On ch=1 n=d7 v=85
343722 On ch=1 n=f#7 v=76
343752 On ch=1 n=d7 v=0
343777 On ch=1 n=f#7 v=0
343817 On ch=1 n=d8 v=102
343817 On ch=1 n=c8 v=86
343902 On ch=1 n=f#7 v=37
343917 On ch=1 n=d8 v=0
343922 On ch=1 n=d7 v=63
343927 On ch=1 n=c8 v=0
343932 On ch=1 n=f#7 v=0
343952 On ch=1 n=d7 v=0
344007 On ch=1 n=d7 v=84
344032 On ch=1 n=c7 v=17
344047 On ch=1 n=c7 v=0
344057 On ch=1 n=d7 v=0
344092 On ch=1 n=f#6 v=57
344112 On ch=1 n=d6 v=67
344132 On ch=1 n=f#6 v=0
344142 On ch=1 n=d6 v=0
344152 On ch=1 n=d#3 v=0
344157 On ch=1 n=a3 v=0
344177 On ch=1 n=d#4 v=0
344177 On ch=1 n=f#3 v=0
344197 On ch=1 n=d6 v=56
344202 On ch=1 n=d6 v=51
344207 On ch=1 n=c6 v=43
344217 On ch=1 n=d6 v=0
344227 On ch=1 n=c6 v=0
344247 On ch=1 n=d4 v=94
344252 On ch=1 n=d3 v=74
344257 On ch=1 n=d6 v=0
344267 On ch=1 n=f#5 v=54
344277 On ch=1 n=d3 v=0
344282 On ch=1 n=d5 v=58
344287 On ch=1 n=d4 v=0
344307 On ch=1 n=f#5 v=0
344332 On ch=1 n=d5 v=0
344377 On ch=1 n=g#3 v=47
344382 On ch=1 n=f3 v=44
344382 On ch=1 n=e3 v=56
344387 On ch=1 n=b3 v=70
344387 Par ch=1 c=64 v=56
344397 On ch=1 n=e3 v=0
344397 Par ch=1 c=64 v=0
344407 On ch=1 n=d4 v=52
344427 On ch=1 n=f4 v=100
344467 Par ch=1 c=64 v=127
344522 On ch=1 n=d5 v=68
344522 On ch=1 n=f5 v=74
344547 On ch=1 n=f3 v=0
344557 On ch=1 n=d5 v=0
344577 On ch=1 n=f5 v=0
344602 On ch=1 n=d6 v=74
344612 On ch=1 n=f3 v=33
344612 On ch=1 n=b5 v=58
344627 On ch=1 n=b5 v=0
344632 On ch=1 n=d6 v=0
344697 On ch=1 n=d6 v=78
344702 On ch=1 n=f6 v=74
344732 On ch=1 n=d6 v=0
344772 On ch=1 n=f6 v=0
344787 On ch=1 n=d7 v=71
344792 On ch=1 n=b6 v=62
344807 On ch=1 n=b6 v=0
344817 On ch=1 n=d7 v=0
344877 On ch=1 n=d7 v=75
344882 On ch=1 n=f7 v=82
344917 On ch=1 n=f7 v=0
344917 On ch=1 n=d7 v=0
344972 On ch=1 n=d8 v=99
344972 On ch=1 n=b7 v=83
345057 On ch=1 n=f7 v=63
345072 On ch=1 n=d7 v=69
345077 On ch=1 n=d8 v=0
345087 On ch=1 n=b7 v=0
345092 On ch=1 n=f7 v=0
345107 On ch=1 n=d7 v=0
345162 On ch=1 n=d7 v=81
345172 On ch=1 n=b6 v=68
345207 On ch=1 n=b6 v=0
345207 On ch=1 n=d7 v=0
345232 On ch=1 n=b3 v=0
345237 On ch=1 n=d4 v=0
345242 On ch=1 n=f4 v=0
345247 On ch=1 n=g#3 v=0
345247 On ch=1 n=f6 v=44
345252 On ch=1 n=f3 v=0
345267 On ch=1 n=d6 v=68
345272 On ch=1 n=f6 v=0
345287 On ch=1 n=d6 v=0
345342 On ch=1 n=d6 v=76
345352 On ch=1 n=b5 v=59
345367 On ch=1 n=d4 v=89
345367 On ch=1 n=d3 v=68
345382 On ch=1 n=d3 v=0
345392 On ch=1 n=b5 v=0
345402 On ch=1 n=d4 v=0
345407 On ch=1 n=d6 v=0
345412 On ch=1 n=f5 v=53
345432 On ch=1 n=d5 v=54
345437 On ch=1 n=f5 v=0
345482 On ch=1 n=d5 v=0
345502 On ch=1 n=a#3 v=71
345502 Par ch=1 c=64 v=88
345507 On ch=1 n=d4 v=71
345512 Par ch=1 c=64 v=0
345542 On ch=1 n=g4 v=75
345557 Par ch=1 c=64 v=104
345562 On ch=1 n=a#4 v=93
345567 Par ch=1 c=64 v=127
345582 On ch=1 n=d4 v=0
345622 On ch=1 n=d4 v=14
345657 On ch=1 n=e5 v=74
345657 On ch=1 n=d5 v=48
345677 On ch=1 n=d5 v=0
345727 On ch=1 n=e5 v=0
345742 On ch=1 n=d6 v=68
345747 On ch=1 n=a#5 v=43
345767 On ch=1 n=a#5 v=0
345772 On ch=1 n=d6 v=0
345802 On ch=1 n=a#3 v=0
345807 On ch=1 n=d4 v=0
345812 On ch=1 n=g4 v=0
345832 On ch=1 n=d6 v=63
345837 On ch=1 n=e6 v=76
345857 On ch=1 n=d6 v=0
345857 On ch=1 n=a#4 v=0
345917 On ch=1 n=e6 v=0
345917 On ch=1 n=a#6 v=48
345917 On ch=1 n=d7 v=63
345932 On ch=1 n=a#4 v=100
345932 On ch=1 n=a#3 v=72
345947 On ch=1 n=a#6 v=0
345952 On ch=1 n=d7 v=0
345972 On ch=1 n=a#3 v=0
346002 On ch=1 n=d7 v=70
346007 On ch=1 n=e7 v=78
346027 On ch=1 n=a#4 v=0
346042 On ch=1 n=d7 v=0
346047 On ch=1 n=e7 v=0
346087 On ch=1 n=a4 v=100
346087 On ch=1 n=a3 v=92
346107 On ch=1 n=d8 v=78
346112 On ch=1 n=a#7 v=46
346127 Par ch=1 c=64 v=88
346132 Par ch=1 c=64 v=0
346162 Par ch=1 c=64 v=40
346172 On ch=1 n=e7 v=63
346172 Par ch=1 c=64 v=127
346182 On ch=1 n=d8 v=0
346202 On ch=1 n=e7 v=0
346202 On ch=1 n=a#7 v=0
346202 On ch=1 n=d7 v=68
346217 On ch=1 n=d7 v=0
346287 On ch=1 n=a#6 v=40
346287 On ch=1 n=d7 v=41
346307 On ch=1 n=d7 v=0
346322 On ch=1 n=a#6 v=0
346362 On ch=1 n=a4 v=0
346362 On ch=1 n=e6 v=61
346367 On ch=1 n=a3 v=0
346382 On ch=1 n=e6 v=0
346387 On ch=1 n=d6 v=61
346407 On ch=1 n=d6 v=0
346462 On ch=1 n=d6 v=63
346472 On ch=1 n=a#5 v=40
346492 On ch=1 n=g4 v=99
346497 On ch=1 n=g3 v=78
346522 On ch=1 n=g4 v=0
346522 On ch=1 n=d6 v=0
346527 On ch=1 n=g3 v=0
346532 On ch=1 n=a#5 v=0
346532 On ch=1 n=e5 v=62
346547 On ch=1 n=d5 v=64
346562 On ch=1 n=e5 v=0
346587 On ch=1 n=d5 v=0
346632 On ch=1 n=d3 v=65
346642 On ch=1 n=f#3 v=71
346662 Par ch=1 c=64 v=104
346667 Par ch=1 c=64 v=24
346677 On ch=1 n=a3 v=58
346677 Par ch=1 c=64 v=0
346697 On ch=1 n=d4 v=110
346737 Par ch=1 c=64 v=127
346777 On ch=1 n=f#5 v=63
346782 On ch=1 n=d5 v=59
346822 On ch=1 n=d5 v=0
346857 On ch=1 n=f#5 v=0
346867 On ch=1 n=d6 v=62
346867 On ch=1 n=a5 v=62
346882 On ch=1 n=a5 v=0
346897 On ch=1 n=d6 v=0
346952 On ch=1 n=d6 v=70
346952 On ch=1 n=f#6 v=73
346977 On ch=1 n=d6 v=0
347027 On ch=1 n=f#6 v=0
347027 On ch=1 n=d7 v=71
347032 On ch=1 n=a6 v=62
347047 On ch=1 n=a6 v=0
347057 On ch=1 n=d7 v=0
347112 On ch=1 n=d7 v=79
347112 On ch=1 n=f#7 v=73
347142 On ch=1 n=d7 v=0
347172 On ch=1 n=f#7 v=0
347202 On ch=1 n=d8 v=92
347202 On ch=1 n=a7 v=82
347207 On ch=1 n=f#7 v=54
347277 On ch=1 n=d8 v=0
347287 On ch=1 n=a7 v=0
347292 On ch=1 n=d7 v=68
347297 On ch=1 n=f#7 v=0
347312 On ch=1 n=d7 v=0
347377 On ch=1 n=d7 v=76
347387 On ch=1 n=a6 v=64
347402 On ch=1 n=a6 v=0
347442 On ch=1 n=f#6 v=48
347452 On ch=1 n=d7 v=0
347482 On ch=1 n=d6 v=64
347487 On ch=1 n=f#6 v=0
347497 On ch=1 n=d6 v=0
347527 On ch=1 n=d4 v=0
347537 On ch=1 n=d3 v=0
347557 On ch=1 n=a3 v=0
347562 On ch=1 n=d6 v=72
347572 On ch=1 n=a5 v=50
347577 On ch=1 n=f#3 v=0
347587 On ch=1 n=a5 v=0
347607 On ch=1 n=d4 v=82
347622 On ch=1 n=d6 v=0
347627 On ch=1 n=f#5 v=49
347642 On ch=1 n=d5 v=58
347662 On ch=1 n=f#5 v=0
347667 On ch=1 n=d4 v=0
347682 On ch=1 n=d5 v=0
347702 On ch=1 n=d#3 v=67
347712 Par ch=1 c=64 v=40
347722 On ch=1 n=f#3 v=61
347722 Par ch=1 c=64 v=0
347757 On ch=1 n=a3 v=71
347767 On ch=1 n=d#4 v=86
347767 Par ch=1 c=64 v=127
347782 On ch=1 n=d#3 v=0
347807 On ch=1 n=d#3 v=15
347852 On ch=1 n=c5 v=65
347852 On ch=1 n=d#5 v=68
347887 On ch=1 n=c5 v=0
347917 On ch=1 n=d#5 v=0
347932 On ch=1 n=f#5 v=63
347942 On ch=1 n=c6 v=74
347962 On ch=1 n=f#5 v=0
347967 On ch=1 n=c6 v=0
348027 On ch=1 n=c6 v=82
348032 On ch=1 n=d#6 v=80
348062 On ch=1 n=c6 v=0
348097 On ch=1 n=d#6 v=0
348112 On ch=1 n=f#6 v=69
348112 On ch=1 n=c7 v=87
348147 On ch=1 n=c7 v=0
348147 On ch=1 n=f#6 v=0
348202 On ch=1 n=c7 v=80
348207 On ch=1 n=d#7 v=79
348237 On ch=1 n=c7 v=0
348252 On ch=1 n=d#7 v=0
348292 On ch=1 n=c8 v=99
348297 On ch=1 n=f#7 v=80
348377 On ch=1 n=d#7 v=57
348392 On ch=1 n=c8 v=0
348402 On ch=1 n=f#7 v=0
348402 On ch=1 n=c7 v=71
348417 On ch=1 n=d#7 v=0
348427 On ch=1 n=c7 v=0
348482 On ch=1 n=c7 v=67
348487 On ch=1 n=f#6 v=62
348517 On ch=1 n=f#6 v=0
348517 On ch=1 n=c7 v=0
348557 On ch=1 n=d#6 v=64
348597 On ch=1 n=d#6 v=0
348602 On ch=1 n=c6 v=45
348622 On ch=1 n=c6 v=0
348627 On ch=1 n=d#3 v=0
348647 On ch=1 n=d#4 v=0
348662 On ch=1 n=c6 v=74
348677 On ch=1 n=f#5 v=34
348687 On ch=1 n=a3 v=0
348702 On ch=1 n=d4 v=94
348702 On ch=1 n=d3 v=69
348722 On ch=1 n=f#3 v=0
348732 On ch=1 n=d3 v=0
348732 On ch=1 n=f#5 v=0
348732 On ch=1 n=c6 v=0
348737 On ch=1 n=d4 v=0
348742 On ch=1 n=d#5 v=56
348757 On ch=1 n=c5 v=44
348782 On ch=1 n=d#5 v=0
348787 On ch=1 n=c5 v=0
348822 On ch=1 n=b2 v=66
348842 On ch=1 n=f3 v=62
348852 Par ch=1 c=64 v=24
348857 Par ch=1 c=64 v=0
348862 On ch=1 n=d3 v=25
348872 On ch=1 n=g#3 v=78
348877 On ch=1 n=b3 v=93
348927 Par ch=1 c=64 v=88
348937 Par ch=1 c=64 v=127
348962 On ch=1 n=b4 v=64
348967 On ch=1 n=d5 v=70
348997 On ch=1 n=b4 v=0
349022 On ch=1 n=d5 v=0
349052 On ch=1 n=f5 v=64
349052 On ch=1 n=b5 v=69
349072 On ch=1 n=f5 v=0
349082 On ch=1 n=b5 v=0
349132 On ch=1 n=b5 v=79
349137 On ch=1 n=d6 v=81
349172 On ch=1 n=b5 v=0
349212 On ch=1 n=d6 v=0
349222 On ch=1 n=b6 v=82
349222 On ch=1 n=f6 v=80
349247 On ch=1 n=f6 v=0
349257 On ch=1 n=b6 v=0
349307 On ch=1 n=b6 v=86
349312 On ch=1 n=d7 v=86
349342 On ch=1 n=b6 v=0
349372 On ch=1 n=d7 v=0
349402 On ch=1 n=b7 v=99
349407 On ch=1 n=f7 v=83
349407 On ch=1 n=d7 v=70
349487 On ch=1 n=b7 v=0
349497 On ch=1 n=d7 v=0
349502 On ch=1 n=f7 v=0
349502 On ch=1 n=b6 v=79
349527 On ch=1 n=b6 v=0
349582 On ch=1 n=b6 v=83
349592 On ch=1 n=f6 v=76
349632 On ch=1 n=f6 v=0
349642 On ch=1 n=b6 v=0
349657 On ch=1 n=b2 v=0
349657 On ch=1 n=d6 v=49
349662 On ch=1 n=f3 v=0
349682 On ch=1 n=d3 v=0
349687 On ch=1 n=b3 v=0
349697 On ch=1 n=b5 v=63
349712 On ch=1 n=d6 v=0
349732 On ch=1 n=b5 v=0
349737 On ch=1 n=g#3 v=0
349792 On ch=1 n=b5 v=81
349797 On ch=1 n=f5 v=68
349827 On ch=1 n=f5 v=0
349832 On ch=1 n=b3 v=73
349857 On ch=1 n=b5 v=0
349867 On ch=1 n=d5 v=65
349882 On ch=1 n=b4 v=55
349902 On ch=1 n=b3 v=0
349912 On ch=1 n=d5 v=0
349927 On ch=1 n=b4 v=0
349937 On ch=1 n=a#2 v=69
349937 On ch=1 n=e3 v=55
349952 Par ch=1 c=64 v=88
349957 Par ch=1 c=64 v=0
349967 On ch=1 n=g3 v=62
349987 On ch=1 n=a#3 v=84
350002 On ch=1 n=c#5 v=74
350002 On ch=1 n=a#4 v=72
350012 Par ch=1 c=64 v=127
350052 On ch=1 n=a#4 v=0
350067 On ch=1 n=c#5 v=0
350082 On ch=1 n=e5 v=68
350087 On ch=1 n=a#5 v=77
350107 On ch=1 n=e5 v=0
350127 On ch=1 n=a#5 v=0
350172 On ch=1 n=a#5 v=77
350177 On ch=1 n=c#6 v=77
350202 On ch=1 n=a#5 v=0
350217 On ch=1 n=a#2 v=0
350227 On ch=1 n=c#6 v=0
350242 On ch=1 n=e3 v=0
350252 On ch=1 n=g3 v=0
350257 On ch=1 n=a#6 v=77
350257 On ch=1 n=e6 v=64
350272 On ch=1 n=e6 v=0
350272 On ch=1 n=a#3 v=0
350292 On ch=1 n=a#6 v=0
350332 On ch=1 n=a#6 v=74
350362 On ch=1 n=c#7 v=19
350372 On ch=1 n=a#6 v=0
350382 On ch=1 n=a#2 v=45
350382 On ch=1 n=a#3 v=93
350387 On ch=1 n=c#7 v=0
350387 On ch=1 n=g3 v=68
350402 On ch=1 n=g3 v=0
350412 On ch=1 n=a#2 v=0
350422 On ch=1 n=a#7 v=92
350427 On ch=1 n=a#3 v=0
350427 On ch=1 n=a#6 v=57
350427 On ch=1 n=c#7 v=54
350427 On ch=1 n=e7 v=74
350442 On ch=1 n=e7 v=0
350452 On ch=1 n=a#6 v=0
350452 On ch=1 n=a#7 v=0
350457 On ch=1 n=c#7 v=0
350517 On ch=1 n=g2 v=44
350532 On ch=1 n=c#3 v=56
350537 On ch=1 n=e3 v=38
350547 On ch=1 n=g3 v=94
350547 Par ch=1 c=64 v=72
350557 Par ch=1 c=64 v=0
350567 On ch=1 n=g4 v=82
350572 On ch=1 n=a#4 v=59
350592 Par ch=1 c=64 v=72
350602 Par ch=1 c=64 v=127
350607 On ch=1 n=g4 v=0
350642 On ch=1 n=a#4 v=0
350642 On ch=1 n=c#5 v=69
350647 On ch=1 n=a#2 v=49
350672 On ch=1 n=c#5 v=0
350682 On ch=1 n=c#3 v=0
350722 On ch=1 n=g5 v=86
350732 On ch=1 n=a#5 v=72
350757 On ch=1 n=g5 v=0
350807 On ch=1 n=a#5 v=0
350807 On ch=1 n=c#6 v=62
350812 On ch=1 n=g6 v=80
350817 On ch=1 n=a#2 v=0
350822 On ch=1 n=g2 v=0
350832 On ch=1 n=c#6 v=0
350837 On ch=1 n=g6 v=0
350837 On ch=1 n=e3 v=0
350847 On ch=1 n=g3 v=0
350892 On ch=1 n=g6 v=84
350902 On ch=1 n=a#6 v=74
350932 On ch=1 n=g6 v=0
350967 On ch=1 n=a#6 v=0
350992 On ch=1 n=g7 v=88
350992 On ch=1 n=g2 v=71
350992 On ch=1 n=e3 v=78
350992 On ch=1 n=g3 v=85
350997 On ch=1 n=c#7 v=74
350997 On ch=1 n=a#6 v=58
350997 On ch=1 n=a#2 v=55
351007 On ch=1 n=g2 v=0
351012 On ch=1 n=a#2 v=0
351012 On ch=1 n=g7 v=0
351017 On ch=1 n=e3 v=0
351022 On ch=1 n=a#6 v=0
351022 On ch=1 n=c#7 v=0
351027 On ch=1 n=g3 v=0
351157 On ch=1 n=d5 v=92
351167 On ch=1 n=d4 v=81
351167 On ch=1 n=a3 v=77
351167 On ch=1 n=f#4 v=64
351167 On ch=1 n=a4 v=67
351167 On ch=1 n=d3 v=65
351167 Par ch=1 c=64 v=72
351172 Par ch=1 c=64 v=0
351257 Par ch=1 c=64 v=104
351267 Par ch=1 c=64 v=127
351272 On ch=1 n=a4 v=0
351272 On ch=1 n=f#4 v=0
351292 On ch=1 n=d5 v=0
351297 On ch=1 n=d3 v=0
351302 On ch=1 n=a3 v=0
351317 On ch=1 n=d4 v=0
351472 On ch=1 n=a#7 v=88
351472 On ch=1 n=e6 v=81
351477 On ch=1 n=c#7 v=81
351477 On ch=1 n=g5 v=64
351477 Par ch=1 c=64 v=24
351487 Par ch=1 c=64 v=0
351517 Par ch=1 c=64 v=88
351522 Par ch=1 c=64 v=127
351542 On ch=1 n=c#7 v=0
351547 On ch=1 n=e6 v=0
351562 On ch=1 n=a#7 v=0
351562 On ch=1 n=c7 v=68
351567 On ch=1 n=d#6 v=73
351582 On ch=1 n=g5 v=0
351607 On ch=1 n=c7 v=0
351617 On ch=1 n=d#6 v=0
351637 On ch=1 n=d6 v=73
351642 On ch=1 n=b6 v=73
351677 On ch=1 n=b6 v=0
351687 On ch=1 n=d6 v=0
351722 On ch=1 n=c#6 v=74
351727 On ch=1 n=g7 v=83
351732 On ch=1 n=a#6 v=75
351732 On ch=1 n=e5 v=60
351742 Par ch=1 c=64 v=72
351747 Par ch=1 c=64 v=56
351757 Par ch=1 c=64 v=104
351762 Par ch=1 c=64 v=127
351782 On ch=1 n=c#6 v=0
351792 On ch=1 n=a#6 v=0
351792 On ch=1 n=g7 v=0
351807 On ch=1 n=c6 v=69
351812 On ch=1 n=a6 v=67
351862 On ch=1 n=a6 v=0
351862 On ch=1 n=c6 v=0
351872 On ch=1 n=e5 v=0
351882 On ch=1 n=b5 v=68
351887 On ch=1 n=g#6 v=69
351912 On ch=1 n=b5 v=0
351952 On ch=1 n=g#6 v=0
351972 On ch=1 n=e7 v=85
351972 On ch=1 n=a#5 v=76
351977 On ch=1 n=g6 v=75
351987 On ch=1 n=c#5 v=47
352012 On ch=1 n=g6 v=0
352017 On ch=1 n=a#5 v=0
352027 On ch=1 n=e7 v=0
352047 On ch=1 n=a5 v=71
352052 On ch=1 n=f#6 v=75
352097 On ch=1 n=a5 v=0
352112 On ch=1 n=f#6 v=0
352122 On ch=1 n=g#5 v=55
352127 On ch=1 n=f6 v=75
352152 On ch=1 n=c#5 v=0
352157 On ch=1 n=g#5 v=0
352177 On ch=1 n=f6 v=0
352232 On ch=1 n=c#7 v=86
352237 On ch=1 n=e6 v=85
352237 Par ch=1 c=64 v=88
352242 On ch=1 n=g5 v=73
352242 Par ch=1 c=64 v=0
352247 On ch=1 n=e5 v=68
352247 On ch=1 n=a#4 v=62
352267 Par ch=1 c=64 v=40
352272 Par ch=1 c=64 v=104
352282 Par ch=1 c=64 v=127
352287 On ch=1 n=a#4 v=0
352287 On ch=1 n=e5 v=0
352287 On ch=1 n=g5 v=0
352292 On ch=1 n=e6 v=0
352297 On ch=1 n=c#7 v=0
352447 Par ch=1 c=64 v=88
352452 Par ch=1 c=64 v=0
352477 On ch=1 n=a#6 v=82
352477 On ch=1 n=a#5 v=84
352482 On ch=1 n=g4 v=85
352482 On ch=1 n=g3 v=79
352502 Par ch=1 c=64 v=104
352507 On ch=1 n=a#5 v=0
352507 Par ch=1 c=64 v=127
352512 On ch=1 n=g3 v=0
352512 On ch=1 n=g4 v=0
352522 On ch=1 n=a#6 v=0
352607 Par ch=1 c=64 v=88
352612 On ch=1 n=e4 v=68
352617 On ch=1 n=c#6 v=70
352617 On ch=1 n=e6 v=80
352617 On ch=1 n=c#4 v=61
352617 Par ch=1 c=64 v=40
352622 Par ch=1 c=64 v=0
352647 On ch=1 n=c#4 v=0
352652 On ch=1 n=c#6 v=0
352652 On ch=1 n=e4 v=0
352657 On ch=1 n=e6 v=0
352737 On ch=1 n=a6 v=88
352737 On ch=1 n=a5 v=82
352742 On ch=1 n=a4 v=76
352742 On ch=1 n=a3 v=70
352747 Par ch=1 c=64 v=88
352757 Par ch=1 c=64 v=127
352762 On ch=1 n=a3 v=0
352772 On ch=1 n=a4 v=0
352772 On ch=1 n=a5 v=0
352782 On ch=1 n=a6 v=0
352792 Par ch=1 c=64 v=88
352802 Par ch=1 c=64 v=56
352807 Par ch=1 c=64 v=24
352842 Par ch=1 c=64 v=40
352862 On ch=1 n=c#4 v=61
352862 On ch=1 n=e6 v=79
352862 On ch=1 n=e4 v=65
352862 On ch=1 n=c#6 v=62
352877 Par ch=1 c=64 v=56
352902 Par ch=1 c=64 v=24
352907 On ch=1 n=e4 v=0
352907 On ch=1 n=c#4 v=0
352912 On ch=1 n=c#6 v=0
352912 On ch=1 n=e6 v=0
352912 Par ch=1 c=64 v=0
352982 On ch=1 n=g6 v=92
352987 On ch=1 n=g5 v=78
352987 On ch=1 n=a#4 v=62
352997 On ch=1 n=a#3 v=68
352997 Par ch=1 c=64 v=56
353002 Par ch=1 c=64 v=104
353012 Par ch=1 c=64 v=127
353037 On ch=1 n=a#4 v=0
353042 On ch=1 n=a#3 v=0
353047 On ch=1 n=g5 v=0
353057 On ch=1 n=g6 v=0
353097 On ch=1 n=c#4 v=62
353102 On ch=1 n=e6 v=83
353102 On ch=1 n=c#6 v=58
353102 On ch=1 n=e4 v=55
353117 On ch=1 n=e4 v=0
353117 On ch=1 n=c#6 v=0
353127 On ch=1 n=e6 v=0
353127 On ch=1 n=c#4 v=0
353222 Par ch=1 c=64 v=104
353227 Par ch=1 c=64 v=72
353237 On ch=1 n=d7 v=100
353237 On ch=1 n=d6 v=83
353237 Par ch=1 c=64 v=0
353242 On ch=1 n=f#6 v=73
353242 On ch=1 n=a6 v=76
353242 On ch=1 n=d5 v=78
353242 On ch=1 n=f#4 v=69
353242 On ch=1 n=a4 v=68
353242 On ch=1 n=d4 v=74
353322 Par ch=1 c=64 v=127
353342 On ch=1 n=d7 v=0
353352 On ch=1 n=d4 v=0
353352 On ch=1 n=a4 v=0
353352 On ch=1 n=a6 v=0
353357 On ch=1 n=f#6 v=0
353367 On ch=1 n=f#4 v=0
353367 On ch=1 n=d6 v=0
353377 On ch=1 n=d5 v=0
353477 Par ch=1 c=64 v=72
353482 Par ch=1 c=64 v=0
353492 On ch=1 n=a#6 v=80
353497 On ch=1 n=c#6 v=73
353502 On ch=1 n=e5 v=74
353502 On ch=1 n=g4 v=70
353552 On ch=1 n=c#6 v=0
353557 On ch=1 n=e5 v=0
353582 On ch=1 n=d#5 v=65
353582 On ch=1 n=c6 v=80
353617 On ch=1 n=a#6 v=0
353637 On ch=1 n=c6 v=0
353637 On ch=1 n=d#5 v=0
353647 On ch=1 n=g4 v=0
353657 On ch=1 n=d5 v=66
353657 On ch=1 n=b5 v=74
353702 On ch=1 n=b5 v=0
353707 On ch=1 n=d5 v=0
353737 On ch=1 n=c#5 v=67
353742 On ch=1 n=g6 v=78
353742 On ch=1 n=e4 v=64
353747 On ch=1 n=a#5 v=72
353797 On ch=1 n=c#5 v=0
353802 On ch=1 n=a#5 v=0
353817 On ch=1 n=c5 v=68
353817 On ch=1 n=a5 v=75
353852 On ch=1 n=g6 v=0
353887 On ch=1 n=a5 v=0
353887 On ch=1 n=b4 v=69
353892 On ch=1 n=c5 v=0
353892 On ch=1 n=g#5 v=69
353907 On ch=1 n=e4 v=0
353912 On ch=1 n=b4 v=0
353947 On ch=1 n=g#5 v=0
353972 On ch=1 n=a#4 v=73
353972 On ch=1 n=e6 v=82
353977 On ch=1 n=c#4 v=70
353977 On ch=1 n=g5 v=71
354017 On ch=1 n=g5 v=0
354022 On ch=1 n=a#4 v=0
354032 On ch=1 n=e6 v=0
354047 On ch=1 n=a4 v=64
354052 On ch=1 n=f#5 v=68
354097 On ch=1 n=a4 v=0
354107 On ch=1 n=f#5 v=0
354122 On ch=1 n=g#4 v=65
354127 On ch=1 n=f5 v=68
354142 On ch=1 n=c#4 v=0
354157 On ch=1 n=g#4 v=0
354172 On ch=1 n=f5 v=0
354217 On ch=1 n=c#6 v=82
354222 On ch=1 n=e5 v=80
354232 On ch=1 n=g4 v=74
354232 On ch=1 n=a#3 v=65
354232 On ch=1 n=e4 v=67
354232 Par ch=1 c=64 v=72
354242 Par ch=1 c=64 v=127
354252 On ch=1 n=e5 v=0
354262 On ch=1 n=g4 v=0
354267 On ch=1 n=e4 v=0
354267 On ch=1 n=a#3 v=0
354272 On ch=1 n=c#6 v=0
354442 Par ch=1 c=64 v=72
354452 Par ch=1 c=64 v=24
354457 On ch=1 n=a#5 v=83
354457 Par ch=1 c=64 v=0
354462 On ch=1 n=a#4 v=80
354462 On ch=1 n=g3 v=77
354467 On ch=1 n=g2 v=70
354497 On ch=1 n=g2 v=0
354502 On ch=1 n=g3 v=0
354507 On ch=1 n=a#4 v=0
354512 On ch=1 n=a#5 v=0
354577 On ch=1 n=e3 v=72
354582 On ch=1 n=c#3 v=59
354587 On ch=1 n=c#5 v=60
354592 On ch=1 n=e5 v=68
354612 On ch=1 n=c#3 v=0
354622 On ch=1 n=e3 v=0
354632 On ch=1 n=c#5 v=0
354637 On ch=1 n=e5 v=0
354692 Par ch=1 c=64 v=40
354697 On ch=1 n=a5 v=88
354697 On ch=1 n=a3 v=85
354697 On ch=1 n=a4 v=82
354702 On ch=1 n=a2 v=63
354702 Par ch=1 c=64 v=104
354707 Par ch=1 c=64 v=127
354732 On ch=1 n=a3 v=0
354737 On ch=1 n=a2 v=0
354752 On ch=1 n=a5 v=0
354757 On ch=1 n=a4 v=0
354762 Par ch=1 c=64 v=88
354767 Par ch=1 c=64 v=56
354777 Par ch=1 c=64 v=24
354782 Par ch=1 c=64 v=0
354822 On ch=1 n=e3 v=65
354827 On ch=1 n=e5 v=72
354827 On ch=1 n=c#3 v=52
354832 On ch=1 n=c#5 v=50
354862 On ch=1 n=e3 v=0
354872 On ch=1 n=c#3 v=0
354882 On ch=1 n=c#5 v=0
354882 On ch=1 n=e5 v=0
354932 On ch=1 n=g5 v=85
354937 On ch=1 n=a#3 v=78
354937 On ch=1 n=g4 v=80
354942 On ch=1 n=a#2 v=65
354957 Par ch=1 c=64 v=72
354962 Par ch=1 c=64 v=127
354992 On ch=1 n=a#2 v=0
354992 On ch=1 n=a#3 v=0
355002 On ch=1 n=g4 v=0
355007 On ch=1 n=g5 v=0
355032 On ch=1 n=c#3 v=57
355047 On ch=1 n=e5 v=71
355052 On ch=1 n=c#5 v=42
355062 On ch=1 n=c#3 v=0
355067 On ch=1 n=c#5 v=0
355077 On ch=1 n=e5 v=0
355097 Par ch=1 c=64 v=88
355102 Par ch=1 c=64 v=56
355112 Par ch=1 c=64 v=24
355117 Par ch=1 c=64 v=0
355182 On ch=1 n=d6 v=92
355187 On ch=1 n=d5 v=81
355187 On ch=1 n=a5 v=77
355187 On ch=1 n=f#5 v=62
355187 On ch=1 n=d4 v=75
355187 On ch=1 n=f#3 v=62
355192 On ch=1 n=a3 v=70
355192 On ch=1 n=d3 v=67
355197 Par ch=1 c=64 v=24
355202 Par ch=1 c=64 v=104
355212 Par ch=1 c=64 v=127
355217 On ch=1 n=d5 v=0
355227 On ch=1 n=d3 v=0
355227 On ch=1 n=f#5 v=0
355232 On ch=1 n=a3 v=0
355237 On ch=1 n=f#3 v=0
355237 On ch=1 n=d4 v=0
355242 On ch=1 n=a5 v=0
355252 On ch=1 n=d6 v=0
355357 Par ch=1 c=64 v=104
355367 Par ch=1 c=64 v=88
355372 Par ch=1 c=64 v=72
355382 Par ch=1 c=64 v=40
355392 Par ch=1 c=64 v=24
355397 Par ch=1 c=64 v=0
355437 On ch=1 n=e6 v=93
355437 On ch=1 n=e5 v=85
355437 On ch=1 n=c#6 v=75
355442 On ch=1 n=c#4 v=64
355442 On ch=1 n=g4 v=71
355442 On ch=1 n=a#5 v=67
355442 On ch=1 n=a#3 v=59
355442 On ch=1 n=g3 v=66
355462 On ch=1 n=g3 v=0
355472 On ch=1 n=a#3 v=0
355472 On ch=1 n=g4 v=0
355472 On ch=1 n=c#4 v=0
355477 On ch=1 n=a#5 v=0
355477 On ch=1 n=e5 v=0
355487 On ch=1 n=c#6 v=0
355487 On ch=1 n=e6 v=0
355552 On ch=1 n=a#3 v=68
355552 On ch=1 n=g4 v=79
355557 On ch=1 n=e6 v=93
355557 On ch=1 n=c#4 v=67
355557 On ch=1 n=e5 v=85
355557 On ch=1 n=a#5 v=75
355557 On ch=1 n=g3 v=60
355557 On ch=1 n=c#6 v=82
355567 Par ch=1 c=64 v=72
355572 On ch=1 n=g3 v=0
355572 On ch=1 n=c#4 v=0
355577 Par ch=1 c=64 v=127
355582 On ch=1 n=e5 v=0
355582 On ch=1 n=a#3 v=0
355587 On ch=1 n=a#5 v=0
355592 On ch=1 n=e6 v=0
355592 On ch=1 n=g4 v=0
355597 On ch=1 n=c#6 v=0
355612 Par ch=1 c=64 v=104
355622 Par ch=1 c=64 v=72
355627 Par ch=1 c=64 v=24
355637 Par ch=1 c=64 v=0
355692 On ch=1 n=f#6 v=96
355692 On ch=1 n=f#5 v=90
355697 On ch=1 n=a5 v=84
355697 On ch=1 n=d5 v=83
355697 On ch=1 n=d6 v=74
355697 On ch=1 n=a4 v=74
355697 On ch=1 n=f#4 v=71
355702 On ch=1 n=d4 v=80
355712 Par ch=1 c=64 v=88
355722 Par ch=1 c=64 v=127
355732 On ch=1 n=a4 v=0
355732 On ch=1 n=a5 v=0
355732 On ch=1 n=f#5 v=0
355737 On ch=1 n=d5 v=0
355742 On ch=1 n=d4 v=0
355742 On ch=1 n=d6 v=0
355747 On ch=1 n=f#4 v=0
355757 On ch=1 n=f#6 v=0
355882 Par ch=1 c=64 v=88
355892 Par ch=1 c=64 v=72
355902 Par ch=1 c=64 v=40
355907 Par ch=1 c=64 v=0
355932 On ch=1 n=a#6 v=91
355932 On ch=1 n=a#5 v=90
355942 On ch=1 n=e6 v=84
355942 On ch=1 n=c#6 v=70
355942 On ch=1 n=c#4 v=75
355942 On ch=1 n=g4 v=77
355942 On ch=1 n=g3 v=74
355942 On ch=1 n=a#3 v=67
355967 On ch=1 n=g4 v=0
355967 On ch=1 n=c#4 v=0
355972 On ch=1 n=g3 v=0
355977 On ch=1 n=a#3 v=0
355977 On ch=1 n=c#6 v=0
355977 On ch=1 n=e6 v=0
355977 On ch=1 n=a#5 v=0
355987 On ch=1 n=a#6 v=0
356052 On ch=1 n=a#3 v=73
356052 On ch=1 n=a#6 v=90
356052 On ch=1 n=g4 v=86
356052 On ch=1 n=c#4 v=73
356052 On ch=1 n=a#5 v=85
356057 On ch=1 n=c#6 v=70
356057 On ch=1 n=e6 v=79
356057 On ch=1 n=g3 v=66
356062 Par ch=1 c=64 v=40
356067 On ch=1 n=c#6 v=0
356072 On ch=1 n=g3 v=0
356072 On ch=1 n=e6 v=0
356072 On ch=1 n=c#4 v=0
356072 Par ch=1 c=64 v=88
356077 On ch=1 n=a#5 v=0
356077 On ch=1 n=g4 v=0
356077 On ch=1 n=a#3 v=0
356077 Par ch=1 c=64 v=127
356092 On ch=1 n=a#6 v=0
356137 Par ch=1 c=64 v=88
356147 Par ch=1 c=64 v=72
356157 Par ch=1 c=64 v=40
356162 Par ch=1 c=64 v=0
356187 On ch=1 n=d7 v=99
356192 On ch=1 n=d6 v=88
356192 On ch=1 n=a6 v=81
356192 On ch=1 n=f#6 v=75
356192 On ch=1 n=d4 v=84
356197 On ch=1 n=f#3 v=68
356197 On ch=1 n=a3 v=74
356197 On ch=1 n=d3 v=75
356202 On ch=1 n=a#6 v=33
356217 On ch=1 n=a#6 v=0
356217 Par ch=1 c=64 v=56
356227 Par ch=1 c=64 v=127
356237 On ch=1 n=d6 v=0
356242 On ch=1 n=d3 v=0
356247 On ch=1 n=f#6 v=0
356252 On ch=1 n=a3 v=0
356252 On ch=1 n=d4 v=0
356257 On ch=1 n=f#3 v=0
356257 On ch=1 n=a6 v=0
356267 On ch=1 n=d7 v=0
356367 Par ch=1 c=64 v=104
356372 Par ch=1 c=64 v=88
356382 Par ch=1 c=64 v=56
356387 Par ch=1 c=64 v=40
356397 Par ch=1 c=64 v=24
356402 Par ch=1 c=64 v=0
356452 On ch=1 n=e7 v=97
356452 On ch=1 n=c#7 v=85
356452 On ch=1 n=g4 v=81
356452 On ch=1 n=e6 v=90
356452 On ch=1 n=a#6 v=71
356452 On ch=1 n=c#4 v=69
356457 On ch=1 n=a#3 v=64
356457 On ch=1 n=g3 v=70
356477 On ch=1 n=g3 v=0
356482 On ch=1 n=c#4 v=0
356487 On ch=1 n=a#3 v=0
356487 On ch=1 n=g4 v=0
356492 On ch=1 n=e6 v=0
356502 On ch=1 n=c#7 v=0
356507 On ch=1 n=a#6 v=0
356507 On ch=1 n=e7 v=0
356572 On ch=1 n=a#3 v=68
356572 On ch=1 n=g4 v=86
356572 On ch=1 n=e7 v=97
356572 On ch=1 n=c#7 v=88
356577 On ch=1 n=g3 v=66
356577 On ch=1 n=e6 v=96
356577 On ch=1 n=c#4 v=49
356582 On ch=1 n=a#6 v=57
356582 Par ch=1 c=64 v=40
356587 On ch=1 n=g3 v=0
356587 Par ch=1 c=64 v=104
356592 On ch=1 n=a#6 v=0
356592 On ch=1 n=c#4 v=0
356597 On ch=1 n=a#3 v=0
356597 Par ch=1 c=64 v=127
356607 On ch=1 n=e6 v=0
356607 On ch=1 n=g4 v=0
356612 On ch=1 n=e7 v=0
356617 On ch=1 n=c#7 v=0
356667 Par ch=1 c=64 v=104
356677 Par ch=1 c=64 v=72
356682 Par ch=1 c=64 v=0
356702 On ch=1 n=f#7 v=99
356702 On ch=1 n=f#6 v=91
356707 On ch=1 n=a6 v=83
356707 On ch=1 n=d7 v=69
356712 On ch=1 n=f#4 v=74
356712 On ch=1 n=d5 v=84
356712 On ch=1 n=a4 v=78
356712 On ch=1 n=d4 v=77
356742 Par ch=1 c=64 v=104
356747 On ch=1 n=a6 v=0
356747 On ch=1 n=f#6 v=0
356752 Par ch=1 c=64 v=127
356757 On ch=1 n=a4 v=0
356757 On ch=1 n=d7 v=0
356762 On ch=1 n=d5 v=0
356772 On ch=1 n=d4 v=0
356772 On ch=1 n=f#4 v=0
356772 On ch=1 n=f#7 v=0
356892 Par ch=1 c=64 v=104
356902 Par ch=1 c=64 v=72
356907 Par ch=1 c=64 v=40
356917 Par ch=1 c=64 v=0
356947 On ch=1 n=a#7 v=95
356947 On ch=1 n=a#6 v=87
356947 On ch=1 n=c#4 v=72
356952 On ch=1 n=g4 v=79
356952 On ch=1 n=e7 v=86
356952 On ch=1 n=g3 v=70
356952 On ch=1 n=a#3 v=64
356952 On ch=1 n=c#7 v=73
356977 Par ch=1 c=64 v=72
356987 On ch=1 n=g3 v=0
356987 On ch=1 n=g4 v=0
356987 On ch=1 n=c#4 v=0
356987 Par ch=1 c=64 v=127
356992 On ch=1 n=c#7 v=0
356992 On ch=1 n=e7 v=0
356997 On ch=1 n=a#3 v=0
356997 On ch=1 n=a#6 v=0
357002 On ch=1 n=a#7 v=0
357052 On ch=1 n=a#7 v=92
357057 On ch=1 n=a#6 v=89
357057 On ch=1 n=a#3 v=69
357057 On ch=1 n=e7 v=81
357057 On ch=1 n=g4 v=82
357057 On ch=1 n=c#7 v=64
357057 On ch=1 n=c#4 v=57
357062 On ch=1 n=g3 v=64
357072 On ch=1 n=c#4 v=0
357072 On ch=1 n=c#7 v=0
357072 On ch=1 n=g4 v=0
357072 On ch=1 n=e7 v=0
357077 On ch=1 n=a#6 v=0
357082 On ch=1 n=g3 v=0
357087 On ch=1 n=a#3 v=0
357092 On ch=1 n=a#7 v=0
357132 Par ch=1 c=64 v=104
357137 On ch=1 n=a#7 v=39
357142 Par ch=1 c=64 v=88
357147 Par ch=1 c=64 v=56
357157 Par ch=1 c=64 v=24
357162 Par ch=1 c=64 v=0
357172 On ch=1 n=a#7 v=0
357192 On ch=1 n=d8 v=97
357197 On ch=1 n=d7 v=74
357197 On ch=1 n=d4 v=89
357197 On ch=1 n=a7 v=85
357197 On ch=1 n=a3 v=85
357197 On ch=1 n=f#3 v=72
357197 On ch=1 n=f#7 v=68
357202 On ch=1 n=d3 v=74
357227 Par ch=1 c=64 v=88
357232 Par ch=1 c=64 v=127
357242 On ch=1 n=d8 v=0
357247 On ch=1 n=a3 v=0
357247 On ch=1 n=d7 v=0
357252 On ch=1 n=d3 v=0
357252 On ch=1 n=a7 v=0
357252 On ch=1 n=d4 v=0
357257 On ch=1 n=f#7 v=0
357257 On ch=1 n=f#3 v=0
357342 Par ch=1 c=64 v=88
357352 Par ch=1 c=64 v=56
357357 Par ch=1 c=64 v=24
357367 Par ch=1 c=64 v=0
357442 On ch=1 n=a#7 v=96
357447 On ch=1 n=a#6 v=86
357447 On ch=1 n=g3 v=82
357447 On ch=1 n=g2 v=79
357447 On ch=1 n=e7 v=85
357447 On ch=1 n=c#3 v=64
357452 On ch=1 n=c#7 v=71
357452 On ch=1 n=e3 v=74
357487 On ch=1 n=c#3 v=0
357487 On ch=1 n=g2 v=0
357487 On ch=1 n=g3 v=0
357492 On ch=1 n=c#7 v=0
357492 On ch=1 n=e7 v=0
357492 On ch=1 n=a#6 v=0
357497 On ch=1 n=e3 v=0
357497 On ch=1 n=a#7 v=0
357547 On ch=1 n=c#3 v=64
357547 On ch=1 n=g3 v=76
357552 On ch=1 n=a#7 v=92
357552 On ch=1 n=a#6 v=86
357552 On ch=1 n=e3 v=58
357552 On ch=1 n=g2 v=59
357557 On ch=1 n=e7 v=86
357557 On ch=1 n=d#3 v=23
357557 On ch=1 n=c#7 v=69
357557 Par ch=1 c=64 v=56
357567 On ch=1 n=c#7 v=0
357567 On ch=1 n=d#3 v=0
357567 On ch=1 n=e7 v=0
357567 On ch=1 n=g2 v=0
357567 On ch=1 n=e3 v=0
357567 Par ch=1 c=64 v=127
357572 On ch=1 n=c#3 v=0
357577 On ch=1 n=a#6 v=0
357587 On ch=1 n=g3 v=0
357597 On ch=1 n=a#7 v=0
357627 On ch=1 n=a#3 v=35
357647 On ch=1 n=a#3 v=0
357652 Par ch=1 c=64 v=72
357657 Par ch=1 c=64 v=40
357667 Par ch=1 c=64 v=0
357687 On ch=1 n=d8 v=102
357692 On ch=1 n=d7 v=81
357692 On ch=1 n=a7 v=78
357692 On ch=1 n=f#7 v=72
357697 On ch=1 n=a#7 v=65
357697 On ch=1 n=d4 v=71
357697 On ch=1 n=f#3 v=69
357702 On ch=1 n=a3 v=68
357707 On ch=1 n=d3 v=65
357712 On ch=1 n=a#7 v=0
357722 Par ch=1 c=64 v=104
357727 Par ch=1 c=64 v=127
357732 On ch=1 n=d8 v=0
357737 On ch=1 n=a7 v=0
357742 On ch=1 n=d7 v=0
357747 On ch=1 n=f#7 v=0
357752 On ch=1 n=d4 v=0
357757 On ch=1 n=a3 v=0
357762 On ch=1 n=d3 v=0
357762 On ch=1 n=f#3 v=0
357847 On ch=1 n=d#3 v=31
357862 Par ch=1 c=64 v=104
357867 On ch=1 n=d#3 v=0
357867 Par ch=1 c=64 v=72
357877 Par ch=1 c=64 v=40
357882 Par ch=1 c=64 v=0
357932 On ch=1 n=a#7 v=96
357932 On ch=1 n=a#6 v=79
357932 On ch=1 n=c#3 v=69
357937 On ch=1 n=c#7 v=73
357937 On ch=1 n=e3 v=72
357937 On ch=1 n=e7 v=86
357937 On ch=1 n=g3 v=74
357937 On ch=1 n=g2 v=72
357947 Par ch=1 c=64 v=72
357952 Par ch=1 c=64 v=127
357972 On ch=1 n=g3 v=0
357977 On ch=1 n=e7 v=0
357977 On ch=1 n=c#7 v=0
357977 On ch=1 n=a#6 v=0
357982 On ch=1 n=g2 v=0
357982 On ch=1 n=c#3 v=0
357987 On ch=1 n=e3 v=0
357987 On ch=1 n=a#7 v=0
358042 On ch=1 n=c#3 v=53
358047 On ch=1 n=g3 v=77
358047 On ch=1 n=a#7 v=90
358047 On ch=1 n=a#6 v=85
358047 On ch=1 n=e3 v=48
358052 On ch=1 n=e7 v=81
358057 On ch=1 n=c#3 v=0
358062 On ch=1 n=e7 v=0
358062 On ch=1 n=e3 v=0
358072 On ch=1 n=a#6 v=0
358077 On ch=1 n=g3 v=0
358087 On ch=1 n=a#7 v=0
358137 On ch=1 n=g#7 v=29
358152 On ch=1 n=g#7 v=0
358157 Par ch=1 c=64 v=88
358162 Par ch=1 c=64 v=40
358172 Par ch=1 c=64 v=0
358187 On ch=1 n=d8 v=105
358187 On ch=1 n=d7 v=81
358192 On ch=1 n=d4 v=89
358192 On ch=1 n=a3 v=82
358192 On ch=1 n=f#7 v=72
358192 On ch=1 n=d3 v=77
358192 On ch=1 n=a7 v=77
358192 On ch=1 n=f#3 v=71
358197 On ch=1 n=a#7 v=64
358202 On ch=1 n=e7 v=38
358212 Par ch=1 c=64 v=40
358217 On ch=1 n=e7 v=0
358217 Par ch=1 c=64 v=127
358222 On ch=1 n=a#7 v=0
358227 On ch=1 n=a3 v=0
358227 On ch=1 n=d7 v=0
358232 On ch=1 n=d4 v=0
358232 On ch=1 n=d8 v=0
358237 On ch=1 n=a7 v=0
358237 On ch=1 n=d3 v=0
358242 On ch=1 n=f#3 v=0
358242 On ch=1 n=f#7 v=0
358342 Par ch=1 c=64 v=88
358347 Par ch=1 c=64 v=56
358357 Par ch=1 c=64 v=24
358367 Par ch=1 c=64 v=0
358457 On ch=1 n=a#7 v=97
358457 On ch=1 n=a#6 v=76
358457 Par ch=1 c=64 v=40
358462 On ch=1 n=e7 v=87
358467 On ch=1 n=c#7 v=79
358467 On ch=1 n=g3 v=85
358467 On ch=1 n=g2 v=82
358467 On ch=1 n=c#3 v=72
358467 On ch=1 n=e3 v=76
358467 Par ch=1 c=64 v=104
358472 Par ch=1 c=64 v=127
358492 On ch=1 n=g2 v=0
358502 On ch=1 n=e7 v=0
358502 On ch=1 n=a#6 v=0
358507 On ch=1 n=e3 v=0
358507 On ch=1 n=c#3 v=0
358507 On ch=1 n=g3 v=0
358507 On ch=1 n=c#7 v=0
358507 On ch=1 n=a#7 v=0
358712 Par ch=1 c=64 v=88
358722 Par ch=1 c=64 v=72
358727 Par ch=1 c=64 v=56
358737 Par ch=1 c=64 v=24
358747 Par ch=1 c=64 v=0
358892 On ch=1 n=a#7 v=102
358892 On ch=1 n=a#6 v=75
358892 Par ch=1 c=64 v=40
358897 On ch=1 n=e7 v=90
358897 On ch=1 n=g3 v=82
358897 On ch=1 n=c#7 v=80
358897 On ch=1 n=g2 v=75
358902 On ch=1 n=e3 v=74
358902 On ch=1 n=c#3 v=69
358902 Par ch=1 c=64 v=88
358907 Par ch=1 c=64 v=127
358927 On ch=1 n=g2 v=0
358937 On ch=1 n=c#3 v=0
358937 On ch=1 n=e7 v=0
358937 On ch=1 n=a#6 v=0
358942 On ch=1 n=e3 v=0
358942 On ch=1 n=c#7 v=0
358942 On ch=1 n=g3 v=0
358942 On ch=1 n=a#7 v=0
359257 Par ch=1 c=64 v=88
359262 Par ch=1 c=64 v=72
359272 Par ch=1 c=64 v=40
359277 Par ch=1 c=64 v=0
359442 On ch=1 n=a#7 v=95
359442 Par ch=1 c=64 v=40
359447 On ch=1 n=a#6 v=76
359447 Par ch=1 c=64 v=104
359452 On ch=1 n=e7 v=86
359452 On ch=1 n=c#7 v=78
359452 On ch=1 n=g3 v=81
359452 On ch=1 n=c#3 v=65
359457 On ch=1 n=e3 v=70
359457 On ch=1 n=g2 v=55
359457 Par ch=1 c=64 v=127
359462 On ch=1 n=a2 v=63
359482 On ch=1 n=a2 v=0
359482 On ch=1 n=g2 v=0
359492 On ch=1 n=a#7 v=0
359497 On ch=1 n=e3 v=0
359497 On ch=1 n=e7 v=0
359502 On ch=1 n=g3 v=0
359507 On ch=1 n=c#3 v=0
359507 On ch=1 n=c#7 v=0
359517 On ch=1 n=a#6 v=0
359667 Par ch=1 c=64 v=104
359672 Par ch=1 c=64 v=72
359682 Par ch=1 c=64 v=40
359687 Par ch=1 c=64 v=0
359742 On ch=1 n=f7 v=102
359747 On ch=1 n=f6 v=86
359747 On ch=1 n=b6 v=90
359747 On ch=1 n=g#6 v=80
359752 On ch=1 n=d4 v=90
359752 On ch=1 n=g#3 v=69
359752 On ch=1 n=d3 v=78
359752 On ch=1 n=f3 v=73
359767 Par ch=1 c=64 v=56
359772 Par ch=1 c=64 v=127
359782 On ch=1 n=d3 v=0
359797 On ch=1 n=f3 v=0
359797 On ch=1 n=d4 v=0
359797 On ch=1 n=f7 v=0
359802 On ch=1 n=g#3 v=0
359807 On ch=1 n=b6 v=0
359807 On ch=1 n=f6 v=0
359812 On ch=1 n=g#6 v=0
360027 Par ch=1 c=64 v=104
360037 Par ch=1 c=64 v=40
360047 Par ch=1 c=64 v=0
360052 On ch=1 n=d#4 v=87
360052 On ch=1 n=d#3 v=64
360057 On ch=1 n=c7 v=102
360057 On ch=1 n=f#6 v=81
360057 On ch=1 n=f#3 v=65
360057 On ch=1 n=c6 v=93
360057 On ch=1 n=d#6 v=79
360057 On ch=1 n=a3 v=76
360092 Par ch=1 c=64 v=104
360097 On ch=1 n=a3 v=0
360097 Par ch=1 c=64 v=127
360102 On ch=1 n=d#3 v=0
360107 On ch=1 n=d#4 v=0
360112 On ch=1 n=c6 v=0
360112 On ch=1 n=f#3 v=0
360112 On ch=1 n=c7 v=0
360122 On ch=1 n=d#6 v=0
360122 On ch=1 n=f#6 v=0
360297 On ch=1 n=e3 v=54
360302 On ch=1 n=g3 v=49
360322 Par ch=1 c=64 v=40
360332 On ch=1 n=a#3 v=55
360332 Par ch=1 c=64 v=0
360337 On ch=1 n=c#4 v=54
360352 On ch=1 n=e4 v=85
360352 On ch=1 n=g6 v=99
360357 On ch=1 n=e3 v=0
360357 On ch=1 n=g5 v=84
360357 On ch=1 n=c#6 v=77
360357 On ch=1 n=a#5 v=75
360372 On ch=1 n=g3 v=0
360372 Par ch=1 c=64 v=104
360377 Par ch=1 c=64 v=127
360397 On ch=1 n=e4 v=0
360397 On ch=1 n=c#4 v=0
360397 On ch=1 n=a#3 v=0
360402 On ch=1 n=g5 v=0
360412 On ch=1 n=a#5 v=0
360412 On ch=1 n=c#6 v=0
360412 On ch=1 n=g6 v=0
360637 On ch=1 n=f3 v=67
360637 On ch=1 n=g#3 v=45
360657 On ch=1 n=b3 v=54
360662 Par ch=1 c=64 v=72
360672 Par ch=1 c=64 v=0
360677 On ch=1 n=d4 v=62
360687 On ch=1 n=d6 v=94
360687 On ch=1 n=g#5 v=76
360687 On ch=1 n=d5 v=82
360692 On ch=1 n=f5 v=76
360692 On ch=1 n=f4 v=79
360697 On ch=1 n=f3 v=0
360697 Par ch=1 c=64 v=40
360702 Par ch=1 c=64 v=127
360717 On ch=1 n=g#3 v=0
360722 On ch=1 n=b3 v=0
360727 On ch=1 n=f4 v=0
360727 On ch=1 n=d4 v=0
360732 On ch=1 n=d5 v=0
360742 On ch=1 n=f5 v=0
360747 On ch=1 n=g#5 v=0
360747 On ch=1 n=d6 v=0
361012 On ch=1 n=d#3 v=59
361022 On ch=1 n=a5 v=94
361022 On ch=1 n=c4 v=61
361022 Par ch=1 c=64 v=88
361027 On ch=1 n=d#5 v=69
361027 On ch=1 n=a4 v=79
361027 On ch=1 n=a3 v=52
361027 On ch=1 n=c5 v=73
361027 Par ch=1 c=64 v=0
361052 On ch=1 n=d#3 v=0
361052 On ch=1 n=f#4 v=84
361057 On ch=1 n=a3 v=0
361062 Par ch=1 c=64 v=40
361067 Par ch=1 c=64 v=127
361072 On ch=1 n=a4 v=0
361082 On ch=1 n=f#4 v=0
361082 On ch=1 n=c5 v=0
361082 On ch=1 n=c4 v=0
361092 On ch=1 n=a5 v=0
361102 On ch=1 n=d#5 v=0
361327 On ch=1 n=e3 v=69
361337 On ch=1 n=g3 v=54
361347 Par ch=1 c=64 v=72
361352 On ch=1 n=a#3 v=65
361352 Par ch=1 c=64 v=0
361357 On ch=1 n=c#4 v=48
361367 On ch=1 n=e3 v=0
361372 On ch=1 n=g3 v=0
361372 Par ch=1 c=64 v=24
361377 Par ch=1 c=64 v=88
361382 Par ch=1 c=64 v=127
361402 On ch=1 n=a#5 v=91
361407 On ch=1 n=a#4 v=78
361407 On ch=1 n=g4 v=78
361412 On ch=1 n=c#5 v=68
361412 On ch=1 n=e5 v=80
361437 On ch=1 n=c#4 v=0
361437 On ch=1 n=a#3 v=0
361447 On ch=1 n=g4 v=0
361447 On ch=1 n=a#4 v=0
361452 On ch=1 n=e5 v=0
361452 On ch=1 n=c#5 v=0
361462 On ch=1 n=a#5 v=0
361992 On ch=1 n=d3 v=66
362092 On ch=1 n=d3 v=0
362097 Par ch=1 c=64 v=40
362117 Par ch=1 c=64 v=72
362132 Par ch=1 c=64 v=88
362142 On ch=1 n=b3 v=57
362147 Par ch=1 c=64 v=104
362227 Par ch=1 c=64 v=72
362242 Par ch=1 c=64 v=56
362252 On ch=1 n=g#4 v=65
362272 On ch=1 n=f4 v=66
362292 Par ch=1 c=64 v=72
362307 Par ch=1 c=64 v=88
362322 Par ch=1 c=64 v=104
362342 Par ch=1 c=64 v=127
362357 On ch=1 n=b4 v=65
362422 Par ch=1 c=64 v=104
362437 Par ch=1 c=64 v=72
362452 Par ch=1 c=64 v=56
362462 On ch=1 n=f5 v=89
362472 Par ch=1 c=64 v=24
362487 Par ch=1 c=64 v=0
362777 On ch=1 n=g#4 v=0
362777 On ch=1 n=b3 v=0
362862 On ch=1 n=f4 v=0
363092 On ch=1 n=b4 v=0
363797 On ch=1 n=c#5 v=58
363817 On ch=1 n=f5 v=0
364172 On ch=1 n=c#5 v=0
364177 On ch=1 n=d5 v=77
364517 Par ch=1 c=64 v=40
364537 Par ch=1 c=64 v=88
364552 Par ch=1 c=64 v=127
364697 On ch=1 n=d5 v=0
364882 On ch=1 n=e5 v=69
364947 On ch=1 n=e5 v=0
364997 On ch=1 n=e5 v=71
365157 On ch=1 n=e5 v=0
365212 On ch=1 n=g5 v=75
365307 Par ch=1 c=64 v=104
365327 Par ch=1 c=64 v=72
365342 Par ch=1 c=64 v=24
365357 Par ch=1 c=64 v=0
366277 On ch=1 n=g5 v=0
366382 On ch=1 n=f5 v=64
366552 Par ch=1 c=64 v=24
366567 Par ch=1 c=64 v=56
366582 Par ch=1 c=64 v=88
366597 Par ch=1 c=64 v=104
366612 Par ch=1 c=64 v=127
366647 On ch=1 n=f5 v=0
366727 Par ch=1 c=64 v=104
366742 Par ch=1 c=64 v=56
366757 Par ch=1 c=64 v=0
366767 On ch=1 n=e5 v=70
366837 Par ch=1 c=64 v=40
366857 Par ch=1 c=64 v=72
366872 Par ch=1 c=64 v=104
366892 Par ch=1 c=64 v=127
366922 On ch=1 n=e5 v=0
367082 Par ch=1 c=64 v=88
367097 Par ch=1 c=64 v=24
367112 Par ch=1 c=64 v=0
367117 On ch=1 n=d5 v=75
367212 Par ch=1 c=64 v=40
367227 On ch=1 n=d5 v=0
367227 Par ch=1 c=64 v=72
367247 Par ch=1 c=64 v=88
367262 Par ch=1 c=64 v=127
367517 Par ch=1 c=64 v=104
367532 Par ch=1 c=64 v=72
367547 Par ch=1 c=64 v=24
367557 On ch=1 n=c#5 v=55
367567 Par ch=1 c=64 v=0
367712 Par ch=1 c=64 v=40
367727 Par ch=1 c=64 v=88
367742 Par ch=1 c=64 v=127
367797 On ch=1 n=c#5 v=0
367967 Par ch=1 c=64 v=56
367977 On ch=1 n=c5 v=70
367987 Par ch=1 c=64 v=0
368117 Par ch=1 c=64 v=24
368132 Par ch=1 c=64 v=72
368147 Par ch=1 c=64 v=104
368162 Par ch=1 c=64 v=127
368187 On ch=1 n=c5 v=0
368342 Par ch=1 c=64 v=104
368357 Par ch=1 c=64 v=56
368372 On ch=1 n=b4 v=70
368377 Par ch=1 c=64 v=0
368472 Par ch=1 c=64 v=40
368487 Par ch=1 c=64 v=88
368502 Par ch=1 c=64 v=127
368537 On ch=1 n=b4 v=0
368852 On ch=1 n=a#4 v=58
368872 On ch=1 n=f4 v=57
368872 On ch=1 n=a#3 v=39
368882 On ch=1 n=g#4 v=47
368882 On ch=1 n=d3 v=43
368907 Par ch=1 c=64 v=88
368922 Par ch=1 c=64 v=24
368937 Par ch=1 c=64 v=0
369082 Par ch=1 c=64 v=40
369097 On ch=1 n=f4 v=0
369097 Par ch=1 c=64 v=88
369102 On ch=1 n=g#4 v=0
369107 On ch=1 n=d3 v=0
369112 On ch=1 n=a#3 v=0
369112 Par ch=1 c=64 v=127
369132 On ch=1 n=a#4 v=0
369332 On ch=1 n=a#4 v=65
369342 On ch=1 n=f#4 v=56
369367 On ch=1 n=a#3 v=36
369372 On ch=1 n=d#3 v=34
369402 Par ch=1 c=64 v=104
369422 Par ch=1 c=64 v=88
369437 Par ch=1 c=64 v=40
369452 Par ch=1 c=64 v=0
369952 Par ch=1 c=64 v=40
369967 Par ch=1 c=64 v=72
369987 Par ch=1 c=64 v=104
370002 Par ch=1 c=64 v=127
370182 On ch=1 n=a#3 v=0
370207 On ch=1 n=d#3 v=0
370252 On ch=1 n=f#4 v=0
370252 On ch=1 n=a#4 v=0
370567 On ch=1 n=a#4 v=56
370582 On ch=1 n=a#3 v=53
370597 On ch=1 n=f4 v=31
370597 On ch=1 n=c#3 v=38
370662 Par ch=1 c=64 v=88
370677 Par ch=1 c=64 v=56
370697 Par ch=1 c=64 v=0
371017 Par ch=1 c=64 v=24
371032 Par ch=1 c=64 v=72
371052 Par ch=1 c=64 v=127
371312 On ch=1 n=a#3 v=0
371432 On ch=1 n=f4 v=0
371517 On ch=1 n=a#3 v=72
371557 On ch=1 n=a#4 v=0
371567 On ch=1 n=c#3 v=0
371627 On ch=1 n=a#3 v=0
371852 On ch=1 n=d#5 v=67
371862 On ch=1 n=d#4 v=61
371862 On ch=1 n=a#4 v=50
371872 On ch=1 n=a#3 v=58
371882 On ch=1 n=b2 v=52
371922 Par ch=1 c=64 v=88
371942 Par ch=1 c=64 v=40
371957 Par ch=1 c=64 v=0
372552 Par ch=1 c=64 v=24
372567 Par ch=1 c=64 v=56
372582 Par ch=1 c=64 v=88
372597 Par ch=1 c=64 v=104
372617 Par ch=1 c=64 v=127
372817 On ch=1 n=a#4 v=0
372847 On ch=1 n=d#4 v=0
372857 On ch=1 n=b2 v=0
372872 On ch=1 n=d#5 v=0
372917 On ch=1 n=a#3 v=0
373197 On ch=1 n=d#5 v=67
373212 On ch=1 n=d#4 v=49
373217 On ch=1 n=g#4 v=48
373217 On ch=1 n=g#3 v=43
373232 On ch=1 n=b2 v=43
373257 Par ch=1 c=64 v=88
373272 Par ch=1 c=64 v=40
373292 Par ch=1 c=64 v=0
373647 Par ch=1 c=64 v=24
373662 Par ch=1 c=64 v=72
373682 Par ch=1 c=64 v=104
373697 Par ch=1 c=64 v=127
373912 On ch=1 n=d#4 v=0
373942 On ch=1 n=g#4 v=0
373957 On ch=1 n=b2 v=0
373982 On ch=1 n=g#3 v=0
373987 On ch=1 n=d#5 v=0
374532 On ch=1 n=g#3 v=46
374537 On ch=1 n=f5 v=59
374542 On ch=1 n=b2 v=49
374552 On ch=1 n=g#4 v=35
374552 On ch=1 n=f4 v=40
374557 On ch=1 n=d5 v=51
374582 On ch=1 n=b2 v=0
374607 On ch=1 n=g#3 v=0
374617 On ch=1 n=f4 v=0
374622 On ch=1 n=g#4 v=0
374632 On ch=1 n=f5 v=0
374642 On ch=1 n=d5 v=0
374847 On ch=1 n=f5 v=56
374857 On ch=1 n=g#4 v=35
374872 On ch=1 n=f4 v=28
374872 On ch=1 n=d5 v=44
374882 On ch=1 n=g#3 v=37
374902 On ch=1 n=a#2 v=33
374972 Par ch=1 c=64 v=104
374987 Par ch=1 c=64 v=72
375002 Par ch=1 c=64 v=24
375017 Par ch=1 c=64 v=0
375157 On ch=1 n=a#2 v=0
375242 On ch=1 n=b2 v=16
375647 Par ch=1 c=64 v=24
375662 Par ch=1 c=64 v=56
375682 Par ch=1 c=64 v=88
375697 Par ch=1 c=64 v=104
375712 Par ch=1 c=64 v=127
376027 On ch=1 n=f4 v=0
376037 On ch=1 n=b2 v=0
376072 On ch=1 n=d5 v=0
376077 On ch=1 n=g#3 v=0
376077 On ch=1 n=f5 v=0
376082 On ch=1 n=g#4 v=0
376627 On ch=1 n=f4 v=49
376747 Par ch=1 c=64 v=72
376762 Par ch=1 c=64 v=0
376892 Par ch=1 c=64 v=40
376907 Par ch=1 c=64 v=88
376922 Par ch=1 c=64 v=104
376937 Par ch=1 c=64 v=127
377162 On ch=1 n=d5 v=57
377182 On ch=1 n=f4 v=0
377307 Par ch=1 c=64 v=104
377327 Par ch=1 c=64 v=56
377342 Par ch=1 c=64 v=24
377357 Par ch=1 c=64 v=0
377522 Par ch=1 c=64 v=56
377537 Par ch=1 c=64 v=88
377552 Par ch=1 c=64 v=127
378252 On ch=1 n=d5 v=0
378452 On ch=1 n=f4 v=36
378537 Par ch=1 c=64 v=88
378552 Par ch=1 c=64 v=40
378567 Par ch=1 c=64 v=0
378712 Par ch=1 c=64 v=56
378732 Par ch=1 c=64 v=88
378747 Par ch=1 c=64 v=127
378812 On ch=1 n=f4 v=0
379052 Par ch=1 c=64 v=104
379067 Par ch=1 c=64 v=88
379087 Par ch=1 c=64 v=72
379102 Par ch=1 c=64 v=56
379112 Par ch=1 c=64 v=40
379132 Par ch=1 c=64 v=24
379147 Par ch=1 c=64 v=0
379602 Par ch=1 c=64 v=24
379617 Par ch=1 c=64 v=56
379632 Par ch=1 c=64 v=72
379647 Par ch=1 c=64 v=88
379662 Par ch=1 c=64 v=104
379682 Par ch=1 c=64 v=127
380092 On ch=1 n=f5 v=52
380097 On ch=1 n=c#5 v=45
380097 On ch=1 n=g#4 v=37
380102 On ch=1 n=f4 v=42
380117 On ch=1 n=g#3 v=36
380132 On ch=1 n=b2 v=35
380162 Par ch=1 c=64 v=88
380182 Par ch=1 c=64 v=40
380197 Par ch=1 c=64 v=0
380327 Par ch=1 c=64 v=24
380342 Par ch=1 c=64 v=56
380357 Par ch=1 c=64 v=104
380377 Par ch=1 c=64 v=127
380747 On ch=1 n=f4 v=0
380752 On ch=1 n=g#4 v=0
380782 On ch=1 n=c#5 v=0
380782 On ch=1 n=f5 v=0
380812 On ch=1 n=b2 v=0
380872 On ch=1 n=g#3 v=0
381302 On ch=1 n=f5 v=57
381302 On ch=1 n=g#3 v=46
381307 On ch=1 n=g#4 v=45
381307 On ch=1 n=b2 v=46
381317 On ch=1 n=f4 v=47
381317 On ch=1 n=d5 v=56
381352 On ch=1 n=b2 v=0
381372 On ch=1 n=g#3 v=0
381377 On ch=1 n=f4 v=0
381387 On ch=1 n=g#4 v=0
381387 On ch=1 n=f5 v=0
381402 On ch=1 n=d5 v=0
381532 On ch=1 n=f5 v=65
381542 On ch=1 n=f4 v=57
381542 On ch=1 n=g#4 v=40
381547 On ch=1 n=d5 v=42
381547 On ch=1 n=g#3 v=42
381562 On ch=1 n=b2 v=41
381632 Par ch=1 c=64 v=88
381647 Par ch=1 c=64 v=56
381662 Par ch=1 c=64 v=24
381682 Par ch=1 c=64 v=0
381922 Par ch=1 c=64 v=24
381942 Par ch=1 c=64 v=56
381957 Par ch=1 c=64 v=104
381972 Par ch=1 c=64 v=127
382372 On ch=1 n=f4 v=0
382392 On ch=1 n=d5 v=0
382447 On ch=1 n=f5 v=0
382462 On ch=1 n=g#4 v=0
382682 On ch=1 n=b2 v=0
382702 On ch=1 n=g#3 v=0
383167 On ch=1 n=f4 v=59
383292 Par ch=1 c=64 v=88
383312 Par ch=1 c=64 v=24
383327 Par ch=1 c=64 v=0
383407 Par ch=1 c=64 v=56
383422 Par ch=1 c=64 v=104
383442 Par ch=1 c=64 v=127
383657 On ch=1 n=f4 v=0
383717 On ch=1 n=d5 v=63
383842 Par ch=1 c=64 v=104
383857 Par ch=1 c=64 v=72
383877 Par ch=1 c=64 v=24
383892 Par ch=1 c=64 v=0
384002 Par ch=1 c=64 v=40
384022 Par ch=1 c=64 v=88
384037 Par ch=1 c=64 v=127
384942 On ch=1 n=d5 v=0
385017 On ch=1 n=f4 v=36
385147 Par ch=1 c=64 v=104
385167 Par ch=1 c=64 v=40
385182 Par ch=1 c=64 v=0
385277 Par ch=1 c=64 v=40
385292 Par ch=1 c=64 v=88
385312 Par ch=1 c=64 v=127
385347 On ch=1 n=f4 v=0
385567 Par ch=1 c=64 v=104
385582 Par ch=1 c=64 v=88
385602 Par ch=1 c=64 v=56
385617 Par ch=1 c=64 v=40
385632 Par ch=1 c=64 v=24
385647 Par ch=1 c=64 v=0
386647 Par ch=1 c=64 v=24
386697 Par ch=1 c=64 v=40
386747 Par ch=1 c=64 v=56
386792 Par ch=1 c=64 v=72
386812 Par ch=1 c=64 v=88
386827 Par ch=1 c=64 v=104
386842 Par ch=1 c=64 v=127
386877 On ch=1 n=f5 v=39
386882 On ch=1 n=c#5 v=38
386882 On ch=1 n=f4 v=37
386882 On ch=1 n=g#4 v=34
386882 On ch=1 n=g#3 v=30
386902 On ch=1 n=b2 v=31
387432 On ch=1 n=g#4 v=0
387442 On ch=1 n=f4 v=0
387447 On ch=1 n=c#5 v=0
387447 On ch=1 n=f5 v=0
387452 On ch=1 n=b2 v=0
387477 On ch=1 n=g#3 v=0
387942 On ch=1 n=f5 v=51
387947 On ch=1 n=g#4 v=44
387947 On ch=1 n=g#3 v=36
387957 On ch=1 n=f4 v=48
387962 On ch=1 n=b2 v=40
387967 On ch=1 n=d5 v=52
388012 On ch=1 n=d5 v=0
388012 On ch=1 n=b2 v=0
388027 On ch=1 n=f4 v=0
388027 On ch=1 n=g#3 v=0
388027 On ch=1 n=f5 v=0
388037 On ch=1 n=g#4 v=0
388182 On ch=1 n=f5 v=47
388187 On ch=1 n=g#4 v=37
388197 On ch=1 n=f4 v=42
388207 On ch=1 n=g#3 v=32
388207 On ch=1 n=d5 v=48
388222 On ch=1 n=b2 v=33
388262 Par ch=1 c=64 v=88
388277 Par ch=1 c=64 v=40
388297 Par ch=1 c=64 v=0
388507 Par ch=1 c=64 v=56
388522 Par ch=1 c=64 v=104
388537 Par ch=1 c=64 v=127
388872 On ch=1 n=f4 v=0
388892 On ch=1 n=g#4 v=0
388937 On ch=1 n=d5 v=0
388972 On ch=1 n=f5 v=0
388997 On ch=1 n=b2 v=0
389042 On ch=1 n=g#3 v=0
389487 On ch=1 n=d5 v=56
389602 Par ch=1 c=64 v=88
389617 Par ch=1 c=64 v=24
389637 Par ch=1 c=64 v=0
389717 Par ch=1 c=64 v=40
389732 Par ch=1 c=64 v=104
389747 Par ch=1 c=64 v=127
389987 On ch=1 n=d5 v=0
390002 On ch=1 n=b5 v=73
390102 Par ch=1 c=64 v=104
390117 Par ch=1 c=64 v=72
390137 Par ch=1 c=64 v=24
390152 Par ch=1 c=64 v=0
390297 Par ch=1 c=64 v=40
390312 Par ch=1 c=64 v=88
390327 Par ch=1 c=64 v=127
391222 On ch=1 n=b5 v=0
391262 On ch=1 n=d5 v=39
391392 Par ch=1 c=64 v=72
391407 Par ch=1 c=64 v=0
391522 Par ch=1 c=64 v=24
391537 Par ch=1 c=64 v=72
391552 Par ch=1 c=64 v=127
391622 On ch=1 n=d5 v=0
391957 Par ch=1 c=64 v=104
391972 Par ch=1 c=64 v=88
391987 Par ch=1 c=64 v=72
392002 Par ch=1 c=64 v=56
392022 Par ch=1 c=64 v=40
392037 Par ch=1 c=64 v=24
392057 Par ch=1 c=64 v=0
392342 Par ch=1 c=64 v=24
392357 Par ch=1 c=64 v=56
392377 Par ch=1 c=64 v=88
392392 Par ch=1 c=64 v=104
392422 Par ch=1 c=64 v=127
392692 On ch=1 n=g#4 v=40
392732 Par ch=1 c=64 v=104
392747 Par ch=1 c=64 v=56
392762 Par ch=1 c=64 v=0
392827 Par ch=1 c=64 v=24
392842 Par ch=1 c=64 v=72
392862 Par ch=1 c=64 v=104
392877 Par ch=1 c=64 v=127
393172 On ch=1 n=g#4 v=0
393212 On ch=1 n=f5 v=63
393357 Par ch=1 c=64 v=104
393377 Par ch=1 c=64 v=72
393392 Par ch=1 c=64 v=56
393407 Par ch=1 c=64 v=24
393422 Par ch=1 c=64 v=0
393582 Par ch=1 c=64 v=24
393602 Par ch=1 c=64 v=56
393617 Par ch=1 c=64 v=88
393632 Par ch=1 c=64 v=127
394457 On ch=1 n=f5 v=0
394502 On ch=1 n=g#4 v=32
394652 Par ch=1 c=64 v=88
394667 Par ch=1 c=64 v=72
394682 Par ch=1 c=64 v=24
394697 Par ch=1 c=64 v=0
394812 Par ch=1 c=64 v=56
394827 Par ch=1 c=64 v=104
394847 Par ch=1 c=64 v=127
394892 On ch=1 n=g#4 v=0
395132 Par ch=1 c=64 v=104
395147 Par ch=1 c=64 v=88
395167 Par ch=1 c=64 v=72
395182 Par ch=1 c=64 v=56
395212 Par ch=1 c=64 v=40
395232 Par ch=1 c=64 v=24
395262 Par ch=1 c=64 v=0
395567 Par ch=1 c=64 v=40
395582 Par ch=1 c=64 v=72
395602 Par ch=1 c=64 v=104
395617 Par ch=1 c=64 v=127
396027 On ch=1 n=d4 v=48
396102 Par ch=1 c=64 v=88
396117 Par ch=1 c=64 v=40
396137 Par ch=1 c=64 v=0
396217 Par ch=1 c=64 v=24
396232 Par ch=1 c=64 v=72
396247 Par ch=1 c=64 v=104
396262 Par ch=1 c=64 v=127
396662 On ch=1 n=d4 v=0
396677 On ch=1 n=b4 v=48
396847 Par ch=1 c=64 v=88
396862 Par ch=1 c=64 v=56
396877 Par ch=1 c=64 v=0
397007 Par ch=1 c=64 v=40
397022 Par ch=1 c=64 v=88
397037 Par ch=1 c=64 v=127
397452 On ch=1 n=b4 v=0
397937 On ch=1 n=g#3 v=40
398057 Par ch=1 c=64 v=104
398067 Par ch=1 c=64 v=56
398087 Par ch=1 c=64 v=0
398182 Par ch=1 c=64 v=24
398197 Par ch=1 c=64 v=72
398217 Par ch=1 c=64 v=127
398342 On ch=1 n=g#3 v=0
398667 On ch=1 n=f4 v=51
398792 Par ch=1 c=64 v=88
398812 Par ch=1 c=64 v=72
398827 Par ch=1 c=64 v=40
398847 Par ch=1 c=64 v=0
399342 On ch=1 n=f4 v=0
400182 Par ch=1 c=64 v=24
400192 Par ch=1 c=64 v=40
400202 Par ch=1 c=64 v=56
400207 Par ch=1 c=64 v=72
400217 Par ch=1 c=64 v=88
400227 On ch=1 n=f5 v=57
400227 Par ch=1 c=64 v=104
400237 Par ch=1 c=64 v=127
400242 On ch=1 n=f4 v=42
400252 On ch=1 n=f3 v=36
400297 On ch=1 n=f4 v=0
400302 On ch=1 n=f3 v=0
400352 On ch=1 n=f5 v=0
400417 On ch=1 n=e5 v=63
400427 On ch=1 n=e4 v=52
400437 On ch=1 n=e3 v=39
400472 On ch=1 n=e3 v=0
400472 On ch=1 n=e4 v=0
400477 On ch=1 n=e5 v=0
400567 On ch=1 n=d#5 v=62
400567 On ch=1 n=d#3 v=51
400572 On ch=1 n=d#4 v=54
400612 On ch=1 n=d#4 v=0
400617 On ch=1 n=d#3 v=0
400672 On ch=1 n=d#5 v=0
400687 On ch=1 n=d5 v=74
400697 On ch=1 n=d4 v=62
400702 On ch=1 n=d3 v=51
400722 On ch=1 n=d4 v=0
400727 On ch=1 n=d3 v=0
400762 On ch=1 n=d5 v=0
400802 On ch=1 n=c#5 v=68
400817 On ch=1 n=c#4 v=58
400817 On ch=1 n=c#3 v=56
400852 On ch=1 n=c#4 v=0
400862 On ch=1 n=c#3 v=0
400882 On ch=1 n=c#5 v=0
400932 On ch=1 n=c5 v=73
400937 On ch=1 n=c4 v=66
400947 On ch=1 n=c3 v=45
400962 On ch=1 n=c4 v=0
400972 On ch=1 n=c3 v=0
401017 On ch=1 n=c5 v=0
401052 On ch=1 n=b4 v=73
401052 On ch=1 n=b3 v=62
401067 On ch=1 n=b3 v=0
401132 On ch=1 n=b4 v=0
401162 On ch=1 n=a#4 v=68
401162 On ch=1 n=a#3 v=60
401167 On ch=1 n=a#2 v=52
401197 On ch=1 n=a#2 v=0
401202 On ch=1 n=a#3 v=0
401232 On ch=1 n=a#4 v=0
401242 Par ch=1 c=64 v=104
401247 Par ch=1 c=64 v=88
401257 Par ch=1 c=64 v=72
401267 Par ch=1 c=64 v=56
401287 Par ch=1 c=64 v=40
401297 Par ch=1 c=64 v=24
401312 Par ch=1 c=64 v=0
401357 On ch=1 n=a4 v=90
401372 On ch=1 n=a3 v=82
401377 On ch=1 n=a2 v=71
401462 Par ch=1 c=64 v=104
401472 Par ch=1 c=64 v=127
401502 On ch=1 n=a4 v=0
401557 On ch=1 n=a2 v=0
401587 On ch=1 n=a3 v=0
401957 On ch=1 n=a6 v=81
401962 On ch=1 n=a5 v=74
401962 On ch=1 n=f#6 v=62
401962 On ch=1 n=f#5 v=58
401962 On ch=1 n=d6 v=70
401967 On ch=1 n=a4 v=44
401967 On ch=1 n=d5 v=51
401992 On ch=1 n=d5 v=0
401997 On ch=1 n=a4 v=0
401997 On ch=1 n=f#5 v=0
402002 On ch=1 n=d6 v=0
402002 On ch=1 n=f#6 v=0
402002 On ch=1 n=a5 v=0
402007 On ch=1 n=a6 v=0
402047 On ch=1 n=a6 v=78
402052 On ch=1 n=f#5 v=67
402052 On ch=1 n=a5 v=74
402052 On ch=1 n=f#6 v=75
402052 On ch=1 n=a4 v=55
402052 On ch=1 n=d5 v=64
402057 On ch=1 n=d6 v=69
402072 On ch=1 n=d5 v=0
402082 On ch=1 n=a4 v=0
402082 On ch=1 n=f#5 v=0
402092 On ch=1 n=d6 v=0
402092 On ch=1 n=a5 v=0
402097 On ch=1 n=f#6 v=0
402102 On ch=1 n=a6 v=0
402142 On ch=1 n=a6 v=85
402147 On ch=1 n=f#6 v=82
402147 On ch=1 n=a5 v=85
402152 On ch=1 n=d6 v=79
402152 On ch=1 n=f#5 v=69
402152 On ch=1 n=a4 v=65
402157 On ch=1 n=d5 v=68
402282 On ch=1 n=f#5 v=0
402307 On ch=1 n=d5 v=0
402312 On ch=1 n=a4 v=0
402337 On ch=1 n=a5 v=0
402337 On ch=1 n=f#6 v=0
402337 On ch=1 n=a6 v=0
402342 On ch=1 n=d6 v=0
402807 On ch=1 n=a4 v=87
402807 On ch=1 n=a3 v=76
402812 On ch=1 n=a2 v=59
402832 On ch=1 n=a2 v=0
402847 On ch=1 n=a3 v=0
402882 On ch=1 n=a4 v=0
402947 On ch=1 n=b4 v=90
402957 On ch=1 n=b3 v=80
402957 On ch=1 n=b2 v=70
402962 Par ch=1 c=64 v=72
402967 Par ch=1 c=64 v=0
403087 Par ch=1 c=64 v=127
403132 On ch=1 n=b4 v=0
403187 On ch=1 n=b2 v=0
403212 On ch=1 n=b3 v=0
403567 On ch=1 n=d7 v=86
403567 On ch=1 n=d6 v=85
403567 On ch=1 n=f#6 v=74
403572 On ch=1 n=f#5 v=64
403577 On ch=1 n=f#4 v=55
403577 On ch=1 n=b6 v=70
403577 On ch=1 n=d5 v=59
403582 On ch=1 n=b4 v=48
403597 On ch=1 n=b4 v=0
403597 On ch=1 n=d5 v=0
403597 On ch=1 n=b6 v=0
403607 On ch=1 n=f#4 v=0
403607 On ch=1 n=f#5 v=0
403612 On ch=1 n=f#6 v=0
403612 On ch=1 n=d6 v=0
403622 On ch=1 n=d7 v=0
403662 On ch=1 n=f#5 v=63
403667 On ch=1 n=d7 v=81
403667 On ch=1 n=f#6 v=75
403667 On ch=1 n=d5 v=55
403667 On ch=1 n=d6 v=83
403667 On ch=1 n=b4 v=51
403667 On ch=1 n=f#4 v=46
403667 On ch=1 n=b6 v=74
403687 On ch=1 n=d5 v=0
403697 On ch=1 n=f#4 v=0
403697 On ch=1 n=b4 v=0
403702 On ch=1 n=f#5 v=0
403712 On ch=1 n=d6 v=0
403717 On ch=1 n=b6 v=0
403717 On ch=1 n=f#6 v=0
403717 On ch=1 n=d7 v=0
403777 On ch=1 n=d7 v=86
403782 On ch=1 n=d6 v=90
403782 On ch=1 n=f#6 v=77
403782 On ch=1 n=b6 v=84
403782 On ch=1 n=f#5 v=67
403792 On ch=1 n=b4 v=52
403792 On ch=1 n=f#4 v=46
403792 On ch=1 n=d5 v=58
404007 On ch=1 n=f#5 v=0
404012 On ch=1 n=d5 v=0
404012 On ch=1 n=b4 v=0
404012 On ch=1 n=d7 v=0
404022 On ch=1 n=f#4 v=0
404032 On ch=1 n=b6 v=0
404042 On ch=1 n=f#6 v=0
404047 On ch=1 n=d6 v=0
404427 On ch=1 n=b4 v=85
404432 On ch=1 n=b3 v=74
404432 On ch=1 n=b2 v=60
404457 On ch=1 n=b3 v=0
404472 On ch=1 n=b2 v=0
404492 On ch=1 n=b4 v=0
404587 Par ch=1 c=64 v=88
404597 Par ch=1 c=64 v=24
404607 Par ch=1 c=64 v=0
404667 On ch=1 n=f#4 v=85
404667 On ch=1 n=f#5 v=87
404677 On ch=1 n=f#3 v=77
404677 On ch=1 n=f#2 v=57
404697 Par ch=1 c=64 v=127
404702 On ch=1 n=f#4 v=0
404717 On ch=1 n=f#2 v=0
404717 On ch=1 n=f#3 v=0
404732 On ch=1 n=f#5 v=0
405007 On ch=1 n=f#7 v=92
405007 On ch=1 n=f#6 v=88
405007 On ch=1 n=f#5 v=69
405007 On ch=1 n=f#4 v=50
405007 On ch=1 n=a#4 v=51
405012 On ch=1 n=c#7 v=74
405012 On ch=1 n=c#5 v=54
405012 On ch=1 n=a#6 v=65
405042 On ch=1 n=c#5 v=0
405042 On ch=1 n=f#5 v=0
405047 On ch=1 n=a#6 v=0
405047 On ch=1 n=f#6 v=0
405052 On ch=1 n=c#7 v=0
405052 On ch=1 n=a#4 v=0
405052 On ch=1 n=f#4 v=0
405062 On ch=1 n=f#7 v=0
405117 On ch=1 n=f#7 v=89
405122 On ch=1 n=f#6 v=97
405122 On ch=1 n=f#5 v=77
405122 On ch=1 n=f#4 v=61
405127 On ch=1 n=a#4 v=51
405127 On ch=1 n=c#7 v=75
405127 On ch=1 n=a#6 v=69
405127 On ch=1 n=c#5 v=47
405147 On ch=1 n=c#5 v=0
405152 On ch=1 n=f#5 v=0
405157 On ch=1 n=a#4 v=0
405162 On ch=1 n=a#6 v=0
405162 On ch=1 n=f#4 v=0
405162 On ch=1 n=f#6 v=0
405167 On ch=1 n=c#7 v=0
405177 On ch=1 n=f#7 v=0
405247 On ch=1 n=f#7 v=99
405247 On ch=1 n=f#6 v=105
405252 On ch=1 n=a#6 v=81
405252 On ch=1 n=c#7 v=86
405257 On ch=1 n=f#5 v=83
405257 On ch=1 n=f#4 v=67
405257 On ch=1 n=a#4 v=57
405262 On ch=1 n=c#5 v=56
405387 On ch=1 n=f#5 v=0
405387 On ch=1 n=f#7 v=0
405392 On ch=1 n=c#7 v=0
405392 On ch=1 n=f#6 v=0
405397 On ch=1 n=c#5 v=0
405397 On ch=1 n=a#6 v=0
405412 On ch=1 n=a#4 v=0
405412 On ch=1 n=f#4 v=0
405702 Par ch=1 c=64 v=88
405707 Par ch=1 c=64 v=0
405822 On ch=1 n=a5 v=97
405822 On ch=1 n=a4 v=92
405832 On ch=1 n=a3 v=88
405832 On ch=1 n=a2 v=71
405857 On ch=1 n=a4 v=0
405857 Par ch=1 c=64 v=127
405862 On ch=1 n=a2 v=0
405877 On ch=1 n=a3 v=0
405887 On ch=1 n=a5 v=0
406102 On ch=1 n=a7 v=99
406102 On ch=1 n=a5 v=63
406102 On ch=1 n=c#5 v=53
406107 On ch=1 n=a6 v=82
406107 On ch=1 n=a4 v=55
406107 On ch=1 n=c#7 v=71
406112 On ch=1 n=e7 v=77
406112 On ch=1 n=e5 v=57
406132 On ch=1 n=e5 v=0
406137 On ch=1 n=a4 v=0
406142 On ch=1 n=a5 v=0
406152 On ch=1 n=c#5 v=0
406157 On ch=1 n=e7 v=0
406162 On ch=1 n=a6 v=0
406167 On ch=1 n=c#7 v=0
406167 On ch=1 n=a7 v=0
406227 On ch=1 n=a7 v=99
406227 On ch=1 n=a5 v=76
406227 On ch=1 n=c#5 v=59
406227 On ch=1 n=a6 v=87
406227 On ch=1 n=e5 v=63
406227 On ch=1 n=c#7 v=71
406232 On ch=1 n=e7 v=84
406232 On ch=1 n=a4 v=51
406257 On ch=1 n=a4 v=0
406262 On ch=1 n=e5 v=0
406267 On ch=1 n=c#5 v=0
406267 On ch=1 n=a5 v=0
406272 On ch=1 n=e7 v=0
406282 On ch=1 n=c#7 v=0
406282 On ch=1 n=a6 v=0
406287 On ch=1 n=a7 v=0
406357 On ch=1 n=a7 v=86
406357 On ch=1 n=a6 v=94
406357 On ch=1 n=e7 v=96
406362 On ch=1 n=c#7 v=82
406362 On ch=1 n=c#5 v=65
406367 On ch=1 n=a5 v=80
406372 On ch=1 n=a7 v=0
406372 On ch=1 n=a4 v=63
406372 On ch=1 n=e5 v=66
406467 On ch=1 n=a4 v=0
406472 On ch=1 n=e5 v=0
406472 On ch=1 n=e7 v=0
406477 On ch=1 n=a5 v=0
406482 On ch=1 n=c#7 v=0
406482 On ch=1 n=a6 v=0
406507 On ch=1 n=c#5 v=0
406852 On ch=1 n=a5 v=96
406857 On ch=1 n=a4 v=84
406857 On ch=1 n=f#5 v=70
406862 On ch=1 n=d5 v=74
406862 On ch=1 n=d3 v=87
406862 On ch=1 n=d2 v=82
406912 On ch=1 n=d2 v=0
406932 On ch=1 n=d5 v=0
406932 On ch=1 n=a4 v=0
406937 On ch=1 n=d3 v=0
406937 On ch=1 n=f#5 v=0
406942 On ch=1 n=a5 v=0
407007 Par ch=1 c=64 v=88
407017 Par ch=1 c=64 v=0
407022 On ch=1 n=a5 v=102
407022 On ch=1 n=f#5 v=81
407022 On ch=1 n=a4 v=92
407027 On ch=1 n=d5 v=84
407027 On ch=1 n=d2 v=86
407032 On ch=1 n=d3 v=93
407097 Par ch=1 c=64 v=127
407117 On ch=1 n=a4 v=0
407122 On ch=1 n=d5 v=0
407147 On ch=1 n=f#5 v=0
407172 On ch=1 n=a5 v=0
407177 On ch=1 n=d2 v=0
407217 On ch=1 n=d3 v=0
407607 On ch=1 n=a7 v=102
407607 On ch=1 n=f#5 v=55
407607 On ch=1 n=f#7 v=78
407607 On ch=1 n=a6 v=88
407607 On ch=1 n=a5 v=68
407607 On ch=1 n=d5 v=60
407612 On ch=1 n=d7 v=75
407617 On ch=1 n=a4 v=46
407647 On ch=1 n=a4 v=0
407652 On ch=1 n=f#5 v=0
407657 On ch=1 n=d5 v=0
407657 On ch=1 n=a5 v=0
407662 On ch=1 n=d7 v=0
407662 On ch=1 n=a6 v=0
407672 On ch=1 n=f#7 v=0
407672 On ch=1 n=a7 v=0
407732 On ch=1 n=d5 v=67
407737 On ch=1 n=a7 v=100
407737 On ch=1 n=f#7 v=82
407737 On ch=1 n=f#5 v=56
407737 On ch=1 n=a6 v=89
407737 On ch=1 n=a5 v=68
407742 On ch=1 n=a4 v=56
407742 On ch=1 n=d7 v=77
407762 On ch=1 n=a4 v=0
407777 On ch=1 n=a6 v=0
407777 On ch=1 n=f#5 v=0
407782 On ch=1 n=d7 v=0
407782 On ch=1 n=d5 v=0
407797 On ch=1 n=a5 v=0
407812 On ch=1 n=f#7 v=0
407817 On ch=1 n=a7 v=0
408027 On ch=1 n=d8 v=90
408027 On ch=1 n=a7 v=87
408027 On ch=1 n=d7 v=82
408027 On ch=1 n=f#7 v=69
408027 On ch=1 n=d6 v=68
408027 On ch=1 n=f#5 v=56
408032 On ch=1 n=a5 v=61
408032 On ch=1 n=d5 v=54
408052 On ch=1 n=d5 v=0
408062 On ch=1 n=a5 v=0
408062 On ch=1 n=d6 v=0
408062 On ch=1 n=d7 v=0
408062 On ch=1 n=a7 v=0
408062 On ch=1 n=d8 v=0
408067 On ch=1 n=f#5 v=0
408067 On ch=1 n=f#7 v=0
408112 On ch=1 n=d8 v=99
408117 On ch=1 n=d6 v=80
408117 On ch=1 n=f#5 v=62
408117 On ch=1 n=d7 v=86
408117 On ch=1 n=d5 v=66
408117 On ch=1 n=a7 v=87
408117 On ch=1 n=f#7 v=73
408122 On ch=1 n=a5 v=59
408137 On ch=1 n=a5 v=0
408137 On ch=1 n=d5 v=0
408152 On ch=1 n=a7 v=0
408152 On ch=1 n=d6 v=0
408162 On ch=1 n=f#7 v=0
408162 On ch=1 n=f#5 v=0
408162 On ch=1 n=d8 v=0
408172 On ch=1 n=d7 v=0
408397 On ch=1 n=f#7 v=85
408397 On ch=1 n=f#5 v=75
408397 On ch=1 n=f#4 v=69
408402 On ch=1 n=f#6 v=84
408402 On ch=1 n=d5 v=70
408407 On ch=1 n=d7 v=68
408417 On ch=1 n=d5 v=0
408422 On ch=1 n=d7 v=0
408432 On ch=1 n=f#6 v=0
408432 On ch=1 n=f#5 v=0
408437 On ch=1 n=f#4 v=0
408442 On ch=1 n=f#7 v=0
408482 On ch=1 n=f#4 v=64
408482 On ch=1 n=f#5 v=76
408487 On ch=1 n=f#7 v=88
408487 On ch=1 n=d5 v=71
408487 On ch=1 n=f#6 v=91
408492 On ch=1 n=d7 v=80
408502 On ch=1 n=d5 v=0
408522 On ch=1 n=f#4 v=0
408527 On ch=1 n=f#5 v=0
408542 On ch=1 n=d7 v=0
408542 On ch=1 n=f#6 v=0
408562 On ch=1 n=f#7 v=0
408747 On ch=1 n=a5 v=69
408747 On ch=1 n=f#5 v=53
408747 On ch=1 n=d5 v=59
408752 On ch=1 n=a6 v=83
408752 On ch=1 n=a7 v=93
408752 On ch=1 n=f#7 v=72
408757 On ch=1 n=a4 v=44
408757 On ch=1 n=d7 v=68
408772 On ch=1 n=d7 v=0
408777 On ch=1 n=a4 v=0
408777 On ch=1 n=f#5 v=0
408782 On ch=1 n=a6 v=0
408782 On ch=1 n=d5 v=0
408782 On ch=1 n=a5 v=0
408787 On ch=1 n=f#7 v=0
408787 On ch=1 n=a7 v=0
408837 On ch=1 n=a7 v=99
408837 On ch=1 n=a5 v=76
408837 On ch=1 n=f#5 v=62
408842 On ch=1 n=f#7 v=80
408842 On ch=1 n=a6 v=83
408842 On ch=1 n=a4 v=60
408842 On ch=1 n=d5 v=64
408842 On ch=1 n=d7 v=71
408857 On ch=1 n=d5 v=0
408862 On ch=1 n=d7 v=0
408862 On ch=1 n=a4 v=0
408872 On ch=1 n=f#5 v=0
408872 On ch=1 n=a5 v=0
408882 On ch=1 n=a6 v=0
408882 On ch=1 n=f#7 v=0
408882 On ch=1 n=a7 v=0
408972 On ch=1 n=a#6 v=49
409012 On ch=1 n=a#6 v=0
409092 On ch=1 n=d7 v=85
409092 On ch=1 n=f#4 v=60
409092 On ch=1 n=d6 v=82
409092 On ch=1 n=d5 v=72
409092 On ch=1 n=f#6 v=69
409097 On ch=1 n=a6 v=74
409097 On ch=1 n=a4 v=57
409097 On ch=1 n=d4 v=63
409112 On ch=1 n=d4 v=0
409117 On ch=1 n=a4 v=0
409117 On ch=1 n=a6 v=0
409122 On ch=1 n=d5 v=0
409127 On ch=1 n=f#6 v=0
409127 On ch=1 n=d6 v=0
409127 On ch=1 n=f#4 v=0
409127 On ch=1 n=d7 v=0
409157 Par ch=1 c=64 v=104
409167 On ch=1 n=d7 v=85
409167 On ch=1 n=d6 v=85
409167 Par ch=1 c=64 v=40
409172 On ch=1 n=f#6 v=69
409172 On ch=1 n=a6 v=82
409172 On ch=1 n=f#4 v=62
409172 On ch=1 n=d4 v=70
409177 On ch=1 n=d5 v=73
409177 On ch=1 n=a4 v=64
409177 Par ch=1 c=64 v=0
409197 On ch=1 n=a4 v=0
409207 On ch=1 n=d4 v=0
409207 Par ch=1 c=64 v=127
409217 On ch=1 n=f#4 v=0
409217 On ch=1 n=d6 v=0
409222 On ch=1 n=d5 v=0
409227 On ch=1 n=f#6 v=0
409232 On ch=1 n=a6 v=0
409247 On ch=1 n=d7 v=0
409422 On ch=1 n=f#5 v=67
409422 On ch=1 n=f#6 v=86
409422 On ch=1 n=f#7 v=85
409427 On ch=1 n=d5 v=62
409427 On ch=1 n=f#4 v=52
409432 On ch=1 n=a4 v=52
409432 On ch=1 n=a6 v=74
409432 On ch=1 n=d7 v=70
409447 On ch=1 n=a4 v=0
409447 On ch=1 n=d5 v=0
409452 On ch=1 n=d7 v=0
409452 On ch=1 n=a6 v=0
409457 On ch=1 n=f#4 v=0
409457 On ch=1 n=f#6 v=0
409457 On ch=1 n=f#5 v=0
409467 On ch=1 n=f#7 v=0
409482 Par ch=1 c=64 v=56
409492 Par ch=1 c=64 v=0
409497 On ch=1 n=f#7 v=80
409502 On ch=1 n=f#6 v=87
409502 On ch=1 n=f#5 v=79
409502 On ch=1 n=f#4 v=57
409507 On ch=1 n=d7 v=74
409507 On ch=1 n=a6 v=75
409512 On ch=1 n=d5 v=63
409512 On ch=1 n=a4 v=58
409517 Par ch=1 c=64 v=56
409527 On ch=1 n=d5 v=0
409527 Par ch=1 c=64 v=127
409537 On ch=1 n=a4 v=0
409547 On ch=1 n=a6 v=0
409547 On ch=1 n=f#4 v=0
409547 On ch=1 n=f#5 v=0
409552 On ch=1 n=d7 v=0
409552 On ch=1 n=f#7 v=0
409567 On ch=1 n=f#6 v=0
409747 On ch=1 n=f#4 v=62
409747 On ch=1 n=a4 v=67
409752 On ch=1 n=a6 v=79
409752 On ch=1 n=d4 v=65
409752 On ch=1 n=f#6 v=67
409752 On ch=1 n=a5 v=77
409757 On ch=1 n=a3 v=54
409762 On ch=1 n=d6 v=64
409772 On ch=1 n=d6 v=0
409777 On ch=1 n=a3 v=0
409782 On ch=1 n=a4 v=0
409782 On ch=1 n=f#4 v=0
409787 On ch=1 n=a5 v=0
409787 On ch=1 n=f#6 v=0
409787 On ch=1 n=d4 v=0
409787 On ch=1 n=a6 v=0
409812 Par ch=1 c=64 v=88
409822 Par ch=1 c=64 v=0
409827 On ch=1 n=a6 v=81
409827 On ch=1 n=f#6 v=71
409827 On ch=1 n=a5 v=76
409827 On ch=1 n=d4 v=62
409832 On ch=1 n=a3 v=64
409832 On ch=1 n=a4 v=63
409837 On ch=1 n=d6 v=76
409837 On ch=1 n=f#4 v=59
409847 Par ch=1 c=64 v=127
409852 On ch=1 n=f#4 v=0
409852 On ch=1 n=d6 v=0
409857 On ch=1 n=a3 v=0
409867 On ch=1 n=d4 v=0
409867 On ch=1 n=a5 v=0
409887 On ch=1 n=a4 v=0
409887 On ch=1 n=f#6 v=0
409897 On ch=1 n=a6 v=0
410072 On ch=1 n=d5 v=68
410072 On ch=1 n=d7 v=87
410072 On ch=1 n=f#4 v=54
410072 On ch=1 n=a4 v=58
410077 On ch=1 n=d6 v=82
410077 On ch=1 n=f#6 v=65
410077 On ch=1 n=a6 v=74
410077 On ch=1 n=d4 v=57
410097 On ch=1 n=d4 v=0
410107 On ch=1 n=a6 v=0
410107 On ch=1 n=f#6 v=0
410107 On ch=1 n=d6 v=0
410107 On ch=1 n=d7 v=0
410112 On ch=1 n=a4 v=0
410112 On ch=1 n=f#4 v=0
410112 On ch=1 n=d5 v=0
410152 On ch=1 n=d7 v=84
410157 On ch=1 n=f#6 v=69
410157 On ch=1 n=d6 v=78
410157 On ch=1 n=a6 v=79
410157 On ch=1 n=f#4 v=61
410157 On ch=1 n=d5 v=72
410162 On ch=1 n=d4 v=70
410162 Par ch=1 c=64 v=40
410167 On ch=1 n=a4 v=55
410172 Par ch=1 c=64 v=24
410177 Par ch=1 c=64 v=56
410182 On ch=1 n=a4 v=0
410182 On ch=1 n=d4 v=0
410187 Par ch=1 c=64 v=127
410197 On ch=1 n=d5 v=0
410197 On ch=1 n=a6 v=0
410207 On ch=1 n=d7 v=0
410212 On ch=1 n=f#4 v=0
410212 On ch=1 n=d6 v=0
410212 On ch=1 n=f#6 v=0
410312 On ch=1 n=c#6 v=23
410332 On ch=1 n=c#6 v=0
410397 On ch=1 n=f#6 v=79
410397 On ch=1 n=f#4 v=77
410397 On ch=1 n=f#5 v=75
410397 On ch=1 n=f#3 v=62
410402 On ch=1 n=d4 v=68
410407 On ch=1 n=d6 v=58
410417 On ch=1 n=d4 v=0
410427 On ch=1 n=d6 v=0
410427 On ch=1 n=f#5 v=0
410427 On ch=1 n=f#4 v=0
410432 On ch=1 n=f#3 v=0
410437 On ch=1 n=f#6 v=0
410472 On ch=1 n=f#6 v=81
410477 On ch=1 n=f#5 v=87
410477 On ch=1 n=f#4 v=78
410477 On ch=1 n=f#3 v=57
410477 On ch=1 n=d6 v=76
410482 On ch=1 n=d4 v=71
410497 On ch=1 n=d4 v=0
410512 On ch=1 n=f#3 v=0
410522 On ch=1 n=f#5 v=0
410527 On ch=1 n=d6 v=0
410527 On ch=1 n=f#4 v=0
410542 On ch=1 n=f#6 v=0
410717 On ch=1 n=f#6 v=78
410717 On ch=1 n=f#4 v=60
410717 On ch=1 n=a6 v=84
410717 On ch=1 n=a5 v=82
410717 On ch=1 n=d4 v=63
410722 On ch=1 n=a4 v=64
410722 On ch=1 n=d6 v=73
410727 On ch=1 n=a3 v=51
410747 On ch=1 n=a3 v=0
410747 On ch=1 n=a4 v=0
410747 On ch=1 n=d4 v=0
410752 On ch=1 n=d6 v=0
410752 On ch=1 n=a5 v=0
410752 On ch=1 n=f#4 v=0
410752 On ch=1 n=f#6 v=0
410757 On ch=1 n=a6 v=0
410787 On ch=1 n=a6 v=81
410787 Par ch=1 c=64 v=72
410792 On ch=1 n=f#6 v=71
410797 On ch=1 n=d6 v=70
410797 On ch=1 n=a5 v=68
410797 Par ch=1 c=64 v=0
410802 On ch=1 n=a4 v=69
410802 On ch=1 n=a3 v=56
410802 On ch=1 n=d4 v=56
410807 On ch=1 n=f#4 v=54
410822 Par ch=1 c=64 v=56
410832 On ch=1 n=f#4 v=0
410832 On ch=1 n=d4 v=0
410832 Par ch=1 c=64 v=127
410837 On ch=1 n=a3 v=0
410837 On ch=1 n=a5 v=0
410842 On ch=1 n=a4 v=0
410842 On ch=1 n=d6 v=0
410842 On ch=1 n=a6 v=0
410847 On ch=1 n=f#6 v=0
410932 On ch=1 n=a#5 v=50
410947 On ch=1 n=a#5 v=0
411032 On ch=1 n=d6 v=85
411037 On ch=1 n=d5 v=79
411037 On ch=1 n=f#5 v=62
411037 On ch=1 n=d4 v=68
411037 On ch=1 n=a5 v=60
411042 On ch=1 n=a3 v=64
411042 On ch=1 n=d3 v=58
411052 On ch=1 n=f#3 v=27
411057 On ch=1 n=a3 v=0
411062 On ch=1 n=d3 v=0
411062 On ch=1 n=a5 v=0
411067 On ch=1 n=f#3 v=0
411067 On ch=1 n=d5 v=0
411067 On ch=1 n=d6 v=0
411072 On ch=1 n=d4 v=0
411072 On ch=1 n=f#5 v=0
411112 On ch=1 n=d6 v=82
411112 On ch=1 n=d5 v=79
411112 On ch=1 n=f#5 v=61
411112 On ch=1 n=d4 v=70
411112 On ch=1 n=a5 v=77
411117 On ch=1 n=f#3 v=54
411117 On ch=1 n=d3 v=60
411117 On ch=1 n=a3 v=72
411117 Par ch=1 c=64 v=88
411127 Par ch=1 c=64 v=0
411152 On ch=1 n=d3 v=0
411157 On ch=1 n=a3 v=0
411157 On ch=1 n=d5 v=0
411157 Par ch=1 c=64 v=56
411162 On ch=1 n=f#3 v=0
411162 Par ch=1 c=64 v=127
411167 On ch=1 n=f#5 v=0
411177 On ch=1 n=a5 v=0
411182 On ch=1 n=d4 v=0
411192 On ch=1 n=d6 v=0
411367 On ch=1 n=f#6 v=75
411367 On ch=1 n=f#4 v=65
411367 On ch=1 n=f#5 v=70
411367 On ch=1 n=f#3 v=57
411367 On ch=1 n=d4 v=68
411372 On ch=1 n=d6 v=66
411377 On ch=1 n=a5 v=59
411387 On ch=1 n=d4 v=0
411392 On ch=1 n=a5 v=0
411392 On ch=1 n=d6 v=0
411397 On ch=1 n=f#4 v=0
411402 On ch=1 n=f#3 v=0
411402 On ch=1 n=f#5 v=0
411407 On ch=1 n=f#6 v=0
411442 On ch=1 n=f#6 v=75
411442 Par ch=1 c=64 v=40
411447 On ch=1 n=f#5 v=83
411447 On ch=1 n=f#4 v=84
411447 On ch=1 n=d6 v=72
411447 On ch=1 n=f#3 v=64
411452 On ch=1 n=d4 v=74
411452 On ch=1 n=a5 v=66
411452 Par ch=1 c=64 v=0
411467 On ch=1 n=d4 v=0
411472 On ch=1 n=a5 v=0
411477 Par ch=1 c=64 v=40
411487 On ch=1 n=f#4 v=0
411487 Par ch=1 c=64 v=127
411492 On ch=1 n=d6 v=0
411492 On ch=1 n=f#6 v=0
411497 On ch=1 n=f#3 v=0
411502 On ch=1 n=f#5 v=0
411702 On ch=1 n=a5 v=87
411702 On ch=1 n=a4 v=84
411702 On ch=1 n=f#5 v=72
411702 On ch=1 n=f#3 v=69
411707 On ch=1 n=a3 v=77
411707 On ch=1 n=d3 v=70
411707 On ch=1 n=d5 v=69
411712 On ch=1 n=a2 v=55
411732 On ch=1 n=a2 v=0
411732 On ch=1 n=d5 v=0
411737 On ch=1 n=a3 v=0
411737 On ch=1 n=f#3 v=0
411737 On ch=1 n=f#5 v=0
411737 On ch=1 n=a4 v=0
411737 On ch=1 n=a5 v=0
411737 Par ch=1 c=64 v=88
411747 On ch=1 n=d3 v=0
411747 Par ch=1 c=64 v=0
411772 On ch=1 n=a5 v=88
411777 On ch=1 n=a4 v=88
411777 On ch=1 n=f#5 v=70
411777 On ch=1 n=a2 v=58
411782 On ch=1 n=d5 v=71
411782 On ch=1 n=d3 v=63
411782 On ch=1 n=a3 v=68
411782 On ch=1 n=f#3 v=58
411782 Par ch=1 c=64 v=127
411807 On ch=1 n=d5 v=0
411807 On ch=1 n=a2 v=0
411812 On ch=1 n=f#3 v=0
411812 On ch=1 n=d3 v=0
411817 On ch=1 n=a4 v=0
411832 On ch=1 n=f#5 v=0
411837 On ch=1 n=a3 v=0
411842 On ch=1 n=a5 v=0
412032 On ch=1 n=d6 v=88
412032 On ch=1 n=d5 v=84
412032 On ch=1 n=a5 v=77
412037 On ch=1 n=d4 v=75
412037 On ch=1 n=f#5 v=60
412037 On ch=1 n=f#3 v=57
412037 On ch=1 n=a3 v=65
412042 On ch=1 n=d3 v=56
412062 On ch=1 n=d3 v=0
412062 On ch=1 n=a3 v=0
412067 On ch=1 n=d4 v=0
412067 On ch=1 n=a5 v=0
412067 On ch=1 n=d5 v=0
412067 On ch=1 n=d6 v=0
412072 On ch=1 n=f#3 v=0
412072 On ch=1 n=f#5 v=0
412112 On ch=1 n=d6 v=86
412112 On ch=1 n=d5 v=81
412112 Par ch=1 c=64 v=56
412117 On ch=1 n=f#5 v=70
412117 On ch=1 n=a5 v=80
412117 On ch=1 n=d4 v=77
412117 On ch=1 n=f#3 v=61
412122 On ch=1 n=d3 v=60
412122 Par ch=1 c=64 v=0
412127 On ch=1 n=a3 v=67
412142 On ch=1 n=a3 v=0
412142 Par ch=1 c=64 v=40
412147 On ch=1 n=a5 v=0
412147 Par ch=1 c=64 v=104
412157 On ch=1 n=d4 v=0
412157 On ch=1 n=f#5 v=0
412157 On ch=1 n=d6 v=0
412157 Par ch=1 c=64 v=127
412162 On ch=1 n=d3 v=0
412162 On ch=1 n=f#3 v=0
412162 On ch=1 n=d5 v=0
412357 Par ch=1 c=64 v=72
412367 On ch=1 n=f#4 v=87
412367 On ch=1 n=f#5 v=77
412367 On ch=1 n=f#3 v=76
412367 Par ch=1 c=64 v=0
412372 On ch=1 n=f#2 v=57
412372 On ch=1 n=d5 v=64
412372 On ch=1 n=d3 v=63
412392 On ch=1 n=d3 v=0
412392 On ch=1 n=d5 v=0
412397 On ch=1 n=f#4 v=0
412397 Par ch=1 c=64 v=104
412402 On ch=1 n=f#2 v=0
412402 On ch=1 n=f#3 v=0
412407 On ch=1 n=f#5 v=0
412407 Par ch=1 c=64 v=127
412447 On ch=1 n=f#3 v=79
412452 On ch=1 n=f#4 v=97
412452 On ch=1 n=f#5 v=85
412452 On ch=1 n=f#2 v=71
412457 On ch=1 n=d3 v=67
412457 On ch=1 n=d5 v=80
412462 Par ch=1 c=64 v=56
412472 On ch=1 n=d3 v=0
412472 Par ch=1 c=64 v=0
412502 On ch=1 n=f#2 v=0
412502 On ch=1 n=f#4 v=0
412502 Par ch=1 c=64 v=40
412507 Par ch=1 c=64 v=127
412517 On ch=1 n=d5 v=0
412522 On ch=1 n=f#3 v=0
412537 On ch=1 n=f#5 v=0
412702 On ch=1 n=a5 v=90
412702 On ch=1 n=f#5 v=74
412702 On ch=1 n=a4 v=86
412702 On ch=1 n=a3 v=82
412707 On ch=1 n=d5 v=79
412707 On ch=1 n=f#3 v=54
412707 On ch=1 n=d3 v=60
412717 On ch=1 n=a2 v=34
412722 On ch=1 n=f#3 v=0
412727 On ch=1 n=d3 v=0
412727 On ch=1 n=d5 v=0
412732 On ch=1 n=a3 v=0
412732 On ch=1 n=a5 v=0
412737 On ch=1 n=a2 v=0
412737 On ch=1 n=a4 v=0
412737 On ch=1 n=f#5 v=0
412777 On ch=1 n=a5 v=82
412777 On ch=1 n=f#5 v=67
412782 On ch=1 n=a4 v=76
412782 Par ch=1 c=64 v=24
412787 On ch=1 n=a3 v=76
412787 On ch=1 n=d5 v=70
412787 On ch=1 n=a2 v=56
412787 On ch=1 n=f#3 v=62
412787 On ch=1 n=d3 v=72
412792 Par ch=1 c=64 v=0
412817 On ch=1 n=f#3 v=0
412822 On ch=1 n=d3 v=0
412822 On ch=1 n=d5 v=0
412822 On ch=1 n=a3 v=0
412822 Par ch=1 c=64 v=40
412827 On ch=1 n=a4 v=0
412827 On ch=1 n=a5 v=0
412832 On ch=1 n=a2 v=0
412832 On ch=1 n=f#5 v=0
412832 Par ch=1 c=64 v=104
412837 Par ch=1 c=64 v=127
413022 Par ch=1 c=64 v=88
413027 On ch=1 n=d5 v=85
413027 On ch=1 n=d4 v=82
413027 On ch=1 n=f#4 v=69
413032 On ch=1 n=a4 v=67
413032 On ch=1 n=d3 v=70
413032 On ch=1 n=f#2 v=60
413032 On ch=1 n=a2 v=64
413032 Par ch=1 c=64 v=0
413037 On ch=1 n=d2 v=66
413082 On ch=1 n=d2 v=0
413082 On ch=1 n=a2 v=0
413082 On ch=1 n=d3 v=0
413087 On ch=1 n=a4 v=0
413087 Par ch=1 c=64 v=127
413092 On ch=1 n=f#2 v=0
413092 On ch=1 n=d4 v=0
413092 On ch=1 n=d5 v=0
413102 On ch=1 n=f#4 v=0
413132 Par ch=1 c=64 v=88
413142 Par ch=1 c=64 v=0
413152 On ch=1 n=d5 v=88
413152 On ch=1 n=d4 v=88
413152 On ch=1 n=f#4 v=80
413152 On ch=1 n=f#2 v=64
413157 On ch=1 n=a4 v=74
413157 On ch=1 n=d3 v=70
413157 On ch=1 n=a2 v=64
413162 On ch=1 n=d2 v=62
413187 Par ch=1 c=64 v=56
413197 Par ch=1 c=64 v=127
413202 On ch=1 n=a2 v=0
413212 On ch=1 n=d4 v=0
413217 On ch=1 n=a4 v=0
413217 On ch=1 n=f#2 v=0
413222 On ch=1 n=d2 v=0
413222 On ch=1 n=f#4 v=0
413232 On ch=1 n=d3 v=0
413232 On ch=1 n=d5 v=0
413307 Par ch=1 c=64 v=88
413317 Par ch=1 c=64 v=0
413352 On ch=1 n=a#2 v=72
413352 On ch=1 n=d5 v=84
413352 On ch=1 n=d4 v=85
413352 On ch=1 n=a#4 v=69
413357 On ch=1 n=g4 v=79
413357 On ch=1 n=d3 v=64
413362 On ch=1 n=d2 v=62
413392 Par ch=1 c=64 v=127
413412 On ch=1 n=g4 v=0
413412 On ch=1 n=a#2 v=0
413432 On ch=1 n=d2 v=0
413432 On ch=1 n=a#4 v=0
413432 On ch=1 n=d4 v=0
413437 On ch=1 n=d3 v=0
413437 On ch=1 n=d5 v=0
413502 Par ch=1 c=64 v=88
413512 Par ch=1 c=64 v=0
413537 On ch=1 n=d5 v=88
413537 On ch=1 n=d4 v=88
413537 On ch=1 n=f#4 v=73
413542 On ch=1 n=a2 v=76
413542 On ch=1 n=a4 v=76
413542 On ch=1 n=d3 v=70
413547 On ch=1 n=d2 v=68
413567 Par ch=1 c=64 v=104
413577 Par ch=1 c=64 v=127
413587 On ch=1 n=a2 v=0
413592 On ch=1 n=f#4 v=0
413602 On ch=1 n=a4 v=0
413602 On ch=1 n=d4 v=0
413607 On ch=1 n=d2 v=0
413617 On ch=1 n=d3 v=0
413617 On ch=1 n=d5 v=0
413687 Par ch=1 c=64 v=56
413692 Par ch=1 c=64 v=0
413727 On ch=1 n=a#4 v=67
413727 On ch=1 n=a#2 v=73
413727 On ch=1 n=d5 v=82
413727 On ch=1 n=d3 v=69
413732 On ch=1 n=d4 v=82
413732 On ch=1 n=g4 v=74
413737 On ch=1 n=d2 v=60
413742 Par ch=1 c=64 v=40
413752 Par ch=1 c=64 v=127
413772 On ch=1 n=a#2 v=0
413782 On ch=1 n=g4 v=0
413797 On ch=1 n=a#4 v=0
413807 On ch=1 n=d4 v=0
413812 On ch=1 n=d2 v=0
413812 On ch=1 n=d3 v=0
413832 On ch=1 n=d5 v=0
413917 On ch=1 n=d5 v=85
413917 On ch=1 n=d4 v=85
413917 On ch=1 n=a4 v=74
413917 On ch=1 n=a2 v=70
413917 Par ch=1 c=64 v=56
413922 On ch=1 n=f#4 v=70
413922 On ch=1 n=d3 v=63
413922 On ch=1 n=d2 v=64
413927 Par ch=1 c=64 v=0
413952 Par ch=1 c=64 v=88
413957 On ch=1 n=a2 v=0
413962 Par ch=1 c=64 v=127
413967 On ch=1 n=f#4 v=0
413967 On ch=1 n=d4 v=0
413972 On ch=1 n=a4 v=0
413982 On ch=1 n=d2 v=0
413987 On ch=1 n=d3 v=0
413997 On ch=1 n=d5 v=0
414052 Par ch=1 c=64 v=104
414062 Par ch=1 c=64 v=24
414072 Par ch=1 c=64 v=0
414107 On ch=1 n=a#4 v=65
414107 Par ch=1 c=64 v=72
414112 On ch=1 n=d5 v=80
414112 On ch=1 n=d4 v=79
414112 On ch=1 n=g4 v=72
414112 On ch=1 n=a#2 v=73
414117 On ch=1 n=d3 v=66
414117 Par ch=1 c=64 v=127
414122 On ch=1 n=d2 v=66
414162 On ch=1 n=a#2 v=0
414167 On ch=1 n=g4 v=0
414177 On ch=1 n=a#4 v=0
414187 On ch=1 n=d3 v=0
414187 On ch=1 n=d4 v=0
414192 On ch=1 n=d2 v=0
414197 On ch=1 n=d5 v=0
414282 Par ch=1 c=64 v=104
414292 Par ch=1 c=64 v=24
414302 On ch=1 n=d5 v=84
414302 On ch=1 n=d4 v=83
414302 On ch=1 n=f#4 v=71
414302 On ch=1 n=a4 v=71
414302 Par ch=1 c=64 v=0
414307 On ch=1 n=a2 v=68
414312 On ch=1 n=d3 v=60
414312 On ch=1 n=d2 v=66
414327 Par ch=1 c=64 v=40
414337 Par ch=1 c=64 v=104
414347 Par ch=1 c=64 v=127
414352 On ch=1 n=a2 v=0
414357 On ch=1 n=f#4 v=0
414362 On ch=1 n=a4 v=0
414362 On ch=1 n=d4 v=0
414372 On ch=1 n=d3 v=0
414377 On ch=1 n=d2 v=0
414382 On ch=1 n=d5 v=0
414447 Par ch=1 c=64 v=104
414457 Par ch=1 c=64 v=24
414467 Par ch=1 c=64 v=0
414492 On ch=1 n=a#4 v=65
414492 On ch=1 n=d5 v=82
414497 On ch=1 n=d4 v=80
414497 On ch=1 n=a#2 v=69
414497 On ch=1 n=g4 v=74
414502 On ch=1 n=d3 v=66
414507 On ch=1 n=d2 v=63
414512 Par ch=1 c=64 v=72
414522 Par ch=1 c=64 v=127
414547 On ch=1 n=a#2 v=0
414552 On ch=1 n=g4 v=0
414562 On ch=1 n=a#4 v=0
414567 On ch=1 n=d2 v=0
414572 On ch=1 n=d3 v=0
414572 On ch=1 n=d4 v=0
414587 On ch=1 n=d5 v=0
414697 Par ch=1 c=64 v=72
414707 On ch=1 n=d5 v=89
414707 Par ch=1 c=64 v=0
414712 On ch=1 n=f#4 v=73
414712 On ch=1 n=d4 v=85
414712 On ch=1 n=a4 v=73
414722 On ch=1 n=d3 v=66
414727 On ch=1 n=a2 v=69
414727 On ch=1 n=d2 v=68
414762 Par ch=1 c=64 v=127
414782 On ch=1 n=d4 v=0
414802 On ch=1 n=d2 v=0
414802 On ch=1 n=f#4 v=0
414807 On ch=1 n=a4 v=0
414812 On ch=1 n=a2 v=0
414817 On ch=1 n=d3 v=0
414822 Par ch=1 c=64 v=104
414827 Par ch=1 c=64 v=88
414837 On ch=1 n=d5 v=0
414842 Par ch=1 c=64 v=72
414852 Par ch=1 c=64 v=56
414857 Par ch=1 c=64 v=24
414862 Par ch=1 c=64 v=0
414897 On ch=1 n=a#4 v=67
414897 On ch=1 n=d5 v=83
414897 On ch=1 n=a#2 v=61
414897 On ch=1 n=d4 v=76
414902 On ch=1 n=g4 v=75
414907 On ch=1 n=d3 v=61
414907 On ch=1 n=d2 v=56
414942 Par ch=1 c=64 v=24
414947 Par ch=1 c=64 v=56
414957 Par ch=1 c=64 v=88
414962 On ch=1 n=g4 v=0
414962 Par ch=1 c=64 v=104
414967 On ch=1 n=a#2 v=0
414972 Par ch=1 c=64 v=127
414977 On ch=1 n=a#4 v=0
414982 On ch=1 n=d2 v=0
414987 On ch=1 n=d3 v=0
414997 On ch=1 n=d4 v=0
415022 On ch=1 n=d5 v=0
415047 Par ch=1 c=64 v=104
415062 Par ch=1 c=64 v=88
415072 Par ch=1 c=64 v=56
415077 Par ch=1 c=64 v=0
415097 On ch=1 n=d5 v=86
415097 On ch=1 n=f#4 v=71
415097 On ch=1 n=a4 v=76
415102 On ch=1 n=d4 v=82
415102 On ch=1 n=a2 v=63
415107 On ch=1 n=d2 v=62
415107 On ch=1 n=d3 v=53
415132 Par ch=1 c=64 v=24
415142 Par ch=1 c=64 v=56
415147 On ch=1 n=a4 v=0
415147 On ch=1 n=f#4 v=0
415147 Par ch=1 c=64 v=88
415152 On ch=1 n=a2 v=0
415157 Par ch=1 c=64 v=104
415162 On ch=1 n=d4 v=0
415162 Par ch=1 c=64 v=127
415177 On ch=1 n=d2 v=0
415187 On ch=1 n=d3 v=0
415207 On ch=1 n=d5 v=0
415227 Par ch=1 c=64 v=104
415242 Par ch=1 c=64 v=88
415257 Par ch=1 c=64 v=72
415262 Par ch=1 c=64 v=56
415267 Par ch=1 c=64 v=24
415277 Par ch=1 c=64 v=0
415297 On ch=1 n=d5 v=87
415297 On ch=1 n=a#4 v=69
415297 On ch=1 n=d4 v=85
415302 On ch=1 n=g4 v=80
415302 On ch=1 n=a#2 v=69
415302 On ch=1 n=d3 v=64
415307 On ch=1 n=d2 v=62
415337 On ch=1 n=a#2 v=0
415342 Par ch=1 c=64 v=24
415347 On ch=1 n=d3 v=0
415347 Par ch=1 c=64 v=88
415352 On ch=1 n=d2 v=0
415352 Par ch=1 c=64 v=127
415357 On ch=1 n=g4 v=0
415367 On ch=1 n=d4 v=0
415372 On ch=1 n=a#4 v=0
415372 On ch=1 n=d5 v=0
415467 Par ch=1 c=64 v=88
415477 Par ch=1 c=64 v=72
415482 Par ch=1 c=64 v=40
415487 Par ch=1 c=64 v=0
415522 On ch=1 n=d5 v=94
415527 On ch=1 n=d4 v=89
415527 On ch=1 n=a4 v=81
415527 On ch=1 n=f#4 v=78
415532 On ch=1 n=a2 v=71
415532 On ch=1 n=d3 v=70
415532 On ch=1 n=d2 v=67
415582 On ch=1 n=d4 v=0
415582 Par ch=1 c=64 v=127
415592 On ch=1 n=d2 v=0
415597 On ch=1 n=f#4 v=0
415607 On ch=1 n=a2 v=0
415607 On ch=1 n=a4 v=0
415617 On ch=1 n=d3 v=0
415632 On ch=1 n=d5 v=0
415922 Par ch=1 c=64 v=88
415927 On ch=1 n=d6 v=96
415927 On ch=1 n=d5 v=85
415927 On ch=1 n=a5 v=83
415927 On ch=1 n=f#5 v=71
415932 Par ch=1 c=64 v=24
415937 On ch=1 n=d4 v=73
415937 On ch=1 n=a3 v=67
415937 On ch=1 n=f#3 v=58
415937 Par ch=1 c=64 v=0
415942 On ch=1 n=d3 v=65
415972 Par ch=1 c=64 v=56
415977 On ch=1 n=d3 v=0
415977 On ch=1 n=d5 v=0
415982 On ch=1 n=a3 v=0
415982 Par ch=1 c=64 v=127
415987 On ch=1 n=f#3 v=0
415987 On ch=1 n=d4 v=0
415987 On ch=1 n=f#5 v=0
415992 On ch=1 n=a5 v=0
416017 On ch=1 n=d6 v=0
416317 On ch=1 n=d7 v=99
416317 On ch=1 n=d6 v=90
416317 On ch=1 n=a6 v=84
416322 On ch=1 n=f#6 v=78
416322 On ch=1 n=d5 v=68
416322 On ch=1 n=f#4 v=55
416322 On ch=1 n=d4 v=69
416322 Par ch=1 c=64 v=56
416327 On ch=1 n=a4 v=63
416327 Par ch=1 c=64 v=0
416347 Par ch=1 c=64 v=72
416357 On ch=1 n=d4 v=0
416357 Par ch=1 c=64 v=127
416372 On ch=1 n=a4 v=0
416372 On ch=1 n=d6 v=0
416377 On ch=1 n=f#4 v=0
416377 On ch=1 n=d5 v=0
416377 On ch=1 n=f#6 v=0
416382 On ch=1 n=a6 v=0
416402 On ch=1 n=d7 v=0
416747 On ch=1 n=d8 v=102
416752 On ch=1 n=d7 v=88
416752 On ch=1 n=f#5 v=58
416752 On ch=1 n=a7 v=97
416752 On ch=1 n=f#7 v=78
416752 On ch=1 n=d6 v=80
416752 Par ch=1 c=64 v=88
416757 On ch=1 n=a5 v=71
416757 On ch=1 n=d5 v=72
416762 Par ch=1 c=64 v=0
416797 On ch=1 n=d5 v=0
416797 Par ch=1 c=64 v=56
416802 Par ch=1 c=64 v=127
416807 On ch=1 n=a5 v=0
416807 On ch=1 n=d6 v=0
416812 On ch=1 n=f#5 v=0
416832 On ch=1 n=a7 v=0
416832 On ch=1 n=d8 v=0
416847 On ch=1 n=f#7 v=0
416847 On ch=1 n=d7 v=0
417257 On ch=1 n=d5 v=97
417262 On ch=1 n=d4 v=94
417267 On ch=1 n=d3 v=81
417267 On ch=1 n=d2 v=74
417312 Par ch=1 c=64 v=88
417322 Par ch=1 c=64 v=0
417497 Par ch=1 c=64 v=40
417507 Par ch=1 c=64 v=56
417512 Par ch=1 c=64 v=88
417522 Par ch=1 c=64 v=127
417617 Par ch=1 c=64 v=72
417627 Par ch=1 c=64 v=0
417662 Par ch=1 c=64 v=56
417667 Par ch=1 c=64 v=127
417832 Par ch=1 c=64 v=72
417837 Par ch=1 c=64 v=0
418117 On ch=1 n=d2 v=0
418122 On ch=1 n=d3 v=0
418122 On ch=1 n=d4 v=0
418127 On ch=1 n=d5 v=0
474247 Par ch=1 c=64 v=72
474262 Par ch=1 c=64 v=24
474272 Par ch=1 c=64 v=0
474272 Meta TrkEnd
TrkEnd
MTrk
0 SeqSpec 43 00 01 00
0 KeySig 0 major
0 Meta TrkEnd
TrkEnd
MTrk
0 SeqSpec 43 00 01 00
0 KeySig 0 major
0 Meta TrkEnd
TrkEnd
MTrk
0 SeqSpec 43 00 01 00
0 KeySig 0 major
0 Meta TrkEnd
TrkEnd
MTrk
0 SeqSpec 43 00 01 00
0 KeySig 0 major
0 Meta TrkEnd
TrkEnd
MTrk
0 SeqSpec 43 00 01 00
0 KeySig 0 major
0 Meta TrkEnd
TrkEnd
MTrk
0 SeqSpec 43 00 01 00
0 KeySig 0 major
0 Meta TrkEnd
TrkEnd
MTrk
0 SeqSpec 43 00 01 00
0 KeySig 0 major
0 Meta TrkEnd
TrkEnd
MTrk
0 SeqSpec 43 00 01 00
0 KeySig 0 major
0 Meta TrkEnd
TrkEnd
MTrk
0 SeqSpec 43 00 01 00
0 KeySig 0 major
0 Meta TrkEnd
TrkEnd
