MFile 1 11 480
MTrk
0 TimeSig 2/4 96 8
0 Tempo 397350
20060 Tempo 428571
28140 Tempo 465116
66855 Tempo 428571
77805 Tempo 397350
79585 Tempo 428571
82060 Tempo 397350
93960 Tempo 397350
121000 Tempo 428571
139530 Tempo 444444
142600 Tempo 461538
148065 Tempo 461538
153485 Tempo 480000
161435 Tempo 500000
164815 Tempo 545454
170825 Tempo 600000
176360 Tempo 631578
180140 Tempo 666666
184590 Tempo 631578
197370 Tempo 631578
209985 Tempo 666666
209985 Meta TrkEnd
TrkEnd
MTrk
0 SeqSpec 43 00 01 00
0 KeySig -2 minor
55 Par ch=1 c=64 v=24
135 Par ch=1 c=64 v=0
265 Par ch=1 c=64 v=24
370 Par ch=1 c=64 v=0
765 Par ch=1 c=64 v=24
775 Par ch=1 c=64 v=40
795 On ch=1 n=f5 v=31
825 Par ch=1 c=64 v=56
880 On ch=1 n=f5 v=0
910 On ch=1 n=f#5 v=30
950 On ch=1 n=f#5 v=0
1030 On ch=1 n=f5 v=31
1085 On ch=1 n=f5 v=0
1135 On ch=1 n=g5 v=42
1205 Par ch=1 c=64 v=72
1220 On ch=1 n=g5 v=0
1250 On ch=1 n=g#5 v=44
1315 On ch=1 n=g#5 v=0
1365 On ch=1 n=a5 v=43
1425 On ch=1 n=a5 v=0
1475 On ch=1 n=g#5 v=44
1560 On ch=1 n=g#5 v=0
1590 On ch=1 n=a#5 v=56
1650 On ch=1 n=a#5 v=0
1705 On ch=1 n=b5 v=44
1730 Par ch=1 c=64 v=24
1740 Par ch=1 c=64 v=0
1790 On ch=1 n=b5 v=0
1825 On ch=1 n=c6 v=41
1845 Par ch=1 c=64 v=24
1855 Par ch=1 c=64 v=40
1870 On ch=1 n=c6 v=0
1905 Par ch=1 c=64 v=56
1930 On ch=1 n=b5 v=48
1995 On ch=1 n=b5 v=0
2040 On ch=1 n=c#6 v=48
2105 On ch=1 n=c#6 v=0
2155 On ch=1 n=d6 v=57
2180 Par ch=1 c=64 v=24
2195 Par ch=1 c=64 v=0
2250 On ch=1 n=d6 v=0
2265 On ch=1 n=d#6 v=56
2275 Par ch=1 c=64 v=24
2285 Par ch=1 c=64 v=40
2310 Par ch=1 c=64 v=56
2330 On ch=1 n=d#6 v=0
2385 On ch=1 n=d6 v=58
2390 Par ch=1 c=64 v=72
2450 Par ch=1 c=64 v=88
2460 On ch=1 n=d6 v=0
2500 On ch=1 n=e6 v=50
2530 Par ch=1 c=64 v=104
2560 On ch=1 n=e6 v=0
2575 Par ch=1 c=64 v=127
2610 Par ch=1 c=64 v=88
2620 On ch=1 n=f6 v=61
2625 Par ch=1 c=64 v=56
2635 Par ch=1 c=64 v=24
2650 Par ch=1 c=64 v=0
2695 Par ch=1 c=64 v=24
2705 Par ch=1 c=64 v=40
2715 On ch=1 n=f6 v=0
2715 Par ch=1 c=64 v=56
2730 On ch=1 n=f#6 v=53
2730 Par ch=1 c=64 v=72
2740 Par ch=1 c=64 v=88
2785 Par ch=1 c=64 v=104
2795 On ch=1 n=f#6 v=0
2840 On ch=1 n=f6 v=58
2890 Par ch=1 c=64 v=127
2910 On ch=1 n=f6 v=0
2940 Par ch=1 c=64 v=72
2950 Par ch=1 c=64 v=0
2955 On ch=1 n=g6 v=66
3040 On ch=1 n=f4 v=50
3040 Par ch=1 c=64 v=40
3055 Par ch=1 c=64 v=88
3060 On ch=1 n=f4 v=0
3065 Par ch=1 c=64 v=104
3070 On ch=1 n=b4 v=40
3075 Par ch=1 c=64 v=127
3090 On ch=1 n=g6 v=0
3105 On ch=1 n=d5 v=51
3125 On ch=1 n=g#6 v=56
3150 On ch=1 n=g#5 v=65
3190 On ch=1 n=g#6 v=0
3205 Par ch=1 c=67 v=127
3230 On ch=1 n=a6 v=48
3310 On ch=1 n=a6 v=0
3330 Par ch=1 c=64 v=104
3350 On ch=1 n=g#6 v=53
3440 On ch=1 n=g#6 v=0
3465 On ch=1 n=a#6 v=54
3525 On ch=1 n=a#6 v=0
3580 On ch=1 n=b6 v=60
3665 On ch=1 n=b6 v=0
3700 On ch=1 n=c7 v=62
3750 On ch=1 n=c7 v=0
3810 On ch=1 n=b6 v=65
3890 On ch=1 n=b6 v=0
3920 On ch=1 n=c#7 v=59
3940 On ch=1 n=d5 v=0
3970 On ch=1 n=b4 v=0
4040 On ch=1 n=c#7 v=0
4070 On ch=1 n=c7 v=54
4085 On ch=1 n=d#5 v=40
4100 On ch=1 n=c5 v=37
4100 Par ch=1 c=64 v=72
4110 Par ch=1 c=64 v=24
4120 Par ch=1 c=64 v=0
4165 On ch=1 n=c7 v=0
4185 On ch=1 n=c#7 v=51
4240 Par ch=1 c=64 v=40
4250 Par ch=1 c=64 v=72
4260 On ch=1 n=c#7 v=0
4265 Par ch=1 c=64 v=88
4275 Par ch=1 c=64 v=104
4285 Par ch=1 c=64 v=127
4295 On ch=1 n=c7 v=62
4370 On ch=1 n=c7 v=0
4420 On ch=1 n=d7 v=68
4520 On ch=1 n=d7 v=0
4520 On ch=1 n=g#5 v=0
4540 On ch=1 n=d#7 v=64
4550 On ch=1 n=g5 v=49
4610 Par ch=1 c=64 v=88
4620 Par ch=1 c=64 v=40
4635 Par ch=1 c=64 v=0
4640 On ch=1 n=d#7 v=0
4640 On ch=1 n=d#5 v=0
4660 On ch=1 n=f7 v=64
4705 Par ch=1 c=64 v=40
4715 Par ch=1 c=64 v=56
4725 Par ch=1 c=64 v=88
4730 On ch=1 n=f7 v=0
4750 Par ch=1 c=64 v=104
4760 Par ch=1 c=64 v=127
4765 On ch=1 n=d#7 v=57
4805 On ch=1 n=c5 v=0
4855 On ch=1 n=d#7 v=0
4880 On ch=1 n=f#7 v=59
4925 On ch=1 n=f#7 v=0
4975 On ch=1 n=g7 v=64
4995 On ch=1 n=d#5 v=44
5035 On ch=1 n=g5 v=0
5070 On ch=1 n=g7 v=0
5095 On ch=1 n=g#7 v=65
5175 On ch=1 n=g#7 v=0
5205 On ch=1 n=g7 v=71
5295 On ch=1 n=g7 v=0
5320 On ch=1 n=b7 v=64
5355 On ch=1 n=b7 v=0
5420 On ch=1 n=c8 v=70
5430 On ch=1 n=c5 v=47
5435 On ch=1 n=d#5 v=0
5520 On ch=1 n=c8 v=0
5530 On ch=1 n=c#8 v=69
5600 On ch=1 n=c#8 v=0
5635 On ch=1 n=c8 v=78
5720 On ch=1 n=c8 v=0
5745 On ch=1 n=d8 v=80
5850 On ch=1 n=d8 v=0
5860 On ch=1 n=d#8 v=84
5960 On ch=1 n=d#8 v=0
5975 On ch=1 n=d8 v=77
6060 On ch=1 n=d8 v=0
6080 On ch=1 n=d#8 v=74
6150 On ch=1 n=c5 v=0
6170 On ch=1 n=d#8 v=0
6195 On ch=1 n=c#8 v=69
6290 On ch=1 n=c#8 v=0
6310 On ch=1 n=c8 v=70
6330 Par ch=1 c=64 v=88
6340 Par ch=1 c=64 v=72
6375 Par ch=1 c=64 v=104
6390 On ch=1 n=c8 v=0
6400 Par ch=1 c=64 v=127
6420 On ch=1 n=b7 v=66
6495 On ch=1 n=b7 v=0
6530 On ch=1 n=c8 v=60
6600 On ch=1 n=c8 v=0
6645 On ch=1 n=a#7 v=49
6730 On ch=1 n=a#7 v=0
6755 On ch=1 n=a7 v=68
6825 On ch=1 n=a7 v=0
6855 On ch=1 n=g#7 v=62
6940 On ch=1 n=g#7 v=0
6975 On ch=1 n=a7 v=59
7045 On ch=1 n=a7 v=0
7075 On ch=1 n=g7 v=65
7140 On ch=1 n=g7 v=0
7185 On ch=1 n=f#7 v=57
7260 On ch=1 n=f#7 v=0
7300 On ch=1 n=f7 v=60
7375 On ch=1 n=f7 v=0
7405 On ch=1 n=f#7 v=52
7490 On ch=1 n=f#7 v=0
7520 On ch=1 n=e7 v=59
7600 On ch=1 n=e7 v=0
7625 On ch=1 n=d#7 v=53
7715 On ch=1 n=d#7 v=0
7740 On ch=1 n=d7 v=66
7815 On ch=1 n=d7 v=0
7850 On ch=1 n=d#7 v=52
7940 On ch=1 n=d#7 v=0
7960 On ch=1 n=c#7 v=56
8045 On ch=1 n=c#7 v=0
8070 On ch=1 n=c7 v=63
8145 On ch=1 n=c7 v=0
8185 On ch=1 n=b6 v=60
8250 On ch=1 n=b6 v=0
8295 On ch=1 n=c7 v=59
8340 Par ch=1 c=64 v=88
8350 Par ch=1 c=64 v=40
8360 Par ch=1 c=64 v=0
8380 On ch=1 n=c7 v=0
8400 On ch=1 n=a#6 v=60
8405 On ch=1 n=f4 v=42
8445 On ch=1 n=a4 v=41
8445 Par ch=1 c=64 v=56
8455 Par ch=1 c=64 v=104
8470 Par ch=1 c=64 v=127
8485 On ch=1 n=c5 v=45
8525 On ch=1 n=d#5 v=44
8530 On ch=1 n=f4 v=0
8530 On ch=1 n=a#6 v=0
8545 On ch=1 n=c5 v=0
8550 On ch=1 n=a6 v=68
8570 On ch=1 n=f#5 v=61
8635 On ch=1 n=a6 v=0
8665 Par ch=1 c=67 v=0
8670 On ch=1 n=g#6 v=62
8685 On ch=1 n=a4 v=0
8755 On ch=1 n=g#6 v=0
8780 On ch=1 n=a6 v=58
8860 On ch=1 n=a6 v=0
8905 On ch=1 n=g6 v=56
8960 On ch=1 n=g6 v=0
9005 On ch=1 n=f#6 v=55
9080 On ch=1 n=f#6 v=0
9120 On ch=1 n=f6 v=56
9185 On ch=1 n=f6 v=0
9225 On ch=1 n=f#6 v=50
9255 On ch=1 n=d#5 v=0
9305 On ch=1 n=f#6 v=0
9335 On ch=1 n=d#6 v=47
9410 On ch=1 n=a#4 v=38
9465 Par ch=1 c=64 v=88
9475 On ch=1 n=d5 v=44
9480 Par ch=1 c=64 v=56
9485 On ch=1 n=d#6 v=0
9490 Par ch=1 c=64 v=40
9500 Par ch=1 c=64 v=0
9510 On ch=1 n=d6 v=50
9600 On ch=1 n=d6 v=0
9605 Par ch=1 c=64 v=40
9615 On ch=1 n=c#6 v=50
9620 Par ch=1 c=64 v=72
9630 Par ch=1 c=64 v=104
9640 Par ch=1 c=64 v=127
9695 On ch=1 n=c#6 v=0
9735 On ch=1 n=d6 v=56
9785 On ch=1 n=f#5 v=0
9800 On ch=1 n=d6 v=0
9845 On ch=1 n=c6 v=61
9920 On ch=1 n=c6 v=0
9960 On ch=1 n=d5 v=0
9965 On ch=1 n=a#5 v=46
9965 On ch=1 n=f5 v=52
9965 Par ch=1 c=64 v=104
9975 Par ch=1 c=64 v=56
9990 Par ch=1 c=64 v=24
10000 Par ch=1 c=64 v=0
10050 On ch=1 n=a#5 v=0
10060 Par ch=1 c=64 v=24
10070 Par ch=1 c=64 v=56
10080 On ch=1 n=a5 v=57
10085 Par ch=1 c=64 v=88
10105 Par ch=1 c=64 v=104
10120 Par ch=1 c=64 v=127
10155 On ch=1 n=a5 v=0
10185 On ch=1 n=a#5 v=45
10275 On ch=1 n=a#5 v=0
10310 On ch=1 n=g#5 v=42
10385 On ch=1 n=f5 v=0
10400 On ch=1 n=g#5 v=0
10435 On ch=1 n=c#5 v=45
10435 On ch=1 n=g5 v=48
10445 Par ch=1 c=64 v=104
10450 Par ch=1 c=64 v=72
10460 On ch=1 n=a#4 v=0
10465 Par ch=1 c=64 v=24
10475 Par ch=1 c=64 v=0
10515 On ch=1 n=f4 v=1
10525 On ch=1 n=g5 v=0
10550 On ch=1 n=f#5 v=43
10570 Par ch=1 c=64 v=40
10580 Par ch=1 c=64 v=56
10595 Par ch=1 c=64 v=72
10605 Par ch=1 c=64 v=88
10635 On ch=1 n=f#5 v=0
10655 Par ch=1 c=64 v=104
10675 On ch=1 n=g5 v=45
10730 On ch=1 n=g5 v=0
10780 Par ch=1 c=64 v=127
10785 On ch=1 n=f5 v=46
10855 On ch=1 n=f5 v=0
10910 On ch=1 n=c#5 v=0
10910 On ch=1 n=a#4 v=32
10915 On ch=1 n=c#6 v=54
10930 Par ch=1 c=64 v=104
10945 Par ch=1 c=64 v=72
10955 Par ch=1 c=64 v=40
10965 Par ch=1 c=64 v=0
11025 On ch=1 n=c#6 v=0
11035 On ch=1 n=a#5 v=54
11070 Par ch=1 c=64 v=56
11080 Par ch=1 c=64 v=88
11095 Par ch=1 c=64 v=127
11125 On ch=1 n=a#5 v=0
11155 On ch=1 n=f4 v=0
11160 On ch=1 n=g5 v=53
11185 On ch=1 n=a#4 v=0
11235 On ch=1 n=g5 v=0
11270 Par ch=1 c=67 v=127
11280 On ch=1 n=f5 v=46
11345 On ch=1 n=f4 v=31
11360 On ch=1 n=f5 v=0
11390 On ch=1 n=g4 v=34
11395 Par ch=1 c=64 v=104
11405 Par ch=1 c=64 v=88
11430 Par ch=1 c=64 v=56
11440 On ch=1 n=a#4 v=29
11445 Par ch=1 c=64 v=40
11455 Par ch=1 c=64 v=24
11465 Par ch=1 c=64 v=0
11485 On ch=1 n=e5 v=54
11495 On ch=1 n=c#5 v=32
11700 On ch=1 n=f4 v=0
11725 On ch=1 n=g4 v=0
11730 On ch=1 n=e5 v=0
11750 On ch=1 n=a#4 v=0
11760 On ch=1 n=c#5 v=0
12080 On ch=1 n=c#8 v=67
12105 On ch=1 n=e7 v=40
12130 On ch=1 n=e7 v=0
12155 On ch=1 n=c#8 v=0
12210 On ch=1 n=a#7 v=54
12285 On ch=1 n=a#7 v=0
12335 On ch=1 n=c7 v=50
12340 On ch=1 n=a6 v=45
12340 On ch=1 n=f#7 v=45
12355 On ch=1 n=c7 v=0
12360 On ch=1 n=a6 v=0
12400 On ch=1 n=f#7 v=0
12440 On ch=1 n=d#7 v=55
12490 On ch=1 n=d#7 v=0
12575 On ch=1 n=c#7 v=47
12580 On ch=1 n=g7 v=66
12580 On ch=1 n=a#6 v=42
12600 On ch=1 n=a#6 v=0
12600 On ch=1 n=c#7 v=0
12625 On ch=1 n=g7 v=0
12685 On ch=1 n=e7 v=57
12740 On ch=1 n=e7 v=0
12805 On ch=1 n=f#6 v=53
12810 On ch=1 n=d#6 v=48
12815 On ch=1 n=c7 v=52
12835 On ch=1 n=d#6 v=0
12835 On ch=1 n=f#6 v=0
12855 On ch=1 n=c7 v=0
12925 On ch=1 n=a6 v=44
12970 On ch=1 n=a6 v=0
13025 On ch=1 n=c#7 v=57
13035 On ch=1 n=g6 v=43
13040 On ch=1 n=e6 v=41
13065 On ch=1 n=e6 v=0
13065 On ch=1 n=g6 v=0
13095 On ch=1 n=c#7 v=0
13135 On ch=1 n=a#6 v=50
13200 On ch=1 n=a#6 v=0
13265 On ch=1 n=f#6 v=50
13265 On ch=1 n=c6 v=53
13285 On ch=1 n=c6 v=0
13330 On ch=1 n=f#6 v=0
13375 On ch=1 n=d#6 v=44
13400 On ch=1 n=d#6 v=0
13505 On ch=1 n=g6 v=56
13505 On ch=1 n=c#6 v=43
13510 On ch=1 n=a#5 v=43
13530 On ch=1 n=a#5 v=0
13540 On ch=1 n=c#6 v=0
13540 On ch=1 n=g6 v=0
13615 On ch=1 n=e6 v=59
13675 On ch=1 n=e6 v=0
13725 On ch=1 n=f#5 v=46
13730 On ch=1 n=d#5 v=39
13750 On ch=1 n=c6 v=53
13760 On ch=1 n=d#5 v=0
13760 On ch=1 n=f#5 v=0
13780 On ch=1 n=c6 v=0
13855 On ch=1 n=a5 v=37
13920 On ch=1 n=a5 v=0
13965 On ch=1 n=c#6 v=49
13965 On ch=1 n=e5 v=52
13970 On ch=1 n=g5 v=42
13995 On ch=1 n=e5 v=0
14000 On ch=1 n=g5 v=0
14035 On ch=1 n=c#6 v=0
14085 On ch=1 n=a#5 v=45
14155 On ch=1 n=a#5 v=0
14205 On ch=1 n=c5 v=45
14210 On ch=1 n=a4 v=39
14215 On ch=1 n=f#5 v=50
14250 On ch=1 n=a4 v=0
14255 On ch=1 n=c5 v=0
14285 On ch=1 n=f#5 v=0
14315 On ch=1 n=d#5 v=48
14365 On ch=1 n=d#5 v=0
14465 On ch=1 n=g5 v=47
14485 On ch=1 n=e5 v=42
14485 On ch=1 n=c#5 v=30
14485 On ch=1 n=a#4 v=27
14560 On ch=1 n=e5 v=0
14560 Par ch=1 c=64 v=56
14575 Par ch=1 c=64 v=88
14580 On ch=1 n=g5 v=0
14585 Par ch=1 c=64 v=127
14595 On ch=1 n=c#5 v=0
14600 On ch=1 n=a#4 v=0
14945 Par ch=1 c=64 v=88
14955 Par ch=1 c=64 v=40
14965 On ch=1 n=f3 v=52
14965 Par ch=1 c=64 v=0
14990 On ch=1 n=f3 v=0
15000 Par ch=1 c=64 v=40
15015 Par ch=1 c=64 v=88
15025 Par ch=1 c=64 v=127
15230 On ch=1 n=c#7 v=61
15250 On ch=1 n=c#6 v=26
15260 On ch=1 n=c#5 v=25
15260 On ch=1 n=f4 v=28
15260 On ch=1 n=g5 v=18
15260 On ch=1 n=e6 v=35
15290 On ch=1 n=e6 v=0
15300 On ch=1 n=c#7 v=0
15305 On ch=1 n=c#6 v=0
15315 On ch=1 n=c#5 v=0
15320 On ch=1 n=f4 v=0
15330 On ch=1 n=g5 v=0
15465 On ch=1 n=c7 v=76
15475 On ch=1 n=g5 v=39
15480 On ch=1 n=c#5 v=35
15480 On ch=1 n=c#6 v=32
15480 On ch=1 n=a#4 v=25
15490 On ch=1 n=e6 v=42
15520 On ch=1 n=e6 v=0
15525 On ch=1 n=c7 v=0
15530 On ch=1 n=g5 v=0
15535 On ch=1 n=c#5 v=0
15540 On ch=1 n=a#4 v=0
15555 On ch=1 n=c#6 v=0
15700 On ch=1 n=b6 v=76
15705 On ch=1 n=c#6 v=42
15705 On ch=1 n=a#4 v=25
15710 On ch=1 n=g5 v=30
15710 On ch=1 n=c#5 v=36
15755 On ch=1 n=g5 v=0
15760 On ch=1 n=c#5 v=0
15765 On ch=1 n=a#4 v=0
15770 On ch=1 n=b6 v=0
15775 On ch=1 n=c#6 v=0
15945 On ch=1 n=a#4 v=25
15950 On ch=1 n=a#6 v=51
15950 On ch=1 n=g5 v=36
15950 On ch=1 n=c#5 v=38
15950 On ch=1 n=c#6 v=34
15965 On ch=1 n=e6 v=43
15990 On ch=1 n=e6 v=0
16000 On ch=1 n=c#6 v=0
16000 On ch=1 n=g5 v=0
16005 On ch=1 n=c#5 v=0
16005 On ch=1 n=a#4 v=0
16025 On ch=1 n=a#6 v=0
16180 On ch=1 n=c#7 v=64
16195 On ch=1 n=g5 v=42
16195 On ch=1 n=c#6 v=28
16200 On ch=1 n=a#4 v=25
16200 On ch=1 n=c#5 v=34
16200 On ch=1 n=e6 v=49
16230 On ch=1 n=e6 v=0
16240 On ch=1 n=c#6 v=0
16245 On ch=1 n=c#5 v=0
16245 On ch=1 n=g5 v=0
16250 On ch=1 n=a#4 v=0
16260 On ch=1 n=c#7 v=0
16415 On ch=1 n=c7 v=66
16420 On ch=1 n=c#6 v=36
16430 On ch=1 n=g5 v=40
16435 On ch=1 n=a#4 v=25
16435 On ch=1 n=c#5 v=31
16485 On ch=1 n=c7 v=0
16500 On ch=1 n=c#6 v=0
16525 On ch=1 n=b6 v=68
16600 On ch=1 n=b6 v=0
16640 On ch=1 n=a#6 v=53
16710 On ch=1 n=a#6 v=0
16725 On ch=1 n=g5 v=0
16735 On ch=1 n=a#4 v=0
16740 On ch=1 n=c#5 v=0
16965 Par ch=1 c=64 v=88
16975 Par ch=1 c=64 v=56
16990 Par ch=1 c=64 v=24
17000 Par ch=1 c=64 v=0
17165 On ch=1 n=d#8 v=55
17175 On ch=1 n=a7 v=55
17180 On ch=1 n=f#7 v=42
17200 On ch=1 n=f#7 v=0
17200 On ch=1 n=a7 v=0
17220 On ch=1 n=d#8 v=0
17295 On ch=1 n=c8 v=52
17325 On ch=1 n=c8 v=0
17405 On ch=1 n=g#7 v=54
17415 On ch=1 n=d7 v=42
17420 On ch=1 n=b6 v=34
17445 On ch=1 n=d7 v=0
17455 On ch=1 n=b6 v=0
17465 On ch=1 n=g#7 v=0
17530 On ch=1 n=f7 v=47
17560 On ch=1 n=f7 v=0
17645 On ch=1 n=d#7 v=44
17655 On ch=1 n=c7 v=57
17655 On ch=1 n=a7 v=54
17675 On ch=1 n=c7 v=0
17690 On ch=1 n=a7 v=0
17690 On ch=1 n=d#7 v=0
17760 On ch=1 n=f#7 v=48
17830 On ch=1 n=f#7 v=0
17885 On ch=1 n=f6 v=47
17890 On ch=1 n=g#6 v=37
17890 On ch=1 n=d7 v=47
17915 On ch=1 n=g#6 v=0
17915 On ch=1 n=f6 v=0
17925 On ch=1 n=d7 v=0
18010 On ch=1 n=b6 v=33
18050 On ch=1 n=b6 v=0
18110 On ch=1 n=f#6 v=54
18125 On ch=1 n=a6 v=40
18130 On ch=1 n=d7 v=41
18145 On ch=1 n=f#6 v=0
18150 On ch=1 n=a6 v=0
18155 On ch=1 n=d7 v=0
18230 On ch=1 n=c7 v=55
18285 On ch=1 n=c7 v=0
18350 On ch=1 n=g#6 v=56
18350 On ch=1 n=b5 v=33
18350 On ch=1 n=d6 v=42
18385 On ch=1 n=d6 v=0
18385 On ch=1 n=b5 v=0
18415 On ch=1 n=g#6 v=0
18480 On ch=1 n=f6 v=38
18510 On ch=1 n=f6 v=0
18575 On ch=1 n=d#6 v=50
18580 On ch=1 n=a6 v=61
18585 On ch=1 n=c6 v=53
18605 On ch=1 n=c6 v=0
18625 On ch=1 n=d#6 v=0
18630 On ch=1 n=a6 v=0
18690 On ch=1 n=f#6 v=52
18750 On ch=1 n=f#6 v=0
18810 On ch=1 n=g#5 v=42
18815 On ch=1 n=d6 v=58
18815 On ch=1 n=f5 v=40
18850 On ch=1 n=f5 v=0
18865 On ch=1 n=d6 v=0
18865 On ch=1 n=g#5 v=0
18930 On ch=1 n=b5 v=41
18985 On ch=1 n=b5 v=0
19030 On ch=1 n=d#6 v=54
19040 On ch=1 n=f#5 v=47
19050 On ch=1 n=a5 v=48
19075 On ch=1 n=a5 v=0
19075 On ch=1 n=f#5 v=0
19105 On ch=1 n=d#6 v=0
19155 On ch=1 n=c6 v=58
19210 On ch=1 n=c6 v=0
19280 On ch=1 n=d5 v=51
19280 On ch=1 n=b4 v=42
19290 On ch=1 n=g#5 v=42
19320 On ch=1 n=b4 v=0
19330 On ch=1 n=d5 v=0
19350 On ch=1 n=g#5 v=0
19395 On ch=1 n=f5 v=40
19435 On ch=1 n=f5 v=0
19530 On ch=1 n=a5 v=40
19540 On ch=1 n=f#5 v=35
19545 On ch=1 n=d#5 v=26
19565 On ch=1 n=c5 v=27
19605 Par ch=1 c=64 v=24
19615 Par ch=1 c=64 v=56
19625 Par ch=1 c=64 v=88
19640 Par ch=1 c=64 v=104
19650 Par ch=1 c=64 v=127
19680 On ch=1 n=f#5 v=0
19700 On ch=1 n=a5 v=0
19720 On ch=1 n=c5 v=0
19720 On ch=1 n=d#5 v=0
20025 Par ch=1 c=64 v=104
20035 Par ch=1 c=64 v=56
20045 Par ch=1 c=64 v=0
20060 On ch=1 n=f3 v=54
20105 Par ch=1 c=64 v=40
20115 Par ch=1 c=64 v=104
20125 On ch=1 n=f3 v=0
20125 Par ch=1 c=64 v=127
20325 On ch=1 n=f#7 v=71
20340 On ch=1 n=f#6 v=37
20350 On ch=1 n=a6 v=37
20350 On ch=1 n=a5 v=39
20355 On ch=1 n=d#5 v=23
20380 On ch=1 n=a6 v=0
20380 On ch=1 n=f#6 v=0
20385 On ch=1 n=d#5 v=0
20385 On ch=1 n=a5 v=0
20400 On ch=1 n=f#7 v=0
20580 On ch=1 n=f7 v=67
20585 On ch=1 n=f#6 v=34
20585 On ch=1 n=a5 v=48
20590 On ch=1 n=d#5 v=28
20590 On ch=1 n=a6 v=38
20605 On ch=1 n=c5 v=25
20620 On ch=1 n=f7 v=0
20625 On ch=1 n=a6 v=0
20625 On ch=1 n=a5 v=0
20625 On ch=1 n=f#6 v=0
20630 On ch=1 n=d#5 v=0
20635 On ch=1 n=c5 v=0
20810 On ch=1 n=e7 v=71
20825 On ch=1 n=f#6 v=37
20825 On ch=1 n=d#5 v=34
20830 On ch=1 n=c5 v=40
20835 On ch=1 n=a6 v=42
20835 On ch=1 n=a5 v=35
20860 On ch=1 n=f#6 v=0
20865 On ch=1 n=a6 v=0
20870 On ch=1 n=a5 v=0
20870 On ch=1 n=c5 v=0
20875 On ch=1 n=e7 v=0
20880 On ch=1 n=d#5 v=0
21040 On ch=1 n=d#7 v=62
21050 On ch=1 n=f#6 v=33
21055 On ch=1 n=d#5 v=31
21060 On ch=1 n=a6 v=39
21060 On ch=1 n=c5 v=34
21065 On ch=1 n=a5 v=32
21085 On ch=1 n=f#6 v=0
21090 On ch=1 n=a6 v=0
21100 On ch=1 n=a5 v=0
21100 On ch=1 n=c5 v=0
21105 On ch=1 n=d#5 v=0
21115 On ch=1 n=d#7 v=0
21265 On ch=1 n=f#7 v=67
21285 On ch=1 n=f#6 v=34
21285 On ch=1 n=d#5 v=32
21290 On ch=1 n=a6 v=46
21290 On ch=1 n=c5 v=40
21290 On ch=1 n=a5 v=41
21320 On ch=1 n=a5 v=0
21320 On ch=1 n=c5 v=0
21320 On ch=1 n=d#5 v=0
21325 On ch=1 n=a6 v=0
21325 On ch=1 n=f#6 v=0
21355 On ch=1 n=f#7 v=0
21490 On ch=1 n=f7 v=62
21490 On ch=1 n=a5 v=33
21495 On ch=1 n=d#5 v=25
21500 On ch=1 n=f#6 v=25
21500 On ch=1 n=c5 v=24
21570 On ch=1 n=f7 v=0
21600 On ch=1 n=e7 v=63
21615 On ch=1 n=f#6 v=0
21690 On ch=1 n=e7 v=0
21700 On ch=1 n=d#7 v=59
21750 On ch=1 n=d#7 v=0
21775 On ch=1 n=c5 v=0
21785 On ch=1 n=d#5 v=0
21785 On ch=1 n=a5 v=0
22145 On ch=1 n=d#7 v=64
22165 On ch=1 n=d#6 v=33
22165 On ch=1 n=f#6 v=43
22175 On ch=1 n=a5 v=36
22180 On ch=1 n=d#5 v=23
22200 On ch=1 n=f#6 v=0
22205 On ch=1 n=d#6 v=0
22205 On ch=1 n=d#7 v=0
22210 On ch=1 n=a5 v=0
22215 On ch=1 n=d#5 v=0
22385 On ch=1 n=d7 v=63
22400 On ch=1 n=d#5 v=32
22400 On ch=1 n=a5 v=38
22400 On ch=1 n=f#6 v=32
22405 On ch=1 n=d#6 v=20
22405 On ch=1 n=c5 v=31
22420 On ch=1 n=d7 v=0
22430 On ch=1 n=f#6 v=0
22435 On ch=1 n=c5 v=0
22435 On ch=1 n=a5 v=0
22435 On ch=1 n=d#5 v=0
22440 On ch=1 n=d#6 v=0
22605 On ch=1 n=c#7 v=51
22610 On ch=1 n=d#5 v=34
22610 On ch=1 n=f#6 v=35
22610 On ch=1 n=d#6 v=25
22615 On ch=1 n=c5 v=39
22615 On ch=1 n=a5 v=41
22640 On ch=1 n=f#6 v=0
22645 On ch=1 n=a5 v=0
22645 On ch=1 n=c5 v=0
22650 On ch=1 n=d#6 v=0
22655 On ch=1 n=d#5 v=0
22660 On ch=1 n=c#7 v=0
22830 On ch=1 n=d#6 v=31
22835 On ch=1 n=c7 v=50
22835 On ch=1 n=a5 v=42
22835 On ch=1 n=f#6 v=40
22835 On ch=1 n=d#5 v=32
22840 On ch=1 n=c5 v=36
22870 On ch=1 n=c5 v=0
22870 On ch=1 n=c7 v=0
22870 On ch=1 n=d#6 v=0
22875 On ch=1 n=a5 v=0
22880 On ch=1 n=d#5 v=0
22890 On ch=1 n=f#6 v=0
23035 On ch=1 n=d#7 v=62
23050 On ch=1 n=a5 v=50
23050 On ch=1 n=f#6 v=39
23055 On ch=1 n=d#5 v=33
23055 On ch=1 n=d#6 v=25
23055 On ch=1 n=c5 v=40
23085 On ch=1 n=c5 v=0
23085 On ch=1 n=a5 v=0
23090 On ch=1 n=d#5 v=0
23100 On ch=1 n=d#6 v=0
23100 On ch=1 n=f#6 v=0
23105 On ch=1 n=d#7 v=0
23260 On ch=1 n=d7 v=60
23260 On ch=1 n=a5 v=31
23265 On ch=1 n=c5 v=27
23265 On ch=1 n=d#5 v=23
23270 On ch=1 n=d#6 v=22
23285 On ch=1 n=f#6 v=26
23325 On ch=1 n=d7 v=0
23345 On ch=1 n=c#7 v=60
23435 On ch=1 n=c#7 v=0
23455 On ch=1 n=c7 v=60
23495 On ch=1 n=f#6 v=0
23505 On ch=1 n=c7 v=0
23510 On ch=1 n=d#6 v=0
23545 On ch=1 n=c5 v=0
23555 On ch=1 n=d#5 v=0
23560 On ch=1 n=a5 v=0
23900 On ch=1 n=c7 v=58
23915 On ch=1 n=d#5 v=35
23915 On ch=1 n=a5 v=42
23915 On ch=1 n=d#6 v=39
23920 On ch=1 n=c6 v=31
23930 On ch=1 n=f#5 v=26
23950 On ch=1 n=c7 v=0
23955 On ch=1 n=f#5 v=0
23955 On ch=1 n=c6 v=0
23955 On ch=1 n=d#6 v=0
23960 On ch=1 n=a5 v=0
23960 On ch=1 n=d#5 v=0
24135 On ch=1 n=b6 v=43
24140 On ch=1 n=d#5 v=25
24145 On ch=1 n=a5 v=28
24145 On ch=1 n=f#5 v=22
24165 On ch=1 n=d#6 v=23
24165 On ch=1 n=c6 v=12
24205 On ch=1 n=b6 v=0
24245 On ch=1 n=a#6 v=47
24340 On ch=1 n=a#6 v=0
24355 On ch=1 n=a6 v=46
24385 On ch=1 n=c6 v=0
24385 On ch=1 n=d#6 v=0
24410 On ch=1 n=d#5 v=0
24415 On ch=1 n=a6 v=0
24415 On ch=1 n=f#5 v=0
24415 On ch=1 n=a5 v=0
24790 On ch=1 n=a6 v=51
24800 On ch=1 n=f#5 v=37
24800 On ch=1 n=d#6 v=42
24810 On ch=1 n=a5 v=35
24815 On ch=1 n=c6 v=31
24845 On ch=1 n=c6 v=0
24845 On ch=1 n=a5 v=0
24845 On ch=1 n=f#5 v=0
24845 On ch=1 n=a6 v=0
24850 On ch=1 n=d#6 v=0
25005 On ch=1 n=g#6 v=46
25010 On ch=1 n=f#5 v=33
25010 On ch=1 n=a5 v=44
25020 On ch=1 n=d#6 v=25
25020 On ch=1 n=c6 v=31
25060 On ch=1 n=c6 v=0
25060 On ch=1 n=d#6 v=0
25080 On ch=1 n=g#6 v=0
25110 On ch=1 n=g6 v=61
25180 On ch=1 n=g6 v=0
25215 On ch=1 n=f#6 v=60
25280 On ch=1 n=f#6 v=0
25315 On ch=1 n=a5 v=0
25320 On ch=1 n=f#5 v=0
25690 On ch=1 n=f6 v=53
25695 On ch=1 n=d#6 v=49
25700 On ch=1 n=a5 v=43
25720 On ch=1 n=f6 v=0
25725 On ch=1 n=a5 v=0
25730 On ch=1 n=d#6 v=0
25910 On ch=1 n=f#6 v=54
25925 On ch=1 n=c6 v=52
25925 On ch=1 n=d#6 v=34
25940 On ch=1 n=c6 v=0
25960 On ch=1 n=d#6 v=0
25960 On ch=1 n=f#6 v=0
26135 On ch=1 n=d#6 v=40
26140 On ch=1 n=f6 v=55
26145 On ch=1 n=c6 v=36
26150 On ch=1 n=a5 v=34
26170 On ch=1 n=f6 v=0
26170 On ch=1 n=d#6 v=0
26175 On ch=1 n=a5 v=0
26175 On ch=1 n=c6 v=0
26365 On ch=1 n=g6 v=57
26370 On ch=1 n=c6 v=50
26370 On ch=1 n=d#6 v=28
26390 On ch=1 n=c6 v=0
26390 On ch=1 n=g6 v=0
26395 On ch=1 n=d#6 v=0
26570 On ch=1 n=d#6 v=50
26570 On ch=1 n=f6 v=62
26580 On ch=1 n=a5 v=44
26605 On ch=1 n=a5 v=0
26610 On ch=1 n=f6 v=0
26610 On ch=1 n=d#6 v=0
26785 On ch=1 n=f#6 v=55
26795 On ch=1 n=c6 v=45
26810 On ch=1 n=d#6 v=23
26815 On ch=1 n=c6 v=0
26835 On ch=1 n=d#6 v=0
26840 On ch=1 n=f#6 v=0
27010 On ch=1 n=f6 v=55
27010 On ch=1 n=d#6 v=36
27015 On ch=1 n=c6 v=39
27020 On ch=1 n=a5 v=37
27045 On ch=1 n=c6 v=0
27050 On ch=1 n=a5 v=0
27060 On ch=1 n=d#6 v=0
27060 On ch=1 n=f6 v=0
27245 On ch=1 n=g6 v=46
27285 On ch=1 n=g6 v=0
27385 On ch=1 n=f6 v=57
27460 On ch=1 n=f6 v=0
27505 On ch=1 n=f#6 v=55
27555 On ch=1 n=f#6 v=0
27645 On ch=1 n=f6 v=60
27705 On ch=1 n=f6 v=0
27765 On ch=1 n=g6 v=49
27795 On ch=1 n=g6 v=0
27880 On ch=1 n=f6 v=60
27940 On ch=1 n=f6 v=0
28010 On ch=1 n=f#6 v=50
28070 On ch=1 n=f#6 v=0
28140 On ch=1 n=f6 v=54
28210 On ch=1 n=f6 v=0
28265 On ch=1 n=g6 v=53
28305 On ch=1 n=g6 v=0
28395 On ch=1 n=f6 v=56
28450 On ch=1 n=f6 v=0
28490 On ch=1 n=f#6 v=47
28545 On ch=1 n=f#6 v=0
28595 On ch=1 n=f6 v=49
28645 On ch=1 n=f6 v=0
28680 On ch=1 n=g6 v=54
28735 On ch=1 n=g6 v=0
28785 On ch=1 n=f6 v=45
28850 On ch=1 n=f6 v=0
28880 On ch=1 n=f#6 v=50
28940 On ch=1 n=f#6 v=0
28985 On ch=1 n=f6 v=51
29045 On ch=1 n=f6 v=0
29070 On ch=1 n=g6 v=56
29135 On ch=1 n=g6 v=0
29175 On ch=1 n=f6 v=52
29235 On ch=1 n=f6 v=0
29270 On ch=1 n=f#6 v=45
29330 On ch=1 n=f#6 v=0
29365 On ch=1 n=f6 v=57
29435 On ch=1 n=f6 v=0
29460 On ch=1 n=g6 v=53
29525 On ch=1 n=g6 v=0
29565 On ch=1 n=f6 v=54
29630 On ch=1 n=f6 v=0
29650 On ch=1 n=f#6 v=51
29715 On ch=1 n=f#6 v=0
29750 On ch=1 n=f6 v=49
29815 On ch=1 n=f6 v=0
29845 On ch=1 n=g6 v=55
29905 On ch=1 n=g6 v=0
29950 On ch=1 n=f6 v=48
30015 On ch=1 n=f6 v=0
30045 On ch=1 n=f#6 v=49
30110 On ch=1 n=f#6 v=0
30150 On ch=1 n=f6 v=51
30205 On ch=1 n=f6 v=0
30245 On ch=1 n=g6 v=41
30305 On ch=1 n=g6 v=0
30355 On ch=1 n=f6 v=30
30410 On ch=1 n=f6 v=0
30440 On ch=1 n=f#6 v=44
30505 On ch=1 n=f#6 v=0
30550 On ch=1 n=f6 v=54
30635 On ch=1 n=f6 v=0
30660 On ch=1 n=g6 v=52
30685 On ch=1 n=g6 v=0
30800 On ch=1 n=a5 v=45
30805 On ch=1 n=f6 v=52
30810 On ch=1 n=d#5 v=28
30810 On ch=1 n=f5 v=36
30865 On ch=1 n=f6 v=0
30870 On ch=1 n=a5 v=0
30905 On ch=1 n=f#6 v=51
30920 On ch=1 n=c6 v=40
30955 On ch=1 n=c6 v=0
30960 On ch=1 n=f#6 v=0
31015 On ch=1 n=f6 v=62
31015 On ch=1 n=a5 v=36
31065 On ch=1 n=a5 v=0
31090 On ch=1 n=f6 v=0
31110 Par ch=1 c=64 v=24
31120 Par ch=1 c=64 v=40
31135 On ch=1 n=g6 v=55
31135 On ch=1 n=c6 v=46
31135 Par ch=1 c=64 v=56
31145 Par ch=1 c=64 v=72
31170 On ch=1 n=g6 v=0
31180 On ch=1 n=c6 v=0
31215 Par ch=1 c=64 v=40
31220 On ch=1 n=d#5 v=0
31230 On ch=1 n=f6 v=58
31230 Par ch=1 c=64 v=0
31250 On ch=1 n=a#5 v=34
31250 On ch=1 n=d5 v=34
31290 On ch=1 n=a#5 v=0
31310 On ch=1 n=f6 v=0
31330 Par ch=1 c=64 v=24
31340 On ch=1 n=f#6 v=42
31340 On ch=1 n=d6 v=35
31345 Par ch=1 c=64 v=40
31355 Par ch=1 c=64 v=56
31365 Par ch=1 c=64 v=72
31380 On ch=1 n=f#6 v=0
31400 On ch=1 n=d6 v=0
31415 Par ch=1 c=64 v=88
31435 On ch=1 n=a#5 v=33
31445 On ch=1 n=f6 v=58
31450 Par ch=1 c=64 v=104
31480 On ch=1 n=a#5 v=0
31480 Par ch=1 c=64 v=127
31490 On ch=1 n=f6 v=0
31550 On ch=1 n=g6 v=53
31550 On ch=1 n=d6 v=35
31560 On ch=1 n=f5 v=0
31580 On ch=1 n=g6 v=0
31595 On ch=1 n=d5 v=0
31610 On ch=1 n=d6 v=0
31620 Par ch=1 c=64 v=104
31635 Par ch=1 c=64 v=72
31645 Par ch=1 c=64 v=24
31650 On ch=1 n=f6 v=66
31655 On ch=1 n=a5 v=42
31655 Par ch=1 c=64 v=0
31660 On ch=1 n=f5 v=24
31685 On ch=1 n=c5 v=28
31710 On ch=1 n=a5 v=0
31715 On ch=1 n=f6 v=0
31730 Par ch=1 c=64 v=24
31740 Par ch=1 c=64 v=56
31750 Par ch=1 c=64 v=72
31755 On ch=1 n=f#6 v=43
31760 Par ch=1 c=64 v=88
31765 On ch=1 n=d#6 v=44
31775 Par ch=1 c=64 v=104
31800 On ch=1 n=d#6 v=0
31805 On ch=1 n=f#6 v=0
31810 Par ch=1 c=64 v=127
31870 On ch=1 n=a5 v=36
31875 On ch=1 n=f6 v=46
31910 On ch=1 n=a5 v=0
31930 On ch=1 n=f6 v=0
31970 On ch=1 n=g6 v=43
31970 On ch=1 n=d#6 v=35
31995 On ch=1 n=g6 v=0
31995 On ch=1 n=f5 v=0
32005 On ch=1 n=c5 v=0
32030 On ch=1 n=d#6 v=0
32055 Par ch=1 c=64 v=88
32065 Par ch=1 c=64 v=40
32075 Par ch=1 c=64 v=0
32080 On ch=1 n=f5 v=32
32085 On ch=1 n=f6 v=64
32095 On ch=1 n=a#5 v=30
32100 On ch=1 n=a#4 v=25
32145 Par ch=1 c=64 v=40
32150 On ch=1 n=f6 v=0
32155 On ch=1 n=a#5 v=0
32155 Par ch=1 c=64 v=56
32170 Par ch=1 c=64 v=88
32190 On ch=1 n=f#6 v=61
32190 On ch=1 n=d6 v=35
32195 Par ch=1 c=64 v=104
32200 Par ch=1 c=64 v=127
32245 On ch=1 n=f#6 v=0
32250 On ch=1 n=d6 v=0
32295 On ch=1 n=f#6 v=61
32310 On ch=1 n=a#5 v=40
32350 On ch=1 n=a#5 v=0
32375 On ch=1 n=f#6 v=0
32405 On ch=1 n=f5 v=0
32410 On ch=1 n=a#4 v=0
32410 On ch=1 n=g6 v=63
32410 On ch=1 n=d6 v=35
32440 On ch=1 n=g6 v=0
32470 On ch=1 n=d6 v=0
32505 Par ch=1 c=64 v=104
32510 On ch=1 n=g#6 v=68
32515 On ch=1 n=d6 v=56
32520 Par ch=1 c=64 v=72
32525 On ch=1 n=d5 v=46
32530 On ch=1 n=f5 v=42
32530 Par ch=1 c=64 v=24
32540 Par ch=1 c=64 v=0
32550 On ch=1 n=d6 v=0
32575 On ch=1 n=g#6 v=0
32575 Par ch=1 c=64 v=24
32585 Par ch=1 c=64 v=40
32600 Par ch=1 c=64 v=72
32610 Par ch=1 c=64 v=104
32615 On ch=1 n=a6 v=66
32615 On ch=1 n=f6 v=35
32620 Par ch=1 c=64 v=127
32665 On ch=1 n=a6 v=0
32675 On ch=1 n=f6 v=0
32715 On ch=1 n=a6 v=62
32730 On ch=1 n=d6 v=33
32765 On ch=1 n=d6 v=0
32775 On ch=1 n=a6 v=0
32780 On ch=1 n=d5 v=0
32815 On ch=1 n=f5 v=0
32825 On ch=1 n=a#6 v=65
32835 On ch=1 n=f6 v=39
32870 On ch=1 n=f6 v=0
32875 On ch=1 n=a#6 v=0
32940 On ch=1 n=a#6 v=71
32945 Par ch=1 c=64 v=88
32960 On ch=1 n=c6 v=58
32960 On ch=1 n=d#5 v=34
32960 Par ch=1 c=64 v=40
32965 On ch=1 n=f4 v=35
32965 On ch=1 n=f5 v=24
32970 Par ch=1 c=64 v=0
33000 On ch=1 n=c6 v=0
33015 On ch=1 n=a#6 v=0
33030 Par ch=1 c=64 v=40
33040 Par ch=1 c=64 v=88
33050 On ch=1 n=a6 v=60
33050 On ch=1 n=d#6 v=35
33055 Par ch=1 c=64 v=127
33075 On ch=1 n=d#6 v=29
33100 On ch=1 n=d#6 v=0
33105 On ch=1 n=a6 v=0
33110 On ch=1 n=d#6 v=0
33145 On ch=1 n=a6 v=64
33165 On ch=1 n=f4 v=0
33165 On ch=1 n=c6 v=54
33185 On ch=1 n=f5 v=0
33190 On ch=1 n=c6 v=0
33190 On ch=1 n=d#5 v=0
33200 On ch=1 n=a6 v=0
33260 On ch=1 n=g#6 v=70
33265 On ch=1 n=d#6 v=49
33290 On ch=1 n=d#6 v=0
33315 On ch=1 n=g#6 v=0
33370 On ch=1 n=g#6 v=65
33375 Par ch=1 c=64 v=104
33380 On ch=1 n=c6 v=58
33390 On ch=1 n=f5 v=31
33390 Par ch=1 c=64 v=56
33395 On ch=1 n=d#5 v=25
33400 On ch=1 n=a4 v=29
33400 Par ch=1 c=64 v=0
33440 On ch=1 n=c6 v=0
33460 On ch=1 n=g#6 v=0
33480 Par ch=1 c=64 v=24
33485 On ch=1 n=g6 v=68
33495 Par ch=1 c=64 v=56
33505 Par ch=1 c=64 v=72
33520 On ch=1 n=d#6 v=22
33520 Par ch=1 c=64 v=88
33530 Par ch=1 c=64 v=104
33535 On ch=1 n=g6 v=0
33540 On ch=1 n=d#6 v=0
33575 Par ch=1 c=64 v=127
33585 On ch=1 n=g6 v=61
33610 On ch=1 n=c6 v=49
33640 On ch=1 n=c6 v=0
33645 On ch=1 n=g6 v=0
33680 On ch=1 n=d#5 v=0
33695 On ch=1 n=f#6 v=63
33710 On ch=1 n=d#6 v=34
33735 On ch=1 n=a4 v=0
33745 On ch=1 n=d#6 v=0
33760 On ch=1 n=f#6 v=0
33785 Par ch=1 c=64 v=104
33795 Par ch=1 c=64 v=88
33810 Par ch=1 c=64 v=72
33815 On ch=1 n=f6 v=66
33815 On ch=1 n=a#5 v=43
33820 On ch=1 n=d5 v=34
33820 On ch=1 n=a#4 v=26
33820 Par ch=1 c=64 v=40
33830 Par ch=1 c=64 v=0
33880 On ch=1 n=f6 v=0
33885 On ch=1 n=a#5 v=0
33910 On ch=1 n=f#6 v=60
33910 On ch=1 n=d6 v=35
33925 Par ch=1 c=64 v=24
33935 Par ch=1 c=64 v=40
33945 Par ch=1 c=64 v=72
33960 Par ch=1 c=64 v=88
33970 On ch=1 n=d6 v=0
33980 On ch=1 n=f#6 v=0
34005 Par ch=1 c=64 v=104
34025 On ch=1 n=a#5 v=30
34035 On ch=1 n=f6 v=62
34075 On ch=1 n=a#5 v=0
34085 On ch=1 n=f6 v=0
34085 On ch=1 n=d5 v=0
34115 On ch=1 n=f5 v=0
34120 On ch=1 n=a#4 v=0
34120 Par ch=1 c=64 v=127
34140 On ch=1 n=g6 v=61
34140 On ch=1 n=d6 v=35
34180 On ch=1 n=g6 v=0
34200 On ch=1 n=d6 v=0
34225 Par ch=1 c=64 v=88
34235 Par ch=1 c=64 v=56
34245 On ch=1 n=f6 v=65
34245 On ch=1 n=d#5 v=37
34250 On ch=1 n=f5 v=40
34250 Par ch=1 c=64 v=0
34255 On ch=1 n=a5 v=51
34310 On ch=1 n=f6 v=0
34315 On ch=1 n=a5 v=0
34330 Par ch=1 c=64 v=40
34345 Par ch=1 c=64 v=72
34350 On ch=1 n=f#6 v=55
34355 Par ch=1 c=64 v=104
34360 On ch=1 n=c6 v=51
34365 Par ch=1 c=64 v=127
34390 On ch=1 n=c6 v=0
34400 On ch=1 n=f#6 v=0
34465 On ch=1 n=f6 v=63
34465 On ch=1 n=a5 v=41
34500 On ch=1 n=a5 v=0
34520 On ch=1 n=f6 v=0
34565 On ch=1 n=g6 v=60
34565 On ch=1 n=c6 v=39
34605 On ch=1 n=g6 v=0
34625 On ch=1 n=c6 v=0
34655 Par ch=1 c=64 v=88
34670 On ch=1 n=d#5 v=0
34670 Par ch=1 c=64 v=40
34680 On ch=1 n=f6 v=62
34680 On ch=1 n=d5 v=41
34680 Par ch=1 c=64 v=0
34685 On ch=1 n=a#5 v=34
34740 On ch=1 n=a#5 v=0
34745 On ch=1 n=f6 v=0
34760 Par ch=1 c=64 v=40
34770 Par ch=1 c=64 v=72
34780 On ch=1 n=f#6 v=48
34785 Par ch=1 c=64 v=104
34795 On ch=1 n=d6 v=44
34795 Par ch=1 c=64 v=127
34825 On ch=1 n=d6 v=0
34835 On ch=1 n=f#6 v=0
34890 On ch=1 n=f6 v=66
34895 On ch=1 n=a#5 v=28
34935 On ch=1 n=a#5 v=0
34950 On ch=1 n=f6 v=0
34980 On ch=1 n=f5 v=0
34990 On ch=1 n=g6 v=59
34990 On ch=1 n=d6 v=39
35015 On ch=1 n=d5 v=0
35030 On ch=1 n=g6 v=0
35050 On ch=1 n=d6 v=0
35095 Par ch=1 c=64 v=88
35100 On ch=1 n=f6 v=64
35105 On ch=1 n=a5 v=43
35105 On ch=1 n=f5 v=38
35110 On ch=1 n=c5 v=42
35110 Par ch=1 c=64 v=56
35120 Par ch=1 c=64 v=0
35170 On ch=1 n=a5 v=0
35170 On ch=1 n=f6 v=0
35190 Par ch=1 c=64 v=24
35200 Par ch=1 c=64 v=72
35215 On ch=1 n=f#6 v=52
35215 On ch=1 n=d#6 v=43
35215 Par ch=1 c=64 v=104
35225 Par ch=1 c=64 v=127
35265 On ch=1 n=f#6 v=0
35270 On ch=1 n=d#6 v=0
35325 On ch=1 n=f6 v=69
35330 On ch=1 n=a5 v=48
35375 On ch=1 n=a5 v=0
35405 On ch=1 n=f6 v=0
35430 On ch=1 n=g6 v=65
35430 On ch=1 n=d#6 v=39
35460 On ch=1 n=c5 v=0
35465 On ch=1 n=g6 v=0
35465 On ch=1 n=f5 v=0
35490 On ch=1 n=d#6 v=0
35525 Par ch=1 c=64 v=104
35540 On ch=1 n=f6 v=57
35540 Par ch=1 c=64 v=72
35545 On ch=1 n=a#5 v=46
35550 On ch=1 n=f5 v=33
35550 Par ch=1 c=64 v=40
35555 On ch=1 n=a#4 v=39
35560 Par ch=1 c=64 v=0
35600 On ch=1 n=a#5 v=0
35605 On ch=1 n=f6 v=0
35625 Par ch=1 c=64 v=24
35630 Par ch=1 c=64 v=40
35640 Par ch=1 c=64 v=56
35650 Par ch=1 c=64 v=88
35665 On ch=1 n=f#6 v=67
35665 On ch=1 n=d6 v=39
35665 Par ch=1 c=64 v=104
35675 Par ch=1 c=64 v=127
35725 On ch=1 n=d6 v=0
35725 On ch=1 n=f#6 v=0
35785 On ch=1 n=a#4 v=0
35785 On ch=1 n=f#6 v=62
35790 On ch=1 n=a#5 v=45
35795 On ch=1 n=f5 v=0
35840 On ch=1 n=a#5 v=0
35860 On ch=1 n=f#6 v=0
35885 On ch=1 n=g6 v=72
35885 On ch=1 n=d6 v=39
35930 On ch=1 n=g6 v=0
35945 On ch=1 n=d6 v=0
35965 Par ch=1 c=64 v=104
35980 Par ch=1 c=64 v=56
35990 Par ch=1 c=64 v=24
35995 On ch=1 n=d5 v=36
36000 On ch=1 n=g#6 v=61
36005 On ch=1 n=d6 v=43
36005 On ch=1 n=f5 v=30
36005 Par ch=1 c=64 v=0
36010 On ch=1 n=f4 v=30
36035 On ch=1 n=d6 v=0
36055 On ch=1 n=g#6 v=0
36055 Par ch=1 c=64 v=24
36065 Par ch=1 c=64 v=56
36080 Par ch=1 c=64 v=88
36095 On ch=1 n=a6 v=64
36095 On ch=1 n=f6 v=39
36095 Par ch=1 c=64 v=127
36145 On ch=1 n=a6 v=0
36155 On ch=1 n=f6 v=0
36205 On ch=1 n=a6 v=63
36215 On ch=1 n=d6 v=39
36240 On ch=1 n=d5 v=0
36250 On ch=1 n=d6 v=0
36255 On ch=1 n=a6 v=0
36280 On ch=1 n=f4 v=0
36295 On ch=1 n=f5 v=0
36315 On ch=1 n=a#6 v=71
36315 On ch=1 n=f6 v=39
36370 On ch=1 n=a#6 v=0
36375 On ch=1 n=f6 v=0
36395 Par ch=1 c=64 v=104
36410 Par ch=1 c=64 v=56
36420 Par ch=1 c=64 v=0
36430 On ch=1 n=a#6 v=64
36435 On ch=1 n=f4 v=46
36440 On ch=1 n=d#5 v=33
36440 On ch=1 n=f5 v=34
36445 On ch=1 n=c6 v=59
36475 On ch=1 n=c6 v=0
36485 Par ch=1 c=64 v=40
36495 On ch=1 n=a#6 v=0
36495 Par ch=1 c=64 v=72
36505 Par ch=1 c=64 v=104
36520 Par ch=1 c=64 v=127
36535 On ch=1 n=a6 v=61
36535 On ch=1 n=d#6 v=39
36590 On ch=1 n=a6 v=0
36595 On ch=1 n=d#6 v=0
36645 On ch=1 n=a6 v=58
36645 On ch=1 n=c6 v=53
36670 On ch=1 n=c6 v=0
36680 On ch=1 n=f4 v=0
36700 On ch=1 n=a6 v=0
36735 On ch=1 n=d#5 v=0
36755 On ch=1 n=g#6 v=67
36760 On ch=1 n=f5 v=0
36775 On ch=1 n=d#6 v=32
36795 On ch=1 n=d#6 v=0
36805 On ch=1 n=g#6 v=0
36860 Par ch=1 c=64 v=88
36870 On ch=1 n=g#6 v=62
36870 Par ch=1 c=64 v=40
36875 On ch=1 n=f5 v=36
36885 On ch=1 n=d#5 v=31
36885 On ch=1 n=c6 v=52
36885 Par ch=1 c=64 v=0
36890 On ch=1 n=a4 v=34
36920 On ch=1 n=c6 v=0
36940 On ch=1 n=g#6 v=0
36950 Par ch=1 c=64 v=40
36960 Par ch=1 c=64 v=88
36975 Par ch=1 c=64 v=127
36990 On ch=1 n=g6 v=73
36990 On ch=1 n=d#6 v=39
37035 On ch=1 n=g6 v=0
37050 On ch=1 n=d#6 v=0
37090 On ch=1 n=g6 v=58
37105 On ch=1 n=c6 v=52
37140 On ch=1 n=c6 v=0
37140 On ch=1 n=d#5 v=0
37150 On ch=1 n=g6 v=0
37190 On ch=1 n=f#6 v=62
37210 On ch=1 n=d#6 v=43
37235 On ch=1 n=a4 v=0
37260 On ch=1 n=f#6 v=0
37270 On ch=1 n=d#6 v=0
37300 Par ch=1 c=64 v=88
37315 On ch=1 n=f6 v=66
37315 On ch=1 n=d6 v=39
37315 Par ch=1 c=64 v=40
37325 Par ch=1 c=64 v=0
37330 On ch=1 n=d5 v=34
37335 On ch=1 n=a#4 v=27
37375 On ch=1 n=d6 v=0
37385 On ch=1 n=f6 v=0
37400 Par ch=1 c=64 v=24
37415 On ch=1 n=f#6 v=46
37415 Par ch=1 c=64 v=72
37425 Par ch=1 c=64 v=104
37435 On ch=1 n=a#5 v=42
37440 Par ch=1 c=64 v=127
37490 On ch=1 n=a#5 v=0
37505 On ch=1 n=f#6 v=0
37515 On ch=1 n=d5 v=0
37530 On ch=1 n=a#4 v=0
37550 On ch=1 n=f5 v=0
37550 On ch=1 n=f6 v=57
37550 On ch=1 n=d6 v=39
37610 On ch=1 n=d6 v=0
37625 On ch=1 n=f6 v=0
37645 On ch=1 n=a6 v=61
37680 On ch=1 n=a6 v=0
37765 On ch=1 n=a#6 v=65
37765 Par ch=1 c=64 v=72
37780 On ch=1 n=d6 v=45
37780 On ch=1 n=a#5 v=26
37780 Par ch=1 c=64 v=40
37785 On ch=1 n=g#5 v=31
37790 Par ch=1 c=64 v=0
37810 On ch=1 n=d6 v=0
37825 On ch=1 n=a#6 v=0
37855 Par ch=1 c=64 v=24
37870 Par ch=1 c=64 v=72
37875 On ch=1 n=b6 v=64
37875 On ch=1 n=f6 v=39
37880 Par ch=1 c=64 v=104
37895 Par ch=1 c=64 v=127
37920 On ch=1 n=b6 v=0
37935 On ch=1 n=f6 v=0
37980 On ch=1 n=a#6 v=60
37995 On ch=1 n=d6 v=38
38035 On ch=1 n=d6 v=0
38065 On ch=1 n=a#6 v=0
38090 On ch=1 n=b6 v=63
38090 On ch=1 n=f6 v=39
38135 On ch=1 n=b6 v=0
38150 On ch=1 n=f6 v=0
38195 Par ch=1 c=64 v=104
38205 On ch=1 n=a#6 v=59
38210 On ch=1 n=g#5 v=0
38210 Par ch=1 c=64 v=56
38220 On ch=1 n=d#6 v=37
38220 Par ch=1 c=64 v=24
38230 Par ch=1 c=64 v=0
38235 On ch=1 n=f#5 v=28
38275 On ch=1 n=d#6 v=0
38310 On ch=1 n=a#6 v=0
38310 Par ch=1 c=64 v=56
38320 Par ch=1 c=64 v=88
38325 On ch=1 n=b6 v=62
38335 Par ch=1 c=64 v=127
38345 On ch=1 n=f#6 v=25
38365 On ch=1 n=b6 v=0
38375 On ch=1 n=f#6 v=0
38430 On ch=1 n=a#6 v=55
38430 On ch=1 n=d#6 v=40
38500 On ch=1 n=d#6 v=0
38505 On ch=1 n=a#6 v=0
38535 On ch=1 n=b6 v=58
38535 On ch=1 n=f#6 v=39
38560 On ch=1 n=a#5 v=0
38580 On ch=1 n=b6 v=0
38595 On ch=1 n=f#6 v=0
38620 On ch=1 n=f#5 v=0
38635 Par ch=1 c=64 v=104
38645 On ch=1 n=a#6 v=56
38645 Par ch=1 c=64 v=72
38655 On ch=1 n=a#5 v=32
38660 Par ch=1 c=64 v=24
38665 On ch=1 n=d6 v=37
38665 On ch=1 n=f5 v=36
38670 Par ch=1 c=64 v=0
38695 On ch=1 n=d6 v=0
38710 Par ch=1 c=64 v=24
38725 Par ch=1 c=64 v=56
38735 On ch=1 n=a#6 v=0
38735 Par ch=1 c=64 v=104
38750 Par ch=1 c=64 v=127
38775 On ch=1 n=g#6 v=34
38780 On ch=1 n=b6 v=53
38820 On ch=1 n=b6 v=0
38825 On ch=1 n=g#6 v=0
38875 On ch=1 n=a#6 v=58
38890 On ch=1 n=d6 v=41
38930 On ch=1 n=d6 v=0
38955 On ch=1 n=a#6 v=0
38980 On ch=1 n=b6 v=64
38980 On ch=1 n=g#6 v=39
39020 On ch=1 n=a#5 v=0
39025 On ch=1 n=b6 v=0
39035 On ch=1 n=f5 v=0
39040 On ch=1 n=g#6 v=0
39065 Par ch=1 c=64 v=104
39075 Par ch=1 c=64 v=56
39085 On ch=1 n=a#6 v=69
39090 On ch=1 n=d#6 v=55
39090 On ch=1 n=a#5 v=30
39090 Par ch=1 c=64 v=24
39095 On ch=1 n=d#5 v=37
39100 Par ch=1 c=64 v=0
39125 Par ch=1 c=64 v=40
39140 Par ch=1 c=64 v=72
39150 Par ch=1 c=64 v=104
39155 On ch=1 n=d#6 v=0
39165 Par ch=1 c=64 v=127
39170 On ch=1 n=a#6 v=0
39200 On ch=1 n=b6 v=65
39220 On ch=1 n=f#6 v=40
39245 On ch=1 n=f#6 v=0
39255 On ch=1 n=b6 v=0
39310 On ch=1 n=b6 v=68
39315 On ch=1 n=d#6 v=57
39365 On ch=1 n=d#6 v=0
39385 On ch=1 n=b6 v=0
39395 On ch=1 n=d#5 v=0
39420 On ch=1 n=c7 v=72
39420 On ch=1 n=f#6 v=39
39435 On ch=1 n=a#5 v=0
39470 On ch=1 n=c7 v=0
39480 On ch=1 n=f#6 v=0
39515 Par ch=1 c=64 v=104
39530 On ch=1 n=c#7 v=73
39530 Par ch=1 c=64 v=56
39535 On ch=1 n=f#6 v=53
39540 Par ch=1 c=64 v=0
39545 On ch=1 n=a#4 v=37
39555 On ch=1 n=a#5 v=27
39560 On ch=1 n=f#5 v=26
39590 On ch=1 n=f#6 v=0
39595 Par ch=1 c=64 v=56
39600 On ch=1 n=c#7 v=0
39605 Par ch=1 c=64 v=104
39620 Par ch=1 c=64 v=127
39645 On ch=1 n=d7 v=66
39645 On ch=1 n=a#6 v=39
39700 On ch=1 n=d7 v=0
39705 On ch=1 n=a#6 v=0
39750 On ch=1 n=d7 v=78
39750 On ch=1 n=f#6 v=57
39800 On ch=1 n=f#6 v=0
39815 On ch=1 n=d7 v=0
39830 On ch=1 n=f#5 v=0
39830 On ch=1 n=a#4 v=0
39850 On ch=1 n=a#5 v=0
39860 On ch=1 n=d#7 v=61
39860 On ch=1 n=a#6 v=39
39910 On ch=1 n=d#7 v=0
39920 On ch=1 n=a#6 v=0
39975 On ch=1 n=d#7 v=74
39980 Par ch=1 c=64 v=104
39995 On ch=1 n=f6 v=59
39995 On ch=1 n=a#4 v=30
39995 On ch=1 n=a#5 v=22
39995 Par ch=1 c=64 v=56
40005 On ch=1 n=g#5 v=33
40010 Par ch=1 c=64 v=0
40025 On ch=1 n=f6 v=0
40050 On ch=1 n=d#7 v=0
40085 On ch=1 n=d7 v=69
40085 On ch=1 n=g#6 v=39
40095 Par ch=1 c=64 v=24
40110 Par ch=1 c=64 v=56
40120 Par ch=1 c=64 v=88
40140 On ch=1 n=d7 v=0
40145 On ch=1 n=g#6 v=0
40150 Par ch=1 c=64 v=104
40185 Par ch=1 c=64 v=127
40195 On ch=1 n=d7 v=67
40215 On ch=1 n=f6 v=46
40245 On ch=1 n=f6 v=0
40245 On ch=1 n=d7 v=0
40270 On ch=1 n=g#5 v=0
40275 On ch=1 n=a#5 v=0
40285 On ch=1 n=a#4 v=0
40305 On ch=1 n=c#7 v=67
40315 On ch=1 n=g#6 v=38
40340 On ch=1 n=g#6 v=0
40360 On ch=1 n=c#7 v=0
40395 Par ch=1 c=64 v=104
40410 Par ch=1 c=64 v=72
40420 On ch=1 n=c#7 v=64
40425 Par ch=1 c=64 v=40
40430 On ch=1 n=f6 v=50
40435 On ch=1 n=a#5 v=32
40435 Par ch=1 c=64 v=0
40450 On ch=1 n=d5 v=33
40455 On ch=1 n=g#5 v=28
40470 On ch=1 n=f6 v=0
40505 On ch=1 n=c#7 v=0
40525 Par ch=1 c=64 v=56
40535 Par ch=1 c=64 v=88
40545 On ch=1 n=c7 v=63
40545 On ch=1 n=g#6 v=50
40545 Par ch=1 c=64 v=127
40575 On ch=1 n=c7 v=0
40590 On ch=1 n=g#6 v=0
40650 On ch=1 n=c7 v=67
40670 On ch=1 n=f6 v=34
40685 On ch=1 n=g#5 v=0
40705 On ch=1 n=f6 v=0
40705 On ch=1 n=c7 v=0
40760 On ch=1 n=b6 v=62
40760 On ch=1 n=g#6 v=39
40820 On ch=1 n=g#6 v=0
40820 On ch=1 n=d5 v=0
40825 On ch=1 n=b6 v=0
40835 Par ch=1 c=64 v=104
40865 Par ch=1 c=64 v=88
40875 Par ch=1 c=64 v=72
40890 Par ch=1 c=64 v=56
40900 On ch=1 n=a#6 v=48
40900 Par ch=1 c=64 v=40
40910 On ch=1 n=f#6 v=25
40915 On ch=1 n=f#5 v=27
40915 Par ch=1 c=64 v=0
40930 On ch=1 n=d#5 v=27
40975 On ch=1 n=b6 v=64
40980 On ch=1 n=d#6 v=36
40980 Par ch=1 c=64 v=56
40995 Par ch=1 c=64 v=88
41005 Par ch=1 c=64 v=127
41030 On ch=1 n=b6 v=0
41035 On ch=1 n=d#6 v=0
41055 On ch=1 n=f#6 v=0
41070 On ch=1 n=d#5 v=0
41070 On ch=1 n=f#5 v=0
41070 On ch=1 n=a#6 v=0
41090 On ch=1 n=a#5 v=0
41090 On ch=1 n=a#6 v=50
41100 On ch=1 n=f#6 v=39
41130 On ch=1 n=f#6 v=0
41175 On ch=1 n=a#6 v=0
41190 On ch=1 n=b6 v=68
41200 On ch=1 n=d#6 v=46
41235 On ch=1 n=d#6 v=0
41245 On ch=1 n=b6 v=0
41305 Par ch=1 c=64 v=104
41310 On ch=1 n=a#6 v=58
41320 Par ch=1 c=64 v=72
41330 On ch=1 n=a#5 v=31
41330 On ch=1 n=d6 v=51
41330 On ch=1 n=g#5 v=34
41330 Par ch=1 c=64 v=40
41340 Par ch=1 c=64 v=0
41380 On ch=1 n=d6 v=0
41395 On ch=1 n=a#6 v=0
41430 On ch=1 n=b6 v=63
41435 Par ch=1 c=64 v=40
41445 On ch=1 n=f6 v=48
41445 Par ch=1 c=64 v=72
41455 Par ch=1 c=64 v=104
41470 Par ch=1 c=64 v=127
41475 On ch=1 n=f6 v=0
41485 On ch=1 n=b6 v=0
41535 On ch=1 n=a#6 v=54
41550 On ch=1 n=d6 v=42
41585 On ch=1 n=d6 v=0
41610 On ch=1 n=a#6 v=0
41655 On ch=1 n=b6 v=59
41670 On ch=1 n=f6 v=29
41690 On ch=1 n=f6 v=0
41695 On ch=1 n=b6 v=0
41755 On ch=1 n=g#5 v=0
41760 On ch=1 n=a#6 v=55
41760 Par ch=1 c=64 v=88
41765 On ch=1 n=f#5 v=33
41770 On ch=1 n=d#6 v=50
41770 Par ch=1 c=64 v=40
41785 Par ch=1 c=64 v=0
41840 On ch=1 n=d#6 v=0
41845 On ch=1 n=a#6 v=0
41855 Par ch=1 c=64 v=40
41865 Par ch=1 c=64 v=72
41875 Par ch=1 c=64 v=104
41880 On ch=1 n=b6 v=60
41885 On ch=1 n=f#6 v=49
41890 Par ch=1 c=64 v=127
41930 On ch=1 n=b6 v=0
41935 On ch=1 n=f#6 v=0
41990 On ch=1 n=a#6 v=57
41990 On ch=1 n=d#6 v=47
42055 On ch=1 n=d#6 v=0
42060 On ch=1 n=a#6 v=0
42095 On ch=1 n=b6 v=69
42095 On ch=1 n=f#6 v=39
42135 On ch=1 n=a#5 v=0
42150 On ch=1 n=b6 v=0
42155 On ch=1 n=f#6 v=0
42195 On ch=1 n=f#5 v=0
42200 On ch=1 n=a#6 v=62
42200 Par ch=1 c=64 v=88
42210 On ch=1 n=a#5 v=31
42210 Par ch=1 c=64 v=40
42215 On ch=1 n=d6 v=48
42225 On ch=1 n=f5 v=36
42225 Par ch=1 c=64 v=0
42270 Par ch=1 c=64 v=40
42275 On ch=1 n=d6 v=0
42280 Par ch=1 c=64 v=88
42285 On ch=1 n=a#6 v=0
42295 Par ch=1 c=64 v=127
42315 On ch=1 n=b6 v=64
42320 On ch=1 n=g#6 v=48
42370 On ch=1 n=b6 v=0
42375 On ch=1 n=g#6 v=0
42425 On ch=1 n=a#6 v=60
42435 On ch=1 n=d6 v=54
42495 On ch=1 n=d6 v=0
42510 On ch=1 n=a#6 v=0
42545 On ch=1 n=b6 v=63
42550 On ch=1 n=g#6 v=48
42565 On ch=1 n=f5 v=0
42575 On ch=1 n=a#5 v=0
42580 On ch=1 n=g#6 v=0
42590 On ch=1 n=b6 v=0
42665 Par ch=1 c=64 v=72
42670 On ch=1 n=a#6 v=61
42675 On ch=1 n=a#5 v=38
42675 On ch=1 n=d#6 v=46
42680 On ch=1 n=d#5 v=32
42680 Par ch=1 c=64 v=24
42685 Par ch=1 c=64 v=0
42735 Par ch=1 c=64 v=56
42740 On ch=1 n=a#6 v=0
42745 Par ch=1 c=64 v=88
42755 On ch=1 n=d#6 v=0
42760 Par ch=1 c=64 v=127
42790 On ch=1 n=b6 v=60
42790 On ch=1 n=f#6 v=39
42835 On ch=1 n=b6 v=0
42850 On ch=1 n=f#6 v=0
42910 On ch=1 n=b6 v=59
42910 On ch=1 n=d#6 v=42
42970 On ch=1 n=d#6 v=0
42975 On ch=1 n=b6 v=0
43010 On ch=1 n=d#5 v=0
43015 On ch=1 n=c7 v=69
43050 On ch=1 n=a#5 v=0
43065 On ch=1 n=c7 v=0
43130 On ch=1 n=f#6 v=57
43130 Par ch=1 c=64 v=72
43135 On ch=1 n=c#7 v=64
43145 On ch=1 n=a#4 v=30
43145 Par ch=1 c=64 v=24
43150 On ch=1 n=a#5 v=25
43155 On ch=1 n=f#5 v=23
43155 Par ch=1 c=64 v=0
43195 On ch=1 n=c#7 v=0
43200 Par ch=1 c=64 v=56
43205 On ch=1 n=f#6 v=0
43210 Par ch=1 c=64 v=104
43225 Par ch=1 c=64 v=127
43245 On ch=1 n=d7 v=62
43255 On ch=1 n=a#6 v=35
43275 On ch=1 n=a#6 v=0
43290 On ch=1 n=d7 v=0
43355 On ch=1 n=d7 v=74
43355 On ch=1 n=f#6 v=61
43410 On ch=1 n=f#6 v=0
43425 On ch=1 n=d7 v=0
43430 On ch=1 n=f#5 v=0
43445 On ch=1 n=a#5 v=0
43455 On ch=1 n=a#4 v=0
43460 On ch=1 n=d#7 v=67
43470 On ch=1 n=a#6 v=40
43495 On ch=1 n=a#6 v=0
43505 On ch=1 n=d#7 v=0
43550 Par ch=1 c=64 v=72
43560 Par ch=1 c=64 v=24
43570 Par ch=1 c=64 v=0
43575 On ch=1 n=d#7 v=78
43585 On ch=1 n=a#4 v=42
43585 On ch=1 n=g#5 v=39
43595 On ch=1 n=f6 v=58
43600 On ch=1 n=a#5 v=20
43605 Par ch=1 c=64 v=24
43620 Par ch=1 c=64 v=72
43630 Par ch=1 c=64 v=127
43640 On ch=1 n=d#7 v=0
43650 On ch=1 n=f6 v=0
43685 On ch=1 n=d7 v=66
43685 On ch=1 n=g#6 v=39
43745 On ch=1 n=g#6 v=0
43745 On ch=1 n=d7 v=0
43795 On ch=1 n=d7 v=68
43810 On ch=1 n=f6 v=54
43840 On ch=1 n=f6 v=0
43855 On ch=1 n=d7 v=0
43855 On ch=1 n=a#4 v=0
43905 On ch=1 n=c#7 v=64
43905 On ch=1 n=g#6 v=39
43910 On ch=1 n=a#5 v=0
43915 On ch=1 n=g#5 v=0
43955 On ch=1 n=c#7 v=0
43965 On ch=1 n=g#6 v=0
44020 On ch=1 n=c#7 v=60
44025 Par ch=1 c=64 v=88
44030 On ch=1 n=f6 v=57
44035 On ch=1 n=a#5 v=26
44035 Par ch=1 c=64 v=40
44040 On ch=1 n=g#5 v=28
44045 On ch=1 n=d5 v=33
44050 Par ch=1 c=64 v=0
44085 Par ch=1 c=64 v=56
44090 On ch=1 n=c#7 v=0
44095 On ch=1 n=f6 v=0
44095 Par ch=1 c=64 v=104
44105 Par ch=1 c=64 v=127
44135 On ch=1 n=c7 v=72
44135 On ch=1 n=g#6 v=39
44185 On ch=1 n=c7 v=0
44195 On ch=1 n=g#6 v=0
44240 On ch=1 n=c7 v=62
44265 On ch=1 n=f6 v=52
44290 On ch=1 n=f6 v=0
44305 On ch=1 n=g#5 v=0
44310 On ch=1 n=c7 v=0
44360 On ch=1 n=b6 v=67
44370 On ch=1 n=g#6 v=38
44390 On ch=1 n=d5 v=0
44395 On ch=1 n=g#6 v=0
44420 On ch=1 n=b6 v=0
44465 Par ch=1 c=64 v=104
44470 On ch=1 n=a#6 v=57
44475 On ch=1 n=f#5 v=36
44480 Par ch=1 c=64 v=56
44485 On ch=1 n=d#5 v=30
44490 On ch=1 n=f#6 v=36
44490 Par ch=1 c=64 v=0
44535 Par ch=1 c=64 v=72
44545 On ch=1 n=f#6 v=0
44550 Par ch=1 c=64 v=127
44560 On ch=1 n=a#6 v=0
44585 On ch=1 n=b6 v=63
44595 On ch=1 n=d#6 v=57
44650 On ch=1 n=a#5 v=0
44655 On ch=1 n=f#5 v=0
44665 On ch=1 n=b6 v=0
44670 On ch=1 n=d#5 v=0
44690 On ch=1 n=a#6 v=67
44690 On ch=1 n=f#6 v=39
44705 On ch=1 n=d#6 v=0
44745 On ch=1 n=a#6 v=0
44750 On ch=1 n=f#6 v=0
44800 On ch=1 n=d#7 v=83
44850 On ch=1 n=d#7 v=0
44925 On ch=1 n=c#5 v=62
44925 On ch=1 n=a#3 v=46
44935 On ch=1 n=f#6 v=61
44935 On ch=1 n=f#7 v=64
44935 Par ch=1 c=64 v=104
44945 Par ch=1 c=64 v=72
44960 Par ch=1 c=64 v=40
44970 Par ch=1 c=64 v=0
45015 On ch=1 n=f#7 v=0
45030 On ch=1 n=f#6 v=0
45035 On ch=1 n=d#7 v=64
45045 Par ch=1 c=64 v=40
45050 Par ch=1 c=64 v=104
45055 On ch=1 n=c#7 v=46
45065 Par ch=1 c=64 v=127
45105 On ch=1 n=c#7 v=0
45130 On ch=1 n=d#7 v=0
45145 On ch=1 n=f#7 v=69
45160 On ch=1 n=f#6 v=49
45195 On ch=1 n=a#3 v=0
45220 On ch=1 n=f#7 v=0
45225 On ch=1 n=f#6 v=0
45230 On ch=1 n=c#5 v=0
45260 On ch=1 n=e7 v=74
45275 On ch=1 n=c#7 v=36
45300 On ch=1 n=c#7 v=0
45320 On ch=1 n=e7 v=0
45330 Par ch=1 c=64 v=72
45340 Par ch=1 c=64 v=0
45355 On ch=1 n=b3 v=56
45385 Par ch=1 c=64 v=56
45395 On ch=1 n=e7 v=76
45395 On ch=1 n=f#6 v=54
45395 Par ch=1 c=64 v=127
45415 On ch=1 n=b3 v=0
45430 On ch=1 n=d#5 v=56
45450 On ch=1 n=f#6 v=0
45455 On ch=1 n=e7 v=0
45505 On ch=1 n=d7 v=66
45520 On ch=1 n=b6 v=41
45550 On ch=1 n=b6 v=0
45565 On ch=1 n=d7 v=0
45600 On ch=1 n=e7 v=75
45600 On ch=1 n=f#6 v=49
45640 On ch=1 n=d#5 v=0
45655 On ch=1 n=f#6 v=0
45660 On ch=1 n=e7 v=0
45700 On ch=1 n=d#7 v=69
45715 On ch=1 n=b6 v=58
45735 On ch=1 n=b6 v=0
45765 On ch=1 n=d#7 v=0
45830 On ch=1 n=d#7 v=75
45835 On ch=1 n=e5 v=66
45835 On ch=1 n=c#4 v=50
45840 On ch=1 n=e6 v=60
45840 Par ch=1 c=64 v=40
45850 Par ch=1 c=64 v=0
45885 On ch=1 n=e6 v=0
45895 On ch=1 n=c#4 v=0
45910 On ch=1 n=d#7 v=0
45915 Par ch=1 c=64 v=40
45925 Par ch=1 c=64 v=104
45935 Par ch=1 c=64 v=127
45950 On ch=1 n=c7 v=69
45960 On ch=1 n=a#6 v=42
46000 On ch=1 n=a#6 v=0
46005 On ch=1 n=c7 v=0
46040 On ch=1 n=d#7 v=62
46065 On ch=1 n=e6 v=41
46080 On ch=1 n=e5 v=0
46110 On ch=1 n=e6 v=0
46115 On ch=1 n=d#7 v=0
46165 On ch=1 n=c#7 v=67
46170 On ch=1 n=a#6 v=48
46200 On ch=1 n=a#6 v=0
46220 On ch=1 n=c#7 v=0
46275 Par ch=1 c=64 v=40
46285 On ch=1 n=c#7 v=70
46290 On ch=1 n=d#6 v=55
46290 On ch=1 n=d#4 v=47
46290 Par ch=1 c=64 v=0
46295 On ch=1 n=f#5 v=61
46330 Par ch=1 c=64 v=40
46340 Par ch=1 c=64 v=104
46350 On ch=1 n=d#6 v=0
46350 Par ch=1 c=64 v=127
46365 On ch=1 n=c#7 v=0
46390 On ch=1 n=a#6 v=58
46405 On ch=1 n=f#6 v=40
46415 On ch=1 n=d#4 v=0
46425 On ch=1 n=f#5 v=0
46430 On ch=1 n=f#6 v=0
46460 On ch=1 n=a#6 v=0
46500 On ch=1 n=c#7 v=67
46505 On ch=1 n=d#6 v=51
46560 On ch=1 n=c#7 v=0
46565 On ch=1 n=d#6 v=0
46610 On ch=1 n=b6 v=66
46625 On ch=1 n=f#6 v=31
46645 On ch=1 n=f#6 v=0
46660 On ch=1 n=e4 v=44
46665 On ch=1 n=b6 v=0
46695 Par ch=1 c=64 v=72
46705 Par ch=1 c=64 v=0
46730 On ch=1 n=c7 v=74
46740 On ch=1 n=c#6 v=47
46745 On ch=1 n=g5 v=65
46765 Par ch=1 c=64 v=104
46780 Par ch=1 c=64 v=127
46790 On ch=1 n=c7 v=0
46815 On ch=1 n=c#6 v=0
46845 On ch=1 n=a6 v=63
46910 On ch=1 n=a6 v=0
46930 On ch=1 n=e4 v=0
46945 On ch=1 n=c7 v=69
46955 On ch=1 n=c#6 v=38
46990 On ch=1 n=c7 v=0
46995 On ch=1 n=g5 v=0
47020 On ch=1 n=c#6 v=0
47050 On ch=1 n=a#6 v=70
47050 On ch=1 n=g6 v=46
47105 On ch=1 n=a#6 v=0
47110 On ch=1 n=g6 v=0
47140 On ch=1 n=f4 v=12
47175 Par ch=1 c=64 v=104
47185 On ch=1 n=a#6 v=60
47185 Par ch=1 c=64 v=24
47190 On ch=1 n=a5 v=64
47195 Par ch=1 c=64 v=0
47205 On ch=1 n=c6 v=46
47240 On ch=1 n=c6 v=0
47255 On ch=1 n=a#6 v=0
47270 Par ch=1 c=64 v=88
47280 Par ch=1 c=64 v=127
47290 On ch=1 n=g#6 v=57
47325 On ch=1 n=f6 v=24
47350 On ch=1 n=f6 v=0
47360 On ch=1 n=g#6 v=0
47395 On ch=1 n=a#6 v=46
47415 On ch=1 n=c6 v=43
47440 On ch=1 n=f4 v=0
47450 On ch=1 n=c6 v=0
47455 On ch=1 n=a#6 v=0
47465 On ch=1 n=a5 v=0
47515 On ch=1 n=a6 v=53
47530 On ch=1 n=f6 v=39
47555 On ch=1 n=f6 v=0
47560 On ch=1 n=a6 v=0
47625 On ch=1 n=a6 v=70
47625 On ch=1 n=a#5 v=45
47630 On ch=1 n=e5 v=52
47630 Par ch=1 c=64 v=88
47640 On ch=1 n=g4 v=39
47640 Par ch=1 c=64 v=0
47685 On ch=1 n=a#5 v=0
47685 On ch=1 n=a6 v=0
47695 Par ch=1 c=64 v=56
47705 Par ch=1 c=64 v=127
47730 On ch=1 n=f#6 v=61
47730 On ch=1 n=e6 v=46
47790 On ch=1 n=e6 v=0
47805 On ch=1 n=f#6 v=0
47855 On ch=1 n=a6 v=62
47870 On ch=1 n=c#5 v=36
47875 On ch=1 n=a#5 v=38
47880 On ch=1 n=g4 v=0
47915 On ch=1 n=a6 v=0
47915 On ch=1 n=e5 v=0
47950 On ch=1 n=a#5 v=0
47970 On ch=1 n=g6 v=66
47970 On ch=1 n=e6 v=46
48010 On ch=1 n=g6 v=0
48030 On ch=1 n=e6 v=0
48090 On ch=1 n=c#5 v=0
48095 On ch=1 n=g6 v=63
48105 On ch=1 n=a5 v=40
48105 On ch=1 n=a4 v=36
48110 On ch=1 n=f5 v=30
48110 Par ch=1 c=64 v=56
48120 Par ch=1 c=64 v=0
48140 On ch=1 n=a5 v=0
48155 On ch=1 n=g6 v=0
48175 Par ch=1 c=64 v=40
48185 Par ch=1 c=64 v=104
48195 Par ch=1 c=64 v=127
48205 On ch=1 n=e6 v=69
48205 On ch=1 n=c6 v=46
48265 On ch=1 n=c6 v=0
48270 On ch=1 n=e6 v=0
48320 On ch=1 n=a4 v=0
48320 On ch=1 n=g6 v=58
48320 On ch=1 n=a5 v=46
48350 On ch=1 n=c5 v=24
48380 On ch=1 n=a5 v=0
48380 On ch=1 n=g6 v=0
48420 On ch=1 n=f6 v=74
48420 On ch=1 n=c6 v=46
48430 On ch=1 n=f5 v=0
48465 On ch=1 n=f6 v=0
48480 On ch=1 n=c6 v=0
48500 On ch=1 n=c5 v=0
48540 On ch=1 n=c#6 v=38
48540 On ch=1 n=a#4 v=32
48545 Par ch=1 c=64 v=72
48550 On ch=1 n=f6 v=61
48550 On ch=1 n=g5 v=40
48555 Par ch=1 c=64 v=0
48620 Par ch=1 c=64 v=56
48625 On ch=1 n=f6 v=0
48625 On ch=1 n=c#6 v=0
48630 Par ch=1 c=64 v=127
48655 On ch=1 n=d#6 v=62
48710 On ch=1 n=d#6 v=0
48770 On ch=1 n=c#5 v=42
48770 On ch=1 n=f6 v=65
48770 On ch=1 n=a#5 v=46
48775 On ch=1 n=a#4 v=0
48830 On ch=1 n=a#5 v=0
48830 On ch=1 n=f6 v=0
48860 On ch=1 n=g5 v=0
48875 On ch=1 n=e6 v=69
48940 On ch=1 n=e6 v=0
48945 On ch=1 n=c#5 v=0
48995 On ch=1 n=g6 v=66
49000 On ch=1 n=d#6 v=44
49010 On ch=1 n=a5 v=46
49015 On ch=1 n=c5 v=47
49025 Par ch=1 c=64 v=104
49035 Par ch=1 c=64 v=40
49045 Par ch=1 c=64 v=0
49065 On ch=1 n=d#6 v=0
49085 On ch=1 n=g6 v=0
49100 On ch=1 n=e6 v=62
49100 Par ch=1 c=64 v=40
49110 Par ch=1 c=64 v=104
49120 Par ch=1 c=64 v=127
49175 On ch=1 n=e6 v=0
49215 On ch=1 n=g6 v=66
49230 On ch=1 n=d#5 v=35
49235 On ch=1 n=c5 v=0
49235 On ch=1 n=c6 v=47
49250 On ch=1 n=a5 v=0
49260 On ch=1 n=c6 v=0
49275 On ch=1 n=g6 v=0
49325 On ch=1 n=f6 v=69
49370 On ch=1 n=f6 v=0
49400 On ch=1 n=d#5 v=0
49440 On ch=1 n=f6 v=46
49440 On ch=1 n=a#5 v=46
49440 Par ch=1 c=64 v=56
49445 On ch=1 n=g5 v=31
49455 On ch=1 n=c#5 v=27
49455 Par ch=1 c=64 v=0
49500 On ch=1 n=a#5 v=0
49515 Par ch=1 c=64 v=24
49520 On ch=1 n=f6 v=0
49525 Par ch=1 c=64 v=88
49535 Par ch=1 c=64 v=127
49545 On ch=1 n=d#6 v=60
49635 On ch=1 n=d#6 v=0
49650 On ch=1 n=g5 v=0
49650 On ch=1 n=f6 v=70
49670 On ch=1 n=c#5 v=0
49715 On ch=1 n=f6 v=0
49755 On ch=1 n=e6 v=63
49825 On ch=1 n=e6 v=0
49865 Par ch=1 c=64 v=104
49875 On ch=1 n=g6 v=63
49875 On ch=1 n=a5 v=42
49880 On ch=1 n=d#5 v=36
49880 Par ch=1 c=64 v=72
49890 Par ch=1 c=64 v=24
49900 On ch=1 n=c6 v=26
49900 Par ch=1 c=64 v=0
49940 On ch=1 n=c6 v=0
49960 On ch=1 n=g6 v=0
49990 On ch=1 n=e6 v=60
50050 On ch=1 n=e6 v=0
50105 On ch=1 n=g6 v=55
50175 On ch=1 n=g6 v=0
50205 On ch=1 n=f#6 v=60
50285 On ch=1 n=f#6 v=0
50320 On ch=1 n=f6 v=54
50425 On ch=1 n=f#6 v=54
50435 On ch=1 n=f6 v=0
50450 On ch=1 n=d#5 v=0
50475 On ch=1 n=a5 v=0
50490 On ch=1 n=f#6 v=0
50530 On ch=1 n=f6 v=56
50610 On ch=1 n=f6 v=0
50630 On ch=1 n=g6 v=53
50715 On ch=1 n=g6 v=0
50745 On ch=1 n=f6 v=56
50825 On ch=1 n=f6 v=0
50850 On ch=1 n=f#6 v=48
50920 On ch=1 n=f#6 v=0
50950 On ch=1 n=f6 v=53
51030 On ch=1 n=f6 v=0
51050 On ch=1 n=g6 v=52
51140 On ch=1 n=g6 v=0
51160 On ch=1 n=f6 v=53
51245 On ch=1 n=f6 v=0
51265 On ch=1 n=f#6 v=44
51330 On ch=1 n=f#6 v=0
51370 On ch=1 n=f6 v=41
51435 On ch=1 n=f6 v=0
51460 On ch=1 n=g6 v=46
51535 On ch=1 n=g6 v=0
51580 On ch=1 n=f6 v=47
51650 On ch=1 n=f6 v=0
51680 On ch=1 n=f#6 v=43
51745 On ch=1 n=f#6 v=0
51790 On ch=1 n=f6 v=41
51840 On ch=1 n=f6 v=0
51885 On ch=1 n=g6 v=44
51945 On ch=1 n=g6 v=0
52000 On ch=1 n=f6 v=52
52060 On ch=1 n=f6 v=0
52105 On ch=1 n=f#6 v=48
52165 On ch=1 n=f#6 v=0
52210 On ch=1 n=f6 v=46
52275 On ch=1 n=f6 v=0
52310 On ch=1 n=g6 v=53
52330 On ch=1 n=g6 v=0
52430 On ch=1 n=a5 v=46
52435 On ch=1 n=f6 v=41
52450 On ch=1 n=d#4 v=38
52455 Par ch=1 c=64 v=40
52465 Par ch=1 c=64 v=72
52475 Par ch=1 c=64 v=88
52490 On ch=1 n=f6 v=0
52490 Par ch=1 c=64 v=104
52500 On ch=1 n=a5 v=0
52500 Par ch=1 c=64 v=127
52515 On ch=1 n=d#4 v=0
52545 On ch=1 n=f#6 v=54
52545 On ch=1 n=c6 v=40
52590 On ch=1 n=c6 v=0
52595 On ch=1 n=f#6 v=0
52625 On ch=1 n=g5 v=50
52630 Par ch=1 c=64 v=104
52640 Par ch=1 c=64 v=88
52650 On ch=1 n=g5 v=0
52650 On ch=1 n=f5 v=60
52650 Par ch=1 c=64 v=56
52655 On ch=1 n=f6 v=63
52660 Par ch=1 c=64 v=40
52670 On ch=1 n=a5 v=31
52675 Par ch=1 c=64 v=0
52695 On ch=1 n=f5 v=0
52705 On ch=1 n=a5 v=0
52715 On ch=1 n=f6 v=0
52755 On ch=1 n=g6 v=69
52755 On ch=1 n=c6 v=40
52800 On ch=1 n=c6 v=0
52800 On ch=1 n=g6 v=0
52875 On ch=1 n=f6 v=56
52880 On ch=1 n=a#5 v=30
52885 On ch=1 n=d4 v=40
52910 On ch=1 n=d4 v=0
52920 On ch=1 n=a#5 v=0
52925 On ch=1 n=f6 v=0
52980 On ch=1 n=f#6 v=37
53005 On ch=1 n=d6 v=26
53015 On ch=1 n=f#6 v=0
53030 On ch=1 n=d6 v=0
53060 On ch=1 n=g5 v=50
53085 On ch=1 n=g5 v=0
53085 On ch=1 n=f6 v=58
53085 On ch=1 n=f5 v=58
53095 On ch=1 n=a#5 v=26
53125 On ch=1 n=a#5 v=0
53135 On ch=1 n=f6 v=0
53140 On ch=1 n=f5 v=0
53180 On ch=1 n=g6 v=66
53180 On ch=1 n=d6 v=40
53225 On ch=1 n=d6 v=0
53235 On ch=1 n=g6 v=0
53295 On ch=1 n=f6 v=66
53305 On ch=1 n=a5 v=41
53310 Par ch=1 c=64 v=24
53315 On ch=1 n=c4 v=35
53325 Par ch=1 c=64 v=56
53330 Par ch=1 c=64 v=88
53340 On ch=1 n=a5 v=0
53345 On ch=1 n=c4 v=0
53345 Par ch=1 c=64 v=104
53360 On ch=1 n=f6 v=0
53405 On ch=1 n=f#6 v=50
53405 Par ch=1 c=64 v=88
53415 On ch=1 n=d#6 v=42
53420 Par ch=1 c=64 v=72
53440 Par ch=1 c=64 v=56
53450 On ch=1 n=d#6 v=0
53450 Par ch=1 c=64 v=40
53455 On ch=1 n=f#6 v=0
53460 Par ch=1 c=64 v=24
53475 Par ch=1 c=64 v=0
53510 On ch=1 n=g5 v=44
53515 On ch=1 n=f6 v=62
53520 On ch=1 n=a5 v=41
53535 On ch=1 n=g5 v=0
53535 On ch=1 n=f5 v=56
53550 On ch=1 n=a5 v=0
53555 On ch=1 n=f5 v=0
53575 On ch=1 n=f6 v=0
53615 On ch=1 n=g6 v=63
53615 On ch=1 n=c6 v=40
53650 On ch=1 n=g6 v=0
53660 On ch=1 n=c6 v=0
53700 Par ch=1 c=64 v=24
53710 Par ch=1 c=64 v=56
53720 Par ch=1 c=64 v=88
53730 Par ch=1 c=64 v=104
53745 On ch=1 n=f6 v=58
53745 Par ch=1 c=64 v=127
53750 On ch=1 n=a#3 v=36
53760 On ch=1 n=a#5 v=36
53790 On ch=1 n=a#3 v=0
53795 On ch=1 n=a#5 v=0
53800 On ch=1 n=f6 v=0
53845 On ch=1 n=f#6 v=55
53845 On ch=1 n=d6 v=40
53875 Par ch=1 c=64 v=104
53885 On ch=1 n=f#6 v=0
53885 Par ch=1 c=64 v=88
53890 On ch=1 n=d6 v=0
53895 Par ch=1 c=64 v=72
53915 Par ch=1 c=64 v=56
53940 On ch=1 n=g5 v=41
53955 On ch=1 n=f#6 v=60
53960 On ch=1 n=a#5 v=35
53965 On ch=1 n=f5 v=62
53970 On ch=1 n=g5 v=0
53980 Par ch=1 c=64 v=72
53995 On ch=1 n=f5 v=0
54000 On ch=1 n=a#5 v=0
54000 Par ch=1 c=64 v=88
54015 Par ch=1 c=64 v=104
54020 On ch=1 n=f#6 v=0
54025 Par ch=1 c=64 v=127
54060 On ch=1 n=g6 v=63
54060 On ch=1 n=d6 v=40
54080 On ch=1 n=g6 v=0
54090 Par ch=1 c=64 v=88
54100 Par ch=1 c=64 v=72
54105 On ch=1 n=d6 v=0
54110 Par ch=1 c=64 v=40
54125 Par ch=1 c=64 v=0
54160 On ch=1 n=g#6 v=65
54160 On ch=1 n=f3 v=50
54170 On ch=1 n=d6 v=42
54200 On ch=1 n=d6 v=0
54220 On ch=1 n=g#6 v=0
54225 On ch=1 n=f3 v=0
54275 On ch=1 n=a6 v=64
54275 On ch=1 n=f6 v=40
54320 On ch=1 n=f6 v=0
54325 On ch=1 n=a6 v=0
54360 On ch=1 n=f#5 v=50
54380 On ch=1 n=a6 v=56
54390 On ch=1 n=f5 v=59
54405 Par ch=1 c=64 v=40
54410 On ch=1 n=f5 v=0
54410 On ch=1 n=f#5 v=0
54410 On ch=1 n=d6 v=19
54430 On ch=1 n=d6 v=0
54455 On ch=1 n=a6 v=0
54480 Par ch=1 c=64 v=24
54490 Par ch=1 c=64 v=0
54505 On ch=1 n=a#6 v=64
54505 On ch=1 n=f6 v=40
54550 On ch=1 n=f6 v=0
54565 On ch=1 n=a#6 v=0
54615 On ch=1 n=a#6 v=53
54620 Par ch=1 c=64 v=24
54630 Par ch=1 c=64 v=56
54635 On ch=1 n=f3 v=56
54640 On ch=1 n=c6 v=46
54640 Par ch=1 c=64 v=88
54650 Par ch=1 c=64 v=127
54660 On ch=1 n=f3 v=0
54670 On ch=1 n=c6 v=0
54680 On ch=1 n=a#6 v=0
54730 On ch=1 n=a6 v=49
54730 On ch=1 n=d#6 v=40
54775 On ch=1 n=d#6 v=0
54780 Par ch=1 c=64 v=104
54785 On ch=1 n=a6 v=0
54790 Par ch=1 c=64 v=88
54800 Par ch=1 c=64 v=72
54815 Par ch=1 c=64 v=56
54825 Par ch=1 c=64 v=40
54835 On ch=1 n=g5 v=52
54835 Par ch=1 c=64 v=24
54855 On ch=1 n=a6 v=44
54860 Par ch=1 c=64 v=0
54870 On ch=1 n=f5 v=53
54870 On ch=1 n=c6 v=40
54880 On ch=1 n=g5 v=0
54890 On ch=1 n=f5 v=0
54900 On ch=1 n=c6 v=0
54905 On ch=1 n=a6 v=0
54965 On ch=1 n=g#6 v=51
54965 On ch=1 n=d#6 v=40
55010 On ch=1 n=d#6 v=0
55010 On ch=1 n=g#6 v=0
55060 Par ch=1 c=64 v=24
55070 On ch=1 n=g#6 v=62
55070 On ch=1 n=a3 v=50
55070 Par ch=1 c=64 v=56
55085 Par ch=1 c=64 v=88
55090 On ch=1 n=c6 v=43
55095 On ch=1 n=a3 v=0
55095 Par ch=1 c=64 v=127
55120 On ch=1 n=c6 v=0
55135 On ch=1 n=g#6 v=0
55195 On ch=1 n=g6 v=66
55195 On ch=1 n=d#6 v=40
55205 Par ch=1 c=64 v=104
55215 Par ch=1 c=64 v=88
55225 Par ch=1 c=64 v=72
55235 On ch=1 n=g6 v=0
55235 Par ch=1 c=64 v=56
55240 On ch=1 n=d#6 v=0
55245 Par ch=1 c=64 v=40
55255 Par ch=1 c=64 v=24
55265 Par ch=1 c=64 v=0
55295 On ch=1 n=g5 v=51
55310 On ch=1 n=g6 v=62
55315 On ch=1 n=f5 v=64
55325 On ch=1 n=g5 v=0
55325 On ch=1 n=c6 v=36
55340 On ch=1 n=f5 v=0
55355 On ch=1 n=c6 v=0
55355 On ch=1 n=g6 v=0
55410 On ch=1 n=f#6 v=56
55410 On ch=1 n=d#6 v=40
55455 On ch=1 n=d#6 v=0
55480 On ch=1 n=f#6 v=0
55525 On ch=1 n=f6 v=64
55525 On ch=1 n=a#3 v=43
55525 On ch=1 n=d6 v=40
55535 Par ch=1 c=64 v=40
55545 Par ch=1 c=64 v=72
55555 Par ch=1 c=64 v=104
55565 Par ch=1 c=64 v=127
55570 On ch=1 n=d6 v=0
55575 On ch=1 n=a#3 v=0
55585 On ch=1 n=f6 v=0
55640 On ch=1 n=f#6 v=57
55650 On ch=1 n=a#5 v=43
55665 Par ch=1 c=64 v=104
55670 Par ch=1 c=64 v=88
55680 Par ch=1 c=64 v=56
55685 Par ch=1 c=64 v=40
55695 Par ch=1 c=64 v=0
55700 On ch=1 n=a#5 v=0
55700 On ch=1 n=f#6 v=0
55725 On ch=1 n=f#5 v=49
55750 On ch=1 n=f5 v=60
55755 On ch=1 n=f#5 v=0
55765 On ch=1 n=f5 v=0
55765 On ch=1 n=f6 v=64
55775 On ch=1 n=d6 v=41
55795 On ch=1 n=d6 v=0
55815 On ch=1 n=f6 v=0
55870 On ch=1 n=a#5 v=47
55875 On ch=1 n=g6 v=61
55910 On ch=1 n=a#5 v=0
55925 On ch=1 n=g6 v=0
55975 On ch=1 n=a5 v=46
55980 On ch=1 n=f6 v=41
55995 On ch=1 n=d#4 v=38
56000 Par ch=1 c=64 v=40
56010 Par ch=1 c=64 v=72
56020 Par ch=1 c=64 v=88
56035 On ch=1 n=f6 v=0
56035 Par ch=1 c=64 v=104
56045 On ch=1 n=a5 v=0
56045 Par ch=1 c=64 v=127
56060 On ch=1 n=d#4 v=0
56090 On ch=1 n=f#6 v=54
56090 On ch=1 n=c6 v=40
56135 On ch=1 n=c6 v=0
56140 On ch=1 n=f#6 v=0
56170 On ch=1 n=g5 v=50
56175 Par ch=1 c=64 v=104
56185 Par ch=1 c=64 v=88
56195 On ch=1 n=g5 v=0
56195 On ch=1 n=f5 v=60
56195 Par ch=1 c=64 v=56
56200 On ch=1 n=f6 v=63
56205 Par ch=1 c=64 v=40
56215 On ch=1 n=a5 v=31
56220 Par ch=1 c=64 v=0
56240 On ch=1 n=f5 v=0
56250 On ch=1 n=a5 v=0
56260 On ch=1 n=f6 v=0
56300 On ch=1 n=g6 v=69
56300 On ch=1 n=c6 v=40
56345 On ch=1 n=c6 v=0
56345 On ch=1 n=g6 v=0
56420 On ch=1 n=f6 v=56
56425 On ch=1 n=a#5 v=30
56430 On ch=1 n=d4 v=40
56455 On ch=1 n=d4 v=0
56465 On ch=1 n=a#5 v=0
56470 On ch=1 n=f6 v=0
56525 On ch=1 n=f#6 v=37
56550 On ch=1 n=d6 v=26
56560 On ch=1 n=f#6 v=0
56575 On ch=1 n=d6 v=0
56605 On ch=1 n=g5 v=50
56630 On ch=1 n=g5 v=0
56630 On ch=1 n=f6 v=58
56630 On ch=1 n=f5 v=58
56640 On ch=1 n=a#5 v=26
56670 On ch=1 n=a#5 v=0
56680 On ch=1 n=f6 v=0
56685 On ch=1 n=f5 v=0
56725 On ch=1 n=g6 v=66
56725 On ch=1 n=d6 v=40
56770 On ch=1 n=d6 v=0
56780 On ch=1 n=g6 v=0
56840 On ch=1 n=f6 v=66
56850 On ch=1 n=a5 v=41
56855 Par ch=1 c=64 v=24
56860 On ch=1 n=c4 v=35
56870 Par ch=1 c=64 v=56
56875 Par ch=1 c=64 v=88
56885 On ch=1 n=a5 v=0
56890 On ch=1 n=c4 v=0
56890 Par ch=1 c=64 v=104
56905 On ch=1 n=f6 v=0
56950 On ch=1 n=f#6 v=50
56950 Par ch=1 c=64 v=88
56960 On ch=1 n=d#6 v=42
56965 Par ch=1 c=64 v=72
56985 Par ch=1 c=64 v=56
56995 On ch=1 n=d#6 v=0
56995 Par ch=1 c=64 v=40
57000 On ch=1 n=f#6 v=0
57005 Par ch=1 c=64 v=24
57020 Par ch=1 c=64 v=0
57055 On ch=1 n=g5 v=44
57060 On ch=1 n=f6 v=62
57065 On ch=1 n=a5 v=41
57080 On ch=1 n=g5 v=0
57080 On ch=1 n=f5 v=56
57095 On ch=1 n=a5 v=0
57100 On ch=1 n=f5 v=0
57120 On ch=1 n=f6 v=0
57160 On ch=1 n=g6 v=63
57160 On ch=1 n=c6 v=40
57195 On ch=1 n=g6 v=0
57205 On ch=1 n=c6 v=0
57245 Par ch=1 c=64 v=24
57255 Par ch=1 c=64 v=56
57265 Par ch=1 c=64 v=88
57275 Par ch=1 c=64 v=104
57290 On ch=1 n=f6 v=58
57290 Par ch=1 c=64 v=127
57295 On ch=1 n=a#3 v=36
57305 On ch=1 n=a#5 v=36
57325 On ch=1 n=a#3 v=0
57330 On ch=1 n=f6 v=0
57340 On ch=1 n=a#5 v=0
57390 On ch=1 n=f#6 v=55
57390 On ch=1 n=d6 v=40
57420 Par ch=1 c=64 v=104
57430 On ch=1 n=f#6 v=0
57430 Par ch=1 c=64 v=88
57435 On ch=1 n=d6 v=0
57440 Par ch=1 c=64 v=72
57460 Par ch=1 c=64 v=56
57485 On ch=1 n=g5 v=41
57500 On ch=1 n=f#6 v=60
57505 On ch=1 n=a#5 v=35
57510 On ch=1 n=f5 v=62
57515 On ch=1 n=g5 v=0
57525 Par ch=1 c=64 v=72
57540 On ch=1 n=f5 v=0
57545 On ch=1 n=a#5 v=0
57545 Par ch=1 c=64 v=88
57560 Par ch=1 c=64 v=104
57565 On ch=1 n=f#6 v=0
57570 Par ch=1 c=64 v=127
57605 On ch=1 n=g6 v=63
57605 On ch=1 n=d6 v=40
57625 On ch=1 n=g6 v=0
57635 Par ch=1 c=64 v=88
57645 Par ch=1 c=64 v=72
57650 On ch=1 n=d6 v=0
57655 Par ch=1 c=64 v=40
57670 Par ch=1 c=64 v=0
57705 On ch=1 n=g#6 v=65
57705 On ch=1 n=f3 v=50
57715 On ch=1 n=d6 v=42
57745 On ch=1 n=d6 v=0
57765 On ch=1 n=g#6 v=0
57770 On ch=1 n=f3 v=0
57820 On ch=1 n=a6 v=64
57820 On ch=1 n=f6 v=40
57865 On ch=1 n=f6 v=0
57870 On ch=1 n=a6 v=0
57905 On ch=1 n=f#5 v=50
57925 On ch=1 n=a6 v=56
57935 On ch=1 n=f5 v=59
57950 Par ch=1 c=64 v=40
57955 On ch=1 n=f5 v=0
57955 On ch=1 n=f#5 v=0
57955 On ch=1 n=d6 v=19
57975 On ch=1 n=d6 v=0
58000 On ch=1 n=a6 v=0
58025 Par ch=1 c=64 v=24
58035 Par ch=1 c=64 v=0
58050 On ch=1 n=a#6 v=64
58050 On ch=1 n=f6 v=40
58095 On ch=1 n=f6 v=0
58110 On ch=1 n=a#6 v=0
58160 On ch=1 n=a#6 v=53
58165 Par ch=1 c=64 v=24
58175 Par ch=1 c=64 v=56
58180 On ch=1 n=f3 v=56
58185 On ch=1 n=c6 v=46
58185 Par ch=1 c=64 v=88
58195 Par ch=1 c=64 v=127
58205 On ch=1 n=f3 v=0
58215 On ch=1 n=c6 v=0
58225 On ch=1 n=a#6 v=0
58275 On ch=1 n=a6 v=49
58275 On ch=1 n=d#6 v=40
58320 On ch=1 n=d#6 v=0
58325 Par ch=1 c=64 v=104
58330 On ch=1 n=a6 v=0
58335 Par ch=1 c=64 v=88
58345 Par ch=1 c=64 v=72
58360 Par ch=1 c=64 v=56
58370 Par ch=1 c=64 v=40
58380 On ch=1 n=g5 v=52
58380 Par ch=1 c=64 v=24
58400 On ch=1 n=a6 v=44
58405 Par ch=1 c=64 v=0
58415 On ch=1 n=f5 v=53
58415 On ch=1 n=c6 v=40
58425 On ch=1 n=g5 v=0
58435 On ch=1 n=f5 v=0
58445 On ch=1 n=c6 v=0
58450 On ch=1 n=a6 v=0
58510 On ch=1 n=g#6 v=51
58510 On ch=1 n=d#6 v=40
58555 On ch=1 n=d#6 v=0
58555 On ch=1 n=g#6 v=0
58605 Par ch=1 c=64 v=24
58615 On ch=1 n=g#6 v=62
58615 On ch=1 n=a3 v=50
58615 Par ch=1 c=64 v=56
58630 Par ch=1 c=64 v=88
58635 On ch=1 n=c6 v=43
58640 On ch=1 n=a3 v=0
58640 Par ch=1 c=64 v=127
58665 On ch=1 n=c6 v=0
58680 On ch=1 n=g#6 v=0
58740 On ch=1 n=g6 v=66
58740 On ch=1 n=d#6 v=40
58750 Par ch=1 c=64 v=104
58760 Par ch=1 c=64 v=88
58770 Par ch=1 c=64 v=72
58780 On ch=1 n=g6 v=0
58780 Par ch=1 c=64 v=56
58785 On ch=1 n=d#6 v=0
58790 Par ch=1 c=64 v=40
58800 Par ch=1 c=64 v=24
58810 Par ch=1 c=64 v=0
58840 On ch=1 n=g5 v=51
58855 On ch=1 n=g6 v=62
58860 On ch=1 n=f5 v=64
58870 On ch=1 n=g5 v=0
58870 On ch=1 n=c6 v=36
58885 On ch=1 n=f5 v=0
58900 On ch=1 n=c6 v=0
58900 On ch=1 n=g6 v=0
58955 On ch=1 n=f#6 v=56
58955 On ch=1 n=d#6 v=40
59000 On ch=1 n=d#6 v=0
59025 On ch=1 n=f#6 v=0
59070 On ch=1 n=f6 v=64
59070 On ch=1 n=a#3 v=43
59070 On ch=1 n=d6 v=40
59080 Par ch=1 c=64 v=40
59090 Par ch=1 c=64 v=72
59100 Par ch=1 c=64 v=104
59110 Par ch=1 c=64 v=127
59115 On ch=1 n=d6 v=0
59120 On ch=1 n=a#3 v=0
59130 On ch=1 n=f6 v=0
59185 On ch=1 n=f#6 v=57
59195 On ch=1 n=a#5 v=43
59210 Par ch=1 c=64 v=104
59215 Par ch=1 c=64 v=88
59225 Par ch=1 c=64 v=56
59230 Par ch=1 c=64 v=40
59240 Par ch=1 c=64 v=0
59245 On ch=1 n=a#5 v=0
59245 On ch=1 n=f#6 v=0
59270 On ch=1 n=f#5 v=49
59295 On ch=1 n=f5 v=60
59300 On ch=1 n=f#5 v=0
59310 On ch=1 n=f5 v=0
59310 On ch=1 n=f6 v=64
59320 On ch=1 n=d6 v=41
59340 On ch=1 n=d6 v=0
59360 On ch=1 n=f6 v=0
59420 On ch=1 n=a6 v=61
59470 On ch=1 n=a6 v=0
59520 On ch=1 n=a#6 v=64
59530 On ch=1 n=d6 v=62
59530 On ch=1 n=g#4 v=43
59580 On ch=1 n=g#4 v=0
59580 On ch=1 n=d6 v=0
59600 On ch=1 n=a#6 v=0
59635 On ch=1 n=b6 v=66
59645 On ch=1 n=f6 v=55
59685 On ch=1 n=f6 v=0
59705 On ch=1 n=b6 v=0
59735 On ch=1 n=b5 v=37
59750 On ch=1 n=d6 v=52
59750 On ch=1 n=a#6 v=65
59755 On ch=1 n=a#5 v=54
59760 On ch=1 n=b5 v=0
59770 On ch=1 n=a#5 v=0
59800 On ch=1 n=d6 v=0
59820 On ch=1 n=a#6 v=0
59855 On ch=1 n=c7 v=66
59860 On ch=1 n=f6 v=30
59885 On ch=1 n=f6 v=0
59960 On ch=1 n=c7 v=0
59975 On ch=1 n=a#6 v=60
59980 On ch=1 n=g4 v=44
59980 On ch=1 n=d#6 v=39
60020 On ch=1 n=g4 v=0
60035 On ch=1 n=d#6 v=0
60050 On ch=1 n=a#6 v=0
60085 On ch=1 n=b6 v=66
60100 On ch=1 n=g6 v=44
60125 On ch=1 n=g6 v=0
60155 On ch=1 n=b6 v=0
60175 On ch=1 n=c6 v=48
60190 On ch=1 n=d#6 v=55
60205 On ch=1 n=a#6 v=44
60210 On ch=1 n=a#5 v=50
60220 On ch=1 n=c6 v=0
60230 On ch=1 n=a#5 v=0
60235 On ch=1 n=d#6 v=0
60270 On ch=1 n=a#6 v=0
60305 On ch=1 n=c7 v=67
60310 On ch=1 n=a#6 v=38
60350 On ch=1 n=a#6 v=0
60380 On ch=1 n=c7 v=0
60420 On ch=1 n=a#6 v=57
60430 On ch=1 n=f6 v=56
60435 On ch=1 n=d4 v=44
60460 On ch=1 n=d4 v=0
60495 On ch=1 n=f6 v=0
60505 On ch=1 n=a#6 v=0
60535 On ch=1 n=b6 v=64
60535 On ch=1 n=g#6 v=50
60595 On ch=1 n=g#6 v=0
60615 On ch=1 n=b5 v=54
60625 On ch=1 n=b6 v=0
60640 On ch=1 n=a#6 v=54
60645 On ch=1 n=b5 v=0
60645 On ch=1 n=a#5 v=42
60650 On ch=1 n=f6 v=52
60665 On ch=1 n=a#5 v=0
60675 On ch=1 n=f6 v=0
60720 On ch=1 n=a#6 v=0
60745 On ch=1 n=g#6 v=46
60750 On ch=1 n=c7 v=74
60800 On ch=1 n=g#6 v=0
60820 On ch=1 n=c7 v=0
60865 On ch=1 n=a#6 v=58
60865 On ch=1 n=d#4 v=40
60870 On ch=1 n=d#6 v=46
60895 On ch=1 n=d#4 v=0
60940 On ch=1 n=a#6 v=0
60945 On ch=1 n=d#6 v=0
60980 On ch=1 n=b6 v=68
60990 On ch=1 n=g6 v=45
61015 On ch=1 n=g6 v=0
61025 On ch=1 n=b6 v=0
61080 On ch=1 n=c6 v=53
61085 On ch=1 n=d#6 v=58
61085 On ch=1 n=b6 v=69
61100 On ch=1 n=c6 v=0
61105 On ch=1 n=g6 v=36
61110 On ch=1 n=a#5 v=45
61120 On ch=1 n=a#5 v=0
61130 On ch=1 n=d#6 v=0
61150 On ch=1 n=b6 v=0
61165 On ch=1 n=g6 v=0
61190 On ch=1 n=c7 v=70
61240 On ch=1 n=c7 v=0
61300 On ch=1 n=c#7 v=73
61310 On ch=1 n=g6 v=58
61310 On ch=1 n=a#3 v=51
61350 On ch=1 n=a#3 v=0
61370 On ch=1 n=g6 v=0
61375 On ch=1 n=c#7 v=0
61420 On ch=1 n=d7 v=73
61425 On ch=1 n=a#6 v=48
61465 On ch=1 n=a#6 v=0
61475 On ch=1 n=d7 v=0
61495 On ch=1 n=c6 v=60
61530 On ch=1 n=d7 v=78
61535 On ch=1 n=g6 v=61
61535 On ch=1 n=a#5 v=55
61540 On ch=1 n=c6 v=0
61550 On ch=1 n=a#5 v=0
61580 On ch=1 n=g6 v=0
61610 On ch=1 n=d7 v=0
61645 On ch=1 n=d#7 v=73
61650 On ch=1 n=a#6 v=42
61700 On ch=1 n=a#6 v=0
61700 On ch=1 n=d#7 v=0
61755 On ch=1 n=a#3 v=56
61755 On ch=1 n=d#7 v=74
61765 On ch=1 n=f6 v=64
61795 On ch=1 n=a#3 v=0
61820 On ch=1 n=d#7 v=0
61830 On ch=1 n=f6 v=0
61865 On ch=1 n=d7 v=74
61870 On ch=1 n=g#6 v=56
61915 On ch=1 n=g#6 v=0
61925 On ch=1 n=d7 v=0
61970 On ch=1 n=c6 v=60
61980 On ch=1 n=d7 v=75
61985 On ch=1 n=f6 v=62
61995 On ch=1 n=a#5 v=53
62010 On ch=1 n=c6 v=0
62030 On ch=1 n=a#5 v=0
62035 On ch=1 n=f6 v=0
62035 On ch=1 n=d7 v=0
62085 On ch=1 n=c#7 v=72
62090 On ch=1 n=g#6 v=58
62135 On ch=1 n=g#6 v=0
62135 On ch=1 n=c#7 v=0
62195 On ch=1 n=c#7 v=65
62205 On ch=1 n=d4 v=58
62210 On ch=1 n=f6 v=62
62225 On ch=1 n=d4 v=0
62250 On ch=1 n=f6 v=0
62265 On ch=1 n=c#7 v=0
62315 On ch=1 n=c7 v=64
62320 On ch=1 n=g#6 v=52
62355 On ch=1 n=c7 v=0
62360 On ch=1 n=g#6 v=0
62380 On ch=1 n=c6 v=57
62420 On ch=1 n=c6 v=0
62420 On ch=1 n=c7 v=72
62425 On ch=1 n=a#5 v=56
62430 On ch=1 n=f6 v=49
62440 On ch=1 n=a#5 v=0
62460 On ch=1 n=f6 v=0
62480 On ch=1 n=c7 v=0
62535 On ch=1 n=b6 v=70
62540 On ch=1 n=g#6 v=40
62600 On ch=1 n=b6 v=0
62610 On ch=1 n=g#6 v=0
62655 On ch=1 n=a#6 v=51
62660 On ch=1 n=d#6 v=35
62670 On ch=1 n=d#4 v=37
62720 On ch=1 n=d#4 v=0
62720 On ch=1 n=d#6 v=0
62720 On ch=1 n=a#6 v=0
62765 On ch=1 n=b6 v=60
62835 On ch=1 n=b6 v=0
62850 On ch=1 n=b5 v=24
62875 On ch=1 n=d#6 v=34
62880 On ch=1 n=a#5 v=56
62880 On ch=1 n=a#6 v=50
62885 On ch=1 n=b5 v=0
62920 On ch=1 n=a#5 v=0
62920 On ch=1 n=d#6 v=0
62935 On ch=1 n=a#6 v=0
62995 On ch=1 n=c7 v=70
63055 On ch=1 n=c7 v=0
63110 On ch=1 n=a#6 v=62
63115 On ch=1 n=g#4 v=32
63120 On ch=1 n=d6 v=59
63170 On ch=1 n=g#4 v=0
63175 On ch=1 n=d6 v=0
63195 On ch=1 n=a#6 v=0
63230 On ch=1 n=b6 v=68
63235 On ch=1 n=f6 v=49
63265 On ch=1 n=f6 v=0
63305 On ch=1 n=b5 v=54
63310 On ch=1 n=b6 v=0
63335 On ch=1 n=d6 v=51
63345 On ch=1 n=b5 v=0
63345 On ch=1 n=a#5 v=50
63350 On ch=1 n=a#6 v=61
63365 On ch=1 n=a#5 v=0
63395 On ch=1 n=d6 v=0
63430 On ch=1 n=a#6 v=0
63455 On ch=1 n=c7 v=73
63540 On ch=1 n=c7 v=0
63565 On ch=1 n=d#6 v=52
63570 On ch=1 n=a#6 v=58
63580 On ch=1 n=g4 v=45
63600 On ch=1 n=g4 v=0
63635 On ch=1 n=a#6 v=0
63635 On ch=1 n=d#6 v=0
63675 On ch=1 n=b6 v=69
63695 On ch=1 n=g6 v=27
63715 On ch=1 n=g6 v=0
63725 On ch=1 n=b6 v=0
63755 On ch=1 n=c6 v=62
63780 On ch=1 n=a#6 v=71
63785 On ch=1 n=d#6 v=55
63795 On ch=1 n=c6 v=0
63795 On ch=1 n=a#5 v=60
63825 On ch=1 n=a#5 v=0
63835 On ch=1 n=d#6 v=0
63865 On ch=1 n=a#6 v=0
63895 On ch=1 n=c7 v=74
63975 On ch=1 n=c7 v=0
64010 On ch=1 n=a#6 v=62
64020 On ch=1 n=f6 v=55
64025 On ch=1 n=d4 v=49
64045 On ch=1 n=d4 v=0
64090 On ch=1 n=f6 v=0
64095 On ch=1 n=a#6 v=0
64120 On ch=1 n=b6 v=63
64130 On ch=1 n=g#6 v=60
64180 On ch=1 n=g#6 v=0
64210 On ch=1 n=c6 v=58
64215 On ch=1 n=b6 v=0
64240 On ch=1 n=a#6 v=59
64240 On ch=1 n=a#5 v=61
64240 On ch=1 n=f6 v=57
64255 On ch=1 n=c6 v=0
64265 On ch=1 n=a#5 v=0
64270 On ch=1 n=f6 v=0
64320 On ch=1 n=a#6 v=0
64350 On ch=1 n=g#6 v=50
64350 On ch=1 n=c7 v=74
64405 On ch=1 n=g#6 v=0
64415 On ch=1 n=c7 v=0
64470 On ch=1 n=a#6 v=58
64470 On ch=1 n=d#4 v=40
64475 On ch=1 n=d#6 v=51
64500 On ch=1 n=d#4 v=0
64545 On ch=1 n=d#6 v=0
64555 On ch=1 n=a#6 v=0
64585 On ch=1 n=b6 v=70
64630 On ch=1 n=b6 v=0
64675 On ch=1 n=b5 v=62
64695 On ch=1 n=b6 v=70
64695 On ch=1 n=d#6 v=58
64715 On ch=1 n=b5 v=0
64715 On ch=1 n=a#5 v=62
64725 On ch=1 n=g6 v=22
64740 On ch=1 n=a#5 v=0
64745 On ch=1 n=d#6 v=0
64770 On ch=1 n=b6 v=0
64785 On ch=1 n=g6 v=0
64810 On ch=1 n=c7 v=81
64870 On ch=1 n=c7 v=0
64920 On ch=1 n=c#7 v=74
64930 On ch=1 n=g6 v=57
64930 On ch=1 n=a#3 v=52
64975 On ch=1 n=a#3 v=0
64990 On ch=1 n=g6 v=0
65005 On ch=1 n=c#7 v=0
65040 On ch=1 n=d7 v=76
65045 On ch=1 n=a#6 v=60
65080 On ch=1 n=a#6 v=0
65095 On ch=1 n=d7 v=0
65120 On ch=1 n=c6 v=54
65155 On ch=1 n=d7 v=74
65155 On ch=1 n=g6 v=66
65165 On ch=1 n=c6 v=0
65165 On ch=1 n=a#5 v=42
65185 On ch=1 n=a#5 v=0
65205 On ch=1 n=g6 v=0
65240 On ch=1 n=d7 v=0
65275 On ch=1 n=d#7 v=78
65280 On ch=1 n=a#6 v=50
65320 On ch=1 n=a#6 v=0
65335 On ch=1 n=d#7 v=0
65385 On ch=1 n=d#7 v=78
65390 On ch=1 n=a#3 v=50
65395 On ch=1 n=f6 v=64
65435 On ch=1 n=a#3 v=0
65455 On ch=1 n=d#7 v=0
65470 On ch=1 n=f6 v=0
65495 On ch=1 n=d7 v=67
65505 On ch=1 n=g#6 v=50
65545 On ch=1 n=g#6 v=0
65555 On ch=1 n=d7 v=0
65615 On ch=1 n=b5 v=47
65620 On ch=1 n=d7 v=66
65630 On ch=1 n=f6 v=53
65640 On ch=1 n=a#5 v=58
65645 On ch=1 n=b5 v=0
65670 On ch=1 n=d7 v=0
65675 On ch=1 n=a#5 v=0
65685 On ch=1 n=f6 v=0
65730 On ch=1 n=c#7 v=76
65735 On ch=1 n=g#6 v=60
65790 On ch=1 n=g#6 v=0
65790 On ch=1 n=c#7 v=0
65850 On ch=1 n=c#7 v=67
65860 On ch=1 n=d4 v=51
65860 On ch=1 n=f6 v=63
65900 On ch=1 n=d4 v=0
65925 On ch=1 n=f6 v=0
65940 On ch=1 n=c#7 v=0
65970 On ch=1 n=c7 v=73
65970 On ch=1 n=g#6 v=54
66025 On ch=1 n=c7 v=0
66035 On ch=1 n=g#6 v=0
66070 On ch=1 n=c6 v=58
66085 On ch=1 n=c7 v=72
66095 On ch=1 n=f6 v=52
66115 On ch=1 n=c6 v=0
66115 On ch=1 n=a#5 v=59
66150 On ch=1 n=a#5 v=0
66155 On ch=1 n=f6 v=0
66155 On ch=1 n=c7 v=0
66205 On ch=1 n=g#6 v=60
66205 On ch=1 n=b6 v=74
66265 On ch=1 n=g#6 v=0
66300 On ch=1 n=b6 v=0
66315 Par ch=1 c=64 v=88
66320 Par ch=1 c=64 v=56
66325 On ch=1 n=a#6 v=53
66330 Par ch=1 c=64 v=24
66340 On ch=1 n=d#4 v=40
66340 Par ch=1 c=64 v=0
66425 On ch=1 n=a#6 v=0
66425 Par ch=1 c=64 v=24
66430 Par ch=1 c=64 v=72
66440 Par ch=1 c=64 v=127
66450 On ch=1 n=b6 v=69
66455 On ch=1 n=d#6 v=47
66515 On ch=1 n=b6 v=0
66540 On ch=1 n=d#6 v=0
66555 On ch=1 n=a#6 v=61
66585 On ch=1 n=a#6 v=0
66630 On ch=1 n=d#4 v=0
66690 On ch=1 n=d#7 v=80
66715 On ch=1 n=d#7 v=69
66720 On ch=1 n=d#7 v=0
66740 On ch=1 n=d#7 v=0
66740 Par ch=1 c=64 v=104
66810 Par ch=1 c=64 v=88
66825 Par ch=1 c=64 v=24
66835 Par ch=1 c=64 v=0
66855 On ch=1 n=g7 v=89
66865 On ch=1 n=b2 v=55
66875 On ch=1 n=b3 v=48
66875 On ch=1 n=g#6 v=63
66930 On ch=1 n=b2 v=0
66935 On ch=1 n=g#6 v=0
66945 Par ch=1 c=64 v=72
66960 On ch=1 n=b3 v=0
66960 On ch=1 n=g7 v=0
66960 Par ch=1 c=64 v=127
66995 On ch=1 n=e7 v=84
66995 On ch=1 n=d7 v=70
67055 On ch=1 n=d7 v=0
67130 On ch=1 n=g7 v=86
67130 On ch=1 n=g#4 v=37
67130 On ch=1 n=g#6 v=56
67135 On ch=1 n=e7 v=0
67140 On ch=1 n=d5 v=52
67140 On ch=1 n=f4 v=42
67195 On ch=1 n=g#6 v=0
67195 On ch=1 n=g#4 v=0
67200 On ch=1 n=f4 v=0
67200 On ch=1 n=d5 v=0
67210 On ch=1 n=g7 v=0
67250 On ch=1 n=f7 v=90
67250 On ch=1 n=d7 v=70
67310 On ch=1 n=d7 v=0
67330 On ch=1 n=f7 v=0
67405 On ch=1 n=f7 v=82
67405 On ch=1 n=d#5 v=65
67410 On ch=1 n=c4 v=47
67410 Par ch=1 c=64 v=88
67420 On ch=1 n=g4 v=44
67420 Par ch=1 c=64 v=24
67430 On ch=1 n=g6 v=42
67435 Par ch=1 c=64 v=0
67475 On ch=1 n=g6 v=0
67520 On ch=1 n=f7 v=0
67540 On ch=1 n=d7 v=80
67550 Par ch=1 c=64 v=88
67560 On ch=1 n=c7 v=55
67565 Par ch=1 c=64 v=127
67590 On ch=1 n=c7 v=0
67600 On ch=1 n=d#5 v=0
67630 On ch=1 n=g4 v=0
67635 On ch=1 n=d7 v=0
67660 On ch=1 n=c4 v=0
67665 On ch=1 n=f7 v=84
67680 On ch=1 n=g6 v=55
67730 On ch=1 n=g6 v=0
67755 On ch=1 n=f7 v=0
67790 On ch=1 n=d#7 v=81
67825 On ch=1 n=c7 v=31
67845 On ch=1 n=c7 v=0
67885 On ch=1 n=d#7 v=0
67910 Par ch=1 c=64 v=72
67925 Par ch=1 c=64 v=0
67945 On ch=1 n=d#7 v=77
67950 On ch=1 n=d3 v=57
67960 On ch=1 n=f6 v=59
67965 On ch=1 n=d4 v=48
67990 On ch=1 n=f6 v=0
68015 On ch=1 n=d3 v=0
68030 Par ch=1 c=64 v=88
68040 On ch=1 n=d#7 v=0
68045 On ch=1 n=d4 v=0
68045 Par ch=1 c=64 v=127
68075 On ch=1 n=c#7 v=77
68105 On ch=1 n=b6 v=39
68140 On ch=1 n=b6 v=0
68175 On ch=1 n=c#7 v=0
68210 On ch=1 n=d#7 v=80
68225 On ch=1 n=b4 v=47
68225 On ch=1 n=f6 v=63
68225 On ch=1 n=f5 v=56
68235 On ch=1 n=g#4 v=44
68255 On ch=1 n=f6 v=0
68270 On ch=1 n=b4 v=0
68275 On ch=1 n=f5 v=0
68290 On ch=1 n=d#7 v=0
68295 On ch=1 n=g#4 v=0
68335 On ch=1 n=d7 v=87
68400 On ch=1 n=d7 v=0
68410 On ch=1 n=d#4 v=62
68415 Par ch=1 c=64 v=104
68425 Par ch=1 c=64 v=0
68435 On ch=1 n=c5 v=65
68460 On ch=1 n=d#4 v=0
68495 Par ch=1 c=64 v=56
68500 On ch=1 n=d7 v=76
68505 Par ch=1 c=64 v=127
68510 On ch=1 n=c5 v=0
68510 On ch=1 n=g5 v=71
68515 On ch=1 n=d#6 v=40
68540 On ch=1 n=g5 v=0
68565 On ch=1 n=d#6 v=0
68580 On ch=1 n=d7 v=0
68630 On ch=1 n=b6 v=73
68660 On ch=1 n=g6 v=31
68685 On ch=1 n=g6 v=0
68725 On ch=1 n=b6 v=0
68755 On ch=1 n=d7 v=80
68765 On ch=1 n=d#6 v=54
68830 On ch=1 n=d#6 v=0
68830 On ch=1 n=d7 v=0
68880 On ch=1 n=c7 v=78
68895 On ch=1 n=g6 v=58
68920 On ch=1 n=g6 v=0
68955 On ch=1 n=c7 v=0
69050 On ch=1 n=c7 v=75
69065 Par ch=1 c=64 v=88
69070 On ch=1 n=g6 v=53
69075 On ch=1 n=e3 v=50
69075 Par ch=1 c=64 v=24
69090 Par ch=1 c=64 v=0
69145 On ch=1 n=g6 v=0
69160 On ch=1 n=c7 v=0
69170 Par ch=1 c=64 v=40
69180 Par ch=1 c=64 v=104
69195 On ch=1 n=a6 v=69
69195 Par ch=1 c=64 v=127
69215 On ch=1 n=c#6 v=39
69260 On ch=1 n=c#6 v=0
69280 On ch=1 n=a6 v=0
69305 On ch=1 n=e3 v=0
69315 On ch=1 n=c7 v=71
69315 On ch=1 n=a#3 v=51
69335 On ch=1 n=g6 v=60
69390 On ch=1 n=c7 v=0
69405 On ch=1 n=g6 v=0
69445 On ch=1 n=a#6 v=71
69465 On ch=1 n=c#6 v=45
69495 On ch=1 n=c#6 v=0
69510 On ch=1 n=a#6 v=0
69565 On ch=1 n=a#3 v=0
69580 On ch=1 n=a6 v=75
69585 On ch=1 n=c#6 v=57
69595 On ch=1 n=e4 v=38
69645 On ch=1 n=a6 v=0
69660 On ch=1 n=c#6 v=0
69710 On ch=1 n=f#6 v=69
69720 On ch=1 n=a#5 v=53
69780 On ch=1 n=a#5 v=0
69805 On ch=1 n=f#6 v=0
69835 On ch=1 n=a6 v=70
69850 On ch=1 n=e4 v=0
69850 On ch=1 n=c#6 v=51
69850 On ch=1 n=a#4 v=28
69910 On ch=1 n=a#4 v=0
69910 On ch=1 n=a6 v=0
69915 On ch=1 n=c#6 v=0
69965 On ch=1 n=g6 v=75
69985 On ch=1 n=a#5 v=40
70015 On ch=1 n=a#5 v=0
70020 On ch=1 n=g6 v=0
70115 On ch=1 n=f6 v=80
70120 On ch=1 n=c#5 v=51
70120 On ch=1 n=g4 v=50
70120 On ch=1 n=a#5 v=55
70120 Par ch=1 c=64 v=88
70135 Par ch=1 c=64 v=40
70140 On ch=1 n=a#5 v=0
70145 Par ch=1 c=64 v=0
70190 Par ch=1 c=64 v=72
70200 On ch=1 n=f6 v=0
70200 Par ch=1 c=64 v=104
70215 Par ch=1 c=64 v=127
70240 On ch=1 n=d#6 v=71
70255 On ch=1 n=g5 v=55
70290 On ch=1 n=g5 v=0
70310 On ch=1 n=d#6 v=0
70390 On ch=1 n=f6 v=73
70400 On ch=1 n=c#6 v=53
70400 On ch=1 n=a#4 v=33
70405 On ch=1 n=c#5 v=0
70465 On ch=1 n=c#6 v=0
70465 On ch=1 n=f6 v=0
70470 On ch=1 n=g4 v=0
70525 On ch=1 n=e6 v=78
70525 On ch=1 n=g5 v=67
70585 On ch=1 n=g5 v=0
70595 On ch=1 n=e6 v=0
70605 On ch=1 n=a#4 v=0
70655 On ch=1 n=f4 v=54
70755 On ch=1 n=g6 v=84
70765 On ch=1 n=d5 v=54
70770 On ch=1 n=a#5 v=60
70770 Par ch=1 c=64 v=72
70780 Par ch=1 c=64 v=0
70885 On ch=1 n=a#5 v=0
70895 On ch=1 n=g6 v=0
70915 Par ch=1 c=64 v=72
70930 Par ch=1 c=64 v=127
70940 On ch=1 n=f5 v=55
71070 On ch=1 n=a#5 v=60
71130 On ch=1 n=f5 v=0
71195 On ch=1 n=a#5 v=0
71200 On ch=1 n=f6 v=72
71265 On ch=1 n=f6 v=0
71295 On ch=1 n=f4 v=0
71320 On ch=1 n=d5 v=0
71345 On ch=1 n=d6 v=70
71360 On ch=1 n=g#5 v=57
71365 On ch=1 n=b4 v=34
71375 Par ch=1 c=64 v=88
71385 On ch=1 n=f4 v=30
71390 Par ch=1 c=64 v=24
71405 Par ch=1 c=64 v=0
71475 On ch=1 n=g#5 v=0
71500 On ch=1 n=f5 v=52
71510 Par ch=1 c=64 v=56
71525 Par ch=1 c=64 v=104
71535 Par ch=1 c=64 v=127
71605 On ch=1 n=d6 v=0
71625 On ch=1 n=g#5 v=55
71695 On ch=1 n=f5 v=0
71745 On ch=1 n=g#5 v=0
71745 On ch=1 n=d#6 v=71
71830 On ch=1 n=d#6 v=0
71900 On ch=1 n=d6 v=73
71905 On ch=1 n=b4 v=0
71910 On ch=1 n=a#5 v=40
71920 On ch=1 n=c5 v=42
71920 Par ch=1 c=64 v=56
71930 On ch=1 n=e5 v=27
71935 Par ch=1 c=64 v=0
71980 On ch=1 n=e5 v=0
71990 On ch=1 n=a#5 v=0
72040 Par ch=1 c=64 v=72
72050 On ch=1 n=g5 v=58
72055 Par ch=1 c=64 v=127
72115 On ch=1 n=d6 v=0
72145 On ch=1 n=c5 v=0
72175 On ch=1 n=f4 v=0
72195 On ch=1 n=e5 v=43
72300 On ch=1 n=g5 v=0
72310 On ch=1 n=c6 v=71
72345 On ch=1 n=e5 v=0
72360 On ch=1 n=c6 v=0
72450 On ch=1 n=g5 v=76
72460 On ch=1 n=d#5 v=46
72465 Par ch=1 c=64 v=88
72475 On ch=1 n=e3 v=45
72475 Par ch=1 c=64 v=0
72555 Par ch=1 c=64 v=24
72570 Par ch=1 c=64 v=88
72575 On ch=1 n=e3 v=0
72580 On ch=1 n=d#5 v=0
72580 Par ch=1 c=64 v=127
72595 On ch=1 n=c5 v=58
72595 On ch=1 n=f3 v=46
72685 On ch=1 n=f3 v=0
72705 On ch=1 n=e3 v=52
72725 On ch=1 n=d#5 v=45
72745 On ch=1 n=c5 v=0
72785 On ch=1 n=e3 v=0
72835 On ch=1 n=g5 v=0
72845 On ch=1 n=f3 v=47
72850 On ch=1 n=d#5 v=0
72855 On ch=1 n=a5 v=75
72905 On ch=1 n=a5 v=0
73010 On ch=1 n=c6 v=77
73020 Par ch=1 c=64 v=88
73030 On ch=1 n=d5 v=53
73030 On ch=1 n=f4 v=54
73035 Par ch=1 c=64 v=40
73045 Par ch=1 c=64 v=0
73120 On ch=1 n=d5 v=0
73150 On ch=1 n=f5 v=57
73270 Par ch=1 c=64 v=40
73275 On ch=1 n=f5 v=0
73280 Par ch=1 c=64 v=72
73295 On ch=1 n=d5 v=49
73295 Par ch=1 c=64 v=88
73310 Par ch=1 c=64 v=104
73325 Par ch=1 c=64 v=127
73375 On ch=1 n=c6 v=0
73415 On ch=1 n=a#5 v=64
73430 On ch=1 n=d5 v=0
73465 On ch=1 n=a#5 v=0
73505 On ch=1 n=f3 v=0
73520 On ch=1 n=f4 v=0
73580 On ch=1 n=g5 v=69
73600 On ch=1 n=f3 v=43
73600 On ch=1 n=b3 v=40
73605 On ch=1 n=g#4 v=47
73655 Par ch=1 c=64 v=88
73670 Par ch=1 c=64 v=0
73740 On ch=1 n=g#4 v=0
73745 On ch=1 n=d5 v=57
73775 Par ch=1 c=64 v=56
73785 Par ch=1 c=64 v=104
73800 Par ch=1 c=64 v=127
73845 On ch=1 n=d5 v=0
73880 On ch=1 n=g#4 v=43
73935 On ch=1 n=g5 v=0
73975 On ch=1 n=g#4 v=0
73995 On ch=1 n=f5 v=65
74005 On ch=1 n=d5 v=51
74035 On ch=1 n=d5 v=0
74065 On ch=1 n=f5 v=0
74125 On ch=1 n=b3 v=0
74140 On ch=1 n=f5 v=74
74160 On ch=1 n=g4 v=48
74160 On ch=1 n=c4 v=40
74180 Par ch=1 c=64 v=104
74195 Par ch=1 c=64 v=24
74210 Par ch=1 c=64 v=0
74280 On ch=1 n=g4 v=0
74290 On ch=1 n=c5 v=66
74305 Par ch=1 c=64 v=72
74315 Par ch=1 c=64 v=127
74385 On ch=1 n=c5 v=0
74430 On ch=1 n=g4 v=55
74475 On ch=1 n=f5 v=0
74545 On ch=1 n=d#5 v=65
74575 On ch=1 n=g4 v=0
74595 On ch=1 n=d#5 v=0
74660 On ch=1 n=c4 v=0
74660 On ch=1 n=f3 v=0
74700 On ch=1 n=c5 v=64
74710 On ch=1 n=f#3 v=54
74720 On ch=1 n=d#4 v=40
74740 Par ch=1 c=64 v=104
74750 Par ch=1 c=64 v=56
74765 Par ch=1 c=64 v=0
74845 On ch=1 n=d#4 v=0
74875 On ch=1 n=a4 v=44
74885 Par ch=1 c=64 v=56
74900 Par ch=1 c=64 v=104
74910 Par ch=1 c=64 v=127
74925 On ch=1 n=a4 v=0
74960 Par ch=1 c=64 v=40
74965 On ch=1 n=f#3 v=0
74980 Par ch=1 c=64 v=0
74985 On ch=1 n=f3 v=52
74990 On ch=1 n=d#4 v=43
75045 Par ch=1 c=64 v=40
75055 Par ch=1 c=64 v=104
75070 Par ch=1 c=64 v=127
75095 On ch=1 n=d#4 v=0
75105 On ch=1 n=c5 v=0
75115 On ch=1 n=f3 v=0
75140 On ch=1 n=d5 v=53
75145 On ch=1 n=a4 v=43
75175 On ch=1 n=a4 v=0
75205 On ch=1 n=d5 v=0
75315 On ch=1 n=a#4 v=50
75325 On ch=1 n=d4 v=48
75330 On ch=1 n=a#2 v=45
75360 Par ch=1 c=64 v=88
75375 Par ch=1 c=64 v=40
75600 On ch=1 n=d4 v=66
75625 On ch=1 n=a#4 v=30
75635 On ch=1 n=f4 v=21
75645 On ch=1 n=d4 v=0
75665 On ch=1 n=a#2 v=0
75665 On ch=1 n=a#4 v=0
75695 On ch=1 n=d4 v=0
75700 On ch=1 n=a#4 v=0
75720 On ch=1 n=f4 v=0
75730 On ch=1 n=d5 v=41
75765 On ch=1 n=d5 v=0
75875 On ch=1 n=c4 v=64
75885 On ch=1 n=a#4 v=25
75915 On ch=1 n=f#4 v=25
75955 On ch=1 n=f#4 v=0
75965 On ch=1 n=c4 v=0
75970 On ch=1 n=a#4 v=0
75995 On ch=1 n=d5 v=40
76035 On ch=1 n=d5 v=0
76140 On ch=1 n=b3 v=62
76155 On ch=1 n=a#4 v=27
76165 On ch=1 n=g4 v=38
76245 On ch=1 n=a#4 v=0
76250 On ch=1 n=g4 v=0
76260 On ch=1 n=d5 v=38
76300 On ch=1 n=d5 v=0
76320 On ch=1 n=b3 v=0
76395 On ch=1 n=a#3 v=57
76415 On ch=1 n=f#4 v=34
76430 On ch=1 n=a#4 v=19
76495 On ch=1 n=f#4 v=0
76510 On ch=1 n=a#4 v=0
76510 On ch=1 n=a#3 v=0
76530 On ch=1 n=d5 v=40
76570 On ch=1 n=d5 v=0
76660 On ch=1 n=d4 v=66
76680 On ch=1 n=a#4 v=31
76690 On ch=1 n=f4 v=33
76745 On ch=1 n=d4 v=0
76760 On ch=1 n=a#4 v=0
76775 On ch=1 n=f4 v=0
76780 On ch=1 n=d5 v=36
76820 On ch=1 n=d5 v=0
76930 On ch=1 n=c4 v=64
76940 On ch=1 n=f#4 v=35
76940 On ch=1 n=a#4 v=25
77010 On ch=1 n=f#4 v=0
77020 On ch=1 n=c4 v=0
77025 On ch=1 n=a#4 v=0
77060 On ch=1 n=b3 v=64
77060 On ch=1 n=d5 v=42
77145 On ch=1 n=d5 v=0
77165 On ch=1 n=b3 v=0
77190 On ch=1 n=a#3 v=50
77200 On ch=1 n=a#4 v=31
77215 On ch=1 n=g4 v=34
77300 On ch=1 n=a#4 v=0
77305 On ch=1 n=g4 v=0
77315 On ch=1 n=a#3 v=0
77330 On ch=1 n=d5 v=46
77400 On ch=1 n=d5 v=0
77455 On ch=1 n=f#4 v=43
77495 On ch=1 n=a4 v=45
77535 On ch=1 n=d#5 v=55
77550 On ch=1 n=f#4 v=0
77555 Par ch=1 c=64 v=24
77565 On ch=1 n=a4 v=0
77565 Par ch=1 c=64 v=72
77575 Par ch=1 c=64 v=127
77590 On ch=1 n=d#5 v=0
77760 Par ch=1 c=64 v=88
77770 Par ch=1 c=64 v=40
77785 Par ch=1 c=64 v=0
77805 On ch=1 n=d#7 v=69
77810 On ch=1 n=a6 v=55
77815 On ch=1 n=f#6 v=54
77845 On ch=1 n=f#6 v=0
77855 On ch=1 n=a6 v=0
77895 On ch=1 n=d#7 v=0
77940 On ch=1 n=c7 v=63
78030 On ch=1 n=c7 v=0
78055 On ch=1 n=g#6 v=69
78070 On ch=1 n=b5 v=39
78075 On ch=1 n=d6 v=46
78115 On ch=1 n=d6 v=0
78125 On ch=1 n=b5 v=0
78140 On ch=1 n=g#6 v=0
78185 On ch=1 n=f6 v=64
78300 On ch=1 n=f6 v=0
78315 On ch=1 n=d#6 v=46
78320 On ch=1 n=a6 v=66
78340 On ch=1 n=c6 v=34
78360 On ch=1 n=d#6 v=0
78365 On ch=1 n=c6 v=0
78395 On ch=1 n=a6 v=0
78425 On ch=1 n=f#6 v=58
78545 On ch=1 n=f#6 v=0
78565 On ch=1 n=d6 v=59
78570 On ch=1 n=g#5 v=38
78580 On ch=1 n=f5 v=36
78615 On ch=1 n=f5 v=0
78615 On ch=1 n=g#5 v=0
78655 On ch=1 n=d6 v=0
78695 On ch=1 n=b5 v=52
78795 On ch=1 n=b5 v=0
78820 On ch=1 n=d#6 v=56
78830 On ch=1 n=a5 v=41
78830 On ch=1 n=f#5 v=34
78870 On ch=1 n=a5 v=0
78875 On ch=1 n=f#5 v=0
78905 On ch=1 n=d#6 v=0
78940 On ch=1 n=c6 v=63
79030 On ch=1 n=c6 v=0
79065 On ch=1 n=g#5 v=48
79080 On ch=1 n=b4 v=28
79095 On ch=1 n=d5 v=30
79155 On ch=1 n=g#5 v=0
79160 On ch=1 n=b4 v=0
79175 On ch=1 n=d5 v=0
79175 On ch=1 n=f5 v=52
79310 On ch=1 n=a5 v=51
79315 On ch=1 n=f5 v=0
79325 On ch=1 n=d#5 v=30
79335 On ch=1 n=c5 v=37
79385 On ch=1 n=c5 v=0
79400 On ch=1 n=a5 v=0
79430 On ch=1 n=f#6 v=61
79545 On ch=1 n=f#6 v=0
79560 On ch=1 n=d#5 v=0
79585 On ch=1 n=f6 v=60
79600 On ch=1 n=a#5 v=37
79605 On ch=1 n=d5 v=44
79670 On ch=1 n=d5 v=0
79670 Par ch=1 c=64 v=40
79685 Par ch=1 c=64 v=72
79695 Par ch=1 c=64 v=104
79700 On ch=1 n=f6 v=0
79705 On ch=1 n=a#5 v=0
79705 Par ch=1 c=64 v=127
79715 On ch=1 n=d5 v=24
79790 On ch=1 n=d5 v=0
79825 Par ch=1 c=64 v=104
79840 Par ch=1 c=64 v=72
79850 Par ch=1 c=64 v=56
79860 Par ch=1 c=64 v=24
79870 Par ch=1 c=64 v=0
79905 On ch=1 n=d4 v=65
79910 On ch=1 n=a#4 v=35
79920 On ch=1 n=f4 v=40
79995 On ch=1 n=d4 v=0
80015 On ch=1 n=a#4 v=0
80040 On ch=1 n=f4 v=0
80040 On ch=1 n=d5 v=39
80080 On ch=1 n=d5 v=0
80170 On ch=1 n=c4 v=70
80175 On ch=1 n=a#4 v=28
80185 On ch=1 n=f#4 v=29
80235 On ch=1 n=c4 v=0
80255 On ch=1 n=f#4 v=0
80270 On ch=1 n=a#4 v=0
80285 On ch=1 n=d5 v=49
80365 On ch=1 n=d5 v=0
80440 On ch=1 n=b3 v=59
80440 On ch=1 n=g4 v=41
80445 On ch=1 n=a#4 v=30
80505 On ch=1 n=b3 v=0
80545 On ch=1 n=g4 v=0
80550 On ch=1 n=a#4 v=0
80570 On ch=1 n=d5 v=34
80625 On ch=1 n=d5 v=0
80695 On ch=1 n=a#3 v=61
80705 On ch=1 n=a#4 v=32
80710 On ch=1 n=f#4 v=33
80765 On ch=1 n=a#3 v=0
80785 On ch=1 n=f#4 v=0
80810 On ch=1 n=a#4 v=0
80820 On ch=1 n=d5 v=42
80865 On ch=1 n=d5 v=0
80960 On ch=1 n=d4 v=55
80965 On ch=1 n=a#4 v=34
80980 On ch=1 n=f4 v=39
81055 On ch=1 n=d4 v=0
81060 On ch=1 n=a#4 v=0
81065 On ch=1 n=f4 v=0
81075 On ch=1 n=d5 v=34
81115 On ch=1 n=d5 v=0
81210 On ch=1 n=a#4 v=33
81210 On ch=1 n=f#4 v=39
81215 On ch=1 n=c4 v=64
81285 On ch=1 n=c4 v=0
81285 On ch=1 n=f#4 v=0
81315 On ch=1 n=a#4 v=0
81340 On ch=1 n=b3 v=65
81345 On ch=1 n=d5 v=47
81455 On ch=1 n=b3 v=0
81470 On ch=1 n=d5 v=0
81470 On ch=1 n=a#3 v=60
81475 On ch=1 n=a#4 v=39
81485 On ch=1 n=g4 v=40
81570 On ch=1 n=a#3 v=0
81575 On ch=1 n=a#4 v=0
81580 On ch=1 n=g4 v=0
81610 On ch=1 n=d5 v=43
81670 On ch=1 n=d5 v=0
81725 On ch=1 n=f#4 v=47
81745 On ch=1 n=a4 v=49
81800 On ch=1 n=d#5 v=50
81810 Par ch=1 c=64 v=24
81825 Par ch=1 c=64 v=88
81830 On ch=1 n=a4 v=0
81830 On ch=1 n=f#4 v=0
81835 Par ch=1 c=64 v=127
81855 On ch=1 n=d#5 v=0
82055 Par ch=1 c=64 v=104
82060 On ch=1 n=d#7 v=64
82065 On ch=1 n=a6 v=46
82065 On ch=1 n=f#6 v=48
82065 Par ch=1 c=64 v=88
82075 Par ch=1 c=64 v=56
82085 Par ch=1 c=64 v=40
82095 Par ch=1 c=64 v=0
82105 On ch=1 n=f#6 v=0
82115 On ch=1 n=a6 v=0
82155 On ch=1 n=d#7 v=0
82190 On ch=1 n=c7 v=66
82295 On ch=1 n=c7 v=0
82310 On ch=1 n=g#6 v=65
82330 On ch=1 n=b5 v=34
82335 On ch=1 n=d6 v=27
82380 On ch=1 n=d6 v=0
82390 On ch=1 n=b5 v=0
82420 On ch=1 n=g#6 v=0
82455 On ch=1 n=f6 v=62
82565 On ch=1 n=f6 v=0
82585 On ch=1 n=d#6 v=42
82585 On ch=1 n=a6 v=67
82600 On ch=1 n=c6 v=39
82625 On ch=1 n=c6 v=0
82625 On ch=1 n=d#6 v=0
82670 On ch=1 n=a6 v=0
82700 On ch=1 n=f#6 v=55
82835 On ch=1 n=f#6 v=0
82850 On ch=1 n=d6 v=60
82855 On ch=1 n=f5 v=37
82860 On ch=1 n=g#5 v=30
82890 On ch=1 n=f5 v=0
82920 On ch=1 n=g#5 v=0
82950 On ch=1 n=d6 v=0
82985 On ch=1 n=b5 v=54
83080 On ch=1 n=b5 v=0
83110 On ch=1 n=d#6 v=60
83125 On ch=1 n=f#5 v=40
83155 On ch=1 n=f#5 v=0
83155 On ch=1 n=a5 v=19
83175 On ch=1 n=a5 v=0
83200 On ch=1 n=d#6 v=0
83240 On ch=1 n=c6 v=67
83320 On ch=1 n=c6 v=0
83365 On ch=1 n=g#5 v=52
83375 On ch=1 n=b4 v=43
83380 On ch=1 n=d5 v=41
83450 On ch=1 n=b4 v=0
83460 On ch=1 n=g#5 v=0
83490 On ch=1 n=f5 v=55
83555 On ch=1 n=d5 v=0
83640 On ch=1 n=d#5 v=30
83640 On ch=1 n=a5 v=26
83660 On ch=1 n=c5 v=22
83665 Par ch=1 c=64 v=40
83670 On ch=1 n=d#5 v=0
83680 On ch=1 n=c5 v=0
83680 Par ch=1 c=64 v=56
83690 Par ch=1 c=64 v=88
83700 Par ch=1 c=64 v=104
83710 Par ch=1 c=64 v=127
83715 On ch=1 n=f5 v=0
83735 On ch=1 n=a5 v=0
83755 On ch=1 n=f#6 v=55
83780 On ch=1 n=f#6 v=0
83830 Par ch=1 c=64 v=104
83845 Par ch=1 c=64 v=88
83855 Par ch=1 c=64 v=56
83865 Par ch=1 c=64 v=24
83875 On ch=1 n=a#3 v=40
83875 Par ch=1 c=64 v=0
83910 On ch=1 n=g#4 v=45
83920 On ch=1 n=f5 v=66
83930 On ch=1 n=d5 v=37
83955 On ch=1 n=d5 v=0
83955 On ch=1 n=a#3 v=0
83965 On ch=1 n=b4 v=45
83965 Par ch=1 c=64 v=40
83975 On ch=1 n=f5 v=0
83975 Par ch=1 c=64 v=88
83985 Par ch=1 c=64 v=127
84000 On ch=1 n=g#4 v=0
84005 On ch=1 n=b4 v=0
84225 On ch=1 n=f7 v=79
84240 On ch=1 n=g#6 v=43
84245 On ch=1 n=b6 v=44
84265 On ch=1 n=b6 v=0
84270 On ch=1 n=g#6 v=0
84285 Par ch=1 c=64 v=104
84290 Par ch=1 c=64 v=72
84300 Par ch=1 c=64 v=56
84310 On ch=1 n=f7 v=0
84315 Par ch=1 c=64 v=40
84325 Par ch=1 c=64 v=24
84335 Par ch=1 c=64 v=0
84350 On ch=1 n=d7 v=69
84455 On ch=1 n=d7 v=0
84490 On ch=1 n=a#6 v=59
84490 On ch=1 n=c#6 v=35
84490 On ch=1 n=e6 v=58
84540 On ch=1 n=e6 v=0
84540 On ch=1 n=c#6 v=0
84600 On ch=1 n=a#6 v=0
84620 On ch=1 n=g6 v=64
84725 On ch=1 n=g6 v=0
84750 On ch=1 n=f6 v=55
84755 On ch=1 n=d6 v=50
84755 On ch=1 n=b6 v=62
84775 On ch=1 n=d6 v=0
84775 On ch=1 n=f6 v=0
84825 On ch=1 n=b6 v=0
84865 On ch=1 n=g#6 v=62
84980 On ch=1 n=g#6 v=0
85005 On ch=1 n=e6 v=64
85005 On ch=1 n=g5 v=51
85010 On ch=1 n=a#5 v=45
85060 On ch=1 n=a#5 v=0
85060 On ch=1 n=g5 v=0
85100 On ch=1 n=e6 v=0
85130 On ch=1 n=c#6 v=59
85175 On ch=1 n=c#6 v=0
85275 On ch=1 n=f6 v=66
85290 On ch=1 n=g#5 v=35
85295 On ch=1 n=b5 v=37
85315 On ch=1 n=g#5 v=0
85320 On ch=1 n=b5 v=0
85340 On ch=1 n=f6 v=0
85395 On ch=1 n=d6 v=55
85495 On ch=1 n=d6 v=0
85525 On ch=1 n=a#5 v=56
85535 On ch=1 n=c#5 v=39
85540 On ch=1 n=e5 v=41
85570 On ch=1 n=e5 v=0
85595 On ch=1 n=c#5 v=0
85620 On ch=1 n=a#5 v=0
85650 On ch=1 n=g5 v=56
85735 On ch=1 n=g5 v=0
85785 On ch=1 n=b5 v=63
85785 Par ch=1 c=64 v=24
85795 On ch=1 n=d5 v=44
85795 On ch=1 n=f5 v=38
85800 Par ch=1 c=64 v=72
85810 Par ch=1 c=64 v=104
85820 On ch=1 n=d5 v=0
85820 Par ch=1 c=64 v=127
85825 On ch=1 n=f5 v=0
85895 On ch=1 n=b5 v=0
85925 On ch=1 n=g#6 v=60
85955 On ch=1 n=g#6 v=0
86005 Par ch=1 c=64 v=88
86015 Par ch=1 c=64 v=56
86025 Par ch=1 c=64 v=24
86035 Par ch=1 c=64 v=0
86050 On ch=1 n=a#3 v=43
86100 On ch=1 n=g5 v=72
86105 On ch=1 n=e5 v=39
86115 On ch=1 n=c#5 v=38
86125 Par ch=1 c=64 v=24
86135 On ch=1 n=e5 v=0
86135 Par ch=1 c=64 v=88
86150 Par ch=1 c=64 v=127
86155 On ch=1 n=g5 v=0
86165 On ch=1 n=a#3 v=0
86205 On ch=1 n=c#5 v=0
86325 Par ch=1 c=64 v=88
86340 Par ch=1 c=64 v=72
86350 Par ch=1 c=64 v=56
86360 Par ch=1 c=64 v=40
86370 Par ch=1 c=64 v=24
86380 Par ch=1 c=64 v=0
86390 On ch=1 n=g7 v=80
86390 On ch=1 n=a#6 v=55
86395 On ch=1 n=c#7 v=36
86400 On ch=1 n=c#7 v=0
86405 On ch=1 n=a#6 v=0
86430 On ch=1 n=g7 v=0
86480 On ch=1 n=e7 v=59
86565 On ch=1 n=e7 v=0
86605 On ch=1 n=f#6 v=55
86615 On ch=1 n=c7 v=69
86615 On ch=1 n=d#6 v=55
86645 On ch=1 n=f#6 v=0
86650 On ch=1 n=d#6 v=0
86675 On ch=1 n=c7 v=0
86735 On ch=1 n=a6 v=59
86795 On ch=1 n=a6 v=0
86855 On ch=1 n=c#7 v=62
86860 Par ch=1 c=64 v=40
86865 On ch=1 n=g6 v=54
86870 Par ch=1 c=64 v=88
86875 On ch=1 n=e6 v=46
86880 Par ch=1 c=64 v=104
86885 On ch=1 n=g6 v=0
86895 On ch=1 n=e6 v=0
86895 Par ch=1 c=64 v=127
86945 On ch=1 n=c#7 v=0
86970 On ch=1 n=a#6 v=64
86970 Par ch=1 c=64 v=104
87010 On ch=1 n=a#6 v=0
87035 Par ch=1 c=64 v=72
87045 Par ch=1 c=64 v=56
87055 Par ch=1 c=64 v=24
87065 Par ch=1 c=64 v=0
87110 On ch=1 n=a#3 v=54
87135 On ch=1 n=f#4 v=42
87160 On ch=1 n=a#3 v=0
87185 On ch=1 n=a5 v=74
87190 On ch=1 n=d#5 v=49
87195 Par ch=1 c=64 v=72
87200 On ch=1 n=c5 v=55
87205 Par ch=1 c=64 v=127
87235 On ch=1 n=d#5 v=0
87240 On ch=1 n=f#4 v=0
87255 On ch=1 n=c5 v=0
87255 On ch=1 n=a5 v=0
87525 On ch=1 n=a7 v=77
87525 On ch=1 n=c7 v=60
87525 On ch=1 n=d#7 v=52
87555 On ch=1 n=c7 v=0
87570 On ch=1 n=d#7 v=0
87595 On ch=1 n=a7 v=0
87650 Par ch=1 c=64 v=104
87660 Par ch=1 c=64 v=88
87665 On ch=1 n=f#7 v=67
87670 Par ch=1 c=64 v=56
87680 Par ch=1 c=64 v=40
87695 Par ch=1 c=64 v=0
87755 On ch=1 n=f#7 v=0
87785 On ch=1 n=g#6 v=54
87790 On ch=1 n=d7 v=74
87790 On ch=1 n=f6 v=56
87825 On ch=1 n=f6 v=0
87825 On ch=1 n=g#6 v=0
87855 On ch=1 n=d7 v=0
87900 On ch=1 n=b6 v=68
87965 On ch=1 n=b6 v=0
88020 On ch=1 n=d#7 v=67
88035 On ch=1 n=a6 v=51
88035 On ch=1 n=f#6 v=48
88050 Par ch=1 c=64 v=40
88060 Par ch=1 c=64 v=56
88070 On ch=1 n=a6 v=0
88085 Par ch=1 c=64 v=72
88090 On ch=1 n=f#6 v=0
88110 On ch=1 n=d#7 v=0
88125 Par ch=1 c=64 v=88
88135 Par ch=1 c=64 v=104
88140 On ch=1 n=c7 v=66
88160 On ch=1 n=c7 v=0
88170 Par ch=1 c=64 v=127
88280 Par ch=1 c=64 v=104
88290 Par ch=1 c=64 v=88
88300 On ch=1 n=d#6 v=45
88300 On ch=1 n=c8 v=67
88300 On ch=1 n=f#6 v=53
88300 Par ch=1 c=64 v=56
88310 Par ch=1 c=64 v=40
88320 Par ch=1 c=64 v=24
88330 Par ch=1 c=64 v=0
88345 On ch=1 n=f#6 v=0
88350 On ch=1 n=d#6 v=0
88385 On ch=1 n=c8 v=0
88430 On ch=1 n=a7 v=74
88540 On ch=1 n=a7 v=0
88565 On ch=1 n=f7 v=69
88585 On ch=1 n=b5 v=49
88585 On ch=1 n=g#5 v=45
88630 On ch=1 n=g#5 v=0
88640 On ch=1 n=b5 v=0
88660 On ch=1 n=f7 v=0
88685 On ch=1 n=d7 v=64
88770 On ch=1 n=d7 v=0
88815 On ch=1 n=f#7 v=68
88815 On ch=1 n=c6 v=33
88815 On ch=1 n=a5 v=35
88850 On ch=1 n=a5 v=0
88860 On ch=1 n=c6 v=0
88910 On ch=1 n=f#7 v=0
88925 On ch=1 n=d#7 v=68
88960 On ch=1 n=d#7 v=0
89055 Par ch=1 c=64 v=24
89065 Par ch=1 c=64 v=56
89070 On ch=1 n=d#8 v=67
89080 On ch=1 n=a5 v=56
89080 On ch=1 n=f#5 v=45
89080 Par ch=1 c=64 v=88
89105 On ch=1 n=a5 v=0
89115 On ch=1 n=f#5 v=0
89140 Par ch=1 c=64 v=72
89145 On ch=1 n=d#8 v=0
89155 Par ch=1 c=64 v=56
89165 Par ch=1 c=64 v=24
89175 Par ch=1 c=64 v=0
89200 On ch=1 n=c8 v=71
89285 On ch=1 n=c8 v=0
89325 On ch=1 n=g#7 v=71
89340 On ch=1 n=d5 v=48
89345 On ch=1 n=b4 v=42
89365 On ch=1 n=d5 v=0
89375 On ch=1 n=b4 v=0
89410 On ch=1 n=g#7 v=0
89445 On ch=1 n=f7 v=67
89525 On ch=1 n=f7 v=0
89575 On ch=1 n=a7 v=77
89575 Par ch=1 c=64 v=24
89585 On ch=1 n=d#5 v=49
89585 On ch=1 n=c5 v=45
89585 Par ch=1 c=64 v=40
89595 Par ch=1 c=64 v=72
89605 Par ch=1 c=64 v=88
89625 Par ch=1 c=64 v=104
89630 On ch=1 n=c5 v=0
89635 On ch=1 n=d#5 v=0
89660 On ch=1 n=a7 v=0
89705 On ch=1 n=f#7 v=60
89775 On ch=1 n=f#7 v=0
89790 Par ch=1 c=64 v=88
89800 Par ch=1 c=64 v=72
89815 Par ch=1 c=64 v=56
89825 Par ch=1 c=64 v=24
89835 Par ch=1 c=64 v=0
89850 On ch=1 n=e8 v=81
89865 On ch=1 n=e5 v=47
89875 On ch=1 n=b4 v=48
89885 On ch=1 n=g#4 v=29
89900 Par ch=1 c=64 v=40
89910 On ch=1 n=b4 v=0
89910 Par ch=1 c=64 v=72
89920 On ch=1 n=g#4 v=0
89920 On ch=1 n=e5 v=0
89920 Par ch=1 c=64 v=88
89930 Par ch=1 c=64 v=104
89940 Par ch=1 c=64 v=127
89950 On ch=1 n=e8 v=0
89985 On ch=1 n=d#7 v=71
90030 On ch=1 n=d#7 v=0
90060 Par ch=1 c=64 v=104
90070 Par ch=1 c=64 v=88
90095 Par ch=1 c=64 v=72
90105 Par ch=1 c=64 v=56
90115 Par ch=1 c=64 v=40
90125 Par ch=1 c=64 v=0
90140 On ch=1 n=f8 v=89
90150 On ch=1 n=f5 v=42
90155 On ch=1 n=c5 v=41
90155 On ch=1 n=a4 v=35
90210 Par ch=1 c=64 v=40
90215 On ch=1 n=c5 v=0
90225 On ch=1 n=a4 v=0
90225 On ch=1 n=f8 v=0
90225 Par ch=1 c=64 v=72
90235 On ch=1 n=f5 v=0
90235 Par ch=1 c=64 v=88
90245 Par ch=1 c=64 v=104
90255 Par ch=1 c=64 v=127
90275 On ch=1 n=d#7 v=62
90315 On ch=1 n=d#7 v=0
90405 Par ch=1 c=64 v=104
90420 Par ch=1 c=64 v=88
90460 On ch=1 n=a#3 v=51
90470 On ch=1 n=a#2 v=45
90495 Par ch=1 c=64 v=40
90505 Par ch=1 c=64 v=104
90515 Par ch=1 c=64 v=127
90540 On ch=1 n=a#2 v=0
90545 On ch=1 n=a#3 v=0
90775 On ch=1 n=d8 v=82
90775 On ch=1 n=a#7 v=64
90785 On ch=1 n=d5 v=56
90790 On ch=1 n=d4 v=55
90910 On ch=1 n=a#7 v=0
90925 On ch=1 n=a7 v=65
90930 On ch=1 n=d5 v=0
90930 On ch=1 n=d8 v=0
90970 On ch=1 n=d4 v=0
91000 On ch=1 n=a7 v=0
91055 On ch=1 n=d8 v=75
91060 On ch=1 n=g#7 v=62
91060 On ch=1 n=c5 v=41
91065 On ch=1 n=f4 v=49
91170 On ch=1 n=d8 v=0
91180 On ch=1 n=g#7 v=0
91205 On ch=1 n=g7 v=64
91280 On ch=1 n=c5 v=0
91305 On ch=1 n=g7 v=0
91335 On ch=1 n=a#4 v=43
91340 On ch=1 n=d8 v=73
91340 On ch=1 n=f#7 v=56
91380 On ch=1 n=f4 v=0
91390 On ch=1 n=a#4 v=0
91430 On ch=1 n=f#7 v=0
91435 On ch=1 n=d8 v=0
91465 On ch=1 n=f7 v=62
91515 On ch=1 n=g#3 v=25
91535 On ch=1 n=g#3 v=0
91580 Par ch=1 c=64 v=104
91585 On ch=1 n=f7 v=0
91595 Par ch=1 c=64 v=56
91605 Par ch=1 c=64 v=0
91615 On ch=1 n=d8 v=76
91620 On ch=1 n=a#7 v=62
91625 On ch=1 n=g#3 v=68
91625 On ch=1 n=g#2 v=61
91660 On ch=1 n=g#2 v=0
91660 Par ch=1 c=64 v=40
91665 On ch=1 n=g#3 v=0
91670 Par ch=1 c=64 v=88
91685 Par ch=1 c=64 v=127
91705 On ch=1 n=a#7 v=0
91705 On ch=1 n=d8 v=0
91745 On ch=1 n=e7 v=60
91810 On ch=1 n=e7 v=0
91895 On ch=1 n=a#7 v=71
91905 On ch=1 n=f7 v=54
91915 On ch=1 n=d4 v=60
91915 On ch=1 n=d5 v=40
91980 On ch=1 n=d5 v=0
91995 On ch=1 n=a#7 v=0
92000 On ch=1 n=f7 v=0
92030 On ch=1 n=d4 v=0
92035 On ch=1 n=c7 v=53
92090 On ch=1 n=c7 v=0
92165 On ch=1 n=f7 v=70
92170 On ch=1 n=f4 v=63
92180 On ch=1 n=c5 v=55
92180 On ch=1 n=c7 v=60
92235 On ch=1 n=f4 v=0
92240 On ch=1 n=c7 v=0
92280 On ch=1 n=c5 v=0
92280 On ch=1 n=f7 v=0
92300 On ch=1 n=b6 v=59
92310 On ch=1 n=b4 v=57
92360 On ch=1 n=b6 v=0
92375 On ch=1 n=b4 v=0
92435 On ch=1 n=d7 v=68
92435 On ch=1 n=a#4 v=50
92440 On ch=1 n=a#6 v=47
92490 On ch=1 n=a#4 v=0
92540 On ch=1 n=a#6 v=0
92545 On ch=1 n=d7 v=0
92575 On ch=1 n=a6 v=60
92635 On ch=1 n=a6 v=0
92710 Par ch=1 c=64 v=104
92720 Par ch=1 c=64 v=56
92725 On ch=1 n=f7 v=77
92730 On ch=1 n=a#6 v=58
92735 Par ch=1 c=64 v=0
92740 On ch=1 n=f#3 v=58
92745 On ch=1 n=f#2 v=48
92800 On ch=1 n=f#2 v=0
92805 On ch=1 n=f#3 v=0
92805 Par ch=1 c=64 v=72
92815 Par ch=1 c=64 v=127
92850 On ch=1 n=f7 v=0
92880 On ch=1 n=a#6 v=0
92885 On ch=1 n=a6 v=56
92955 On ch=1 n=a6 v=0
93010 On ch=1 n=d7 v=70
93015 On ch=1 n=a#6 v=55
93020 On ch=1 n=d5 v=60
93025 On ch=1 n=d4 v=52
93120 On ch=1 n=d5 v=0
93120 On ch=1 n=a#6 v=0
93130 On ch=1 n=d7 v=0
93145 On ch=1 n=a6 v=62
93190 On ch=1 n=d4 v=0
93215 On ch=1 n=a6 v=0
93280 On ch=1 n=d7 v=71
93285 On ch=1 n=g#6 v=56
93290 On ch=1 n=c5 v=54
93290 On ch=1 n=f#4 v=54
93385 On ch=1 n=g#6 v=0
93395 On ch=1 n=d7 v=0
93415 On ch=1 n=g6 v=64
93490 On ch=1 n=g6 v=0
93525 On ch=1 n=c5 v=0
93555 On ch=1 n=a#6 v=65
93565 On ch=1 n=f#6 v=56
93570 On ch=1 n=a#4 v=42
93610 On ch=1 n=a#4 v=0
93615 On ch=1 n=f#4 v=0
93645 On ch=1 n=f#6 v=0
93655 On ch=1 n=a#6 v=0
93690 On ch=1 n=f6 v=60
93770 On ch=1 n=f6 v=0
93805 Par ch=1 c=64 v=88
93820 Par ch=1 c=64 v=24
93830 Par ch=1 c=64 v=0
93835 On ch=1 n=d7 v=72
93840 On ch=1 n=a#6 v=55
93855 On ch=1 n=f2 v=68
93855 On ch=1 n=f3 v=63
93875 On ch=1 n=f2 v=0
93885 Par ch=1 c=64 v=56
93900 Par ch=1 c=64 v=127
93920 On ch=1 n=f3 v=0
93925 On ch=1 n=a#6 v=0
93925 On ch=1 n=d7 v=0
93960 On ch=1 n=e6 v=67
94035 On ch=1 n=e6 v=0
94110 On ch=1 n=a#6 v=64
94120 On ch=1 n=d5 v=58
94125 On ch=1 n=f6 v=51
94125 On ch=1 n=d4 v=55
94210 On ch=1 n=f6 v=0
94215 On ch=1 n=a#6 v=0
94235 On ch=1 n=d5 v=0
94240 On ch=1 n=d6 v=60
94265 On ch=1 n=d4 v=0
94295 On ch=1 n=d6 v=0
94390 On ch=1 n=c6 v=56
94390 On ch=1 n=c5 v=49
94395 On ch=1 n=g#4 v=43
94395 On ch=1 n=f6 v=60
94445 On ch=1 n=c6 v=0
94490 On ch=1 n=f6 v=0
94490 On ch=1 n=c5 v=0
94500 On ch=1 n=g#4 v=0
94515 On ch=1 n=b5 v=56
94515 On ch=1 n=b4 v=56
94535 On ch=1 n=f6 v=9
94565 On ch=1 n=f6 v=0
94580 On ch=1 n=b5 v=0
94595 On ch=1 n=b4 v=0
94665 On ch=1 n=a#5 v=45
94665 On ch=1 n=d6 v=60
94675 On ch=1 n=a#4 v=40
94730 On ch=1 n=a#4 v=0
94800 On ch=1 n=g#5 v=31
94870 Par ch=1 c=64 v=88
94970 On ch=1 n=f#6 v=77
94980 On ch=1 n=f#5 v=53
94980 On ch=1 n=a#5 v=60
94985 On ch=1 n=d#4 v=54
94985 On ch=1 n=d#3 v=47
94990 On ch=1 n=a#5 v=0
94990 Par ch=1 c=64 v=40
94995 On ch=1 n=g#5 v=0
95000 Par ch=1 c=64 v=88
95005 On ch=1 n=d6 v=0
95010 Par ch=1 c=64 v=127
95045 On ch=1 n=d#3 v=0
95050 On ch=1 n=d#4 v=0
95070 On ch=1 n=a#5 v=0
95090 On ch=1 n=f#5 v=0
95110 On ch=1 n=f#6 v=0
95260 On ch=1 n=f#7 v=64
95265 On ch=1 n=d#7 v=67
95280 On ch=1 n=f#5 v=51
95285 On ch=1 n=f#4 v=49
95355 On ch=1 n=d#7 v=0
95370 On ch=1 n=f#7 v=0
95390 On ch=1 n=d7 v=56
95455 On ch=1 n=f#5 v=0
95460 On ch=1 n=f#4 v=0
95470 On ch=1 n=d7 v=0
95525 On ch=1 n=f#7 v=67
95530 On ch=1 n=c#7 v=65
95540 On ch=1 n=f5 v=55
95540 On ch=1 n=a#4 v=40
95625 On ch=1 n=c#7 v=0
95645 On ch=1 n=f#7 v=0
95670 On ch=1 n=c7 v=66
95755 On ch=1 n=c7 v=0
95805 On ch=1 n=f5 v=0
95805 On ch=1 n=f#7 v=61
95805 On ch=1 n=d#7 v=61
95805 On ch=1 n=d#5 v=60
95865 On ch=1 n=d#5 v=0
95865 On ch=1 n=a#4 v=0
95900 On ch=1 n=f#7 v=0
95905 On ch=1 n=d#7 v=0
95945 On ch=1 n=b6 v=63
96005 On ch=1 n=b6 v=0
96060 Par ch=1 c=64 v=88
96075 Par ch=1 c=64 v=24
96085 Par ch=1 c=64 v=0
96090 On ch=1 n=f#7 v=75
96100 On ch=1 n=a#6 v=61
96105 On ch=1 n=c#4 v=61
96105 On ch=1 n=c#3 v=55
96160 On ch=1 n=c#3 v=0
96160 On ch=1 n=c#4 v=0
96165 Par ch=1 c=64 v=56
96175 Par ch=1 c=64 v=127
96210 On ch=1 n=a#6 v=0
96215 On ch=1 n=f#7 v=0
96245 On ch=1 n=a6 v=60
96305 On ch=1 n=a6 v=0
96375 On ch=1 n=d#7 v=68
96385 On ch=1 n=f#5 v=60
96385 On ch=1 n=g#6 v=55
96385 On ch=1 n=f#4 v=48
96480 On ch=1 n=g#6 v=0
96495 On ch=1 n=d#7 v=0
96520 On ch=1 n=g6 v=60
96535 On ch=1 n=f#5 v=0
96565 On ch=1 n=f#4 v=0
96585 On ch=1 n=g6 v=0
96655 On ch=1 n=d#7 v=67
96660 On ch=1 n=f5 v=54
96665 On ch=1 n=a#4 v=43
96665 On ch=1 n=f#6 v=55
96755 On ch=1 n=f5 v=0
96760 On ch=1 n=f#6 v=0
96760 On ch=1 n=a#4 v=0
96770 On ch=1 n=d#7 v=0
96790 On ch=1 n=f6 v=64
96790 On ch=1 n=e5 v=65
96865 On ch=1 n=e5 v=0
96870 On ch=1 n=f6 v=0
96930 On ch=1 n=a#6 v=61
96935 On ch=1 n=d#5 v=47
96940 On ch=1 n=f#6 v=45
96975 On ch=1 n=d#5 v=0
97035 On ch=1 n=f#6 v=0
97035 On ch=1 n=a#6 v=0
97070 On ch=1 n=e6 v=62
97135 On ch=1 n=e6 v=0
97205 On ch=1 n=d#7 v=79
97205 On ch=1 n=f#6 v=65
97205 On ch=1 n=b2 v=58
97205 On ch=1 n=b3 v=66
97205 Par ch=1 c=64 v=72
97215 Par ch=1 c=64 v=24
97225 Par ch=1 c=64 v=0
97250 On ch=1 n=b2 v=0
97275 On ch=1 n=b3 v=0
97285 Par ch=1 c=64 v=40
97290 Par ch=1 c=64 v=88
97305 Par ch=1 c=64 v=127
97315 On ch=1 n=d#7 v=0
97325 On ch=1 n=f#6 v=0
97365 On ch=1 n=d#6 v=55
97445 On ch=1 n=d#6 v=0
97490 On ch=1 n=a#6 v=72
97500 On ch=1 n=f#5 v=56
97500 On ch=1 n=d#6 v=50
97510 On ch=1 n=f#4 v=46
97590 On ch=1 n=d#6 v=0
97630 On ch=1 n=d6 v=60
97635 On ch=1 n=a#6 v=0
97655 On ch=1 n=f#5 v=0
97685 On ch=1 n=f#4 v=0
97695 On ch=1 n=d6 v=0
97765 On ch=1 n=f#6 v=64
97765 On ch=1 n=c#6 v=53
97770 On ch=1 n=f5 v=59
97770 On ch=1 n=b4 v=50
97855 On ch=1 n=c#6 v=0
97880 On ch=1 n=f#6 v=0
97905 On ch=1 n=d6 v=49
97980 On ch=1 n=d6 v=0
97985 On ch=1 n=f5 v=0
98040 On ch=1 n=f#6 v=68
98050 On ch=1 n=d#6 v=58
98060 On ch=1 n=d#5 v=25
98140 On ch=1 n=d#5 v=0
98145 On ch=1 n=d#6 v=0
98150 On ch=1 n=b4 v=0
98160 On ch=1 n=f#6 v=0
98180 On ch=1 n=b5 v=56
98250 On ch=1 n=b5 v=0
98310 Par ch=1 c=64 v=104
98325 Par ch=1 c=64 v=40
98330 On ch=1 n=f#6 v=65
98330 On ch=1 n=d#6 v=54
98335 Par ch=1 c=64 v=0
98350 On ch=1 n=a#3 v=50
98370 On ch=1 n=a#2 v=58
98400 On ch=1 n=a#2 v=0
98400 Par ch=1 c=64 v=24
98415 On ch=1 n=a#3 v=0
98415 Par ch=1 c=64 v=72
98425 Par ch=1 c=64 v=127
98450 On ch=1 n=d#6 v=0
98455 On ch=1 n=f#6 v=0
98475 On ch=1 n=a#5 v=55
98555 On ch=1 n=a#5 v=0
98615 On ch=1 n=f#6 v=64
98620 On ch=1 n=f#5 v=56
98620 On ch=1 n=f#4 v=50
98625 On ch=1 n=d#6 v=55
98725 On ch=1 n=d#6 v=0
98740 On ch=1 n=f#6 v=0
98755 On ch=1 n=f#5 v=0
98755 On ch=1 n=a5 v=58
98810 On ch=1 n=a5 v=0
98850 On ch=1 n=f#4 v=0
98885 On ch=1 n=d#6 v=61
98885 On ch=1 n=f5 v=49
98885 On ch=1 n=g#5 v=51
98885 On ch=1 n=b4 v=49
98955 On ch=1 n=f5 v=0
98975 On ch=1 n=g#5 v=0
99025 On ch=1 n=e5 v=58
99025 On ch=1 n=g5 v=59
99075 On ch=1 n=d#6 v=0
99090 On ch=1 n=g5 v=0
99100 On ch=1 n=e5 v=0
99120 On ch=1 n=b4 v=0
99185 On ch=1 n=a#5 v=53
99185 On ch=1 n=f#5 v=32
99185 On ch=1 n=d#5 v=43
99190 Par ch=1 c=64 v=88
99205 Par ch=1 c=64 v=56
99215 Par ch=1 c=64 v=40
99245 On ch=1 n=d#5 v=0
99250 Par ch=1 c=64 v=104
99260 Par ch=1 c=64 v=127
99300 On ch=1 n=f#5 v=0
99335 On ch=1 n=d#5 v=48
99385 On ch=1 n=d#5 v=0
99385 On ch=1 n=a#5 v=0
99510 On ch=1 n=g#2 v=46
99525 Par ch=1 c=64 v=40
99530 On ch=1 n=g#3 v=29
99535 Par ch=1 c=64 v=56
99545 Par ch=1 c=64 v=72
99555 On ch=1 n=g#2 v=0
99555 Par ch=1 c=64 v=88
99605 On ch=1 n=g#3 v=0
99640 On ch=1 n=g#3 v=38
99655 Par ch=1 c=64 v=72
99660 On ch=1 n=g#3 v=0
99675 On ch=1 n=a3 v=34
99750 On ch=1 n=a3 v=0
99770 Par ch=1 c=64 v=56
99780 Par ch=1 c=64 v=40
99790 Par ch=1 c=64 v=24
99800 On ch=1 n=g#3 v=37
99800 Par ch=1 c=64 v=0
99810 On ch=1 n=b7 v=59
99810 On ch=1 n=d#7 v=37
99890 On ch=1 n=b7 v=0
99940 On ch=1 n=a#3 v=40
99945 On ch=1 n=f#7 v=62
99950 On ch=1 n=d#7 v=0
99950 Par ch=1 c=64 v=40
99955 On ch=1 n=b6 v=45
99960 Par ch=1 c=64 v=56
99985 On ch=1 n=f#7 v=0
99990 On ch=1 n=b6 v=0
99995 On ch=1 n=g#3 v=0
100015 Par ch=1 c=64 v=40
100025 Par ch=1 c=64 v=24
100035 Par ch=1 c=64 v=0
100045 On ch=1 n=a#3 v=0
100075 On ch=1 n=b3 v=45
100105 Par ch=1 c=64 v=24
100115 Par ch=1 c=64 v=56
100135 Par ch=1 c=64 v=72
100175 On ch=1 n=b3 v=0
100210 On ch=1 n=c4 v=51
100295 On ch=1 n=c4 v=0
100320 Par ch=1 c=64 v=40
100325 Par ch=1 c=64 v=0
100340 On ch=1 n=d#7 v=68
100350 On ch=1 n=b3 v=52
100355 On ch=1 n=f#6 v=44
100390 Par ch=1 c=64 v=40
100400 Par ch=1 c=64 v=56
100410 Par ch=1 c=64 v=88
100425 On ch=1 n=d#7 v=0
100430 Par ch=1 c=64 v=104
100440 On ch=1 n=f#6 v=0
100445 On ch=1 n=b3 v=0
100470 Par ch=1 c=64 v=127
100475 On ch=1 n=d#6 v=46
100480 On ch=1 n=b6 v=56
100480 On ch=1 n=c4 v=49
100495 On ch=1 n=b6 v=0
100515 On ch=1 n=c4 v=0
100515 On ch=1 n=d#6 v=0
100590 Par ch=1 c=64 v=88
100600 Par ch=1 c=64 v=56
100610 Par ch=1 c=64 v=0
100615 On ch=1 n=c#4 v=54
100640 On ch=1 n=c#3 v=36
100655 Par ch=1 c=64 v=24
100665 On ch=1 n=c#3 v=0
100665 Par ch=1 c=64 v=56
100675 Par ch=1 c=64 v=72
100685 Par ch=1 c=64 v=104
100695 On ch=1 n=c#4 v=0
100725 Par ch=1 c=64 v=127
100755 On ch=1 n=d4 v=55
100785 On ch=1 n=d4 v=0
100855 Par ch=1 c=64 v=88
100865 Par ch=1 c=64 v=40
100875 On ch=1 n=g#6 v=54
100875 Par ch=1 c=64 v=0
100890 On ch=1 n=c#4 v=32
100905 On ch=1 n=b5 v=37
100950 On ch=1 n=b5 v=0
100950 On ch=1 n=g#6 v=0
100950 Par ch=1 c=64 v=40
100960 Par ch=1 c=64 v=72
100970 Par ch=1 c=64 v=88
100980 Par ch=1 c=64 v=104
100990 Par ch=1 c=64 v=127
101000 On ch=1 n=c#4 v=0
101015 On ch=1 n=d4 v=50
101020 On ch=1 n=f6 v=42
101020 On ch=1 n=g#5 v=40
101040 On ch=1 n=f6 v=0
101070 On ch=1 n=g#5 v=0
101110 Par ch=1 c=64 v=88
101120 On ch=1 n=d4 v=0
101120 Par ch=1 c=64 v=40
101130 Par ch=1 c=64 v=0
101160 On ch=1 n=e4 v=55
101195 Par ch=1 c=64 v=24
101205 Par ch=1 c=64 v=56
101215 Par ch=1 c=64 v=72
101225 Par ch=1 c=64 v=88
101245 On ch=1 n=e4 v=0
101265 Par ch=1 c=64 v=104
101275 On ch=1 n=f4 v=47
101305 Par ch=1 c=64 v=72
101315 Par ch=1 c=64 v=40
101325 On ch=1 n=b6 v=49
101325 Par ch=1 c=64 v=0
101375 On ch=1 n=b6 v=0
101385 On ch=1 n=f7 v=56
101385 Par ch=1 c=64 v=24
101395 Par ch=1 c=64 v=56
101405 Par ch=1 c=64 v=88
101415 On ch=1 n=f4 v=0
101415 Par ch=1 c=64 v=127
101430 On ch=1 n=c#8 v=75
101435 On ch=1 n=f7 v=0
101435 On ch=1 n=e4 v=33
101455 On ch=1 n=c#8 v=0
101545 On ch=1 n=e4 v=0
101560 On ch=1 n=f4 v=59
101575 On ch=1 n=f4 v=0
101670 Par ch=1 c=64 v=104
101680 Par ch=1 c=64 v=56
101690 Par ch=1 c=64 v=0
101715 On ch=1 n=f#4 v=40
101725 On ch=1 n=f#3 v=33
101740 Par ch=1 c=64 v=40
101750 Par ch=1 c=64 v=72
101755 On ch=1 n=f#3 v=0
101760 Par ch=1 c=64 v=104
101770 Par ch=1 c=64 v=127
101790 On ch=1 n=f#4 v=0
101840 On ch=1 n=g4 v=49
101950 On ch=1 n=g4 v=0
101970 On ch=1 n=a#7 v=69
101980 On ch=1 n=c#7 v=53
101980 On ch=1 n=f#4 v=44
102045 On ch=1 n=a#7 v=0
102055 On ch=1 n=c#7 v=0
102110 On ch=1 n=a#6 v=52
102110 On ch=1 n=f7 v=70
102115 On ch=1 n=f#4 v=0
102115 On ch=1 n=g#4 v=51
102140 On ch=1 n=f7 v=0
102145 On ch=1 n=a#6 v=0
102240 On ch=1 n=g#4 v=0
102280 On ch=1 n=a4 v=44
102385 On ch=1 n=a#4 v=44
102390 On ch=1 n=a4 v=0
102505 On ch=1 n=a#4 v=0
102505 Par ch=1 c=64 v=104
102510 On ch=1 n=c#7 v=65
102515 Par ch=1 c=64 v=72
102520 On ch=1 n=a4 v=47
102525 Par ch=1 c=64 v=24
102530 On ch=1 n=f6 v=47
102535 Par ch=1 c=64 v=0
102575 Par ch=1 c=64 v=56
102585 Par ch=1 c=64 v=88
102590 On ch=1 n=f6 v=0
102595 Par ch=1 c=64 v=127
102600 On ch=1 n=c#7 v=0
102650 On ch=1 n=a4 v=0
102650 On ch=1 n=a#6 v=50
102660 On ch=1 n=a#4 v=25
102665 On ch=1 n=c#6 v=23
102675 On ch=1 n=a#4 v=0
102690 On ch=1 n=c#6 v=0
102690 On ch=1 n=a#6 v=0
102760 Par ch=1 c=64 v=104
102770 Par ch=1 c=64 v=56
102780 Par ch=1 c=64 v=40
102800 On ch=1 n=b3 v=54
102810 Par ch=1 c=64 v=88
102815 On ch=1 n=b4 v=40
102820 Par ch=1 c=64 v=127
102830 On ch=1 n=b3 v=0
102885 On ch=1 n=b4 v=0
102925 On ch=1 n=c5 v=38
103020 On ch=1 n=c5 v=0
103045 On ch=1 n=f#6 v=60
103045 On ch=1 n=a#5 v=50
103080 On ch=1 n=b4 v=25
103095 On ch=1 n=a#5 v=0
103145 On ch=1 n=f#6 v=0
103175 On ch=1 n=b4 v=0
103185 On ch=1 n=d#6 v=53
103185 On ch=1 n=f#5 v=50
103200 On ch=1 n=c5 v=42
103235 On ch=1 n=c5 v=0
103235 On ch=1 n=f#5 v=0
103240 On ch=1 n=d#6 v=0
103305 Par ch=1 c=64 v=104
103315 Par ch=1 c=64 v=72
103325 Par ch=1 c=64 v=56
103340 On ch=1 n=d5 v=54
103340 On ch=1 n=f6 v=55
103360 Par ch=1 c=64 v=88
103370 Par ch=1 c=64 v=127
103390 On ch=1 n=f6 v=0
103415 On ch=1 n=d5 v=0
103450 On ch=1 n=d#5 v=41
103480 On ch=1 n=d#5 v=0
103555 On ch=1 n=a#6 v=44
103595 On ch=1 n=a#6 v=0
103595 On ch=1 n=f7 v=55
103600 On ch=1 n=d5 v=53
103640 On ch=1 n=b7 v=78
103645 On ch=1 n=f7 v=0
103675 On ch=1 n=b7 v=0
103720 On ch=1 n=d5 v=0
103745 On ch=1 n=d#5 v=52
103790 On ch=1 n=d#5 v=0
103910 On ch=1 n=f5 v=45
103910 On ch=1 n=f4 v=50
103920 Par ch=1 c=64 v=56
103935 Par ch=1 c=64 v=88
103945 Par ch=1 c=64 v=127
103960 On ch=1 n=f4 v=0
104000 On ch=1 n=f5 v=0
104030 On ch=1 n=f#5 v=50
104115 On ch=1 n=f#5 v=0
104125 Par ch=1 c=64 v=88
104135 Par ch=1 c=64 v=56
104145 Par ch=1 c=64 v=0
104150 On ch=1 n=f5 v=36
104155 On ch=1 n=g#7 v=70
104185 On ch=1 n=b6 v=38
104190 Par ch=1 c=64 v=40
104200 Par ch=1 c=64 v=56
104210 Par ch=1 c=64 v=88
104220 Par ch=1 c=64 v=104
104225 On ch=1 n=b6 v=0
104230 Par ch=1 c=64 v=127
104255 On ch=1 n=f5 v=0
104260 On ch=1 n=g#7 v=0
104295 On ch=1 n=g5 v=39
104300 On ch=1 n=d#7 v=59
104300 On ch=1 n=g#6 v=45
104330 On ch=1 n=g#6 v=0
104335 On ch=1 n=d#7 v=0
104400 Par ch=1 c=64 v=104
104410 Par ch=1 c=64 v=56
104420 Par ch=1 c=64 v=24
104425 On ch=1 n=g5 v=0
104430 On ch=1 n=g#5 v=56
104435 Par ch=1 c=64 v=0
104465 Par ch=1 c=64 v=24
104475 Par ch=1 c=64 v=56
104485 Par ch=1 c=64 v=72
104495 Par ch=1 c=64 v=104
104505 Par ch=1 c=64 v=127
104565 On ch=1 n=a5 v=54
104580 On ch=1 n=g#5 v=0
104665 Par ch=1 c=64 v=88
104675 On ch=1 n=a5 v=0
104680 Par ch=1 c=64 v=56
104685 On ch=1 n=d#7 v=71
104690 Par ch=1 c=64 v=24
104695 On ch=1 n=g#6 v=45
104700 Par ch=1 c=64 v=0
104705 On ch=1 n=g#5 v=33
104765 Par ch=1 c=64 v=40
104770 Par ch=1 c=64 v=72
104780 On ch=1 n=g#6 v=0
104780 Par ch=1 c=64 v=104
104790 On ch=1 n=d#7 v=0
104795 Par ch=1 c=64 v=127
104825 On ch=1 n=b6 v=63
104830 On ch=1 n=a5 v=38
104835 On ch=1 n=g#5 v=0
104835 On ch=1 n=f6 v=39
104850 On ch=1 n=a5 v=0
104855 On ch=1 n=f6 v=0
104860 On ch=1 n=b6 v=0
104925 Par ch=1 c=64 v=88
104935 Par ch=1 c=64 v=40
104945 Par ch=1 c=64 v=0
104960 On ch=1 n=a#4 v=44
104970 On ch=1 n=a#5 v=34
104975 Par ch=1 c=64 v=24
104985 Par ch=1 c=64 v=56
104995 Par ch=1 c=64 v=88
105005 Par ch=1 c=64 v=127
105010 On ch=1 n=a#4 v=0
105045 On ch=1 n=a#5 v=0
105090 On ch=1 n=b5 v=44
105175 On ch=1 n=g#6 v=42
105175 On ch=1 n=d6 v=40
105200 Par ch=1 c=64 v=88
105210 Par ch=1 c=64 v=72
105220 On ch=1 n=b5 v=0
105220 Par ch=1 c=64 v=40
105225 On ch=1 n=d6 v=0
105225 On ch=1 n=g#6 v=0
105225 On ch=1 n=a#5 v=45
105230 Par ch=1 c=64 v=24
105240 Par ch=1 c=64 v=0
105260 Par ch=1 c=64 v=24
105275 Par ch=1 c=64 v=40
105285 Par ch=1 c=64 v=72
105295 Par ch=1 c=64 v=88
105305 Par ch=1 c=64 v=104
105315 Par ch=1 c=64 v=127
105320 On ch=1 n=a#5 v=0
105330 On ch=1 n=c#6 v=45
105330 On ch=1 n=e6 v=50
105380 On ch=1 n=e6 v=0
105425 Par ch=1 c=64 v=104
105435 Par ch=1 c=64 v=72
105445 Par ch=1 c=64 v=40
105455 On ch=1 n=c#6 v=0
105455 Par ch=1 c=64 v=0
105480 On ch=1 n=d6 v=47
105500 Par ch=1 c=64 v=56
105505 Par ch=1 c=64 v=72
105520 Par ch=1 c=64 v=104
105530 Par ch=1 c=64 v=127
105585 On ch=1 n=d6 v=0
105595 On ch=1 n=c#6 v=46
105710 On ch=1 n=c#6 v=0
105720 Par ch=1 c=64 v=88
105735 On ch=1 n=d6 v=58
105735 On ch=1 n=a#7 v=72
105735 On ch=1 n=g#6 v=55
105735 Par ch=1 c=64 v=56
105745 Par ch=1 c=64 v=40
105755 Par ch=1 c=64 v=24
105760 Par ch=1 c=64 v=0
105785 On ch=1 n=g#6 v=0
105785 On ch=1 n=a#7 v=0
105870 On ch=1 n=d6 v=0
105870 On ch=1 n=a#5 v=47
105935 On ch=1 n=a#5 v=0
106020 On ch=1 n=d#6 v=55
106030 On ch=1 n=d#5 v=44
106065 Par ch=1 c=64 v=24
106080 Par ch=1 c=64 v=40
106100 Par ch=1 c=64 v=56
106105 On ch=1 n=d#6 v=0
106130 Par ch=1 c=64 v=72
106150 On ch=1 n=d6 v=57
106165 Par ch=1 c=64 v=88
106210 Par ch=1 c=64 v=104
106220 On ch=1 n=d6 v=0
106240 Par ch=1 c=64 v=72
106250 Par ch=1 c=64 v=56
106260 Par ch=1 c=64 v=0
106280 On ch=1 n=f#7 v=67
106280 On ch=1 n=c#6 v=53
106290 On ch=1 n=a#6 v=53
106350 On ch=1 n=a#6 v=0
106380 On ch=1 n=f#7 v=0
106400 On ch=1 n=c#6 v=0
106420 On ch=1 n=c6 v=63
106425 On ch=1 n=d#7 v=65
106430 On ch=1 n=f#6 v=43
106495 On ch=1 n=d#7 v=0
106500 On ch=1 n=f#6 v=0
106520 On ch=1 n=c6 v=0
106560 On ch=1 n=b5 v=43
106645 On ch=1 n=b5 v=0
106680 On ch=1 n=a#5 v=48
106780 On ch=1 n=d#5 v=0
106820 On ch=1 n=d#6 v=44
106825 On ch=1 n=f#5 v=44
106830 On ch=1 n=a#5 v=0
106830 On ch=1 n=a#6 v=50
106895 On ch=1 n=d#6 v=0
106910 Par ch=1 c=64 v=40
106920 Par ch=1 c=64 v=72
106930 Par ch=1 c=64 v=88
106935 On ch=1 n=a#6 v=0
106945 Par ch=1 c=64 v=127
106950 On ch=1 n=d#7 v=71
106955 On ch=1 n=d#5 v=49
106965 On ch=1 n=f#6 v=36
106980 On ch=1 n=f#5 v=0
106995 On ch=1 n=f#6 v=0
107000 On ch=1 n=d#5 v=0
107015 On ch=1 n=d#7 v=0
107060 Par ch=1 c=64 v=56
107075 Par ch=1 c=64 v=0
107095 On ch=1 n=f#7 v=77
107100 On ch=1 n=b4 v=53
107100 On ch=1 n=f#6 v=58
107110 On ch=1 n=a5 v=42
107125 Par ch=1 c=64 v=24
107135 Par ch=1 c=64 v=56
107180 Par ch=1 c=64 v=40
107190 On ch=1 n=f#7 v=0
107195 Par ch=1 c=64 v=24
107205 Par ch=1 c=64 v=0
107210 On ch=1 n=a5 v=0
107230 On ch=1 n=f7 v=79
107240 On ch=1 n=g#5 v=44
107335 On ch=1 n=f7 v=0
107350 On ch=1 n=g#5 v=0
107365 On ch=1 n=e7 v=74
107370 On ch=1 n=g5 v=62
107385 Par ch=1 c=64 v=24
107395 Par ch=1 c=64 v=56
107405 Par ch=1 c=64 v=72
107420 Par ch=1 c=64 v=88
107430 Par ch=1 c=64 v=104
107440 Par ch=1 c=64 v=127
107465 On ch=1 n=g5 v=0
107465 On ch=1 n=e7 v=0
107465 On ch=1 n=f#6 v=0
107480 On ch=1 n=d#7 v=80
107490 On ch=1 n=f#5 v=57
107510 On ch=1 n=b4 v=0
107525 On ch=1 n=d#7 v=0
107570 Par ch=1 c=64 v=104
107575 On ch=1 n=f#5 v=0
107580 Par ch=1 c=64 v=88
107590 Par ch=1 c=64 v=56
107600 Par ch=1 c=64 v=0
107635 On ch=1 n=a7 v=89
107640 On ch=1 n=f5 v=58
107640 On ch=1 n=a6 v=67
107640 On ch=1 n=b4 v=54
107745 On ch=1 n=a7 v=0
107765 On ch=1 n=g#7 v=85
107770 On ch=1 n=e5 v=64
107790 On ch=1 n=f5 v=0
107870 On ch=1 n=g#7 v=0
107875 On ch=1 n=e5 v=0
107900 On ch=1 n=d#5 v=53
107910 On ch=1 n=g7 v=84
107915 Par ch=1 c=64 v=24
107930 Par ch=1 c=64 v=40
107950 Par ch=1 c=64 v=56
107965 On ch=1 n=a6 v=0
107980 Par ch=1 c=64 v=72
107995 On ch=1 n=d#5 v=0
107995 Par ch=1 c=64 v=88
108005 Par ch=1 c=64 v=104
108015 On ch=1 n=g7 v=0
108025 On ch=1 n=d5 v=62
108025 Par ch=1 c=64 v=127
108035 On ch=1 n=f#7 v=77
108055 On ch=1 n=b4 v=0
108070 On ch=1 n=d5 v=0
108075 On ch=1 n=f#7 v=0
108155 Par ch=1 c=64 v=104
108165 Par ch=1 c=64 v=72
108175 Par ch=1 c=64 v=24
108190 Par ch=1 c=64 v=0
108200 On ch=1 n=c#8 v=90
108205 On ch=1 n=c#7 v=71
108215 On ch=1 n=c#4 v=56
108215 On ch=1 n=c#5 v=48
108260 Par ch=1 c=64 v=24
108275 Par ch=1 c=64 v=88
108280 Par ch=1 c=64 v=127
108305 On ch=1 n=c#8 v=0
108310 On ch=1 n=c#4 v=0
108325 On ch=1 n=c#5 v=0
108325 On ch=1 n=c#7 v=0
108495 On ch=1 n=d7 v=81
108500 Par ch=1 c=64 v=88
108505 On ch=1 n=b5 v=49
108510 On ch=1 n=g#6 v=50
108510 Par ch=1 c=64 v=40
108515 On ch=1 n=f6 v=47
108520 Par ch=1 c=64 v=0
108575 On ch=1 n=g#6 v=0
108620 On ch=1 n=d7 v=0
108625 On ch=1 n=b5 v=0
108635 On ch=1 n=b6 v=78
108645 On ch=1 n=d6 v=54
108720 On ch=1 n=f6 v=0
108725 On ch=1 n=d6 v=0
108780 On ch=1 n=g6 v=80
108780 On ch=1 n=a#5 v=48
108790 On ch=1 n=b6 v=0
108880 On ch=1 n=a#5 v=0
108905 On ch=1 n=c#6 v=46
108905 On ch=1 n=e6 v=73
108910 On ch=1 n=g6 v=0
109000 On ch=1 n=c#6 v=0
109040 On ch=1 n=e6 v=0
109040 On ch=1 n=g#6 v=72
109050 On ch=1 n=b5 v=45
109160 On ch=1 n=b5 v=0
109160 On ch=1 n=g#6 v=0
109175 On ch=1 n=f6 v=76
109180 On ch=1 n=d6 v=64
109215 On ch=1 n=d6 v=0
109305 On ch=1 n=c#7 v=77
109305 On ch=1 n=e5 v=58
109330 On ch=1 n=e5 v=0
109420 On ch=1 n=f6 v=0
109435 On ch=1 n=c#7 v=0
109435 On ch=1 n=a#6 v=69
109440 On ch=1 n=g5 v=55
109545 On ch=1 n=g5 v=0
109565 On ch=1 n=a#6 v=0
109570 On ch=1 n=d7 v=82
109590 On ch=1 n=f5 v=45
109615 Par ch=1 c=64 v=24
109625 Par ch=1 c=64 v=56
109635 Par ch=1 c=64 v=72
109645 Par ch=1 c=64 v=88
109655 Par ch=1 c=64 v=104
109665 On ch=1 n=f5 v=0
109665 Par ch=1 c=64 v=127
109685 On ch=1 n=d7 v=0
109705 On ch=1 n=g#5 v=48
109705 On ch=1 n=b6 v=70
109785 On ch=1 n=g#5 v=0
109795 On ch=1 n=b6 v=0
109800 Par ch=1 c=64 v=104
109810 Par ch=1 c=64 v=72
109820 Par ch=1 c=64 v=40
109830 Par ch=1 c=64 v=0
109840 On ch=1 n=g7 v=84
109845 On ch=1 n=a#4 v=44
109905 Par ch=1 c=64 v=40
109915 Par ch=1 c=64 v=72
109925 Par ch=1 c=64 v=88
109940 Par ch=1 c=64 v=104
109950 Par ch=1 c=64 v=127
109970 On ch=1 n=a#4 v=0
109975 On ch=1 n=e7 v=74
109980 On ch=1 n=g7 v=0
109980 On ch=1 n=c#5 v=43
110060 On ch=1 n=e7 v=0
110100 Par ch=1 c=64 v=72
110105 On ch=1 n=c#5 v=0
110110 Par ch=1 c=64 v=40
110115 On ch=1 n=b4 v=45
110115 On ch=1 n=g#7 v=84
110120 Par ch=1 c=64 v=0
110155 Par ch=1 c=64 v=24
110165 Par ch=1 c=64 v=56
110175 Par ch=1 c=64 v=88
110190 Par ch=1 c=64 v=127
110245 On ch=1 n=g#7 v=0
110250 On ch=1 n=f7 v=74
110255 On ch=1 n=b4 v=0
110255 On ch=1 n=d5 v=55
110280 On ch=1 n=d5 v=0
110365 On ch=1 n=f7 v=0
110380 Par ch=1 c=64 v=72
110390 On ch=1 n=d8 v=88
110390 Par ch=1 c=64 v=24
110400 On ch=1 n=b4 v=59
110405 Par ch=1 c=64 v=0
110450 Par ch=1 c=64 v=40
110460 Par ch=1 c=64 v=72
110470 Par ch=1 c=64 v=127
110500 On ch=1 n=d8 v=0
110525 On ch=1 n=b4 v=0
110525 On ch=1 n=d7 v=65
110535 On ch=1 n=c#4 v=58
110540 On ch=1 n=f7 v=66
110600 On ch=1 n=d7 v=0
110650 Par ch=1 c=64 v=72
110660 On ch=1 n=c#8 v=82
110660 Par ch=1 c=64 v=24
110665 On ch=1 n=f7 v=0
110665 On ch=1 n=c#4 v=0
110670 On ch=1 n=a4 v=53
110675 Par ch=1 c=64 v=0
110760 Par ch=1 c=64 v=56
110770 Par ch=1 c=64 v=104
110780 Par ch=1 c=64 v=127
110790 On ch=1 n=a4 v=0
110795 On ch=1 n=c#4 v=55
110795 On ch=1 n=c#7 v=53
110805 On ch=1 n=f7 v=64
110810 On ch=1 n=c#8 v=0
110885 On ch=1 n=c#7 v=0
110890 Par ch=1 c=64 v=104
110900 Par ch=1 c=64 v=40
110910 Par ch=1 c=64 v=0
110940 On ch=1 n=f7 v=0
110940 On ch=1 n=c#4 v=0
110940 On ch=1 n=b7 v=87
110945 On ch=1 n=g#4 v=37
110990 Par ch=1 c=64 v=56
111000 Par ch=1 c=64 v=88
111010 Par ch=1 c=64 v=127
111055 On ch=1 n=g#4 v=0
111060 On ch=1 n=b7 v=0
111075 On ch=1 n=b6 v=60
111075 On ch=1 n=c#4 v=47
111080 On ch=1 n=f7 v=60
111135 On ch=1 n=f7 v=0
111170 On ch=1 n=b6 v=0
111185 Par ch=1 c=64 v=104
111195 Par ch=1 c=64 v=72
111205 Par ch=1 c=64 v=24
111215 On ch=1 n=a#7 v=77
111215 Par ch=1 c=64 v=0
111225 On ch=1 n=c#4 v=0
111225 On ch=1 n=g4 v=46
111290 Par ch=1 c=64 v=56
111300 Par ch=1 c=64 v=104
111310 Par ch=1 c=64 v=127
111325 On ch=1 n=g4 v=0
111350 On ch=1 n=a#7 v=0
111350 On ch=1 n=c#7 v=56
111350 On ch=1 n=c#4 v=42
111355 On ch=1 n=a#6 v=42
111430 On ch=1 n=a#6 v=0
111455 On ch=1 n=c#7 v=0
111465 Par ch=1 c=64 v=104
111475 Par ch=1 c=64 v=40
111485 On ch=1 n=a7 v=88
111485 Par ch=1 c=64 v=0
111490 On ch=1 n=c#4 v=0
111490 On ch=1 n=f#4 v=47
111540 Par ch=1 c=64 v=56
111550 Par ch=1 c=64 v=88
111560 Par ch=1 c=64 v=127
111575 On ch=1 n=f#4 v=0
111580 On ch=1 n=a7 v=0
111615 On ch=1 n=c#4 v=46
111625 On ch=1 n=a6 v=56
111630 On ch=1 n=c7 v=62
111685 On ch=1 n=a6 v=0
111745 Par ch=1 c=64 v=56
111750 On ch=1 n=c7 v=0
111755 Par ch=1 c=64 v=0
111760 On ch=1 n=g#7 v=82
111765 On ch=1 n=c#4 v=0
111770 On ch=1 n=a4 v=52
111810 Par ch=1 c=64 v=40
111820 Par ch=1 c=64 v=72
111830 Par ch=1 c=64 v=127
111880 On ch=1 n=g#7 v=0
111885 On ch=1 n=a4 v=0
111910 On ch=1 n=c#4 v=50
111910 On ch=1 n=c7 v=56
111915 On ch=1 n=g#6 v=42
111995 Par ch=1 c=64 v=104
112000 On ch=1 n=c#4 v=0
112005 Par ch=1 c=64 v=40
112010 On ch=1 n=g#6 v=0
112015 On ch=1 n=c7 v=0
112015 Par ch=1 c=64 v=0
112030 On ch=1 n=d#5 v=60
112030 On ch=1 n=f#7 v=78
112045 Par ch=1 c=64 v=40
112060 Par ch=1 c=64 v=72
112070 Par ch=1 c=64 v=127
112105 On ch=1 n=d#5 v=0
112160 On ch=1 n=f#7 v=0
112175 On ch=1 n=c7 v=55
112175 On ch=1 n=c#4 v=54
112175 On ch=1 n=f#6 v=37
112195 On ch=1 n=c7 v=0
112205 On ch=1 n=f#6 v=0
112260 On ch=1 n=c#4 v=0
112285 Par ch=1 c=64 v=88
112295 Par ch=1 c=64 v=24
112305 Par ch=1 c=64 v=0
112315 On ch=1 n=f7 v=84
112325 On ch=1 n=f6 v=59
112325 On ch=1 n=c#7 v=52
112340 Par ch=1 c=64 v=72
112345 On ch=1 n=g#5 v=47
112345 On ch=1 n=c#5 v=52
112350 Par ch=1 c=64 v=104
112360 Par ch=1 c=64 v=127
112375 On ch=1 n=g#5 v=0
112395 On ch=1 n=c#5 v=0
112415 On ch=1 n=f7 v=0
112455 On ch=1 n=c#7 v=0
112460 On ch=1 n=f6 v=0
112480 On ch=1 n=c#3 v=51
112500 On ch=1 n=c#3 v=0
112585 Par ch=1 c=64 v=88
112600 Par ch=1 c=64 v=56
112610 Par ch=1 c=64 v=24
112615 On ch=1 n=d6 v=69
112620 On ch=1 n=f5 v=47
112620 Par ch=1 c=64 v=0
112635 On ch=1 n=b4 v=31
112635 On ch=1 n=g#5 v=26
112695 On ch=1 n=g#5 v=0
112720 On ch=1 n=b4 v=0
112720 On ch=1 n=d6 v=0
112745 On ch=1 n=b5 v=62
112755 On ch=1 n=d5 v=51
112765 On ch=1 n=f5 v=0
112820 On ch=1 n=d5 v=0
112870 On ch=1 n=b5 v=0
112875 On ch=1 n=g5 v=69
112880 On ch=1 n=a#4 v=47
112985 On ch=1 n=a#4 v=0
113005 On ch=1 n=g5 v=0
113005 On ch=1 n=e5 v=56
113010 On ch=1 n=c#5 v=38
113100 On ch=1 n=c#5 v=0
113130 On ch=1 n=e5 v=0
113140 On ch=1 n=g#5 v=54
113150 On ch=1 n=b4 v=38
113245 On ch=1 n=b4 v=0
113255 On ch=1 n=g#5 v=0
113270 On ch=1 n=d5 v=56
113275 On ch=1 n=f5 v=59
113370 On ch=1 n=d5 v=0
113405 On ch=1 n=c#6 v=71
113415 On ch=1 n=e4 v=57
113520 On ch=1 n=f5 v=0
113540 On ch=1 n=e4 v=0
113545 On ch=1 n=a#5 v=65
113555 On ch=1 n=c#6 v=0
113560 On ch=1 n=g4 v=44
113670 On ch=1 n=g4 v=0
113670 On ch=1 n=a#5 v=0
113675 On ch=1 n=d6 v=77
113700 On ch=1 n=f4 v=41
113780 On ch=1 n=f4 v=0
113790 Par ch=1 c=64 v=40
113795 Par ch=1 c=64 v=72
113805 On ch=1 n=d6 v=0
113810 Par ch=1 c=64 v=104
113820 On ch=1 n=b5 v=62
113820 On ch=1 n=g#4 v=44
113820 Par ch=1 c=64 v=127
113905 Par ch=1 c=64 v=88
113915 Par ch=1 c=64 v=56
113925 On ch=1 n=b5 v=0
113925 Par ch=1 c=64 v=24
113940 Par ch=1 c=64 v=0
113945 On ch=1 n=g#4 v=0
113950 On ch=1 n=g6 v=82
113965 On ch=1 n=a#3 v=40
113985 Par ch=1 c=64 v=24
113995 Par ch=1 c=64 v=40
114005 Par ch=1 c=64 v=72
114015 Par ch=1 c=64 v=88
114060 On ch=1 n=a#3 v=0
114060 Par ch=1 c=64 v=104
114080 On ch=1 n=g6 v=0
114085 On ch=1 n=e6 v=66
114085 On ch=1 n=c#4 v=48
114100 Par ch=1 c=64 v=127
114165 On ch=1 n=e6 v=0
114175 Par ch=1 c=64 v=104
114185 Par ch=1 c=64 v=72
114200 Par ch=1 c=64 v=40
114205 On ch=1 n=c#4 v=0
114210 Par ch=1 c=64 v=0
114215 On ch=1 n=g#6 v=78
114225 On ch=1 n=b3 v=46
114255 Par ch=1 c=64 v=24
114265 Par ch=1 c=64 v=56
114275 Par ch=1 c=64 v=88
114285 Par ch=1 c=64 v=127
114340 On ch=1 n=g#6 v=0
114345 On ch=1 n=f6 v=69
114350 On ch=1 n=d4 v=45
114355 On ch=1 n=b3 v=0
114380 On ch=1 n=d4 v=0
114460 Par ch=1 c=64 v=88
114470 On ch=1 n=f6 v=0
114470 Par ch=1 c=64 v=40
114480 Par ch=1 c=64 v=0
114485 On ch=1 n=d7 v=83
114495 On ch=1 n=b3 v=58
114525 Par ch=1 c=64 v=24
114535 Par ch=1 c=64 v=56
114545 Par ch=1 c=64 v=88
114555 Par ch=1 c=64 v=127
114595 On ch=1 n=d7 v=0
114615 On ch=1 n=b3 v=0
114620 On ch=1 n=d6 v=54
114625 On ch=1 n=f6 v=64
114630 On ch=1 n=c#3 v=46
114660 On ch=1 n=d6 v=0
114730 Par ch=1 c=64 v=104
114740 On ch=1 n=f6 v=0
114740 Par ch=1 c=64 v=56
114745 On ch=1 n=c#3 v=0
114750 On ch=1 n=c#7 v=79
114750 Par ch=1 c=64 v=24
114760 Par ch=1 c=64 v=0
114770 On ch=1 n=a3 v=59
114805 Par ch=1 c=64 v=24
114815 Par ch=1 c=64 v=72
114825 Par ch=1 c=64 v=104
114835 Par ch=1 c=64 v=127
114865 On ch=1 n=a3 v=0
114885 On ch=1 n=c#7 v=0
114885 On ch=1 n=c#3 v=46
114890 On ch=1 n=f6 v=65
114890 On ch=1 n=c#6 v=47
114965 On ch=1 n=c#6 v=0
115000 Par ch=1 c=64 v=72
115010 On ch=1 n=f6 v=0
115010 Par ch=1 c=64 v=0
115015 On ch=1 n=c#3 v=0
115025 On ch=1 n=b6 v=82
115030 On ch=1 n=g#3 v=45
115105 Par ch=1 c=64 v=24
115115 Par ch=1 c=64 v=56
115130 Par ch=1 c=64 v=104
115140 On ch=1 n=b6 v=0
115140 Par ch=1 c=64 v=127
115150 On ch=1 n=g#3 v=0
115160 On ch=1 n=c#3 v=44
115160 On ch=1 n=f6 v=64
115160 On ch=1 n=b5 v=56
115245 On ch=1 n=b5 v=0
115265 On ch=1 n=f6 v=0
115270 Par ch=1 c=64 v=56
115280 Par ch=1 c=64 v=0
115295 On ch=1 n=c#3 v=0
115295 On ch=1 n=a#6 v=73
115315 On ch=1 n=g3 v=44
115365 Par ch=1 c=64 v=24
115375 Par ch=1 c=64 v=72
115385 Par ch=1 c=64 v=104
115400 Par ch=1 c=64 v=127
115420 On ch=1 n=g3 v=0
115430 On ch=1 n=c#3 v=39
115440 On ch=1 n=c#6 v=53
115445 On ch=1 n=a#6 v=0
115445 On ch=1 n=a#5 v=42
115515 On ch=1 n=a#5 v=0
115540 Par ch=1 c=64 v=72
115550 On ch=1 n=c#6 v=0
115550 Par ch=1 c=64 v=24
115560 Par ch=1 c=64 v=0
115565 On ch=1 n=c#3 v=0
115565 On ch=1 n=a6 v=82
115570 On ch=1 n=f#3 v=49
115625 Par ch=1 c=64 v=24
115635 Par ch=1 c=64 v=56
115645 Par ch=1 c=64 v=104
115660 Par ch=1 c=64 v=127
115685 On ch=1 n=a6 v=0
115700 On ch=1 n=f#3 v=0
115700 On ch=1 n=c#3 v=46
115705 On ch=1 n=c6 v=61
115715 On ch=1 n=a5 v=41
115780 On ch=1 n=a5 v=0
115800 Par ch=1 c=64 v=88
115810 Par ch=1 c=64 v=40
115820 On ch=1 n=c6 v=0
115820 On ch=1 n=c#3 v=0
115820 Par ch=1 c=64 v=0
115825 On ch=1 n=g#6 v=83
115845 On ch=1 n=a3 v=48
115885 Par ch=1 c=64 v=24
115895 Par ch=1 c=64 v=72
115905 Par ch=1 c=64 v=104
115915 Par ch=1 c=64 v=127
115940 On ch=1 n=a3 v=0
115970 On ch=1 n=c#3 v=42
115975 On ch=1 n=c6 v=52
115980 On ch=1 n=g#6 v=0
115980 On ch=1 n=g#5 v=32
116060 On ch=1 n=c#3 v=0
116070 Par ch=1 c=64 v=72
116080 On ch=1 n=g#5 v=0
116080 On ch=1 n=c6 v=0
116080 Par ch=1 c=64 v=24
116090 On ch=1 n=f#6 v=80
116090 Par ch=1 c=64 v=0
116095 On ch=1 n=d#4 v=44
116135 Par ch=1 c=64 v=40
116145 Par ch=1 c=64 v=72
116155 Par ch=1 c=64 v=127
116185 On ch=1 n=d#4 v=0
116215 On ch=1 n=f#6 v=0
116230 On ch=1 n=c6 v=49
116235 On ch=1 n=f#5 v=28
116240 On ch=1 n=c#3 v=43
116275 On ch=1 n=c6 v=0
116285 On ch=1 n=f#5 v=0
116330 Par ch=1 c=64 v=88
116340 Par ch=1 c=64 v=24
116350 On ch=1 n=f6 v=86
116350 Par ch=1 c=64 v=0
116365 On ch=1 n=c#3 v=0
116365 On ch=1 n=c#4 v=61
116405 Par ch=1 c=64 v=24
116415 Par ch=1 c=64 v=72
116425 Par ch=1 c=64 v=127
116455 On ch=1 n=f6 v=0
116475 On ch=1 n=c#4 v=0
116495 On ch=1 n=g#5 v=58
116500 On ch=1 n=c#3 v=46
116500 On ch=1 n=f5 v=48
116550 On ch=1 n=g#5 v=0
116590 On ch=1 n=f5 v=0
116610 Par ch=1 c=64 v=104
116620 Par ch=1 c=64 v=40
116630 On ch=1 n=c#3 v=0
116630 Par ch=1 c=64 v=0
116640 On ch=1 n=d6 v=82
116650 On ch=1 n=b3 v=54
116710 Par ch=1 c=64 v=56
116720 Par ch=1 c=64 v=88
116730 Par ch=1 c=64 v=127
116745 On ch=1 n=b3 v=0
116745 On ch=1 n=d6 v=0
116780 On ch=1 n=d5 v=54
116780 On ch=1 n=f5 v=40
116780 On ch=1 n=c#3 v=43
116860 On ch=1 n=d5 v=0
116890 Par ch=1 c=64 v=104
116900 Par ch=1 c=64 v=72
116905 On ch=1 n=f5 v=0
116910 Par ch=1 c=64 v=24
116915 On ch=1 n=c#6 v=77
116920 On ch=1 n=c#3 v=0
116925 On ch=1 n=a3 v=56
116925 Par ch=1 c=64 v=0
116990 Par ch=1 c=64 v=40
117000 Par ch=1 c=64 v=88
117010 Par ch=1 c=64 v=127
117050 On ch=1 n=c#6 v=0
117055 On ch=1 n=a3 v=0
117055 On ch=1 n=c#3 v=38
117060 On ch=1 n=c#5 v=36
117065 On ch=1 n=f5 v=53
117135 On ch=1 n=c#5 v=0
117170 Par ch=1 c=64 v=88
117175 On ch=1 n=f5 v=0
117180 Par ch=1 c=64 v=24
117190 On ch=1 n=b5 v=78
117195 On ch=1 n=c#3 v=0
117195 Par ch=1 c=64 v=0
117205 On ch=1 n=g#3 v=42
117250 Par ch=1 c=64 v=40
117260 Par ch=1 c=64 v=72
117270 Par ch=1 c=64 v=127
117300 On ch=1 n=b5 v=0
117310 On ch=1 n=g#3 v=0
117330 On ch=1 n=c#3 v=46
117330 On ch=1 n=b4 v=39
117335 On ch=1 n=f5 v=44
117405 On ch=1 n=f5 v=0
117405 On ch=1 n=b4 v=0
117455 Par ch=1 c=64 v=72
117465 On ch=1 n=a#5 v=73
117465 Par ch=1 c=64 v=0
117470 On ch=1 n=c#3 v=0
117480 On ch=1 n=g3 v=53
117540 Par ch=1 c=64 v=24
117550 Par ch=1 c=64 v=72
117560 Par ch=1 c=64 v=127
117600 On ch=1 n=g3 v=0
117600 On ch=1 n=c#3 v=45
117605 On ch=1 n=c#5 v=47
117615 On ch=1 n=a#5 v=0
117615 On ch=1 n=a#4 v=32
117680 On ch=1 n=a#4 v=0
117720 On ch=1 n=c#5 v=0
117735 On ch=1 n=a5 v=81
117745 Par ch=1 c=64 v=72
117750 On ch=1 n=f#3 v=44
117755 On ch=1 n=c#3 v=0
117755 Par ch=1 c=64 v=24
117765 Par ch=1 c=64 v=0
117810 Par ch=1 c=64 v=40
117820 Par ch=1 c=64 v=88
117830 Par ch=1 c=64 v=127
117855 On ch=1 n=a5 v=0
117875 On ch=1 n=c#3 v=43
117880 On ch=1 n=f#3 v=0
117880 On ch=1 n=c5 v=53
117885 On ch=1 n=a4 v=41
117940 On ch=1 n=a4 v=0
118005 On ch=1 n=g#5 v=75
118010 On ch=1 n=c5 v=0
118015 Par ch=1 c=64 v=72
118025 On ch=1 n=a3 v=56
118025 Par ch=1 c=64 v=0
118035 On ch=1 n=c#3 v=0
118055 Par ch=1 c=64 v=40
118070 Par ch=1 c=64 v=72
118080 Par ch=1 c=64 v=104
118090 Par ch=1 c=64 v=127
118140 On ch=1 n=g#5 v=0
118155 On ch=1 n=c5 v=44
118160 On ch=1 n=c#3 v=38
118160 On ch=1 n=g#4 v=28
118225 On ch=1 n=c#3 v=0
118250 On ch=1 n=c5 v=0
118250 On ch=1 n=a3 v=0
118255 On ch=1 n=g#4 v=0
118270 On ch=1 n=f#5 v=71
118280 On ch=1 n=d#4 v=45
118350 On ch=1 n=d#4 v=0
118385 On ch=1 n=f#5 v=0
118410 On ch=1 n=c#3 v=42
118420 On ch=1 n=f#4 v=23
118425 On ch=1 n=c5 v=25
118450 On ch=1 n=c5 v=0
118455 On ch=1 n=f#4 v=0
118535 Par ch=1 c=64 v=88
118545 Par ch=1 c=64 v=40
118555 On ch=1 n=f5 v=73
118555 Par ch=1 c=64 v=0
118565 On ch=1 n=f4 v=58
118565 On ch=1 n=c#5 v=54
118575 On ch=1 n=c#4 v=53
118600 Par ch=1 c=64 v=24
118610 Par ch=1 c=64 v=72
118615 On ch=1 n=f4 v=0
118620 On ch=1 n=f5 v=0
118620 Par ch=1 c=64 v=127
118625 On ch=1 n=c#4 v=0
118625 On ch=1 n=c#5 v=0
118635 On ch=1 n=c#3 v=0
118770 Par ch=1 c=64 v=104
118785 Par ch=1 c=64 v=72
118795 Par ch=1 c=64 v=40
118805 Par ch=1 c=64 v=0
118815 On ch=1 n=d5 v=71
118820 On ch=1 n=g#4 v=59
118820 On ch=1 n=f4 v=61
118830 On ch=1 n=b3 v=66
118835 On ch=1 n=b2 v=59
118850 On ch=1 n=b2 v=0
118850 On ch=1 n=b3 v=0
118850 On ch=1 n=f4 v=0
118860 On ch=1 n=g#4 v=0
118865 On ch=1 n=d5 v=0
119105 On ch=1 n=c#5 v=60
119110 On ch=1 n=g#4 v=48
119115 On ch=1 n=c4 v=59
119120 On ch=1 n=f4 v=50
119120 On ch=1 n=c3 v=50
119135 On ch=1 n=c4 v=0
119140 On ch=1 n=f4 v=0
119145 On ch=1 n=c3 v=0
119160 On ch=1 n=g#4 v=0
119165 On ch=1 n=c#5 v=0
119365 On ch=1 n=c5 v=70
119370 On ch=1 n=c#4 v=63
119370 On ch=1 n=g#4 v=51
119370 On ch=1 n=c#3 v=59
119375 On ch=1 n=f4 v=54
119400 On ch=1 n=f4 v=0
119400 On ch=1 n=c#3 v=0
119410 On ch=1 n=c#4 v=0
119415 On ch=1 n=g#4 v=0
119425 On ch=1 n=c5 v=0
119640 On ch=1 n=b4 v=66
119640 On ch=1 n=g#4 v=58
119645 On ch=1 n=f4 v=55
119650 On ch=1 n=d4 v=63
119655 On ch=1 n=d3 v=55
119680 On ch=1 n=d3 v=0
119700 On ch=1 n=f4 v=0
119710 On ch=1 n=d4 v=0
119715 On ch=1 n=g#4 v=0
119715 On ch=1 n=b4 v=0
119890 On ch=1 n=d5 v=75
119900 On ch=1 n=f4 v=62
119905 On ch=1 n=b3 v=63
119905 On ch=1 n=g#4 v=54
119965 On ch=1 n=b3 v=0
119965 On ch=1 n=f4 v=0
119975 On ch=1 n=g#4 v=0
119990 On ch=1 n=d5 v=0
120150 On ch=1 n=c#5 v=65
120160 On ch=1 n=g#4 v=46
120160 On ch=1 n=c4 v=68
120165 On ch=1 n=f4 v=56
120200 Par ch=1 c=64 v=24
120210 Par ch=1 c=64 v=40
120220 Par ch=1 c=64 v=56
120245 On ch=1 n=c#5 v=0
120255 On ch=1 n=c4 v=0
120280 On ch=1 n=c5 v=70
120285 On ch=1 n=c#4 v=59
120285 Par ch=1 c=64 v=40
120310 Par ch=1 c=64 v=24
120320 Par ch=1 c=64 v=0
120380 On ch=1 n=c5 v=0
120400 On ch=1 n=c#4 v=0
120410 On ch=1 n=b4 v=70
120410 On ch=1 n=d4 v=65
120510 On ch=1 n=d4 v=0
120510 On ch=1 n=b4 v=0
120560 On ch=1 n=f4 v=0
120575 On ch=1 n=g#4 v=0
120975 On ch=1 n=d6 v=42
120980 On ch=1 n=f5 v=38
120985 On ch=1 n=b4 v=35
120995 On ch=1 n=g#5 v=26
121010 On ch=1 n=b4 v=0
121015 On ch=1 n=g#5 v=0
121015 On ch=1 n=f5 v=0
121020 On ch=1 n=d6 v=0
121230 On ch=1 n=c#6 v=57
121235 On ch=1 n=f5 v=45
121245 On ch=1 n=g#5 v=30
121250 On ch=1 n=c5 v=42
121270 On ch=1 n=c5 v=0
121270 On ch=1 n=g#5 v=0
121270 On ch=1 n=f5 v=0
121280 On ch=1 n=c#6 v=0
121490 On ch=1 n=c#5 v=42
121490 On ch=1 n=c6 v=38
121490 On ch=1 n=f5 v=34
121505 On ch=1 n=g#5 v=22
121525 On ch=1 n=c6 v=0
121530 On ch=1 n=f5 v=0
121530 On ch=1 n=c#5 v=0
121535 On ch=1 n=g#5 v=0
121730 On ch=1 n=b5 v=48
121735 On ch=1 n=f5 v=25
121740 On ch=1 n=d5 v=34
121740 On ch=1 n=g#5 v=30
121770 On ch=1 n=d5 v=0
121775 On ch=1 n=f5 v=0
121775 On ch=1 n=b5 v=0
121785 On ch=1 n=g#5 v=0
121965 On ch=1 n=f5 v=41
121970 On ch=1 n=g#5 v=36
121970 On ch=1 n=d6 v=41
121980 On ch=1 n=b4 v=28
122020 On ch=1 n=b4 v=0
122035 On ch=1 n=g#5 v=0
122035 On ch=1 n=f5 v=0
122040 On ch=1 n=d6 v=0
122215 On ch=1 n=c#6 v=45
122230 On ch=1 n=c5 v=29
122230 On ch=1 n=f5 v=31
122240 On ch=1 n=g#5 v=20
122305 On ch=1 n=c5 v=0
122305 On ch=1 n=c#6 v=0
122325 On ch=1 n=c6 v=58
122335 On ch=1 n=c#5 v=42
122380 On ch=1 n=c6 v=0
122430 On ch=1 n=c#5 v=0
122440 On ch=1 n=b5 v=47
122445 On ch=1 n=d5 v=44
122480 On ch=1 n=g#5 v=0
122495 On ch=1 n=f5 v=0
122520 On ch=1 n=b5 v=0
122530 On ch=1 n=d5 v=0
122955 On ch=1 n=g#4 v=56
122955 On ch=1 n=f5 v=68
122960 On ch=1 n=d5 v=61
122965 On ch=1 n=b3 v=63
122970 On ch=1 n=b2 v=45
122980 On ch=1 n=d5 v=0
122985 On ch=1 n=b3 v=0
122990 On ch=1 n=f5 v=0
122995 On ch=1 n=b2 v=0
122995 On ch=1 n=g#4 v=0
123215 On ch=1 n=f5 v=63
123215 On ch=1 n=g#4 v=51
123215 On ch=1 n=c#5 v=56
123220 On ch=1 n=c4 v=70
123225 On ch=1 n=c3 v=59
123240 On ch=1 n=c4 v=0
123245 On ch=1 n=c3 v=0
123250 On ch=1 n=g#4 v=0
123250 On ch=1 n=f5 v=0
123265 On ch=1 n=c#5 v=0
123460 On ch=1 n=c#4 v=59
123460 On ch=1 n=g#4 v=44
123460 On ch=1 n=c5 v=67
123460 On ch=1 n=f5 v=49
123460 On ch=1 n=c#3 v=46
123485 On ch=1 n=c#3 v=0
123500 On ch=1 n=g#4 v=0
123505 On ch=1 n=f5 v=0
123505 On ch=1 n=c#4 v=0
123510 On ch=1 n=c5 v=0
123700 On ch=1 n=g#4 v=48
123700 On ch=1 n=f5 v=56
123705 On ch=1 n=b4 v=62
123715 On ch=1 n=d3 v=55
123715 On ch=1 n=d4 v=59
123735 On ch=1 n=d3 v=0
123745 On ch=1 n=d4 v=0
123750 On ch=1 n=g#4 v=0
123755 On ch=1 n=f5 v=0
123760 On ch=1 n=b4 v=0
123945 On ch=1 n=f5 v=65
123945 On ch=1 n=g#4 v=49
123950 On ch=1 n=b3 v=63
123960 On ch=1 n=d5 v=56
123990 On ch=1 n=d5 v=0
124005 On ch=1 n=b3 v=0
124005 On ch=1 n=f5 v=0
124010 On ch=1 n=g#4 v=0
124190 On ch=1 n=c4 v=69
124195 On ch=1 n=f5 v=52
124200 On ch=1 n=c#5 v=45
124205 On ch=1 n=g#4 v=28
124245 On ch=1 n=c4 v=0
124270 On ch=1 n=c#5 v=0
124290 On ch=1 n=c5 v=67
124300 On ch=1 n=c#4 v=60
124370 On ch=1 n=c5 v=0
124375 On ch=1 n=c#4 v=0
124410 On ch=1 n=b4 v=48
124425 On ch=1 n=d4 v=51
124570 On ch=1 n=b4 v=0
124570 On ch=1 n=g#4 v=0
124575 On ch=1 n=f5 v=0
124590 On ch=1 n=d4 v=0
124985 On ch=1 n=f6 v=45
124985 On ch=1 n=b4 v=45
124995 On ch=1 n=g#5 v=26
124995 On ch=1 n=d6 v=44
125020 On ch=1 n=d6 v=0
125020 On ch=1 n=b4 v=0
125020 On ch=1 n=f6 v=0
125025 On ch=1 n=g#5 v=0
125235 On ch=1 n=c#6 v=46
125235 On ch=1 n=f6 v=46
125235 On ch=1 n=g#5 v=31
125240 On ch=1 n=c5 v=45
125270 On ch=1 n=f6 v=0
125275 On ch=1 n=c5 v=0
125285 On ch=1 n=g#5 v=0
125300 On ch=1 n=c#6 v=0
125470 On ch=1 n=c6 v=52
125470 On ch=1 n=f6 v=46
125480 On ch=1 n=g#5 v=25
125490 On ch=1 n=c#5 v=27
125520 On ch=1 n=f6 v=0
125520 On ch=1 n=c6 v=0
125540 On ch=1 n=c#5 v=0
125560 On ch=1 n=g#5 v=0
125705 On ch=1 n=g#5 v=29
125710 On ch=1 n=b5 v=41
125710 On ch=1 n=f6 v=46
125720 On ch=1 n=d5 v=40
125745 On ch=1 n=d5 v=0
125755 On ch=1 n=b5 v=0
125760 On ch=1 n=f6 v=0
125775 On ch=1 n=g#5 v=0
125945 On ch=1 n=f6 v=51
125945 On ch=1 n=b4 v=44
125945 On ch=1 n=g#5 v=34
125955 On ch=1 n=d6 v=44
125995 On ch=1 n=f6 v=0
126000 On ch=1 n=b4 v=0
126005 On ch=1 n=d6 v=0
126020 On ch=1 n=g#5 v=0
126185 On ch=1 n=c5 v=45
126190 On ch=1 n=f6 v=40
126190 On ch=1 n=c#6 v=45
126205 On ch=1 n=g#5 v=22
126245 On ch=1 n=c5 v=0
126295 On ch=1 n=c6 v=63
126300 On ch=1 n=c#6 v=0
126300 On ch=1 n=c#5 v=34
126355 On ch=1 n=c6 v=0
126400 On ch=1 n=c#5 v=0
126400 On ch=1 n=b5 v=58
126400 On ch=1 n=d5 v=50
126460 On ch=1 n=g#5 v=0
126475 On ch=1 n=f6 v=0
126500 On ch=1 n=d5 v=0
126500 On ch=1 n=b5 v=0
126855 On ch=1 n=g#6 v=37
126860 On ch=1 n=f6 v=42
126865 On ch=1 n=b5 v=38
126870 On ch=1 n=d5 v=32
126890 On ch=1 n=f6 v=0
126895 On ch=1 n=d5 v=0
126895 On ch=1 n=b5 v=0
126900 On ch=1 n=g#6 v=0
127090 On ch=1 n=d#5 v=44
127095 On ch=1 n=g#6 v=43
127100 On ch=1 n=e6 v=44
127110 On ch=1 n=b5 v=26
127125 On ch=1 n=e6 v=0
127130 On ch=1 n=b5 v=0
127130 On ch=1 n=d#5 v=0
127135 On ch=1 n=g#6 v=0
127310 On ch=1 n=d#6 v=54
127320 On ch=1 n=e5 v=54
127325 On ch=1 n=g#6 v=28
127330 On ch=1 n=b5 v=25
127340 On ch=1 n=e5 v=0
127355 On ch=1 n=b5 v=0
127355 On ch=1 n=g#6 v=0
127370 On ch=1 n=d#6 v=0
127520 On ch=1 n=g#6 v=42
127530 On ch=1 n=d6 v=53
127535 On ch=1 n=b5 v=35
127535 On ch=1 n=f5 v=38
127555 On ch=1 n=b5 v=0
127555 On ch=1 n=d6 v=0
127570 On ch=1 n=f5 v=0
127570 On ch=1 n=g#6 v=0
127760 On ch=1 n=b6 v=52
127760 On ch=1 n=d6 v=46
127765 On ch=1 n=f5 v=44
127765 On ch=1 n=g#6 v=34
127800 On ch=1 n=b6 v=0
127810 On ch=1 n=f5 v=0
127810 On ch=1 n=d6 v=0
127825 On ch=1 n=g#6 v=0
127970 On ch=1 n=f#5 v=39
127980 On ch=1 n=b6 v=43
127980 On ch=1 n=g6 v=54
127990 On ch=1 n=d6 v=30
128035 On ch=1 n=g6 v=0
128040 On ch=1 n=f#5 v=0
128070 On ch=1 n=f#6 v=50
128075 On ch=1 n=g5 v=34
128140 On ch=1 n=f#6 v=0
128160 On ch=1 n=g5 v=0
128190 On ch=1 n=g#5 v=36
128200 On ch=1 n=f6 v=55
128265 On ch=1 n=d6 v=0
128270 On ch=1 n=f6 v=0
128280 On ch=1 n=b6 v=0
128305 On ch=1 n=g#5 v=0
128425 On ch=1 n=g#5 v=40
128435 On ch=1 n=d7 v=54
128440 On ch=1 n=b6 v=41
128445 On ch=1 n=f6 v=38
128505 On ch=1 n=b6 v=0
128530 On ch=1 n=a#6 v=55
128545 On ch=1 n=g#5 v=0
128550 On ch=1 n=a5 v=45
128560 On ch=1 n=f6 v=0
128610 On ch=1 n=a#6 v=0
128625 On ch=1 n=a5 v=0
128645 On ch=1 n=a6 v=41
128650 On ch=1 n=a#5 v=33
128715 On ch=1 n=a6 v=0
128715 On ch=1 n=d7 v=0
128735 On ch=1 n=a#5 v=0
128740 On ch=1 n=g#6 v=53
128760 On ch=1 n=b5 v=39
128780 On ch=1 n=g#6 v=0
128785 On ch=1 n=b5 v=0
128865 On ch=1 n=b5 v=51
128865 On ch=1 n=f7 v=67
128870 On ch=1 n=d7 v=46
128875 On ch=1 n=g#6 v=25
128955 On ch=1 n=d7 v=0
128965 On ch=1 n=b5 v=0
128965 On ch=1 n=c7 v=60
128985 On ch=1 n=c6 v=45
129035 On ch=1 n=c7 v=0
129070 On ch=1 n=c6 v=0
129080 On ch=1 n=c#7 v=56
129085 On ch=1 n=g#6 v=0
129085 On ch=1 n=c#6 v=46
129175 On ch=1 n=c#7 v=0
129175 On ch=1 n=f7 v=0
129180 On ch=1 n=c#6 v=0
129180 On ch=1 n=b6 v=56
129200 On ch=1 n=b6 v=0
129200 On ch=1 n=d6 v=39
129225 On ch=1 n=d6 v=0
129310 On ch=1 n=d6 v=43
129315 On ch=1 n=g#7 v=58
129325 On ch=1 n=b6 v=39
129325 On ch=1 n=e7 v=58
129385 On ch=1 n=e7 v=0
129420 On ch=1 n=d6 v=0
129420 On ch=1 n=d#6 v=57
129440 On ch=1 n=d#7 v=67
129520 On ch=1 n=d#7 v=0
129525 On ch=1 n=d#6 v=0
129540 On ch=1 n=e7 v=70
129540 On ch=1 n=e6 v=55
129610 On ch=1 n=e7 v=0
129635 On ch=1 n=e6 v=0
129640 On ch=1 n=b6 v=0
129640 On ch=1 n=d7 v=70
129650 On ch=1 n=g#7 v=0
129665 On ch=1 n=d7 v=0
129665 On ch=1 n=f6 v=51
129685 On ch=1 n=f6 v=0
129760 On ch=1 n=f6 v=37
129780 On ch=1 n=d7 v=47
129780 On ch=1 n=b7 v=60
129785 On ch=1 n=g#7 v=46
129840 On ch=1 n=g#7 v=0
129880 On ch=1 n=f#7 v=62
129885 On ch=1 n=f6 v=0
129885 On ch=1 n=f#6 v=47
129940 On ch=1 n=f#7 v=0
129970 On ch=1 n=f#6 v=0
129995 On ch=1 n=d7 v=0
129995 On ch=1 n=g7 v=52
130000 On ch=1 n=g6 v=45
130080 On ch=1 n=g7 v=0
130090 On ch=1 n=g6 v=0
130095 On ch=1 n=f7 v=64
130115 On ch=1 n=g#6 v=35
130130 On ch=1 n=f7 v=0
130135 On ch=1 n=b7 v=0
130160 On ch=1 n=g#6 v=0
130230 On ch=1 n=g#6 v=43
130245 On ch=1 n=d8 v=65
130250 On ch=1 n=f7 v=51
130250 On ch=1 n=b7 v=48
130330 On ch=1 n=g#6 v=0
130345 On ch=1 n=b7 v=0
130350 On ch=1 n=a6 v=40
130350 On ch=1 n=a#7 v=56
130415 On ch=1 n=a#7 v=0
130435 On ch=1 n=a6 v=0
130450 On ch=1 n=a#6 v=47
130470 On ch=1 n=b7 v=48
130535 On ch=1 n=b7 v=0
130555 On ch=1 n=a#6 v=0
130565 On ch=1 n=d8 v=0
130570 On ch=1 n=g#7 v=57
130580 On ch=1 n=b6 v=49
130585 On ch=1 n=f7 v=0
130605 On ch=1 n=b6 v=0
130610 On ch=1 n=g#7 v=0
130685 On ch=1 n=g#6 v=46
130690 On ch=1 n=b7 v=53
130695 On ch=1 n=d8 v=29
130700 On ch=1 n=f7 v=45
130770 On ch=1 n=b7 v=0
130795 On ch=1 n=a7 v=58
130805 On ch=1 n=g#6 v=0
130810 On ch=1 n=a6 v=44
130875 On ch=1 n=a7 v=0
130895 On ch=1 n=a6 v=0
130900 On ch=1 n=a#7 v=50
130905 On ch=1 n=a#6 v=49
130990 On ch=1 n=d8 v=0
130995 On ch=1 n=a#6 v=0
130995 On ch=1 n=a#7 v=0
131005 On ch=1 n=f7 v=0
131005 On ch=1 n=g#7 v=64
131030 On ch=1 n=b6 v=29
131055 On ch=1 n=b6 v=0
131055 On ch=1 n=g#7 v=0
131120 On ch=1 n=g#6 v=46
131120 On ch=1 n=d8 v=54
131130 On ch=1 n=b7 v=44
131135 On ch=1 n=f7 v=41
131205 On ch=1 n=b7 v=0
131230 On ch=1 n=a7 v=56
131235 On ch=1 n=g#6 v=0
131240 On ch=1 n=a6 v=39
131305 On ch=1 n=a7 v=0
131330 On ch=1 n=a6 v=0
131330 On ch=1 n=a#7 v=46
131340 On ch=1 n=a#6 v=45
131425 On ch=1 n=d8 v=0
131430 On ch=1 n=a#7 v=0
131430 On ch=1 n=f7 v=0
131435 On ch=1 n=a#6 v=0
131435 On ch=1 n=g#7 v=68
131460 On ch=1 n=b6 v=40
131480 On ch=1 n=b6 v=0
131485 On ch=1 n=g#7 v=0
131560 On ch=1 n=g#6 v=44
131560 On ch=1 n=d8 v=58
131565 On ch=1 n=b7 v=54
131570 On ch=1 n=f7 v=53
131660 On ch=1 n=b7 v=0
131665 On ch=1 n=a7 v=64
131675 On ch=1 n=g#6 v=0
131680 On ch=1 n=a6 v=42
131735 On ch=1 n=a7 v=0
131760 On ch=1 n=a6 v=0
131770 On ch=1 n=a#7 v=49
131775 On ch=1 n=a#6 v=46
131855 On ch=1 n=a#7 v=0
131875 On ch=1 n=g#7 v=49
131880 On ch=1 n=a#6 v=0
131905 On ch=1 n=b6 v=32
131960 On ch=1 n=b6 v=0
131975 On ch=1 n=g#7 v=0
131980 On ch=1 n=d8 v=0
131990 On ch=1 n=f7 v=0
132010 On ch=1 n=f8 v=60
132010 On ch=1 n=d8 v=58
132045 On ch=1 n=b7 v=16
132090 On ch=1 n=b7 v=0
132090 On ch=1 n=f8 v=0
132105 On ch=1 n=d8 v=0
132125 On ch=1 n=c#8 v=61
132125 On ch=1 n=a#7 v=37
132180 On ch=1 n=a#7 v=0
132185 On ch=1 n=c#8 v=0
132245 On ch=1 n=f8 v=47
132245 On ch=1 n=d8 v=45
132250 On ch=1 n=b7 v=31
132305 On ch=1 n=b7 v=0
132315 On ch=1 n=d8 v=0
132315 On ch=1 n=f8 v=0
132345 On ch=1 n=c8 v=59
132355 On ch=1 n=a7 v=58
132380 On ch=1 n=a7 v=0
132380 On ch=1 n=c8 v=0
132465 On ch=1 n=d8 v=58
132475 On ch=1 n=b7 v=37
132475 On ch=1 n=g#7 v=32
132540 On ch=1 n=g#7 v=0
132545 On ch=1 n=d8 v=0
132555 On ch=1 n=b7 v=0
132570 On ch=1 n=a#7 v=53
132585 On ch=1 n=g7 v=41
132615 On ch=1 n=g7 v=0
132625 On ch=1 n=a#7 v=0
132680 On ch=1 n=d8 v=63
132680 On ch=1 n=g#7 v=46
132695 On ch=1 n=b7 v=42
132720 On ch=1 n=b7 v=0
132735 On ch=1 n=d8 v=0
132755 On ch=1 n=g#7 v=0
132795 On ch=1 n=a7 v=53
132800 On ch=1 n=f#7 v=37
132815 On ch=1 n=a7 v=0
132845 On ch=1 n=f#7 v=0
132910 On ch=1 n=g#7 v=43
132920 On ch=1 n=b7 v=48
132920 On ch=1 n=f7 v=44
132980 On ch=1 n=f7 v=0
132995 On ch=1 n=b7 v=0
133000 On ch=1 n=g#7 v=0
133025 On ch=1 n=g7 v=47
133030 On ch=1 n=e7 v=45
133055 On ch=1 n=e7 v=0
133070 On ch=1 n=g7 v=0
133135 On ch=1 n=b7 v=54
133135 On ch=1 n=g#7 v=43
133140 On ch=1 n=f7 v=41
133190 On ch=1 n=f7 v=0
133200 On ch=1 n=b7 v=0
133220 On ch=1 n=g#7 v=0
133240 On ch=1 n=f#7 v=55
133250 On ch=1 n=d#7 v=56
133270 On ch=1 n=f#7 v=0
133305 On ch=1 n=d#7 v=0
133350 On ch=1 n=f#7 v=32
133365 On ch=1 n=f#7 v=0
133365 On ch=1 n=g#7 v=56
133370 On ch=1 n=d7 v=45
133370 On ch=1 n=f7 v=58
133435 On ch=1 n=d7 v=0
133445 On ch=1 n=f7 v=0
133455 On ch=1 n=g#7 v=0
133470 On ch=1 n=c#7 v=46
133475 On ch=1 n=e7 v=58
133525 On ch=1 n=e7 v=0
133525 On ch=1 n=c#7 v=0
133585 On ch=1 n=g#7 v=51
133595 On ch=1 n=f7 v=38
133655 On ch=1 n=f7 v=0
133665 On ch=1 n=g#7 v=0
133690 On ch=1 n=d#7 v=51
133705 On ch=1 n=c7 v=54
133725 On ch=1 n=d#7 v=0
133735 On ch=1 n=c7 v=0
133810 On ch=1 n=f7 v=45
133820 On ch=1 n=b6 v=37
133825 On ch=1 n=d7 v=38
133865 On ch=1 n=b6 v=0
133880 On ch=1 n=f7 v=0
133900 On ch=1 n=d7 v=0
133920 On ch=1 n=c#7 v=52
133920 On ch=1 n=a#6 v=34
133980 On ch=1 n=a#6 v=0
134000 On ch=1 n=c#7 v=0
134035 On ch=1 n=f7 v=34
134045 On ch=1 n=d7 v=33
134045 On ch=1 n=b6 v=21
134080 On ch=1 n=b6 v=0
134090 On ch=1 n=f7 v=0
134105 On ch=1 n=d7 v=0
134130 On ch=1 n=c7 v=57
134145 On ch=1 n=a6 v=47
134165 On ch=1 n=c7 v=0
134210 On ch=1 n=a6 v=0
134260 On ch=1 n=g#6 v=34
134265 On ch=1 n=d7 v=34
134265 On ch=1 n=b6 v=39
134335 On ch=1 n=g#6 v=0
134340 On ch=1 n=d7 v=0
134345 On ch=1 n=b6 v=0
134360 On ch=1 n=a#6 v=53
134375 On ch=1 n=g6 v=40
134420 On ch=1 n=a#6 v=0
134445 On ch=1 n=g6 v=0
134470 On ch=1 n=g#6 v=46
134475 On ch=1 n=d7 v=54
134485 On ch=1 n=b6 v=43
134510 On ch=1 n=b6 v=0
134520 On ch=1 n=d7 v=0
134540 On ch=1 n=g#6 v=0
134580 On ch=1 n=a6 v=42
134585 On ch=1 n=f#6 v=33
134605 On ch=1 n=a6 v=0
134610 On ch=1 n=f#6 v=0
134680 On ch=1 n=g#6 v=44
134690 On ch=1 n=f6 v=41
134695 On ch=1 n=b6 v=40
134740 On ch=1 n=f6 v=0
134750 On ch=1 n=b6 v=0
134770 On ch=1 n=g#6 v=0
134780 On ch=1 n=g6 v=59
134790 On ch=1 n=e6 v=41
134840 On ch=1 n=g6 v=0
134865 On ch=1 n=e6 v=0
134885 On ch=1 n=b6 v=53
134885 On ch=1 n=g#6 v=36
134890 On ch=1 n=f6 v=32
134920 On ch=1 n=f6 v=0
134940 On ch=1 n=b6 v=0
134950 On ch=1 n=g#6 v=0
134985 On ch=1 n=f#6 v=50
134995 On ch=1 n=d#6 v=49
135015 On ch=1 n=f#6 v=0
135045 On ch=1 n=d#6 v=0
135100 On ch=1 n=g#6 v=46
135110 On ch=1 n=f6 v=24
135125 On ch=1 n=d6 v=18
135155 On ch=1 n=d6 v=0
135180 On ch=1 n=f6 v=0
135180 On ch=1 n=g#6 v=0
135200 On ch=1 n=e6 v=63
135205 On ch=1 n=c#6 v=31
135285 On ch=1 n=e6 v=0
135290 On ch=1 n=c#6 v=0
135315 On ch=1 n=g#6 v=37
135320 On ch=1 n=d6 v=32
135320 On ch=1 n=f6 v=39
135345 On ch=1 n=d6 v=0
135390 On ch=1 n=f6 v=0
135400 On ch=1 n=g#6 v=0
135410 On ch=1 n=d#6 v=54
135430 On ch=1 n=c6 v=28
135495 On ch=1 n=c6 v=0
135495 On ch=1 n=d#6 v=0
135525 On ch=1 n=d6 v=39
135530 On ch=1 n=g#6 v=28
135535 On ch=1 n=f6 v=37
135590 On ch=1 n=d6 v=0
135600 On ch=1 n=f6 v=0
135600 On ch=1 n=g#6 v=0
135625 On ch=1 n=e6 v=59
135625 On ch=1 n=c#6 v=33
135710 On ch=1 n=e6 v=0
135715 On ch=1 n=c#6 v=0
135730 On ch=1 n=f6 v=53
135735 On ch=1 n=g#6 v=33
135735 On ch=1 n=d6 v=37
135790 On ch=1 n=d6 v=0
135825 On ch=1 n=g#6 v=0
135825 On ch=1 n=f6 v=0
135835 On ch=1 n=c#6 v=36
135840 On ch=1 n=e6 v=59
135925 On ch=1 n=e6 v=0
135925 On ch=1 n=c#6 v=0
135940 On ch=1 n=g#6 v=38
135945 On ch=1 n=f6 v=51
135955 On ch=1 n=d6 v=28
136015 On ch=1 n=d6 v=0
136030 On ch=1 n=g#6 v=0
136035 On ch=1 n=f6 v=0
136040 On ch=1 n=c#6 v=34
136050 On ch=1 n=e6 v=54
136125 On ch=1 n=c#6 v=0
136130 On ch=1 n=e6 v=0
136150 On ch=1 n=g#6 v=40
136155 On ch=1 n=f6 v=45
136155 On ch=1 n=d6 v=24
136220 On ch=1 n=d6 v=0
136245 On ch=1 n=f6 v=0
136250 On ch=1 n=g#6 v=0
136250 On ch=1 n=c#6 v=35
136260 On ch=1 n=e6 v=54
136345 On ch=1 n=e6 v=0
136345 On ch=1 n=c#6 v=0
136360 On ch=1 n=g#6 v=33
136365 On ch=1 n=f6 v=45
136370 On ch=1 n=d6 v=34
136440 On ch=1 n=d6 v=0
136455 On ch=1 n=f6 v=0
136455 On ch=1 n=g#6 v=0
136465 On ch=1 n=c#6 v=36
136470 On ch=1 n=e6 v=54
136555 On ch=1 n=e6 v=0
136555 On ch=1 n=c#6 v=0
136565 On ch=1 n=g#6 v=35
136575 On ch=1 n=f6 v=47
136575 On ch=1 n=d6 v=37
136645 On ch=1 n=d6 v=0
136665 On ch=1 n=f6 v=0
136665 On ch=1 n=g#6 v=0
136670 On ch=1 n=c#6 v=37
136680 On ch=1 n=e6 v=56
136760 On ch=1 n=c#6 v=0
136765 On ch=1 n=e6 v=0
136775 On ch=1 n=g#6 v=46
136785 On ch=1 n=f6 v=46
136785 On ch=1 n=d6 v=34
136830 On ch=1 n=d6 v=0
136870 On ch=1 n=f6 v=0
136870 On ch=1 n=g#6 v=0
136875 On ch=1 n=c#6 v=30
136885 On ch=1 n=e6 v=53
136960 On ch=1 n=e6 v=0
136965 On ch=1 n=c#6 v=0
136985 On ch=1 n=g#6 v=38
136985 On ch=1 n=f6 v=48
137065 On ch=1 n=f6 v=0
137070 On ch=1 n=g#6 v=0
137085 On ch=1 n=c#6 v=36
137085 On ch=1 n=e6 v=59
137155 On ch=1 n=c#6 v=0
137160 On ch=1 n=e6 v=0
137185 On ch=1 n=f6 v=31
137195 On ch=1 n=d6 v=31
137195 On ch=1 n=g#6 v=46
137210 On ch=1 n=f6 v=0
137240 On ch=1 n=d6 v=0
137310 On ch=1 n=g#6 v=0
137310 On ch=1 n=f#6 v=56
137395 On ch=1 n=f#6 v=0
137405 On ch=1 n=f6 v=60
137500 On ch=1 n=f6 v=0
137510 On ch=1 n=f#6 v=56
137605 On ch=1 n=f#6 v=0
137620 On ch=1 n=f6 v=49
137710 On ch=1 n=f6 v=0
137720 On ch=1 n=f#6 v=54
137800 On ch=1 n=f#6 v=0
137825 On ch=1 n=f6 v=27
137910 On ch=1 n=f6 v=0
137920 On ch=1 n=f#6 v=56
138015 On ch=1 n=f#6 v=0
138025 On ch=1 n=f6 v=56
138130 On ch=1 n=f6 v=0
138130 On ch=1 n=f#6 v=49
138215 On ch=1 n=f#6 v=0
138230 On ch=1 n=f6 v=49
138320 On ch=1 n=f6 v=0
138330 On ch=1 n=f#6 v=57
138430 On ch=1 n=f#6 v=0
138435 On ch=1 n=f6 v=62
138535 On ch=1 n=f6 v=0
138540 On ch=1 n=f#6 v=52
138640 On ch=1 n=f#6 v=0
138650 On ch=1 n=f6 v=42
138745 On ch=1 n=f6 v=0
138755 On ch=1 n=f#6 v=51
138850 On ch=1 n=f#6 v=0
138860 On ch=1 n=f6 v=55
138955 On ch=1 n=f6 v=0
138960 On ch=1 n=f#6 v=51
139055 On ch=1 n=f#6 v=0
139070 On ch=1 n=f6 v=56
139165 On ch=1 n=f6 v=0
139175 On ch=1 n=f#6 v=49
139280 On ch=1 n=f#6 v=0
139290 On ch=1 n=f6 v=48
139380 On ch=1 n=f6 v=0
139390 On ch=1 n=f#6 v=48
139435 On ch=1 n=f#6 v=0
139515 On ch=1 n=g5 v=33
139515 On ch=1 n=e6 v=47
139515 On ch=1 n=d5 v=33
139525 On ch=1 n=a#5 v=18
139610 On ch=1 n=e6 v=0
139630 On ch=1 n=f#6 v=47
139640 On ch=1 n=a#5 v=0
139715 On ch=1 n=f#6 v=0
139715 On ch=1 n=g5 v=0
139745 On ch=1 n=b5 v=45
139745 On ch=1 n=g#5 v=36
139745 On ch=1 n=e6 v=52
139840 On ch=1 n=e6 v=0
139845 On ch=1 n=d5 v=0
139855 On ch=1 n=b5 v=0
139855 On ch=1 n=f#6 v=50
139860 Par ch=1 c=64 v=24
139870 Par ch=1 c=64 v=40
139890 On ch=1 n=g#5 v=0
139900 Par ch=1 c=64 v=56
139930 On ch=1 n=f#6 v=0
139930 Par ch=1 c=64 v=24
139940 Par ch=1 c=64 v=0
139965 On ch=1 n=g#5 v=35
139965 On ch=1 n=e6 v=59
139975 On ch=1 n=c#5 v=38
139985 On ch=1 n=c6 v=31
140020 Par ch=1 c=64 v=56
140030 Par ch=1 c=64 v=72
140035 On ch=1 n=c6 v=0
140040 Par ch=1 c=64 v=88
140050 Par ch=1 c=64 v=104
140065 On ch=1 n=e6 v=0
140070 On ch=1 n=f#6 v=50
140080 Par ch=1 c=64 v=127
140140 On ch=1 n=f#6 v=0
140140 Par ch=1 c=64 v=56
140150 On ch=1 n=g#5 v=0
140165 Par ch=1 c=64 v=72
140175 On ch=1 n=a5 v=47
140175 On ch=1 n=e6 v=62
140175 Par ch=1 c=64 v=88
140180 On ch=1 n=c#6 v=37
140185 Par ch=1 c=64 v=127
140220 On ch=1 n=c#5 v=0
140225 On ch=1 n=a5 v=0
140260 On ch=1 n=c#6 v=0
140260 On ch=1 n=e6 v=0
140280 On ch=1 n=f#6 v=58
140355 On ch=1 n=f#6 v=0
140365 Par ch=1 c=64 v=88
140375 Par ch=1 c=64 v=56
140385 Par ch=1 c=64 v=24
140390 On ch=1 n=e6 v=59
140395 On ch=1 n=c#6 v=37
140395 Par ch=1 c=64 v=0
140400 On ch=1 n=a#5 v=31
140410 On ch=1 n=g#4 v=25
140445 Par ch=1 c=64 v=24
140455 Par ch=1 c=64 v=56
140465 Par ch=1 c=64 v=72
140475 Par ch=1 c=64 v=88
140480 On ch=1 n=e6 v=0
140485 Par ch=1 c=64 v=104
140495 On ch=1 n=f#6 v=61
140500 On ch=1 n=c#6 v=0
140530 On ch=1 n=g#4 v=0
140535 On ch=1 n=a#5 v=0
140560 Par ch=1 c=64 v=127
140595 On ch=1 n=f#6 v=0
140600 On ch=1 n=b5 v=46
140610 On ch=1 n=e6 v=56
140615 On ch=1 n=d6 v=36
140645 On ch=1 n=d6 v=0
140675 On ch=1 n=e6 v=0
140695 On ch=1 n=b5 v=0
140705 On ch=1 n=f#6 v=52
140770 On ch=1 n=f#6 v=0
140795 Par ch=1 c=64 v=104
140805 Par ch=1 c=64 v=88
140815 On ch=1 n=c#6 v=37
140815 Par ch=1 c=64 v=56
140825 On ch=1 n=e6 v=58
140825 Par ch=1 c=64 v=24
140830 On ch=1 n=e5 v=43
140830 On ch=1 n=a4 v=37
140835 Par ch=1 c=64 v=0
140895 On ch=1 n=e6 v=0
140915 On ch=1 n=c#6 v=0
140925 On ch=1 n=f#6 v=58
140990 On ch=1 n=f#6 v=0
141035 On ch=1 n=c#7 v=71
141035 On ch=1 n=e6 v=62
141095 On ch=1 n=e6 v=0
141120 On ch=1 n=c#7 v=0
141135 On ch=1 n=a4 v=0
141150 On ch=1 n=f#6 v=39
141150 On ch=1 n=c#6 v=44
141185 On ch=1 n=e5 v=0
141195 On ch=1 n=c#6 v=0
141205 On ch=1 n=f#6 v=0
141255 On ch=1 n=b6 v=66
141260 On ch=1 n=e6 v=60
141270 On ch=1 n=e5 v=28
141275 On ch=1 n=a4 v=31
141290 On ch=1 n=e4 v=32
141305 On ch=1 n=e6 v=0
141330 On ch=1 n=b6 v=0
141355 On ch=1 n=f#6 v=55
141360 On ch=1 n=c#6 v=47
141425 On ch=1 n=c#6 v=0
141435 On ch=1 n=f#6 v=0
141475 On ch=1 n=a6 v=68
141475 On ch=1 n=e6 v=62
141535 On ch=1 n=e6 v=0
141550 On ch=1 n=a6 v=0
141575 On ch=1 n=f#6 v=58
141595 On ch=1 n=c#6 v=37
141600 On ch=1 n=e5 v=0
141605 On ch=1 n=e4 v=0
141615 On ch=1 n=a4 v=0
141640 On ch=1 n=c#6 v=0
141640 On ch=1 n=f#6 v=0
141695 On ch=1 n=e5 v=32
141700 On ch=1 n=d6 v=64
141700 On ch=1 n=a6 v=53
141700 On ch=1 n=e4 v=35
141715 On ch=1 n=b4 v=33
141765 On ch=1 n=d6 v=0
141770 On ch=1 n=a6 v=0
141810 On ch=1 n=b5 v=41
141810 On ch=1 n=e6 v=51
141860 On ch=1 n=b5 v=0
141875 On ch=1 n=e6 v=0
141915 On ch=1 n=g#6 v=62
141925 On ch=1 n=d6 v=49
141960 On ch=1 n=d6 v=0
141990 On ch=1 n=g#6 v=0
142035 On ch=1 n=b5 v=38
142035 On ch=1 n=e6 v=58
142080 On ch=1 n=e4 v=0
142080 On ch=1 n=e5 v=0
142085 On ch=1 n=b5 v=0
142095 On ch=1 n=e6 v=0
142110 On ch=1 n=b4 v=0
142135 On ch=1 n=g6 v=66
142150 On ch=1 n=g#4 v=33
142150 On ch=1 n=d6 v=55
142155 On ch=1 n=e5 v=38
142210 On ch=1 n=d6 v=0
142210 On ch=1 n=g6 v=0
142240 On ch=1 n=f#6 v=57
142250 On ch=1 n=b5 v=50
142305 On ch=1 n=b5 v=0
142310 On ch=1 n=f#6 v=0
142360 On ch=1 n=f6 v=66
142365 On ch=1 n=d6 v=53
142410 On ch=1 n=d6 v=0
142460 On ch=1 n=b5 v=47
142535 On ch=1 n=f6 v=0
142550 On ch=1 n=b5 v=0
142570 On ch=1 n=g#4 v=0
142580 On ch=1 n=e6 v=54
142585 On ch=1 n=a4 v=32
142595 On ch=1 n=c#6 v=34
142675 On ch=1 n=c#6 v=0
142705 On ch=1 n=a5 v=49
142810 On ch=1 n=c#6 v=40
142825 On ch=1 n=a5 v=0
142885 On ch=1 n=f#6 v=51
142890 On ch=1 n=f#6 v=57
142895 On ch=1 n=c#6 v=0
142900 On ch=1 n=e6 v=0
142905 On ch=1 n=a4 v=0
142920 On ch=1 n=e5 v=0
142965 On ch=1 n=f#6 v=0
142985 On ch=1 n=f#6 v=0
143005 On ch=1 n=e6 v=56
143015 On ch=1 n=g5 v=40
143015 On ch=1 n=a#5 v=27
143025 On ch=1 n=d5 v=39
143100 On ch=1 n=e6 v=0
143110 On ch=1 n=f#6 v=58
143115 On ch=1 n=a#5 v=0
143210 On ch=1 n=f#6 v=0
143220 On ch=1 n=g5 v=0
143225 On ch=1 n=e6 v=56
143230 On ch=1 n=g#5 v=39
143230 On ch=1 n=b5 v=45
143305 On ch=1 n=d5 v=0
143320 On ch=1 n=e6 v=0
143330 On ch=1 n=b5 v=0
143330 On ch=1 n=f#6 v=59
143435 On ch=1 n=f#6 v=0
143440 On ch=1 n=c#5 v=35
143440 On ch=1 n=e6 v=55
143445 On ch=1 n=c6 v=42
143515 On ch=1 n=c6 v=0
143535 On ch=1 n=f#6 v=62
143545 On ch=1 n=e6 v=0
143630 On ch=1 n=f#6 v=0
143650 On ch=1 n=c#6 v=50
143650 On ch=1 n=e6 v=66
143660 On ch=1 n=a5 v=59
143695 On ch=1 n=g#5 v=0
143705 On ch=1 n=c#5 v=0
143715 On ch=1 n=a5 v=0
143740 On ch=1 n=e6 v=0
143745 On ch=1 n=f#6 v=65
143765 On ch=1 n=c#6 v=0
143855 On ch=1 n=f#6 v=0
143865 On ch=1 n=e6 v=63
143870 On ch=1 n=c#6 v=48
143875 On ch=1 n=a#5 v=42
143885 On ch=1 n=g#4 v=31
143960 On ch=1 n=c#6 v=0
143965 On ch=1 n=e6 v=0
143970 On ch=1 n=f#6 v=62
144025 On ch=1 n=a#5 v=0
144040 On ch=1 n=g#4 v=0
144080 On ch=1 n=f#6 v=0
144080 On ch=1 n=b5 v=54
144080 On ch=1 n=d6 v=51
144085 On ch=1 n=e6 v=62
144155 On ch=1 n=d6 v=0
144175 On ch=1 n=e6 v=0
144175 On ch=1 n=f#6 v=55
144180 On ch=1 n=b5 v=0
144265 On ch=1 n=f#6 v=0
144295 On ch=1 n=c#6 v=42
144300 On ch=1 n=e6 v=58
144310 On ch=1 n=e5 v=40
144310 On ch=1 n=a4 v=31
144360 On ch=1 n=e6 v=0
144395 On ch=1 n=f#6 v=61
144410 On ch=1 n=c#6 v=0
144460 On ch=1 n=f#6 v=0
144495 On ch=1 n=a4 v=0
144505 On ch=1 n=c#7 v=73
144510 On ch=1 n=e6 v=65
144585 On ch=1 n=e6 v=0
144585 On ch=1 n=c#7 v=0
144585 On ch=1 n=e5 v=0
144605 On ch=1 n=f#6 v=59
144620 On ch=1 n=c#6 v=26
144670 On ch=1 n=c#6 v=0
144685 On ch=1 n=f#6 v=0
144730 On ch=1 n=b6 v=66
144735 On ch=1 n=e6 v=61
144735 On ch=1 n=e5 v=46
144745 On ch=1 n=a4 v=44
144745 On ch=1 n=e4 v=34
144760 On ch=1 n=e6 v=0
144770 On ch=1 n=f#6 v=36
144795 On ch=1 n=b6 v=0
144820 On ch=1 n=c#6 v=51
144880 On ch=1 n=f#6 v=0
144890 On ch=1 n=c#6 v=0
144940 On ch=1 n=a6 v=70
144950 On ch=1 n=e6 v=54
144980 On ch=1 n=e6 v=0
145010 On ch=1 n=a6 v=0
145050 On ch=1 n=c#6 v=47
145050 On ch=1 n=f#6 v=50
145085 On ch=1 n=e4 v=0
145100 On ch=1 n=f#6 v=0
145100 On ch=1 n=a4 v=0
145100 On ch=1 n=e5 v=0
145110 On ch=1 n=c#6 v=0
145165 On ch=1 n=a6 v=58
145170 On ch=1 n=d6 v=60
145175 On ch=1 n=e5 v=24
145180 On ch=1 n=b4 v=31
145190 On ch=1 n=e4 v=27
145240 On ch=1 n=d6 v=0
145250 On ch=1 n=a6 v=0
145270 On ch=1 n=b5 v=56
145270 On ch=1 n=e6 v=50
145320 On ch=1 n=e6 v=0
145325 On ch=1 n=b5 v=0
145380 On ch=1 n=g#6 v=64
145395 On ch=1 n=d6 v=61
145440 On ch=1 n=d6 v=0
145460 On ch=1 n=g#6 v=0
145495 On ch=1 n=b5 v=55
145495 On ch=1 n=e6 v=58
145535 On ch=1 n=e5 v=0
145545 On ch=1 n=b5 v=0
145555 On ch=1 n=e4 v=0
145560 On ch=1 n=e6 v=0
145565 On ch=1 n=b4 v=0
145605 On ch=1 n=g6 v=68
145610 On ch=1 n=e5 v=34
145615 On ch=1 n=d6 v=55
145620 On ch=1 n=g#4 v=39
145665 On ch=1 n=g6 v=0
145670 On ch=1 n=d6 v=0
145710 On ch=1 n=b5 v=39
145710 On ch=1 n=f#6 v=58
145765 On ch=1 n=b5 v=0
145775 On ch=1 n=f#6 v=0
145825 On ch=1 n=d6 v=54
145825 On ch=1 n=f6 v=64
145860 On ch=1 n=d6 v=0
145920 On ch=1 n=b5 v=43
145995 On ch=1 n=g#4 v=0
146005 On ch=1 n=f6 v=0
146010 On ch=1 n=b5 v=0
146045 On ch=1 n=e6 v=56
146060 On ch=1 n=c#6 v=35
146060 On ch=1 n=a4 v=30
146125 On ch=1 n=c#6 v=0
146145 On ch=1 n=e6 v=0
146155 On ch=1 n=a5 v=49
146260 On ch=1 n=a4 v=0
146260 On ch=1 n=c#6 v=50
146285 On ch=1 n=a5 v=0
146315 On ch=1 n=e5 v=0
146330 Par ch=1 c=64 v=24
146340 Par ch=1 c=64 v=40
146350 On ch=1 n=c#6 v=0
146360 Par ch=1 c=64 v=56
146380 On ch=1 n=g#6 v=59
146380 Par ch=1 c=64 v=72
146410 Par ch=1 c=64 v=88
146430 On ch=1 n=g#6 v=0
146480 Par ch=1 c=64 v=56
146490 On ch=1 n=g5 v=39
146490 Par ch=1 c=64 v=40
146500 On ch=1 n=c6 v=45
146500 On ch=1 n=a6 v=64
146500 On ch=1 n=d#6 v=42
146500 Par ch=1 c=64 v=24
146510 Par ch=1 c=64 v=0
146545 On ch=1 n=g5 v=0
146600 On ch=1 n=d#6 v=0
146600 On ch=1 n=a6 v=0
146605 On ch=1 n=a#6 v=63
146620 Par ch=1 c=64 v=24
146665 Par ch=1 c=64 v=0
146675 On ch=1 n=c6 v=0
146705 On ch=1 n=a#6 v=0
146715 On ch=1 n=a6 v=62
146715 On ch=1 n=c#6 v=47
146725 On ch=1 n=e6 v=59
146795 On ch=1 n=a6 v=0
146810 On ch=1 n=e6 v=0
146815 Par ch=1 c=64 v=24
146820 On ch=1 n=a#6 v=53
146825 Par ch=1 c=64 v=40
146850 On ch=1 n=c#6 v=0
146875 On ch=1 n=a#6 v=0
146885 Par ch=1 c=64 v=56
146920 Par ch=1 c=64 v=24
146930 Par ch=1 c=64 v=0
146940 On ch=1 n=a6 v=59
146940 On ch=1 n=c#6 v=45
146945 On ch=1 n=e6 v=39
146960 On ch=1 n=f5 v=33
147030 On ch=1 n=e6 v=0
147045 On ch=1 n=a6 v=0
147045 On ch=1 n=a#6 v=60
147120 On ch=1 n=c#6 v=0
147125 Par ch=1 c=64 v=24
147135 Par ch=1 c=64 v=56
147145 On ch=1 n=a#6 v=0
147160 On ch=1 n=a6 v=64
147160 Par ch=1 c=64 v=72
147165 On ch=1 n=f6 v=55
147170 On ch=1 n=d6 v=47
147170 Par ch=1 c=64 v=88
147200 Par ch=1 c=64 v=104
147210 On ch=1 n=f5 v=0
147225 On ch=1 n=d6 v=0
147235 On ch=1 n=f6 v=0
147245 On ch=1 n=a6 v=0
147260 On ch=1 n=a#6 v=64
147270 Par ch=1 c=64 v=127
147320 On ch=1 n=a#6 v=0
147335 Par ch=1 c=64 v=104
147345 Par ch=1 c=64 v=88
147355 Par ch=1 c=64 v=72
147365 Par ch=1 c=64 v=40
147370 On ch=1 n=f#6 v=50
147375 On ch=1 n=a6 v=65
147375 Par ch=1 c=64 v=0
147385 On ch=1 n=d#6 v=47
147390 On ch=1 n=c#5 v=37
147470 On ch=1 n=a6 v=0
147475 Par ch=1 c=64 v=24
147485 On ch=1 n=f#6 v=0
147485 On ch=1 n=a#6 v=67
147485 Par ch=1 c=64 v=40
147495 Par ch=1 c=64 v=56
147505 Par ch=1 c=64 v=72
147530 On ch=1 n=d#6 v=0
147535 On ch=1 n=c#5 v=0
147545 Par ch=1 c=64 v=104
147590 On ch=1 n=a#6 v=0
147600 On ch=1 n=a6 v=71
147600 On ch=1 n=e6 v=53
147605 On ch=1 n=g6 v=58
147610 Par ch=1 c=64 v=127
147680 On ch=1 n=a6 v=0
147685 On ch=1 n=g6 v=0
147700 On ch=1 n=a#6 v=64
147705 On ch=1 n=e6 v=0
147785 On ch=1 n=a#6 v=0
147790 Par ch=1 c=64 v=104
147800 Par ch=1 c=64 v=88
147805 Par ch=1 c=64 v=56
147815 Par ch=1 c=64 v=24
147825 On ch=1 n=a6 v=61
147830 On ch=1 n=f6 v=46
147830 Par ch=1 c=64 v=0
147840 On ch=1 n=a5 v=37
147850 On ch=1 n=d5 v=29
147905 On ch=1 n=a6 v=0
147905 Par ch=1 c=64 v=40
147915 Par ch=1 c=64 v=56
147925 On ch=1 n=a#6 v=60
147925 Par ch=1 c=64 v=72
147945 On ch=1 n=f6 v=0
147965 Par ch=1 c=64 v=88
147975 On ch=1 n=a#6 v=0
148005 Par ch=1 c=64 v=104
148035 On ch=1 n=a6 v=62
148035 Par ch=1 c=64 v=127
148045 On ch=1 n=f7 v=78
148090 On ch=1 n=a6 v=0
148090 On ch=1 n=d5 v=0
148095 On ch=1 n=f7 v=0
148130 On ch=1 n=a5 v=0
148145 On ch=1 n=a#6 v=67
148155 On ch=1 n=f6 v=54
148185 On ch=1 n=f6 v=0
148220 On ch=1 n=a#6 v=0
148265 On ch=1 n=e7 v=77
148270 On ch=1 n=a6 v=61
148270 Par ch=1 c=64 v=104
148280 On ch=1 n=a5 v=35
148280 On ch=1 n=d5 v=36
148280 Par ch=1 c=64 v=72
148290 Par ch=1 c=64 v=40
148295 On ch=1 n=a4 v=31
148300 Par ch=1 c=64 v=24
148310 Par ch=1 c=64 v=0
148335 On ch=1 n=a6 v=0
148340 Par ch=1 c=64 v=40
148350 On ch=1 n=e7 v=0
148350 Par ch=1 c=64 v=56
148360 Par ch=1 c=64 v=88
148365 On ch=1 n=a#6 v=51
148370 Par ch=1 c=64 v=104
148375 On ch=1 n=f6 v=50
148380 Par ch=1 c=64 v=127
148430 On ch=1 n=f6 v=0
148435 On ch=1 n=a#6 v=0
148485 On ch=1 n=d7 v=73
148485 On ch=1 n=a6 v=66
148550 On ch=1 n=a6 v=0
148570 On ch=1 n=d7 v=0
148595 On ch=1 n=a#6 v=37
148605 On ch=1 n=f6 v=60
148615 On ch=1 n=a4 v=0
148630 On ch=1 n=a5 v=0
148635 On ch=1 n=d5 v=0
148645 On ch=1 n=f6 v=0
148650 On ch=1 n=a#6 v=0
148685 Par ch=1 c=64 v=104
148695 Par ch=1 c=64 v=88
148705 On ch=1 n=d7 v=70
148705 Par ch=1 c=64 v=56
148715 On ch=1 n=g6 v=64
148715 Par ch=1 c=64 v=24
148720 On ch=1 n=a5 v=38
148725 Par ch=1 c=64 v=0
148730 On ch=1 n=a4 v=34
148735 On ch=1 n=e5 v=38
148795 On ch=1 n=g6 v=0
148795 Par ch=1 c=64 v=40
148805 On ch=1 n=d7 v=0
148805 Par ch=1 c=64 v=72
148815 Par ch=1 c=64 v=104
148820 On ch=1 n=a6 v=55
148820 On ch=1 n=e6 v=55
148830 Par ch=1 c=64 v=127
148870 On ch=1 n=e6 v=0
148880 On ch=1 n=a6 v=0
148930 On ch=1 n=c#7 v=70
148940 On ch=1 n=g6 v=59
148985 On ch=1 n=g6 v=0
148995 On ch=1 n=c#7 v=0
149045 On ch=1 n=a4 v=0
149050 On ch=1 n=a6 v=56
149050 On ch=1 n=e6 v=54
149060 On ch=1 n=a5 v=0
149080 On ch=1 n=e6 v=0
149100 On ch=1 n=a6 v=0
149100 On ch=1 n=e5 v=0
149120 Par ch=1 c=64 v=104
149130 Par ch=1 c=64 v=88
149140 Par ch=1 c=64 v=72
149150 Par ch=1 c=64 v=56
149155 On ch=1 n=a5 v=41
149155 On ch=1 n=c7 v=66
149160 On ch=1 n=c#5 v=35
149160 On ch=1 n=g6 v=59
149160 Par ch=1 c=64 v=24
149165 Par ch=1 c=64 v=0
149225 On ch=1 n=g6 v=0
149235 On ch=1 n=c7 v=0
149255 On ch=1 n=b6 v=62
149260 On ch=1 n=e6 v=53
149320 On ch=1 n=e6 v=0
149335 On ch=1 n=b6 v=0
149365 On ch=1 n=a#6 v=50
149375 On ch=1 n=g6 v=57
149435 On ch=1 n=g6 v=0
149470 On ch=1 n=a#6 v=0
149475 On ch=1 n=e6 v=51
149535 On ch=1 n=c#5 v=0
149565 On ch=1 n=e6 v=0
149585 On ch=1 n=a6 v=62
149585 On ch=1 n=f6 v=55
149590 On ch=1 n=d5 v=44
149645 On ch=1 n=f6 v=0
149685 On ch=1 n=a6 v=0
149695 On ch=1 n=d6 v=51
149775 On ch=1 n=d5 v=0
149800 On ch=1 n=d6 v=0
149810 On ch=1 n=f6 v=41
149840 On ch=1 n=a5 v=0
149875 On ch=1 n=f6 v=0
149890 On ch=1 n=a#6 v=54
149980 On ch=1 n=a#6 v=0
150000 On ch=1 n=d#6 v=43
150005 On ch=1 n=a6 v=54
150015 On ch=1 n=c6 v=40
150015 On ch=1 n=g5 v=37
150095 On ch=1 n=a6 v=0
150110 On ch=1 n=a#6 v=54
150115 On ch=1 n=d#6 v=0
150205 On ch=1 n=a#6 v=0
150220 On ch=1 n=a6 v=59
150220 On ch=1 n=c#6 v=50
150225 On ch=1 n=c6 v=0
150230 On ch=1 n=e6 v=50
150285 On ch=1 n=g5 v=0
150310 On ch=1 n=a6 v=0
150320 On ch=1 n=e6 v=0
150320 On ch=1 n=a#6 v=63
150345 On ch=1 n=c#6 v=0
150400 On ch=1 n=a#6 v=0
150430 On ch=1 n=a6 v=67
150430 On ch=1 n=c#6 v=51
150440 On ch=1 n=e6 v=48
150445 On ch=1 n=f5 v=45
150525 On ch=1 n=e6 v=0
150540 On ch=1 n=a6 v=0
150540 On ch=1 n=a#6 v=71
150615 On ch=1 n=c#6 v=0
150645 On ch=1 n=a#6 v=0
150650 On ch=1 n=a6 v=75
150655 On ch=1 n=f6 v=68
150660 On ch=1 n=d6 v=61
150715 On ch=1 n=d6 v=0
150720 On ch=1 n=f5 v=0
150725 On ch=1 n=f6 v=0
150750 On ch=1 n=a6 v=0
150750 On ch=1 n=a#6 v=73
150850 On ch=1 n=a#6 v=0
150865 On ch=1 n=a6 v=68
150870 On ch=1 n=f#6 v=51
150875 On ch=1 n=d#6 v=51
150885 On ch=1 n=c#5 v=34
150930 Par ch=1 c=64 v=24
150940 Par ch=1 c=64 v=40
150955 On ch=1 n=a6 v=0
150960 On ch=1 n=f#6 v=0
150965 On ch=1 n=a#6 v=69
150970 Par ch=1 c=64 v=56
151030 On ch=1 n=c#5 v=0
151030 On ch=1 n=d#6 v=0
151050 Par ch=1 c=64 v=40
151080 On ch=1 n=a#6 v=0
151080 On ch=1 n=a6 v=76
151085 On ch=1 n=g6 v=66
151085 On ch=1 n=e6 v=60
151090 Par ch=1 c=64 v=72
151095 Par ch=1 c=64 v=88
151105 Par ch=1 c=64 v=104
151145 Par ch=1 c=64 v=127
151160 On ch=1 n=g6 v=0
151175 On ch=1 n=e6 v=0
151175 On ch=1 n=a6 v=0
151175 On ch=1 n=a#6 v=70
151255 Par ch=1 c=64 v=104
151265 Par ch=1 c=64 v=88
151270 On ch=1 n=a#6 v=0
151275 Par ch=1 c=64 v=72
151285 Par ch=1 c=64 v=40
151295 Par ch=1 c=64 v=24
151300 On ch=1 n=a6 v=68
151300 On ch=1 n=f6 v=47
151305 Par ch=1 c=64 v=0
151310 On ch=1 n=a5 v=44
151315 On ch=1 n=d5 v=36
151375 On ch=1 n=a6 v=0
151395 On ch=1 n=a#6 v=64
151430 On ch=1 n=f6 v=0
151465 On ch=1 n=a#6 v=0
151510 On ch=1 n=a6 v=51
151515 On ch=1 n=f7 v=82
151555 On ch=1 n=d5 v=0
151585 On ch=1 n=f7 v=0
151595 On ch=1 n=a6 v=0
151610 On ch=1 n=a#6 v=60
151625 On ch=1 n=a5 v=0
151625 On ch=1 n=f6 v=62
151680 On ch=1 n=f6 v=0
151695 On ch=1 n=a#6 v=0
151725 On ch=1 n=e7 v=70
151730 On ch=1 n=a6 v=63
151735 On ch=1 n=d5 v=42
151735 On ch=1 n=a5 v=43
151745 On ch=1 n=a4 v=34
151800 On ch=1 n=a6 v=0
151810 On ch=1 n=e7 v=0
151835 On ch=1 n=a#6 v=53
151835 On ch=1 n=f6 v=54
151900 On ch=1 n=f6 v=0
151910 On ch=1 n=a#6 v=0
151945 On ch=1 n=d7 v=68
151950 On ch=1 n=a6 v=62
152010 On ch=1 n=a6 v=0
152010 On ch=1 n=d7 v=0
152030 On ch=1 n=a4 v=0
152030 On ch=1 n=d5 v=0
152040 On ch=1 n=a5 v=0
152040 On ch=1 n=a#6 v=50
152060 On ch=1 n=f6 v=57
152095 On ch=1 n=f6 v=0
152105 On ch=1 n=a#6 v=0
152155 On ch=1 n=d7 v=71
152160 On ch=1 n=g6 v=67
152165 On ch=1 n=a5 v=36
152180 On ch=1 n=e5 v=33
152185 On ch=1 n=a4 v=25
152220 On ch=1 n=g6 v=0
152240 On ch=1 n=d7 v=0
152260 On ch=1 n=a6 v=52
152270 On ch=1 n=e6 v=47
152300 On ch=1 n=e6 v=0
152330 On ch=1 n=a6 v=0
152375 On ch=1 n=c#7 v=57
152390 On ch=1 n=g6 v=54
152425 On ch=1 n=a4 v=0
152445 On ch=1 n=g6 v=0
152455 On ch=1 n=c#7 v=0
152455 On ch=1 n=a5 v=0
152485 On ch=1 n=a6 v=59
152495 On ch=1 n=e6 v=51
152520 On ch=1 n=e5 v=0
152530 On ch=1 n=e6 v=0
152585 Par ch=1 c=64 v=104
152590 On ch=1 n=c7 v=75
152590 Par ch=1 c=64 v=56
152595 On ch=1 n=g6 v=70
152595 On ch=1 n=a5 v=48
152600 On ch=1 n=c#5 v=38
152600 Par ch=1 c=64 v=0
152650 Par ch=1 c=64 v=40
152660 On ch=1 n=g6 v=0
152660 On ch=1 n=c7 v=0
152660 Par ch=1 c=64 v=88
152670 Par ch=1 c=64 v=127
152695 On ch=1 n=b6 v=69
152705 On ch=1 n=e6 v=47
152745 On ch=1 n=e6 v=0
152775 On ch=1 n=b6 v=0
152800 On ch=1 n=a#6 v=61
152815 On ch=1 n=g6 v=55
152815 Par ch=1 c=64 v=104
152825 Par ch=1 c=64 v=40
152830 Par ch=1 c=64 v=0
152870 On ch=1 n=g6 v=0
152890 Par ch=1 c=64 v=24
152895 On ch=1 n=a#6 v=0
152900 Par ch=1 c=64 v=56
152905 On ch=1 n=e6 v=48
152910 Par ch=1 c=64 v=88
152915 Par ch=1 c=64 v=104
152935 Par ch=1 c=64 v=127
152975 On ch=1 n=e6 v=0
152980 On ch=1 n=c#5 v=0
153000 Par ch=1 c=64 v=104
153010 On ch=1 n=a6 v=66
153010 Par ch=1 c=64 v=88
153015 On ch=1 n=f6 v=56
153020 Par ch=1 c=64 v=56
153025 On ch=1 n=d5 v=35
153030 Par ch=1 c=64 v=24
153035 Par ch=1 c=64 v=0
153075 On ch=1 n=f6 v=0
153115 On ch=1 n=a6 v=0
153120 Par ch=1 c=64 v=88
153125 On ch=1 n=d6 v=58
153130 Par ch=1 c=64 v=127
153160 On ch=1 n=a5 v=0
153170 On ch=1 n=d5 v=0
153215 On ch=1 n=f6 v=64
153230 On ch=1 n=d6 v=0
153310 On ch=1 n=f6 v=0
153315 On ch=1 n=d7 v=86
153345 On ch=1 n=d7 v=0
153430 On ch=1 n=a3 v=36
153450 On ch=1 n=c5 v=56
153460 On ch=1 n=f6 v=71
153465 On ch=1 n=f7 v=74
153480 Par ch=1 c=64 v=88
153490 Par ch=1 c=64 v=24
153500 Par ch=1 c=64 v=0
153550 On ch=1 n=f7 v=0
153560 Par ch=1 c=64 v=72
153565 Par ch=1 c=64 v=127
153570 On ch=1 n=d7 v=76
153580 On ch=1 n=f6 v=0
153580 On ch=1 n=c7 v=63
153645 On ch=1 n=a3 v=0
153650 On ch=1 n=c7 v=0
153660 On ch=1 n=d7 v=0
153670 On ch=1 n=c5 v=0
153675 On ch=1 n=f7 v=84
153680 On ch=1 n=f6 v=68
153740 On ch=1 n=f7 v=0
153770 On ch=1 n=f6 v=0
153775 On ch=1 n=d#7 v=71
153785 On ch=1 n=c7 v=62
153810 On ch=1 n=c7 v=0
153840 On ch=1 n=d#7 v=0
153900 On ch=1 n=d#7 v=77
153900 On ch=1 n=d5 v=60
153905 On ch=1 n=f6 v=64
153905 On ch=1 n=a#3 v=38
153920 Par ch=1 c=64 v=104
153925 Par ch=1 c=64 v=56
153935 Par ch=1 c=64 v=0
154000 On ch=1 n=f6 v=0
154000 On ch=1 n=d#7 v=0
154005 On ch=1 n=c#7 v=69
154015 On ch=1 n=a#6 v=51
154015 Par ch=1 c=64 v=72
154020 Par ch=1 c=64 v=127
154075 On ch=1 n=a#6 v=0
154095 On ch=1 n=c#7 v=0
154120 On ch=1 n=d#7 v=75
154125 On ch=1 n=f6 v=66
154150 On ch=1 n=a#3 v=0
154185 On ch=1 n=f6 v=0
154185 On ch=1 n=d#7 v=0
154195 On ch=1 n=d5 v=0
154210 On ch=1 n=d7 v=73
154210 On ch=1 n=a#6 v=55
154230 On ch=1 n=a#6 v=0
154245 Par ch=1 c=64 v=72
154250 Par ch=1 c=64 v=24
154270 On ch=1 n=d7 v=0
154275 On ch=1 n=c4 v=47
154280 Par ch=1 c=64 v=88
154285 Par ch=1 c=64 v=127
154290 On ch=1 n=c4 v=0
154335 On ch=1 n=d#6 v=55
154340 On ch=1 n=d7 v=73
154345 Par ch=1 c=64 v=104
154355 Par ch=1 c=64 v=56
154360 On ch=1 n=d#5 v=56
154360 Par ch=1 c=64 v=24
154390 Par ch=1 c=64 v=72
154400 Par ch=1 c=64 v=88
154405 Par ch=1 c=64 v=127
154410 On ch=1 n=d7 v=0
154430 On ch=1 n=d#6 v=0
154440 Par ch=1 c=64 v=104
154445 On ch=1 n=b6 v=60
154455 On ch=1 n=a6 v=48
154515 On ch=1 n=a6 v=0
154525 On ch=1 n=b6 v=0
154540 Par ch=1 c=64 v=88
154550 Par ch=1 c=64 v=72
154555 On ch=1 n=d7 v=71
154560 On ch=1 n=d#6 v=50
154560 Par ch=1 c=64 v=56
154570 Par ch=1 c=64 v=40
154575 Par ch=1 c=64 v=24
154585 Par ch=1 c=64 v=0
154605 On ch=1 n=d#5 v=0
154620 On ch=1 n=d#6 v=0
154630 On ch=1 n=d7 v=0
154665 On ch=1 n=c7 v=68
154665 On ch=1 n=a6 v=47
154695 On ch=1 n=a6 v=0
154710 On ch=1 n=c7 v=0
154740 On ch=1 n=d4 v=39
154750 On ch=1 n=f5 v=56
154760 On ch=1 n=c7 v=70
154760 On ch=1 n=d6 v=62
154765 Par ch=1 c=64 v=104
154770 Par ch=1 c=64 v=88
154780 Par ch=1 c=64 v=56
154790 Par ch=1 c=64 v=24
154795 Par ch=1 c=64 v=0
154830 On ch=1 n=c7 v=0
154845 On ch=1 n=d6 v=0
154865 On ch=1 n=a6 v=63
154870 On ch=1 n=f6 v=45
154885 Par ch=1 c=64 v=88
154895 Par ch=1 c=64 v=127
154920 On ch=1 n=f6 v=0
154945 On ch=1 n=a6 v=0
154950 On ch=1 n=d4 v=0
154960 On ch=1 n=c7 v=71
154970 On ch=1 n=f5 v=0
154970 On ch=1 n=d6 v=59
155015 On ch=1 n=c7 v=0
155025 On ch=1 n=d6 v=0
155060 On ch=1 n=a#6 v=62
155065 On ch=1 n=f6 v=54
155085 On ch=1 n=f6 v=0
155115 On ch=1 n=a#6 v=0
155185 On ch=1 n=b6 v=66
155190 On ch=1 n=c6 v=55
155190 On ch=1 n=f#5 v=60
155195 On ch=1 n=d#4 v=39
155205 Par ch=1 c=64 v=104
155215 Par ch=1 c=64 v=72
155225 Par ch=1 c=64 v=40
155235 Par ch=1 c=64 v=0
155270 On ch=1 n=b6 v=0
155280 On ch=1 n=c6 v=0
155285 Par ch=1 c=64 v=24
155295 On ch=1 n=g#6 v=61
155295 Par ch=1 c=64 v=88
155305 On ch=1 n=f#6 v=44
155305 Par ch=1 c=64 v=127
155365 On ch=1 n=f#6 v=0
155375 On ch=1 n=g#6 v=0
155400 On ch=1 n=b6 v=69
155410 On ch=1 n=c6 v=47
155415 On ch=1 n=d#4 v=0
155450 On ch=1 n=b6 v=0
155480 On ch=1 n=c6 v=0
155485 On ch=1 n=f#5 v=0
155500 On ch=1 n=a6 v=66
155500 On ch=1 n=f#6 v=53
155555 On ch=1 n=f#6 v=0
155555 On ch=1 n=a6 v=0
155555 Par ch=1 c=64 v=56
155565 Par ch=1 c=64 v=0
155570 On ch=1 n=e4 v=45
155585 On ch=1 n=e4 v=0
155615 On ch=1 n=b5 v=55
155620 On ch=1 n=a6 v=63
155635 Par ch=1 c=64 v=56
155640 On ch=1 n=g#5 v=60
155645 Par ch=1 c=64 v=127
155675 On ch=1 n=a6 v=0
155695 On ch=1 n=b5 v=0
155725 On ch=1 n=e6 v=50
155725 On ch=1 n=g6 v=59
155760 On ch=1 n=e6 v=0
155770 On ch=1 n=g6 v=0
155810 On ch=1 n=a6 v=60
155815 On ch=1 n=b5 v=40
155870 On ch=1 n=g#5 v=0
155870 On ch=1 n=a6 v=0
155880 On ch=1 n=b5 v=0
155915 On ch=1 n=g#6 v=65
155930 On ch=1 n=e6 v=51
155945 On ch=1 n=e6 v=0
155965 On ch=1 n=g#6 v=0
156030 On ch=1 n=g#6 v=69
156035 On ch=1 n=f#4 v=40
156035 On ch=1 n=a5 v=55
156040 On ch=1 n=d#5 v=40
156045 Par ch=1 c=64 v=104
156050 Par ch=1 c=64 v=56
156060 Par ch=1 c=64 v=0
156105 On ch=1 n=g#6 v=0
156115 Par ch=1 c=64 v=24
156120 On ch=1 n=a5 v=0
156125 Par ch=1 c=64 v=72
156130 Par ch=1 c=64 v=104
156140 On ch=1 n=f6 v=66
156140 Par ch=1 c=64 v=127
156145 On ch=1 n=d#6 v=44
156190 On ch=1 n=d#6 v=0
156195 On ch=1 n=f6 v=0
156245 On ch=1 n=f#4 v=0
156245 On ch=1 n=g#6 v=61
156250 On ch=1 n=a5 v=49
156260 On ch=1 n=c5 v=38
156265 On ch=1 n=d#5 v=0
156320 On ch=1 n=g#6 v=0
156340 On ch=1 n=a5 v=0
156350 On ch=1 n=f#6 v=62
156355 On ch=1 n=d#6 v=58
156380 On ch=1 n=d#6 v=0
156390 On ch=1 n=f#6 v=0
156440 On ch=1 n=c5 v=0
156455 On ch=1 n=f#6 v=60
156470 On ch=1 n=b5 v=38
156475 On ch=1 n=g#4 v=38
156480 On ch=1 n=e5 v=42
156485 On ch=1 n=b5 v=0
156485 On ch=1 n=g#5 v=56
156515 Par ch=1 c=64 v=104
156525 Par ch=1 c=64 v=56
156535 Par ch=1 c=64 v=24
156540 Par ch=1 c=64 v=0
156575 Par ch=1 c=64 v=0
156585 On ch=1 n=g#5 v=0
156585 On ch=1 n=f#6 v=0
156585 On ch=1 n=b5 v=53
156585 Par ch=1 c=64 v=0
156595 On ch=1 n=d#6 v=53
156595 Par ch=1 c=64 v=0
156610 On ch=1 n=b5 v=0
156630 On ch=1 n=a6 v=0
156670 On ch=1 n=d#6 v=0
156700 On ch=1 n=f#6 v=57
156700 Par ch=1 c=64 v=0
156705 On ch=1 n=g#5 v=35
156705 Par ch=1 c=64 v=0
156715 On ch=1 n=g#4 v=0
156725 On ch=1 n=b4 v=33
156735 Par ch=1 c=64 v=0
156740 Par ch=1 c=64 v=0
156750 On ch=1 n=e5 v=0
156780 On ch=1 n=f#6 v=0
156790 On ch=1 n=g#5 v=0
156795 On ch=1 n=e6 v=69
156850 On ch=1 n=e6 v=0
156865 On ch=1 n=b4 v=0
156880 On ch=1 n=f#5 v=38
156890 On ch=1 n=e6 v=47
156890 On ch=1 n=a4 v=37
156895 On ch=1 n=c6 v=58
156970 On ch=1 n=c6 v=0
156980 On ch=1 n=e6 v=0
157000 On ch=1 n=d6 v=63
157090 On ch=1 n=d6 v=0
157100 On ch=1 n=a4 v=0
157105 On ch=1 n=e6 v=61
157110 On ch=1 n=a5 v=34
157120 On ch=1 n=c5 v=34
157165 On ch=1 n=f#5 v=0
157195 On ch=1 n=e6 v=0
157205 On ch=1 n=d#6 v=62
157230 On ch=1 n=a5 v=0
157300 On ch=1 n=d#6 v=0
157305 On ch=1 n=c5 v=0
157310 On ch=1 n=f#6 v=59
157315 On ch=1 n=d6 v=54
157315 On ch=1 n=g#5 v=32
157325 On ch=1 n=b4 v=36
157390 On ch=1 n=d6 v=0
157415 On ch=1 n=f#6 v=0
157415 On ch=1 n=d#6 v=60
157510 On ch=1 n=d#6 v=0
157520 On ch=1 n=f#6 v=53
157525 On ch=1 n=b4 v=0
157530 On ch=1 n=g#5 v=0
157530 On ch=1 n=b5 v=37
157530 On ch=1 n=d5 v=39
157605 On ch=1 n=f#6 v=0
157615 On ch=1 n=b5 v=0
157615 On ch=1 n=e6 v=64
157665 On ch=1 n=e6 v=0
157700 On ch=1 n=d5 v=0
157725 On ch=1 n=f#5 v=29
157725 On ch=1 n=e6 v=48
157725 On ch=1 n=c5 v=40
157730 On ch=1 n=a5 v=38
157810 On ch=1 n=e6 v=0
157820 On ch=1 n=d6 v=62
157920 On ch=1 n=e6 v=52
157935 On ch=1 n=d6 v=0
157995 On ch=1 n=a5 v=0
158005 On ch=1 n=e6 v=0
158015 On ch=1 n=d#6 v=62
158035 On ch=1 n=f#5 v=0
158060 On ch=1 n=c5 v=0
158105 On ch=1 n=d#6 v=0
158120 On ch=1 n=f#6 v=54
158125 On ch=1 n=g#5 v=32
158125 On ch=1 n=d5 v=40
158135 On ch=1 n=b5 v=39
158215 On ch=1 n=f#6 v=0
158220 On ch=1 n=e6 v=64
158245 On ch=1 n=b5 v=0
158320 On ch=1 n=e6 v=0
158325 On ch=1 n=f#6 v=55
158375 On ch=1 n=d5 v=0
158405 On ch=1 n=f#6 v=0
158410 On ch=1 n=g#5 v=0
158425 On ch=1 n=f6 v=62
158510 On ch=1 n=f6 v=0
158525 On ch=1 n=e6 v=63
158535 On ch=1 n=g#5 v=34
158535 On ch=1 n=b5 v=37
158560 Par ch=1 c=64 v=0
158565 Par ch=1 c=64 v=0
158575 Par ch=1 c=64 v=0
158580 Par ch=1 c=64 v=0
158590 Par ch=1 c=64 v=0
158595 Par ch=1 c=64 v=0
158625 On ch=1 n=f#6 v=48
158630 On ch=1 n=e6 v=0
158655 Par ch=1 c=64 v=0
158665 Par ch=1 c=64 v=0
158670 Par ch=1 c=64 v=0
158680 Par ch=1 c=64 v=0
158685 Par ch=1 c=64 v=0
158710 Par ch=1 c=64 v=0
158715 Par ch=1 c=64 v=0
158725 On ch=1 n=f#6 v=0
158725 Par ch=1 c=64 v=0
158730 Par ch=1 c=64 v=0
158740 On ch=1 n=e6 v=59
158745 On ch=1 n=d5 v=36
158760 On ch=1 n=e6 v=0
158770 On ch=1 n=g#5 v=0
158790 On ch=1 n=b5 v=0
158795 On ch=1 n=d5 v=0
158845 On ch=1 n=f#7 v=65
158870 On ch=1 n=f#7 v=0
158935 Par ch=1 c=64 v=0
158945 On ch=1 n=e7 v=76
158945 Par ch=1 c=64 v=0
158950 Par ch=1 c=64 v=0
158960 Par ch=1 c=64 v=0
158965 On ch=1 n=c#6 v=30
158975 Par ch=1 c=64 v=0
158985 Par ch=1 c=64 v=0
158990 On ch=1 n=a5 v=15
158990 Par ch=1 c=64 v=0
159035 On ch=1 n=c#6 v=0
159055 On ch=1 n=e7 v=0
159060 On ch=1 n=f#6 v=51
159090 On ch=1 n=f#6 v=0
159130 On ch=1 n=a5 v=0
159170 On ch=1 n=c#5 v=27
159170 On ch=1 n=e6 v=60
159195 On ch=1 n=e6 v=0
159205 On ch=1 n=c#5 v=0
159265 On ch=1 n=f#5 v=50
159345 Par ch=1 c=64 v=0
159350 On ch=1 n=f#5 v=0
159355 Par ch=1 c=64 v=0
159360 Par ch=1 c=64 v=0
159375 On ch=1 n=d6 v=49
159380 On ch=1 n=e5 v=55
159380 On ch=1 n=g#5 v=44
159390 Par ch=1 c=64 v=24
159400 Par ch=1 c=64 v=72
159405 Par ch=1 c=64 v=127
159410 On ch=1 n=d6 v=0
159420 On ch=1 n=g#5 v=0
159435 On ch=1 n=e5 v=0
159470 On ch=1 n=f#5 v=57
159545 On ch=1 n=f#5 v=0
159585 On ch=1 n=e5 v=59
159590 On ch=1 n=b4 v=30
159605 On ch=1 n=b4 v=0
159605 On ch=1 n=e5 v=0
159670 On ch=1 n=f#6 v=70
159710 Par ch=1 c=64 v=72
159720 Par ch=1 c=64 v=24
159725 On ch=1 n=a4 v=37
159725 Par ch=1 c=64 v=0
159745 On ch=1 n=a4 v=0
159750 Par ch=1 c=64 v=24
159755 Par ch=1 c=64 v=56
159760 On ch=1 n=f#6 v=0
159760 Par ch=1 c=64 v=88
159770 Par ch=1 c=64 v=127
159790 On ch=1 n=e6 v=67
159790 On ch=1 n=c#6 v=62
159815 On ch=1 n=c#6 v=0
159850 On ch=1 n=e6 v=0
159900 On ch=1 n=f#6 v=55
159945 On ch=1 n=f#6 v=0
159980 On ch=1 n=d#5 v=38
159995 On ch=1 n=d#5 v=0
160000 On ch=1 n=c#7 v=69
160000 Par ch=1 c=64 v=104
160005 Par ch=1 c=64 v=88
160010 On ch=1 n=e5 v=53
160015 On ch=1 n=e6 v=46
160015 Par ch=1 c=64 v=72
160020 Par ch=1 c=64 v=56
160035 Par ch=1 c=64 v=40
160040 On ch=1 n=e5 v=0
160045 Par ch=1 c=64 v=24
160055 On ch=1 n=e6 v=0
160055 On ch=1 n=c#7 v=0
160075 Par ch=1 c=64 v=0
160110 On ch=1 n=c#6 v=48
160110 On ch=1 n=f#6 v=50
160150 On ch=1 n=c#6 v=0
160165 On ch=1 n=f#6 v=0
160210 On ch=1 n=b6 v=62
160215 On ch=1 n=e6 v=58
160220 On ch=1 n=c#4 v=38
160250 On ch=1 n=c#4 v=0
160260 On ch=1 n=b6 v=0
160265 On ch=1 n=e6 v=0
160315 On ch=1 n=f#6 v=56
160325 On ch=1 n=c#6 v=42
160360 On ch=1 n=f#5 v=39
160370 On ch=1 n=c#6 v=0
160375 On ch=1 n=f#6 v=0
160410 On ch=1 n=f#5 v=0
160410 On ch=1 n=e5 v=59
160425 On ch=1 n=a6 v=61
160425 On ch=1 n=e6 v=63
160430 On ch=1 n=e5 v=0
160480 On ch=1 n=e6 v=0
160515 On ch=1 n=f#6 v=56
160525 On ch=1 n=c#6 v=42
160555 On ch=1 n=c#6 v=0
160565 On ch=1 n=f#6 v=0
160625 On ch=1 n=e3 v=48
160625 On ch=1 n=a6 v=63
160630 On ch=1 n=d6 v=58
160640 On ch=1 n=e3 v=0
160670 On ch=1 n=d6 v=0
160675 On ch=1 n=a6 v=0
160725 On ch=1 n=b5 v=41
160730 On ch=1 n=e6 v=55
160735 On ch=1 n=a6 v=0
160770 On ch=1 n=b5 v=0
160785 On ch=1 n=e6 v=0
160800 On ch=1 n=e5 v=57
160825 On ch=1 n=e5 v=0
160835 On ch=1 n=g#6 v=57
160835 On ch=1 n=d6 v=58
160880 On ch=1 n=d6 v=0
160880 On ch=1 n=g#6 v=0
160925 On ch=1 n=b5 v=41
160925 On ch=1 n=e6 v=60
160955 On ch=1 n=b5 v=0
160970 On ch=1 n=e6 v=0
161015 On ch=1 n=g#3 v=39
161020 On ch=1 n=g6 v=61
161025 On ch=1 n=d6 v=51
161055 On ch=1 n=d6 v=0
161055 On ch=1 n=g#3 v=0
161060 On ch=1 n=g6 v=0
161115 On ch=1 n=f#6 v=60
161170 On ch=1 n=f#6 v=0
161205 On ch=1 n=e5 v=25
161205 On ch=1 n=f5 v=44
161220 On ch=1 n=f6 v=63
161225 On ch=1 n=d6 v=56
161240 On ch=1 n=f5 v=0
161240 On ch=1 n=e5 v=0
161270 On ch=1 n=d6 v=0
161290 On ch=1 n=f6 v=0
161320 On ch=1 n=b5 v=54
161385 On ch=1 n=b5 v=0
161415 On ch=1 n=e6 v=66
161420 On ch=1 n=a3 v=52
161430 On ch=1 n=c#6 v=37
161435 On ch=1 n=a3 v=0
161475 On ch=1 n=c#6 v=0
161480 On ch=1 n=e6 v=0
161520 On ch=1 n=a5 v=58
161560 On ch=1 n=d#5 v=39
161580 On ch=1 n=a5 v=0
161600 On ch=1 n=c#6 v=49
161610 On ch=1 n=d#5 v=0
161615 On ch=1 n=e5 v=57
161630 On ch=1 n=e5 v=0
161680 On ch=1 n=c#6 v=0
161700 On ch=1 n=f#6 v=61
161745 On ch=1 n=f#6 v=0
161805 On ch=1 n=e6 v=64
161805 On ch=1 n=b5 v=44
161810 On ch=1 n=g#5 v=26
161830 On ch=1 n=g#5 v=0
161830 On ch=1 n=b5 v=0
161870 On ch=1 n=e6 v=0
161895 On ch=1 n=f#6 v=53
161975 On ch=1 n=f#6 v=0
161995 On ch=1 n=e6 v=56
161995 On ch=1 n=d5 v=44
162010 On ch=1 n=d5 v=0
162015 On ch=1 n=e6 v=0
162090 On ch=1 n=f#7 v=78
162135 On ch=1 n=f#7 v=0
162200 On ch=1 n=e7 v=77
162200 On ch=1 n=c#6 v=38
162215 On ch=1 n=a5 v=33
162235 On ch=1 n=a5 v=0
162240 On ch=1 n=c#6 v=0
162270 On ch=1 n=e7 v=0
162290 On ch=1 n=f#6 v=62
162315 On ch=1 n=f#6 v=0
162395 On ch=1 n=c#5 v=49
162400 On ch=1 n=e6 v=52
162410 On ch=1 n=c#5 v=0
162425 On ch=1 n=e6 v=0
162495 On ch=1 n=f#5 v=54
162535 On ch=1 n=f#5 v=0
162595 On ch=1 n=e5 v=53
162600 On ch=1 n=d6 v=46
162605 On ch=1 n=g#5 v=40
162625 On ch=1 n=d6 v=0
162635 On ch=1 n=g#5 v=0
162660 On ch=1 n=e5 v=0
162700 On ch=1 n=f#5 v=50
162765 On ch=1 n=f#5 v=0
162790 On ch=1 n=b4 v=53
162795 On ch=1 n=e5 v=62
162815 On ch=1 n=e5 v=0
162825 On ch=1 n=b4 v=0
162885 On ch=1 n=f#6 v=70
162925 On ch=1 n=a4 v=48
162940 On ch=1 n=a4 v=0
162940 On ch=1 n=f#6 v=0
162985 On ch=1 n=c#6 v=65
163000 On ch=1 n=e6 v=67
163010 On ch=1 n=c#6 v=0
163065 On ch=1 n=e6 v=0
163095 On ch=1 n=f#6 v=59
163135 On ch=1 n=d#5 v=47
163145 On ch=1 n=f#6 v=0
163170 On ch=1 n=e5 v=66
163175 On ch=1 n=d#5 v=0
163185 On ch=1 n=c#7 v=67
163190 On ch=1 n=e6 v=58
163195 On ch=1 n=e5 v=0
163210 On ch=1 n=e6 v=0
163220 On ch=1 n=c#7 v=0
163280 On ch=1 n=c#6 v=48
163280 On ch=1 n=f#6 v=48
163320 On ch=1 n=c#6 v=0
163325 On ch=1 n=f#6 v=0
163365 On ch=1 n=c#4 v=44
163375 On ch=1 n=b6 v=61
163375 On ch=1 n=e6 v=58
163400 On ch=1 n=c#4 v=0
163410 On ch=1 n=b6 v=0
163420 On ch=1 n=e6 v=0
163470 On ch=1 n=f#6 v=51
163480 On ch=1 n=c#6 v=35
163500 On ch=1 n=c#6 v=0
163510 On ch=1 n=f#6 v=0
163515 On ch=1 n=f#5 v=46
163550 On ch=1 n=f#5 v=0
163550 On ch=1 n=e5 v=64
163570 On ch=1 n=e5 v=0
163575 On ch=1 n=a6 v=56
163575 On ch=1 n=e6 v=59
163620 On ch=1 n=e6 v=0
163655 On ch=1 n=f#6 v=49
163665 On ch=1 n=c#6 v=36
163690 On ch=1 n=c#6 v=0
163695 On ch=1 n=f#6 v=0
163745 On ch=1 n=e3 v=44
163755 On ch=1 n=a6 v=58
163760 On ch=1 n=d6 v=56
163775 On ch=1 n=e3 v=0
163800 On ch=1 n=d6 v=0
163800 On ch=1 n=a6 v=0
163855 On ch=1 n=b5 v=40
163865 On ch=1 n=e6 v=49
163885 On ch=1 n=b5 v=0
163905 On ch=1 n=e6 v=0
163905 On ch=1 n=d#5 v=36
163940 On ch=1 n=e5 v=64
163945 On ch=1 n=d#5 v=0
163950 On ch=1 n=g#6 v=61
163950 On ch=1 n=d6 v=56
163960 On ch=1 n=e5 v=0
163995 On ch=1 n=d6 v=0
163995 On ch=1 n=g#6 v=0
164045 On ch=1 n=e6 v=55
164050 On ch=1 n=b5 v=34
164075 On ch=1 n=b5 v=0
164085 On ch=1 n=e6 v=0
164130 On ch=1 n=g#3 v=51
164135 On ch=1 n=g6 v=66
164140 On ch=1 n=d6 v=60
164165 On ch=1 n=g#3 v=0
164175 On ch=1 n=g6 v=0
164180 On ch=1 n=d6 v=0
164225 On ch=1 n=f#6 v=62
164240 On ch=1 n=b5 v=45
164260 On ch=1 n=b5 v=0
164280 On ch=1 n=f#6 v=0
164310 On ch=1 n=e5 v=44
164335 On ch=1 n=d6 v=59
164335 On ch=1 n=f6 v=59
164345 On ch=1 n=e5 v=0
164345 On ch=1 n=f5 v=47
164365 On ch=1 n=f5 v=0
164390 On ch=1 n=d6 v=0
164420 On ch=1 n=b5 v=53
164490 On ch=1 n=b5 v=0
164490 On ch=1 n=f6 v=0
164515 On ch=1 n=a3 v=55
164520 On ch=1 n=e6 v=46
164530 On ch=1 n=a3 v=0
164535 On ch=1 n=c#6 v=36
164575 On ch=1 n=e6 v=0
164580 On ch=1 n=c#6 v=0
164620 On ch=1 n=a5 v=52
164680 On ch=1 n=a5 v=0
164685 On ch=1 n=d#5 v=37
164705 On ch=1 n=c#6 v=35
164725 On ch=1 n=d#5 v=0
164725 On ch=1 n=e5 v=59
164740 On ch=1 n=e5 v=0
164785 On ch=1 n=c#6 v=0
164795 On ch=1 n=g#6 v=62
164835 On ch=1 n=g#6 v=0
164900 On ch=1 n=a6 v=71
164900 On ch=1 n=c#6 v=30
164900 On ch=1 n=e6 v=44
164930 On ch=1 n=e6 v=0
164940 On ch=1 n=c#6 v=0
164960 On ch=1 n=a6 v=0
164985 On ch=1 n=a#6 v=53
165050 On ch=1 n=a#6 v=0
165075 On ch=1 n=a6 v=58
165075 On ch=1 n=g5 v=46
165100 On ch=1 n=a6 v=0
165115 On ch=1 n=g5 v=0
165165 On ch=1 n=a#7 v=83
165225 On ch=1 n=a#7 v=0
165275 On ch=1 n=a7 v=87
165290 On ch=1 n=f6 v=47
165295 On ch=1 n=d6 v=44
165325 On ch=1 n=f6 v=0
165365 On ch=1 n=d6 v=0
165365 On ch=1 n=a7 v=0
165385 On ch=1 n=a#6 v=44
165405 On ch=1 n=a#6 v=0
165470 On ch=1 n=f5 v=44
165470 On ch=1 n=a6 v=50
165495 On ch=1 n=f5 v=0
165520 On ch=1 n=a6 v=0
165570 On ch=1 n=a#5 v=64
165630 On ch=1 n=a#5 v=0
165670 On ch=1 n=c#6 v=53
165670 On ch=1 n=a5 v=64
165680 On ch=1 n=g6 v=26
165700 On ch=1 n=g6 v=0
165710 On ch=1 n=c#6 v=0
165740 On ch=1 n=a5 v=0
165770 On ch=1 n=a#5 v=48
165825 On ch=1 n=a#5 v=0
165855 On ch=1 n=e5 v=39
165860 On ch=1 n=a5 v=60
165870 On ch=1 n=e5 v=0
165880 On ch=1 n=a5 v=0
165960 On ch=1 n=a#6 v=50
165970 On ch=1 n=d5 v=49
166005 On ch=1 n=d5 v=0
166010 On ch=1 n=a#6 v=0
166050 On ch=1 n=f6 v=50
166055 On ch=1 n=a6 v=65
166065 On ch=1 n=f6 v=0
166110 On ch=1 n=a6 v=0
166145 On ch=1 n=a#6 v=61
166155 On ch=1 n=f6 v=54
166185 On ch=1 n=f6 v=0
166200 On ch=1 n=a#6 v=0
166220 On ch=1 n=g#5 v=34
166240 On ch=1 n=g#5 v=0
166245 On ch=1 n=a6 v=44
166250 On ch=1 n=f7 v=72
166255 On ch=1 n=a5 v=30
166275 On ch=1 n=a5 v=0
166295 On ch=1 n=f7 v=0
166300 On ch=1 n=a6 v=0
166345 On ch=1 n=f6 v=56
166345 On ch=1 n=a#6 v=54
166390 On ch=1 n=f6 v=0
166400 On ch=1 n=a#6 v=0
166440 On ch=1 n=a6 v=62
166440 On ch=1 n=e7 v=63
166445 On ch=1 n=f4 v=28
166460 On ch=1 n=f4 v=0
166485 On ch=1 n=e7 v=0
166485 On ch=1 n=a6 v=0
166530 On ch=1 n=f6 v=57
166530 On ch=1 n=a#6 v=53
166575 On ch=1 n=f6 v=0
166600 On ch=1 n=a5 v=54
166615 On ch=1 n=a5 v=0
166625 On ch=1 n=d7 v=63
166680 On ch=1 n=d7 v=0
166775 On ch=1 n=a3 v=46
166780 On ch=1 n=g6 v=65
166780 On ch=1 n=d7 v=59
166800 On ch=1 n=a3 v=0
166830 On ch=1 n=d7 v=0
166840 On ch=1 n=g6 v=0
166875 On ch=1 n=e6 v=52
166880 On ch=1 n=a6 v=47
166915 On ch=1 n=a6 v=0
166920 On ch=1 n=e6 v=0
166925 On ch=1 n=g#5 v=32
166965 On ch=1 n=g#5 v=0
166965 On ch=1 n=a5 v=49
166975 On ch=1 n=c#7 v=64
166985 On ch=1 n=a5 v=0
166985 On ch=1 n=g6 v=56
167015 On ch=1 n=a#6 v=0
167025 On ch=1 n=g6 v=0
167025 On ch=1 n=c#7 v=0
167065 On ch=1 n=e6 v=51
167065 On ch=1 n=a6 v=52
167090 On ch=1 n=e6 v=0
167110 On ch=1 n=a6 v=0
167150 On ch=1 n=c#4 v=43
167155 On ch=1 n=c7 v=68
167160 On ch=1 n=g6 v=61
167185 On ch=1 n=c#4 v=0
167195 On ch=1 n=g6 v=0
167195 On ch=1 n=c7 v=0
167250 On ch=1 n=b6 v=70
167250 On ch=1 n=e6 v=51
167285 On ch=1 n=e6 v=0
167300 On ch=1 n=b6 v=0
167330 On ch=1 n=a#5 v=40
167340 On ch=1 n=a#6 v=61
167350 On ch=1 n=g6 v=55
167350 On ch=1 n=a5 v=63
167360 On ch=1 n=a#5 v=0
167370 On ch=1 n=a5 v=0
167395 On ch=1 n=g6 v=0
167420 On ch=1 n=a#6 v=0
167440 On ch=1 n=e6 v=53
167490 On ch=1 n=e6 v=0
167535 On ch=1 n=d4 v=44
167540 On ch=1 n=a6 v=54
167540 On ch=1 n=f6 v=63
167560 On ch=1 n=d4 v=0
167585 On ch=1 n=f6 v=0
167605 On ch=1 n=a6 v=0
167630 On ch=1 n=d6 v=57
167690 On ch=1 n=d6 v=0
167700 On ch=1 n=g#5 v=22
167715 On ch=1 n=f6 v=56
167725 On ch=1 n=a5 v=56
167740 On ch=1 n=g#5 v=0
167745 On ch=1 n=a5 v=0
167780 On ch=1 n=f6 v=0
167805 On ch=1 n=a#6 v=59
167830 On ch=1 n=a#6 v=0
167900 On ch=1 n=c#6 v=37
167905 On ch=1 n=e6 v=54
167905 On ch=1 n=a6 v=70
167920 On ch=1 n=e6 v=0
167920 On ch=1 n=c#6 v=0
167960 On ch=1 n=a6 v=0
167995 On ch=1 n=a#6 v=43
168055 On ch=1 n=a#6 v=0
168075 On ch=1 n=a6 v=59
168085 On ch=1 n=g5 v=42
168100 On ch=1 n=g5 v=0
168105 On ch=1 n=a6 v=0
168175 On ch=1 n=a#7 v=71
168215 On ch=1 n=a#7 v=0
168265 On ch=1 n=a7 v=82
168275 On ch=1 n=f6 v=53
168275 On ch=1 n=d6 v=49
168295 On ch=1 n=d6 v=0
168300 On ch=1 n=f6 v=0
168355 On ch=1 n=a7 v=0
168355 On ch=1 n=a#6 v=57
168385 On ch=1 n=a#6 v=0
168445 On ch=1 n=a6 v=73
168450 On ch=1 n=f5 v=43
168470 On ch=1 n=f5 v=0
168480 On ch=1 n=a6 v=0
168540 On ch=1 n=a#5 v=59
168605 On ch=1 n=a#5 v=0
168635 On ch=1 n=a5 v=58
168640 On ch=1 n=g6 v=52
168640 On ch=1 n=c#6 v=42
168665 On ch=1 n=c#6 v=0
168665 On ch=1 n=g6 v=0
168685 On ch=1 n=a5 v=0
168725 On ch=1 n=a#5 v=49
168785 On ch=1 n=a#5 v=0
168810 On ch=1 n=a5 v=64
168810 On ch=1 n=e5 v=47
168830 On ch=1 n=e5 v=0
168830 On ch=1 n=a5 v=0
168900 On ch=1 n=a#6 v=55
168930 On ch=1 n=d5 v=45
168940 On ch=1 n=a#6 v=0
168960 On ch=1 n=d5 v=0
169010 On ch=1 n=a6 v=66
169065 On ch=1 n=a6 v=0
169105 On ch=1 n=a#6 v=54
169105 On ch=1 n=f6 v=53
169125 On ch=1 n=f6 v=0
169135 On ch=1 n=g#5 v=31
169145 On ch=1 n=a#6 v=0
169185 On ch=1 n=a5 v=60
169190 On ch=1 n=g#5 v=0
169195 On ch=1 n=f7 v=74
169200 On ch=1 n=a6 v=46
169210 On ch=1 n=a5 v=0
169235 On ch=1 n=f7 v=0
169245 On ch=1 n=a6 v=0
169290 On ch=1 n=f6 v=56
169290 On ch=1 n=a#6 v=58
169320 On ch=1 n=f6 v=0
169335 On ch=1 n=a#6 v=0
169370 On ch=1 n=f4 v=45
169375 On ch=1 n=e7 v=66
169375 On ch=1 n=a6 v=60
169385 On ch=1 n=f4 v=0
169410 On ch=1 n=e7 v=0
169420 On ch=1 n=a6 v=0
169460 On ch=1 n=a#6 v=56
169465 On ch=1 n=f6 v=54
169505 On ch=1 n=f6 v=0
169510 On ch=1 n=a#5 v=60
169525 On ch=1 n=a#6 v=0
169555 On ch=1 n=a#5 v=0
169555 On ch=1 n=a5 v=68
169565 On ch=1 n=d7 v=62
169565 On ch=1 n=a6 v=60
169575 On ch=1 n=a5 v=0
169610 On ch=1 n=d7 v=0
169610 On ch=1 n=a6 v=0
169650 On ch=1 n=f6 v=61
169680 On ch=1 n=f6 v=0
169735 On ch=1 n=g6 v=60
169735 On ch=1 n=d7 v=60
169745 On ch=1 n=a3 v=49
169755 On ch=1 n=a3 v=0
169775 On ch=1 n=d7 v=0
169775 On ch=1 n=g6 v=0
169820 On ch=1 n=e6 v=55
169830 On ch=1 n=a6 v=40
169850 On ch=1 n=e6 v=0
169865 On ch=1 n=g#5 v=57
169880 On ch=1 n=a6 v=0
169895 On ch=1 n=g#5 v=0
169910 On ch=1 n=a5 v=66
169915 On ch=1 n=c#7 v=58
169925 On ch=1 n=g6 v=56
169930 On ch=1 n=a5 v=0
169955 On ch=1 n=g6 v=0
169955 On ch=1 n=c#7 v=0
170000 On ch=1 n=a6 v=60
170000 On ch=1 n=e6 v=53
170015 On ch=1 n=e6 v=0
170035 On ch=1 n=a6 v=0
170080 On ch=1 n=c#4 v=53
170080 On ch=1 n=c7 v=66
170085 On ch=1 n=g6 v=59
170110 On ch=1 n=c#4 v=0
170115 On ch=1 n=g6 v=0
170115 On ch=1 n=c7 v=0
170165 On ch=1 n=b6 v=66
170175 On ch=1 n=e6 v=47
170195 On ch=1 n=e6 v=0
170220 On ch=1 n=b6 v=0
170235 On ch=1 n=a#5 v=60
170265 On ch=1 n=a#5 v=0
170265 On ch=1 n=a#6 v=56
170265 On ch=1 n=a5 v=74
170270 On ch=1 n=g6 v=56
170280 On ch=1 n=a5 v=0
170310 On ch=1 n=g6 v=0
170325 On ch=1 n=a#6 v=0
170345 On ch=1 n=e6 v=63
170390 On ch=1 n=e6 v=0
170440 On ch=1 n=a6 v=58
170445 On ch=1 n=f6 v=60
170460 On ch=1 n=d4 v=34
170480 On ch=1 n=d4 v=0
170500 On ch=1 n=f6 v=0
170510 On ch=1 n=a6 v=0
170535 On ch=1 n=d6 v=46
170595 On ch=1 n=d6 v=0
170620 On ch=1 n=f6 v=53
170685 On ch=1 n=f6 v=0
170690 Par ch=1 c=64 v=56
170695 On ch=1 n=d7 v=82
170705 Par ch=1 c=64 v=40
170710 Par ch=1 c=64 v=24
170715 Par ch=1 c=64 v=0
170715 Par ch=1 c=64 v=0
170720 On ch=1 n=d7 v=0
170800 On ch=1 n=f7 v=84
170800 On ch=1 n=f6 v=69
170805 On ch=1 n=f2 v=53
170815 On ch=1 n=f3 v=35
170825 Par ch=1 c=64 v=24
170830 On ch=1 n=f2 v=0
170830 Par ch=1 c=64 v=72
170835 Par ch=1 c=64 v=88
170845 Par ch=1 c=64 v=104
170850 Par ch=1 c=64 v=127
170865 On ch=1 n=f3 v=0
170870 On ch=1 n=f7 v=0
170885 On ch=1 n=f#3 v=56
170890 On ch=1 n=c7 v=62
170895 On ch=1 n=f6 v=0
170895 On ch=1 n=a6 v=47
170935 On ch=1 n=f#3 v=0
170940 On ch=1 n=a6 v=0
170950 On ch=1 n=c7 v=0
170965 On ch=1 n=f3 v=53
170965 Par ch=1 c=64 v=104
170970 Par ch=1 c=64 v=72
170975 Par ch=1 c=64 v=24
170980 On ch=1 n=d#6 v=53
170985 Par ch=1 c=64 v=0
171025 On ch=1 n=f3 v=0
171035 Par ch=1 c=64 v=40
171040 Par ch=1 c=64 v=56
171045 Par ch=1 c=64 v=72
171050 On ch=1 n=f#3 v=56
171050 Par ch=1 c=64 v=88
171055 On ch=1 n=d#7 v=75
171060 Par ch=1 c=64 v=104
171065 On ch=1 n=f#3 v=0
171065 Par ch=1 c=64 v=127
171080 On ch=1 n=d#7 v=0
171080 On ch=1 n=d#6 v=0
171115 Par ch=1 c=64 v=88
171120 Par ch=1 c=64 v=72
171125 Par ch=1 c=64 v=24
171135 Par ch=1 c=64 v=0
171150 On ch=1 n=c#7 v=78
171155 On ch=1 n=c#6 v=64
171155 On ch=1 n=f3 v=49
171160 On ch=1 n=f4 v=46
171170 On ch=1 n=f3 v=0
171180 Par ch=1 c=64 v=24
171185 Par ch=1 c=64 v=56
171190 Par ch=1 c=64 v=72
171195 Par ch=1 c=64 v=88
171200 Par ch=1 c=64 v=104
171215 On ch=1 n=c#6 v=0
171220 On ch=1 n=f4 v=0
171220 On ch=1 n=c#7 v=0
171235 On ch=1 n=f#4 v=55
171235 On ch=1 n=a#6 v=51
171240 On ch=1 n=f6 v=55
171255 Par ch=1 c=64 v=127
171280 On ch=1 n=f6 v=0
171285 On ch=1 n=a#6 v=0
171300 On ch=1 n=f#4 v=0
171315 On ch=1 n=d6 v=70
171315 On ch=1 n=f4 v=60
171385 On ch=1 n=f4 v=0
171395 On ch=1 n=f#4 v=54
171400 On ch=1 n=d7 v=81
171405 On ch=1 n=f#4 v=0
171415 On ch=1 n=d6 v=0
171425 On ch=1 n=d7 v=0
171450 Par ch=1 c=64 v=104
171455 Par ch=1 c=64 v=72
171460 Par ch=1 c=64 v=40
171465 Par ch=1 c=64 v=0
171490 On ch=1 n=g#6 v=75
171490 On ch=1 n=g#5 v=61
171500 On ch=1 n=f5 v=46
171505 On ch=1 n=f4 v=43
171530 On ch=1 n=f4 v=0
171555 Par ch=1 c=64 v=24
171560 Par ch=1 c=64 v=40
171565 Par ch=1 c=64 v=56
171570 On ch=1 n=f5 v=0
171570 On ch=1 n=g#5 v=0
171570 On ch=1 n=g#6 v=0
171575 On ch=1 n=d#6 v=58
171575 Par ch=1 c=64 v=72
171580 On ch=1 n=f#5 v=62
171580 Par ch=1 c=64 v=88
171585 On ch=1 n=c6 v=39
171585 Par ch=1 c=64 v=104
171610 Par ch=1 c=64 v=127
171630 On ch=1 n=c6 v=0
171640 On ch=1 n=f#5 v=0
171650 On ch=1 n=d#6 v=0
171660 On ch=1 n=a5 v=72
171660 On ch=1 n=f5 v=58
171730 On ch=1 n=f5 v=0
171735 On ch=1 n=a5 v=0
171740 On ch=1 n=f#5 v=40
171745 On ch=1 n=a6 v=76
171770 On ch=1 n=a6 v=0
171775 On ch=1 n=f#5 v=0
171805 Par ch=1 c=64 v=104
171815 Par ch=1 c=64 v=88
171820 Par ch=1 c=64 v=40
171825 Par ch=1 c=64 v=0
171830 On ch=1 n=c7 v=81
171840 On ch=1 n=c6 v=55
171840 On ch=1 n=f5 v=51
171870 Par ch=1 c=64 v=40
171875 Par ch=1 c=64 v=88
171880 On ch=1 n=c7 v=0
171885 Par ch=1 c=64 v=104
171890 Par ch=1 c=64 v=127
171920 On ch=1 n=f5 v=0
171925 On ch=1 n=c6 v=0
171930 On ch=1 n=d6 v=48
171930 On ch=1 n=f6 v=61
171930 On ch=1 n=g5 v=47
171960 On ch=1 n=d6 v=0
171965 On ch=1 n=f6 v=0
171980 On ch=1 n=g5 v=0
172010 On ch=1 n=a#5 v=65
172015 On ch=1 n=f5 v=47
172030 On ch=1 n=f5 v=0
172090 On ch=1 n=a#5 v=0
172090 On ch=1 n=a#6 v=77
172110 On ch=1 n=a#6 v=0
172155 Par ch=1 c=64 v=104
172160 Par ch=1 c=64 v=88
172165 Par ch=1 c=64 v=72
172175 Par ch=1 c=64 v=40
172180 Par ch=1 c=64 v=0
172195 On ch=1 n=f6 v=72
172195 On ch=1 n=f7 v=85
172200 On ch=1 n=f2 v=56
172205 On ch=1 n=f3 v=58
172225 On ch=1 n=f2 v=0
172230 Par ch=1 c=64 v=24
172235 Par ch=1 c=64 v=72
172240 Par ch=1 c=64 v=104
172245 Par ch=1 c=64 v=127
172265 On ch=1 n=f3 v=0
172265 On ch=1 n=f7 v=0
172280 On ch=1 n=f#3 v=58
172285 On ch=1 n=c7 v=64
172290 On ch=1 n=f6 v=0
172290 On ch=1 n=a6 v=50
172335 On ch=1 n=a6 v=0
172350 On ch=1 n=c7 v=0
172350 On ch=1 n=f#3 v=0
172370 On ch=1 n=d#6 v=64
172370 On ch=1 n=f3 v=45
172435 On ch=1 n=f3 v=0
172445 On ch=1 n=d#7 v=73
172445 On ch=1 n=f#3 v=36
172460 On ch=1 n=f#3 v=0
172470 On ch=1 n=d#7 v=0
172470 On ch=1 n=d#6 v=0
172520 Par ch=1 c=64 v=88
172525 Par ch=1 c=64 v=40
172530 Par ch=1 c=64 v=0
172535 On ch=1 n=c#7 v=79
172535 On ch=1 n=c#6 v=69
172545 On ch=1 n=f3 v=48
172550 On ch=1 n=f4 v=50
172560 On ch=1 n=f3 v=0
172570 Par ch=1 c=64 v=24
172575 Par ch=1 c=64 v=72
172580 Par ch=1 c=64 v=104
172585 Par ch=1 c=64 v=127
172595 On ch=1 n=c#6 v=0
172605 On ch=1 n=c#7 v=0
172610 On ch=1 n=f4 v=0
172625 On ch=1 n=a#6 v=58
172625 On ch=1 n=f#4 v=52
172625 On ch=1 n=f6 v=63
172660 On ch=1 n=f6 v=0
172690 On ch=1 n=f#4 v=0
172690 On ch=1 n=a#6 v=0
172710 On ch=1 n=d6 v=68
172715 On ch=1 n=f4 v=56
172765 On ch=1 n=f4 v=0
172795 On ch=1 n=d7 v=75
172810 On ch=1 n=d7 v=0
172810 On ch=1 n=d6 v=0
172875 Par ch=1 c=64 v=104
172885 Par ch=1 c=64 v=56
172890 On ch=1 n=g#6 v=76
172890 On ch=1 n=g#5 v=54
172890 On ch=1 n=f5 v=43
172890 Par ch=1 c=64 v=0
172895 On ch=1 n=f4 v=48
172915 On ch=1 n=f4 v=0
172935 Par ch=1 c=64 v=24
172940 Par ch=1 c=64 v=56
172945 Par ch=1 c=64 v=88
172950 On ch=1 n=f5 v=0
172955 Par ch=1 c=64 v=104
172960 On ch=1 n=g#5 v=0
172960 On ch=1 n=g#6 v=0
172960 Par ch=1 c=64 v=127
172970 On ch=1 n=f#5 v=49
172975 On ch=1 n=d#6 v=53
172985 On ch=1 n=c6 v=36
173020 On ch=1 n=c6 v=0
173040 On ch=1 n=f#5 v=0
173050 On ch=1 n=d#6 v=0
173060 On ch=1 n=a5 v=67
173060 On ch=1 n=f5 v=56
173125 On ch=1 n=f5 v=0
173125 On ch=1 n=a5 v=0
173140 On ch=1 n=f#5 v=43
173140 On ch=1 n=a6 v=77
173165 On ch=1 n=f#5 v=0
173165 On ch=1 n=a6 v=0
173210 Par ch=1 c=64 v=104
173215 Par ch=1 c=64 v=88
173225 Par ch=1 c=64 v=56
173230 On ch=1 n=c7 v=75
173230 Par ch=1 c=64 v=0
173240 On ch=1 n=a6 v=0
173240 On ch=1 n=c6 v=47
173245 On ch=1 n=f5 v=56
173280 On ch=1 n=c7 v=0
173280 Par ch=1 c=64 v=56
173285 Par ch=1 c=64 v=88
173290 Par ch=1 c=64 v=127
173315 On ch=1 n=f5 v=0
173315 On ch=1 n=c6 v=0
173325 On ch=1 n=d6 v=46
173325 On ch=1 n=g5 v=52
173330 On ch=1 n=f6 v=49
173350 On ch=1 n=d6 v=0
173370 On ch=1 n=f6 v=0
173385 On ch=1 n=g5 v=0
173400 On ch=1 n=a#5 v=55
173405 On ch=1 n=f5 v=55
173425 On ch=1 n=f5 v=0
173480 On ch=1 n=a#5 v=0
173480 On ch=1 n=a#6 v=77
173500 On ch=1 n=a#6 v=0
173540 On ch=1 n=a#3 v=25
173555 On ch=1 n=a#3 v=0
173580 Par ch=1 c=64 v=104
173590 On ch=1 n=a#7 v=85
173590 On ch=1 n=a#6 v=74
173590 Par ch=1 c=64 v=56
173595 Par ch=1 c=64 v=0
173600 On ch=1 n=g#7 v=46
173600 On ch=1 n=a#2 v=52
173605 On ch=1 n=a#3 v=54
173610 On ch=1 n=g#7 v=0
173640 On ch=1 n=a#2 v=0
173640 Par ch=1 c=64 v=72
173645 Par ch=1 c=64 v=127
173660 On ch=1 n=a#3 v=0
173670 On ch=1 n=a#7 v=0
173685 On ch=1 n=a#6 v=0
173685 On ch=1 n=f7 v=62
173690 On ch=1 n=d7 v=51
173690 On ch=1 n=b3 v=51
173710 On ch=1 n=d7 v=0
173735 On ch=1 n=b3 v=0
173750 On ch=1 n=f7 v=0
173760 On ch=1 n=a#3 v=44
173760 On ch=1 n=g#6 v=69
173830 On ch=1 n=a#3 v=0
173840 On ch=1 n=b3 v=63
173845 On ch=1 n=g#7 v=75
173850 On ch=1 n=b3 v=0
173865 On ch=1 n=g#6 v=0
173870 On ch=1 n=g#7 v=0
173915 Par ch=1 c=64 v=104
173920 Par ch=1 c=64 v=72
173930 Par ch=1 c=64 v=24
173935 On ch=1 n=f7 v=85
173935 Par ch=1 c=64 v=0
173940 On ch=1 n=f6 v=60
173950 On ch=1 n=a#4 v=46
173950 On ch=1 n=a#3 v=51
173950 On ch=1 n=g6 v=37
173965 On ch=1 n=g6 v=0
173975 On ch=1 n=a#3 v=0
173980 Par ch=1 c=64 v=72
173985 Par ch=1 c=64 v=127
174005 On ch=1 n=a#4 v=0
174010 On ch=1 n=f6 v=0
174020 On ch=1 n=f7 v=0
174025 On ch=1 n=b4 v=59
174025 On ch=1 n=d#7 v=65
174030 On ch=1 n=a#6 v=43
174060 On ch=1 n=a#6 v=0
174070 On ch=1 n=b4 v=0
174095 On ch=1 n=d#7 v=0
174105 On ch=1 n=a#4 v=36
174110 On ch=1 n=f#6 v=64
174180 On ch=1 n=a#4 v=0
174185 On ch=1 n=f#7 v=77
174185 On ch=1 n=b4 v=52
174200 On ch=1 n=b4 v=0
174210 On ch=1 n=f#7 v=0
174210 On ch=1 n=f#6 v=0
174260 Par ch=1 c=64 v=104
174270 Par ch=1 c=64 v=40
174275 On ch=1 n=c#6 v=71
174275 On ch=1 n=c#7 v=79
174275 On ch=1 n=a#4 v=44
174275 Par ch=1 c=64 v=0
174280 On ch=1 n=a#5 v=39
174310 Par ch=1 c=64 v=56
174315 On ch=1 n=a#4 v=0
174320 Par ch=1 c=64 v=104
174325 On ch=1 n=a#5 v=0
174325 Par ch=1 c=64 v=127
174330 On ch=1 n=c#6 v=0
174340 On ch=1 n=c#7 v=0
174360 On ch=1 n=g#6 v=57
174360 On ch=1 n=b5 v=51
174365 On ch=1 n=f6 v=47
174400 On ch=1 n=f6 v=0
174400 On ch=1 n=b5 v=0
174430 On ch=1 n=g#6 v=0
174440 On ch=1 n=a#5 v=58
174440 On ch=1 n=d6 v=71
174500 On ch=1 n=d6 v=0
174510 On ch=1 n=a#5 v=0
174520 On ch=1 n=d7 v=76
174525 On ch=1 n=b5 v=62
174545 On ch=1 n=d7 v=0
174560 On ch=1 n=b5 v=0
174600 Par ch=1 c=64 v=104
174610 Par ch=1 c=64 v=72
174615 Par ch=1 c=64 v=0
174630 On ch=1 n=f7 v=87
174630 On ch=1 n=f6 v=82
174630 On ch=1 n=a#5 v=58
174675 On ch=1 n=f7 v=0
174695 Par ch=1 c=64 v=24
174705 Par ch=1 c=64 v=56
174710 On ch=1 n=f#6 v=42
174710 Par ch=1 c=64 v=88
174715 On ch=1 n=a#6 v=45
174715 Par ch=1 c=64 v=104
174720 On ch=1 n=f6 v=0
174720 Par ch=1 c=64 v=127
174745 On ch=1 n=f#6 v=0
174780 On ch=1 n=a#6 v=0
174795 On ch=1 n=d#6 v=58
174800 On ch=1 n=a#5 v=0
174865 On ch=1 n=d#6 v=0
174870 On ch=1 n=d#7 v=82
174890 On ch=1 n=d#7 v=0
174960 Par ch=1 c=64 v=88
174965 Par ch=1 c=64 v=24
174970 On ch=1 n=a#7 v=84
174970 Par ch=1 c=64 v=0
174975 On ch=1 n=a#6 v=78
174980 On ch=1 n=a#2 v=54
174980 On ch=1 n=a#3 v=50
175005 Par ch=1 c=64 v=56
175010 Par ch=1 c=64 v=104
175015 On ch=1 n=a#2 v=0
175015 Par ch=1 c=64 v=127
175030 On ch=1 n=a#3 v=0
175035 On ch=1 n=a#7 v=0
175050 On ch=1 n=a#6 v=0
175060 On ch=1 n=f7 v=60
175060 On ch=1 n=b3 v=60
175075 On ch=1 n=d7 v=27
175095 On ch=1 n=d7 v=0
175100 On ch=1 n=b3 v=0
175120 On ch=1 n=f7 v=0
175140 On ch=1 n=a#3 v=50
175140 On ch=1 n=g#6 v=71
175195 On ch=1 n=a#3 v=0
175215 On ch=1 n=g#6 v=0
175215 On ch=1 n=b3 v=58
175220 On ch=1 n=g#7 v=83
175230 On ch=1 n=b3 v=0
175255 On ch=1 n=g#7 v=0
175300 Par ch=1 c=64 v=104
175305 Par ch=1 c=64 v=56
175310 On ch=1 n=f7 v=87
175315 On ch=1 n=f6 v=73
175315 On ch=1 n=a#3 v=53
175315 On ch=1 n=a#4 v=43
175315 Par ch=1 c=64 v=0
175345 Par ch=1 c=64 v=40
175350 On ch=1 n=a#3 v=0
175350 Par ch=1 c=64 v=88
175355 Par ch=1 c=64 v=127
175365 On ch=1 n=a#4 v=0
175365 On ch=1 n=f6 v=0
175375 On ch=1 n=f7 v=0
175390 On ch=1 n=a#6 v=43
175390 On ch=1 n=d#7 v=54
175400 On ch=1 n=b4 v=38
175420 On ch=1 n=a#6 v=0
175450 On ch=1 n=b4 v=0
175460 On ch=1 n=d#7 v=0
175475 On ch=1 n=a#4 v=39
175475 On ch=1 n=f#6 v=55
175545 On ch=1 n=a#4 v=0
175555 On ch=1 n=f#7 v=78
175560 On ch=1 n=b4 v=41
175575 On ch=1 n=b4 v=0
175580 On ch=1 n=f#7 v=0
175580 On ch=1 n=f#6 v=0
175625 Par ch=1 c=64 v=88
175635 Par ch=1 c=64 v=40
175640 Par ch=1 c=64 v=0
175645 On ch=1 n=c#7 v=80
175650 On ch=1 n=c#6 v=73
175650 On ch=1 n=a#4 v=52
175650 On ch=1 n=a#5 v=56
175665 Par ch=1 c=64 v=40
175670 Par ch=1 c=64 v=88
175675 Par ch=1 c=64 v=127
175695 On ch=1 n=a#5 v=0
175695 On ch=1 n=a#4 v=0
175695 On ch=1 n=c#6 v=0
175705 On ch=1 n=c#7 v=0
175725 On ch=1 n=g#6 v=54
175730 On ch=1 n=f6 v=53
175735 On ch=1 n=b5 v=42
175760 On ch=1 n=f6 v=0
175770 On ch=1 n=b5 v=0
175790 On ch=1 n=g#6 v=0
175805 On ch=1 n=d6 v=67
175810 On ch=1 n=a#5 v=44
175875 On ch=1 n=a#5 v=0
175875 On ch=1 n=d6 v=0
175890 On ch=1 n=d7 v=76
175895 On ch=1 n=b5 v=55
175900 On ch=1 n=d7 v=0
175915 On ch=1 n=b5 v=0
175980 Par ch=1 c=64 v=88
175985 On ch=1 n=f7 v=79
175985 Par ch=1 c=64 v=56
175990 On ch=1 n=a#5 v=40
175990 On ch=1 n=f6 v=47
175995 Par ch=1 c=64 v=0
176030 On ch=1 n=f7 v=0
176045 Par ch=1 c=64 v=56
176050 Par ch=1 c=64 v=88
176055 Par ch=1 c=64 v=127
176075 On ch=1 n=f#6 v=49
176075 On ch=1 n=a#6 v=48
176080 On ch=1 n=f6 v=0
176115 On ch=1 n=f#6 v=0
176125 On ch=1 n=a#5 v=0
176135 On ch=1 n=a#6 v=0
176155 On ch=1 n=d#6 v=62
176230 On ch=1 n=d#7 v=83
176255 On ch=1 n=d#7 v=0
176265 On ch=1 n=d#6 v=0
176325 Par ch=1 c=64 v=104
176330 Par ch=1 c=64 v=72
176335 On ch=1 n=c#7 v=63
176335 On ch=1 n=c#8 v=84
176335 Par ch=1 c=64 v=40
176345 On ch=1 n=a#3 v=42
176345 Par ch=1 c=64 v=0
176350 On ch=1 n=a#2 v=34
176380 Par ch=1 c=64 v=56
176385 Par ch=1 c=64 v=127
176390 On ch=1 n=c#7 v=0
176405 On ch=1 n=a#2 v=0
176410 On ch=1 n=a#3 v=0
176410 On ch=1 n=c#8 v=0
176420 On ch=1 n=f#7 v=65
176495 On ch=1 n=f#7 v=0
176505 On ch=1 n=c#7 v=73
176510 On ch=1 n=f#4 v=57
176515 On ch=1 n=f#3 v=40
176530 On ch=1 n=f#3 v=0
176530 On ch=1 n=f#4 v=0
176580 On ch=1 n=c#7 v=0
176585 On ch=1 n=c#8 v=85
176615 On ch=1 n=c#8 v=0
176670 Par ch=1 c=64 v=104
176675 Par ch=1 c=64 v=72
176680 On ch=1 n=e8 v=88
176680 On ch=1 n=e7 v=71
176685 Par ch=1 c=64 v=24
176690 On ch=1 n=b3 v=53
176690 Par ch=1 c=64 v=0
176695 On ch=1 n=b2 v=44
176725 Par ch=1 c=64 v=56
176730 On ch=1 n=b2 v=0
176730 Par ch=1 c=64 v=127
176740 On ch=1 n=e8 v=0
176745 On ch=1 n=b3 v=0
176755 On ch=1 n=e7 v=0
176770 On ch=1 n=f#7 v=62
176850 On ch=1 n=f#7 v=0
176855 On ch=1 n=f#4 v=55
176855 On ch=1 n=d#7 v=65
176860 On ch=1 n=f#3 v=36
176875 On ch=1 n=f#3 v=0
176875 On ch=1 n=f#4 v=0
176925 On ch=1 n=d#7 v=0
176930 On ch=1 n=d#8 v=80
176955 On ch=1 n=d#8 v=0
177015 Par ch=1 c=64 v=88
177020 On ch=1 n=a7 v=82
177020 Par ch=1 c=64 v=40
177025 On ch=1 n=a6 v=59
177030 On ch=1 n=c#4 v=46
177030 On ch=1 n=c#3 v=42
177030 Par ch=1 c=64 v=0
177065 Par ch=1 c=64 v=24
177070 Par ch=1 c=64 v=88
177075 Par ch=1 c=64 v=127
177085 On ch=1 n=c#3 v=0
177090 On ch=1 n=a7 v=0
177095 On ch=1 n=c#4 v=0
177105 On ch=1 n=f#7 v=52
177115 On ch=1 n=e7 v=49
177155 On ch=1 n=e7 v=0
177180 On ch=1 n=f#7 v=0
177195 On ch=1 n=a#6 v=61
177195 On ch=1 n=f#4 v=53
177200 On ch=1 n=f#3 v=39
177220 On ch=1 n=f#4 v=0
177230 On ch=1 n=f#3 v=0
177270 On ch=1 n=a#7 v=81
177275 On ch=1 n=a#6 v=0
177280 On ch=1 n=a6 v=0
177300 On ch=1 n=a#7 v=0
177355 Par ch=1 c=64 v=104
177360 On ch=1 n=c#8 v=82
177365 On ch=1 n=c#7 v=73
177365 On ch=1 n=d#3 v=44
177365 On ch=1 n=d#4 v=42
177365 Par ch=1 c=64 v=72
177370 Par ch=1 c=64 v=0
177405 Par ch=1 c=64 v=40
177410 Par ch=1 c=64 v=88
177420 Par ch=1 c=64 v=127
177430 On ch=1 n=c#8 v=0
177445 On ch=1 n=c#7 v=0
177450 On ch=1 n=d#7 v=54
177450 On ch=1 n=f#7 v=57
177455 On ch=1 n=d#3 v=0
177460 On ch=1 n=d#4 v=0
177520 On ch=1 n=f#7 v=0
177520 On ch=1 n=d#7 v=0
177530 On ch=1 n=f#4 v=55
177535 On ch=1 n=b6 v=68
177535 On ch=1 n=f#3 v=40
177555 On ch=1 n=f#4 v=0
177565 On ch=1 n=f#3 v=0
177605 On ch=1 n=b6 v=0
177610 On ch=1 n=b7 v=82
177630 On ch=1 n=b7 v=0
177705 Par ch=1 c=64 v=88
177710 On ch=1 n=c8 v=79
177710 Par ch=1 c=64 v=56
177715 On ch=1 n=g7 v=66
177715 Par ch=1 c=64 v=0
177720 On ch=1 n=e3 v=44
177720 On ch=1 n=e4 v=42
177750 Par ch=1 c=64 v=72
177760 Par ch=1 c=64 v=127
177765 On ch=1 n=e3 v=0
177775 On ch=1 n=e4 v=0
177775 On ch=1 n=g7 v=0
177775 On ch=1 n=c8 v=0
177795 On ch=1 n=a#7 v=73
177800 On ch=1 n=c#7 v=60
177840 On ch=1 n=c#7 v=0
177860 On ch=1 n=a#7 v=0
177880 On ch=1 n=c8 v=77
177885 On ch=1 n=g7 v=64
177890 On ch=1 n=g4 v=55
177890 On ch=1 n=a#3 v=44
177940 On ch=1 n=a#3 v=0
177940 On ch=1 n=g4 v=0
177940 On ch=1 n=g7 v=0
177940 On ch=1 n=c8 v=0
177965 On ch=1 n=a#7 v=70
177975 On ch=1 n=c#7 v=68
177995 On ch=1 n=a#7 v=0
178010 On ch=1 n=c#7 v=0
178055 Par ch=1 c=64 v=104
178060 On ch=1 n=a7 v=82
178060 Par ch=1 c=64 v=56
178065 On ch=1 n=a#4 v=40
178065 On ch=1 n=e7 v=64
178070 On ch=1 n=c#4 v=42
178070 Par ch=1 c=64 v=0
178095 Par ch=1 c=64 v=24
178100 Par ch=1 c=64 v=72
178105 Par ch=1 c=64 v=127
178110 On ch=1 n=a7 v=0
178125 On ch=1 n=e7 v=0
178135 On ch=1 n=a#4 v=0
178140 On ch=1 n=g7 v=75
178145 On ch=1 n=a#6 v=55
178180 On ch=1 n=a#6 v=0
178185 On ch=1 n=c#4 v=0
178205 On ch=1 n=g7 v=0
178225 On ch=1 n=a7 v=82
178230 On ch=1 n=c#5 v=37
178235 On ch=1 n=e7 v=59
178240 On ch=1 n=e4 v=41
178250 On ch=1 n=e4 v=0
178270 On ch=1 n=c#5 v=0
178270 On ch=1 n=a7 v=0
178280 On ch=1 n=e7 v=0
178315 On ch=1 n=g7 v=73
178320 On ch=1 n=a#6 v=59
178340 On ch=1 n=g7 v=0
178345 On ch=1 n=a#6 v=0
178395 On ch=1 n=f#7 v=74
178405 On ch=1 n=c#7 v=64
178405 On ch=1 n=e5 v=49
178410 On ch=1 n=g4 v=50
178410 Par ch=1 c=64 v=56
178415 Par ch=1 c=64 v=0
178445 Par ch=1 c=64 v=24
178450 Par ch=1 c=64 v=72
178455 On ch=1 n=f#7 v=0
178455 Par ch=1 c=64 v=127
178465 On ch=1 n=c#7 v=0
178470 On ch=1 n=e5 v=0
178475 On ch=1 n=e7 v=80
178480 On ch=1 n=g6 v=66
178500 On ch=1 n=g4 v=0
178515 On ch=1 n=g6 v=0
178535 On ch=1 n=e7 v=0
178560 On ch=1 n=f#7 v=69
178565 On ch=1 n=g5 v=57
178565 On ch=1 n=a#4 v=42
178570 On ch=1 n=c#7 v=38
178595 On ch=1 n=a#4 v=0
178605 On ch=1 n=g5 v=0
178610 On ch=1 n=f#7 v=0
178615 On ch=1 n=c#7 v=0
178640 On ch=1 n=e7 v=74
178650 On ch=1 n=g6 v=55
178665 On ch=1 n=e7 v=0
178680 On ch=1 n=g6 v=0
178725 On ch=1 n=d#7 v=71
178730 On ch=1 n=a#5 v=37
178735 On ch=1 n=g6 v=58
178735 On ch=1 n=c#5 v=34
178735 Par ch=1 c=64 v=104
178745 Par ch=1 c=64 v=56
178750 Par ch=1 c=64 v=0
178770 Par ch=1 c=64 v=24
178775 On ch=1 n=g6 v=0
178780 On ch=1 n=d#7 v=0
178780 Par ch=1 c=64 v=72
178785 Par ch=1 c=64 v=127
178810 On ch=1 n=c#7 v=70
178815 On ch=1 n=e6 v=70
178820 On ch=1 n=a#5 v=0
178840 On ch=1 n=e6 v=0
178845 On ch=1 n=c#5 v=0
178865 On ch=1 n=c#7 v=0
178890 On ch=1 n=d#7 v=64
178900 On ch=1 n=c#6 v=37
178900 On ch=1 n=g6 v=51
178905 On ch=1 n=e5 v=35
178920 On ch=1 n=e5 v=0
178935 On ch=1 n=g6 v=0
178940 On ch=1 n=d#7 v=0
178955 On ch=1 n=c#6 v=0
178975 On ch=1 n=c#7 v=68
178980 On ch=1 n=e6 v=66
178995 On ch=1 n=e6 v=0
179010 On ch=1 n=c#7 v=0
179055 Par ch=1 c=64 v=56
179060 On ch=1 n=c7 v=72
179060 Par ch=1 c=64 v=0
179065 On ch=1 n=e6 v=67
179070 On ch=1 n=g6 v=52
179085 Par ch=1 c=64 v=72
179090 Par ch=1 c=64 v=127
179105 On ch=1 n=g6 v=0
179105 On ch=1 n=e6 v=0
179110 On ch=1 n=c7 v=0
179150 On ch=1 n=c#6 v=50
179155 On ch=1 n=a6 v=68
179190 On ch=1 n=c#6 v=0
179225 On ch=1 n=c7 v=70
179230 On ch=1 n=e5 v=51
179240 On ch=1 n=g6 v=50
179265 On ch=1 n=e5 v=0
179265 On ch=1 n=c7 v=0
179280 On ch=1 n=g6 v=0
179310 On ch=1 n=a#6 v=60
179310 On ch=1 n=c#6 v=60
179335 On ch=1 n=a#6 v=0
179340 On ch=1 n=c#6 v=0
179395 On ch=1 n=a6 v=74
179400 On ch=1 n=c#6 v=44
179400 On ch=1 n=e6 v=63
179400 Par ch=1 c=64 v=72
179405 Par ch=1 c=64 v=24
179410 Par ch=1 c=64 v=0
179430 Par ch=1 c=64 v=88
179435 Par ch=1 c=64 v=127
179440 On ch=1 n=c#6 v=0
179450 On ch=1 n=a6 v=0
179455 On ch=1 n=e6 v=0
179485 On ch=1 n=f#6 v=64
179490 On ch=1 n=a#5 v=38
179530 On ch=1 n=a#5 v=0
179535 On ch=1 n=f#6 v=0
179570 On ch=1 n=c#5 v=45
179570 On ch=1 n=a6 v=65
179580 On ch=1 n=e6 v=53
179610 On ch=1 n=a6 v=0
179620 On ch=1 n=e6 v=0
179630 On ch=1 n=a6 v=0
179650 On ch=1 n=g6 v=64
179660 On ch=1 n=a#5 v=32
179670 On ch=1 n=a#5 v=0
179670 On ch=1 n=g6 v=0
179735 Par ch=1 c=64 v=104
179740 On ch=1 n=a#5 v=44
179740 Par ch=1 c=64 v=56
179745 On ch=1 n=c#6 v=42
179745 On ch=1 n=f6 v=54
179745 Par ch=1 c=64 v=0
179750 On ch=1 n=g6 v=47
179755 On ch=1 n=c#5 v=0
179760 On ch=1 n=g6 v=0
179765 Par ch=1 c=64 v=40
179770 Par ch=1 c=64 v=72
179775 Par ch=1 c=64 v=127
179785 On ch=1 n=f6 v=0
179790 On ch=1 n=c#6 v=0
179790 On ch=1 n=a#5 v=0
179825 On ch=1 n=d#6 v=71
179825 On ch=1 n=g5 v=58
179855 On ch=1 n=g5 v=0
179865 On ch=1 n=d#6 v=0
179915 On ch=1 n=f6 v=70
179920 On ch=1 n=a#5 v=55
179935 On ch=1 n=g4 v=32
179960 On ch=1 n=f6 v=0
179965 On ch=1 n=a#5 v=0
179980 On ch=1 n=g4 v=0
180000 On ch=1 n=e6 v=76
180005 On ch=1 n=g5 v=57
180020 On ch=1 n=g5 v=0
180055 On ch=1 n=e6 v=0
180105 On ch=1 n=f4 v=35
180115 On ch=1 n=g6 v=79
180120 On ch=1 n=a#5 v=30
180125 On ch=1 n=d6 v=64
180145 On ch=1 n=d5 v=29
180145 Par ch=1 c=64 v=104
180150 Par ch=1 c=64 v=72
180160 Par ch=1 c=64 v=40
180165 Par ch=1 c=64 v=0
180195 On ch=1 n=g6 v=0
180200 Par ch=1 c=64 v=24
180205 On ch=1 n=a#5 v=0
180205 Par ch=1 c=64 v=88
180210 On ch=1 n=d6 v=0
180210 Par ch=1 c=64 v=127
180215 On ch=1 n=f5 v=49
180295 On ch=1 n=a#5 v=59
180380 On ch=1 n=a#5 v=0
180380 On ch=1 n=f4 v=0
180380 On ch=1 n=f6 v=81
180425 On ch=1 n=f6 v=0
180445 On ch=1 n=f5 v=0
180460 On ch=1 n=d5 v=0
180475 On ch=1 n=d6 v=74
180480 On ch=1 n=g#5 v=43
180480 On ch=1 n=b4 v=40
180490 On ch=1 n=f4 v=34
180505 Par ch=1 c=64 v=88
180510 Par ch=1 c=64 v=56
180515 Par ch=1 c=64 v=24
180520 On ch=1 n=g#5 v=0
180520 Par ch=1 c=64 v=0
180565 On ch=1 n=f5 v=53
180565 Par ch=1 c=64 v=24
180570 Par ch=1 c=64 v=88
180575 Par ch=1 c=64 v=127
180615 On ch=1 n=d6 v=0
180650 On ch=1 n=g#5 v=49
180695 On ch=1 n=f5 v=0
180725 On ch=1 n=g#5 v=0
180735 On ch=1 n=d#6 v=77
180785 On ch=1 n=d#6 v=0
180815 On ch=1 n=b4 v=0
180830 On ch=1 n=d6 v=68
180835 On ch=1 n=a#5 v=51
180840 On ch=1 n=e5 v=44
180840 On ch=1 n=c5 v=49
180855 Par ch=1 c=64 v=88
180860 Par ch=1 c=64 v=56
180870 Par ch=1 c=64 v=24
180875 Par ch=1 c=64 v=0
180880 On ch=1 n=e5 v=0
180880 On ch=1 n=a#5 v=0
180925 On ch=1 n=g5 v=46
180925 Par ch=1 c=64 v=72
180930 Par ch=1 c=64 v=127
180965 On ch=1 n=d6 v=0
181015 On ch=1 n=e5 v=39
181040 On ch=1 n=c5 v=0
181055 On ch=1 n=f4 v=0
181090 On ch=1 n=g5 v=0
181095 On ch=1 n=c6 v=77
181115 On ch=1 n=c6 v=0
181135 On ch=1 n=e5 v=0
181190 On ch=1 n=g5 v=63
181190 Par ch=1 c=64 v=104
181195 Par ch=1 c=64 v=56
181200 On ch=1 n=d#5 v=29
181205 Par ch=1 c=64 v=0
181245 Par ch=1 c=64 v=40
181250 Par ch=1 c=64 v=88
181255 Par ch=1 c=64 v=127
181260 On ch=1 n=d#5 v=0
181275 On ch=1 n=c5 v=49
181330 Par ch=1 c=64 v=104
181335 Par ch=1 c=64 v=88
181340 Par ch=1 c=64 v=72
181345 Par ch=1 c=64 v=56
181350 On ch=1 n=g5 v=0
181350 On ch=1 n=d#5 v=44
181355 Par ch=1 c=64 v=40
181360 Par ch=1 c=64 v=0
181440 On ch=1 n=a5 v=61
181455 On ch=1 n=d#5 v=0
181460 On ch=1 n=c5 v=0
181545 Par ch=1 c=64 v=104
181550 Par ch=1 c=64 v=88
181560 Par ch=1 c=64 v=72
181565 On ch=1 n=g6 v=74
181565 On ch=1 n=a#5 v=30
181565 Par ch=1 c=64 v=56
181575 On ch=1 n=a5 v=0
181575 On ch=1 n=d6 v=60
181575 On ch=1 n=f4 v=41
181575 Par ch=1 c=64 v=0
181645 On ch=1 n=g6 v=0
181655 Par ch=1 c=64 v=40
181660 On ch=1 n=a#5 v=0
181660 Par ch=1 c=64 v=104
181665 On ch=1 n=d6 v=0
181670 Par ch=1 c=64 v=127
181675 On ch=1 n=f5 v=45
181740 On ch=1 n=f4 v=0
181755 On ch=1 n=a#5 v=59
181840 On ch=1 n=a#5 v=0
181840 On ch=1 n=f6 v=73
181880 On ch=1 n=f6 v=0
181895 On ch=1 n=f5 v=0
181930 On ch=1 n=d6 v=63
181940 On ch=1 n=f4 v=34
181940 On ch=1 n=b4 v=35
181945 On ch=1 n=g#5 v=33
181945 Par ch=1 c=64 v=104
181950 Par ch=1 c=64 v=88
181960 Par ch=1 c=64 v=72
181965 Par ch=1 c=64 v=56
181975 Par ch=1 c=64 v=24
181980 Par ch=1 c=64 v=0
182005 On ch=1 n=g#5 v=0
182030 On ch=1 n=f5 v=51
182040 Par ch=1 c=64 v=72
182045 Par ch=1 c=64 v=127
182070 On ch=1 n=d6 v=0
182105 On ch=1 n=g#5 v=53
182170 On ch=1 n=f5 v=0
182180 On ch=1 n=g#5 v=0
182195 On ch=1 n=d#6 v=67
182245 On ch=1 n=d#6 v=0
182300 On ch=1 n=b4 v=0
182300 On ch=1 n=d6 v=62
182305 On ch=1 n=e5 v=38
182305 On ch=1 n=a#5 v=38
182315 On ch=1 n=c5 v=36
182330 Par ch=1 c=64 v=104
182335 Par ch=1 c=64 v=72
182345 Par ch=1 c=64 v=40
182350 Par ch=1 c=64 v=0
182375 On ch=1 n=a#5 v=0
182375 On ch=1 n=e5 v=0
182400 On ch=1 n=g5 v=43
182400 Par ch=1 c=64 v=40
182410 Par ch=1 c=64 v=104
182415 Par ch=1 c=64 v=127
182435 On ch=1 n=d6 v=0
182490 On ch=1 n=e5 v=41
182495 On ch=1 n=c5 v=0
182510 On ch=1 n=f4 v=0
182575 On ch=1 n=g5 v=0
182575 On ch=1 n=c6 v=66
182600 On ch=1 n=c6 v=0
182600 On ch=1 n=e5 v=0
182670 On ch=1 n=g5 v=62
182670 On ch=1 n=d#5 v=38
182675 On ch=1 n=e3 v=40
182680 Par ch=1 c=64 v=88
182685 Par ch=1 c=64 v=24
182695 Par ch=1 c=64 v=0
182735 On ch=1 n=e3 v=0
182735 On ch=1 n=d#5 v=0
182735 Par ch=1 c=64 v=88
182745 Par ch=1 c=64 v=127
182750 On ch=1 n=f3 v=45
182760 On ch=1 n=g5 v=0
182765 On ch=1 n=c5 v=53
182800 On ch=1 n=f3 v=0
182845 On ch=1 n=e3 v=39
182845 On ch=1 n=d#5 v=51
182905 On ch=1 n=e3 v=0
182920 On ch=1 n=c5 v=0
182925 On ch=1 n=a5 v=73
182930 On ch=1 n=d#5 v=0
182930 On ch=1 n=f3 v=43
182955 On ch=1 n=a5 v=0
183040 On ch=1 n=c6 v=63
183040 On ch=1 n=d5 v=52
183045 On ch=1 n=f4 v=48
183050 Par ch=1 c=64 v=104
183055 Par ch=1 c=64 v=88
183065 Par ch=1 c=64 v=56
183070 Par ch=1 c=64 v=40
183075 Par ch=1 c=64 v=0
183110 On ch=1 n=d5 v=0
183130 On ch=1 n=f5 v=52
183140 Par ch=1 c=64 v=40
183150 Par ch=1 c=64 v=88
183155 Par ch=1 c=64 v=127
183230 On ch=1 n=d5 v=44
183235 On ch=1 n=c6 v=0
183250 On ch=1 n=f5 v=0
183310 On ch=1 n=a#5 v=60
183320 On ch=1 n=d5 v=0
183335 On ch=1 n=a#5 v=0
183345 On ch=1 n=f4 v=0
183345 On ch=1 n=f3 v=0
183415 On ch=1 n=g5 v=70
183420 On ch=1 n=d4 v=50
183420 On ch=1 n=g#4 v=38
183425 On ch=1 n=f3 v=39
183425 On ch=1 n=b3 v=42
183460 Par ch=1 c=64 v=72
183470 Par ch=1 c=64 v=24
183475 Par ch=1 c=64 v=0
183515 On ch=1 n=g#4 v=0
183520 On ch=1 n=d5 v=53
183520 Par ch=1 c=64 v=40
183530 Par ch=1 c=64 v=88
183535 Par ch=1 c=64 v=127
183565 On ch=1 n=d5 v=0
183605 On ch=1 n=g#4 v=40
183660 On ch=1 n=g5 v=0
183670 On ch=1 n=d4 v=0
183690 On ch=1 n=b3 v=0
183695 On ch=1 n=f5 v=62
183700 On ch=1 n=g#4 v=0
183700 On ch=1 n=d5 v=47
183715 On ch=1 n=d5 v=0
183730 On ch=1 n=f5 v=0
183795 On ch=1 n=f5 v=58
183800 On ch=1 n=d#4 v=39
183800 On ch=1 n=g4 v=53
183810 On ch=1 n=c4 v=48
183820 Par ch=1 c=64 v=104
183825 Par ch=1 c=64 v=72
183835 Par ch=1 c=64 v=40
183840 Par ch=1 c=64 v=0
183870 On ch=1 n=g4 v=0
183895 On ch=1 n=c5 v=47
183905 Par ch=1 c=64 v=72
183915 Par ch=1 c=64 v=127
183965 On ch=1 n=c5 v=0
183980 On ch=1 n=g4 v=52
184015 On ch=1 n=f5 v=0
184060 On ch=1 n=c4 v=0
184060 On ch=1 n=d#5 v=59
184065 On ch=1 n=c5 v=52
184070 On ch=1 n=g4 v=0
184085 On ch=1 n=f3 v=0
184095 On ch=1 n=c5 v=0
184100 On ch=1 n=d#5 v=0
184105 On ch=1 n=d#4 v=0
184180 On ch=1 n=c5 v=56
184185 On ch=1 n=f#3 v=45
184190 Par ch=1 c=64 v=72
184195 On ch=1 n=d#4 v=40
184195 Par ch=1 c=64 v=0
184240 Par ch=1 c=64 v=40
184245 Par ch=1 c=64 v=104
184255 On ch=1 n=d#4 v=0
184255 Par ch=1 c=64 v=127
184260 On ch=1 n=f#3 v=0
184270 On ch=1 n=f3 v=46
184275 Par ch=1 c=64 v=56
184280 On ch=1 n=a4 v=42
184285 Par ch=1 c=64 v=0
184320 Par ch=1 c=64 v=40
184325 Par ch=1 c=64 v=72
184330 On ch=1 n=a4 v=0
184350 On ch=1 n=f3 v=0
184350 On ch=1 n=d#4 v=45
184350 Par ch=1 c=64 v=0
184355 On ch=1 n=f#3 v=38
184370 Par ch=1 c=64 v=56
184380 Par ch=1 c=64 v=104
184385 Par ch=1 c=64 v=127
184420 On ch=1 n=c5 v=0
184425 On ch=1 n=d#4 v=0
184450 On ch=1 n=f#3 v=0
184450 On ch=1 n=a4 v=39
184450 On ch=1 n=d5 v=56
184455 On ch=1 n=f3 v=42
184470 On ch=1 n=a4 v=0
184475 On ch=1 n=f3 v=0
184485 On ch=1 n=d5 v=0
184565 On ch=1 n=a#4 v=55
184570 On ch=1 n=d4 v=44
184585 On ch=1 n=a#2 v=51
184610 Par ch=1 c=64 v=104
184615 Par ch=1 c=64 v=72
184625 Par ch=1 c=64 v=40
184630 Par ch=1 c=64 v=0
184750 On ch=1 n=d6 v=68
184760 On ch=1 n=d5 v=32
184765 On ch=1 n=f5 v=41
184765 On ch=1 n=a#4 v=32
184770 On ch=1 n=d4 v=44
184775 On ch=1 n=f4 v=35
184785 On ch=1 n=f5 v=0
184785 On ch=1 n=d4 v=0
184790 On ch=1 n=f4 v=0
184790 On ch=1 n=d5 v=0
184790 On ch=1 n=d6 v=0
184790 On ch=1 n=a#4 v=0
184835 On ch=1 n=d4 v=0
184875 On ch=1 n=a#4 v=0
184925 On ch=1 n=a#2 v=0
184935 On ch=1 n=c6 v=63
184945 On ch=1 n=f5 v=47
184945 On ch=1 n=d5 v=37
184950 On ch=1 n=a#4 v=28
184955 On ch=1 n=d4 v=33
184955 On ch=1 n=f4 v=34
184965 On ch=1 n=d5 v=0
184965 On ch=1 n=f5 v=0
184970 On ch=1 n=c6 v=0
184975 On ch=1 n=f4 v=0
184975 On ch=1 n=d4 v=0
184980 On ch=1 n=a#4 v=0
185110 On ch=1 n=b5 v=56
185120 On ch=1 n=f5 v=39
185120 On ch=1 n=d5 v=33
185130 On ch=1 n=f4 v=35
185130 On ch=1 n=a#4 v=20
185140 On ch=1 n=f5 v=0
185145 On ch=1 n=d5 v=0
185150 On ch=1 n=f4 v=0
185150 On ch=1 n=b5 v=0
185155 On ch=1 n=a#4 v=0
185280 On ch=1 n=a#5 v=52
185280 On ch=1 n=f5 v=41
185280 On ch=1 n=d5 v=35
185285 On ch=1 n=a#4 v=29
185290 On ch=1 n=d4 v=34
185295 On ch=1 n=f4 v=38
185310 On ch=1 n=f4 v=0
185310 On ch=1 n=f5 v=0
185315 On ch=1 n=d4 v=0
185315 On ch=1 n=d5 v=0
185320 On ch=1 n=a#4 v=0
185325 On ch=1 n=a#5 v=0
185435 On ch=1 n=d6 v=66
185440 On ch=1 n=f5 v=42
185445 On ch=1 n=d4 v=42
185445 On ch=1 n=d5 v=33
185445 On ch=1 n=a#4 v=30
185445 On ch=1 n=f4 v=39
185465 On ch=1 n=f4 v=0
185470 On ch=1 n=d4 v=0
185475 On ch=1 n=a#4 v=0
185475 On ch=1 n=d6 v=0
185485 On ch=1 n=d5 v=0
185485 On ch=1 n=f5 v=0
185610 On ch=1 n=d4 v=25
185615 On ch=1 n=c6 v=62
185615 On ch=1 n=a#4 v=14
185615 On ch=1 n=f4 v=31
185620 On ch=1 n=d5 v=41
185620 On ch=1 n=f5 v=34
185660 Par ch=1 c=64 v=40
185665 Par ch=1 c=64 v=72
185675 Par ch=1 c=64 v=88
185680 Par ch=1 c=64 v=104
185690 Par ch=1 c=64 v=127
185695 On ch=1 n=c6 v=0
185695 On ch=1 n=b5 v=65
185705 On ch=1 n=f5 v=0
185730 Par ch=1 c=64 v=88
185740 Par ch=1 c=64 v=56
185745 Par ch=1 c=64 v=24
185750 Par ch=1 c=64 v=0
185765 Par ch=1 c=64 v=40
185775 On ch=1 n=b5 v=0
185775 On ch=1 n=a#5 v=56
185775 Par ch=1 c=64 v=56
185780 Par ch=1 c=64 v=88
185785 Par ch=1 c=64 v=127
185815 On ch=1 n=d5 v=0
185815 On ch=1 n=f4 v=0
185815 On ch=1 n=a#4 v=0
185825 On ch=1 n=d4 v=0
185835 On ch=1 n=a#5 v=0
185950 Par ch=1 c=64 v=104
185955 On ch=1 n=g#2 v=59
185955 Par ch=1 c=64 v=56
185965 Par ch=1 c=64 v=24
185970 Par ch=1 c=64 v=0
186025 On ch=1 n=g#2 v=0
186140 On ch=1 n=f6 v=70
186145 On ch=1 n=a#5 v=49
186145 On ch=1 n=f5 v=49
186145 On ch=1 n=a#4 v=32
186150 On ch=1 n=d5 v=44
186155 On ch=1 n=f4 v=39
186175 On ch=1 n=f4 v=0
186180 On ch=1 n=f6 v=0
186185 On ch=1 n=d5 v=0
186185 On ch=1 n=a#4 v=0
186185 On ch=1 n=f5 v=0
186190 On ch=1 n=a#5 v=0
186315 On ch=1 n=e6 v=62
186320 On ch=1 n=a#5 v=47
186320 On ch=1 n=f4 v=47
186320 On ch=1 n=a#4 v=28
186320 On ch=1 n=f5 v=44
186320 On ch=1 n=d5 v=38
186350 On ch=1 n=f4 v=0
186355 On ch=1 n=d5 v=0
186355 On ch=1 n=a#4 v=0
186360 On ch=1 n=f5 v=0
186360 On ch=1 n=a#5 v=0
186370 On ch=1 n=e6 v=0
186480 On ch=1 n=d#6 v=57
186485 On ch=1 n=a#5 v=35
186485 On ch=1 n=f5 v=39
186490 On ch=1 n=f4 v=34
186490 On ch=1 n=d5 v=28
186495 On ch=1 n=a#4 v=22
186525 On ch=1 n=a#4 v=0
186525 On ch=1 n=d5 v=0
186525 On ch=1 n=f4 v=0
186530 On ch=1 n=f5 v=0
186530 On ch=1 n=a#5 v=0
186535 On ch=1 n=d#6 v=0
186650 On ch=1 n=d6 v=67
186650 On ch=1 n=f5 v=48
186650 On ch=1 n=a#5 v=38
186650 On ch=1 n=a#4 v=28
186655 On ch=1 n=f4 v=47
186655 On ch=1 n=d5 v=43
186685 On ch=1 n=d5 v=0
186685 On ch=1 n=f4 v=0
186685 On ch=1 n=a#4 v=0
186685 On ch=1 n=f5 v=0
186690 On ch=1 n=a#5 v=0
186695 On ch=1 n=d6 v=0
186815 On ch=1 n=f6 v=74
186820 On ch=1 n=f4 v=46
186820 On ch=1 n=f5 v=47
186825 On ch=1 n=d5 v=39
186825 On ch=1 n=a#4 v=29
186825 On ch=1 n=a#5 v=53
186850 On ch=1 n=f4 v=0
186855 On ch=1 n=d5 v=0
186860 On ch=1 n=a#4 v=0
186860 On ch=1 n=f6 v=0
186865 On ch=1 n=f5 v=0
186880 On ch=1 n=a#5 v=0
186980 On ch=1 n=d5 v=42
186980 On ch=1 n=e6 v=68
186985 On ch=1 n=a#4 v=27
186985 On ch=1 n=f5 v=48
186985 On ch=1 n=a#5 v=42
186990 On ch=1 n=f4 v=34
186990 Par ch=1 c=64 v=56
186995 Par ch=1 c=64 v=88
187000 Par ch=1 c=64 v=127
187045 On ch=1 n=e6 v=0
187065 On ch=1 n=d#6 v=65
187115 On ch=1 n=a#5 v=0
187125 On ch=1 n=d#6 v=0
187130 Par ch=1 c=64 v=72
187135 Par ch=1 c=64 v=40
187145 On ch=1 n=d6 v=66
187145 Par ch=1 c=64 v=0
187165 On ch=1 n=d5 v=0
187165 Par ch=1 c=64 v=56
187170 On ch=1 n=f5 v=0
187170 Par ch=1 c=64 v=104
187175 On ch=1 n=f4 v=0
187175 On ch=1 n=a#4 v=0
187180 Par ch=1 c=64 v=127
187195 On ch=1 n=d6 v=0
187285 Par ch=1 c=64 v=72
187295 Par ch=1 c=64 v=24
187300 Par ch=1 c=64 v=0
187320 On ch=1 n=f#2 v=58
187340 Par ch=1 c=64 v=40
187350 On ch=1 n=f#2 v=0
187350 Par ch=1 c=64 v=104
187355 Par ch=1 c=64 v=127
187500 On ch=1 n=a#6 v=68
187500 Par ch=1 c=64 v=88
187505 On ch=1 n=a#5 v=46
187505 Par ch=1 c=64 v=56
187510 On ch=1 n=c#6 v=57
187515 On ch=1 n=f#4 v=39
187515 On ch=1 n=e5 v=47
187515 On ch=1 n=c#5 v=33
187515 Par ch=1 c=64 v=40
187520 Par ch=1 c=64 v=24
187525 Par ch=1 c=64 v=0
187535 On ch=1 n=c#5 v=0
187535 On ch=1 n=e5 v=0
187535 On ch=1 n=f#4 v=0
187540 On ch=1 n=a#5 v=0
187545 On ch=1 n=c#6 v=0
187550 On ch=1 n=a#6 v=0
187640 Par ch=1 c=64 v=56
187650 Par ch=1 c=64 v=88
187655 Par ch=1 c=64 v=127
187660 On ch=1 n=g#6 v=71
187665 On ch=1 n=c#6 v=56
187670 On ch=1 n=f#4 v=44
187670 On ch=1 n=a#5 v=38
187670 On ch=1 n=e5 v=42
187675 On ch=1 n=c#5 v=36
187690 On ch=1 n=c#5 v=0
187695 On ch=1 n=e5 v=0
187695 On ch=1 n=a#5 v=0
187695 On ch=1 n=f#4 v=0
187700 Par ch=1 c=64 v=104
187705 On ch=1 n=c#6 v=0
187705 On ch=1 n=g#6 v=0
187705 Par ch=1 c=64 v=72
187710 Par ch=1 c=64 v=56
187720 Par ch=1 c=64 v=24
187725 Par ch=1 c=64 v=0
187825 On ch=1 n=g6 v=66
187830 On ch=1 n=a#5 v=36
187830 On ch=1 n=f#4 v=40
187830 On ch=1 n=e5 v=41
187830 On ch=1 n=c#5 v=36
187835 On ch=1 n=c#6 v=39
187850 On ch=1 n=c#6 v=0
187860 On ch=1 n=c#5 v=0
187860 On ch=1 n=e5 v=0
187860 On ch=1 n=a#5 v=0
187865 On ch=1 n=f#4 v=0
187875 On ch=1 n=g6 v=0
187985 On ch=1 n=f#6 v=62
187995 On ch=1 n=a#5 v=29
187995 On ch=1 n=c#6 v=39
187995 On ch=1 n=f#4 v=38
187995 On ch=1 n=e5 v=38
187995 On ch=1 n=c#5 v=34
188025 On ch=1 n=c#5 v=0
188025 On ch=1 n=e5 v=0
188025 On ch=1 n=f#4 v=0
188030 On ch=1 n=c#6 v=0
188035 On ch=1 n=a#5 v=0
188035 On ch=1 n=f#6 v=0
188140 On ch=1 n=a#6 v=67
188150 On ch=1 n=a#5 v=33
188155 On ch=1 n=c#6 v=34
188155 On ch=1 n=f#4 v=43
188160 On ch=1 n=e5 v=42
188160 On ch=1 n=c#5 v=33
188180 On ch=1 n=c#5 v=0
188180 On ch=1 n=e5 v=0
188185 On ch=1 n=f#4 v=0
188185 On ch=1 n=c#6 v=0
188195 On ch=1 n=a#5 v=0
188200 On ch=1 n=a#6 v=0
188295 On ch=1 n=g#6 v=65
188295 Par ch=1 c=64 v=40
188300 Par ch=1 c=64 v=88
188310 On ch=1 n=f#4 v=37
188310 On ch=1 n=a#5 v=30
188310 On ch=1 n=e5 v=34
188310 Par ch=1 c=64 v=127
188315 On ch=1 n=c#5 v=29
188320 On ch=1 n=c#6 v=25
188365 On ch=1 n=g#6 v=0
188370 On ch=1 n=c#6 v=0
188380 On ch=1 n=g6 v=65
188415 On ch=1 n=e5 v=0
188440 On ch=1 n=c#5 v=0
188460 On ch=1 n=g6 v=0
188465 On ch=1 n=f#4 v=0
188475 On ch=1 n=f#6 v=63
188495 On ch=1 n=a#5 v=0
188500 On ch=1 n=f#6 v=0
188635 Par ch=1 c=64 v=72
188640 Par ch=1 c=64 v=24
188650 On ch=1 n=f2 v=55
188650 Par ch=1 c=64 v=0
188665 On ch=1 n=f2 v=0
188675 Par ch=1 c=64 v=56
188685 Par ch=1 c=64 v=104
188690 Par ch=1 c=64 v=127
188755 Par ch=1 c=64 v=88
188820 Par ch=1 c=64 v=72
188825 On ch=1 n=f#6 v=65
188825 Par ch=1 c=64 v=56
188835 On ch=1 n=f#5 v=32
188835 Par ch=1 c=64 v=40
188840 On ch=1 n=c6 v=49
188840 On ch=1 n=d#5 v=32
188840 On ch=1 n=a5 v=39
188845 On ch=1 n=a4 v=30
188845 Par ch=1 c=64 v=24
188855 Par ch=1 c=64 v=0
188860 On ch=1 n=c6 v=0
188865 On ch=1 n=a4 v=0
188865 On ch=1 n=a5 v=0
188865 On ch=1 n=d#5 v=0
188870 On ch=1 n=f#5 v=0
188875 On ch=1 n=f#6 v=0
188990 On ch=1 n=f6 v=66
189000 On ch=1 n=c6 v=53
189000 On ch=1 n=f5 v=41
189000 On ch=1 n=a5 v=41
189000 On ch=1 n=a4 v=37
189000 On ch=1 n=d#5 v=37
189025 On ch=1 n=c6 v=0
189030 On ch=1 n=a4 v=0
189035 On ch=1 n=f5 v=0
189040 On ch=1 n=d#5 v=0
189040 On ch=1 n=a5 v=0
189045 On ch=1 n=f6 v=0
189155 On ch=1 n=e6 v=66
189165 On ch=1 n=f5 v=34
189170 On ch=1 n=a5 v=35
189170 On ch=1 n=d#5 v=26
189170 On ch=1 n=a4 v=31
189170 On ch=1 n=c6 v=35
189200 On ch=1 n=a4 v=0
189210 On ch=1 n=c6 v=0
189210 On ch=1 n=d#5 v=0
189210 On ch=1 n=f5 v=0
189220 On ch=1 n=a5 v=0
189235 On ch=1 n=e6 v=0
189320 On ch=1 n=d#6 v=63
189330 On ch=1 n=d#5 v=32
189330 On ch=1 n=a4 v=42
189335 On ch=1 n=f5 v=38
189340 On ch=1 n=c6 v=44
189340 On ch=1 n=a5 v=37
189360 On ch=1 n=c6 v=0
189365 On ch=1 n=a5 v=0
189370 On ch=1 n=a4 v=0
189375 On ch=1 n=f5 v=0
189375 On ch=1 n=d#5 v=0
189380 On ch=1 n=d#6 v=0
189490 On ch=1 n=c6 v=68
189500 On ch=1 n=c5 v=51
189500 On ch=1 n=a5 v=44
189500 On ch=1 n=f5 v=39
189515 On ch=1 n=d#5 v=28
189530 On ch=1 n=d#5 v=0
189530 On ch=1 n=a5 v=0
189535 On ch=1 n=c5 v=0
189540 On ch=1 n=f5 v=0
189550 On ch=1 n=c6 v=0
189645 Par ch=1 c=64 v=40
189650 Par ch=1 c=64 v=72
189655 Par ch=1 c=64 v=127
189670 On ch=1 n=g6 v=63
189670 On ch=1 n=c6 v=53
189675 On ch=1 n=d#5 v=25
189675 On ch=1 n=f5 v=34
189675 On ch=1 n=a5 v=36
189735 On ch=1 n=g6 v=0
189740 On ch=1 n=c6 v=0
189745 On ch=1 n=f#6 v=65
189785 On ch=1 n=a5 v=0
189790 On ch=1 n=f5 v=0
189805 On ch=1 n=d#5 v=0
189815 On ch=1 n=f#6 v=0
189840 On ch=1 n=f6 v=56
189860 On ch=1 n=f6 v=0
189940 Par ch=1 c=64 v=104
189950 Par ch=1 c=64 v=88
189955 Par ch=1 c=64 v=72
189965 Par ch=1 c=64 v=40
189970 Par ch=1 c=64 v=24
189975 Par ch=1 c=64 v=0
190010 On ch=1 n=a#2 v=45
190025 Par ch=1 c=64 v=24
190035 Par ch=1 c=64 v=56
190040 Par ch=1 c=64 v=104
190045 On ch=1 n=a#2 v=0
190050 Par ch=1 c=64 v=127
190170 Par ch=1 c=64 v=104
190175 Par ch=1 c=64 v=72
190180 Par ch=1 c=64 v=56
190195 On ch=1 n=d5 v=49
190195 On ch=1 n=a#4 v=42
190195 On ch=1 n=d6 v=58
190195 On ch=1 n=f5 v=43
190210 Par ch=1 c=64 v=72
190220 Par ch=1 c=64 v=88
190225 On ch=1 n=f5 v=0
190225 Par ch=1 c=64 v=104
190235 On ch=1 n=d6 v=0
190235 On ch=1 n=a#4 v=0
190235 Par ch=1 c=64 v=127
190245 On ch=1 n=d5 v=0
190270 On ch=1 n=f#5 v=57
190315 On ch=1 n=f#5 v=0
190325 Par ch=1 c=64 v=104
190330 Par ch=1 c=64 v=88
190340 Par ch=1 c=64 v=40
190345 Par ch=1 c=64 v=24
190355 On ch=1 n=d5 v=46
190355 On ch=1 n=f5 v=46
190355 Par ch=1 c=64 v=0
190360 On ch=1 n=c6 v=62
190365 On ch=1 n=f4 v=38
190385 On ch=1 n=f4 v=0
190400 On ch=1 n=f5 v=0
190400 On ch=1 n=d5 v=0
190405 On ch=1 n=c6 v=0
190445 On ch=1 n=g5 v=50
190485 On ch=1 n=g5 v=0
190520 On ch=1 n=a#5 v=55
190520 On ch=1 n=f5 v=46
190520 On ch=1 n=d5 v=50
190525 On ch=1 n=a#4 v=37
190555 On ch=1 n=a#4 v=0
190555 On ch=1 n=f5 v=0
190575 On ch=1 n=d5 v=0
190575 On ch=1 n=a#5 v=0
190600 On ch=1 n=f#5 v=57
190640 On ch=1 n=f#5 v=0
190680 On ch=1 n=a#5 v=58
190680 On ch=1 n=d5 v=51
190685 On ch=1 n=f5 v=47
190690 On ch=1 n=f4 v=42
190710 On ch=1 n=f4 v=0
190725 On ch=1 n=f5 v=0
190730 On ch=1 n=a#5 v=0
190735 On ch=1 n=d5 v=0
190765 On ch=1 n=g5 v=58
190810 On ch=1 n=g5 v=0
190855 On ch=1 n=d6 v=59
190855 On ch=1 n=d5 v=43
190860 On ch=1 n=a#4 v=37
190865 On ch=1 n=f5 v=36
190895 On ch=1 n=f5 v=0
190900 On ch=1 n=a#4 v=0
190910 On ch=1 n=d6 v=0
190925 On ch=1 n=d5 v=0
190930 On ch=1 n=f#5 v=47
190975 On ch=1 n=f#5 v=0
191030 On ch=1 n=c6 v=55
191030 On ch=1 n=f5 v=28
191035 On ch=1 n=d5 v=33
191040 On ch=1 n=f4 v=17
191080 Par ch=1 c=64 v=24
191085 On ch=1 n=c6 v=0
191085 Par ch=1 c=64 v=40
191090 Par ch=1 c=64 v=56
191100 Par ch=1 c=64 v=72
191105 Par ch=1 c=64 v=88
191110 On ch=1 n=b5 v=55
191125 Par ch=1 c=64 v=104
191130 On ch=1 n=f5 v=0
191155 On ch=1 n=f4 v=0
191170 On ch=1 n=b5 v=0
191170 Par ch=1 c=64 v=127
191185 On ch=1 n=d5 v=0
191195 On ch=1 n=a#5 v=46
191225 On ch=1 n=a#5 v=0
191285 Par ch=1 c=64 v=104
191290 Par ch=1 c=64 v=88
191300 Par ch=1 c=64 v=56
191305 Par ch=1 c=64 v=40
191310 Par ch=1 c=64 v=0
191345 On ch=1 n=g#2 v=50
191370 Par ch=1 c=64 v=40
191375 On ch=1 n=g#2 v=0
191375 Par ch=1 c=64 v=72
191380 Par ch=1 c=64 v=104
191390 Par ch=1 c=64 v=127
191505 Par ch=1 c=64 v=104
191510 Par ch=1 c=64 v=72
191515 Par ch=1 c=64 v=56
191525 Par ch=1 c=64 v=40
191530 On ch=1 n=f6 v=74
191530 Par ch=1 c=64 v=0
191535 On ch=1 n=a#5 v=51
191535 On ch=1 n=f5 v=46
191545 On ch=1 n=d5 v=46
191560 On ch=1 n=d5 v=0
191570 On ch=1 n=a#5 v=0
191580 On ch=1 n=f6 v=0
191590 On ch=1 n=f5 v=0
191610 On ch=1 n=b5 v=66
191665 On ch=1 n=b5 v=0
191695 On ch=1 n=g#4 v=48
191695 On ch=1 n=e6 v=74
191700 On ch=1 n=a#5 v=29
191700 On ch=1 n=f5 v=46
191735 On ch=1 n=g#4 v=0
191745 On ch=1 n=a#5 v=0
191750 On ch=1 n=e6 v=0
191765 On ch=1 n=f5 v=0
191775 On ch=1 n=c6 v=74
191820 On ch=1 n=c6 v=0
191855 On ch=1 n=d#6 v=67
191855 On ch=1 n=a#5 v=49
191865 On ch=1 n=f5 v=47
191870 On ch=1 n=d5 v=34
191890 On ch=1 n=d5 v=0
191900 On ch=1 n=a#5 v=0
191910 On ch=1 n=d#6 v=0
191915 On ch=1 n=f5 v=0
191935 On ch=1 n=b5 v=68
192005 On ch=1 n=b5 v=0
192025 On ch=1 n=d6 v=62
192025 On ch=1 n=g#4 v=35
192030 On ch=1 n=f5 v=46
192070 On ch=1 n=g#4 v=0
192070 On ch=1 n=d6 v=0
192090 On ch=1 n=f5 v=0
192100 On ch=1 n=c6 v=74
192150 On ch=1 n=c6 v=0
192180 On ch=1 n=a#5 v=40
192185 On ch=1 n=f6 v=75
192190 On ch=1 n=d5 v=41
192190 On ch=1 n=f5 v=36
192205 On ch=1 n=d5 v=0
192220 On ch=1 n=a#5 v=0
192235 On ch=1 n=f6 v=0
192250 On ch=1 n=f5 v=0
192265 On ch=1 n=b5 v=68
192335 On ch=1 n=b5 v=0
192355 On ch=1 n=g#4 v=37
192355 On ch=1 n=e6 v=64
192360 On ch=1 n=f5 v=49
192360 On ch=1 n=a#5 v=22
192410 On ch=1 n=e6 v=0
192430 On ch=1 n=d#6 v=62
192445 On ch=1 n=a#5 v=0
192455 Par ch=1 c=64 v=24
192460 On ch=1 n=g#4 v=0
192460 Par ch=1 c=64 v=56
192470 Par ch=1 c=64 v=72
192475 Par ch=1 c=64 v=88
192485 Par ch=1 c=64 v=104
192490 On ch=1 n=d#6 v=0
192510 Par ch=1 c=64 v=127
192515 On ch=1 n=f5 v=0
192530 On ch=1 n=d6 v=62
192560 On ch=1 n=d6 v=0
192585 Par ch=1 c=64 v=104
192590 Par ch=1 c=64 v=72
192595 Par ch=1 c=64 v=56
192605 Par ch=1 c=64 v=40
192610 Par ch=1 c=64 v=24
192615 Par ch=1 c=64 v=0
192690 On ch=1 n=f#2 v=60
192695 Par ch=1 c=64 v=24
192705 Par ch=1 c=64 v=56
192710 Par ch=1 c=64 v=88
192715 Par ch=1 c=64 v=104
192720 On ch=1 n=f#2 v=0
192725 Par ch=1 c=64 v=127
192805 Par ch=1 c=64 v=104
192810 Par ch=1 c=64 v=72
192815 Par ch=1 c=64 v=56
192825 Par ch=1 c=64 v=40
192830 Par ch=1 c=64 v=24
192840 Par ch=1 c=64 v=0
192865 On ch=1 n=a#6 v=70
192875 On ch=1 n=a#5 v=48
192880 On ch=1 n=c#6 v=55
192880 On ch=1 n=e5 v=47
192885 On ch=1 n=f#4 v=46
192885 On ch=1 n=c#5 v=42
192915 On ch=1 n=f#4 v=0
192915 On ch=1 n=a#5 v=0
192920 On ch=1 n=e5 v=0
192920 On ch=1 n=c#6 v=0
192925 On ch=1 n=c#5 v=0
192925 On ch=1 n=a#6 v=0
193050 On ch=1 n=g#6 v=65
193060 On ch=1 n=a#5 v=35
193065 On ch=1 n=c#6 v=42
193065 Par ch=1 c=64 v=24
193070 On ch=1 n=e5 v=36
193075 On ch=1 n=c#5 v=26
193075 Par ch=1 c=64 v=56
193080 On ch=1 n=a#4 v=27
193080 Par ch=1 c=64 v=104
193085 Par ch=1 c=64 v=127
193110 On ch=1 n=g#6 v=0
193120 On ch=1 n=c#6 v=0
193130 On ch=1 n=e5 v=0
193130 On ch=1 n=g6 v=66
193140 On ch=1 n=c#5 v=0
193160 On ch=1 n=a#4 v=0
193175 On ch=1 n=a#5 v=0
193190 On ch=1 n=g6 v=0
193215 On ch=1 n=f#6 v=57
193245 On ch=1 n=f#6 v=0
193295 Par ch=1 c=64 v=88
193300 Par ch=1 c=64 v=72
193305 Par ch=1 c=64 v=56
193315 Par ch=1 c=64 v=24
193320 Par ch=1 c=64 v=0
193375 On ch=1 n=b2 v=66
193390 Par ch=1 c=64 v=72
193400 Par ch=1 c=64 v=127
193405 On ch=1 n=b2 v=0
193465 Par ch=1 c=64 v=88
193470 Par ch=1 c=64 v=56
193475 Par ch=1 c=64 v=40
193485 Par ch=1 c=64 v=0
193555 On ch=1 n=d#7 v=77
193555 Par ch=1 c=64 v=24
193560 On ch=1 n=d#6 v=48
193560 On ch=1 n=f#6 v=56
193565 On ch=1 n=b4 v=45
193565 On ch=1 n=a5 v=46
193565 On ch=1 n=f#5 v=44
193565 Par ch=1 c=64 v=72
193570 Par ch=1 c=64 v=104
193575 Par ch=1 c=64 v=127
193595 On ch=1 n=f#5 v=0
193595 On ch=1 n=a5 v=0
193595 On ch=1 n=b4 v=0
193595 On ch=1 n=d#6 v=0
193605 On ch=1 n=f#6 v=0
193605 Par ch=1 c=64 v=104
193615 On ch=1 n=d#7 v=0
193615 Par ch=1 c=64 v=88
193620 Par ch=1 c=64 v=72
193625 Par ch=1 c=64 v=56
193630 Par ch=1 c=64 v=24
193640 Par ch=1 c=64 v=0
193725 Par ch=1 c=64 v=24
193730 On ch=1 n=c#7 v=74
193730 On ch=1 n=d#6 v=40
193730 On ch=1 n=f#6 v=46
193735 On ch=1 n=a5 v=49
193735 On ch=1 n=f#5 v=35
193735 Par ch=1 c=64 v=72
193740 Par ch=1 c=64 v=104
193745 On ch=1 n=d#5 v=37
193750 Par ch=1 c=64 v=49
193775 On ch=1 n=c#7 v=0
193795 On ch=1 n=f#6 v=0
193815 On ch=1 n=c7 v=73
193875 On ch=1 n=c7 v=0
193905 On ch=1 n=b6 v=73
193940 On ch=1 n=d#6 v=0
193945 On ch=1 n=b6 v=0
193950 On ch=1 n=d#5 v=0
193955 On ch=1 n=f#5 v=0
193955 On ch=1 n=a5 v=0
194080 On ch=1 n=f3 v=54
194080 On ch=1 n=f2 v=51
194120 On ch=1 n=f2 v=0
194140 On ch=1 n=f3 v=0
194265 On ch=1 n=a7 v=83
194265 On ch=1 n=d#7 v=67
194270 On ch=1 n=c7 v=63
194270 On ch=1 n=f4 v=61
194280 On ch=1 n=c7 v=0
194285 On ch=1 n=d#7 v=0
194300 On ch=1 n=a7 v=0
194325 On ch=1 n=f4 v=0
194350 On ch=1 n=e4 v=52
194425 On ch=1 n=f#4 v=50
194425 On ch=1 n=g#7 v=75
194430 On ch=1 n=d#7 v=51
194430 On ch=1 n=c7 v=53
194440 On ch=1 n=e4 v=0
194445 On ch=1 n=c7 v=0
194445 On ch=1 n=d#7 v=0
194465 On ch=1 n=g#7 v=0
194475 On ch=1 n=f#4 v=0
194505 On ch=1 n=f4 v=55
194570 On ch=1 n=f4 v=0
194590 On ch=1 n=g7 v=78
194590 On ch=1 n=d#7 v=54
194595 On ch=1 n=c7 v=57
194600 On ch=1 n=g4 v=27
194610 On ch=1 n=c7 v=0
194610 On ch=1 n=d#7 v=0
194620 On ch=1 n=g7 v=0
194645 On ch=1 n=g4 v=0
194665 On ch=1 n=f#4 v=49
194740 On ch=1 n=f#4 v=0
194755 On ch=1 n=f#7 v=69
194755 On ch=1 n=g#4 v=39
194755 On ch=1 n=d#7 v=58
194760 On ch=1 n=c7 v=53
194775 On ch=1 n=c7 v=0
194780 On ch=1 n=d#7 v=0
194790 On ch=1 n=f#7 v=0
194820 On ch=1 n=g#4 v=0
194840 On ch=1 n=g4 v=48
194910 On ch=1 n=g4 v=0
194920 On ch=1 n=f7 v=80
194925 On ch=1 n=a6 v=58
194925 On ch=1 n=c7 v=60
194925 On ch=1 n=a4 v=42
194935 On ch=1 n=c7 v=0
194950 On ch=1 n=f7 v=0
194970 On ch=1 n=a4 v=0
195000 On ch=1 n=g#4 v=42
195065 On ch=1 n=g#4 v=0
195080 On ch=1 n=e7 v=73
195080 On ch=1 n=a#4 v=40
195085 On ch=1 n=c7 v=59
195090 On ch=1 n=a6 v=49
195100 On ch=1 n=c7 v=0
195105 On ch=1 n=a6 v=0
195110 On ch=1 n=e7 v=0
195140 On ch=1 n=a#4 v=0
195160 On ch=1 n=a4 v=41
195230 On ch=1 n=a4 v=0
195245 On ch=1 n=d#7 v=62
195250 On ch=1 n=c7 v=56
195255 On ch=1 n=b4 v=29
195255 On ch=1 n=a6 v=36
195265 On ch=1 n=c7 v=0
195275 On ch=1 n=a6 v=0
195280 On ch=1 n=d#7 v=0
195310 On ch=1 n=b4 v=0
195325 On ch=1 n=a#4 v=37
195390 On ch=1 n=a#4 v=0
195405 On ch=1 n=d7 v=56
195410 On ch=1 n=f#6 v=37
195410 On ch=1 n=c5 v=38
195410 On ch=1 n=a6 v=42
195430 On ch=1 n=a6 v=0
195435 On ch=1 n=d7 v=0
195440 On ch=1 n=f#6 v=0
195465 On ch=1 n=c5 v=0
195490 On ch=1 n=b4 v=40
195550 On ch=1 n=b4 v=0
195570 On ch=1 n=c#7 v=53
195570 On ch=1 n=a6 v=54
195570 On ch=1 n=c#5 v=36
195575 On ch=1 n=f#6 v=37
195595 On ch=1 n=f#6 v=0
195595 On ch=1 n=a6 v=0
195605 On ch=1 n=c#7 v=0
195625 On ch=1 n=c#5 v=0
195650 On ch=1 n=c5 v=53
195700 On ch=1 n=c5 v=0
195735 On ch=1 n=c7 v=60
195735 On ch=1 n=a6 v=47
195740 On ch=1 n=d5 v=38
195745 On ch=1 n=f#6 v=32
195760 On ch=1 n=f#6 v=0
195760 On ch=1 n=c7 v=0
195760 On ch=1 n=a6 v=0
195765 On ch=1 n=d5 v=0
195815 On ch=1 n=c#5 v=37
195870 On ch=1 n=c#5 v=0
195890 On ch=1 n=d#5 v=37
195890 On ch=1 n=b6 v=59
195895 On ch=1 n=f#6 v=36
195895 On ch=1 n=d#6 v=38
195920 On ch=1 n=d#6 v=0
195925 On ch=1 n=f#6 v=0
195925 On ch=1 n=b6 v=0
195945 On ch=1 n=d#5 v=0
195965 On ch=1 n=d5 v=48
196035 On ch=1 n=d5 v=0
196055 On ch=1 n=f#6 v=39
196055 On ch=1 n=a#6 v=42
196060 On ch=1 n=d#6 v=29
196065 On ch=1 n=e5 v=31
196085 On ch=1 n=d#6 v=0
196085 On ch=1 n=a#6 v=0
196085 On ch=1 n=f#6 v=0
196095 On ch=1 n=e5 v=0
196130 On ch=1 n=d#5 v=33
196190 On ch=1 n=d#5 v=0
196210 On ch=1 n=a6 v=52
196215 On ch=1 n=d#6 v=37
196220 On ch=1 n=f5 v=31
196225 On ch=1 n=c6 v=38
196240 On ch=1 n=c6 v=0
196240 On ch=1 n=a6 v=0
196245 On ch=1 n=d#6 v=0
196270 On ch=1 n=f5 v=0
196300 On ch=1 n=e5 v=37
196340 On ch=1 n=e5 v=0
196375 On ch=1 n=f#5 v=33
196380 On ch=1 n=d#6 v=38
196385 On ch=1 n=g#6 v=43
196390 On ch=1 n=c6 v=30
196405 On ch=1 n=c6 v=0
196405 On ch=1 n=g#6 v=0
196410 On ch=1 n=d#6 v=0
196430 On ch=1 n=f#5 v=0
196455 On ch=1 n=f5 v=40
196490 On ch=1 n=f5 v=0
196540 On ch=1 n=g6 v=52
196540 On ch=1 n=d#6 v=34
196545 On ch=1 n=g5 v=25
196550 On ch=1 n=c6 v=26
196565 On ch=1 n=c6 v=0
196570 On ch=1 n=g5 v=0
196570 On ch=1 n=d#6 v=0
196570 On ch=1 n=g6 v=0
196615 On ch=1 n=f#5 v=33
196665 On ch=1 n=f#5 v=0
196695 On ch=1 n=g#5 v=29
196700 On ch=1 n=f#6 v=51
196705 On ch=1 n=c6 v=41
196710 On ch=1 n=d#6 v=34
196725 On ch=1 n=d#6 v=0
196725 On ch=1 n=c6 v=0
196730 On ch=1 n=f#6 v=0
196755 On ch=1 n=g#5 v=0
196780 On ch=1 n=f#5 v=25
196845 On ch=1 n=f#5 v=0
196855 On ch=1 n=f6 v=54
196865 On ch=1 n=d#6 v=34
196865 On ch=1 n=a5 v=34
196870 On ch=1 n=c6 v=28
196885 On ch=1 n=c6 v=0
196890 On ch=1 n=d#6 v=0
196890 On ch=1 n=f6 v=0
196905 On ch=1 n=a6 v=0
196920 On ch=1 n=a5 v=0
196945 On ch=1 n=g#5 v=25
197005 On ch=1 n=g#5 v=0
197015 On ch=1 n=g6 v=56
197015 On ch=1 n=d#6 v=34
197015 On ch=1 n=a#5 v=40
197040 On ch=1 n=d#6 v=0
197050 On ch=1 n=g6 v=0
197065 On ch=1 n=a#5 v=0
197090 On ch=1 n=a5 v=30
197165 On ch=1 n=a5 v=0
197175 On ch=1 n=f6 v=58
197175 On ch=1 n=c6 v=40
197180 On ch=1 n=d#6 v=42
197205 On ch=1 n=d#6 v=0
197205 On ch=1 n=f6 v=0
197225 On ch=1 n=c6 v=0
197255 On ch=1 n=a5 v=34
197325 On ch=1 n=a5 v=0
197345 On ch=1 n=f#6 v=50
197350 On ch=1 n=d#6 v=44
197350 On ch=1 n=g#5 v=31
197375 On ch=1 n=d#6 v=0
197390 On ch=1 n=f#6 v=0
197400 On ch=1 n=g#5 v=0
197425 On ch=1 n=b5 v=27
197485 On ch=1 n=b5 v=0
197505 On ch=1 n=f6 v=55
197505 On ch=1 n=a5 v=41
197505 On ch=1 n=d#6 v=31
197530 On ch=1 n=a5 v=0
197540 On ch=1 n=d#6 v=0
197545 On ch=1 n=f6 v=0
197590 On ch=1 n=c6 v=30
197645 On ch=1 n=c6 v=0
197660 On ch=1 n=d#6 v=46
197660 On ch=1 n=g6 v=56
197660 On ch=1 n=g5 v=32
197685 On ch=1 n=g6 v=0
197690 On ch=1 n=d#6 v=0
197710 On ch=1 n=g5 v=0
197745 On ch=1 n=a#5 v=31
197820 On ch=1 n=a#5 v=0
197820 On ch=1 n=f6 v=58
197825 On ch=1 n=d#6 v=40
197835 On ch=1 n=a5 v=32
197855 On ch=1 n=d#6 v=0
197855 On ch=1 n=f6 v=0
197860 On ch=1 n=a5 v=0
197905 On ch=1 n=c6 v=32
197925 On ch=1 n=c6 v=0
197985 On ch=1 n=f#6 v=54
197990 On ch=1 n=d#6 v=39
197995 On ch=1 n=g#5 v=29
198015 On ch=1 n=d#6 v=0
198025 On ch=1 n=f#6 v=0
198055 On ch=1 n=g#5 v=0
198065 On ch=1 n=b5 v=38
198100 On ch=1 n=b5 v=0
198145 On ch=1 n=f6 v=59
198150 On ch=1 n=d#6 v=43
198155 On ch=1 n=a5 v=33
198175 On ch=1 n=f6 v=0
198180 On ch=1 n=d#6 v=0
198215 On ch=1 n=a5 v=0
198230 On ch=1 n=c6 v=41
198300 On ch=1 n=c6 v=0
198315 On ch=1 n=d#6 v=40
198320 On ch=1 n=g6 v=53
198320 On ch=1 n=g#5 v=32
198350 On ch=1 n=g6 v=0
198355 On ch=1 n=d#6 v=0
198380 On ch=1 n=g#5 v=0
198405 On ch=1 n=b5 v=25
198460 On ch=1 n=b5 v=0
198480 On ch=1 n=f6 v=58
198485 On ch=1 n=d#6 v=42
198485 On ch=1 n=a5 v=27
198510 On ch=1 n=f6 v=0
198515 On ch=1 n=d#6 v=0
198535 On ch=1 n=a5 v=0
198555 On ch=1 n=c6 v=44
198580 On ch=1 n=c6 v=0
198630 On ch=1 n=f#6 v=54
198635 On ch=1 n=d#6 v=42
198640 On ch=1 n=g#5 v=30
198660 On ch=1 n=d#6 v=0
198665 On ch=1 n=f#6 v=0
198700 On ch=1 n=g#5 v=0
198715 On ch=1 n=b5 v=34
198770 On ch=1 n=b5 v=0
198795 On ch=1 n=f6 v=54
198800 On ch=1 n=d#6 v=29
198805 On ch=1 n=a5 v=22
198825 On ch=1 n=d#6 v=0
198825 On ch=1 n=f6 v=0
198850 On ch=1 n=a5 v=0
198870 On ch=1 n=c6 v=39
198925 On ch=1 n=c6 v=0
198950 On ch=1 n=d#6 v=40
198955 On ch=1 n=g6 v=46
198960 On ch=1 n=g#5 v=25
198980 On ch=1 n=g6 v=0
198985 On ch=1 n=d#6 v=0
199015 On ch=1 n=g#5 v=0
199050 On ch=1 n=b5 v=21
199100 On ch=1 n=b5 v=0
199115 On ch=1 n=f6 v=53
199125 On ch=1 n=d#6 v=29
199125 On ch=1 n=a5 v=24
199150 On ch=1 n=d#6 v=0
199150 On ch=1 n=f6 v=0
199175 On ch=1 n=a5 v=0
199195 On ch=1 n=c6 v=37
199220 On ch=1 n=c6 v=0
199285 On ch=1 n=f6 v=47
199300 On ch=1 n=a#5 v=25
199305 On ch=1 n=d6 v=30
199395 On ch=1 n=a#5 v=0
199395 On ch=1 n=d6 v=1
199400 On ch=1 n=d6 v=0
199400 On ch=1 n=f6 v=0
199460 On ch=1 n=d6 v=0
199630 On ch=1 n=d5 v=44
199705 On ch=1 n=d5 v=0
199725 On ch=1 n=d#5 v=30
199785 On ch=1 n=d#5 v=0
199800 On ch=1 n=d5 v=50
199850 On ch=1 n=d5 v=0
199875 On ch=1 n=e5 v=47
199945 On ch=1 n=e5 v=0
199960 On ch=1 n=f5 v=55
199960 On ch=1 n=b4 v=33
199965 On ch=1 n=g#4 v=26
199970 On ch=1 n=d4 v=33
200035 On ch=1 n=f5 v=0
200040 On ch=1 n=f#5 v=46
200105 On ch=1 n=f#5 v=0
200125 On ch=1 n=f5 v=46
200185 On ch=1 n=f5 v=0
200195 On ch=1 n=g5 v=58
200275 On ch=1 n=g5 v=0
200280 On ch=1 n=g#5 v=45
200340 On ch=1 n=g#5 v=0
200360 On ch=1 n=a5 v=47
200415 On ch=1 n=a5 v=0
200435 On ch=1 n=g#5 v=49
200500 On ch=1 n=g#5 v=0
200515 On ch=1 n=a#5 v=51
200575 On ch=1 n=a#5 v=0
200595 On ch=1 n=b5 v=54
200625 On ch=1 n=b4 v=0
200650 On ch=1 n=b5 v=0
200675 On ch=1 n=c6 v=56
200710 On ch=1 n=d4 v=0
200725 On ch=1 n=c6 v=0
200750 On ch=1 n=g#4 v=0
200750 On ch=1 n=b5 v=49
200750 On ch=1 n=d5 v=54
200805 On ch=1 n=b5 v=0
200835 On ch=1 n=c#6 v=46
200905 On ch=1 n=c#6 v=0
200910 On ch=1 n=d5 v=0
200920 On ch=1 n=c#5 v=33
200920 On ch=1 n=d6 v=65
200920 On ch=1 n=g#4 v=31
200925 On ch=1 n=f4 v=42
200990 On ch=1 n=d6 v=0
200995 On ch=1 n=d#6 v=65
201060 On ch=1 n=d#6 v=0
201065 On ch=1 n=c#5 v=0
201075 On ch=1 n=d6 v=61
201080 On ch=1 n=c5 v=50
201095 On ch=1 n=f4 v=0
201095 On ch=1 n=g#4 v=0
201140 On ch=1 n=d6 v=0
201155 On ch=1 n=e6 v=57
201205 On ch=1 n=c5 v=0
201230 On ch=1 n=e6 v=0
201240 On ch=1 n=f6 v=66
201240 On ch=1 n=b4 v=32
201245 On ch=1 n=g#4 v=36
201250 On ch=1 n=d4 v=48
201310 On ch=1 n=f6 v=0
201315 On ch=1 n=f#6 v=53
201380 On ch=1 n=f#6 v=0
201385 On ch=1 n=d4 v=0
201400 On ch=1 n=g#4 v=0
201400 On ch=1 n=f6 v=64
201405 On ch=1 n=b4 v=0
201405 On ch=1 n=d5 v=47
201460 On ch=1 n=f6 v=0
201475 On ch=1 n=g6 v=65
201550 On ch=1 n=d5 v=0
201550 On ch=1 n=c#5 v=40
201555 On ch=1 n=g6 v=0
201560 On ch=1 n=g#6 v=56
201560 On ch=1 n=g#4 v=37
201580 On ch=1 n=f4 v=25
201620 On ch=1 n=g#6 v=0
201620 On ch=1 n=c#5 v=0
201630 On ch=1 n=a6 v=60
201640 On ch=1 n=c5 v=49
201710 On ch=1 n=c5 v=0
201710 On ch=1 n=f4 v=0
201710 On ch=1 n=g#6 v=50
201715 On ch=1 n=g#4 v=0
201715 On ch=1 n=b4 v=52
201770 On ch=1 n=g#6 v=0
201775 On ch=1 n=b4 v=0
201785 On ch=1 n=b6 v=64
201850 On ch=1 n=b6 v=0
201870 On ch=1 n=d7 v=59
201875 On ch=1 n=d5 v=48
201880 On ch=1 n=a4 v=41
201885 On ch=1 n=f#4 v=32
201885 On ch=1 n=d4 v=42
201940 On ch=1 n=d7 v=0
201950 On ch=1 n=a6 v=0
201950 On ch=1 n=d#7 v=58
202005 On ch=1 n=d#7 v=0
202020 On ch=1 n=d7 v=62
202100 On ch=1 n=d7 v=0
202105 On ch=1 n=f7 v=63
202165 On ch=1 n=a4 v=0
202170 On ch=1 n=d4 v=0
202175 On ch=1 n=f7 v=0
202175 On ch=1 n=f#4 v=0
202180 On ch=1 n=d5 v=0
202185 On ch=1 n=f#7 v=51
202245 On ch=1 n=f#7 v=0
202255 On ch=1 n=g7 v=62
202325 On ch=1 n=g7 v=0
202330 On ch=1 n=f#7 v=52
202405 On ch=1 n=f#7 v=0
202405 On ch=1 n=g#7 v=60
202470 On ch=1 n=g#7 v=0
202480 On ch=1 n=a7 v=63
202555 On ch=1 n=a7 v=0
202560 On ch=1 n=a#7 v=56
202630 On ch=1 n=a#7 v=0
202640 On ch=1 n=a7 v=54
202715 On ch=1 n=a7 v=0
202715 On ch=1 n=c#8 v=62
202800 On ch=1 n=c#8 v=0
202810 On ch=1 n=d8 v=71
202875 On ch=1 n=d8 v=0
202885 On ch=1 n=c#8 v=67
202960 On ch=1 n=c#8 v=0
202970 On ch=1 n=d8 v=70
203030 On ch=1 n=d8 v=0
203040 On ch=1 n=c#8 v=63
203060 On ch=1 n=c#8 v=0
203105 On ch=1 n=c4 v=47
203135 On ch=1 n=d#8 v=68
203135 On ch=1 n=g4 v=28
203140 On ch=1 n=c8 v=66
203145 Par ch=1 c=64 v=40
203155 On ch=1 n=d#5 v=28
203155 Par ch=1 c=64 v=56
203160 Par ch=1 c=64 v=72
203185 Par ch=1 c=64 v=88
203205 On ch=1 n=c8 v=0
203205 On ch=1 n=d#8 v=0
203220 On ch=1 n=b7 v=68
203230 Par ch=1 c=64 v=72
203285 On ch=1 n=b7 v=0
203290 Par ch=1 c=64 v=56
203295 Par ch=1 c=64 v=40
203305 On ch=1 n=c8 v=56
203305 Par ch=1 c=64 v=24
203310 Par ch=1 c=64 v=0
203360 On ch=1 n=c8 v=0
203375 On ch=1 n=a#7 v=56
203395 On ch=1 n=c4 v=0
203405 On ch=1 n=g4 v=0
203410 On ch=1 n=d#5 v=0
203450 On ch=1 n=a#7 v=0
203455 On ch=1 n=a7 v=73
203525 On ch=1 n=a7 v=0
203535 On ch=1 n=g7 v=58
203600 On ch=1 n=g7 v=0
203610 On ch=1 n=g#7 v=61
203675 On ch=1 n=g#7 v=0
203690 On ch=1 n=f#7 v=50
203705 On ch=1 n=f#7 v=0
203745 On ch=1 n=f3 v=43
203760 On ch=1 n=f3 v=0
203765 On ch=1 n=c4 v=36
203770 Par ch=1 c=64 v=40
203775 Par ch=1 c=64 v=56
203780 On ch=1 n=d#4 v=35
203785 On ch=1 n=f8 v=69
203785 Par ch=1 c=64 v=72
203790 Par ch=1 c=64 v=88
203795 On ch=1 n=f7 v=33
203795 On ch=1 n=a4 v=42
203795 Par ch=1 c=64 v=104
203805 Par ch=1 c=64 v=127
203835 On ch=1 n=c4 v=0
203840 On ch=1 n=f8 v=0
203845 On ch=1 n=f7 v=0
203850 On ch=1 n=a4 v=0
203850 On ch=1 n=d#4 v=0
203870 On ch=1 n=e7 v=65
203900 On ch=1 n=e7 v=0
203940 On ch=1 n=f7 v=53
203985 Par ch=1 c=64 v=104
203990 On ch=1 n=f7 v=0
204015 On ch=1 n=d#7 v=61
204015 Par ch=1 c=64 v=88
204070 Par ch=1 c=64 v=72
204075 On ch=1 n=d#7 v=0
204100 On ch=1 n=d7 v=58
204110 Par ch=1 c=64 v=40
204125 Par ch=1 c=64 v=24
204130 Par ch=1 c=64 v=0
204165 On ch=1 n=d7 v=0
204170 On ch=1 n=c#7 v=55
204230 On ch=1 n=c#7 v=0
204255 On ch=1 n=c7 v=45
204320 On ch=1 n=c7 v=0
204340 On ch=1 n=b6 v=51
204355 On ch=1 n=b6 v=0
204370 On ch=1 n=a#3 v=55
204405 Par ch=1 c=64 v=56
204415 Par ch=1 c=64 v=88
204420 On ch=1 n=a#6 v=52
204420 On ch=1 n=f4 v=40
204420 Par ch=1 c=64 v=127
204435 On ch=1 n=a#3 v=0
204440 On ch=1 n=a#6 v=0
204455 On ch=1 n=d5 v=30
204490 On ch=1 n=f8 v=80
204500 On ch=1 n=f4 v=0
204505 On ch=1 n=f8 v=0
204510 On ch=1 n=d5 v=0
204865 Par ch=1 c=64 v=0
204870 On ch=1 n=d3 v=32
204945 On ch=1 n=d3 v=0
204945 On ch=1 n=d#3 v=36
205010 On ch=1 n=d#3 v=0
205030 On ch=1 n=d3 v=36
205095 On ch=1 n=d3 v=0
205110 On ch=1 n=e3 v=45
205180 On ch=1 n=e3 v=0
205200 On ch=1 n=f3 v=37
205200 On ch=1 n=d5 v=50
205200 On ch=1 n=b4 v=43
205200 On ch=1 n=g#4 v=43
205200 On ch=1 n=f4 v=42
205280 On ch=1 n=f#3 v=40
205335 On ch=1 n=f3 v=0
205345 On ch=1 n=f#3 v=0
205360 On ch=1 n=f3 v=43
205430 On ch=1 n=f3 v=0
205440 On ch=1 n=g3 v=36
205445 On ch=1 n=g3 v=37
205505 On ch=1 n=g3 v=0
205515 On ch=1 n=g3 v=0
205520 On ch=1 n=g#3 v=35
205595 On ch=1 n=g#3 v=0
205610 On ch=1 n=a3 v=38
205670 On ch=1 n=a3 v=0
205685 On ch=1 n=g#3 v=34
205765 On ch=1 n=g#3 v=0
205775 On ch=1 n=a#3 v=35
205815 On ch=1 n=d5 v=0
205820 On ch=1 n=b4 v=0
205830 On ch=1 n=f4 v=0
205830 On ch=1 n=g#4 v=0
205840 On ch=1 n=a#3 v=0
205860 On ch=1 n=b3 v=47
205915 On ch=1 n=b3 v=0
205945 On ch=1 n=c4 v=44
206005 On ch=1 n=c4 v=0
206020 On ch=1 n=d7 v=65
206025 On ch=1 n=f6 v=47
206025 On ch=1 n=g#6 v=39
206030 On ch=1 n=b3 v=41
206060 On ch=1 n=f6 v=0
206075 On ch=1 n=g#6 v=0
206085 On ch=1 n=d7 v=0
206090 On ch=1 n=b3 v=0
206100 On ch=1 n=c#4 v=43
206170 On ch=1 n=c#4 v=0
206175 On ch=1 n=c#7 v=59
206175 On ch=1 n=d4 v=55
206180 On ch=1 n=f6 v=55
206180 On ch=1 n=g#6 v=43
206210 On ch=1 n=f6 v=0
206215 On ch=1 n=g#6 v=0
206220 On ch=1 n=c#7 v=0
206255 On ch=1 n=d4 v=0
206255 On ch=1 n=d#4 v=45
206330 On ch=1 n=d#4 v=0
206345 On ch=1 n=c7 v=54
206345 On ch=1 n=d4 v=49
206350 On ch=1 n=g#6 v=36
206350 On ch=1 n=f6 v=45
206375 On ch=1 n=f6 v=0
206395 On ch=1 n=g#6 v=0
206405 On ch=1 n=c7 v=0
206415 On ch=1 n=d4 v=0
206425 On ch=1 n=e4 v=34
206495 On ch=1 n=e4 v=0
206505 On ch=1 n=b6 v=55
206505 On ch=1 n=f6 v=55
206505 On ch=1 n=g#6 v=38
206515 On ch=1 n=f4 v=42
206540 On ch=1 n=g#6 v=0
206540 On ch=1 n=f6 v=0
206545 On ch=1 n=b6 v=0
206590 On ch=1 n=f4 v=0
206590 On ch=1 n=f#4 v=34
206655 On ch=1 n=f#4 v=0
206665 On ch=1 n=d7 v=65
206665 On ch=1 n=f4 v=49
206670 On ch=1 n=g#6 v=43
206675 On ch=1 n=f6 v=51
206690 On ch=1 n=f6 v=0
206700 On ch=1 n=g#6 v=0
206700 On ch=1 n=d7 v=0
206750 On ch=1 n=f4 v=0
206750 On ch=1 n=g4 v=50
206830 On ch=1 n=g4 v=0
206835 On ch=1 n=c#7 v=62
206835 On ch=1 n=g#4 v=46
206840 On ch=1 n=g#6 v=43
206840 On ch=1 n=f6 v=51
206865 On ch=1 n=f6 v=0
206880 On ch=1 n=g#6 v=0
206885 On ch=1 n=c#7 v=0
206910 On ch=1 n=g#4 v=0
206920 On ch=1 n=c7 v=58
206930 On ch=1 n=g#6 v=35
206930 On ch=1 n=f6 v=44
206930 On ch=1 n=a4 v=41
206950 On ch=1 n=f6 v=0
206970 On ch=1 n=g#6 v=0
206980 On ch=1 n=a4 v=0
206980 On ch=1 n=c7 v=0
207000 On ch=1 n=b6 v=65
207000 On ch=1 n=g#4 v=32
207010 On ch=1 n=f6 v=25
207055 On ch=1 n=f6 v=0
207060 On ch=1 n=g#4 v=0
207080 On ch=1 n=b4 v=48
207090 On ch=1 n=b6 v=0
207110 On ch=1 n=b4 v=0
207180 On ch=1 n=f#6 v=51
207185 On ch=1 n=d4 v=37
207185 Par ch=1 c=64 v=24
207190 On ch=1 n=d5 v=21
207190 Par ch=1 c=64 v=56
207200 Par ch=1 c=64 v=88
207205 Par ch=1 c=64 v=104
207210 On ch=1 n=f#6 v=0
207210 On ch=1 n=d7 v=59
207210 Par ch=1 c=64 v=127
207220 On ch=1 n=d4 v=0
207235 On ch=1 n=d7 v=0
207235 On ch=1 n=a7 v=77
207295 On ch=1 n=d#5 v=42
207300 On ch=1 n=d5 v=0
207300 Par ch=1 c=64 v=104
207305 Par ch=1 c=64 v=88
207315 Par ch=1 c=64 v=72
207320 Par ch=1 c=64 v=56
207325 Par ch=1 c=64 v=24
207335 Par ch=1 c=64 v=0
207350 On ch=1 n=d#5 v=0
207365 On ch=1 n=d5 v=48
207430 On ch=1 n=d5 v=0
207440 On ch=1 n=f5 v=49
207480 On ch=1 n=a7 v=0
207500 On ch=1 n=f5 v=0
207515 On ch=1 n=f#5 v=46
207580 On ch=1 n=f#5 v=0
207595 On ch=1 n=g5 v=42
207655 On ch=1 n=g5 v=0
207660 On ch=1 n=f#5 v=34
207735 On ch=1 n=f#5 v=0
207735 On ch=1 n=g#5 v=44
207810 On ch=1 n=g#5 v=0
207820 On ch=1 n=a5 v=51
207885 On ch=1 n=a5 v=0
207890 On ch=1 n=a#5 v=50
207950 On ch=1 n=a#5 v=0
207970 On ch=1 n=a5 v=43
208035 On ch=1 n=a5 v=0
208040 On ch=1 n=c#6 v=46
208115 On ch=1 n=c#6 v=0
208120 On ch=1 n=d6 v=54
208195 On ch=1 n=d6 v=0
208200 On ch=1 n=c#6 v=50
208250 Par ch=1 c=64 v=24
208260 On ch=1 n=c#6 v=0
208275 On ch=1 n=d6 v=50
208275 Par ch=1 c=64 v=56
208300 Par ch=1 c=64 v=72
208320 Par ch=1 c=64 v=88
208325 On ch=1 n=d6 v=0
208340 On ch=1 n=c#6 v=36
208355 On ch=1 n=c#6 v=0
208380 Par ch=1 c=64 v=56
208385 Par ch=1 c=64 v=24
208395 Par ch=1 c=64 v=0
208400 On ch=1 n=g6 v=60
208430 Par ch=1 c=64 v=56
208435 On ch=1 n=g6 v=0
208435 On ch=1 n=d#7 v=65
208435 Par ch=1 c=64 v=88
208440 On ch=1 n=c5 v=40
208440 Par ch=1 c=64 v=127
208470 On ch=1 n=d#7 v=0
208475 On ch=1 n=c6 v=1
208480 On ch=1 n=c8 v=75
208490 On ch=1 n=c5 v=0
208530 On ch=1 n=c6 v=0
208550 On ch=1 n=b5 v=42
208575 Par ch=1 c=64 v=104
208595 On ch=1 n=b5 v=0
208595 Par ch=1 c=64 v=88
208615 Par ch=1 c=64 v=72
208625 On ch=1 n=c6 v=43
208630 Par ch=1 c=64 v=56
208650 Par ch=1 c=64 v=40
208655 Par ch=1 c=64 v=24
208670 Par ch=1 c=64 v=0
208685 On ch=1 n=c6 v=0
208700 On ch=1 n=a#5 v=43
208765 On ch=1 n=a#5 v=0
208780 On ch=1 n=a5 v=44
208850 On ch=1 n=a5 v=0
208855 On ch=1 n=g5 v=37
208890 On ch=1 n=g5 v=0
208935 On ch=1 n=g#5 v=31
208950 Par ch=1 c=64 v=24
208965 Par ch=1 c=64 v=40
208970 Par ch=1 c=64 v=56
208975 Par ch=1 c=64 v=72
208990 Par ch=1 c=64 v=88
209010 On ch=1 n=g#5 v=0
209020 On ch=1 n=f#5 v=44
209045 On ch=1 n=d#7 v=45
209050 Par ch=1 c=64 v=104
209060 On ch=1 n=f#5 v=0
209065 On ch=1 n=c8 v=0
209065 Par ch=1 c=64 v=127
209080 On ch=1 n=a7 v=63
209095 On ch=1 n=d#7 v=0
209095 Par ch=1 c=64 v=24
209100 On ch=1 n=f5 v=22
209100 On ch=1 n=f4 v=39
209100 Par ch=1 c=64 v=56
209110 Par ch=1 c=64 v=88
209115 On ch=1 n=f8 v=77
209115 Par ch=1 c=64 v=104
209120 Par ch=1 c=64 v=127
209140 On ch=1 n=f4 v=0
209140 On ch=1 n=a7 v=0
209175 On ch=1 n=f5 v=0
209190 On ch=1 n=e5 v=46
209205 On ch=1 n=f8 v=0
209240 On ch=1 n=e5 v=0
209265 On ch=1 n=f5 v=41
209285 Par ch=1 c=64 v=104
209300 Par ch=1 c=64 v=88
209310 Par ch=1 c=64 v=72
209325 Par ch=1 c=64 v=56
209330 On ch=1 n=f5 v=0
209330 Par ch=1 c=64 v=40
209335 Par ch=1 c=64 v=24
209345 On ch=1 n=d#5 v=34
209350 Par ch=1 c=64 v=0
209410 On ch=1 n=d#5 v=0
209420 On ch=1 n=d5 v=47
209495 On ch=1 n=d5 v=0
209495 On ch=1 n=c#5 v=49
209560 On ch=1 n=c#5 v=0
209575 On ch=1 n=c5 v=49
209650 On ch=1 n=c5 v=0
209660 On ch=1 n=b4 v=30
209670 On ch=1 n=b4 v=0
209705 On ch=1 n=d7 v=46
209745 On ch=1 n=d7 v=0
209745 On ch=1 n=a#7 v=55
209770 On ch=1 n=a#4 v=25
209775 Par ch=1 c=64 v=40
209785 On ch=1 n=a#3 v=33
209785 Par ch=1 c=64 v=72
209790 On ch=1 n=a#7 v=0
209790 Par ch=1 c=64 v=104
209795 On ch=1 n=f8 v=71
209795 Par ch=1 c=64 v=0
209815 On ch=1 n=f8 v=0
209830 On ch=1 n=a#3 v=0
209835 On ch=1 n=a#4 v=0
209970 On ch=1 n=d4 v=56
209975 On ch=1 n=f4 v=37
209975 On ch=1 n=a#4 v=26
210015 On ch=1 n=d4 v=0
210030 On ch=1 n=a#4 v=0
210035 On ch=1 n=f4 v=0
210045 On ch=1 n=d5 v=31
210075 On ch=1 n=d5 v=0
210140 On ch=1 n=c4 v=55
210140 On ch=1 n=a#4 v=25
210150 On ch=1 n=f#4 v=25
210180 On ch=1 n=c4 v=0
210185 On ch=1 n=f#4 v=0
210190 On ch=1 n=a#4 v=0
210215 On ch=1 n=d5 v=35
210240 On ch=1 n=d5 v=0
210295 On ch=1 n=b3 v=47
210300 On ch=1 n=a#4 v=33
210305 On ch=1 n=g4 v=33
210330 On ch=1 n=b3 v=0
210355 On ch=1 n=g4 v=0
210355 On ch=1 n=a#4 v=0
210380 On ch=1 n=d5 v=35
210415 On ch=1 n=d5 v=0
210455 On ch=1 n=a#3 v=48
210465 On ch=1 n=f#4 v=31
210465 On ch=1 n=a#4 v=22
210500 On ch=1 n=a#3 v=0
210515 On ch=1 n=a#4 v=0
210515 On ch=1 n=f#4 v=0
210535 On ch=1 n=d5 v=38
210560 On ch=1 n=d5 v=0
210615 On ch=1 n=d4 v=53
210620 On ch=1 n=a#4 v=25
210630 On ch=1 n=f4 v=31
210660 On ch=1 n=d4 v=0
210665 On ch=1 n=a#4 v=0
210675 On ch=1 n=f4 v=0
210685 On ch=1 n=d5 v=40
210740 On ch=1 n=d5 v=0
210770 On ch=1 n=a#4 v=27
210770 On ch=1 n=c4 v=62
210785 On ch=1 n=f#4 v=17
210810 On ch=1 n=f#4 v=0
210820 On ch=1 n=c4 v=0
210820 On ch=1 n=a#4 v=0
210840 On ch=1 n=b3 v=59
210840 On ch=1 n=d5 v=31
210895 On ch=1 n=b3 v=0
210910 On ch=1 n=d5 v=0
210915 On ch=1 n=a#3 v=55
210915 On ch=1 n=a#4 v=36
210935 On ch=1 n=g4 v=22
210975 On ch=1 n=g4 v=0
210975 On ch=1 n=a#4 v=0
210980 On ch=1 n=a#3 v=0
210985 On ch=1 n=d5 v=43
211025 On ch=1 n=d5 v=0
211065 On ch=1 n=a4 v=35
211065 On ch=1 n=f#4 v=25
211100 On ch=1 n=d#5 v=36
211120 On ch=1 n=f#4 v=0
211120 On ch=1 n=a4 v=0
211120 Par ch=1 c=64 v=24
211120 Par ch=1 c=64 v=72
211130 Par ch=1 c=64 v=88
211135 On ch=1 n=d#5 v=0
211135 Par ch=1 c=64 v=104
211140 Par ch=1 c=64 v=127
211215 Par ch=1 c=64 v=104
211220 Par ch=1 c=64 v=88
211225 Par ch=1 c=64 v=72
211235 Par ch=1 c=64 v=40
211240 Par ch=1 c=64 v=0
211260 On ch=1 n=d#7 v=58
211265 On ch=1 n=f#6 v=51
211270 On ch=1 n=a6 v=46
211285 On ch=1 n=a6 v=0
211290 On ch=1 n=f#6 v=0
211310 On ch=1 n=d#7 v=0
211340 On ch=1 n=c7 v=62
211390 On ch=1 n=c7 v=0
211420 On ch=1 n=g#6 v=57
211425 On ch=1 n=b5 v=34
211430 On ch=1 n=d6 v=38
211455 On ch=1 n=d6 v=0
211460 On ch=1 n=b5 v=0
211465 On ch=1 n=g#6 v=0
211495 On ch=1 n=f6 v=58
211525 On ch=1 n=f6 v=0
211570 On ch=1 n=a6 v=67
211575 On ch=1 n=d#6 v=48
211585 On ch=1 n=c6 v=37
211600 On ch=1 n=c6 v=0
211600 On ch=1 n=d#6 v=0
211610 On ch=1 n=a6 v=0
211645 On ch=1 n=f#6 v=36
211700 On ch=1 n=f#6 v=0
211725 On ch=1 n=g#5 v=48
211730 On ch=1 n=d6 v=56
211735 On ch=1 n=f5 v=35
211755 On ch=1 n=f5 v=0
211760 On ch=1 n=g#5 v=0
211770 On ch=1 n=d6 v=0
211800 On ch=1 n=b5 v=50
211840 On ch=1 n=b5 v=0
211875 On ch=1 n=d#6 v=57
211885 On ch=1 n=f#5 v=32
211890 On ch=1 n=a5 v=36
211900 On ch=1 n=f#5 v=0
211905 On ch=1 n=a5 v=0
211915 On ch=1 n=d#6 v=0
211950 On ch=1 n=c6 v=58
211990 On ch=1 n=c6 v=0
212025 On ch=1 n=g#5 v=48
212030 On ch=1 n=d5 v=46
212030 On ch=1 n=b4 v=34
212060 On ch=1 n=d5 v=0
212065 On ch=1 n=b4 v=0
212080 On ch=1 n=g#5 v=0
212100 On ch=1 n=f5 v=45
212150 On ch=1 n=f5 v=0
212180 On ch=1 n=d#5 v=32
212180 On ch=1 n=a5 v=49
212185 On ch=1 n=c5 v=39
212205 On ch=1 n=c5 v=0
212215 On ch=1 n=a5 v=0
212250 On ch=1 n=f#6 v=61
212290 On ch=1 n=f#6 v=0
212310 On ch=1 n=d#5 v=0
212345 On ch=1 n=f6 v=66
212345 On ch=1 n=a#5 v=42
212345 On ch=1 n=d5 v=53
212360 On ch=1 n=d5 v=0
212375 On ch=1 n=f6 v=0
212380 On ch=1 n=a#5 v=0
212380 Par ch=1 c=64 v=40
212390 Par ch=1 c=64 v=72
212395 Par ch=1 c=64 v=104
212400 Par ch=1 c=64 v=0
212510 On ch=1 n=d4 v=51
212520 On ch=1 n=a#4 v=27
212530 On ch=1 n=f4 v=37
212555 On ch=1 n=d4 v=0
212585 On ch=1 n=f4 v=0
212585 On ch=1 n=a#4 v=0
212595 On ch=1 n=d5 v=34
212620 On ch=1 n=d5 v=0
212675 On ch=1 n=c4 v=60
212680 On ch=1 n=a#4 v=25
212685 On ch=1 n=f#4 v=29
212715 On ch=1 n=c4 v=0
212725 On ch=1 n=f#4 v=0
212730 On ch=1 n=a#4 v=0
212750 On ch=1 n=d5 v=40
212775 On ch=1 n=d5 v=0
212830 On ch=1 n=a#4 v=30
212830 On ch=1 n=b3 v=54
212840 On ch=1 n=g4 v=42
212865 On ch=1 n=b3 v=0
212875 On ch=1 n=g4 v=0
212895 On ch=1 n=a#4 v=0
212910 On ch=1 n=d5 v=34
212955 On ch=1 n=d5 v=0
212990 On ch=1 n=a#3 v=60
212995 On ch=1 n=a#4 v=36
213005 On ch=1 n=f4 v=32
213025 On ch=1 n=a#3 v=0
213030 On ch=1 n=f4 v=0
213055 On ch=1 n=a#4 v=0
213075 On ch=1 n=d5 v=43
213095 On ch=1 n=d5 v=0
213150 On ch=1 n=d4 v=51
213155 On ch=1 n=a#4 v=32
213165 On ch=1 n=f4 v=40
213185 On ch=1 n=d4 v=0
213205 On ch=1 n=a#4 v=0
213210 On ch=1 n=f4 v=0
213230 On ch=1 n=d5 v=35
213260 On ch=1 n=d5 v=0
213300 On ch=1 n=c4 v=62
213305 On ch=1 n=a#4 v=30
213305 On ch=1 n=f#4 v=34
213350 On ch=1 n=c4 v=0
213360 On ch=1 n=f#4 v=0
213365 On ch=1 n=a#4 v=0
213380 On ch=1 n=b3 v=53
213380 On ch=1 n=d5 v=42
213425 On ch=1 n=b3 v=0
213435 On ch=1 n=d5 v=0
213450 On ch=1 n=a#3 v=56
213455 On ch=1 n=a#4 v=39
213460 On ch=1 n=g4 v=36
213485 On ch=1 n=a#3 v=0
213510 On ch=1 n=g4 v=0
213515 On ch=1 n=a#4 v=0
213530 On ch=1 n=d5 v=39
213580 On ch=1 n=d5 v=0
213615 On ch=1 n=a4 v=36
213620 On ch=1 n=f#4 v=32
213645 On ch=1 n=d#5 v=43
213650 On ch=1 n=a4 v=0
213655 On ch=1 n=f#4 v=0
213660 Par ch=1 c=64 v=24
213670 On ch=1 n=d#5 v=0
213670 Par ch=1 c=64 v=56
213675 Par ch=1 c=64 v=88
213680 Par ch=1 c=64 v=104
213690 Par ch=1 c=64 v=127
213790 Par ch=1 c=64 v=88
213800 On ch=1 n=d#7 v=59
213800 Par ch=1 c=64 v=56
213805 On ch=1 n=a6 v=48
213805 On ch=1 n=f#6 v=45
213805 Par ch=1 c=64 v=40
213810 Par ch=1 c=64 v=0
213820 On ch=1 n=f#6 v=0
213825 On ch=1 n=a6 v=0
213845 On ch=1 n=d#7 v=0
213880 On ch=1 n=c7 v=62
213920 On ch=1 n=c7 v=0
213950 On ch=1 n=g#6 v=55
213960 On ch=1 n=b5 v=32
213965 On ch=1 n=d6 v=33
213985 On ch=1 n=b5 v=0
213990 On ch=1 n=d6 v=0
213995 On ch=1 n=g#6 v=0
214035 On ch=1 n=f6 v=45
214060 On ch=1 n=f6 v=0
214115 On ch=1 n=a6 v=59
214120 On ch=1 n=d#6 v=42
214145 On ch=1 n=d#6 v=0
214150 On ch=1 n=a6 v=0
214190 On ch=1 n=f#6 v=45
214240 On ch=1 n=f#6 v=0
214270 On ch=1 n=d6 v=60
214270 On ch=1 n=f5 v=37
214275 On ch=1 n=g#5 v=27
214295 On ch=1 n=g#5 v=0
214295 On ch=1 n=f5 v=0
214315 On ch=1 n=d6 v=0
214350 On ch=1 n=b5 v=40
214385 On ch=1 n=b5 v=0
214425 On ch=1 n=d#6 v=53
214435 On ch=1 n=f#5 v=33
214440 On ch=1 n=a5 v=33
214455 On ch=1 n=a5 v=0
214455 On ch=1 n=f#5 v=0
214470 On ch=1 n=d#6 v=0
214505 On ch=1 n=c6 v=52
214540 On ch=1 n=c6 v=0
214585 On ch=1 n=d5 v=49
214585 On ch=1 n=g#5 v=50
214590 On ch=1 n=b4 v=31
214610 On ch=1 n=d5 v=0
214615 On ch=1 n=b4 v=0
214630 On ch=1 n=g#5 v=0
214665 On ch=1 n=f5 v=49
214745 On ch=1 n=a5 v=29
214750 On ch=1 n=d#5 v=37
214765 On ch=1 n=d#5 v=0
214765 On ch=1 n=c5 v=25
214775 On ch=1 n=c5 v=0
214775 On ch=1 n=f5 v=0
214775 Par ch=1 c=64 v=24
214780 Par ch=1 c=64 v=56
214785 Par ch=1 c=64 v=72
214790 Par ch=1 c=64 v=88
214800 Par ch=1 c=64 v=104
214815 On ch=1 n=a5 v=0
214825 On ch=1 n=f#6 v=62
214825 Par ch=1 c=64 v=127
214840 On ch=1 n=f#6 v=0
214905 On ch=1 n=a#3 v=32
214910 Par ch=1 c=64 v=104
214915 Par ch=1 c=64 v=72
214920 On ch=1 n=d#4 v=33
214920 Par ch=1 c=64 v=40
214930 Par ch=1 c=64 v=0
214935 On ch=1 n=f#5 v=59
214945 On ch=1 n=c5 v=53
214955 On ch=1 n=a4 v=45
214965 On ch=1 n=c5 v=0
214980 Par ch=1 c=64 v=40
214985 On ch=1 n=a#3 v=0
214985 Par ch=1 c=64 v=104
214990 On ch=1 n=f#5 v=0
214990 Par ch=1 c=64 v=127
214995 On ch=1 n=a4 v=0
214995 On ch=1 n=d#4 v=0
215130 On ch=1 n=f#7 v=60
215140 On ch=1 n=c7 v=53
215140 On ch=1 n=a6 v=26
215155 On ch=1 n=a6 v=0
215165 On ch=1 n=c7 v=0
215170 Par ch=1 c=64 v=104
215180 On ch=1 n=f#7 v=0
215180 Par ch=1 c=64 v=72
215185 Par ch=1 c=64 v=56
215190 Par ch=1 c=64 v=24
215200 Par ch=1 c=64 v=0
215205 On ch=1 n=d#7 v=63
215255 On ch=1 n=d#7 v=0
215295 On ch=1 n=b6 v=62
215300 On ch=1 n=f6 v=35
215300 On ch=1 n=d6 v=41
215345 On ch=1 n=d6 v=0
215345 On ch=1 n=f6 v=0
215345 On ch=1 n=b6 v=0
215375 On ch=1 n=g#6 v=49
215395 On ch=1 n=g#6 v=0
215460 On ch=1 n=c7 v=59
215460 On ch=1 n=f#6 v=43
215465 On ch=1 n=d#6 v=33
215480 On ch=1 n=d#6 v=0
215490 On ch=1 n=f#6 v=0
215505 On ch=1 n=c7 v=0
215535 On ch=1 n=a6 v=53
215585 On ch=1 n=a6 v=0
215620 On ch=1 n=b5 v=42
215620 On ch=1 n=g#5 v=32
215630 On ch=1 n=f6 v=66
215655 On ch=1 n=b5 v=0
215660 On ch=1 n=f6 v=0
215660 On ch=1 n=g#5 v=0
215705 On ch=1 n=d6 v=41
215725 On ch=1 n=d6 v=0
215780 On ch=1 n=f#6 v=54
215780 On ch=1 n=c6 v=40
215790 On ch=1 n=a5 v=24
215800 On ch=1 n=c6 v=0
215805 On ch=1 n=a5 v=0
215825 On ch=1 n=f#6 v=0
215855 On ch=1 n=d#6 v=40
215870 On ch=1 n=d#6 v=0
215940 On ch=1 n=d5 v=34
215945 On ch=1 n=f5 v=34
215945 On ch=1 n=b5 v=40
215965 On ch=1 n=d5 v=0
215970 On ch=1 n=f5 v=0
215995 On ch=1 n=b5 v=0
216015 On ch=1 n=g#5 v=37
216050 On ch=1 n=g#5 v=0
216100 On ch=1 n=c6 v=56
216100 On ch=1 n=f#5 v=29
216115 On ch=1 n=d#5 v=23
216130 On ch=1 n=d#5 v=0
216130 On ch=1 n=f#5 v=0
216130 On ch=1 n=c6 v=0
216185 On ch=1 n=a6 v=49
216220 On ch=1 n=a6 v=0
216275 On ch=1 n=a5 v=58
216280 On ch=1 n=d#5 v=36
216280 On ch=1 n=a#3 v=40
216295 On ch=1 n=c5 v=25
216295 On ch=1 n=f#4 v=29
216300 Par ch=1 c=64 v=56
216305 Par ch=1 c=64 v=104
216310 On ch=1 n=d#5 v=0
216310 Par ch=1 c=64 v=127
216315 On ch=1 n=a5 v=0
216320 On ch=1 n=a#3 v=0
216330 On ch=1 n=f#4 v=0
216340 On ch=1 n=c5 v=0
216470 On ch=1 n=a7 v=65
216480 On ch=1 n=d#7 v=39
216485 On ch=1 n=c7 v=31
216500 On ch=1 n=c7 v=0
216505 On ch=1 n=d#7 v=0
216505 On ch=1 n=a7 v=0
216525 Par ch=1 c=64 v=88
216530 Par ch=1 c=64 v=56
216540 Par ch=1 c=64 v=40
216545 On ch=1 n=f#7 v=51
216545 Par ch=1 c=64 v=24
216550 Par ch=1 c=64 v=0
216600 On ch=1 n=f#7 v=0
216625 On ch=1 n=d7 v=61
216630 On ch=1 n=f6 v=43
216650 On ch=1 n=f6 v=0
216670 On ch=1 n=d7 v=0
216700 On ch=1 n=b6 v=54
216745 On ch=1 n=b6 v=0
216775 On ch=1 n=d#7 v=57
216785 On ch=1 n=f#6 v=38
216785 On ch=1 n=a6 v=39
216800 On ch=1 n=a6 v=0
216800 On ch=1 n=f#6 v=0
216840 On ch=1 n=d#7 v=0
216855 On ch=1 n=c7 v=65
216865 On ch=1 n=c7 v=0
216935 On ch=1 n=f#7 v=40
216940 On ch=1 n=d#7 v=40
216940 On ch=1 n=c8 v=55
216970 On ch=1 n=d#7 v=0
216970 On ch=1 n=f#7 v=0
216980 On ch=1 n=c8 v=0
217020 On ch=1 n=a7 v=56
217065 On ch=1 n=a7 v=0
217095 On ch=1 n=f7 v=59
217100 On ch=1 n=b6 v=39
217105 On ch=1 n=g#6 v=26
217115 On ch=1 n=b6 v=0
217120 On ch=1 n=g#6 v=0
217140 On ch=1 n=f7 v=0
217170 On ch=1 n=d7 v=47
217240 On ch=1 n=d7 v=0
217245 On ch=1 n=f#7 v=57
217250 On ch=1 n=c7 v=52
217250 On ch=1 n=a6 v=37
217260 On ch=1 n=c7 v=0
217265 On ch=1 n=a6 v=0
217295 On ch=1 n=f#7 v=0
217320 On ch=1 n=d#7 v=62
217335 On ch=1 n=d#7 v=0
217400 On ch=1 n=f#7 v=46
217400 On ch=1 n=d#8 v=63
217410 On ch=1 n=a7 v=49
217425 On ch=1 n=a7 v=0
217430 On ch=1 n=f#7 v=0
217445 On ch=1 n=d#8 v=0
217475 On ch=1 n=c8 v=71
217525 On ch=1 n=c8 v=0
217550 On ch=1 n=g#7 v=61
217550 On ch=1 n=b6 v=54
217550 On ch=1 n=d7 v=51
217565 On ch=1 n=d7 v=0
217565 On ch=1 n=b6 v=0
217595 On ch=1 n=g#7 v=0
217625 On ch=1 n=f7 v=59
217665 On ch=1 n=f7 v=0
217705 On ch=1 n=d#7 v=50
217710 On ch=1 n=a7 v=61
217720 On ch=1 n=c7 v=40
217730 On ch=1 n=c7 v=0
217740 On ch=1 n=d#7 v=0
217760 On ch=1 n=a7 v=0
217780 On ch=1 n=f#7 v=44
217850 On ch=1 n=f#7 v=0
217865 On ch=1 n=e8 v=61
217865 On ch=1 n=b6 v=41
217875 On ch=1 n=g#6 v=30
217890 On ch=1 n=g#6 v=0
217895 On ch=1 n=b6 v=0
217910 On ch=1 n=e8 v=0
217940 On ch=1 n=d#7 v=51
217970 On ch=1 n=d#7 v=0
218010 On ch=1 n=f8 v=70
218020 On ch=1 n=c7 v=48
218030 On ch=1 n=a6 v=33
218045 On ch=1 n=a6 v=0
218045 On ch=1 n=f8 v=0
218050 On ch=1 n=c7 v=0
218090 On ch=1 n=d#7 v=49
218145 On ch=1 n=d#7 v=0
218170 On ch=1 n=e8 v=76
218175 On ch=1 n=b6 v=56
218180 On ch=1 n=g#6 v=32
218195 On ch=1 n=g#6 v=0
218205 On ch=1 n=b6 v=0
218215 On ch=1 n=e8 v=0
218245 On ch=1 n=d#7 v=46
218280 On ch=1 n=d#7 v=0
218320 On ch=1 n=f8 v=70
218325 On ch=1 n=c7 v=58
218350 On ch=1 n=c7 v=0
218355 On ch=1 n=f8 v=0
218405 On ch=1 n=d#7 v=49
218445 On ch=1 n=d#7 v=0
218475 On ch=1 n=e8 v=66
218480 On ch=1 n=b6 v=45
218480 On ch=1 n=g#6 v=38
218500 On ch=1 n=g#6 v=0
218510 On ch=1 n=b6 v=0
218515 On ch=1 n=e8 v=0
218550 On ch=1 n=d#7 v=35
218580 On ch=1 n=d#7 v=0
218620 On ch=1 n=f8 v=64
218620 On ch=1 n=c7 v=57
218635 On ch=1 n=a6 v=21
218650 On ch=1 n=a6 v=0
218655 On ch=1 n=c7 v=0
218660 On ch=1 n=f8 v=0
218690 On ch=1 n=d#7 v=35
218715 On ch=1 n=d#7 v=0
218780 On ch=1 n=f8 v=63
218795 On ch=1 n=a#6 v=32
218795 On ch=1 n=d7 v=25
218810 Par ch=1 c=64 v=56
218815 Par ch=1 c=64 v=88
218820 On ch=1 n=d7 v=0
218820 On ch=1 n=f8 v=0
218820 Par ch=1 c=64 v=127
218830 On ch=1 n=a#6 v=0
218940 On ch=1 n=f#7 v=48
218945 On ch=1 n=d8 v=58
218975 On ch=1 n=d8 v=0
218990 On ch=1 n=f#7 v=0
219010 On ch=1 n=a#7 v=56
219010 On ch=1 n=f7 v=50
219050 On ch=1 n=f7 v=0
219050 On ch=1 n=a#7 v=0
219085 On ch=1 n=d7 v=48
219085 On ch=1 n=f#7 v=43
219135 On ch=1 n=d7 v=0
219155 On ch=1 n=f#7 v=0
219165 On ch=1 n=f7 v=61
219165 On ch=1 n=a#6 v=27
219175 On ch=1 n=f7 v=0
219225 On ch=1 n=a#6 v=0
219235 On ch=1 n=f#6 v=46
219240 On ch=1 n=d7 v=25
219260 On ch=1 n=d7 v=0
219280 On ch=1 n=f#6 v=0
219305 On ch=1 n=a#6 v=43
219305 On ch=1 n=f6 v=49
219325 On ch=1 n=f6 v=0
219345 On ch=1 n=a#6 v=0
219375 On ch=1 n=d6 v=54
219375 On ch=1 n=f#6 v=46
219405 On ch=1 n=d6 v=0
219430 On ch=1 n=f#6 v=0
219440 Par ch=1 c=64 v=88
219445 On ch=1 n=f6 v=50
219445 Par ch=1 c=64 v=56
219450 On ch=1 n=a#5 v=28
219450 Par ch=1 c=64 v=24
219460 Par ch=1 c=64 v=0
219495 Par ch=1 c=64 v=40
219500 Par ch=1 c=64 v=88
219505 Par ch=1 c=64 v=127
219510 On ch=1 n=a#5 v=0
219515 On ch=1 n=f#6 v=54
219520 On ch=1 n=f6 v=0
219530 On ch=1 n=d6 v=26
219580 On ch=1 n=d6 v=0
219580 On ch=1 n=f#6 v=0
219595 On ch=1 n=f6 v=44
219620 On ch=1 n=f6 v=0
219660 On ch=1 n=a#6 v=50
219660 On ch=1 n=d7 v=59
219690 On ch=1 n=d7 v=0
219710 On ch=1 n=a#6 v=0
219730 On ch=1 n=f7 v=57
219730 On ch=1 n=c#7 v=39
219760 On ch=1 n=f7 v=0
219785 On ch=1 n=c#7 v=0
219805 On ch=1 n=f#7 v=51
219805 On ch=1 n=d7 v=53
219845 On ch=1 n=f#7 v=0
219850 On ch=1 n=d7 v=0
219870 On ch=1 n=a#7 v=62
219880 On ch=1 n=f7 v=49
219920 On ch=1 n=a#7 v=0
219935 On ch=1 n=f7 v=0
219965 On ch=1 n=d8 v=53
219965 On ch=1 n=a#7 v=40
219985 On ch=1 n=a#7 v=0
219990 On ch=1 n=d8 v=0
220110 Par ch=1 c=64 v=104
220115 On ch=1 n=d7 v=53
220115 Par ch=1 c=64 v=56
220120 On ch=1 n=f#6 v=51
220120 Par ch=1 c=64 v=24
220125 Par ch=1 c=64 v=0
220170 On ch=1 n=d7 v=0
220170 Par ch=1 c=64 v=24
220175 On ch=1 n=f#6 v=0
220175 Par ch=1 c=64 v=72
220180 Par ch=1 c=64 v=127
220190 On ch=1 n=f6 v=61
220195 On ch=1 n=a#6 v=53
220235 On ch=1 n=f6 v=0
220250 On ch=1 n=a#6 v=0
220270 On ch=1 n=f#6 v=44
220280 On ch=1 n=d6 v=39
220320 On ch=1 n=d6 v=0
220335 On ch=1 n=f#6 v=0
220345 On ch=1 n=f6 v=66
220350 On ch=1 n=a#5 v=28
220360 On ch=1 n=f6 v=0
220410 On ch=1 n=a#5 v=0
220415 On ch=1 n=f#5 v=43
220425 On ch=1 n=d6 v=38
220465 On ch=1 n=f#5 v=0
220475 On ch=1 n=d6 v=0
220490 On ch=1 n=f5 v=52
220490 On ch=1 n=a#5 v=46
220525 On ch=1 n=f5 v=0
220540 On ch=1 n=a#5 v=0
220565 On ch=1 n=d5 v=44
220570 On ch=1 n=f#5 v=31
220580 Par ch=1 c=64 v=88
220585 Par ch=1 c=64 v=56
220595 Par ch=1 c=64 v=40
220600 Par ch=1 c=64 v=0
220625 On ch=1 n=f#5 v=0
220635 On ch=1 n=d5 v=0
220635 On ch=1 n=a#4 v=37
220640 On ch=1 n=f5 v=43
220685 Par ch=1 c=64 v=56
220690 Par ch=1 c=64 v=88
220700 Par ch=1 c=64 v=127
220705 On ch=1 n=f5 v=0
220705 On ch=1 n=f#5 v=54
220710 On ch=1 n=a#4 v=0
220725 On ch=1 n=d5 v=24
220770 On ch=1 n=d5 v=0
220770 On ch=1 n=f#5 v=0
220775 On ch=1 n=a#5 v=56
220785 On ch=1 n=f5 v=43
220800 On ch=1 n=a#5 v=0
220820 On ch=1 n=f5 v=0
220850 On ch=1 n=d6 v=61
220855 On ch=1 n=a#5 v=37
220875 On ch=1 n=d6 v=0
220910 On ch=1 n=a#5 v=0
220915 On ch=1 n=f6 v=62
220925 On ch=1 n=c#6 v=46
220955 On ch=1 n=f6 v=0
220980 On ch=1 n=c#6 v=0
220985 On ch=1 n=f#6 v=58
220995 On ch=1 n=d6 v=55
221025 On ch=1 n=f#6 v=0
221035 On ch=1 n=d6 v=0
221060 On ch=1 n=a#6 v=55
221065 On ch=1 n=f6 v=41
221105 On ch=1 n=a#6 v=0
221120 On ch=1 n=f6 v=0
221135 Par ch=1 c=64 v=88
221140 Par ch=1 c=64 v=24
221145 On ch=1 n=d7 v=65
221145 Par ch=1 c=64 v=0
221150 On ch=1 n=a#6 v=38
221170 Par ch=1 c=64 v=56
221175 On ch=1 n=a#6 v=0
221175 On ch=1 n=d7 v=0
221175 Par ch=1 c=64 v=104
221180 Par ch=1 c=64 v=127
221285 On ch=1 n=f#5 v=34
221285 On ch=1 n=d6 v=47
221295 Par ch=1 c=64 v=56
221300 Par ch=1 c=64 v=88
221305 Par ch=1 c=64 v=104
221310 Par ch=1 c=64 v=127
221335 On ch=1 n=d6 v=0
221350 On ch=1 n=f#5 v=0
221365 On ch=1 n=a#5 v=44
221365 On ch=1 n=f5 v=44
221400 On ch=1 n=a#5 v=0
221415 On ch=1 n=f5 v=0
221435 On ch=1 n=d5 v=44
221440 On ch=1 n=f#5 v=36
221480 On ch=1 n=d5 v=0
221495 On ch=1 n=f#5 v=0
221515 On ch=1 n=f5 v=53
221515 On ch=1 n=a#4 v=36
221540 On ch=1 n=f5 v=0
221570 On ch=1 n=a#4 v=0
221590 On ch=1 n=d5 v=55
221600 On ch=1 n=f#4 v=23
221635 On ch=1 n=d5 v=0
221650 On ch=1 n=f#4 v=0
221655 Par ch=1 c=64 v=88
221660 Par ch=1 c=64 v=40
221665 On ch=1 n=a#4 v=37
221665 Par ch=1 c=64 v=0
221670 On ch=1 n=f4 v=45
221725 On ch=1 n=a#4 v=0
221735 On ch=1 n=f4 v=0
221740 On ch=1 n=f#4 v=42
221745 On ch=1 n=d5 v=38
221785 On ch=1 n=d5 v=0
221805 On ch=1 n=f#4 v=0
221815 On ch=1 n=f5 v=51
221820 On ch=1 n=a#4 v=26
221820 Par ch=1 c=64 v=24
221825 Par ch=1 c=64 v=40
221830 Par ch=1 c=64 v=56
221835 Par ch=1 c=64 v=72
221865 On ch=1 n=f5 v=0
221885 On ch=1 n=a#4 v=0
221885 On ch=1 n=f#5 v=45
221885 Par ch=1 c=64 v=104
221890 Par ch=1 c=64 v=127
221895 On ch=1 n=d5 v=39
221910 On ch=1 n=d5 v=0
221935 On ch=1 n=f#5 v=0
221960 On ch=1 n=f5 v=47
221960 On ch=1 n=a#5 v=58
221985 On ch=1 n=a#5 v=0
222010 On ch=1 n=f5 v=0
222030 On ch=1 n=f#5 v=32
222030 On ch=1 n=d6 v=58
222045 Par ch=1 c=64 v=88
222050 On ch=1 n=d6 v=0
222050 Par ch=1 c=64 v=40
222055 Par ch=1 c=64 v=0
222080 Par ch=1 c=64 v=40
222085 Par ch=1 c=64 v=72
222090 Par ch=1 c=64 v=104
222095 On ch=1 n=f#5 v=0
222095 Par ch=1 c=64 v=127
222100 On ch=1 n=f6 v=56
222100 On ch=1 n=a#5 v=38
222120 On ch=1 n=f6 v=0
222170 On ch=1 n=f#6 v=51
222180 On ch=1 n=a#5 v=0
222185 On ch=1 n=d6 v=38
222200 On ch=1 n=d6 v=0
222225 On ch=1 n=f#6 v=0
222240 On ch=1 n=a#6 v=49
222250 On ch=1 n=a#6 v=0
222255 On ch=1 n=f6 v=36
222280 On ch=1 n=f6 v=0
222315 On ch=1 n=d7 v=54
222315 On ch=1 n=f#6 v=44
222335 On ch=1 n=d7 v=0
222380 On ch=1 n=f#6 v=0
222385 On ch=1 n=f7 v=64
222390 On ch=1 n=a#6 v=36
222425 On ch=1 n=f7 v=0
222455 On ch=1 n=f#7 v=67
222455 On ch=1 n=d7 v=40
222460 On ch=1 n=a#6 v=0
222505 On ch=1 n=d7 v=0
222510 On ch=1 n=f#7 v=0
222535 On ch=1 n=a#7 v=58
222535 On ch=1 n=f7 v=63
222570 On ch=1 n=f7 v=0
222580 On ch=1 n=a#7 v=0
222610 On ch=1 n=d8 v=58
222625 On ch=1 n=f#7 v=23
222665 On ch=1 n=d8 v=0
222670 On ch=1 n=f#7 v=0
222680 On ch=1 n=a#7 v=50
222690 On ch=1 n=f7 v=44
222725 On ch=1 n=f7 v=0
222740 On ch=1 n=a#7 v=0
222750 On ch=1 n=f#7 v=47
222760 On ch=1 n=d7 v=29
222785 On ch=1 n=d7 v=0
222805 On ch=1 n=f#7 v=0
222820 On ch=1 n=f7 v=52
222825 On ch=1 n=a#6 v=27
222830 Par ch=1 c=64 v=56
222865 On ch=1 n=f7 v=0
222885 On ch=1 n=d8 v=59
222890 On ch=1 n=a#6 v=0
222890 On ch=1 n=f#7 v=35
222900 Par ch=1 c=64 v=88
222905 Par ch=1 c=64 v=104
222910 Par ch=1 c=64 v=127
222930 On ch=1 n=f#7 v=0
222940 On ch=1 n=d8 v=0
222955 On ch=1 n=a#7 v=46
222960 On ch=1 n=f7 v=39
222995 On ch=1 n=a#7 v=0
223000 On ch=1 n=f7 v=0
223020 On ch=1 n=f#7 v=49
223030 On ch=1 n=d7 v=32
223050 On ch=1 n=d7 v=0
223060 On ch=1 n=f#7 v=0
223085 On ch=1 n=f7 v=52
223085 On ch=1 n=a#6 v=33
223115 On ch=1 n=f7 v=0
223145 On ch=1 n=a#6 v=0
223155 On ch=1 n=d8 v=61
223155 On ch=1 n=f#7 v=35
223195 On ch=1 n=f#7 v=0
223200 On ch=1 n=d8 v=0
223225 On ch=1 n=a#7 v=43
223225 On ch=1 n=f7 v=36
223260 On ch=1 n=a#7 v=0
223270 On ch=1 n=f7 v=0
223295 On ch=1 n=f#7 v=34
223300 On ch=1 n=d7 v=26
223325 On ch=1 n=d7 v=0
223335 On ch=1 n=f#7 v=0
223360 On ch=1 n=a#6 v=35
223365 On ch=1 n=f7 v=43
223395 On ch=1 n=f7 v=0
223410 On ch=1 n=a#6 v=0
223430 On ch=1 n=d8 v=63
223430 On ch=1 n=f#7 v=38
223470 On ch=1 n=f#7 v=0
223475 On ch=1 n=d8 v=0
223495 On ch=1 n=a#7 v=44
223500 On ch=1 n=f7 v=40
223535 On ch=1 n=a#7 v=0
223540 On ch=1 n=f7 v=0
223560 On ch=1 n=f#7 v=42
223570 On ch=1 n=d7 v=37
223590 On ch=1 n=d7 v=0
223605 On ch=1 n=f#7 v=0
223625 On ch=1 n=a#6 v=37
223625 On ch=1 n=f7 v=49
223660 On ch=1 n=f7 v=0
223670 On ch=1 n=a#6 v=0
223700 On ch=1 n=d8 v=61
223700 On ch=1 n=f#7 v=37
223740 On ch=1 n=f#7 v=0
223745 On ch=1 n=d8 v=0
223770 On ch=1 n=a#7 v=50
223770 On ch=1 n=f7 v=42
223805 On ch=1 n=f7 v=0
223810 On ch=1 n=a#7 v=0
223845 On ch=1 n=f#7 v=44
223850 On ch=1 n=d7 v=37
223865 On ch=1 n=d7 v=0
223890 On ch=1 n=a#6 v=43
223900 On ch=1 n=a#6 v=0
223900 On ch=1 n=f#7 v=0
223920 On ch=1 n=f7 v=52
223935 On ch=1 n=f7 v=0
223980 On ch=1 n=f5 v=29
223985 Par ch=1 c=64 v=88
223990 Par ch=1 c=64 v=40
223995 Par ch=1 c=64 v=0
224000 On ch=1 n=a#5 v=48
224015 Par ch=1 c=64 v=56
224020 On ch=1 n=f5 v=0
224020 Par ch=1 c=64 v=104
224025 Par ch=1 c=64 v=127
224035 On ch=1 n=f6 v=45
224040 On ch=1 n=a#5 v=0
224045 On ch=1 n=d7 v=45
224050 On ch=1 n=f6 v=0
224075 On ch=1 n=d7 v=0
224080 On ch=1 n=a#7 v=55
224135 On ch=1 n=a#7 v=0
224145 On ch=1 n=f8 v=70
224170 On ch=1 n=f8 v=0
224630 On ch=1 n=a#3 v=30
224635 Par ch=1 c=64 v=88
224640 Par ch=1 c=64 v=40
224645 Par ch=1 c=64 v=0
224665 Par ch=1 c=64 v=72
224670 Par ch=1 c=64 v=127
224685 On ch=1 n=f4 v=38
224690 On ch=1 n=a#3 v=0
224705 On ch=1 n=f4 v=0
224750 On ch=1 n=d5 v=42
224795 On ch=1 n=d5 v=0
225150 Par ch=1 c=64 v=104
225155 Par ch=1 c=64 v=88
225160 Par ch=1 c=64 v=56
225165 Par ch=1 c=64 v=24
225175 Par ch=1 c=64 v=0
225175 Meta TrkEnd
TrkEnd
MTrk
0 SeqSpec 43 00 01 00
0 KeySig 0 major
0 Meta TrkEnd
TrkEnd
MTrk
0 SeqSpec 43 00 01 00
0 KeySig 0 major
0 Meta TrkEnd
TrkEnd
MTrk
0 SeqSpec 43 00 01 00
0 KeySig 0 major
0 Meta TrkEnd
TrkEnd
MTrk
0 SeqSpec 43 00 01 00
0 KeySig 0 major
0 Meta TrkEnd
TrkEnd
MTrk
0 SeqSpec 43 00 01 00
0 KeySig 0 major
0 Meta TrkEnd
TrkEnd
MTrk
0 SeqSpec 43 00 01 00
0 KeySig 0 major
0 Meta TrkEnd
TrkEnd
MTrk
0 SeqSpec 43 00 01 00
0 KeySig 0 major
0 Meta TrkEnd
TrkEnd
MTrk
0 SeqSpec 43 00 01 00
0 KeySig 0 major
0 Meta TrkEnd
TrkEnd
MTrk
0 SeqSpec 43 00 01 00
0 KeySig 0 major
0 Meta TrkEnd
TrkEnd
