MFile 0 1 480
MTrk
0 TimeSig 6/8 12 8
0 Tempo 240000
0 Par ch=1 c=0 v=5
0 Par ch=1 c=32 v=87
0 PrCh ch=1 p=0
0 Par ch=1 c=7 v=100
2 Par ch=1 c=99 v=1
2 Par ch=1 c=98 v=8
2 Par ch=1 c=6 v=64
3 Par ch=1 c=99 v=1
3 Par ch=1 c=98 v=9
3 Par ch=1 c=6 v=64
4 Par ch=1 c=99 v=1
4 Par ch=1 c=98 v=10
4 Par ch=1 c=6 v=64
5 Par ch=1 c=99 v=1
5 Par ch=1 c=98 v=32
5 Par ch=1 c=6 v=64
6 Par ch=1 c=99 v=1
6 Par ch=1 c=98 v=33
6 Par ch=1 c=6 v=64
7 Par ch=1 c=99 v=1
7 Par ch=1 c=98 v=99
7 Par ch=1 c=6 v=64
8 Par ch=1 c=99 v=1
8 Par ch=1 c=98 v=100
8 Par ch=1 c=6 v=64
9 Par ch=1 c=99 v=1
9 Par ch=1 c=98 v=102
9 Par ch=1 c=6 v=64
11 Par ch=1 c=0 v=0
11 Par ch=1 c=32 v=0
11 PrCh ch=1 p=0
12 Par ch=1 c=7 v=100
13 Par ch=1 c=10 v=64
14 Par ch=1 c=91 v=40
15 Par ch=1 c=93 v=0
16 Par ch=1 c=5 v=0
17 Par ch=1 c=101 v=0
17 Par ch=1 c=100 v=0
17 Par ch=1 c=6 v=2
229 Tempo 240000
232 Par ch=1 c=64 v=0
1440 Tempo 1714286
1440 Par ch=1 c=7 v=100
1440 On ch=1 n=d4 v=64
1440 On ch=1 n=a#3 v=64
1440 Par ch=1 c=64 v=96
1680 On ch=1 n=g2 v=64
1720 On ch=1 n=a#3 v=64
1758 On ch=1 n=a#3 v=0
1760 On ch=1 n=g4 v=64
1798 On ch=1 n=g4 v=0
1800 On ch=1 n=d5 v=64
1838 On ch=1 n=d5 v=0
1840 On ch=1 n=g4 v=64
1878 On ch=1 n=g4 v=0
1880 On ch=1 n=a#3 v=64
1880 Par ch=1 c=64 v=0
1918 On ch=1 n=a#3 v=0
1918 On ch=1 n=a#3 v=0
1918 On ch=1 n=g2 v=0
1918 On ch=1 n=d4 v=0
1920 On ch=1 n=a3 v=64
1920 On ch=1 n=c#4 v=64
1920 Par ch=1 c=64 v=96
2160 On ch=1 n=g2 v=64
2200 On ch=1 n=a3 v=64
2238 On ch=1 n=a3 v=0
2240 On ch=1 n=g4 v=64
2278 On ch=1 n=g4 v=0
2280 On ch=1 n=c#5 v=64
2318 On ch=1 n=c#5 v=0
2320 On ch=1 n=g4 v=64
2358 On ch=1 n=g4 v=0
2360 On ch=1 n=a3 v=64
2360 Par ch=1 c=64 v=0
2398 On ch=1 n=a3 v=0
2398 On ch=1 n=a3 v=0
2398 On ch=1 n=g2 v=0
2398 On ch=1 n=c#4 v=0
2400 On ch=1 n=d4 v=64
2400 On ch=1 n=a#3 v=64
2400 Par ch=1 c=64 v=96
2640 On ch=1 n=g2 v=64
2680 On ch=1 n=a#3 v=64
2718 On ch=1 n=a#3 v=0
2720 On ch=1 n=g4 v=64
2758 On ch=1 n=g4 v=0
2760 On ch=1 n=d5 v=64
2798 On ch=1 n=d5 v=0
2800 On ch=1 n=g4 v=64
2838 On ch=1 n=g4 v=0
2840 On ch=1 n=a#3 v=64
2840 Par ch=1 c=64 v=0
2878 On ch=1 n=a#3 v=0
2878 On ch=1 n=a#3 v=0
2878 On ch=1 n=g2 v=0
2878 On ch=1 n=d4 v=0
2880 On ch=1 n=a#3 v=64
2880 On ch=1 n=g3 v=64
2880 Par ch=1 c=64 v=96
3120 On ch=1 n=g2 v=64
3160 On ch=1 n=g3 v=64
3198 On ch=1 n=g3 v=0
3200 On ch=1 n=d4 v=64
3238 On ch=1 n=d4 v=0
3240 On ch=1 n=a#4 v=64
3278 On ch=1 n=a#4 v=0
3280 On ch=1 n=d4 v=64
3318 On ch=1 n=d4 v=0
3320 On ch=1 n=g3 v=64
3320 Par ch=1 c=64 v=0
3358 On ch=1 n=g3 v=0
3358 On ch=1 n=g3 v=0
3358 On ch=1 n=g2 v=0
3358 On ch=1 n=a#3 v=0
3360 On ch=1 n=d#4 v=64
3360 On ch=1 n=c4 v=64
3360 Par ch=1 c=64 v=96
3600 On ch=1 n=g2 v=64
3640 On ch=1 n=c4 v=64
3678 On ch=1 n=c4 v=0
3680 On ch=1 n=g4 v=64
3718 On ch=1 n=g4 v=0
3720 On ch=1 n=d#5 v=64
3758 On ch=1 n=d#5 v=0
3760 On ch=1 n=g4 v=64
3798 On ch=1 n=g4 v=0
3800 On ch=1 n=c4 v=64
3800 Par ch=1 c=64 v=0
3838 On ch=1 n=c4 v=0
3838 On ch=1 n=c4 v=0
3838 On ch=1 n=g2 v=0
3838 On ch=1 n=d#4 v=0
3840 On ch=1 n=d4 v=64
3840 On ch=1 n=a#3 v=64
3840 Par ch=1 c=64 v=96
4080 On ch=1 n=g2 v=64
4120 On ch=1 n=a#3 v=64
4158 On ch=1 n=a#3 v=0
4160 On ch=1 n=g4 v=64
4198 On ch=1 n=g4 v=0
4200 On ch=1 n=d5 v=64
4238 On ch=1 n=d5 v=0
4240 On ch=1 n=g4 v=64
4278 On ch=1 n=g4 v=0
4280 On ch=1 n=a#3 v=64
4280 Par ch=1 c=64 v=0
4318 On ch=1 n=a#3 v=0
4318 On ch=1 n=a#3 v=0
4318 On ch=1 n=g2 v=0
4318 On ch=1 n=d4 v=0
4320 On ch=1 n=c4 v=64
4320 On ch=1 n=a3 v=64
4320 On ch=1 n=f#3 v=64
4320 Par ch=1 c=64 v=96
4560 On ch=1 n=d#2 v=64
4600 On ch=1 n=a3 v=64
4638 On ch=1 n=a3 v=0
4640 On ch=1 n=f#4 v=64
4678 On ch=1 n=f#4 v=0
4680 On ch=1 n=c5 v=64
4718 On ch=1 n=c5 v=0
4720 On ch=1 n=f#4 v=64
4758 On ch=1 n=f#4 v=0
4760 On ch=1 n=a3 v=64
4760 Par ch=1 c=64 v=0
4798 On ch=1 n=a3 v=0
4798 On ch=1 n=a3 v=0
4798 On ch=1 n=d#2 v=0
4798 On ch=1 n=f#3 v=0
4798 On ch=1 n=c4 v=0
4800 On ch=1 n=a#3 v=64
4800 On ch=1 n=g3 v=64
4800 Par ch=1 c=64 v=96
5040 On ch=1 n=d#2 v=64
5080 On ch=1 n=g3 v=64
5118 On ch=1 n=g3 v=0
5120 On ch=1 n=d#4 v=64
5158 On ch=1 n=d#4 v=0
5160 On ch=1 n=a#4 v=64
5198 On ch=1 n=a#4 v=0
5200 On ch=1 n=d#4 v=64
5238 On ch=1 n=d#4 v=0
5240 On ch=1 n=g3 v=64
5240 Par ch=1 c=64 v=0
5278 On ch=1 n=g3 v=0
5278 On ch=1 n=g3 v=0
5278 On ch=1 n=d#2 v=0
5278 On ch=1 n=a#3 v=0
5280 On ch=1 n=d#3 v=64
5280 On ch=1 n=c3 v=64
5280 On ch=1 n=g#3 v=64
5280 Par ch=1 c=64 v=96
5520 On ch=1 n=d#2 v=64
5560 On ch=1 n=d#3 v=64
5598 On ch=1 n=d#3 v=0
5600 On ch=1 n=c4 v=64
5638 On ch=1 n=c4 v=0
5640 On ch=1 n=g#4 v=64
5678 On ch=1 n=g#4 v=0
5680 On ch=1 n=c4 v=64
5718 On ch=1 n=c4 v=0
5720 On ch=1 n=d#3 v=64
5720 Par ch=1 c=64 v=0
5758 On ch=1 n=d#3 v=0
5758 On ch=1 n=d#3 v=0
5758 On ch=1 n=d#2 v=0
5758 On ch=1 n=g#3 v=0
5758 On ch=1 n=c3 v=0
5760 On ch=1 n=d#3 v=64
5760 On ch=1 n=c3 v=64
5760 Par ch=1 c=64 v=96
6000 On ch=1 n=d#2 v=64
6040 On ch=1 n=c3 v=64
6078 On ch=1 n=c3 v=0
6080 On ch=1 n=g#3 v=64
6118 On ch=1 n=g#3 v=0
6120 On ch=1 n=d#4 v=64
6158 On ch=1 n=d#4 v=0
6160 On ch=1 n=g#3 v=64
6198 On ch=1 n=g#3 v=0
6200 On ch=1 n=c3 v=64
6200 Par ch=1 c=64 v=0
6238 On ch=1 n=c3 v=0
6238 On ch=1 n=c3 v=0
6238 On ch=1 n=d#2 v=0
6238 On ch=1 n=d#3 v=0
6240 On ch=1 n=g3 v=64
6240 On ch=1 n=d3 v=64
6240 On ch=1 n=a#2 v=64
6240 Par ch=1 c=64 v=96
6480 On ch=1 n=d2 v=64
6520 On ch=1 n=d3 v=64
6558 On ch=1 n=d3 v=0
6560 On ch=1 n=a#3 v=64
6598 On ch=1 n=a#3 v=0
6600 On ch=1 n=g4 v=64
6638 On ch=1 n=g4 v=0
6640 On ch=1 n=a#3 v=64
6678 On ch=1 n=a#3 v=0
6680 On ch=1 n=d3 v=64
6680 Par ch=1 c=64 v=0
6718 On ch=1 n=d3 v=0
6718 On ch=1 n=d3 v=0
6718 On ch=1 n=d2 v=0
6718 On ch=1 n=a#2 v=0
6718 On ch=1 n=g3 v=0
6720 Tempo 1714286
6720 On ch=1 n=a2 v=64
6720 On ch=1 n=d3 v=64
6720 On ch=1 n=f#3 v=64
6720 Par ch=1 c=64 v=96
6815 Tempo 1764706
6911 Tempo 1818182
6960 On ch=1 n=d2 v=64
7000 On ch=1 n=d3 v=64
7007 Tempo 1875000
7038 On ch=1 n=d3 v=0
7040 On ch=1 n=a3 v=64
7078 On ch=1 n=a3 v=0
7080 On ch=1 n=f#4 v=64
7103 Tempo 1935484
7118 On ch=1 n=f#4 v=0
7120 On ch=1 n=a3 v=64
7158 On ch=1 n=a3 v=0
7160 On ch=1 n=d3 v=64
7160 Par ch=1 c=64 v=0
7198 On ch=1 n=d3 v=0
7198 On ch=1 n=d3 v=0
7198 On ch=1 n=d2 v=0
7198 On ch=1 n=f#3 v=0
7198 On ch=1 n=a2 v=0
7199 Tempo 2000000
7200 Tempo 1714286
7200 On ch=1 n=d4 v=64
7200 On ch=1 n=a#3 v=64
7200 Par ch=1 c=64 v=96
7440 On ch=1 n=g2 v=64
7480 On ch=1 n=a#3 v=64
7518 On ch=1 n=a#3 v=0
7520 On ch=1 n=g4 v=64
7558 On ch=1 n=g4 v=0
7560 On ch=1 n=d5 v=64
7598 On ch=1 n=d5 v=0
7600 On ch=1 n=g4 v=64
7638 On ch=1 n=g4 v=0
7640 On ch=1 n=a#3 v=64
7640 Par ch=1 c=64 v=0
7678 On ch=1 n=a#3 v=0
7678 On ch=1 n=a#3 v=0
7678 On ch=1 n=g2 v=0
7678 On ch=1 n=d4 v=0
7680 On ch=1 n=a3 v=64
7680 On ch=1 n=c#4 v=64
7680 Par ch=1 c=64 v=96
7920 On ch=1 n=g2 v=64
7960 On ch=1 n=a3 v=64
7998 On ch=1 n=a3 v=0
8000 On ch=1 n=g4 v=64
8038 On ch=1 n=g4 v=0
8040 On ch=1 n=c#5 v=64
8078 On ch=1 n=c#5 v=0
8080 On ch=1 n=g4 v=64
8118 On ch=1 n=g4 v=0
8120 On ch=1 n=a3 v=64
8120 Par ch=1 c=64 v=0
8158 On ch=1 n=a3 v=0
8158 On ch=1 n=a3 v=0
8158 On ch=1 n=g2 v=0
8158 On ch=1 n=c#4 v=0
8160 On ch=1 n=d4 v=64
8160 On ch=1 n=a#3 v=64
8160 Par ch=1 c=64 v=96
8400 On ch=1 n=g2 v=64
8440 On ch=1 n=a#3 v=64
8478 On ch=1 n=a#3 v=0
8480 On ch=1 n=g4 v=64
8518 On ch=1 n=g4 v=0
8520 On ch=1 n=d5 v=64
8558 On ch=1 n=d5 v=0
8560 On ch=1 n=g4 v=64
8598 On ch=1 n=g4 v=0
8600 On ch=1 n=a#3 v=64
8600 Par ch=1 c=64 v=0
8638 On ch=1 n=a#3 v=0
8638 On ch=1 n=a#3 v=0
8638 On ch=1 n=g2 v=0
8638 On ch=1 n=d4 v=0
8640 On ch=1 n=a#3 v=64
8640 On ch=1 n=g3 v=64
8640 Par ch=1 c=64 v=96
8880 On ch=1 n=g2 v=64
8920 On ch=1 n=g3 v=64
8958 On ch=1 n=g3 v=0
8960 On ch=1 n=d4 v=64
8998 On ch=1 n=d4 v=0
9000 On ch=1 n=a#4 v=64
9038 On ch=1 n=a#4 v=0
9040 On ch=1 n=d4 v=64
9078 On ch=1 n=d4 v=0
9080 On ch=1 n=g3 v=64
9080 Par ch=1 c=64 v=0
9118 On ch=1 n=g3 v=0
9118 On ch=1 n=g3 v=0
9118 On ch=1 n=g2 v=0
9118 On ch=1 n=a#3 v=0
9120 On ch=1 n=a#3 v=64
9120 On ch=1 n=d#4 v=64
9120 Par ch=1 c=64 v=96
9360 On ch=1 n=f#2 v=64
9400 On ch=1 n=c4 v=64
9438 On ch=1 n=c4 v=0
9440 On ch=1 n=f#4 v=64
9478 On ch=1 n=f#4 v=0
9480 Par ch=1 c=7 v=100
9480 On ch=1 n=d#5 v=64
9518 On ch=1 n=d#5 v=0
9520 On ch=1 n=f#4 v=64
9558 On ch=1 n=f#4 v=0
9560 On ch=1 n=c4 v=64
9560 Par ch=1 c=64 v=0
9598 On ch=1 n=c4 v=0
9598 On ch=1 n=f#2 v=0
9598 On ch=1 n=d#4 v=0
9598 On ch=1 n=a#3 v=0
9599 Par ch=1 c=7 v=101
9600 On ch=1 n=a#3 v=64
9600 On ch=1 n=e4 v=64
9600 On ch=1 n=c#4 v=64
9600 Par ch=1 c=64 v=96
9719 Par ch=1 c=7 v=102
9839 Par ch=1 c=7 v=103
9840 On ch=1 n=f#2 v=64
9880 On ch=1 n=c#4 v=64
9918 On ch=1 n=c#4 v=0
9920 On ch=1 n=a#4 v=64
9958 On ch=1 n=a#4 v=0
9959 Par ch=1 c=7 v=104
9960 On ch=1 n=e5 v=64
9998 On ch=1 n=e5 v=0
10000 On ch=1 n=a#4 v=64
10038 On ch=1 n=a#4 v=0
10040 On ch=1 n=c#4 v=64
10040 Par ch=1 c=64 v=0
10078 On ch=1 n=c#4 v=0
10078 On ch=1 n=c#4 v=0
10078 On ch=1 n=f#2 v=0
10078 On ch=1 n=e4 v=0
10078 On ch=1 n=a#3 v=0
10079 Par ch=1 c=7 v=105
10080 On ch=1 n=f4 v=64
10080 On ch=1 n=d4 v=64
10080 On ch=1 n=a#3 v=64
10080 Par ch=1 c=64 v=96
10320 On ch=1 n=f2 v=64
10360 On ch=1 n=d4 v=64
10398 On ch=1 n=d4 v=0
10400 On ch=1 n=a#4 v=64
10438 On ch=1 n=a#4 v=0
10440 On ch=1 n=f5 v=64
10478 On ch=1 n=f5 v=0
10480 On ch=1 n=a#4 v=64
10518 On ch=1 n=a#4 v=0
10520 On ch=1 n=d4 v=64
10520 Par ch=1 c=64 v=0
10558 On ch=1 n=d4 v=0
10558 On ch=1 n=d4 v=0
10558 On ch=1 n=f2 v=0
10558 On ch=1 n=a#3 v=0
10558 On ch=1 n=f4 v=0
10560 On ch=1 n=d4 v=64
10560 On ch=1 n=a#3 v=64
10560 On ch=1 n=f3 v=64
10560 Par ch=1 c=64 v=96
10800 On ch=1 n=f2 v=64
10840 On ch=1 n=a#3 v=64
10878 On ch=1 n=a#3 v=0
10880 On ch=1 n=f4 v=64
10918 On ch=1 n=f4 v=0
10920 On ch=1 n=d5 v=64
10958 On ch=1 n=d5 v=0
10960 On ch=1 n=f4 v=64
10998 On ch=1 n=f4 v=0
11000 On ch=1 n=a#3 v=64
11000 Par ch=1 c=64 v=0
11038 On ch=1 n=a#3 v=0
11038 On ch=1 n=a#3 v=0
11038 On ch=1 n=f2 v=0
11038 On ch=1 n=f3 v=0
11038 On ch=1 n=d4 v=0
11040 Par ch=1 c=7 v=105
11040 On ch=1 n=d#3 v=64
11040 Par ch=1 c=64 v=96
11050 Par ch=1 c=7 v=104
11051 On ch=1 n=a3 v=64
11061 Par ch=1 c=7 v=103
11066 On ch=1 n=d4 v=63
11075 Par ch=1 c=7 v=102
11085 Par ch=1 c=7 v=101
11099 Par ch=1 c=7 v=100
11113 Par ch=1 c=7 v=99
11123 Par ch=1 c=7 v=98
11137 Par ch=1 c=7 v=97
11151 Par ch=1 c=7 v=96
11161 Par ch=1 c=7 v=95
11175 Par ch=1 c=7 v=94
11189 Par ch=1 c=7 v=93
11199 Par ch=1 c=7 v=92
11213 Par ch=1 c=7 v=91
11227 Par ch=1 c=7 v=90
11237 Par ch=1 c=7 v=89
11251 Par ch=1 c=7 v=88
11259 On ch=1 n=f2 v=64
11265 Par ch=1 c=7 v=87
11279 Par ch=1 c=7 v=86
11289 Par ch=1 c=7 v=85
11296 On ch=1 n=a3 v=64
11303 Par ch=1 c=7 v=84
11317 Par ch=1 c=7 v=83
11327 Par ch=1 c=7 v=82
11331 On ch=1 n=a3 v=0
11333 On ch=1 n=d#4 v=64
11341 Par ch=1 c=7 v=81
11355 Par ch=1 c=7 v=80
11365 Par ch=1 c=7 v=79
11368 On ch=1 n=d#4 v=0
11370 On ch=1 n=d4 v=0
11370 On ch=1 n=c5 v=64
11370 On ch=1 n=c4 v=64
11379 Par ch=1 c=7 v=78
11393 Par ch=1 c=7 v=77
11403 Par ch=1 c=7 v=76
11405 On ch=1 n=c5 v=0
11407 On ch=1 n=d#4 v=64
11417 Par ch=1 c=7 v=75
11431 Par ch=1 c=7 v=74
11441 Par ch=1 c=7 v=73
11442 On ch=1 n=d#4 v=0
11444 On ch=1 n=a3 v=64
11444 Par ch=1 c=64 v=0
11455 Par ch=1 c=7 v=72
11469 Par ch=1 c=7 v=71
11478 On ch=1 n=a3 v=0
11482 On ch=1 n=a3 v=0
11482 On ch=1 n=c4 v=0
11482 On ch=1 n=f2 v=0
11482 On ch=1 n=d#3 v=0
11483 Par ch=1 c=7 v=70
11484 On ch=1 n=a#3 v=64
11484 On ch=1 n=f3 v=64
11484 On ch=1 n=d3 v=64
11484 Par ch=1 c=64 v=96
11724 On ch=1 n=a#2 v=64
11754 On ch=1 n=f3 v=64
11782 On ch=1 n=f3 v=0
11784 On ch=1 n=a#3 v=64
11812 On ch=1 n=a#3 v=0
11814 On ch=1 n=f4 v=64
11842 On ch=1 n=f4 v=0
11844 On ch=1 n=a#4 v=64
11872 On ch=1 n=a#4 v=0
11874 On ch=1 n=f4 v=64
11902 On ch=1 n=f4 v=0
11904 On ch=1 n=a#3 v=64
11932 On ch=1 n=a#3 v=0
11934 On ch=1 n=f3 v=64
11962 On ch=1 n=f3 v=0
11962 On ch=1 n=a#3 v=0
11962 On ch=1 n=f3 v=0
11962 On ch=1 n=a#2 v=0
11962 On ch=1 n=d3 v=0
11964 On ch=1 n=a#2 v=64
12164 Par ch=1 c=64 v=0
12202 On ch=1 n=a#2 v=0
12204 Par ch=1 c=7 v=70
12204 On ch=1 n=a#3 v=64
12204 On ch=1 n=a#4 v=64
12204 Par ch=1 c=64 v=96
12227 Par ch=1 c=7 v=71
12251 Par ch=1 c=7 v=72
12275 Par ch=1 c=7 v=73
12299 Par ch=1 c=7 v=74
12323 Par ch=1 c=7 v=75
12347 Par ch=1 c=7 v=76
12371 Par ch=1 c=7 v=77
12395 Par ch=1 c=7 v=78
12419 Par ch=1 c=7 v=79
12442 On ch=1 n=a#4 v=0
12442 On ch=1 n=a#3 v=0
12443 Par ch=1 c=7 v=80
12444 On ch=1 n=d4 v=64
12444 On ch=1 n=a#3 v=64
12444 On ch=1 n=a#4 v=64
12467 Par ch=1 c=7 v=81
12491 Par ch=1 c=7 v=82
12515 Par ch=1 c=7 v=83
12539 Par ch=1 c=7 v=84
12563 Par ch=1 c=7 v=85
12587 Par ch=1 c=7 v=86
12611 Par ch=1 c=7 v=87
12635 Par ch=1 c=7 v=88
12659 Par ch=1 c=7 v=89
12682 On ch=1 n=a#4 v=0
12682 On ch=1 n=a#3 v=0
12682 On ch=1 n=d4 v=0
12683 Par ch=1 c=7 v=90
12684 On ch=1 n=f4 v=64
12684 On ch=1 n=a#3 v=64
12684 On ch=1 n=a#4 v=64
12707 Par ch=1 c=7 v=91
12731 Par ch=1 c=7 v=92
12755 Par ch=1 c=7 v=93
12779 Par ch=1 c=7 v=94
12803 Par ch=1 c=7 v=95
12827 Par ch=1 c=7 v=96
12851 Par ch=1 c=7 v=97
12875 Par ch=1 c=7 v=98
12884 Par ch=1 c=64 v=0
12899 Par ch=1 c=7 v=99
12922 On ch=1 n=a#4 v=0
12922 On ch=1 n=a#3 v=0
12922 On ch=1 n=f4 v=0
12923 Par ch=1 c=7 v=100
12924 On ch=1 n=a#4 v=64
12924 On ch=1 n=d#4 v=64
12924 On ch=1 n=a#3 v=64
12924 On ch=1 n=f#4 v=64
12924 Par ch=1 c=64 v=96
13164 On ch=1 n=a#2 v=64
13198 On ch=1 n=d#3 v=64
13231 On ch=1 n=d#3 v=0
13233 On ch=1 n=f#3 v=64
13265 On ch=1 n=f#3 v=0
13267 On ch=1 n=f#4 v=64
13299 On ch=1 n=f#4 v=0
13301 On ch=1 n=f#3 v=64
13333 On ch=1 n=f#3 v=0
13335 On ch=1 n=d#3 v=64
13364 Par ch=1 c=64 v=0
13368 On ch=1 n=d#3 v=0
13370 On ch=1 n=a#2 v=64
13402 On ch=1 n=a#2 v=0
13402 On ch=1 n=f#4 v=0
13402 On ch=1 n=a#2 v=0
13402 On ch=1 n=a#3 v=0
13402 On ch=1 n=d#4 v=0
13402 On ch=1 n=a#4 v=0
13404 On ch=1 n=a4 v=64
13404 On ch=1 n=d#4 v=64
13404 On ch=1 n=a3 v=64
13404 On ch=1 n=f#4 v=64
13404 Par ch=1 c=64 v=96
13644 On ch=1 n=a2 v=64
13678 On ch=1 n=d#3 v=64
13711 On ch=1 n=d#3 v=0
13713 On ch=1 n=f#3 v=64
13745 On ch=1 n=f#3 v=0
13747 On ch=1 n=f#4 v=64
13779 On ch=1 n=f#4 v=0
13781 On ch=1 n=f#3 v=64
13813 On ch=1 n=f#3 v=0
13815 On ch=1 n=d#3 v=64
13844 Par ch=1 c=64 v=0
13848 On ch=1 n=d#3 v=0
13850 On ch=1 n=a2 v=64
13882 On ch=1 n=a2 v=0
13882 On ch=1 n=f#4 v=0
13882 On ch=1 n=a2 v=0
13882 On ch=1 n=a3 v=0
13882 On ch=1 n=d#4 v=0
13882 On ch=1 n=a4 v=0
13884 On ch=1 n=a#4 v=64
13884 On ch=1 n=d#4 v=64
13884 On ch=1 n=a#3 v=64
13884 On ch=1 n=f#4 v=64
13884 Par ch=1 c=64 v=96
14124 On ch=1 n=a#2 v=64
14158 On ch=1 n=d#3 v=64
14191 On ch=1 n=d#3 v=0
14193 On ch=1 n=f#3 v=64
14225 On ch=1 n=f#3 v=0
14227 On ch=1 n=f#4 v=64
14259 On ch=1 n=f#4 v=0
14261 On ch=1 n=f#3 v=64
14293 On ch=1 n=f#3 v=0
14295 On ch=1 n=d#3 v=64
14324 Par ch=1 c=64 v=0
14328 On ch=1 n=d#3 v=0
14330 On ch=1 n=a#2 v=64
14362 On ch=1 n=a#2 v=0
14362 On ch=1 n=f#4 v=0
14362 On ch=1 n=a#2 v=0
14362 On ch=1 n=a#3 v=0
14362 On ch=1 n=d#4 v=0
14362 On ch=1 n=a#4 v=0
14364 On ch=1 n=d5 v=64
14364 On ch=1 n=a#4 v=64
14364 On ch=1 n=f4 v=64
14364 On ch=1 n=d4 v=64
14364 Par ch=1 c=64 v=96
14604 On ch=1 n=a#2 v=64
14634 On ch=1 n=f3 v=64
14662 On ch=1 n=f3 v=0
14664 On ch=1 n=a#3 v=64
14692 On ch=1 n=a#3 v=0
14694 On ch=1 n=f4 v=64
14722 On ch=1 n=f4 v=0
14724 On ch=1 n=a#4 v=64
14752 On ch=1 n=a#4 v=0
14754 On ch=1 n=f4 v=64
14782 On ch=1 n=f4 v=0
14784 On ch=1 n=a#3 v=64
14812 On ch=1 n=a#3 v=0
14814 On ch=1 n=f3 v=64
14842 On ch=1 n=f3 v=0
14842 On ch=1 n=f4 v=0
14842 On ch=1 n=a#4 v=0
14842 On ch=1 n=a#2 v=0
14842 On ch=1 n=d4 v=0
14842 On ch=1 n=d5 v=0
14844 On ch=1 n=a#2 v=64
15044 Par ch=1 c=64 v=0
15082 On ch=1 n=a#2 v=0
15084 On ch=1 n=a#3 v=64
15084 On ch=1 n=a#4 v=64
15084 Par ch=1 c=64 v=96
15322 On ch=1 n=a#4 v=0
15322 On ch=1 n=a#3 v=0
15324 On ch=1 n=d4 v=64
15324 On ch=1 n=a#3 v=64
15324 On ch=1 n=a#4 v=64
15562 On ch=1 n=a#4 v=0
15562 On ch=1 n=a#3 v=0
15562 On ch=1 n=d4 v=0
15564 On ch=1 n=f4 v=64
15564 On ch=1 n=a#3 v=64
15564 On ch=1 n=a#4 v=64
15764 Par ch=1 c=64 v=0
15802 On ch=1 n=a#4 v=0
15802 On ch=1 n=a#3 v=0
15802 On ch=1 n=f4 v=0
15804 On ch=1 n=a#4 v=64
15804 On ch=1 n=d#4 v=64
15804 On ch=1 n=a#3 v=64
15804 On ch=1 n=f#4 v=64
15804 Par ch=1 c=64 v=96
16044 On ch=1 n=a#2 v=64
16078 On ch=1 n=d#3 v=64
16111 On ch=1 n=d#3 v=0
16113 On ch=1 n=f#3 v=64
16145 On ch=1 n=f#3 v=0
16147 On ch=1 n=f#4 v=64
16179 On ch=1 n=f#4 v=0
16181 On ch=1 n=f#3 v=64
16213 On ch=1 n=f#3 v=0
16215 On ch=1 n=d#3 v=64
16244 Par ch=1 c=64 v=0
16248 On ch=1 n=d#3 v=0
16250 On ch=1 n=a#2 v=64
16282 On ch=1 n=a#2 v=0
16282 On ch=1 n=f#4 v=0
16282 On ch=1 n=a#2 v=0
16282 On ch=1 n=a#3 v=0
16282 On ch=1 n=d#4 v=0
16282 On ch=1 n=a#4 v=0
16284 On ch=1 n=a4 v=64
16284 On ch=1 n=d#4 v=64
16284 On ch=1 n=a3 v=64
16284 On ch=1 n=f#4 v=64
16284 Par ch=1 c=64 v=96
16524 On ch=1 n=a2 v=64
16558 On ch=1 n=d#3 v=64
16591 On ch=1 n=d#3 v=0
16593 On ch=1 n=f#3 v=64
16625 On ch=1 n=f#3 v=0
16627 On ch=1 n=f#4 v=64
16644 Par ch=1 c=7 v=100
16659 On ch=1 n=f#4 v=0
16661 On ch=1 n=f#3 v=64
16693 On ch=1 n=f#3 v=0
16695 On ch=1 n=d#3 v=64
16724 Par ch=1 c=64 v=0
16728 On ch=1 n=d#3 v=0
16730 On ch=1 n=a2 v=64
16762 On ch=1 n=a2 v=0
16762 On ch=1 n=f#4 v=0
16762 On ch=1 n=a2 v=0
16762 On ch=1 n=a3 v=0
16762 On ch=1 n=d#4 v=0
16762 On ch=1 n=a4 v=0
16763 Par ch=1 c=7 v=101
16764 On ch=1 n=a#4 v=64
16764 On ch=1 n=d#4 v=64
16764 On ch=1 n=a#3 v=64
16764 On ch=1 n=f#4 v=64
16764 Par ch=1 c=64 v=96
16883 Par ch=1 c=7 v=102
17003 Par ch=1 c=7 v=103
17004 On ch=1 n=a#2 v=64
17038 On ch=1 n=d#3 v=64
17071 On ch=1 n=d#3 v=0
17073 On ch=1 n=f#3 v=64
17105 On ch=1 n=f#3 v=0
17107 On ch=1 n=f#4 v=64
17123 Par ch=1 c=7 v=104
17139 On ch=1 n=f#4 v=0
17141 On ch=1 n=f#3 v=64
17173 On ch=1 n=f#3 v=0
17175 On ch=1 n=d#3 v=64
17204 Par ch=1 c=64 v=0
17208 On ch=1 n=d#3 v=0
17210 On ch=1 n=a#2 v=64
17242 On ch=1 n=a#2 v=0
17242 On ch=1 n=f#4 v=0
17242 On ch=1 n=a#2 v=0
17242 On ch=1 n=a#3 v=0
17242 On ch=1 n=d#4 v=0
17242 On ch=1 n=a#4 v=0
17243 Par ch=1 c=7 v=105
17244 On ch=1 n=d5 v=64
17244 On ch=1 n=d4 v=64
17244 On ch=1 n=f#4 v=64
17244 Par ch=1 c=64 v=96
17484 On ch=1 n=d3 v=64
17524 On ch=1 n=a3 v=64
17562 On ch=1 n=a3 v=0
17564 On ch=1 n=d4 v=64
17602 On ch=1 n=d4 v=0
17604 On ch=1 n=a4 v=64
17642 On ch=1 n=a4 v=0
17644 On ch=1 n=d4 v=64
17682 On ch=1 n=d4 v=0
17684 On ch=1 n=a3 v=64
17722 On ch=1 n=a3 v=0
17722 On ch=1 n=d4 v=0
17722 On ch=1 n=d3 v=0
17722 On ch=1 n=f#4 v=0
17722 On ch=1 n=d5 v=0
17724 On ch=1 n=d3 v=64
17924 Par ch=1 c=64 v=0
17962 On ch=1 n=d3 v=0
17964 Par ch=1 c=7 v=105
17964 On ch=1 n=d4 v=64
17964 On ch=1 n=d5 v=64
17964 Par ch=1 c=64 v=96
17984 Par ch=1 c=7 v=104
18005 Par ch=1 c=7 v=103
18025 Par ch=1 c=7 v=102
18046 Par ch=1 c=7 v=101
18066 Par ch=1 c=7 v=100
18087 Par ch=1 c=7 v=99
18107 Par ch=1 c=7 v=98
18128 Par ch=1 c=7 v=97
18148 Par ch=1 c=7 v=96
18169 Par ch=1 c=7 v=95
18189 Par ch=1 c=7 v=94
18199 On ch=1 n=d5 v=0
18199 On ch=1 n=d4 v=0
18201 On ch=1 n=d4 v=64
18201 On ch=1 n=d5 v=64
18201 On ch=1 n=f#4 v=64
18207 Par ch=1 c=7 v=93
18228 Par ch=1 c=7 v=92
18248 Par ch=1 c=7 v=91
18269 Par ch=1 c=7 v=90
18289 Par ch=1 c=7 v=89
18310 Par ch=1 c=7 v=88
18330 Par ch=1 c=7 v=87
18351 Par ch=1 c=7 v=86
18371 Par ch=1 c=7 v=85
18392 Par ch=1 c=7 v=84
18412 Par ch=1 c=7 v=83
18433 Par ch=1 c=7 v=82
18439 On ch=1 n=f#4 v=0
18439 On ch=1 n=d5 v=0
18439 On ch=1 n=d4 v=0
18441 On ch=1 n=d4 v=64
18441 On ch=1 n=a4 v=64
18441 On ch=1 n=d5 v=64
18451 Par ch=1 c=7 v=81
18471 Par ch=1 c=7 v=80
18492 Par ch=1 c=7 v=79
18512 Par ch=1 c=7 v=78
18533 Par ch=1 c=7 v=77
18553 Par ch=1 c=7 v=76
18574 Par ch=1 c=7 v=75
18594 Par ch=1 c=7 v=74
18615 Par ch=1 c=7 v=73
18635 Par ch=1 c=7 v=72
18638 Par ch=1 c=64 v=0
18656 Par ch=1 c=7 v=71
18676 On ch=1 n=d5 v=0
18676 On ch=1 n=a4 v=0
18676 On ch=1 n=d4 v=0
18677 Par ch=1 c=7 v=70
18678 Par ch=1 c=7 v=70
18678 On ch=1 n=d4 v=64
18678 Par ch=1 c=64 v=96
18687 On ch=1 n=f#4 v=64
18695 On ch=1 n=d5 v=64
18705 On ch=1 n=f#5 v=64
18733 On ch=1 n=f#5 v=0
18735 On ch=1 n=d6 v=64
18763 On ch=1 n=d6 v=0
18765 On ch=1 n=f#6 v=64
18793 On ch=1 n=f#6 v=0
18795 On ch=1 n=d7 v=64
18823 On ch=1 n=d7 v=0
18825 On ch=1 n=f#6 v=64
18853 On ch=1 n=f#6 v=0
18855 On ch=1 n=d6 v=64
18883 On ch=1 n=d6 v=0
18885 On ch=1 n=f#5 v=64
18913 On ch=1 n=f#5 v=0
18915 Par ch=1 c=7 v=60
18915 On ch=1 n=b2 v=64
18955 On ch=1 n=b3 v=64
18993 On ch=1 n=b3 v=0
18995 On ch=1 n=f#4 v=64
19033 On ch=1 n=b2 v=0
19033 On ch=1 n=f#4 v=0
19035 On ch=1 n=d5 v=64
19073 On ch=1 n=d5 v=0
19075 On ch=1 n=f#4 v=64
19113 On ch=1 n=f#4 v=0
19115 On ch=1 n=b3 v=64
19115 Par ch=1 c=64 v=0
19153 On ch=1 n=b3 v=0
19153 On ch=1 n=d4 v=0
19155 On ch=1 n=d5 v=0
19155 Par ch=1 c=7 v=70
19155 On ch=1 n=c#4 v=64
19155 Par ch=1 c=64 v=96
19156 On ch=1 n=f#4 v=0
19164 On ch=1 n=f4 v=65
19170 On ch=1 n=c#5 v=64
19185 On ch=1 n=f5 v=64
19213 On ch=1 n=f5 v=0
19215 On ch=1 n=c#6 v=64
19243 On ch=1 n=c#6 v=0
19245 On ch=1 n=f6 v=64
19273 On ch=1 n=f6 v=0
19275 On ch=1 n=c#7 v=64
19303 On ch=1 n=c#7 v=0
19305 On ch=1 n=f6 v=64
19333 On ch=1 n=f6 v=0
19335 On ch=1 n=c#6 v=64
19363 On ch=1 n=c#6 v=0
19365 On ch=1 n=f5 v=64
19393 On ch=1 n=f5 v=0
19395 Par ch=1 c=7 v=60
19395 On ch=1 n=b2 v=64
19435 On ch=1 n=b3 v=64
19473 On ch=1 n=b3 v=0
19475 On ch=1 n=f4 v=64
19513 On ch=1 n=b2 v=0
19513 On ch=1 n=f4 v=0
19515 On ch=1 n=c#5 v=64
19553 On ch=1 n=c#5 v=0
19555 On ch=1 n=f4 v=64
19593 On ch=1 n=f4 v=0
19595 On ch=1 n=b3 v=64
19595 Par ch=1 c=64 v=0
19633 On ch=1 n=b3 v=0
19633 On ch=1 n=c#4 v=0
19635 Par ch=1 c=7 v=70
19635 On ch=1 n=d4 v=64
19635 Par ch=1 c=64 v=96
19636 On ch=1 n=c#5 v=0
19637 On ch=1 n=f4 v=0
19643 On ch=1 n=f#4 v=64
19651 On ch=1 n=d5 v=63
19665 On ch=1 n=f#5 v=64
19693 On ch=1 n=f#5 v=0
19695 On ch=1 n=d6 v=64
19723 On ch=1 n=d6 v=0
19725 On ch=1 n=f#6 v=64
19753 On ch=1 n=f#6 v=0
19755 On ch=1 n=d7 v=64
19783 On ch=1 n=d7 v=0
19785 On ch=1 n=f#6 v=64
19813 On ch=1 n=f#6 v=0
19815 On ch=1 n=d6 v=64
19843 On ch=1 n=d6 v=0
19845 On ch=1 n=f#5 v=64
19873 On ch=1 n=f#5 v=0
19875 Par ch=1 c=7 v=60
19875 On ch=1 n=b2 v=64
19915 On ch=1 n=b3 v=64
19953 On ch=1 n=b3 v=0
19955 On ch=1 n=f#4 v=64
19993 On ch=1 n=b2 v=0
19993 On ch=1 n=f#4 v=0
19995 On ch=1 n=d5 v=64
20033 On ch=1 n=d5 v=0
20035 On ch=1 n=f#4 v=64
20073 On ch=1 n=f#4 v=0
20075 On ch=1 n=b3 v=64
20075 Par ch=1 c=64 v=0
20113 On ch=1 n=b3 v=0
20113 On ch=1 n=d4 v=0
20114 On ch=1 n=f#4 v=0
20115 On ch=1 n=d5 v=0
20115 Par ch=1 c=7 v=70
20115 On ch=1 n=b3 v=64
20115 Par ch=1 c=64 v=96
20124 On ch=1 n=d4 v=64
20131 On ch=1 n=f#4 v=63
20139 On ch=1 n=b4 v=60
20145 On ch=1 n=d5 v=64
20173 On ch=1 n=d5 v=0
20175 On ch=1 n=b5 v=64
20203 On ch=1 n=b5 v=0
20205 On ch=1 n=d6 v=64
20233 On ch=1 n=d6 v=0
20235 On ch=1 n=b6 v=64
20263 On ch=1 n=b6 v=0
20265 On ch=1 n=d6 v=64
20293 On ch=1 n=d6 v=0
20295 On ch=1 n=b5 v=64
20323 On ch=1 n=b5 v=0
20325 On ch=1 n=d5 v=64
20353 On ch=1 n=d5 v=0
20355 Par ch=1 c=7 v=60
20355 On ch=1 n=b2 v=64
20395 On ch=1 n=b3 v=64
20433 On ch=1 n=b3 v=0
20435 On ch=1 n=f#4 v=64
20473 On ch=1 n=b2 v=0
20473 On ch=1 n=f#4 v=0
20475 On ch=1 n=b4 v=64
20513 On ch=1 n=b4 v=0
20515 On ch=1 n=f#4 v=64
20553 On ch=1 n=f#4 v=0
20555 On ch=1 n=b3 v=64
20555 Par ch=1 c=64 v=0
20593 On ch=1 n=b3 v=0
20593 On ch=1 n=b3 v=0
20595 On ch=1 n=f#4 v=0
20595 On ch=1 n=b4 v=0
20595 Par ch=1 c=7 v=70
20595 On ch=1 n=e4 v=64
20595 Par ch=1 c=64 v=96
20596 On ch=1 n=d4 v=0
20604 On ch=1 n=g4 v=64
20611 On ch=1 n=e5 v=63
20625 On ch=1 n=g5 v=64
20653 On ch=1 n=g5 v=0
20655 On ch=1 n=e6 v=64
20683 On ch=1 n=e6 v=0
20685 On ch=1 n=g6 v=64
20713 On ch=1 n=g6 v=0
20715 On ch=1 n=e7 v=64
20743 On ch=1 n=e7 v=0
20745 On ch=1 n=g6 v=64
20773 On ch=1 n=g6 v=0
20775 On ch=1 n=e6 v=64
20803 On ch=1 n=e6 v=0
20805 On ch=1 n=g5 v=64
20833 On ch=1 n=g5 v=0
20835 Par ch=1 c=7 v=60
20835 On ch=1 n=b2 v=64
20875 On ch=1 n=b3 v=64
20913 On ch=1 n=b3 v=0
20915 On ch=1 n=g4 v=64
20953 On ch=1 n=b2 v=0
20953 On ch=1 n=g4 v=0
20955 On ch=1 n=e5 v=64
20993 On ch=1 n=e5 v=0
20995 On ch=1 n=g4 v=64
21033 On ch=1 n=g4 v=0
21035 On ch=1 n=b3 v=64
21035 Par ch=1 c=64 v=0
21073 On ch=1 n=b3 v=0
21073 On ch=1 n=e4 v=0
21075 On ch=1 n=e5 v=0
21075 Par ch=1 c=7 v=70
21075 On ch=1 n=d4 v=64
21075 Par ch=1 c=64 v=96
21076 On ch=1 n=g4 v=0
21084 On ch=1 n=f#4 v=64
21091 On ch=1 n=d5 v=62
21105 On ch=1 n=f#5 v=64
21133 On ch=1 n=f#5 v=0
21135 On ch=1 n=d6 v=64
21163 On ch=1 n=d6 v=0
21165 On ch=1 n=f#6 v=64
21193 On ch=1 n=f#6 v=0
21195 On ch=1 n=d7 v=64
21223 On ch=1 n=d7 v=0
21225 On ch=1 n=f#6 v=64
21253 On ch=1 n=f#6 v=0
21255 On ch=1 n=d6 v=64
21283 On ch=1 n=d6 v=0
21285 On ch=1 n=f#5 v=64
21313 On ch=1 n=f#5 v=0
21315 Par ch=1 c=7 v=60
21315 On ch=1 n=b2 v=64
21355 On ch=1 n=b3 v=64
21393 On ch=1 n=b3 v=0
21395 On ch=1 n=f#4 v=64
21433 On ch=1 n=b2 v=0
21433 On ch=1 n=f#4 v=0
21435 On ch=1 n=d5 v=64
21473 On ch=1 n=d5 v=0
21475 On ch=1 n=f#4 v=64
21513 On ch=1 n=f#4 v=0
21515 On ch=1 n=b3 v=64
21515 Par ch=1 c=64 v=0
21553 On ch=1 n=b3 v=0
21553 On ch=1 n=d4 v=0
21555 On ch=1 n=f#4 v=0
21555 On ch=1 n=d5 v=0
21555 Par ch=1 c=7 v=70
21555 On ch=1 n=c4 v=64
21555 Par ch=1 c=64 v=96
21564 On ch=1 n=e4 v=65
21570 On ch=1 n=c5 v=64
21585 On ch=1 n=e5 v=64
21613 On ch=1 n=e5 v=0
21615 On ch=1 n=c6 v=64
21643 On ch=1 n=c6 v=0
21645 On ch=1 n=e6 v=64
21673 On ch=1 n=e6 v=0
21675 On ch=1 n=c7 v=64
21703 On ch=1 n=c7 v=0
21705 On ch=1 n=e6 v=64
21733 On ch=1 n=e6 v=0
21735 On ch=1 n=c6 v=64
21763 On ch=1 n=c6 v=0
21765 On ch=1 n=e5 v=64
21793 On ch=1 n=e5 v=0
21795 Par ch=1 c=7 v=60
21795 On ch=1 n=e3 v=64
21835 On ch=1 n=c4 v=64
21873 On ch=1 n=c4 v=0
21875 On ch=1 n=g4 v=64
21913 On ch=1 n=g4 v=0
21913 On ch=1 n=e3 v=0
21915 On ch=1 n=c5 v=64
21953 On ch=1 n=c5 v=0
21955 On ch=1 n=g4 v=64
21993 On ch=1 n=g4 v=0
21995 On ch=1 n=c4 v=64
21995 Par ch=1 c=64 v=0
22032 On ch=1 n=e4 v=0
22033 On ch=1 n=c4 v=0
22033 On ch=1 n=c4 v=0
22034 On ch=1 n=c5 v=0
22035 Par ch=1 c=7 v=70
22035 On ch=1 n=g3 v=64
22035 Par ch=1 c=64 v=96
22043 On ch=1 n=c4 v=64
22051 On ch=1 n=e4 v=64
22060 On ch=1 n=g4 v=62
22065 On ch=1 n=c5 v=64
22093 On ch=1 n=c5 v=0
22095 On ch=1 n=g5 v=64
22123 On ch=1 n=g5 v=0
22125 On ch=1 n=c6 v=64
22153 On ch=1 n=c6 v=0
22155 On ch=1 n=g6 v=64
22183 On ch=1 n=g6 v=0
22185 On ch=1 n=c6 v=64
22213 On ch=1 n=c6 v=0
22215 On ch=1 n=g5 v=64
22243 On ch=1 n=g5 v=0
22245 On ch=1 n=c5 v=64
22273 On ch=1 n=c5 v=0
22275 Par ch=1 c=7 v=60
22275 On ch=1 n=e2 v=64
22315 On ch=1 n=e3 v=64
22353 On ch=1 n=e3 v=0
22355 On ch=1 n=c4 v=64
22393 On ch=1 n=e2 v=0
22393 On ch=1 n=c4 v=0
22395 On ch=1 n=g4 v=64
22433 On ch=1 n=g4 v=0
22435 On ch=1 n=c4 v=64
22473 On ch=1 n=c4 v=0
22475 On ch=1 n=e3 v=64
22475 Par ch=1 c=64 v=0
22513 On ch=1 n=e3 v=0
22513 On ch=1 n=g3 v=0
22515 On ch=1 n=c4 v=0
22515 On ch=1 n=e4 v=0
22515 Par ch=1 c=7 v=70
22515 On ch=1 n=b3 v=64
22515 Par ch=1 c=64 v=95
22516 On ch=1 n=g4 v=0
22523 On ch=1 n=d4 v=64
22529 On ch=1 n=g#4 v=64
22537 On ch=1 n=b4 v=62
22545 On ch=1 n=d5 v=64
22573 On ch=1 n=d5 v=0
22575 On ch=1 n=b5 v=64
22603 On ch=1 n=b5 v=0
22605 On ch=1 n=d6 v=64
22633 On ch=1 n=d6 v=0
22635 On ch=1 n=b6 v=64
22663 On ch=1 n=b6 v=0
22665 On ch=1 n=d6 v=64
22693 On ch=1 n=d6 v=0
22695 On ch=1 n=b5 v=64
22723 On ch=1 n=b5 v=0
22725 On ch=1 n=d5 v=64
22753 On ch=1 n=d5 v=0
22755 Par ch=1 c=7 v=60
22755 On ch=1 n=f2 v=64
22795 On ch=1 n=f3 v=64
22833 On ch=1 n=f3 v=0
22835 On ch=1 n=d4 v=64
22835 On ch=1 n=b3 v=64
22873 On ch=1 n=f2 v=0
22873 On ch=1 n=d4 v=0
22873 On ch=1 n=b3 v=0
22875 On ch=1 n=g#4 v=64
22913 On ch=1 n=g#4 v=0
22915 On ch=1 n=d4 v=64
22915 On ch=1 n=b3 v=64
22953 On ch=1 n=b3 v=0
22953 On ch=1 n=d4 v=0
22955 On ch=1 n=f3 v=64
22955 Par ch=1 c=64 v=0
22993 On ch=1 n=f3 v=0
22993 On ch=1 n=b3 v=0
22993 On ch=1 n=d4 v=0
22993 On ch=1 n=g#4 v=0
22993 On ch=1 n=b4 v=0
22995 Par ch=1 c=7 v=70
22995 On ch=1 n=b3 v=64
22995 Par ch=1 c=64 v=96
23004 On ch=1 n=d4 v=64
23010 On ch=1 n=b4 v=65
23025 On ch=1 n=d5 v=64
23053 On ch=1 n=d5 v=0
23055 On ch=1 n=b5 v=64
23083 On ch=1 n=b5 v=0
23085 On ch=1 n=d6 v=64
23113 On ch=1 n=d6 v=0
23115 On ch=1 n=b6 v=64
23143 On ch=1 n=b6 v=0
23145 On ch=1 n=d6 v=64
23173 On ch=1 n=d6 v=0
23175 On ch=1 n=b5 v=64
23203 On ch=1 n=b5 v=0
23205 On ch=1 n=d5 v=64
23233 On ch=1 n=d5 v=0
23235 Par ch=1 c=7 v=60
23235 On ch=1 n=f#2 v=64
23275 On ch=1 n=f#3 v=64
23306 Par ch=1 c=7 v=59
23313 On ch=1 n=f#3 v=0
23315 On ch=1 n=d4 v=64
23353 On ch=1 n=f#2 v=0
23353 On ch=1 n=d4 v=0
23355 On ch=1 n=b4 v=64
23378 Par ch=1 c=7 v=58
23393 On ch=1 n=b4 v=0
23395 On ch=1 n=d4 v=64
23433 On ch=1 n=d4 v=0
23435 On ch=1 n=f#3 v=64
23435 Par ch=1 c=64 v=0
23450 Par ch=1 c=7 v=57
23473 On ch=1 n=f#3 v=0
23473 On ch=1 n=b4 v=0
23473 On ch=1 n=b3 v=0
23474 On ch=1 n=d4 v=0
23475 On ch=1 n=a#3 v=64
23475 Par ch=1 c=64 v=96
23484 On ch=1 n=c#4 v=64
23490 On ch=1 n=a#4 v=63
23505 On ch=1 n=c#5 v=64
23522 Par ch=1 c=7 v=56
23533 On ch=1 n=c#5 v=0
23535 On ch=1 n=a#5 v=64
23563 On ch=1 n=a#5 v=0
23565 On ch=1 n=c#6 v=64
23593 On ch=1 n=c#6 v=0
23594 Par ch=1 c=7 v=55
23595 On ch=1 n=a#6 v=64
23623 On ch=1 n=a#6 v=0
23625 On ch=1 n=c#6 v=64
23653 On ch=1 n=c#6 v=0
23655 On ch=1 n=a#5 v=64
23666 Par ch=1 c=7 v=54
23683 On ch=1 n=a#5 v=0
23685 On ch=1 n=c#5 v=64
23713 On ch=1 n=c#5 v=0
23715 On ch=1 n=f#2 v=64
23738 Par ch=1 c=7 v=53
23755 On ch=1 n=f#3 v=64
23793 On ch=1 n=f#3 v=0
23795 On ch=1 n=c#4 v=64
23810 Par ch=1 c=7 v=52
23833 On ch=1 n=f#2 v=0
23833 On ch=1 n=c#4 v=0
23835 On ch=1 n=a#4 v=64
23873 On ch=1 n=a#4 v=0
23875 On ch=1 n=c#4 v=64
23882 Par ch=1 c=7 v=51
23913 On ch=1 n=c#4 v=0
23915 On ch=1 n=f#3 v=64
23915 Par ch=1 c=64 v=0
23953 On ch=1 n=f#3 v=0
23953 On ch=1 n=a#3 v=0
23954 On ch=1 n=a#4 v=0
23954 Par ch=1 c=7 v=50
23955 Tempo 1714286
23955 Par ch=1 c=7 v=60
23955 On ch=1 n=a#3 v=64
23955 Par ch=1 c=64 v=96
23956 On ch=1 n=c#4 v=0
23965 On ch=1 n=c#4 v=64
23970 On ch=1 n=f#4 v=63
23985 On ch=1 n=a#4 v=64
24013 On ch=1 n=a#4 v=0
24015 On ch=1 n=f#5 v=64
24043 On ch=1 n=f#5 v=0
24045 On ch=1 n=a#5 v=64
24050 Tempo 1764706
24073 On ch=1 n=a#5 v=0
24075 On ch=1 n=f#6 v=64
24103 On ch=1 n=f#6 v=0
24105 On ch=1 n=a#5 v=64
24133 On ch=1 n=a#5 v=0
24135 On ch=1 n=f#5 v=64
24146 Tempo 1818182
24163 On ch=1 n=f#5 v=0
24165 On ch=1 n=a#4 v=64
24193 On ch=1 n=a#4 v=0
24195 Par ch=1 c=7 v=50
24195 On ch=1 n=f#2 v=64
24235 On ch=1 n=f#3 v=64
24242 Tempo 1875000
24273 On ch=1 n=f#3 v=0
24275 On ch=1 n=c#4 v=64
24313 On ch=1 n=f#2 v=0
24313 On ch=1 n=c#4 v=0
24315 On ch=1 n=f#4 v=64
24338 Tempo 1935484
24353 On ch=1 n=f#4 v=0
24355 On ch=1 n=c#4 v=64
24393 On ch=1 n=c#4 v=0
24395 On ch=1 n=f#3 v=64
24395 Par ch=1 c=64 v=0
24433 On ch=1 n=f#3 v=0
24433 On ch=1 n=a#3 v=0
24434 On ch=1 n=f#4 v=0
24434 Tempo 2000000
24435 On ch=1 n=c#4 v=0
24435 Tempo 1714286
24435 Par ch=1 c=7 v=60
24435 On ch=1 n=d4 v=64
24435 Par ch=1 c=64 v=96
24445 On ch=1 n=f#4 v=64
24452 On ch=1 n=d5 v=63
24462 On ch=1 n=f#5 v=64
24490 On ch=1 n=f#5 v=0
24492 On ch=1 n=d6 v=64
24520 On ch=1 n=d6 v=0
24522 On ch=1 n=f#6 v=64
24550 On ch=1 n=f#6 v=0
24552 On ch=1 n=d7 v=64
24582 On ch=1 n=f#6 v=64
24610 On ch=1 n=f#6 v=0
24612 On ch=1 n=d6 v=64
24640 On ch=1 n=d6 v=0
24642 On ch=1 n=f#5 v=64
24670 On ch=1 n=f#5 v=0
24672 Par ch=1 c=7 v=50
24672 On ch=1 n=b2 v=64
24712 On ch=1 n=b3 v=64
24750 On ch=1 n=b3 v=0
24752 On ch=1 n=f#4 v=64
24790 On ch=1 n=b2 v=0
24790 On ch=1 n=d7 v=0
24790 On ch=1 n=f#4 v=0
24792 On ch=1 n=d5 v=64
24830 On ch=1 n=d5 v=0
24832 On ch=1 n=f#4 v=64
24870 On ch=1 n=f#4 v=0
24872 On ch=1 n=b3 v=64
24872 Par ch=1 c=64 v=0
24910 On ch=1 n=b3 v=0
24910 On ch=1 n=d5 v=0
24910 On ch=1 n=d4 v=0
24911 On ch=1 n=f#4 v=0
24912 Par ch=1 c=7 v=60
24912 On ch=1 n=c#4 v=64
24912 Par ch=1 c=64 v=96
24921 On ch=1 n=f4 v=64
24927 On ch=1 n=c#5 v=64
24942 On ch=1 n=f5 v=64
24970 On ch=1 n=f5 v=0
24972 On ch=1 n=c#6 v=64
25000 On ch=1 n=c#6 v=0
25002 On ch=1 n=f6 v=64
25030 On ch=1 n=f6 v=0
25032 On ch=1 n=c#7 v=64
25062 On ch=1 n=f6 v=64
25090 On ch=1 n=f6 v=0
25092 On ch=1 n=c#6 v=64
25120 On ch=1 n=c#6 v=0
25122 On ch=1 n=f5 v=64
25150 On ch=1 n=f5 v=0
25152 Par ch=1 c=7 v=60
25152 On ch=1 n=b2 v=64
25192 On ch=1 n=b3 v=64
25230 On ch=1 n=b3 v=0
25232 On ch=1 n=f4 v=64
25241 Par ch=1 c=7 v=61
25270 On ch=1 n=b2 v=0
25270 On ch=1 n=c#7 v=0
25270 On ch=1 n=f4 v=0
25272 On ch=1 n=c#5 v=64
25310 On ch=1 n=c#5 v=0
25312 On ch=1 n=f4 v=64
25331 Par ch=1 c=7 v=62
25350 On ch=1 n=f4 v=0
25352 On ch=1 n=b3 v=64
25352 Par ch=1 c=64 v=0
25390 On ch=1 n=b3 v=0
25390 On ch=1 n=c#4 v=0
25392 On ch=1 n=d4 v=64
25392 Par ch=1 c=64 v=96
25393 On ch=1 n=c#5 v=0
25394 On ch=1 n=f4 v=0
25402 On ch=1 n=f#4 v=65
25406 On ch=1 n=d5 v=63
25421 Par ch=1 c=7 v=63
25422 On ch=1 n=f#5 v=64
25450 On ch=1 n=f#5 v=0
25452 On ch=1 n=d6 v=64
25480 On ch=1 n=d6 v=0
25482 On ch=1 n=f#6 v=64
25510 On ch=1 n=f#6 v=0
25511 Par ch=1 c=7 v=64
25512 On ch=1 n=d7 v=64
25542 On ch=1 n=f#6 v=64
25570 On ch=1 n=f#6 v=0
25572 On ch=1 n=d6 v=64
25600 On ch=1 n=d6 v=0
25601 Par ch=1 c=7 v=65
25602 On ch=1 n=f#5 v=64
25630 On ch=1 n=f#5 v=0
25632 On ch=1 n=b2 v=64
25672 On ch=1 n=b3 v=64
25691 Par ch=1 c=7 v=66
25710 On ch=1 n=b3 v=0
25712 On ch=1 n=f#4 v=64
25750 On ch=1 n=b2 v=0
25750 On ch=1 n=d7 v=0
25750 On ch=1 n=f#4 v=0
25752 On ch=1 n=d5 v=64
25781 Par ch=1 c=7 v=67
25790 On ch=1 n=d5 v=0
25792 On ch=1 n=f#4 v=64
25830 On ch=1 n=f#4 v=0
25832 On ch=1 n=b3 v=64
25832 Par ch=1 c=64 v=0
25870 On ch=1 n=b3 v=0
25870 On ch=1 n=d4 v=0
25871 On ch=1 n=f#4 v=0
25871 Par ch=1 c=7 v=68
25872 On ch=1 n=d5 v=0
25872 On ch=1 n=b3 v=64
25872 Par ch=1 c=64 v=96
25881 On ch=1 n=d4 v=64
25889 On ch=1 n=f#4 v=65
25894 On ch=1 n=b4 v=64
25902 On ch=1 n=d5 v=64
25930 On ch=1 n=d5 v=0
25932 On ch=1 n=b5 v=64
25960 On ch=1 n=b5 v=0
25961 Par ch=1 c=7 v=69
25962 On ch=1 n=d6 v=64
25990 On ch=1 n=d6 v=0
25992 On ch=1 n=b6 v=64
26022 On ch=1 n=d6 v=64
26050 On ch=1 n=d6 v=0
26051 Par ch=1 c=7 v=70
26052 On ch=1 n=b5 v=64
26080 On ch=1 n=b5 v=0
26082 On ch=1 n=d5 v=64
26110 On ch=1 n=d5 v=0
26112 On ch=1 n=b2 v=64
26141 Par ch=1 c=7 v=71
26152 On ch=1 n=b3 v=64
26190 On ch=1 n=b3 v=0
26192 On ch=1 n=f#4 v=64
26230 On ch=1 n=b2 v=0
26230 On ch=1 n=b6 v=0
26230 On ch=1 n=f#4 v=0
26231 Par ch=1 c=7 v=72
26232 On ch=1 n=b4 v=64
26270 On ch=1 n=b4 v=0
26272 On ch=1 n=f#4 v=64
26310 On ch=1 n=f#4 v=0
26312 On ch=1 n=b3 v=64
26312 Par ch=1 c=64 v=0
26321 Par ch=1 c=7 v=73
26350 On ch=1 n=b3 v=0
26350 On ch=1 n=b3 v=0
26351 On ch=1 n=b4 v=0
26351 On ch=1 n=d4 v=0
26352 On ch=1 n=f#4 v=0
26352 On ch=1 n=e4 v=64
26352 Par ch=1 c=64 v=96
26360 On ch=1 n=g4 v=63
26367 On ch=1 n=e5 v=64
26382 On ch=1 n=g5 v=64
26410 On ch=1 n=g5 v=0
26411 Par ch=1 c=7 v=74
26412 On ch=1 n=e6 v=64
26440 On ch=1 n=e6 v=0
26442 On ch=1 n=g6 v=64
26470 On ch=1 n=g6 v=0
26472 On ch=1 n=e7 v=64
26501 Par ch=1 c=7 v=75
26502 On ch=1 n=g6 v=64
26530 On ch=1 n=g6 v=0
26532 On ch=1 n=e6 v=64
26560 On ch=1 n=e6 v=0
26562 On ch=1 n=g5 v=64
26590 On ch=1 n=g5 v=0
26591 Par ch=1 c=7 v=76
26592 On ch=1 n=b2 v=64
26632 On ch=1 n=b3 v=64
26670 On ch=1 n=b3 v=0
26672 On ch=1 n=g4 v=64
26681 Par ch=1 c=7 v=77
26710 On ch=1 n=b2 v=0
26710 On ch=1 n=e7 v=0
26710 On ch=1 n=g4 v=0
26712 On ch=1 n=e5 v=64
26750 On ch=1 n=e5 v=0
26752 On ch=1 n=g4 v=64
26771 Par ch=1 c=7 v=78
26790 On ch=1 n=g4 v=0
26792 On ch=1 n=b3 v=64
26792 Par ch=1 c=64 v=0
26830 On ch=1 n=b3 v=0
26830 On ch=1 n=e4 v=0
26831 On ch=1 n=g4 v=0
26832 On ch=1 n=f4 v=64
26832 Par ch=1 c=64 v=96
26834 On ch=1 n=e5 v=0
26842 On ch=1 n=g#4 v=64
26846 On ch=1 n=f5 v=62
26861 Par ch=1 c=7 v=79
26862 On ch=1 n=g#5 v=64
26890 On ch=1 n=g#5 v=0
26892 On ch=1 n=f6 v=64
26920 On ch=1 n=f6 v=0
26922 On ch=1 n=g#6 v=64
26950 On ch=1 n=g#6 v=0
26951 Par ch=1 c=7 v=80
26952 On ch=1 n=f7 v=64
26982 On ch=1 n=g#6 v=64
27010 On ch=1 n=g#6 v=0
27012 On ch=1 n=f6 v=64
27040 On ch=1 n=f6 v=0
27041 Par ch=1 c=7 v=81
27042 On ch=1 n=g#5 v=64
27070 On ch=1 n=g#5 v=0
27072 On ch=1 n=a#2 v=64
27112 On ch=1 n=a#3 v=64
27131 Par ch=1 c=7 v=82
27150 On ch=1 n=a#3 v=0
27152 On ch=1 n=g#4 v=64
27190 On ch=1 n=a#2 v=0
27190 On ch=1 n=f7 v=0
27190 On ch=1 n=g#4 v=0
27192 On ch=1 n=d5 v=64
27221 Par ch=1 c=7 v=83
27230 On ch=1 n=d5 v=0
27232 On ch=1 n=g#4 v=64
27270 On ch=1 n=g#4 v=0
27272 On ch=1 n=a#3 v=64
27272 Par ch=1 c=64 v=0
27310 On ch=1 n=a#3 v=0
27310 On ch=1 n=f4 v=0
27311 On ch=1 n=f5 v=0
27311 Par ch=1 c=7 v=84
27312 On ch=1 n=g#4 v=0
27312 On ch=1 n=f#4 v=64
27312 Par ch=1 c=64 v=96
27320 On ch=1 n=a4 v=64
27330 On ch=1 n=d5 v=64
27335 On ch=1 n=f#5 v=64
27342 On ch=1 n=a5 v=64
27370 On ch=1 n=a5 v=0
27372 On ch=1 n=f#6 v=64
27400 On ch=1 n=f#6 v=0
27401 Par ch=1 c=7 v=85
27402 On ch=1 n=a6 v=64
27430 On ch=1 n=a6 v=0
27432 On ch=1 n=f#7 v=64
27462 On ch=1 n=a6 v=64
27490 On ch=1 n=a6 v=0
27491 Par ch=1 c=7 v=86
27492 On ch=1 n=f#6 v=64
27520 On ch=1 n=f#6 v=0
27522 On ch=1 n=a5 v=64
27550 On ch=1 n=a5 v=0
27552 On ch=1 n=a2 v=64
27581 Par ch=1 c=7 v=87
27592 On ch=1 n=a3 v=64
27630 On ch=1 n=a3 v=0
27632 On ch=1 n=f#4 v=64
27670 On ch=1 n=a2 v=0
27670 On ch=1 n=f#7 v=0
27670 On ch=1 n=f#4 v=0
27671 Par ch=1 c=7 v=88
27672 On ch=1 n=d5 v=64
27710 On ch=1 n=d5 v=0
27712 On ch=1 n=f#4 v=64
27750 On ch=1 n=f#4 v=0
27752 On ch=1 n=a3 v=64
27752 Par ch=1 c=64 v=0
27761 Par ch=1 c=7 v=89
27790 On ch=1 n=a3 v=0
27790 On ch=1 n=f#4 v=0
27790 On ch=1 n=f#5 v=0
27792 On ch=1 n=d5 v=0
27792 On ch=1 n=g4 v=64
27792 Par ch=1 c=64 v=96
27793 On ch=1 n=a4 v=0
27800 On ch=1 n=a#4 v=64
27807 On ch=1 n=d5 v=64
27814 On ch=1 n=f#5 v=63
27822 On ch=1 n=a#5 v=64
27850 On ch=1 n=a#5 v=0
27851 Par ch=1 c=7 v=90
27852 On ch=1 n=f#6 v=64
27880 On ch=1 n=f#6 v=0
27882 On ch=1 n=a#6 v=64
27910 On ch=1 n=a#6 v=0
27912 On ch=1 n=f#7 v=64
27941 Par ch=1 c=7 v=91
27942 On ch=1 n=a#6 v=64
27970 On ch=1 n=a#6 v=0
27972 On ch=1 n=f#6 v=64
28000 On ch=1 n=f#6 v=0
28002 On ch=1 n=a#5 v=64
28030 On ch=1 n=a#5 v=0
28031 Par ch=1 c=7 v=92
28032 On ch=1 n=a2 v=64
28072 On ch=1 n=a3 v=64
28110 On ch=1 n=a3 v=0
28112 On ch=1 n=g4 v=64
28121 Par ch=1 c=7 v=93
28150 On ch=1 n=a2 v=0
28150 On ch=1 n=f#7 v=0
28150 On ch=1 n=g4 v=0
28152 On ch=1 n=a#4 v=64
28190 On ch=1 n=a#4 v=0
28192 On ch=1 n=g4 v=64
28211 Par ch=1 c=7 v=94
28230 On ch=1 n=g4 v=0
28232 On ch=1 n=a3 v=64
28232 Par ch=1 c=64 v=0
28270 On ch=1 n=a3 v=0
28270 On ch=1 n=g4 v=0
28270 On ch=1 n=f#5 v=0
28272 On ch=1 n=d5 v=0
28272 On ch=1 n=g4 v=64
28272 Par ch=1 c=64 v=96
28273 On ch=1 n=a#4 v=0
28281 On ch=1 n=a4 v=64
28290 On ch=1 n=c#5 v=64
28296 On ch=1 n=f#5 v=63
28301 Par ch=1 c=7 v=95
28302 On ch=1 n=a5 v=64
28330 On ch=1 n=a5 v=0
28332 On ch=1 n=f#6 v=64
28360 On ch=1 n=f#6 v=0
28362 On ch=1 n=a6 v=64
28390 On ch=1 n=a6 v=0
28391 Par ch=1 c=7 v=96
28392 On ch=1 n=f#7 v=64
28422 On ch=1 n=a6 v=64
28450 On ch=1 n=a6 v=0
28452 On ch=1 n=f#6 v=64
28480 On ch=1 n=f#6 v=0
28481 Par ch=1 c=7 v=97
28482 On ch=1 n=a5 v=64
28510 On ch=1 n=a5 v=0
28512 On ch=1 n=a2 v=64
28542 On ch=1 n=a3 v=64
28570 On ch=1 n=a3 v=0
28571 Par ch=1 c=7 v=98
28572 On ch=1 n=g4 v=64
28600 On ch=1 n=g4 v=0
28602 On ch=1 n=a4 v=64
28630 On ch=1 n=g4 v=0
28630 On ch=1 n=a2 v=0
28630 On ch=1 n=f#7 v=0
28630 On ch=1 n=a4 v=0
28631 On ch=1 n=c#5 v=0
28632 On ch=1 n=e5 v=64
28632 On ch=1 n=c#5 v=64
28633 On ch=1 n=a4 v=0
28635 On ch=1 n=f#5 v=0
28660 On ch=1 n=c#5 v=0
28661 Par ch=1 c=7 v=99
28662 On ch=1 n=a4 v=64
28690 On ch=1 n=a4 v=0
28692 On ch=1 n=g4 v=64
28712 Par ch=1 c=64 v=0
28720 On ch=1 n=g4 v=0
28722 On ch=1 n=a3 v=64
28750 On ch=1 n=a3 v=0
28750 On ch=1 n=e5 v=0
28751 Par ch=1 c=7 v=100
28752 On ch=1 n=d5 v=64
28752 On ch=1 n=f#4 v=64
28752 On ch=1 n=d4 v=64
28752 Par ch=1 c=64 v=96
28782 On ch=1 n=a5 v=64
28810 On ch=1 n=a5 v=0
28812 On ch=1 n=d6 v=64
28840 On ch=1 n=d6 v=0
28842 On ch=1 n=a6 v=64
28870 On ch=1 n=a6 v=0
28872 On ch=1 n=d7 v=64
28902 On ch=1 n=a6 v=64
28930 On ch=1 n=a6 v=0
28932 On ch=1 n=d6 v=64
28960 On ch=1 n=d6 v=0
28962 On ch=1 n=a5 v=64
28990 On ch=1 n=a5 v=0
28990 On ch=1 n=d4 v=0
28990 On ch=1 n=f#4 v=0
28990 On ch=1 n=d5 v=0
28992 On ch=1 n=d3 v=64
29020 On ch=1 n=d3 v=0
29022 On ch=1 n=a3 v=64
29050 On ch=1 n=a3 v=0
29052 On ch=1 n=d4 v=64
29080 On ch=1 n=d4 v=0
29082 On ch=1 n=a4 v=64
29110 On ch=1 n=a4 v=0
29110 On ch=1 n=d7 v=0
29112 On ch=1 n=d5 v=64
29140 On ch=1 n=d5 v=0
29142 On ch=1 n=a4 v=64
29170 On ch=1 n=a4 v=0
29172 On ch=1 n=d4 v=64
29200 On ch=1 n=d4 v=0
29202 On ch=1 n=a3 v=64
29230 On ch=1 n=a3 v=0
29232 On ch=1 n=d3 v=64
29432 Par ch=1 c=64 v=0
29470 On ch=1 n=d3 v=0
29472 Tempo 1714286
29472 Par ch=1 c=7 v=100
29472 On ch=1 n=d5 v=64
29472 On ch=1 n=d6 v=64
29472 On ch=1 n=d4 v=64
29472 Par ch=1 c=64 v=96
29489 Par ch=1 c=7 v=99
29507 Par ch=1 c=7 v=98
29525 Par ch=1 c=7 v=97
29543 Par ch=1 c=7 v=96
29561 Par ch=1 c=7 v=95
29579 Par ch=1 c=7 v=94
29597 Par ch=1 c=7 v=93
29615 Tempo 1666667
29615 Par ch=1 c=7 v=92
29633 Par ch=1 c=7 v=91
29651 Par ch=1 c=7 v=90
29669 Par ch=1 c=7 v=89
29687 Par ch=1 c=7 v=88
29705 Par ch=1 c=7 v=87
29710 On ch=1 n=d4 v=0
29710 On ch=1 n=d6 v=0
29710 On ch=1 n=d5 v=0
29712 On ch=1 n=f#5 v=64
29712 On ch=1 n=d5 v=64
29712 On ch=1 n=d6 v=64
29712 On ch=1 n=f#4 v=64
29712 On ch=1 n=d4 v=64
29723 Par ch=1 c=7 v=86
29741 Par ch=1 c=7 v=85
29759 Tempo 1621622
29759 Par ch=1 c=7 v=84
29777 Par ch=1 c=7 v=83
29795 Par ch=1 c=7 v=82
29813 Par ch=1 c=7 v=81
29831 Par ch=1 c=7 v=80
29849 Par ch=1 c=7 v=79
29867 Par ch=1 c=7 v=78
29885 Par ch=1 c=7 v=77
29903 Tempo 1578947
29903 Par ch=1 c=7 v=76
29921 Par ch=1 c=7 v=75
29939 Par ch=1 c=7 v=74
29950 On ch=1 n=d4 v=0
29950 On ch=1 n=f#4 v=0
29950 On ch=1 n=d6 v=0
29950 On ch=1 n=d5 v=0
29950 On ch=1 n=f#5 v=0
29952 On ch=1 n=a5 v=64
29952 On ch=1 n=d5 v=64
29952 On ch=1 n=d6 v=64
29952 On ch=1 n=a4 v=64
29952 On ch=1 n=d4 v=64
29957 Par ch=1 c=7 v=73
29975 Par ch=1 c=7 v=72
29993 Par ch=1 c=7 v=71
30011 Par ch=1 c=7 v=70
30029 Par ch=1 c=7 v=69
30047 Tempo 1538462
30047 Par ch=1 c=7 v=68
30065 Par ch=1 c=7 v=67
30083 Par ch=1 c=7 v=66
30101 Par ch=1 c=7 v=65
30119 Par ch=1 c=7 v=64
30137 Par ch=1 c=7 v=63
30152 Par ch=1 c=64 v=0
30155 Par ch=1 c=7 v=62
30173 Par ch=1 c=7 v=61
30190 On ch=1 n=d4 v=0
30190 On ch=1 n=a4 v=0
30190 On ch=1 n=d6 v=0
30190 On ch=1 n=d5 v=0
30190 On ch=1 n=a5 v=0
30191 Tempo 1500000
30191 Par ch=1 c=7 v=60
30192 Tempo 1363636
30192 Par ch=1 c=7 v=60
30192 On ch=1 n=d4 v=64
30192 On ch=1 n=d5 v=64
30192 On ch=1 n=d6 v=64
30192 Par ch=1 c=64 v=96
30232 On ch=1 n=f4 v=64
30232 On ch=1 n=f5 v=64
30239 Par ch=1 c=7 v=61
30270 On ch=1 n=f5 v=0
30270 On ch=1 n=f4 v=0
30272 On ch=1 n=a#4 v=64
30272 On ch=1 n=a#5 v=64
30287 Par ch=1 c=7 v=62
30310 On ch=1 n=a#5 v=0
30310 On ch=1 n=a#4 v=0
30312 On ch=1 n=d5 v=64
30312 On ch=1 n=d6 v=64
30335 Par ch=1 c=7 v=63
30350 On ch=1 n=d6 v=0
30350 On ch=1 n=d5 v=0
30352 On ch=1 n=f5 v=64
30352 On ch=1 n=f6 v=64
30383 Par ch=1 c=7 v=64
30390 On ch=1 n=f6 v=0
30390 On ch=1 n=f5 v=0
30392 On ch=1 n=a#5 v=64
30392 On ch=1 n=a#6 v=64
30430 On ch=1 n=a#6 v=0
30430 On ch=1 n=a#5 v=0
30431 Par ch=1 c=7 v=65
30432 On ch=1 n=d6 v=64
30432 On ch=1 n=d7 v=64
30470 On ch=1 n=d7 v=0
30470 On ch=1 n=d6 v=0
30472 On ch=1 n=a#5 v=64
30472 On ch=1 n=a#6 v=64
30479 Par ch=1 c=7 v=66
30510 On ch=1 n=a#6 v=0
30510 On ch=1 n=a#5 v=0
30512 On ch=1 n=f5 v=64
30512 On ch=1 n=f6 v=64
30527 Par ch=1 c=7 v=67
30550 On ch=1 n=f6 v=0
30550 On ch=1 n=f5 v=0
30552 On ch=1 n=d5 v=64
30552 On ch=1 n=d6 v=64
30575 Par ch=1 c=7 v=68
30590 On ch=1 n=d6 v=0
30590 On ch=1 n=d5 v=0
30592 On ch=1 n=a#4 v=64
30592 On ch=1 n=a#5 v=64
30623 Par ch=1 c=7 v=69
30630 On ch=1 n=a#5 v=0
30630 On ch=1 n=a#4 v=0
30632 On ch=1 n=f4 v=64
30632 On ch=1 n=f5 v=64
30632 Par ch=1 c=64 v=0
30670 On ch=1 n=f5 v=0
30670 On ch=1 n=f4 v=0
30670 On ch=1 n=d6 v=0
30670 On ch=1 n=d5 v=0
30670 On ch=1 n=d4 v=0
30671 Par ch=1 c=7 v=70
30672 On ch=1 n=c#4 v=64
30672 On ch=1 n=c#5 v=64
30672 On ch=1 n=c#6 v=64
30672 Par ch=1 c=64 v=96
30712 On ch=1 n=f4 v=64
30712 On ch=1 n=f5 v=64
30719 Par ch=1 c=7 v=71
30750 On ch=1 n=f5 v=0
30750 On ch=1 n=f4 v=0
30752 On ch=1 n=a#4 v=64
30752 On ch=1 n=a#5 v=64
30767 Par ch=1 c=7 v=72
30790 On ch=1 n=a#5 v=0
30790 On ch=1 n=a#4 v=0
30792 On ch=1 n=c#5 v=64
30792 On ch=1 n=c#6 v=64
30815 Par ch=1 c=7 v=73
30830 On ch=1 n=c#6 v=0
30830 On ch=1 n=c#5 v=0
30832 On ch=1 n=f5 v=64
30832 On ch=1 n=f6 v=64
30863 Par ch=1 c=7 v=74
30870 On ch=1 n=f6 v=0
30870 On ch=1 n=f5 v=0
30872 On ch=1 n=a#5 v=64
30872 On ch=1 n=a#6 v=64
30910 On ch=1 n=a#6 v=0
30910 On ch=1 n=a#5 v=0
30911 Par ch=1 c=7 v=75
30912 On ch=1 n=c#6 v=64
30912 On ch=1 n=c#7 v=64
30950 On ch=1 n=c#7 v=0
30950 On ch=1 n=c#6 v=0
30952 On ch=1 n=a#5 v=64
30952 On ch=1 n=a#6 v=64
30959 Par ch=1 c=7 v=76
30990 On ch=1 n=a#6 v=0
30990 On ch=1 n=a#5 v=0
30992 On ch=1 n=f5 v=64
30992 On ch=1 n=f6 v=64
31007 Par ch=1 c=7 v=77
31030 On ch=1 n=f6 v=0
31030 On ch=1 n=f5 v=0
31032 On ch=1 n=c#5 v=64
31032 On ch=1 n=c#6 v=64
31055 Par ch=1 c=7 v=78
31070 On ch=1 n=c#6 v=0
31070 On ch=1 n=c#5 v=0
31072 On ch=1 n=a#4 v=64
31072 On ch=1 n=a#5 v=64
31103 Par ch=1 c=7 v=79
31110 On ch=1 n=a#5 v=0
31110 On ch=1 n=a#4 v=0
31112 On ch=1 n=f4 v=64
31112 On ch=1 n=f5 v=64
31112 Par ch=1 c=64 v=0
31150 On ch=1 n=f5 v=0
31150 On ch=1 n=f4 v=0
31150 On ch=1 n=c#6 v=0
31150 On ch=1 n=c#5 v=0
31150 On ch=1 n=c#4 v=0
31151 Par ch=1 c=7 v=80
31152 On ch=1 n=d4 v=64
31152 On ch=1 n=d5 v=64
31152 On ch=1 n=d6 v=64
31152 Par ch=1 c=64 v=96
31192 On ch=1 n=f4 v=64
31192 On ch=1 n=f5 v=64
31199 Par ch=1 c=7 v=81
31230 On ch=1 n=f5 v=0
31230 On ch=1 n=f4 v=0
31232 On ch=1 n=a#4 v=64
31232 On ch=1 n=a#5 v=64
31247 Par ch=1 c=7 v=82
31270 On ch=1 n=a#5 v=0
31270 On ch=1 n=a#4 v=0
31272 On ch=1 n=d5 v=64
31272 On ch=1 n=d6 v=64
31295 Par ch=1 c=7 v=83
31310 On ch=1 n=d6 v=0
31310 On ch=1 n=d5 v=0
31312 On ch=1 n=f5 v=64
31312 On ch=1 n=f6 v=64
31343 Par ch=1 c=7 v=84
31350 On ch=1 n=f6 v=0
31350 On ch=1 n=f5 v=0
31352 On ch=1 n=a#5 v=64
31352 On ch=1 n=a#6 v=64
31390 On ch=1 n=a#6 v=0
31390 On ch=1 n=a#5 v=0
31391 Par ch=1 c=7 v=85
31392 On ch=1 n=d6 v=64
31392 On ch=1 n=d7 v=64
31430 On ch=1 n=d7 v=0
31430 On ch=1 n=d6 v=0
31432 On ch=1 n=a#5 v=64
31432 On ch=1 n=a#6 v=64
31439 Par ch=1 c=7 v=86
31470 On ch=1 n=a#6 v=0
31470 On ch=1 n=a#5 v=0
31472 On ch=1 n=f5 v=64
31472 On ch=1 n=f6 v=64
31487 Par ch=1 c=7 v=87
31510 On ch=1 n=f6 v=0
31510 On ch=1 n=f5 v=0
31512 On ch=1 n=d5 v=64
31512 On ch=1 n=d6 v=64
31535 Par ch=1 c=7 v=88
31550 On ch=1 n=d6 v=0
31550 On ch=1 n=d5 v=0
31552 On ch=1 n=a#4 v=64
31552 On ch=1 n=a#5 v=64
31583 Par ch=1 c=7 v=89
31590 On ch=1 n=a#5 v=0
31590 On ch=1 n=a#4 v=0
31592 On ch=1 n=f4 v=64
31592 On ch=1 n=f5 v=64
31592 Par ch=1 c=64 v=0
31630 On ch=1 n=f5 v=0
31630 On ch=1 n=f4 v=0
31630 On ch=1 n=d6 v=0
31630 On ch=1 n=d5 v=0
31630 On ch=1 n=d4 v=0
31631 Par ch=1 c=7 v=90
31632 Par ch=1 c=7 v=90
31632 On ch=1 n=d4 v=64
31632 On ch=1 n=d5 v=64
31632 On ch=1 n=f#5 v=64
31632 On ch=1 n=f#6 v=64
31632 Par ch=1 c=64 v=96
31672 On ch=1 n=a4 v=64
31672 On ch=1 n=a5 v=64
31679 Par ch=1 c=7 v=91
31710 On ch=1 n=a5 v=0
31710 On ch=1 n=a4 v=0
31712 On ch=1 n=f#4 v=64
31712 On ch=1 n=d6 v=64
31727 Par ch=1 c=7 v=92
31750 On ch=1 n=d6 v=0
31750 On ch=1 n=f#4 v=0
31752 On ch=1 n=d4 v=64
31752 On ch=1 n=f#6 v=64
31775 Par ch=1 c=7 v=93
31790 On ch=1 n=f#6 v=0
31790 On ch=1 n=d4 v=0
31792 On ch=1 n=a3 v=64
31792 On ch=1 n=a6 v=64
31823 Par ch=1 c=7 v=94
31830 On ch=1 n=a6 v=0
31830 On ch=1 n=a3 v=0
31832 On ch=1 n=f#3 v=64
31832 On ch=1 n=d7 v=64
31870 On ch=1 n=d7 v=0
31870 On ch=1 n=f#3 v=0
31871 Par ch=1 c=7 v=95
31872 On ch=1 n=d3 v=64
31872 On ch=1 n=f#7 v=64
31910 On ch=1 n=f#7 v=0
31910 On ch=1 n=d3 v=0
31912 On ch=1 n=f#3 v=64
31912 On ch=1 n=d7 v=64
31919 Par ch=1 c=7 v=96
31950 On ch=1 n=d7 v=0
31950 On ch=1 n=f#3 v=0
31952 On ch=1 n=a3 v=64
31952 On ch=1 n=a6 v=64
31967 Par ch=1 c=7 v=97
31990 On ch=1 n=a6 v=0
31990 On ch=1 n=a3 v=0
31992 On ch=1 n=d4 v=64
31992 On ch=1 n=f#6 v=64
32015 Par ch=1 c=7 v=98
32030 On ch=1 n=f#6 v=0
32030 On ch=1 n=d4 v=0
32032 On ch=1 n=f#4 v=64
32032 On ch=1 n=d6 v=64
32063 Par ch=1 c=7 v=99
32070 On ch=1 n=d6 v=0
32070 On ch=1 n=f#4 v=0
32072 On ch=1 n=a4 v=64
32072 On ch=1 n=a5 v=64
32110 On ch=1 n=a5 v=0
32110 On ch=1 n=a4 v=0
32110 On ch=1 n=f#6 v=0
32110 On ch=1 n=d4 v=0
32110 On ch=1 n=f#5 v=0
32110 On ch=1 n=d5 v=0
32111 Par ch=1 c=7 v=100
32112 On ch=1 n=d5 v=64
32112 On ch=1 n=f#5 v=64
32230 On ch=1 n=f#5 v=0
32230 On ch=1 n=d5 v=0
32312 Par ch=1 c=64 v=0
32352 Tempo 1500000
32352 Par ch=1 c=7 v=100
32352 On ch=1 n=d4 v=64
32352 On ch=1 n=d5 v=64
32352 On ch=1 n=d6 v=64
32352 Par ch=1 c=64 v=96
32369 Par ch=1 c=7 v=99
32387 Par ch=1 c=7 v=98
32405 Par ch=1 c=7 v=97
32423 Par ch=1 c=7 v=96
32441 Par ch=1 c=7 v=95
32459 Par ch=1 c=7 v=94
32477 Par ch=1 c=7 v=93
32495 Par ch=1 c=7 v=92
32513 Par ch=1 c=7 v=91
32530 On ch=1 n=d6 v=0
32530 On ch=1 n=d5 v=0
32530 On ch=1 n=d4 v=0
32531 Par ch=1 c=7 v=90
32532 On ch=1 n=d4 v=64
32532 On ch=1 n=d5 v=64
32532 On ch=1 n=d6 v=64
32549 Par ch=1 c=7 v=89
32567 Par ch=1 c=7 v=88
32585 Par ch=1 c=7 v=87
32590 On ch=1 n=d6 v=0
32590 On ch=1 n=d5 v=0
32590 On ch=1 n=d4 v=0
32592 On ch=1 n=f#4 v=64
32592 On ch=1 n=d4 v=64
32592 On ch=1 n=d6 v=64
32592 On ch=1 n=f#5 v=64
32592 On ch=1 n=d5 v=64
32603 Par ch=1 c=7 v=86
32621 Par ch=1 c=7 v=85
32639 Par ch=1 c=7 v=84
32657 Par ch=1 c=7 v=83
32675 Par ch=1 c=7 v=82
32693 Par ch=1 c=7 v=81
32711 Par ch=1 c=7 v=80
32729 Par ch=1 c=7 v=79
32747 Par ch=1 c=7 v=78
32765 Par ch=1 c=7 v=77
32783 Par ch=1 c=7 v=76
32801 Par ch=1 c=7 v=75
32819 Par ch=1 c=7 v=74
32830 On ch=1 n=d5 v=0
32830 On ch=1 n=f#5 v=0
32830 On ch=1 n=d6 v=0
32830 On ch=1 n=d4 v=0
32830 On ch=1 n=f#4 v=0
32832 On ch=1 n=a4 v=64
32832 On ch=1 n=d4 v=64
32832 On ch=1 n=d6 v=64
32832 On ch=1 n=a5 v=64
32832 On ch=1 n=d5 v=64
32837 Par ch=1 c=7 v=73
32855 Par ch=1 c=7 v=72
32873 Par ch=1 c=7 v=71
32891 Par ch=1 c=7 v=70
32909 Par ch=1 c=7 v=69
32927 Par ch=1 c=7 v=68
32945 Par ch=1 c=7 v=67
32963 Par ch=1 c=7 v=66
32981 Par ch=1 c=7 v=65
32999 Par ch=1 c=7 v=64
33017 Par ch=1 c=7 v=63
33032 Par ch=1 c=64 v=0
33035 Par ch=1 c=7 v=62
33053 Par ch=1 c=7 v=61
33070 On ch=1 n=d5 v=0
33070 On ch=1 n=a5 v=0
33070 On ch=1 n=d6 v=0
33070 On ch=1 n=d4 v=0
33070 On ch=1 n=a4 v=0
33071 Par ch=1 c=7 v=60
33072 Tempo 1363636
33072 Par ch=1 c=7 v=60
33072 On ch=1 n=d4 v=64
33072 On ch=1 n=d5 v=64
33072 On ch=1 n=d6 v=64
33072 Par ch=1 c=64 v=96
33112 On ch=1 n=f#4 v=64
33112 On ch=1 n=f#5 v=64
33119 Par ch=1 c=7 v=61
33150 On ch=1 n=f#5 v=0
33150 On ch=1 n=f#4 v=0
33152 On ch=1 n=b5 v=64
33152 On ch=1 n=b4 v=64
33167 Par ch=1 c=7 v=62
33190 On ch=1 n=b4 v=0
33190 On ch=1 n=b5 v=0
33192 On ch=1 n=d5 v=64
33192 On ch=1 n=d6 v=64
33215 Par ch=1 c=7 v=63
33230 On ch=1 n=d6 v=0
33230 On ch=1 n=d5 v=0
33232 On ch=1 n=f#6 v=64
33232 On ch=1 n=f#5 v=64
33263 Par ch=1 c=7 v=64
33270 On ch=1 n=f#5 v=0
33270 On ch=1 n=f#6 v=0
33272 On ch=1 n=b6 v=64
33272 On ch=1 n=b5 v=64
33310 On ch=1 n=b5 v=0
33310 On ch=1 n=b6 v=0
33311 Par ch=1 c=7 v=65
33312 On ch=1 n=d6 v=64
33312 On ch=1 n=d7 v=64
33350 On ch=1 n=d7 v=0
33350 On ch=1 n=d6 v=0
33352 On ch=1 n=b6 v=64
33352 On ch=1 n=b5 v=64
33359 Par ch=1 c=7 v=66
33390 On ch=1 n=b5 v=0
33390 On ch=1 n=b6 v=0
33392 On ch=1 n=f#6 v=64
33392 On ch=1 n=f#5 v=64
33407 Par ch=1 c=7 v=67
33430 On ch=1 n=f#5 v=0
33430 On ch=1 n=f#6 v=0
33432 On ch=1 n=d5 v=64
33432 On ch=1 n=d6 v=64
33455 Par ch=1 c=7 v=68
33470 On ch=1 n=d6 v=0
33470 On ch=1 n=d5 v=0
33472 On ch=1 n=b5 v=64
33472 On ch=1 n=b4 v=64
33503 Par ch=1 c=7 v=69
33510 On ch=1 n=b4 v=0
33510 On ch=1 n=b5 v=0
33512 On ch=1 n=f#5 v=64
33512 On ch=1 n=f#4 v=64
33512 Par ch=1 c=64 v=0
33550 On ch=1 n=f#4 v=0
33550 On ch=1 n=f#5 v=0
33550 On ch=1 n=d6 v=0
33550 On ch=1 n=d5 v=0
33550 On ch=1 n=d4 v=0
33551 Par ch=1 c=7 v=70
33552 On ch=1 n=c#4 v=64
33552 On ch=1 n=c#5 v=64
33552 On ch=1 n=c#6 v=64
33552 Par ch=1 c=64 v=96
33592 On ch=1 n=f#5 v=64
33592 On ch=1 n=f#4 v=64
33599 Par ch=1 c=7 v=71
33630 On ch=1 n=f#4 v=0
33630 On ch=1 n=f#5 v=0
33632 On ch=1 n=b5 v=64
33632 On ch=1 n=b4 v=64
33647 Par ch=1 c=7 v=72
33670 On ch=1 n=b4 v=0
33670 On ch=1 n=b5 v=0
33672 On ch=1 n=c#5 v=64
33672 On ch=1 n=c#6 v=64
33695 Par ch=1 c=7 v=73
33710 On ch=1 n=c#6 v=0
33710 On ch=1 n=c#5 v=0
33712 On ch=1 n=f#6 v=64
33712 On ch=1 n=f#5 v=64
33743 Par ch=1 c=7 v=74
33750 On ch=1 n=f#5 v=0
33750 On ch=1 n=f#6 v=0
33752 On ch=1 n=b6 v=64
33752 On ch=1 n=b5 v=64
33790 On ch=1 n=b5 v=0
33790 On ch=1 n=b6 v=0
33791 Par ch=1 c=7 v=75
33792 On ch=1 n=c#6 v=64
33792 On ch=1 n=c#7 v=64
33830 On ch=1 n=c#7 v=0
33830 On ch=1 n=c#6 v=0
33832 On ch=1 n=b6 v=64
33832 On ch=1 n=b5 v=64
33839 Par ch=1 c=7 v=76
33870 On ch=1 n=b5 v=0
33870 On ch=1 n=b6 v=0
33872 On ch=1 n=f#6 v=64
33872 On ch=1 n=f#5 v=64
33887 Par ch=1 c=7 v=77
33910 On ch=1 n=f#5 v=0
33910 On ch=1 n=f#6 v=0
33912 On ch=1 n=c#5 v=64
33912 On ch=1 n=c#6 v=64
33935 Par ch=1 c=7 v=78
33950 On ch=1 n=c#6 v=0
33950 On ch=1 n=c#5 v=0
33952 On ch=1 n=b5 v=64
33952 On ch=1 n=b4 v=64
33983 Par ch=1 c=7 v=79
33990 On ch=1 n=b4 v=0
33990 On ch=1 n=b5 v=0
33992 On ch=1 n=f#5 v=64
33992 On ch=1 n=f#4 v=64
33992 Par ch=1 c=64 v=0
34030 On ch=1 n=f#4 v=0
34030 On ch=1 n=f#5 v=0
34030 On ch=1 n=c#6 v=0
34030 On ch=1 n=c#5 v=0
34030 On ch=1 n=c#4 v=0
34031 Par ch=1 c=7 v=80
34032 On ch=1 n=d4 v=64
34032 On ch=1 n=d5 v=64
34032 On ch=1 n=d6 v=64
34032 Par ch=1 c=64 v=96
34072 On ch=1 n=f#5 v=64
34072 On ch=1 n=f#4 v=64
34079 Par ch=1 c=7 v=81
34110 On ch=1 n=f#4 v=0
34110 On ch=1 n=f#5 v=0
34112 On ch=1 n=b5 v=64
34112 On ch=1 n=b4 v=64
34127 Par ch=1 c=7 v=82
34150 On ch=1 n=b4 v=0
34150 On ch=1 n=b5 v=0
34152 On ch=1 n=d5 v=64
34152 On ch=1 n=d6 v=64
34175 Par ch=1 c=7 v=83
34190 On ch=1 n=d6 v=0
34190 On ch=1 n=d5 v=0
34192 On ch=1 n=f#6 v=64
34192 On ch=1 n=f#5 v=64
34223 Par ch=1 c=7 v=84
34230 On ch=1 n=f#5 v=0
34230 On ch=1 n=f#6 v=0
34232 On ch=1 n=b6 v=64
34232 On ch=1 n=b5 v=64
34270 On ch=1 n=b5 v=0
34270 On ch=1 n=b6 v=0
34271 Par ch=1 c=7 v=85
34272 On ch=1 n=d6 v=64
34272 On ch=1 n=d7 v=64
34310 On ch=1 n=d7 v=0
34310 On ch=1 n=d6 v=0
34312 On ch=1 n=b6 v=64
34312 On ch=1 n=b5 v=64
34319 Par ch=1 c=7 v=86
34350 On ch=1 n=b5 v=0
34350 On ch=1 n=b6 v=0
34352 On ch=1 n=f#6 v=64
34352 On ch=1 n=f#5 v=64
34367 Par ch=1 c=7 v=87
34390 On ch=1 n=f#5 v=0
34390 On ch=1 n=f#6 v=0
34392 On ch=1 n=d5 v=64
34392 On ch=1 n=d6 v=64
34415 Par ch=1 c=7 v=88
34430 On ch=1 n=d6 v=0
34430 On ch=1 n=d5 v=0
34432 On ch=1 n=b5 v=64
34432 On ch=1 n=b4 v=64
34463 Par ch=1 c=7 v=89
34470 On ch=1 n=b4 v=0
34470 On ch=1 n=b5 v=0
34472 On ch=1 n=f#5 v=64
34472 On ch=1 n=f#4 v=64
34472 Par ch=1 c=64 v=0
34510 On ch=1 n=f#4 v=0
34510 On ch=1 n=f#5 v=0
34510 On ch=1 n=d6 v=0
34510 On ch=1 n=d5 v=0
34510 On ch=1 n=d4 v=0
34511 Par ch=1 c=7 v=90
34512 Par ch=1 c=7 v=90
34512 On ch=1 n=f#4 v=64
34512 On ch=1 n=f#5 v=64
34512 On ch=1 n=f#6 v=64
34512 Par ch=1 c=64 v=96
34552 On ch=1 n=c#5 v=64
34552 On ch=1 n=a#5 v=64
34559 Par ch=1 c=7 v=91
34590 On ch=1 n=a#5 v=0
34590 On ch=1 n=c#5 v=0
34592 On ch=1 n=a#4 v=64
34592 On ch=1 n=c#6 v=64
34607 Par ch=1 c=7 v=92
34630 On ch=1 n=c#6 v=0
34630 On ch=1 n=a#4 v=0
34632 On ch=1 n=f#4 v=64
34632 On ch=1 n=f#6 v=64
34655 Par ch=1 c=7 v=93
34670 On ch=1 n=f#6 v=0
34670 On ch=1 n=f#4 v=0
34672 On ch=1 n=c#4 v=64
34672 On ch=1 n=a#6 v=64
34703 Par ch=1 c=7 v=94
34710 On ch=1 n=a#6 v=0
34710 On ch=1 n=c#4 v=0
34712 On ch=1 n=a#3 v=64
34712 On ch=1 n=c#7 v=64
34750 On ch=1 n=c#7 v=0
34750 On ch=1 n=a#3 v=0
34751 Par ch=1 c=7 v=95
34752 On ch=1 n=f#3 v=64
34752 On ch=1 n=f#7 v=64
34790 On ch=1 n=f#7 v=0
34790 On ch=1 n=f#3 v=0
34792 On ch=1 n=a#3 v=64
34792 On ch=1 n=c#7 v=64
34799 Par ch=1 c=7 v=96
34830 On ch=1 n=c#7 v=0
34830 On ch=1 n=a#3 v=0
34832 On ch=1 n=c#4 v=64
34832 On ch=1 n=a#6 v=64
34847 Par ch=1 c=7 v=97
34870 On ch=1 n=a#6 v=0
34870 On ch=1 n=c#4 v=0
34872 On ch=1 n=f#4 v=64
34872 On ch=1 n=f#6 v=64
34895 Par ch=1 c=7 v=98
34910 On ch=1 n=f#6 v=0
34910 On ch=1 n=f#4 v=0
34912 On ch=1 n=a#4 v=64
34912 On ch=1 n=c#6 v=64
34943 Par ch=1 c=7 v=99
34950 On ch=1 n=c#6 v=0
34950 On ch=1 n=a#4 v=0
34952 On ch=1 n=c#5 v=64
34952 On ch=1 n=a#5 v=64
34990 On ch=1 n=a#5 v=0
34990 On ch=1 n=c#5 v=0
34990 On ch=1 n=f#6 v=0
34990 On ch=1 n=f#4 v=0
34990 On ch=1 n=f#5 v=0
34991 Par ch=1 c=7 v=100
34992 On ch=1 n=f#5 v=64
35110 On ch=1 n=f#5 v=0
35192 Par ch=1 c=64 v=0
35232 Tempo 1500000
35232 On ch=1 n=f#4 v=64
35232 On ch=1 n=f#5 v=64
35232 On ch=1 n=f#6 v=64
35232 Par ch=1 c=64 v=96
35470 On ch=1 n=f#6 v=0
35470 On ch=1 n=f#5 v=0
35470 On ch=1 n=f#4 v=0
35472 On ch=1 n=f#4 v=64
35472 On ch=1 n=f#5 v=64
35472 On ch=1 n=f#6 v=64
35472 On ch=1 n=a#4 v=64
35472 On ch=1 n=a#5 v=64
35710 On ch=1 n=a#5 v=0
35710 On ch=1 n=a#4 v=0
35710 On ch=1 n=f#6 v=0
35710 On ch=1 n=f#5 v=0
35710 On ch=1 n=f#4 v=0
35712 On ch=1 n=c#5 v=64
35712 On ch=1 n=f#4 v=64
35712 On ch=1 n=c#6 v=64
35712 On ch=1 n=f#5 v=64
35712 On ch=1 n=f#6 v=64
35912 Par ch=1 c=64 v=0
35950 On ch=1 n=f#6 v=0
35950 On ch=1 n=f#5 v=0
35950 On ch=1 n=c#6 v=0
35950 On ch=1 n=f#4 v=0
35950 On ch=1 n=c#5 v=0
35952 Tempo 1363636
35952 On ch=1 n=d#4 v=64
35952 On ch=1 n=d#5 v=64
35952 On ch=1 n=f#5 v=64
35952 On ch=1 n=f#6 v=64
35952 Par ch=1 c=64 v=96
35992 On ch=1 n=a#4 v=64
35992 On ch=1 n=a#5 v=64
36030 On ch=1 n=a#5 v=0
36030 On ch=1 n=a#4 v=0
36032 On ch=1 n=f#4 v=64
36032 On ch=1 n=d#6 v=64
36070 On ch=1 n=d#6 v=0
36070 On ch=1 n=f#4 v=0
36072 On ch=1 n=d#4 v=64
36072 On ch=1 n=f#6 v=64
36110 On ch=1 n=f#6 v=0
36110 On ch=1 n=d#4 v=0
36112 On ch=1 n=a#3 v=64
36112 On ch=1 n=a#6 v=64
36150 On ch=1 n=a#6 v=0
36150 On ch=1 n=a#3 v=0
36152 On ch=1 n=f#3 v=64
36152 On ch=1 n=d#7 v=64
36190 On ch=1 n=d#7 v=0
36190 On ch=1 n=f#3 v=0
36192 On ch=1 n=d#3 v=64
36192 On ch=1 n=f#7 v=64
36230 On ch=1 n=f#7 v=0
36230 On ch=1 n=d#3 v=0
36232 On ch=1 n=f#3 v=64
36232 On ch=1 n=d#7 v=64
36270 On ch=1 n=d#7 v=0
36270 On ch=1 n=f#3 v=0
36272 On ch=1 n=a#3 v=64
36272 On ch=1 n=a#6 v=64
36310 On ch=1 n=a#6 v=0
36310 On ch=1 n=a#3 v=0
36312 On ch=1 n=d#4 v=64
36312 On ch=1 n=f#6 v=64
36350 On ch=1 n=f#6 v=0
36350 On ch=1 n=d#4 v=0
36352 On ch=1 n=f#4 v=64
36352 On ch=1 n=d#6 v=64
36390 On ch=1 n=d#6 v=0
36390 On ch=1 n=f#4 v=0
36392 On ch=1 n=a#4 v=64
36392 On ch=1 n=a#5 v=64
36430 On ch=1 n=a#5 v=0
36430 On ch=1 n=a#4 v=0
36430 On ch=1 n=f#6 v=0
36430 On ch=1 n=d#4 v=0
36430 On ch=1 n=f#5 v=0
36430 On ch=1 n=d#5 v=0
36432 On ch=1 n=d#5 v=64
36432 On ch=1 n=f#5 v=64
36550 On ch=1 n=f#5 v=0
36550 On ch=1 n=d#5 v=0
36632 Par ch=1 c=64 v=0
36672 Tempo 1500000
36672 On ch=1 n=f#4 v=64
36672 On ch=1 n=f#5 v=64
36672 On ch=1 n=f#6 v=64
36672 Par ch=1 c=64 v=96
36850 On ch=1 n=f#6 v=0
36850 On ch=1 n=f#5 v=0
36850 On ch=1 n=f#4 v=0
36852 On ch=1 n=f#4 v=64
36852 On ch=1 n=f#6 v=64
36852 On ch=1 n=f#5 v=64
36910 On ch=1 n=f#5 v=0
36910 On ch=1 n=f#6 v=0
36910 On ch=1 n=f#4 v=0
36912 On ch=1 n=f#4 v=64
36912 On ch=1 n=f#5 v=64
36912 On ch=1 n=f#6 v=64
36912 On ch=1 n=a#4 v=64
36912 On ch=1 n=a#5 v=64
37150 On ch=1 n=a#5 v=0
37150 On ch=1 n=a#4 v=0
37150 On ch=1 n=f#6 v=0
37150 On ch=1 n=f#5 v=0
37150 On ch=1 n=f#4 v=0
37152 On ch=1 n=f#4 v=64
37152 On ch=1 n=f#5 v=64
37152 On ch=1 n=f#6 v=64
37152 On ch=1 n=d#5 v=64
37152 On ch=1 n=d#6 v=64
37344 Par ch=1 c=64 v=0
37390 On ch=1 n=d#6 v=0
37390 On ch=1 n=d#5 v=0
37390 On ch=1 n=f#6 v=0
37390 On ch=1 n=f#5 v=0
37390 On ch=1 n=f#4 v=0
37392 Tempo 1363636
37392 Par ch=1 c=7 v=100
37392 On ch=1 n=a#3 v=64
37392 On ch=1 n=a#4 v=64
37392 On ch=1 n=a#5 v=64
37392 On ch=1 n=a#6 v=64
37392 Par ch=1 c=64 v=96
37432 On ch=1 n=d4 v=64
37432 On ch=1 n=f6 v=64
37470 On ch=1 n=f6 v=0
37470 On ch=1 n=d4 v=0
37472 On ch=1 n=d6 v=64
37472 On ch=1 n=f4 v=64
37510 On ch=1 n=f4 v=0
37510 On ch=1 n=d6 v=0
37512 On ch=1 n=a#4 v=64
37512 On ch=1 n=a#5 v=64
37550 On ch=1 n=a#5 v=0
37550 On ch=1 n=a#4 v=0
37552 On ch=1 n=d6 v=64
37552 On ch=1 n=f4 v=64
37590 On ch=1 n=f4 v=0
37590 On ch=1 n=d6 v=0
37592 On ch=1 n=d4 v=64
37592 On ch=1 n=f6 v=64
37630 On ch=1 n=f6 v=0
37630 On ch=1 n=d4 v=0
37632 On ch=1 n=a#3 v=64
37632 On ch=1 n=a#6 v=64
37670 On ch=1 n=a#6 v=0
37670 On ch=1 n=a#3 v=0
37672 On ch=1 n=d7 v=64
37672 On ch=1 n=f3 v=64
37679 Tempo 1333333
37679 Par ch=1 c=7 v=101
37710 On ch=1 n=f3 v=0
37710 On ch=1 n=d7 v=0
37712 On ch=1 n=d3 v=64
37712 On ch=1 n=f7 v=64
37750 On ch=1 n=f7 v=0
37750 On ch=1 n=d3 v=0
37752 On ch=1 n=a#2 v=64
37752 On ch=1 n=f3 v=64
37752 On ch=1 n=a#3 v=64
37752 On ch=1 n=a#6 v=64
37761 On ch=1 n=d7 v=65
37769 On ch=1 n=a#7 v=64
37810 On ch=1 n=f3 v=0
37810 On ch=1 n=a#2 v=0
37810 On ch=1 n=a#6 v=0
37810 On ch=1 n=a#3 v=0
37813 On ch=1 n=d7 v=0
37814 On ch=1 n=a#7 v=0
37832 Par ch=1 c=64 v=0
37870 On ch=1 n=a#6 v=0
37870 On ch=1 n=a#3 v=0
37870 On ch=1 n=a#5 v=0
37870 On ch=1 n=a#4 v=0
37872 On ch=1 n=g3 v=64
37872 On ch=1 n=g4 v=64
37872 On ch=1 n=a#5 v=64
37872 On ch=1 n=a#6 v=64
37872 Par ch=1 c=64 v=96
37912 On ch=1 n=g6 v=64
37912 On ch=1 n=a#3 v=64
37950 On ch=1 n=a#3 v=0
37950 On ch=1 n=g6 v=0
37952 On ch=1 n=d4 v=64
37952 On ch=1 n=d6 v=64
37967 Tempo 1304348
37967 Par ch=1 c=7 v=102
37990 On ch=1 n=d6 v=0
37990 On ch=1 n=d4 v=0
37992 On ch=1 n=g4 v=64
37992 On ch=1 n=a#5 v=64
38030 On ch=1 n=a#5 v=0
38030 On ch=1 n=g4 v=0
38032 On ch=1 n=d4 v=64
38032 On ch=1 n=d6 v=64
38070 On ch=1 n=d6 v=0
38070 On ch=1 n=d4 v=0
38072 On ch=1 n=g6 v=64
38072 On ch=1 n=a#3 v=64
38110 On ch=1 n=a#3 v=0
38110 On ch=1 n=g6 v=0
38112 On ch=1 n=g3 v=64
38112 On ch=1 n=a#6 v=64
38150 On ch=1 n=a#6 v=0
38150 On ch=1 n=g3 v=0
38152 On ch=1 n=d3 v=64
38152 On ch=1 n=d7 v=64
38190 On ch=1 n=d7 v=0
38190 On ch=1 n=d3 v=0
38192 On ch=1 n=g7 v=64
38192 On ch=1 n=a#2 v=64
38230 On ch=1 n=a#2 v=0
38230 On ch=1 n=g7 v=0
38232 On ch=1 n=g3 v=64
38232 On ch=1 n=d3 v=64
38232 On ch=1 n=g2 v=64
38232 On ch=1 n=a#6 v=64
38239 On ch=1 n=d7 v=64
38247 On ch=1 n=a#7 v=64
38255 Tempo 1276596
38255 Par ch=1 c=7 v=103
38290 On ch=1 n=g2 v=0
38290 On ch=1 n=d3 v=0
38290 On ch=1 n=a#6 v=0
38290 On ch=1 n=g3 v=0
38292 On ch=1 n=a#7 v=0
38292 On ch=1 n=d7 v=0
38312 Par ch=1 c=64 v=0
38350 On ch=1 n=a#6 v=0
38350 On ch=1 n=g3 v=0
38350 On ch=1 n=a#5 v=0
38350 On ch=1 n=g4 v=0
38352 On ch=1 n=d4 v=64
38352 On ch=1 n=d5 v=64
38352 On ch=1 n=d6 v=64
38352 On ch=1 n=d7 v=64
38352 Par ch=1 c=64 v=96
38392 On ch=1 n=f#4 v=64
38392 On ch=1 n=a6 v=64
38430 On ch=1 n=a6 v=0
38430 On ch=1 n=f#4 v=0
38432 On ch=1 n=a4 v=64
38432 On ch=1 n=f#6 v=64
38470 On ch=1 n=f#6 v=0
38470 On ch=1 n=a4 v=0
38472 On ch=1 n=d5 v=64
38472 On ch=1 n=d6 v=64
38510 On ch=1 n=d6 v=0
38510 On ch=1 n=d5 v=0
38512 On ch=1 n=f#4 v=64
38512 On ch=1 n=a6 v=64
38543 Tempo 1250000
38543 Par ch=1 c=7 v=104
38544 Par ch=1 c=64 v=0
38550 On ch=1 n=a6 v=0
38550 On ch=1 n=f#4 v=0
38552 On ch=1 n=a4 v=64
38552 On ch=1 n=f#6 v=64
38590 On ch=1 n=f#6 v=0
38590 On ch=1 n=a4 v=0
38590 On ch=1 n=d6 v=0
38590 On ch=1 n=d5 v=0
38590 On ch=1 n=d7 v=0
38590 On ch=1 n=d4 v=0
38592 On ch=1 n=b3 v=64
38592 On ch=1 n=b4 v=64
38592 On ch=1 n=d6 v=64
38592 On ch=1 n=d7 v=64
38592 Par ch=1 c=64 v=96
38632 On ch=1 n=d4 v=64
38632 On ch=1 n=b6 v=64
38670 On ch=1 n=b6 v=0
38670 On ch=1 n=d4 v=0
38672 On ch=1 n=f#4 v=64
38672 On ch=1 n=f#6 v=64
38710 On ch=1 n=f#6 v=0
38710 On ch=1 n=f#4 v=0
38712 On ch=1 n=b4 v=64
38712 On ch=1 n=d6 v=64
38750 On ch=1 n=d6 v=0
38750 On ch=1 n=b4 v=0
38752 On ch=1 n=d4 v=64
38752 On ch=1 n=b6 v=64
38790 On ch=1 n=b6 v=0
38790 On ch=1 n=d4 v=0
38792 On ch=1 n=f#4 v=64
38792 On ch=1 n=f#6 v=64
38792 Par ch=1 c=64 v=0
38830 On ch=1 n=f#6 v=0
38830 On ch=1 n=f#4 v=0
38830 On ch=1 n=d6 v=0
38830 On ch=1 n=b4 v=0
38830 On ch=1 n=d7 v=0
38830 On ch=1 n=b3 v=0
38831 Tempo 1224490
38831 Par ch=1 c=7 v=105
38832 On ch=1 n=f#3 v=64
38832 On ch=1 n=f#4 v=64
38832 On ch=1 n=f#6 v=64
38832 On ch=1 n=f#7 v=64
38832 Par ch=1 c=64 v=96
38872 On ch=1 n=a#3 v=64
38872 On ch=1 n=c#7 v=64
38910 On ch=1 n=c#7 v=0
38910 On ch=1 n=a#3 v=0
38912 On ch=1 n=c#4 v=64
38912 On ch=1 n=a#6 v=64
38950 On ch=1 n=a#6 v=0
38950 On ch=1 n=c#4 v=0
38952 On ch=1 n=f#4 v=64
38952 On ch=1 n=f#6 v=64
38990 On ch=1 n=f#6 v=0
38990 On ch=1 n=f#4 v=0
38992 On ch=1 n=a#3 v=64
38992 On ch=1 n=c#7 v=64
39030 On ch=1 n=c#7 v=0
39030 On ch=1 n=a#3 v=0
39032 On ch=1 n=c#4 v=64
39032 On ch=1 n=a#6 v=64
39032 Par ch=1 c=64 v=0
39070 On ch=1 n=a#6 v=0
39070 On ch=1 n=c#4 v=0
39070 On ch=1 n=f#6 v=0
39070 On ch=1 n=f#4 v=0
39070 On ch=1 n=f#7 v=0
39070 On ch=1 n=f#3 v=0
39072 On ch=1 n=d#3 v=64
39072 On ch=1 n=d#4 v=64
39072 On ch=1 n=f#6 v=64
39072 On ch=1 n=f#7 v=64
39072 Par ch=1 c=64 v=96
39112 On ch=1 n=f#3 v=64
39112 On ch=1 n=d#7 v=64
39119 Tempo 1200000
39119 Par ch=1 c=7 v=106
39150 On ch=1 n=d#7 v=0
39150 On ch=1 n=f#3 v=0
39152 On ch=1 n=a#3 v=64
39152 On ch=1 n=a#6 v=64
39190 On ch=1 n=a#6 v=0
39190 On ch=1 n=a#3 v=0
39192 On ch=1 n=d#4 v=64
39192 On ch=1 n=f#6 v=64
39230 On ch=1 n=f#6 v=0
39230 On ch=1 n=d#4 v=0
39232 On ch=1 n=f#3 v=64
39232 On ch=1 n=d#7 v=64
39270 On ch=1 n=d#7 v=0
39270 On ch=1 n=f#3 v=0
39272 On ch=1 n=a#3 v=64
39272 On ch=1 n=a#6 v=64
39272 Par ch=1 c=64 v=0
39310 On ch=1 n=a#6 v=0
39310 On ch=1 n=a#3 v=0
39310 On ch=1 n=f#6 v=0
39310 On ch=1 n=d#4 v=0
39310 On ch=1 n=f#7 v=0
39310 On ch=1 n=d#3 v=0
39312 On ch=1 n=a#2 v=64
39312 On ch=1 n=a#3 v=64
39312 On ch=1 n=a#6 v=64
39312 On ch=1 n=a#7 v=64
39312 Par ch=1 c=64 v=96
39352 On ch=1 n=d3 v=64
39352 On ch=1 n=f7 v=64
39390 On ch=1 n=f7 v=0
39390 On ch=1 n=d3 v=0
39392 On ch=1 n=d7 v=64
39392 On ch=1 n=f3 v=64
39407 Tempo 1176471
39407 Par ch=1 c=7 v=107
39430 On ch=1 n=f3 v=0
39430 On ch=1 n=d7 v=0
39432 On ch=1 n=a#3 v=64
39432 On ch=1 n=a#6 v=64
39470 On ch=1 n=a#6 v=0
39470 On ch=1 n=a#3 v=0
39472 On ch=1 n=d3 v=64
39472 On ch=1 n=f7 v=64
39510 On ch=1 n=f7 v=0
39510 On ch=1 n=d3 v=0
39512 On ch=1 n=d7 v=64
39512 On ch=1 n=f3 v=64
39512 Par ch=1 c=64 v=0
39550 On ch=1 n=f3 v=0
39550 On ch=1 n=d7 v=0
39550 On ch=1 n=a#6 v=0
39550 On ch=1 n=a#3 v=0
39550 On ch=1 n=a#7 v=0
39550 On ch=1 n=a#2 v=0
39552 On ch=1 n=g2 v=64
39552 On ch=1 n=g3 v=64
39552 On ch=1 n=a#6 v=64
39552 On ch=1 n=a#7 v=64
39552 Par ch=1 c=64 v=96
39592 On ch=1 n=g7 v=64
39592 On ch=1 n=a#2 v=64
39630 On ch=1 n=a#2 v=0
39630 On ch=1 n=g7 v=0
39632 On ch=1 n=d3 v=64
39632 On ch=1 n=d7 v=64
39670 On ch=1 n=d7 v=0
39670 On ch=1 n=d3 v=0
39672 On ch=1 n=g3 v=64
39672 On ch=1 n=a#6 v=64
39695 Tempo 1153846
39695 Par ch=1 c=7 v=108
39710 On ch=1 n=a#6 v=0
39710 On ch=1 n=g3 v=0
39712 On ch=1 n=g7 v=64
39712 On ch=1 n=a#3 v=64
39750 On ch=1 n=a#3 v=0
39750 On ch=1 n=g7 v=0
39752 On ch=1 n=g3 v=64
39752 On ch=1 n=d7 v=64
39752 Par ch=1 c=64 v=0
39790 On ch=1 n=d7 v=0
39790 On ch=1 n=g3 v=0
39790 On ch=1 n=a#6 v=0
39790 On ch=1 n=g3 v=0
39790 On ch=1 n=a#7 v=0
39790 On ch=1 n=g2 v=0
39792 On ch=1 n=d3 v=64
39792 On ch=1 n=d4 v=64
39792 On ch=1 n=d7 v=64
39792 On ch=1 n=d8 v=64
39792 Par ch=1 c=64 v=96
39832 On ch=1 n=f#3 v=64
39832 On ch=1 n=a7 v=64
39870 On ch=1 n=a7 v=0
39870 On ch=1 n=f#3 v=0
39872 On ch=1 n=a3 v=64
39872 On ch=1 n=f#7 v=64
39910 On ch=1 n=f#7 v=0
39910 On ch=1 n=a3 v=0
39912 On ch=1 n=d4 v=64
39912 On ch=1 n=d7 v=64
39950 On ch=1 n=d7 v=0
39950 On ch=1 n=d4 v=0
39952 On ch=1 n=f#4 v=64
39952 On ch=1 n=a7 v=64
39983 Tempo 1132075
39983 Par ch=1 c=7 v=109
39990 On ch=1 n=a7 v=0
39990 On ch=1 n=f#4 v=0
39992 On ch=1 n=a4 v=64
39992 On ch=1 n=f#7 v=64
39992 Par ch=1 c=64 v=0
40030 On ch=1 n=f#7 v=0
40030 On ch=1 n=a4 v=0
40030 On ch=1 n=d7 v=0
40030 On ch=1 n=d4 v=0
40030 On ch=1 n=d8 v=0
40030 On ch=1 n=d3 v=0
40032 On ch=1 n=d4 v=64
40032 On ch=1 n=d5 v=64
40032 On ch=1 n=d7 v=64
40032 On ch=1 n=d8 v=64
40032 Par ch=1 c=64 v=96
40072 On ch=1 n=g4 v=64
40072 On ch=1 n=a#7 v=64
40110 On ch=1 n=a#7 v=0
40110 On ch=1 n=g4 v=0
40112 On ch=1 n=g7 v=64
40112 On ch=1 n=a#4 v=64
40150 On ch=1 n=a#4 v=0
40150 On ch=1 n=g7 v=0
40152 On ch=1 n=d5 v=64
40152 On ch=1 n=d7 v=64
40190 On ch=1 n=d7 v=0
40190 On ch=1 n=d5 v=0
40192 On ch=1 n=g5 v=64
40192 On ch=1 n=a#7 v=64
40230 On ch=1 n=a#7 v=0
40230 On ch=1 n=g5 v=0
40232 On ch=1 n=g7 v=64
40232 On ch=1 n=a#5 v=64
40232 Par ch=1 c=64 v=0
40270 On ch=1 n=a#5 v=0
40270 On ch=1 n=g7 v=0
40270 On ch=1 n=d7 v=0
40270 On ch=1 n=d5 v=0
40270 On ch=1 n=d8 v=0
40270 On ch=1 n=d4 v=0
40271 Tempo 1111111
40271 Par ch=1 c=7 v=110
40272 Tempo 1000000
40272 On ch=1 n=d6 v=64
40272 On ch=1 n=a5 v=64
40272 On ch=1 n=f#5 v=64
40272 On ch=1 n=d5 v=64
40272 On ch=1 n=d8 v=64
40272 On ch=1 n=a7 v=64
40272 On ch=1 n=f#7 v=64
40272 On ch=1 n=d7 v=64
40272 Par ch=1 c=64 v=96
40350 On ch=1 n=d7 v=0
40350 On ch=1 n=f#7 v=0
40350 On ch=1 n=a7 v=0
40350 On ch=1 n=d8 v=0
40350 On ch=1 n=d5 v=0
40350 On ch=1 n=f#5 v=0
40350 On ch=1 n=a5 v=0
40350 On ch=1 n=d6 v=0
40352 On ch=1 n=c#5 v=64
40352 On ch=1 n=c#6 v=64
40352 On ch=1 n=c#7 v=64
40352 On ch=1 n=c#8 v=64
40430 On ch=1 n=c#8 v=0
40430 On ch=1 n=c#7 v=0
40430 On ch=1 n=c#6 v=0
40430 On ch=1 n=c#5 v=0
40432 On ch=1 n=c5 v=64
40432 On ch=1 n=c6 v=64
40432 On ch=1 n=c7 v=64
40432 On ch=1 n=c8 v=64
40510 On ch=1 n=c8 v=0
40510 On ch=1 n=c7 v=0
40510 On ch=1 n=c6 v=0
40510 On ch=1 n=c5 v=0
40512 On ch=1 n=b4 v=64
40512 On ch=1 n=b5 v=64
40512 On ch=1 n=b6 v=64
40512 On ch=1 n=b7 v=64
40590 On ch=1 n=b7 v=0
40590 On ch=1 n=b6 v=0
40590 On ch=1 n=b5 v=0
40590 On ch=1 n=b4 v=0
40592 On ch=1 n=a#4 v=64
40592 On ch=1 n=a#5 v=64
40592 On ch=1 n=a#6 v=64
40592 On ch=1 n=a#7 v=64
40670 On ch=1 n=a#7 v=0
40670 On ch=1 n=a#6 v=0
40670 On ch=1 n=a#5 v=0
40670 On ch=1 n=a#4 v=0
40672 On ch=1 n=a4 v=64
40672 On ch=1 n=a5 v=64
40672 On ch=1 n=a6 v=64
40672 On ch=1 n=a7 v=64
40712 Par ch=1 c=64 v=0
40750 On ch=1 n=a7 v=0
40750 On ch=1 n=a6 v=0
40750 On ch=1 n=a5 v=0
40750 On ch=1 n=a4 v=0
40752 On ch=1 n=d#5 v=64
40752 On ch=1 n=d#6 v=64
40752 On ch=1 n=d#7 v=64
40752 On ch=1 n=d#8 v=64
40752 Par ch=1 c=64 v=96
40830 On ch=1 n=d#8 v=0
40830 On ch=1 n=d#7 v=0
40830 On ch=1 n=d#6 v=0
40830 On ch=1 n=d#5 v=0
40832 On ch=1 n=d5 v=64
40832 On ch=1 n=d6 v=64
40832 On ch=1 n=d7 v=64
40832 On ch=1 n=d8 v=64
40910 On ch=1 n=d8 v=0
40910 On ch=1 n=d7 v=0
40910 On ch=1 n=d6 v=0
40910 On ch=1 n=d5 v=0
40912 On ch=1 n=c#5 v=64
40912 On ch=1 n=c#6 v=64
40912 On ch=1 n=c#7 v=64
40912 On ch=1 n=c#8 v=64
40990 On ch=1 n=c#8 v=0
40990 On ch=1 n=c#7 v=0
40990 On ch=1 n=c#6 v=0
40990 On ch=1 n=c#5 v=0
40992 On ch=1 n=c5 v=64
40992 On ch=1 n=c6 v=64
40992 On ch=1 n=c7 v=64
40992 On ch=1 n=c8 v=64
41070 On ch=1 n=c8 v=0
41070 On ch=1 n=c7 v=0
41070 On ch=1 n=c6 v=0
41070 On ch=1 n=c5 v=0
41072 On ch=1 n=b4 v=64
41072 On ch=1 n=b5 v=64
41072 On ch=1 n=b6 v=64
41072 On ch=1 n=b7 v=64
41150 On ch=1 n=b7 v=0
41150 On ch=1 n=b6 v=0
41150 On ch=1 n=b5 v=0
41150 On ch=1 n=b4 v=0
41152 On ch=1 n=a#4 v=64
41152 On ch=1 n=a#5 v=64
41152 On ch=1 n=a#6 v=64
41152 On ch=1 n=a#7 v=64
41230 On ch=1 n=a#7 v=0
41230 On ch=1 n=a#6 v=0
41230 On ch=1 n=a#5 v=0
41230 On ch=1 n=a#4 v=0
41232 On ch=1 n=a4 v=64
41232 On ch=1 n=a5 v=64
41232 On ch=1 n=a6 v=64
41232 On ch=1 n=a7 v=64
41310 On ch=1 n=a7 v=0
41310 On ch=1 n=a6 v=0
41310 On ch=1 n=a5 v=0
41310 On ch=1 n=a4 v=0
41312 On ch=1 n=g#4 v=64
41312 On ch=1 n=g#5 v=64
41312 On ch=1 n=g#6 v=64
41312 On ch=1 n=g#7 v=64
41390 On ch=1 n=g#7 v=0
41390 On ch=1 n=g#6 v=0
41390 On ch=1 n=g#5 v=0
41390 On ch=1 n=g#4 v=0
41392 On ch=1 n=g4 v=64
41392 On ch=1 n=g5 v=64
41392 On ch=1 n=g6 v=64
41392 On ch=1 n=g7 v=64
41470 On ch=1 n=g7 v=0
41470 On ch=1 n=g6 v=0
41470 On ch=1 n=g5 v=0
41470 On ch=1 n=g4 v=0
41472 On ch=1 n=f#4 v=64
41472 On ch=1 n=f#5 v=64
41472 On ch=1 n=f#6 v=64
41472 On ch=1 n=f#7 v=64
41530 On ch=1 n=f#7 v=0
41530 On ch=1 n=f#6 v=0
41530 On ch=1 n=f#5 v=0
41530 On ch=1 n=f#4 v=0
41532 On ch=1 n=f4 v=64
41532 On ch=1 n=f5 v=64
41532 On ch=1 n=f6 v=64
41532 On ch=1 n=f7 v=64
41572 Par ch=1 c=64 v=0
41590 On ch=1 n=f7 v=0
41590 On ch=1 n=f6 v=0
41590 On ch=1 n=f5 v=0
41590 On ch=1 n=f4 v=0
41592 On ch=1 n=e4 v=64
41592 On ch=1 n=e5 v=64
41592 On ch=1 n=e6 v=64
41592 On ch=1 n=e7 v=64
41650 On ch=1 n=e7 v=0
41650 On ch=1 n=e6 v=0
41650 On ch=1 n=e5 v=0
41650 On ch=1 n=e4 v=0
41652 On ch=1 n=d#4 v=64
41652 On ch=1 n=d#5 v=64
41652 On ch=1 n=d#6 v=64
41652 On ch=1 n=d#7 v=64
41710 On ch=1 n=d#7 v=0
41710 On ch=1 n=d#6 v=0
41710 On ch=1 n=d#5 v=0
41710 On ch=1 n=d#4 v=0
41712 On ch=1 n=d5 v=64
41712 On ch=1 n=a4 v=64
41712 On ch=1 n=f#4 v=64
41712 On ch=1 n=d4 v=64
41712 On ch=1 n=d7 v=64
41712 On ch=1 n=a6 v=64
41712 On ch=1 n=f#6 v=64
41712 On ch=1 n=d6 v=64
41712 Par ch=1 c=64 v=97
41790 On ch=1 n=d6 v=0
41790 On ch=1 n=f#6 v=0
41790 On ch=1 n=a6 v=0
41790 On ch=1 n=d7 v=0
41790 On ch=1 n=d4 v=0
41790 On ch=1 n=f#4 v=0
41790 On ch=1 n=a4 v=0
41790 On ch=1 n=d5 v=0
41792 On ch=1 n=c#4 v=64
41792 On ch=1 n=c#5 v=64
41792 On ch=1 n=c#6 v=64
41792 On ch=1 n=c#7 v=64
41870 On ch=1 n=c#7 v=0
41870 On ch=1 n=c#6 v=0
41870 On ch=1 n=c#5 v=0
41870 On ch=1 n=c#4 v=0
41872 On ch=1 n=c4 v=64
41872 On ch=1 n=c5 v=64
41872 On ch=1 n=c6 v=64
41872 On ch=1 n=c7 v=64
41950 On ch=1 n=c7 v=0
41950 On ch=1 n=c6 v=0
41950 On ch=1 n=c5 v=0
41950 On ch=1 n=c4 v=0
41952 On ch=1 n=b3 v=64
41952 On ch=1 n=b4 v=64
41952 On ch=1 n=b5 v=64
41952 On ch=1 n=b6 v=64
42030 On ch=1 n=b6 v=0
42030 On ch=1 n=b5 v=0
42030 On ch=1 n=b4 v=0
42030 On ch=1 n=b3 v=0
42032 On ch=1 n=a#3 v=64
42032 On ch=1 n=a#4 v=64
42032 On ch=1 n=a#5 v=64
42032 On ch=1 n=a#6 v=64
42110 On ch=1 n=a#6 v=0
42110 On ch=1 n=a#5 v=0
42110 On ch=1 n=a#4 v=0
42110 On ch=1 n=a#3 v=0
42112 On ch=1 n=a3 v=64
42112 On ch=1 n=a4 v=64
42112 On ch=1 n=a5 v=64
42112 On ch=1 n=a6 v=64
42152 Par ch=1 c=64 v=0
42190 On ch=1 n=a6 v=0
42190 On ch=1 n=a5 v=0
42190 On ch=1 n=a4 v=0
42190 On ch=1 n=a3 v=0
42192 On ch=1 n=d#4 v=64
42192 On ch=1 n=d#5 v=64
42192 On ch=1 n=d#6 v=64
42192 On ch=1 n=d#7 v=64
42192 Par ch=1 c=64 v=96
42270 On ch=1 n=d#7 v=0
42270 On ch=1 n=d#6 v=0
42270 On ch=1 n=d#5 v=0
42270 On ch=1 n=d#4 v=0
42272 On ch=1 n=d4 v=64
42272 On ch=1 n=d5 v=64
42272 On ch=1 n=d6 v=64
42272 On ch=1 n=d7 v=64
42350 On ch=1 n=d7 v=0
42350 On ch=1 n=d6 v=0
42350 On ch=1 n=d5 v=0
42350 On ch=1 n=d4 v=0
42352 On ch=1 n=c#4 v=64
42352 On ch=1 n=c#5 v=64
42352 On ch=1 n=c#6 v=64
42352 On ch=1 n=c#7 v=64
42430 On ch=1 n=c#7 v=0
42430 On ch=1 n=c#6 v=0
42430 On ch=1 n=c#5 v=0
42430 On ch=1 n=c#4 v=0
42432 On ch=1 n=c4 v=64
42432 On ch=1 n=c5 v=64
42432 On ch=1 n=c6 v=64
42432 On ch=1 n=c7 v=64
42510 On ch=1 n=c7 v=0
42510 On ch=1 n=c6 v=0
42510 On ch=1 n=c5 v=0
42510 On ch=1 n=c4 v=0
42512 On ch=1 n=b3 v=64
42512 On ch=1 n=b4 v=64
42512 On ch=1 n=b5 v=64
42512 On ch=1 n=b6 v=64
42590 On ch=1 n=b6 v=0
42590 On ch=1 n=b5 v=0
42590 On ch=1 n=b4 v=0
42590 On ch=1 n=b3 v=0
42592 On ch=1 n=a#3 v=64
42592 On ch=1 n=a#4 v=64
42592 On ch=1 n=a#5 v=64
42592 On ch=1 n=a#6 v=64
42670 On ch=1 n=a#6 v=0
42670 On ch=1 n=a#5 v=0
42670 On ch=1 n=a#4 v=0
42670 On ch=1 n=a#3 v=0
42672 On ch=1 n=a3 v=64
42672 On ch=1 n=a4 v=64
42672 On ch=1 n=a5 v=64
42672 On ch=1 n=a6 v=64
42750 On ch=1 n=a6 v=0
42750 On ch=1 n=a5 v=0
42750 On ch=1 n=a4 v=0
42750 On ch=1 n=a3 v=0
42752 On ch=1 n=g#3 v=64
42752 On ch=1 n=g#4 v=64
42752 On ch=1 n=g#5 v=64
42752 On ch=1 n=g#6 v=64
42830 On ch=1 n=g#6 v=0
42830 On ch=1 n=g#5 v=0
42830 On ch=1 n=g#4 v=0
42830 On ch=1 n=g#3 v=0
42832 On ch=1 n=g3 v=64
42832 On ch=1 n=g4 v=64
42832 On ch=1 n=g5 v=64
42832 On ch=1 n=g6 v=64
42910 On ch=1 n=g6 v=0
42910 On ch=1 n=g5 v=0
42910 On ch=1 n=g4 v=0
42910 On ch=1 n=g3 v=0
42912 On ch=1 n=f#3 v=64
42912 On ch=1 n=f#4 v=64
42912 On ch=1 n=f#5 v=64
42912 On ch=1 n=f#6 v=64
42970 On ch=1 n=f#6 v=0
42970 On ch=1 n=f#5 v=0
42970 On ch=1 n=f#4 v=0
42970 On ch=1 n=f#3 v=0
42972 On ch=1 n=f3 v=64
42972 On ch=1 n=f4 v=64
42972 On ch=1 n=f5 v=64
42972 On ch=1 n=f6 v=64
43012 Par ch=1 c=64 v=0
43030 On ch=1 n=f6 v=0
43030 On ch=1 n=f5 v=0
43030 On ch=1 n=f4 v=0
43030 On ch=1 n=f3 v=0
43032 On ch=1 n=e3 v=64
43032 On ch=1 n=e4 v=64
43032 On ch=1 n=e5 v=64
43032 On ch=1 n=e6 v=64
43090 On ch=1 n=e6 v=0
43090 On ch=1 n=e5 v=0
43090 On ch=1 n=e4 v=0
43090 On ch=1 n=e3 v=0
43092 On ch=1 n=d#3 v=64
43092 On ch=1 n=d#4 v=64
43092 On ch=1 n=d#5 v=64
43092 On ch=1 n=d#6 v=64
43150 On ch=1 n=d#6 v=0
43150 On ch=1 n=d#5 v=0
43150 On ch=1 n=d#4 v=0
43150 On ch=1 n=d#3 v=0
43152 Tempo 1000000
43152 On ch=1 n=d4 v=64
43152 On ch=1 n=a3 v=64
43152 On ch=1 n=f#3 v=64
43152 On ch=1 n=d3 v=64
43152 On ch=1 n=d6 v=64
43152 On ch=1 n=a5 v=64
43152 On ch=1 n=f#5 v=64
43152 On ch=1 n=d5 v=64
43152 Par ch=1 c=64 v=96
43223 Tempo 1016949
43230 On ch=1 n=d5 v=0
43230 On ch=1 n=f#5 v=0
43230 On ch=1 n=a5 v=0
43230 On ch=1 n=d6 v=0
43230 On ch=1 n=d3 v=0
43230 On ch=1 n=f#3 v=0
43230 On ch=1 n=a3 v=0
43230 On ch=1 n=d4 v=0
43232 On ch=1 n=c#3 v=64
43232 On ch=1 n=c#4 v=64
43232 On ch=1 n=c#5 v=64
43232 On ch=1 n=c#6 v=64
43295 Tempo 1034483
43310 On ch=1 n=c#6 v=0
43310 On ch=1 n=c#5 v=0
43310 On ch=1 n=c#4 v=0
43310 On ch=1 n=c#3 v=0
43312 On ch=1 n=c3 v=64
43312 On ch=1 n=c4 v=64
43312 On ch=1 n=c5 v=64
43312 On ch=1 n=c6 v=64
43367 Tempo 1052632
43390 On ch=1 n=c6 v=0
43390 On ch=1 n=c5 v=0
43390 On ch=1 n=c4 v=0
43390 On ch=1 n=c3 v=0
43392 On ch=1 n=b2 v=64
43392 On ch=1 n=b3 v=64
43392 On ch=1 n=b4 v=64
43392 On ch=1 n=b5 v=64
43439 Tempo 1071429
43470 On ch=1 n=b5 v=0
43470 On ch=1 n=b4 v=0
43470 On ch=1 n=b3 v=0
43470 On ch=1 n=b2 v=0
43472 On ch=1 n=a#2 v=64
43472 On ch=1 n=a#3 v=64
43472 On ch=1 n=a#4 v=64
43472 On ch=1 n=a#5 v=64
43511 Tempo 1090909
43550 On ch=1 n=a#5 v=0
43550 On ch=1 n=a#4 v=0
43550 On ch=1 n=a#3 v=0
43550 On ch=1 n=a#2 v=0
43552 On ch=1 n=a2 v=64
43552 On ch=1 n=a3 v=64
43552 On ch=1 n=a4 v=64
43552 On ch=1 n=a5 v=64
43583 Tempo 1111111
43592 Par ch=1 c=64 v=0
43630 On ch=1 n=a5 v=0
43630 On ch=1 n=a4 v=0
43630 On ch=1 n=a3 v=0
43630 On ch=1 n=a2 v=0
43632 On ch=1 n=d#3 v=64
43632 On ch=1 n=d#4 v=64
43632 On ch=1 n=d#5 v=64
43632 On ch=1 n=d#6 v=64
43632 Par ch=1 c=64 v=95
43655 Tempo 1132075
43710 On ch=1 n=d#6 v=0
43710 On ch=1 n=d#5 v=0
43710 On ch=1 n=d#4 v=0
43710 On ch=1 n=d#3 v=0
43712 On ch=1 n=d3 v=64
43712 On ch=1 n=d4 v=64
43712 On ch=1 n=d5 v=64
43712 On ch=1 n=d6 v=64
43727 Tempo 1153846
43790 On ch=1 n=d6 v=0
43790 On ch=1 n=d5 v=0
43790 On ch=1 n=d4 v=0
43790 On ch=1 n=d3 v=0
43792 On ch=1 n=c#3 v=64
43792 On ch=1 n=c#4 v=64
43792 On ch=1 n=c#5 v=64
43792 On ch=1 n=c#6 v=64
43799 Tempo 1176471
43870 On ch=1 n=c#6 v=0
43870 On ch=1 n=c#5 v=0
43870 On ch=1 n=c#4 v=0
43870 On ch=1 n=c#3 v=0
43871 Tempo 1200000
43872 On ch=1 n=c3 v=64
43872 On ch=1 n=c4 v=64
43872 On ch=1 n=c5 v=64
43872 On ch=1 n=c6 v=64
43943 Tempo 1224490
43950 On ch=1 n=c6 v=0
43950 On ch=1 n=c5 v=0
43950 On ch=1 n=c4 v=0
43950 On ch=1 n=c3 v=0
43952 On ch=1 n=b2 v=64
43952 On ch=1 n=b3 v=64
43952 On ch=1 n=b4 v=64
43952 On ch=1 n=b5 v=64
44015 Tempo 1250000
44030 On ch=1 n=b5 v=0
44030 On ch=1 n=b4 v=0
44030 On ch=1 n=b3 v=0
44030 On ch=1 n=b2 v=0
44032 On ch=1 n=a#2 v=64
44032 On ch=1 n=a#3 v=64
44032 On ch=1 n=a#4 v=64
44032 On ch=1 n=a#5 v=64
44087 Tempo 1276596
44110 On ch=1 n=a#5 v=0
44110 On ch=1 n=a#4 v=0
44110 On ch=1 n=a#3 v=0
44110 On ch=1 n=a#2 v=0
44112 On ch=1 n=a2 v=64
44112 On ch=1 n=a3 v=64
44112 On ch=1 n=a4 v=64
44112 On ch=1 n=a5 v=64
44159 Tempo 1304348
44190 On ch=1 n=a5 v=0
44190 On ch=1 n=a4 v=0
44190 On ch=1 n=a3 v=0
44190 On ch=1 n=a2 v=0
44192 On ch=1 n=g#2 v=64
44192 On ch=1 n=g#3 v=64
44192 On ch=1 n=g#4 v=64
44192 On ch=1 n=g#5 v=64
44231 Tempo 1333333
44270 On ch=1 n=g#5 v=0
44270 On ch=1 n=g#4 v=0
44270 On ch=1 n=g#3 v=0
44270 On ch=1 n=g#2 v=0
44272 On ch=1 n=g2 v=64
44272 On ch=1 n=g3 v=64
44272 On ch=1 n=g4 v=64
44272 On ch=1 n=g5 v=64
44303 Tempo 1363636
44350 On ch=1 n=g5 v=0
44350 On ch=1 n=g4 v=0
44350 On ch=1 n=g3 v=0
44350 On ch=1 n=g2 v=0
44352 On ch=1 n=f#4 v=64
44352 On ch=1 n=f#3 v=64
44352 On ch=1 n=f#2 v=64
44352 On ch=1 n=f#5 v=64
44375 Tempo 1395349
44430 On ch=1 n=f#5 v=0
44430 On ch=1 n=f#2 v=0
44430 On ch=1 n=f#3 v=0
44430 On ch=1 n=f#4 v=0
44432 On ch=1 n=f2 v=64
44432 On ch=1 n=f3 v=64
44432 On ch=1 n=f4 v=64
44432 On ch=1 n=f5 v=64
44447 Tempo 1428571
44510 On ch=1 n=f5 v=0
44510 On ch=1 n=f4 v=0
44510 On ch=1 n=f3 v=0
44510 On ch=1 n=f2 v=0
44512 On ch=1 n=e4 v=64
44512 On ch=1 n=e2 v=64
44512 On ch=1 n=e3 v=64
44512 On ch=1 n=e5 v=64
44519 Tempo 1463415
44552 Par ch=1 c=64 v=0
44590 On ch=1 n=e5 v=0
44590 On ch=1 n=e3 v=0
44590 On ch=1 n=e2 v=0
44590 On ch=1 n=e4 v=0
44591 Tempo 1500000
44592 Tempo 1500000
44592 Par ch=1 c=7 v=110
44592 On ch=1 n=d#3 v=64
44592 On ch=1 n=d#2 v=64
44592 On ch=1 n=d#4 v=64
44592 On ch=1 n=d#5 v=64
44592 Par ch=1 c=64 v=96
44680 On ch=1 n=d#5 v=0
44680 On ch=1 n=d#4 v=0
44680 On ch=1 n=d#2 v=0
44680 On ch=1 n=d#3 v=0
44712 On ch=1 n=d3 v=64
44712 On ch=1 n=a2 v=64
44712 On ch=1 n=f#2 v=64
44712 On ch=1 n=d2 v=64
44712 On ch=1 n=d5 v=64
44712 On ch=1 n=a4 v=64
44712 On ch=1 n=f#4 v=64
44712 On ch=1 n=d4 v=64
44735 Par ch=1 c=7 v=111
44800 On ch=1 n=d4 v=0
44800 On ch=1 n=f#4 v=0
44800 On ch=1 n=a4 v=0
44800 On ch=1 n=d5 v=0
44800 On ch=1 n=d2 v=0
44800 On ch=1 n=f#2 v=0
44800 On ch=1 n=a2 v=0
44800 On ch=1 n=d3 v=0
44832 On ch=1 n=d#4 v=64
44832 On ch=1 n=d#3 v=64
44832 On ch=1 n=d#5 v=64
44832 On ch=1 n=d#6 v=64
44879 Par ch=1 c=7 v=112
44920 On ch=1 n=d#6 v=0
44920 On ch=1 n=d#5 v=0
44920 On ch=1 n=d#3 v=0
44920 On ch=1 n=d#4 v=0
44921 Tempo 1538462
44952 On ch=1 n=d4 v=64
44952 On ch=1 n=a3 v=64
44952 On ch=1 n=f#3 v=64
44952 On ch=1 n=d3 v=64
44952 On ch=1 n=d6 v=64
44952 On ch=1 n=a5 v=64
44952 On ch=1 n=f#5 v=64
44952 On ch=1 n=d5 v=64
45023 Par ch=1 c=7 v=113
45040 On ch=1 n=d5 v=0
45040 On ch=1 n=f#5 v=0
45040 On ch=1 n=a5 v=0
45040 On ch=1 n=d6 v=0
45040 On ch=1 n=d3 v=0
45040 On ch=1 n=f#3 v=0
45040 On ch=1 n=a3 v=0
45040 On ch=1 n=d4 v=0
45072 On ch=1 n=d#4 v=64
45072 On ch=1 n=d#5 v=64
45072 On ch=1 n=d#6 v=64
45072 On ch=1 n=d#7 v=64
45160 On ch=1 n=d#7 v=0
45160 On ch=1 n=d#6 v=0
45160 On ch=1 n=d#5 v=0
45160 On ch=1 n=d#4 v=0
45167 Par ch=1 c=7 v=114
45192 On ch=1 n=d5 v=64
45192 On ch=1 n=a4 v=64
45192 On ch=1 n=f#4 v=64
45192 On ch=1 n=d4 v=64
45192 On ch=1 n=d7 v=64
45192 On ch=1 n=a6 v=64
45192 On ch=1 n=f#6 v=64
45192 On ch=1 n=d6 v=64
45192 On ch=1 n=c5 v=64
45192 On ch=1 n=c7 v=64
45251 Tempo 1578947
45280 On ch=1 n=c7 v=0
45280 On ch=1 n=c5 v=0
45280 On ch=1 n=d6 v=0
45280 On ch=1 n=f#6 v=0
45280 On ch=1 n=a6 v=0
45280 On ch=1 n=d7 v=0
45280 On ch=1 n=d4 v=0
45280 On ch=1 n=f#4 v=0
45280 On ch=1 n=a4 v=0
45280 On ch=1 n=d5 v=0
45311 Par ch=1 c=7 v=115
45312 On ch=1 n=d#5 v=64
45312 On ch=1 n=d#6 v=64
45312 On ch=1 n=d#7 v=64
45312 On ch=1 n=d#8 v=64
45400 On ch=1 n=d#8 v=0
45400 On ch=1 n=d#7 v=0
45400 On ch=1 n=d#6 v=0
45400 On ch=1 n=d#5 v=0
45432 On ch=1 n=d6 v=64
45432 On ch=1 n=a5 v=64
45432 On ch=1 n=f#5 v=64
45432 On ch=1 n=d5 v=64
45432 On ch=1 n=d8 v=64
45432 On ch=1 n=a7 v=64
45432 On ch=1 n=f#7 v=64
45432 On ch=1 n=d7 v=64
45432 On ch=1 n=c6 v=64
45432 On ch=1 n=c8 v=64
45455 Par ch=1 c=7 v=116
45520 On ch=1 n=c8 v=0
45520 On ch=1 n=c6 v=0
45520 On ch=1 n=d7 v=0
45520 On ch=1 n=f#7 v=0
45520 On ch=1 n=a7 v=0
45520 On ch=1 n=d8 v=0
45520 On ch=1 n=d5 v=0
45520 On ch=1 n=f#5 v=0
45520 On ch=1 n=a5 v=0
45520 On ch=1 n=d6 v=0
45552 On ch=1 n=d#4 v=64
45552 On ch=1 n=d#5 v=64
45552 On ch=1 n=d#6 v=64
45552 On ch=1 n=d#7 v=64
45581 Tempo 1621622
45599 Par ch=1 c=7 v=117
45640 On ch=1 n=d#7 v=0
45640 On ch=1 n=d#6 v=0
45640 On ch=1 n=d#5 v=0
45640 On ch=1 n=d#4 v=0
45672 On ch=1 n=d5 v=64
45672 On ch=1 n=a4 v=64
45672 On ch=1 n=f#4 v=64
45672 On ch=1 n=d4 v=64
45672 On ch=1 n=d7 v=64
45672 On ch=1 n=a6 v=64
45672 On ch=1 n=f#6 v=64
45672 On ch=1 n=d6 v=64
45672 On ch=1 n=c5 v=64
45672 On ch=1 n=c7 v=64
45743 Par ch=1 c=7 v=118
45760 On ch=1 n=c7 v=0
45760 On ch=1 n=c5 v=0
45760 On ch=1 n=d6 v=0
45760 On ch=1 n=f#6 v=0
45760 On ch=1 n=a6 v=0
45760 On ch=1 n=d7 v=0
45760 On ch=1 n=d4 v=0
45760 On ch=1 n=f#4 v=0
45760 On ch=1 n=a4 v=0
45760 On ch=1 n=d5 v=0
45792 On ch=1 n=d#3 v=64
45792 On ch=1 n=d#4 v=64
45792 On ch=1 n=d#5 v=64
45792 On ch=1 n=d#6 v=64
45880 On ch=1 n=d#6 v=0
45880 On ch=1 n=d#5 v=0
45880 On ch=1 n=d#4 v=0
45880 On ch=1 n=d#3 v=0
45887 Par ch=1 c=7 v=119
45911 Tempo 1666667
45912 Tempo 3000000
45912 On ch=1 n=d4 v=64
45912 On ch=1 n=a3 v=64
45912 On ch=1 n=f#3 v=64
45912 On ch=1 n=d3 v=64
45912 On ch=1 n=d6 v=64
45912 On ch=1 n=a5 v=64
45912 On ch=1 n=f#5 v=64
45912 On ch=1 n=d5 v=64
45912 On ch=1 n=c4 v=64
45912 On ch=1 n=c6 v=64
45992 Par ch=1 c=64 v=0
46000 On ch=1 n=c6 v=0
46000 On ch=1 n=c4 v=0
46000 On ch=1 n=d5 v=0
46000 On ch=1 n=f#5 v=0
46000 On ch=1 n=a5 v=0
46000 On ch=1 n=d6 v=0
46000 On ch=1 n=d3 v=0
46000 On ch=1 n=f#3 v=0
46000 On ch=1 n=a3 v=0
46000 On ch=1 n=d4 v=0
46031 Par ch=1 c=7 v=120
46032 Tempo 1428571
46032 On ch=1 n=b4 v=64
46032 On ch=1 n=g4 v=64
46032 On ch=1 n=d4 v=64
46032 On ch=1 n=b3 v=64
46032 On ch=1 n=d5 v=64
46032 On ch=1 n=d6 v=64
46032 Par ch=1 c=64 v=96
46072 On ch=1 n=g5 v=64
46110 On ch=1 n=g5 v=0
46112 On ch=1 n=b5 v=64
46150 On ch=1 n=b5 v=0
46152 On ch=1 n=d6 v=64
46190 On ch=1 n=d6 v=0
46192 On ch=1 n=g6 v=64
46230 On ch=1 n=g6 v=0
46232 On ch=1 n=b6 v=64
46270 On ch=1 n=b6 v=0
46272 On ch=1 n=d8 v=64
46272 On ch=1 n=g2 v=64
46272 On ch=1 n=d7 v=64
46272 On ch=1 n=b7 v=64
46282 On ch=1 n=b2 v=64
46286 On ch=1 n=d3 v=63
46295 On ch=1 n=g3 v=64
46310 On ch=1 n=d8 v=0
46312 On ch=1 n=g7 v=64
46350 On ch=1 n=g7 v=0
46352 On ch=1 n=d7 v=64
46390 On ch=1 n=d7 v=0
46392 On ch=1 n=b6 v=64
46430 On ch=1 n=b6 v=0
46432 On ch=1 n=g6 v=64
46470 On ch=1 n=g6 v=0
46472 On ch=1 n=d6 v=64
46472 Par ch=1 c=64 v=0
46510 On ch=1 n=d6 v=0
46510 On ch=1 n=d7 v=0
46510 On ch=1 n=g3 v=0
46510 On ch=1 n=b7 v=0
46510 On ch=1 n=g2 v=0
46510 On ch=1 n=d6 v=0
46510 On ch=1 n=d5 v=0
46510 On ch=1 n=b3 v=0
46510 On ch=1 n=d4 v=0
46510 On ch=1 n=g4 v=0
46510 On ch=1 n=b4 v=0
46512 On ch=1 n=d3 v=0
46512 On ch=1 n=b2 v=0
46512 On ch=1 n=g4 v=64
46512 On ch=1 n=e4 v=64
46512 On ch=1 n=a#4 v=64
46512 On ch=1 n=c#4 v=64
46512 On ch=1 n=a#3 v=64
46512 On ch=1 n=c#5 v=64
46512 On ch=1 n=c#6 v=64
46512 Par ch=1 c=64 v=96
46552 On ch=1 n=g5 v=64
46590 On ch=1 n=g5 v=0
46592 On ch=1 n=a#5 v=64
46630 On ch=1 n=a#5 v=0
46632 On ch=1 n=c#6 v=64
46670 On ch=1 n=c#6 v=0
46672 On ch=1 n=g6 v=64
46710 On ch=1 n=g6 v=0
46712 On ch=1 n=a#6 v=64
46750 On ch=1 n=a#6 v=0
46752 On ch=1 n=g2 v=64
46752 On ch=1 n=c#8 v=64
46752 On ch=1 n=a#7 v=64
46752 On ch=1 n=c#7 v=64
46761 On ch=1 n=a#2 v=64
46767 On ch=1 n=c#3 v=65
46775 On ch=1 n=e3 v=64
46782 On ch=1 n=g3 v=64
46790 On ch=1 n=c#8 v=0
46792 On ch=1 n=g7 v=64
46830 On ch=1 n=g7 v=0
46832 On ch=1 n=c#7 v=64
46870 On ch=1 n=c#7 v=0
46872 On ch=1 n=a#6 v=64
46910 On ch=1 n=a#6 v=0
46912 On ch=1 n=g6 v=64
46950 On ch=1 n=g6 v=0
46952 On ch=1 n=c#6 v=64
46952 Par ch=1 c=64 v=0
46990 On ch=1 n=c#6 v=0
46990 On ch=1 n=c#7 v=0
46990 On ch=1 n=a#7 v=0
46990 On ch=1 n=g2 v=0
46990 On ch=1 n=c#6 v=0
46990 On ch=1 n=c#5 v=0
46990 On ch=1 n=a#3 v=0
46990 On ch=1 n=c#4 v=0
46990 On ch=1 n=a#4 v=0
46990 On ch=1 n=e4 v=0
46990 On ch=1 n=g4 v=0
46992 On ch=1 n=b4 v=64
46992 On ch=1 n=g4 v=64
46992 On ch=1 n=d4 v=64
46992 On ch=1 n=b3 v=64
46992 On ch=1 n=d5 v=64
46992 On ch=1 n=d6 v=64
46992 Par ch=1 c=64 v=96
46993 On ch=1 n=c#3 v=0
46994 On ch=1 n=g3 v=0
46994 On ch=1 n=e3 v=0
46994 On ch=1 n=a#2 v=0
47032 On ch=1 n=g5 v=64
47070 On ch=1 n=g5 v=0
47072 On ch=1 n=b5 v=64
47110 On ch=1 n=b5 v=0
47112 On ch=1 n=d6 v=64
47150 On ch=1 n=d6 v=0
47152 On ch=1 n=g6 v=64
47190 On ch=1 n=g6 v=0
47192 On ch=1 n=b6 v=64
47230 On ch=1 n=b6 v=0
47232 On ch=1 n=d8 v=64
47232 On ch=1 n=g2 v=64
47232 On ch=1 n=d7 v=64
47232 On ch=1 n=b7 v=64
47240 On ch=1 n=b2 v=64
47246 On ch=1 n=d3 v=64
47255 On ch=1 n=g3 v=64
47270 On ch=1 n=d8 v=0
47272 On ch=1 n=g7 v=64
47310 On ch=1 n=g7 v=0
47312 On ch=1 n=d7 v=64
47350 On ch=1 n=d7 v=0
47352 On ch=1 n=b6 v=64
47390 On ch=1 n=b6 v=0
47392 On ch=1 n=g6 v=64
47430 On ch=1 n=g6 v=0
47432 On ch=1 n=d6 v=64
47432 Par ch=1 c=64 v=0
47470 On ch=1 n=d6 v=0
47470 On ch=1 n=d7 v=0
47470 On ch=1 n=b7 v=0
47470 On ch=1 n=g2 v=0
47470 On ch=1 n=d6 v=0
47470 On ch=1 n=d5 v=0
47470 On ch=1 n=b3 v=0
47470 On ch=1 n=d4 v=0
47470 On ch=1 n=g4 v=0
47470 On ch=1 n=b4 v=0
47471 On ch=1 n=g3 v=0
47471 On ch=1 n=d3 v=0
47471 On ch=1 n=g3 v=64
47472 On ch=1 n=b2 v=0
47472 On ch=1 n=g4 v=64
47472 On ch=1 n=d4 v=64
47472 On ch=1 n=b3 v=64
47472 On ch=1 n=b4 v=64
47472 On ch=1 n=b5 v=64
47472 Par ch=1 c=64 v=96
47512 On ch=1 n=d5 v=64
47550 On ch=1 n=d5 v=0
47552 On ch=1 n=g5 v=64
47590 On ch=1 n=g5 v=0
47592 On ch=1 n=b5 v=64
47630 On ch=1 n=b5 v=0
47632 On ch=1 n=d6 v=64
47670 On ch=1 n=d6 v=0
47672 On ch=1 n=g6 v=64
47710 On ch=1 n=g6 v=0
47712 On ch=1 n=g2 v=64
47712 On ch=1 n=b6 v=64
47712 On ch=1 n=g7 v=64
47712 On ch=1 n=b7 v=64
47721 On ch=1 n=b2 v=65
47727 On ch=1 n=d3 v=64
47733 On ch=1 n=g3 v=64
47750 On ch=1 n=b7 v=0
47752 On ch=1 n=d7 v=64
47790 On ch=1 n=d7 v=0
47792 On ch=1 n=b6 v=64
47830 On ch=1 n=b6 v=0
47832 On ch=1 n=g6 v=64
47870 On ch=1 n=g6 v=0
47872 On ch=1 n=d6 v=64
47910 On ch=1 n=d6 v=0
47912 On ch=1 n=b5 v=64
47912 Par ch=1 c=64 v=0
47949 On ch=1 n=g3 v=0
47950 On ch=1 n=b5 v=0
47950 On ch=1 n=b6 v=0
47950 On ch=1 n=b2 v=0
47950 On ch=1 n=g7 v=0
47950 On ch=1 n=g2 v=0
47950 On ch=1 n=b5 v=0
47950 On ch=1 n=b4 v=0
47950 On ch=1 n=b3 v=0
47950 On ch=1 n=d4 v=0
47950 On ch=1 n=g4 v=0
47951 On ch=1 n=d3 v=0
47952 On ch=1 n=g3 v=0
47952 On ch=1 n=c5 v=64
47952 On ch=1 n=g4 v=64
47952 On ch=1 n=e4 v=64
47952 On ch=1 n=c4 v=64
47952 On ch=1 n=e5 v=64
47952 On ch=1 n=e6 v=64
47952 Par ch=1 c=64 v=96
47992 On ch=1 n=g5 v=64
48030 On ch=1 n=g5 v=0
48032 On ch=1 n=c6 v=64
48070 On ch=1 n=c6 v=0
48072 On ch=1 n=e6 v=64
48110 On ch=1 n=e6 v=0
48112 On ch=1 n=g6 v=64
48150 On ch=1 n=g6 v=0
48152 On ch=1 n=c7 v=64
48190 On ch=1 n=c7 v=0
48192 On ch=1 n=g2 v=64
48192 On ch=1 n=c8 v=64
48192 On ch=1 n=e7 v=64
48192 On ch=1 n=e8 v=64
48201 On ch=1 n=c3 v=66
48209 On ch=1 n=e3 v=65
48215 On ch=1 n=g3 v=63
48230 On ch=1 n=e8 v=0
48232 On ch=1 n=g7 v=64
48270 On ch=1 n=g7 v=0
48272 On ch=1 n=e7 v=64
48310 On ch=1 n=e7 v=0
48312 On ch=1 n=c7 v=64
48350 On ch=1 n=c7 v=0
48352 On ch=1 n=g6 v=64
48390 On ch=1 n=g6 v=0
48392 On ch=1 n=e6 v=64
48392 Par ch=1 c=64 v=0
48430 On ch=1 n=e6 v=0
48430 On ch=1 n=e7 v=0
48430 On ch=1 n=c8 v=0
48430 On ch=1 n=g2 v=0
48430 On ch=1 n=e6 v=0
48430 On ch=1 n=e5 v=0
48430 On ch=1 n=c4 v=0
48430 On ch=1 n=e4 v=0
48430 On ch=1 n=g4 v=0
48430 On ch=1 n=c5 v=0
48431 On ch=1 n=g3 v=0
48432 On ch=1 n=e3 v=0
48432 On ch=1 n=c3 v=0
48432 On ch=1 n=b4 v=64
48432 On ch=1 n=g4 v=64
48432 On ch=1 n=d4 v=64
48432 On ch=1 n=b3 v=64
48432 On ch=1 n=d5 v=64
48432 On ch=1 n=d6 v=64
48432 Par ch=1 c=64 v=96
48472 On ch=1 n=g5 v=64
48510 On ch=1 n=g5 v=0
48512 On ch=1 n=b5 v=64
48550 On ch=1 n=b5 v=0
48552 On ch=1 n=d6 v=64
48590 On ch=1 n=d6 v=0
48592 On ch=1 n=g6 v=64
48630 On ch=1 n=g6 v=0
48632 On ch=1 n=b6 v=64
48670 On ch=1 n=b6 v=0
48672 On ch=1 n=g2 v=64
48672 On ch=1 n=b7 v=64
48672 On ch=1 n=d7 v=64
48672 On ch=1 n=d8 v=64
48682 On ch=1 n=b2 v=64
48686 On ch=1 n=d3 v=63
48694 On ch=1 n=g3 v=62
48710 On ch=1 n=d8 v=0
48712 On ch=1 n=g7 v=64
48750 On ch=1 n=g7 v=0
48752 On ch=1 n=d7 v=64
48790 On ch=1 n=d7 v=0
48792 On ch=1 n=b6 v=64
48830 On ch=1 n=b6 v=0
48832 On ch=1 n=g6 v=64
48870 On ch=1 n=g6 v=0
48872 On ch=1 n=d6 v=64
48872 Par ch=1 c=64 v=0
48910 On ch=1 n=d6 v=0
48910 On ch=1 n=d7 v=0
48910 On ch=1 n=b7 v=0
48910 On ch=1 n=g2 v=0
48910 On ch=1 n=d6 v=0
48910 On ch=1 n=d5 v=0
48910 On ch=1 n=b3 v=0
48910 On ch=1 n=d4 v=0
48910 On ch=1 n=g4 v=0
48910 On ch=1 n=b4 v=0
48912 On ch=1 n=g3 v=0
48912 On ch=1 n=d3 v=0
48912 On ch=1 n=b2 v=0
48912 On ch=1 n=c5 v=64
48912 On ch=1 n=c6 v=64
48912 On ch=1 n=a4 v=64
48912 On ch=1 n=f#4 v=64
48912 On ch=1 n=d#4 v=64
48912 Par ch=1 c=64 v=96
48952 On ch=1 n=f#5 v=64
48990 On ch=1 n=f#5 v=0
48992 On ch=1 n=a5 v=64
49030 On ch=1 n=a5 v=0
49032 On ch=1 n=c6 v=64
49070 On ch=1 n=c6 v=0
49072 On ch=1 n=f#6 v=64
49110 On ch=1 n=f#6 v=0
49112 On ch=1 n=a6 v=64
49150 On ch=1 n=a6 v=0
49152 On ch=1 n=c8 v=64
49152 On ch=1 n=c7 v=64
49152 On ch=1 n=a7 v=64
49152 On ch=1 n=d#3 v=64
49162 On ch=1 n=f#3 v=65
49166 On ch=1 n=a3 v=64
49175 On ch=1 n=c4 v=65
49190 On ch=1 n=c8 v=0
49192 On ch=1 n=f#7 v=64
49230 On ch=1 n=f#7 v=0
49232 On ch=1 n=c7 v=64
49270 On ch=1 n=c7 v=0
49272 On ch=1 n=a6 v=64
49310 On ch=1 n=a6 v=0
49312 On ch=1 n=f#6 v=64
49350 On ch=1 n=f#6 v=0
49352 On ch=1 n=c6 v=64
49352 Par ch=1 c=64 v=0
49390 On ch=1 n=c6 v=0
49390 On ch=1 n=c7 v=0
49390 On ch=1 n=d#3 v=0
49390 On ch=1 n=a7 v=0
49390 On ch=1 n=c6 v=0
49390 On ch=1 n=d#4 v=0
49390 On ch=1 n=f#4 v=0
49390 On ch=1 n=a4 v=0
49390 On ch=1 n=c5 v=0
49391 On ch=1 n=c4 v=0
49391 On ch=1 n=a3 v=0
49392 On ch=1 n=b4 v=64
49392 On ch=1 n=b5 v=64
49392 On ch=1 n=g4 v=64
49392 On ch=1 n=e4 v=64
49392 Par ch=1 c=64 v=96
49394 On ch=1 n=f#3 v=0
49432 On ch=1 n=e5 v=64
49470 On ch=1 n=e5 v=0
49472 On ch=1 n=g5 v=64
49510 On ch=1 n=g5 v=0
49512 On ch=1 n=b5 v=64
49550 On ch=1 n=b5 v=0
49552 On ch=1 n=e6 v=64
49590 On ch=1 n=e6 v=0
49592 On ch=1 n=g6 v=64
49630 On ch=1 n=g6 v=0
49632 On ch=1 n=b7 v=64
49632 On ch=1 n=g7 v=64
49632 On ch=1 n=b6 v=64
49632 On ch=1 n=e3 v=64
49641 On ch=1 n=g3 v=64
49649 On ch=1 n=b3 v=64
49670 On ch=1 n=b7 v=0
49672 On ch=1 n=e7 v=64
49710 On ch=1 n=e7 v=0
49712 On ch=1 n=b6 v=64
49750 On ch=1 n=b6 v=0
49752 On ch=1 n=g6 v=64
49790 On ch=1 n=g6 v=0
49792 On ch=1 n=e6 v=64
49830 On ch=1 n=e6 v=0
49832 On ch=1 n=b5 v=64
49832 Par ch=1 c=64 v=0
49870 On ch=1 n=b5 v=0
49870 On ch=1 n=b6 v=0
49870 On ch=1 n=e3 v=0
49870 On ch=1 n=g7 v=0
49870 On ch=1 n=b5 v=0
49870 On ch=1 n=e4 v=0
49870 On ch=1 n=g4 v=0
49870 On ch=1 n=b4 v=0
49872 On ch=1 n=b3 v=0
49872 On ch=1 n=g3 v=0
49872 On ch=1 n=a4 v=64
49872 On ch=1 n=a5 v=64
49872 On ch=1 n=e4 v=64
49872 On ch=1 n=c4 v=64
49872 Par ch=1 c=64 v=96
49912 On ch=1 n=c5 v=64
49950 On ch=1 n=c5 v=0
49952 On ch=1 n=e5 v=64
49990 On ch=1 n=e5 v=0
49992 On ch=1 n=a5 v=64
50030 On ch=1 n=a5 v=0
50032 On ch=1 n=c6 v=64
50070 On ch=1 n=c6 v=0
50072 On ch=1 n=e6 v=64
50110 On ch=1 n=e6 v=0
50112 On ch=1 n=a7 v=64
50112 On ch=1 n=a6 v=64
50112 On ch=1 n=e7 v=64
50112 On ch=1 n=c3 v=64
50119 On ch=1 n=e3 v=64
50130 On ch=1 n=a3 v=62
50150 On ch=1 n=a7 v=0
50152 On ch=1 n=c7 v=64
50190 On ch=1 n=c7 v=0
50192 On ch=1 n=a6 v=64
50230 On ch=1 n=a6 v=0
50232 On ch=1 n=e6 v=64
50270 On ch=1 n=e6 v=0
50272 On ch=1 n=c6 v=64
50310 On ch=1 n=c6 v=0
50312 On ch=1 n=a5 v=64
50312 Par ch=1 c=64 v=0
50350 On ch=1 n=a5 v=0
50350 On ch=1 n=a6 v=0
50350 On ch=1 n=e7 v=0
50350 On ch=1 n=a5 v=0
50350 On ch=1 n=c4 v=0
50350 On ch=1 n=e4 v=0
50350 On ch=1 n=a4 v=0
50351 On ch=1 n=c3 v=0
50352 On ch=1 n=a3 v=0
50352 On ch=1 n=e3 v=0
50352 On ch=1 n=e4 v=64
50352 On ch=1 n=e5 v=64
50352 On ch=1 n=g3 v=64
50352 On ch=1 n=a#3 v=64
50352 Par ch=1 c=64 v=96
50392 On ch=1 n=g4 v=64
50430 On ch=1 n=g4 v=0
50432 On ch=1 n=a#4 v=64
50470 On ch=1 n=a#4 v=0
50472 On ch=1 n=e5 v=64
50510 On ch=1 n=e5 v=0
50512 On ch=1 n=g5 v=64
50550 On ch=1 n=g5 v=0
50552 On ch=1 n=a#5 v=64
50590 On ch=1 n=a#5 v=0
50592 On ch=1 n=e7 v=64
50592 On ch=1 n=e6 v=64
50592 On ch=1 n=c2 v=64
50592 On ch=1 n=a#6 v=64
50606 On ch=1 n=c3 v=64
50630 On ch=1 n=e7 v=0
50632 On ch=1 n=g6 v=64
50670 On ch=1 n=g6 v=0
50672 On ch=1 n=e6 v=64
50710 On ch=1 n=e6 v=0
50712 On ch=1 n=a#5 v=64
50750 On ch=1 n=a#5 v=0
50752 On ch=1 n=g5 v=64
50790 On ch=1 n=g5 v=0
50792 On ch=1 n=e5 v=64
50792 Par ch=1 c=64 v=0
50830 On ch=1 n=e5 v=0
50830 On ch=1 n=e6 v=0
50830 On ch=1 n=a#6 v=0
50830 On ch=1 n=c2 v=0
50830 On ch=1 n=e5 v=0
50830 On ch=1 n=a#3 v=0
50830 On ch=1 n=g3 v=0
50830 On ch=1 n=e4 v=0
50831 On ch=1 n=c3 v=0
50832 On ch=1 n=e4 v=64
50832 On ch=1 n=b3 v=64
50832 On ch=1 n=g4 v=64
50832 On ch=1 n=g5 v=64
50832 Par ch=1 c=64 v=96
50872 On ch=1 n=b4 v=64
50910 On ch=1 n=b4 v=0
50912 On ch=1 n=e5 v=64
50950 On ch=1 n=e5 v=0
50952 On ch=1 n=g5 v=64
50990 On ch=1 n=g5 v=0
50992 On ch=1 n=b5 v=64
51030 On ch=1 n=b5 v=0
51032 On ch=1 n=e6 v=64
51070 On ch=1 n=e6 v=0
51072 On ch=1 n=g7 v=64
51072 On ch=1 n=b2 v=64
51072 On ch=1 n=g6 v=64
51072 On ch=1 n=e7 v=64
51080 On ch=1 n=e3 v=64
51089 On ch=1 n=g3 v=65
51110 On ch=1 n=g7 v=0
51112 On ch=1 n=b6 v=64
51150 On ch=1 n=b6 v=0
51152 On ch=1 n=g6 v=64
51190 On ch=1 n=g6 v=0
51192 On ch=1 n=e6 v=64
51230 On ch=1 n=e6 v=0
51232 On ch=1 n=b5 v=64
51270 On ch=1 n=b5 v=0
51272 On ch=1 n=g5 v=64
51272 Par ch=1 c=64 v=0
51310 On ch=1 n=g5 v=0
51310 On ch=1 n=g6 v=0
51310 On ch=1 n=e7 v=0
51310 On ch=1 n=b2 v=0
51310 On ch=1 n=g5 v=0
51310 On ch=1 n=g4 v=0
51310 On ch=1 n=b3 v=0
51310 On ch=1 n=e4 v=0
51312 Tempo 1428571
51312 On ch=1 n=b3 v=64
51312 On ch=1 n=f#4 v=64
51312 On ch=1 n=f#5 v=64
51312 On ch=1 n=d#4 v=64
51312 Par ch=1 c=64 v=96
51313 On ch=1 n=g3 v=0
51313 On ch=1 n=e3 v=0
51352 On ch=1 n=b4 v=64
51390 On ch=1 n=b4 v=0
51391 Tempo 1463415
51392 On ch=1 n=d#5 v=64
51430 On ch=1 n=d#5 v=0
51432 On ch=1 n=f#5 v=64
51470 On ch=1 n=f#5 v=0
51471 Tempo 1500000
51472 On ch=1 n=b5 v=64
51510 On ch=1 n=b5 v=0
51512 On ch=1 n=d#6 v=64
51550 On ch=1 n=d#6 v=0
51551 Tempo 1538462
51552 On ch=1 n=f#7 v=64
51552 On ch=1 n=b2 v=64
51552 On ch=1 n=f#6 v=64
51552 On ch=1 n=d#7 v=64
51561 On ch=1 n=d#3 v=64
51567 On ch=1 n=f#3 v=64
51590 On ch=1 n=f#7 v=0
51592 On ch=1 n=b6 v=64
51630 On ch=1 n=b6 v=0
51631 Tempo 1578947
51632 On ch=1 n=f#6 v=64
51670 On ch=1 n=f#6 v=0
51672 On ch=1 n=d#6 v=64
51710 On ch=1 n=d#6 v=0
51711 Tempo 1621622
51712 On ch=1 n=b5 v=64
51750 On ch=1 n=b5 v=0
51752 On ch=1 n=f#5 v=64
51752 Par ch=1 c=64 v=0
51790 On ch=1 n=f#5 v=0
51790 On ch=1 n=f#6 v=0
51790 On ch=1 n=d#7 v=0
51790 On ch=1 n=b2 v=0
51790 On ch=1 n=f#5 v=0
51790 On ch=1 n=d#4 v=0
51790 On ch=1 n=f#4 v=0
51790 On ch=1 n=b3 v=0
51791 Tempo 1666667
51792 On ch=1 n=f#3 v=0
51792 On ch=1 n=d#3 v=0
51792 Tempo 1428571
51792 On ch=1 n=b4 v=64
51792 On ch=1 n=g4 v=64
51792 On ch=1 n=d4 v=64
51792 On ch=1 n=b3 v=64
51792 On ch=1 n=d5 v=64
51792 On ch=1 n=d6 v=64
51792 Par ch=1 c=64 v=96
51832 On ch=1 n=g5 v=64
51870 On ch=1 n=g5 v=0
51872 On ch=1 n=b5 v=64
51910 On ch=1 n=b5 v=0
51912 On ch=1 n=d6 v=64
51950 On ch=1 n=d6 v=0
51952 On ch=1 n=g6 v=64
51990 On ch=1 n=g6 v=0
51992 On ch=1 n=b6 v=64
52030 On ch=1 n=b6 v=0
52032 On ch=1 n=g2 v=64
52032 On ch=1 n=d8 v=64
52032 On ch=1 n=d7 v=64
52032 On ch=1 n=b7 v=64
52042 On ch=1 n=b2 v=64
52046 On ch=1 n=d3 v=63
52055 On ch=1 n=g3 v=64
52070 On ch=1 n=d8 v=0
52072 On ch=1 n=g7 v=64
52110 On ch=1 n=g7 v=0
52112 On ch=1 n=d7 v=64
52150 On ch=1 n=d7 v=0
52152 On ch=1 n=b6 v=64
52190 On ch=1 n=b6 v=0
52192 On ch=1 n=g6 v=64
52230 On ch=1 n=g6 v=0
52232 On ch=1 n=d6 v=64
52232 Par ch=1 c=64 v=0
52270 On ch=1 n=d6 v=0
52270 On ch=1 n=d7 v=0
52270 On ch=1 n=g3 v=0
52270 On ch=1 n=b7 v=0
52270 On ch=1 n=g2 v=0
52270 On ch=1 n=d6 v=0
52270 On ch=1 n=d5 v=0
52270 On ch=1 n=b3 v=0
52270 On ch=1 n=d4 v=0
52270 On ch=1 n=g4 v=0
52270 On ch=1 n=b4 v=0
52272 On ch=1 n=d3 v=0
52272 On ch=1 n=b2 v=0
52272 On ch=1 n=g4 v=64
52272 On ch=1 n=e4 v=64
52272 On ch=1 n=a#4 v=64
52272 On ch=1 n=c#4 v=64
52272 On ch=1 n=a#3 v=64
52272 On ch=1 n=c#5 v=64
52272 On ch=1 n=c#6 v=64
52272 Par ch=1 c=64 v=96
52312 On ch=1 n=g5 v=64
52350 On ch=1 n=g5 v=0
52352 On ch=1 n=a#5 v=64
52390 On ch=1 n=a#5 v=0
52392 On ch=1 n=c#6 v=64
52430 On ch=1 n=c#6 v=0
52432 On ch=1 n=g6 v=64
52470 On ch=1 n=g6 v=0
52472 On ch=1 n=a#6 v=64
52510 On ch=1 n=a#6 v=0
52512 On ch=1 n=g2 v=64
52512 On ch=1 n=c#8 v=64
52512 On ch=1 n=a#7 v=64
52512 On ch=1 n=c#7 v=64
52521 On ch=1 n=a#2 v=64
52527 On ch=1 n=c#3 v=65
52535 On ch=1 n=e3 v=64
52542 On ch=1 n=g3 v=64
52550 On ch=1 n=c#8 v=0
52552 On ch=1 n=g7 v=64
52590 On ch=1 n=g7 v=0
52592 On ch=1 n=c#7 v=64
52630 On ch=1 n=c#7 v=0
52632 On ch=1 n=a#6 v=64
52670 On ch=1 n=a#6 v=0
52672 On ch=1 n=g6 v=64
52710 On ch=1 n=g6 v=0
52712 On ch=1 n=c#6 v=64
52712 Par ch=1 c=64 v=0
52750 On ch=1 n=c#6 v=0
52750 On ch=1 n=c#7 v=0
52750 On ch=1 n=a#7 v=0
52750 On ch=1 n=g2 v=0
52750 On ch=1 n=c#6 v=0
52750 On ch=1 n=c#5 v=0
52750 On ch=1 n=a#3 v=0
52750 On ch=1 n=c#4 v=0
52750 On ch=1 n=a#4 v=0
52750 On ch=1 n=e4 v=0
52750 On ch=1 n=g4 v=0
52752 On ch=1 n=b4 v=64
52752 On ch=1 n=g4 v=64
52752 On ch=1 n=d4 v=64
52752 On ch=1 n=b3 v=64
52752 On ch=1 n=d5 v=64
52752 On ch=1 n=d6 v=64
52752 Par ch=1 c=64 v=96
52753 On ch=1 n=c#3 v=0
52754 On ch=1 n=g3 v=0
52754 On ch=1 n=e3 v=0
52754 On ch=1 n=a#2 v=0
52792 On ch=1 n=g5 v=64
52830 On ch=1 n=g5 v=0
52832 On ch=1 n=b5 v=64
52870 On ch=1 n=b5 v=0
52872 On ch=1 n=d6 v=64
52910 On ch=1 n=d6 v=0
52912 On ch=1 n=g6 v=64
52950 On ch=1 n=g6 v=0
52952 On ch=1 n=b6 v=64
52990 On ch=1 n=b6 v=0
52992 On ch=1 n=g2 v=64
52992 On ch=1 n=d8 v=64
52992 On ch=1 n=d7 v=64
52992 On ch=1 n=b7 v=64
53000 On ch=1 n=b2 v=64
53006 On ch=1 n=d3 v=64
53015 On ch=1 n=g3 v=64
53030 On ch=1 n=d8 v=0
53032 On ch=1 n=g7 v=64
53070 On ch=1 n=g7 v=0
53072 On ch=1 n=d7 v=64
53110 On ch=1 n=d7 v=0
53112 On ch=1 n=b6 v=64
53150 On ch=1 n=b6 v=0
53152 On ch=1 n=g6 v=64
53190 On ch=1 n=g6 v=0
53192 On ch=1 n=d6 v=64
53192 Par ch=1 c=64 v=0
53230 On ch=1 n=d6 v=0
53230 On ch=1 n=d7 v=0
53230 On ch=1 n=b7 v=0
53230 On ch=1 n=g2 v=0
53230 On ch=1 n=d6 v=0
53230 On ch=1 n=d5 v=0
53230 On ch=1 n=b3 v=0
53230 On ch=1 n=d4 v=0
53230 On ch=1 n=g4 v=0
53230 On ch=1 n=b4 v=0
53231 On ch=1 n=g3 v=0
53231 On ch=1 n=d3 v=0
53232 On ch=1 n=b2 v=0
53232 On ch=1 n=g4 v=64
53232 On ch=1 n=d4 v=64
53232 On ch=1 n=b3 v=64
53232 On ch=1 n=b4 v=64
53232 On ch=1 n=b5 v=64
53232 Par ch=1 c=64 v=96
53234 On ch=1 n=g3 v=64
53272 On ch=1 n=d5 v=64
53310 On ch=1 n=d5 v=0
53312 On ch=1 n=g5 v=64
53350 On ch=1 n=g5 v=0
53352 On ch=1 n=b5 v=64
53390 On ch=1 n=b5 v=0
53392 On ch=1 n=d6 v=64
53430 On ch=1 n=d6 v=0
53432 On ch=1 n=g6 v=64
53470 On ch=1 n=g6 v=0
53472 On ch=1 n=b7 v=64
53472 On ch=1 n=g2 v=64
53472 On ch=1 n=b6 v=64
53472 On ch=1 n=g7 v=64
53483 On ch=1 n=b2 v=64
53486 On ch=1 n=d3 v=64
53494 On ch=1 n=g3 v=64
53510 On ch=1 n=b7 v=0
53512 On ch=1 n=d7 v=64
53550 On ch=1 n=d7 v=0
53552 On ch=1 n=b6 v=64
53590 On ch=1 n=b6 v=0
53592 On ch=1 n=g6 v=64
53630 On ch=1 n=g6 v=0
53632 On ch=1 n=d6 v=64
53670 On ch=1 n=d6 v=0
53672 On ch=1 n=b5 v=64
53672 Par ch=1 c=64 v=0
53710 On ch=1 n=b5 v=0
53710 On ch=1 n=b6 v=0
53710 On ch=1 n=d3 v=0
53710 On ch=1 n=g7 v=0
53710 On ch=1 n=g2 v=0
53710 On ch=1 n=b5 v=0
53710 On ch=1 n=g3 v=0
53710 On ch=1 n=b4 v=0
53710 On ch=1 n=b3 v=0
53710 On ch=1 n=d4 v=0
53710 On ch=1 n=g4 v=0
53711 On ch=1 n=b2 v=0
53712 On ch=1 n=g3 v=0
53712 On ch=1 n=d5 v=64
53712 On ch=1 n=b4 v=64
53712 On ch=1 n=d4 v=64
53712 On ch=1 n=g#4 v=64
53712 On ch=1 n=f4 v=64
53712 On ch=1 n=f5 v=64
53712 On ch=1 n=f6 v=64
53712 Par ch=1 c=64 v=96
53752 On ch=1 n=b5 v=64
53790 On ch=1 n=b5 v=0
53792 On ch=1 n=d6 v=64
53830 On ch=1 n=d6 v=0
53832 On ch=1 n=f6 v=64
53870 On ch=1 n=f6 v=0
53872 On ch=1 n=b6 v=64
53910 On ch=1 n=b6 v=0
53912 On ch=1 n=d7 v=64
53950 On ch=1 n=d7 v=0
53952 On ch=1 n=d8 v=64
53952 On ch=1 n=f8 v=64
53952 On ch=1 n=g#2 v=64
53952 On ch=1 n=f7 v=64
53961 On ch=1 n=d3 v=64
53969 On ch=1 n=f3 v=64
53975 On ch=1 n=g#3 v=64
53990 On ch=1 n=f8 v=0
53992 On ch=1 n=b7 v=64
54030 On ch=1 n=b7 v=0
54032 On ch=1 n=f7 v=64
54070 On ch=1 n=f7 v=0
54072 On ch=1 n=d7 v=64
54110 On ch=1 n=d7 v=0
54112 On ch=1 n=b6 v=64
54150 On ch=1 n=b6 v=0
54152 On ch=1 n=f6 v=64
54152 Par ch=1 c=64 v=0
54190 On ch=1 n=f6 v=0
54190 On ch=1 n=f7 v=0
54190 On ch=1 n=g#2 v=0
54190 On ch=1 n=d8 v=0
54190 On ch=1 n=f6 v=0
54190 On ch=1 n=f5 v=0
54190 On ch=1 n=f4 v=0
54190 On ch=1 n=g#4 v=0
54190 On ch=1 n=d4 v=0
54190 On ch=1 n=b4 v=0
54190 On ch=1 n=d5 v=0
54191 On ch=1 n=d3 v=0
54192 On ch=1 n=g#3 v=0
54192 On ch=1 n=c5 v=64
54192 On ch=1 n=a4 v=64
54192 On ch=1 n=e4 v=64
54192 On ch=1 n=c4 v=64
54192 On ch=1 n=e5 v=64
54192 On ch=1 n=e6 v=64
54192 Par ch=1 c=64 v=96
54193 On ch=1 n=f3 v=0
54232 On ch=1 n=a5 v=64
54270 On ch=1 n=a5 v=0
54272 On ch=1 n=c6 v=64
54310 On ch=1 n=c6 v=0
54312 On ch=1 n=e6 v=64
54350 On ch=1 n=e6 v=0
54352 On ch=1 n=a6 v=64
54390 On ch=1 n=a6 v=0
54392 On ch=1 n=e7 v=64
54430 On ch=1 n=e7 v=0
54430 On ch=1 n=e6 v=0
54430 On ch=1 n=e5 v=0
54432 On ch=1 n=a2 v=64
54432 On ch=1 n=c5 v=64
54432 On ch=1 n=c6 v=64
54439 On ch=1 n=c3 v=64
54447 On ch=1 n=e3 v=65
54457 On ch=1 n=a3 v=64
54472 On ch=1 n=e5 v=64
54510 On ch=1 n=e5 v=0
54512 On ch=1 n=a5 v=64
54550 On ch=1 n=a5 v=0
54552 On ch=1 n=c6 v=64
54590 On ch=1 n=c6 v=0
54592 On ch=1 n=e6 v=64
54620 Par ch=1 c=64 v=0
54630 On ch=1 n=e6 v=0
54632 On ch=1 n=c7 v=64
54670 On ch=1 n=c7 v=0
54670 On ch=1 n=c6 v=0
54670 On ch=1 n=c5 v=0
54670 On ch=1 n=a2 v=0
54670 On ch=1 n=c4 v=0
54670 On ch=1 n=e4 v=0
54670 On ch=1 n=a4 v=0
54670 On ch=1 n=c5 v=0
54671 On ch=1 n=e3 v=0
54671 On ch=1 n=c3 v=0
54672 On ch=1 n=a3 v=0
54672 On ch=1 n=d4 v=64
54672 On ch=1 n=b3 v=64
54672 On ch=1 n=g3 v=64
54672 On ch=1 n=d3 v=64
54672 On ch=1 n=b4 v=64
54672 On ch=1 n=b5 v=64
54672 Par ch=1 c=64 v=96
54712 On ch=1 n=d5 v=64
54750 On ch=1 n=d5 v=0
54752 On ch=1 n=g5 v=64
54790 On ch=1 n=g5 v=0
54792 On ch=1 n=b5 v=64
54830 On ch=1 n=b5 v=0
54832 On ch=1 n=d6 v=64
54870 On ch=1 n=d6 v=0
54872 On ch=1 n=g6 v=64
54910 On ch=1 n=g6 v=0
54910 On ch=1 n=d3 v=0
54910 On ch=1 n=g3 v=0
54910 On ch=1 n=b3 v=0
54910 On ch=1 n=d4 v=0
54912 On ch=1 n=b6 v=64
54912 On ch=1 n=g7 v=64
54912 On ch=1 n=b7 v=64
54912 On ch=1 n=d5 v=64
54912 On ch=1 n=b4 v=64
54912 On ch=1 n=g4 v=64
54912 On ch=1 n=d4 v=64
54950 On ch=1 n=b7 v=0
54950 On ch=1 n=g7 v=0
54950 On ch=1 n=b6 v=0
54952 On ch=1 n=d7 v=64
54990 On ch=1 n=d7 v=0
54992 On ch=1 n=b6 v=64
55030 On ch=1 n=b6 v=0
55032 On ch=1 n=g6 v=64
55070 On ch=1 n=g6 v=0
55072 On ch=1 n=d6 v=64
55110 On ch=1 n=d6 v=0
55112 On ch=1 n=b5 v=64
55112 Par ch=1 c=64 v=0
55150 On ch=1 n=b5 v=0
55150 On ch=1 n=d4 v=0
55150 On ch=1 n=g4 v=0
55150 On ch=1 n=b4 v=0
55150 On ch=1 n=d5 v=0
55150 On ch=1 n=b5 v=0
55150 On ch=1 n=b4 v=0
55152 On ch=1 n=d4 v=64
55152 On ch=1 n=c4 v=64
55152 On ch=1 n=f#3 v=64
55152 On ch=1 n=d3 v=64
55152 On ch=1 n=b4 v=64
55152 On ch=1 n=b5 v=64
55152 Par ch=1 c=64 v=96
55192 On ch=1 n=d5 v=64
55230 On ch=1 n=d5 v=0
55232 On ch=1 n=f#5 v=64
55270 On ch=1 n=f#5 v=0
55272 On ch=1 n=b5 v=64
55310 On ch=1 n=b5 v=0
55312 On ch=1 n=d6 v=64
55350 On ch=1 n=d6 v=0
55352 On ch=1 n=f#6 v=64
55390 On ch=1 n=f#6 v=0
55390 On ch=1 n=d3 v=0
55390 On ch=1 n=f#3 v=0
55390 On ch=1 n=c4 v=0
55390 On ch=1 n=d4 v=0
55392 On ch=1 n=b6 v=64
55392 On ch=1 n=f#7 v=64
55392 On ch=1 n=b7 v=64
55392 On ch=1 n=d5 v=64
55392 On ch=1 n=c5 v=64
55392 On ch=1 n=f#4 v=64
55392 On ch=1 n=d4 v=64
55430 On ch=1 n=b7 v=0
55430 On ch=1 n=f#7 v=0
55430 On ch=1 n=b6 v=0
55432 On ch=1 n=d7 v=64
55470 On ch=1 n=d7 v=0
55472 On ch=1 n=b6 v=64
55510 On ch=1 n=b6 v=0
55512 On ch=1 n=f#6 v=64
55550 On ch=1 n=f#6 v=0
55552 On ch=1 n=d6 v=64
55590 On ch=1 n=d6 v=0
55592 On ch=1 n=b5 v=64
55592 Par ch=1 c=64 v=0
55630 On ch=1 n=b5 v=0
55630 On ch=1 n=d4 v=0
55630 On ch=1 n=f#4 v=0
55630 On ch=1 n=c5 v=0
55630 On ch=1 n=d5 v=0
55630 On ch=1 n=b5 v=0
55630 On ch=1 n=b4 v=0
55632 On ch=1 n=d4 v=64
55632 On ch=1 n=c4 v=64
55632 On ch=1 n=f#3 v=64
55632 On ch=1 n=d3 v=64
55632 On ch=1 n=a4 v=64
55632 On ch=1 n=a5 v=64
55632 Par ch=1 c=64 v=96
55672 On ch=1 n=d5 v=64
55710 On ch=1 n=d5 v=0
55712 On ch=1 n=f#5 v=64
55750 On ch=1 n=f#5 v=0
55752 On ch=1 n=a5 v=64
55790 On ch=1 n=a5 v=0
55792 On ch=1 n=d6 v=64
55830 On ch=1 n=d6 v=0
55832 On ch=1 n=f#6 v=64
55870 On ch=1 n=f#6 v=0
55870 On ch=1 n=d3 v=0
55870 On ch=1 n=f#3 v=0
55870 On ch=1 n=c4 v=0
55870 On ch=1 n=d4 v=0
55872 On ch=1 n=a6 v=64
55872 On ch=1 n=f#7 v=64
55872 On ch=1 n=a7 v=64
55872 On ch=1 n=d5 v=64
55872 On ch=1 n=c5 v=64
55872 On ch=1 n=f#4 v=64
55872 On ch=1 n=d4 v=64
55910 On ch=1 n=a7 v=0
55910 On ch=1 n=f#7 v=0
55910 On ch=1 n=a6 v=0
55912 On ch=1 n=d7 v=64
55950 On ch=1 n=d7 v=0
55952 On ch=1 n=a6 v=64
55990 On ch=1 n=a6 v=0
55992 On ch=1 n=f#6 v=64
56030 On ch=1 n=f#6 v=0
56032 On ch=1 n=d6 v=64
56070 On ch=1 n=d6 v=0
56072 On ch=1 n=a5 v=64
56072 Par ch=1 c=64 v=0
56110 On ch=1 n=a5 v=0
56110 On ch=1 n=d4 v=0
56110 On ch=1 n=f#4 v=0
56110 On ch=1 n=c5 v=0
56110 On ch=1 n=d5 v=0
56110 On ch=1 n=a5 v=0
56110 On ch=1 n=a4 v=0
56112 On ch=1 n=g4 v=64
56112 On ch=1 n=g5 v=64
56112 On ch=1 n=g3 v=64
56112 On ch=1 n=d3 v=64
56112 On ch=1 n=b2 v=64
56112 On ch=1 n=g2 v=64
56112 Par ch=1 c=64 v=96
56152 On ch=1 n=b4 v=64
56190 On ch=1 n=b4 v=0
56192 On ch=1 n=d5 v=64
56230 On ch=1 n=d5 v=0
56232 On ch=1 n=g5 v=64
56270 On ch=1 n=g5 v=0
56272 On ch=1 n=b5 v=64
56310 On ch=1 n=b5 v=0
56312 On ch=1 n=d6 v=64
56350 On ch=1 n=d6 v=0
56350 On ch=1 n=g2 v=0
56350 On ch=1 n=b2 v=0
56350 On ch=1 n=d3 v=0
56350 On ch=1 n=g3 v=0
56352 On ch=1 n=g6 v=64
56352 On ch=1 n=b6 v=64
56352 On ch=1 n=g7 v=64
56352 On ch=1 n=g4 v=64
56352 On ch=1 n=d4 v=64
56352 On ch=1 n=b3 v=64
56352 On ch=1 n=g3 v=64
56390 On ch=1 n=g7 v=0
56390 On ch=1 n=b6 v=0
56390 On ch=1 n=g6 v=0
56392 On ch=1 n=d7 v=64
56430 On ch=1 n=d7 v=0
56432 On ch=1 n=b6 v=64
56470 On ch=1 n=b6 v=0
56472 On ch=1 n=g6 v=64
56510 On ch=1 n=g6 v=0
56512 On ch=1 n=d6 v=64
56550 On ch=1 n=d6 v=0
56552 On ch=1 n=b5 v=64
56590 On ch=1 n=b5 v=0
56590 On ch=1 n=g3 v=0
56590 On ch=1 n=b3 v=0
56590 On ch=1 n=d4 v=0
56590 On ch=1 n=g4 v=0
56590 On ch=1 n=g5 v=0
56590 On ch=1 n=g4 v=0
56592 On ch=1 n=g5 v=64
56592 On ch=1 n=d5 v=64
56592 On ch=1 n=b4 v=64
56592 On ch=1 n=g4 v=64
56792 Par ch=1 c=64 v=0
56830 On ch=1 n=g4 v=0
56830 On ch=1 n=b4 v=0
56830 On ch=1 n=d5 v=0
56830 On ch=1 n=g5 v=0
56832 Par ch=1 c=7 v=120
56832 On ch=1 n=g4 v=64
56832 On ch=1 n=g5 v=64
56832 Par ch=1 c=64 v=96
56903 Par ch=1 c=7 v=119
56975 Par ch=1 c=7 v=118
57010 On ch=1 n=g5 v=0
57010 On ch=1 n=g4 v=0
57012 On ch=1 n=g4 v=64
57012 On ch=1 n=g5 v=64
57047 Par ch=1 c=7 v=117
57070 On ch=1 n=g5 v=0
57070 On ch=1 n=g4 v=0
57072 On ch=1 n=g4 v=64
57072 On ch=1 n=g5 v=64
57119 Par ch=1 c=7 v=116
57191 Par ch=1 c=7 v=115
57263 Par ch=1 c=7 v=114
57310 On ch=1 n=g5 v=0
57310 On ch=1 n=g4 v=0
57312 On ch=1 n=g4 v=64
57312 On ch=1 n=g5 v=64
57335 Par ch=1 c=7 v=113
57407 Par ch=1 c=7 v=112
57479 Par ch=1 c=7 v=111
57520 Par ch=1 c=64 v=0
57550 On ch=1 n=g5 v=0
57550 On ch=1 n=g4 v=0
57551 Par ch=1 c=7 v=110
57552 On ch=1 n=g4 v=64
57552 On ch=1 n=g5 v=64
57552 On ch=1 n=g3 v=64
57552 On ch=1 n=a#3 v=64
57552 On ch=1 n=d#3 v=64
57552 Par ch=1 c=64 v=96
57590 On ch=1 n=d#3 v=0
57590 On ch=1 n=a#3 v=0
57590 On ch=1 n=g3 v=0
57592 On ch=1 n=d#4 v=64
57592 On ch=1 n=a#4 v=64
57630 On ch=1 n=a#4 v=0
57630 On ch=1 n=d#4 v=0
57632 On ch=1 n=g3 v=64
57632 On ch=1 n=g5 v=64
57632 On ch=1 n=a#3 v=64
57632 On ch=1 n=d#3 v=64
57632 On ch=1 n=d#5 v=64
57670 On ch=1 n=d#5 v=0
57670 On ch=1 n=d#3 v=0
57670 On ch=1 n=a#3 v=0
57670 On ch=1 n=g3 v=0
57670 On ch=1 n=g5 v=0
57672 On ch=1 n=a#5 v=64
57672 On ch=1 n=g5 v=64
57672 On ch=1 n=d#4 v=64
57710 On ch=1 n=d#4 v=0
57710 On ch=1 n=a#5 v=0
57710 On ch=1 n=g5 v=0
57712 On ch=1 n=g3 v=64
57712 On ch=1 n=g6 v=64
57712 On ch=1 n=d#6 v=64
57712 On ch=1 n=a#3 v=64
57712 On ch=1 n=d#3 v=64
57750 On ch=1 n=d#3 v=0
57750 On ch=1 n=a#3 v=0
57750 On ch=1 n=d#6 v=0
57750 On ch=1 n=g6 v=0
57750 On ch=1 n=g3 v=0
57752 On ch=1 n=g6 v=64
57752 On ch=1 n=a#6 v=64
57752 On ch=1 n=d#4 v=64
57790 On ch=1 n=d#4 v=0
57790 On ch=1 n=a#6 v=0
57790 On ch=1 n=g6 v=0
57792 On ch=1 n=g3 v=64
57792 On ch=1 n=g7 v=64
57792 On ch=1 n=a#3 v=64
57792 On ch=1 n=d#3 v=64
57792 On ch=1 n=d#7 v=64
57830 On ch=1 n=d#7 v=0
57830 On ch=1 n=d#3 v=0
57830 On ch=1 n=a#3 v=0
57830 On ch=1 n=g7 v=0
57830 On ch=1 n=g3 v=0
57832 On ch=1 n=g6 v=64
57832 On ch=1 n=d#4 v=64
57832 On ch=1 n=a#6 v=64
57870 On ch=1 n=a#6 v=0
57870 On ch=1 n=d#4 v=0
57870 On ch=1 n=g6 v=0
57872 On ch=1 n=g3 v=64
57872 On ch=1 n=g7 v=64
57872 On ch=1 n=a#3 v=64
57872 On ch=1 n=d#3 v=64
57872 On ch=1 n=d#7 v=64
57910 On ch=1 n=d#7 v=0
57910 On ch=1 n=d#3 v=0
57910 On ch=1 n=a#3 v=0
57910 On ch=1 n=g7 v=0
57910 On ch=1 n=g3 v=0
57912 On ch=1 n=d#4 v=64
57950 On ch=1 n=d#4 v=0
57952 On ch=1 n=g3 v=64
57952 On ch=1 n=a#3 v=64
57952 On ch=1 n=d#3 v=64
57990 On ch=1 n=d#3 v=0
57990 On ch=1 n=a#3 v=0
57990 On ch=1 n=g3 v=0
57992 On ch=1 n=d#4 v=64
57992 Par ch=1 c=64 v=0
58030 On ch=1 n=d#4 v=0
58030 On ch=1 n=g5 v=0
58030 On ch=1 n=g4 v=0
58032 On ch=1 n=g3 v=64
58032 On ch=1 n=c3 v=64
58032 On ch=1 n=g4 v=64
58032 On ch=1 n=g5 v=64
58032 On ch=1 n=d#3 v=64
58032 Par ch=1 c=64 v=96
58070 On ch=1 n=d#3 v=0
58070 On ch=1 n=c3 v=0
58070 On ch=1 n=g3 v=0
58072 On ch=1 n=c4 v=64
58072 On ch=1 n=c5 v=64
58110 On ch=1 n=c5 v=0
58110 On ch=1 n=c4 v=0
58112 On ch=1 n=c3 v=64
58112 On ch=1 n=g3 v=64
58112 On ch=1 n=g5 v=64
58112 On ch=1 n=d#3 v=64
58112 On ch=1 n=d#5 v=64
58150 On ch=1 n=d#5 v=0
58150 On ch=1 n=d#3 v=0
58150 On ch=1 n=g3 v=0
58150 On ch=1 n=c3 v=0
58150 On ch=1 n=g5 v=0
58152 On ch=1 n=c4 v=64
58152 On ch=1 n=c6 v=64
58152 On ch=1 n=g5 v=64
58190 On ch=1 n=c6 v=0
58190 On ch=1 n=c4 v=0
58190 On ch=1 n=g5 v=0
58192 On ch=1 n=c3 v=64
58192 On ch=1 n=g3 v=64
58192 On ch=1 n=g6 v=64
58192 On ch=1 n=d#3 v=64
58192 On ch=1 n=d#6 v=64
58230 On ch=1 n=d#6 v=0
58230 On ch=1 n=d#3 v=0
58230 On ch=1 n=g6 v=0
58230 On ch=1 n=g3 v=0
58230 On ch=1 n=c3 v=0
58232 On ch=1 n=c4 v=64
58232 On ch=1 n=c7 v=64
58232 On ch=1 n=g6 v=64
58270 On ch=1 n=g6 v=0
58270 On ch=1 n=c7 v=0
58270 On ch=1 n=c4 v=0
58272 On ch=1 n=c3 v=64
58272 On ch=1 n=g3 v=64
58272 On ch=1 n=g7 v=64
58272 On ch=1 n=d#3 v=64
58272 On ch=1 n=d#7 v=64
58310 On ch=1 n=d#7 v=0
58310 On ch=1 n=d#3 v=0
58310 On ch=1 n=g7 v=0
58310 On ch=1 n=g3 v=0
58310 On ch=1 n=c3 v=0
58312 On ch=1 n=c4 v=64
58312 On ch=1 n=g6 v=64
58312 On ch=1 n=c7 v=64
58350 On ch=1 n=c7 v=0
58350 On ch=1 n=g6 v=0
58350 On ch=1 n=c4 v=0
58352 On ch=1 n=c3 v=64
58352 On ch=1 n=g3 v=64
58352 On ch=1 n=g7 v=64
58352 On ch=1 n=d#3 v=64
58352 On ch=1 n=d#7 v=64
58390 On ch=1 n=d#7 v=0
58390 On ch=1 n=d#3 v=0
58390 On ch=1 n=g7 v=0
58390 On ch=1 n=g3 v=0
58390 On ch=1 n=c3 v=0
58392 On ch=1 n=c4 v=64
58430 On ch=1 n=c4 v=0
58432 On ch=1 n=c3 v=64
58432 On ch=1 n=g3 v=64
58432 On ch=1 n=d#3 v=64
58470 On ch=1 n=d#3 v=0
58470 On ch=1 n=g3 v=0
58470 On ch=1 n=c3 v=0
58472 On ch=1 n=c4 v=64
58472 Par ch=1 c=64 v=0
58510 On ch=1 n=c4 v=0
58510 On ch=1 n=g5 v=0
58510 On ch=1 n=g4 v=0
58512 On ch=1 n=c3 v=64
58512 On ch=1 n=g#4 v=64
58512 On ch=1 n=g#5 v=64
58512 On ch=1 n=g#2 v=64
58512 On ch=1 n=d#3 v=64
58512 Par ch=1 c=64 v=96
58550 On ch=1 n=d#3 v=0
58550 On ch=1 n=g#2 v=0
58550 On ch=1 n=c3 v=0
58552 On ch=1 n=c5 v=64
58552 On ch=1 n=g#3 v=64
58590 On ch=1 n=g#3 v=0
58590 On ch=1 n=c5 v=0
58592 On ch=1 n=c3 v=64
58592 On ch=1 n=g#2 v=64
58592 On ch=1 n=d#3 v=64
58592 On ch=1 n=g#5 v=64
58592 On ch=1 n=d#5 v=64
58630 On ch=1 n=d#5 v=0
58630 On ch=1 n=d#3 v=0
58630 On ch=1 n=g#2 v=0
58630 On ch=1 n=c3 v=0
58630 On ch=1 n=g#5 v=0
58632 On ch=1 n=c6 v=64
58632 On ch=1 n=g#3 v=64
58632 On ch=1 n=g#5 v=64
58670 On ch=1 n=g#3 v=0
58670 On ch=1 n=c6 v=0
58670 On ch=1 n=g#5 v=0
58672 On ch=1 n=c3 v=64
58672 On ch=1 n=g#2 v=64
58672 On ch=1 n=d#3 v=64
58672 On ch=1 n=g#6 v=64
58672 On ch=1 n=d#6 v=64
58710 On ch=1 n=d#6 v=0
58710 On ch=1 n=g#6 v=0
58710 On ch=1 n=d#3 v=0
58710 On ch=1 n=g#2 v=0
58710 On ch=1 n=c3 v=0
58712 On ch=1 n=c7 v=64
58712 On ch=1 n=g#3 v=64
58712 On ch=1 n=g#6 v=64
58750 On ch=1 n=g#6 v=0
58750 On ch=1 n=g#3 v=0
58750 On ch=1 n=c7 v=0
58752 On ch=1 n=c3 v=64
58752 On ch=1 n=g#2 v=64
58752 On ch=1 n=d#3 v=64
58752 On ch=1 n=d#7 v=64
58752 On ch=1 n=g#7 v=64
58790 On ch=1 n=g#7 v=0
58790 On ch=1 n=d#7 v=0
58790 On ch=1 n=d#3 v=0
58790 On ch=1 n=g#2 v=0
58790 On ch=1 n=c3 v=0
58792 On ch=1 n=c7 v=64
58792 On ch=1 n=g#3 v=64
58792 On ch=1 n=g#6 v=64
58830 On ch=1 n=g#6 v=0
58830 On ch=1 n=g#3 v=0
58830 On ch=1 n=c7 v=0
58832 On ch=1 n=c3 v=64
58832 On ch=1 n=g#2 v=64
58832 On ch=1 n=d#3 v=64
58832 On ch=1 n=d#7 v=64
58832 On ch=1 n=g#7 v=64
58870 On ch=1 n=g#7 v=0
58870 On ch=1 n=d#7 v=0
58870 On ch=1 n=d#3 v=0
58870 On ch=1 n=g#2 v=0
58870 On ch=1 n=c3 v=0
58872 On ch=1 n=g#3 v=64
58910 On ch=1 n=g#3 v=0
58912 On ch=1 n=c3 v=64
58912 On ch=1 n=g#2 v=64
58912 On ch=1 n=d#3 v=64
58950 On ch=1 n=d#3 v=0
58950 On ch=1 n=g#2 v=0
58950 On ch=1 n=c3 v=0
58952 On ch=1 n=g#3 v=64
58952 Par ch=1 c=64 v=0
58990 On ch=1 n=g#3 v=0
58990 On ch=1 n=g#5 v=0
58990 On ch=1 n=g#4 v=0
58992 Par ch=1 c=7 v=110
58992 On ch=1 n=g2 v=64
58992 On ch=1 n=a#2 v=64
58992 On ch=1 n=d#2 v=64
58992 On ch=1 n=a#4 v=64
58992 On ch=1 n=a#5 v=64
58992 Par ch=1 c=64 v=96
59030 On ch=1 n=d#2 v=0
59030 On ch=1 n=a#2 v=0
59030 On ch=1 n=g2 v=0
59032 On ch=1 n=d#3 v=64
59032 On ch=1 n=d#5 v=64
59039 Par ch=1 c=7 v=111
59070 On ch=1 n=d#5 v=0
59070 On ch=1 n=d#3 v=0
59072 On ch=1 n=g2 v=64
59072 On ch=1 n=g5 v=64
59072 On ch=1 n=a#2 v=64
59072 On ch=1 n=d#2 v=64
59072 On ch=1 n=a#5 v=64
59087 Par ch=1 c=7 v=112
59110 On ch=1 n=d#2 v=0
59110 On ch=1 n=a#2 v=0
59110 On ch=1 n=g5 v=0
59110 On ch=1 n=g2 v=0
59110 On ch=1 n=a#5 v=0
59112 On ch=1 n=a#5 v=64
59112 On ch=1 n=d#3 v=64
59112 On ch=1 n=d#6 v=64
59135 Par ch=1 c=7 v=113
59150 On ch=1 n=d#6 v=0
59150 On ch=1 n=d#3 v=0
59150 On ch=1 n=a#5 v=0
59152 On ch=1 n=g2 v=64
59152 On ch=1 n=g6 v=64
59152 On ch=1 n=a#2 v=64
59152 On ch=1 n=d#2 v=64
59152 On ch=1 n=a#6 v=64
59183 Par ch=1 c=7 v=114
59190 On ch=1 n=a#6 v=0
59190 On ch=1 n=d#2 v=0
59190 On ch=1 n=a#2 v=0
59190 On ch=1 n=g6 v=0
59190 On ch=1 n=g2 v=0
59192 On ch=1 n=a#6 v=64
59192 On ch=1 n=d#3 v=64
59192 On ch=1 n=d#7 v=64
59230 On ch=1 n=d#7 v=0
59230 On ch=1 n=d#3 v=0
59230 On ch=1 n=a#6 v=0
59231 Par ch=1 c=7 v=115
59232 On ch=1 n=g2 v=64
59232 On ch=1 n=g7 v=64
59232 On ch=1 n=a#2 v=64
59232 On ch=1 n=d#2 v=64
59232 On ch=1 n=a#7 v=64
59270 On ch=1 n=a#7 v=0
59270 On ch=1 n=d#2 v=0
59270 On ch=1 n=a#2 v=0
59270 On ch=1 n=g7 v=0
59270 On ch=1 n=g2 v=0
59272 On ch=1 n=a#6 v=64
59272 On ch=1 n=d#3 v=64
59272 On ch=1 n=d#7 v=64
59279 Par ch=1 c=7 v=116
59310 On ch=1 n=d#7 v=0
59310 On ch=1 n=d#3 v=0
59310 On ch=1 n=a#6 v=0
59312 On ch=1 n=g2 v=64
59312 On ch=1 n=g7 v=64
59312 On ch=1 n=a#2 v=64
59312 On ch=1 n=d#2 v=64
59312 On ch=1 n=a#7 v=64
59327 Par ch=1 c=7 v=117
59350 On ch=1 n=a#7 v=0
59350 On ch=1 n=d#2 v=0
59350 On ch=1 n=a#2 v=0
59350 On ch=1 n=g7 v=0
59350 On ch=1 n=g2 v=0
59352 On ch=1 n=a#6 v=64
59352 On ch=1 n=d#3 v=64
59352 On ch=1 n=d#7 v=64
59375 Par ch=1 c=7 v=118
59390 On ch=1 n=d#7 v=0
59390 On ch=1 n=d#3 v=0
59390 On ch=1 n=a#6 v=0
59392 On ch=1 n=g2 v=64
59392 On ch=1 n=g7 v=64
59392 On ch=1 n=a#2 v=64
59392 On ch=1 n=d#2 v=64
59392 On ch=1 n=a#7 v=64
59423 Par ch=1 c=7 v=119
59430 On ch=1 n=a#7 v=0
59430 On ch=1 n=d#2 v=0
59430 On ch=1 n=a#2 v=0
59430 On ch=1 n=g7 v=0
59430 On ch=1 n=g2 v=0
59432 On ch=1 n=d#3 v=64
59432 On ch=1 n=a#6 v=64
59432 On ch=1 n=d#7 v=64
59470 On ch=1 n=d#7 v=0
59470 On ch=1 n=a#6 v=0
59470 On ch=1 n=a#5 v=0
59470 On ch=1 n=a#4 v=0
59471 Par ch=1 c=7 v=120
59472 On ch=1 n=g2 v=64
59472 On ch=1 n=a#2 v=64
59472 On ch=1 n=d#2 v=64
59472 On ch=1 n=g7 v=64
59472 On ch=1 n=a#7 v=64
59672 Par ch=1 c=64 v=0
59710 On ch=1 n=a#7 v=0
59710 On ch=1 n=g7 v=0
59710 On ch=1 n=d#2 v=0
59710 On ch=1 n=a#2 v=0
59710 On ch=1 n=g2 v=0
59710 On ch=1 n=d#3 v=0
59712 Par ch=1 c=7 v=120
59712 On ch=1 n=a#4 v=64
59712 On ch=1 n=a#5 v=64
59712 Par ch=1 c=64 v=96
59783 Par ch=1 c=7 v=119
59855 Par ch=1 c=7 v=118
59890 On ch=1 n=a#5 v=0
59890 On ch=1 n=a#4 v=0
59892 On ch=1 n=a#4 v=64
59892 On ch=1 n=a#5 v=64
59927 Par ch=1 c=7 v=117
59950 On ch=1 n=a#5 v=0
59950 On ch=1 n=a#4 v=0
59952 On ch=1 n=a#4 v=64
59952 On ch=1 n=a#5 v=64
59999 Par ch=1 c=7 v=116
60071 Par ch=1 c=7 v=115
60143 Par ch=1 c=7 v=114
60190 On ch=1 n=a#5 v=0
60190 On ch=1 n=a#4 v=0
60192 On ch=1 n=a#4 v=64
60192 On ch=1 n=a#5 v=64
60215 Par ch=1 c=7 v=113
60287 Par ch=1 c=7 v=112
60359 Par ch=1 c=7 v=111
60392 Par ch=1 c=64 v=0
60430 On ch=1 n=a#5 v=0
60430 On ch=1 n=a#4 v=0
60431 Par ch=1 c=7 v=110
60432 On ch=1 n=a#4 v=64
60432 On ch=1 n=a#5 v=64
60432 On ch=1 n=a#3 v=64
60432 On ch=1 n=c#4 v=64
60432 On ch=1 n=f#3 v=64
60432 Par ch=1 c=64 v=96
60470 On ch=1 n=f#3 v=0
60470 On ch=1 n=c#4 v=0
60470 On ch=1 n=a#3 v=0
60472 On ch=1 n=f#4 v=64
60472 On ch=1 n=c#5 v=64
60510 On ch=1 n=c#5 v=0
60510 On ch=1 n=f#4 v=0
60512 On ch=1 n=a#3 v=64
60512 On ch=1 n=a#5 v=64
60512 On ch=1 n=c#4 v=64
60512 On ch=1 n=f#3 v=64
60512 On ch=1 n=f#5 v=64
60550 On ch=1 n=f#5 v=0
60550 On ch=1 n=f#3 v=0
60550 On ch=1 n=c#4 v=0
60550 On ch=1 n=a#3 v=0
60550 On ch=1 n=a#5 v=0
60552 On ch=1 n=c#6 v=64
60552 On ch=1 n=a#5 v=64
60552 On ch=1 n=f#4 v=64
60590 On ch=1 n=f#4 v=0
60590 On ch=1 n=c#6 v=0
60590 On ch=1 n=a#5 v=0
60592 On ch=1 n=a#3 v=64
60592 On ch=1 n=a#6 v=64
60592 On ch=1 n=f#6 v=64
60592 On ch=1 n=c#4 v=64
60592 On ch=1 n=f#3 v=64
60630 On ch=1 n=f#3 v=0
60630 On ch=1 n=c#4 v=0
60630 On ch=1 n=f#6 v=0
60630 On ch=1 n=a#6 v=0
60630 On ch=1 n=a#3 v=0
60632 On ch=1 n=a#6 v=64
60632 On ch=1 n=c#7 v=64
60632 On ch=1 n=f#4 v=64
60670 On ch=1 n=f#4 v=0
60670 On ch=1 n=c#7 v=0
60670 On ch=1 n=a#6 v=0
60672 On ch=1 n=a#3 v=64
60672 On ch=1 n=a#7 v=64
60672 On ch=1 n=c#4 v=64
60672 On ch=1 n=f#3 v=64
60672 On ch=1 n=f#7 v=64
60710 On ch=1 n=f#7 v=0
60710 On ch=1 n=f#3 v=0
60710 On ch=1 n=c#4 v=0
60710 On ch=1 n=a#7 v=0
60710 On ch=1 n=a#3 v=0
60712 On ch=1 n=a#6 v=64
60712 On ch=1 n=f#4 v=64
60712 On ch=1 n=c#7 v=64
60750 On ch=1 n=c#7 v=0
60750 On ch=1 n=f#4 v=0
60750 On ch=1 n=a#6 v=0
60752 On ch=1 n=a#3 v=64
60752 On ch=1 n=a#7 v=64
60752 On ch=1 n=c#4 v=64
60752 On ch=1 n=f#3 v=64
60752 On ch=1 n=f#7 v=64
60790 On ch=1 n=f#7 v=0
60790 On ch=1 n=f#3 v=0
60790 On ch=1 n=c#4 v=0
60790 On ch=1 n=a#7 v=0
60790 On ch=1 n=a#3 v=0
60792 On ch=1 n=f#4 v=64
60830 On ch=1 n=f#4 v=0
60832 On ch=1 n=a#3 v=64
60832 On ch=1 n=c#4 v=64
60832 On ch=1 n=f#3 v=64
60870 On ch=1 n=f#3 v=0
60870 On ch=1 n=c#4 v=0
60870 On ch=1 n=a#3 v=0
60872 On ch=1 n=f#4 v=64
60872 Par ch=1 c=64 v=0
60910 On ch=1 n=f#4 v=0
60910 On ch=1 n=a#5 v=0
60910 On ch=1 n=a#4 v=0
60912 On ch=1 n=a#3 v=64
60912 On ch=1 n=d#3 v=64
60912 On ch=1 n=a#4 v=64
60912 On ch=1 n=a#5 v=64
60912 On ch=1 n=f#3 v=64
60912 Par ch=1 c=64 v=96
60950 On ch=1 n=f#3 v=0
60950 On ch=1 n=d#3 v=0
60950 On ch=1 n=a#3 v=0
60952 On ch=1 n=d#4 v=64
60952 On ch=1 n=d#5 v=64
60990 On ch=1 n=d#5 v=0
60990 On ch=1 n=d#4 v=0
60992 On ch=1 n=d#3 v=64
60992 On ch=1 n=a#3 v=64
60992 On ch=1 n=a#5 v=64
60992 On ch=1 n=f#3 v=64
60992 On ch=1 n=f#5 v=64
61030 On ch=1 n=f#5 v=0
61030 On ch=1 n=f#3 v=0
61030 On ch=1 n=a#3 v=0
61030 On ch=1 n=d#3 v=0
61030 On ch=1 n=a#5 v=0
61032 On ch=1 n=d#4 v=64
61032 On ch=1 n=d#6 v=64
61032 On ch=1 n=a#5 v=64
61070 On ch=1 n=d#6 v=0
61070 On ch=1 n=d#4 v=0
61070 On ch=1 n=a#5 v=0
61072 On ch=1 n=d#3 v=64
61072 On ch=1 n=a#3 v=64
61072 On ch=1 n=a#6 v=64
61072 On ch=1 n=f#3 v=64
61072 On ch=1 n=f#6 v=64
61110 On ch=1 n=f#6 v=0
61110 On ch=1 n=f#3 v=0
61110 On ch=1 n=a#6 v=0
61110 On ch=1 n=a#3 v=0
61110 On ch=1 n=d#3 v=0
61112 On ch=1 n=d#4 v=64
61112 On ch=1 n=d#7 v=64
61112 On ch=1 n=a#6 v=64
61150 On ch=1 n=a#6 v=0
61150 On ch=1 n=d#7 v=0
61150 On ch=1 n=d#4 v=0
61152 On ch=1 n=d#3 v=64
61152 On ch=1 n=a#3 v=64
61152 On ch=1 n=a#7 v=64
61152 On ch=1 n=f#3 v=64
61152 On ch=1 n=f#7 v=64
61190 On ch=1 n=f#7 v=0
61190 On ch=1 n=f#3 v=0
61190 On ch=1 n=a#7 v=0
61190 On ch=1 n=a#3 v=0
61190 On ch=1 n=d#3 v=0
61192 On ch=1 n=d#4 v=64
61192 On ch=1 n=a#6 v=64
61192 On ch=1 n=d#7 v=64
61230 On ch=1 n=d#7 v=0
61230 On ch=1 n=a#6 v=0
61230 On ch=1 n=d#4 v=0
61232 On ch=1 n=d#3 v=64
61232 On ch=1 n=a#3 v=64
61232 On ch=1 n=a#7 v=64
61232 On ch=1 n=f#3 v=64
61232 On ch=1 n=f#7 v=64
61270 On ch=1 n=f#7 v=0
61270 On ch=1 n=f#3 v=0
61270 On ch=1 n=a#7 v=0
61270 On ch=1 n=a#3 v=0
61270 On ch=1 n=d#3 v=0
61272 On ch=1 n=d#4 v=64
61310 On ch=1 n=d#4 v=0
61312 On ch=1 n=d#3 v=64
61312 On ch=1 n=a#3 v=64
61312 On ch=1 n=f#3 v=64
61350 On ch=1 n=f#3 v=0
61350 On ch=1 n=a#3 v=0
61350 On ch=1 n=d#3 v=0
61352 On ch=1 n=d#4 v=64
61352 Par ch=1 c=64 v=0
61390 On ch=1 n=d#4 v=0
61390 On ch=1 n=a#5 v=0
61390 On ch=1 n=a#4 v=0
61392 On ch=1 n=d#3 v=64
61392 On ch=1 n=b4 v=64
61392 On ch=1 n=b5 v=64
61392 On ch=1 n=b2 v=64
61392 On ch=1 n=f#3 v=64
61392 Par ch=1 c=64 v=96
61430 On ch=1 n=f#3 v=0
61430 On ch=1 n=b2 v=0
61430 On ch=1 n=d#3 v=0
61432 On ch=1 n=d#5 v=64
61432 On ch=1 n=b3 v=64
61470 On ch=1 n=b3 v=0
61470 On ch=1 n=d#5 v=0
61472 On ch=1 n=d#3 v=64
61472 On ch=1 n=b2 v=64
61472 On ch=1 n=f#3 v=64
61472 On ch=1 n=b5 v=64
61472 On ch=1 n=f#5 v=64
61510 On ch=1 n=f#5 v=0
61510 On ch=1 n=f#3 v=0
61510 On ch=1 n=b2 v=0
61510 On ch=1 n=d#3 v=0
61510 On ch=1 n=b5 v=0
61512 On ch=1 n=d#6 v=64
61512 On ch=1 n=b3 v=64
61512 On ch=1 n=b5 v=64
61550 On ch=1 n=b3 v=0
61550 On ch=1 n=d#6 v=0
61550 On ch=1 n=b5 v=0
61552 On ch=1 n=d#3 v=64
61552 On ch=1 n=b2 v=64
61552 On ch=1 n=f#3 v=64
61552 On ch=1 n=b6 v=64
61552 On ch=1 n=f#6 v=64
61590 On ch=1 n=f#6 v=0
61590 On ch=1 n=b6 v=0
61590 On ch=1 n=f#3 v=0
61590 On ch=1 n=b2 v=0
61590 On ch=1 n=d#3 v=0
61592 On ch=1 n=d#7 v=64
61592 On ch=1 n=b3 v=64
61592 On ch=1 n=b6 v=64
61630 On ch=1 n=b6 v=0
61630 On ch=1 n=b3 v=0
61630 On ch=1 n=d#7 v=0
61632 On ch=1 n=d#3 v=64
61632 On ch=1 n=b2 v=64
61632 On ch=1 n=f#3 v=64
61632 On ch=1 n=f#7 v=64
61632 On ch=1 n=b7 v=64
61670 On ch=1 n=b7 v=0
61670 On ch=1 n=f#7 v=0
61670 On ch=1 n=f#3 v=0
61670 On ch=1 n=b2 v=0
61670 On ch=1 n=d#3 v=0
61672 On ch=1 n=d#7 v=64
61672 On ch=1 n=b3 v=64
61672 On ch=1 n=b6 v=64
61710 On ch=1 n=b6 v=0
61710 On ch=1 n=b3 v=0
61710 On ch=1 n=d#7 v=0
61712 On ch=1 n=d#3 v=64
61712 On ch=1 n=b2 v=64
61712 On ch=1 n=f#3 v=64
61712 On ch=1 n=f#7 v=64
61712 On ch=1 n=b7 v=64
61750 On ch=1 n=b7 v=0
61750 On ch=1 n=f#7 v=0
61750 On ch=1 n=f#3 v=0
61750 On ch=1 n=b2 v=0
61750 On ch=1 n=d#3 v=0
61752 On ch=1 n=b3 v=64
61790 On ch=1 n=b3 v=0
61792 On ch=1 n=d#3 v=64
61792 On ch=1 n=b2 v=64
61792 On ch=1 n=f#3 v=64
61830 On ch=1 n=f#3 v=0
61830 On ch=1 n=b2 v=0
61830 On ch=1 n=d#3 v=0
61832 On ch=1 n=b3 v=64
61832 Par ch=1 c=64 v=0
61870 On ch=1 n=b3 v=0
61870 On ch=1 n=b5 v=0
61870 On ch=1 n=b4 v=0
61872 Par ch=1 c=7 v=110
61872 On ch=1 n=a#2 v=64
61872 On ch=1 n=c#3 v=64
61872 On ch=1 n=f#2 v=64
61872 On ch=1 n=c#5 v=64
61872 On ch=1 n=c#6 v=64
61872 Par ch=1 c=64 v=96
61910 On ch=1 n=f#2 v=0
61910 On ch=1 n=c#3 v=0
61910 On ch=1 n=a#2 v=0
61912 On ch=1 n=f#3 v=64
61912 On ch=1 n=f#5 v=64
61919 Par ch=1 c=7 v=111
61950 On ch=1 n=f#5 v=0
61950 On ch=1 n=f#3 v=0
61952 On ch=1 n=a#2 v=64
61952 On ch=1 n=a#5 v=64
61952 On ch=1 n=c#3 v=64
61952 On ch=1 n=f#2 v=64
61952 On ch=1 n=c#6 v=64
61967 Par ch=1 c=7 v=112
61990 On ch=1 n=f#2 v=0
61990 On ch=1 n=c#3 v=0
61990 On ch=1 n=a#5 v=0
61990 On ch=1 n=a#2 v=0
61990 On ch=1 n=c#6 v=0
61992 On ch=1 n=c#6 v=64
61992 On ch=1 n=f#3 v=64
61992 On ch=1 n=f#6 v=64
62015 Par ch=1 c=7 v=113
62030 On ch=1 n=f#6 v=0
62030 On ch=1 n=f#3 v=0
62030 On ch=1 n=c#6 v=0
62032 On ch=1 n=a#2 v=64
62032 On ch=1 n=a#6 v=64
62032 On ch=1 n=c#3 v=64
62032 On ch=1 n=f#2 v=64
62032 On ch=1 n=c#7 v=64
62063 Par ch=1 c=7 v=114
62070 On ch=1 n=c#7 v=0
62070 On ch=1 n=f#2 v=0
62070 On ch=1 n=c#3 v=0
62070 On ch=1 n=a#6 v=0
62070 On ch=1 n=a#2 v=0
62072 On ch=1 n=c#7 v=64
62072 On ch=1 n=f#3 v=64
62072 On ch=1 n=f#7 v=64
62110 On ch=1 n=f#7 v=0
62110 On ch=1 n=f#3 v=0
62110 On ch=1 n=c#7 v=0
62111 Par ch=1 c=7 v=115
62112 On ch=1 n=a#2 v=64
62112 On ch=1 n=a#7 v=64
62112 On ch=1 n=c#3 v=64
62112 On ch=1 n=f#2 v=64
62112 On ch=1 n=c#8 v=64
62150 On ch=1 n=c#8 v=0
62150 On ch=1 n=f#2 v=0
62150 On ch=1 n=c#3 v=0
62150 On ch=1 n=a#7 v=0
62150 On ch=1 n=a#2 v=0
62152 On ch=1 n=c#7 v=64
62152 On ch=1 n=f#3 v=64
62152 On ch=1 n=f#7 v=64
62159 Par ch=1 c=7 v=116
62190 On ch=1 n=f#7 v=0
62190 On ch=1 n=f#3 v=0
62190 On ch=1 n=c#7 v=0
62192 On ch=1 n=a#2 v=64
62192 On ch=1 n=a#7 v=64
62192 On ch=1 n=c#3 v=64
62192 On ch=1 n=f#2 v=64
62192 On ch=1 n=c#8 v=64
62207 Par ch=1 c=7 v=117
62230 On ch=1 n=c#8 v=0
62230 On ch=1 n=f#2 v=0
62230 On ch=1 n=c#3 v=0
62230 On ch=1 n=a#7 v=0
62230 On ch=1 n=a#2 v=0
62232 On ch=1 n=c#7 v=64
62232 On ch=1 n=f#3 v=64
62232 On ch=1 n=f#7 v=64
62255 Par ch=1 c=7 v=118
62270 On ch=1 n=f#7 v=0
62270 On ch=1 n=f#3 v=0
62270 On ch=1 n=c#7 v=0
62272 On ch=1 n=a#2 v=64
62272 On ch=1 n=a#7 v=64
62272 On ch=1 n=c#3 v=64
62272 On ch=1 n=f#2 v=64
62272 On ch=1 n=c#8 v=64
62303 Par ch=1 c=7 v=119
62310 On ch=1 n=c#8 v=0
62310 On ch=1 n=f#2 v=0
62310 On ch=1 n=c#3 v=0
62310 On ch=1 n=a#7 v=0
62310 On ch=1 n=a#2 v=0
62312 On ch=1 n=f#7 v=64
62312 On ch=1 n=c#7 v=64
62312 On ch=1 n=f#3 v=64
62350 On ch=1 n=c#6 v=0
62350 On ch=1 n=c#5 v=0
62351 Par ch=1 c=7 v=120
62352 On ch=1 n=a#2 v=64
62352 On ch=1 n=c#3 v=64
62352 On ch=1 n=f#2 v=64
62352 On ch=1 n=a#7 v=64
62352 On ch=1 n=c#8 v=64
62552 Par ch=1 c=64 v=0
62590 On ch=1 n=c#8 v=0
62590 On ch=1 n=a#7 v=0
62590 On ch=1 n=f#2 v=0
62590 On ch=1 n=c#3 v=0
62590 On ch=1 n=a#2 v=0
62590 On ch=1 n=f#3 v=0
62590 On ch=1 n=c#7 v=0
62590 On ch=1 n=f#7 v=0
62592 Par ch=1 c=7 v=120
62592 On ch=1 n=c#5 v=64
62592 On ch=1 n=c#6 v=64
62592 Par ch=1 c=64 v=96
62620 Par ch=1 c=7 v=119
62649 Par ch=1 c=7 v=118
62678 Par ch=1 c=7 v=117
62707 Par ch=1 c=7 v=116
62735 Par ch=1 c=7 v=115
62764 Par ch=1 c=7 v=114
62770 On ch=1 n=c#6 v=0
62770 On ch=1 n=c#5 v=0
62772 On ch=1 n=c#5 v=64
62772 On ch=1 n=c#6 v=64
62793 Par ch=1 c=7 v=113
62822 Par ch=1 c=7 v=112
62830 On ch=1 n=c#6 v=0
62830 On ch=1 n=c#5 v=0
62832 On ch=1 n=c#5 v=64
62832 On ch=1 n=c#6 v=64
62850 Par ch=1 c=7 v=111
62879 Par ch=1 c=7 v=110
62908 Par ch=1 c=7 v=109
62937 Par ch=1 c=7 v=108
62965 Par ch=1 c=7 v=107
62994 Par ch=1 c=7 v=106
63023 Par ch=1 c=7 v=105
63052 Par ch=1 c=7 v=104
63070 On ch=1 n=c#6 v=0
63070 On ch=1 n=c#5 v=0
63072 On ch=1 n=c#5 v=64
63072 On ch=1 n=c#6 v=64
63080 Par ch=1 c=7 v=103
63109 Par ch=1 c=7 v=102
63138 Par ch=1 c=7 v=101
63167 Par ch=1 c=7 v=100
63195 Par ch=1 c=7 v=99
63224 Par ch=1 c=7 v=98
63253 Par ch=1 c=7 v=97
63272 Par ch=1 c=64 v=0
63282 Par ch=1 c=7 v=96
63310 On ch=1 n=c#6 v=0
63310 On ch=1 n=c#5 v=0
63311 Par ch=1 c=7 v=95
63312 On ch=1 n=c5 v=64
63312 On ch=1 n=f#4 v=64
63312 On ch=1 n=d4 v=64
63312 On ch=1 n=a3 v=64
63312 On ch=1 n=d5 v=64
63312 On ch=1 n=d6 v=64
63312 Par ch=1 c=64 v=96
63352 On ch=1 n=f#5 v=64
63390 On ch=1 n=f#5 v=0
63392 On ch=1 n=c6 v=64
63430 On ch=1 n=c6 v=0
63432 On ch=1 n=d6 v=64
63470 On ch=1 n=d6 v=0
63472 On ch=1 n=f#6 v=64
63510 On ch=1 n=f#6 v=0
63512 On ch=1 n=c7 v=64
63550 On ch=1 n=c7 v=0
63550 On ch=1 n=a3 v=0
63550 On ch=1 n=d4 v=0
63550 On ch=1 n=f#4 v=0
63550 On ch=1 n=c5 v=0
63552 On ch=1 n=a2 v=64
63552 On ch=1 n=d7 v=64
63560 On ch=1 n=d3 v=65
63566 On ch=1 n=f#3 v=64
63590 On ch=1 n=d7 v=0
63592 On ch=1 n=c7 v=64
63630 On ch=1 n=c7 v=0
63632 On ch=1 n=f#6 v=64
63670 On ch=1 n=f#6 v=0
63672 On ch=1 n=d6 v=64
63710 On ch=1 n=d6 v=0
63712 On ch=1 n=c6 v=64
63750 On ch=1 n=c6 v=0
63752 On ch=1 n=f#5 v=64
63752 Par ch=1 c=64 v=0
63790 On ch=1 n=f#5 v=0
63790 On ch=1 n=d6 v=0
63790 On ch=1 n=f#3 v=0
63790 On ch=1 n=a2 v=0
63790 On ch=1 n=d5 v=0
63792 On ch=1 n=d3 v=0
63792 On ch=1 n=c5 v=64
63792 On ch=1 n=f#4 v=64
63792 On ch=1 n=d4 v=64
63792 On ch=1 n=a3 v=64
63792 On ch=1 n=c#5 v=64
63792 On ch=1 n=c#6 v=64
63792 Par ch=1 c=64 v=96
63832 On ch=1 n=f#5 v=64
63870 On ch=1 n=f#5 v=0
63872 On ch=1 n=c6 v=64
63910 On ch=1 n=c6 v=0
63912 On ch=1 n=c#6 v=64
63950 On ch=1 n=c#6 v=0
63952 On ch=1 n=f#6 v=64
63990 On ch=1 n=f#6 v=0
63992 On ch=1 n=c#7 v=64
64030 On ch=1 n=c#7 v=0
64030 On ch=1 n=c#6 v=0
64030 On ch=1 n=c#5 v=0
64030 On ch=1 n=a3 v=0
64030 On ch=1 n=d4 v=0
64030 On ch=1 n=f#4 v=0
64030 On ch=1 n=c5 v=0
64032 Par ch=1 c=7 v=95
64032 On ch=1 n=a2 v=64
64032 On ch=1 n=d5 v=64
64032 On ch=1 n=d6 v=64
64042 On ch=1 n=d3 v=65
64049 On ch=1 n=f#3 v=64
64072 On ch=1 n=f#5 v=64
64110 On ch=1 n=f#5 v=0
64112 On ch=1 n=c6 v=64
64150 On ch=1 n=c6 v=0
64152 On ch=1 n=d6 v=64
64175 Par ch=1 c=7 v=96
64190 On ch=1 n=d6 v=0
64192 On ch=1 n=f#6 v=64
64230 On ch=1 n=f#6 v=0
64232 On ch=1 n=d7 v=64
64232 Par ch=1 c=64 v=0
64270 On ch=1 n=d7 v=0
64270 On ch=1 n=d6 v=0
64270 On ch=1 n=d5 v=0
64270 On ch=1 n=a2 v=0
64272 On ch=1 n=c5 v=64
64272 On ch=1 n=f#4 v=64
64272 On ch=1 n=d4 v=64
64272 On ch=1 n=a3 v=64
64272 On ch=1 n=d#6 v=64
64272 On ch=1 n=d#5 v=64
64272 Par ch=1 c=64 v=96
64273 On ch=1 n=f#3 v=0
64274 On ch=1 n=d3 v=0
64312 On ch=1 n=f#5 v=64
64319 Par ch=1 c=7 v=97
64350 On ch=1 n=f#5 v=0
64352 On ch=1 n=c6 v=64
64390 On ch=1 n=c6 v=0
64392 On ch=1 n=d#6 v=64
64430 On ch=1 n=d#6 v=0
64432 On ch=1 n=f#6 v=64
64463 Par ch=1 c=7 v=98
64470 On ch=1 n=f#6 v=0
64472 On ch=1 n=d#7 v=64
64510 On ch=1 n=d#7 v=0
64510 On ch=1 n=d#6 v=0
64510 On ch=1 n=d#5 v=0
64510 On ch=1 n=a3 v=0
64510 On ch=1 n=d4 v=0
64510 On ch=1 n=f#4 v=0
64510 On ch=1 n=c5 v=0
64512 On ch=1 n=a2 v=64
64512 On ch=1 n=d5 v=64
64512 On ch=1 n=d6 v=64
64522 On ch=1 n=d3 v=65
64527 On ch=1 n=f#3 v=64
64552 On ch=1 n=f#5 v=64
64590 On ch=1 n=f#5 v=0
64592 On ch=1 n=c6 v=64
64607 Par ch=1 c=7 v=99
64630 On ch=1 n=c6 v=0
64632 On ch=1 n=d6 v=64
64670 On ch=1 n=d6 v=0
64672 On ch=1 n=f#6 v=64
64710 On ch=1 n=f#6 v=0
64712 On ch=1 n=d7 v=64
64712 Par ch=1 c=64 v=0
64750 On ch=1 n=d7 v=0
64750 On ch=1 n=d6 v=0
64750 On ch=1 n=d5 v=0
64750 On ch=1 n=a2 v=0
64751 Par ch=1 c=7 v=100
64752 On ch=1 n=f#3 v=0
64752 On ch=1 n=d3 v=0
64752 On ch=1 n=b4 v=64
64752 On ch=1 n=d4 v=64
64752 On ch=1 n=g3 v=64
64752 On ch=1 n=b5 v=64
64752 On ch=1 n=b6 v=64
64752 Par ch=1 c=64 v=96
64792 On ch=1 n=d6 v=64
64830 On ch=1 n=d6 v=0
64832 On ch=1 n=g6 v=64
64870 On ch=1 n=g6 v=0
64872 On ch=1 n=b6 v=64
64910 On ch=1 n=b6 v=0
64912 On ch=1 n=d7 v=64
64950 On ch=1 n=d7 v=0
64952 On ch=1 n=g7 v=64
64990 On ch=1 n=g7 v=0
64990 On ch=1 n=g3 v=0
64990 On ch=1 n=d4 v=0
64990 On ch=1 n=b4 v=0
64992 On ch=1 n=b7 v=64
64992 On ch=1 n=d3 v=64
64992 On ch=1 n=g2 v=64
65030 On ch=1 n=b7 v=0
65032 On ch=1 n=d7 v=64
65070 On ch=1 n=d7 v=0
65072 On ch=1 n=b6 v=64
65110 On ch=1 n=b6 v=0
65112 On ch=1 n=g6 v=64
65150 On ch=1 n=g6 v=0
65152 On ch=1 n=d6 v=64
65190 On ch=1 n=d6 v=0
65192 On ch=1 n=b5 v=64
65192 Par ch=1 c=64 v=0
65230 On ch=1 n=b5 v=0
65230 On ch=1 n=b6 v=0
65230 On ch=1 n=g2 v=0
65230 On ch=1 n=d3 v=0
65230 On ch=1 n=b5 v=0
65232 Tempo 1363636
65232 On ch=1 n=g4 v=64
65232 On ch=1 n=b3 v=64
65232 On ch=1 n=e3 v=64
65232 On ch=1 n=g6 v=64
65232 On ch=1 n=b5 v=64
65232 On ch=1 n=g5 v=64
65232 Par ch=1 c=64 v=96
65280 On ch=1 n=e6 v=64
65326 On ch=1 n=e6 v=0
65328 On ch=1 n=g6 v=64
65374 On ch=1 n=g6 v=0
65376 On ch=1 n=b6 v=64
65422 On ch=1 n=b6 v=0
65424 On ch=1 n=g7 v=64
65470 On ch=1 n=g7 v=0
65470 On ch=1 n=g6 v=0
65470 On ch=1 n=g5 v=0
65470 On ch=1 n=b5 v=0
65470 On ch=1 n=e3 v=0
65470 On ch=1 n=b3 v=0
65470 On ch=1 n=g4 v=0
65472 On ch=1 n=b4 v=64
65472 On ch=1 n=g4 v=64
65472 On ch=1 n=e6 v=64
65472 On ch=1 n=g5 v=64
65472 On ch=1 n=e5 v=64
65520 On ch=1 n=b5 v=64
65566 On ch=1 n=b5 v=0
65568 On ch=1 n=e6 v=64
65614 On ch=1 n=e6 v=0
65616 On ch=1 n=g6 v=64
65662 On ch=1 n=g6 v=0
65664 On ch=1 n=e7 v=64
65672 Par ch=1 c=64 v=0
65710 On ch=1 n=e7 v=0
65710 On ch=1 n=e6 v=0
65710 On ch=1 n=e5 v=0
65710 On ch=1 n=g5 v=0
65710 On ch=1 n=g4 v=0
65710 On ch=1 n=b4 v=0
65712 On ch=1 n=g3 v=64
65712 On ch=1 n=c6 v=64
65712 On ch=1 n=c5 v=64
65712 On ch=1 n=d#3 v=64
65712 On ch=1 n=d#4 v=64
65712 On ch=1 n=d#5 v=64
65712 Par ch=1 c=64 v=96
65760 On ch=1 n=g5 v=64
65806 On ch=1 n=g5 v=0
65808 On ch=1 n=c6 v=64
65854 On ch=1 n=c6 v=0
65856 On ch=1 n=d#6 v=64
65902 On ch=1 n=d#6 v=0
65904 On ch=1 n=c7 v=64
65950 On ch=1 n=c7 v=0
65950 On ch=1 n=c6 v=0
65950 On ch=1 n=d#5 v=0
65950 On ch=1 n=d#4 v=0
65950 On ch=1 n=d#3 v=0
65950 On ch=1 n=c5 v=0
65950 On ch=1 n=g3 v=0
65952 On ch=1 n=g4 v=64
65952 On ch=1 n=a5 v=64
65952 On ch=1 n=c5 v=64
65952 On ch=1 n=a4 v=64
65952 On ch=1 n=d#4 v=64
66000 On ch=1 n=d#5 v=64
66046 On ch=1 n=d#5 v=0
66048 On ch=1 n=a5 v=64
66094 On ch=1 n=a5 v=0
66096 On ch=1 n=c6 v=64
66142 On ch=1 n=c6 v=0
66144 On ch=1 n=a6 v=64
66152 Par ch=1 c=64 v=0
66190 On ch=1 n=a6 v=0
66190 On ch=1 n=a5 v=0
66190 On ch=1 n=d#4 v=0
66190 On ch=1 n=a4 v=0
66190 On ch=1 n=c5 v=0
66190 On ch=1 n=g4 v=0
66192 On ch=1 n=d4 v=64
66192 On ch=1 n=g3 v=64
66192 On ch=1 n=d3 v=64
66192 On ch=1 n=g5 v=64
66192 On ch=1 n=b4 v=64
66192 On ch=1 n=g4 v=64
66192 Par ch=1 c=64 v=96
66240 On ch=1 n=d5 v=64
66286 On ch=1 n=d5 v=0
66288 On ch=1 n=g5 v=64
66334 On ch=1 n=g5 v=0
66336 On ch=1 n=b5 v=64
66382 On ch=1 n=b5 v=0
66384 On ch=1 n=g6 v=64
66430 On ch=1 n=g6 v=0
66430 On ch=1 n=g5 v=0
66430 On ch=1 n=g4 v=0
66430 On ch=1 n=b4 v=0
66430 On ch=1 n=d3 v=0
66430 On ch=1 n=g3 v=0
66430 On ch=1 n=d4 v=0
66432 On ch=1 n=g4 v=64
66432 On ch=1 n=d4 v=64
66432 On ch=1 n=b3 v=64
66432 On ch=1 n=b5 v=64
66432 On ch=1 n=d5 v=64
66432 On ch=1 n=b4 v=64
66480 On ch=1 n=g5 v=64
66526 On ch=1 n=g5 v=0
66528 On ch=1 n=b5 v=64
66574 On ch=1 n=b5 v=0
66576 On ch=1 n=d6 v=64
66622 On ch=1 n=d6 v=0
66624 On ch=1 n=b6 v=64
66632 Par ch=1 c=64 v=0
66670 On ch=1 n=b6 v=0
66670 On ch=1 n=b5 v=0
66670 On ch=1 n=b4 v=0
66670 On ch=1 n=d5 v=0
66670 On ch=1 n=b3 v=0
66670 On ch=1 n=d4 v=0
66670 On ch=1 n=g4 v=0
66672 Tempo 1428571
66672 On ch=1 n=d4 v=64
66672 On ch=1 n=d3 v=64
66672 On ch=1 n=a#3 v=64
66672 On ch=1 n=d6 v=64
66672 On ch=1 n=g5 v=64
66672 On ch=1 n=d5 v=64
66672 Par ch=1 c=64 v=96
66712 On ch=1 n=a#5 v=64
66750 On ch=1 n=a#5 v=0
66752 On ch=1 n=d6 v=64
66790 On ch=1 n=d6 v=0
66792 On ch=1 n=g6 v=64
66830 On ch=1 n=g6 v=0
66832 On ch=1 n=a#6 v=64
66870 On ch=1 n=a#6 v=0
66872 On ch=1 n=c#7 v=64
66910 On ch=1 n=c#7 v=0
66910 On ch=1 n=a#3 v=0
66910 On ch=1 n=d3 v=0
66910 On ch=1 n=d4 v=0
66912 Tempo 1428571
66912 On ch=1 n=g4 v=64
66912 On ch=1 n=d4 v=64
66912 On ch=1 n=a#4 v=64
66912 On ch=1 n=d7 v=64
66940 On ch=1 n=d7 v=0
66942 On ch=1 n=d8 v=64
66970 On ch=1 n=d8 v=0
66972 On ch=1 n=d7 v=64
67000 On ch=1 n=d7 v=0
67002 On ch=1 n=d8 v=64
67030 On ch=1 n=d8 v=0
67032 On ch=1 n=d7 v=64
67060 On ch=1 n=d7 v=0
67062 On ch=1 n=d8 v=64
67090 On ch=1 n=d8 v=0
67091 Tempo 1463415
67092 On ch=1 n=d7 v=64
67112 Par ch=1 c=64 v=0
67120 On ch=1 n=d7 v=0
67122 On ch=1 n=d8 v=64
67150 On ch=1 n=d8 v=0
67150 On ch=1 n=a#4 v=0
67150 On ch=1 n=d4 v=0
67150 On ch=1 n=g4 v=0
67150 On ch=1 n=d6 v=0
67150 On ch=1 n=d5 v=0
67150 On ch=1 n=g5 v=0
67152 On ch=1 n=d4 v=64
67152 On ch=1 n=a3 v=64
67152 On ch=1 n=f#3 v=64
67152 On ch=1 n=d3 v=64
67152 On ch=1 n=d7 v=64
67152 Par ch=1 c=64 v=96
67180 On ch=1 n=d7 v=0
67182 On ch=1 n=d8 v=64
67210 On ch=1 n=d8 v=0
67212 On ch=1 n=c#7 v=64
67240 On ch=1 n=c#7 v=0
67242 On ch=1 n=d8 v=64
67270 On ch=1 n=d8 v=0
67271 Tempo 1500000
67272 Par ch=1 c=7 v=100
67272 On ch=1 n=d7 v=64
67300 On ch=1 n=d7 v=0
67302 On ch=1 n=d8 v=64
67330 On ch=1 n=d8 v=0
67332 On ch=1 n=d#7 v=64
67343 Par ch=1 c=7 v=101
67360 On ch=1 n=d#7 v=0
67362 On ch=1 n=d8 v=64
67390 On ch=1 n=d8 v=0
67390 On ch=1 n=d3 v=0
67390 On ch=1 n=f#3 v=0
67390 On ch=1 n=a3 v=0
67390 On ch=1 n=d4 v=0
67392 On ch=1 n=d5 v=64
67392 On ch=1 n=c5 v=64
67392 On ch=1 n=a4 v=64
67392 On ch=1 n=d4 v=64
67392 On ch=1 n=e7 v=64
67415 Par ch=1 c=7 v=102
67420 On ch=1 n=e7 v=0
67422 On ch=1 n=d8 v=64
67450 On ch=1 n=d8 v=0
67451 Tempo 1538462
67452 On ch=1 n=f7 v=64
67480 On ch=1 n=f7 v=0
67482 On ch=1 n=d8 v=64
67487 Par ch=1 c=7 v=103
67510 On ch=1 n=d8 v=0
67512 On ch=1 n=f#7 v=64
67540 On ch=1 n=f#7 v=0
67542 On ch=1 n=d8 v=64
67559 Par ch=1 c=7 v=104
67570 On ch=1 n=d8 v=0
67572 On ch=1 n=d7 v=64
67592 Par ch=1 c=64 v=0
67600 On ch=1 n=d7 v=0
67602 On ch=1 n=d8 v=64
67630 On ch=1 n=d8 v=0
67630 On ch=1 n=d4 v=0
67630 On ch=1 n=a4 v=0
67630 On ch=1 n=c5 v=0
67630 On ch=1 n=d5 v=0
67631 Tempo 1578947
67631 Par ch=1 c=7 v=105
67632 Tempo 1428571
67632 On ch=1 n=b4 v=64
67632 On ch=1 n=d4 v=64
67632 On ch=1 n=g3 v=64
67632 On ch=1 n=g7 v=64
67632 On ch=1 n=b7 v=64
67632 Par ch=1 c=64 v=96
67750 On ch=1 n=b7 v=0
67750 On ch=1 n=g7 v=0
67750 On ch=1 n=g3 v=0
67750 On ch=1 n=d4 v=0
67750 On ch=1 n=b4 v=0
67872 On ch=1 n=g3 v=64
67872 On ch=1 n=g4 v=64
67872 On ch=1 n=g5 v=64
67872 On ch=1 n=g6 v=64
68050 On ch=1 n=g6 v=0
68050 On ch=1 n=g5 v=0
68050 On ch=1 n=g4 v=0
68050 On ch=1 n=g3 v=0
68052 On ch=1 n=g6 v=64
68052 On ch=1 n=g5 v=64
68052 On ch=1 n=g4 v=64
68052 On ch=1 n=g3 v=64
68110 On ch=1 n=g3 v=0
68110 On ch=1 n=g4 v=0
68110 On ch=1 n=g5 v=0
68110 On ch=1 n=g6 v=0
68112 On ch=1 n=g3 v=64
68112 On ch=1 n=g4 v=64
68112 On ch=1 n=g5 v=64
68112 On ch=1 n=g6 v=64
68312 Par ch=1 c=64 v=0
68350 On ch=1 n=g6 v=0
68350 On ch=1 n=g5 v=0
68350 On ch=1 n=g4 v=0
68350 On ch=1 n=g3 v=0
68352 Par ch=1 c=7 v=105
68352 On ch=1 n=b3 v=64
68352 On ch=1 n=b5 v=64
68352 On ch=1 n=g3 v=64
68352 On ch=1 n=g4 v=64
68352 On ch=1 n=g5 v=64
68352 On ch=1 n=g6 v=64
68352 Par ch=1 c=64 v=96
68399 Par ch=1 c=7 v=104
68447 Par ch=1 c=7 v=103
68495 Par ch=1 c=7 v=102
68543 Par ch=1 c=7 v=101
68590 On ch=1 n=g6 v=0
68590 On ch=1 n=g5 v=0
68590 On ch=1 n=g4 v=0
68590 On ch=1 n=g3 v=0
68590 On ch=1 n=b5 v=0
68590 On ch=1 n=b3 v=0
68591 Par ch=1 c=7 v=100
68592 On ch=1 n=d4 v=64
68592 On ch=1 n=d6 v=64
68592 On ch=1 n=g3 v=64
68592 On ch=1 n=g4 v=64
68592 On ch=1 n=g5 v=64
68592 On ch=1 n=g6 v=64
68639 Par ch=1 c=7 v=99
68687 Par ch=1 c=7 v=98
68735 Par ch=1 c=7 v=97
68783 Par ch=1 c=7 v=96
68830 On ch=1 n=g6 v=0
68830 On ch=1 n=g5 v=0
68830 On ch=1 n=g4 v=0
68830 On ch=1 n=g3 v=0
68830 On ch=1 n=d6 v=0
68830 On ch=1 n=d4 v=0
68831 Par ch=1 c=7 v=95
68832 On ch=1 n=g3 v=64
68832 On ch=1 n=g4 v=64
68832 On ch=1 n=g5 v=64
68832 On ch=1 n=g6 v=64
68879 Par ch=1 c=7 v=94
68927 Par ch=1 c=7 v=93
68975 Par ch=1 c=7 v=92
69023 Par ch=1 c=7 v=91
69032 Par ch=1 c=64 v=0
69070 On ch=1 n=g6 v=0
69070 On ch=1 n=g5 v=0
69070 On ch=1 n=g4 v=0
69070 On ch=1 n=g3 v=0
69071 Par ch=1 c=7 v=90
69072 Par ch=1 c=7 v=90
69072 On ch=1 n=g4 v=64
69072 On ch=1 n=g5 v=64
69072 On ch=1 n=g3 v=64
69072 On ch=1 n=a#3 v=64
69072 On ch=1 n=d#3 v=64
69072 Par ch=1 c=64 v=96
69110 On ch=1 n=d#3 v=0
69110 On ch=1 n=a#3 v=0
69110 On ch=1 n=g3 v=0
69112 On ch=1 n=d#4 v=64
69112 On ch=1 n=a#4 v=64
69119 Par ch=1 c=7 v=91
69150 On ch=1 n=a#4 v=0
69150 On ch=1 n=d#4 v=0
69152 On ch=1 n=g3 v=64
69152 On ch=1 n=g5 v=64
69152 On ch=1 n=a#3 v=64
69152 On ch=1 n=d#3 v=64
69152 On ch=1 n=d#5 v=64
69167 Par ch=1 c=7 v=92
69190 On ch=1 n=d#5 v=0
69190 On ch=1 n=d#3 v=0
69190 On ch=1 n=a#3 v=0
69190 On ch=1 n=g3 v=0
69190 On ch=1 n=g5 v=0
69192 On ch=1 n=a#5 v=64
69192 On ch=1 n=g5 v=64
69192 On ch=1 n=d#4 v=64
69215 Par ch=1 c=7 v=93
69230 On ch=1 n=d#4 v=0
69230 On ch=1 n=a#5 v=0
69230 On ch=1 n=g5 v=0
69232 On ch=1 n=g3 v=64
69232 On ch=1 n=g6 v=64
69232 On ch=1 n=d#6 v=64
69232 On ch=1 n=a#3 v=64
69232 On ch=1 n=d#3 v=64
69263 Par ch=1 c=7 v=94
69270 On ch=1 n=d#3 v=0
69270 On ch=1 n=a#3 v=0
69270 On ch=1 n=d#6 v=0
69270 On ch=1 n=g6 v=0
69270 On ch=1 n=g3 v=0
69272 On ch=1 n=g6 v=64
69272 On ch=1 n=a#6 v=64
69272 On ch=1 n=d#4 v=64
69310 On ch=1 n=d#4 v=0
69310 On ch=1 n=a#6 v=0
69310 On ch=1 n=g6 v=0
69311 Par ch=1 c=7 v=95
69312 On ch=1 n=g3 v=64
69312 On ch=1 n=g7 v=64
69312 On ch=1 n=a#3 v=64
69312 On ch=1 n=d#3 v=64
69312 On ch=1 n=d#7 v=64
69350 On ch=1 n=d#7 v=0
69350 On ch=1 n=d#3 v=0
69350 On ch=1 n=a#3 v=0
69350 On ch=1 n=g7 v=0
69350 On ch=1 n=g3 v=0
69352 On ch=1 n=g6 v=64
69352 On ch=1 n=d#4 v=64
69352 On ch=1 n=a#6 v=64
69359 Par ch=1 c=7 v=96
69390 On ch=1 n=a#6 v=0
69390 On ch=1 n=d#4 v=0
69390 On ch=1 n=g6 v=0
69392 On ch=1 n=g3 v=64
69392 On ch=1 n=g7 v=64
69392 On ch=1 n=a#3 v=64
69392 On ch=1 n=d#3 v=64
69392 On ch=1 n=d#7 v=64
69407 Par ch=1 c=7 v=97
69430 On ch=1 n=d#7 v=0
69430 On ch=1 n=d#3 v=0
69430 On ch=1 n=a#3 v=0
69430 On ch=1 n=g7 v=0
69430 On ch=1 n=g3 v=0
69432 On ch=1 n=g6 v=64
69432 On ch=1 n=a#6 v=64
69432 On ch=1 n=d#4 v=64
69455 Par ch=1 c=7 v=98
69470 On ch=1 n=d#4 v=0
69470 On ch=1 n=a#6 v=0
69470 On ch=1 n=g6 v=0
69472 On ch=1 n=g7 v=64
69472 On ch=1 n=d#7 v=64
69472 On ch=1 n=g3 v=64
69472 On ch=1 n=a#3 v=64
69472 On ch=1 n=d#3 v=64
69503 Par ch=1 c=7 v=99
69510 On ch=1 n=d#3 v=0
69510 On ch=1 n=a#3 v=0
69510 On ch=1 n=g3 v=0
69510 On ch=1 n=d#7 v=0
69510 On ch=1 n=g7 v=0
69512 On ch=1 n=d#4 v=64
69512 Par ch=1 c=64 v=0
69550 On ch=1 n=d#4 v=0
69550 On ch=1 n=g5 v=0
69550 On ch=1 n=g4 v=0
69551 Par ch=1 c=7 v=100
69552 Par ch=1 c=7 v=90
69552 On ch=1 n=g3 v=64
69552 On ch=1 n=c3 v=64
69552 On ch=1 n=g4 v=64
69552 On ch=1 n=g5 v=64
69552 On ch=1 n=d#3 v=64
69552 Par ch=1 c=64 v=96
69590 On ch=1 n=d#3 v=0
69590 On ch=1 n=c3 v=0
69590 On ch=1 n=g3 v=0
69592 On ch=1 n=c4 v=64
69592 On ch=1 n=c5 v=64
69599 Par ch=1 c=7 v=91
69630 On ch=1 n=c5 v=0
69630 On ch=1 n=c4 v=0
69632 On ch=1 n=c3 v=64
69632 On ch=1 n=g3 v=64
69632 On ch=1 n=g5 v=64
69632 On ch=1 n=d#3 v=64
69632 On ch=1 n=d#5 v=64
69647 Par ch=1 c=7 v=92
69670 On ch=1 n=d#5 v=0
69670 On ch=1 n=d#3 v=0
69670 On ch=1 n=g3 v=0
69670 On ch=1 n=c3 v=0
69670 On ch=1 n=g5 v=0
69672 On ch=1 n=c4 v=64
69672 On ch=1 n=c6 v=64
69672 On ch=1 n=g5 v=64
69695 Par ch=1 c=7 v=93
69710 On ch=1 n=c6 v=0
69710 On ch=1 n=c4 v=0
69710 On ch=1 n=g5 v=0
69712 On ch=1 n=c3 v=64
69712 On ch=1 n=g3 v=64
69712 On ch=1 n=g6 v=64
69712 On ch=1 n=d#3 v=64
69712 On ch=1 n=d#6 v=64
69743 Par ch=1 c=7 v=94
69750 On ch=1 n=d#6 v=0
69750 On ch=1 n=d#3 v=0
69750 On ch=1 n=g6 v=0
69750 On ch=1 n=g3 v=0
69750 On ch=1 n=c3 v=0
69752 On ch=1 n=c4 v=64
69752 On ch=1 n=c7 v=64
69752 On ch=1 n=g6 v=64
69790 On ch=1 n=g6 v=0
69790 On ch=1 n=c7 v=0
69790 On ch=1 n=c4 v=0
69791 Par ch=1 c=7 v=95
69792 On ch=1 n=c3 v=64
69792 On ch=1 n=g3 v=64
69792 On ch=1 n=g7 v=64
69792 On ch=1 n=d#3 v=64
69792 On ch=1 n=d#7 v=64
69830 On ch=1 n=d#7 v=0
69830 On ch=1 n=d#3 v=0
69830 On ch=1 n=g7 v=0
69830 On ch=1 n=g3 v=0
69830 On ch=1 n=c3 v=0
69832 On ch=1 n=c4 v=64
69832 On ch=1 n=g6 v=64
69832 On ch=1 n=c7 v=64
69839 Par ch=1 c=7 v=96
69870 On ch=1 n=c7 v=0
69870 On ch=1 n=g6 v=0
69870 On ch=1 n=c4 v=0
69872 On ch=1 n=c3 v=64
69872 On ch=1 n=g3 v=64
69872 On ch=1 n=g7 v=64
69872 On ch=1 n=d#3 v=64
69872 On ch=1 n=d#7 v=64
69887 Par ch=1 c=7 v=97
69910 On ch=1 n=d#7 v=0
69910 On ch=1 n=d#3 v=0
69910 On ch=1 n=g7 v=0
69910 On ch=1 n=g3 v=0
69910 On ch=1 n=c3 v=0
69912 On ch=1 n=c7 v=64
69912 On ch=1 n=g6 v=64
69912 On ch=1 n=c4 v=64
69935 Par ch=1 c=7 v=98
69950 On ch=1 n=c4 v=0
69950 On ch=1 n=g6 v=0
69950 On ch=1 n=c7 v=0
69952 On ch=1 n=g7 v=64
69952 On ch=1 n=d#7 v=64
69952 On ch=1 n=c3 v=64
69952 On ch=1 n=g3 v=64
69952 On ch=1 n=d#3 v=64
69983 Par ch=1 c=7 v=99
69990 On ch=1 n=d#3 v=0
69990 On ch=1 n=g3 v=0
69990 On ch=1 n=c3 v=0
69990 On ch=1 n=d#7 v=0
69990 On ch=1 n=g7 v=0
69992 On ch=1 n=c4 v=64
69992 Par ch=1 c=64 v=0
70030 On ch=1 n=c4 v=0
70030 On ch=1 n=g5 v=0
70030 On ch=1 n=g4 v=0
70031 Par ch=1 c=7 v=100
70032 Par ch=1 c=7 v=90
70032 On ch=1 n=c3 v=64
70032 On ch=1 n=g#4 v=64
70032 On ch=1 n=g#5 v=64
70032 On ch=1 n=g#2 v=64
70032 On ch=1 n=d#3 v=64
70032 Par ch=1 c=64 v=96
70070 On ch=1 n=d#3 v=0
70070 On ch=1 n=g#2 v=0
70070 On ch=1 n=c3 v=0
70072 On ch=1 n=c5 v=64
70072 On ch=1 n=g#3 v=64
70079 Par ch=1 c=7 v=91
70110 On ch=1 n=g#3 v=0
70110 On ch=1 n=c5 v=0
70112 On ch=1 n=c3 v=64
70112 On ch=1 n=g#2 v=64
70112 On ch=1 n=d#3 v=64
70112 On ch=1 n=g#5 v=64
70112 On ch=1 n=d#5 v=64
70127 Par ch=1 c=7 v=92
70150 On ch=1 n=d#5 v=0
70150 On ch=1 n=d#3 v=0
70150 On ch=1 n=g#2 v=0
70150 On ch=1 n=c3 v=0
70150 On ch=1 n=g#5 v=0
70152 On ch=1 n=c6 v=64
70152 On ch=1 n=g#3 v=64
70152 On ch=1 n=g#5 v=64
70175 Par ch=1 c=7 v=93
70190 On ch=1 n=g#3 v=0
70190 On ch=1 n=c6 v=0
70190 On ch=1 n=g#5 v=0
70192 On ch=1 n=c3 v=64
70192 On ch=1 n=g#2 v=64
70192 On ch=1 n=d#3 v=64
70192 On ch=1 n=g#6 v=64
70192 On ch=1 n=d#6 v=64
70223 Par ch=1 c=7 v=94
70230 On ch=1 n=d#6 v=0
70230 On ch=1 n=g#6 v=0
70230 On ch=1 n=d#3 v=0
70230 On ch=1 n=g#2 v=0
70230 On ch=1 n=c3 v=0
70232 On ch=1 n=c7 v=64
70232 On ch=1 n=g#3 v=64
70232 On ch=1 n=g#6 v=64
70270 On ch=1 n=g#6 v=0
70270 On ch=1 n=g#3 v=0
70270 On ch=1 n=c7 v=0
70271 Par ch=1 c=7 v=95
70272 On ch=1 n=c3 v=64
70272 On ch=1 n=g#2 v=64
70272 On ch=1 n=d#3 v=64
70272 On ch=1 n=d#7 v=64
70272 On ch=1 n=g#7 v=64
70310 On ch=1 n=g#7 v=0
70310 On ch=1 n=d#7 v=0
70310 On ch=1 n=d#3 v=0
70310 On ch=1 n=g#2 v=0
70310 On ch=1 n=c3 v=0
70312 On ch=1 n=c7 v=64
70312 On ch=1 n=g#3 v=64
70312 On ch=1 n=g#6 v=64
70319 Par ch=1 c=7 v=96
70350 On ch=1 n=g#6 v=0
70350 On ch=1 n=g#3 v=0
70350 On ch=1 n=c7 v=0
70352 On ch=1 n=c3 v=64
70352 On ch=1 n=g#2 v=64
70352 On ch=1 n=d#3 v=64
70352 On ch=1 n=d#7 v=64
70352 On ch=1 n=g#7 v=64
70367 Par ch=1 c=7 v=97
70390 On ch=1 n=g#7 v=0
70390 On ch=1 n=d#7 v=0
70390 On ch=1 n=d#3 v=0
70390 On ch=1 n=g#2 v=0
70390 On ch=1 n=c3 v=0
70392 On ch=1 n=c7 v=64
70392 On ch=1 n=g#6 v=64
70392 On ch=1 n=g#3 v=64
70415 Par ch=1 c=7 v=98
70430 On ch=1 n=g#3 v=0
70430 On ch=1 n=g#6 v=0
70430 On ch=1 n=c7 v=0
70432 On ch=1 n=g#7 v=64
70432 On ch=1 n=d#7 v=64
70432 On ch=1 n=c3 v=64
70432 On ch=1 n=g#2 v=64
70432 On ch=1 n=d#3 v=64
70463 Par ch=1 c=7 v=99
70470 On ch=1 n=d#3 v=0
70470 On ch=1 n=g#2 v=0
70470 On ch=1 n=c3 v=0
70470 On ch=1 n=d#7 v=0
70470 On ch=1 n=g#7 v=0
70472 On ch=1 n=g#3 v=64
70472 Par ch=1 c=64 v=0
70510 On ch=1 n=g#3 v=0
70510 On ch=1 n=g#5 v=0
70510 On ch=1 n=g#4 v=0
70511 Par ch=1 c=7 v=100
70512 Par ch=1 c=7 v=90
70512 On ch=1 n=g2 v=64
70512 On ch=1 n=a#2 v=64
70512 On ch=1 n=d#2 v=64
70512 On ch=1 n=a#4 v=64
70512 On ch=1 n=a#5 v=64
70512 Par ch=1 c=64 v=96
70543 Par ch=1 c=7 v=91
70550 On ch=1 n=d#2 v=0
70550 On ch=1 n=a#2 v=0
70550 On ch=1 n=g2 v=0
70552 On ch=1 n=d#3 v=64
70552 On ch=1 n=d#5 v=64
70575 Par ch=1 c=7 v=92
70590 On ch=1 n=d#5 v=0
70590 On ch=1 n=d#3 v=0
70592 On ch=1 n=g2 v=64
70592 On ch=1 n=g5 v=64
70592 On ch=1 n=a#2 v=64
70592 On ch=1 n=d#2 v=64
70592 On ch=1 n=a#5 v=64
70607 Par ch=1 c=7 v=93
70630 On ch=1 n=d#2 v=0
70630 On ch=1 n=a#2 v=0
70630 On ch=1 n=g5 v=0
70630 On ch=1 n=g2 v=0
70630 On ch=1 n=a#5 v=0
70632 On ch=1 n=a#5 v=64
70632 On ch=1 n=d#3 v=64
70632 On ch=1 n=d#6 v=64
70639 Par ch=1 c=7 v=94
70670 On ch=1 n=d#6 v=0
70670 On ch=1 n=d#3 v=0
70670 On ch=1 n=a#5 v=0
70671 Par ch=1 c=7 v=95
70672 On ch=1 n=g2 v=64
70672 On ch=1 n=g6 v=64
70672 On ch=1 n=a#2 v=64
70672 On ch=1 n=d#2 v=64
70672 On ch=1 n=a#6 v=64
70703 Par ch=1 c=7 v=96
70710 On ch=1 n=a#6 v=0
70710 On ch=1 n=d#2 v=0
70710 On ch=1 n=a#2 v=0
70710 On ch=1 n=g6 v=0
70710 On ch=1 n=g2 v=0
70712 On ch=1 n=a#6 v=64
70712 On ch=1 n=d#3 v=64
70712 On ch=1 n=d#7 v=64
70735 Par ch=1 c=7 v=97
70750 On ch=1 n=d#7 v=0
70750 On ch=1 n=d#3 v=0
70750 On ch=1 n=a#6 v=0
70752 On ch=1 n=g2 v=64
70752 On ch=1 n=g7 v=64
70752 On ch=1 n=a#2 v=64
70752 On ch=1 n=d#2 v=64
70752 On ch=1 n=a#7 v=64
70767 Par ch=1 c=7 v=98
70790 On ch=1 n=a#7 v=0
70790 On ch=1 n=d#2 v=0
70790 On ch=1 n=a#2 v=0
70790 On ch=1 n=g7 v=0
70790 On ch=1 n=g2 v=0
70792 On ch=1 n=a#6 v=64
70792 On ch=1 n=d#3 v=64
70792 On ch=1 n=d#7 v=64
70799 Par ch=1 c=7 v=99
70830 On ch=1 n=d#7 v=0
70830 On ch=1 n=d#3 v=0
70830 On ch=1 n=a#6 v=0
70831 Par ch=1 c=7 v=100
70832 On ch=1 n=g2 v=64
70832 On ch=1 n=g7 v=64
70832 On ch=1 n=a#2 v=64
70832 On ch=1 n=d#2 v=64
70832 On ch=1 n=a#7 v=64
70863 Par ch=1 c=7 v=101
70870 On ch=1 n=a#7 v=0
70870 On ch=1 n=d#2 v=0
70870 On ch=1 n=a#2 v=0
70870 On ch=1 n=g7 v=0
70870 On ch=1 n=g2 v=0
70872 On ch=1 n=a#6 v=64
70872 On ch=1 n=d#3 v=64
70872 On ch=1 n=d#7 v=64
70895 Par ch=1 c=7 v=102
70910 On ch=1 n=d#7 v=0
70910 On ch=1 n=d#3 v=0
70910 On ch=1 n=a#6 v=0
70912 On ch=1 n=g2 v=64
70912 On ch=1 n=g7 v=64
70912 On ch=1 n=a#2 v=64
70912 On ch=1 n=d#2 v=64
70912 On ch=1 n=a#7 v=64
70927 Par ch=1 c=7 v=103
70950 On ch=1 n=a#7 v=0
70950 On ch=1 n=d#2 v=0
70950 On ch=1 n=a#2 v=0
70950 On ch=1 n=g7 v=0
70950 On ch=1 n=g2 v=0
70952 On ch=1 n=d#3 v=64
70952 On ch=1 n=a#6 v=64
70952 On ch=1 n=d#7 v=64
70952 Par ch=1 c=64 v=0
70959 Par ch=1 c=7 v=104
70990 On ch=1 n=d#7 v=0
70990 On ch=1 n=a#6 v=0
70990 On ch=1 n=a#5 v=0
70990 On ch=1 n=a#4 v=0
70991 Par ch=1 c=7 v=105
70992 On ch=1 n=g7 v=64
70992 On ch=1 n=a#7 v=64
70992 On ch=1 n=g2 v=64
70992 On ch=1 n=a#2 v=64
70992 On ch=1 n=d#2 v=64
70992 Par ch=1 c=64 v=96
71030 On ch=1 n=a#7 v=0
71030 On ch=1 n=g7 v=0
71032 On ch=1 n=a#6 v=64
71032 On ch=1 n=d#7 v=64
71070 On ch=1 n=d#7 v=0
71070 On ch=1 n=a#6 v=0
71072 On ch=1 n=g7 v=64
71072 On ch=1 n=a#7 v=64
71110 On ch=1 n=a#7 v=0
71110 On ch=1 n=g7 v=0
71112 On ch=1 n=a#6 v=64
71112 On ch=1 n=d#7 v=64
71150 On ch=1 n=d#7 v=0
71150 On ch=1 n=a#6 v=0
71152 On ch=1 n=g7 v=64
71152 On ch=1 n=a#7 v=64
71190 On ch=1 n=a#7 v=0
71190 On ch=1 n=g7 v=0
71192 On ch=1 n=a#6 v=64
71192 On ch=1 n=d#7 v=64
71230 On ch=1 n=d#7 v=0
71230 On ch=1 n=a#6 v=0
71230 On ch=1 n=d#2 v=0
71230 On ch=1 n=a#2 v=0
71230 On ch=1 n=g2 v=0
71230 On ch=1 n=d#3 v=0
71232 On ch=1 n=g7 v=64
71232 On ch=1 n=a#7 v=64
71232 On ch=1 n=a#4 v=64
71232 On ch=1 n=a#5 v=64
71270 On ch=1 n=a#7 v=0
71270 On ch=1 n=g7 v=0
71272 On ch=1 n=a#6 v=64
71272 On ch=1 n=d#7 v=64
71310 On ch=1 n=d#7 v=0
71310 On ch=1 n=a#6 v=0
71312 On ch=1 n=g7 v=64
71312 On ch=1 n=a#7 v=64
71350 On ch=1 n=a#7 v=0
71350 On ch=1 n=g7 v=0
71352 On ch=1 n=a#6 v=64
71352 On ch=1 n=d#7 v=64
71390 On ch=1 n=d#7 v=0
71390 On ch=1 n=a#6 v=0
71392 On ch=1 n=g7 v=64
71392 On ch=1 n=a#7 v=64
71410 On ch=1 n=a#5 v=0
71410 On ch=1 n=a#4 v=0
71412 On ch=1 n=a#4 v=64
71412 On ch=1 n=a#5 v=64
71430 On ch=1 n=a#7 v=0
71430 On ch=1 n=g7 v=0
71432 On ch=1 n=a#6 v=64
71432 On ch=1 n=d#7 v=64
71432 Par ch=1 c=64 v=0
71470 On ch=1 n=d#7 v=0
71470 On ch=1 n=a#6 v=0
71470 On ch=1 n=a#5 v=0
71470 On ch=1 n=a#4 v=0
71472 On ch=1 n=g7 v=64
71472 On ch=1 n=a#7 v=64
71472 On ch=1 n=a#4 v=64
71472 On ch=1 n=a#5 v=64
71472 Par ch=1 c=64 v=96
71510 On ch=1 n=a#7 v=0
71510 On ch=1 n=g7 v=0
71512 On ch=1 n=a#6 v=64
71512 On ch=1 n=d#7 v=64
71550 On ch=1 n=d#7 v=0
71550 On ch=1 n=a#6 v=0
71552 On ch=1 n=g7 v=64
71552 On ch=1 n=a#7 v=64
71590 On ch=1 n=a#7 v=0
71590 On ch=1 n=g7 v=0
71592 On ch=1 n=a#6 v=64
71592 On ch=1 n=d#7 v=64
71630 On ch=1 n=d#7 v=0
71630 On ch=1 n=a#6 v=0
71632 On ch=1 n=g7 v=64
71632 On ch=1 n=a#7 v=64
71670 On ch=1 n=a#7 v=0
71670 On ch=1 n=g7 v=0
71672 On ch=1 n=a#6 v=64
71672 On ch=1 n=d#7 v=64
71710 On ch=1 n=d#7 v=0
71710 On ch=1 n=a#6 v=0
71710 On ch=1 n=a#5 v=0
71710 On ch=1 n=a#4 v=0
71712 On ch=1 n=g7 v=64
71712 On ch=1 n=a#7 v=64
71712 On ch=1 n=a#4 v=64
71712 On ch=1 n=a#5 v=64
71750 On ch=1 n=a#7 v=0
71750 On ch=1 n=g7 v=0
71752 On ch=1 n=a#6 v=64
71752 On ch=1 n=d#7 v=64
71790 On ch=1 n=d#7 v=0
71790 On ch=1 n=a#6 v=0
71792 On ch=1 n=g7 v=64
71792 On ch=1 n=a#7 v=64
71830 On ch=1 n=a#7 v=0
71830 On ch=1 n=g7 v=0
71832 On ch=1 n=a#6 v=64
71832 On ch=1 n=d#7 v=64
71870 On ch=1 n=d#7 v=0
71870 On ch=1 n=a#6 v=0
71872 On ch=1 n=g7 v=64
71872 On ch=1 n=a#7 v=64
71910 On ch=1 n=a#7 v=0
71910 On ch=1 n=g7 v=0
71912 On ch=1 n=a#6 v=64
71912 On ch=1 n=d#7 v=64
71912 Par ch=1 c=64 v=0
71950 On ch=1 n=d#7 v=0
71950 On ch=1 n=a#6 v=0
71950 On ch=1 n=a#5 v=0
71950 On ch=1 n=a#4 v=0
71952 Par ch=1 c=7 v=90
71952 On ch=1 n=a#4 v=64
71952 On ch=1 n=a#5 v=64
71952 On ch=1 n=a#3 v=64
71952 On ch=1 n=c#4 v=64
71952 On ch=1 n=f#3 v=64
71952 Par ch=1 c=64 v=96
71990 On ch=1 n=f#3 v=0
71990 On ch=1 n=c#4 v=0
71990 On ch=1 n=a#3 v=0
71992 On ch=1 n=f#4 v=64
71992 On ch=1 n=c#5 v=64
71999 Par ch=1 c=7 v=91
72030 On ch=1 n=c#5 v=0
72030 On ch=1 n=f#4 v=0
72032 On ch=1 n=a#3 v=64
72032 On ch=1 n=a#5 v=64
72032 On ch=1 n=c#4 v=64
72032 On ch=1 n=f#3 v=64
72032 On ch=1 n=f#5 v=64
72047 Par ch=1 c=7 v=92
72070 On ch=1 n=f#5 v=0
72070 On ch=1 n=f#3 v=0
72070 On ch=1 n=c#4 v=0
72070 On ch=1 n=a#3 v=0
72070 On ch=1 n=a#5 v=0
72072 On ch=1 n=c#6 v=64
72072 On ch=1 n=a#5 v=64
72072 On ch=1 n=f#4 v=64
72095 Par ch=1 c=7 v=93
72110 On ch=1 n=f#4 v=0
72110 On ch=1 n=c#6 v=0
72110 On ch=1 n=a#5 v=0
72112 On ch=1 n=a#3 v=64
72112 On ch=1 n=a#6 v=64
72112 On ch=1 n=f#6 v=64
72112 On ch=1 n=c#4 v=64
72112 On ch=1 n=f#3 v=64
72143 Par ch=1 c=7 v=94
72150 On ch=1 n=f#3 v=0
72150 On ch=1 n=c#4 v=0
72150 On ch=1 n=f#6 v=0
72150 On ch=1 n=a#6 v=0
72150 On ch=1 n=a#3 v=0
72152 On ch=1 n=a#6 v=64
72152 On ch=1 n=c#7 v=64
72152 On ch=1 n=f#4 v=64
72190 On ch=1 n=f#4 v=0
72190 On ch=1 n=c#7 v=0
72190 On ch=1 n=a#6 v=0
72191 Par ch=1 c=7 v=95
72192 On ch=1 n=a#3 v=64
72192 On ch=1 n=a#7 v=64
72192 On ch=1 n=c#4 v=64
72192 On ch=1 n=f#3 v=64
72192 On ch=1 n=f#7 v=64
72230 On ch=1 n=f#7 v=0
72230 On ch=1 n=f#3 v=0
72230 On ch=1 n=c#4 v=0
72230 On ch=1 n=a#7 v=0
72230 On ch=1 n=a#3 v=0
72232 On ch=1 n=a#6 v=64
72232 On ch=1 n=f#4 v=64
72232 On ch=1 n=c#7 v=64
72239 Par ch=1 c=7 v=96
72270 On ch=1 n=c#7 v=0
72270 On ch=1 n=f#4 v=0
72270 On ch=1 n=a#6 v=0
72272 On ch=1 n=a#3 v=64
72272 On ch=1 n=a#7 v=64
72272 On ch=1 n=c#4 v=64
72272 On ch=1 n=f#3 v=64
72272 On ch=1 n=f#7 v=64
72287 Par ch=1 c=7 v=97
72310 On ch=1 n=f#7 v=0
72310 On ch=1 n=f#3 v=0
72310 On ch=1 n=c#4 v=0
72310 On ch=1 n=a#7 v=0
72310 On ch=1 n=a#3 v=0
72312 On ch=1 n=a#6 v=64
72312 On ch=1 n=c#7 v=64
72312 On ch=1 n=f#4 v=64
72335 Par ch=1 c=7 v=98
72350 On ch=1 n=f#4 v=0
72350 On ch=1 n=c#7 v=0
72350 On ch=1 n=a#6 v=0
72352 On ch=1 n=f#7 v=64
72352 On ch=1 n=a#7 v=64
72352 On ch=1 n=a#3 v=64
72352 On ch=1 n=c#4 v=64
72352 On ch=1 n=f#3 v=64
72383 Par ch=1 c=7 v=99
72390 On ch=1 n=f#3 v=0
72390 On ch=1 n=c#4 v=0
72390 On ch=1 n=a#3 v=0
72390 On ch=1 n=a#7 v=0
72390 On ch=1 n=f#7 v=0
72392 On ch=1 n=f#4 v=64
72392 Par ch=1 c=64 v=0
72430 On ch=1 n=f#4 v=0
72430 On ch=1 n=a#5 v=0
72430 On ch=1 n=a#4 v=0
72431 Par ch=1 c=7 v=100
72432 Par ch=1 c=7 v=90
72432 On ch=1 n=a#3 v=64
72432 On ch=1 n=d#3 v=64
72432 On ch=1 n=a#4 v=64
72432 On ch=1 n=a#5 v=64
72432 On ch=1 n=f#3 v=64
72432 Par ch=1 c=64 v=96
72470 On ch=1 n=f#3 v=0
72470 On ch=1 n=d#3 v=0
72470 On ch=1 n=a#3 v=0
72472 On ch=1 n=d#4 v=64
72472 On ch=1 n=d#5 v=64
72479 Par ch=1 c=7 v=91
72510 On ch=1 n=d#5 v=0
72510 On ch=1 n=d#4 v=0
72512 On ch=1 n=d#3 v=64
72512 On ch=1 n=a#3 v=64
72512 On ch=1 n=a#5 v=64
72512 On ch=1 n=f#3 v=64
72512 On ch=1 n=f#5 v=64
72527 Par ch=1 c=7 v=92
72550 On ch=1 n=f#5 v=0
72550 On ch=1 n=f#3 v=0
72550 On ch=1 n=a#3 v=0
72550 On ch=1 n=d#3 v=0
72550 On ch=1 n=a#5 v=0
72552 On ch=1 n=d#4 v=64
72552 On ch=1 n=d#6 v=64
72552 On ch=1 n=a#5 v=64
72575 Par ch=1 c=7 v=93
72590 On ch=1 n=d#6 v=0
72590 On ch=1 n=d#4 v=0
72590 On ch=1 n=a#5 v=0
72592 On ch=1 n=d#3 v=64
72592 On ch=1 n=a#3 v=64
72592 On ch=1 n=a#6 v=64
72592 On ch=1 n=f#3 v=64
72592 On ch=1 n=f#6 v=64
72623 Par ch=1 c=7 v=94
72630 On ch=1 n=f#6 v=0
72630 On ch=1 n=f#3 v=0
72630 On ch=1 n=a#6 v=0
72630 On ch=1 n=a#3 v=0
72630 On ch=1 n=d#3 v=0
72632 On ch=1 n=d#4 v=64
72632 On ch=1 n=d#7 v=64
72632 On ch=1 n=a#6 v=64
72670 On ch=1 n=a#6 v=0
72670 On ch=1 n=d#7 v=0
72670 On ch=1 n=d#4 v=0
72671 Par ch=1 c=7 v=95
72672 On ch=1 n=d#3 v=64
72672 On ch=1 n=a#3 v=64
72672 On ch=1 n=a#7 v=64
72672 On ch=1 n=f#3 v=64
72672 On ch=1 n=f#7 v=64
72710 On ch=1 n=f#7 v=0
72710 On ch=1 n=f#3 v=0
72710 On ch=1 n=a#7 v=0
72710 On ch=1 n=a#3 v=0
72710 On ch=1 n=d#3 v=0
72712 On ch=1 n=d#4 v=64
72712 On ch=1 n=a#6 v=64
72712 On ch=1 n=d#7 v=64
72719 Par ch=1 c=7 v=96
72750 On ch=1 n=d#7 v=0
72750 On ch=1 n=a#6 v=0
72750 On ch=1 n=d#4 v=0
72752 On ch=1 n=d#3 v=64
72752 On ch=1 n=a#3 v=64
72752 On ch=1 n=a#7 v=64
72752 On ch=1 n=f#3 v=64
72752 On ch=1 n=f#7 v=64
72767 Par ch=1 c=7 v=97
72790 On ch=1 n=f#7 v=0
72790 On ch=1 n=f#3 v=0
72790 On ch=1 n=a#7 v=0
72790 On ch=1 n=a#3 v=0
72790 On ch=1 n=d#3 v=0
72792 On ch=1 n=a#6 v=64
72792 On ch=1 n=d#7 v=64
72792 On ch=1 n=d#4 v=64
72815 Par ch=1 c=7 v=98
72830 On ch=1 n=d#4 v=0
72830 On ch=1 n=d#7 v=0
72830 On ch=1 n=a#6 v=0
72832 On ch=1 n=f#7 v=64
72832 On ch=1 n=a#7 v=64
72832 On ch=1 n=d#3 v=64
72832 On ch=1 n=a#3 v=64
72832 On ch=1 n=f#3 v=64
72863 Par ch=1 c=7 v=99
72870 On ch=1 n=f#3 v=0
72870 On ch=1 n=a#3 v=0
72870 On ch=1 n=d#3 v=0
72870 On ch=1 n=a#7 v=0
72870 On ch=1 n=f#7 v=0
72872 On ch=1 n=d#4 v=64
72872 Par ch=1 c=64 v=0
72910 On ch=1 n=d#4 v=0
72910 On ch=1 n=a#5 v=0
72910 On ch=1 n=a#4 v=0
72911 Par ch=1 c=7 v=100
72912 Par ch=1 c=7 v=90
72912 On ch=1 n=d#3 v=64
72912 On ch=1 n=b4 v=64
72912 On ch=1 n=b5 v=64
72912 On ch=1 n=b2 v=64
72912 On ch=1 n=f#3 v=64
72912 Par ch=1 c=64 v=96
72950 On ch=1 n=f#3 v=0
72950 On ch=1 n=b2 v=0
72950 On ch=1 n=d#3 v=0
72952 On ch=1 n=d#5 v=64
72952 On ch=1 n=b3 v=64
72959 Par ch=1 c=7 v=91
72990 On ch=1 n=b3 v=0
72990 On ch=1 n=d#5 v=0
72992 On ch=1 n=d#3 v=64
72992 On ch=1 n=b2 v=64
72992 On ch=1 n=f#3 v=64
72992 On ch=1 n=b5 v=64
72992 On ch=1 n=f#5 v=64
73007 Par ch=1 c=7 v=92
73030 On ch=1 n=f#5 v=0
73030 On ch=1 n=f#3 v=0
73030 On ch=1 n=b2 v=0
73030 On ch=1 n=d#3 v=0
73030 On ch=1 n=b5 v=0
73032 On ch=1 n=d#6 v=64
73032 On ch=1 n=b3 v=64
73032 On ch=1 n=b5 v=64
73055 Par ch=1 c=7 v=93
73070 On ch=1 n=b3 v=0
73070 On ch=1 n=d#6 v=0
73070 On ch=1 n=b5 v=0
73072 On ch=1 n=d#3 v=64
73072 On ch=1 n=b2 v=64
73072 On ch=1 n=f#3 v=64
73072 On ch=1 n=b6 v=64
73072 On ch=1 n=f#6 v=64
73103 Par ch=1 c=7 v=94
73110 On ch=1 n=f#6 v=0
73110 On ch=1 n=b6 v=0
73110 On ch=1 n=f#3 v=0
73110 On ch=1 n=b2 v=0
73110 On ch=1 n=d#3 v=0
73112 On ch=1 n=d#7 v=64
73112 On ch=1 n=b3 v=64
73112 On ch=1 n=b6 v=64
73150 On ch=1 n=b6 v=0
73150 On ch=1 n=b3 v=0
73150 On ch=1 n=d#7 v=0
73151 Par ch=1 c=7 v=95
73152 On ch=1 n=d#3 v=64
73152 On ch=1 n=b2 v=64
73152 On ch=1 n=f#3 v=64
73152 On ch=1 n=f#7 v=64
73152 On ch=1 n=b7 v=64
73190 On ch=1 n=b7 v=0
73190 On ch=1 n=f#7 v=0
73190 On ch=1 n=f#3 v=0
73190 On ch=1 n=b2 v=0
73190 On ch=1 n=d#3 v=0
73192 On ch=1 n=d#7 v=64
73192 On ch=1 n=b3 v=64
73192 On ch=1 n=b6 v=64
73199 Par ch=1 c=7 v=96
73230 On ch=1 n=b6 v=0
73230 On ch=1 n=b3 v=0
73230 On ch=1 n=d#7 v=0
73232 On ch=1 n=d#3 v=64
73232 On ch=1 n=b2 v=64
73232 On ch=1 n=f#3 v=64
73232 On ch=1 n=f#7 v=64
73232 On ch=1 n=b7 v=64
73247 Par ch=1 c=7 v=97
73270 On ch=1 n=b7 v=0
73270 On ch=1 n=f#7 v=0
73270 On ch=1 n=f#3 v=0
73270 On ch=1 n=b2 v=0
73270 On ch=1 n=d#3 v=0
73272 On ch=1 n=b6 v=64
73272 On ch=1 n=d#7 v=64
73272 On ch=1 n=b3 v=64
73295 Par ch=1 c=7 v=98
73310 On ch=1 n=b3 v=0
73310 On ch=1 n=d#7 v=0
73310 On ch=1 n=b6 v=0
73312 On ch=1 n=b7 v=64
73312 On ch=1 n=f#7 v=64
73312 On ch=1 n=d#3 v=64
73312 On ch=1 n=b2 v=64
73312 On ch=1 n=f#3 v=64
73343 Par ch=1 c=7 v=99
73350 On ch=1 n=f#3 v=0
73350 On ch=1 n=b2 v=0
73350 On ch=1 n=d#3 v=0
73350 On ch=1 n=f#7 v=0
73350 On ch=1 n=b7 v=0
73352 On ch=1 n=b3 v=64
73352 Par ch=1 c=64 v=0
73390 On ch=1 n=b3 v=0
73390 On ch=1 n=b5 v=0
73390 On ch=1 n=b4 v=0
73391 Par ch=1 c=7 v=100
73392 Par ch=1 c=7 v=90
73392 On ch=1 n=a#2 v=64
73392 On ch=1 n=c#3 v=64
73392 On ch=1 n=f#2 v=64
73392 On ch=1 n=c#5 v=64
73392 On ch=1 n=c#6 v=64
73392 Par ch=1 c=64 v=96
73423 Par ch=1 c=7 v=91
73430 On ch=1 n=f#2 v=0
73430 On ch=1 n=c#3 v=0
73430 On ch=1 n=a#2 v=0
73432 On ch=1 n=f#3 v=64
73432 On ch=1 n=f#5 v=64
73455 Par ch=1 c=7 v=92
73470 On ch=1 n=f#5 v=0
73470 On ch=1 n=f#3 v=0
73472 On ch=1 n=a#2 v=64
73472 On ch=1 n=a#5 v=64
73472 On ch=1 n=c#3 v=64
73472 On ch=1 n=f#2 v=64
73472 On ch=1 n=c#6 v=64
73487 Par ch=1 c=7 v=93
73510 On ch=1 n=f#2 v=0
73510 On ch=1 n=c#3 v=0
73510 On ch=1 n=a#5 v=0
73510 On ch=1 n=a#2 v=0
73510 On ch=1 n=c#6 v=0
73512 On ch=1 n=c#6 v=64
73512 On ch=1 n=f#3 v=64
73512 On ch=1 n=f#6 v=64
73519 Par ch=1 c=7 v=94
73550 On ch=1 n=f#6 v=0
73550 On ch=1 n=f#3 v=0
73550 On ch=1 n=c#6 v=0
73551 Par ch=1 c=7 v=95
73552 On ch=1 n=a#2 v=64
73552 On ch=1 n=a#6 v=64
73552 On ch=1 n=c#3 v=64
73552 On ch=1 n=f#2 v=64
73552 On ch=1 n=c#7 v=64
73583 Par ch=1 c=7 v=96
73590 On ch=1 n=c#7 v=0
73590 On ch=1 n=f#2 v=0
73590 On ch=1 n=c#3 v=0
73590 On ch=1 n=a#6 v=0
73590 On ch=1 n=a#2 v=0
73592 On ch=1 n=c#7 v=64
73592 On ch=1 n=f#3 v=64
73592 On ch=1 n=f#7 v=64
73615 Par ch=1 c=7 v=97
73630 On ch=1 n=f#7 v=0
73630 On ch=1 n=f#3 v=0
73630 On ch=1 n=c#7 v=0
73632 On ch=1 n=a#2 v=64
73632 On ch=1 n=a#7 v=64
73632 On ch=1 n=c#3 v=64
73632 On ch=1 n=f#2 v=64
73632 On ch=1 n=c#8 v=64
73647 Par ch=1 c=7 v=98
73670 On ch=1 n=c#8 v=0
73670 On ch=1 n=f#2 v=0
73670 On ch=1 n=c#3 v=0
73670 On ch=1 n=a#7 v=0
73670 On ch=1 n=a#2 v=0
73672 On ch=1 n=c#7 v=64
73672 On ch=1 n=f#3 v=64
73672 On ch=1 n=f#7 v=64
73679 Par ch=1 c=7 v=99
73710 On ch=1 n=f#7 v=0
73710 On ch=1 n=f#3 v=0
73710 On ch=1 n=c#7 v=0
73711 Par ch=1 c=7 v=100
73712 On ch=1 n=a#2 v=64
73712 On ch=1 n=a#7 v=64
73712 On ch=1 n=c#3 v=64
73712 On ch=1 n=f#2 v=64
73712 On ch=1 n=c#8 v=64
73743 Par ch=1 c=7 v=101
73750 On ch=1 n=c#8 v=0
73750 On ch=1 n=f#2 v=0
73750 On ch=1 n=c#3 v=0
73750 On ch=1 n=a#7 v=0
73750 On ch=1 n=a#2 v=0
73752 On ch=1 n=c#7 v=64
73752 On ch=1 n=f#3 v=64
73752 On ch=1 n=f#7 v=64
73775 Par ch=1 c=7 v=102
73790 On ch=1 n=f#7 v=0
73790 On ch=1 n=f#3 v=0
73790 On ch=1 n=c#7 v=0
73792 On ch=1 n=a#2 v=64
73792 On ch=1 n=a#7 v=64
73792 On ch=1 n=c#3 v=64
73792 On ch=1 n=f#2 v=64
73792 On ch=1 n=c#8 v=64
73807 Par ch=1 c=7 v=103
73830 On ch=1 n=c#8 v=0
73830 On ch=1 n=f#2 v=0
73830 On ch=1 n=c#3 v=0
73830 On ch=1 n=a#7 v=0
73830 On ch=1 n=a#2 v=0
73832 On ch=1 n=f#7 v=64
73832 On ch=1 n=c#7 v=64
73832 On ch=1 n=f#3 v=64
73839 Par ch=1 c=7 v=104
73870 On ch=1 n=c#7 v=0
73870 On ch=1 n=f#7 v=0
73870 On ch=1 n=c#6 v=0
73870 On ch=1 n=c#5 v=0
73871 Par ch=1 c=7 v=105
73872 On ch=1 n=c#8 v=64
73872 On ch=1 n=a#7 v=64
73872 On ch=1 n=a#2 v=64
73872 On ch=1 n=c#3 v=64
73872 On ch=1 n=f#2 v=64
73910 On ch=1 n=a#7 v=0
73910 On ch=1 n=c#8 v=0
73912 On ch=1 n=f#7 v=64
73912 On ch=1 n=c#7 v=64
73950 On ch=1 n=c#7 v=0
73950 On ch=1 n=f#7 v=0
73952 On ch=1 n=c#8 v=64
73952 On ch=1 n=a#7 v=64
73990 On ch=1 n=a#7 v=0
73990 On ch=1 n=c#8 v=0
73992 On ch=1 n=f#7 v=64
73992 On ch=1 n=c#7 v=64
74030 On ch=1 n=c#7 v=0
74030 On ch=1 n=f#7 v=0
74032 On ch=1 n=c#8 v=64
74032 On ch=1 n=a#7 v=64
74070 On ch=1 n=a#7 v=0
74070 On ch=1 n=c#8 v=0
74072 On ch=1 n=f#7 v=64
74072 On ch=1 n=c#7 v=64
74072 Par ch=1 c=64 v=0
74110 On ch=1 n=c#7 v=0
74110 On ch=1 n=f#7 v=0
74110 On ch=1 n=f#2 v=0
74110 On ch=1 n=c#3 v=0
74110 On ch=1 n=a#2 v=0
74110 On ch=1 n=f#3 v=0
74112 Tempo 1428571
74112 On ch=1 n=c#8 v=64
74112 On ch=1 n=a#7 v=64
74112 On ch=1 n=c#5 v=64
74112 On ch=1 n=c#6 v=64
74112 Par ch=1 c=64 v=96
74150 On ch=1 n=a#7 v=0
74150 On ch=1 n=c#8 v=0
74152 On ch=1 n=f#7 v=64
74152 On ch=1 n=c#7 v=64
74190 On ch=1 n=c#7 v=0
74190 On ch=1 n=f#7 v=0
74192 On ch=1 n=c#8 v=64
74192 On ch=1 n=a#7 v=64
74230 On ch=1 n=a#7 v=0
74230 On ch=1 n=c#8 v=0
74232 On ch=1 n=f#7 v=64
74232 On ch=1 n=c#7 v=64
74270 On ch=1 n=c#7 v=0
74270 On ch=1 n=f#7 v=0
74272 On ch=1 n=c#8 v=64
74272 On ch=1 n=a#7 v=64
74290 On ch=1 n=c#6 v=0
74290 On ch=1 n=c#5 v=0
74292 On ch=1 n=c#5 v=64
74292 On ch=1 n=c#6 v=64
74310 On ch=1 n=a#7 v=0
74310 On ch=1 n=c#8 v=0
74312 On ch=1 n=f#7 v=64
74312 On ch=1 n=c#7 v=64
74350 On ch=1 n=c#7 v=0
74350 On ch=1 n=f#7 v=0
74350 On ch=1 n=c#6 v=0
74350 On ch=1 n=c#5 v=0
74352 On ch=1 n=c#8 v=64
74352 On ch=1 n=a#7 v=64
74352 On ch=1 n=c#5 v=64
74352 On ch=1 n=c#6 v=64
74390 On ch=1 n=a#7 v=0
74390 On ch=1 n=c#8 v=0
74392 On ch=1 n=f#7 v=64
74392 On ch=1 n=c#7 v=64
74430 On ch=1 n=c#7 v=0
74430 On ch=1 n=f#7 v=0
74432 On ch=1 n=c#8 v=64
74432 On ch=1 n=a#7 v=64
74470 On ch=1 n=a#7 v=0
74470 On ch=1 n=c#8 v=0
74471 Tempo 1463415
74472 On ch=1 n=f#7 v=64
74472 On ch=1 n=c#7 v=64
74510 On ch=1 n=c#7 v=0
74510 On ch=1 n=f#7 v=0
74512 On ch=1 n=c#8 v=64
74512 On ch=1 n=a#7 v=64
74550 On ch=1 n=a#7 v=0
74550 On ch=1 n=c#8 v=0
74552 On ch=1 n=f#7 v=64
74552 On ch=1 n=c#7 v=64
74590 On ch=1 n=c#7 v=0
74590 On ch=1 n=f#7 v=0
74590 On ch=1 n=c#6 v=0
74590 On ch=1 n=c#5 v=0
74592 On ch=1 n=c#8 v=64
74592 On ch=1 n=a#7 v=64
74592 On ch=1 n=c#5 v=64
74592 On ch=1 n=c#6 v=64
74630 On ch=1 n=a#7 v=0
74630 On ch=1 n=c#8 v=0
74632 On ch=1 n=f#7 v=64
74632 On ch=1 n=c#7 v=64
74670 On ch=1 n=c#7 v=0
74670 On ch=1 n=f#7 v=0
74672 On ch=1 n=c#8 v=64
74672 On ch=1 n=a#7 v=64
74710 On ch=1 n=a#7 v=0
74710 On ch=1 n=c#8 v=0
74712 On ch=1 n=f#7 v=64
74712 On ch=1 n=c#7 v=64
74750 On ch=1 n=c#7 v=0
74750 On ch=1 n=f#7 v=0
74752 On ch=1 n=c#8 v=64
74752 On ch=1 n=a#7 v=64
74790 On ch=1 n=a#7 v=0
74790 On ch=1 n=c#8 v=0
74792 On ch=1 n=f#7 v=64
74792 On ch=1 n=c#7 v=64
74792 Par ch=1 c=64 v=0
74830 On ch=1 n=c#7 v=0
74830 On ch=1 n=f#7 v=0
74830 On ch=1 n=c#6 v=0
74830 On ch=1 n=c#5 v=0
74831 Tempo 1500000
74832 Tempo 1428571
74832 Par ch=1 c=7 v=110
74832 On ch=1 n=c5 v=64
74832 On ch=1 n=f#4 v=64
74832 On ch=1 n=d4 v=64
74832 On ch=1 n=a3 v=64
74832 On ch=1 n=f#5 v=64
74832 On ch=1 n=d5 v=64
74832 On ch=1 n=d6 v=64
74832 Par ch=1 c=64 v=96
74950 On ch=1 n=a3 v=0
74950 On ch=1 n=d4 v=0
74950 On ch=1 n=f#4 v=0
74950 On ch=1 n=c5 v=0
74952 On ch=1 n=c6 v=64
74952 On ch=1 n=f#5 v=64
74952 On ch=1 n=d5 v=64
74952 On ch=1 n=d7 v=64
74952 On ch=1 n=f#6 v=64
74952 On ch=1 n=d6 v=64
75070 On ch=1 n=f#6 v=0
75070 On ch=1 n=d7 v=0
75070 On ch=1 n=c6 v=0
75070 On ch=1 n=d6 v=0
75070 On ch=1 n=d5 v=0
75070 On ch=1 n=f#5 v=0
75072 On ch=1 n=c7 v=64
75072 On ch=1 n=f#6 v=64
75072 On ch=1 n=d6 v=64
75072 On ch=1 n=d8 v=64
75072 On ch=1 n=f#7 v=64
75072 On ch=1 n=d7 v=64
75190 On ch=1 n=d7 v=0
75190 On ch=1 n=f#7 v=0
75190 On ch=1 n=d8 v=0
75190 On ch=1 n=f#6 v=0
75190 On ch=1 n=c7 v=0
75190 On ch=1 n=d6 v=0
75192 On ch=1 n=c6 v=64
75192 On ch=1 n=f#5 v=64
75192 On ch=1 n=d5 v=64
75192 On ch=1 n=d7 v=64
75192 On ch=1 n=f#6 v=64
75192 On ch=1 n=d6 v=64
75272 Par ch=1 c=64 v=0
75310 On ch=1 n=d6 v=0
75310 On ch=1 n=f#6 v=0
75310 On ch=1 n=d7 v=0
75310 On ch=1 n=d5 v=0
75310 On ch=1 n=f#5 v=0
75310 On ch=1 n=c6 v=0
75310 On ch=1 n=d6 v=0
75310 On ch=1 n=d5 v=0
75310 On ch=1 n=f#5 v=0
75312 On ch=1 n=a3 v=64
75312 On ch=1 n=f#5 v=64
75312 On ch=1 n=c#5 v=64
75312 On ch=1 n=c#6 v=64
75312 Par ch=1 c=64 v=96
75322 On ch=1 n=d4 v=64
75329 On ch=1 n=f#4 v=64
75337 On ch=1 n=c5 v=63
75429 On ch=1 n=f#4 v=0
75430 On ch=1 n=a3 v=0
75431 On ch=1 n=d4 v=0
75432 On ch=1 n=f#4 v=64
75432 On ch=1 n=d4 v=64
75432 On ch=1 n=c#6 v=64
75432 On ch=1 n=c#7 v=64
75434 On ch=1 n=c5 v=0
75512 Par ch=1 c=64 v=0
75550 On ch=1 n=c#7 v=0
75550 On ch=1 n=c#6 v=0
75550 On ch=1 n=d4 v=0
75550 On ch=1 n=f#4 v=0
75550 On ch=1 n=c#6 v=0
75550 On ch=1 n=c#5 v=0
75550 On ch=1 n=f#5 v=0
75552 On ch=1 n=a3 v=64
75552 On ch=1 n=f#5 v=64
75552 On ch=1 n=d5 v=64
75552 On ch=1 n=d6 v=64
75552 Par ch=1 c=64 v=96
75561 On ch=1 n=d4 v=64
75567 On ch=1 n=f#4 v=63
75575 On ch=1 n=c5 v=63
75670 On ch=1 n=f#4 v=0
75670 On ch=1 n=d4 v=0
75670 On ch=1 n=a3 v=0
75671 On ch=1 n=c5 v=0
75672 On ch=1 n=f#4 v=64
75672 On ch=1 n=d4 v=64
75672 On ch=1 n=d6 v=64
75672 On ch=1 n=d7 v=64
75752 Par ch=1 c=64 v=0
75790 On ch=1 n=d7 v=0
75790 On ch=1 n=d6 v=0
75790 On ch=1 n=d4 v=0
75790 On ch=1 n=f#4 v=0
75790 On ch=1 n=d6 v=0
75790 On ch=1 n=d5 v=0
75790 On ch=1 n=f#5 v=0
75792 On ch=1 n=a3 v=64
75792 On ch=1 n=f#5 v=64
75792 On ch=1 n=d#5 v=64
75792 On ch=1 n=d#6 v=64
75792 Par ch=1 c=64 v=96
75802 On ch=1 n=d4 v=64
75806 On ch=1 n=f#4 v=64
75814 On ch=1 n=c5 v=64
75909 On ch=1 n=f#4 v=0
75910 On ch=1 n=c5 v=0
75910 On ch=1 n=a3 v=0
75911 On ch=1 n=d4 v=0
75912 On ch=1 n=f#4 v=64
75912 On ch=1 n=d4 v=64
75912 On ch=1 n=d#7 v=64
75912 On ch=1 n=d#6 v=64
75992 Par ch=1 c=64 v=0
76030 On ch=1 n=d#6 v=0
76030 On ch=1 n=d#7 v=0
76030 On ch=1 n=d4 v=0
76030 On ch=1 n=f#4 v=0
76030 On ch=1 n=d#6 v=0
76030 On ch=1 n=d#5 v=0
76030 On ch=1 n=f#5 v=0
76032 On ch=1 n=a3 v=64
76032 On ch=1 n=f#5 v=64
76032 On ch=1 n=d5 v=64
76032 On ch=1 n=d6 v=64
76032 Par ch=1 c=64 v=96
76041 On ch=1 n=d4 v=64
76049 On ch=1 n=f#4 v=64
76055 On ch=1 n=c5 v=64
76150 On ch=1 n=f#4 v=0
76150 On ch=1 n=d4 v=0
76150 On ch=1 n=a3 v=0
76151 On ch=1 n=c5 v=0
76152 On ch=1 n=f#4 v=64
76152 On ch=1 n=d4 v=64
76152 On ch=1 n=d6 v=64
76152 On ch=1 n=d7 v=64
76232 Par ch=1 c=64 v=0
76270 On ch=1 n=d7 v=0
76270 On ch=1 n=d6 v=0
76270 On ch=1 n=d4 v=0
76270 On ch=1 n=f#4 v=0
76270 On ch=1 n=d6 v=0
76270 On ch=1 n=d5 v=0
76270 On ch=1 n=f#5 v=0
76272 On ch=1 n=g4 v=64
76272 On ch=1 n=d4 v=64
76272 On ch=1 n=g3 v=64
76272 On ch=1 n=b5 v=64
76272 On ch=1 n=d5 v=64
76272 On ch=1 n=b4 v=64
76272 Par ch=1 c=64 v=96
76390 On ch=1 n=g3 v=0
76390 On ch=1 n=d4 v=0
76390 On ch=1 n=g4 v=0
76392 On ch=1 n=g5 v=64
76392 On ch=1 n=d5 v=64
76392 On ch=1 n=b4 v=64
76392 On ch=1 n=b6 v=64
76392 On ch=1 n=d6 v=64
76392 On ch=1 n=b5 v=64
76510 On ch=1 n=d6 v=0
76510 On ch=1 n=b6 v=0
76510 On ch=1 n=g5 v=0
76510 On ch=1 n=b4 v=0
76510 On ch=1 n=d5 v=0
76510 On ch=1 n=b5 v=0
76512 On ch=1 n=g6 v=64
76512 On ch=1 n=d6 v=64
76512 On ch=1 n=b5 v=64
76512 On ch=1 n=b6 v=64
76512 On ch=1 n=d7 v=64
76512 On ch=1 n=b7 v=64
76630 On ch=1 n=b7 v=0
76630 On ch=1 n=d7 v=0
76630 On ch=1 n=b6 v=0
76630 On ch=1 n=d6 v=0
76630 On ch=1 n=g6 v=0
76630 On ch=1 n=b5 v=0
76632 On ch=1 n=g5 v=64
76632 On ch=1 n=d5 v=64
76632 On ch=1 n=b4 v=64
76632 On ch=1 n=b6 v=64
76632 On ch=1 n=d6 v=64
76632 On ch=1 n=b5 v=64
76712 Par ch=1 c=64 v=0
76750 On ch=1 n=b5 v=0
76750 On ch=1 n=d6 v=0
76750 On ch=1 n=b6 v=0
76750 On ch=1 n=b4 v=0
76750 On ch=1 n=d5 v=0
76750 On ch=1 n=g5 v=0
76750 On ch=1 n=b5 v=0
76750 On ch=1 n=b4 v=0
76750 On ch=1 n=d5 v=0
76752 On ch=1 n=e3 v=64
76752 On ch=1 n=e4 v=64
76752 On ch=1 n=g6 v=64
76752 On ch=1 n=b5 v=64
76752 On ch=1 n=g5 v=64
76752 Par ch=1 c=64 v=96
76872 On ch=1 n=g5 v=64
76872 On ch=1 n=b4 v=64
76872 On ch=1 n=g6 v=64
76872 On ch=1 n=b6 v=64
76872 On ch=1 n=g7 v=64
76990 On ch=1 n=g7 v=0
76990 On ch=1 n=b6 v=0
76990 On ch=1 n=g6 v=0
76990 On ch=1 n=b4 v=0
76990 On ch=1 n=g5 v=0
76990 On ch=1 n=g5 v=0
76990 On ch=1 n=b5 v=0
76990 On ch=1 n=g6 v=0
76990 On ch=1 n=e4 v=0
76990 On ch=1 n=e3 v=0
76992 On ch=1 n=g3 v=64
76992 On ch=1 n=g4 v=64
76992 On ch=1 n=e6 v=64
76992 On ch=1 n=g5 v=64
76992 On ch=1 n=e5 v=64
77112 On ch=1 n=e5 v=64
77112 On ch=1 n=b4 v=64
77112 On ch=1 n=e7 v=64
77112 On ch=1 n=g6 v=64
77112 On ch=1 n=e6 v=64
77192 Par ch=1 c=64 v=0
77230 On ch=1 n=e6 v=0
77230 On ch=1 n=g6 v=0
77230 On ch=1 n=e7 v=0
77230 On ch=1 n=b4 v=0
77230 On ch=1 n=e5 v=0
77230 On ch=1 n=e5 v=0
77230 On ch=1 n=g5 v=0
77230 On ch=1 n=e6 v=0
77230 On ch=1 n=g4 v=0
77230 On ch=1 n=g3 v=0
77232 On ch=1 n=a3 v=64
77232 On ch=1 n=a2 v=64
77232 On ch=1 n=c6 v=64
77232 On ch=1 n=e5 v=64
77232 On ch=1 n=c5 v=64
77232 Par ch=1 c=64 v=96
77352 On ch=1 n=e4 v=64
77352 On ch=1 n=c5 v=64
77352 On ch=1 n=c7 v=64
77352 On ch=1 n=e6 v=64
77352 On ch=1 n=c6 v=64
77470 On ch=1 n=c6 v=0
77470 On ch=1 n=e6 v=0
77470 On ch=1 n=c7 v=0
77470 On ch=1 n=c5 v=0
77470 On ch=1 n=e4 v=0
77470 On ch=1 n=c5 v=0
77470 On ch=1 n=e5 v=0
77470 On ch=1 n=c6 v=0
77470 On ch=1 n=a2 v=0
77470 On ch=1 n=a3 v=0
77472 On ch=1 n=c4 v=64
77472 On ch=1 n=c3 v=64
77472 On ch=1 n=a5 v=64
77472 On ch=1 n=c5 v=64
77472 On ch=1 n=a4 v=64
77592 On ch=1 n=a4 v=64
77592 On ch=1 n=e4 v=64
77592 On ch=1 n=a6 v=64
77592 On ch=1 n=c6 v=64
77592 On ch=1 n=a5 v=64
77672 Par ch=1 c=64 v=0
77710 On ch=1 n=a5 v=0
77710 On ch=1 n=c6 v=0
77710 On ch=1 n=a6 v=0
77710 On ch=1 n=e4 v=0
77710 On ch=1 n=a4 v=0
77710 On ch=1 n=a4 v=0
77710 On ch=1 n=c5 v=0
77710 On ch=1 n=a5 v=0
77710 On ch=1 n=c3 v=0
77710 On ch=1 n=c4 v=0
77712 On ch=1 n=d4 v=64
77712 On ch=1 n=d3 v=64
77712 On ch=1 n=g5 v=64
77712 On ch=1 n=b4 v=64
77712 On ch=1 n=g4 v=64
77712 Par ch=1 c=64 v=96
77832 On ch=1 n=b3 v=64
77832 On ch=1 n=g3 v=64
77832 On ch=1 n=g6 v=64
77832 On ch=1 n=b5 v=64
77832 On ch=1 n=g5 v=64
77950 On ch=1 n=g5 v=0
77950 On ch=1 n=b5 v=0
77950 On ch=1 n=g6 v=0
77950 On ch=1 n=g3 v=0
77950 On ch=1 n=b3 v=0
77950 On ch=1 n=g4 v=0
77950 On ch=1 n=b4 v=0
77950 On ch=1 n=g5 v=0
77950 On ch=1 n=d3 v=0
77950 On ch=1 n=d4 v=0
77952 On ch=1 n=g4 v=64
77952 On ch=1 n=d3 v=64
77952 On ch=1 n=b5 v=64
77952 On ch=1 n=d5 v=64
77952 On ch=1 n=b4 v=64
78072 On ch=1 n=b3 v=64
78072 On ch=1 n=g3 v=64
78072 On ch=1 n=b6 v=64
78072 On ch=1 n=d6 v=64
78072 On ch=1 n=b5 v=64
78152 Par ch=1 c=64 v=0
78190 On ch=1 n=b5 v=0
78190 On ch=1 n=d6 v=0
78190 On ch=1 n=b6 v=0
78190 On ch=1 n=g3 v=0
78190 On ch=1 n=b3 v=0
78190 On ch=1 n=b4 v=0
78190 On ch=1 n=d5 v=0
78190 On ch=1 n=b5 v=0
78190 On ch=1 n=d3 v=0
78190 On ch=1 n=g4 v=0
78192 Tempo 1428571
78192 Par ch=1 c=7 v=110
78192 On ch=1 n=d4 v=64
78192 On ch=1 n=g3 v=64
78192 On ch=1 n=d3 v=64
78192 On ch=1 n=d6 v=64
78192 On ch=1 n=g5 v=64
78192 On ch=1 n=d5 v=64
78192 On ch=1 n=a#3 v=64
78192 On ch=1 n=a#5 v=64
78192 Par ch=1 c=64 v=96
78312 On ch=1 n=d5 v=64
78312 On ch=1 n=g4 v=64
78312 On ch=1 n=d4 v=64
78312 On ch=1 n=d7 v=64
78312 On ch=1 n=g6 v=64
78312 On ch=1 n=d6 v=64
78312 On ch=1 n=a#4 v=64
78312 On ch=1 n=a#6 v=64
78335 Par ch=1 c=7 v=111
78430 On ch=1 n=a#6 v=0
78430 On ch=1 n=a#4 v=0
78430 On ch=1 n=g6 v=0
78430 On ch=1 n=d7 v=0
78430 On ch=1 n=g4 v=0
78430 On ch=1 n=d5 v=0
78430 On ch=1 n=d6 v=0
78430 On ch=1 n=d4 v=0
78431 Tempo 1463415
78432 On ch=1 n=d6 v=64
78432 On ch=1 n=g5 v=64
78432 On ch=1 n=d5 v=64
78432 On ch=1 n=d8 v=64
78432 On ch=1 n=g7 v=64
78432 On ch=1 n=d7 v=64
78432 On ch=1 n=a#5 v=64
78432 On ch=1 n=a#7 v=64
78479 Par ch=1 c=7 v=112
78550 On ch=1 n=a#7 v=0
78550 On ch=1 n=d7 v=0
78550 On ch=1 n=g7 v=0
78550 On ch=1 n=d8 v=0
78550 On ch=1 n=d6 v=0
78550 On ch=1 n=d5 v=0
78550 On ch=1 n=a#5 v=0
78550 On ch=1 n=g5 v=0
78552 On ch=1 n=d5 v=64
78552 On ch=1 n=g4 v=64
78552 On ch=1 n=d4 v=64
78552 On ch=1 n=d7 v=64
78552 On ch=1 n=g6 v=64
78552 On ch=1 n=d6 v=64
78552 On ch=1 n=a#4 v=64
78552 On ch=1 n=a#6 v=64
78623 Par ch=1 c=7 v=113
78632 Par ch=1 c=64 v=0
78670 On ch=1 n=a#6 v=0
78670 On ch=1 n=a#4 v=0
78670 On ch=1 n=d6 v=0
78670 On ch=1 n=g6 v=0
78670 On ch=1 n=d7 v=0
78670 On ch=1 n=d4 v=0
78670 On ch=1 n=g4 v=0
78670 On ch=1 n=d5 v=0
78670 On ch=1 n=a#5 v=0
78670 On ch=1 n=d5 v=0
78670 On ch=1 n=g5 v=0
78670 On ch=1 n=d6 v=0
78670 On ch=1 n=d4 v=0
78670 On ch=1 n=a#3 v=0
78670 On ch=1 n=d3 v=0
78670 On ch=1 n=g3 v=0
78671 Tempo 1500000
78672 On ch=1 n=d4 v=64
78672 On ch=1 n=a3 v=64
78672 On ch=1 n=g3 v=64
78672 On ch=1 n=d3 v=64
78672 On ch=1 n=d6 v=64
78672 On ch=1 n=a5 v=64
78672 On ch=1 n=g5 v=64
78672 On ch=1 n=d5 v=64
78672 Par ch=1 c=64 v=96
78767 Par ch=1 c=7 v=114
78792 On ch=1 n=d5 v=64
78792 On ch=1 n=a4 v=64
78792 On ch=1 n=g4 v=64
78792 On ch=1 n=d4 v=64
78792 On ch=1 n=d7 v=64
78792 On ch=1 n=a6 v=64
78792 On ch=1 n=g6 v=64
78792 On ch=1 n=d6 v=64
78910 On ch=1 n=g6 v=0
78910 On ch=1 n=a6 v=0
78910 On ch=1 n=d7 v=0
78910 On ch=1 n=g4 v=0
78910 On ch=1 n=a4 v=0
78910 On ch=1 n=d5 v=0
78910 On ch=1 n=d6 v=0
78910 On ch=1 n=d4 v=0
78911 Tempo 1538462
78911 Par ch=1 c=7 v=115
78912 On ch=1 n=d6 v=64
78912 On ch=1 n=a5 v=64
78912 On ch=1 n=g5 v=64
78912 On ch=1 n=d5 v=64
78912 On ch=1 n=d8 v=64
78912 On ch=1 n=a7 v=64
78912 On ch=1 n=g7 v=64
78912 On ch=1 n=d7 v=64
79030 On ch=1 n=d7 v=0
79030 On ch=1 n=g7 v=0
79030 On ch=1 n=a7 v=0
79030 On ch=1 n=d8 v=0
79030 On ch=1 n=d6 v=0
79030 On ch=1 n=d5 v=0
79030 On ch=1 n=g5 v=0
79030 On ch=1 n=a5 v=0
79032 On ch=1 n=d5 v=64
79032 On ch=1 n=a4 v=64
79032 On ch=1 n=g4 v=64
79032 On ch=1 n=d4 v=64
79032 On ch=1 n=d7 v=64
79032 On ch=1 n=a6 v=64
79032 On ch=1 n=g6 v=64
79032 On ch=1 n=d6 v=64
79055 Par ch=1 c=7 v=116
79112 Par ch=1 c=64 v=0
79150 On ch=1 n=d6 v=0
79150 On ch=1 n=g6 v=0
79150 On ch=1 n=a6 v=0
79150 On ch=1 n=d7 v=0
79150 On ch=1 n=d4 v=0
79150 On ch=1 n=g4 v=0
79150 On ch=1 n=a4 v=0
79150 On ch=1 n=d5 v=0
79150 On ch=1 n=d5 v=0
79150 On ch=1 n=g5 v=0
79150 On ch=1 n=a5 v=0
79150 On ch=1 n=d6 v=0
79150 On ch=1 n=d4 v=0
79150 On ch=1 n=d3 v=0
79150 On ch=1 n=g3 v=0
79150 On ch=1 n=a3 v=0
79151 Tempo 1578947
79152 On ch=1 n=d4 v=64
79152 On ch=1 n=a3 v=64
79152 On ch=1 n=f#3 v=64
79152 On ch=1 n=d3 v=64
79152 On ch=1 n=d6 v=64
79152 On ch=1 n=a5 v=64
79152 On ch=1 n=f#5 v=64
79152 On ch=1 n=d5 v=64
79152 Par ch=1 c=64 v=96
79199 Par ch=1 c=7 v=117
79272 On ch=1 n=d5 v=64
79272 On ch=1 n=a4 v=64
79272 On ch=1 n=f#4 v=64
79272 On ch=1 n=d4 v=64
79272 On ch=1 n=d7 v=64
79272 On ch=1 n=a6 v=64
79272 On ch=1 n=f#6 v=64
79272 On ch=1 n=d6 v=64
79343 Par ch=1 c=7 v=118
79390 On ch=1 n=f#6 v=0
79390 On ch=1 n=a6 v=0
79390 On ch=1 n=d7 v=0
79390 On ch=1 n=f#4 v=0
79390 On ch=1 n=a4 v=0
79390 On ch=1 n=d5 v=0
79390 On ch=1 n=d6 v=0
79390 On ch=1 n=d4 v=0
79391 Tempo 1621622
79392 On ch=1 n=d6 v=64
79392 On ch=1 n=a5 v=64
79392 On ch=1 n=f#5 v=64
79392 On ch=1 n=d5 v=64
79392 On ch=1 n=d8 v=64
79392 On ch=1 n=a7 v=64
79392 On ch=1 n=f#7 v=64
79392 On ch=1 n=d7 v=64
79487 Par ch=1 c=7 v=119
79510 On ch=1 n=d7 v=0
79510 On ch=1 n=f#7 v=0
79510 On ch=1 n=a7 v=0
79510 On ch=1 n=d8 v=0
79510 On ch=1 n=d6 v=0
79510 On ch=1 n=d5 v=0
79510 On ch=1 n=f#5 v=0
79510 On ch=1 n=a5 v=0
79512 On ch=1 n=d5 v=64
79512 On ch=1 n=a4 v=64
79512 On ch=1 n=f#4 v=64
79512 On ch=1 n=d4 v=64
79512 On ch=1 n=d7 v=64
79512 On ch=1 n=a6 v=64
79512 On ch=1 n=f#6 v=64
79512 On ch=1 n=d6 v=64
79592 Par ch=1 c=64 v=0
79630 On ch=1 n=d6 v=0
79630 On ch=1 n=f#6 v=0
79630 On ch=1 n=a6 v=0
79630 On ch=1 n=d7 v=0
79630 On ch=1 n=d4 v=0
79630 On ch=1 n=f#4 v=0
79630 On ch=1 n=a4 v=0
79630 On ch=1 n=d5 v=0
79630 On ch=1 n=d5 v=0
79630 On ch=1 n=f#5 v=0
79630 On ch=1 n=a5 v=0
79630 On ch=1 n=d6 v=0
79630 On ch=1 n=d4 v=0
79630 On ch=1 n=d3 v=0
79630 On ch=1 n=f#3 v=0
79630 On ch=1 n=a3 v=0
79631 Tempo 1666667
79631 Par ch=1 c=7 v=120
79632 Tempo 1666667
79632 On ch=1 n=g3 v=64
79632 On ch=1 n=d3 v=64
79632 On ch=1 n=b2 v=64
79632 On ch=1 n=g2 v=64
79632 On ch=1 n=g5 v=64
79632 On ch=1 n=d5 v=64
79632 On ch=1 n=b4 v=64
79632 On ch=1 n=g4 v=64
79632 Par ch=1 c=64 v=96
79750 On ch=1 n=g4 v=0
79750 On ch=1 n=b4 v=0
79750 On ch=1 n=d5 v=0
79750 On ch=1 n=g5 v=0
79750 On ch=1 n=g2 v=0
79750 On ch=1 n=b2 v=0
79750 On ch=1 n=d3 v=0
79750 On ch=1 n=g3 v=0
79752 On ch=1 n=g4 v=64
79752 On ch=1 n=d4 v=64
79752 On ch=1 n=b3 v=64
79752 On ch=1 n=g3 v=64
79752 On ch=1 n=g6 v=64
79752 On ch=1 n=d6 v=64
79752 On ch=1 n=b5 v=64
79752 On ch=1 n=g5 v=64
79870 On ch=1 n=g5 v=0
79870 On ch=1 n=b5 v=0
79870 On ch=1 n=d6 v=0
79870 On ch=1 n=g6 v=0
79870 On ch=1 n=g3 v=0
79870 On ch=1 n=b3 v=0
79870 On ch=1 n=d4 v=0
79870 On ch=1 n=g4 v=0
79872 On ch=1 n=g5 v=64
79872 On ch=1 n=d5 v=64
79872 On ch=1 n=b4 v=64
79872 On ch=1 n=g4 v=64
79872 On ch=1 n=g7 v=64
79872 On ch=1 n=d7 v=64
79872 On ch=1 n=b6 v=64
79872 On ch=1 n=g6 v=64
79990 On ch=1 n=g6 v=0
79990 On ch=1 n=b6 v=0
79990 On ch=1 n=d7 v=0
79990 On ch=1 n=g7 v=0
79990 On ch=1 n=g4 v=0
79990 On ch=1 n=b4 v=0
79990 On ch=1 n=d5 v=0
79990 On ch=1 n=g5 v=0
79992 On ch=1 n=g4 v=64
79992 On ch=1 n=d4 v=64
79992 On ch=1 n=b3 v=64
79992 On ch=1 n=g3 v=64
79992 On ch=1 n=g6 v=64
79992 On ch=1 n=d6 v=64
79992 On ch=1 n=b5 v=64
79992 On ch=1 n=g5 v=64
80110 On ch=1 n=g5 v=0
80110 On ch=1 n=b5 v=0
80110 On ch=1 n=d6 v=0
80110 On ch=1 n=g6 v=0
80110 On ch=1 n=g3 v=0
80110 On ch=1 n=b3 v=0
80110 On ch=1 n=d4 v=0
80110 On ch=1 n=g4 v=0
80112 On ch=1 n=g3 v=64
80112 On ch=1 n=d3 v=64
80112 On ch=1 n=b2 v=64
80112 On ch=1 n=g2 v=64
80112 On ch=1 n=g5 v=64
80112 On ch=1 n=d5 v=64
80112 On ch=1 n=b4 v=64
80112 On ch=1 n=g4 v=64
80312 Par ch=1 c=64 v=0
80350 On ch=1 n=g4 v=0
80350 On ch=1 n=b4 v=0
80350 On ch=1 n=d5 v=0
80350 On ch=1 n=g5 v=0
80350 On ch=1 n=g2 v=0
80350 On ch=1 n=b2 v=0
80350 On ch=1 n=d3 v=0
80350 On ch=1 n=g3 v=0
80352 Tempo 1428571
80352 Par ch=1 c=7 v=120
80352 On ch=1 n=g2 v=64
80352 On ch=1 n=g3 v=64
80352 On ch=1 n=g4 v=64
80352 On ch=1 n=g5 v=64
80352 Par ch=1 c=64 v=96
80369 Par ch=1 c=7 v=119
80387 Par ch=1 c=7 v=118
80405 Par ch=1 c=7 v=117
80423 Par ch=1 c=7 v=116
80441 Par ch=1 c=7 v=115
80459 Par ch=1 c=7 v=114
80477 Par ch=1 c=7 v=113
80495 Par ch=1 c=7 v=112
80513 Par ch=1 c=7 v=111
80530 On ch=1 n=g5 v=0
80530 On ch=1 n=g4 v=0
80530 On ch=1 n=g3 v=0
80530 On ch=1 n=g2 v=0
80531 Par ch=1 c=7 v=110
80532 On ch=1 n=g2 v=64
80532 On ch=1 n=g3 v=64
80532 On ch=1 n=g4 v=64
80532 On ch=1 n=g5 v=64
80549 Par ch=1 c=7 v=109
80567 Par ch=1 c=7 v=108
80585 Par ch=1 c=7 v=107
80590 On ch=1 n=g5 v=0
80590 On ch=1 n=g4 v=0
80590 On ch=1 n=g3 v=0
80590 On ch=1 n=g2 v=0
80592 On ch=1 n=g2 v=64
80592 On ch=1 n=g3 v=64
80592 On ch=1 n=g4 v=64
80592 On ch=1 n=g5 v=64
80603 Par ch=1 c=7 v=106
80621 Par ch=1 c=7 v=105
80639 Par ch=1 c=7 v=104
80657 Par ch=1 c=7 v=103
80675 Par ch=1 c=7 v=102
80693 Par ch=1 c=7 v=101
80711 Par ch=1 c=7 v=100
80729 Par ch=1 c=7 v=99
80747 Par ch=1 c=7 v=98
80765 Par ch=1 c=7 v=97
80783 Par ch=1 c=7 v=96
80801 Par ch=1 c=7 v=95
80819 Par ch=1 c=7 v=94
80830 On ch=1 n=g5 v=0
80830 On ch=1 n=g4 v=0
80830 On ch=1 n=g3 v=0
80830 On ch=1 n=g2 v=0
80832 On ch=1 n=g2 v=64
80832 On ch=1 n=g3 v=64
80832 On ch=1 n=g4 v=64
80832 On ch=1 n=g5 v=64
80837 Par ch=1 c=7 v=93
80855 Par ch=1 c=7 v=92
80873 Par ch=1 c=7 v=91
80891 Par ch=1 c=7 v=90
80909 Par ch=1 c=7 v=89
80927 Par ch=1 c=7 v=88
80945 Par ch=1 c=7 v=87
80963 Par ch=1 c=7 v=86
80981 Par ch=1 c=7 v=85
80999 Par ch=1 c=7 v=84
81017 Par ch=1 c=7 v=83
81032 Par ch=1 c=64 v=0
81035 Par ch=1 c=7 v=82
81053 Par ch=1 c=7 v=81
81070 On ch=1 n=g5 v=0
81070 On ch=1 n=g4 v=0
81070 On ch=1 n=g3 v=0
81070 On ch=1 n=g2 v=0
81071 Par ch=1 c=7 v=80
81072 On ch=1 n=d5 v=64
81072 On ch=1 n=b4 v=64
81072 On ch=1 n=g4 v=64
81072 On ch=1 n=f4 v=64
81072 Par ch=1 c=64 v=96
81112 On ch=1 n=g5 v=64
81150 On ch=1 n=g5 v=0
81152 On ch=1 n=b5 v=64
81190 On ch=1 n=b5 v=0
81192 On ch=1 n=d6 v=64
81230 On ch=1 n=d6 v=0
81232 On ch=1 n=g6 v=64
81270 On ch=1 n=g6 v=0
81272 On ch=1 n=b6 v=64
81310 On ch=1 n=b6 v=0
81312 On ch=1 n=g7 v=64
81312 On ch=1 n=g3 v=64
81344 On ch=1 n=g7 v=0
81346 On ch=1 n=b6 v=64
81379 On ch=1 n=b6 v=0
81381 On ch=1 n=g6 v=64
81413 On ch=1 n=g6 v=0
81415 On ch=1 n=d6 v=64
81430 On ch=1 n=g3 v=0
81447 On ch=1 n=d6 v=0
81449 On ch=1 n=b5 v=64
81481 On ch=1 n=b5 v=0
81483 On ch=1 n=g5 v=64
81512 Par ch=1 c=64 v=0
81516 On ch=1 n=g5 v=0
81518 On ch=1 n=d5 v=64
81550 On ch=1 n=d5 v=0
81550 On ch=1 n=f4 v=0
81550 On ch=1 n=g4 v=0
81550 On ch=1 n=b4 v=0
81550 On ch=1 n=d5 v=0
81552 On ch=1 n=g4 v=64
81552 On ch=1 n=e4 v=64
81552 On ch=1 n=c#5 v=64
81552 On ch=1 n=a#4 v=64
81552 Par ch=1 c=64 v=96
81592 On ch=1 n=g5 v=64
81630 On ch=1 n=g5 v=0
81632 On ch=1 n=a#5 v=64
81670 On ch=1 n=a#5 v=0
81672 On ch=1 n=c#6 v=64
81710 On ch=1 n=c#6 v=0
81712 On ch=1 n=g6 v=64
81750 On ch=1 n=g6 v=0
81752 On ch=1 n=a#6 v=64
81790 On ch=1 n=a#6 v=0
81792 On ch=1 n=g7 v=64
81792 On ch=1 n=g3 v=64
81824 On ch=1 n=g7 v=0
81826 On ch=1 n=a#6 v=64
81859 On ch=1 n=a#6 v=0
81861 On ch=1 n=g6 v=64
81893 On ch=1 n=g6 v=0
81895 On ch=1 n=c#6 v=64
81910 On ch=1 n=g3 v=0
81927 On ch=1 n=c#6 v=0
81929 On ch=1 n=a#5 v=64
81961 On ch=1 n=a#5 v=0
81963 On ch=1 n=g5 v=64
81992 Par ch=1 c=64 v=0
81996 On ch=1 n=g5 v=0
81998 On ch=1 n=c#5 v=64
82030 On ch=1 n=c#5 v=0
82030 On ch=1 n=a#4 v=0
82030 On ch=1 n=c#5 v=0
82030 On ch=1 n=e4 v=0
82030 On ch=1 n=g4 v=0
82032 On ch=1 n=d5 v=64
82032 On ch=1 n=b4 v=64
82032 On ch=1 n=g4 v=64
82032 On ch=1 n=f4 v=64
82032 Par ch=1 c=64 v=96
82072 On ch=1 n=g5 v=64
82110 On ch=1 n=g5 v=0
82112 On ch=1 n=b5 v=64
82150 On ch=1 n=b5 v=0
82152 On ch=1 n=d6 v=64
82190 On ch=1 n=d6 v=0
82192 On ch=1 n=g6 v=64
82230 On ch=1 n=g6 v=0
82232 On ch=1 n=b6 v=64
82270 On ch=1 n=b6 v=0
82272 On ch=1 n=g7 v=64
82272 On ch=1 n=g3 v=64
82304 On ch=1 n=g7 v=0
82306 On ch=1 n=b6 v=64
82339 On ch=1 n=b6 v=0
82341 On ch=1 n=g6 v=64
82373 On ch=1 n=g6 v=0
82375 On ch=1 n=d6 v=64
82390 On ch=1 n=g3 v=0
82407 On ch=1 n=d6 v=0
82409 On ch=1 n=b5 v=64
82441 On ch=1 n=b5 v=0
82443 On ch=1 n=g5 v=64
82472 Par ch=1 c=64 v=0
82476 On ch=1 n=g5 v=0
82478 On ch=1 n=d5 v=64
82510 On ch=1 n=d5 v=0
82510 On ch=1 n=f4 v=0
82510 On ch=1 n=g4 v=0
82510 On ch=1 n=b4 v=0
82510 On ch=1 n=d5 v=0
82512 On ch=1 n=g5 v=64
82512 On ch=1 n=c#5 v=64
82512 On ch=1 n=a#4 v=64
82512 On ch=1 n=d#4 v=64
82512 Par ch=1 c=64 v=96
82542 On ch=1 n=c#7 v=64
82570 On ch=1 n=c#7 v=0
82572 On ch=1 n=g7 v=64
82600 On ch=1 n=g7 v=0
82602 On ch=1 n=a#7 v=64
82630 On ch=1 n=a#7 v=0
82632 On ch=1 n=d#8 v=64
82660 On ch=1 n=d#8 v=0
82662 On ch=1 n=a#7 v=64
82690 On ch=1 n=a#7 v=0
82692 On ch=1 n=g7 v=64
82720 On ch=1 n=g7 v=0
82722 On ch=1 n=c#7 v=64
82750 On ch=1 n=c#7 v=0
82752 On ch=1 n=c#8 v=64
82752 On ch=1 n=g2 v=64
82780 On ch=1 n=c#8 v=0
82782 On ch=1 n=g7 v=64
82810 On ch=1 n=g7 v=0
82812 On ch=1 n=d#7 v=64
82840 On ch=1 n=d#7 v=0
82842 On ch=1 n=a#6 v=64
82870 On ch=1 n=a#6 v=0
82870 On ch=1 n=g2 v=0
82872 On ch=1 n=a#7 v=64
82900 On ch=1 n=a#7 v=0
82902 On ch=1 n=d#7 v=64
82930 On ch=1 n=d#7 v=0
82932 On ch=1 n=c#7 v=64
82960 On ch=1 n=c#7 v=0
82962 On ch=1 n=g6 v=64
82990 On ch=1 n=g6 v=0
82992 Par ch=1 c=7 v=80
82992 On ch=1 n=g7 v=64
82992 On ch=1 n=g2 v=64
83020 On ch=1 n=g7 v=0
83022 On ch=1 n=c#7 v=64
83050 On ch=1 n=c#7 v=0
83052 On ch=1 n=a#6 v=64
83080 On ch=1 n=a#6 v=0
83082 On ch=1 n=d#6 v=64
83110 On ch=1 n=d#6 v=0
83110 On ch=1 n=g2 v=0
83112 On ch=1 n=d#7 v=64
83140 On ch=1 n=d#7 v=0
83142 On ch=1 n=a#6 v=64
83170 On ch=1 n=a#6 v=0
83172 On ch=1 n=g6 v=64
83183 Par ch=1 c=7 v=79
83200 On ch=1 n=g6 v=0
83202 On ch=1 n=c#6 v=64
83230 On ch=1 n=c#6 v=0
83232 On ch=1 n=c#7 v=64
83232 On ch=1 n=g2 v=64
83260 On ch=1 n=c#7 v=0
83262 On ch=1 n=g6 v=64
83290 On ch=1 n=g6 v=0
83292 On ch=1 n=d#6 v=64
83320 On ch=1 n=d#6 v=0
83322 On ch=1 n=a#5 v=64
83350 On ch=1 n=a#5 v=0
83350 On ch=1 n=g2 v=0
83352 On ch=1 n=a#6 v=64
83375 Par ch=1 c=7 v=78
83380 On ch=1 n=a#6 v=0
83382 On ch=1 n=d#6 v=64
83410 On ch=1 n=d#6 v=0
83412 On ch=1 n=c#6 v=64
83440 On ch=1 n=c#6 v=0
83442 On ch=1 n=g5 v=64
83470 On ch=1 n=g5 v=0
83472 On ch=1 n=g6 v=64
83472 On ch=1 n=g2 v=64
83500 On ch=1 n=g6 v=0
83502 On ch=1 n=c#6 v=64
83530 On ch=1 n=c#6 v=0
83532 On ch=1 n=a#5 v=64
83560 On ch=1 n=a#5 v=0
83562 On ch=1 n=d#5 v=64
83567 Par ch=1 c=7 v=77
83590 On ch=1 n=d#5 v=0
83590 On ch=1 n=g2 v=0
83592 On ch=1 n=d#6 v=64
83620 On ch=1 n=d#6 v=0
83622 On ch=1 n=a#5 v=64
83650 On ch=1 n=a#5 v=0
83652 On ch=1 n=g5 v=64
83680 On ch=1 n=g5 v=0
83682 On ch=1 n=c#5 v=64
83710 On ch=1 n=c#5 v=0
83712 On ch=1 n=c#6 v=64
83712 On ch=1 n=g2 v=64
83740 On ch=1 n=c#6 v=0
83742 On ch=1 n=g5 v=64
83759 Par ch=1 c=7 v=76
83770 On ch=1 n=g5 v=0
83772 On ch=1 n=d#5 v=64
83800 On ch=1 n=d#5 v=0
83802 On ch=1 n=a#4 v=64
83830 On ch=1 n=g2 v=0
83830 On ch=1 n=a#4 v=0
83832 On ch=1 n=a#5 v=64
83860 On ch=1 n=a#5 v=0
83862 On ch=1 n=d#5 v=64
83890 On ch=1 n=d#5 v=0
83892 On ch=1 n=c#5 v=64
83912 Par ch=1 c=64 v=0
83920 On ch=1 n=c#5 v=0
83922 On ch=1 n=g4 v=64
83950 On ch=1 n=g4 v=0
83950 On ch=1 n=c#5 v=0
83950 On ch=1 n=a#4 v=0
83950 On ch=1 n=g5 v=0
83950 On ch=1 n=d#4 v=0
83951 Par ch=1 c=7 v=75
83952 Par ch=1 c=7 v=80
83952 On ch=1 n=c4 v=64
83952 Par ch=1 c=64 v=96
83962 On ch=1 n=g4 v=64
83969 On ch=1 n=a4 v=64
83974 On ch=1 n=d#5 v=64
83992 On ch=1 n=g5 v=64
84030 On ch=1 n=g5 v=0
84032 On ch=1 n=a5 v=64
84070 On ch=1 n=a5 v=0
84072 On ch=1 n=d#6 v=64
84110 On ch=1 n=d#6 v=0
84112 On ch=1 n=g6 v=64
84150 On ch=1 n=g6 v=0
84152 On ch=1 n=a6 v=64
84190 On ch=1 n=a6 v=0
84192 On ch=1 n=d#7 v=64
84192 On ch=1 n=g2 v=64
84224 On ch=1 n=d#7 v=0
84226 On ch=1 n=a6 v=64
84259 On ch=1 n=a6 v=0
84261 On ch=1 n=g6 v=64
84293 On ch=1 n=g6 v=0
84295 On ch=1 n=d#6 v=64
84310 On ch=1 n=g2 v=0
84327 On ch=1 n=d#6 v=0
84329 On ch=1 n=a5 v=64
84361 On ch=1 n=a5 v=0
84363 On ch=1 n=g5 v=64
84392 Par ch=1 c=64 v=0
84396 On ch=1 n=g5 v=0
84398 On ch=1 n=d#5 v=64
84429 On ch=1 n=g4 v=0
84430 On ch=1 n=d#5 v=0
84430 On ch=1 n=c4 v=0
84431 On ch=1 n=d#5 v=0
84431 On ch=1 n=a4 v=0
84432 On ch=1 n=b3 v=64
84432 Par ch=1 c=64 v=96
84438 On ch=1 n=g4 v=66
84447 On ch=1 n=a4 v=64
84456 On ch=1 n=d5 v=63
84472 On ch=1 n=g5 v=64
84510 On ch=1 n=g5 v=0
84512 On ch=1 n=a5 v=64
84550 On ch=1 n=a5 v=0
84552 On ch=1 n=d6 v=64
84590 On ch=1 n=d6 v=0
84592 On ch=1 n=g6 v=64
84630 On ch=1 n=g6 v=0
84632 On ch=1 n=a6 v=64
84670 On ch=1 n=a6 v=0
84672 On ch=1 n=d7 v=64
84672 On ch=1 n=g2 v=64
84704 On ch=1 n=d7 v=0
84706 On ch=1 n=a6 v=64
84739 On ch=1 n=a6 v=0
84741 On ch=1 n=g6 v=64
84773 On ch=1 n=g6 v=0
84775 On ch=1 n=d6 v=64
84790 On ch=1 n=g2 v=0
84807 On ch=1 n=d6 v=0
84809 On ch=1 n=a5 v=64
84841 On ch=1 n=a5 v=0
84843 On ch=1 n=g5 v=64
84872 Par ch=1 c=64 v=0
84876 On ch=1 n=g5 v=0
84878 On ch=1 n=d5 v=64
84910 On ch=1 n=d5 v=0
84910 On ch=1 n=b3 v=0
84911 On ch=1 n=a4 v=0
84911 On ch=1 n=g4 v=0
84912 On ch=1 n=d5 v=0
84912 On ch=1 n=c4 v=64
84912 Par ch=1 c=64 v=96
84920 On ch=1 n=g4 v=65
84926 On ch=1 n=a4 v=65
84934 On ch=1 n=d#5 v=62
84952 On ch=1 n=g5 v=64
84990 On ch=1 n=g5 v=0
84992 On ch=1 n=a5 v=64
85030 On ch=1 n=a5 v=0
85032 On ch=1 n=d#6 v=64
85070 On ch=1 n=d#6 v=0
85072 On ch=1 n=g6 v=64
85110 On ch=1 n=g6 v=0
85112 On ch=1 n=a6 v=64
85150 On ch=1 n=a6 v=0
85152 On ch=1 n=d#7 v=64
85152 On ch=1 n=g2 v=64
85184 On ch=1 n=d#7 v=0
85186 On ch=1 n=a6 v=64
85219 On ch=1 n=a6 v=0
85221 On ch=1 n=g6 v=64
85253 On ch=1 n=g6 v=0
85255 On ch=1 n=d#6 v=64
85270 On ch=1 n=g2 v=0
85287 On ch=1 n=d#6 v=0
85289 On ch=1 n=a5 v=64
85321 On ch=1 n=a5 v=0
85323 On ch=1 n=g5 v=64
85352 Par ch=1 c=64 v=0
85356 On ch=1 n=g5 v=0
85358 On ch=1 n=d#5 v=64
85390 On ch=1 n=d#5 v=0
85390 On ch=1 n=d#5 v=0
85390 On ch=1 n=c4 v=0
85391 On ch=1 n=a4 v=0
85392 On ch=1 n=g4 v=0
85392 On ch=1 n=g4 v=64
85392 Par ch=1 c=64 v=96
85399 On ch=1 n=b4 v=65
85402 On ch=1 n=d5 v=65
85408 On ch=1 n=g5 v=64
85416 On ch=1 n=b5 v=63
85422 On ch=1 n=g6 v=64
85450 On ch=1 n=g6 v=0
85452 On ch=1 n=b6 v=64
85480 On ch=1 n=b6 v=0
85482 On ch=1 n=d7 v=64
85510 On ch=1 n=d7 v=0
85512 On ch=1 n=b7 v=64
85540 On ch=1 n=b7 v=0
85542 On ch=1 n=g7 v=64
85570 On ch=1 n=g7 v=0
85572 On ch=1 n=d7 v=64
85600 On ch=1 n=d7 v=0
85602 On ch=1 n=b6 v=64
85630 On ch=1 n=b6 v=0
85632 On ch=1 n=g7 v=64
85632 On ch=1 n=g2 v=64
85660 On ch=1 n=g7 v=0
85662 On ch=1 n=d7 v=64
85690 On ch=1 n=d7 v=0
85692 On ch=1 n=b6 v=64
85720 On ch=1 n=b6 v=0
85722 On ch=1 n=g6 v=64
85750 On ch=1 n=g6 v=0
85750 On ch=1 n=g2 v=0
85752 On ch=1 n=d7 v=64
85780 On ch=1 n=d7 v=0
85782 On ch=1 n=b6 v=64
85810 On ch=1 n=b6 v=0
85812 On ch=1 n=g6 v=64
85840 On ch=1 n=g6 v=0
85842 On ch=1 n=d6 v=64
85870 On ch=1 n=d6 v=0
85872 Par ch=1 c=7 v=80
85872 On ch=1 n=b6 v=64
85872 On ch=1 n=g2 v=64
85900 On ch=1 n=b6 v=0
85902 On ch=1 n=g6 v=64
85930 On ch=1 n=g6 v=0
85932 On ch=1 n=d6 v=64
85960 On ch=1 n=d6 v=0
85962 On ch=1 n=b5 v=64
85990 On ch=1 n=g2 v=0
85990 On ch=1 n=b5 v=0
85992 On ch=1 n=g6 v=64
86020 On ch=1 n=g6 v=0
86022 On ch=1 n=d6 v=64
86050 On ch=1 n=d6 v=0
86052 On ch=1 n=b5 v=64
86063 Par ch=1 c=7 v=79
86080 On ch=1 n=b5 v=0
86082 On ch=1 n=g5 v=64
86110 On ch=1 n=g5 v=0
86112 On ch=1 n=d6 v=64
86112 On ch=1 n=g2 v=64
86140 On ch=1 n=d6 v=0
86142 On ch=1 n=b5 v=64
86170 On ch=1 n=b5 v=0
86172 On ch=1 n=g5 v=64
86200 On ch=1 n=g5 v=0
86202 On ch=1 n=d5 v=64
86230 On ch=1 n=g2 v=0
86230 On ch=1 n=d5 v=0
86232 On ch=1 n=b5 v=64
86255 Par ch=1 c=7 v=78
86260 On ch=1 n=b5 v=0
86262 On ch=1 n=g5 v=64
86290 On ch=1 n=g5 v=0
86292 On ch=1 n=d5 v=64
86320 On ch=1 n=d5 v=0
86322 On ch=1 n=b4 v=64
86350 On ch=1 n=b4 v=0
86352 On ch=1 n=g5 v=64
86352 On ch=1 n=g2 v=64
86380 On ch=1 n=g5 v=0
86382 On ch=1 n=d5 v=64
86410 On ch=1 n=d5 v=0
86412 On ch=1 n=b4 v=64
86440 On ch=1 n=b4 v=0
86442 On ch=1 n=g4 v=64
86447 Par ch=1 c=7 v=77
86470 On ch=1 n=g2 v=0
86470 On ch=1 n=g4 v=0
86472 On ch=1 n=d5 v=64
86500 On ch=1 n=d5 v=0
86502 On ch=1 n=b4 v=64
86530 On ch=1 n=b4 v=0
86532 On ch=1 n=g4 v=64
86560 On ch=1 n=g4 v=0
86562 On ch=1 n=d4 v=64
86590 On ch=1 n=d4 v=0
86592 On ch=1 n=b4 v=64
86592 On ch=1 n=g2 v=64
86630 On ch=1 n=b4 v=0
86632 On ch=1 n=d4 v=64
86639 Par ch=1 c=7 v=76
86670 On ch=1 n=d4 v=0
86672 On ch=1 n=b3 v=64
86710 On ch=1 n=b3 v=0
86710 On ch=1 n=g2 v=0
86712 On ch=1 n=g4 v=64
86750 On ch=1 n=g4 v=0
86752 On ch=1 n=d4 v=64
86790 On ch=1 n=d4 v=0
86792 On ch=1 n=b3 v=64
86792 Par ch=1 c=64 v=0
86830 On ch=1 n=b3 v=0
86830 On ch=1 n=g4 v=0
86830 On ch=1 n=b5 v=0
86831 On ch=1 n=d5 v=0
86831 Par ch=1 c=7 v=75
86832 On ch=1 n=b4 v=0
86832 On ch=1 n=g5 v=0
86832 Par ch=1 c=7 v=80
86832 On ch=1 n=d4 v=64
86832 On ch=1 n=b3 v=64
86832 On ch=1 n=g#3 v=64
86832 On ch=1 n=f3 v=64
86832 Par ch=1 c=64 v=96
86872 On ch=1 n=g#4 v=64
86910 On ch=1 n=g#4 v=0
86912 On ch=1 n=b4 v=64
86950 On ch=1 n=b4 v=0
86952 On ch=1 n=d5 v=64
86990 On ch=1 n=d5 v=0
86992 On ch=1 n=g#5 v=64
87030 On ch=1 n=g#5 v=0
87032 On ch=1 n=b5 v=64
87070 On ch=1 n=b5 v=0
87072 On ch=1 n=g#6 v=64
87072 On ch=1 n=g2 v=64
87104 On ch=1 n=g#6 v=0
87106 On ch=1 n=d6 v=64
87139 On ch=1 n=d6 v=0
87141 On ch=1 n=b5 v=64
87173 On ch=1 n=b5 v=0
87175 On ch=1 n=g#5 v=64
87190 On ch=1 n=g2 v=0
87207 On ch=1 n=g#5 v=0
87209 On ch=1 n=d5 v=64
87241 On ch=1 n=d5 v=0
87243 On ch=1 n=b4 v=64
87272 Par ch=1 c=64 v=0
87276 On ch=1 n=b4 v=0
87278 On ch=1 n=g#4 v=64
87310 On ch=1 n=g#4 v=0
87310 On ch=1 n=f3 v=0
87310 On ch=1 n=g#3 v=0
87310 On ch=1 n=b3 v=0
87310 On ch=1 n=d4 v=0
87312 On ch=1 n=b3 v=64
87312 On ch=1 n=e3 v=64
87312 On ch=1 n=c#4 v=64
87312 On ch=1 n=g#3 v=64
87312 Par ch=1 c=64 v=96
87352 On ch=1 n=g#4 v=64
87390 On ch=1 n=g#4 v=0
87392 On ch=1 n=b4 v=64
87430 On ch=1 n=b4 v=0
87432 On ch=1 n=c#5 v=64
87470 On ch=1 n=c#5 v=0
87472 On ch=1 n=g#5 v=64
87510 On ch=1 n=g#5 v=0
87512 On ch=1 n=b5 v=64
87550 On ch=1 n=b5 v=0
87552 On ch=1 n=g#6 v=64
87552 On ch=1 n=g2 v=64
87584 On ch=1 n=g#6 v=0
87586 On ch=1 n=c#6 v=64
87619 On ch=1 n=c#6 v=0
87621 On ch=1 n=b5 v=64
87653 On ch=1 n=b5 v=0
87655 On ch=1 n=g#5 v=64
87670 On ch=1 n=g2 v=0
87687 On ch=1 n=g#5 v=0
87689 On ch=1 n=c#5 v=64
87721 On ch=1 n=c#5 v=0
87723 On ch=1 n=b4 v=64
87752 Par ch=1 c=64 v=0
87756 On ch=1 n=b4 v=0
87758 On ch=1 n=g#4 v=64
87790 On ch=1 n=g#4 v=0
87790 On ch=1 n=g#3 v=0
87790 On ch=1 n=c#4 v=0
87790 On ch=1 n=e3 v=0
87790 On ch=1 n=b3 v=0
87792 On ch=1 n=d4 v=64
87792 On ch=1 n=b3 v=64
87792 On ch=1 n=g#3 v=64
87792 On ch=1 n=f3 v=64
87792 Par ch=1 c=64 v=96
87832 On ch=1 n=g#4 v=64
87870 On ch=1 n=g#4 v=0
87872 On ch=1 n=b4 v=64
87910 On ch=1 n=b4 v=0
87912 On ch=1 n=d5 v=64
87950 On ch=1 n=d5 v=0
87952 On ch=1 n=g#5 v=64
87990 On ch=1 n=g#5 v=0
87992 On ch=1 n=b5 v=64
88030 On ch=1 n=b5 v=0
88032 On ch=1 n=g#6 v=64
88032 On ch=1 n=g2 v=64
88064 On ch=1 n=g#6 v=0
88066 On ch=1 n=d6 v=64
88099 On ch=1 n=d6 v=0
88101 On ch=1 n=b5 v=64
88133 On ch=1 n=b5 v=0
88135 On ch=1 n=g#5 v=64
88150 On ch=1 n=g2 v=0
88167 On ch=1 n=g#5 v=0
88169 On ch=1 n=d5 v=64
88201 On ch=1 n=d5 v=0
88203 On ch=1 n=b4 v=64
88232 Par ch=1 c=64 v=0
88236 On ch=1 n=b4 v=0
88238 On ch=1 n=g#4 v=64
88270 On ch=1 n=g#4 v=0
88270 On ch=1 n=f3 v=0
88270 On ch=1 n=g#3 v=0
88270 On ch=1 n=b3 v=0
88270 On ch=1 n=d4 v=0
88272 On ch=1 n=g3 v=64
88272 On ch=1 n=a#4 v=64
88272 On ch=1 n=d#4 v=64
88272 On ch=1 n=c#4 v=64
88272 Par ch=1 c=64 v=96
88302 On ch=1 n=c#6 v=64
88330 On ch=1 n=c#6 v=0
88332 On ch=1 n=g6 v=64
88360 On ch=1 n=g6 v=0
88362 On ch=1 n=a#6 v=64
88390 On ch=1 n=a#6 v=0
88392 On ch=1 n=d#7 v=64
88430 On ch=1 n=d#7 v=0
88432 On ch=1 n=g6 v=64
88432 On ch=1 n=a#6 v=64
88470 On ch=1 n=a#6 v=0
88470 On ch=1 n=g6 v=0
88472 On ch=1 n=c#6 v=64
88510 On ch=1 n=c#6 v=0
88512 On ch=1 n=c#7 v=64
88512 On ch=1 n=g2 v=64
88550 On ch=1 n=c#7 v=0
88552 On ch=1 n=g6 v=64
88552 On ch=1 n=d#6 v=64
88590 On ch=1 n=d#6 v=0
88590 On ch=1 n=g6 v=0
88592 On ch=1 n=a#5 v=64
88630 On ch=1 n=a#5 v=0
88630 On ch=1 n=g2 v=0
88632 On ch=1 n=a#6 v=64
88670 On ch=1 n=a#6 v=0
88672 On ch=1 n=d#6 v=64
88672 On ch=1 n=c#6 v=64
88710 On ch=1 n=c#6 v=0
88710 On ch=1 n=d#6 v=0
88712 On ch=1 n=g5 v=64
88750 On ch=1 n=g5 v=0
88752 Par ch=1 c=7 v=80
88752 On ch=1 n=g6 v=64
88752 On ch=1 n=g2 v=64
88790 On ch=1 n=g6 v=0
88792 On ch=1 n=c#6 v=64
88792 On ch=1 n=a#5 v=64
88830 On ch=1 n=a#5 v=0
88830 On ch=1 n=c#6 v=0
88832 On ch=1 n=d#5 v=64
88870 On ch=1 n=d#5 v=0
88870 On ch=1 n=g2 v=0
88872 On ch=1 n=d#6 v=64
88910 On ch=1 n=d#6 v=0
88912 On ch=1 n=g5 v=64
88912 On ch=1 n=a#5 v=64
88943 Par ch=1 c=7 v=79
88950 On ch=1 n=a#5 v=0
88950 On ch=1 n=g5 v=0
88952 On ch=1 n=c#5 v=64
88990 On ch=1 n=c#5 v=0
88992 On ch=1 n=c#6 v=64
88992 On ch=1 n=g2 v=64
89030 On ch=1 n=c#6 v=0
89032 On ch=1 n=g5 v=64
89032 On ch=1 n=d#5 v=64
89070 On ch=1 n=d#5 v=0
89070 On ch=1 n=g5 v=0
89072 On ch=1 n=a#4 v=64
89110 On ch=1 n=g2 v=0
89110 On ch=1 n=a#4 v=0
89112 On ch=1 n=a#5 v=64
89135 Par ch=1 c=7 v=78
89150 On ch=1 n=a#5 v=0
89152 On ch=1 n=d#5 v=64
89152 On ch=1 n=c#5 v=64
89190 On ch=1 n=c#5 v=0
89190 On ch=1 n=d#5 v=0
89192 On ch=1 n=g4 v=64
89230 On ch=1 n=g4 v=0
89232 On ch=1 n=g5 v=64
89232 On ch=1 n=g2 v=64
89270 On ch=1 n=g5 v=0
89272 On ch=1 n=a#4 v=64
89272 On ch=1 n=c#5 v=64
89310 On ch=1 n=c#5 v=0
89310 On ch=1 n=a#4 v=0
89312 On ch=1 n=d#4 v=64
89327 Par ch=1 c=7 v=77
89350 On ch=1 n=g2 v=0
89350 On ch=1 n=d#4 v=0
89352 On ch=1 n=d#5 v=64
89390 On ch=1 n=d#5 v=0
89392 On ch=1 n=g4 v=64
89392 On ch=1 n=a#4 v=64
89430 On ch=1 n=g4 v=0
89430 On ch=1 n=a#4 v=0
89432 On ch=1 n=c#4 v=64
89470 On ch=1 n=c#4 v=0
89472 On ch=1 n=c#5 v=64
89472 On ch=1 n=g2 v=64
89510 On ch=1 n=c#5 v=0
89512 On ch=1 n=g4 v=64
89512 On ch=1 n=d#4 v=64
89519 Par ch=1 c=7 v=76
89550 On ch=1 n=g4 v=0
89550 On ch=1 n=d#4 v=0
89552 On ch=1 n=a#3 v=64
89590 On ch=1 n=a#3 v=0
89590 On ch=1 n=g2 v=0
89592 On ch=1 n=a#4 v=64
89630 On ch=1 n=a#4 v=0
89632 On ch=1 n=d#4 v=64
89632 On ch=1 n=c#4 v=64
89670 On ch=1 n=d#4 v=0
89670 On ch=1 n=c#4 v=0
89672 On ch=1 n=g3 v=64
89672 Par ch=1 c=64 v=0
89710 On ch=1 n=g3 v=0
89710 On ch=1 n=c#4 v=0
89710 On ch=1 n=d#4 v=0
89710 On ch=1 n=a#4 v=0
89710 On ch=1 n=g3 v=0
89711 Par ch=1 c=7 v=75
89712 Par ch=1 c=7 v=80
89712 On ch=1 n=c4 v=64
89712 On ch=1 n=a3 v=64
89712 On ch=1 n=f#3 v=64
89712 On ch=1 n=d#4 v=64
89712 Par ch=1 c=64 v=96
89760 On ch=1 n=f#4 v=64
89806 On ch=1 n=f#4 v=0
89808 On ch=1 n=a4 v=64
89854 On ch=1 n=a4 v=0
89856 On ch=1 n=d#5 v=64
89902 On ch=1 n=d#5 v=0
89904 On ch=1 n=f#5 v=64
89950 On ch=1 n=f#5 v=0
89952 On ch=1 n=d#6 v=64
89952 On ch=1 n=g2 v=64
89984 On ch=1 n=d#6 v=0
89986 On ch=1 n=a5 v=64
90019 On ch=1 n=a5 v=0
90021 On ch=1 n=f#5 v=64
90053 On ch=1 n=f#5 v=0
90055 On ch=1 n=d#5 v=64
90070 On ch=1 n=g2 v=0
90087 On ch=1 n=d#5 v=0
90089 On ch=1 n=a4 v=64
90121 On ch=1 n=a4 v=0
90123 On ch=1 n=f#4 v=64
90152 Par ch=1 c=64 v=0
90156 On ch=1 n=f#4 v=0
90158 On ch=1 n=d#4 v=64
90190 On ch=1 n=d#4 v=0
90190 On ch=1 n=d#4 v=0
90190 On ch=1 n=f#3 v=0
90190 On ch=1 n=a3 v=0
90190 On ch=1 n=c4 v=0
90192 On ch=1 n=d4 v=64
90192 On ch=1 n=c4 v=64
90192 On ch=1 n=a3 v=64
90192 On ch=1 n=f#3 v=64
90192 Par ch=1 c=64 v=96
90240 On ch=1 n=f#4 v=64
90286 On ch=1 n=f#4 v=0
90288 On ch=1 n=a4 v=64
90334 On ch=1 n=a4 v=0
90336 On ch=1 n=d5 v=64
90382 On ch=1 n=d5 v=0
90384 On ch=1 n=f#5 v=64
90430 On ch=1 n=f#5 v=0
90432 On ch=1 n=d6 v=64
90432 On ch=1 n=g2 v=64
90464 On ch=1 n=d6 v=0
90466 On ch=1 n=a5 v=64
90499 On ch=1 n=a5 v=0
90501 On ch=1 n=f#5 v=64
90533 On ch=1 n=f#5 v=0
90535 On ch=1 n=d5 v=64
90550 On ch=1 n=g2 v=0
90567 On ch=1 n=d5 v=0
90569 On ch=1 n=a4 v=64
90601 On ch=1 n=a4 v=0
90603 On ch=1 n=f#4 v=64
90632 Par ch=1 c=64 v=0
90636 On ch=1 n=f#4 v=0
90638 On ch=1 n=d4 v=64
90670 On ch=1 n=d4 v=0
90670 On ch=1 n=f#3 v=0
90670 On ch=1 n=a3 v=0
90670 On ch=1 n=c4 v=0
90670 On ch=1 n=d4 v=0
90672 On ch=1 n=c4 v=64
90672 On ch=1 n=a3 v=64
90672 On ch=1 n=f#3 v=64
90672 On ch=1 n=d#4 v=64
90672 Par ch=1 c=64 v=96
90720 On ch=1 n=f#4 v=64
90766 On ch=1 n=f#4 v=0
90768 On ch=1 n=a4 v=64
90814 On ch=1 n=a4 v=0
90816 On ch=1 n=d#5 v=64
90862 On ch=1 n=d#5 v=0
90864 On ch=1 n=f#5 v=64
90910 On ch=1 n=f#5 v=0
90912 On ch=1 n=d#6 v=64
90912 On ch=1 n=g2 v=64
90944 On ch=1 n=d#6 v=0
90946 On ch=1 n=a5 v=64
90979 On ch=1 n=a5 v=0
90981 On ch=1 n=f#5 v=64
91013 On ch=1 n=f#5 v=0
91015 On ch=1 n=d#5 v=64
91030 On ch=1 n=g2 v=0
91047 On ch=1 n=d#5 v=0
91049 On ch=1 n=a4 v=64
91081 On ch=1 n=a4 v=0
91083 On ch=1 n=f#4 v=64
91112 Par ch=1 c=64 v=0
91116 On ch=1 n=f#4 v=0
91118 On ch=1 n=d#4 v=64
91150 On ch=1 n=d#4 v=0
91150 On ch=1 n=d#4 v=0
91150 On ch=1 n=f#3 v=0
91150 On ch=1 n=a3 v=0
91150 On ch=1 n=c4 v=0
91152 On ch=1 n=b4 v=64
91152 On ch=1 n=d4 v=64
91152 On ch=1 n=b3 v=64
91152 On ch=1 n=g3 v=64
91152 Par ch=1 c=64 v=96
91182 On ch=1 n=g5 v=64
91210 On ch=1 n=g5 v=0
91212 On ch=1 n=b5 v=64
91240 On ch=1 n=b5 v=0
91242 On ch=1 n=d6 v=64
91270 On ch=1 n=d6 v=0
91272 On ch=1 n=b6 v=64
91310 On ch=1 n=b6 v=0
91312 On ch=1 n=d6 v=64
91312 On ch=1 n=g6 v=64
91350 On ch=1 n=g6 v=0
91350 On ch=1 n=d6 v=0
91352 On ch=1 n=b5 v=64
91390 On ch=1 n=b5 v=0
91392 On ch=1 n=g6 v=64
91392 On ch=1 n=g2 v=64
91430 On ch=1 n=g6 v=0
91432 On ch=1 n=b5 v=64
91432 On ch=1 n=d6 v=64
91470 On ch=1 n=d6 v=0
91470 On ch=1 n=b5 v=0
91472 On ch=1 n=g5 v=64
91510 On ch=1 n=g5 v=0
91510 On ch=1 n=g2 v=0
91512 On ch=1 n=e6 v=64
91550 On ch=1 n=e6 v=0
91552 On ch=1 n=b5 v=64
91552 On ch=1 n=g5 v=64
91590 On ch=1 n=g5 v=0
91590 On ch=1 n=b5 v=0
91592 On ch=1 n=e5 v=64
91630 On ch=1 n=e5 v=0
91632 Par ch=1 c=7 v=80
91632 On ch=1 n=d6 v=64
91632 On ch=1 n=g2 v=64
91670 On ch=1 n=d6 v=0
91672 On ch=1 n=b5 v=64
91672 On ch=1 n=g5 v=64
91710 On ch=1 n=g5 v=0
91710 On ch=1 n=b5 v=0
91712 On ch=1 n=d5 v=64
91750 On ch=1 n=d5 v=0
91750 On ch=1 n=g2 v=0
91752 On ch=1 n=b5 v=64
91790 On ch=1 n=b5 v=0
91792 On ch=1 n=g5 v=64
91792 On ch=1 n=d5 v=64
91823 Par ch=1 c=7 v=79
91830 On ch=1 n=d5 v=0
91830 On ch=1 n=g5 v=0
91832 On ch=1 n=b4 v=64
91870 On ch=1 n=b4 v=0
91872 On ch=1 n=g5 v=64
91872 On ch=1 n=g2 v=64
91910 On ch=1 n=g5 v=0
91912 On ch=1 n=d5 v=64
91912 On ch=1 n=b4 v=64
91950 On ch=1 n=d5 v=0
91950 On ch=1 n=b4 v=0
91952 On ch=1 n=g4 v=64
91990 On ch=1 n=g4 v=0
91990 On ch=1 n=g2 v=0
91992 On ch=1 n=e5 v=64
92015 Par ch=1 c=7 v=78
92030 On ch=1 n=e5 v=0
92032 On ch=1 n=g4 v=64
92032 On ch=1 n=b4 v=64
92070 On ch=1 n=g4 v=0
92070 On ch=1 n=b4 v=0
92072 On ch=1 n=e4 v=64
92110 On ch=1 n=e4 v=0
92112 On ch=1 n=d5 v=64
92112 On ch=1 n=g2 v=64
92150 On ch=1 n=d5 v=0
92152 On ch=1 n=b4 v=64
92152 On ch=1 n=g4 v=64
92190 On ch=1 n=g4 v=0
92190 On ch=1 n=b4 v=0
92192 On ch=1 n=d4 v=64
92207 Par ch=1 c=7 v=77
92230 On ch=1 n=g2 v=0
92230 On ch=1 n=d4 v=0
92232 On ch=1 n=b4 v=64
92270 On ch=1 n=b4 v=0
92272 On ch=1 n=d4 v=64
92272 On ch=1 n=g4 v=64
92310 On ch=1 n=g4 v=0
92310 On ch=1 n=d4 v=0
92312 On ch=1 n=b3 v=64
92350 On ch=1 n=b3 v=0
92352 On ch=1 n=d5 v=64
92352 On ch=1 n=g2 v=64
92390 On ch=1 n=d5 v=0
92392 On ch=1 n=b4 v=64
92392 On ch=1 n=g4 v=64
92399 Par ch=1 c=7 v=76
92430 On ch=1 n=g4 v=0
92430 On ch=1 n=b4 v=0
92432 On ch=1 n=d4 v=64
92470 On ch=1 n=g2 v=0
92470 On ch=1 n=d4 v=0
92472 On ch=1 n=e5 v=64
92510 On ch=1 n=e5 v=0
92512 On ch=1 n=b4 v=64
92512 On ch=1 n=g4 v=64
92550 On ch=1 n=g4 v=0
92550 On ch=1 n=b4 v=0
92552 On ch=1 n=e4 v=64
92552 Par ch=1 c=64 v=0
92590 On ch=1 n=e4 v=0
92590 On ch=1 n=b4 v=0
92590 On ch=1 n=d4 v=0
92590 On ch=1 n=b3 v=0
92590 On ch=1 n=g3 v=0
92591 Par ch=1 c=7 v=75
92592 Par ch=1 c=7 v=75
92592 On ch=1 n=d4 v=64
92592 On ch=1 n=b2 v=64
92592 On ch=1 n=f3 v=64
92592 Par ch=1 c=64 v=96
92630 On ch=1 n=f3 v=0
92630 On ch=1 n=b2 v=0
92632 On ch=1 n=d5 v=64
92632 On ch=1 n=g#3 v=64
92670 On ch=1 n=g#3 v=0
92670 On ch=1 n=d5 v=0
92672 On ch=1 n=d4 v=64
92672 On ch=1 n=b2 v=64
92672 On ch=1 n=f3 v=64
92710 On ch=1 n=f3 v=0
92710 On ch=1 n=b2 v=0
92710 On ch=1 n=d4 v=0
92712 On ch=1 n=d5 v=64
92712 On ch=1 n=g#3 v=64
92735 Par ch=1 c=7 v=74
92750 On ch=1 n=g#3 v=0
92750 On ch=1 n=d5 v=0
92752 On ch=1 n=d4 v=64
92752 On ch=1 n=b2 v=64
92752 On ch=1 n=f3 v=64
92790 On ch=1 n=f3 v=0
92790 On ch=1 n=b2 v=0
92790 On ch=1 n=d4 v=0
92792 On ch=1 n=d5 v=64
92792 On ch=1 n=g#3 v=64
92830 On ch=1 n=g#3 v=0
92830 On ch=1 n=d5 v=0
92832 On ch=1 n=d4 v=64
92832 On ch=1 n=b2 v=64
92832 On ch=1 n=f3 v=64
92870 On ch=1 n=f3 v=0
92870 On ch=1 n=b2 v=0
92870 On ch=1 n=d4 v=0
92872 On ch=1 n=d5 v=64
92872 On ch=1 n=g#3 v=64
92879 Par ch=1 c=7 v=73
92910 On ch=1 n=g#3 v=0
92910 On ch=1 n=d5 v=0
92912 On ch=1 n=d4 v=64
92912 On ch=1 n=b2 v=64
92912 On ch=1 n=f3 v=64
92950 On ch=1 n=f3 v=0
92950 On ch=1 n=b2 v=0
92950 On ch=1 n=d4 v=0
92952 On ch=1 n=d5 v=64
92952 On ch=1 n=g#3 v=64
92990 On ch=1 n=g#3 v=0
92990 On ch=1 n=d5 v=0
92992 On ch=1 n=d4 v=64
92992 On ch=1 n=b2 v=64
92992 On ch=1 n=f3 v=64
93023 Par ch=1 c=7 v=72
93030 On ch=1 n=f3 v=0
93030 On ch=1 n=b2 v=0
93030 On ch=1 n=d4 v=0
93032 On ch=1 n=d5 v=64
93032 On ch=1 n=g#3 v=64
93032 Par ch=1 c=64 v=0
93070 On ch=1 n=g#3 v=0
93070 On ch=1 n=d5 v=0
93070 On ch=1 n=d4 v=0
93072 On ch=1 n=b2 v=64
93072 On ch=1 n=f3 v=64
93072 On ch=1 n=c#4 v=64
93072 Par ch=1 c=64 v=96
93110 On ch=1 n=f3 v=0
93110 On ch=1 n=b2 v=0
93112 On ch=1 n=g#3 v=64
93112 On ch=1 n=c#5 v=64
93150 On ch=1 n=c#5 v=0
93150 On ch=1 n=g#3 v=0
93152 On ch=1 n=b2 v=64
93152 On ch=1 n=f3 v=64
93152 On ch=1 n=c#4 v=64
93167 Par ch=1 c=7 v=71
93190 On ch=1 n=f3 v=0
93190 On ch=1 n=b2 v=0
93190 On ch=1 n=c#4 v=0
93192 On ch=1 n=g#3 v=64
93192 On ch=1 n=c#5 v=64
93230 On ch=1 n=c#5 v=0
93230 On ch=1 n=g#3 v=0
93232 On ch=1 n=b2 v=64
93232 On ch=1 n=f3 v=64
93232 On ch=1 n=c#4 v=64
93270 On ch=1 n=f3 v=0
93270 On ch=1 n=b2 v=0
93270 On ch=1 n=c#4 v=0
93272 On ch=1 n=g#3 v=64
93272 On ch=1 n=c#5 v=64
93310 On ch=1 n=c#5 v=0
93310 On ch=1 n=g#3 v=0
93311 Par ch=1 c=7 v=70
93312 On ch=1 n=b2 v=64
93312 On ch=1 n=f3 v=64
93312 On ch=1 n=c#4 v=64
93350 On ch=1 n=f3 v=0
93350 On ch=1 n=b2 v=0
93350 On ch=1 n=c#4 v=0
93352 On ch=1 n=g#3 v=64
93352 On ch=1 n=c#5 v=64
93390 On ch=1 n=c#5 v=0
93390 On ch=1 n=g#3 v=0
93392 On ch=1 n=b2 v=64
93392 On ch=1 n=f3 v=64
93392 On ch=1 n=c#4 v=64
93430 On ch=1 n=f3 v=0
93430 On ch=1 n=b2 v=0
93430 On ch=1 n=c#4 v=0
93432 On ch=1 n=g#3 v=64
93432 On ch=1 n=c#5 v=64
93455 Par ch=1 c=7 v=69
93470 On ch=1 n=c#5 v=0
93470 On ch=1 n=g#3 v=0
93472 On ch=1 n=b2 v=64
93472 On ch=1 n=f3 v=64
93472 On ch=1 n=c#4 v=64
93510 On ch=1 n=f3 v=0
93510 On ch=1 n=b2 v=0
93510 On ch=1 n=c#4 v=0
93512 On ch=1 n=g#3 v=64
93512 On ch=1 n=c#5 v=64
93512 Par ch=1 c=64 v=0
93550 On ch=1 n=c#5 v=0
93550 On ch=1 n=g#3 v=0
93550 On ch=1 n=c#4 v=0
93552 On ch=1 n=f#3 v=64
93552 On ch=1 n=c3 v=64
93552 On ch=1 n=d#4 v=64
93552 Par ch=1 c=64 v=96
93590 On ch=1 n=c3 v=0
93590 On ch=1 n=f#3 v=0
93592 On ch=1 n=a3 v=64
93592 On ch=1 n=d#5 v=64
93599 Par ch=1 c=7 v=68
93630 On ch=1 n=d#5 v=0
93630 On ch=1 n=a3 v=0
93632 On ch=1 n=f#3 v=64
93632 On ch=1 n=c3 v=64
93632 On ch=1 n=d#4 v=64
93670 On ch=1 n=c3 v=0
93670 On ch=1 n=f#3 v=0
93670 On ch=1 n=d#4 v=0
93672 On ch=1 n=a3 v=64
93672 On ch=1 n=d#5 v=64
93710 On ch=1 n=d#5 v=0
93710 On ch=1 n=a3 v=0
93712 On ch=1 n=f#3 v=64
93712 On ch=1 n=c3 v=64
93712 On ch=1 n=d#4 v=64
93743 Par ch=1 c=7 v=67
93750 On ch=1 n=c3 v=0
93750 On ch=1 n=f#3 v=0
93750 On ch=1 n=d#4 v=0
93752 On ch=1 n=a3 v=64
93752 On ch=1 n=d#5 v=64
93790 On ch=1 n=d#5 v=0
93790 On ch=1 n=a3 v=0
93790 On ch=1 n=d#4 v=0
93792 On ch=1 n=d4 v=64
93792 On ch=1 n=f#3 v=64
93792 On ch=1 n=c3 v=64
93830 On ch=1 n=c3 v=0
93830 On ch=1 n=f#3 v=0
93832 On ch=1 n=d5 v=64
93832 On ch=1 n=a3 v=64
93852 Par ch=1 c=64 v=0
93870 On ch=1 n=a3 v=0
93870 On ch=1 n=d5 v=0
93872 On ch=1 n=d4 v=64
93872 On ch=1 n=f#3 v=64
93872 On ch=1 n=c3 v=64
93887 Par ch=1 c=7 v=66
93910 On ch=1 n=c3 v=0
93910 On ch=1 n=f#3 v=0
93910 On ch=1 n=d4 v=0
93912 On ch=1 n=d5 v=64
93912 On ch=1 n=a3 v=64
93950 On ch=1 n=a3 v=0
93950 On ch=1 n=d5 v=0
93952 On ch=1 n=d4 v=64
93952 On ch=1 n=f#3 v=64
93952 On ch=1 n=c3 v=64
93990 On ch=1 n=c3 v=0
93990 On ch=1 n=f#3 v=0
93990 On ch=1 n=d4 v=0
93992 On ch=1 n=d5 v=64
93992 On ch=1 n=a3 v=64
94030 On ch=1 n=a3 v=0
94030 On ch=1 n=d5 v=0
94030 On ch=1 n=d4 v=0
94031 Par ch=1 c=7 v=65
94032 Par ch=1 c=7 v=80
94032 On ch=1 n=b4 v=64
94032 On ch=1 n=d4 v=64
94032 On ch=1 n=b3 v=64
94032 On ch=1 n=g3 v=64
94032 Par ch=1 c=64 v=96
94072 On ch=1 n=b6 v=64
94110 On ch=1 n=b6 v=0
94112 On ch=1 n=d7 v=64
94150 On ch=1 n=d7 v=0
94152 On ch=1 n=b7 v=64
94190 On ch=1 n=b7 v=0
94192 On ch=1 n=d7 v=64
94192 On ch=1 n=g7 v=64
94230 On ch=1 n=g7 v=0
94230 On ch=1 n=d7 v=0
94232 On ch=1 n=b6 v=64
94270 On ch=1 n=b6 v=0
94272 On ch=1 n=g7 v=64
94272 On ch=1 n=g2 v=64
94310 On ch=1 n=g7 v=0
94312 On ch=1 n=b6 v=64
94312 On ch=1 n=d7 v=64
94350 On ch=1 n=d7 v=0
94350 On ch=1 n=b6 v=0
94352 On ch=1 n=g6 v=64
94390 On ch=1 n=g6 v=0
94390 On ch=1 n=g2 v=0
94392 On ch=1 n=e7 v=64
94430 On ch=1 n=e7 v=0
94432 On ch=1 n=b6 v=64
94432 On ch=1 n=g6 v=64
94470 On ch=1 n=g6 v=0
94470 On ch=1 n=b6 v=0
94472 On ch=1 n=e6 v=64
94510 On ch=1 n=e6 v=0
94512 Par ch=1 c=7 v=80
94512 On ch=1 n=d7 v=64
94512 On ch=1 n=g2 v=64
94550 On ch=1 n=d7 v=0
94552 On ch=1 n=b6 v=64
94552 On ch=1 n=g6 v=64
94590 On ch=1 n=g6 v=0
94590 On ch=1 n=b6 v=0
94592 On ch=1 n=d6 v=64
94630 On ch=1 n=d6 v=0
94630 On ch=1 n=g2 v=0
94632 On ch=1 n=b6 v=64
94670 On ch=1 n=b6 v=0
94672 On ch=1 n=g6 v=64
94672 On ch=1 n=d6 v=64
94703 Par ch=1 c=7 v=79
94710 On ch=1 n=d6 v=0
94710 On ch=1 n=g6 v=0
94712 On ch=1 n=b5 v=64
94750 On ch=1 n=b5 v=0
94752 On ch=1 n=g6 v=64
94752 On ch=1 n=g2 v=64
94790 On ch=1 n=g6 v=0
94792 On ch=1 n=d6 v=64
94792 On ch=1 n=b5 v=64
94830 On ch=1 n=b5 v=0
94830 On ch=1 n=d6 v=0
94832 On ch=1 n=g5 v=64
94870 On ch=1 n=g5 v=0
94870 On ch=1 n=g2 v=0
94872 On ch=1 n=e6 v=64
94895 Par ch=1 c=7 v=78
94910 On ch=1 n=e6 v=0
94912 On ch=1 n=g5 v=64
94912 On ch=1 n=b5 v=64
94950 On ch=1 n=b5 v=0
94950 On ch=1 n=g5 v=0
94952 On ch=1 n=e5 v=64
94990 On ch=1 n=e5 v=0
94992 On ch=1 n=d6 v=64
94992 On ch=1 n=g2 v=64
95030 On ch=1 n=d6 v=0
95032 On ch=1 n=b5 v=64
95032 On ch=1 n=g5 v=64
95070 On ch=1 n=g5 v=0
95070 On ch=1 n=b5 v=0
95072 On ch=1 n=d5 v=64
95087 Par ch=1 c=7 v=77
95110 On ch=1 n=d5 v=0
95110 On ch=1 n=g2 v=0
95112 On ch=1 n=b5 v=64
95150 On ch=1 n=b5 v=0
95152 On ch=1 n=d5 v=64
95152 On ch=1 n=g5 v=64
95190 On ch=1 n=g5 v=0
95190 On ch=1 n=d5 v=0
95192 On ch=1 n=b4 v=64
95230 On ch=1 n=b4 v=0
95232 On ch=1 n=g5 v=64
95232 On ch=1 n=g2 v=64
95270 On ch=1 n=g5 v=0
95272 On ch=1 n=d5 v=64
95272 On ch=1 n=b4 v=64
95279 Par ch=1 c=7 v=76
95310 On ch=1 n=d5 v=0
95310 On ch=1 n=b4 v=0
95312 On ch=1 n=g4 v=64
95350 On ch=1 n=g4 v=0
95350 On ch=1 n=g2 v=0
95352 On ch=1 n=e5 v=64
95390 On ch=1 n=e5 v=0
95392 On ch=1 n=b4 v=64
95392 On ch=1 n=g4 v=64
95430 On ch=1 n=g4 v=0
95430 On ch=1 n=b4 v=0
95432 On ch=1 n=e4 v=64
95432 Par ch=1 c=64 v=0
95470 On ch=1 n=e4 v=0
95470 On ch=1 n=b4 v=0
95470 On ch=1 n=g3 v=0
95470 On ch=1 n=b3 v=0
95470 On ch=1 n=d4 v=0
95471 Par ch=1 c=7 v=75
95472 Par ch=1 c=7 v=75
95472 On ch=1 n=d4 v=64
95472 On ch=1 n=b2 v=64
95472 On ch=1 n=f3 v=64
95472 Par ch=1 c=64 v=96
95510 On ch=1 n=f3 v=0
95510 On ch=1 n=b2 v=0
95512 On ch=1 n=d5 v=64
95512 On ch=1 n=g#3 v=64
95550 On ch=1 n=g#3 v=0
95550 On ch=1 n=d5 v=0
95552 On ch=1 n=d4 v=64
95552 On ch=1 n=b2 v=64
95552 On ch=1 n=f3 v=64
95590 On ch=1 n=f3 v=0
95590 On ch=1 n=b2 v=0
95590 On ch=1 n=d4 v=0
95592 On ch=1 n=d5 v=64
95592 On ch=1 n=g#3 v=64
95615 Par ch=1 c=7 v=74
95630 On ch=1 n=g#3 v=0
95630 On ch=1 n=d5 v=0
95632 On ch=1 n=d4 v=64
95632 On ch=1 n=b2 v=64
95632 On ch=1 n=f3 v=64
95670 On ch=1 n=f3 v=0
95670 On ch=1 n=b2 v=0
95670 On ch=1 n=d4 v=0
95672 On ch=1 n=d5 v=64
95672 On ch=1 n=g#3 v=64
95710 On ch=1 n=g#3 v=0
95710 On ch=1 n=d5 v=0
95712 On ch=1 n=d4 v=64
95712 On ch=1 n=b2 v=64
95712 On ch=1 n=f3 v=64
95750 On ch=1 n=f3 v=0
95750 On ch=1 n=b2 v=0
95750 On ch=1 n=d4 v=0
95752 On ch=1 n=d5 v=64
95752 On ch=1 n=g#3 v=64
95759 Par ch=1 c=7 v=73
95790 On ch=1 n=g#3 v=0
95790 On ch=1 n=d5 v=0
95792 On ch=1 n=d4 v=64
95792 On ch=1 n=b2 v=64
95792 On ch=1 n=f3 v=64
95830 On ch=1 n=f3 v=0
95830 On ch=1 n=b2 v=0
95830 On ch=1 n=d4 v=0
95832 On ch=1 n=d5 v=64
95832 On ch=1 n=g#3 v=64
95870 On ch=1 n=g#3 v=0
95870 On ch=1 n=d5 v=0
95872 On ch=1 n=d4 v=64
95872 On ch=1 n=b2 v=64
95872 On ch=1 n=f3 v=64
95903 Par ch=1 c=7 v=72
95910 On ch=1 n=f3 v=0
95910 On ch=1 n=b2 v=0
95910 On ch=1 n=d4 v=0
95912 On ch=1 n=d5 v=64
95912 On ch=1 n=g#3 v=64
95912 Par ch=1 c=64 v=0
95950 On ch=1 n=g#3 v=0
95950 On ch=1 n=d5 v=0
95950 On ch=1 n=d4 v=0
95952 On ch=1 n=b2 v=64
95952 On ch=1 n=f3 v=64
95952 On ch=1 n=c#4 v=64
95952 Par ch=1 c=64 v=96
95990 On ch=1 n=f3 v=0
95990 On ch=1 n=b2 v=0
95992 On ch=1 n=g#3 v=64
95992 On ch=1 n=c#5 v=64
96030 On ch=1 n=c#5 v=0
96030 On ch=1 n=g#3 v=0
96032 On ch=1 n=b2 v=64
96032 On ch=1 n=f3 v=64
96032 On ch=1 n=c#4 v=64
96047 Par ch=1 c=7 v=71
96070 On ch=1 n=f3 v=0
96070 On ch=1 n=b2 v=0
96070 On ch=1 n=c#4 v=0
96072 On ch=1 n=g#3 v=64
96072 On ch=1 n=c#5 v=64
96110 On ch=1 n=c#5 v=0
96110 On ch=1 n=g#3 v=0
96112 On ch=1 n=b2 v=64
96112 On ch=1 n=f3 v=64
96112 On ch=1 n=c#4 v=64
96150 On ch=1 n=f3 v=0
96150 On ch=1 n=b2 v=0
96150 On ch=1 n=c#4 v=0
96152 On ch=1 n=g#3 v=64
96152 On ch=1 n=c#5 v=64
96190 On ch=1 n=c#5 v=0
96190 On ch=1 n=g#3 v=0
96191 Par ch=1 c=7 v=70
96192 On ch=1 n=b2 v=64
96192 On ch=1 n=f3 v=64
96192 On ch=1 n=c#4 v=64
96230 On ch=1 n=f3 v=0
96230 On ch=1 n=b2 v=0
96230 On ch=1 n=c#4 v=0
96232 On ch=1 n=g#3 v=64
96232 On ch=1 n=c#5 v=64
96270 On ch=1 n=c#5 v=0
96270 On ch=1 n=g#3 v=0
96272 On ch=1 n=b2 v=64
96272 On ch=1 n=f3 v=64
96272 On ch=1 n=c#4 v=64
96310 On ch=1 n=f3 v=0
96310 On ch=1 n=b2 v=0
96310 On ch=1 n=c#4 v=0
96312 On ch=1 n=g#3 v=64
96312 On ch=1 n=c#5 v=64
96335 Par ch=1 c=7 v=69
96350 On ch=1 n=c#5 v=0
96350 On ch=1 n=g#3 v=0
96352 On ch=1 n=b2 v=64
96352 On ch=1 n=f3 v=64
96352 On ch=1 n=c#4 v=64
96390 On ch=1 n=f3 v=0
96390 On ch=1 n=b2 v=0
96390 On ch=1 n=c#4 v=0
96392 On ch=1 n=g#3 v=64
96392 On ch=1 n=c#5 v=64
96392 Par ch=1 c=64 v=0
96430 On ch=1 n=c#5 v=0
96430 On ch=1 n=g#3 v=0
96430 On ch=1 n=c#4 v=0
96432 On ch=1 n=f#3 v=64
96432 On ch=1 n=c3 v=64
96432 On ch=1 n=d#4 v=64
96432 Par ch=1 c=64 v=96
96470 On ch=1 n=c3 v=0
96470 On ch=1 n=f#3 v=0
96472 On ch=1 n=a3 v=64
96472 On ch=1 n=d#5 v=64
96479 Par ch=1 c=7 v=68
96510 On ch=1 n=d#5 v=0
96510 On ch=1 n=a3 v=0
96512 On ch=1 n=f#3 v=64
96512 On ch=1 n=c3 v=64
96512 On ch=1 n=d#4 v=64
96550 On ch=1 n=c3 v=0
96550 On ch=1 n=f#3 v=0
96550 On ch=1 n=d#4 v=0
96552 On ch=1 n=a3 v=64
96552 On ch=1 n=d#5 v=64
96590 On ch=1 n=d#5 v=0
96590 On ch=1 n=a3 v=0
96592 On ch=1 n=f#3 v=64
96592 On ch=1 n=c3 v=64
96592 On ch=1 n=d#4 v=64
96623 Par ch=1 c=7 v=67
96630 On ch=1 n=c3 v=0
96630 On ch=1 n=f#3 v=0
96630 On ch=1 n=d#4 v=0
96632 On ch=1 n=a3 v=64
96632 On ch=1 n=d#5 v=64
96670 On ch=1 n=d#5 v=0
96670 On ch=1 n=a3 v=0
96670 On ch=1 n=d#4 v=0
96672 On ch=1 n=d4 v=64
96672 On ch=1 n=f#3 v=64
96672 On ch=1 n=c3 v=64
96710 On ch=1 n=c3 v=0
96710 On ch=1 n=f#3 v=0
96712 On ch=1 n=d5 v=64
96712 On ch=1 n=a3 v=64
96732 Par ch=1 c=64 v=0
96750 On ch=1 n=a3 v=0
96750 On ch=1 n=d5 v=0
96752 On ch=1 n=d4 v=64
96752 On ch=1 n=f#3 v=64
96752 On ch=1 n=c3 v=64
96767 Par ch=1 c=7 v=66
96790 On ch=1 n=c3 v=0
96790 On ch=1 n=f#3 v=0
96790 On ch=1 n=d4 v=0
96792 On ch=1 n=d5 v=64
96792 On ch=1 n=a3 v=64
96830 On ch=1 n=a3 v=0
96830 On ch=1 n=d5 v=0
96832 On ch=1 n=d4 v=64
96832 On ch=1 n=f#3 v=64
96832 On ch=1 n=c3 v=64
96870 On ch=1 n=c3 v=0
96870 On ch=1 n=f#3 v=0
96870 On ch=1 n=d4 v=0
96872 On ch=1 n=d5 v=64
96872 On ch=1 n=a3 v=64
96910 On ch=1 n=a3 v=0
96910 On ch=1 n=d5 v=0
96910 On ch=1 n=d4 v=0
96911 Par ch=1 c=7 v=65
96912 Par ch=1 c=7 v=65
96912 On ch=1 n=b2 v=64
96912 On ch=1 n=g2 v=64
96912 On ch=1 n=b5 v=64
96912 On ch=1 n=g5 v=64
96912 Par ch=1 c=64 v=96
96950 On ch=1 n=g5 v=0
96950 On ch=1 n=b5 v=0
96950 On ch=1 n=g2 v=0
96950 On ch=1 n=b2 v=0
96952 On ch=1 n=g3 v=64
96952 On ch=1 n=d3 v=64
96952 On ch=1 n=d5 v=64
96952 On ch=1 n=b4 v=64
96964 Par ch=1 c=7 v=66
96990 On ch=1 n=b4 v=0
96990 On ch=1 n=d5 v=0
96990 On ch=1 n=d3 v=0
96990 On ch=1 n=g3 v=0
96992 On ch=1 n=b2 v=64
96992 On ch=1 n=g2 v=64
96992 On ch=1 n=b5 v=64
96992 On ch=1 n=g5 v=64
97016 Par ch=1 c=7 v=67
97030 On ch=1 n=g5 v=0
97030 On ch=1 n=b5 v=0
97030 On ch=1 n=g2 v=0
97030 On ch=1 n=b2 v=0
97032 On ch=1 n=d3 v=64
97032 On ch=1 n=g3 v=64
97032 On ch=1 n=d5 v=64
97032 On ch=1 n=b4 v=64
97069 Par ch=1 c=7 v=68
97070 On ch=1 n=b4 v=0
97070 On ch=1 n=d5 v=0
97070 On ch=1 n=g3 v=0
97070 On ch=1 n=d3 v=0
97072 On ch=1 n=b2 v=64
97072 On ch=1 n=g2 v=64
97072 On ch=1 n=b5 v=64
97072 On ch=1 n=g5 v=64
97110 On ch=1 n=g5 v=0
97110 On ch=1 n=b5 v=0
97110 On ch=1 n=g2 v=0
97110 On ch=1 n=b2 v=0
97112 On ch=1 n=d3 v=64
97112 On ch=1 n=g3 v=64
97112 On ch=1 n=d5 v=64
97112 On ch=1 n=b4 v=64
97121 Par ch=1 c=7 v=69
97150 On ch=1 n=b4 v=0
97150 On ch=1 n=d5 v=0
97150 On ch=1 n=g3 v=0
97150 On ch=1 n=d3 v=0
97152 On ch=1 n=b2 v=64
97152 On ch=1 n=g2 v=64
97152 On ch=1 n=b5 v=64
97152 On ch=1 n=g5 v=64
97173 Par ch=1 c=7 v=70
97190 On ch=1 n=g5 v=0
97190 On ch=1 n=b5 v=0
97190 On ch=1 n=g2 v=0
97190 On ch=1 n=b2 v=0
97192 On ch=1 n=d3 v=64
97192 On ch=1 n=g3 v=64
97192 On ch=1 n=d5 v=64
97192 On ch=1 n=b4 v=64
97226 Par ch=1 c=7 v=71
97230 On ch=1 n=b4 v=0
97230 On ch=1 n=d5 v=0
97230 On ch=1 n=g3 v=0
97230 On ch=1 n=d3 v=0
97232 On ch=1 n=b2 v=64
97232 On ch=1 n=g2 v=64
97232 On ch=1 n=b5 v=64
97232 On ch=1 n=g5 v=64
97270 On ch=1 n=g5 v=0
97270 On ch=1 n=b5 v=0
97270 On ch=1 n=g2 v=0
97270 On ch=1 n=b2 v=0
97272 On ch=1 n=d3 v=64
97272 On ch=1 n=g3 v=64
97272 On ch=1 n=d5 v=64
97272 On ch=1 n=b4 v=64
97278 Par ch=1 c=7 v=72
97310 On ch=1 n=b4 v=0
97310 On ch=1 n=d5 v=0
97310 On ch=1 n=g3 v=0
97310 On ch=1 n=d3 v=0
97312 On ch=1 n=b2 v=64
97312 On ch=1 n=g2 v=64
97312 On ch=1 n=b5 v=64
97312 On ch=1 n=g5 v=64
97330 Par ch=1 c=7 v=73
97350 On ch=1 n=g5 v=0
97350 On ch=1 n=b5 v=0
97350 On ch=1 n=g2 v=0
97350 On ch=1 n=b2 v=0
97352 On ch=1 n=d3 v=64
97352 On ch=1 n=g3 v=64
97352 On ch=1 n=d5 v=64
97352 On ch=1 n=b4 v=64
97383 Par ch=1 c=7 v=74
97390 On ch=1 n=b4 v=0
97390 On ch=1 n=d5 v=0
97390 On ch=1 n=g3 v=0
97390 On ch=1 n=d3 v=0
97392 On ch=1 n=b2 v=64
97392 On ch=1 n=g2 v=64
97392 On ch=1 n=b5 v=64
97392 On ch=1 n=g5 v=64
97430 On ch=1 n=g5 v=0
97430 On ch=1 n=b5 v=0
97430 On ch=1 n=g2 v=0
97430 On ch=1 n=b2 v=0
97432 On ch=1 n=d3 v=64
97432 On ch=1 n=g3 v=64
97432 On ch=1 n=d5 v=64
97432 On ch=1 n=b4 v=64
97435 Par ch=1 c=7 v=75
97470 On ch=1 n=b4 v=0
97470 On ch=1 n=d5 v=0
97470 On ch=1 n=g3 v=0
97470 On ch=1 n=d3 v=0
97472 On ch=1 n=b2 v=64
97472 On ch=1 n=g2 v=64
97472 On ch=1 n=b5 v=64
97472 On ch=1 n=g5 v=64
97487 Par ch=1 c=7 v=76
97510 On ch=1 n=g5 v=0
97510 On ch=1 n=b5 v=0
97510 On ch=1 n=g2 v=0
97510 On ch=1 n=b2 v=0
97512 On ch=1 n=d3 v=64
97512 On ch=1 n=g3 v=64
97512 On ch=1 n=d5 v=64
97512 On ch=1 n=b4 v=64
97540 Par ch=1 c=7 v=77
97550 On ch=1 n=b4 v=0
97550 On ch=1 n=d5 v=0
97550 On ch=1 n=g3 v=0
97550 On ch=1 n=d3 v=0
97552 On ch=1 n=b2 v=64
97552 On ch=1 n=g2 v=64
97552 On ch=1 n=b5 v=64
97552 On ch=1 n=g5 v=64
97590 On ch=1 n=g5 v=0
97590 On ch=1 n=b5 v=0
97590 On ch=1 n=g2 v=0
97590 On ch=1 n=b2 v=0
97592 Par ch=1 c=7 v=78
97592 On ch=1 n=d3 v=64
97592 On ch=1 n=g3 v=64
97592 On ch=1 n=d5 v=64
97592 On ch=1 n=b4 v=64
97630 On ch=1 n=b4 v=0
97630 On ch=1 n=d5 v=0
97630 On ch=1 n=g3 v=0
97630 On ch=1 n=d3 v=0
97632 On ch=1 n=b2 v=64
97632 On ch=1 n=g2 v=64
97632 On ch=1 n=b5 v=64
97632 On ch=1 n=g5 v=64
97644 Par ch=1 c=7 v=79
97670 On ch=1 n=g5 v=0
97670 On ch=1 n=b5 v=0
97670 On ch=1 n=g2 v=0
97670 On ch=1 n=b2 v=0
97672 On ch=1 n=d3 v=64
97672 On ch=1 n=g3 v=64
97672 On ch=1 n=d5 v=64
97672 On ch=1 n=b4 v=64
97697 Par ch=1 c=7 v=80
97707 On ch=1 n=b4 v=0
97707 On ch=1 n=d5 v=0
97707 On ch=1 n=g3 v=0
97707 On ch=1 n=d3 v=0
97709 On ch=1 n=b2 v=64
97709 On ch=1 n=g2 v=64
97709 On ch=1 n=b5 v=64
97709 On ch=1 n=g5 v=64
97746 Par ch=1 c=7 v=81
97747 On ch=1 n=g5 v=0
97747 On ch=1 n=b5 v=0
97747 On ch=1 n=g2 v=0
97747 On ch=1 n=b2 v=0
97749 On ch=1 n=d3 v=64
97749 On ch=1 n=g3 v=64
97749 On ch=1 n=d5 v=64
97749 On ch=1 n=b4 v=64
97787 On ch=1 n=b4 v=0
97787 On ch=1 n=d5 v=0
97787 On ch=1 n=g3 v=0
97787 On ch=1 n=d3 v=0
97789 On ch=1 n=b2 v=64
97789 On ch=1 n=g2 v=64
97789 On ch=1 n=b5 v=64
97789 On ch=1 n=g5 v=64
97798 Par ch=1 c=7 v=82
97827 On ch=1 n=g5 v=0
97827 On ch=1 n=b5 v=0
97827 On ch=1 n=g2 v=0
97827 On ch=1 n=b2 v=0
97829 On ch=1 n=d3 v=64
97829 On ch=1 n=g3 v=64
97829 On ch=1 n=d5 v=64
97829 On ch=1 n=b4 v=64
97851 Par ch=1 c=7 v=83
97867 On ch=1 n=b4 v=0
97867 On ch=1 n=d5 v=0
97867 On ch=1 n=g3 v=0
97867 On ch=1 n=d3 v=0
97869 On ch=1 n=b2 v=64
97869 On ch=1 n=g2 v=64
97869 On ch=1 n=d6 v=64
97869 On ch=1 n=b5 v=64
97903 Par ch=1 c=7 v=84
97907 On ch=1 n=b5 v=0
97907 On ch=1 n=d6 v=0
97907 On ch=1 n=g2 v=0
97907 On ch=1 n=b2 v=0
97909 On ch=1 n=d3 v=64
97909 On ch=1 n=g3 v=64
97909 On ch=1 n=g5 v=64
97909 On ch=1 n=d5 v=64
97947 On ch=1 n=d5 v=0
97947 On ch=1 n=g5 v=0
97947 On ch=1 n=g3 v=0
97947 On ch=1 n=d3 v=0
97949 On ch=1 n=b2 v=64
97949 On ch=1 n=g2 v=64
97949 On ch=1 n=d6 v=64
97949 On ch=1 n=b5 v=64
97955 Par ch=1 c=7 v=85
97987 On ch=1 n=b5 v=0
97987 On ch=1 n=d6 v=0
97987 On ch=1 n=g2 v=0
97987 On ch=1 n=b2 v=0
97989 On ch=1 n=d3 v=64
97989 On ch=1 n=g3 v=64
97989 On ch=1 n=g5 v=64
97989 On ch=1 n=d5 v=64
98008 Par ch=1 c=7 v=86
98027 On ch=1 n=d5 v=0
98027 On ch=1 n=g5 v=0
98027 On ch=1 n=g3 v=0
98027 On ch=1 n=d3 v=0
98029 On ch=1 n=b2 v=64
98029 On ch=1 n=g2 v=64
98029 On ch=1 n=d6 v=64
98029 On ch=1 n=b5 v=64
98060 Par ch=1 c=7 v=87
98067 On ch=1 n=b5 v=0
98067 On ch=1 n=d6 v=0
98067 On ch=1 n=g2 v=0
98067 On ch=1 n=b2 v=0
98069 On ch=1 n=d3 v=64
98069 On ch=1 n=g3 v=64
98069 On ch=1 n=g5 v=64
98069 On ch=1 n=d5 v=64
98107 On ch=1 n=d5 v=0
98107 On ch=1 n=g5 v=0
98107 On ch=1 n=g3 v=0
98107 On ch=1 n=d3 v=0
98109 On ch=1 n=b2 v=64
98109 On ch=1 n=g2 v=64
98109 On ch=1 n=g6 v=64
98109 On ch=1 n=d6 v=64
98112 Par ch=1 c=7 v=88
98147 On ch=1 n=d6 v=0
98147 On ch=1 n=g6 v=0
98147 On ch=1 n=g2 v=0
98147 On ch=1 n=b2 v=0
98149 On ch=1 n=g3 v=64
98149 On ch=1 n=b5 v=64
98149 On ch=1 n=g5 v=64
98165 Par ch=1 c=7 v=89
98187 On ch=1 n=g5 v=0
98187 On ch=1 n=b5 v=0
98187 On ch=1 n=g3 v=0
98189 On ch=1 n=b2 v=64
98189 On ch=1 n=g2 v=64
98189 On ch=1 n=g6 v=64
98189 On ch=1 n=d6 v=64
98217 Par ch=1 c=7 v=90
98227 On ch=1 n=d6 v=0
98227 On ch=1 n=g6 v=0
98227 On ch=1 n=g2 v=0
98227 On ch=1 n=b2 v=0
98229 On ch=1 n=d3 v=64
98229 On ch=1 n=g3 v=64
98229 On ch=1 n=b5 v=64
98229 On ch=1 n=g5 v=64
98267 On ch=1 n=g5 v=0
98267 On ch=1 n=b5 v=0
98267 On ch=1 n=g3 v=0
98267 On ch=1 n=d3 v=0
98269 Par ch=1 c=7 v=91
98269 On ch=1 n=b2 v=64
98269 On ch=1 n=g2 v=64
98269 On ch=1 n=g6 v=64
98269 On ch=1 n=d6 v=64
98307 On ch=1 n=d6 v=0
98307 On ch=1 n=g6 v=0
98307 On ch=1 n=g2 v=0
98307 On ch=1 n=b2 v=0
98309 On ch=1 n=d3 v=64
98309 On ch=1 n=g3 v=64
98309 On ch=1 n=b5 v=64
98309 On ch=1 n=g5 v=64
98319 Par ch=1 c=7 v=92
98344 On ch=1 n=g5 v=0
98344 On ch=1 n=b5 v=0
98344 On ch=1 n=g3 v=0
98344 On ch=1 n=d3 v=0
98346 On ch=1 n=b2 v=64
98346 On ch=1 n=g2 v=64
98346 On ch=1 n=b6 v=64
98346 On ch=1 n=g6 v=64
98371 Par ch=1 c=7 v=93
98381 On ch=1 n=g6 v=0
98381 On ch=1 n=b6 v=0
98381 On ch=1 n=g2 v=0
98381 On ch=1 n=b2 v=0
98383 On ch=1 n=g3 v=64
98383 On ch=1 n=d3 v=64
98383 On ch=1 n=d6 v=64
98383 On ch=1 n=b5 v=64
98421 On ch=1 n=b5 v=0
98421 On ch=1 n=d6 v=0
98421 On ch=1 n=d3 v=0
98421 On ch=1 n=g3 v=0
98421 Par ch=1 c=7 v=94
98423 On ch=1 n=b2 v=64
98423 On ch=1 n=g2 v=64
98423 On ch=1 n=b6 v=64
98423 On ch=1 n=g6 v=64
98461 On ch=1 n=g6 v=0
98461 On ch=1 n=b6 v=0
98461 On ch=1 n=g2 v=0
98461 On ch=1 n=b2 v=0
98463 On ch=1 n=d3 v=64
98463 On ch=1 n=g3 v=64
98463 On ch=1 n=d6 v=64
98463 On ch=1 n=b5 v=64
98473 Par ch=1 c=7 v=95
98501 On ch=1 n=b5 v=0
98501 On ch=1 n=d6 v=0
98501 On ch=1 n=g3 v=0
98501 On ch=1 n=d3 v=0
98503 On ch=1 n=b2 v=64
98503 On ch=1 n=g2 v=64
98503 On ch=1 n=b6 v=64
98503 On ch=1 n=g6 v=64
98525 Par ch=1 c=7 v=96
98541 On ch=1 n=g6 v=0
98541 On ch=1 n=b6 v=0
98541 On ch=1 n=g2 v=0
98541 On ch=1 n=b2 v=0
98543 On ch=1 n=d3 v=64
98543 On ch=1 n=g3 v=64
98543 On ch=1 n=d6 v=64
98543 On ch=1 n=b5 v=64
98578 Par ch=1 c=7 v=97
98581 On ch=1 n=b5 v=0
98581 On ch=1 n=d6 v=0
98581 On ch=1 n=g3 v=0
98581 On ch=1 n=d3 v=0
98583 On ch=1 n=b2 v=64
98583 On ch=1 n=g2 v=64
98583 On ch=1 n=b6 v=64
98583 On ch=1 n=g6 v=64
98621 On ch=1 n=g6 v=0
98621 On ch=1 n=b6 v=0
98621 On ch=1 n=g2 v=0
98621 On ch=1 n=b2 v=0
98623 On ch=1 n=d3 v=64
98623 On ch=1 n=g3 v=64
98623 On ch=1 n=d6 v=64
98623 On ch=1 n=b5 v=64
98630 Par ch=1 c=7 v=98
98661 On ch=1 n=b5 v=0
98661 On ch=1 n=d6 v=0
98661 On ch=1 n=g3 v=0
98661 On ch=1 n=d3 v=0
98663 On ch=1 n=b2 v=64
98663 On ch=1 n=g2 v=64
98663 On ch=1 n=b6 v=64
98663 On ch=1 n=g6 v=64
98682 Par ch=1 c=7 v=99
98701 On ch=1 n=g6 v=0
98701 On ch=1 n=b6 v=0
98701 On ch=1 n=g2 v=0
98701 On ch=1 n=b2 v=0
98703 On ch=1 n=d3 v=64
98703 On ch=1 n=g3 v=64
98703 On ch=1 n=d6 v=64
98703 On ch=1 n=b5 v=64
98735 Par ch=1 c=7 v=100
98741 On ch=1 n=b5 v=0
98741 On ch=1 n=d6 v=0
98741 On ch=1 n=g3 v=0
98741 On ch=1 n=d3 v=0
98743 On ch=1 n=b2 v=64
98743 On ch=1 n=g2 v=64
98743 On ch=1 n=b6 v=64
98743 On ch=1 n=g6 v=64
98781 On ch=1 n=g6 v=0
98781 On ch=1 n=b6 v=0
98781 On ch=1 n=g2 v=0
98781 On ch=1 n=b2 v=0
98783 On ch=1 n=d3 v=64
98783 On ch=1 n=g3 v=64
98783 On ch=1 n=d6 v=64
98783 On ch=1 n=b5 v=64
98787 Par ch=1 c=7 v=101
98821 On ch=1 n=b5 v=0
98821 On ch=1 n=d6 v=0
98821 On ch=1 n=g3 v=0
98821 On ch=1 n=d3 v=0
98823 On ch=1 n=b2 v=64
98823 On ch=1 n=g2 v=64
98823 On ch=1 n=b6 v=64
98823 On ch=1 n=g6 v=64
98839 Par ch=1 c=7 v=102
98861 On ch=1 n=g6 v=0
98861 On ch=1 n=b6 v=0
98861 On ch=1 n=g2 v=0
98861 On ch=1 n=b2 v=0
98863 On ch=1 n=d3 v=64
98863 On ch=1 n=g3 v=64
98863 On ch=1 n=d6 v=64
98863 On ch=1 n=b5 v=64
98892 Par ch=1 c=7 v=103
98901 On ch=1 n=b5 v=0
98901 On ch=1 n=d6 v=0
98901 On ch=1 n=g3 v=0
98901 On ch=1 n=d3 v=0
98903 On ch=1 n=b2 v=64
98903 On ch=1 n=g2 v=64
98903 On ch=1 n=b6 v=64
98903 On ch=1 n=g6 v=64
98941 On ch=1 n=g6 v=0
98941 On ch=1 n=b6 v=0
98941 On ch=1 n=g2 v=0
98941 On ch=1 n=b2 v=0
98943 On ch=1 n=d3 v=64
98943 On ch=1 n=g3 v=64
98943 On ch=1 n=d6 v=64
98943 On ch=1 n=b5 v=64
98944 Par ch=1 c=7 v=104
98981 On ch=1 n=b5 v=0
98981 On ch=1 n=d6 v=0
98981 On ch=1 n=g3 v=0
98981 On ch=1 n=d3 v=0
98983 On ch=1 n=b2 v=64
98983 On ch=1 n=g2 v=64
98983 On ch=1 n=b6 v=64
98983 On ch=1 n=g6 v=64
98993 Par ch=1 c=7 v=105
99018 On ch=1 n=g6 v=0
99018 On ch=1 n=b6 v=0
99018 On ch=1 n=g2 v=0
99018 On ch=1 n=b2 v=0
99020 On ch=1 n=d3 v=64
99020 On ch=1 n=g3 v=64
99020 On ch=1 n=d6 v=64
99020 On ch=1 n=b5 v=64
99046 Par ch=1 c=7 v=106
99058 On ch=1 n=b5 v=0
99058 On ch=1 n=d6 v=0
99058 On ch=1 n=g3 v=0
99058 On ch=1 n=d3 v=0
99060 On ch=1 n=b2 v=64
99060 On ch=1 n=g2 v=64
99060 On ch=1 n=b6 v=64
99060 On ch=1 n=g6 v=64
99098 On ch=1 n=g6 v=0
99098 On ch=1 n=b6 v=0
99098 On ch=1 n=g2 v=0
99098 On ch=1 n=b2 v=0
99098 Par ch=1 c=7 v=107
99100 On ch=1 n=d3 v=64
99100 On ch=1 n=g3 v=64
99100 On ch=1 n=d6 v=64
99100 On ch=1 n=b5 v=64
99138 On ch=1 n=b5 v=0
99138 On ch=1 n=d6 v=0
99138 On ch=1 n=g3 v=0
99138 On ch=1 n=d3 v=0
99140 On ch=1 n=b2 v=64
99140 On ch=1 n=g2 v=64
99140 On ch=1 n=b6 v=64
99140 On ch=1 n=g6 v=64
99150 Par ch=1 c=7 v=108
99178 On ch=1 n=g6 v=0
99178 On ch=1 n=b6 v=0
99178 On ch=1 n=g2 v=0
99178 On ch=1 n=b2 v=0
99180 On ch=1 n=d3 v=64
99180 On ch=1 n=g3 v=64
99180 On ch=1 n=d6 v=64
99180 On ch=1 n=b5 v=64
99203 Par ch=1 c=7 v=109
99218 On ch=1 n=b5 v=0
99218 On ch=1 n=d6 v=0
99218 On ch=1 n=g3 v=0
99218 On ch=1 n=d3 v=0
99220 On ch=1 n=b2 v=64
99220 On ch=1 n=g2 v=64
99220 On ch=1 n=b6 v=64
99220 On ch=1 n=g6 v=64
99255 Par ch=1 c=7 v=110
99258 On ch=1 n=g6 v=0
99258 On ch=1 n=b6 v=0
99258 On ch=1 n=g2 v=0
99258 On ch=1 n=b2 v=0
99260 On ch=1 n=d3 v=64
99260 On ch=1 n=g3 v=64
99260 On ch=1 n=d6 v=64
99260 On ch=1 n=b5 v=64
99298 On ch=1 n=b5 v=0
99298 On ch=1 n=d6 v=0
99298 On ch=1 n=g3 v=0
99298 On ch=1 n=d3 v=0
99300 On ch=1 n=b2 v=64
99300 On ch=1 n=g2 v=64
99300 On ch=1 n=d7 v=64
99300 On ch=1 n=b6 v=64
99307 Par ch=1 c=7 v=111
99338 On ch=1 n=b6 v=0
99338 On ch=1 n=d7 v=0
99338 On ch=1 n=g2 v=0
99338 On ch=1 n=b2 v=0
99340 On ch=1 n=d3 v=64
99340 On ch=1 n=g3 v=64
99340 On ch=1 n=g6 v=64
99340 On ch=1 n=d6 v=64
99360 Par ch=1 c=7 v=112
99378 On ch=1 n=d6 v=0
99378 On ch=1 n=g6 v=0
99378 On ch=1 n=g3 v=0
99378 On ch=1 n=d3 v=0
99380 On ch=1 n=b2 v=64
99380 On ch=1 n=g2 v=64
99380 On ch=1 n=d7 v=64
99380 On ch=1 n=b6 v=64
99412 Par ch=1 c=7 v=113
99418 On ch=1 n=b6 v=0
99418 On ch=1 n=d7 v=0
99418 On ch=1 n=g2 v=0
99418 On ch=1 n=b2 v=0
99420 On ch=1 n=d3 v=64
99420 On ch=1 n=g3 v=64
99420 On ch=1 n=g6 v=64
99420 On ch=1 n=d6 v=64
99458 On ch=1 n=d6 v=0
99458 On ch=1 n=g6 v=0
99458 On ch=1 n=g3 v=0
99458 On ch=1 n=d3 v=0
99460 On ch=1 n=b2 v=64
99460 On ch=1 n=g2 v=64
99460 On ch=1 n=d7 v=64
99460 On ch=1 n=b6 v=64
99464 Par ch=1 c=7 v=114
99498 On ch=1 n=b6 v=0
99498 On ch=1 n=d7 v=0
99498 On ch=1 n=g2 v=0
99498 On ch=1 n=b2 v=0
99500 On ch=1 n=d3 v=64
99500 On ch=1 n=g3 v=64
99500 On ch=1 n=g6 v=64
99500 On ch=1 n=d6 v=64
99517 Par ch=1 c=7 v=115
99538 On ch=1 n=d6 v=0
99538 On ch=1 n=g6 v=0
99538 On ch=1 n=g3 v=0
99538 On ch=1 n=d3 v=0
99540 On ch=1 n=b2 v=64
99540 On ch=1 n=g2 v=64
99540 On ch=1 n=g7 v=64
99540 On ch=1 n=d7 v=64
99569 Par ch=1 c=7 v=116
99578 On ch=1 n=d7 v=0
99578 On ch=1 n=g7 v=0
99578 On ch=1 n=g2 v=0
99578 On ch=1 n=b2 v=0
99580 On ch=1 n=g3 v=64
99580 On ch=1 n=b6 v=64
99580 On ch=1 n=g6 v=64
99618 On ch=1 n=g6 v=0
99618 On ch=1 n=b6 v=0
99618 On ch=1 n=g3 v=0
99620 On ch=1 n=b2 v=64
99620 On ch=1 n=g2 v=64
99620 On ch=1 n=g7 v=64
99620 On ch=1 n=d7 v=64
99621 Par ch=1 c=7 v=117
99658 On ch=1 n=d7 v=0
99658 On ch=1 n=g7 v=0
99658 On ch=1 n=g2 v=0
99658 On ch=1 n=b2 v=0
99660 On ch=1 n=d3 v=64
99660 On ch=1 n=g3 v=64
99660 On ch=1 n=b6 v=64
99660 On ch=1 n=g6 v=64
99674 Par ch=1 c=7 v=118
99698 On ch=1 n=g6 v=0
99698 On ch=1 n=b6 v=0
99698 On ch=1 n=g3 v=0
99698 On ch=1 n=d3 v=0
99700 On ch=1 n=b2 v=64
99700 On ch=1 n=g2 v=64
99700 On ch=1 n=g7 v=64
99700 On ch=1 n=d7 v=64
99726 Par ch=1 c=7 v=119
99738 On ch=1 n=d7 v=0
99738 On ch=1 n=g7 v=0
99738 On ch=1 n=g2 v=0
99738 On ch=1 n=b2 v=0
99740 On ch=1 n=d3 v=64
99740 On ch=1 n=g3 v=64
99740 On ch=1 n=b6 v=64
99740 On ch=1 n=g6 v=64
99778 On ch=1 n=g6 v=0
99778 On ch=1 n=b6 v=0
99778 On ch=1 n=g3 v=0
99778 On ch=1 n=d3 v=0
99779 Par ch=1 c=7 v=120
99780 Tempo 1428571
99780 On ch=1 n=g2 v=64
99780 On ch=1 n=b7 v=64
99780 On ch=1 n=g7 v=64
99790 On ch=1 n=b2 v=63
99795 On ch=1 n=d3 v=64
99803 On ch=1 n=g3 v=63
99818 On ch=1 n=g7 v=0
99818 On ch=1 n=b7 v=0
99820 On ch=1 n=d7 v=64
99820 On ch=1 n=b6 v=64
99838 On ch=1 n=g2 v=0
99842 On ch=1 n=g3 v=0
99842 On ch=1 n=d3 v=0
99842 On ch=1 n=b2 v=0
99858 On ch=1 n=b6 v=0
99858 On ch=1 n=d7 v=0
99860 On ch=1 n=b7 v=64
99860 On ch=1 n=g7 v=64
99898 On ch=1 n=g7 v=0
99898 On ch=1 n=b7 v=0
99899 Tempo 1463415
99900 On ch=1 n=b4 v=64
99900 On ch=1 n=b5 v=64
99900 On ch=1 n=d7 v=64
99900 On ch=1 n=b6 v=64
99938 On ch=1 n=b6 v=0
99938 On ch=1 n=d7 v=0
99940 On ch=1 n=b7 v=64
99940 On ch=1 n=g7 v=64
99958 On ch=1 n=b5 v=0
99958 On ch=1 n=b4 v=0
99978 On ch=1 n=g7 v=0
99978 On ch=1 n=b7 v=0
99980 On ch=1 n=d7 v=64
99980 On ch=1 n=b6 v=64
100018 On ch=1 n=b6 v=0
100018 On ch=1 n=d7 v=0
100019 Tempo 1500000
100020 On ch=1 n=a4 v=64
100020 On ch=1 n=a5 v=64
100020 On ch=1 n=b7 v=64
100020 On ch=1 n=g7 v=64
100058 On ch=1 n=g7 v=0
100058 On ch=1 n=b7 v=0
100060 On ch=1 n=d7 v=64
100060 On ch=1 n=b6 v=64
100078 On ch=1 n=a5 v=0
100078 On ch=1 n=a4 v=0
100098 On ch=1 n=b6 v=0
100098 On ch=1 n=d7 v=0
100100 On ch=1 n=b7 v=64
100100 On ch=1 n=g7 v=64
100138 On ch=1 n=g7 v=0
100138 On ch=1 n=b7 v=0
100139 Tempo 1538462
100140 On ch=1 n=g4 v=64
100140 On ch=1 n=g5 v=64
100140 On ch=1 n=d7 v=64
100140 On ch=1 n=b6 v=64
100178 On ch=1 n=b6 v=0
100178 On ch=1 n=d7 v=0
100180 On ch=1 n=b7 v=64
100180 On ch=1 n=g7 v=64
100198 On ch=1 n=g5 v=0
100198 On ch=1 n=g4 v=0
100218 On ch=1 n=g7 v=0
100218 On ch=1 n=b7 v=0
100220 On ch=1 n=d7 v=64
100220 On ch=1 n=b6 v=64
100258 On ch=1 n=b6 v=0
100258 On ch=1 n=d7 v=0
100259 Tempo 1578947
100260 On ch=1 n=e4 v=64
100260 On ch=1 n=e5 v=64
100260 On ch=1 n=b7 v=64
100260 On ch=1 n=g7 v=64
100298 On ch=1 n=g7 v=0
100298 On ch=1 n=b7 v=0
100300 On ch=1 n=d7 v=64
100300 On ch=1 n=b6 v=64
100318 On ch=1 n=e5 v=0
100318 On ch=1 n=e4 v=0
100338 On ch=1 n=b6 v=0
100338 On ch=1 n=d7 v=0
100340 On ch=1 n=b7 v=64
100340 On ch=1 n=g7 v=64
100378 On ch=1 n=g7 v=0
100378 On ch=1 n=b7 v=0
100379 Tempo 1621622
100380 On ch=1 n=d4 v=64
100380 On ch=1 n=d5 v=64
100380 On ch=1 n=d7 v=64
100380 On ch=1 n=b6 v=64
100418 On ch=1 n=b6 v=0
100418 On ch=1 n=d7 v=0
100420 On ch=1 n=b7 v=64
100420 On ch=1 n=g7 v=64
100438 On ch=1 n=d5 v=0
100438 On ch=1 n=d4 v=0
100458 On ch=1 n=g7 v=0
100458 On ch=1 n=b7 v=0
100460 On ch=1 n=d7 v=64
100460 On ch=1 n=b6 v=64
100498 On ch=1 n=b6 v=0
100498 On ch=1 n=d7 v=0
100499 Tempo 1666667
100500 On ch=1 n=b3 v=64
100500 On ch=1 n=b4 v=64
100500 On ch=1 n=b7 v=64
100500 On ch=1 n=g7 v=64
100538 On ch=1 n=g7 v=0
100538 On ch=1 n=b7 v=0
100540 On ch=1 n=d7 v=64
100540 On ch=1 n=b6 v=64
100558 On ch=1 n=b4 v=0
100558 On ch=1 n=b3 v=0
100578 On ch=1 n=b6 v=0
100578 On ch=1 n=d7 v=0
100580 On ch=1 n=b7 v=64
100580 On ch=1 n=g7 v=64
100618 On ch=1 n=g7 v=0
100618 On ch=1 n=b7 v=0
100619 Tempo 1714286
100620 On ch=1 n=a3 v=64
100620 On ch=1 n=a4 v=64
100620 On ch=1 n=d7 v=64
100620 On ch=1 n=b6 v=64
100658 On ch=1 n=b6 v=0
100658 On ch=1 n=d7 v=0
100660 On ch=1 n=b7 v=64
100660 On ch=1 n=g7 v=64
100678 On ch=1 n=a4 v=0
100678 On ch=1 n=a3 v=0
100698 On ch=1 n=g7 v=0
100698 On ch=1 n=b7 v=0
100700 On ch=1 n=d7 v=64
100700 On ch=1 n=b6 v=64
100738 On ch=1 n=b6 v=0
100738 On ch=1 n=d7 v=0
100739 Tempo 1764706
100740 On ch=1 n=g3 v=64
100740 On ch=1 n=g4 v=64
100740 On ch=1 n=g7 v=64
100740 On ch=1 n=b7 v=64
100778 On ch=1 n=b7 v=0
100778 On ch=1 n=g7 v=0
100780 On ch=1 n=b6 v=64
100780 On ch=1 n=d7 v=64
100798 On ch=1 n=g4 v=0
100798 On ch=1 n=g3 v=0
100818 On ch=1 n=d7 v=0
100818 On ch=1 n=b6 v=0
100820 On ch=1 n=g7 v=64
100820 On ch=1 n=b7 v=64
100858 On ch=1 n=b7 v=0
100858 On ch=1 n=g7 v=0
100859 Tempo 1818182
100860 On ch=1 n=e3 v=64
100860 On ch=1 n=e4 v=64
100860 On ch=1 n=b6 v=64
100860 On ch=1 n=d7 v=64
100898 On ch=1 n=d7 v=0
100898 On ch=1 n=b6 v=0
100900 On ch=1 n=g7 v=64
100900 On ch=1 n=b7 v=64
100918 On ch=1 n=e4 v=0
100918 On ch=1 n=e3 v=0
100938 On ch=1 n=b7 v=0
100938 On ch=1 n=g7 v=0
100940 On ch=1 n=b6 v=64
100940 On ch=1 n=d7 v=64
100978 On ch=1 n=d7 v=0
100978 On ch=1 n=b6 v=0
100979 Tempo 1875000
100980 On ch=1 n=d3 v=64
100980 On ch=1 n=d4 v=64
100980 On ch=1 n=g7 v=64
100980 On ch=1 n=b7 v=64
101018 On ch=1 n=b7 v=0
101018 On ch=1 n=g7 v=0
101020 On ch=1 n=b6 v=64
101020 On ch=1 n=d7 v=64
101038 On ch=1 n=d4 v=0
101038 On ch=1 n=d3 v=0
101058 On ch=1 n=d7 v=0
101058 On ch=1 n=b6 v=0
101060 On ch=1 n=g7 v=64
101060 On ch=1 n=b7 v=64
101098 On ch=1 n=b7 v=0
101098 On ch=1 n=g7 v=0
101099 Tempo 1935484
101100 On ch=1 n=b2 v=64
101100 On ch=1 n=b3 v=64
101100 On ch=1 n=b6 v=64
101100 On ch=1 n=d7 v=64
101138 On ch=1 n=d7 v=0
101138 On ch=1 n=b6 v=0
101140 On ch=1 n=g7 v=64
101140 On ch=1 n=b7 v=64
101158 On ch=1 n=b3 v=0
101158 On ch=1 n=b2 v=0
101178 On ch=1 n=b7 v=0
101178 On ch=1 n=g7 v=0
101180 On ch=1 n=d7 v=64
101180 On ch=1 n=b6 v=64
101219 Tempo 2000000
101220 Tempo 2000000
101220 On ch=1 n=g3 v=64
101220 On ch=1 n=g2 v=64
101220 On ch=1 n=b7 v=64
101220 On ch=1 n=g7 v=64
101338 On ch=1 n=g7 v=0
101338 On ch=1 n=b7 v=0
101338 On ch=1 n=g2 v=0
101338 On ch=1 n=g3 v=0
101338 On ch=1 n=b6 v=0
101338 On ch=1 n=d7 v=0
101460 Par ch=1 c=64 v=0
101700 On ch=1 n=g4 v=64
101700 On ch=1 n=d4 v=64
101700 On ch=1 n=g3 v=64
101700 On ch=1 n=d5 v=64
101700 On ch=1 n=b4 v=64
101700 Par ch=1 c=64 v=96
102658 On ch=1 n=b4 v=0
102658 On ch=1 n=d5 v=0
102658 On ch=1 n=g3 v=0
102658 On ch=1 n=d4 v=0
102658 On ch=1 n=g4 v=0
102660 Par ch=1 c=64 v=0
102660 Meta TrkEnd
TrkEnd
