MFile 1 18 480
MTrk
0 TimeSig 4/4 96 8
0 Tempo 521739
58510 Tempo 483870
86215 Tempo 512820
93005 Tempo 521739
104650 Tempo 480000
106690 Tempo 545454
118655 Tempo 400000
123555 Tempo 444444
141050 Tempo 413793
142180 Tempo 444444
145885 Tempo 468750
159395 Tempo 500000
164555 Tempo 363636
172765 Tempo 382165
175800 Tempo 375000
203040 Tempo 461538
221745 Tempo 408163
227240 Tempo 363636
233195 Tempo 352941
238620 Tempo 315789
238620 Meta TrkEnd
TrkEnd
MTrk
0 SeqSpec 43 00 01 00
0 Meta TrkName "Eroica: Franz Liszt"
0 Par ch=1 c=0 v=0
0 PrCh ch=1 p=0
0 KeySig 0 major
185 Par ch=1 c=64 v=24
195 Par ch=1 c=64 v=56
205 Par ch=1 c=64 v=72
220 Par ch=1 c=64 v=88
285 Par ch=1 c=64 v=72
300 Par ch=1 c=64 v=56
425 Par ch=1 c=64 v=72
495 Par ch=1 c=64 v=88
530 Par ch=1 c=64 v=104
550 On ch=1 n=e5 v=93
550 On ch=1 n=e4 v=82
605 On ch=1 n=e4 v=0
605 On ch=1 n=e5 v=0
625 Par ch=1 c=64 v=56
640 Par ch=1 c=64 v=0
650 On ch=1 n=e5 v=94
650 On ch=1 n=e4 v=80
660 On ch=1 n=e4 v=71
720 Par ch=1 c=64 v=88
725 Par ch=1 c=64 v=127
750 On ch=1 n=e4 v=0
755 On ch=1 n=e5 v=0
770 On ch=1 n=e4 v=0
1110 On ch=1 n=c#4 v=90
1110 On ch=1 n=a#3 v=86
1120 On ch=1 n=e3 v=64
1120 On ch=1 n=g3 v=75
1130 On ch=1 n=g2 v=69
1150 On ch=1 n=a#3 v=0
1170 On ch=1 n=g2 v=0
1170 On ch=1 n=c#4 v=0
1175 On ch=1 n=g3 v=0
1175 On ch=1 n=e3 v=0
1565 On ch=1 n=e6 v=90
1565 On ch=1 n=e7 v=103
1575 On ch=1 n=e4 v=80
1580 On ch=1 n=e5 v=82
1630 On ch=1 n=e5 v=0
1640 On ch=1 n=e4 v=0
1655 On ch=1 n=e6 v=0
1660 On ch=1 n=e7 v=0
2015 On ch=1 n=c#5 v=91
2015 On ch=1 n=a#4 v=84
2030 On ch=1 n=e4 v=69
2030 On ch=1 n=g4 v=77
2030 On ch=1 n=g3 v=79
2060 On ch=1 n=a#4 v=0
2065 On ch=1 n=g3 v=0
2080 On ch=1 n=g4 v=0
2080 On ch=1 n=e4 v=0
2080 On ch=1 n=c#5 v=0
2360 On ch=1 n=g5 v=78
2430 On ch=1 n=g5 v=0
2430 On ch=1 n=c#6 v=67
2500 On ch=1 n=e6 v=81
2510 On ch=1 n=c#6 v=0
2595 On ch=1 n=e6 v=0
2610 On ch=1 n=e8 v=107
2610 On ch=1 n=a#7 v=85
2615 On ch=1 n=e7 v=92
2625 On ch=1 n=a#6 v=90
2660 On ch=1 n=a#6 v=0
3010 On ch=1 n=a#7 v=0
3070 On ch=1 n=e8 v=0
3245 On ch=1 n=d#8 v=100
3380 On ch=1 n=e7 v=0
3430 On ch=1 n=d#8 v=0
3455 On ch=1 n=c#8 v=93
3585 On ch=1 n=c#8 v=0
3600 On ch=1 n=a#7 v=85
3725 On ch=1 n=a#7 v=0
3735 On ch=1 n=e7 v=84
3820 On ch=1 n=e7 v=0
3840 On ch=1 n=d#7 v=77
3935 On ch=1 n=d#7 v=0
3945 On ch=1 n=c#7 v=77
4035 On ch=1 n=c#7 v=0
4035 On ch=1 n=a#6 v=76
4115 On ch=1 n=a#6 v=0
4125 On ch=1 n=e6 v=79
4185 On ch=1 n=e6 v=0
4210 On ch=1 n=d#6 v=74
4310 On ch=1 n=d#6 v=0
4310 On ch=1 n=c#6 v=73
4395 On ch=1 n=a#5 v=69
4400 On ch=1 n=c#6 v=0
4470 On ch=1 n=a#5 v=0
4480 On ch=1 n=e5 v=77
4545 On ch=1 n=e5 v=0
4565 On ch=1 n=d#5 v=72
4655 On ch=1 n=d#5 v=0
4670 On ch=1 n=c#5 v=67
4750 On ch=1 n=c#5 v=0
4755 On ch=1 n=a#4 v=67
4830 On ch=1 n=a#4 v=0
4840 On ch=1 n=e4 v=78
4905 On ch=1 n=e4 v=0
4935 On ch=1 n=d#4 v=79
5025 On ch=1 n=d#4 v=0
5040 On ch=1 n=c#4 v=77
5120 On ch=1 n=a#3 v=76
5130 On ch=1 n=c#4 v=0
5195 On ch=1 n=a#3 v=0
5215 On ch=1 n=e3 v=72
5285 On ch=1 n=e3 v=0
5310 On ch=1 n=d#3 v=69
5395 On ch=1 n=d#3 v=0
5415 On ch=1 n=c#3 v=65
5495 On ch=1 n=c#3 v=0
5510 On ch=1 n=a#2 v=73
5560 On ch=1 n=a#2 v=0
5620 On ch=1 n=g2 v=68
5685 On ch=1 n=g2 v=0
5750 On ch=1 n=g#2 v=77
5815 Par ch=1 c=64 v=104
5830 Par ch=1 c=64 v=40
5840 Par ch=1 c=64 v=0
5955 Par ch=1 c=64 v=40
5965 Par ch=1 c=64 v=104
5980 Par ch=1 c=64 v=127
6065 On ch=1 n=g#2 v=0
6455 Par ch=1 c=64 v=88
6465 Par ch=1 c=64 v=40
6480 Par ch=1 c=64 v=0
6725 On ch=1 n=e4 v=60
6725 On ch=1 n=a#3 v=53
6725 On ch=1 n=g3 v=53
6770 On ch=1 n=g3 v=0
6770 On ch=1 n=a#3 v=0
6770 On ch=1 n=e4 v=0
6825 On ch=1 n=b3 v=55
6825 On ch=1 n=g#3 v=53
6900 On ch=1 n=g#3 v=0
6910 On ch=1 n=b3 v=0
7210 On ch=1 n=g4 v=68
7215 On ch=1 n=c#4 v=53
7215 On ch=1 n=a#3 v=51
7255 On ch=1 n=a#3 v=0
7260 On ch=1 n=g4 v=0
7265 On ch=1 n=c#4 v=0
7310 On ch=1 n=g#4 v=69
7320 On ch=1 n=b3 v=64
7325 On ch=1 n=e4 v=59
7385 On ch=1 n=b3 v=0
7395 On ch=1 n=e4 v=0
7415 On ch=1 n=g#4 v=0
7685 On ch=1 n=g4 v=70
7690 On ch=1 n=c#5 v=59
7695 On ch=1 n=a#4 v=51
7725 On ch=1 n=g4 v=0
7735 On ch=1 n=c#5 v=0
7740 On ch=1 n=a#4 v=0
7800 On ch=1 n=b4 v=76
7805 On ch=1 n=g#4 v=53
7960 On ch=1 n=g#4 v=0
7965 Par ch=1 c=64 v=72
7980 Par ch=1 c=64 v=127
8000 On ch=1 n=b4 v=0
8225 On ch=1 n=g#4 v=64
8260 On ch=1 n=e5 v=47
8290 On ch=1 n=g#4 v=0
8330 On ch=1 n=e5 v=0
8330 On ch=1 n=e7 v=94
8335 On ch=1 n=e6 v=76
8340 On ch=1 n=b6 v=79
8340 On ch=1 n=b5 v=69
8365 On ch=1 n=b5 v=0
8365 On ch=1 n=b6 v=0
8375 On ch=1 n=e6 v=0
8405 On ch=1 n=e7 v=0
9420 Par ch=1 c=64 v=88
9430 Par ch=1 c=64 v=0
9535 Par ch=1 c=64 v=104
9545 Par ch=1 c=64 v=127
9760 On ch=1 n=f5 v=94
9770 On ch=1 n=f4 v=82
9820 On ch=1 n=f4 v=0
9820 On ch=1 n=f5 v=0
9875 On ch=1 n=f5 v=100
9880 Par ch=1 c=64 v=0
9885 On ch=1 n=f4 v=83
9965 Par ch=1 c=64 v=104
9975 On ch=1 n=f4 v=0
9975 Par ch=1 c=64 v=127
9990 On ch=1 n=f5 v=0
10365 On ch=1 n=d4 v=97
10370 On ch=1 n=b3 v=82
10375 On ch=1 n=g#2 v=71
10375 On ch=1 n=g#3 v=75
10375 On ch=1 n=f3 v=67
10410 On ch=1 n=b3 v=0
10415 On ch=1 n=g#2 v=0
10420 On ch=1 n=g#3 v=0
10430 On ch=1 n=f3 v=0
10435 On ch=1 n=d4 v=0
10835 On ch=1 n=f6 v=103
10835 On ch=1 n=f7 v=105
10850 On ch=1 n=f4 v=78
10850 On ch=1 n=f5 v=82
10895 On ch=1 n=f4 v=0
10900 On ch=1 n=f5 v=0
10925 On ch=1 n=f7 v=0
10925 On ch=1 n=f6 v=0
11295 On ch=1 n=d5 v=94
11300 On ch=1 n=b4 v=80
11310 On ch=1 n=g#4 v=71
11315 On ch=1 n=g#3 v=68
11315 On ch=1 n=f4 v=70
11340 On ch=1 n=f4 v=0
11340 On ch=1 n=b4 v=0
11360 On ch=1 n=g#3 v=0
11360 On ch=1 n=g#4 v=0
11360 On ch=1 n=d5 v=0
11635 On ch=1 n=g#5 v=76
11710 On ch=1 n=g#5 v=0
11715 On ch=1 n=d6 v=68
11780 On ch=1 n=f6 v=82
11790 On ch=1 n=d6 v=0
11885 On ch=1 n=f6 v=0
11895 On ch=1 n=f8 v=109
11905 On ch=1 n=f7 v=92
11905 On ch=1 n=b7 v=89
11910 On ch=1 n=b6 v=93
11910 On ch=1 n=a#7 v=48
11935 On ch=1 n=a#7 v=0
11945 On ch=1 n=b6 v=0
11990 On ch=1 n=b7 v=0
12370 On ch=1 n=f8 v=0
12485 On ch=1 n=e8 v=100
12490 On ch=1 n=f7 v=0
12665 On ch=1 n=e8 v=0
12690 On ch=1 n=d8 v=96
12810 On ch=1 n=d8 v=0
12840 On ch=1 n=b7 v=102
12965 On ch=1 n=b7 v=0
12965 On ch=1 n=f7 v=94
13040 On ch=1 n=f7 v=0
13080 On ch=1 n=e7 v=89
13145 On ch=1 n=e7 v=0
13185 On ch=1 n=d7 v=84
13255 On ch=1 n=d7 v=0
13285 On ch=1 n=b6 v=76
13365 On ch=1 n=b6 v=0
13370 On ch=1 n=f6 v=84
13425 On ch=1 n=f6 v=0
13455 On ch=1 n=e6 v=83
13535 On ch=1 n=e6 v=0
13555 On ch=1 n=d6 v=81
13620 On ch=1 n=d6 v=0
13645 On ch=1 n=b5 v=73
13720 On ch=1 n=b5 v=0
13730 On ch=1 n=f5 v=80
13790 On ch=1 n=f5 v=0
13820 On ch=1 n=e5 v=70
13890 On ch=1 n=e5 v=0
13920 On ch=1 n=d5 v=74
13985 On ch=1 n=d5 v=0
14005 On ch=1 n=b4 v=70
14085 On ch=1 n=b4 v=0
14090 On ch=1 n=f4 v=78
14150 On ch=1 n=f4 v=0
14185 On ch=1 n=e4 v=77
14260 On ch=1 n=e4 v=0
14285 On ch=1 n=d4 v=81
14350 On ch=1 n=d4 v=0
14370 On ch=1 n=b3 v=75
14440 On ch=1 n=b3 v=0
14450 On ch=1 n=f3 v=74
14525 On ch=1 n=f3 v=0
14555 On ch=1 n=e3 v=73
14630 On ch=1 n=e3 v=0
14650 On ch=1 n=d3 v=72
14725 On ch=1 n=d3 v=0
14745 On ch=1 n=b2 v=64
14800 On ch=1 n=b2 v=0
14860 On ch=1 n=g#2 v=72
14935 On ch=1 n=g#2 v=0
14985 On ch=1 n=a2 v=80
15040 Par ch=1 c=64 v=56
15055 Par ch=1 c=64 v=0
15225 Par ch=1 c=64 v=56
15235 Par ch=1 c=64 v=104
15250 Par ch=1 c=64 v=127
15315 On ch=1 n=a2 v=0
15665 Par ch=1 c=64 v=72
15680 Par ch=1 c=64 v=40
15690 Par ch=1 c=64 v=0
15855 On ch=1 n=f4 v=73
15855 On ch=1 n=g#3 v=57
15860 On ch=1 n=b3 v=58
15905 On ch=1 n=g#3 v=0
15910 On ch=1 n=f4 v=0
15920 On ch=1 n=b3 v=0
15970 On ch=1 n=f#4 v=65
15970 On ch=1 n=a3 v=76
15980 On ch=1 n=d4 v=56
16015 On ch=1 n=a3 v=0
16020 On ch=1 n=d4 v=0
16040 On ch=1 n=f#4 v=0
16350 On ch=1 n=f4 v=64
16355 On ch=1 n=b4 v=56
16360 On ch=1 n=g#4 v=46
16395 On ch=1 n=f4 v=0
16410 On ch=1 n=g#4 v=0
16410 On ch=1 n=b4 v=0
16455 On ch=1 n=a4 v=74
16460 On ch=1 n=f#4 v=62
16525 On ch=1 n=f#4 v=0
16555 On ch=1 n=a4 v=0
16830 On ch=1 n=d6 v=81
16840 On ch=1 n=g#5 v=61
16845 On ch=1 n=f5 v=52
16850 On ch=1 n=b4 v=56
16850 On ch=1 n=d5 v=58
16865 On ch=1 n=f5 v=0
16885 Par ch=1 c=64 v=24
16890 On ch=1 n=d5 v=0
16890 On ch=1 n=g#5 v=0
16900 On ch=1 n=b4 v=0
16900 On ch=1 n=d6 v=0
16935 Par ch=1 c=64 v=0
16955 On ch=1 n=a5 v=78
16960 On ch=1 n=f#5 v=60
16965 On ch=1 n=a4 v=52
16970 On ch=1 n=d5 v=43
17085 Par ch=1 c=64 v=56
17090 On ch=1 n=a4 v=0
17090 On ch=1 n=f#5 v=0
17095 Par ch=1 c=64 v=127
17100 On ch=1 n=d5 v=0
17110 On ch=1 n=a5 v=0
17330 On ch=1 n=a4 v=64
17330 Par ch=1 c=64 v=72
17340 Par ch=1 c=64 v=0
17375 On ch=1 n=a4 v=0
17395 On ch=1 n=f#5 v=69
17395 Par ch=1 c=64 v=72
17410 Par ch=1 c=64 v=127
17500 On ch=1 n=f#5 v=0
17535 On ch=1 n=f#7 v=95
17545 On ch=1 n=f#6 v=83
17545 On ch=1 n=d6 v=75
17550 On ch=1 n=d7 v=80
17565 On ch=1 n=d7 v=0
17580 On ch=1 n=f#6 v=0
17585 On ch=1 n=d6 v=0
17610 On ch=1 n=f#7 v=0
18585 Par ch=1 c=64 v=40
18595 Par ch=1 c=64 v=0
18675 Par ch=1 c=64 v=104
18685 Par ch=1 c=64 v=127
18860 On ch=1 n=f#5 v=90
18865 On ch=1 n=f#4 v=76
18910 On ch=1 n=f#4 v=0
18920 On ch=1 n=f#5 v=0
18960 On ch=1 n=f#5 v=90
18975 On ch=1 n=f#4 v=88
18990 Par ch=1 c=64 v=88
19000 Par ch=1 c=64 v=0
19070 On ch=1 n=f#4 v=0
19070 Par ch=1 c=64 v=127
19095 On ch=1 n=f#5 v=0
19460 On ch=1 n=d#4 v=96
19470 On ch=1 n=c4 v=74
19475 On ch=1 n=a3 v=74
19475 On ch=1 n=f#3 v=59
19480 On ch=1 n=a2 v=69
19510 On ch=1 n=c4 v=0
19525 On ch=1 n=a2 v=0
19530 On ch=1 n=f#3 v=0
19530 On ch=1 n=a3 v=0
19540 On ch=1 n=d#4 v=0
19935 On ch=1 n=f#7 v=106
19935 On ch=1 n=f#6 v=93
19945 On ch=1 n=f#5 v=90
19945 On ch=1 n=f#4 v=83
19985 On ch=1 n=f#4 v=0
19990 On ch=1 n=f#5 v=0
20020 On ch=1 n=f#6 v=0
20045 On ch=1 n=f#7 v=0
20590 Par ch=1 c=64 v=88
20605 Par ch=1 c=64 v=0
20640 Par ch=1 c=64 v=56
20650 Par ch=1 c=64 v=127
20790 On ch=1 n=f#5 v=89
20800 On ch=1 n=f#4 v=85
20835 On ch=1 n=f#4 v=0
20845 On ch=1 n=f#5 v=0
20895 Par ch=1 c=64 v=88
20905 On ch=1 n=f#5 v=95
20905 Par ch=1 c=64 v=0
20915 On ch=1 n=f#4 v=91
21000 Par ch=1 c=64 v=127
21010 On ch=1 n=f#4 v=0
21040 On ch=1 n=f#5 v=0
21360 On ch=1 n=f#4 v=86
21360 On ch=1 n=d#4 v=85
21375 On ch=1 n=b3 v=68
21375 On ch=1 n=b2 v=70
21375 On ch=1 n=f#3 v=58
21410 On ch=1 n=d#4 v=0
21420 On ch=1 n=b2 v=0
21425 On ch=1 n=b3 v=0
21430 On ch=1 n=f#3 v=0
21435 On ch=1 n=f#4 v=0
21825 On ch=1 n=f#7 v=102
21825 On ch=1 n=f#6 v=93
21830 On ch=1 n=f#5 v=85
21835 On ch=1 n=f#4 v=78
21880 On ch=1 n=f#4 v=0
21880 On ch=1 n=f#5 v=0
21900 On ch=1 n=f#6 v=0
21925 On ch=1 n=f#7 v=0
22530 Par ch=1 c=64 v=104
22545 Par ch=1 c=64 v=72
22555 Par ch=1 c=64 v=24
22565 Par ch=1 c=64 v=0
22705 On ch=1 n=f#5 v=92
22710 On ch=1 n=f#4 v=84
22760 On ch=1 n=f#4 v=0
22760 On ch=1 n=f#5 v=0
22800 Par ch=1 c=64 v=127
22815 On ch=1 n=f#5 v=85
22830 On ch=1 n=f#4 v=85
22885 On ch=1 n=f#4 v=0
22890 On ch=1 n=f#5 v=0
23200 On ch=1 n=a4 v=86
23200 On ch=1 n=d#4 v=79
23200 On ch=1 n=f#3 v=60
23200 On ch=1 n=b2 v=69
23200 On ch=1 n=b3 v=70
23240 On ch=1 n=d#4 v=0
23250 On ch=1 n=f#3 v=0
23255 On ch=1 n=b3 v=0
23265 On ch=1 n=b2 v=0
23280 On ch=1 n=a4 v=0
23560 On ch=1 n=f#7 v=89
23560 On ch=1 n=f#6 v=92
23560 On ch=1 n=f#5 v=82
23560 On ch=1 n=f#4 v=69
23600 On ch=1 n=f#5 v=0
23610 On ch=1 n=f#4 v=0
23620 On ch=1 n=f#6 v=0
23620 On ch=1 n=f#7 v=0
23920 On ch=1 n=a4 v=88
23920 On ch=1 n=f#4 v=80
23920 On ch=1 n=c#4 v=90
23925 On ch=1 n=c#3 v=70
23930 On ch=1 n=f#3 v=69
23970 On ch=1 n=f#4 v=0
23975 On ch=1 n=c#3 v=0
23980 On ch=1 n=f#3 v=0
23980 On ch=1 n=c#4 v=0
23995 On ch=1 n=a4 v=0
24285 Par ch=1 c=64 v=88
24295 Par ch=1 c=64 v=0
24320 On ch=1 n=d3 v=83
24320 On ch=1 n=d4 v=96
24415 Par ch=1 c=64 v=104
24425 Par ch=1 c=64 v=127
24635 On ch=1 n=d3 v=0
24645 On ch=1 n=d4 v=0
24710 On ch=1 n=d7 v=96
24715 On ch=1 n=d6 v=83
24715 On ch=1 n=g#6 v=79
24720 On ch=1 n=f5 v=72
24725 On ch=1 n=b5 v=74
24730 On ch=1 n=b4 v=66
24755 On ch=1 n=b4 v=0
24760 On ch=1 n=g#6 v=0
24765 On ch=1 n=f5 v=0
24765 On ch=1 n=d6 v=0
24770 On ch=1 n=b5 v=0
24790 On ch=1 n=d7 v=0
25080 On ch=1 n=f#5 v=62
25085 On ch=1 n=c6 v=74
25090 On ch=1 n=d7 v=88
25090 On ch=1 n=d6 v=82
25090 On ch=1 n=c5 v=61
25090 On ch=1 n=a6 v=76
25110 On ch=1 n=c6 v=0
25115 On ch=1 n=a6 v=0
25115 On ch=1 n=c5 v=0
25120 On ch=1 n=f#5 v=0
25125 On ch=1 n=d6 v=0
25130 On ch=1 n=d7 v=0
25175 On ch=1 n=d7 v=86
25180 On ch=1 n=a6 v=84
25180 On ch=1 n=d6 v=79
25180 On ch=1 n=c6 v=66
25185 On ch=1 n=c5 v=63
25190 On ch=1 n=f#5 v=46
25285 Par ch=1 c=64 v=0
25415 Par ch=1 c=64 v=127
25460 On ch=1 n=d6 v=0
25475 On ch=1 n=c5 v=0
25485 On ch=1 n=a6 v=0
25490 On ch=1 n=c6 v=0
25490 On ch=1 n=d7 v=0
25500 On ch=1 n=f#5 v=0
26120 On ch=1 n=f7 v=100
26120 Par ch=1 c=64 v=104
26125 On ch=1 n=f6 v=87
26130 On ch=1 n=b6 v=84
26135 On ch=1 n=g#5 v=72
26135 Par ch=1 c=64 v=0
26140 On ch=1 n=g#4 v=61
26140 On ch=1 n=d5 v=64
26185 On ch=1 n=f6 v=0
26190 Par ch=1 c=64 v=40
26195 On ch=1 n=g#4 v=0
26200 On ch=1 n=d5 v=0
26200 On ch=1 n=b6 v=0
26205 Par ch=1 c=64 v=127
26210 On ch=1 n=g#5 v=0
26215 On ch=1 n=f7 v=0
26425 On ch=1 n=f#7 v=84
26425 On ch=1 n=f#6 v=81
26430 On ch=1 n=a5 v=63
26430 On ch=1 n=d5 v=56
26435 On ch=1 n=c7 v=78
26435 On ch=1 n=a4 v=53
26465 On ch=1 n=f#6 v=0
26475 On ch=1 n=c7 v=0
26475 On ch=1 n=d5 v=0
26475 On ch=1 n=a5 v=0
26475 On ch=1 n=f#7 v=0
26480 On ch=1 n=a4 v=0
26515 On ch=1 n=f#7 v=87
26520 On ch=1 n=f#6 v=73
26525 On ch=1 n=c7 v=84
26530 On ch=1 n=a5 v=65
26530 On ch=1 n=a4 v=58
26540 On ch=1 n=d5 v=54
26540 Par ch=1 c=64 v=56
26555 Par ch=1 c=64 v=0
26600 On ch=1 n=a4 v=0
26600 Par ch=1 c=64 v=56
26610 On ch=1 n=d5 v=0
26610 On ch=1 n=a5 v=0
26610 Par ch=1 c=64 v=127
26625 On ch=1 n=c7 v=0
26630 On ch=1 n=f#6 v=0
26680 On ch=1 n=f#7 v=0
26885 On ch=1 n=g#7 v=97
26885 On ch=1 n=g#6 v=89
26890 On ch=1 n=d7 v=87
26895 On ch=1 n=f5 v=69
26895 On ch=1 n=f4 v=70
26900 On ch=1 n=b4 v=68
26900 Par ch=1 c=64 v=56
26915 Par ch=1 c=64 v=0
26945 On ch=1 n=f4 v=0
26945 Par ch=1 c=64 v=40
26955 Par ch=1 c=64 v=127
26960 On ch=1 n=d7 v=0
26970 On ch=1 n=b4 v=0
26975 On ch=1 n=f5 v=0
26975 On ch=1 n=g#6 v=0
27005 On ch=1 n=g#7 v=0
27155 On ch=1 n=a7 v=94
27155 On ch=1 n=f#5 v=64
27155 On ch=1 n=a6 v=82
27155 On ch=1 n=c5 v=66
27155 On ch=1 n=d7 v=76
27165 On ch=1 n=f#4 v=57
27190 On ch=1 n=c5 v=0
27195 On ch=1 n=a7 v=0
27200 On ch=1 n=d7 v=0
27200 On ch=1 n=a6 v=0
27200 On ch=1 n=f#5 v=0
27210 On ch=1 n=f#4 v=0
27245 On ch=1 n=a7 v=93
27245 On ch=1 n=a6 v=78
27245 On ch=1 n=d7 v=69
27250 On ch=1 n=f#4 v=56
27250 On ch=1 n=f#5 v=63
27250 Par ch=1 c=64 v=56
27260 On ch=1 n=c5 v=66
27260 Par ch=1 c=64 v=0
27305 Par ch=1 c=64 v=56
27320 Par ch=1 c=64 v=127
27325 On ch=1 n=c5 v=0
27335 On ch=1 n=f#5 v=0
27335 On ch=1 n=a6 v=0
27355 On ch=1 n=f#4 v=0
27355 On ch=1 n=d7 v=0
27385 On ch=1 n=a7 v=0
27585 On ch=1 n=d8 v=100
27585 On ch=1 n=g#7 v=86
27585 On ch=1 n=d7 v=88
27590 On ch=1 n=b4 v=70
27595 On ch=1 n=f4 v=74
27595 On ch=1 n=b3 v=68
27600 Par ch=1 c=64 v=72
27610 Par ch=1 c=64 v=0
27640 On ch=1 n=b3 v=0
27645 Par ch=1 c=64 v=24
27650 On ch=1 n=f4 v=0
27650 On ch=1 n=b4 v=0
27655 Par ch=1 c=64 v=104
27670 Par ch=1 c=64 v=127
27675 On ch=1 n=d7 v=0
27680 On ch=1 n=g#7 v=0
27690 On ch=1 n=d8 v=0
27855 On ch=1 n=d8 v=93
27855 On ch=1 n=f#4 v=67
27855 On ch=1 n=d7 v=85
27855 On ch=1 n=c5 v=71
27860 On ch=1 n=a7 v=82
27865 On ch=1 n=c4 v=64
27885 On ch=1 n=a7 v=0
27890 On ch=1 n=c4 v=0
27890 On ch=1 n=d8 v=0
27895 On ch=1 n=c5 v=0
27900 On ch=1 n=d7 v=0
27900 On ch=1 n=f#4 v=0
27945 On ch=1 n=d8 v=86
27945 On ch=1 n=a7 v=92
27945 On ch=1 n=d7 v=82
27945 Par ch=1 c=64 v=104
27950 On ch=1 n=f#4 v=59
27955 On ch=1 n=c4 v=63
27955 On ch=1 n=c5 v=67
27960 Par ch=1 c=64 v=24
27970 Par ch=1 c=64 v=0
28005 On ch=1 n=c5 v=0
28005 On ch=1 n=c4 v=0
28005 Par ch=1 c=64 v=40
28010 On ch=1 n=f#4 v=0
28015 Par ch=1 c=64 v=127
28025 On ch=1 n=a7 v=0
28030 On ch=1 n=d7 v=0
28040 On ch=1 n=d8 v=0
28275 On ch=1 n=d8 v=97
28275 On ch=1 n=g#7 v=92
28280 On ch=1 n=d7 v=90
28290 On ch=1 n=b4 v=73
28290 On ch=1 n=f4 v=79
28290 On ch=1 n=b3 v=72
28295 Par ch=1 c=64 v=104
28305 Par ch=1 c=64 v=40
28315 Par ch=1 c=64 v=0
28330 Par ch=1 c=64 v=24
28335 On ch=1 n=b3 v=0
28340 Par ch=1 c=64 v=72
28345 On ch=1 n=f4 v=0
28345 On ch=1 n=b4 v=0
28355 Par ch=1 c=64 v=127
28360 On ch=1 n=d7 v=0
28365 On ch=1 n=g#7 v=0
28375 On ch=1 n=d8 v=0
28575 On ch=1 n=d8 v=87
28575 On ch=1 n=f#4 v=71
28575 On ch=1 n=c5 v=77
28575 On ch=1 n=d7 v=86
28580 On ch=1 n=a7 v=84
28580 On ch=1 n=c4 v=74
28600 On ch=1 n=c4 v=0
28600 On ch=1 n=a7 v=0
28605 On ch=1 n=c5 v=0
28610 On ch=1 n=d8 v=0
28615 On ch=1 n=f#4 v=0
28620 On ch=1 n=d7 v=0
28655 On ch=1 n=d8 v=75
28655 On ch=1 n=d7 v=74
28665 On ch=1 n=a7 v=90
28670 On ch=1 n=f#4 v=55
28675 On ch=1 n=c5 v=68
28675 On ch=1 n=c4 v=70
28740 Par ch=1 c=64 v=40
28750 Par ch=1 c=64 v=0
28885 Par ch=1 c=64 v=0
28970 On ch=1 n=c4 v=0
28985 On ch=1 n=f#4 v=0
28985 On ch=1 n=d8 v=0
28990 Par ch=1 c=64 v=0
29005 On ch=1 n=a7 v=0
29010 On ch=1 n=c5 v=0
29020 On ch=1 n=d7 v=0
29295 Par ch=1 c=64 v=88
29305 Par ch=1 c=64 v=72
29320 Par ch=1 c=64 v=40
29330 Par ch=1 c=64 v=24
29340 Par ch=1 c=64 v=0
29595 On ch=1 n=g#4 v=74
29595 On ch=1 n=g#3 v=77
29595 On ch=1 n=g#2 v=58
29645 On ch=1 n=g#2 v=0
29645 On ch=1 n=g#3 v=0
29650 On ch=1 n=g#4 v=0
29695 On ch=1 n=a4 v=87
29695 On ch=1 n=a3 v=79
29695 On ch=1 n=a2 v=67
29725 On ch=1 n=a2 v=0
29740 On ch=1 n=a3 v=0
29750 On ch=1 n=a4 v=0
29995 On ch=1 n=a#4 v=68
30005 On ch=1 n=a#2 v=67
30010 On ch=1 n=a#3 v=69
30050 On ch=1 n=a#3 v=0
30055 On ch=1 n=a#2 v=0
30065 On ch=1 n=a#4 v=0
30095 On ch=1 n=b4 v=84
30095 On ch=1 n=b3 v=74
30095 On ch=1 n=b2 v=82
30210 On ch=1 n=b2 v=0
30235 On ch=1 n=b3 v=0
30235 Par ch=1 c=64 v=127
30240 On ch=1 n=b4 v=0
30490 On ch=1 n=d7 v=97
30495 On ch=1 n=d6 v=83
30495 On ch=1 n=g#6 v=78
30510 On ch=1 n=b4 v=63
30510 On ch=1 n=f5 v=68
30515 On ch=1 n=b5 v=55
30535 On ch=1 n=d6 v=0
30545 On ch=1 n=g#6 v=0
30550 On ch=1 n=b5 v=0
30555 On ch=1 n=f5 v=0
30560 On ch=1 n=b4 v=0
30570 On ch=1 n=d7 v=0
30810 On ch=1 n=d#6 v=80
30810 On ch=1 n=d#7 v=85
30810 On ch=1 n=f#5 v=69
30815 On ch=1 n=b5 v=68
30815 On ch=1 n=a6 v=74
30820 On ch=1 n=b4 v=63
30835 On ch=1 n=a6 v=0
30840 On ch=1 n=b5 v=0
30845 On ch=1 n=b4 v=0
30845 On ch=1 n=d#7 v=0
30845 On ch=1 n=d#6 v=0
30855 On ch=1 n=f#5 v=0
30880 On ch=1 n=d#7 v=86
30880 On ch=1 n=d#6 v=71
30890 On ch=1 n=a6 v=81
30900 On ch=1 n=b4 v=53
30900 On ch=1 n=f#5 v=46
30905 On ch=1 n=b5 v=58
31070 Par ch=1 c=64 v=104
31085 Par ch=1 c=64 v=40
31095 Par ch=1 c=64 v=0
31200 Par ch=1 c=64 v=104
31210 Par ch=1 c=64 v=127
31525 On ch=1 n=d#6 v=0
31530 On ch=1 n=a6 v=0
31535 On ch=1 n=b5 v=0
31540 On ch=1 n=b4 v=0
31555 On ch=1 n=f#5 v=0
31575 On ch=1 n=d#7 v=0
31860 On ch=1 n=f7 v=100
31865 On ch=1 n=f6 v=86
31870 On ch=1 n=g#5 v=70
31870 On ch=1 n=b6 v=85
31870 On ch=1 n=g#4 v=61
31875 On ch=1 n=d5 v=66
31875 Par ch=1 c=64 v=104
31885 Par ch=1 c=64 v=24
31895 Par ch=1 c=64 v=0
31935 On ch=1 n=g#4 v=0
31945 On ch=1 n=d5 v=0
31945 On ch=1 n=f6 v=0
31945 Par ch=1 c=64 v=56
31955 Par ch=1 c=64 v=127
31970 On ch=1 n=b6 v=0
31970 On ch=1 n=f7 v=0
31975 On ch=1 n=g#5 v=0
32140 On ch=1 n=f#7 v=84
32145 On ch=1 n=f#6 v=85
32145 On ch=1 n=a5 v=71
32150 On ch=1 n=b6 v=82
32150 On ch=1 n=d#5 v=52
32155 On ch=1 n=a4 v=53
32180 On ch=1 n=a4 v=0
32180 On ch=1 n=b6 v=0
32185 On ch=1 n=d#5 v=0
32185 On ch=1 n=f#6 v=0
32185 On ch=1 n=f#7 v=0
32190 On ch=1 n=a5 v=0
32235 On ch=1 n=f#7 v=89
32235 On ch=1 n=f#6 v=80
32240 On ch=1 n=b6 v=82
32245 On ch=1 n=a5 v=63
32245 Par ch=1 c=64 v=104
32255 On ch=1 n=d#5 v=68
32255 On ch=1 n=a4 v=56
32260 Par ch=1 c=64 v=24
32270 Par ch=1 c=64 v=0
32305 On ch=1 n=a5 v=0
32305 Par ch=1 c=64 v=56
32310 On ch=1 n=a4 v=0
32315 On ch=1 n=d#5 v=0
32315 Par ch=1 c=64 v=127
32325 On ch=1 n=f#6 v=0
32330 On ch=1 n=b6 v=0
32370 On ch=1 n=f#7 v=0
32560 On ch=1 n=g#7 v=96
32560 On ch=1 n=g#6 v=87
32565 On ch=1 n=d7 v=86
32565 On ch=1 n=f5 v=67
32570 On ch=1 n=b4 v=71
32575 On ch=1 n=f4 v=68
32585 Par ch=1 c=64 v=40
32595 Par ch=1 c=64 v=0
32615 On ch=1 n=f4 v=0
32620 Par ch=1 c=64 v=56
32630 On ch=1 n=d7 v=0
32630 Par ch=1 c=64 v=127
32635 On ch=1 n=b4 v=0
32635 On ch=1 n=f5 v=0
32640 On ch=1 n=g#6 v=0
32675 On ch=1 n=g#7 v=0
32830 On ch=1 n=a7 v=96
32830 On ch=1 n=f#5 v=65
32830 On ch=1 n=d#7 v=79
32830 On ch=1 n=f#4 v=60
32835 On ch=1 n=a6 v=82
32835 On ch=1 n=b4 v=64
32870 On ch=1 n=f#5 v=0
32875 On ch=1 n=a6 v=0
32875 On ch=1 n=f#4 v=0
32875 On ch=1 n=d#7 v=0
32880 On ch=1 n=a7 v=0
32885 On ch=1 n=b4 v=0
32925 On ch=1 n=a7 v=93
32925 On ch=1 n=d#7 v=79
32925 On ch=1 n=a6 v=82
32930 On ch=1 n=f#4 v=55
32930 Par ch=1 c=64 v=56
32935 On ch=1 n=b4 v=63
32935 On ch=1 n=f#5 v=64
32940 Par ch=1 c=64 v=0
32975 On ch=1 n=a6 v=0
32975 Par ch=1 c=64 v=88
32980 On ch=1 n=f#5 v=0
32985 On ch=1 n=b4 v=0
32990 On ch=1 n=d#7 v=0
32990 Par ch=1 c=64 v=127
33000 On ch=1 n=f#4 v=0
33015 On ch=1 n=a7 v=0
33240 On ch=1 n=d8 v=102
33245 On ch=1 n=d7 v=87
33245 On ch=1 n=g#7 v=84
33250 On ch=1 n=b4 v=75
33255 On ch=1 n=f4 v=78
33255 On ch=1 n=b3 v=75
33255 Par ch=1 c=64 v=56
33270 Par ch=1 c=64 v=0
33290 Par ch=1 c=64 v=24
33295 On ch=1 n=b3 v=0
33300 On ch=1 n=f4 v=0
33300 Par ch=1 c=64 v=72
33305 On ch=1 n=d7 v=0
33310 On ch=1 n=b4 v=0
33315 Par ch=1 c=64 v=127
33325 On ch=1 n=g#7 v=0
33330 On ch=1 n=d8 v=0
33515 On ch=1 n=d#8 v=96
33515 On ch=1 n=f#4 v=71
33515 On ch=1 n=d#7 v=87
33520 On ch=1 n=a7 v=87
33520 On ch=1 n=b4 v=66
33525 On ch=1 n=b3 v=68
33540 On ch=1 n=a7 v=0
33550 On ch=1 n=b3 v=0
33555 On ch=1 n=d#7 v=0
33560 On ch=1 n=b4 v=0
33560 On ch=1 n=f#4 v=0
33560 On ch=1 n=d#8 v=0
33610 On ch=1 n=d#8 v=99
33610 On ch=1 n=d#7 v=84
33615 On ch=1 n=a7 v=100
33615 Par ch=1 c=64 v=72
33620 On ch=1 n=b4 v=69
33625 On ch=1 n=f#4 v=75
33625 On ch=1 n=b3 v=70
33630 Par ch=1 c=64 v=0
33675 Par ch=1 c=64 v=56
33685 Par ch=1 c=64 v=127
33690 On ch=1 n=b3 v=0
33700 On ch=1 n=f#4 v=0
33700 On ch=1 n=b4 v=0
33710 On ch=1 n=a7 v=0
33710 On ch=1 n=d#7 v=0
33725 On ch=1 n=d#8 v=0
33980 On ch=1 n=d8 v=103
33980 On ch=1 n=d7 v=87
33985 On ch=1 n=g#7 v=84
33995 On ch=1 n=b4 v=82
34000 On ch=1 n=f4 v=82
34000 On ch=1 n=b3 v=77
34025 Par ch=1 c=64 v=56
34035 Par ch=1 c=64 v=0
34080 Par ch=1 c=64 v=56
34095 Par ch=1 c=64 v=127
34100 On ch=1 n=b3 v=0
34105 On ch=1 n=b4 v=0
34110 On ch=1 n=f4 v=0
34135 On ch=1 n=d7 v=0
34140 On ch=1 n=g#7 v=0
34160 On ch=1 n=d8 v=0
34380 On ch=1 n=d#8 v=97
34380 On ch=1 n=d#7 v=86
34380 On ch=1 n=a7 v=88
34380 On ch=1 n=b3 v=74
34380 On ch=1 n=b4 v=70
34380 On ch=1 n=f#4 v=73
34420 On ch=1 n=a7 v=0
34425 On ch=1 n=f#4 v=0
34425 On ch=1 n=b3 v=0
34425 On ch=1 n=d#7 v=0
34430 On ch=1 n=b4 v=0
34450 On ch=1 n=d#8 v=0
34490 On ch=1 n=d#8 v=106
34490 On ch=1 n=b4 v=82
34490 On ch=1 n=b3 v=78
34490 On ch=1 n=f#4 v=81
34490 On ch=1 n=a7 v=92
34490 On ch=1 n=d#7 v=89
34560 On ch=1 n=d#7 v=0
34560 On ch=1 n=a7 v=0
34560 On ch=1 n=f#4 v=0
34560 On ch=1 n=b3 v=0
34560 On ch=1 n=b4 v=0
34560 On ch=1 n=d#8 v=0
35890 Par ch=1 c=64 v=0
36412 On ch=1 n=f#4 v=59
36412 On ch=1 n=f#3 v=54
36462 On ch=1 n=f#3 v=0
36472 On ch=1 n=f#4 v=0
36512 On ch=1 n=g#4 v=68
36517 On ch=1 n=g#3 v=68
36557 On ch=1 n=g#3 v=0
36557 On ch=1 n=g#4 v=0
36872 On ch=1 n=a4 v=64
36877 On ch=1 n=a3 v=63
36902 On ch=1 n=a3 v=0
36932 On ch=1 n=a4 v=0
36982 On ch=1 n=a#4 v=69
36992 On ch=1 n=a#3 v=69
37117 Par ch=1 c=64 v=88
37127 Par ch=1 c=64 v=127
37172 On ch=1 n=a#4 v=0
37432 Par ch=1 c=64 v=104
37447 Par ch=1 c=64 v=40
37452 On ch=1 n=g5 v=48
37452 On ch=1 n=d#5 v=47
37452 On ch=1 n=g4 v=48
37457 Par ch=1 c=64 v=0
37467 On ch=1 n=a#2 v=48
37507 Par ch=1 c=64 v=40
37517 Par ch=1 c=64 v=104
37532 Par ch=1 c=64 v=127
37542 On ch=1 n=g4 v=0
37547 On ch=1 n=g5 v=0
37557 On ch=1 n=a#2 v=0
37562 On ch=1 n=d#5 v=0
37562 On ch=1 n=a#3 v=0
37902 On ch=1 n=a#4 v=80
37907 On ch=1 n=a#3 v=65
37927 Par ch=1 c=64 v=104
37937 Par ch=1 c=64 v=56
37947 Par ch=1 c=64 v=0
38007 Par ch=1 c=64 v=40
38022 Par ch=1 c=64 v=104
38032 Par ch=1 c=64 v=127
38057 On ch=1 n=a#4 v=0
38077 On ch=1 n=a#3 v=0
38367 On ch=1 n=g#4 v=47
38372 On ch=1 n=f5 v=48
38372 On ch=1 n=d5 v=47
38372 On ch=1 n=a#2 v=46
38447 On ch=1 n=a#2 v=0
38462 On ch=1 n=d5 v=0
38467 On ch=1 n=g#4 v=0
38482 On ch=1 n=f5 v=0
38817 On ch=1 n=a#4 v=69
38822 On ch=1 n=a#3 v=61
38852 Par ch=1 c=64 v=104
38862 Par ch=1 c=64 v=40
38872 Par ch=1 c=64 v=0
38937 Par ch=1 c=64 v=72
38947 Par ch=1 c=64 v=127
38967 On ch=1 n=a#4 v=0
38987 On ch=1 n=a#3 v=0
39312 On ch=1 n=a#2 v=46
39312 On ch=1 n=g5 v=50
39312 On ch=1 n=g4 v=46
39312 On ch=1 n=d#5 v=44
39382 On ch=1 n=a#2 v=0
39472 On ch=1 n=g4 v=0
39472 On ch=1 n=g5 v=0
39492 On ch=1 n=d#5 v=0
39892 Par ch=1 c=64 v=72
39902 Par ch=1 c=64 v=24
39912 Par ch=1 c=64 v=0
40142 On ch=1 n=g4 v=71
40142 On ch=1 n=g3 v=65
40197 On ch=1 n=g3 v=0
40202 On ch=1 n=g4 v=0
40237 On ch=1 n=g#4 v=73
40242 On ch=1 n=g#3 v=67
40292 On ch=1 n=g#3 v=0
40297 On ch=1 n=g#4 v=0
40587 On ch=1 n=a3 v=72
40592 On ch=1 n=a4 v=75
40632 On ch=1 n=a3 v=0
40642 On ch=1 n=a4 v=0
40697 On ch=1 n=a#4 v=72
40712 On ch=1 n=a#3 v=65
40817 Par ch=1 c=64 v=88
40832 Par ch=1 c=64 v=127
40907 On ch=1 n=a#4 v=0
41172 On ch=1 n=g4 v=51
41172 On ch=1 n=g5 v=49
41177 On ch=1 n=d#5 v=39
41182 Par ch=1 c=64 v=72
41187 On ch=1 n=a#2 v=44
41192 Par ch=1 c=64 v=0
41257 Par ch=1 c=64 v=56
41267 Par ch=1 c=64 v=127
41287 On ch=1 n=a#2 v=0
41292 On ch=1 n=g4 v=0
41312 On ch=1 n=a#3 v=0
41317 On ch=1 n=g5 v=0
41322 On ch=1 n=d#5 v=0
41627 On ch=1 n=a#4 v=71
41632 On ch=1 n=a#3 v=61
41662 Par ch=1 c=64 v=56
41672 Par ch=1 c=64 v=0
41737 Par ch=1 c=64 v=72
41747 Par ch=1 c=64 v=127
41777 On ch=1 n=a#4 v=0
41792 On ch=1 n=a#3 v=0
42102 On ch=1 n=g#4 v=31
42102 On ch=1 n=d5 v=43
42107 On ch=1 n=f5 v=48
42112 On ch=1 n=a#2 v=46
42187 On ch=1 n=a#2 v=0
42207 On ch=1 n=d5 v=0
42212 On ch=1 n=g#4 v=0
42232 On ch=1 n=f5 v=0
42557 On ch=1 n=a#4 v=67
42562 On ch=1 n=a#3 v=62
42577 Par ch=1 c=64 v=88
42587 Par ch=1 c=64 v=24
42597 Par ch=1 c=64 v=0
42652 Par ch=1 c=64 v=40
42662 Par ch=1 c=64 v=127
42692 On ch=1 n=a#4 v=0
42712 On ch=1 n=a#3 v=0
43072 On ch=1 n=a#5 v=48
43072 On ch=1 n=g4 v=49
43072 On ch=1 n=a#2 v=45
43072 On ch=1 n=d#5 v=48
43132 On ch=1 n=a#2 v=0
43227 On ch=1 n=g4 v=0
43237 On ch=1 n=d#5 v=0
43252 On ch=1 n=a#5 v=0
43677 Par ch=1 c=64 v=88
43682 Par ch=1 c=64 v=56
43697 Par ch=1 c=64 v=0
43867 On ch=1 n=a#3 v=62
43872 On ch=1 n=a#4 v=56
43942 On ch=1 n=a#4 v=0
43947 On ch=1 n=a#3 v=0
43987 On ch=1 n=b4 v=76
43992 On ch=1 n=b3 v=76
44037 On ch=1 n=b3 v=0
44052 On ch=1 n=b4 v=0
44337 On ch=1 n=c5 v=75
44342 On ch=1 n=c4 v=73
44377 On ch=1 n=c4 v=0
44407 On ch=1 n=c5 v=0
44447 On ch=1 n=c#5 v=73
44462 On ch=1 n=c#4 v=73
44577 Par ch=1 c=64 v=127
44667 On ch=1 n=c#5 v=0
44927 On ch=1 n=a#5 v=52
44927 On ch=1 n=a#4 v=46
44927 On ch=1 n=c#3 v=48
44927 On ch=1 n=f#5 v=46
45022 On ch=1 n=f#5 v=0
45022 On ch=1 n=c#3 v=0
45037 On ch=1 n=a#4 v=0
45052 On ch=1 n=c#4 v=0
45057 On ch=1 n=a#5 v=0
45372 On ch=1 n=c#5 v=75
45372 On ch=1 n=c#4 v=62
45402 Par ch=1 c=64 v=56
45412 Par ch=1 c=64 v=0
45472 Par ch=1 c=64 v=56
45482 Par ch=1 c=64 v=127
45522 On ch=1 n=c#5 v=0
45552 On ch=1 n=c#4 v=0
45832 On ch=1 n=c#3 v=48
45837 On ch=1 n=g#5 v=50
45842 On ch=1 n=b4 v=44
45842 On ch=1 n=f5 v=43
45917 On ch=1 n=c#3 v=0
45967 On ch=1 n=b4 v=0
45972 On ch=1 n=f5 v=0
45987 On ch=1 n=g#5 v=0
46297 On ch=1 n=c#5 v=76
46307 On ch=1 n=c#4 v=61
46357 Par ch=1 c=64 v=72
46367 Par ch=1 c=64 v=0
46442 Par ch=1 c=64 v=72
46452 Par ch=1 c=64 v=127
46732 On ch=1 n=c#5 v=0
46812 On ch=1 n=a#4 v=47
46817 On ch=1 n=c#5 v=44
46822 On ch=1 n=a#5 v=51
46827 On ch=1 n=f#5 v=45
46832 On ch=1 n=f#3 v=50
46877 Par ch=1 c=64 v=56
46887 Par ch=1 c=64 v=0
46992 Par ch=1 c=64 v=104
47007 Par ch=1 c=64 v=127
47032 On ch=1 n=f#3 v=0
47032 On ch=1 n=a#5 v=0
47032 On ch=1 n=c#5 v=0
47032 On ch=1 n=a#4 v=0
47037 On ch=1 n=f#5 v=0
47037 On ch=1 n=c#4 v=0
47402 Par ch=1 c=64 v=104
47412 Par ch=1 c=64 v=56
47422 Par ch=1 c=64 v=24
47432 Par ch=1 c=64 v=0
47557 On ch=1 n=c#5 v=71
47562 On ch=1 n=c#4 v=63
47617 On ch=1 n=c#4 v=0
47642 On ch=1 n=c#5 v=0
47662 On ch=1 n=f#5 v=76
47667 On ch=1 n=f#4 v=73
47702 On ch=1 n=f#4 v=0
47737 On ch=1 n=f#5 v=0
47987 On ch=1 n=e5 v=82
47992 On ch=1 n=e4 v=63
48037 On ch=1 n=e4 v=0
48052 On ch=1 n=e5 v=0
48097 On ch=1 n=f5 v=84
48107 On ch=1 n=f4 v=78
48197 Par ch=1 c=64 v=56
48207 Par ch=1 c=64 v=127
48297 On ch=1 n=f5 v=0
48562 On ch=1 n=c#6 v=59
48562 On ch=1 n=c#5 v=50
48572 On ch=1 n=a#5 v=49
48592 On ch=1 n=f3 v=54
48642 On ch=1 n=c#5 v=0
48672 On ch=1 n=a#5 v=0
48677 On ch=1 n=f3 v=0
48697 On ch=1 n=c#6 v=0
48712 On ch=1 n=f4 v=0
49022 On ch=1 n=f5 v=84
49027 On ch=1 n=f4 v=72
49042 Par ch=1 c=64 v=72
49052 Par ch=1 c=64 v=0
49127 Par ch=1 c=64 v=56
49137 Par ch=1 c=64 v=127
49167 On ch=1 n=f5 v=0
49182 On ch=1 n=f4 v=0
49492 On ch=1 n=a5 v=51
49492 On ch=1 n=c6 v=56
49492 On ch=1 n=d#5 v=52
49492 On ch=1 n=f3 v=54
49547 On ch=1 n=f3 v=0
49557 On ch=1 n=d#5 v=0
49557 On ch=1 n=c6 v=0
49567 On ch=1 n=a5 v=0
49857 On ch=1 n=f5 v=77
49857 On ch=1 n=f4 v=79
49902 On ch=1 n=f4 v=0
49902 On ch=1 n=f5 v=0
49957 On ch=1 n=f5 v=84
49962 On ch=1 n=f4 v=77
49967 Par ch=1 c=64 v=104
49977 Par ch=1 c=64 v=40
49987 Par ch=1 c=64 v=0
50087 Par ch=1 c=64 v=88
50097 Par ch=1 c=64 v=127
50122 On ch=1 n=f5 v=0
50137 On ch=1 n=f4 v=0
50427 On ch=1 n=g#4 v=85
50427 On ch=1 n=b3 v=70
50432 On ch=1 n=d#4 v=69
50457 Par ch=1 c=64 v=56
50467 Par ch=1 c=64 v=0
50542 Par ch=1 c=64 v=127
50557 On ch=1 n=b3 v=0
50577 On ch=1 n=d#4 v=0
50597 On ch=1 n=g#4 v=0
50927 On ch=1 n=b5 v=96
51227 On ch=1 n=b5 v=0
51547 On ch=1 n=g#5 v=78
51712 On ch=1 n=g#5 v=0
51732 On ch=1 n=f5 v=78
51842 On ch=1 n=f5 v=0
51852 On ch=1 n=d#5 v=74
51957 On ch=1 n=d#5 v=0
51972 On ch=1 n=b4 v=70
52027 On ch=1 n=b4 v=0
52067 On ch=1 n=g#4 v=76
52142 On ch=1 n=g#4 v=0
52167 On ch=1 n=f4 v=75
52247 On ch=1 n=f4 v=0
52257 On ch=1 n=d#4 v=77
52332 On ch=1 n=d#4 v=0
52347 On ch=1 n=b3 v=68
52412 On ch=1 n=b3 v=0
52447 On ch=1 n=g#3 v=72
52532 On ch=1 n=g#3 v=0
52547 On ch=1 n=f3 v=82
52607 On ch=1 n=f3 v=0
52692 On ch=1 n=d#3 v=85
52777 Par ch=1 c=64 v=104
52787 Par ch=1 c=64 v=24
52797 Par ch=1 c=64 v=0
52947 Par ch=1 c=64 v=104
52957 Par ch=1 c=64 v=127
53137 On ch=1 n=b3 v=66
53137 On ch=1 n=g#3 v=49
53142 On ch=1 n=f3 v=54
53227 On ch=1 n=g#3 v=0
53232 On ch=1 n=f3 v=0
53257 On ch=1 n=b3 v=0
53412 On ch=1 n=d#3 v=0
53462 On ch=1 n=d3 v=83
53512 On ch=1 n=d3 v=0
53567 On ch=1 n=d3 v=85
53627 Par ch=1 c=64 v=88
53637 Par ch=1 c=64 v=0
53757 Par ch=1 c=64 v=72
53767 Par ch=1 c=64 v=127
54007 On ch=1 n=a#3 v=62
54017 On ch=1 n=f3 v=53
54022 On ch=1 n=g#3 v=48
54032 Par ch=1 c=64 v=88
54047 Par ch=1 c=64 v=24
54057 Par ch=1 c=64 v=0
54087 Par ch=1 c=64 v=56
54097 Par ch=1 c=64 v=127
54102 On ch=1 n=g#3 v=0
54102 On ch=1 n=f3 v=0
54127 On ch=1 n=a#3 v=0
54197 On ch=1 n=d3 v=0
54462 On ch=1 n=b2 v=83
54522 Par ch=1 c=64 v=56
54537 Par ch=1 c=64 v=0
54662 Par ch=1 c=64 v=104
54672 Par ch=1 c=64 v=127
54907 On ch=1 n=d#4 v=84
54917 On ch=1 n=f3 v=58
54917 On ch=1 n=g#3 v=54
55167 On ch=1 n=b2 v=0
55197 On ch=1 n=f3 v=0
55212 On ch=1 n=g#3 v=0
55217 On ch=1 n=d#4 v=0
55232 On ch=1 n=a#2 v=83
55282 On ch=1 n=a#2 v=0
55367 On ch=1 n=a#2 v=86
55367 Par ch=1 c=64 v=88
55372 On ch=1 n=d4 v=74
55372 On ch=1 n=f3 v=41
55372 On ch=1 n=g#3 v=44
55377 Par ch=1 c=64 v=0
55532 Par ch=1 c=64 v=127
55562 On ch=1 n=f3 v=0
55567 On ch=1 n=g#3 v=0
55582 On ch=1 n=a#2 v=0
55602 On ch=1 n=d4 v=0
55847 On ch=1 n=a#3 v=82
55897 On ch=1 n=a#3 v=0
56307 On ch=1 n=a#4 v=82
56367 On ch=1 n=a#4 v=0
56757 On ch=1 n=a#5 v=80
56812 On ch=1 n=a#5 v=0
57217 On ch=1 n=a#6 v=78
57287 On ch=1 n=a#6 v=0
58447 Par ch=1 c=64 v=0
58507 On ch=1 n=a#6 v=62
58507 On ch=1 n=a#4 v=42
58507 On ch=1 n=a#5 v=54
58557 On ch=1 n=a#4 v=0
58572 On ch=1 n=a#5 v=0
58582 On ch=1 n=a#6 v=0
58667 On ch=1 n=b6 v=77
58667 On ch=1 n=b5 v=63
58672 On ch=1 n=b4 v=48
58707 On ch=1 n=b5 v=0
58712 On ch=1 n=b6 v=0
58732 On ch=1 n=b4 v=0
58817 On ch=1 n=c7 v=81
58817 On ch=1 n=c6 v=70
58817 On ch=1 n=c5 v=53
58857 On ch=1 n=c6 v=0
58857 On ch=1 n=c7 v=0
58867 On ch=1 n=c5 v=0
58962 On ch=1 n=c#7 v=71
58967 On ch=1 n=c#6 v=65
58967 On ch=1 n=c#5 v=56
59022 On ch=1 n=c#5 v=0
59032 On ch=1 n=c#7 v=0
59037 On ch=1 n=c#6 v=0
59127 On ch=1 n=d7 v=85
59132 On ch=1 n=d6 v=70
59137 On ch=1 n=d5 v=52
59177 On ch=1 n=d6 v=0
59177 On ch=1 n=d7 v=0
59192 On ch=1 n=d5 v=0
59332 On ch=1 n=d#7 v=82
59332 On ch=1 n=d#6 v=69
59332 On ch=1 n=d#5 v=50
59397 Par ch=1 c=64 v=72
59407 Par ch=1 c=64 v=127
59417 On ch=1 n=d#5 v=0
59437 On ch=1 n=d#6 v=0
59437 On ch=1 n=d#7 v=0
59837 On ch=1 n=a#4 v=43
59842 On ch=1 n=g4 v=51
59857 On ch=1 n=d#3 v=48
59862 On ch=1 n=d#4 v=37
59877 On ch=1 n=a#3 v=27
59902 On ch=1 n=g4 v=0
59912 On ch=1 n=a#4 v=0
59937 On ch=1 n=d#4 v=0
59937 On ch=1 n=d#3 v=0
59942 On ch=1 n=a#3 v=0
60352 Par ch=1 c=64 v=72
60357 On ch=1 n=d#7 v=85
60362 On ch=1 n=d#6 v=74
60362 On ch=1 n=d#5 v=60
60362 Par ch=1 c=64 v=0
60447 Par ch=1 c=64 v=72
60457 Par ch=1 c=64 v=127
60472 On ch=1 n=d#5 v=0
60472 On ch=1 n=d#7 v=0
60492 On ch=1 n=d#6 v=0
60862 On ch=1 n=g#4 v=43
60867 On ch=1 n=b4 v=57
60877 On ch=1 n=g#3 v=49
60887 On ch=1 n=b3 v=42
60887 On ch=1 n=d#4 v=34
60917 On ch=1 n=g#4 v=0
60927 On ch=1 n=b4 v=0
60942 On ch=1 n=g#3 v=0
60947 On ch=1 n=b3 v=0
60952 On ch=1 n=d#4 v=0
61242 On ch=1 n=d#7 v=80
61242 On ch=1 n=d#6 v=71
61257 On ch=1 n=d#5 v=56
61292 On ch=1 n=d#6 v=0
61297 On ch=1 n=d#7 v=0
61302 On ch=1 n=d#5 v=0
61387 Par ch=1 c=64 v=104
61397 On ch=1 n=d#7 v=84
61397 On ch=1 n=d#6 v=72
61397 Par ch=1 c=64 v=40
61402 On ch=1 n=d#5 v=60
61412 Par ch=1 c=64 v=0
61497 Par ch=1 c=64 v=104
61507 On ch=1 n=d#5 v=0
61507 Par ch=1 c=64 v=127
61512 On ch=1 n=d#7 v=0
61522 On ch=1 n=d#6 v=0
61892 On ch=1 n=a#4 v=44
61902 On ch=1 n=g4 v=57
61912 On ch=1 n=d#3 v=50
61917 On ch=1 n=d#4 v=37
61927 On ch=1 n=a#3 v=36
61972 On ch=1 n=g4 v=0
61987 On ch=1 n=a#3 v=0
61987 On ch=1 n=d#4 v=0
61987 On ch=1 n=a#4 v=0
61992 On ch=1 n=d#3 v=0
62482 Par ch=1 c=64 v=72
62497 Par ch=1 c=64 v=40
62507 Par ch=1 c=64 v=0
62612 On ch=1 n=d7 v=79
62612 On ch=1 n=d6 v=68
62617 On ch=1 n=d5 v=52
62652 On ch=1 n=d6 v=0
62657 On ch=1 n=d7 v=0
62662 On ch=1 n=d5 v=0
62757 On ch=1 n=d#6 v=72
62762 On ch=1 n=d#7 v=75
62767 On ch=1 n=d#5 v=50
62807 On ch=1 n=d#6 v=0
62822 On ch=1 n=d#5 v=0
62832 On ch=1 n=d#7 v=0
62907 On ch=1 n=g7 v=83
62907 On ch=1 n=g6 v=76
62917 On ch=1 n=g5 v=55
62952 On ch=1 n=g6 v=0
62957 On ch=1 n=g7 v=0
62967 On ch=1 n=g5 v=0
63062 On ch=1 n=d#7 v=77
63067 On ch=1 n=d#5 v=48
63067 On ch=1 n=d#6 v=71
63107 On ch=1 n=d#6 v=0
63112 On ch=1 n=d#7 v=0
63117 On ch=1 n=d#5 v=0
63222 On ch=1 n=b6 v=84
63227 On ch=1 n=b4 v=48
63227 On ch=1 n=b5 v=62
63252 On ch=1 n=b5 v=0
63262 On ch=1 n=b6 v=0
63277 On ch=1 n=b4 v=0
63402 On ch=1 n=a#6 v=81
63402 On ch=1 n=a#4 v=44
63402 On ch=1 n=a#5 v=70
63462 Par ch=1 c=64 v=56
63477 Par ch=1 c=64 v=127
63492 On ch=1 n=a#6 v=0
63512 On ch=1 n=a#4 v=0
63517 On ch=1 n=a#5 v=0
63922 On ch=1 n=d5 v=56
63927 On ch=1 n=f4 v=48
63927 On ch=1 n=a#4 v=42
63937 On ch=1 n=a#2 v=49
63942 On ch=1 n=a#3 v=43
63992 On ch=1 n=f4 v=0
64002 On ch=1 n=a#4 v=0
64007 On ch=1 n=a#3 v=0
64007 On ch=1 n=a#2 v=0
64027 On ch=1 n=d5 v=0
64422 On ch=1 n=a#6 v=76
64427 On ch=1 n=a#5 v=65
64427 Par ch=1 c=64 v=88
64437 On ch=1 n=a#4 v=49
64442 Par ch=1 c=64 v=24
64452 Par ch=1 c=64 v=0
64522 Par ch=1 c=64 v=24
64532 Par ch=1 c=64 v=104
64547 Par ch=1 c=64 v=127
64552 On ch=1 n=a#4 v=0
64552 On ch=1 n=a#6 v=0
64557 On ch=1 n=a#5 v=0
64947 On ch=1 n=f#4 v=52
64952 On ch=1 n=d#5 v=53
64952 On ch=1 n=d#3 v=51
64957 On ch=1 n=a#4 v=43
64957 On ch=1 n=a#3 v=45
65007 On ch=1 n=f#4 v=0
65022 On ch=1 n=a#3 v=0
65022 On ch=1 n=a#4 v=0
65022 On ch=1 n=d#3 v=0
65037 On ch=1 n=d#5 v=0
65352 On ch=1 n=a#6 v=71
65357 On ch=1 n=a#5 v=58
65357 On ch=1 n=a#4 v=55
65407 On ch=1 n=a#4 v=0
65412 On ch=1 n=a#5 v=0
65412 On ch=1 n=a#6 v=0
65452 Par ch=1 c=64 v=104
65467 Par ch=1 c=64 v=24
65477 Par ch=1 c=64 v=0
65497 On ch=1 n=a#6 v=78
65502 On ch=1 n=a#5 v=61
65507 On ch=1 n=a#4 v=56
65557 Par ch=1 c=64 v=72
65572 Par ch=1 c=64 v=127
65582 On ch=1 n=a#4 v=0
65587 On ch=1 n=a#6 v=0
65607 On ch=1 n=a#5 v=0
65992 On ch=1 n=f4 v=53
65992 On ch=1 n=d5 v=51
65997 On ch=1 n=a#4 v=44
66002 On ch=1 n=a#3 v=43
66007 On ch=1 n=a#2 v=48
66057 On ch=1 n=f4 v=0
66062 On ch=1 n=a#2 v=0
66062 On ch=1 n=a#3 v=0
66077 On ch=1 n=a#4 v=0
66087 On ch=1 n=d5 v=0
66522 Par ch=1 c=64 v=104
66537 Par ch=1 c=64 v=72
66552 Par ch=1 c=64 v=56
66562 Par ch=1 c=64 v=24
66572 Par ch=1 c=64 v=0
66607 On ch=1 n=a#5 v=59
66607 On ch=1 n=a#6 v=68
66617 On ch=1 n=a#4 v=45
66667 On ch=1 n=a#5 v=0
66672 On ch=1 n=a#4 v=0
66672 On ch=1 n=a#6 v=0
66732 On ch=1 n=b4 v=61
66732 On ch=1 n=b6 v=74
66732 On ch=1 n=b5 v=65
66777 On ch=1 n=b5 v=0
66782 On ch=1 n=b6 v=0
66787 On ch=1 n=b4 v=0
66852 On ch=1 n=c7 v=82
66852 On ch=1 n=c6 v=76
66857 On ch=1 n=c5 v=57
66897 On ch=1 n=c7 v=0
66902 On ch=1 n=c5 v=0
66902 On ch=1 n=c6 v=0
66977 On ch=1 n=c#7 v=77
66982 On ch=1 n=c#6 v=73
66982 On ch=1 n=c#5 v=64
67032 On ch=1 n=c#6 v=0
67037 On ch=1 n=c#5 v=0
67042 On ch=1 n=c#7 v=0
67097 On ch=1 n=d7 v=93
67102 On ch=1 n=d6 v=81
67107 On ch=1 n=d5 v=59
67147 On ch=1 n=d6 v=0
67157 On ch=1 n=d7 v=0
67162 On ch=1 n=d5 v=0
67222 On ch=1 n=d#7 v=84
67222 On ch=1 n=d#6 v=82
67227 On ch=1 n=d#5 v=64
67277 On ch=1 n=d#6 v=0
67282 On ch=1 n=d#5 v=0
67287 On ch=1 n=d#7 v=0
67357 On ch=1 n=e7 v=85
67357 On ch=1 n=e5 v=69
67357 On ch=1 n=e6 v=80
67402 On ch=1 n=e6 v=0
67407 On ch=1 n=e5 v=0
67412 On ch=1 n=e7 v=0
67507 On ch=1 n=f7 v=90
67507 On ch=1 n=f6 v=63
67507 On ch=1 n=f5 v=58
67572 Par ch=1 c=64 v=40
67587 Par ch=1 c=64 v=104
67597 Par ch=1 c=64 v=127
67602 On ch=1 n=f5 v=0
67632 On ch=1 n=f7 v=0
67657 On ch=1 n=f6 v=0
68052 On ch=1 n=g#4 v=46
68052 On ch=1 n=c5 v=61
68067 On ch=1 n=f3 v=46
68077 On ch=1 n=f4 v=17
68082 On ch=1 n=c4 v=42
68122 On ch=1 n=g#4 v=0
68127 On ch=1 n=c5 v=0
68147 On ch=1 n=c4 v=0
68147 On ch=1 n=f3 v=0
68157 On ch=1 n=f4 v=0
68577 Par ch=1 c=64 v=56
68587 On ch=1 n=f7 v=86
68587 On ch=1 n=f6 v=80
68587 Par ch=1 c=64 v=0
68597 On ch=1 n=f5 v=69
68657 Par ch=1 c=64 v=40
68667 On ch=1 n=f7 v=0
68667 Par ch=1 c=64 v=127
68677 On ch=1 n=f6 v=0
68682 On ch=1 n=f5 v=0
69082 On ch=1 n=c#5 v=55
69087 On ch=1 n=a#4 v=45
69102 On ch=1 n=f4 v=41
69102 On ch=1 n=a#3 v=49
69112 On ch=1 n=c#4 v=45
69147 On ch=1 n=c#5 v=0
69152 On ch=1 n=c#4 v=0
69152 On ch=1 n=a#4 v=0
69162 On ch=1 n=a#3 v=0
69167 On ch=1 n=f4 v=0
69502 On ch=1 n=f7 v=84
69507 On ch=1 n=f6 v=73
69512 On ch=1 n=f5 v=63
69557 On ch=1 n=f5 v=0
69557 On ch=1 n=f6 v=0
69562 On ch=1 n=f7 v=0
69612 Par ch=1 c=64 v=88
69627 Par ch=1 c=64 v=0
69642 On ch=1 n=f7 v=88
69642 On ch=1 n=f6 v=79
69642 On ch=1 n=f5 v=70
69697 On ch=1 n=f5 v=0
69697 Par ch=1 c=64 v=40
69707 On ch=1 n=f7 v=0
69707 Par ch=1 c=64 v=104
69717 On ch=1 n=f6 v=0
69717 Par ch=1 c=64 v=127
70147 On ch=1 n=g#4 v=42
70152 On ch=1 n=c5 v=60
70162 On ch=1 n=f3 v=48
70162 On ch=1 n=f4 v=45
70172 On ch=1 n=c4 v=48
70217 On ch=1 n=c4 v=0
70227 On ch=1 n=f3 v=0
70232 On ch=1 n=f4 v=0
70232 On ch=1 n=g#4 v=0
70237 On ch=1 n=c5 v=0
70707 Par ch=1 c=64 v=104
70717 Par ch=1 c=64 v=72
70732 Par ch=1 c=64 v=56
70742 Par ch=1 c=64 v=24
70752 Par ch=1 c=64 v=0
70792 On ch=1 n=e7 v=84
70792 On ch=1 n=e5 v=63
70792 On ch=1 n=e6 v=74
70842 On ch=1 n=e6 v=0
70842 On ch=1 n=e5 v=0
70852 On ch=1 n=e7 v=0
70932 On ch=1 n=f7 v=92
70932 On ch=1 n=f6 v=82
70937 On ch=1 n=f5 v=60
70977 On ch=1 n=f6 v=0
70987 On ch=1 n=f7 v=0
70992 On ch=1 n=f5 v=0
71082 On ch=1 n=g#7 v=85
71082 On ch=1 n=g#6 v=76
71087 On ch=1 n=g#5 v=56
71137 On ch=1 n=g#5 v=0
71137 On ch=1 n=g#7 v=0
71142 On ch=1 n=g#6 v=0
71227 On ch=1 n=g7 v=84
71232 On ch=1 n=g6 v=69
71232 On ch=1 n=g5 v=56
71277 On ch=1 n=g6 v=0
71282 On ch=1 n=g7 v=0
71292 On ch=1 n=g5 v=0
71372 On ch=1 n=f7 v=87
71377 On ch=1 n=f6 v=83
71377 On ch=1 n=f5 v=58
71422 On ch=1 n=f6 v=0
71427 On ch=1 n=f7 v=0
71437 On ch=1 n=f5 v=0
71547 On ch=1 n=d#7 v=79
71547 On ch=1 n=d#6 v=77
71557 On ch=1 n=d#5 v=56
71602 Par ch=1 c=64 v=40
71617 Par ch=1 c=64 v=104
71622 On ch=1 n=d#7 v=0
71627 Par ch=1 c=64 v=127
71652 On ch=1 n=d#6 v=0
71662 On ch=1 n=d#5 v=0
72042 On ch=1 n=c5 v=59
72042 On ch=1 n=g#4 v=40
72042 On ch=1 n=d#4 v=44
72042 On ch=1 n=c4 v=44
72042 On ch=1 n=g#3 v=48
72102 On ch=1 n=c4 v=0
72102 On ch=1 n=g#4 v=0
72107 On ch=1 n=c5 v=0
72122 On ch=1 n=d#4 v=0
72127 On ch=1 n=g#3 v=0
72522 Par ch=1 c=64 v=104
72532 Par ch=1 c=64 v=72
72542 On ch=1 n=d#7 v=86
72547 On ch=1 n=d#6 v=78
72547 Par ch=1 c=64 v=0
72557 On ch=1 n=d#5 v=63
72627 Par ch=1 c=64 v=72
72642 Par ch=1 c=64 v=127
72647 On ch=1 n=d#5 v=0
72647 On ch=1 n=d#7 v=0
72652 On ch=1 n=d#6 v=0
73052 On ch=1 n=g4 v=62
73062 On ch=1 n=c#5 v=49
73062 On ch=1 n=a#4 v=44
73067 On ch=1 n=d#3 v=53
73067 On ch=1 n=d#4 v=38
73102 On ch=1 n=g4 v=0
73117 On ch=1 n=a#4 v=0
73122 On ch=1 n=d#4 v=0
73127 On ch=1 n=d#3 v=0
73142 On ch=1 n=c#5 v=0
73447 On ch=1 n=d#6 v=60
73452 On ch=1 n=d#7 v=86
73457 On ch=1 n=d#5 v=64
73487 On ch=1 n=d#6 v=0
73502 On ch=1 n=d#5 v=0
73502 On ch=1 n=d#7 v=0
73587 On ch=1 n=c8 v=96
73587 On ch=1 n=c7 v=82
73597 On ch=1 n=c6 v=73
73607 Par ch=1 c=64 v=72
73617 Par ch=1 c=64 v=0
73632 On ch=1 n=c7 v=0
73687 Par ch=1 c=64 v=72
73702 Par ch=1 c=64 v=127
73707 On ch=1 n=c8 v=0
73712 On ch=1 n=c6 v=0
74162 On ch=1 n=g#3 v=54
74167 On ch=1 n=d#4 v=47
74177 On ch=1 n=c4 v=56
74187 On ch=1 n=c5 v=46
74197 On ch=1 n=g#4 v=45
74202 On ch=1 n=d#5 v=49
74252 On ch=1 n=d#5 v=0
74292 On ch=1 n=g#4 v=0
74297 On ch=1 n=c5 v=0
74422 On ch=1 n=c4 v=0
74437 On ch=1 n=g#3 v=0
74457 On ch=1 n=d#4 v=0
74737 Par ch=1 c=64 v=104
74752 Par ch=1 c=64 v=72
74762 Par ch=1 c=64 v=40
74772 Par ch=1 c=64 v=24
74787 Par ch=1 c=64 v=0
74827 On ch=1 n=g7 v=86
74827 On ch=1 n=g5 v=56
74827 On ch=1 n=g6 v=77
74882 On ch=1 n=g6 v=0
74882 On ch=1 n=g5 v=0
74887 On ch=1 n=g7 v=0
74967 On ch=1 n=g#7 v=86
74967 On ch=1 n=g#6 v=74
74977 On ch=1 n=g#5 v=61
75017 On ch=1 n=g#6 v=0
75032 On ch=1 n=g#5 v=0
75037 On ch=1 n=g#7 v=0
75107 On ch=1 n=a#7 v=75
75107 On ch=1 n=a#6 v=64
75122 On ch=1 n=a#5 v=54
75157 On ch=1 n=a#6 v=0
75162 On ch=1 n=a#7 v=0
75182 On ch=1 n=a#5 v=0
75247 On ch=1 n=g#7 v=80
75252 On ch=1 n=g#6 v=78
75257 On ch=1 n=g#5 v=54
75302 On ch=1 n=g#6 v=0
75317 On ch=1 n=g#5 v=0
75317 On ch=1 n=g#7 v=0
75397 On ch=1 n=f5 v=58
75397 On ch=1 n=f7 v=75
75397 On ch=1 n=f6 v=68
75447 On ch=1 n=f6 v=0
75447 On ch=1 n=f7 v=0
75452 On ch=1 n=f5 v=0
75562 On ch=1 n=d#7 v=77
75567 On ch=1 n=d#6 v=77
75567 On ch=1 n=d#5 v=57
75597 Par ch=1 c=64 v=24
75612 Par ch=1 c=64 v=72
75622 On ch=1 n=d#7 v=0
75622 Par ch=1 c=64 v=127
75662 On ch=1 n=d#6 v=0
75677 On ch=1 n=d#5 v=0
76072 On ch=1 n=c5 v=67
76072 On ch=1 n=g#4 v=49
76077 On ch=1 n=g#3 v=44
76087 On ch=1 n=d#4 v=42
76102 On ch=1 n=c4 v=48
76147 On ch=1 n=g#4 v=0
76152 On ch=1 n=c5 v=0
76172 On ch=1 n=c4 v=0
76177 On ch=1 n=g#3 v=0
76187 On ch=1 n=d#4 v=0
76542 Par ch=1 c=64 v=72
76552 Par ch=1 c=64 v=0
76577 On ch=1 n=d#7 v=87
76582 On ch=1 n=d#6 v=79
76587 On ch=1 n=d#5 v=71
76647 Par ch=1 c=64 v=88
76657 On ch=1 n=d#5 v=0
76657 On ch=1 n=d#6 v=0
76657 Par ch=1 c=64 v=127
76662 On ch=1 n=d#7 v=0
77082 On ch=1 n=g4 v=69
77087 On ch=1 n=a#4 v=52
77092 On ch=1 n=c#5 v=56
77092 On ch=1 n=d#4 v=54
77092 On ch=1 n=d#3 v=60
77092 On ch=1 n=a#3 v=54
77127 On ch=1 n=g4 v=0
77132 On ch=1 n=a#3 v=0
77137 On ch=1 n=a#4 v=0
77147 On ch=1 n=d#3 v=0
77147 On ch=1 n=d#4 v=0
77152 On ch=1 n=c#5 v=0
77477 On ch=1 n=d#6 v=68
77477 On ch=1 n=d#7 v=86
77477 On ch=1 n=d#5 v=65
77512 On ch=1 n=d#6 v=0
77527 On ch=1 n=d#5 v=0
77532 On ch=1 n=d#7 v=0
77587 Par ch=1 c=64 v=104
77602 Par ch=1 c=64 v=40
77612 On ch=1 n=c8 v=96
77612 On ch=1 n=c7 v=84
77612 Par ch=1 c=64 v=0
77622 On ch=1 n=c6 v=76
77652 On ch=1 n=c7 v=0
77672 On ch=1 n=c8 v=0
77672 Par ch=1 c=64 v=40
77682 Par ch=1 c=64 v=127
77707 On ch=1 n=c6 v=0
78047 On ch=1 n=g#2 v=60
78087 On ch=1 n=g#3 v=58
78102 On ch=1 n=g#2 v=0
78107 On ch=1 n=d#5 v=82
78107 On ch=1 n=d#4 v=81
78117 On ch=1 n=g#4 v=62
78122 On ch=1 n=c5 v=65
78142 On ch=1 n=g#3 v=0
78147 On ch=1 n=c5 v=0
78152 On ch=1 n=d#4 v=0
78162 On ch=1 n=g#4 v=0
78197 On ch=1 n=d#5 v=0
78622 Par ch=1 c=64 v=72
78637 Par ch=1 c=64 v=0
78642 On ch=1 n=c8 v=99
78647 On ch=1 n=c7 v=90
78657 On ch=1 n=c6 v=87
78682 Par ch=1 c=64 v=56
78697 Par ch=1 c=64 v=127
78707 On ch=1 n=c6 v=0
78712 On ch=1 n=c8 v=0
78732 On ch=1 n=c7 v=0
78932 Par ch=1 c=64 v=72
78942 On ch=1 n=a2 v=65
78942 Par ch=1 c=64 v=127
78982 On ch=1 n=d#3 v=58
78997 On ch=1 n=a2 v=0
79022 On ch=1 n=a3 v=61
79037 On ch=1 n=d#3 v=0
79062 On ch=1 n=c4 v=64
79077 On ch=1 n=a3 v=0
79102 On ch=1 n=f#4 v=67
79117 On ch=1 n=c4 v=0
79142 On ch=1 n=a4 v=70
79152 On ch=1 n=f#4 v=0
79182 On ch=1 n=d#5 v=73
79202 On ch=1 n=a4 v=0
79222 On ch=1 n=f#5 v=80
79242 On ch=1 n=d#5 v=0
79342 On ch=1 n=f#5 v=0
79642 On ch=1 n=c8 v=93
79642 On ch=1 n=c7 v=82
79647 On ch=1 n=c6 v=79
79697 On ch=1 n=c7 v=0
79702 On ch=1 n=c6 v=0
79702 On ch=1 n=c8 v=0
79782 On ch=1 n=e6 v=88
79782 On ch=1 n=e8 v=97
79782 On ch=1 n=e7 v=82
79792 Par ch=1 c=64 v=56
79802 Par ch=1 c=64 v=0
79842 On ch=1 n=e7 v=11
79882 Par ch=1 c=64 v=56
79892 Par ch=1 c=64 v=127
79947 On ch=1 n=e6 v=0
79962 On ch=1 n=e7 v=0
80082 On ch=1 n=e8 v=0
80092 On ch=1 n=e7 v=0
80177 On ch=1 n=g2 v=66
80207 On ch=1 n=e3 v=65
80232 On ch=1 n=g2 v=0
80252 On ch=1 n=g3 v=66
80262 On ch=1 n=e3 v=0
80302 On ch=1 n=g3 v=0
80307 On ch=1 n=c4 v=68
80352 On ch=1 n=e4 v=72
80367 On ch=1 n=c4 v=0
80382 On ch=1 n=e4 v=0
80382 On ch=1 n=g4 v=77
80397 On ch=1 n=c5 v=80
80427 On ch=1 n=e5 v=86
80432 On ch=1 n=g4 v=0
80462 On ch=1 n=c5 v=0
80467 On ch=1 n=g5 v=88
80487 On ch=1 n=e5 v=0
80507 On ch=1 n=g5 v=0
81147 On ch=1 n=d8 v=99
81237 On ch=1 n=d8 v=0
81267 On ch=1 n=c8 v=92
81362 On ch=1 n=c8 v=0
81377 On ch=1 n=g7 v=86
81457 On ch=1 n=g7 v=0
81457 On ch=1 n=e7 v=80
81502 On ch=1 n=e7 v=0
81557 On ch=1 n=d7 v=82
81632 On ch=1 n=d7 v=0
81642 On ch=1 n=c7 v=76
81732 On ch=1 n=c7 v=0
81742 On ch=1 n=g6 v=61
81817 On ch=1 n=g6 v=0
81817 On ch=1 n=e6 v=74
81882 On ch=1 n=e6 v=0
81907 On ch=1 n=d6 v=82
81977 On ch=1 n=d6 v=0
82002 On ch=1 n=c6 v=77
82072 On ch=1 n=c6 v=0
82087 On ch=1 n=g5 v=70
82162 On ch=1 n=g5 v=0
82162 On ch=1 n=e5 v=75
82207 On ch=1 n=e5 v=0
82247 On ch=1 n=d5 v=74
82317 On ch=1 n=d5 v=0
82342 On ch=1 n=c5 v=76
82422 On ch=1 n=c5 v=0
82427 On ch=1 n=g4 v=75
82517 On ch=1 n=g4 v=0
82517 On ch=1 n=e4 v=82
82577 On ch=1 n=e4 v=0
82627 On ch=1 n=d4 v=80
82687 On ch=1 n=d4 v=0
82717 On ch=1 n=c4 v=86
82757 Par ch=1 c=64 v=104
82762 Par ch=1 c=64 v=72
82772 Par ch=1 c=64 v=88
82782 Par ch=1 c=64 v=127
82812 On ch=1 n=c4 v=0
82827 On ch=1 n=a3 v=94
82952 On ch=1 n=a3 v=0
82972 On ch=1 n=g3 v=98
83017 Par ch=1 c=64 v=24
83027 Par ch=1 c=64 v=0
83382 On ch=1 n=g3 v=0
83837 Par ch=1 c=64 v=40
83852 Par ch=1 c=64 v=72
83862 On ch=1 n=g3 v=55
83862 On ch=1 n=b5 v=76
83862 On ch=1 n=f5 v=76
83862 On ch=1 n=g2 v=73
83862 On ch=1 n=g6 v=88
83862 On ch=1 n=d3 v=56
83867 Par ch=1 c=64 v=127
83902 On ch=1 n=d3 v=0
83912 On ch=1 n=g6 v=0
83912 On ch=1 n=g2 v=0
83912 On ch=1 n=g3 v=0
83917 On ch=1 n=b5 v=0
83942 On ch=1 n=f5 v=0
83992 Par ch=1 c=64 v=88
84007 Par ch=1 c=64 v=24
84022 Par ch=1 c=64 v=0
84042 On ch=1 n=e6 v=95
84042 On ch=1 n=e5 v=92
84042 On ch=1 n=c3 v=72
84042 On ch=1 n=c4 v=84
84042 On ch=1 n=g3 v=59
84042 On ch=1 n=g5 v=83
84097 On ch=1 n=g3 v=0
84097 On ch=1 n=c3 v=0
84102 On ch=1 n=c4 v=0
84102 On ch=1 n=e5 v=0
84102 On ch=1 n=e6 v=0
84107 On ch=1 n=g5 v=0
84112 Par ch=1 c=64 v=104
84132 Par ch=1 c=64 v=127
84212 Par ch=1 c=64 v=104
84227 Par ch=1 c=64 v=72
84242 Par ch=1 c=64 v=24
84257 Par ch=1 c=64 v=0
84587 On ch=1 n=c6 v=92
84597 On ch=1 n=e5 v=74
84597 On ch=1 n=g5 v=74
84597 On ch=1 n=c5 v=71
84597 On ch=1 n=e4 v=65
84602 On ch=1 n=g4 v=68
84602 On ch=1 n=c4 v=72
84607 Par ch=1 c=64 v=56
84617 Par ch=1 c=64 v=127
84657 On ch=1 n=c4 v=0
84657 On ch=1 n=c5 v=0
84662 On ch=1 n=g4 v=0
84662 On ch=1 n=e4 v=0
84662 On ch=1 n=g5 v=0
84662 On ch=1 n=e5 v=0
84687 On ch=1 n=c6 v=0
85057 Par ch=1 c=64 v=104
85072 Par ch=1 c=64 v=72
85087 Par ch=1 c=64 v=40
85107 Par ch=1 c=64 v=0
86237 On ch=1 n=c5 v=72
86337 Par ch=1 c=64 v=72
86347 Par ch=1 c=64 v=127
86567 On ch=1 n=f4 v=51
86607 On ch=1 n=c5 v=0
86617 On ch=1 n=f4 v=0
86647 On ch=1 n=g#4 v=57
86702 On ch=1 n=g#4 v=0
86732 On ch=1 n=g#5 v=60
86782 On ch=1 n=g#5 v=0
87177 On ch=1 n=c5 v=73
87242 Par ch=1 c=64 v=88
87252 Par ch=1 c=64 v=0
87347 Par ch=1 c=64 v=56
87357 Par ch=1 c=64 v=127
87447 On ch=1 n=c5 v=0
87502 On ch=1 n=c#4 v=50
87532 On ch=1 n=c#4 v=0
87567 On ch=1 n=f4 v=56
87617 On ch=1 n=f4 v=0
87662 On ch=1 n=f5 v=61
87702 On ch=1 n=f5 v=0
87972 On ch=1 n=c5 v=77
88037 On ch=1 n=c5 v=0
88117 On ch=1 n=c5 v=81
88137 Par ch=1 c=64 v=104
88147 Par ch=1 c=64 v=24
88157 Par ch=1 c=64 v=0
88252 Par ch=1 c=64 v=72
88262 Par ch=1 c=64 v=127
88327 On ch=1 n=c5 v=0
88402 On ch=1 n=c4 v=48
88467 On ch=1 n=c4 v=0
88497 On ch=1 n=g4 v=52
88532 On ch=1 n=g4 v=0
88572 On ch=1 n=e5 v=56
88617 On ch=1 n=e5 v=0
89112 Par ch=1 c=64 v=72
89122 Par ch=1 c=64 v=40
89137 Par ch=1 c=64 v=0
89237 On ch=1 n=b4 v=67
89297 On ch=1 n=b4 v=0
89387 On ch=1 n=c5 v=72
89437 On ch=1 n=c5 v=0
89542 On ch=1 n=d#5 v=78
89612 On ch=1 n=d#5 v=0
89692 On ch=1 n=c#5 v=72
89757 On ch=1 n=c#5 v=0
89847 On ch=1 n=c5 v=78
89902 On ch=1 n=c5 v=0
90042 On ch=1 n=c5 v=77
90182 Par ch=1 c=64 v=88
90192 Par ch=1 c=64 v=127
90292 On ch=1 n=c5 v=0
90412 On ch=1 n=f4 v=51
90457 On ch=1 n=f4 v=0
90482 On ch=1 n=g#4 v=57
90532 On ch=1 n=g#4 v=0
90552 On ch=1 n=g#5 v=61
90607 On ch=1 n=g#5 v=0
91002 On ch=1 n=c5 v=78
91042 Par ch=1 c=64 v=104
91052 Par ch=1 c=64 v=0
91157 Par ch=1 c=64 v=56
91167 Par ch=1 c=64 v=127
91237 On ch=1 n=c5 v=0
91267 On ch=1 n=c#4 v=51
91322 On ch=1 n=c#4 v=0
91322 On ch=1 n=f4 v=57
91387 On ch=1 n=f4 v=0
91447 On ch=1 n=f5 v=64
91497 On ch=1 n=f5 v=0
91792 On ch=1 n=c5 v=77
91857 On ch=1 n=c5 v=0
91922 Par ch=1 c=64 v=104
91937 Par ch=1 c=64 v=88
91942 On ch=1 n=c5 v=81
91947 Par ch=1 c=64 v=40
91957 Par ch=1 c=64 v=0
92072 Par ch=1 c=64 v=72
92087 Par ch=1 c=64 v=127
92162 On ch=1 n=c5 v=0
92197 On ch=1 n=c4 v=50
92257 On ch=1 n=c4 v=0
92277 On ch=1 n=g4 v=56
92332 On ch=1 n=g4 v=0
92387 On ch=1 n=e5 v=63
92447 On ch=1 n=e5 v=0
92947 Par ch=1 c=64 v=88
92957 Par ch=1 c=64 v=56
92967 Par ch=1 c=64 v=0
93002 On ch=1 n=b4 v=67
93057 On ch=1 n=b4 v=0
93152 On ch=1 n=c5 v=69
93192 On ch=1 n=c5 v=0
93217 On ch=1 n=g5 v=69
93227 On ch=1 n=e5 v=71
93272 On ch=1 n=e5 v=0
93272 On ch=1 n=g5 v=0
93337 On ch=1 n=e5 v=72
93342 On ch=1 n=a5 v=82
93347 On ch=1 n=g5 v=53
93382 On ch=1 n=g5 v=0
93387 On ch=1 n=e5 v=0
93402 On ch=1 n=a5 v=0
93492 On ch=1 n=d5 v=68
93532 On ch=1 n=d5 v=0
93622 On ch=1 n=c5 v=66
93662 On ch=1 n=c5 v=0
93707 On ch=1 n=a#5 v=68
93712 On ch=1 n=e5 v=63
93717 On ch=1 n=g5 v=54
93747 On ch=1 n=e5 v=0
93752 On ch=1 n=g5 v=0
93757 On ch=1 n=a#5 v=0
93797 On ch=1 n=b4 v=64
93797 On ch=1 n=g5 v=63
93797 On ch=1 n=b5 v=80
93797 On ch=1 n=e5 v=63
93847 On ch=1 n=b4 v=0
93937 On ch=1 n=f#4 v=64
93967 On ch=1 n=e5 v=0
93972 On ch=1 n=g5 v=0
94007 On ch=1 n=f#4 v=0
94087 On ch=1 n=g4 v=67
94132 On ch=1 n=g4 v=0
94137 On ch=1 n=b5 v=0
94222 On ch=1 n=a4 v=63
94282 On ch=1 n=a4 v=0
94362 On ch=1 n=g4 v=68
94417 On ch=1 n=g4 v=0
94497 On ch=1 n=e4 v=69
94557 On ch=1 n=e4 v=0
94642 On ch=1 n=d#4 v=60
94647 On ch=1 n=b5 v=77
94652 On ch=1 n=f#5 v=53
94652 On ch=1 n=d#5 v=46
94657 On ch=1 n=a4 v=50
94657 On ch=1 n=b4 v=40
94697 On ch=1 n=d#4 v=0
94792 On ch=1 n=c4 v=63
94837 On ch=1 n=c4 v=0
94932 On ch=1 n=b3 v=74
94952 On ch=1 n=a4 v=0
94962 On ch=1 n=b4 v=0
94962 On ch=1 n=b5 v=0
94977 On ch=1 n=d#5 v=0
94977 On ch=1 n=f#5 v=0
94987 On ch=1 n=b3 v=0
95062 On ch=1 n=a3 v=67
95132 On ch=1 n=a3 v=0
95202 On ch=1 n=g3 v=67
95262 On ch=1 n=g3 v=0
95322 On ch=1 n=f#3 v=64
95377 On ch=1 n=f#3 v=0
95407 On ch=1 n=b5 v=69
95407 On ch=1 n=f#5 v=59
95407 On ch=1 n=b4 v=53
95407 On ch=1 n=a4 v=54
95467 On ch=1 n=a4 v=0
95467 On ch=1 n=b4 v=0
95487 On ch=1 n=b5 v=0
95492 On ch=1 n=f#5 v=0
95512 On ch=1 n=g#4 v=73
95552 On ch=1 n=e3 v=60
95577 On ch=1 n=g#4 v=0
95582 On ch=1 n=e5 v=67
95597 On ch=1 n=g#5 v=66
95617 Par ch=1 c=64 v=24
95627 Par ch=1 c=64 v=56
95632 On ch=1 n=e5 v=0
95642 On ch=1 n=b5 v=72
95642 Par ch=1 c=64 v=88
95652 Par ch=1 c=64 v=127
95657 On ch=1 n=g#5 v=0
95707 On ch=1 n=b5 v=0
95752 On ch=1 n=e3 v=0
95777 On ch=1 n=g#3 v=56
95857 On ch=1 n=g#3 v=0
95927 On ch=1 n=b3 v=63
96007 On ch=1 n=b3 v=0
96057 On ch=1 n=e4 v=69
96112 On ch=1 n=e4 v=0
96177 Par ch=1 c=64 v=104
96182 On ch=1 n=g#4 v=67
96212 Par ch=1 c=64 v=88
96237 On ch=1 n=g#4 v=0
96267 Par ch=1 c=64 v=72
96317 On ch=1 n=b4 v=65
96367 On ch=1 n=b4 v=0
96472 On ch=1 n=e5 v=69
96522 Par ch=1 c=64 v=56
96537 Par ch=1 c=64 v=40
96547 Par ch=1 c=64 v=0
96652 Par ch=1 c=64 v=40
96662 Par ch=1 c=64 v=104
96677 Par ch=1 c=64 v=127
96707 On ch=1 n=e5 v=0
97092 Par ch=1 c=64 v=104
97102 Par ch=1 c=64 v=72
97117 Par ch=1 c=64 v=56
97127 Par ch=1 c=64 v=40
97137 Par ch=1 c=64 v=24
97152 Par ch=1 c=64 v=0
97242 On ch=1 n=e5 v=77
97312 On ch=1 n=e5 v=0
97387 On ch=1 n=e5 v=81
97537 Par ch=1 c=64 v=72
97547 Par ch=1 c=64 v=127
97672 On ch=1 n=a4 v=52
97677 On ch=1 n=e5 v=0
97712 On ch=1 n=c5 v=58
97752 On ch=1 n=a4 v=0
97797 On ch=1 n=c5 v=0
97832 On ch=1 n=c6 v=62
97887 On ch=1 n=c6 v=0
98257 On ch=1 n=e5 v=73
98302 Par ch=1 c=64 v=88
98312 Par ch=1 c=64 v=0
98407 Par ch=1 c=64 v=56
98417 Par ch=1 c=64 v=127
98527 On ch=1 n=e5 v=0
98527 On ch=1 n=f4 v=51
98557 On ch=1 n=f4 v=0
98587 On ch=1 n=a4 v=53
98637 On ch=1 n=a4 v=0
98677 On ch=1 n=a5 v=65
98732 On ch=1 n=a5 v=0
98992 On ch=1 n=e5 v=75
99047 On ch=1 n=e5 v=0
99137 On ch=1 n=e5 v=74
99147 Par ch=1 c=64 v=88
99157 Par ch=1 c=64 v=24
99172 Par ch=1 c=64 v=0
99302 Par ch=1 c=64 v=104
99312 Par ch=1 c=64 v=127
99407 On ch=1 n=e4 v=53
99467 On ch=1 n=e4 v=0
99477 On ch=1 n=b4 v=56
99512 On ch=1 n=e5 v=0
99537 On ch=1 n=b4 v=0
99567 On ch=1 n=g#5 v=64
99622 On ch=1 n=g#5 v=0
100067 Par ch=1 c=64 v=104
100077 Par ch=1 c=64 v=56
100092 Par ch=1 c=64 v=0
100187 On ch=1 n=d#5 v=59
100242 On ch=1 n=d#5 v=0
100327 On ch=1 n=e5 v=81
100387 On ch=1 n=e5 v=0
100477 On ch=1 n=g5 v=82
100552 On ch=1 n=g5 v=0
100632 On ch=1 n=f5 v=73
100692 On ch=1 n=f5 v=0
100772 On ch=1 n=e5 v=75
100822 On ch=1 n=e5 v=0
100942 On ch=1 n=e5 v=80
101032 Par ch=1 c=64 v=88
101042 Par ch=1 c=64 v=127
101167 On ch=1 n=e5 v=0
101262 On ch=1 n=a4 v=53
101302 On ch=1 n=a4 v=0
101327 On ch=1 n=c5 v=60
101382 On ch=1 n=c5 v=0
101417 On ch=1 n=c6 v=66
101467 On ch=1 n=c6 v=0
101867 On ch=1 n=e5 v=74
101902 Par ch=1 c=64 v=88
101912 Par ch=1 c=64 v=0
101992 Par ch=1 c=64 v=56
102007 Par ch=1 c=64 v=127
102122 On ch=1 n=e5 v=0
102142 On ch=1 n=f4 v=42
102187 On ch=1 n=f4 v=0
102212 On ch=1 n=a4 v=56
102267 On ch=1 n=a4 v=0
102302 On ch=1 n=a5 v=61
102357 On ch=1 n=a5 v=0
102622 On ch=1 n=e5 v=73
102687 On ch=1 n=e5 v=0
102782 On ch=1 n=e5 v=81
102832 Par ch=1 c=64 v=88
102842 Par ch=1 c=64 v=0
102957 Par ch=1 c=64 v=56
102967 Par ch=1 c=64 v=127
103017 Par ch=1 c=64 v=72
103027 Par ch=1 c=64 v=0
103087 Par ch=1 c=64 v=56
103097 Par ch=1 c=64 v=127
103112 On ch=1 n=e4 v=53
103122 On ch=1 n=e5 v=0
103187 On ch=1 n=e4 v=0
103187 On ch=1 n=a#4 v=50
103262 On ch=1 n=a#4 v=0
103267 On ch=1 n=c#5 v=70
103332 On ch=1 n=c#5 v=0
103347 On ch=1 n=g5 v=65
103382 On ch=1 n=g5 v=0
103847 On ch=1 n=d#5 v=77
103897 On ch=1 n=d#5 v=0
104032 On ch=1 n=e5 v=82
104097 On ch=1 n=e5 v=0
104262 On ch=1 n=c#6 v=88
104272 Par ch=1 c=64 v=0
104352 Par ch=1 c=64 v=127
104382 On ch=1 n=c#6 v=0
104487 On ch=1 n=a#5 v=70
104567 On ch=1 n=a#5 v=0
104597 Par ch=1 c=64 v=88
104607 Par ch=1 c=64 v=56
104622 Par ch=1 c=64 v=24
104632 Par ch=1 c=64 v=0
104647 On ch=1 n=g5 v=76
104727 On ch=1 n=g5 v=0
104792 On ch=1 n=e5 v=73
104842 On ch=1 n=e5 v=0
104937 On ch=1 n=c#5 v=65
105002 On ch=1 n=c#5 v=0
105097 On ch=1 n=a#4 v=60
105162 On ch=1 n=a#4 v=0
105242 On ch=1 n=g4 v=69
105307 On ch=1 n=g4 v=0
105372 On ch=1 n=e4 v=73
105427 On ch=1 n=e4 v=0
105527 On ch=1 n=c#4 v=73
105592 On ch=1 n=c#4 v=0
105682 On ch=1 n=a#3 v=63
105752 On ch=1 n=a#3 v=0
105832 On ch=1 n=g3 v=63
105922 On ch=1 n=g3 v=0
105987 On ch=1 n=e3 v=56
106017 On ch=1 n=e3 v=0
106142 On ch=1 n=c#3 v=60
106212 On ch=1 n=c#3 v=0
106312 On ch=1 n=d#3 v=58
106377 On ch=1 n=d#3 v=0
106482 On ch=1 n=e3 v=65
106537 On ch=1 n=e3 v=0
106687 On ch=1 n=f3 v=59
106717 Par ch=1 c=64 v=56
106727 Par ch=1 c=64 v=127
107012 On ch=1 n=f#4 v=46
107022 On ch=1 n=a#3 v=37
107077 On ch=1 n=c#4 v=46
107082 On ch=1 n=f2 v=41
107087 On ch=1 n=c#3 v=27
107092 On ch=1 n=f4 v=69
107097 On ch=1 n=f#4 v=0
107097 On ch=1 n=a#2 v=36
107102 On ch=1 n=a#3 v=0
107127 On ch=1 n=c#4 v=0
107142 On ch=1 n=f3 v=0
107152 On ch=1 n=f4 v=0
107162 On ch=1 n=a#2 v=0
107162 On ch=1 n=c#3 v=0
107167 On ch=1 n=f2 v=0
107397 On ch=1 n=f#5 v=52
107417 On ch=1 n=a#4 v=26
107452 On ch=1 n=a#4 v=0
107462 On ch=1 n=f#5 v=0
107487 On ch=1 n=f5 v=72
107487 Par ch=1 c=64 v=88
107497 On ch=1 n=c#5 v=50
107497 On ch=1 n=f3 v=50
107502 Par ch=1 c=64 v=24
107512 Par ch=1 c=64 v=0
107547 On ch=1 n=c#5 v=0
107572 On ch=1 n=f5 v=0
107572 Par ch=1 c=64 v=40
107582 Par ch=1 c=64 v=127
107797 On ch=1 n=f#6 v=67
107817 On ch=1 n=a5 v=42
107862 On ch=1 n=a5 v=0
107872 On ch=1 n=f#6 v=0
107892 On ch=1 n=f6 v=80
107892 On ch=1 n=c6 v=50
107917 On ch=1 n=f2 v=46
107927 On ch=1 n=c3 v=49
107932 On ch=1 n=a2 v=36
107952 On ch=1 n=c6 v=0
107977 On ch=1 n=f6 v=0
107992 On ch=1 n=f3 v=0
107997 On ch=1 n=c3 v=0
108007 On ch=1 n=a2 v=0
108032 On ch=1 n=f2 v=0
108182 On ch=1 n=f3 v=69
108237 On ch=1 n=f3 v=0
108272 Par ch=1 c=64 v=56
108282 On ch=1 n=f3 v=74
108287 Par ch=1 c=64 v=0
108367 Par ch=1 c=64 v=72
108382 Par ch=1 c=64 v=127
108567 On ch=1 n=a#6 v=40
108627 On ch=1 n=f7 v=74
108637 On ch=1 n=a#6 v=0
108657 On ch=1 n=f3 v=0
108662 On ch=1 n=c#3 v=29
108667 On ch=1 n=a#2 v=30
108697 On ch=1 n=c#8 v=83
108707 On ch=1 n=f7 v=0
108752 On ch=1 n=c#8 v=0
108762 On ch=1 n=c8 v=78
108822 On ch=1 n=c8 v=0
108827 On ch=1 n=a#7 v=76
108887 On ch=1 n=a#7 v=0
108892 On ch=1 n=f7 v=74
108952 On ch=1 n=f7 v=0
108957 On ch=1 n=c#7 v=73
109017 On ch=1 n=c#7 v=0
109022 On ch=1 n=c7 v=72
109062 On ch=1 n=a#2 v=0
109067 On ch=1 n=c#3 v=0
109082 On ch=1 n=c7 v=0
109087 On ch=1 n=a#6 v=71
109147 On ch=1 n=a#6 v=0
109152 On ch=1 n=f6 v=70
109212 On ch=1 n=f6 v=0
109217 On ch=1 n=c#6 v=69
109277 On ch=1 n=c#6 v=0
109282 On ch=1 n=c6 v=68
109342 On ch=1 n=c6 v=0
109347 On ch=1 n=a#5 v=67
109402 On ch=1 n=f3 v=79
109407 On ch=1 n=a#5 v=0
109412 On ch=1 n=f5 v=66
109412 On ch=1 n=c#5 v=65
109472 On ch=1 n=c#5 v=0
109472 On ch=1 n=f5 v=0
109477 On ch=1 n=c5 v=64
109487 On ch=1 n=f3 v=0
109502 On ch=1 n=f#3 v=82
109532 Par ch=1 c=64 v=88
109537 On ch=1 n=c5 v=0
109542 On ch=1 n=a#4 v=63
109547 Par ch=1 c=64 v=0
109602 On ch=1 n=a#4 v=0
109607 On ch=1 n=f4 v=63
109627 Par ch=1 c=64 v=24
109642 Par ch=1 c=64 v=88
109657 Par ch=1 c=64 v=127
109667 On ch=1 n=f4 v=0
109672 On ch=1 n=f#3 v=0
109672 On ch=1 n=c#4 v=62
109732 On ch=1 n=c#4 v=0
109737 On ch=1 n=c4 v=62
109797 On ch=1 n=c4 v=0
109802 On ch=1 n=a#3 v=61
109822 On ch=1 n=g3 v=84
109862 On ch=1 n=a#3 v=0
109907 On ch=1 n=g3 v=0
109927 On ch=1 n=g#3 v=84
109927 Par ch=1 c=64 v=72
109942 Par ch=1 c=64 v=0
110062 Par ch=1 c=64 v=88
110077 Par ch=1 c=64 v=127
110282 On ch=1 n=a#4 v=54
110307 On ch=1 n=c#4 v=57
110357 On ch=1 n=c#3 v=32
110362 On ch=1 n=g#4 v=69
110362 On ch=1 n=f4 v=58
110367 On ch=1 n=f3 v=30
110372 On ch=1 n=c#4 v=0
110382 On ch=1 n=a#4 v=0
110392 On ch=1 n=f4 v=0
110397 On ch=1 n=g#2 v=23
110427 On ch=1 n=g#3 v=0
110437 On ch=1 n=g#4 v=0
110657 On ch=1 n=a#5 v=54
110667 On ch=1 n=d#5 v=34
110697 On ch=1 n=g#2 v=0
110702 On ch=1 n=d#5 v=0
110722 On ch=1 n=a#5 v=0
110737 On ch=1 n=f5 v=56
110742 Par ch=1 c=64 v=72
110747 On ch=1 n=g#3 v=85
110752 Par ch=1 c=64 v=0
110757 On ch=1 n=f3 v=0
110757 On ch=1 n=c#3 v=0
110762 On ch=1 n=g#5 v=66
110797 On ch=1 n=f5 v=0
110832 On ch=1 n=g#5 v=0
110852 Par ch=1 c=64 v=72
110862 Par ch=1 c=64 v=127
111037 On ch=1 n=a#6 v=73
111067 On ch=1 n=c6 v=55
111097 On ch=1 n=c6 v=0
111132 On ch=1 n=d#6 v=60
111137 On ch=1 n=a#6 v=0
111137 On ch=1 n=g#6 v=74
111147 On ch=1 n=g#2 v=46
111152 On ch=1 n=f#3 v=46
111172 On ch=1 n=d#6 v=0
111177 On ch=1 n=c3 v=30
111202 On ch=1 n=g#3 v=0
111212 On ch=1 n=g#2 v=0
111212 On ch=1 n=g#6 v=0
111217 On ch=1 n=c3 v=0
111222 On ch=1 n=f#3 v=0
111407 On ch=1 n=g#3 v=82
111457 On ch=1 n=g#3 v=0
111517 On ch=1 n=g#3 v=86
111517 Par ch=1 c=64 v=104
111527 Par ch=1 c=64 v=40
111542 Par ch=1 c=64 v=0
111637 Par ch=1 c=64 v=104
111647 Par ch=1 c=64 v=127
111777 On ch=1 n=c#7 v=56
111812 On ch=1 n=g#3 v=0
111842 On ch=1 n=c#7 v=0
111842 On ch=1 n=g#7 v=67
111852 On ch=1 n=g#2 v=35
111872 On ch=1 n=c#3 v=34
111957 On ch=1 n=g#7 v=0
111962 On ch=1 n=f3 v=44
111977 On ch=1 n=f8 v=89
112017 On ch=1 n=g#2 v=0
112032 On ch=1 n=c#3 v=0
112037 On ch=1 n=f8 v=0
112042 On ch=1 n=d#8 v=80
112047 On ch=1 n=f3 v=0
112102 On ch=1 n=d#8 v=0
112112 On ch=1 n=c#8 v=80
112172 On ch=1 n=c#8 v=0
112177 On ch=1 n=g#7 v=78
112237 On ch=1 n=g#7 v=0
112247 On ch=1 n=f7 v=77
112307 On ch=1 n=f7 v=0
112312 On ch=1 n=d#7 v=77
112372 On ch=1 n=d#7 v=0
112382 On ch=1 n=c#7 v=76
112442 On ch=1 n=c#7 v=0
112447 On ch=1 n=g#6 v=76
112507 On ch=1 n=g#6 v=0
112512 On ch=1 n=f6 v=75
112572 On ch=1 n=f6 v=0
112582 On ch=1 n=g3 v=71
112582 On ch=1 n=d#6 v=74
112642 On ch=1 n=d#6 v=0
112647 On ch=1 n=c#6 v=73
112667 On ch=1 n=g3 v=0
112707 On ch=1 n=c#6 v=0
112712 On ch=1 n=g#5 v=72
112717 On ch=1 n=g#3 v=71
112772 On ch=1 n=g#5 v=0
112782 On ch=1 n=f5 v=72
112787 On ch=1 n=g#3 v=0
112842 On ch=1 n=f5 v=0
112847 On ch=1 n=d#5 v=72
112852 On ch=1 n=c#4 v=62
112897 Par ch=1 c=64 v=88
112907 On ch=1 n=d#5 v=0
112907 Par ch=1 c=64 v=72
112917 On ch=1 n=c#5 v=71
112922 Par ch=1 c=64 v=56
112927 On ch=1 n=c#4 v=0
112937 Par ch=1 c=64 v=40
112952 Par ch=1 c=64 v=24
112962 Par ch=1 c=64 v=0
112977 On ch=1 n=c#5 v=0
112982 On ch=1 n=c4 v=80
112982 On ch=1 n=g#4 v=71
113042 On ch=1 n=g#4 v=0
113042 On ch=1 n=c4 v=0
113047 On ch=1 n=f4 v=70
113097 On ch=1 n=a#3 v=83
113107 On ch=1 n=f4 v=0
113117 On ch=1 n=d#4 v=69
113177 On ch=1 n=d#4 v=0
113187 On ch=1 n=a#3 v=0
113187 On ch=1 n=c#4 v=68
113247 On ch=1 n=c#4 v=0
113262 On ch=1 n=g#3 v=86
113357 Par ch=1 c=64 v=56
113372 Par ch=1 c=64 v=127
113542 On ch=1 n=a#4 v=53
113557 On ch=1 n=c#4 v=36
113637 On ch=1 n=g#4 v=67
113642 On ch=1 n=a#4 v=0
113647 On ch=1 n=c#4 v=0
113652 On ch=1 n=f4 v=60
113682 On ch=1 n=c#3 v=53
113697 On ch=1 n=f4 v=0
113707 On ch=1 n=g#2 v=58
113722 On ch=1 n=c#3 v=0
113722 On ch=1 n=g#4 v=0
113727 On ch=1 n=g#3 v=0
113952 On ch=1 n=c#5 v=47
113952 On ch=1 n=a#5 v=61
114017 On ch=1 n=c#5 v=0
114027 On ch=1 n=a#5 v=0
114032 On ch=1 n=g#2 v=0
114032 On ch=1 n=f5 v=58
114037 Par ch=1 c=64 v=56
114042 On ch=1 n=g#5 v=73
114047 On ch=1 n=g#3 v=85
114047 Par ch=1 c=64 v=0
114062 On ch=1 n=f5 v=0
114117 On ch=1 n=g#5 v=0
114132 Par ch=1 c=64 v=56
114147 Par ch=1 c=64 v=127
114337 On ch=1 n=a#6 v=74
114362 On ch=1 n=c6 v=60
114437 On ch=1 n=g#2 v=56
114437 On ch=1 n=g#6 v=77
114442 On ch=1 n=d#6 v=61
114447 On ch=1 n=c6 v=0
114457 On ch=1 n=a#6 v=0
114462 On ch=1 n=c3 v=51
114482 On ch=1 n=d#6 v=0
114482 On ch=1 n=f#3 v=51
114507 On ch=1 n=g#2 v=0
114507 On ch=1 n=g#3 v=0
114522 On ch=1 n=c3 v=0
114522 On ch=1 n=g#6 v=0
114542 On ch=1 n=f#3 v=0
114752 On ch=1 n=g#3 v=85
114812 On ch=1 n=g#3 v=0
114877 On ch=1 n=g#3 v=89
114887 Par ch=1 c=64 v=104
114902 Par ch=1 c=64 v=56
114917 Par ch=1 c=64 v=0
115022 Par ch=1 c=64 v=104
115042 Par ch=1 c=64 v=127
115137 On ch=1 n=g#3 v=0
115137 On ch=1 n=c#7 v=58
115197 On ch=1 n=g#7 v=73
115202 On ch=1 n=c#7 v=0
115212 On ch=1 n=g#2 v=43
115242 On ch=1 n=c#3 v=37
115307 On ch=1 n=g#7 v=0
115322 On ch=1 n=f3 v=53
115342 On ch=1 n=f8 v=88
115372 On ch=1 n=g#2 v=0
115382 On ch=1 n=c#3 v=0
115397 On ch=1 n=f8 v=0
115397 On ch=1 n=f3 v=0
115407 On ch=1 n=d#8 v=78
115467 On ch=1 n=d#8 v=0
115477 On ch=1 n=c#8 v=78
115537 On ch=1 n=c#8 v=0
115542 On ch=1 n=g#7 v=77
115602 On ch=1 n=g#7 v=0
115612 On ch=1 n=f7 v=76
115672 On ch=1 n=f7 v=0
115682 On ch=1 n=d#7 v=75
115742 On ch=1 n=d#7 v=0
115747 On ch=1 n=c#7 v=75
115807 On ch=1 n=c#7 v=0
115812 On ch=1 n=g#6 v=74
115872 On ch=1 n=g#6 v=0
115877 On ch=1 n=f6 v=73
115937 On ch=1 n=f6 v=0
115937 On ch=1 n=g3 v=77
115947 On ch=1 n=d#6 v=72
116002 Par ch=1 c=64 v=88
116007 On ch=1 n=d#6 v=0
116012 Par ch=1 c=64 v=56
116017 On ch=1 n=c#6 v=72
116022 On ch=1 n=g3 v=0
116032 Par ch=1 c=64 v=24
116042 Par ch=1 c=64 v=0
116077 On ch=1 n=c#6 v=0
116077 On ch=1 n=g#3 v=81
116082 On ch=1 n=g#5 v=71
116142 On ch=1 n=g#5 v=0
116147 On ch=1 n=f5 v=70
116152 On ch=1 n=g#3 v=0
116207 On ch=1 n=f5 v=0
116217 On ch=1 n=d#5 v=69
116222 On ch=1 n=f4 v=85
116277 On ch=1 n=d#5 v=0
116282 On ch=1 n=f4 v=0
116282 On ch=1 n=c#5 v=69
116342 On ch=1 n=c#5 v=0
116352 On ch=1 n=c#4 v=83
116352 On ch=1 n=g#4 v=68
116412 On ch=1 n=g#4 v=0
116417 On ch=1 n=c#4 v=0
116417 On ch=1 n=f4 v=68
116477 On ch=1 n=f4 v=0
116487 On ch=1 n=d#4 v=67
116497 On ch=1 n=a#3 v=82
116547 On ch=1 n=d#4 v=0
116552 On ch=1 n=c#4 v=66
116582 On ch=1 n=a#3 v=0
116612 On ch=1 n=c#4 v=0
116637 On ch=1 n=g#3 v=83
116677 Par ch=1 c=64 v=24
116692 Par ch=1 c=64 v=72
116707 Par ch=1 c=64 v=88
116722 Par ch=1 c=64 v=104
116732 Par ch=1 c=64 v=127
116787 On ch=1 n=a#4 v=70
116787 On ch=1 n=c#4 v=62
116787 On ch=1 n=f4 v=68
116817 On ch=1 n=c#4 v=0
116822 On ch=1 n=g#3 v=0
116857 On ch=1 n=a#4 v=0
116867 On ch=1 n=f4 v=0
116902 On ch=1 n=g#4 v=67
116902 On ch=1 n=f4 v=63
116902 On ch=1 n=c#4 v=68
116947 On ch=1 n=f4 v=0
116962 On ch=1 n=g#4 v=0
116982 On ch=1 n=c#4 v=0
117052 On ch=1 n=a#5 v=76
117052 On ch=1 n=c#5 v=75
117052 On ch=1 n=f5 v=68
117067 On ch=1 n=g#2 v=60
117077 On ch=1 n=f3 v=69
117077 On ch=1 n=c#3 v=68
117097 On ch=1 n=c#5 v=0
117127 On ch=1 n=a#5 v=0
117132 On ch=1 n=f5 v=0
117157 On ch=1 n=c#3 v=0
117177 On ch=1 n=g#5 v=72
117177 On ch=1 n=f5 v=60
117177 On ch=1 n=c#5 v=68
117222 On ch=1 n=g#2 v=0
117227 On ch=1 n=f5 v=0
117242 On ch=1 n=g#5 v=0
117242 On ch=1 n=f3 v=0
117257 On ch=1 n=c#5 v=0
117327 On ch=1 n=a#6 v=84
117327 On ch=1 n=c#6 v=68
117327 On ch=1 n=f6 v=70
117352 On ch=1 n=c#6 v=0
117387 On ch=1 n=f6 v=0
117392 On ch=1 n=a#6 v=0
117402 On ch=1 n=g#3 v=78
117412 Par ch=1 c=64 v=72
117427 Par ch=1 c=64 v=24
117437 Par ch=1 c=64 v=0
117472 On ch=1 n=g#6 v=90
117472 On ch=1 n=g#3 v=44
117472 On ch=1 n=f#3 v=69
117472 On ch=1 n=f#6 v=76
117472 On ch=1 n=c6 v=70
117472 On ch=1 n=g#2 v=74
117482 On ch=1 n=g#3 v=0
117502 On ch=1 n=c3 v=70
117517 Par ch=1 c=64 v=72
117522 On ch=1 n=c6 v=0
117522 On ch=1 n=f#6 v=0
117527 On ch=1 n=g#2 v=0
117527 On ch=1 n=f#3 v=0
117532 Par ch=1 c=64 v=127
117537 On ch=1 n=g#3 v=0
117542 On ch=1 n=c3 v=0
117547 On ch=1 n=g#6 v=0
117642 On ch=1 n=g#6 v=84
117642 On ch=1 n=g#7 v=82
117657 On ch=1 n=g#3 v=58
117662 On ch=1 n=g#2 v=51
117682 On ch=1 n=g#3 v=0
117687 On ch=1 n=g#6 v=0
117692 On ch=1 n=g#7 v=0
117712 On ch=1 n=g#2 v=0
117792 On ch=1 n=a7 v=86
117797 On ch=1 n=a6 v=74
117802 On ch=1 n=a3 v=74
117812 On ch=1 n=a2 v=53
117827 On ch=1 n=a3 v=0
117837 On ch=1 n=a2 v=0
117837 On ch=1 n=a6 v=0
117842 On ch=1 n=a7 v=0
117927 On ch=1 n=a#7 v=84
117932 On ch=1 n=a#6 v=80
117942 On ch=1 n=a#3 v=71
117947 On ch=1 n=a#2 v=62
117987 On ch=1 n=a#3 v=0
117992 On ch=1 n=a#6 v=0
117997 On ch=1 n=a#2 v=0
118002 On ch=1 n=a#7 v=0
118077 On ch=1 n=b7 v=94
118077 On ch=1 n=b3 v=74
118082 On ch=1 n=b6 v=81
118082 On ch=1 n=b2 v=63
118112 On ch=1 n=b2 v=0
118112 On ch=1 n=b3 v=0
118127 On ch=1 n=b6 v=0
118137 On ch=1 n=b7 v=0
118222 On ch=1 n=c8 v=94
118227 On ch=1 n=c7 v=82
118227 On ch=1 n=c4 v=74
118237 On ch=1 n=c3 v=62
118262 On ch=1 n=c3 v=0
118262 On ch=1 n=c4 v=0
118272 On ch=1 n=c7 v=0
118282 On ch=1 n=c8 v=0
118332 Par ch=1 c=64 v=104
118347 Par ch=1 c=64 v=88
118357 Par ch=1 c=64 v=72
118372 Par ch=1 c=64 v=40
118387 Par ch=1 c=64 v=0
118392 On ch=1 n=c#8 v=96
118392 On ch=1 n=c#4 v=83
118392 On ch=1 n=c#3 v=71
118392 On ch=1 n=c#7 v=86
118392 On ch=1 n=f7 v=70
118392 On ch=1 n=g#3 v=70
118517 On ch=1 n=g#3 v=0
118542 On ch=1 n=c#3 v=0
118607 On ch=1 n=c#4 v=0
118612 On ch=1 n=c#7 v=0
118617 On ch=1 n=f7 v=0
118627 On ch=1 n=c#8 v=0
118657 On ch=1 n=c#4 v=74
118657 Par ch=1 c=64 v=127
118707 On ch=1 n=c#4 v=0
118987 On ch=1 n=f5 v=70
118987 On ch=1 n=c#3 v=78
118987 On ch=1 n=g#4 v=39
119042 On ch=1 n=c#3 v=0
119057 On ch=1 n=f5 v=0
119087 On ch=1 n=g#4 v=0
119097 On ch=1 n=d#5 v=68
119207 On ch=1 n=c#5 v=64
119212 On ch=1 n=d#5 v=0
119287 On ch=1 n=c#4 v=47
119297 On ch=1 n=c#5 v=0
119307 On ch=1 n=g#4 v=64
119312 On ch=1 n=c#4 v=0
119417 On ch=1 n=g#4 v=0
119432 On ch=1 n=f4 v=64
119482 On ch=1 n=f4 v=0
119622 Par ch=1 c=64 v=56
119637 Par ch=1 c=64 v=0
119642 On ch=1 n=c#5 v=78
119642 On ch=1 n=c#4 v=68
119727 On ch=1 n=c#4 v=0
119727 On ch=1 n=c#5 v=0
119737 Par ch=1 c=64 v=88
119752 Par ch=1 c=64 v=127
119992 On ch=1 n=a3 v=66
120157 On ch=1 n=a3 v=0
120302 On ch=1 n=a5 v=66
120302 On ch=1 n=f#3 v=67
120307 On ch=1 n=c#5 v=45
120352 On ch=1 n=f#3 v=0
120367 On ch=1 n=a5 v=0
120382 On ch=1 n=c#5 v=0
120407 On ch=1 n=g#5 v=68
120502 On ch=1 n=f#5 v=66
120507 On ch=1 n=g#5 v=0
120597 On ch=1 n=c#5 v=67
120607 On ch=1 n=a3 v=61
120637 On ch=1 n=a3 v=0
120662 On ch=1 n=f#5 v=0
120682 On ch=1 n=c#5 v=0
120702 On ch=1 n=a4 v=66
120742 On ch=1 n=a4 v=0
120822 Par ch=1 c=64 v=104
120832 Par ch=1 c=64 v=88
120842 On ch=1 n=c#5 v=71
120842 On ch=1 n=c#4 v=70
120847 Par ch=1 c=64 v=72
120857 Par ch=1 c=64 v=56
120882 On ch=1 n=c#4 v=0
120887 On ch=1 n=c#5 v=0
120912 Par ch=1 c=64 v=24
120922 Par ch=1 c=64 v=0
120962 On ch=1 n=c#5 v=78
120962 On ch=1 n=c#4 v=76
121072 Par ch=1 c=64 v=56
121082 Par ch=1 c=64 v=127
121087 On ch=1 n=c#4 v=0
121092 On ch=1 n=c#5 v=0
121312 On ch=1 n=g#3 v=57
121482 On ch=1 n=f5 v=57
121497 On ch=1 n=g#3 v=0
121552 On ch=1 n=g#5 v=57
121622 On ch=1 n=g#5 v=0
121627 On ch=1 n=c#3 v=70
121637 On ch=1 n=f6 v=74
121732 On ch=1 n=f6 v=0
121742 On ch=1 n=d#6 v=70
121842 On ch=1 n=f5 v=0
121857 On ch=1 n=d#6 v=0
121862 On ch=1 n=c#6 v=69
121912 On ch=1 n=g#3 v=53
121962 On ch=1 n=c#6 v=0
121962 On ch=1 n=c#3 v=0
121962 On ch=1 n=g#5 v=67
121982 On ch=1 n=g#3 v=0
122052 On ch=1 n=g#5 v=0
122067 On ch=1 n=f5 v=63
122152 On ch=1 n=f5 v=0
122162 On ch=1 n=g#5 v=67
122242 Par ch=1 c=64 v=104
122252 On ch=1 n=g#5 v=0
122257 Par ch=1 c=64 v=24
122267 Par ch=1 c=64 v=0
122277 On ch=1 n=c#6 v=69
122287 On ch=1 n=c#4 v=67
122332 Par ch=1 c=64 v=56
122342 Par ch=1 c=64 v=127
122357 On ch=1 n=c#4 v=0
122382 On ch=1 n=d#6 v=68
122417 On ch=1 n=c#6 v=0
122432 On ch=1 n=d#6 v=0
122507 On ch=1 n=f6 v=75
122507 Par ch=1 c=64 v=56
122517 On ch=1 n=c4 v=72
122517 On ch=1 n=c5 v=74
122517 Par ch=1 c=64 v=0
122557 Par ch=1 c=64 v=40
122567 On ch=1 n=c4 v=0
122572 On ch=1 n=c5 v=0
122572 Par ch=1 c=64 v=88
122577 On ch=1 n=f6 v=0
122582 Par ch=1 c=64 v=127
122617 On ch=1 n=g#6 v=73
122647 Par ch=1 c=64 v=88
122657 Par ch=1 c=64 v=0
122707 On ch=1 n=c#5 v=81
122712 On ch=1 n=c#4 v=71
122717 On ch=1 n=c#7 v=65
122732 Par ch=1 c=64 v=56
122737 On ch=1 n=g#6 v=0
122742 On ch=1 n=c#4 v=0
122747 Par ch=1 c=64 v=127
122757 On ch=1 n=c#5 v=0
122812 On ch=1 n=d#7 v=72
122852 On ch=1 n=c#7 v=0
122862 On ch=1 n=d#7 v=0
122872 Par ch=1 c=64 v=56
122882 Par ch=1 c=64 v=0
122902 On ch=1 n=f5 v=88
122907 On ch=1 n=f4 v=81
122922 Par ch=1 c=64 v=40
122927 On ch=1 n=f7 v=77
122932 Par ch=1 c=64 v=104
122947 Par ch=1 c=64 v=127
122952 On ch=1 n=f5 v=0
122957 On ch=1 n=f4 v=0
122982 On ch=1 n=f7 v=0
123022 On ch=1 n=g#7 v=84
123087 On ch=1 n=g#7 v=0
123122 On ch=1 n=c#5 v=85
123122 On ch=1 n=c#4 v=80
123127 On ch=1 n=c#8 v=76
123162 On ch=1 n=c#4 v=0
123167 On ch=1 n=c#5 v=0
123197 On ch=1 n=c#8 v=0
123217 On ch=1 n=d#8 v=73
123327 On ch=1 n=d#8 v=0
123327 On ch=1 n=f8 v=76
123327 On ch=1 n=a#4 v=83
123332 On ch=1 n=a#3 v=84
123382 On ch=1 n=f8 v=0
123392 On ch=1 n=a#3 v=0
123392 On ch=1 n=a#4 v=0
123527 Par ch=1 c=64 v=72
123537 Par ch=1 c=64 v=0
123552 On ch=1 n=g#4 v=86
123562 On ch=1 n=g#3 v=84
123677 Par ch=1 c=64 v=56
123692 Par ch=1 c=64 v=127
123697 On ch=1 n=g#4 v=0
123702 On ch=1 n=g#3 v=0
123892 On ch=1 n=d#3 v=57
123992 On ch=1 n=d#3 v=0
124127 On ch=1 n=g#5 v=67
124142 On ch=1 n=g#2 v=71
124147 On ch=1 n=c5 v=57
124227 On ch=1 n=g#5 v=0
124232 On ch=1 n=c5 v=0
124257 On ch=1 n=e5 v=65
124347 On ch=1 n=e5 v=0
124357 On ch=1 n=d#5 v=65
124392 On ch=1 n=d#3 v=59
124407 On ch=1 n=g#2 v=0
124442 On ch=1 n=d#3 v=0
124462 On ch=1 n=d#5 v=0
124472 On ch=1 n=c5 v=64
124542 On ch=1 n=c5 v=0
124682 Par ch=1 c=64 v=24
124697 Par ch=1 c=64 v=0
124717 On ch=1 n=g#4 v=82
124727 On ch=1 n=g#3 v=68
124772 Par ch=1 c=64 v=40
124777 On ch=1 n=g#4 v=0
124782 Par ch=1 c=64 v=104
124797 On ch=1 n=g#3 v=0
124797 Par ch=1 c=64 v=127
125037 On ch=1 n=e3 v=62
125197 On ch=1 n=e3 v=0
125262 On ch=1 n=g#5 v=64
125272 On ch=1 n=e5 v=57
125277 On ch=1 n=c#3 v=69
125332 On ch=1 n=e5 v=0
125357 On ch=1 n=g#5 v=0
125362 On ch=1 n=f#5 v=62
125462 On ch=1 n=f#5 v=0
125462 On ch=1 n=e5 v=62
125502 On ch=1 n=c#3 v=0
125507 On ch=1 n=e3 v=51
125537 On ch=1 n=e3 v=0
125557 On ch=1 n=c#5 v=62
125562 On ch=1 n=e5 v=0
125642 On ch=1 n=c#5 v=0
125652 On ch=1 n=g#4 v=60
125707 On ch=1 n=g#4 v=0
125782 On ch=1 n=g#4 v=80
125787 On ch=1 n=g#3 v=70
125837 On ch=1 n=g#4 v=0
125847 On ch=1 n=g#3 v=0
125867 Par ch=1 c=64 v=88
125882 Par ch=1 c=64 v=0
125892 On ch=1 n=g#3 v=73
125897 On ch=1 n=g#4 v=84
126007 Par ch=1 c=64 v=104
126012 On ch=1 n=g#4 v=0
126022 On ch=1 n=g#3 v=0
126022 Par ch=1 c=64 v=127
126232 On ch=1 n=d#3 v=58
126357 On ch=1 n=d#5 v=59
126442 On ch=1 n=d#5 v=0
126472 On ch=1 n=c6 v=70
126477 On ch=1 n=d#3 v=0
126512 On ch=1 n=g#2 v=70
126547 On ch=1 n=c6 v=0
126572 On ch=1 n=a#5 v=65
126667 On ch=1 n=a#5 v=0
126672 On ch=1 n=g#5 v=64
126762 On ch=1 n=d#3 v=55
126767 On ch=1 n=d#5 v=60
126777 On ch=1 n=g#5 v=0
126807 On ch=1 n=g#2 v=0
126822 On ch=1 n=d#3 v=0
126862 On ch=1 n=d#5 v=0
126872 On ch=1 n=c5 v=64
126947 On ch=1 n=c5 v=0
126967 On ch=1 n=d#5 v=63
127052 Par ch=1 c=64 v=104
127062 On ch=1 n=d#5 v=0
127062 Par ch=1 c=64 v=56
127077 On ch=1 n=g#5 v=65
127077 Par ch=1 c=64 v=0
127087 On ch=1 n=g#3 v=58
127112 Par ch=1 c=64 v=88
127127 Par ch=1 c=64 v=127
127152 On ch=1 n=g#3 v=0
127177 On ch=1 n=a#5 v=65
127212 On ch=1 n=g#5 v=0
127232 On ch=1 n=a#5 v=0
127302 On ch=1 n=g#3 v=66
127302 On ch=1 n=g#4 v=76
127307 On ch=1 n=c6 v=70
127372 On ch=1 n=c6 v=0
127377 On ch=1 n=g#3 v=0
127387 On ch=1 n=g#4 v=0
127407 On ch=1 n=d#6 v=72
127507 On ch=1 n=a#4 v=78
127507 On ch=1 n=g#6 v=71
127512 On ch=1 n=a#3 v=62
127517 On ch=1 n=d#6 v=0
127577 On ch=1 n=a#3 v=0
127597 On ch=1 n=a#6 v=70
127642 On ch=1 n=g#6 v=0
127642 On ch=1 n=a#4 v=0
127657 On ch=1 n=a#6 v=0
127692 Par ch=1 c=64 v=88
127707 Par ch=1 c=64 v=24
127712 On ch=1 n=b3 v=72
127712 On ch=1 n=c7 v=76
127717 On ch=1 n=b4 v=80
127717 Par ch=1 c=64 v=0
127732 Par ch=1 c=64 v=40
127742 Par ch=1 c=64 v=72
127757 Par ch=1 c=64 v=127
127777 On ch=1 n=c7 v=0
127787 On ch=1 n=b3 v=0
127812 On ch=1 n=b4 v=0
127817 On ch=1 n=d#7 v=73
127892 On ch=1 n=c5 v=82
127902 On ch=1 n=d#7 v=0
127902 On ch=1 n=c4 v=71
127947 On ch=1 n=g#7 v=73
127967 On ch=1 n=c4 v=0
127977 On ch=1 n=c5 v=0
128037 On ch=1 n=g#7 v=0
128052 On ch=1 n=a#7 v=72
128062 On ch=1 n=c#5 v=84
128062 On ch=1 n=c#4 v=71
128142 On ch=1 n=c#4 v=0
128172 On ch=1 n=c#5 v=0
128177 On ch=1 n=a#7 v=0
128182 On ch=1 n=c8 v=79
128232 On ch=1 n=d5 v=85
128237 On ch=1 n=d4 v=74
128257 On ch=1 n=c8 v=0
128292 On ch=1 n=d4 v=0
128312 On ch=1 n=d5 v=0
128402 On ch=1 n=d#5 v=88
128407 On ch=1 n=d#4 v=81
128462 Par ch=1 c=64 v=104
128472 Par ch=1 c=64 v=0
128547 Par ch=1 c=64 v=56
128562 Par ch=1 c=64 v=127
128577 On ch=1 n=d#5 v=0
128582 On ch=1 n=d#4 v=0
128747 On ch=1 n=a#3 v=59
128962 On ch=1 n=f#5 v=72
128967 On ch=1 n=a#3 v=0
128977 On ch=1 n=a#4 v=54
128997 On ch=1 n=d#3 v=70
129002 Par ch=1 c=64 v=104
129017 Par ch=1 c=64 v=0
129067 On ch=1 n=f#5 v=0
129072 On ch=1 n=a#4 v=0
129082 On ch=1 n=f5 v=70
129092 Par ch=1 c=64 v=40
129102 Par ch=1 c=64 v=104
129112 Par ch=1 c=64 v=127
129182 On ch=1 n=d#5 v=68
129187 On ch=1 n=f5 v=0
129192 Par ch=1 c=64 v=88
129202 Par ch=1 c=64 v=0
129262 On ch=1 n=a#3 v=59
129267 Par ch=1 c=64 v=40
129277 On ch=1 n=a#4 v=65
129282 On ch=1 n=d#5 v=0
129282 Par ch=1 c=64 v=127
129302 On ch=1 n=a#3 v=0
129312 On ch=1 n=d#3 v=0
129357 On ch=1 n=f#4 v=68
129367 On ch=1 n=a#4 v=0
129392 On ch=1 n=f#4 v=0
129517 Par ch=1 c=64 v=56
129527 Par ch=1 c=64 v=0
129552 On ch=1 n=d#5 v=85
129552 On ch=1 n=d#4 v=77
129607 Par ch=1 c=64 v=72
129612 On ch=1 n=d#5 v=0
129617 Par ch=1 c=64 v=127
129627 On ch=1 n=d#4 v=0
129847 On ch=1 n=b3 v=63
129972 On ch=1 n=b3 v=0
130092 On ch=1 n=b5 v=70
130102 On ch=1 n=d#5 v=58
130112 On ch=1 n=g#3 v=68
130162 On ch=1 n=d#5 v=0
130162 On ch=1 n=b5 v=0
130197 On ch=1 n=a#5 v=64
130282 On ch=1 n=g#5 v=64
130297 On ch=1 n=a#5 v=0
130357 On ch=1 n=b3 v=58
130362 On ch=1 n=g#3 v=0
130367 On ch=1 n=d#5 v=63
130402 On ch=1 n=b3 v=0
130417 On ch=1 n=g#5 v=0
130447 On ch=1 n=d#5 v=0
130462 On ch=1 n=b4 v=63
130492 On ch=1 n=b4 v=0
130592 On ch=1 n=d#5 v=83
130597 On ch=1 n=d#4 v=71
130637 On ch=1 n=d#5 v=0
130642 On ch=1 n=d#4 v=0
130677 Par ch=1 c=64 v=56
130687 Par ch=1 c=64 v=0
130707 On ch=1 n=d#5 v=88
130712 On ch=1 n=d#4 v=77
130822 Par ch=1 c=64 v=72
130832 On ch=1 n=d#5 v=0
130837 On ch=1 n=d#4 v=0
130842 Par ch=1 c=64 v=127
131027 On ch=1 n=a#3 v=63
131082 On ch=1 n=a#3 v=0
131132 On ch=1 n=f#5 v=57
131162 On ch=1 n=a#5 v=65
131242 On ch=1 n=a#5 v=0
131247 On ch=1 n=f#6 v=74
131252 Par ch=1 c=64 v=40
131257 On ch=1 n=d#3 v=69
131267 Par ch=1 c=64 v=0
131317 Par ch=1 c=64 v=24
131327 Par ch=1 c=64 v=88
131332 On ch=1 n=f#5 v=0
131342 On ch=1 n=d#3 v=0
131342 On ch=1 n=f#6 v=0
131342 Par ch=1 c=64 v=127
131357 On ch=1 n=f6 v=72
131437 On ch=1 n=f6 v=0
131457 On ch=1 n=d#6 v=69
131517 On ch=1 n=a#3 v=63
131547 On ch=1 n=d#6 v=0
131552 On ch=1 n=a#5 v=67
131562 On ch=1 n=a#3 v=0
131632 On ch=1 n=a#5 v=0
131642 On ch=1 n=f#5 v=64
131717 On ch=1 n=f#5 v=0
131752 On ch=1 n=a#5 v=71
131832 On ch=1 n=a#5 v=0
131852 On ch=1 n=d#6 v=70
131857 On ch=1 n=d#5 v=70
131862 On ch=1 n=d#4 v=63
131937 On ch=1 n=d#4 v=0
131952 On ch=1 n=f6 v=72
131972 On ch=1 n=d#5 v=0
131987 On ch=1 n=d#6 v=0
132017 On ch=1 n=f6 v=0
132067 On ch=1 n=d5 v=72
132072 On ch=1 n=d4 v=67
132082 On ch=1 n=f#6 v=73
132107 On ch=1 n=d4 v=0
132127 On ch=1 n=d5 v=0
132137 On ch=1 n=f#6 v=0
132182 On ch=1 n=a#6 v=75
132242 On ch=1 n=d#5 v=77
132247 On ch=1 n=d#4 v=73
132267 On ch=1 n=a#6 v=0
132282 On ch=1 n=d#7 v=71
132302 On ch=1 n=d#4 v=0
132322 On ch=1 n=d#5 v=0
132372 On ch=1 n=f7 v=74
132407 On ch=1 n=d#7 v=0
132422 On ch=1 n=f7 v=0
132457 On ch=1 n=f#5 v=85
132462 On ch=1 n=f#4 v=79
132472 On ch=1 n=f#7 v=83
132532 On ch=1 n=f#7 v=0
132557 On ch=1 n=f#4 v=0
132567 On ch=1 n=a#7 v=80
132577 On ch=1 n=f#5 v=0
132632 On ch=1 n=a#7 v=0
132657 On ch=1 n=f5 v=84
132662 On ch=1 n=f4 v=75
132667 On ch=1 n=d#8 v=73
132707 On ch=1 n=f4 v=0
132737 On ch=1 n=d#8 v=0
132737 On ch=1 n=f5 v=0
132752 On ch=1 n=f8 v=75
132847 On ch=1 n=d#5 v=82
132852 On ch=1 n=f8 v=0
132852 On ch=1 n=d#4 v=80
132857 On ch=1 n=f#8 v=83
132912 On ch=1 n=d#5 v=0
132917 On ch=1 n=d#4 v=0
132922 On ch=1 n=f#8 v=0
133062 On ch=1 n=c#5 v=85
133067 On ch=1 n=c#4 v=77
133067 Par ch=1 c=64 v=72
133077 Par ch=1 c=64 v=0
133192 On ch=1 n=c#5 v=0
133192 Par ch=1 c=64 v=72
133197 On ch=1 n=c#4 v=0
133207 Par ch=1 c=64 v=127
133367 On ch=1 n=c#4 v=59
133387 On ch=1 n=c#3 v=56
133457 On ch=1 n=c#3 v=0
133607 On ch=1 n=a#5 v=64
133607 On ch=1 n=f#5 v=59
133622 On ch=1 n=c#3 v=69
133677 On ch=1 n=f#5 v=0
133682 On ch=1 n=a#5 v=0
133707 On ch=1 n=c#4 v=0
133717 On ch=1 n=g#5 v=65
133797 On ch=1 n=f#5 v=63
133802 On ch=1 n=g#5 v=0
133877 On ch=1 n=a#3 v=57
133882 On ch=1 n=c#3 v=0
133887 On ch=1 n=c#5 v=67
133907 On ch=1 n=f#5 v=0
133922 On ch=1 n=a#3 v=0
133977 On ch=1 n=c#5 v=0
133982 On ch=1 n=a#4 v=67
134027 On ch=1 n=a#4 v=0
134112 Par ch=1 c=64 v=88
134127 Par ch=1 c=64 v=0
134147 On ch=1 n=c#5 v=81
134152 On ch=1 n=c#4 v=74
134212 On ch=1 n=c#5 v=0
134212 Par ch=1 c=64 v=88
134217 On ch=1 n=c#4 v=0
134227 Par ch=1 c=64 v=127
134417 On ch=1 n=b3 v=71
134567 On ch=1 n=b3 v=0
134642 On ch=1 n=c#6 v=67
134642 On ch=1 n=c#3 v=70
134642 On ch=1 n=f5 v=63
134687 On ch=1 n=f5 v=0
134722 On ch=1 n=c#6 v=0
134752 On ch=1 n=b5 v=64
134822 On ch=1 n=g#5 v=64
134837 On ch=1 n=b5 v=0
134857 On ch=1 n=c#3 v=0
134897 On ch=1 n=b3 v=56
134907 On ch=1 n=f5 v=64
134937 On ch=1 n=g#5 v=0
134942 On ch=1 n=b3 v=0
134967 On ch=1 n=c#5 v=62
134972 On ch=1 n=f5 v=0
135007 On ch=1 n=c#5 v=0
135152 On ch=1 n=c#5 v=88
135152 On ch=1 n=c#4 v=75
135192 On ch=1 n=c#4 v=0
135192 On ch=1 n=c#5 v=0
135282 Par ch=1 c=64 v=56
135292 Par ch=1 c=64 v=0
135317 On ch=1 n=a#5 v=91
135317 On ch=1 n=a#4 v=77
135382 Par ch=1 c=64 v=127
135402 On ch=1 n=a#5 v=0
135417 On ch=1 n=a#4 v=0
135622 On ch=1 n=c#4 v=61
135807 On ch=1 n=c#4 v=0
135822 On ch=1 n=a#6 v=71
135832 On ch=1 n=a#5 v=58
135842 On ch=1 n=a#3 v=68
135902 On ch=1 n=a#5 v=0
135907 On ch=1 n=a#6 v=0
135922 On ch=1 n=g#6 v=63
136012 On ch=1 n=g#6 v=0
136022 On ch=1 n=f#6 v=69
136082 On ch=1 n=f#3 v=66
136097 On ch=1 n=a#3 v=0
136112 On ch=1 n=c#6 v=72
136122 On ch=1 n=f#6 v=0
136142 On ch=1 n=f#3 v=0
136192 On ch=1 n=c#6 v=0
136202 On ch=1 n=a#5 v=69
136302 On ch=1 n=a#5 v=0
136302 On ch=1 n=c#6 v=68
136397 On ch=1 n=c#3 v=72
136397 On ch=1 n=f#6 v=73
136402 On ch=1 n=c#6 v=0
136447 On ch=1 n=c#3 v=0
136497 On ch=1 n=g#6 v=73
136532 On ch=1 n=f#6 v=0
136557 On ch=1 n=g#6 v=0
136632 On ch=1 n=a#6 v=70
136637 On ch=1 n=f5 v=79
136647 On ch=1 n=f4 v=65
136682 On ch=1 n=a#6 v=0
136717 On ch=1 n=f4 v=0
136717 On ch=1 n=f5 v=0
136727 On ch=1 n=c#7 v=78
136802 On ch=1 n=c#7 v=0
136832 On ch=1 n=f#7 v=73
136837 On ch=1 n=f#4 v=74
136837 On ch=1 n=f#5 v=81
136907 On ch=1 n=f#4 v=0
136917 On ch=1 n=f#7 v=0
136922 On ch=1 n=g#7 v=75
136932 On ch=1 n=f#5 v=0
137032 On ch=1 n=g#7 v=0
137032 On ch=1 n=a#7 v=79
137047 On ch=1 n=g#5 v=86
137047 On ch=1 n=g#4 v=76
137122 On ch=1 n=g#4 v=0
137122 On ch=1 n=a#7 v=0
137127 On ch=1 n=g#5 v=0
137132 On ch=1 n=g#7 v=77
137232 On ch=1 n=f#7 v=73
137242 On ch=1 n=f#5 v=85
137242 On ch=1 n=f#4 v=80
137247 On ch=1 n=g#7 v=0
137292 On ch=1 n=f#4 v=0
137297 On ch=1 n=f#5 v=0
137312 On ch=1 n=f#7 v=0
137332 On ch=1 n=c#7 v=83
137437 On ch=1 n=d#5 v=83
137437 On ch=1 n=c#8 v=78
137447 On ch=1 n=d#4 v=80
137447 On ch=1 n=a#7 v=67
137462 On ch=1 n=c#7 v=0
137492 On ch=1 n=c#8 v=0
137497 On ch=1 n=a#7 v=0
137502 On ch=1 n=d#4 v=0
137502 On ch=1 n=d#5 v=0
137637 Par ch=1 c=64 v=24
137642 On ch=1 n=c#5 v=85
137642 On ch=1 n=c#4 v=80
137647 Par ch=1 c=64 v=0
137752 Par ch=1 c=64 v=72
137757 On ch=1 n=c#4 v=0
137762 On ch=1 n=c#5 v=0
137762 Par ch=1 c=64 v=127
137987 On ch=1 n=a#3 v=63
138162 On ch=1 n=a#3 v=0
138182 On ch=1 n=a#5 v=64
138187 On ch=1 n=f#5 v=53
138207 On ch=1 n=c#3 v=70
138252 On ch=1 n=f#5 v=0
138252 On ch=1 n=a#5 v=0
138287 On ch=1 n=g#5 v=63
138377 On ch=1 n=g#5 v=0
138377 On ch=1 n=f#5 v=62
138437 On ch=1 n=a#3 v=62
138467 On ch=1 n=c#3 v=0
138467 On ch=1 n=c#5 v=65
138477 On ch=1 n=f#5 v=0
138492 On ch=1 n=a#3 v=0
138547 On ch=1 n=c#5 v=0
138552 On ch=1 n=a#4 v=64
138602 On ch=1 n=a#4 v=0
138707 Par ch=1 c=64 v=56
138717 Par ch=1 c=64 v=0
138722 On ch=1 n=c#5 v=85
138727 On ch=1 n=c#4 v=74
138787 On ch=1 n=c#5 v=0
138792 Par ch=1 c=64 v=88
138802 On ch=1 n=c#4 v=0
138807 Par ch=1 c=64 v=127
139022 On ch=1 n=b3 v=67
139152 On ch=1 n=b3 v=0
139237 On ch=1 n=c#6 v=71
139247 On ch=1 n=c#3 v=73
139252 On ch=1 n=f5 v=61
139317 On ch=1 n=c#6 v=0
139337 On ch=1 n=f5 v=0
139347 On ch=1 n=b5 v=68
139437 On ch=1 n=g#5 v=65
139442 On ch=1 n=b5 v=0
139472 On ch=1 n=c#3 v=0
139472 On ch=1 n=b3 v=62
139512 On ch=1 n=f5 v=63
139527 On ch=1 n=b3 v=0
139527 On ch=1 n=g#5 v=0
139562 On ch=1 n=f5 v=0
139572 On ch=1 n=c#5 v=63
139617 On ch=1 n=c#5 v=0
139692 On ch=1 n=c#5 v=88
139692 On ch=1 n=c#4 v=78
139732 On ch=1 n=c#4 v=0
139732 On ch=1 n=c#5 v=0
139852 Par ch=1 c=64 v=40
139857 On ch=1 n=a#4 v=85
139857 On ch=1 n=a#5 v=91
139862 Par ch=1 c=64 v=0
139937 Par ch=1 c=64 v=127
139957 On ch=1 n=a#5 v=0
139972 On ch=1 n=a#4 v=0
140162 On ch=1 n=c#4 v=61
140227 Par ch=1 c=64 v=56
140237 Par ch=1 c=64 v=104
140247 Par ch=1 c=64 v=127
140342 On ch=1 n=c#4 v=0
140437 On ch=1 n=a#6 v=76
140452 On ch=1 n=a#5 v=57
140457 On ch=1 n=f#3 v=69
140462 Par ch=1 c=64 v=24
140477 Par ch=1 c=64 v=72
140487 Par ch=1 c=64 v=127
140527 On ch=1 n=a#5 v=0
140527 On ch=1 n=a#6 v=0
140547 On ch=1 n=g#6 v=68
140627 On ch=1 n=g#6 v=0
140637 On ch=1 n=f#6 v=75
140722 On ch=1 n=f#6 v=0
140732 On ch=1 n=c#6 v=82
140742 On ch=1 n=c#4 v=59
140752 On ch=1 n=f#3 v=0
140797 On ch=1 n=c#4 v=0
140812 On ch=1 n=c#6 v=0
140832 On ch=1 n=a#5 v=79
140907 On ch=1 n=a#5 v=0
140937 On ch=1 n=c#6 v=80
141017 Par ch=1 c=64 v=56
141027 On ch=1 n=c#6 v=0
141032 On ch=1 n=f#6 v=80
141032 Par ch=1 c=64 v=0
141047 On ch=1 n=e5 v=87
141052 On ch=1 n=e4 v=72
141077 Par ch=1 c=64 v=56
141087 Par ch=1 c=64 v=127
141117 On ch=1 n=g#6 v=77
141147 On ch=1 n=f#6 v=0
141152 On ch=1 n=e5 v=0
141177 On ch=1 n=g#6 v=0
141177 On ch=1 n=e4 v=0
141227 On ch=1 n=a#6 v=86
141292 On ch=1 n=a#6 v=0
141342 On ch=1 n=c#7 v=85
141357 On ch=1 n=c#4 v=63
141412 On ch=1 n=c#7 v=0
141442 On ch=1 n=f#7 v=80
141507 On ch=1 n=f#7 v=0
141527 On ch=1 n=g#7 v=85
141617 On ch=1 n=g#7 v=0
141637 On ch=1 n=a#7 v=85
141652 On ch=1 n=a#3 v=64
141657 On ch=1 n=c#4 v=0
141707 On ch=1 n=a#7 v=0
141732 On ch=1 n=g#7 v=88
141812 On ch=1 n=g#7 v=0
141827 On ch=1 n=f#7 v=91
141932 On ch=1 n=f#7 v=0
141932 On ch=1 n=c#7 v=93
141937 On ch=1 n=f#3 v=68
141972 On ch=1 n=a#3 v=0
141992 On ch=1 n=f#3 v=0
142042 On ch=1 n=c#7 v=0
142047 On ch=1 n=c#8 v=93
142052 On ch=1 n=a#7 v=75
142057 On ch=1 n=c#7 v=30
142082 On ch=1 n=c#7 v=0
142102 On ch=1 n=a#7 v=0
142122 On ch=1 n=c#8 v=0
142177 On ch=1 n=e5 v=83
142182 On ch=1 n=e4 v=77
142232 On ch=1 n=e4 v=0
142257 On ch=1 n=e5 v=0
142342 On ch=1 n=f5 v=88
142342 On ch=1 n=f4 v=82
142372 Par ch=1 c=64 v=88
142387 Par ch=1 c=64 v=24
142397 Par ch=1 c=64 v=0
142542 On ch=1 n=c#5 v=69
142707 On ch=1 n=f5 v=74
142707 On ch=1 n=a#3 v=60
142747 On ch=1 n=c#5 v=0
142752 On ch=1 n=f4 v=0
142752 On ch=1 n=f5 v=0
142772 Par ch=1 c=64 v=24
142782 Par ch=1 c=64 v=56
142792 Par ch=1 c=64 v=88
142807 Par ch=1 c=64 v=104
142817 Par ch=1 c=64 v=127
142837 On ch=1 n=a#3 v=0
142862 On ch=1 n=f5 v=0
142862 On ch=1 n=c#6 v=74
142862 On ch=1 n=a#5 v=65
142912 On ch=1 n=c#6 v=0
142927 On ch=1 n=a#5 v=0
143047 On ch=1 n=f6 v=92
143047 On ch=1 n=f5 v=77
143047 On ch=1 n=f4 v=68
143082 On ch=1 n=f5 v=0
143092 On ch=1 n=f4 v=0
143192 On ch=1 n=c#7 v=77
143202 On ch=1 n=f6 v=0
143202 On ch=1 n=a#6 v=62
143252 On ch=1 n=c#7 v=0
143277 On ch=1 n=a#6 v=0
143342 On ch=1 n=f3 v=71
143347 On ch=1 n=f7 v=94
143412 On ch=1 n=f3 v=0
143502 On ch=1 n=c#8 v=78
143502 On ch=1 n=a#7 v=65
143547 On ch=1 n=f7 v=0
143552 On ch=1 n=a#7 v=0
143562 On ch=1 n=c#8 v=0
143642 On ch=1 n=f4 v=79
143642 On ch=1 n=f5 v=82
143687 On ch=1 n=f4 v=0
143697 On ch=1 n=f5 v=0
143742 On ch=1 n=f4 v=75
143742 On ch=1 n=f5 v=83
143742 Par ch=1 c=64 v=88
143757 Par ch=1 c=64 v=0
143822 Par ch=1 c=64 v=56
143827 On ch=1 n=f5 v=0
143832 Par ch=1 c=64 v=127
143842 On ch=1 n=f4 v=0
143917 On ch=1 n=d#5 v=76
144027 On ch=1 n=d#5 v=0
144067 On ch=1 n=f#3 v=70
144077 On ch=1 n=a5 v=68
144082 On ch=1 n=c6 v=70
144142 On ch=1 n=a5 v=0
144147 On ch=1 n=f#3 v=0
144172 On ch=1 n=c6 v=0
144217 On ch=1 n=f6 v=83
144252 On ch=1 n=f6 v=0
144387 On ch=1 n=a6 v=86
144387 On ch=1 n=f5 v=81
144387 On ch=1 n=f4 v=74
144467 On ch=1 n=f5 v=0
144482 On ch=1 n=f4 v=0
144517 On ch=1 n=a6 v=0
144542 On ch=1 n=f7 v=78
144542 On ch=1 n=c7 v=68
144597 On ch=1 n=f7 v=0
144607 On ch=1 n=c7 v=0
144697 On ch=1 n=a7 v=83
144707 On ch=1 n=f3 v=74
144787 On ch=1 n=f3 v=0
144802 On ch=1 n=a7 v=0
144852 On ch=1 n=f8 v=84
144872 On ch=1 n=c8 v=40
144897 On ch=1 n=c8 v=0
144912 On ch=1 n=f8 v=0
145057 Par ch=1 c=64 v=88
145067 Par ch=1 c=64 v=0
145077 On ch=1 n=f5 v=94
145082 On ch=1 n=f4 v=84
145167 Par ch=1 c=64 v=127
145187 On ch=1 n=f5 v=0
145212 On ch=1 n=f4 v=0
145437 Par ch=1 c=64 v=104
145447 On ch=1 n=g#4 v=89
145447 Par ch=1 c=64 v=24
145452 On ch=1 n=b3 v=79
145457 On ch=1 n=b2 v=67
145457 On ch=1 n=d#4 v=78
145457 On ch=1 n=f3 v=67
145462 Par ch=1 c=64 v=0
145497 On ch=1 n=d#4 v=0
145532 Par ch=1 c=64 v=104
145537 On ch=1 n=b2 v=0
145542 Par ch=1 c=64 v=127
145547 On ch=1 n=g#4 v=0
145552 On ch=1 n=f3 v=0
145577 On ch=1 n=b3 v=0
145802 On ch=1 n=d#5 v=53
145852 On ch=1 n=g#5 v=59
145867 On ch=1 n=b5 v=55
145877 On ch=1 n=d#5 v=0
145902 On ch=1 n=b7 v=103
145907 On ch=1 n=f6 v=84
145912 On ch=1 n=g#6 v=79
145912 On ch=1 n=d#7 v=75
145927 On ch=1 n=g#5 v=0
145937 On ch=1 n=b5 v=0
145947 On ch=1 n=f6 v=0
145952 On ch=1 n=g#6 v=0
146042 On ch=1 n=d#7 v=0
146372 On ch=1 n=b7 v=0
146392 On ch=1 n=g#7 v=84
146512 On ch=1 n=g#7 v=0
146512 On ch=1 n=d#7 v=84
146617 On ch=1 n=b6 v=77
146622 On ch=1 n=d#7 v=0
146662 On ch=1 n=b6 v=0
146707 On ch=1 n=g#6 v=75
146792 On ch=1 n=d#6 v=78
146827 On ch=1 n=g#6 v=0
146872 On ch=1 n=d#6 v=0
146877 On ch=1 n=b5 v=75
146922 On ch=1 n=b5 v=0
146962 On ch=1 n=g#5 v=71
147052 On ch=1 n=d#5 v=70
147082 On ch=1 n=g#5 v=0
147127 On ch=1 n=d#5 v=0
147142 On ch=1 n=b4 v=68
147187 On ch=1 n=b4 v=0
147227 On ch=1 n=g#4 v=68
147327 On ch=1 n=d#4 v=72
147347 On ch=1 n=g#4 v=0
147397 On ch=1 n=d#4 v=0
147432 On ch=1 n=b3 v=72
147502 On ch=1 n=b3 v=0
147527 On ch=1 n=g#3 v=74
147572 On ch=1 n=g#3 v=0
147617 On ch=1 n=f3 v=82
147727 On ch=1 n=d#3 v=59
147732 On ch=1 n=d#4 v=88
147752 On ch=1 n=f3 v=0
147777 Par ch=1 c=64 v=104
147787 Par ch=1 c=64 v=24
147797 Par ch=1 c=64 v=0
147922 Par ch=1 c=64 v=88
147932 Par ch=1 c=64 v=127
147937 On ch=1 n=f4 v=69
148007 On ch=1 n=f4 v=0
148037 On ch=1 n=b4 v=64
148137 On ch=1 n=b4 v=0
148142 On ch=1 n=g#5 v=64
148182 On ch=1 n=g#5 v=0
148237 On ch=1 n=f5 v=74
148297 On ch=1 n=f5 v=0
148337 On ch=1 n=b5 v=71
148427 On ch=1 n=b5 v=0
148427 On ch=1 n=g#6 v=63
148462 On ch=1 n=g#6 v=0
148517 On ch=1 n=f6 v=75
148587 On ch=1 n=f6 v=0
148602 On ch=1 n=b6 v=70
148667 On ch=1 n=d#4 v=0
148667 On ch=1 n=d#3 v=0
148682 On ch=1 n=g#7 v=77
148687 On ch=1 n=b6 v=0
148712 On ch=1 n=d4 v=83
148712 On ch=1 n=d3 v=82
148732 On ch=1 n=g#7 v=0
148772 On ch=1 n=d3 v=0
148777 On ch=1 n=d4 v=0
148832 On ch=1 n=d4 v=84
148832 On ch=1 n=d3 v=83
148882 Par ch=1 c=64 v=104
148897 Par ch=1 c=64 v=0
149007 Par ch=1 c=64 v=127
149097 On ch=1 n=f4 v=69
149162 On ch=1 n=f4 v=0
149192 On ch=1 n=a#4 v=64
149287 On ch=1 n=g#5 v=61
149292 On ch=1 n=a#4 v=0
149332 On ch=1 n=g#5 v=0
149382 On ch=1 n=f5 v=78
149447 On ch=1 n=f5 v=0
149467 On ch=1 n=a#5 v=67
149552 On ch=1 n=g#6 v=66
149557 On ch=1 n=a#5 v=0
149607 On ch=1 n=g#6 v=0
149652 On ch=1 n=f6 v=68
149697 On ch=1 n=d4 v=0
149702 On ch=1 n=f6 v=0
149707 On ch=1 n=d3 v=0
149742 On ch=1 n=a#6 v=68
149792 On ch=1 n=a#6 v=0
149812 On ch=1 n=g#7 v=87
149847 On ch=1 n=g#7 v=0
149917 On ch=1 n=b3 v=94
149917 On ch=1 n=b2 v=74
150002 Par ch=1 c=64 v=88
150012 Par ch=1 c=64 v=0
150112 Par ch=1 c=64 v=88
150127 Par ch=1 c=64 v=127
150157 On ch=1 n=f4 v=72
150232 On ch=1 n=f4 v=0
150262 On ch=1 n=d#5 v=63
150332 On ch=1 n=g#5 v=59
150362 On ch=1 n=d#5 v=0
150367 On ch=1 n=g#5 v=0
150432 On ch=1 n=f5 v=76
150497 On ch=1 n=f5 v=0
150522 On ch=1 n=d#6 v=61
150582 On ch=1 n=g#6 v=65
150602 On ch=1 n=d#6 v=0
150617 On ch=1 n=g#6 v=0
150672 On ch=1 n=f6 v=79
150712 On ch=1 n=b2 v=0
150717 On ch=1 n=b3 v=0
150762 On ch=1 n=d#7 v=76
150772 On ch=1 n=f6 v=0
150822 On ch=1 n=a#3 v=93
150822 On ch=1 n=a#2 v=74
150832 On ch=1 n=d#7 v=0
150832 On ch=1 n=g#7 v=86
150867 On ch=1 n=g#7 v=0
150867 On ch=1 n=a#3 v=0
150872 On ch=1 n=a#2 v=0
150962 On ch=1 n=a#3 v=92
150962 On ch=1 n=a#2 v=77
151007 Par ch=1 c=64 v=72
151017 Par ch=1 c=64 v=0
151147 On ch=1 n=f5 v=52
151177 On ch=1 n=a#2 v=0
151177 On ch=1 n=a#3 v=0
151182 On ch=1 n=d6 v=60
151192 On ch=1 n=a#4 v=51
151192 On ch=1 n=a#3 v=60
151202 Par ch=1 c=64 v=40
151207 On ch=1 n=f5 v=0
151212 Par ch=1 c=64 v=88
151222 On ch=1 n=g#6 v=86
151222 Par ch=1 c=64 v=127
151232 On ch=1 n=d6 v=0
151237 On ch=1 n=a#3 v=0
151237 On ch=1 n=a#4 v=0
151252 On ch=1 n=g#6 v=0
151377 Par ch=1 c=64 v=104
151387 Par ch=1 c=64 v=88
151397 Par ch=1 c=64 v=72
151407 Par ch=1 c=64 v=40
151417 Par ch=1 c=64 v=0
151442 On ch=1 n=a2 v=65
151442 On ch=1 n=a3 v=87
151477 Par ch=1 c=64 v=40
151487 On ch=1 n=a3 v=0
151487 Par ch=1 c=64 v=127
151492 On ch=1 n=a2 v=0
151557 On ch=1 n=f6 v=59
151607 On ch=1 n=d7 v=68
151627 On ch=1 n=f6 v=0
151662 On ch=1 n=d7 v=0
151662 On ch=1 n=a7 v=96
151672 On ch=1 n=a4 v=58
151672 On ch=1 n=a3 v=66
151697 On ch=1 n=a7 v=0
151707 On ch=1 n=a3 v=0
151707 On ch=1 n=a4 v=0
151862 Par ch=1 c=64 v=88
151872 Par ch=1 c=64 v=24
151882 On ch=1 n=g#3 v=81
151882 On ch=1 n=g#2 v=63
151882 Par ch=1 c=64 v=0
151917 On ch=1 n=g#2 v=0
151917 On ch=1 n=g#3 v=0
151922 Par ch=1 c=64 v=56
151932 Par ch=1 c=64 v=127
152022 On ch=1 n=f5 v=60
152072 On ch=1 n=f5 v=0
152077 On ch=1 n=d6 v=75
152102 On ch=1 n=g#4 v=72
152112 On ch=1 n=d6 v=0
152112 On ch=1 n=a#6 v=85
152112 On ch=1 n=g#3 v=64
152137 On ch=1 n=g#4 v=0
152157 On ch=1 n=g#3 v=0
152157 On ch=1 n=a#6 v=0
152292 Par ch=1 c=64 v=72
152302 Par ch=1 c=64 v=0
152312 On ch=1 n=g2 v=64
152317 On ch=1 n=g3 v=76
152347 On ch=1 n=g2 v=0
152352 On ch=1 n=g3 v=0
152352 Par ch=1 c=64 v=72
152362 Par ch=1 c=64 v=127
152457 On ch=1 n=f6 v=79
152502 On ch=1 n=d7 v=79
152512 On ch=1 n=f6 v=0
152547 On ch=1 n=d7 v=0
152547 On ch=1 n=g4 v=71
152552 On ch=1 n=g3 v=68
152567 On ch=1 n=b7 v=88
152582 On ch=1 n=g4 v=0
152587 On ch=1 n=g3 v=0
152617 On ch=1 n=b7 v=0
152727 Par ch=1 c=64 v=104
152737 Par ch=1 c=64 v=40
152747 Par ch=1 c=64 v=0
152752 On ch=1 n=f#2 v=69
152752 On ch=1 n=f#3 v=85
152787 On ch=1 n=f#2 v=0
152792 On ch=1 n=f#3 v=0
152797 Par ch=1 c=64 v=88
152807 Par ch=1 c=64 v=127
152902 On ch=1 n=f#5 v=65
152937 On ch=1 n=d6 v=77
152947 On ch=1 n=f#5 v=0
152977 On ch=1 n=f#4 v=79
152977 On ch=1 n=f#3 v=67
152987 On ch=1 n=b6 v=88
152992 On ch=1 n=d6 v=0
153007 On ch=1 n=f#4 v=0
153012 On ch=1 n=f#3 v=0
153027 On ch=1 n=b6 v=0
153132 Par ch=1 c=64 v=88
153142 Par ch=1 c=64 v=0
153167 On ch=1 n=f3 v=82
153167 On ch=1 n=f2 v=67
153192 Par ch=1 c=64 v=40
153197 On ch=1 n=f2 v=0
153197 Par ch=1 c=64 v=127
153207 On ch=1 n=f3 v=0
153297 On ch=1 n=a6 v=66
153327 On ch=1 n=d#7 v=77
153352 On ch=1 n=a6 v=0
153367 On ch=1 n=d#7 v=0
153372 On ch=1 n=f3 v=65
153372 On ch=1 n=f4 v=80
153382 On ch=1 n=c8 v=90
153407 On ch=1 n=f4 v=0
153407 On ch=1 n=f3 v=0
153422 On ch=1 n=c8 v=0
153537 Par ch=1 c=64 v=88
153547 Par ch=1 c=64 v=0
153552 On ch=1 n=e3 v=84
153552 On ch=1 n=e2 v=75
153582 On ch=1 n=e2 v=0
153592 Par ch=1 c=64 v=56
153602 On ch=1 n=e3 v=0
153602 Par ch=1 c=64 v=127
153677 On ch=1 n=a5 v=66
153717 On ch=1 n=e6 v=64
153737 On ch=1 n=a5 v=0
153772 On ch=1 n=e6 v=0
153772 On ch=1 n=e3 v=74
153772 On ch=1 n=e4 v=77
153772 On ch=1 n=c7 v=93
153807 On ch=1 n=e3 v=0
153822 On ch=1 n=e4 v=0
153827 On ch=1 n=c7 v=0
153917 Par ch=1 c=64 v=72
153927 Par ch=1 c=64 v=0
153947 On ch=1 n=d#3 v=96
153947 On ch=1 n=d#2 v=83
153982 On ch=1 n=d#3 v=0
153987 On ch=1 n=d#2 v=0
153987 Par ch=1 c=64 v=88
153997 Par ch=1 c=64 v=127
154037 On ch=1 n=a6 v=64
154082 On ch=1 n=f#7 v=78
154102 On ch=1 n=a6 v=0
154137 On ch=1 n=f#7 v=0
154142 On ch=1 n=c8 v=92
154162 On ch=1 n=d#4 v=95
154162 On ch=1 n=d#3 v=74
154177 On ch=1 n=c8 v=0
154197 On ch=1 n=d#3 v=0
154197 On ch=1 n=d#4 v=0
154332 Par ch=1 c=64 v=104
154342 Par ch=1 c=64 v=56
154352 Par ch=1 c=64 v=0
154372 On ch=1 n=c#3 v=103
154372 On ch=1 n=c#2 v=97
154422 Par ch=1 c=64 v=104
154432 Par ch=1 c=64 v=127
154612 On ch=1 n=c#3 v=0
154637 On ch=1 n=c#2 v=0
154777 On ch=1 n=c#7 v=88
154787 On ch=1 n=c#6 v=82
154792 On ch=1 n=g6 v=85
154797 On ch=1 n=a#5 v=70
154797 On ch=1 n=e5 v=70
154802 On ch=1 n=a#4 v=56
154832 Par ch=1 c=64 v=72
154842 On ch=1 n=c#6 v=0
154847 On ch=1 n=a#4 v=0
154847 On ch=1 n=g6 v=0
154847 Par ch=1 c=64 v=127
154852 On ch=1 n=e5 v=0
154852 On ch=1 n=a#5 v=0
154867 On ch=1 n=c#7 v=0
155112 On ch=1 n=g#6 v=78
155112 On ch=1 n=b5 v=71
155112 On ch=1 n=c#7 v=87
155112 On ch=1 n=c#6 v=81
155112 On ch=1 n=f5 v=68
155117 On ch=1 n=b4 v=58
155147 On ch=1 n=c#6 v=0
155147 On ch=1 n=b5 v=0
155157 On ch=1 n=b4 v=0
155157 On ch=1 n=c#7 v=0
155157 On ch=1 n=g#6 v=0
155162 On ch=1 n=f5 v=0
155202 On ch=1 n=c#7 v=85
155202 On ch=1 n=c#6 v=83
155207 On ch=1 n=g#6 v=83
155212 On ch=1 n=f5 v=64
155212 On ch=1 n=b4 v=52
155217 On ch=1 n=b5 v=66
155252 Par ch=1 c=64 v=104
155267 Par ch=1 c=64 v=40
155282 Par ch=1 c=64 v=0
155397 Par ch=1 c=64 v=88
155407 Par ch=1 c=64 v=127
155412 On ch=1 n=c#6 v=0
155432 On ch=1 n=g#6 v=0
155437 On ch=1 n=b4 v=0
155437 On ch=1 n=c#7 v=0
155442 On ch=1 n=b5 v=0
155442 On ch=1 n=f5 v=0
156072 On ch=1 n=c#5 v=61
156072 On ch=1 n=g5 v=71
156077 On ch=1 n=e6 v=74
156082 On ch=1 n=e7 v=74
156082 On ch=1 n=a#6 v=58
156082 On ch=1 n=g4 v=58
156107 On ch=1 n=a#6 v=0
156107 On ch=1 n=e7 v=0
156107 On ch=1 n=g5 v=0
156112 On ch=1 n=g4 v=0
156112 On ch=1 n=e6 v=0
156122 On ch=1 n=c#5 v=0
156142 On ch=1 n=e7 v=87
156142 On ch=1 n=e6 v=70
156142 Par ch=1 c=64 v=72
156147 On ch=1 n=a#6 v=84
156157 On ch=1 n=g5 v=71
156157 Par ch=1 c=64 v=0
156162 On ch=1 n=g4 v=68
156162 On ch=1 n=c#5 v=77
156187 On ch=1 n=g4 v=0
156212 On ch=1 n=g5 v=0
156212 On ch=1 n=a#6 v=0
156212 On ch=1 n=e6 v=0
156217 On ch=1 n=c#5 v=0
156217 Par ch=1 c=64 v=56
156227 Par ch=1 c=64 v=104
156237 On ch=1 n=e7 v=0
156242 Par ch=1 c=64 v=127
156422 On ch=1 n=g#5 v=65
156427 On ch=1 n=f7 v=84
156427 On ch=1 n=f6 v=74
156427 On ch=1 n=b6 v=70
156427 On ch=1 n=c#5 v=47
156432 On ch=1 n=g#4 v=43
156447 On ch=1 n=f7 v=0
156452 On ch=1 n=b6 v=0
156452 On ch=1 n=f6 v=0
156457 On ch=1 n=c#5 v=0
156457 On ch=1 n=g#5 v=0
156467 On ch=1 n=g#4 v=0
156487 Par ch=1 c=64 v=72
156502 On ch=1 n=f7 v=87
156502 On ch=1 n=f6 v=85
156502 On ch=1 n=g#4 v=34
156502 On ch=1 n=g#5 v=58
156502 Par ch=1 c=64 v=0
156507 On ch=1 n=b6 v=69
156507 On ch=1 n=c#5 v=54
156547 Par ch=1 c=64 v=104
156552 On ch=1 n=b6 v=0
156552 On ch=1 n=g#5 v=0
156562 Par ch=1 c=64 v=127
156567 On ch=1 n=c#5 v=0
156567 On ch=1 n=f6 v=0
156572 On ch=1 n=g#4 v=0
156602 On ch=1 n=f7 v=0
156777 On ch=1 n=g7 v=92
156777 On ch=1 n=g6 v=81
156782 On ch=1 n=c#7 v=67
156787 On ch=1 n=e4 v=68
156787 On ch=1 n=e5 v=70
156787 On ch=1 n=a#4 v=56
156802 On ch=1 n=c#7 v=0
156812 On ch=1 n=a#4 v=0
156812 On ch=1 n=e5 v=0
156812 On ch=1 n=e4 v=0
156812 On ch=1 n=g6 v=0
156832 On ch=1 n=g7 v=0
156852 On ch=1 n=g7 v=87
156857 On ch=1 n=g6 v=85
156862 On ch=1 n=c#7 v=56
156862 Par ch=1 c=64 v=88
156872 On ch=1 n=e4 v=57
156877 On ch=1 n=e5 v=51
156877 On ch=1 n=a#4 v=53
156877 Par ch=1 c=64 v=40
156907 Par ch=1 c=64 v=88
156912 On ch=1 n=e4 v=0
156917 Par ch=1 c=64 v=127
156922 On ch=1 n=g6 v=0
156937 On ch=1 n=a#4 v=0
156952 On ch=1 n=e5 v=0
156952 On ch=1 n=c#7 v=0
156952 On ch=1 n=g7 v=0
157127 On ch=1 n=g#6 v=91
157127 On ch=1 n=g#7 v=88
157132 On ch=1 n=f5 v=67
157132 On ch=1 n=b4 v=72
157132 On ch=1 n=f4 v=72
157137 On ch=1 n=c#7 v=71
157157 On ch=1 n=c#7 v=0
157157 On ch=1 n=f4 v=0
157157 On ch=1 n=g#7 v=0
157162 On ch=1 n=b4 v=0
157162 On ch=1 n=f5 v=0
157167 On ch=1 n=g#6 v=0
157192 Par ch=1 c=64 v=72
157207 On ch=1 n=g#6 v=81
157207 On ch=1 n=g#7 v=95
157207 Par ch=1 c=64 v=24
157217 On ch=1 n=c#7 v=60
157222 On ch=1 n=b4 v=69
157222 On ch=1 n=f4 v=52
157222 Par ch=1 c=64 v=40
157227 On ch=1 n=f5 v=41
157237 Par ch=1 c=64 v=88
157247 Par ch=1 c=64 v=127
157257 On ch=1 n=f5 v=0
157257 On ch=1 n=b4 v=0
157257 On ch=1 n=c#7 v=0
157262 On ch=1 n=g#6 v=0
157277 On ch=1 n=f4 v=0
157287 On ch=1 n=g#7 v=0
157477 On ch=1 n=c#8 v=86
157482 On ch=1 n=g7 v=82
157482 On ch=1 n=c#7 v=73
157487 On ch=1 n=e4 v=75
157487 On ch=1 n=a#4 v=64
157492 On ch=1 n=a#3 v=60
157512 On ch=1 n=g7 v=0
157517 On ch=1 n=e4 v=0
157517 On ch=1 n=c#7 v=0
157522 On ch=1 n=a#3 v=0
157522 On ch=1 n=a#4 v=0
157522 On ch=1 n=c#8 v=0
157562 On ch=1 n=c#8 v=83
157567 On ch=1 n=c#7 v=76
157567 On ch=1 n=g7 v=90
157572 On ch=1 n=a#3 v=60
157577 On ch=1 n=a#4 v=61
157582 On ch=1 n=e4 v=75
157582 Par ch=1 c=64 v=56
157592 Par ch=1 c=64 v=0
157622 Par ch=1 c=64 v=40
157637 Par ch=1 c=64 v=88
157647 On ch=1 n=e4 v=0
157647 On ch=1 n=a#3 v=0
157652 Par ch=1 c=64 v=127
157662 On ch=1 n=g7 v=0
157672 On ch=1 n=c#7 v=0
157672 On ch=1 n=c#8 v=0
157682 On ch=1 n=a#4 v=0
157817 On ch=1 n=c#7 v=85
157817 On ch=1 n=c#8 v=87
157817 On ch=1 n=f4 v=74
157817 On ch=1 n=b4 v=67
157822 On ch=1 n=g#7 v=77
157827 On ch=1 n=b3 v=58
157847 On ch=1 n=g#7 v=0
157852 On ch=1 n=c#7 v=0
157857 On ch=1 n=b4 v=0
157857 On ch=1 n=c#8 v=0
157867 On ch=1 n=b3 v=0
157872 On ch=1 n=f4 v=0
157902 On ch=1 n=c#7 v=74
157902 On ch=1 n=c#8 v=76
157907 On ch=1 n=g#7 v=86
157912 Par ch=1 c=64 v=56
157922 On ch=1 n=f4 v=74
157922 On ch=1 n=b4 v=61
157927 Par ch=1 c=64 v=0
157932 On ch=1 n=b3 v=41
157937 Par ch=1 c=64 v=24
157952 Par ch=1 c=64 v=56
157967 Par ch=1 c=64 v=104
157972 On ch=1 n=f4 v=0
157977 On ch=1 n=b4 v=0
157982 On ch=1 n=b3 v=0
157982 Par ch=1 c=64 v=127
157997 On ch=1 n=c#7 v=0
158007 On ch=1 n=g#7 v=0
158012 On ch=1 n=c#8 v=0
158182 On ch=1 n=c#8 v=83
158182 On ch=1 n=c#7 v=77
158182 On ch=1 n=g7 v=81
158182 On ch=1 n=a#3 v=75
158187 On ch=1 n=e4 v=74
158197 On ch=1 n=e3 v=63
158207 On ch=1 n=g7 v=0
158212 On ch=1 n=e4 v=0
158212 On ch=1 n=c#8 v=0
158222 On ch=1 n=e3 v=0
158222 On ch=1 n=c#7 v=0
158232 On ch=1 n=a#3 v=0
158262 On ch=1 n=c#7 v=81
158262 On ch=1 n=c#8 v=86
158267 On ch=1 n=g7 v=84
158267 Par ch=1 c=64 v=56
158277 On ch=1 n=a#3 v=69
158277 On ch=1 n=e4 v=67
158277 On ch=1 n=e3 v=60
158282 Par ch=1 c=64 v=0
158327 Par ch=1 c=64 v=56
158342 On ch=1 n=a#3 v=0
158342 Par ch=1 c=64 v=104
158357 On ch=1 n=e3 v=0
158357 Par ch=1 c=64 v=127
158367 On ch=1 n=g7 v=0
158382 On ch=1 n=c#8 v=0
158387 On ch=1 n=c#7 v=0
158402 On ch=1 n=e4 v=0
158522 On ch=1 n=c#8 v=85
158522 On ch=1 n=b3 v=78
158522 On ch=1 n=c#7 v=85
158522 On ch=1 n=f4 v=72
158522 On ch=1 n=g#7 v=77
158527 On ch=1 n=f3 v=64
158547 On ch=1 n=g#7 v=0
158557 On ch=1 n=f3 v=0
158562 On ch=1 n=f4 v=0
158562 On ch=1 n=c#7 v=0
158562 On ch=1 n=c#8 v=0
158577 On ch=1 n=b3 v=0
158612 Par ch=1 c=64 v=56
158622 On ch=1 n=c#8 v=86
158627 On ch=1 n=c#7 v=91
158627 Par ch=1 c=64 v=0
158632 On ch=1 n=g#7 v=93
158632 On ch=1 n=b3 v=66
158642 On ch=1 n=f4 v=74
158647 On ch=1 n=f3 v=64
158692 On ch=1 n=c#8 v=0
158697 On ch=1 n=f4 v=0
158702 On ch=1 n=b3 v=0
158702 On ch=1 n=g#7 v=0
158712 On ch=1 n=f3 v=0
158712 On ch=1 n=c#7 v=0
158712 Par ch=1 c=64 v=88
158727 Par ch=1 c=64 v=127
158942 Par ch=1 c=64 v=72
158957 Par ch=1 c=64 v=24
158972 On ch=1 n=c#3 v=77
158972 On ch=1 n=c#4 v=90
158972 Par ch=1 c=64 v=0
158977 On ch=1 n=c#5 v=75
159012 On ch=1 n=c#4 v=0
159017 On ch=1 n=c#3 v=0
159052 On ch=1 n=c#5 v=0
159082 On ch=1 n=c5 v=97
159092 On ch=1 n=c4 v=86
159097 On ch=1 n=c3 v=63
159127 On ch=1 n=c3 v=0
159127 On ch=1 n=c4 v=0
159157 On ch=1 n=c5 v=0
159192 On ch=1 n=b4 v=89
159202 On ch=1 n=b3 v=90
159227 On ch=1 n=b2 v=59
159247 On ch=1 n=b3 v=0
159262 On ch=1 n=b2 v=0
159267 On ch=1 n=b4 v=0
159372 On ch=1 n=a#4 v=87
159382 On ch=1 n=a#3 v=97
159387 On ch=1 n=a#2 v=100
159462 Par ch=1 c=64 v=127
159627 On ch=1 n=a#4 v=0
159632 On ch=1 n=a#3 v=0
159642 On ch=1 n=a#2 v=0
159752 On ch=1 n=c#7 v=88
159752 On ch=1 n=c#6 v=86
159757 On ch=1 n=g6 v=87
159762 On ch=1 n=a#5 v=71
159762 On ch=1 n=a#4 v=58
159762 On ch=1 n=e5 v=76
159812 On ch=1 n=g6 v=0
159812 On ch=1 n=c#6 v=0
159817 On ch=1 n=a#4 v=0
159817 On ch=1 n=a#5 v=0
159822 On ch=1 n=e5 v=0
159852 On ch=1 n=c#7 v=0
160057 On ch=1 n=a#5 v=77
160062 On ch=1 n=d6 v=85
160062 On ch=1 n=f5 v=75
160062 On ch=1 n=d7 v=88
160062 On ch=1 n=a#4 v=64
160062 On ch=1 n=g#6 v=73
160082 On ch=1 n=f5 v=0
160092 On ch=1 n=g#6 v=0
160092 On ch=1 n=d7 v=0
160097 On ch=1 n=d6 v=0
160097 On ch=1 n=a#5 v=0
160102 On ch=1 n=a#4 v=0
160132 On ch=1 n=d7 v=96
160137 On ch=1 n=d6 v=99
160142 On ch=1 n=g#6 v=73
160147 On ch=1 n=a#5 v=72
160147 On ch=1 n=a#4 v=64
160152 On ch=1 n=f5 v=70
160182 Par ch=1 c=64 v=88
160197 Par ch=1 c=64 v=0
160367 Par ch=1 c=64 v=72
160382 Par ch=1 c=64 v=127
160407 On ch=1 n=d6 v=0
160417 On ch=1 n=a#4 v=0
160427 On ch=1 n=f5 v=0
160427 On ch=1 n=a#5 v=0
160427 On ch=1 n=g#6 v=0
160442 On ch=1 n=d7 v=0
160997 On ch=1 n=g5 v=65
160997 On ch=1 n=e7 v=85
160997 On ch=1 n=c#5 v=55
161002 On ch=1 n=e6 v=79
161002 On ch=1 n=g4 v=66
161012 On ch=1 n=a#6 v=46
161032 On ch=1 n=g4 v=0
161032 On ch=1 n=e7 v=0
161037 On ch=1 n=a#6 v=0
161037 On ch=1 n=e6 v=0
161037 On ch=1 n=g5 v=0
161047 On ch=1 n=c#5 v=0
161077 On ch=1 n=e6 v=92
161077 On ch=1 n=e7 v=102
161082 On ch=1 n=a#6 v=60
161082 On ch=1 n=g5 v=68
161087 Par ch=1 c=64 v=88
161092 On ch=1 n=c#5 v=70
161097 On ch=1 n=g4 v=50
161097 Par ch=1 c=64 v=24
161112 Par ch=1 c=64 v=0
161122 On ch=1 n=g4 v=0
161142 On ch=1 n=a#6 v=0
161147 On ch=1 n=c#5 v=0
161152 On ch=1 n=e6 v=0
161157 Par ch=1 c=64 v=56
161162 On ch=1 n=g5 v=0
161172 Par ch=1 c=64 v=127
161187 On ch=1 n=e7 v=0
161322 On ch=1 n=g#5 v=64
161322 On ch=1 n=f7 v=86
161322 On ch=1 n=f6 v=83
161322 On ch=1 n=g#4 v=60
161327 On ch=1 n=a#6 v=60
161327 On ch=1 n=d5 v=63
161347 On ch=1 n=f7 v=0
161352 On ch=1 n=a#6 v=0
161352 On ch=1 n=f6 v=0
161357 On ch=1 n=d5 v=0
161357 On ch=1 n=g#4 v=0
161357 On ch=1 n=g#5 v=0
161372 Par ch=1 c=64 v=72
161387 Par ch=1 c=64 v=24
161397 On ch=1 n=f6 v=87
161397 On ch=1 n=f7 v=93
161402 On ch=1 n=g#5 v=71
161402 On ch=1 n=a#6 v=62
161402 On ch=1 n=g#4 v=71
161402 On ch=1 n=d5 v=60
161402 Par ch=1 c=64 v=40
161417 Par ch=1 c=64 v=72
161427 Par ch=1 c=64 v=127
161447 On ch=1 n=d5 v=0
161457 On ch=1 n=a#6 v=0
161457 On ch=1 n=f6 v=0
161467 On ch=1 n=g#5 v=0
161472 On ch=1 n=g#4 v=0
161497 On ch=1 n=f7 v=0
161617 On ch=1 n=a#4 v=57
161622 On ch=1 n=e5 v=65
161627 On ch=1 n=g7 v=87
161627 On ch=1 n=g6 v=84
161627 On ch=1 n=e4 v=60
161647 On ch=1 n=e5 v=0
161647 On ch=1 n=a#4 v=0
161647 On ch=1 n=c#7 v=27
161657 On ch=1 n=e4 v=0
161657 On ch=1 n=g6 v=0
161672 On ch=1 n=c#7 v=0
161672 On ch=1 n=g7 v=0
161702 On ch=1 n=g7 v=83
161702 On ch=1 n=g6 v=88
161707 On ch=1 n=c#7 v=79
161712 On ch=1 n=e4 v=57
161717 On ch=1 n=e5 v=59
161722 On ch=1 n=a#4 v=60
161722 Par ch=1 c=64 v=72
161732 Par ch=1 c=64 v=40
161747 Par ch=1 c=64 v=56
161762 On ch=1 n=e4 v=0
161762 Par ch=1 c=64 v=88
161767 On ch=1 n=a#4 v=0
161772 On ch=1 n=g6 v=0
161777 Par ch=1 c=64 v=127
161782 On ch=1 n=e5 v=0
161792 On ch=1 n=c#7 v=0
161792 On ch=1 n=g7 v=0
161937 On ch=1 n=g#6 v=84
161942 On ch=1 n=g#7 v=85
161947 On ch=1 n=a#4 v=61
161947 On ch=1 n=f4 v=68
161947 On ch=1 n=f5 v=60
161967 On ch=1 n=d7 v=36
161972 On ch=1 n=f4 v=0
161982 On ch=1 n=f5 v=0
161982 On ch=1 n=g#7 v=0
161982 On ch=1 n=g#6 v=0
161987 On ch=1 n=a#4 v=0
161992 On ch=1 n=d7 v=0
162017 Par ch=1 c=64 v=88
162027 On ch=1 n=g#7 v=92
162032 On ch=1 n=g#6 v=88
162032 Par ch=1 c=64 v=40
162037 On ch=1 n=d7 v=85
162042 On ch=1 n=f4 v=64
162042 On ch=1 n=f5 v=62
162042 On ch=1 n=a#4 v=63
162047 Par ch=1 c=64 v=56
162062 Par ch=1 c=64 v=104
162077 On ch=1 n=g#6 v=0
162077 Par ch=1 c=64 v=127
162082 On ch=1 n=f5 v=0
162092 On ch=1 n=d7 v=0
162097 On ch=1 n=a#4 v=0
162107 On ch=1 n=f4 v=0
162117 On ch=1 n=g#7 v=0
162282 On ch=1 n=c#8 v=95
162282 On ch=1 n=c#7 v=84
162287 On ch=1 n=g7 v=87
162287 On ch=1 n=a#4 v=72
162292 On ch=1 n=a#3 v=76
162292 On ch=1 n=e4 v=79
162307 Par ch=1 c=64 v=104
162312 On ch=1 n=g7 v=0
162317 On ch=1 n=e4 v=0
162317 On ch=1 n=c#7 v=0
162322 On ch=1 n=a#3 v=0
162322 Par ch=1 c=64 v=40
162327 On ch=1 n=c#8 v=0
162337 On ch=1 n=a#4 v=0
162337 Par ch=1 c=64 v=0
162347 Par ch=1 c=64 v=40
162362 Par ch=1 c=64 v=88
162367 On ch=1 n=c#8 v=87
162372 On ch=1 n=c#7 v=73
162377 On ch=1 n=g7 v=83
162377 On ch=1 n=a#3 v=63
162377 Par ch=1 c=64 v=127
162382 On ch=1 n=a#4 v=46
162387 On ch=1 n=e4 v=64
162417 On ch=1 n=e4 v=0
162447 On ch=1 n=g7 v=0
162462 On ch=1 n=a#3 v=0
162482 On ch=1 n=c#7 v=0
162487 On ch=1 n=c#8 v=0
162502 On ch=1 n=a#4 v=0
162592 On ch=1 n=f4 v=85
162592 On ch=1 n=a#4 v=73
162592 On ch=1 n=a#3 v=73
162597 On ch=1 n=d8 v=88
162602 On ch=1 n=d7 v=85
162602 On ch=1 n=g#7 v=73
162607 Par ch=1 c=64 v=72
162622 On ch=1 n=d7 v=0
162622 On ch=1 n=d8 v=0
162627 On ch=1 n=g#7 v=0
162627 Par ch=1 c=64 v=0
162637 On ch=1 n=a#4 v=0
162647 On ch=1 n=a#3 v=0
162647 On ch=1 n=f4 v=0
162652 Par ch=1 c=64 v=40
162667 Par ch=1 c=64 v=104
162682 On ch=1 n=g#7 v=71
162682 On ch=1 n=d7 v=93
162682 On ch=1 n=d8 v=89
162682 Par ch=1 c=64 v=127
162687 On ch=1 n=a#3 v=74
162687 On ch=1 n=a#4 v=63
162692 On ch=1 n=f4 v=78
162742 On ch=1 n=a#4 v=0
162747 On ch=1 n=f4 v=0
162762 On ch=1 n=a#3 v=0
162762 On ch=1 n=d8 v=0
162772 On ch=1 n=d7 v=0
162772 On ch=1 n=g#7 v=0
162957 On ch=1 n=e4 v=79
162957 On ch=1 n=c#8 v=93
162957 On ch=1 n=c#7 v=84
162962 On ch=1 n=a#3 v=71
162962 On ch=1 n=g7 v=87
162962 On ch=1 n=e3 v=68
162992 On ch=1 n=a#3 v=0
162997 On ch=1 n=c#8 v=0
163002 On ch=1 n=c#7 v=0
163002 On ch=1 n=e4 v=0
163007 On ch=1 n=e3 v=0
163007 On ch=1 n=g7 v=0
163062 On ch=1 n=c#8 v=99
163062 On ch=1 n=c#7 v=86
163067 On ch=1 n=g7 v=86
163072 Par ch=1 c=64 v=104
163077 On ch=1 n=e4 v=84
163077 On ch=1 n=a#3 v=85
163077 On ch=1 n=e3 v=68
163082 Par ch=1 c=64 v=0
163122 On ch=1 n=a#3 v=0
163132 On ch=1 n=e3 v=0
163137 On ch=1 n=e4 v=0
163137 Par ch=1 c=64 v=72
163152 On ch=1 n=g7 v=0
163152 On ch=1 n=c#7 v=0
163157 Par ch=1 c=64 v=127
163177 On ch=1 n=c#8 v=0
163377 On ch=1 n=f4 v=86
163377 On ch=1 n=a#3 v=80
163377 On ch=1 n=f3 v=76
163387 On ch=1 n=d8 v=103
163392 On ch=1 n=d7 v=94
163392 On ch=1 n=g#7 v=86
163402 On ch=1 n=e4 v=34
163422 On ch=1 n=a#3 v=0
163422 On ch=1 n=f4 v=0
163427 On ch=1 n=e4 v=0
163432 On ch=1 n=f3 v=0
163437 On ch=1 n=g#7 v=0
163442 On ch=1 n=d7 v=0
163447 On ch=1 n=d8 v=0
163522 On ch=1 n=d8 v=102
163527 On ch=1 n=d7 v=105
163527 On ch=1 n=g#7 v=89
163537 On ch=1 n=a#3 v=84
163537 On ch=1 n=f4 v=87
163542 On ch=1 n=f3 v=81
163542 Par ch=1 c=64 v=0
163657 Par ch=1 c=64 v=72
163672 Par ch=1 c=64 v=127
163702 On ch=1 n=f3 v=0
163712 On ch=1 n=f4 v=0
163712 On ch=1 n=g#7 v=0
163712 On ch=1 n=d7 v=0
163717 On ch=1 n=a#3 v=0
163727 On ch=1 n=d8 v=0
164232 Par ch=1 c=64 v=104
164247 Par ch=1 c=64 v=72
164262 Par ch=1 c=64 v=24
164277 Par ch=1 c=64 v=0
164552 On ch=1 n=a5 v=74
164552 On ch=1 n=a4 v=60
164552 On ch=1 n=a2 v=68
164552 On ch=1 n=a3 v=68
164577 Par ch=1 c=64 v=40
164582 On ch=1 n=a2 v=0
164592 Par ch=1 c=64 v=88
164597 On ch=1 n=a4 v=0
164602 Par ch=1 c=64 v=127
164607 On ch=1 n=a3 v=0
164612 On ch=1 n=a5 v=0
164722 Par ch=1 c=64 v=88
164732 Par ch=1 c=64 v=24
164742 Par ch=1 c=64 v=0
164757 On ch=1 n=a#5 v=75
164757 On ch=1 n=a#4 v=68
164762 On ch=1 n=a#3 v=62
164767 On ch=1 n=a#2 v=63
164777 Par ch=1 c=64 v=24
164787 On ch=1 n=a#2 v=0
164792 Par ch=1 c=64 v=40
164802 On ch=1 n=a#4 v=0
164802 Par ch=1 c=64 v=72
164812 On ch=1 n=a#3 v=0
164812 Par ch=1 c=64 v=88
164827 Par ch=1 c=64 v=127
164837 On ch=1 n=a#5 v=0
164897 Par ch=1 c=64 v=88
164907 Par ch=1 c=64 v=40
164917 Par ch=1 c=64 v=0
164952 On ch=1 n=c6 v=76
164957 On ch=1 n=c5 v=68
164957 On ch=1 n=c3 v=63
164957 On ch=1 n=c4 v=63
164962 Par ch=1 c=64 v=40
164987 On ch=1 n=c4 v=0
164987 On ch=1 n=c3 v=0
164987 Par ch=1 c=64 v=72
164997 Par ch=1 c=64 v=88
165007 On ch=1 n=c5 v=0
165012 On ch=1 n=c6 v=0
165012 Par ch=1 c=64 v=104
165042 Par ch=1 c=64 v=127
165082 Par ch=1 c=64 v=40
165092 Par ch=1 c=64 v=0
165142 On ch=1 n=d5 v=69
165147 On ch=1 n=d6 v=77
165162 On ch=1 n=d4 v=64
165162 On ch=1 n=d3 v=63
165162 Par ch=1 c=64 v=40
165172 Par ch=1 c=64 v=72
165187 Par ch=1 c=64 v=88
165192 On ch=1 n=d3 v=0
165192 On ch=1 n=d5 v=0
165197 On ch=1 n=d6 v=0
165197 Par ch=1 c=64 v=104
165202 On ch=1 n=d4 v=0
165252 Par ch=1 c=64 v=56
165267 Par ch=1 c=64 v=0
165327 On ch=1 n=d#5 v=62
165327 Par ch=1 c=64 v=24
165332 On ch=1 n=d#6 v=78
165337 Par ch=1 c=64 v=56
165342 On ch=1 n=d#4 v=70
165342 On ch=1 n=d#3 v=65
165347 Par ch=1 c=64 v=72
165362 Par ch=1 c=64 v=88
165367 On ch=1 n=d#3 v=0
165372 Par ch=1 c=64 v=104
165377 On ch=1 n=d#5 v=0
165387 On ch=1 n=d#4 v=0
165397 On ch=1 n=d#6 v=0
165462 Par ch=1 c=64 v=56
165477 Par ch=1 c=64 v=0
165522 On ch=1 n=f6 v=80
165522 On ch=1 n=f5 v=71
165532 On ch=1 n=f3 v=66
165537 On ch=1 n=f4 v=66
165542 Par ch=1 c=64 v=56
165557 Par ch=1 c=64 v=72
165567 Par ch=1 c=64 v=88
165577 On ch=1 n=f3 v=0
165577 On ch=1 n=f5 v=0
165582 On ch=1 n=f4 v=0
165582 Par ch=1 c=64 v=104
165597 On ch=1 n=f6 v=0
165652 Par ch=1 c=64 v=72
165662 Par ch=1 c=64 v=40
165672 Par ch=1 c=64 v=0
165707 Par ch=1 c=64 v=24
165717 On ch=1 n=g6 v=82
165717 On ch=1 n=g5 v=70
165722 On ch=1 n=g4 v=68
165722 On ch=1 n=g3 v=66
165722 Par ch=1 c=64 v=56
165732 Par ch=1 c=64 v=72
165742 Par ch=1 c=64 v=104
165752 On ch=1 n=g3 v=0
165762 On ch=1 n=g5 v=0
165767 On ch=1 n=g4 v=0
165777 On ch=1 n=g6 v=0
165787 Par ch=1 c=64 v=127
165822 Par ch=1 c=64 v=88
165837 Par ch=1 c=64 v=56
165847 Par ch=1 c=64 v=0
165897 On ch=1 n=g#6 v=84
165897 On ch=1 n=g#5 v=71
165907 On ch=1 n=g#3 v=69
165907 On ch=1 n=g#4 v=68
165917 Par ch=1 c=64 v=40
165927 Par ch=1 c=64 v=72
165932 On ch=1 n=g#3 v=0
165942 Par ch=1 c=64 v=88
165952 On ch=1 n=g#4 v=0
165952 On ch=1 n=g#5 v=0
165952 Par ch=1 c=64 v=104
165967 On ch=1 n=g#6 v=0
166022 Par ch=1 c=64 v=40
166032 Par ch=1 c=64 v=0
166092 On ch=1 n=a#6 v=85
166092 On ch=1 n=a#5 v=72
166092 On ch=1 n=a#3 v=71
166092 Par ch=1 c=64 v=24
166097 On ch=1 n=a#4 v=71
166102 Par ch=1 c=64 v=72
166117 Par ch=1 c=64 v=88
166127 Par ch=1 c=64 v=104
166132 On ch=1 n=a#3 v=0
166137 On ch=1 n=a#4 v=0
166137 Par ch=1 c=64 v=127
166142 On ch=1 n=a#5 v=0
166177 On ch=1 n=a#6 v=0
166207 Par ch=1 c=64 v=56
166217 Par ch=1 c=64 v=0
166277 On ch=1 n=c6 v=84
166277 On ch=1 n=c7 v=87
166277 On ch=1 n=c4 v=78
166277 On ch=1 n=c5 v=74
166277 Par ch=1 c=64 v=24
166287 Par ch=1 c=64 v=56
166302 Par ch=1 c=64 v=88
166312 Par ch=1 c=64 v=127
166317 On ch=1 n=c4 v=0
166322 On ch=1 n=c5 v=0
166322 On ch=1 n=c6 v=0
166332 On ch=1 n=c7 v=0
166467 On ch=1 n=d5 v=70
166467 On ch=1 n=d6 v=85
166467 On ch=1 n=d7 v=89
166472 On ch=1 n=d4 v=75
166512 On ch=1 n=d4 v=0
166517 On ch=1 n=d6 v=0
166517 On ch=1 n=d5 v=0
166527 On ch=1 n=d7 v=0
166602 Par ch=1 c=64 v=88
166612 Par ch=1 c=64 v=56
166627 Par ch=1 c=64 v=0
166667 On ch=1 n=d#7 v=94
166672 On ch=1 n=d#6 v=87
166677 On ch=1 n=a#4 v=69
166677 On ch=1 n=d#5 v=71
166682 On ch=1 n=a#6 v=69
166682 On ch=1 n=d#4 v=78
166682 On ch=1 n=g6 v=79
166692 On ch=1 n=g4 v=64
166707 Par ch=1 c=64 v=56
166717 On ch=1 n=g6 v=0
166717 On ch=1 n=a#6 v=0
166717 On ch=1 n=d#7 v=0
166722 On ch=1 n=d#5 v=0
166722 On ch=1 n=a#4 v=0
166722 On ch=1 n=d#6 v=0
166722 Par ch=1 c=64 v=127
166727 On ch=1 n=g4 v=0
166732 On ch=1 n=d#4 v=0
166882 On ch=1 n=a#6 v=83
166882 On ch=1 n=a#5 v=77
166887 On ch=1 n=a#4 v=63
166892 On ch=1 n=a#3 v=65
166927 On ch=1 n=a#3 v=0
166927 On ch=1 n=a#4 v=0
166927 On ch=1 n=a#5 v=0
166927 On ch=1 n=a#6 v=0
167077 On ch=1 n=g6 v=84
167077 On ch=1 n=g5 v=77
167087 On ch=1 n=g4 v=63
167092 On ch=1 n=g3 v=65
167107 On ch=1 n=g4 v=0
167117 On ch=1 n=g6 v=0
167127 On ch=1 n=g3 v=0
167127 On ch=1 n=g5 v=0
167272 On ch=1 n=d#5 v=69
167277 On ch=1 n=d#6 v=84
167277 On ch=1 n=d#3 v=70
167282 On ch=1 n=d#4 v=65
167307 On ch=1 n=d#4 v=0
167307 On ch=1 n=d#3 v=0
167312 On ch=1 n=d#5 v=0
167322 On ch=1 n=d#6 v=0
167402 Par ch=1 c=64 v=104
167417 Par ch=1 c=64 v=88
167427 Par ch=1 c=64 v=40
167437 Par ch=1 c=64 v=0
167467 On ch=1 n=g6 v=80
167467 On ch=1 n=g5 v=74
167467 On ch=1 n=g4 v=63
167467 On ch=1 n=g3 v=63
167487 Par ch=1 c=64 v=24
167497 Par ch=1 c=64 v=56
167502 On ch=1 n=g4 v=0
167502 On ch=1 n=g5 v=0
167507 On ch=1 n=g3 v=0
167512 On ch=1 n=g6 v=0
167512 Par ch=1 c=64 v=104
167522 Par ch=1 c=64 v=127
167662 On ch=1 n=a#6 v=80
167662 On ch=1 n=a#5 v=76
167662 On ch=1 n=a#4 v=62
167667 On ch=1 n=a#3 v=67
167687 On ch=1 n=a#3 v=0
167692 On ch=1 n=a#5 v=0
167702 On ch=1 n=a#4 v=0
167712 On ch=1 n=a#6 v=0
167777 Par ch=1 c=64 v=88
167787 Par ch=1 c=64 v=56
167802 Par ch=1 c=64 v=24
167812 Par ch=1 c=64 v=0
167877 On ch=1 n=d#7 v=94
167877 On ch=1 n=d#6 v=82
167877 On ch=1 n=g#6 v=76
167877 On ch=1 n=b6 v=82
167877 On ch=1 n=d#4 v=72
167877 On ch=1 n=d#5 v=70
167877 On ch=1 n=b4 v=70
167892 On ch=1 n=g#4 v=71
167902 Par ch=1 c=64 v=40
167912 On ch=1 n=d#5 v=0
167917 Par ch=1 c=64 v=104
167922 On ch=1 n=b4 v=0
167927 On ch=1 n=b6 v=0
167927 On ch=1 n=g#6 v=0
167927 On ch=1 n=d#6 v=0
167927 Par ch=1 c=64 v=127
167932 On ch=1 n=d#4 v=0
167937 On ch=1 n=g#4 v=0
167942 On ch=1 n=d#7 v=0
168092 On ch=1 n=b6 v=86
168092 On ch=1 n=b3 v=66
168092 On ch=1 n=b4 v=65
168092 On ch=1 n=b5 v=74
168132 On ch=1 n=b5 v=0
168137 On ch=1 n=b4 v=0
168137 On ch=1 n=b3 v=0
168142 On ch=1 n=b6 v=0
168282 On ch=1 n=g#5 v=74
168282 On ch=1 n=g#6 v=84
168282 On ch=1 n=g#4 v=65
168282 On ch=1 n=g#3 v=64
168302 On ch=1 n=g#4 v=0
168307 On ch=1 n=g#3 v=0
168327 On ch=1 n=g#6 v=0
168327 On ch=1 n=g#5 v=0
168472 On ch=1 n=d#6 v=76
168472 On ch=1 n=d#5 v=67
168472 On ch=1 n=d#4 v=64
168472 On ch=1 n=d#3 v=66
168507 On ch=1 n=d#4 v=0
168512 On ch=1 n=d#3 v=0
168512 On ch=1 n=d#5 v=0
168517 On ch=1 n=d#6 v=0
168652 On ch=1 n=g#4 v=71
168652 On ch=1 n=g#3 v=70
168652 On ch=1 n=g#6 v=74
168657 On ch=1 n=g#5 v=65
168692 On ch=1 n=g#3 v=0
168692 On ch=1 n=g#4 v=0
168697 On ch=1 n=g#5 v=0
168702 On ch=1 n=g#6 v=0
168852 On ch=1 n=b5 v=66
168857 On ch=1 n=b6 v=83
168862 On ch=1 n=b3 v=66
168867 On ch=1 n=b4 v=63
168877 On ch=1 n=b5 v=0
168882 On ch=1 n=b3 v=0
168902 On ch=1 n=b4 v=0
168902 On ch=1 n=b6 v=0
168972 Par ch=1 c=64 v=104
168987 Par ch=1 c=64 v=72
168997 Par ch=1 c=64 v=40
169007 Par ch=1 c=64 v=0
169057 On ch=1 n=d#7 v=94
169057 On ch=1 n=d#6 v=84
169057 On ch=1 n=d#5 v=72
169057 On ch=1 n=a#4 v=65
169057 On ch=1 n=d#4 v=68
169057 On ch=1 n=a#6 v=67
169077 On ch=1 n=g6 v=64
169082 On ch=1 n=a#6 v=0
169092 On ch=1 n=a#4 v=0
169097 On ch=1 n=d#5 v=0
169102 Par ch=1 c=64 v=88
169107 On ch=1 n=g6 v=0
169107 On ch=1 n=d#4 v=0
169107 On ch=1 n=d#6 v=0
169112 On ch=1 n=d#7 v=0
169112 Par ch=1 c=64 v=127
169252 On ch=1 n=a#6 v=85
169252 On ch=1 n=a#4 v=65
169252 On ch=1 n=a#3 v=62
169252 On ch=1 n=a#5 v=76
169292 On ch=1 n=a#5 v=0
169292 On ch=1 n=a#3 v=0
169302 On ch=1 n=a#4 v=0
169302 On ch=1 n=a#6 v=0
169447 On ch=1 n=g6 v=81
169447 On ch=1 n=g5 v=71
169447 On ch=1 n=g4 v=68
169447 On ch=1 n=g3 v=71
169477 On ch=1 n=g3 v=0
169477 On ch=1 n=g4 v=0
169487 On ch=1 n=g5 v=0
169497 On ch=1 n=g6 v=0
169632 On ch=1 n=d#6 v=78
169632 On ch=1 n=d#4 v=69
169632 On ch=1 n=d#3 v=68
169632 On ch=1 n=d#5 v=67
169672 On ch=1 n=d#5 v=0
169677 On ch=1 n=d#3 v=0
169677 On ch=1 n=d#4 v=0
169712 On ch=1 n=d#6 v=0
169817 On ch=1 n=g6 v=83
169817 On ch=1 n=g3 v=68
169817 On ch=1 n=g4 v=69
169817 On ch=1 n=g5 v=72
169837 On ch=1 n=g3 v=0
169842 On ch=1 n=g4 v=0
169847 On ch=1 n=g5 v=0
169867 On ch=1 n=g6 v=0
169952 Par ch=1 c=64 v=104
169962 Par ch=1 c=64 v=72
169972 Par ch=1 c=64 v=24
169987 Par ch=1 c=64 v=0
170007 On ch=1 n=a#6 v=79
170007 On ch=1 n=a#5 v=69
170007 On ch=1 n=a#4 v=67
170007 On ch=1 n=a#3 v=70
170012 Par ch=1 c=64 v=72
170032 Par ch=1 c=64 v=104
170042 On ch=1 n=a#3 v=0
170042 Par ch=1 c=64 v=127
170047 On ch=1 n=a#5 v=0
170052 On ch=1 n=a#4 v=0
170062 On ch=1 n=a#6 v=0
170197 On ch=1 n=d#7 v=77
170197 On ch=1 n=d#4 v=73
170197 On ch=1 n=d#5 v=77
170197 On ch=1 n=d#6 v=69
170237 On ch=1 n=d#5 v=0
170237 On ch=1 n=d#4 v=0
170242 On ch=1 n=d#6 v=0
170247 On ch=1 n=d#7 v=0
170342 Par ch=1 c=64 v=72
170357 Par ch=1 c=64 v=24
170367 Par ch=1 c=64 v=0
170377 On ch=1 n=g7 v=92
170377 On ch=1 n=g4 v=71
170377 On ch=1 n=g5 v=67
170377 On ch=1 n=g6 v=82
170407 On ch=1 n=g5 v=0
170407 On ch=1 n=g4 v=0
170422 On ch=1 n=g6 v=0
170427 On ch=1 n=g7 v=0
170427 Par ch=1 c=64 v=72
170437 Par ch=1 c=64 v=127
170572 On ch=1 n=d7 v=83
170572 On ch=1 n=d6 v=77
170572 On ch=1 n=d4 v=69
170572 On ch=1 n=d5 v=68
170602 On ch=1 n=d4 v=0
170607 On ch=1 n=d5 v=0
170612 On ch=1 n=d6 v=0
170617 On ch=1 n=d7 v=0
170727 Par ch=1 c=64 v=88
170742 Par ch=1 c=64 v=40
170752 Par ch=1 c=64 v=0
170757 On ch=1 n=f7 v=88
170762 On ch=1 n=f6 v=82
170762 On ch=1 n=f5 v=64
170777 On ch=1 n=f4 v=58
170787 Par ch=1 c=64 v=24
170797 Par ch=1 c=64 v=72
170812 On ch=1 n=f4 v=0
170812 On ch=1 n=f5 v=0
170812 On ch=1 n=f6 v=0
170812 Par ch=1 c=64 v=127
170827 On ch=1 n=f7 v=0
170942 On ch=1 n=d#7 v=83
170942 On ch=1 n=d#4 v=76
170942 On ch=1 n=d#5 v=71
170942 On ch=1 n=d#6 v=77
170977 On ch=1 n=d#6 v=0
170977 On ch=1 n=d#5 v=0
170982 On ch=1 n=d#4 v=0
170987 On ch=1 n=d#7 v=0
171097 Par ch=1 c=64 v=104
171107 Par ch=1 c=64 v=72
171122 Par ch=1 c=64 v=40
171132 On ch=1 n=c7 v=84
171132 On ch=1 n=c5 v=70
171132 On ch=1 n=c6 v=74
171132 On ch=1 n=c4 v=71
171157 Par ch=1 c=64 v=88
171167 On ch=1 n=c6 v=0
171167 On ch=1 n=c5 v=0
171167 On ch=1 n=c7 v=0
171167 Par ch=1 c=64 v=127
171177 On ch=1 n=c4 v=0
171277 Par ch=1 c=64 v=88
171287 Par ch=1 c=64 v=40
171297 Par ch=1 c=64 v=0
171322 On ch=1 n=a#6 v=94
171322 On ch=1 n=f4 v=73
171322 On ch=1 n=a#3 v=72
171322 On ch=1 n=d6 v=71
171322 On ch=1 n=d4 v=71
171322 On ch=1 n=a#5 v=75
171322 On ch=1 n=a#4 v=71
171342 On ch=1 n=f6 v=68
171342 Par ch=1 c=64 v=24
171352 Par ch=1 c=64 v=88
171357 On ch=1 n=d4 v=0
171357 On ch=1 n=d6 v=0
171357 On ch=1 n=f4 v=0
171362 On ch=1 n=f6 v=0
171367 On ch=1 n=a#4 v=0
171367 Par ch=1 c=64 v=127
171372 On ch=1 n=a#5 v=0
171377 On ch=1 n=a#3 v=0
171377 On ch=1 n=a#6 v=0
171527 On ch=1 n=f6 v=84
171527 On ch=1 n=f3 v=74
171527 On ch=1 n=f5 v=70
171527 On ch=1 n=f4 v=71
171557 On ch=1 n=f4 v=0
171557 On ch=1 n=f5 v=0
171572 On ch=1 n=f3 v=0
171572 On ch=1 n=f6 v=0
171692 Par ch=1 c=64 v=72
171702 Par ch=1 c=64 v=24
171717 Par ch=1 c=64 v=0
171722 On ch=1 n=d6 v=83
171722 On ch=1 n=d5 v=73
171722 On ch=1 n=d4 v=75
171722 On ch=1 n=d3 v=73
171752 Par ch=1 c=64 v=24
171762 Par ch=1 c=64 v=56
171772 On ch=1 n=d3 v=0
171772 On ch=1 n=d4 v=0
171777 On ch=1 n=d5 v=0
171777 Par ch=1 c=64 v=104
171782 On ch=1 n=d6 v=0
171787 Par ch=1 c=64 v=127
171867 Par ch=1 c=64 v=88
171877 Par ch=1 c=64 v=40
171892 Par ch=1 c=64 v=0
171912 On ch=1 n=a#5 v=83
171912 On ch=1 n=a#3 v=71
171912 On ch=1 n=a#4 v=72
171912 On ch=1 n=a#2 v=71
171927 Par ch=1 c=64 v=40
171937 Par ch=1 c=64 v=88
171947 On ch=1 n=a#2 v=0
171947 Par ch=1 c=64 v=127
171952 On ch=1 n=a#4 v=0
171952 On ch=1 n=a#3 v=0
172002 On ch=1 n=a#5 v=0
172022 Par ch=1 c=64 v=72
172042 Par ch=1 c=64 v=24
172052 Par ch=1 c=64 v=0
172102 On ch=1 n=d5 v=72
172102 On ch=1 n=d6 v=82
172102 On ch=1 n=d4 v=70
172102 On ch=1 n=d3 v=72
172102 Par ch=1 c=64 v=24
172112 Par ch=1 c=64 v=88
172122 Par ch=1 c=64 v=127
172137 On ch=1 n=d4 v=0
172142 On ch=1 n=d3 v=0
172147 On ch=1 n=d5 v=0
172152 On ch=1 n=d6 v=0
172292 On ch=1 n=f6 v=85
172292 On ch=1 n=f5 v=73
172292 On ch=1 n=f3 v=73
172292 On ch=1 n=f4 v=71
172317 On ch=1 n=f3 v=0
172317 On ch=1 n=f5 v=0
172337 On ch=1 n=f6 v=0
172347 On ch=1 n=f4 v=0
172432 Par ch=1 c=64 v=104
172447 Par ch=1 c=64 v=40
172457 Par ch=1 c=64 v=0
172487 On ch=1 n=a#6 v=95
172487 On ch=1 n=a#5 v=87
172487 On ch=1 n=d#4 v=69
172487 On ch=1 n=f#6 v=71
172487 On ch=1 n=a#3 v=71
172487 On ch=1 n=f#4 v=69
172487 On ch=1 n=a#4 v=74
172492 On ch=1 n=d#6 v=70
172512 On ch=1 n=d#6 v=0
172517 On ch=1 n=d#4 v=0
172522 On ch=1 n=f#6 v=0
172527 Par ch=1 c=64 v=88
172532 On ch=1 n=f#4 v=0
172537 On ch=1 n=a#4 v=0
172537 On ch=1 n=a#5 v=0
172542 Par ch=1 c=64 v=127
172547 On ch=1 n=a#3 v=0
172552 On ch=1 n=a#6 v=0
172667 Par ch=1 c=64 v=88
172682 On ch=1 n=f#5 v=73
172682 On ch=1 n=f#6 v=83
172682 On ch=1 n=f#4 v=67
172682 On ch=1 n=f#3 v=70
172682 Par ch=1 c=64 v=72
172692 Par ch=1 c=64 v=88
172702 Par ch=1 c=64 v=127
172727 On ch=1 n=f#4 v=0
172732 On ch=1 n=f#3 v=0
172737 On ch=1 n=f#5 v=0
172757 On ch=1 n=f#6 v=0
172842 Par ch=1 c=64 v=72
172857 Par ch=1 c=64 v=24
172862 On ch=1 n=d#6 v=79
172862 On ch=1 n=d#4 v=70
172862 On ch=1 n=d#5 v=69
172862 On ch=1 n=d#3 v=70
172867 Par ch=1 c=64 v=0
172877 Par ch=1 c=64 v=24
172892 On ch=1 n=d#4 v=0
172892 Par ch=1 c=64 v=56
172902 On ch=1 n=d#5 v=0
172902 Par ch=1 c=64 v=104
172912 On ch=1 n=d#3 v=0
172912 Par ch=1 c=64 v=127
172917 On ch=1 n=d#6 v=0
173007 Par ch=1 c=64 v=88
173017 Par ch=1 c=64 v=24
173027 Par ch=1 c=64 v=0
173047 On ch=1 n=a#5 v=78
173047 On ch=1 n=a#4 v=71
173047 On ch=1 n=a#3 v=71
173047 On ch=1 n=a#2 v=70
173077 Par ch=1 c=64 v=40
173087 On ch=1 n=a#2 v=0
173087 On ch=1 n=a#4 v=0
173087 Par ch=1 c=64 v=88
173092 On ch=1 n=a#3 v=0
173097 On ch=1 n=a#5 v=0
173097 Par ch=1 c=64 v=127
173222 On ch=1 n=d#6 v=80
173222 On ch=1 n=d#5 v=69
173222 On ch=1 n=d#4 v=72
173222 On ch=1 n=d#3 v=69
173262 On ch=1 n=d#3 v=0
173262 On ch=1 n=d#5 v=0
173267 On ch=1 n=d#4 v=0
173277 On ch=1 n=d#6 v=0
173402 On ch=1 n=f#3 v=73
173402 On ch=1 n=f#4 v=70
173402 On ch=1 n=f#5 v=70
173402 On ch=1 n=f#6 v=80
173437 On ch=1 n=f#3 v=0
173442 On ch=1 n=f#5 v=0
173442 On ch=1 n=f#4 v=0
173447 On ch=1 n=f#6 v=0
173517 Par ch=1 c=64 v=88
173527 Par ch=1 c=64 v=40
173542 Par ch=1 c=64 v=0
173587 On ch=1 n=a#6 v=94
173587 On ch=1 n=a#5 v=73
173587 On ch=1 n=a#3 v=72
173587 On ch=1 n=d6 v=68
173587 On ch=1 n=f4 v=64
173587 On ch=1 n=a#4 v=72
173587 On ch=1 n=d4 v=72
173587 On ch=1 n=f6 v=70
173612 On ch=1 n=f6 v=0
173612 On ch=1 n=d4 v=0
173612 On ch=1 n=f4 v=0
173617 On ch=1 n=d6 v=0
173622 Par ch=1 c=64 v=24
173627 On ch=1 n=a#4 v=0
173637 On ch=1 n=a#5 v=0
173637 Par ch=1 c=64 v=104
173642 On ch=1 n=a#3 v=0
173647 On ch=1 n=a#6 v=0
173647 Par ch=1 c=64 v=127
173787 On ch=1 n=f6 v=83
173787 On ch=1 n=f5 v=73
173787 On ch=1 n=f3 v=71
173787 On ch=1 n=f4 v=69
173822 On ch=1 n=f5 v=0
173827 On ch=1 n=f4 v=0
173832 On ch=1 n=f3 v=0
173837 On ch=1 n=f6 v=0
173982 On ch=1 n=d6 v=82
173982 On ch=1 n=d4 v=72
173982 On ch=1 n=d3 v=70
173982 On ch=1 n=d5 v=67
174012 On ch=1 n=d3 v=0
174017 On ch=1 n=d5 v=0
174032 On ch=1 n=d4 v=0
174032 On ch=1 n=d6 v=0
174152 On ch=1 n=a#5 v=81
174152 On ch=1 n=a#2 v=73
174152 On ch=1 n=a#3 v=70
174152 On ch=1 n=a#4 v=71
174167 On ch=1 n=a#2 v=0
174172 On ch=1 n=a#3 v=0
174177 On ch=1 n=a#4 v=0
174222 On ch=1 n=a#5 v=0
174332 On ch=1 n=d5 v=74
174332 On ch=1 n=d6 v=82
174332 On ch=1 n=d3 v=69
174332 On ch=1 n=d4 v=69
174357 On ch=1 n=d4 v=0
174357 On ch=1 n=d3 v=0
174367 On ch=1 n=d5 v=0
174372 On ch=1 n=d6 v=0
174512 On ch=1 n=f6 v=83
174512 On ch=1 n=f4 v=73
174512 On ch=1 n=f5 v=72
174512 On ch=1 n=f3 v=70
174542 On ch=1 n=f5 v=0
174547 On ch=1 n=f3 v=0
174547 On ch=1 n=f4 v=0
174552 On ch=1 n=f6 v=0
174667 Par ch=1 c=64 v=88
174677 Par ch=1 c=64 v=24
174692 Par ch=1 c=64 v=0
174697 On ch=1 n=a#6 v=81
174697 On ch=1 n=a#5 v=77
174697 On ch=1 n=a#3 v=72
174697 On ch=1 n=a#4 v=71
174752 Par ch=1 c=64 v=40
174762 Par ch=1 c=64 v=88
174772 Par ch=1 c=64 v=127
174782 On ch=1 n=a#3 v=0
174787 On ch=1 n=a#4 v=0
174807 On ch=1 n=a#5 v=0
174817 On ch=1 n=a#6 v=0
174872 On ch=1 n=b5 v=75
174872 On ch=1 n=b6 v=84
174872 On ch=1 n=b4 v=74
174872 On ch=1 n=b3 v=73
174927 On ch=1 n=b3 v=0
174927 On ch=1 n=b5 v=0
174932 On ch=1 n=b4 v=0
174942 On ch=1 n=b6 v=0
175047 On ch=1 n=c6 v=80
175047 On ch=1 n=c7 v=84
175047 On ch=1 n=c4 v=74
175047 On ch=1 n=c5 v=71
175082 On ch=1 n=c4 v=0
175097 On ch=1 n=c6 v=0
175107 On ch=1 n=c5 v=0
175112 On ch=1 n=c7 v=0
175167 Par ch=1 c=64 v=72
175177 Par ch=1 c=64 v=24
175192 Par ch=1 c=64 v=0
175212 On ch=1 n=c#7 v=83
175212 On ch=1 n=c#6 v=74
175212 On ch=1 n=c#4 v=70
175212 On ch=1 n=c#5 v=70
175227 Par ch=1 c=64 v=24
175237 Par ch=1 c=64 v=56
175247 Par ch=1 c=64 v=88
175262 Par ch=1 c=64 v=127
175277 On ch=1 n=c#5 v=0
175277 On ch=1 n=c#4 v=0
175277 On ch=1 n=c#6 v=0
175302 On ch=1 n=c#7 v=0
175357 On ch=1 n=d7 v=87
175357 On ch=1 n=d6 v=79
175357 On ch=1 n=d4 v=72
175357 On ch=1 n=d5 v=72
175397 On ch=1 n=d4 v=0
175402 On ch=1 n=d5 v=0
175402 On ch=1 n=d6 v=0
175412 On ch=1 n=d7 v=0
175422 Par ch=1 c=64 v=88
175432 Par ch=1 c=64 v=40
175447 Par ch=1 c=64 v=24
175482 Par ch=1 c=64 v=56
175487 On ch=1 n=d#7 v=84
175487 On ch=1 n=d#6 v=80
175487 On ch=1 n=d#4 v=71
175487 On ch=1 n=d#5 v=71
175492 Par ch=1 c=64 v=88
175502 Par ch=1 c=64 v=104
175517 Par ch=1 c=64 v=127
175537 On ch=1 n=d#5 v=0
175547 On ch=1 n=d#4 v=0
175547 On ch=1 n=d#6 v=0
175562 On ch=1 n=d#7 v=0
175612 On ch=1 n=e7 v=88
175612 On ch=1 n=e5 v=74
175612 On ch=1 n=e4 v=73
175612 On ch=1 n=e6 v=80
175642 On ch=1 n=e4 v=0
175657 On ch=1 n=e6 v=0
175667 On ch=1 n=e5 v=0
175667 On ch=1 n=e7 v=0
175732 Par ch=1 c=64 v=72
175742 Par ch=1 c=64 v=0
175772 On ch=1 n=f7 v=95
175772 On ch=1 n=c7 v=67
175772 On ch=1 n=f5 v=74
175772 On ch=1 n=g#4 v=61
175772 On ch=1 n=f6 v=82
175772 On ch=1 n=g#6 v=74
175782 On ch=1 n=c5 v=63
175787 On ch=1 n=f4 v=60
175797 On ch=1 n=f5 v=0
175802 On ch=1 n=c5 v=0
175802 On ch=1 n=c7 v=0
175812 On ch=1 n=f4 v=0
175817 On ch=1 n=g#4 v=0
175817 On ch=1 n=f7 v=0
175817 Par ch=1 c=64 v=88
175822 On ch=1 n=g#6 v=0
175822 On ch=1 n=f6 v=0
175832 Par ch=1 c=64 v=127
175947 Par ch=1 c=64 v=72
175957 Par ch=1 c=64 v=40
175977 On ch=1 n=c7 v=82
175977 On ch=1 n=c6 v=74
175977 On ch=1 n=c5 v=71
175977 On ch=1 n=c4 v=72
175992 Par ch=1 c=64 v=88
176002 Par ch=1 c=64 v=127
176007 On ch=1 n=c4 v=0
176007 On ch=1 n=c6 v=0
176022 On ch=1 n=c5 v=0
176022 On ch=1 n=c7 v=0
176157 On ch=1 n=g#6 v=79
176157 On ch=1 n=g#3 v=72
176157 On ch=1 n=g#4 v=70
176157 On ch=1 n=g#5 v=70
176182 On ch=1 n=g#5 v=0
176182 On ch=1 n=g#3 v=0
176197 On ch=1 n=g#6 v=0
176202 On ch=1 n=g#4 v=0
176317 Par ch=1 c=64 v=104
176332 Par ch=1 c=64 v=56
176342 On ch=1 n=f6 v=81
176342 On ch=1 n=f4 v=71
176342 On ch=1 n=f3 v=72
176342 On ch=1 n=f5 v=70
176342 Par ch=1 c=64 v=24
176352 Par ch=1 c=64 v=0
176367 Par ch=1 c=64 v=24
176372 On ch=1 n=f3 v=0
176377 On ch=1 n=f5 v=0
176377 Par ch=1 c=64 v=56
176382 On ch=1 n=f4 v=0
176387 Par ch=1 c=64 v=88
176392 On ch=1 n=f6 v=0
176397 Par ch=1 c=64 v=127
176512 On ch=1 n=g#6 v=80
176512 On ch=1 n=g#5 v=73
176512 On ch=1 n=g#3 v=70
176512 On ch=1 n=g#4 v=67
176542 On ch=1 n=g#4 v=0
176547 On ch=1 n=g#3 v=0
176557 On ch=1 n=g#5 v=0
176572 On ch=1 n=g#6 v=0
176702 On ch=1 n=c7 v=85
176702 On ch=1 n=c6 v=74
176702 On ch=1 n=c5 v=72
176702 On ch=1 n=c4 v=71
176722 On ch=1 n=c4 v=0
176727 On ch=1 n=c6 v=0
176747 On ch=1 n=c7 v=0
176752 On ch=1 n=c5 v=0
176867 Par ch=1 c=64 v=72
176877 Par ch=1 c=64 v=0
176907 On ch=1 n=f7 v=95
176907 On ch=1 n=c#7 v=72
176907 On ch=1 n=a#6 v=72
176907 On ch=1 n=a#4 v=68
176907 On ch=1 n=f4 v=73
176907 On ch=1 n=f5 v=74
176907 On ch=1 n=c#5 v=72
176907 On ch=1 n=f6 v=84
176942 On ch=1 n=f7 v=0
176952 On ch=1 n=f6 v=0
176952 On ch=1 n=c#5 v=0
176952 On ch=1 n=f5 v=0
176952 On ch=1 n=a#6 v=0
176952 On ch=1 n=c#7 v=0
176957 On ch=1 n=f4 v=0
176957 On ch=1 n=a#4 v=0
176957 Par ch=1 c=64 v=88
176967 Par ch=1 c=64 v=127
177097 On ch=1 n=c#7 v=83
177097 On ch=1 n=c#4 v=75
177097 On ch=1 n=c#6 v=75
177097 On ch=1 n=c#5 v=73
177097 Par ch=1 c=64 v=104
177132 On ch=1 n=c#4 v=0
177132 Par ch=1 c=64 v=127
177137 On ch=1 n=c#5 v=0
177152 On ch=1 n=c#6 v=0
177167 On ch=1 n=c#7 v=0
177282 On ch=1 n=a#6 v=82
177282 On ch=1 n=a#5 v=78
177282 On ch=1 n=a#3 v=73
177282 On ch=1 n=a#4 v=75
177302 On ch=1 n=a#3 v=0
177317 On ch=1 n=a#4 v=0
177327 On ch=1 n=a#5 v=0
177337 On ch=1 n=a#6 v=0
177442 Par ch=1 c=64 v=56
177457 Par ch=1 c=64 v=0
177462 On ch=1 n=f6 v=83
177462 On ch=1 n=f5 v=75
177462 On ch=1 n=f4 v=71
177462 On ch=1 n=f3 v=71
177507 On ch=1 n=f3 v=0
177507 On ch=1 n=f4 v=0
177507 On ch=1 n=f5 v=0
177517 Par ch=1 c=64 v=56
177522 On ch=1 n=f6 v=0
177527 Par ch=1 c=64 v=104
177537 Par ch=1 c=64 v=127
177617 Par ch=1 c=64 v=72
177632 Par ch=1 c=64 v=40
177637 On ch=1 n=a#6 v=80
177637 On ch=1 n=a#5 v=71
177637 On ch=1 n=a#3 v=71
177637 On ch=1 n=a#4 v=72
177667 Par ch=1 c=64 v=72
177677 On ch=1 n=a#3 v=0
177677 On ch=1 n=a#5 v=0
177677 Par ch=1 c=64 v=88
177682 On ch=1 n=a#4 v=0
177692 Par ch=1 c=64 v=127
177702 On ch=1 n=a#6 v=0
177812 On ch=1 n=c#5 v=74
177812 On ch=1 n=c#7 v=80
177812 On ch=1 n=c#4 v=73
177812 On ch=1 n=c#6 v=70
177842 On ch=1 n=c#4 v=0
177857 On ch=1 n=c#6 v=0
177862 On ch=1 n=c#7 v=0
177862 On ch=1 n=c#5 v=0
177967 Par ch=1 c=64 v=72
177982 Par ch=1 c=64 v=0
178002 On ch=1 n=f7 v=96
178002 On ch=1 n=f6 v=81
178002 On ch=1 n=f4 v=73
178002 On ch=1 n=c5 v=70
178002 On ch=1 n=g#4 v=71
178002 On ch=1 n=f5 v=72
178002 On ch=1 n=c7 v=81
178002 On ch=1 n=g#6 v=75
178032 On ch=1 n=f5 v=0
178037 On ch=1 n=c5 v=0
178037 Par ch=1 c=64 v=24
178042 On ch=1 n=c7 v=0
178042 On ch=1 n=f4 v=0
178042 Par ch=1 c=64 v=104
178047 On ch=1 n=g#4 v=0
178052 On ch=1 n=g#6 v=0
178052 On ch=1 n=f6 v=0
178052 On ch=1 n=f7 v=0
178062 Par ch=1 c=64 v=127
178202 On ch=1 n=c7 v=80
178202 On ch=1 n=c4 v=71
178202 On ch=1 n=c5 v=70
178207 On ch=1 n=c6 v=77
178247 On ch=1 n=c6 v=0
178247 On ch=1 n=c5 v=0
178247 On ch=1 n=c4 v=0
178257 On ch=1 n=c7 v=0
178387 On ch=1 n=g#6 v=80
178387 On ch=1 n=g#3 v=73
178387 On ch=1 n=g#4 v=70
178387 On ch=1 n=g#5 v=72
178427 On ch=1 n=g#5 v=0
178427 On ch=1 n=g#4 v=0
178427 On ch=1 n=g#3 v=0
178442 On ch=1 n=g#6 v=0
178527 Par ch=1 c=64 v=56
178537 Par ch=1 c=64 v=0
178577 On ch=1 n=f6 v=80
178577 On ch=1 n=f5 v=73
178577 On ch=1 n=f3 v=72
178577 On ch=1 n=f4 v=72
178612 On ch=1 n=f5 v=0
178617 Par ch=1 c=64 v=56
178622 On ch=1 n=f4 v=0
178622 On ch=1 n=f3 v=0
178622 On ch=1 n=f6 v=0
178632 Par ch=1 c=64 v=104
178642 Par ch=1 c=64 v=127
178742 On ch=1 n=g#6 v=82
178742 On ch=1 n=g#3 v=71
178742 On ch=1 n=g#5 v=74
178742 On ch=1 n=g#4 v=73
178762 On ch=1 n=g#3 v=0
178782 On ch=1 n=g#4 v=0
178782 On ch=1 n=g#5 v=0
178802 On ch=1 n=g#6 v=0
178947 On ch=1 n=c6 v=79
178947 On ch=1 n=c7 v=84
178947 On ch=1 n=c4 v=73
178947 On ch=1 n=c5 v=71
178977 On ch=1 n=c6 v=0
178982 On ch=1 n=c4 v=0
178987 On ch=1 n=c5 v=0
179002 On ch=1 n=c7 v=0
179072 Par ch=1 c=64 v=104
179082 Par ch=1 c=64 v=40
179092 Par ch=1 c=64 v=0
179142 On ch=1 n=f7 v=88
179142 On ch=1 n=f4 v=72
179142 On ch=1 n=f5 v=70
179142 On ch=1 n=f6 v=85
179187 Par ch=1 c=64 v=56
179197 On ch=1 n=f5 v=0
179197 Par ch=1 c=64 v=104
179202 On ch=1 n=f4 v=0
179207 On ch=1 n=f6 v=0
179212 Par ch=1 c=64 v=127
179222 On ch=1 n=f7 v=0
179287 Par ch=1 c=64 v=72
179307 Par ch=1 c=64 v=24
179317 Par ch=1 c=64 v=0
179322 On ch=1 n=e7 v=87
179322 On ch=1 n=e4 v=73
179322 On ch=1 n=e5 v=72
179327 On ch=1 n=e6 v=75
179347 Par ch=1 c=64 v=40
179362 Par ch=1 c=64 v=72
179372 Par ch=1 c=64 v=104
179377 On ch=1 n=e5 v=0
179377 On ch=1 n=e4 v=0
179382 On ch=1 n=e6 v=0
179387 Par ch=1 c=64 v=127
179407 On ch=1 n=e7 v=0
179457 Par ch=1 c=64 v=104
179467 Par ch=1 c=64 v=56
179477 Par ch=1 c=64 v=0
179497 On ch=1 n=f7 v=89
179497 On ch=1 n=f6 v=87
179497 On ch=1 n=f5 v=74
179497 On ch=1 n=f4 v=72
179527 Par ch=1 c=64 v=40
179532 On ch=1 n=f4 v=0
179537 Par ch=1 c=64 v=72
179552 On ch=1 n=f6 v=0
179552 Par ch=1 c=64 v=127
179567 On ch=1 n=f7 v=0
179577 On ch=1 n=f5 v=0
179652 Par ch=1 c=64 v=72
179667 Par ch=1 c=64 v=24
179677 Par ch=1 c=64 v=0
179692 On ch=1 n=g#5 v=72
179692 On ch=1 n=g#7 v=91
179692 On ch=1 n=g#4 v=74
179692 On ch=1 n=g#6 v=85
179722 Par ch=1 c=64 v=56
179732 Par ch=1 c=64 v=88
179747 Par ch=1 c=64 v=127
179782 On ch=1 n=g#5 v=0
179787 On ch=1 n=g#6 v=0
179792 On ch=1 n=g#7 v=0
179797 On ch=1 n=g#4 v=0
179827 Par ch=1 c=64 v=104
179842 Par ch=1 c=64 v=56
179847 Par ch=1 c=64 v=0
179872 On ch=1 n=g7 v=88
179872 On ch=1 n=g6 v=78
179872 On ch=1 n=g5 v=73
179872 On ch=1 n=g4 v=74
179897 Par ch=1 c=64 v=40
179907 On ch=1 n=g4 v=0
179907 Par ch=1 c=64 v=72
179922 On ch=1 n=g5 v=0
179922 Par ch=1 c=64 v=104
179932 On ch=1 n=g6 v=0
179932 Par ch=1 c=64 v=127
179937 On ch=1 n=g7 v=0
180057 On ch=1 n=f7 v=85
180057 On ch=1 n=f4 v=70
180057 On ch=1 n=f5 v=70
180057 On ch=1 n=f6 v=79
180102 On ch=1 n=f4 v=0
180112 On ch=1 n=f7 v=0
180122 On ch=1 n=f6 v=0
180122 On ch=1 n=f5 v=0
180197 Par ch=1 c=64 v=104
180212 Par ch=1 c=64 v=72
180222 Par ch=1 c=64 v=24
180232 Par ch=1 c=64 v=0
180252 On ch=1 n=d#7 v=94
180252 On ch=1 n=d#5 v=71
180252 On ch=1 n=g#4 v=69
180252 On ch=1 n=c5 v=74
180252 On ch=1 n=d#4 v=74
180252 On ch=1 n=g#6 v=70
180252 On ch=1 n=c7 v=71
180252 On ch=1 n=d#6 v=78
180277 On ch=1 n=c5 v=0
180277 On ch=1 n=g#4 v=0
180282 On ch=1 n=c7 v=0
180282 On ch=1 n=g#6 v=0
180282 On ch=1 n=d#4 v=0
180282 Par ch=1 c=64 v=24
180292 Par ch=1 c=64 v=88
180297 On ch=1 n=d#6 v=0
180297 On ch=1 n=d#5 v=0
180307 On ch=1 n=d#7 v=0
180307 Par ch=1 c=64 v=127
180432 Par ch=1 c=64 v=104
180442 Par ch=1 c=64 v=56
180457 On ch=1 n=c7 v=84
180457 On ch=1 n=c5 v=71
180457 On ch=1 n=c4 v=72
180457 On ch=1 n=c6 v=82
180457 Par ch=1 c=64 v=24
180487 On ch=1 n=c5 v=0
180492 Par ch=1 c=64 v=88
180497 On ch=1 n=c6 v=0
180502 On ch=1 n=c4 v=0
180502 Par ch=1 c=64 v=127
180507 On ch=1 n=c7 v=0
180632 On ch=1 n=g#5 v=72
180632 On ch=1 n=g#6 v=83
180632 On ch=1 n=g#3 v=72
180632 On ch=1 n=g#4 v=73
180672 On ch=1 n=g#3 v=0
180677 On ch=1 n=g#4 v=0
180687 On ch=1 n=g#6 v=0
180692 On ch=1 n=g#5 v=0
180807 On ch=1 n=d#6 v=80
180807 On ch=1 n=d#5 v=72
180807 On ch=1 n=d#3 v=73
180807 On ch=1 n=d#4 v=70
180842 On ch=1 n=d#4 v=0
180842 On ch=1 n=d#3 v=0
180842 On ch=1 n=d#5 v=0
180852 On ch=1 n=d#6 v=0
180982 On ch=1 n=g#6 v=74
180982 On ch=1 n=g#4 v=71
180982 On ch=1 n=g#3 v=72
180982 On ch=1 n=g#5 v=73
181012 On ch=1 n=g#5 v=0
181012 On ch=1 n=g#3 v=0
181012 On ch=1 n=g#4 v=0
181017 On ch=1 n=g#6 v=0
181172 On ch=1 n=c6 v=81
181172 On ch=1 n=c7 v=82
181172 On ch=1 n=c4 v=72
181172 On ch=1 n=c5 v=73
181207 On ch=1 n=c4 v=0
181217 On ch=1 n=c6 v=0
181222 On ch=1 n=c7 v=0
181227 On ch=1 n=c5 v=0
181302 Par ch=1 c=64 v=88
181317 Par ch=1 c=64 v=24
181327 Par ch=1 c=64 v=0
181362 On ch=1 n=d#7 v=95
181362 On ch=1 n=d#6 v=88
181362 On ch=1 n=a#6 v=76
181362 On ch=1 n=a#4 v=71
181362 On ch=1 n=d#4 v=74
181362 On ch=1 n=g6 v=73
181362 On ch=1 n=g4 v=71
181362 On ch=1 n=d#5 v=77
181392 On ch=1 n=g4 v=0
181392 On ch=1 n=g6 v=0
181392 On ch=1 n=a#4 v=0
181397 On ch=1 n=a#6 v=0
181397 Par ch=1 c=64 v=40
181402 On ch=1 n=d#5 v=0
181407 Par ch=1 c=64 v=104
181412 On ch=1 n=d#6 v=0
181412 On ch=1 n=d#7 v=0
181417 On ch=1 n=d#4 v=0
181422 Par ch=1 c=64 v=127
181552 On ch=1 n=a#6 v=80
181552 On ch=1 n=a#3 v=75
181552 On ch=1 n=a#5 v=71
181552 On ch=1 n=a#4 v=71
181592 On ch=1 n=a#3 v=0
181602 On ch=1 n=a#4 v=0
181602 On ch=1 n=a#5 v=0
181612 On ch=1 n=a#6 v=0
181722 Par ch=1 c=64 v=88
181732 Par ch=1 c=64 v=56
181747 On ch=1 n=g6 v=80
181747 On ch=1 n=g4 v=73
181747 On ch=1 n=g3 v=74
181747 Par ch=1 c=64 v=40
181752 On ch=1 n=g5 v=71
181777 On ch=1 n=g4 v=0
181777 Par ch=1 c=64 v=88
181787 Par ch=1 c=64 v=127
181797 On ch=1 n=g5 v=0
181797 On ch=1 n=g3 v=0
181802 On ch=1 n=g6 v=0
181927 On ch=1 n=d#6 v=80
181927 On ch=1 n=d#3 v=73
181927 On ch=1 n=d#5 v=71
181932 On ch=1 n=d#4 v=70
181962 On ch=1 n=d#4 v=0
181967 On ch=1 n=d#5 v=0
181972 On ch=1 n=d#6 v=0
181982 On ch=1 n=d#3 v=0
182112 On ch=1 n=g5 v=75
182112 On ch=1 n=g6 v=84
182112 On ch=1 n=g4 v=71
182112 On ch=1 n=g3 v=74
182137 On ch=1 n=g3 v=0
182147 On ch=1 n=g4 v=0
182152 On ch=1 n=g5 v=0
182157 On ch=1 n=g6 v=0
182292 On ch=1 n=a#6 v=83
182292 On ch=1 n=a#4 v=74
182292 On ch=1 n=a#3 v=76
182292 On ch=1 n=a#5 v=76
182317 On ch=1 n=a#5 v=0
182322 On ch=1 n=a#3 v=0
182332 On ch=1 n=a#4 v=0
182342 On ch=1 n=a#6 v=0
182447 Par ch=1 c=64 v=104
182457 Par ch=1 c=64 v=40
182472 Par ch=1 c=64 v=0
182492 On ch=1 n=d#7 v=95
182492 On ch=1 n=c7 v=74
182492 On ch=1 n=g#4 v=72
182492 On ch=1 n=g#6 v=70
182492 On ch=1 n=d#6 v=82
182492 On ch=1 n=d#5 v=75
182502 On ch=1 n=c5 v=75
182507 On ch=1 n=d#4 v=72
182522 On ch=1 n=c5 v=0
182522 On ch=1 n=g#4 v=0
182522 On ch=1 n=c7 v=0
182537 On ch=1 n=g#6 v=0
182547 On ch=1 n=d#5 v=0
182547 On ch=1 n=d#6 v=0
182547 Par ch=1 c=64 v=40
182557 On ch=1 n=d#4 v=0
182557 On ch=1 n=d#7 v=0
182557 Par ch=1 c=64 v=104
182572 Par ch=1 c=64 v=127
182662 Par ch=1 c=64 v=88
182672 Par ch=1 c=64 v=24
182687 Par ch=1 c=64 v=0
182697 On ch=1 n=c7 v=82
182697 On ch=1 n=c5 v=70
182697 On ch=1 n=c4 v=73
182697 On ch=1 n=c6 v=77
182732 On ch=1 n=c5 v=0
182732 Par ch=1 c=64 v=24
182737 On ch=1 n=c6 v=0
182742 On ch=1 n=c4 v=0
182747 Par ch=1 c=64 v=72
182752 On ch=1 n=c7 v=0
182757 Par ch=1 c=64 v=127
182827 Par ch=1 c=64 v=104
182837 Par ch=1 c=64 v=40
182847 Par ch=1 c=64 v=0
182872 On ch=1 n=g#6 v=81
182872 On ch=1 n=g#5 v=75
182872 On ch=1 n=g#3 v=71
182872 On ch=1 n=g#4 v=73
182897 Par ch=1 c=64 v=40
182907 Par ch=1 c=64 v=88
182912 On ch=1 n=g#4 v=0
182912 On ch=1 n=g#3 v=0
182917 Par ch=1 c=64 v=127
182932 On ch=1 n=g#5 v=0
182932 On ch=1 n=g#6 v=0
183047 On ch=1 n=d#6 v=83
183047 On ch=1 n=d#3 v=72
183047 On ch=1 n=d#4 v=71
183047 On ch=1 n=d#5 v=74
183082 On ch=1 n=d#5 v=0
183082 On ch=1 n=d#3 v=0
183087 On ch=1 n=d#4 v=0
183092 On ch=1 n=d#6 v=0
183222 On ch=1 n=g#6 v=81
183222 On ch=1 n=g#3 v=72
183222 On ch=1 n=g#4 v=72
183222 On ch=1 n=g#5 v=73
183252 On ch=1 n=g#3 v=0
183257 On ch=1 n=g#5 v=0
183257 On ch=1 n=g#6 v=0
183262 On ch=1 n=g#4 v=0
183422 On ch=1 n=c7 v=81
183422 On ch=1 n=c6 v=77
183422 On ch=1 n=c4 v=72
183422 On ch=1 n=c5 v=70
183452 On ch=1 n=c5 v=0
183452 On ch=1 n=c4 v=0
183452 On ch=1 n=c6 v=0
183472 On ch=1 n=c7 v=0
183557 Par ch=1 c=64 v=88
183572 Par ch=1 c=64 v=24
183582 Par ch=1 c=64 v=0
183597 On ch=1 n=d#7 v=86
183597 On ch=1 n=d#6 v=81
183597 On ch=1 n=d#4 v=75
183597 On ch=1 n=d#5 v=78
183627 Par ch=1 c=64 v=56
183632 On ch=1 n=d#6 v=0
183637 On ch=1 n=d#5 v=0
183637 On ch=1 n=d#4 v=0
183642 Par ch=1 c=64 v=127
183647 On ch=1 n=d#7 v=0
183787 Par ch=1 c=64 v=72
183792 On ch=1 n=c8 v=90
183792 On ch=1 n=c7 v=87
183792 On ch=1 n=c6 v=72
183792 On ch=1 n=c5 v=72
183802 Par ch=1 c=64 v=24
183812 Par ch=1 c=64 v=40
183822 On ch=1 n=c6 v=0
183822 Par ch=1 c=64 v=72
183832 On ch=1 n=c7 v=0
183837 Par ch=1 c=64 v=104
183842 On ch=1 n=c5 v=0
183842 On ch=1 n=c8 v=0
183847 Par ch=1 c=64 v=127
183962 Par ch=1 c=64 v=72
183977 Par ch=1 c=64 v=40
183987 On ch=1 n=g6 v=83
183987 On ch=1 n=g7 v=88
183987 On ch=1 n=g5 v=70
183987 On ch=1 n=g4 v=74
183987 Par ch=1 c=64 v=56
183997 Par ch=1 c=64 v=72
184012 Par ch=1 c=64 v=104
184022 Par ch=1 c=64 v=127
184027 On ch=1 n=g4 v=0
184027 On ch=1 n=g6 v=0
184037 On ch=1 n=g5 v=0
184037 On ch=1 n=g7 v=0
184117 Par ch=1 c=64 v=104
184127 Par ch=1 c=64 v=56
184142 Par ch=1 c=64 v=24
184172 On ch=1 n=a#4 v=72
184172 On ch=1 n=a#7 v=90
184172 On ch=1 n=a#6 v=74
184172 On ch=1 n=a#5 v=72
184172 Par ch=1 c=64 v=72
184187 Par ch=1 c=64 v=127
184217 On ch=1 n=a#4 v=0
184222 On ch=1 n=a#5 v=0
184227 On ch=1 n=a#6 v=0
184267 On ch=1 n=a#7 v=0
184352 On ch=1 n=g#6 v=80
184352 On ch=1 n=g#7 v=88
184352 On ch=1 n=g#4 v=74
184352 On ch=1 n=g#5 v=72
184382 On ch=1 n=g#4 v=0
184392 On ch=1 n=g#5 v=0
184392 On ch=1 n=g#7 v=0
184397 On ch=1 n=g#6 v=0
184532 Par ch=1 c=64 v=88
184542 On ch=1 n=f7 v=88
184542 On ch=1 n=f4 v=74
184542 On ch=1 n=f5 v=71
184542 On ch=1 n=f6 v=78
184547 Par ch=1 c=64 v=40
184557 Par ch=1 c=64 v=0
184577 On ch=1 n=f6 v=0
184577 On ch=1 n=f4 v=0
184587 On ch=1 n=f7 v=0
184592 On ch=1 n=f5 v=0
184592 Par ch=1 c=64 v=72
184602 Par ch=1 c=64 v=104
184612 Par ch=1 c=64 v=127
184697 Par ch=1 c=64 v=88
184707 Par ch=1 c=64 v=0
184727 On ch=1 n=d#7 v=94
184727 On ch=1 n=d#6 v=85
184727 On ch=1 n=g#6 v=71
184727 On ch=1 n=d#4 v=75
184727 On ch=1 n=c7 v=77
184727 On ch=1 n=c5 v=72
184727 On ch=1 n=d#5 v=72
184742 On ch=1 n=g#4 v=73
184757 On ch=1 n=c5 v=0
184762 On ch=1 n=c7 v=0
184767 On ch=1 n=g#4 v=0
184767 On ch=1 n=g#6 v=0
184772 On ch=1 n=d#4 v=0
184777 Par ch=1 c=64 v=72
184782 On ch=1 n=d#5 v=0
184787 On ch=1 n=d#6 v=0
184787 On ch=1 n=d#7 v=0
184787 Par ch=1 c=64 v=127
184892 Par ch=1 c=64 v=88
184907 Par ch=1 c=64 v=40
184917 Par ch=1 c=64 v=0
184927 On ch=1 n=c7 v=84
184927 On ch=1 n=c4 v=74
184927 On ch=1 n=c6 v=75
184927 On ch=1 n=c5 v=72
184952 Par ch=1 c=64 v=40
184962 On ch=1 n=c6 v=0
184962 On ch=1 n=c4 v=0
184962 Par ch=1 c=64 v=88
184967 On ch=1 n=c5 v=0
184977 Par ch=1 c=64 v=127
184982 On ch=1 n=c7 v=0
185107 On ch=1 n=g#6 v=82
185107 On ch=1 n=g#5 v=72
185107 On ch=1 n=g#3 v=71
185107 On ch=1 n=g#4 v=74
185137 On ch=1 n=g#4 v=0
185137 On ch=1 n=g#3 v=0
185157 On ch=1 n=g#5 v=0
185177 On ch=1 n=g#6 v=0
185282 On ch=1 n=d#6 v=80
185282 On ch=1 n=d#5 v=71
185282 On ch=1 n=d#3 v=72
185282 On ch=1 n=d#4 v=72
185312 On ch=1 n=d#4 v=0
185312 On ch=1 n=d#3 v=0
185312 On ch=1 n=d#5 v=0
185322 On ch=1 n=d#6 v=0
185452 On ch=1 n=g#3 v=73
185452 On ch=1 n=g#4 v=72
185457 On ch=1 n=g#6 v=79
185462 On ch=1 n=g#5 v=73
185482 On ch=1 n=g#3 v=0
185487 On ch=1 n=g#4 v=0
185492 On ch=1 n=g#6 v=0
185497 On ch=1 n=g#5 v=0
185642 On ch=1 n=c7 v=84
185642 On ch=1 n=c5 v=75
185642 On ch=1 n=c6 v=81
185642 On ch=1 n=c4 v=74
185677 On ch=1 n=c6 v=0
185682 On ch=1 n=c4 v=0
185687 On ch=1 n=c5 v=0
185692 On ch=1 n=c7 v=0
185787 Par ch=1 c=64 v=72
185802 Par ch=1 c=64 v=0
185822 On ch=1 n=d#6 v=87
185822 On ch=1 n=d#7 v=95
185827 On ch=1 n=d#5 v=74
185827 On ch=1 n=a#4 v=71
185827 On ch=1 n=a#6 v=74
185827 On ch=1 n=g4 v=72
185827 On ch=1 n=d#4 v=74
185827 On ch=1 n=g6 v=72
185862 On ch=1 n=g4 v=0
185867 On ch=1 n=g6 v=0
185867 On ch=1 n=a#6 v=0
185872 On ch=1 n=d#5 v=0
185872 Par ch=1 c=64 v=24
185877 On ch=1 n=a#4 v=0
185877 On ch=1 n=d#7 v=0
185877 On ch=1 n=d#6 v=0
185882 Par ch=1 c=64 v=88
185892 On ch=1 n=d#4 v=0
185892 Par ch=1 c=64 v=127
186012 On ch=1 n=a#6 v=81
186012 On ch=1 n=a#5 v=71
186012 On ch=1 n=a#4 v=71
186012 On ch=1 n=a#3 v=73
186042 On ch=1 n=a#3 v=0
186052 On ch=1 n=a#4 v=0
186057 On ch=1 n=a#5 v=0
186077 On ch=1 n=a#6 v=0
186182 Par ch=1 c=64 v=104
186197 Par ch=1 c=64 v=56
186207 On ch=1 n=g5 v=55
186207 Par ch=1 c=64 v=0
186212 On ch=1 n=g6 v=80
186212 On ch=1 n=g4 v=74
186212 On ch=1 n=g3 v=72
186242 Par ch=1 c=64 v=56
186252 On ch=1 n=g4 v=0
186257 On ch=1 n=g5 v=0
186257 Par ch=1 c=64 v=88
186262 On ch=1 n=g3 v=0
186262 On ch=1 n=g6 v=0
186267 Par ch=1 c=64 v=127
186382 On ch=1 n=d#6 v=80
186382 On ch=1 n=d#5 v=73
186382 On ch=1 n=d#3 v=73
186382 On ch=1 n=d#4 v=72
186417 On ch=1 n=d#3 v=0
186422 On ch=1 n=d#4 v=0
186432 On ch=1 n=d#5 v=0
186467 On ch=1 n=d#6 v=0
186547 Par ch=1 c=64 v=88
186557 Par ch=1 c=64 v=56
186562 On ch=1 n=g6 v=82
186562 On ch=1 n=g5 v=76
186562 On ch=1 n=g3 v=74
186562 On ch=1 n=g4 v=73
186567 Par ch=1 c=64 v=24
186597 On ch=1 n=g4 v=0
186602 On ch=1 n=g3 v=0
186602 On ch=1 n=g5 v=0
186602 Par ch=1 c=64 v=88
186612 Par ch=1 c=64 v=127
186617 On ch=1 n=g6 v=0
186737 On ch=1 n=a#6 v=83
186737 On ch=1 n=a#3 v=72
186737 On ch=1 n=a#4 v=72
186737 On ch=1 n=a#5 v=73
186777 On ch=1 n=a#5 v=0
186777 On ch=1 n=a#3 v=0
186787 On ch=1 n=a#4 v=0
186802 On ch=1 n=a#6 v=0
186907 Par ch=1 c=64 v=104
186912 Par ch=1 c=64 v=40
186927 Par ch=1 c=64 v=0
186957 On ch=1 n=d#7 v=93
186957 On ch=1 n=d#6 v=85
186957 On ch=1 n=g#6 v=73
186957 On ch=1 n=a#4 v=71
186957 On ch=1 n=b4 v=77
186957 On ch=1 n=g#4 v=73
186957 On ch=1 n=d#5 v=77
186957 On ch=1 n=d#4 v=75
186957 On ch=1 n=b6 v=81
186997 On ch=1 n=b4 v=0
187002 On ch=1 n=d#5 v=0
187007 On ch=1 n=b6 v=0
187007 Par ch=1 c=64 v=56
187012 On ch=1 n=g#4 v=0
187017 On ch=1 n=g#6 v=0
187017 On ch=1 n=d#6 v=0
187022 Par ch=1 c=64 v=127
187027 On ch=1 n=a#4 v=0
187032 On ch=1 n=d#4 v=0
187032 On ch=1 n=d#7 v=0
187162 On ch=1 n=b6 v=82
187162 On ch=1 n=b4 v=70
187162 On ch=1 n=b5 v=73
187162 On ch=1 n=b3 v=75
187202 On ch=1 n=b3 v=0
187207 On ch=1 n=b5 v=0
187212 On ch=1 n=b4 v=0
187232 On ch=1 n=b6 v=0
187337 On ch=1 n=g#6 v=81
187337 On ch=1 n=g#5 v=71
187337 On ch=1 n=g#4 v=71
187337 On ch=1 n=g#3 v=74
187377 On ch=1 n=g#3 v=0
187377 On ch=1 n=g#4 v=0
187387 On ch=1 n=g#5 v=0
187407 On ch=1 n=g#6 v=0
187507 On ch=1 n=d#6 v=80
187507 On ch=1 n=d#5 v=74
187507 On ch=1 n=d#3 v=70
187507 On ch=1 n=d#4 v=70
187537 On ch=1 n=d#4 v=0
187537 On ch=1 n=d#5 v=0
187542 On ch=1 n=d#3 v=0
187547 On ch=1 n=d#6 v=0
187692 On ch=1 n=g#6 v=81
187692 On ch=1 n=g#5 v=71
187692 On ch=1 n=g#3 v=74
187692 On ch=1 n=g#4 v=72
187732 On ch=1 n=g#4 v=0
187732 On ch=1 n=g#3 v=0
187732 On ch=1 n=g#5 v=0
187737 On ch=1 n=g#6 v=0
187872 On ch=1 n=b6 v=83
187872 On ch=1 n=b3 v=71
187872 On ch=1 n=b4 v=73
187872 On ch=1 n=b5 v=72
187902 On ch=1 n=b4 v=0
187907 On ch=1 n=b3 v=0
187912 On ch=1 n=b5 v=0
187922 On ch=1 n=b6 v=0
188052 On ch=1 n=d#7 v=83
188052 On ch=1 n=d#6 v=75
188052 On ch=1 n=d#4 v=72
188052 On ch=1 n=d#5 v=75
188072 On ch=1 n=d#4 v=0
188077 On ch=1 n=d#5 v=0
188092 On ch=1 n=d#6 v=0
188107 On ch=1 n=d#7 v=0
188232 Par ch=1 c=64 v=72
188242 Par ch=1 c=64 v=0
188247 On ch=1 n=b7 v=89
188247 On ch=1 n=b4 v=76
188247 On ch=1 n=b5 v=74
188247 On ch=1 n=b6 v=78
188287 On ch=1 n=b5 v=0
188292 On ch=1 n=b6 v=0
188297 On ch=1 n=b4 v=0
188297 Par ch=1 c=64 v=56
188307 On ch=1 n=b7 v=0
188312 Par ch=1 c=64 v=127
188427 On ch=1 n=g6 v=82
188427 On ch=1 n=g7 v=87
188427 On ch=1 n=g5 v=71
188427 On ch=1 n=g4 v=73
188467 On ch=1 n=g6 v=0
188477 On ch=1 n=g4 v=0
188477 On ch=1 n=g5 v=0
188492 On ch=1 n=g7 v=0
188602 Par ch=1 c=64 v=56
188612 Par ch=1 c=64 v=0
188617 On ch=1 n=a#7 v=91
188617 On ch=1 n=a#5 v=72
188617 On ch=1 n=a#6 v=74
188622 On ch=1 n=a#4 v=75
188647 Par ch=1 c=64 v=40
188662 On ch=1 n=a#5 v=0
188662 Par ch=1 c=64 v=88
188667 On ch=1 n=a#4 v=0
188672 Par ch=1 c=64 v=127
188677 On ch=1 n=a#6 v=0
188712 On ch=1 n=a#7 v=0
188792 On ch=1 n=g#7 v=89
188792 On ch=1 n=g#5 v=72
188792 On ch=1 n=g#4 v=74
188792 On ch=1 n=g#6 v=73
188832 On ch=1 n=g#5 v=0
188837 On ch=1 n=g#6 v=0
188847 On ch=1 n=g#4 v=0
188847 On ch=1 n=g#7 v=0
188977 On ch=1 n=f7 v=86
188977 On ch=1 n=f5 v=72
188977 On ch=1 n=f4 v=73
188977 On ch=1 n=f6 v=82
188982 Par ch=1 c=64 v=88
188997 Par ch=1 c=64 v=40
189007 On ch=1 n=f4 v=0
189007 Par ch=1 c=64 v=0
189022 On ch=1 n=f6 v=0
189027 On ch=1 n=f5 v=0
189042 Par ch=1 c=64 v=72
189052 On ch=1 n=f7 v=0
189052 Par ch=1 c=64 v=104
189067 Par ch=1 c=64 v=127
189137 Par ch=1 c=64 v=88
189147 Par ch=1 c=64 v=24
189157 Par ch=1 c=64 v=0
189172 On ch=1 n=f#7 v=94
189172 On ch=1 n=d#5 v=73
189172 On ch=1 n=f#6 v=86
189172 On ch=1 n=f#4 v=74
189172 On ch=1 n=b6 v=73
189172 On ch=1 n=b4 v=73
189172 On ch=1 n=d#7 v=73
189177 On ch=1 n=f#5 v=72
189207 On ch=1 n=b4 v=0
189207 On ch=1 n=b6 v=0
189217 On ch=1 n=d#7 v=0
189217 Par ch=1 c=64 v=56
189222 On ch=1 n=d#5 v=0
189232 On ch=1 n=f#5 v=0
189232 On ch=1 n=f#4 v=0
189232 Par ch=1 c=64 v=127
189247 On ch=1 n=f#6 v=0
189252 On ch=1 n=f#7 v=0
189367 On ch=1 n=d#7 v=84
189367 On ch=1 n=d#4 v=75
189367 On ch=1 n=d#5 v=72
189367 On ch=1 n=d#6 v=77
189402 On ch=1 n=d#4 v=0
189407 On ch=1 n=d#6 v=0
189407 On ch=1 n=d#5 v=0
189417 On ch=1 n=d#7 v=0
189552 On ch=1 n=b6 v=86
189552 On ch=1 n=b3 v=72
189552 On ch=1 n=b4 v=72
189552 On ch=1 n=b5 v=74
189587 On ch=1 n=b4 v=0
189592 On ch=1 n=b3 v=0
189597 On ch=1 n=b5 v=0
189612 On ch=1 n=b6 v=0
189727 On ch=1 n=f#5 v=73
189732 On ch=1 n=f#6 v=83
189732 On ch=1 n=f#4 v=72
189732 On ch=1 n=f#3 v=71
189757 On ch=1 n=f#5 v=0
189762 On ch=1 n=f#3 v=0
189762 On ch=1 n=f#4 v=0
189787 On ch=1 n=f#6 v=0
189917 On ch=1 n=b5 v=78
189917 On ch=1 n=b4 v=71
189917 On ch=1 n=b3 v=73
189917 On ch=1 n=b6 v=85
189952 On ch=1 n=b3 v=0
189952 On ch=1 n=b4 v=0
189952 On ch=1 n=b5 v=0
189972 On ch=1 n=b6 v=0
190092 On ch=1 n=d#7 v=85
190092 On ch=1 n=d#6 v=77
190092 On ch=1 n=d#4 v=72
190092 On ch=1 n=d#5 v=73
190132 On ch=1 n=d#4 v=0
190132 On ch=1 n=d#6 v=0
190137 On ch=1 n=d#5 v=0
190152 On ch=1 n=d#7 v=0
190252 Par ch=1 c=64 v=88
190262 Par ch=1 c=64 v=24
190277 Par ch=1 c=64 v=0
190282 On ch=1 n=f#7 v=96
190282 On ch=1 n=a#6 v=73
190282 On ch=1 n=f#5 v=78
190282 On ch=1 n=c#7 v=76
190282 On ch=1 n=c#5 v=74
190282 On ch=1 n=a#4 v=72
190282 On ch=1 n=f#4 v=76
190282 On ch=1 n=f#6 v=80
190317 On ch=1 n=c#7 v=0
190322 On ch=1 n=a#4 v=0
190322 On ch=1 n=c#5 v=0
190322 On ch=1 n=f#5 v=0
190332 On ch=1 n=f#6 v=0
190332 On ch=1 n=f#4 v=0
190332 On ch=1 n=a#6 v=0
190342 On ch=1 n=f#7 v=0
190347 Par ch=1 c=64 v=72
190357 Par ch=1 c=64 v=127
190472 On ch=1 n=c#7 v=81
190472 On ch=1 n=c#6 v=72
190472 On ch=1 n=c#4 v=74
190472 On ch=1 n=c#5 v=75
190512 On ch=1 n=c#5 v=0
190517 On ch=1 n=c#4 v=0
190522 On ch=1 n=c#6 v=0
190527 On ch=1 n=c#7 v=0
190652 On ch=1 n=a#6 v=81
190652 On ch=1 n=a#3 v=73
190652 On ch=1 n=a#5 v=73
190652 On ch=1 n=a#4 v=72
190672 On ch=1 n=a#3 v=0
190692 On ch=1 n=a#4 v=0
190697 On ch=1 n=a#5 v=0
190707 On ch=1 n=a#6 v=0
190827 On ch=1 n=f#6 v=80
190827 On ch=1 n=f#5 v=70
190827 On ch=1 n=f#4 v=72
190827 On ch=1 n=f#3 v=72
190857 On ch=1 n=f#3 v=0
190862 On ch=1 n=f#4 v=0
190867 On ch=1 n=f#5 v=0
190872 On ch=1 n=f#6 v=0
191027 On ch=1 n=a#5 v=74
191027 On ch=1 n=a#4 v=73
191027 On ch=1 n=a#3 v=73
191027 On ch=1 n=a#6 v=80
191057 On ch=1 n=a#3 v=0
191057 On ch=1 n=a#5 v=0
191062 On ch=1 n=a#6 v=0
191072 On ch=1 n=a#4 v=0
191197 On ch=1 n=c#7 v=83
191197 On ch=1 n=c#5 v=72
191197 On ch=1 n=c#4 v=72
191197 On ch=1 n=c#6 v=73
191232 On ch=1 n=c#6 v=0
191232 On ch=1 n=c#4 v=0
191232 On ch=1 n=c#7 v=0
191247 On ch=1 n=c#5 v=0
191342 Par ch=1 c=64 v=88
191352 Par ch=1 c=64 v=24
191367 Par ch=1 c=64 v=0
191387 On ch=1 n=f#7 v=95
191387 On ch=1 n=f#5 v=76
191387 On ch=1 n=b4 v=72
191387 On ch=1 n=f#4 v=76
191387 On ch=1 n=f#6 v=85
191392 On ch=1 n=d#5 v=73
191397 On ch=1 n=d#7 v=75
191402 On ch=1 n=b6 v=75
191427 On ch=1 n=d#7 v=0
191432 On ch=1 n=b6 v=0
191432 On ch=1 n=d#5 v=0
191432 On ch=1 n=b4 v=0
191437 Par ch=1 c=64 v=56
191442 On ch=1 n=f#4 v=0
191442 On ch=1 n=f#5 v=0
191447 Par ch=1 c=64 v=127
191452 On ch=1 n=f#6 v=0
191462 On ch=1 n=f#7 v=0
191567 On ch=1 n=d#7 v=83
191567 On ch=1 n=d#5 v=75
191567 On ch=1 n=d#4 v=71
191567 On ch=1 n=d#6 v=73
191587 On ch=1 n=d#4 v=0
191607 On ch=1 n=d#5 v=0
191612 On ch=1 n=d#6 v=0
191622 On ch=1 n=d#7 v=0
191762 On ch=1 n=b6 v=80
191762 On ch=1 n=b4 v=73
191762 On ch=1 n=b3 v=72
191762 On ch=1 n=b5 v=74
191797 On ch=1 n=b3 v=0
191797 On ch=1 n=b4 v=0
191812 On ch=1 n=b5 v=0
191822 On ch=1 n=b6 v=0
191937 On ch=1 n=f#6 v=81
191937 On ch=1 n=f#3 v=73
191937 On ch=1 n=f#4 v=70
191937 On ch=1 n=f#5 v=72
191967 On ch=1 n=f#4 v=0
191972 On ch=1 n=f#5 v=0
191972 On ch=1 n=f#3 v=0
191992 On ch=1 n=f#6 v=0
192117 On ch=1 n=b5 v=76
192122 On ch=1 n=b6 v=83
192122 On ch=1 n=b3 v=74
192122 On ch=1 n=b4 v=72
192162 On ch=1 n=b4 v=0
192162 On ch=1 n=b3 v=0
192162 On ch=1 n=b5 v=0
192177 On ch=1 n=b6 v=0
192287 Par ch=1 c=64 v=88
192292 On ch=1 n=d#7 v=85
192292 On ch=1 n=d#5 v=72
192292 On ch=1 n=d#4 v=74
192292 On ch=1 n=d#6 v=82
192297 Par ch=1 c=64 v=40
192327 On ch=1 n=d#4 v=0
192332 On ch=1 n=d#5 v=0
192332 Par ch=1 c=64 v=104
192337 On ch=1 n=d#6 v=0
192342 Par ch=1 c=64 v=127
192362 On ch=1 n=d#7 v=0
192447 Par ch=1 c=64 v=104
192462 Par ch=1 c=64 v=88
192467 On ch=1 n=f#7 v=88
192467 On ch=1 n=f#6 v=86
192467 On ch=1 n=f#4 v=74
192467 On ch=1 n=f#5 v=75
192497 On ch=1 n=f#4 v=0
192497 Par ch=1 c=64 v=127
192507 On ch=1 n=f#5 v=0
192507 On ch=1 n=f#6 v=0
192517 On ch=1 n=f#7 v=0
192642 Par ch=1 c=64 v=72
192657 On ch=1 n=d#8 v=93
192657 On ch=1 n=d#7 v=85
192657 On ch=1 n=d#5 v=74
192657 On ch=1 n=d#6 v=65
192657 Par ch=1 c=64 v=24
192692 On ch=1 n=d#6 v=0
192692 On ch=1 n=d#5 v=0
192692 Par ch=1 c=64 v=127
192707 On ch=1 n=d#7 v=0
192717 On ch=1 n=d#8 v=0
192822 On ch=1 n=a#6 v=81
192822 On ch=1 n=a#7 v=85
192822 On ch=1 n=a#4 v=74
192822 On ch=1 n=a#5 v=73
192857 On ch=1 n=a#5 v=0
192862 On ch=1 n=a#6 v=0
192867 On ch=1 n=a#7 v=0
192872 On ch=1 n=a#4 v=0
193007 On ch=1 n=c#8 v=88
193007 On ch=1 n=c#5 v=75
193007 On ch=1 n=c#7 v=77
193007 On ch=1 n=c#6 v=75
193037 On ch=1 n=c#5 v=0
193052 On ch=1 n=c#6 v=0
193057 On ch=1 n=c#7 v=0
193067 On ch=1 n=c#8 v=0
193177 Par ch=1 c=64 v=104
193192 Par ch=1 c=64 v=56
193197 On ch=1 n=b7 v=87
193197 On ch=1 n=b4 v=74
193197 On ch=1 n=b5 v=73
193197 On ch=1 n=b6 v=75
193202 Par ch=1 c=64 v=24
193232 On ch=1 n=b5 v=0
193232 On ch=1 n=b4 v=0
193237 On ch=1 n=b6 v=0
193237 On ch=1 n=b7 v=0
193237 Par ch=1 c=64 v=72
193252 Par ch=1 c=64 v=104
193262 Par ch=1 c=64 v=127
193382 On ch=1 n=g#7 v=84
193382 On ch=1 n=g#6 v=82
193382 On ch=1 n=g#4 v=72
193382 On ch=1 n=g#5 v=71
193427 On ch=1 n=g#4 v=0
193432 On ch=1 n=g#6 v=0
193437 On ch=1 n=g#7 v=0
193442 On ch=1 n=g#5 v=0
193542 Par ch=1 c=64 v=104
193552 Par ch=1 c=64 v=56
193562 Par ch=1 c=64 v=0
193572 On ch=1 n=d#5 v=73
193577 On ch=1 n=f#5 v=74
193577 On ch=1 n=f#7 v=94
193577 On ch=1 n=f#4 v=75
193577 On ch=1 n=f#6 v=87
193587 On ch=1 n=d#7 v=74
193587 On ch=1 n=b4 v=72
193587 On ch=1 n=b6 v=74
193607 On ch=1 n=b4 v=0
193612 On ch=1 n=b6 v=0
193617 On ch=1 n=d#5 v=0
193622 On ch=1 n=f#6 v=0
193622 On ch=1 n=f#5 v=0
193622 Par ch=1 c=64 v=72
193627 On ch=1 n=d#7 v=0
193632 Par ch=1 c=64 v=127
193637 On ch=1 n=f#4 v=0
193642 On ch=1 n=f#7 v=0
193767 On ch=1 n=d#6 v=76
193767 On ch=1 n=d#7 v=83
193767 On ch=1 n=d#4 v=72
193767 On ch=1 n=d#5 v=73
193807 On ch=1 n=d#4 v=0
193807 On ch=1 n=d#6 v=0
193812 On ch=1 n=d#5 v=0
193817 On ch=1 n=d#7 v=0
193942 On ch=1 n=b6 v=82
193942 On ch=1 n=b3 v=73
193942 On ch=1 n=b4 v=73
193942 On ch=1 n=b5 v=75
193967 On ch=1 n=b4 v=0
193982 On ch=1 n=b5 v=0
193982 On ch=1 n=b3 v=0
194002 On ch=1 n=b6 v=0
194142 On ch=1 n=f#6 v=82
194142 On ch=1 n=f#5 v=71
194142 On ch=1 n=f#4 v=73
194142 On ch=1 n=f#3 v=75
194182 On ch=1 n=f#6 v=0
194187 On ch=1 n=f#3 v=0
194187 On ch=1 n=f#4 v=0
194187 On ch=1 n=f#5 v=0
194292 Par ch=1 c=64 v=104
194307 Par ch=1 c=64 v=72
194317 On ch=1 n=b6 v=84
194317 On ch=1 n=b5 v=74
194317 On ch=1 n=b4 v=72
194317 On ch=1 n=b3 v=74
194322 Par ch=1 c=64 v=56
194332 Par ch=1 c=64 v=72
194342 Par ch=1 c=64 v=104
194347 On ch=1 n=b3 v=0
194352 On ch=1 n=b5 v=0
194352 Par ch=1 c=64 v=127
194357 On ch=1 n=b4 v=0
194357 On ch=1 n=b6 v=0
194487 On ch=1 n=d#7 v=85
194487 On ch=1 n=d#5 v=75
194487 On ch=1 n=d#4 v=72
194487 On ch=1 n=d#6 v=76
194527 On ch=1 n=d#6 v=0
194527 On ch=1 n=d#4 v=0
194532 On ch=1 n=d#5 v=0
194557 On ch=1 n=d#7 v=0
194662 Par ch=1 c=64 v=56
194672 Par ch=1 c=64 v=0
194682 On ch=1 n=f#7 v=95
194682 On ch=1 n=f#5 v=75
194682 On ch=1 n=c#5 v=73
194682 On ch=1 n=f#4 v=74
194682 On ch=1 n=f#6 v=87
194682 On ch=1 n=a#4 v=74
194687 On ch=1 n=a#6 v=72
194692 On ch=1 n=c#7 v=74
194727 On ch=1 n=a#4 v=0
194727 On ch=1 n=c#5 v=0
194732 On ch=1 n=f#5 v=0
194737 On ch=1 n=c#7 v=0
194737 On ch=1 n=a#6 v=0
194737 On ch=1 n=f#6 v=0
194742 Par ch=1 c=64 v=56
194747 On ch=1 n=f#7 v=0
194757 On ch=1 n=f#4 v=0
194757 Par ch=1 c=64 v=127
194867 On ch=1 n=c#7 v=82
194867 On ch=1 n=c#5 v=72
194872 On ch=1 n=c#6 v=73
194877 On ch=1 n=c#4 v=71
194912 On ch=1 n=c#5 v=0
194922 On ch=1 n=c#4 v=0
194927 On ch=1 n=c#6 v=0
194947 On ch=1 n=c#7 v=0
195047 On ch=1 n=a#6 v=81
195047 On ch=1 n=a#4 v=74
195047 On ch=1 n=a#3 v=72
195047 On ch=1 n=a#5 v=73
195097 On ch=1 n=a#5 v=0
195097 On ch=1 n=a#3 v=0
195097 On ch=1 n=a#4 v=0
195112 On ch=1 n=a#6 v=0
195227 On ch=1 n=f#6 v=82
195227 On ch=1 n=f#3 v=72
195227 On ch=1 n=f#4 v=71
195227 On ch=1 n=f#5 v=72
195267 On ch=1 n=f#5 v=0
195272 On ch=1 n=f#4 v=0
195277 On ch=1 n=f#3 v=0
195287 On ch=1 n=f#6 v=0
195417 On ch=1 n=a#4 v=71
195422 On ch=1 n=a#6 v=82
195422 On ch=1 n=a#3 v=72
195422 On ch=1 n=a#5 v=72
195457 On ch=1 n=a#5 v=0
195462 On ch=1 n=a#6 v=0
195467 On ch=1 n=a#3 v=0
195467 On ch=1 n=a#4 v=0
195587 On ch=1 n=c#7 v=83
195587 On ch=1 n=c#6 v=73
195587 On ch=1 n=c#4 v=73
195587 On ch=1 n=c#5 v=73
195607 On ch=1 n=c#4 v=0
195617 On ch=1 n=c#6 v=0
195622 On ch=1 n=c#5 v=0
195637 On ch=1 n=c#7 v=0
195812 On ch=1 n=f#7 v=95
195812 On ch=1 n=c5 v=74
195812 On ch=1 n=f#5 v=74
195812 On ch=1 n=f#4 v=73
195812 On ch=1 n=a4 v=71
195812 On ch=1 n=c7 v=77
195812 On ch=1 n=a6 v=77
195812 On ch=1 n=f#6 v=85
195817 Par ch=1 c=64 v=40
195827 Par ch=1 c=64 v=0
195862 On ch=1 n=a4 v=0
195862 On ch=1 n=c5 v=0
195872 On ch=1 n=f#5 v=0
195882 On ch=1 n=f#4 v=0
195882 On ch=1 n=f#7 v=0
195892 On ch=1 n=f#6 v=0
195897 On ch=1 n=c7 v=0
195902 On ch=1 n=a6 v=0
195902 Par ch=1 c=64 v=56
195912 Par ch=1 c=64 v=127
196012 On ch=1 n=d#7 v=84
196012 On ch=1 n=d#5 v=74
196012 On ch=1 n=d#4 v=71
196012 On ch=1 n=d#6 v=82
196042 On ch=1 n=d#4 v=0
196047 On ch=1 n=d#5 v=0
196052 On ch=1 n=d#6 v=0
196057 On ch=1 n=d#7 v=0
196192 On ch=1 n=c7 v=82
196192 On ch=1 n=c6 v=82
196192 On ch=1 n=c4 v=73
196192 On ch=1 n=c5 v=75
196227 On ch=1 n=c5 v=0
196232 On ch=1 n=c4 v=0
196232 On ch=1 n=c6 v=0
196247 On ch=1 n=c7 v=0
196387 On ch=1 n=a6 v=82
196387 Par ch=1 c=64 v=104
196392 On ch=1 n=a5 v=76
196397 On ch=1 n=a4 v=72
196397 On ch=1 n=a3 v=74
196397 Par ch=1 c=64 v=56
196427 On ch=1 n=a3 v=0
196432 Par ch=1 c=64 v=127
196442 On ch=1 n=a4 v=0
196442 On ch=1 n=a5 v=0
196457 On ch=1 n=a6 v=0
196567 On ch=1 n=f#6 v=80
196567 On ch=1 n=f#5 v=75
196567 On ch=1 n=f#3 v=72
196567 On ch=1 n=f#4 v=71
196607 On ch=1 n=f#4 v=0
196612 On ch=1 n=f#3 v=0
196627 On ch=1 n=f#5 v=0
196647 On ch=1 n=f#6 v=0
196732 On ch=1 n=d#6 v=82
196732 On ch=1 n=d#5 v=82
196732 On ch=1 n=d#3 v=71
196732 On ch=1 n=d#4 v=72
196777 On ch=1 n=d#4 v=0
196777 On ch=1 n=d#5 v=0
196787 On ch=1 n=d#3 v=0
196787 On ch=1 n=d#6 v=0
196917 On ch=1 n=c6 v=81
196917 On ch=1 n=c3 v=73
196917 On ch=1 n=c5 v=80
196917 On ch=1 n=c4 v=74
196922 Par ch=1 c=64 v=56
196957 On ch=1 n=c4 v=0
196957 Par ch=1 c=64 v=127
196967 On ch=1 n=c5 v=0
196967 On ch=1 n=c3 v=0
196972 On ch=1 n=c6 v=0
197102 On ch=1 n=a5 v=82
197102 On ch=1 n=a3 v=70
197102 On ch=1 n=a2 v=73
197102 On ch=1 n=a4 v=70
197147 On ch=1 n=a3 v=0
197152 On ch=1 n=a2 v=0
197157 On ch=1 n=a4 v=0
197167 On ch=1 n=a5 v=0
197272 On ch=1 n=f#5 v=81
197272 On ch=1 n=f#2 v=72
197272 On ch=1 n=f#3 v=71
197272 On ch=1 n=f#4 v=75
197317 On ch=1 n=f#3 v=0
197332 On ch=1 n=f#2 v=0
197342 On ch=1 n=f#4 v=0
197367 On ch=1 n=f#5 v=0
197442 On ch=1 n=d#5 v=82
197442 On ch=1 n=d#3 v=74
197442 On ch=1 n=d#2 v=72
197442 On ch=1 n=d#4 v=78
197487 On ch=1 n=d#4 v=0
197487 On ch=1 n=d#2 v=0
197497 On ch=1 n=d#3 v=0
197507 On ch=1 n=d#5 v=0
197622 On ch=1 n=c5 v=80
197622 On ch=1 n=c2 v=70
197622 On ch=1 n=c3 v=72
197622 On ch=1 n=c4 v=76
197657 On ch=1 n=c3 v=0
197662 On ch=1 n=c4 v=0
197662 On ch=1 n=c2 v=0
197672 On ch=1 n=c5 v=0
197812 On ch=1 n=d#5 v=83
197812 On ch=1 n=d#4 v=74
197812 On ch=1 n=d#3 v=74
197812 On ch=1 n=d#2 v=73
197847 On ch=1 n=d#2 v=0
197857 On ch=1 n=d#4 v=0
197862 On ch=1 n=d#3 v=0
197877 On ch=1 n=d#5 v=0
198002 Par ch=1 c=64 v=56
198007 On ch=1 n=f#4 v=80
198007 On ch=1 n=f#5 v=85
198007 On ch=1 n=f#3 v=72
198007 On ch=1 n=f#2 v=73
198012 Par ch=1 c=64 v=0
198027 Par ch=1 c=64 v=24
198037 Par ch=1 c=64 v=72
198047 On ch=1 n=f#2 v=0
198047 On ch=1 n=f#3 v=0
198047 On ch=1 n=f#4 v=0
198047 Par ch=1 c=64 v=127
198072 On ch=1 n=f#5 v=0
198172 On ch=1 n=a5 v=76
198177 On ch=1 n=a4 v=62
198177 On ch=1 n=a3 v=69
198177 On ch=1 n=a2 v=58
198217 On ch=1 n=a4 v=0
198222 On ch=1 n=a3 v=0
198232 On ch=1 n=a2 v=0
198237 On ch=1 n=a5 v=0
198337 On ch=1 n=c4 v=70
198342 On ch=1 n=c6 v=76
198342 On ch=1 n=c5 v=75
198347 On ch=1 n=c3 v=74
198382 On ch=1 n=c3 v=0
198382 On ch=1 n=c5 v=0
198382 On ch=1 n=c4 v=0
198412 On ch=1 n=c6 v=0
198517 On ch=1 n=d#6 v=77
198527 On ch=1 n=d#5 v=74
198527 On ch=1 n=d#4 v=77
198532 On ch=1 n=d#3 v=70
198567 On ch=1 n=d#5 v=0
198572 On ch=1 n=d#3 v=0
198582 On ch=1 n=d#4 v=0
198582 On ch=1 n=d#6 v=0
198712 Par ch=1 c=64 v=72
198717 On ch=1 n=f#6 v=88
198717 On ch=1 n=f#5 v=80
198722 On ch=1 n=f#3 v=73
198722 On ch=1 n=f#4 v=70
198722 Par ch=1 c=64 v=24
198737 Par ch=1 c=64 v=0
198742 On ch=1 n=f#3 v=0
198747 Par ch=1 c=64 v=24
198757 On ch=1 n=f#5 v=0
198757 Par ch=1 c=64 v=56
198767 On ch=1 n=f#4 v=0
198767 Par ch=1 c=64 v=104
198777 On ch=1 n=f#6 v=0
198782 Par ch=1 c=64 v=127
198877 On ch=1 n=a6 v=80
198882 On ch=1 n=a5 v=81
198882 On ch=1 n=a4 v=71
198882 On ch=1 n=a3 v=69
198917 On ch=1 n=a3 v=0
198917 On ch=1 n=a5 v=0
198922 On ch=1 n=a4 v=0
198942 On ch=1 n=a6 v=0
199047 On ch=1 n=c5 v=74
199052 On ch=1 n=c7 v=79
199057 On ch=1 n=c6 v=78
199057 On ch=1 n=c4 v=53
199077 On ch=1 n=c4 v=0
199087 On ch=1 n=c5 v=0
199092 On ch=1 n=c6 v=0
199117 On ch=1 n=c7 v=0
199217 On ch=1 n=d#7 v=86
199217 On ch=1 n=d#6 v=74
199222 On ch=1 n=d#5 v=63
199222 Par ch=1 c=64 v=88
199227 On ch=1 n=d#4 v=49
199237 Par ch=1 c=64 v=40
199262 On ch=1 n=d#6 v=0
199267 On ch=1 n=d#4 v=0
199267 Par ch=1 c=64 v=104
199277 On ch=1 n=d#5 v=0
199282 On ch=1 n=d#7 v=0
199282 Par ch=1 c=64 v=127
199382 On ch=1 n=f#7 v=79
199382 On ch=1 n=f#6 v=75
199387 On ch=1 n=f#5 v=65
199392 On ch=1 n=f#4 v=48
199447 On ch=1 n=f#6 v=0
199452 On ch=1 n=f#4 v=0
199462 On ch=1 n=f#5 v=0
199462 On ch=1 n=f#7 v=0
199552 On ch=1 n=a7 v=87
199552 On ch=1 n=a6 v=81
199557 On ch=1 n=a5 v=66
199562 On ch=1 n=a4 v=53
199607 On ch=1 n=a6 v=0
199612 On ch=1 n=a4 v=0
199617 On ch=1 n=a5 v=0
199617 On ch=1 n=a7 v=0
199712 Par ch=1 c=64 v=72
199717 On ch=1 n=a#7 v=85
199717 On ch=1 n=a#6 v=79
199722 Par ch=1 c=64 v=24
199732 On ch=1 n=a#4 v=64
199732 On ch=1 n=a#5 v=70
199737 Par ch=1 c=64 v=0
199747 Par ch=1 c=64 v=40
199757 Par ch=1 c=64 v=72
199767 On ch=1 n=a#6 v=0
199767 Par ch=1 c=64 v=104
199772 On ch=1 n=a#4 v=0
199782 On ch=1 n=a#7 v=0
199782 Par ch=1 c=64 v=127
199787 On ch=1 n=a#5 v=0
199887 On ch=1 n=b7 v=81
199892 On ch=1 n=b6 v=78
199897 On ch=1 n=b5 v=64
199907 On ch=1 n=b4 v=57
199952 On ch=1 n=b6 v=0
199972 On ch=1 n=b5 v=0
199977 On ch=1 n=b4 v=0
199982 On ch=1 n=b7 v=0
200062 On ch=1 n=c7 v=80
200062 On ch=1 n=c8 v=87
200062 On ch=1 n=c6 v=74
200062 On ch=1 n=c5 v=73
200062 Par ch=1 c=64 v=88
200067 Par ch=1 c=64 v=56
200117 On ch=1 n=c5 v=0
200117 On ch=1 n=c6 v=0
200117 On ch=1 n=c7 v=0
200117 Par ch=1 c=64 v=104
200127 Par ch=1 c=64 v=127
200132 On ch=1 n=c8 v=0
200237 On ch=1 n=c#8 v=82
200237 On ch=1 n=c#6 v=72
200237 On ch=1 n=c#5 v=71
200237 On ch=1 n=c#7 v=82
200297 On ch=1 n=c#7 v=0
200312 On ch=1 n=c#6 v=0
200322 On ch=1 n=c#5 v=0
200322 On ch=1 n=c#8 v=0
200372 Par ch=1 c=64 v=104
200382 Par ch=1 c=64 v=72
200392 Par ch=1 c=64 v=56
200402 On ch=1 n=d8 v=86
200402 On ch=1 n=d7 v=80
200402 On ch=1 n=d5 v=71
200402 On ch=1 n=d6 v=70
200407 Par ch=1 c=64 v=72
200417 Par ch=1 c=64 v=104
200432 Par ch=1 c=64 v=127
200457 On ch=1 n=d7 v=0
200462 On ch=1 n=d5 v=0
200472 On ch=1 n=d6 v=0
200482 On ch=1 n=d8 v=0
200582 On ch=1 n=d#8 v=88
200582 On ch=1 n=d#5 v=71
200582 On ch=1 n=d#6 v=71
200582 On ch=1 n=d#7 v=84
200632 On ch=1 n=d#7 v=0
200632 On ch=1 n=d#5 v=0
200642 On ch=1 n=d#6 v=0
200652 On ch=1 n=d#8 v=0
200762 On ch=1 n=e7 v=81
200762 On ch=1 n=e6 v=78
200762 On ch=1 n=e5 v=64
200762 On ch=1 n=e8 v=90
200767 Par ch=1 c=64 v=104
200777 Par ch=1 c=64 v=40
200792 Par ch=1 c=64 v=0
200872 Par ch=1 c=64 v=88
200882 Par ch=1 c=64 v=127
200937 On ch=1 n=f8 v=95
200937 On ch=1 n=f7 v=80
200937 On ch=1 n=f6 v=80
200937 On ch=1 n=f5 v=80
200952 Par ch=1 c=64 v=88
200967 Par ch=1 c=64 v=40
200977 Par ch=1 c=64 v=0
200997 On ch=1 n=f5 v=0
200997 On ch=1 n=f6 v=0
200997 On ch=1 n=f7 v=0
200997 On ch=1 n=f8 v=0
201012 Par ch=1 c=64 v=88
201022 Par ch=1 c=64 v=127
201047 On ch=1 n=e7 v=0
201052 On ch=1 n=e5 v=0
201057 On ch=1 n=e8 v=0
201057 On ch=1 n=e6 v=0
201117 On ch=1 n=f#8 v=100
201117 On ch=1 n=f#7 v=90
201117 On ch=1 n=f#6 v=85
201117 On ch=1 n=f#5 v=85
201207 Par ch=1 c=64 v=104
201222 Par ch=1 c=64 v=56
201232 Par ch=1 c=64 v=0
201817 On ch=1 n=f#5 v=0
201817 On ch=1 n=f#6 v=0
201817 On ch=1 n=f#7 v=0
201817 On ch=1 n=f#8 v=0
203022 On ch=1 n=a3 v=70
203082 On ch=1 n=a3 v=0
203137 On ch=1 n=b3 v=68
203222 On ch=1 n=b3 v=0
203517 On ch=1 n=c4 v=58
203577 On ch=1 n=c4 v=0
203662 On ch=1 n=c#4 v=65
203857 Par ch=1 c=64 v=56
203877 Par ch=1 c=64 v=88
203892 Par ch=1 c=64 v=127
204187 Par ch=1 c=64 v=56
204192 On ch=1 n=a5 v=55
204197 On ch=1 n=a4 v=44
204197 On ch=1 n=f#5 v=44
204202 Par ch=1 c=64 v=0
204217 On ch=1 n=c#3 v=34
204282 Par ch=1 c=64 v=40
204297 Par ch=1 c=64 v=88
204312 Par ch=1 c=64 v=127
204402 On ch=1 n=a4 v=0
204417 On ch=1 n=c#3 v=0
204417 On ch=1 n=a5 v=0
204417 On ch=1 n=c#4 v=0
204422 On ch=1 n=f#5 v=0
204737 On ch=1 n=c#4 v=63
204807 Par ch=1 c=64 v=72
204822 Par ch=1 c=64 v=24
204837 Par ch=1 c=64 v=0
204932 Par ch=1 c=64 v=72
204947 Par ch=1 c=64 v=127
205277 On ch=1 n=g#5 v=44
205282 On ch=1 n=b4 v=40
205287 On ch=1 n=f5 v=47
205287 Par ch=1 c=64 v=72
205302 Par ch=1 c=64 v=0
205307 On ch=1 n=c#3 v=36
205397 Par ch=1 c=64 v=72
205412 Par ch=1 c=64 v=127
205532 On ch=1 n=c#3 v=0
205557 On ch=1 n=b4 v=0
205557 On ch=1 n=g#5 v=0
205557 On ch=1 n=c#4 v=0
205562 On ch=1 n=f5 v=0
205827 On ch=1 n=c#4 v=69
205892 Par ch=1 c=64 v=72
205907 Par ch=1 c=64 v=40
205922 Par ch=1 c=64 v=0
206032 Par ch=1 c=64 v=24
206047 Par ch=1 c=64 v=72
206062 Par ch=1 c=64 v=127
206417 On ch=1 n=a4 v=44
206417 On ch=1 n=f#5 v=43
206432 On ch=1 n=a5 v=44
206437 On ch=1 n=f#3 v=43
206512 Par ch=1 c=64 v=88
206527 Par ch=1 c=63 v=72
206542 Par ch=1 c=64 v=56
206557 Par ch=1 c=64 v=24
206572 Par ch=1 c=64 v=0
206712 Par ch=1 c=64 v=56
206727 Par ch=1 c=64 v=104
206742 Par ch=1 c=64 v=127
207072 On ch=1 n=a4 v=0
207077 On ch=1 n=a5 v=0
207117 On ch=1 n=f#5 v=0
207267 On ch=1 n=c#4 v=0
207282 On ch=1 n=f#3 v=0
207472 Par ch=1 c=64 v=88
207487 Par ch=1 c=64 v=56
207502 Par ch=1 c=64 v=24
207517 Par ch=1 c=64 v=0
207567 On ch=1 n=c#4 v=67
207617 On ch=1 n=c#4 v=0
207702 On ch=1 n=c4 v=81
207782 On ch=1 n=c4 v=0
208082 On ch=1 n=b3 v=70
208152 On ch=1 n=b3 v=0
208217 On ch=1 n=a#3 v=69
208382 Par ch=1 c=64 v=24
208402 Par ch=1 c=64 v=72
208417 Par ch=1 c=64 v=104
208432 Par ch=1 c=64 v=127
208727 Par ch=1 c=64 v=104
208742 On ch=1 n=a#5 v=56
208742 Par ch=1 c=64 v=40
208752 On ch=1 n=a#4 v=39
208752 Par ch=1 c=64 v=0
208762 On ch=1 n=g5 v=49
208762 On ch=1 n=a#2 v=47
208772 On ch=1 n=d#5 v=37
208832 Par ch=1 c=64 v=24
208852 Par ch=1 c=64 v=88
208867 Par ch=1 c=64 v=127
208972 On ch=1 n=a#4 v=0
208992 On ch=1 n=g5 v=0
209002 On ch=1 n=a#5 v=0
209012 On ch=1 n=d#5 v=0
209087 On ch=1 n=a#3 v=0
209232 On ch=1 n=a#2 v=0
209277 On ch=1 n=a#3 v=67
209327 Par ch=1 c=64 v=88
209347 Par ch=1 c=64 v=40
209362 Par ch=1 c=64 v=0
209457 Par ch=1 c=64 v=24
209472 Par ch=1 c=64 v=72
209487 Par ch=1 c=64 v=127
209807 On ch=1 n=a#5 v=54
209807 On ch=1 n=a#4 v=48
209807 On ch=1 n=a#2 v=49
209807 On ch=1 n=d5 v=54
209807 On ch=1 n=g#5 v=54
209812 Par ch=1 c=64 v=88
209827 Par ch=1 c=64 v=40
209842 Par ch=1 c=64 v=0
209917 Par ch=1 c=64 v=24
209937 Par ch=1 c=64 v=88
209952 Par ch=1 c=64 v=127
209987 On ch=1 n=a#2 v=0
210027 On ch=1 n=d5 v=0
210027 On ch=1 n=a#3 v=0
210057 On ch=1 n=g#5 v=0
210067 On ch=1 n=a#4 v=0
210072 On ch=1 n=a#5 v=0
210367 On ch=1 n=a#3 v=71
210427 Par ch=1 c=64 v=88
210447 Par ch=1 c=64 v=56
210462 Par ch=1 c=64 v=0
210557 Par ch=1 c=64 v=40
210572 Par ch=1 c=64 v=104
210587 Par ch=1 c=64 v=127
211012 On ch=1 n=a#4 v=41
211017 On ch=1 n=a#5 v=48
211022 On ch=1 n=d#3 v=50
211027 On ch=1 n=d#5 v=41
211042 On ch=1 n=g5 v=42
211142 Par ch=1 c=64 v=104
211157 Par ch=1 c=64 v=72
211172 Par ch=1 c=64 v=56
211187 Par ch=1 c=64 v=24
211202 Par ch=1 c=64 v=0
211547 Par ch=1 c=64 v=24
211562 Par ch=1 c=64 v=72
211577 Par ch=1 c=64 v=104
211592 Par ch=1 c=64 v=127
211732 On ch=1 n=g5 v=0
211737 On ch=1 n=a#5 v=0
211737 On ch=1 n=a#4 v=0
211747 On ch=1 n=d#5 v=0
211762 On ch=1 n=a#3 v=0
211787 On ch=1 n=d#3 v=0
212007 Par ch=1 c=64 v=88
212027 Par ch=1 c=64 v=56
212042 Par ch=1 c=64 v=24
212057 Par ch=1 c=64 v=0
212072 On ch=1 n=a#4 v=57
212087 On ch=1 n=a#3 v=65
212087 On ch=1 n=a#2 v=58
212137 On ch=1 n=a#2 v=0
212137 On ch=1 n=a#3 v=0
212147 On ch=1 n=a#4 v=0
212192 On ch=1 n=b4 v=86
212207 On ch=1 n=b3 v=75
212227 On ch=1 n=b2 v=47
212237 On ch=1 n=b3 v=0
212257 On ch=1 n=b2 v=0
212257 On ch=1 n=b4 v=0
212557 On ch=1 n=c4 v=63
212557 On ch=1 n=c5 v=70
212577 On ch=1 n=c3 v=33
212587 On ch=1 n=c4 v=0
212617 On ch=1 n=c3 v=0
212637 On ch=1 n=c5 v=0
212672 On ch=1 n=c#5 v=76
212702 On ch=1 n=c#4 v=68
212702 On ch=1 n=c#3 v=58
212742 On ch=1 n=c#3 v=0
212757 On ch=1 n=c#4 v=0
212757 Par ch=1 c=64 v=24
212767 On ch=1 n=c#5 v=0
212772 Par ch=1 c=64 v=88
212787 Par ch=1 c=64 v=127
213197 On ch=1 n=c#7 v=77
213197 On ch=1 n=c#6 v=68
213212 On ch=1 n=a6 v=64
213212 On ch=1 n=f#5 v=56
213212 On ch=1 n=f#6 v=61
213222 On ch=1 n=f#4 v=47
213222 On ch=1 n=c#5 v=45
213227 On ch=1 n=a4 v=51
213287 On ch=1 n=a6 v=0
213292 On ch=1 n=f#6 v=0
213292 On ch=1 n=f#5 v=0
213292 On ch=1 n=c#6 v=0
213302 On ch=1 n=c#5 v=0
213302 On ch=1 n=c#7 v=0
213307 On ch=1 n=a4 v=0
213317 On ch=1 n=f#4 v=0
213697 Par ch=1 c=64 v=104
213717 Par ch=1 c=64 v=56
213732 On ch=1 n=c#5 v=87
213732 On ch=1 n=c#4 v=73
213732 On ch=1 n=c#3 v=72
213732 Par ch=1 c=64 v=0
213797 On ch=1 n=c#3 v=0
213797 On ch=1 n=c#4 v=0
213822 Par ch=1 c=64 v=40
213827 On ch=1 n=c#5 v=0
213842 Par ch=1 c=64 v=104
213857 Par ch=1 c=64 v=127
214267 On ch=1 n=c#7 v=88
214272 On ch=1 n=c#6 v=81
214272 Par ch=1 c=64 v=40
214282 On ch=1 n=g#5 v=67
214287 On ch=1 n=g#6 v=69
214287 On ch=1 n=c#5 v=56
214287 On ch=1 n=f5 v=63
214287 On ch=1 n=f6 v=79
214287 Par ch=1 c=64 v=0
214292 On ch=1 n=g#4 v=50
214317 On ch=1 n=f6 v=0
214322 On ch=1 n=f5 v=0
214337 Par ch=1 c=64 v=24
214342 On ch=1 n=g#5 v=0
214347 On ch=1 n=c#6 v=0
214352 On ch=1 n=g#6 v=0
214352 Par ch=1 c=64 v=88
214362 On ch=1 n=c#5 v=0
214367 On ch=1 n=c#7 v=0
214367 Par ch=1 c=64 v=127
214387 On ch=1 n=g#4 v=0
214687 On ch=1 n=c#5 v=77
214687 On ch=1 n=c#4 v=75
214687 On ch=1 n=c#3 v=74
214722 On ch=1 n=c#3 v=0
214722 On ch=1 n=c#4 v=0
214772 On ch=1 n=c#5 v=0
214817 Par ch=1 c=64 v=104
214832 Par ch=1 c=64 v=72
214847 On ch=1 n=f#5 v=89
214847 On ch=1 n=f#3 v=78
214847 On ch=1 n=f#4 v=72
214847 Par ch=1 c=64 v=24
214862 Par ch=1 c=64 v=0
214997 On ch=1 n=f#3 v=0
215002 On ch=1 n=f#4 v=0
215002 Par ch=1 c=64 v=104
215012 On ch=1 n=f#5 v=0
215017 Par ch=1 c=64 v=127
215432 On ch=1 n=f#6 v=86
215432 On ch=1 n=f#7 v=92
215437 On ch=1 n=c#7 v=76
215437 On ch=1 n=a6 v=79
215437 On ch=1 n=a4 v=75
215437 On ch=1 n=c#5 v=77
215437 On ch=1 n=f#4 v=74
215437 On ch=1 n=f#5 v=70
215712 Par ch=1 c=64 v=104
215732 Par ch=1 c=64 v=40
215747 Par ch=1 c=64 v=0
215822 Par ch=1 c=64 v=56
215837 Par ch=1 c=64 v=127
215902 On ch=1 n=f#7 v=0
215917 On ch=1 n=f#5 v=0
215922 On ch=1 n=a4 v=0
215932 On ch=1 n=c#5 v=0
215932 On ch=1 n=a6 v=0
215937 On ch=1 n=c#7 v=0
215947 On ch=1 n=f#4 v=0
215957 On ch=1 n=f#6 v=0
216317 On ch=1 n=f4 v=60
216322 On ch=1 n=f3 v=52
216322 On ch=1 n=f5 v=69
216342 On ch=1 n=f4 v=0
216387 On ch=1 n=f3 v=0
216402 On ch=1 n=f5 v=0
216462 On ch=1 n=e5 v=73
216462 On ch=1 n=e4 v=66
216462 On ch=1 n=e3 v=70
216507 Par ch=1 c=64 v=104
216522 On ch=1 n=e3 v=0
216522 On ch=1 n=e4 v=0
216522 Par ch=1 c=64 v=88
216532 On ch=1 n=e5 v=0
216537 Par ch=1 c=64 v=72
216567 Par ch=1 c=64 v=56
216577 Par ch=1 c=64 v=40
216587 On ch=1 n=d#5 v=73
216592 On ch=1 n=d#4 v=63
216592 Par ch=1 c=64 v=24
216612 On ch=1 n=d#3 v=45
216612 Par ch=1 c=64 v=0
216627 On ch=1 n=d#4 v=0
216632 On ch=1 n=d#3 v=0
216667 On ch=1 n=d#5 v=0
216737 On ch=1 n=d5 v=74
216737 On ch=1 n=d4 v=72
216752 On ch=1 n=d3 v=63
216767 On ch=1 n=d4 v=0
216767 Par ch=1 c=64 v=40
216777 On ch=1 n=d3 v=0
216782 Par ch=1 c=64 v=56
216797 On ch=1 n=d5 v=0
216802 Par ch=1 c=64 v=72
216867 On ch=1 n=c#5 v=73
216872 On ch=1 n=c#4 v=67
216877 Par ch=1 c=64 v=56
216887 On ch=1 n=c#3 v=53
216892 Par ch=1 c=64 v=40
216912 On ch=1 n=c#3 v=0
216912 On ch=1 n=c#4 v=0
216937 Par ch=1 c=64 v=24
216952 On ch=1 n=c#5 v=0
216987 Par ch=1 c=64 v=0
217007 On ch=1 n=c5 v=82
217017 On ch=1 n=c4 v=74
217032 On ch=1 n=c3 v=48
217042 On ch=1 n=c4 v=0
217062 On ch=1 n=c3 v=0
217087 On ch=1 n=c5 v=0
217142 On ch=1 n=b4 v=75
217142 On ch=1 n=b3 v=77
217167 On ch=1 n=b2 v=55
217197 On ch=1 n=b3 v=0
217207 On ch=1 n=b2 v=0
217272 On ch=1 n=b4 v=0
217342 On ch=1 n=a#4 v=81
217342 On ch=1 n=a#2 v=72
217342 On ch=1 n=a#3 v=74
217407 On ch=1 n=a#3 v=0
217417 On ch=1 n=a#2 v=0
217417 Par ch=1 c=64 v=40
217432 Par ch=1 c=64 v=104
217447 Par ch=1 c=64 v=127
217457 On ch=1 n=a#4 v=0
217907 On ch=1 n=g7 v=88
217907 On ch=1 n=g6 v=81
217912 On ch=1 n=a#6 v=69
217912 On ch=1 n=d#7 v=68
217922 On ch=1 n=d#5 v=60
217927 On ch=1 n=g5 v=66
217927 On ch=1 n=a#4 v=48
217932 On ch=1 n=g4 v=59
217987 On ch=1 n=g5 v=0
217992 On ch=1 n=d#7 v=0
217997 On ch=1 n=d#5 v=0
217997 On ch=1 n=a#6 v=0
218007 On ch=1 n=g7 v=0
218012 On ch=1 n=g6 v=0
218027 On ch=1 n=g4 v=0
218027 On ch=1 n=a#4 v=0
218427 Par ch=1 c=64 v=72
218437 On ch=1 n=a#4 v=85
218437 On ch=1 n=a#2 v=64
218437 On ch=1 n=a#3 v=83
218442 Par ch=1 c=64 v=0
218507 On ch=1 n=a#3 v=0
218507 On ch=1 n=a#2 v=0
218522 On ch=1 n=a#4 v=0
218532 Par ch=1 c=64 v=72
218547 Par ch=1 c=64 v=127
218987 On ch=1 n=a#7 v=91
218987 On ch=1 n=a#6 v=73
218987 On ch=1 n=d7 v=76
218987 On ch=1 n=f7 v=72
218987 On ch=1 n=d5 v=70
218987 On ch=1 n=f5 v=66
218987 On ch=1 n=a#4 v=66
218987 On ch=1 n=a#5 v=77
219012 On ch=1 n=f7 v=0
219012 On ch=1 n=d7 v=0
219017 On ch=1 n=f5 v=0
219017 On ch=1 n=d5 v=0
219037 On ch=1 n=a#5 v=0
219057 On ch=1 n=a#7 v=0
219072 On ch=1 n=a#6 v=0
219077 On ch=1 n=a#4 v=0
219427 On ch=1 n=a#4 v=86
219432 On ch=1 n=a#3 v=83
219437 On ch=1 n=a#2 v=69
219482 On ch=1 n=a#3 v=0
219487 On ch=1 n=a#2 v=0
219487 On ch=1 n=a#4 v=0
219497 Par ch=1 c=64 v=88
219512 Par ch=1 c=64 v=24
219522 Par ch=1 c=64 v=0
219537 On ch=1 n=a#4 v=83
219537 On ch=1 n=a#2 v=74
219537 On ch=1 n=a#3 v=88
219602 On ch=1 n=a#2 v=0
219607 On ch=1 n=a#3 v=0
219617 On ch=1 n=a#4 v=0
219617 Par ch=1 c=64 v=88
219632 Par ch=1 c=64 v=127
220072 On ch=1 n=a#7 v=97
220072 On ch=1 n=a#6 v=89
220072 On ch=1 n=g7 v=75
220072 On ch=1 n=a#4 v=72
220072 On ch=1 n=a#5 v=71
220072 On ch=1 n=d#5 v=70
220072 On ch=1 n=g5 v=73
220072 On ch=1 n=d#7 v=72
220157 On ch=1 n=a#5 v=0
220167 On ch=1 n=a#7 v=0
220177 On ch=1 n=d#7 v=0
220177 On ch=1 n=g7 v=0
220182 On ch=1 n=g5 v=0
220182 On ch=1 n=a#6 v=0
220192 On ch=1 n=a#4 v=0
220227 On ch=1 n=d#5 v=0
220597 Par ch=1 c=64 v=104
220607 Par ch=1 c=64 v=40
220622 On ch=1 n=a#4 v=91
220622 On ch=1 n=a#3 v=87
220622 On ch=1 n=a#2 v=76
220627 Par ch=1 c=64 v=0
220687 On ch=1 n=a#3 v=0
220692 On ch=1 n=a#2 v=0
220702 Par ch=1 c=64 v=72
220707 On ch=1 n=a#4 v=0
220717 Par ch=1 c=64 v=127
221212 On ch=1 n=d8 v=96
221212 On ch=1 n=d7 v=87
221212 On ch=1 n=g#5 v=65
221212 On ch=1 n=a#5 v=67
221212 On ch=1 n=d5 v=64
221212 On ch=1 n=f7 v=82
221212 On ch=1 n=d6 v=74
221212 On ch=1 n=a#7 v=79
221212 On ch=1 n=g#7 v=70
221272 On ch=1 n=g#7 v=0
221302 On ch=1 n=d6 v=0
221307 On ch=1 n=a#7 v=0
221307 On ch=1 n=f7 v=0
221317 On ch=1 n=a#5 v=0
221317 On ch=1 n=d8 v=0
221332 On ch=1 n=d7 v=0
221337 On ch=1 n=d5 v=0
221352 On ch=1 n=g#5 v=0
221722 On ch=1 n=a#2 v=57
221722 On ch=1 n=a#4 v=74
221842 On ch=1 n=c5 v=81
221842 On ch=1 n=c3 v=62
221847 On ch=1 n=a#4 v=0
221882 On ch=1 n=a#2 v=0
221917 On ch=1 n=d5 v=72
221917 On ch=1 n=d3 v=70
221922 On ch=1 n=c3 v=0
221937 On ch=1 n=c5 v=0
221977 On ch=1 n=d3 v=0
221997 On ch=1 n=d5 v=0
222022 On ch=1 n=d#5 v=90
222022 On ch=1 n=d#4 v=90
222022 On ch=1 n=d#3 v=88
222052 Par ch=1 c=64 v=88
222067 Par ch=1 c=64 v=0
222552 On ch=1 n=d#3 v=0
222552 On ch=1 n=d#5 v=0
222557 On ch=1 n=d#4 v=0
222647 On ch=1 n=d#3 v=67
222647 On ch=1 n=d#2 v=64
222647 On ch=1 n=d#4 v=95
222647 Par ch=1 c=64 v=56
222662 Par ch=1 c=64 v=127
222772 On ch=1 n=d#2 v=0
222772 On ch=1 n=d#3 v=0
222787 On ch=1 n=d#4 v=0
223252 On ch=1 n=d#6 v=93
223252 On ch=1 n=d#7 v=93
223252 On ch=1 n=d#4 v=69
223252 On ch=1 n=d#5 v=70
223327 On ch=1 n=d#5 v=0
223332 On ch=1 n=d#6 v=0
223337 On ch=1 n=d#4 v=0
223337 On ch=1 n=d#7 v=0
223857 On ch=1 n=d#5 v=95
223857 On ch=1 n=d#4 v=80
223857 On ch=1 n=d#3 v=64
223922 On ch=1 n=d#3 v=0
223922 On ch=1 n=d#4 v=0
223927 On ch=1 n=d#5 v=0
224552 On ch=1 n=a7 v=105
224557 On ch=1 n=f#6 v=82
224562 On ch=1 n=b6 v=87
224562 On ch=1 n=a6 v=85
224577 On ch=1 n=b5 v=78
224582 On ch=1 n=a5 v=78
224582 On ch=1 n=d#5 v=77
224717 On ch=1 n=d#5 v=0
224717 On ch=1 n=a5 v=0
224717 On ch=1 n=b5 v=0
224717 On ch=1 n=a6 v=0
224717 On ch=1 n=b6 v=0
224717 On ch=1 n=f#6 v=0
224717 On ch=1 n=a7 v=0
225617 Par ch=1 c=64 v=24
225627 Par ch=1 c=64 v=40
225642 Par ch=1 c=64 v=72
225657 Par ch=1 c=64 v=104
225667 Par ch=1 c=64 v=127
225802 On ch=1 n=f#7 v=84
225882 On ch=1 n=d#7 v=83
225897 On ch=1 n=f#7 v=0
225937 Par ch=1 c=64 v=24
225962 On ch=1 n=b6 v=82
225962 On ch=1 n=b2 v=73
225992 Par ch=1 c=64 v=56
225997 Par ch=1 c=64 v=72
226002 On ch=1 n=d#7 v=0
226017 Par ch=1 c=64 v=88
226032 Par ch=1 c=64 v=104
226042 On ch=1 n=a6 v=81
226047 On ch=1 n=b6 v=0
226047 Par ch=1 c=64 v=127
226072 On ch=1 n=b2 v=0
226087 On ch=1 n=a6 v=0
226122 On ch=1 n=f#6 v=80
226202 On ch=1 n=d#6 v=80
226202 On ch=1 n=c3 v=76
226227 On ch=1 n=f#6 v=0
226282 On ch=1 n=b5 v=78
226287 On ch=1 n=c3 v=0
226317 On ch=1 n=d#6 v=0
226337 On ch=1 n=b5 v=0
226362 On ch=1 n=a5 v=78
226392 On ch=1 n=c#3 v=80
226397 On ch=1 n=a5 v=0
226437 Par ch=1 c=64 v=40
226442 On ch=1 n=f#5 v=77
226452 Par ch=1 c=64 v=24
226492 Par ch=1 c=64 v=72
226507 Par ch=1 c=64 v=127
226522 On ch=1 n=d#5 v=77
226527 On ch=1 n=f#5 v=0
226527 On ch=1 n=c#3 v=0
226602 On ch=1 n=b4 v=76
226607 On ch=1 n=d#5 v=0
226657 On ch=1 n=b4 v=0
226682 On ch=1 n=a4 v=75
226682 On ch=1 n=d3 v=81
226712 On ch=1 n=a4 v=0
226762 On ch=1 n=f#4 v=74
226842 On ch=1 n=f#4 v=0
226842 On ch=1 n=d#4 v=74
226862 On ch=1 n=d3 v=0
226892 On ch=1 n=d#4 v=0
226922 On ch=1 n=b3 v=73
226977 On ch=1 n=b3 v=0
227002 On ch=1 n=a3 v=72
227062 On ch=1 n=a3 v=0
227082 On ch=1 n=f#3 v=72
227137 On ch=1 n=f#3 v=0
227217 On ch=1 n=d#3 v=85
227282 On ch=1 n=d#3 v=0
227917 Par ch=1 c=64 v=0
227962 On ch=1 n=d#5 v=87
227962 On ch=1 n=d#4 v=90
227977 On ch=1 n=d#3 v=70
227977 On ch=1 n=d#2 v=62
227992 Par ch=1 c=64 v=100
228042 On ch=1 n=d#4 v=0
228047 On ch=1 n=d#2 v=0
228057 On ch=1 n=d#3 v=0
228087 On ch=1 n=d#5 v=0
228642 On ch=1 n=d#7 v=92
228642 On ch=1 n=d#6 v=92
228642 On ch=1 n=d#5 v=81
228642 On ch=1 n=d#4 v=74
228712 On ch=1 n=d#5 v=0
228727 On ch=1 n=d#4 v=0
228742 On ch=1 n=d#6 v=0
228752 On ch=1 n=d#7 v=0
229367 On ch=1 n=d#5 v=95
229377 On ch=1 n=d#3 v=69
229377 On ch=1 n=d#4 v=83
229447 On ch=1 n=d#4 v=0
229452 On ch=1 n=d#3 v=0
229452 On ch=1 n=d#5 v=0
230232 On ch=1 n=d#7 v=96
230237 On ch=1 n=b5 v=79
230237 On ch=1 n=f#6 v=78
230237 On ch=1 n=d#8 v=109
230237 On ch=1 n=a5 v=73
230242 On ch=1 n=d#5 v=70
230332 On ch=1 n=f#6 v=0
230342 On ch=1 n=d#5 v=0
230347 On ch=1 n=a5 v=0
230367 On ch=1 n=b5 v=0
230477 On ch=1 n=d#8 v=0
230477 On ch=1 n=d#7 v=0
231317 Par ch=1 c=64 v=24
231337 Par ch=1 c=64 v=40
231352 Par ch=1 c=64 v=56
231362 Par ch=1 c=64 v=72
231372 Par ch=1 c=64 v=88
231377 Par ch=1 c=64 v=104
231392 Par ch=1 c=64 v=127
231557 Par ch=1 c=64 v=56
231572 Par ch=1 c=64 v=104
231582 Par ch=1 c=64 v=127
231627 On ch=1 n=b2 v=72
231637 On ch=1 n=b7 v=82
231727 On ch=1 n=b7 v=0
231737 On ch=1 n=b2 v=0
231742 On ch=1 n=a7 v=82
231822 On ch=1 n=f#7 v=81
231847 On ch=1 n=a7 v=0
231847 On ch=1 n=c3 v=72
231902 On ch=1 n=d#7 v=80
231917 On ch=1 n=c3 v=0
231952 On ch=1 n=f#7 v=0
231982 On ch=1 n=b6 v=80
231987 On ch=1 n=d#7 v=0
232027 On ch=1 n=b6 v=0
232057 On ch=1 n=a6 v=79
232117 On ch=1 n=c#3 v=79
232132 On ch=1 n=f#6 v=78
232142 On ch=1 n=a6 v=0
232197 On ch=1 n=d#6 v=77
232212 On ch=1 n=c#3 v=0
232242 On ch=1 n=f#6 v=0
232257 On ch=1 n=d#6 v=0
232267 On ch=1 n=b5 v=76
232307 On ch=1 n=b5 v=0
232332 On ch=1 n=a5 v=76
232377 On ch=1 n=d3 v=89
232407 On ch=1 n=f#5 v=75
232412 On ch=1 n=a5 v=0
232432 Par ch=1 c=64 v=56
232442 Par ch=1 c=64 v=0
232487 On ch=1 n=d#5 v=75
232517 On ch=1 n=f#5 v=0
232527 Par ch=1 c=64 v=40
232537 Par ch=1 c=64 v=127
232542 On ch=1 n=d#5 v=0
232552 On ch=1 n=b4 v=75
232592 On ch=1 n=b4 v=0
232607 On ch=1 n=d3 v=0
232617 On ch=1 n=a4 v=74
232687 On ch=1 n=a4 v=0
232692 On ch=1 n=f#4 v=74
232762 On ch=1 n=d#4 v=73
232777 On ch=1 n=f#4 v=0
232827 On ch=1 n=d#4 v=0
232837 On ch=1 n=b3 v=73
232892 On ch=1 n=b3 v=0
232912 On ch=1 n=a3 v=73
232982 On ch=1 n=a3 v=0
232982 On ch=1 n=f#3 v=72
233027 On ch=1 n=f#3 v=0
233082 On ch=1 n=d#2 v=65
233082 On ch=1 n=d#3 v=73
233097 Par ch=1 c=64 v=88
233107 Par ch=1 c=64 v=56
233122 Par ch=1 c=64 v=0
233182 On ch=1 n=e3 v=91
233182 On ch=1 n=e2 v=94
233257 Par ch=1 c=64 v=88
233272 Par ch=1 c=64 v=127
233427 On ch=1 n=e2 v=0
233487 On ch=1 n=e3 v=0
233767 On ch=1 n=d#2 v=0
233792 Par ch=1 c=64 v=40
233802 On ch=1 n=d#3 v=0
233812 Par ch=1 c=64 v=88
233837 Par ch=1 c=64 v=127
233977 On ch=1 n=e8 v=94
233982 On ch=1 n=e7 v=88
233982 On ch=1 n=g#7 v=85
233987 On ch=1 n=g#5 v=62
233992 On ch=1 n=e6 v=74
234002 On ch=1 n=b5 v=70
234002 On ch=1 n=e5 v=70
234082 On ch=1 n=e7 v=0
234087 On ch=1 n=e6 v=0
234092 On ch=1 n=g#7 v=0
234092 On ch=1 n=e8 v=0
234097 On ch=1 n=b5 v=0
234102 On ch=1 n=e5 v=0
234117 On ch=1 n=g#5 v=0
234752 On ch=1 n=g#4 v=93
234762 On ch=1 n=g#2 v=81
234762 On ch=1 n=g#3 v=87
234772 Par ch=1 c=64 v=104
234792 Par ch=1 c=64 v=40
234832 Par ch=1 c=64 v=104
234852 On ch=1 n=g#4 v=0
234852 Par ch=1 c=64 v=127
234877 On ch=1 n=g#2 v=0
234882 On ch=1 n=g#3 v=0
235562 On ch=1 n=g#5 v=82
235562 On ch=1 n=g#4 v=74
235567 On ch=1 n=b7 v=103
235567 On ch=1 n=b6 v=89
235567 On ch=1 n=e5 v=80
235572 On ch=1 n=e7 v=85
235577 On ch=1 n=b4 v=66
235662 On ch=1 n=e5 v=0
235662 On ch=1 n=g#4 v=0
235667 On ch=1 n=g#5 v=0
235672 On ch=1 n=b4 v=0
235702 On ch=1 n=b6 v=0
235707 On ch=1 n=e7 v=0
235737 On ch=1 n=b7 v=0
237912 Par ch=1 c=64 v=104
237937 Par ch=1 c=64 v=40
237957 Par ch=1 c=64 v=0
238102 Par ch=1 c=64 v=56
238122 Par ch=1 c=64 v=127
238557 Par ch=1 c=64 v=104
238577 On ch=1 n=g5 v=86
238577 On ch=1 n=g2 v=69
238577 On ch=1 n=g3 v=84
238577 On ch=1 n=g4 v=82
238577 Par ch=1 c=64 v=24
238602 Par ch=1 c=64 v=0
238642 Par ch=1 c=64 v=56
238647 On ch=1 n=g4 v=0
238647 On ch=1 n=g3 v=0
238657 On ch=1 n=g2 v=0
238662 Par ch=1 c=64 v=127
238692 On ch=1 n=g5 v=0
238792 Par ch=1 c=64 v=88
238812 Par ch=1 c=64 v=0
238827 On ch=1 n=g#5 v=96
238827 On ch=1 n=g#4 v=85
238827 On ch=1 n=g#2 v=77
238827 On ch=1 n=g#3 v=85
238892 Par ch=1 c=64 v=24
238912 On ch=1 n=g#4 v=0
238912 Par ch=1 c=64 v=72
238932 Par ch=1 c=64 v=127
238937 On ch=1 n=g#3 v=0
238937 On ch=1 n=g#2 v=0
238942 On ch=1 n=g#5 v=0
239452 On ch=1 n=a5 v=89
239452 On ch=1 n=a4 v=80
239452 On ch=1 n=a2 v=79
239452 On ch=1 n=a3 v=81
239502 On ch=1 n=a2 v=0
239507 On ch=1 n=a3 v=0
239522 On ch=1 n=a4 v=0
239557 On ch=1 n=a5 v=0
239712 On ch=1 n=a#5 v=93
239712 On ch=1 n=g3 v=83
239712 On ch=1 n=g5 v=73
239712 On ch=1 n=a#2 v=64
239712 On ch=1 n=d#3 v=69
239712 On ch=1 n=a#3 v=77
239712 On ch=1 n=d#5 v=77
239712 On ch=1 n=a#4 v=90
239767 Par ch=1 c=64 v=72
239787 Par ch=1 c=64 v=0
240057 Par ch=1 c=64 v=72
240077 Par ch=1 c=64 v=127
240112 On ch=1 n=a#2 v=0
240127 On ch=1 n=a#3 v=0
240142 On ch=1 n=d#3 v=0
240147 On ch=1 n=g3 v=0
240152 On ch=1 n=a#4 v=0
240152 On ch=1 n=g5 v=0
240167 On ch=1 n=d#5 v=0
240192 On ch=1 n=a#5 v=0
241517 On ch=1 n=a#5 v=91
241517 On ch=1 n=a#2 v=72
241517 Par ch=1 c=64 v=72
241527 On ch=1 n=a#3 v=90
241527 On ch=1 n=a#4 v=86
241527 On ch=1 n=g#3 v=82
241537 On ch=1 n=f3 v=74
241537 On ch=1 n=g#5 v=76
241537 Par ch=1 c=64 v=0
241542 On ch=1 n=f5 v=78
241542 On ch=1 n=d5 v=82
241547 On ch=1 n=d3 v=68
241637 On ch=1 n=a#3 v=0
241637 On ch=1 n=a#2 v=0
241642 Par ch=1 c=64 v=104
241662 On ch=1 n=d3 v=0
241662 On ch=1 n=g#3 v=0
241662 Par ch=1 c=64 v=127
241672 On ch=1 n=d5 v=0
241672 On ch=1 n=a#4 v=0
241677 On ch=1 n=f3 v=0
241682 On ch=1 n=f5 v=0
241722 On ch=1 n=g#5 v=0
241732 On ch=1 n=a#5 v=0
243462 On ch=1 n=a#5 v=92
243462 On ch=1 n=d#5 v=75
243462 On ch=1 n=g3 v=74
243462 On ch=1 n=g5 v=77
243462 On ch=1 n=d#3 v=81
243462 On ch=1 n=a#4 v=85
243462 On ch=1 n=a#3 v=83
243642 Par ch=1 c=64 v=40
243657 Par ch=1 c=64 v=0
243912 Par ch=1 c=64 v=88
243932 Par ch=1 c=64 v=127
244197 Par ch=1 c=64 v=88
244222 Par ch=1 c=64 v=40
244242 Par ch=1 c=64 v=24
244262 Par ch=1 c=64 v=72
244287 Par ch=1 c=64 v=127
245102 On ch=1 n=a#4 v=0
245102 On ch=1 n=g5 v=0
245107 On ch=1 n=d#5 v=0
245112 On ch=1 n=g3 v=0
245117 On ch=1 n=a#3 v=0
245122 On ch=1 n=d#3 v=0
245122 On ch=1 n=a#5 v=0
245122 Meta TrkEnd
TrkEnd
MTrk
0 SeqSpec 43 00 01 00
0 Meta TrkName "Robert Finley, Piano"
0 KeySig 0 major
0 Meta TrkEnd
TrkEnd
MTrk
0 SeqSpec 43 00 01 00
0 KeySig 0 major
0 Meta TrkEnd
TrkEnd
MTrk
0 SeqSpec 43 00 01 00
0 KeySig 0 major
0 Meta TrkEnd
TrkEnd
MTrk
0 SeqSpec 43 00 01 00
0 KeySig 0 major
0 Meta TrkEnd
TrkEnd
MTrk
0 SeqSpec 43 00 01 00
0 KeySig 0 major
0 Meta TrkEnd
TrkEnd
MTrk
0 SeqSpec 43 00 01 00
0 KeySig 0 major
0 Meta TrkEnd
TrkEnd
MTrk
0 SeqSpec 43 00 01 00
0 KeySig 0 major
0 Meta TrkEnd
TrkEnd
MTrk
0 SeqSpec 43 00 01 00
0 KeySig 0 major
0 Meta TrkEnd
TrkEnd
MTrk
0 SeqSpec 43 00 01 00
0 KeySig 0 major
0 Meta TrkEnd
TrkEnd
MTrk
0 SeqSpec 43 00 01 00
0 KeySig 0 major
0 Meta TrkEnd
TrkEnd
MTrk
0 SeqSpec 43 00 01 00
0 KeySig 0 major
0 Meta TrkEnd
TrkEnd
MTrk
0 SeqSpec 43 00 01 00
0 KeySig 0 major
0 Meta TrkEnd
TrkEnd
MTrk
0 SeqSpec 43 00 01 00
0 KeySig 0 major
0 Meta TrkEnd
TrkEnd
MTrk
0 SeqSpec 43 00 01 00
0 KeySig 0 major
0 Meta TrkEnd
TrkEnd
MTrk
0 SeqSpec 43 00 01 00
0 KeySig 0 major
0 Meta TrkEnd
TrkEnd
MTrk
0 SeqSpec 43 00 01 00
0 KeySig 0 major
0 Meta TrkEnd
TrkEnd
