MFile 0 1 480
MTrk
0 TimeSig 6/8 12 8
0 Tempo 240000
0 Par ch=1 c=0 v=5
0 Par ch=1 c=32 v=87
0 PrCh ch=1 p=0
0 Par ch=1 c=7 v=100
2 Par ch=1 c=99 v=1
2 Par ch=1 c=98 v=8
2 Par ch=1 c=6 v=64
3 Par ch=1 c=99 v=1
3 Par ch=1 c=98 v=9
3 Par ch=1 c=6 v=64
4 Par ch=1 c=99 v=1
4 Par ch=1 c=98 v=10
4 Par ch=1 c=6 v=64
5 Par ch=1 c=99 v=1
5 Par ch=1 c=98 v=32
5 Par ch=1 c=6 v=64
6 Par ch=1 c=99 v=1
6 Par ch=1 c=98 v=33
6 Par ch=1 c=6 v=64
7 Par ch=1 c=99 v=1
7 Par ch=1 c=98 v=99
7 Par ch=1 c=6 v=64
8 Par ch=1 c=99 v=1
8 Par ch=1 c=98 v=100
8 Par ch=1 c=6 v=64
9 Par ch=1 c=99 v=1
9 Par ch=1 c=98 v=102
9 Par ch=1 c=6 v=64
11 Par ch=1 c=0 v=0
11 Par ch=1 c=32 v=0
11 PrCh ch=1 p=0
12 Par ch=1 c=7 v=100
13 Par ch=1 c=10 v=64
14 Par ch=1 c=91 v=40
15 Par ch=1 c=93 v=0
16 Par ch=1 c=5 v=0
17 Par ch=1 c=101 v=0
17 Par ch=1 c=100 v=0
17 Par ch=1 c=6 v=2
227 Tempo 240000
1440 Tempo 394737
1440 Par ch=1 c=7 v=120
1440 On ch=1 n=c3 v=64
1440 On ch=1 n=c2 v=64
1440 Par ch=1 c=64 v=96
1560 On ch=1 n=c4 v=64
1678 On ch=1 n=c4 v=0
1678 On ch=1 n=c2 v=0
1678 On ch=1 n=c3 v=0
1680 On ch=1 n=g2 v=64
1680 On ch=1 n=g3 v=64
1800 On ch=1 n=g4 v=64
1918 On ch=1 n=g4 v=0
1918 On ch=1 n=g3 v=0
1918 On ch=1 n=g2 v=0
1920 On ch=1 n=f2 v=64
1920 On ch=1 n=f3 v=64
2040 On ch=1 n=f4 v=64
2158 On ch=1 n=f4 v=0
2158 On ch=1 n=f3 v=0
2158 On ch=1 n=f2 v=0
2160 On ch=1 n=d#2 v=64
2160 On ch=1 n=d#3 v=64
2280 On ch=1 n=d#4 v=64
2398 On ch=1 n=d#4 v=0
2398 On ch=1 n=d#3 v=0
2398 On ch=1 n=d#2 v=0
2400 On ch=1 n=d2 v=64
2400 On ch=1 n=d3 v=64
2520 On ch=1 n=d4 v=64
2600 Par ch=1 c=64 v=0
2638 On ch=1 n=d4 v=0
2638 On ch=1 n=d3 v=0
2638 On ch=1 n=d2 v=0
2640 On ch=1 n=c2 v=64
2640 On ch=1 n=c3 v=64
2640 Par ch=1 c=64 v=96
2760 On ch=1 n=c4 v=64
2878 On ch=1 n=c4 v=0
2878 On ch=1 n=c3 v=0
2878 On ch=1 n=c2 v=0
2880 On ch=1 n=c5 v=64
2880 On ch=1 n=g4 v=64
2880 On ch=1 n=d#4 v=64
2880 On ch=1 n=c4 v=64
2880 On ch=1 n=c6 v=64
2880 On ch=1 n=d#6 v=64
2880 On ch=1 n=c7 v=64
3058 On ch=1 n=c7 v=0
3058 On ch=1 n=d#6 v=0
3058 On ch=1 n=c6 v=0
3058 On ch=1 n=c4 v=0
3058 On ch=1 n=d#4 v=0
3058 On ch=1 n=g4 v=0
3058 On ch=1 n=c5 v=0
3240 On ch=1 n=c5 v=64
3240 On ch=1 n=g4 v=64
3240 On ch=1 n=d#4 v=64
3240 On ch=1 n=c4 v=64
3240 On ch=1 n=g5 v=64
3240 On ch=1 n=c6 v=64
3240 On ch=1 n=d#6 v=64
3240 On ch=1 n=g6 v=64
3328 On ch=1 n=g6 v=0
3328 On ch=1 n=d#6 v=0
3328 On ch=1 n=c6 v=0
3328 On ch=1 n=g5 v=0
3328 On ch=1 n=c4 v=0
3328 On ch=1 n=d#4 v=0
3328 On ch=1 n=g4 v=0
3328 On ch=1 n=c5 v=0
3360 On ch=1 n=c5 v=64
3360 On ch=1 n=g4 v=64
3360 On ch=1 n=d#4 v=64
3360 On ch=1 n=c4 v=64
3360 On ch=1 n=g5 v=64
3360 On ch=1 n=c6 v=64
3360 On ch=1 n=d#6 v=64
3360 On ch=1 n=g6 v=64
3538 On ch=1 n=g6 v=0
3538 On ch=1 n=d#6 v=0
3538 On ch=1 n=c6 v=0
3538 On ch=1 n=g5 v=0
3538 On ch=1 n=c4 v=0
3538 On ch=1 n=d#4 v=0
3538 On ch=1 n=g4 v=0
3538 On ch=1 n=c5 v=0
3960 On ch=1 n=c5 v=64
3960 On ch=1 n=g4 v=64
3960 On ch=1 n=d#4 v=64
3960 On ch=1 n=c4 v=64
3960 On ch=1 n=d#6 v=64
3960 On ch=1 n=g5 v=64
3960 On ch=1 n=d#5 v=64
4048 On ch=1 n=d#5 v=0
4048 On ch=1 n=g5 v=0
4048 On ch=1 n=d#6 v=0
4048 On ch=1 n=c4 v=0
4048 On ch=1 n=d#4 v=0
4048 On ch=1 n=g4 v=0
4048 On ch=1 n=c5 v=0
4080 On ch=1 n=c5 v=64
4080 On ch=1 n=g4 v=64
4080 On ch=1 n=d#4 v=64
4080 On ch=1 n=c4 v=64
4080 On ch=1 n=d#5 v=64
4080 On ch=1 n=g5 v=64
4080 On ch=1 n=d#6 v=64
4258 On ch=1 n=d#6 v=0
4258 On ch=1 n=g5 v=0
4258 On ch=1 n=d#5 v=0
4258 On ch=1 n=c4 v=0
4258 On ch=1 n=d#4 v=0
4258 On ch=1 n=g4 v=0
4258 On ch=1 n=c5 v=0
4680 On ch=1 n=c5 v=64
4680 On ch=1 n=g4 v=64
4680 On ch=1 n=d#4 v=64
4680 On ch=1 n=c4 v=64
4680 On ch=1 n=c6 v=64
4680 On ch=1 n=g5 v=64
4680 On ch=1 n=d#5 v=64
4768 On ch=1 n=d#5 v=0
4768 On ch=1 n=g5 v=0
4768 On ch=1 n=c6 v=0
4768 On ch=1 n=c4 v=0
4768 On ch=1 n=d#4 v=0
4768 On ch=1 n=g4 v=0
4768 On ch=1 n=c5 v=0
4800 On ch=1 n=c5 v=64
4800 On ch=1 n=g4 v=64
4800 On ch=1 n=d#4 v=64
4800 On ch=1 n=c4 v=64
4800 On ch=1 n=c6 v=64
4800 On ch=1 n=g5 v=64
4800 On ch=1 n=d#5 v=64
4978 On ch=1 n=d#5 v=0
4978 On ch=1 n=g5 v=0
4978 On ch=1 n=c6 v=0
4978 On ch=1 n=c4 v=0
4978 On ch=1 n=d#4 v=0
4978 On ch=1 n=g4 v=0
4978 On ch=1 n=c5 v=0
5000 Par ch=1 c=64 v=0
5040 On ch=1 n=b4 v=64
5040 On ch=1 n=g4 v=64
5040 On ch=1 n=d#4 v=64
5040 On ch=1 n=c4 v=64
5040 On ch=1 n=b5 v=64
5040 On ch=1 n=g5 v=64
5040 On ch=1 n=d#5 v=64
5040 Par ch=1 c=64 v=96
5218 On ch=1 n=d#5 v=0
5218 On ch=1 n=g5 v=0
5218 On ch=1 n=b5 v=0
5218 On ch=1 n=c4 v=0
5218 On ch=1 n=d#4 v=0
5218 On ch=1 n=g4 v=0
5218 On ch=1 n=b4 v=0
5280 On ch=1 n=c5 v=64
5280 On ch=1 n=g4 v=64
5280 On ch=1 n=d#4 v=64
5280 On ch=1 n=c4 v=64
5280 On ch=1 n=c6 v=64
5280 On ch=1 n=g5 v=64
5280 On ch=1 n=d#5 v=64
5458 On ch=1 n=d#5 v=0
5458 On ch=1 n=g5 v=0
5458 On ch=1 n=c6 v=0
5458 On ch=1 n=c4 v=0
5458 On ch=1 n=d#4 v=0
5458 On ch=1 n=g4 v=0
5458 On ch=1 n=c5 v=0
5520 Par ch=1 c=64 v=0
5760 On ch=1 n=d3 v=64
5760 On ch=1 n=b2 v=64
5760 Par ch=1 c=64 v=96
5880 On ch=1 n=d4 v=64
5880 On ch=1 n=b3 v=64
5998 On ch=1 n=b3 v=0
5998 On ch=1 n=d4 v=0
5998 On ch=1 n=b2 v=0
5998 On ch=1 n=d3 v=0
6000 On ch=1 n=g#3 v=64
6120 On ch=1 n=g#4 v=64
6238 On ch=1 n=g#4 v=0
6238 On ch=1 n=g#3 v=0
6240 On ch=1 n=g3 v=64
6360 On ch=1 n=g4 v=64
6478 On ch=1 n=g4 v=0
6478 On ch=1 n=g3 v=0
6480 On ch=1 n=f3 v=64
6600 On ch=1 n=f4 v=64
6718 On ch=1 n=f4 v=0
6718 On ch=1 n=f3 v=0
6720 On ch=1 n=d#3 v=64
6840 On ch=1 n=d#4 v=64
6920 Par ch=1 c=64 v=0
6958 On ch=1 n=d#4 v=0
6958 On ch=1 n=d#3 v=0
6960 On ch=1 n=d3 v=64
6960 Par ch=1 c=64 v=96
7080 On ch=1 n=d4 v=64
7198 On ch=1 n=d4 v=0
7198 On ch=1 n=d3 v=0
7200 On ch=1 n=d7 v=64
7200 On ch=1 n=f6 v=64
7200 On ch=1 n=d6 v=64
7200 On ch=1 n=b3 v=64
7218 On ch=1 n=f4 v=65
7236 On ch=1 n=g#4 v=63
7254 On ch=1 n=d5 v=64
7378 On ch=1 n=b3 v=0
7378 On ch=1 n=d6 v=0
7378 On ch=1 n=f6 v=0
7378 On ch=1 n=d7 v=0
7379 On ch=1 n=f4 v=0
7381 On ch=1 n=d5 v=0
7383 On ch=1 n=g#4 v=0
7560 On ch=1 n=g#4 v=64
7560 On ch=1 n=f4 v=64
7560 On ch=1 n=g#6 v=64
7560 On ch=1 n=d6 v=64
7560 On ch=1 n=g#5 v=64
7560 On ch=1 n=b3 v=64
7648 On ch=1 n=b3 v=0
7648 On ch=1 n=g#5 v=0
7648 On ch=1 n=d6 v=0
7648 On ch=1 n=g#6 v=0
7648 On ch=1 n=f4 v=0
7648 On ch=1 n=g#4 v=0
7680 On ch=1 n=g#6 v=64
7680 On ch=1 n=d6 v=64
7680 On ch=1 n=g#5 v=64
7680 On ch=1 n=g#4 v=64
7680 On ch=1 n=f4 v=64
7680 On ch=1 n=b3 v=64
7858 On ch=1 n=b3 v=0
7858 On ch=1 n=f4 v=0
7858 On ch=1 n=g#4 v=0
7858 On ch=1 n=g#5 v=0
7858 On ch=1 n=d6 v=0
7858 On ch=1 n=g#6 v=0
8280 On ch=1 n=d5 v=64
8280 On ch=1 n=g#4 v=64
8280 On ch=1 n=f4 v=64
8280 On ch=1 n=f6 v=64
8280 On ch=1 n=g#5 v=64
8280 On ch=1 n=f5 v=64
8368 On ch=1 n=f5 v=0
8368 On ch=1 n=g#5 v=0
8368 On ch=1 n=f6 v=0
8368 On ch=1 n=f4 v=0
8368 On ch=1 n=g#4 v=0
8368 On ch=1 n=d5 v=0
8400 On ch=1 n=f6 v=64
8400 On ch=1 n=g#5 v=64
8400 On ch=1 n=f5 v=64
8400 On ch=1 n=d5 v=64
8400 On ch=1 n=g#4 v=64
8400 On ch=1 n=f4 v=64
8578 On ch=1 n=f4 v=0
8578 On ch=1 n=g#4 v=0
8578 On ch=1 n=d5 v=0
8578 On ch=1 n=f5 v=0
8578 On ch=1 n=g#5 v=0
8578 On ch=1 n=f6 v=0
9000 On ch=1 n=g#4 v=64
9000 On ch=1 n=f4 v=64
9000 On ch=1 n=d6 v=64
9000 On ch=1 n=g#5 v=64
9000 On ch=1 n=d5 v=64
9000 On ch=1 n=b3 v=64
9088 On ch=1 n=b3 v=0
9088 On ch=1 n=d5 v=0
9088 On ch=1 n=g#5 v=0
9088 On ch=1 n=d6 v=0
9088 On ch=1 n=f4 v=0
9088 On ch=1 n=g#4 v=0
9120 On ch=1 n=d6 v=64
9120 On ch=1 n=g#5 v=64
9120 On ch=1 n=d5 v=64
9120 On ch=1 n=g#4 v=64
9120 On ch=1 n=f4 v=64
9120 On ch=1 n=b3 v=64
9298 On ch=1 n=b3 v=0
9298 On ch=1 n=f4 v=0
9298 On ch=1 n=g#4 v=0
9298 On ch=1 n=d5 v=0
9298 On ch=1 n=g#5 v=0
9298 On ch=1 n=d6 v=0
9320 Par ch=1 c=64 v=0
9360 On ch=1 n=g#5 v=64
9360 On ch=1 n=g#4 v=64
9360 On ch=1 n=c#6 v=64
9360 On ch=1 n=c#5 v=64
9360 On ch=1 n=e4 v=64
9360 On ch=1 n=b3 v=64
9360 Par ch=1 c=64 v=96
9538 On ch=1 n=b3 v=0
9538 On ch=1 n=e4 v=0
9538 On ch=1 n=c#5 v=0
9538 On ch=1 n=c#6 v=0
9538 On ch=1 n=g#4 v=0
9538 On ch=1 n=g#5 v=0
9600 On ch=1 n=d6 v=64
9600 On ch=1 n=g#5 v=64
9600 On ch=1 n=d5 v=64
9600 On ch=1 n=g#4 v=64
9600 On ch=1 n=f4 v=64
9600 On ch=1 n=b3 v=64
9778 On ch=1 n=b3 v=0
9778 On ch=1 n=f4 v=0
9778 On ch=1 n=g#4 v=0
9778 On ch=1 n=d5 v=0
9778 On ch=1 n=g#5 v=0
9778 On ch=1 n=d6 v=0
9840 Par ch=1 c=64 v=0
10320 On ch=1 n=c4 v=64
10320 On ch=1 n=g3 v=64
10320 On ch=1 n=c3 v=64
10320 On ch=1 n=d#6 v=64
10320 On ch=1 n=g5 v=64
10320 On ch=1 n=d#5 v=64
10320 Par ch=1 c=64 v=96
10498 On ch=1 n=d#5 v=0
10498 On ch=1 n=g5 v=0
10498 On ch=1 n=d#6 v=0
10498 On ch=1 n=c3 v=0
10498 On ch=1 n=g3 v=0
10498 On ch=1 n=c4 v=0
10560 On ch=1 n=c4 v=64
10560 On ch=1 n=c5 v=64
10618 On ch=1 n=c5 v=0
10618 On ch=1 n=c4 v=0
10620 On ch=1 n=d4 v=64
10620 On ch=1 n=d5 v=64
10678 On ch=1 n=d5 v=0
10678 On ch=1 n=d4 v=0
10680 On ch=1 n=d#4 v=64
10680 On ch=1 n=d#5 v=64
10738 On ch=1 n=d#5 v=0
10738 On ch=1 n=d#4 v=0
10740 On ch=1 n=f4 v=64
10740 On ch=1 n=f5 v=64
10798 On ch=1 n=f5 v=0
10798 On ch=1 n=f4 v=0
10800 On ch=1 n=g4 v=64
10800 On ch=1 n=g5 v=64
10978 On ch=1 n=g5 v=0
10978 On ch=1 n=g4 v=0
11000 Par ch=1 c=64 v=0
11040 On ch=1 n=g#3 v=64
11040 On ch=1 n=f3 v=64
11040 On ch=1 n=g#2 v=64
11040 On ch=1 n=f6 v=64
11040 On ch=1 n=c6 v=64
11040 On ch=1 n=f5 v=64
11040 Par ch=1 c=64 v=96
11218 On ch=1 n=f5 v=0
11218 On ch=1 n=c6 v=0
11218 On ch=1 n=f6 v=0
11218 On ch=1 n=g#2 v=0
11218 On ch=1 n=f3 v=0
11218 On ch=1 n=g#3 v=0
11280 On ch=1 n=g#3 v=64
11280 On ch=1 n=f3 v=64
11280 On ch=1 n=g#2 v=64
11280 On ch=1 n=c7 v=64
11280 On ch=1 n=d#6 v=64
11280 On ch=1 n=c6 v=64
11458 On ch=1 n=c6 v=0
11458 On ch=1 n=d#6 v=0
11458 On ch=1 n=c7 v=0
11458 On ch=1 n=g#2 v=0
11458 On ch=1 n=f3 v=0
11458 On ch=1 n=g#3 v=0
11480 Par ch=1 c=64 v=0
11520 On ch=1 n=a#3 v=64
11520 On ch=1 n=f3 v=64
11520 On ch=1 n=a#2 v=64
11520 On ch=1 n=c7 v=64
11520 On ch=1 n=d6 v=64
11520 On ch=1 n=c6 v=64
11520 Par ch=1 c=64 v=96
11698 On ch=1 n=c6 v=0
11698 On ch=1 n=d6 v=0
11698 On ch=1 n=c7 v=0
11698 On ch=1 n=a#2 v=0
11698 On ch=1 n=f3 v=0
11698 On ch=1 n=a#3 v=0
11760 On ch=1 n=f4 v=64
11760 On ch=1 n=f5 v=64
11818 On ch=1 n=f5 v=0
11818 On ch=1 n=f4 v=0
11820 On ch=1 n=d#4 v=64
11820 On ch=1 n=d#5 v=64
11878 On ch=1 n=d#5 v=0
11878 On ch=1 n=d#4 v=0
11880 On ch=1 n=d4 v=64
11880 On ch=1 n=d5 v=64
11938 On ch=1 n=d5 v=0
11938 On ch=1 n=d4 v=0
11940 On ch=1 n=c4 v=64
11940 On ch=1 n=c5 v=64
11998 On ch=1 n=c5 v=0
11998 On ch=1 n=c4 v=0
12000 On ch=1 n=a#3 v=64
12000 On ch=1 n=a#4 v=64
12178 On ch=1 n=a#4 v=0
12178 On ch=1 n=a#3 v=0
12200 Par ch=1 c=64 v=0
12240 On ch=1 n=g3 v=64
12240 On ch=1 n=d#3 v=64
12240 On ch=1 n=g2 v=64
12240 On ch=1 n=a#6 v=64
12240 On ch=1 n=d6 v=64
12240 On ch=1 n=a#5 v=64
12240 Par ch=1 c=64 v=96
12418 On ch=1 n=a#5 v=0
12418 On ch=1 n=d6 v=0
12418 On ch=1 n=a#6 v=0
12418 On ch=1 n=g2 v=0
12418 On ch=1 n=d#3 v=0
12418 On ch=1 n=g3 v=0
12480 On ch=1 n=g3 v=64
12480 On ch=1 n=d#3 v=64
12480 On ch=1 n=g2 v=64
12480 On ch=1 n=d#7 v=64
12480 On ch=1 n=a#6 v=64
12480 On ch=1 n=d6 v=64
12658 On ch=1 n=d6 v=0
12658 On ch=1 n=a#6 v=0
12658 On ch=1 n=d#7 v=0
12658 On ch=1 n=g2 v=0
12658 On ch=1 n=d#3 v=0
12658 On ch=1 n=g3 v=0
12680 Par ch=1 c=64 v=0
12720 On ch=1 n=g#3 v=64
12720 On ch=1 n=d#3 v=64
12720 On ch=1 n=g#2 v=64
12720 On ch=1 n=d#7 v=64
12720 On ch=1 n=g#6 v=64
12720 On ch=1 n=c6 v=64
12720 Par ch=1 c=64 v=96
12898 On ch=1 n=c6 v=0
12898 On ch=1 n=g#6 v=0
12898 On ch=1 n=d#7 v=0
12898 On ch=1 n=g#2 v=0
12898 On ch=1 n=d#3 v=0
12898 On ch=1 n=g#3 v=0
12960 On ch=1 n=g#3 v=64
12960 On ch=1 n=g#4 v=64
13018 On ch=1 n=g#4 v=0
13018 On ch=1 n=g#3 v=0
13020 On ch=1 n=a#3 v=64
13020 On ch=1 n=a#4 v=64
13078 On ch=1 n=a#4 v=0
13078 On ch=1 n=a#3 v=0
13080 On ch=1 n=c4 v=64
13080 On ch=1 n=c5 v=64
13138 On ch=1 n=c5 v=0
13138 On ch=1 n=c4 v=0
13140 On ch=1 n=d4 v=64
13140 On ch=1 n=d5 v=64
13198 On ch=1 n=d5 v=0
13198 On ch=1 n=d4 v=0
13200 On ch=1 n=d#4 v=64
13200 On ch=1 n=d#5 v=64
13378 On ch=1 n=d#5 v=0
13378 On ch=1 n=d#4 v=0
13400 Par ch=1 c=64 v=0
13440 On ch=1 n=f3 v=64
13440 On ch=1 n=d3 v=64
13440 On ch=1 n=f2 v=64
13440 On ch=1 n=d7 v=64
13440 On ch=1 n=c7 v=64
13440 On ch=1 n=g#6 v=64
13440 On ch=1 n=d6 v=64
13440 Par ch=1 c=64 v=96
13618 On ch=1 n=d6 v=0
13618 On ch=1 n=g#6 v=0
13618 On ch=1 n=c7 v=0
13618 On ch=1 n=d7 v=0
13618 On ch=1 n=f2 v=0
13618 On ch=1 n=d3 v=0
13618 On ch=1 n=f3 v=0
13680 On ch=1 n=f3 v=64
13680 On ch=1 n=d3 v=64
13680 On ch=1 n=f2 v=64
13680 On ch=1 n=g#7 v=64
13680 On ch=1 n=c7 v=64
13680 On ch=1 n=g#6 v=64
13858 On ch=1 n=g#6 v=0
13858 On ch=1 n=c7 v=0
13858 On ch=1 n=g#7 v=0
13858 On ch=1 n=f2 v=0
13858 On ch=1 n=d3 v=0
13858 On ch=1 n=f3 v=0
13880 Par ch=1 c=64 v=0
13920 On ch=1 n=g3 v=64
13920 On ch=1 n=d3 v=64
13920 On ch=1 n=g2 v=64
13920 On ch=1 n=g#7 v=64
13920 On ch=1 n=g#6 v=64
13920 On ch=1 n=b6 v=64
13920 Par ch=1 c=64 v=96
14098 On ch=1 n=b6 v=0
14098 On ch=1 n=g#6 v=0
14098 On ch=1 n=g#7 v=0
14098 On ch=1 n=g2 v=0
14098 On ch=1 n=d3 v=0
14098 On ch=1 n=g3 v=0
14160 On ch=1 n=d4 v=64
14160 On ch=1 n=d5 v=64
14218 On ch=1 n=d5 v=0
14218 On ch=1 n=d4 v=0
14220 On ch=1 n=c4 v=64
14220 On ch=1 n=c5 v=64
14278 On ch=1 n=c5 v=0
14278 On ch=1 n=c4 v=0
14280 On ch=1 n=b3 v=64
14280 On ch=1 n=b4 v=64
14338 On ch=1 n=b4 v=0
14338 On ch=1 n=b3 v=0
14340 On ch=1 n=g#3 v=64
14340 On ch=1 n=g#4 v=64
14398 On ch=1 n=g#4 v=0
14398 On ch=1 n=g#3 v=0
14400 On ch=1 n=g3 v=64
14400 On ch=1 n=g4 v=64
14578 On ch=1 n=g4 v=0
14578 On ch=1 n=g3 v=0
14600 Par ch=1 c=64 v=0
14640 On ch=1 n=g7 v=64
14640 On ch=1 n=a#6 v=64
14640 On ch=1 n=g6 v=64
14640 On ch=1 n=e3 v=64
14640 On ch=1 n=c#4 v=64
14640 On ch=1 n=e4 v=64
14640 On ch=1 n=c#7 v=64
14640 Par ch=1 c=64 v=96
14818 On ch=1 n=c#7 v=0
14818 On ch=1 n=e4 v=0
14818 On ch=1 n=c#4 v=0
14818 On ch=1 n=e3 v=0
14818 On ch=1 n=g6 v=0
14818 On ch=1 n=a#6 v=0
14818 On ch=1 n=g7 v=0
14880 On ch=1 n=c4 v=64
14880 On ch=1 n=c8 v=64
14880 On ch=1 n=a#7 v=64
14880 On ch=1 n=g7 v=64
14880 On ch=1 n=c7 v=64
14880 On ch=1 n=e3 v=64
14880 On ch=1 n=e4 v=64
15058 On ch=1 n=e4 v=0
15058 On ch=1 n=e3 v=0
15058 On ch=1 n=c7 v=0
15058 On ch=1 n=g7 v=0
15058 On ch=1 n=a#7 v=0
15058 On ch=1 n=c8 v=0
15058 On ch=1 n=c4 v=0
15080 Par ch=1 c=64 v=0
15120 On ch=1 n=f4 v=64
15120 On ch=1 n=c4 v=64
15120 On ch=1 n=f3 v=64
15120 On ch=1 n=c8 v=64
15120 On ch=1 n=g#7 v=64
15120 On ch=1 n=c7 v=64
15120 Par ch=1 c=64 v=96
15298 On ch=1 n=c7 v=0
15298 On ch=1 n=g#7 v=0
15298 On ch=1 n=c8 v=0
15298 On ch=1 n=f3 v=0
15298 On ch=1 n=c4 v=0
15298 On ch=1 n=f4 v=0
15360 On ch=1 n=b3 v=64
15360 On ch=1 n=b4 v=64
15418 On ch=1 n=b4 v=0
15418 On ch=1 n=b3 v=0
15420 On ch=1 n=c4 v=64
15420 On ch=1 n=c5 v=64
15478 On ch=1 n=c5 v=0
15478 On ch=1 n=c4 v=0
15480 On ch=1 n=d4 v=64
15480 On ch=1 n=d5 v=64
15538 On ch=1 n=d5 v=0
15538 On ch=1 n=d4 v=0
15540 On ch=1 n=e4 v=64
15540 On ch=1 n=e5 v=64
15598 On ch=1 n=e5 v=0
15598 On ch=1 n=e4 v=0
15600 On ch=1 n=f4 v=64
15600 On ch=1 n=f5 v=64
15778 On ch=1 n=f5 v=0
15778 On ch=1 n=f4 v=0
15800 Par ch=1 c=64 v=0
15840 On ch=1 n=f8 v=64
15840 On ch=1 n=g#7 v=64
15840 On ch=1 n=f7 v=64
15840 On ch=1 n=g#3 v=64
15840 On ch=1 n=c#3 v=64
15840 On ch=1 n=c#4 v=64
15840 Par ch=1 c=64 v=96
16018 On ch=1 n=c#4 v=0
16018 On ch=1 n=c#3 v=0
16018 On ch=1 n=g#3 v=0
16018 On ch=1 n=f7 v=0
16018 On ch=1 n=g#7 v=0
16018 On ch=1 n=f8 v=0
16080 On ch=1 n=c#4 v=64
16080 On ch=1 n=c#5 v=64
16138 On ch=1 n=c#5 v=0
16138 On ch=1 n=c#4 v=0
16140 On ch=1 n=d#4 v=64
16140 On ch=1 n=d#5 v=64
16198 On ch=1 n=d#5 v=0
16198 On ch=1 n=d#4 v=0
16200 On ch=1 n=f4 v=64
16200 On ch=1 n=f5 v=64
16258 On ch=1 n=f5 v=0
16258 On ch=1 n=f4 v=0
16260 On ch=1 n=f#4 v=64
16260 On ch=1 n=f#5 v=64
16318 On ch=1 n=f#5 v=0
16318 On ch=1 n=f#4 v=0
16320 On ch=1 n=g#4 v=64
16320 On ch=1 n=g#5 v=64
16558 On ch=1 n=g#5 v=0
16558 On ch=1 n=g#4 v=0
16560 On ch=1 n=c#5 v=64
16560 On ch=1 n=c#6 v=64
16618 On ch=1 n=c#6 v=0
16618 On ch=1 n=c#5 v=0
16620 On ch=1 n=d#5 v=64
16620 On ch=1 n=d#6 v=64
16678 On ch=1 n=d#6 v=0
16678 On ch=1 n=d#5 v=0
16680 On ch=1 n=f5 v=64
16680 On ch=1 n=f6 v=64
16738 On ch=1 n=f6 v=0
16738 On ch=1 n=f5 v=0
16740 On ch=1 n=f#5 v=64
16740 On ch=1 n=f#6 v=64
16798 On ch=1 n=f#6 v=0
16798 On ch=1 n=f#5 v=0
16800 On ch=1 n=g#5 v=64
16800 On ch=1 n=g#6 v=64
17038 On ch=1 n=g#6 v=0
17038 On ch=1 n=g#5 v=0
17040 On ch=1 n=c#6 v=64
17040 On ch=1 n=c#7 v=64
17098 On ch=1 n=c#7 v=0
17098 On ch=1 n=c#6 v=0
17100 On ch=1 n=d#6 v=64
17100 On ch=1 n=d#7 v=64
17158 On ch=1 n=d#7 v=0
17158 On ch=1 n=d#6 v=0
17160 On ch=1 n=f6 v=64
17160 On ch=1 n=f7 v=64
17218 On ch=1 n=f7 v=0
17218 On ch=1 n=f6 v=0
17220 On ch=1 n=f#6 v=64
17220 On ch=1 n=f#7 v=64
17278 On ch=1 n=f#7 v=0
17278 On ch=1 n=f#6 v=0
17280 On ch=1 n=g#6 v=64
17280 On ch=1 n=g#7 v=64
17480 Par ch=1 c=64 v=0
17518 On ch=1 n=g#7 v=0
17518 On ch=1 n=g#6 v=0
17640 On ch=1 n=f4 v=64
17640 On ch=1 n=f3 v=64
17640 On ch=1 n=f7 v=64
17640 On ch=1 n=c#4 v=64
17640 On ch=1 n=c#7 v=64
17640 On ch=1 n=c#8 v=64
17660 Par ch=1 c=64 v=96
17728 On ch=1 n=c#8 v=0
17728 On ch=1 n=c#7 v=0
17728 On ch=1 n=c#4 v=0
17728 On ch=1 n=f7 v=0
17728 On ch=1 n=f3 v=0
17728 On ch=1 n=f4 v=0
17760 On ch=1 n=f4 v=64
17760 On ch=1 n=f3 v=64
17760 On ch=1 n=f7 v=64
17760 On ch=1 n=c#4 v=64
17760 On ch=1 n=c#7 v=64
17760 On ch=1 n=c#8 v=64
17938 On ch=1 n=c#8 v=0
17938 On ch=1 n=c#7 v=0
17938 On ch=1 n=c#4 v=0
17938 On ch=1 n=f7 v=0
17938 On ch=1 n=f3 v=0
17938 On ch=1 n=f4 v=0
18000 On ch=1 n=g#4 v=64
18000 On ch=1 n=f4 v=64
18000 On ch=1 n=g#3 v=64
18000 On ch=1 n=g#7 v=64
18000 On ch=1 n=g#6 v=64
18000 On ch=1 n=c#7 v=64
18178 On ch=1 n=c#7 v=0
18178 On ch=1 n=g#6 v=0
18178 On ch=1 n=g#7 v=0
18178 On ch=1 n=g#3 v=0
18178 On ch=1 n=f4 v=0
18178 On ch=1 n=g#4 v=0
18360 On ch=1 n=g#4 v=64
18360 On ch=1 n=c#5 v=64
18360 On ch=1 n=c#4 v=64
18360 On ch=1 n=f7 v=64
18360 On ch=1 n=g#6 v=64
18360 On ch=1 n=f6 v=64
18448 On ch=1 n=f6 v=0
18448 On ch=1 n=g#6 v=0
18448 On ch=1 n=f7 v=0
18448 On ch=1 n=c#4 v=0
18448 On ch=1 n=c#5 v=0
18448 On ch=1 n=g#4 v=0
18480 On ch=1 n=g#4 v=64
18480 On ch=1 n=c#5 v=64
18480 On ch=1 n=c#4 v=64
18480 On ch=1 n=f7 v=64
18480 On ch=1 n=g#6 v=64
18480 On ch=1 n=f6 v=64
18658 On ch=1 n=f6 v=0
18658 On ch=1 n=g#6 v=0
18658 On ch=1 n=f7 v=0
18658 On ch=1 n=c#4 v=0
18658 On ch=1 n=c#5 v=0
18658 On ch=1 n=g#4 v=0
18960 Par ch=1 c=64 v=0
19080 On ch=1 n=f5 v=64
19080 On ch=1 n=g#4 v=64
19080 On ch=1 n=f4 v=64
19080 On ch=1 n=g#6 v=64
19080 On ch=1 n=f6 v=64
19080 On ch=1 n=c#5 v=64
19080 On ch=1 n=c#6 v=64
19080 On ch=1 n=c#7 v=64
19100 Par ch=1 c=64 v=96
19168 On ch=1 n=c#7 v=0
19168 On ch=1 n=c#6 v=0
19168 On ch=1 n=c#5 v=0
19168 On ch=1 n=f6 v=0
19168 On ch=1 n=g#6 v=0
19168 On ch=1 n=f4 v=0
19168 On ch=1 n=g#4 v=0
19168 On ch=1 n=f5 v=0
19200 On ch=1 n=f5 v=64
19200 On ch=1 n=g#4 v=64
19200 On ch=1 n=f4 v=64
19200 On ch=1 n=g#6 v=64
19200 On ch=1 n=f6 v=64
19200 On ch=1 n=c#5 v=64
19200 On ch=1 n=c#6 v=64
19200 On ch=1 n=c#7 v=64
19378 On ch=1 n=c#7 v=0
19378 On ch=1 n=c#6 v=0
19378 On ch=1 n=c#5 v=0
19378 On ch=1 n=f6 v=0
19378 On ch=1 n=g#6 v=0
19378 On ch=1 n=f4 v=0
19378 On ch=1 n=g#4 v=0
19378 On ch=1 n=f5 v=0
19400 Par ch=1 c=64 v=0
19440 On ch=1 n=c5 v=64
19440 On ch=1 n=g#4 v=64
19440 On ch=1 n=c7 v=64
19440 On ch=1 n=g#6 v=64
19440 On ch=1 n=c6 v=64
19440 On ch=1 n=e5 v=64
19440 On ch=1 n=e4 v=64
19440 On ch=1 n=e6 v=64
19440 Par ch=1 c=64 v=96
19618 On ch=1 n=e6 v=0
19618 On ch=1 n=e4 v=0
19618 On ch=1 n=e5 v=0
19618 On ch=1 n=c6 v=0
19618 On ch=1 n=g#6 v=0
19618 On ch=1 n=c7 v=0
19618 On ch=1 n=g#4 v=0
19618 On ch=1 n=c5 v=0
19680 On ch=1 n=f5 v=64
19680 On ch=1 n=g#4 v=64
19680 On ch=1 n=f4 v=64
19680 On ch=1 n=g#6 v=64
19680 On ch=1 n=f6 v=64
19680 On ch=1 n=c#5 v=64
19680 On ch=1 n=c#6 v=64
19680 On ch=1 n=c#7 v=64
19858 On ch=1 n=c#7 v=0
19858 On ch=1 n=c#6 v=0
19858 On ch=1 n=c#5 v=0
19858 On ch=1 n=f6 v=0
19858 On ch=1 n=g#6 v=0
19858 On ch=1 n=f4 v=0
19858 On ch=1 n=g#4 v=0
19858 On ch=1 n=f5 v=0
19920 Par ch=1 c=64 v=0
20160 On ch=1 n=g#4 v=64
20160 On ch=1 n=f4 v=64
20160 On ch=1 n=f7 v=64
20160 On ch=1 n=d7 v=64
20160 On ch=1 n=g#6 v=64
20160 On ch=1 n=f6 v=64
20160 On ch=1 n=b3 v=64
20160 On ch=1 n=b4 v=64
20160 Par ch=1 c=64 v=96
20398 On ch=1 n=b4 v=0
20398 On ch=1 n=b3 v=0
20398 On ch=1 n=f6 v=0
20398 On ch=1 n=g#6 v=0
20398 On ch=1 n=d7 v=0
20398 On ch=1 n=f7 v=0
20398 On ch=1 n=f4 v=0
20398 On ch=1 n=g#4 v=0
20520 On ch=1 n=c#4 v=64
20520 On ch=1 n=c#5 v=64
20520 On ch=1 n=c#6 v=64
20520 On ch=1 n=c#7 v=64
20638 On ch=1 n=c#7 v=0
20638 On ch=1 n=c#6 v=0
20638 On ch=1 n=c#5 v=0
20638 On ch=1 n=c#4 v=0
20640 On ch=1 n=d4 v=64
20640 On ch=1 n=d5 v=64
20640 On ch=1 n=d7 v=64
20640 On ch=1 n=d6 v=64
20840 Par ch=1 c=64 v=0
20878 On ch=1 n=d6 v=0
20878 On ch=1 n=d7 v=0
20878 On ch=1 n=d5 v=0
20878 On ch=1 n=d4 v=0
20880 On ch=1 n=d#5 v=64
20880 On ch=1 n=c5 v=64
20880 On ch=1 n=d#4 v=64
20880 On ch=1 n=d#7 v=64
20880 On ch=1 n=d#6 v=64
20880 On ch=1 n=a6 v=64
20880 On ch=1 n=f#6 v=64
20880 On ch=1 n=f#4 v=64
20880 Par ch=1 c=64 v=96
21118 On ch=1 n=f#4 v=0
21118 On ch=1 n=f#6 v=0
21118 On ch=1 n=a6 v=0
21118 On ch=1 n=d#6 v=0
21118 On ch=1 n=d#7 v=0
21118 On ch=1 n=d#4 v=0
21118 On ch=1 n=c5 v=0
21118 On ch=1 n=d#5 v=0
21240 On ch=1 n=b3 v=64
21240 On ch=1 n=b4 v=64
21240 On ch=1 n=b5 v=64
21240 On ch=1 n=b6 v=64
21358 On ch=1 n=b6 v=0
21358 On ch=1 n=b5 v=0
21358 On ch=1 n=b4 v=0
21358 On ch=1 n=b3 v=0
21360 On ch=1 n=c4 v=64
21360 On ch=1 n=c5 v=64
21360 On ch=1 n=c6 v=64
21360 On ch=1 n=c7 v=64
21598 On ch=1 n=c7 v=0
21598 On ch=1 n=c6 v=0
21598 On ch=1 n=c5 v=0
21598 On ch=1 n=c4 v=0
21600 On ch=1 n=g5 v=64
21600 On ch=1 n=d5 v=64
21600 On ch=1 n=g4 v=64
21600 On ch=1 n=g7 v=64
21600 On ch=1 n=g6 v=64
21600 On ch=1 n=b4 v=64
21600 On ch=1 n=b6 v=64
21838 On ch=1 n=b6 v=0
21838 On ch=1 n=b4 v=0
21838 On ch=1 n=g6 v=0
21838 On ch=1 n=g7 v=0
21838 On ch=1 n=g4 v=0
21838 On ch=1 n=d5 v=0
21838 On ch=1 n=g5 v=0
21840 Par ch=1 c=7 v=120
21840 On ch=1 n=d3 v=64
21840 Par ch=1 c=64 v=0
21960 On ch=1 n=d4 v=64
22078 On ch=1 n=d4 v=0
22078 On ch=1 n=d3 v=0
22079 Par ch=1 c=7 v=121
22080 On ch=1 n=c3 v=64
22200 On ch=1 n=c4 v=64
22318 On ch=1 n=c4 v=0
22318 On ch=1 n=c3 v=0
22319 Par ch=1 c=7 v=122
22320 On ch=1 n=b2 v=64
22440 On ch=1 n=b3 v=64
22558 On ch=1 n=b3 v=0
22558 On ch=1 n=b2 v=0
22559 Par ch=1 c=7 v=123
22560 On ch=1 n=g#2 v=64
22680 On ch=1 n=g#3 v=64
22798 On ch=1 n=g#3 v=0
22798 On ch=1 n=g#2 v=0
22799 Par ch=1 c=7 v=124
22800 On ch=1 n=g2 v=64
22800 Par ch=1 c=64 v=96
22920 On ch=1 n=g3 v=64
23038 On ch=1 n=g3 v=0
23038 On ch=1 n=g2 v=0
23039 Par ch=1 c=7 v=125
23040 On ch=1 n=d#4 v=64
23040 On ch=1 n=c4 v=64
23040 On ch=1 n=g3 v=64
23040 On ch=1 n=d#7 v=64
23040 On ch=1 n=d#6 v=64
23040 On ch=1 n=a3 v=64
23040 On ch=1 n=f#4 v=64
23040 On ch=1 n=f#6 v=64
23278 On ch=1 n=f#6 v=0
23278 On ch=1 n=f#4 v=0
23278 On ch=1 n=a3 v=0
23278 On ch=1 n=d#6 v=0
23278 On ch=1 n=d#7 v=0
23278 On ch=1 n=g3 v=0
23278 On ch=1 n=c4 v=0
23278 On ch=1 n=d#4 v=0
23400 On ch=1 n=d#4 v=64
23400 On ch=1 n=c4 v=64
23400 On ch=1 n=g3 v=64
23400 On ch=1 n=c6 v=64
23400 On ch=1 n=d#6 v=64
23400 On ch=1 n=c7 v=64
23400 On ch=1 n=a3 v=64
23400 On ch=1 n=f#4 v=64
23518 On ch=1 n=f#4 v=0
23518 On ch=1 n=a3 v=0
23518 On ch=1 n=c7 v=0
23518 On ch=1 n=d#6 v=0
23518 On ch=1 n=c6 v=0
23518 On ch=1 n=g3 v=0
23518 On ch=1 n=c4 v=0
23518 On ch=1 n=d#4 v=0
23520 On ch=1 n=d#4 v=64
23520 On ch=1 n=c4 v=64
23520 On ch=1 n=g3 v=64
23520 On ch=1 n=c7 v=64
23520 On ch=1 n=d#6 v=64
23520 On ch=1 n=c6 v=64
23520 On ch=1 n=a3 v=64
23520 On ch=1 n=f#4 v=64
23758 On ch=1 n=f#4 v=0
23758 On ch=1 n=a3 v=0
23758 On ch=1 n=c6 v=0
23758 On ch=1 n=d#6 v=0
23758 On ch=1 n=c7 v=0
23758 On ch=1 n=g3 v=0
23758 On ch=1 n=c4 v=0
23758 On ch=1 n=d#4 v=0
24120 On ch=1 n=d#4 v=64
24120 On ch=1 n=c4 v=64
24120 On ch=1 n=g3 v=64
24120 On ch=1 n=c6 v=64
24120 On ch=1 n=a3 v=64
24120 On ch=1 n=f#4 v=64
24120 On ch=1 n=a5 v=64
24120 On ch=1 n=a6 v=64
24238 On ch=1 n=a6 v=0
24238 On ch=1 n=a5 v=0
24238 On ch=1 n=f#4 v=0
24238 On ch=1 n=a3 v=0
24238 On ch=1 n=c6 v=0
24238 On ch=1 n=g3 v=0
24238 On ch=1 n=c4 v=0
24238 On ch=1 n=d#4 v=0
24240 On ch=1 n=d#4 v=64
24240 On ch=1 n=c4 v=64
24240 On ch=1 n=g3 v=64
24240 On ch=1 n=c6 v=64
24240 On ch=1 n=a3 v=64
24240 On ch=1 n=f#4 v=64
24240 On ch=1 n=a5 v=64
24240 On ch=1 n=a6 v=64
24478 On ch=1 n=a6 v=0
24478 On ch=1 n=a5 v=0
24478 On ch=1 n=f#4 v=0
24478 On ch=1 n=a3 v=0
24478 On ch=1 n=c6 v=0
24478 On ch=1 n=g3 v=0
24478 On ch=1 n=c4 v=0
24478 On ch=1 n=d#4 v=0
24720 On ch=1 n=d#4 v=64
24720 On ch=1 n=c4 v=64
24720 On ch=1 n=g3 v=64
24720 On ch=1 n=a3 v=64
24720 On ch=1 n=f#4 v=64
24720 On ch=1 n=f#5 v=64
24720 On ch=1 n=f#6 v=64
24838 On ch=1 n=f#6 v=0
24838 On ch=1 n=f#5 v=0
24838 On ch=1 n=f#4 v=0
24838 On ch=1 n=a3 v=0
24838 On ch=1 n=g3 v=0
24838 On ch=1 n=c4 v=0
24838 On ch=1 n=d#4 v=0
24840 On ch=1 n=d#4 v=64
24840 On ch=1 n=c4 v=64
24840 On ch=1 n=g3 v=64
24840 On ch=1 n=d#5 v=64
24840 On ch=1 n=d#6 v=64
24840 On ch=1 n=a3 v=64
24840 On ch=1 n=f#4 v=64
24958 On ch=1 n=f#4 v=0
24958 On ch=1 n=a3 v=0
24958 On ch=1 n=d#6 v=0
24958 On ch=1 n=d#5 v=0
24958 On ch=1 n=g3 v=0
24958 On ch=1 n=c4 v=0
24958 On ch=1 n=d#4 v=0
24960 On ch=1 n=d#4 v=64
24960 On ch=1 n=c4 v=64
24960 On ch=1 n=g3 v=64
24960 On ch=1 n=d5 v=64
24960 On ch=1 n=d6 v=64
24960 On ch=1 n=a3 v=64
24960 On ch=1 n=f#4 v=64
25078 On ch=1 n=f#4 v=0
25078 On ch=1 n=a3 v=0
25078 On ch=1 n=d6 v=0
25078 On ch=1 n=d5 v=0
25078 On ch=1 n=g3 v=0
25078 On ch=1 n=c4 v=0
25078 On ch=1 n=d#4 v=0
25080 On ch=1 n=d#4 v=64
25080 On ch=1 n=c4 v=64
25080 On ch=1 n=g3 v=64
25080 On ch=1 n=c5 v=64
25080 On ch=1 n=c6 v=64
25080 On ch=1 n=a3 v=64
25080 On ch=1 n=f#4 v=64
25198 On ch=1 n=f#4 v=0
25198 On ch=1 n=a3 v=0
25198 On ch=1 n=c6 v=0
25198 On ch=1 n=c5 v=0
25198 On ch=1 n=g3 v=0
25198 On ch=1 n=c4 v=0
25198 On ch=1 n=d#4 v=0
25200 On ch=1 n=g4 v=64
25200 On ch=1 n=d4 v=64
25200 On ch=1 n=g3 v=64
25200 On ch=1 n=g6 v=64
25200 On ch=1 n=g5 v=64
25200 On ch=1 n=b3 v=64
25200 On ch=1 n=b5 v=64
25438 On ch=1 n=b5 v=0
25438 On ch=1 n=b3 v=0
25438 On ch=1 n=g5 v=0
25438 On ch=1 n=g6 v=0
25438 On ch=1 n=g3 v=0
25438 On ch=1 n=d4 v=0
25438 On ch=1 n=g4 v=0
25440 Par ch=1 c=7 v=120
25440 On ch=1 n=d3 v=64
25440 Par ch=1 c=64 v=0
25560 On ch=1 n=d4 v=64
25678 On ch=1 n=d4 v=0
25678 On ch=1 n=d3 v=0
25679 Par ch=1 c=7 v=121
25680 On ch=1 n=c3 v=64
25800 On ch=1 n=c4 v=64
25918 On ch=1 n=c4 v=0
25918 On ch=1 n=c3 v=0
25919 Par ch=1 c=7 v=122
25920 On ch=1 n=b2 v=64
26040 On ch=1 n=b3 v=64
26158 On ch=1 n=b3 v=0
26158 On ch=1 n=b2 v=0
26159 Par ch=1 c=7 v=123
26160 On ch=1 n=g#2 v=64
26280 On ch=1 n=g#3 v=64
26398 On ch=1 n=g#3 v=0
26398 On ch=1 n=g#2 v=0
26399 Par ch=1 c=7 v=124
26400 On ch=1 n=g2 v=64
26400 Par ch=1 c=64 v=96
26520 On ch=1 n=g3 v=64
26638 On ch=1 n=g3 v=0
26638 On ch=1 n=g2 v=0
26639 Par ch=1 c=7 v=125
26640 On ch=1 n=d#4 v=64
26640 On ch=1 n=c4 v=64
26640 On ch=1 n=g3 v=64
26640 On ch=1 n=d#7 v=64
26640 On ch=1 n=d#6 v=64
26640 On ch=1 n=a3 v=64
26640 On ch=1 n=f#4 v=64
26640 On ch=1 n=f#6 v=64
26878 On ch=1 n=f#6 v=0
26878 On ch=1 n=f#4 v=0
26878 On ch=1 n=a3 v=0
26878 On ch=1 n=d#6 v=0
26878 On ch=1 n=d#7 v=0
26878 On ch=1 n=g3 v=0
26878 On ch=1 n=c4 v=0
26878 On ch=1 n=d#4 v=0
27000 On ch=1 n=c7 v=64
27000 On ch=1 n=d#6 v=64
27000 On ch=1 n=c6 v=64
27000 On ch=1 n=d#4 v=64
27000 On ch=1 n=c4 v=64
27000 On ch=1 n=g3 v=64
27000 On ch=1 n=a3 v=64
27000 On ch=1 n=f#4 v=64
27118 On ch=1 n=f#4 v=0
27118 On ch=1 n=a3 v=0
27118 On ch=1 n=g3 v=0
27118 On ch=1 n=c4 v=0
27118 On ch=1 n=d#4 v=0
27118 On ch=1 n=c6 v=0
27118 On ch=1 n=d#6 v=0
27118 On ch=1 n=c7 v=0
27120 On ch=1 n=d#4 v=64
27120 On ch=1 n=c4 v=64
27120 On ch=1 n=g3 v=64
27120 On ch=1 n=c6 v=64
27120 On ch=1 n=d#6 v=64
27120 On ch=1 n=c7 v=64
27120 On ch=1 n=a3 v=64
27120 On ch=1 n=f#4 v=64
27358 On ch=1 n=f#4 v=0
27358 On ch=1 n=a3 v=0
27358 On ch=1 n=c7 v=0
27358 On ch=1 n=d#6 v=0
27358 On ch=1 n=c6 v=0
27358 On ch=1 n=g3 v=0
27358 On ch=1 n=c4 v=0
27358 On ch=1 n=d#4 v=0
27720 On ch=1 n=d#4 v=64
27720 On ch=1 n=c4 v=64
27720 On ch=1 n=g3 v=64
27720 On ch=1 n=a3 v=64
27720 On ch=1 n=f#4 v=64
27720 On ch=1 n=a5 v=64
27720 On ch=1 n=a6 v=64
27838 On ch=1 n=a6 v=0
27838 On ch=1 n=a5 v=0
27838 On ch=1 n=f#4 v=0
27838 On ch=1 n=a3 v=0
27838 On ch=1 n=g3 v=0
27838 On ch=1 n=c4 v=0
27838 On ch=1 n=d#4 v=0
27840 On ch=1 n=d#4 v=64
27840 On ch=1 n=c4 v=64
27840 On ch=1 n=g3 v=64
27840 On ch=1 n=a3 v=64
27840 On ch=1 n=f#4 v=64
27840 On ch=1 n=a5 v=64
27840 On ch=1 n=a6 v=64
28078 On ch=1 n=a6 v=0
28078 On ch=1 n=a5 v=0
28078 On ch=1 n=f#4 v=0
28078 On ch=1 n=a3 v=0
28078 On ch=1 n=g3 v=0
28078 On ch=1 n=c4 v=0
28078 On ch=1 n=d#4 v=0
28320 On ch=1 n=d#4 v=64
28320 On ch=1 n=c4 v=64
28320 On ch=1 n=g3 v=64
28320 On ch=1 n=f#5 v=64
28320 On ch=1 n=f#6 v=64
28320 On ch=1 n=a3 v=64
28320 On ch=1 n=f#4 v=64
28438 On ch=1 n=f#4 v=0
28438 On ch=1 n=a3 v=0
28438 On ch=1 n=f#6 v=0
28438 On ch=1 n=f#5 v=0
28438 On ch=1 n=g3 v=0
28438 On ch=1 n=c4 v=0
28438 On ch=1 n=d#4 v=0
28440 On ch=1 n=d#4 v=64
28440 On ch=1 n=c4 v=64
28440 On ch=1 n=g3 v=64
28440 On ch=1 n=d#5 v=64
28440 On ch=1 n=d#6 v=64
28440 On ch=1 n=a3 v=64
28440 On ch=1 n=f#4 v=64
28558 On ch=1 n=f#4 v=0
28558 On ch=1 n=a3 v=0
28558 On ch=1 n=d#6 v=0
28558 On ch=1 n=d#5 v=0
28558 On ch=1 n=g3 v=0
28558 On ch=1 n=c4 v=0
28558 On ch=1 n=d#4 v=0
28560 On ch=1 n=d#4 v=64
28560 On ch=1 n=c4 v=64
28560 On ch=1 n=g3 v=64
28560 On ch=1 n=d5 v=64
28560 On ch=1 n=d6 v=64
28560 On ch=1 n=a3 v=64
28560 On ch=1 n=f#4 v=64
28678 On ch=1 n=f#4 v=0
28678 On ch=1 n=a3 v=0
28678 On ch=1 n=d6 v=0
28678 On ch=1 n=d5 v=0
28678 On ch=1 n=g3 v=0
28678 On ch=1 n=c4 v=0
28678 On ch=1 n=d#4 v=0
28680 On ch=1 n=d#4 v=64
28680 On ch=1 n=c4 v=64
28680 On ch=1 n=g3 v=64
28680 On ch=1 n=c5 v=64
28680 On ch=1 n=c6 v=64
28680 On ch=1 n=a3 v=64
28680 On ch=1 n=f#4 v=64
28798 On ch=1 n=f#4 v=0
28798 On ch=1 n=a3 v=0
28798 On ch=1 n=c6 v=0
28798 On ch=1 n=c5 v=0
28798 On ch=1 n=g3 v=0
28798 On ch=1 n=c4 v=0
28798 On ch=1 n=d#4 v=0
28800 On ch=1 n=g6 v=64
28800 On ch=1 n=g5 v=64
28800 On ch=1 n=g4 v=64
28800 On ch=1 n=d4 v=64
28800 On ch=1 n=g3 v=64
28800 On ch=1 n=b3 v=64
28800 On ch=1 n=b5 v=64
29038 On ch=1 n=b5 v=0
29038 On ch=1 n=b3 v=0
29038 On ch=1 n=g3 v=0
29038 On ch=1 n=d4 v=0
29038 On ch=1 n=g4 v=0
29038 On ch=1 n=g5 v=0
29038 On ch=1 n=g6 v=0
29040 Par ch=1 c=7 v=105
29040 On ch=1 n=d3 v=64
29040 On ch=1 n=d4 v=64
29040 Par ch=1 c=64 v=0
29160 On ch=1 n=d5 v=64
29199 Par ch=1 c=7 v=106
29278 On ch=1 n=d5 v=0
29278 On ch=1 n=d4 v=0
29278 On ch=1 n=d3 v=0
29280 On ch=1 n=c3 v=64
29280 On ch=1 n=c4 v=64
29359 Par ch=1 c=7 v=107
29400 On ch=1 n=c5 v=64
29518 On ch=1 n=c5 v=0
29518 On ch=1 n=c4 v=0
29518 On ch=1 n=c3 v=0
29519 Par ch=1 c=7 v=108
29520 On ch=1 n=b2 v=64
29520 On ch=1 n=b3 v=64
29640 On ch=1 n=b4 v=64
29679 Par ch=1 c=7 v=109
29758 On ch=1 n=b4 v=0
29758 On ch=1 n=b3 v=0
29758 On ch=1 n=b2 v=0
29760 On ch=1 n=g#2 v=64
29760 On ch=1 n=g#3 v=64
29839 Par ch=1 c=7 v=110
29880 On ch=1 n=g#4 v=64
29998 On ch=1 n=g#4 v=0
29998 On ch=1 n=g#3 v=0
29998 On ch=1 n=g#2 v=0
29999 Par ch=1 c=7 v=111
30000 On ch=1 n=g2 v=64
30000 On ch=1 n=g3 v=64
30120 On ch=1 n=g4 v=64
30159 Par ch=1 c=7 v=112
30238 On ch=1 n=g4 v=0
30238 On ch=1 n=g3 v=0
30238 On ch=1 n=g2 v=0
30240 On ch=1 n=g#3 v=64
30240 On ch=1 n=g#4 v=64
30240 Par ch=1 c=64 v=96
30319 Par ch=1 c=7 v=113
30360 On ch=1 n=g#5 v=64
30478 On ch=1 n=g#5 v=0
30478 On ch=1 n=g#4 v=0
30478 On ch=1 n=g#3 v=0
30479 Par ch=1 c=7 v=114
30480 On ch=1 n=f#3 v=64
30480 On ch=1 n=f#4 v=64
30600 On ch=1 n=f#5 v=64
30639 Par ch=1 c=7 v=115
30718 On ch=1 n=f#5 v=0
30718 On ch=1 n=f#4 v=0
30718 On ch=1 n=f#3 v=0
30720 On ch=1 n=f3 v=64
30720 On ch=1 n=f4 v=64
30799 Par ch=1 c=7 v=116
30840 On ch=1 n=f5 v=64
30958 On ch=1 n=f5 v=0
30958 On ch=1 n=f4 v=0
30958 On ch=1 n=f3 v=0
30959 Par ch=1 c=7 v=117
30960 On ch=1 n=d#3 v=64
30960 On ch=1 n=d#4 v=64
31080 On ch=1 n=d#5 v=64
31119 Par ch=1 c=7 v=118
31198 On ch=1 n=d#5 v=0
31198 On ch=1 n=d#4 v=0
31198 On ch=1 n=d#3 v=0
31200 On ch=1 n=c#3 v=64
31200 On ch=1 n=c#4 v=64
31200 Par ch=1 c=64 v=0
31279 Par ch=1 c=7 v=119
31320 On ch=1 n=c#5 v=64
31438 On ch=1 n=c#5 v=0
31438 On ch=1 n=c#4 v=0
31438 On ch=1 n=c#3 v=0
31439 Par ch=1 c=7 v=120
31440 On ch=1 n=f7 v=64
31440 On ch=1 n=g#6 v=64
31440 On ch=1 n=f6 v=64
31440 On ch=1 n=g#4 v=64
31440 On ch=1 n=f4 v=64
31440 On ch=1 n=c#5 v=64
31440 On ch=1 n=c#4 v=64
31440 On ch=1 n=c#7 v=64
31440 Par ch=1 c=64 v=96
31640 Par ch=1 c=64 v=0
31678 On ch=1 n=c#7 v=0
31678 On ch=1 n=c#4 v=0
31678 On ch=1 n=c#5 v=0
31678 On ch=1 n=f4 v=0
31678 On ch=1 n=g#4 v=0
31678 On ch=1 n=f6 v=0
31678 On ch=1 n=g#6 v=0
31678 On ch=1 n=f7 v=0
31680 On ch=1 n=g4 v=64
31680 On ch=1 n=d4 v=64
31680 On ch=1 n=g3 v=64
31680 On ch=1 n=g7 v=64
31680 On ch=1 n=d7 v=64
31680 On ch=1 n=g6 v=64
31680 On ch=1 n=b3 v=64
31680 On ch=1 n=b6 v=64
31680 Par ch=1 c=64 v=96
31918 On ch=1 n=b6 v=0
31918 On ch=1 n=b3 v=0
31918 On ch=1 n=g6 v=0
31918 On ch=1 n=d7 v=0
31918 On ch=1 n=g7 v=0
31918 On ch=1 n=g3 v=0
31918 On ch=1 n=d4 v=0
31918 On ch=1 n=g4 v=0
31920 Par ch=1 c=7 v=105
31920 On ch=1 n=d3 v=64
31920 On ch=1 n=d4 v=64
31920 Par ch=1 c=64 v=0
32040 On ch=1 n=d5 v=64
32079 Par ch=1 c=7 v=106
32158 On ch=1 n=d5 v=0
32158 On ch=1 n=d4 v=0
32158 On ch=1 n=d3 v=0
32160 On ch=1 n=c3 v=64
32160 On ch=1 n=c4 v=64
32239 Par ch=1 c=7 v=107
32280 On ch=1 n=c5 v=64
32398 On ch=1 n=c5 v=0
32398 On ch=1 n=c4 v=0
32398 On ch=1 n=c3 v=0
32399 Par ch=1 c=7 v=108
32400 On ch=1 n=b2 v=64
32400 On ch=1 n=b3 v=64
32520 On ch=1 n=b4 v=64
32559 Par ch=1 c=7 v=109
32638 On ch=1 n=b4 v=0
32638 On ch=1 n=b3 v=0
32638 On ch=1 n=b2 v=0
32640 On ch=1 n=g#2 v=64
32640 On ch=1 n=g#3 v=64
32719 Par ch=1 c=7 v=110
32760 On ch=1 n=g#4 v=64
32878 On ch=1 n=g#4 v=0
32878 On ch=1 n=g#3 v=0
32878 On ch=1 n=g#2 v=0
32879 Par ch=1 c=7 v=111
32880 On ch=1 n=g2 v=64
32880 On ch=1 n=g3 v=64
32880 Par ch=1 c=64 v=96
33000 On ch=1 n=g4 v=64
33039 Par ch=1 c=7 v=112
33118 On ch=1 n=g4 v=0
33118 On ch=1 n=g3 v=0
33118 On ch=1 n=g2 v=0
33120 On ch=1 n=g#3 v=64
33120 On ch=1 n=g#4 v=64
33199 Par ch=1 c=7 v=113
33240 On ch=1 n=g#5 v=64
33358 On ch=1 n=g#5 v=0
33358 On ch=1 n=g#4 v=0
33358 On ch=1 n=g#3 v=0
33359 Par ch=1 c=7 v=114
33360 On ch=1 n=f#3 v=64
33360 On ch=1 n=f#4 v=64
33480 On ch=1 n=f#5 v=64
33519 Par ch=1 c=7 v=115
33598 On ch=1 n=f#5 v=0
33598 On ch=1 n=f#4 v=0
33598 On ch=1 n=f#3 v=0
33600 On ch=1 n=f3 v=64
33600 On ch=1 n=f4 v=64
33679 Par ch=1 c=7 v=116
33720 On ch=1 n=f5 v=64
33838 On ch=1 n=f5 v=0
33838 On ch=1 n=f4 v=0
33838 On ch=1 n=f3 v=0
33839 Par ch=1 c=7 v=117
33840 On ch=1 n=d#3 v=64
33840 On ch=1 n=d#4 v=64
33960 On ch=1 n=d#5 v=64
33999 Par ch=1 c=7 v=118
34078 On ch=1 n=d#5 v=0
34078 On ch=1 n=d#4 v=0
34078 On ch=1 n=d#3 v=0
34080 On ch=1 n=c#3 v=64
34080 On ch=1 n=c#4 v=64
34159 Par ch=1 c=7 v=119
34200 On ch=1 n=c#5 v=64
34280 Par ch=1 c=64 v=0
34318 On ch=1 n=c#5 v=0
34318 On ch=1 n=c#4 v=0
34318 On ch=1 n=c#3 v=0
34319 Par ch=1 c=7 v=120
34320 On ch=1 n=f7 v=64
34320 On ch=1 n=g#6 v=64
34320 On ch=1 n=f6 v=64
34320 On ch=1 n=g#4 v=64
34320 On ch=1 n=f4 v=64
34320 On ch=1 n=c#5 v=64
34320 On ch=1 n=c#4 v=64
34320 On ch=1 n=c#7 v=64
34320 Par ch=1 c=64 v=96
34520 Par ch=1 c=64 v=0
34558 On ch=1 n=c#7 v=0
34558 On ch=1 n=c#4 v=0
34558 On ch=1 n=c#5 v=0
34558 On ch=1 n=f4 v=0
34558 On ch=1 n=g#4 v=0
34558 On ch=1 n=f6 v=0
34558 On ch=1 n=g#6 v=0
34558 On ch=1 n=f7 v=0
34560 On ch=1 n=g4 v=64
34560 On ch=1 n=d4 v=64
34560 On ch=1 n=g3 v=64
34560 On ch=1 n=g7 v=64
34560 On ch=1 n=d7 v=64
34560 On ch=1 n=b3 v=64
34560 On ch=1 n=b6 v=64
34560 On ch=1 n=b7 v=64
34560 Par ch=1 c=64 v=96
35240 Par ch=1 c=64 v=0
35278 On ch=1 n=b7 v=0
35278 On ch=1 n=b6 v=0
35278 On ch=1 n=b3 v=0
35278 On ch=1 n=d7 v=0
35278 On ch=1 n=g7 v=0
35278 On ch=1 n=g3 v=0
35278 On ch=1 n=d4 v=0
35278 On ch=1 n=g4 v=0
35280 On ch=1 n=f4 v=64
35280 On ch=1 n=c4 v=64
35280 On ch=1 n=g#3 v=64
35280 On ch=1 n=f3 v=64
35280 On ch=1 n=c8 v=64
35280 On ch=1 n=g#7 v=64
35280 On ch=1 n=f7 v=64
35280 On ch=1 n=c7 v=64
35280 Par ch=1 c=64 v=96
35960 Par ch=1 c=64 v=0
35998 On ch=1 n=c7 v=0
35998 On ch=1 n=f7 v=0
35998 On ch=1 n=g#7 v=0
35998 On ch=1 n=c8 v=0
35998 On ch=1 n=f3 v=0
35998 On ch=1 n=g#3 v=0
35998 On ch=1 n=c4 v=0
35998 On ch=1 n=f4 v=0
36000 On ch=1 n=g#3 v=64
36000 On ch=1 n=f3 v=64
36000 On ch=1 n=g#7 v=64
36000 On ch=1 n=f7 v=64
36000 On ch=1 n=c#3 v=64
36000 On ch=1 n=c#4 v=64
36000 On ch=1 n=c#7 v=64
36000 On ch=1 n=c#8 v=64
36000 Par ch=1 c=64 v=96
36680 Par ch=1 c=64 v=0
36718 On ch=1 n=c#8 v=0
36718 On ch=1 n=c#7 v=0
36718 On ch=1 n=c#4 v=0
36718 On ch=1 n=c#3 v=0
36718 On ch=1 n=f7 v=0
36718 On ch=1 n=g#7 v=0
36718 On ch=1 n=f3 v=0
36718 On ch=1 n=g#3 v=0
36720 On ch=1 n=c4 v=64
36720 On ch=1 n=g#3 v=64
36720 On ch=1 n=f3 v=64
36720 On ch=1 n=c3 v=64
36720 On ch=1 n=d8 v=64
36720 On ch=1 n=g#7 v=64
36720 On ch=1 n=f7 v=64
36720 On ch=1 n=d7 v=64
36720 Par ch=1 c=64 v=96
37400 Par ch=1 c=64 v=0
37438 On ch=1 n=d7 v=0
37438 On ch=1 n=f7 v=0
37438 On ch=1 n=g#7 v=0
37438 On ch=1 n=d8 v=0
37438 On ch=1 n=c3 v=0
37438 On ch=1 n=f3 v=0
37438 On ch=1 n=g#3 v=0
37438 On ch=1 n=c4 v=0
37440 On ch=1 n=g#3 v=64
37440 On ch=1 n=d3 v=64
37440 On ch=1 n=c3 v=64
37440 On ch=1 n=g#2 v=64
37440 On ch=1 n=f8 v=64
37440 On ch=1 n=d8 v=64
37440 On ch=1 n=c8 v=64
37440 On ch=1 n=f7 v=64
37440 Par ch=1 c=64 v=96
37798 On ch=1 n=f7 v=0
37798 On ch=1 n=c8 v=0
37798 On ch=1 n=d8 v=0
37798 On ch=1 n=f8 v=0
37798 On ch=1 n=g#2 v=0
37798 On ch=1 n=c3 v=0
37798 On ch=1 n=d3 v=0
37798 On ch=1 n=g#3 v=0
37800 On ch=1 n=g#3 v=64
37800 On ch=1 n=d3 v=64
37800 On ch=1 n=c3 v=64
37800 On ch=1 n=g#2 v=64
37800 On ch=1 n=f8 v=64
37800 On ch=1 n=d8 v=64
37800 On ch=1 n=c8 v=64
37800 On ch=1 n=f7 v=64
38158 On ch=1 n=f7 v=0
38158 On ch=1 n=c8 v=0
38158 On ch=1 n=d8 v=0
38158 On ch=1 n=f8 v=0
38158 On ch=1 n=g#2 v=0
38158 On ch=1 n=c3 v=0
38158 On ch=1 n=d3 v=0
38158 On ch=1 n=g#3 v=0
38160 On ch=1 n=g#3 v=64
38160 On ch=1 n=d3 v=64
38160 On ch=1 n=c3 v=64
38160 On ch=1 n=g#2 v=64
38160 On ch=1 n=f8 v=64
38160 On ch=1 n=d8 v=64
38160 On ch=1 n=c8 v=64
38160 On ch=1 n=f7 v=64
38518 On ch=1 n=f7 v=0
38518 On ch=1 n=c8 v=0
38518 On ch=1 n=d8 v=0
38518 On ch=1 n=f8 v=0
38518 On ch=1 n=g#2 v=0
38518 On ch=1 n=c3 v=0
38518 On ch=1 n=d3 v=0
38518 On ch=1 n=g#3 v=0
38520 On ch=1 n=g#3 v=64
38520 On ch=1 n=d3 v=64
38520 On ch=1 n=c3 v=64
38520 On ch=1 n=g#2 v=64
38520 On ch=1 n=f8 v=64
38520 On ch=1 n=d8 v=64
38520 On ch=1 n=c8 v=64
38520 On ch=1 n=f7 v=64
38878 On ch=1 n=f7 v=0
38878 On ch=1 n=c8 v=0
38878 On ch=1 n=d8 v=0
38878 On ch=1 n=f8 v=0
38878 On ch=1 n=g#2 v=0
38878 On ch=1 n=c3 v=0
38878 On ch=1 n=d3 v=0
38878 On ch=1 n=g#3 v=0
38880 On ch=1 n=g3 v=64
38880 On ch=1 n=d3 v=64
38880 On ch=1 n=g2 v=64
38880 On ch=1 n=f4 v=64
38880 On ch=1 n=d4 v=64
38880 On ch=1 n=b2 v=64
38880 On ch=1 n=b4 v=64
39080 Par ch=1 c=64 v=0
39118 On ch=1 n=b4 v=0
39118 On ch=1 n=b2 v=0
39118 On ch=1 n=d4 v=0
39118 On ch=1 n=f4 v=0
39118 On ch=1 n=g2 v=0
39118 On ch=1 n=d3 v=0
39118 On ch=1 n=g3 v=0
39120 Tempo 434783
39120 Par ch=1 c=7 v=120
39120 On ch=1 n=g#6 v=64
39120 On ch=1 n=g#7 v=64
39120 Par ch=1 c=64 v=96
39171 On ch=1 n=g#7 v=0
39171 On ch=1 n=g#6 v=0
39173 On ch=1 n=g6 v=64
39173 On ch=1 n=g7 v=64
39185 Par ch=1 c=7 v=119
39225 On ch=1 n=g7 v=0
39225 On ch=1 n=g6 v=0
39227 On ch=1 n=f#6 v=64
39227 On ch=1 n=f#7 v=64
39251 Par ch=1 c=7 v=118
39278 On ch=1 n=f#7 v=0
39278 On ch=1 n=f#6 v=0
39280 On ch=1 n=f6 v=64
39280 On ch=1 n=f7 v=64
39317 Par ch=1 c=7 v=117
39331 On ch=1 n=f7 v=0
39331 On ch=1 n=f6 v=0
39333 On ch=1 n=e6 v=64
39333 On ch=1 n=e7 v=64
39383 Par ch=1 c=7 v=116
39385 On ch=1 n=e7 v=0
39385 On ch=1 n=e6 v=0
39387 On ch=1 n=d#6 v=64
39387 On ch=1 n=d#7 v=64
39438 On ch=1 n=d#7 v=0
39438 On ch=1 n=d#6 v=0
39440 On ch=1 n=d6 v=64
39440 On ch=1 n=d7 v=64
39449 Par ch=1 c=7 v=115
39491 On ch=1 n=d7 v=0
39491 On ch=1 n=d6 v=0
39493 On ch=1 n=c#6 v=64
39493 On ch=1 n=c#7 v=64
39515 Par ch=1 c=7 v=114
39545 On ch=1 n=c#7 v=0
39545 On ch=1 n=c#6 v=0
39547 On ch=1 n=c6 v=64
39547 On ch=1 n=c7 v=64
39581 Par ch=1 c=7 v=113
39598 On ch=1 n=c7 v=0
39598 On ch=1 n=c6 v=0
39600 Tempo 375000
39600 On ch=1 n=b5 v=64
39600 On ch=1 n=b6 v=64
39647 Par ch=1 c=7 v=112
39713 Par ch=1 c=7 v=111
39778 On ch=1 n=b6 v=0
39778 On ch=1 n=b5 v=0
39779 Par ch=1 c=7 v=110
39800 Par ch=1 c=64 v=0
39840 Tempo 434783
39840 On ch=1 n=g#5 v=64
39840 On ch=1 n=g#6 v=64
39840 Par ch=1 c=64 v=96
39845 Par ch=1 c=7 v=109
39891 On ch=1 n=g#6 v=0
39891 On ch=1 n=g#5 v=0
39893 On ch=1 n=g5 v=64
39893 On ch=1 n=g6 v=64
39911 Par ch=1 c=7 v=108
39945 On ch=1 n=g6 v=0
39945 On ch=1 n=g5 v=0
39947 On ch=1 n=f#5 v=64
39947 On ch=1 n=f#6 v=64
39977 Par ch=1 c=7 v=107
39998 On ch=1 n=f#6 v=0
39998 On ch=1 n=f#5 v=0
40000 On ch=1 n=f5 v=64
40000 On ch=1 n=f6 v=64
40043 Par ch=1 c=7 v=106
40051 On ch=1 n=f6 v=0
40051 On ch=1 n=f5 v=0
40053 On ch=1 n=e5 v=64
40053 On ch=1 n=e6 v=64
40105 On ch=1 n=e6 v=0
40105 On ch=1 n=e5 v=0
40107 On ch=1 n=d#5 v=64
40107 On ch=1 n=d#6 v=64
40109 Par ch=1 c=7 v=105
40158 On ch=1 n=d#6 v=0
40158 On ch=1 n=d#5 v=0
40160 On ch=1 n=d5 v=64
40160 On ch=1 n=d6 v=64
40175 Par ch=1 c=7 v=104
40211 On ch=1 n=d6 v=0
40211 On ch=1 n=d5 v=0
40213 On ch=1 n=c#5 v=64
40213 On ch=1 n=c#6 v=64
40241 Par ch=1 c=7 v=103
40265 On ch=1 n=c#6 v=0
40265 On ch=1 n=c#5 v=0
40267 On ch=1 n=c5 v=64
40267 On ch=1 n=c6 v=64
40307 Par ch=1 c=7 v=102
40318 On ch=1 n=c6 v=0
40318 On ch=1 n=c5 v=0
40320 Tempo 394737
40320 On ch=1 n=b4 v=64
40320 On ch=1 n=b5 v=64
40373 Par ch=1 c=7 v=101
40439 Par ch=1 c=7 v=100
40498 On ch=1 n=b5 v=0
40498 On ch=1 n=b4 v=0
40505 Par ch=1 c=7 v=99
40520 Par ch=1 c=64 v=0
40560 Tempo 434783
40560 On ch=1 n=g#4 v=64
40560 On ch=1 n=g#5 v=64
40560 Par ch=1 c=64 v=96
40571 Par ch=1 c=7 v=98
40611 On ch=1 n=g#5 v=0
40611 On ch=1 n=g#4 v=0
40613 On ch=1 n=g4 v=64
40613 On ch=1 n=g5 v=64
40637 Par ch=1 c=7 v=97
40665 On ch=1 n=g5 v=0
40665 On ch=1 n=g4 v=0
40667 On ch=1 n=f#4 v=64
40667 On ch=1 n=f#5 v=64
40703 Par ch=1 c=7 v=96
40718 On ch=1 n=f#5 v=0
40718 On ch=1 n=f#4 v=0
40720 On ch=1 n=f4 v=64
40720 On ch=1 n=f5 v=64
40769 Par ch=1 c=7 v=95
40771 On ch=1 n=f5 v=0
40771 On ch=1 n=f4 v=0
40773 On ch=1 n=e4 v=64
40773 On ch=1 n=e5 v=64
40825 On ch=1 n=e5 v=0
40825 On ch=1 n=e4 v=0
40827 On ch=1 n=d#4 v=64
40827 On ch=1 n=d#5 v=64
40835 Par ch=1 c=7 v=94
40878 On ch=1 n=d#5 v=0
40878 On ch=1 n=d#4 v=0
40880 On ch=1 n=d4 v=64
40880 On ch=1 n=d5 v=64
40901 Par ch=1 c=7 v=93
40931 On ch=1 n=d5 v=0
40931 On ch=1 n=d4 v=0
40933 On ch=1 n=c#4 v=64
40933 On ch=1 n=c#5 v=64
40967 Par ch=1 c=7 v=92
40985 On ch=1 n=c#5 v=0
40985 On ch=1 n=c#4 v=0
40987 On ch=1 n=c4 v=64
40987 On ch=1 n=c5 v=64
41033 Par ch=1 c=7 v=91
41038 On ch=1 n=c5 v=0
41038 On ch=1 n=c4 v=0
41040 Tempo 394737
41040 On ch=1 n=b3 v=64
41040 On ch=1 n=b4 v=64
41099 Par ch=1 c=7 v=90
41165 Par ch=1 c=7 v=89
41218 On ch=1 n=b4 v=0
41218 On ch=1 n=b3 v=0
41228 Par ch=1 c=7 v=88
41237 Par ch=1 c=64 v=0
41277 Tempo 434783
41277 On ch=1 n=g#3 v=64
41277 On ch=1 n=g#4 v=64
41277 Par ch=1 c=64 v=96
41294 Par ch=1 c=7 v=87
41328 On ch=1 n=g#4 v=0
41328 On ch=1 n=g#3 v=0
41330 On ch=1 n=g3 v=64
41330 On ch=1 n=g4 v=64
41360 Par ch=1 c=7 v=86
41382 On ch=1 n=g4 v=0
41382 On ch=1 n=g3 v=0
41384 On ch=1 n=f#3 v=64
41384 On ch=1 n=f#4 v=64
41426 Par ch=1 c=7 v=85
41435 On ch=1 n=f#4 v=0
41435 On ch=1 n=f#3 v=0
41437 On ch=1 n=f3 v=64
41437 On ch=1 n=f4 v=64
41488 On ch=1 n=f4 v=0
41488 On ch=1 n=f3 v=0
41490 On ch=1 n=e3 v=64
41490 On ch=1 n=e4 v=64
41492 Par ch=1 c=7 v=84
41542 On ch=1 n=e4 v=0
41542 On ch=1 n=e3 v=0
41544 On ch=1 n=d#3 v=64
41544 On ch=1 n=d#4 v=64
41558 Par ch=1 c=7 v=83
41595 On ch=1 n=d#4 v=0
41595 On ch=1 n=d#3 v=0
41597 On ch=1 n=d3 v=64
41597 On ch=1 n=d4 v=64
41624 Par ch=1 c=7 v=82
41648 On ch=1 n=d4 v=0
41648 On ch=1 n=d3 v=0
41650 On ch=1 n=c#3 v=64
41650 On ch=1 n=c#4 v=64
41690 Par ch=1 c=7 v=81
41702 On ch=1 n=c#4 v=0
41702 On ch=1 n=c#3 v=0
41704 On ch=1 n=c3 v=64
41704 On ch=1 n=c4 v=64
41755 On ch=1 n=c4 v=0
41755 On ch=1 n=c3 v=0
41756 Par ch=1 c=7 v=80
41757 Tempo 394737
41757 Par ch=1 c=7 v=80
41757 On ch=1 n=b2 v=64
41757 On ch=1 n=b3 v=64
41757 Par ch=1 c=64 v=0
41835 On ch=1 n=b3 v=0
41835 On ch=1 n=b2 v=0
41837 On ch=1 n=c3 v=64
41837 On ch=1 n=c4 v=64
41900 Par ch=1 c=7 v=81
41915 On ch=1 n=c4 v=0
41915 On ch=1 n=c3 v=0
41917 On ch=1 n=c#3 v=64
41917 On ch=1 n=c#4 v=64
41995 On ch=1 n=c#4 v=0
41995 On ch=1 n=c#3 v=0
41997 On ch=1 n=d3 v=64
41997 On ch=1 n=d4 v=64
42044 Par ch=1 c=7 v=82
42075 On ch=1 n=d4 v=0
42075 On ch=1 n=d3 v=0
42077 On ch=1 n=d#3 v=64
42077 On ch=1 n=d#4 v=64
42077 Par ch=1 c=64 v=96
42155 On ch=1 n=d#4 v=0
42155 On ch=1 n=d#3 v=0
42157 On ch=1 n=e3 v=64
42157 On ch=1 n=e4 v=64
42188 Par ch=1 c=7 v=83
42235 On ch=1 n=e4 v=0
42235 On ch=1 n=e3 v=0
42237 On ch=1 n=f3 v=64
42237 On ch=1 n=f4 v=64
42315 On ch=1 n=f4 v=0
42315 On ch=1 n=f3 v=0
42317 On ch=1 n=f#3 v=64
42317 On ch=1 n=f#4 v=64
42332 Par ch=1 c=7 v=84
42395 On ch=1 n=f#4 v=0
42395 On ch=1 n=f#3 v=0
42397 On ch=1 n=g3 v=64
42397 On ch=1 n=g4 v=64
42475 On ch=1 n=g4 v=0
42475 On ch=1 n=g3 v=0
42476 Par ch=1 c=7 v=85
42477 Par ch=1 c=7 v=85
42477 On ch=1 n=g#3 v=64
42477 On ch=1 n=g#4 v=64
42524 Par ch=1 c=7 v=84
42555 On ch=1 n=g#4 v=0
42555 On ch=1 n=g#3 v=0
42557 On ch=1 n=g3 v=64
42557 On ch=1 n=g4 v=64
42572 Par ch=1 c=7 v=83
42620 Par ch=1 c=7 v=82
42635 On ch=1 n=g4 v=0
42635 On ch=1 n=g3 v=0
42637 On ch=1 n=f#3 v=64
42637 On ch=1 n=f#4 v=64
42668 Par ch=1 c=7 v=81
42715 On ch=1 n=f#4 v=0
42715 On ch=1 n=f#3 v=0
42716 Par ch=1 c=7 v=80
42717 On ch=1 n=f3 v=64
42717 On ch=1 n=f4 v=64
42764 Par ch=1 c=7 v=79
42795 On ch=1 n=f4 v=0
42795 On ch=1 n=f3 v=0
42797 On ch=1 n=e3 v=64
42797 On ch=1 n=e4 v=64
42812 Par ch=1 c=7 v=78
42860 Par ch=1 c=7 v=77
42875 On ch=1 n=e4 v=0
42875 On ch=1 n=e3 v=0
42877 On ch=1 n=d#3 v=64
42877 On ch=1 n=d#4 v=64
42908 Par ch=1 c=7 v=76
42955 On ch=1 n=d#4 v=0
42955 On ch=1 n=d#3 v=0
42956 Par ch=1 c=7 v=75
42957 On ch=1 n=d3 v=64
42957 On ch=1 n=d4 v=64
43004 Par ch=1 c=7 v=74
43035 On ch=1 n=d4 v=0
43035 On ch=1 n=d3 v=0
43037 On ch=1 n=c#3 v=64
43037 On ch=1 n=c#4 v=64
43052 Par ch=1 c=7 v=73
43100 Par ch=1 c=7 v=72
43115 On ch=1 n=c#4 v=0
43115 On ch=1 n=c#3 v=0
43117 On ch=1 n=c3 v=64
43117 On ch=1 n=c4 v=64
43117 Par ch=1 c=64 v=0
43148 Par ch=1 c=7 v=71
43195 On ch=1 n=c4 v=0
43195 On ch=1 n=c3 v=0
43196 Par ch=1 c=7 v=70
43197 On ch=1 n=b2 v=64
43197 On ch=1 n=b3 v=64
43435 On ch=1 n=b3 v=0
43435 On ch=1 n=b2 v=0
43917 On ch=1 n=g3 v=64
43917 On ch=1 n=g4 v=64
44155 On ch=1 n=g4 v=0
44155 On ch=1 n=g3 v=0
44637 Tempo 600000
46077 Tempo 394737
46077 Par ch=1 c=7 v=110
46077 On ch=1 n=c3 v=64
46077 Par ch=1 c=64 v=96
46197 On ch=1 n=c4 v=64
46315 On ch=1 n=c4 v=0
46315 On ch=1 n=c3 v=0
46317 On ch=1 n=g3 v=64
46437 On ch=1 n=g4 v=64
46555 On ch=1 n=g4 v=0
46555 On ch=1 n=g3 v=0
46557 On ch=1 n=f3 v=64
46677 On ch=1 n=f4 v=64
46795 On ch=1 n=f4 v=0
46795 On ch=1 n=f3 v=0
46797 On ch=1 n=d#3 v=64
46917 On ch=1 n=d#4 v=64
47035 On ch=1 n=d#4 v=0
47035 On ch=1 n=d#3 v=0
47037 On ch=1 n=d3 v=64
47157 On ch=1 n=d4 v=64
47237 Par ch=1 c=64 v=0
47275 On ch=1 n=d4 v=0
47275 On ch=1 n=d3 v=0
47277 On ch=1 n=c3 v=64
47277 Par ch=1 c=64 v=96
47397 On ch=1 n=c4 v=64
47515 On ch=1 n=c4 v=0
47515 On ch=1 n=c3 v=0
47517 On ch=1 n=c5 v=64
47517 On ch=1 n=g4 v=64
47517 On ch=1 n=d#4 v=64
47517 On ch=1 n=c4 v=64
47517 On ch=1 n=c6 v=64
47517 On ch=1 n=d#6 v=64
47517 On ch=1 n=c7 v=64
47695 On ch=1 n=c7 v=0
47695 On ch=1 n=d#6 v=0
47695 On ch=1 n=c6 v=0
47695 On ch=1 n=c4 v=0
47695 On ch=1 n=d#4 v=0
47695 On ch=1 n=g4 v=0
47695 On ch=1 n=c5 v=0
47877 On ch=1 n=c5 v=64
47877 On ch=1 n=g4 v=64
47877 On ch=1 n=d#4 v=64
47877 On ch=1 n=c4 v=64
47877 On ch=1 n=g5 v=64
47877 On ch=1 n=c6 v=64
47877 On ch=1 n=d#6 v=64
47877 On ch=1 n=g6 v=64
47965 On ch=1 n=g6 v=0
47965 On ch=1 n=d#6 v=0
47965 On ch=1 n=c6 v=0
47965 On ch=1 n=g5 v=0
47965 On ch=1 n=c4 v=0
47965 On ch=1 n=d#4 v=0
47965 On ch=1 n=g4 v=0
47965 On ch=1 n=c5 v=0
47997 On ch=1 n=c5 v=64
47997 On ch=1 n=g4 v=64
47997 On ch=1 n=d#4 v=64
47997 On ch=1 n=c4 v=64
47997 On ch=1 n=g5 v=64
47997 On ch=1 n=c6 v=64
47997 On ch=1 n=d#6 v=64
47997 On ch=1 n=g6 v=64
48175 On ch=1 n=g6 v=0
48175 On ch=1 n=d#6 v=0
48175 On ch=1 n=c6 v=0
48175 On ch=1 n=g5 v=0
48175 On ch=1 n=c4 v=0
48175 On ch=1 n=d#4 v=0
48175 On ch=1 n=g4 v=0
48175 On ch=1 n=c5 v=0
48597 On ch=1 n=c5 v=64
48597 On ch=1 n=g4 v=64
48597 On ch=1 n=d#4 v=64
48597 On ch=1 n=c4 v=64
48597 On ch=1 n=d#6 v=64
48597 On ch=1 n=g5 v=64
48597 On ch=1 n=d#5 v=64
48685 On ch=1 n=d#5 v=0
48685 On ch=1 n=g5 v=0
48685 On ch=1 n=d#6 v=0
48685 On ch=1 n=c4 v=0
48685 On ch=1 n=d#4 v=0
48685 On ch=1 n=g4 v=0
48685 On ch=1 n=c5 v=0
48717 On ch=1 n=c5 v=64
48717 On ch=1 n=g4 v=64
48717 On ch=1 n=d#4 v=64
48717 On ch=1 n=c4 v=64
48717 On ch=1 n=d#5 v=64
48717 On ch=1 n=g5 v=64
48717 On ch=1 n=d#6 v=64
48895 On ch=1 n=d#6 v=0
48895 On ch=1 n=g5 v=0
48895 On ch=1 n=d#5 v=0
48895 On ch=1 n=c4 v=0
48895 On ch=1 n=d#4 v=0
48895 On ch=1 n=g4 v=0
48895 On ch=1 n=c5 v=0
49317 On ch=1 n=c5 v=64
49317 On ch=1 n=g4 v=64
49317 On ch=1 n=d#4 v=64
49317 On ch=1 n=c4 v=64
49317 On ch=1 n=c6 v=64
49317 On ch=1 n=g5 v=64
49317 On ch=1 n=d#5 v=64
49405 On ch=1 n=d#5 v=0
49405 On ch=1 n=g5 v=0
49405 On ch=1 n=c6 v=0
49405 On ch=1 n=c4 v=0
49405 On ch=1 n=d#4 v=0
49405 On ch=1 n=g4 v=0
49405 On ch=1 n=c5 v=0
49437 On ch=1 n=c5 v=64
49437 On ch=1 n=g4 v=64
49437 On ch=1 n=d#4 v=64
49437 On ch=1 n=c4 v=64
49437 On ch=1 n=c6 v=64
49437 On ch=1 n=g5 v=64
49437 On ch=1 n=d#5 v=64
49615 On ch=1 n=d#5 v=0
49615 On ch=1 n=g5 v=0
49615 On ch=1 n=c6 v=0
49615 On ch=1 n=c4 v=0
49615 On ch=1 n=d#4 v=0
49615 On ch=1 n=g4 v=0
49615 On ch=1 n=c5 v=0
49637 Par ch=1 c=64 v=0
49677 On ch=1 n=b4 v=64
49677 On ch=1 n=g4 v=64
49677 On ch=1 n=d#4 v=64
49677 On ch=1 n=c4 v=64
49677 On ch=1 n=b5 v=64
49677 On ch=1 n=g5 v=64
49677 On ch=1 n=d#5 v=64
49677 Par ch=1 c=64 v=96
49855 On ch=1 n=d#5 v=0
49855 On ch=1 n=g5 v=0
49855 On ch=1 n=b5 v=0
49855 On ch=1 n=c4 v=0
49855 On ch=1 n=d#4 v=0
49855 On ch=1 n=g4 v=0
49855 On ch=1 n=b4 v=0
49917 On ch=1 n=c5 v=64
49917 On ch=1 n=g4 v=64
49917 On ch=1 n=d#4 v=64
49917 On ch=1 n=c4 v=64
49917 On ch=1 n=c6 v=64
49917 On ch=1 n=g5 v=64
49917 On ch=1 n=d#5 v=64
50095 On ch=1 n=d#5 v=0
50095 On ch=1 n=g5 v=0
50095 On ch=1 n=c6 v=0
50095 On ch=1 n=c4 v=0
50095 On ch=1 n=d#4 v=0
50095 On ch=1 n=g4 v=0
50095 On ch=1 n=c5 v=0
50357 Par ch=1 c=64 v=0
50397 On ch=1 n=c#3 v=64
50397 On ch=1 n=b2 v=64
50397 Par ch=1 c=64 v=96
50517 On ch=1 n=c#4 v=64
50635 On ch=1 n=c#4 v=0
50635 On ch=1 n=b2 v=0
50635 On ch=1 n=c#3 v=0
50637 On ch=1 n=g#3 v=64
50757 On ch=1 n=g#4 v=64
50875 On ch=1 n=g#4 v=0
50875 On ch=1 n=g#3 v=0
50877 On ch=1 n=f#3 v=64
50997 On ch=1 n=f#4 v=64
51115 On ch=1 n=f#4 v=0
51115 On ch=1 n=f#3 v=0
51117 On ch=1 n=f3 v=64
51237 On ch=1 n=f4 v=64
51355 On ch=1 n=f4 v=0
51355 On ch=1 n=f3 v=0
51357 On ch=1 n=d#3 v=64
51477 On ch=1 n=d#4 v=64
51557 Par ch=1 c=64 v=0
51595 On ch=1 n=d#4 v=0
51595 On ch=1 n=d#3 v=0
51597 On ch=1 n=c#3 v=64
51597 Par ch=1 c=64 v=96
51717 On ch=1 n=c#4 v=64
51835 On ch=1 n=c#4 v=0
51835 On ch=1 n=c#3 v=0
51837 On ch=1 n=g#4 v=64
51837 On ch=1 n=f4 v=64
51837 On ch=1 n=f6 v=64
51837 On ch=1 n=b3 v=64
51837 On ch=1 n=c#5 v=64
51837 On ch=1 n=c#6 v=64
51837 On ch=1 n=c#7 v=64
52015 On ch=1 n=c#7 v=0
52015 On ch=1 n=c#6 v=0
52015 On ch=1 n=c#5 v=0
52015 On ch=1 n=b3 v=0
52015 On ch=1 n=f6 v=0
52015 On ch=1 n=f4 v=0
52015 On ch=1 n=g#4 v=0
52197 On ch=1 n=g#4 v=64
52197 On ch=1 n=f4 v=64
52197 On ch=1 n=g#6 v=64
52197 On ch=1 n=g#5 v=64
52197 On ch=1 n=b3 v=64
52197 On ch=1 n=c#6 v=64
52285 On ch=1 n=c#6 v=0
52285 On ch=1 n=b3 v=0
52285 On ch=1 n=g#5 v=0
52285 On ch=1 n=g#6 v=0
52285 On ch=1 n=f4 v=0
52285 On ch=1 n=g#4 v=0
52317 On ch=1 n=g#6 v=64
52317 On ch=1 n=g#5 v=64
52317 On ch=1 n=g#4 v=64
52317 On ch=1 n=f4 v=64
52317 On ch=1 n=b3 v=64
52317 On ch=1 n=c#6 v=64
52495 On ch=1 n=c#6 v=0
52495 On ch=1 n=b3 v=0
52495 On ch=1 n=f4 v=0
52495 On ch=1 n=g#4 v=0
52495 On ch=1 n=g#5 v=0
52495 On ch=1 n=g#6 v=0
52917 On ch=1 n=g#4 v=64
52917 On ch=1 n=f4 v=64
52917 On ch=1 n=f6 v=64
52917 On ch=1 n=g#5 v=64
52917 On ch=1 n=f5 v=64
52917 On ch=1 n=c#5 v=64
53005 On ch=1 n=c#5 v=0
53005 On ch=1 n=f5 v=0
53005 On ch=1 n=g#5 v=0
53005 On ch=1 n=f6 v=0
53005 On ch=1 n=f4 v=0
53005 On ch=1 n=g#4 v=0
53037 On ch=1 n=f6 v=64
53037 On ch=1 n=g#5 v=64
53037 On ch=1 n=f5 v=64
53037 On ch=1 n=g#4 v=64
53037 On ch=1 n=f4 v=64
53037 On ch=1 n=c#5 v=64
53215 On ch=1 n=c#5 v=0
53215 On ch=1 n=f4 v=0
53215 On ch=1 n=g#4 v=0
53215 On ch=1 n=f5 v=0
53215 On ch=1 n=g#5 v=0
53215 On ch=1 n=f6 v=0
53637 On ch=1 n=g#4 v=64
53637 On ch=1 n=f4 v=64
53637 On ch=1 n=g#5 v=64
53637 On ch=1 n=b3 v=64
53637 On ch=1 n=c#5 v=64
53637 On ch=1 n=c#6 v=64
53755 On ch=1 n=c#6 v=0
53755 On ch=1 n=c#5 v=0
53755 On ch=1 n=b3 v=0
53755 On ch=1 n=g#5 v=0
53755 On ch=1 n=f4 v=0
53755 On ch=1 n=g#4 v=0
53757 On ch=1 n=g#5 v=64
53757 On ch=1 n=g#4 v=64
53757 On ch=1 n=f4 v=64
53757 On ch=1 n=c#6 v=64
53757 On ch=1 n=c#5 v=64
53757 On ch=1 n=b3 v=64
53957 Par ch=1 c=64 v=0
53995 On ch=1 n=b3 v=0
53995 On ch=1 n=c#5 v=0
53995 On ch=1 n=c#6 v=0
53995 On ch=1 n=f4 v=0
53995 On ch=1 n=g#4 v=0
53995 On ch=1 n=g#5 v=0
53997 On ch=1 n=c6 v=64
53997 On ch=1 n=g#5 v=64
53997 On ch=1 n=c5 v=64
53997 On ch=1 n=g#4 v=64
53997 On ch=1 n=e4 v=64
53997 On ch=1 n=b3 v=64
53997 Par ch=1 c=64 v=96
54235 On ch=1 n=b3 v=0
54235 On ch=1 n=e4 v=0
54235 On ch=1 n=g#4 v=0
54235 On ch=1 n=c5 v=0
54235 On ch=1 n=g#5 v=0
54235 On ch=1 n=c6 v=0
54237 On ch=1 n=g#5 v=64
54237 On ch=1 n=g#4 v=64
54237 On ch=1 n=f4 v=64
54237 On ch=1 n=b3 v=64
54237 On ch=1 n=c#5 v=64
54237 On ch=1 n=c#6 v=64
54475 On ch=1 n=c#6 v=0
54475 On ch=1 n=c#5 v=0
54475 On ch=1 n=b3 v=0
54475 On ch=1 n=f4 v=0
54475 On ch=1 n=g#4 v=0
54475 On ch=1 n=g#5 v=0
54477 Par ch=1 c=64 v=0
54957 On ch=1 n=a#3 v=64
54957 On ch=1 n=f3 v=64
54957 On ch=1 n=a#2 v=64
54957 On ch=1 n=d6 v=64
54957 On ch=1 n=g#5 v=64
54957 On ch=1 n=d5 v=64
54957 Par ch=1 c=64 v=96
55075 On ch=1 n=d5 v=0
55075 On ch=1 n=g#5 v=0
55075 On ch=1 n=d6 v=0
55075 On ch=1 n=a#2 v=0
55075 On ch=1 n=f3 v=0
55075 On ch=1 n=a#3 v=0
55197 On ch=1 n=a#3 v=64
55197 On ch=1 n=a#4 v=64
55255 On ch=1 n=a#4 v=0
55255 On ch=1 n=a#3 v=0
55257 On ch=1 n=c4 v=64
55257 On ch=1 n=c5 v=64
55315 On ch=1 n=c5 v=0
55315 On ch=1 n=c4 v=0
55317 On ch=1 n=d4 v=64
55317 On ch=1 n=d5 v=64
55375 On ch=1 n=d5 v=0
55375 On ch=1 n=d4 v=0
55377 On ch=1 n=d#4 v=64
55377 On ch=1 n=d#5 v=64
55435 On ch=1 n=d#5 v=0
55435 On ch=1 n=d#4 v=0
55437 On ch=1 n=f4 v=64
55437 On ch=1 n=f5 v=64
55555 On ch=1 n=f5 v=0
55555 On ch=1 n=f4 v=0
55637 Par ch=1 c=64 v=0
55677 On ch=1 n=a#3 v=64
55677 On ch=1 n=a#2 v=64
55677 On ch=1 n=d#6 v=64
55677 On ch=1 n=d#5 v=64
55677 On ch=1 n=f#3 v=64
55677 On ch=1 n=f#5 v=64
55677 Par ch=1 c=64 v=96
55795 On ch=1 n=f#5 v=0
55795 On ch=1 n=f#3 v=0
55795 On ch=1 n=d#5 v=0
55795 On ch=1 n=d#6 v=0
55795 On ch=1 n=a#2 v=0
55795 On ch=1 n=a#3 v=0
55917 On ch=1 n=a#3 v=64
55917 On ch=1 n=d#3 v=64
55917 On ch=1 n=a#2 v=64
55917 On ch=1 n=a#5 v=64
55917 On ch=1 n=f#6 v=64
55917 On ch=1 n=f#5 v=64
56035 On ch=1 n=f#5 v=0
56035 On ch=1 n=f#6 v=0
56035 On ch=1 n=a#5 v=0
56035 On ch=1 n=a#2 v=0
56035 On ch=1 n=d#3 v=0
56035 On ch=1 n=a#3 v=0
56117 Par ch=1 c=64 v=0
56157 On ch=1 n=a#3 v=64
56157 On ch=1 n=f3 v=64
56157 On ch=1 n=a#2 v=64
56157 On ch=1 n=a#6 v=64
56157 On ch=1 n=d6 v=64
56157 On ch=1 n=a#5 v=64
56157 Par ch=1 c=64 v=96
56275 On ch=1 n=a#5 v=0
56275 On ch=1 n=d6 v=0
56275 On ch=1 n=a#6 v=0
56275 On ch=1 n=a#2 v=0
56275 On ch=1 n=f3 v=0
56275 On ch=1 n=a#3 v=0
56397 On ch=1 n=f4 v=64
56397 On ch=1 n=f5 v=64
56455 On ch=1 n=f5 v=0
56455 On ch=1 n=f4 v=0
56457 On ch=1 n=d#4 v=64
56457 On ch=1 n=d#5 v=64
56515 On ch=1 n=d#5 v=0
56515 On ch=1 n=d#4 v=0
56517 On ch=1 n=d4 v=64
56517 On ch=1 n=d5 v=64
56575 On ch=1 n=d5 v=0
56575 On ch=1 n=d4 v=0
56577 On ch=1 n=c4 v=64
56577 On ch=1 n=c5 v=64
56635 On ch=1 n=c5 v=0
56635 On ch=1 n=c4 v=0
56637 On ch=1 n=a#4 v=64
56637 On ch=1 n=a#3 v=64
56755 On ch=1 n=a#3 v=0
56755 On ch=1 n=a#4 v=0
56837 Par ch=1 c=64 v=0
56877 Par ch=1 c=7 v=110
56877 On ch=1 n=d#6 v=64
56877 On ch=1 n=a2 v=64
56877 On ch=1 n=f#3 v=64
56877 On ch=1 n=a3 v=64
56877 On ch=1 n=b5 v=64
56877 On ch=1 n=b6 v=64
56877 Par ch=1 c=64 v=96
56995 On ch=1 n=b6 v=0
56995 On ch=1 n=b5 v=0
56995 On ch=1 n=a3 v=0
56995 On ch=1 n=f#3 v=0
56995 On ch=1 n=a2 v=0
56995 On ch=1 n=d#6 v=0
57020 Par ch=1 c=7 v=111
57117 On ch=1 n=d#7 v=64
57117 On ch=1 n=d#6 v=64
57117 On ch=1 n=a2 v=64
57117 On ch=1 n=f#3 v=64
57117 On ch=1 n=a3 v=64
57117 On ch=1 n=b6 v=64
57164 Par ch=1 c=7 v=112
57235 On ch=1 n=b6 v=0
57235 On ch=1 n=a3 v=0
57235 On ch=1 n=f#3 v=0
57235 On ch=1 n=a2 v=0
57235 On ch=1 n=d#6 v=0
57235 On ch=1 n=d#7 v=0
57308 Par ch=1 c=7 v=113
57317 Par ch=1 c=64 v=0
57357 On ch=1 n=b6 v=64
57357 On ch=1 n=g#3 v=64
57357 On ch=1 n=g#2 v=64
57357 On ch=1 n=e3 v=64
57357 On ch=1 n=e7 v=64
57357 On ch=1 n=e6 v=64
57357 Par ch=1 c=64 v=96
57452 Par ch=1 c=7 v=114
57475 On ch=1 n=e6 v=0
57475 On ch=1 n=e7 v=0
57475 On ch=1 n=e3 v=0
57475 On ch=1 n=g#2 v=0
57475 On ch=1 n=g#3 v=0
57475 On ch=1 n=b6 v=0
57596 Par ch=1 c=7 v=115
57597 On ch=1 n=e4 v=64
57597 On ch=1 n=e5 v=64
57655 On ch=1 n=e5 v=0
57655 On ch=1 n=e4 v=0
57657 On ch=1 n=f#4 v=64
57657 On ch=1 n=f#5 v=64
57715 On ch=1 n=f#5 v=0
57715 On ch=1 n=f#4 v=0
57717 On ch=1 n=g#4 v=64
57717 On ch=1 n=g#5 v=64
57775 On ch=1 n=g#5 v=0
57775 On ch=1 n=g#4 v=0
57777 On ch=1 n=a4 v=64
57777 On ch=1 n=a5 v=64
57835 On ch=1 n=a5 v=0
57835 On ch=1 n=a4 v=0
57837 On ch=1 n=b4 v=64
57837 On ch=1 n=b5 v=64
57955 On ch=1 n=b5 v=0
57955 On ch=1 n=b4 v=0
58037 Par ch=1 c=64 v=0
58077 On ch=1 n=d#7 v=64
58077 On ch=1 n=c7 v=64
58077 On ch=1 n=d#6 v=64
58077 On ch=1 n=a2 v=64
58077 On ch=1 n=f#3 v=64
58077 On ch=1 n=a3 v=64
58077 Par ch=1 c=64 v=96
58195 On ch=1 n=a3 v=0
58195 On ch=1 n=f#3 v=0
58195 On ch=1 n=a2 v=0
58195 On ch=1 n=d#6 v=0
58195 On ch=1 n=c7 v=0
58195 On ch=1 n=d#7 v=0
58317 On ch=1 n=c8 v=64
58317 On ch=1 n=d#7 v=64
58317 On ch=1 n=c7 v=64
58317 On ch=1 n=a2 v=64
58317 On ch=1 n=f#3 v=64
58317 On ch=1 n=a3 v=64
58435 On ch=1 n=a3 v=0
58435 On ch=1 n=f#3 v=0
58435 On ch=1 n=a2 v=0
58435 On ch=1 n=c7 v=0
58435 On ch=1 n=d#7 v=0
58435 On ch=1 n=c8 v=0
58517 Par ch=1 c=64 v=0
58557 On ch=1 n=g#3 v=64
58557 On ch=1 n=g#2 v=64
58557 On ch=1 n=e3 v=64
58557 On ch=1 n=b6 v=64
58557 On ch=1 n=e7 v=64
58557 On ch=1 n=b7 v=64
58557 Par ch=1 c=64 v=96
58675 On ch=1 n=b7 v=0
58675 On ch=1 n=e7 v=0
58675 On ch=1 n=b6 v=0
58675 On ch=1 n=e3 v=0
58675 On ch=1 n=g#2 v=0
58675 On ch=1 n=g#3 v=0
58797 On ch=1 n=b4 v=64
58797 On ch=1 n=b5 v=64
58855 On ch=1 n=b5 v=0
58855 On ch=1 n=b4 v=0
58857 On ch=1 n=a4 v=64
58857 On ch=1 n=a5 v=64
58915 On ch=1 n=a5 v=0
58915 On ch=1 n=a4 v=0
58917 On ch=1 n=g#4 v=64
58917 On ch=1 n=g#5 v=64
58975 On ch=1 n=g#5 v=0
58975 On ch=1 n=g#4 v=0
58977 On ch=1 n=f#4 v=64
58977 On ch=1 n=f#5 v=64
59035 On ch=1 n=f#5 v=0
59035 On ch=1 n=f#4 v=0
59037 On ch=1 n=e4 v=64
59037 On ch=1 n=e5 v=64
59155 On ch=1 n=e5 v=0
59155 On ch=1 n=e4 v=0
59237 Par ch=1 c=64 v=0
59277 Par ch=1 c=7 v=115
59277 On ch=1 n=g2 v=64
59277 On ch=1 n=g3 v=64
59277 On ch=1 n=a#7 v=64
59277 On ch=1 n=a#6 v=64
59277 On ch=1 n=e3 v=64
59277 On ch=1 n=c#7 v=64
59277 Par ch=1 c=64 v=96
59372 Par ch=1 c=7 v=116
59395 On ch=1 n=c#7 v=0
59395 On ch=1 n=e3 v=0
59395 On ch=1 n=a#6 v=0
59395 On ch=1 n=a#7 v=0
59395 On ch=1 n=g3 v=0
59395 On ch=1 n=g2 v=0
59468 Par ch=1 c=7 v=117
59517 On ch=1 n=g2 v=64
59517 On ch=1 n=g3 v=64
59517 On ch=1 n=a#7 v=64
59517 On ch=1 n=e3 v=64
59517 On ch=1 n=c#8 v=64
59517 On ch=1 n=c#7 v=64
59564 Par ch=1 c=7 v=118
59635 On ch=1 n=c#7 v=0
59635 On ch=1 n=c#8 v=0
59635 On ch=1 n=e3 v=0
59635 On ch=1 n=a#7 v=0
59635 On ch=1 n=g3 v=0
59635 On ch=1 n=g2 v=0
59660 Par ch=1 c=7 v=119
59717 Par ch=1 c=64 v=0
59756 Par ch=1 c=7 v=120
59757 On ch=1 n=d3 v=64
59757 On ch=1 n=d8 v=64
59757 On ch=1 n=d7 v=64
59757 On ch=1 n=f#2 v=64
59757 On ch=1 n=f#3 v=64
59757 On ch=1 n=a7 v=64
59757 Par ch=1 c=64 v=96
59875 On ch=1 n=a7 v=0
59875 On ch=1 n=f#3 v=0
59875 On ch=1 n=f#2 v=0
59875 On ch=1 n=d7 v=0
59875 On ch=1 n=d8 v=0
59875 On ch=1 n=d3 v=0
59997 On ch=1 n=d4 v=64
59997 On ch=1 n=d5 v=64
60055 On ch=1 n=d5 v=0
60055 On ch=1 n=d4 v=0
60057 On ch=1 n=e4 v=64
60057 On ch=1 n=e5 v=64
60115 On ch=1 n=e5 v=0
60115 On ch=1 n=e4 v=0
60117 On ch=1 n=f#4 v=64
60117 On ch=1 n=f#5 v=64
60175 On ch=1 n=f#5 v=0
60175 On ch=1 n=f#4 v=0
60177 On ch=1 n=g4 v=64
60177 On ch=1 n=g5 v=64
60235 On ch=1 n=g5 v=0
60235 On ch=1 n=g4 v=0
60237 On ch=1 n=a4 v=64
60237 On ch=1 n=a5 v=64
60355 On ch=1 n=a5 v=0
60355 On ch=1 n=a4 v=0
60437 Par ch=1 c=64 v=0
60477 On ch=1 n=d7 v=64
60477 On ch=1 n=g#6 v=64
60477 On ch=1 n=d6 v=64
60477 On ch=1 n=d3 v=64
60477 On ch=1 n=f3 v=64
60477 On ch=1 n=f2 v=64
60477 On ch=1 n=b6 v=64
60477 Par ch=1 c=64 v=96
60595 On ch=1 n=b6 v=0
60595 On ch=1 n=f2 v=0
60595 On ch=1 n=f3 v=0
60595 On ch=1 n=d3 v=0
60595 On ch=1 n=d6 v=0
60595 On ch=1 n=g#6 v=0
60595 On ch=1 n=d7 v=0
60717 On ch=1 n=d4 v=64
60717 On ch=1 n=d5 v=64
60775 On ch=1 n=d5 v=0
60775 On ch=1 n=d4 v=0
60777 On ch=1 n=f4 v=64
60777 On ch=1 n=f5 v=64
60835 On ch=1 n=f5 v=0
60835 On ch=1 n=f4 v=0
60837 On ch=1 n=g#4 v=64
60837 On ch=1 n=g#5 v=64
60895 On ch=1 n=g#5 v=0
60895 On ch=1 n=g#4 v=0
60897 On ch=1 n=a#4 v=64
60897 On ch=1 n=a#5 v=64
60955 On ch=1 n=a#5 v=0
60955 On ch=1 n=a#4 v=0
60957 On ch=1 n=c5 v=64
60957 On ch=1 n=c6 v=64
61075 On ch=1 n=c6 v=0
61075 On ch=1 n=c5 v=0
61197 On ch=1 n=d5 v=64
61197 On ch=1 n=d6 v=64
61255 On ch=1 n=d6 v=0
61255 On ch=1 n=d5 v=0
61257 On ch=1 n=f5 v=64
61257 On ch=1 n=f6 v=64
61315 On ch=1 n=f6 v=0
61315 On ch=1 n=f5 v=0
61317 On ch=1 n=g#5 v=64
61317 On ch=1 n=g#6 v=64
61375 On ch=1 n=g#6 v=0
61375 On ch=1 n=g#5 v=0
61377 On ch=1 n=a#5 v=64
61377 On ch=1 n=a#6 v=64
61435 On ch=1 n=a#6 v=0
61435 On ch=1 n=a#5 v=0
61437 On ch=1 n=c6 v=64
61437 On ch=1 n=c7 v=64
61555 On ch=1 n=c7 v=0
61555 On ch=1 n=c6 v=0
61677 On ch=1 n=d6 v=64
61677 On ch=1 n=d7 v=64
61735 On ch=1 n=d7 v=0
61735 On ch=1 n=d6 v=0
61737 On ch=1 n=f6 v=64
61737 On ch=1 n=f7 v=64
61795 On ch=1 n=f7 v=0
61795 On ch=1 n=f6 v=0
61797 On ch=1 n=g#6 v=64
61797 On ch=1 n=g#7 v=64
61855 On ch=1 n=g#7 v=0
61855 On ch=1 n=g#6 v=0
61857 On ch=1 n=a#6 v=64
61857 On ch=1 n=a#7 v=64
61915 On ch=1 n=a#7 v=0
61915 On ch=1 n=a#6 v=0
61917 On ch=1 n=b6 v=64
61917 On ch=1 n=b7 v=64
62035 On ch=1 n=b7 v=0
62035 On ch=1 n=b6 v=0
62157 Par ch=1 c=64 v=0
62277 On ch=1 n=f#3 v=64
62277 On ch=1 n=d#3 v=64
62277 On ch=1 n=f#2 v=64
62277 On ch=1 n=d#7 v=64
62277 On ch=1 n=b7 v=64
62277 On ch=1 n=d#8 v=64
62277 Par ch=1 c=64 v=96
62335 On ch=1 n=d#8 v=0
62335 On ch=1 n=b7 v=0
62335 On ch=1 n=d#7 v=0
62335 On ch=1 n=f#2 v=0
62335 On ch=1 n=d#3 v=0
62335 On ch=1 n=f#3 v=0
62397 On ch=1 n=f#3 v=64
62397 On ch=1 n=d#3 v=64
62397 On ch=1 n=f#2 v=64
62397 On ch=1 n=d#8 v=64
62397 On ch=1 n=b7 v=64
62397 On ch=1 n=d#7 v=64
62515 On ch=1 n=d#7 v=0
62515 On ch=1 n=b7 v=0
62515 On ch=1 n=d#8 v=0
62515 On ch=1 n=f#2 v=0
62515 On ch=1 n=d#3 v=0
62515 On ch=1 n=f#3 v=0
62637 On ch=1 n=b3 v=64
62637 On ch=1 n=f#3 v=64
62637 On ch=1 n=b2 v=64
62637 On ch=1 n=b7 v=64
62637 On ch=1 n=d#7 v=64
62637 On ch=1 n=b6 v=64
62755 On ch=1 n=b6 v=0
62755 On ch=1 n=d#7 v=0
62755 On ch=1 n=b7 v=0
62755 On ch=1 n=b2 v=0
62755 On ch=1 n=f#3 v=0
62755 On ch=1 n=b3 v=0
62997 On ch=1 n=d#4 v=64
62997 On ch=1 n=b3 v=64
62997 On ch=1 n=d#3 v=64
62997 On ch=1 n=f#7 v=64
62997 On ch=1 n=b6 v=64
62997 On ch=1 n=f#6 v=64
63055 On ch=1 n=f#6 v=0
63055 On ch=1 n=b6 v=0
63055 On ch=1 n=f#7 v=0
63055 On ch=1 n=d#3 v=0
63055 On ch=1 n=b3 v=0
63055 On ch=1 n=d#4 v=0
63117 On ch=1 n=d#4 v=64
63117 On ch=1 n=b3 v=64
63117 On ch=1 n=d#3 v=64
63117 On ch=1 n=f#7 v=64
63117 On ch=1 n=b6 v=64
63117 On ch=1 n=f#6 v=64
63235 On ch=1 n=f#6 v=0
63235 On ch=1 n=b6 v=0
63235 On ch=1 n=f#7 v=0
63235 On ch=1 n=d#3 v=0
63235 On ch=1 n=b3 v=0
63235 On ch=1 n=d#4 v=0
63717 On ch=1 n=f#4 v=64
63717 On ch=1 n=b3 v=64
63717 On ch=1 n=f#3 v=64
63717 On ch=1 n=d#7 v=64
63717 On ch=1 n=b6 v=64
63717 On ch=1 n=d#6 v=64
63775 On ch=1 n=d#6 v=0
63775 On ch=1 n=b6 v=0
63775 On ch=1 n=d#7 v=0
63775 On ch=1 n=f#3 v=0
63775 On ch=1 n=b3 v=0
63775 On ch=1 n=f#4 v=0
63837 On ch=1 n=f#3 v=64
63837 On ch=1 n=b3 v=64
63837 On ch=1 n=f#4 v=64
63837 On ch=1 n=d#7 v=64
63837 On ch=1 n=b6 v=64
63837 On ch=1 n=d#6 v=64
63955 On ch=1 n=d#6 v=0
63955 On ch=1 n=b6 v=0
63955 On ch=1 n=d#7 v=0
63955 On ch=1 n=f#4 v=0
63955 On ch=1 n=b3 v=0
63955 On ch=1 n=f#3 v=0
64037 Par ch=1 c=64 v=0
64077 On ch=1 n=f4 v=64
64077 On ch=1 n=f3 v=64
64077 On ch=1 n=d7 v=64
64077 On ch=1 n=d6 v=64
64077 On ch=1 n=b3 v=64
64077 On ch=1 n=b6 v=64
64077 Par ch=1 c=64 v=96
64195 On ch=1 n=b6 v=0
64195 On ch=1 n=b3 v=0
64195 On ch=1 n=d6 v=0
64195 On ch=1 n=d7 v=0
64195 On ch=1 n=f3 v=0
64195 On ch=1 n=f4 v=0
64317 On ch=1 n=f#4 v=64
64317 On ch=1 n=f#3 v=64
64317 On ch=1 n=b3 v=64
64317 On ch=1 n=d#7 v=64
64317 On ch=1 n=b6 v=64
64317 On ch=1 n=d#6 v=64
64435 On ch=1 n=d#6 v=0
64435 On ch=1 n=b6 v=0
64435 On ch=1 n=d#7 v=0
64435 On ch=1 n=b3 v=0
64435 On ch=1 n=f#3 v=0
64435 On ch=1 n=f#4 v=0
64557 Par ch=1 c=64 v=0
64797 On ch=1 n=g#4 v=64
64797 On ch=1 n=d#4 v=64
64797 On ch=1 n=g#3 v=64
64797 On ch=1 n=f#6 v=64
64797 On ch=1 n=b6 v=64
64797 On ch=1 n=f#7 v=64
64797 Par ch=1 c=64 v=96
64915 On ch=1 n=f#7 v=0
64915 On ch=1 n=b6 v=0
64915 On ch=1 n=f#6 v=0
64915 On ch=1 n=g#3 v=0
64915 On ch=1 n=d#4 v=0
64915 On ch=1 n=g#4 v=0
65157 On ch=1 n=d4 v=64
65157 On ch=1 n=d5 v=64
65157 On ch=1 n=d6 v=64
65157 On ch=1 n=d7 v=64
65215 On ch=1 n=d7 v=0
65215 On ch=1 n=d6 v=0
65215 On ch=1 n=d5 v=0
65215 On ch=1 n=d4 v=0
65277 On ch=1 n=d#4 v=64
65277 On ch=1 n=d#5 v=64
65277 On ch=1 n=d#6 v=64
65277 On ch=1 n=d#7 v=64
65395 On ch=1 n=d#7 v=0
65395 On ch=1 n=d#6 v=0
65395 On ch=1 n=d#5 v=0
65395 On ch=1 n=d#4 v=0
65477 Par ch=1 c=64 v=0
65517 On ch=1 n=d#4 v=64
65517 On ch=1 n=c7 v=64
65517 On ch=1 n=a4 v=64
65517 On ch=1 n=f#4 v=64
65517 On ch=1 n=a3 v=64
65517 On ch=1 n=f#6 v=64
65517 On ch=1 n=f#7 v=64
65517 Par ch=1 c=64 v=96
65635 On ch=1 n=f#7 v=0
65635 On ch=1 n=f#6 v=0
65635 On ch=1 n=a3 v=0
65635 On ch=1 n=f#4 v=0
65635 On ch=1 n=a4 v=0
65635 On ch=1 n=c7 v=0
65635 On ch=1 n=d#4 v=0
65877 On ch=1 n=d4 v=64
65877 On ch=1 n=d5 v=64
65877 On ch=1 n=d6 v=64
65877 On ch=1 n=d7 v=64
65935 On ch=1 n=d7 v=0
65935 On ch=1 n=d6 v=0
65935 On ch=1 n=d5 v=0
65935 On ch=1 n=d4 v=0
65997 On ch=1 n=d#4 v=64
65997 On ch=1 n=d#5 v=64
65997 On ch=1 n=d#6 v=64
65997 On ch=1 n=d#7 v=64
66115 On ch=1 n=d#7 v=0
66115 On ch=1 n=d#6 v=0
66115 On ch=1 n=d#5 v=0
66115 On ch=1 n=d#4 v=0
66197 Par ch=1 c=64 v=0
66237 On ch=1 n=a#4 v=64
66237 On ch=1 n=f4 v=64
66237 On ch=1 n=a#3 v=64
66237 On ch=1 n=a#6 v=64
66237 On ch=1 n=d7 v=64
66237 On ch=1 n=a#7 v=64
66237 Par ch=1 c=64 v=96
66355 On ch=1 n=a#7 v=0
66355 On ch=1 n=d7 v=0
66355 On ch=1 n=a#6 v=0
66355 On ch=1 n=a#3 v=0
66355 On ch=1 n=f4 v=0
66355 On ch=1 n=a#4 v=0
66437 Par ch=1 c=64 v=0
66477 Par ch=1 c=7 v=120
66477 On ch=1 n=f3 v=64
66597 On ch=1 n=f4 v=64
66715 On ch=1 n=f4 v=0
66715 On ch=1 n=f3 v=0
66716 Par ch=1 c=7 v=121
66717 On ch=1 n=d#3 v=64
66837 On ch=1 n=d#4 v=64
66955 On ch=1 n=d#4 v=0
66955 On ch=1 n=d#3 v=0
66956 Par ch=1 c=7 v=122
66957 On ch=1 n=d3 v=64
67077 On ch=1 n=d4 v=64
67195 On ch=1 n=d4 v=0
67195 On ch=1 n=d3 v=0
67196 Par ch=1 c=7 v=123
67197 On ch=1 n=b2 v=64
67317 On ch=1 n=b3 v=64
67435 On ch=1 n=b3 v=0
67435 On ch=1 n=b2 v=0
67436 Par ch=1 c=7 v=124
67437 On ch=1 n=a#2 v=64
67437 Par ch=1 c=64 v=96
67557 On ch=1 n=a#3 v=64
67675 On ch=1 n=a#3 v=0
67675 On ch=1 n=a#2 v=0
67676 Par ch=1 c=7 v=125
67677 On ch=1 n=d#4 v=64
67677 On ch=1 n=c4 v=64
67677 On ch=1 n=a#3 v=64
67677 On ch=1 n=a4 v=64
67677 On ch=1 n=f#4 v=64
67677 On ch=1 n=f#7 v=64
67677 On ch=1 n=a6 v=64
67677 On ch=1 n=f#6 v=64
67795 On ch=1 n=f#6 v=0
67795 On ch=1 n=a6 v=0
67795 On ch=1 n=f#7 v=0
67795 On ch=1 n=f#4 v=0
67795 On ch=1 n=a4 v=0
67795 On ch=1 n=a#3 v=0
67795 On ch=1 n=c4 v=0
67795 On ch=1 n=d#4 v=0
68037 On ch=1 n=c4 v=64
68037 On ch=1 n=d#4 v=64
68037 On ch=1 n=a#3 v=64
68037 On ch=1 n=d#7 v=64
68037 On ch=1 n=d#6 v=64
68037 On ch=1 n=a4 v=64
68037 On ch=1 n=f#4 v=64
68037 On ch=1 n=f#6 v=64
68095 On ch=1 n=f#6 v=0
68095 On ch=1 n=f#4 v=0
68095 On ch=1 n=a4 v=0
68095 On ch=1 n=d#6 v=0
68095 On ch=1 n=d#7 v=0
68095 On ch=1 n=a#3 v=0
68095 On ch=1 n=d#4 v=0
68095 On ch=1 n=c4 v=0
68157 On ch=1 n=d#4 v=64
68157 On ch=1 n=c4 v=64
68157 On ch=1 n=a#3 v=64
68157 On ch=1 n=a#3 v=64
68157 On ch=1 n=d#7 v=64
68157 On ch=1 n=d#6 v=64
68157 On ch=1 n=a4 v=64
68157 On ch=1 n=f#4 v=64
68157 On ch=1 n=f#6 v=64
68275 On ch=1 n=f#6 v=0
68275 On ch=1 n=f#4 v=0
68275 On ch=1 n=a4 v=0
68275 On ch=1 n=d#6 v=0
68275 On ch=1 n=d#7 v=0
68275 On ch=1 n=a#3 v=0
68275 On ch=1 n=a#3 v=0
68275 On ch=1 n=c4 v=0
68275 On ch=1 n=d#4 v=0
68757 On ch=1 n=d#4 v=64
68757 On ch=1 n=c4 v=64
68757 On ch=1 n=a#3 v=64
68757 On ch=1 n=c7 v=64
68757 On ch=1 n=d#6 v=64
68757 On ch=1 n=c6 v=64
68757 On ch=1 n=a4 v=64
68757 On ch=1 n=f#4 v=64
68815 On ch=1 n=f#4 v=0
68815 On ch=1 n=a4 v=0
68815 On ch=1 n=c6 v=0
68815 On ch=1 n=d#6 v=0
68815 On ch=1 n=c7 v=0
68815 On ch=1 n=a#3 v=0
68815 On ch=1 n=c4 v=0
68815 On ch=1 n=d#4 v=0
68877 On ch=1 n=d#4 v=64
68877 On ch=1 n=c4 v=64
68877 On ch=1 n=a#3 v=64
68877 On ch=1 n=a4 v=64
68877 On ch=1 n=f#4 v=64
68877 On ch=1 n=c6 v=64
68877 On ch=1 n=d#6 v=64
68877 On ch=1 n=c7 v=64
68995 On ch=1 n=c7 v=0
68995 On ch=1 n=d#6 v=0
68995 On ch=1 n=c6 v=0
68995 On ch=1 n=f#4 v=0
68995 On ch=1 n=a4 v=0
68995 On ch=1 n=a#3 v=0
68995 On ch=1 n=c4 v=0
68995 On ch=1 n=d#4 v=0
69357 On ch=1 n=c6 v=64
69357 On ch=1 n=d#4 v=64
69357 On ch=1 n=c4 v=64
69357 On ch=1 n=a#3 v=64
69357 On ch=1 n=a4 v=64
69357 On ch=1 n=f#4 v=64
69357 On ch=1 n=a5 v=64
69357 On ch=1 n=a6 v=64
69415 On ch=1 n=a6 v=0
69415 On ch=1 n=a5 v=0
69415 On ch=1 n=f#4 v=0
69415 On ch=1 n=a4 v=0
69415 On ch=1 n=a#3 v=0
69415 On ch=1 n=c4 v=0
69415 On ch=1 n=d#4 v=0
69415 On ch=1 n=c6 v=0
69477 On ch=1 n=d#4 v=64
69477 On ch=1 n=c4 v=64
69477 On ch=1 n=a#3 v=64
69477 On ch=1 n=a4 v=64
69477 On ch=1 n=f#4 v=64
69477 On ch=1 n=f#5 v=64
69477 On ch=1 n=f#6 v=64
69535 On ch=1 n=f#6 v=0
69535 On ch=1 n=f#5 v=0
69535 On ch=1 n=f#4 v=0
69535 On ch=1 n=a4 v=0
69535 On ch=1 n=a#3 v=0
69535 On ch=1 n=c4 v=0
69535 On ch=1 n=d#4 v=0
69597 On ch=1 n=f5 v=64
69597 On ch=1 n=f6 v=64
69597 On ch=1 n=d#4 v=64
69597 On ch=1 n=c4 v=64
69597 On ch=1 n=a#3 v=64
69597 On ch=1 n=a4 v=64
69597 On ch=1 n=f#4 v=64
69655 On ch=1 n=f#4 v=0
69655 On ch=1 n=a4 v=0
69655 On ch=1 n=a#3 v=0
69655 On ch=1 n=c4 v=0
69655 On ch=1 n=d#4 v=0
69655 On ch=1 n=f6 v=0
69655 On ch=1 n=f5 v=0
69717 On ch=1 n=d#5 v=64
69717 On ch=1 n=d#6 v=64
69717 On ch=1 n=d#4 v=64
69717 On ch=1 n=c4 v=64
69717 On ch=1 n=a#3 v=64
69717 On ch=1 n=a4 v=64
69717 On ch=1 n=f#4 v=64
69775 On ch=1 n=f#4 v=0
69775 On ch=1 n=a4 v=0
69775 On ch=1 n=a#3 v=0
69775 On ch=1 n=c4 v=0
69775 On ch=1 n=d#4 v=0
69775 On ch=1 n=d#6 v=0
69775 On ch=1 n=d#5 v=0
69837 On ch=1 n=a#4 v=64
69837 On ch=1 n=f4 v=64
69837 On ch=1 n=d4 v=64
69837 On ch=1 n=a#3 v=64
69837 On ch=1 n=a#6 v=64
69837 On ch=1 n=d6 v=64
69837 On ch=1 n=a#5 v=64
69955 On ch=1 n=a#5 v=0
69955 On ch=1 n=d6 v=0
69955 On ch=1 n=a#6 v=0
69955 On ch=1 n=a#3 v=0
69955 On ch=1 n=d4 v=0
69955 On ch=1 n=f4 v=0
69955 On ch=1 n=a#4 v=0
70037 Par ch=1 c=64 v=0
70077 Par ch=1 c=7 v=120
70077 On ch=1 n=f3 v=64
70077 On ch=1 n=f4 v=64
70197 On ch=1 n=f5 v=64
70315 On ch=1 n=f5 v=0
70315 On ch=1 n=f4 v=0
70315 On ch=1 n=f3 v=0
70316 Par ch=1 c=7 v=121
70317 On ch=1 n=d#3 v=64
70317 On ch=1 n=d#4 v=64
70437 On ch=1 n=d#5 v=64
70555 On ch=1 n=d#5 v=0
70555 On ch=1 n=d#4 v=0
70555 On ch=1 n=d#3 v=0
70556 Par ch=1 c=7 v=122
70557 On ch=1 n=d3 v=64
70557 On ch=1 n=d4 v=64
70677 On ch=1 n=d5 v=64
70795 On ch=1 n=d5 v=0
70795 On ch=1 n=d4 v=0
70795 On ch=1 n=d3 v=0
70796 Par ch=1 c=7 v=123
70797 On ch=1 n=b2 v=64
70797 On ch=1 n=b3 v=64
70917 On ch=1 n=b4 v=64
71035 On ch=1 n=b4 v=0
71035 On ch=1 n=b3 v=0
71035 On ch=1 n=b2 v=0
71036 Par ch=1 c=7 v=124
71037 On ch=1 n=a#2 v=64
71037 On ch=1 n=a#3 v=64
71037 Par ch=1 c=64 v=96
71157 On ch=1 n=a#4 v=64
71275 On ch=1 n=a#4 v=0
71275 On ch=1 n=a#3 v=0
71275 On ch=1 n=a#2 v=0
71276 Par ch=1 c=7 v=125
71277 On ch=1 n=g4 v=64
71277 On ch=1 n=d#4 v=64
71277 On ch=1 n=c4 v=64
71277 On ch=1 n=a#3 v=64
71277 On ch=1 n=d#8 v=64
71277 On ch=1 n=d#7 v=64
71277 On ch=1 n=a4 v=64
71277 On ch=1 n=f#7 v=64
71395 On ch=1 n=f#7 v=0
71395 On ch=1 n=a4 v=0
71395 On ch=1 n=d#7 v=0
71395 On ch=1 n=d#8 v=0
71395 On ch=1 n=a#3 v=0
71395 On ch=1 n=c4 v=0
71395 On ch=1 n=d#4 v=0
71395 On ch=1 n=g4 v=0
71637 On ch=1 n=g4 v=64
71637 On ch=1 n=d#4 v=64
71637 On ch=1 n=c4 v=64
71637 On ch=1 n=a#3 v=64
71637 On ch=1 n=c8 v=64
71637 On ch=1 n=d#7 v=64
71637 On ch=1 n=c7 v=64
71637 On ch=1 n=a4 v=64
71695 On ch=1 n=a4 v=0
71695 On ch=1 n=c7 v=0
71695 On ch=1 n=d#7 v=0
71695 On ch=1 n=c8 v=0
71695 On ch=1 n=a#3 v=0
71695 On ch=1 n=c4 v=0
71695 On ch=1 n=d#4 v=0
71695 On ch=1 n=g4 v=0
71757 On ch=1 n=g4 v=64
71757 On ch=1 n=d#4 v=64
71757 On ch=1 n=c4 v=64
71757 On ch=1 n=a#3 v=64
71757 On ch=1 n=c8 v=64
71757 On ch=1 n=d#7 v=64
71757 On ch=1 n=c7 v=64
71757 On ch=1 n=a4 v=64
71875 On ch=1 n=a4 v=0
71875 On ch=1 n=c7 v=0
71875 On ch=1 n=d#7 v=0
71875 On ch=1 n=c8 v=0
71875 On ch=1 n=a#3 v=0
71875 On ch=1 n=c4 v=0
71875 On ch=1 n=d#4 v=0
71875 On ch=1 n=g4 v=0
72357 On ch=1 n=g4 v=64
72357 On ch=1 n=d#4 v=64
72357 On ch=1 n=c4 v=64
72357 On ch=1 n=a#3 v=64
72357 On ch=1 n=c7 v=64
72357 On ch=1 n=a6 v=64
72357 On ch=1 n=a7 v=64
72357 On ch=1 n=a4 v=64
72415 On ch=1 n=a4 v=0
72415 On ch=1 n=a7 v=0
72415 On ch=1 n=a6 v=0
72415 On ch=1 n=c7 v=0
72415 On ch=1 n=a#3 v=0
72415 On ch=1 n=c4 v=0
72415 On ch=1 n=d#4 v=0
72415 On ch=1 n=g4 v=0
72477 On ch=1 n=g4 v=64
72477 On ch=1 n=d#4 v=64
72477 On ch=1 n=c4 v=64
72477 On ch=1 n=a#3 v=64
72477 On ch=1 n=c7 v=64
72477 On ch=1 n=a6 v=64
72477 On ch=1 n=a7 v=64
72477 On ch=1 n=a4 v=64
72595 On ch=1 n=a4 v=0
72595 On ch=1 n=a7 v=0
72595 On ch=1 n=a6 v=0
72595 On ch=1 n=c7 v=0
72595 On ch=1 n=a#3 v=0
72595 On ch=1 n=c4 v=0
72595 On ch=1 n=d#4 v=0
72595 On ch=1 n=g4 v=0
72957 On ch=1 n=g4 v=64
72957 On ch=1 n=d#4 v=64
72957 On ch=1 n=c4 v=64
72957 On ch=1 n=a#3 v=64
72957 On ch=1 n=f#6 v=64
72957 On ch=1 n=f#7 v=64
72957 On ch=1 n=a4 v=64
73015 On ch=1 n=a4 v=0
73015 On ch=1 n=f#7 v=0
73015 On ch=1 n=f#6 v=0
73015 On ch=1 n=a#3 v=0
73015 On ch=1 n=c4 v=0
73015 On ch=1 n=d#4 v=0
73015 On ch=1 n=g4 v=0
73077 On ch=1 n=a#3 v=64
73077 On ch=1 n=c4 v=64
73077 On ch=1 n=d#4 v=64
73077 On ch=1 n=g4 v=64
73077 On ch=1 n=f6 v=64
73077 On ch=1 n=f7 v=64
73077 On ch=1 n=a4 v=64
73135 On ch=1 n=a4 v=0
73135 On ch=1 n=f7 v=0
73135 On ch=1 n=f6 v=0
73135 On ch=1 n=g4 v=0
73135 On ch=1 n=d#4 v=0
73135 On ch=1 n=c4 v=0
73135 On ch=1 n=a#3 v=0
73197 On ch=1 n=g4 v=64
73197 On ch=1 n=d#4 v=64
73197 On ch=1 n=c4 v=64
73197 On ch=1 n=a#3 v=64
73197 On ch=1 n=e6 v=64
73197 On ch=1 n=e7 v=64
73197 On ch=1 n=a4 v=64
73255 On ch=1 n=a4 v=0
73255 On ch=1 n=e7 v=0
73255 On ch=1 n=e6 v=0
73255 On ch=1 n=a#3 v=0
73255 On ch=1 n=c4 v=0
73255 On ch=1 n=d#4 v=0
73255 On ch=1 n=g4 v=0
73317 On ch=1 n=a#3 v=64
73317 On ch=1 n=c4 v=64
73317 On ch=1 n=d#4 v=64
73317 On ch=1 n=g4 v=64
73317 On ch=1 n=d#6 v=64
73317 On ch=1 n=d#7 v=64
73317 On ch=1 n=a4 v=64
73375 On ch=1 n=a4 v=0
73375 On ch=1 n=d#7 v=0
73375 On ch=1 n=d#6 v=0
73375 On ch=1 n=g4 v=0
73375 On ch=1 n=d#4 v=0
73375 On ch=1 n=c4 v=0
73375 On ch=1 n=a#3 v=0
73437 On ch=1 n=a#4 v=64
73437 On ch=1 n=f4 v=64
73437 On ch=1 n=d4 v=64
73437 On ch=1 n=a#3 v=64
73437 On ch=1 n=a#6 v=64
73437 On ch=1 n=d7 v=64
73437 On ch=1 n=a#7 v=64
73555 On ch=1 n=a#7 v=0
73555 On ch=1 n=d7 v=0
73555 On ch=1 n=a#6 v=0
73555 On ch=1 n=a#3 v=0
73555 On ch=1 n=d4 v=0
73555 On ch=1 n=f4 v=0
73555 On ch=1 n=a#4 v=0
73637 Par ch=1 c=64 v=0
73677 Par ch=1 c=7 v=120
73677 On ch=1 n=f5 v=64
73677 Par ch=1 c=64 v=96
73795 On ch=1 n=f5 v=0
73797 On ch=1 n=g#5 v=64
73797 On ch=1 n=a#5 v=64
73915 On ch=1 n=a#5 v=0
73915 On ch=1 n=g#5 v=0
73916 Par ch=1 c=7 v=121
73917 On ch=1 n=d#5 v=64
74035 On ch=1 n=d#5 v=0
74037 On ch=1 n=g#5 v=64
74037 On ch=1 n=a#5 v=64
74155 On ch=1 n=a#5 v=0
74155 On ch=1 n=g#5 v=0
74156 Par ch=1 c=7 v=122
74157 On ch=1 n=d5 v=64
74275 On ch=1 n=d5 v=0
74277 On ch=1 n=a#5 v=64
74277 On ch=1 n=g#5 v=64
74395 On ch=1 n=g#5 v=0
74395 On ch=1 n=a#5 v=0
74396 Par ch=1 c=7 v=123
74397 On ch=1 n=c5 v=64
74515 On ch=1 n=c5 v=0
74517 On ch=1 n=g#5 v=64
74517 On ch=1 n=a#5 v=64
74635 On ch=1 n=a#5 v=0
74635 On ch=1 n=g#5 v=0
74636 Par ch=1 c=7 v=124
74637 On ch=1 n=a#4 v=64
74755 On ch=1 n=a#4 v=0
74757 On ch=1 n=a#5 v=64
74757 On ch=1 n=g#5 v=64
74837 Par ch=1 c=64 v=0
74875 On ch=1 n=g#5 v=0
74875 On ch=1 n=a#5 v=0
74876 Par ch=1 c=7 v=125
74877 On ch=1 n=g#3 v=64
74877 On ch=1 n=g#4 v=64
74877 On ch=1 n=e4 v=64
74877 On ch=1 n=b4 v=64
74877 On ch=1 n=b5 v=64
74877 Par ch=1 c=64 v=96
74995 On ch=1 n=b5 v=0
74995 On ch=1 n=b4 v=0
74995 On ch=1 n=e4 v=0
74995 On ch=1 n=g#4 v=0
74995 On ch=1 n=g#3 v=0
74997 On ch=1 n=e5 v=64
75115 On ch=1 n=e5 v=0
75117 On ch=1 n=g#5 v=64
75117 On ch=1 n=f#3 v=64
75117 On ch=1 n=f#4 v=64
75235 On ch=1 n=f#4 v=0
75235 On ch=1 n=f#3 v=0
75235 On ch=1 n=g#5 v=0
75237 On ch=1 n=b5 v=64
75355 On ch=1 n=b5 v=0
75357 On ch=1 n=e3 v=64
75357 On ch=1 n=e4 v=64
75357 On ch=1 n=e6 v=64
75475 On ch=1 n=e6 v=0
75475 On ch=1 n=e4 v=0
75475 On ch=1 n=e3 v=0
75477 On ch=1 n=g#6 v=64
75595 On ch=1 n=g#6 v=0
75597 On ch=1 n=b6 v=64
75597 On ch=1 n=c#3 v=64
75597 On ch=1 n=c#4 v=64
75715 On ch=1 n=c#4 v=0
75715 On ch=1 n=c#3 v=0
75715 On ch=1 n=b6 v=0
75717 On ch=1 n=e7 v=64
75835 On ch=1 n=e7 v=0
75837 On ch=1 n=g#7 v=64
75837 On ch=1 n=b2 v=64
75837 On ch=1 n=b3 v=64
75955 On ch=1 n=b3 v=0
75955 On ch=1 n=b2 v=0
75955 On ch=1 n=g#7 v=0
75957 On ch=1 n=a#7 v=64
76075 On ch=1 n=a#7 v=0
76077 On ch=1 n=g#2 v=64
76077 On ch=1 n=g#3 v=64
76077 On ch=1 n=e7 v=64
76077 On ch=1 n=b6 v=64
76077 On ch=1 n=b7 v=64
76195 On ch=1 n=b7 v=0
76195 On ch=1 n=b6 v=0
76195 On ch=1 n=e7 v=0
76195 On ch=1 n=g#3 v=0
76195 On ch=1 n=g#2 v=0
76277 Par ch=1 c=64 v=0
76317 On ch=1 n=a#3 v=64
76317 On ch=1 n=f3 v=64
76317 On ch=1 n=a#2 v=64
76317 On ch=1 n=d8 v=64
76317 On ch=1 n=f7 v=64
76317 On ch=1 n=d7 v=64
76317 Par ch=1 c=64 v=96
76435 On ch=1 n=d7 v=0
76435 On ch=1 n=f7 v=0
76435 On ch=1 n=d8 v=0
76435 On ch=1 n=a#2 v=0
76435 On ch=1 n=f3 v=0
76435 On ch=1 n=a#3 v=0
76517 Par ch=1 c=64 v=0
76557 Par ch=1 c=7 v=120
76557 On ch=1 n=f5 v=64
76557 Par ch=1 c=64 v=96
76675 On ch=1 n=f5 v=0
76677 On ch=1 n=g#5 v=64
76677 On ch=1 n=a#5 v=64
76795 On ch=1 n=a#5 v=0
76795 On ch=1 n=g#5 v=0
76796 Par ch=1 c=7 v=121
76797 On ch=1 n=d#5 v=64
76915 On ch=1 n=d#5 v=0
76917 On ch=1 n=g#5 v=64
76917 On ch=1 n=a#5 v=64
77035 On ch=1 n=a#5 v=0
77035 On ch=1 n=g#5 v=0
77036 Par ch=1 c=7 v=122
77037 On ch=1 n=d5 v=64
77155 On ch=1 n=d5 v=0
77157 On ch=1 n=a#5 v=64
77157 On ch=1 n=g#5 v=64
77275 On ch=1 n=g#5 v=0
77275 On ch=1 n=a#5 v=0
77276 Par ch=1 c=7 v=123
77277 On ch=1 n=c5 v=64
77395 On ch=1 n=c5 v=0
77397 On ch=1 n=g#5 v=64
77397 On ch=1 n=a#5 v=64
77515 On ch=1 n=a#5 v=0
77515 On ch=1 n=g#5 v=0
77516 Par ch=1 c=7 v=124
77517 On ch=1 n=a#4 v=64
77635 On ch=1 n=a#4 v=0
77637 On ch=1 n=a#5 v=64
77637 On ch=1 n=g#5 v=64
77717 Par ch=1 c=64 v=0
77755 On ch=1 n=g#5 v=0
77755 On ch=1 n=a#5 v=0
77756 Par ch=1 c=7 v=125
77757 On ch=1 n=g#3 v=64
77757 On ch=1 n=g#4 v=64
77757 On ch=1 n=e4 v=64
77757 On ch=1 n=b4 v=64
77757 On ch=1 n=b5 v=64
77757 Par ch=1 c=64 v=96
77875 On ch=1 n=b5 v=0
77875 On ch=1 n=b4 v=0
77875 On ch=1 n=e4 v=0
77875 On ch=1 n=g#4 v=0
77875 On ch=1 n=g#3 v=0
77877 On ch=1 n=e5 v=64
77995 On ch=1 n=e5 v=0
77997 On ch=1 n=g#5 v=64
77997 On ch=1 n=f#3 v=64
77997 On ch=1 n=f#4 v=64
78115 On ch=1 n=f#4 v=0
78115 On ch=1 n=f#3 v=0
78115 On ch=1 n=g#5 v=0
78117 On ch=1 n=b5 v=64
78235 On ch=1 n=b5 v=0
78237 On ch=1 n=e3 v=64
78237 On ch=1 n=e4 v=64
78237 On ch=1 n=e6 v=64
78355 On ch=1 n=e6 v=0
78355 On ch=1 n=e4 v=0
78355 On ch=1 n=e3 v=0
78357 On ch=1 n=g#6 v=64
78475 On ch=1 n=g#6 v=0
78477 On ch=1 n=b6 v=64
78477 On ch=1 n=c#3 v=64
78477 On ch=1 n=c#4 v=64
78595 On ch=1 n=c#4 v=0
78595 On ch=1 n=c#3 v=0
78595 On ch=1 n=b6 v=0
78597 On ch=1 n=e7 v=64
78715 On ch=1 n=e7 v=0
78717 On ch=1 n=g#7 v=64
78717 On ch=1 n=b2 v=64
78717 On ch=1 n=b3 v=64
78835 On ch=1 n=b3 v=0
78835 On ch=1 n=b2 v=0
78835 On ch=1 n=g#7 v=0
78837 On ch=1 n=a#7 v=64
78955 On ch=1 n=a#7 v=0
78957 On ch=1 n=g#2 v=64
78957 On ch=1 n=g#3 v=64
78957 On ch=1 n=e7 v=64
78957 On ch=1 n=b6 v=64
78957 On ch=1 n=b7 v=64
79075 On ch=1 n=b7 v=0
79075 On ch=1 n=b6 v=0
79075 On ch=1 n=e7 v=0
79075 On ch=1 n=g#3 v=0
79075 On ch=1 n=g#2 v=0
79157 Par ch=1 c=64 v=0
79197 On ch=1 n=a#3 v=64
79197 On ch=1 n=f3 v=64
79197 On ch=1 n=a#2 v=64
79197 On ch=1 n=d8 v=64
79197 On ch=1 n=f7 v=64
79197 On ch=1 n=d7 v=64
79197 Par ch=1 c=64 v=96
79315 On ch=1 n=d7 v=0
79315 On ch=1 n=f7 v=0
79315 On ch=1 n=d8 v=0
79315 On ch=1 n=a#2 v=0
79315 On ch=1 n=f3 v=0
79315 On ch=1 n=a#3 v=0
79557 On ch=1 n=g#5 v=64
79557 On ch=1 n=f5 v=64
79557 On ch=1 n=a#4 v=64
79557 On ch=1 n=d6 v=64
79557 On ch=1 n=a#5 v=64
79557 On ch=1 n=a#6 v=64
79675 On ch=1 n=a#6 v=0
79675 On ch=1 n=a#5 v=0
79675 On ch=1 n=d6 v=0
79675 On ch=1 n=a#4 v=0
79675 On ch=1 n=f5 v=0
79675 On ch=1 n=g#5 v=0
79677 On ch=1 n=g#5 v=64
79677 On ch=1 n=f5 v=64
79677 On ch=1 n=a#4 v=64
79677 On ch=1 n=a#5 v=64
79677 On ch=1 n=d6 v=64
79677 On ch=1 n=a#6 v=64
79915 On ch=1 n=a#6 v=0
79915 On ch=1 n=d6 v=0
79915 On ch=1 n=a#5 v=0
79915 On ch=1 n=a#4 v=0
79915 On ch=1 n=f5 v=0
79915 On ch=1 n=g#5 v=0
79917 On ch=1 n=g#5 v=64
79917 On ch=1 n=f5 v=64
79917 On ch=1 n=a#4 v=64
79917 On ch=1 n=d6 v=64
79917 On ch=1 n=a#5 v=64
79917 On ch=1 n=a#6 v=64
80035 On ch=1 n=a#6 v=0
80035 On ch=1 n=a#5 v=0
80035 On ch=1 n=d6 v=0
80035 On ch=1 n=a#4 v=0
80035 On ch=1 n=f5 v=0
80035 On ch=1 n=g#5 v=0
80157 Par ch=1 c=64 v=0
80277 On ch=1 n=d#5 v=64
80277 On ch=1 n=d#6 v=64
80277 On ch=1 n=a4 v=64
80277 On ch=1 n=f#5 v=64
80277 On ch=1 n=b5 v=64
80277 On ch=1 n=b6 v=64
80277 Par ch=1 c=64 v=96
80395 On ch=1 n=b6 v=0
80395 On ch=1 n=b5 v=0
80395 On ch=1 n=f#5 v=0
80395 On ch=1 n=a4 v=0
80395 On ch=1 n=d#6 v=0
80395 On ch=1 n=d#5 v=0
80397 On ch=1 n=d#5 v=64
80397 On ch=1 n=d#6 v=64
80397 On ch=1 n=a4 v=64
80397 On ch=1 n=f#5 v=64
80397 On ch=1 n=b5 v=64
80397 On ch=1 n=b6 v=64
80635 On ch=1 n=b6 v=0
80635 On ch=1 n=b5 v=0
80635 On ch=1 n=f#5 v=0
80635 On ch=1 n=a4 v=0
80635 On ch=1 n=d#6 v=0
80635 On ch=1 n=d#5 v=0
80637 On ch=1 n=d#5 v=64
80637 On ch=1 n=d#6 v=64
80637 On ch=1 n=a4 v=64
80637 On ch=1 n=f#5 v=64
80637 On ch=1 n=b5 v=64
80637 On ch=1 n=b6 v=64
80755 On ch=1 n=b6 v=0
80755 On ch=1 n=b5 v=0
80755 On ch=1 n=f#5 v=0
80755 On ch=1 n=a4 v=0
80755 On ch=1 n=d#6 v=0
80755 On ch=1 n=d#5 v=0
80877 Par ch=1 c=64 v=0
80997 On ch=1 n=a#4 v=64
80997 On ch=1 n=g4 v=64
80997 On ch=1 n=c7 v=64
80997 On ch=1 n=c6 v=64
80997 On ch=1 n=e6 v=64
80997 On ch=1 n=e5 v=64
80997 Par ch=1 c=64 v=96
81115 On ch=1 n=e5 v=0
81115 On ch=1 n=e6 v=0
81115 On ch=1 n=c6 v=0
81115 On ch=1 n=c7 v=0
81115 On ch=1 n=g4 v=0
81115 On ch=1 n=a#4 v=0
81117 On ch=1 n=a#4 v=64
81117 On ch=1 n=g4 v=64
81117 On ch=1 n=c7 v=64
81117 On ch=1 n=c6 v=64
81117 On ch=1 n=e6 v=64
81117 On ch=1 n=e5 v=64
81355 On ch=1 n=e5 v=0
81355 On ch=1 n=e6 v=0
81355 On ch=1 n=c6 v=0
81355 On ch=1 n=c7 v=0
81355 On ch=1 n=g4 v=0
81355 On ch=1 n=a#4 v=0
81357 On ch=1 n=a#4 v=64
81357 On ch=1 n=g4 v=64
81357 On ch=1 n=c6 v=64
81357 On ch=1 n=c7 v=64
81357 On ch=1 n=e6 v=64
81357 On ch=1 n=e5 v=64
81475 On ch=1 n=e5 v=0
81475 On ch=1 n=e6 v=0
81475 On ch=1 n=c7 v=0
81475 On ch=1 n=c6 v=0
81475 On ch=1 n=g4 v=0
81475 On ch=1 n=a#4 v=0
81597 Par ch=1 c=64 v=0
81717 On ch=1 n=g#4 v=64
81717 On ch=1 n=f4 v=64
81717 On ch=1 n=f6 v=64
81717 On ch=1 n=c#5 v=64
81717 On ch=1 n=c#6 v=64
81717 On ch=1 n=c#7 v=64
81717 Par ch=1 c=64 v=96
81835 On ch=1 n=c#7 v=0
81835 On ch=1 n=c#6 v=0
81835 On ch=1 n=c#5 v=0
81835 On ch=1 n=f6 v=0
81835 On ch=1 n=f4 v=0
81835 On ch=1 n=g#4 v=0
81837 On ch=1 n=g#4 v=64
81837 On ch=1 n=f4 v=64
81837 On ch=1 n=f6 v=64
81837 On ch=1 n=c#5 v=64
81837 On ch=1 n=c#6 v=64
81837 On ch=1 n=c#7 v=64
82075 On ch=1 n=c#7 v=0
82075 On ch=1 n=c#6 v=0
82075 On ch=1 n=c#5 v=0
82075 On ch=1 n=f6 v=0
82075 On ch=1 n=f4 v=0
82075 On ch=1 n=g#4 v=0
82077 On ch=1 n=g#4 v=64
82077 On ch=1 n=f4 v=64
82077 On ch=1 n=f6 v=64
82077 On ch=1 n=c#5 v=64
82077 On ch=1 n=c#6 v=64
82077 On ch=1 n=c#7 v=64
82195 On ch=1 n=c#7 v=0
82195 On ch=1 n=c#6 v=0
82195 On ch=1 n=c#5 v=0
82195 On ch=1 n=f6 v=0
82195 On ch=1 n=f4 v=0
82195 On ch=1 n=g#4 v=0
82317 Par ch=1 c=64 v=0
82437 On ch=1 n=f4 v=64
82437 On ch=1 n=f7 v=64
82437 On ch=1 n=g#6 v=64
82437 On ch=1 n=f6 v=64
82437 On ch=1 n=b3 v=64
82437 On ch=1 n=b4 v=64
82437 On ch=1 n=c#7 v=64
82437 Par ch=1 c=64 v=96
82555 On ch=1 n=c#7 v=0
82555 On ch=1 n=b4 v=0
82555 On ch=1 n=b3 v=0
82555 On ch=1 n=f6 v=0
82555 On ch=1 n=g#6 v=0
82555 On ch=1 n=f7 v=0
82555 On ch=1 n=f4 v=0
82557 On ch=1 n=f4 v=64
82557 On ch=1 n=f7 v=64
82557 On ch=1 n=g#6 v=64
82557 On ch=1 n=f6 v=64
82557 On ch=1 n=b3 v=64
82557 On ch=1 n=b4 v=64
82557 On ch=1 n=c#7 v=64
82795 On ch=1 n=c#7 v=0
82795 On ch=1 n=b4 v=0
82795 On ch=1 n=b3 v=0
82795 On ch=1 n=f6 v=0
82795 On ch=1 n=g#6 v=0
82795 On ch=1 n=f7 v=0
82795 On ch=1 n=f4 v=0
82797 On ch=1 n=f4 v=64
82797 On ch=1 n=f7 v=64
82797 On ch=1 n=g#6 v=64
82797 On ch=1 n=f6 v=64
82797 On ch=1 n=b3 v=64
82797 On ch=1 n=b4 v=64
82797 On ch=1 n=c#7 v=64
82915 On ch=1 n=c#7 v=0
82915 On ch=1 n=b4 v=0
82915 On ch=1 n=b3 v=0
82915 On ch=1 n=f6 v=0
82915 On ch=1 n=g#6 v=0
82915 On ch=1 n=f7 v=0
82915 On ch=1 n=f4 v=0
83037 Par ch=1 c=64 v=0
83157 On ch=1 n=a#4 v=64
83157 On ch=1 n=f4 v=64
83157 On ch=1 n=a#3 v=64
83157 On ch=1 n=a#7 v=64
83157 On ch=1 n=d7 v=64
83157 On ch=1 n=g#6 v=64
83157 Par ch=1 c=64 v=96
83275 On ch=1 n=g#6 v=0
83275 On ch=1 n=d7 v=0
83275 On ch=1 n=a#7 v=0
83275 On ch=1 n=a#3 v=0
83275 On ch=1 n=f4 v=0
83275 On ch=1 n=a#4 v=0
83277 On ch=1 n=a#4 v=64
83277 On ch=1 n=f4 v=64
83277 On ch=1 n=a#3 v=64
83277 On ch=1 n=a#7 v=64
83277 On ch=1 n=d7 v=64
83277 On ch=1 n=g#6 v=64
83515 On ch=1 n=g#6 v=0
83515 On ch=1 n=d7 v=0
83515 On ch=1 n=a#7 v=0
83515 On ch=1 n=a#3 v=0
83515 On ch=1 n=f4 v=0
83515 On ch=1 n=a#4 v=0
83517 Tempo 394737
83517 Par ch=1 c=7 v=120
83517 On ch=1 n=a#4 v=64
83517 On ch=1 n=f4 v=64
83517 On ch=1 n=a#3 v=64
83517 On ch=1 n=g#6 v=64
83517 On ch=1 n=d7 v=64
83517 On ch=1 n=a#7 v=64
83561 Tempo 397351
83606 Tempo 400000
83635 On ch=1 n=a#7 v=0
83635 On ch=1 n=d7 v=0
83635 On ch=1 n=g#6 v=0
83635 On ch=1 n=a#3 v=0
83635 On ch=1 n=f4 v=0
83635 On ch=1 n=a#4 v=0
83651 Tempo 402685
83660 Par ch=1 c=7 v=119
83696 Tempo 405405
83741 Tempo 408163
83757 Par ch=1 c=64 v=0
83786 Tempo 410959
83804 Par ch=1 c=7 v=118
83831 Tempo 413793
83876 Tempo 416667
83877 On ch=1 n=a#4 v=64
83877 On ch=1 n=a#5 v=64
83877 Par ch=1 c=64 v=96
83921 Tempo 419580
83948 Par ch=1 c=7 v=117
83966 Tempo 422535
83995 On ch=1 n=a#5 v=0
83995 On ch=1 n=a#4 v=0
83997 On ch=1 n=a#4 v=64
83997 On ch=1 n=a#5 v=64
84011 Tempo 425532
84056 Tempo 428571
84092 Par ch=1 c=7 v=116
84101 Tempo 431655
84146 Tempo 434783
84191 Tempo 437956
84235 On ch=1 n=a#5 v=0
84235 On ch=1 n=a#4 v=0
84236 Tempo 441176
84236 Par ch=1 c=7 v=115
84237 On ch=1 n=a#4 v=64
84237 On ch=1 n=a#5 v=64
84281 Tempo 444444
84326 Tempo 447761
84371 Tempo 451128
84380 Par ch=1 c=7 v=114
84416 Tempo 454545
84461 Tempo 458015
84475 On ch=1 n=a#5 v=0
84475 On ch=1 n=a#4 v=0
84506 Tempo 461538
84524 Par ch=1 c=7 v=113
84551 Tempo 465116
84596 Tempo 468750
84597 On ch=1 n=a#4 v=64
84597 On ch=1 n=a#5 v=64
84641 Tempo 472441
84668 Par ch=1 c=7 v=112
84686 Tempo 476190
84715 On ch=1 n=a#5 v=0
84715 On ch=1 n=a#4 v=0
84717 On ch=1 n=a#4 v=64
84717 On ch=1 n=a#5 v=64
84731 Tempo 480000
84776 Tempo 483871
84812 Par ch=1 c=7 v=111
84821 Tempo 487805
84866 Tempo 491803
84911 Tempo 495868
84955 On ch=1 n=a#5 v=0
84955 On ch=1 n=a#4 v=0
84956 Tempo 500000
84956 Par ch=1 c=7 v=110
84957 Tempo 394737
84957 On ch=1 n=d#4 v=64
84957 On ch=1 n=a#4 v=64
84957 On ch=1 n=d#5 v=64
84957 On ch=1 n=g5 v=64
84957 On ch=1 n=a#5 v=64
84957 On ch=1 n=g6 v=64
85195 On ch=1 n=g6 v=0
85195 On ch=1 n=a#5 v=0
85195 On ch=1 n=g5 v=0
85195 On ch=1 n=d#5 v=0
85195 On ch=1 n=a#4 v=0
85195 On ch=1 n=d#4 v=0
85317 On ch=1 n=g5 v=64
85317 On ch=1 n=d#5 v=64
85317 On ch=1 n=a#5 v=64
85317 On ch=1 n=d#6 v=64
85435 On ch=1 n=d#6 v=0
85435 On ch=1 n=a#5 v=0
85435 On ch=1 n=d#5 v=0
85435 On ch=1 n=g5 v=0
85437 On ch=1 n=g5 v=64
85437 On ch=1 n=d#5 v=64
85437 On ch=1 n=d#6 v=64
85437 On ch=1 n=a#5 v=64
85675 On ch=1 n=a#5 v=0
85675 On ch=1 n=d#6 v=0
85675 On ch=1 n=d#5 v=0
85675 On ch=1 n=g5 v=0
85677 On ch=1 n=g5 v=64
85677 On ch=1 n=d#5 v=64
85677 On ch=1 n=d#6 v=64
85677 On ch=1 n=a#5 v=64
85915 On ch=1 n=a#5 v=0
85915 On ch=1 n=d#6 v=0
85915 On ch=1 n=d#5 v=0
85915 On ch=1 n=g5 v=0
86037 On ch=1 n=d#5 v=64
86037 On ch=1 n=a#4 v=64
86037 On ch=1 n=a#5 v=64
86037 On ch=1 n=g5 v=64
86155 On ch=1 n=g5 v=0
86155 On ch=1 n=a#5 v=0
86155 On ch=1 n=a#4 v=0
86155 On ch=1 n=d#5 v=0
86157 On ch=1 n=d#5 v=64
86157 On ch=1 n=a#4 v=64
86157 On ch=1 n=a#5 v=64
86157 On ch=1 n=g5 v=64
86357 Par ch=1 c=64 v=0
86395 On ch=1 n=g5 v=0
86395 On ch=1 n=a#5 v=0
86395 On ch=1 n=a#4 v=0
86395 On ch=1 n=d#5 v=0
86397 On ch=1 n=c5 v=64
86397 On ch=1 n=g5 v=64
86397 On ch=1 n=d#5 v=64
86397 Par ch=1 c=64 v=96
86635 On ch=1 n=d#5 v=0
86635 On ch=1 n=g5 v=0
86635 On ch=1 n=c5 v=0
86757 On ch=1 n=g4 v=64
86757 On ch=1 n=c4 v=64
86757 On ch=1 n=d#5 v=64
86757 On ch=1 n=c5 v=64
86875 On ch=1 n=c5 v=0
86875 On ch=1 n=d#5 v=0
86875 On ch=1 n=c4 v=0
86875 On ch=1 n=g4 v=0
86877 On ch=1 n=g4 v=64
86877 On ch=1 n=c4 v=64
86877 On ch=1 n=d#5 v=64
86877 On ch=1 n=c5 v=64
87115 On ch=1 n=c5 v=0
87115 On ch=1 n=d#5 v=0
87115 On ch=1 n=c4 v=0
87115 On ch=1 n=g4 v=0
87117 On ch=1 n=g4 v=64
87117 On ch=1 n=c4 v=64
87117 On ch=1 n=d#5 v=64
87117 On ch=1 n=c5 v=64
87797 Par ch=1 c=64 v=0
87835 On ch=1 n=c5 v=0
87835 On ch=1 n=d#5 v=0
87835 On ch=1 n=c4 v=0
87835 On ch=1 n=g4 v=0
87837 On ch=1 n=g#4 v=64
87837 On ch=1 n=f4 v=64
87837 On ch=1 n=a#3 v=64
87837 On ch=1 n=a#5 v=64
87837 On ch=1 n=d5 v=64
87837 On ch=1 n=a#4 v=64
87837 Par ch=1 c=64 v=96
88075 On ch=1 n=a#4 v=0
88075 On ch=1 n=d5 v=0
88075 On ch=1 n=a#5 v=0
88075 On ch=1 n=a#3 v=0
88075 On ch=1 n=f4 v=0
88075 On ch=1 n=g#4 v=0
88197 On ch=1 n=g#4 v=64
88197 On ch=1 n=d4 v=64
88197 On ch=1 n=a#3 v=64
88197 On ch=1 n=f5 v=64
88197 On ch=1 n=a#4 v=64
88315 On ch=1 n=a#4 v=0
88315 On ch=1 n=f5 v=0
88315 On ch=1 n=a#3 v=0
88315 On ch=1 n=d4 v=0
88315 On ch=1 n=g#4 v=0
88317 On ch=1 n=g#4 v=64
88317 On ch=1 n=d4 v=64
88317 On ch=1 n=a#3 v=64
88317 On ch=1 n=f5 v=64
88317 On ch=1 n=a#4 v=64
88555 On ch=1 n=a#4 v=0
88555 On ch=1 n=f5 v=0
88555 On ch=1 n=a#3 v=0
88555 On ch=1 n=d4 v=0
88555 On ch=1 n=g#4 v=0
88557 On ch=1 n=g#4 v=64
88557 On ch=1 n=a#3 v=64
88557 On ch=1 n=a#4 v=64
88557 On ch=1 n=c#4 v=64
88557 On ch=1 n=e5 v=64
88757 Par ch=1 c=64 v=0
88795 On ch=1 n=e5 v=0
88795 On ch=1 n=c#4 v=0
88795 On ch=1 n=a#4 v=0
88795 On ch=1 n=a#3 v=0
88795 On ch=1 n=g#4 v=0
88797 On ch=1 n=d4 v=64
88797 On ch=1 n=a#3 v=64
88797 On ch=1 n=g#4 v=64
88797 On ch=1 n=f5 v=64
88797 On ch=1 n=a#4 v=64
88797 Par ch=1 c=64 v=96
89035 On ch=1 n=a#4 v=0
89035 On ch=1 n=f5 v=0
89035 On ch=1 n=g#4 v=0
89035 On ch=1 n=a#3 v=0
89035 On ch=1 n=d4 v=0
89037 On ch=1 n=d4 v=64
89037 On ch=1 n=a#3 v=64
89037 On ch=1 n=g#4 v=64
89037 On ch=1 n=a#5 v=64
89037 On ch=1 n=a#4 v=64
89037 On ch=1 n=f#5 v=64
89237 Par ch=1 c=64 v=0
89275 On ch=1 n=f#5 v=0
89275 On ch=1 n=a#4 v=0
89275 On ch=1 n=a#5 v=0
89275 On ch=1 n=g#4 v=0
89275 On ch=1 n=a#3 v=0
89275 On ch=1 n=d4 v=0
89277 On ch=1 n=g4 v=64
89277 On ch=1 n=d#4 v=64
89277 On ch=1 n=a#5 v=64
89277 On ch=1 n=g5 v=64
89277 On ch=1 n=a#4 v=64
89277 Par ch=1 c=64 v=96
89995 On ch=1 n=a#4 v=0
89995 On ch=1 n=g5 v=0
89995 On ch=1 n=a#5 v=0
89995 On ch=1 n=d#4 v=0
89995 On ch=1 n=g4 v=0
89997 On ch=1 n=a#4 v=64
89997 On ch=1 n=d#4 v=64
89997 On ch=1 n=g5 v=64
89997 On ch=1 n=d#5 v=64
90235 On ch=1 n=d#5 v=0
90235 On ch=1 n=g5 v=0
90235 On ch=1 n=d#4 v=0
90235 On ch=1 n=a#4 v=0
90237 Par ch=1 c=64 v=0
90717 On ch=1 n=g5 v=64
90717 On ch=1 n=d#5 v=64
90717 On ch=1 n=g6 v=64
90717 On ch=1 n=d#6 v=64
90717 On ch=1 n=a#5 v=64
90717 Par ch=1 c=64 v=96
90955 On ch=1 n=a#5 v=0
90955 On ch=1 n=d#6 v=0
90955 On ch=1 n=g6 v=0
90955 On ch=1 n=d#5 v=0
90955 On ch=1 n=g5 v=0
91077 On ch=1 n=d#5 v=64
91077 On ch=1 n=a#4 v=64
91077 On ch=1 n=d#6 v=64
91077 On ch=1 n=a#5 v=64
91077 On ch=1 n=g5 v=64
91195 On ch=1 n=g5 v=0
91195 On ch=1 n=a#5 v=0
91195 On ch=1 n=d#6 v=0
91195 On ch=1 n=a#4 v=0
91195 On ch=1 n=d#5 v=0
91197 On ch=1 n=d#5 v=64
91197 On ch=1 n=a#4 v=64
91197 On ch=1 n=d#6 v=64
91197 On ch=1 n=a#5 v=64
91197 On ch=1 n=g5 v=64
91435 On ch=1 n=g5 v=0
91435 On ch=1 n=a#5 v=0
91435 On ch=1 n=d#6 v=0
91435 On ch=1 n=a#4 v=0
91435 On ch=1 n=d#5 v=0
91437 On ch=1 n=d#5 v=64
91437 On ch=1 n=a#4 v=64
91437 On ch=1 n=d#6 v=64
91437 On ch=1 n=a#5 v=64
91437 On ch=1 n=g5 v=64
91675 On ch=1 n=g5 v=0
91675 On ch=1 n=a#5 v=0
91675 On ch=1 n=d#6 v=0
91675 On ch=1 n=a#4 v=0
91675 On ch=1 n=d#5 v=0
91797 On ch=1 n=a#4 v=64
91797 On ch=1 n=g4 v=64
91797 On ch=1 n=a#5 v=64
91797 On ch=1 n=g5 v=64
91797 On ch=1 n=d#5 v=64
91915 On ch=1 n=d#5 v=0
91915 On ch=1 n=g5 v=0
91915 On ch=1 n=a#5 v=0
91915 On ch=1 n=g4 v=0
91915 On ch=1 n=a#4 v=0
91917 On ch=1 n=a#4 v=64
91917 On ch=1 n=g4 v=64
91917 On ch=1 n=a#5 v=64
91917 On ch=1 n=g5 v=64
91917 On ch=1 n=d#5 v=64
92117 Par ch=1 c=64 v=0
92155 On ch=1 n=d#5 v=0
92155 On ch=1 n=g5 v=0
92155 On ch=1 n=a#5 v=0
92155 On ch=1 n=g4 v=0
92155 On ch=1 n=a#4 v=0
92157 On ch=1 n=c5 v=64
92157 On ch=1 n=g4 v=64
92157 On ch=1 n=g5 v=64
92157 On ch=1 n=d#5 v=64
92157 Par ch=1 c=64 v=96
92395 On ch=1 n=d#5 v=0
92395 On ch=1 n=g5 v=0
92395 On ch=1 n=g4 v=0
92395 On ch=1 n=c5 v=0
92517 On ch=1 n=g4 v=64
92517 On ch=1 n=c4 v=64
92517 On ch=1 n=d#5 v=64
92517 On ch=1 n=c5 v=64
92635 On ch=1 n=c5 v=0
92635 On ch=1 n=d#5 v=0
92635 On ch=1 n=c4 v=0
92635 On ch=1 n=g4 v=0
92637 On ch=1 n=g4 v=64
92637 On ch=1 n=c4 v=64
92637 On ch=1 n=d#5 v=64
92637 On ch=1 n=c5 v=64
92875 On ch=1 n=c5 v=0
92875 On ch=1 n=d#5 v=0
92875 On ch=1 n=c4 v=0
92875 On ch=1 n=g4 v=0
92877 On ch=1 n=g4 v=64
92877 On ch=1 n=c4 v=64
92877 On ch=1 n=d#5 v=64
92877 On ch=1 n=c5 v=64
93557 Par ch=1 c=64 v=0
93595 On ch=1 n=c5 v=0
93595 On ch=1 n=d#5 v=0
93595 On ch=1 n=c4 v=0
93595 On ch=1 n=g4 v=0
93597 Par ch=1 c=7 v=120
93597 On ch=1 n=g3 v=64
93597 On ch=1 n=d4 v=64
93597 On ch=1 n=g4 v=64
93597 On ch=1 n=d5 v=64
93597 On ch=1 n=b4 v=64
93597 On ch=1 n=b5 v=64
93597 Par ch=1 c=64 v=96
93835 On ch=1 n=b5 v=0
93835 On ch=1 n=b4 v=0
93835 On ch=1 n=d5 v=0
93835 On ch=1 n=g4 v=0
93835 On ch=1 n=d4 v=0
93835 On ch=1 n=g3 v=0
93884 Par ch=1 c=7 v=121
93957 On ch=1 n=g3 v=64
93957 On ch=1 n=d4 v=64
93957 On ch=1 n=g4 v=64
93957 On ch=1 n=d5 v=64
93957 On ch=1 n=b4 v=64
94075 On ch=1 n=b4 v=0
94075 On ch=1 n=d5 v=0
94075 On ch=1 n=g4 v=0
94075 On ch=1 n=d4 v=0
94075 On ch=1 n=g3 v=0
94077 On ch=1 n=g3 v=64
94077 On ch=1 n=d4 v=64
94077 On ch=1 n=g4 v=64
94077 On ch=1 n=d5 v=64
94077 On ch=1 n=b4 v=64
94172 Par ch=1 c=7 v=122
94315 On ch=1 n=b4 v=0
94315 On ch=1 n=d5 v=0
94315 On ch=1 n=g4 v=0
94315 On ch=1 n=d4 v=0
94315 On ch=1 n=g3 v=0
94317 On ch=1 n=g3 v=64
94317 On ch=1 n=d4 v=64
94317 On ch=1 n=g4 v=64
94317 On ch=1 n=b4 v=64
94317 On ch=1 n=c#5 v=64
94460 Par ch=1 c=7 v=123
94555 On ch=1 n=c#5 v=0
94555 On ch=1 n=b4 v=0
94555 On ch=1 n=g4 v=0
94555 On ch=1 n=d4 v=0
94555 On ch=1 n=g3 v=0
94557 On ch=1 n=g3 v=64
94557 On ch=1 n=d4 v=64
94557 On ch=1 n=g4 v=64
94557 On ch=1 n=d5 v=64
94557 On ch=1 n=b4 v=64
94748 Par ch=1 c=7 v=124
94795 On ch=1 n=b4 v=0
94795 On ch=1 n=d5 v=0
94795 On ch=1 n=g4 v=0
94795 On ch=1 n=d4 v=0
94795 On ch=1 n=g3 v=0
94797 On ch=1 n=g3 v=64
94797 On ch=1 n=d4 v=64
94797 On ch=1 n=g4 v=64
94797 On ch=1 n=g5 v=64
94797 On ch=1 n=d5 v=64
94797 On ch=1 n=b4 v=64
94997 Par ch=1 c=64 v=0
95035 On ch=1 n=b4 v=0
95035 On ch=1 n=d5 v=0
95035 On ch=1 n=g5 v=0
95035 On ch=1 n=g4 v=0
95035 On ch=1 n=d4 v=0
95035 On ch=1 n=g3 v=0
95036 Par ch=1 c=7 v=125
95037 Tempo 434783
95037 Par ch=1 c=7 v=125
95037 On ch=1 n=g3 v=64
95037 On ch=1 n=d4 v=64
95037 On ch=1 n=g4 v=64
95037 On ch=1 n=d5 v=64
95037 On ch=1 n=b4 v=64
95037 On ch=1 n=b5 v=64
95037 Par ch=1 c=64 v=96
95078 Par ch=1 c=7 v=124
95119 Par ch=1 c=7 v=123
95160 Par ch=1 c=7 v=122
95201 Par ch=1 c=7 v=121
95242 Par ch=1 c=7 v=120
95283 Par ch=1 c=7 v=119
95324 Par ch=1 c=7 v=118
95365 Par ch=1 c=7 v=117
95407 Par ch=1 c=7 v=116
95448 Par ch=1 c=7 v=115
95489 Par ch=1 c=7 v=114
95530 Par ch=1 c=7 v=113
95571 Par ch=1 c=7 v=112
95612 Par ch=1 c=7 v=111
95653 Par ch=1 c=7 v=110
95694 Par ch=1 c=7 v=109
95717 Par ch=1 c=64 v=0
95735 Par ch=1 c=7 v=108
95755 On ch=1 n=b5 v=0
95755 On ch=1 n=b4 v=0
95755 On ch=1 n=d5 v=0
95755 On ch=1 n=g4 v=0
95755 On ch=1 n=d4 v=0
95755 On ch=1 n=g3 v=0
95757 On ch=1 n=g#4 v=64
95757 On ch=1 n=f4 v=64
95757 On ch=1 n=a#3 v=64
95757 On ch=1 n=a#5 v=64
95757 On ch=1 n=d5 v=64
95757 On ch=1 n=a#4 v=64
95757 Par ch=1 c=64 v=96
95777 Par ch=1 c=7 v=107
95818 Par ch=1 c=7 v=106
95859 Par ch=1 c=7 v=105
95900 Par ch=1 c=7 v=104
95941 Par ch=1 c=7 v=103
95982 Par ch=1 c=7 v=102
96023 Par ch=1 c=7 v=101
96064 Par ch=1 c=7 v=100
96105 Par ch=1 c=7 v=99
96147 Par ch=1 c=7 v=98
96188 Par ch=1 c=7 v=97
96229 Par ch=1 c=7 v=96
96270 Par ch=1 c=7 v=95
96311 Par ch=1 c=7 v=94
96352 Par ch=1 c=7 v=93
96393 Par ch=1 c=7 v=92
96434 Par ch=1 c=7 v=91
96437 Par ch=1 c=64 v=0
96475 On ch=1 n=a#4 v=0
96475 On ch=1 n=d5 v=0
96475 On ch=1 n=a#5 v=0
96475 On ch=1 n=a#3 v=0
96475 On ch=1 n=f4 v=0
96475 On ch=1 n=g#4 v=0
96476 Par ch=1 c=7 v=90
96477 Tempo 394737
96477 On ch=1 n=d#4 v=64
96477 On ch=1 n=a#3 v=64
96477 On ch=1 n=d#3 v=64
96477 On ch=1 n=g7 v=64
96477 On ch=1 n=a#6 v=64
96477 On ch=1 n=g6 v=64
96477 Par ch=1 c=64 v=96
96715 On ch=1 n=g6 v=0
96715 On ch=1 n=a#6 v=0
96715 On ch=1 n=g7 v=0
96715 On ch=1 n=d#3 v=0
96715 On ch=1 n=a#3 v=0
96715 On ch=1 n=d#4 v=0
96837 On ch=1 n=g4 v=64
96837 On ch=1 n=d#4 v=64
96837 On ch=1 n=g3 v=64
96837 On ch=1 n=d#7 v=64
96837 On ch=1 n=g6 v=64
96837 On ch=1 n=d#6 v=64
96955 On ch=1 n=d#6 v=0
96955 On ch=1 n=g6 v=0
96955 On ch=1 n=d#7 v=0
96955 On ch=1 n=g3 v=0
96955 On ch=1 n=d#4 v=0
96955 On ch=1 n=g4 v=0
96957 On ch=1 n=g4 v=64
96957 On ch=1 n=d#4 v=64
96957 On ch=1 n=g3 v=64
96957 On ch=1 n=d#7 v=64
96957 On ch=1 n=g6 v=64
96957 On ch=1 n=d#6 v=64
97195 On ch=1 n=d#6 v=0
97195 On ch=1 n=g6 v=0
97195 On ch=1 n=d#7 v=0
97195 On ch=1 n=g3 v=0
97195 On ch=1 n=d#4 v=0
97195 On ch=1 n=g4 v=0
97197 On ch=1 n=g4 v=64
97197 On ch=1 n=d#4 v=64
97197 On ch=1 n=g3 v=64
97197 On ch=1 n=d#7 v=64
97197 On ch=1 n=g6 v=64
97197 On ch=1 n=d#6 v=64
97435 On ch=1 n=d#6 v=0
97435 On ch=1 n=g6 v=0
97435 On ch=1 n=d#7 v=0
97435 On ch=1 n=g3 v=0
97435 On ch=1 n=d#4 v=0
97435 On ch=1 n=g4 v=0
97557 On ch=1 n=a#4 v=64
97557 On ch=1 n=g4 v=64
97557 On ch=1 n=a#3 v=64
97557 On ch=1 n=a#6 v=64
97557 On ch=1 n=d#6 v=64
97557 On ch=1 n=a#5 v=64
97675 On ch=1 n=a#5 v=0
97675 On ch=1 n=d#6 v=0
97675 On ch=1 n=a#6 v=0
97675 On ch=1 n=a#3 v=0
97675 On ch=1 n=g4 v=0
97675 On ch=1 n=a#4 v=0
97677 On ch=1 n=a#4 v=64
97677 On ch=1 n=g4 v=64
97677 On ch=1 n=a#3 v=64
97677 On ch=1 n=a#6 v=64
97677 On ch=1 n=d#6 v=64
97677 On ch=1 n=a#5 v=64
97877 Par ch=1 c=64 v=0
97915 On ch=1 n=a#5 v=0
97915 On ch=1 n=d#6 v=0
97915 On ch=1 n=a#6 v=0
97915 On ch=1 n=a#3 v=0
97915 On ch=1 n=g4 v=0
97915 On ch=1 n=a#4 v=0
97917 On ch=1 n=c5 v=64
97917 On ch=1 n=g4 v=64
97917 On ch=1 n=c4 v=64
97917 On ch=1 n=g6 v=64
97917 On ch=1 n=d#6 v=64
97917 On ch=1 n=a#5 v=64
97917 Par ch=1 c=64 v=96
98155 On ch=1 n=a#5 v=0
98155 On ch=1 n=d#6 v=0
98155 On ch=1 n=g6 v=0
98155 On ch=1 n=c4 v=0
98155 On ch=1 n=g4 v=0
98155 On ch=1 n=c5 v=0
98277 On ch=1 n=d#5 v=64
98277 On ch=1 n=c5 v=64
98277 On ch=1 n=g4 v=64
98277 On ch=1 n=d#6 v=64
98277 On ch=1 n=c6 v=64
98277 On ch=1 n=g5 v=64
98395 On ch=1 n=g5 v=0
98395 On ch=1 n=c6 v=0
98395 On ch=1 n=d#6 v=0
98395 On ch=1 n=g4 v=0
98395 On ch=1 n=c5 v=0
98395 On ch=1 n=d#5 v=0
98397 On ch=1 n=d#5 v=64
98397 On ch=1 n=c5 v=64
98397 On ch=1 n=g4 v=64
98397 On ch=1 n=d#6 v=64
98397 On ch=1 n=c6 v=64
98397 On ch=1 n=g5 v=64
98635 On ch=1 n=g5 v=0
98635 On ch=1 n=c6 v=0
98635 On ch=1 n=d#6 v=0
98635 On ch=1 n=g4 v=0
98635 On ch=1 n=c5 v=0
98635 On ch=1 n=d#5 v=0
98637 On ch=1 n=d#5 v=64
98637 On ch=1 n=c5 v=64
98637 On ch=1 n=g4 v=64
98637 On ch=1 n=d#6 v=64
98637 On ch=1 n=c6 v=64
98637 On ch=1 n=g5 v=64
99317 Par ch=1 c=64 v=0
99355 On ch=1 n=g5 v=0
99355 On ch=1 n=c6 v=0
99355 On ch=1 n=d#6 v=0
99355 On ch=1 n=g4 v=0
99355 On ch=1 n=c5 v=0
99355 On ch=1 n=d#5 v=0
99357 On ch=1 n=a#3 v=64
99357 On ch=1 n=f4 v=64
99357 On ch=1 n=a#4 v=64
99357 On ch=1 n=a#6 v=64
99357 On ch=1 n=d6 v=64
99357 On ch=1 n=a#5 v=64
99357 On ch=1 n=g#5 v=64
99357 Par ch=1 c=64 v=96
99595 On ch=1 n=g#5 v=0
99595 On ch=1 n=a#5 v=0
99595 On ch=1 n=d6 v=0
99595 On ch=1 n=a#6 v=0
99595 On ch=1 n=a#4 v=0
99595 On ch=1 n=f4 v=0
99595 On ch=1 n=a#3 v=0
99717 On ch=1 n=f5 v=64
99717 On ch=1 n=d5 v=64
99717 On ch=1 n=a#4 v=64
99717 On ch=1 n=f6 v=64
99717 On ch=1 n=a#5 v=64
99717 On ch=1 n=g#5 v=64
99835 On ch=1 n=g#5 v=0
99835 On ch=1 n=a#5 v=0
99835 On ch=1 n=f6 v=0
99835 On ch=1 n=a#4 v=0
99835 On ch=1 n=d5 v=0
99835 On ch=1 n=f5 v=0
99837 On ch=1 n=f5 v=64
99837 On ch=1 n=d5 v=64
99837 On ch=1 n=a#4 v=64
99837 On ch=1 n=f6 v=64
99837 On ch=1 n=a#5 v=64
99837 On ch=1 n=g#5 v=64
100075 On ch=1 n=g#5 v=0
100075 On ch=1 n=a#5 v=0
100075 On ch=1 n=f6 v=0
100075 On ch=1 n=a#4 v=0
100075 On ch=1 n=d5 v=0
100075 On ch=1 n=f5 v=0
100077 On ch=1 n=a#4 v=64
100077 On ch=1 n=a#5 v=64
100077 On ch=1 n=g#5 v=64
100077 On ch=1 n=e5 v=64
100077 On ch=1 n=c#5 v=64
100077 On ch=1 n=e6 v=64
100277 Par ch=1 c=64 v=0
100315 On ch=1 n=e6 v=0
100315 On ch=1 n=c#5 v=0
100315 On ch=1 n=e5 v=0
100315 On ch=1 n=g#5 v=0
100315 On ch=1 n=a#5 v=0
100315 On ch=1 n=a#4 v=0
100317 On ch=1 n=f5 v=64
100317 On ch=1 n=d5 v=64
100317 On ch=1 n=a#4 v=64
100317 On ch=1 n=f6 v=64
100317 On ch=1 n=a#5 v=64
100317 On ch=1 n=g#5 v=64
100317 Par ch=1 c=64 v=96
100555 On ch=1 n=g#5 v=0
100555 On ch=1 n=a#5 v=0
100555 On ch=1 n=f6 v=0
100555 On ch=1 n=a#4 v=0
100555 On ch=1 n=d5 v=0
100555 On ch=1 n=f5 v=0
100557 On ch=1 n=d5 v=64
100557 On ch=1 n=a#4 v=64
100557 On ch=1 n=a#6 v=64
100557 On ch=1 n=a#5 v=64
100557 On ch=1 n=g#5 v=64
100557 On ch=1 n=f#5 v=64
100557 On ch=1 n=f#6 v=64
100757 Par ch=1 c=64 v=0
100795 On ch=1 n=f#6 v=0
100795 On ch=1 n=f#5 v=0
100795 On ch=1 n=g#5 v=0
100795 On ch=1 n=a#5 v=0
100795 On ch=1 n=a#6 v=0
100795 On ch=1 n=a#4 v=0
100795 On ch=1 n=d5 v=0
100797 On ch=1 n=a#5 v=64
100797 On ch=1 n=g6 v=64
100797 On ch=1 n=a#6 v=64
100797 On ch=1 n=d#4 v=64
100797 On ch=1 n=a#4 v=64
100797 On ch=1 n=g5 v=64
100797 Par ch=1 c=64 v=96
101515 On ch=1 n=g5 v=0
101515 On ch=1 n=a#4 v=0
101515 On ch=1 n=d#4 v=0
101515 On ch=1 n=a#6 v=0
101515 On ch=1 n=g6 v=0
101515 On ch=1 n=a#5 v=0
101517 On ch=1 n=d#5 v=64
101517 On ch=1 n=a#4 v=64
101517 On ch=1 n=d#4 v=64
101517 On ch=1 n=g6 v=64
101517 On ch=1 n=a#5 v=64
101517 On ch=1 n=g5 v=64
101695 On ch=1 n=g5 v=0
101695 On ch=1 n=a#5 v=0
101695 On ch=1 n=g6 v=0
101695 On ch=1 n=d#4 v=0
101695 On ch=1 n=a#4 v=0
101695 On ch=1 n=d#5 v=0
101757 Par ch=1 c=64 v=0
102237 Par ch=1 c=7 v=90
102237 On ch=1 n=d#4 v=64
102237 On ch=1 n=a#3 v=64
102237 On ch=1 n=d#3 v=64
102237 On ch=1 n=g8 v=64
102237 On ch=1 n=a#7 v=64
102237 On ch=1 n=g7 v=64
102237 Par ch=1 c=64 v=96
102380 Par ch=1 c=7 v=91
102475 On ch=1 n=g7 v=0
102475 On ch=1 n=a#7 v=0
102475 On ch=1 n=g8 v=0
102475 On ch=1 n=d#3 v=0
102475 On ch=1 n=a#3 v=0
102475 On ch=1 n=d#4 v=0
102524 Par ch=1 c=7 v=92
102597 On ch=1 n=a#6 v=64
102597 On ch=1 n=d#7 v=64
102597 On ch=1 n=a#7 v=64
102597 On ch=1 n=g4 v=64
102597 On ch=1 n=d#4 v=64
102597 On ch=1 n=g3 v=64
102668 Par ch=1 c=7 v=93
102715 On ch=1 n=g3 v=0
102715 On ch=1 n=d#4 v=0
102715 On ch=1 n=g4 v=0
102715 On ch=1 n=a#7 v=0
102715 On ch=1 n=d#7 v=0
102715 On ch=1 n=a#6 v=0
102717 On ch=1 n=a#6 v=64
102717 On ch=1 n=d#7 v=64
102717 On ch=1 n=a#7 v=64
102717 On ch=1 n=g4 v=64
102717 On ch=1 n=d#4 v=64
102717 On ch=1 n=g3 v=64
102812 Par ch=1 c=7 v=94
102955 On ch=1 n=g3 v=0
102955 On ch=1 n=d#4 v=0
102955 On ch=1 n=g4 v=0
102955 On ch=1 n=a#7 v=0
102955 On ch=1 n=d#7 v=0
102955 On ch=1 n=a#6 v=0
102956 Par ch=1 c=7 v=95
102957 On ch=1 n=a#6 v=64
102957 On ch=1 n=d#7 v=64
102957 On ch=1 n=a#7 v=64
102957 On ch=1 n=g4 v=64
102957 On ch=1 n=d#4 v=64
102957 On ch=1 n=g3 v=64
103100 Par ch=1 c=7 v=96
103195 On ch=1 n=g3 v=0
103195 On ch=1 n=d#4 v=0
103195 On ch=1 n=g4 v=0
103195 On ch=1 n=a#7 v=0
103195 On ch=1 n=d#7 v=0
103195 On ch=1 n=a#6 v=0
103244 Par ch=1 c=7 v=97
103317 On ch=1 n=g7 v=64
103317 On ch=1 n=d#7 v=64
103317 On ch=1 n=g6 v=64
103317 On ch=1 n=a#4 v=64
103317 On ch=1 n=g4 v=64
103317 On ch=1 n=a#3 v=64
103388 Par ch=1 c=7 v=98
103435 On ch=1 n=a#3 v=0
103435 On ch=1 n=g4 v=0
103435 On ch=1 n=a#4 v=0
103435 On ch=1 n=g6 v=0
103435 On ch=1 n=d#7 v=0
103435 On ch=1 n=g7 v=0
103437 On ch=1 n=g6 v=64
103437 On ch=1 n=d#7 v=64
103437 On ch=1 n=g7 v=64
103437 On ch=1 n=a#4 v=64
103437 On ch=1 n=g4 v=64
103437 On ch=1 n=a#3 v=64
103532 Par ch=1 c=7 v=99
103637 Par ch=1 c=64 v=0
103675 On ch=1 n=a#3 v=0
103675 On ch=1 n=g4 v=0
103675 On ch=1 n=a#4 v=0
103675 On ch=1 n=g7 v=0
103675 On ch=1 n=d#7 v=0
103675 On ch=1 n=g6 v=0
103676 Par ch=1 c=7 v=100
103677 On ch=1 n=g6 v=64
103677 On ch=1 n=d#7 v=64
103677 On ch=1 n=g7 v=64
103677 On ch=1 n=c5 v=64
103677 On ch=1 n=g4 v=64
103677 On ch=1 n=c4 v=64
103677 Par ch=1 c=64 v=96
103820 Par ch=1 c=7 v=101
103915 On ch=1 n=c4 v=0
103915 On ch=1 n=g4 v=0
103915 On ch=1 n=c5 v=0
103915 On ch=1 n=g7 v=0
103915 On ch=1 n=d#7 v=0
103915 On ch=1 n=g6 v=0
103964 Par ch=1 c=7 v=102
104037 On ch=1 n=d#7 v=64
104037 On ch=1 n=c7 v=64
104037 On ch=1 n=d#6 v=64
104037 On ch=1 n=d#5 v=64
104037 On ch=1 n=c5 v=64
104037 On ch=1 n=g4 v=64
104108 Par ch=1 c=7 v=103
104155 On ch=1 n=g4 v=0
104155 On ch=1 n=c5 v=0
104155 On ch=1 n=d#5 v=0
104155 On ch=1 n=d#6 v=0
104155 On ch=1 n=c7 v=0
104155 On ch=1 n=d#7 v=0
104157 On ch=1 n=d#6 v=64
104157 On ch=1 n=c7 v=64
104157 On ch=1 n=d#7 v=64
104157 On ch=1 n=d#5 v=64
104157 On ch=1 n=c5 v=64
104157 On ch=1 n=g4 v=64
104252 Par ch=1 c=7 v=104
104395 On ch=1 n=g4 v=0
104395 On ch=1 n=c5 v=0
104395 On ch=1 n=d#5 v=0
104395 On ch=1 n=d#7 v=0
104395 On ch=1 n=c7 v=0
104395 On ch=1 n=d#6 v=0
104396 Par ch=1 c=7 v=105
104397 On ch=1 n=d#6 v=64
104397 On ch=1 n=c7 v=64
104397 On ch=1 n=d#7 v=64
104397 On ch=1 n=d#5 v=64
104397 On ch=1 n=c5 v=64
104397 On ch=1 n=g4 v=64
104540 Par ch=1 c=7 v=106
104684 Par ch=1 c=7 v=107
104828 Par ch=1 c=7 v=108
104972 Par ch=1 c=7 v=109
105077 Par ch=1 c=64 v=0
105115 On ch=1 n=g4 v=0
105115 On ch=1 n=c5 v=0
105115 On ch=1 n=d#5 v=0
105115 On ch=1 n=d#7 v=0
105115 On ch=1 n=c7 v=0
105115 On ch=1 n=d#6 v=0
105116 Par ch=1 c=7 v=110
105117 On ch=1 n=g4 v=64
105117 On ch=1 n=d4 v=64
105117 On ch=1 n=g3 v=64
105117 On ch=1 n=d7 v=64
105117 On ch=1 n=b6 v=64
105117 On ch=1 n=b7 v=64
105117 Par ch=1 c=64 v=96
105355 On ch=1 n=b7 v=0
105355 On ch=1 n=b6 v=0
105355 On ch=1 n=d7 v=0
105355 On ch=1 n=g3 v=0
105355 On ch=1 n=d4 v=0
105355 On ch=1 n=g4 v=0
105477 On ch=1 n=d5 v=64
105477 On ch=1 n=g4 v=64
105477 On ch=1 n=d6 v=64
105477 On ch=1 n=b6 v=64
105477 On ch=1 n=d7 v=64
105477 On ch=1 n=b4 v=64
105595 On ch=1 n=b4 v=0
105595 On ch=1 n=d7 v=0
105595 On ch=1 n=b6 v=0
105595 On ch=1 n=d6 v=0
105595 On ch=1 n=g4 v=0
105595 On ch=1 n=d5 v=0
105597 On ch=1 n=d5 v=64
105597 On ch=1 n=g4 v=64
105597 On ch=1 n=d6 v=64
105597 On ch=1 n=b6 v=64
105597 On ch=1 n=d7 v=64
105597 On ch=1 n=b4 v=64
105835 On ch=1 n=b4 v=0
105835 On ch=1 n=d7 v=0
105835 On ch=1 n=b6 v=0
105835 On ch=1 n=d6 v=0
105835 On ch=1 n=g4 v=0
105835 On ch=1 n=d5 v=0
105837 On ch=1 n=g4 v=64
105837 On ch=1 n=c#5 v=64
105837 On ch=1 n=a4 v=64
105837 On ch=1 n=c#6 v=64
105837 On ch=1 n=a#6 v=64
105837 On ch=1 n=c#7 v=64
106037 Par ch=1 c=64 v=0
106075 On ch=1 n=c#7 v=0
106075 On ch=1 n=a#6 v=0
106075 On ch=1 n=c#6 v=0
106075 On ch=1 n=a4 v=0
106075 On ch=1 n=c#5 v=0
106075 On ch=1 n=g4 v=0
106077 On ch=1 n=d5 v=64
106077 On ch=1 n=g4 v=64
106077 On ch=1 n=d7 v=64
106077 On ch=1 n=d6 v=64
106077 On ch=1 n=b6 v=64
106077 On ch=1 n=b4 v=64
106077 Par ch=1 c=64 v=96
106315 On ch=1 n=b4 v=0
106315 On ch=1 n=b6 v=0
106315 On ch=1 n=d6 v=0
106315 On ch=1 n=d7 v=0
106315 On ch=1 n=g4 v=0
106315 On ch=1 n=d5 v=0
106317 On ch=1 n=g5 v=64
106317 On ch=1 n=d5 v=64
106317 On ch=1 n=g4 v=64
106317 On ch=1 n=g7 v=64
106317 On ch=1 n=g6 v=64
106317 On ch=1 n=b6 v=64
106517 Par ch=1 c=64 v=0
106555 On ch=1 n=b6 v=0
106555 On ch=1 n=g6 v=0
106555 On ch=1 n=g7 v=0
106555 On ch=1 n=g4 v=0
106555 On ch=1 n=d5 v=0
106555 On ch=1 n=g5 v=0
106557 On ch=1 n=d7 v=64
106557 On ch=1 n=b4 v=64
106557 On ch=1 n=f#4 v=64
106557 On ch=1 n=b3 v=64
106557 On ch=1 n=b6 v=64
106557 On ch=1 n=b7 v=64
106557 Par ch=1 c=64 v=96
106795 On ch=1 n=b7 v=0
106795 On ch=1 n=b6 v=0
106795 On ch=1 n=b3 v=0
106795 On ch=1 n=f#4 v=0
106795 On ch=1 n=b4 v=0
106795 On ch=1 n=d7 v=0
106917 On ch=1 n=d5 v=64
106917 On ch=1 n=d7 v=64
106917 On ch=1 n=b4 v=64
106917 On ch=1 n=f#5 v=64
106917 On ch=1 n=f#6 v=64
106917 On ch=1 n=f#7 v=64
107035 On ch=1 n=f#7 v=0
107035 On ch=1 n=f#6 v=0
107035 On ch=1 n=f#5 v=0
107035 On ch=1 n=b4 v=0
107035 On ch=1 n=d7 v=0
107035 On ch=1 n=d5 v=0
107037 On ch=1 n=d5 v=64
107037 On ch=1 n=d7 v=64
107037 On ch=1 n=b4 v=64
107037 On ch=1 n=f#5 v=64
107037 On ch=1 n=f#6 v=64
107037 On ch=1 n=f#7 v=64
107275 On ch=1 n=f#7 v=0
107275 On ch=1 n=f#6 v=0
107275 On ch=1 n=f#5 v=0
107275 On ch=1 n=b4 v=0
107275 On ch=1 n=d7 v=0
107275 On ch=1 n=d5 v=0
107277 On ch=1 n=d5 v=64
107277 On ch=1 n=d7 v=64
107277 On ch=1 n=b4 v=64
107277 On ch=1 n=f#5 v=64
107277 On ch=1 n=f#6 v=64
107277 On ch=1 n=f#7 v=64
107957 Par ch=1 c=64 v=0
107995 On ch=1 n=f#7 v=0
107995 On ch=1 n=f#6 v=0
107995 On ch=1 n=f#5 v=0
107995 On ch=1 n=b4 v=0
107995 On ch=1 n=d7 v=0
107995 On ch=1 n=d5 v=0
107997 On ch=1 n=a#6 v=64
107997 On ch=1 n=a#7 v=64
107997 On ch=1 n=f#3 v=64
107997 On ch=1 n=c#4 v=64
107997 On ch=1 n=f#4 v=64
107997 On ch=1 n=c#7 v=64
107997 Par ch=1 c=64 v=96
108235 On ch=1 n=c#7 v=0
108235 On ch=1 n=f#4 v=0
108235 On ch=1 n=c#4 v=0
108235 On ch=1 n=f#3 v=0
108235 On ch=1 n=a#7 v=0
108235 On ch=1 n=a#6 v=0
108357 On ch=1 n=a#4 v=64
108357 On ch=1 n=a#6 v=64
108357 On ch=1 n=c#5 v=64
108357 On ch=1 n=f#4 v=64
108357 On ch=1 n=c#6 v=64
108357 On ch=1 n=c#7 v=64
108475 On ch=1 n=c#7 v=0
108475 On ch=1 n=c#6 v=0
108475 On ch=1 n=f#4 v=0
108475 On ch=1 n=c#5 v=0
108475 On ch=1 n=a#6 v=0
108475 On ch=1 n=a#4 v=0
108477 On ch=1 n=a#4 v=64
108477 On ch=1 n=a#6 v=64
108477 On ch=1 n=c#5 v=64
108477 On ch=1 n=f#4 v=64
108477 On ch=1 n=c#6 v=64
108477 On ch=1 n=c#7 v=64
108715 On ch=1 n=c#7 v=0
108715 On ch=1 n=c#6 v=0
108715 On ch=1 n=f#4 v=0
108715 On ch=1 n=c#5 v=0
108715 On ch=1 n=a#6 v=0
108715 On ch=1 n=a#4 v=0
108717 On ch=1 n=c5 v=64
108717 On ch=1 n=c6 v=64
108717 On ch=1 n=c7 v=64
108717 On ch=1 n=a4 v=64
108717 On ch=1 n=f#4 v=64
108717 On ch=1 n=a6 v=64
108917 Par ch=1 c=64 v=0
108955 On ch=1 n=a6 v=0
108955 On ch=1 n=f#4 v=0
108955 On ch=1 n=a4 v=0
108955 On ch=1 n=c7 v=0
108955 On ch=1 n=c6 v=0
108955 On ch=1 n=c5 v=0
108957 On ch=1 n=c#5 v=64
108957 On ch=1 n=a#4 v=64
108957 On ch=1 n=a#6 v=64
108957 On ch=1 n=f#4 v=64
108957 On ch=1 n=c#6 v=64
108957 On ch=1 n=c#7 v=64
108957 Par ch=1 c=64 v=96
109195 On ch=1 n=c#7 v=0
109195 On ch=1 n=c#6 v=0
109195 On ch=1 n=f#4 v=0
109195 On ch=1 n=a#6 v=0
109195 On ch=1 n=a#4 v=0
109195 On ch=1 n=c#5 v=0
109197 On ch=1 n=f#5 v=64
109197 On ch=1 n=c#5 v=64
109197 On ch=1 n=a#6 v=64
109197 On ch=1 n=f#4 v=64
109197 On ch=1 n=f#7 v=64
109197 On ch=1 n=f#6 v=64
109397 Par ch=1 c=64 v=0
109435 On ch=1 n=f#6 v=0
109435 On ch=1 n=f#7 v=0
109435 On ch=1 n=f#4 v=0
109435 On ch=1 n=a#6 v=0
109435 On ch=1 n=c#5 v=0
109435 On ch=1 n=f#5 v=0
109437 On ch=1 n=a#4 v=64
109437 On ch=1 n=f4 v=64
109437 On ch=1 n=a#3 v=64
109437 On ch=1 n=a#7 v=64
109437 On ch=1 n=a#6 v=64
109437 On ch=1 n=c#7 v=64
109437 Par ch=1 c=64 v=96
109675 On ch=1 n=c#7 v=0
109675 On ch=1 n=a#6 v=0
109675 On ch=1 n=a#7 v=0
109675 On ch=1 n=a#3 v=0
109675 On ch=1 n=f4 v=0
109675 On ch=1 n=a#4 v=0
109797 On ch=1 n=f5 v=64
109797 On ch=1 n=a#4 v=64
109797 On ch=1 n=f6 v=64
109797 On ch=1 n=f7 v=64
109797 On ch=1 n=c#5 v=64
109797 On ch=1 n=c#7 v=64
109915 On ch=1 n=c#7 v=0
109915 On ch=1 n=c#5 v=0
109915 On ch=1 n=f7 v=0
109915 On ch=1 n=f6 v=0
109915 On ch=1 n=a#4 v=0
109915 On ch=1 n=f5 v=0
109917 On ch=1 n=f5 v=64
109917 On ch=1 n=a#4 v=64
109917 On ch=1 n=f6 v=64
109917 On ch=1 n=f7 v=64
109917 On ch=1 n=c#5 v=64
109917 On ch=1 n=c#7 v=64
110155 On ch=1 n=c#7 v=0
110155 On ch=1 n=c#5 v=0
110155 On ch=1 n=f7 v=0
110155 On ch=1 n=f6 v=0
110155 On ch=1 n=a#4 v=0
110155 On ch=1 n=f5 v=0
110157 On ch=1 n=f5 v=64
110157 On ch=1 n=a#4 v=64
110157 On ch=1 n=f6 v=64
110157 On ch=1 n=f7 v=64
110157 On ch=1 n=c#5 v=64
110157 On ch=1 n=c#7 v=64
110837 Par ch=1 c=64 v=0
110875 On ch=1 n=c#7 v=0
110875 On ch=1 n=c#5 v=0
110875 On ch=1 n=f7 v=0
110875 On ch=1 n=f6 v=0
110875 On ch=1 n=a#4 v=0
110875 On ch=1 n=f5 v=0
110877 On ch=1 n=f4 v=64
110877 On ch=1 n=c4 v=64
110877 On ch=1 n=f3 v=64
110877 On ch=1 n=c7 v=64
110877 On ch=1 n=a6 v=64
110877 On ch=1 n=a7 v=64
110877 Par ch=1 c=64 v=96
111115 On ch=1 n=a7 v=0
111115 On ch=1 n=a6 v=0
111115 On ch=1 n=c7 v=0
111115 On ch=1 n=f3 v=0
111115 On ch=1 n=c4 v=0
111115 On ch=1 n=f4 v=0
111237 On ch=1 n=c5 v=64
111237 On ch=1 n=c6 v=64
111237 On ch=1 n=c7 v=64
111237 On ch=1 n=a4 v=64
111237 On ch=1 n=a6 v=64
111355 On ch=1 n=a6 v=0
111355 On ch=1 n=a4 v=0
111355 On ch=1 n=c7 v=0
111355 On ch=1 n=c6 v=0
111355 On ch=1 n=c5 v=0
111357 On ch=1 n=c5 v=64
111357 On ch=1 n=c6 v=64
111357 On ch=1 n=c7 v=64
111357 On ch=1 n=a4 v=64
111357 On ch=1 n=a6 v=64
111595 On ch=1 n=a6 v=0
111595 On ch=1 n=a4 v=0
111595 On ch=1 n=c7 v=0
111595 On ch=1 n=c6 v=0
111595 On ch=1 n=c5 v=0
111597 On ch=1 n=c7 v=64
111597 On ch=1 n=a3 v=64
111597 On ch=1 n=e4 v=64
111597 On ch=1 n=a4 v=64
111597 On ch=1 n=e6 v=64
111597 On ch=1 n=e7 v=64
111835 On ch=1 n=e7 v=0
111835 On ch=1 n=e6 v=0
111835 On ch=1 n=a4 v=0
111835 On ch=1 n=e4 v=0
111835 On ch=1 n=a3 v=0
111835 On ch=1 n=c7 v=0
111957 On ch=1 n=d#5 v=64
111957 On ch=1 n=b4 v=64
111957 On ch=1 n=a4 v=64
111957 On ch=1 n=d#6 v=64
111957 On ch=1 n=b6 v=64
111957 On ch=1 n=d#7 v=64
112075 On ch=1 n=d#7 v=0
112075 On ch=1 n=b6 v=0
112075 On ch=1 n=d#6 v=0
112075 On ch=1 n=a4 v=0
112075 On ch=1 n=b4 v=0
112075 On ch=1 n=d#5 v=0
112077 On ch=1 n=c5 v=64
112077 On ch=1 n=c7 v=64
112077 On ch=1 n=e5 v=64
112077 On ch=1 n=a4 v=64
112077 On ch=1 n=e6 v=64
112077 On ch=1 n=e7 v=64
112277 Par ch=1 c=64 v=0
112315 On ch=1 n=e7 v=0
112315 On ch=1 n=e6 v=0
112315 On ch=1 n=a4 v=0
112315 On ch=1 n=e5 v=0
112315 On ch=1 n=c7 v=0
112315 On ch=1 n=c5 v=0
112317 On ch=1 n=e4 v=64
112317 On ch=1 n=b3 v=64
112317 On ch=1 n=e3 v=64
112317 On ch=1 n=g#7 v=64
112317 On ch=1 n=b6 v=64
112317 On ch=1 n=g#6 v=64
112317 Par ch=1 c=64 v=96
112555 On ch=1 n=g#6 v=0
112555 On ch=1 n=b6 v=0
112555 On ch=1 n=g#7 v=0
112555 On ch=1 n=e3 v=0
112555 On ch=1 n=b3 v=0
112555 On ch=1 n=e4 v=0
112677 On ch=1 n=b4 v=64
112677 On ch=1 n=g#4 v=64
112677 On ch=1 n=b5 v=64
112677 On ch=1 n=g#6 v=64
112677 On ch=1 n=b6 v=64
112795 On ch=1 n=b6 v=0
112795 On ch=1 n=g#6 v=0
112795 On ch=1 n=b5 v=0
112795 On ch=1 n=g#4 v=0
112795 On ch=1 n=b4 v=0
112797 On ch=1 n=b4 v=64
112797 On ch=1 n=g#4 v=64
112797 On ch=1 n=b5 v=64
112797 On ch=1 n=g#6 v=64
112797 On ch=1 n=b6 v=64
113035 On ch=1 n=b6 v=0
113035 On ch=1 n=g#6 v=0
113035 On ch=1 n=b5 v=0
113035 On ch=1 n=g#4 v=0
113035 On ch=1 n=b4 v=0
113037 On ch=1 n=g#4 v=64
113037 On ch=1 n=d#4 v=64
113037 On ch=1 n=g#3 v=64
113037 On ch=1 n=d#7 v=64
113037 On ch=1 n=d#6 v=64
113037 On ch=1 n=b6 v=64
113275 On ch=1 n=b6 v=0
113275 On ch=1 n=d#6 v=0
113275 On ch=1 n=d#7 v=0
113275 On ch=1 n=g#3 v=0
113275 On ch=1 n=d#4 v=0
113275 On ch=1 n=g#4 v=0
113397 On ch=1 n=d5 v=64
113397 On ch=1 n=g#4 v=64
113397 On ch=1 n=d7 v=64
113397 On ch=1 n=d6 v=64
113397 On ch=1 n=b6 v=64
113397 On ch=1 n=b4 v=64
113515 On ch=1 n=b4 v=0
113515 On ch=1 n=b6 v=0
113515 On ch=1 n=d6 v=0
113515 On ch=1 n=d7 v=0
113515 On ch=1 n=g#4 v=0
113515 On ch=1 n=d5 v=0
113517 On ch=1 n=d#5 v=64
113517 On ch=1 n=g#4 v=64
113517 On ch=1 n=d#7 v=64
113517 On ch=1 n=d#6 v=64
113517 On ch=1 n=b4 v=64
113517 On ch=1 n=b6 v=64
113717 Par ch=1 c=64 v=0
113755 On ch=1 n=b6 v=0
113755 On ch=1 n=b4 v=0
113755 On ch=1 n=d#6 v=0
113755 On ch=1 n=d#7 v=0
113755 On ch=1 n=g#4 v=0
113755 On ch=1 n=d#5 v=0
113757 On ch=1 n=d#3 v=64
113757 On ch=1 n=d#4 v=64
113757 On ch=1 n=a#6 v=64
113757 On ch=1 n=g6 v=64
113757 On ch=1 n=g7 v=64
113757 Par ch=1 c=64 v=96
113995 On ch=1 n=g7 v=0
113995 On ch=1 n=g6 v=0
113995 On ch=1 n=a#6 v=0
113995 On ch=1 n=d#4 v=0
113995 On ch=1 n=d#3 v=0
114117 On ch=1 n=g5 v=64
114117 On ch=1 n=d#5 v=64
114117 On ch=1 n=a#4 v=64
114117 On ch=1 n=g6 v=64
114117 On ch=1 n=d#6 v=64
114117 On ch=1 n=a#5 v=64
114235 On ch=1 n=a#5 v=0
114235 On ch=1 n=d#6 v=0
114235 On ch=1 n=g6 v=0
114235 On ch=1 n=a#4 v=0
114235 On ch=1 n=d#5 v=0
114235 On ch=1 n=g5 v=0
114237 On ch=1 n=g5 v=64
114237 On ch=1 n=d#5 v=64
114237 On ch=1 n=a#4 v=64
114237 On ch=1 n=g6 v=64
114237 On ch=1 n=d#6 v=64
114237 On ch=1 n=a#5 v=64
114475 On ch=1 n=a#5 v=0
114475 On ch=1 n=d#6 v=0
114475 On ch=1 n=g6 v=0
114475 On ch=1 n=a#4 v=0
114475 On ch=1 n=d#5 v=0
114475 On ch=1 n=g5 v=0
114477 On ch=1 n=d#3 v=64
114477 On ch=1 n=d#4 v=64
114477 On ch=1 n=a#6 v=64
114477 On ch=1 n=f#6 v=64
114477 On ch=1 n=f#7 v=64
114715 On ch=1 n=f#7 v=0
114715 On ch=1 n=f#6 v=0
114715 On ch=1 n=a#6 v=0
114715 On ch=1 n=d#4 v=0
114715 On ch=1 n=d#3 v=0
114837 On ch=1 n=d#5 v=64
114837 On ch=1 n=a#4 v=64
114837 On ch=1 n=d#6 v=64
114837 On ch=1 n=a#5 v=64
114837 On ch=1 n=f#5 v=64
114837 On ch=1 n=f#6 v=64
114955 On ch=1 n=f#6 v=0
114955 On ch=1 n=f#5 v=0
114955 On ch=1 n=a#5 v=0
114955 On ch=1 n=d#6 v=0
114955 On ch=1 n=a#4 v=0
114955 On ch=1 n=d#5 v=0
114957 On ch=1 n=d#5 v=64
114957 On ch=1 n=a#4 v=64
114957 On ch=1 n=d#6 v=64
114957 On ch=1 n=a#5 v=64
114957 On ch=1 n=f#5 v=64
114957 On ch=1 n=f#6 v=64
115157 Par ch=1 c=64 v=0
115195 On ch=1 n=f#6 v=0
115195 On ch=1 n=f#5 v=0
115195 On ch=1 n=a#5 v=0
115195 On ch=1 n=d#6 v=0
115195 On ch=1 n=a#4 v=0
115195 On ch=1 n=d#5 v=0
115197 On ch=1 n=g#6 v=64
115197 On ch=1 n=b2 v=64
115197 On ch=1 n=b3 v=64
115197 On ch=1 n=e6 v=64
115197 On ch=1 n=e7 v=64
115197 Par ch=1 c=64 v=96
115435 On ch=1 n=e7 v=0
115435 On ch=1 n=e6 v=0
115435 On ch=1 n=b3 v=0
115435 On ch=1 n=b2 v=0
115435 On ch=1 n=g#6 v=0
115557 On ch=1 n=g#4 v=64
115557 On ch=1 n=g#5 v=64
115557 On ch=1 n=e5 v=64
115557 On ch=1 n=b4 v=64
115557 On ch=1 n=e6 v=64
115557 On ch=1 n=b5 v=64
115675 On ch=1 n=b5 v=0
115675 On ch=1 n=e6 v=0
115675 On ch=1 n=b4 v=0
115675 On ch=1 n=e5 v=0
115675 On ch=1 n=g#5 v=0
115675 On ch=1 n=g#4 v=0
115677 On ch=1 n=g#4 v=64
115677 On ch=1 n=g#5 v=64
115677 On ch=1 n=e5 v=64
115677 On ch=1 n=b4 v=64
115677 On ch=1 n=b5 v=64
115677 On ch=1 n=e6 v=64
115915 On ch=1 n=e6 v=0
115915 On ch=1 n=b5 v=0
115915 On ch=1 n=b4 v=0
115915 On ch=1 n=e5 v=0
115915 On ch=1 n=g#5 v=0
115915 On ch=1 n=g#4 v=0
115917 On ch=1 n=d#3 v=64
115917 On ch=1 n=d#4 v=64
115917 On ch=1 n=d#7 v=64
115917 On ch=1 n=d#6 v=64
115917 On ch=1 n=f#6 v=64
116155 On ch=1 n=f#6 v=0
116155 On ch=1 n=d#6 v=0
116155 On ch=1 n=d#7 v=0
116155 On ch=1 n=d#4 v=0
116155 On ch=1 n=d#3 v=0
116277 On ch=1 n=d#5 v=64
116277 On ch=1 n=d#6 v=64
116277 On ch=1 n=a4 v=64
116277 On ch=1 n=f#4 v=64
116277 On ch=1 n=a5 v=64
116277 On ch=1 n=f#5 v=64
116395 On ch=1 n=f#5 v=0
116395 On ch=1 n=a5 v=0
116395 On ch=1 n=f#4 v=0
116395 On ch=1 n=a4 v=0
116395 On ch=1 n=d#6 v=0
116395 On ch=1 n=d#5 v=0
116397 On ch=1 n=d#5 v=64
116397 On ch=1 n=d#6 v=64
116397 On ch=1 n=f#4 v=64
116397 On ch=1 n=a4 v=64
116397 On ch=1 n=f#5 v=64
116397 On ch=1 n=a5 v=64
116597 Par ch=1 c=64 v=0
116635 On ch=1 n=a5 v=0
116635 On ch=1 n=f#5 v=0
116635 On ch=1 n=a4 v=0
116635 On ch=1 n=f#4 v=0
116635 On ch=1 n=d#6 v=0
116635 On ch=1 n=d#5 v=0
116637 On ch=1 n=d#7 v=64
116637 Par ch=1 c=64 v=96
116695 On ch=1 n=d#7 v=0
116697 On ch=1 n=c#3 v=64
116697 On ch=1 n=c#4 v=64
116697 On ch=1 n=c#6 v=64
116697 On ch=1 n=c#7 v=64
116815 On ch=1 n=c#7 v=0
116815 On ch=1 n=c#6 v=0
116815 On ch=1 n=c#4 v=0
116815 On ch=1 n=c#3 v=0
116997 On ch=1 n=a#5 v=64
116997 On ch=1 n=a#4 v=64
116997 On ch=1 n=c#6 v=64
116997 On ch=1 n=f#4 v=64
116997 On ch=1 n=c#5 v=64
116997 On ch=1 n=f#5 v=64
117115 On ch=1 n=f#5 v=0
117115 On ch=1 n=c#5 v=0
117115 On ch=1 n=f#4 v=0
117115 On ch=1 n=c#6 v=0
117115 On ch=1 n=a#4 v=0
117115 On ch=1 n=a#5 v=0
117117 On ch=1 n=a#4 v=64
117117 On ch=1 n=g4 v=64
117117 On ch=1 n=a#5 v=64
117117 On ch=1 n=g5 v=64
117117 On ch=1 n=c#5 v=64
117117 On ch=1 n=c#6 v=64
117355 On ch=1 n=c#6 v=0
117355 On ch=1 n=c#5 v=0
117355 On ch=1 n=g5 v=0
117355 On ch=1 n=a#5 v=0
117355 On ch=1 n=g4 v=0
117355 On ch=1 n=a#4 v=0
117357 On ch=1 n=a#4 v=64
117357 On ch=1 n=g4 v=64
117357 On ch=1 n=a#5 v=64
117357 On ch=1 n=g5 v=64
117357 On ch=1 n=c#5 v=64
117357 On ch=1 n=c#6 v=64
117595 On ch=1 n=c#6 v=0
117595 On ch=1 n=c#5 v=0
117595 On ch=1 n=g5 v=0
117595 On ch=1 n=a#5 v=0
117595 On ch=1 n=g4 v=0
117595 On ch=1 n=a#4 v=0
117717 On ch=1 n=g#4 v=64
117717 On ch=1 n=g#5 v=64
117717 On ch=1 n=c#5 v=64
117717 On ch=1 n=b4 v=64
117717 On ch=1 n=c#6 v=64
117717 On ch=1 n=b5 v=64
117835 On ch=1 n=b5 v=0
117835 On ch=1 n=c#6 v=0
117835 On ch=1 n=b4 v=0
117835 On ch=1 n=c#5 v=0
117835 On ch=1 n=g#5 v=0
117835 On ch=1 n=g#4 v=0
117837 On ch=1 n=g#4 v=64
117837 On ch=1 n=f4 v=64
117837 On ch=1 n=g#5 v=64
117837 On ch=1 n=f5 v=64
117837 On ch=1 n=c#5 v=64
117837 On ch=1 n=c#6 v=64
118037 Par ch=1 c=64 v=0
118075 On ch=1 n=c#6 v=0
118075 On ch=1 n=c#5 v=0
118075 On ch=1 n=f5 v=0
118075 On ch=1 n=g#5 v=0
118075 On ch=1 n=f4 v=0
118075 On ch=1 n=g#4 v=0
118077 On ch=1 n=d#7 v=64
118077 Par ch=1 c=64 v=96
118135 On ch=1 n=d#7 v=0
118137 On ch=1 n=c#3 v=64
118137 On ch=1 n=c#4 v=64
118137 On ch=1 n=c#6 v=64
118137 On ch=1 n=c#7 v=64
118255 On ch=1 n=c#7 v=0
118255 On ch=1 n=c#6 v=0
118255 On ch=1 n=c#4 v=0
118255 On ch=1 n=c#3 v=0
118437 On ch=1 n=a#5 v=64
118437 On ch=1 n=a#4 v=64
118437 On ch=1 n=c#6 v=64
118437 On ch=1 n=f#4 v=64
118437 On ch=1 n=c#5 v=64
118437 On ch=1 n=f#5 v=64
118555 On ch=1 n=f#5 v=0
118555 On ch=1 n=c#5 v=0
118555 On ch=1 n=f#4 v=0
118555 On ch=1 n=c#6 v=0
118555 On ch=1 n=a#4 v=0
118555 On ch=1 n=a#5 v=0
118557 On ch=1 n=a#4 v=64
118557 On ch=1 n=g4 v=64
118557 On ch=1 n=a#5 v=64
118557 On ch=1 n=g5 v=64
118557 On ch=1 n=c#5 v=64
118557 On ch=1 n=c#6 v=64
118795 On ch=1 n=c#6 v=0
118795 On ch=1 n=c#5 v=0
118795 On ch=1 n=g5 v=0
118795 On ch=1 n=a#5 v=0
118795 On ch=1 n=g4 v=0
118795 On ch=1 n=a#4 v=0
118797 On ch=1 n=a#4 v=64
118797 On ch=1 n=g4 v=64
118797 On ch=1 n=a#5 v=64
118797 On ch=1 n=g5 v=64
118797 On ch=1 n=c#5 v=64
118797 On ch=1 n=c#6 v=64
119035 On ch=1 n=c#6 v=0
119035 On ch=1 n=c#5 v=0
119035 On ch=1 n=g5 v=0
119035 On ch=1 n=a#5 v=0
119035 On ch=1 n=g4 v=0
119035 On ch=1 n=a#4 v=0
119157 On ch=1 n=g#4 v=64
119157 On ch=1 n=g#5 v=64
119157 On ch=1 n=c#5 v=64
119157 On ch=1 n=b4 v=64
119157 On ch=1 n=c#6 v=64
119157 On ch=1 n=b5 v=64
119275 On ch=1 n=b5 v=0
119275 On ch=1 n=c#6 v=0
119275 On ch=1 n=b4 v=0
119275 On ch=1 n=c#5 v=0
119275 On ch=1 n=g#5 v=0
119275 On ch=1 n=g#4 v=0
119277 On ch=1 n=g#4 v=64
119277 On ch=1 n=f4 v=64
119277 On ch=1 n=g#5 v=64
119277 On ch=1 n=f5 v=64
119277 On ch=1 n=c#5 v=64
119277 On ch=1 n=c#6 v=64
119477 Par ch=1 c=64 v=0
119515 On ch=1 n=c#6 v=0
119515 On ch=1 n=c#5 v=0
119515 On ch=1 n=f5 v=0
119515 On ch=1 n=g#5 v=0
119515 On ch=1 n=f4 v=0
119515 On ch=1 n=g#4 v=0
119517 Par ch=1 c=7 v=110
119517 On ch=1 n=b6 v=64
119517 Par ch=1 c=64 v=96
119574 Par ch=1 c=7 v=109
119575 On ch=1 n=b6 v=0
119577 On ch=1 n=a#2 v=64
119577 On ch=1 n=a#3 v=64
119577 On ch=1 n=a#5 v=64
119577 On ch=1 n=a#6 v=64
119632 Par ch=1 c=7 v=108
119689 Par ch=1 c=7 v=107
119695 On ch=1 n=a#6 v=0
119695 On ch=1 n=a#5 v=0
119695 On ch=1 n=a#3 v=0
119695 On ch=1 n=a#2 v=0
119747 Par ch=1 c=7 v=106
119804 Par ch=1 c=7 v=105
119862 Par ch=1 c=7 v=104
119877 On ch=1 n=a#4 v=64
119877 On ch=1 n=d#4 v=64
119877 On ch=1 n=a#5 v=64
119877 On ch=1 n=d#5 v=64
119877 On ch=1 n=f#4 v=64
119877 On ch=1 n=f#5 v=64
119920 Par ch=1 c=7 v=103
119977 Par ch=1 c=7 v=102
119995 On ch=1 n=f#5 v=0
119995 On ch=1 n=f#4 v=0
119995 On ch=1 n=d#5 v=0
119995 On ch=1 n=a#5 v=0
119995 On ch=1 n=d#4 v=0
119995 On ch=1 n=a#4 v=0
119997 On ch=1 n=a#4 v=64
119997 On ch=1 n=g4 v=64
119997 On ch=1 n=a#5 v=64
119997 On ch=1 n=g5 v=64
119997 On ch=1 n=e4 v=64
119997 On ch=1 n=e5 v=64
120035 Par ch=1 c=7 v=101
120092 Par ch=1 c=7 v=100
120150 Par ch=1 c=7 v=99
120207 Par ch=1 c=7 v=98
120235 On ch=1 n=e5 v=0
120235 On ch=1 n=e4 v=0
120235 On ch=1 n=g5 v=0
120235 On ch=1 n=a#5 v=0
120235 On ch=1 n=g4 v=0
120235 On ch=1 n=a#4 v=0
120237 On ch=1 n=a#4 v=64
120237 On ch=1 n=g4 v=64
120237 On ch=1 n=a#5 v=64
120237 On ch=1 n=g5 v=64
120237 On ch=1 n=e4 v=64
120237 On ch=1 n=e5 v=64
120265 Par ch=1 c=7 v=97
120323 Par ch=1 c=7 v=96
120380 Par ch=1 c=7 v=95
120438 Par ch=1 c=7 v=94
120475 On ch=1 n=e5 v=0
120475 On ch=1 n=e4 v=0
120475 On ch=1 n=g5 v=0
120475 On ch=1 n=a#5 v=0
120475 On ch=1 n=g4 v=0
120475 On ch=1 n=a#4 v=0
120495 Par ch=1 c=7 v=93
120553 Par ch=1 c=7 v=92
120597 On ch=1 n=a#4 v=64
120597 On ch=1 n=g#4 v=64
120597 On ch=1 n=f4 v=64
120597 On ch=1 n=a#5 v=64
120597 On ch=1 n=g#5 v=64
120597 On ch=1 n=f5 v=64
120611 Par ch=1 c=7 v=91
120668 Par ch=1 c=7 v=90
120715 On ch=1 n=f5 v=0
120715 On ch=1 n=g#5 v=0
120715 On ch=1 n=a#5 v=0
120715 On ch=1 n=f4 v=0
120715 On ch=1 n=g#4 v=0
120715 On ch=1 n=a#4 v=0
120717 On ch=1 n=a#4 v=64
120717 On ch=1 n=f4 v=64
120717 On ch=1 n=d4 v=64
120717 On ch=1 n=a#5 v=64
120717 On ch=1 n=f5 v=64
120717 On ch=1 n=d5 v=64
120726 Par ch=1 c=7 v=89
120783 Par ch=1 c=7 v=88
120841 Par ch=1 c=7 v=87
120898 Par ch=1 c=7 v=86
120917 Par ch=1 c=64 v=0
120955 On ch=1 n=d5 v=0
120955 On ch=1 n=f5 v=0
120955 On ch=1 n=a#5 v=0
120955 On ch=1 n=d4 v=0
120955 On ch=1 n=f4 v=0
120955 On ch=1 n=a#4 v=0
120956 Par ch=1 c=7 v=85
120957 Tempo 394737
120957 On ch=1 n=b6 v=64
120957 Par ch=1 c=64 v=96
121001 Tempo 397351
121011 Par ch=1 c=7 v=84
121012 On ch=1 n=b6 v=0
121014 On ch=1 n=a#2 v=64
121014 On ch=1 n=a#3 v=64
121014 On ch=1 n=a#5 v=64
121014 On ch=1 n=a#6 v=64
121043 Tempo 400000
121068 Par ch=1 c=7 v=83
121088 Tempo 402685
121126 Par ch=1 c=7 v=82
121132 On ch=1 n=a#6 v=0
121132 On ch=1 n=a#5 v=0
121132 On ch=1 n=a#3 v=0
121132 On ch=1 n=a#2 v=0
121133 Tempo 405405
121178 Tempo 408163
121183 Par ch=1 c=7 v=81
121223 Tempo 410959
121241 Par ch=1 c=7 v=80
121268 Tempo 413793
121298 Par ch=1 c=7 v=79
121313 Tempo 416667
121314 On ch=1 n=a#4 v=64
121314 On ch=1 n=d#4 v=64
121314 On ch=1 n=a#5 v=64
121314 On ch=1 n=d#5 v=64
121314 On ch=1 n=f#4 v=64
121314 On ch=1 n=f#5 v=64
121356 Par ch=1 c=7 v=78
121358 Tempo 419580
121403 Tempo 422535
121414 Par ch=1 c=7 v=77
121432 On ch=1 n=f#5 v=0
121432 On ch=1 n=f#4 v=0
121432 On ch=1 n=d#5 v=0
121432 On ch=1 n=a#5 v=0
121432 On ch=1 n=d#4 v=0
121432 On ch=1 n=a#4 v=0
121434 On ch=1 n=a#4 v=64
121434 On ch=1 n=g4 v=64
121434 On ch=1 n=a#5 v=64
121434 On ch=1 n=g5 v=64
121434 On ch=1 n=e4 v=64
121434 On ch=1 n=e5 v=64
121448 Tempo 425532
121471 Par ch=1 c=7 v=76
121493 Tempo 428571
121529 Par ch=1 c=7 v=75
121538 Tempo 431655
121583 Tempo 434783
121586 Par ch=1 c=7 v=74
121628 Tempo 437956
121644 Par ch=1 c=7 v=73
121672 On ch=1 n=e5 v=0
121672 On ch=1 n=e4 v=0
121672 On ch=1 n=g5 v=0
121672 On ch=1 n=a#5 v=0
121672 On ch=1 n=g4 v=0
121672 On ch=1 n=a#4 v=0
121673 Tempo 441176
121674 On ch=1 n=a#4 v=64
121674 On ch=1 n=g4 v=64
121674 On ch=1 n=a#5 v=64
121674 On ch=1 n=g5 v=64
121674 On ch=1 n=e4 v=64
121674 On ch=1 n=e5 v=64
121702 Par ch=1 c=7 v=72
121718 Tempo 444444
121759 Par ch=1 c=7 v=71
121763 Tempo 447761
121808 Tempo 451128
121817 Par ch=1 c=7 v=70
121853 Tempo 454545
121874 Par ch=1 c=7 v=69
121898 Tempo 458015
121912 On ch=1 n=e5 v=0
121912 On ch=1 n=e4 v=0
121912 On ch=1 n=g5 v=0
121912 On ch=1 n=a#5 v=0
121912 On ch=1 n=g4 v=0
121912 On ch=1 n=a#4 v=0
121932 Par ch=1 c=7 v=68
121943 Tempo 461538
121988 Tempo 465116
121989 Par ch=1 c=7 v=67
122033 Tempo 468750
122034 On ch=1 n=a#4 v=64
122034 On ch=1 n=g#4 v=64
122034 On ch=1 n=f4 v=64
122034 On ch=1 n=a#5 v=64
122034 On ch=1 n=g#5 v=64
122034 On ch=1 n=f5 v=64
122044 Par ch=1 c=7 v=66
122075 Tempo 472441
122102 Par ch=1 c=7 v=65
122120 Tempo 476190
122149 On ch=1 n=f5 v=0
122149 On ch=1 n=g#5 v=0
122149 On ch=1 n=a#5 v=0
122149 On ch=1 n=f4 v=0
122149 On ch=1 n=g#4 v=0
122149 On ch=1 n=a#4 v=0
122151 On ch=1 n=a#4 v=64
122151 On ch=1 n=f4 v=64
122151 On ch=1 n=d4 v=64
122151 On ch=1 n=a#5 v=64
122151 On ch=1 n=f5 v=64
122151 On ch=1 n=d5 v=64
122159 Par ch=1 c=7 v=64
122165 Tempo 480000
122210 Tempo 483871
122217 Par ch=1 c=7 v=63
122255 Tempo 487805
122274 Par ch=1 c=7 v=62
122300 Tempo 491803
122332 Par ch=1 c=7 v=61
122342 Tempo 495868
122348 Par ch=1 c=64 v=0
122386 On ch=1 n=d5 v=0
122386 On ch=1 n=f5 v=0
122386 On ch=1 n=a#5 v=0
122386 On ch=1 n=d4 v=0
122386 On ch=1 n=f4 v=0
122386 On ch=1 n=a#4 v=0
122387 Tempo 500000
122387 Par ch=1 c=7 v=60
122388 Tempo 434783
122388 On ch=1 n=g5 v=64
122388 On ch=1 n=d#3 v=64
122388 On ch=1 n=a#3 v=64
122388 On ch=1 n=d#4 v=64
122508 On ch=1 n=g4 v=64
122566 On ch=1 n=d#4 v=0
122566 On ch=1 n=a#3 v=0
122566 On ch=1 n=d#3 v=0
122626 On ch=1 n=g4 v=0
122628 On ch=1 n=a#4 v=64
122746 On ch=1 n=a#4 v=0
122748 On ch=1 n=f5 v=64
122748 On ch=1 n=d#3 v=64
122748 On ch=1 n=a#3 v=64
122748 On ch=1 n=d#4 v=64
122836 On ch=1 n=d#4 v=0
122836 On ch=1 n=a#3 v=0
122836 On ch=1 n=d#3 v=0
122868 On ch=1 n=g4 v=64
122868 On ch=1 n=d#3 v=64
122868 On ch=1 n=a#3 v=64
122868 On ch=1 n=d#4 v=64
122986 On ch=1 n=g4 v=0
122988 On ch=1 n=a#4 v=64
123046 On ch=1 n=d#4 v=0
123046 On ch=1 n=a#3 v=0
123046 On ch=1 n=d#3 v=0
123106 On ch=1 n=a#4 v=0
123106 On ch=1 n=f5 v=0
123108 On ch=1 n=d#5 v=64
123228 On ch=1 n=g4 v=64
123346 On ch=1 n=g4 v=0
123348 On ch=1 n=a#4 v=64
123466 On ch=1 n=a#4 v=0
123466 On ch=1 n=d#5 v=0
123468 On ch=1 n=d5 v=64
123588 On ch=1 n=g4 v=64
123706 On ch=1 n=g4 v=0
123708 On ch=1 n=a#4 v=64
123826 On ch=1 n=a#4 v=0
123826 On ch=1 n=d5 v=0
123826 On ch=1 n=g5 v=0
123828 On ch=1 n=g5 v=64
123828 On ch=1 n=d#3 v=64
123828 On ch=1 n=a#3 v=64
123828 On ch=1 n=d#4 v=64
123948 On ch=1 n=g4 v=64
124006 On ch=1 n=d#4 v=0
124006 On ch=1 n=a#3 v=0
124006 On ch=1 n=d#3 v=0
124066 On ch=1 n=g4 v=0
124068 On ch=1 n=a#4 v=64
124186 On ch=1 n=a#4 v=0
124188 On ch=1 n=c5 v=64
124188 On ch=1 n=d#3 v=64
124188 On ch=1 n=a#3 v=64
124188 On ch=1 n=d#4 v=64
124276 On ch=1 n=d#4 v=0
124276 On ch=1 n=a#3 v=0
124276 On ch=1 n=d#3 v=0
124308 On ch=1 n=g4 v=64
124308 On ch=1 n=d#3 v=64
124308 On ch=1 n=a#3 v=64
124308 On ch=1 n=d#4 v=64
124426 On ch=1 n=g4 v=0
124428 On ch=1 n=a4 v=64
124486 On ch=1 n=d#4 v=0
124486 On ch=1 n=a#3 v=0
124486 On ch=1 n=d#3 v=0
124546 On ch=1 n=a4 v=0
124546 On ch=1 n=c5 v=0
124546 On ch=1 n=g5 v=0
124548 On ch=1 n=g5 v=64
124668 On ch=1 n=g4 v=64
124786 On ch=1 n=g4 v=0
124788 On ch=1 n=a#4 v=64
124906 On ch=1 n=a#4 v=0
124908 On ch=1 n=d#5 v=64
125026 On ch=1 n=d#5 v=0
125028 On ch=1 n=g4 v=64
125146 On ch=1 n=g4 v=0
125148 On ch=1 n=a#4 v=64
125266 On ch=1 n=a#4 v=0
125266 On ch=1 n=g5 v=0
125268 Par ch=1 c=7 v=60
125268 On ch=1 n=g5 v=64
125268 On ch=1 n=d#3 v=64
125268 On ch=1 n=d4 v=64
125268 On ch=1 n=b3 v=64
125388 On ch=1 n=g#4 v=64
125446 On ch=1 n=b3 v=0
125446 On ch=1 n=d4 v=0
125446 On ch=1 n=d#3 v=0
125506 On ch=1 n=g#4 v=0
125508 On ch=1 n=b4 v=64
125626 On ch=1 n=b4 v=0
125626 On ch=1 n=g5 v=0
125628 On ch=1 n=e5 v=64
125628 On ch=1 n=d#3 v=64
125628 On ch=1 n=d4 v=64
125628 On ch=1 n=b3 v=64
125699 Par ch=1 c=7 v=61
125716 On ch=1 n=b3 v=0
125716 On ch=1 n=d4 v=0
125716 On ch=1 n=d#3 v=0
125748 On ch=1 n=g#4 v=64
125748 On ch=1 n=d#3 v=64
125748 On ch=1 n=d4 v=64
125748 On ch=1 n=b3 v=64
125866 On ch=1 n=g#4 v=0
125868 On ch=1 n=b4 v=64
125926 On ch=1 n=b3 v=0
125926 On ch=1 n=d4 v=0
125926 On ch=1 n=d#3 v=0
125986 On ch=1 n=b4 v=0
125986 On ch=1 n=e5 v=0
125988 On ch=1 n=f5 v=64
126108 On ch=1 n=g#4 v=64
126131 Par ch=1 c=7 v=62
126226 On ch=1 n=g#4 v=0
126228 On ch=1 n=b4 v=64
126346 On ch=1 n=b4 v=0
126346 On ch=1 n=f5 v=0
126348 On ch=1 n=g5 v=64
126468 On ch=1 n=g#4 v=64
126563 Par ch=1 c=7 v=63
126586 On ch=1 n=g#4 v=0
126588 On ch=1 n=b4 v=64
126706 On ch=1 n=b4 v=0
126706 On ch=1 n=g5 v=0
126708 On ch=1 n=g#5 v=64
126708 On ch=1 n=d4 v=64
126708 On ch=1 n=a#3 v=64
126708 On ch=1 n=d#3 v=64
126828 On ch=1 n=g#4 v=64
126886 On ch=1 n=d#3 v=0
126886 On ch=1 n=a#3 v=0
126886 On ch=1 n=d4 v=0
126946 On ch=1 n=g#4 v=0
126948 On ch=1 n=d5 v=64
126995 Par ch=1 c=7 v=64
127066 On ch=1 n=d5 v=0
127066 On ch=1 n=g#5 v=0
127068 On ch=1 n=a5 v=64
127068 On ch=1 n=d4 v=64
127068 On ch=1 n=a#3 v=64
127068 On ch=1 n=d#3 v=64
127156 On ch=1 n=d#3 v=0
127156 On ch=1 n=a#3 v=0
127156 On ch=1 n=d4 v=0
127188 On ch=1 n=g#4 v=64
127188 On ch=1 n=d4 v=64
127188 On ch=1 n=a#3 v=64
127188 On ch=1 n=d#3 v=64
127306 On ch=1 n=g#4 v=0
127308 On ch=1 n=d5 v=64
127366 On ch=1 n=d#3 v=0
127366 On ch=1 n=a#3 v=0
127366 On ch=1 n=d4 v=0
127426 On ch=1 n=d5 v=0
127426 On ch=1 n=a5 v=0
127427 Par ch=1 c=7 v=65
127428 Par ch=1 c=7 v=65
127428 On ch=1 n=c6 v=64
127428 Par ch=1 c=64 v=96
127548 On ch=1 n=g#4 v=64
127571 Par ch=1 c=7 v=64
127666 On ch=1 n=g#4 v=0
127668 On ch=1 n=d5 v=64
127715 Par ch=1 c=7 v=63
127786 On ch=1 n=d5 v=0
127786 On ch=1 n=c6 v=0
127788 On ch=1 n=a#5 v=64
127859 Par ch=1 c=7 v=62
127908 On ch=1 n=g#4 v=64
128003 Par ch=1 c=7 v=61
128026 On ch=1 n=g#4 v=0
128028 On ch=1 n=d5 v=64
128108 Par ch=1 c=64 v=0
128146 On ch=1 n=d5 v=0
128146 On ch=1 n=a#5 v=0
128147 Par ch=1 c=7 v=60
128148 On ch=1 n=g5 v=64
128148 On ch=1 n=d#3 v=64
128148 On ch=1 n=a#3 v=64
128148 On ch=1 n=d#4 v=64
128268 On ch=1 n=g4 v=64
128326 On ch=1 n=d#4 v=0
128326 On ch=1 n=a#3 v=0
128326 On ch=1 n=d#3 v=0
128386 On ch=1 n=g4 v=0
128388 On ch=1 n=a#4 v=64
128506 On ch=1 n=a#4 v=0
128508 On ch=1 n=f5 v=64
128508 On ch=1 n=d#3 v=64
128508 On ch=1 n=a#3 v=64
128508 On ch=1 n=d#4 v=64
128596 On ch=1 n=d#4 v=0
128596 On ch=1 n=a#3 v=0
128596 On ch=1 n=d#3 v=0
128628 On ch=1 n=g4 v=64
128628 On ch=1 n=d#3 v=64
128628 On ch=1 n=a#3 v=64
128628 On ch=1 n=d#4 v=64
128746 On ch=1 n=g4 v=0
128748 On ch=1 n=a#4 v=64
128806 On ch=1 n=d#4 v=0
128806 On ch=1 n=a#3 v=0
128806 On ch=1 n=d#3 v=0
128866 On ch=1 n=a#4 v=0
128866 On ch=1 n=f5 v=0
128868 On ch=1 n=d#5 v=64
128988 On ch=1 n=g4 v=64
129106 On ch=1 n=g4 v=0
129108 On ch=1 n=a#4 v=64
129226 On ch=1 n=a#4 v=0
129226 On ch=1 n=d#5 v=0
129228 On ch=1 n=d5 v=64
129348 On ch=1 n=g4 v=64
129466 On ch=1 n=g4 v=0
129468 On ch=1 n=a#4 v=64
129586 On ch=1 n=a#4 v=0
129586 On ch=1 n=d5 v=0
129586 On ch=1 n=g5 v=0
129588 On ch=1 n=g5 v=64
129588 On ch=1 n=d#3 v=64
129588 On ch=1 n=a#3 v=64
129588 On ch=1 n=d#4 v=64
129708 On ch=1 n=g4 v=64
129766 On ch=1 n=d#4 v=0
129766 On ch=1 n=a#3 v=0
129766 On ch=1 n=d#3 v=0
129826 On ch=1 n=g4 v=0
129828 On ch=1 n=a#4 v=64
129946 On ch=1 n=a#4 v=0
129948 On ch=1 n=c5 v=64
129948 On ch=1 n=d#3 v=64
129948 On ch=1 n=a#3 v=64
129948 On ch=1 n=d#4 v=64
130036 On ch=1 n=d#4 v=0
130036 On ch=1 n=a#3 v=0
130036 On ch=1 n=d#3 v=0
130068 On ch=1 n=g4 v=64
130068 On ch=1 n=d#3 v=64
130068 On ch=1 n=a#3 v=64
130068 On ch=1 n=d#4 v=64
130186 On ch=1 n=g4 v=0
130188 On ch=1 n=a4 v=64
130246 On ch=1 n=d#4 v=0
130246 On ch=1 n=a#3 v=0
130246 On ch=1 n=d#3 v=0
130306 On ch=1 n=a4 v=0
130306 On ch=1 n=c5 v=0
130306 On ch=1 n=g5 v=0
130308 On ch=1 n=g5 v=64
130428 On ch=1 n=g4 v=64
130546 On ch=1 n=g4 v=0
130548 On ch=1 n=a#4 v=64
130666 On ch=1 n=a#4 v=0
130668 On ch=1 n=d#5 v=64
130786 On ch=1 n=d#5 v=0
130788 On ch=1 n=g4 v=64
130906 On ch=1 n=g4 v=0
130908 On ch=1 n=a#4 v=64
131026 On ch=1 n=a#4 v=0
131026 On ch=1 n=g5 v=0
131028 On ch=1 n=d4 v=64
131028 On ch=1 n=c4 v=64
131028 On ch=1 n=d3 v=64
131028 On ch=1 n=g5 v=64
131148 On ch=1 n=a4 v=64
131206 On ch=1 n=d3 v=0
131206 On ch=1 n=c4 v=0
131206 On ch=1 n=d4 v=0
131266 On ch=1 n=a4 v=0
131268 On ch=1 n=c5 v=64
131386 On ch=1 n=c5 v=0
131386 On ch=1 n=g5 v=0
131388 On ch=1 n=d4 v=64
131388 On ch=1 n=c4 v=64
131388 On ch=1 n=d3 v=64
131388 On ch=1 n=f#5 v=64
131476 On ch=1 n=d3 v=0
131476 On ch=1 n=c4 v=0
131476 On ch=1 n=d4 v=0
131508 On ch=1 n=a4 v=64
131508 On ch=1 n=d4 v=64
131508 On ch=1 n=c4 v=64
131508 On ch=1 n=d3 v=64
131626 On ch=1 n=a4 v=0
131628 On ch=1 n=c5 v=64
131686 On ch=1 n=d3 v=0
131686 On ch=1 n=c4 v=0
131686 On ch=1 n=d4 v=0
131746 On ch=1 n=c5 v=0
131746 On ch=1 n=f#5 v=0
131748 Par ch=1 c=7 v=60
131748 On ch=1 n=a#5 v=64
131748 Par ch=1 c=64 v=96
131868 On ch=1 n=c5 v=64
131986 On ch=1 n=c5 v=0
131988 On ch=1 n=d5 v=64
132035 Par ch=1 c=7 v=61
132106 On ch=1 n=d5 v=0
132106 On ch=1 n=a#5 v=0
132108 On ch=1 n=d4 v=64
132108 On ch=1 n=f#4 v=64
132108 On ch=1 n=a5 v=64
132226 On ch=1 n=f#4 v=0
132226 On ch=1 n=d4 v=0
132228 On ch=1 n=c5 v=64
132228 On ch=1 n=d4 v=64
132228 On ch=1 n=f#4 v=64
132228 Par ch=1 c=64 v=0
132323 Par ch=1 c=7 v=62
132346 On ch=1 n=c5 v=0
132348 On ch=1 n=d5 v=64
132466 On ch=1 n=d5 v=0
132466 On ch=1 n=f#4 v=0
132466 On ch=1 n=d4 v=0
132466 On ch=1 n=a5 v=0
132468 On ch=1 n=c6 v=64
132468 Par ch=1 c=64 v=96
132588 On ch=1 n=a#4 v=64
132611 Par ch=1 c=7 v=63
132706 On ch=1 n=a#4 v=0
132708 On ch=1 n=d5 v=64
132826 On ch=1 n=d5 v=0
132826 On ch=1 n=c6 v=0
132828 On ch=1 n=g4 v=64
132828 On ch=1 n=d4 v=64
132828 On ch=1 n=g3 v=64
132828 On ch=1 n=a#5 v=64
132899 Par ch=1 c=7 v=64
132946 On ch=1 n=g3 v=0
132946 On ch=1 n=d4 v=0
132946 On ch=1 n=g4 v=0
132948 On ch=1 n=a#4 v=64
132948 On ch=1 n=g4 v=64
132948 On ch=1 n=d4 v=64
132948 On ch=1 n=g3 v=64
132948 Par ch=1 c=64 v=0
133066 On ch=1 n=a#4 v=0
133068 On ch=1 n=d5 v=64
133186 On ch=1 n=d5 v=0
133186 On ch=1 n=g3 v=0
133186 On ch=1 n=d4 v=0
133186 On ch=1 n=g4 v=0
133186 On ch=1 n=a#5 v=0
133187 Par ch=1 c=7 v=65
133188 Tempo 416667
133188 Par ch=1 c=7 v=65
133188 On ch=1 n=d6 v=64
133188 Par ch=1 c=64 v=96
133202 Tempo 419580
133217 Tempo 422535
133232 Tempo 425532
133247 Tempo 428571
133262 Tempo 431655
133277 Tempo 434783
133292 Tempo 437956
133307 Tempo 441176
133308 On ch=1 n=d5 v=64
133322 Tempo 444444
133331 Par ch=1 c=7 v=64
133337 Tempo 447761
133352 Tempo 451128
133367 Tempo 454545
133382 Tempo 458015
133397 Tempo 461538
133412 Tempo 465116
133426 On ch=1 n=d5 v=0
133427 Tempo 468750
133428 On ch=1 n=f5 v=64
133428 On ch=1 n=a#4 v=64
133428 On ch=1 n=g#4 v=64
133428 On ch=1 n=a#3 v=64
133442 Tempo 472441
133457 Tempo 476190
133472 Tempo 480000
133475 Par ch=1 c=7 v=63
133487 Tempo 483871
133502 Tempo 487805
133517 Tempo 491803
133532 Tempo 495868
133546 On ch=1 n=f5 v=0
133546 On ch=1 n=d6 v=0
133547 Tempo 500000
133548 On ch=1 n=c6 v=64
133562 Tempo 504202
133577 Tempo 508475
133592 Tempo 512821
133607 Tempo 517241
133619 Par ch=1 c=7 v=62
133622 Tempo 521739
133637 Tempo 526316
133652 Tempo 530973
133666 On ch=1 n=a#3 v=0
133666 On ch=1 n=g#4 v=0
133666 On ch=1 n=a#4 v=0
133667 Tempo 535714
133668 On ch=1 n=d5 v=64
133668 On ch=1 n=a#4 v=64
133668 On ch=1 n=g#4 v=64
133668 On ch=1 n=a#3 v=64
133682 Tempo 540541
133697 Tempo 545455
133712 Tempo 550459
133727 Tempo 555556
133742 Tempo 560748
133757 Tempo 566038
133763 Par ch=1 c=7 v=61
133772 Tempo 571429
133786 On ch=1 n=d5 v=0
133786 On ch=1 n=c6 v=0
133787 Tempo 576923
133788 On ch=1 n=a#5 v=64
133802 Tempo 582524
133817 Tempo 588235
133832 Tempo 594059
133847 Tempo 600000
133862 Tempo 606061
133868 Par ch=1 c=64 v=0
133877 Tempo 612245
133892 Tempo 618557
133906 On ch=1 n=a#5 v=0
133906 On ch=1 n=a#3 v=0
133906 On ch=1 n=g#4 v=0
133906 On ch=1 n=a#4 v=0
133907 Tempo 625000
133907 Par ch=1 c=7 v=60
133908 Tempo 434783
133908 On ch=1 n=d#3 v=64
133908 On ch=1 n=g6 v=64
134028 On ch=1 n=g5 v=64
134146 On ch=1 n=g5 v=0
134146 On ch=1 n=d#3 v=0
134148 On ch=1 n=f5 v=64
134148 On ch=1 n=a#4 v=64
134148 On ch=1 n=g4 v=64
134148 On ch=1 n=a#5 v=64
134148 Par ch=1 c=64 v=96
134266 On ch=1 n=a#5 v=0
134268 On ch=1 n=f6 v=64
134386 On ch=1 n=g4 v=0
134386 On ch=1 n=a#4 v=0
134386 On ch=1 n=f5 v=0
134388 On ch=1 n=g3 v=64
134388 On ch=1 n=g5 v=64
134506 On ch=1 n=g5 v=0
134508 On ch=1 n=a#5 v=64
134588 Par ch=1 c=64 v=0
134626 On ch=1 n=a#5 v=0
134626 On ch=1 n=g3 v=0
134626 On ch=1 n=f6 v=0
134628 On ch=1 n=d#5 v=64
134628 On ch=1 n=a#4 v=64
134628 On ch=1 n=g4 v=64
134628 On ch=1 n=d#6 v=64
134628 Par ch=1 c=64 v=96
134748 On ch=1 n=g5 v=64
134866 On ch=1 n=g5 v=0
134866 On ch=1 n=g4 v=0
134866 On ch=1 n=a#4 v=0
134866 On ch=1 n=d#5 v=0
134868 On ch=1 n=a#3 v=64
134868 On ch=1 n=a#5 v=64
134868 Par ch=1 c=64 v=0
134986 On ch=1 n=a#5 v=0
134986 On ch=1 n=d#6 v=0
134988 On ch=1 n=d6 v=64
135106 On ch=1 n=a#3 v=0
135108 On ch=1 n=d5 v=64
135108 On ch=1 n=a#4 v=64
135108 On ch=1 n=g4 v=64
135108 On ch=1 n=g5 v=64
135108 Par ch=1 c=64 v=96
135226 On ch=1 n=g5 v=0
135228 On ch=1 n=a#5 v=64
135346 On ch=1 n=a#5 v=0
135346 On ch=1 n=g4 v=0
135346 On ch=1 n=a#4 v=0
135346 On ch=1 n=d5 v=0
135346 On ch=1 n=d6 v=0
135346 On ch=1 n=g6 v=0
135348 On ch=1 n=d#4 v=64
135348 On ch=1 n=g6 v=64
135348 Par ch=1 c=64 v=0
135468 On ch=1 n=g5 v=64
135586 On ch=1 n=g5 v=0
135586 On ch=1 n=d#4 v=0
135588 On ch=1 n=c5 v=64
135588 On ch=1 n=g4 v=64
135588 On ch=1 n=a#5 v=64
135588 Par ch=1 c=64 v=96
135706 On ch=1 n=a#5 v=0
135708 On ch=1 n=c6 v=64
135826 On ch=1 n=g4 v=0
135826 On ch=1 n=c5 v=0
135828 On ch=1 n=a#3 v=64
135828 On ch=1 n=g5 v=64
135828 Par ch=1 c=64 v=0
135946 On ch=1 n=g5 v=0
135948 On ch=1 n=a5 v=64
136066 On ch=1 n=a5 v=0
136066 On ch=1 n=a#3 v=0
136066 On ch=1 n=c6 v=0
136066 On ch=1 n=g6 v=0
136068 On ch=1 n=a#4 v=64
136068 On ch=1 n=g4 v=64
136068 On ch=1 n=g6 v=64
136068 Par ch=1 c=64 v=96
136188 On ch=1 n=g5 v=64
136306 On ch=1 n=g5 v=0
136306 On ch=1 n=g4 v=0
136306 On ch=1 n=a#4 v=0
136308 On ch=1 n=g3 v=64
136308 On ch=1 n=a#5 v=64
136308 Par ch=1 c=64 v=0
136426 On ch=1 n=a#5 v=0
136428 On ch=1 n=d#6 v=64
136546 On ch=1 n=d#6 v=0
136546 On ch=1 n=g3 v=0
136548 On ch=1 n=a#4 v=64
136548 On ch=1 n=g4 v=64
136548 On ch=1 n=g5 v=64
136666 On ch=1 n=g5 v=0
136668 On ch=1 n=a#5 v=64
136786 On ch=1 n=a#5 v=0
136786 On ch=1 n=g4 v=0
136786 On ch=1 n=a#4 v=0
136786 On ch=1 n=g6 v=0
136788 Par ch=1 c=7 v=60
136788 On ch=1 n=d#3 v=64
136788 On ch=1 n=g5 v=64
136788 On ch=1 n=g6 v=64
136906 On ch=1 n=g5 v=0
136908 On ch=1 n=g#5 v=64
137026 On ch=1 n=g#5 v=0
137026 On ch=1 n=d#3 v=0
137028 On ch=1 n=d5 v=64
137028 On ch=1 n=g#4 v=64
137028 On ch=1 n=b4 v=64
137028 On ch=1 n=b5 v=64
137028 Par ch=1 c=64 v=96
137146 On ch=1 n=b5 v=0
137146 On ch=1 n=g6 v=0
137148 On ch=1 n=e5 v=64
137148 On ch=1 n=e6 v=64
137219 Par ch=1 c=7 v=61
137266 On ch=1 n=e5 v=0
137266 On ch=1 n=b4 v=0
137266 On ch=1 n=g#4 v=0
137266 On ch=1 n=d5 v=0
137268 On ch=1 n=g#3 v=64
137268 On ch=1 n=g#5 v=64
137386 On ch=1 n=g#5 v=0
137388 On ch=1 n=b5 v=64
137468 Par ch=1 c=64 v=0
137506 On ch=1 n=b5 v=0
137506 On ch=1 n=g#3 v=0
137506 On ch=1 n=e6 v=0
137508 On ch=1 n=d5 v=64
137508 On ch=1 n=g#4 v=64
137508 On ch=1 n=b4 v=64
137508 On ch=1 n=f5 v=64
137508 On ch=1 n=f6 v=64
137508 Par ch=1 c=64 v=96
137626 On ch=1 n=f5 v=0
137628 On ch=1 n=g#5 v=64
137651 Par ch=1 c=7 v=62
137746 On ch=1 n=g#5 v=0
137746 On ch=1 n=b4 v=0
137746 On ch=1 n=g#4 v=0
137746 On ch=1 n=d5 v=0
137748 On ch=1 n=b3 v=64
137748 On ch=1 n=b5 v=64
137866 On ch=1 n=b5 v=0
137866 On ch=1 n=f6 v=0
137868 On ch=1 n=g5 v=64
137868 On ch=1 n=g6 v=64
137986 On ch=1 n=g5 v=0
137986 On ch=1 n=b3 v=0
137988 On ch=1 n=d5 v=64
137988 On ch=1 n=g#4 v=64
137988 On ch=1 n=b4 v=64
137988 On ch=1 n=b5 v=64
137988 Par ch=1 c=64 v=0
138083 Par ch=1 c=7 v=63
138106 On ch=1 n=b5 v=0
138108 On ch=1 n=d6 v=64
138226 On ch=1 n=d6 v=0
138226 On ch=1 n=b4 v=0
138226 On ch=1 n=g#4 v=0
138226 On ch=1 n=d5 v=0
138226 On ch=1 n=g6 v=0
138228 On ch=1 n=d#3 v=64
138228 On ch=1 n=g#5 v=64
138228 On ch=1 n=g#6 v=64
138346 On ch=1 n=g#5 v=0
138348 On ch=1 n=d6 v=64
138466 On ch=1 n=d6 v=0
138466 On ch=1 n=d#3 v=0
138468 On ch=1 n=f5 v=64
138468 On ch=1 n=a#4 v=64
138468 On ch=1 n=g#4 v=64
138468 On ch=1 n=f6 v=64
138468 Par ch=1 c=64 v=96
138515 Par ch=1 c=7 v=64
138586 On ch=1 n=f6 v=0
138586 On ch=1 n=g#6 v=0
138588 On ch=1 n=a5 v=64
138588 On ch=1 n=a6 v=64
138706 On ch=1 n=a5 v=0
138706 On ch=1 n=g#4 v=0
138706 On ch=1 n=a#4 v=0
138706 On ch=1 n=f5 v=0
138708 On ch=1 n=a#3 v=64
138708 On ch=1 n=d6 v=64
138826 On ch=1 n=d6 v=0
138828 On ch=1 n=f6 v=64
138908 Par ch=1 c=64 v=0
138946 On ch=1 n=f6 v=0
138946 On ch=1 n=a#3 v=0
138946 On ch=1 n=a6 v=0
138947 Par ch=1 c=7 v=65
138948 Par ch=1 c=7 v=65
138948 On ch=1 n=f5 v=64
138948 On ch=1 n=a#4 v=64
138948 On ch=1 n=g#4 v=64
138948 On ch=1 n=c6 v=64
138948 On ch=1 n=c7 v=64
138948 Par ch=1 c=64 v=96
139066 On ch=1 n=c6 v=0
139068 On ch=1 n=d6 v=64
139091 Par ch=1 c=7 v=64
139186 On ch=1 n=d6 v=0
139186 On ch=1 n=g#4 v=0
139186 On ch=1 n=a#4 v=0
139186 On ch=1 n=f5 v=0
139188 On ch=1 n=d4 v=64
139188 On ch=1 n=f6 v=64
139235 Par ch=1 c=7 v=63
139306 On ch=1 n=f6 v=0
139306 On ch=1 n=c7 v=0
139308 On ch=1 n=a#5 v=64
139308 On ch=1 n=a#6 v=64
139379 Par ch=1 c=7 v=62
139426 On ch=1 n=a#5 v=0
139426 On ch=1 n=d4 v=0
139428 On ch=1 n=f5 v=64
139428 On ch=1 n=a#4 v=64
139428 On ch=1 n=g#4 v=64
139428 On ch=1 n=d6 v=64
139428 Par ch=1 c=64 v=0
139523 Par ch=1 c=7 v=61
139546 On ch=1 n=d6 v=0
139548 On ch=1 n=f6 v=64
139666 On ch=1 n=f6 v=0
139666 On ch=1 n=g#4 v=0
139666 On ch=1 n=a#4 v=0
139666 On ch=1 n=f5 v=0
139666 On ch=1 n=a#6 v=0
139667 Par ch=1 c=7 v=60
139668 On ch=1 n=d#3 v=64
139668 On ch=1 n=g6 v=64
139788 On ch=1 n=g5 v=64
139906 On ch=1 n=g5 v=0
139906 On ch=1 n=d#3 v=0
139908 On ch=1 n=f5 v=64
139908 On ch=1 n=a#4 v=64
139908 On ch=1 n=g4 v=64
139908 On ch=1 n=a#5 v=64
139908 Par ch=1 c=64 v=96
140026 On ch=1 n=a#5 v=0
140028 On ch=1 n=f6 v=64
140146 On ch=1 n=g4 v=0
140146 On ch=1 n=a#4 v=0
140146 On ch=1 n=f5 v=0
140148 On ch=1 n=g3 v=64
140148 On ch=1 n=g5 v=64
140148 Par ch=1 c=64 v=0
140266 On ch=1 n=g5 v=0
140268 On ch=1 n=a#5 v=64
140386 On ch=1 n=a#5 v=0
140386 On ch=1 n=g3 v=0
140386 On ch=1 n=f6 v=0
140388 On ch=1 n=d#5 v=64
140388 On ch=1 n=a#4 v=64
140388 On ch=1 n=g4 v=64
140388 On ch=1 n=d#6 v=64
140388 Par ch=1 c=64 v=96
140508 On ch=1 n=g5 v=64
140626 On ch=1 n=g5 v=0
140626 On ch=1 n=g4 v=0
140626 On ch=1 n=a#4 v=0
140626 On ch=1 n=d#5 v=0
140628 On ch=1 n=a#3 v=64
140628 On ch=1 n=a#5 v=64
140628 Par ch=1 c=64 v=0
140746 On ch=1 n=a#5 v=0
140746 On ch=1 n=d#6 v=0
140748 On ch=1 n=d6 v=64
140866 On ch=1 n=a#3 v=0
140868 On ch=1 n=d5 v=64
140868 On ch=1 n=a#4 v=64
140868 On ch=1 n=g4 v=64
140868 On ch=1 n=g5 v=64
140868 Par ch=1 c=64 v=96
140986 On ch=1 n=g5 v=0
140988 On ch=1 n=a#5 v=64
141106 On ch=1 n=a#5 v=0
141106 On ch=1 n=g4 v=0
141106 On ch=1 n=a#4 v=0
141106 On ch=1 n=d5 v=0
141106 On ch=1 n=d6 v=0
141106 On ch=1 n=g6 v=0
141108 On ch=1 n=d#4 v=64
141108 On ch=1 n=g6 v=64
141108 Par ch=1 c=64 v=0
141228 On ch=1 n=g5 v=64
141346 On ch=1 n=g5 v=0
141346 On ch=1 n=d#4 v=0
141348 On ch=1 n=c5 v=64
141348 On ch=1 n=g4 v=64
141348 On ch=1 n=a#5 v=64
141348 Par ch=1 c=64 v=96
141466 On ch=1 n=a#5 v=0
141468 On ch=1 n=c6 v=64
141586 On ch=1 n=g4 v=0
141586 On ch=1 n=c5 v=0
141588 On ch=1 n=a#3 v=64
141588 On ch=1 n=g5 v=64
141588 Par ch=1 c=64 v=0
141706 On ch=1 n=g5 v=0
141708 On ch=1 n=a5 v=64
141826 On ch=1 n=a5 v=0
141826 On ch=1 n=a#3 v=0
141826 On ch=1 n=c6 v=0
141826 On ch=1 n=g6 v=0
141828 On ch=1 n=a#4 v=64
141828 On ch=1 n=g4 v=64
141828 On ch=1 n=g6 v=64
141828 Par ch=1 c=64 v=96
141948 On ch=1 n=g5 v=64
142066 On ch=1 n=g5 v=0
142066 On ch=1 n=g4 v=0
142066 On ch=1 n=a#4 v=0
142068 On ch=1 n=g3 v=64
142068 On ch=1 n=a#5 v=64
142068 Par ch=1 c=64 v=0
142186 On ch=1 n=a#5 v=0
142188 On ch=1 n=d#6 v=64
142306 On ch=1 n=d#6 v=0
142306 On ch=1 n=g3 v=0
142308 On ch=1 n=a#4 v=64
142308 On ch=1 n=g4 v=64
142308 On ch=1 n=g5 v=64
142426 On ch=1 n=g5 v=0
142428 On ch=1 n=a#5 v=64
142546 On ch=1 n=a#5 v=0
142546 On ch=1 n=g4 v=0
142546 On ch=1 n=a#4 v=0
142546 On ch=1 n=g6 v=0
142548 Par ch=1 c=7 v=60
142548 On ch=1 n=d3 v=64
142548 On ch=1 n=g5 v=64
142548 On ch=1 n=g6 v=64
142548 Par ch=1 c=64 v=96
142666 On ch=1 n=g5 v=0
142668 On ch=1 n=a5 v=64
142691 Par ch=1 c=7 v=61
142786 On ch=1 n=a5 v=0
142786 On ch=1 n=d3 v=0
142788 On ch=1 n=d5 v=64
142788 On ch=1 n=c5 v=64
142788 On ch=1 n=a4 v=64
142788 On ch=1 n=c6 v=64
142835 Par ch=1 c=7 v=62
142906 On ch=1 n=c6 v=0
142906 On ch=1 n=g6 v=0
142908 On ch=1 n=f#5 v=64
142908 On ch=1 n=f#6 v=64
142979 Par ch=1 c=7 v=63
143026 On ch=1 n=f#5 v=0
143026 On ch=1 n=a4 v=0
143026 On ch=1 n=c5 v=0
143026 On ch=1 n=d5 v=0
143028 On ch=1 n=a3 v=64
143028 On ch=1 n=a5 v=64
143123 Par ch=1 c=7 v=64
143146 On ch=1 n=a5 v=0
143148 On ch=1 n=d#6 v=64
143228 Par ch=1 c=64 v=0
143266 On ch=1 n=d#6 v=0
143266 On ch=1 n=a3 v=0
143266 On ch=1 n=f#6 v=0
143267 Par ch=1 c=7 v=65
143268 Par ch=1 c=7 v=65
143268 On ch=1 n=d#5 v=64
143268 On ch=1 n=c5 v=64
143268 On ch=1 n=f#4 v=64
143268 On ch=1 n=d#7 v=64
143268 On ch=1 n=d#6 v=64
143268 Par ch=1 c=64 v=96
143386 On ch=1 n=d#6 v=0
143388 On ch=1 n=f#6 v=64
143411 Par ch=1 c=7 v=64
143506 On ch=1 n=f#6 v=0
143506 On ch=1 n=f#4 v=0
143506 On ch=1 n=c5 v=0
143506 On ch=1 n=d#5 v=0
143508 On ch=1 n=d4 v=64
143508 On ch=1 n=a6 v=64
143555 Par ch=1 c=7 v=63
143626 On ch=1 n=a6 v=0
143626 On ch=1 n=d#7 v=0
143628 On ch=1 n=d7 v=64
143628 On ch=1 n=d6 v=64
143699 Par ch=1 c=7 v=62
143746 On ch=1 n=d6 v=0
143746 On ch=1 n=d4 v=0
143748 On ch=1 n=d5 v=64
143748 On ch=1 n=c5 v=64
143748 On ch=1 n=a4 v=64
143748 On ch=1 n=f#6 v=64
143843 Par ch=1 c=7 v=61
143866 On ch=1 n=f#6 v=0
143868 On ch=1 n=a6 v=64
143948 Par ch=1 c=64 v=0
143986 On ch=1 n=a6 v=0
143986 On ch=1 n=a4 v=0
143986 On ch=1 n=c5 v=0
143986 On ch=1 n=d5 v=0
143986 On ch=1 n=d7 v=0
143987 Par ch=1 c=7 v=60
143988 On ch=1 n=g3 v=64
143988 On ch=1 n=d6 v=64
143988 On ch=1 n=d7 v=64
143988 Par ch=1 c=64 v=96
144106 On ch=1 n=d6 v=0
144108 On ch=1 n=g6 v=64
144226 On ch=1 n=g6 v=0
144226 On ch=1 n=g3 v=0
144228 On ch=1 n=d5 v=64
144228 On ch=1 n=b4 v=64
144228 On ch=1 n=b6 v=64
144346 On ch=1 n=b6 v=0
144346 On ch=1 n=d7 v=0
144348 On ch=1 n=b5 v=64
144348 On ch=1 n=b6 v=64
144466 On ch=1 n=b5 v=0
144466 On ch=1 n=b4 v=0
144466 On ch=1 n=d5 v=0
144468 On ch=1 n=d4 v=64
144468 On ch=1 n=d6 v=64
144586 On ch=1 n=d6 v=0
144588 On ch=1 n=g6 v=64
144706 On ch=1 n=g6 v=0
144706 On ch=1 n=d4 v=0
144706 On ch=1 n=b6 v=0
144708 On ch=1 n=d5 v=64
144708 On ch=1 n=b4 v=64
144708 On ch=1 n=g5 v=64
144708 On ch=1 n=g6 v=64
144826 On ch=1 n=g5 v=0
144828 On ch=1 n=b5 v=64
144946 On ch=1 n=b5 v=0
144946 On ch=1 n=b4 v=0
144946 On ch=1 n=d5 v=0
144948 On ch=1 n=g4 v=64
144948 On ch=1 n=d6 v=64
145066 On ch=1 n=d6 v=0
145066 On ch=1 n=g6 v=0
145068 On ch=1 n=g5 v=64
145068 On ch=1 n=g6 v=64
145186 On ch=1 n=g5 v=0
145186 On ch=1 n=g4 v=0
145188 On ch=1 n=d5 v=64
145188 On ch=1 n=b4 v=64
145188 On ch=1 n=b5 v=64
145188 Par ch=1 c=64 v=0
145306 On ch=1 n=b5 v=0
145308 On ch=1 n=d6 v=64
145426 On ch=1 n=d6 v=0
145426 On ch=1 n=b4 v=0
145426 On ch=1 n=d5 v=0
145426 On ch=1 n=g6 v=0
145428 On ch=1 n=e3 v=64
145428 On ch=1 n=g6 v=64
145548 On ch=1 n=g5 v=64
145666 On ch=1 n=g5 v=0
145666 On ch=1 n=e3 v=0
145668 On ch=1 n=g4 v=64
145668 On ch=1 n=f#5 v=64
145668 On ch=1 n=b4 v=64
145668 On ch=1 n=b5 v=64
145668 Par ch=1 c=64 v=96
145786 On ch=1 n=b5 v=0
145788 On ch=1 n=f#6 v=64
145906 On ch=1 n=b4 v=0
145906 On ch=1 n=f#5 v=0
145906 On ch=1 n=g4 v=0
145908 On ch=1 n=g3 v=64
145908 On ch=1 n=g5 v=64
145908 Par ch=1 c=64 v=0
146026 On ch=1 n=g5 v=0
146028 On ch=1 n=b5 v=64
146146 On ch=1 n=b5 v=0
146146 On ch=1 n=g3 v=0
146146 On ch=1 n=f#6 v=0
146148 On ch=1 n=g4 v=64
146148 On ch=1 n=e5 v=64
146148 On ch=1 n=b4 v=64
146148 On ch=1 n=e6 v=64
146148 Par ch=1 c=64 v=96
146268 On ch=1 n=g5 v=64
146386 On ch=1 n=g5 v=0
146386 On ch=1 n=b4 v=0
146386 On ch=1 n=e5 v=0
146386 On ch=1 n=g4 v=0
146388 On ch=1 n=b3 v=64
146388 On ch=1 n=b5 v=64
146388 Par ch=1 c=64 v=0
146506 On ch=1 n=b5 v=0
146506 On ch=1 n=e6 v=0
146508 On ch=1 n=d6 v=64
146626 On ch=1 n=b3 v=0
146628 On ch=1 n=d5 v=64
146628 On ch=1 n=g4 v=64
146628 On ch=1 n=b4 v=64
146628 On ch=1 n=g5 v=64
146628 Par ch=1 c=64 v=96
146746 On ch=1 n=g5 v=0
146748 On ch=1 n=b5 v=64
146866 On ch=1 n=b5 v=0
146866 On ch=1 n=b4 v=0
146866 On ch=1 n=g4 v=0
146866 On ch=1 n=d5 v=0
146866 On ch=1 n=d6 v=0
146866 On ch=1 n=g6 v=0
146868 On ch=1 n=e4 v=64
146868 On ch=1 n=g6 v=64
146868 Par ch=1 c=64 v=0
146988 On ch=1 n=g5 v=64
147106 On ch=1 n=g5 v=0
147106 On ch=1 n=e4 v=0
147108 On ch=1 n=c5 v=64
147108 On ch=1 n=g4 v=64
147108 On ch=1 n=b5 v=64
147108 Par ch=1 c=64 v=96
147226 On ch=1 n=b5 v=0
147228 On ch=1 n=c6 v=64
147346 On ch=1 n=g4 v=0
147346 On ch=1 n=c5 v=0
147348 On ch=1 n=b3 v=64
147348 On ch=1 n=g5 v=64
147348 Par ch=1 c=64 v=0
147466 On ch=1 n=g5 v=0
147466 On ch=1 n=c6 v=0
147468 On ch=1 n=b5 v=64
147586 On ch=1 n=b5 v=0
147586 On ch=1 n=b3 v=0
147586 On ch=1 n=g6 v=0
147588 On ch=1 n=g4 v=64
147588 On ch=1 n=b4 v=64
147588 On ch=1 n=g6 v=64
147588 Par ch=1 c=64 v=96
147708 On ch=1 n=g5 v=64
147826 On ch=1 n=g5 v=0
147826 On ch=1 n=b4 v=0
147826 On ch=1 n=g4 v=0
147828 On ch=1 n=e3 v=64
147828 On ch=1 n=b5 v=64
147828 Par ch=1 c=64 v=0
147948 On ch=1 n=e6 v=64
148066 On ch=1 n=e6 v=0
148066 On ch=1 n=b5 v=0
148066 On ch=1 n=e3 v=0
148068 On ch=1 n=g4 v=64
148068 On ch=1 n=b4 v=64
148068 On ch=1 n=g5 v=64
148068 Par ch=1 c=64 v=96
148186 On ch=1 n=g5 v=0
148188 On ch=1 n=b5 v=64
148268 Par ch=1 c=64 v=0
148306 On ch=1 n=b5 v=0
148306 On ch=1 n=b4 v=0
148306 On ch=1 n=g4 v=0
148306 On ch=1 n=g6 v=0
148308 On ch=1 n=c3 v=64
148308 On ch=1 n=g5 v=64
148308 On ch=1 n=g6 v=64
148308 Par ch=1 c=64 v=96
148426 On ch=1 n=g5 v=0
148428 On ch=1 n=a5 v=64
148546 On ch=1 n=a5 v=0
148546 On ch=1 n=c3 v=0
148548 On ch=1 n=g4 v=64
148548 On ch=1 n=d#5 v=64
148548 On ch=1 n=a4 v=64
148548 On ch=1 n=d#6 v=64
148666 On ch=1 n=d#6 v=0
148666 On ch=1 n=g6 v=0
148668 On ch=1 n=f5 v=64
148668 On ch=1 n=f6 v=64
148748 Par ch=1 c=64 v=0
148786 On ch=1 n=f5 v=0
148786 On ch=1 n=a4 v=0
148786 On ch=1 n=d#5 v=0
148786 On ch=1 n=g4 v=0
148788 On ch=1 n=a3 v=64
148788 On ch=1 n=a5 v=64
148788 Par ch=1 c=64 v=96
148906 On ch=1 n=a5 v=0
148908 On ch=1 n=d#6 v=64
148988 Par ch=1 c=64 v=0
149026 On ch=1 n=d#6 v=0
149026 On ch=1 n=a3 v=0
149026 On ch=1 n=f6 v=0
149028 Par ch=1 c=7 v=60
149028 On ch=1 n=d5 v=64
149028 On ch=1 n=a4 v=64
149028 On ch=1 n=f#4 v=64
149028 On ch=1 n=f#5 v=64
149028 On ch=1 n=f#6 v=64
149028 Par ch=1 c=64 v=96
149146 On ch=1 n=f#5 v=0
149148 On ch=1 n=a5 v=64
149266 On ch=1 n=a5 v=0
149266 On ch=1 n=f#4 v=0
149266 On ch=1 n=a4 v=0
149266 On ch=1 n=d5 v=0
149268 On ch=1 n=c4 v=64
149268 On ch=1 n=d#6 v=64
149315 Par ch=1 c=7 v=61
149386 On ch=1 n=d#6 v=0
149386 On ch=1 n=f#6 v=0
149388 On ch=1 n=g5 v=64
149388 On ch=1 n=g6 v=64
149468 Par ch=1 c=64 v=0
149506 On ch=1 n=g5 v=0
149506 On ch=1 n=c4 v=0
149508 On ch=1 n=d5 v=64
149508 On ch=1 n=a4 v=64
149508 On ch=1 n=f#4 v=64
149508 On ch=1 n=a5 v=64
149508 Par ch=1 c=64 v=96
149603 Par ch=1 c=7 v=62
149626 On ch=1 n=a5 v=0
149628 On ch=1 n=d#6 v=64
149708 Par ch=1 c=64 v=0
149746 On ch=1 n=d#6 v=0
149746 On ch=1 n=f#4 v=0
149746 On ch=1 n=a4 v=0
149746 On ch=1 n=d5 v=0
149746 On ch=1 n=g6 v=0
149748 On ch=1 n=b2 v=64
149748 On ch=1 n=g#6 v=64
149748 On ch=1 n=g#5 v=64
149748 Par ch=1 c=64 v=96
149866 On ch=1 n=g#5 v=0
149868 On ch=1 n=d#6 v=64
149891 Par ch=1 c=7 v=63
149986 On ch=1 n=d#6 v=0
149986 On ch=1 n=b2 v=0
149988 On ch=1 n=d#5 v=64
149988 On ch=1 n=a4 v=64
149988 On ch=1 n=f#4 v=64
149988 On ch=1 n=f#6 v=64
150106 On ch=1 n=f#6 v=0
150106 On ch=1 n=g#6 v=0
150108 On ch=1 n=a6 v=64
150108 On ch=1 n=a5 v=64
150179 Par ch=1 c=7 v=64
150226 On ch=1 n=a5 v=0
150226 On ch=1 n=f#4 v=0
150226 On ch=1 n=a4 v=0
150226 On ch=1 n=d#5 v=0
150228 On ch=1 n=b3 v=64
150228 On ch=1 n=d#6 v=64
150346 On ch=1 n=d#6 v=0
150348 On ch=1 n=f#6 v=64
150428 Par ch=1 c=64 v=0
150466 On ch=1 n=f#6 v=0
150466 On ch=1 n=b3 v=0
150466 On ch=1 n=a6 v=0
150467 Par ch=1 c=7 v=65
150468 Par ch=1 c=7 v=65
150468 On ch=1 n=c5 v=64
150468 On ch=1 n=f#5 v=64
150468 On ch=1 n=a4 v=64
150468 On ch=1 n=c6 v=64
150468 On ch=1 n=c7 v=64
150468 Par ch=1 c=64 v=96
150586 On ch=1 n=c6 v=0
150588 On ch=1 n=d#6 v=64
150611 Par ch=1 c=7 v=64
150706 On ch=1 n=d#6 v=0
150706 On ch=1 n=a4 v=0
150706 On ch=1 n=f#5 v=0
150706 On ch=1 n=c5 v=0
150708 On ch=1 n=d#4 v=64
150708 On ch=1 n=f#6 v=64
150755 Par ch=1 c=7 v=63
150826 On ch=1 n=f#6 v=0
150826 On ch=1 n=c7 v=0
150828 On ch=1 n=b5 v=64
150828 On ch=1 n=b6 v=64
150899 Par ch=1 c=7 v=62
150946 On ch=1 n=b5 v=0
150946 On ch=1 n=d#4 v=0
150948 On ch=1 n=f#5 v=64
150948 On ch=1 n=b4 v=64
150948 On ch=1 n=a4 v=64
150948 On ch=1 n=d#6 v=64
150948 Par ch=1 c=64 v=0
151043 Par ch=1 c=7 v=61
151066 On ch=1 n=d#6 v=0
151068 On ch=1 n=f#6 v=64
151186 On ch=1 n=f#6 v=0
151186 On ch=1 n=a4 v=0
151186 On ch=1 n=b4 v=0
151186 On ch=1 n=f#5 v=0
151186 On ch=1 n=b6 v=0
151187 Par ch=1 c=7 v=60
151188 On ch=1 n=e3 v=64
151188 On ch=1 n=g6 v=64
151308 On ch=1 n=g5 v=64
151426 On ch=1 n=g5 v=0
151426 On ch=1 n=e3 v=0
151428 On ch=1 n=g4 v=64
151428 On ch=1 n=f#5 v=64
151428 On ch=1 n=b4 v=64
151428 On ch=1 n=b5 v=64
151428 Par ch=1 c=64 v=96
151546 On ch=1 n=b5 v=0
151548 On ch=1 n=f#6 v=64
151666 On ch=1 n=b4 v=0
151666 On ch=1 n=f#5 v=0
151666 On ch=1 n=g4 v=0
151668 On ch=1 n=g3 v=64
151668 On ch=1 n=g5 v=64
151668 Par ch=1 c=64 v=0
151786 On ch=1 n=g5 v=0
151788 On ch=1 n=b5 v=64
151906 On ch=1 n=b5 v=0
151906 On ch=1 n=g3 v=0
151906 On ch=1 n=f#6 v=0
151908 On ch=1 n=g4 v=64
151908 On ch=1 n=e5 v=64
151908 On ch=1 n=b4 v=64
151908 On ch=1 n=e6 v=64
151908 Par ch=1 c=64 v=96
152028 On ch=1 n=g5 v=64
152146 On ch=1 n=g5 v=0
152146 On ch=1 n=b4 v=0
152146 On ch=1 n=e5 v=0
152146 On ch=1 n=g4 v=0
152148 On ch=1 n=b3 v=64
152148 On ch=1 n=b5 v=64
152148 Par ch=1 c=64 v=0
152266 On ch=1 n=b5 v=0
152266 On ch=1 n=e6 v=0
152268 On ch=1 n=d6 v=64
152386 On ch=1 n=b3 v=0
152388 On ch=1 n=d5 v=64
152388 On ch=1 n=g4 v=64
152388 On ch=1 n=b4 v=64
152388 On ch=1 n=g5 v=64
152388 Par ch=1 c=64 v=96
152506 On ch=1 n=g5 v=0
152508 On ch=1 n=b5 v=64
152626 On ch=1 n=b5 v=0
152626 On ch=1 n=b4 v=0
152626 On ch=1 n=g4 v=0
152626 On ch=1 n=d5 v=0
152626 On ch=1 n=d6 v=0
152626 On ch=1 n=g6 v=0
152628 On ch=1 n=e4 v=64
152628 On ch=1 n=g6 v=64
152628 Par ch=1 c=64 v=0
152748 On ch=1 n=g5 v=64
152866 On ch=1 n=g5 v=0
152866 On ch=1 n=e4 v=0
152868 On ch=1 n=c5 v=64
152868 On ch=1 n=g4 v=64
152868 On ch=1 n=b5 v=64
152868 Par ch=1 c=64 v=96
152986 On ch=1 n=b5 v=0
152988 On ch=1 n=c6 v=64
153106 On ch=1 n=g4 v=0
153106 On ch=1 n=c5 v=0
153108 On ch=1 n=b3 v=64
153108 On ch=1 n=g5 v=64
153108 Par ch=1 c=64 v=0
153226 On ch=1 n=g5 v=0
153226 On ch=1 n=c6 v=0
153228 On ch=1 n=b5 v=64
153346 On ch=1 n=b5 v=0
153346 On ch=1 n=b3 v=0
153346 On ch=1 n=g6 v=0
153348 On ch=1 n=g4 v=64
153348 On ch=1 n=b4 v=64
153348 On ch=1 n=g6 v=64
153348 Par ch=1 c=64 v=96
153468 On ch=1 n=g5 v=64
153586 On ch=1 n=g5 v=0
153586 On ch=1 n=b4 v=0
153586 On ch=1 n=g4 v=0
153588 On ch=1 n=e3 v=64
153588 On ch=1 n=b5 v=64
153588 Par ch=1 c=64 v=0
153708 On ch=1 n=e6 v=64
153826 On ch=1 n=e6 v=0
153826 On ch=1 n=b5 v=0
153826 On ch=1 n=e3 v=0
153828 On ch=1 n=g4 v=64
153828 On ch=1 n=b4 v=64
153828 On ch=1 n=g5 v=64
153946 On ch=1 n=g5 v=0
153948 On ch=1 n=b5 v=64
154066 On ch=1 n=b5 v=0
154066 On ch=1 n=b4 v=0
154066 On ch=1 n=g4 v=0
154066 On ch=1 n=g6 v=0
154068 On ch=1 n=d#3 v=64
154068 On ch=1 n=g5 v=64
154068 On ch=1 n=g6 v=64
154068 Par ch=1 c=64 v=96
154186 On ch=1 n=g5 v=0
154188 On ch=1 n=a5 v=64
154306 On ch=1 n=a5 v=0
154306 On ch=1 n=d#3 v=0
154308 On ch=1 n=c5 v=64
154308 On ch=1 n=g4 v=64
154308 On ch=1 n=a4 v=64
154308 On ch=1 n=c6 v=64
154426 On ch=1 n=c6 v=0
154426 On ch=1 n=g6 v=0
154428 On ch=1 n=f5 v=64
154428 On ch=1 n=f6 v=64
154546 On ch=1 n=f5 v=0
154546 On ch=1 n=a4 v=0
154546 On ch=1 n=g4 v=0
154546 On ch=1 n=c5 v=0
154548 On ch=1 n=a3 v=64
154548 On ch=1 n=a5 v=64
154666 On ch=1 n=a5 v=0
154668 On ch=1 n=c6 v=64
154748 Par ch=1 c=64 v=0
154786 On ch=1 n=c6 v=0
154786 On ch=1 n=a3 v=0
154786 On ch=1 n=f6 v=0
154788 Par ch=1 c=7 v=60
154788 On ch=1 n=c5 v=64
154788 On ch=1 n=a4 v=64
154788 On ch=1 n=f#4 v=64
154788 On ch=1 n=f#5 v=64
154788 On ch=1 n=f#6 v=64
154788 Par ch=1 c=64 v=96
154906 On ch=1 n=f#5 v=0
154908 On ch=1 n=a5 v=64
155026 On ch=1 n=a5 v=0
155026 On ch=1 n=f#4 v=0
155026 On ch=1 n=a4 v=0
155026 On ch=1 n=c5 v=0
155028 On ch=1 n=c4 v=64
155028 On ch=1 n=c6 v=64
155075 Par ch=1 c=7 v=61
155146 On ch=1 n=c6 v=0
155146 On ch=1 n=f#6 v=0
155148 On ch=1 n=g5 v=64
155148 On ch=1 n=g6 v=64
155266 On ch=1 n=g5 v=0
155266 On ch=1 n=c4 v=0
155268 On ch=1 n=d#5 v=64
155268 On ch=1 n=a4 v=64
155268 On ch=1 n=f#4 v=64
155268 On ch=1 n=a5 v=64
155268 Par ch=1 c=64 v=0
155363 Par ch=1 c=7 v=62
155386 On ch=1 n=a5 v=0
155388 On ch=1 n=c6 v=64
155506 On ch=1 n=c6 v=0
155506 On ch=1 n=f#4 v=0
155506 On ch=1 n=a4 v=0
155506 On ch=1 n=d#5 v=0
155506 On ch=1 n=g6 v=0
155508 On ch=1 n=d3 v=64
155508 On ch=1 n=g#6 v=64
155508 On ch=1 n=g#5 v=64
155508 Par ch=1 c=64 v=96
155626 On ch=1 n=g#5 v=0
155628 On ch=1 n=c6 v=64
155651 Par ch=1 c=7 v=63
155746 On ch=1 n=c6 v=0
155746 On ch=1 n=d3 v=0
155748 On ch=1 n=d#5 v=64
155748 On ch=1 n=c5 v=64
155748 On ch=1 n=f#4 v=64
155748 On ch=1 n=f#6 v=64
155866 On ch=1 n=f#6 v=0
155866 On ch=1 n=g#6 v=0
155868 On ch=1 n=a6 v=64
155868 On ch=1 n=a5 v=64
155939 Par ch=1 c=7 v=64
155986 On ch=1 n=a5 v=0
155986 On ch=1 n=f#4 v=0
155986 On ch=1 n=c5 v=0
155986 On ch=1 n=d#5 v=0
155988 On ch=1 n=a3 v=64
155988 On ch=1 n=c6 v=64
156106 On ch=1 n=c6 v=0
156108 On ch=1 n=f#6 v=64
156188 Par ch=1 c=64 v=0
156226 On ch=1 n=f#6 v=0
156226 On ch=1 n=a3 v=0
156226 On ch=1 n=a6 v=0
156227 Par ch=1 c=7 v=65
156228 Par ch=1 c=7 v=65
156228 On ch=1 n=d#5 v=64
156228 On ch=1 n=c5 v=64
156228 On ch=1 n=f#4 v=64
156228 On ch=1 n=d#6 v=64
156228 On ch=1 n=d#7 v=64
156228 Par ch=1 c=64 v=96
156346 On ch=1 n=d#6 v=0
156348 On ch=1 n=f#6 v=64
156371 Par ch=1 c=7 v=64
156466 On ch=1 n=f#6 v=0
156466 On ch=1 n=f#4 v=0
156466 On ch=1 n=c5 v=0
156466 On ch=1 n=d#5 v=0
156468 On ch=1 n=d4 v=64
156468 On ch=1 n=a6 v=64
156515 Par ch=1 c=7 v=63
156586 On ch=1 n=a6 v=0
156586 On ch=1 n=d#7 v=0
156588 On ch=1 n=d6 v=64
156588 On ch=1 n=d7 v=64
156659 Par ch=1 c=7 v=62
156706 On ch=1 n=d6 v=0
156706 On ch=1 n=d4 v=0
156708 On ch=1 n=d5 v=64
156708 On ch=1 n=c5 v=64
156708 On ch=1 n=a4 v=64
156708 On ch=1 n=f#6 v=64
156708 Par ch=1 c=64 v=0
156803 Par ch=1 c=7 v=61
156826 On ch=1 n=f#6 v=0
156828 On ch=1 n=a6 v=64
156946 On ch=1 n=a6 v=0
156946 On ch=1 n=a4 v=0
156946 On ch=1 n=c5 v=0
156946 On ch=1 n=d5 v=0
156946 On ch=1 n=d7 v=0
156947 Par ch=1 c=7 v=60
156948 On ch=1 n=g3 v=64
156948 On ch=1 n=a#6 v=64
157068 On ch=1 n=a#5 v=64
157186 On ch=1 n=a#5 v=0
157186 On ch=1 n=g3 v=0
157188 On ch=1 n=d5 v=64
157188 On ch=1 n=a#4 v=64
157188 On ch=1 n=a5 v=64
157188 On ch=1 n=d6 v=64
157188 Par ch=1 c=64 v=96
157306 On ch=1 n=d6 v=0
157308 On ch=1 n=a6 v=64
157426 On ch=1 n=a5 v=0
157426 On ch=1 n=a#4 v=0
157426 On ch=1 n=d5 v=0
157428 On ch=1 n=a#3 v=64
157428 On ch=1 n=a#5 v=64
157428 Par ch=1 c=64 v=0
157546 On ch=1 n=a#5 v=0
157548 On ch=1 n=d6 v=64
157666 On ch=1 n=d6 v=0
157666 On ch=1 n=a#3 v=0
157666 On ch=1 n=a6 v=0
157668 On ch=1 n=g5 v=64
157668 On ch=1 n=d5 v=64
157668 On ch=1 n=a#4 v=64
157668 On ch=1 n=g6 v=64
157668 Par ch=1 c=64 v=96
157788 On ch=1 n=a#5 v=64
157906 On ch=1 n=a#5 v=0
157906 On ch=1 n=a#4 v=0
157906 On ch=1 n=d5 v=0
157906 On ch=1 n=g5 v=0
157908 On ch=1 n=d4 v=64
157908 On ch=1 n=d6 v=64
157908 Par ch=1 c=64 v=0
158026 On ch=1 n=d6 v=0
158026 On ch=1 n=g6 v=0
158028 On ch=1 n=f6 v=64
158146 On ch=1 n=d4 v=0
158148 On ch=1 n=d#5 v=64
158148 On ch=1 n=a#4 v=64
158148 On ch=1 n=g4 v=64
158148 On ch=1 n=a#5 v=64
158148 Par ch=1 c=64 v=95
158266 On ch=1 n=a#5 v=0
158266 On ch=1 n=f6 v=0
158268 On ch=1 n=d#6 v=64
158348 Par ch=1 c=64 v=0
158386 On ch=1 n=d#6 v=0
158386 On ch=1 n=g4 v=0
158386 On ch=1 n=a#4 v=0
158386 On ch=1 n=d#5 v=0
158386 On ch=1 n=a#6 v=0
158388 Par ch=1 c=7 v=60
158388 On ch=1 n=f#3 v=64
158388 On ch=1 n=c7 v=64
158388 Par ch=1 c=64 v=96
158508 On ch=1 n=c6 v=64
158531 Par ch=1 c=7 v=61
158626 On ch=1 n=c6 v=0
158626 On ch=1 n=f#3 v=0
158628 On ch=1 n=a#5 v=64
158628 On ch=1 n=d#5 v=64
158628 On ch=1 n=c5 v=64
158628 On ch=1 n=d#6 v=64
158675 Par ch=1 c=7 v=62
158746 On ch=1 n=d#6 v=0
158748 On ch=1 n=a#6 v=64
158819 Par ch=1 c=7 v=63
158866 On ch=1 n=c5 v=0
158866 On ch=1 n=d#5 v=0
158866 On ch=1 n=a#5 v=0
158868 On ch=1 n=f3 v=64
158868 On ch=1 n=c6 v=64
158963 Par ch=1 c=7 v=64
158986 On ch=1 n=c6 v=0
158988 On ch=1 n=d#6 v=64
159068 Par ch=1 c=64 v=0
159106 On ch=1 n=d#6 v=0
159106 On ch=1 n=f3 v=0
159106 On ch=1 n=a#6 v=0
159106 On ch=1 n=c7 v=0
159107 Par ch=1 c=7 v=65
159108 On ch=1 n=d#5 v=64
159108 On ch=1 n=c5 v=64
159108 On ch=1 n=a5 v=64
159108 On ch=1 n=c7 v=64
159108 On ch=1 n=a6 v=64
159108 Par ch=1 c=64 v=96
159226 On ch=1 n=a6 v=0
159228 On ch=1 n=c6 v=64
159251 Par ch=1 c=7 v=66
159346 On ch=1 n=c6 v=0
159346 On ch=1 n=a5 v=0
159346 On ch=1 n=c5 v=0
159346 On ch=1 n=d#5 v=0
159348 On ch=1 n=a3 v=64
159348 On ch=1 n=d#6 v=64
159395 Par ch=1 c=7 v=67
159466 On ch=1 n=d#6 v=0
159468 On ch=1 n=f#6 v=64
159539 Par ch=1 c=7 v=68
159586 On ch=1 n=a3 v=0
159588 On ch=1 n=d#5 v=64
159588 On ch=1 n=c5 v=64
159588 On ch=1 n=f#5 v=64
159588 On ch=1 n=c6 v=64
159588 Par ch=1 c=64 v=0
159683 Par ch=1 c=7 v=69
159706 On ch=1 n=c6 v=0
159708 On ch=1 n=d#6 v=64
159826 On ch=1 n=d#6 v=0
159826 On ch=1 n=f#5 v=0
159826 On ch=1 n=c5 v=0
159826 On ch=1 n=d#5 v=0
159826 On ch=1 n=f#6 v=0
159826 On ch=1 n=c7 v=0
159827 Par ch=1 c=7 v=70
159828 On ch=1 n=a#3 v=64
159828 On ch=1 n=c#7 v=64
159828 Par ch=1 c=64 v=96
159948 On ch=1 n=c#6 v=64
159971 Par ch=1 c=7 v=71
160066 On ch=1 n=c#6 v=0
160066 On ch=1 n=a#3 v=0
160068 On ch=1 n=c6 v=64
160068 On ch=1 n=f5 v=64
160068 On ch=1 n=c#5 v=64
160068 On ch=1 n=f6 v=64
160115 Par ch=1 c=7 v=72
160186 On ch=1 n=f6 v=0
160188 On ch=1 n=c7 v=64
160259 Par ch=1 c=7 v=73
160306 On ch=1 n=c#5 v=0
160306 On ch=1 n=f5 v=0
160306 On ch=1 n=c6 v=0
160308 On ch=1 n=c#4 v=64
160308 On ch=1 n=c#6 v=64
160403 Par ch=1 c=7 v=74
160426 On ch=1 n=c#6 v=0
160428 On ch=1 n=f6 v=64
160508 Par ch=1 c=64 v=0
160546 On ch=1 n=f6 v=0
160546 On ch=1 n=c#4 v=0
160546 On ch=1 n=c7 v=0
160547 Par ch=1 c=7 v=75
160548 On ch=1 n=a#5 v=64
160548 On ch=1 n=f5 v=64
160548 On ch=1 n=c#5 v=64
160548 On ch=1 n=a#6 v=64
160548 Par ch=1 c=64 v=96
160668 On ch=1 n=c#6 v=64
160691 Par ch=1 c=7 v=76
160786 On ch=1 n=c#6 v=0
160786 On ch=1 n=c#5 v=0
160786 On ch=1 n=f5 v=0
160786 On ch=1 n=a#5 v=0
160788 On ch=1 n=f4 v=64
160788 On ch=1 n=f6 v=64
160835 Par ch=1 c=7 v=77
160906 On ch=1 n=f6 v=0
160906 On ch=1 n=a#6 v=0
160908 On ch=1 n=g#6 v=64
160979 Par ch=1 c=7 v=78
161026 On ch=1 n=f4 v=0
161028 On ch=1 n=a#4 v=64
161028 On ch=1 n=f#5 v=64
161028 On ch=1 n=c#5 v=64
161028 On ch=1 n=c#6 v=64
161028 Par ch=1 c=64 v=0
161123 Par ch=1 c=7 v=79
161146 On ch=1 n=c#6 v=0
161146 On ch=1 n=g#6 v=0
161148 On ch=1 n=f#6 v=64
161266 On ch=1 n=f#6 v=0
161266 On ch=1 n=c#5 v=0
161266 On ch=1 n=f#5 v=0
161266 On ch=1 n=a#4 v=0
161266 On ch=1 n=c#7 v=0
161267 Par ch=1 c=7 v=80
161268 On ch=1 n=a3 v=64
161268 On ch=1 n=d#7 v=64
161268 Par ch=1 c=64 v=96
161388 On ch=1 n=d#6 v=64
161411 Par ch=1 c=7 v=81
161506 On ch=1 n=d#6 v=0
161506 On ch=1 n=a3 v=0
161508 On ch=1 n=d#5 v=64
161508 On ch=1 n=c#6 v=64
161508 On ch=1 n=f#5 v=64
161508 On ch=1 n=f#6 v=64
161555 Par ch=1 c=7 v=82
161626 On ch=1 n=f#6 v=0
161628 On ch=1 n=c#7 v=64
161699 Par ch=1 c=7 v=83
161708 Par ch=1 c=64 v=0
161746 On ch=1 n=f#5 v=0
161746 On ch=1 n=c#6 v=0
161746 On ch=1 n=d#5 v=0
161748 On ch=1 n=g#3 v=64
161748 On ch=1 n=d#6 v=64
161748 Par ch=1 c=64 v=96
161843 Par ch=1 c=7 v=84
161866 On ch=1 n=d#6 v=0
161868 On ch=1 n=f#6 v=64
161986 On ch=1 n=f#6 v=0
161986 On ch=1 n=g#3 v=0
161986 On ch=1 n=c#7 v=0
161986 On ch=1 n=d#7 v=0
161987 Par ch=1 c=7 v=85
161988 On ch=1 n=c6 v=64
161988 On ch=1 n=d#5 v=64
161988 On ch=1 n=f#5 v=64
161988 On ch=1 n=c7 v=64
161988 On ch=1 n=d#7 v=64
162106 On ch=1 n=c7 v=0
162108 On ch=1 n=d#6 v=64
162131 Par ch=1 c=7 v=86
162226 On ch=1 n=d#6 v=0
162226 On ch=1 n=f#5 v=0
162226 On ch=1 n=d#5 v=0
162226 On ch=1 n=c6 v=0
162228 On ch=1 n=c4 v=64
162228 On ch=1 n=f#6 v=64
162275 Par ch=1 c=7 v=87
162346 On ch=1 n=f#6 v=0
162348 On ch=1 n=a6 v=64
162419 Par ch=1 c=7 v=88
162466 On ch=1 n=c4 v=0
162468 On ch=1 n=g#5 v=64
162468 On ch=1 n=d#5 v=64
162468 On ch=1 n=f#5 v=64
162468 On ch=1 n=d#6 v=64
162468 Par ch=1 c=64 v=0
162563 Par ch=1 c=7 v=89
162586 On ch=1 n=d#6 v=0
162586 On ch=1 n=a6 v=0
162588 On ch=1 n=g#6 v=64
162706 On ch=1 n=g#6 v=0
162706 On ch=1 n=f#5 v=0
162706 On ch=1 n=d#5 v=0
162706 On ch=1 n=g#5 v=0
162706 On ch=1 n=d#7 v=0
162707 Par ch=1 c=7 v=90
162708 On ch=1 n=c#4 v=64
162708 On ch=1 n=f7 v=64
162708 Par ch=1 c=64 v=96
162828 On ch=1 n=f6 v=64
162851 Par ch=1 c=7 v=91
162946 On ch=1 n=f6 v=0
162946 On ch=1 n=c#4 v=0
162948 On ch=1 n=d#6 v=64
162948 On ch=1 n=g#5 v=64
162948 On ch=1 n=f5 v=64
162948 On ch=1 n=g#6 v=64
162995 Par ch=1 c=7 v=92
163066 On ch=1 n=g#6 v=0
163068 On ch=1 n=d#7 v=64
163139 Par ch=1 c=7 v=93
163186 On ch=1 n=f5 v=0
163186 On ch=1 n=g#5 v=0
163186 On ch=1 n=d#6 v=0
163188 On ch=1 n=f4 v=64
163188 On ch=1 n=f6 v=64
163283 Par ch=1 c=7 v=94
163306 On ch=1 n=f6 v=0
163308 On ch=1 n=g#6 v=64
163388 Par ch=1 c=64 v=0
163426 On ch=1 n=g#6 v=0
163426 On ch=1 n=f4 v=0
163426 On ch=1 n=d#7 v=0
163427 Par ch=1 c=7 v=95
163428 On ch=1 n=g#5 v=64
163428 On ch=1 n=f5 v=64
163428 On ch=1 n=c#6 v=64
163428 On ch=1 n=c#7 v=64
163428 Par ch=1 c=64 v=96
163548 On ch=1 n=f6 v=64
163571 Par ch=1 c=7 v=96
163666 On ch=1 n=f6 v=0
163666 On ch=1 n=c#6 v=0
163666 On ch=1 n=f5 v=0
163666 On ch=1 n=g#5 v=0
163668 On ch=1 n=g#4 v=64
163668 On ch=1 n=g#6 v=64
163715 Par ch=1 c=7 v=97
163786 On ch=1 n=g#6 v=0
163786 On ch=1 n=c#7 v=0
163788 On ch=1 n=c7 v=64
163859 Par ch=1 c=7 v=98
163906 On ch=1 n=g#4 v=0
163908 On ch=1 n=c6 v=64
163908 On ch=1 n=g#5 v=64
163908 On ch=1 n=f5 v=64
163908 On ch=1 n=f6 v=64
163908 Par ch=1 c=64 v=0
164003 Par ch=1 c=7 v=99
164026 On ch=1 n=f6 v=0
164028 On ch=1 n=g#6 v=64
164146 On ch=1 n=g#6 v=0
164146 On ch=1 n=f5 v=0
164146 On ch=1 n=g#5 v=0
164146 On ch=1 n=c6 v=0
164146 On ch=1 n=c7 v=0
164146 On ch=1 n=f7 v=0
164147 Par ch=1 c=7 v=100
164148 On ch=1 n=b3 v=64
164148 On ch=1 n=f7 v=64
164148 Par ch=1 c=64 v=96
164268 On ch=1 n=d#6 v=64
164291 Par ch=1 c=7 v=101
164386 On ch=1 n=d#6 v=0
164386 On ch=1 n=b3 v=0
164388 On ch=1 n=g#5 v=64
164388 On ch=1 n=f5 v=64
164388 On ch=1 n=d#5 v=64
164388 On ch=1 n=b5 v=64
164388 On ch=1 n=g#6 v=64
164435 Par ch=1 c=7 v=102
164506 On ch=1 n=g#6 v=0
164508 On ch=1 n=b6 v=64
164579 Par ch=1 c=7 v=103
164626 On ch=1 n=b5 v=0
164626 On ch=1 n=d#5 v=0
164626 On ch=1 n=f5 v=0
164626 On ch=1 n=g#5 v=0
164628 On ch=1 n=f4 v=64
164628 On ch=1 n=d#6 v=64
164723 Par ch=1 c=7 v=104
164746 On ch=1 n=d#6 v=0
164748 On ch=1 n=g#6 v=64
164866 On ch=1 n=g#6 v=0
164866 On ch=1 n=f4 v=0
164866 On ch=1 n=b6 v=0
164866 On ch=1 n=f7 v=0
164867 Par ch=1 c=7 v=105
164868 On ch=1 n=g#5 v=64
164868 On ch=1 n=f5 v=64
164868 On ch=1 n=d#5 v=64
164868 On ch=1 n=b5 v=64
164868 On ch=1 n=f7 v=64
164988 On ch=1 n=d#6 v=64
165011 Par ch=1 c=7 v=106
165106 On ch=1 n=d#6 v=0
165106 On ch=1 n=b5 v=0
165106 On ch=1 n=d#5 v=0
165106 On ch=1 n=f5 v=0
165106 On ch=1 n=g#5 v=0
165108 On ch=1 n=b4 v=64
165108 On ch=1 n=g#6 v=64
165155 Par ch=1 c=7 v=107
165226 On ch=1 n=g#6 v=0
165228 On ch=1 n=b6 v=64
165299 Par ch=1 c=7 v=108
165346 On ch=1 n=b4 v=0
165348 On ch=1 n=g#5 v=64
165348 On ch=1 n=f5 v=64
165348 On ch=1 n=d#5 v=64
165348 On ch=1 n=b5 v=64
165348 On ch=1 n=d#6 v=64
165443 Par ch=1 c=7 v=109
165466 On ch=1 n=d#6 v=0
165468 On ch=1 n=g#6 v=64
165548 Par ch=1 c=64 v=0
165586 On ch=1 n=g#6 v=0
165586 On ch=1 n=b5 v=0
165586 On ch=1 n=d#5 v=0
165586 On ch=1 n=f5 v=0
165586 On ch=1 n=g#5 v=0
165586 On ch=1 n=b6 v=0
165586 On ch=1 n=f7 v=0
165587 Par ch=1 c=7 v=110
165588 Tempo 416667
165588 On ch=1 n=a#3 v=64
165588 On ch=1 n=f7 v=64
165588 Par ch=1 c=64 v=96
165617 Tempo 419580
165647 Tempo 422535
165677 Tempo 425532
165707 Tempo 428571
165708 On ch=1 n=d6 v=64
165731 Par ch=1 c=7 v=111
165737 Tempo 431655
165767 Tempo 434783
165797 Tempo 437956
165826 On ch=1 n=d6 v=0
165826 On ch=1 n=a#3 v=0
165827 Tempo 441176
165828 On ch=1 n=a#5 v=64
165828 On ch=1 n=g#5 v=64
165828 On ch=1 n=f5 v=64
165828 On ch=1 n=d5 v=64
165828 On ch=1 n=a#6 v=64
165828 On ch=1 n=g#6 v=64
165857 Tempo 444444
165875 Par ch=1 c=7 v=112
165887 Tempo 447761
165917 Tempo 451128
165946 On ch=1 n=g#6 v=0
165946 On ch=1 n=a#6 v=0
165947 Tempo 454545
165948 On ch=1 n=f7 v=64
165977 Tempo 458015
166007 Tempo 461538
166019 Par ch=1 c=7 v=113
166037 Tempo 465116
166066 On ch=1 n=d5 v=0
166066 On ch=1 n=f5 v=0
166066 On ch=1 n=g#5 v=0
166066 On ch=1 n=a#5 v=0
166066 On ch=1 n=f7 v=0
166067 Tempo 468750
166068 On ch=1 n=a#3 v=64
166068 On ch=1 n=d6 v=64
166097 Tempo 472441
166127 Tempo 476190
166157 Tempo 480000
166163 Par ch=1 c=7 v=114
166186 On ch=1 n=d6 v=0
166187 Tempo 483871
166188 On ch=1 n=a#6 v=64
166188 On ch=1 n=g#6 v=64
166217 Tempo 487805
166247 Tempo 491803
166268 Par ch=1 c=64 v=0
166277 Tempo 495868
166306 On ch=1 n=g#6 v=0
166306 On ch=1 n=a#6 v=0
166306 On ch=1 n=a#3 v=0
166306 On ch=1 n=f7 v=0
166307 Tempo 500000
166307 Par ch=1 c=7 v=115
166308 On ch=1 n=a#5 v=64
166308 On ch=1 n=g#5 v=64
166308 On ch=1 n=d5 v=64
166308 On ch=1 n=f#5 v=64
166308 On ch=1 n=f#7 v=64
166308 Par ch=1 c=64 v=96
166337 Tempo 504202
166367 Tempo 508475
166397 Tempo 512821
166427 Tempo 517241
166428 On ch=1 n=d6 v=64
166451 Par ch=1 c=7 v=116
166457 Tempo 521739
166487 Tempo 526316
166517 Tempo 530973
166546 On ch=1 n=d6 v=0
166546 On ch=1 n=f#5 v=0
166546 On ch=1 n=d5 v=0
166546 On ch=1 n=g#5 v=0
166546 On ch=1 n=a#5 v=0
166547 Tempo 535714
166548 On ch=1 n=a#3 v=64
166548 On ch=1 n=a#6 v=64
166548 On ch=1 n=g#6 v=64
166577 Tempo 540541
166595 Par ch=1 c=7 v=117
166607 Tempo 545455
166637 Tempo 550459
166666 On ch=1 n=g#6 v=0
166666 On ch=1 n=a#6 v=0
166667 Tempo 555556
166668 On ch=1 n=f#7 v=64
166697 Tempo 560748
166727 Tempo 566038
166739 Par ch=1 c=7 v=118
166757 Tempo 571429
166786 On ch=1 n=a#3 v=0
166786 On ch=1 n=f#7 v=0
166787 Tempo 576923
166788 On ch=1 n=a#5 v=64
166788 On ch=1 n=g#5 v=64
166788 On ch=1 n=d5 v=64
166788 On ch=1 n=f#5 v=64
166788 On ch=1 n=d6 v=64
166817 Tempo 582524
166847 Tempo 588235
166877 Tempo 594059
166883 Par ch=1 c=7 v=119
166906 On ch=1 n=d6 v=0
166907 Tempo 600000
166908 On ch=1 n=a#6 v=64
166908 On ch=1 n=g#6 v=64
166937 Tempo 606061
166967 Tempo 612245
166988 Par ch=1 c=64 v=0
166997 Tempo 618557
167026 On ch=1 n=g#6 v=0
167026 On ch=1 n=a#6 v=0
167026 On ch=1 n=f#5 v=0
167026 On ch=1 n=d5 v=0
167026 On ch=1 n=g#5 v=0
167026 On ch=1 n=a#5 v=0
167026 On ch=1 n=f#7 v=0
167027 Tempo 625000
167027 Par ch=1 c=7 v=120
167028 Tempo 652174
167028 On ch=1 n=g7 v=64
167028 On ch=1 n=d#3 v=64
167028 On ch=1 n=d#4 v=64
167028 On ch=1 n=g6 v=64
167028 Par ch=1 c=64 v=96
167106 On ch=1 n=g7 v=0
167108 On ch=1 n=a#6 v=64
167148 On ch=1 n=g5 v=64
167148 On ch=1 n=a#4 v=64
167148 On ch=1 n=g4 v=64
167186 On ch=1 n=a#6 v=0
167188 On ch=1 n=d#7 v=64
167266 On ch=1 n=d#7 v=0
167266 On ch=1 n=g6 v=0
167266 On ch=1 n=d#4 v=0
167266 On ch=1 n=d#3 v=0
167268 On ch=1 n=f7 v=64
167268 On ch=1 n=f6 v=64
167346 On ch=1 n=f7 v=0
167348 On ch=1 n=g6 v=64
167386 On ch=1 n=g4 v=0
167386 On ch=1 n=a#4 v=0
167386 On ch=1 n=g5 v=0
167388 On ch=1 n=f5 v=64
167388 On ch=1 n=a#4 v=64
167388 On ch=1 n=g4 v=64
167426 On ch=1 n=g6 v=0
167428 On ch=1 n=a#6 v=64
167506 On ch=1 n=a#6 v=0
167506 On ch=1 n=f6 v=0
167508 On ch=1 n=d#7 v=64
167508 On ch=1 n=d#6 v=64
167586 On ch=1 n=d#7 v=0
167588 On ch=1 n=g6 v=64
167626 On ch=1 n=g4 v=0
167626 On ch=1 n=a#4 v=0
167626 On ch=1 n=f5 v=0
167628 On ch=1 n=d#5 v=64
167628 On ch=1 n=a#4 v=64
167628 On ch=1 n=g4 v=64
167666 On ch=1 n=g6 v=0
167668 On ch=1 n=a#6 v=64
167746 On ch=1 n=a#6 v=0
167746 On ch=1 n=d#6 v=0
167748 On ch=1 n=d7 v=64
167748 On ch=1 n=d6 v=64
167826 On ch=1 n=d7 v=0
167828 On ch=1 n=g6 v=64
167866 On ch=1 n=g4 v=0
167866 On ch=1 n=a#4 v=0
167866 On ch=1 n=d#5 v=0
167868 On ch=1 n=a#4 v=64
167868 On ch=1 n=d5 v=64
167868 On ch=1 n=g4 v=64
167906 On ch=1 n=g6 v=0
167908 On ch=1 n=a#6 v=64
167948 Par ch=1 c=64 v=0
167986 On ch=1 n=a#6 v=0
167986 On ch=1 n=g4 v=0
167986 On ch=1 n=d5 v=0
167986 On ch=1 n=a#4 v=0
167986 On ch=1 n=d6 v=0
167988 On ch=1 n=c7 v=64
167988 On ch=1 n=c6 v=64
167988 On ch=1 n=d#3 v=64
167988 On ch=1 n=d#4 v=64
167988 Par ch=1 c=64 v=96
168066 On ch=1 n=c7 v=0
168068 On ch=1 n=d#6 v=64
168108 On ch=1 n=c5 v=64
168108 On ch=1 n=d#4 v=64
168108 On ch=1 n=g4 v=64
168146 On ch=1 n=d#6 v=0
168148 On ch=1 n=g6 v=64
168226 On ch=1 n=g6 v=0
168226 On ch=1 n=d#4 v=0
168226 On ch=1 n=d#3 v=0
168226 On ch=1 n=c6 v=0
168228 On ch=1 n=a5 v=64
168228 On ch=1 n=a6 v=64
168306 On ch=1 n=a6 v=0
168308 On ch=1 n=d#6 v=64
168346 On ch=1 n=g4 v=0
168346 On ch=1 n=d#4 v=0
168346 On ch=1 n=c5 v=0
168348 On ch=1 n=g4 v=64
168348 On ch=1 n=d#4 v=64
168348 On ch=1 n=a4 v=64
168386 On ch=1 n=d#6 v=0
168388 On ch=1 n=g6 v=64
168466 On ch=1 n=g6 v=0
168466 On ch=1 n=a5 v=0
168468 On ch=1 n=a#6 v=64
168468 On ch=1 n=a#5 v=64
168546 On ch=1 n=a#6 v=0
168548 On ch=1 n=d#6 v=64
168586 On ch=1 n=a4 v=0
168586 On ch=1 n=d#4 v=0
168586 On ch=1 n=g4 v=0
168588 On ch=1 n=a#4 v=64
168588 On ch=1 n=g4 v=64
168588 On ch=1 n=d#4 v=64
168626 On ch=1 n=d#6 v=0
168628 On ch=1 n=g6 v=64
168706 On ch=1 n=g6 v=0
168706 On ch=1 n=a#5 v=0
168708 On ch=1 n=g6 v=64
168708 On ch=1 n=g7 v=64
168786 On ch=1 n=g6 v=0
168788 On ch=1 n=a#6 v=64
168826 On ch=1 n=d#4 v=0
168826 On ch=1 n=g4 v=0
168826 On ch=1 n=a#4 v=0
168828 On ch=1 n=g5 v=64
168828 On ch=1 n=d#5 v=64
168828 On ch=1 n=a#4 v=64
168828 On ch=1 n=g4 v=64
168866 On ch=1 n=a#6 v=0
168868 On ch=1 n=d#7 v=64
168908 Par ch=1 c=64 v=0
168946 On ch=1 n=d#7 v=0
168946 On ch=1 n=g4 v=0
168946 On ch=1 n=a#4 v=0
168946 On ch=1 n=d#5 v=0
168946 On ch=1 n=g5 v=0
168946 On ch=1 n=g7 v=0
168948 Par ch=1 c=7 v=120
168948 On ch=1 n=g6 v=64
168948 On ch=1 n=g7 v=64
168948 On ch=1 n=d#3 v=64
168948 On ch=1 n=d#4 v=64
168948 Par ch=1 c=64 v=96
169026 On ch=1 n=g6 v=0
169028 On ch=1 n=b6 v=64
169068 On ch=1 n=g5 v=64
169068 On ch=1 n=d5 v=64
169068 On ch=1 n=g#4 v=64
169068 On ch=1 n=b4 v=64
169106 On ch=1 n=b6 v=0
169108 On ch=1 n=d7 v=64
169186 On ch=1 n=d7 v=0
169186 On ch=1 n=d#4 v=0
169186 On ch=1 n=d#3 v=0
169186 On ch=1 n=g7 v=0
169188 On ch=1 n=e7 v=64
169188 On ch=1 n=e6 v=64
169235 Par ch=1 c=7 v=121
169266 On ch=1 n=e6 v=0
169268 On ch=1 n=b6 v=64
169306 On ch=1 n=b4 v=0
169306 On ch=1 n=g#4 v=0
169306 On ch=1 n=d5 v=0
169306 On ch=1 n=g5 v=0
169308 On ch=1 n=d5 v=64
169308 On ch=1 n=g#4 v=64
169308 On ch=1 n=e5 v=64
169308 On ch=1 n=b4 v=64
169346 On ch=1 n=b6 v=0
169348 On ch=1 n=d7 v=64
169426 On ch=1 n=d7 v=0
169426 On ch=1 n=e7 v=0
169428 On ch=1 n=f6 v=64
169428 On ch=1 n=f7 v=64
169506 On ch=1 n=f6 v=0
169508 On ch=1 n=b6 v=64
169523 Par ch=1 c=7 v=122
169546 On ch=1 n=b4 v=0
169546 On ch=1 n=e5 v=0
169546 On ch=1 n=g#4 v=0
169546 On ch=1 n=d5 v=0
169548 On ch=1 n=f5 v=64
169548 On ch=1 n=d5 v=64
169548 On ch=1 n=g#4 v=64
169548 On ch=1 n=b4 v=64
169586 On ch=1 n=b6 v=0
169588 On ch=1 n=d7 v=64
169666 On ch=1 n=d7 v=0
169666 On ch=1 n=f7 v=0
169668 On ch=1 n=g6 v=64
169668 On ch=1 n=g7 v=64
169746 On ch=1 n=g6 v=0
169748 On ch=1 n=b6 v=64
169786 On ch=1 n=b4 v=0
169786 On ch=1 n=g#4 v=0
169786 On ch=1 n=d5 v=0
169786 On ch=1 n=f5 v=0
169788 On ch=1 n=g5 v=64
169788 On ch=1 n=d5 v=64
169788 On ch=1 n=g#4 v=64
169788 On ch=1 n=b4 v=64
169811 Par ch=1 c=7 v=123
169826 On ch=1 n=b6 v=0
169828 On ch=1 n=d7 v=64
169868 Par ch=1 c=64 v=0
169906 On ch=1 n=d7 v=0
169906 On ch=1 n=b4 v=0
169906 On ch=1 n=g#4 v=0
169906 On ch=1 n=d5 v=0
169906 On ch=1 n=g5 v=0
169906 On ch=1 n=g7 v=0
169908 On ch=1 n=g#6 v=64
169908 On ch=1 n=g#7 v=64
169908 On ch=1 n=d#3 v=64
169908 On ch=1 n=d#4 v=64
169908 Par ch=1 c=64 v=96
169986 On ch=1 n=g#6 v=0
169988 On ch=1 n=d7 v=64
170028 On ch=1 n=g#5 v=64
170028 On ch=1 n=f5 v=64
170028 On ch=1 n=d5 v=64
170028 On ch=1 n=b4 v=64
170066 On ch=1 n=d7 v=0
170068 On ch=1 n=f7 v=64
170099 Par ch=1 c=7 v=124
170146 On ch=1 n=f7 v=0
170146 On ch=1 n=d#4 v=0
170146 On ch=1 n=d#3 v=0
170146 On ch=1 n=g#7 v=0
170148 On ch=1 n=a7 v=64
170148 On ch=1 n=a6 v=64
170226 On ch=1 n=a6 v=0
170228 On ch=1 n=d7 v=64
170266 On ch=1 n=b4 v=0
170266 On ch=1 n=d5 v=0
170266 On ch=1 n=f5 v=0
170266 On ch=1 n=g#5 v=0
170268 On ch=1 n=f5 v=64
170268 On ch=1 n=d5 v=64
170268 On ch=1 n=a5 v=64
170268 On ch=1 n=b4 v=64
170306 On ch=1 n=d7 v=0
170308 On ch=1 n=f7 v=64
170386 On ch=1 n=f7 v=0
170386 On ch=1 n=a7 v=0
170387 Par ch=1 c=7 v=125
170388 Par ch=1 c=7 v=125
170388 On ch=1 n=c7 v=64
170388 On ch=1 n=c8 v=64
170466 On ch=1 n=c7 v=0
170468 On ch=1 n=d7 v=64
170483 Par ch=1 c=7 v=124
170506 On ch=1 n=b4 v=0
170506 On ch=1 n=a5 v=0
170506 On ch=1 n=d5 v=0
170506 On ch=1 n=f5 v=0
170508 On ch=1 n=c6 v=64
170508 On ch=1 n=g#5 v=64
170508 On ch=1 n=f5 v=64
170508 On ch=1 n=d5 v=64
170508 On ch=1 n=a#4 v=64
170546 On ch=1 n=d7 v=0
170548 On ch=1 n=f7 v=64
170579 Par ch=1 c=7 v=123
170626 On ch=1 n=f7 v=0
170626 On ch=1 n=c8 v=0
170628 On ch=1 n=a#6 v=64
170628 On ch=1 n=a#7 v=64
170675 Par ch=1 c=7 v=122
170706 On ch=1 n=a#6 v=0
170708 On ch=1 n=d7 v=64
170746 On ch=1 n=a#4 v=0
170746 On ch=1 n=d5 v=0
170746 On ch=1 n=f5 v=0
170746 On ch=1 n=g#5 v=0
170746 On ch=1 n=c6 v=0
170748 On ch=1 n=a#5 v=64
170748 On ch=1 n=g#5 v=64
170748 On ch=1 n=f5 v=64
170748 On ch=1 n=d5 v=64
170748 On ch=1 n=a#4 v=64
170771 Par ch=1 c=7 v=121
170786 On ch=1 n=d7 v=0
170788 On ch=1 n=f7 v=64
170828 Par ch=1 c=64 v=0
170866 On ch=1 n=f7 v=0
170866 On ch=1 n=a#4 v=0
170866 On ch=1 n=d5 v=0
170866 On ch=1 n=f5 v=0
170866 On ch=1 n=g#5 v=0
170866 On ch=1 n=a#5 v=0
170866 On ch=1 n=a#7 v=0
170867 Par ch=1 c=7 v=120
170868 On ch=1 n=g7 v=64
170868 On ch=1 n=d#3 v=64
170868 On ch=1 n=d#4 v=64
170868 On ch=1 n=g6 v=64
170868 Par ch=1 c=64 v=96
170946 On ch=1 n=g7 v=0
170948 On ch=1 n=a#6 v=64
170988 On ch=1 n=g5 v=64
170988 On ch=1 n=a#4 v=64
170988 On ch=1 n=g4 v=64
171026 On ch=1 n=a#6 v=0
171028 On ch=1 n=d#7 v=64
171106 On ch=1 n=d#7 v=0
171106 On ch=1 n=g6 v=0
171106 On ch=1 n=d#4 v=0
171106 On ch=1 n=d#3 v=0
171108 On ch=1 n=f7 v=64
171108 On ch=1 n=f6 v=64
171186 On ch=1 n=f7 v=0
171188 On ch=1 n=g6 v=64
171226 On ch=1 n=g4 v=0
171226 On ch=1 n=a#4 v=0
171226 On ch=1 n=g5 v=0
171228 On ch=1 n=f5 v=64
171228 On ch=1 n=a#4 v=64
171228 On ch=1 n=g4 v=64
171266 On ch=1 n=g6 v=0
171268 On ch=1 n=a#6 v=64
171346 On ch=1 n=a#6 v=0
171346 On ch=1 n=f6 v=0
171348 On ch=1 n=d#7 v=64
171348 On ch=1 n=d#6 v=64
171426 On ch=1 n=d#7 v=0
171428 On ch=1 n=g6 v=64
171466 On ch=1 n=g4 v=0
171466 On ch=1 n=a#4 v=0
171466 On ch=1 n=f5 v=0
171468 On ch=1 n=d#5 v=64
171468 On ch=1 n=a#4 v=64
171468 On ch=1 n=g4 v=64
171506 On ch=1 n=g6 v=0
171508 On ch=1 n=a#6 v=64
171586 On ch=1 n=a#6 v=0
171586 On ch=1 n=d#6 v=0
171588 On ch=1 n=d7 v=64
171588 On ch=1 n=d6 v=64
171666 On ch=1 n=d7 v=0
171668 On ch=1 n=g6 v=64
171706 On ch=1 n=g4 v=0
171706 On ch=1 n=a#4 v=0
171706 On ch=1 n=d#5 v=0
171708 On ch=1 n=a#4 v=64
171708 On ch=1 n=d5 v=64
171708 On ch=1 n=g4 v=64
171746 On ch=1 n=g6 v=0
171748 On ch=1 n=a#6 v=64
171788 Par ch=1 c=64 v=0
171826 On ch=1 n=a#6 v=0
171826 On ch=1 n=g4 v=0
171826 On ch=1 n=d5 v=0
171826 On ch=1 n=a#4 v=0
171826 On ch=1 n=d6 v=0
171828 On ch=1 n=c7 v=64
171828 On ch=1 n=c6 v=64
171828 On ch=1 n=d#3 v=64
171828 On ch=1 n=d#4 v=64
171828 Par ch=1 c=64 v=96
171906 On ch=1 n=c7 v=0
171908 On ch=1 n=d#6 v=64
171948 On ch=1 n=c5 v=64
171948 On ch=1 n=d#4 v=64
171948 On ch=1 n=g4 v=64
171986 On ch=1 n=d#6 v=0
171988 On ch=1 n=g6 v=64
172066 On ch=1 n=g6 v=0
172066 On ch=1 n=d#4 v=0
172066 On ch=1 n=d#3 v=0
172066 On ch=1 n=c6 v=0
172068 On ch=1 n=a5 v=64
172068 On ch=1 n=a6 v=64
172146 On ch=1 n=a6 v=0
172148 On ch=1 n=d#6 v=64
172186 On ch=1 n=g4 v=0
172186 On ch=1 n=d#4 v=0
172186 On ch=1 n=c5 v=0
172188 On ch=1 n=g4 v=64
172188 On ch=1 n=d#4 v=64
172188 On ch=1 n=a4 v=64
172226 On ch=1 n=d#6 v=0
172228 On ch=1 n=g6 v=64
172306 On ch=1 n=g6 v=0
172306 On ch=1 n=a5 v=0
172308 On ch=1 n=a#6 v=64
172308 On ch=1 n=a#5 v=64
172386 On ch=1 n=a#6 v=0
172388 On ch=1 n=d#6 v=64
172426 On ch=1 n=a4 v=0
172426 On ch=1 n=d#4 v=0
172426 On ch=1 n=g4 v=0
172428 On ch=1 n=a#4 v=64
172428 On ch=1 n=g4 v=64
172428 On ch=1 n=d#4 v=64
172466 On ch=1 n=d#6 v=0
172468 On ch=1 n=g6 v=64
172546 On ch=1 n=g6 v=0
172546 On ch=1 n=a#5 v=0
172548 On ch=1 n=g6 v=64
172548 On ch=1 n=g7 v=64
172626 On ch=1 n=g6 v=0
172628 On ch=1 n=a#6 v=64
172666 On ch=1 n=d#4 v=0
172666 On ch=1 n=g4 v=0
172666 On ch=1 n=a#4 v=0
172668 On ch=1 n=g5 v=64
172668 On ch=1 n=d#5 v=64
172668 On ch=1 n=a#4 v=64
172668 On ch=1 n=g4 v=64
172706 On ch=1 n=a#6 v=0
172708 On ch=1 n=d#7 v=64
172748 Par ch=1 c=64 v=0
172786 On ch=1 n=d#7 v=0
172786 On ch=1 n=g4 v=0
172786 On ch=1 n=a#4 v=0
172786 On ch=1 n=d#5 v=0
172786 On ch=1 n=g5 v=0
172786 On ch=1 n=g7 v=0
172788 Par ch=1 c=7 v=120
172788 On ch=1 n=g6 v=64
172788 On ch=1 n=d3 v=64
172788 On ch=1 n=d4 v=64
172788 On ch=1 n=g7 v=64
172788 Par ch=1 c=64 v=96
172866 On ch=1 n=g6 v=0
172868 On ch=1 n=a6 v=64
172883 Par ch=1 c=7 v=121
172908 On ch=1 n=g5 v=64
172908 On ch=1 n=c5 v=64
172908 On ch=1 n=a4 v=64
172946 On ch=1 n=a6 v=0
172948 On ch=1 n=c7 v=64
172979 Par ch=1 c=7 v=122
173026 On ch=1 n=c7 v=0
173026 On ch=1 n=g7 v=0
173026 On ch=1 n=d4 v=0
173026 On ch=1 n=d3 v=0
173028 On ch=1 n=f#6 v=64
173028 On ch=1 n=f#7 v=64
173075 Par ch=1 c=7 v=123
173106 On ch=1 n=f#6 v=0
173108 On ch=1 n=a6 v=64
173146 On ch=1 n=a4 v=0
173146 On ch=1 n=c5 v=0
173146 On ch=1 n=g5 v=0
173148 On ch=1 n=c5 v=64
173148 On ch=1 n=f#5 v=64
173148 On ch=1 n=a4 v=64
173171 Par ch=1 c=7 v=124
173186 On ch=1 n=a6 v=0
173188 On ch=1 n=c7 v=64
173266 On ch=1 n=c7 v=0
173266 On ch=1 n=f#7 v=0
173267 Par ch=1 c=7 v=125
173268 Par ch=1 c=7 v=125
173268 On ch=1 n=d#7 v=64
173268 On ch=1 n=d#8 v=64
173346 On ch=1 n=d#7 v=0
173348 On ch=1 n=f#7 v=64
173363 Par ch=1 c=7 v=124
173386 On ch=1 n=a4 v=0
173386 On ch=1 n=f#5 v=0
173386 On ch=1 n=c5 v=0
173388 On ch=1 n=d#6 v=64
173388 On ch=1 n=a5 v=64
173388 On ch=1 n=f#5 v=64
173426 On ch=1 n=f#7 v=0
173428 On ch=1 n=a7 v=64
173459 Par ch=1 c=7 v=123
173506 On ch=1 n=a7 v=0
173506 On ch=1 n=d#8 v=0
173508 On ch=1 n=d7 v=64
173508 On ch=1 n=d8 v=64
173555 Par ch=1 c=7 v=122
173586 On ch=1 n=d7 v=0
173588 On ch=1 n=f#7 v=64
173626 On ch=1 n=f#5 v=0
173626 On ch=1 n=a5 v=0
173626 On ch=1 n=d#6 v=0
173628 On ch=1 n=d6 v=64
173628 On ch=1 n=a5 v=64
173628 On ch=1 n=f#5 v=64
173651 Par ch=1 c=7 v=121
173666 On ch=1 n=f#7 v=0
173668 On ch=1 n=a7 v=64
173708 Par ch=1 c=64 v=0
173746 On ch=1 n=a7 v=0
173746 On ch=1 n=f#5 v=0
173746 On ch=1 n=a5 v=0
173746 On ch=1 n=d6 v=0
173746 On ch=1 n=d8 v=0
173747 Par ch=1 c=7 v=120
173748 On ch=1 n=d7 v=64
173748 On ch=1 n=d8 v=64
173748 On ch=1 n=g4 v=64
173748 On ch=1 n=g3 v=64
173748 Par ch=1 c=64 v=96
173826 On ch=1 n=d7 v=0
173828 On ch=1 n=g7 v=64
173868 On ch=1 n=d6 v=64
173868 On ch=1 n=g5 v=64
173868 On ch=1 n=b5 v=64
173906 On ch=1 n=g7 v=0
173908 On ch=1 n=b7 v=64
173986 On ch=1 n=b7 v=0
173986 On ch=1 n=g3 v=0
173986 On ch=1 n=g4 v=0
173986 On ch=1 n=d8 v=0
173988 On ch=1 n=b6 v=64
173988 On ch=1 n=b7 v=64
174066 On ch=1 n=b6 v=0
174068 On ch=1 n=d7 v=64
174106 On ch=1 n=b5 v=0
174106 On ch=1 n=g5 v=0
174106 On ch=1 n=d6 v=0
174108 On ch=1 n=g5 v=64
174108 On ch=1 n=d5 v=64
174108 On ch=1 n=b5 v=64
174146 On ch=1 n=d7 v=0
174148 On ch=1 n=g7 v=64
174226 On ch=1 n=g7 v=0
174226 On ch=1 n=b7 v=0
174228 Par ch=1 c=7 v=120
174228 On ch=1 n=g6 v=64
174228 On ch=1 n=g7 v=64
174306 On ch=1 n=g6 v=0
174308 On ch=1 n=b6 v=64
174323 Par ch=1 c=7 v=121
174346 On ch=1 n=b5 v=0
174346 On ch=1 n=d5 v=0
174346 On ch=1 n=g5 v=0
174348 On ch=1 n=g5 v=64
174348 On ch=1 n=d5 v=64
174348 On ch=1 n=b4 v=64
174386 On ch=1 n=b6 v=0
174388 On ch=1 n=d7 v=64
174419 Par ch=1 c=7 v=122
174466 On ch=1 n=d7 v=0
174466 On ch=1 n=g7 v=0
174468 On ch=1 n=g6 v=64
174468 On ch=1 n=g7 v=64
174468 Par ch=1 c=64 v=0
174515 Par ch=1 c=7 v=123
174546 On ch=1 n=g6 v=0
174548 On ch=1 n=b6 v=64
174586 On ch=1 n=b4 v=0
174586 On ch=1 n=d5 v=0
174586 On ch=1 n=g5 v=0
174588 On ch=1 n=g5 v=64
174588 On ch=1 n=g4 v=64
174588 On ch=1 n=d5 v=64
174588 On ch=1 n=b4 v=64
174611 Par ch=1 c=7 v=124
174626 On ch=1 n=b6 v=0
174628 On ch=1 n=d7 v=64
174706 On ch=1 n=d7 v=0
174706 On ch=1 n=b4 v=0
174706 On ch=1 n=d5 v=0
174706 On ch=1 n=g4 v=0
174706 On ch=1 n=g5 v=0
174706 On ch=1 n=g7 v=0
174707 Par ch=1 c=7 v=125
174708 On ch=1 n=g#6 v=64
174708 On ch=1 n=g3 v=64
174708 On ch=1 n=g#7 v=64
174708 Par ch=1 c=64 v=96
174786 On ch=1 n=g#6 v=0
174788 On ch=1 n=c7 v=64
174828 On ch=1 n=g#5 v=64
174828 On ch=1 n=d#5 v=64
174828 On ch=1 n=c5 v=64
174866 On ch=1 n=c7 v=0
174868 On ch=1 n=d#7 v=64
174946 On ch=1 n=d#7 v=0
174946 On ch=1 n=g#7 v=0
174946 On ch=1 n=g3 v=0
174948 On ch=1 n=g6 v=64
174948 On ch=1 n=g7 v=64
175026 On ch=1 n=g6 v=0
175028 On ch=1 n=c7 v=64
175066 On ch=1 n=c5 v=0
175066 On ch=1 n=d#5 v=0
175066 On ch=1 n=g#5 v=0
175068 On ch=1 n=g5 v=64
175068 On ch=1 n=d#5 v=64
175068 On ch=1 n=c5 v=64
175106 On ch=1 n=c7 v=0
175108 On ch=1 n=d#7 v=64
175186 On ch=1 n=d#7 v=0
175186 On ch=1 n=g7 v=0
175188 On ch=1 n=f6 v=64
175188 On ch=1 n=f7 v=64
175266 On ch=1 n=f6 v=0
175268 On ch=1 n=g6 v=64
175306 On ch=1 n=c5 v=0
175306 On ch=1 n=d#5 v=0
175306 On ch=1 n=g5 v=0
175308 On ch=1 n=f5 v=64
175308 On ch=1 n=c5 v=64
175308 On ch=1 n=g4 v=64
175346 On ch=1 n=g6 v=0
175348 On ch=1 n=c7 v=64
175426 On ch=1 n=c7 v=0
175426 On ch=1 n=f7 v=0
175428 On ch=1 n=d#6 v=64
175428 On ch=1 n=d#7 v=64
175506 On ch=1 n=d#6 v=0
175508 On ch=1 n=g6 v=64
175546 On ch=1 n=g4 v=0
175546 On ch=1 n=c5 v=0
175546 On ch=1 n=f5 v=0
175548 On ch=1 n=d#5 v=64
175548 On ch=1 n=c5 v=64
175548 On ch=1 n=g4 v=64
175586 On ch=1 n=g6 v=0
175588 On ch=1 n=c7 v=64
175628 Par ch=1 c=64 v=0
175666 On ch=1 n=c7 v=0
175666 On ch=1 n=g4 v=0
175666 On ch=1 n=c5 v=0
175666 On ch=1 n=d#5 v=0
175666 On ch=1 n=d#7 v=0
175668 Par ch=1 c=7 v=125
175668 On ch=1 n=d#6 v=64
175668 On ch=1 n=d#7 v=64
175668 On ch=1 n=f3 v=64
175668 Par ch=1 c=64 v=96
175746 On ch=1 n=d#6 v=0
175748 On ch=1 n=g#6 v=64
175763 Par ch=1 c=7 v=124
175788 On ch=1 n=d#5 v=64
175788 On ch=1 n=c5 v=64
175788 On ch=1 n=g#4 v=64
175788 On ch=1 n=f4 v=64
175826 On ch=1 n=g#6 v=0
175828 On ch=1 n=c7 v=64
175859 Par ch=1 c=7 v=123
175906 On ch=1 n=c7 v=0
175906 On ch=1 n=f3 v=0
175906 On ch=1 n=d#7 v=0
175908 On ch=1 n=d6 v=64
175908 On ch=1 n=d7 v=64
175955 Par ch=1 c=7 v=122
175986 On ch=1 n=d6 v=0
175988 On ch=1 n=g#6 v=64
176026 On ch=1 n=f4 v=0
176026 On ch=1 n=g#4 v=0
176026 On ch=1 n=c5 v=0
176026 On ch=1 n=d#5 v=0
176028 On ch=1 n=d5 v=64
176028 On ch=1 n=c5 v=64
176028 On ch=1 n=g#4 v=64
176028 On ch=1 n=f4 v=64
176051 Par ch=1 c=7 v=121
176066 On ch=1 n=g#6 v=0
176068 On ch=1 n=c7 v=64
176146 On ch=1 n=c7 v=0
176146 On ch=1 n=d7 v=0
176147 Par ch=1 c=7 v=120
176148 On ch=1 n=d6 v=64
176148 On ch=1 n=d7 v=64
176226 On ch=1 n=d6 v=0
176228 On ch=1 n=g#6 v=64
176266 On ch=1 n=f4 v=0
176266 On ch=1 n=g#4 v=0
176266 On ch=1 n=c5 v=0
176266 On ch=1 n=d5 v=0
176268 On ch=1 n=d5 v=64
176268 On ch=1 n=c5 v=64
176268 On ch=1 n=g#4 v=64
176306 On ch=1 n=g#6 v=0
176308 On ch=1 n=c7 v=64
176386 On ch=1 n=c7 v=0
176386 On ch=1 n=d7 v=0
176388 On ch=1 n=d6 v=64
176388 On ch=1 n=d7 v=64
176408 Par ch=1 c=64 v=0
176466 On ch=1 n=d6 v=0
176468 On ch=1 n=g#6 v=64
176506 On ch=1 n=g#4 v=0
176506 On ch=1 n=c5 v=0
176506 On ch=1 n=d5 v=0
176508 On ch=1 n=d5 v=64
176508 On ch=1 n=c5 v=64
176508 On ch=1 n=g#4 v=64
176508 On ch=1 n=f4 v=64
176546 On ch=1 n=g#6 v=0
176548 On ch=1 n=c7 v=64
176626 On ch=1 n=c7 v=0
176626 On ch=1 n=f4 v=0
176626 On ch=1 n=g#4 v=0
176626 On ch=1 n=c5 v=0
176626 On ch=1 n=d5 v=0
176626 On ch=1 n=d7 v=0
176628 On ch=1 n=d#6 v=64
176628 On ch=1 n=d#7 v=64
176628 On ch=1 n=g3 v=64
176628 Par ch=1 c=64 v=96
176706 On ch=1 n=d#6 v=0
176708 On ch=1 n=g6 v=64
176748 On ch=1 n=d#5 v=64
176748 On ch=1 n=g4 v=64
176748 On ch=1 n=b4 v=64
176786 On ch=1 n=g6 v=0
176788 On ch=1 n=b6 v=64
176866 On ch=1 n=b6 v=0
176866 On ch=1 n=g3 v=0
176866 On ch=1 n=d#7 v=0
176868 On ch=1 n=d6 v=64
176868 On ch=1 n=d7 v=64
176946 On ch=1 n=d6 v=0
176948 On ch=1 n=g6 v=64
176986 On ch=1 n=b4 v=0
176986 On ch=1 n=g4 v=0
176986 On ch=1 n=d#5 v=0
176988 On ch=1 n=d5 v=64
176988 On ch=1 n=g4 v=64
176988 On ch=1 n=b4 v=64
177026 On ch=1 n=g6 v=0
177028 On ch=1 n=b6 v=64
177106 On ch=1 n=b6 v=0
177106 On ch=1 n=d7 v=0
177108 On ch=1 n=c6 v=64
177108 On ch=1 n=c7 v=64
177186 On ch=1 n=c6 v=0
177188 On ch=1 n=d6 v=64
177226 On ch=1 n=b4 v=0
177226 On ch=1 n=g4 v=0
177226 On ch=1 n=d5 v=0
177228 On ch=1 n=c5 v=64
177228 On ch=1 n=g4 v=64
177228 On ch=1 n=d4 v=64
177266 On ch=1 n=d6 v=0
177268 On ch=1 n=g6 v=64
177346 On ch=1 n=g6 v=0
177346 On ch=1 n=c7 v=0
177348 On ch=1 n=b5 v=64
177348 On ch=1 n=b6 v=64
177426 On ch=1 n=b5 v=0
177428 On ch=1 n=d6 v=64
177466 On ch=1 n=d4 v=0
177466 On ch=1 n=g4 v=0
177466 On ch=1 n=c5 v=0
177468 On ch=1 n=g4 v=64
177468 On ch=1 n=d4 v=64
177468 On ch=1 n=b4 v=64
177506 On ch=1 n=d6 v=0
177508 On ch=1 n=g6 v=64
177548 Par ch=1 c=64 v=0
177586 On ch=1 n=g6 v=0
177586 On ch=1 n=b4 v=0
177586 On ch=1 n=d4 v=0
177586 On ch=1 n=g4 v=0
177586 On ch=1 n=b6 v=0
177588 Par ch=1 c=7 v=120
177588 On ch=1 n=g#5 v=64
177588 On ch=1 n=g#6 v=64
177588 Par ch=1 c=64 v=96
177666 On ch=1 n=g#5 v=0
177668 On ch=1 n=b5 v=64
177683 Par ch=1 c=7 v=119
177708 On ch=1 n=g#4 v=64
177708 On ch=1 n=d4 v=64
177708 On ch=1 n=b3 v=64
177746 On ch=1 n=b5 v=0
177748 On ch=1 n=d6 v=64
177779 Par ch=1 c=7 v=118
177826 On ch=1 n=d6 v=0
177826 On ch=1 n=g#6 v=0
177828 On ch=1 n=g5 v=64
177828 On ch=1 n=g6 v=64
177875 Par ch=1 c=7 v=117
177906 On ch=1 n=g5 v=0
177908 On ch=1 n=b5 v=64
177946 On ch=1 n=b3 v=0
177946 On ch=1 n=d4 v=0
177946 On ch=1 n=g#4 v=0
177948 On ch=1 n=g4 v=64
177948 On ch=1 n=d4 v=64
177948 On ch=1 n=b3 v=64
177971 Par ch=1 c=7 v=116
177986 On ch=1 n=b5 v=0
177988 On ch=1 n=d6 v=64
178066 On ch=1 n=d6 v=0
178066 On ch=1 n=g6 v=0
178067 Par ch=1 c=7 v=115
178068 On ch=1 n=g5 v=64
178068 On ch=1 n=g6 v=64
178146 On ch=1 n=g5 v=0
178148 On ch=1 n=b5 v=64
178186 On ch=1 n=b3 v=0
178186 On ch=1 n=d4 v=0
178186 On ch=1 n=g4 v=0
178188 On ch=1 n=g4 v=64
178188 On ch=1 n=d4 v=64
178188 On ch=1 n=b3 v=64
178226 On ch=1 n=b5 v=0
178228 On ch=1 n=d6 v=64
178306 On ch=1 n=d6 v=0
178306 On ch=1 n=g6 v=0
178308 On ch=1 n=g5 v=64
178308 On ch=1 n=g6 v=64
178328 Par ch=1 c=64 v=0
178386 On ch=1 n=g5 v=0
178388 On ch=1 n=b5 v=64
178426 On ch=1 n=b3 v=0
178426 On ch=1 n=d4 v=0
178426 On ch=1 n=g4 v=0
178428 On ch=1 n=g4 v=64
178428 On ch=1 n=d4 v=64
178428 On ch=1 n=b3 v=64
178466 On ch=1 n=b5 v=0
178468 On ch=1 n=d6 v=64
178546 On ch=1 n=d6 v=0
178546 On ch=1 n=b3 v=0
178546 On ch=1 n=d4 v=0
178546 On ch=1 n=g4 v=0
178546 On ch=1 n=g6 v=0
178548 Tempo 625000
178548 Par ch=1 c=7 v=115
178548 On ch=1 n=a#5 v=64
178548 On ch=1 n=a#6 v=64
178548 On ch=1 n=g2 v=64
178548 Par ch=1 c=64 v=96
178626 On ch=1 n=a#5 v=0
178628 On ch=1 n=c6 v=64
178652 Par ch=1 c=7 v=114
178668 On ch=1 n=a#4 v=64
178668 On ch=1 n=d#4 v=64
178668 On ch=1 n=c4 v=64
178706 On ch=1 n=c6 v=0
178708 On ch=1 n=d#6 v=64
178757 Par ch=1 c=7 v=113
178786 On ch=1 n=d#6 v=0
178786 On ch=1 n=g2 v=0
178786 On ch=1 n=a#6 v=0
178788 On ch=1 n=g#5 v=64
178788 On ch=1 n=g#6 v=64
178862 Par ch=1 c=7 v=112
178866 On ch=1 n=g#5 v=0
178868 On ch=1 n=c6 v=64
178906 On ch=1 n=c4 v=0
178906 On ch=1 n=d#4 v=0
178906 On ch=1 n=a#4 v=0
178908 On ch=1 n=g#4 v=64
178908 On ch=1 n=d#4 v=64
178908 On ch=1 n=c4 v=64
178946 On ch=1 n=c6 v=0
178948 On ch=1 n=d#6 v=64
178966 Par ch=1 c=7 v=111
179026 On ch=1 n=d#6 v=0
179026 On ch=1 n=g#6 v=0
179028 On ch=1 n=g5 v=64
179028 On ch=1 n=g6 v=64
179071 Par ch=1 c=7 v=110
179106 On ch=1 n=g5 v=0
179108 On ch=1 n=c6 v=64
179146 On ch=1 n=c4 v=0
179146 On ch=1 n=d#4 v=0
179146 On ch=1 n=g#4 v=0
179147 Tempo 631579
179148 On ch=1 n=g4 v=64
179148 On ch=1 n=d#4 v=64
179148 On ch=1 n=c4 v=64
179148 On ch=1 n=g3 v=64
179176 Par ch=1 c=7 v=109
179186 On ch=1 n=c6 v=0
179188 On ch=1 n=d#6 v=64
179266 On ch=1 n=d#6 v=0
179266 On ch=1 n=g6 v=0
179268 On ch=1 n=f5 v=64
179268 On ch=1 n=f6 v=64
179280 Par ch=1 c=7 v=108
179346 On ch=1 n=f5 v=0
179348 On ch=1 n=g5 v=64
179385 Par ch=1 c=7 v=107
179386 On ch=1 n=g3 v=0
179386 On ch=1 n=c4 v=0
179386 On ch=1 n=d#4 v=0
179386 On ch=1 n=g4 v=0
179388 On ch=1 n=f4 v=64
179388 On ch=1 n=c4 v=64
179388 On ch=1 n=g3 v=64
179426 On ch=1 n=g5 v=0
179428 On ch=1 n=c6 v=64
179468 Par ch=1 c=64 v=0
179490 Par ch=1 c=7 v=106
179506 On ch=1 n=c6 v=0
179506 On ch=1 n=g3 v=0
179506 On ch=1 n=c4 v=0
179506 On ch=1 n=f4 v=0
179506 On ch=1 n=f6 v=0
179508 On ch=1 n=d#5 v=64
179508 On ch=1 n=d#6 v=64
179508 On ch=1 n=f2 v=64
179508 Par ch=1 c=64 v=96
179586 On ch=1 n=d#5 v=0
179588 On ch=1 n=g#5 v=64
179595 Par ch=1 c=7 v=105
179628 On ch=1 n=d#4 v=64
179628 On ch=1 n=c4 v=64
179628 On ch=1 n=g#3 v=64
179628 On ch=1 n=f3 v=64
179666 On ch=1 n=g#5 v=0
179668 On ch=1 n=c6 v=64
179699 Par ch=1 c=7 v=104
179746 On ch=1 n=c6 v=0
179746 On ch=1 n=f2 v=0
179746 On ch=1 n=d#6 v=0
179747 Tempo 638298
179748 On ch=1 n=d5 v=64
179748 On ch=1 n=d6 v=64
179804 Par ch=1 c=7 v=103
179826 On ch=1 n=d5 v=0
179828 On ch=1 n=g#5 v=64
179866 On ch=1 n=f3 v=0
179866 On ch=1 n=g#3 v=0
179866 On ch=1 n=c4 v=0
179866 On ch=1 n=d#4 v=0
179868 On ch=1 n=d4 v=64
179868 On ch=1 n=c4 v=64
179868 On ch=1 n=g#3 v=64
179868 On ch=1 n=f3 v=64
179906 On ch=1 n=g#5 v=0
179908 On ch=1 n=c6 v=64
179909 Par ch=1 c=7 v=102
179986 On ch=1 n=c6 v=0
179986 On ch=1 n=d6 v=0
179988 On ch=1 n=d5 v=64
179988 On ch=1 n=d6 v=64
180013 Par ch=1 c=7 v=101
180066 On ch=1 n=d5 v=0
180068 On ch=1 n=g#5 v=64
180106 On ch=1 n=f3 v=0
180106 On ch=1 n=g#3 v=0
180106 On ch=1 n=c4 v=0
180106 On ch=1 n=d4 v=0
180108 On ch=1 n=d4 v=64
180108 On ch=1 n=c4 v=64
180108 On ch=1 n=g#3 v=64
180118 Par ch=1 c=7 v=100
180146 On ch=1 n=g#5 v=0
180148 On ch=1 n=c6 v=64
180223 Par ch=1 c=7 v=99
180226 On ch=1 n=c6 v=0
180226 On ch=1 n=d6 v=0
180228 On ch=1 n=d5 v=64
180228 On ch=1 n=d6 v=64
180248 Par ch=1 c=64 v=0
180306 On ch=1 n=d5 v=0
180308 On ch=1 n=g#5 v=64
180328 Par ch=1 c=7 v=98
180346 On ch=1 n=g#3 v=0
180346 On ch=1 n=c4 v=0
180346 On ch=1 n=d4 v=0
180347 Tempo 645161
180348 On ch=1 n=d4 v=64
180348 On ch=1 n=c4 v=64
180348 On ch=1 n=g#3 v=64
180348 On ch=1 n=f3 v=64
180386 On ch=1 n=g#5 v=0
180388 On ch=1 n=c6 v=64
180432 Par ch=1 c=7 v=97
180466 On ch=1 n=c6 v=0
180466 On ch=1 n=f3 v=0
180466 On ch=1 n=g#3 v=0
180466 On ch=1 n=c4 v=0
180466 On ch=1 n=d4 v=0
180466 On ch=1 n=d6 v=0
180468 On ch=1 n=d#5 v=64
180468 On ch=1 n=d#6 v=64
180468 On ch=1 n=g2 v=64
180468 Par ch=1 c=64 v=96
180537 Par ch=1 c=7 v=96
180546 On ch=1 n=d#5 v=0
180548 On ch=1 n=g5 v=64
180588 On ch=1 n=d#4 v=64
180588 On ch=1 n=g3 v=64
180588 On ch=1 n=b3 v=64
180626 On ch=1 n=g5 v=0
180628 On ch=1 n=b5 v=64
180642 Par ch=1 c=7 v=95
180706 On ch=1 n=b5 v=0
180706 On ch=1 n=g2 v=0
180706 On ch=1 n=d#6 v=0
180708 On ch=1 n=d5 v=64
180708 On ch=1 n=d6 v=64
180746 Par ch=1 c=7 v=94
180786 On ch=1 n=d5 v=0
180788 On ch=1 n=g5 v=64
180826 On ch=1 n=b3 v=0
180826 On ch=1 n=g3 v=0
180826 On ch=1 n=d#4 v=0
180828 On ch=1 n=d4 v=64
180828 On ch=1 n=g3 v=64
180828 On ch=1 n=b3 v=64
180851 Par ch=1 c=7 v=93
180866 On ch=1 n=g5 v=0
180868 On ch=1 n=b5 v=64
180946 On ch=1 n=b5 v=0
180946 On ch=1 n=d6 v=0
180947 Tempo 652174
180948 On ch=1 n=c5 v=64
180948 On ch=1 n=c6 v=64
180956 Par ch=1 c=7 v=92
181026 On ch=1 n=c5 v=0
181028 On ch=1 n=d#5 v=64
181061 Par ch=1 c=7 v=91
181066 On ch=1 n=b3 v=0
181066 On ch=1 n=g3 v=0
181066 On ch=1 n=d4 v=0
181068 On ch=1 n=g4 v=64
181068 On ch=1 n=d#4 v=64
181106 On ch=1 n=d#5 v=0
181108 On ch=1 n=g5 v=64
181165 Par ch=1 c=7 v=90
181186 On ch=1 n=g5 v=0
181186 On ch=1 n=c6 v=0
181188 On ch=1 n=b4 v=64
181188 On ch=1 n=b5 v=64
181266 On ch=1 n=b4 v=0
181268 On ch=1 n=d5 v=64
181270 Par ch=1 c=7 v=89
181306 On ch=1 n=d#4 v=0
181306 On ch=1 n=g4 v=0
181308 On ch=1 n=g4 v=64
181308 On ch=1 n=d4 v=64
181346 On ch=1 n=d5 v=0
181348 On ch=1 n=g5 v=64
181375 Par ch=1 c=7 v=88
181385 Par ch=1 c=64 v=0
181423 On ch=1 n=g5 v=0
181423 On ch=1 n=d4 v=0
181423 On ch=1 n=g4 v=0
181423 On ch=1 n=b5 v=0
181425 On ch=1 n=a#4 v=64
181425 On ch=1 n=c#3 v=64
181425 On ch=1 n=a#5 v=64
181425 Par ch=1 c=64 v=96
181476 Par ch=1 c=7 v=87
181503 On ch=1 n=a#4 v=0
181505 On ch=1 n=c#5 v=64
181544 Tempo 659341
181545 On ch=1 n=f4 v=64
181545 On ch=1 n=c#4 v=64
181581 Par ch=1 c=7 v=86
181583 On ch=1 n=c#5 v=0
181585 On ch=1 n=f5 v=64
181663 On ch=1 n=f5 v=0
181663 On ch=1 n=a#5 v=0
181663 On ch=1 n=c#3 v=0
181665 On ch=1 n=g#4 v=64
181665 On ch=1 n=g#5 v=64
181686 Par ch=1 c=7 v=85
181743 On ch=1 n=g#4 v=0
181745 On ch=1 n=c#5 v=64
181783 On ch=1 n=c#4 v=0
181783 On ch=1 n=f4 v=0
181785 On ch=1 n=f4 v=64
181785 On ch=1 n=c#4 v=64
181790 Par ch=1 c=7 v=84
181823 On ch=1 n=c#5 v=0
181825 On ch=1 n=f5 v=64
181895 Par ch=1 c=7 v=83
181903 On ch=1 n=f5 v=0
181903 On ch=1 n=c#4 v=0
181903 On ch=1 n=f4 v=0
181903 On ch=1 n=g#5 v=0
181905 On ch=1 n=g4 v=64
181905 On ch=1 n=g5 v=64
181983 On ch=1 n=g4 v=0
181985 On ch=1 n=g#4 v=64
182000 Par ch=1 c=7 v=82
182005 Par ch=1 c=64 v=0
182025 On ch=1 n=c#4 v=64
182025 On ch=1 n=g#3 v=64
182025 On ch=1 n=e3 v=64
182025 Par ch=1 c=64 v=96
182063 On ch=1 n=g#4 v=0
182065 On ch=1 n=c#5 v=64
182105 Par ch=1 c=7 v=81
182143 On ch=1 n=c#5 v=0
182143 On ch=1 n=g5 v=0
182144 Tempo 666667
182145 On ch=1 n=f4 v=64
182145 On ch=1 n=f5 v=64
182209 Par ch=1 c=7 v=80
182223 On ch=1 n=f4 v=0
182225 On ch=1 n=g#4 v=64
182263 On ch=1 n=e3 v=0
182263 On ch=1 n=g#3 v=0
182263 On ch=1 n=c#4 v=0
182265 On ch=1 n=f3 v=64
182265 On ch=1 n=g#3 v=64
182265 On ch=1 n=c#4 v=64
182265 Par ch=1 c=64 v=0
182303 On ch=1 n=g#4 v=0
182305 On ch=1 n=c#5 v=64
182314 Par ch=1 c=7 v=79
182383 On ch=1 n=c#5 v=0
182383 On ch=1 n=c#4 v=0
182383 On ch=1 n=g#3 v=0
182383 On ch=1 n=f3 v=0
182383 On ch=1 n=f5 v=0
182385 On ch=1 n=d#5 v=64
182385 On ch=1 n=d#6 v=64
182385 On ch=1 n=g2 v=64
182385 Par ch=1 c=64 v=96
182419 Par ch=1 c=7 v=78
182463 On ch=1 n=d#5 v=0
182465 On ch=1 n=g5 v=64
182505 On ch=1 n=d#4 v=64
182505 On ch=1 n=g3 v=64
182505 On ch=1 n=b3 v=64
182523 Par ch=1 c=7 v=77
182543 On ch=1 n=g5 v=0
182545 On ch=1 n=b5 v=64
182623 On ch=1 n=b5 v=0
182623 On ch=1 n=g2 v=0
182623 On ch=1 n=d#6 v=0
182625 On ch=1 n=d5 v=64
182625 On ch=1 n=d6 v=64
182628 Par ch=1 c=7 v=76
182703 On ch=1 n=d5 v=0
182705 On ch=1 n=g5 v=64
182733 Par ch=1 c=7 v=75
182743 On ch=1 n=b3 v=0
182743 On ch=1 n=g3 v=0
182743 On ch=1 n=d#4 v=0
182744 Tempo 674157
182745 On ch=1 n=d4 v=64
182745 On ch=1 n=g3 v=64
182745 On ch=1 n=b3 v=64
182783 On ch=1 n=g5 v=0
182785 On ch=1 n=b5 v=64
182838 Par ch=1 c=7 v=74
182863 On ch=1 n=b5 v=0
182863 On ch=1 n=d6 v=0
182865 On ch=1 n=c5 v=64
182865 On ch=1 n=c6 v=64
182942 Par ch=1 c=7 v=73
182943 On ch=1 n=c5 v=0
182945 On ch=1 n=d#5 v=64
182983 On ch=1 n=b3 v=0
182983 On ch=1 n=g3 v=0
182983 On ch=1 n=d4 v=0
182985 On ch=1 n=g4 v=64
182985 On ch=1 n=d#4 v=64
183023 On ch=1 n=d#5 v=0
183025 On ch=1 n=g5 v=64
183047 Par ch=1 c=7 v=72
183103 On ch=1 n=g5 v=0
183103 On ch=1 n=c6 v=0
183105 On ch=1 n=b5 v=64
183105 On ch=1 n=b4 v=64
183152 Par ch=1 c=7 v=71
183183 On ch=1 n=b4 v=0
183185 On ch=1 n=d5 v=64
183223 On ch=1 n=d#4 v=0
183223 On ch=1 n=g4 v=0
183225 On ch=1 n=g4 v=64
183225 On ch=1 n=d4 v=64
183256 Par ch=1 c=7 v=70
183263 On ch=1 n=d5 v=0
183265 On ch=1 n=g5 v=64
183305 Par ch=1 c=64 v=0
183343 On ch=1 n=g5 v=0
183343 On ch=1 n=d4 v=0
183343 On ch=1 n=g4 v=0
183343 On ch=1 n=b5 v=0
183344 Tempo 681818
183345 Tempo 681818
183345 On ch=1 n=a#4 v=64
183345 On ch=1 n=c#3 v=64
183345 On ch=1 n=a#5 v=64
183345 Par ch=1 c=64 v=96
183361 Par ch=1 c=7 v=69
183395 Tempo 689655
183423 On ch=1 n=a#4 v=0
183425 On ch=1 n=c#5 v=64
183445 Tempo 697674
183465 On ch=1 n=f4 v=64
183465 On ch=1 n=c#4 v=64
183466 Par ch=1 c=7 v=68
183496 Tempo 705882
183503 On ch=1 n=c#5 v=0
183505 On ch=1 n=f5 v=64
183546 Tempo 714286
183571 Par ch=1 c=7 v=67
183583 On ch=1 n=f5 v=0
183583 On ch=1 n=a#5 v=0
183583 On ch=1 n=c#3 v=0
183585 On ch=1 n=g#4 v=64
183585 On ch=1 n=g#5 v=64
183597 Tempo 722892
183647 Tempo 731707
183663 On ch=1 n=g#4 v=0
183665 On ch=1 n=c#5 v=64
183675 Par ch=1 c=7 v=66
183698 Tempo 740741
183703 On ch=1 n=c#4 v=0
183703 On ch=1 n=f4 v=0
183705 On ch=1 n=f4 v=64
183705 On ch=1 n=c#4 v=64
183743 On ch=1 n=c#5 v=0
183745 On ch=1 n=f5 v=64
183748 Tempo 750000
183780 Par ch=1 c=7 v=65
183799 Tempo 759494
183823 On ch=1 n=f5 v=0
183823 On ch=1 n=c#4 v=0
183823 On ch=1 n=f4 v=0
183823 On ch=1 n=g#5 v=0
183825 On ch=1 n=g4 v=64
183825 On ch=1 n=g5 v=64
183849 Tempo 769231
183885 Par ch=1 c=7 v=64
183900 Tempo 779221
183903 On ch=1 n=g4 v=0
183905 On ch=1 n=g#4 v=64
183945 On ch=1 n=c#4 v=64
183945 On ch=1 n=g#3 v=64
183945 On ch=1 n=e3 v=64
183950 Tempo 789474
183983 On ch=1 n=g#4 v=0
183985 On ch=1 n=c#5 v=64
183989 Par ch=1 c=7 v=63
184001 Tempo 800000
184051 Tempo 810811
184063 On ch=1 n=c#5 v=0
184063 On ch=1 n=g5 v=0
184065 On ch=1 n=f4 v=64
184065 On ch=1 n=f5 v=64
184094 Par ch=1 c=7 v=62
184102 Tempo 821918
184143 On ch=1 n=f4 v=0
184145 On ch=1 n=g#4 v=64
184152 Tempo 833333
184183 On ch=1 n=e3 v=0
184183 On ch=1 n=g#3 v=0
184183 On ch=1 n=c#4 v=0
184185 On ch=1 n=f3 v=64
184185 On ch=1 n=g#3 v=64
184185 On ch=1 n=c#4 v=64
184199 Par ch=1 c=7 v=61
184203 Tempo 845070
184223 On ch=1 n=g#4 v=0
184225 On ch=1 n=c#5 v=64
184253 Tempo 660535
184303 On ch=1 n=c#5 v=0
184303 On ch=1 n=c#4 v=0
184303 On ch=1 n=g#3 v=0
184303 On ch=1 n=f3 v=0
184303 On ch=1 n=f5 v=0
184304 Tempo 672957
184304 Par ch=1 c=7 v=60
184305 Tempo 394737
184305 On ch=1 n=d4 v=64
184305 On ch=1 n=g3 v=64
184305 On ch=1 n=d5 v=64
184305 On ch=1 n=b4 v=64
184505 Par ch=1 c=64 v=0
184543 On ch=1 n=b4 v=0
184543 On ch=1 n=d5 v=0
184543 On ch=1 n=g3 v=0
184543 On ch=1 n=d4 v=0
184545 On ch=1 n=d3 v=64
184665 On ch=1 n=d4 v=64
184783 On ch=1 n=d4 v=0
184783 On ch=1 n=d3 v=0
184785 On ch=1 n=c3 v=64
184905 On ch=1 n=c4 v=64
185023 On ch=1 n=c4 v=0
185023 On ch=1 n=c3 v=0
185025 On ch=1 n=b2 v=64
185145 On ch=1 n=b3 v=64
185263 On ch=1 n=b3 v=0
185263 On ch=1 n=b2 v=0
185265 On ch=1 n=g#2 v=64
185385 On ch=1 n=g#3 v=64
185503 On ch=1 n=g#3 v=0
185503 On ch=1 n=g#2 v=0
185505 On ch=1 n=g2 v=64
185505 Par ch=1 c=64 v=96
185625 On ch=1 n=g3 v=64
185743 On ch=1 n=g3 v=0
185743 On ch=1 n=g2 v=0
185745 On ch=1 n=g#3 v=64
185865 On ch=1 n=g#4 v=64
185983 On ch=1 n=g#4 v=0
185983 On ch=1 n=g#3 v=0
185985 On ch=1 n=g3 v=64
186105 On ch=1 n=g4 v=64
186185 Par ch=1 c=64 v=0
186223 On ch=1 n=g4 v=0
186223 On ch=1 n=g3 v=0
186225 On ch=1 n=f3 v=64
186345 On ch=1 n=f4 v=64
186463 On ch=1 n=f4 v=0
186463 On ch=1 n=f3 v=0
186465 On ch=1 n=d#3 v=64
186585 On ch=1 n=d#4 v=64
186703 On ch=1 n=d#4 v=0
186703 On ch=1 n=d#3 v=0
186705 On ch=1 n=c#3 v=64
186825 On ch=1 n=c#4 v=64
186943 On ch=1 n=c#4 v=0
186943 On ch=1 n=c#3 v=0
186945 Par ch=1 c=7 v=80
186945 On ch=1 n=f4 v=64
186945 On ch=1 n=f5 v=64
186945 On ch=1 n=g#4 v=64
186945 On ch=1 n=c#4 v=64
186945 On ch=1 n=c#5 v=64
187123 On ch=1 n=c#5 v=0
187123 On ch=1 n=c#4 v=0
187123 On ch=1 n=g#4 v=0
187123 On ch=1 n=f5 v=0
187123 On ch=1 n=f4 v=0
187185 On ch=1 n=d4 v=64
187185 On ch=1 n=g3 v=64
187185 On ch=1 n=g5 v=64
187185 On ch=1 n=g4 v=64
187185 On ch=1 n=b4 v=64
187363 On ch=1 n=b4 v=0
187363 On ch=1 n=g4 v=0
187363 On ch=1 n=g5 v=0
187363 On ch=1 n=g3 v=0
187363 On ch=1 n=d4 v=0
187425 Par ch=1 c=7 v=60
187425 On ch=1 n=d3 v=64
187545 On ch=1 n=d4 v=64
187663 On ch=1 n=d4 v=0
187663 On ch=1 n=d3 v=0
187665 On ch=1 n=c3 v=64
187785 On ch=1 n=c4 v=64
187903 On ch=1 n=c4 v=0
187903 On ch=1 n=c3 v=0
187905 On ch=1 n=b2 v=64
188025 On ch=1 n=b3 v=64
188143 On ch=1 n=b3 v=0
188143 On ch=1 n=b2 v=0
188145 On ch=1 n=g#2 v=64
188265 On ch=1 n=g#3 v=64
188383 On ch=1 n=g#3 v=0
188383 On ch=1 n=g#2 v=0
188385 On ch=1 n=g2 v=64
188385 Par ch=1 c=64 v=96
188505 On ch=1 n=g3 v=64
188623 On ch=1 n=g3 v=0
188623 On ch=1 n=g2 v=0
188625 On ch=1 n=g#3 v=64
188745 On ch=1 n=g#4 v=64
188863 On ch=1 n=g#4 v=0
188863 On ch=1 n=g#3 v=0
188865 On ch=1 n=g3 v=64
188985 On ch=1 n=g4 v=64
189065 Par ch=1 c=64 v=0
189103 On ch=1 n=g4 v=0
189103 On ch=1 n=g3 v=0
189105 On ch=1 n=f3 v=64
189225 On ch=1 n=f4 v=64
189343 On ch=1 n=f4 v=0
189343 On ch=1 n=f3 v=0
189345 On ch=1 n=d#3 v=64
189465 On ch=1 n=d#4 v=64
189583 On ch=1 n=d#4 v=0
189583 On ch=1 n=d#3 v=0
189585 On ch=1 n=c#3 v=64
189705 On ch=1 n=c#4 v=64
189823 On ch=1 n=c#4 v=0
189823 On ch=1 n=c#3 v=0
189825 Par ch=1 c=7 v=80
189825 On ch=1 n=f4 v=64
189825 On ch=1 n=f5 v=64
189825 On ch=1 n=g#4 v=64
189825 On ch=1 n=c#4 v=64
189825 On ch=1 n=c#5 v=64
190003 On ch=1 n=c#5 v=0
190003 On ch=1 n=c#4 v=0
190003 On ch=1 n=g#4 v=0
190003 On ch=1 n=f5 v=0
190003 On ch=1 n=f4 v=0
190065 On ch=1 n=g#5 v=64
190065 On ch=1 n=c5 v=64
190065 On ch=1 n=g#4 v=64
190065 On ch=1 n=d#4 v=64
190065 On ch=1 n=g#3 v=64
190243 On ch=1 n=g#3 v=0
190243 On ch=1 n=d#4 v=0
190243 On ch=1 n=g#4 v=0
190243 On ch=1 n=c5 v=0
190243 On ch=1 n=g#5 v=0
190305 Par ch=1 c=7 v=60
190305 On ch=1 n=d#3 v=64
190425 On ch=1 n=d#4 v=64
190543 On ch=1 n=d#4 v=0
190543 On ch=1 n=d#3 v=0
190545 On ch=1 n=c#3 v=64
190665 On ch=1 n=c#4 v=64
190783 On ch=1 n=c#4 v=0
190783 On ch=1 n=c#3 v=0
190785 On ch=1 n=c3 v=64
190905 On ch=1 n=c4 v=64
191023 On ch=1 n=c4 v=0
191023 On ch=1 n=c3 v=0
191025 On ch=1 n=a#2 v=64
191145 On ch=1 n=a#3 v=64
191263 On ch=1 n=a#3 v=0
191263 On ch=1 n=a#2 v=0
191265 On ch=1 n=g#2 v=64
191265 Par ch=1 c=64 v=96
191385 On ch=1 n=g#3 v=64
191503 On ch=1 n=g#3 v=0
191503 On ch=1 n=g#2 v=0
191505 On ch=1 n=g#3 v=64
191625 On ch=1 n=g#4 v=64
191743 On ch=1 n=g#4 v=0
191743 On ch=1 n=g#3 v=0
191745 On ch=1 n=f#3 v=64
191865 On ch=1 n=f#4 v=64
191945 Par ch=1 c=64 v=0
191983 On ch=1 n=f#4 v=0
191983 On ch=1 n=f#3 v=0
191985 On ch=1 n=e3 v=64
192105 On ch=1 n=e4 v=64
192223 On ch=1 n=e4 v=0
192223 On ch=1 n=e3 v=0
192225 On ch=1 n=d#3 v=64
192345 On ch=1 n=d#4 v=64
192463 On ch=1 n=d#4 v=0
192463 On ch=1 n=d#3 v=0
192465 On ch=1 n=c#3 v=64
192585 On ch=1 n=c#4 v=64
192703 On ch=1 n=c#4 v=0
192703 On ch=1 n=c#3 v=0
192705 Par ch=1 c=7 v=80
192705 On ch=1 n=e5 v=64
192705 On ch=1 n=c#5 v=64
192705 On ch=1 n=g#4 v=64
192705 On ch=1 n=e4 v=64
192705 On ch=1 n=c#4 v=64
192883 On ch=1 n=c#4 v=0
192883 On ch=1 n=e4 v=0
192883 On ch=1 n=g#4 v=0
192883 On ch=1 n=c#5 v=0
192883 On ch=1 n=e5 v=0
192945 On ch=1 n=a5 v=64
192945 On ch=1 n=c#5 v=64
192945 On ch=1 n=a4 v=64
192945 On ch=1 n=e4 v=64
192945 On ch=1 n=a3 v=64
193123 On ch=1 n=a3 v=0
193123 On ch=1 n=e4 v=0
193123 On ch=1 n=a4 v=0
193123 On ch=1 n=c#5 v=0
193123 On ch=1 n=a5 v=0
193185 Par ch=1 c=7 v=60
193185 On ch=1 n=e3 v=64
193305 On ch=1 n=e4 v=64
193423 On ch=1 n=e4 v=0
193423 On ch=1 n=e3 v=0
193425 On ch=1 n=d3 v=64
193545 On ch=1 n=d4 v=64
193663 On ch=1 n=d4 v=0
193663 On ch=1 n=d3 v=0
193665 On ch=1 n=c#3 v=64
193785 On ch=1 n=c#4 v=64
193903 On ch=1 n=c#4 v=0
193903 On ch=1 n=c#3 v=0
193905 On ch=1 n=a#2 v=64
194025 On ch=1 n=a#3 v=64
194143 On ch=1 n=a#3 v=0
194143 On ch=1 n=a#2 v=0
194145 On ch=1 n=a2 v=64
194145 Par ch=1 c=64 v=96
194265 On ch=1 n=a3 v=64
194383 On ch=1 n=a3 v=0
194383 On ch=1 n=a2 v=0
194385 On ch=1 n=a3 v=64
194505 On ch=1 n=a4 v=64
194623 On ch=1 n=a4 v=0
194623 On ch=1 n=a3 v=0
194625 On ch=1 n=g3 v=64
194745 On ch=1 n=g4 v=64
194825 Par ch=1 c=64 v=0
194863 On ch=1 n=g4 v=0
194863 On ch=1 n=g3 v=0
194865 On ch=1 n=f3 v=64
194985 On ch=1 n=f4 v=64
195103 On ch=1 n=f4 v=0
195103 On ch=1 n=f3 v=0
195105 On ch=1 n=e3 v=64
195225 On ch=1 n=e4 v=64
195343 On ch=1 n=e4 v=0
195343 On ch=1 n=e3 v=0
195345 On ch=1 n=d3 v=64
195465 On ch=1 n=d4 v=64
195583 On ch=1 n=d4 v=0
195583 On ch=1 n=d3 v=0
195585 Par ch=1 c=7 v=80
195585 On ch=1 n=f4 v=64
195585 On ch=1 n=d4 v=64
195585 On ch=1 n=f5 v=64
195585 On ch=1 n=d5 v=64
195585 On ch=1 n=a4 v=64
195763 On ch=1 n=a4 v=0
195763 On ch=1 n=d5 v=0
195763 On ch=1 n=f5 v=0
195763 On ch=1 n=d4 v=0
195763 On ch=1 n=f4 v=0
195825 On ch=1 n=a#5 v=64
195825 On ch=1 n=f4 v=64
195825 On ch=1 n=a#3 v=64
195825 On ch=1 n=d5 v=64
195825 On ch=1 n=a#4 v=64
195825 Par ch=1 c=64 v=96
196063 On ch=1 n=a#4 v=0
196063 On ch=1 n=d5 v=0
196063 On ch=1 n=a#3 v=0
196063 On ch=1 n=f4 v=0
196063 On ch=1 n=a#5 v=0
196065 Par ch=1 c=7 v=60
196065 On ch=1 n=f3 v=64
196065 Par ch=1 c=64 v=0
196185 On ch=1 n=f4 v=64
196303 On ch=1 n=f4 v=0
196303 On ch=1 n=f3 v=0
196305 On ch=1 n=d#3 v=64
196425 On ch=1 n=d#4 v=64
196543 On ch=1 n=d#4 v=0
196543 On ch=1 n=d#3 v=0
196545 On ch=1 n=d3 v=64
196665 On ch=1 n=d4 v=64
196783 On ch=1 n=d4 v=0
196783 On ch=1 n=d3 v=0
196785 On ch=1 n=b2 v=64
196905 On ch=1 n=b3 v=64
197023 On ch=1 n=b3 v=0
197023 On ch=1 n=b2 v=0
197025 On ch=1 n=a#2 v=64
197145 On ch=1 n=a#3 v=64
197263 On ch=1 n=a#3 v=0
197263 On ch=1 n=a#2 v=0
197265 Par ch=1 c=7 v=80
197265 On ch=1 n=a#3 v=64
197265 On ch=1 n=a#5 v=64
197265 On ch=1 n=d#5 v=64
197265 On ch=1 n=a#4 v=64
197265 On ch=1 n=f#4 v=64
197265 Par ch=1 c=64 v=96
197503 On ch=1 n=f#4 v=0
197503 On ch=1 n=a#4 v=0
197503 On ch=1 n=d#5 v=0
197503 On ch=1 n=a#5 v=0
197503 On ch=1 n=a#3 v=0
197505 Par ch=1 c=7 v=60
197505 On ch=1 n=f#3 v=64
197505 Par ch=1 c=64 v=0
197625 On ch=1 n=f#4 v=64
197743 On ch=1 n=f#4 v=0
197743 On ch=1 n=f#3 v=0
197745 On ch=1 n=f3 v=64
197865 On ch=1 n=f4 v=64
197983 On ch=1 n=f4 v=0
197983 On ch=1 n=f3 v=0
197985 On ch=1 n=d#3 v=64
198105 On ch=1 n=d#4 v=64
198223 On ch=1 n=d#4 v=0
198223 On ch=1 n=d#3 v=0
198225 On ch=1 n=b2 v=64
198345 On ch=1 n=b3 v=64
198463 On ch=1 n=b3 v=0
198463 On ch=1 n=b2 v=0
198465 On ch=1 n=a#2 v=64
198585 On ch=1 n=a#3 v=64
198703 On ch=1 n=a#3 v=0
198703 On ch=1 n=a#2 v=0
198705 Par ch=1 c=7 v=80
198705 On ch=1 n=d6 v=64
198705 On ch=1 n=f5 v=64
198705 On ch=1 n=d5 v=64
198705 On ch=1 n=g#4 v=64
198705 On ch=1 n=b3 v=64
198705 On ch=1 n=b4 v=64
198705 Par ch=1 c=64 v=96
198943 On ch=1 n=b4 v=0
198943 On ch=1 n=b3 v=0
198943 On ch=1 n=g#4 v=0
198943 On ch=1 n=d5 v=0
198943 On ch=1 n=f5 v=0
198943 On ch=1 n=d6 v=0
198945 Par ch=1 c=7 v=60
198945 On ch=1 n=g#3 v=64
198945 Par ch=1 c=64 v=0
199065 On ch=1 n=g#4 v=64
199183 On ch=1 n=g#4 v=0
199183 On ch=1 n=g#3 v=0
199185 On ch=1 n=f3 v=64
199305 On ch=1 n=f4 v=64
199423 On ch=1 n=f4 v=0
199423 On ch=1 n=f3 v=0
199425 On ch=1 n=d3 v=64
199545 On ch=1 n=d4 v=64
199663 On ch=1 n=d4 v=0
199663 On ch=1 n=d3 v=0
199665 On ch=1 n=c#3 v=64
199785 On ch=1 n=c#4 v=64
199903 On ch=1 n=c#4 v=0
199903 On ch=1 n=c#3 v=0
199905 On ch=1 n=b2 v=64
200025 On ch=1 n=b3 v=64
200143 On ch=1 n=b3 v=0
200143 On ch=1 n=b2 v=0
200145 Par ch=1 c=7 v=80
200145 On ch=1 n=d#5 v=64
200145 On ch=1 n=c5 v=64
200145 On ch=1 n=d#4 v=64
200145 On ch=1 n=f#6 v=64
200145 On ch=1 n=a5 v=64
200145 On ch=1 n=f#5 v=64
200145 Par ch=1 c=64 v=96
200383 On ch=1 n=f#5 v=0
200383 On ch=1 n=a5 v=0
200383 On ch=1 n=f#6 v=0
200383 On ch=1 n=d#4 v=0
200383 On ch=1 n=c5 v=0
200383 On ch=1 n=d#5 v=0
200385 Par ch=1 c=7 v=60
200385 On ch=1 n=a3 v=64
200385 Par ch=1 c=64 v=0
200504 Par ch=1 c=7 v=61
200505 On ch=1 n=a4 v=64
200623 On ch=1 n=a4 v=0
200623 On ch=1 n=a3 v=0
200624 Par ch=1 c=7 v=62
200625 On ch=1 n=g#3 v=64
200744 Par ch=1 c=7 v=63
200745 On ch=1 n=g#4 v=64
200863 On ch=1 n=g#4 v=0
200863 On ch=1 n=g#3 v=0
200864 Par ch=1 c=7 v=64
200865 On ch=1 n=f#3 v=64
200984 Par ch=1 c=7 v=65
200985 On ch=1 n=f#4 v=64
201103 On ch=1 n=f#4 v=0
201103 On ch=1 n=f#3 v=0
201104 Par ch=1 c=7 v=66
201105 On ch=1 n=d#3 v=64
201224 Par ch=1 c=7 v=67
201225 On ch=1 n=d#4 v=64
201343 On ch=1 n=d#4 v=0
201343 On ch=1 n=d#3 v=0
201344 Par ch=1 c=7 v=68
201345 On ch=1 n=c3 v=64
201464 Par ch=1 c=7 v=69
201465 On ch=1 n=c4 v=64
201583 On ch=1 n=c4 v=0
201583 On ch=1 n=c3 v=0
201584 Par ch=1 c=7 v=70
201585 On ch=1 n=a5 v=64
201585 On ch=1 n=f#5 v=64
201585 On ch=1 n=c#5 v=64
201585 On ch=1 n=a6 v=64
201585 On ch=1 n=f#6 v=64
201585 On ch=1 n=c#6 v=64
201585 Par ch=1 c=64 v=96
201703 On ch=1 n=c#6 v=0
201703 On ch=1 n=f#6 v=0
201703 On ch=1 n=a6 v=0
201703 On ch=1 n=c#5 v=0
201703 On ch=1 n=f#5 v=0
201703 On ch=1 n=a5 v=0
201945 On ch=1 n=f#5 v=64
201945 On ch=1 n=c#5 v=64
201945 On ch=1 n=a4 v=64
201945 On ch=1 n=f#6 v=64
201945 On ch=1 n=c#6 v=64
201945 On ch=1 n=a5 v=64
202003 On ch=1 n=a5 v=0
202003 On ch=1 n=c#6 v=0
202003 On ch=1 n=f#6 v=0
202003 On ch=1 n=a4 v=0
202003 On ch=1 n=c#5 v=0
202003 On ch=1 n=f#5 v=0
202065 On ch=1 n=f#5 v=64
202065 On ch=1 n=c#5 v=64
202065 On ch=1 n=a4 v=64
202065 On ch=1 n=f#6 v=64
202065 On ch=1 n=c#6 v=64
202065 On ch=1 n=a5 v=64
202183 On ch=1 n=a5 v=0
202183 On ch=1 n=c#6 v=0
202183 On ch=1 n=f#6 v=0
202183 On ch=1 n=a4 v=0
202183 On ch=1 n=c#5 v=0
202183 On ch=1 n=f#5 v=0
202265 Par ch=1 c=64 v=0
202305 On ch=1 n=c#5 v=64
202305 On ch=1 n=a4 v=64
202305 On ch=1 n=f#4 v=64
202305 On ch=1 n=c#6 v=64
202305 On ch=1 n=a5 v=64
202305 On ch=1 n=f#5 v=64
202305 Par ch=1 c=64 v=96
202423 On ch=1 n=f#5 v=0
202423 On ch=1 n=a5 v=0
202423 On ch=1 n=c#6 v=0
202423 On ch=1 n=f#4 v=0
202423 On ch=1 n=a4 v=0
202423 On ch=1 n=c#5 v=0
202665 On ch=1 n=f#4 v=64
202665 On ch=1 n=a4 v=64
202665 On ch=1 n=c#4 v=64
202665 On ch=1 n=a5 v=64
202665 On ch=1 n=f#5 v=64
202665 On ch=1 n=c#5 v=64
202723 On ch=1 n=c#5 v=0
202723 On ch=1 n=f#5 v=0
202723 On ch=1 n=a5 v=0
202723 On ch=1 n=c#4 v=0
202723 On ch=1 n=a4 v=0
202723 On ch=1 n=f#4 v=0
202785 On ch=1 n=f#4 v=64
202785 On ch=1 n=a4 v=64
202785 On ch=1 n=c#4 v=64
202785 On ch=1 n=a5 v=64
202785 On ch=1 n=f#5 v=64
202785 On ch=1 n=c#5 v=64
202903 On ch=1 n=c#5 v=0
202903 On ch=1 n=f#5 v=0
202903 On ch=1 n=a5 v=0
202903 On ch=1 n=c#4 v=0
202903 On ch=1 n=a4 v=0
202903 On ch=1 n=f#4 v=0
202985 Par ch=1 c=64 v=0
203025 Par ch=1 c=7 v=70
203025 On ch=1 n=d3 v=64
203145 On ch=1 n=d4 v=64
203168 Par ch=1 c=7 v=71
203263 On ch=1 n=d4 v=0
203263 On ch=1 n=d3 v=0
203265 On ch=1 n=a3 v=64
203312 Par ch=1 c=7 v=72
203385 On ch=1 n=a4 v=64
203456 Par ch=1 c=7 v=73
203503 On ch=1 n=a4 v=0
203503 On ch=1 n=a3 v=0
203505 On ch=1 n=g3 v=64
203505 Par ch=1 c=64 v=96
203600 Par ch=1 c=7 v=74
203625 On ch=1 n=g4 v=64
203743 On ch=1 n=g4 v=0
203743 On ch=1 n=g3 v=0
203744 Par ch=1 c=7 v=75
203745 Par ch=1 c=7 v=75
203745 On ch=1 n=f#3 v=64
203865 On ch=1 n=f#4 v=64
203888 Par ch=1 c=7 v=74
203983 On ch=1 n=f#4 v=0
203983 On ch=1 n=f#3 v=0
203985 On ch=1 n=e3 v=64
204032 Par ch=1 c=7 v=73
204105 On ch=1 n=e4 v=64
204176 Par ch=1 c=7 v=72
204223 On ch=1 n=e4 v=0
204223 On ch=1 n=e3 v=0
204225 On ch=1 n=d3 v=64
204225 Par ch=1 c=64 v=0
204320 Par ch=1 c=7 v=71
204345 On ch=1 n=d4 v=64
204463 On ch=1 n=d4 v=0
204463 On ch=1 n=d3 v=0
204464 Par ch=1 c=7 v=70
204465 On ch=1 n=a#5 v=64
204465 On ch=1 n=g5 v=64
204465 On ch=1 n=d5 v=64
204465 On ch=1 n=a#6 v=64
204465 On ch=1 n=g6 v=64
204465 On ch=1 n=d6 v=64
204465 Par ch=1 c=64 v=96
204583 On ch=1 n=d6 v=0
204583 On ch=1 n=g6 v=0
204583 On ch=1 n=a#6 v=0
204583 On ch=1 n=d5 v=0
204583 On ch=1 n=g5 v=0
204583 On ch=1 n=a#5 v=0
204825 On ch=1 n=g5 v=64
204825 On ch=1 n=d5 v=64
204825 On ch=1 n=a#4 v=64
204825 On ch=1 n=g6 v=64
204825 On ch=1 n=d6 v=64
204825 On ch=1 n=a#5 v=64
204883 On ch=1 n=a#5 v=0
204883 On ch=1 n=d6 v=0
204883 On ch=1 n=g6 v=0
204883 On ch=1 n=a#4 v=0
204883 On ch=1 n=d5 v=0
204883 On ch=1 n=g5 v=0
204945 On ch=1 n=g5 v=64
204945 On ch=1 n=d5 v=64
204945 On ch=1 n=a#4 v=64
204945 On ch=1 n=g6 v=64
204945 On ch=1 n=d6 v=64
204945 On ch=1 n=a#5 v=64
205063 On ch=1 n=a#5 v=0
205063 On ch=1 n=d6 v=0
205063 On ch=1 n=g6 v=0
205063 On ch=1 n=a#4 v=0
205063 On ch=1 n=d5 v=0
205063 On ch=1 n=g5 v=0
205145 Par ch=1 c=64 v=0
205185 On ch=1 n=d5 v=64
205185 On ch=1 n=a#4 v=64
205185 On ch=1 n=g4 v=64
205185 On ch=1 n=d6 v=64
205185 On ch=1 n=a#5 v=64
205185 On ch=1 n=g5 v=64
205185 Par ch=1 c=64 v=96
205303 On ch=1 n=g5 v=0
205303 On ch=1 n=a#5 v=0
205303 On ch=1 n=d6 v=0
205303 On ch=1 n=g4 v=0
205303 On ch=1 n=a#4 v=0
205303 On ch=1 n=d5 v=0
205545 On ch=1 n=a#4 v=64
205545 On ch=1 n=g4 v=64
205545 On ch=1 n=d4 v=64
205545 On ch=1 n=a#5 v=64
205545 On ch=1 n=g5 v=64
205545 On ch=1 n=d5 v=64
205603 On ch=1 n=d5 v=0
205603 On ch=1 n=g5 v=0
205603 On ch=1 n=a#5 v=0
205603 On ch=1 n=d4 v=0
205603 On ch=1 n=g4 v=0
205603 On ch=1 n=a#4 v=0
205665 On ch=1 n=a#4 v=64
205665 On ch=1 n=g4 v=64
205665 On ch=1 n=d4 v=64
205665 On ch=1 n=a#5 v=64
205665 On ch=1 n=g5 v=64
205665 On ch=1 n=d5 v=64
205783 On ch=1 n=d5 v=0
205783 On ch=1 n=g5 v=0
205783 On ch=1 n=a#5 v=0
205783 On ch=1 n=d4 v=0
205783 On ch=1 n=g4 v=0
205783 On ch=1 n=a#4 v=0
205865 Par ch=1 c=64 v=0
205905 Par ch=1 c=7 v=70
205905 On ch=1 n=d#3 v=64
206025 On ch=1 n=d#4 v=64
206048 Par ch=1 c=7 v=71
206143 On ch=1 n=d#4 v=0
206143 On ch=1 n=d#3 v=0
206145 On ch=1 n=a#3 v=64
206192 Par ch=1 c=7 v=72
206265 On ch=1 n=a#4 v=64
206336 Par ch=1 c=7 v=73
206383 On ch=1 n=a#4 v=0
206383 On ch=1 n=a#3 v=0
206385 On ch=1 n=g#3 v=64
206385 Par ch=1 c=64 v=96
206480 Par ch=1 c=7 v=74
206505 On ch=1 n=g#4 v=64
206623 On ch=1 n=g#4 v=0
206623 On ch=1 n=g#3 v=0
206624 Par ch=1 c=7 v=75
206625 Par ch=1 c=7 v=75
206625 On ch=1 n=g3 v=64
206745 On ch=1 n=g4 v=64
206768 Par ch=1 c=7 v=74
206863 On ch=1 n=g4 v=0
206863 On ch=1 n=g3 v=0
206865 On ch=1 n=f3 v=64
206912 Par ch=1 c=7 v=73
206985 On ch=1 n=f4 v=64
207056 Par ch=1 c=7 v=72
207103 On ch=1 n=f4 v=0
207103 On ch=1 n=f3 v=0
207105 On ch=1 n=d#3 v=64
207105 Par ch=1 c=64 v=0
207200 Par ch=1 c=7 v=71
207225 On ch=1 n=d#4 v=64
207343 On ch=1 n=d#4 v=0
207343 On ch=1 n=d#3 v=0
207344 Par ch=1 c=7 v=70
207345 On ch=1 n=b5 v=64
207345 On ch=1 n=g#5 v=64
207345 On ch=1 n=d#5 v=64
207345 On ch=1 n=b6 v=64
207345 On ch=1 n=g#6 v=64
207345 On ch=1 n=d#6 v=64
207345 Par ch=1 c=64 v=96
207463 On ch=1 n=d#6 v=0
207463 On ch=1 n=g#6 v=0
207463 On ch=1 n=b6 v=0
207463 On ch=1 n=d#5 v=0
207463 On ch=1 n=g#5 v=0
207463 On ch=1 n=b5 v=0
207705 On ch=1 n=g#5 v=64
207705 On ch=1 n=d#5 v=64
207705 On ch=1 n=b4 v=64
207705 On ch=1 n=g#6 v=64
207705 On ch=1 n=d#6 v=64
207705 On ch=1 n=b5 v=64
207763 On ch=1 n=b5 v=0
207763 On ch=1 n=d#6 v=0
207763 On ch=1 n=g#6 v=0
207763 On ch=1 n=b4 v=0
207763 On ch=1 n=d#5 v=0
207763 On ch=1 n=g#5 v=0
207825 On ch=1 n=g#5 v=64
207825 On ch=1 n=d#5 v=64
207825 On ch=1 n=b4 v=64
207825 On ch=1 n=g#6 v=64
207825 On ch=1 n=d#6 v=64
207825 On ch=1 n=b5 v=64
207943 On ch=1 n=b5 v=0
207943 On ch=1 n=d#6 v=0
207943 On ch=1 n=g#6 v=0
207943 On ch=1 n=b4 v=0
207943 On ch=1 n=d#5 v=0
207943 On ch=1 n=g#5 v=0
208025 Par ch=1 c=64 v=0
208065 On ch=1 n=d#5 v=64
208065 On ch=1 n=b4 v=64
208065 On ch=1 n=g#4 v=64
208065 On ch=1 n=d#6 v=64
208065 On ch=1 n=b5 v=64
208065 On ch=1 n=g#5 v=64
208065 Par ch=1 c=64 v=96
208183 On ch=1 n=g#5 v=0
208183 On ch=1 n=b5 v=0
208183 On ch=1 n=d#6 v=0
208183 On ch=1 n=g#4 v=0
208183 On ch=1 n=b4 v=0
208183 On ch=1 n=d#5 v=0
208425 On ch=1 n=b4 v=64
208425 On ch=1 n=g#4 v=64
208425 On ch=1 n=d#4 v=64
208425 On ch=1 n=b5 v=64
208425 On ch=1 n=g#5 v=64
208425 On ch=1 n=d#5 v=64
208483 On ch=1 n=d#5 v=0
208483 On ch=1 n=g#5 v=0
208483 On ch=1 n=b5 v=0
208483 On ch=1 n=d#4 v=0
208483 On ch=1 n=g#4 v=0
208483 On ch=1 n=b4 v=0
208545 On ch=1 n=b4 v=64
208545 On ch=1 n=g#4 v=64
208545 On ch=1 n=d#4 v=64
208545 On ch=1 n=b5 v=64
208545 On ch=1 n=g#5 v=64
208545 On ch=1 n=d#5 v=64
208663 On ch=1 n=d#5 v=0
208663 On ch=1 n=g#5 v=0
208663 On ch=1 n=b5 v=0
208663 On ch=1 n=d#4 v=0
208663 On ch=1 n=g#4 v=0
208663 On ch=1 n=b4 v=0
208745 Par ch=1 c=64 v=0
208785 Par ch=1 c=7 v=70
208785 On ch=1 n=e5 v=64
208785 On ch=1 n=b4 v=64
208785 On ch=1 n=e4 v=64
208785 On ch=1 n=e7 v=64
208785 On ch=1 n=g#6 v=64
208785 On ch=1 n=e6 v=64
208785 Par ch=1 c=64 v=96
208903 On ch=1 n=e6 v=0
208903 On ch=1 n=g#6 v=0
208903 On ch=1 n=e7 v=0
208903 On ch=1 n=e4 v=0
208903 On ch=1 n=b4 v=0
208903 On ch=1 n=e5 v=0
209024 Par ch=1 c=7 v=71
209145 On ch=1 n=b4 v=64
209145 On ch=1 n=g#4 v=64
209145 On ch=1 n=b6 v=64
209145 On ch=1 n=e6 v=64
209145 On ch=1 n=b5 v=64
209203 On ch=1 n=b5 v=0
209203 On ch=1 n=e6 v=0
209203 On ch=1 n=b6 v=0
209203 On ch=1 n=g#4 v=0
209203 On ch=1 n=b4 v=0
209264 Par ch=1 c=7 v=72
209265 On ch=1 n=b4 v=64
209265 On ch=1 n=g#4 v=64
209265 On ch=1 n=b5 v=64
209265 On ch=1 n=e6 v=64
209265 On ch=1 n=b6 v=64
209383 On ch=1 n=b6 v=0
209383 On ch=1 n=e6 v=0
209383 On ch=1 n=b5 v=0
209383 On ch=1 n=g#4 v=0
209383 On ch=1 n=b4 v=0
209465 Par ch=1 c=64 v=0
209504 Par ch=1 c=7 v=73
209505 On ch=1 n=e5 v=64
209505 On ch=1 n=b4 v=64
209505 On ch=1 n=g#5 v=64
209505 On ch=1 n=b5 v=64
209505 On ch=1 n=g#6 v=64
209505 Par ch=1 c=64 v=96
209623 On ch=1 n=g#6 v=0
209623 On ch=1 n=b5 v=0
209623 On ch=1 n=g#5 v=0
209623 On ch=1 n=b4 v=0
209623 On ch=1 n=e5 v=0
209744 Par ch=1 c=7 v=74
209865 On ch=1 n=b4 v=64
209865 On ch=1 n=g#4 v=64
209865 On ch=1 n=e6 v=64
209865 On ch=1 n=g#5 v=64
209865 On ch=1 n=e5 v=64
209923 On ch=1 n=e5 v=0
209923 On ch=1 n=g#5 v=0
209923 On ch=1 n=e6 v=0
209923 On ch=1 n=g#4 v=0
209923 On ch=1 n=b4 v=0
209984 Par ch=1 c=7 v=75
209985 On ch=1 n=b4 v=64
209985 On ch=1 n=g#4 v=64
209985 On ch=1 n=e5 v=64
209985 On ch=1 n=g#5 v=64
209985 On ch=1 n=e6 v=64
210103 On ch=1 n=e6 v=0
210103 On ch=1 n=g#5 v=0
210103 On ch=1 n=e5 v=0
210103 On ch=1 n=g#4 v=0
210103 On ch=1 n=b4 v=0
210185 Par ch=1 c=64 v=0
210224 Par ch=1 c=7 v=76
210225 On ch=1 n=c5 v=64
210225 On ch=1 n=e4 v=64
210225 On ch=1 n=a3 v=64
210225 On ch=1 n=e7 v=64
210225 On ch=1 n=a6 v=64
210225 On ch=1 n=e6 v=64
210225 Par ch=1 c=64 v=96
210343 On ch=1 n=e6 v=0
210343 On ch=1 n=a6 v=0
210343 On ch=1 n=e7 v=0
210343 On ch=1 n=a3 v=0
210343 On ch=1 n=e4 v=0
210343 On ch=1 n=c5 v=0
210464 Par ch=1 c=7 v=77
210585 On ch=1 n=c6 v=64
210585 On ch=1 n=c7 v=64
210585 On ch=1 n=c5 v=64
210585 On ch=1 n=a4 v=64
210585 On ch=1 n=e6 v=64
210643 On ch=1 n=e6 v=0
210643 On ch=1 n=a4 v=0
210643 On ch=1 n=c5 v=0
210643 On ch=1 n=c7 v=0
210643 On ch=1 n=c6 v=0
210704 Par ch=1 c=7 v=78
210705 On ch=1 n=c7 v=64
210705 On ch=1 n=c6 v=64
210705 On ch=1 n=c5 v=64
210705 On ch=1 n=a4 v=64
210705 On ch=1 n=e6 v=64
210823 On ch=1 n=e6 v=0
210823 On ch=1 n=a4 v=0
210823 On ch=1 n=c5 v=0
210823 On ch=1 n=c6 v=0
210823 On ch=1 n=c7 v=0
210905 Par ch=1 c=64 v=0
210944 Par ch=1 c=7 v=79
210945 On ch=1 n=c6 v=64
210945 On ch=1 n=c5 v=64
210945 On ch=1 n=e5 v=64
210945 On ch=1 n=a5 v=64
210945 On ch=1 n=a6 v=64
210945 Par ch=1 c=64 v=96
211063 On ch=1 n=a6 v=0
211063 On ch=1 n=a5 v=0
211063 On ch=1 n=e5 v=0
211063 On ch=1 n=c5 v=0
211063 On ch=1 n=c6 v=0
211184 Par ch=1 c=7 v=80
211305 On ch=1 n=c5 v=64
211305 On ch=1 n=a4 v=64
211305 On ch=1 n=e5 v=64
211305 On ch=1 n=a5 v=64
211305 On ch=1 n=e6 v=64
211363 On ch=1 n=e6 v=0
211363 On ch=1 n=a5 v=0
211363 On ch=1 n=e5 v=0
211363 On ch=1 n=a4 v=0
211363 On ch=1 n=c5 v=0
211424 Par ch=1 c=7 v=81
211425 On ch=1 n=c5 v=64
211425 On ch=1 n=a4 v=64
211425 On ch=1 n=e6 v=64
211425 On ch=1 n=a5 v=64
211425 On ch=1 n=e5 v=64
211543 On ch=1 n=e5 v=0
211543 On ch=1 n=a5 v=0
211543 On ch=1 n=e6 v=0
211543 On ch=1 n=a4 v=0
211543 On ch=1 n=c5 v=0
211625 Par ch=1 c=64 v=0
211664 Par ch=1 c=7 v=82
211665 On ch=1 n=c4 v=64
211665 On ch=1 n=f3 v=64
211665 On ch=1 n=f7 v=64
211665 On ch=1 n=f6 v=64
211665 On ch=1 n=a4 v=64
211665 On ch=1 n=a6 v=64
211665 Par ch=1 c=64 v=96
211783 On ch=1 n=a6 v=0
211783 On ch=1 n=a4 v=0
211783 On ch=1 n=f6 v=0
211783 On ch=1 n=f7 v=0
211783 On ch=1 n=f3 v=0
211783 On ch=1 n=c4 v=0
211904 Par ch=1 c=7 v=83
212025 On ch=1 n=c7 v=64
212025 On ch=1 n=f6 v=64
212025 On ch=1 n=c6 v=64
212025 On ch=1 n=c5 v=64
212025 On ch=1 n=f4 v=64
212025 On ch=1 n=a4 v=64
212083 On ch=1 n=a4 v=0
212083 On ch=1 n=f4 v=0
212083 On ch=1 n=c5 v=0
212083 On ch=1 n=c6 v=0
212083 On ch=1 n=f6 v=0
212083 On ch=1 n=c7 v=0
212144 Par ch=1 c=7 v=84
212145 On ch=1 n=c5 v=64
212145 On ch=1 n=f4 v=64
212145 On ch=1 n=c7 v=64
212145 On ch=1 n=f6 v=64
212145 On ch=1 n=c6 v=64
212145 On ch=1 n=a4 v=64
212263 On ch=1 n=a4 v=0
212263 On ch=1 n=c6 v=0
212263 On ch=1 n=f6 v=0
212263 On ch=1 n=c7 v=0
212263 On ch=1 n=f4 v=0
212263 On ch=1 n=c5 v=0
212345 Par ch=1 c=64 v=0
212384 Par ch=1 c=7 v=85
212385 On ch=1 n=f5 v=64
212385 On ch=1 n=c5 v=64
212385 On ch=1 n=c6 v=64
212385 On ch=1 n=a4 v=64
212385 On ch=1 n=a5 v=64
212385 On ch=1 n=a6 v=64
212385 Par ch=1 c=64 v=96
212503 On ch=1 n=a6 v=0
212503 On ch=1 n=a5 v=0
212503 On ch=1 n=a4 v=0
212503 On ch=1 n=c6 v=0
212503 On ch=1 n=c5 v=0
212503 On ch=1 n=f5 v=0
212624 Par ch=1 c=7 v=86
212745 On ch=1 n=f6 v=64
212745 On ch=1 n=f5 v=64
212745 On ch=1 n=c5 v=64
212745 On ch=1 n=f4 v=64
212745 On ch=1 n=a5 v=64
212745 On ch=1 n=a4 v=64
212803 On ch=1 n=a4 v=0
212803 On ch=1 n=a5 v=0
212803 On ch=1 n=f4 v=0
212803 On ch=1 n=c5 v=0
212803 On ch=1 n=f5 v=0
212803 On ch=1 n=f6 v=0
212864 Par ch=1 c=7 v=87
212865 On ch=1 n=c5 v=64
212865 On ch=1 n=f4 v=64
212865 On ch=1 n=f6 v=64
212865 On ch=1 n=f5 v=64
212865 On ch=1 n=a4 v=64
212865 On ch=1 n=a5 v=64
212983 On ch=1 n=a5 v=0
212983 On ch=1 n=a4 v=0
212983 On ch=1 n=f5 v=0
212983 On ch=1 n=f6 v=0
212983 On ch=1 n=f4 v=0
212983 On ch=1 n=c5 v=0
213065 Par ch=1 c=64 v=0
213104 Par ch=1 c=7 v=88
213105 On ch=1 n=g#4 v=64
213105 On ch=1 n=f7 v=64
213105 On ch=1 n=g#6 v=64
213105 On ch=1 n=f6 v=64
213105 On ch=1 n=c#4 v=64
213105 On ch=1 n=c#5 v=64
213105 Par ch=1 c=64 v=96
213223 On ch=1 n=c#5 v=0
213223 On ch=1 n=c#4 v=0
213223 On ch=1 n=f6 v=0
213223 On ch=1 n=g#6 v=0
213223 On ch=1 n=f7 v=0
213223 On ch=1 n=g#4 v=0
213344 Par ch=1 c=7 v=89
213465 On ch=1 n=f4 v=64
213465 On ch=1 n=f5 v=64
213465 On ch=1 n=c#6 v=64
213465 On ch=1 n=c#7 v=64
213523 On ch=1 n=c#7 v=0
213523 On ch=1 n=c#6 v=0
213523 On ch=1 n=f5 v=0
213523 On ch=1 n=f4 v=0
213584 Par ch=1 c=7 v=90
213585 On ch=1 n=f4 v=64
213585 On ch=1 n=f5 v=64
213585 On ch=1 n=c#6 v=64
213585 On ch=1 n=c#7 v=64
213703 On ch=1 n=c#7 v=0
213703 On ch=1 n=c#6 v=0
213703 On ch=1 n=f5 v=0
213703 On ch=1 n=f4 v=0
213785 Par ch=1 c=64 v=0
213824 Par ch=1 c=7 v=91
213825 On ch=1 n=a#3 v=64
213825 On ch=1 n=a#4 v=64
213825 On ch=1 n=f7 v=64
213825 On ch=1 n=a#6 v=64
213825 On ch=1 n=f6 v=64
213825 On ch=1 n=c#7 v=64
213825 Par ch=1 c=64 v=96
213943 On ch=1 n=c#7 v=0
213943 On ch=1 n=f6 v=0
213943 On ch=1 n=a#6 v=0
213943 On ch=1 n=f7 v=0
213943 On ch=1 n=a#4 v=0
213943 On ch=1 n=a#3 v=0
214064 Par ch=1 c=7 v=92
214185 On ch=1 n=c#4 v=64
214185 On ch=1 n=c#5 v=64
214185 On ch=1 n=c#6 v=64
214185 On ch=1 n=c#7 v=64
214243 On ch=1 n=c#7 v=0
214243 On ch=1 n=c#6 v=0
214243 On ch=1 n=c#5 v=0
214243 On ch=1 n=c#4 v=0
214304 Par ch=1 c=7 v=93
214305 On ch=1 n=c#6 v=64
214305 On ch=1 n=c#7 v=64
214305 On ch=1 n=c#4 v=64
214305 On ch=1 n=c#5 v=64
214423 On ch=1 n=c#5 v=0
214423 On ch=1 n=c#4 v=0
214423 On ch=1 n=c#7 v=0
214423 On ch=1 n=c#6 v=0
214505 Par ch=1 c=64 v=0
214544 Par ch=1 c=7 v=94
214545 On ch=1 n=a#6 v=64
214545 On ch=1 n=f#3 v=64
214545 On ch=1 n=f#4 v=64
214545 On ch=1 n=f#6 v=64
214545 On ch=1 n=c#7 v=64
214545 On ch=1 n=f#7 v=64
214545 Par ch=1 c=64 v=96
214663 On ch=1 n=f#7 v=0
214663 On ch=1 n=c#7 v=0
214663 On ch=1 n=f#6 v=0
214663 On ch=1 n=f#4 v=0
214663 On ch=1 n=f#3 v=0
214663 On ch=1 n=a#6 v=0
214784 Par ch=1 c=7 v=95
214905 On ch=1 n=a#3 v=64
214905 On ch=1 n=a#4 v=64
214905 On ch=1 n=c#6 v=64
214905 On ch=1 n=c#7 v=64
214963 On ch=1 n=c#7 v=0
214963 On ch=1 n=c#6 v=0
214963 On ch=1 n=a#4 v=0
214963 On ch=1 n=a#3 v=0
215024 Par ch=1 c=7 v=96
215025 On ch=1 n=a#3 v=64
215025 On ch=1 n=a#4 v=64
215025 On ch=1 n=c#6 v=64
215025 On ch=1 n=c#7 v=64
215143 On ch=1 n=c#7 v=0
215143 On ch=1 n=c#6 v=0
215143 On ch=1 n=a#4 v=0
215143 On ch=1 n=a#3 v=0
215225 Par ch=1 c=64 v=0
215264 Par ch=1 c=7 v=97
215265 On ch=1 n=d#3 v=64
215265 On ch=1 n=d#4 v=64
215265 On ch=1 n=d#7 v=64
215265 On ch=1 n=a#6 v=64
215265 On ch=1 n=f#7 v=64
215265 On ch=1 n=f#6 v=64
215265 Par ch=1 c=64 v=96
215383 On ch=1 n=f#6 v=0
215383 On ch=1 n=f#7 v=0
215383 On ch=1 n=a#6 v=0
215383 On ch=1 n=d#7 v=0
215383 On ch=1 n=d#4 v=0
215383 On ch=1 n=d#3 v=0
215504 Par ch=1 c=7 v=98
215625 On ch=1 n=d#6 v=64
215625 On ch=1 n=d#7 v=64
215625 On ch=1 n=f#3 v=64
215625 On ch=1 n=f#4 v=64
215683 On ch=1 n=f#4 v=0
215683 On ch=1 n=f#3 v=0
215683 On ch=1 n=d#7 v=0
215683 On ch=1 n=d#6 v=0
215744 Par ch=1 c=7 v=99
215745 On ch=1 n=d#6 v=64
215745 On ch=1 n=d#7 v=64
215745 On ch=1 n=f#3 v=64
215745 On ch=1 n=f#4 v=64
215863 On ch=1 n=f#4 v=0
215863 On ch=1 n=f#3 v=0
215863 On ch=1 n=d#7 v=0
215863 On ch=1 n=d#6 v=0
215945 Par ch=1 c=64 v=0
215984 Par ch=1 c=7 v=100
215985 Par ch=1 c=7 v=100
215985 On ch=1 n=b3 v=64
215985 On ch=1 n=b2 v=64
215985 On ch=1 n=d#7 v=64
215985 On ch=1 n=f#6 v=64
215985 Par ch=1 c=64 v=96
216103 On ch=1 n=f#6 v=0
216103 On ch=1 n=d#7 v=0
216105 On ch=1 n=f#7 v=64
216223 On ch=1 n=f#7 v=0
216223 On ch=1 n=b2 v=0
216223 On ch=1 n=b3 v=0
216225 On ch=1 n=f#4 v=64
216225 On ch=1 n=d#7 v=64
216225 On ch=1 n=f#6 v=64
216343 On ch=1 n=f#6 v=0
216343 On ch=1 n=d#7 v=0
216343 On ch=1 n=f#4 v=0
216345 On ch=1 n=f#7 v=64
216463 On ch=1 n=f#7 v=0
216465 On ch=1 n=e4 v=64
216465 On ch=1 n=d#7 v=64
216465 On ch=1 n=f#6 v=64
216560 Par ch=1 c=7 v=101
216583 On ch=1 n=f#6 v=0
216583 On ch=1 n=d#7 v=0
216583 On ch=1 n=e4 v=0
216585 On ch=1 n=f#7 v=64
216703 On ch=1 n=f#7 v=0
216705 On ch=1 n=d#4 v=64
216705 On ch=1 n=d#7 v=64
216705 On ch=1 n=f#6 v=64
216705 Par ch=1 c=64 v=0
216823 On ch=1 n=f#6 v=0
216823 On ch=1 n=d#7 v=0
216823 On ch=1 n=d#4 v=0
216825 On ch=1 n=f#7 v=64
216943 On ch=1 n=f#7 v=0
216945 On ch=1 n=c#4 v=64
216945 On ch=1 n=d#7 v=64
216945 On ch=1 n=f#6 v=64
217063 On ch=1 n=f#6 v=0
217063 On ch=1 n=d#7 v=0
217063 On ch=1 n=c#4 v=0
217065 On ch=1 n=f#7 v=64
217136 Par ch=1 c=7 v=102
217183 On ch=1 n=f#7 v=0
217185 On ch=1 n=b3 v=64
217185 On ch=1 n=d#7 v=64
217185 On ch=1 n=f#6 v=64
217303 On ch=1 n=f#6 v=0
217303 On ch=1 n=d#7 v=0
217303 On ch=1 n=b3 v=0
217305 On ch=1 n=f#7 v=64
217423 On ch=1 n=f#7 v=0
217425 On ch=1 n=b5 v=64
217425 On ch=1 n=d#5 v=64
217425 On ch=1 n=d#7 v=64
217425 On ch=1 n=g#6 v=64
217425 Par ch=1 c=64 v=96
217543 On ch=1 n=g#6 v=0
217543 On ch=1 n=d#7 v=0
217543 On ch=1 n=d#5 v=0
217543 On ch=1 n=b5 v=0
217545 On ch=1 n=g#7 v=64
217663 On ch=1 n=g#7 v=0
217665 On ch=1 n=d#7 v=64
217665 On ch=1 n=g#6 v=64
217712 Par ch=1 c=7 v=103
217783 On ch=1 n=g#6 v=0
217783 On ch=1 n=d#7 v=0
217785 On ch=1 n=g#5 v=64
217785 On ch=1 n=b4 v=64
217785 On ch=1 n=g#7 v=64
217843 On ch=1 n=b4 v=0
217843 On ch=1 n=g#5 v=0
217903 On ch=1 n=g#7 v=0
217905 On ch=1 n=g#5 v=64
217905 On ch=1 n=b4 v=64
217905 On ch=1 n=d#7 v=64
217905 On ch=1 n=g#6 v=64
218023 On ch=1 n=g#6 v=0
218023 On ch=1 n=d#7 v=0
218023 On ch=1 n=b4 v=0
218023 On ch=1 n=g#5 v=0
218025 On ch=1 n=g#7 v=64
218143 On ch=1 n=g#7 v=0
218145 On ch=1 n=d#5 v=64
218145 On ch=1 n=g#4 v=64
218145 On ch=1 n=d#7 v=64
218145 On ch=1 n=g#6 v=64
218263 On ch=1 n=g#6 v=0
218263 On ch=1 n=d#7 v=0
218263 On ch=1 n=g#4 v=0
218263 On ch=1 n=d#5 v=0
218265 On ch=1 n=g#7 v=64
218288 Par ch=1 c=7 v=104
218383 On ch=1 n=g#7 v=0
218385 On ch=1 n=d#7 v=64
218385 On ch=1 n=g#6 v=64
218503 On ch=1 n=g#6 v=0
218503 On ch=1 n=d#7 v=0
218505 On ch=1 n=b4 v=64
218505 On ch=1 n=d#4 v=64
218505 On ch=1 n=g#7 v=64
218563 On ch=1 n=d#4 v=0
218563 On ch=1 n=b4 v=0
218623 On ch=1 n=g#7 v=0
218625 On ch=1 n=b4 v=64
218625 On ch=1 n=d#4 v=64
218625 On ch=1 n=d#7 v=64
218625 On ch=1 n=g#6 v=64
218743 On ch=1 n=g#6 v=0
218743 On ch=1 n=d#7 v=0
218743 On ch=1 n=d#4 v=0
218743 On ch=1 n=b4 v=0
218745 On ch=1 n=g#7 v=64
218825 Par ch=1 c=64 v=0
218863 On ch=1 n=g#7 v=0
218864 Par ch=1 c=7 v=105
218865 On ch=1 n=g#3 v=64
218865 On ch=1 n=g#2 v=64
218865 On ch=1 n=d#7 v=64
218865 On ch=1 n=b6 v=64
218865 Par ch=1 c=64 v=96
218983 On ch=1 n=b6 v=0
218983 On ch=1 n=d#7 v=0
218985 On ch=1 n=b7 v=64
219103 On ch=1 n=b7 v=0
219103 On ch=1 n=g#2 v=0
219103 On ch=1 n=g#3 v=0
219105 On ch=1 n=d#4 v=64
219105 On ch=1 n=d#7 v=64
219105 On ch=1 n=b6 v=64
219223 On ch=1 n=b6 v=0
219223 On ch=1 n=d#7 v=0
219223 On ch=1 n=d#4 v=0
219225 On ch=1 n=b7 v=64
219343 On ch=1 n=b7 v=0
219345 On ch=1 n=c#4 v=64
219345 On ch=1 n=d#7 v=64
219345 On ch=1 n=b6 v=64
219440 Par ch=1 c=7 v=106
219463 On ch=1 n=b6 v=0
219463 On ch=1 n=d#7 v=0
219463 On ch=1 n=c#4 v=0
219465 On ch=1 n=b7 v=64
219583 On ch=1 n=b7 v=0
219585 On ch=1 n=b3 v=64
219585 On ch=1 n=d#7 v=64
219585 On ch=1 n=b6 v=64
219585 Par ch=1 c=64 v=0
219703 On ch=1 n=b6 v=0
219703 On ch=1 n=d#7 v=0
219703 On ch=1 n=b3 v=0
219705 On ch=1 n=b7 v=64
219823 On ch=1 n=b7 v=0
219825 On ch=1 n=a#3 v=64
219825 On ch=1 n=d#7 v=64
219825 On ch=1 n=b6 v=64
219943 On ch=1 n=b6 v=0
219943 On ch=1 n=d#7 v=0
219943 On ch=1 n=a#3 v=0
219945 On ch=1 n=b7 v=64
220016 Par ch=1 c=7 v=107
220063 On ch=1 n=b7 v=0
220065 On ch=1 n=g#3 v=64
220065 On ch=1 n=d#7 v=64
220065 On ch=1 n=b6 v=64
220183 On ch=1 n=b6 v=0
220183 On ch=1 n=d#7 v=0
220183 On ch=1 n=g#3 v=0
220185 On ch=1 n=b7 v=64
220303 On ch=1 n=b7 v=0
220305 On ch=1 n=d5 v=64
220305 On ch=1 n=b5 v=64
220305 On ch=1 n=d7 v=64
220305 On ch=1 n=b6 v=64
220305 Par ch=1 c=64 v=96
220423 On ch=1 n=b6 v=0
220423 On ch=1 n=d7 v=0
220423 On ch=1 n=b5 v=0
220423 On ch=1 n=d5 v=0
220425 On ch=1 n=b7 v=64
220543 On ch=1 n=b7 v=0
220545 On ch=1 n=d7 v=64
220545 On ch=1 n=b6 v=64
220592 Par ch=1 c=7 v=108
220663 On ch=1 n=b6 v=0
220663 On ch=1 n=d7 v=0
220665 On ch=1 n=f5 v=64
220665 On ch=1 n=b4 v=64
220665 On ch=1 n=b7 v=64
220723 On ch=1 n=b4 v=0
220723 On ch=1 n=f5 v=0
220783 On ch=1 n=b7 v=0
220785 On ch=1 n=f5 v=64
220785 On ch=1 n=b4 v=64
220785 On ch=1 n=d7 v=64
220785 On ch=1 n=b6 v=64
220903 On ch=1 n=b6 v=0
220903 On ch=1 n=d7 v=0
220903 On ch=1 n=b4 v=0
220903 On ch=1 n=f5 v=0
220905 On ch=1 n=b7 v=64
221023 On ch=1 n=b7 v=0
221025 On ch=1 n=d5 v=64
221025 On ch=1 n=f4 v=64
221025 On ch=1 n=d7 v=64
221025 On ch=1 n=b6 v=64
221143 On ch=1 n=b6 v=0
221143 On ch=1 n=d7 v=0
221143 On ch=1 n=f4 v=0
221143 On ch=1 n=d5 v=0
221145 On ch=1 n=b7 v=64
221168 Par ch=1 c=7 v=109
221263 On ch=1 n=b7 v=0
221265 On ch=1 n=d7 v=64
221265 On ch=1 n=b6 v=64
221383 On ch=1 n=b6 v=0
221383 On ch=1 n=d7 v=0
221385 On ch=1 n=d4 v=64
221385 On ch=1 n=b4 v=64
221385 On ch=1 n=b7 v=64
221443 On ch=1 n=b4 v=0
221443 On ch=1 n=d4 v=0
221503 On ch=1 n=b7 v=0
221505 On ch=1 n=d4 v=64
221505 On ch=1 n=b4 v=64
221505 On ch=1 n=d7 v=64
221505 On ch=1 n=b6 v=64
221623 On ch=1 n=b6 v=0
221623 On ch=1 n=d7 v=0
221623 On ch=1 n=b4 v=0
221623 On ch=1 n=d4 v=0
221625 On ch=1 n=b7 v=64
221705 Par ch=1 c=64 v=0
221743 On ch=1 n=b7 v=0
221744 Par ch=1 c=7 v=110
221745 On ch=1 n=g#4 v=64
221745 On ch=1 n=g#3 v=64
221745 On ch=1 n=d#7 v=64
221745 On ch=1 n=c7 v=64
221745 Par ch=1 c=64 v=96
221863 On ch=1 n=c7 v=0
221863 On ch=1 n=d#7 v=0
221863 On ch=1 n=g#3 v=0
221863 On ch=1 n=g#4 v=0
221865 On ch=1 n=c8 v=64
221983 On ch=1 n=c8 v=0
221985 On ch=1 n=d#7 v=64
221985 On ch=1 n=c7 v=64
222103 On ch=1 n=c7 v=0
222103 On ch=1 n=d#7 v=0
222105 On ch=1 n=d#3 v=64
222105 On ch=1 n=d#4 v=64
222105 On ch=1 n=c8 v=64
222163 On ch=1 n=d#4 v=0
222163 On ch=1 n=d#3 v=0
222223 On ch=1 n=c8 v=0
222225 On ch=1 n=d#3 v=64
222225 On ch=1 n=d#4 v=64
222225 On ch=1 n=d#7 v=64
222225 On ch=1 n=c7 v=64
222320 Par ch=1 c=7 v=111
222343 On ch=1 n=c7 v=0
222343 On ch=1 n=d#7 v=0
222343 On ch=1 n=d#4 v=0
222343 On ch=1 n=d#3 v=0
222345 On ch=1 n=c8 v=64
222425 Par ch=1 c=64 v=0
222463 On ch=1 n=c8 v=0
222465 On ch=1 n=g#3 v=64
222465 On ch=1 n=g#4 v=64
222465 On ch=1 n=e7 v=64
222465 On ch=1 n=c#7 v=64
222465 Par ch=1 c=64 v=96
222583 On ch=1 n=c#7 v=0
222583 On ch=1 n=e7 v=0
222583 On ch=1 n=g#4 v=0
222583 On ch=1 n=g#3 v=0
222585 On ch=1 n=c#8 v=64
222703 On ch=1 n=c#8 v=0
222705 On ch=1 n=e7 v=64
222705 On ch=1 n=c#7 v=64
222823 On ch=1 n=c#7 v=0
222823 On ch=1 n=e7 v=0
222825 On ch=1 n=c#3 v=64
222825 On ch=1 n=c#4 v=64
222825 On ch=1 n=c#8 v=64
222883 On ch=1 n=c#4 v=0
222883 On ch=1 n=c#3 v=0
222893 Par ch=1 c=7 v=112
222940 On ch=1 n=c#8 v=0
222942 On ch=1 n=c#3 v=64
222942 On ch=1 n=c#4 v=64
222942 On ch=1 n=e7 v=64
222942 On ch=1 n=c#7 v=64
223060 On ch=1 n=c#7 v=0
223060 On ch=1 n=e7 v=0
223060 On ch=1 n=c#4 v=0
223060 On ch=1 n=c#3 v=0
223062 On ch=1 n=c#8 v=64
223142 Par ch=1 c=64 v=0
223180 On ch=1 n=c#8 v=0
223182 On ch=1 n=g#3 v=64
223182 On ch=1 n=g#4 v=64
223182 On ch=1 n=f7 v=64
223182 On ch=1 n=d7 v=64
223182 Par ch=1 c=64 v=96
223300 On ch=1 n=d7 v=0
223300 On ch=1 n=f7 v=0
223300 On ch=1 n=g#4 v=0
223300 On ch=1 n=g#3 v=0
223302 On ch=1 n=d8 v=64
223420 On ch=1 n=d8 v=0
223422 On ch=1 n=f7 v=64
223422 On ch=1 n=d7 v=64
223469 Par ch=1 c=7 v=113
223540 On ch=1 n=d7 v=0
223540 On ch=1 n=f7 v=0
223542 On ch=1 n=b2 v=64
223542 On ch=1 n=b3 v=64
223542 On ch=1 n=d8 v=64
223600 On ch=1 n=b3 v=0
223600 On ch=1 n=b2 v=0
223660 On ch=1 n=d8 v=0
223662 On ch=1 n=b2 v=64
223662 On ch=1 n=b3 v=64
223662 On ch=1 n=f7 v=64
223662 On ch=1 n=d7 v=64
223780 On ch=1 n=d7 v=0
223780 On ch=1 n=f7 v=0
223780 On ch=1 n=b3 v=0
223780 On ch=1 n=b2 v=0
223782 On ch=1 n=d8 v=64
223862 Par ch=1 c=64 v=0
223900 On ch=1 n=d8 v=0
223902 On ch=1 n=g#3 v=64
223902 On ch=1 n=g#4 v=64
223902 On ch=1 n=f7 v=64
223902 On ch=1 n=d7 v=64
223902 Par ch=1 c=64 v=96
224020 On ch=1 n=d7 v=0
224020 On ch=1 n=f7 v=0
224020 On ch=1 n=g#4 v=0
224020 On ch=1 n=g#3 v=0
224022 On ch=1 n=d8 v=64
224045 Par ch=1 c=7 v=114
224140 On ch=1 n=d8 v=0
224142 On ch=1 n=f7 v=64
224142 On ch=1 n=d7 v=64
224260 On ch=1 n=d7 v=0
224260 On ch=1 n=f7 v=0
224262 On ch=1 n=a#2 v=64
224262 On ch=1 n=a#3 v=64
224262 On ch=1 n=d8 v=64
224320 On ch=1 n=a#3 v=0
224320 On ch=1 n=a#2 v=0
224380 On ch=1 n=d8 v=0
224382 On ch=1 n=a#2 v=64
224382 On ch=1 n=a#3 v=64
224382 On ch=1 n=f7 v=64
224382 On ch=1 n=d7 v=64
224500 On ch=1 n=d7 v=0
224500 On ch=1 n=f7 v=0
224500 On ch=1 n=a#3 v=0
224500 On ch=1 n=a#2 v=0
224502 On ch=1 n=d8 v=64
224582 Par ch=1 c=64 v=0
224620 On ch=1 n=d8 v=0
224621 Par ch=1 c=7 v=115
224622 On ch=1 n=a3 v=64
224622 On ch=1 n=a4 v=64
224622 On ch=1 n=f7 v=64
224622 On ch=1 n=d7 v=64
224622 Par ch=1 c=64 v=96
224740 On ch=1 n=d7 v=0
224740 On ch=1 n=f7 v=0
224740 On ch=1 n=a4 v=0
224740 On ch=1 n=a3 v=0
224742 On ch=1 n=d8 v=64
224860 On ch=1 n=d8 v=0
224862 On ch=1 n=f7 v=64
224862 On ch=1 n=d7 v=64
224980 On ch=1 n=d7 v=0
224980 On ch=1 n=f7 v=0
224982 On ch=1 n=a2 v=64
224982 On ch=1 n=a3 v=64
224982 On ch=1 n=d8 v=64
225040 On ch=1 n=a3 v=0
225040 On ch=1 n=a2 v=0
225100 On ch=1 n=d8 v=0
225102 On ch=1 n=a2 v=64
225102 On ch=1 n=a3 v=64
225102 On ch=1 n=f7 v=64
225102 On ch=1 n=d7 v=64
225197 Par ch=1 c=7 v=116
225220 On ch=1 n=d7 v=0
225220 On ch=1 n=f7 v=0
225220 On ch=1 n=a3 v=0
225220 On ch=1 n=a2 v=0
225222 On ch=1 n=d8 v=64
225302 Par ch=1 c=64 v=0
225340 On ch=1 n=d8 v=0
225342 On ch=1 n=a#3 v=64
225342 On ch=1 n=a#4 v=64
225342 On ch=1 n=f7 v=64
225342 On ch=1 n=d7 v=64
225342 Par ch=1 c=64 v=96
225460 On ch=1 n=d7 v=0
225460 On ch=1 n=f7 v=0
225460 On ch=1 n=a#4 v=0
225460 On ch=1 n=a#3 v=0
225462 On ch=1 n=d8 v=64
225580 On ch=1 n=d8 v=0
225582 On ch=1 n=f7 v=64
225582 On ch=1 n=d7 v=64
225700 On ch=1 n=d7 v=0
225700 On ch=1 n=f7 v=0
225702 On ch=1 n=g#2 v=64
225702 On ch=1 n=g#3 v=64
225702 On ch=1 n=d8 v=64
225760 On ch=1 n=g#3 v=0
225760 On ch=1 n=g#2 v=0
225770 Par ch=1 c=7 v=117
225817 On ch=1 n=d8 v=0
225819 On ch=1 n=g#2 v=64
225819 On ch=1 n=g#3 v=64
225819 On ch=1 n=f7 v=64
225819 On ch=1 n=d7 v=64
225937 On ch=1 n=d7 v=0
225937 On ch=1 n=f7 v=0
225937 On ch=1 n=g#3 v=0
225937 On ch=1 n=g#2 v=0
225939 On ch=1 n=d8 v=64
226019 Par ch=1 c=64 v=0
226057 On ch=1 n=d8 v=0
226059 Tempo 394737
226059 On ch=1 n=b3 v=64
226059 On ch=1 n=b4 v=64
226059 On ch=1 n=f7 v=64
226059 On ch=1 n=d7 v=64
226059 Par ch=1 c=64 v=96
226130 Tempo 397351
226177 On ch=1 n=d7 v=0
226177 On ch=1 n=f7 v=0
226177 On ch=1 n=b4 v=0
226177 On ch=1 n=b3 v=0
226179 On ch=1 n=d8 v=64
226202 Tempo 400000
226274 Tempo 402685
226297 On ch=1 n=d8 v=0
226299 On ch=1 n=f7 v=64
226299 On ch=1 n=d7 v=64
226346 Tempo 405405
226346 Par ch=1 c=7 v=118
226417 On ch=1 n=d7 v=0
226417 On ch=1 n=f7 v=0
226418 Tempo 408163
226419 On ch=1 n=g#2 v=64
226419 On ch=1 n=g#3 v=64
226419 On ch=1 n=d8 v=64
226477 On ch=1 n=g#3 v=0
226477 On ch=1 n=g#2 v=0
226487 Tempo 410959
226534 On ch=1 n=d8 v=0
226536 On ch=1 n=g#2 v=64
226536 On ch=1 n=g#3 v=64
226536 On ch=1 n=f7 v=64
226536 On ch=1 n=d7 v=64
226559 Tempo 413793
226631 Tempo 416667
226654 On ch=1 n=d7 v=0
226654 On ch=1 n=f7 v=0
226654 On ch=1 n=g#3 v=0
226654 On ch=1 n=g#2 v=0
226656 On ch=1 n=d8 v=64
226703 Tempo 419580
226736 Par ch=1 c=64 v=0
226774 On ch=1 n=d8 v=0
226775 Tempo 422535
226776 On ch=1 n=b3 v=64
226776 On ch=1 n=b4 v=64
226776 On ch=1 n=f#7 v=64
226776 On ch=1 n=d#7 v=64
226776 Par ch=1 c=64 v=96
226847 Tempo 425532
226894 On ch=1 n=d#7 v=0
226894 On ch=1 n=f#7 v=0
226894 On ch=1 n=b4 v=0
226894 On ch=1 n=b3 v=0
226896 On ch=1 n=d#8 v=64
226919 Tempo 428571
226919 Par ch=1 c=7 v=119
226991 Tempo 431655
227014 On ch=1 n=d#8 v=0
227016 On ch=1 n=f#7 v=64
227016 On ch=1 n=d#7 v=64
227063 Tempo 434783
227134 On ch=1 n=d#7 v=0
227134 On ch=1 n=f#7 v=0
227135 Tempo 437956
227136 On ch=1 n=g2 v=64
227136 On ch=1 n=g3 v=64
227136 On ch=1 n=d#8 v=64
227194 On ch=1 n=g3 v=0
227194 On ch=1 n=g2 v=0
227204 Tempo 441176
227251 On ch=1 n=d#8 v=0
227253 On ch=1 n=g2 v=64
227253 On ch=1 n=g3 v=64
227253 On ch=1 n=f#7 v=64
227253 On ch=1 n=d#7 v=64
227276 Tempo 444444
227348 Tempo 447761
227371 On ch=1 n=d#7 v=0
227371 On ch=1 n=f#7 v=0
227371 On ch=1 n=g3 v=0
227371 On ch=1 n=g2 v=0
227373 On ch=1 n=d#8 v=64
227420 Tempo 451128
227453 Par ch=1 c=64 v=0
227491 On ch=1 n=d#8 v=0
227492 Tempo 454545
227492 Par ch=1 c=7 v=120
227493 Tempo 394737
227493 On ch=1 n=c4 v=64
227493 On ch=1 n=g3 v=64
227493 On ch=1 n=c3 v=64
227493 On ch=1 n=e3 v=64
227493 On ch=1 n=e8 v=64
227493 On ch=1 n=c8 v=64
227493 On ch=1 n=g7 v=64
227493 On ch=1 n=e7 v=64
227493 Par ch=1 c=64 v=96
227731 On ch=1 n=e7 v=0
227731 On ch=1 n=g7 v=0
227731 On ch=1 n=c8 v=0
227731 On ch=1 n=e8 v=0
227731 On ch=1 n=e3 v=0
227731 On ch=1 n=c3 v=0
227731 On ch=1 n=g3 v=0
227731 On ch=1 n=c4 v=0
227853 On ch=1 n=e4 v=64
227853 On ch=1 n=c4 v=64
227853 On ch=1 n=g3 v=64
227853 On ch=1 n=e3 v=64
227853 On ch=1 n=c8 v=64
227853 On ch=1 n=g7 v=64
227853 On ch=1 n=e7 v=64
227853 On ch=1 n=c7 v=64
227971 On ch=1 n=c7 v=0
227971 On ch=1 n=e7 v=0
227971 On ch=1 n=g7 v=0
227971 On ch=1 n=c8 v=0
227971 On ch=1 n=e3 v=0
227971 On ch=1 n=g3 v=0
227971 On ch=1 n=c4 v=0
227971 On ch=1 n=e4 v=0
227973 On ch=1 n=e4 v=64
227973 On ch=1 n=c4 v=64
227973 On ch=1 n=g3 v=64
227973 On ch=1 n=e3 v=64
227973 On ch=1 n=c8 v=64
227973 On ch=1 n=g7 v=64
227973 On ch=1 n=e7 v=64
227973 On ch=1 n=c7 v=64
228211 On ch=1 n=c7 v=0
228211 On ch=1 n=e7 v=0
228211 On ch=1 n=g7 v=0
228211 On ch=1 n=c8 v=0
228211 On ch=1 n=e3 v=0
228211 On ch=1 n=g3 v=0
228211 On ch=1 n=c4 v=0
228211 On ch=1 n=e4 v=0
228213 On ch=1 n=e4 v=64
228213 On ch=1 n=c4 v=64
228213 On ch=1 n=g3 v=64
228213 On ch=1 n=e3 v=64
228213 On ch=1 n=c8 v=64
228213 On ch=1 n=g7 v=64
228213 On ch=1 n=e7 v=64
228213 On ch=1 n=c7 v=64
228451 On ch=1 n=c7 v=0
228451 On ch=1 n=e7 v=0
228451 On ch=1 n=g7 v=0
228451 On ch=1 n=c8 v=0
228451 On ch=1 n=e3 v=0
228451 On ch=1 n=g3 v=0
228451 On ch=1 n=c4 v=0
228451 On ch=1 n=e4 v=0
228573 On ch=1 n=g4 v=64
228573 On ch=1 n=e4 v=64
228573 On ch=1 n=c4 v=64
228573 On ch=1 n=g3 v=64
228573 On ch=1 n=g7 v=64
228573 On ch=1 n=e7 v=64
228573 On ch=1 n=c7 v=64
228573 On ch=1 n=g6 v=64
228691 On ch=1 n=g6 v=0
228691 On ch=1 n=c7 v=0
228691 On ch=1 n=e7 v=0
228691 On ch=1 n=g7 v=0
228691 On ch=1 n=g3 v=0
228691 On ch=1 n=c4 v=0
228691 On ch=1 n=e4 v=0
228691 On ch=1 n=g4 v=0
228693 On ch=1 n=g4 v=64
228693 On ch=1 n=e4 v=64
228693 On ch=1 n=c4 v=64
228693 On ch=1 n=g3 v=64
228693 On ch=1 n=g7 v=64
228693 On ch=1 n=e7 v=64
228693 On ch=1 n=c7 v=64
228693 On ch=1 n=g6 v=64
228893 Par ch=1 c=64 v=0
228931 On ch=1 n=g6 v=0
228931 On ch=1 n=c7 v=0
228931 On ch=1 n=e7 v=0
228931 On ch=1 n=g7 v=0
228931 On ch=1 n=g3 v=0
228931 On ch=1 n=c4 v=0
228931 On ch=1 n=e4 v=0
228931 On ch=1 n=g4 v=0
228933 On ch=1 n=a4 v=64
228933 On ch=1 n=e4 v=64
228933 On ch=1 n=c4 v=64
228933 On ch=1 n=a3 v=64
228933 On ch=1 n=e7 v=64
228933 On ch=1 n=c7 v=64
228933 On ch=1 n=a6 v=64
228933 On ch=1 n=e6 v=64
228933 Par ch=1 c=64 v=96
229171 On ch=1 n=e6 v=0
229171 On ch=1 n=a6 v=0
229171 On ch=1 n=c7 v=0
229171 On ch=1 n=e7 v=0
229171 On ch=1 n=a3 v=0
229171 On ch=1 n=c4 v=0
229171 On ch=1 n=e4 v=0
229171 On ch=1 n=a4 v=0
229293 On ch=1 n=c5 v=64
229293 On ch=1 n=a4 v=64
229293 On ch=1 n=e4 v=64
229293 On ch=1 n=c4 v=64
229293 On ch=1 n=c7 v=64
229293 On ch=1 n=a6 v=64
229293 On ch=1 n=e6 v=64
229293 On ch=1 n=c6 v=64
229411 On ch=1 n=c6 v=0
229411 On ch=1 n=e6 v=0
229411 On ch=1 n=a6 v=0
229411 On ch=1 n=c7 v=0
229411 On ch=1 n=c4 v=0
229411 On ch=1 n=e4 v=0
229411 On ch=1 n=a4 v=0
229411 On ch=1 n=c5 v=0
229413 On ch=1 n=c5 v=64
229413 On ch=1 n=a4 v=64
229413 On ch=1 n=e4 v=64
229413 On ch=1 n=c4 v=64
229413 On ch=1 n=c7 v=64
229413 On ch=1 n=a6 v=64
229413 On ch=1 n=e6 v=64
229413 On ch=1 n=c6 v=64
229651 On ch=1 n=c6 v=0
229651 On ch=1 n=e6 v=0
229651 On ch=1 n=a6 v=0
229651 On ch=1 n=c7 v=0
229651 On ch=1 n=c4 v=0
229651 On ch=1 n=e4 v=0
229651 On ch=1 n=a4 v=0
229651 On ch=1 n=c5 v=0
229653 On ch=1 n=c5 v=64
229653 On ch=1 n=a4 v=64
229653 On ch=1 n=e4 v=64
229653 On ch=1 n=c4 v=64
229653 On ch=1 n=c6 v=64
229653 On ch=1 n=e6 v=64
229653 On ch=1 n=a6 v=64
229653 On ch=1 n=c7 v=64
230333 Par ch=1 c=64 v=0
230371 On ch=1 n=c7 v=0
230371 On ch=1 n=a6 v=0
230371 On ch=1 n=e6 v=0
230371 On ch=1 n=c6 v=0
230371 On ch=1 n=c4 v=0
230371 On ch=1 n=e4 v=0
230371 On ch=1 n=a4 v=0
230371 On ch=1 n=c5 v=0
230373 On ch=1 n=g4 v=64
230373 On ch=1 n=d4 v=64
230373 On ch=1 n=g3 v=64
230373 On ch=1 n=g7 v=64
230373 On ch=1 n=b6 v=64
230373 On ch=1 n=g6 v=64
230373 On ch=1 n=f6 v=64
230373 Par ch=1 c=64 v=96
230611 On ch=1 n=f6 v=0
230611 On ch=1 n=g6 v=0
230611 On ch=1 n=b6 v=0
230611 On ch=1 n=g7 v=0
230611 On ch=1 n=g3 v=0
230611 On ch=1 n=d4 v=0
230611 On ch=1 n=g4 v=0
230733 On ch=1 n=f5 v=64
230733 On ch=1 n=b4 v=64
230733 On ch=1 n=g4 v=64
230733 On ch=1 n=d7 v=64
230733 On ch=1 n=g6 v=64
230733 On ch=1 n=d6 v=64
230851 On ch=1 n=d6 v=0
230851 On ch=1 n=g6 v=0
230851 On ch=1 n=d7 v=0
230851 On ch=1 n=g4 v=0
230851 On ch=1 n=b4 v=0
230851 On ch=1 n=f5 v=0
230853 On ch=1 n=f5 v=64
230853 On ch=1 n=b4 v=64
230853 On ch=1 n=g4 v=64
230853 On ch=1 n=d7 v=64
230853 On ch=1 n=g6 v=64
230853 On ch=1 n=d6 v=64
231091 On ch=1 n=d6 v=0
231091 On ch=1 n=g6 v=0
231091 On ch=1 n=d7 v=0
231091 On ch=1 n=g4 v=0
231091 On ch=1 n=b4 v=0
231091 On ch=1 n=f5 v=0
231093 On ch=1 n=g4 v=64
231093 On ch=1 n=f5 v=64
231093 On ch=1 n=g6 v=64
231093 On ch=1 n=a#4 v=64
231093 On ch=1 n=c#6 v=64
231093 On ch=1 n=c#7 v=64
231211 On ch=1 n=c#7 v=0
231211 On ch=1 n=c#6 v=0
231211 On ch=1 n=a#4 v=0
231211 On ch=1 n=g6 v=0
231211 On ch=1 n=f5 v=0
231211 On ch=1 n=g4 v=0
231333 On ch=1 n=b4 v=64
231333 On ch=1 n=g4 v=64
231333 On ch=1 n=f5 v=64
231333 On ch=1 n=g6 v=64
231333 On ch=1 n=d6 v=64
231333 On ch=1 n=d7 v=64
231451 On ch=1 n=d7 v=0
231451 On ch=1 n=d6 v=0
231451 On ch=1 n=g6 v=0
231451 On ch=1 n=f5 v=0
231451 On ch=1 n=g4 v=0
231451 On ch=1 n=b4 v=0
231573 On ch=1 n=b4 v=64
231573 On ch=1 n=g4 v=64
231573 On ch=1 n=f5 v=64
231573 On ch=1 n=g6 v=64
231573 On ch=1 n=d#6 v=64
231573 On ch=1 n=d#7 v=64
231691 On ch=1 n=d#7 v=0
231691 On ch=1 n=d#6 v=0
231691 On ch=1 n=g6 v=0
231691 On ch=1 n=f5 v=0
231691 On ch=1 n=g4 v=0
231691 On ch=1 n=b4 v=0
231773 Par ch=1 c=64 v=0
231813 On ch=1 n=e5 v=64
231813 On ch=1 n=c5 v=64
231813 On ch=1 n=e6 v=64
231813 On ch=1 n=g6 v=64
231813 On ch=1 n=e7 v=64
231813 Par ch=1 c=64 v=96
232531 On ch=1 n=e7 v=0
232531 On ch=1 n=g6 v=0
232531 On ch=1 n=e6 v=0
232531 On ch=1 n=c5 v=0
232531 On ch=1 n=e5 v=0
232533 On ch=1 n=g5 v=64
232533 On ch=1 n=e5 v=64
232533 On ch=1 n=c6 v=64
232533 On ch=1 n=g6 v=64
232533 On ch=1 n=c7 v=64
232711 On ch=1 n=c7 v=0
232711 On ch=1 n=g6 v=0
232711 On ch=1 n=c6 v=0
232711 On ch=1 n=e5 v=0
232711 On ch=1 n=g5 v=0
232773 Par ch=1 c=64 v=0
233253 On ch=1 n=c4 v=64
233253 On ch=1 n=g3 v=64
233253 On ch=1 n=c3 v=64
233253 On ch=1 n=e3 v=64
233253 On ch=1 n=e8 v=64
233253 On ch=1 n=c8 v=64
233253 On ch=1 n=g7 v=64
233253 On ch=1 n=e7 v=64
233253 Par ch=1 c=64 v=96
233491 On ch=1 n=e7 v=0
233491 On ch=1 n=g7 v=0
233491 On ch=1 n=c8 v=0
233491 On ch=1 n=e8 v=0
233491 On ch=1 n=e3 v=0
233491 On ch=1 n=c3 v=0
233491 On ch=1 n=g3 v=0
233491 On ch=1 n=c4 v=0
233613 On ch=1 n=e4 v=64
233613 On ch=1 n=c4 v=64
233613 On ch=1 n=g3 v=64
233613 On ch=1 n=e3 v=64
233613 On ch=1 n=c8 v=64
233613 On ch=1 n=g7 v=64
233613 On ch=1 n=e7 v=64
233613 On ch=1 n=c7 v=64
233731 On ch=1 n=c7 v=0
233731 On ch=1 n=e7 v=0
233731 On ch=1 n=g7 v=0
233731 On ch=1 n=c8 v=0
233731 On ch=1 n=e3 v=0
233731 On ch=1 n=g3 v=0
233731 On ch=1 n=c4 v=0
233731 On ch=1 n=e4 v=0
233733 On ch=1 n=e4 v=64
233733 On ch=1 n=c4 v=64
233733 On ch=1 n=g3 v=64
233733 On ch=1 n=e3 v=64
233733 On ch=1 n=c8 v=64
233733 On ch=1 n=g7 v=64
233733 On ch=1 n=e7 v=64
233733 On ch=1 n=c7 v=64
233971 On ch=1 n=c7 v=0
233971 On ch=1 n=e7 v=0
233971 On ch=1 n=g7 v=0
233971 On ch=1 n=c8 v=0
233971 On ch=1 n=e3 v=0
233971 On ch=1 n=g3 v=0
233971 On ch=1 n=c4 v=0
233971 On ch=1 n=e4 v=0
233973 On ch=1 n=e4 v=64
233973 On ch=1 n=c4 v=64
233973 On ch=1 n=g3 v=64
233973 On ch=1 n=e3 v=64
233973 On ch=1 n=c8 v=64
233973 On ch=1 n=g7 v=64
233973 On ch=1 n=e7 v=64
233973 On ch=1 n=c7 v=64
234211 On ch=1 n=c7 v=0
234211 On ch=1 n=e7 v=0
234211 On ch=1 n=g7 v=0
234211 On ch=1 n=c8 v=0
234211 On ch=1 n=e3 v=0
234211 On ch=1 n=g3 v=0
234211 On ch=1 n=c4 v=0
234211 On ch=1 n=e4 v=0
234333 On ch=1 n=g4 v=64
234333 On ch=1 n=e4 v=64
234333 On ch=1 n=c4 v=64
234333 On ch=1 n=g3 v=64
234333 On ch=1 n=g7 v=64
234333 On ch=1 n=e7 v=64
234333 On ch=1 n=c7 v=64
234333 On ch=1 n=g6 v=64
234451 On ch=1 n=g6 v=0
234451 On ch=1 n=c7 v=0
234451 On ch=1 n=e7 v=0
234451 On ch=1 n=g7 v=0
234451 On ch=1 n=g3 v=0
234451 On ch=1 n=c4 v=0
234451 On ch=1 n=e4 v=0
234451 On ch=1 n=g4 v=0
234453 On ch=1 n=g4 v=64
234453 On ch=1 n=e4 v=64
234453 On ch=1 n=c4 v=64
234453 On ch=1 n=g3 v=64
234453 On ch=1 n=g7 v=64
234453 On ch=1 n=e7 v=64
234453 On ch=1 n=c7 v=64
234453 On ch=1 n=g6 v=64
234653 Par ch=1 c=64 v=0
234691 On ch=1 n=g6 v=0
234691 On ch=1 n=c7 v=0
234691 On ch=1 n=e7 v=0
234691 On ch=1 n=g7 v=0
234691 On ch=1 n=g3 v=0
234691 On ch=1 n=c4 v=0
234691 On ch=1 n=e4 v=0
234691 On ch=1 n=g4 v=0
234693 On ch=1 n=a4 v=64
234693 On ch=1 n=e4 v=64
234693 On ch=1 n=c4 v=64
234693 On ch=1 n=a3 v=64
234693 On ch=1 n=e7 v=64
234693 On ch=1 n=c7 v=64
234693 On ch=1 n=a6 v=64
234693 On ch=1 n=e6 v=64
234693 Par ch=1 c=64 v=96
234931 On ch=1 n=e6 v=0
234931 On ch=1 n=a6 v=0
234931 On ch=1 n=c7 v=0
234931 On ch=1 n=e7 v=0
234931 On ch=1 n=a3 v=0
234931 On ch=1 n=c4 v=0
234931 On ch=1 n=e4 v=0
234931 On ch=1 n=a4 v=0
235053 On ch=1 n=c5 v=64
235053 On ch=1 n=a4 v=64
235053 On ch=1 n=e4 v=64
235053 On ch=1 n=c4 v=64
235053 On ch=1 n=c7 v=64
235053 On ch=1 n=a6 v=64
235053 On ch=1 n=e6 v=64
235053 On ch=1 n=c6 v=64
235171 On ch=1 n=c6 v=0
235171 On ch=1 n=e6 v=0
235171 On ch=1 n=a6 v=0
235171 On ch=1 n=c7 v=0
235171 On ch=1 n=c4 v=0
235171 On ch=1 n=e4 v=0
235171 On ch=1 n=a4 v=0
235171 On ch=1 n=c5 v=0
235173 On ch=1 n=c5 v=64
235173 On ch=1 n=a4 v=64
235173 On ch=1 n=e4 v=64
235173 On ch=1 n=c4 v=64
235173 On ch=1 n=c7 v=64
235173 On ch=1 n=a6 v=64
235173 On ch=1 n=e6 v=64
235173 On ch=1 n=c6 v=64
235411 On ch=1 n=c6 v=0
235411 On ch=1 n=e6 v=0
235411 On ch=1 n=a6 v=0
235411 On ch=1 n=c7 v=0
235411 On ch=1 n=c4 v=0
235411 On ch=1 n=e4 v=0
235411 On ch=1 n=a4 v=0
235411 On ch=1 n=c5 v=0
235413 On ch=1 n=c5 v=64
235413 On ch=1 n=a4 v=64
235413 On ch=1 n=e4 v=64
235413 On ch=1 n=c4 v=64
235413 On ch=1 n=c6 v=64
235413 On ch=1 n=e6 v=64
235413 On ch=1 n=a6 v=64
235413 On ch=1 n=c7 v=64
236093 Par ch=1 c=64 v=0
236131 On ch=1 n=c7 v=0
236131 On ch=1 n=a6 v=0
236131 On ch=1 n=e6 v=0
236131 On ch=1 n=c6 v=0
236131 On ch=1 n=c4 v=0
236131 On ch=1 n=e4 v=0
236131 On ch=1 n=a4 v=0
236131 On ch=1 n=c5 v=0
236133 On ch=1 n=b4 v=64
236133 On ch=1 n=b3 v=64
236133 On ch=1 n=f#4 v=64
236133 On ch=1 n=d#4 v=64
236133 On ch=1 n=d#7 v=64
236133 On ch=1 n=f#6 v=64
236133 On ch=1 n=d#6 v=64
236133 Par ch=1 c=64 v=96
236371 On ch=1 n=d#6 v=0
236371 On ch=1 n=f#6 v=0
236371 On ch=1 n=d#7 v=0
236371 On ch=1 n=d#4 v=0
236371 On ch=1 n=f#4 v=0
236371 On ch=1 n=b3 v=0
236371 On ch=1 n=b4 v=0
236493 On ch=1 n=b4 v=64
236493 On ch=1 n=b5 v=64
236493 On ch=1 n=f#6 v=64
236493 On ch=1 n=d#6 v=64
236493 On ch=1 n=f#5 v=64
236493 On ch=1 n=d#5 v=64
236611 On ch=1 n=d#5 v=0
236611 On ch=1 n=f#5 v=0
236611 On ch=1 n=d#6 v=0
236611 On ch=1 n=f#6 v=0
236611 On ch=1 n=b5 v=0
236611 On ch=1 n=b4 v=0
236613 On ch=1 n=b5 v=64
236613 On ch=1 n=b4 v=64
236613 On ch=1 n=f#5 v=64
236613 On ch=1 n=d#5 v=64
236613 On ch=1 n=f#6 v=64
236613 On ch=1 n=d#6 v=64
236851 On ch=1 n=d#6 v=0
236851 On ch=1 n=f#6 v=0
236851 On ch=1 n=d#5 v=0
236851 On ch=1 n=f#5 v=0
236851 On ch=1 n=b4 v=0
236851 On ch=1 n=b5 v=0
236853 Par ch=1 c=7 v=120
236853 On ch=1 n=d#5 v=64
236853 On ch=1 n=b4 v=64
236853 On ch=1 n=d#6 v=64
236853 On ch=1 n=b5 v=64
236853 On ch=1 n=f5 v=64
236853 On ch=1 n=f6 v=64
236971 On ch=1 n=f6 v=0
236971 On ch=1 n=f5 v=0
236971 On ch=1 n=b5 v=0
236971 On ch=1 n=d#6 v=0
236971 On ch=1 n=b4 v=0
236971 On ch=1 n=d#5 v=0
236996 Par ch=1 c=7 v=121
237093 On ch=1 n=b4 v=64
237093 On ch=1 n=b5 v=64
237093 On ch=1 n=f#6 v=64
237093 On ch=1 n=d#6 v=64
237093 On ch=1 n=f#5 v=64
237093 On ch=1 n=d#5 v=64
237093 Par ch=1 c=64 v=0
237140 Par ch=1 c=7 v=122
237211 On ch=1 n=d#5 v=0
237211 On ch=1 n=f#5 v=0
237211 On ch=1 n=d#6 v=0
237211 On ch=1 n=f#6 v=0
237211 On ch=1 n=b5 v=0
237211 On ch=1 n=b4 v=0
237284 Par ch=1 c=7 v=123
237333 On ch=1 n=b4 v=64
237333 On ch=1 n=b6 v=64
237333 On ch=1 n=b5 v=64
237333 On ch=1 n=d#6 v=64
237333 On ch=1 n=f#5 v=64
237333 On ch=1 n=d#5 v=64
237428 Par ch=1 c=7 v=124
237451 On ch=1 n=d#5 v=0
237451 On ch=1 n=f#5 v=0
237451 On ch=1 n=d#6 v=0
237451 On ch=1 n=b5 v=0
237451 On ch=1 n=b6 v=0
237451 On ch=1 n=b4 v=0
237572 Par ch=1 c=7 v=125
237573 Tempo 434783
237573 Par ch=1 c=7 v=125
237573 On ch=1 n=b5 v=64
237573 On ch=1 n=b4 v=64
237573 On ch=1 n=f#5 v=64
237573 On ch=1 n=d#5 v=64
237573 On ch=1 n=d#7 v=64
237573 On ch=1 n=f#6 v=64
237573 On ch=1 n=d#6 v=64
237573 Par ch=1 c=64 v=96
237668 Par ch=1 c=7 v=124
237764 Par ch=1 c=7 v=123
237860 Par ch=1 c=7 v=122
237956 Par ch=1 c=7 v=121
238052 Par ch=1 c=7 v=120
238148 Par ch=1 c=7 v=119
238244 Par ch=1 c=7 v=118
238253 Par ch=1 c=64 v=0
238291 On ch=1 n=d#6 v=0
238291 On ch=1 n=f#6 v=0
238291 On ch=1 n=d#7 v=0
238291 On ch=1 n=d#5 v=0
238291 On ch=1 n=f#5 v=0
238291 On ch=1 n=b4 v=0
238291 On ch=1 n=b5 v=0
238293 On ch=1 n=b5 v=64
238293 On ch=1 n=f5 v=64
238293 On ch=1 n=d5 v=64
238293 On ch=1 n=g4 v=64
238293 On ch=1 n=d7 v=64
238293 On ch=1 n=g6 v=64
238293 On ch=1 n=f6 v=64
238293 On ch=1 n=d6 v=64
238293 Par ch=1 c=64 v=96
238340 Par ch=1 c=7 v=117
238436 Par ch=1 c=7 v=116
238532 Par ch=1 c=7 v=115
238628 Par ch=1 c=7 v=114
238724 Par ch=1 c=7 v=113
238820 Par ch=1 c=7 v=112
238916 Par ch=1 c=7 v=111
238973 Par ch=1 c=64 v=0
239011 On ch=1 n=d6 v=0
239011 On ch=1 n=f6 v=0
239011 On ch=1 n=g6 v=0
239011 On ch=1 n=d7 v=0
239011 On ch=1 n=g4 v=0
239011 On ch=1 n=d5 v=0
239011 On ch=1 n=f5 v=0
239011 On ch=1 n=b5 v=0
239012 Par ch=1 c=7 v=110
239013 Tempo 681818
239013 On ch=1 n=c6 v=64
239013 On ch=1 n=g5 v=64
239013 On ch=1 n=e5 v=64
239013 On ch=1 n=c5 v=64
239013 On ch=1 n=e7 v=64
239013 On ch=1 n=c7 v=64
239013 On ch=1 n=g6 v=64
239013 On ch=1 n=e6 v=64
239013 Par ch=1 c=64 v=96
239131 On ch=1 n=e6 v=0
239131 On ch=1 n=g6 v=0
239131 On ch=1 n=c7 v=0
239131 On ch=1 n=e7 v=0
239191 On ch=1 n=c5 v=0
239191 On ch=1 n=e5 v=0
239191 On ch=1 n=g5 v=0
239191 On ch=1 n=c6 v=0
239193 On ch=1 n=g5 v=64
239193 On ch=1 n=e5 v=64
239193 On ch=1 n=c5 v=64
239193 On ch=1 n=g4 v=64
239251 On ch=1 n=g4 v=0
239251 On ch=1 n=c5 v=0
239251 On ch=1 n=e5 v=0
239251 On ch=1 n=g5 v=0
239253 On ch=1 n=c7 v=64
239253 On ch=1 n=g6 v=64
239253 On ch=1 n=e6 v=64
239253 On ch=1 n=c6 v=64
239253 On ch=1 n=g5 v=64
239253 On ch=1 n=e5 v=64
239253 On ch=1 n=c5 v=64
239253 On ch=1 n=g4 v=64
239371 On ch=1 n=g4 v=0
239371 On ch=1 n=c5 v=0
239371 On ch=1 n=e5 v=0
239371 On ch=1 n=g5 v=0
239431 On ch=1 n=c6 v=0
239431 On ch=1 n=e6 v=0
239431 On ch=1 n=g6 v=0
239431 On ch=1 n=c7 v=0
239433 On ch=1 n=g6 v=64
239433 On ch=1 n=e6 v=64
239433 On ch=1 n=c6 v=64
239433 On ch=1 n=g5 v=64
239491 On ch=1 n=g5 v=0
239491 On ch=1 n=c6 v=0
239491 On ch=1 n=e6 v=0
239491 On ch=1 n=g6 v=0
239493 On ch=1 n=e5 v=64
239493 On ch=1 n=c5 v=64
239493 On ch=1 n=g4 v=64
239493 On ch=1 n=e4 v=64
239493 On ch=1 n=g6 v=64
239493 On ch=1 n=e6 v=64
239493 On ch=1 n=c6 v=64
239493 On ch=1 n=g5 v=64
239611 On ch=1 n=g5 v=0
239611 On ch=1 n=c6 v=0
239611 On ch=1 n=e6 v=0
239611 On ch=1 n=g6 v=0
239671 On ch=1 n=e4 v=0
239671 On ch=1 n=g4 v=0
239671 On ch=1 n=c5 v=0
239671 On ch=1 n=e5 v=0
239673 On ch=1 n=c5 v=64
239673 On ch=1 n=g4 v=64
239673 On ch=1 n=e4 v=64
239673 On ch=1 n=c4 v=64
239731 On ch=1 n=c4 v=0
239731 On ch=1 n=e4 v=0
239731 On ch=1 n=g4 v=0
239731 On ch=1 n=c5 v=0
239733 On ch=1 n=e6 v=64
239733 On ch=1 n=c6 v=64
239733 On ch=1 n=g5 v=64
239733 On ch=1 n=e5 v=64
239733 On ch=1 n=c5 v=64
239733 On ch=1 n=g4 v=64
239733 On ch=1 n=e4 v=64
239733 On ch=1 n=c4 v=64
239851 On ch=1 n=c4 v=0
239851 On ch=1 n=e4 v=0
239851 On ch=1 n=g4 v=0
239851 On ch=1 n=c5 v=0
239911 On ch=1 n=e5 v=0
239911 On ch=1 n=g5 v=0
239911 On ch=1 n=c6 v=0
239911 On ch=1 n=e6 v=0
239913 On ch=1 n=c6 v=64
239913 On ch=1 n=g5 v=64
239913 On ch=1 n=e5 v=64
239913 On ch=1 n=c5 v=64
239933 Par ch=1 c=64 v=0
239971 On ch=1 n=c5 v=0
239971 On ch=1 n=e5 v=0
239971 On ch=1 n=g5 v=0
239971 On ch=1 n=c6 v=0
239973 On ch=1 n=c6 v=64
239973 On ch=1 n=a5 v=64
239973 On ch=1 n=e5 v=64
239973 On ch=1 n=c5 v=64
239973 On ch=1 n=a4 v=64
239973 On ch=1 n=e4 v=64
239973 On ch=1 n=c4 v=64
239973 On ch=1 n=a3 v=64
239973 Par ch=1 c=64 v=96
240091 On ch=1 n=c5 v=0
240091 On ch=1 n=e5 v=0
240091 On ch=1 n=a5 v=0
240091 On ch=1 n=c6 v=0
240151 On ch=1 n=a3 v=0
240151 On ch=1 n=c4 v=0
240151 On ch=1 n=e4 v=0
240151 On ch=1 n=a4 v=0
240153 On ch=1 n=e4 v=64
240153 On ch=1 n=c4 v=64
240153 On ch=1 n=a3 v=64
240153 On ch=1 n=e3 v=64
240211 On ch=1 n=e3 v=0
240211 On ch=1 n=a3 v=0
240211 On ch=1 n=c4 v=0
240211 On ch=1 n=e4 v=0
240213 On ch=1 n=e4 v=64
240213 On ch=1 n=c4 v=64
240213 On ch=1 n=a3 v=64
240213 On ch=1 n=e3 v=64
240213 On ch=1 n=a5 v=64
240213 On ch=1 n=e5 v=64
240213 On ch=1 n=c5 v=64
240213 On ch=1 n=a4 v=64
240331 On ch=1 n=e3 v=0
240331 On ch=1 n=a3 v=0
240331 On ch=1 n=c4 v=0
240331 On ch=1 n=e4 v=0
240391 On ch=1 n=a4 v=0
240391 On ch=1 n=c5 v=0
240391 On ch=1 n=e5 v=0
240391 On ch=1 n=a5 v=0
240393 On ch=1 n=e5 v=64
240393 On ch=1 n=c5 v=64
240393 On ch=1 n=a4 v=64
240393 On ch=1 n=e4 v=64
240451 On ch=1 n=e4 v=0
240451 On ch=1 n=a4 v=0
240451 On ch=1 n=c5 v=0
240451 On ch=1 n=e5 v=0
240453 On ch=1 n=e5 v=64
240453 On ch=1 n=c5 v=64
240453 On ch=1 n=a4 v=64
240453 On ch=1 n=e4 v=64
240453 On ch=1 n=c4 v=64
240453 On ch=1 n=a3 v=64
240453 On ch=1 n=e3 v=64
240453 On ch=1 n=c3 v=64
240571 On ch=1 n=e4 v=0
240571 On ch=1 n=a4 v=0
240571 On ch=1 n=c5 v=0
240571 On ch=1 n=e5 v=0
240631 On ch=1 n=c3 v=0
240631 On ch=1 n=e3 v=0
240631 On ch=1 n=a3 v=0
240631 On ch=1 n=c4 v=0
240633 On ch=1 n=a3 v=64
240633 On ch=1 n=e3 v=64
240633 On ch=1 n=c3 v=64
240633 On ch=1 n=a2 v=64
240691 On ch=1 n=a2 v=0
240691 On ch=1 n=c3 v=0
240691 On ch=1 n=e3 v=0
240691 On ch=1 n=a3 v=0
240693 On ch=1 n=a3 v=64
240693 On ch=1 n=e3 v=64
240693 On ch=1 n=c3 v=64
240693 On ch=1 n=a2 v=64
240693 On ch=1 n=c5 v=64
240693 On ch=1 n=a4 v=64
240693 On ch=1 n=e4 v=64
240693 On ch=1 n=c4 v=64
240811 On ch=1 n=a2 v=0
240811 On ch=1 n=c3 v=0
240811 On ch=1 n=e3 v=0
240811 On ch=1 n=a3 v=0
240813 Par ch=1 c=64 v=0
240871 On ch=1 n=c4 v=0
240871 On ch=1 n=e4 v=0
240871 On ch=1 n=a4 v=0
240871 On ch=1 n=c5 v=0
240873 On ch=1 n=e5 v=64
240873 On ch=1 n=e4 v=64
240931 On ch=1 n=e4 v=0
240931 On ch=1 n=e5 v=0
240933 Tempo 394737
240933 On ch=1 n=g5 v=64
240933 On ch=1 n=b4 v=64
240933 On ch=1 n=f4 v=64
240933 On ch=1 n=g3 v=64
240933 On ch=1 n=d3 v=64
240933 On ch=1 n=g2 v=64
240933 Par ch=1 c=64 v=96
241051 On ch=1 n=g2 v=0
241051 On ch=1 n=d3 v=0
241051 On ch=1 n=g3 v=0
241051 On ch=1 n=f4 v=0
241051 On ch=1 n=b4 v=0
241051 On ch=1 n=g5 v=0
241293 On ch=1 n=d4 v=64
241293 On ch=1 n=b3 v=64
241293 On ch=1 n=g3 v=64
241293 On ch=1 n=d5 v=64
241293 On ch=1 n=b4 v=64
241293 On ch=1 n=f4 v=64
241411 On ch=1 n=f4 v=0
241411 On ch=1 n=b4 v=0
241411 On ch=1 n=d5 v=0
241411 On ch=1 n=g3 v=0
241411 On ch=1 n=b3 v=0
241411 On ch=1 n=d4 v=0
241413 On ch=1 n=d5 v=64
241413 On ch=1 n=b4 v=64
241413 On ch=1 n=f4 v=64
241651 On ch=1 n=f4 v=0
241651 On ch=1 n=b4 v=0
241651 On ch=1 n=d5 v=0
241653 On ch=1 n=g3 v=64
241653 On ch=1 n=f4 v=64
241653 On ch=1 n=c#4 v=64
241653 On ch=1 n=a#3 v=64
241653 On ch=1 n=c#5 v=64
241653 On ch=1 n=a#4 v=64
241853 Par ch=1 c=64 v=0
241891 On ch=1 n=a#4 v=0
241891 On ch=1 n=c#5 v=0
241891 On ch=1 n=a#3 v=0
241891 On ch=1 n=c#4 v=0
241891 On ch=1 n=f4 v=0
241891 On ch=1 n=g3 v=0
241893 On ch=1 n=d4 v=64
241893 On ch=1 n=b3 v=64
241893 On ch=1 n=g3 v=64
241893 On ch=1 n=d5 v=64
241893 On ch=1 n=b4 v=64
241893 On ch=1 n=f4 v=64
241893 Par ch=1 c=64 v=96
242131 On ch=1 n=f4 v=0
242131 On ch=1 n=b4 v=0
242131 On ch=1 n=d5 v=0
242131 On ch=1 n=g3 v=0
242131 On ch=1 n=b3 v=0
242131 On ch=1 n=d4 v=0
242133 On ch=1 n=b3 v=64
242133 On ch=1 n=g3 v=64
242133 On ch=1 n=b4 v=64
242133 On ch=1 n=f4 v=64
242133 On ch=1 n=d#4 v=64
242133 On ch=1 n=d#5 v=64
242321 Par ch=1 c=64 v=0
242371 On ch=1 n=d#5 v=0
242371 On ch=1 n=d#4 v=0
242371 On ch=1 n=f4 v=0
242371 On ch=1 n=b4 v=0
242371 On ch=1 n=g3 v=0
242371 On ch=1 n=b3 v=0
242373 On ch=1 n=e5 v=64
242373 On ch=1 n=c5 v=64
242373 On ch=1 n=e4 v=64
242373 On ch=1 n=c4 v=64
242373 Par ch=1 c=64 v=97
242474 On ch=1 n=c5 v=0
242474 On ch=1 n=e5 v=0
242476 On ch=1 n=g4 v=64
242577 On ch=1 n=g4 v=0
242579 On ch=1 n=e4 v=64
242680 On ch=1 n=e4 v=0
242682 On ch=1 n=g4 v=64
242782 On ch=1 n=g4 v=0
242784 On ch=1 n=c5 v=64
242853 Par ch=1 c=7 v=110
242885 On ch=1 n=c5 v=0
242887 On ch=1 n=e5 v=64
242948 Par ch=1 c=7 v=111
242988 On ch=1 n=e5 v=0
242990 On ch=1 n=g5 v=64
243044 Par ch=1 c=7 v=112
243091 On ch=1 n=g5 v=0
243091 On ch=1 n=e4 v=0
243091 On ch=1 n=c4 v=0
243093 On ch=1 n=c6 v=64
243093 On ch=1 n=c4 v=64
243093 On ch=1 n=g3 v=64
243093 On ch=1 n=e3 v=64
243093 On ch=1 n=c3 v=64
243140 Par ch=1 c=7 v=113
243194 On ch=1 n=c6 v=0
243196 On ch=1 n=e6 v=64
243236 Par ch=1 c=7 v=114
243297 On ch=1 n=e6 v=0
243299 On ch=1 n=g6 v=64
243331 On ch=1 n=c3 v=0
243331 On ch=1 n=e3 v=0
243331 On ch=1 n=g3 v=0
243331 On ch=1 n=c4 v=0
243332 Par ch=1 c=7 v=115
243333 Par ch=1 c=64 v=0
243400 On ch=1 n=g6 v=0
243402 On ch=1 n=c7 v=64
243428 Par ch=1 c=7 v=116
243502 On ch=1 n=c7 v=0
243504 On ch=1 n=e7 v=64
243524 Par ch=1 c=7 v=117
243605 On ch=1 n=e7 v=0
243607 On ch=1 n=g7 v=64
243617 Par ch=1 c=7 v=118
243705 On ch=1 n=g7 v=0
243707 On ch=1 n=c8 v=64
243713 Par ch=1 c=7 v=119
243808 On ch=1 n=c8 v=0
243809 Par ch=1 c=7 v=120
243810 Tempo 681818
243810 On ch=1 n=c7 v=64
243810 On ch=1 n=g6 v=64
243810 On ch=1 n=e6 v=64
243810 On ch=1 n=c6 v=64
243810 On ch=1 n=e8 v=64
243810 On ch=1 n=c8 v=64
243810 On ch=1 n=g7 v=64
243810 On ch=1 n=e7 v=64
243810 Par ch=1 c=64 v=96
243928 On ch=1 n=e7 v=0
243928 On ch=1 n=g7 v=0
243928 On ch=1 n=c8 v=0
243928 On ch=1 n=e8 v=0
243988 On ch=1 n=c6 v=0
243988 On ch=1 n=e6 v=0
243988 On ch=1 n=g6 v=0
243988 On ch=1 n=c7 v=0
243990 On ch=1 n=g6 v=64
243990 On ch=1 n=e6 v=64
243990 On ch=1 n=c6 v=64
243990 On ch=1 n=g5 v=64
244048 On ch=1 n=g5 v=0
244048 On ch=1 n=c6 v=0
244048 On ch=1 n=e6 v=0
244048 On ch=1 n=g6 v=0
244050 On ch=1 n=c8 v=64
244050 On ch=1 n=g7 v=64
244050 On ch=1 n=e7 v=64
244050 On ch=1 n=c7 v=64
244050 On ch=1 n=g6 v=64
244050 On ch=1 n=e6 v=64
244050 On ch=1 n=c6 v=64
244050 On ch=1 n=g5 v=64
244168 On ch=1 n=g5 v=0
244168 On ch=1 n=c6 v=0
244168 On ch=1 n=e6 v=0
244168 On ch=1 n=g6 v=0
244228 On ch=1 n=c7 v=0
244228 On ch=1 n=e7 v=0
244228 On ch=1 n=g7 v=0
244228 On ch=1 n=c8 v=0
244230 On ch=1 n=g7 v=64
244230 On ch=1 n=e7 v=64
244230 On ch=1 n=c7 v=64
244230 On ch=1 n=g6 v=64
244288 On ch=1 n=g6 v=0
244288 On ch=1 n=c7 v=0
244288 On ch=1 n=e7 v=0
244288 On ch=1 n=g7 v=0
244290 On ch=1 n=e6 v=64
244290 On ch=1 n=c6 v=64
244290 On ch=1 n=g5 v=64
244290 On ch=1 n=e5 v=64
244290 On ch=1 n=g7 v=64
244290 On ch=1 n=e7 v=64
244290 On ch=1 n=c7 v=64
244290 On ch=1 n=g6 v=64
244408 On ch=1 n=g6 v=0
244408 On ch=1 n=c7 v=0
244408 On ch=1 n=e7 v=0
244408 On ch=1 n=g7 v=0
244468 On ch=1 n=e5 v=0
244468 On ch=1 n=g5 v=0
244468 On ch=1 n=c6 v=0
244468 On ch=1 n=e6 v=0
244470 On ch=1 n=c6 v=64
244470 On ch=1 n=g5 v=64
244470 On ch=1 n=e5 v=64
244470 On ch=1 n=c5 v=64
244528 On ch=1 n=c5 v=0
244528 On ch=1 n=e5 v=0
244528 On ch=1 n=g5 v=0
244528 On ch=1 n=c6 v=0
244530 On ch=1 n=e7 v=64
244530 On ch=1 n=c7 v=64
244530 On ch=1 n=g6 v=64
244530 On ch=1 n=e6 v=64
244530 On ch=1 n=c6 v=64
244530 On ch=1 n=g5 v=64
244530 On ch=1 n=e5 v=64
244530 On ch=1 n=c5 v=64
244648 On ch=1 n=c5 v=0
244648 On ch=1 n=e5 v=0
244648 On ch=1 n=g5 v=0
244648 On ch=1 n=c6 v=0
244708 On ch=1 n=e6 v=0
244708 On ch=1 n=g6 v=0
244708 On ch=1 n=c7 v=0
244708 On ch=1 n=e7 v=0
244710 On ch=1 n=c7 v=64
244710 On ch=1 n=g6 v=64
244710 On ch=1 n=e6 v=64
244710 On ch=1 n=c6 v=64
244730 Par ch=1 c=64 v=0
244768 On ch=1 n=c6 v=0
244768 On ch=1 n=e6 v=0
244768 On ch=1 n=g6 v=0
244768 On ch=1 n=c7 v=0
244770 On ch=1 n=c7 v=64
244770 On ch=1 n=a6 v=64
244770 On ch=1 n=e6 v=64
244770 On ch=1 n=c6 v=64
244770 On ch=1 n=a5 v=64
244770 On ch=1 n=e5 v=64
244770 On ch=1 n=c5 v=64
244770 On ch=1 n=a4 v=64
244770 Par ch=1 c=64 v=96
244888 On ch=1 n=c6 v=0
244888 On ch=1 n=e6 v=0
244888 On ch=1 n=a6 v=0
244888 On ch=1 n=c7 v=0
244948 On ch=1 n=a4 v=0
244948 On ch=1 n=c5 v=0
244948 On ch=1 n=e5 v=0
244948 On ch=1 n=a5 v=0
244950 On ch=1 n=e5 v=64
244950 On ch=1 n=c5 v=64
244950 On ch=1 n=a4 v=64
244950 On ch=1 n=e4 v=64
245008 On ch=1 n=e4 v=0
245008 On ch=1 n=a4 v=0
245008 On ch=1 n=c5 v=0
245008 On ch=1 n=e5 v=0
245010 On ch=1 n=e5 v=64
245010 On ch=1 n=c5 v=64
245010 On ch=1 n=a4 v=64
245010 On ch=1 n=e4 v=64
245010 On ch=1 n=a6 v=64
245010 On ch=1 n=e6 v=64
245010 On ch=1 n=c6 v=64
245010 On ch=1 n=a5 v=64
245128 On ch=1 n=e4 v=0
245128 On ch=1 n=a4 v=0
245128 On ch=1 n=c5 v=0
245128 On ch=1 n=e5 v=0
245188 On ch=1 n=a5 v=0
245188 On ch=1 n=c6 v=0
245188 On ch=1 n=e6 v=0
245188 On ch=1 n=a6 v=0
245190 On ch=1 n=e5 v=64
245190 On ch=1 n=e6 v=64
245190 On ch=1 n=c6 v=64
245190 On ch=1 n=a5 v=64
245248 On ch=1 n=a5 v=0
245248 On ch=1 n=c6 v=0
245248 On ch=1 n=e6 v=0
245248 On ch=1 n=e5 v=0
245250 On ch=1 n=e6 v=64
245250 On ch=1 n=c6 v=64
245250 On ch=1 n=a5 v=64
245250 On ch=1 n=e5 v=64
245250 On ch=1 n=c5 v=64
245250 On ch=1 n=a4 v=64
245250 On ch=1 n=e4 v=64
245250 On ch=1 n=c4 v=64
245368 On ch=1 n=e5 v=0
245368 On ch=1 n=a5 v=0
245368 On ch=1 n=c6 v=0
245368 On ch=1 n=e6 v=0
245428 On ch=1 n=c4 v=0
245428 On ch=1 n=e4 v=0
245428 On ch=1 n=a4 v=0
245428 On ch=1 n=c5 v=0
245430 On ch=1 n=a4 v=64
245430 On ch=1 n=e4 v=64
245430 On ch=1 n=c4 v=64
245430 On ch=1 n=a3 v=64
245488 On ch=1 n=a3 v=0
245488 On ch=1 n=c4 v=0
245488 On ch=1 n=e4 v=0
245488 On ch=1 n=a4 v=0
245490 On ch=1 n=c6 v=64
245490 On ch=1 n=a5 v=64
245490 On ch=1 n=e5 v=64
245490 On ch=1 n=c5 v=64
245490 On ch=1 n=a4 v=64
245490 On ch=1 n=e4 v=64
245490 On ch=1 n=c4 v=64
245490 On ch=1 n=a3 v=64
245608 On ch=1 n=a3 v=0
245608 On ch=1 n=c4 v=0
245608 On ch=1 n=e4 v=0
245608 On ch=1 n=a4 v=0
245608 On ch=1 n=c5 v=0
245608 On ch=1 n=e5 v=0
245608 On ch=1 n=a5 v=0
245608 On ch=1 n=c6 v=0
245690 Par ch=1 c=64 v=0
245730 Tempo 394737
245730 On ch=1 n=e3 v=64
245730 On ch=1 n=b6 v=64
245730 On ch=1 n=g#7 v=64
245730 On ch=1 n=g#6 v=64
245730 Par ch=1 c=64 v=96
245756 On ch=1 n=g#3 v=63
245779 On ch=1 n=b3 v=62
245805 On ch=1 n=e4 v=61
245848 On ch=1 n=g#6 v=0
245848 On ch=1 n=g#7 v=0
245848 On ch=1 n=b6 v=0
245848 On ch=1 n=e3 v=0
245852 On ch=1 n=e4 v=0
245852 On ch=1 n=b3 v=0
245853 On ch=1 n=g#3 v=0
245970 Par ch=1 c=64 v=0
246090 On ch=1 n=b3 v=64
246090 On ch=1 n=b4 v=64
246090 On ch=1 n=b5 v=64
246090 On ch=1 n=b6 v=64
246208 On ch=1 n=b6 v=0
246208 On ch=1 n=b5 v=0
246208 On ch=1 n=b4 v=0
246208 On ch=1 n=b3 v=0
246210 On ch=1 n=b3 v=64
246210 On ch=1 n=b4 v=64
246210 On ch=1 n=b5 v=64
246210 On ch=1 n=b6 v=64
246448 On ch=1 n=b6 v=0
246448 On ch=1 n=b5 v=0
246448 On ch=1 n=b4 v=0
246448 On ch=1 n=b3 v=0
246450 On ch=1 n=a#3 v=64
246450 On ch=1 n=a#4 v=64
246450 On ch=1 n=a#5 v=64
246450 On ch=1 n=a#6 v=64
246450 Par ch=1 c=64 v=96
246688 On ch=1 n=a#6 v=0
246688 On ch=1 n=a#5 v=0
246688 On ch=1 n=a#4 v=0
246688 On ch=1 n=a#3 v=0
246690 On ch=1 n=b3 v=64
246690 On ch=1 n=b4 v=64
246690 On ch=1 n=b5 v=64
246690 On ch=1 n=b6 v=64
246928 On ch=1 n=b6 v=0
246928 On ch=1 n=b5 v=0
246928 On ch=1 n=b4 v=0
246928 On ch=1 n=b3 v=0
246930 On ch=1 n=e4 v=64
246930 On ch=1 n=e5 v=64
246930 On ch=1 n=e6 v=64
246930 On ch=1 n=e7 v=64
247130 Par ch=1 c=64 v=0
247168 On ch=1 n=e7 v=0
247168 On ch=1 n=e6 v=0
247168 On ch=1 n=e5 v=0
247168 On ch=1 n=e4 v=0
247170 On ch=1 n=c7 v=64
247170 On ch=1 n=g#3 v=64
247170 On ch=1 n=g#7 v=64
247170 On ch=1 n=g#6 v=64
247170 Par ch=1 c=64 v=96
247193 On ch=1 n=d#4 v=63
247216 On ch=1 n=g#4 v=63
247288 On ch=1 n=g#6 v=0
247288 On ch=1 n=g#7 v=0
247288 On ch=1 n=g#3 v=0
247288 On ch=1 n=c7 v=0
247292 On ch=1 n=d#4 v=0
247293 On ch=1 n=g#4 v=0
247530 On ch=1 n=d#4 v=64
247530 On ch=1 n=d#5 v=64
247530 On ch=1 n=d#6 v=64
247530 On ch=1 n=d#7 v=64
247648 On ch=1 n=d#7 v=0
247648 On ch=1 n=d#6 v=0
247648 On ch=1 n=d#5 v=0
247648 On ch=1 n=d#4 v=0
247650 On ch=1 n=d#4 v=64
247650 On ch=1 n=d#5 v=64
247650 On ch=1 n=d#6 v=64
247650 On ch=1 n=d#7 v=64
247650 Par ch=1 c=64 v=0
247888 On ch=1 n=d#7 v=0
247888 On ch=1 n=d#6 v=0
247888 On ch=1 n=d#5 v=0
247888 On ch=1 n=d#4 v=0
247890 On ch=1 n=d4 v=64
247890 On ch=1 n=d5 v=64
247890 On ch=1 n=d6 v=64
247890 On ch=1 n=d7 v=64
248128 On ch=1 n=d7 v=0
248128 On ch=1 n=d6 v=0
248128 On ch=1 n=d5 v=0
248128 On ch=1 n=d4 v=0
248130 On ch=1 n=d#4 v=64
248130 On ch=1 n=d#5 v=64
248130 On ch=1 n=d#6 v=64
248130 On ch=1 n=d#7 v=64
248130 Par ch=1 c=64 v=96
248368 On ch=1 n=d#7 v=0
248368 On ch=1 n=d#6 v=0
248368 On ch=1 n=d#5 v=0
248368 On ch=1 n=d#4 v=0
248370 On ch=1 n=d#4 v=64
248370 On ch=1 n=d#5 v=64
248370 On ch=1 n=d#6 v=64
248370 On ch=1 n=d#7 v=64
248570 Par ch=1 c=64 v=0
248608 On ch=1 n=d#7 v=0
248608 On ch=1 n=d#6 v=0
248608 On ch=1 n=d#5 v=0
248608 On ch=1 n=d#4 v=0
248610 On ch=1 n=g7 v=64
248610 On ch=1 n=g6 v=64
248610 On ch=1 n=d#3 v=64
248610 On ch=1 n=a#6 v=64
248610 Par ch=1 c=64 v=96
248636 On ch=1 n=a#3 v=63
248661 On ch=1 n=d#4 v=63
248728 On ch=1 n=a#6 v=0
248728 On ch=1 n=d#3 v=0
248728 On ch=1 n=g6 v=0
248728 On ch=1 n=g7 v=0
248733 On ch=1 n=d#4 v=0
248733 On ch=1 n=a#3 v=0
248850 Par ch=1 c=64 v=0
248970 On ch=1 n=a#3 v=64
248970 On ch=1 n=a#4 v=64
248970 On ch=1 n=a#5 v=64
248970 On ch=1 n=a#6 v=64
249088 On ch=1 n=a#6 v=0
249088 On ch=1 n=a#5 v=0
249088 On ch=1 n=a#4 v=0
249088 On ch=1 n=a#3 v=0
249090 On ch=1 n=a#3 v=64
249090 On ch=1 n=a#4 v=64
249090 On ch=1 n=a#5 v=64
249090 On ch=1 n=a#6 v=64
249328 On ch=1 n=a#6 v=0
249328 On ch=1 n=a#5 v=0
249328 On ch=1 n=a#4 v=0
249328 On ch=1 n=a#3 v=0
249330 On ch=1 n=a3 v=64
249330 On ch=1 n=a4 v=64
249330 On ch=1 n=a5 v=64
249330 On ch=1 n=a6 v=64
249568 On ch=1 n=a6 v=0
249568 On ch=1 n=a5 v=0
249568 On ch=1 n=a4 v=0
249568 On ch=1 n=a3 v=0
249570 On ch=1 n=a#3 v=64
249570 On ch=1 n=a#4 v=64
249570 On ch=1 n=a#5 v=64
249570 On ch=1 n=a#6 v=64
249570 Par ch=1 c=64 v=96
249808 On ch=1 n=a#6 v=0
249808 On ch=1 n=a#5 v=0
249808 On ch=1 n=a#4 v=0
249808 On ch=1 n=a#3 v=0
249810 On ch=1 n=d#4 v=64
249810 On ch=1 n=d#5 v=64
249810 On ch=1 n=d#6 v=64
249810 On ch=1 n=d#7 v=64
250010 Par ch=1 c=64 v=0
250048 On ch=1 n=d#7 v=0
250048 On ch=1 n=d#6 v=0
250048 On ch=1 n=d#5 v=0
250048 On ch=1 n=d#4 v=0
250050 On ch=1 n=b6 v=64
250050 On ch=1 n=g3 v=64
250050 On ch=1 n=g7 v=64
250050 On ch=1 n=g6 v=64
250050 Par ch=1 c=64 v=96
250076 On ch=1 n=d4 v=64
250099 On ch=1 n=g4 v=63
250168 On ch=1 n=g6 v=0
250168 On ch=1 n=g7 v=0
250168 On ch=1 n=g3 v=0
250168 On ch=1 n=b6 v=0
250173 On ch=1 n=d4 v=0
250174 On ch=1 n=g4 v=0
250250 Par ch=1 c=64 v=0
250410 On ch=1 n=d4 v=64
250410 On ch=1 n=d5 v=64
250410 On ch=1 n=d6 v=64
250410 On ch=1 n=d7 v=64
250528 On ch=1 n=d7 v=0
250528 On ch=1 n=d6 v=0
250528 On ch=1 n=d5 v=0
250528 On ch=1 n=d4 v=0
250530 On ch=1 n=d4 v=64
250530 On ch=1 n=d5 v=64
250530 On ch=1 n=d6 v=64
250530 On ch=1 n=d7 v=64
250768 On ch=1 n=d7 v=0
250768 On ch=1 n=d6 v=0
250768 On ch=1 n=d5 v=0
250768 On ch=1 n=d4 v=0
250770 On ch=1 n=c#4 v=64
250770 On ch=1 n=c#5 v=64
250770 On ch=1 n=c#6 v=64
250770 On ch=1 n=c#7 v=64
251008 On ch=1 n=c#7 v=0
251008 On ch=1 n=c#6 v=0
251008 On ch=1 n=c#5 v=0
251008 On ch=1 n=c#4 v=0
251010 On ch=1 n=d4 v=64
251010 On ch=1 n=d5 v=64
251010 On ch=1 n=d6 v=64
251010 On ch=1 n=d7 v=64
251010 Par ch=1 c=64 v=96
251248 On ch=1 n=d7 v=0
251248 On ch=1 n=d6 v=0
251248 On ch=1 n=d5 v=0
251248 On ch=1 n=d4 v=0
251250 On ch=1 n=d4 v=64
251250 On ch=1 n=d5 v=64
251250 On ch=1 n=d6 v=64
251250 On ch=1 n=d7 v=64
251450 Par ch=1 c=64 v=0
251488 On ch=1 n=d7 v=0
251488 On ch=1 n=d6 v=0
251488 On ch=1 n=d5 v=0
251488 On ch=1 n=d4 v=0
251490 On ch=1 n=d3 v=64
251490 On ch=1 n=d4 v=64
251490 On ch=1 n=a6 v=64
251490 On ch=1 n=f#6 v=64
251490 On ch=1 n=f#7 v=64
251490 Par ch=1 c=64 v=96
251608 On ch=1 n=f#7 v=0
251608 On ch=1 n=f#6 v=0
251608 On ch=1 n=a6 v=0
251608 On ch=1 n=d4 v=0
251608 On ch=1 n=d3 v=0
251730 On ch=1 n=a4 v=64
251730 On ch=1 n=d4 v=64
251730 On ch=1 n=a5 v=64
251730 On ch=1 n=a6 v=64
251730 On ch=1 n=f#4 v=64
251730 On ch=1 n=f#6 v=64
251968 On ch=1 n=f#6 v=0
251968 On ch=1 n=f#4 v=0
251968 On ch=1 n=a6 v=0
251968 On ch=1 n=a5 v=0
251968 On ch=1 n=d4 v=0
251968 On ch=1 n=a4 v=0
251970 On ch=1 n=b4 v=64
251970 On ch=1 n=d4 v=64
251970 On ch=1 n=b5 v=64
251970 On ch=1 n=b6 v=64
251970 On ch=1 n=f#4 v=64
251970 On ch=1 n=f#6 v=64
252170 Par ch=1 c=64 v=0
252208 On ch=1 n=f#6 v=0
252208 On ch=1 n=f#4 v=0
252208 On ch=1 n=b6 v=0
252208 On ch=1 n=b5 v=0
252208 On ch=1 n=d4 v=0
252208 On ch=1 n=b4 v=0
252210 On ch=1 n=a6 v=64
252210 On ch=1 n=f#3 v=64
252210 On ch=1 n=f#4 v=64
252210 On ch=1 n=c#6 v=64
252210 On ch=1 n=c#7 v=64
252210 Par ch=1 c=64 v=96
252328 On ch=1 n=c#7 v=0
252328 On ch=1 n=c#6 v=0
252328 On ch=1 n=f#4 v=0
252328 On ch=1 n=f#3 v=0
252328 On ch=1 n=a6 v=0
252450 On ch=1 n=c5 v=64
252450 On ch=1 n=g#4 v=64
252450 On ch=1 n=f#4 v=64
252450 On ch=1 n=c6 v=64
252450 On ch=1 n=g#6 v=64
252450 On ch=1 n=c7 v=64
252688 On ch=1 n=c7 v=0
252688 On ch=1 n=g#6 v=0
252688 On ch=1 n=c6 v=0
252688 On ch=1 n=f#4 v=0
252688 On ch=1 n=g#4 v=0
252688 On ch=1 n=c5 v=0
252690 On ch=1 n=a6 v=64
252690 On ch=1 n=c#5 v=64
252690 On ch=1 n=a#4 v=64
252690 On ch=1 n=f#4 v=64
252690 On ch=1 n=c#6 v=64
252690 On ch=1 n=c#7 v=64
252890 Par ch=1 c=64 v=0
252928 On ch=1 n=c#7 v=0
252928 On ch=1 n=c#6 v=0
252928 On ch=1 n=f#4 v=0
252928 On ch=1 n=a#4 v=0
252928 On ch=1 n=c#5 v=0
252928 On ch=1 n=a6 v=0
252930 On ch=1 n=c#3 v=64
252930 On ch=1 n=c#4 v=64
252930 On ch=1 n=g#6 v=64
252930 On ch=1 n=f6 v=64
252930 On ch=1 n=f7 v=64
252930 Par ch=1 c=64 v=96
253048 On ch=1 n=f7 v=0
253048 On ch=1 n=f6 v=0
253048 On ch=1 n=g#6 v=0
253048 On ch=1 n=c#4 v=0
253048 On ch=1 n=c#3 v=0
253170 On ch=1 n=g#4 v=64
253170 On ch=1 n=c#4 v=64
253170 On ch=1 n=g#5 v=64
253170 On ch=1 n=g#6 v=64
253170 On ch=1 n=f4 v=64
253170 On ch=1 n=f6 v=64
253408 On ch=1 n=f6 v=0
253408 On ch=1 n=f4 v=0
253408 On ch=1 n=g#6 v=0
253408 On ch=1 n=g#5 v=0
253408 On ch=1 n=c#4 v=0
253408 On ch=1 n=g#4 v=0
253410 On ch=1 n=a#4 v=64
253410 On ch=1 n=c#4 v=64
253410 On ch=1 n=a#5 v=64
253410 On ch=1 n=a#6 v=64
253410 On ch=1 n=f4 v=64
253410 On ch=1 n=f6 v=64
253610 Par ch=1 c=64 v=0
253648 On ch=1 n=f6 v=0
253648 On ch=1 n=f4 v=0
253648 On ch=1 n=a#6 v=0
253648 On ch=1 n=a#5 v=0
253648 On ch=1 n=c#4 v=0
253648 On ch=1 n=a#4 v=0
253650 On ch=1 n=g#6 v=64
253650 On ch=1 n=f3 v=64
253650 On ch=1 n=f4 v=64
253650 On ch=1 n=c6 v=64
253650 On ch=1 n=c7 v=64
253650 Par ch=1 c=64 v=96
253768 On ch=1 n=c7 v=0
253768 On ch=1 n=c6 v=0
253768 On ch=1 n=f4 v=0
253768 On ch=1 n=f3 v=0
253768 On ch=1 n=g#6 v=0
253890 On ch=1 n=b4 v=64
253890 On ch=1 n=g4 v=64
253890 On ch=1 n=f4 v=64
253890 On ch=1 n=b5 v=64
253890 On ch=1 n=g6 v=64
253890 On ch=1 n=b6 v=64
254128 On ch=1 n=b6 v=0
254128 On ch=1 n=g6 v=0
254128 On ch=1 n=b5 v=0
254128 On ch=1 n=f4 v=0
254128 On ch=1 n=g4 v=0
254128 On ch=1 n=b4 v=0
254130 On ch=1 n=g#6 v=64
254130 On ch=1 n=c5 v=64
254130 On ch=1 n=a4 v=64
254130 On ch=1 n=f4 v=64
254130 On ch=1 n=c6 v=64
254130 On ch=1 n=c7 v=64
254330 Par ch=1 c=64 v=0
254368 On ch=1 n=c7 v=0
254368 On ch=1 n=c6 v=0
254368 On ch=1 n=f4 v=0
254368 On ch=1 n=a4 v=0
254368 On ch=1 n=c5 v=0
254368 On ch=1 n=g#6 v=0
254370 Tempo 600000
254370 Par ch=1 c=7 v=120
254370 On ch=1 n=c3 v=64
254370 On ch=1 n=c4 v=64
254370 On ch=1 n=e7 v=64
254370 On ch=1 n=g6 v=64
254370 On ch=1 n=e6 v=64
254370 Par ch=1 c=64 v=96
254408 Par ch=1 c=7 v=119
254446 Par ch=1 c=7 v=118
254485 Par ch=1 c=7 v=117
254488 On ch=1 n=e6 v=0
254488 On ch=1 n=g6 v=0
254488 On ch=1 n=e7 v=0
254488 On ch=1 n=c4 v=0
254488 On ch=1 n=c3 v=0
254523 Par ch=1 c=7 v=116
254550 On ch=1 n=e6 v=64
254550 On ch=1 n=c6 v=64
254550 On ch=1 n=g5 v=64
254550 On ch=1 n=e5 v=64
254550 On ch=1 n=c5 v=64
254550 On ch=1 n=g4 v=64
254561 Par ch=1 c=7 v=115
254600 Par ch=1 c=7 v=114
254608 On ch=1 n=g4 v=0
254608 On ch=1 n=c5 v=0
254608 On ch=1 n=e5 v=0
254608 On ch=1 n=g5 v=0
254608 On ch=1 n=c6 v=0
254608 On ch=1 n=e6 v=0
254610 On ch=1 n=e5 v=64
254610 On ch=1 n=c5 v=64
254610 On ch=1 n=g4 v=64
254610 On ch=1 n=e6 v=64
254610 On ch=1 n=c6 v=64
254610 On ch=1 n=g5 v=64
254638 Par ch=1 c=7 v=113
254677 Par ch=1 c=7 v=112
254715 Par ch=1 c=7 v=111
254753 Par ch=1 c=7 v=110
254792 Par ch=1 c=7 v=109
254810 Par ch=1 c=64 v=0
254830 Par ch=1 c=7 v=108
254848 On ch=1 n=g5 v=0
254848 On ch=1 n=c6 v=0
254848 On ch=1 n=e6 v=0
254848 On ch=1 n=g4 v=0
254848 On ch=1 n=c5 v=0
254848 On ch=1 n=e5 v=0
254850 On ch=1 n=c3 v=64
254850 On ch=1 n=c4 v=64
254850 On ch=1 n=g6 v=64
254850 On ch=1 n=d#6 v=64
254850 On ch=1 n=d#7 v=64
254850 Par ch=1 c=64 v=96
254868 Par ch=1 c=7 v=107
254907 Par ch=1 c=7 v=106
254945 Par ch=1 c=7 v=105
254968 On ch=1 n=d#7 v=0
254968 On ch=1 n=d#6 v=0
254968 On ch=1 n=g6 v=0
254968 On ch=1 n=c4 v=0
254968 On ch=1 n=c3 v=0
254984 Par ch=1 c=7 v=104
255022 Par ch=1 c=7 v=103
255030 On ch=1 n=c5 v=64
255030 On ch=1 n=g4 v=64
255030 On ch=1 n=c6 v=64
255030 On ch=1 n=g5 v=64
255030 On ch=1 n=d#5 v=64
255030 On ch=1 n=d#6 v=64
255060 Par ch=1 c=7 v=102
255088 On ch=1 n=d#6 v=0
255088 On ch=1 n=d#5 v=0
255088 On ch=1 n=g5 v=0
255088 On ch=1 n=c6 v=0
255088 On ch=1 n=g4 v=0
255088 On ch=1 n=c5 v=0
255090 On ch=1 n=c5 v=64
255090 On ch=1 n=g4 v=64
255090 On ch=1 n=c6 v=64
255090 On ch=1 n=g5 v=64
255090 On ch=1 n=d#5 v=64
255090 On ch=1 n=d#6 v=64
255099 Par ch=1 c=7 v=101
255137 Par ch=1 c=7 v=100
255175 Par ch=1 c=7 v=99
255214 Par ch=1 c=7 v=98
255252 Par ch=1 c=7 v=97
255290 Par ch=1 c=64 v=0
255291 Par ch=1 c=7 v=96
255328 On ch=1 n=d#6 v=0
255328 On ch=1 n=d#5 v=0
255328 On ch=1 n=g5 v=0
255328 On ch=1 n=c6 v=0
255328 On ch=1 n=g4 v=0
255328 On ch=1 n=c5 v=0
255329 Par ch=1 c=7 v=95
255330 On ch=1 n=f6 v=64
255330 On ch=1 n=g#2 v=64
255330 On ch=1 n=g#3 v=64
255330 On ch=1 n=c#6 v=64
255330 On ch=1 n=c#7 v=64
255330 Par ch=1 c=64 v=96
255367 Par ch=1 c=7 v=94
255406 Par ch=1 c=7 v=93
255444 Par ch=1 c=7 v=92
255448 On ch=1 n=c#7 v=0
255448 On ch=1 n=c#6 v=0
255448 On ch=1 n=g#3 v=0
255448 On ch=1 n=g#2 v=0
255448 On ch=1 n=f6 v=0
255483 Par ch=1 c=7 v=91
255510 On ch=1 n=f4 v=64
255510 On ch=1 n=f5 v=64
255510 On ch=1 n=c#5 v=64
255510 On ch=1 n=g#4 v=64
255510 On ch=1 n=g#5 v=64
255510 On ch=1 n=c#6 v=64
255521 Par ch=1 c=7 v=90
255559 Par ch=1 c=7 v=89
255568 On ch=1 n=c#6 v=0
255568 On ch=1 n=g#5 v=0
255568 On ch=1 n=g#4 v=0
255568 On ch=1 n=c#5 v=0
255568 On ch=1 n=f5 v=0
255568 On ch=1 n=f4 v=0
255570 On ch=1 n=f4 v=64
255570 On ch=1 n=f5 v=64
255570 On ch=1 n=c#5 v=64
255570 On ch=1 n=g#4 v=64
255570 On ch=1 n=g#5 v=64
255570 On ch=1 n=c#6 v=64
255598 Par ch=1 c=7 v=88
255636 Par ch=1 c=7 v=87
255674 Par ch=1 c=7 v=86
255713 Par ch=1 c=7 v=85
255751 Par ch=1 c=7 v=84
255770 Par ch=1 c=64 v=0
255790 Par ch=1 c=7 v=83
255808 On ch=1 n=c#6 v=0
255808 On ch=1 n=g#5 v=0
255808 On ch=1 n=g#4 v=0
255808 On ch=1 n=c#5 v=0
255808 On ch=1 n=f5 v=0
255808 On ch=1 n=f4 v=0
255810 On ch=1 n=a2 v=64
255810 On ch=1 n=a3 v=64
255810 On ch=1 n=c7 v=64
255810 On ch=1 n=c6 v=64
255810 On ch=1 n=d#6 v=64
255810 Par ch=1 c=64 v=96
255828 Par ch=1 c=7 v=82
255866 Par ch=1 c=7 v=81
255905 Par ch=1 c=7 v=80
255928 On ch=1 n=d#6 v=0
255928 On ch=1 n=c6 v=0
255928 On ch=1 n=c7 v=0
255928 On ch=1 n=a3 v=0
255928 On ch=1 n=a2 v=0
255943 Par ch=1 c=7 v=79
255981 Par ch=1 c=7 v=78
255990 On ch=1 n=c5 v=64
255990 On ch=1 n=c6 v=64
255990 On ch=1 n=d#4 v=64
255990 On ch=1 n=f#4 v=64
255990 On ch=1 n=d#5 v=64
255990 On ch=1 n=f#5 v=64
256020 Par ch=1 c=7 v=77
256048 On ch=1 n=f#5 v=0
256048 On ch=1 n=d#5 v=0
256048 On ch=1 n=f#4 v=0
256048 On ch=1 n=d#4 v=0
256048 On ch=1 n=c6 v=0
256048 On ch=1 n=c5 v=0
256050 On ch=1 n=c6 v=64
256050 On ch=1 n=c5 v=64
256050 On ch=1 n=f#4 v=64
256050 On ch=1 n=d#4 v=64
256050 On ch=1 n=d#5 v=64
256050 On ch=1 n=f#5 v=64
256058 Par ch=1 c=7 v=76
256097 Par ch=1 c=7 v=75
256135 Par ch=1 c=7 v=74
256173 Par ch=1 c=7 v=73
256212 Par ch=1 c=7 v=72
256250 Par ch=1 c=7 v=71
256250 Par ch=1 c=64 v=0
256288 On ch=1 n=f#5 v=0
256288 On ch=1 n=d#5 v=0
256288 On ch=1 n=d#4 v=0
256288 On ch=1 n=f#4 v=0
256288 On ch=1 n=c5 v=0
256288 On ch=1 n=c6 v=0
256289 Par ch=1 c=7 v=70
256290 Tempo 394737
256290 On ch=1 n=a#2 v=64
256290 On ch=1 n=a#3 v=64
256290 On ch=1 n=a#5 v=64
256290 On ch=1 n=a#6 v=64
256408 On ch=1 n=a#6 v=0
256408 On ch=1 n=a#5 v=0
256408 On ch=1 n=a#3 v=0
256408 On ch=1 n=a#2 v=0
256530 On ch=1 n=a#4 v=64
256530 On ch=1 n=a#5 v=64
256648 On ch=1 n=a#5 v=0
256648 On ch=1 n=a#4 v=0
256650 On ch=1 n=d#4 v=64
256650 On ch=1 n=f#4 v=64
256708 On ch=1 n=f#4 v=0
256708 On ch=1 n=d#4 v=0
256770 On ch=1 n=g4 v=64
256770 On ch=1 n=e4 v=64
256770 On ch=1 n=a#6 v=64
256770 On ch=1 n=a#5 v=64
256888 On ch=1 n=a#5 v=0
256888 On ch=1 n=a#6 v=0
256888 On ch=1 n=e4 v=0
256888 On ch=1 n=g4 v=0
257010 On ch=1 n=g4 v=64
257010 On ch=1 n=e4 v=64
257010 On ch=1 n=a#6 v=64
257010 On ch=1 n=a#7 v=64
257010 Par ch=1 c=64 v=95
257128 On ch=1 n=a#7 v=0
257128 On ch=1 n=a#6 v=0
257128 On ch=1 n=e4 v=0
257128 On ch=1 n=g4 v=0
257250 On ch=1 n=a#5 v=64
257250 On ch=1 n=a#6 v=64
257310 Par ch=1 c=64 v=0
257368 On ch=1 n=a#6 v=0
257368 On ch=1 n=a#5 v=0
257370 On ch=1 n=f4 v=64
257370 On ch=1 n=g#4 v=64
257428 On ch=1 n=g#4 v=0
257428 On ch=1 n=f4 v=0
257490 On ch=1 n=d4 v=64
257490 On ch=1 n=f4 v=64
257490 On ch=1 n=a#4 v=64
257490 On ch=1 n=a#5 v=64
257608 On ch=1 n=a#5 v=0
257608 On ch=1 n=a#4 v=0
257608 On ch=1 n=f4 v=0
257608 On ch=1 n=d4 v=0
257730 On ch=1 n=a#2 v=64
257730 On ch=1 n=a#3 v=64
257730 On ch=1 n=a#5 v=64
257730 On ch=1 n=a#6 v=64
257848 On ch=1 n=a#6 v=0
257848 On ch=1 n=a#5 v=0
257848 On ch=1 n=a#3 v=0
257848 On ch=1 n=a#2 v=0
257970 On ch=1 n=a#4 v=64
257970 On ch=1 n=a#5 v=64
258088 On ch=1 n=a#5 v=0
258088 On ch=1 n=a#4 v=0
258090 On ch=1 n=d#4 v=64
258090 On ch=1 n=f#4 v=64
258148 On ch=1 n=f#4 v=0
258148 On ch=1 n=d#4 v=0
258210 On ch=1 n=g4 v=64
258210 On ch=1 n=e4 v=64
258210 On ch=1 n=a#6 v=64
258210 On ch=1 n=a#5 v=64
258328 On ch=1 n=a#5 v=0
258328 On ch=1 n=a#6 v=0
258328 On ch=1 n=e4 v=0
258328 On ch=1 n=g4 v=0
258450 On ch=1 n=g4 v=64
258450 On ch=1 n=e4 v=64
258450 On ch=1 n=a#6 v=64
258450 On ch=1 n=a#7 v=64
258450 Par ch=1 c=64 v=96
258568 On ch=1 n=a#7 v=0
258568 On ch=1 n=a#6 v=0
258568 On ch=1 n=e4 v=0
258568 On ch=1 n=g4 v=0
258690 On ch=1 n=a#5 v=64
258690 On ch=1 n=a#6 v=64
258750 Par ch=1 c=64 v=0
258808 On ch=1 n=a#6 v=0
258808 On ch=1 n=a#5 v=0
258810 On ch=1 n=f4 v=64
258810 On ch=1 n=g#4 v=64
258868 On ch=1 n=g#4 v=0
258868 On ch=1 n=f4 v=0
258930 On ch=1 n=d4 v=64
258930 On ch=1 n=f4 v=64
258930 On ch=1 n=a#4 v=64
258930 On ch=1 n=a#5 v=64
259048 On ch=1 n=a#5 v=0
259048 On ch=1 n=a#4 v=0
259048 On ch=1 n=f4 v=0
259048 On ch=1 n=d4 v=0
259170 On ch=1 n=c#3 v=64
259170 On ch=1 n=c#4 v=64
259170 On ch=1 n=c#6 v=64
259170 On ch=1 n=c#7 v=64
259170 Par ch=1 c=64 v=96
259288 On ch=1 n=c#7 v=0
259288 On ch=1 n=c#6 v=0
259288 On ch=1 n=c#4 v=0
259288 On ch=1 n=c#3 v=0
259410 On ch=1 n=c#5 v=64
259410 On ch=1 n=c#6 v=64
259470 Par ch=1 c=64 v=0
259528 On ch=1 n=c#6 v=0
259528 On ch=1 n=c#5 v=0
259530 On ch=1 n=f#4 v=64
259530 On ch=1 n=a4 v=64
259588 On ch=1 n=a4 v=0
259588 On ch=1 n=f#4 v=0
259650 On ch=1 n=a#4 v=64
259650 On ch=1 n=g4 v=64
259650 On ch=1 n=c#7 v=64
259650 On ch=1 n=c#6 v=64
259768 On ch=1 n=c#6 v=0
259768 On ch=1 n=c#7 v=0
259768 On ch=1 n=g4 v=0
259768 On ch=1 n=a#4 v=0
259890 On ch=1 n=a#4 v=64
259890 On ch=1 n=g4 v=64
259890 On ch=1 n=c#7 v=64
259890 On ch=1 n=c#8 v=64
259890 Par ch=1 c=64 v=96
260008 On ch=1 n=c#8 v=0
260008 On ch=1 n=c#7 v=0
260008 On ch=1 n=g4 v=0
260008 On ch=1 n=a#4 v=0
260130 On ch=1 n=c#6 v=64
260130 On ch=1 n=c#7 v=64
260190 Par ch=1 c=64 v=0
260248 On ch=1 n=c#7 v=0
260248 On ch=1 n=c#6 v=0
260250 On ch=1 n=g#4 v=64
260250 On ch=1 n=b4 v=64
260308 On ch=1 n=b4 v=0
260308 On ch=1 n=g#4 v=0
260370 On ch=1 n=f4 v=64
260370 On ch=1 n=g#4 v=64
260370 On ch=1 n=c#5 v=64
260370 On ch=1 n=c#6 v=64
260488 On ch=1 n=c#6 v=0
260488 On ch=1 n=c#5 v=0
260488 On ch=1 n=g#4 v=0
260488 On ch=1 n=f4 v=0
260610 On ch=1 n=c#3 v=64
260610 On ch=1 n=c#4 v=64
260610 On ch=1 n=c#6 v=64
260610 On ch=1 n=c#7 v=64
260610 Par ch=1 c=64 v=96
260728 On ch=1 n=c#7 v=0
260728 On ch=1 n=c#6 v=0
260728 On ch=1 n=c#4 v=0
260728 On ch=1 n=c#3 v=0
260850 On ch=1 n=c#5 v=64
260850 On ch=1 n=c#6 v=64
260910 Par ch=1 c=64 v=0
260968 On ch=1 n=c#6 v=0
260968 On ch=1 n=c#5 v=0
260970 On ch=1 n=f#4 v=64
260970 On ch=1 n=a4 v=64
261028 On ch=1 n=a4 v=0
261028 On ch=1 n=f#4 v=0
261090 On ch=1 n=a#4 v=64
261090 On ch=1 n=g4 v=64
261090 On ch=1 n=c#7 v=64
261090 On ch=1 n=c#6 v=64
261208 On ch=1 n=c#6 v=0
261208 On ch=1 n=c#7 v=0
261208 On ch=1 n=g4 v=0
261208 On ch=1 n=a#4 v=0
261330 On ch=1 n=a#4 v=64
261330 On ch=1 n=g4 v=64
261330 On ch=1 n=c#7 v=64
261330 On ch=1 n=c#8 v=64
261330 Par ch=1 c=64 v=96
261448 On ch=1 n=c#8 v=0
261448 On ch=1 n=c#7 v=0
261448 On ch=1 n=g4 v=0
261448 On ch=1 n=a#4 v=0
261570 On ch=1 n=c#6 v=64
261570 On ch=1 n=c#7 v=64
261630 Par ch=1 c=64 v=0
261688 On ch=1 n=c#7 v=0
261688 On ch=1 n=c#6 v=0
261690 On ch=1 n=g#4 v=64
261690 On ch=1 n=b4 v=64
261748 On ch=1 n=b4 v=0
261748 On ch=1 n=g#4 v=0
261810 On ch=1 n=f4 v=64
261810 On ch=1 n=g#4 v=64
261810 On ch=1 n=c#5 v=64
261810 On ch=1 n=c#6 v=64
261928 On ch=1 n=c#6 v=0
261928 On ch=1 n=c#5 v=0
261928 On ch=1 n=g#4 v=0
261928 On ch=1 n=f4 v=0
262050 Par ch=1 c=7 v=70
262050 On ch=1 n=e3 v=64
262050 On ch=1 n=e4 v=64
262050 On ch=1 n=e6 v=64
262050 On ch=1 n=e7 v=64
262050 Par ch=1 c=64 v=96
262157 Par ch=1 c=7 v=71
262168 On ch=1 n=e7 v=0
262168 On ch=1 n=e6 v=0
262168 On ch=1 n=e4 v=0
262168 On ch=1 n=e3 v=0
262265 Par ch=1 c=7 v=72
262290 On ch=1 n=e5 v=64
262290 On ch=1 n=e6 v=64
262373 Par ch=1 c=7 v=73
262408 On ch=1 n=e6 v=0
262408 On ch=1 n=e5 v=0
262410 On ch=1 n=a4 v=64
262410 On ch=1 n=c5 v=64
262468 On ch=1 n=c5 v=0
262468 On ch=1 n=a4 v=0
262478 Par ch=1 c=7 v=74
262527 On ch=1 n=c#5 v=64
262527 On ch=1 n=a#4 v=64
262527 On ch=1 n=e7 v=64
262527 On ch=1 n=e6 v=64
262586 Par ch=1 c=7 v=75
262587 Par ch=1 c=64 v=0
262645 On ch=1 n=e6 v=0
262645 On ch=1 n=e7 v=0
262645 On ch=1 n=a#4 v=0
262645 On ch=1 n=c#5 v=0
262694 Par ch=1 c=7 v=76
262767 On ch=1 n=c#5 v=64
262767 On ch=1 n=a#4 v=64
262767 On ch=1 n=e7 v=64
262767 On ch=1 n=e8 v=64
262767 Par ch=1 c=64 v=96
262802 Par ch=1 c=7 v=77
262885 On ch=1 n=e8 v=0
262885 On ch=1 n=e7 v=0
262885 On ch=1 n=a#4 v=0
262885 On ch=1 n=c#5 v=0
262910 Par ch=1 c=7 v=78
263007 On ch=1 n=e6 v=64
263007 On ch=1 n=e7 v=64
263018 Par ch=1 c=7 v=79
263125 On ch=1 n=e7 v=0
263125 On ch=1 n=e6 v=0
263126 Par ch=1 c=7 v=80
263127 On ch=1 n=b4 v=64
263127 On ch=1 n=d5 v=64
263185 On ch=1 n=d5 v=0
263185 On ch=1 n=b4 v=0
263234 Par ch=1 c=7 v=81
263244 On ch=1 n=g#4 v=64
263244 On ch=1 n=b4 v=64
263244 On ch=1 n=e5 v=64
263244 On ch=1 n=e6 v=64
263304 Par ch=1 c=64 v=0
263339 Par ch=1 c=7 v=82
263362 On ch=1 n=e6 v=0
263362 On ch=1 n=e5 v=0
263362 On ch=1 n=b4 v=0
263362 On ch=1 n=g#4 v=0
263447 Par ch=1 c=7 v=83
263484 On ch=1 n=g3 v=64
263484 On ch=1 n=g4 v=64
263484 On ch=1 n=g6 v=64
263484 On ch=1 n=g7 v=64
263484 Par ch=1 c=64 v=96
263555 Par ch=1 c=7 v=84
263602 On ch=1 n=g7 v=0
263602 On ch=1 n=g6 v=0
263602 On ch=1 n=g4 v=0
263602 On ch=1 n=g3 v=0
263663 Par ch=1 c=7 v=85
263724 On ch=1 n=g5 v=64
263724 On ch=1 n=g6 v=64
263771 Par ch=1 c=7 v=86
263842 On ch=1 n=g6 v=0
263842 On ch=1 n=g5 v=0
263844 On ch=1 n=c5 v=64
263844 On ch=1 n=d#5 v=64
263879 Par ch=1 c=7 v=87
263902 On ch=1 n=d#5 v=0
263902 On ch=1 n=c5 v=0
263964 On ch=1 n=e5 v=64
263964 On ch=1 n=c#5 v=64
263964 On ch=1 n=g7 v=64
263964 On ch=1 n=g6 v=64
263987 Par ch=1 c=7 v=88
264024 Par ch=1 c=64 v=0
264082 On ch=1 n=g6 v=0
264082 On ch=1 n=g7 v=0
264082 On ch=1 n=c#5 v=0
264082 On ch=1 n=e5 v=0
264092 Par ch=1 c=7 v=89
264200 Par ch=1 c=7 v=90
264201 On ch=1 n=e5 v=64
264201 On ch=1 n=c#5 v=64
264201 On ch=1 n=g7 v=64
264201 On ch=1 n=g8 v=64
264201 Par ch=1 c=64 v=96
264308 Par ch=1 c=7 v=91
264319 On ch=1 n=g8 v=0
264319 On ch=1 n=g7 v=0
264319 On ch=1 n=c#5 v=0
264319 On ch=1 n=e5 v=0
264416 Par ch=1 c=7 v=92
264441 On ch=1 n=g6 v=64
264441 On ch=1 n=g7 v=64
264524 Par ch=1 c=7 v=93
264559 On ch=1 n=g7 v=0
264559 On ch=1 n=g6 v=0
264561 On ch=1 n=d5 v=64
264561 On ch=1 n=f5 v=64
264619 On ch=1 n=f5 v=0
264619 On ch=1 n=d5 v=0
264629 Par ch=1 c=7 v=94
264678 On ch=1 n=b4 v=64
264678 On ch=1 n=d5 v=64
264678 On ch=1 n=g5 v=64
264678 On ch=1 n=g6 v=64
264737 Par ch=1 c=7 v=95
264738 Par ch=1 c=64 v=0
264796 On ch=1 n=g6 v=0
264796 On ch=1 n=g5 v=0
264796 On ch=1 n=d5 v=0
264796 On ch=1 n=b4 v=0
264845 Par ch=1 c=7 v=96
264918 On ch=1 n=g3 v=64
264918 On ch=1 n=g4 v=64
264918 On ch=1 n=a#6 v=64
264918 On ch=1 n=a#7 v=64
264918 Par ch=1 c=64 v=96
264953 Par ch=1 c=7 v=97
265036 On ch=1 n=a#7 v=0
265036 On ch=1 n=a#6 v=0
265036 On ch=1 n=g4 v=0
265036 On ch=1 n=g3 v=0
265061 Par ch=1 c=7 v=98
265158 On ch=1 n=a#5 v=64
265158 On ch=1 n=a#6 v=64
265169 Par ch=1 c=7 v=99
265276 On ch=1 n=a#6 v=0
265276 On ch=1 n=a#5 v=0
265277 Par ch=1 c=7 v=100
265278 On ch=1 n=g5 v=64
265278 On ch=1 n=c5 v=64
265278 On ch=1 n=d#5 v=64
265336 On ch=1 n=d#5 v=0
265336 On ch=1 n=c5 v=0
265336 On ch=1 n=g5 v=0
265385 Par ch=1 c=7 v=101
265395 On ch=1 n=g5 v=64
265395 On ch=1 n=e5 v=64
265395 On ch=1 n=c#5 v=64
265395 On ch=1 n=a#7 v=64
265395 On ch=1 n=a#6 v=64
265490 Par ch=1 c=7 v=102
265513 On ch=1 n=a#6 v=0
265513 On ch=1 n=a#7 v=0
265513 On ch=1 n=c#5 v=0
265513 On ch=1 n=e5 v=0
265513 On ch=1 n=g5 v=0
265598 Par ch=1 c=7 v=103
265635 On ch=1 n=g5 v=64
265635 On ch=1 n=e5 v=64
265635 On ch=1 n=c#5 v=64
265635 On ch=1 n=a#7 v=64
265635 On ch=1 n=a#8 v=64
265706 Par ch=1 c=7 v=104
265753 On ch=1 n=a#8 v=0
265753 On ch=1 n=a#7 v=0
265753 On ch=1 n=c#5 v=0
265753 On ch=1 n=e5 v=0
265753 On ch=1 n=g5 v=0
265814 Par ch=1 c=7 v=105
265875 On ch=1 n=a#6 v=64
265875 On ch=1 n=a#7 v=64
265922 Par ch=1 c=7 v=106
265993 On ch=1 n=a#7 v=0
265993 On ch=1 n=a#6 v=0
265995 On ch=1 n=g5 v=64
265995 On ch=1 n=f5 v=64
265995 On ch=1 n=d5 v=64
266030 Par ch=1 c=7 v=107
266053 On ch=1 n=d5 v=0
266053 On ch=1 n=f5 v=0
266053 On ch=1 n=g5 v=0
266115 On ch=1 n=g5 v=64
266115 On ch=1 n=d5 v=64
266115 On ch=1 n=g4 v=64
266115 On ch=1 n=a#5 v=64
266115 On ch=1 n=a#6 v=64
266138 Par ch=1 c=7 v=108
266175 Par ch=1 c=64 v=0
266233 On ch=1 n=a#6 v=0
266233 On ch=1 n=a#5 v=0
266233 On ch=1 n=g4 v=0
266233 On ch=1 n=d5 v=0
266233 On ch=1 n=g5 v=0
266243 Par ch=1 c=7 v=109
266351 Par ch=1 c=7 v=110
266352 Tempo 394737
266352 Par ch=1 c=7 v=110
266352 On ch=1 n=g3 v=64
266352 On ch=1 n=g4 v=64
266352 On ch=1 n=b6 v=64
266352 On ch=1 n=b7 v=64
266352 Par ch=1 c=64 v=96
266380 Par ch=1 c=7 v=109
266409 Par ch=1 c=7 v=108
266423 Tempo 397351
266438 Par ch=1 c=7 v=107
266467 Par ch=1 c=7 v=106
266470 On ch=1 n=b7 v=0
266470 On ch=1 n=b6 v=0
266470 On ch=1 n=g4 v=0
266470 On ch=1 n=g3 v=0
266495 Tempo 400000
266495 Par ch=1 c=7 v=105
266524 Par ch=1 c=7 v=104
266553 Par ch=1 c=7 v=103
266567 Tempo 402685
266582 Par ch=1 c=7 v=102
266592 On ch=1 n=b5 v=64
266592 On ch=1 n=b6 v=64
266611 Par ch=1 c=7 v=101
266639 Tempo 405405
266639 Par ch=1 c=7 v=100
266668 Par ch=1 c=7 v=99
266697 Par ch=1 c=7 v=98
266707 On ch=1 n=b6 v=0
266707 On ch=1 n=b5 v=0
266708 Tempo 408163
266709 On ch=1 n=g5 v=64
266709 On ch=1 n=c#5 v=64
266709 On ch=1 n=e5 v=64
266723 Par ch=1 c=7 v=97
266751 Par ch=1 c=7 v=96
266767 On ch=1 n=e5 v=0
266767 On ch=1 n=c#5 v=0
266767 On ch=1 n=g5 v=0
266777 Tempo 410959
266777 Par ch=1 c=7 v=95
266806 Par ch=1 c=7 v=94
266826 On ch=1 n=g5 v=64
266826 On ch=1 n=f5 v=64
266826 On ch=1 n=d5 v=64
266826 On ch=1 n=b7 v=64
266826 On ch=1 n=b6 v=64
266835 Par ch=1 c=7 v=93
266849 Tempo 413793
266864 Par ch=1 c=7 v=92
266892 Par ch=1 c=7 v=91
266921 Tempo 416667
266921 Par ch=1 c=7 v=90
266944 On ch=1 n=b6 v=0
266944 On ch=1 n=b7 v=0
266944 On ch=1 n=d5 v=0
266944 On ch=1 n=f5 v=0
266944 On ch=1 n=g5 v=0
266950 Par ch=1 c=7 v=89
266979 Par ch=1 c=7 v=88
266993 Tempo 419580
267007 Par ch=1 c=7 v=87
267036 Par ch=1 c=7 v=86
267065 Tempo 422535
267065 Par ch=1 c=7 v=85
267066 On ch=1 n=g5 v=64
267066 On ch=1 n=f5 v=64
267066 On ch=1 n=d5 v=64
267066 On ch=1 n=b7 v=64
267066 On ch=1 n=b8 v=64
267094 Par ch=1 c=7 v=84
267123 Par ch=1 c=7 v=83
267137 Tempo 425532
267151 Par ch=1 c=7 v=82
267180 Par ch=1 c=7 v=81
267184 On ch=1 n=b8 v=0
267184 On ch=1 n=b7 v=0
267184 On ch=1 n=d5 v=0
267184 On ch=1 n=f5 v=0
267184 On ch=1 n=g5 v=0
267209 Tempo 428571
267209 Par ch=1 c=7 v=80
267238 Par ch=1 c=7 v=79
267266 Par ch=1 c=7 v=78
267281 Tempo 431655
267295 Par ch=1 c=7 v=77
267306 On ch=1 n=b6 v=64
267306 On ch=1 n=b7 v=64
267324 Par ch=1 c=7 v=76
267353 Tempo 434783
267353 Par ch=1 c=7 v=75
267382 Par ch=1 c=7 v=74
267410 Par ch=1 c=7 v=73
267424 On ch=1 n=b7 v=0
267424 On ch=1 n=b6 v=0
267425 Tempo 437956
267426 On ch=1 n=f5 v=64
267426 On ch=1 n=d5 v=64
267426 On ch=1 n=g#4 v=64
267426 On ch=1 n=g#5 v=64
267436 Par ch=1 c=7 v=72
267465 Par ch=1 c=7 v=71
267481 On ch=1 n=g#5 v=0
267481 On ch=1 n=g#4 v=0
267481 On ch=1 n=d5 v=0
267481 On ch=1 n=f5 v=0
267491 Tempo 441176
267491 Par ch=1 c=7 v=70
267519 Par ch=1 c=7 v=69
267540 On ch=1 n=g5 v=64
267540 On ch=1 n=f5 v=64
267540 On ch=1 n=d5 v=64
267540 On ch=1 n=g4 v=64
267540 On ch=1 n=b5 v=64
267540 On ch=1 n=b6 v=64
267548 Par ch=1 c=7 v=68
267563 Tempo 444444
267577 Par ch=1 c=7 v=67
267600 Par ch=1 c=64 v=0
267606 Par ch=1 c=7 v=66
267635 Tempo 447761
267635 Par ch=1 c=7 v=65
267658 On ch=1 n=b6 v=0
267658 On ch=1 n=b5 v=0
267658 On ch=1 n=g4 v=0
267658 On ch=1 n=d5 v=0
267658 On ch=1 n=f5 v=0
267658 On ch=1 n=g5 v=0
267663 Par ch=1 c=7 v=64
267692 Par ch=1 c=7 v=63
267707 Tempo 451128
267721 Par ch=1 c=7 v=62
267750 Par ch=1 c=7 v=61
267779 Tempo 454545
267779 Par ch=1 c=7 v=60
267780 Tempo 416667
267780 On ch=1 n=c3 v=64
267780 On ch=1 n=c4 v=64
267780 On ch=1 n=e6 v=64
267780 On ch=1 n=e7 v=64
267780 Par ch=1 c=64 v=96
267898 On ch=1 n=c4 v=0
267898 On ch=1 n=c3 v=0
267900 On ch=1 n=g6 v=64
268018 On ch=1 n=g6 v=0
268020 On ch=1 n=d5 v=64
268020 On ch=1 n=g4 v=64
268020 On ch=1 n=e4 v=64
268020 On ch=1 n=c7 v=64
268138 On ch=1 n=c7 v=0
268138 On ch=1 n=e7 v=0
268138 On ch=1 n=e6 v=0
268140 On ch=1 n=d6 v=64
268140 On ch=1 n=d7 v=64
268198 On ch=1 n=e4 v=0
268198 On ch=1 n=g4 v=0
268198 On ch=1 n=d5 v=0
268260 On ch=1 n=c4 v=64
268260 On ch=1 n=e6 v=64
268378 On ch=1 n=e6 v=0
268380 On ch=1 n=g6 v=64
268438 On ch=1 n=c4 v=0
268498 On ch=1 n=g6 v=0
268498 On ch=1 n=d7 v=0
268498 On ch=1 n=d6 v=0
268500 On ch=1 n=c5 v=64
268500 On ch=1 n=g4 v=64
268500 On ch=1 n=e4 v=64
268500 On ch=1 n=c6 v=64
268500 On ch=1 n=c7 v=64
268620 On ch=1 n=e6 v=64
268678 On ch=1 n=e4 v=0
268678 On ch=1 n=g4 v=0
268678 On ch=1 n=c5 v=0
268738 On ch=1 n=e6 v=0
268740 On ch=1 n=c4 v=64
268740 On ch=1 n=g6 v=64
268858 On ch=1 n=g6 v=0
268858 On ch=1 n=c7 v=0
268858 On ch=1 n=c6 v=0
268860 On ch=1 n=b5 v=64
268860 On ch=1 n=b6 v=64
268918 On ch=1 n=c4 v=0
268980 On ch=1 n=b4 v=64
268980 On ch=1 n=g4 v=64
268980 On ch=1 n=e4 v=64
268980 On ch=1 n=e6 v=64
269098 On ch=1 n=e6 v=0
269100 On ch=1 n=g6 v=64
269158 On ch=1 n=e4 v=0
269158 On ch=1 n=g4 v=0
269158 On ch=1 n=b4 v=0
269180 Par ch=1 c=64 v=0
269218 On ch=1 n=g6 v=0
269218 On ch=1 n=b6 v=0
269218 On ch=1 n=b5 v=0
269220 On ch=1 n=c3 v=64
269220 On ch=1 n=a5 v=64
269220 On ch=1 n=a6 v=64
269220 Par ch=1 c=64 v=96
269338 On ch=1 n=c3 v=0
269340 On ch=1 n=c6 v=64
269458 On ch=1 n=c6 v=0
269460 On ch=1 n=a4 v=64
269460 On ch=1 n=e4 v=64
269460 On ch=1 n=e6 v=64
269460 On ch=1 n=f#4 v=64
269578 On ch=1 n=e6 v=0
269578 On ch=1 n=a6 v=0
269578 On ch=1 n=a5 v=0
269580 On ch=1 n=f#5 v=64
269580 On ch=1 n=f#6 v=64
269638 On ch=1 n=f#4 v=0
269638 On ch=1 n=e4 v=0
269638 On ch=1 n=a4 v=0
269700 On ch=1 n=c4 v=64
269700 On ch=1 n=c6 v=64
269818 On ch=1 n=c6 v=0
269820 On ch=1 n=e6 v=64
269878 On ch=1 n=c4 v=0
269938 On ch=1 n=e6 v=0
269938 On ch=1 n=f#6 v=0
269938 On ch=1 n=f#5 v=0
269940 On ch=1 n=g4 v=64
269940 On ch=1 n=e4 v=64
269940 On ch=1 n=g5 v=64
269940 On ch=1 n=g6 v=64
270060 On ch=1 n=c6 v=64
270118 On ch=1 n=e4 v=0
270118 On ch=1 n=g4 v=0
270178 On ch=1 n=c6 v=0
270180 On ch=1 n=c4 v=64
270180 On ch=1 n=e6 v=64
270298 On ch=1 n=e6 v=0
270298 On ch=1 n=g6 v=0
270298 On ch=1 n=g5 v=0
270300 On ch=1 n=e6 v=64
270300 On ch=1 n=e7 v=64
270358 On ch=1 n=c4 v=0
270420 On ch=1 n=e5 v=64
270420 On ch=1 n=c5 v=64
270420 On ch=1 n=g4 v=64
270420 On ch=1 n=g6 v=64
270420 Par ch=1 c=64 v=0
270538 On ch=1 n=g6 v=0
270540 On ch=1 n=c7 v=64
270598 On ch=1 n=g4 v=0
270598 On ch=1 n=c5 v=0
270598 On ch=1 n=e5 v=0
270658 On ch=1 n=c7 v=0
270658 On ch=1 n=e7 v=0
270658 On ch=1 n=e6 v=0
270660 On ch=1 n=c3 v=64
270660 On ch=1 n=c4 v=64
270660 On ch=1 n=e6 v=64
270660 On ch=1 n=e7 v=64
270660 Par ch=1 c=64 v=96
270778 On ch=1 n=c4 v=0
270778 On ch=1 n=c3 v=0
270780 On ch=1 n=f#6 v=64
270898 On ch=1 n=f#6 v=0
270900 On ch=1 n=e5 v=64
270900 On ch=1 n=a4 v=64
270900 On ch=1 n=a6 v=64
270900 On ch=1 n=f#4 v=64
271018 On ch=1 n=a6 v=0
271018 On ch=1 n=e7 v=0
271018 On ch=1 n=e6 v=0
271020 On ch=1 n=c#6 v=64
271020 On ch=1 n=c#7 v=64
271078 On ch=1 n=f#4 v=0
271078 On ch=1 n=a4 v=0
271078 On ch=1 n=e5 v=0
271140 On ch=1 n=c4 v=64
271140 On ch=1 n=f#6 v=64
271258 On ch=1 n=f#6 v=0
271260 On ch=1 n=a6 v=64
271318 On ch=1 n=c4 v=0
271378 On ch=1 n=a6 v=0
271378 On ch=1 n=c#7 v=0
271378 On ch=1 n=c#6 v=0
271380 Par ch=1 c=7 v=60
271380 On ch=1 n=d5 v=64
271380 On ch=1 n=a4 v=64
271380 On ch=1 n=d6 v=64
271380 On ch=1 n=d7 v=64
271380 On ch=1 n=f#4 v=64
271500 On ch=1 n=f#6 v=64
271558 On ch=1 n=f#4 v=0
271558 On ch=1 n=a4 v=0
271558 On ch=1 n=d5 v=0
271618 On ch=1 n=f#6 v=0
271620 On ch=1 n=c4 v=64
271620 On ch=1 n=a6 v=64
271667 Par ch=1 c=7 v=61
271738 On ch=1 n=a6 v=0
271738 On ch=1 n=d7 v=0
271738 On ch=1 n=d6 v=0
271740 On ch=1 n=e6 v=64
271740 On ch=1 n=e7 v=64
271798 On ch=1 n=c4 v=0
271860 On ch=1 n=e5 v=64
271860 On ch=1 n=a4 v=64
271860 On ch=1 n=f#6 v=64
271860 On ch=1 n=f#4 v=64
271955 Par ch=1 c=7 v=62
271978 On ch=1 n=f#6 v=0
271980 On ch=1 n=a6 v=64
272038 On ch=1 n=f#4 v=0
272038 On ch=1 n=a4 v=0
272038 On ch=1 n=e5 v=0
272060 Par ch=1 c=64 v=0
272098 On ch=1 n=a6 v=0
272098 On ch=1 n=e7 v=0
272098 On ch=1 n=e6 v=0
272100 On ch=1 n=c4 v=64
272100 On ch=1 n=f6 v=64
272100 On ch=1 n=f7 v=64
272100 Par ch=1 c=64 v=96
272218 On ch=1 n=c4 v=0
272220 On ch=1 n=b6 v=64
272243 Par ch=1 c=7 v=63
272338 On ch=1 n=b6 v=0
272340 On ch=1 n=f5 v=64
272340 On ch=1 n=b4 v=64
272340 On ch=1 n=g4 v=64
272340 On ch=1 n=d7 v=64
272458 On ch=1 n=d7 v=0
272458 On ch=1 n=f7 v=0
272458 On ch=1 n=f6 v=0
272460 On ch=1 n=f#6 v=64
272460 On ch=1 n=f#7 v=64
272518 On ch=1 n=g4 v=0
272518 On ch=1 n=b4 v=0
272518 On ch=1 n=f5 v=0
272528 Par ch=1 c=7 v=64
272577 On ch=1 n=c4 v=64
272577 On ch=1 n=b6 v=64
272695 On ch=1 n=b6 v=0
272697 On ch=1 n=d7 v=64
272755 On ch=1 n=c4 v=0
272815 On ch=1 n=d7 v=0
272815 On ch=1 n=f#7 v=0
272815 On ch=1 n=f#6 v=0
272816 Par ch=1 c=7 v=65
272817 Par ch=1 c=7 v=65
272817 On ch=1 n=a5 v=64
272817 On ch=1 n=f5 v=64
272817 On ch=1 n=b4 v=64
272817 On ch=1 n=a6 v=64
272817 On ch=1 n=a7 v=64
272937 On ch=1 n=b6 v=64
272960 Par ch=1 c=7 v=64
272995 On ch=1 n=b4 v=0
272995 On ch=1 n=f5 v=0
272995 On ch=1 n=a5 v=0
273055 On ch=1 n=b6 v=0
273057 On ch=1 n=c4 v=64
273057 On ch=1 n=d7 v=64
273104 Par ch=1 c=7 v=63
273175 On ch=1 n=d7 v=0
273175 On ch=1 n=a7 v=0
273175 On ch=1 n=a6 v=0
273177 On ch=1 n=g6 v=64
273177 On ch=1 n=g7 v=64
273235 On ch=1 n=c4 v=0
273245 Par ch=1 c=7 v=62
273294 On ch=1 n=g5 v=64
273294 On ch=1 n=f5 v=64
273294 On ch=1 n=b4 v=64
273294 On ch=1 n=b6 v=64
273294 Par ch=1 c=64 v=0
273389 Par ch=1 c=7 v=61
273412 On ch=1 n=b6 v=0
273414 On ch=1 n=d7 v=64
273472 On ch=1 n=b4 v=0
273472 On ch=1 n=f5 v=0
273472 On ch=1 n=g5 v=0
273532 On ch=1 n=d7 v=0
273532 On ch=1 n=g7 v=0
273532 On ch=1 n=g6 v=0
273533 Par ch=1 c=7 v=60
273534 On ch=1 n=e6 v=64
273534 On ch=1 n=e7 v=64
273534 On ch=1 n=c3 v=64
273534 On ch=1 n=c4 v=64
273534 Par ch=1 c=64 v=96
273652 On ch=1 n=c4 v=0
273652 On ch=1 n=c3 v=0
273654 On ch=1 n=g6 v=64
273772 On ch=1 n=g6 v=0
273772 On ch=1 n=e7 v=0
273772 On ch=1 n=e6 v=0
273774 On ch=1 n=d5 v=64
273774 On ch=1 n=g4 v=64
273774 On ch=1 n=e4 v=64
273774 On ch=1 n=c7 v=64
273892 On ch=1 n=c7 v=0
273894 On ch=1 n=d6 v=64
273894 On ch=1 n=d7 v=64
273952 On ch=1 n=e4 v=0
273952 On ch=1 n=g4 v=0
273952 On ch=1 n=d5 v=0
274014 On ch=1 n=c4 v=64
274014 On ch=1 n=e6 v=64
274132 On ch=1 n=e6 v=0
274132 On ch=1 n=d7 v=0
274132 On ch=1 n=d6 v=0
274134 On ch=1 n=g6 v=64
274192 On ch=1 n=c4 v=0
274252 On ch=1 n=g6 v=0
274254 On ch=1 n=c6 v=64
274254 On ch=1 n=c7 v=64
274254 On ch=1 n=c5 v=64
274254 On ch=1 n=g4 v=64
274254 On ch=1 n=e4 v=64
274374 On ch=1 n=e6 v=64
274432 On ch=1 n=e4 v=0
274432 On ch=1 n=g4 v=0
274432 On ch=1 n=c5 v=0
274492 On ch=1 n=e6 v=0
274492 On ch=1 n=c7 v=0
274492 On ch=1 n=c6 v=0
274494 On ch=1 n=c4 v=64
274494 On ch=1 n=g6 v=64
274612 On ch=1 n=g6 v=0
274614 On ch=1 n=b5 v=64
274614 On ch=1 n=b6 v=64
274672 On ch=1 n=c4 v=0
274734 On ch=1 n=b4 v=64
274734 On ch=1 n=g4 v=64
274734 On ch=1 n=e4 v=64
274734 On ch=1 n=e6 v=64
274852 On ch=1 n=e6 v=0
274852 On ch=1 n=b6 v=0
274852 On ch=1 n=b5 v=0
274854 On ch=1 n=g6 v=64
274912 On ch=1 n=e4 v=0
274912 On ch=1 n=g4 v=0
274912 On ch=1 n=b4 v=0
274934 Par ch=1 c=64 v=0
274972 On ch=1 n=g6 v=0
274974 On ch=1 n=a5 v=64
274974 On ch=1 n=a6 v=64
274974 On ch=1 n=c4 v=64
274974 Par ch=1 c=64 v=96
275092 On ch=1 n=c4 v=0
275094 On ch=1 n=c6 v=64
275212 On ch=1 n=c6 v=0
275212 On ch=1 n=a6 v=0
275212 On ch=1 n=a5 v=0
275214 On ch=1 n=a4 v=64
275214 On ch=1 n=e4 v=64
275214 On ch=1 n=e6 v=64
275214 On ch=1 n=f#4 v=64
275332 On ch=1 n=e6 v=0
275334 On ch=1 n=f#5 v=64
275334 On ch=1 n=f#6 v=64
275392 On ch=1 n=f#4 v=0
275392 On ch=1 n=e4 v=0
275392 On ch=1 n=a4 v=0
275454 On ch=1 n=c4 v=64
275454 On ch=1 n=c6 v=64
275572 On ch=1 n=c6 v=0
275572 On ch=1 n=f#6 v=0
275572 On ch=1 n=f#5 v=0
275574 On ch=1 n=e6 v=64
275632 On ch=1 n=c4 v=0
275692 On ch=1 n=e6 v=0
275694 On ch=1 n=g5 v=64
275694 On ch=1 n=g6 v=64
275694 On ch=1 n=g4 v=64
275694 On ch=1 n=e4 v=64
275814 On ch=1 n=c6 v=64
275872 On ch=1 n=e4 v=0
275872 On ch=1 n=g4 v=0
275932 On ch=1 n=c6 v=0
275932 On ch=1 n=g6 v=0
275932 On ch=1 n=g5 v=0
275934 On ch=1 n=c4 v=64
275934 On ch=1 n=e6 v=64
276052 On ch=1 n=e6 v=0
276054 On ch=1 n=e6 v=64
276054 On ch=1 n=e7 v=64
276112 On ch=1 n=c4 v=0
276174 On ch=1 n=e5 v=64
276174 On ch=1 n=c5 v=64
276174 On ch=1 n=g4 v=64
276174 On ch=1 n=g6 v=64
276292 On ch=1 n=g6 v=0
276292 On ch=1 n=e7 v=0
276292 On ch=1 n=e6 v=0
276294 On ch=1 n=c7 v=64
276352 On ch=1 n=g4 v=0
276352 On ch=1 n=c5 v=0
276352 On ch=1 n=e5 v=0
276374 Par ch=1 c=64 v=0
276412 On ch=1 n=c7 v=0
276413 Tempo 416667
276414 Par ch=1 c=7 v=60
276414 On ch=1 n=e6 v=64
276414 On ch=1 n=e7 v=64
276414 On ch=1 n=b2 v=64
276414 Par ch=1 c=64 v=96
276461 Par ch=1 c=7 v=61
276509 Par ch=1 c=7 v=62
276532 On ch=1 n=b2 v=0
276532 On ch=1 n=e6 v=0
276533 Tempo 419580
276534 On ch=1 n=f#6 v=64
276557 Par ch=1 c=7 v=63
276605 Par ch=1 c=7 v=64
276652 On ch=1 n=f#6 v=0
276652 On ch=1 n=e7 v=0
276653 Tempo 422535
276653 Par ch=1 c=7 v=65
276654 On ch=1 n=a6 v=64
276654 On ch=1 n=a4 v=64
276654 On ch=1 n=d#5 v=64
276654 On ch=1 n=f#4 v=64
276701 Par ch=1 c=7 v=66
276749 Par ch=1 c=7 v=67
276772 On ch=1 n=a6 v=0
276773 Tempo 425532
276774 On ch=1 n=d#6 v=64
276774 On ch=1 n=d#7 v=64
276797 Par ch=1 c=7 v=68
276832 On ch=1 n=f#4 v=0
276832 On ch=1 n=d#5 v=0
276832 On ch=1 n=a4 v=0
276842 Par ch=1 c=7 v=69
276889 On ch=1 n=d#6 v=0
276890 Tempo 428571
276890 Par ch=1 c=7 v=70
276891 On ch=1 n=b3 v=64
276891 On ch=1 n=f#6 v=64
276938 Par ch=1 c=7 v=71
276986 Par ch=1 c=7 v=72
277009 On ch=1 n=f#6 v=0
277009 On ch=1 n=d#7 v=0
277010 Tempo 431655
277011 On ch=1 n=a6 v=64
277034 Par ch=1 c=7 v=73
277069 On ch=1 n=b3 v=0
277079 Par ch=1 c=7 v=74
277126 On ch=1 n=a6 v=0
277127 Tempo 434783
277127 Par ch=1 c=7 v=75
277128 On ch=1 n=g6 v=64
277128 On ch=1 n=g7 v=64
277128 On ch=1 n=g5 v=64
277128 On ch=1 n=a4 v=64
277128 On ch=1 n=d#5 v=64
277175 Par ch=1 c=7 v=76
277223 Par ch=1 c=7 v=77
277246 On ch=1 n=g6 v=0
277247 Tempo 437956
277248 On ch=1 n=a6 v=64
277271 Par ch=1 c=7 v=78
277306 On ch=1 n=d#5 v=0
277306 On ch=1 n=a4 v=0
277306 On ch=1 n=g5 v=0
277316 Par ch=1 c=7 v=79
277363 On ch=1 n=a6 v=0
277363 On ch=1 n=g7 v=0
277364 Tempo 441176
277364 Par ch=1 c=7 v=80
277365 On ch=1 n=b3 v=64
277365 On ch=1 n=d#7 v=64
277412 Par ch=1 c=7 v=81
277460 Par ch=1 c=7 v=82
277483 On ch=1 n=d#7 v=0
277484 Tempo 444444
277485 On ch=1 n=f#6 v=64
277485 On ch=1 n=f#7 v=64
277508 Par ch=1 c=7 v=83
277543 On ch=1 n=b3 v=0
277553 Par ch=1 c=7 v=84
277600 On ch=1 n=f#6 v=0
277601 Tempo 447761
277601 Par ch=1 c=7 v=85
277602 On ch=1 n=a6 v=64
277602 On ch=1 n=a4 v=64
277602 On ch=1 n=f#5 v=64
277602 On ch=1 n=d#5 v=64
277649 Par ch=1 c=7 v=86
277697 Par ch=1 c=7 v=87
277720 On ch=1 n=a6 v=0
277720 On ch=1 n=f#7 v=0
277721 Tempo 451128
277722 On ch=1 n=d#7 v=64
277745 Par ch=1 c=7 v=88
277780 On ch=1 n=d#5 v=0
277780 On ch=1 n=f#5 v=0
277780 On ch=1 n=a4 v=0
277790 Par ch=1 c=7 v=89
277799 Par ch=1 c=64 v=0
277837 On ch=1 n=d#7 v=0
277838 Tempo 454545
277838 Par ch=1 c=7 v=90
277839 On ch=1 n=e3 v=64
277839 On ch=1 n=e4 v=64
277839 On ch=1 n=a6 v=64
277839 On ch=1 n=a7 v=64
277839 Par ch=1 c=64 v=96
277886 Par ch=1 c=7 v=91
277934 Par ch=1 c=7 v=92
277957 On ch=1 n=e4 v=0
277957 On ch=1 n=e3 v=0
277958 Tempo 458015
277959 On ch=1 n=b6 v=64
277982 Par ch=1 c=7 v=93
278030 Par ch=1 c=7 v=94
278077 On ch=1 n=b6 v=0
278077 On ch=1 n=a7 v=0
278077 On ch=1 n=a6 v=0
278078 Tempo 461538
278078 Par ch=1 c=7 v=95
278079 On ch=1 n=a5 v=64
278079 On ch=1 n=e5 v=64
278079 On ch=1 n=b4 v=64
278079 On ch=1 n=e7 v=64
278126 Par ch=1 c=7 v=96
278174 Par ch=1 c=7 v=97
278197 On ch=1 n=e7 v=0
278198 Tempo 465116
278199 On ch=1 n=g6 v=64
278199 On ch=1 n=g7 v=64
278222 Par ch=1 c=7 v=98
278257 On ch=1 n=b4 v=0
278257 On ch=1 n=e5 v=0
278257 On ch=1 n=a5 v=0
278267 Par ch=1 c=7 v=99
278315 Tempo 468750
278315 Par ch=1 c=7 v=100
278316 On ch=1 n=g5 v=64
278316 On ch=1 n=e5 v=64
278316 On ch=1 n=b4 v=64
278316 On ch=1 n=b6 v=64
278363 Par ch=1 c=7 v=101
278411 Par ch=1 c=7 v=102
278434 On ch=1 n=b6 v=0
278434 On ch=1 n=g7 v=0
278434 On ch=1 n=g6 v=0
278435 Tempo 472441
278436 On ch=1 n=e7 v=64
278459 Par ch=1 c=7 v=103
278494 On ch=1 n=b4 v=0
278494 On ch=1 n=e5 v=0
278494 On ch=1 n=g5 v=0
278504 Par ch=1 c=7 v=104
278513 Par ch=1 c=64 v=0
278551 On ch=1 n=e7 v=0
278552 Tempo 476190
278552 Par ch=1 c=7 v=105
278553 On ch=1 n=g3 v=64
278553 On ch=1 n=g4 v=64
278553 On ch=1 n=b6 v=64
278553 On ch=1 n=b7 v=64
278553 Par ch=1 c=64 v=96
278600 Par ch=1 c=7 v=106
278648 Par ch=1 c=7 v=107
278671 On ch=1 n=g4 v=0
278671 On ch=1 n=g3 v=0
278672 Tempo 480000
278673 On ch=1 n=d7 v=64
278696 Par ch=1 c=7 v=108
278744 Par ch=1 c=7 v=109
278791 On ch=1 n=d7 v=0
278791 On ch=1 n=b7 v=0
278791 On ch=1 n=b6 v=0
278792 Tempo 483871
278792 Par ch=1 c=7 v=110
278793 On ch=1 n=a5 v=64
278793 On ch=1 n=f5 v=64
278793 On ch=1 n=d5 v=64
278793 On ch=1 n=b4 v=64
278793 On ch=1 n=f7 v=64
278840 Par ch=1 c=7 v=111
278888 Par ch=1 c=7 v=112
278911 On ch=1 n=f7 v=0
278912 Tempo 487805
278913 On ch=1 n=a6 v=64
278913 On ch=1 n=a7 v=64
278936 Par ch=1 c=7 v=113
278971 On ch=1 n=b4 v=0
278971 On ch=1 n=d5 v=0
278971 On ch=1 n=f5 v=0
278971 On ch=1 n=a5 v=0
278981 Par ch=1 c=7 v=114
279029 Tempo 491803
279029 Par ch=1 c=7 v=115
279030 On ch=1 n=g5 v=64
279030 On ch=1 n=f5 v=64
279030 On ch=1 n=d5 v=64
279030 On ch=1 n=b4 v=64
279030 On ch=1 n=f7 v=64
279030 On ch=1 n=d7 v=64
279077 Par ch=1 c=7 v=116
279125 Par ch=1 c=7 v=117
279148 On ch=1 n=d7 v=0
279148 On ch=1 n=f7 v=0
279148 On ch=1 n=a7 v=0
279148 On ch=1 n=a6 v=0
279149 Tempo 495868
279150 On ch=1 n=g6 v=64
279150 On ch=1 n=g7 v=64
279173 Par ch=1 c=7 v=118
279208 On ch=1 n=b4 v=0
279208 On ch=1 n=d5 v=0
279208 On ch=1 n=f5 v=0
279208 On ch=1 n=g5 v=0
279218 Par ch=1 c=7 v=119
279227 Par ch=1 c=64 v=0
279265 On ch=1 n=g7 v=0
279265 On ch=1 n=g6 v=0
279266 Par ch=1 c=7 v=120
279267 Tempo 476190
279267 On ch=1 n=c3 v=64
279267 On ch=1 n=c4 v=64
279267 On ch=1 n=e8 v=64
279267 On ch=1 n=g7 v=64
279267 On ch=1 n=e7 v=64
279267 Par ch=1 c=64 v=96
279385 On ch=1 n=e7 v=0
279385 On ch=1 n=g7 v=0
279385 On ch=1 n=e8 v=0
279385 On ch=1 n=c4 v=0
279385 On ch=1 n=c3 v=0
279387 On ch=1 n=e6 v=64
279387 On ch=1 n=g5 v=64
279387 On ch=1 n=e5 v=64
279507 On ch=1 n=d8 v=64
279507 On ch=1 n=g7 v=64
279507 On ch=1 n=e7 v=64
279507 On ch=1 n=d7 v=64
279625 On ch=1 n=d7 v=0
279625 On ch=1 n=e7 v=0
279625 On ch=1 n=g7 v=0
279625 On ch=1 n=d8 v=0
279625 On ch=1 n=e5 v=0
279625 On ch=1 n=g5 v=0
279625 On ch=1 n=e6 v=0
279627 On ch=1 n=d6 v=64
279627 On ch=1 n=g5 v=64
279627 On ch=1 n=e5 v=64
279627 On ch=1 n=d5 v=64
279747 On ch=1 n=c8 v=64
279747 On ch=1 n=g7 v=64
279747 On ch=1 n=e7 v=64
279747 On ch=1 n=c7 v=64
279865 On ch=1 n=c7 v=0
279865 On ch=1 n=e7 v=0
279865 On ch=1 n=g7 v=0
279865 On ch=1 n=c8 v=0
279865 On ch=1 n=d5 v=0
279865 On ch=1 n=e5 v=0
279865 On ch=1 n=g5 v=0
279865 On ch=1 n=d6 v=0
279867 On ch=1 n=c6 v=64
279867 On ch=1 n=g5 v=64
279867 On ch=1 n=e5 v=64
279867 On ch=1 n=c5 v=64
279987 On ch=1 n=b7 v=64
279987 On ch=1 n=g7 v=64
279987 On ch=1 n=e7 v=64
279987 On ch=1 n=b6 v=64
280105 On ch=1 n=b6 v=0
280105 On ch=1 n=e7 v=0
280105 On ch=1 n=g7 v=0
280105 On ch=1 n=b7 v=0
280105 On ch=1 n=c5 v=0
280105 On ch=1 n=e5 v=0
280105 On ch=1 n=g5 v=0
280105 On ch=1 n=c6 v=0
280107 On ch=1 n=b5 v=64
280107 On ch=1 n=g5 v=64
280107 On ch=1 n=e5 v=64
280107 On ch=1 n=b4 v=64
280225 On ch=1 n=b4 v=0
280225 On ch=1 n=e5 v=0
280225 On ch=1 n=g5 v=0
280225 On ch=1 n=b5 v=0
280227 Tempo 476190
280227 On ch=1 n=a7 v=64
280227 On ch=1 n=e7 v=64
280227 On ch=1 n=c7 v=64
280227 On ch=1 n=a6 v=64
280345 On ch=1 n=a6 v=0
280345 On ch=1 n=c7 v=0
280345 On ch=1 n=e7 v=0
280345 On ch=1 n=a7 v=0
280347 On ch=1 n=a5 v=64
280347 On ch=1 n=e5 v=64
280347 On ch=1 n=c5 v=64
280347 On ch=1 n=a4 v=64
280467 On ch=1 n=e7 v=64
280467 On ch=1 n=c7 v=64
280467 On ch=1 n=f#6 v=64
280467 On ch=1 n=f#7 v=64
280585 On ch=1 n=f#7 v=0
280585 On ch=1 n=f#6 v=0
280585 On ch=1 n=c7 v=0
280585 On ch=1 n=e7 v=0
280585 On ch=1 n=a4 v=0
280585 On ch=1 n=c5 v=0
280585 On ch=1 n=e5 v=0
280585 On ch=1 n=a5 v=0
280587 On ch=1 n=e5 v=64
280587 On ch=1 n=c5 v=64
280587 On ch=1 n=f#4 v=64
280587 On ch=1 n=f#5 v=64
280707 On ch=1 n=g7 v=64
280707 On ch=1 n=e7 v=64
280707 On ch=1 n=c7 v=64
280707 On ch=1 n=g6 v=64
280825 On ch=1 n=g6 v=0
280825 On ch=1 n=c7 v=0
280825 On ch=1 n=e7 v=0
280825 On ch=1 n=g7 v=0
280825 On ch=1 n=f#5 v=0
280825 On ch=1 n=f#4 v=0
280825 On ch=1 n=c5 v=0
280825 On ch=1 n=e5 v=0
280827 On ch=1 n=g5 v=64
280827 On ch=1 n=e5 v=64
280827 On ch=1 n=c5 v=64
280827 On ch=1 n=g4 v=64
280945 On ch=1 n=g4 v=0
280945 On ch=1 n=c5 v=0
280945 On ch=1 n=e5 v=0
280945 On ch=1 n=g5 v=0
280947 On ch=1 n=e8 v=64
280947 On ch=1 n=c8 v=64
280947 On ch=1 n=g7 v=64
280947 On ch=1 n=e7 v=64
280947 Par ch=1 c=64 v=0
281065 On ch=1 n=e7 v=0
281065 On ch=1 n=g7 v=0
281065 On ch=1 n=c8 v=0
281065 On ch=1 n=e8 v=0
281067 On ch=1 n=c3 v=64
281067 Par ch=1 c=64 v=96
281187 On ch=1 n=c4 v=64
281187 On ch=1 n=e8 v=64
281187 On ch=1 n=a7 v=64
281187 On ch=1 n=e7 v=64
281187 On ch=1 n=f#7 v=64
281245 On ch=1 n=c4 v=0
281245 On ch=1 n=c3 v=0
281305 On ch=1 n=f#7 v=0
281305 On ch=1 n=e7 v=0
281305 On ch=1 n=a7 v=0
281305 On ch=1 n=e8 v=0
281307 On ch=1 n=e6 v=64
281307 On ch=1 n=a5 v=64
281307 On ch=1 n=e5 v=64
281307 On ch=1 n=f#5 v=64
281427 Par ch=1 c=7 v=120
281427 On ch=1 n=a7 v=64
281427 On ch=1 n=c#7 v=64
281427 On ch=1 n=c#8 v=64
281427 On ch=1 n=f#7 v=64
281545 On ch=1 n=f#7 v=0
281545 On ch=1 n=c#8 v=0
281545 On ch=1 n=c#7 v=0
281545 On ch=1 n=a7 v=0
281545 On ch=1 n=f#5 v=0
281545 On ch=1 n=e5 v=0
281545 On ch=1 n=a5 v=0
281545 On ch=1 n=e6 v=0
281547 On ch=1 n=a5 v=64
281547 On ch=1 n=c#5 v=64
281547 On ch=1 n=c#6 v=64
281547 On ch=1 n=f#5 v=64
281666 Par ch=1 c=7 v=121
281667 On ch=1 n=d8 v=64
281667 On ch=1 n=a7 v=64
281667 On ch=1 n=d7 v=64
281667 On ch=1 n=f#7 v=64
281785 On ch=1 n=f#7 v=0
281785 On ch=1 n=d7 v=0
281785 On ch=1 n=a7 v=0
281785 On ch=1 n=d8 v=0
281785 On ch=1 n=f#5 v=0
281785 On ch=1 n=c#6 v=0
281785 On ch=1 n=c#5 v=0
281785 On ch=1 n=a5 v=0
281787 On ch=1 n=d6 v=64
281787 On ch=1 n=a5 v=64
281787 On ch=1 n=d5 v=64
281787 On ch=1 n=f#5 v=64
281906 Par ch=1 c=7 v=122
281907 On ch=1 n=e8 v=64
281907 On ch=1 n=a7 v=64
281907 On ch=1 n=e7 v=64
281907 On ch=1 n=f#7 v=64
282025 On ch=1 n=f#7 v=0
282025 On ch=1 n=e7 v=0
282025 On ch=1 n=a7 v=0
282025 On ch=1 n=e8 v=0
282025 On ch=1 n=f#5 v=0
282025 On ch=1 n=d5 v=0
282025 On ch=1 n=a5 v=0
282025 On ch=1 n=d6 v=0
282027 On ch=1 n=e6 v=64
282027 On ch=1 n=a5 v=64
282027 On ch=1 n=e5 v=64
282027 On ch=1 n=f#5 v=64
282145 On ch=1 n=f#5 v=0
282145 On ch=1 n=e5 v=0
282145 On ch=1 n=a5 v=0
282145 On ch=1 n=e6 v=0
282146 Par ch=1 c=7 v=123
282147 On ch=1 n=f8 v=64
282147 On ch=1 n=b7 v=64
282147 On ch=1 n=f7 v=64
282147 On ch=1 n=g#7 v=64
282265 On ch=1 n=g#7 v=0
282265 On ch=1 n=f7 v=0
282265 On ch=1 n=b7 v=0
282265 On ch=1 n=f8 v=0
282267 On ch=1 n=f6 v=64
282267 On ch=1 n=b5 v=64
282267 On ch=1 n=f5 v=64
282267 On ch=1 n=g#5 v=64
282386 Par ch=1 c=7 v=124
282387 On ch=1 n=d8 v=64
282387 On ch=1 n=f7 v=64
282387 On ch=1 n=d7 v=64
282387 On ch=1 n=g#7 v=64
282505 On ch=1 n=g#7 v=0
282505 On ch=1 n=d7 v=0
282505 On ch=1 n=f7 v=0
282505 On ch=1 n=d8 v=0
282505 On ch=1 n=g#5 v=0
282505 On ch=1 n=f5 v=0
282505 On ch=1 n=b5 v=0
282505 On ch=1 n=f6 v=0
282507 On ch=1 n=d6 v=64
282507 On ch=1 n=f5 v=64
282507 On ch=1 n=d5 v=64
282507 On ch=1 n=g#5 v=64
282626 Par ch=1 c=7 v=125
282627 Par ch=1 c=7 v=125
282627 On ch=1 n=d7 v=64
282627 On ch=1 n=b6 v=64
282627 On ch=1 n=g#6 v=64
282627 On ch=1 n=g#7 v=64
282658 Par ch=1 c=7 v=124
282690 Par ch=1 c=7 v=123
282722 Par ch=1 c=7 v=122
282745 On ch=1 n=g#7 v=0
282745 On ch=1 n=g#6 v=0
282745 On ch=1 n=b6 v=0
282745 On ch=1 n=d7 v=0
282745 On ch=1 n=g#5 v=0
282745 On ch=1 n=d5 v=0
282745 On ch=1 n=f5 v=0
282745 On ch=1 n=d6 v=0
282747 On ch=1 n=b5 v=64
282747 On ch=1 n=f5 v=64
282747 On ch=1 n=d5 v=64
282747 On ch=1 n=b4 v=64
282754 Par ch=1 c=7 v=121
282786 Par ch=1 c=7 v=120
282818 Par ch=1 c=7 v=119
282850 Par ch=1 c=7 v=118
282865 On ch=1 n=b4 v=0
282865 On ch=1 n=d5 v=0
282865 On ch=1 n=f5 v=0
282865 On ch=1 n=b5 v=0
282867 On ch=1 n=g7 v=64
282867 On ch=1 n=d7 v=64
282867 On ch=1 n=b6 v=64
282867 On ch=1 n=g6 v=64
282867 Par ch=1 c=64 v=0
282882 Par ch=1 c=7 v=117
282914 Par ch=1 c=7 v=116
282946 Par ch=1 c=7 v=115
282978 Par ch=1 c=7 v=114
282985 On ch=1 n=g6 v=0
282985 On ch=1 n=b6 v=0
282985 On ch=1 n=d7 v=0
282985 On ch=1 n=g7 v=0
282987 On ch=1 n=c3 v=64
282987 Par ch=1 c=64 v=96
283010 Par ch=1 c=7 v=113
283042 Par ch=1 c=7 v=112
283074 Par ch=1 c=7 v=111
283106 Par ch=1 c=7 v=110
283107 On ch=1 n=c4 v=64
283107 On ch=1 n=e7 v=64
283107 On ch=1 n=g6 v=64
283107 On ch=1 n=e6 v=64
283165 On ch=1 n=c4 v=0
283165 On ch=1 n=c3 v=0
283225 On ch=1 n=e6 v=0
283225 On ch=1 n=g6 v=0
283225 On ch=1 n=e7 v=0
283227 On ch=1 n=e5 v=64
283227 On ch=1 n=g4 v=64
283227 On ch=1 n=e4 v=64
283347 On ch=1 n=d7 v=64
283347 On ch=1 n=g6 v=64
283347 On ch=1 n=e6 v=64
283347 On ch=1 n=d6 v=64
283465 On ch=1 n=d6 v=0
283465 On ch=1 n=e6 v=0
283465 On ch=1 n=g6 v=0
283465 On ch=1 n=d7 v=0
283465 On ch=1 n=e4 v=0
283465 On ch=1 n=g4 v=0
283465 On ch=1 n=e5 v=0
283467 On ch=1 n=d5 v=64
283467 On ch=1 n=g4 v=64
283467 On ch=1 n=e4 v=64
283587 On ch=1 n=c7 v=64
283587 On ch=1 n=g6 v=64
283587 On ch=1 n=e6 v=64
283587 On ch=1 n=c6 v=64
283705 On ch=1 n=c6 v=0
283705 On ch=1 n=e6 v=0
283705 On ch=1 n=g6 v=0
283705 On ch=1 n=c7 v=0
283705 On ch=1 n=e4 v=0
283705 On ch=1 n=g4 v=0
283705 On ch=1 n=d5 v=0
283707 On ch=1 n=c5 v=64
283707 On ch=1 n=g4 v=64
283707 On ch=1 n=e4 v=64
283827 On ch=1 n=b6 v=64
283827 On ch=1 n=g6 v=64
283827 On ch=1 n=e6 v=64
283827 On ch=1 n=b5 v=64
283945 On ch=1 n=b5 v=0
283945 On ch=1 n=e6 v=0
283945 On ch=1 n=g6 v=0
283945 On ch=1 n=b6 v=0
283945 On ch=1 n=e4 v=0
283945 On ch=1 n=g4 v=0
283945 On ch=1 n=c5 v=0
283947 On ch=1 n=b4 v=64
283947 On ch=1 n=g4 v=64
283947 On ch=1 n=e4 v=64
284065 On ch=1 n=e4 v=0
284065 On ch=1 n=g4 v=0
284065 On ch=1 n=b4 v=0
284067 On ch=1 n=a6 v=64
284067 On ch=1 n=e6 v=64
284067 On ch=1 n=c6 v=64
284067 On ch=1 n=a5 v=64
284185 On ch=1 n=a5 v=0
284185 On ch=1 n=c6 v=0
284185 On ch=1 n=e6 v=0
284185 On ch=1 n=a6 v=0
284187 On ch=1 n=a4 v=64
284187 On ch=1 n=e4 v=64
284187 On ch=1 n=c4 v=64
284307 On ch=1 n=e6 v=64
284307 On ch=1 n=c6 v=64
284307 On ch=1 n=f#5 v=64
284307 On ch=1 n=f#6 v=64
284425 On ch=1 n=f#6 v=0
284425 On ch=1 n=f#5 v=0
284425 On ch=1 n=c6 v=0
284425 On ch=1 n=e6 v=0
284425 On ch=1 n=c4 v=0
284425 On ch=1 n=e4 v=0
284425 On ch=1 n=a4 v=0
284427 On ch=1 n=e4 v=64
284427 On ch=1 n=c4 v=64
284427 On ch=1 n=f#4 v=64
284547 On ch=1 n=g6 v=64
284547 On ch=1 n=e6 v=64
284547 On ch=1 n=c6 v=64
284547 On ch=1 n=g5 v=64
284665 On ch=1 n=g5 v=0
284665 On ch=1 n=c6 v=0
284665 On ch=1 n=e6 v=0
284665 On ch=1 n=g6 v=0
284665 On ch=1 n=f#4 v=0
284665 On ch=1 n=c4 v=0
284665 On ch=1 n=e4 v=0
284667 On ch=1 n=g4 v=64
284667 On ch=1 n=e4 v=64
284667 On ch=1 n=c4 v=64
284785 On ch=1 n=c4 v=0
284785 On ch=1 n=e4 v=0
284785 On ch=1 n=g4 v=0
284787 On ch=1 n=e7 v=64
284787 On ch=1 n=c7 v=64
284787 On ch=1 n=g6 v=64
284787 On ch=1 n=e6 v=64
284787 Par ch=1 c=64 v=0
284905 On ch=1 n=e6 v=0
284905 On ch=1 n=g6 v=0
284905 On ch=1 n=c7 v=0
284905 On ch=1 n=e7 v=0
284907 On ch=1 n=c3 v=64
284907 Par ch=1 c=64 v=96
285027 On ch=1 n=c4 v=64
285027 On ch=1 n=f7 v=64
285027 On ch=1 n=g#6 v=64
285027 On ch=1 n=f6 v=64
285085 On ch=1 n=c4 v=0
285085 On ch=1 n=c3 v=0
285145 On ch=1 n=f6 v=0
285145 On ch=1 n=g#6 v=0
285145 On ch=1 n=f7 v=0
285147 On ch=1 n=f5 v=64
285147 On ch=1 n=g#4 v=64
285147 On ch=1 n=f4 v=64
285267 On ch=1 n=d#7 v=64
285267 On ch=1 n=g#6 v=64
285267 On ch=1 n=d#6 v=64
285385 On ch=1 n=d#6 v=0
285385 On ch=1 n=g#6 v=0
285385 On ch=1 n=d#7 v=0
285385 On ch=1 n=f4 v=0
285385 On ch=1 n=g#4 v=0
285385 On ch=1 n=f5 v=0
285387 On ch=1 n=d#5 v=64
285387 On ch=1 n=g#4 v=64
285387 On ch=1 n=f4 v=64
285507 On ch=1 n=c#7 v=64
285507 On ch=1 n=g#6 v=64
285507 On ch=1 n=c#6 v=64
285625 On ch=1 n=c#6 v=0
285625 On ch=1 n=g#6 v=0
285625 On ch=1 n=c#7 v=0
285625 On ch=1 n=f4 v=0
285625 On ch=1 n=g#4 v=0
285625 On ch=1 n=d#5 v=0
285627 On ch=1 n=c#5 v=64
285627 On ch=1 n=g#4 v=64
285627 On ch=1 n=f4 v=64
285747 On ch=1 n=c7 v=64
285747 On ch=1 n=g#6 v=64
285747 On ch=1 n=c6 v=64
285865 On ch=1 n=c6 v=0
285865 On ch=1 n=g#6 v=0
285865 On ch=1 n=c7 v=0
285865 On ch=1 n=f4 v=0
285865 On ch=1 n=g#4 v=0
285865 On ch=1 n=c#5 v=0
285867 On ch=1 n=c5 v=64
285867 On ch=1 n=g#4 v=64
285867 On ch=1 n=f4 v=64
285985 On ch=1 n=f4 v=0
285985 On ch=1 n=g#4 v=0
285985 On ch=1 n=c5 v=0
285987 On ch=1 n=a#6 v=64
285987 On ch=1 n=f6 v=64
285987 On ch=1 n=c#6 v=64
285987 On ch=1 n=a#5 v=64
286105 On ch=1 n=a#5 v=0
286105 On ch=1 n=c#6 v=0
286105 On ch=1 n=f6 v=0
286105 On ch=1 n=a#6 v=0
286107 On ch=1 n=a#4 v=64
286107 On ch=1 n=f4 v=64
286107 On ch=1 n=c#4 v=64
286227 On ch=1 n=f6 v=64
286227 On ch=1 n=c#6 v=64
286227 On ch=1 n=g5 v=64
286227 On ch=1 n=g6 v=64
286345 On ch=1 n=g6 v=0
286345 On ch=1 n=g5 v=0
286345 On ch=1 n=c#6 v=0
286345 On ch=1 n=f6 v=0
286345 On ch=1 n=c#4 v=0
286345 On ch=1 n=f4 v=0
286345 On ch=1 n=a#4 v=0
286347 On ch=1 n=f4 v=64
286347 On ch=1 n=c#4 v=64
286347 On ch=1 n=g4 v=64
286467 On ch=1 n=g#6 v=64
286467 On ch=1 n=f6 v=64
286467 On ch=1 n=c#6 v=64
286467 On ch=1 n=g#5 v=64
286585 On ch=1 n=g#5 v=0
286585 On ch=1 n=c#6 v=0
286585 On ch=1 n=f6 v=0
286585 On ch=1 n=g#6 v=0
286585 On ch=1 n=g4 v=0
286585 On ch=1 n=c#4 v=0
286585 On ch=1 n=f4 v=0
286587 On ch=1 n=g#4 v=64
286587 On ch=1 n=f4 v=64
286587 On ch=1 n=c#4 v=64
286705 On ch=1 n=c#4 v=0
286705 On ch=1 n=f4 v=0
286705 On ch=1 n=g#4 v=0
286707 On ch=1 n=f7 v=64
286707 On ch=1 n=c#7 v=64
286707 On ch=1 n=g#6 v=64
286707 On ch=1 n=f6 v=64
286707 Par ch=1 c=64 v=0
286825 On ch=1 n=f6 v=0
286825 On ch=1 n=g#6 v=0
286825 On ch=1 n=c#7 v=0
286825 On ch=1 n=f7 v=0
286827 On ch=1 n=c3 v=64
286827 Par ch=1 c=64 v=96
286947 On ch=1 n=c4 v=64
286947 On ch=1 n=f#7 v=64
286947 On ch=1 n=a6 v=64
286947 On ch=1 n=f#6 v=64
287005 On ch=1 n=c4 v=0
287005 On ch=1 n=c3 v=0
287065 On ch=1 n=f#6 v=0
287065 On ch=1 n=a6 v=0
287065 On ch=1 n=f#7 v=0
287067 On ch=1 n=f#5 v=64
287067 On ch=1 n=a4 v=64
287067 On ch=1 n=f#4 v=64
287187 On ch=1 n=e7 v=64
287187 On ch=1 n=a6 v=64
287187 On ch=1 n=e6 v=64
287305 On ch=1 n=e6 v=0
287305 On ch=1 n=a6 v=0
287305 On ch=1 n=e7 v=0
287305 On ch=1 n=f#4 v=0
287305 On ch=1 n=a4 v=0
287305 On ch=1 n=f#5 v=0
287307 On ch=1 n=e5 v=64
287307 On ch=1 n=a4 v=64
287307 On ch=1 n=f#4 v=64
287427 On ch=1 n=d7 v=64
287427 On ch=1 n=a6 v=64
287427 On ch=1 n=d6 v=64
287545 On ch=1 n=d6 v=0
287545 On ch=1 n=a6 v=0
287545 On ch=1 n=d7 v=0
287545 On ch=1 n=f#4 v=0
287545 On ch=1 n=a4 v=0
287545 On ch=1 n=e5 v=0
287547 On ch=1 n=d5 v=64
287547 On ch=1 n=a4 v=64
287547 On ch=1 n=f#4 v=64
287667 On ch=1 n=a6 v=64
287667 On ch=1 n=d6 v=64
287667 On ch=1 n=a5 v=64
287667 On ch=1 n=f#6 v=64
287667 Par ch=1 c=64 v=0
287785 On ch=1 n=f#6 v=0
287785 On ch=1 n=a5 v=0
287785 On ch=1 n=d6 v=0
287785 On ch=1 n=a6 v=0
287785 On ch=1 n=f#4 v=0
287785 On ch=1 n=a4 v=0
287785 On ch=1 n=d5 v=0
287787 On ch=1 n=c3 v=64
287787 Par ch=1 c=64 v=96
287907 On ch=1 n=c4 v=64
287907 On ch=1 n=g7 v=64
287907 On ch=1 n=a#6 v=64
287907 On ch=1 n=g6 v=64
287965 On ch=1 n=c4 v=0
287965 On ch=1 n=c3 v=0
288025 On ch=1 n=g6 v=0
288025 On ch=1 n=a#6 v=0
288025 On ch=1 n=g7 v=0
288027 On ch=1 n=g5 v=64
288027 On ch=1 n=a#4 v=64
288027 On ch=1 n=g4 v=64
288147 On ch=1 n=f7 v=64
288147 On ch=1 n=a#6 v=64
288147 On ch=1 n=f6 v=64
288265 On ch=1 n=f6 v=0
288265 On ch=1 n=a#6 v=0
288265 On ch=1 n=f7 v=0
288265 On ch=1 n=g4 v=0
288265 On ch=1 n=a#4 v=0
288265 On ch=1 n=g5 v=0
288267 On ch=1 n=f5 v=64
288267 On ch=1 n=a#4 v=64
288267 On ch=1 n=g4 v=64
288387 On ch=1 n=e6 v=64
288387 On ch=1 n=e7 v=64
288387 On ch=1 n=a#6 v=64
288505 On ch=1 n=a#6 v=0
288505 On ch=1 n=e7 v=0
288505 On ch=1 n=e6 v=0
288505 On ch=1 n=g4 v=0
288505 On ch=1 n=a#4 v=0
288505 On ch=1 n=f5 v=0
288507 On ch=1 n=e5 v=64
288507 On ch=1 n=a#4 v=64
288507 On ch=1 n=g4 v=64
288627 On ch=1 n=e6 v=64
288627 On ch=1 n=a#5 v=64
288627 On ch=1 n=a#6 v=64
288627 Par ch=1 c=64 v=0
288745 On ch=1 n=a#6 v=0
288745 On ch=1 n=a#5 v=0
288745 On ch=1 n=e6 v=0
288745 On ch=1 n=g4 v=0
288745 On ch=1 n=a#4 v=0
288745 On ch=1 n=e5 v=0
288747 On ch=1 n=c3 v=64
288747 Par ch=1 c=64 v=96
288867 Par ch=1 c=7 v=110
288867 On ch=1 n=d7 v=64
288867 On ch=1 n=b6 v=64
288867 On ch=1 n=c4 v=64
288867 On ch=1 n=g#7 v=64
288867 On ch=1 n=g#6 v=64
288925 On ch=1 n=c4 v=0
288925 On ch=1 n=c3 v=0
288985 On ch=1 n=g#6 v=0
288985 On ch=1 n=g#7 v=0
288985 On ch=1 n=b6 v=0
288985 On ch=1 n=d7 v=0
288987 On ch=1 n=d5 v=64
288987 On ch=1 n=b4 v=64
288987 On ch=1 n=g#5 v=64
289107 On ch=1 n=g7 v=64
289107 On ch=1 n=d7 v=64
289107 On ch=1 n=b6 v=64
289107 On ch=1 n=g6 v=64
289122 Par ch=1 c=7 v=111
289225 On ch=1 n=g6 v=0
289225 On ch=1 n=b6 v=0
289225 On ch=1 n=d7 v=0
289225 On ch=1 n=g7 v=0
289225 On ch=1 n=g#5 v=0
289225 On ch=1 n=b4 v=0
289225 On ch=1 n=d5 v=0
289227 On ch=1 n=g5 v=64
289227 On ch=1 n=d5 v=64
289227 On ch=1 n=b4 v=64
289347 On ch=1 n=f7 v=64
289347 On ch=1 n=b6 v=64
289347 On ch=1 n=f6 v=64
289347 On ch=1 n=g#6 v=64
289378 Par ch=1 c=7 v=112
289465 On ch=1 n=g#6 v=0
289465 On ch=1 n=f6 v=0
289465 On ch=1 n=b6 v=0
289465 On ch=1 n=f7 v=0
289465 On ch=1 n=b4 v=0
289465 On ch=1 n=d5 v=0
289465 On ch=1 n=g5 v=0
289467 On ch=1 n=f5 v=64
289467 On ch=1 n=d5 v=64
289467 On ch=1 n=b4 v=64
289467 On ch=1 n=g#4 v=64
289587 On ch=1 n=d7 v=64
289587 On ch=1 n=d6 v=64
289587 On ch=1 n=f6 v=64
289587 On ch=1 n=g#6 v=64
289634 Par ch=1 c=7 v=113
289705 On ch=1 n=g#6 v=0
289705 On ch=1 n=f6 v=0
289705 On ch=1 n=d6 v=0
289705 On ch=1 n=d7 v=0
289705 On ch=1 n=g#4 v=0
289705 On ch=1 n=b4 v=0
289705 On ch=1 n=d5 v=0
289705 On ch=1 n=f5 v=0
289707 On ch=1 n=d5 v=64
289707 On ch=1 n=g#4 v=64
289707 On ch=1 n=f4 v=64
289825 On ch=1 n=f4 v=0
289825 On ch=1 n=g#4 v=0
289825 On ch=1 n=d5 v=0
289827 On ch=1 n=b6 v=64
289827 On ch=1 n=f6 v=64
289827 On ch=1 n=d6 v=64
289827 On ch=1 n=b5 v=64
289890 Par ch=1 c=7 v=114
289945 On ch=1 n=b5 v=0
289945 On ch=1 n=d6 v=0
289945 On ch=1 n=f6 v=0
289945 On ch=1 n=b6 v=0
289947 On ch=1 n=b4 v=64
289947 On ch=1 n=f4 v=64
289947 On ch=1 n=d4 v=64
290067 On ch=1 n=d6 v=64
290067 On ch=1 n=b5 v=64
290067 On ch=1 n=g#6 v=64
290067 On ch=1 n=g#5 v=64
290146 Par ch=1 c=7 v=115
290185 On ch=1 n=g#5 v=0
290185 On ch=1 n=g#6 v=0
290185 On ch=1 n=b5 v=0
290185 On ch=1 n=d6 v=0
290185 On ch=1 n=d4 v=0
290185 On ch=1 n=f4 v=0
290185 On ch=1 n=b4 v=0
290187 On ch=1 n=d4 v=64
290187 On ch=1 n=b3 v=64
290187 On ch=1 n=g#4 v=64
290307 On ch=1 n=g6 v=64
290307 On ch=1 n=d6 v=64
290307 On ch=1 n=b5 v=64
290307 On ch=1 n=g5 v=64
290402 Par ch=1 c=7 v=116
290425 On ch=1 n=g5 v=0
290425 On ch=1 n=b5 v=0
290425 On ch=1 n=d6 v=0
290425 On ch=1 n=g6 v=0
290425 On ch=1 n=g#4 v=0
290425 On ch=1 n=b3 v=0
290425 On ch=1 n=d4 v=0
290427 On ch=1 n=g4 v=64
290427 On ch=1 n=d4 v=64
290427 On ch=1 n=b3 v=64
290547 On ch=1 n=f6 v=64
290547 On ch=1 n=b5 v=64
290547 On ch=1 n=f5 v=64
290547 On ch=1 n=g#5 v=64
290658 Par ch=1 c=7 v=117
290665 On ch=1 n=g#5 v=0
290665 On ch=1 n=f5 v=0
290665 On ch=1 n=b5 v=0
290665 On ch=1 n=f6 v=0
290665 On ch=1 n=b3 v=0
290665 On ch=1 n=d4 v=0
290665 On ch=1 n=g4 v=0
290667 On ch=1 n=f4 v=64
290667 On ch=1 n=b3 v=64
290667 On ch=1 n=g#3 v=64
290785 On ch=1 n=g#3 v=0
290785 On ch=1 n=b3 v=0
290785 On ch=1 n=f4 v=0
290787 On ch=1 n=d6 v=64
290787 On ch=1 n=f5 v=64
290787 On ch=1 n=d5 v=64
290787 On ch=1 n=g#5 v=64
290905 On ch=1 n=g#5 v=0
290905 On ch=1 n=d5 v=0
290905 On ch=1 n=f5 v=0
290905 On ch=1 n=d6 v=0
290907 On ch=1 n=d4 v=64
290907 On ch=1 n=f3 v=64
290907 On ch=1 n=g#3 v=64
290914 Par ch=1 c=7 v=118
291027 On ch=1 n=b5 v=64
291027 On ch=1 n=f5 v=64
291027 On ch=1 n=d5 v=64
291027 On ch=1 n=b4 v=64
291145 On ch=1 n=b4 v=0
291145 On ch=1 n=d5 v=0
291145 On ch=1 n=f5 v=0
291145 On ch=1 n=b5 v=0
291145 On ch=1 n=g#3 v=0
291145 On ch=1 n=f3 v=0
291145 On ch=1 n=d4 v=0
291147 On ch=1 n=b3 v=64
291147 On ch=1 n=f3 v=64
291147 On ch=1 n=d3 v=64
291170 Par ch=1 c=7 v=119
291267 On ch=1 n=d5 v=64
291267 On ch=1 n=b4 v=64
291267 On ch=1 n=g#4 v=64
291267 On ch=1 n=g#5 v=64
291385 On ch=1 n=g#5 v=0
291385 On ch=1 n=g#4 v=0
291385 On ch=1 n=b4 v=0
291385 On ch=1 n=d5 v=0
291385 On ch=1 n=d3 v=0
291385 On ch=1 n=f3 v=0
291385 On ch=1 n=b3 v=0
291387 On ch=1 n=d3 v=64
291387 On ch=1 n=b2 v=64
291387 On ch=1 n=g#3 v=64
291426 Par ch=1 c=7 v=120
291507 On ch=1 n=g5 v=64
291507 On ch=1 n=d5 v=64
291507 On ch=1 n=b4 v=64
291507 On ch=1 n=g4 v=64
291625 On ch=1 n=g4 v=0
291625 On ch=1 n=b4 v=0
291625 On ch=1 n=d5 v=0
291625 On ch=1 n=g5 v=0
291625 On ch=1 n=g#3 v=0
291625 On ch=1 n=b2 v=0
291625 On ch=1 n=d3 v=0
291627 On ch=1 n=g3 v=64
291627 On ch=1 n=d3 v=64
291627 On ch=1 n=b2 v=64
291682 Par ch=1 c=7 v=121
291745 On ch=1 n=b2 v=0
291745 On ch=1 n=d3 v=0
291745 On ch=1 n=g3 v=0
291747 On ch=1 n=f5 v=64
291747 On ch=1 n=d5 v=64
291747 On ch=1 n=b4 v=64
291747 On ch=1 n=f4 v=64
291815 Tempo 480000
291865 On ch=1 n=f4 v=0
291865 On ch=1 n=b4 v=0
291865 On ch=1 n=d5 v=0
291865 On ch=1 n=f5 v=0
291867 On ch=1 n=f3 v=64
291867 On ch=1 n=d3 v=64
291884 Tempo 483871
291938 Par ch=1 c=7 v=122
291952 Tempo 487805
291987 On ch=1 n=d5 v=64
291987 On ch=1 n=b4 v=64
291987 On ch=1 n=g#4 v=64
291987 On ch=1 n=g#5 v=64
292021 Tempo 491803
292089 Tempo 495868
292105 On ch=1 n=g#5 v=0
292105 On ch=1 n=g#4 v=0
292105 On ch=1 n=b4 v=0
292105 On ch=1 n=d5 v=0
292105 On ch=1 n=d3 v=0
292105 On ch=1 n=f3 v=0
292107 On ch=1 n=d3 v=64
292107 On ch=1 n=b2 v=64
292107 On ch=1 n=g#2 v=64
292107 On ch=1 n=g#3 v=64
292158 Tempo 500000
292194 Par ch=1 c=7 v=123
292226 Tempo 504202
292227 On ch=1 n=g5 v=64
292227 On ch=1 n=d5 v=64
292227 On ch=1 n=b4 v=64
292227 On ch=1 n=g4 v=64
292295 Tempo 508475
292345 On ch=1 n=g4 v=0
292345 On ch=1 n=b4 v=0
292345 On ch=1 n=d5 v=0
292345 On ch=1 n=g5 v=0
292345 On ch=1 n=g#3 v=0
292345 On ch=1 n=g#2 v=0
292345 On ch=1 n=b2 v=0
292345 On ch=1 n=d3 v=0
292347 On ch=1 n=g3 v=64
292347 On ch=1 n=d3 v=64
292347 On ch=1 n=b2 v=64
292347 On ch=1 n=g2 v=64
292363 Tempo 512821
292432 Tempo 517241
292450 Par ch=1 c=7 v=124
292467 On ch=1 n=f5 v=64
292467 On ch=1 n=d5 v=64
292467 On ch=1 n=g#4 v=64
292467 On ch=1 n=f4 v=64
292500 Tempo 521739
292569 Tempo 526316
292585 On ch=1 n=f4 v=0
292585 On ch=1 n=g#4 v=0
292585 On ch=1 n=d5 v=0
292585 On ch=1 n=f5 v=0
292585 On ch=1 n=g2 v=0
292585 On ch=1 n=b2 v=0
292585 On ch=1 n=d3 v=0
292585 On ch=1 n=g3 v=0
292587 On ch=1 n=f3 v=64
292587 On ch=1 n=d3 v=64
292587 On ch=1 n=b2 v=64
292587 On ch=1 n=f2 v=64
292637 Tempo 530973
292667 Par ch=1 c=64 v=0
292705 On ch=1 n=f2 v=0
292705 On ch=1 n=b2 v=0
292705 On ch=1 n=d3 v=0
292705 On ch=1 n=f3 v=0
292706 Tempo 535714
292706 Par ch=1 c=7 v=125
292707 Tempo 394737
292707 On ch=1 n=c3 v=64
292707 On ch=1 n=g2 v=64
292707 On ch=1 n=e2 v=64
292707 On ch=1 n=c2 v=64
292707 On ch=1 n=c5 v=64
292707 On ch=1 n=c4 v=64
292707 Par ch=1 c=64 v=96
292825 On ch=1 n=c5 v=0
292827 On ch=1 n=g4 v=64
292827 On ch=1 n=e4 v=64
292945 On ch=1 n=e4 v=0
292945 On ch=1 n=g4 v=0
292947 On ch=1 n=c5 v=64
293065 On ch=1 n=c5 v=0
293067 On ch=1 n=c5 v=64
293185 On ch=1 n=c5 v=0
293187 On ch=1 n=g5 v=64
293187 On ch=1 n=e5 v=64
293305 On ch=1 n=e5 v=0
293305 On ch=1 n=g5 v=0
293307 On ch=1 n=c6 v=64
293425 On ch=1 n=c6 v=0
293425 On ch=1 n=c4 v=0
293425 On ch=1 n=c2 v=0
293425 On ch=1 n=e2 v=0
293425 On ch=1 n=g2 v=0
293425 On ch=1 n=c3 v=0
293427 On ch=1 n=c5 v=64
293427 On ch=1 n=g4 v=64
293427 On ch=1 n=e4 v=64
293427 On ch=1 n=c6 v=64
293545 On ch=1 n=c6 v=0
293545 On ch=1 n=e4 v=0
293545 On ch=1 n=g4 v=0
293545 On ch=1 n=c5 v=0
293547 On ch=1 n=g6 v=64
293547 On ch=1 n=e6 v=64
293665 On ch=1 n=e6 v=0
293665 On ch=1 n=g6 v=0
293667 On ch=1 n=c7 v=64
293785 On ch=1 n=c7 v=0
293787 On ch=1 n=g4 v=64
293787 On ch=1 n=e4 v=64
293787 On ch=1 n=c4 v=64
293787 On ch=1 n=c7 v=64
293845 On ch=1 n=c4 v=0
293845 On ch=1 n=e4 v=0
293845 On ch=1 n=g4 v=0
293905 On ch=1 n=c7 v=0
293907 On ch=1 n=g4 v=64
293907 On ch=1 n=e4 v=64
293907 On ch=1 n=c4 v=64
293907 On ch=1 n=e7 v=64
293933 On ch=1 n=g7 v=64
293954 On ch=1 n=c8 v=63
294025 On ch=1 n=e7 v=0
294025 On ch=1 n=c4 v=0
294025 On ch=1 n=e4 v=0
294025 On ch=1 n=g4 v=0
294027 On ch=1 n=g7 v=0
294030 On ch=1 n=c8 v=0
294107 Par ch=1 c=64 v=0
294147 On ch=1 n=g3 v=64
294147 On ch=1 n=g2 v=64
294147 On ch=1 n=c#5 v=64
294147 On ch=1 n=c#4 v=64
294147 On ch=1 n=c#3 v=64
294147 On ch=1 n=a#2 v=64
294147 Par ch=1 c=64 v=96
294265 On ch=1 n=c#5 v=0
294267 On ch=1 n=f4 v=64
294385 On ch=1 n=f4 v=0
294387 On ch=1 n=c#5 v=64
294387 On ch=1 n=a#4 v=64
294505 On ch=1 n=a#4 v=0
294505 On ch=1 n=c#5 v=0
294507 On ch=1 n=c#5 v=64
294625 On ch=1 n=c#5 v=0
294627 On ch=1 n=f5 v=64
294745 On ch=1 n=f5 v=0
294747 On ch=1 n=c#6 v=64
294747 On ch=1 n=a#5 v=64
294865 On ch=1 n=a#5 v=0
294865 On ch=1 n=c#6 v=0
294865 On ch=1 n=a#2 v=0
294865 On ch=1 n=c#3 v=0
294865 On ch=1 n=c#4 v=0
294865 On ch=1 n=g2 v=0
294865 On ch=1 n=g3 v=0
294867 On ch=1 n=a#4 v=64
294867 On ch=1 n=f4 v=64
294867 On ch=1 n=c#6 v=64
294867 On ch=1 n=c#5 v=64
294985 On ch=1 n=c#5 v=0
294985 On ch=1 n=c#6 v=0
294985 On ch=1 n=f4 v=0
294985 On ch=1 n=a#4 v=0
294987 On ch=1 n=f6 v=64
295105 On ch=1 n=f6 v=0
295107 On ch=1 n=c#7 v=64
295107 On ch=1 n=a#6 v=64
295225 On ch=1 n=a#6 v=0
295225 On ch=1 n=c#7 v=0
295227 On ch=1 n=f4 v=64
295227 On ch=1 n=a#4 v=64
295227 On ch=1 n=c#7 v=64
295227 On ch=1 n=c#4 v=64
295285 On ch=1 n=c#4 v=0
295285 On ch=1 n=a#4 v=0
295285 On ch=1 n=f4 v=0
295345 On ch=1 n=c#7 v=0
295347 On ch=1 n=f4 v=64
295347 On ch=1 n=a#4 v=64
295347 On ch=1 n=f7 v=64
295347 On ch=1 n=c#4 v=64
295373 On ch=1 n=a#7 v=64
295396 On ch=1 n=c#8 v=64
295465 On ch=1 n=a#7 v=0
295465 On ch=1 n=c#4 v=0
295465 On ch=1 n=f7 v=0
295465 On ch=1 n=a#4 v=0
295465 On ch=1 n=f4 v=0
295470 On ch=1 n=c#8 v=0
295547 Par ch=1 c=64 v=0
295587 On ch=1 n=c3 v=64
295587 On ch=1 n=g2 v=64
295587 On ch=1 n=e2 v=64
295587 On ch=1 n=c2 v=64
295587 On ch=1 n=c5 v=64
295587 On ch=1 n=c4 v=64
295587 Par ch=1 c=64 v=96
295705 On ch=1 n=c5 v=0
295707 On ch=1 n=g4 v=64
295707 On ch=1 n=e4 v=64
295825 On ch=1 n=e4 v=0
295825 On ch=1 n=g4 v=0
295827 On ch=1 n=c5 v=64
295945 On ch=1 n=c5 v=0
295947 On ch=1 n=c5 v=64
296065 On ch=1 n=c5 v=0
296067 On ch=1 n=g5 v=64
296067 On ch=1 n=e5 v=64
296185 On ch=1 n=e5 v=0
296185 On ch=1 n=g5 v=0
296187 On ch=1 n=c6 v=64
296305 On ch=1 n=c6 v=0
296305 On ch=1 n=c4 v=0
296305 On ch=1 n=c2 v=0
296305 On ch=1 n=e2 v=0
296305 On ch=1 n=g2 v=0
296305 On ch=1 n=c3 v=0
296307 On ch=1 n=c5 v=64
296307 On ch=1 n=g4 v=64
296307 On ch=1 n=e4 v=64
296307 On ch=1 n=c6 v=64
296425 On ch=1 n=c6 v=0
296425 On ch=1 n=e4 v=0
296425 On ch=1 n=g4 v=0
296425 On ch=1 n=c5 v=0
296427 On ch=1 n=g6 v=64
296427 On ch=1 n=e6 v=64
296545 On ch=1 n=e6 v=0
296545 On ch=1 n=g6 v=0
296547 On ch=1 n=c7 v=64
296665 On ch=1 n=c7 v=0
296667 On ch=1 n=g4 v=64
296667 On ch=1 n=e4 v=64
296667 On ch=1 n=c4 v=64
296667 On ch=1 n=c7 v=64
296725 On ch=1 n=c4 v=0
296725 On ch=1 n=e4 v=0
296725 On ch=1 n=g4 v=0
296785 On ch=1 n=c7 v=0
296787 On ch=1 n=g4 v=64
296787 On ch=1 n=e4 v=64
296787 On ch=1 n=c4 v=64
296787 On ch=1 n=e7 v=64
296813 On ch=1 n=g7 v=64
296834 On ch=1 n=c8 v=63
296905 On ch=1 n=e7 v=0
296905 On ch=1 n=c4 v=0
296905 On ch=1 n=e4 v=0
296905 On ch=1 n=g4 v=0
296907 On ch=1 n=g7 v=0
296910 On ch=1 n=c8 v=0
296987 Par ch=1 c=64 v=0
297027 On ch=1 n=f5 v=64
297027 On ch=1 n=f4 v=64
297027 On ch=1 n=f3 v=64
297027 On ch=1 n=d3 v=64
297027 On ch=1 n=b2 v=64
297027 On ch=1 n=f2 v=64
297027 On ch=1 n=g#2 v=64
297027 Par ch=1 c=64 v=96
297145 On ch=1 n=f5 v=0
297147 On ch=1 n=b4 v=64
297147 On ch=1 n=g#4 v=64
297265 On ch=1 n=g#4 v=0
297265 On ch=1 n=b4 v=0
297267 On ch=1 n=f5 v=64
297385 On ch=1 n=f5 v=0
297387 On ch=1 n=f5 v=64
297505 On ch=1 n=f5 v=0
297507 On ch=1 n=b5 v=64
297507 On ch=1 n=g#5 v=64
297625 On ch=1 n=g#5 v=0
297625 On ch=1 n=b5 v=0
297627 On ch=1 n=f6 v=64
297745 On ch=1 n=f6 v=0
297745 On ch=1 n=g#2 v=0
297745 On ch=1 n=f2 v=0
297745 On ch=1 n=b2 v=0
297745 On ch=1 n=d3 v=0
297745 On ch=1 n=f3 v=0
297745 On ch=1 n=f4 v=0
297747 On ch=1 n=d5 v=64
297747 On ch=1 n=b4 v=64
297747 On ch=1 n=f6 v=64
297747 On ch=1 n=g#5 v=64
297865 On ch=1 n=g#5 v=0
297865 On ch=1 n=f6 v=0
297865 On ch=1 n=b4 v=0
297865 On ch=1 n=d5 v=0
297867 On ch=1 n=b6 v=64
297867 On ch=1 n=g#6 v=64
297985 On ch=1 n=g#6 v=0
297985 On ch=1 n=b6 v=0
297987 On ch=1 n=f7 v=64
298105 On ch=1 n=f7 v=0
298107 On ch=1 n=f7 v=64
298107 On ch=1 n=f5 v=64
298107 On ch=1 n=b4 v=64
298107 On ch=1 n=g#4 v=64
298165 On ch=1 n=g#4 v=0
298165 On ch=1 n=b4 v=0
298165 On ch=1 n=f5 v=0
298225 On ch=1 n=f7 v=0
298227 On ch=1 n=f5 v=64
298227 On ch=1 n=b4 v=64
298227 On ch=1 n=g#4 v=64
298227 On ch=1 n=g#7 v=64
298250 On ch=1 n=b7 v=64
298276 On ch=1 n=f8 v=63
298345 On ch=1 n=f8 v=0
298345 On ch=1 n=b7 v=0
298345 On ch=1 n=g#7 v=0
298345 On ch=1 n=g#4 v=0
298345 On ch=1 n=b4 v=0
298345 On ch=1 n=f5 v=0
298427 Par ch=1 c=64 v=0
298467 On ch=1 n=e5 v=64
298467 On ch=1 n=e4 v=64
298467 On ch=1 n=c4 v=64
298467 On ch=1 n=g3 v=64
298467 On ch=1 n=e3 v=64
298467 On ch=1 n=c3 v=64
298467 Par ch=1 c=64 v=96
298585 On ch=1 n=e4 v=0
298585 On ch=1 n=e5 v=0
298587 On ch=1 n=g4 v=64
298705 On ch=1 n=g4 v=0
298707 On ch=1 n=c5 v=64
298825 On ch=1 n=c5 v=0
298827 On ch=1 n=e5 v=64
298945 On ch=1 n=e5 v=0
298945 On ch=1 n=c3 v=0
298945 On ch=1 n=e3 v=0
298945 On ch=1 n=g3 v=0
298945 On ch=1 n=c4 v=0
298947 On ch=1 n=e6 v=64
298947 On ch=1 n=c6 v=64
298947 On ch=1 n=g5 v=64
298947 On ch=1 n=c5 v=64
298947 On ch=1 n=g4 v=64
299065 On ch=1 n=g4 v=0
299065 On ch=1 n=c5 v=0
299065 On ch=1 n=g5 v=0
299065 On ch=1 n=c6 v=0
299065 On ch=1 n=e6 v=0
299147 Par ch=1 c=64 v=0
299187 On ch=1 n=g3 v=64
299187 On ch=1 n=g2 v=64
299187 On ch=1 n=c#3 v=64
299187 On ch=1 n=a#2 v=64
299187 On ch=1 n=c#5 v=64
299187 On ch=1 n=c#6 v=64
299187 Par ch=1 c=64 v=96
299305 On ch=1 n=c#6 v=0
299305 On ch=1 n=c#5 v=0
299307 On ch=1 n=f5 v=64
299425 On ch=1 n=f5 v=0
299427 On ch=1 n=c#6 v=64
299427 On ch=1 n=a#5 v=64
299545 On ch=1 n=a#5 v=0
299545 On ch=1 n=c#6 v=0
299547 On ch=1 n=c#6 v=64
299665 On ch=1 n=c#6 v=0
299665 On ch=1 n=a#2 v=0
299665 On ch=1 n=c#3 v=0
299665 On ch=1 n=g2 v=0
299665 On ch=1 n=g3 v=0
299667 On ch=1 n=c#6 v=64
299667 On ch=1 n=f4 v=64
299667 On ch=1 n=c#5 v=64
299667 On ch=1 n=a#4 v=64
299667 On ch=1 n=c#7 v=64
299667 On ch=1 n=a#6 v=64
299785 On ch=1 n=a#6 v=0
299785 On ch=1 n=c#7 v=0
299785 On ch=1 n=a#4 v=0
299785 On ch=1 n=c#5 v=0
299785 On ch=1 n=f4 v=0
299785 On ch=1 n=c#6 v=0
299867 Par ch=1 c=64 v=0
299907 On ch=1 n=c4 v=64
299907 On ch=1 n=g3 v=64
299907 On ch=1 n=e3 v=64
299907 On ch=1 n=c3 v=64
299907 On ch=1 n=c5 v=64
299907 On ch=1 n=c6 v=64
299907 Par ch=1 c=64 v=96
300025 On ch=1 n=c6 v=0
300025 On ch=1 n=c5 v=0
300027 On ch=1 n=g5 v=64
300027 On ch=1 n=e5 v=64
300145 On ch=1 n=e5 v=0
300145 On ch=1 n=g5 v=0
300147 On ch=1 n=c6 v=64
300265 On ch=1 n=c6 v=0
300267 On ch=1 n=c6 v=64
300385 On ch=1 n=c6 v=0
300385 On ch=1 n=c3 v=0
300385 On ch=1 n=e3 v=0
300385 On ch=1 n=g3 v=0
300385 On ch=1 n=c4 v=0
300387 On ch=1 n=c5 v=64
300387 On ch=1 n=g4 v=64
300387 On ch=1 n=e4 v=64
300387 On ch=1 n=c7 v=64
300387 On ch=1 n=g6 v=64
300387 On ch=1 n=e6 v=64
300505 On ch=1 n=e6 v=0
300505 On ch=1 n=g6 v=0
300505 On ch=1 n=c7 v=0
300505 On ch=1 n=e4 v=0
300505 On ch=1 n=g4 v=0
300505 On ch=1 n=c5 v=0
300587 Par ch=1 c=64 v=0
300627 On ch=1 n=a3 v=64
300627 On ch=1 n=f3 v=64
300627 On ch=1 n=d3 v=64
300627 On ch=1 n=c3 v=64
300627 On ch=1 n=g#2 v=64
300627 On ch=1 n=f7 v=64
300627 On ch=1 n=f6 v=64
300627 Par ch=1 c=64 v=96
300745 On ch=1 n=f6 v=0
300745 On ch=1 n=f7 v=0
300747 On ch=1 n=b6 v=64
300747 On ch=1 n=g#6 v=64
300865 On ch=1 n=g#6 v=0
300865 On ch=1 n=b6 v=0
300867 On ch=1 n=f7 v=64
300985 On ch=1 n=f7 v=0
300987 On ch=1 n=f7 v=64
301105 On ch=1 n=f7 v=0
301105 On ch=1 n=g#2 v=0
301105 On ch=1 n=c3 v=0
301105 On ch=1 n=d3 v=0
301105 On ch=1 n=f3 v=0
301105 On ch=1 n=a3 v=0
301107 On ch=1 n=f5 v=64
301107 On ch=1 n=d5 v=64
301107 On ch=1 n=b4 v=64
301107 On ch=1 n=g#4 v=64
301107 On ch=1 n=f8 v=64
301107 On ch=1 n=b7 v=64
301107 On ch=1 n=g#7 v=64
301225 On ch=1 n=g#7 v=0
301225 On ch=1 n=b7 v=0
301225 On ch=1 n=f8 v=0
301225 On ch=1 n=g#4 v=0
301225 On ch=1 n=b4 v=0
301225 On ch=1 n=d5 v=0
301225 On ch=1 n=f5 v=0
301307 Par ch=1 c=64 v=0
301347 Tempo 394737
301347 On ch=1 n=c3 v=64
301347 On ch=1 n=c4 v=64
301347 On ch=1 n=e8 v=64
301347 On ch=1 n=c8 v=64
301347 On ch=1 n=g7 v=64
301347 Par ch=1 c=64 v=96
301465 On ch=1 n=g7 v=0
301465 On ch=1 n=c8 v=0
301465 On ch=1 n=e8 v=0
301465 On ch=1 n=c4 v=0
301465 On ch=1 n=c3 v=0
301587 On ch=1 n=g2 v=64
301587 On ch=1 n=g3 v=64
301587 On ch=1 n=f7 v=64
301587 On ch=1 n=c#8 v=64
301587 On ch=1 n=a#7 v=64
301705 On ch=1 n=a#7 v=0
301705 On ch=1 n=c#8 v=0
301705 On ch=1 n=f7 v=0
301705 On ch=1 n=g3 v=0
301705 On ch=1 n=g2 v=0
301827 On ch=1 n=c3 v=64
301827 On ch=1 n=c4 v=64
301827 On ch=1 n=c8 v=64
301827 On ch=1 n=g7 v=64
301827 On ch=1 n=e7 v=64
301945 On ch=1 n=e7 v=0
301945 On ch=1 n=g7 v=0
301945 On ch=1 n=c8 v=0
301945 On ch=1 n=c4 v=0
301945 On ch=1 n=c3 v=0
302036 Tempo 392157
302067 On ch=1 n=g2 v=64
302067 On ch=1 n=g3 v=64
302067 On ch=1 n=f7 v=64
302067 On ch=1 n=c#7 v=64
302067 On ch=1 n=a#7 v=64
302185 On ch=1 n=a#7 v=0
302185 On ch=1 n=c#7 v=0
302185 On ch=1 n=f7 v=0
302185 On ch=1 n=g3 v=0
302185 On ch=1 n=g2 v=0
302307 On ch=1 n=c3 v=64
302307 On ch=1 n=c4 v=64
302307 On ch=1 n=g7 v=64
302307 On ch=1 n=e7 v=64
302307 On ch=1 n=c7 v=64
302425 On ch=1 n=c7 v=0
302425 On ch=1 n=e7 v=0
302425 On ch=1 n=g7 v=0
302425 On ch=1 n=c4 v=0
302425 On ch=1 n=c3 v=0
302547 On ch=1 n=g2 v=64
302547 On ch=1 n=g3 v=64
302547 On ch=1 n=f7 v=64
302547 On ch=1 n=d7 v=64
302547 On ch=1 n=b6 v=64
302547 On ch=1 n=g#6 v=64
302665 On ch=1 n=g#6 v=0
302665 On ch=1 n=b6 v=0
302665 On ch=1 n=d7 v=0
302665 On ch=1 n=f7 v=0
302665 On ch=1 n=g3 v=0
302665 On ch=1 n=g2 v=0
302726 Tempo 389610
302787 On ch=1 n=c3 v=64
302787 On ch=1 n=c4 v=64
302787 On ch=1 n=e7 v=64
302787 On ch=1 n=c7 v=64
302787 On ch=1 n=g6 v=64
302905 On ch=1 n=g6 v=0
302905 On ch=1 n=c7 v=0
302905 On ch=1 n=e7 v=0
302905 On ch=1 n=c4 v=0
302905 On ch=1 n=c3 v=0
303027 On ch=1 n=g2 v=64
303027 On ch=1 n=g3 v=64
303027 On ch=1 n=f6 v=64
303027 On ch=1 n=c#7 v=64
303027 On ch=1 n=a#6 v=64
303145 On ch=1 n=a#6 v=0
303145 On ch=1 n=c#7 v=0
303145 On ch=1 n=f6 v=0
303145 On ch=1 n=g3 v=0
303145 On ch=1 n=g2 v=0
303267 On ch=1 n=c3 v=64
303267 On ch=1 n=c4 v=64
303267 On ch=1 n=c7 v=64
303267 On ch=1 n=g6 v=64
303267 On ch=1 n=e6 v=64
303385 On ch=1 n=e6 v=0
303385 On ch=1 n=g6 v=0
303385 On ch=1 n=c7 v=0
303385 On ch=1 n=c4 v=0
303385 On ch=1 n=c3 v=0
303416 Tempo 387097
303507 On ch=1 n=g2 v=64
303507 On ch=1 n=g3 v=64
303507 On ch=1 n=f6 v=64
303507 On ch=1 n=c#6 v=64
303507 On ch=1 n=a#6 v=64
303625 On ch=1 n=a#6 v=0
303625 On ch=1 n=c#6 v=0
303625 On ch=1 n=f6 v=0
303625 On ch=1 n=g3 v=0
303625 On ch=1 n=g2 v=0
303747 On ch=1 n=c3 v=64
303747 On ch=1 n=c4 v=64
303747 On ch=1 n=g6 v=64
303747 On ch=1 n=e6 v=64
303747 On ch=1 n=c6 v=64
303865 On ch=1 n=c6 v=0
303865 On ch=1 n=e6 v=0
303865 On ch=1 n=g6 v=0
303865 On ch=1 n=c4 v=0
303865 On ch=1 n=c3 v=0
303987 On ch=1 n=g2 v=64
303987 On ch=1 n=g3 v=64
303987 On ch=1 n=f6 v=64
303987 On ch=1 n=d6 v=64
303987 On ch=1 n=b5 v=64
303987 On ch=1 n=g#5 v=64
304105 On ch=1 n=g#5 v=0
304105 On ch=1 n=b5 v=0
304105 On ch=1 n=d6 v=0
304105 On ch=1 n=f6 v=0
304105 On ch=1 n=g3 v=0
304105 On ch=1 n=g2 v=0
304106 Tempo 384615
304227 On ch=1 n=c3 v=64
304227 On ch=1 n=c4 v=64
304227 On ch=1 n=e6 v=64
304227 On ch=1 n=c6 v=64
304227 On ch=1 n=g5 v=64
304345 On ch=1 n=g5 v=0
304345 On ch=1 n=c6 v=0
304345 On ch=1 n=e6 v=0
304345 On ch=1 n=c4 v=0
304345 On ch=1 n=c3 v=0
304467 On ch=1 n=g2 v=64
304467 On ch=1 n=g3 v=64
304467 On ch=1 n=f5 v=64
304467 On ch=1 n=c#6 v=64
304467 On ch=1 n=a#5 v=64
304585 On ch=1 n=a#5 v=0
304585 On ch=1 n=c#6 v=0
304585 On ch=1 n=f5 v=0
304585 On ch=1 n=g3 v=0
304585 On ch=1 n=g2 v=0
304707 On ch=1 n=c3 v=64
304707 On ch=1 n=c4 v=64
304707 On ch=1 n=c6 v=64
304707 On ch=1 n=g5 v=64
304707 On ch=1 n=e5 v=64
304796 Tempo 382166
304825 On ch=1 n=e5 v=0
304825 On ch=1 n=g5 v=0
304825 On ch=1 n=c6 v=0
304825 On ch=1 n=c4 v=0
304825 On ch=1 n=c3 v=0
304947 On ch=1 n=g2 v=64
304947 On ch=1 n=g3 v=64
304947 On ch=1 n=f5 v=64
304947 On ch=1 n=c#5 v=64
304947 On ch=1 n=a#5 v=64
305065 On ch=1 n=a#5 v=0
305065 On ch=1 n=c#5 v=0
305065 On ch=1 n=f5 v=0
305065 On ch=1 n=g3 v=0
305065 On ch=1 n=g2 v=0
305187 On ch=1 n=c3 v=64
305187 On ch=1 n=c4 v=64
305187 On ch=1 n=g5 v=64
305187 On ch=1 n=e5 v=64
305187 On ch=1 n=c5 v=64
305305 On ch=1 n=c5 v=0
305305 On ch=1 n=e5 v=0
305305 On ch=1 n=g5 v=0
305305 On ch=1 n=c4 v=0
305305 On ch=1 n=c3 v=0
305427 On ch=1 n=g2 v=64
305427 On ch=1 n=g3 v=64
305427 On ch=1 n=f5 v=64
305427 On ch=1 n=d5 v=64
305427 On ch=1 n=b4 v=64
305427 On ch=1 n=g#4 v=64
305486 Tempo 379747
305545 On ch=1 n=g#4 v=0
305545 On ch=1 n=b4 v=0
305545 On ch=1 n=d5 v=0
305545 On ch=1 n=f5 v=0
305545 On ch=1 n=g3 v=0
305545 On ch=1 n=g2 v=0
305667 On ch=1 n=c3 v=64
305667 On ch=1 n=c4 v=64
305667 On ch=1 n=e5 v=64
305667 On ch=1 n=c5 v=64
305667 On ch=1 n=g4 v=64
305785 On ch=1 n=g4 v=0
305785 On ch=1 n=c5 v=0
305785 On ch=1 n=e5 v=0
305785 On ch=1 n=c4 v=0
305785 On ch=1 n=c3 v=0
305907 On ch=1 n=g2 v=64
305907 On ch=1 n=g3 v=64
305907 On ch=1 n=f4 v=64
305907 On ch=1 n=c#5 v=64
305907 On ch=1 n=a#4 v=64
306025 On ch=1 n=a#4 v=0
306025 On ch=1 n=c#5 v=0
306025 On ch=1 n=f4 v=0
306025 On ch=1 n=g3 v=0
306025 On ch=1 n=g2 v=0
306147 On ch=1 n=c3 v=64
306147 On ch=1 n=c4 v=64
306147 On ch=1 n=c5 v=64
306147 On ch=1 n=g4 v=64
306147 On ch=1 n=e4 v=64
306176 Tempo 377358
306265 On ch=1 n=e4 v=0
306265 On ch=1 n=g4 v=0
306265 On ch=1 n=c5 v=0
306265 On ch=1 n=c4 v=0
306265 On ch=1 n=c3 v=0
306387 On ch=1 n=g2 v=64
306387 On ch=1 n=g3 v=64
306387 On ch=1 n=f4 v=64
306387 On ch=1 n=c#4 v=64
306387 On ch=1 n=a#4 v=64
306505 On ch=1 n=a#4 v=0
306505 On ch=1 n=c#4 v=0
306505 On ch=1 n=f4 v=0
306505 On ch=1 n=g3 v=0
306505 On ch=1 n=g2 v=0
306627 On ch=1 n=c3 v=64
306627 On ch=1 n=c4 v=64
306627 On ch=1 n=g4 v=64
306627 On ch=1 n=e4 v=64
306745 On ch=1 n=e4 v=0
306745 On ch=1 n=g4 v=0
306745 On ch=1 n=c4 v=0
306745 On ch=1 n=c3 v=0
306827 Par ch=1 c=64 v=0
306866 Tempo 375000
306867 Tempo 434783
306867 On ch=1 n=f3 v=64
306867 On ch=1 n=d3 v=64
306867 On ch=1 n=b2 v=64
306867 On ch=1 n=f2 v=64
306867 On ch=1 n=f4 v=64
306867 On ch=1 n=b3 v=64
306867 On ch=1 n=g#3 v=64
306867 Par ch=1 c=64 v=96
307105 On ch=1 n=g#3 v=0
307105 On ch=1 n=b3 v=0
307105 On ch=1 n=f4 v=0
307105 On ch=1 n=f2 v=0
307105 On ch=1 n=b2 v=0
307105 On ch=1 n=d3 v=0
307105 On ch=1 n=f3 v=0
307107 Par ch=1 c=64 v=0
307587 On ch=1 n=f3 v=64
307587 On ch=1 n=d3 v=64
307587 On ch=1 n=b2 v=64
307587 On ch=1 n=f2 v=64
307587 On ch=1 n=d4 v=64
307587 On ch=1 n=b3 v=64
307587 On ch=1 n=g#3 v=64
307825 On ch=1 n=g#3 v=0
307825 On ch=1 n=b3 v=0
307825 On ch=1 n=d4 v=0
307825 On ch=1 n=f2 v=0
307825 On ch=1 n=b2 v=0
307825 On ch=1 n=d3 v=0
307825 On ch=1 n=f3 v=0
307827 Par ch=1 c=64 v=96
308067 Par ch=1 c=64 v=0
308307 On ch=1 n=f3 v=64
308307 On ch=1 n=d3 v=64
308307 On ch=1 n=b2 v=64
308307 On ch=1 n=f2 v=64
308307 On ch=1 n=b3 v=64
308307 On ch=1 n=g#3 v=64
308307 Par ch=1 c=64 v=96
308425 On ch=1 n=g#3 v=0
308425 On ch=1 n=b3 v=0
308425 On ch=1 n=f2 v=0
308425 On ch=1 n=b2 v=0
308425 On ch=1 n=d3 v=0
308425 On ch=1 n=f3 v=0
308547 On ch=1 n=f3 v=64
308547 On ch=1 n=d3 v=64
308547 On ch=1 n=b2 v=64
308547 On ch=1 n=f2 v=64
308547 On ch=1 n=b3 v=64
308547 On ch=1 n=g#4 v=64
308547 On ch=1 n=g#3 v=64
308665 On ch=1 n=g#3 v=0
308665 On ch=1 n=g#4 v=0
308665 On ch=1 n=b3 v=0
308665 On ch=1 n=f2 v=0
308665 On ch=1 n=b2 v=0
308665 On ch=1 n=d3 v=0
308665 On ch=1 n=f3 v=0
308787 On ch=1 n=f3 v=64
308787 On ch=1 n=d3 v=64
308787 On ch=1 n=b2 v=64
308787 On ch=1 n=f2 v=64
308787 On ch=1 n=f4 v=64
308787 On ch=1 n=b3 v=64
308787 On ch=1 n=g#3 v=64
308905 On ch=1 n=g#3 v=0
308905 On ch=1 n=b3 v=0
308905 On ch=1 n=f4 v=0
308905 On ch=1 n=f2 v=0
308905 On ch=1 n=b2 v=0
308905 On ch=1 n=d3 v=0
308905 On ch=1 n=f3 v=0
309027 Par ch=1 c=64 v=0
309267 Tempo 600000
309507 Tempo 434783
309507 On ch=1 n=g#2 v=64
309507 On ch=1 n=g#3 v=64
309565 On ch=1 n=g#3 v=0
309565 On ch=1 n=g#2 v=0
309627 On ch=1 n=g2 v=64
309627 On ch=1 n=g3 v=64
309685 On ch=1 n=g3 v=0
309685 On ch=1 n=g2 v=0
309747 On ch=1 n=f#2 v=64
309747 On ch=1 n=f#3 v=64
309805 On ch=1 n=f#3 v=0
309805 On ch=1 n=f#2 v=0
309867 On ch=1 n=f2 v=64
309867 On ch=1 n=f3 v=64
309925 On ch=1 n=f3 v=0
309925 On ch=1 n=f2 v=0
309987 Tempo 1200000
309987 On ch=1 n=c3 v=64
309987 On ch=1 n=g2 v=64
309987 On ch=1 n=e2 v=64
309987 On ch=1 n=c2 v=64
309987 On ch=1 n=c4 v=64
309987 On ch=1 n=g3 v=64
309987 On ch=1 n=e3 v=64
309987 Par ch=1 c=64 v=96
311425 On ch=1 n=e3 v=0
311425 On ch=1 n=g3 v=0
311425 On ch=1 n=c4 v=0
311425 On ch=1 n=c2 v=0
311425 On ch=1 n=e2 v=0
311425 On ch=1 n=g2 v=0
311425 On ch=1 n=c3 v=0
311427 Par ch=1 c=64 v=0
311427 Meta TrkEnd
TrkEnd
