MFile 1 5 480
MTrk
0 Tempo 608000
0 TimeSig 6/4 24 8
0 Meta TrkEnd
TrkEnd
MTrk
0 SeqSpec 43 00 01 00
0 Meta TrkName "1 Melodie main droite"
0 PrCh ch=1 p=0
0 Par ch=1 c=91 v=15
0 Par ch=1 c=93 v=0
0 Par ch=1 c=10 v=67
0 Par ch=1 c=7 v=110
8595 Par ch=1 c=64 v=127
11181 Par ch=1 c=64 v=0
11186 Par ch=1 c=64 v=127
13620 Par ch=1 c=64 v=0
13624 Par ch=1 c=64 v=127
16122 Par ch=1 c=64 v=0
16143 Par ch=1 c=64 v=127
17485 Par ch=1 c=64 v=0
17519 Par ch=1 c=64 v=127
18899 Par ch=1 c=64 v=0
18922 Par ch=1 c=64 v=127
23378 Par ch=1 c=64 v=0
26705 On ch=1 n=c#6 v=60
27428 On ch=1 n=c#6 v=0
27429 On ch=1 n=b5 v=45
27564 On ch=1 n=b5 v=0
27564 On ch=1 n=g5 v=55
27710 On ch=1 n=g5 v=0
27711 On ch=1 n=g#5 v=55
27838 On ch=1 n=g#5 v=0
27839 On ch=1 n=e5 v=50
27977 On ch=1 n=e5 v=0
27977 On ch=1 n=f5 v=50
28101 On ch=1 n=f5 v=0
28102 On ch=1 n=c#5 v=54
28233 On ch=1 n=c#5 v=0
28233 On ch=1 n=d5 v=54
28367 On ch=1 n=d5 v=0
28368 On ch=1 n=f5 v=51
28372 Par ch=1 c=64 v=127
28501 On ch=1 n=f5 v=0
28501 On ch=1 n=g#5 v=51
28622 On ch=1 n=g#5 v=0
28623 On ch=1 n=b5 v=52
28750 On ch=1 n=b5 v=0
28751 On ch=1 n=d6 v=52
28862 On ch=1 n=d6 v=0
28862 On ch=1 n=f6 v=58
28982 On ch=1 n=f6 v=0
28982 On ch=1 n=g#6 v=58
29093 On ch=1 n=g#6 v=0
29093 On ch=1 n=b6 v=56
29208 On ch=1 n=b6 v=0
29208 On ch=1 n=d7 v=56
29316 On ch=1 n=d7 v=0
29317 On ch=1 n=f7 v=58
29429 On ch=1 n=f7 v=0
29430 On ch=1 n=g#7 v=58
29524 On ch=1 n=g#7 v=0
29524 On ch=1 n=b7 v=57
29627 On ch=1 n=b7 v=0
29628 On ch=1 n=g7 v=57
29755 On ch=1 n=g7 v=0
29756 On ch=1 n=a#7 v=55
30080 On ch=1 n=a#7 v=0
30080 On ch=1 n=g#7 v=57
30181 On ch=1 n=g#7 v=0
30181 On ch=1 n=d7 v=61
30285 On ch=1 n=d7 v=0
30285 On ch=1 n=d#7 v=61
30381 On ch=1 n=d#7 v=0
30382 On ch=1 n=e7 v=63
30482 On ch=1 n=e7 v=0
30482 On ch=1 n=g#7 v=63
30783 On ch=1 n=g#7 v=0
30783 On ch=1 n=f7 v=63
30882 On ch=1 n=f7 v=0
30883 On ch=1 n=b6 v=63
30976 On ch=1 n=b6 v=0
30976 On ch=1 n=c7 v=66
31072 On ch=1 n=c7 v=0
31072 On ch=1 n=c#7 v=66
31175 On ch=1 n=c#7 v=0
31176 On ch=1 n=d#7 v=64
31275 On ch=1 n=d#7 v=0
31275 On ch=1 n=d7 v=64
31366 On ch=1 n=d7 v=0
31367 On ch=1 n=g#6 v=65
31462 On ch=1 n=g#6 v=0
31462 On ch=1 n=a6 v=65
31552 On ch=1 n=a6 v=0
31553 On ch=1 n=a#6 v=68
31646 On ch=1 n=a#6 v=0
31647 On ch=1 n=c#7 v=68
31729 On ch=1 n=c#7 v=0
31730 On ch=1 n=b6 v=70
31818 On ch=1 n=b6 v=0
31818 On ch=1 n=d6 v=70
31900 On ch=1 n=d6 v=0
31901 On ch=1 n=d#6 v=72
31987 On ch=1 n=d#6 v=0
31987 On ch=1 n=e6 v=72
32070 Par ch=1 c=64 v=0
32077 On ch=1 n=e6 v=0
32078 On ch=1 n=g6 v=69
32166 On ch=1 n=g6 v=0
32167 On ch=1 n=f6 v=69
32248 On ch=1 n=f6 v=0
32248 On ch=1 n=b5 v=72
32333 On ch=1 n=b5 v=0
32333 On ch=1 n=c6 v=72
32415 On ch=1 n=c6 v=0
32416 On ch=1 n=c#6 v=73
32500 On ch=1 n=c#6 v=0
32501 On ch=1 n=d#6 v=73
32588 On ch=1 n=d#6 v=0
32588 On ch=1 n=d6 v=73
32674 On ch=1 n=d6 v=0
32674 On ch=1 n=g#5 v=73
32762 On ch=1 n=g#5 v=0
32763 On ch=1 n=a5 v=68
32850 On ch=1 n=a5 v=0
32850 On ch=1 n=a#5 v=68
32936 On ch=1 n=a#5 v=0
32936 On ch=1 n=c#6 v=70
33022 On ch=1 n=c#6 v=0
33023 On ch=1 n=b5 v=70
33101 On ch=1 n=b5 v=0
33101 On ch=1 n=d5 v=73
33183 On ch=1 n=d5 v=0
33184 On ch=1 n=d#5 v=73
33266 On ch=1 n=d#5 v=0
33267 On ch=1 n=e5 v=73
33349 On ch=1 n=e5 v=0
33350 On ch=1 n=f5 v=73
33440 On ch=1 n=f5 v=0
33440 On ch=1 n=b4 v=70
33526 On ch=1 n=b4 v=0
33527 On ch=1 n=c5 v=70
33613 On ch=1 n=c5 v=0
33614 On ch=1 n=c#5 v=70
33700 On ch=1 n=c#5 v=0
33701 On ch=1 n=d#5 v=70
33788 On ch=1 n=d#5 v=0
33788 On ch=1 n=c#5 v=70
33875 On ch=1 n=c#5 v=0
33876 On ch=1 n=g#4 v=70
33962 On ch=1 n=g#4 v=0
33962 On ch=1 n=a4 v=70
34048 On ch=1 n=a4 v=0
34049 On ch=1 n=b4 v=70
34131 On ch=1 n=b4 v=0
34132 On ch=1 n=c#5 v=72
34217 On ch=1 n=c#5 v=0
34217 On ch=1 n=b4 v=72
34314 On ch=1 n=b4 v=0
34315 On ch=1 n=d4 v=66
34406 On ch=1 n=d4 v=0
34406 On ch=1 n=f4 v=66
34488 On ch=1 n=f4 v=0
34488 On ch=1 n=g#4 v=70
34574 On ch=1 n=g#4 v=0
34575 On ch=1 n=b4 v=70
34665 On ch=1 n=b4 v=0
34666 On ch=1 n=d5 v=73
34755 On ch=1 n=d5 v=0
34755 On ch=1 n=f5 v=73
34847 On ch=1 n=f5 v=0
34848 On ch=1 n=f5 v=70
35473 On ch=1 n=f5 v=0
35473 On ch=1 n=d#5 v=65
35679 On ch=1 n=d#5 v=0
35679 On ch=1 n=c5 v=69
35880 On ch=1 n=c5 v=0
35880 On ch=1 n=g#4 v=69
36088 On ch=1 n=g#4 v=0
36089 On ch=1 n=f#4 v=69
36721 On ch=1 n=f#4 v=0
36721 On ch=1 n=f4 v=69
36913 On ch=1 n=f4 v=0
36914 On ch=1 n=c#5 v=74
37111 On ch=1 n=c#5 v=0
37111 On ch=1 n=a4 v=76
37317 On ch=1 n=a4 v=0
37317 On ch=1 n=g5 v=81
37954 On ch=1 n=g5 v=0
37955 On ch=1 n=f5 v=72
38161 On ch=1 n=f5 v=0
38161 On ch=1 n=c#5 v=70
38359 On ch=1 n=c#5 v=0
38360 On ch=1 n=a#4 v=73
38572 On ch=1 n=a#4 v=0
38572 On ch=1 n=g#4 v=76
39213 On ch=1 n=g#4 v=0
39213 On ch=1 n=g4 v=75
39410 On ch=1 n=g4 v=0
39411 On ch=1 n=d#5 v=83
39614 On ch=1 n=d#5 v=0
39615 On ch=1 n=b4 v=80
39807 On ch=1 n=b4 v=0
39807 On ch=1 n=g#5 v=90
40418 On ch=1 n=g#5 v=0
40419 On ch=1 n=g5 v=82
40634 On ch=1 n=g5 v=0
40635 On ch=1 n=d#5 v=79
40850 On ch=1 n=d#5 v=0
40850 On ch=1 n=c5 v=84
41049 On ch=1 n=c5 v=0
41050 On ch=1 n=a5 v=83
41656 On ch=1 n=a5 v=0
41656 On ch=1 n=a5 v=79
41868 On ch=1 n=a5 v=0
41868 On ch=1 n=f#5 v=76
42062 On ch=1 n=f#5 v=0
42063 On ch=1 n=d#5 v=79
42256 On ch=1 n=d#5 v=0
42256 On ch=1 n=a5 v=84
42671 On ch=1 n=a5 v=0
42671 On ch=1 n=a5 v=77
42737 On ch=1 n=a5 v=0
42738 On ch=1 n=g#5 v=77
42804 On ch=1 n=g#5 v=0
42804 On ch=1 n=e5 v=77
42870 On ch=1 n=e5 v=0
42870 On ch=1 n=c#5 v=80
42936 On ch=1 n=c#5 v=0
42937 On ch=1 n=d#6 v=80
43003 On ch=1 n=d#6 v=0
43003 On ch=1 n=c#6 v=80
43063 On ch=1 n=c#6 v=0
43063 On ch=1 n=g#5 v=82
43126 On ch=1 n=g#5 v=0
43127 On ch=1 n=e5 v=82
43190 On ch=1 n=e5 v=0
43191 On ch=1 n=f#6 v=82
43254 On ch=1 n=f#6 v=0
43254 On ch=1 n=e6 v=78
43301 On ch=1 n=e6 v=0
43301 On ch=1 n=c#6 v=78
43349 On ch=1 n=c#6 v=0
43350 On ch=1 n=g#5 v=78
43397 On ch=1 n=g#5 v=0
43397 On ch=1 n=a6 v=78
43454 On ch=1 n=a6 v=0
43455 On ch=1 n=g#6 v=77
43504 On ch=1 n=g#6 v=0
43504 On ch=1 n=e6 v=77
43554 On ch=1 n=e6 v=0
43555 On ch=1 n=c#6 v=77
43604 On ch=1 n=c#6 v=0
43605 On ch=1 n=d#6 v=77
43646 On ch=1 n=d#6 v=0
43646 On ch=1 n=c#7 v=80
43693 On ch=1 n=c#7 v=0
43694 On ch=1 n=g#6 v=80
43742 On ch=1 n=g#6 v=0
43742 On ch=1 n=e6 v=80
43790 On ch=1 n=e6 v=0
43790 On ch=1 n=f#7 v=80
43843 On ch=1 n=f#7 v=0
43844 On ch=1 n=e7 v=80
43892 On ch=1 n=e7 v=0
43893 On ch=1 n=c#7 v=80
43942 On ch=1 n=c#7 v=0
43942 On ch=1 n=g#6 v=80
43990 On ch=1 n=g#6 v=0
43991 On ch=1 n=a7 v=80
44039 On ch=1 n=a7 v=0
44040 On ch=1 n=g#7 v=81
44088 On ch=1 n=g#7 v=0
44089 On ch=1 n=e7 v=81
44137 On ch=1 n=e7 v=0
44138 On ch=1 n=c#7 v=81
44186 On ch=1 n=c#7 v=0
44187 On ch=1 n=d#8 v=81
44233 On ch=1 n=d#8 v=0
44234 On ch=1 n=c#8 v=85
44282 On ch=1 n=c#8 v=0
44282 On ch=1 n=g#7 v=85
44330 On ch=1 n=g#7 v=0
44330 On ch=1 n=e7 v=85
44378 On ch=1 n=e7 v=0
44378 On ch=1 n=e8 v=85
44434 On ch=1 n=e8 v=0
44434 On ch=1 n=d#8 v=83
44483 On ch=1 n=d#8 v=0
44484 On ch=1 n=c#8 v=83
44534 On ch=1 n=c#8 v=0
44535 On ch=1 n=g7 v=83
44584 On ch=1 n=g7 v=0
44584 On ch=1 n=g#7 v=83
44630 On ch=1 n=g#7 v=0
44631 On ch=1 n=e8 v=83
44669 On ch=1 n=e8 v=0
44670 On ch=1 n=d#8 v=83
44709 On ch=1 n=d#8 v=0
44709 On ch=1 n=c#8 v=83
44748 On ch=1 n=c#8 v=0
44748 On ch=1 n=g7 v=83
44787 On ch=1 n=g7 v=0
44788 On ch=1 n=g#7 v=83
44839 On ch=1 n=g#7 v=0
44839 On ch=1 n=e8 v=86
44880 On ch=1 n=e8 v=0
44881 On ch=1 n=d#8 v=86
44922 On ch=1 n=d#8 v=0
44922 On ch=1 n=c#8 v=86
44963 On ch=1 n=c#8 v=0
44964 On ch=1 n=g7 v=86
45005 On ch=1 n=g7 v=0
45006 On ch=1 n=g#7 v=86
45033 On ch=1 n=g#7 v=0
45033 On ch=1 n=e8 v=85
45071 On ch=1 n=e8 v=0
45072 On ch=1 n=d#8 v=85
45110 On ch=1 n=d#8 v=0
45111 On ch=1 n=c#8 v=85
45149 On ch=1 n=c#8 v=0
45150 On ch=1 n=g7 v=85
45188 On ch=1 n=g7 v=0
45188 On ch=1 n=g#7 v=85
45236 On ch=1 n=g#7 v=0
45237 On ch=1 n=e8 v=87
45277 On ch=1 n=e8 v=0
45277 On ch=1 n=d#8 v=87
45318 On ch=1 n=d#8 v=0
45318 On ch=1 n=c#8 v=87
45358 On ch=1 n=c#8 v=0
45359 On ch=1 n=g7 v=87
45400 On ch=1 n=g7 v=0
45400 On ch=1 n=g#7 v=87
45433 On ch=1 n=g#7 v=0
45434 On ch=1 n=e8 v=88
45472 On ch=1 n=e8 v=0
45472 On ch=1 n=d#8 v=88
45511 On ch=1 n=d#8 v=0
45512 On ch=1 n=c#8 v=88
45551 On ch=1 n=c#8 v=0
45551 On ch=1 n=g7 v=88
45590 On ch=1 n=g7 v=0
45591 On ch=1 n=g#7 v=88
45641 On ch=1 n=g#7 v=0
45641 On ch=1 n=e8 v=88
45682 On ch=1 n=e8 v=0
45682 On ch=1 n=d#8 v=88
45723 On ch=1 n=d#8 v=0
45724 On ch=1 n=c#8 v=88
45765 On ch=1 n=c#8 v=0
45765 On ch=1 n=g7 v=88
45806 On ch=1 n=g7 v=0
45807 On ch=1 n=g#7 v=88
45842 On ch=1 n=g#7 v=0
45843 On ch=1 n=e8 v=90
45883 On ch=1 n=e8 v=0
45883 On ch=1 n=d#8 v=90
45923 On ch=1 n=d#8 v=0
45923 On ch=1 n=c#8 v=90
45963 On ch=1 n=c#8 v=0
45963 On ch=1 n=g7 v=90
46003 On ch=1 n=g7 v=0
46004 On ch=1 n=g#7 v=90
46038 On ch=1 n=g#7 v=0
46038 On ch=1 n=e8 v=90
46076 On ch=1 n=e8 v=0
46077 On ch=1 n=d#8 v=90
46116 On ch=1 n=d#8 v=0
46117 On ch=1 n=c#8 v=90
46155 On ch=1 n=c#8 v=0
46155 On ch=1 n=g7 v=90
46194 On ch=1 n=g7 v=0
46195 On ch=1 n=g#7 v=90
46233 On ch=1 n=g#7 v=0
46233 On ch=1 n=e8 v=95
46271 On ch=1 n=e8 v=0
46272 On ch=1 n=d#8 v=95
46310 On ch=1 n=d#8 v=0
46311 On ch=1 n=c#8 v=95
46350 On ch=1 n=c#8 v=0
46350 On ch=1 n=g7 v=95
46388 On ch=1 n=g7 v=0
46389 On ch=1 n=g#7 v=95
46433 On ch=1 n=g#7 v=0
46433 On ch=1 n=e8 v=93
46472 On ch=1 n=e8 v=0
46473 On ch=1 n=d#8 v=93
46513 On ch=1 n=d#8 v=0
46513 On ch=1 n=c8 v=93
46552 On ch=1 n=c8 v=0
46552 On ch=1 n=g7 v=93
46592 On ch=1 n=g7 v=0
46593 On ch=1 n=g#7 v=93
46626 On ch=1 n=g#7 v=0
46626 On ch=1 n=f8 v=95
46626 On ch=1 n=e8 v=95
46663 On ch=1 n=e8 v=0
46663 On ch=1 n=f8 v=0
46664 On ch=1 n=d#8 v=95
46664 On ch=1 n=d#8 v=95
46702 On ch=1 n=d#8 v=0
46702 On ch=1 n=d#8 v=0
46702 On ch=1 n=c#8 v=95
46702 On ch=1 n=c#8 v=95
46725 Par ch=1 c=64 v=127
46740 On ch=1 n=c#8 v=0
46740 On ch=1 n=c#8 v=0
46741 On ch=1 n=g#7 v=95
46741 On ch=1 n=g7 v=95
46779 On ch=1 n=g7 v=0
46779 On ch=1 n=g#7 v=0
46780 On ch=1 n=a#7 v=95
46780 On ch=1 n=g#7 v=95
46816 On ch=1 n=g#7 v=0
46816 On ch=1 n=a#7 v=0
46816 On ch=1 n=f8 v=99
46816 On ch=1 n=e8 v=99
46853 On ch=1 n=e8 v=0
46853 On ch=1 n=f8 v=0
46854 On ch=1 n=d#8 v=99
46854 On ch=1 n=d#8 v=99
46891 On ch=1 n=d#8 v=0
46891 On ch=1 n=d#8 v=0
46892 On ch=1 n=c#8 v=99
46892 On ch=1 n=c#8 v=99
46929 On ch=1 n=c#8 v=0
46929 On ch=1 n=c#8 v=0
46930 On ch=1 n=g#7 v=99
46930 On ch=1 n=g7 v=99
46967 On ch=1 n=g7 v=0
46967 On ch=1 n=g#7 v=0
46968 On ch=1 n=a#7 v=99
46968 On ch=1 n=g#7 v=99
47020 On ch=1 n=g#7 v=0
47020 On ch=1 n=a#7 v=0
47020 On ch=1 n=f8 v=92
47020 On ch=1 n=e8 v=92
47060 On ch=1 n=e8 v=0
47060 On ch=1 n=f8 v=0
47060 On ch=1 n=d#8 v=92
47060 On ch=1 n=d#8 v=92
47101 On ch=1 n=d#8 v=0
47101 On ch=1 n=d#8 v=0
47101 On ch=1 n=c#8 v=92
47101 On ch=1 n=c#8 v=92
47141 On ch=1 n=c#8 v=0
47141 On ch=1 n=c#8 v=0
47141 On ch=1 n=g#7 v=92
47141 On ch=1 n=g7 v=92
47182 On ch=1 n=g7 v=0
47182 On ch=1 n=g#7 v=0
47182 On ch=1 n=a#7 v=92
47182 On ch=1 n=g#7 v=92
47217 On ch=1 n=g#7 v=0
47217 On ch=1 n=a#7 v=0
47218 On ch=1 n=f8 v=95
47257 On ch=1 n=f8 v=0
47257 On ch=1 n=d#8 v=95
47296 On ch=1 n=d#8 v=0
47297 On ch=1 n=c#8 v=95
47336 On ch=1 n=c#8 v=0
47336 On ch=1 n=g#7 v=95
47375 On ch=1 n=g#7 v=0
47376 On ch=1 n=a#7 v=95
47409 On ch=1 n=a#7 v=0
47410 On ch=1 n=f8 v=98
47447 On ch=1 n=f8 v=0
47448 On ch=1 n=d#8 v=98
47486 On ch=1 n=d#8 v=0
47486 On ch=1 n=c#8 v=98
47523 On ch=1 n=c#8 v=0
47524 On ch=1 n=g#7 v=98
47562 On ch=1 n=g#7 v=0
47563 On ch=1 n=a#7 v=98
47606 On ch=1 n=a#7 v=0
47606 On ch=1 n=f8 v=92
47644 On ch=1 n=f8 v=0
47645 On ch=1 n=d#8 v=92
47684 On ch=1 n=d#8 v=0
47685 On ch=1 n=c#8 v=92
47724 On ch=1 n=c#8 v=0
47724 On ch=1 n=g#7 v=92
47763 On ch=1 n=g#7 v=0
47763 On ch=1 n=a#7 v=92
47814 On ch=1 n=a#7 v=0
47815 On ch=1 n=f8 v=86
47856 On ch=1 n=f8 v=0
47857 On ch=1 n=d#8 v=86
47898 On ch=1 n=d#8 v=0
47898 On ch=1 n=c#8 v=86
47939 On ch=1 n=c#8 v=0
47940 On ch=1 n=a7 v=86
47981 On ch=1 n=a7 v=0
47981 On ch=1 n=a#7 v=86
48007 On ch=1 n=a#7 v=0
48007 On ch=1 n=c#8 v=87
48044 On ch=1 n=c#8 v=0
48045 On ch=1 n=c8 v=87
48083 On ch=1 n=c8 v=0
48084 On ch=1 n=a#7 v=87
48122 On ch=1 n=a#7 v=0
48123 On ch=1 n=f#7 v=87
48161 On ch=1 n=f#7 v=0
48161 On ch=1 n=g7 v=87
48202 On ch=1 n=g7 v=0
48202 On ch=1 n=a#7 v=90
48240 On ch=1 n=a#7 v=0
48241 On ch=1 n=g#7 v=90
48279 On ch=1 n=g#7 v=0
48280 On ch=1 n=g7 v=90
48319 On ch=1 n=g7 v=0
48319 On ch=1 n=c#7 v=90
48357 On ch=1 n=c#7 v=0
48358 On ch=1 n=d#7 v=90
48389 On ch=1 n=d#7 v=0
48390 On ch=1 n=g7 v=94
48427 On ch=1 n=g7 v=0
48427 On ch=1 n=f7 v=94
48464 On ch=1 n=f7 v=0
48465 On ch=1 n=d#7 v=94
48502 On ch=1 n=d#7 v=0
48502 On ch=1 n=c7 v=94
48539 On ch=1 n=c7 v=0
48540 On ch=1 n=c#7 v=94
48600 On ch=1 n=c#7 v=0
48600 On ch=1 n=f7 v=87
48641 On ch=1 n=f7 v=0
48642 On ch=1 n=d#7 v=87
48683 On ch=1 n=d#7 v=0
48684 On ch=1 n=c#7 v=87
48725 On ch=1 n=c#7 v=0
48726 On ch=1 n=a6 v=87
48768 On ch=1 n=a6 v=0
48768 On ch=1 n=a#6 v=87
48806 On ch=1 n=a#6 v=0
48807 On ch=1 n=c#7 v=87
48848 On ch=1 n=c#7 v=0
48848 On ch=1 n=c7 v=87
48889 On ch=1 n=c7 v=0
48889 On ch=1 n=a#6 v=87
48930 On ch=1 n=a#6 v=0
48931 On ch=1 n=f#6 v=87
48972 On ch=1 n=f#6 v=0
48972 On ch=1 n=g6 v=87
49032 On ch=1 n=g6 v=0
49032 On ch=1 n=a#6 v=71
49077 On ch=1 n=a#6 v=0
49077 On ch=1 n=g#6 v=71
49122 On ch=1 n=g#6 v=0
49122 On ch=1 n=g6 v=71
49167 On ch=1 n=g6 v=0
49167 On ch=1 n=d6 v=71
49212 On ch=1 n=d6 v=0
49212 On ch=1 n=d#6 v=71
49260 On ch=1 n=d#6 v=0
49260 On ch=1 n=g6 v=71
49305 On ch=1 n=g6 v=0
49306 On ch=1 n=f6 v=71
49351 On ch=1 n=f6 v=0
49352 On ch=1 n=d#6 v=71
49397 On ch=1 n=d#6 v=0
49397 On ch=1 n=c6 v=71
49442 On ch=1 n=c6 v=0
49443 On ch=1 n=c#6 v=71
49481 On ch=1 n=c#6 v=0
49481 On ch=1 n=f6 v=67
49525 On ch=1 n=f6 v=0
49526 On ch=1 n=d#6 v=67
49570 On ch=1 n=d#6 v=0
49570 On ch=1 n=c#6 v=67
49614 On ch=1 n=c#6 v=0
49614 On ch=1 n=a5 v=67
49658 On ch=1 n=a5 v=0
49658 On ch=1 n=a#5 v=67
49706 On ch=1 n=a#5 v=0
49707 On ch=1 n=c#6 v=73
49752 On ch=1 n=c#6 v=0
49752 On ch=1 n=c6 v=73
49797 On ch=1 n=c6 v=0
49797 On ch=1 n=a#5 v=73
49842 On ch=1 n=a#5 v=0
49842 On ch=1 n=f#5 v=73
49887 On ch=1 n=f#5 v=0
49888 On ch=1 n=g5 v=73
49934 On ch=1 n=g5 v=0
49935 On ch=1 n=a#5 v=68
49976 Par ch=1 c=64 v=0
49980 On ch=1 n=a#5 v=0
49980 On ch=1 n=a5 v=68
50025 On ch=1 n=a5 v=0
50025 On ch=1 n=g5 v=68
50070 On ch=1 n=g5 v=0
50071 On ch=1 n=d5 v=68
50116 On ch=1 n=d5 v=0
50116 On ch=1 n=d#5 v=68
50166 On ch=1 n=d#5 v=0
50167 On ch=1 n=g5 v=65
50224 On ch=1 n=g5 v=0
50224 On ch=1 n=f5 v=65
50228 Par ch=1 c=64 v=127
50282 On ch=1 n=f5 v=0
50283 On ch=1 n=f5 v=65
50340 On ch=1 n=f5 v=0
50340 On ch=1 n=c#5 v=65
50400 On ch=1 n=c#5 v=0
50401 On ch=1 n=d#5 v=61
50459 On ch=1 n=d#5 v=0
50460 On ch=1 n=g5 v=61
50518 On ch=1 n=g5 v=0
50518 On ch=1 n=f5 v=61
50577 On ch=1 n=f5 v=0
50577 On ch=1 n=f5 v=61
50639 On ch=1 n=f5 v=0
50640 On ch=1 n=c#5 v=56
50700 On ch=1 n=c#5 v=0
50700 On ch=1 n=d#5 v=56
50759 On ch=1 n=d#5 v=0
50759 On ch=1 n=g5 v=56
50819 On ch=1 n=g5 v=0
50819 On ch=1 n=f5 v=56
50879 On ch=1 n=f5 v=0
50879 On ch=1 n=f5 v=54
50939 On ch=1 n=f5 v=0
50939 On ch=1 n=c#5 v=54
50999 On ch=1 n=c#5 v=0
50999 On ch=1 n=d#5 v=54
51058 On ch=1 n=d#5 v=0
51058 On ch=1 n=g5 v=54
51121 On ch=1 n=g5 v=0
51121 On ch=1 n=f5 v=53
51181 On ch=1 n=f5 v=0
51182 On ch=1 n=e5 v=53
51242 On ch=1 n=e5 v=0
51243 On ch=1 n=c#5 v=53
51303 On ch=1 n=c#5 v=0
51303 On ch=1 n=d#5 v=53
51357 On ch=1 n=d#5 v=0
51357 On ch=1 n=g5 v=50
51416 On ch=1 n=g5 v=0
51416 On ch=1 n=a#5 v=50
51474 On ch=1 n=a#5 v=0
51475 On ch=1 n=c#6 v=50
51534 On ch=1 n=c#6 v=0
51534 On ch=1 n=d#6 v=50
51609 On ch=1 n=d#6 v=0
51609 On ch=1 n=g6 v=42
51672 On ch=1 n=g6 v=0
51672 On ch=1 n=a#6 v=42
51735 On ch=1 n=a#6 v=0
51735 On ch=1 n=c#7 v=42
51797 On ch=1 n=c#7 v=0
51798 On ch=1 n=f7 v=42
52107 On ch=1 n=f7 v=0
52235 On ch=1 n=d#7 v=31
52371 On ch=1 n=d#7 v=0
52372 On ch=1 n=a6 v=31
52521 On ch=1 n=a6 v=0
52521 On ch=1 n=a#6 v=35
52661 Par ch=1 c=64 v=0
52663 On ch=1 n=a#6 v=0
52920 On ch=1 n=d5 v=34
53067 On ch=1 n=d5 v=0
53067 On ch=1 n=d#5 v=31
53072 Par ch=1 c=64 v=127
53205 On ch=1 n=d#5 v=0
53206 On ch=1 n=g5 v=31
53307 On ch=1 n=g5 v=0
53308 On ch=1 n=b5 v=41
53431 On ch=1 n=b5 v=0
53432 On ch=1 n=c#6 v=41
53500 On ch=1 n=c#6 v=0
53501 On ch=1 n=d#6 v=30
53564 On ch=1 n=d#6 v=0
53565 On ch=1 n=g6 v=30
53628 On ch=1 n=g6 v=0
53628 On ch=1 n=b6 v=30
53691 On ch=1 n=b6 v=0
53692 On ch=1 n=c#7 v=30
53745 On ch=1 n=c#7 v=0
53745 On ch=1 n=f7 v=37
54083 On ch=1 n=f7 v=0
54253 On ch=1 n=d#7 v=33
54464 On ch=1 n=d#7 v=0
54465 On ch=1 n=a#6 v=23
54654 On ch=1 n=a#6 v=0
54654 On ch=1 n=b6 v=23
54799 Par ch=1 c=64 v=0
54802 On ch=1 n=b6 v=0
57068 On ch=1 n=d#6 v=58
57124 On ch=1 n=d#6 v=0
57125 On ch=1 n=f6 v=71
57184 On ch=1 n=f6 v=0
57184 On ch=1 n=d#6 v=71
57242 On ch=1 n=d#6 v=0
57243 On ch=1 n=d6 v=71
57302 On ch=1 n=d6 v=0
57302 On ch=1 n=d#6 v=71
57395 On ch=1 n=d#6 v=0
57396 On ch=1 n=c7 v=71
57649 On ch=1 n=c7 v=0
57649 On ch=1 n=g6 v=67
57919 On ch=1 n=g6 v=0
57925 Par ch=1 c=64 v=127
58197 On ch=1 n=a#6 v=65
58730 On ch=1 n=a#6 v=0
58731 On ch=1 n=g#6 v=73
58982 On ch=1 n=g#6 v=0
58982 On ch=1 n=c6 v=76
59233 On ch=1 n=c6 v=0
59233 On ch=1 n=c#6 v=81
59488 On ch=1 n=c#6 v=0
59735 On ch=1 n=f6 v=81
60244 On ch=1 n=f6 v=0
60244 On ch=1 n=d#6 v=89
60504 On ch=1 n=d#6 v=0
60505 On ch=1 n=c#6 v=85
60749 On ch=1 n=c#6 v=0
60750 On ch=1 n=c6 v=84
60990 Par ch=1 c=64 v=0
61010 On ch=1 n=c6 v=0
61015 Par ch=1 c=64 v=127
61265 On ch=1 n=c6 v=78
61768 On ch=1 n=c6 v=0
61769 On ch=1 n=a#5 v=81
61769 On ch=1 n=a#5 v=81
62020 On ch=1 n=a#5 v=0
62020 On ch=1 n=a#5 v=0
62021 On ch=1 n=a5 v=81
62274 On ch=1 n=a5 v=0
62274 On ch=1 n=a#5 v=71
62509 On ch=1 n=a#5 v=0
62509 On ch=1 n=a5 v=75
62567 On ch=1 n=a5 v=0
62568 On ch=1 n=a#5 v=75
62627 On ch=1 n=a#5 v=0
62627 On ch=1 n=c6 v=75
62685 On ch=1 n=c6 v=0
62685 On ch=1 n=a#5 v=75
62747 On ch=1 n=a#5 v=0
62748 On ch=1 n=c6 v=65
62808 On ch=1 n=c6 v=0
62808 On ch=1 n=a#5 v=65
62867 On ch=1 n=a#5 v=0
62867 On ch=1 n=c6 v=65
62927 On ch=1 n=c6 v=0
62927 On ch=1 n=a#5 v=65
62984 On ch=1 n=a#5 v=0
62985 On ch=1 n=c6 v=66
63044 On ch=1 n=c6 v=0
63044 On ch=1 n=a#5 v=66
63103 On ch=1 n=a#5 v=0
63103 On ch=1 n=c6 v=66
63162 On ch=1 n=c6 v=0
63162 On ch=1 n=a#5 v=66
63235 On ch=1 n=a#5 v=0
63236 On ch=1 n=c6 v=65
63299 On ch=1 n=c6 v=0
63299 On ch=1 n=a#5 v=65
63361 On ch=1 n=a#5 v=0
63361 On ch=1 n=c6 v=65
63424 On ch=1 n=c6 v=0
63424 On ch=1 n=a#5 v=65
63477 On ch=1 n=a#5 v=0
63478 On ch=1 n=a5 v=70
63538 On ch=1 n=a5 v=0
63539 On ch=1 n=a#5 v=70
63599 On ch=1 n=a#5 v=0
63600 On ch=1 n=c#6 v=70
63660 On ch=1 n=c#6 v=0
63660 On ch=1 n=d6 v=70
63735 On ch=1 n=d6 v=0
63735 On ch=1 n=e6 v=69
63799 On ch=1 n=e6 v=0
63800 On ch=1 n=f6 v=69
63863 On ch=1 n=f6 v=0
63864 On ch=1 n=g6 v=69
63928 On ch=1 n=g6 v=0
63929 On ch=1 n=g#6 v=69
63992 On ch=1 n=g#6 v=0
63992 On ch=1 n=a6 v=62
64055 On ch=1 n=a6 v=0
64056 On ch=1 n=c#7 v=62
64120 On ch=1 n=c#7 v=0
64121 On ch=1 n=c#7 v=62
64184 On ch=1 n=c#7 v=0
64185 On ch=1 n=d7 v=62
64245 Par ch=1 c=64 v=0
64264 On ch=1 n=d7 v=0
64269 Par ch=1 c=64 v=127
64512 On ch=1 n=f7 v=65
65027 On ch=1 n=f7 v=0
65028 On ch=1 n=d#7 v=63
65284 On ch=1 n=d#7 v=0
65284 On ch=1 n=c#7 v=60
65546 On ch=1 n=c#7 v=0
65546 On ch=1 n=a#6 v=63
65810 On ch=1 n=a#6 v=0
66068 On ch=1 n=f6 v=60
66589 On ch=1 n=f6 v=0
66590 On ch=1 n=d#6 v=58
66844 On ch=1 n=d#6 v=0
66844 On ch=1 n=c#6 v=57
67105 On ch=1 n=c#6 v=0
67106 On ch=1 n=a#5 v=62
67363 Par ch=1 c=64 v=0
67365 On ch=1 n=a#5 v=0
67365 On ch=1 n=g5 v=63
67370 Par ch=1 c=64 v=127
67623 On ch=1 n=g5 v=0
67624 On ch=1 n=g#5 v=63
67890 On ch=1 n=g#5 v=0
67891 On ch=1 n=c6 v=57
68158 On ch=1 n=c6 v=0
68159 On ch=1 n=d#6 v=58
68425 On ch=1 n=d#6 v=0
68426 On ch=1 n=g6 v=56
68559 On ch=1 n=g6 v=0
68559 On ch=1 n=g#6 v=56
68688 On ch=1 n=g#6 v=0
68688 On ch=1 n=c7 v=57
68775 On ch=1 n=c7 v=0
68776 On ch=1 n=d#7 v=57
68863 On ch=1 n=d#7 v=0
68864 On ch=1 n=c8 v=57
68940 On ch=1 n=c8 v=0
68940 On ch=1 n=g#7 v=55
69492 On ch=1 n=g#7 v=0
69703 On ch=1 n=d#6 v=56
69732 On ch=1 n=d#6 v=0
69732 On ch=1 n=f6 v=62
69792 On ch=1 n=f6 v=0
69792 On ch=1 n=d#6 v=62
69852 On ch=1 n=d#6 v=0
69852 On ch=1 n=d6 v=62
69911 On ch=1 n=d6 v=0
69911 On ch=1 n=d#6 v=62
69959 On ch=1 n=d#6 v=0
69960 On ch=1 n=c7 v=66
70192 On ch=1 n=c7 v=0
70192 On ch=1 n=g6 v=60
70421 Par ch=1 c=64 v=0
70486 On ch=1 n=g6 v=0
70492 Par ch=1 c=64 v=127
70741 On ch=1 n=a#6 v=60
71278 On ch=1 n=a#6 v=0
71279 On ch=1 n=g#6 v=69
71541 On ch=1 n=g#6 v=0
71541 On ch=1 n=c6 v=70
71783 On ch=1 n=c6 v=0
71783 On ch=1 n=c#6 v=70
72047 On ch=1 n=c#6 v=0
72303 On ch=1 n=f6 v=65
72814 On ch=1 n=f6 v=0
72814 On ch=1 n=d#6 v=73
73072 On ch=1 n=d#6 v=0
73072 On ch=1 n=c#6 v=74
73323 On ch=1 n=c#6 v=0
73324 On ch=1 n=c6 v=71
73572 Par ch=1 c=64 v=0
73593 On ch=1 n=c6 v=0
73598 Par ch=1 c=64 v=127
73841 On ch=1 n=c6 v=67
74358 On ch=1 n=c6 v=0
74358 On ch=1 n=a#5 v=65
74608 On ch=1 n=a#5 v=0
74609 On ch=1 n=a5 v=65
74866 On ch=1 n=a5 v=0
74866 On ch=1 n=a#5 v=68
75103 On ch=1 n=a#5 v=0
75104 On ch=1 n=a5 v=65
75163 On ch=1 n=a5 v=0
75163 On ch=1 n=a#5 v=65
75223 On ch=1 n=a#5 v=0
75223 On ch=1 n=c6 v=65
75282 On ch=1 n=c6 v=0
75282 On ch=1 n=a#5 v=65
75339 On ch=1 n=a#5 v=0
75340 On ch=1 n=c6 v=62
75399 On ch=1 n=c6 v=0
75399 On ch=1 n=a#5 v=62
75457 On ch=1 n=a#5 v=0
75457 On ch=1 n=c6 v=62
75516 On ch=1 n=c6 v=0
75517 On ch=1 n=a#5 v=62
75574 On ch=1 n=a#5 v=0
75574 On ch=1 n=c6 v=62
75632 On ch=1 n=c6 v=0
75633 On ch=1 n=a#5 v=62
75691 On ch=1 n=a#5 v=0
75691 On ch=1 n=c6 v=62
75750 On ch=1 n=c6 v=0
75750 On ch=1 n=a#5 v=62
75825 On ch=1 n=a#5 v=0
75826 On ch=1 n=c6 v=62
75889 On ch=1 n=c6 v=0
75889 On ch=1 n=a#5 v=62
75952 On ch=1 n=a#5 v=0
75952 On ch=1 n=c6 v=62
76014 On ch=1 n=c6 v=0
76015 On ch=1 n=a#5 v=62
76065 On ch=1 n=a#5 v=0
76065 On ch=1 n=a5 v=65
76125 On ch=1 n=a5 v=0
76125 On ch=1 n=a#5 v=65
76185 On ch=1 n=a#5 v=0
76185 On ch=1 n=c#6 v=65
76244 On ch=1 n=c#6 v=0
76245 On ch=1 n=d6 v=65
76302 On ch=1 n=d6 v=0
76302 On ch=1 n=e6 v=67
76361 On ch=1 n=e6 v=0
76361 On ch=1 n=f6 v=67
76420 On ch=1 n=f6 v=0
76421 On ch=1 n=g6 v=67
76480 On ch=1 n=g6 v=0
76480 On ch=1 n=g#6 v=67
76532 On ch=1 n=g#6 v=0
76532 On ch=1 n=a6 v=73
76589 On ch=1 n=a6 v=0
76590 On ch=1 n=a#6 v=73
76646 On ch=1 n=a#6 v=0
76646 On ch=1 n=c#7 v=73
76703 On ch=1 n=c#7 v=0
76704 On ch=1 n=d7 v=73
76750 Par ch=1 c=64 v=0
76752 On ch=1 n=d7 v=0
76755 Par ch=1 c=64 v=127
76998 On ch=1 n=f7 v=67
77508 On ch=1 n=f7 v=0
77509 On ch=1 n=d#7 v=67
77772 On ch=1 n=d#7 v=0
77773 On ch=1 n=c7 v=60
78033 On ch=1 n=c7 v=0
78033 On ch=1 n=g#6 v=68
78290 Par ch=1 c=64 v=0
78304 On ch=1 n=g#6 v=0
78310 Par ch=1 c=64 v=127
78559 On ch=1 n=f6 v=63
79100 On ch=1 n=f6 v=0
79101 On ch=1 n=d#6 v=62
79361 On ch=1 n=d#6 v=0
79361 On ch=1 n=c#6 v=65
79615 On ch=1 n=c#6 v=0
79616 On ch=1 n=a#5 v=65
79858 Par ch=1 c=64 v=0
79860 On ch=1 n=a#5 v=0
79860 On ch=1 n=g5 v=60
79864 Par ch=1 c=64 v=127
80115 On ch=1 n=g5 v=0
80116 On ch=1 n=g#5 v=61
80373 On ch=1 n=g#5 v=0
80373 On ch=1 n=c6 v=63
80639 On ch=1 n=c6 v=0
80640 On ch=1 n=d#6 v=59
80910 On ch=1 n=d#6 v=0
80910 On ch=1 n=g6 v=57
81045 On ch=1 n=g6 v=0
81046 On ch=1 n=g#6 v=57
81211 On ch=1 n=g#6 v=0
81212 On ch=1 n=c7 v=59
81312 On ch=1 n=c7 v=0
81312 On ch=1 n=d#7 v=59
81412 On ch=1 n=d#7 v=0
81412 On ch=1 n=c8 v=59
81569 On ch=1 n=c8 v=0
81570 On ch=1 n=g#7 v=49
82200 Par ch=1 c=64 v=0
82201 On ch=1 n=g#7 v=0
82572 On ch=1 n=c6 v=71
82633 On ch=1 n=c6 v=0
82634 On ch=1 n=c6 v=71
82712 On ch=1 n=c6 v=0
82713 On ch=1 n=d#6 v=72
82779 On ch=1 n=d#6 v=0
82779 On ch=1 n=c#6 v=72
82984 On ch=1 n=c#6 v=0
82984 On ch=1 n=c6 v=70
83248 On ch=1 n=c6 v=0
83249 On ch=1 n=c6 v=85
83253 Par ch=1 c=64 v=127
83336 On ch=1 n=c7 v=85
84272 On ch=1 n=c7 v=0
84272 On ch=1 n=c6 v=0
84272 On ch=1 n=g6 v=70
84272 On ch=1 n=g5 v=70
84771 Par ch=1 c=64 v=0
84773 On ch=1 n=g5 v=0
84773 On ch=1 n=g6 v=0
84773 On ch=1 n=g6 v=74
84773 On ch=1 n=g5 v=74
84777 Par ch=1 c=64 v=127
85293 On ch=1 n=g5 v=0
85293 On ch=1 n=g6 v=0
85293 On ch=1 n=a#6 v=66
85293 On ch=1 n=g#5 v=66
85387 On ch=1 n=a#6 v=0
85388 On ch=1 n=g#6 v=66
86054 On ch=1 n=g#5 v=0
86055 On ch=1 n=g#6 v=0
86055 On ch=1 n=g6 v=77
86055 On ch=1 n=g5 v=77
86290 Par ch=1 c=64 v=0
86298 On ch=1 n=g5 v=0
86298 On ch=1 n=g6 v=0
86298 On ch=1 n=g6 v=75
86298 On ch=1 n=g5 v=75
86302 Par ch=1 c=64 v=127
87671 On ch=1 n=g5 v=0
87671 On ch=1 n=g6 v=0
87672 On ch=1 n=g#6 v=72
87672 On ch=1 n=g#5 v=72
87791 Par ch=1 c=64 v=0
87797 On ch=1 n=g#5 v=0
87797 On ch=1 n=g#6 v=0
87798 On ch=1 n=f6 v=82
87798 On ch=1 n=f5 v=82
87802 Par ch=1 c=64 v=127
88470 On ch=1 n=f5 v=0
88470 On ch=1 n=f6 v=0
88470 On ch=1 n=g6 v=75
88470 On ch=1 n=g5 v=75
88595 On ch=1 n=g5 v=0
88595 On ch=1 n=g6 v=0
88596 On ch=1 n=g#6 v=91
88596 On ch=1 n=g#5 v=91
88733 On ch=1 n=g#5 v=0
88733 On ch=1 n=g#6 v=0
88733 On ch=1 n=a6 v=91
88733 On ch=1 n=a5 v=91
88873 On ch=1 n=a5 v=0
88873 On ch=1 n=a6 v=0
88874 On ch=1 n=a#6 v=91
88874 On ch=1 n=a#5 v=91
89022 On ch=1 n=a#5 v=0
89022 On ch=1 n=a#6 v=0
89022 On ch=1 n=b6 v=92
89022 On ch=1 n=b5 v=92
89160 Par ch=1 c=64 v=0
89187 On ch=1 n=b5 v=0
89187 On ch=1 n=b6 v=0
89188 On ch=1 n=c7 v=82
89188 On ch=1 n=c6 v=82
89192 Par ch=1 c=64 v=127
89666 On ch=1 n=c6 v=0
89666 On ch=1 n=c7 v=0
89667 On ch=1 n=c#7 v=73
89667 On ch=1 n=c#6 v=73
90405 On ch=1 n=c#6 v=0
90405 On ch=1 n=c#7 v=0
90405 On ch=1 n=c7 v=76
90405 On ch=1 n=c6 v=76
90639 Par ch=1 c=64 v=0
90641 On ch=1 n=c6 v=0
90641 On ch=1 n=c7 v=0
90642 On ch=1 n=g6 v=66
90642 On ch=1 n=g5 v=66
90645 Par ch=1 c=64 v=127
91142 On ch=1 n=g5 v=0
91142 On ch=1 n=g6 v=0
91142 On ch=1 n=a#6 v=66
91142 On ch=1 n=a#5 v=66
91165 On ch=1 n=a#5 v=0
91166 On ch=1 n=g#5 v=66
91236 On ch=1 n=a#6 v=0
91237 On ch=1 n=g#6 v=66
92008 On ch=1 n=g#6 v=0
92008 On ch=1 n=g#5 v=0
92008 On ch=1 n=g6 v=70
92008 On ch=1 n=g5 v=70
92127 Par ch=1 c=64 v=0
92136 On ch=1 n=g5 v=0
92136 On ch=1 n=g6 v=0
92137 On ch=1 n=g6 v=70
92137 On ch=1 n=g5 v=70
92141 Par ch=1 c=64 v=127
92848 On ch=1 n=g5 v=0
92848 On ch=1 n=g6 v=0
92848 On ch=1 n=g#6 v=77
92848 On ch=1 n=g#5 v=77
93080 On ch=1 n=g#5 v=0
93080 On ch=1 n=g#6 v=0
93081 On ch=1 n=e6 v=76
93081 On ch=1 n=e5 v=76
93436 On ch=1 n=e5 v=0
93436 On ch=1 n=e6 v=0
93436 On ch=1 n=f6 v=71
93436 On ch=1 n=f5 v=71
93553 Par ch=1 c=64 v=0
93554 On ch=1 n=f5 v=0
93554 On ch=1 n=f6 v=0
93555 On ch=1 n=f6 v=68
93555 On ch=1 n=f5 v=68
94308 On ch=1 n=f5 v=0
94308 On ch=1 n=f6 v=0
94308 On ch=1 n=g6 v=68
94308 On ch=1 n=g5 v=68
94544 On ch=1 n=g5 v=0
94544 On ch=1 n=g6 v=0
94545 On ch=1 n=g#6 v=63
94545 On ch=1 n=g#5 v=63
94790 On ch=1 n=g#5 v=0
94790 On ch=1 n=g#6 v=0
94790 On ch=1 n=a6 v=60
94790 On ch=1 n=a5 v=60
95034 On ch=1 n=a5 v=0
95034 On ch=1 n=a6 v=0
95035 On ch=1 n=a#6 v=59
95035 On ch=1 n=a#5 v=59
95623 On ch=1 n=a#5 v=0
95623 On ch=1 n=a#6 v=0
95624 On ch=1 n=a#6 v=57
95624 On ch=1 n=a#5 v=57
95716 On ch=1 n=a#5 v=0
95716 On ch=1 n=a#6 v=0
95716 On ch=1 n=a#6 v=66
95716 On ch=1 n=d6 v=66
95820 On ch=1 n=d6 v=0
95820 On ch=1 n=a#6 v=0
95820 On ch=1 n=a#6 v=66
95820 On ch=1 n=f6 v=66
95897 On ch=1 n=f6 v=0
95897 On ch=1 n=a#6 v=0
95898 On ch=1 n=a#6 v=59
95989 On ch=1 n=a#6 v=0
95989 On ch=1 n=d7 v=59
95989 On ch=1 n=a#6 v=59
96109 On ch=1 n=a#6 v=0
96109 On ch=1 n=d7 v=0
96110 On ch=1 n=f7 v=50
96110 On ch=1 n=a#6 v=50
96215 On ch=1 n=a#6 v=0
96215 On ch=1 n=f7 v=0
96216 On ch=1 n=c8 v=50
96216 On ch=1 n=a#6 v=50
96337 On ch=1 n=a#6 v=0
96337 On ch=1 n=c8 v=0
96338 On ch=1 n=a#7 v=47
96338 On ch=1 n=a#6 v=47
96944 On ch=1 n=a#6 v=0
96944 On ch=1 n=a#7 v=0
96944 On ch=1 n=a#7 v=59
96944 On ch=1 n=g7 v=59
97056 On ch=1 n=g7 v=0
97056 On ch=1 n=a#7 v=0
97057 On ch=1 n=a#7 v=53
97057 On ch=1 n=d#7 v=53
97172 On ch=1 n=d#7 v=0
97172 On ch=1 n=a#7 v=0
97172 On ch=1 n=a#7 v=53
97172 On ch=1 n=c7 v=53
97258 On ch=1 n=c7 v=0
97258 On ch=1 n=a#7 v=0
97258 On ch=1 n=a#7 v=48
97258 On ch=1 n=a#6 v=48
97358 On ch=1 n=a#6 v=0
97358 On ch=1 n=a#7 v=0
97358 On ch=1 n=a#6 v=48
97358 On ch=1 n=g6 v=48
97464 On ch=1 n=g6 v=0
97464 On ch=1 n=a#6 v=0
97465 On ch=1 n=a#6 v=55
97465 On ch=1 n=d#6 v=55
97568 On ch=1 n=d#6 v=0
97568 On ch=1 n=a#6 v=0
97568 On ch=1 n=a#6 v=55
97568 On ch=1 n=c6 v=55
97684 On ch=1 n=c6 v=0
97684 On ch=1 n=a#6 v=0
97685 On ch=1 n=a#7 v=56
97685 On ch=1 n=a#6 v=56
98291 On ch=1 n=a#6 v=0
98291 On ch=1 n=a#7 v=0
98292 On ch=1 n=a#7 v=66
98292 On ch=1 n=a#6 v=66
98373 On ch=1 n=a#6 v=0
98373 On ch=1 n=a#7 v=0
98373 On ch=1 n=a#7 v=73
98373 On ch=1 n=d7 v=73
98473 On ch=1 n=d7 v=0
98473 On ch=1 n=a#7 v=0
98473 On ch=1 n=a#7 v=73
98473 On ch=1 n=f7 v=73
98563 On ch=1 n=f7 v=0
98563 On ch=1 n=a#7 v=0
98564 On ch=1 n=a#6 v=74
98659 On ch=1 n=a#6 v=0
98659 On ch=1 n=d7 v=74
98659 On ch=1 n=a#6 v=74
98757 On ch=1 n=a#6 v=0
98757 On ch=1 n=d7 v=0
98758 On ch=1 n=f7 v=92
98758 On ch=1 n=a#6 v=92
98855 On ch=1 n=a#6 v=0
98855 On ch=1 n=f7 v=0
98855 On ch=1 n=b7 v=92
98855 On ch=1 n=a#6 v=92
98970 On ch=1 n=a#6 v=0
98970 On ch=1 n=b7 v=0
98970 On ch=1 n=a#7 v=95
98970 On ch=1 n=a#6 v=95
99540 On ch=1 n=a#6 v=0
99540 On ch=1 n=a#7 v=0
99540 On ch=1 n=a#7 v=85
99540 On ch=1 n=f#7 v=85
99630 On ch=1 n=f#7 v=0
99630 On ch=1 n=a#7 v=0
99630 On ch=1 n=a#7 v=94
99630 On ch=1 n=d#7 v=94
99726 On ch=1 n=d#7 v=0
99726 On ch=1 n=a#7 v=0
99727 On ch=1 n=a#7 v=94
99727 On ch=1 n=b6 v=94
99793 On ch=1 n=b6 v=0
99793 On ch=1 n=a#7 v=0
99793 On ch=1 n=a#7 v=96
99793 On ch=1 n=a#6 v=96
99875 On ch=1 n=a#6 v=0
99875 On ch=1 n=a#7 v=0
99875 On ch=1 n=a#6 v=96
99875 On ch=1 n=f#6 v=96
99958 On ch=1 n=f#6 v=0
99958 On ch=1 n=a#6 v=0
99959 On ch=1 n=a#6 v=96
99959 On ch=1 n=d#6 v=96
100041 On ch=1 n=d#6 v=0
100041 On ch=1 n=a#6 v=0
100042 On ch=1 n=a#6 v=96
100042 On ch=1 n=a#5 v=96
100143 On ch=1 n=a#5 v=0
100143 On ch=1 n=a#6 v=0
100144 On ch=1 n=b6 v=96
100147 Par ch=1 c=64 v=127
100190 On ch=1 n=d#8 v=96
100700 On ch=1 n=d#8 v=0
100701 On ch=1 n=b6 v=0
100701 On ch=1 n=d#8 v=97
100701 On ch=1 n=c#8 v=97
100779 On ch=1 n=c#8 v=0
100779 On ch=1 n=d#8 v=0
100780 On ch=1 n=d#8 v=98
100780 On ch=1 n=b7 v=98
100874 On ch=1 n=b7 v=0
100874 On ch=1 n=d#8 v=0
100875 On ch=1 n=d#8 v=98
100875 On ch=1 n=g#7 v=98
100957 On ch=1 n=g#7 v=0
100957 On ch=1 n=d#8 v=0
100957 On ch=1 n=d#8 v=103
100957 On ch=1 n=f#7 v=103
101046 On ch=1 n=f#7 v=0
101046 On ch=1 n=d#8 v=0
101046 On ch=1 n=d#8 v=103
101046 On ch=1 n=d#7 v=103
101131 On ch=1 n=d#7 v=0
101131 On ch=1 n=d#8 v=0
101131 On ch=1 n=c#8 v=107
101131 On ch=1 n=d#7 v=107
101218 On ch=1 n=d#7 v=0
101218 On ch=1 n=c#8 v=0
101219 On ch=1 n=b7 v=107
101219 On ch=1 n=d#7 v=107
101302 On ch=1 n=d#7 v=0
101302 On ch=1 n=b7 v=0
101303 On ch=1 n=g#7 v=103
101303 On ch=1 n=d#7 v=103
101389 On ch=1 n=d#7 v=0
101389 On ch=1 n=g#7 v=0
101389 On ch=1 n=f#7 v=103
101389 On ch=1 n=d#7 v=103
101475 On ch=1 n=d#7 v=0
101475 On ch=1 n=f#7 v=0
101475 On ch=1 n=d#7 v=99
101561 On ch=1 n=d#7 v=0
101561 On ch=1 n=d#7 v=99
101561 On ch=1 n=c#7 v=99
101658 On ch=1 n=c#7 v=0
101658 On ch=1 n=d#7 v=0
101659 On ch=1 n=d#7 v=99
101659 On ch=1 n=b6 v=99
101751 On ch=1 n=b6 v=0
101751 On ch=1 n=d#7 v=0
101751 On ch=1 n=d#7 v=99
101751 On ch=1 n=g#6 v=99
101859 On ch=1 n=g#6 v=0
101859 On ch=1 n=d#7 v=0
101860 On ch=1 n=d#7 v=85
101860 On ch=1 n=f#6 v=85
101960 On ch=1 n=f#6 v=0
101960 On ch=1 n=d#7 v=0
101960 On ch=1 n=d#7 v=85
101960 On ch=1 n=d#6 v=85
102073 On ch=1 n=d#6 v=0
102073 On ch=1 n=d#7 v=0
102074 On ch=1 n=c#7 v=77
102074 On ch=1 n=d#6 v=77
102180 On ch=1 n=d#6 v=0
102180 On ch=1 n=c#7 v=0
102180 On ch=1 n=b6 v=77
102180 On ch=1 n=d#6 v=77
102311 On ch=1 n=d#6 v=0
102311 On ch=1 n=b6 v=0
102312 On ch=1 n=g#6 v=73
102312 On ch=1 n=d#6 v=73
102312 On ch=1 n=b5 v=73
102431 On ch=1 n=b5 v=0
102431 On ch=1 n=d#6 v=0
102431 On ch=1 n=g#6 v=0
102492 On ch=1 n=f#6 v=73
102492 On ch=1 n=d#6 v=73
102492 On ch=1 n=b5 v=73
102547 Par ch=1 c=64 v=0
102568 On ch=1 n=b5 v=0
102568 On ch=1 n=d#6 v=0
102568 On ch=1 n=f#6 v=0
102568 On ch=1 n=c#7 v=69
102568 On ch=1 n=e6 v=69
102568 On ch=1 n=b5 v=69
102573 Par ch=1 c=64 v=127
103156 On ch=1 n=b5 v=0
103156 On ch=1 n=e6 v=0
103156 On ch=1 n=c#7 v=0
103156 On ch=1 n=c#7 v=68
103450 On ch=1 n=c#7 v=0
103451 On ch=1 n=b6 v=63
103509 On ch=1 n=b6 v=0
103509 On ch=1 n=b6 v=63
103568 On ch=1 n=b6 v=0
103568 On ch=1 n=c#7 v=63
103626 On ch=1 n=c#7 v=0
103627 On ch=1 n=a#6 v=63
103686 On ch=1 n=a#6 v=0
103686 On ch=1 n=b6 v=63
103756 On ch=1 n=b6 v=0
103756 On ch=1 n=g#7 v=60
103908 On ch=1 n=g#7 v=0
103909 On ch=1 n=d#7 v=60
104066 On ch=1 n=d#7 v=0
104067 On ch=1 n=f#7 v=63
104221 On ch=1 n=f#7 v=0
104221 On ch=1 n=e7 v=63
104378 On ch=1 n=e7 v=0
104378 On ch=1 n=g#6 v=60
104533 On ch=1 n=g#6 v=0
104534 On ch=1 n=a6 v=60
104678 On ch=1 n=a6 v=0
104678 On ch=1 n=c#7 v=67
104830 On ch=1 n=c#7 v=0
104903 On ch=1 n=b6 v=67
104957 On ch=1 n=b6 v=0
104958 On ch=1 n=d#6 v=64
105098 On ch=1 n=d#6 v=0
105098 On ch=1 n=e6 v=64
105266 On ch=1 n=e6 v=0
105267 On ch=1 n=a6 v=67
105420 On ch=1 n=a6 v=0
105420 On ch=1 n=g#6 v=67
105496 On ch=1 n=g#6 v=0
105497 On ch=1 n=a6 v=67
105579 On ch=1 n=a6 v=0
105580 On ch=1 n=g#6 v=63
105658 On ch=1 n=g#6 v=0
105658 On ch=1 n=f#6 v=63
105955 On ch=1 n=f#6 v=0
105956 On ch=1 n=e6 v=62
106176 Par ch=1 c=64 v=0
106219 On ch=1 n=e6 v=0
106219 On ch=1 n=d#7 v=60
106219 On ch=1 n=b5 v=60
106225 Par ch=1 c=64 v=127
106998 On ch=1 n=b5 v=0
106998 On ch=1 n=d#7 v=0
106999 On ch=1 n=d#7 v=81
106999 On ch=1 n=c7 v=81
107100 On ch=1 n=b6 v=81
107125 On ch=1 n=c7 v=0
107125 On ch=1 n=d#7 v=0
107125 On ch=1 n=d#7 v=103
107125 On ch=1 n=b6 v=103
107264 On ch=1 n=d#7 v=0
107265 On ch=1 n=b6 v=0
107265 On ch=1 n=d#7 v=103
107265 On ch=1 n=g#6 v=103
107388 On ch=1 n=g#6 v=0
107388 On ch=1 n=d#7 v=0
107388 On ch=1 n=b6 v=0
107389 On ch=1 n=d#7 v=103
107389 On ch=1 n=f#6 v=103
107520 On ch=1 n=f#6 v=0
107520 On ch=1 n=d#7 v=0
107520 On ch=1 n=d#7 v=103
107520 On ch=1 n=d#6 v=103
107652 On ch=1 n=d#6 v=0
107652 On ch=1 n=d#7 v=0
107653 On ch=1 n=c7 v=103
107653 On ch=1 n=d#6 v=103
107785 On ch=1 n=d#6 v=0
107785 On ch=1 n=c7 v=0
107786 On ch=1 n=b6 v=103
107909 On ch=1 n=b6 v=0
107910 On ch=1 n=g#6 v=103
107910 On ch=1 n=d#6 v=103
108038 On ch=1 n=d#6 v=0
108038 On ch=1 n=g#6 v=0
108038 On ch=1 n=f#6 v=103
108038 On ch=1 n=d#6 v=103
108173 On ch=1 n=d#6 v=0
108173 On ch=1 n=f#6 v=0
108173 On ch=1 n=d#6 v=105
108304 On ch=1 n=d#6 v=0
108305 On ch=1 n=d#6 v=105
108305 On ch=1 n=c6 v=105
108424 On ch=1 n=c6 v=0
108424 On ch=1 n=d#6 v=0
108424 On ch=1 n=d#6 v=106
108424 On ch=1 n=b5 v=106
108549 On ch=1 n=b5 v=0
108549 On ch=1 n=d#6 v=0
108550 On ch=1 n=d#6 v=106
108550 On ch=1 n=g#5 v=106
108681 On ch=1 n=g#5 v=0
108681 On ch=1 n=d#6 v=0
108681 On ch=1 n=d#6 v=106
108681 On ch=1 n=f#5 v=106
108809 On ch=1 n=f#5 v=0
108809 On ch=1 n=d#6 v=0
108810 On ch=1 n=d#6 v=106
108810 On ch=1 n=d#5 v=106
108945 On ch=1 n=d#5 v=0
108945 On ch=1 n=d#6 v=0
108945 On ch=1 n=d6 v=106
108945 On ch=1 n=d5 v=106
109077 On ch=1 n=d5 v=0
109077 On ch=1 n=d6 v=0
109078 On ch=1 n=c#6 v=106
109078 On ch=1 n=c#5 v=106
109183 On ch=1 n=c#5 v=0
109183 On ch=1 n=c#6 v=0
109183 On ch=1 n=c6 v=109
109183 On ch=1 n=c5 v=109
109303 On ch=1 n=c5 v=0
109303 On ch=1 n=c6 v=0
109362 On ch=1 n=b5 v=109
109362 On ch=1 n=b4 v=109
109417 Par ch=1 c=64 v=0
109442 On ch=1 n=b4 v=0
109442 On ch=1 n=b5 v=0
109442 On ch=1 n=b5 v=112
109442 On ch=1 n=b4 v=112
109447 Par ch=1 c=64 v=127
110064 On ch=1 n=b4 v=0
110064 On ch=1 n=b5 v=0
110064 On ch=1 n=a#5 v=106
110064 On ch=1 n=a#4 v=106
110183 On ch=1 n=a#4 v=0
110183 On ch=1 n=a#5 v=0
110183 On ch=1 n=g6 v=106
110183 On ch=1 n=g5 v=106
110305 On ch=1 n=g5 v=0
110305 On ch=1 n=g6 v=0
110306 On ch=1 n=d6 v=106
110306 On ch=1 n=d5 v=106
110426 On ch=1 n=d5 v=0
110426 On ch=1 n=d6 v=0
110426 On ch=1 n=f6 v=109
110426 On ch=1 n=f5 v=109
110547 On ch=1 n=f5 v=0
110547 On ch=1 n=f6 v=0
110547 On ch=1 n=d#6 v=109
110547 On ch=1 n=d#5 v=109
110678 On ch=1 n=d#5 v=0
110678 On ch=1 n=d#6 v=0
110678 On ch=1 n=g5 v=111
110678 On ch=1 n=g4 v=111
110867 On ch=1 n=g4 v=0
110867 On ch=1 n=g5 v=0
110868 On ch=1 n=c6 v=111
110868 On ch=1 n=c5 v=111
110927 Par ch=1 c=64 v=0
110959 On ch=1 n=c5 v=0
110959 On ch=1 n=c6 v=0
110959 On ch=1 n=c6 v=119
110959 On ch=1 n=c5 v=119
110964 Par ch=1 c=64 v=127
111646 On ch=1 n=c5 v=0
111646 On ch=1 n=c6 v=0
111647 On ch=1 n=a#5 v=110
111647 On ch=1 n=a#4 v=110
111795 On ch=1 n=a#4 v=0
111795 On ch=1 n=a#5 v=0
111795 On ch=1 n=d7 v=112
111795 On ch=1 n=d6 v=112
111940 On ch=1 n=d6 v=0
111940 On ch=1 n=d7 v=0
111941 On ch=1 n=c7 v=112
111941 On ch=1 n=c6 v=112
112113 On ch=1 n=c6 v=0
112113 On ch=1 n=c7 v=0
112113 On ch=1 n=a#6 v=109
112113 On ch=1 n=a#5 v=109
112218 On ch=1 n=a#5 v=0
112218 On ch=1 n=a#6 v=0
112219 On ch=1 n=g#6 v=109
112219 On ch=1 n=g#5 v=109
112324 On ch=1 n=g#5 v=0
112324 On ch=1 n=g#6 v=0
112324 On ch=1 n=b5 v=109
112324 On ch=1 n=b4 v=109
112418 On ch=1 n=b4 v=0
112418 On ch=1 n=b5 v=0
112419 On ch=1 n=c6 v=107
112419 On ch=1 n=c5 v=107
112520 On ch=1 n=c5 v=0
112520 On ch=1 n=c6 v=0
112521 On ch=1 n=c#6 v=107
112521 On ch=1 n=c#5 v=107
112622 On ch=1 n=c#5 v=0
112622 On ch=1 n=c#6 v=0
112623 On ch=1 n=d6 v=107
112623 On ch=1 n=d5 v=107
112720 Par ch=1 c=64 v=0
112785 On ch=1 n=d5 v=0
112785 On ch=1 n=d6 v=0
112785 On ch=1 n=d#6 v=119
112785 On ch=1 n=d#5 v=119
112792 Par ch=1 c=64 v=127
113121 On ch=1 n=d#5 v=0
113121 On ch=1 n=d#6 v=0
114851 Par ch=1 c=64 v=0
115612 On ch=1 n=c#5 v=90
115774 On ch=1 n=c#5 v=0
115774 On ch=1 n=d#5 v=86
115940 On ch=1 n=d#5 v=0
115941 On ch=1 n=g5 v=76
116103 On ch=1 n=g5 v=0
116104 On ch=1 n=a#5 v=78
116272 On ch=1 n=a#5 v=0
116272 On ch=1 n=c#6 v=78
116444 On ch=1 n=c#6 v=0
116445 On ch=1 n=f6 v=75
116723 Par ch=1 c=64 v=127
117202 On ch=1 n=f6 v=0
117203 On ch=1 n=d#6 v=68
117383 On ch=1 n=d#6 v=0
117383 On ch=1 n=a5 v=68
117563 On ch=1 n=a5 v=0
117564 On ch=1 n=a#5 v=71
117742 Par ch=1 c=64 v=0
117743 On ch=1 n=a#5 v=0
117743 On ch=1 n=f6 v=70
117837 Par ch=1 c=64 v=127
118268 On ch=1 n=f6 v=0
118268 On ch=1 n=f6 v=71
118442 On ch=1 n=f6 v=0
118443 On ch=1 n=b5 v=70
118609 On ch=1 n=b5 v=0
118609 On ch=1 n=c6 v=68
118690 Par ch=1 c=64 v=0
118784 On ch=1 n=c6 v=0
118785 On ch=1 n=g#6 v=67
118875 Par ch=1 c=64 v=127
119495 On ch=1 n=g#6 v=0
119495 On ch=1 n=g6 v=66
119768 Par ch=1 c=64 v=0
119888 On ch=1 n=g6 v=0
119889 On ch=1 n=a#6 v=59
120099 On ch=1 n=a#6 v=0
120102 Par ch=1 c=64 v=127
120535 Par ch=1 c=64 v=0
120954 Par ch=1 c=64 v=127
122037 Par ch=1 c=64 v=0
122051 Par ch=1 c=64 v=127
123219 Par ch=1 c=64 v=0
123228 Par ch=1 c=64 v=127
124406 Par ch=1 c=64 v=0
124420 Par ch=1 c=64 v=127
125637 Par ch=1 c=64 v=0
125643 Par ch=1 c=64 v=127
126821 Par ch=1 c=64 v=0
126833 Par ch=1 c=64 v=127
127986 Par ch=1 c=64 v=0
127991 Par ch=1 c=64 v=127
129150 Par ch=1 c=64 v=0
129159 Par ch=1 c=64 v=127
130330 Par ch=1 c=64 v=0
130336 Par ch=1 c=64 v=127
131541 Par ch=1 c=64 v=0
131547 Par ch=1 c=64 v=127
132730 Par ch=1 c=64 v=0
140254 On ch=1 n=d#6 v=54
140350 On ch=1 n=d#6 v=0
140351 On ch=1 n=f6 v=54
140448 On ch=1 n=f6 v=0
140448 On ch=1 n=d#6 v=54
140557 On ch=1 n=d#6 v=0
140558 On ch=1 n=d6 v=63
140659 On ch=1 n=d6 v=0
140659 On ch=1 n=d#6 v=63
140745 On ch=1 n=d#6 v=0
140745 On ch=1 n=c7 v=52
141027 On ch=1 n=c7 v=0
141027 On ch=1 n=g6 v=56
141291 On ch=1 n=g6 v=0
141294 Par ch=1 c=64 v=127
141534 On ch=1 n=a#6 v=52
142066 On ch=1 n=a#6 v=0
142067 On ch=1 n=g#6 v=47
142326 On ch=1 n=g#6 v=0
142327 On ch=1 n=c6 v=49
142581 On ch=1 n=c6 v=0
142581 On ch=1 n=c#6 v=54
142829 On ch=1 n=c#6 v=0
143090 On ch=1 n=f6 v=53
143618 On ch=1 n=f6 v=0
143618 On ch=1 n=d#6 v=52
143873 On ch=1 n=d#6 v=0
143873 On ch=1 n=c#6 v=51
144124 On ch=1 n=c#6 v=0
144125 On ch=1 n=c6 v=59
144373 Par ch=1 c=64 v=0
144395 On ch=1 n=c6 v=0
144398 Par ch=1 c=64 v=127
144644 On ch=1 n=c6 v=57
145157 On ch=1 n=c6 v=0
145158 On ch=1 n=a#5 v=63
145158 On ch=1 n=a#5 v=63
145418 On ch=1 n=a#5 v=0
145418 On ch=1 n=a#5 v=0
145418 On ch=1 n=a5 v=50
145659 On ch=1 n=a5 v=0
145660 On ch=1 n=a#5 v=60
145900 On ch=1 n=a#5 v=0
145900 On ch=1 n=a5 v=60
145960 On ch=1 n=a5 v=0
145960 On ch=1 n=a#5 v=60
146020 On ch=1 n=a#5 v=0
146020 On ch=1 n=c6 v=60
146080 On ch=1 n=c6 v=0
146080 On ch=1 n=a#5 v=60
146141 On ch=1 n=a#5 v=0
146142 On ch=1 n=c6 v=57
146202 On ch=1 n=c6 v=0
146202 On ch=1 n=a#5 v=57
146262 On ch=1 n=a#5 v=0
146262 On ch=1 n=c6 v=57
146322 On ch=1 n=c6 v=0
146323 On ch=1 n=a#5 v=57
146390 On ch=1 n=a#5 v=0
146391 On ch=1 n=c6 v=54
146453 On ch=1 n=c6 v=0
146453 On ch=1 n=a#5 v=54
146515 On ch=1 n=a#5 v=0
146516 On ch=1 n=c6 v=54
146578 On ch=1 n=c6 v=0
146578 On ch=1 n=a#5 v=54
146638 On ch=1 n=a#5 v=0
146638 On ch=1 n=c6 v=62
146699 On ch=1 n=c6 v=0
146700 On ch=1 n=a#5 v=62
146762 On ch=1 n=a#5 v=0
146762 On ch=1 n=c6 v=62
146823 On ch=1 n=c6 v=0
146824 On ch=1 n=a#5 v=62
146872 On ch=1 n=a#5 v=0
146873 On ch=1 n=a5 v=60
146931 On ch=1 n=a5 v=0
146931 On ch=1 n=a#5 v=60
146989 On ch=1 n=a#5 v=0
146989 On ch=1 n=c#6 v=60
147048 On ch=1 n=c#6 v=0
147049 On ch=1 n=d6 v=60
147118 On ch=1 n=d6 v=0
147118 On ch=1 n=e6 v=64
147179 On ch=1 n=e6 v=0
147180 On ch=1 n=f6 v=64
147241 On ch=1 n=f6 v=0
147241 On ch=1 n=g6 v=64
147301 On ch=1 n=g6 v=0
147302 On ch=1 n=g#6 v=64
147362 On ch=1 n=g#6 v=0
147363 On ch=1 n=a6 v=62
147424 On ch=1 n=a6 v=0
147424 On ch=1 n=a#6 v=62
147484 On ch=1 n=a#6 v=0
147485 On ch=1 n=c#7 v=62
147546 On ch=1 n=c#7 v=0
147547 On ch=1 n=d7 v=62
147604 Par ch=1 c=64 v=0
147620 On ch=1 n=d7 v=0
147623 Par ch=1 c=64 v=127
147881 On ch=1 n=f7 v=54
148401 On ch=1 n=f7 v=0
148401 On ch=1 n=d#7 v=57
148663 On ch=1 n=d#7 v=0
148664 On ch=1 n=c#7 v=60
148926 On ch=1 n=c#7 v=0
148926 On ch=1 n=a#6 v=58
149182 On ch=1 n=a#6 v=0
149436 On ch=1 n=f6 v=59
149949 On ch=1 n=f6 v=0
149950 On ch=1 n=d#6 v=58
150205 On ch=1 n=d#6 v=0
150205 On ch=1 n=c#6 v=53
150466 On ch=1 n=c#6 v=0
150466 On ch=1 n=a#5 v=58
150724 Par ch=1 c=64 v=0
150730 On ch=1 n=a#5 v=0
150731 On ch=1 n=g5 v=58
150735 Par ch=1 c=64 v=127
150973 On ch=1 n=g5 v=0
150973 On ch=1 n=g#5 v=63
151235 On ch=1 n=g#5 v=0
151235 On ch=1 n=c6 v=61
151492 On ch=1 n=c6 v=0
151493 On ch=1 n=d#6 v=56
151758 On ch=1 n=d#6 v=0
151758 On ch=1 n=g6 v=54
151890 On ch=1 n=g6 v=0
151890 On ch=1 n=g#6 v=54
151998 On ch=1 n=g#6 v=0
151999 On ch=1 n=c7 v=60
152079 On ch=1 n=c7 v=0
152080 On ch=1 n=d#7 v=60
152160 On ch=1 n=d#7 v=0
152160 On ch=1 n=c8 v=60
152255 On ch=1 n=c8 v=0
152256 On ch=1 n=g#7 v=56
152778 On ch=1 n=g#7 v=0
153214 On ch=1 n=d#6 v=56
153285 On ch=1 n=d#6 v=0
153285 On ch=1 n=f6 v=53
153349 On ch=1 n=f6 v=0
153349 On ch=1 n=d#6 v=53
153412 On ch=1 n=d#6 v=0
153413 On ch=1 n=d6 v=53
153477 On ch=1 n=d6 v=0
153478 On ch=1 n=d#6 v=53
153529 On ch=1 n=d#6 v=0
153529 On ch=1 n=c7 v=58
153794 On ch=1 n=c7 v=0
153795 On ch=1 n=g6 v=60
154047 Par ch=1 c=64 v=0
154052 On ch=1 n=g6 v=0
154054 Par ch=1 c=64 v=127
154320 On ch=1 n=a#6 v=51
154853 On ch=1 n=a#6 v=0
154854 On ch=1 n=g#6 v=53
155119 On ch=1 n=g#6 v=0
155119 On ch=1 n=c6 v=50
155389 On ch=1 n=c6 v=0
155390 On ch=1 n=c#6 v=53
155650 On ch=1 n=c#6 v=0
155904 On ch=1 n=f6 v=63
156422 On ch=1 n=f6 v=0
156423 On ch=1 n=d#6 v=59
156679 On ch=1 n=d#6 v=0
156680 On ch=1 n=c#6 v=54
156944 On ch=1 n=c#6 v=0
156944 On ch=1 n=c6 v=56
157205 Par ch=1 c=64 v=0
157215 On ch=1 n=c6 v=0
157506 On ch=1 n=c6 v=48
157511 Par ch=1 c=64 v=127
158020 On ch=1 n=c6 v=0
158021 On ch=1 n=a#5 v=56
158280 On ch=1 n=a#5 v=0
158281 On ch=1 n=a5 v=61
158549 On ch=1 n=a5 v=0
158549 On ch=1 n=a#5 v=57
158812 On ch=1 n=a#5 v=0
158813 On ch=1 n=a5 v=56
158879 On ch=1 n=a5 v=0
158879 On ch=1 n=a#5 v=56
158944 On ch=1 n=a#5 v=0
158945 On ch=1 n=c6 v=56
159011 On ch=1 n=c6 v=0
159011 On ch=1 n=a#5 v=56
159037 On ch=1 n=a#5 v=0
159037 On ch=1 n=c6 v=61
159093 On ch=1 n=c6 v=0
159093 On ch=1 n=a#5 v=61
159149 On ch=1 n=a#5 v=0
159149 On ch=1 n=c6 v=61
159205 On ch=1 n=c6 v=0
159205 On ch=1 n=a#5 v=61
159310 On ch=1 n=a#5 v=0
159310 On ch=1 n=c6 v=54
159378 On ch=1 n=c6 v=0
159379 On ch=1 n=a#5 v=54
159446 On ch=1 n=a#5 v=0
159447 On ch=1 n=c6 v=54
159515 On ch=1 n=c6 v=0
159515 On ch=1 n=a#5 v=54
159548 On ch=1 n=a#5 v=0
159549 On ch=1 n=c6 v=61
159609 On ch=1 n=c6 v=0
159609 On ch=1 n=a#5 v=61
159668 On ch=1 n=a#5 v=0
159668 On ch=1 n=c6 v=61
159728 On ch=1 n=c6 v=0
159728 On ch=1 n=a#5 v=61
159784 On ch=1 n=a#5 v=0
159784 On ch=1 n=a5 v=54
159842 On ch=1 n=a5 v=0
159842 On ch=1 n=a#5 v=54
159901 On ch=1 n=a#5 v=0
159901 On ch=1 n=c#6 v=54
159959 On ch=1 n=c#6 v=0
159960 On ch=1 n=d6 v=54
160033 On ch=1 n=d6 v=0
160033 On ch=1 n=e6 v=60
160095 On ch=1 n=e6 v=0
160096 On ch=1 n=f6 v=60
160158 On ch=1 n=f6 v=0
160158 On ch=1 n=g6 v=60
160220 On ch=1 n=g6 v=0
160220 On ch=1 n=g#6 v=60
160288 On ch=1 n=g#6 v=0
160289 On ch=1 n=a6 v=58
160352 On ch=1 n=a6 v=0
160353 On ch=1 n=a#6 v=58
160416 On ch=1 n=a#6 v=0
160417 On ch=1 n=c#7 v=58
160480 On ch=1 n=c#7 v=0
160481 On ch=1 n=d7 v=58
160541 Par ch=1 c=64 v=0
160552 On ch=1 n=d7 v=0
160801 On ch=1 n=f7 v=53
160805 Par ch=1 c=64 v=127
161337 On ch=1 n=f7 v=0
161337 On ch=1 n=d#7 v=58
161596 On ch=1 n=d#7 v=0
161596 On ch=1 n=c7 v=56
161858 On ch=1 n=c7 v=0
161859 On ch=1 n=g#6 v=50
162118 Par ch=1 c=64 v=0
162128 On ch=1 n=g#6 v=0
162383 On ch=1 n=f6 v=51
162388 Par ch=1 c=64 v=127
162910 On ch=1 n=f6 v=0
162910 On ch=1 n=d#6 v=57
163169 On ch=1 n=d#6 v=0
163170 On ch=1 n=c#6 v=57
163436 On ch=1 n=c#6 v=0
163437 On ch=1 n=a#5 v=51
163698 Par ch=1 c=64 v=0
163700 On ch=1 n=a#5 v=0
163701 On ch=1 n=g5 v=53
163705 Par ch=1 c=64 v=127
163961 On ch=1 n=g5 v=0
163961 On ch=1 n=g#5 v=49
164217 On ch=1 n=g#5 v=0
164218 On ch=1 n=c6 v=54
164479 On ch=1 n=c6 v=0
164479 On ch=1 n=d#6 v=53
164763 On ch=1 n=d#6 v=0
164763 On ch=1 n=g6 v=51
164905 On ch=1 n=g6 v=0
164905 On ch=1 n=g#6 v=51
165059 On ch=1 n=g#6 v=0
165060 On ch=1 n=c7 v=47
165158 On ch=1 n=c7 v=0
165159 On ch=1 n=f7 v=47
165257 On ch=1 n=f7 v=0
165257 On ch=1 n=c8 v=47
165393 On ch=1 n=c8 v=0
165394 On ch=1 n=g#7 v=47
166003 Par ch=1 c=64 v=0
166005 On ch=1 n=g#7 v=0
167255 On ch=1 n=f5 v=57
167259 Par ch=1 c=64 v=127
168128 On ch=1 n=f5 v=0
168129 On ch=1 n=e5 v=51
168405 On ch=1 n=e5 v=0
168405 On ch=1 n=f5 v=58
168679 On ch=1 n=f5 v=0
168680 On ch=1 n=e5 v=60
168948 On ch=1 n=e5 v=0
168948 On ch=1 n=f5 v=64
169218 On ch=1 n=f5 v=0
169218 On ch=1 n=e5 v=69
169484 On ch=1 n=e5 v=0
169484 On ch=1 n=f5 v=72
169756 On ch=1 n=f5 v=0
169757 On ch=1 n=d#5 v=67
170028 On ch=1 n=d#5 v=0
170028 On ch=1 n=c#5 v=66
170302 On ch=1 n=c#5 v=0
170303 On ch=1 n=c5 v=65
170561 Par ch=1 c=64 v=0
170563 On ch=1 n=c5 v=0
170563 On ch=1 n=a#4 v=63
170568 Par ch=1 c=64 v=127
170833 On ch=1 n=a#4 v=0
170833 On ch=1 n=g#4 v=66
171108 On ch=1 n=g#4 v=0
171109 On ch=1 n=g4 v=68
171369 On ch=1 n=g4 v=0
171369 On ch=1 n=g#4 v=65
171639 On ch=1 n=g#4 v=0
171639 On ch=1 n=g4 v=71
171901 On ch=1 n=g4 v=0
171902 On ch=1 n=g#4 v=64
172160 On ch=1 n=g#4 v=0
172161 On ch=1 n=a4 v=68
172429 On ch=1 n=a4 v=0
172430 On ch=1 n=a#4 v=64
172688 On ch=1 n=a#4 v=0
172689 On ch=1 n=b4 v=68
172947 On ch=1 n=b4 v=0
172948 On ch=1 n=c5 v=68
173203 On ch=1 n=c5 v=0
173203 On ch=1 n=c#5 v=65
173455 On ch=1 n=c#5 v=0
173456 On ch=1 n=d5 v=67
173705 Par ch=1 c=64 v=0
173733 On ch=1 n=d5 v=0
173733 On ch=1 n=d#5 v=60
173738 Par ch=1 c=64 v=127
174780 On ch=1 n=d#5 v=0
174781 On ch=1 n=a#4 v=71
175296 On ch=1 n=a#4 v=0
175296 On ch=1 n=f#5 v=69
176091 On ch=1 n=f#5 v=0
176092 On ch=1 n=f5 v=65
176333 On ch=1 n=f5 v=0
176334 On ch=1 n=d#5 v=69
176596 On ch=1 n=d#5 v=0
176596 On ch=1 n=c#5 v=69
176851 Par ch=1 c=64 v=0
176853 On ch=1 n=c#5 v=0
176853 On ch=1 n=c#5 v=71
176858 Par ch=1 c=64 v=127
177622 On ch=1 n=c#5 v=0
177623 On ch=1 n=c5 v=67
177880 On ch=1 n=c5 v=0
177880 On ch=1 n=a#4 v=69
178127 On ch=1 n=a#4 v=0
178128 On ch=1 n=g#4 v=76
178383 On ch=1 n=g#4 v=0
178384 On ch=1 n=g4 v=64
178638 On ch=1 n=g4 v=0
178638 On ch=1 n=g#4 v=67
178884 On ch=1 n=g#4 v=0
178884 On ch=1 n=a4 v=67
179142 On ch=1 n=a4 v=0
179143 On ch=1 n=g#4 v=71
179381 On ch=1 n=g#4 v=0
179381 On ch=1 n=a#4 v=71
179635 On ch=1 n=a#4 v=0
179635 On ch=1 n=g#4 v=67
179886 Par ch=1 c=64 v=0
179901 On ch=1 n=g#4 v=0
179987 On ch=1 n=g#5 v=75
179991 Par ch=1 c=64 v=127
181435 On ch=1 n=g#5 v=0
181436 On ch=1 n=f5 v=80
181956 On ch=1 n=f5 v=0
182458 On ch=1 n=f5 v=77
182957 Par ch=1 c=64 v=0
182958 On ch=1 n=f5 v=0
182959 On ch=1 n=f5 v=83
182963 Par ch=1 c=64 v=127
183720 On ch=1 n=f5 v=0
183721 On ch=1 n=e5 v=78
183974 On ch=1 n=e5 v=0
183974 On ch=1 n=f5 v=82
184225 On ch=1 n=f5 v=0
184226 On ch=1 n=e5 v=88
184477 On ch=1 n=e5 v=0
184477 On ch=1 n=f5 v=88
184733 On ch=1 n=f5 v=0
184734 On ch=1 n=e5 v=87
184988 On ch=1 n=e5 v=0
184988 On ch=1 n=f5 v=86
185239 On ch=1 n=f5 v=0
185239 On ch=1 n=f#5 v=88
185495 On ch=1 n=f#5 v=0
185496 On ch=1 n=f5 v=82
185746 On ch=1 n=f5 v=0
185746 On ch=1 n=d#5 v=86
185992 Par ch=1 c=64 v=0
185997 On ch=1 n=d#5 v=0
185998 On ch=1 n=d#5 v=93
186002 Par ch=1 c=64 v=127
186748 On ch=1 n=d#5 v=0
186748 On ch=1 n=c5 v=91
186999 On ch=1 n=c5 v=0
186999 On ch=1 n=d#5 v=92
187248 On ch=1 n=d#5 v=0
187249 On ch=1 n=c#5 v=92
187494 Par ch=1 c=64 v=0
187506 On ch=1 n=c#5 v=0
187506 On ch=1 n=f5 v=97
187511 Par ch=1 c=64 v=127
188261 On ch=1 n=f5 v=0
188262 On ch=1 n=d#5 v=95
188503 On ch=1 n=d#5 v=0
188503 On ch=1 n=f5 v=94
188753 On ch=1 n=f5 v=0
188754 On ch=1 n=e5 v=96
189000 Par ch=1 c=64 v=0
189008 On ch=1 n=e5 v=0
189008 On ch=1 n=g5 v=104
189013 Par ch=1 c=64 v=127
189764 On ch=1 n=g5 v=0
189764 On ch=1 n=f5 v=100
190015 Par ch=1 c=64 v=0
190022 On ch=1 n=f5 v=0
190022 On ch=1 n=g#5 v=108
190284 On ch=1 n=g#5 v=0
190285 On ch=1 n=g5 v=104
190548 On ch=1 n=g5 v=0
190549 On ch=1 n=a#5 v=109
190811 On ch=1 n=a#5 v=0
190812 On ch=1 n=g#5 v=109
191082 On ch=1 n=g#5 v=0
191083 On ch=1 n=c6 v=109
191364 On ch=1 n=c6 v=0
191364 On ch=1 n=a#5 v=109
191651 On ch=1 n=a#5 v=0
191652 On ch=1 n=f6 v=110
191949 On ch=1 n=f6 v=0
191949 On ch=1 n=b5 v=111
192275 On ch=1 n=b5 v=0
192276 On ch=1 n=c6 v=123
192898 On ch=1 n=c6 v=0
194003 Par ch=1 c=64 v=127
194683 Par ch=1 c=64 v=0
194683 On ch=1 n=c#6 v=111
194773 Par ch=1 c=64 v=127
195204 On ch=1 n=c#6 v=0
195204 On ch=1 n=c6 v=102
195395 On ch=1 n=c6 v=0
195396 On ch=1 n=f#5 v=100
195572 On ch=1 n=f#5 v=0
195572 On ch=1 n=g5 v=101
195748 On ch=1 n=g5 v=0
195748 Par ch=1 c=64 v=0
195749 On ch=1 n=d#6 v=101
195841 Par ch=1 c=64 v=127
196336 On ch=1 n=d#6 v=0
196337 On ch=1 n=c#6 v=97
196508 On ch=1 n=c#6 v=0
196508 On ch=1 n=g#5 v=97
196684 On ch=1 n=g#5 v=0
196684 On ch=1 n=a#5 v=99
196870 On ch=1 n=a#5 v=0
196870 On ch=1 n=c6 v=107
197053 Par ch=1 c=64 v=0
197054 On ch=1 n=c6 v=0
198730 On ch=1 n=c#7 v=111
198808 Par ch=1 c=64 v=127
199175 On ch=1 n=c#7 v=0
199176 On ch=1 n=c7 v=111
199327 On ch=1 n=c7 v=0
199327 On ch=1 n=f#6 v=111
199484 On ch=1 n=f#6 v=0
199484 On ch=1 n=g6 v=111
199639 Par ch=1 c=64 v=0
199659 On ch=1 n=g6 v=0
199659 On ch=1 n=d#7 v=113
199663 Par ch=1 c=64 v=127
200016 On ch=1 n=b5 v=111
200202 On ch=1 n=d#7 v=0
200203 On ch=1 n=b5 v=0
200203 On ch=1 n=c7 v=115
200372 On ch=1 n=c7 v=0
200372 On ch=1 n=g7 v=117
200372 On ch=1 n=g6 v=117
200544 On ch=1 n=g6 v=0
200544 On ch=1 n=g7 v=0
200544 On ch=1 n=b5 v=121
200544 On ch=1 n=f5 v=121
200544 On ch=1 n=c#5 v=121
200714 Par ch=1 c=64 v=0
200743 On ch=1 n=c#5 v=0
200743 On ch=1 n=f5 v=0
200743 On ch=1 n=b5 v=0
200744 On ch=1 n=c6 v=127
200744 On ch=1 n=e5 v=127
200744 On ch=1 n=c5 v=127
200921 On ch=1 n=c5 v=0
200921 On ch=1 n=e5 v=0
200921 On ch=1 n=c6 v=0
202081 Par ch=1 c=64 v=127
203394 Par ch=1 c=64 v=0
204389 Par ch=1 c=64 v=127
205851 Par ch=1 c=64 v=0
206739 Par ch=1 c=64 v=127
207734 Par ch=1 c=64 v=0
208142 Par ch=1 c=64 v=127
208937 Par ch=1 c=64 v=0
209365 Par ch=1 c=64 v=127
210151 Par ch=1 c=64 v=0
210567 Par ch=1 c=64 v=127
211405 Par ch=1 c=64 v=0
211862 Par ch=1 c=64 v=127
212790 Par ch=1 c=64 v=0
212798 Par ch=1 c=64 v=127
214192 Par ch=1 c=64 v=0
214198 Par ch=1 c=64 v=127
215631 Par ch=1 c=64 v=0
215639 Par ch=1 c=64 v=127
217082 Par ch=1 c=64 v=0
217089 Par ch=1 c=64 v=127
218424 Par ch=1 c=64 v=0
218431 Par ch=1 c=64 v=127
219595 Par ch=1 c=64 v=0
219603 Par ch=1 c=64 v=127
221001 Par ch=1 c=64 v=0
221064 Par ch=1 c=64 v=127
222549 Par ch=1 c=64 v=127
222598 Par ch=1 c=64 v=0
222598 Par ch=1 c=64 v=0
232556 On ch=1 n=f6 v=44
232677 On ch=1 n=f6 v=0
232678 On ch=1 n=d#6 v=44
232738 On ch=1 n=d#6 v=0
232738 On ch=1 n=f6 v=44
232785 On ch=1 n=f6 v=0
232786 On ch=1 n=d#6 v=42
232843 On ch=1 n=d#6 v=0
232843 On ch=1 n=f6 v=42
232899 On ch=1 n=f6 v=0
232900 On ch=1 n=d#6 v=42
232957 On ch=1 n=d#6 v=0
232958 On ch=1 n=f6 v=42
233029 On ch=1 n=f6 v=0
233030 On ch=1 n=d#6 v=36
233090 On ch=1 n=d#6 v=0
233091 On ch=1 n=f6 v=36
233152 On ch=1 n=f6 v=0
233152 On ch=1 n=d#6 v=36
233212 On ch=1 n=d#6 v=0
233213 On ch=1 n=f6 v=36
233273 On ch=1 n=f6 v=0
233274 On ch=1 n=d#6 v=39
233334 On ch=1 n=d#6 v=0
233334 On ch=1 n=f6 v=39
233395 On ch=1 n=f6 v=0
233396 On ch=1 n=d#6 v=39
233456 On ch=1 n=d#6 v=0
233457 On ch=1 n=f6 v=39
233504 On ch=1 n=f6 v=0
233504 On ch=1 n=d#6 v=44
233561 On ch=1 n=d#6 v=0
233562 On ch=1 n=f6 v=44
233619 On ch=1 n=f6 v=0
233619 On ch=1 n=d#6 v=44
233676 On ch=1 n=d#6 v=0
233677 On ch=1 n=f6 v=44
233744 On ch=1 n=f6 v=0
233744 On ch=1 n=d#6 v=43
233804 On ch=1 n=d#6 v=0
233804 On ch=1 n=f6 v=43
233864 On ch=1 n=f6 v=0
233864 On ch=1 n=d#6 v=43
233924 On ch=1 n=d#6 v=0
233924 On ch=1 n=f6 v=43
233962 On ch=1 n=f6 v=0
233963 On ch=1 n=d#6 v=47
234017 On ch=1 n=d#6 v=0
234017 On ch=1 n=f6 v=47
234071 On ch=1 n=f6 v=0
234072 On ch=1 n=d#6 v=47
234127 On ch=1 n=d#6 v=0
234127 On ch=1 n=f6 v=47
234207 On ch=1 n=f6 v=0
234208 On ch=1 n=d#6 v=47
234269 On ch=1 n=d#6 v=0
234269 On ch=1 n=f6 v=47
234329 On ch=1 n=f6 v=0
234330 On ch=1 n=d#6 v=47
234391 On ch=1 n=d#6 v=0
234392 On ch=1 n=d6 v=47
234439 On ch=1 n=d6 v=0
234439 On ch=1 n=d#6 v=55
234496 On ch=1 n=d#6 v=0
234497 On ch=1 n=c7 v=55
234663 On ch=1 n=c7 v=0
234663 On ch=1 n=g6 v=64
234903 On ch=1 n=g6 v=0
234905 Par ch=1 c=64 v=127
235141 On ch=1 n=d#5 v=73
235201 On ch=1 n=d#5 v=0
235201 On ch=1 n=c6 v=73
235261 On ch=1 n=c6 v=0
235261 On ch=1 n=a#6 v=73
235643 On ch=1 n=a#6 v=0
235643 On ch=1 n=g#6 v=74
235901 On ch=1 n=g#6 v=0
235901 On ch=1 n=c6 v=74
236167 On ch=1 n=c6 v=0
236167 On ch=1 n=c#6 v=69
236423 On ch=1 n=c#6 v=0
236651 On ch=1 n=d#5 v=76
236708 On ch=1 n=d#5 v=0
236709 On ch=1 n=g#5 v=76
236765 On ch=1 n=g#5 v=0
236766 On ch=1 n=f6 v=76
237152 On ch=1 n=f6 v=0
237153 On ch=1 n=d#6 v=70
237412 On ch=1 n=d#6 v=0
237412 On ch=1 n=c#6 v=68
237667 On ch=1 n=c#6 v=0
237667 On ch=1 n=c6 v=70
237899 Par ch=1 c=64 v=0
237902 On ch=1 n=c6 v=0
238156 On ch=1 n=d5 v=67
238161 Par ch=1 c=64 v=127
238219 On ch=1 n=d5 v=0
238220 On ch=1 n=f5 v=67
238283 On ch=1 n=f5 v=0
238284 On ch=1 n=c6 v=67
238642 On ch=1 n=c6 v=0
238642 On ch=1 n=a#5 v=68
238891 On ch=1 n=a#5 v=0
238892 On ch=1 n=a5 v=67
239136 On ch=1 n=a5 v=0
239136 On ch=1 n=a#5 v=71
239370 On ch=1 n=a#5 v=0
239371 On ch=1 n=a5 v=72
239429 On ch=1 n=a5 v=0
239429 On ch=1 n=a#5 v=72
239487 On ch=1 n=a#5 v=0
239488 On ch=1 n=c6 v=72
239547 On ch=1 n=c6 v=0
239547 On ch=1 n=a#5 v=72
239602 On ch=1 n=a#5 v=0
239602 On ch=1 n=c6 v=75
239659 On ch=1 n=c6 v=0
239660 On ch=1 n=a#5 v=75
239717 On ch=1 n=a#5 v=0
239718 On ch=1 n=c6 v=75
239776 On ch=1 n=c6 v=0
239776 On ch=1 n=a#5 v=75
239819 On ch=1 n=a#5 v=0
239819 On ch=1 n=c6 v=74
239873 On ch=1 n=c6 v=0
239874 On ch=1 n=a#5 v=74
239927 On ch=1 n=a#5 v=0
239928 On ch=1 n=c6 v=74
239982 On ch=1 n=c6 v=0
239982 On ch=1 n=a#5 v=74
240038 On ch=1 n=a#5 v=0
240039 On ch=1 n=a5 v=73
240093 On ch=1 n=a5 v=0
240093 On ch=1 n=a#5 v=73
240148 On ch=1 n=a#5 v=0
240149 On ch=1 n=c#6 v=73
240203 On ch=1 n=c#6 v=0
240203 On ch=1 n=d6 v=73
240269 On ch=1 n=d6 v=0
240269 On ch=1 n=e6 v=74
240326 On ch=1 n=e6 v=0
240327 On ch=1 n=f6 v=74
240384 On ch=1 n=f6 v=0
240385 On ch=1 n=g6 v=74
240442 On ch=1 n=g6 v=0
240442 On ch=1 n=g#6 v=74
240487 On ch=1 n=g#6 v=0
240487 On ch=1 n=a6 v=78
240541 On ch=1 n=a6 v=0
240542 On ch=1 n=a#6 v=78
240596 On ch=1 n=a#6 v=0
240596 On ch=1 n=c#7 v=78
240650 On ch=1 n=c#7 v=0
240651 On ch=1 n=d7 v=78
240701 Par ch=1 c=64 v=0
240726 On ch=1 n=d7 v=0
240953 On ch=1 n=c#6 v=74
240957 Par ch=1 c=64 v=127
241009 On ch=1 n=c#6 v=0
241010 On ch=1 n=g6 v=74
241096 On ch=1 n=g6 v=0
241096 On ch=1 n=f7 v=74
241478 On ch=1 n=f7 v=0
241478 On ch=1 n=d#7 v=72
241715 On ch=1 n=d#7 v=0
241716 On ch=1 n=c#7 v=76
241960 On ch=1 n=c#7 v=0
241960 On ch=1 n=a#6 v=74
242217 On ch=1 n=a#6 v=0
242448 On ch=1 n=c#5 v=74
242506 On ch=1 n=c#5 v=0
242506 On ch=1 n=g5 v=74
242565 On ch=1 n=g5 v=0
242565 On ch=1 n=f6 v=74
242927 On ch=1 n=f6 v=0
242928 On ch=1 n=d#6 v=65
243165 On ch=1 n=d#6 v=0
243165 On ch=1 n=c#6 v=71
243400 On ch=1 n=c#6 v=0
243400 On ch=1 n=a#5 v=70
243603 Par ch=1 c=64 v=0
243610 On ch=1 n=a#5 v=0
243610 On ch=1 n=g5 v=70
243614 Par ch=1 c=64 v=127
243849 On ch=1 n=g5 v=0
243850 On ch=1 n=g#5 v=69
244097 On ch=1 n=g#5 v=0
244097 On ch=1 n=c6 v=71
244343 On ch=1 n=c6 v=0
244343 On ch=1 n=d#6 v=65
244580 On ch=1 n=d#6 v=0
244581 On ch=1 n=g6 v=71
244700 On ch=1 n=g6 v=0
244700 On ch=1 n=g#6 v=71
244827 On ch=1 n=g#6 v=0
244827 On ch=1 n=c7 v=69
244909 On ch=1 n=c7 v=0
244909 On ch=1 n=d#7 v=69
244991 On ch=1 n=d#7 v=0
244991 On ch=1 n=c8 v=69
245067 On ch=1 n=c8 v=0
245068 On ch=1 n=g#7 v=67
245576 On ch=1 n=g#7 v=0
245999 On ch=1 n=d#6 v=67
246029 On ch=1 n=d#6 v=0
246029 On ch=1 n=f6 v=74
246081 On ch=1 n=f6 v=0
246082 On ch=1 n=d#6 v=74
246134 On ch=1 n=d#6 v=0
246135 On ch=1 n=d6 v=74
246187 On ch=1 n=d6 v=0
246188 On ch=1 n=d#6 v=74
246239 On ch=1 n=d#6 v=0
246239 On ch=1 n=b6 v=73
246396 On ch=1 n=b6 v=0
246396 On ch=1 n=c7 v=73
246456 On ch=1 n=c7 v=0
246457 On ch=1 n=f#6 v=72
246620 On ch=1 n=f#6 v=0
246621 On ch=1 n=g6 v=72
246671 Par ch=1 c=64 v=0
246696 On ch=1 n=g6 v=0
246700 Par ch=1 c=64 v=127
246951 On ch=1 n=d#5 v=69
247014 On ch=1 n=d#5 v=0
247015 On ch=1 n=c6 v=69
247078 On ch=1 n=c6 v=0
247079 On ch=1 n=a#6 v=69
247469 On ch=1 n=a#6 v=0
247469 On ch=1 n=g#6 v=65
247710 On ch=1 n=g#6 v=0
247711 On ch=1 n=c6 v=71
247957 On ch=1 n=c6 v=0
247957 On ch=1 n=c#6 v=67
248212 On ch=1 n=c#6 v=0
248444 On ch=1 n=d#5 v=70
248502 On ch=1 n=d#5 v=0
248502 On ch=1 n=g#5 v=70
248560 On ch=1 n=g#5 v=0
248560 On ch=1 n=f6 v=70
248844 On ch=1 n=f6 v=0
248845 On ch=1 n=e6 v=64
248993 On ch=1 n=e6 v=0
248993 On ch=1 n=d#6 v=69
249121 On ch=1 n=d#6 v=0
249122 On ch=1 n=d6 v=72
249259 On ch=1 n=d6 v=0
249259 On ch=1 n=c#6 v=72
249450 On ch=1 n=c#6 v=0
249450 On ch=1 n=c6 v=73
249610 Par ch=1 c=64 v=0
249619 On ch=1 n=c6 v=0
249858 On ch=1 n=g#4 v=65
249862 Par ch=1 c=64 v=127
249918 On ch=1 n=g#4 v=0
249918 On ch=1 n=f5 v=65
249977 On ch=1 n=f5 v=0
249978 On ch=1 n=c6 v=65
250340 On ch=1 n=c6 v=0
250340 On ch=1 n=b5 v=64
250572 On ch=1 n=b5 v=0
250573 On ch=1 n=a#5 v=66
250825 On ch=1 n=a#5 v=0
250825 On ch=1 n=a5 v=63
250948 Par ch=1 c=64 v=0
250951 On ch=1 n=a5 v=0
250952 On ch=1 n=c6 v=63
251048 On ch=1 n=c6 v=0
251048 On ch=1 n=b5 v=69
251159 On ch=1 n=b5 v=0
251159 On ch=1 n=a#5 v=69
251275 On ch=1 n=a#5 v=0
251275 On ch=1 n=a5 v=64
251279 Par ch=1 c=64 v=127
251331 On ch=1 n=a5 v=0
251332 On ch=1 n=a#5 v=64
251388 On ch=1 n=a#5 v=0
251389 On ch=1 n=c6 v=64
251445 On ch=1 n=c6 v=0
251446 On ch=1 n=a#5 v=64
251510 On ch=1 n=a#5 v=0
251511 On ch=1 n=c6 v=67
251569 On ch=1 n=c6 v=0
251569 On ch=1 n=a#5 v=67
251628 On ch=1 n=a#5 v=0
251628 On ch=1 n=c6 v=67
251686 On ch=1 n=c6 v=0
251687 On ch=1 n=a#5 v=67
251742 On ch=1 n=a#5 v=0
251742 On ch=1 n=c6 v=69
251799 On ch=1 n=c6 v=0
251800 On ch=1 n=a#5 v=69
251857 On ch=1 n=a#5 v=0
251857 On ch=1 n=c6 v=69
251915 On ch=1 n=c6 v=0
251916 On ch=1 n=a#5 v=69
251979 On ch=1 n=a#5 v=0
251979 On ch=1 n=c6 v=69
252038 On ch=1 n=c6 v=0
252038 On ch=1 n=a#5 v=69
252097 On ch=1 n=a#5 v=0
252097 On ch=1 n=c6 v=69
252156 On ch=1 n=c6 v=0
252156 On ch=1 n=a#5 v=69
252197 On ch=1 n=a#5 v=0
252198 On ch=1 n=a5 v=69
252252 On ch=1 n=a5 v=0
252253 On ch=1 n=a#5 v=69
252308 On ch=1 n=a#5 v=0
252308 On ch=1 n=b5 v=69
252362 On ch=1 n=b5 v=0
252363 On ch=1 n=c6 v=69
252426 On ch=1 n=c6 v=0
252426 On ch=1 n=c#6 v=71
252482 On ch=1 n=c#6 v=0
252483 On ch=1 n=d6 v=71
252539 On ch=1 n=d6 v=0
252540 On ch=1 n=d#6 v=71
252597 On ch=1 n=d#6 v=0
252598 On ch=1 n=e6 v=71
252646 On ch=1 n=e6 v=0
252646 On ch=1 n=f6 v=72
252700 On ch=1 n=f6 v=0
252700 On ch=1 n=f#6 v=72
252755 On ch=1 n=f#6 v=0
252756 On ch=1 n=g6 v=72
252810 On ch=1 n=g6 v=0
252810 On ch=1 n=g#6 v=72
252870 On ch=1 n=g#6 v=0
252871 On ch=1 n=a6 v=81
252927 On ch=1 n=a6 v=0
252927 On ch=1 n=a#6 v=81
252983 On ch=1 n=a#6 v=0
252983 On ch=1 n=b6 v=81
253039 On ch=1 n=b6 v=0
253040 On ch=1 n=c7 v=81
253057 Par ch=1 c=64 v=0
253060 On ch=1 n=c7 v=0
253276 On ch=1 n=d#7 v=107
253276 On ch=1 n=d#6 v=107
253279 Par ch=1 c=64 v=127
253511 On ch=1 n=a#6 v=109
253511 On ch=1 n=f#6 v=109
253720 On ch=1 n=f#6 v=0
253720 On ch=1 n=a#6 v=0
253720 On ch=1 n=d#6 v=0
253720 On ch=1 n=d#7 v=0
253720 On ch=1 n=c#7 v=109
253720 On ch=1 n=c6 v=109
253934 On ch=1 n=c6 v=0
253934 On ch=1 n=c#7 v=0
253935 On ch=1 n=a#6 v=109
253935 On ch=1 n=a#5 v=109
254158 On ch=1 n=a#5 v=0
254158 On ch=1 n=a#6 v=0
254159 On ch=1 n=f#6 v=109
254159 On ch=1 n=f#5 v=109
254376 Par ch=1 c=64 v=0
254380 On ch=1 n=f#5 v=0
254380 On ch=1 n=f#6 v=0
254590 On ch=1 n=d#6 v=109
254590 On ch=1 n=d#5 v=109
254595 Par ch=1 c=64 v=127
255040 On ch=1 n=d#5 v=0
255040 On ch=1 n=d#6 v=0
255041 On ch=1 n=d6 v=109
255041 On ch=1 n=d5 v=109
255469 On ch=1 n=d5 v=0
255469 On ch=1 n=d6 v=0
255470 On ch=1 n=c#6 v=109
255470 On ch=1 n=c#5 v=109
255685 Par ch=1 c=64 v=0
255695 On ch=1 n=c#5 v=0
255695 On ch=1 n=c#6 v=0
255896 On ch=1 n=g#7 v=109
255896 On ch=1 n=g#6 v=109
255899 Par ch=1 c=64 v=127
256114 On ch=1 n=c#7 v=109
256114 On ch=1 n=a#6 v=109
256317 On ch=1 n=a#6 v=0
256317 On ch=1 n=c#7 v=0
256317 On ch=1 n=g#6 v=0
256317 On ch=1 n=g#7 v=0
256318 On ch=1 n=f#7 v=109
256318 On ch=1 n=f#6 v=109
256520 On ch=1 n=f#6 v=0
256520 On ch=1 n=f#7 v=0
256520 On ch=1 n=c#7 v=109
256520 On ch=1 n=c#6 v=109
256727 On ch=1 n=c#6 v=0
256727 On ch=1 n=c#7 v=0
256728 On ch=1 n=a#6 v=109
256728 On ch=1 n=a#5 v=109
256931 Par ch=1 c=64 v=0
256945 On ch=1 n=a#5 v=0
256945 On ch=1 n=a#6 v=0
257143 On ch=1 n=a#6 v=109
257143 On ch=1 n=a#5 v=109
257148 Par ch=1 c=64 v=127
257570 On ch=1 n=a#5 v=0
257570 On ch=1 n=a#6 v=0
257570 On ch=1 n=a6 v=109
257570 On ch=1 n=a5 v=109
257982 On ch=1 n=a5 v=0
257982 On ch=1 n=a6 v=0
257983 On ch=1 n=g#6 v=109
257983 On ch=1 n=g#5 v=109
258176 Par ch=1 c=64 v=0
258204 On ch=1 n=g#5 v=0
258204 On ch=1 n=g#6 v=0
258414 On ch=1 n=f7 v=117
258414 On ch=1 n=c7 v=117
258414 On ch=1 n=g#6 v=117
258414 On ch=1 n=f6 v=117
258417 Par ch=1 c=64 v=127
258821 On ch=1 n=f6 v=0
258821 On ch=1 n=g#6 v=0
258821 On ch=1 n=c7 v=0
258821 On ch=1 n=f7 v=0
258821 On ch=1 n=d#7 v=110
258821 On ch=1 n=g#6 v=110
258821 On ch=1 n=d#6 v=110
259027 On ch=1 n=d#6 v=0
259027 On ch=1 n=g#6 v=0
259027 On ch=1 n=d#7 v=0
259027 On ch=1 n=c7 v=122
259027 On ch=1 n=d#6 v=122
259027 On ch=1 n=c6 v=122
259229 On ch=1 n=c6 v=0
259229 On ch=1 n=d#6 v=0
259229 On ch=1 n=c7 v=0
259229 On ch=1 n=g#6 v=122
259229 On ch=1 n=d#6 v=122
259229 On ch=1 n=g#5 v=122
259426 Par ch=1 c=64 v=0
259427 On ch=1 n=g#5 v=0
259427 On ch=1 n=d#6 v=0
259427 On ch=1 n=g#6 v=0
259428 On ch=1 n=f6 v=122
259428 On ch=1 n=a5 v=122
259428 On ch=1 n=f5 v=122
259615 On ch=1 n=f5 v=0
259615 On ch=1 n=a5 v=0
259615 On ch=1 n=f6 v=0
259616 On ch=1 n=d#6 v=122
259616 On ch=1 n=a5 v=122
259616 On ch=1 n=f5 v=122
259619 Par ch=1 c=64 v=127
259816 On ch=1 n=f5 v=0
259816 On ch=1 n=a5 v=0
259816 On ch=1 n=d#6 v=0
259817 On ch=1 n=c6 v=124
259817 On ch=1 n=f5 v=124
260012 On ch=1 n=f5 v=0
260012 On ch=1 n=c6 v=0
260013 On ch=1 n=a5 v=118
260013 On ch=1 n=f5 v=118
260208 On ch=1 n=f5 v=0
260208 On ch=1 n=a5 v=0
260208 On ch=1 n=f#5 v=116
260208 On ch=1 n=d#5 v=116
260208 On ch=1 n=c5 v=116
260412 On ch=1 n=c5 v=0
260412 On ch=1 n=d#5 v=0
260412 On ch=1 n=f#5 v=0
260412 On ch=1 n=f5 v=113
260412 On ch=1 n=d#5 v=113
260412 On ch=1 n=c5 v=113
260613 Par ch=1 c=64 v=0
260621 On ch=1 n=c5 v=0
260621 On ch=1 n=d#5 v=0
260621 On ch=1 n=f5 v=0
260823 On ch=1 n=g7 v=126
260823 On ch=1 n=a#6 v=126
260823 On ch=1 n=g6 v=126
260826 Par ch=1 c=64 v=127
261222 On ch=1 n=g6 v=0
261222 On ch=1 n=a#6 v=0
261222 On ch=1 n=g7 v=0
261222 On ch=1 n=f7 v=120
261222 On ch=1 n=a#6 v=120
261222 On ch=1 n=f6 v=120
261420 On ch=1 n=f6 v=0
261420 On ch=1 n=a#6 v=0
261420 On ch=1 n=f7 v=0
261421 On ch=1 n=c#7 v=121
261421 On ch=1 n=c#6 v=121
261614 On ch=1 n=c#6 v=0
261614 On ch=1 n=c#7 v=0
261614 On ch=1 n=a#6 v=121
261614 On ch=1 n=a#5 v=121
261800 Par ch=1 c=64 v=0
261801 On ch=1 n=a#5 v=0
261801 On ch=1 n=a#6 v=0
261801 On ch=1 n=g6 v=124
261801 On ch=1 n=b5 v=124
261801 On ch=1 n=g5 v=124
261801 On ch=1 n=f5 v=124
261995 On ch=1 n=f5 v=0
261995 On ch=1 n=g5 v=0
261995 On ch=1 n=b5 v=0
261995 On ch=1 n=g6 v=0
261996 On ch=1 n=f6 v=124
261996 On ch=1 n=b5 v=124
261996 On ch=1 n=g5 v=124
261996 On ch=1 n=f5 v=124
261999 Par ch=1 c=64 v=127
262189 On ch=1 n=f5 v=0
262189 On ch=1 n=g5 v=0
262189 On ch=1 n=b5 v=0
262189 On ch=1 n=f6 v=0
262189 On ch=1 n=d6 v=124
262189 On ch=1 n=g5 v=124
262189 On ch=1 n=f5 v=124
262386 On ch=1 n=f5 v=0
262386 On ch=1 n=g5 v=0
262386 On ch=1 n=d6 v=0
262386 On ch=1 n=b5 v=124
262386 On ch=1 n=g5 v=124
262386 On ch=1 n=f5 v=124
262576 On ch=1 n=f5 v=0
262576 On ch=1 n=g5 v=0
262576 On ch=1 n=b5 v=0
262577 On ch=1 n=g#5 v=124
262577 On ch=1 n=f5 v=124
262577 On ch=1 n=d5 v=124
262776 On ch=1 n=d5 v=0
262776 On ch=1 n=f5 v=0
262776 On ch=1 n=g#5 v=0
262776 On ch=1 n=g5 v=124
262776 On ch=1 n=f5 v=124
262776 On ch=1 n=d5 v=124
262972 Par ch=1 c=64 v=0
262975 On ch=1 n=d5 v=0
262975 On ch=1 n=f5 v=0
262975 On ch=1 n=g5 v=0
263169 On ch=1 n=g#7 v=127
263169 On ch=1 n=c7 v=127
263169 On ch=1 n=g#6 v=127
263172 Par ch=1 c=64 v=127
263528 On ch=1 n=g#6 v=0
263528 On ch=1 n=c7 v=0
263528 On ch=1 n=g#7 v=0
263528 On ch=1 n=g7 v=123
263528 On ch=1 n=g6 v=123
263706 On ch=1 n=g6 v=0
263706 On ch=1 n=g7 v=0
263706 On ch=1 n=d#7 v=122
263706 On ch=1 n=d#6 v=122
263882 On ch=1 n=d#6 v=0
263882 On ch=1 n=d#7 v=0
263883 On ch=1 n=c7 v=122
263883 On ch=1 n=c6 v=122
264058 Par ch=1 c=64 v=0
264075 On ch=1 n=c6 v=0
264075 On ch=1 n=c7 v=0
264254 On ch=1 n=a7 v=127
264254 On ch=1 n=a6 v=127
264257 Par ch=1 c=64 v=127
264617 On ch=1 n=a6 v=0
264617 On ch=1 n=a7 v=0
264618 On ch=1 n=g#7 v=121
264618 On ch=1 n=g#6 v=121
264809 On ch=1 n=g#6 v=0
264809 On ch=1 n=g#7 v=0
264809 On ch=1 n=f#7 v=121
264809 On ch=1 n=f#6 v=121
264992 On ch=1 n=f#6 v=0
264992 On ch=1 n=f#7 v=0
264993 On ch=1 n=d#7 v=121
264993 On ch=1 n=d#6 v=121
265174 Par ch=1 c=64 v=0
265193 On ch=1 n=d#6 v=0
265193 On ch=1 n=d#7 v=0
265409 On ch=1 n=a7 v=127
265409 On ch=1 n=e7 v=127
265409 On ch=1 n=c#7 v=127
265409 On ch=1 n=a6 v=127
265413 Par ch=1 c=64 v=127
265859 On ch=1 n=a6 v=0
265859 On ch=1 n=c#7 v=0
265859 On ch=1 n=e7 v=0
265859 On ch=1 n=a7 v=0
265860 On ch=1 n=g#7 v=127
265860 On ch=1 n=g#6 v=127
266094 On ch=1 n=g#6 v=0
266094 On ch=1 n=g#7 v=0
266095 On ch=1 n=e8 v=127
266095 On ch=1 n=e7 v=127
266319 On ch=1 n=e7 v=0
266319 On ch=1 n=e8 v=0
266319 On ch=1 n=d#8 v=127
266319 On ch=1 n=d#7 v=127
266529 On ch=1 n=d#7 v=0
266529 On ch=1 n=d#8 v=0
266530 On ch=1 n=c#8 v=127
266530 On ch=1 n=c#7 v=127
266734 On ch=1 n=c#7 v=0
266734 On ch=1 n=c#8 v=0
266734 On ch=1 n=b7 v=127
266734 On ch=1 n=b6 v=127
266936 On ch=1 n=b6 v=0
266936 On ch=1 n=b7 v=0
266937 On ch=1 n=a7 v=126
266937 On ch=1 n=a6 v=126
267135 On ch=1 n=a6 v=0
267135 On ch=1 n=a7 v=0
267135 On ch=1 n=g#7 v=126
267135 On ch=1 n=g#6 v=126
267322 On ch=1 n=g#6 v=0
267322 On ch=1 n=g#7 v=0
267323 On ch=1 n=f#7 v=127
267323 On ch=1 n=f#6 v=127
267506 On ch=1 n=f#6 v=0
267506 On ch=1 n=f#7 v=0
267507 On ch=1 n=e7 v=127
267507 On ch=1 n=e6 v=127
267682 On ch=1 n=e6 v=0
267682 On ch=1 n=e7 v=0
267682 On ch=1 n=d#7 v=124
267682 On ch=1 n=d#6 v=124
267861 On ch=1 n=d#6 v=0
267861 On ch=1 n=d#7 v=0
267861 On ch=1 n=e7 v=124
267861 On ch=1 n=e6 v=124
268035 On ch=1 n=e6 v=0
268035 On ch=1 n=e7 v=0
268036 On ch=1 n=c7 v=124
268036 On ch=1 n=c6 v=124
268219 On ch=1 n=c6 v=0
268219 On ch=1 n=c7 v=0
268219 On ch=1 n=c#7 v=124
268219 On ch=1 n=c6 v=124
268398 On ch=1 n=c6 v=0
268398 On ch=1 n=c#7 v=0
268398 On ch=1 n=g6 v=124
268398 On ch=1 n=g5 v=124
268581 On ch=1 n=g5 v=0
268581 On ch=1 n=g6 v=0
268581 On ch=1 n=g#6 v=127
268581 On ch=1 n=g#5 v=127
268766 On ch=1 n=g#5 v=0
268766 On ch=1 n=g#6 v=0
268767 On ch=1 n=a6 v=126
268767 On ch=1 n=g5 v=126
268890 On ch=1 n=g5 v=0
268890 On ch=1 n=a6 v=0
268891 On ch=1 n=a#6 v=126
268891 On ch=1 n=a#5 v=126
269028 On ch=1 n=a#5 v=0
269028 On ch=1 n=a#6 v=0
269028 On ch=1 n=b6 v=127
269028 On ch=1 n=b5 v=127
269145 On ch=1 n=b5 v=0
269145 On ch=1 n=b6 v=0
269146 On ch=1 n=c7 v=127
269146 On ch=1 n=c6 v=127
269237 On ch=1 n=c6 v=0
269237 On ch=1 n=c7 v=0
269238 On ch=1 n=c#7 v=127
269238 On ch=1 n=c#6 v=127
269340 On ch=1 n=c#6 v=0
269340 On ch=1 n=c#7 v=0
269340 On ch=1 n=d7 v=127
269340 On ch=1 n=d6 v=127
269436 On ch=1 n=d6 v=0
269436 On ch=1 n=d7 v=0
269436 On ch=1 n=d#7 v=127
269436 On ch=1 n=d#6 v=127
269547 On ch=1 n=d#6 v=0
269547 On ch=1 n=d#7 v=0
269548 On ch=1 n=f#7 v=127
269548 On ch=1 n=f#6 v=127
269735 Par ch=1 c=64 v=0
269738 On ch=1 n=f#6 v=0
269738 On ch=1 n=f#7 v=0
269831 On ch=1 n=e7 v=127
269831 On ch=1 n=e6 v=127
269940 On ch=1 n=e6 v=0
269940 On ch=1 n=e7 v=0
269941 On ch=1 n=e7 v=127
269941 On ch=1 n=e6 v=127
270143 Par ch=1 c=64 v=127
270569 On ch=1 n=e6 v=0
270569 On ch=1 n=e7 v=0
270569 On ch=1 n=c#7 v=117
270792 On ch=1 n=c#7 v=0
270793 On ch=1 n=g6 v=113
271006 On ch=1 n=g6 v=0
271007 On ch=1 n=g#6 v=112
271216 Par ch=1 c=64 v=0
271218 On ch=1 n=g#6 v=0
271218 On ch=1 n=g#6 v=114
271270 On ch=1 n=g#6 v=0
271271 On ch=1 n=b6 v=114
271431 Par ch=1 c=64 v=127
271640 On ch=1 n=b6 v=0
271641 On ch=1 n=a#6 v=112
271868 On ch=1 n=a#6 v=0
271868 On ch=1 n=c#6 v=112
272084 On ch=1 n=c#6 v=0
272084 On ch=1 n=d6 v=110
272285 On ch=1 n=d6 v=0
272286 On ch=1 n=d#6 v=109
272483 Par ch=1 c=64 v=0
272493 On ch=1 n=d#6 v=0
272493 On ch=1 n=d#6 v=107
272545 On ch=1 n=d#6 v=0
272546 On ch=1 n=f#6 v=107
272739 Par ch=1 c=64 v=127
272816 On ch=1 n=f#6 v=0
272816 On ch=1 n=e6 v=107
272966 On ch=1 n=e6 v=0
272966 On ch=1 n=g5 v=107
273119 On ch=1 n=g5 v=0
273120 On ch=1 n=g#5 v=107
273276 On ch=1 n=g#5 v=0
273277 On ch=1 n=a5 v=107
273439 On ch=1 n=a5 v=0
273439 On ch=1 n=a5 v=107
273499 On ch=1 n=a5 v=0
273499 On ch=1 n=b5 v=107
273559 On ch=1 n=b5 v=0
273559 On ch=1 n=a#5 v=107
273675 Par ch=1 c=64 v=0
273703 On ch=1 n=a#5 v=0
273969 On ch=1 n=d#5 v=92
274036 On ch=1 n=d#5 v=0
274036 On ch=1 n=f#5 v=92
274103 On ch=1 n=f#5 v=0
274103 On ch=1 n=e5 v=92
274274 On ch=1 n=e5 v=0
274552 On ch=1 n=g#4 v=80
274622 On ch=1 n=g#4 v=0
274622 On ch=1 n=b4 v=80
274692 On ch=1 n=b4 v=0
274692 On ch=1 n=a#4 v=80
274847 On ch=1 n=a#4 v=0
275127 On ch=1 n=d#4 v=87
275198 On ch=1 n=d#4 v=0
275198 On ch=1 n=f#4 v=87
275268 On ch=1 n=f#4 v=0
275268 On ch=1 n=e4 v=87
275388 On ch=1 n=e4 v=0
275652 On ch=1 n=a#3 v=86
275718 On ch=1 n=a#3 v=0
275718 On ch=1 n=c#4 v=86
275784 On ch=1 n=c#4 v=0
275785 On ch=1 n=a#3 v=86
275924 On ch=1 n=a#3 v=0
283133 Par ch=1 c=64 v=127
283176 On ch=1 n=c6 v=70
283979 On ch=1 n=c6 v=0
283980 On ch=1 n=b5 v=64
284287 On ch=1 n=b5 v=0
284287 On ch=1 n=c6 v=61
284553 On ch=1 n=c6 v=0
284553 On ch=1 n=b5 v=61
284841 On ch=1 n=b5 v=0
284842 On ch=1 n=c6 v=63
285134 On ch=1 n=c6 v=0
285135 On ch=1 n=b5 v=61
285427 On ch=1 n=b5 v=0
285427 On ch=1 n=c6 v=59
285700 On ch=1 n=c6 v=0
285701 On ch=1 n=a#5 v=61
286006 On ch=1 n=a#5 v=0
286007 On ch=1 n=g#5 v=61
286301 On ch=1 n=g#5 v=0
286301 On ch=1 n=g5 v=61
286583 Par ch=1 c=64 v=0
286586 On ch=1 n=g5 v=0
286586 On ch=1 n=f5 v=60
286870 On ch=1 n=f5 v=0
286871 On ch=1 n=d#5 v=64
286875 Par ch=1 c=64 v=127
287171 On ch=1 n=d#5 v=0
287171 On ch=1 n=d5 v=61
287437 On ch=1 n=d5 v=0
287437 On ch=1 n=d#5 v=61
287714 On ch=1 n=d#5 v=0
287715 On ch=1 n=d5 v=59
287990 On ch=1 n=d5 v=0
287990 On ch=1 n=d#5 v=63
288272 On ch=1 n=d#5 v=0
288273 On ch=1 n=e5 v=61
288531 On ch=1 n=e5 v=0
288532 On ch=1 n=f5 v=65
288800 On ch=1 n=f5 v=0
288800 On ch=1 n=f#5 v=65
289072 On ch=1 n=f#5 v=0
289072 On ch=1 n=g5 v=68
289343 On ch=1 n=g5 v=0
289344 On ch=1 n=g#5 v=67
289610 On ch=1 n=g#5 v=0
289611 On ch=1 n=a5 v=69
289874 Par ch=1 c=64 v=0
289883 On ch=1 n=a5 v=0
289883 On ch=1 n=a#5 v=67
290167 Par ch=1 c=64 v=127
290981 On ch=1 n=a#5 v=0
290981 On ch=1 n=f5 v=67
291516 Par ch=1 c=64 v=0
291547 On ch=1 n=f5 v=0
291547 On ch=1 n=c#6 v=67
291552 Par ch=1 c=64 v=127
292377 On ch=1 n=c#6 v=0
292378 On ch=1 n=c6 v=64
292651 On ch=1 n=c6 v=0
292652 On ch=1 n=a#5 v=66
292899 On ch=1 n=a#5 v=0
292900 On ch=1 n=g#5 v=66
293144 Par ch=1 c=64 v=0
293166 On ch=1 n=g#5 v=0
293166 On ch=1 n=g#5 v=63
293436 Par ch=1 c=64 v=127
293972 On ch=1 n=g#5 v=0
293972 On ch=1 n=g5 v=63
294233 On ch=1 n=g5 v=0
294233 On ch=1 n=e5 v=67
294487 On ch=1 n=e5 v=0
294487 On ch=1 n=d#5 v=65
294750 On ch=1 n=d#5 v=0
294751 On ch=1 n=d5 v=61
295028 On ch=1 n=d5 v=0
295029 On ch=1 n=d#5 v=65
295294 On ch=1 n=d#5 v=0
295294 On ch=1 n=e5 v=65
295545 On ch=1 n=e5 v=0
295545 On ch=1 n=d#5 v=67
295819 On ch=1 n=d#5 v=0
295820 On ch=1 n=g5 v=71
295957 On ch=1 n=g5 v=0
295957 On ch=1 n=f5 v=71
296077 On ch=1 n=f5 v=0
296077 On ch=1 n=d#5 v=69
296331 Par ch=1 c=64 v=0
296351 On ch=1 n=d#5 v=0
296352 On ch=1 n=d#6 v=75
296632 Par ch=1 c=64 v=127
297432 Par ch=1 c=64 v=0
297439 Par ch=1 c=64 v=127
297972 On ch=1 n=d#6 v=0
297972 On ch=1 n=d6 v=65
298231 Par ch=1 c=64 v=0
298238 Par ch=1 c=64 v=127
299068 Par ch=1 c=64 v=0
299075 Par ch=1 c=64 v=127
299597 Par ch=1 c=64 v=0
299599 On ch=1 n=d6 v=0
299600 On ch=1 n=c#6 v=61
299871 Par ch=1 c=64 v=127
300740 Par ch=1 c=64 v=0
300747 Par ch=1 c=64 v=127
301338 Par ch=1 c=64 v=0
301340 On ch=1 n=c#6 v=0
301341 On ch=1 n=c6 v=55
301650 Par ch=1 c=64 v=127
302570 Par ch=1 c=64 v=0
302578 Par ch=1 c=64 v=127
303176 Par ch=1 c=64 v=0
303178 On ch=1 n=c6 v=0
303179 On ch=1 n=b5 v=59
303507 Par ch=1 c=64 v=127
305118 On ch=1 n=b5 v=0
305118 On ch=1 n=b5 v=53
305826 On ch=1 n=b5 v=0
305827 On ch=1 n=b5 v=50
306540 Par ch=1 c=64 v=0
306543 On ch=1 n=b5 v=0
306543 On ch=1 n=b5 v=57
307256 On ch=1 n=b5 v=0
307257 On ch=1 n=b5 v=57
307263 Par ch=1 c=64 v=127
307921 Par ch=1 c=64 v=0
307961 On ch=1 n=b5 v=0
307961 On ch=1 n=a#5 v=59
307968 Par ch=1 c=64 v=127
308673 On ch=1 n=a#5 v=0
308674 On ch=1 n=g#5 v=55
309417 On ch=1 n=g#5 v=0
309418 On ch=1 n=g#5 v=55
310133 Par ch=1 c=64 v=0
310174 On ch=1 n=g#5 v=0
310174 On ch=1 n=f#5 v=53
310181 Par ch=1 c=64 v=127
310918 On ch=1 n=f#5 v=0
310919 On ch=1 n=e5 v=55
311680 Par ch=1 c=64 v=0
311683 On ch=1 n=e5 v=0
311683 On ch=1 n=c4 v=60
311689 Par ch=1 c=64 v=127
311777 On ch=1 n=g#4 v=60
311871 On ch=1 n=d#5 v=60
312444 Par ch=1 c=64 v=0
312449 On ch=1 n=d#5 v=0
312449 On ch=1 n=g#4 v=0
312449 On ch=1 n=c4 v=0
315495 Par ch=1 c=64 v=127
319183 Par ch=1 c=64 v=0
322988 Par ch=1 c=64 v=127
326321 Par ch=1 c=64 v=0
326473 Par ch=1 c=64 v=127
328111 Par ch=1 c=64 v=0
328132 Par ch=1 c=64 v=127
329811 Par ch=1 c=64 v=0
329823 Par ch=1 c=64 v=127
331368 Par ch=1 c=64 v=0
331376 Par ch=1 c=64 v=127
332928 Par ch=1 c=64 v=0
332984 Par ch=1 c=64 v=127
345379 Par ch=1 c=64 v=0
346078 Par ch=1 c=64 v=127
347562 Par ch=1 c=64 v=0
347568 Par ch=1 c=64 v=127
348187 Par ch=1 c=64 v=0
348809 On ch=1 n=d#5 v=32
348813 Par ch=1 c=64 v=127
348885 On ch=1 n=g#5 v=32
348960 On ch=1 n=d#6 v=32
349428 Par ch=1 c=64 v=0
349431 On ch=1 n=d#6 v=0
349431 On ch=1 n=d#5 v=0
349432 On ch=1 n=g#5 v=0
349432 On ch=1 n=d#5 v=34
349436 Par ch=1 c=64 v=127
349508 On ch=1 n=g#5 v=34
349586 On ch=1 n=c#6 v=34
350083 Par ch=1 c=64 v=0
350107 On ch=1 n=c#6 v=0
350107 On ch=1 n=g#5 v=0
350107 On ch=1 n=d#5 v=0
350107 On ch=1 n=d#5 v=31
350113 Par ch=1 c=64 v=127
350194 On ch=1 n=g#5 v=31
350281 On ch=1 n=c6 v=31
351618 Par ch=1 c=64 v=0
351619 On ch=1 n=c6 v=0
351619 On ch=1 n=g#5 v=0
351619 On ch=1 n=d#5 v=0
351619 Meta TrkEnd
TrkEnd
MTrk
0 SeqSpec 43 00 01 00
0 Meta TrkName "2 Melodie main gauche"
0 PrCh ch=2 p=0
0 Par ch=2 c=91 v=15
0 Par ch=2 c=93 v=0
0 Par ch=2 c=10 v=67
0 Par ch=2 c=7 v=110
1443 On ch=2 n=d#4 v=67
1506 On ch=2 n=d#4 v=0
1506 On ch=2 n=d#4 v=67
1611 On ch=2 n=d#4 v=0
1612 On ch=2 n=f4 v=67
1774 On ch=2 n=f4 v=0
1774 On ch=2 n=d#4 v=69
1933 On ch=2 n=d#4 v=0
1934 On ch=2 n=d4 v=77
2192 On ch=2 n=d4 v=0
2193 On ch=2 n=d#4 v=77
2451 On ch=2 n=d#4 v=0
2451 On ch=2 n=g4 v=70
2623 On ch=2 n=g4 v=0
2623 On ch=2 n=a#4 v=70
2723 On ch=2 n=a#4 v=0
2723 On ch=2 n=c#5 v=78
2880 On ch=2 n=c#5 v=0
2881 On ch=2 n=f5 v=79
3616 On ch=2 n=f5 v=0
3616 On ch=2 n=d#5 v=57
3860 On ch=2 n=d#5 v=0
3861 On ch=2 n=a4 v=60
4106 On ch=2 n=a4 v=0
4106 On ch=2 n=a#4 v=57
4346 On ch=2 n=a#4 v=0
4346 On ch=2 n=c#5 v=67
5079 On ch=2 n=c#5 v=0
5080 On ch=2 n=c5 v=62
5313 On ch=2 n=c5 v=0
5313 On ch=2 n=e4 v=64
5537 On ch=2 n=e4 v=0
5538 On ch=2 n=f4 v=67
5778 On ch=2 n=f4 v=0
5778 On ch=2 n=g#4 v=63
7105 On ch=2 n=g#4 v=0
7105 On ch=2 n=g4 v=55
7202 On ch=2 n=g4 v=0
7364 On ch=2 n=a#4 v=67
8592 On ch=2 n=a#4 v=0
8592 On ch=2 n=a#4 v=62
8595 Par ch=2 c=64 v=127
9860 On ch=2 n=a#4 v=0
9861 On ch=2 n=a#4 v=73
9958 On ch=2 n=a#4 v=0
9959 On ch=2 n=a#4 v=80
10044 On ch=2 n=a#4 v=0
10044 On ch=2 n=b4 v=80
10129 On ch=2 n=b4 v=0
10129 On ch=2 n=a#4 v=80
10203 On ch=2 n=a#4 v=0
10203 On ch=2 n=a4 v=77
10285 On ch=2 n=a4 v=0
10286 On ch=2 n=a#4 v=77
10382 On ch=2 n=a#4 v=0
10382 On ch=2 n=g#5 v=76
11102 On ch=2 n=g#5 v=0
11102 On ch=2 n=f#5 v=80
11181 Par ch=2 c=64 v=0
11182 On ch=2 n=f#5 v=0
11182 On ch=2 n=f#5 v=90
11186 Par ch=2 c=64 v=127
12400 On ch=2 n=f#5 v=0
12401 On ch=2 n=d#5 v=67
13042 On ch=2 n=d#5 v=0
13436 On ch=2 n=b4 v=73
13617 Par ch=2 c=64 v=0
13618 On ch=2 n=b4 v=0
13618 On ch=2 n=a#4 v=79
13621 Par ch=2 c=64 v=127
14776 On ch=2 n=a#4 v=0
14777 On ch=2 n=a#4 v=62
14862 On ch=2 n=a#4 v=0
14862 On ch=2 n=a#4 v=68
14939 On ch=2 n=a#4 v=0
14940 On ch=2 n=b4 v=68
15017 On ch=2 n=b4 v=0
15017 On ch=2 n=a#4 v=68
15106 On ch=2 n=a#4 v=0
15106 On ch=2 n=a4 v=66
15187 On ch=2 n=a4 v=0
15188 On ch=2 n=a#4 v=66
15274 On ch=2 n=a#4 v=0
15274 On ch=2 n=e5 v=59
15566 On ch=2 n=e5 v=0
15567 On ch=2 n=d#5 v=59
15984 On ch=2 n=d#5 v=0
15984 On ch=2 n=d#5 v=63
16119 Par ch=2 c=64 v=0
16139 On ch=2 n=d#5 v=0
16140 Par ch=2 c=64 v=127
16140 On ch=2 n=c#5 v=56
17381 On ch=2 n=c#5 v=0
17382 On ch=2 n=c5 v=58
17482 Par ch=2 c=64 v=0
17516 On ch=2 n=c5 v=0
17516 Par ch=2 c=64 v=127
17516 On ch=2 n=b4 v=52
18203 On ch=2 n=b4 v=0
18203 On ch=2 n=b4 v=56
18668 On ch=2 n=b4 v=0
18668 On ch=2 n=b4 v=53
18896 Par ch=2 c=64 v=0
18914 On ch=2 n=b4 v=0
18919 Par ch=2 c=64 v=127
19170 On ch=2 n=b4 v=56
20888 On ch=2 n=b4 v=0
20889 On ch=2 n=a4 v=56
21114 On ch=2 n=a4 v=0
21115 On ch=2 n=g#4 v=60
21332 On ch=2 n=g#4 v=0
21333 On ch=2 n=a4 v=61
21532 On ch=2 n=a4 v=0
21533 On ch=2 n=d#4 v=65
21723 On ch=2 n=d#4 v=0
21723 On ch=2 n=e4 v=63
21951 On ch=2 n=e4 v=0
21952 On ch=2 n=c4 v=58
22156 On ch=2 n=c4 v=0
22156 On ch=2 n=c#4 v=57
22347 On ch=2 n=c#4 v=0
22347 On ch=2 n=e4 v=63
22529 On ch=2 n=e4 v=0
22530 On ch=2 n=g#4 v=66
22721 On ch=2 n=g#4 v=0
22722 On ch=2 n=c#5 v=61
22883 On ch=2 n=c#5 v=0
22883 On ch=2 n=e5 v=66
23047 On ch=2 n=e5 v=0
23048 On ch=2 n=a5 v=60
23214 On ch=2 n=a5 v=0
23214 On ch=2 n=c#6 v=61
23375 Par ch=2 c=64 v=0
23382 On ch=2 n=c#6 v=0
23382 On ch=2 n=e6 v=68
23551 On ch=2 n=e6 v=0
23552 On ch=2 n=c#7 v=68
23729 On ch=2 n=c#7 v=0
23730 On ch=2 n=g#6 v=70
23940 On ch=2 n=g#6 v=0
23940 On ch=2 n=b6 v=57
24570 On ch=2 n=b6 v=0
24571 On ch=2 n=a6 v=63
24764 On ch=2 n=a6 v=0
24765 On ch=2 n=d6 v=63
24963 On ch=2 n=d6 v=0
24964 On ch=2 n=d#6 v=61
25167 On ch=2 n=d#6 v=0
25167 On ch=2 n=f#6 v=61
25839 On ch=2 n=f#6 v=0
25840 On ch=2 n=e6 v=61
26056 On ch=2 n=e6 v=0
26056 On ch=2 n=d#6 v=57
26269 On ch=2 n=d#6 v=0
26269 On ch=2 n=c#6 v=55
26522 On ch=2 n=c#6 v=0
28369 Par ch=2 c=64 v=127
32067 Par ch=2 c=64 v=0
46722 Par ch=2 c=64 v=127
49973 Par ch=2 c=64 v=0
50225 Par ch=2 c=64 v=127
52658 Par ch=2 c=64 v=0
53069 Par ch=2 c=64 v=127
54796 Par ch=2 c=64 v=0
57922 Par ch=2 c=64 v=127
60987 Par ch=2 c=64 v=0
61012 Par ch=2 c=64 v=127
64242 Par ch=2 c=64 v=0
64266 Par ch=2 c=64 v=127
67360 Par ch=2 c=64 v=0
67367 Par ch=2 c=64 v=127
70418 Par ch=2 c=64 v=0
70489 Par ch=2 c=64 v=127
73569 Par ch=2 c=64 v=0
73595 Par ch=2 c=64 v=127
76747 Par ch=2 c=64 v=0
76752 Par ch=2 c=64 v=127
78287 Par ch=2 c=64 v=0
78307 Par ch=2 c=64 v=127
79855 Par ch=2 c=64 v=0
79861 Par ch=2 c=64 v=127
82197 Par ch=2 c=64 v=0
83250 Par ch=2 c=64 v=127
84768 Par ch=2 c=64 v=0
84774 Par ch=2 c=64 v=127
86287 Par ch=2 c=64 v=0
86299 Par ch=2 c=64 v=127
87788 Par ch=2 c=64 v=0
87799 Par ch=2 c=64 v=127
89160 Par ch=2 c=64 v=0
89192 Par ch=2 c=64 v=127
90639 Par ch=2 c=64 v=0
90645 Par ch=2 c=64 v=127
92127 Par ch=2 c=64 v=0
92141 Par ch=2 c=64 v=127
93553 Par ch=2 c=64 v=0
100147 Par ch=2 c=64 v=127
102547 Par ch=2 c=64 v=0
102573 Par ch=2 c=64 v=127
106176 Par ch=2 c=64 v=0
106225 Par ch=2 c=64 v=127
109417 Par ch=2 c=64 v=0
109447 Par ch=2 c=64 v=127
110927 Par ch=2 c=64 v=0
110964 Par ch=2 c=64 v=127
112720 Par ch=2 c=64 v=0
112792 Par ch=2 c=64 v=127
113457 On ch=2 n=d#4 v=93
113541 On ch=2 n=d#4 v=0
113541 On ch=2 n=e4 v=93
113625 On ch=2 n=e4 v=0
113625 On ch=2 n=d#4 v=93
113672 On ch=2 n=d#4 v=0
113673 On ch=2 n=e4 v=93
113748 On ch=2 n=e4 v=0
113749 On ch=2 n=d#4 v=88
113787 On ch=2 n=d#4 v=0
113787 On ch=2 n=e4 v=88
113853 On ch=2 n=e4 v=0
113854 On ch=2 n=d#4 v=88
113898 On ch=2 n=d#4 v=0
113898 On ch=2 n=e4 v=88
113958 On ch=2 n=e4 v=0
113959 On ch=2 n=d#4 v=88
113997 On ch=2 n=d#4 v=0
113997 On ch=2 n=e4 v=88
114052 On ch=2 n=e4 v=0
114053 On ch=2 n=d#4 v=88
114117 On ch=2 n=d#4 v=0
114117 On ch=2 n=e4 v=88
114174 On ch=2 n=e4 v=0
114175 On ch=2 n=d#4 v=96
114242 On ch=2 n=d#4 v=0
114242 On ch=2 n=e4 v=96
114302 On ch=2 n=e4 v=0
114302 On ch=2 n=d#4 v=96
114358 On ch=2 n=d#4 v=0
114358 On ch=2 n=e4 v=96
114416 On ch=2 n=e4 v=0
114417 On ch=2 n=d#4 v=98
114472 On ch=2 n=d#4 v=0
114472 On ch=2 n=e4 v=98
114529 On ch=2 n=e4 v=0
114529 On ch=2 n=d#4 v=98
114581 On ch=2 n=d#4 v=0
114582 On ch=2 n=e4 v=98
114638 On ch=2 n=e4 v=0
114638 On ch=2 n=d#4 v=98
114688 On ch=2 n=d#4 v=0
114689 On ch=2 n=e4 v=98
114744 On ch=2 n=e4 v=0
114744 On ch=2 n=d#4 v=98
114796 On ch=2 n=d#4 v=0
114797 On ch=2 n=e4 v=98
114851 Par ch=2 c=64 v=0
114863 On ch=2 n=e4 v=0
114863 On ch=2 n=d4 v=98
115082 On ch=2 n=d4 v=0
115083 On ch=2 n=d#4 v=98
115275 On ch=2 n=d#4 v=0
115275 On ch=2 n=g4 v=98
115443 On ch=2 n=g4 v=0
115444 On ch=2 n=a#4 v=98
115612 On ch=2 n=a#4 v=0
116723 Par ch=2 c=64 v=127
117742 Par ch=2 c=64 v=0
117837 Par ch=2 c=64 v=127
118690 Par ch=2 c=64 v=0
118875 Par ch=2 c=64 v=127
119768 Par ch=2 c=64 v=0
120102 Par ch=2 c=64 v=127
120535 Par ch=2 c=64 v=0
120951 On ch=2 n=f5 v=74
120954 Par ch=2 c=64 v=127
121489 On ch=2 n=f5 v=0
121489 On ch=2 n=d#5 v=72
121665 On ch=2 n=d#5 v=0
121665 On ch=2 n=a4 v=71
121852 On ch=2 n=a4 v=0
121853 On ch=2 n=a#4 v=72
122037 Par ch=2 c=64 v=0
122048 On ch=2 n=a#4 v=0
122048 On ch=2 n=f#5 v=66
122051 Par ch=2 c=64 v=127
122634 On ch=2 n=f#5 v=0
122634 On ch=2 n=f5 v=65
122844 On ch=2 n=f5 v=0
122845 On ch=2 n=b4 v=61
123032 On ch=2 n=b4 v=0
123033 On ch=2 n=c5 v=72
123219 Par ch=2 c=64 v=0
123224 On ch=2 n=c5 v=0
123225 On ch=2 n=g#5 v=66
123228 Par ch=2 c=64 v=127
124018 On ch=2 n=g#5 v=0
124018 On ch=2 n=g5 v=69
124406 Par ch=2 c=64 v=0
124416 On ch=2 n=g5 v=0
124417 On ch=2 n=a#5 v=69
124420 Par ch=2 c=64 v=127
125238 On ch=2 n=a#5 v=0
125637 Par ch=2 c=64 v=0
125640 On ch=2 n=g#5 v=88
125643 Par ch=2 c=64 v=127
126428 On ch=2 n=g#5 v=0
126428 On ch=2 n=g5 v=99
126821 Par ch=2 c=64 v=0
126829 On ch=2 n=g5 v=0
126830 On ch=2 n=c#6 v=99
126833 Par ch=2 c=64 v=127
127606 On ch=2 n=c#6 v=0
127986 Par ch=2 c=64 v=0
127988 On ch=2 n=g5 v=99
127991 Par ch=2 c=64 v=127
128034 On ch=2 n=g5 v=0
128034 On ch=2 n=g#5 v=99
128080 On ch=2 n=g#5 v=0
128081 On ch=2 n=a#5 v=99
128127 On ch=2 n=a#5 v=0
128127 On ch=2 n=g#5 v=99
128759 On ch=2 n=g#5 v=0
128760 On ch=2 n=g5 v=97
129150 Par ch=2 c=64 v=0
129156 On ch=2 n=g5 v=0
129156 On ch=2 n=e6 v=106
129159 Par ch=2 c=64 v=127
129917 On ch=2 n=e6 v=0
130330 Par ch=2 c=64 v=0
130336 Par ch=2 c=64 v=127
131541 Par ch=2 c=64 v=0
131547 Par ch=2 c=64 v=127
132730 Par ch=2 c=64 v=0
141294 Par ch=2 c=64 v=127
144373 Par ch=2 c=64 v=0
144398 Par ch=2 c=64 v=127
147604 Par ch=2 c=64 v=0
147623 Par ch=2 c=64 v=127
150724 Par ch=2 c=64 v=0
150735 Par ch=2 c=64 v=127
154047 Par ch=2 c=64 v=0
154054 Par ch=2 c=64 v=127
157208 Par ch=2 c=64 v=0
157514 Par ch=2 c=64 v=127
160544 Par ch=2 c=64 v=0
160808 Par ch=2 c=64 v=127
162121 Par ch=2 c=64 v=0
162394 Par ch=2 c=64 v=127
163704 Par ch=2 c=64 v=0
163711 Par ch=2 c=64 v=127
166009 Par ch=2 c=64 v=0
166651 On ch=2 n=g#4 v=47
166732 On ch=2 n=g#4 v=0
166733 On ch=2 n=g#4 v=47
166814 On ch=2 n=g#4 v=0
166814 On ch=2 n=c5 v=47
166896 On ch=2 n=c5 v=0
166896 On ch=2 n=a#4 v=47
166978 On ch=2 n=a#4 v=0
166979 On ch=2 n=g#4 v=41
167260 On ch=2 n=g#4 v=0
167265 Par ch=2 c=64 v=127
170567 Par ch=2 c=64 v=0
170574 Par ch=2 c=64 v=127
173711 Par ch=2 c=64 v=0
173744 Par ch=2 c=64 v=127
176857 Par ch=2 c=64 v=0
176864 Par ch=2 c=64 v=127
179892 Par ch=2 c=64 v=0
179997 Par ch=2 c=64 v=127
182963 Par ch=2 c=64 v=0
182969 Par ch=2 c=64 v=127
185998 Par ch=2 c=64 v=0
186008 Par ch=2 c=64 v=127
187500 Par ch=2 c=64 v=0
187517 Par ch=2 c=64 v=127
189006 Par ch=2 c=64 v=0
189016 Par ch=2 c=64 v=127
190018 Par ch=2 c=64 v=0
192898 On ch=2 n=c4 v=111
193041 On ch=2 n=c4 v=0
193042 On ch=2 n=c#4 v=111
193103 On ch=2 n=c#4 v=0
193104 On ch=2 n=c4 v=111
193106 On ch=2 n=c4 v=0
193106 On ch=2 n=c#4 v=111
193158 On ch=2 n=c#4 v=0
193158 On ch=2 n=c4 v=111
193210 On ch=2 n=c4 v=0
193210 On ch=2 n=c#4 v=111
193262 On ch=2 n=c#4 v=0
193262 On ch=2 n=c4 v=111
193288 On ch=2 n=c4 v=0
193289 On ch=2 n=c#4 v=108
193335 On ch=2 n=c#4 v=0
193336 On ch=2 n=c4 v=108
193381 On ch=2 n=c4 v=0
193381 On ch=2 n=c#4 v=108
193426 On ch=2 n=c#4 v=0
193427 On ch=2 n=c4 v=108
193453 On ch=2 n=c4 v=0
193454 On ch=2 n=c#4 v=108
193495 On ch=2 n=c#4 v=0
193495 On ch=2 n=c4 v=108
193536 On ch=2 n=c4 v=0
193537 On ch=2 n=c#4 v=108
193578 On ch=2 n=c#4 v=0
193578 On ch=2 n=c4 v=108
193631 On ch=2 n=c4 v=0
193632 On ch=2 n=c#4 v=111
193677 On ch=2 n=c#4 v=0
193677 On ch=2 n=c4 v=111
193721 On ch=2 n=c4 v=0
193721 On ch=2 n=c#4 v=111
193765 On ch=2 n=c#4 v=0
193765 On ch=2 n=c4 v=111
193822 On ch=2 n=c4 v=0
193823 On ch=2 n=c#4 v=107
193870 On ch=2 n=c#4 v=0
193870 On ch=2 n=c4 v=107
193917 On ch=2 n=c4 v=0
193917 On ch=2 n=c#4 v=107
193964 On ch=2 n=c#4 v=0
193965 On ch=2 n=c4 v=107
194002 On ch=2 n=c4 v=0
194003 On ch=2 n=b3 v=111
194006 Par ch=2 c=64 v=127
194093 On ch=2 n=b3 v=0
194094 On ch=2 n=c4 v=111
194197 On ch=2 n=c4 v=0
194197 On ch=2 n=e4 v=111
194293 On ch=2 n=e4 v=0
194293 On ch=2 n=g4 v=111
194356 On ch=2 n=g4 v=0
194356 On ch=2 n=a#4 v=111
194419 On ch=2 n=a#4 v=0
194420 On ch=2 n=c5 v=111
194484 On ch=2 n=c5 v=0
194485 On ch=2 n=e5 v=111
194545 On ch=2 n=e5 v=0
194545 On ch=2 n=g5 v=111
194608 On ch=2 n=g5 v=0
194608 On ch=2 n=a#5 v=111
194686 Par ch=2 c=64 v=0
194687 On ch=2 n=a#5 v=0
194776 Par ch=2 c=64 v=127
195751 Par ch=2 c=64 v=0
195844 Par ch=2 c=64 v=127
197056 Par ch=2 c=64 v=0
197194 On ch=2 n=c4 v=110
197194 On ch=2 n=c3 v=110
197227 On ch=2 n=c3 v=0
197227 On ch=2 n=c4 v=0
197227 On ch=2 n=c#4 v=106
197227 On ch=2 n=c#3 v=106
197270 On ch=2 n=c#3 v=0
197270 On ch=2 n=c#4 v=0
197271 On ch=2 n=c4 v=106
197271 On ch=2 n=c3 v=106
197313 On ch=2 n=c3 v=0
197313 On ch=2 n=c4 v=0
197313 On ch=2 n=c#4 v=106
197313 On ch=2 n=c#3 v=106
197356 On ch=2 n=c#3 v=0
197356 On ch=2 n=c#4 v=0
197357 On ch=2 n=c4 v=106
197357 On ch=2 n=c3 v=106
197365 On ch=2 n=c3 v=0
197365 On ch=2 n=c4 v=0
197365 On ch=2 n=c#4 v=109
197365 On ch=2 n=c#3 v=109
197399 On ch=2 n=c#3 v=0
197399 On ch=2 n=c#4 v=0
197400 On ch=2 n=c4 v=109
197400 On ch=2 n=c3 v=109
197433 On ch=2 n=c3 v=0
197433 On ch=2 n=c4 v=0
197434 On ch=2 n=c#4 v=109
197434 On ch=2 n=c#3 v=109
197468 On ch=2 n=c#3 v=0
197468 On ch=2 n=c#4 v=0
197469 On ch=2 n=c4 v=109
197469 On ch=2 n=c3 v=109
197511 On ch=2 n=c3 v=0
197511 On ch=2 n=c4 v=0
197511 On ch=2 n=c#4 v=110
197511 On ch=2 n=c#3 v=110
197547 On ch=2 n=c#3 v=0
197547 On ch=2 n=c#4 v=0
197548 On ch=2 n=c4 v=110
197548 On ch=2 n=c3 v=110
197585 On ch=2 n=c3 v=0
197585 On ch=2 n=c4 v=0
197585 On ch=2 n=c#4 v=110
197585 On ch=2 n=c#3 v=110
197621 On ch=2 n=c#3 v=0
197621 On ch=2 n=c#4 v=0
197621 On ch=2 n=c4 v=110
197621 On ch=2 n=c3 v=110
197670 On ch=2 n=c3 v=0
197670 On ch=2 n=c4 v=0
197671 On ch=2 n=c#4 v=110
197671 On ch=2 n=c#3 v=110
197711 On ch=2 n=c#3 v=0
197711 On ch=2 n=c#4 v=0
197711 On ch=2 n=c4 v=110
197711 On ch=2 n=c3 v=110
197750 On ch=2 n=c3 v=0
197750 On ch=2 n=c4 v=0
197751 On ch=2 n=b3 v=110
197751 On ch=2 n=b2 v=110
197843 On ch=2 n=b2 v=0
197843 On ch=2 n=b3 v=0
197843 On ch=2 n=c4 v=110
197843 On ch=2 n=c3 v=110
197929 On ch=2 n=c3 v=0
197929 On ch=2 n=c4 v=0
197929 On ch=2 n=e4 v=110
197929 On ch=2 n=e3 v=110
197997 On ch=2 n=e3 v=0
197997 On ch=2 n=e4 v=0
197998 On ch=2 n=g4 v=110
197998 On ch=2 n=g3 v=110
198075 On ch=2 n=g3 v=0
198075 On ch=2 n=g4 v=0
198075 On ch=2 n=a#4 v=110
198075 On ch=2 n=a#3 v=110
198137 On ch=2 n=a#3 v=0
198137 On ch=2 n=a#4 v=0
198137 On ch=2 n=c5 v=110
198137 On ch=2 n=c4 v=110
198206 On ch=2 n=c4 v=0
198206 On ch=2 n=c5 v=0
198207 On ch=2 n=e5 v=110
198207 On ch=2 n=e4 v=110
198282 On ch=2 n=e4 v=0
198282 On ch=2 n=e5 v=0
198282 On ch=2 n=g5 v=110
198282 On ch=2 n=g4 v=110
198354 On ch=2 n=g4 v=0
198354 On ch=2 n=g5 v=0
198354 On ch=2 n=a#5 v=110
198354 On ch=2 n=a#4 v=110
198428 On ch=2 n=a#4 v=0
198428 On ch=2 n=a#5 v=0
198429 On ch=2 n=c6 v=110
198429 On ch=2 n=c5 v=110
198502 On ch=2 n=c5 v=0
198502 On ch=2 n=c6 v=0
198502 On ch=2 n=e6 v=110
198502 On ch=2 n=e5 v=110
198578 On ch=2 n=e5 v=0
198578 On ch=2 n=e6 v=0
198579 On ch=2 n=g6 v=111
198579 On ch=2 n=g5 v=111
198654 On ch=2 n=g5 v=0
198654 On ch=2 n=g6 v=0
198654 On ch=2 n=a#6 v=111
198654 On ch=2 n=a#5 v=111
198732 On ch=2 n=a#5 v=0
198732 On ch=2 n=a#6 v=0
198808 Par ch=2 c=64 v=127
199639 Par ch=2 c=64 v=0
199663 Par ch=2 c=64 v=127
200714 Par ch=2 c=64 v=0
201110 On ch=2 n=g5 v=110
201505 On ch=2 n=g5 v=0
201505 On ch=2 n=g#5 v=116
201909 On ch=2 n=g#5 v=0
202077 On ch=2 n=b5 v=111
202081 Par ch=2 c=64 v=127
202507 On ch=2 n=b5 v=0
202507 On ch=2 n=a#5 v=112
202690 On ch=2 n=a#5 v=0
202690 On ch=2 n=e5 v=112
202873 On ch=2 n=e5 v=0
202873 On ch=2 n=f5 v=112
203056 On ch=2 n=f5 v=0
203394 Par ch=2 c=64 v=0
203433 On ch=2 n=a#5 v=116
203819 On ch=2 n=a#5 v=0
203819 On ch=2 n=b5 v=112
204227 On ch=2 n=b5 v=0
204386 On ch=2 n=d6 v=114
204389 Par ch=2 c=64 v=127
204826 On ch=2 n=d6 v=0
204827 On ch=2 n=c#6 v=112
205030 On ch=2 n=c#6 v=0
205030 On ch=2 n=g5 v=112
205235 On ch=2 n=g5 v=0
205236 On ch=2 n=g#5 v=112
205446 On ch=2 n=g#5 v=0
205851 Par ch=2 c=64 v=0
205855 On ch=2 n=c#6 v=112
206216 On ch=2 n=c#6 v=0
206217 On ch=2 n=d6 v=112
206587 On ch=2 n=d6 v=0
206736 On ch=2 n=f6 v=112
206739 Par ch=2 c=64 v=127
207163 On ch=2 n=f6 v=0
207164 On ch=2 n=e6 v=112
207355 On ch=2 n=e6 v=0
207356 On ch=2 n=a#5 v=112
207547 On ch=2 n=a#5 v=0
207547 On ch=2 n=b5 v=112
207734 Par ch=2 c=64 v=0
207749 On ch=2 n=b5 v=0
207749 On ch=2 n=e6 v=112
208142 Par ch=2 c=64 v=127
208347 On ch=2 n=e6 v=0
208348 On ch=2 n=d#6 v=107
208554 On ch=2 n=d#6 v=0
208554 On ch=2 n=a5 v=112
208747 On ch=2 n=a5 v=0
208747 On ch=2 n=a#5 v=112
208937 Par ch=2 c=64 v=0
208951 On ch=2 n=a#5 v=0
209053 On ch=2 n=d#6 v=112
209365 Par ch=2 c=64 v=127
209577 On ch=2 n=d#6 v=0
209578 On ch=2 n=d6 v=112
209776 On ch=2 n=d6 v=0
209777 On ch=2 n=g#5 v=112
209964 On ch=2 n=g#5 v=0
209964 On ch=2 n=a5 v=112
210151 Par ch=2 c=64 v=0
210165 On ch=2 n=a5 v=0
210166 On ch=2 n=d6 v=112
210567 Par ch=2 c=64 v=127
210771 On ch=2 n=d6 v=0
210771 On ch=2 n=c#6 v=97
210987 On ch=2 n=c#6 v=0
210988 On ch=2 n=g5 v=91
211202 On ch=2 n=g5 v=0
211202 On ch=2 n=g#5 v=90
211405 Par ch=2 c=64 v=0
211407 On ch=2 n=g#5 v=0
211510 On ch=2 n=c#6 v=90
211862 Par ch=2 c=64 v=127
212088 On ch=2 n=c#6 v=0
212089 On ch=2 n=c6 v=83
212310 On ch=2 n=c6 v=0
212310 On ch=2 n=f#5 v=80
212553 On ch=2 n=f#5 v=0
212553 On ch=2 n=g5 v=77
212790 Par ch=2 c=64 v=0
212793 On ch=2 n=g5 v=0
212798 Par ch=2 c=64 v=127
214192 Par ch=2 c=64 v=0
214194 On ch=2 n=g#5 v=83
214198 Par ch=2 c=64 v=127
214891 On ch=2 n=g#5 v=0
214892 On ch=2 n=g5 v=74
215144 On ch=2 n=g5 v=0
215144 On ch=2 n=c5 v=66
215381 On ch=2 n=c5 v=0
215382 On ch=2 n=c#5 v=70
215631 Par ch=2 c=64 v=0
215635 On ch=2 n=c#5 v=0
215639 Par ch=2 c=64 v=127
217082 Par ch=2 c=64 v=0
217089 Par ch=2 c=64 v=127
218424 Par ch=2 c=64 v=0
218431 Par ch=2 c=64 v=127
219595 Par ch=2 c=64 v=0
219603 Par ch=2 c=64 v=127
221001 Par ch=2 c=64 v=0
221064 Par ch=2 c=64 v=127
222549 Par ch=2 c=64 v=127
222598 Par ch=2 c=64 v=0
222598 Par ch=2 c=64 v=0
234905 Par ch=2 c=64 v=127
237902 Par ch=2 c=64 v=0
238164 Par ch=2 c=64 v=127
240704 Par ch=2 c=64 v=0
240960 Par ch=2 c=64 v=127
243606 Par ch=2 c=64 v=0
243617 Par ch=2 c=64 v=127
246674 Par ch=2 c=64 v=0
246703 Par ch=2 c=64 v=127
249613 Par ch=2 c=64 v=0
249865 Par ch=2 c=64 v=127
250951 Par ch=2 c=64 v=0
251282 Par ch=2 c=64 v=127
253060 Par ch=2 c=64 v=0
253282 Par ch=2 c=64 v=127
254379 Par ch=2 c=64 v=0
254598 Par ch=2 c=64 v=127
255688 Par ch=2 c=64 v=0
255902 Par ch=2 c=64 v=127
256934 Par ch=2 c=64 v=0
257151 Par ch=2 c=64 v=127
258179 Par ch=2 c=64 v=0
258420 Par ch=2 c=64 v=127
259429 Par ch=2 c=64 v=0
259622 Par ch=2 c=64 v=127
260616 Par ch=2 c=64 v=0
260829 Par ch=2 c=64 v=127
261803 Par ch=2 c=64 v=0
262002 Par ch=2 c=64 v=127
262975 Par ch=2 c=64 v=0
263175 Par ch=2 c=64 v=127
264061 Par ch=2 c=64 v=0
264260 Par ch=2 c=64 v=127
265177 Par ch=2 c=64 v=0
265416 Par ch=2 c=64 v=127
269738 Par ch=2 c=64 v=0
270146 Par ch=2 c=64 v=127
271219 Par ch=2 c=64 v=0
271434 Par ch=2 c=64 v=127
272486 Par ch=2 c=64 v=0
272745 Par ch=2 c=64 v=127
273681 Par ch=2 c=64 v=0
273707 On ch=2 n=c#5 v=103
273838 On ch=2 n=c#5 v=0
273838 On ch=2 n=d#5 v=103
273976 On ch=2 n=d#5 v=0
274278 On ch=2 n=g4 v=89
274428 On ch=2 n=g4 v=0
274429 On ch=2 n=g#4 v=89
274560 On ch=2 n=g#4 v=0
274851 On ch=2 n=d4 v=86
274997 On ch=2 n=d4 v=0
274997 On ch=2 n=d#4 v=86
275135 On ch=2 n=d#4 v=0
275393 On ch=2 n=g3 v=87
275523 On ch=2 n=g3 v=0
275523 On ch=2 n=g#3 v=87
275660 On ch=2 n=g#3 v=0
275928 On ch=2 n=d3 v=78
276063 On ch=2 n=d3 v=0
276063 On ch=2 n=d#3 v=78
276189 On ch=2 n=d#3 v=0
276189 On ch=2 n=f#3 v=85
276320 On ch=2 n=f#3 v=0
276321 On ch=2 n=d#3 v=85
276463 On ch=2 n=d#3 v=0
276463 On ch=2 n=e3 v=80
278257 On ch=2 n=e3 v=0
278257 On ch=2 n=d#3 v=93
278566 On ch=2 n=d#3 v=0
278567 On ch=2 n=a2 v=86
278920 On ch=2 n=a2 v=0
278920 On ch=2 n=a#2 v=95
279301 On ch=2 n=a#2 v=0
279302 On ch=2 n=f3 v=107
281554 On ch=2 n=f3 v=0
281554 On ch=2 n=d#3 v=73
281870 On ch=2 n=d#3 v=0
281871 On ch=2 n=a2 v=75
282234 On ch=2 n=a2 v=0
282234 On ch=2 n=a#2 v=75
282553 On ch=2 n=a#2 v=0
282553 On ch=2 n=c#3 v=77
282853 On ch=2 n=c#3 v=0
282854 On ch=2 n=c3 v=74
283134 On ch=2 n=c3 v=0
283134 On ch=2 n=g#2 v=70
283139 Par ch=2 c=64 v=127
283416 On ch=2 n=g#2 v=0
286589 Par ch=2 c=64 v=0
286881 Par ch=2 c=64 v=127
289880 Par ch=2 c=64 v=0
290173 Par ch=2 c=64 v=127
291522 Par ch=2 c=64 v=0
291558 Par ch=2 c=64 v=127
293150 Par ch=2 c=64 v=0
293442 Par ch=2 c=64 v=127
296337 Par ch=2 c=64 v=0
296638 Par ch=2 c=64 v=127
297438 Par ch=2 c=64 v=0
297445 Par ch=2 c=64 v=127
298237 Par ch=2 c=64 v=0
298244 Par ch=2 c=64 v=127
299074 Par ch=2 c=64 v=0
299081 Par ch=2 c=64 v=127
299603 Par ch=2 c=64 v=0
299877 Par ch=2 c=64 v=127
300746 Par ch=2 c=64 v=0
300753 Par ch=2 c=64 v=127
301344 Par ch=2 c=64 v=0
301656 Par ch=2 c=64 v=127
302576 Par ch=2 c=64 v=0
302584 Par ch=2 c=64 v=127
303182 Par ch=2 c=64 v=0
303513 Par ch=2 c=64 v=127
306546 Par ch=2 c=64 v=0
307269 Par ch=2 c=64 v=127
307927 Par ch=2 c=64 v=0
307974 Par ch=2 c=64 v=127
310139 Par ch=2 c=64 v=0
310187 Par ch=2 c=64 v=127
311686 Par ch=2 c=64 v=0
311689 On ch=2 n=g#2 v=60
311695 Par ch=2 c=64 v=127
311783 On ch=2 n=d#4 v=60
312450 Par ch=2 c=64 v=0
312455 On ch=2 n=d#4 v=0
312455 On ch=2 n=g#2 v=0
312857 On ch=2 n=d#4 v=56
312937 On ch=2 n=d#4 v=0
312938 On ch=2 n=f4 v=56
313019 On ch=2 n=f4 v=0
313019 On ch=2 n=d#4 v=56
313099 On ch=2 n=d#4 v=0
313100 On ch=2 n=d4 v=56
313176 On ch=2 n=d4 v=0
313176 On ch=2 n=d#4 v=61
313179 On ch=2 n=d#4 v=0
313179 On ch=2 n=c5 v=61
313477 On ch=2 n=c5 v=0
313478 On ch=2 n=g4 v=65
313725 On ch=2 n=g4 v=0
313726 On ch=2 n=a#4 v=65
314671 On ch=2 n=a#4 v=0
314672 On ch=2 n=g#4 v=68
314927 On ch=2 n=g#4 v=0
314927 On ch=2 n=c4 v=65
315197 On ch=2 n=c4 v=0
315197 On ch=2 n=c#4 v=61
315496 On ch=2 n=c#4 v=0
315497 On ch=2 n=f4 v=59
315501 Par ch=2 c=64 v=127
317628 On ch=2 n=f4 v=0
317628 On ch=2 n=d#4 v=58
317915 On ch=2 n=d#4 v=0
317916 On ch=2 n=a3 v=54
318215 On ch=2 n=a3 v=0
318215 On ch=2 n=a#3 v=57
318538 On ch=2 n=a#3 v=0
318538 On ch=2 n=c#4 v=59
318866 On ch=2 n=c#4 v=0
318867 On ch=2 n=c4 v=63
319189 Par ch=2 c=64 v=0
319192 On ch=2 n=c4 v=0
319192 On ch=2 n=g#2 v=57
319273 On ch=2 n=d#3 v=57
319355 On ch=2 n=g#3 v=57
319542 On ch=2 n=g#3 v=0
319542 On ch=2 n=d#3 v=0
319542 On ch=2 n=g#2 v=0
320145 On ch=2 n=d#4 v=64
320188 On ch=2 n=d#4 v=0
320188 On ch=2 n=d#4 v=58
320253 On ch=2 n=d#4 v=0
320254 On ch=2 n=f4 v=58
320318 On ch=2 n=f4 v=0
320319 On ch=2 n=d#4 v=58
320384 On ch=2 n=d#4 v=0
320384 On ch=2 n=d4 v=58
320448 On ch=2 n=d4 v=0
320449 On ch=2 n=d#4 v=58
320491 On ch=2 n=d#4 v=0
320492 On ch=2 n=d#5 v=66
320694 On ch=2 n=d#5 v=0
320694 On ch=2 n=c5 v=66
320885 On ch=2 n=c5 v=0
320885 On ch=2 n=g4 v=65
321089 On ch=2 n=g4 v=0
321089 On ch=2 n=a#4 v=63
322055 On ch=2 n=a#4 v=0
322056 On ch=2 n=g#4 v=61
322392 On ch=2 n=g#4 v=0
322392 On ch=2 n=c4 v=53
322680 On ch=2 n=c4 v=0
322680 On ch=2 n=c#4 v=64
322989 On ch=2 n=c#4 v=0
322989 On ch=2 n=f4 v=61
322994 Par ch=2 c=64 v=127
324968 On ch=2 n=f4 v=0
324969 On ch=2 n=d#4 v=69
325257 On ch=2 n=d#4 v=0
325257 On ch=2 n=a3 v=69
325559 On ch=2 n=a3 v=0
325559 On ch=2 n=a#3 v=69
325885 On ch=2 n=a#3 v=0
325885 On ch=2 n=c#4 v=68
326327 Par ch=2 c=64 v=0
326331 On ch=2 n=c#4 v=0
326331 On ch=2 n=c4 v=60
326473 On ch=2 n=c4 v=0
326474 On ch=2 n=g#3 v=61
326479 Par ch=2 c=64 v=127
328117 Par ch=2 c=64 v=0
328132 On ch=2 n=g#3 v=0
328133 On ch=2 n=g#3 v=68
328138 Par ch=2 c=64 v=127
328408 On ch=2 n=g#3 v=0
328408 On ch=2 n=g3 v=65
328685 On ch=2 n=g3 v=0
328686 On ch=2 n=a#3 v=63
328966 On ch=2 n=a#3 v=0
328966 On ch=2 n=g#3 v=61
329234 On ch=2 n=g#3 v=0
329234 On ch=2 n=c#4 v=63
329528 On ch=2 n=c#4 v=0
329529 On ch=2 n=a#3 v=61
329817 Par ch=2 c=64 v=0
329818 On ch=2 n=a#3 v=0
329818 On ch=2 n=g#3 v=61
329829 Par ch=2 c=64 v=127
331374 Par ch=2 c=64 v=0
331382 Par ch=2 c=64 v=127
331643 On ch=2 n=g#3 v=0
331644 On ch=2 n=g3 v=71
331932 On ch=2 n=g3 v=0
331933 On ch=2 n=a#3 v=66
332195 On ch=2 n=a#3 v=0
332196 On ch=2 n=g#3 v=63
332470 On ch=2 n=g#3 v=0
332470 On ch=2 n=f4 v=71
332653 On ch=2 n=f4 v=0
332653 On ch=2 n=c#4 v=71
332781 On ch=2 n=c#4 v=0
332782 On ch=2 n=a#3 v=76
332934 Par ch=2 c=64 v=0
332984 On ch=2 n=a#3 v=0
332985 On ch=2 n=g#3 v=69
332990 Par ch=2 c=64 v=127
336144 On ch=2 n=g#3 v=0
336144 On ch=2 n=c4 v=65
337634 On ch=2 n=c4 v=0
337635 On ch=2 n=d#4 v=69
339037 On ch=2 n=d#4 v=0
339037 On ch=2 n=g#4 v=65
341874 On ch=2 n=g#4 v=0
345385 Par ch=2 c=64 v=0
346084 Par ch=2 c=64 v=127
347568 Par ch=2 c=64 v=0
347571 On ch=2 n=g#3 v=45
347574 Par ch=2 c=64 v=127
347630 On ch=2 n=d#4 v=45
347689 On ch=2 n=c5 v=45
348193 Par ch=2 c=64 v=0
348198 On ch=2 n=c5 v=0
348198 On ch=2 n=d#4 v=0
348198 On ch=2 n=g#3 v=0
348815 On ch=2 n=g#3 v=32
348819 Par ch=2 c=64 v=127
348891 On ch=2 n=d#4 v=32
348966 On ch=2 n=c5 v=32
349434 Par ch=2 c=64 v=0
349437 On ch=2 n=c5 v=0
349437 On ch=2 n=g#3 v=0
349438 On ch=2 n=d#4 v=0
349438 On ch=2 n=g#3 v=34
349442 Par ch=2 c=64 v=127
349514 On ch=2 n=d#4 v=34
349592 On ch=2 n=c5 v=34
350089 Par ch=2 c=64 v=0
350113 On ch=2 n=c5 v=0
350113 On ch=2 n=d#4 v=0
350113 On ch=2 n=g#3 v=0
350113 On ch=2 n=g#3 v=31
350119 Par ch=2 c=64 v=127
350200 On ch=2 n=d#4 v=31
350287 On ch=2 n=c5 v=31
351624 Par ch=2 c=64 v=0
351625 On ch=2 n=c5 v=0
351625 On ch=2 n=d#4 v=0
351625 On ch=2 n=g#3 v=0
351625 Meta TrkEnd
TrkEnd
MTrk
0 SeqSpec 43 00 01 00
0 Meta TrkName "3 Accompagnement main droite"
0 PrCh ch=3 p=0
0 Par ch=3 c=91 v=15
0 Par ch=3 c=93 v=0
0 Par ch=3 c=10 v=55
0 Par ch=3 c=7 v=110
8595 Par ch=3 c=64 v=127
10382 On ch=3 n=e4 v=64
10382 On ch=3 n=a#3 v=64
10382 On ch=3 n=f#3 v=64
10801 On ch=3 n=f#3 v=0
10801 On ch=3 n=a#3 v=0
10801 On ch=3 n=e4 v=0
10801 On ch=3 n=e4 v=67
10801 On ch=3 n=a#3 v=67
10801 On ch=3 n=f#3 v=67
11181 Par ch=3 c=64 v=0
11182 On ch=3 n=f#3 v=0
11182 On ch=3 n=a#3 v=0
11182 On ch=3 n=e4 v=0
11186 Par ch=3 c=64 v=127
11562 On ch=3 n=d#4 v=67
11562 On ch=3 n=b3 v=67
11562 On ch=3 n=f#3 v=67
11974 On ch=3 n=f#3 v=0
11974 On ch=3 n=b3 v=0
11974 On ch=3 n=d#4 v=0
11974 On ch=3 n=d#4 v=61
11974 On ch=3 n=b3 v=61
11974 On ch=3 n=f#3 v=61
12401 On ch=3 n=f#3 v=0
12401 On ch=3 n=b3 v=0
12401 On ch=3 n=d#4 v=0
13620 Par ch=3 c=64 v=0
13624 Par ch=3 c=64 v=127
15277 On ch=3 n=e4 v=47
15277 On ch=3 n=a#3 v=47
15277 On ch=3 n=g3 v=47
15708 On ch=3 n=g3 v=0
15708 On ch=3 n=a#3 v=0
15708 On ch=3 n=e4 v=0
15709 On ch=3 n=e4 v=49
15709 On ch=3 n=a#3 v=49
15709 On ch=3 n=g3 v=49
16122 Par ch=3 c=64 v=0
16142 On ch=3 n=g3 v=0
16142 On ch=3 n=a#3 v=0
16142 On ch=3 n=e4 v=0
16143 Par ch=3 c=64 v=127
17485 Par ch=3 c=64 v=0
17519 Par ch=3 c=64 v=127
18899 Par ch=3 c=64 v=0
18922 Par ch=3 c=64 v=127
23378 Par ch=3 c=64 v=0
26520 On ch=3 n=d4 v=48
26581 On ch=3 n=f5 v=48
26643 On ch=3 n=g#5 v=48
26961 On ch=3 n=g#5 v=0
26961 On ch=3 n=f5 v=0
26962 On ch=3 n=d4 v=0
28372 Par ch=3 c=64 v=127
32070 Par ch=3 c=64 v=0
46725 Par ch=3 c=64 v=127
49976 Par ch=3 c=64 v=0
50228 Par ch=3 c=64 v=127
52661 Par ch=3 c=64 v=0
53072 Par ch=3 c=64 v=127
54799 Par ch=3 c=64 v=0
57925 Par ch=3 c=64 v=127
60990 Par ch=3 c=64 v=0
61015 Par ch=3 c=64 v=127
61769 On ch=3 n=c#5 v=69
62020 On ch=3 n=c#5 v=0
64245 Par ch=3 c=64 v=0
64269 Par ch=3 c=64 v=127
67363 Par ch=3 c=64 v=0
67370 Par ch=3 c=64 v=127
68940 On ch=3 n=g#5 v=43
68940 On ch=3 n=c5 v=43
69213 On ch=3 n=c5 v=0
69213 On ch=3 n=g#5 v=0
69213 On ch=3 n=c6 v=46
69213 On ch=3 n=d#5 v=46
69492 On ch=3 n=d#5 v=0
69492 On ch=3 n=c6 v=0
69493 On ch=3 n=d#6 v=44
69493 On ch=3 n=g#5 v=44
69632 On ch=3 n=g#5 v=0
69632 On ch=3 n=d#6 v=0
70421 Par ch=3 c=64 v=0
70492 Par ch=3 c=64 v=127
73572 Par ch=3 c=64 v=0
73598 Par ch=3 c=64 v=127
76750 Par ch=3 c=64 v=0
76755 Par ch=3 c=64 v=127
78290 Par ch=3 c=64 v=0
78310 Par ch=3 c=64 v=127
79858 Par ch=3 c=64 v=0
79864 Par ch=3 c=64 v=127
82200 Par ch=3 c=64 v=0
83253 Par ch=3 c=64 v=127
84771 Par ch=3 c=64 v=0
84777 Par ch=3 c=64 v=127
86290 Par ch=3 c=64 v=0
86302 Par ch=3 c=64 v=127
87791 Par ch=3 c=64 v=0
87802 Par ch=3 c=64 v=127
89163 Par ch=3 c=64 v=0
89195 Par ch=3 c=64 v=127
90642 Par ch=3 c=64 v=0
90648 Par ch=3 c=64 v=127
92130 Par ch=3 c=64 v=0
92144 Par ch=3 c=64 v=127
93556 Par ch=3 c=64 v=0
100150 Par ch=3 c=64 v=127
102550 Par ch=3 c=64 v=0
102576 Par ch=3 c=64 v=127
106179 Par ch=3 c=64 v=0
106228 Par ch=3 c=64 v=127
109420 Par ch=3 c=64 v=0
109450 Par ch=3 c=64 v=127
110930 Par ch=3 c=64 v=0
110967 Par ch=3 c=64 v=127
112723 Par ch=3 c=64 v=0
112795 Par ch=3 c=64 v=127
114854 Par ch=3 c=64 v=0
116726 Par ch=3 c=64 v=127
116837 On ch=3 n=g5 v=55
116837 On ch=3 n=c#5 v=55
117019 On ch=3 n=c#5 v=0
117019 On ch=3 n=g5 v=0
117019 On ch=3 n=g5 v=58
117019 On ch=3 n=c#5 v=58
117205 On ch=3 n=c#5 v=0
117205 On ch=3 n=g5 v=0
117206 On ch=3 n=g5 v=56
117206 On ch=3 n=c#5 v=56
117386 On ch=3 n=c#5 v=0
117386 On ch=3 n=g5 v=0
117386 On ch=3 n=g5 v=56
117386 On ch=3 n=c#5 v=56
117566 On ch=3 n=c#5 v=0
117566 On ch=3 n=g5 v=0
117567 On ch=3 n=g5 v=59
117567 On ch=3 n=c#5 v=59
117745 Par ch=3 c=64 v=0
117746 On ch=3 n=c#5 v=0
117746 On ch=3 n=g5 v=0
117840 Par ch=3 c=64 v=127
117926 On ch=3 n=a5 v=56
117926 On ch=3 n=d#5 v=56
118102 On ch=3 n=d#5 v=0
118102 On ch=3 n=a5 v=0
118102 On ch=3 n=a5 v=56
118102 On ch=3 n=d#5 v=56
118270 On ch=3 n=d#5 v=0
118270 On ch=3 n=a5 v=0
118271 On ch=3 n=a5 v=59
118271 On ch=3 n=d#5 v=59
118445 On ch=3 n=d#5 v=0
118445 On ch=3 n=a5 v=0
118446 On ch=3 n=a5 v=58
118446 On ch=3 n=d#5 v=58
118612 On ch=3 n=d#5 v=0
118612 On ch=3 n=a5 v=0
118612 On ch=3 n=a5 v=56
118612 On ch=3 n=d#5 v=56
118693 Par ch=3 c=64 v=0
118787 On ch=3 n=d#5 v=0
118787 On ch=3 n=a5 v=0
118878 Par ch=3 c=64 v=127
118974 On ch=3 n=b5 v=58
118974 On ch=3 n=f5 v=58
119150 On ch=3 n=f5 v=0
119150 On ch=3 n=b5 v=0
119150 On ch=3 n=b5 v=58
119150 On ch=3 n=f5 v=58
119313 On ch=3 n=f5 v=0
119313 On ch=3 n=b5 v=0
119313 On ch=3 n=b5 v=63
119313 On ch=3 n=f5 v=63
119497 On ch=3 n=f5 v=0
119497 On ch=3 n=b5 v=0
119498 On ch=3 n=b5 v=54
119498 On ch=3 n=f5 v=54
119681 On ch=3 n=f5 v=0
119681 On ch=3 n=b5 v=0
119681 On ch=3 n=b5 v=56
119771 Par ch=3 c=64 v=0
119891 On ch=3 n=b5 v=0
119892 On ch=3 n=c#6 v=47
119892 On ch=3 n=g5 v=47
120102 On ch=3 n=g5 v=0
120102 On ch=3 n=c#6 v=0
120105 Par ch=3 c=64 v=127
120538 Par ch=3 c=64 v=0
120957 Par ch=3 c=64 v=127
121010 On ch=3 n=g5 v=62
121065 On ch=3 n=g5 v=0
121065 On ch=3 n=a#5 v=62
121125 On ch=3 n=a#5 v=0
121126 On ch=3 n=c#6 v=61
121183 On ch=3 n=c#6 v=0
121184 On ch=3 n=d#6 v=61
121241 On ch=3 n=d#6 v=0
121241 On ch=3 n=g6 v=61
121306 On ch=3 n=g6 v=0
121307 On ch=3 n=a#6 v=56
121367 On ch=3 n=a#6 v=0
121368 On ch=3 n=c#7 v=56
121428 On ch=3 n=c#7 v=0
121428 On ch=3 n=f7 v=56
121492 On ch=3 n=f7 v=0
121492 On ch=3 n=d#7 v=60
121554 On ch=3 n=d#7 v=0
121555 On ch=3 n=c#7 v=60
121616 On ch=3 n=c#7 v=0
121616 On ch=3 n=a#6 v=60
121668 On ch=3 n=a#6 v=0
121668 On ch=3 n=g6 v=59
121727 On ch=3 n=g6 v=0
121728 On ch=3 n=d#6 v=59
121786 On ch=3 n=d#6 v=0
121786 On ch=3 n=c#6 v=59
121855 On ch=3 n=c#6 v=0
121856 On ch=3 n=a#5 v=60
121918 On ch=3 n=a#5 v=0
121918 On ch=3 n=g5 v=60
121980 On ch=3 n=g5 v=0
121980 On ch=3 n=d#5 v=60
122040 Par ch=3 c=64 v=0
122051 On ch=3 n=d#5 v=0
122054 Par ch=3 c=64 v=127
122115 On ch=3 n=a5 v=54
122179 On ch=3 n=a5 v=0
122180 On ch=3 n=c6 v=54
122240 On ch=3 n=c6 v=0
122241 On ch=3 n=d#6 v=56
122304 On ch=3 n=d#6 v=0
122304 On ch=3 n=f#6 v=56
122367 On ch=3 n=f#6 v=0
122367 On ch=3 n=a6 v=56
122434 On ch=3 n=a6 v=0
122435 On ch=3 n=c7 v=58
122499 On ch=3 n=c7 v=0
122500 On ch=3 n=d#7 v=58
122564 On ch=3 n=d#7 v=0
122565 On ch=3 n=f#7 v=58
122637 On ch=3 n=f#7 v=0
122637 On ch=3 n=f7 v=53
122704 On ch=3 n=f7 v=0
122704 On ch=3 n=d#7 v=53
122771 On ch=3 n=d#7 v=0
122771 On ch=3 n=c7 v=53
122847 On ch=3 n=c7 v=0
122848 On ch=3 n=a6 v=49
122918 On ch=3 n=a6 v=0
122918 On ch=3 n=f6 v=49
122988 On ch=3 n=f6 v=0
122988 On ch=3 n=d#6 v=49
123035 On ch=3 n=d#6 v=0
123036 On ch=3 n=c6 v=60
123099 On ch=3 n=c6 v=0
123099 On ch=3 n=a5 v=60
123162 On ch=3 n=a5 v=0
123162 On ch=3 n=f5 v=60
123222 Par ch=3 c=64 v=0
123229 On ch=3 n=f5 v=0
123231 Par ch=3 c=64 v=127
123291 On ch=3 n=b5 v=54
123354 On ch=3 n=b5 v=0
123355 On ch=3 n=d6 v=54
123430 On ch=3 n=d6 v=0
123431 On ch=3 n=f6 v=56
123498 On ch=3 n=f6 v=0
123498 On ch=3 n=g#6 v=56
123565 On ch=3 n=g#6 v=0
123566 On ch=3 n=b6 v=56
123626 On ch=3 n=b6 v=0
123626 On ch=3 n=d7 v=54
123690 On ch=3 n=d7 v=0
123691 On ch=3 n=f7 v=54
123756 On ch=3 n=f7 v=0
123757 On ch=3 n=g#7 v=54
123824 On ch=3 n=g#7 v=0
123825 On ch=3 n=g7 v=54
123890 On ch=3 n=g7 v=0
123890 On ch=3 n=f7 v=54
123956 On ch=3 n=f7 v=0
123956 On ch=3 n=d7 v=54
124020 On ch=3 n=d7 v=0
124021 On ch=3 n=b6 v=57
124086 On ch=3 n=b6 v=0
124087 On ch=3 n=g6 v=57
124152 On ch=3 n=g6 v=0
124152 On ch=3 n=f6 v=57
124216 On ch=3 n=f6 v=0
124217 On ch=3 n=d6 v=57
124281 On ch=3 n=d6 v=0
124282 On ch=3 n=b5 v=57
124347 On ch=3 n=b5 v=0
124347 On ch=3 n=g5 v=57
124409 Par ch=3 c=64 v=0
124421 On ch=3 n=g5 v=0
124423 Par ch=3 c=64 v=127
124487 On ch=3 n=c#6 v=57
124554 On ch=3 n=c#6 v=0
124555 On ch=3 n=e6 v=57
124645 On ch=3 n=e6 v=0
124646 On ch=3 n=g6 v=60
124721 On ch=3 n=g6 v=0
124721 On ch=3 n=a#6 v=60
124796 On ch=3 n=a#6 v=0
124796 On ch=3 n=c#7 v=60
124840 On ch=3 n=c#7 v=0
124841 On ch=3 n=e7 v=66
124905 On ch=3 n=e7 v=0
124905 On ch=3 n=g7 v=66
124969 On ch=3 n=g7 v=0
124970 On ch=3 n=c8 v=66
125041 On ch=3 n=c8 v=0
125042 On ch=3 n=a#7 v=66
125109 On ch=3 n=a#7 v=0
125109 On ch=3 n=g7 v=66
125176 On ch=3 n=g7 v=0
125176 On ch=3 n=e7 v=66
125239 On ch=3 n=e7 v=0
125240 On ch=3 n=c#7 v=67
125305 On ch=3 n=c#7 v=0
125306 On ch=3 n=a#6 v=67
125372 On ch=3 n=a#6 v=0
125372 On ch=3 n=g6 v=67
125447 On ch=3 n=g6 v=0
125447 On ch=3 n=e6 v=71
125515 On ch=3 n=e6 v=0
125516 On ch=3 n=c#6 v=71
125584 On ch=3 n=c#6 v=0
125584 On ch=3 n=a#5 v=71
125640 Par ch=3 c=64 v=0
125644 On ch=3 n=a#5 v=0
125646 Par ch=3 c=64 v=127
125707 On ch=3 n=b5 v=76
125772 On ch=3 n=b5 v=0
125773 On ch=3 n=d6 v=76
125833 On ch=3 n=d6 v=0
125834 On ch=3 n=f6 v=79
125897 On ch=3 n=f6 v=0
125897 On ch=3 n=g#6 v=79
125960 On ch=3 n=g#6 v=0
125961 On ch=3 n=b6 v=79
126036 On ch=3 n=b6 v=0
126037 On ch=3 n=d7 v=78
126104 On ch=3 n=d7 v=0
126104 On ch=3 n=f7 v=78
126171 On ch=3 n=f7 v=0
126172 On ch=3 n=g#7 v=78
126224 On ch=3 n=g#7 v=0
126225 On ch=3 n=g7 v=82
126288 On ch=3 n=g7 v=0
126288 On ch=3 n=f7 v=82
126351 On ch=3 n=f7 v=0
126351 On ch=3 n=d7 v=82
126431 On ch=3 n=d7 v=0
126431 On ch=3 n=b6 v=87
126499 On ch=3 n=b6 v=0
126500 On ch=3 n=g6 v=87
126568 On ch=3 n=g6 v=0
126569 On ch=3 n=f6 v=87
126629 On ch=3 n=f6 v=0
126630 On ch=3 n=d6 v=87
126695 On ch=3 n=d6 v=0
126695 On ch=3 n=b5 v=87
126761 On ch=3 n=b5 v=0
126761 On ch=3 n=g5 v=87
126824 Par ch=3 c=64 v=0
126834 On ch=3 n=g5 v=0
126836 Par ch=3 c=64 v=127
126901 On ch=3 n=f6 v=87
126968 On ch=3 n=f6 v=0
126969 On ch=3 n=g6 v=87
127047 On ch=3 n=g6 v=0
127047 On ch=3 n=b6 v=88
127118 On ch=3 n=b6 v=0
127118 On ch=3 n=c#7 v=88
127189 On ch=3 n=c#7 v=0
127189 On ch=3 n=f7 v=88
127227 On ch=3 n=f7 v=0
127228 On ch=3 n=g7 v=88
127288 On ch=3 n=g7 v=0
127289 On ch=3 n=b7 v=88
127349 On ch=3 n=b7 v=0
127350 On ch=3 n=d#8 v=88
127413 On ch=3 n=d#8 v=0
127413 On ch=3 n=c#8 v=85
127474 On ch=3 n=c#8 v=0
127474 On ch=3 n=b7 v=85
127535 On ch=3 n=b7 v=0
127536 On ch=3 n=g7 v=85
127608 On ch=3 n=g7 v=0
127608 On ch=3 n=f7 v=81
127656 On ch=3 n=f7 v=0
127657 On ch=3 n=c#7 v=81
127705 On ch=3 n=c#7 v=0
127706 On ch=3 n=b6 v=81
127754 On ch=3 n=b6 v=0
127755 On ch=3 n=g6 v=81
127805 On ch=3 n=g6 v=0
127805 On ch=3 n=f6 v=84
127853 On ch=3 n=f6 v=0
127854 On ch=3 n=c#6 v=84
127902 On ch=3 n=c#6 v=0
127903 On ch=3 n=b5 v=84
127951 On ch=3 n=b5 v=0
127952 On ch=3 n=g5 v=84
127989 Par ch=3 c=64 v=0
127990 On ch=3 n=g5 v=0
127994 Par ch=3 c=64 v=127
128053 On ch=3 n=b5 v=87
128115 On ch=3 n=b5 v=0
128115 On ch=3 n=d6 v=87
128201 On ch=3 n=d6 v=0
128201 On ch=3 n=f6 v=89
128270 On ch=3 n=f6 v=0
128271 On ch=3 n=g#6 v=89
128341 On ch=3 n=g#6 v=0
128341 On ch=3 n=b6 v=89
128398 On ch=3 n=b6 v=0
128399 On ch=3 n=d7 v=89
128464 On ch=3 n=d7 v=0
128464 On ch=3 n=f7 v=89
128529 On ch=3 n=f7 v=0
128530 On ch=3 n=g#7 v=89
128579 On ch=3 n=g#7 v=0
128580 On ch=3 n=g7 v=83
128640 On ch=3 n=g7 v=0
128640 On ch=3 n=f7 v=83
128700 On ch=3 n=f7 v=0
128701 On ch=3 n=d7 v=83
128762 On ch=3 n=d7 v=0
128763 On ch=3 n=b6 v=85
128824 On ch=3 n=b6 v=0
128824 On ch=3 n=g6 v=85
128884 On ch=3 n=g6 v=0
128885 On ch=3 n=f6 v=85
128960 On ch=3 n=f6 v=0
128960 On ch=3 n=d6 v=88
129025 On ch=3 n=d6 v=0
129026 On ch=3 n=b5 v=88
129091 On ch=3 n=b5 v=0
129091 On ch=3 n=g5 v=88
129153 Par ch=3 c=64 v=0
129160 On ch=3 n=g5 v=0
129162 Par ch=3 c=64 v=127
129225 On ch=3 n=g6 v=94
129291 On ch=3 n=g6 v=0
129292 On ch=3 n=a#6 v=94
129335 On ch=3 n=a#6 v=0
129335 On ch=3 n=c#7 v=96
129379 On ch=3 n=c#7 v=0
129379 On ch=3 n=e7 v=96
129423 On ch=3 n=e7 v=0
129423 On ch=3 n=g7 v=96
129467 On ch=3 n=g7 v=0
129468 On ch=3 n=a#7 v=96
129534 On ch=3 n=a#7 v=0
129534 On ch=3 n=e8 v=96
129599 On ch=3 n=e8 v=0
129600 On ch=3 n=c#8 v=96
129666 On ch=3 n=c#8 v=0
129666 On ch=3 n=a#7 v=96
129725 On ch=3 n=a#7 v=0
129725 On ch=3 n=g7 v=93
129788 On ch=3 n=g7 v=0
129788 On ch=3 n=e7 v=93
129851 On ch=3 n=e7 v=0
129852 On ch=3 n=c#7 v=93
129918 On ch=3 n=c#7 v=0
129918 On ch=3 n=a#6 v=93
129981 On ch=3 n=a#6 v=0
129982 On ch=3 n=g6 v=93
130046 On ch=3 n=g6 v=0
130047 On ch=3 n=e6 v=93
130131 On ch=3 n=e6 v=0
130132 On ch=3 n=c#6 v=97
130203 On ch=3 n=c#6 v=0
130203 On ch=3 n=a#5 v=97
130274 On ch=3 n=a#5 v=0
130274 On ch=3 n=g5 v=97
130333 Par ch=3 c=64 v=0
130334 On ch=3 n=g5 v=0
130335 On ch=3 n=f#5 v=97
130339 Par ch=3 c=64 v=127
130385 On ch=3 n=f#5 v=0
130385 On ch=3 n=g5 v=97
130435 On ch=3 n=g5 v=0
130436 On ch=3 n=a#5 v=97
130486 On ch=3 n=a#5 v=0
130486 On ch=3 n=c#6 v=97
130534 On ch=3 n=c#6 v=0
130535 On ch=3 n=e6 v=93
130584 On ch=3 n=e6 v=0
130585 On ch=3 n=g6 v=93
130635 On ch=3 n=g6 v=0
130635 On ch=3 n=a#6 v=93
130684 On ch=3 n=a#6 v=0
130685 On ch=3 n=c#7 v=93
130741 On ch=3 n=c#7 v=0
130741 On ch=3 n=e7 v=91
130792 On ch=3 n=e7 v=0
130792 On ch=3 n=g7 v=91
130843 On ch=3 n=g7 v=0
130844 On ch=3 n=a#7 v=91
130895 On ch=3 n=a#7 v=0
130895 On ch=3 n=e8 v=91
130925 On ch=3 n=e8 v=0
130926 On ch=3 n=c#8 v=92
130972 On ch=3 n=c#8 v=0
130972 On ch=3 n=a#7 v=92
131018 On ch=3 n=a#7 v=0
131019 On ch=3 n=g7 v=92
131065 On ch=3 n=g7 v=0
131066 On ch=3 n=e7 v=92
131118 On ch=3 n=e7 v=0
131118 On ch=3 n=c#7 v=92
131165 On ch=3 n=c#7 v=0
131166 On ch=3 n=a#6 v=92
131214 On ch=3 n=a#6 v=0
131214 On ch=3 n=g6 v=92
131262 On ch=3 n=g6 v=0
131262 On ch=3 n=e6 v=92
131343 On ch=3 n=e6 v=0
131343 On ch=3 n=c#6 v=89
131399 On ch=3 n=c#6 v=0
131400 On ch=3 n=a#5 v=89
131456 On ch=3 n=a#5 v=0
131456 On ch=3 n=g5 v=89
131512 On ch=3 n=g5 v=0
131512 On ch=3 n=f#5 v=89
131544 Par ch=3 c=64 v=0
131545 On ch=3 n=f#5 v=0
131546 On ch=3 n=g5 v=85
131550 Par ch=3 c=64 v=127
131596 On ch=3 n=g5 v=0
131597 On ch=3 n=a#5 v=85
131647 On ch=3 n=a#5 v=0
131647 On ch=3 n=c#6 v=85
131697 On ch=3 n=c#6 v=0
131698 On ch=3 n=e6 v=85
131729 On ch=3 n=e6 v=0
131730 On ch=3 n=g6 v=81
131776 On ch=3 n=g6 v=0
131776 On ch=3 n=a#6 v=81
131821 On ch=3 n=a#6 v=0
131822 On ch=3 n=c#7 v=81
131867 On ch=3 n=c#7 v=0
131868 On ch=3 n=e7 v=81
131925 On ch=3 n=e7 v=0
131925 On ch=3 n=g7 v=84
131973 On ch=3 n=g7 v=0
131973 On ch=3 n=a#7 v=84
132021 On ch=3 n=a#7 v=0
132022 On ch=3 n=e8 v=84
132070 On ch=3 n=e8 v=0
132071 On ch=3 n=c#8 v=84
132110 On ch=3 n=c#8 v=0
132111 On ch=3 n=a#7 v=89
132157 On ch=3 n=a#7 v=0
132157 On ch=3 n=g7 v=89
132203 On ch=3 n=g7 v=0
132204 On ch=3 n=e7 v=89
132250 On ch=3 n=e7 v=0
132251 On ch=3 n=c#7 v=89
132322 On ch=3 n=c#7 v=0
132322 On ch=3 n=a#6 v=93
132374 On ch=3 n=a#6 v=0
132374 On ch=3 n=g6 v=93
132426 On ch=3 n=g6 v=0
132427 On ch=3 n=e6 v=93
132479 On ch=3 n=e6 v=0
132479 On ch=3 n=c#6 v=93
132529 On ch=3 n=c#6 v=0
132529 On ch=3 n=a#5 v=92
132580 On ch=3 n=a#5 v=0
132581 On ch=3 n=g5 v=92
132633 On ch=3 n=g5 v=0
132633 On ch=3 n=f#5 v=92
132685 On ch=3 n=f#5 v=0
132685 On ch=3 n=g5 v=92
132733 Par ch=3 c=64 v=0
132735 On ch=3 n=g5 v=0
132735 On ch=3 n=a#5 v=87
132786 On ch=3 n=a#5 v=0
132787 On ch=3 n=c#6 v=87
132838 On ch=3 n=c#6 v=0
132838 On ch=3 n=e6 v=87
132889 On ch=3 n=e6 v=0
132889 On ch=3 n=g6 v=87
132917 On ch=3 n=g6 v=0
132918 On ch=3 n=a#6 v=83
132963 On ch=3 n=a#6 v=0
132963 On ch=3 n=c#7 v=83
133008 On ch=3 n=c#7 v=0
133009 On ch=3 n=e7 v=83
133054 On ch=3 n=e7 v=0
133055 On ch=3 n=g7 v=83
133101 On ch=3 n=g7 v=0
133102 On ch=3 n=a#7 v=84
133148 On ch=3 n=a#7 v=0
133148 On ch=3 n=c#8 v=84
133193 On ch=3 n=c#8 v=0
133194 On ch=3 n=e8 v=84
133239 On ch=3 n=e8 v=0
133240 On ch=3 n=d8 v=84
133303 On ch=3 n=d8 v=0
133303 On ch=3 n=d#8 v=89
133352 On ch=3 n=d#8 v=0
133353 On ch=3 n=c#8 v=89
133403 On ch=3 n=c#8 v=0
133403 On ch=3 n=d8 v=89
133452 On ch=3 n=d8 v=0
133453 On ch=3 n=c8 v=89
133501 On ch=3 n=c8 v=0
133501 On ch=3 n=c#8 v=95
133549 On ch=3 n=c#8 v=0
133550 On ch=3 n=b7 v=95
133599 On ch=3 n=b7 v=0
133600 On ch=3 n=c8 v=95
133649 On ch=3 n=c8 v=0
133650 On ch=3 n=a#7 v=95
133694 On ch=3 n=a#7 v=0
133694 On ch=3 n=b7 v=90
133742 On ch=3 n=b7 v=0
133742 On ch=3 n=a7 v=90
133790 On ch=3 n=a7 v=0
133790 On ch=3 n=a#7 v=90
133838 On ch=3 n=a#7 v=0
133838 On ch=3 n=g#7 v=90
133889 On ch=3 n=g#7 v=0
133890 On ch=3 n=a7 v=83
133938 On ch=3 n=a7 v=0
133938 On ch=3 n=g7 v=83
133986 On ch=3 n=g7 v=0
133987 On ch=3 n=g#7 v=83
134035 On ch=3 n=g#7 v=0
134036 On ch=3 n=f#7 v=83
134107 On ch=3 n=f#7 v=0
134107 On ch=3 n=g7 v=79
134161 On ch=3 n=g7 v=0
134162 On ch=3 n=f7 v=79
134216 On ch=3 n=f7 v=0
134216 On ch=3 n=f#7 v=79
134270 On ch=3 n=f#7 v=0
134271 On ch=3 n=e7 v=79
134309 On ch=3 n=e7 v=0
134310 On ch=3 n=f7 v=81
134360 On ch=3 n=f7 v=0
134360 On ch=3 n=d#7 v=81
134410 On ch=3 n=d#7 v=0
134411 On ch=3 n=e7 v=81
134461 On ch=3 n=e7 v=0
134461 On ch=3 n=d7 v=81
134512 On ch=3 n=d7 v=0
134512 On ch=3 n=d#7 v=71
134562 On ch=3 n=d#7 v=0
134563 On ch=3 n=c#7 v=71
134613 On ch=3 n=c#7 v=0
134613 On ch=3 n=d7 v=71
134663 On ch=3 n=d7 v=0
134664 On ch=3 n=c7 v=71
134720 On ch=3 n=c7 v=0
134721 On ch=3 n=c#7 v=71
134773 On ch=3 n=c#7 v=0
134773 On ch=3 n=b6 v=71
134825 On ch=3 n=b6 v=0
134825 On ch=3 n=c7 v=71
134877 On ch=3 n=c7 v=0
134877 On ch=3 n=a#6 v=71
134936 On ch=3 n=a#6 v=0
134936 On ch=3 n=b6 v=62
134989 On ch=3 n=b6 v=0
134990 On ch=3 n=a6 v=62
135043 On ch=3 n=a6 v=0
135044 On ch=3 n=a#6 v=62
135098 On ch=3 n=a#6 v=0
135098 On ch=3 n=g#6 v=62
135150 On ch=3 n=g#6 v=0
135150 On ch=3 n=a6 v=59
135203 On ch=3 n=a6 v=0
135204 On ch=3 n=g6 v=59
135256 On ch=3 n=g6 v=0
135257 On ch=3 n=g#6 v=59
135310 On ch=3 n=g#6 v=0
135311 On ch=3 n=f#6 v=59
135373 On ch=3 n=f#6 v=0
135373 On ch=3 n=g6 v=57
135428 On ch=3 n=g6 v=0
135428 On ch=3 n=f6 v=57
135484 On ch=3 n=f6 v=0
135484 On ch=3 n=f#6 v=57
135539 On ch=3 n=f#6 v=0
135540 On ch=3 n=e6 v=57
135597 On ch=3 n=e6 v=0
135597 On ch=3 n=f6 v=54
135653 On ch=3 n=f6 v=0
135653 On ch=3 n=d#6 v=54
135709 On ch=3 n=d#6 v=0
135709 On ch=3 n=e6 v=54
135765 On ch=3 n=e6 v=0
135765 On ch=3 n=d6 v=54
135817 On ch=3 n=d6 v=0
135818 On ch=3 n=f6 v=47
135873 On ch=3 n=f6 v=0
135873 On ch=3 n=d#6 v=47
135928 On ch=3 n=d#6 v=0
135929 On ch=3 n=e6 v=47
135984 On ch=3 n=e6 v=0
135984 On ch=3 n=d6 v=47
136049 On ch=3 n=d6 v=0
136050 On ch=3 n=f6 v=43
136107 On ch=3 n=f6 v=0
136107 On ch=3 n=d#6 v=43
136164 On ch=3 n=d#6 v=0
136165 On ch=3 n=e6 v=43
136223 On ch=3 n=e6 v=0
136223 On ch=3 n=d6 v=43
136281 On ch=3 n=d6 v=0
136282 On ch=3 n=f6 v=39
136339 On ch=3 n=f6 v=0
136339 On ch=3 n=d#6 v=39
136397 On ch=3 n=d#6 v=0
136398 On ch=3 n=e6 v=39
136455 On ch=3 n=e6 v=0
136455 On ch=3 n=c#6 v=39
136518 On ch=3 n=c#6 v=0
136519 On ch=3 n=f6 v=35
136578 On ch=3 n=f6 v=0
136578 On ch=3 n=d#6 v=35
136638 On ch=3 n=d#6 v=0
136638 On ch=3 n=e6 v=35
136697 On ch=3 n=e6 v=0
136698 On ch=3 n=c#6 v=35
136767 On ch=3 n=c#6 v=0
136767 On ch=3 n=f6 v=34
136829 On ch=3 n=f6 v=0
136830 On ch=3 n=d#6 v=34
136891 On ch=3 n=d#6 v=0
136891 On ch=3 n=e6 v=34
136953 On ch=3 n=e6 v=0
136953 On ch=3 n=c#6 v=34
137026 On ch=3 n=c#6 v=0
137027 On ch=3 n=f6 v=38
137091 On ch=3 n=f6 v=0
137092 On ch=3 n=d#6 v=38
137157 On ch=3 n=d#6 v=0
137157 On ch=3 n=d#6 v=38
137209 On ch=3 n=d#6 v=0
137209 On ch=3 n=a#5 v=38
137260 On ch=3 n=a#5 v=0
137261 On ch=3 n=f6 v=38
137309 On ch=3 n=f6 v=0
137310 On ch=3 n=d#6 v=26
137361 On ch=3 n=d#6 v=0
137361 On ch=3 n=c#6 v=26
137412 On ch=3 n=c#6 v=0
137412 On ch=3 n=d#6 v=26
137463 On ch=3 n=d#6 v=0
137463 On ch=3 n=a#5 v=26
137514 On ch=3 n=a#5 v=0
137515 On ch=3 n=f6 v=26
137598 On ch=3 n=f6 v=0
137598 On ch=3 n=d#6 v=20
137654 On ch=3 n=d#6 v=0
137655 On ch=3 n=c#6 v=20
137712 On ch=3 n=c#6 v=0
137713 On ch=3 n=d#6 v=20
137769 On ch=3 n=d#6 v=0
137770 On ch=3 n=a#5 v=20
137819 On ch=3 n=a#5 v=0
137820 On ch=3 n=f6 v=33
137847 On ch=3 n=f6 v=0
137847 On ch=3 n=d#6 v=33
137897 On ch=3 n=d#6 v=0
137898 On ch=3 n=c#6 v=33
137948 On ch=3 n=c#6 v=0
137948 On ch=3 n=d#6 v=33
137998 On ch=3 n=d#6 v=0
137999 On ch=3 n=g5 v=33
138049 On ch=3 n=g5 v=0
138049 On ch=3 n=f6 v=33
138124 On ch=3 n=f6 v=0
138125 On ch=3 n=d#6 v=34
138180 On ch=3 n=d#6 v=0
138180 On ch=3 n=c#6 v=34
138235 On ch=3 n=c#6 v=0
138236 On ch=3 n=d#5 v=34
138281 On ch=3 n=d#5 v=0
138281 On ch=3 n=f5 v=34
138326 On ch=3 n=f5 v=0
138327 On ch=3 n=d#5 v=34
138355 On ch=3 n=d#5 v=0
138356 On ch=3 n=c#5 v=27
138399 On ch=3 n=c#5 v=0
138399 On ch=3 n=d#5 v=27
138441 On ch=3 n=d#5 v=0
138442 On ch=3 n=g5 v=27
138485 On ch=3 n=g5 v=0
138485 On ch=3 n=a#5 v=27
138548 On ch=3 n=a#5 v=0
138549 On ch=3 n=c#6 v=27
138614 On ch=3 n=c#6 v=0
138615 On ch=3 n=d#6 v=26
138679 On ch=3 n=d#6 v=0
138679 On ch=3 n=g6 v=26
138743 On ch=3 n=g6 v=0
138744 On ch=3 n=a#6 v=26
138808 On ch=3 n=a#6 v=0
138809 On ch=3 n=d#5 v=26
138852 On ch=3 n=d#5 v=0
138852 On ch=3 n=f5 v=26
138940 On ch=3 n=f5 v=0
138941 On ch=3 n=d#5 v=24
138991 On ch=3 n=d#5 v=0
138991 On ch=3 n=c#5 v=24
139040 On ch=3 n=c#5 v=0
139041 On ch=3 n=d#5 v=24
139091 On ch=3 n=d#5 v=0
139091 On ch=3 n=g5 v=24
139140 On ch=3 n=g5 v=0
139141 On ch=3 n=a#5 v=24
139182 On ch=3 n=a#5 v=0
139182 On ch=3 n=c#6 v=25
139249 On ch=3 n=c#6 v=0
139249 On ch=3 n=d#6 v=25
139315 On ch=3 n=d#6 v=0
139316 On ch=3 n=g6 v=25
139383 On ch=3 n=g6 v=0
139383 On ch=3 n=a#6 v=25
139480 On ch=3 n=a#6 v=0
141297 Par ch=3 c=64 v=127
144376 Par ch=3 c=64 v=0
144401 Par ch=3 c=64 v=127
145161 On ch=3 n=d5 v=51
145421 On ch=3 n=d5 v=0
147607 Par ch=3 c=64 v=0
147626 Par ch=3 c=64 v=127
150727 Par ch=3 c=64 v=0
150738 Par ch=3 c=64 v=127
152515 On ch=3 n=g#5 v=42
152515 On ch=3 n=c5 v=42
152781 On ch=3 n=c5 v=0
152781 On ch=3 n=g#5 v=0
152782 On ch=3 n=c6 v=44
152782 On ch=3 n=d#5 v=44
153030 On ch=3 n=d#5 v=0
153030 On ch=3 n=c6 v=0
153030 On ch=3 n=d#6 v=44
153030 On ch=3 n=g#5 v=44
153030 On ch=3 n=d#6 v=44
153154 On ch=3 n=g#5 v=0
153154 On ch=3 n=d#6 v=0
153416 On ch=3 n=d#6 v=0
154050 Par ch=3 c=64 v=0
154057 Par ch=3 c=64 v=127
157211 Par ch=3 c=64 v=0
157517 Par ch=3 c=64 v=127
160547 Par ch=3 c=64 v=0
160811 Par ch=3 c=64 v=127
162124 Par ch=3 c=64 v=0
162397 Par ch=3 c=64 v=127
163707 Par ch=3 c=64 v=0
163714 Par ch=3 c=64 v=127
166012 Par ch=3 c=64 v=0
167268 Par ch=3 c=64 v=127
170570 Par ch=3 c=64 v=0
170577 Par ch=3 c=64 v=127
173714 Par ch=3 c=64 v=0
173747 Par ch=3 c=64 v=127
176860 Par ch=3 c=64 v=0
176867 Par ch=3 c=64 v=127
179895 Par ch=3 c=64 v=0
180000 Par ch=3 c=64 v=127
182966 Par ch=3 c=64 v=0
182972 Par ch=3 c=64 v=127
186001 Par ch=3 c=64 v=0
186011 Par ch=3 c=64 v=127
187503 Par ch=3 c=64 v=0
187520 Par ch=3 c=64 v=127
189009 Par ch=3 c=64 v=0
189019 Par ch=3 c=64 v=127
190021 Par ch=3 c=64 v=0
194009 Par ch=3 c=64 v=127
194689 Par ch=3 c=64 v=0
194779 Par ch=3 c=64 v=127
194848 On ch=3 n=e5 v=87
194848 On ch=3 n=a#4 v=87
195033 On ch=3 n=a#4 v=0
195033 On ch=3 n=e5 v=0
195034 On ch=3 n=e5 v=83
195034 On ch=3 n=a#4 v=83
195210 On ch=3 n=a#4 v=0
195210 On ch=3 n=e5 v=0
195210 On ch=3 n=e5 v=78
195210 On ch=3 n=a#4 v=78
195401 On ch=3 n=a#4 v=0
195401 On ch=3 n=e5 v=0
195402 On ch=3 n=e5 v=76
195402 On ch=3 n=a#4 v=76
195578 On ch=3 n=a#4 v=0
195578 On ch=3 n=e5 v=0
195578 On ch=3 n=e5 v=77
195578 On ch=3 n=a#4 v=77
195754 On ch=3 n=a#4 v=0
195754 On ch=3 n=e5 v=0
195754 Par ch=3 c=64 v=0
195847 Par ch=3 c=64 v=127
195958 On ch=3 n=f5 v=72
195958 On ch=3 n=a#4 v=72
196146 On ch=3 n=a#4 v=0
196146 On ch=3 n=f5 v=0
196147 On ch=3 n=f5 v=75
196147 On ch=3 n=a#4 v=75
196342 On ch=3 n=a#4 v=0
196342 On ch=3 n=f5 v=0
196343 On ch=3 n=f5 v=73
196343 On ch=3 n=a#4 v=73
196514 On ch=3 n=a#4 v=0
196514 On ch=3 n=f5 v=0
196514 On ch=3 n=f5 v=73
196514 On ch=3 n=a#4 v=73
196690 On ch=3 n=a#4 v=0
196690 On ch=3 n=f5 v=0
196690 On ch=3 n=f5 v=75
196690 On ch=3 n=a#4 v=75
196876 On ch=3 n=a#4 v=0
196876 On ch=3 n=f5 v=0
196876 On ch=3 n=e5 v=83
196876 On ch=3 n=c5 v=83
197059 Par ch=3 c=64 v=0
197060 On ch=3 n=c5 v=0
197060 On ch=3 n=e5 v=0
198814 Par ch=3 c=64 v=127
198883 On ch=3 n=e6 v=87
198883 On ch=3 n=a#5 v=87
199032 On ch=3 n=a#5 v=0
199032 On ch=3 n=e6 v=0
199032 On ch=3 n=e6 v=87
199032 On ch=3 n=a#5 v=87
199181 On ch=3 n=a#5 v=0
199181 On ch=3 n=e6 v=0
199182 On ch=3 n=e6 v=87
199182 On ch=3 n=a#5 v=87
199333 On ch=3 n=a#5 v=0
199333 On ch=3 n=e6 v=0
199333 On ch=3 n=e6 v=87
199333 On ch=3 n=a#5 v=87
199490 On ch=3 n=a#5 v=0
199490 On ch=3 n=e6 v=0
199490 On ch=3 n=e6 v=87
199490 On ch=3 n=a#5 v=87
199645 Par ch=3 c=64 v=0
199665 On ch=3 n=a#5 v=0
199665 On ch=3 n=e6 v=0
199669 Par ch=3 c=64 v=127
199841 On ch=3 n=f6 v=88
199841 On ch=3 n=b5 v=88
200021 On ch=3 n=b5 v=0
200021 On ch=3 n=f6 v=0
200022 On ch=3 n=f6 v=87
200209 On ch=3 n=f6 v=0
200209 On ch=3 n=f6 v=91
200209 On ch=3 n=b5 v=91
200378 On ch=3 n=b5 v=0
200378 On ch=3 n=f6 v=0
200720 Par ch=3 c=64 v=0
201116 On ch=3 n=c#6 v=86
201163 On ch=3 n=c#6 v=0
201163 On ch=3 n=c6 v=86
201210 On ch=3 n=c6 v=0
201210 On ch=3 n=c#6 v=86
201257 On ch=3 n=c#6 v=0
201258 On ch=3 n=c6 v=86
201303 On ch=3 n=c6 v=0
201303 On ch=3 n=c#6 v=86
201350 On ch=3 n=c#6 v=0
201350 On ch=3 n=c6 v=86
201396 On ch=3 n=c6 v=0
201397 On ch=3 n=c#6 v=86
201443 On ch=3 n=c#6 v=0
201443 On ch=3 n=c6 v=86
201510 On ch=3 n=c6 v=0
201511 On ch=3 n=a#5 v=92
201562 On ch=3 n=a#5 v=0
201563 On ch=3 n=c6 v=92
201615 On ch=3 n=c6 v=0
201615 On ch=3 n=d#6 v=92
201667 On ch=3 n=d#6 v=0
201667 On ch=3 n=c#6 v=92
201691 On ch=3 n=c#6 v=0
201691 On ch=3 n=d#6 v=88
201736 On ch=3 n=d#6 v=0
201737 On ch=3 n=c#6 v=88
201782 On ch=3 n=c#6 v=0
201782 On ch=3 n=d#6 v=88
201827 On ch=3 n=d#6 v=0
201827 On ch=3 n=c#6 v=88
201915 On ch=3 n=c#6 v=0
201915 On ch=3 n=a#5 v=87
201971 On ch=3 n=a#5 v=0
201972 On ch=3 n=c#6 v=87
202027 On ch=3 n=c#6 v=0
202027 On ch=3 n=d#6 v=87
202083 On ch=3 n=d#6 v=0
202083 On ch=3 n=d6 v=87
202087 Par ch=3 c=64 v=127
202137 On ch=3 n=d6 v=0
202137 On ch=3 n=d#6 v=92
202192 On ch=3 n=d#6 v=0
202193 On ch=3 n=d6 v=92
202248 On ch=3 n=d6 v=0
202248 On ch=3 n=d#6 v=92
202304 On ch=3 n=d#6 v=0
202304 On ch=3 n=d6 v=92
202327 On ch=3 n=d6 v=0
202328 On ch=3 n=d#6 v=88
202375 On ch=3 n=d#6 v=0
202375 On ch=3 n=d6 v=88
202422 On ch=3 n=d6 v=0
202422 On ch=3 n=d#6 v=88
202469 On ch=3 n=d#6 v=0
202470 On ch=3 n=d6 v=88
202513 On ch=3 n=d6 v=0
202513 On ch=3 n=d6 v=88
202559 On ch=3 n=d6 v=0
202560 On ch=3 n=f6 v=88
202606 On ch=3 n=f6 v=0
202606 On ch=3 n=g#6 v=88
202652 On ch=3 n=g#6 v=0
202653 On ch=3 n=a#6 v=88
202696 On ch=3 n=a#6 v=0
202696 On ch=3 n=d7 v=88
202741 On ch=3 n=d7 v=0
202742 On ch=3 n=f7 v=88
202787 On ch=3 n=f7 v=0
202788 On ch=3 n=g#7 v=88
202833 On ch=3 n=g#7 v=0
202834 On ch=3 n=b7 v=88
202879 On ch=3 n=b7 v=0
202879 On ch=3 n=a#7 v=88
202924 On ch=3 n=a#7 v=0
202925 On ch=3 n=g#7 v=88
202970 On ch=3 n=g#7 v=0
202971 On ch=3 n=f7 v=88
203016 On ch=3 n=f7 v=0
203017 On ch=3 n=d7 v=88
203061 On ch=3 n=d7 v=0
203061 On ch=3 n=a#6 v=88
203121 On ch=3 n=a#6 v=0
203122 On ch=3 n=g#6 v=88
203182 On ch=3 n=g#6 v=0
203183 On ch=3 n=f6 v=88
203231 On ch=3 n=f6 v=0
203232 On ch=3 n=d6 v=88
203288 On ch=3 n=d6 v=0
203288 On ch=3 n=b5 v=88
203344 On ch=3 n=b5 v=0
203345 On ch=3 n=a#5 v=88
203400 Par ch=3 c=64 v=0
203438 On ch=3 n=a#5 v=0
203439 On ch=3 n=e6 v=92
203490 On ch=3 n=e6 v=0
203490 On ch=3 n=d#6 v=92
203542 On ch=3 n=d#6 v=0
203543 On ch=3 n=e6 v=92
203594 On ch=3 n=e6 v=0
203594 On ch=3 n=d#6 v=92
203632 On ch=3 n=d#6 v=0
203633 On ch=3 n=e6 v=88
203681 On ch=3 n=e6 v=0
203681 On ch=3 n=d#6 v=88
203729 On ch=3 n=d#6 v=0
203729 On ch=3 n=e6 v=88
203777 On ch=3 n=e6 v=0
203777 On ch=3 n=d#6 v=88
203825 On ch=3 n=d#6 v=0
203825 On ch=3 n=d6 v=88
203873 On ch=3 n=d6 v=0
203873 On ch=3 n=d#6 v=88
203921 On ch=3 n=d#6 v=0
203922 On ch=3 n=f#6 v=88
203970 On ch=3 n=f#6 v=0
203970 On ch=3 n=e6 v=88
204022 On ch=3 n=e6 v=0
204022 On ch=3 n=f#6 v=88
204070 On ch=3 n=f#6 v=0
204071 On ch=3 n=e6 v=88
204119 On ch=3 n=e6 v=0
204120 On ch=3 n=f#6 v=88
204168 On ch=3 n=f#6 v=0
204169 On ch=3 n=e6 v=88
204233 On ch=3 n=e6 v=0
204233 On ch=3 n=d#6 v=90
204285 On ch=3 n=d#6 v=0
204286 On ch=3 n=e6 v=90
204338 On ch=3 n=e6 v=0
204339 On ch=3 n=f#6 v=90
204391 On ch=3 n=f#6 v=0
204392 On ch=3 n=f6 v=90
204395 Par ch=3 c=64 v=127
204429 On ch=3 n=f6 v=0
204430 On ch=3 n=f#6 v=88
204478 On ch=3 n=f#6 v=0
204479 On ch=3 n=f6 v=88
204527 On ch=3 n=f6 v=0
204528 On ch=3 n=f#6 v=88
204576 On ch=3 n=f#6 v=0
204577 On ch=3 n=f6 v=88
204632 On ch=3 n=f6 v=0
204632 On ch=3 n=f#6 v=88
204682 On ch=3 n=f#6 v=0
204683 On ch=3 n=f6 v=88
204733 On ch=3 n=f6 v=0
204733 On ch=3 n=f#6 v=88
204783 On ch=3 n=f#6 v=0
204784 On ch=3 n=f6 v=88
204832 On ch=3 n=f6 v=0
204833 On ch=3 n=f6 v=88
204882 On ch=3 n=f6 v=0
204882 On ch=3 n=g#6 v=88
204932 On ch=3 n=g#6 v=0
204933 On ch=3 n=b6 v=88
204982 On ch=3 n=b6 v=0
204983 On ch=3 n=c#7 v=88
205036 On ch=3 n=c#7 v=0
205036 On ch=3 n=f7 v=88
205086 On ch=3 n=f7 v=0
205087 On ch=3 n=g#7 v=88
205138 On ch=3 n=g#7 v=0
205138 On ch=3 n=b7 v=88
205188 On ch=3 n=b7 v=0
205189 On ch=3 n=d8 v=88
205241 On ch=3 n=d8 v=0
205242 On ch=3 n=c#8 v=88
205293 On ch=3 n=c#8 v=0
205293 On ch=3 n=b7 v=88
205344 On ch=3 n=b7 v=0
205344 On ch=3 n=g#7 v=88
205395 On ch=3 n=g#7 v=0
205395 On ch=3 n=f7 v=88
205450 On ch=3 n=f7 v=0
205451 On ch=3 n=c#7 v=88
205520 On ch=3 n=c#7 v=0
205520 On ch=3 n=b6 v=88
205589 On ch=3 n=b6 v=0
205590 On ch=3 n=g#6 v=88
205656 On ch=3 n=g#6 v=0
205656 On ch=3 n=f6 v=88
205723 On ch=3 n=f6 v=0
205724 On ch=3 n=d6 v=88
205792 On ch=3 n=d6 v=0
205793 On ch=3 n=c#6 v=88
205857 Par ch=3 c=64 v=0
205861 On ch=3 n=c#6 v=0
205861 On ch=3 n=g6 v=88
205912 On ch=3 n=g6 v=0
205913 On ch=3 n=f#6 v=88
205964 On ch=3 n=f#6 v=0
205964 On ch=3 n=g6 v=88
206015 On ch=3 n=g6 v=0
206015 On ch=3 n=f#6 v=88
206022 On ch=3 n=f#6 v=0
206023 On ch=3 n=g6 v=88
206064 On ch=3 n=g6 v=0
206064 On ch=3 n=f#6 v=88
206104 On ch=3 n=f#6 v=0
206104 On ch=3 n=g6 v=88
206145 On ch=3 n=g6 v=0
206145 On ch=3 n=f#6 v=88
206222 On ch=3 n=f#6 v=0
206223 On ch=3 n=f6 v=88
206272 On ch=3 n=f6 v=0
206273 On ch=3 n=f#6 v=88
206322 On ch=3 n=f#6 v=0
206322 On ch=3 n=a6 v=88
206371 On ch=3 n=a6 v=0
206372 On ch=3 n=g6 v=88
206393 On ch=3 n=g6 v=0
206393 On ch=3 n=a6 v=88
206436 On ch=3 n=a6 v=0
206437 On ch=3 n=g6 v=88
206479 On ch=3 n=g6 v=0
206479 On ch=3 n=f#6 v=88
206521 On ch=3 n=f#6 v=0
206522 On ch=3 n=g6 v=88
206593 On ch=3 n=g6 v=0
206593 On ch=3 n=g#6 v=88
206652 On ch=3 n=g#6 v=0
206652 On ch=3 n=a6 v=88
206712 On ch=3 n=a6 v=0
206712 On ch=3 n=g#6 v=88
206745 Par ch=3 c=64 v=127
206764 On ch=3 n=g#6 v=0
206765 On ch=3 n=g6 v=88
206802 On ch=3 n=g6 v=0
206802 On ch=3 n=g#6 v=88
206854 On ch=3 n=g#6 v=0
206854 On ch=3 n=b6 v=88
206906 On ch=3 n=b6 v=0
206907 On ch=3 n=d7 v=88
206991 On ch=3 n=d7 v=0
206991 On ch=3 n=f7 v=88
207052 On ch=3 n=f7 v=0
207053 On ch=3 n=g#7 v=88
207113 On ch=3 n=g#7 v=0
207113 On ch=3 n=b7 v=88
207169 On ch=3 n=b7 v=0
207170 On ch=3 n=d8 v=88
207229 On ch=3 n=d8 v=0
207229 On ch=3 n=f8 v=88
207289 On ch=3 n=f8 v=0
207289 On ch=3 n=e8 v=88
207348 On ch=3 n=e8 v=0
207349 On ch=3 n=d8 v=88
207400 On ch=3 n=d8 v=0
207400 On ch=3 n=b7 v=88
207457 On ch=3 n=b7 v=0
207458 On ch=3 n=g#7 v=88
207515 On ch=3 n=g#7 v=0
207515 On ch=3 n=e7 v=88
207571 On ch=3 n=e7 v=0
207572 On ch=3 n=d7 v=88
207628 On ch=3 n=d7 v=0
207629 On ch=3 n=b6 v=88
207686 On ch=3 n=b6 v=0
207687 On ch=3 n=g#6 v=88
207740 Par ch=3 c=64 v=0
207755 On ch=3 n=g#6 v=0
207755 On ch=3 n=g6 v=88
207815 On ch=3 n=g6 v=0
207815 On ch=3 n=g#6 v=88
207875 On ch=3 n=g#6 v=0
207876 On ch=3 n=g6 v=88
207936 On ch=3 n=g6 v=0
207937 On ch=3 n=f#6 v=88
207997 On ch=3 n=f#6 v=0
207997 On ch=3 n=g6 v=88
208057 On ch=3 n=g6 v=0
208057 On ch=3 n=a#6 v=88
208117 On ch=3 n=a#6 v=0
208118 On ch=3 n=c#7 v=88
208148 Par ch=3 c=64 v=127
208164 On ch=3 n=c#7 v=0
208164 On ch=3 n=e7 v=83
208220 On ch=3 n=e7 v=0
208221 On ch=3 n=g7 v=83
208277 On ch=3 n=g7 v=0
208278 On ch=3 n=a#7 v=83
208353 On ch=3 n=a#7 v=0
208354 On ch=3 n=c#8 v=83
208416 On ch=3 n=c#8 v=0
208416 On ch=3 n=e8 v=83
208477 On ch=3 n=e8 v=0
208478 On ch=3 n=d#8 v=83
208540 On ch=3 n=d#8 v=0
208540 On ch=3 n=c#8 v=83
208600 On ch=3 n=c#8 v=0
208601 On ch=3 n=a#7 v=88
208662 On ch=3 n=a#7 v=0
208662 On ch=3 n=g7 v=88
208723 On ch=3 n=g7 v=0
208724 On ch=3 n=d#7 v=88
208772 On ch=3 n=d#7 v=0
208772 On ch=3 n=c#7 v=88
208830 On ch=3 n=c#7 v=0
208830 On ch=3 n=a#6 v=88
208887 On ch=3 n=a#6 v=0
208888 On ch=3 n=g6 v=88
208943 Par ch=3 c=64 v=0
208957 On ch=3 n=g6 v=0
208958 On ch=3 n=f#6 v=88
209018 On ch=3 n=f#6 v=0
209018 On ch=3 n=f#6 v=88
209079 On ch=3 n=f#6 v=0
209080 On ch=3 n=f#6 v=88
209141 On ch=3 n=f#6 v=0
209142 On ch=3 n=f6 v=88
209199 On ch=3 n=f6 v=0
209199 On ch=3 n=f#6 v=88
209259 On ch=3 n=f#6 v=0
209259 On ch=3 n=a6 v=88
209319 On ch=3 n=a6 v=0
209320 On ch=3 n=c7 v=88
209371 Par ch=3 c=64 v=127
209388 On ch=3 n=c7 v=0
209389 On ch=3 n=d#7 v=88
209452 On ch=3 n=d#7 v=0
209452 On ch=3 n=f#7 v=88
209514 On ch=3 n=f#7 v=0
209514 On ch=3 n=a7 v=88
209583 On ch=3 n=a7 v=0
209584 On ch=3 n=c8 v=88
209648 On ch=3 n=c8 v=0
209648 On ch=3 n=d#8 v=88
209712 On ch=3 n=d#8 v=0
209713 On ch=3 n=d8 v=88
209776 On ch=3 n=d8 v=0
209777 On ch=3 n=c8 v=88
209822 On ch=3 n=c8 v=0
209822 On ch=3 n=a7 v=88
209882 On ch=3 n=a7 v=0
209882 On ch=3 n=f#7 v=88
209941 On ch=3 n=f#7 v=0
209941 On ch=3 n=d7 v=88
209989 On ch=3 n=d7 v=0
209989 On ch=3 n=c7 v=88
210045 On ch=3 n=c7 v=0
210046 On ch=3 n=a6 v=88
210102 On ch=3 n=a6 v=0
210103 On ch=3 n=f#6 v=88
210157 Par ch=3 c=64 v=0
210171 On ch=3 n=f#6 v=0
210172 On ch=3 n=f6 v=88
210232 On ch=3 n=f6 v=0
210232 On ch=3 n=f#6 v=88
210292 On ch=3 n=f#6 v=0
210292 On ch=3 n=f6 v=88
210352 On ch=3 n=f6 v=0
210352 On ch=3 n=e6 v=88
210400 On ch=3 n=e6 v=0
210401 On ch=3 n=f6 v=85
210458 On ch=3 n=f6 v=0
210458 On ch=3 n=g#6 v=85
210514 On ch=3 n=g#6 v=0
210515 On ch=3 n=b6 v=85
210573 Par ch=3 c=64 v=127
210590 On ch=3 n=b6 v=0
210590 On ch=3 n=d7 v=83
210651 On ch=3 n=d7 v=0
210652 On ch=3 n=f7 v=83
210714 On ch=3 n=f7 v=0
210714 On ch=3 n=g#7 v=83
210777 On ch=3 n=g#7 v=0
210777 On ch=3 n=b7 v=73
210839 On ch=3 n=b7 v=0
210840 On ch=3 n=d8 v=73
210901 On ch=3 n=d8 v=0
210901 On ch=3 n=c#8 v=73
210963 On ch=3 n=c#8 v=0
210964 On ch=3 n=b7 v=73
211037 On ch=3 n=b7 v=0
211037 On ch=3 n=g#7 v=67
211101 On ch=3 n=g#7 v=0
211102 On ch=3 n=f7 v=67
211166 On ch=3 n=f7 v=0
211167 On ch=3 n=c#7 v=67
211230 On ch=3 n=c#7 v=0
211230 On ch=3 n=b6 v=66
211294 On ch=3 n=b6 v=0
211294 On ch=3 n=g#6 v=66
211357 On ch=3 n=g#6 v=0
211358 On ch=3 n=f6 v=66
211411 Par ch=3 c=64 v=0
211413 On ch=3 n=f6 v=0
211414 On ch=3 n=e6 v=66
211475 On ch=3 n=e6 v=0
211475 On ch=3 n=f6 v=66
211536 On ch=3 n=f6 v=0
211537 On ch=3 n=e6 v=66
211598 On ch=3 n=e6 v=0
211598 On ch=3 n=d#6 v=66
211686 On ch=3 n=d#6 v=0
211687 On ch=3 n=e6 v=65
211754 On ch=3 n=e6 v=0
211755 On ch=3 n=g6 v=65
211822 On ch=3 n=g6 v=0
211823 On ch=3 n=a#6 v=65
211868 Par ch=3 c=64 v=127
211886 On ch=3 n=a#6 v=0
211887 On ch=3 n=c#7 v=59
211954 On ch=3 n=c#7 v=0
211954 On ch=3 n=e7 v=59
212021 On ch=3 n=e7 v=0
212021 On ch=3 n=g7 v=59
212095 On ch=3 n=g7 v=0
212095 On ch=3 n=a#7 v=59
212164 On ch=3 n=a#7 v=0
212164 On ch=3 n=c#8 v=59
212232 On ch=3 n=c#8 v=0
212233 On ch=3 n=c8 v=59
212302 On ch=3 n=c8 v=0
212303 On ch=3 n=a#7 v=59
212360 On ch=3 n=a#7 v=0
212360 On ch=3 n=g7 v=56
212426 On ch=3 n=g7 v=0
212427 On ch=3 n=e7 v=56
212509 On ch=3 n=e7 v=0
212509 On ch=3 n=c7 v=56
212619 On ch=3 n=c7 v=0
212620 On ch=3 n=a#6 v=53
212711 On ch=3 n=a#6 v=0
212712 On ch=3 n=g6 v=53
212796 Par ch=3 c=64 v=0
212798 On ch=3 n=g6 v=0
212798 On ch=3 n=e6 v=54
212804 Par ch=3 c=64 v=127
212869 On ch=3 n=e6 v=0
212869 On ch=3 n=f6 v=54
212940 On ch=3 n=f6 v=0
212940 On ch=3 n=e6 v=54
213011 On ch=3 n=e6 v=0
213012 On ch=3 n=d#6 v=54
213084 On ch=3 n=d#6 v=0
213085 On ch=3 n=e6 v=49
213156 On ch=3 n=e6 v=0
213157 On ch=3 n=g6 v=49
213228 On ch=3 n=g6 v=0
213228 On ch=3 n=a#6 v=49
213278 On ch=3 n=a#6 v=0
213278 On ch=3 n=c#7 v=51
213343 On ch=3 n=c#7 v=0
213344 On ch=3 n=e7 v=51
213409 On ch=3 n=e7 v=0
213409 On ch=3 n=g7 v=51
213486 On ch=3 n=g7 v=0
213487 On ch=3 n=a#7 v=51
213556 On ch=3 n=a#7 v=0
213556 On ch=3 n=c#8 v=51
213624 On ch=3 n=c#8 v=0
213625 On ch=3 n=c8 v=51
213694 On ch=3 n=c8 v=0
213694 On ch=3 n=a#7 v=51
213765 On ch=3 n=a#7 v=0
213766 On ch=3 n=g7 v=48
213835 On ch=3 n=g7 v=0
213836 On ch=3 n=e7 v=48
213906 On ch=3 n=e7 v=0
213906 On ch=3 n=c#7 v=48
214013 On ch=3 n=c#7 v=0
214013 On ch=3 n=a#6 v=56
214093 On ch=3 n=a#6 v=0
214094 On ch=3 n=g6 v=56
214173 On ch=3 n=g6 v=0
214174 On ch=3 n=e6 v=56
214198 Par ch=3 c=64 v=0
214200 On ch=3 n=e6 v=0
214200 On ch=3 n=c#6 v=59
214204 Par ch=3 c=64 v=127
214263 On ch=3 n=c#6 v=0
214264 On ch=3 n=d#6 v=59
214327 On ch=3 n=d#6 v=0
214328 On ch=3 n=c#6 v=59
214392 On ch=3 n=c#6 v=0
214393 On ch=3 n=c6 v=59
214475 On ch=3 n=c6 v=0
214476 On ch=3 n=c#6 v=54
214544 On ch=3 n=c#6 v=0
214545 On ch=3 n=e6 v=54
214614 On ch=3 n=e6 v=0
214614 On ch=3 n=g6 v=54
214681 On ch=3 n=g6 v=0
214681 On ch=3 n=a#6 v=51
214749 On ch=3 n=a#6 v=0
214750 On ch=3 n=c#7 v=51
214817 On ch=3 n=c#7 v=0
214818 On ch=3 n=e7 v=51
214897 On ch=3 n=e7 v=0
214898 On ch=3 n=g7 v=50
214969 On ch=3 n=g7 v=0
214969 On ch=3 n=c8 v=50
215040 On ch=3 n=c8 v=0
215041 On ch=3 n=a#7 v=50
215112 On ch=3 n=a#7 v=0
215113 On ch=3 n=g7 v=50
215200 On ch=3 n=g7 v=0
215201 On ch=3 n=e7 v=42
215276 On ch=3 n=e7 v=0
215277 On ch=3 n=c#7 v=42
215352 On ch=3 n=c#7 v=0
215352 On ch=3 n=a#6 v=42
215411 On ch=3 n=a#6 v=0
215412 On ch=3 n=g6 v=46
215483 On ch=3 n=g6 v=0
215483 On ch=3 n=e6 v=46
215554 On ch=3 n=e6 v=0
215554 On ch=3 n=c#6 v=46
215637 Par ch=3 c=64 v=0
215638 On ch=3 n=c#6 v=0
215639 On ch=3 n=a#5 v=39
215645 Par ch=3 c=64 v=127
215714 On ch=3 n=a#5 v=0
215715 On ch=3 n=c6 v=39
215790 On ch=3 n=c6 v=0
215790 On ch=3 n=a#5 v=39
215865 On ch=3 n=a#5 v=0
215865 On ch=3 n=a5 v=39
215924 On ch=3 n=a5 v=0
215924 On ch=3 n=a#5 v=49
215995 On ch=3 n=a#5 v=0
215996 On ch=3 n=c#6 v=49
216067 On ch=3 n=c#6 v=0
216067 On ch=3 n=e6 v=49
216145 On ch=3 n=e6 v=0
216146 On ch=3 n=g6 v=51
216219 On ch=3 n=g6 v=0
216219 On ch=3 n=a#6 v=51
216292 On ch=3 n=a#6 v=0
216293 On ch=3 n=c#7 v=51
216367 On ch=3 n=c#7 v=0
216367 On ch=3 n=e7 v=55
216440 On ch=3 n=e7 v=0
216440 On ch=3 n=g#7 v=55
216514 On ch=3 n=g#7 v=0
216514 On ch=3 n=g7 v=55
216587 On ch=3 n=g7 v=0
216588 On ch=3 n=e7 v=55
216659 On ch=3 n=e7 v=0
216660 On ch=3 n=c#7 v=47
216733 On ch=3 n=c#7 v=0
216733 On ch=3 n=a#6 v=47
216805 On ch=3 n=a#6 v=0
216806 On ch=3 n=g6 v=47
216879 On ch=3 n=g6 v=0
216879 On ch=3 n=e6 v=50
216952 On ch=3 n=e6 v=0
216953 On ch=3 n=c#6 v=50
217025 On ch=3 n=c#6 v=0
217025 On ch=3 n=a#5 v=50
217088 Par ch=3 c=64 v=0
217090 On ch=3 n=a#5 v=0
217091 On ch=3 n=g5 v=50
217095 Par ch=3 c=64 v=127
217162 On ch=3 n=g5 v=0
217162 On ch=3 n=g#5 v=50
217232 On ch=3 n=g#5 v=0
217232 On ch=3 n=g5 v=50
217302 On ch=3 n=g5 v=0
217302 On ch=3 n=f#5 v=57
217347 On ch=3 n=f#5 v=0
217347 On ch=3 n=g5 v=57
217410 On ch=3 n=g5 v=0
217411 On ch=3 n=a#5 v=57
217475 On ch=3 n=a#5 v=0
217476 On ch=3 n=c#6 v=57
217558 On ch=3 n=c#6 v=0
217559 On ch=3 n=e6 v=55
217628 On ch=3 n=e6 v=0
217628 On ch=3 n=g6 v=55
217697 On ch=3 n=g6 v=0
217698 On ch=3 n=a#6 v=55
217760 On ch=3 n=a#6 v=0
217760 On ch=3 n=c#7 v=62
217827 On ch=3 n=c#7 v=0
217827 On ch=3 n=f#7 v=62
217894 On ch=3 n=f#7 v=0
217894 On ch=3 n=e7 v=62
217961 On ch=3 n=e7 v=0
217962 On ch=3 n=c7 v=62
218012 On ch=3 n=c7 v=0
218012 On ch=3 n=a#6 v=62
218075 On ch=3 n=a#6 v=0
218075 On ch=3 n=g6 v=62
218138 On ch=3 n=g6 v=0
218138 On ch=3 n=e6 v=62
218231 On ch=3 n=e6 v=0
218232 On ch=3 n=c#6 v=59
218303 On ch=3 n=c#6 v=0
218303 On ch=3 n=a#5 v=59
218374 On ch=3 n=a#5 v=0
218374 On ch=3 n=g5 v=59
218430 Par ch=3 c=64 v=0
218432 On ch=3 n=g5 v=0
218433 On ch=3 n=e5 v=63
218437 Par ch=3 c=64 v=127
218489 On ch=3 n=e5 v=0
218489 On ch=3 n=f#5 v=63
218545 On ch=3 n=f#5 v=0
218545 On ch=3 n=e5 v=63
218601 On ch=3 n=e5 v=0
218602 On ch=3 n=d#5 v=63
218660 On ch=3 n=d#5 v=0
218660 On ch=3 n=e5 v=67
218716 On ch=3 n=e5 v=0
218717 On ch=3 n=g5 v=67
218773 On ch=3 n=g5 v=0
218774 On ch=3 n=a#5 v=67
218830 On ch=3 n=a#5 v=0
218831 On ch=3 n=c#6 v=67
218894 On ch=3 n=c#6 v=0
218895 On ch=3 n=e6 v=75
218953 On ch=3 n=e6 v=0
218953 On ch=3 n=g6 v=75
219011 On ch=3 n=g6 v=0
219012 On ch=3 n=a#6 v=75
219071 On ch=3 n=a#6 v=0
219071 On ch=3 n=d#7 v=75
219109 On ch=3 n=d#7 v=0
219109 On ch=3 n=c#7 v=77
219162 On ch=3 n=c#7 v=0
219163 On ch=3 n=a#6 v=77
219216 On ch=3 n=a#6 v=0
219217 On ch=3 n=g6 v=77
219270 On ch=3 n=g6 v=0
219270 On ch=3 n=e6 v=77
219339 On ch=3 n=e6 v=0
219340 On ch=3 n=c#6 v=75
219397 On ch=3 n=c#6 v=0
219398 On ch=3 n=a#5 v=75
219455 On ch=3 n=a#5 v=0
219455 On ch=3 n=g5 v=75
219512 On ch=3 n=g5 v=0
219513 On ch=3 n=e5 v=75
219569 On ch=3 n=e5 v=0
219601 Par ch=3 c=64 v=0
219605 On ch=3 n=d#5 v=67
219609 Par ch=3 c=64 v=127
219661 On ch=3 n=d#5 v=0
219662 On ch=3 n=f5 v=67
219718 On ch=3 n=f5 v=0
219719 On ch=3 n=d#5 v=67
219775 On ch=3 n=d#5 v=0
219776 On ch=3 n=d5 v=67
219827 On ch=3 n=d5 v=0
219827 On ch=3 n=d#5 v=60
219882 On ch=3 n=d#5 v=0
219882 On ch=3 n=f#5 v=60
219938 On ch=3 n=f#5 v=0
219938 On ch=3 n=a#5 v=60
219993 On ch=3 n=a#5 v=0
219994 On ch=3 n=c#6 v=60
220052 On ch=3 n=c#6 v=0
220052 On ch=3 n=d#6 v=65
220108 On ch=3 n=d#6 v=0
220109 On ch=3 n=f#6 v=65
220165 On ch=3 n=f#6 v=0
220165 On ch=3 n=a#6 v=65
220212 On ch=3 n=a#6 v=0
220212 On ch=3 n=c#7 v=65
220247 On ch=3 n=c#7 v=0
220248 On ch=3 n=d7 v=65
220297 On ch=3 n=d7 v=0
220298 On ch=3 n=d#7 v=65
220347 On ch=3 n=d#7 v=0
220347 On ch=3 n=c8 v=65
220397 On ch=3 n=c8 v=0
220398 On ch=3 n=a#7 v=65
220492 On ch=3 n=a#7 v=0
220493 On ch=3 n=f#7 v=64
220553 On ch=3 n=f#7 v=0
220553 On ch=3 n=d#7 v=64
220612 On ch=3 n=d#7 v=0
220612 On ch=3 n=c#7 v=64
220672 On ch=3 n=c#7 v=0
220672 On ch=3 n=a#6 v=64
220728 On ch=3 n=a#6 v=0
220729 On ch=3 n=f#6 v=60
220788 On ch=3 n=f#6 v=0
220788 On ch=3 n=d#6 v=60
220846 On ch=3 n=d#6 v=0
220846 On ch=3 n=c#6 v=60
220905 On ch=3 n=c#6 v=0
220905 On ch=3 n=a#5 v=60
220953 On ch=3 n=a#5 v=0
220954 On ch=3 n=f#5 v=55
221007 Par ch=3 c=64 v=0
221010 On ch=3 n=f#5 v=0
221010 On ch=3 n=e5 v=55
221066 On ch=3 n=e5 v=0
221067 On ch=3 n=f#5 v=55
221070 Par ch=3 c=64 v=127
221123 On ch=3 n=f#5 v=0
221123 On ch=3 n=e5 v=55
221191 On ch=3 n=e5 v=0
221192 On ch=3 n=d#5 v=49
221251 On ch=3 n=d#5 v=0
221251 On ch=3 n=e5 v=49
221310 On ch=3 n=e5 v=0
221310 On ch=3 n=g5 v=49
221366 On ch=3 n=g5 v=0
221367 On ch=3 n=a#5 v=52
221405 On ch=3 n=a#5 v=0
221406 On ch=3 n=c#6 v=52
221459 On ch=3 n=c#6 v=0
221460 On ch=3 n=e6 v=52
221514 On ch=3 n=e6 v=0
221514 On ch=3 n=g6 v=52
221568 On ch=3 n=g6 v=0
221569 On ch=3 n=a#6 v=52
221613 On ch=3 n=a#6 v=0
221613 On ch=3 n=c#7 v=59
221665 On ch=3 n=c#7 v=0
221665 On ch=3 n=e7 v=59
221717 On ch=3 n=e7 v=0
221717 On ch=3 n=g7 v=59
221769 On ch=3 n=g7 v=0
221769 On ch=3 n=a#7 v=59
221844 On ch=3 n=a#7 v=0
221844 On ch=3 n=d#8 v=61
221900 On ch=3 n=d#8 v=0
221901 On ch=3 n=c#8 v=61
221958 On ch=3 n=c#8 v=0
221959 On ch=3 n=a#7 v=61
222015 On ch=3 n=a#7 v=0
222015 On ch=3 n=g7 v=61
222086 On ch=3 n=g7 v=0
222087 On ch=3 n=e7 v=67
222147 On ch=3 n=e7 v=0
222147 On ch=3 n=c#7 v=67
222207 On ch=3 n=c#7 v=0
222207 On ch=3 n=a#6 v=67
222267 On ch=3 n=a#6 v=0
222267 On ch=3 n=g6 v=67
222331 On ch=3 n=g6 v=0
222331 On ch=3 n=e6 v=58
222391 On ch=3 n=e6 v=0
222392 On ch=3 n=c#6 v=58
222452 On ch=3 n=c#6 v=0
222453 On ch=3 n=a#5 v=58
222512 On ch=3 n=a#5 v=0
222512 On ch=3 n=g5 v=53
222551 On ch=3 n=g5 v=0
222552 On ch=3 n=e5 v=53
222555 Par ch=3 c=64 v=127
222604 Par ch=3 c=64 v=0
222608 On ch=3 n=e5 v=0
222608 On ch=3 n=d#5 v=53
222664 On ch=3 n=d#5 v=0
222664 On ch=3 n=f5 v=53
222737 On ch=3 n=f5 v=0
222737 On ch=3 n=d#5 v=57
222812 On ch=3 n=d#5 v=0
222813 On ch=3 n=d5 v=57
222890 On ch=3 n=d5 v=0
222890 On ch=3 n=d#5 v=57
222972 On ch=3 n=d#5 v=0
222973 On ch=3 n=f#5 v=63
223050 On ch=3 n=f#5 v=0
223050 On ch=3 n=a#5 v=63
223128 On ch=3 n=a#5 v=0
223129 On ch=3 n=c#6 v=63
223179 On ch=3 n=c#6 v=0
223180 On ch=3 n=d#6 v=66
223248 On ch=3 n=d#6 v=0
223249 On ch=3 n=f#6 v=66
223319 On ch=3 n=f#6 v=0
223319 On ch=3 n=a#6 v=66
223383 On ch=3 n=a#6 v=0
223384 On ch=3 n=c#7 v=67
223451 On ch=3 n=c#7 v=0
223451 On ch=3 n=d#7 v=67
223519 On ch=3 n=d#7 v=0
223519 On ch=3 n=f#7 v=67
223589 On ch=3 n=f#7 v=0
223590 On ch=3 n=a#7 v=68
223657 On ch=3 n=a#7 v=0
223657 On ch=3 n=c#8 v=68
223722 Par ch=3 c=64 v=0
223728 On ch=3 n=c#8 v=0
223729 On ch=3 n=f8 v=73
223729 On ch=3 n=g7 v=73
223777 On ch=3 n=g7 v=0
223777 On ch=3 n=f8 v=0
223777 On ch=3 n=c8 v=73
223777 On ch=3 n=a#7 v=73
223825 On ch=3 n=a#7 v=0
223825 On ch=3 n=c8 v=0
223826 On ch=3 n=e8 v=73
223826 On ch=3 n=g7 v=73
223874 On ch=3 n=g7 v=0
223874 On ch=3 n=e8 v=0
223875 On ch=3 n=c#8 v=73
223875 On ch=3 n=a#7 v=73
223927 On ch=3 n=a#7 v=0
223927 On ch=3 n=c#8 v=0
223927 On ch=3 n=e8 v=71
223927 On ch=3 n=f#7 v=71
223975 On ch=3 n=f#7 v=0
223975 On ch=3 n=e8 v=0
223976 On ch=3 n=b7 v=71
223976 On ch=3 n=a7 v=71
224025 On ch=3 n=a7 v=0
224025 On ch=3 n=b7 v=0
224025 On ch=3 n=d#8 v=71
224025 On ch=3 n=f#7 v=71
224074 On ch=3 n=f#7 v=0
224074 On ch=3 n=d#8 v=0
224075 On ch=3 n=c8 v=71
224075 On ch=3 n=a7 v=71
224118 On ch=3 n=a7 v=0
224118 On ch=3 n=c8 v=0
224119 On ch=3 n=d#8 v=67
224119 On ch=3 n=f7 v=67
224166 On ch=3 n=f7 v=0
224166 On ch=3 n=d#8 v=0
224166 On ch=3 n=a#7 v=67
224166 On ch=3 n=g#7 v=67
224214 On ch=3 n=g#7 v=0
224214 On ch=3 n=a#7 v=0
224214 On ch=3 n=d8 v=67
224214 On ch=3 n=f7 v=67
224262 On ch=3 n=f7 v=0
224262 On ch=3 n=d8 v=0
224262 On ch=3 n=b7 v=67
224262 On ch=3 n=g#7 v=67
224313 On ch=3 n=g#7 v=0
224313 On ch=3 n=b7 v=0
224314 On ch=3 n=d8 v=63
224314 On ch=3 n=e7 v=63
224362 On ch=3 n=e7 v=0
224362 On ch=3 n=d8 v=0
224362 On ch=3 n=a7 v=63
224362 On ch=3 n=g7 v=63
224410 On ch=3 n=g7 v=0
224410 On ch=3 n=a7 v=0
224411 On ch=3 n=c#8 v=63
224411 On ch=3 n=e7 v=63
224459 On ch=3 n=e7 v=0
224459 On ch=3 n=c#8 v=0
224460 On ch=3 n=a#7 v=63
224460 On ch=3 n=g7 v=63
224508 On ch=3 n=g7 v=0
224508 On ch=3 n=a#7 v=0
224509 On ch=3 n=c#8 v=59
224509 On ch=3 n=d#7 v=59
224557 On ch=3 n=d#7 v=0
224557 On ch=3 n=c#8 v=0
224557 On ch=3 n=g#7 v=59
224557 On ch=3 n=f#7 v=59
224605 On ch=3 n=f#7 v=0
224605 On ch=3 n=g#7 v=0
224606 On ch=3 n=c8 v=59
224606 On ch=3 n=d#7 v=59
224654 On ch=3 n=d#7 v=0
224654 On ch=3 n=c8 v=0
224655 On ch=3 n=a7 v=59
224655 On ch=3 n=f#7 v=59
224706 On ch=3 n=f#7 v=0
224706 On ch=3 n=a7 v=0
224706 On ch=3 n=c8 v=51
224706 On ch=3 n=d7 v=51
224754 On ch=3 n=d7 v=0
224754 On ch=3 n=c8 v=0
224755 On ch=3 n=g7 v=51
224755 On ch=3 n=f7 v=51
224804 On ch=3 n=f7 v=0
224804 On ch=3 n=g7 v=0
224805 On ch=3 n=b7 v=51
224805 On ch=3 n=d7 v=51
224853 On ch=3 n=d7 v=0
224853 On ch=3 n=b7 v=0
224854 On ch=3 n=g#7 v=51
224854 On ch=3 n=f7 v=51
224920 On ch=3 n=f7 v=0
224920 On ch=3 n=g#7 v=0
224920 On ch=3 n=b7 v=50
224920 On ch=3 n=c#7 v=50
224973 On ch=3 n=c#7 v=0
224973 On ch=3 n=b7 v=0
224974 On ch=3 n=f#7 v=50
224974 On ch=3 n=e7 v=50
225026 On ch=3 n=e7 v=0
225026 On ch=3 n=f#7 v=0
225027 On ch=3 n=a#7 v=50
225027 On ch=3 n=c#7 v=50
225080 On ch=3 n=c#7 v=0
225080 On ch=3 n=a#7 v=0
225080 On ch=3 n=g7 v=50
225080 On ch=3 n=e7 v=50
225119 On ch=3 n=e7 v=0
225119 On ch=3 n=g7 v=0
225120 On ch=3 n=a#7 v=47
225120 On ch=3 n=c7 v=47
225169 On ch=3 n=c7 v=0
225169 On ch=3 n=a#7 v=0
225169 On ch=3 n=f7 v=47
225169 On ch=3 n=d#7 v=47
225218 On ch=3 n=d#7 v=0
225218 On ch=3 n=f7 v=0
225219 On ch=3 n=a7 v=47
225219 On ch=3 n=c7 v=47
225268 On ch=3 n=c7 v=0
225268 On ch=3 n=a7 v=0
225269 On ch=3 n=f#7 v=47
225269 On ch=3 n=d#7 v=47
225336 On ch=3 n=d#7 v=0
225336 On ch=3 n=f#7 v=0
225336 On ch=3 n=a7 v=39
225336 On ch=3 n=b6 v=39
225389 On ch=3 n=b6 v=0
225389 On ch=3 n=a7 v=0
225390 On ch=3 n=e7 v=39
225390 On ch=3 n=d7 v=39
225444 On ch=3 n=d7 v=0
225444 On ch=3 n=e7 v=0
225444 On ch=3 n=g#7 v=39
225444 On ch=3 n=b6 v=39
225497 On ch=3 n=b6 v=0
225497 On ch=3 n=g#7 v=0
225498 On ch=3 n=f7 v=39
225498 On ch=3 n=d7 v=39
225561 On ch=3 n=d7 v=0
225561 On ch=3 n=f7 v=0
225562 On ch=3 n=g#7 v=37
225562 On ch=3 n=a#6 v=37
225618 On ch=3 n=a#6 v=0
225618 On ch=3 n=g#7 v=0
225618 On ch=3 n=d#7 v=37
225618 On ch=3 n=c#7 v=37
225674 On ch=3 n=c#7 v=0
225674 On ch=3 n=d#7 v=0
225675 On ch=3 n=g7 v=37
225675 On ch=3 n=a#6 v=37
225731 On ch=3 n=a#6 v=0
225731 On ch=3 n=g7 v=0
225731 On ch=3 n=e7 v=37
225731 On ch=3 n=c#7 v=37
225782 On ch=3 n=c#7 v=0
225782 On ch=3 n=e7 v=0
225782 On ch=3 n=g7 v=33
225782 On ch=3 n=a6 v=33
225837 On ch=3 n=a6 v=0
225837 On ch=3 n=g7 v=0
225837 On ch=3 n=d7 v=33
225837 On ch=3 n=c7 v=33
225891 On ch=3 n=c7 v=0
225891 On ch=3 n=d7 v=0
225892 On ch=3 n=f#7 v=33
225892 On ch=3 n=a6 v=33
225947 On ch=3 n=a6 v=0
225947 On ch=3 n=f#7 v=0
225947 On ch=3 n=d#7 v=33
225947 On ch=3 n=c7 v=33
226017 On ch=3 n=c7 v=0
226017 On ch=3 n=d#7 v=0
226017 On ch=3 n=f#7 v=41
226017 On ch=3 n=g#6 v=41
226075 On ch=3 n=g#6 v=0
226075 On ch=3 n=f#7 v=0
226076 On ch=3 n=c#7 v=41
226076 On ch=3 n=b6 v=41
226135 On ch=3 n=b6 v=0
226135 On ch=3 n=c#7 v=0
226135 On ch=3 n=f7 v=41
226135 On ch=3 n=g#6 v=41
226193 On ch=3 n=g#6 v=0
226193 On ch=3 n=f7 v=0
226193 On ch=3 n=d7 v=41
226193 On ch=3 n=b6 v=41
226248 On ch=3 n=b6 v=0
226248 On ch=3 n=d7 v=0
226249 On ch=3 n=f7 v=34
226249 On ch=3 n=g6 v=34
226306 On ch=3 n=g6 v=0
226306 On ch=3 n=f7 v=0
226306 On ch=3 n=c7 v=34
226306 On ch=3 n=a#6 v=34
226363 On ch=3 n=a#6 v=0
226363 On ch=3 n=c7 v=0
226364 On ch=3 n=e7 v=34
226364 On ch=3 n=g6 v=34
226422 On ch=3 n=g6 v=0
226422 On ch=3 n=e7 v=0
226422 On ch=3 n=c#7 v=34
226422 On ch=3 n=a#6 v=34
226468 On ch=3 n=a#6 v=0
226468 On ch=3 n=c#7 v=0
226469 On ch=3 n=e7 v=32
226469 On ch=3 n=f#6 v=32
226524 On ch=3 n=f#6 v=0
226524 On ch=3 n=e7 v=0
226524 On ch=3 n=b6 v=32
226524 On ch=3 n=a6 v=32
226578 On ch=3 n=a6 v=0
226578 On ch=3 n=b6 v=0
226579 On ch=3 n=d#7 v=32
226579 On ch=3 n=f#6 v=32
226634 On ch=3 n=f#6 v=0
226634 On ch=3 n=d#7 v=0
226634 On ch=3 n=c7 v=32
226634 On ch=3 n=a6 v=32
226689 On ch=3 n=a6 v=0
226689 On ch=3 n=c7 v=0
226689 On ch=3 n=d#7 v=31
226689 On ch=3 n=f6 v=31
226744 On ch=3 n=f6 v=0
226744 On ch=3 n=d#7 v=0
226744 On ch=3 n=a#6 v=31
226744 On ch=3 n=g#6 v=31
226798 On ch=3 n=g#6 v=0
226798 On ch=3 n=a#6 v=0
226799 On ch=3 n=d7 v=31
226799 On ch=3 n=f6 v=31
226854 On ch=3 n=f6 v=0
226854 On ch=3 n=d7 v=0
226854 On ch=3 n=b6 v=31
226854 On ch=3 n=g#6 v=31
226914 On ch=3 n=g#6 v=0
226914 On ch=3 n=b6 v=0
226915 On ch=3 n=d7 v=32
226915 On ch=3 n=e6 v=32
226971 On ch=3 n=e6 v=0
226971 On ch=3 n=d7 v=0
226971 On ch=3 n=a6 v=32
226971 On ch=3 n=g6 v=32
227027 On ch=3 n=g6 v=0
227027 On ch=3 n=a6 v=0
227028 On ch=3 n=c#7 v=32
227028 On ch=3 n=e6 v=32
227084 On ch=3 n=e6 v=0
227084 On ch=3 n=c#7 v=0
227084 On ch=3 n=a#6 v=32
227084 On ch=3 n=g6 v=32
227144 On ch=3 n=g6 v=0
227144 On ch=3 n=a#6 v=0
227145 On ch=3 n=c#7 v=28
227145 On ch=3 n=d#6 v=28
227202 On ch=3 n=d#6 v=0
227202 On ch=3 n=c#7 v=0
227202 On ch=3 n=g#6 v=28
227202 On ch=3 n=f#6 v=28
227258 On ch=3 n=f#6 v=0
227258 On ch=3 n=g#6 v=0
227259 On ch=3 n=c7 v=28
227259 On ch=3 n=d#6 v=28
227316 On ch=3 n=d#6 v=0
227316 On ch=3 n=c7 v=0
227317 On ch=3 n=a6 v=28
227317 On ch=3 n=f#6 v=28
227383 On ch=3 n=f#6 v=0
227383 On ch=3 n=a6 v=0
227383 On ch=3 n=c7 v=18
227383 On ch=3 n=d6 v=18
227443 On ch=3 n=d6 v=0
227443 On ch=3 n=c7 v=0
227443 On ch=3 n=g6 v=18
227443 On ch=3 n=f6 v=18
227502 On ch=3 n=f6 v=0
227502 On ch=3 n=g6 v=0
227502 On ch=3 n=b6 v=18
227502 On ch=3 n=d6 v=18
227562 On ch=3 n=d6 v=0
227562 On ch=3 n=b6 v=0
227562 On ch=3 n=g#6 v=18
227562 On ch=3 n=f6 v=18
227629 On ch=3 n=f6 v=0
227629 On ch=3 n=g#6 v=0
227630 On ch=3 n=b6 v=18
227630 On ch=3 n=c#6 v=18
227691 On ch=3 n=c#6 v=0
227691 On ch=3 n=b6 v=0
227692 On ch=3 n=f#6 v=18
227692 On ch=3 n=e6 v=18
227754 On ch=3 n=e6 v=0
227754 On ch=3 n=f#6 v=0
227754 On ch=3 n=a#6 v=18
227754 On ch=3 n=c#6 v=18
227815 On ch=3 n=c#6 v=0
227815 On ch=3 n=a#6 v=0
227816 On ch=3 n=g6 v=18
227816 On ch=3 n=e6 v=18
227867 On ch=3 n=e6 v=0
227867 On ch=3 n=g6 v=0
227867 On ch=3 n=a#6 v=20
227867 On ch=3 n=c6 v=20
227926 On ch=3 n=c6 v=0
227926 On ch=3 n=a#6 v=0
227926 On ch=3 n=f6 v=20
227926 On ch=3 n=d#6 v=20
227985 On ch=3 n=d#6 v=0
227985 On ch=3 n=f6 v=0
227985 On ch=3 n=a6 v=20
227985 On ch=3 n=c6 v=20
228044 On ch=3 n=c6 v=0
228044 On ch=3 n=a6 v=0
228045 On ch=3 n=f#6 v=20
228045 On ch=3 n=d#6 v=20
228119 On ch=3 n=d#6 v=0
228119 On ch=3 n=f#6 v=0
228119 On ch=3 n=a6 v=18
228119 On ch=3 n=b5 v=18
228182 On ch=3 n=b5 v=0
228182 On ch=3 n=a6 v=0
228182 On ch=3 n=e6 v=18
228182 On ch=3 n=d6 v=18
228245 On ch=3 n=d6 v=0
228245 On ch=3 n=e6 v=0
228245 On ch=3 n=g#6 v=18
228245 On ch=3 n=b5 v=18
228307 On ch=3 n=b5 v=0
228307 On ch=3 n=g#6 v=0
228308 On ch=3 n=f6 v=18
228308 On ch=3 n=d6 v=18
228360 On ch=3 n=d6 v=0
228360 On ch=3 n=f6 v=0
228360 On ch=3 n=g#6 v=22
228360 On ch=3 n=a#5 v=22
228420 On ch=3 n=a#5 v=0
228420 On ch=3 n=g#6 v=0
228420 On ch=3 n=d#6 v=22
228420 On ch=3 n=c#6 v=22
228480 On ch=3 n=c#6 v=0
228480 On ch=3 n=d#6 v=0
228480 On ch=3 n=g6 v=22
228480 On ch=3 n=a#5 v=22
228540 On ch=3 n=a#5 v=0
228540 On ch=3 n=g6 v=0
228540 On ch=3 n=e6 v=22
228540 On ch=3 n=c#6 v=22
228612 On ch=3 n=c#6 v=0
228612 On ch=3 n=e6 v=0
228613 On ch=3 n=g6 v=19
228613 On ch=3 n=a5 v=19
228676 On ch=3 n=a5 v=0
228676 On ch=3 n=g6 v=0
228676 On ch=3 n=d6 v=19
228676 On ch=3 n=c6 v=19
228739 On ch=3 n=c6 v=0
228739 On ch=3 n=d6 v=0
228740 On ch=3 n=f#6 v=19
228740 On ch=3 n=a5 v=19
228803 On ch=3 n=a5 v=0
228803 On ch=3 n=f#6 v=0
228803 On ch=3 n=d#6 v=19
228803 On ch=3 n=c6 v=19
228881 On ch=3 n=c6 v=0
228881 On ch=3 n=d#6 v=0
228882 On ch=3 n=f#6 v=10
228882 On ch=3 n=g#5 v=10
228949 On ch=3 n=g#5 v=0
228949 On ch=3 n=f#6 v=0
228950 On ch=3 n=c#6 v=10
228950 On ch=3 n=b5 v=10
229017 On ch=3 n=b5 v=0
229017 On ch=3 n=c#6 v=0
229017 On ch=3 n=f6 v=10
229017 On ch=3 n=g#5 v=10
229084 On ch=3 n=g#5 v=0
229084 On ch=3 n=f6 v=0
229084 On ch=3 n=d6 v=10
229084 On ch=3 n=b5 v=10
229135 On ch=3 n=b5 v=0
229135 On ch=3 n=d6 v=0
229136 On ch=3 n=f6 v=10
229136 On ch=3 n=g5 v=10
229199 On ch=3 n=g5 v=0
229199 On ch=3 n=f6 v=0
229199 On ch=3 n=b5 v=10
229199 On ch=3 n=a#5 v=10
229262 On ch=3 n=a#5 v=0
229262 On ch=3 n=b5 v=0
229263 On ch=3 n=e6 v=10
229263 On ch=3 n=f5 v=10
229326 On ch=3 n=f5 v=0
229326 On ch=3 n=e6 v=0
229326 On ch=3 n=c#6 v=10
229326 On ch=3 n=a#5 v=10
229389 On ch=3 n=a#5 v=0
229389 On ch=3 n=c#6 v=0
229390 On ch=3 n=f6 v=8
229390 On ch=3 n=f#5 v=8
229453 On ch=3 n=f#5 v=0
229453 On ch=3 n=f6 v=0
229454 On ch=3 n=c6 v=8
229454 On ch=3 n=a#5 v=8
229517 On ch=3 n=a#5 v=0
229517 On ch=3 n=c6 v=0
229517 On ch=3 n=d#6 v=8
229517 On ch=3 n=g#5 v=8
229580 On ch=3 n=g#5 v=0
229580 On ch=3 n=d#6 v=0
229581 On ch=3 n=c#6 v=8
229581 On ch=3 n=a#5 v=8
229648 On ch=3 n=a#5 v=0
229648 On ch=3 n=c#6 v=0
229648 On ch=3 n=f6 v=10
229648 On ch=3 n=f#5 v=10
229712 On ch=3 n=f#5 v=0
229712 On ch=3 n=f6 v=0
229713 On ch=3 n=c6 v=10
229713 On ch=3 n=a#5 v=10
229777 On ch=3 n=a#5 v=0
229777 On ch=3 n=c6 v=0
229778 On ch=3 n=d#6 v=10
229778 On ch=3 n=g#5 v=10
229841 On ch=3 n=g#5 v=0
229841 On ch=3 n=d#6 v=0
229842 On ch=3 n=c#6 v=10
229842 On ch=3 n=a#5 v=10
229890 On ch=3 n=a#5 v=0
229890 On ch=3 n=c#6 v=0
229890 On ch=3 n=f6 v=14
229890 On ch=3 n=f#5 v=14
229950 On ch=3 n=f#5 v=0
229950 On ch=3 n=f6 v=0
229951 On ch=3 n=c6 v=14
229951 On ch=3 n=a#5 v=14
230011 On ch=3 n=a#5 v=0
230011 On ch=3 n=c6 v=0
230012 On ch=3 n=d#6 v=14
230012 On ch=3 n=g#5 v=14
230072 On ch=3 n=g#5 v=0
230072 On ch=3 n=d#6 v=0
230072 On ch=3 n=c#6 v=14
230072 On ch=3 n=a#5 v=14
230149 On ch=3 n=a#5 v=0
230149 On ch=3 n=c#6 v=0
230149 On ch=3 n=f6 v=10
230149 On ch=3 n=a#5 v=10
230149 On ch=3 n=f#5 v=10
230213 On ch=3 n=f6 v=0
230214 On ch=3 n=c6 v=10
230278 On ch=3 n=c6 v=0
230279 On ch=3 n=d#6 v=10
230343 On ch=3 n=d#6 v=0
230344 On ch=3 n=c#6 v=10
230398 On ch=3 n=f#5 v=0
230398 On ch=3 n=a#5 v=0
230399 On ch=3 n=c#6 v=0
230399 On ch=3 n=f6 v=10
230461 On ch=3 n=f6 v=0
230461 On ch=3 n=c6 v=10
230523 On ch=3 n=c6 v=0
230524 On ch=3 n=d#6 v=10
230586 On ch=3 n=d#6 v=0
230586 On ch=3 n=c#6 v=10
230638 On ch=3 n=c#6 v=0
230639 On ch=3 n=f6 v=12
230699 On ch=3 n=f6 v=0
230699 On ch=3 n=c#6 v=12
230759 On ch=3 n=c#6 v=0
230759 On ch=3 n=e6 v=12
230819 On ch=3 n=e6 v=0
230819 On ch=3 n=d6 v=12
230890 On ch=3 n=d6 v=0
230890 On ch=3 n=f6 v=21
230953 On ch=3 n=f6 v=0
230953 On ch=3 n=c#6 v=21
231015 On ch=3 n=c#6 v=0
231015 On ch=3 n=e6 v=21
231078 On ch=3 n=e6 v=0
231079 On ch=3 n=d6 v=21
231135 On ch=3 n=d6 v=0
231135 On ch=3 n=f6 v=19
231196 On ch=3 n=f6 v=0
231196 On ch=3 n=d6 v=19
231256 On ch=3 n=d6 v=0
231257 On ch=3 n=e6 v=19
231318 On ch=3 n=e6 v=0
231319 On ch=3 n=d#6 v=19
231374 On ch=3 n=d#6 v=0
231374 On ch=3 n=f6 v=10
231434 On ch=3 n=f6 v=0
231434 On ch=3 n=c#6 v=10
231494 On ch=3 n=c#6 v=0
231494 On ch=3 n=e6 v=10
231553 On ch=3 n=e6 v=0
231553 On ch=3 n=d#6 v=10
231613 On ch=3 n=d#6 v=0
231613 On ch=3 n=f6 v=19
231673 On ch=3 n=f6 v=0
231673 On ch=3 n=e6 v=19
231733 On ch=3 n=e6 v=0
231733 On ch=3 n=f6 v=19
231792 On ch=3 n=f6 v=0
231792 On ch=3 n=d#6 v=19
231862 On ch=3 n=d#6 v=0
231863 On ch=3 n=f6 v=21
231925 On ch=3 n=f6 v=0
231925 On ch=3 n=e6 v=21
231987 On ch=3 n=e6 v=0
231987 On ch=3 n=f6 v=21
232049 On ch=3 n=f6 v=0
232050 On ch=3 n=d#6 v=21
232097 On ch=3 n=d#6 v=0
232097 On ch=3 n=f6 v=14
232155 On ch=3 n=f6 v=0
232155 On ch=3 n=e6 v=14
232213 On ch=3 n=e6 v=0
232214 On ch=3 n=f6 v=14
232273 On ch=3 n=f6 v=0
232273 On ch=3 n=d#6 v=14
232318 On ch=3 n=d#6 v=0
232319 On ch=3 n=f6 v=20
232374 On ch=3 n=f6 v=0
232374 On ch=3 n=e6 v=20
232429 On ch=3 n=e6 v=0
232429 On ch=3 n=f6 v=20
232485 On ch=3 n=f6 v=0
232485 On ch=3 n=d#6 v=20
232561 On ch=3 n=d#6 v=0
234911 Par ch=3 c=64 v=127
237908 Par ch=3 c=64 v=0
238170 Par ch=3 c=64 v=127
240710 Par ch=3 c=64 v=0
240966 Par ch=3 c=64 v=127
243612 Par ch=3 c=64 v=0
243623 Par ch=3 c=64 v=127
245337 On ch=3 n=g#5 v=43
245337 On ch=3 n=c5 v=43
245584 On ch=3 n=c5 v=0
245584 On ch=3 n=g#5 v=0
245585 On ch=3 n=d#5 v=46
245585 On ch=3 n=c6 v=46
245826 On ch=3 n=c6 v=0
245826 On ch=3 n=d#5 v=0
245827 On ch=3 n=d#6 v=43
245827 On ch=3 n=g#5 v=43
245947 On ch=3 n=g#5 v=0
245947 On ch=3 n=d#6 v=0
246680 Par ch=3 c=64 v=0
246709 Par ch=3 c=64 v=127
249619 Par ch=3 c=64 v=0
249871 Par ch=3 c=64 v=127
250957 Par ch=3 c=64 v=0
251288 Par ch=3 c=64 v=127
253066 Par ch=3 c=64 v=0
253288 Par ch=3 c=64 v=127
254385 Par ch=3 c=64 v=0
254604 Par ch=3 c=64 v=127
255694 Par ch=3 c=64 v=0
255908 Par ch=3 c=64 v=127
256940 Par ch=3 c=64 v=0
257157 Par ch=3 c=64 v=127
258185 Par ch=3 c=64 v=0
258426 Par ch=3 c=64 v=127
259435 Par ch=3 c=64 v=0
259628 Par ch=3 c=64 v=127
260622 Par ch=3 c=64 v=0
260835 Par ch=3 c=64 v=127
261809 Par ch=3 c=64 v=0
262008 Par ch=3 c=64 v=127
262981 Par ch=3 c=64 v=0
263181 Par ch=3 c=64 v=127
264067 Par ch=3 c=64 v=0
264266 Par ch=3 c=64 v=127
265183 Par ch=3 c=64 v=0
265422 Par ch=3 c=64 v=127
269744 Par ch=3 c=64 v=0
270152 Par ch=3 c=64 v=127
271225 Par ch=3 c=64 v=0
271440 Par ch=3 c=64 v=127
272492 Par ch=3 c=64 v=0
272751 Par ch=3 c=64 v=127
273687 Par ch=3 c=64 v=0
282559 On ch=3 n=d#5 v=53
282559 On ch=3 n=a#4 v=53
282559 On ch=3 n=g4 v=53
283140 On ch=3 n=g4 v=0
283140 On ch=3 n=a#4 v=0
283140 On ch=3 n=d#5 v=0
283140 On ch=3 n=c5 v=46
283145 Par ch=3 c=64 v=127
283164 On ch=3 n=d#5 v=46
283422 On ch=3 n=d#5 v=0
283422 On ch=3 n=c5 v=0
283423 On ch=3 n=d#5 v=41
283423 On ch=3 n=c5 v=41
283710 On ch=3 n=c5 v=0
283710 On ch=3 n=d#5 v=0
283992 On ch=3 n=d#5 v=40
283992 On ch=3 n=c5 v=40
284299 On ch=3 n=c5 v=0
284299 On ch=3 n=d#5 v=0
284299 On ch=3 n=d#5 v=37
284299 On ch=3 n=c5 v=37
284565 On ch=3 n=c5 v=0
284565 On ch=3 n=d#5 v=0
284565 On ch=3 n=d#5 v=37
284565 On ch=3 n=c5 v=37
284853 On ch=3 n=c5 v=0
284853 On ch=3 n=d#5 v=0
284854 On ch=3 n=d#5 v=39
284854 On ch=3 n=c5 v=39
285146 On ch=3 n=c5 v=0
285146 On ch=3 n=d#5 v=0
285147 On ch=3 n=d#5 v=37
285147 On ch=3 n=c5 v=37
285439 On ch=3 n=c5 v=0
285439 On ch=3 n=d#5 v=0
285439 On ch=3 n=d#5 v=35
285439 On ch=3 n=c5 v=35
285712 On ch=3 n=c5 v=0
285712 On ch=3 n=d#5 v=0
285713 On ch=3 n=d#5 v=37
285713 On ch=3 n=c5 v=37
286018 On ch=3 n=c5 v=0
286018 On ch=3 n=d#5 v=0
286019 On ch=3 n=d#5 v=37
286019 On ch=3 n=c5 v=37
286313 On ch=3 n=c5 v=0
286313 On ch=3 n=d#5 v=0
286313 On ch=3 n=d#5 v=37
286313 On ch=3 n=c5 v=37
286595 Par ch=3 c=64 v=0
286598 On ch=3 n=c5 v=0
286598 On ch=3 n=d#5 v=0
286883 On ch=3 n=c5 v=40
286883 On ch=3 n=g#4 v=40
286887 Par ch=3 c=64 v=127
287183 On ch=3 n=g#4 v=0
287183 On ch=3 n=c5 v=0
287183 On ch=3 n=c5 v=37
287183 On ch=3 n=g#4 v=37
287449 On ch=3 n=g#4 v=0
287449 On ch=3 n=c5 v=0
287449 On ch=3 n=c5 v=37
287449 On ch=3 n=g#4 v=37
287726 On ch=3 n=g#4 v=0
287726 On ch=3 n=c5 v=0
287727 On ch=3 n=c5 v=35
287727 On ch=3 n=g#4 v=35
288002 On ch=3 n=g#4 v=0
288002 On ch=3 n=c5 v=0
288002 On ch=3 n=c5 v=39
288002 On ch=3 n=g#4 v=39
288284 On ch=3 n=g#4 v=0
288284 On ch=3 n=c5 v=0
288285 On ch=3 n=c5 v=37
288285 On ch=3 n=g#4 v=37
288543 On ch=3 n=g#4 v=0
288543 On ch=3 n=c5 v=0
288544 On ch=3 n=c5 v=41
288544 On ch=3 n=g#4 v=41
288812 On ch=3 n=g#4 v=0
288812 On ch=3 n=c5 v=0
288812 On ch=3 n=c5 v=41
288812 On ch=3 n=g#4 v=41
289084 On ch=3 n=g#4 v=0
289084 On ch=3 n=c5 v=0
289084 On ch=3 n=c5 v=44
289084 On ch=3 n=g#4 v=44
289355 On ch=3 n=g#4 v=0
289355 On ch=3 n=c5 v=0
289356 On ch=3 n=c5 v=43
289356 On ch=3 n=g#4 v=43
289622 On ch=3 n=g#4 v=0
289622 On ch=3 n=c5 v=0
289623 On ch=3 n=c5 v=45
289623 On ch=3 n=g#4 v=45
289886 Par ch=3 c=64 v=0
289895 On ch=3 n=g#4 v=0
289895 On ch=3 n=c5 v=0
290174 On ch=3 n=d5 v=44
290174 On ch=3 n=a#4 v=44
290174 On ch=3 n=g#4 v=44
290179 Par ch=3 c=64 v=127
290455 On ch=3 n=g#4 v=0
290455 On ch=3 n=a#4 v=0
290455 On ch=3 n=d5 v=0
290456 On ch=3 n=d5 v=41
290456 On ch=3 n=a#4 v=41
290456 On ch=3 n=g#4 v=41
290727 On ch=3 n=g#4 v=0
290727 On ch=3 n=a#4 v=0
290727 On ch=3 n=d5 v=0
290727 On ch=3 n=d5 v=40
290727 On ch=3 n=a#4 v=40
290727 On ch=3 n=g#4 v=40
290993 On ch=3 n=g#4 v=0
290993 On ch=3 n=a#4 v=0
290993 On ch=3 n=d5 v=0
290993 On ch=3 n=d5 v=43
290993 On ch=3 n=a#4 v=43
290993 On ch=3 n=g#4 v=43
291259 On ch=3 n=g#4 v=0
291259 On ch=3 n=a#4 v=0
291259 On ch=3 n=d5 v=0
291260 On ch=3 n=d5 v=37
291260 On ch=3 n=a#4 v=37
291260 On ch=3 n=g#4 v=37
291525 Par ch=3 c=64 v=0
291556 On ch=3 n=g#4 v=0
291556 On ch=3 n=a#4 v=0
291556 On ch=3 n=d5 v=0
291556 On ch=3 n=f5 v=43
291556 On ch=3 n=c#5 v=43
291561 Par ch=3 c=64 v=127
291835 On ch=3 n=c#5 v=0
291835 On ch=3 n=f5 v=0
291836 On ch=3 n=f5 v=41
291836 On ch=3 n=c#5 v=41
292100 On ch=3 n=c#5 v=0
292100 On ch=3 n=f5 v=0
292100 On ch=3 n=f5 v=43
292100 On ch=3 n=c#5 v=43
292386 On ch=3 n=c#5 v=0
292386 On ch=3 n=f5 v=0
292387 On ch=3 n=f5 v=40
292387 On ch=3 n=c#5 v=40
292660 On ch=3 n=c#5 v=0
292660 On ch=3 n=f5 v=0
292661 On ch=3 n=f5 v=42
292661 On ch=3 n=c#5 v=42
292908 On ch=3 n=c#5 v=0
292908 On ch=3 n=f5 v=0
292909 On ch=3 n=f5 v=42
292909 On ch=3 n=c#5 v=42
293153 Par ch=3 c=64 v=0
293175 On ch=3 n=c#5 v=0
293175 On ch=3 n=f5 v=0
293440 On ch=3 n=c#5 v=41
293440 On ch=3 n=a#4 v=41
293445 Par ch=3 c=64 v=127
293709 On ch=3 n=a#4 v=0
293709 On ch=3 n=c#5 v=0
293709 On ch=3 n=c#5 v=42
293709 On ch=3 n=a#4 v=42
293980 On ch=3 n=a#4 v=0
293980 On ch=3 n=c#5 v=0
293981 On ch=3 n=c#5 v=39
293981 On ch=3 n=a#4 v=39
294242 On ch=3 n=a#4 v=0
294242 On ch=3 n=c#5 v=0
294242 On ch=3 n=a#4 v=43
294496 On ch=3 n=a#4 v=0
294496 On ch=3 n=a#4 v=41
294496 On ch=3 n=g4 v=41
294759 On ch=3 n=g4 v=0
294759 On ch=3 n=a#4 v=0
294760 On ch=3 n=a#4 v=37
294760 On ch=3 n=g4 v=37
295037 On ch=3 n=g4 v=0
295037 On ch=3 n=a#4 v=0
295038 On ch=3 n=a#4 v=41
295038 On ch=3 n=g4 v=41
295303 On ch=3 n=g4 v=0
295303 On ch=3 n=a#4 v=0
295303 On ch=3 n=a#4 v=41
295303 On ch=3 n=g4 v=41
295554 On ch=3 n=g4 v=0
295554 On ch=3 n=a#4 v=0
295554 On ch=3 n=a#4 v=43
295554 On ch=3 n=g4 v=43
295828 On ch=3 n=g4 v=0
295828 On ch=3 n=a#4 v=0
295829 On ch=3 n=a#4 v=47
295829 On ch=3 n=g4 v=47
296086 On ch=3 n=g4 v=0
296086 On ch=3 n=a#4 v=0
296086 On ch=3 n=a#4 v=45
296086 On ch=3 n=g4 v=45
296340 Par ch=3 c=64 v=0
296360 On ch=3 n=g4 v=0
296360 On ch=3 n=a#4 v=0
296637 On ch=3 n=f#5 v=45
296637 On ch=3 n=c5 v=45
296641 Par ch=3 c=64 v=127
296903 On ch=3 n=c5 v=0
296903 On ch=3 n=f#5 v=0
296904 On ch=3 n=f#5 v=41
296904 On ch=3 n=c5 v=41
297178 On ch=3 n=c5 v=0
297178 On ch=3 n=f#5 v=0
297178 On ch=3 n=f#5 v=40
297178 On ch=3 n=c5 v=40
297441 Par ch=3 c=64 v=0
297443 On ch=3 n=c5 v=0
297443 On ch=3 n=f#5 v=0
297444 On ch=3 n=f#5 v=41
297444 On ch=3 n=c5 v=41
297448 Par ch=3 c=64 v=127
297713 On ch=3 n=c5 v=0
297713 On ch=3 n=f#5 v=0
297713 On ch=3 n=f#5 v=37
297713 On ch=3 n=c5 v=37
297981 On ch=3 n=c5 v=0
297981 On ch=3 n=f#5 v=0
298240 Par ch=3 c=64 v=0
298242 On ch=3 n=f#5 v=43
298242 On ch=3 n=c5 v=43
298247 Par ch=3 c=64 v=127
298519 On ch=3 n=c5 v=0
298519 On ch=3 n=f#5 v=0
298520 On ch=3 n=f#5 v=35
298520 On ch=3 n=c5 v=35
298808 On ch=3 n=c5 v=0
298808 On ch=3 n=f#5 v=0
298809 On ch=3 n=f#5 v=37
298809 On ch=3 n=c5 v=37
299077 Par ch=3 c=64 v=0
299079 On ch=3 n=c5 v=0
299079 On ch=3 n=f#5 v=0
299079 On ch=3 n=f5 v=41
299079 On ch=3 n=b4 v=41
299084 Par ch=3 c=64 v=127
299344 On ch=3 n=b4 v=0
299344 On ch=3 n=f5 v=0
299345 On ch=3 n=f5 v=40
299345 On ch=3 n=b4 v=40
299606 Par ch=3 c=64 v=0
299609 On ch=3 n=b4 v=0
299609 On ch=3 n=f5 v=0
299875 On ch=3 n=f5 v=36
299875 On ch=3 n=c#5 v=36
299875 On ch=3 n=b4 v=36
299880 Par ch=3 c=64 v=127
300175 On ch=3 n=b4 v=0
300175 On ch=3 n=c#5 v=0
300175 On ch=3 n=f5 v=0
300175 On ch=3 n=f5 v=37
300175 On ch=3 n=b4 v=37
300471 On ch=3 n=b4 v=0
300471 On ch=3 n=f5 v=0
300471 On ch=3 n=f5 v=37
300471 On ch=3 n=b4 v=37
300749 Par ch=3 c=64 v=0
300751 On ch=3 n=b4 v=0
300751 On ch=3 n=f5 v=0
300751 On ch=3 n=e5 v=31
300751 On ch=3 n=a#4 v=31
300756 Par ch=3 c=64 v=127
301057 On ch=3 n=a#4 v=0
301057 On ch=3 n=e5 v=0
301058 On ch=3 n=e5 v=30
301058 On ch=3 n=a#4 v=30
301347 Par ch=3 c=64 v=0
301350 On ch=3 n=a#4 v=0
301350 On ch=3 n=e5 v=0
301655 On ch=3 n=e5 v=33
301655 On ch=3 n=a#4 v=33
301659 Par ch=3 c=64 v=127
301965 On ch=3 n=a#4 v=0
301965 On ch=3 n=e5 v=0
301965 On ch=3 n=e5 v=37
301965 On ch=3 n=a#4 v=37
302277 On ch=3 n=a#4 v=0
302277 On ch=3 n=e5 v=0
302277 On ch=3 n=e5 v=31
302277 On ch=3 n=a#4 v=31
302579 Par ch=3 c=64 v=0
302581 On ch=3 n=a#4 v=0
302581 On ch=3 n=e5 v=0
302582 On ch=3 n=d#5 v=33
302582 On ch=3 n=a4 v=33
302587 Par ch=3 c=64 v=127
302885 On ch=3 n=a4 v=0
302885 On ch=3 n=d#5 v=0
302886 On ch=3 n=d#5 v=33
302886 On ch=3 n=a4 v=33
303185 Par ch=3 c=64 v=0
303187 On ch=3 n=a4 v=0
303187 On ch=3 n=d#5 v=0
303511 On ch=3 n=d#5 v=35
303511 On ch=3 n=a4 v=35
303516 Par ch=3 c=64 v=127
303833 On ch=3 n=a4 v=0
303833 On ch=3 n=d#5 v=0
303833 On ch=3 n=d#5 v=30
303833 On ch=3 n=a4 v=30
304140 On ch=3 n=a4 v=0
304140 On ch=3 n=d#5 v=0
304140 On ch=3 n=d#5 v=37
304140 On ch=3 n=a4 v=37
304477 On ch=3 n=a4 v=0
304477 On ch=3 n=d#5 v=0
304478 On ch=3 n=d#5 v=26
304478 On ch=3 n=a4 v=26
304800 On ch=3 n=a4 v=0
304800 On ch=3 n=d#5 v=0
304800 On ch=3 n=d#5 v=31
304800 On ch=3 n=a4 v=31
305127 On ch=3 n=a4 v=0
305127 On ch=3 n=d#5 v=0
305465 On ch=3 n=d#5 v=31
305465 On ch=3 n=a4 v=31
305836 On ch=3 n=a4 v=0
305836 On ch=3 n=d#5 v=0
306211 On ch=3 n=d#5 v=30
306211 On ch=3 n=a4 v=30
306549 Par ch=3 c=64 v=0
306552 On ch=3 n=a4 v=0
306552 On ch=3 n=d#5 v=0
306917 On ch=3 n=d#5 v=26
306917 On ch=3 n=a4 v=26
307265 On ch=3 n=a4 v=0
307265 On ch=3 n=d#5 v=0
307272 Par ch=3 c=64 v=127
307601 On ch=3 n=d5 v=37
307601 On ch=3 n=g#4 v=37
307930 Par ch=3 c=64 v=0
307970 On ch=3 n=g#4 v=0
307970 On ch=3 n=d5 v=0
307977 Par ch=3 c=64 v=127
308327 On ch=3 n=d5 v=37
308327 On ch=3 n=g#4 v=37
308683 On ch=3 n=g#4 v=0
308683 On ch=3 n=d5 v=0
309040 On ch=3 n=b4 v=36
309040 On ch=3 n=g#4 v=36
309426 On ch=3 n=g#4 v=0
309426 On ch=3 n=b4 v=0
309787 On ch=3 n=b4 v=31
309787 On ch=3 n=g#4 v=31
310142 Par ch=3 c=64 v=0
310183 On ch=3 n=g#4 v=0
310183 On ch=3 n=b4 v=0
310190 Par ch=3 c=64 v=127
310557 On ch=3 n=b4 v=30
310557 On ch=3 n=g#4 v=30
310928 On ch=3 n=g#4 v=0
310928 On ch=3 n=b4 v=0
311317 On ch=3 n=g#4 v=27
311689 Par ch=3 c=64 v=0
311692 On ch=3 n=g#4 v=0
311698 Par ch=3 c=64 v=127
312453 Par ch=3 c=64 v=0
315504 Par ch=3 c=64 v=127
316846 On ch=3 n=g4 v=47
316953 On ch=3 n=g4 v=0
316953 On ch=3 n=a#4 v=47
317035 On ch=3 n=a#4 v=0
317035 On ch=3 n=c#5 v=47
317133 On ch=3 n=c#5 v=0
317134 On ch=3 n=d#5 v=47
317232 On ch=3 n=d#5 v=0
317232 On ch=3 n=g5 v=47
317346 On ch=3 n=g5 v=0
317347 On ch=3 n=a#5 v=45
317450 On ch=3 n=a#5 v=0
317450 On ch=3 n=c#6 v=45
317554 On ch=3 n=c#6 v=0
317555 On ch=3 n=d#6 v=45
317631 On ch=3 n=d#6 v=0
317631 On ch=3 n=g6 v=46
317725 On ch=3 n=g6 v=0
317726 On ch=3 n=a#6 v=46
317820 On ch=3 n=a#6 v=0
317821 On ch=3 n=c#7 v=46
317918 On ch=3 n=c#7 v=0
317919 On ch=3 n=f7 v=42
318000 On ch=3 n=f7 v=0
318000 On ch=3 n=d#7 v=42
318081 On ch=3 n=d#7 v=0
318081 On ch=3 n=c#7 v=42
318162 On ch=3 n=c#7 v=0
318162 On ch=3 n=a#6 v=42
318256 On ch=3 n=a#6 v=0
318257 On ch=3 n=g6 v=45
318342 On ch=3 n=g6 v=0
318342 On ch=3 n=d#6 v=45
318426 On ch=3 n=d#6 v=0
318427 On ch=3 n=c#6 v=45
318541 On ch=3 n=c#6 v=0
318541 On ch=3 n=a#5 v=47
318632 On ch=3 n=a#5 v=0
318633 On ch=3 n=g5 v=47
318724 On ch=3 n=g5 v=0
318725 On ch=3 n=d#5 v=47
318816 On ch=3 n=d#5 v=0
318816 On ch=3 n=c#5 v=47
318913 On ch=3 n=c#5 v=0
318913 On ch=3 n=a#4 v=51
319006 On ch=3 n=a#4 v=0
319006 On ch=3 n=g4 v=51
319099 On ch=3 n=g4 v=0
319100 On ch=3 n=d#4 v=51
319192 Par ch=3 c=64 v=0
319195 On ch=3 n=c4 v=45
319197 On ch=3 n=d#4 v=0
319545 On ch=3 n=c4 v=0
322997 Par ch=3 c=64 v=127
323686 On ch=3 n=g4 v=49
323780 On ch=3 n=g4 v=0
323781 On ch=3 n=a#4 v=49
323882 On ch=3 n=a#4 v=0
323882 On ch=3 n=c#5 v=49
323978 On ch=3 n=c#5 v=0
323979 On ch=3 n=d#5 v=49
324075 On ch=3 n=d#5 v=0
324075 On ch=3 n=g5 v=49
324158 On ch=3 n=g5 v=0
324159 On ch=3 n=a#5 v=49
324237 On ch=3 n=a#5 v=0
324237 On ch=3 n=c#6 v=49
324315 On ch=3 n=c#6 v=0
324316 On ch=3 n=d#6 v=49
324394 On ch=3 n=d#6 v=0
324395 On ch=3 n=g6 v=49
324470 On ch=3 n=g6 v=0
324470 On ch=3 n=a#6 v=53
324547 On ch=3 n=a#6 v=0
324548 On ch=3 n=c#7 v=53
324626 On ch=3 n=c#7 v=0
324626 On ch=3 n=d#7 v=53
324674 On ch=3 n=d#7 v=0
324674 On ch=3 n=g7 v=53
324741 On ch=3 n=g7 v=0
324742 On ch=3 n=a#7 v=53
324810 On ch=3 n=a#7 v=0
324811 On ch=3 n=c#8 v=53
324878 On ch=3 n=c#8 v=0
324879 On ch=3 n=f8 v=53
325011 On ch=3 n=f8 v=0
325011 On ch=3 n=d#8 v=57
325094 On ch=3 n=d#8 v=0
325095 On ch=3 n=c#8 v=57
325179 On ch=3 n=c#8 v=0
325179 On ch=3 n=a#7 v=57
325259 On ch=3 n=a#7 v=0
325260 On ch=3 n=g7 v=57
325341 On ch=3 n=g7 v=0
325341 On ch=3 n=d#7 v=57
325422 On ch=3 n=d#7 v=0
325422 On ch=3 n=c#7 v=57
325504 On ch=3 n=c#7 v=0
325505 On ch=3 n=a#6 v=57
325602 On ch=3 n=a#6 v=0
325602 On ch=3 n=g6 v=57
325687 On ch=3 n=g6 v=0
325688 On ch=3 n=d#6 v=57
325774 On ch=3 n=d#6 v=0
325774 On ch=3 n=c#6 v=57
325888 On ch=3 n=c#6 v=0
325888 On ch=3 n=a#5 v=56
325980 On ch=3 n=a#5 v=0
325981 On ch=3 n=g5 v=56
326073 On ch=3 n=g5 v=0
326073 On ch=3 n=d#5 v=56
326165 On ch=3 n=d#5 v=0
326165 On ch=3 n=c#5 v=56
326225 On ch=3 n=c#5 v=0
326225 On ch=3 n=a#4 v=48
326309 On ch=3 n=a#4 v=0
326310 On ch=3 n=g4 v=48
326330 Par ch=3 c=64 v=0
326394 On ch=3 n=g4 v=0
326394 On ch=3 n=d#4 v=48
326479 On ch=3 n=d#4 v=0
326482 Par ch=3 c=64 v=127
326593 On ch=3 n=c4 v=49
326709 On ch=3 n=c4 v=0
326710 On ch=3 n=d#4 v=49
326837 On ch=3 n=d#4 v=0
326837 On ch=3 n=g#4 v=51
326957 On ch=3 n=g#4 v=0
326957 On ch=3 n=a#4 v=51
327062 On ch=3 n=a#4 v=0
327062 On ch=3 n=c#5 v=51
327156 On ch=3 n=c#5 v=0
327157 On ch=3 n=d#5 v=51
327251 On ch=3 n=d#5 v=0
327252 On ch=3 n=g#5 v=51
327327 On ch=3 n=g#5 v=0
327327 On ch=3 n=a#5 v=56
327416 On ch=3 n=a#5 v=0
327417 On ch=3 n=c6 v=56
327505 On ch=3 n=c6 v=0
327505 On ch=3 n=d#6 v=56
327602 On ch=3 n=d#6 v=0
327603 On ch=3 n=g#6 v=49
327695 On ch=3 n=g#6 v=0
327695 On ch=3 n=a#6 v=49
327786 On ch=3 n=a#6 v=0
327787 On ch=3 n=c7 v=49
327863 On ch=3 n=c7 v=0
327864 On ch=3 n=d#7 v=56
327950 On ch=3 n=d#7 v=0
327950 On ch=3 n=g#7 v=56
328036 On ch=3 n=g#7 v=0
328037 On ch=3 n=a#7 v=56
328120 Par ch=3 c=64 v=0
328135 On ch=3 n=a#7 v=0
328136 On ch=3 n=c8 v=56
328141 Par ch=3 c=64 v=127
328244 On ch=3 n=c8 v=0
328245 On ch=3 n=a#7 v=56
328353 On ch=3 n=a#7 v=0
328354 On ch=3 n=g#7 v=56
328466 On ch=3 n=g#7 v=0
328467 On ch=3 n=e7 v=53
328577 On ch=3 n=e7 v=0
328577 On ch=3 n=c#7 v=53
328688 On ch=3 n=c#7 v=0
328689 On ch=3 n=a#6 v=51
328781 On ch=3 n=a#6 v=0
328781 On ch=3 n=g#6 v=51
328873 On ch=3 n=g#6 v=0
328873 On ch=3 n=e6 v=51
328968 On ch=3 n=e6 v=0
328969 On ch=3 n=c#6 v=49
329062 On ch=3 n=c#6 v=0
329063 On ch=3 n=a#5 v=49
329156 On ch=3 n=a#5 v=0
329156 On ch=3 n=g#5 v=49
329237 On ch=3 n=g#5 v=0
329237 On ch=3 n=e5 v=51
329327 On ch=3 n=e5 v=0
329327 On ch=3 n=c#5 v=51
329416 On ch=3 n=c#5 v=0
329416 On ch=3 n=a#4 v=51
329531 On ch=3 n=a#4 v=0
329532 On ch=3 n=g#4 v=49
329629 On ch=3 n=g#4 v=0
329630 On ch=3 n=e4 v=49
329727 On ch=3 n=e4 v=0
329727 On ch=3 n=c#4 v=49
329820 Par ch=3 c=64 v=0
329825 On ch=3 n=c#4 v=0
329832 Par ch=3 c=64 v=127
329922 On ch=3 n=c4 v=49
330015 On ch=3 n=c4 v=0
330016 On ch=3 n=d#4 v=42
330087 On ch=3 n=d#4 v=0
330088 On ch=3 n=g#4 v=42
330225 On ch=3 n=g#4 v=0
330226 On ch=3 n=a#4 v=42
330327 On ch=3 n=a#4 v=0
330327 On ch=3 n=c5 v=49
330429 On ch=3 n=c5 v=0
330430 On ch=3 n=d#5 v=49
330532 On ch=3 n=d#5 v=0
330533 On ch=3 n=g#5 v=49
330596 On ch=3 n=g#5 v=0
330597 On ch=3 n=a#5 v=53
330687 On ch=3 n=a#5 v=0
330687 On ch=3 n=c6 v=53
330777 On ch=3 n=c6 v=0
330777 On ch=3 n=d#6 v=53
330844 On ch=3 n=d#6 v=0
330844 On ch=3 n=g#6 v=52
330926 On ch=3 n=g#6 v=0
330926 On ch=3 n=a#6 v=52
331008 On ch=3 n=a#6 v=0
331009 On ch=3 n=c7 v=52
331117 On ch=3 n=c7 v=0
331118 On ch=3 n=d#7 v=59
331209 On ch=3 n=d#7 v=0
331209 On ch=3 n=g#7 v=59
331300 On ch=3 n=g#7 v=0
331301 On ch=3 n=a#7 v=59
331377 Par ch=3 c=64 v=0
331379 On ch=3 n=a#7 v=0
331380 On ch=3 n=c#8 v=59
331385 Par ch=3 c=64 v=127
331485 On ch=3 n=c#8 v=0
331485 On ch=3 n=a#7 v=59
331590 On ch=3 n=a#7 v=0
331590 On ch=3 n=g#7 v=59
331700 On ch=3 n=g#7 v=0
331700 On ch=3 n=f7 v=59
331806 On ch=3 n=f7 v=0
331807 On ch=3 n=c#7 v=59
331935 On ch=3 n=c#7 v=0
331936 On ch=3 n=a#6 v=54
332031 On ch=3 n=a#6 v=0
332031 On ch=3 n=g#6 v=54
332127 On ch=3 n=g#6 v=0
332127 On ch=3 n=f6 v=54
332198 On ch=3 n=f6 v=0
332199 On ch=3 n=c#6 v=51
332287 On ch=3 n=c#6 v=0
332287 On ch=3 n=a#5 v=51
332374 On ch=3 n=a#5 v=0
332375 On ch=3 n=g#5 v=51
332473 On ch=3 n=g#5 v=0
332473 On ch=3 n=f5 v=59
332564 On ch=3 n=f5 v=0
332565 On ch=3 n=c#5 v=59
332656 On ch=3 n=c#5 v=0
332656 On ch=3 n=a#4 v=59
332706 On ch=3 n=a#4 v=0
332707 On ch=3 n=g#4 v=64
332785 On ch=3 n=g#4 v=0
332785 On ch=3 n=f4 v=64
332862 On ch=3 n=f4 v=0
332862 On ch=3 n=c#4 v=64
332937 Par ch=3 c=64 v=0
332989 On ch=3 n=c#4 v=0
332993 Par ch=3 c=64 v=127
333101 On ch=3 n=c4 v=57
333213 On ch=3 n=c4 v=0
333213 On ch=3 n=d#4 v=57
333332 On ch=3 n=d#4 v=0
333332 On ch=3 n=g#4 v=56
333446 On ch=3 n=g#4 v=0
333447 On ch=3 n=a#4 v=56
333549 On ch=3 n=a#4 v=0
333549 On ch=3 n=c5 v=53
333686 On ch=3 n=c5 v=0
333687 On ch=3 n=d#5 v=53
333822 On ch=3 n=d#5 v=0
333822 On ch=3 n=g#5 v=56
333958 On ch=3 n=g#5 v=0
333958 On ch=3 n=a#5 v=56
334089 On ch=3 n=a#5 v=0
334089 On ch=3 n=c6 v=59
334223 On ch=3 n=c6 v=0
334224 On ch=3 n=d#6 v=59
334354 On ch=3 n=d#6 v=0
334354 On ch=3 n=g#6 v=54
334486 On ch=3 n=g#6 v=0
334486 On ch=3 n=a#6 v=54
334613 On ch=3 n=a#6 v=0
334614 On ch=3 n=c7 v=56
334744 On ch=3 n=c7 v=0
334744 On ch=3 n=d#7 v=56
334876 On ch=3 n=d#7 v=0
334876 On ch=3 n=g#7 v=49
335007 On ch=3 n=g#7 v=0
335008 On ch=3 n=a#7 v=49
335136 On ch=3 n=a#7 v=0
335137 On ch=3 n=c8 v=51
335267 On ch=3 n=c8 v=0
335267 On ch=3 n=d#8 v=51
335390 On ch=3 n=d#8 v=0
335391 On ch=3 n=f8 v=56
335518 On ch=3 n=f8 v=0
335518 On ch=3 n=d#8 v=56
335645 On ch=3 n=d#8 v=0
335646 On ch=3 n=c8 v=59
335773 On ch=3 n=c8 v=0
335774 On ch=3 n=a#7 v=59
335893 On ch=3 n=a#7 v=0
335893 On ch=3 n=g#7 v=56
336016 On ch=3 n=g#7 v=0
336017 On ch=3 n=d#7 v=56
336147 On ch=3 n=d#7 v=0
336147 On ch=3 n=c7 v=53
336274 On ch=3 n=c7 v=0
336275 On ch=3 n=a#6 v=53
336398 On ch=3 n=a#6 v=0
336398 On ch=3 n=g#6 v=54
336523 On ch=3 n=g#6 v=0
336523 On ch=3 n=d#6 v=54
336649 On ch=3 n=d#6 v=0
336650 On ch=3 n=c6 v=56
336776 On ch=3 n=c6 v=0
336776 On ch=3 n=a#5 v=56
336892 On ch=3 n=a#5 v=0
336892 On ch=3 n=g#5 v=59
337013 On ch=3 n=g#5 v=0
337014 On ch=3 n=d#5 v=59
337156 On ch=3 n=d#5 v=0
337156 On ch=3 n=c5 v=53
337287 On ch=3 n=c5 v=0
337287 On ch=3 n=d#5 v=53
337400 On ch=3 n=d#5 v=0
337401 On ch=3 n=g#5 v=56
337524 On ch=3 n=g#5 v=0
337524 On ch=3 n=a#5 v=56
337637 On ch=3 n=a#5 v=0
337638 On ch=3 n=c6 v=57
337756 On ch=3 n=c6 v=0
337756 On ch=3 n=d#6 v=57
337870 On ch=3 n=d#6 v=0
337871 On ch=3 n=g#6 v=59
337987 On ch=3 n=g#6 v=0
337987 On ch=3 n=a#6 v=59
338106 On ch=3 n=a#6 v=0
338106 On ch=3 n=c7 v=56
338223 On ch=3 n=c7 v=0
338224 On ch=3 n=d#7 v=56
338343 On ch=3 n=d#7 v=0
338343 On ch=3 n=g#7 v=56
338461 On ch=3 n=g#7 v=0
338461 On ch=3 n=a#7 v=56
338576 On ch=3 n=a#7 v=0
338577 On ch=3 n=c8 v=57
338693 On ch=3 n=c8 v=0
338694 On ch=3 n=d#8 v=57
338805 On ch=3 n=d#8 v=0
338805 On ch=3 n=f8 v=56
338918 On ch=3 n=f8 v=0
338919 On ch=3 n=d#8 v=56
339040 On ch=3 n=d#8 v=0
339040 On ch=3 n=c8 v=53
339157 On ch=3 n=c8 v=0
339158 On ch=3 n=a#7 v=53
339279 On ch=3 n=a#7 v=0
339279 On ch=3 n=g#7 v=57
339399 On ch=3 n=g#7 v=0
339399 On ch=3 n=d#7 v=57
339513 On ch=3 n=d#7 v=0
339514 On ch=3 n=c7 v=56
339630 On ch=3 n=c7 v=0
339631 On ch=3 n=a#6 v=56
339748 On ch=3 n=a#6 v=0
339748 On ch=3 n=g#6 v=59
339864 On ch=3 n=g#6 v=0
339865 On ch=3 n=d#6 v=59
339987 On ch=3 n=d#6 v=0
339987 On ch=3 n=c6 v=56
340107 On ch=3 n=c6 v=0
340107 On ch=3 n=d#6 v=56
340223 On ch=3 n=d#6 v=0
340224 On ch=3 n=g#6 v=56
340341 On ch=3 n=g#6 v=0
340341 On ch=3 n=a#6 v=56
340459 On ch=3 n=a#6 v=0
340460 On ch=3 n=c7 v=57
340577 On ch=3 n=c7 v=0
340577 On ch=3 n=d#7 v=57
340694 On ch=3 n=d#7 v=0
340695 On ch=3 n=g#7 v=55
340812 On ch=3 n=g#7 v=0
340812 On ch=3 n=a#7 v=55
340925 On ch=3 n=a#7 v=0
340926 On ch=3 n=c8 v=53
341041 On ch=3 n=c8 v=0
341041 On ch=3 n=d#8 v=53
341156 On ch=3 n=d#8 v=0
341157 On ch=3 n=f8 v=51
341272 On ch=3 n=f8 v=0
341272 On ch=3 n=d#8 v=51
341410 On ch=3 n=d#8 v=0
341410 On ch=3 n=c8 v=51
341537 On ch=3 n=c8 v=0
341537 On ch=3 n=a#7 v=51
341644 On ch=3 n=a#7 v=0
341645 On ch=3 n=g#7 v=52
341761 On ch=3 n=g#7 v=0
341761 On ch=3 n=d#7 v=52
341875 On ch=3 n=d#7 v=0
341876 On ch=3 n=c7 v=49
341991 On ch=3 n=c7 v=0
341991 On ch=3 n=d#7 v=49
342110 On ch=3 n=d#7 v=0
342110 On ch=3 n=g#7 v=53
342226 On ch=3 n=g#7 v=0
342227 On ch=3 n=a#7 v=53
342342 On ch=3 n=a#7 v=0
342342 On ch=3 n=c8 v=50
342458 On ch=3 n=c8 v=0
342459 On ch=3 n=d#8 v=50
342575 On ch=3 n=d#8 v=0
342575 On ch=3 n=f8 v=48
342691 On ch=3 n=f8 v=0
342691 On ch=3 n=d#8 v=48
342811 On ch=3 n=d#8 v=0
342811 On ch=3 n=c8 v=46
342928 On ch=3 n=c8 v=0
342928 On ch=3 n=a#7 v=46
343037 On ch=3 n=a#7 v=0
343038 On ch=3 n=g#7 v=45
343151 On ch=3 n=g#7 v=0
343152 On ch=3 n=d#7 v=45
343275 On ch=3 n=d#7 v=0
343275 On ch=3 n=c7 v=45
343393 On ch=3 n=c7 v=0
343393 On ch=3 n=d#7 v=45
343500 On ch=3 n=d#7 v=0
343501 On ch=3 n=g#7 v=49
343613 On ch=3 n=g#7 v=0
343614 On ch=3 n=a#7 v=49
343718 On ch=3 n=a#7 v=0
343718 On ch=3 n=c8 v=41
343826 On ch=3 n=c8 v=0
343826 On ch=3 n=d#8 v=41
343939 On ch=3 n=d#8 v=0
343940 On ch=3 n=f8 v=43
344050 On ch=3 n=f8 v=0
344050 On ch=3 n=d#8 v=43
344172 On ch=3 n=d#8 v=0
344172 On ch=3 n=c8 v=42
344288 On ch=3 n=c8 v=0
344289 On ch=3 n=a#7 v=42
344402 On ch=3 n=a#7 v=0
344402 On ch=3 n=g#7 v=42
344516 On ch=3 n=g#7 v=0
344517 On ch=3 n=d#7 v=42
344641 On ch=3 n=d#7 v=0
344641 On ch=3 n=c7 v=37
344736 On ch=3 n=c7 v=0
344737 On ch=3 n=a#6 v=37
344832 On ch=3 n=a#6 v=0
344832 On ch=3 n=g#6 v=37
344925 On ch=3 n=g#6 v=0
344926 On ch=3 n=f6 v=39
345020 On ch=3 n=f6 v=0
345020 On ch=3 n=d#6 v=39
345110 On ch=3 n=d#6 v=0
345111 On ch=3 n=d#6 v=35
345204 On ch=3 n=d#6 v=0
345204 On ch=3 n=f6 v=35
345297 On ch=3 n=f6 v=0
345297 On ch=3 n=d#6 v=35
345388 Par ch=3 c=64 v=0
345391 On ch=3 n=d#6 v=0
345392 On ch=3 n=c#6 v=42
345485 On ch=3 n=c#6 v=0
345486 On ch=3 n=d#6 v=42
345585 On ch=3 n=d#6 v=0
345586 On ch=3 n=c7 v=40
345840 On ch=3 n=c7 v=0
345964 On ch=3 n=g6 v=39
346083 On ch=3 n=g6 v=0
346083 On ch=3 n=g#5 v=37
346087 Par ch=3 c=64 v=127
346145 On ch=3 n=d#6 v=37
346206 On ch=3 n=a#6 v=37
346330 On ch=3 n=g#5 v=0
346331 On ch=3 n=d#6 v=0
346848 On ch=3 n=a#6 v=0
346849 On ch=3 n=g#6 v=38
347087 On ch=3 n=g#6 v=0
347087 On ch=3 n=c6 v=40
347336 On ch=3 n=c6 v=0
347337 On ch=3 n=c#6 v=36
347571 Par ch=3 c=64 v=0
347573 On ch=3 n=c#6 v=0
347574 On ch=3 n=d#5 v=33
347577 Par ch=3 c=64 v=127
347633 On ch=3 n=g#5 v=33
347692 On ch=3 n=f6 v=33
348196 Par ch=3 c=64 v=0
348201 On ch=3 n=f6 v=0
348201 On ch=3 n=g#5 v=0
348201 On ch=3 n=d#5 v=0
348822 Par ch=3 c=64 v=127
349437 Par ch=3 c=64 v=0
349445 Par ch=3 c=64 v=127
350092 Par ch=3 c=64 v=0
350122 Par ch=3 c=64 v=127
351627 Par ch=3 c=64 v=0
351627 Meta TrkEnd
TrkEnd
MTrk
0 SeqSpec 43 00 01 00
0 Meta TrkName "4 Accompagnement main gauche"
0 PrCh ch=4 p=0
0 Par ch=4 c=91 v=15
0 Par ch=4 c=93 v=0
0 Par ch=4 c=10 v=55
0 Par ch=4 c=7 v=110
3374 On ch=4 n=d#4 v=51
3433 On ch=4 n=g4 v=51
3493 On ch=4 n=c#5 v=51
3616 On ch=4 n=c#5 v=0
3616 On ch=4 n=g4 v=0
3616 On ch=4 n=d#4 v=0
4841 On ch=4 n=d#4 v=53
4955 On ch=4 n=a4 v=53
5079 On ch=4 n=a4 v=0
5079 On ch=4 n=d#4 v=0
6278 On ch=4 n=b3 v=41
6339 On ch=4 n=d4 v=41
6400 On ch=4 n=f4 v=41
6512 On ch=4 n=f4 v=0
6512 On ch=4 n=d4 v=0
6512 On ch=4 n=b3 v=0
6748 On ch=4 n=a#3 v=46
6807 On ch=4 n=c#4 v=46
6866 On ch=4 n=e4 v=46
6987 On ch=4 n=e4 v=0
6987 On ch=4 n=c#4 v=0
6988 On ch=4 n=a#3 v=0
7202 On ch=4 n=g3 v=55
7256 On ch=4 n=c#4 v=55
7310 On ch=4 n=e4 v=55
7403 On ch=4 n=e4 v=0
7404 On ch=4 n=c#4 v=0
7404 On ch=4 n=g3 v=0
8595 Par ch=4 c=64 v=127
9067 On ch=4 n=f#3 v=51
9123 On ch=4 n=c#4 v=51
9179 On ch=4 n=e4 v=51
9514 On ch=4 n=c#4 v=0
9514 On ch=4 n=f#3 v=0
9515 On ch=4 n=e4 v=0
9515 On ch=4 n=e4 v=61
9515 On ch=4 n=c#4 v=61
9515 On ch=4 n=f#3 v=61
9958 On ch=4 n=f#3 v=0
9958 On ch=4 n=c#4 v=0
9958 On ch=4 n=e4 v=0
11181 Par ch=4 c=64 v=0
11186 Par ch=4 c=64 v=127
12821 On ch=4 n=d#4 v=55
12821 On ch=4 n=b3 v=55
12821 On ch=4 n=f#3 v=55
13237 On ch=4 n=f#3 v=0
13237 On ch=4 n=b3 v=0
13237 On ch=4 n=d#4 v=0
13237 On ch=4 n=d#4 v=55
13237 On ch=4 n=b3 v=55
13237 On ch=4 n=f#3 v=55
13620 On ch=4 n=f#3 v=0
13620 On ch=4 n=b3 v=0
13620 On ch=4 n=d#4 v=0
13620 Par ch=4 c=64 v=0
13624 Par ch=4 c=64 v=127
14023 On ch=4 n=e4 v=59
14023 On ch=4 n=c#4 v=59
14023 On ch=4 n=g3 v=59
14455 On ch=4 n=g3 v=0
14455 On ch=4 n=c#4 v=0
14455 On ch=4 n=e4 v=0
14456 On ch=4 n=e4 v=52
14456 On ch=4 n=c#4 v=52
14456 On ch=4 n=g3 v=52
14865 On ch=4 n=g3 v=0
14865 On ch=4 n=c#4 v=0
14865 On ch=4 n=e4 v=0
16122 Par ch=4 c=64 v=0
16143 Par ch=4 c=64 v=127
16618 On ch=4 n=d#4 v=46
16618 On ch=4 n=g#3 v=46
17062 On ch=4 n=g#3 v=0
17062 On ch=4 n=d#4 v=0
17062 On ch=4 n=d#4 v=47
17062 On ch=4 n=g#3 v=47
17485 Par ch=4 c=64 v=0
17518 On ch=4 n=g#3 v=0
17518 On ch=4 n=d#4 v=0
17519 Par ch=4 c=64 v=127
17982 On ch=4 n=d#4 v=43
17982 On ch=4 n=g#3 v=43
18439 On ch=4 n=g#3 v=0
18439 On ch=4 n=d#4 v=0
18440 On ch=4 n=d#4 v=44
18440 On ch=4 n=g#3 v=44
18899 Par ch=4 c=64 v=0
18917 On ch=4 n=g#3 v=0
18917 On ch=4 n=d#4 v=0
18918 On ch=4 n=c#3 v=36
18922 Par ch=4 c=64 v=127
19041 On ch=4 n=e4 v=36
19461 On ch=4 n=e4 v=0
19461 On ch=4 n=c#3 v=0
23378 Par ch=4 c=64 v=0
28372 Par ch=4 c=64 v=127
32070 Par ch=4 c=64 v=0
35267 On ch=4 n=d#3 v=53
35322 On ch=4 n=c4 v=53
35378 On ch=4 n=g#4 v=53
35474 On ch=4 n=g#4 v=0
35474 On ch=4 n=c4 v=0
35474 On ch=4 n=d#3 v=0
36510 On ch=4 n=d#3 v=59
36561 On ch=4 n=c4 v=59
36611 On ch=4 n=a4 v=59
36722 On ch=4 n=a4 v=0
36722 On ch=4 n=c4 v=0
36722 On ch=4 n=d#3 v=0
37750 On ch=4 n=d#3 v=60
37802 On ch=4 n=c#4 v=60
37855 On ch=4 n=a#4 v=60
37956 On ch=4 n=a#4 v=0
37956 On ch=4 n=c#4 v=0
37956 On ch=4 n=d#3 v=0
39001 On ch=4 n=d#3 v=63
39052 On ch=4 n=d4 v=63
39103 On ch=4 n=b4 v=63
39214 On ch=4 n=d#3 v=0
39215 On ch=4 n=b4 v=0
39215 On ch=4 n=d4 v=0
40635 On ch=4 n=d#3 v=67
40688 On ch=4 n=d#4 v=67
40742 On ch=4 n=g4 v=67
40796 On ch=4 n=c5 v=67
40851 On ch=4 n=c5 v=0
40851 On ch=4 n=g4 v=0
40851 On ch=4 n=d#4 v=0
40852 On ch=4 n=d#3 v=0
41459 On ch=4 n=c5 v=76
41459 On ch=4 n=f#4 v=76
41459 On ch=4 n=d#4 v=76
41459 On ch=4 n=d#3 v=76
41657 On ch=4 n=d#3 v=0
41657 On ch=4 n=d#4 v=0
41657 On ch=4 n=f#4 v=0
41657 On ch=4 n=c5 v=0
42581 On ch=4 n=c#5 v=79
42581 On ch=4 n=g#4 v=79
42581 On ch=4 n=e4 v=79
42581 On ch=4 n=d#3 v=79
42772 On ch=4 n=d#3 v=0
42772 On ch=4 n=e4 v=0
42772 On ch=4 n=g#4 v=0
42772 On ch=4 n=c#5 v=0
46722 On ch=4 n=d#3 v=95
46725 Par ch=4 c=64 v=127
46815 On ch=4 n=d#3 v=0
46816 On ch=4 n=a#3 v=99
46910 On ch=4 n=a#3 v=0
46911 On ch=4 n=c#4 v=99
47019 On ch=4 n=c#4 v=0
47020 On ch=4 n=g4 v=92
47087 On ch=4 n=g4 v=0
47088 On ch=4 n=a#4 v=92
47155 On ch=4 n=a#4 v=0
47156 On ch=4 n=c#5 v=92
47218 On ch=4 n=c#5 v=0
47218 On ch=4 n=g5 v=95
47283 On ch=4 n=g5 v=0
47283 On ch=4 n=a#5 v=95
47349 On ch=4 n=a#5 v=0
47350 On ch=4 n=c#6 v=95
47410 On ch=4 n=c#6 v=0
47410 On ch=4 n=g6 v=98
47473 On ch=4 n=g6 v=0
47474 On ch=4 n=a#6 v=98
47537 On ch=4 n=a#6 v=0
47538 On ch=4 n=c7 v=98
47606 On ch=4 n=c7 v=0
47606 On ch=4 n=g7 v=92
47816 On ch=4 n=g7 v=0
49976 Par ch=4 c=64 v=0
50228 Par ch=4 c=64 v=127
52107 On ch=4 n=d#5 v=28
52166 On ch=4 n=a#5 v=19
52235 On ch=4 n=c#6 v=19
52303 On ch=4 n=g6 v=19
52661 Par ch=4 c=64 v=0
52664 On ch=4 n=a#5 v=0
52665 On ch=4 n=g6 v=0
52665 On ch=4 n=c#6 v=0
52665 On ch=4 n=d#5 v=0
53072 Par ch=4 c=64 v=127
54084 On ch=4 n=d#5 v=21
54168 On ch=4 n=b5 v=21
54253 On ch=4 n=c#6 v=21
54337 On ch=4 n=g6 v=21
54799 Par ch=4 c=64 v=0
54805 On ch=4 n=g6 v=0
54805 On ch=4 n=c#6 v=0
54805 On ch=4 n=b5 v=0
54805 On ch=4 n=d#5 v=0
57920 On ch=4 n=g#3 v=53
57925 Par ch=4 c=64 v=127
58197 On ch=4 n=g#3 v=0
58197 On ch=4 n=d#4 v=53
58267 On ch=4 n=c5 v=53
58469 On ch=4 n=c5 v=0
58469 On ch=4 n=d#4 v=0
58470 On ch=4 n=d#5 v=54
58470 On ch=4 n=g#4 v=54
58731 On ch=4 n=g#4 v=0
58731 On ch=4 n=d#5 v=0
58731 On ch=4 n=g#5 v=61
58731 On ch=4 n=c5 v=61
58984 On ch=4 n=c5 v=0
58984 On ch=4 n=g#5 v=0
59488 On ch=4 n=g#3 v=71
59735 On ch=4 n=g#3 v=0
59735 On ch=4 n=d#4 v=69
59797 On ch=4 n=c5 v=69
59997 On ch=4 n=d#4 v=0
59998 On ch=4 n=c5 v=0
59998 On ch=4 n=d#5 v=71
59998 On ch=4 n=g#4 v=71
60244 On ch=4 n=g#4 v=0
60244 On ch=4 n=d#5 v=0
60244 On ch=4 n=g#5 v=77
60244 On ch=4 n=c5 v=77
60506 On ch=4 n=c5 v=0
60506 On ch=4 n=g#5 v=0
60990 Par ch=4 c=64 v=0
61010 On ch=4 n=g#3 v=69
61015 Par ch=4 c=64 v=127
61265 On ch=4 n=g#3 v=0
61265 On ch=4 n=d5 v=66
61265 On ch=4 n=f4 v=66
61520 On ch=4 n=f4 v=0
61520 On ch=4 n=d5 v=0
61520 On ch=4 n=f5 v=66
61520 On ch=4 n=g#4 v=66
61771 On ch=4 n=g#4 v=0
61771 On ch=4 n=f5 v=0
64245 Par ch=4 c=64 v=0
64264 On ch=4 n=g#3 v=50
64269 Par ch=4 c=64 v=127
64511 On ch=4 n=g#3 v=0
64512 On ch=4 n=d#4 v=53
64575 On ch=4 n=c#5 v=53
64759 On ch=4 n=d#4 v=0
64760 On ch=4 n=c#5 v=0
64760 On ch=4 n=d#5 v=49
64760 On ch=4 n=g4 v=49
65027 On ch=4 n=g4 v=0
65027 On ch=4 n=d#5 v=0
65028 On ch=4 n=g5 v=51
65028 On ch=4 n=c#5 v=51
65286 On ch=4 n=c#5 v=0
65286 On ch=4 n=g5 v=0
65808 On ch=4 n=g#3 v=49
66065 On ch=4 n=g#3 v=0
66065 On ch=4 n=d#4 v=48
66130 On ch=4 n=c#5 v=48
66321 On ch=4 n=c#5 v=0
66321 On ch=4 n=d#4 v=0
66322 On ch=4 n=d#5 v=45
66322 On ch=4 n=g4 v=45
66587 On ch=4 n=g4 v=0
66587 On ch=4 n=d#5 v=0
66587 On ch=4 n=g5 v=46
66587 On ch=4 n=c#5 v=46
66843 On ch=4 n=c#5 v=0
66843 On ch=4 n=g5 v=0
67360 Par ch=4 c=64 v=0
67362 On ch=4 n=g#3 v=51
67367 Par ch=4 c=64 v=127
67620 On ch=4 n=g#3 v=0
67621 On ch=4 n=c5 v=51
67621 On ch=4 n=d#4 v=51
67887 On ch=4 n=d#4 v=0
67887 On ch=4 n=c5 v=0
67888 On ch=4 n=d#5 v=45
67888 On ch=4 n=g#4 v=45
68155 On ch=4 n=g#4 v=0
68155 On ch=4 n=d#5 v=0
68156 On ch=4 n=g#5 v=46
68156 On ch=4 n=c5 v=46
68422 On ch=4 n=c5 v=0
68422 On ch=4 n=g#5 v=0
70415 Par ch=4 c=64 v=0
70481 On ch=4 n=g#3 v=46
70486 Par ch=4 c=64 v=127
70735 On ch=4 n=g#3 v=0
70735 On ch=4 n=c5 v=48
70735 On ch=4 n=d#4 v=48
71009 On ch=4 n=d#4 v=0
71009 On ch=4 n=c5 v=0
71010 On ch=4 n=d#5 v=45
71010 On ch=4 n=g#4 v=45
71272 On ch=4 n=g#4 v=0
71272 On ch=4 n=d#5 v=0
71273 On ch=4 n=g#5 v=57
71273 On ch=4 n=c5 v=57
71537 On ch=4 n=c5 v=0
71537 On ch=4 n=g#5 v=0
72042 On ch=4 n=g#3 v=51
72297 On ch=4 n=g#3 v=0
72297 On ch=4 n=c5 v=53
72297 On ch=4 n=d#4 v=53
72565 On ch=4 n=d#4 v=0
72565 On ch=4 n=c5 v=0
72565 On ch=4 n=d#5 v=56
72565 On ch=4 n=g#4 v=56
72808 On ch=4 n=g#4 v=0
72808 On ch=4 n=d#5 v=0
72808 On ch=4 n=g#5 v=61
72808 On ch=4 n=c5 v=61
73068 On ch=4 n=c5 v=0
73068 On ch=4 n=g#5 v=0
73566 Par ch=4 c=64 v=0
73587 On ch=4 n=d3 v=53
73592 Par ch=4 c=64 v=127
73834 On ch=4 n=d3 v=0
73835 On ch=4 n=g#4 v=55
73835 On ch=4 n=d4 v=55
74093 On ch=4 n=d4 v=0
74093 On ch=4 n=g#4 v=0
74094 On ch=4 n=d5 v=53
74094 On ch=4 n=f4 v=53
74352 On ch=4 n=f4 v=0
74352 On ch=4 n=d5 v=0
74352 On ch=4 n=f5 v=53
74352 On ch=4 n=g#4 v=53
74604 On ch=4 n=g#4 v=0
74604 On ch=4 n=f5 v=0
75568 On ch=4 n=g#5 v=50
75568 On ch=4 n=d5 v=50
75568 On ch=4 n=f4 v=50
75822 On ch=4 n=f4 v=0
75822 On ch=4 n=d5 v=0
75822 On ch=4 n=g#5 v=0
76744 Par ch=4 c=64 v=0
76746 On ch=4 n=d#3 v=62
76749 Par ch=4 c=64 v=127
76992 On ch=4 n=d#3 v=0
76992 On ch=4 n=g#5 v=55
76992 On ch=4 n=c5 v=55
77257 On ch=4 n=c5 v=0
77257 On ch=4 n=g#5 v=0
77258 On ch=4 n=c6 v=48
77258 On ch=4 n=d#5 v=48
77503 On ch=4 n=d#5 v=0
77503 On ch=4 n=c6 v=0
77503 On ch=4 n=d#6 v=55
77503 On ch=4 n=g#5 v=55
77769 On ch=4 n=g#5 v=0
77769 On ch=4 n=d#6 v=0
78284 Par ch=4 c=64 v=0
78299 On ch=4 n=d#3 v=53
78304 Par ch=4 c=64 v=127
78553 On ch=4 n=d#3 v=0
78553 On ch=4 n=c#5 v=51
78553 On ch=4 n=d#4 v=51
78831 On ch=4 n=d#4 v=0
78831 On ch=4 n=c#5 v=0
78832 On ch=4 n=d#5 v=49
78832 On ch=4 n=g4 v=49
79094 On ch=4 n=g4 v=0
79094 On ch=4 n=d#5 v=0
79095 On ch=4 n=f5 v=50
79095 On ch=4 n=c#5 v=50
79357 On ch=4 n=c#5 v=0
79357 On ch=4 n=f5 v=0
79852 Par ch=4 c=64 v=0
79854 On ch=4 n=g#3 v=48
79858 Par ch=4 c=64 v=127
80109 On ch=4 n=g#3 v=0
80110 On ch=4 n=c5 v=49
80110 On ch=4 n=d#4 v=49
80367 On ch=4 n=d#4 v=0
80367 On ch=4 n=c5 v=0
80367 On ch=4 n=d#5 v=51
80367 On ch=4 n=g#4 v=51
80633 On ch=4 n=g#4 v=0
80633 On ch=4 n=d#5 v=0
80634 On ch=4 n=g#5 v=47
80634 On ch=4 n=c5 v=47
80904 On ch=4 n=c5 v=0
80904 On ch=4 n=g#5 v=0
80904 On ch=4 n=c6 v=45
80904 On ch=4 n=d#5 v=45
81205 On ch=4 n=d#5 v=0
81205 On ch=4 n=c6 v=0
81206 On ch=4 n=d#6 v=47
81206 On ch=4 n=g#5 v=47
81563 On ch=4 n=g#5 v=0
81563 On ch=4 n=d#6 v=0
81564 On ch=4 n=g#6 v=37
81564 On ch=4 n=c6 v=37
82194 Par ch=4 c=64 v=0
82197 On ch=4 n=c6 v=0
82197 On ch=4 n=g#6 v=0
83243 On ch=4 n=e3 v=73
83247 Par ch=4 c=64 v=127
83498 On ch=4 n=e3 v=0
83499 On ch=4 n=c5 v=65
83499 On ch=4 n=a#4 v=65
83750 On ch=4 n=a#4 v=0
83750 On ch=4 n=c5 v=0
83750 On ch=4 n=e4 v=54
83782 On ch=4 n=a#4 v=54
83814 On ch=4 n=d#5 v=54
83877 On ch=4 n=d#5 v=0
83877 On ch=4 n=c#5 v=54
84002 On ch=4 n=c#5 v=0
84002 On ch=4 n=c5 v=55
84265 On ch=4 n=c5 v=0
84265 On ch=4 n=a#4 v=0
84265 On ch=4 n=e4 v=0
84266 On ch=4 n=c6 v=58
84266 On ch=4 n=a#5 v=58
84266 On ch=4 n=e5 v=58
84521 On ch=4 n=c6 v=0
84521 On ch=4 n=c5 v=59
84765 Par ch=4 c=64 v=0
84767 On ch=4 n=c5 v=0
84767 On ch=4 n=e5 v=0
84767 On ch=4 n=a#5 v=0
84767 On ch=4 n=c3 v=62
84771 Par ch=4 c=64 v=127
85039 On ch=4 n=c3 v=0
85040 On ch=4 n=c5 v=54
85040 On ch=4 n=a#4 v=54
85287 On ch=4 n=a#4 v=0
85287 On ch=4 n=c5 v=0
85287 On ch=4 n=d#4 v=54
85318 On ch=4 n=a#4 v=54
85350 On ch=4 n=d#5 v=54
85411 On ch=4 n=d#5 v=0
85411 On ch=4 n=c#5 v=54
85553 On ch=4 n=c#5 v=0
85554 On ch=4 n=c5 v=54
85810 On ch=4 n=a#4 v=0
85810 On ch=4 n=d#4 v=0
85811 On ch=4 n=c5 v=0
85811 On ch=4 n=c6 v=59
85811 On ch=4 n=a#5 v=59
85811 On ch=4 n=e5 v=59
86049 On ch=4 n=c6 v=0
86049 On ch=4 n=c5 v=65
86284 Par ch=4 c=64 v=0
86292 On ch=4 n=c5 v=0
86292 On ch=4 n=e5 v=0
86292 On ch=4 n=a#5 v=0
86292 On ch=4 n=f3 v=63
86296 Par ch=4 c=64 v=127
86550 On ch=4 n=f3 v=0
86551 On ch=4 n=c5 v=58
86551 On ch=4 n=g#4 v=58
86802 On ch=4 n=g#4 v=0
86802 On ch=4 n=c5 v=0
86802 On ch=4 n=f4 v=63
86833 On ch=4 n=g#4 v=63
86865 On ch=4 n=d#5 v=63
86927 On ch=4 n=d#5 v=0
86927 On ch=4 n=c#5 v=63
87050 On ch=4 n=c#5 v=0
87051 On ch=4 n=c5 v=61
87296 On ch=4 n=c5 v=0
87296 On ch=4 n=g#4 v=0
87297 On ch=4 n=f4 v=0
87297 On ch=4 n=c6 v=56
87297 On ch=4 n=g#5 v=56
87297 On ch=4 n=f5 v=56
87543 On ch=4 n=c6 v=0
87543 On ch=4 n=c5 v=60
87785 Par ch=4 c=64 v=0
87791 On ch=4 n=c5 v=0
87792 On ch=4 n=f5 v=0
87792 On ch=4 n=g#5 v=0
87792 On ch=4 n=f3 v=70
87796 Par ch=4 c=64 v=127
88034 On ch=4 n=f3 v=0
88034 On ch=4 n=c5 v=65
88034 On ch=4 n=g#4 v=65
88292 On ch=4 n=g#4 v=0
88292 On ch=4 n=c5 v=0
88292 On ch=4 n=f4 v=63
88325 On ch=4 n=g#4 v=63
88357 On ch=4 n=d#5 v=63
88421 On ch=4 n=d#5 v=0
88422 On ch=4 n=c#5 v=63
88515 On ch=4 n=c#5 v=0
88516 On ch=4 n=c5 v=79
88727 On ch=4 n=c5 v=0
88727 On ch=4 n=g#4 v=0
88727 On ch=4 n=f4 v=0
88727 On ch=4 n=c6 v=79
88727 On ch=4 n=g#5 v=79
88727 On ch=4 n=f5 v=79
88944 On ch=4 n=c6 v=0
88944 On ch=4 n=c5 v=80
89157 Par ch=4 c=64 v=0
89184 On ch=4 n=c5 v=0
89184 On ch=4 n=f5 v=0
89184 On ch=4 n=g#5 v=0
89185 On ch=4 n=e3 v=70
89189 Par ch=4 c=64 v=127
89429 On ch=4 n=e3 v=0
89430 On ch=4 n=c5 v=60
89430 On ch=4 n=a#4 v=60
89663 On ch=4 n=a#4 v=0
89663 On ch=4 n=c5 v=0
89664 On ch=4 n=e4 v=61
89693 On ch=4 n=a#4 v=61
89722 On ch=4 n=d#5 v=61
89780 On ch=4 n=d#5 v=0
89780 On ch=4 n=c#5 v=61
89924 On ch=4 n=c#5 v=0
89925 On ch=4 n=c5 v=62
90161 On ch=4 n=c5 v=0
90161 On ch=4 n=a#4 v=0
90162 On ch=4 n=e4 v=0
90162 On ch=4 n=c#6 v=55
90162 On ch=4 n=a#5 v=55
90162 On ch=4 n=e5 v=55
90402 On ch=4 n=c#6 v=0
90402 On ch=4 n=c6 v=64
90636 Par ch=4 c=64 v=0
90638 On ch=4 n=c6 v=0
90638 On ch=4 n=e5 v=0
90638 On ch=4 n=a#5 v=0
90639 On ch=4 n=c3 v=54
90642 Par ch=4 c=64 v=127
90882 On ch=4 n=c3 v=0
90882 On ch=4 n=c5 v=61
90882 On ch=4 n=a#4 v=61
91139 On ch=4 n=a#4 v=0
91139 On ch=4 n=c5 v=0
91139 On ch=4 n=d4 v=54
91171 On ch=4 n=a#4 v=54
91204 On ch=4 n=d#5 v=54
91267 On ch=4 n=d#5 v=0
91268 On ch=4 n=c#5 v=54
91389 On ch=4 n=c#5 v=0
91389 On ch=4 n=c5 v=58
91637 On ch=4 n=c5 v=0
91637 On ch=4 n=a#4 v=0
91637 On ch=4 n=d4 v=0
91638 On ch=4 n=c#6 v=58
91638 On ch=4 n=a#5 v=58
91638 On ch=4 n=e5 v=58
91882 On ch=4 n=c#6 v=0
91883 On ch=4 n=c6 v=58
92124 Par ch=4 c=64 v=0
92133 On ch=4 n=e5 v=0
92133 On ch=4 n=a#5 v=0
92134 On ch=4 n=c6 v=0
92134 On ch=4 n=f3 v=58
92138 Par ch=4 c=64 v=127
92373 On ch=4 n=f3 v=0
92373 On ch=4 n=c5 v=58
92373 On ch=4 n=g#4 v=58
92620 On ch=4 n=g#4 v=0
92620 On ch=4 n=c5 v=0
92620 On ch=4 n=f4 v=59
92651 On ch=4 n=g#4 v=59
92682 On ch=4 n=d#5 v=59
92744 On ch=4 n=d#5 v=0
92744 On ch=4 n=c#5 v=59
92845 On ch=4 n=c#5 v=0
92845 On ch=4 n=c5 v=65
93077 On ch=4 n=c5 v=0
93077 On ch=4 n=f4 v=0
93078 On ch=4 n=g#4 v=0
93078 On ch=4 n=c#6 v=64
93078 On ch=4 n=g#5 v=64
93314 On ch=4 n=c#6 v=0
93315 On ch=4 n=c6 v=59
93550 Par ch=4 c=64 v=0
93554 On ch=4 n=c6 v=0
93554 On ch=4 n=g#5 v=0
93800 On ch=4 n=c5 v=58
93800 On ch=4 n=g#4 v=58
94051 On ch=4 n=g#4 v=0
94051 On ch=4 n=c5 v=0
94052 On ch=4 n=f4 v=55
94084 On ch=4 n=g#4 v=55
94115 On ch=4 n=d#5 v=55
94178 On ch=4 n=d#5 v=0
94179 On ch=4 n=c#5 v=55
94305 On ch=4 n=c#5 v=0
94305 On ch=4 n=c5 v=56
94541 On ch=4 n=c5 v=0
94541 On ch=4 n=g#4 v=0
94541 On ch=4 n=f4 v=0
94542 On ch=4 n=d#5 v=51
94542 On ch=4 n=g#4 v=51
94542 On ch=4 n=f4 v=51
94542 On ch=4 n=d#4 v=51
94787 On ch=4 n=d#5 v=0
94787 On ch=4 n=b4 v=48
95031 On ch=4 n=b4 v=0
95032 On ch=4 n=d#4 v=0
95032 On ch=4 n=f4 v=0
95032 On ch=4 n=g#4 v=0
95032 On ch=4 n=d4 v=47
95269 On ch=4 n=d4 v=0
95270 On ch=4 n=g#5 v=44
95270 On ch=4 n=f5 v=44
95270 On ch=4 n=a#4 v=44
95504 On ch=4 n=a#4 v=0
95504 On ch=4 n=f5 v=0
95504 On ch=4 n=g#5 v=0
95504 On ch=4 n=g#5 v=45
95504 On ch=4 n=f5 v=45
95504 On ch=4 n=d5 v=45
95562 On ch=4 n=d5 v=0
95562 On ch=4 n=c5 v=45
95712 On ch=4 n=c5 v=0
95713 On ch=4 n=f5 v=0
95713 On ch=4 n=g#5 v=0
95713 On ch=4 n=g#5 v=54
95713 On ch=4 n=f5 v=54
95713 On ch=4 n=a#4 v=54
95896 On ch=4 n=a#4 v=0
95896 On ch=4 n=f5 v=0
95896 On ch=4 n=g#5 v=0
96335 On ch=4 n=d#4 v=35
96586 On ch=4 n=d#4 v=0
96586 On ch=4 n=g5 v=40
96586 On ch=4 n=d#5 v=40
96586 On ch=4 n=a#4 v=40
96822 On ch=4 n=a#4 v=0
96822 On ch=4 n=d#5 v=0
96822 On ch=4 n=g5 v=0
96822 On ch=4 n=g5 v=47
96822 On ch=4 n=d#5 v=47
96822 On ch=4 n=d5 v=47
96881 On ch=4 n=d5 v=0
96882 On ch=4 n=c5 v=47
97053 On ch=4 n=d#5 v=0
97053 On ch=4 n=g5 v=0
97054 On ch=4 n=c5 v=0
97054 On ch=4 n=g5 v=41
97054 On ch=4 n=d#5 v=41
97054 On ch=4 n=a#4 v=41
97256 On ch=4 n=a#4 v=0
97256 On ch=4 n=d#5 v=0
97256 On ch=4 n=g5 v=0
97682 On ch=4 n=d4 v=44
97930 On ch=4 n=d4 v=0
97931 On ch=4 n=g#5 v=45
97931 On ch=4 n=f5 v=45
97931 On ch=4 n=a#4 v=45
98169 On ch=4 n=a#4 v=0
98169 On ch=4 n=f5 v=0
98169 On ch=4 n=g#5 v=0
98169 On ch=4 n=g#5 v=54
98169 On ch=4 n=f5 v=54
98169 On ch=4 n=c#5 v=54
98229 On ch=4 n=c#5 v=0
98229 On ch=4 n=b4 v=54
98369 On ch=4 n=b4 v=0
98369 On ch=4 n=f5 v=0
98369 On ch=4 n=g#5 v=0
98370 On ch=4 n=g#5 v=61
98370 On ch=4 n=f5 v=61
98370 On ch=4 n=a#4 v=61
98562 On ch=4 n=a#4 v=0
98562 On ch=4 n=f5 v=0
98562 On ch=4 n=g#5 v=0
98967 On ch=4 n=d#4 v=83
99225 On ch=4 n=d#4 v=0
99226 On ch=4 n=g5 v=70
99226 On ch=4 n=d#5 v=70
99226 On ch=4 n=a#4 v=70
99433 On ch=4 n=a#4 v=0
99433 On ch=4 n=d#5 v=0
99433 On ch=4 n=g5 v=0
99434 On ch=4 n=g5 v=73
99434 On ch=4 n=d#5 v=73
99434 On ch=4 n=c#5 v=73
99485 On ch=4 n=c#5 v=0
99485 On ch=4 n=b4 v=73
99627 On ch=4 n=b4 v=0
99627 On ch=4 n=d#5 v=0
99627 On ch=4 n=g5 v=0
99627 On ch=4 n=g5 v=82
99627 On ch=4 n=d#5 v=82
99627 On ch=4 n=a#4 v=82
99791 On ch=4 n=a#4 v=0
99791 On ch=4 n=d#5 v=0
99791 On ch=4 n=g5 v=0
100141 On ch=4 n=a3 v=84
100141 On ch=4 n=a2 v=84
100144 Par ch=4 c=64 v=127
100366 On ch=4 n=a2 v=0
100366 On ch=4 n=a3 v=0
100366 On ch=4 n=b5 v=81
100366 On ch=4 n=f#5 v=81
100366 On ch=4 n=d#5 v=81
100366 On ch=4 n=a4 v=81
100587 On ch=4 n=a4 v=0
100587 On ch=4 n=d#5 v=0
100587 On ch=4 n=f#5 v=0
100587 On ch=4 n=b5 v=0
100587 On ch=4 n=d#6 v=85
100587 On ch=4 n=f#5 v=85
100587 On ch=4 n=d#5 v=85
100587 On ch=4 n=a4 v=85
100642 On ch=4 n=d#6 v=0
100643 On ch=4 n=c#6 v=85
100776 On ch=4 n=a4 v=0
100776 On ch=4 n=d#5 v=0
100776 On ch=4 n=f#5 v=0
100777 On ch=4 n=c#6 v=0
100777 On ch=4 n=b5 v=86
100777 On ch=4 n=f#5 v=86
100777 On ch=4 n=d#5 v=86
100777 On ch=4 n=a4 v=86
100955 On ch=4 n=a4 v=0
100955 On ch=4 n=d#5 v=0
100955 On ch=4 n=f#5 v=0
100955 On ch=4 n=b5 v=0
102544 Par ch=4 c=64 v=0
102565 On ch=4 n=g#3 v=57
102565 On ch=4 n=g#2 v=57
102570 Par ch=4 c=64 v=127
102865 On ch=4 n=g#2 v=0
102865 On ch=4 n=g#3 v=0
102865 On ch=4 n=b5 v=61
102865 On ch=4 n=e5 v=61
102865 On ch=4 n=g#4 v=61
103153 On ch=4 n=g#4 v=0
103153 On ch=4 n=e5 v=0
103153 On ch=4 n=b5 v=0
103153 On ch=4 n=d#6 v=56
103153 On ch=4 n=e5 v=56
103153 On ch=4 n=g#4 v=56
103224 On ch=4 n=d#6 v=0
103225 On ch=4 n=c#6 v=56
103447 On ch=4 n=c#6 v=0
103447 On ch=4 n=g#4 v=0
103447 On ch=4 n=e5 v=0
103448 On ch=4 n=b5 v=51
103448 On ch=4 n=e5 v=51
103448 On ch=4 n=g#4 v=51
103755 On ch=4 n=g#4 v=0
103755 On ch=4 n=e5 v=0
103755 On ch=4 n=b5 v=0
106173 Par ch=4 c=64 v=0
106216 On ch=4 n=a3 v=48
106216 On ch=4 n=a2 v=48
106222 Par ch=4 c=64 v=127
106540 On ch=4 n=a2 v=0
106540 On ch=4 n=a3 v=0
106541 On ch=4 n=b5 v=50
106541 On ch=4 n=f#5 v=50
106541 On ch=4 n=d#5 v=50
106541 On ch=4 n=a4 v=50
106844 On ch=4 n=a4 v=0
106844 On ch=4 n=d#5 v=0
106844 On ch=4 n=f#5 v=0
106844 On ch=4 n=b5 v=0
106844 On ch=4 n=a4 v=69
106882 On ch=4 n=d#5 v=69
106920 On ch=4 n=f#5 v=69
106958 On ch=4 n=d6 v=69
106995 On ch=4 n=d6 v=0
106996 On ch=4 n=c6 v=69
107121 On ch=4 n=a4 v=0
107122 On ch=4 n=c6 v=0
107122 On ch=4 n=f#5 v=0
107122 On ch=4 n=d#5 v=0
107122 On ch=4 n=b5 v=91
107122 On ch=4 n=f#5 v=91
107122 On ch=4 n=d#5 v=91
107122 On ch=4 n=a4 v=91
107388 On ch=4 n=a4 v=0
107388 On ch=4 n=d#5 v=0
107388 On ch=4 n=f#5 v=0
107388 On ch=4 n=b5 v=0
109414 Par ch=4 c=64 v=0
109439 On ch=4 n=a#3 v=100
109439 On ch=4 n=a#2 v=100
109444 Par ch=4 c=64 v=127
109684 On ch=4 n=a#2 v=0
109684 On ch=4 n=a#3 v=0
109685 On ch=4 n=g5 v=94
109685 On ch=4 n=d#5 v=94
109685 On ch=4 n=g4 v=94
109936 On ch=4 n=g4 v=0
109936 On ch=4 n=d#5 v=0
109936 On ch=4 n=g5 v=0
109936 On ch=4 n=g4 v=94
109936 On ch=4 n=d#4 v=94
109936 On ch=4 n=a#3 v=94
110183 On ch=4 n=a#3 v=0
110183 On ch=4 n=d#4 v=0
110183 On ch=4 n=g4 v=0
110924 Par ch=4 c=64 v=0
110956 On ch=4 n=a#3 v=107
110956 On ch=4 n=a#2 v=107
110961 Par ch=4 c=64 v=127
111213 On ch=4 n=a#2 v=0
111213 On ch=4 n=a#3 v=0
111214 On ch=4 n=g#5 v=95
111214 On ch=4 n=f5 v=95
111214 On ch=4 n=d5 v=95
111501 On ch=4 n=d5 v=0
111501 On ch=4 n=f5 v=0
111501 On ch=4 n=g#5 v=0
111501 On ch=4 n=d5 v=98
111501 On ch=4 n=g#4 v=98
111501 On ch=4 n=f4 v=98
111501 On ch=4 n=a#3 v=98
111794 On ch=4 n=a#3 v=0
111794 On ch=4 n=f4 v=0
111794 On ch=4 n=g#4 v=0
111794 On ch=4 n=d5 v=0
112717 Par ch=4 c=64 v=0
112782 On ch=4 n=g4 v=107
112782 On ch=4 n=a#3 v=107
112782 On ch=4 n=d#3 v=107
112789 Par ch=4 c=64 v=127
113118 On ch=4 n=d#3 v=0
113118 On ch=4 n=a#3 v=0
113118 On ch=4 n=g4 v=0
114848 Par ch=4 c=64 v=0
116716 On ch=4 n=d#4 v=61
116720 Par ch=4 c=64 v=127
116830 On ch=4 n=d#4 v=0
116831 On ch=4 n=f5 v=55
116933 On ch=4 n=f5 v=0
116934 On ch=4 n=d#5 v=55
117013 On ch=4 n=d#5 v=0
117013 On ch=4 n=c5 v=58
117104 On ch=4 n=c5 v=0
117105 On ch=4 n=a#4 v=58
117199 On ch=4 n=a#4 v=0
117200 On ch=4 n=f4 v=56
117293 On ch=4 n=f4 v=0
117293 On ch=4 n=d#4 v=56
117380 On ch=4 n=d#4 v=0
117380 On ch=4 n=c4 v=56
117470 On ch=4 n=c4 v=0
117471 On ch=4 n=a#3 v=56
117561 On ch=4 n=a#3 v=0
117561 On ch=4 n=f3 v=59
117651 On ch=4 n=f3 v=0
117652 On ch=4 n=d#3 v=59
117739 Par ch=4 c=64 v=0
117740 On ch=4 n=d#3 v=0
117830 On ch=4 n=d#4 v=58
117834 Par ch=4 c=64 v=127
117919 On ch=4 n=d#4 v=0
117920 On ch=4 n=f#5 v=56
118010 On ch=4 n=f#5 v=0
118010 On ch=4 n=f5 v=56
118096 On ch=4 n=f5 v=0
118096 On ch=4 n=c#5 v=56
118184 On ch=4 n=c#5 v=0
118185 On ch=4 n=c5 v=56
118265 On ch=4 n=c5 v=0
118265 On ch=4 n=f#4 v=59
118349 On ch=4 n=f#4 v=0
118350 On ch=4 n=f4 v=59
118440 On ch=4 n=f4 v=0
118440 On ch=4 n=c#4 v=58
118527 On ch=4 n=c#4 v=0
118527 On ch=4 n=c4 v=58
118605 On ch=4 n=c4 v=0
118606 On ch=4 n=f#3 v=56
118687 Par ch=4 c=64 v=0
118689 On ch=4 n=f#3 v=0
118690 On ch=4 n=d#3 v=56
118783 On ch=4 n=d#3 v=0
118869 On ch=4 n=d#4 v=55
118872 Par ch=4 c=64 v=127
118967 On ch=4 n=d#4 v=0
118968 On ch=4 n=g#5 v=58
119061 On ch=4 n=g#5 v=0
119061 On ch=4 n=g5 v=58
119143 On ch=4 n=g5 v=0
119144 On ch=4 n=d#5 v=58
119232 On ch=4 n=d#5 v=0
119232 On ch=4 n=d5 v=58
119307 On ch=4 n=d5 v=0
119307 On ch=4 n=g#4 v=63
119389 On ch=4 n=g#4 v=0
119390 On ch=4 n=g4 v=63
119492 On ch=4 n=g4 v=0
119492 On ch=4 n=d#4 v=54
119584 On ch=4 n=d#4 v=0
119585 On ch=4 n=d4 v=54
119675 On ch=4 n=d4 v=0
119675 On ch=4 n=f5 v=56
119675 On ch=4 n=g#3 v=56
119765 Par ch=4 c=64 v=0
119766 On ch=4 n=g#3 v=0
119767 On ch=4 n=g3 v=56
119885 On ch=4 n=f5 v=0
119887 On ch=4 n=g3 v=0
120095 On ch=4 n=d#3 v=53
120099 Par ch=4 c=64 v=127
120147 On ch=4 n=d#3 v=0
120147 On ch=4 n=f3 v=53
120199 On ch=4 n=f3 v=0
120200 On ch=4 n=d#3 v=53
120275 On ch=4 n=d#3 v=0
120275 On ch=4 n=d3 v=59
120365 On ch=4 n=d3 v=0
120366 On ch=4 n=d#3 v=59
120448 On ch=4 n=d#3 v=0
120448 On ch=4 n=g3 v=61
120532 Par ch=4 c=64 v=0
120534 On ch=4 n=g3 v=0
120535 On ch=4 n=a#3 v=61
120606 On ch=4 n=a#3 v=0
120607 On ch=4 n=c#4 v=63
120686 On ch=4 n=c#4 v=0
120687 On ch=4 n=d#4 v=63
120781 On ch=4 n=d#4 v=0
120781 On ch=4 n=g4 v=62
120868 On ch=4 n=g4 v=0
120869 On ch=4 n=a#4 v=62
120947 On ch=4 n=a#4 v=0
120951 Par ch=4 c=64 v=127
121120 On ch=4 n=c#5 v=61
121120 On ch=4 n=g4 v=61
121120 On ch=4 n=d#4 v=61
121300 On ch=4 n=d#4 v=0
121300 On ch=4 n=g4 v=0
121300 On ch=4 n=c#5 v=0
121301 On ch=4 n=c#5 v=56
121301 On ch=4 n=g4 v=56
121301 On ch=4 n=d#4 v=56
121486 On ch=4 n=d#4 v=0
121486 On ch=4 n=g4 v=0
121486 On ch=4 n=c#5 v=0
122034 Par ch=4 c=64 v=0
122048 Par ch=4 c=64 v=127
122235 On ch=4 n=c5 v=56
122235 On ch=4 n=a4 v=56
122235 On ch=4 n=d#4 v=56
122429 On ch=4 n=d#4 v=0
122429 On ch=4 n=a4 v=0
122429 On ch=4 n=c5 v=0
122429 On ch=4 n=c5 v=58
122429 On ch=4 n=a4 v=58
122429 On ch=4 n=d#4 v=58
122631 On ch=4 n=d#4 v=0
122631 On ch=4 n=a4 v=0
122631 On ch=4 n=c5 v=0
123216 Par ch=4 c=64 v=0
123225 Par ch=4 c=64 v=127
123425 On ch=4 n=d5 v=56
123425 On ch=4 n=a#4 v=56
123425 On ch=4 n=e4 v=56
123620 On ch=4 n=e4 v=0
123620 On ch=4 n=a#4 v=0
123620 On ch=4 n=d5 v=0
123620 On ch=4 n=d5 v=54
123620 On ch=4 n=a#4 v=54
123620 On ch=4 n=e4 v=54
123818 On ch=4 n=e4 v=0
123818 On ch=4 n=a#4 v=0
123818 On ch=4 n=d5 v=0
123819 On ch=4 n=d5 v=54
123819 On ch=4 n=a#4 v=54
123819 On ch=4 n=e4 v=54
124015 On ch=4 n=e4 v=0
124015 On ch=4 n=a#4 v=0
124015 On ch=4 n=d5 v=0
124211 On ch=4 n=d5 v=57
124211 On ch=4 n=a#4 v=57
124211 On ch=4 n=e4 v=57
124403 Par ch=4 c=64 v=0
124413 On ch=4 n=e4 v=0
124413 On ch=4 n=a#4 v=0
124413 On ch=4 n=d5 v=0
124417 Par ch=4 c=64 v=127
124640 On ch=4 n=e5 v=60
124640 On ch=4 n=c#5 v=60
124640 On ch=4 n=e4 v=60
124835 On ch=4 n=e4 v=0
124835 On ch=4 n=c#5 v=0
124835 On ch=4 n=e5 v=0
124835 On ch=4 n=e5 v=66
124835 On ch=4 n=c#5 v=66
124835 On ch=4 n=e4 v=66
125036 On ch=4 n=e4 v=0
125036 On ch=4 n=c#5 v=0
125036 On ch=4 n=e5 v=0
125036 On ch=4 n=e5 v=66
125036 On ch=4 n=c#5 v=66
125036 On ch=4 n=e4 v=66
125235 On ch=4 n=e4 v=0
125235 On ch=4 n=c#5 v=0
125235 On ch=4 n=e5 v=0
125441 On ch=4 n=e5 v=71
125441 On ch=4 n=c#5 v=71
125441 On ch=4 n=e4 v=71
125634 Par ch=4 c=64 v=0
125636 On ch=4 n=e4 v=0
125636 On ch=4 n=c#5 v=0
125636 On ch=4 n=e5 v=0
125640 Par ch=4 c=64 v=127
125828 On ch=4 n=d5 v=79
125828 On ch=4 n=b4 v=79
125828 On ch=4 n=d#4 v=79
126030 On ch=4 n=d#4 v=0
126030 On ch=4 n=b4 v=0
126030 On ch=4 n=d5 v=0
126031 On ch=4 n=d5 v=78
126031 On ch=4 n=b4 v=78
126031 On ch=4 n=d#4 v=78
126218 On ch=4 n=d#4 v=0
126218 On ch=4 n=b4 v=0
126218 On ch=4 n=d5 v=0
126219 On ch=4 n=d5 v=82
126219 On ch=4 n=b4 v=82
126219 On ch=4 n=d#4 v=82
126425 On ch=4 n=d#4 v=0
126425 On ch=4 n=b4 v=0
126425 On ch=4 n=d5 v=0
126624 On ch=4 n=d5 v=87
126624 On ch=4 n=b4 v=87
126624 On ch=4 n=d#4 v=87
126818 Par ch=4 c=64 v=0
126827 On ch=4 n=d#4 v=0
126827 On ch=4 n=b4 v=0
126827 On ch=4 n=d5 v=0
126830 Par ch=4 c=64 v=127
127041 On ch=4 n=e5 v=88
127041 On ch=4 n=c#5 v=88
127041 On ch=4 n=d#4 v=88
127221 On ch=4 n=d#4 v=0
127221 On ch=4 n=c#5 v=0
127221 On ch=4 n=e5 v=0
127222 On ch=4 n=e5 v=88
127222 On ch=4 n=c#5 v=88
127222 On ch=4 n=d#4 v=88
127406 On ch=4 n=d#4 v=0
127406 On ch=4 n=c#5 v=0
127406 On ch=4 n=e5 v=0
127407 On ch=4 n=e5 v=85
127407 On ch=4 n=c#5 v=85
127407 On ch=4 n=d#4 v=85
127604 On ch=4 n=d#4 v=0
127604 On ch=4 n=c#5 v=0
127604 On ch=4 n=e5 v=0
127799 On ch=4 n=e5 v=84
127799 On ch=4 n=c#5 v=84
127799 On ch=4 n=d#4 v=84
127983 Par ch=4 c=64 v=0
127984 On ch=4 n=d#4 v=0
127984 On ch=4 n=c#5 v=0
127984 On ch=4 n=e5 v=0
127988 Par ch=4 c=64 v=127
128195 On ch=4 n=d5 v=89
128195 On ch=4 n=b4 v=89
128195 On ch=4 n=d#4 v=89
128392 On ch=4 n=d#4 v=0
128392 On ch=4 n=b4 v=0
128392 On ch=4 n=d5 v=0
128393 On ch=4 n=d5 v=89
128393 On ch=4 n=b4 v=89
128393 On ch=4 n=d#4 v=89
128573 On ch=4 n=d#4 v=0
128573 On ch=4 n=b4 v=0
128573 On ch=4 n=d5 v=0
128574 On ch=4 n=d5 v=83
128574 On ch=4 n=b4 v=83
128574 On ch=4 n=d#4 v=83
128757 On ch=4 n=d#4 v=0
128757 On ch=4 n=b4 v=0
128757 On ch=4 n=d5 v=0
128954 On ch=4 n=d5 v=88
128954 On ch=4 n=b4 v=88
128954 On ch=4 n=d#4 v=88
129147 Par ch=4 c=64 v=0
129152 On ch=4 n=d#4 v=0
129152 On ch=4 n=b4 v=0
129152 On ch=4 n=d5 v=0
129156 Par ch=4 c=64 v=127
129329 On ch=4 n=e5 v=96
129329 On ch=4 n=c#5 v=96
129329 On ch=4 n=d#4 v=96
129527 On ch=4 n=d#4 v=0
129527 On ch=4 n=c#5 v=0
129527 On ch=4 n=e5 v=0
129528 On ch=4 n=e5 v=96
129528 On ch=4 n=c#5 v=96
129528 On ch=4 n=d#4 v=96
129719 On ch=4 n=d#4 v=0
129719 On ch=4 n=c#5 v=0
129719 On ch=4 n=e5 v=0
129719 On ch=4 n=e5 v=93
129719 On ch=4 n=c#5 v=93
129719 On ch=4 n=d#4 v=93
129914 On ch=4 n=d#4 v=0
129914 On ch=4 n=c#5 v=0
129914 On ch=4 n=e5 v=0
130126 On ch=4 n=e5 v=97
130126 On ch=4 n=c#5 v=97
130126 On ch=4 n=d#4 v=97
130327 Par ch=4 c=64 v=0
130330 On ch=4 n=d#4 v=0
130330 On ch=4 n=c#5 v=0
130330 On ch=4 n=e5 v=0
130333 Par ch=4 c=64 v=127
131538 Par ch=4 c=64 v=0
131544 Par ch=4 c=64 v=127
132727 Par ch=4 c=64 v=0
141286 On ch=4 n=g#3 v=45
141291 Par ch=4 c=64 v=127
141530 On ch=4 n=g#3 v=0
141531 On ch=4 n=c5 v=40
141531 On ch=4 n=d#4 v=40
141794 On ch=4 n=d#4 v=0
141794 On ch=4 n=c5 v=0
141795 On ch=4 n=d#5 v=45
141795 On ch=4 n=g#4 v=45
142061 On ch=4 n=g#4 v=0
142061 On ch=4 n=d#5 v=0
142061 On ch=4 n=g#5 v=35
142061 On ch=4 n=c5 v=35
142323 On ch=4 n=c5 v=0
142323 On ch=4 n=g#5 v=0
142821 On ch=4 n=g#3 v=49
143083 On ch=4 n=g#3 v=0
143084 On ch=4 n=c5 v=41
143084 On ch=4 n=d#4 v=41
143352 On ch=4 n=d#4 v=0
143352 On ch=4 n=c5 v=0
143353 On ch=4 n=d#5 v=45
143353 On ch=4 n=g#4 v=45
143612 On ch=4 n=g#4 v=0
143612 On ch=4 n=d#5 v=0
143612 On ch=4 n=g#5 v=40
143612 On ch=4 n=c5 v=40
143869 On ch=4 n=c5 v=0
143869 On ch=4 n=g#5 v=0
144367 Par ch=4 c=64 v=0
144387 On ch=4 n=g#3 v=53
144392 Par ch=4 c=64 v=127
144638 On ch=4 n=g#3 v=0
144638 On ch=4 n=d5 v=45
144638 On ch=4 n=f4 v=45
144900 On ch=4 n=f4 v=0
144900 On ch=4 n=d5 v=0
144901 On ch=4 n=f5 v=42
144901 On ch=4 n=g#4 v=42
145154 On ch=4 n=g#4 v=0
145154 On ch=4 n=f5 v=0
147598 Par ch=4 c=64 v=0
147612 On ch=4 n=g#3 v=53
147617 Par ch=4 c=64 v=127
147874 On ch=4 n=g#3 v=0
147875 On ch=4 n=c#5 v=42
147875 On ch=4 n=d#4 v=42
148134 On ch=4 n=d#4 v=0
148134 On ch=4 n=c#5 v=0
148134 On ch=4 n=d#5 v=42
148134 On ch=4 n=g4 v=42
148394 On ch=4 n=g4 v=0
148394 On ch=4 n=d#5 v=0
148395 On ch=4 n=g5 v=45
148395 On ch=4 n=c#5 v=45
148660 On ch=4 n=c#5 v=0
148660 On ch=4 n=g5 v=0
149174 On ch=4 n=g#3 v=46
149429 On ch=4 n=g#3 v=0
149430 On ch=4 n=c#5 v=47
149430 On ch=4 n=d#4 v=47
149671 On ch=4 n=d#4 v=0
149671 On ch=4 n=c#5 v=0
149672 On ch=4 n=d#5 v=48
149672 On ch=4 n=g4 v=48
149944 On ch=4 n=g4 v=0
149944 On ch=4 n=d#5 v=0
149944 On ch=4 n=g5 v=46
149944 On ch=4 n=c#5 v=46
150201 On ch=4 n=c#5 v=0
150201 On ch=4 n=g5 v=0
150718 Par ch=4 c=64 v=0
150725 On ch=4 n=g#3 v=46
150729 Par ch=4 c=64 v=127
150967 On ch=4 n=g#3 v=0
150967 On ch=4 n=c5 v=51
150967 On ch=4 n=d#4 v=51
151229 On ch=4 n=d#4 v=0
151229 On ch=4 n=c5 v=0
151229 On ch=4 n=d#5 v=49
151229 On ch=4 n=g#4 v=49
151486 On ch=4 n=g#4 v=0
151486 On ch=4 n=d#5 v=0
151487 On ch=4 n=g#5 v=44
151487 On ch=4 n=c5 v=44
151754 On ch=4 n=c5 v=0
151754 On ch=4 n=g#5 v=0
154041 Par ch=4 c=64 v=0
154044 On ch=4 n=g#3 v=45
154048 Par ch=4 c=64 v=127
154314 On ch=4 n=g#3 v=0
154314 On ch=4 n=c5 v=39
154314 On ch=4 n=d#4 v=39
154573 On ch=4 n=d#4 v=0
154573 On ch=4 n=c5 v=0
154574 On ch=4 n=d#5 v=46
154574 On ch=4 n=g#4 v=46
154847 On ch=4 n=g#4 v=0
154847 On ch=4 n=d#5 v=0
154848 On ch=4 n=g#5 v=41
154848 On ch=4 n=c5 v=41
155115 On ch=4 n=c5 v=0
155115 On ch=4 n=g#5 v=0
155642 On ch=4 n=g#3 v=49
155898 On ch=4 n=g#3 v=0
155898 On ch=4 n=c5 v=51
155898 On ch=4 n=d#4 v=51
156165 On ch=4 n=d#4 v=0
156165 On ch=4 n=c5 v=0
156166 On ch=4 n=d#5 v=44
156166 On ch=4 n=g#4 v=44
156417 On ch=4 n=g#4 v=0
156417 On ch=4 n=d#5 v=0
156417 On ch=4 n=g#5 v=47
156417 On ch=4 n=c5 v=47
156675 On ch=4 n=c5 v=0
156675 On ch=4 n=g#5 v=0
157199 Par ch=4 c=64 v=0
157207 On ch=4 n=d3 v=48
157499 On ch=4 n=d3 v=0
157500 On ch=4 n=g#4 v=36
157500 On ch=4 n=d4 v=36
157505 Par ch=4 c=64 v=127
157740 On ch=4 n=d4 v=0
157740 On ch=4 n=g#4 v=0
157741 On ch=4 n=d5 v=44
157741 On ch=4 n=f4 v=44
158014 On ch=4 n=f4 v=0
158014 On ch=4 n=d5 v=0
158015 On ch=4 n=f5 v=44
158015 On ch=4 n=g#4 v=44
158277 On ch=4 n=g#4 v=0
158277 On ch=4 n=f5 v=0
159031 On ch=4 n=g#5 v=49
159031 On ch=4 n=d5 v=49
159031 On ch=4 n=f4 v=49
159306 On ch=4 n=f4 v=0
159306 On ch=4 n=d5 v=0
159306 On ch=4 n=g#5 v=0
160535 Par ch=4 c=64 v=0
160544 On ch=4 n=d#3 v=44
160795 On ch=4 n=d#3 v=0
160795 On ch=4 n=g#5 v=41
160795 On ch=4 n=c5 v=41
160799 Par ch=4 c=64 v=127
161065 On ch=4 n=c5 v=0
161065 On ch=4 n=g#5 v=0
161065 On ch=4 n=c6 v=39
161065 On ch=4 n=d#5 v=39
161330 On ch=4 n=d#5 v=0
161330 On ch=4 n=c6 v=0
161331 On ch=4 n=d#6 v=46
161331 On ch=4 n=g#5 v=46
161593 On ch=4 n=g#5 v=0
161593 On ch=4 n=d#6 v=0
162112 Par ch=4 c=64 v=0
162123 On ch=4 n=d#3 v=45
162379 On ch=4 n=d#3 v=0
162380 On ch=4 n=c#5 v=39
162380 On ch=4 n=d#4 v=39
162385 Par ch=4 c=64 v=127
162649 On ch=4 n=d#4 v=0
162649 On ch=4 n=c#5 v=0
162649 On ch=4 n=d#5 v=35
162649 On ch=4 n=g4 v=35
162907 On ch=4 n=g4 v=0
162907 On ch=4 n=d#5 v=0
162907 On ch=4 n=g5 v=45
162907 On ch=4 n=c#5 v=45
163169 On ch=4 n=c#5 v=0
163169 On ch=4 n=g5 v=0
163695 Par ch=4 c=64 v=0
163698 On ch=4 n=g#3 v=41
163702 Par ch=4 c=64 v=127
163958 On ch=4 n=g#3 v=0
163958 On ch=4 n=c5 v=37
163958 On ch=4 n=d#4 v=37
164214 On ch=4 n=d#4 v=0
164214 On ch=4 n=c5 v=0
164215 On ch=4 n=d#5 v=42
164215 On ch=4 n=g#4 v=42
164476 On ch=4 n=g#4 v=0
164476 On ch=4 n=d#5 v=0
164476 On ch=4 n=g#5 v=41
164476 On ch=4 n=c5 v=41
164760 On ch=4 n=c5 v=0
164760 On ch=4 n=g#5 v=0
164760 On ch=4 n=c6 v=39
164760 On ch=4 n=d#5 v=39
165056 On ch=4 n=d#5 v=0
165056 On ch=4 n=c6 v=0
165057 On ch=4 n=d#6 v=35
165057 On ch=4 n=g#5 v=35
165390 On ch=4 n=g#5 v=0
165390 On ch=4 n=d#6 v=0
165391 On ch=4 n=g#6 v=35
165391 On ch=4 n=c6 v=35
166000 Par ch=4 c=64 v=0
166004 On ch=4 n=c6 v=0
166004 On ch=4 n=g#6 v=0
167252 On ch=4 n=g#4 v=33
167252 On ch=4 n=f4 v=33
167252 On ch=4 n=c#4 v=33
167252 On ch=4 n=g#3 v=33
167252 On ch=4 n=c#3 v=33
167256 Par ch=4 c=64 v=127
167586 On ch=4 n=c#3 v=0
167586 On ch=4 n=g#3 v=0
167586 On ch=4 n=c#4 v=0
167586 On ch=4 n=f4 v=0
167586 On ch=4 n=g#4 v=0
167586 On ch=4 n=g#4 v=27
167586 On ch=4 n=f4 v=27
167586 On ch=4 n=c#4 v=27
167586 On ch=4 n=g#3 v=27
167586 On ch=4 n=c#3 v=27
167859 On ch=4 n=c#3 v=0
167859 On ch=4 n=g#3 v=0
167859 On ch=4 n=c#4 v=0
167859 On ch=4 n=f4 v=0
167859 On ch=4 n=g#4 v=0
167860 On ch=4 n=g#4 v=21
167860 On ch=4 n=f4 v=21
167860 On ch=4 n=c#4 v=21
167860 On ch=4 n=g#3 v=21
167860 On ch=4 n=c#3 v=21
168126 On ch=4 n=c#3 v=0
168126 On ch=4 n=g#3 v=0
168126 On ch=4 n=c#4 v=0
168126 On ch=4 n=f4 v=0
168126 On ch=4 n=g#4 v=0
168126 On ch=4 n=g#4 v=27
168126 On ch=4 n=f4 v=27
168126 On ch=4 n=c#4 v=27
168126 On ch=4 n=g#3 v=27
168126 On ch=4 n=c#3 v=27
168402 On ch=4 n=c#3 v=0
168402 On ch=4 n=g#3 v=0
168402 On ch=4 n=c#4 v=0
168402 On ch=4 n=f4 v=0
168402 On ch=4 n=g#4 v=0
168402 On ch=4 n=g#4 v=34
168402 On ch=4 n=f4 v=34
168402 On ch=4 n=c#4 v=34
168402 On ch=4 n=g#3 v=34
168402 On ch=4 n=c#3 v=34
168676 On ch=4 n=c#3 v=0
168676 On ch=4 n=g#3 v=0
168676 On ch=4 n=c#4 v=0
168676 On ch=4 n=f4 v=0
168676 On ch=4 n=g#4 v=0
168677 On ch=4 n=g#4 v=36
168677 On ch=4 n=f4 v=36
168677 On ch=4 n=c#4 v=36
168677 On ch=4 n=g#3 v=36
168677 On ch=4 n=c#3 v=36
168945 On ch=4 n=c#3 v=0
168945 On ch=4 n=g#3 v=0
168945 On ch=4 n=c#4 v=0
168945 On ch=4 n=f4 v=0
168945 On ch=4 n=g#4 v=0
168945 On ch=4 n=g#4 v=40
168945 On ch=4 n=f4 v=40
168945 On ch=4 n=c#4 v=40
168945 On ch=4 n=g#3 v=40
168945 On ch=4 n=c#3 v=40
169215 On ch=4 n=c#3 v=0
169215 On ch=4 n=g#3 v=0
169215 On ch=4 n=c#4 v=0
169215 On ch=4 n=f4 v=0
169215 On ch=4 n=g#4 v=0
169215 On ch=4 n=g#4 v=45
169215 On ch=4 n=f4 v=45
169215 On ch=4 n=c#4 v=45
169215 On ch=4 n=g#3 v=45
169215 On ch=4 n=c#3 v=45
169481 On ch=4 n=c#3 v=0
169481 On ch=4 n=g#3 v=0
169481 On ch=4 n=c#4 v=0
169481 On ch=4 n=f4 v=0
169481 On ch=4 n=g#4 v=0
169481 On ch=4 n=g#4 v=48
169481 On ch=4 n=f4 v=48
169481 On ch=4 n=c#4 v=48
169481 On ch=4 n=g#3 v=48
169481 On ch=4 n=c#3 v=48
169753 On ch=4 n=c#3 v=0
169753 On ch=4 n=g#3 v=0
169753 On ch=4 n=c#4 v=0
169753 On ch=4 n=f4 v=0
169753 On ch=4 n=g#4 v=0
169754 On ch=4 n=g#4 v=43
169754 On ch=4 n=f4 v=43
169754 On ch=4 n=c#4 v=43
169754 On ch=4 n=g#3 v=43
169754 On ch=4 n=c#3 v=43
170025 On ch=4 n=c#3 v=0
170025 On ch=4 n=g#3 v=0
170025 On ch=4 n=c#4 v=0
170025 On ch=4 n=f4 v=0
170025 On ch=4 n=g#4 v=0
170025 On ch=4 n=g#4 v=42
170025 On ch=4 n=f4 v=42
170025 On ch=4 n=c#4 v=42
170025 On ch=4 n=g#3 v=42
170025 On ch=4 n=c#3 v=42
170299 On ch=4 n=c#3 v=0
170299 On ch=4 n=g#3 v=0
170299 On ch=4 n=c#4 v=0
170299 On ch=4 n=f4 v=0
170299 On ch=4 n=g#4 v=0
170300 On ch=4 n=g#4 v=41
170300 On ch=4 n=f4 v=41
170300 On ch=4 n=c#4 v=41
170300 On ch=4 n=g#3 v=41
170300 On ch=4 n=c#3 v=41
170558 Par ch=4 c=64 v=0
170560 On ch=4 n=c#3 v=0
170560 On ch=4 n=g#3 v=0
170560 On ch=4 n=c#4 v=0
170560 On ch=4 n=f4 v=0
170560 On ch=4 n=g#4 v=0
170560 On ch=4 n=f4 v=39
170560 On ch=4 n=c#4 v=39
170560 On ch=4 n=g#3 v=39
170560 On ch=4 n=c#3 v=39
170565 Par ch=4 c=64 v=127
170830 On ch=4 n=c#3 v=0
170830 On ch=4 n=g#3 v=0
170830 On ch=4 n=c#4 v=0
170830 On ch=4 n=f4 v=0
170830 On ch=4 n=f4 v=42
170830 On ch=4 n=c#4 v=42
170830 On ch=4 n=g#3 v=42
170830 On ch=4 n=c#3 v=42
171105 On ch=4 n=c#3 v=0
171105 On ch=4 n=g#3 v=0
171105 On ch=4 n=c#4 v=0
171105 On ch=4 n=f4 v=0
171106 On ch=4 n=f4 v=44
171106 On ch=4 n=c#4 v=44
171106 On ch=4 n=g#3 v=44
171106 On ch=4 n=c#3 v=44
171366 On ch=4 n=c#3 v=0
171366 On ch=4 n=g#3 v=0
171366 On ch=4 n=c#4 v=0
171366 On ch=4 n=f4 v=0
171366 On ch=4 n=f4 v=41
171366 On ch=4 n=c#4 v=41
171366 On ch=4 n=g#3 v=41
171366 On ch=4 n=c#3 v=41
171636 On ch=4 n=c#3 v=0
171636 On ch=4 n=g#3 v=0
171636 On ch=4 n=c#4 v=0
171636 On ch=4 n=f4 v=0
171636 On ch=4 n=f4 v=47
171636 On ch=4 n=c#4 v=47
171636 On ch=4 n=g#3 v=47
171636 On ch=4 n=c#3 v=47
171898 On ch=4 n=c#3 v=0
171898 On ch=4 n=g#3 v=0
171898 On ch=4 n=c#4 v=0
171898 On ch=4 n=f4 v=0
171899 On ch=4 n=f4 v=40
171899 On ch=4 n=c#4 v=40
171899 On ch=4 n=g#3 v=40
171899 On ch=4 n=c#3 v=40
172157 On ch=4 n=c#3 v=0
172157 On ch=4 n=g#3 v=0
172157 On ch=4 n=c#4 v=0
172157 On ch=4 n=f4 v=0
172158 On ch=4 n=f4 v=44
172158 On ch=4 n=c#4 v=44
172158 On ch=4 n=g#3 v=44
172158 On ch=4 n=c#3 v=44
172426 On ch=4 n=c#3 v=0
172426 On ch=4 n=g#3 v=0
172426 On ch=4 n=c#4 v=0
172426 On ch=4 n=f4 v=0
172427 On ch=4 n=f4 v=40
172427 On ch=4 n=c#4 v=40
172427 On ch=4 n=g#3 v=40
172427 On ch=4 n=c#3 v=40
172685 On ch=4 n=c#3 v=0
172685 On ch=4 n=g#3 v=0
172685 On ch=4 n=c#4 v=0
172685 On ch=4 n=f4 v=0
172686 On ch=4 n=g#4 v=44
172686 On ch=4 n=f4 v=44
172686 On ch=4 n=c#4 v=44
172686 On ch=4 n=g#3 v=44
172686 On ch=4 n=c#3 v=44
172944 On ch=4 n=c#3 v=0
172944 On ch=4 n=g#3 v=0
172944 On ch=4 n=c#4 v=0
172944 On ch=4 n=f4 v=0
172944 On ch=4 n=g#4 v=0
172945 On ch=4 n=g#4 v=44
172945 On ch=4 n=f4 v=44
172945 On ch=4 n=c#4 v=44
172945 On ch=4 n=g#3 v=44
172945 On ch=4 n=c#3 v=44
173200 On ch=4 n=c#3 v=0
173200 On ch=4 n=g#3 v=0
173200 On ch=4 n=c#4 v=0
173200 On ch=4 n=f4 v=0
173200 On ch=4 n=g#4 v=0
173200 On ch=4 n=g#4 v=41
173200 On ch=4 n=f4 v=41
173200 On ch=4 n=c#4 v=41
173200 On ch=4 n=g#3 v=41
173200 On ch=4 n=c#3 v=41
173452 On ch=4 n=c#3 v=0
173452 On ch=4 n=g#3 v=0
173452 On ch=4 n=c#4 v=0
173452 On ch=4 n=f4 v=0
173452 On ch=4 n=g#4 v=0
173453 On ch=4 n=g#4 v=43
173453 On ch=4 n=f4 v=43
173453 On ch=4 n=c#4 v=43
173453 On ch=4 n=g#3 v=43
173453 On ch=4 n=c#3 v=43
173702 Par ch=4 c=64 v=0
173730 On ch=4 n=c#3 v=0
173730 On ch=4 n=g#3 v=0
173730 On ch=4 n=c#4 v=0
173730 On ch=4 n=f4 v=0
173730 On ch=4 n=g#4 v=0
173730 On ch=4 n=f#4 v=36
173730 On ch=4 n=d#4 v=36
173730 On ch=4 n=a#3 v=36
173730 On ch=4 n=f#3 v=36
173730 On ch=4 n=c#3 v=36
173735 Par ch=4 c=64 v=127
173988 On ch=4 n=c#3 v=0
173988 On ch=4 n=f#3 v=0
173988 On ch=4 n=a#3 v=0
173988 On ch=4 n=d#4 v=0
173988 On ch=4 n=f#4 v=0
173988 On ch=4 n=f#4 v=45
173988 On ch=4 n=d#4 v=45
173988 On ch=4 n=a#3 v=45
173988 On ch=4 n=f#3 v=45
173988 On ch=4 n=c#3 v=45
174251 On ch=4 n=c#3 v=0
174251 On ch=4 n=f#3 v=0
174251 On ch=4 n=a#3 v=0
174251 On ch=4 n=d#4 v=0
174251 On ch=4 n=f#4 v=0
174252 On ch=4 n=f#4 v=38
174252 On ch=4 n=d#4 v=38
174252 On ch=4 n=a#3 v=38
174252 On ch=4 n=f#3 v=38
174252 On ch=4 n=c#3 v=38
174520 On ch=4 n=c#3 v=0
174520 On ch=4 n=f#3 v=0
174520 On ch=4 n=a#3 v=0
174520 On ch=4 n=d#4 v=0
174520 On ch=4 n=f#4 v=0
174520 On ch=4 n=f#4 v=38
174520 On ch=4 n=d#4 v=38
174520 On ch=4 n=a#3 v=38
174520 On ch=4 n=f#3 v=38
174520 On ch=4 n=c#3 v=38
174777 On ch=4 n=c#3 v=0
174777 On ch=4 n=f#3 v=0
174777 On ch=4 n=a#3 v=0
174777 On ch=4 n=d#4 v=0
174777 On ch=4 n=f#4 v=0
174778 On ch=4 n=f#4 v=47
174778 On ch=4 n=d#4 v=47
174778 On ch=4 n=a#3 v=47
174778 On ch=4 n=f#3 v=47
174778 On ch=4 n=c#3 v=47
175043 On ch=4 n=c#3 v=0
175043 On ch=4 n=f#3 v=0
175043 On ch=4 n=a#3 v=0
175043 On ch=4 n=d#4 v=0
175043 On ch=4 n=f#4 v=0
175043 On ch=4 n=f#4 v=45
175043 On ch=4 n=d#4 v=45
175043 On ch=4 n=a#3 v=45
175043 On ch=4 n=f#3 v=45
175043 On ch=4 n=c#3 v=45
175293 On ch=4 n=c#3 v=0
175293 On ch=4 n=f#3 v=0
175293 On ch=4 n=a#3 v=0
175293 On ch=4 n=d#4 v=0
175293 On ch=4 n=f#4 v=0
175293 On ch=4 n=a#4 v=45
175293 On ch=4 n=f#4 v=45
175293 On ch=4 n=d#4 v=45
175293 On ch=4 n=a#3 v=45
175293 On ch=4 n=f#3 v=45
175293 On ch=4 n=c#3 v=45
175555 On ch=4 n=c#3 v=0
175555 On ch=4 n=f#3 v=0
175555 On ch=4 n=a#3 v=0
175555 On ch=4 n=d#4 v=0
175555 On ch=4 n=f#4 v=0
175555 On ch=4 n=a#4 v=0
175555 On ch=4 n=a#4 v=42
175555 On ch=4 n=f#4 v=42
175555 On ch=4 n=d#4 v=42
175555 On ch=4 n=a#3 v=42
175555 On ch=4 n=f#3 v=42
175555 On ch=4 n=c#3 v=42
175829 On ch=4 n=c#3 v=0
175829 On ch=4 n=f#3 v=0
175829 On ch=4 n=a#3 v=0
175829 On ch=4 n=d#4 v=0
175829 On ch=4 n=f#4 v=0
175829 On ch=4 n=a#4 v=0
175830 On ch=4 n=a#4 v=42
175830 On ch=4 n=f#4 v=42
175830 On ch=4 n=d#4 v=42
175830 On ch=4 n=a#3 v=42
175830 On ch=4 n=f#3 v=42
175830 On ch=4 n=c#3 v=42
176088 On ch=4 n=c#3 v=0
176088 On ch=4 n=f#3 v=0
176088 On ch=4 n=a#3 v=0
176088 On ch=4 n=d#4 v=0
176088 On ch=4 n=f#4 v=0
176088 On ch=4 n=a#4 v=0
176089 On ch=4 n=a#4 v=41
176089 On ch=4 n=f#4 v=41
176089 On ch=4 n=d#4 v=41
176089 On ch=4 n=a#3 v=41
176089 On ch=4 n=f#3 v=41
176089 On ch=4 n=c#3 v=41
176330 On ch=4 n=c#3 v=0
176330 On ch=4 n=f#3 v=0
176330 On ch=4 n=a#3 v=0
176330 On ch=4 n=d#4 v=0
176330 On ch=4 n=f#4 v=0
176330 On ch=4 n=a#4 v=0
176331 On ch=4 n=a#4 v=45
176331 On ch=4 n=f#4 v=45
176331 On ch=4 n=d#4 v=45
176331 On ch=4 n=a#3 v=45
176331 On ch=4 n=f#3 v=45
176331 On ch=4 n=c#3 v=45
176593 On ch=4 n=c#3 v=0
176593 On ch=4 n=f#3 v=0
176593 On ch=4 n=a#3 v=0
176593 On ch=4 n=d#4 v=0
176593 On ch=4 n=f#4 v=0
176593 On ch=4 n=a#4 v=0
176593 On ch=4 n=a#4 v=45
176593 On ch=4 n=f#4 v=45
176593 On ch=4 n=d#4 v=45
176593 On ch=4 n=a#3 v=45
176593 On ch=4 n=f#3 v=45
176593 On ch=4 n=c#3 v=45
176848 Par ch=4 c=64 v=0
176850 On ch=4 n=c#3 v=0
176850 On ch=4 n=f#3 v=0
176850 On ch=4 n=a#3 v=0
176850 On ch=4 n=d#4 v=0
176850 On ch=4 n=f#4 v=0
176850 On ch=4 n=a#4 v=0
176850 On ch=4 n=f#4 v=47
176850 On ch=4 n=d#4 v=47
176850 On ch=4 n=c4 v=47
176850 On ch=4 n=g#3 v=47
176850 On ch=4 n=c#3 v=47
176855 Par ch=4 c=64 v=127
177116 On ch=4 n=c#3 v=0
177116 On ch=4 n=g#3 v=0
177116 On ch=4 n=c4 v=0
177116 On ch=4 n=d#4 v=0
177116 On ch=4 n=f#4 v=0
177117 On ch=4 n=f#4 v=42
177117 On ch=4 n=d#4 v=42
177117 On ch=4 n=c4 v=42
177117 On ch=4 n=g#3 v=42
177117 On ch=4 n=c#3 v=42
177370 On ch=4 n=c#3 v=0
177370 On ch=4 n=g#3 v=0
177370 On ch=4 n=c4 v=0
177370 On ch=4 n=d#4 v=0
177370 On ch=4 n=f#4 v=0
177370 On ch=4 n=f#4 v=45
177370 On ch=4 n=d#4 v=45
177370 On ch=4 n=c4 v=45
177370 On ch=4 n=g#3 v=45
177370 On ch=4 n=c#3 v=45
177619 On ch=4 n=c#3 v=0
177619 On ch=4 n=g#3 v=0
177619 On ch=4 n=c4 v=0
177619 On ch=4 n=d#4 v=0
177619 On ch=4 n=f#4 v=0
177620 On ch=4 n=f#4 v=43
177620 On ch=4 n=d#4 v=43
177620 On ch=4 n=c4 v=43
177620 On ch=4 n=g#3 v=43
177620 On ch=4 n=c#3 v=43
177877 On ch=4 n=c#3 v=0
177877 On ch=4 n=g#3 v=0
177877 On ch=4 n=c4 v=0
177877 On ch=4 n=d#4 v=0
177877 On ch=4 n=f#4 v=0
177877 On ch=4 n=f#4 v=45
177877 On ch=4 n=d#4 v=45
177877 On ch=4 n=c4 v=45
177877 On ch=4 n=g#3 v=45
177877 On ch=4 n=c#3 v=45
178124 On ch=4 n=c#3 v=0
178124 On ch=4 n=g#3 v=0
178124 On ch=4 n=c4 v=0
178124 On ch=4 n=d#4 v=0
178124 On ch=4 n=f#4 v=0
178125 On ch=4 n=f#4 v=52
178125 On ch=4 n=d#4 v=52
178125 On ch=4 n=c4 v=52
178125 On ch=4 n=g#3 v=52
178125 On ch=4 n=c#3 v=52
178380 On ch=4 n=c#3 v=0
178380 On ch=4 n=g#3 v=0
178380 On ch=4 n=c4 v=0
178380 On ch=4 n=d#4 v=0
178380 On ch=4 n=f#4 v=0
178381 On ch=4 n=f#4 v=40
178381 On ch=4 n=d#4 v=40
178381 On ch=4 n=c4 v=40
178381 On ch=4 n=g#3 v=40
178381 On ch=4 n=c#3 v=40
178635 On ch=4 n=c#3 v=0
178635 On ch=4 n=g#3 v=0
178635 On ch=4 n=c4 v=0
178635 On ch=4 n=d#4 v=0
178635 On ch=4 n=f#4 v=0
178635 On ch=4 n=f#4 v=43
178635 On ch=4 n=d#4 v=43
178635 On ch=4 n=c4 v=43
178635 On ch=4 n=g#3 v=43
178635 On ch=4 n=c#3 v=43
178881 On ch=4 n=c#3 v=0
178881 On ch=4 n=g#3 v=0
178881 On ch=4 n=c4 v=0
178881 On ch=4 n=d#4 v=0
178881 On ch=4 n=f#4 v=0
178881 On ch=4 n=f#4 v=43
178881 On ch=4 n=d#4 v=43
178881 On ch=4 n=c4 v=43
178881 On ch=4 n=a3 v=43
178881 On ch=4 n=c#3 v=43
179139 On ch=4 n=c#3 v=0
179139 On ch=4 n=a3 v=0
179139 On ch=4 n=c4 v=0
179139 On ch=4 n=d#4 v=0
179139 On ch=4 n=f#4 v=0
179140 On ch=4 n=f#4 v=47
179140 On ch=4 n=d#4 v=47
179140 On ch=4 n=c4 v=47
179140 On ch=4 n=g#3 v=47
179140 On ch=4 n=c#3 v=47
179378 On ch=4 n=c#3 v=0
179378 On ch=4 n=g#3 v=0
179378 On ch=4 n=c4 v=0
179378 On ch=4 n=d#4 v=0
179378 On ch=4 n=f#4 v=0
179378 On ch=4 n=f#4 v=47
179378 On ch=4 n=d#4 v=47
179378 On ch=4 n=c4 v=47
179378 On ch=4 n=a#3 v=47
179378 On ch=4 n=c#3 v=47
179632 On ch=4 n=c#3 v=0
179632 On ch=4 n=a#3 v=0
179632 On ch=4 n=c4 v=0
179632 On ch=4 n=d#4 v=0
179632 On ch=4 n=f#4 v=0
179632 On ch=4 n=f#4 v=43
179632 On ch=4 n=d#4 v=43
179632 On ch=4 n=c4 v=43
179632 On ch=4 n=g#3 v=43
179632 On ch=4 n=c#3 v=43
179883 Par ch=4 c=64 v=0
179895 On ch=4 n=c#3 v=0
179895 On ch=4 n=g#3 v=0
179895 On ch=4 n=c4 v=0
179895 On ch=4 n=d#4 v=0
179895 On ch=4 n=f#4 v=0
179896 On ch=4 n=c#3 v=51
179918 On ch=4 n=g#3 v=51
179940 On ch=4 n=c#4 v=51
179962 On ch=4 n=f4 v=51
179988 Par ch=4 c=64 v=127
180182 On ch=4 n=f4 v=0
180182 On ch=4 n=c#4 v=0
180182 On ch=4 n=g#3 v=0
180182 On ch=4 n=c#3 v=0
180183 On ch=4 n=g#4 v=41
180183 On ch=4 n=g#4 v=41
180183 On ch=4 n=f4 v=41
180183 On ch=4 n=c#4 v=41
180183 On ch=4 n=g#3 v=41
180183 On ch=4 n=d#3 v=41
180432 On ch=4 n=d#3 v=0
180432 On ch=4 n=g#3 v=0
180432 On ch=4 n=c#4 v=0
180432 On ch=4 n=f4 v=0
180432 On ch=4 n=g#4 v=0
180432 On ch=4 n=g#4 v=40
180432 On ch=4 n=f#4 v=40
180432 On ch=4 n=f4 v=40
180432 On ch=4 n=c#4 v=40
180432 On ch=4 n=g#3 v=40
180432 On ch=4 n=c#3 v=40
180679 On ch=4 n=c#3 v=0
180679 On ch=4 n=g#3 v=0
180679 On ch=4 n=c#4 v=0
180679 On ch=4 n=f4 v=0
180679 On ch=4 n=f#4 v=0
180680 On ch=4 n=g#4 v=0
180680 On ch=4 n=g#4 v=45
180680 On ch=4 n=f4 v=45
180680 On ch=4 n=c#4 v=45
180680 On ch=4 n=g#3 v=45
180680 On ch=4 n=c#3 v=45
180934 On ch=4 n=c#3 v=0
180934 On ch=4 n=g#3 v=0
180934 On ch=4 n=c#4 v=0
180934 On ch=4 n=f4 v=0
180934 On ch=4 n=g#4 v=0
180934 On ch=4 n=g#4 v=54
180934 On ch=4 n=f4 v=54
180934 On ch=4 n=c#4 v=54
180934 On ch=4 n=g#3 v=54
180934 On ch=4 n=c#3 v=54
181189 On ch=4 n=c#3 v=0
181189 On ch=4 n=g#3 v=0
181189 On ch=4 n=c#4 v=0
181189 On ch=4 n=f4 v=0
181190 On ch=4 n=g#4 v=0
181190 On ch=4 n=g#4 v=48
181190 On ch=4 n=f4 v=48
181190 On ch=4 n=c#4 v=48
181190 On ch=4 n=g#3 v=48
181190 On ch=4 n=c#3 v=48
181432 On ch=4 n=g#4 v=0
181433 On ch=4 n=c#3 v=0
181433 On ch=4 n=g#3 v=0
181433 On ch=4 n=c#4 v=0
181433 On ch=4 n=f4 v=0
181433 On ch=4 n=g#4 v=56
181433 On ch=4 n=f4 v=56
181433 On ch=4 n=c#4 v=56
181433 On ch=4 n=g#3 v=56
181433 On ch=4 n=c#3 v=56
181704 On ch=4 n=c#3 v=0
181704 On ch=4 n=g#3 v=0
181704 On ch=4 n=c#4 v=0
181704 On ch=4 n=f4 v=0
181704 On ch=4 n=g#4 v=0
181705 On ch=4 n=g#4 v=50
181705 On ch=4 n=f4 v=50
181705 On ch=4 n=c#4 v=50
181705 On ch=4 n=g#3 v=50
181705 On ch=4 n=c#3 v=50
181950 On ch=4 n=g#4 v=0
181951 On ch=4 n=c#3 v=0
181951 On ch=4 n=g#3 v=0
181951 On ch=4 n=c#4 v=0
181951 On ch=4 n=f4 v=0
181951 On ch=4 n=g#4 v=40
181951 On ch=4 n=f4 v=40
181951 On ch=4 n=c#4 v=40
181951 On ch=4 n=g#3 v=40
181951 On ch=4 n=c#3 v=40
182206 On ch=4 n=c#3 v=0
182206 On ch=4 n=g#3 v=0
182206 On ch=4 n=c#4 v=0
182206 On ch=4 n=f4 v=0
182206 On ch=4 n=g#4 v=0
182206 On ch=4 n=g#4 v=52
182206 On ch=4 n=f4 v=52
182206 On ch=4 n=c#4 v=52
182206 On ch=4 n=g#3 v=52
182206 On ch=4 n=c#3 v=52
182455 On ch=4 n=c#3 v=0
182455 On ch=4 n=g#3 v=0
182455 On ch=4 n=c#4 v=0
182455 On ch=4 n=f4 v=0
182455 On ch=4 n=g#4 v=0
182455 On ch=4 n=g#4 v=53
182455 On ch=4 n=f4 v=53
182455 On ch=4 n=c#4 v=53
182455 On ch=4 n=g#3 v=53
182455 On ch=4 n=c#3 v=53
182710 On ch=4 n=c#3 v=0
182710 On ch=4 n=g#3 v=0
182710 On ch=4 n=c#4 v=0
182710 On ch=4 n=f4 v=0
182710 On ch=4 n=g#4 v=0
182710 On ch=4 n=g#4 v=49
182710 On ch=4 n=f4 v=49
182710 On ch=4 n=c#4 v=49
182710 On ch=4 n=g#3 v=49
182710 On ch=4 n=c#3 v=49
182954 Par ch=4 c=64 v=0
182955 On ch=4 n=c#3 v=0
182955 On ch=4 n=g#3 v=0
182955 On ch=4 n=c#4 v=0
182955 On ch=4 n=f4 v=0
182955 On ch=4 n=g#4 v=0
182956 On ch=4 n=c5 v=59
182956 On ch=4 n=f4 v=59
182956 On ch=4 n=c4 v=59
182956 On ch=4 n=f3 v=59
182956 On ch=4 n=a2 v=59
182960 Par ch=4 c=64 v=127
183220 On ch=4 n=a2 v=0
183220 On ch=4 n=f3 v=0
183220 On ch=4 n=c4 v=0
183220 On ch=4 n=f4 v=0
183220 On ch=4 n=c5 v=0
183220 On ch=4 n=c5 v=49
183220 On ch=4 n=f4 v=49
183220 On ch=4 n=c4 v=49
183220 On ch=4 n=f3 v=49
183220 On ch=4 n=a2 v=49
183475 On ch=4 n=a2 v=0
183475 On ch=4 n=f3 v=0
183475 On ch=4 n=c4 v=0
183475 On ch=4 n=f4 v=0
183475 On ch=4 n=c5 v=0
183476 On ch=4 n=c5 v=49
183476 On ch=4 n=f4 v=49
183476 On ch=4 n=c4 v=49
183476 On ch=4 n=f3 v=49
183476 On ch=4 n=a2 v=49
183717 On ch=4 n=a2 v=0
183717 On ch=4 n=f3 v=0
183717 On ch=4 n=c4 v=0
183717 On ch=4 n=f4 v=0
183717 On ch=4 n=c5 v=0
183718 On ch=4 n=c5 v=54
183718 On ch=4 n=f4 v=54
183718 On ch=4 n=c4 v=54
183718 On ch=4 n=f3 v=54
183718 On ch=4 n=a2 v=54
183971 On ch=4 n=a2 v=0
183971 On ch=4 n=f3 v=0
183971 On ch=4 n=c4 v=0
183971 On ch=4 n=f4 v=0
183971 On ch=4 n=c5 v=0
183971 On ch=4 n=c5 v=58
183971 On ch=4 n=f4 v=58
183971 On ch=4 n=c4 v=58
183971 On ch=4 n=f3 v=58
183971 On ch=4 n=a2 v=58
184222 On ch=4 n=a2 v=0
184222 On ch=4 n=f3 v=0
184222 On ch=4 n=c4 v=0
184222 On ch=4 n=f4 v=0
184222 On ch=4 n=c5 v=0
184223 On ch=4 n=c5 v=64
184223 On ch=4 n=f4 v=64
184223 On ch=4 n=c4 v=64
184223 On ch=4 n=a2 v=64
184474 On ch=4 n=a2 v=0
184474 On ch=4 n=c4 v=0
184474 On ch=4 n=f4 v=0
184474 On ch=4 n=c5 v=0
184474 On ch=4 n=c5 v=64
184474 On ch=4 n=f4 v=64
184474 On ch=4 n=c4 v=64
184474 On ch=4 n=f3 v=64
184474 On ch=4 n=a2 v=64
184730 On ch=4 n=a2 v=0
184730 On ch=4 n=f3 v=0
184730 On ch=4 n=c4 v=0
184730 On ch=4 n=f4 v=0
184730 On ch=4 n=c5 v=0
184731 On ch=4 n=c5 v=63
184731 On ch=4 n=f4 v=63
184731 On ch=4 n=c4 v=63
184731 On ch=4 n=f3 v=63
184731 On ch=4 n=a2 v=63
184985 On ch=4 n=a2 v=0
184985 On ch=4 n=f3 v=0
184985 On ch=4 n=c4 v=0
184985 On ch=4 n=f4 v=0
184985 On ch=4 n=c5 v=0
184985 On ch=4 n=c5 v=62
184985 On ch=4 n=f4 v=62
184985 On ch=4 n=c4 v=62
184985 On ch=4 n=f3 v=62
184985 On ch=4 n=a2 v=62
185236 On ch=4 n=a2 v=0
185236 On ch=4 n=f3 v=0
185236 On ch=4 n=c4 v=0
185236 On ch=4 n=f4 v=0
185236 On ch=4 n=c5 v=0
185236 On ch=4 n=c5 v=64
185236 On ch=4 n=f4 v=64
185236 On ch=4 n=c4 v=64
185236 On ch=4 n=f3 v=64
185236 On ch=4 n=a2 v=64
185492 On ch=4 n=a2 v=0
185492 On ch=4 n=f3 v=0
185492 On ch=4 n=c4 v=0
185492 On ch=4 n=f4 v=0
185492 On ch=4 n=c5 v=0
185493 On ch=4 n=c5 v=58
185493 On ch=4 n=f4 v=58
185493 On ch=4 n=c4 v=58
185493 On ch=4 n=f3 v=58
185493 On ch=4 n=a2 v=58
185743 On ch=4 n=a2 v=0
185743 On ch=4 n=f3 v=0
185743 On ch=4 n=c4 v=0
185743 On ch=4 n=f4 v=0
185743 On ch=4 n=c5 v=0
185743 On ch=4 n=c5 v=62
185743 On ch=4 n=f4 v=62
185743 On ch=4 n=c4 v=62
185743 On ch=4 n=f3 v=62
185743 On ch=4 n=a2 v=62
185989 Par ch=4 c=64 v=0
185994 On ch=4 n=a2 v=0
185994 On ch=4 n=f3 v=0
185994 On ch=4 n=c4 v=0
185994 On ch=4 n=f4 v=0
185994 On ch=4 n=c5 v=0
185995 On ch=4 n=a#4 v=69
185995 On ch=4 n=f4 v=69
185995 On ch=4 n=a#3 v=69
185995 On ch=4 n=f3 v=69
185995 On ch=4 n=a#2 v=69
185999 Par ch=4 c=64 v=127
186255 On ch=4 n=a#2 v=0
186255 On ch=4 n=f3 v=0
186255 On ch=4 n=a#3 v=0
186255 On ch=4 n=f4 v=0
186255 On ch=4 n=a#4 v=0
186255 On ch=4 n=a#4 v=62
186255 On ch=4 n=f4 v=62
186255 On ch=4 n=a#3 v=62
186255 On ch=4 n=f3 v=62
186255 On ch=4 n=a#2 v=62
186506 On ch=4 n=a#2 v=0
186506 On ch=4 n=f3 v=0
186506 On ch=4 n=a#3 v=0
186506 On ch=4 n=f4 v=0
186506 On ch=4 n=a#4 v=0
186507 On ch=4 n=a#4 v=63
186507 On ch=4 n=f4 v=63
186507 On ch=4 n=a#3 v=63
186507 On ch=4 n=f3 v=63
186507 On ch=4 n=a#2 v=63
186745 On ch=4 n=a#2 v=0
186745 On ch=4 n=f3 v=0
186745 On ch=4 n=a#3 v=0
186745 On ch=4 n=f4 v=0
186745 On ch=4 n=a#4 v=0
186745 On ch=4 n=a#4 v=67
186745 On ch=4 n=f4 v=67
186745 On ch=4 n=a#3 v=67
186745 On ch=4 n=f3 v=67
186745 On ch=4 n=a#2 v=67
186996 On ch=4 n=a#2 v=0
186996 On ch=4 n=f3 v=0
186996 On ch=4 n=a#3 v=0
186996 On ch=4 n=f4 v=0
186996 On ch=4 n=a#4 v=0
186996 On ch=4 n=a#4 v=68
186996 On ch=4 n=f4 v=68
186996 On ch=4 n=a#3 v=68
186996 On ch=4 n=f3 v=68
186996 On ch=4 n=a#2 v=68
187245 On ch=4 n=a#2 v=0
187245 On ch=4 n=f3 v=0
187245 On ch=4 n=a#3 v=0
187245 On ch=4 n=f4 v=0
187245 On ch=4 n=a#4 v=0
187246 On ch=4 n=a#4 v=68
187246 On ch=4 n=f4 v=68
187246 On ch=4 n=a#3 v=68
187246 On ch=4 n=f3 v=68
187246 On ch=4 n=a#2 v=68
187491 Par ch=4 c=64 v=0
187503 On ch=4 n=a#2 v=0
187503 On ch=4 n=f3 v=0
187503 On ch=4 n=a#3 v=0
187503 On ch=4 n=f4 v=0
187503 On ch=4 n=a#4 v=0
187503 On ch=4 n=c#5 v=73
187503 On ch=4 n=a#4 v=73
187503 On ch=4 n=f4 v=73
187503 On ch=4 n=a#3 v=73
187503 On ch=4 n=c#3 v=73
187503 On ch=4 n=g2 v=73
187508 Par ch=4 c=64 v=127
187764 On ch=4 n=c#3 v=0
187764 On ch=4 n=a#3 v=0
187764 On ch=4 n=f4 v=0
187764 On ch=4 n=a#4 v=0
187764 On ch=4 n=c#5 v=0
187765 On ch=4 n=c#5 v=69
187765 On ch=4 n=a#4 v=69
187765 On ch=4 n=f4 v=69
187765 On ch=4 n=a#3 v=69
187765 On ch=4 n=c#3 v=69
188014 On ch=4 n=g2 v=0
188015 On ch=4 n=c#3 v=0
188015 On ch=4 n=a#3 v=0
188015 On ch=4 n=f4 v=0
188015 On ch=4 n=a#4 v=0
188015 On ch=4 n=c#5 v=0
188015 On ch=4 n=c#5 v=65
188015 On ch=4 n=a#4 v=65
188015 On ch=4 n=f4 v=65
188015 On ch=4 n=a#3 v=65
188015 On ch=4 n=c#3 v=65
188015 On ch=4 n=g2 v=65
188258 On ch=4 n=g2 v=0
188258 On ch=4 n=c#3 v=0
188258 On ch=4 n=a#3 v=0
188258 On ch=4 n=f4 v=0
188258 On ch=4 n=a#4 v=0
188258 On ch=4 n=c#5 v=0
188259 On ch=4 n=c#5 v=71
188259 On ch=4 n=a#4 v=71
188259 On ch=4 n=d#4 v=71
188259 On ch=4 n=a#3 v=71
188259 On ch=4 n=d#3 v=71
188259 On ch=4 n=g2 v=71
188500 On ch=4 n=g2 v=0
188500 On ch=4 n=d#3 v=0
188500 On ch=4 n=a#3 v=0
188500 On ch=4 n=d#4 v=0
188500 On ch=4 n=a#4 v=0
188500 On ch=4 n=c#5 v=0
188500 On ch=4 n=d#5 v=70
188500 On ch=4 n=a#4 v=70
188500 On ch=4 n=f4 v=70
188500 On ch=4 n=a#3 v=70
188500 On ch=4 n=d#3 v=70
188500 On ch=4 n=g2 v=70
188750 On ch=4 n=g2 v=0
188750 On ch=4 n=d#3 v=0
188750 On ch=4 n=a#3 v=0
188750 On ch=4 n=f4 v=0
188750 On ch=4 n=a#4 v=0
188750 On ch=4 n=d#5 v=0
188751 On ch=4 n=d#5 v=72
188751 On ch=4 n=a#4 v=72
188751 On ch=4 n=e4 v=72
188751 On ch=4 n=a#3 v=72
188751 On ch=4 n=d#3 v=72
188751 On ch=4 n=g2 v=72
188997 Par ch=4 c=64 v=0
189005 On ch=4 n=g2 v=0
189005 On ch=4 n=d#3 v=0
189005 On ch=4 n=a#3 v=0
189005 On ch=4 n=e4 v=0
189005 On ch=4 n=a#4 v=0
189005 On ch=4 n=d#5 v=0
189005 On ch=4 n=c5 v=80
189005 On ch=4 n=g4 v=80
189005 On ch=4 n=g#3 v=80
189005 On ch=4 n=c3 v=80
189005 On ch=4 n=g#2 v=80
189010 Par ch=4 c=64 v=127
189249 On ch=4 n=g#2 v=0
189249 On ch=4 n=c3 v=0
189249 On ch=4 n=g#3 v=0
189249 On ch=4 n=g4 v=0
189249 On ch=4 n=c5 v=0
189250 On ch=4 n=c5 v=72
189250 On ch=4 n=g4 v=72
189250 On ch=4 n=g#3 v=72
189250 On ch=4 n=c3 v=72
189250 On ch=4 n=g#2 v=72
189506 On ch=4 n=g#2 v=0
189506 On ch=4 n=c3 v=0
189506 On ch=4 n=g#3 v=0
189506 On ch=4 n=g4 v=0
189506 On ch=4 n=c5 v=0
189506 On ch=4 n=c5 v=75
189506 On ch=4 n=g4 v=75
189506 On ch=4 n=g#3 v=75
189506 On ch=4 n=c3 v=75
189506 On ch=4 n=g#2 v=75
189761 On ch=4 n=g#2 v=0
189761 On ch=4 n=c3 v=0
189761 On ch=4 n=g#3 v=0
189761 On ch=4 n=g4 v=0
189761 On ch=4 n=c5 v=0
189761 On ch=4 n=c5 v=76
189761 On ch=4 n=f4 v=76
189761 On ch=4 n=g#3 v=76
189761 On ch=4 n=c3 v=76
189761 On ch=4 n=g#2 v=76
190012 Par ch=4 c=64 v=0
190019 On ch=4 n=g#2 v=0
190019 On ch=4 n=c3 v=0
190019 On ch=4 n=g#3 v=0
190019 On ch=4 n=f4 v=0
190019 On ch=4 n=c5 v=0
190019 On ch=4 n=c5 v=84
190019 On ch=4 n=g#4 v=84
190019 On ch=4 n=e3 v=84
190019 On ch=4 n=c3 v=84
190019 On ch=4 n=g2 v=84
190281 On ch=4 n=g2 v=0
190281 On ch=4 n=c3 v=0
190281 On ch=4 n=e3 v=0
190281 On ch=4 n=c5 v=0
190281 On ch=4 n=g#4 v=0
190282 On ch=4 n=c5 v=80
190282 On ch=4 n=g4 v=80
190282 On ch=4 n=e3 v=80
190282 On ch=4 n=c3 v=80
190282 On ch=4 n=g2 v=80
190545 On ch=4 n=g2 v=0
190545 On ch=4 n=c3 v=0
190545 On ch=4 n=e3 v=0
190545 On ch=4 n=g4 v=0
190545 On ch=4 n=c5 v=0
190546 On ch=4 n=c5 v=85
190546 On ch=4 n=a#4 v=85
190546 On ch=4 n=f3 v=85
190546 On ch=4 n=c3 v=85
190546 On ch=4 n=f2 v=85
190808 On ch=4 n=f2 v=0
190808 On ch=4 n=c3 v=0
190808 On ch=4 n=f3 v=0
190808 On ch=4 n=a#4 v=0
190808 On ch=4 n=c5 v=0
190809 On ch=4 n=c5 v=85
190809 On ch=4 n=g#4 v=85
190809 On ch=4 n=f3 v=85
190809 On ch=4 n=c3 v=85
190809 On ch=4 n=f2 v=85
191079 On ch=4 n=f2 v=0
191079 On ch=4 n=c3 v=0
191079 On ch=4 n=f3 v=0
191079 On ch=4 n=c5 v=0
191079 On ch=4 n=g#4 v=0
191080 On ch=4 n=f5 v=85
191080 On ch=4 n=c5 v=85
191080 On ch=4 n=d3 v=85
191080 On ch=4 n=d2 v=85
191361 On ch=4 n=d2 v=0
191361 On ch=4 n=d3 v=0
191361 On ch=4 n=c5 v=0
191361 On ch=4 n=f5 v=0
191361 On ch=4 n=f5 v=85
191361 On ch=4 n=a#4 v=85
191361 On ch=4 n=d3 v=85
191361 On ch=4 n=d2 v=85
191648 On ch=4 n=d2 v=0
191648 On ch=4 n=d3 v=0
191648 On ch=4 n=a#4 v=0
191648 On ch=4 n=f5 v=0
191649 On ch=4 n=g#5 v=86
191649 On ch=4 n=f5 v=86
191649 On ch=4 n=c#3 v=86
191649 On ch=4 n=c#2 v=86
191946 On ch=4 n=c#2 v=0
191946 On ch=4 n=c#3 v=0
191946 On ch=4 n=f5 v=0
191946 On ch=4 n=g#5 v=0
191946 On ch=4 n=g5 v=87
191946 On ch=4 n=f5 v=87
191946 On ch=4 n=c#3 v=87
191946 On ch=4 n=c#2 v=87
192272 On ch=4 n=c#2 v=0
192272 On ch=4 n=c#3 v=0
192272 On ch=4 n=f5 v=0
192272 On ch=4 n=g5 v=0
192273 On ch=4 n=g5 v=99
192273 On ch=4 n=e5 v=99
192273 On ch=4 n=c3 v=99
192273 On ch=4 n=c2 v=99
192892 On ch=4 n=c2 v=0
192892 On ch=4 n=c3 v=0
192892 On ch=4 n=e5 v=0
192892 On ch=4 n=g5 v=0
194000 Par ch=4 c=64 v=127
194680 Par ch=4 c=64 v=0
194767 On ch=4 n=c4 v=87
194770 Par ch=4 c=64 v=127
194838 On ch=4 n=c4 v=0
194839 On ch=4 n=c#5 v=87
194918 On ch=4 n=c#5 v=0
194919 On ch=4 n=c5 v=87
195024 On ch=4 n=c5 v=0
195025 On ch=4 n=g#4 v=83
195117 On ch=4 n=g#4 v=0
195118 On ch=4 n=g4 v=83
195201 On ch=4 n=g4 v=0
195201 On ch=4 n=c#4 v=78
195289 On ch=4 n=c#4 v=0
195290 On ch=4 n=c4 v=78
195392 On ch=4 n=c4 v=0
195393 On ch=4 n=g#3 v=76
195487 On ch=4 n=g#3 v=0
195487 On ch=4 n=g3 v=76
195569 On ch=4 n=g3 v=0
195569 On ch=4 n=c#3 v=77
195658 On ch=4 n=c#3 v=0
195659 On ch=4 n=c3 v=77
195745 Par ch=4 c=64 v=0
195748 On ch=4 n=c3 v=0
195835 On ch=4 n=c4 v=77
195838 Par ch=4 c=64 v=127
195949 On ch=4 n=c4 v=0
195949 On ch=4 n=d#5 v=72
196050 On ch=4 n=d#5 v=0
196050 On ch=4 n=c#5 v=72
196137 On ch=4 n=c#5 v=0
196138 On ch=4 n=g#4 v=75
196232 On ch=4 n=g#4 v=0
196233 On ch=4 n=g4 v=75
196334 On ch=4 n=g4 v=0
196334 On ch=4 n=f4 v=73
196431 On ch=4 n=f4 v=0
196431 On ch=4 n=d#4 v=73
196505 On ch=4 n=d#4 v=0
196505 On ch=4 n=c#4 v=73
196591 On ch=4 n=c#4 v=0
196591 On ch=4 n=g#3 v=73
196681 On ch=4 n=g#3 v=0
196681 On ch=4 n=g3 v=75
196769 On ch=4 n=g3 v=0
196769 On ch=4 n=f3 v=75
196866 On ch=4 n=f3 v=0
196867 On ch=4 n=c3 v=83
197050 Par ch=4 c=64 v=0
197051 On ch=4 n=c3 v=0
198803 On ch=4 n=c#6 v=87
198805 Par ch=4 c=64 v=127
198874 On ch=4 n=c#6 v=0
198874 On ch=4 n=c6 v=87
198947 On ch=4 n=c6 v=0
198948 On ch=4 n=g#5 v=87
199023 On ch=4 n=g#5 v=0
199023 On ch=4 n=g5 v=87
199098 On ch=4 n=g5 v=0
199098 On ch=4 n=c#5 v=87
199172 On ch=4 n=c#5 v=0
199173 On ch=4 n=c5 v=87
199248 On ch=4 n=c5 v=0
199248 On ch=4 n=g#4 v=87
199324 On ch=4 n=g#4 v=0
199324 On ch=4 n=g4 v=87
199399 On ch=4 n=g4 v=0
199400 On ch=4 n=c#4 v=87
199481 On ch=4 n=c#4 v=0
199481 On ch=4 n=c4 v=87
199559 On ch=4 n=c4 v=0
199560 On ch=4 n=c3 v=87
199636 Par ch=4 c=64 v=0
199656 On ch=4 n=c3 v=0
199656 On ch=4 n=d#6 v=89
199660 Par ch=4 c=64 v=127
199743 On ch=4 n=d#6 v=0
199744 On ch=4 n=c#6 v=89
199831 On ch=4 n=c#6 v=0
199832 On ch=4 n=g#5 v=88
199919 On ch=4 n=g#5 v=0
199919 On ch=4 n=f5 v=88
200012 On ch=4 n=f5 v=0
200013 On ch=4 n=d#5 v=87
200103 On ch=4 n=d#5 v=0
200103 On ch=4 n=c#5 v=87
200199 On ch=4 n=c#5 v=0
200200 On ch=4 n=g#4 v=91
200294 On ch=4 n=g#4 v=0
200294 On ch=4 n=f4 v=91
200369 On ch=4 n=f4 v=0
200369 On ch=4 n=d#4 v=93
200454 On ch=4 n=d#4 v=0
200455 On ch=4 n=c#4 v=93
200541 On ch=4 n=c#4 v=0
200541 On ch=4 n=g#3 v=97
200627 On ch=4 n=g#3 v=0
200628 On ch=4 n=f3 v=97
200711 Par ch=4 c=64 v=0
200741 On ch=4 n=f3 v=0
200741 On ch=4 n=c3 v=103
200918 On ch=4 n=c3 v=0
201107 On ch=4 n=e5 v=86
201107 On ch=4 n=c5 v=86
201502 On ch=4 n=c5 v=0
201502 On ch=4 n=e5 v=0
201502 On ch=4 n=f5 v=92
201502 On ch=4 n=b4 v=92
201906 On ch=4 n=b4 v=0
201906 On ch=4 n=f5 v=0
201906 On ch=4 n=a#4 v=87
201963 On ch=4 n=f5 v=87
202018 On ch=4 n=g#5 v=87
202078 Par ch=4 c=64 v=127
202686 On ch=4 n=a#4 v=0
202687 On ch=4 n=g#5 v=0
202687 On ch=4 n=f5 v=0
203391 Par ch=4 c=64 v=0
203430 On ch=4 n=g5 v=92
203430 On ch=4 n=d#5 v=92
203430 On ch=4 n=d#5 v=92
203816 On ch=4 n=d#5 v=0
203816 On ch=4 n=d#5 v=0
203816 On ch=4 n=g5 v=0
203816 On ch=4 n=g#5 v=88
203816 On ch=4 n=d5 v=88
204224 On ch=4 n=d5 v=0
204224 On ch=4 n=g#5 v=0
204224 On ch=4 n=c#5 v=90
204277 On ch=4 n=g#5 v=90
204330 On ch=4 n=b5 v=90
204386 Par ch=4 c=64 v=127
204823 On ch=4 n=b5 v=0
205026 On ch=4 n=c#5 v=0
205027 On ch=4 n=g#5 v=0
205848 Par ch=4 c=64 v=0
205852 On ch=4 n=a#5 v=88
205852 On ch=4 n=f#5 v=88
206213 On ch=4 n=f#5 v=0
206213 On ch=4 n=a#5 v=0
206214 On ch=4 n=b5 v=88
206214 On ch=4 n=f5 v=88
206584 On ch=4 n=f5 v=0
206584 On ch=4 n=b5 v=0
206584 On ch=4 n=e5 v=88
206634 On ch=4 n=b5 v=88
206684 On ch=4 n=d6 v=88
206736 Par ch=4 c=64 v=127
207352 On ch=4 n=e5 v=0
207353 On ch=4 n=d6 v=0
207353 On ch=4 n=b5 v=0
207731 Par ch=4 c=64 v=0
207746 On ch=4 n=c#6 v=88
207746 On ch=4 n=a#5 v=88
207746 On ch=4 n=e5 v=88
208136 On ch=4 n=e5 v=0
208136 On ch=4 n=d#5 v=83
208139 Par ch=4 c=64 v=127
208550 On ch=4 n=a#5 v=0
208550 On ch=4 n=c#6 v=0
208934 Par ch=4 c=64 v=0
208949 On ch=4 n=a5 v=88
208999 On ch=4 n=c6 v=88
209358 On ch=4 n=d#5 v=0
209359 On ch=4 n=d5 v=88
209362 Par ch=4 c=64 v=127
209773 On ch=4 n=c6 v=0
209774 On ch=4 n=a5 v=0
210148 Par ch=4 c=64 v=0
210163 On ch=4 n=b5 v=88
210163 On ch=4 n=g#5 v=88
210557 On ch=4 n=d5 v=0
210558 On ch=4 n=c#5 v=83
210561 Par ch=4 c=64 v=127
210981 On ch=4 n=g#5 v=0
210981 On ch=4 n=b5 v=0
211399 Par ch=4 c=64 v=0
211402 On ch=4 n=g5 v=66
211453 On ch=4 n=a#5 v=66
211852 On ch=4 n=c#5 v=0
211852 On ch=4 n=c5 v=59
211856 Par ch=4 c=64 v=127
212304 On ch=4 n=a#5 v=0
212304 On ch=4 n=g5 v=0
212784 Par ch=4 c=64 v=0
212787 On ch=4 n=c5 v=0
212792 Par ch=4 c=64 v=127
214186 Par ch=4 c=64 v=0
214188 On ch=4 n=e5 v=59
214188 On ch=4 n=c#5 v=59
214188 On ch=4 n=a#4 v=59
214192 Par ch=4 c=64 v=127
214646 On ch=4 n=d#4 v=51
215137 On ch=4 n=a#4 v=0
215137 On ch=4 n=c#5 v=0
215137 On ch=4 n=e5 v=0
215625 Par ch=4 c=64 v=0
215628 On ch=4 n=d#4 v=0
215633 Par ch=4 c=64 v=127
217076 Par ch=4 c=64 v=0
217083 Par ch=4 c=64 v=127
218418 Par ch=4 c=64 v=0
218425 Par ch=4 c=64 v=127
219589 Par ch=4 c=64 v=0
219597 Par ch=4 c=64 v=127
220995 Par ch=4 c=64 v=0
221058 Par ch=4 c=64 v=127
222543 Par ch=4 c=64 v=127
222592 Par ch=4 c=64 v=0
223710 Par ch=4 c=64 v=0
234895 On ch=4 n=g#3 v=47
234899 Par ch=4 c=64 v=127
235135 On ch=4 n=g#3 v=0
235135 On ch=4 n=c5 v=49
235135 On ch=4 n=d#4 v=49
235393 On ch=4 n=d#4 v=0
235393 On ch=4 n=c5 v=0
235393 On ch=4 n=d#5 v=56
235393 On ch=4 n=g#4 v=56
235636 On ch=4 n=d#5 v=0
235637 On ch=4 n=g#4 v=0
235637 On ch=4 n=g#5 v=50
235637 On ch=4 n=c5 v=50
235897 On ch=4 n=c5 v=0
235897 On ch=4 n=g#5 v=0
236418 On ch=4 n=g#3 v=47
236647 On ch=4 n=g#3 v=0
236648 On ch=4 n=c5 v=52
236648 On ch=4 n=d#4 v=52
236911 On ch=4 n=d#4 v=0
236911 On ch=4 n=c5 v=0
236912 On ch=4 n=d#5 v=46
236912 On ch=4 n=g#4 v=46
237149 On ch=4 n=d#5 v=0
237149 On ch=4 n=g#4 v=0
237150 On ch=4 n=g#5 v=46
237150 On ch=4 n=c5 v=46
237412 On ch=4 n=c5 v=0
237412 On ch=4 n=g#5 v=0
237896 Par ch=4 c=64 v=0
237898 On ch=4 n=g#3 v=45
238153 On ch=4 n=g#3 v=0
238153 On ch=4 n=d5 v=43
238153 On ch=4 n=f4 v=43
238158 Par ch=4 c=64 v=127
238396 On ch=4 n=f4 v=0
238396 On ch=4 n=d5 v=0
238396 On ch=4 n=f5 v=43
238396 On ch=4 n=g#4 v=43
238639 On ch=4 n=f5 v=0
238639 On ch=4 n=g#4 v=0
238639 On ch=4 n=d5 v=44
238890 On ch=4 n=d5 v=0
240698 Par ch=4 c=64 v=0
240721 On ch=4 n=g#3 v=50
240949 On ch=4 n=g#3 v=0
240950 On ch=4 n=c#5 v=50
240950 On ch=4 n=d#4 v=50
240954 Par ch=4 c=64 v=127
241205 On ch=4 n=d#4 v=0
241205 On ch=4 n=c#5 v=0
241205 On ch=4 n=d#5 v=46
241205 On ch=4 n=g4 v=46
241445 On ch=4 n=g4 v=0
241445 On ch=4 n=d#5 v=0
241445 On ch=4 n=g5 v=48
241445 On ch=4 n=c#5 v=48
241685 On ch=4 n=c#5 v=0
241685 On ch=4 n=g5 v=0
242181 On ch=4 n=g#3 v=48
242415 On ch=4 n=g#3 v=0
242415 On ch=4 n=c#5 v=50
242415 On ch=4 n=d#4 v=50
242655 On ch=4 n=d#4 v=0
242655 On ch=4 n=c#5 v=0
242656 On ch=4 n=d#5 v=46
242656 On ch=4 n=g4 v=46
242894 On ch=4 n=g4 v=0
242894 On ch=4 n=d#5 v=0
242895 On ch=4 n=g5 v=41
242895 On ch=4 n=c#5 v=41
243135 On ch=4 n=c#5 v=0
243135 On ch=4 n=g5 v=0
243600 Par ch=4 c=64 v=0
243607 On ch=4 n=g#3 v=46
243611 Par ch=4 c=64 v=127
243846 On ch=4 n=g#3 v=0
243847 On ch=4 n=c5 v=45
243847 On ch=4 n=d#4 v=45
244094 On ch=4 n=d#4 v=0
244094 On ch=4 n=c5 v=0
244094 On ch=4 n=d#5 v=47
244094 On ch=4 n=g#4 v=47
244339 On ch=4 n=g#4 v=0
244340 On ch=4 n=d#5 v=0
244340 On ch=4 n=g#5 v=41
244340 On ch=4 n=c5 v=41
244580 On ch=4 n=c5 v=0
244580 On ch=4 n=g#5 v=0
246668 Par ch=4 c=64 v=0
246693 On ch=4 n=g#3 v=47
246697 Par ch=4 c=64 v=127
246948 On ch=4 n=g#3 v=0
246948 On ch=4 n=c5 v=45
246948 On ch=4 n=d#4 v=45
247197 On ch=4 n=d#4 v=0
247197 On ch=4 n=c5 v=0
247198 On ch=4 n=d#5 v=47
247198 On ch=4 n=g#4 v=47
247466 On ch=4 n=d#5 v=0
247466 On ch=4 n=g#4 v=0
247466 On ch=4 n=g#5 v=41
247466 On ch=4 n=c5 v=41
247709 On ch=4 n=c5 v=0
247709 On ch=4 n=g#5 v=0
248207 On ch=4 n=g#3 v=47
248440 On ch=4 n=g#3 v=0
248441 On ch=4 n=c5 v=46
248441 On ch=4 n=d#4 v=46
248681 On ch=4 n=d#4 v=0
248681 On ch=4 n=c5 v=0
248681 On ch=4 n=d#5 v=40
248681 On ch=4 n=g#4 v=40
248912 On ch=4 n=d#5 v=0
248912 On ch=4 n=g#4 v=0
248913 On ch=4 n=g#5 v=45
248913 On ch=4 n=c5 v=45
249120 On ch=4 n=c5 v=0
249120 On ch=4 n=g#5 v=0
249607 Par ch=4 c=64 v=0
249617 On ch=4 n=d3 v=43
249855 On ch=4 n=d3 v=0
249855 On ch=4 n=a#4 v=41
249855 On ch=4 n=d4 v=41
249859 Par ch=4 c=64 v=127
250097 On ch=4 n=d4 v=0
250097 On ch=4 n=a#4 v=0
250098 On ch=4 n=d5 v=42
250098 On ch=4 n=f4 v=42
250337 On ch=4 n=f4 v=0
250337 On ch=4 n=d5 v=0
250337 On ch=4 n=f5 v=40
250337 On ch=4 n=g#4 v=40
250571 On ch=4 n=f5 v=0
250571 On ch=4 n=g#4 v=0
250945 Par ch=4 c=64 v=0
251272 On ch=4 n=f5 v=40
251272 On ch=4 n=a#4 v=40
251272 On ch=4 n=g#4 v=40
251272 On ch=4 n=d4 v=40
251276 Par ch=4 c=64 v=127
251508 On ch=4 n=d4 v=0
251508 On ch=4 n=a#4 v=0
251508 On ch=4 n=f5 v=0
251509 On ch=4 n=g#4 v=0
253054 Par ch=4 c=64 v=0
253056 On ch=4 n=c#4 v=78
253056 On ch=4 n=c#3 v=78
253273 On ch=4 n=c#3 v=0
253273 On ch=4 n=c#4 v=0
253273 On ch=4 n=a#4 v=83
253273 On ch=4 n=f#4 v=83
253273 On ch=4 n=c#4 v=83
253276 Par ch=4 c=64 v=127
253508 On ch=4 n=c#4 v=0
253508 On ch=4 n=f#4 v=0
253508 On ch=4 n=a#4 v=0
253508 On ch=4 n=c#5 v=85
253508 On ch=4 n=a#4 v=85
253508 On ch=4 n=f#4 v=85
253717 On ch=4 n=f#4 v=0
253717 On ch=4 n=a#4 v=0
253717 On ch=4 n=c#5 v=0
253717 On ch=4 n=f#5 v=85
253717 On ch=4 n=c#5 v=85
253717 On ch=4 n=a#4 v=85
253933 On ch=4 n=a#4 v=0
253933 On ch=4 n=c#5 v=0
253933 On ch=4 n=f#5 v=0
254373 Par ch=4 c=64 v=0
254375 On ch=4 n=c#3 v=85
254375 On ch=4 n=c#2 v=85
254588 On ch=4 n=c#2 v=0
254588 On ch=4 n=c#3 v=0
254592 Par ch=4 c=64 v=127
254825 On ch=4 n=f5 v=85
254825 On ch=4 n=b4 v=85
254825 On ch=4 n=g#4 v=85
254825 On ch=4 n=c#4 v=85
255039 On ch=4 n=c#4 v=0
255039 On ch=4 n=b4 v=0
255039 On ch=4 n=f5 v=0
255039 On ch=4 n=g#4 v=0
255247 On ch=4 n=g#5 v=85
255247 On ch=4 n=b4 v=85
255247 On ch=4 n=f4 v=85
255468 On ch=4 n=f4 v=0
255468 On ch=4 n=b4 v=0
255468 On ch=4 n=g#5 v=0
255682 Par ch=4 c=64 v=0
255691 On ch=4 n=c#4 v=85
255691 On ch=4 n=c#3 v=85
255893 On ch=4 n=c#3 v=0
255893 On ch=4 n=c#4 v=0
255893 On ch=4 n=a#4 v=85
255893 On ch=4 n=f#4 v=85
255893 On ch=4 n=c#4 v=85
255896 Par ch=4 c=64 v=127
256110 On ch=4 n=c#4 v=0
256110 On ch=4 n=f#4 v=0
256110 On ch=4 n=a#4 v=0
256111 On ch=4 n=c#5 v=85
256111 On ch=4 n=a#4 v=85
256111 On ch=4 n=f#4 v=85
256314 On ch=4 n=f#4 v=0
256314 On ch=4 n=a#4 v=0
256314 On ch=4 n=c#5 v=0
256315 On ch=4 n=f#5 v=85
256315 On ch=4 n=c#5 v=85
256315 On ch=4 n=a#4 v=85
256518 On ch=4 n=a#4 v=0
256518 On ch=4 n=c#5 v=0
256518 On ch=4 n=f#5 v=0
256928 Par ch=4 c=64 v=0
256940 On ch=4 n=d3 v=85
256940 On ch=4 n=d2 v=85
257141 On ch=4 n=d2 v=0
257141 On ch=4 n=d3 v=0
257145 Par ch=4 c=64 v=127
257357 On ch=4 n=f5 v=85
257357 On ch=4 n=b4 v=85
257357 On ch=4 n=g#4 v=85
257357 On ch=4 n=d4 v=85
257568 On ch=4 n=d4 v=0
257568 On ch=4 n=b4 v=0
257568 On ch=4 n=f5 v=0
257568 On ch=4 n=g#4 v=0
257782 On ch=4 n=b5 v=85
257782 On ch=4 n=f5 v=85
257782 On ch=4 n=d5 v=85
257782 On ch=4 n=g#4 v=85
257980 On ch=4 n=d5 v=0
257980 On ch=4 n=f5 v=0
257980 On ch=4 n=b5 v=0
257981 On ch=4 n=g#4 v=0
258173 Par ch=4 c=64 v=0
258200 On ch=4 n=d#3 v=85
258200 On ch=4 n=d#2 v=85
258410 On ch=4 n=d#2 v=0
258410 On ch=4 n=d#3 v=0
258411 On ch=4 n=f5 v=93
258411 On ch=4 n=c5 v=93
258411 On ch=4 n=g#4 v=93
258411 On ch=4 n=d#4 v=93
258414 Par ch=4 c=64 v=127
258817 On ch=4 n=g#4 v=0
258818 On ch=4 n=d#4 v=0
258818 On ch=4 n=c5 v=0
258818 On ch=4 n=f5 v=0
258818 On ch=4 n=d#5 v=86
258818 On ch=4 n=c5 v=86
258818 On ch=4 n=g#4 v=86
258818 On ch=4 n=d#4 v=86
259024 On ch=4 n=d#4 v=0
259024 On ch=4 n=c5 v=0
259024 On ch=4 n=d#5 v=0
259024 On ch=4 n=g#4 v=0
259024 On ch=4 n=d#5 v=98
259024 On ch=4 n=c5 v=98
259024 On ch=4 n=g#4 v=98
259024 On ch=4 n=d#4 v=98
259226 On ch=4 n=d#4 v=0
259226 On ch=4 n=c5 v=0
259226 On ch=4 n=d#5 v=0
259226 On ch=4 n=g#4 v=0
259226 On ch=4 n=d#5 v=98
259226 On ch=4 n=c5 v=98
259226 On ch=4 n=g#4 v=98
259226 On ch=4 n=d#4 v=98
259423 Par ch=4 c=64 v=0
259424 On ch=4 n=d#4 v=0
259424 On ch=4 n=c5 v=0
259424 On ch=4 n=d#5 v=0
259425 On ch=4 n=g#4 v=0
259425 On ch=4 n=d#5 v=98
259425 On ch=4 n=c5 v=98
259425 On ch=4 n=a4 v=98
259425 On ch=4 n=d#4 v=98
259612 On ch=4 n=d#4 v=0
259612 On ch=4 n=a4 v=0
259612 On ch=4 n=c5 v=0
259612 On ch=4 n=d#5 v=0
259613 On ch=4 n=d#5 v=98
259613 On ch=4 n=c5 v=98
259613 On ch=4 n=a4 v=98
259613 On ch=4 n=d#4 v=98
259616 Par ch=4 c=64 v=127
259813 On ch=4 n=d#4 v=0
259813 On ch=4 n=a4 v=0
259813 On ch=4 n=c5 v=0
259813 On ch=4 n=d#5 v=0
259814 On ch=4 n=d#5 v=100
259814 On ch=4 n=c5 v=100
259814 On ch=4 n=a4 v=100
259814 On ch=4 n=d#4 v=100
260009 On ch=4 n=d#4 v=0
260009 On ch=4 n=a4 v=0
260009 On ch=4 n=c5 v=0
260009 On ch=4 n=d#5 v=0
260010 On ch=4 n=d#5 v=94
260010 On ch=4 n=c5 v=94
260010 On ch=4 n=a4 v=94
260010 On ch=4 n=d#4 v=94
260205 On ch=4 n=d#4 v=0
260205 On ch=4 n=a4 v=0
260205 On ch=4 n=c5 v=0
260205 On ch=4 n=d#5 v=0
260205 On ch=4 n=a4 v=92
260205 On ch=4 n=d#4 v=92
260409 On ch=4 n=d#4 v=0
260409 On ch=4 n=a4 v=0
260409 On ch=4 n=a4 v=89
260409 On ch=4 n=d#4 v=89
260610 Par ch=4 c=64 v=0
260616 On ch=4 n=d#4 v=0
260616 On ch=4 n=a4 v=0
260617 On ch=4 n=d#3 v=90
260617 On ch=4 n=d#2 v=90
260819 On ch=4 n=d#2 v=0
260819 On ch=4 n=d#3 v=0
260820 On ch=4 n=g5 v=102
260820 On ch=4 n=c#5 v=102
260820 On ch=4 n=a#4 v=102
260820 On ch=4 n=d#4 v=102
260823 Par ch=4 c=64 v=127
261219 On ch=4 n=d#4 v=0
261219 On ch=4 n=a#4 v=0
261219 On ch=4 n=c#5 v=0
261219 On ch=4 n=g5 v=0
261219 On ch=4 n=f5 v=96
261219 On ch=4 n=c#5 v=96
261219 On ch=4 n=a#4 v=96
261219 On ch=4 n=d#4 v=96
261417 On ch=4 n=d#4 v=0
261417 On ch=4 n=a#4 v=0
261417 On ch=4 n=c#5 v=0
261417 On ch=4 n=f5 v=0
261418 On ch=4 n=f5 v=97
261418 On ch=4 n=c#5 v=97
261418 On ch=4 n=a#4 v=97
261418 On ch=4 n=d#4 v=97
261611 On ch=4 n=d#4 v=0
261611 On ch=4 n=a#4 v=0
261611 On ch=4 n=c#5 v=0
261611 On ch=4 n=f5 v=0
261611 On ch=4 n=f5 v=97
261611 On ch=4 n=c#5 v=97
261611 On ch=4 n=a#4 v=97
261611 On ch=4 n=d#4 v=97
261797 Par ch=4 c=64 v=0
261798 On ch=4 n=d#4 v=0
261798 On ch=4 n=a#4 v=0
261798 On ch=4 n=c#5 v=0
261798 On ch=4 n=f5 v=0
261798 On ch=4 n=d5 v=100
261798 On ch=4 n=b4 v=100
261798 On ch=4 n=d#4 v=100
261992 On ch=4 n=d#4 v=0
261992 On ch=4 n=b4 v=0
261992 On ch=4 n=d5 v=0
261993 On ch=4 n=d5 v=100
261993 On ch=4 n=b4 v=100
261993 On ch=4 n=d#4 v=100
261996 Par ch=4 c=64 v=127
262186 On ch=4 n=d#4 v=0
262186 On ch=4 n=b4 v=0
262186 On ch=4 n=d5 v=0
262186 On ch=4 n=d5 v=100
262186 On ch=4 n=b4 v=100
262186 On ch=4 n=d#4 v=100
262383 On ch=4 n=d#4 v=0
262383 On ch=4 n=b4 v=0
262383 On ch=4 n=d5 v=0
262383 On ch=4 n=d5 v=100
262383 On ch=4 n=b4 v=100
262383 On ch=4 n=d#4 v=100
262573 On ch=4 n=d#4 v=0
262573 On ch=4 n=b4 v=0
262573 On ch=4 n=d5 v=0
262574 On ch=4 n=b4 v=100
262574 On ch=4 n=d#4 v=100
262773 On ch=4 n=d#4 v=0
262773 On ch=4 n=b4 v=0
262773 On ch=4 n=b4 v=100
262773 On ch=4 n=d#4 v=100
262969 Par ch=4 c=64 v=0
262971 On ch=4 n=d#4 v=0
262971 On ch=4 n=b4 v=0
262972 On ch=4 n=d#4 v=100
262972 On ch=4 n=d#3 v=100
263166 On ch=4 n=d#3 v=0
263166 On ch=4 n=d#4 v=0
263166 On ch=4 n=d#5 v=103
263166 On ch=4 n=c5 v=103
263166 On ch=4 n=d#4 v=103
263169 Par ch=4 c=64 v=127
263346 On ch=4 n=d#4 v=0
263346 On ch=4 n=c5 v=0
263346 On ch=4 n=d#5 v=0
263346 On ch=4 n=g5 v=100
263346 On ch=4 n=d#5 v=100
263346 On ch=4 n=c5 v=100
263346 On ch=4 n=g4 v=100
263525 On ch=4 n=g4 v=0
263525 On ch=4 n=c5 v=0
263525 On ch=4 n=d#5 v=0
263525 On ch=4 n=g5 v=0
263525 On ch=4 n=c6 v=99
263525 On ch=4 n=g5 v=99
263525 On ch=4 n=d#5 v=99
263525 On ch=4 n=c5 v=99
263705 On ch=4 n=c5 v=0
263705 On ch=4 n=d#5 v=0
263705 On ch=4 n=g5 v=0
263705 On ch=4 n=c6 v=0
264055 Par ch=4 c=64 v=0
264071 On ch=4 n=d#4 v=99
264071 On ch=4 n=d#3 v=99
264250 On ch=4 n=d#3 v=0
264250 On ch=4 n=d#4 v=0
264251 On ch=4 n=d#5 v=103
264251 On ch=4 n=c5 v=103
264251 On ch=4 n=f#4 v=103
264251 On ch=4 n=d#4 v=103
264254 Par ch=4 c=64 v=127
264425 On ch=4 n=d#4 v=0
264425 On ch=4 n=f#4 v=0
264425 On ch=4 n=c5 v=0
264425 On ch=4 n=d#5 v=0
264425 On ch=4 n=f#5 v=95
264425 On ch=4 n=d#5 v=95
264425 On ch=4 n=c5 v=95
264425 On ch=4 n=f#4 v=95
264614 On ch=4 n=f#4 v=0
264614 On ch=4 n=c5 v=0
264614 On ch=4 n=d#5 v=0
264614 On ch=4 n=f#5 v=0
264615 On ch=4 n=c6 v=97
264615 On ch=4 n=f#5 v=97
264615 On ch=4 n=d#5 v=97
264615 On ch=4 n=c5 v=97
264808 On ch=4 n=c5 v=0
264808 On ch=4 n=d#5 v=0
264808 On ch=4 n=f#5 v=0
264808 On ch=4 n=c6 v=0
265171 Par ch=4 c=64 v=0
265188 On ch=4 n=d#3 v=100
265188 On ch=4 n=d#2 v=100
265405 On ch=4 n=d#2 v=0
265405 On ch=4 n=d#3 v=0
265406 On ch=4 n=e5 v=103
265406 On ch=4 n=c#5 v=103
265406 On ch=4 n=g#4 v=103
265406 On ch=4 n=d#4 v=103
265410 Par ch=4 c=64 v=127
265616 On ch=4 n=d#4 v=0
265616 On ch=4 n=c#5 v=0
265616 On ch=4 n=e5 v=0
265616 On ch=4 n=g#4 v=0
265616 On ch=4 n=e5 v=103
265616 On ch=4 n=c#5 v=103
265616 On ch=4 n=g#4 v=103
265616 On ch=4 n=d#4 v=103
265856 On ch=4 n=d#4 v=0
265856 On ch=4 n=c#5 v=0
265856 On ch=4 n=e5 v=0
265856 On ch=4 n=g#4 v=0
265857 On ch=4 n=e5 v=103
265857 On ch=4 n=c#5 v=103
265857 On ch=4 n=g#4 v=103
265857 On ch=4 n=d#4 v=103
266091 On ch=4 n=d#4 v=0
266091 On ch=4 n=c#5 v=0
266091 On ch=4 n=e5 v=0
266091 On ch=4 n=g#4 v=0
266092 On ch=4 n=e5 v=103
266092 On ch=4 n=c#5 v=103
266092 On ch=4 n=g#4 v=103
266092 On ch=4 n=d#4 v=103
266315 On ch=4 n=g#4 v=0
266316 On ch=4 n=d#4 v=0
266316 On ch=4 n=c#5 v=0
266316 On ch=4 n=e5 v=0
266316 On ch=4 n=e5 v=103
266316 On ch=4 n=c#5 v=103
266316 On ch=4 n=g#4 v=103
266316 On ch=4 n=d#4 v=103
266526 On ch=4 n=d#4 v=0
266526 On ch=4 n=c#5 v=0
266526 On ch=4 n=e5 v=0
266527 On ch=4 n=g#4 v=0
266527 On ch=4 n=e5 v=103
266527 On ch=4 n=c#5 v=103
266527 On ch=4 n=g#4 v=103
266527 On ch=4 n=d#4 v=103
266731 On ch=4 n=d#4 v=0
266731 On ch=4 n=c#5 v=0
266731 On ch=4 n=e5 v=0
266731 On ch=4 n=g#4 v=0
266731 On ch=4 n=e5 v=103
266731 On ch=4 n=c#5 v=103
266731 On ch=4 n=g#4 v=103
266731 On ch=4 n=d#4 v=103
266933 On ch=4 n=d#4 v=0
266933 On ch=4 n=c#5 v=0
266933 On ch=4 n=e5 v=0
266934 On ch=4 n=g#4 v=0
266934 On ch=4 n=e5 v=102
266934 On ch=4 n=c#5 v=102
266934 On ch=4 n=g#4 v=102
266934 On ch=4 n=d#4 v=102
267132 On ch=4 n=d#4 v=0
267132 On ch=4 n=c#5 v=0
267132 On ch=4 n=e5 v=0
267132 On ch=4 n=g#4 v=0
267132 On ch=4 n=e5 v=102
267132 On ch=4 n=c#5 v=102
267132 On ch=4 n=g#4 v=102
267132 On ch=4 n=d#4 v=102
267319 On ch=4 n=d#4 v=0
267319 On ch=4 n=c#5 v=0
267319 On ch=4 n=e5 v=0
267320 On ch=4 n=g#4 v=0
267320 On ch=4 n=e5 v=103
267320 On ch=4 n=c#5 v=103
267320 On ch=4 n=g#4 v=103
267320 On ch=4 n=d#4 v=103
267503 On ch=4 n=d#4 v=0
267503 On ch=4 n=c#5 v=0
267503 On ch=4 n=e5 v=0
267503 On ch=4 n=g#4 v=0
267504 On ch=4 n=e5 v=103
267504 On ch=4 n=c#5 v=103
267504 On ch=4 n=g#4 v=103
267504 On ch=4 n=d#4 v=103
267679 On ch=4 n=d#4 v=0
267679 On ch=4 n=c#5 v=0
267679 On ch=4 n=e5 v=0
267679 On ch=4 n=g#4 v=0
267679 On ch=4 n=e5 v=100
267679 On ch=4 n=c#5 v=100
267679 On ch=4 n=g#4 v=100
267679 On ch=4 n=d#4 v=100
267858 On ch=4 n=d#4 v=0
267858 On ch=4 n=c#5 v=0
267858 On ch=4 n=e5 v=0
267858 On ch=4 n=g#4 v=0
267858 On ch=4 n=e5 v=100
267858 On ch=4 n=c#5 v=100
267858 On ch=4 n=g#4 v=100
267858 On ch=4 n=d#4 v=100
268032 On ch=4 n=d#4 v=0
268032 On ch=4 n=c#5 v=0
268032 On ch=4 n=e5 v=0
268032 On ch=4 n=g#4 v=0
268033 On ch=4 n=e5 v=100
268033 On ch=4 n=c#5 v=100
268033 On ch=4 n=g#4 v=100
268033 On ch=4 n=d#4 v=100
268215 On ch=4 n=g#4 v=0
268216 On ch=4 n=d#4 v=0
268216 On ch=4 n=c#5 v=0
268216 On ch=4 n=e5 v=0
268216 On ch=4 n=e5 v=100
268216 On ch=4 n=c#5 v=100
268216 On ch=4 n=g#4 v=100
268216 On ch=4 n=d#4 v=100
268395 On ch=4 n=d#4 v=0
268395 On ch=4 n=c#5 v=0
268395 On ch=4 n=e5 v=0
268395 On ch=4 n=g#4 v=0
268395 On ch=4 n=e5 v=100
268395 On ch=4 n=c#5 v=100
268395 On ch=4 n=g#4 v=100
268395 On ch=4 n=d#4 v=100
268578 On ch=4 n=d#4 v=0
268578 On ch=4 n=c#5 v=0
268578 On ch=4 n=e5 v=0
268578 On ch=4 n=g#4 v=0
268578 On ch=4 n=e5 v=103
268578 On ch=4 n=c#5 v=103
268578 On ch=4 n=g#4 v=103
268578 On ch=4 n=d#4 v=103
268763 On ch=4 n=d#4 v=0
268763 On ch=4 n=c#5 v=0
268763 On ch=4 n=e5 v=0
268763 On ch=4 n=g#4 v=0
268764 On ch=4 n=e5 v=102
268764 On ch=4 n=c#5 v=102
268764 On ch=4 n=g#4 v=102
268764 On ch=4 n=d#4 v=102
268960 On ch=4 n=d#4 v=0
268960 On ch=4 n=c#5 v=0
268960 On ch=4 n=e5 v=0
268960 On ch=4 n=g#4 v=0
268961 On ch=4 n=e5 v=103
268961 On ch=4 n=c#5 v=103
268961 On ch=4 n=g#4 v=103
268961 On ch=4 n=d#4 v=103
269142 On ch=4 n=g#4 v=0
269143 On ch=4 n=d#4 v=0
269143 On ch=4 n=c#5 v=0
269143 On ch=4 n=e5 v=0
269143 On ch=4 n=e5 v=103
269143 On ch=4 n=c#5 v=103
269143 On ch=4 n=g#4 v=103
269143 On ch=4 n=d#4 v=103
269337 On ch=4 n=d#4 v=0
269337 On ch=4 n=c#5 v=0
269337 On ch=4 n=e5 v=0
269337 On ch=4 n=g#4 v=0
269337 On ch=4 n=e5 v=103
269337 On ch=4 n=c#5 v=103
269337 On ch=4 n=g#4 v=103
269337 On ch=4 n=d#4 v=103
269544 On ch=4 n=d#4 v=0
269544 On ch=4 n=c#5 v=0
269544 On ch=4 n=e5 v=0
269544 On ch=4 n=g#4 v=0
269545 On ch=4 n=e5 v=103
269545 On ch=4 n=c#5 v=103
269545 On ch=4 n=g#4 v=103
269545 On ch=4 n=d#4 v=103
269732 Par ch=4 c=64 v=0
269733 On ch=4 n=d#4 v=0
269733 On ch=4 n=c#5 v=0
269733 On ch=4 n=e5 v=0
269733 On ch=4 n=g#4 v=0
269733 On ch=4 n=e5 v=103
269733 On ch=4 n=c#5 v=103
269733 On ch=4 n=g#4 v=103
269733 On ch=4 n=d#4 v=103
269937 On ch=4 n=d#4 v=0
269937 On ch=4 n=c#5 v=0
269937 On ch=4 n=e5 v=0
269938 On ch=4 n=g#4 v=0
269938 On ch=4 n=e5 v=103
269938 On ch=4 n=c#5 v=103
269938 On ch=4 n=a#4 v=103
269938 On ch=4 n=g4 v=103
269938 On ch=4 n=d#4 v=103
270136 On ch=4 n=d#4 v=0
270136 On ch=4 n=g4 v=0
270136 On ch=4 n=a#4 v=0
270136 On ch=4 n=c#5 v=0
270136 On ch=4 n=e5 v=0
270137 On ch=4 n=e5 v=102
270137 On ch=4 n=c#5 v=102
270137 On ch=4 n=a#4 v=102
270137 On ch=4 n=g4 v=102
270137 On ch=4 n=d#4 v=102
270140 Par ch=4 c=64 v=127
270352 On ch=4 n=d#4 v=0
270352 On ch=4 n=g4 v=0
270352 On ch=4 n=a#4 v=0
270352 On ch=4 n=c#5 v=0
270352 On ch=4 n=e5 v=0
270352 On ch=4 n=e5 v=97
270352 On ch=4 n=c#5 v=97
270352 On ch=4 n=a#4 v=97
270352 On ch=4 n=g4 v=97
270352 On ch=4 n=d#4 v=97
270565 On ch=4 n=d#4 v=0
270565 On ch=4 n=g4 v=0
270565 On ch=4 n=a#4 v=0
270565 On ch=4 n=c#5 v=0
270565 On ch=4 n=e5 v=0
270566 On ch=4 n=e5 v=93
270566 On ch=4 n=c#5 v=93
270566 On ch=4 n=a#4 v=93
270566 On ch=4 n=g4 v=93
270566 On ch=4 n=d#4 v=93
270789 On ch=4 n=d#4 v=0
270789 On ch=4 n=g4 v=0
270789 On ch=4 n=a#4 v=0
270789 On ch=4 n=c#5 v=0
270789 On ch=4 n=e5 v=0
270790 On ch=4 n=e5 v=89
270790 On ch=4 n=c#5 v=89
270790 On ch=4 n=a#4 v=89
270790 On ch=4 n=g4 v=89
270790 On ch=4 n=d#4 v=89
271003 On ch=4 n=d#4 v=0
271003 On ch=4 n=g4 v=0
271003 On ch=4 n=a#4 v=0
271003 On ch=4 n=c#5 v=0
271003 On ch=4 n=e5 v=0
271004 On ch=4 n=e5 v=88
271004 On ch=4 n=c#5 v=88
271004 On ch=4 n=a#4 v=88
271004 On ch=4 n=g4 v=88
271004 On ch=4 n=d#4 v=88
271213 Par ch=4 c=64 v=0
271215 On ch=4 n=d#4 v=0
271215 On ch=4 n=g4 v=0
271215 On ch=4 n=a#4 v=0
271215 On ch=4 n=c#5 v=0
271215 On ch=4 n=e5 v=0
271215 On ch=4 n=e5 v=90
271215 On ch=4 n=c#5 v=90
271215 On ch=4 n=a#4 v=90
271215 On ch=4 n=g4 v=90
271215 On ch=4 n=d#4 v=90
271425 On ch=4 n=d#4 v=0
271425 On ch=4 n=g4 v=0
271425 On ch=4 n=a#4 v=0
271425 On ch=4 n=c#5 v=0
271425 On ch=4 n=e5 v=0
271425 On ch=4 n=e5 v=91
271425 On ch=4 n=c#5 v=91
271425 On ch=4 n=a#4 v=91
271425 On ch=4 n=g4 v=91
271425 On ch=4 n=d#4 v=91
271428 Par ch=4 c=64 v=127
271637 On ch=4 n=d#4 v=0
271637 On ch=4 n=g4 v=0
271637 On ch=4 n=a#4 v=0
271637 On ch=4 n=c#5 v=0
271637 On ch=4 n=e5 v=0
271638 On ch=4 n=e5 v=88
271638 On ch=4 n=c#5 v=88
271638 On ch=4 n=a#4 v=88
271638 On ch=4 n=g4 v=88
271638 On ch=4 n=d#4 v=88
271865 On ch=4 n=d#4 v=0
271865 On ch=4 n=g4 v=0
271865 On ch=4 n=a#4 v=0
271865 On ch=4 n=c#5 v=0
271865 On ch=4 n=e5 v=0
271865 On ch=4 n=e5 v=88
271865 On ch=4 n=c#5 v=88
271865 On ch=4 n=a#4 v=88
271865 On ch=4 n=g4 v=88
271865 On ch=4 n=d#4 v=88
272081 On ch=4 n=d#4 v=0
272081 On ch=4 n=g4 v=0
272081 On ch=4 n=a#4 v=0
272081 On ch=4 n=c#5 v=0
272081 On ch=4 n=e5 v=0
272081 On ch=4 n=e5 v=86
272081 On ch=4 n=c#5 v=86
272081 On ch=4 n=a#4 v=86
272081 On ch=4 n=g4 v=86
272081 On ch=4 n=d#4 v=86
272282 On ch=4 n=d#4 v=0
272282 On ch=4 n=g4 v=0
272282 On ch=4 n=a#4 v=0
272282 On ch=4 n=c#5 v=0
272282 On ch=4 n=e5 v=0
272283 On ch=4 n=e5 v=85
272283 On ch=4 n=c#5 v=85
272283 On ch=4 n=a#4 v=85
272283 On ch=4 n=g4 v=85
272283 On ch=4 n=d#4 v=85
272480 Par ch=4 c=64 v=0
272490 On ch=4 n=d#4 v=0
272490 On ch=4 n=g4 v=0
272490 On ch=4 n=a#4 v=0
272490 On ch=4 n=c#5 v=0
272490 On ch=4 n=e5 v=0
272490 On ch=4 n=e5 v=83
272490 On ch=4 n=c#5 v=83
272490 On ch=4 n=a#4 v=83
272490 On ch=4 n=g4 v=83
272490 On ch=4 n=d#4 v=83
272731 On ch=4 n=d#4 v=0
272731 On ch=4 n=g4 v=0
272731 On ch=4 n=a#4 v=0
272731 On ch=4 n=c#5 v=0
272731 On ch=4 n=e5 v=0
272732 On ch=4 n=e5 v=83
272732 On ch=4 n=c#5 v=83
272732 On ch=4 n=a#4 v=83
272732 On ch=4 n=g4 v=83
272732 On ch=4 n=d#4 v=83
272736 Par ch=4 c=64 v=127
272963 On ch=4 n=d#4 v=0
272963 On ch=4 n=g4 v=0
272963 On ch=4 n=a#4 v=0
272963 On ch=4 n=c#5 v=0
272963 On ch=4 n=e5 v=0
272963 On ch=4 n=e5 v=83
272963 On ch=4 n=c#5 v=83
272963 On ch=4 n=a#4 v=83
272963 On ch=4 n=g4 v=83
272963 On ch=4 n=d#4 v=83
273195 On ch=4 n=d#4 v=0
273195 On ch=4 n=g4 v=0
273195 On ch=4 n=a#4 v=0
273195 On ch=4 n=c#5 v=0
273195 On ch=4 n=e5 v=0
273196 On ch=4 n=e5 v=83
273196 On ch=4 n=c#5 v=83
273196 On ch=4 n=a#4 v=83
273196 On ch=4 n=g4 v=83
273196 On ch=4 n=d#4 v=83
273436 On ch=4 n=d#4 v=0
273436 On ch=4 n=g4 v=0
273436 On ch=4 n=a#4 v=0
273436 On ch=4 n=c#5 v=0
273436 On ch=4 n=e5 v=0
273436 On ch=4 n=e5 v=83
273436 On ch=4 n=c#5 v=83
273436 On ch=4 n=a#4 v=83
273436 On ch=4 n=g4 v=83
273436 On ch=4 n=d#4 v=83
273672 Par ch=4 c=64 v=0
273698 On ch=4 n=d#4 v=0
273698 On ch=4 n=g4 v=0
273698 On ch=4 n=a#4 v=0
273698 On ch=4 n=c#5 v=0
273698 On ch=4 n=e5 v=0
283130 Par ch=4 c=64 v=127
283408 On ch=4 n=g#4 v=41
283408 On ch=4 n=d#4 v=41
283408 On ch=4 n=g#3 v=41
283695 On ch=4 n=g#3 v=0
283695 On ch=4 n=d#4 v=0
283695 On ch=4 n=g#4 v=0
283695 On ch=4 n=d#5 v=41
283695 On ch=4 n=c5 v=41
283695 On ch=4 n=g#4 v=41
283695 On ch=4 n=d#4 v=41
283695 On ch=4 n=g#3 v=41
283976 On ch=4 n=g#3 v=0
283976 On ch=4 n=d#4 v=0
283976 On ch=4 n=c5 v=0
283976 On ch=4 n=d#5 v=0
283976 On ch=4 n=g#4 v=0
283977 On ch=4 n=g#4 v=40
283977 On ch=4 n=d#4 v=40
283977 On ch=4 n=g#3 v=40
284283 On ch=4 n=g#4 v=0
284284 On ch=4 n=g#3 v=0
284284 On ch=4 n=d#4 v=0
284284 On ch=4 n=g#4 v=37
284284 On ch=4 n=d#4 v=37
284284 On ch=4 n=g#3 v=37
284550 On ch=4 n=g#3 v=0
284550 On ch=4 n=d#4 v=0
284550 On ch=4 n=g#4 v=0
284550 On ch=4 n=g#4 v=37
284550 On ch=4 n=d#4 v=37
284550 On ch=4 n=g#3 v=37
284838 On ch=4 n=g#3 v=0
284838 On ch=4 n=d#4 v=0
284839 On ch=4 n=g#4 v=0
284839 On ch=4 n=g#4 v=39
284839 On ch=4 n=d#4 v=39
284839 On ch=4 n=g#3 v=39
285131 On ch=4 n=g#3 v=0
285131 On ch=4 n=d#4 v=0
285131 On ch=4 n=g#4 v=0
285132 On ch=4 n=g#4 v=37
285132 On ch=4 n=d#4 v=37
285132 On ch=4 n=g#3 v=37
285424 On ch=4 n=g#3 v=0
285424 On ch=4 n=d#4 v=0
285424 On ch=4 n=g#4 v=0
285424 On ch=4 n=g#4 v=35
285424 On ch=4 n=d#4 v=35
285424 On ch=4 n=g#3 v=35
285697 On ch=4 n=g#3 v=0
285697 On ch=4 n=d#4 v=0
285698 On ch=4 n=g#4 v=0
285698 On ch=4 n=g#4 v=37
285698 On ch=4 n=d#4 v=37
285698 On ch=4 n=g#3 v=37
286003 On ch=4 n=g#3 v=0
286003 On ch=4 n=d#4 v=0
286003 On ch=4 n=g#4 v=0
286004 On ch=4 n=g#4 v=37
286004 On ch=4 n=d#4 v=37
286004 On ch=4 n=g#3 v=37
286298 On ch=4 n=g#3 v=0
286298 On ch=4 n=d#4 v=0
286298 On ch=4 n=g#4 v=0
286298 On ch=4 n=g#4 v=37
286298 On ch=4 n=d#4 v=37
286298 On ch=4 n=g#3 v=37
286580 Par ch=4 c=64 v=0
286583 On ch=4 n=g#3 v=0
286583 On ch=4 n=d#4 v=0
286583 On ch=4 n=g#4 v=0
286583 On ch=4 n=g#2 v=36
286867 On ch=4 n=g#2 v=0
286868 On ch=4 n=f#4 v=40
286868 On ch=4 n=d#4 v=40
286868 On ch=4 n=g#3 v=40
286872 Par ch=4 c=64 v=127
287168 On ch=4 n=g#3 v=0
287168 On ch=4 n=d#4 v=0
287168 On ch=4 n=f#4 v=0
287168 On ch=4 n=f#4 v=37
287168 On ch=4 n=d#4 v=37
287168 On ch=4 n=g#3 v=37
287434 On ch=4 n=g#3 v=0
287434 On ch=4 n=d#4 v=0
287434 On ch=4 n=f#4 v=0
287434 On ch=4 n=f#4 v=37
287434 On ch=4 n=d#4 v=37
287434 On ch=4 n=g#3 v=37
287711 On ch=4 n=g#3 v=0
287711 On ch=4 n=d#4 v=0
287711 On ch=4 n=f#4 v=0
287712 On ch=4 n=f#4 v=35
287712 On ch=4 n=d#4 v=35
287712 On ch=4 n=g#3 v=35
287987 On ch=4 n=g#3 v=0
287987 On ch=4 n=d#4 v=0
287987 On ch=4 n=f#4 v=0
287987 On ch=4 n=f#4 v=39
287987 On ch=4 n=d#4 v=39
287987 On ch=4 n=g#3 v=39
288269 On ch=4 n=g#3 v=0
288269 On ch=4 n=d#4 v=0
288269 On ch=4 n=f#4 v=0
288270 On ch=4 n=f#4 v=37
288270 On ch=4 n=d#4 v=37
288270 On ch=4 n=g#3 v=37
288528 On ch=4 n=g#3 v=0
288528 On ch=4 n=d#4 v=0
288528 On ch=4 n=f#4 v=0
288529 On ch=4 n=f#4 v=41
288529 On ch=4 n=d#4 v=41
288529 On ch=4 n=g#3 v=41
288797 On ch=4 n=g#3 v=0
288797 On ch=4 n=d#4 v=0
288797 On ch=4 n=f#4 v=0
288797 On ch=4 n=f#4 v=41
288797 On ch=4 n=d#4 v=41
288797 On ch=4 n=g#3 v=41
289069 On ch=4 n=g#3 v=0
289069 On ch=4 n=d#4 v=0
289069 On ch=4 n=f#4 v=0
289069 On ch=4 n=f#4 v=44
289069 On ch=4 n=d#4 v=44
289069 On ch=4 n=g#3 v=44
289340 On ch=4 n=g#3 v=0
289340 On ch=4 n=d#4 v=0
289340 On ch=4 n=f#4 v=0
289341 On ch=4 n=f#4 v=43
289341 On ch=4 n=d#4 v=43
289341 On ch=4 n=g#3 v=43
289607 On ch=4 n=g#3 v=0
289607 On ch=4 n=d#4 v=0
289607 On ch=4 n=f#4 v=0
289608 On ch=4 n=f#4 v=45
289608 On ch=4 n=d#4 v=45
289608 On ch=4 n=g#3 v=45
289871 Par ch=4 c=64 v=0
289880 On ch=4 n=g#3 v=0
289880 On ch=4 n=d#4 v=0
289880 On ch=4 n=f#4 v=0
289880 On ch=4 n=g#2 v=43
290158 On ch=4 n=g#2 v=0
290159 On ch=4 n=f4 v=44
290159 On ch=4 n=d4 v=44
290159 On ch=4 n=g#3 v=44
290164 Par ch=4 c=64 v=127
290440 On ch=4 n=g#3 v=0
290440 On ch=4 n=d4 v=0
290440 On ch=4 n=f4 v=0
290441 On ch=4 n=f4 v=41
290441 On ch=4 n=d4 v=41
290441 On ch=4 n=g#3 v=41
290712 On ch=4 n=g#3 v=0
290712 On ch=4 n=d4 v=0
290712 On ch=4 n=f4 v=0
290712 On ch=4 n=f4 v=40
290712 On ch=4 n=d4 v=40
290712 On ch=4 n=g#3 v=40
290978 On ch=4 n=g#3 v=0
290978 On ch=4 n=d4 v=0
290978 On ch=4 n=f4 v=0
290978 On ch=4 n=f4 v=43
290978 On ch=4 n=d4 v=43
290978 On ch=4 n=g#3 v=43
291244 On ch=4 n=g#3 v=0
291244 On ch=4 n=d4 v=0
291244 On ch=4 n=f4 v=0
291245 On ch=4 n=f4 v=37
291245 On ch=4 n=d4 v=37
291245 On ch=4 n=g#3 v=37
291510 Par ch=4 c=64 v=0
291541 On ch=4 n=g#3 v=0
291541 On ch=4 n=d4 v=0
291541 On ch=4 n=f4 v=0
291541 On ch=4 n=a#4 v=43
291541 On ch=4 n=f4 v=43
291541 On ch=4 n=c#4 v=43
291541 On ch=4 n=g#3 v=43
291546 Par ch=4 c=64 v=127
291820 On ch=4 n=g#3 v=0
291820 On ch=4 n=c#4 v=0
291820 On ch=4 n=f4 v=0
291820 On ch=4 n=a#4 v=0
291821 On ch=4 n=a#4 v=41
291821 On ch=4 n=f4 v=41
291821 On ch=4 n=c#4 v=41
291821 On ch=4 n=g#3 v=41
292085 On ch=4 n=g#3 v=0
292085 On ch=4 n=c#4 v=0
292085 On ch=4 n=f4 v=0
292085 On ch=4 n=a#4 v=0
292085 On ch=4 n=a#4 v=43
292085 On ch=4 n=f4 v=43
292085 On ch=4 n=c#4 v=43
292085 On ch=4 n=g#3 v=43
292371 On ch=4 n=g#3 v=0
292371 On ch=4 n=c#4 v=0
292371 On ch=4 n=f4 v=0
292371 On ch=4 n=a#4 v=0
292372 On ch=4 n=a#4 v=40
292372 On ch=4 n=f4 v=40
292372 On ch=4 n=c#4 v=40
292372 On ch=4 n=g#3 v=40
292645 On ch=4 n=g#3 v=0
292645 On ch=4 n=c#4 v=0
292645 On ch=4 n=f4 v=0
292645 On ch=4 n=a#4 v=0
292646 On ch=4 n=a#4 v=42
292646 On ch=4 n=f4 v=42
292646 On ch=4 n=c#4 v=42
292646 On ch=4 n=g#3 v=42
292893 On ch=4 n=g#3 v=0
292893 On ch=4 n=c#4 v=0
292893 On ch=4 n=f4 v=0
292893 On ch=4 n=a#4 v=0
292894 On ch=4 n=a#4 v=42
292894 On ch=4 n=f4 v=42
292894 On ch=4 n=c#4 v=42
292894 On ch=4 n=g#3 v=42
293138 Par ch=4 c=64 v=0
293160 On ch=4 n=g#3 v=0
293160 On ch=4 n=c#4 v=0
293160 On ch=4 n=f4 v=0
293160 On ch=4 n=a#4 v=0
293160 On ch=4 n=g#2 v=39
293425 On ch=4 n=g#2 v=0
293425 On ch=4 n=g#4 v=41
293425 On ch=4 n=e4 v=41
293425 On ch=4 n=g#3 v=41
293430 Par ch=4 c=64 v=127
293693 On ch=4 n=g#4 v=0
293694 On ch=4 n=g#3 v=0
293694 On ch=4 n=e4 v=0
293694 On ch=4 n=g#4 v=42
293694 On ch=4 n=e4 v=42
293694 On ch=4 n=g#3 v=42
293965 On ch=4 n=g#3 v=0
293965 On ch=4 n=e4 v=0
293965 On ch=4 n=g#4 v=0
293966 On ch=4 n=g4 v=39
293966 On ch=4 n=e4 v=39
293966 On ch=4 n=g#3 v=39
294227 On ch=4 n=g#3 v=0
294227 On ch=4 n=e4 v=0
294227 On ch=4 n=g4 v=0
294227 On ch=4 n=g4 v=43
294227 On ch=4 n=e4 v=43
294227 On ch=4 n=c#4 v=43
294227 On ch=4 n=g#3 v=43
294481 On ch=4 n=g#3 v=0
294481 On ch=4 n=c#4 v=0
294481 On ch=4 n=e4 v=0
294481 On ch=4 n=g4 v=0
294481 On ch=4 n=d#4 v=41
294481 On ch=4 n=c#4 v=41
294481 On ch=4 n=g#3 v=41
294744 On ch=4 n=g#3 v=0
294744 On ch=4 n=c#4 v=0
294744 On ch=4 n=d#4 v=0
294745 On ch=4 n=c#4 v=37
294745 On ch=4 n=c#4 v=37
294745 On ch=4 n=g#3 v=37
295022 On ch=4 n=g#3 v=0
295022 On ch=4 n=c#4 v=0
295022 On ch=4 n=c#4 v=0
295023 On ch=4 n=d#4 v=41
295023 On ch=4 n=c#4 v=41
295023 On ch=4 n=g#3 v=41
295288 On ch=4 n=g#3 v=0
295288 On ch=4 n=c#4 v=0
295288 On ch=4 n=d#4 v=0
295288 On ch=4 n=e4 v=41
295288 On ch=4 n=c#4 v=41
295288 On ch=4 n=g#3 v=41
295539 On ch=4 n=g#3 v=0
295539 On ch=4 n=c#4 v=0
295539 On ch=4 n=e4 v=0
295539 On ch=4 n=d#4 v=43
295539 On ch=4 n=c#4 v=43
295539 On ch=4 n=g#3 v=43
295813 On ch=4 n=g#3 v=0
295813 On ch=4 n=c#4 v=0
295813 On ch=4 n=d#4 v=0
295814 On ch=4 n=f4 v=47
295814 On ch=4 n=c#4 v=47
295814 On ch=4 n=g#3 v=47
296071 On ch=4 n=g#3 v=0
296071 On ch=4 n=c#4 v=0
296071 On ch=4 n=f4 v=0
296071 On ch=4 n=d#4 v=45
296071 On ch=4 n=c#4 v=45
296071 On ch=4 n=g#3 v=45
296325 Par ch=4 c=64 v=0
296345 On ch=4 n=g#3 v=0
296345 On ch=4 n=c#4 v=0
296345 On ch=4 n=d#4 v=0
296346 On ch=4 n=g#2 v=51
296621 On ch=4 n=g#2 v=0
296622 On ch=4 n=d#5 v=45
296622 On ch=4 n=a4 v=45
296622 On ch=4 n=f#4 v=45
296626 Par ch=4 c=64 v=127
296888 On ch=4 n=f#4 v=0
296888 On ch=4 n=a4 v=0
296888 On ch=4 n=d#5 v=0
296889 On ch=4 n=d#5 v=41
296889 On ch=4 n=a4 v=41
296889 On ch=4 n=f#4 v=41
297163 On ch=4 n=f#4 v=0
297163 On ch=4 n=a4 v=0
297163 On ch=4 n=d#5 v=0
297163 On ch=4 n=d#5 v=40
297163 On ch=4 n=a4 v=40
297163 On ch=4 n=f#4 v=40
297426 Par ch=4 c=64 v=0
297428 On ch=4 n=f#4 v=0
297428 On ch=4 n=a4 v=0
297428 On ch=4 n=d#5 v=0
297429 On ch=4 n=d#5 v=41
297429 On ch=4 n=g#4 v=41
297429 On ch=4 n=f#4 v=41
297433 Par ch=4 c=64 v=127
297697 On ch=4 n=g#4 v=0
297698 On ch=4 n=f#4 v=0
297698 On ch=4 n=d#5 v=0
297698 On ch=4 n=d#5 v=37
297698 On ch=4 n=g#4 v=37
297698 On ch=4 n=f#4 v=37
297968 On ch=4 n=f#4 v=0
297968 On ch=4 n=d#5 v=0
297969 On ch=4 n=g#4 v=0
298225 Par ch=4 c=64 v=0
298227 On ch=4 n=d5 v=43
298227 On ch=4 n=g#4 v=43
298227 On ch=4 n=f#4 v=43
298232 Par ch=4 c=64 v=127
298504 On ch=4 n=f#4 v=0
298504 On ch=4 n=d5 v=0
298504 On ch=4 n=g#4 v=0
298505 On ch=4 n=d5 v=35
298505 On ch=4 n=g#4 v=35
298505 On ch=4 n=f#4 v=35
298793 On ch=4 n=f#4 v=0
298793 On ch=4 n=d5 v=0
298793 On ch=4 n=g#4 v=0
298794 On ch=4 n=d5 v=37
298794 On ch=4 n=g#4 v=37
298794 On ch=4 n=f#4 v=37
299062 Par ch=4 c=64 v=0
299064 On ch=4 n=f#4 v=0
299064 On ch=4 n=d5 v=0
299064 On ch=4 n=g#4 v=0
299064 On ch=4 n=d5 v=41
299064 On ch=4 n=g#4 v=41
299064 On ch=4 n=f4 v=41
299069 Par ch=4 c=64 v=127
299329 On ch=4 n=f4 v=0
299329 On ch=4 n=d5 v=0
299330 On ch=4 n=g#4 v=0
299330 On ch=4 n=d5 v=40
299330 On ch=4 n=g#4 v=40
299330 On ch=4 n=f4 v=40
299591 Par ch=4 c=64 v=0
299593 On ch=4 n=g#4 v=0
299594 On ch=4 n=f4 v=0
299594 On ch=4 n=d5 v=0
299594 On ch=4 n=g#3 v=37
299860 On ch=4 n=g#3 v=0
299860 On ch=4 n=g#4 v=36
299860 On ch=4 n=f4 v=36
299865 Par ch=4 c=64 v=127
300160 On ch=4 n=f4 v=0
300160 On ch=4 n=g#4 v=0
300160 On ch=4 n=c#5 v=37
300160 On ch=4 n=g#4 v=37
300160 On ch=4 n=f4 v=37
300456 On ch=4 n=f4 v=0
300456 On ch=4 n=c#5 v=0
300456 On ch=4 n=g#4 v=0
300456 On ch=4 n=c#5 v=37
300456 On ch=4 n=g#4 v=37
300456 On ch=4 n=f4 v=37
300734 Par ch=4 c=64 v=0
300736 On ch=4 n=f4 v=0
300736 On ch=4 n=c#5 v=0
300736 On ch=4 n=g#4 v=0
300736 On ch=4 n=c#5 v=31
300736 On ch=4 n=g4 v=31
300736 On ch=4 n=e4 v=31
300741 Par ch=4 c=64 v=127
301042 On ch=4 n=e4 v=0
301042 On ch=4 n=g4 v=0
301042 On ch=4 n=c#5 v=0
301043 On ch=4 n=c#5 v=30
301043 On ch=4 n=g4 v=30
301043 On ch=4 n=e4 v=30
301332 Par ch=4 c=64 v=0
301337 On ch=4 n=e4 v=0
301337 On ch=4 n=g4 v=0
301337 On ch=4 n=c#5 v=0
301640 On ch=4 n=c5 v=33
301640 On ch=4 n=g4 v=33
301640 On ch=4 n=e4 v=33
301644 Par ch=4 c=64 v=127
301950 On ch=4 n=e4 v=0
301950 On ch=4 n=g4 v=0
301950 On ch=4 n=c5 v=0
301950 On ch=4 n=c5 v=37
301950 On ch=4 n=g4 v=37
301950 On ch=4 n=e4 v=37
302262 On ch=4 n=e4 v=0
302262 On ch=4 n=g4 v=0
302262 On ch=4 n=c5 v=0
302262 On ch=4 n=c5 v=31
302262 On ch=4 n=g4 v=31
302262 On ch=4 n=e4 v=31
302564 Par ch=4 c=64 v=0
302566 On ch=4 n=e4 v=0
302566 On ch=4 n=g4 v=0
302566 On ch=4 n=c5 v=0
302567 On ch=4 n=c5 v=33
302567 On ch=4 n=f#4 v=33
302567 On ch=4 n=d#4 v=33
302572 Par ch=4 c=64 v=127
302870 On ch=4 n=d#4 v=0
302870 On ch=4 n=f#4 v=0
302870 On ch=4 n=c5 v=0
302871 On ch=4 n=c5 v=33
302871 On ch=4 n=f#4 v=33
302871 On ch=4 n=d#4 v=33
303170 Par ch=4 c=64 v=0
303174 On ch=4 n=d#4 v=0
303174 On ch=4 n=f#4 v=0
303174 On ch=4 n=c5 v=0
303496 On ch=4 n=b4 v=35
303496 On ch=4 n=f#4 v=35
303496 On ch=4 n=d#4 v=35
303501 Par ch=4 c=64 v=127
303818 On ch=4 n=d#4 v=0
303818 On ch=4 n=f#4 v=0
303818 On ch=4 n=b4 v=0
303818 On ch=4 n=b4 v=30
303818 On ch=4 n=f#4 v=30
303818 On ch=4 n=d#4 v=30
304125 On ch=4 n=d#4 v=0
304125 On ch=4 n=f#4 v=0
304125 On ch=4 n=b4 v=0
304125 On ch=4 n=b4 v=37
304125 On ch=4 n=f#4 v=37
304125 On ch=4 n=d#4 v=37
304462 On ch=4 n=d#4 v=0
304462 On ch=4 n=f#4 v=0
304462 On ch=4 n=b4 v=0
304463 On ch=4 n=b4 v=26
304463 On ch=4 n=f#4 v=26
304463 On ch=4 n=d#4 v=26
304785 On ch=4 n=d#4 v=0
304785 On ch=4 n=f#4 v=0
304785 On ch=4 n=b4 v=0
304785 On ch=4 n=b4 v=31
304785 On ch=4 n=f#4 v=31
304785 On ch=4 n=d#4 v=31
305115 On ch=4 n=d#4 v=0
305115 On ch=4 n=f#4 v=0
305115 On ch=4 n=b4 v=0
305450 On ch=4 n=f#4 v=31
305450 On ch=4 n=d#4 v=31
305821 On ch=4 n=d#4 v=0
305821 On ch=4 n=f#4 v=0
305821 On ch=4 n=f3 v=26
306196 On ch=4 n=f3 v=0
306196 On ch=4 n=f#4 v=30
306196 On ch=4 n=d#4 v=30
306534 Par ch=4 c=64 v=0
306537 On ch=4 n=d#4 v=0
306537 On ch=4 n=f#4 v=0
306537 On ch=4 n=f#3 v=33
306901 On ch=4 n=f#3 v=0
306902 On ch=4 n=f#4 v=26
306902 On ch=4 n=d#4 v=26
307250 On ch=4 n=d#4 v=0
307250 On ch=4 n=f#4 v=0
307251 On ch=4 n=g#3 v=33
307257 Par ch=4 c=64 v=127
307585 On ch=4 n=g#3 v=0
307586 On ch=4 n=f4 v=37
307586 On ch=4 n=d4 v=37
307915 Par ch=4 c=64 v=0
307955 On ch=4 n=d4 v=0
307955 On ch=4 n=f4 v=0
307955 On ch=4 n=c#4 v=35
307962 Par ch=4 c=64 v=127
308311 On ch=4 n=c#4 v=0
308312 On ch=4 n=f4 v=37
308312 On ch=4 n=c#4 v=37
308668 On ch=4 n=c#4 v=0
308668 On ch=4 n=f4 v=0
308668 On ch=4 n=f3 v=31
309024 On ch=4 n=f3 v=0
309025 On ch=4 n=f4 v=36
309025 On ch=4 n=c#4 v=36
309411 On ch=4 n=c#4 v=0
309411 On ch=4 n=f4 v=0
309412 On ch=4 n=e3 v=31
309772 On ch=4 n=e3 v=0
309772 On ch=4 n=e4 v=31
309772 On ch=4 n=d4 v=31
310127 Par ch=4 c=64 v=0
310168 On ch=4 n=d4 v=0
310168 On ch=4 n=e4 v=0
310168 On ch=4 n=d3 v=29
310175 Par ch=4 c=64 v=127
310541 On ch=4 n=d3 v=0
310542 On ch=4 n=e4 v=30
310542 On ch=4 n=d4 v=30
310913 On ch=4 n=d4 v=0
310913 On ch=4 n=e4 v=0
310913 On ch=4 n=b2 v=31
311302 On ch=4 n=b2 v=0
311302 On ch=4 n=e4 v=27
311302 On ch=4 n=d4 v=27
311674 Par ch=4 c=64 v=0
311677 On ch=4 n=d4 v=0
311677 On ch=4 n=e4 v=0
311683 Par ch=4 c=64 v=127
312438 Par ch=4 c=64 v=0
315489 Par ch=4 c=64 v=127
316083 On ch=4 n=c#4 v=45
316083 On ch=4 n=a#3 v=45
316083 On ch=4 n=d#3 v=45
316723 On ch=4 n=d#3 v=0
316723 On ch=4 n=a#3 v=0
316723 On ch=4 n=c#4 v=0
316723 On ch=4 n=c#4 v=47
316723 On ch=4 n=a#3 v=47
316723 On ch=4 n=d#3 v=47
317331 On ch=4 n=d#3 v=0
317331 On ch=4 n=a#3 v=0
317331 On ch=4 n=c#4 v=0
317332 On ch=4 n=c#4 v=45
317332 On ch=4 n=a#3 v=45
317332 On ch=4 n=d#3 v=45
317903 On ch=4 n=d#3 v=0
317903 On ch=4 n=a#3 v=0
317903 On ch=4 n=c#4 v=0
319177 Par ch=4 c=64 v=0
322982 Par ch=4 c=64 v=127
323577 On ch=4 n=c#4 v=49
323577 On ch=4 n=a#3 v=49
323577 On ch=4 n=d#3 v=49
324143 On ch=4 n=d#3 v=0
324143 On ch=4 n=a#3 v=0
324143 On ch=4 n=c#4 v=0
324144 On ch=4 n=c#4 v=49
324144 On ch=4 n=a#3 v=49
324144 On ch=4 n=d#3 v=49
324659 On ch=4 n=d#3 v=0
324659 On ch=4 n=a#3 v=0
324659 On ch=4 n=c#4 v=0
324659 On ch=4 n=c#4 v=53
324659 On ch=4 n=a#3 v=53
324659 On ch=4 n=d#3 v=53
325244 On ch=4 n=d#3 v=0
325244 On ch=4 n=a#3 v=0
325244 On ch=4 n=c#4 v=0
326315 Par ch=4 c=64 v=0
326467 Par ch=4 c=64 v=127
327047 On ch=4 n=d#3 v=51
327047 On ch=4 n=g#2 v=51
327587 On ch=4 n=g#2 v=0
327587 On ch=4 n=d#3 v=0
327588 On ch=4 n=d#3 v=49
327588 On ch=4 n=g#2 v=49
328105 Par ch=4 c=64 v=0
328120 On ch=4 n=g#2 v=0
328120 On ch=4 n=d#3 v=0
328121 On ch=4 n=e3 v=56
328121 On ch=4 n=c#3 v=56
328126 Par ch=4 c=64 v=127
328673 On ch=4 n=c#3 v=0
328673 On ch=4 n=e3 v=0
329805 Par ch=4 c=64 v=0
329817 Par ch=4 c=64 v=127
330312 On ch=4 n=d#3 v=49
330312 On ch=4 n=g#2 v=49
330828 On ch=4 n=g#2 v=0
330828 On ch=4 n=d#3 v=0
330829 On ch=4 n=d#3 v=52
330829 On ch=4 n=g#2 v=52
331362 Par ch=4 c=64 v=0
331365 On ch=4 n=g#2 v=0
331365 On ch=4 n=d#3 v=0
331365 On ch=4 n=f3 v=59
331365 On ch=4 n=c#3 v=59
331370 Par ch=4 c=64 v=127
331631 On ch=4 n=c#3 v=0
331631 On ch=4 n=f3 v=0
332922 Par ch=4 c=64 v=0
332978 Par ch=4 c=64 v=127
333534 On ch=4 n=d#3 v=53
333534 On ch=4 n=g#2 v=53
334074 On ch=4 n=g#2 v=0
334074 On ch=4 n=d#3 v=0
334074 On ch=4 n=d#3 v=59
334074 On ch=4 n=g#2 v=59
334598 On ch=4 n=g#2 v=0
334598 On ch=4 n=d#3 v=0
334599 On ch=4 n=d#3 v=56
334599 On ch=4 n=g#2 v=56
335122 On ch=4 n=g#2 v=0
335122 On ch=4 n=d#3 v=0
335122 On ch=4 n=d#3 v=51
335122 On ch=4 n=g#2 v=51
335631 On ch=4 n=g#2 v=0
335631 On ch=4 n=d#3 v=0
335631 On ch=4 n=d#3 v=59
335631 On ch=4 n=g#2 v=59
336132 On ch=4 n=g#2 v=0
336132 On ch=4 n=d#3 v=0
336635 On ch=4 n=d#3 v=56
336635 On ch=4 n=g#2 v=56
337141 On ch=4 n=g#2 v=0
337141 On ch=4 n=d#3 v=0
337141 On ch=4 n=d#3 v=53
337141 On ch=4 n=g#2 v=53
337623 On ch=4 n=g#2 v=0
337623 On ch=4 n=d#3 v=0
338091 On ch=4 n=d#3 v=56
338091 On ch=4 n=g#2 v=56
338561 On ch=4 n=g#2 v=0
338561 On ch=4 n=d#3 v=0
338562 On ch=4 n=d#3 v=57
338562 On ch=4 n=g#2 v=57
339025 On ch=4 n=g#2 v=0
339025 On ch=4 n=d#3 v=0
339499 On ch=4 n=d#3 v=56
339499 On ch=4 n=g#2 v=56
339972 On ch=4 n=g#2 v=0
339972 On ch=4 n=d#3 v=0
339972 On ch=4 n=d#3 v=56
339972 On ch=4 n=g#2 v=56
340445 On ch=4 n=g#2 v=0
340445 On ch=4 n=d#3 v=0
340911 On ch=4 n=d#3 v=53
340911 On ch=4 n=g#2 v=53
341394 On ch=4 n=g#2 v=0
341394 On ch=4 n=d#3 v=0
341395 On ch=4 n=d#3 v=51
341395 On ch=4 n=g#2 v=51
341862 On ch=4 n=g#2 v=0
341862 On ch=4 n=d#3 v=0
345373 Par ch=4 c=64 v=0
346068 On ch=4 n=g#4 v=37
346072 Par ch=4 c=64 v=127
346130 On ch=4 n=d#5 v=37
346191 On ch=4 n=c6 v=37
346315 On ch=4 n=c6 v=0
346315 On ch=4 n=g#4 v=0
346316 On ch=4 n=d#5 v=0
347556 Par ch=4 c=64 v=0
347562 Par ch=4 c=64 v=127
348181 Par ch=4 c=64 v=0
348807 Par ch=4 c=64 v=127
349422 Par ch=4 c=64 v=0
349430 Par ch=4 c=64 v=127
350077 Par ch=4 c=64 v=0
350107 Par ch=4 c=64 v=127
351611 On ch=4 n=g#4 v=0
351612 Par ch=4 c=64 v=0
351612 Meta TrkEnd
TrkEnd
