MFile 0 1 480
MTrk
0 Meta SeqName "Fantaisie-impromptu Op.66"
0 SMPTE 96 0 0 0 0
0 TimeSig 4/4 24 8
0 Tempo 499999
0 SysEx f0 7e 7f 09 01 f7
480 SysEx f0 43 10 4c 00 00 7e 00 f7
960 SysEx f0 43 10 4c 02 01 00 03 00 f7
970 SysEx f0 43 10 4c 02 01 04 08 f7
980 SysEx f0 43 10 4c 02 40 00 00 f7
990 SysEx f0 43 10 4c 02 40 01 45 f7
1000 SysEx f0 43 10 4c 02 40 0a 3e f7
1010 SysEx f0 43 10 4c 02 40 11 41 f7
1920 Par ch=1 c=0 v=0
1925 Par ch=1 c=32 v=1
1930 PrCh ch=1 p=0
1935 Par ch=1 c=7 v=115
1940 Par ch=1 c=10 v=64
1945 Par ch=1 c=11 v=127
1950 Par ch=1 c=91 v=58
1955 Par ch=1 c=93 v=0
3840 Tempo 512820
3840 On ch=1 n=g#4 v=79
3840 On ch=1 n=g#3 v=80
4420 Par ch=1 c=64 v=127
6680 On ch=1 n=c#4 v=75
6685 On ch=1 n=c#3 v=75
6735 On ch=1 n=g#3 v=0
6785 On ch=1 n=g#4 v=0
6785 Par ch=1 c=64 v=0
6990 Par ch=1 c=64 v=127
6995 On ch=1 n=c#3 v=0
7100 On ch=1 n=c#4 v=0
7300 On ch=1 n=g#4 v=48
7605 On ch=1 n=c#5 v=51
7830 On ch=1 n=e5 v=62
7855 On ch=1 n=g#4 v=0
7860 On ch=1 n=c#5 v=0
8045 On ch=1 n=c#5 v=46
8080 On ch=1 n=e5 v=0
8175 On ch=1 n=c#5 v=0
8185 On ch=1 n=g#4 v=39
8305 On ch=1 n=g#4 v=0
8320 On ch=1 n=c#4 v=51
8465 On ch=1 n=c#4 v=0
8475 On ch=1 n=g#4 v=42
8605 On ch=1 n=g#4 v=0
8605 On ch=1 n=c#5 v=40
8670 On ch=1 n=c#5 v=0
8715 On ch=1 n=e5 v=46
8800 On ch=1 n=e5 v=0
8825 On ch=1 n=c#5 v=33
8875 On ch=1 n=c#5 v=0
8895 On ch=1 n=g#4 v=41
8955 On ch=1 n=g#4 v=0
9005 On ch=1 n=c#4 v=44
9085 On ch=1 n=c#4 v=0
9110 On ch=1 n=g#4 v=39
9185 On ch=1 n=g#4 v=0
9215 On ch=1 n=c#5 v=36
9265 On ch=1 n=c#5 v=0
9310 On ch=1 n=e5 v=43
9380 On ch=1 n=e5 v=0
9410 On ch=1 n=c#5 v=34
9450 On ch=1 n=c#5 v=0
9480 On ch=1 n=g#4 v=33
9535 On ch=1 n=g#4 v=0
9570 Par ch=1 c=64 v=0
9575 On ch=1 n=c#4 v=46
9620 Par ch=1 c=64 v=127
9675 On ch=1 n=c#4 v=0
9685 On ch=1 n=g#4 v=35
9800 On ch=1 n=g#4 v=0
9810 On ch=1 n=c#5 v=36
9865 On ch=1 n=c#5 v=0
9925 On ch=1 n=e5 v=37
10010 On ch=1 n=e5 v=0
10025 On ch=1 n=c#5 v=33
10090 On ch=1 n=c#5 v=0
10120 On ch=1 n=g#4 v=33
10225 On ch=1 n=g#4 v=0
10275 On ch=1 n=c#4 v=50
10300 Par ch=1 c=64 v=0
10370 On ch=1 n=g#5 v=51
10380 Par ch=1 c=64 v=127
10405 On ch=1 n=c#4 v=0
10415 On ch=1 n=g#5 v=0
10415 On ch=1 n=g#4 v=36
10445 On ch=1 n=a5 v=57
10510 On ch=1 n=a5 v=0
10520 On ch=1 n=g#4 v=0
10530 On ch=1 n=g#5 v=61
10545 On ch=1 n=c#5 v=39
10585 On ch=1 n=g#5 v=0
10595 On ch=1 n=c#5 v=0
10625 On ch=1 n=g5 v=46
10655 On ch=1 n=e5 v=39
10680 On ch=1 n=g#5 v=62
10710 On ch=1 n=g5 v=0
10760 On ch=1 n=e5 v=0
10760 On ch=1 n=c#5 v=32
10795 On ch=1 n=c#6 v=62
10805 On ch=1 n=g#5 v=0
10825 On ch=1 n=c#5 v=0
10835 On ch=1 n=g#4 v=41
10840 On ch=1 n=c#6 v=0
10860 On ch=1 n=e6 v=61
10910 On ch=1 n=g#4 v=0
10950 On ch=1 n=e4 v=39
10950 On ch=1 n=d#6 v=68
10960 Par ch=1 c=64 v=0
10965 On ch=1 n=e6 v=0
11010 Par ch=1 c=64 v=127
11030 On ch=1 n=d#6 v=0
11040 On ch=1 n=c#6 v=68
11065 On ch=1 n=e4 v=0
11075 On ch=1 n=g#4 v=39
11090 On ch=1 n=c#6 v=0
11115 On ch=1 n=d#6 v=67
11185 On ch=1 n=c#5 v=34
11190 On ch=1 n=c#6 v=71
11195 On ch=1 n=d#6 v=0
11195 On ch=1 n=g#4 v=0
11240 On ch=1 n=c#6 v=0
11245 On ch=1 n=c#5 v=0
11270 On ch=1 n=c6 v=61
11295 On ch=1 n=e5 v=37
11340 On ch=1 n=c#6 v=68
11355 On ch=1 n=c6 v=0
11400 On ch=1 n=e5 v=0
11405 On ch=1 n=c#5 v=36
11415 On ch=1 n=e6 v=58
11445 On ch=1 n=c#6 v=0
11475 On ch=1 n=c#5 v=0
11490 On ch=1 n=g#4 v=41
11500 On ch=1 n=g#6 v=67
11505 On ch=1 n=e6 v=0
11540 On ch=1 n=g#6 v=0
11550 On ch=1 n=g#4 v=0
11620 On ch=1 n=c#4 v=57
11640 Par ch=1 c=64 v=0
11690 On ch=1 n=g#5 v=59
11745 On ch=1 n=g#5 v=0
11745 Par ch=1 c=64 v=127
11750 On ch=1 n=c#4 v=0
11750 On ch=1 n=g#4 v=39
11770 On ch=1 n=a5 v=63
11845 On ch=1 n=a5 v=0
11855 On ch=1 n=g#5 v=60
11875 On ch=1 n=g#4 v=0
11880 On ch=1 n=c#5 v=42
11910 On ch=1 n=g#5 v=0
11935 On ch=1 n=c#5 v=0
11950 On ch=1 n=g5 v=48
11985 On ch=1 n=e5 v=40
12010 On ch=1 n=g#5 v=62
12035 On ch=1 n=g5 v=0
12090 On ch=1 n=c#5 v=34
12110 On ch=1 n=e5 v=0
12115 On ch=1 n=c#6 v=59
12130 On ch=1 n=g#5 v=0
12170 On ch=1 n=c#6 v=0
12170 On ch=1 n=c#5 v=0
12170 On ch=1 n=e6 v=67
12190 On ch=1 n=g#4 v=39
12250 On ch=1 n=g#4 v=0
12270 On ch=1 n=d#6 v=67
12280 On ch=1 n=e6 v=0
12285 On ch=1 n=e4 v=40
12300 Par ch=1 c=64 v=0
12345 On ch=1 n=d#6 v=0
12355 On ch=1 n=c#6 v=67
12375 Par ch=1 c=64 v=127
12390 On ch=1 n=e4 v=0
12405 On ch=1 n=c#6 v=0
12405 On ch=1 n=g#4 v=43
12430 On ch=1 n=d#6 v=70
12505 On ch=1 n=c#5 v=34
12515 On ch=1 n=c#6 v=73
12520 On ch=1 n=d#6 v=0
12525 On ch=1 n=g#4 v=0
12565 On ch=1 n=c#6 v=0
12565 On ch=1 n=c#5 v=0
12595 On ch=1 n=c6 v=63
12615 On ch=1 n=e5 v=43
12670 On ch=1 n=c#6 v=73
12710 On ch=1 n=c6 v=0
12715 On ch=1 n=e5 v=0
12715 On ch=1 n=c#5 v=45
12750 On ch=1 n=e6 v=67
12800 On ch=1 n=c#6 v=0
12825 On ch=1 n=c#5 v=0
12825 On ch=1 n=g#4 v=33
12835 On ch=1 n=g#6 v=69
12860 On ch=1 n=e6 v=0
12915 Par ch=1 c=64 v=0
12920 On ch=1 n=g#4 v=0
12920 On ch=1 n=d#4 v=53
12935 On ch=1 n=g#6 v=0
13005 On ch=1 n=a5 v=60
13030 On ch=1 n=a4 v=43
13045 Par ch=1 c=64 v=127
13075 On ch=1 n=d#4 v=0
13090 On ch=1 n=c#6 v=74
13115 On ch=1 n=a5 v=0
13165 On ch=1 n=d#6 v=73
13170 On ch=1 n=c#5 v=46
13180 On ch=1 n=a4 v=0
13190 On ch=1 n=c#6 v=0
13235 On ch=1 n=d#6 v=0
13240 On ch=1 n=c#5 v=0
13250 On ch=1 n=f#6 v=68
13265 On ch=1 n=f#5 v=50
13275 On ch=1 n=f#6 v=0
13325 On ch=1 n=a6 v=74
13370 On ch=1 n=c#5 v=43
13380 On ch=1 n=f#5 v=0
13410 On ch=1 n=a6 v=0
13410 On ch=1 n=c#7 v=81
13445 On ch=1 n=c#5 v=0
13460 On ch=1 n=a4 v=37
13480 On ch=1 n=d#7 v=78
13490 On ch=1 n=c#7 v=0
13520 On ch=1 n=d#7 v=0
13565 On ch=1 n=a4 v=0
13575 On ch=1 n=f#4 v=55
13575 On ch=1 n=b7 v=80
13595 Par ch=1 c=64 v=0
13665 On ch=1 n=a7 v=78
13690 Par ch=1 c=64 v=127
13705 On ch=1 n=b7 v=0
13705 On ch=1 n=c#5 v=51
13715 On ch=1 n=f#4 v=0
13740 On ch=1 n=g#7 v=81
13770 On ch=1 n=a7 v=0
13810 On ch=1 n=d#5 v=49
13810 On ch=1 n=f#7 v=78
13820 On ch=1 n=c#5 v=0
13835 On ch=1 n=g#7 v=0
13875 On ch=1 n=e7 v=77
13880 On ch=1 n=f#7 v=0
13880 On ch=1 n=d#5 v=0
13915 On ch=1 n=a5 v=50
13955 On ch=1 n=d#7 v=78
13960 On ch=1 n=e7 v=0
13990 On ch=1 n=a5 v=0
14015 On ch=1 n=d#5 v=48
14040 On ch=1 n=f#7 v=79
14045 On ch=1 n=d#7 v=0
14055 On ch=1 n=d#5 v=0
14060 On ch=1 n=c#5 v=42
14090 On ch=1 n=c#5 v=0
14115 On ch=1 n=c#7 v=74
14135 On ch=1 n=f#7 v=0
14140 Par ch=1 c=64 v=0
14165 On ch=1 n=c#7 v=0
14180 On ch=1 n=g#3 v=65
14180 On ch=1 n=c7 v=67
14220 On ch=1 n=c7 v=0
14225 Par ch=1 c=64 v=127
14255 On ch=1 n=d#7 v=72
14300 On ch=1 n=d#7 v=0
14300 On ch=1 n=g#3 v=0
14315 On ch=1 n=d#4 v=48
14335 On ch=1 n=a6 v=74
14385 On ch=1 n=a6 v=0
14400 On ch=1 n=f#4 v=42
14410 On ch=1 n=d#4 v=0
14415 On ch=1 n=g#6 v=75
14460 On ch=1 n=f#4 v=0
14495 On ch=1 n=f#6 v=76
14500 On ch=1 n=g#6 v=0
14510 On ch=1 n=c5 v=22
14550 On ch=1 n=a6 v=64
14575 On ch=1 n=f#6 v=0
14590 On ch=1 n=c5 v=0
14595 On ch=1 n=a6 v=0
14605 On ch=1 n=f#4 v=41
14620 On ch=1 n=e6 v=76
14670 On ch=1 n=f#4 v=0
14685 On ch=1 n=e6 v=0
14685 On ch=1 n=d#4 v=41
14705 On ch=1 n=d#6 v=75
14765 On ch=1 n=d#4 v=0
14775 Par ch=1 c=64 v=0
14780 On ch=1 n=f#6 v=75
14790 On ch=1 n=d#6 v=0
14790 On ch=1 n=g#3 v=54
14850 On ch=1 n=c#6 v=65
14870 On ch=1 n=f#6 v=0
14880 Par ch=1 c=64 v=127
14915 On ch=1 n=g#3 v=0
14915 On ch=1 n=d#4 v=46
14925 On ch=1 n=c#6 v=0
14925 On ch=1 n=c6 v=70
14970 On ch=1 n=c6 v=0
14995 On ch=1 n=d#6 v=70
15030 On ch=1 n=d#4 v=0
15030 On ch=1 n=f#4 v=37
15065 On ch=1 n=d#6 v=0
15085 On ch=1 n=f#4 v=0
15085 On ch=1 n=a5 v=64
15120 On ch=1 n=c5 v=27
15165 On ch=1 n=a5 v=0
15170 On ch=1 n=g#5 v=66
15215 On ch=1 n=g#5 v=0
15230 On ch=1 n=f#4 v=36
15240 On ch=1 n=c5 v=0
15240 On ch=1 n=b5 v=64
15335 On ch=1 n=f#4 v=0
15335 On ch=1 n=a5 v=64
15345 On ch=1 n=d#4 v=36
15350 On ch=1 n=b5 v=0
15420 Par ch=1 c=64 v=0
15455 On ch=1 n=d#4 v=0
15480 On ch=1 n=c#4 v=51
15565 On ch=1 n=a5 v=0
15585 On ch=1 n=g#5 v=53
15615 Par ch=1 c=64 v=127
15670 On ch=1 n=g#5 v=0
15685 On ch=1 n=a5 v=57
15690 On ch=1 n=c#4 v=0
15690 On ch=1 n=g#4 v=38
15765 On ch=1 n=a5 v=0
15775 On ch=1 n=g#5 v=51
15790 On ch=1 n=g#4 v=0
15835 On ch=1 n=g#5 v=0
15835 On ch=1 n=c#5 v=37
15870 On ch=1 n=g5 v=46
15880 On ch=1 n=c#5 v=0
15935 On ch=1 n=e5 v=39
15940 On ch=1 n=g#5 v=64
15970 On ch=1 n=g5 v=0
16040 On ch=1 n=c#5 v=31
16050 On ch=1 n=e5 v=0
16055 On ch=1 n=c#6 v=59
16065 On ch=1 n=g#5 v=0
16105 On ch=1 n=c#5 v=0
16110 On ch=1 n=g#4 v=42
16120 On ch=1 n=c#6 v=0
16120 On ch=1 n=e6 v=64
16180 On ch=1 n=g#4 v=0
16210 On ch=1 n=e4 v=41
16220 Par ch=1 c=64 v=0
16225 On ch=1 n=d#6 v=68
16235 On ch=1 n=e6 v=0
16290 Par ch=1 c=64 v=127
16300 On ch=1 n=d#6 v=0
16310 On ch=1 n=c#6 v=65
16335 On ch=1 n=e4 v=0
16345 On ch=1 n=g#4 v=42
16370 On ch=1 n=c#6 v=0
16385 On ch=1 n=d#6 v=67
16420 On ch=1 n=c#5 v=39
16450 On ch=1 n=g#4 v=0
16470 On ch=1 n=d#6 v=0
16475 On ch=1 n=c#6 v=68
16490 On ch=1 n=c#5 v=0
16525 On ch=1 n=c#6 v=0
16540 On ch=1 n=e5 v=39
16540 On ch=1 n=c6 v=65
16610 On ch=1 n=c#6 v=71
16645 On ch=1 n=c#6 v=0
16645 On ch=1 n=c6 v=0
16645 On ch=1 n=e5 v=0
16645 On ch=1 n=c#5 v=39
16665 On ch=1 n=e6 v=68
16720 On ch=1 n=c#5 v=0
16730 On ch=1 n=g#4 v=39
16760 On ch=1 n=g#6 v=74
16765 On ch=1 n=e6 v=0
16780 On ch=1 n=g#4 v=0
16800 On ch=1 n=g#6 v=0
16845 On ch=1 n=c#4 v=62
16880 Par ch=1 c=64 v=0
16940 On ch=1 n=g#5 v=64
16955 On ch=1 n=g#4 v=43
16985 On ch=1 n=g#5 v=0
16985 On ch=1 n=c#4 v=0
16985 Par ch=1 c=64 v=127
17020 On ch=1 n=a#5 v=68
17075 On ch=1 n=a#4 v=39
17090 On ch=1 n=g#5 v=65
17120 On ch=1 n=a#5 v=0
17120 On ch=1 n=g#4 v=0
17140 On ch=1 n=a#4 v=0
17150 On ch=1 n=g#5 v=0
17155 On ch=1 n=e5 v=43
17175 On ch=1 n=g5 v=57
17240 On ch=1 n=g#5 v=66
17255 On ch=1 n=g5 v=0
17285 On ch=1 n=e5 v=0
17285 On ch=1 n=a#4 v=42
17320 On ch=1 n=c#6 v=71
17340 On ch=1 n=g#5 v=0
17350 On ch=1 n=g#4 v=43
17390 On ch=1 n=c#6 v=0
17395 On ch=1 n=e6 v=69
17400 On ch=1 n=a#4 v=0
17450 On ch=1 n=g#4 v=0
17460 Par ch=1 c=64 v=0
17465 On ch=1 n=e4 v=50
17485 On ch=1 n=d#6 v=74
17505 On ch=1 n=e6 v=0
17560 On ch=1 n=d#6 v=0
17565 On ch=1 n=c#6 v=68
17570 Par ch=1 c=64 v=127
17580 On ch=1 n=e4 v=0
17585 On ch=1 n=g#4 v=46
17635 On ch=1 n=c#6 v=0
17645 On ch=1 n=d#6 v=77
17690 On ch=1 n=a#4 v=43
17705 On ch=1 n=g#4 v=0
17725 On ch=1 n=c#6 v=68
17735 On ch=1 n=d#6 v=0
17765 On ch=1 n=a#4 v=0
17770 On ch=1 n=c#6 v=0
17790 On ch=1 n=c#5 v=44
17795 On ch=1 n=c6 v=66
17875 On ch=1 n=c#6 v=80
17890 On ch=1 n=c6 v=0
17910 On ch=1 n=a#4 v=48
17920 On ch=1 n=c#5 v=0
17960 On ch=1 n=e6 v=74
17990 On ch=1 n=c#6 v=0
18000 On ch=1 n=g#4 v=41
18005 On ch=1 n=a#4 v=0
18045 On ch=1 n=g#6 v=75
18060 On ch=1 n=e6 v=0
18100 On ch=1 n=g#4 v=0
18100 Par ch=1 c=64 v=0
18120 On ch=1 n=d#4 v=52
18150 On ch=1 n=d#6 v=76
18225 On ch=1 n=e6 v=77
18230 On ch=1 n=d#6 v=0
18230 On ch=1 n=g#6 v=0
18240 On ch=1 n=g#4 v=47
18265 Par ch=1 c=64 v=127
18295 On ch=1 n=d#4 v=0
18330 On ch=1 n=d#6 v=74
18350 On ch=1 n=e6 v=0
18375 On ch=1 n=b4 v=42
18405 On ch=1 n=d#6 v=0
18410 On ch=1 n=g#4 v=0
18415 On ch=1 n=d6 v=73
18480 On ch=1 n=b4 v=0
18505 On ch=1 n=d#5 v=44
18520 On ch=1 n=d#6 v=77
18570 On ch=1 n=d6 v=0
18605 On ch=1 n=d#5 v=0
18625 On ch=1 n=b4 v=38
18630 On ch=1 n=b6 v=83
18645 On ch=1 n=d#6 v=0
18720 On ch=1 n=a#6 v=80
18730 On ch=1 n=g#4 v=47
18735 On ch=1 n=b4 v=0
18795 On ch=1 n=b6 v=0
18815 On ch=1 n=g#6 v=78
18900 On ch=1 n=g#4 v=0
18900 On ch=1 n=a#6 v=0
18905 On ch=1 n=d#4 v=45
18940 On ch=1 n=g6 v=80
18950 Par ch=1 c=64 v=0
18960 On ch=1 n=g#6 v=0
19065 Par ch=1 c=64 v=127
19075 On ch=1 n=e7 v=77
19115 On ch=1 n=a#4 v=37
19150 On ch=1 n=g6 v=0
19150 On ch=1 n=d#4 v=0
19170 On ch=1 n=d#7 v=70
19210 On ch=1 n=e7 v=0
19245 On ch=1 n=c#7 v=75
19245 On ch=1 n=c#5 v=45
19260 On ch=1 n=a#4 v=0
19295 On ch=1 n=d#7 v=0
19335 On ch=1 n=c#5 v=0
19335 On ch=1 n=c#7 v=0
19335 On ch=1 n=b6 v=81
19355 On ch=1 n=g5 v=45
19395 On ch=1 n=b6 v=0
19420 On ch=1 n=a#6 v=83
19435 On ch=1 n=g5 v=0
19465 On ch=1 n=c#5 v=43
19495 On ch=1 n=g#6 v=78
19510 On ch=1 n=c#5 v=0
19515 On ch=1 n=a#4 v=44
19520 On ch=1 n=a#6 v=0
19555 On ch=1 n=a#4 v=0
19565 On ch=1 n=g6 v=76
19575 On ch=1 n=g#6 v=0
19630 Par ch=1 c=64 v=0
19645 On ch=1 n=g#3 v=57
19645 On ch=1 n=a#6 v=80
19660 On ch=1 n=g6 v=0
19730 On ch=1 n=g#6 v=75
19740 Par ch=1 c=64 v=127
19750 On ch=1 n=g#3 v=0
19755 On ch=1 n=a#6 v=0
19765 On ch=1 n=d#4 v=48
19805 On ch=1 n=b6 v=81
19810 On ch=1 n=g#6 v=0
19860 On ch=1 n=b6 v=0
19870 On ch=1 n=d#4 v=0
19870 On ch=1 n=g#4 v=49
19870 On ch=1 n=d6 v=70
19915 On ch=1 n=g#4 v=0
19940 On ch=1 n=b4 v=37
19950 On ch=1 n=e6 v=76
19960 On ch=1 n=d6 v=0
20030 On ch=1 n=d#6 v=71
20035 On ch=1 n=e6 v=0
20035 On ch=1 n=b4 v=0
20045 On ch=1 n=g#4 v=38
20105 On ch=1 n=g#4 v=0
20110 On ch=1 n=g#6 v=74
20115 On ch=1 n=d#4 v=42
20120 On ch=1 n=d#6 v=0
20190 On ch=1 n=a#5 v=70
20200 On ch=1 n=g#6 v=0
20210 On ch=1 n=d#4 v=0
20210 Par ch=1 c=64 v=0
20230 On ch=1 n=g#3 v=51
20280 On ch=1 n=c#6 v=73
20295 On ch=1 n=a#5 v=0
20315 Par ch=1 c=64 v=127
20375 On ch=1 n=b5 v=73
20375 On ch=1 n=d#4 v=47
20380 On ch=1 n=g#3 v=0
20415 On ch=1 n=c#6 v=0
20470 On ch=1 n=d#6 v=73
20500 On ch=1 n=b5 v=0
20500 On ch=1 n=g#4 v=46
20515 On ch=1 n=d#4 v=0
20570 On ch=1 n=g5 v=59
20590 On ch=1 n=d#6 v=0
20595 On ch=1 n=g#4 v=0
20635 On ch=1 n=b4 v=38
20660 On ch=1 n=a#5 v=71
20675 On ch=1 n=g5 v=0
20760 On ch=1 n=g#5 v=65
20775 On ch=1 n=g#4 v=39
20810 On ch=1 n=b4 v=0
20815 On ch=1 n=a#5 v=0
20850 On ch=1 n=g#5 v=0
20855 On ch=1 n=g5 v=58
20880 On ch=1 n=g#4 v=0
20895 On ch=1 n=d#4 v=42
20960 On ch=1 n=g5 v=0
20960 On ch=1 n=g#5 v=71
20980 On ch=1 n=d#4 v=0
21055 On ch=1 n=g#5 v=0
21075 On ch=1 n=a3 v=46
21185 On ch=1 n=g#5 v=70
21260 Par ch=1 c=64 v=0
21340 On ch=1 n=g#6 v=62
21410 On ch=1 n=c#4 v=35
21430 Par ch=1 c=64 v=127
21460 On ch=1 n=g#6 v=0
21485 On ch=1 n=c6 v=62
21530 On ch=1 n=a3 v=0
21540 On ch=1 n=g#5 v=0
21560 On ch=1 n=f#4 v=35
21575 On ch=1 n=c#6 v=71
21625 On ch=1 n=c#4 v=0
21680 On ch=1 n=f#4 v=0
21680 On ch=1 n=f#5 v=69
21705 On ch=1 n=c6 v=0
21705 On ch=1 n=a4 v=26
21740 On ch=1 n=c#6 v=0
21785 On ch=1 n=f#6 v=75
21845 On ch=1 n=f#5 v=0
21845 On ch=1 n=f#4 v=45
21875 On ch=1 n=c6 v=65
21885 On ch=1 n=a4 v=0
21915 On ch=1 n=f#6 v=0
21920 On ch=1 n=c#4 v=48
21930 On ch=1 n=c#6 v=69
21945 On ch=1 n=f#4 v=0
22020 On ch=1 n=c#4 v=0
22035 On ch=1 n=c6 v=0
22035 On ch=1 n=f5 v=72
22045 On ch=1 n=a3 v=55
22065 Par ch=1 c=64 v=0
22085 On ch=1 n=c#6 v=0
22125 On ch=1 n=f6 v=75
22170 Par ch=1 c=64 v=127
22185 On ch=1 n=c#4 v=54
22205 On ch=1 n=f5 v=0
22220 On ch=1 n=c6 v=72
22245 On ch=1 n=a3 v=0
22260 On ch=1 n=f6 v=0
22280 On ch=1 n=f#4 v=43
22290 On ch=1 n=c#6 v=66
22300 On ch=1 n=c#4 v=0
22345 On ch=1 n=f#4 v=0
22355 On ch=1 n=a4 v=46
22355 On ch=1 n=f#5 v=76
22365 On ch=1 n=c6 v=0
22410 On ch=1 n=c#6 v=0
22440 On ch=1 n=f#6 v=80
22470 On ch=1 n=f#4 v=51
22490 On ch=1 n=f#5 v=0
22490 On ch=1 n=a4 v=0
22520 On ch=1 n=c6 v=70
22545 On ch=1 n=c#4 v=45
22555 On ch=1 n=f#6 v=0
22560 On ch=1 n=c#6 v=75
22585 On ch=1 n=c6 v=0
22590 On ch=1 n=f#4 v=0
22625 On ch=1 n=c#4 v=0
22635 On ch=1 n=c#6 v=0
22665 On ch=1 n=b3 v=63
22685 Par ch=1 c=64 v=0
22690 On ch=1 n=c#5 v=67
22765 On ch=1 n=c#6 v=80
22770 Par ch=1 c=64 v=127
22785 On ch=1 n=b3 v=0
22800 On ch=1 n=f#4 v=54
22835 On ch=1 n=c#5 v=0
22845 On ch=1 n=f#5 v=62
22895 On ch=1 n=c#6 v=0
22895 On ch=1 n=a4 v=48
22910 On ch=1 n=f#4 v=0
22930 On ch=1 n=a5 v=57
22950 On ch=1 n=a4 v=0
22955 On ch=1 n=f#5 v=0
22985 On ch=1 n=d#5 v=70
22985 On ch=1 n=b4 v=48
23040 On ch=1 n=a5 v=0
23070 On ch=1 n=d#6 v=76
23090 On ch=1 n=a4 v=46
23095 On ch=1 n=b4 v=0
23100 On ch=1 n=d#5 v=0
23160 On ch=1 n=f#4 v=59
23165 On ch=1 n=a4 v=0
23170 On ch=1 n=f#5 v=65
23200 On ch=1 n=a5 v=61
23205 On ch=1 n=f#4 v=0
23205 On ch=1 n=d#6 v=0
23260 On ch=1 n=f#5 v=0
23285 On ch=1 n=a5 v=0
23305 On ch=1 n=e5 v=77
23320 On ch=1 n=e3 v=71
23340 Par ch=1 c=64 v=0
23410 On ch=1 n=e3 v=0
23410 On ch=1 n=e6 v=77
23425 Par ch=1 c=64 v=127
23455 On ch=1 n=b3 v=53
23495 On ch=1 n=e5 v=0
23510 On ch=1 n=g#5 v=68
23565 On ch=1 n=e6 v=0
23575 On ch=1 n=e4 v=48
23580 On ch=1 n=b5 v=75
23590 On ch=1 n=g#5 v=0
23590 On ch=1 n=b3 v=0
23625 On ch=1 n=b5 v=0
23675 On ch=1 n=e4 v=0
23695 On ch=1 n=g#4 v=54
23700 On ch=1 n=g#5 v=83
23775 On ch=1 n=g#6 v=73
23790 On ch=1 n=g#4 v=0
23800 On ch=1 n=g#5 v=0
23815 On ch=1 n=e4 v=41
23900 On ch=1 n=b5 v=62
23915 On ch=1 n=b3 v=47
23920 On ch=1 n=e4 v=0
23935 On ch=1 n=g#6 v=0
23960 On ch=1 n=e6 v=66
24035 On ch=1 n=b5 v=0
24050 On ch=1 n=b3 v=0
24065 On ch=1 n=a3 v=54
24100 On ch=1 n=g#5 v=76
24120 Par ch=1 c=64 v=0
24210 On ch=1 n=g#6 v=73
24225 Par ch=1 c=64 v=127
24280 On ch=1 n=c#4 v=43
24295 On ch=1 n=e6 v=0
24315 On ch=1 n=a3 v=0
24330 On ch=1 n=g#6 v=0
24330 On ch=1 n=c6 v=63
24350 On ch=1 n=g#5 v=0
24380 On ch=1 n=f#4 v=38
24395 On ch=1 n=c#4 v=0
24415 On ch=1 n=c#6 v=72
24485 On ch=1 n=f#4 v=0
24490 On ch=1 n=a4 v=33
24490 On ch=1 n=f#5 v=71
24515 On ch=1 n=c6 v=0
24545 On ch=1 n=c#6 v=0
24575 On ch=1 n=f#6 v=76
24595 On ch=1 n=f#5 v=0
24620 On ch=1 n=f#4 v=49
24630 On ch=1 n=a4 v=0
24660 On ch=1 n=c6 v=68
24695 On ch=1 n=f#6 v=0
24695 On ch=1 n=c#4 v=52
24705 On ch=1 n=f#4 v=0
24705 On ch=1 n=c#6 v=75
24770 On ch=1 n=c#4 v=0
24780 On ch=1 n=c6 v=0
24800 On ch=1 n=f5 v=75
24800 On ch=1 n=a3 v=59
24830 Par ch=1 c=64 v=0
24845 On ch=1 n=c#6 v=0
24880 On ch=1 n=f6 v=77
24915 Par ch=1 c=64 v=127
24920 On ch=1 n=c#4 v=58
24950 On ch=1 n=c6 v=66
24955 On ch=1 n=a3 v=0
24960 On ch=1 n=f5 v=0
25015 On ch=1 n=f6 v=0
25025 On ch=1 n=f#4 v=49
25030 On ch=1 n=c#6 v=75
25055 On ch=1 n=c#4 v=0
25090 On ch=1 n=f#4 v=0
25100 On ch=1 n=f#5 v=77
25100 On ch=1 n=a4 v=42
25115 On ch=1 n=c6 v=0
25150 On ch=1 n=c#6 v=0
25180 On ch=1 n=f#6 v=83
25215 On ch=1 n=f#4 v=52
25235 On ch=1 n=f#5 v=0
25240 On ch=1 n=a4 v=0
25260 On ch=1 n=c6 v=68
25280 On ch=1 n=c#4 v=48
25310 On ch=1 n=c#6 v=76
25315 On ch=1 n=f#6 v=0
25345 On ch=1 n=f#4 v=0
25390 On ch=1 n=c#4 v=0
25400 On ch=1 n=c6 v=0
25400 On ch=1 n=b3 v=66
25400 On ch=1 n=f5 v=78
25420 Par ch=1 c=64 v=0
25450 On ch=1 n=c#6 v=0
25505 On ch=1 n=f6 v=77
25520 Par ch=1 c=64 v=127
25525 On ch=1 n=b3 v=0
25535 On ch=1 n=f#4 v=57
25555 On ch=1 n=b5 v=74
25580 On ch=1 n=f5 v=0
25630 On ch=1 n=f6 v=0
25630 On ch=1 n=a4 v=51
25640 On ch=1 n=d#6 v=75
25650 On ch=1 n=f#4 v=0
25680 On ch=1 n=b5 v=0
25710 On ch=1 n=a4 v=0
25725 On ch=1 n=b4 v=50
25725 On ch=1 n=f#5 v=81
25770 On ch=1 n=d#6 v=0
25825 On ch=1 n=f#6 v=86
25840 On ch=1 n=a4 v=54
25845 On ch=1 n=b4 v=0
25855 On ch=1 n=f#5 v=0
25885 On ch=1 n=b5 v=64
25910 On ch=1 n=a4 v=0
25910 On ch=1 n=f#4 v=64
25950 On ch=1 n=f#4 v=0
25950 On ch=1 n=d#6 v=75
25965 On ch=1 n=f#6 v=0
26000 On ch=1 n=b5 v=0
26050 On ch=1 n=d#6 v=0
26055 On ch=1 n=e3 v=76
26065 Par ch=1 c=64 v=0
26070 On ch=1 n=a5 v=82
26160 On ch=1 n=e3 v=0
26160 Par ch=1 c=64 v=127
26175 On ch=1 n=a6 v=82
26190 On ch=1 n=b3 v=64
26230 On ch=1 n=a6 v=0
26285 On ch=1 n=a5 v=0
26310 On ch=1 n=b5 v=75
26325 On ch=1 n=e4 v=52
26335 On ch=1 n=b3 v=0
26380 On ch=1 n=e6 v=74
26395 On ch=1 n=b5 v=0
26445 On ch=1 n=e4 v=0
26450 On ch=1 n=g#4 v=46
26475 On ch=1 n=e6 v=0
26490 On ch=1 n=g#5 v=82
26535 On ch=1 n=g#4 v=0
26570 On ch=1 n=g#6 v=74
26570 On ch=1 n=e4 v=44
26605 On ch=1 n=g#5 v=0
26680 On ch=1 n=b3 v=44
26685 On ch=1 n=e4 v=0
26685 On ch=1 n=g#6 v=0
26685 On ch=1 n=b5 v=71
26790 On ch=1 n=e6 v=67
26880 On ch=1 n=a3 v=46
26890 On ch=1 n=b5 v=0
26890 On ch=1 n=b3 v=0
26950 Par ch=1 c=64 v=0
26980 On ch=1 n=g#5 v=60
27135 On ch=1 n=g#6 v=71
27160 On ch=1 n=c#4 v=30
27225 Par ch=1 c=64 v=127
27260 On ch=1 n=e6 v=0
27310 On ch=1 n=a3 v=0
27340 On ch=1 n=g#6 v=0
27340 On ch=1 n=c6 v=53
27340 On ch=1 n=f#4 v=32
27375 On ch=1 n=c#4 v=0
27395 On ch=1 n=g#5 v=0
27435 On ch=1 n=f#4 v=0
27450 On ch=1 n=c#6 v=52
27490 On ch=1 n=a4 v=21
27535 On ch=1 n=f#5 v=50
27555 On ch=1 n=c6 v=0
27590 On ch=1 n=c#6 v=0
27610 On ch=1 n=f#6 v=69
27610 On ch=1 n=f#4 v=33
27655 On ch=1 n=f#5 v=0
27660 On ch=1 n=a4 v=0
27710 On ch=1 n=f#4 v=0
27720 On ch=1 n=c#4 v=42
27720 On ch=1 n=c6 v=52
27755 On ch=1 n=f#6 v=0
27775 On ch=1 n=c#6 v=59
27800 On ch=1 n=c#4 v=0
27830 On ch=1 n=c6 v=0
27860 Par ch=1 c=64 v=0
27865 On ch=1 n=a3 v=40
27875 On ch=1 n=f5 v=55
27900 On ch=1 n=c#6 v=0
27940 Par ch=1 c=64 v=127
27945 On ch=1 n=f6 v=67
27970 On ch=1 n=f5 v=0
27990 On ch=1 n=c#4 v=41
27995 On ch=1 n=a3 v=0
28025 On ch=1 n=c6 v=56
28060 On ch=1 n=f6 v=0
28100 On ch=1 n=c#4 v=0
28100 On ch=1 n=f#4 v=32
28100 On ch=1 n=c#6 v=58
28150 On ch=1 n=f#4 v=0
28150 On ch=1 n=c6 v=0
28160 On ch=1 n=f#5 v=56
28175 On ch=1 n=a4 v=32
28205 On ch=1 n=c#6 v=0
28235 On ch=1 n=f#6 v=74
28280 On ch=1 n=f#5 v=0
28285 On ch=1 n=f#4 v=40
28310 On ch=1 n=a4 v=0
28325 On ch=1 n=c6 v=59
28340 On ch=1 n=c#4 v=39
28350 On ch=1 n=f#6 v=0
28355 On ch=1 n=c#6 v=65
28370 On ch=1 n=c6 v=0
28375 On ch=1 n=f#4 v=0
28410 On ch=1 n=c#6 v=0
28420 On ch=1 n=c#4 v=0
28455 Par ch=1 c=64 v=0
28460 On ch=1 n=b3 v=50
28505 On ch=1 n=c#5 v=46
28550 On ch=1 n=c#6 v=75
28555 On ch=1 n=b3 v=0
28560 Par ch=1 c=64 v=127
28580 On ch=1 n=c#5 v=0
28600 On ch=1 n=f#4 v=45
28635 On ch=1 n=f#5 v=52
28680 On ch=1 n=f#4 v=0
28685 On ch=1 n=a5 v=49
28690 On ch=1 n=c#6 v=0
28690 On ch=1 n=a4 v=37
28720 On ch=1 n=f#5 v=0
28740 On ch=1 n=a4 v=0
28765 On ch=1 n=d#5 v=50
28780 On ch=1 n=b4 v=37
28825 On ch=1 n=d#5 v=0
28845 On ch=1 n=d#6 v=73
28850 On ch=1 n=a5 v=0
28880 On ch=1 n=b4 v=0
28880 On ch=1 n=a4 v=37
28910 On ch=1 n=f#5 v=49
28925 On ch=1 n=a4 v=0
28935 On ch=1 n=f#4 v=52
28955 On ch=1 n=d#6 v=0
28970 On ch=1 n=f#4 v=0
28970 On ch=1 n=a5 v=56
28990 On ch=1 n=f#5 v=0
29030 On ch=1 n=a5 v=0
29045 Par ch=1 c=64 v=0
29060 On ch=1 n=e5 v=58
29090 On ch=1 n=e3 v=62
29135 On ch=1 n=e6 v=72
29160 On ch=1 n=e5 v=0
29165 Par ch=1 c=64 v=127
29170 On ch=1 n=e3 v=0
29210 On ch=1 n=b3 v=56
29225 On ch=1 n=g#5 v=59
29295 On ch=1 n=g#5 v=0
29295 On ch=1 n=e6 v=0
29295 On ch=1 n=b5 v=67
29325 On ch=1 n=e4 v=46
29330 On ch=1 n=b3 v=0
29340 On ch=1 n=b5 v=0
29390 On ch=1 n=e4 v=0
29415 On ch=1 n=g#5 v=71
29440 On ch=1 n=g#4 v=42
29485 On ch=1 n=g#6 v=79
29490 On ch=1 n=g#5 v=0
29505 On ch=1 n=g#4 v=0
29520 On ch=1 n=e4 v=44
29600 On ch=1 n=b5 v=49
29610 On ch=1 n=e4 v=0
29610 On ch=1 n=b3 v=38
29625 On ch=1 n=g#6 v=0
29625 On ch=1 n=e6 v=64
29670 On ch=1 n=b3 v=0
29685 Par ch=1 c=64 v=0
29695 On ch=1 n=b5 v=0
29700 On ch=1 n=a3 v=53
29720 On ch=1 n=g#5 v=66
29770 On ch=1 n=g#6 v=75
29775 Par ch=1 c=64 v=127
29800 On ch=1 n=g#5 v=0
29820 On ch=1 n=a3 v=0
29830 On ch=1 n=c#4 v=51
29835 On ch=1 n=e6 v=0
29880 On ch=1 n=c6 v=69
29890 On ch=1 n=g#6 v=0
29930 On ch=1 n=c#4 v=0
29930 On ch=1 n=f#4 v=36
29970 On ch=1 n=c#6 v=67
29985 On ch=1 n=f#4 v=0
29995 On ch=1 n=a4 v=38
30000 On ch=1 n=c6 v=0
30025 On ch=1 n=f#5 v=65
30060 On ch=1 n=c#6 v=0
30105 On ch=1 n=f#6 v=83
30115 On ch=1 n=f#4 v=49
30135 On ch=1 n=f#5 v=0
30135 On ch=1 n=a4 v=0
30175 On ch=1 n=c6 v=62
30195 On ch=1 n=c#4 v=48
30220 On ch=1 n=f#4 v=0
30255 On ch=1 n=c#6 v=75
30270 On ch=1 n=c6 v=0
30280 On ch=1 n=f#6 v=0
30295 On ch=1 n=c#6 v=0
30315 On ch=1 n=c#4 v=0
30350 On ch=1 n=a3 v=44
30420 On ch=1 n=d#6 v=67
30480 Par ch=1 c=64 v=0
30540 On ch=1 n=d#7 v=74
30620 On ch=1 n=d#4 v=32
30640 Par ch=1 c=64 v=127
30735 On ch=1 n=f#6 v=57
30760 On ch=1 n=a3 v=0
30770 On ch=1 n=f#4 v=33
30780 On ch=1 n=d#6 v=0
30805 On ch=1 n=d#7 v=0
30850 On ch=1 n=d#4 v=0
30850 On ch=1 n=a6 v=49
30890 On ch=1 n=f#4 v=0
30900 On ch=1 n=a4 v=26
30910 On ch=1 n=f#6 v=0
30930 On ch=1 n=c#6 v=64
31030 On ch=1 n=c#7 v=75
31045 On ch=1 n=a4 v=0
31045 On ch=1 n=a6 v=0
31060 On ch=1 n=f#4 v=39
31120 On ch=1 n=f#6 v=58
31135 On ch=1 n=f#4 v=0
31150 On ch=1 n=c#6 v=0
31165 On ch=1 n=d#4 v=36
31225 On ch=1 n=a6 v=53
31255 On ch=1 n=f#6 v=0
31270 On ch=1 n=d#4 v=0
31270 On ch=1 n=c#7 v=0
31300 On ch=1 n=g#3 v=48
31320 On ch=1 n=c#6 v=65
31345 On ch=1 n=a6 v=0
31345 Par ch=1 c=64 v=0
31420 On ch=1 n=c#7 v=76
31500 Par ch=1 c=64 v=127
31510 On ch=1 n=d#4 v=29
31545 On ch=1 n=g#3 v=0
31600 On ch=1 n=c#6 v=0
31615 On ch=1 n=d#6 v=54
31650 On ch=1 n=c#7 v=0
31690 On ch=1 n=f#4 v=31
31740 On ch=1 n=d#4 v=0
31740 On ch=1 n=f#6 v=53
31755 On ch=1 n=d#6 v=0
31785 On ch=1 n=f#4 v=0
31810 On ch=1 n=c5 v=24
31845 On ch=1 n=c6 v=60
31850 On ch=1 n=f#6 v=0
31945 On ch=1 n=c7 v=71
31955 On ch=1 n=c5 v=0
31970 On ch=1 n=f#4 v=32
32015 On ch=1 n=c6 v=0
32060 On ch=1 n=f#4 v=0
32060 On ch=1 n=d#6 v=58
32080 On ch=1 n=d#4 v=35
32130 On ch=1 n=c7 v=0
32150 On ch=1 n=f#6 v=59
32165 On ch=1 n=d#4 v=0
32165 On ch=1 n=d#6 v=0
32205 On ch=1 n=g#3 v=49
32215 Par ch=1 c=64 v=0
32225 On ch=1 n=c6 v=60
32230 On ch=1 n=f#6 v=0
32275 Par ch=1 c=64 v=127
32310 On ch=1 n=c7 v=72
32345 On ch=1 n=d#4 v=40
32370 On ch=1 n=c6 v=0
32375 On ch=1 n=g#3 v=0
32425 On ch=1 n=d#6 v=67
32475 On ch=1 n=c7 v=0
32475 On ch=1 n=f#4 v=38
32500 On ch=1 n=f#6 v=64
32510 On ch=1 n=d#4 v=0
32520 On ch=1 n=d#6 v=0
32550 On ch=1 n=f#4 v=0
32565 On ch=1 n=c5 v=31
32570 On ch=1 n=c6 v=67
32575 On ch=1 n=f#6 v=0
32645 On ch=1 n=c7 v=81
32665 On ch=1 n=c5 v=0
32690 On ch=1 n=f#4 v=51
32710 On ch=1 n=c6 v=0
32760 On ch=1 n=d#6 v=67
32765 On ch=1 n=d#4 v=47
32785 On ch=1 n=f#4 v=0
32830 On ch=1 n=f#6 v=66
32855 On ch=1 n=c7 v=0
32870 On ch=1 n=d#6 v=0
32885 On ch=1 n=a3 v=57
32890 On ch=1 n=d#4 v=0
32900 On ch=1 n=c6 v=74
32920 Par ch=1 c=64 v=0
32930 On ch=1 n=f#6 v=0
32990 On ch=1 n=c7 v=86
33035 Par ch=1 c=64 v=127
33050 On ch=1 n=d#4 v=51
33090 On ch=1 n=a3 v=0
33110 On ch=1 n=d#6 v=69
33125 On ch=1 n=c6 v=0
33150 On ch=1 n=f#4 v=48
33160 On ch=1 n=c7 v=0
33175 On ch=1 n=f#6 v=69
33200 On ch=1 n=d#4 v=0
33230 On ch=1 n=f#4 v=0
33240 On ch=1 n=d#6 v=0
33240 On ch=1 n=b4 v=37
33240 On ch=1 n=b5 v=74
33310 On ch=1 n=f#6 v=0
33320 On ch=1 n=b6 v=88
33345 On ch=1 n=b4 v=0
33345 On ch=1 n=f#4 v=51
33410 On ch=1 n=d#6 v=71
33420 On ch=1 n=b5 v=0
33420 On ch=1 n=d#4 v=45
33440 On ch=1 n=f#4 v=0
33465 On ch=1 n=f#6 v=76
33485 On ch=1 n=b6 v=0
33515 On ch=1 n=d#4 v=0
33530 On ch=1 n=a#3 v=59
33540 On ch=1 n=d#6 v=0
33555 On ch=1 n=b5 v=75
33570 Par ch=1 c=64 v=0
33590 On ch=1 n=f#6 v=0
33620 On ch=1 n=b6 v=91
33640 On ch=1 n=d#4 v=51
33685 On ch=1 n=b5 v=0
33690 Par ch=1 c=64 v=127
33730 On ch=1 n=d#6 v=66
33740 On ch=1 n=f#4 v=48
33760 On ch=1 n=f#6 v=74
33770 On ch=1 n=b6 v=0
33785 On ch=1 n=a#3 v=0
33820 On ch=1 n=d#6 v=0
33825 On ch=1 n=d#4 v=0
33840 On ch=1 n=f#4 v=0
33840 On ch=1 n=a#4 v=42
33860 On ch=1 n=a#5 v=75
33930 On ch=1 n=f#6 v=0
33940 On ch=1 n=a#6 v=89
33960 On ch=1 n=a#4 v=0
33960 On ch=1 n=f#4 v=49
33980 On ch=1 n=a#5 v=0
33990 On ch=1 n=d#6 v=63
34035 On ch=1 n=d#4 v=46
34055 On ch=1 n=f#4 v=0
34075 On ch=1 n=f#6 v=77
34095 On ch=1 n=a#6 v=0
34125 On ch=1 n=d#6 v=0
34140 On ch=1 n=d#4 v=0
34140 On ch=1 n=a#5 v=75
34150 On ch=1 n=c4 v=61
34170 Par ch=1 c=64 v=0
34215 On ch=1 n=f#6 v=0
34230 On ch=1 n=a#6 v=86
34260 On ch=1 n=d#4 v=47
34285 Par ch=1 c=64 v=127
34300 On ch=1 n=a#5 v=0
34325 On ch=1 n=d#6 v=67
34360 On ch=1 n=f#4 v=51
34370 On ch=1 n=f#6 v=77
34390 On ch=1 n=a#6 v=0
34400 On ch=1 n=d#4 v=0
34420 On ch=1 n=d#6 v=0
34435 On ch=1 n=f#4 v=0
34465 On ch=1 n=a4 v=42
34465 On ch=1 n=a5 v=68
34525 On ch=1 n=f#6 v=0
34540 On ch=1 n=a6 v=81
34570 On ch=1 n=f#4 v=48
34580 On ch=1 n=a4 v=0
34600 On ch=1 n=c4 v=0
34640 On ch=1 n=d#6 v=67
34670 On ch=1 n=d#4 v=50
34675 On ch=1 n=f#4 v=0
34700 On ch=1 n=a5 v=0
34705 On ch=1 n=f#6 v=73
34740 On ch=1 n=d#4 v=0
34745 On ch=1 n=a6 v=0
34750 On ch=1 n=d#6 v=0
34795 Par ch=1 c=64 v=0
34800 On ch=1 n=a5 v=65
34800 On ch=1 n=c4 v=51
34835 On ch=1 n=f#6 v=0
34885 On ch=1 n=a6 v=78
34890 On ch=1 n=d#4 v=46
34930 Par ch=1 c=64 v=127
34940 On ch=1 n=a5 v=0
34970 On ch=1 n=d#6 v=61
35005 On ch=1 n=f#4 v=50
35020 On ch=1 n=a6 v=0
35035 On ch=1 n=d#6 v=0
35035 On ch=1 n=d#4 v=0
35035 On ch=1 n=f#6 v=69
35080 On ch=1 n=f#4 v=0
35115 On ch=1 n=a4 v=37
35130 On ch=1 n=a5 v=62
35155 On ch=1 n=f#6 v=0
35170 On ch=1 n=c4 v=0
35215 On ch=1 n=a6 v=65
35235 On ch=1 n=a4 v=0
35240 On ch=1 n=f#4 v=45
35275 On ch=1 n=a5 v=0
35310 On ch=1 n=d#6 v=61
35350 On ch=1 n=f#4 v=0
35350 On ch=1 n=d#4 v=36
35395 On ch=1 n=f#6 v=65
35410 On ch=1 n=d#6 v=0
35420 On ch=1 n=a6 v=0
35455 On ch=1 n=d#4 v=0
35485 On ch=1 n=f#6 v=0
35510 Par ch=1 c=64 v=0
35520 On ch=1 n=a3 v=41
35530 On ch=1 n=c6 v=62
35545 Par ch=1 c=67 v=127
35635 On ch=1 n=c7 v=70
35695 Par ch=1 c=64 v=127
35700 On ch=1 n=d#4 v=31
35780 On ch=1 n=a3 v=0
35785 On ch=1 n=d#6 v=56
35810 On ch=1 n=c7 v=0
35810 On ch=1 n=c6 v=0
35810 On ch=1 n=f#4 v=33
35875 On ch=1 n=f#6 v=55
35900 On ch=1 n=f#4 v=0
35905 On ch=1 n=d#4 v=0
35935 On ch=1 n=b4 v=29
35945 On ch=1 n=d#6 v=0
35970 On ch=1 n=b5 v=56
35990 On ch=1 n=f#6 v=0
36035 On ch=1 n=b6 v=75
36045 On ch=1 n=b4 v=0
36060 On ch=1 n=f#4 v=39
36090 On ch=1 n=b5 v=0
36140 On ch=1 n=d#6 v=58
36145 On ch=1 n=f#4 v=0
36165 On ch=1 n=d#4 v=36
36205 On ch=1 n=b6 v=0
36215 On ch=1 n=f#6 v=66
36225 On ch=1 n=d#6 v=0
36235 On ch=1 n=d#4 v=0
36285 Par ch=1 c=64 v=0
36290 On ch=1 n=a#3 v=45
36295 On ch=1 n=b5 v=62
36305 On ch=1 n=f#6 v=0
36375 On ch=1 n=b6 v=76
36405 On ch=1 n=d#4 v=32
36430 On ch=1 n=b5 v=0
36440 Par ch=1 c=64 v=127
36480 On ch=1 n=d#6 v=60
36500 On ch=1 n=b6 v=0
36510 On ch=1 n=f#4 v=38
36515 On ch=1 n=a#3 v=0
36545 On ch=1 n=d#6 v=0
36545 On ch=1 n=f#6 v=66
36605 On ch=1 n=f#4 v=0
36605 On ch=1 n=d#4 v=0
36635 On ch=1 n=a#5 v=62
36635 On ch=1 n=a#4 v=34
36640 On ch=1 n=f#6 v=0
36705 On ch=1 n=a#6 v=74
36720 On ch=1 n=a#4 v=0
36730 On ch=1 n=a#5 v=0
36765 On ch=1 n=f#4 v=36
36795 On ch=1 n=d#6 v=60
36820 On ch=1 n=f#4 v=0
36820 On ch=1 n=a#6 v=0
36835 On ch=1 n=d#4 v=40
36870 On ch=1 n=f#6 v=62
36890 On ch=1 n=d#6 v=0
36915 On ch=1 n=d#4 v=0
36925 Par ch=1 c=64 v=0
36950 On ch=1 n=f#6 v=0
36950 On ch=1 n=b3 v=46
36960 On ch=1 n=a#5 v=62
37035 On ch=1 n=a#6 v=69
37070 On ch=1 n=a#5 v=0
37070 On ch=1 n=d#4 v=37
37080 Par ch=1 c=64 v=127
37130 On ch=1 n=d#6 v=61
37170 On ch=1 n=a#6 v=0
37180 On ch=1 n=f#4 v=35
37190 On ch=1 n=f#6 v=57
37200 On ch=1 n=d#6 v=0
37200 On ch=1 n=d#4 v=0
37245 On ch=1 n=f#4 v=0
37290 On ch=1 n=a5 v=59
37295 On ch=1 n=a4 v=29
37310 On ch=1 n=f#6 v=0
37335 On ch=1 n=b3 v=0
37380 On ch=1 n=a6 v=65
37410 On ch=1 n=a4 v=0
37410 On ch=1 n=f#4 v=34
37420 On ch=1 n=a5 v=0
37495 On ch=1 n=d#6 v=58
37525 On ch=1 n=f#4 v=0
37525 On ch=1 n=d#4 v=33
37530 On ch=1 n=a6 v=0
37575 On ch=1 n=f#6 v=59
37590 On ch=1 n=d#6 v=0
37625 Par ch=1 c=64 v=0
37650 On ch=1 n=d#4 v=0
37665 On ch=1 n=a5 v=48
37680 On ch=1 n=c4 v=36
37690 On ch=1 n=f#6 v=0
37755 On ch=1 n=a6 v=53
37815 Par ch=1 c=64 v=127
37830 On ch=1 n=d#4 v=35
37905 On ch=1 n=d#6 v=52
37930 On ch=1 n=a5 v=0
37975 On ch=1 n=f#4 v=30
37980 On ch=1 n=a6 v=0
38015 On ch=1 n=f#6 v=55
38025 On ch=1 n=d#6 v=0
38025 On ch=1 n=d#4 v=0
38100 Par ch=1 c=64 v=0
38115 On ch=1 n=f#4 v=0
38125 On ch=1 n=g#5 v=47
38130 On ch=1 n=f#6 v=0
38130 On ch=1 n=g#4 v=28
38220 Par ch=1 c=64 v=127
38225 On ch=1 n=g#6 v=60
38305 On ch=1 n=g#6 v=0
38305 On ch=1 n=f#4 v=36
38345 On ch=1 n=c4 v=0
38370 On ch=1 n=g#4 v=0
38410 On ch=1 n=d#6 v=45
38470 On ch=1 n=f#4 v=0
38480 On ch=1 n=d#4 v=30
38535 On ch=1 n=d#6 v=0
38550 On ch=1 n=f#6 v=55
38620 On ch=1 n=f#6 v=0
38755 On ch=1 n=d#4 v=0
38760 On ch=1 n=c#4 v=42
38770 On ch=1 n=g#5 v=0
38800 Par ch=1 c=64 v=0
38890 On ch=1 n=g#5 v=56
38980 Par ch=1 c=64 v=127
39000 On ch=1 n=g#5 v=0
39000 On ch=1 n=a5 v=55
39010 On ch=1 n=c#4 v=0
39020 On ch=1 n=g#4 v=36
39115 On ch=1 n=a5 v=0
39115 On ch=1 n=g#5 v=55
39155 On ch=1 n=g#4 v=0
39165 On ch=1 n=g#5 v=0
39165 On ch=1 n=c#5 v=37
39220 On ch=1 n=g5 v=46
39225 On ch=1 n=c#5 v=0
39250 Par ch=1 c=67 v=0
39270 On ch=1 n=e5 v=35
39280 On ch=1 n=g#5 v=59
39300 On ch=1 n=g5 v=0
39380 On ch=1 n=c#5 v=36
39385 On ch=1 n=e5 v=0
39385 On ch=1 n=c#6 v=62
39395 On ch=1 n=g#5 v=0
39430 On ch=1 n=c#5 v=0
39440 On ch=1 n=c#6 v=0
39455 On ch=1 n=e6 v=61
39460 On ch=1 n=g#4 v=34
39500 Par ch=1 c=64 v=0
39515 On ch=1 n=g#4 v=0
39555 On ch=1 n=e6 v=0
39555 On ch=1 n=d#6 v=67
39555 On ch=1 n=e4 v=35
39615 Par ch=1 c=64 v=127
39635 On ch=1 n=d#6 v=0
39650 On ch=1 n=c#6 v=66
39675 On ch=1 n=e4 v=0
39680 On ch=1 n=g#4 v=40
39700 On ch=1 n=c#6 v=0
39710 On ch=1 n=d#6 v=58
39760 On ch=1 n=g#4 v=0
39760 On ch=1 n=c#5 v=37
39790 On ch=1 n=c#6 v=74
39800 On ch=1 n=d#6 v=0
39840 On ch=1 n=c#6 v=0
39840 On ch=1 n=c#5 v=0
39875 On ch=1 n=c6 v=62
39895 On ch=1 n=e5 v=40
39935 On ch=1 n=c#6 v=68
39950 On ch=1 n=c6 v=0
39985 On ch=1 n=e5 v=0
40000 On ch=1 n=e6 v=65
40005 On ch=1 n=c#5 v=36
40035 On ch=1 n=c#6 v=0
40060 On ch=1 n=c#5 v=0
40080 On ch=1 n=g#4 v=39
40085 On ch=1 n=g#6 v=70
40090 On ch=1 n=e6 v=0
40140 On ch=1 n=g#4 v=0
40150 On ch=1 n=g#6 v=0
40190 Par ch=1 c=64 v=0
40205 On ch=1 n=c#4 v=58
40280 On ch=1 n=g#5 v=60
40335 Par ch=1 c=64 v=127
40340 On ch=1 n=g#5 v=0
40350 On ch=1 n=a5 v=63
40355 On ch=1 n=c#4 v=0
40355 On ch=1 n=g#4 v=43
40440 On ch=1 n=a5 v=0
40445 On ch=1 n=g#5 v=63
40465 On ch=1 n=g#4 v=0
40470 On ch=1 n=c#5 v=44
40490 On ch=1 n=g#5 v=0
40530 On ch=1 n=c#5 v=0
40535 On ch=1 n=g5 v=51
40580 On ch=1 n=e5 v=40
40595 On ch=1 n=g#5 v=62
40620 On ch=1 n=g5 v=0
40685 On ch=1 n=e5 v=0
40685 On ch=1 n=c#5 v=31
40700 On ch=1 n=g#5 v=0
40705 On ch=1 n=c#6 v=61
40750 On ch=1 n=c#6 v=0
40750 On ch=1 n=c#5 v=0
40760 On ch=1 n=e6 v=64
40770 On ch=1 n=g#4 v=39
40815 Par ch=1 c=64 v=0
40830 On ch=1 n=g#4 v=0
40860 On ch=1 n=d#6 v=67
40870 On ch=1 n=e4 v=39
40875 On ch=1 n=e6 v=0
40950 On ch=1 n=d#6 v=0
40950 Par ch=1 c=64 v=127
40965 On ch=1 n=c#6 v=65
40990 On ch=1 n=e4 v=0
40995 On ch=1 n=g#4 v=41
41020 On ch=1 n=c#6 v=0
41030 On ch=1 n=d#6 v=68
41095 On ch=1 n=c#5 v=38
41120 On ch=1 n=d#6 v=0
41120 On ch=1 n=c#6 v=69
41130 On ch=1 n=g#4 v=0
41160 On ch=1 n=c#5 v=0
41165 On ch=1 n=c#6 v=0
41200 On ch=1 n=c6 v=64
41210 On ch=1 n=e5 v=39
41270 On ch=1 n=c#6 v=67
41305 On ch=1 n=c6 v=0
41315 On ch=1 n=e5 v=0
41325 On ch=1 n=c#5 v=41
41345 On ch=1 n=e6 v=63
41390 On ch=1 n=c#6 v=0
41415 On ch=1 n=c#5 v=0
41420 On ch=1 n=g#4 v=36
41425 On ch=1 n=g#6 v=69
41465 On ch=1 n=e6 v=0
41525 On ch=1 n=g#4 v=0
41525 Par ch=1 c=64 v=0
41535 On ch=1 n=d#4 v=51
41550 On ch=1 n=g#6 v=0
41630 On ch=1 n=a5 v=62
41655 Par ch=1 c=64 v=127
41660 On ch=1 n=a4 v=39
41685 On ch=1 n=d#4 v=0
41715 On ch=1 n=c#6 v=75
41750 On ch=1 n=a5 v=0
41795 On ch=1 n=c#5 v=49
41800 On ch=1 n=d#6 v=67
41805 On ch=1 n=a4 v=0
41835 On ch=1 n=c#6 v=0
41870 On ch=1 n=c#5 v=0
41870 On ch=1 n=f#6 v=73
41880 On ch=1 n=d#6 v=0
41890 On ch=1 n=f#5 v=51
41905 On ch=1 n=f#6 v=0
41960 On ch=1 n=a6 v=75
42005 On ch=1 n=f#5 v=0
42005 On ch=1 n=c#5 v=41
42040 On ch=1 n=a6 v=0
42050 On ch=1 n=c#7 v=81
42070 On ch=1 n=c#5 v=0
42085 On ch=1 n=a4 v=36
42115 On ch=1 n=d#7 v=77
42125 On ch=1 n=c#7 v=0
42155 On ch=1 n=d#7 v=0
42195 On ch=1 n=a4 v=0
42215 On ch=1 n=f#4 v=51
42215 On ch=1 n=b7 v=81
42250 Par ch=1 c=64 v=0
42310 On ch=1 n=a7 v=78
42335 Par ch=1 c=64 v=127
42345 On ch=1 n=b7 v=0
42355 On ch=1 n=c#5 v=48
42360 On ch=1 n=f#4 v=0
42385 On ch=1 n=g#7 v=78
42420 On ch=1 n=a7 v=0
42445 On ch=1 n=c#5 v=0
42445 On ch=1 n=d#5 v=46
42460 On ch=1 n=f#7 v=79
42475 On ch=1 n=g#7 v=0
42520 On ch=1 n=d#5 v=0
42535 On ch=1 n=f#7 v=0
42535 On ch=1 n=e7 v=77
42555 On ch=1 n=a5 v=52
42605 On ch=1 n=e7 v=0
42605 On ch=1 n=d#7 v=80
42635 On ch=1 n=a5 v=0
42670 On ch=1 n=d#5 v=43
42685 On ch=1 n=f#7 v=74
42695 On ch=1 n=c#5 v=46
42705 On ch=1 n=d#5 v=0
42730 On ch=1 n=c#5 v=0
42735 On ch=1 n=d#7 v=0
42750 On ch=1 n=c#7 v=73
42775 Par ch=1 c=64 v=0
42790 On ch=1 n=f#7 v=0
42820 On ch=1 n=c#7 v=0
42820 On ch=1 n=c7 v=70
42830 On ch=1 n=g#3 v=58
42860 Par ch=1 c=64 v=127
42865 On ch=1 n=c7 v=0
42890 On ch=1 n=d#7 v=76
42930 On ch=1 n=g#3 v=0
42950 On ch=1 n=d#7 v=0
42950 On ch=1 n=d#4 v=50
42985 On ch=1 n=a6 v=67
43020 On ch=1 n=a6 v=0
43030 On ch=1 n=d#4 v=0
43030 On ch=1 n=f#4 v=45
43055 On ch=1 n=g#6 v=73
43090 On ch=1 n=f#4 v=0
43105 On ch=1 n=c5 v=34
43135 On ch=1 n=f#6 v=77
43145 On ch=1 n=g#6 v=0
43195 On ch=1 n=a6 v=70
43205 On ch=1 n=c5 v=0
43210 On ch=1 n=f#6 v=0
43225 On ch=1 n=f#4 v=38
43240 On ch=1 n=a6 v=0
43280 On ch=1 n=e6 v=77
43295 On ch=1 n=f#4 v=0
43305 On ch=1 n=d#4 v=42
43340 On ch=1 n=e6 v=0
43355 On ch=1 n=d#6 v=70
43385 On ch=1 n=d#4 v=0
43410 Par ch=1 c=64 v=0
43430 On ch=1 n=g#3 v=52
43440 On ch=1 n=f#6 v=75
43460 On ch=1 n=d#6 v=0
43500 Par ch=1 c=64 v=127
43505 On ch=1 n=c#6 v=65
43525 On ch=1 n=f#6 v=0
43545 On ch=1 n=d#4 v=47
43550 On ch=1 n=g#3 v=0
43580 On ch=1 n=c6 v=68
43585 On ch=1 n=c#6 v=0
43630 On ch=1 n=c6 v=0
43640 On ch=1 n=f#4 v=42
43650 On ch=1 n=d#4 v=0
43650 On ch=1 n=d#6 v=73
43700 On ch=1 n=f#4 v=0
43730 On ch=1 n=d#6 v=0
43730 On ch=1 n=c5 v=30
43745 On ch=1 n=a5 v=69
43810 On ch=1 n=a5 v=0
43820 On ch=1 n=g#5 v=68
43845 On ch=1 n=c5 v=0
43865 On ch=1 n=f#4 v=39
43895 On ch=1 n=g#5 v=0
43895 On ch=1 n=b5 v=69
43940 On ch=1 n=f#4 v=0
43955 On ch=1 n=d#4 v=35
43985 On ch=1 n=a5 v=66
44010 On ch=1 n=d#4 v=0
44010 On ch=1 n=b5 v=0
44045 Par ch=1 c=64 v=0
44100 On ch=1 n=c#4 v=60
44185 On ch=1 n=a5 v=0
44195 On ch=1 n=g#5 v=59
44215 Par ch=1 c=64 v=127
44270 On ch=1 n=g#5 v=0
44290 On ch=1 n=a5 v=61
44300 On ch=1 n=c#4 v=0
44310 On ch=1 n=g#4 v=34
44370 On ch=1 n=a5 v=0
44380 On ch=1 n=g#5 v=64
44425 On ch=1 n=g#5 v=0
44430 On ch=1 n=g#4 v=0
44440 On ch=1 n=c#5 v=39
44470 On ch=1 n=g5 v=43
44495 On ch=1 n=c#5 v=0
44520 On ch=1 n=g#5 v=60
44535 On ch=1 n=g5 v=0
44565 On ch=1 n=e5 v=33
44625 On ch=1 n=c#6 v=61
44630 On ch=1 n=g#5 v=0
44655 On ch=1 n=e5 v=0
44655 On ch=1 n=c#5 v=34
44690 On ch=1 n=e6 v=66
44695 On ch=1 n=c#6 v=0
44715 On ch=1 n=c#5 v=0
44745 On ch=1 n=g#4 v=36
44760 Par ch=1 c=64 v=0
44805 On ch=1 n=g#4 v=0
44805 On ch=1 n=d#6 v=67
44820 On ch=1 n=e6 v=0
44830 On ch=1 n=e4 v=42
44845 Par ch=1 c=64 v=127
44890 On ch=1 n=d#6 v=0
44900 On ch=1 n=c#6 v=65
44940 On ch=1 n=e4 v=0
44945 On ch=1 n=c#6 v=0
44945 On ch=1 n=g#4 v=46
44970 On ch=1 n=d#6 v=66
45015 On ch=1 n=g#4 v=0
45020 On ch=1 n=c#5 v=39
45045 On ch=1 n=c#6 v=74
45055 On ch=1 n=d#6 v=0
45065 On ch=1 n=c#5 v=0
45095 On ch=1 n=c#6 v=0
45120 On ch=1 n=e5 v=45
45120 On ch=1 n=c6 v=65
45185 On ch=1 n=c#6 v=79
45195 On ch=1 n=c6 v=0
45195 On ch=1 n=e5 v=0
45215 On ch=1 n=c#5 v=41
45265 On ch=1 n=e6 v=74
45280 On ch=1 n=c#6 v=0
45280 On ch=1 n=g#4 v=35
45300 On ch=1 n=c#5 v=0
45330 On ch=1 n=g#4 v=0
45340 On ch=1 n=e6 v=0
45340 On ch=1 n=g#6 v=75
45360 Par ch=1 c=64 v=0
45410 On ch=1 n=f#4 v=64
45420 On ch=1 n=e6 v=76
45450 On ch=1 n=g#6 v=0
45490 Par ch=1 c=64 v=127
45510 On ch=1 n=e6 v=0
45520 On ch=1 n=d#6 v=76
45530 On ch=1 n=c#5 v=53
45555 On ch=1 n=f#4 v=0
45585 On ch=1 n=e6 v=78
45595 On ch=1 n=d#6 v=0
45635 On ch=1 n=d#5 v=51
45655 On ch=1 n=c#5 v=0
45680 On ch=1 n=e6 v=0
45685 On ch=1 n=d#6 v=67
45705 On ch=1 n=d#5 v=0
45730 On ch=1 n=d#6 v=0
45730 On ch=1 n=a5 v=52
45745 On ch=1 n=d6 v=74
45820 On ch=1 n=d#6 v=81
45830 On ch=1 n=d6 v=0
45835 On ch=1 n=a5 v=0
45850 On ch=1 n=d#5 v=52
45900 On ch=1 n=f#6 v=76
45925 On ch=1 n=d#6 v=0
45935 On ch=1 n=c#5 v=42
45940 On ch=1 n=d#5 v=0
45960 On ch=1 n=a6 v=72
45970 On ch=1 n=f#6 v=0
45980 On ch=1 n=c#5 v=0
45980 Par ch=1 c=64 v=0
46045 On ch=1 n=g#4 v=65
46045 On ch=1 n=f#6 v=79
46065 On ch=1 n=a6 v=0
46100 Par ch=1 c=64 v=127
46135 On ch=1 n=f6 v=81
46135 On ch=1 n=c#5 v=48
46145 On ch=1 n=f#6 v=0
46195 On ch=1 n=g#4 v=0
46210 On ch=1 n=f6 v=0
46225 On ch=1 n=f#6 v=83
46240 On ch=1 n=f5 v=59
46280 On ch=1 n=c#5 v=0
46300 On ch=1 n=f6 v=69
46315 On ch=1 n=f#6 v=0
46345 On ch=1 n=f5 v=0
46355 On ch=1 n=f6 v=0
46370 On ch=1 n=e6 v=76
46375 On ch=1 n=b5 v=56
46435 On ch=1 n=f6 v=76
46450 On ch=1 n=e6 v=0
46465 On ch=1 n=f5 v=55
46475 On ch=1 n=b5 v=0
46500 On ch=1 n=g#6 v=80
46525 On ch=1 n=f6 v=0
46560 On ch=1 n=f5 v=0
46560 On ch=1 n=c#5 v=51
46585 On ch=1 n=c#7 v=84
46605 On ch=1 n=g#6 v=0
46625 On ch=1 n=c#5 v=0
46645 On ch=1 n=c#7 v=0
46695 On ch=1 n=a4 v=62
46725 Par ch=1 c=64 v=0
46785 On ch=1 n=c#6 v=73
46845 On ch=1 n=c#5 v=54
46870 On ch=1 n=c#6 v=0
46870 On ch=1 n=d6 v=74
46875 Par ch=1 c=64 v=127
46940 On ch=1 n=a4 v=0
46950 On ch=1 n=d6 v=0
46950 On ch=1 n=c#6 v=65
46970 On ch=1 n=f#5 v=56
47015 On ch=1 n=c#6 v=0
47025 On ch=1 n=c6 v=74
47030 On ch=1 n=c#5 v=0
47045 On ch=1 n=f#5 v=0
47070 On ch=1 n=a5 v=56
47105 On ch=1 n=c#6 v=78
47120 On ch=1 n=c6 v=0
47180 On ch=1 n=f#5 v=58
47185 On ch=1 n=a5 v=0
47190 On ch=1 n=f#6 v=76
47210 On ch=1 n=c#6 v=0
47260 On ch=1 n=a6 v=75
47260 On ch=1 n=c#5 v=43
47270 On ch=1 n=f#6 v=0
47270 On ch=1 n=f#5 v=0
47310 On ch=1 n=c#5 v=0
47330 Par ch=1 c=64 v=0
47365 On ch=1 n=f#6 v=80
47365 On ch=1 n=g#4 v=61
47385 On ch=1 n=a6 v=0
47445 Par ch=1 c=64 v=127
47450 On ch=1 n=f#6 v=0
47450 On ch=1 n=f6 v=75
47470 On ch=1 n=c#5 v=50
47510 On ch=1 n=f6 v=0
47510 On ch=1 n=g#4 v=0
47525 On ch=1 n=f#6 v=83
47570 On ch=1 n=f5 v=50
47600 On ch=1 n=c#5 v=0
47615 On ch=1 n=f6 v=74
47630 On ch=1 n=f#6 v=0
47660 On ch=1 n=f6 v=0
47660 On ch=1 n=f5 v=0
47670 On ch=1 n=b5 v=61
47675 On ch=1 n=e6 v=71
47740 On ch=1 n=f6 v=77
47750 On ch=1 n=e6 v=0
47765 On ch=1 n=b5 v=0
47765 On ch=1 n=f5 v=58
47810 On ch=1 n=g#6 v=79
47830 On ch=1 n=f6 v=0
47845 On ch=1 n=f5 v=0
47845 On ch=1 n=c#5 v=53
47885 On ch=1 n=c#7 v=82
47895 On ch=1 n=g#6 v=0
47900 On ch=1 n=c#5 v=0
47945 Par ch=1 c=64 v=0
47975 On ch=1 n=a4 v=63
47975 On ch=1 n=g#6 v=78
48000 On ch=1 n=c#7 v=0
48035 Par ch=1 c=64 v=127
48065 On ch=1 n=g#6 v=0
48065 On ch=1 n=f#6 v=81
48095 On ch=1 n=c#5 v=58
48130 On ch=1 n=a4 v=0
48140 On ch=1 n=f#6 v=0
48140 On ch=1 n=g#6 v=80
48195 On ch=1 n=f#5 v=59
48225 On ch=1 n=f#6 v=79
48230 On ch=1 n=c#5 v=0
48245 On ch=1 n=g#6 v=0
48255 On ch=1 n=f#5 v=0
48275 On ch=1 n=a5 v=65
48285 On ch=1 n=f#6 v=0
48290 On ch=1 n=f6 v=76
48360 On ch=1 n=f#6 v=77
48375 On ch=1 n=f6 v=0
48375 On ch=1 n=f#5 v=64
48400 On ch=1 n=a5 v=0
48425 On ch=1 n=a6 v=77
48450 On ch=1 n=f#5 v=0
48450 On ch=1 n=c#5 v=53
48465 On ch=1 n=f#6 v=0
48490 On ch=1 n=c#5 v=0
48505 On ch=1 n=c#7 v=82
48525 On ch=1 n=a6 v=0
48580 Par ch=1 c=64 v=0
48585 On ch=1 n=c4 v=71
48600 On ch=1 n=a6 v=75
48630 On ch=1 n=c#7 v=0
48685 Par ch=1 c=64 v=127
48690 On ch=1 n=a6 v=0
48690 On ch=1 n=g#6 v=75
48715 On ch=1 n=c4 v=0
48720 On ch=1 n=f#4 v=57
48765 On ch=1 n=g#6 v=0
48765 On ch=1 n=a6 v=82
48845 On ch=1 n=g#4 v=46
48860 On ch=1 n=g#6 v=78
48865 On ch=1 n=f#4 v=0
48870 On ch=1 n=a6 v=0
48910 On ch=1 n=g#4 v=0
48930 On ch=1 n=g#6 v=0
48930 On ch=1 n=d#5 v=49
48930 On ch=1 n=g6 v=78
49005 On ch=1 n=g#6 v=75
49020 On ch=1 n=g6 v=0
49035 On ch=1 n=g#4 v=53
49040 On ch=1 n=d#5 v=0
49075 On ch=1 n=c7 v=77
49125 On ch=1 n=g#6 v=0
49135 On ch=1 n=f#4 v=43
49140 On ch=1 n=g#4 v=0
49145 On ch=1 n=d#7 v=78
49180 On ch=1 n=c7 v=0
49195 On ch=1 n=f#4 v=0
49230 Par ch=1 c=64 v=0
49235 On ch=1 n=c#4 v=72
49245 On ch=1 n=d#7 v=0
49245 On ch=1 n=g#6 v=80
49330 Par ch=1 c=64 v=127
49335 On ch=1 n=a6 v=81
49350 On ch=1 n=g#6 v=0
49375 On ch=1 n=g#4 v=55
49395 On ch=1 n=c#4 v=0
49435 On ch=1 n=g#6 v=75
49465 On ch=1 n=a6 v=0
49510 On ch=1 n=c#5 v=58
49525 On ch=1 n=g#6 v=0
49525 On ch=1 n=g6 v=84
49555 On ch=1 n=g#4 v=0
49650 On ch=1 n=c#5 v=0
49650 On ch=1 n=g#6 v=86
49650 On ch=1 n=e5 v=54
49690 On ch=1 n=g6 v=0
49780 On ch=1 n=e7 v=86
49805 On ch=1 n=g#6 v=0
49820 On ch=1 n=c#5 v=48
49825 On ch=1 n=e5 v=0
49885 On ch=1 n=d#7 v=78
49930 On ch=1 n=g#4 v=50
49940 On ch=1 n=c#5 v=0
49970 On ch=1 n=d7 v=84
49975 On ch=1 n=e7 v=0
50015 On ch=1 n=g#4 v=0
50050 Par ch=1 c=64 v=0
50065 On ch=1 n=d#7 v=0
50065 On ch=1 n=c#7 v=82
50070 On ch=1 n=d#4 v=62
50095 On ch=1 n=d7 v=0
50145 Par ch=1 c=64 v=127
50155 On ch=1 n=c#7 v=0
50155 On ch=1 n=c7 v=76
50180 On ch=1 n=g#4 v=55
50215 On ch=1 n=c7 v=0
50220 On ch=1 n=d#4 v=0
50230 On ch=1 n=b6 v=80
50275 On ch=1 n=c5 v=45
50290 On ch=1 n=a#6 v=83
50310 On ch=1 n=g#4 v=0
50320 On ch=1 n=b6 v=0
50380 On ch=1 n=a#6 v=0
50380 On ch=1 n=c5 v=0
50390 On ch=1 n=a6 v=79
50395 On ch=1 n=f#5 v=56
50445 On ch=1 n=a6 v=0
50450 On ch=1 n=f#5 v=0
50475 On ch=1 n=g#6 v=83
50500 On ch=1 n=c5 v=41
50545 On ch=1 n=g#6 v=0
50550 On ch=1 n=g6 v=81
50590 On ch=1 n=g#4 v=55
50595 On ch=1 n=g6 v=0
50600 On ch=1 n=c5 v=0
50630 On ch=1 n=f#6 v=84
50650 On ch=1 n=g#4 v=0
50695 On ch=1 n=f#6 v=0
50695 Par ch=1 c=64 v=0
50705 On ch=1 n=e6 v=80
50730 On ch=1 n=e4 v=61
50775 On ch=1 n=e6 v=0
50780 On ch=1 n=f#6 v=80
50805 Par ch=1 c=64 v=127
50815 On ch=1 n=e4 v=0
50825 On ch=1 n=g#4 v=59
50875 On ch=1 n=e6 v=71
50930 On ch=1 n=f#6 v=0
50930 On ch=1 n=c#5 v=50
50945 On ch=1 n=g#4 v=0
50945 On ch=1 n=d#6 v=81
50970 On ch=1 n=e6 v=0
50985 On ch=1 n=c#5 v=0
51005 On ch=1 n=e5 v=59
51020 On ch=1 n=e6 v=74
51025 On ch=1 n=d#6 v=0
51080 On ch=1 n=e6 v=0
51100 On ch=1 n=e7 v=91
51115 On ch=1 n=c#5 v=52
51130 On ch=1 n=e5 v=0
51170 On ch=1 n=d#7 v=78
51200 On ch=1 n=g#4 v=49
51210 On ch=1 n=c#5 v=0
51235 On ch=1 n=e7 v=0
51235 On ch=1 n=d7 v=80
51260 On ch=1 n=g#4 v=0
51295 Par ch=1 c=64 v=0
51330 On ch=1 n=c#7 v=87
51335 On ch=1 n=d#7 v=0
51335 On ch=1 n=f#4 v=71
51360 On ch=1 n=d7 v=0
51390 On ch=1 n=c7 v=84
51395 On ch=1 n=c#7 v=0
51405 Par ch=1 c=64 v=127
51450 On ch=1 n=c7 v=0
51450 On ch=1 n=c#5 v=60
51475 On ch=1 n=b6 v=89
51480 On ch=1 n=f#4 v=0
51535 On ch=1 n=d#5 v=56
51545 On ch=1 n=a#6 v=91
51575 On ch=1 n=b6 v=0
51575 On ch=1 n=c#5 v=0
51620 On ch=1 n=d#5 v=0
51630 On ch=1 n=a5 v=61
51630 On ch=1 n=a6 v=81
51640 On ch=1 n=a#6 v=0
51710 On ch=1 n=a6 v=0
51710 On ch=1 n=g#6 v=88
51730 On ch=1 n=a5 v=0
51735 On ch=1 n=d#5 v=61
51790 On ch=1 n=g6 v=88
51800 On ch=1 n=g#6 v=0
51800 On ch=1 n=c#5 v=54
51825 On ch=1 n=d#5 v=0
51855 On ch=1 n=c#5 v=0
51860 On ch=1 n=f#6 v=83
51875 On ch=1 n=g6 v=0
51885 Par ch=1 c=64 v=0
51925 On ch=1 n=g#6 v=92
51935 On ch=1 n=f#6 v=0
51935 On ch=1 n=e5 v=77
51935 On ch=1 n=g#5 v=87
51935 On ch=1 n=c#5 v=69
51935 On ch=1 n=g#4 v=72
51955 On ch=1 n=g#6 v=0
51980 Par ch=1 c=64 v=127
52035 On ch=1 n=g#5 v=0
52040 On ch=1 n=g#4 v=0
52040 On ch=1 n=c#5 v=0
52040 On ch=1 n=e5 v=0
52115 On ch=1 n=g#7 v=88
52155 Par ch=1 c=64 v=0
52195 On ch=1 n=g#7 v=0
52195 On ch=1 n=g7 v=86
52275 On ch=1 n=f#7 v=90
52285 On ch=1 n=g7 v=0
52355 On ch=1 n=f7 v=80
52385 On ch=1 n=f#7 v=0
52415 On ch=1 n=e7 v=88
52425 On ch=1 n=f7 v=0
52485 On ch=1 n=e7 v=0
52500 On ch=1 n=d#7 v=88
52575 On ch=1 n=c#5 v=70
52575 On ch=1 n=a5 v=87
52575 On ch=1 n=g4 v=68
52575 On ch=1 n=e5 v=77
52575 On ch=1 n=d7 v=95
52590 On ch=1 n=d#7 v=0
52645 On ch=1 n=d7 v=0
52645 Par ch=1 c=64 v=127
52665 On ch=1 n=c#7 v=92
52680 On ch=1 n=a5 v=0
52705 On ch=1 n=e5 v=0
52705 On ch=1 n=c#5 v=0
52710 On ch=1 n=g4 v=0
52750 On ch=1 n=c7 v=83
52780 On ch=1 n=c#7 v=0
52820 On ch=1 n=c7 v=0
52830 On ch=1 n=b6 v=86
52890 On ch=1 n=b6 v=0
52900 On ch=1 n=a#6 v=87
52965 On ch=1 n=a#6 v=0
52980 On ch=1 n=a6 v=82
53035 On ch=1 n=a6 v=0
53060 On ch=1 n=g#6 v=82
53120 On ch=1 n=g#6 v=0
53135 On ch=1 n=g6 v=78
53195 On ch=1 n=g6 v=0
53205 On ch=1 n=f#6 v=80
53285 On ch=1 n=f6 v=73
53295 On ch=1 n=f#6 v=0
53335 On ch=1 n=f6 v=0
53350 On ch=1 n=e6 v=70
53410 On ch=1 n=e6 v=0
53435 On ch=1 n=d#6 v=74
53500 On ch=1 n=d#6 v=0
53510 On ch=1 n=d6 v=72
53580 On ch=1 n=d6 v=0
53590 On ch=1 n=c#6 v=79
53665 On ch=1 n=c6 v=74
53690 On ch=1 n=c#6 v=0
53730 On ch=1 n=c6 v=0
53740 On ch=1 n=b5 v=76
53795 On ch=1 n=b5 v=0
53815 On ch=1 n=a#5 v=77
53890 On ch=1 n=a#5 v=0
53890 On ch=1 n=a5 v=77
53965 On ch=1 n=a5 v=0
53980 On ch=1 n=g#5 v=80
54055 On ch=1 n=g5 v=75
54060 On ch=1 n=g#5 v=0
54120 On ch=1 n=g5 v=0
54145 On ch=1 n=f#5 v=81
54245 On ch=1 n=e5 v=80
54250 On ch=1 n=f#5 v=0
54345 On ch=1 n=d#5 v=77
54355 On ch=1 n=e5 v=0
54430 On ch=1 n=c#5 v=73
54450 On ch=1 n=d#5 v=0
54500 On ch=1 n=c#5 v=0
54625 On ch=1 n=g#3 v=88
54625 On ch=1 n=g#4 v=88
54635 On ch=1 n=g#2 v=92
54665 Par ch=1 c=64 v=0
54840 On ch=1 n=g#4 v=0
54865 On ch=1 n=g#2 v=0
54880 Par ch=1 c=64 v=127
54910 On ch=1 n=g#3 v=0
55445 On ch=1 n=e5 v=70
55445 On ch=1 n=e6 v=90
55485 On ch=1 n=a7 v=104
55565 On ch=1 n=e6 v=0
55600 On ch=1 n=e5 v=0
55625 On ch=1 n=g#7 v=90
55635 On ch=1 n=a7 v=0
55725 On ch=1 n=e8 v=93
55730 On ch=1 n=g#7 v=0
55775 On ch=1 n=e8 v=0
55795 On ch=1 n=e7 v=82
55865 On ch=1 n=e7 v=0
55890 On ch=1 n=f#7 v=85
55905 Par ch=1 c=64 v=0
55905 On ch=1 n=c#6 v=94
55910 On ch=1 n=c#5 v=72
55935 Par ch=1 c=64 v=127
55965 On ch=1 n=c#6 v=0
55975 On ch=1 n=e7 v=76
55990 On ch=1 n=f#7 v=0
56010 On ch=1 n=c#5 v=0
56040 On ch=1 n=c#8 v=83
56060 On ch=1 n=e7 v=0
56100 On ch=1 n=c#8 v=0
56100 On ch=1 n=c#7 v=85
56165 On ch=1 n=c#7 v=0
56195 On ch=1 n=d#7 v=84
56195 On ch=1 n=g#5 v=83
56195 On ch=1 n=g#4 v=75
56255 On ch=1 n=g#4 v=0
56255 On ch=1 n=g#5 v=0
56285 On ch=1 n=c#7 v=82
56300 On ch=1 n=d#7 v=0
56335 On ch=1 n=g#7 v=78
56360 On ch=1 n=c#7 v=0
56385 On ch=1 n=g#7 v=0
56385 On ch=1 n=g#6 v=79
56435 On ch=1 n=g#6 v=0
56490 On ch=1 n=a6 v=85
56490 On ch=1 n=e5 v=80
56500 On ch=1 n=e4 v=68
56550 On ch=1 n=e5 v=0
56555 On ch=1 n=a6 v=0
56555 On ch=1 n=g#6 v=82
56600 On ch=1 n=e4 v=0
56625 On ch=1 n=e7 v=89
56635 On ch=1 n=g#6 v=0
56675 On ch=1 n=e7 v=0
56695 On ch=1 n=e6 v=84
56755 Par ch=1 c=64 v=0
56765 On ch=1 n=e6 v=0
56770 Par ch=1 c=64 v=127
56775 On ch=1 n=f#6 v=89
56780 On ch=1 n=c#5 v=79
56780 On ch=1 n=c#4 v=75
56855 On ch=1 n=c#5 v=0
56860 On ch=1 n=e6 v=67
56870 On ch=1 n=f#6 v=0
56880 On ch=1 n=c#4 v=0
56905 On ch=1 n=c#7 v=84
56940 On ch=1 n=e6 v=0
56965 On ch=1 n=c#7 v=0
56975 On ch=1 n=c#6 v=85
57040 On ch=1 n=c#6 v=0
57050 On ch=1 n=g#4 v=77
57050 On ch=1 n=g#3 v=74
57065 On ch=1 n=d#6 v=85
57095 On ch=1 n=g#4 v=0
57110 On ch=1 n=g#3 v=0
57145 On ch=1 n=c#6 v=82
57175 On ch=1 n=d#6 v=0
57205 On ch=1 n=g#6 v=73
57235 On ch=1 n=g#6 v=0
57235 On ch=1 n=c#6 v=0
57245 On ch=1 n=g#5 v=77
57295 On ch=1 n=g#5 v=0
57310 Par ch=1 c=64 v=0
57315 Par ch=1 c=64 v=127
57330 On ch=1 n=e4 v=71
57340 On ch=1 n=e3 v=77
57345 On ch=1 n=a5 v=85
57400 On ch=1 n=e4 v=0
57400 On ch=1 n=g#5 v=73
57420 On ch=1 n=a5 v=0
57430 On ch=1 n=e3 v=0
57480 On ch=1 n=e6 v=87
57495 On ch=1 n=g#5 v=0
57530 On ch=1 n=e6 v=0
57550 On ch=1 n=e5 v=70
57575 Par ch=1 c=64 v=0
57630 On ch=1 n=e5 v=0
57630 On ch=1 n=c#4 v=79
57630 On ch=1 n=f#5 v=74
57635 Par ch=1 c=64 v=127
57640 On ch=1 n=c#3 v=81
57685 On ch=1 n=c#4 v=0
57700 On ch=1 n=c#3 v=0
57715 On ch=1 n=e5 v=61
57725 On ch=1 n=f#5 v=0
57780 On ch=1 n=c#6 v=83
57865 On ch=1 n=e5 v=0
57865 On ch=1 n=c#5 v=67
57880 On ch=1 n=c#6 v=0
57975 Par ch=1 c=64 v=0
57980 On ch=1 n=c#5 v=0
57980 On ch=1 n=g#3 v=80
57980 On ch=1 n=g#2 v=90
57995 On ch=1 n=d#5 v=73
58135 On ch=1 n=c#5 v=59
58185 Par ch=1 c=64 v=127
58250 On ch=1 n=g#5 v=69
58260 On ch=1 n=d#5 v=0
58310 On ch=1 n=c#5 v=0
58315 On ch=1 n=g#2 v=0
58315 On ch=1 n=g#3 v=0
58335 On ch=1 n=g#4 v=62
58380 On ch=1 n=g#5 v=0
58430 On ch=1 n=d#5 v=63
58430 On ch=1 n=g#3 v=75
58435 On ch=1 n=g#2 v=82
58440 On ch=1 n=g#4 v=0
58510 On ch=1 n=c#5 v=54
58565 On ch=1 n=d#5 v=0
58600 On ch=1 n=g#5 v=70
58625 On ch=1 n=c#5 v=0
58655 On ch=1 n=g#2 v=0
58655 On ch=1 n=g#3 v=0
58655 On ch=1 n=g#4 v=62
58730 On ch=1 n=d#5 v=65
58735 On ch=1 n=g#4 v=0
58735 On ch=1 n=g#5 v=0
58745 On ch=1 n=a3 v=78
58750 On ch=1 n=a2 v=84
58770 Par ch=1 c=64 v=0
58815 On ch=1 n=c#5 v=56
58870 On ch=1 n=d#5 v=0
58895 On ch=1 n=a5 v=77
58925 Par ch=1 c=64 v=127
58935 On ch=1 n=c#5 v=0
58955 On ch=1 n=a3 v=0
58960 On ch=1 n=a2 v=0
58960 On ch=1 n=a4 v=65
59045 On ch=1 n=a5 v=0
59065 On ch=1 n=g#3 v=78
59065 On ch=1 n=d#5 v=70
59075 On ch=1 n=g#2 v=88
59095 On ch=1 n=a4 v=0
59115 Par ch=1 c=64 v=0
59150 On ch=1 n=c#5 v=65
59225 Par ch=1 c=64 v=127
59230 On ch=1 n=g#5 v=79
59270 On ch=1 n=d#5 v=0
59305 On ch=1 n=c#5 v=0
59305 On ch=1 n=g#4 v=70
59315 On ch=1 n=g#3 v=0
59325 On ch=1 n=g#2 v=0
59400 On ch=1 n=g3 v=76
59400 On ch=1 n=g2 v=86
59415 On ch=1 n=d#5 v=72
59420 Par ch=1 c=64 v=0
59445 On ch=1 n=g#4 v=0
59460 On ch=1 n=g#5 v=0
59540 On ch=1 n=c#5 v=62
59610 Par ch=1 c=64 v=127
59640 On ch=1 n=g5 v=72
59685 On ch=1 n=d#5 v=0
59685 On ch=1 n=g2 v=0
59710 On ch=1 n=g3 v=0
59730 On ch=1 n=g4 v=72
59745 On ch=1 n=c#5 v=0
59860 On ch=1 n=g#3 v=78
59865 On ch=1 n=g#2 v=82
59880 On ch=1 n=d#5 v=70
59955 On ch=1 n=g5 v=0
59970 On ch=1 n=g4 v=0
59970 Par ch=1 c=64 v=0
60050 On ch=1 n=c#5 v=65
60205 On ch=1 n=g#5 v=76
60340 On ch=1 n=d#5 v=0
60380 On ch=1 n=g#4 v=67
60410 On ch=1 n=c#5 v=0
60575 On ch=1 n=d#5 v=67
60665 On ch=1 n=g#5 v=0
60825 On ch=1 n=c5 v=57
61135 On ch=1 n=g#5 v=69
61405 Par ch=1 c=64 v=127
61425 On ch=1 n=g#4 v=0
61535 On ch=1 n=g#2 v=0
61810 On ch=1 n=g#4 v=50
62000 On ch=1 n=g#3 v=0
62195 On ch=1 n=c#3 v=72
62235 On ch=1 n=g#5 v=0
62340 Par ch=1 c=64 v=0
62390 On ch=1 n=d#5 v=0
62405 On ch=1 n=c5 v=0
62640 On ch=1 n=g#3 v=48
62865 On ch=1 n=g#4 v=0
62905 On ch=1 n=c#4 v=56
63150 On ch=1 n=f4 v=46
63375 On ch=1 n=g#4 v=53
63600 On ch=1 n=c#5 v=48
63625 Par ch=1 c=64 v=127
63945 On ch=1 n=f5 v=55
64070 On ch=1 n=c#5 v=0
64155 On ch=1 n=g#4 v=0
64355 On ch=1 n=c#5 v=38
64480 On ch=1 n=c#4 v=0
64605 On ch=1 n=f4 v=0
64620 On ch=1 n=g#4 v=36
64645 On ch=1 n=g#3 v=0
64835 On ch=1 n=f4 v=33
65045 On ch=1 n=c#4 v=41
65255 On ch=1 n=c#3 v=0
65255 On ch=1 n=g#3 v=43
65465 On ch=1 n=c#3 v=55
65520 On ch=1 n=g#3 v=0
65565 Par ch=1 c=64 v=0
65575 On ch=1 n=c#4 v=0
65690 On ch=1 n=g#3 v=46
65875 On ch=1 n=f4 v=0
65885 On ch=1 n=c#4 v=45
66005 On ch=1 n=g#4 v=0
66090 On ch=1 n=f4 v=36
66095 On ch=1 n=c#5 v=0
66125 Par ch=1 c=64 v=127
66200 On ch=1 n=f5 v=0
66315 On ch=1 n=g#4 v=43
66545 On ch=1 n=c#5 v=39
66840 On ch=1 n=f5 v=44
66920 On ch=1 n=c#5 v=0
66990 On ch=1 n=g#4 v=0
67130 On ch=1 n=c#5 v=31
67215 On ch=1 n=c#4 v=0
67315 On ch=1 n=g#3 v=0
67325 On ch=1 n=f4 v=0
67365 On ch=1 n=g#4 v=33
67580 On ch=1 n=f4 v=25
67675 On ch=1 n=f5 v=0
67825 On ch=1 n=c#4 v=34
67950 On ch=1 n=f4 v=0
67990 On ch=1 n=g#4 v=0
68045 On ch=1 n=c#5 v=0
68125 On ch=1 n=g#3 v=36
68175 On ch=1 n=c#3 v=0
68295 On ch=1 n=c#4 v=0
68535 On ch=1 n=c#3 v=42
68560 On ch=1 n=g#3 v=0
68610 Par ch=1 c=64 v=0
68615 On ch=1 n=g#5 v=62
68850 Par ch=1 c=64 v=127
68870 On ch=1 n=c#3 v=0
69175 On ch=1 n=g#4 v=27
69480 On ch=1 n=c5 v=23
69605 On ch=1 n=g#4 v=0
69710 On ch=1 n=d#5 v=37
69770 On ch=1 n=c5 v=0
69915 On ch=1 n=d#5 v=0
69935 On ch=1 n=c5 v=34
70090 On ch=1 n=g#4 v=33
70145 On ch=1 n=c5 v=0
70205 On ch=1 n=a#5 v=59
70255 On ch=1 n=a#5 v=0
70265 On ch=1 n=g#5 v=0
70275 On ch=1 n=c6 v=60
70320 On ch=1 n=c#4 v=34
70330 On ch=1 n=g#4 v=0
70335 On ch=1 n=a#5 v=72
70355 On ch=1 n=c6 v=0
70355 Par ch=1 c=64 v=0
70535 Par ch=1 c=64 v=127
70595 On ch=1 n=g#4 v=29
70725 On ch=1 n=g#5 v=65
70750 On ch=1 n=c#4 v=0
70815 On ch=1 n=a#5 v=0
70815 On ch=1 n=c5 v=24
70970 On ch=1 n=g#4 v=0
70995 On ch=1 n=c#6 v=78
71010 On ch=1 n=f#5 v=47
71025 On ch=1 n=c5 v=0
71175 On ch=1 n=f#5 v=0
71185 On ch=1 n=c5 v=31
71260 On ch=1 n=d#6 v=78
71335 On ch=1 n=g#5 v=0
71345 On ch=1 n=c5 v=0
71365 On ch=1 n=g#4 v=35
71370 On ch=1 n=c#6 v=0
71580 On ch=1 n=c#4 v=37
71595 On ch=1 n=f6 v=76
71615 Par ch=1 c=64 v=0
71625 On ch=1 n=g#4 v=0
71690 On ch=1 n=d#6 v=0
71815 Par ch=1 c=64 v=127
71820 On ch=1 n=g#4 v=32
71880 On ch=1 n=c#4 v=0
72020 On ch=1 n=c#5 v=40
72055 On ch=1 n=g#4 v=0
72175 On ch=1 n=c#5 v=0
72195 On ch=1 n=f5 v=46
72340 On ch=1 n=f5 v=0
72370 On ch=1 n=c#5 v=36
72465 On ch=1 n=c#5 v=0
72500 On ch=1 n=g#4 v=39
72685 On ch=1 n=g#6 v=73
72700 On ch=1 n=c#4 v=43
72715 On ch=1 n=g#4 v=0
72715 Par ch=1 c=64 v=0
72830 On ch=1 n=f6 v=0
72875 Par ch=1 c=64 v=127
72885 On ch=1 n=g#4 v=34
72925 On ch=1 n=c#4 v=0
73075 On ch=1 n=f5 v=46
73190 On ch=1 n=f5 v=0
73255 On ch=1 n=g#5 v=62
73425 On ch=1 n=g#4 v=0
73435 On ch=1 n=f5 v=49
73450 On ch=1 n=g#5 v=0
73585 On ch=1 n=f5 v=0
73625 On ch=1 n=g#4 v=38
73905 On ch=1 n=f#5 v=51
73935 Par ch=1 c=64 v=0
73955 On ch=1 n=f#6 v=80
74155 Par ch=1 c=64 v=127
74220 On ch=1 n=d#5 v=36
74230 On ch=1 n=g#6 v=0
74240 On ch=1 n=g#4 v=0
74350 On ch=1 n=f#5 v=0
74415 On ch=1 n=g#4 v=42
74525 On ch=1 n=d#5 v=0
74560 Par ch=1 c=64 v=0
74565 On ch=1 n=f6 v=76
74580 On ch=1 n=f5 v=47
74735 On ch=1 n=f#6 v=0
74740 Par ch=1 c=64 v=127
74760 On ch=1 n=c#5 v=37
74785 On ch=1 n=g#4 v=0
74810 On ch=1 n=f5 v=0
74930 On ch=1 n=c#5 v=0
74945 On ch=1 n=g#4 v=45
75060 Par ch=1 c=64 v=0
75075 On ch=1 n=d#6 v=73
75105 On ch=1 n=d#5 v=39
75250 On ch=1 n=f6 v=0
75285 On ch=1 n=c5 v=26
75310 Par ch=1 c=64 v=127
75315 On ch=1 n=g#4 v=0
75345 On ch=1 n=d#5 v=0
75465 On ch=1 n=g#4 v=43
75545 On ch=1 n=c5 v=0
75825 On ch=1 n=c#5 v=26
75865 Par ch=1 c=64 v=0
75885 On ch=1 n=g#4 v=0
75895 On ch=1 n=f6 v=63
76030 On ch=1 n=d#6 v=0
76175 On ch=1 n=g#4 v=23
76285 Par ch=1 c=64 v=127
76345 On ch=1 n=c#5 v=0
76525 On ch=1 n=f4 v=23
76560 On ch=1 n=g#4 v=0
76605 On ch=1 n=f4 v=0
76700 On ch=1 n=c#6 v=52
76820 On ch=1 n=f6 v=0
76910 On ch=1 n=g#3 v=28
76970 On ch=1 n=g#5 v=49
76975 Par ch=1 c=64 v=0
77165 On ch=1 n=c#6 v=0
77240 On ch=1 n=d#4 v=23
77280 On ch=1 n=g#3 v=0
77285 Par ch=1 c=64 v=127
77480 On ch=1 n=g#4 v=28
77510 On ch=1 n=d#4 v=0
77680 On ch=1 n=g#4 v=0
77690 On ch=1 n=c5 v=24
77770 On ch=1 n=g#5 v=0
77905 On ch=1 n=g#4 v=26
77940 On ch=1 n=c5 v=0
78110 On ch=1 n=g#4 v=0
78110 On ch=1 n=d#4 v=24
78210 On ch=1 n=d#4 v=0
78340 On ch=1 n=f#3 v=38
78345 Par ch=1 c=64 v=0
78375 On ch=1 n=a#5 v=64
78525 Par ch=1 c=64 v=127
78605 On ch=1 n=f#3 v=0
78750 On ch=1 n=f#4 v=30
78975 On ch=1 n=a#4 v=28
79180 On ch=1 n=c#5 v=30
79200 On ch=1 n=a#4 v=0
79200 On ch=1 n=f#4 v=0
79360 On ch=1 n=a#4 v=30
79415 On ch=1 n=c#5 v=0
79525 On ch=1 n=a#4 v=0
79535 On ch=1 n=f#4 v=35
79720 On ch=1 n=a#3 v=44
79725 On ch=1 n=f#4 v=0
79730 Par ch=1 c=64 v=0
79900 On ch=1 n=f4 v=38
79905 Par ch=1 c=64 v=127
79930 On ch=1 n=a#3 v=0
80095 On ch=1 n=a#4 v=42
80155 On ch=1 n=f4 v=0
80260 On ch=1 n=d5 v=49
80275 On ch=1 n=a#4 v=0
80435 On ch=1 n=a#4 v=40
80495 On ch=1 n=d5 v=0
80625 On ch=1 n=f4 v=43
80635 On ch=1 n=a#4 v=0
80720 On ch=1 n=f4 v=0
80780 On ch=1 n=a#5 v=0
80780 On ch=1 n=b5 v=63
80825 On ch=1 n=b5 v=0
80840 On ch=1 n=c#6 v=64
80880 Par ch=1 c=64 v=0
80905 On ch=1 n=b5 v=75
80915 On ch=1 n=a#3 v=42
81000 On ch=1 n=c#6 v=0
81050 Par ch=1 c=64 v=127
81070 On ch=1 n=a#3 v=0
81225 On ch=1 n=a#4 v=35
81335 On ch=1 n=a#5 v=72
81420 On ch=1 n=b5 v=0
81455 On ch=1 n=d5 v=40
81490 Par ch=1 c=64 v=0
81560 Par ch=1 c=64 v=127
81620 On ch=1 n=d#6 v=76
81635 On ch=1 n=g#5 v=55
81675 On ch=1 n=d5 v=0
81785 On ch=1 n=a#4 v=0
81815 On ch=1 n=a#5 v=0
81830 On ch=1 n=g#5 v=0
81830 On ch=1 n=d5 v=46
81900 On ch=1 n=f6 v=78
82005 On ch=1 n=a#4 v=38
82025 On ch=1 n=d5 v=0
82090 On ch=1 n=d#6 v=0
82120 On ch=1 n=a#4 v=0
82230 Par ch=1 c=64 v=0
82245 On ch=1 n=d#4 v=44
82260 On ch=1 n=f#6 v=75
82335 On ch=1 n=f6 v=0
82445 Par ch=1 c=64 v=127
82485 On ch=1 n=d#4 v=0
82585 On ch=1 n=f#5 v=56
82770 On ch=1 n=a#4 v=37
82830 On ch=1 n=f#5 v=0
82960 On ch=1 n=f6 v=72
82965 On ch=1 n=f4 v=45
82990 Par ch=1 c=64 v=0
83055 On ch=1 n=f#6 v=0
83060 On ch=1 n=a#4 v=0
83135 On ch=1 n=f5 v=52
83180 Par ch=1 c=64 v=127
83315 On ch=1 n=f4 v=0
83320 On ch=1 n=a4 v=37
83405 On ch=1 n=f5 v=0
83505 On ch=1 n=d#6 v=69
83505 On ch=1 n=f#4 v=40
83550 Par ch=1 c=64 v=0
83585 On ch=1 n=a4 v=0
83710 On ch=1 n=d#5 v=33
83760 On ch=1 n=f6 v=0
83785 Par ch=1 c=64 v=127
83855 On ch=1 n=f#4 v=0
83910 On ch=1 n=a#4 v=27
83995 On ch=1 n=d#5 v=0
84105 On ch=1 n=f6 v=65
84115 On ch=1 n=g#4 v=33
84120 Par ch=1 c=64 v=0
84155 On ch=1 n=a#4 v=0
84290 On ch=1 n=d#6 v=0
84330 On ch=1 n=f#5 v=35
84385 Par ch=1 c=64 v=127
84535 On ch=1 n=f#5 v=0
84535 On ch=1 n=g#4 v=0
84570 On ch=1 n=c5 v=25
84620 On ch=1 n=c5 v=0
84865 On ch=1 n=c#4 v=31
84890 Par ch=1 c=64 v=0
84900 On ch=1 n=c#6 v=53
85085 On ch=1 n=f6 v=0
85155 Par ch=1 c=64 v=127
85160 On ch=1 n=g#4 v=23
85190 On ch=1 n=c#4 v=0
85390 On ch=1 n=c#5 v=31
85415 On ch=1 n=g#4 v=0
85590 On ch=1 n=f5 v=37
85610 On ch=1 n=c#5 v=0
85835 On ch=1 n=c#5 v=27
85845 On ch=1 n=f5 v=0
85855 On ch=1 n=c#6 v=0
85855 On ch=1 n=c6 v=57
86010 On ch=1 n=c#6 v=65
86075 On ch=1 n=c6 v=0
86160 On ch=1 n=g#4 v=33
86190 On ch=1 n=d#6 v=66
86210 On ch=1 n=c#6 v=0
86345 On ch=1 n=c#6 v=71
86415 On ch=1 n=g#4 v=0
86475 On ch=1 n=c#5 v=0
86490 On ch=1 n=d#6 v=0
86540 On ch=1 n=d#4 v=26
86590 On ch=1 n=f6 v=69
86635 Par ch=1 c=64 v=0
86645 On ch=1 n=c#6 v=0
86840 On ch=1 n=g4 v=28
87075 Par ch=1 c=64 v=127
87080 On ch=1 n=c#5 v=25
87205 On ch=1 n=d#4 v=0
87285 On ch=1 n=g4 v=0
87320 On ch=1 n=d#5 v=25
87340 On ch=1 n=c#5 v=0
87555 On ch=1 n=c#5 v=24
87600 On ch=1 n=d#5 v=0
87865 On ch=1 n=g4 v=25
87910 On ch=1 n=c#5 v=0
87980 On ch=1 n=g4 v=0
88045 On ch=1 n=d#6 v=55
88135 On ch=1 n=d#6 v=0
88295 On ch=1 n=g#3 v=29
88310 On ch=1 n=d#6 v=53
88325 Par ch=1 c=64 v=0
88445 On ch=1 n=f6 v=0
88625 Par ch=1 c=64 v=127
88635 On ch=1 n=d#4 v=23
88680 On ch=1 n=g#3 v=0
88845 On ch=1 n=g#4 v=30
88875 On ch=1 n=d#4 v=0
89050 On ch=1 n=c5 v=28
89060 On ch=1 n=g#4 v=0
89260 On ch=1 n=g#4 v=24
89265 On ch=1 n=c5 v=0
89425 On ch=1 n=g#4 v=0
89480 On ch=1 n=d#4 v=26
89685 On ch=1 n=d#4 v=0
89685 Par ch=1 c=64 v=0
89695 On ch=1 n=g#3 v=29
89750 Par ch=1 c=67 v=127
89865 Par ch=1 c=64 v=127
89940 On ch=1 n=d#4 v=28
90020 On ch=1 n=g#3 v=0
90190 On ch=1 n=f#4 v=25
90530 On ch=1 n=a#4 v=33
90680 On ch=1 n=f#4 v=0
90685 On ch=1 n=d#4 v=0
90880 On ch=1 n=f#4 v=23
91000 On ch=1 n=d#6 v=0
91055 On ch=1 n=a#4 v=0
91150 On ch=1 n=d#4 v=28
91180 On ch=1 n=f#4 v=0
91510 On ch=1 n=g#3 v=27
91520 On ch=1 n=d#4 v=0
91605 On ch=1 n=g#5 v=55
91625 Par ch=1 c=64 v=0
91905 Par ch=1 c=64 v=127
91940 On ch=1 n=d#4 v=25
91945 On ch=1 n=g#3 v=0
92145 On ch=1 n=g#4 v=34
92165 On ch=1 n=d#4 v=0
92335 On ch=1 n=c5 v=29
92365 On ch=1 n=g#4 v=0
92510 On ch=1 n=g#4 v=37
92570 On ch=1 n=c5 v=0
92675 On ch=1 n=g#4 v=0
92680 On ch=1 n=d#4 v=32
92750 On ch=1 n=d#4 v=0
92800 On ch=1 n=a#5 v=55
92805 On ch=1 n=g#5 v=0
92855 On ch=1 n=a#5 v=0
92865 On ch=1 n=c6 v=61
92885 Par ch=1 c=64 v=0
92920 On ch=1 n=g#3 v=36
92940 On ch=1 n=a#5 v=66
93020 On ch=1 n=c6 v=0
93095 On ch=1 n=g#3 v=0
93100 Par ch=1 c=64 v=127
93210 On ch=1 n=g#4 v=40
93335 On ch=1 n=g#5 v=61
93410 On ch=1 n=a#5 v=0
93455 On ch=1 n=c5 v=29
93600 On ch=1 n=g#4 v=0
93615 On ch=1 n=c#6 v=76
93625 Par ch=1 c=67 v=0
93630 On ch=1 n=f#5 v=45
93635 On ch=1 n=c5 v=0
93785 On ch=1 n=f#5 v=0
93815 On ch=1 n=c5 v=33
93890 On ch=1 n=d#6 v=76
94005 On ch=1 n=g#4 v=33
94025 On ch=1 n=c5 v=0
94025 On ch=1 n=c#6 v=0
94240 On ch=1 n=g#4 v=0
94240 On ch=1 n=c#4 v=38
94270 On ch=1 n=f6 v=74
94310 Par ch=1 c=64 v=0
94365 On ch=1 n=d#6 v=0
94415 On ch=1 n=g#5 v=0
94540 On ch=1 n=g#4 v=30
94570 On ch=1 n=c#4 v=0
94570 Par ch=1 c=64 v=127
94750 On ch=1 n=c#5 v=39
94780 On ch=1 n=g#4 v=0
94895 On ch=1 n=c#5 v=0
94930 On ch=1 n=f5 v=46
95065 On ch=1 n=f5 v=0
95090 On ch=1 n=c#5 v=33
95225 On ch=1 n=c#5 v=0
95245 On ch=1 n=g#4 v=37
95440 On ch=1 n=c#4 v=43
95450 On ch=1 n=g#4 v=0
95450 On ch=1 n=g#6 v=73
95460 Par ch=1 c=64 v=0
95640 On ch=1 n=g#4 v=28
95675 Par ch=1 c=64 v=127
95680 On ch=1 n=c#4 v=0
95690 On ch=1 n=f6 v=0
95850 On ch=1 n=f5 v=40
95960 On ch=1 n=f5 v=0
96035 On ch=1 n=g#5 v=54
96125 On ch=1 n=g#4 v=0
96200 On ch=1 n=g#5 v=0
96225 On ch=1 n=f5 v=37
96350 On ch=1 n=f5 v=0
96385 On ch=1 n=g#4 v=41
96640 On ch=1 n=f#6 v=70
96640 On ch=1 n=f#5 v=41
96655 Par ch=1 c=64 v=0
96830 On ch=1 n=g#4 v=0
96830 On ch=1 n=g#6 v=0
96855 Par ch=1 c=64 v=127
96860 On ch=1 n=d#5 v=30
96975 On ch=1 n=f#5 v=0
97030 On ch=1 n=g#4 v=33
97080 On ch=1 n=d#5 v=0
97170 Par ch=1 c=64 v=0
97175 On ch=1 n=f6 v=74
97195 On ch=1 n=f5 v=43
97355 Par ch=1 c=64 v=127
97395 On ch=1 n=c#5 v=34
97400 On ch=1 n=f#6 v=0
97425 On ch=1 n=g#4 v=0
97485 On ch=1 n=f5 v=0
97565 On ch=1 n=g#4 v=41
97585 On ch=1 n=c#5 v=0
97745 Par ch=1 c=64 v=0
97765 On ch=1 n=d#6 v=67
97790 On ch=1 n=d#5 v=38
97865 On ch=1 n=f6 v=0
97950 Par ch=1 c=64 v=127
97960 On ch=1 n=g#4 v=0
98010 On ch=1 n=c5 v=27
98025 On ch=1 n=f6 v=51
98040 On ch=1 n=d#6 v=0
98115 On ch=1 n=d#5 v=0
98160 On ch=1 n=d#6 v=60
98215 On ch=1 n=f6 v=0
98295 On ch=1 n=g#4 v=32
98295 On ch=1 n=c#6 v=65
98315 On ch=1 n=d#6 v=0
98375 On ch=1 n=c5 v=0
98435 On ch=1 n=d#6 v=65
98565 On ch=1 n=c#6 v=0
98720 Par ch=1 c=64 v=0
98725 On ch=1 n=c#5 v=24
98790 On ch=1 n=f6 v=54
98820 On ch=1 n=g#4 v=0
98890 On ch=1 n=d#6 v=0
99115 On ch=1 n=g#4 v=24
99195 Par ch=1 c=64 v=127
99470 On ch=1 n=c#5 v=0
99555 On ch=1 n=f4 v=23
99625 On ch=1 n=g#4 v=0
99650 On ch=1 n=f4 v=0
99740 On ch=1 n=c#6 v=49
99940 On ch=1 n=f6 v=0
99980 On ch=1 n=g#3 v=27
100025 On ch=1 n=g#5 v=41
100055 Par ch=1 c=64 v=0
100160 On ch=1 n=c#6 v=0
100325 On ch=1 n=d#4 v=23
100330 Par ch=1 c=64 v=127
100350 On ch=1 n=g#3 v=0
100560 On ch=1 n=g#4 v=27
100570 On ch=1 n=d#4 v=0
100755 On ch=1 n=c5 v=24
100760 On ch=1 n=g#5 v=0
100765 On ch=1 n=g#4 v=0
100935 On ch=1 n=g#4 v=28
101010 On ch=1 n=c5 v=0
101145 On ch=1 n=g#4 v=0
101145 On ch=1 n=d#4 v=27
101200 On ch=1 n=d#4 v=0
101400 On ch=1 n=f#3 v=41
101435 Par ch=1 c=64 v=0
101465 On ch=1 n=a#5 v=62
101625 Par ch=1 c=64 v=127
101660 On ch=1 n=f#3 v=0
101875 On ch=1 n=f#4 v=23
102115 On ch=1 n=a#4 v=21
102235 On ch=1 n=f#4 v=0
102320 On ch=1 n=c#5 v=27
102330 On ch=1 n=a#4 v=0
102505 On ch=1 n=a#4 v=22
102535 On ch=1 n=c#5 v=0
102685 On ch=1 n=f#4 v=29
102715 On ch=1 n=a#4 v=0
102810 On ch=1 n=f#4 v=0
102870 Par ch=1 c=64 v=0
102880 On ch=1 n=a#3 v=35
103065 On ch=1 n=f4 v=26
103075 Par ch=1 c=64 v=127
103130 On ch=1 n=a#3 v=0
103260 On ch=1 n=a#4 v=34
103295 On ch=1 n=f4 v=0
103420 On ch=1 n=a#4 v=0
103430 On ch=1 n=d5 v=39
103605 On ch=1 n=a#4 v=35
103695 On ch=1 n=d5 v=0
103800 On ch=1 n=f4 v=36
103805 On ch=1 n=a#4 v=0
103880 On ch=1 n=f4 v=0
103935 On ch=1 n=a#5 v=0
103940 On ch=1 n=b5 v=63
103980 On ch=1 n=b5 v=0
104000 On ch=1 n=c#6 v=65
104060 Par ch=1 c=64 v=0
104070 On ch=1 n=b5 v=74
104085 On ch=1 n=a#3 v=41
104150 On ch=1 n=c#6 v=0
104210 On ch=1 n=a#3 v=0
104255 Par ch=1 c=64 v=127
104370 On ch=1 n=a#4 v=35
104500 On ch=1 n=a#5 v=66
104605 On ch=1 n=b5 v=0
104605 On ch=1 n=d5 v=36
104785 On ch=1 n=d#6 v=74
104815 On ch=1 n=g#5 v=50
104845 On ch=1 n=d5 v=0
104845 Par ch=1 c=64 v=0
104915 On ch=1 n=a#4 v=0
104925 Par ch=1 c=64 v=127
104950 On ch=1 n=a#5 v=0
105015 On ch=1 n=d5 v=43
105030 On ch=1 n=g#5 v=0
105090 On ch=1 n=f6 v=75
105215 On ch=1 n=a#4 v=37
105240 On ch=1 n=d5 v=0
105265 On ch=1 n=d#6 v=0
105330 On ch=1 n=a#4 v=0
105470 Par ch=1 c=64 v=0
105480 On ch=1 n=d#4 v=40
105500 On ch=1 n=f#6 v=71
105570 On ch=1 n=f6 v=0
105705 Par ch=1 c=64 v=127
105735 On ch=1 n=d#4 v=0
105865 On ch=1 n=f#5 v=54
106105 On ch=1 n=a#4 v=28
106135 On ch=1 n=f#5 v=0
106275 On ch=1 n=f6 v=69
106300 On ch=1 n=f4 v=32
106335 Par ch=1 c=64 v=0
106375 On ch=1 n=a#4 v=0
106390 On ch=1 n=f#6 v=0
106475 On ch=1 n=f5 v=40
106510 Par ch=1 c=64 v=127
106615 On ch=1 n=f4 v=0
106665 On ch=1 n=a4 v=27
106725 On ch=1 n=f5 v=0
106850 On ch=1 n=d#6 v=65
106855 On ch=1 n=f#4 v=32
106890 Par ch=1 c=64 v=0
106925 On ch=1 n=a4 v=0
107045 On ch=1 n=f6 v=0
107050 On ch=1 n=d#5 v=28
107090 Par ch=1 c=64 v=127
107170 On ch=1 n=f#4 v=0
107210 On ch=1 n=a#4 v=26
107320 On ch=1 n=d#5 v=0
107415 On ch=1 n=g#4 v=30
107435 On ch=1 n=f6 v=61
107455 On ch=1 n=a#4 v=0
107465 Par ch=1 c=64 v=0
107635 On ch=1 n=d#6 v=0
107660 On ch=1 n=f#5 v=35
107765 Par ch=1 c=64 v=127
107910 On ch=1 n=g#4 v=0
107915 On ch=1 n=f#5 v=0
107930 On ch=1 n=c5 v=22
107995 On ch=1 n=c5 v=0
108220 On ch=1 n=c#4 v=31
108315 On ch=1 n=c#6 v=54
108320 Par ch=1 c=64 v=0
108535 On ch=1 n=f6 v=0
108565 On ch=1 n=g#4 v=23
108585 On ch=1 n=c#4 v=0
108585 Par ch=1 c=64 v=127
108795 On ch=1 n=g#4 v=0
108795 On ch=1 n=c#5 v=29
108980 On ch=1 n=c#5 v=0
108990 On ch=1 n=f5 v=31
109175 On ch=1 n=c#6 v=0
109205 On ch=1 n=g5 v=42
109215 On ch=1 n=f5 v=0
109215 On ch=1 n=c#5 v=24
109340 On ch=1 n=g5 v=0
109340 On ch=1 n=g#5 v=50
109485 On ch=1 n=g#5 v=0
109505 On ch=1 n=a#5 v=55
109520 On ch=1 n=c#5 v=0
109525 On ch=1 n=g#4 v=23
109645 On ch=1 n=a#5 v=0
109660 On ch=1 n=g#5 v=57
109720 On ch=1 n=g#5 v=0
109825 On ch=1 n=g#4 v=0
109870 On ch=1 n=c#4 v=30
109900 On ch=1 n=f6 v=61
109925 Par ch=1 c=64 v=0
110160 Par ch=1 c=64 v=127
110170 On ch=1 n=c#4 v=0
110170 On ch=1 n=g#4 v=25
110410 On ch=1 n=c5 v=22
110625 On ch=1 n=g#4 v=0
110635 On ch=1 n=f#5 v=35
110670 On ch=1 n=c5 v=0
110870 On ch=1 n=c5 v=23
110895 On ch=1 n=f#5 v=0
111110 On ch=1 n=g#4 v=27
111145 On ch=1 n=c5 v=0
111245 On ch=1 n=d#6 v=54
111315 On ch=1 n=f6 v=0
111320 On ch=1 n=d#6 v=0
111485 On ch=1 n=g#4 v=0
111505 On ch=1 n=c#4 v=31
111505 On ch=1 n=d#6 v=60
111530 Par ch=1 c=64 v=0
111745 Par ch=1 c=64 v=127
111810 On ch=1 n=g#4 v=29
111815 On ch=1 n=c#4 v=0
112030 On ch=1 n=c5 v=22
112185 On ch=1 n=g#4 v=0
112240 On ch=1 n=c5 v=0
112240 On ch=1 n=f#5 v=34
112455 On ch=1 n=c5 v=23
112460 On ch=1 n=f#5 v=0
112650 On ch=1 n=c5 v=0
112660 On ch=1 n=g#4 v=27
112875 On ch=1 n=g#4 v=0
112895 On ch=1 n=c#4 v=39
112935 Par ch=1 c=64 v=0
112980 On ch=1 n=c#6 v=45
113115 On ch=1 n=d#6 v=0
113245 On ch=1 n=g#4 v=23
113270 On ch=1 n=c#4 v=0
113285 Par ch=1 c=64 v=127
113445 On ch=1 n=c#6 v=0
113470 On ch=1 n=c#5 v=30
113480 On ch=1 n=g#4 v=0
113645 On ch=1 n=f5 v=35
113680 On ch=1 n=c#5 v=0
113830 On ch=1 n=c#5 v=34
113905 On ch=1 n=f5 v=0
114005 On ch=1 n=c#5 v=0
114005 On ch=1 n=g#4 v=38
114065 On ch=1 n=g#4 v=0
114085 On ch=1 n=g#6 v=73
114245 On ch=1 n=g#3 v=48
114315 On ch=1 n=g#5 v=72
114380 Par ch=1 c=64 v=0
114505 On ch=1 n=d#4 v=40
114545 On ch=1 n=g#3 v=0
114545 On ch=1 n=g#6 v=0
114575 Par ch=1 c=64 v=127
114695 On ch=1 n=g#4 v=55
114765 On ch=1 n=d#4 v=0
114855 On ch=1 n=c5 v=47
114890 On ch=1 n=g#4 v=0
114995 On ch=1 n=g#5 v=0
115025 On ch=1 n=g#4 v=53
115035 On ch=1 n=c5 v=0
115165 On ch=1 n=d#4 v=50
115190 On ch=1 n=g#4 v=0
115225 On ch=1 n=a#5 v=64
115270 On ch=1 n=a#5 v=0
115280 On ch=1 n=c6 v=67
115325 On ch=1 n=d#4 v=0
115325 Par ch=1 c=64 v=0
115340 On ch=1 n=g#3 v=59
115340 On ch=1 n=a#5 v=85
115445 On ch=1 n=c6 v=0
115515 On ch=1 n=d#4 v=50
115550 On ch=1 n=g#3 v=0
115550 Par ch=1 c=64 v=127
115680 On ch=1 n=g4 v=61
115810 On ch=1 n=a5 v=82
115855 On ch=1 n=a#5 v=0
115935 Par ch=1 c=64 v=0
115940 On ch=1 n=c#5 v=50
115955 On ch=1 n=a#5 v=82
115990 On ch=1 n=a5 v=0
115990 On ch=1 n=g4 v=0
116040 Par ch=1 c=64 v=127
116120 On ch=1 n=d#4 v=0
116125 On ch=1 n=g4 v=60
116150 On ch=1 n=c#5 v=0
116275 On ch=1 n=d#4 v=57
116280 On ch=1 n=g4 v=0
116315 On ch=1 n=c6 v=83
116400 On ch=1 n=a#5 v=0
116415 Par ch=1 c=64 v=0
116440 On ch=1 n=d#4 v=0
116440 On ch=1 n=g#3 v=60
116445 On ch=1 n=g#5 v=77
116495 On ch=1 n=c6 v=0
116635 On ch=1 n=d#4 v=50
116670 Par ch=1 c=64 v=127
116685 On ch=1 n=g#3 v=0
116715 On ch=1 n=g#5 v=0
116825 On ch=1 n=g#4 v=56
116910 On ch=1 n=d#4 v=0
117040 On ch=1 n=c5 v=43
117110 On ch=1 n=g#4 v=0
117160 On ch=1 n=c7 v=86
117335 On ch=1 n=g#4 v=41
117475 On ch=1 n=c5 v=0
117505 On ch=1 n=d#4 v=45
117590 On ch=1 n=g#4 v=0
117745 On ch=1 n=c#4 v=58
117785 On ch=1 n=d#4 v=0
117800 Par ch=1 c=64 v=0
118020 On ch=1 n=g#4 v=54
118060 Par ch=1 c=64 v=127
118140 On ch=1 n=a#6 v=79
118150 On ch=1 n=c#4 v=0
118250 On ch=1 n=c7 v=0
118340 On ch=1 n=g#6 v=73
118340 On ch=1 n=c#5 v=49
118400 On ch=1 n=a#6 v=0
118450 On ch=1 n=g#6 v=0
118450 On ch=1 n=e6 v=74
118525 On ch=1 n=g#4 v=0
118535 On ch=1 n=e6 v=0
118565 On ch=1 n=c#6 v=82
118670 On ch=1 n=c#5 v=0
118670 On ch=1 n=e5 v=50
118685 On ch=1 n=a#5 v=73
118740 On ch=1 n=c#6 v=0
118805 On ch=1 n=a#5 v=0
118895 On ch=1 n=c#5 v=49
119025 On ch=1 n=e5 v=0
119110 On ch=1 n=g#4 v=52
119140 On ch=1 n=c#5 v=0
119190 On ch=1 n=g#4 v=0
119200 On ch=1 n=g#6 v=78
119270 On ch=1 n=g#6 v=0
119405 On ch=1 n=d#3 v=59
119470 Par ch=1 c=64 v=0
119485 On ch=1 n=d#5 v=56
119645 On ch=1 n=d#3 v=0
119655 Par ch=1 c=64 v=127
119810 On ch=1 n=d#4 v=39
120000 On ch=1 n=g#4 v=45
120185 On ch=1 n=c5 v=47
120205 On ch=1 n=d#4 v=0
120225 On ch=1 n=g#4 v=0
120370 On ch=1 n=g#4 v=48
120410 On ch=1 n=c5 v=0
120465 On ch=1 n=d#5 v=0
120530 On ch=1 n=g#4 v=0
120530 On ch=1 n=d#4 v=50
120585 On ch=1 n=d#4 v=0
120640 On ch=1 n=c6 v=73
120745 Par ch=1 c=64 v=0
120750 On ch=1 n=a#5 v=71
120760 On ch=1 n=d#3 v=62
120820 On ch=1 n=c6 v=0
120910 On ch=1 n=d#3 v=0
120925 Par ch=1 c=64 v=127
121040 On ch=1 n=d#4 v=49
121245 On ch=1 n=g4 v=50
121335 On ch=1 n=a5 v=73
121385 On ch=1 n=a#5 v=0
121445 Par ch=1 c=64 v=0
121475 On ch=1 n=c#5 v=49
121480 On ch=1 n=a#5 v=75
121515 On ch=1 n=g4 v=0
121525 On ch=1 n=a5 v=0
121560 Par ch=1 c=64 v=127
121570 On ch=1 n=d#4 v=0
121665 On ch=1 n=g4 v=53
121685 On ch=1 n=c#5 v=0
121810 On ch=1 n=g4 v=0
121810 On ch=1 n=d#4 v=47
121825 On ch=1 n=d#6 v=77
121915 On ch=1 n=a#5 v=0
121985 Par ch=1 c=64 v=0
121995 On ch=1 n=d#4 v=0
121995 On ch=1 n=g#5 v=70
122005 On ch=1 n=g#3 v=56
122110 On ch=1 n=d#6 v=0
122230 On ch=1 n=d#4 v=44
122320 Par ch=1 c=64 v=127
122330 On ch=1 n=g#3 v=0
122465 On ch=1 n=g#4 v=44
122615 On ch=1 n=d#4 v=0
122650 On ch=1 n=c5 v=47
122700 On ch=1 n=g#4 v=0
122835 On ch=1 n=g#5 v=0
122855 On ch=1 n=g#4 v=39
122990 On ch=1 n=c5 v=0
123080 On ch=1 n=d#4 v=41
123125 On ch=1 n=g#4 v=0
123180 On ch=1 n=d#4 v=0
123385 On ch=1 n=f#3 v=40
123450 Par ch=1 c=64 v=0
123480 On ch=1 n=a#5 v=56
123705 Par ch=1 c=64 v=127
123715 On ch=1 n=f#3 v=0
123940 On ch=1 n=f#4 v=23
124215 Par ch=1 c=67 v=127
124220 On ch=1 n=a#4 v=27
124585 On ch=1 n=c#6 v=54
124605 On ch=1 n=c#5 v=24
124645 On ch=1 n=f#4 v=0
124675 On ch=1 n=a#5 v=0
124720 On ch=1 n=a#4 v=0
124735 Par ch=1 c=64 v=0
124885 On ch=1 n=c6 v=51
124895 On ch=1 n=a#4 v=19
124980 On ch=1 n=c#6 v=0
125160 Par ch=1 c=64 v=127
125175 On ch=1 n=a#5 v=45
125195 On ch=1 n=f#4 v=23
125205 On ch=1 n=c#5 v=0
125245 On ch=1 n=c6 v=0
125285 On ch=1 n=a#4 v=0
125290 On ch=1 n=f#4 v=0
125560 On ch=1 n=g#3 v=27
125605 Par ch=1 c=64 v=0
125620 On ch=1 n=g#5 v=43
125735 On ch=1 n=a#5 v=0
125870 On ch=1 n=g#3 v=0
125870 Par ch=1 c=64 v=127
126075 On ch=1 n=g#4 v=27
126330 On ch=1 n=c5 v=23
126485 On ch=1 n=g#4 v=0
126550 On ch=1 n=d#5 v=26
126570 On ch=1 n=c5 v=0
126750 On ch=1 n=c5 v=20
126800 On ch=1 n=d#5 v=0
126935 On ch=1 n=g#4 v=27
126965 On ch=1 n=c5 v=0
127020 On ch=1 n=a#5 v=48
127050 On ch=1 n=a#5 v=0
127050 On ch=1 n=g#5 v=0
127080 On ch=1 n=c6 v=57
127155 On ch=1 n=a#5 v=59
127170 On ch=1 n=g#4 v=0
127175 Par ch=1 c=64 v=0
127190 On ch=1 n=d#4 v=24
127240 On ch=1 n=c6 v=0
127425 On ch=1 n=g#4 v=23
127465 Par ch=1 c=64 v=127
127520 On ch=1 n=g#5 v=53
127555 On ch=1 n=d#4 v=0
127570 On ch=1 n=a#5 v=0
127640 On ch=1 n=c5 v=20
127705 Par ch=1 c=64 v=0
127770 On ch=1 n=g#4 v=0
127800 On ch=1 n=c#6 v=64
127830 On ch=1 n=c5 v=0
127830 On ch=1 n=f#5 v=38
127865 Par ch=1 c=64 v=127
127990 On ch=1 n=f#5 v=0
128015 On ch=1 n=c5 v=23
128110 On ch=1 n=d#6 v=66
128210 On ch=1 n=c5 v=0
128220 On ch=1 n=g#4 v=27
128250 On ch=1 n=c#6 v=0
128330 On ch=1 n=g#5 v=0
128450 On ch=1 n=g#4 v=0
128470 Par ch=1 c=64 v=0
128485 On ch=1 n=c#4 v=30
128535 On ch=1 n=f6 v=65
128620 On ch=1 n=d#6 v=0
128810 On ch=1 n=c#4 v=0
128810 On ch=1 n=g#4 v=23
128845 Par ch=1 c=64 v=127
129025 On ch=1 n=c#5 v=31
129030 On ch=1 n=g#4 v=0
129155 On ch=1 n=c#5 v=0
129205 On ch=1 n=f5 v=29
129390 On ch=1 n=c#5 v=26
129405 On ch=1 n=f5 v=0
129520 On ch=1 n=c#5 v=0
129575 On ch=1 n=g#4 v=25
129740 On ch=1 n=g#4 v=0
129755 On ch=1 n=c#4 v=32
129765 Par ch=1 c=64 v=0
129775 On ch=1 n=g#6 v=63
129970 On ch=1 n=f6 v=0
129980 Par ch=1 c=64 v=127
129985 On ch=1 n=c#4 v=0
129985 On ch=1 n=g#4 v=24
130195 On ch=1 n=f5 v=32
130360 On ch=1 n=f5 v=0
130505 On ch=1 n=g#5 v=46
130650 On ch=1 n=g#5 v=0
130685 On ch=1 n=g#4 v=0
130785 On ch=1 n=f5 v=29
131010 On ch=1 n=f5 v=0
131010 On ch=1 n=g#4 v=24
131385 On ch=1 n=f#5 v=49
131430 On ch=1 n=f#6 v=62
131450 Par ch=1 c=64 v=0
131570 On ch=1 n=g#6 v=0
131625 Par ch=1 c=64 v=127
131650 On ch=1 n=g#4 v=0
131710 On ch=1 n=d#5 v=25
131900 On ch=1 n=g#4 v=31
131940 On ch=1 n=f#5 v=0
131985 On ch=1 n=d#5 v=0
132070 On ch=1 n=f5 v=51
132070 On ch=1 n=f6 v=65
132100 Par ch=1 c=64 v=0
132185 On ch=1 n=f#6 v=0
132265 Par ch=1 c=64 v=127
132295 On ch=1 n=g#4 v=0
132295 On ch=1 n=c#5 v=31
132360 On ch=1 n=f5 v=0
132440 On ch=1 n=g#4 v=37
132505 On ch=1 n=c#5 v=0
132620 On ch=1 n=d#6 v=61
132635 On ch=1 n=d#5 v=49
132645 Par ch=1 c=64 v=0
132670 On ch=1 n=f6 v=0
132825 Par ch=1 c=64 v=127
132840 On ch=1 n=g#4 v=0
132855 On ch=1 n=d#6 v=0
132860 On ch=1 n=c5 v=32
132870 On ch=1 n=f6 v=57
132955 On ch=1 n=d#5 v=0
132995 On ch=1 n=f6 v=0
133005 On ch=1 n=d#6 v=57
133110 On ch=1 n=d#6 v=0
133115 On ch=1 n=g#4 v=32
133120 On ch=1 n=c#6 v=60
133215 On ch=1 n=c5 v=0
133230 On ch=1 n=d#6 v=61
133370 On ch=1 n=c#6 v=0
133445 On ch=1 n=f6 v=58
133450 On ch=1 n=c#5 v=32
133475 Par ch=1 c=64 v=0
133540 On ch=1 n=d#6 v=0
133540 On ch=1 n=g#4 v=0
133745 On ch=1 n=g#4 v=23
133805 Par ch=1 c=64 v=127
133950 On ch=1 n=c#6 v=46
134045 On ch=1 n=c#5 v=0
134115 On ch=1 n=f4 v=23
134155 On ch=1 n=g#4 v=0
134200 On ch=1 n=f4 v=0
134225 On ch=1 n=f6 v=0
134495 On ch=1 n=g#3 v=27
134590 Par ch=1 c=64 v=0
134595 On ch=1 n=g#5 v=48
134715 On ch=1 n=c#6 v=0
134925 Par ch=1 c=64 v=127
134985 On ch=1 n=d#4 v=23
135020 On ch=1 n=g#3 v=0
135245 On ch=1 n=g#4 v=24
135270 On ch=1 n=d#4 v=0
135455 On ch=1 n=g#4 v=0
135460 On ch=1 n=c5 v=21
135505 On ch=1 n=g#5 v=0
135675 On ch=1 n=g#4 v=24
135715 On ch=1 n=c5 v=0
135890 On ch=1 n=g#4 v=0
135900 On ch=1 n=d#4 v=30
135955 On ch=1 n=d#4 v=0
136150 On ch=1 n=f#3 v=38
136185 Par ch=1 c=64 v=0
136225 On ch=1 n=a#5 v=56
136390 On ch=1 n=f#3 v=0
136390 Par ch=1 c=64 v=127
136595 On ch=1 n=f#4 v=23
136810 On ch=1 n=a#4 v=28
136990 On ch=1 n=f#4 v=0
137010 On ch=1 n=c#5 v=30
137040 On ch=1 n=a#4 v=0
137215 On ch=1 n=a#4 v=26
137280 On ch=1 n=c#5 v=0
137395 On ch=1 n=a#4 v=0
137410 On ch=1 n=f#4 v=36
137620 On ch=1 n=a#3 v=42
137645 On ch=1 n=f#4 v=0
137645 Par ch=1 c=64 v=0
137805 On ch=1 n=f4 v=40
137840 Par ch=1 c=64 v=127
137850 On ch=1 n=a#3 v=0
137995 On ch=1 n=a#4 v=41
138060 On ch=1 n=f4 v=0
138185 On ch=1 n=d5 v=43
138195 On ch=1 n=a#4 v=0
138370 On ch=1 n=a#4 v=40
138440 On ch=1 n=d5 v=0
138560 On ch=1 n=f4 v=39
138570 On ch=1 n=a#4 v=0
138630 On ch=1 n=f4 v=0
138680 On ch=1 n=a#5 v=0
138690 On ch=1 n=b5 v=59
138735 On ch=1 n=b5 v=0
138750 On ch=1 n=c#6 v=64
138810 Par ch=1 c=64 v=0
138825 On ch=1 n=b5 v=74
138825 On ch=1 n=a#3 v=46
138840 On ch=1 n=c#6 v=0
138965 Par ch=1 c=64 v=127
139000 On ch=1 n=a#3 v=0
139140 On ch=1 n=a#4 v=32
139255 On ch=1 n=a#5 v=66
139325 On ch=1 n=b5 v=0
139370 On ch=1 n=d5 v=42
139500 Par ch=1 c=64 v=0
139535 On ch=1 n=d#6 v=71
139555 On ch=1 n=g#5 v=55
139590 On ch=1 n=d5 v=0
139675 On ch=1 n=a#5 v=0
139745 On ch=1 n=d5 v=39
139750 Par ch=1 c=64 v=127
139760 On ch=1 n=g#5 v=0
139780 On ch=1 n=a#4 v=0
139830 On ch=1 n=f6 v=73
139940 On ch=1 n=a#4 v=37
139955 On ch=1 n=d5 v=0
139955 On ch=1 n=d#6 v=0
140050 On ch=1 n=a#4 v=0
140155 Par ch=1 c=64 v=0
140190 On ch=1 n=d#4 v=45
140230 On ch=1 n=f#6 v=68
140290 On ch=1 n=f6 v=0
140440 Par ch=1 c=64 v=127
140470 On ch=1 n=d#4 v=0
140590 On ch=1 n=f#5 v=56
140820 On ch=1 n=a#4 v=29
140855 On ch=1 n=f#5 v=0
140995 On ch=1 n=f6 v=67
141005 On ch=1 n=f4 v=41
141065 On ch=1 n=f#6 v=0
141070 Par ch=1 c=64 v=0
141140 On ch=1 n=a#4 v=0
141185 On ch=1 n=f5 v=51
141280 Par ch=1 c=64 v=127
141370 On ch=1 n=f4 v=0
141385 On ch=1 n=a4 v=32
141435 On ch=1 n=f5 v=0
141580 On ch=1 n=f#4 v=39
141605 On ch=1 n=d#6 v=55
141625 On ch=1 n=a4 v=0
141650 Par ch=1 c=64 v=0
141740 On ch=1 n=f6 v=0
141780 On ch=1 n=d#5 v=40
141920 Par ch=1 c=64 v=127
141930 On ch=1 n=f#4 v=0
141985 On ch=1 n=a#4 v=30
142120 On ch=1 n=d#5 v=0
142220 On ch=1 n=g#4 v=30
142230 On ch=1 n=f6 v=51
142245 On ch=1 n=a#4 v=0
142305 Par ch=1 c=64 v=0
142410 On ch=1 n=d#6 v=0
142500 On ch=1 n=f#5 v=34
142580 Par ch=1 c=64 v=127
142770 On ch=1 n=f#5 v=0
142770 On ch=1 n=g#4 v=0
142810 On ch=1 n=c5 v=21
142875 On ch=1 n=c5 v=0
143125 On ch=1 n=c#4 v=28
143200 Par ch=1 c=64 v=0
143205 On ch=1 n=c#6 v=44
143430 On ch=1 n=f6 v=0
143465 On ch=1 n=g#4 v=23
143470 On ch=1 n=c#4 v=0
143470 Par ch=1 c=64 v=127
143695 On ch=1 n=c#5 v=25
143700 On ch=1 n=g#4 v=0
143875 On ch=1 n=f5 v=36
143900 On ch=1 n=c#5 v=0
144070 On ch=1 n=c#6 v=0
144100 On ch=1 n=g5 v=34
144100 On ch=1 n=c#5 v=24
144115 On ch=1 n=f5 v=0
144235 On ch=1 n=g#5 v=47
144250 On ch=1 n=g5 v=0
144370 On ch=1 n=g#5 v=0
144395 On ch=1 n=g#4 v=23
144405 On ch=1 n=c#5 v=0
144405 On ch=1 n=a#5 v=47
144550 On ch=1 n=a#5 v=0
144565 On ch=1 n=g#5 v=48
144650 On ch=1 n=g#5 v=0
144750 On ch=1 n=g#4 v=0
144770 On ch=1 n=c#4 v=27
144800 On ch=1 n=f6 v=58
144820 Par ch=1 c=64 v=0
145050 Par ch=1 c=64 v=127
145070 On ch=1 n=g#4 v=29
145085 On ch=1 n=c#4 v=0
145310 On ch=1 n=c5 v=21
145530 On ch=1 n=g#4 v=0
145530 On ch=1 n=f#5 v=35
145580 On ch=1 n=c5 v=0
145765 On ch=1 n=c5 v=24
145785 On ch=1 n=f#5 v=0
145985 On ch=1 n=g#4 v=29
146040 On ch=1 n=c5 v=0
146150 On ch=1 n=d#6 v=51
146180 On ch=1 n=f6 v=0
146220 On ch=1 n=d#6 v=0
146365 Par ch=1 c=64 v=0
146380 On ch=1 n=g#4 v=0
146380 On ch=1 n=d#6 v=52
146395 On ch=1 n=c#4 v=27
146600 Par ch=1 c=64 v=127
146680 On ch=1 n=c#4 v=0
146685 On ch=1 n=g#4 v=26
146915 On ch=1 n=c5 v=21
147090 On ch=1 n=g#4 v=0
147125 On ch=1 n=f#5 v=33
147150 On ch=1 n=c5 v=0
147295 On ch=1 n=f#5 v=0
147340 On ch=1 n=c5 v=21
147530 On ch=1 n=c5 v=0
147550 On ch=1 n=g#4 v=25
147790 On ch=1 n=c#4 v=27
147795 On ch=1 n=g#4 v=0
147860 Par ch=1 c=64 v=0
147865 On ch=1 n=c#6 v=45
147975 On ch=1 n=d#6 v=0
148150 On ch=1 n=g#4 v=23
148160 On ch=1 n=c#4 v=0
148180 Par ch=1 c=64 v=127
148240 On ch=1 n=c#6 v=0
148360 On ch=1 n=c#5 v=28
148370 On ch=1 n=g#4 v=0
148545 On ch=1 n=f5 v=37
148550 On ch=1 n=c#5 v=0
148645 Par ch=1 c=67 v=0
148720 On ch=1 n=c#5 v=32
148790 On ch=1 n=f5 v=0
148900 On ch=1 n=g#4 v=39
148910 On ch=1 n=c#5 v=0
148955 On ch=1 n=g#4 v=0
148985 On ch=1 n=g#6 v=68
149150 On ch=1 n=g#3 v=47
149200 On ch=1 n=g#5 v=71
149235 Par ch=1 c=64 v=0
149390 Par ch=1 c=64 v=127
149420 On ch=1 n=d#4 v=38
149455 On ch=1 n=g#6 v=0
149475 On ch=1 n=g#3 v=0
149610 On ch=1 n=g#4 v=51
149670 On ch=1 n=d#4 v=0
149760 On ch=1 n=c5 v=46
149790 On ch=1 n=g#4 v=0
149940 On ch=1 n=g#5 v=0
149940 On ch=1 n=g#4 v=53
149950 On ch=1 n=c5 v=0
150090 On ch=1 n=d#4 v=47
150110 On ch=1 n=g#4 v=0
150155 On ch=1 n=a#5 v=72
150195 On ch=1 n=a#5 v=0
150215 On ch=1 n=c6 v=73
150255 On ch=1 n=d#4 v=0
150255 Par ch=1 c=64 v=0
150260 On ch=1 n=g#3 v=59
150275 On ch=1 n=a#5 v=71
150315 On ch=1 n=c6 v=0
150435 On ch=1 n=d#4 v=49
150460 On ch=1 n=g#3 v=0
150460 Par ch=1 c=64 v=127
150600 On ch=1 n=g4 v=54
150705 On ch=1 n=a5 v=80
150720 On ch=1 n=a#5 v=0
150795 Par ch=1 c=64 v=0
150840 On ch=1 n=a#5 v=80
150840 On ch=1 n=c#5 v=50
150880 On ch=1 n=a5 v=0
150880 On ch=1 n=g4 v=0
150930 Par ch=1 c=64 v=127
151005 On ch=1 n=d#4 v=0
151020 On ch=1 n=g4 v=52
151030 On ch=1 n=c#5 v=0
151165 On ch=1 n=d#4 v=55
151175 On ch=1 n=g4 v=0
151210 On ch=1 n=c6 v=76
151300 On ch=1 n=a#5 v=0
151315 Par ch=1 c=64 v=0
151340 On ch=1 n=d#4 v=0
151340 On ch=1 n=g#5 v=73
151340 On ch=1 n=g#3 v=55
151400 On ch=1 n=c6 v=0
151535 On ch=1 n=d#4 v=43
151585 On ch=1 n=g#3 v=0
151605 Par ch=1 c=64 v=127
151670 On ch=1 n=g#5 v=0
151740 On ch=1 n=g#4 v=49
151825 On ch=1 n=d#4 v=0
152020 On ch=1 n=c5 v=37
152075 On ch=1 n=g#4 v=0
152110 On ch=1 n=c7 v=72
152310 On ch=1 n=g#4 v=34
152465 On ch=1 n=c5 v=0
152505 On ch=1 n=d#4 v=35
152575 Par ch=1 c=64 v=0
152660 On ch=1 n=g#4 v=0
152725 On ch=1 n=c#4 v=43
152780 On ch=1 n=d#4 v=0
153060 On ch=1 n=g#4 v=29
153080 Par ch=1 c=64 v=127
153220 On ch=1 n=c#4 v=0
153265 On ch=1 n=a#6 v=57
153380 On ch=1 n=c7 v=0
153450 On ch=1 n=c#5 v=26
153460 On ch=1 n=g#6 v=49
153480 On ch=1 n=a#6 v=0
153540 On ch=1 n=g#6 v=0
153540 On ch=1 n=g#4 v=0
153590 On ch=1 n=e6 v=51
153660 On ch=1 n=e6 v=0
153720 On ch=1 n=c#6 v=54
153825 On ch=1 n=c#5 v=0
153835 On ch=1 n=e5 v=30
153840 On ch=1 n=a#5 v=50
153930 On ch=1 n=a#5 v=0
153940 On ch=1 n=c#6 v=0
154095 On ch=1 n=c#5 v=26
154170 On ch=1 n=e5 v=0
154290 On ch=1 n=c#5 v=0
154290 On ch=1 n=g#4 v=26
154340 On ch=1 n=g#4 v=0
154400 On ch=1 n=g#6 v=51
154460 On ch=1 n=g#6 v=0
154615 On ch=1 n=d#3 v=38
154640 Par ch=1 c=64 v=0
154705 On ch=1 n=d#5 v=36
154825 Par ch=1 c=64 v=127
154840 On ch=1 n=d#3 v=0
155025 On ch=1 n=d#4 v=30
155240 On ch=1 n=g#4 v=34
155325 On ch=1 n=d#4 v=0
155455 On ch=1 n=g#4 v=0
155455 On ch=1 n=c5 v=27
155610 On ch=1 n=d#5 v=0
155625 On ch=1 n=g#4 v=30
155710 On ch=1 n=c5 v=0
155820 On ch=1 n=g#4 v=0
155820 On ch=1 n=d#4 v=30
155870 On ch=1 n=d#4 v=0
155945 On ch=1 n=c6 v=54
156005 Par ch=1 c=64 v=0
156060 On ch=1 n=a#5 v=52
156060 On ch=1 n=d#3 v=40
156100 On ch=1 n=c6 v=0
156185 On ch=1 n=d#3 v=0
156200 Par ch=1 c=64 v=127
156350 On ch=1 n=d#4 v=30
156570 On ch=1 n=g4 v=36
156670 On ch=1 n=a5 v=56
156685 On ch=1 n=a#5 v=0
156735 Par ch=1 c=64 v=0
156800 On ch=1 n=c#5 v=33
156825 On ch=1 n=a#5 v=62
156835 On ch=1 n=g4 v=0
156865 On ch=1 n=a5 v=0
156890 Par ch=1 c=64 v=127
156920 On ch=1 n=d#4 v=0
157015 On ch=1 n=g4 v=42
157055 On ch=1 n=c#5 v=0
157185 On ch=1 n=g4 v=0
157205 On ch=1 n=d#4 v=33
157270 On ch=1 n=d#6 v=70
157400 On ch=1 n=a#5 v=0
157420 On ch=1 n=g#3 v=39
157435 Par ch=1 c=64 v=0
157440 On ch=1 n=d#4 v=0
157440 On ch=1 n=g#5 v=60
157555 On ch=1 n=d#6 v=0
157675 On ch=1 n=d#4 v=31
157730 Par ch=1 c=64 v=127
157745 On ch=1 n=g#3 v=0
157890 On ch=1 n=g#4 v=41
158040 On ch=1 n=d#4 v=0
158085 On ch=1 n=c5 v=40
158130 On ch=1 n=g#4 v=0
158190 On ch=1 n=g#5 v=0
158290 On ch=1 n=g#4 v=46
158390 On ch=1 n=c5 v=0
158485 On ch=1 n=d#4 v=46
158515 On ch=1 n=g#4 v=0
158585 On ch=1 n=d#4 v=0
158725 On ch=1 n=f#3 v=61
158770 Par ch=1 c=64 v=0
158800 On ch=1 n=a#5 v=66
158960 Par ch=1 c=64 v=127
158995 On ch=1 n=f#3 v=0
159165 On ch=1 n=f#4 v=42
159405 On ch=1 n=a#4 v=44
159650 On ch=1 n=c#6 v=76
159650 On ch=1 n=c#5 v=43
159720 On ch=1 n=a#4 v=0
159785 On ch=1 n=f#4 v=0
159785 On ch=1 n=a#5 v=0
159935 On ch=1 n=a#4 v=33
159950 On ch=1 n=c6 v=67
160045 On ch=1 n=c#5 v=0
160050 On ch=1 n=c#6 v=0
160175 On ch=1 n=f#4 v=45
160180 On ch=1 n=a#5 v=70
160190 On ch=1 n=a#4 v=0
160240 On ch=1 n=f#4 v=0
160295 On ch=1 n=c6 v=0
160370 On ch=1 n=g#3 v=44
160430 On ch=1 n=g#5 v=64
160455 Par ch=1 c=64 v=0
160565 On ch=1 n=a#5 v=0
160655 On ch=1 n=d#4 v=42
160685 Par ch=1 c=64 v=127
160705 On ch=1 n=g#3 v=0
160845 On ch=1 n=g#4 v=52
160920 On ch=1 n=d#4 v=0
161020 On ch=1 n=c5 v=48
161040 On ch=1 n=g#4 v=0
161205 On ch=1 n=g#4 v=46
161230 On ch=1 n=c5 v=0
161355 On ch=1 n=d#4 v=45
161370 On ch=1 n=g#4 v=0
161430 On ch=1 n=d#4 v=0
161430 On ch=1 n=a#5 v=66
161435 On ch=1 n=g#5 v=0
161475 On ch=1 n=a#5 v=0
161490 On ch=1 n=c6 v=63
161535 Par ch=1 c=64 v=0
161550 On ch=1 n=g#3 v=57
161550 On ch=1 n=a#5 v=69
161595 On ch=1 n=c6 v=0
161670 On ch=1 n=g#3 v=0
161675 Par ch=1 c=64 v=127
161810 On ch=1 n=g#4 v=48
161925 On ch=1 n=g#5 v=71
162000 On ch=1 n=a#5 v=0
162035 On ch=1 n=c5 v=42
162170 Par ch=1 c=64 v=0
162190 On ch=1 n=c#6 v=80
162205 On ch=1 n=f#5 v=62
162250 On ch=1 n=c5 v=0
162280 Par ch=1 c=64 v=127
162310 On ch=1 n=g#4 v=0
162370 On ch=1 n=c5 v=35
162400 On ch=1 n=f#5 v=0
162450 On ch=1 n=d#6 v=81
162530 On ch=1 n=c#6 v=0
162530 On ch=1 n=g#5 v=0
162540 On ch=1 n=g#4 v=48
162565 On ch=1 n=c5 v=0
162740 On ch=1 n=g#4 v=0
162740 On ch=1 n=c#4 v=57
162750 Par ch=1 c=64 v=0
162755 On ch=1 n=f6 v=80
162850 On ch=1 n=d#6 v=0
162950 On ch=1 n=g#4 v=45
162985 Par ch=1 c=64 v=127
163020 On ch=1 n=c#4 v=0
163150 On ch=1 n=c#5 v=54
163195 On ch=1 n=g#4 v=0
163305 On ch=1 n=f5 v=55
163330 On ch=1 n=c#5 v=0
163465 On ch=1 n=f5 v=0
163475 On ch=1 n=c#5 v=48
163615 On ch=1 n=g#4 v=47
163635 On ch=1 n=c#5 v=0
163800 On ch=1 n=g#6 v=79
163805 On ch=1 n=c#4 v=55
163815 On ch=1 n=g#4 v=0
163835 Par ch=1 c=64 v=0
163885 On ch=1 n=f6 v=0
163990 On ch=1 n=g#4 v=46
164025 Par ch=1 c=64 v=127
164040 On ch=1 n=c#4 v=0
164180 On ch=1 n=f5 v=57
164360 On ch=1 n=f5 v=0
164390 On ch=1 n=g#5 v=70
164580 On ch=1 n=f5 v=56
164610 On ch=1 n=g#4 v=0
164765 On ch=1 n=g#4 v=58
164775 On ch=1 n=f5 v=0
164850 On ch=1 n=g#5 v=0
165070 On ch=1 n=f#5 v=58
165090 On ch=1 n=f#6 v=81
165100 Par ch=1 c=64 v=0
165250 On ch=1 n=g#6 v=0
165330 On ch=1 n=g#4 v=0
165330 Par ch=1 c=64 v=127
165365 On ch=1 n=d#5 v=40
165510 On ch=1 n=g#4 v=49
165525 On ch=1 n=f#5 v=0
165580 On ch=1 n=d#5 v=0
165660 Par ch=1 c=64 v=0
165670 On ch=1 n=f6 v=78
165675 On ch=1 n=f5 v=55
165860 On ch=1 n=c#5 v=41
165865 Par ch=1 c=64 v=127
165875 On ch=1 n=g#4 v=0
165875 On ch=1 n=f#6 v=0
165970 On ch=1 n=f5 v=0
166040 On ch=1 n=g#4 v=49
166080 On ch=1 n=c#5 v=0
166245 Par ch=1 c=64 v=0
166255 On ch=1 n=d#6 v=71
166260 On ch=1 n=d#5 v=48
166360 On ch=1 n=f6 v=0
166480 Par ch=1 c=64 v=127
166495 On ch=1 n=g#4 v=0
166505 On ch=1 n=c5 v=33
166510 On ch=1 n=f6 v=59
166540 On ch=1 n=d#6 v=0
166635 On ch=1 n=d#5 v=0
166645 On ch=1 n=d#6 v=61
166735 On ch=1 n=f6 v=0
166795 On ch=1 n=c#6 v=68
166815 On ch=1 n=g#4 v=31
166840 On ch=1 n=d#6 v=0
166890 On ch=1 n=c5 v=0
166950 On ch=1 n=d#6 v=68
167165 Par ch=1 c=64 v=0
167170 On ch=1 n=c#5 v=30
167255 On ch=1 n=c#6 v=0
167285 On ch=1 n=g#4 v=0
167285 On ch=1 n=f6 v=58
167425 On ch=1 n=d#6 v=0
167535 On ch=1 n=g#4 v=23
167615 Par ch=1 c=64 v=127
167720 On ch=1 n=c#5 v=0
167735 On ch=1 n=c#6 v=51
167885 On ch=1 n=f4 v=23
167915 On ch=1 n=g#4 v=0
167945 On ch=1 n=f4 v=0
168015 On ch=1 n=f6 v=0
168185 On ch=1 n=g#3 v=27
168300 Par ch=1 c=64 v=0
168305 On ch=1 n=g#5 v=45
168430 On ch=1 n=c#6 v=0
168575 On ch=1 n=d#4 v=23
168615 Par ch=1 c=64 v=127
168630 On ch=1 n=g#3 v=0
168810 On ch=1 n=g#4 v=32
168825 On ch=1 n=d#4 v=0
169005 On ch=1 n=c5 v=25
169020 On ch=1 n=g#4 v=0
169020 On ch=1 n=g#5 v=0
169180 On ch=1 n=g#4 v=33
169250 On ch=1 n=c5 v=0
169365 On ch=1 n=g#4 v=0
169375 On ch=1 n=d#4 v=29
169420 On ch=1 n=d#4 v=0
169575 On ch=1 n=f#3 v=49
169580 Par ch=1 c=64 v=0
169585 On ch=1 n=a#5 v=64
169765 Par ch=1 c=64 v=127
169785 On ch=1 n=f#3 v=0
169960 On ch=1 n=f#4 v=31
170170 On ch=1 n=a#4 v=32
170360 On ch=1 n=f#4 v=0
170370 On ch=1 n=c#5 v=36
170380 On ch=1 n=a#4 v=0
170560 On ch=1 n=a#4 v=33
170590 On ch=1 n=c#5 v=0
170730 On ch=1 n=f#4 v=35
170740 On ch=1 n=a#4 v=0
170855 On ch=1 n=f#4 v=0
170905 On ch=1 n=a#3 v=44
170915 Par ch=1 c=64 v=0
171080 On ch=1 n=f4 v=39
171100 Par ch=1 c=64 v=127
171155 On ch=1 n=a#3 v=0
171270 On ch=1 n=a#4 v=46
171360 On ch=1 n=f4 v=0
171455 On ch=1 n=d5 v=51
171485 On ch=1 n=a#4 v=0
171640 On ch=1 n=a#4 v=44
171695 On ch=1 n=d5 v=0
171835 On ch=1 n=f4 v=43
171875 On ch=1 n=a#4 v=0
171940 On ch=1 n=f4 v=0
171960 On ch=1 n=a#5 v=0
171965 On ch=1 n=b5 v=58
171995 On ch=1 n=b5 v=0
172010 On ch=1 n=c#6 v=71
172065 Par ch=1 c=64 v=0
172080 On ch=1 n=b5 v=78
172080 On ch=1 n=a#3 v=55
172115 On ch=1 n=c#6 v=0
172220 On ch=1 n=a#3 v=0
172230 Par ch=1 c=64 v=127
172370 On ch=1 n=a#4 v=42
172495 On ch=1 n=a#5 v=72
172590 On ch=1 n=b5 v=0
172590 On ch=1 n=d5 v=49
172700 Par ch=1 c=64 v=0
172770 On ch=1 n=d#6 v=77
172770 On ch=1 n=g#5 v=61
172820 On ch=1 n=d5 v=0
172830 Par ch=1 c=64 v=127
172890 On ch=1 n=a#5 v=0
172965 On ch=1 n=d5 v=50
172975 On ch=1 n=g#5 v=0
173005 On ch=1 n=a#4 v=0
173045 On ch=1 n=f6 v=81
173155 On ch=1 n=a#4 v=43
173190 On ch=1 n=d5 v=0
173205 On ch=1 n=d#6 v=0
173265 On ch=1 n=a#4 v=0
173370 Par ch=1 c=64 v=0
173375 On ch=1 n=d#4 v=50
173420 On ch=1 n=f#6 v=77
173485 On ch=1 n=f6 v=0
173585 Par ch=1 c=64 v=127
173625 On ch=1 n=d#4 v=0
173720 On ch=1 n=f#5 v=59
173910 On ch=1 n=a#4 v=38
173970 On ch=1 n=f#5 v=0
174090 On ch=1 n=f6 v=74
174095 On ch=1 n=f4 v=49
174140 Par ch=1 c=64 v=0
174170 On ch=1 n=f#6 v=0
174175 On ch=1 n=a#4 v=0
174270 On ch=1 n=f5 v=53
174345 Par ch=1 c=64 v=127
174475 On ch=1 n=a4 v=35
174505 On ch=1 n=f4 v=0
174555 On ch=1 n=f5 v=0
174665 On ch=1 n=d#6 v=65
174665 On ch=1 n=f#4 v=42
174680 On ch=1 n=a4 v=0
174700 Par ch=1 c=64 v=0
174855 On ch=1 n=f6 v=0
174855 On ch=1 n=d#5 v=40
174950 Par ch=1 c=64 v=127
175000 On ch=1 n=f#4 v=0
175055 On ch=1 n=a#4 v=32
175145 On ch=1 n=d#5 v=0
175240 On ch=1 n=g#4 v=37
175270 On ch=1 n=f6 v=64
175300 Par ch=1 c=64 v=0
175325 On ch=1 n=a#4 v=0
175460 On ch=1 n=d#6 v=0
175490 On ch=1 n=f#5 v=37
175615 Par ch=1 c=64 v=127
175710 On ch=1 n=f#5 v=0
175745 On ch=1 n=c5 v=25
175770 On ch=1 n=g#4 v=0
175805 On ch=1 n=c5 v=0
176035 On ch=1 n=c#4 v=32
176075 Par ch=1 c=64 v=0
176100 On ch=1 n=c#6 v=54
176300 On ch=1 n=f6 v=0
176360 On ch=1 n=g#4 v=23
176390 Par ch=1 c=64 v=127
176470 On ch=1 n=c#4 v=0
176635 On ch=1 n=c#5 v=25
176735 On ch=1 n=g#4 v=0
176820 On ch=1 n=f5 v=37
176850 On ch=1 n=c#5 v=0
177025 On ch=1 n=c#6 v=0
177040 On ch=1 n=g5 v=43
177040 On ch=1 n=c#5 v=29
177055 On ch=1 n=f5 v=0
177190 On ch=1 n=g#5 v=57
177210 On ch=1 n=g5 v=0
177340 On ch=1 n=g#5 v=0
177355 On ch=1 n=a#5 v=56
177355 On ch=1 n=g#4 v=26
177370 On ch=1 n=c#5 v=0
177500 On ch=1 n=a#5 v=0
177510 On ch=1 n=g#5 v=51
177580 On ch=1 n=g#5 v=0
177725 On ch=1 n=c#4 v=30
177730 On ch=1 n=g#4 v=0
177750 On ch=1 n=f6 v=64
177805 Par ch=1 c=64 v=0
177990 Par ch=1 c=64 v=127
178025 On ch=1 n=g#4 v=31
178055 On ch=1 n=c#4 v=0
178280 On ch=1 n=c5 v=23
178510 On ch=1 n=f#5 v=39
178550 On ch=1 n=g#4 v=0
178565 On ch=1 n=c5 v=0
178755 On ch=1 n=c5 v=28
178795 On ch=1 n=f#5 v=0
179020 On ch=1 n=g#4 v=31
179100 On ch=1 n=c5 v=0
179200 On ch=1 n=d#6 v=55
179260 On ch=1 n=f6 v=0
179300 On ch=1 n=d#6 v=0
179480 On ch=1 n=d#6 v=58
179495 On ch=1 n=c#4 v=32
179520 Par ch=1 c=64 v=0
179535 On ch=1 n=g#4 v=0
179760 Par ch=1 c=64 v=127
179890 On ch=1 n=g#4 v=25
179895 On ch=1 n=c#4 v=0
180145 On ch=1 n=c5 v=22
180330 On ch=1 n=g#4 v=0
180380 On ch=1 n=f#5 v=36
180420 On ch=1 n=c5 v=0
180620 On ch=1 n=c5 v=20
180630 On ch=1 n=f#5 v=0
180795 Par ch=1 c=67 v=127
180850 On ch=1 n=c5 v=0
180860 On ch=1 n=g#4 v=23
181105 On ch=1 n=g#4 v=0
181115 On ch=1 n=c#4 v=27
181130 Par ch=1 c=64 v=0
181205 Par ch=1 c=64 v=127
181395 On ch=1 n=g#4 v=25
181400 On ch=1 n=c#4 v=0
181675 On ch=1 n=c5 v=19
182025 On ch=1 n=f#5 v=33
182105 On ch=1 n=g#4 v=0
182125 On ch=1 n=c5 v=0
182440 On ch=1 n=c5 v=19
182495 On ch=1 n=f#5 v=0
182870 On ch=1 n=d#6 v=0
182945 On ch=1 n=g#4 v=23
183135 On ch=1 n=c5 v=0
183685 Par ch=1 c=64 v=0
183690 On ch=1 n=c#4 v=31
183730 On ch=1 n=g#4 v=0
183815 On ch=1 n=g#5 v=46
183855 Par ch=1 c=64 v=127
183915 On ch=1 n=g#5 v=0
183945 On ch=1 n=a5 v=48
183955 On ch=1 n=g#4 v=23
183965 On ch=1 n=c#4 v=0
184035 On ch=1 n=a5 v=0
184055 On ch=1 n=g#5 v=50
184070 On ch=1 n=g#4 v=0
184110 On ch=1 n=c#5 v=29
184115 On ch=1 n=g#5 v=0
184160 On ch=1 n=c#5 v=0
184160 On ch=1 n=g5 v=39
184205 On ch=1 n=e5 v=36
184230 On ch=1 n=g#5 v=62
184240 On ch=1 n=g5 v=0
184305 On ch=1 n=c#5 v=36
184320 On ch=1 n=c#6 v=60
184340 On ch=1 n=g#5 v=0
184340 On ch=1 n=e5 v=0
184385 On ch=1 n=c#6 v=0
184395 On ch=1 n=c#5 v=0
184395 On ch=1 n=e6 v=62
184405 On ch=1 n=g#4 v=38
184465 Par ch=1 c=64 v=0
184470 On ch=1 n=g#4 v=0
184500 On ch=1 n=d#6 v=66
184505 On ch=1 n=e6 v=0
184520 On ch=1 n=e4 v=36
184580 On ch=1 n=d#6 v=0
184590 Par ch=1 c=64 v=127
184595 On ch=1 n=c#6 v=60
184635 On ch=1 n=c#6 v=0
184635 On ch=1 n=e4 v=0
184635 On ch=1 n=g#4 v=41
184645 On ch=1 n=d#6 v=63
184725 On ch=1 n=d#6 v=0
184735 On ch=1 n=g#4 v=0
184735 On ch=1 n=c#6 v=71
184740 On ch=1 n=c#5 v=36
184780 On ch=1 n=c#6 v=0
184810 On ch=1 n=c#5 v=0
184810 On ch=1 n=c6 v=60
184860 On ch=1 n=e5 v=37
184870 On ch=1 n=c#6 v=71
184900 On ch=1 n=c6 v=0
184945 On ch=1 n=e6 v=63
184965 On ch=1 n=e5 v=0
184970 On ch=1 n=c#6 v=0
184975 On ch=1 n=c#5 v=34
185030 On ch=1 n=g#6 v=66
185035 On ch=1 n=e6 v=0
185045 On ch=1 n=c#5 v=0
185050 On ch=1 n=g#4 v=41
185080 On ch=1 n=g#6 v=0
185115 On ch=1 n=g#4 v=0
185180 On ch=1 n=c#4 v=55
185200 Par ch=1 c=64 v=0
185235 On ch=1 n=g#5 v=54
185270 Par ch=1 c=64 v=127
185300 On ch=1 n=g#5 v=0
185305 On ch=1 n=c#4 v=0
185305 On ch=1 n=g#4 v=36
185305 On ch=1 n=a5 v=62
185380 On ch=1 n=a5 v=0
185400 On ch=1 n=g#5 v=61
185435 On ch=1 n=g#4 v=0
185435 On ch=1 n=c#5 v=39
185450 On ch=1 n=g#5 v=0
185475 Par ch=1 c=67 v=0
185485 On ch=1 n=g5 v=49
185495 On ch=1 n=c#5 v=0
185545 On ch=1 n=e5 v=43
185550 On ch=1 n=g#5 v=66
185560 On ch=1 n=g5 v=0
185645 On ch=1 n=e5 v=0
185650 On ch=1 n=g#5 v=0
185650 On ch=1 n=c#5 v=37
185650 On ch=1 n=c#6 v=59
185695 On ch=1 n=c#6 v=0
185695 On ch=1 n=e6 v=67
185710 On ch=1 n=c#5 v=0
185725 On ch=1 n=g#4 v=38
185775 Par ch=1 c=64 v=0
185790 On ch=1 n=g#4 v=0
185800 On ch=1 n=d#6 v=68
185810 On ch=1 n=e6 v=0
185820 On ch=1 n=e4 v=44
185870 On ch=1 n=d#6 v=0
185870 Par ch=1 c=64 v=127
185890 On ch=1 n=c#6 v=67
185925 On ch=1 n=e4 v=0
185940 On ch=1 n=c#6 v=0
185940 On ch=1 n=g#4 v=43
185945 On ch=1 n=d#6 v=65
186030 On ch=1 n=c#6 v=74
186035 On ch=1 n=d#6 v=0
186050 On ch=1 n=c#5 v=30
186055 On ch=1 n=g#4 v=0
186085 On ch=1 n=c#6 v=0
186110 On ch=1 n=c#5 v=0
186110 On ch=1 n=c6 v=60
186150 On ch=1 n=e5 v=39
186185 On ch=1 n=c#6 v=68
186220 On ch=1 n=c6 v=0
186240 On ch=1 n=e5 v=0
186255 On ch=1 n=e6 v=67
186255 On ch=1 n=c#5 v=41
186300 On ch=1 n=c#6 v=0
186330 On ch=1 n=c#5 v=0
186330 On ch=1 n=g#4 v=35
186340 On ch=1 n=g#6 v=69
186365 On ch=1 n=e6 v=0
186430 On ch=1 n=g#4 v=0
186435 Par ch=1 c=64 v=0
186440 On ch=1 n=g#6 v=0
186440 On ch=1 n=d#4 v=51
186530 On ch=1 n=a4 v=44
186530 On ch=1 n=a5 v=57
186545 Par ch=1 c=64 v=127
186570 On ch=1 n=d#4 v=0
186605 On ch=1 n=c#6 v=75
186635 On ch=1 n=a5 v=0
186665 On ch=1 n=c#5 v=45
186680 On ch=1 n=a4 v=0
186690 On ch=1 n=d#6 v=68
186720 On ch=1 n=c#6 v=0
186745 On ch=1 n=c#5 v=0
186760 On ch=1 n=d#6 v=0
186760 On ch=1 n=f#6 v=74
186760 On ch=1 n=f#5 v=50
186795 On ch=1 n=f#6 v=0
186850 On ch=1 n=a6 v=71
186880 On ch=1 n=f#5 v=0
186890 On ch=1 n=c#5 v=40
186935 On ch=1 n=c#7 v=78
186950 On ch=1 n=a6 v=0
186960 On ch=1 n=c#5 v=0
186970 On ch=1 n=a4 v=33
187010 On ch=1 n=d#7 v=78
187025 On ch=1 n=c#7 v=0
187045 On ch=1 n=d#7 v=0
187080 On ch=1 n=a4 v=0
187110 On ch=1 n=b7 v=84
187110 On ch=1 n=f#4 v=46
187135 Par ch=1 c=64 v=0
187200 On ch=1 n=a7 v=79
187205 Par ch=1 c=64 v=127
187230 On ch=1 n=b7 v=0
187245 On ch=1 n=c#5 v=43
187255 On ch=1 n=f#4 v=0
187275 On ch=1 n=g#7 v=81
187300 On ch=1 n=a7 v=0
187335 On ch=1 n=d#5 v=45
187340 On ch=1 n=c#5 v=0
187345 On ch=1 n=f#7 v=76
187365 On ch=1 n=g#7 v=0
187395 On ch=1 n=f#7 v=0
187410 On ch=1 n=d#5 v=0
187410 On ch=1 n=e7 v=76
187450 On ch=1 n=a5 v=46
187485 On ch=1 n=e7 v=0
187485 On ch=1 n=d#7 v=78
187530 On ch=1 n=a5 v=0
187535 On ch=1 n=d#5 v=46
187565 On ch=1 n=f#7 v=76
187590 On ch=1 n=d#5 v=0
187590 On ch=1 n=d#7 v=0
187605 On ch=1 n=c#5 v=46
187630 On ch=1 n=c#5 v=0
187630 On ch=1 n=c#7 v=75
187665 On ch=1 n=f#7 v=0
187665 Par ch=1 c=64 v=0
187695 On ch=1 n=c#7 v=0
187695 On ch=1 n=c7 v=70
187725 On ch=1 n=g#3 v=63
187740 On ch=1 n=c7 v=0
187755 Par ch=1 c=64 v=127
187770 On ch=1 n=d#7 v=73
187830 On ch=1 n=d#7 v=0
187830 On ch=1 n=g#3 v=0
187845 On ch=1 n=d#4 v=45
187860 On ch=1 n=a6 v=72
187905 On ch=1 n=a6 v=0
187925 On ch=1 n=f#4 v=46
187935 On ch=1 n=g#6 v=76
187940 On ch=1 n=d#4 v=0
188000 On ch=1 n=f#4 v=0
188010 On ch=1 n=g#6 v=0
188010 On ch=1 n=f#6 v=75
188010 On ch=1 n=c5 v=29
188080 On ch=1 n=a6 v=64
188095 On ch=1 n=f#6 v=0
188115 On ch=1 n=a6 v=0
188115 On ch=1 n=c5 v=0
188140 On ch=1 n=f#4 v=43
188145 On ch=1 n=e6 v=76
188200 On ch=1 n=e6 v=0
188205 On ch=1 n=f#4 v=0
188220 On ch=1 n=d#4 v=40
188230 On ch=1 n=d#6 v=71
188295 On ch=1 n=d#4 v=0
188300 Par ch=1 c=64 v=0
188310 On ch=1 n=f#6 v=76
188320 On ch=1 n=d#6 v=0
188335 On ch=1 n=g#3 v=48
188380 On ch=1 n=c#6 v=65
188390 On ch=1 n=f#6 v=0
188410 Par ch=1 c=64 v=127
188440 On ch=1 n=c#6 v=0
188440 On ch=1 n=g#3 v=0
188445 On ch=1 n=d#4 v=42
188455 On ch=1 n=c6 v=67
188500 On ch=1 n=c6 v=0
188525 On ch=1 n=d#6 v=69
188545 On ch=1 n=f#4 v=44
188560 On ch=1 n=d#4 v=0
188590 On ch=1 n=d#6 v=0
188605 On ch=1 n=f#4 v=0
188615 On ch=1 n=a5 v=65
188630 On ch=1 n=c5 v=29
188680 On ch=1 n=a5 v=0
188700 On ch=1 n=g#5 v=65
188755 On ch=1 n=g#5 v=0
188755 On ch=1 n=c5 v=0
188770 On ch=1 n=b5 v=71
188775 On ch=1 n=f#4 v=36
188845 On ch=1 n=f#4 v=0
188870 On ch=1 n=d#4 v=33
188875 On ch=1 n=a5 v=59
188890 On ch=1 n=b5 v=0
188915 On ch=1 n=d#4 v=0
188980 Par ch=1 c=64 v=0
189010 On ch=1 n=c#4 v=54
189095 On ch=1 n=a5 v=0
189115 On ch=1 n=g#5 v=52
189130 Par ch=1 c=64 v=127
189190 On ch=1 n=c#4 v=0
189200 On ch=1 n=g#5 v=0
189205 On ch=1 n=g#4 v=34
189215 On ch=1 n=a5 v=55
189280 On ch=1 n=a5 v=0
189295 On ch=1 n=g#5 v=53
189315 On ch=1 n=g#4 v=0
189325 On ch=1 n=c#5 v=41
189345 On ch=1 n=g#5 v=0
189385 On ch=1 n=c#5 v=0
189385 On ch=1 n=g5 v=50
189445 On ch=1 n=g#5 v=62
189445 On ch=1 n=e5 v=41
189475 On ch=1 n=g5 v=0
189550 On ch=1 n=e5 v=0
189550 On ch=1 n=c#6 v=65
189555 On ch=1 n=c#5 v=37
189565 On ch=1 n=g#5 v=0
189610 On ch=1 n=c#5 v=0
189610 On ch=1 n=c#6 v=0
189620 On ch=1 n=e6 v=62
189635 On ch=1 n=g#4 v=37
189690 On ch=1 n=g#4 v=0
189690 Par ch=1 c=64 v=0
189710 On ch=1 n=d#6 v=71
189725 On ch=1 n=e6 v=0
189725 On ch=1 n=e4 v=43
189790 On ch=1 n=d#6 v=0
189795 Par ch=1 c=64 v=127
189800 On ch=1 n=c#6 v=67
189845 On ch=1 n=e4 v=0
189850 On ch=1 n=c#6 v=0
189855 On ch=1 n=g#4 v=41
189860 On ch=1 n=d#6 v=67
189930 On ch=1 n=c#5 v=36
189945 On ch=1 n=d#6 v=0
189945 On ch=1 n=c#6 v=73
189960 On ch=1 n=g#4 v=0
189990 On ch=1 n=c#6 v=0
189990 On ch=1 n=c#5 v=0
190010 On ch=1 n=c6 v=66
190040 On ch=1 n=e5 v=43
190075 On ch=1 n=c#6 v=78
190105 On ch=1 n=c6 v=0
190130 On ch=1 n=e5 v=0
190130 On ch=1 n=c#5 v=42
190145 On ch=1 n=e6 v=68
190185 On ch=1 n=c#6 v=0
190195 On ch=1 n=c#5 v=0
190215 On ch=1 n=g#4 v=39
190220 On ch=1 n=g#6 v=74
190235 On ch=1 n=e6 v=0
190265 On ch=1 n=g#4 v=0
190275 On ch=1 n=g#6 v=0
190330 On ch=1 n=c#4 v=68
190345 Par ch=1 c=64 v=0
190405 On ch=1 n=g#5 v=64
190440 On ch=1 n=g#4 v=45
190455 On ch=1 n=g#5 v=0
190455 Par ch=1 c=64 v=127
190475 On ch=1 n=c#4 v=0
190485 On ch=1 n=a#5 v=64
190550 On ch=1 n=a#4 v=43
190555 On ch=1 n=g#5 v=65
190565 On ch=1 n=a#5 v=0
190580 On ch=1 n=g#4 v=0
190600 On ch=1 n=g#5 v=0
190625 On ch=1 n=a#4 v=0
190630 On ch=1 n=g5 v=57
190635 On ch=1 n=e5 v=46
190685 On ch=1 n=g#5 v=65
190715 On ch=1 n=g5 v=0
190765 On ch=1 n=a#4 v=44
190770 On ch=1 n=e5 v=0
190770 On ch=1 n=c#6 v=69
190785 On ch=1 n=g#5 v=0
190805 On ch=1 n=g#4 v=47
190825 On ch=1 n=c#6 v=0
190830 On ch=1 n=a#4 v=0
190840 On ch=1 n=e6 v=70
190905 On ch=1 n=g#4 v=0
190925 On ch=1 n=d#6 v=74
190930 On ch=1 n=e4 v=48
190940 On ch=1 n=e6 v=0
190940 Par ch=1 c=64 v=0
190995 On ch=1 n=d#6 v=0
191000 On ch=1 n=c#6 v=65
191040 On ch=1 n=e4 v=0
191050 On ch=1 n=g#4 v=48
191065 Par ch=1 c=64 v=127
191070 On ch=1 n=c#6 v=0
191070 On ch=1 n=d#6 v=77
191135 On ch=1 n=a#4 v=48
191155 On ch=1 n=c#6 v=74
191165 On ch=1 n=g#4 v=0
191170 On ch=1 n=d#6 v=0
191210 On ch=1 n=c#6 v=0
191230 On ch=1 n=a#4 v=0
191230 On ch=1 n=c6 v=69
191240 On ch=1 n=c#5 v=50
191305 On ch=1 n=c#6 v=80
191310 On ch=1 n=c6 v=0
191350 On ch=1 n=a#4 v=45
191365 On ch=1 n=c#5 v=0
191385 On ch=1 n=e6 v=74
191400 On ch=1 n=c#6 v=0
191440 On ch=1 n=g#4 v=46
191450 On ch=1 n=a#4 v=0
191450 On ch=1 n=g#6 v=79
191465 On ch=1 n=e6 v=0
191515 On ch=1 n=g#4 v=0
191540 Par ch=1 c=64 v=0
191545 On ch=1 n=d#4 v=61
191545 On ch=1 n=d#6 v=81
191595 On ch=1 n=g#6 v=0
191625 On ch=1 n=e6 v=81
191630 On ch=1 n=d#6 v=0
191655 On ch=1 n=g#4 v=52
191715 On ch=1 n=d#4 v=0
191715 Par ch=1 c=64 v=127
191720 On ch=1 n=d#6 v=78
191735 On ch=1 n=e6 v=0
191780 On ch=1 n=b4 v=39
191795 On ch=1 n=d#6 v=0
191805 On ch=1 n=d6 v=77
191835 On ch=1 n=g#4 v=0
191885 On ch=1 n=b4 v=0
191895 On ch=1 n=d#6 v=80
191895 On ch=1 n=d#5 v=43
191915 On ch=1 n=d6 v=0
192000 On ch=1 n=b4 v=36
192000 On ch=1 n=b6 v=88
192005 On ch=1 n=d#5 v=0
192025 On ch=1 n=d#6 v=0
192080 On ch=1 n=a#6 v=84
192110 On ch=1 n=b4 v=0
192115 On ch=1 n=g#4 v=52
192140 On ch=1 n=b6 v=0
192175 On ch=1 n=g#6 v=80
192235 On ch=1 n=a#6 v=0
192250 On ch=1 n=g#4 v=0
192260 On ch=1 n=d#4 v=53
192285 On ch=1 n=g6 v=82
192305 On ch=1 n=g#6 v=0
192320 Par ch=1 c=64 v=0
192405 On ch=1 n=e7 v=83
192445 Par ch=1 c=64 v=127
192450 On ch=1 n=a#4 v=38
192475 On ch=1 n=g6 v=0
192490 On ch=1 n=d#4 v=0
192500 On ch=1 n=d#7 v=73
192535 On ch=1 n=e7 v=0
192575 On ch=1 n=c#5 v=43
192575 On ch=1 n=c#7 v=76
192595 On ch=1 n=a#4 v=0
192625 On ch=1 n=d#7 v=0
192645 On ch=1 n=c#5 v=0
192655 On ch=1 n=c#7 v=0
192655 On ch=1 n=b6 v=82
192655 On ch=1 n=g5 v=50
192730 On ch=1 n=b6 v=0
192740 On ch=1 n=a#6 v=86
192755 On ch=1 n=g5 v=0
192770 On ch=1 n=c#5 v=54
192815 On ch=1 n=g#6 v=74
192820 On ch=1 n=c#5 v=0
192830 On ch=1 n=a#4 v=42
192835 On ch=1 n=a#6 v=0
192865 On ch=1 n=a#4 v=0
192865 On ch=1 n=g6 v=78
192885 On ch=1 n=g#6 v=0
192955 Par ch=1 c=64 v=0
192960 On ch=1 n=g6 v=0
192960 On ch=1 n=g#3 v=66
192960 On ch=1 n=a#6 v=84
193035 On ch=1 n=g#6 v=76
193045 On ch=1 n=a#6 v=0
193060 Par ch=1 c=64 v=127
193080 On ch=1 n=g#3 v=0
193090 On ch=1 n=d#4 v=45
193105 On ch=1 n=b6 v=81
193110 On ch=1 n=g#6 v=0
193160 On ch=1 n=b6 v=0
193180 On ch=1 n=g#4 v=53
193180 On ch=1 n=d6 v=65
193200 On ch=1 n=d#4 v=0
193240 On ch=1 n=g#4 v=0
193240 On ch=1 n=e6 v=66
193255 On ch=1 n=d6 v=0
193265 On ch=1 n=b4 v=39
193330 On ch=1 n=e6 v=0
193330 On ch=1 n=d#6 v=71
193355 On ch=1 n=b4 v=0
193365 On ch=1 n=g#4 v=45
193405 On ch=1 n=g#6 v=74
193415 On ch=1 n=d#6 v=0
193430 On ch=1 n=g#4 v=0
193430 On ch=1 n=d#4 v=49
193480 On ch=1 n=g#6 v=0
193480 On ch=1 n=a#5 v=66
193525 On ch=1 n=d#4 v=0
193560 On ch=1 n=g#3 v=61
193575 On ch=1 n=c#6 v=71
193585 Par ch=1 c=64 v=0
193595 On ch=1 n=a#5 v=0
193665 On ch=1 n=b5 v=66
193695 On ch=1 n=c#6 v=0
193695 Par ch=1 c=64 v=127
193700 On ch=1 n=d#4 v=47
193730 On ch=1 n=g#3 v=0
193750 On ch=1 n=d#6 v=73
193790 On ch=1 n=b5 v=0
193825 On ch=1 n=g#4 v=48
193845 On ch=1 n=g5 v=66
193865 On ch=1 n=d#4 v=0
193870 On ch=1 n=d#6 v=0
193940 On ch=1 n=g#4 v=0
193940 On ch=1 n=a#5 v=72
193940 On ch=1 n=b4 v=43
193955 On ch=1 n=g5 v=0
194045 On ch=1 n=g#5 v=73
194110 On ch=1 n=g#4 v=48
194160 On ch=1 n=g#5 v=0
194165 On ch=1 n=b4 v=0
194165 On ch=1 n=a#5 v=0
194165 On ch=1 n=g5 v=64
194225 On ch=1 n=d#4 v=48
194230 On ch=1 n=g#4 v=0
194285 On ch=1 n=g5 v=0
194285 On ch=1 n=g#5 v=73
194315 On ch=1 n=d#4 v=0
194385 On ch=1 n=g#5 v=0
194405 On ch=1 n=a3 v=53
194505 On ch=1 n=g#5 v=71
194575 Par ch=1 c=64 v=0
194670 On ch=1 n=g#6 v=65
194750 On ch=1 n=c#4 v=35
194760 Par ch=1 c=64 v=127
194820 On ch=1 n=g#6 v=0
194835 On ch=1 n=c6 v=62
194890 On ch=1 n=a3 v=0
194905 On ch=1 n=g#5 v=0
194905 On ch=1 n=f#4 v=38
194925 On ch=1 n=c#6 v=68
194980 On ch=1 n=c#4 v=0
195025 On ch=1 n=f#4 v=0
195030 On ch=1 n=f#5 v=73
195030 On ch=1 n=a4 v=41
195070 On ch=1 n=c6 v=0
195090 On ch=1 n=c#6 v=0
195130 On ch=1 n=f#6 v=75
195175 On ch=1 n=f#4 v=49
195195 On ch=1 n=f#5 v=0
195225 On ch=1 n=a4 v=0
195225 On ch=1 n=c6 v=69
195255 On ch=1 n=f#6 v=0
195260 On ch=1 n=c#4 v=54
195285 On ch=1 n=f#4 v=0
195285 On ch=1 n=c#6 v=67
195345 On ch=1 n=c#4 v=0
195365 Par ch=1 c=64 v=0
195370 On ch=1 n=a3 v=59
195370 On ch=1 n=f5 v=72
195385 On ch=1 n=c6 v=0
195420 On ch=1 n=c#6 v=0
195465 On ch=1 n=f6 v=76
195475 Par ch=1 c=64 v=127
195490 On ch=1 n=c#4 v=60
195515 On ch=1 n=a3 v=0
195525 On ch=1 n=f5 v=0
195540 On ch=1 n=c6 v=70
195570 On ch=1 n=f6 v=0
195595 On ch=1 n=c#6 v=65
195595 On ch=1 n=f#4 v=50
195615 On ch=1 n=c#4 v=0
195655 On ch=1 n=f#4 v=0
195660 On ch=1 n=a4 v=48
195670 On ch=1 n=f#5 v=74
195675 On ch=1 n=c6 v=0
195720 On ch=1 n=c#6 v=0
195735 On ch=1 n=f#6 v=76
195770 On ch=1 n=f#4 v=54
195810 On ch=1 n=f#5 v=0
195810 On ch=1 n=a4 v=0
195820 On ch=1 n=c6 v=72
195840 On ch=1 n=c#4 v=51
195845 On ch=1 n=f#6 v=0
195850 On ch=1 n=c#6 v=76
195870 On ch=1 n=c6 v=0
195895 On ch=1 n=f#4 v=0
195920 On ch=1 n=c#6 v=0
195935 On ch=1 n=c#4 v=0
195960 On ch=1 n=b3 v=66
195970 Par ch=1 c=64 v=0
195980 On ch=1 n=c#5 v=72
196060 On ch=1 n=c#6 v=72
196080 Par ch=1 c=64 v=127
196090 On ch=1 n=b3 v=0
196090 On ch=1 n=f#4 v=58
196115 On ch=1 n=c#5 v=0
196135 On ch=1 n=f#5 v=63
196180 On ch=1 n=a5 v=65
196185 On ch=1 n=c#6 v=0
196185 On ch=1 n=a4 v=51
196225 On ch=1 n=f#5 v=0
196225 On ch=1 n=f#4 v=0
196255 On ch=1 n=a4 v=0
196270 On ch=1 n=d#5 v=73
196270 On ch=1 n=b4 v=56
196320 On ch=1 n=a5 v=0
196365 On ch=1 n=d#5 v=0
196365 On ch=1 n=d#6 v=78
196385 On ch=1 n=b4 v=0
196385 On ch=1 n=a4 v=54
196460 On ch=1 n=f#5 v=67
196460 On ch=1 n=f#4 v=60
196465 On ch=1 n=a4 v=0
196495 On ch=1 n=d#6 v=0
196510 On ch=1 n=f#4 v=0
196510 On ch=1 n=a5 v=62
196545 On ch=1 n=f#5 v=0
196580 On ch=1 n=a5 v=0
196580 Par ch=1 c=64 v=0
196600 On ch=1 n=e5 v=74
196605 On ch=1 n=e3 v=75
196685 On ch=1 n=e6 v=69
196705 On ch=1 n=e3 v=0
196705 Par ch=1 c=64 v=127
196720 On ch=1 n=b3 v=64
196780 On ch=1 n=e5 v=0
196780 On ch=1 n=g#5 v=66
196835 On ch=1 n=e6 v=0
196840 On ch=1 n=b5 v=76
196850 On ch=1 n=e4 v=52
196860 On ch=1 n=g#5 v=0
196860 On ch=1 n=b3 v=0
196885 On ch=1 n=b5 v=0
196960 On ch=1 n=e4 v=0
196960 On ch=1 n=g#5 v=82
196970 On ch=1 n=g#4 v=56
197025 On ch=1 n=g#6 v=73
197050 On ch=1 n=g#4 v=0
197050 On ch=1 n=g#5 v=0
197085 On ch=1 n=e4 v=44
197160 On ch=1 n=b5 v=65
197170 On ch=1 n=g#6 v=0
197170 On ch=1 n=b3 v=50
197190 On ch=1 n=e4 v=0
197195 On ch=1 n=e6 v=68
197270 On ch=1 n=b5 v=0
197295 On ch=1 n=b3 v=0
197305 Par ch=1 c=64 v=0
197310 On ch=1 n=a3 v=58
197325 On ch=1 n=g#5 v=75
197415 Par ch=1 c=64 v=127
197420 On ch=1 n=g#6 v=76
197465 On ch=1 n=e6 v=0
197465 On ch=1 n=c#4 v=48
197480 On ch=1 n=g#5 v=0
197495 On ch=1 n=c6 v=63
197500 On ch=1 n=a3 v=0
197515 On ch=1 n=g#6 v=0
197555 On ch=1 n=f#4 v=44
197580 On ch=1 n=c#6 v=72
197600 On ch=1 n=c#4 v=0
197630 On ch=1 n=c6 v=0
197645 On ch=1 n=f#4 v=0
197660 On ch=1 n=a4 v=44
197660 On ch=1 n=f#5 v=76
197715 On ch=1 n=c#6 v=0
197755 On ch=1 n=f#6 v=77
197770 On ch=1 n=f#5 v=0
197770 On ch=1 n=f#4 v=51
197790 On ch=1 n=a4 v=0
197815 On ch=1 n=c6 v=66
197840 On ch=1 n=c#4 v=54
197870 On ch=1 n=f#4 v=0
197870 On ch=1 n=f#6 v=0
197885 On ch=1 n=c#6 v=69
197935 On ch=1 n=c#4 v=0
197955 Par ch=1 c=64 v=0
197960 On ch=1 n=a3 v=63
197960 On ch=1 n=f5 v=78
197990 On ch=1 n=c6 v=0
198015 On ch=1 n=c#6 v=0
198060 On ch=1 n=f6 v=77
198065 Par ch=1 c=64 v=127
198075 On ch=1 n=a3 v=0
198075 On ch=1 n=c#4 v=62
198125 On ch=1 n=f5 v=0
198135 On ch=1 n=c6 v=66
198175 On ch=1 n=f#4 v=45
198185 On ch=1 n=f6 v=0
198195 On ch=1 n=c#4 v=0
198195 On ch=1 n=c#6 v=69
198240 On ch=1 n=f#4 v=0
198245 On ch=1 n=a4 v=48
198260 On ch=1 n=c6 v=0
198270 On ch=1 n=f#5 v=79
198320 On ch=1 n=c#6 v=0
198355 On ch=1 n=f#6 v=79
198360 On ch=1 n=f#4 v=57
198385 On ch=1 n=a4 v=0
198395 On ch=1 n=f#5 v=0
198395 On ch=1 n=c#4 v=52
198405 On ch=1 n=c6 v=57
198455 On ch=1 n=c#6 v=80
198465 On ch=1 n=f#6 v=0
198485 On ch=1 n=f#4 v=0
198510 On ch=1 n=c#4 v=0
198530 On ch=1 n=c6 v=0
198540 On ch=1 n=b3 v=67
198555 Par ch=1 c=64 v=0
198560 On ch=1 n=f5 v=78
198600 On ch=1 n=c#6 v=0
198645 On ch=1 n=f6 v=76
198680 Par ch=1 c=64 v=127
198685 On ch=1 n=b3 v=0
198685 On ch=1 n=f#4 v=53
198720 On ch=1 n=b5 v=69
198725 On ch=1 n=f5 v=0
198780 On ch=1 n=f6 v=0
198780 On ch=1 n=a4 v=50
198795 On ch=1 n=d#6 v=73
198810 On ch=1 n=f#4 v=0
198845 On ch=1 n=b5 v=0
198870 On ch=1 n=a4 v=0
198885 On ch=1 n=b4 v=50
198890 On ch=1 n=f#5 v=81
198945 On ch=1 n=d#6 v=0
198975 On ch=1 n=f#6 v=79
198990 On ch=1 n=b4 v=0
198990 On ch=1 n=a4 v=52
199005 On ch=1 n=f#5 v=0
199050 On ch=1 n=b5 v=66
199060 On ch=1 n=f#4 v=62
199065 On ch=1 n=a4 v=0
199090 On ch=1 n=f#6 v=0
199090 On ch=1 n=d#6 v=71
199100 On ch=1 n=f#4 v=0
199155 On ch=1 n=b5 v=0
199200 On ch=1 n=d#6 v=0
199210 On ch=1 n=e3 v=75
199225 On ch=1 n=a5 v=82
199235 Par ch=1 c=64 v=0
199305 On ch=1 n=e3 v=0
199310 On ch=1 n=a6 v=75
199320 Par ch=1 c=64 v=127
199340 On ch=1 n=b3 v=56
199365 On ch=1 n=a6 v=0
199380 On ch=1 n=a5 v=0
199440 On ch=1 n=b5 v=73
199460 On ch=1 n=e4 v=50
199480 On ch=1 n=b3 v=0
199500 On ch=1 n=e6 v=74
199515 On ch=1 n=b5 v=0
199570 On ch=1 n=e6 v=0
199570 On ch=1 n=e4 v=0
199570 On ch=1 n=g#4 v=52
199605 On ch=1 n=g#5 v=82
199645 On ch=1 n=g#4 v=0
199680 On ch=1 n=e4 v=39
199690 On ch=1 n=g#6 v=60
199700 On ch=1 n=g#5 v=0
199780 On ch=1 n=b3 v=47
199795 On ch=1 n=e4 v=0
199800 On ch=1 n=g#6 v=0
199805 On ch=1 n=b5 v=65
199900 On ch=1 n=e6 v=67
199945 On ch=1 n=b5 v=0
199970 On ch=1 n=b3 v=0
199990 On ch=1 n=a3 v=52
200075 On ch=1 n=g#5 v=64
200095 Par ch=1 c=64 v=0
200215 On ch=1 n=g#6 v=71
200260 On ch=1 n=c#4 v=30
200295 Par ch=1 c=64 v=127
200305 On ch=1 n=e6 v=0
200360 On ch=1 n=g#6 v=0
200370 On ch=1 n=c6 v=51
200380 On ch=1 n=a3 v=0
200400 On ch=1 n=f#4 v=35
200440 On ch=1 n=g#5 v=0
200450 On ch=1 n=c#4 v=0
200455 On ch=1 n=c#6 v=61
200500 On ch=1 n=f#4 v=0
200545 On ch=1 n=a4 v=27
200560 On ch=1 n=f#5 v=53
200615 On ch=1 n=c#6 v=0
200615 On ch=1 n=c6 v=0
200640 On ch=1 n=f#6 v=68
200660 On ch=1 n=f#5 v=0
200675 On ch=1 n=f#4 v=36
200715 On ch=1 n=a4 v=0
200740 On ch=1 n=f#4 v=0
200740 On ch=1 n=c6 v=55
200745 On ch=1 n=c#4 v=45
200755 On ch=1 n=f#6 v=0
200785 On ch=1 n=c#6 v=65
200820 On ch=1 n=c#4 v=0
200835 On ch=1 n=c6 v=0
200880 On ch=1 n=a3 v=46
200885 Par ch=1 c=64 v=0
200890 On ch=1 n=f5 v=59
200900 On ch=1 n=c#6 v=0
200965 On ch=1 n=f6 v=73
200985 On ch=1 n=f5 v=0
200985 Par ch=1 c=64 v=127
201005 On ch=1 n=c#4 v=47
201055 On ch=1 n=c6 v=57
201065 On ch=1 n=a3 v=0
201070 On ch=1 n=f6 v=0
201095 On ch=1 n=c#4 v=0
201095 On ch=1 n=f#4 v=36
201110 On ch=1 n=c#6 v=63
201155 On ch=1 n=f#4 v=0
201165 On ch=1 n=c6 v=0
201165 On ch=1 n=f#5 v=57
201175 On ch=1 n=a4 v=33
201245 On ch=1 n=c#6 v=0
201245 On ch=1 n=f#6 v=75
201270 On ch=1 n=f#5 v=0
201280 On ch=1 n=f#4 v=42
201285 On ch=1 n=a4 v=0
201310 On ch=1 n=c#4 v=43
201335 On ch=1 n=c6 v=44
201350 On ch=1 n=f#6 v=0
201350 On ch=1 n=c#6 v=68
201360 On ch=1 n=f#4 v=0
201385 On ch=1 n=c6 v=0
201390 On ch=1 n=c#6 v=0
201395 On ch=1 n=c#4 v=0
201435 On ch=1 n=b3 v=56
201450 Par ch=1 c=64 v=0
201485 On ch=1 n=c#5 v=50
201530 On ch=1 n=c#6 v=72
201545 On ch=1 n=c#5 v=0
201545 On ch=1 n=b3 v=0
201545 Par ch=1 c=64 v=127
201580 On ch=1 n=f#4 v=49
201605 On ch=1 n=f#5 v=55
201650 On ch=1 n=c#6 v=0
201655 On ch=1 n=a5 v=57
201665 On ch=1 n=a4 v=40
201675 On ch=1 n=f#4 v=0
201695 On ch=1 n=f#5 v=0
201725 On ch=1 n=a4 v=0
201735 On ch=1 n=d#5 v=55
201755 On ch=1 n=b4 v=41
201800 On ch=1 n=d#5 v=0
201800 On ch=1 n=a5 v=0
201815 On ch=1 n=d#6 v=73
201845 On ch=1 n=a4 v=41
201850 On ch=1 n=b4 v=0
201900 On ch=1 n=a4 v=0
201905 On ch=1 n=f#5 v=56
201915 On ch=1 n=f#4 v=51
201945 On ch=1 n=d#6 v=0
201950 On ch=1 n=f#4 v=0
201955 On ch=1 n=a5 v=64
201965 On ch=1 n=f#5 v=0
202005 Par ch=1 c=64 v=0
202010 On ch=1 n=a5 v=0
202030 On ch=1 n=e5 v=62
202055 On ch=1 n=e3 v=62
202115 On ch=1 n=e6 v=75
202125 On ch=1 n=e3 v=0
202125 Par ch=1 c=64 v=127
202140 On ch=1 n=e5 v=0
202165 On ch=1 n=b3 v=58
202200 On ch=1 n=g#5 v=51
202265 On ch=1 n=g#5 v=0
202265 On ch=1 n=b5 v=69
202285 On ch=1 n=b3 v=0
202285 On ch=1 n=e4 v=46
202295 On ch=1 n=e6 v=0
202315 On ch=1 n=b5 v=0
202365 On ch=1 n=e4 v=0
202395 On ch=1 n=g#5 v=63
202405 On ch=1 n=g#4 v=45
202455 On ch=1 n=g#6 v=80
202470 On ch=1 n=g#5 v=0
202480 On ch=1 n=g#4 v=0
202520 On ch=1 n=e4 v=35
202580 On ch=1 n=b5 v=46
202590 On ch=1 n=b3 v=40
202600 On ch=1 n=e4 v=0
202600 On ch=1 n=e6 v=67
202620 On ch=1 n=g#6 v=0
202670 On ch=1 n=b3 v=0
202695 On ch=1 n=b5 v=0
202695 Par ch=1 c=64 v=0
202700 On ch=1 n=a3 v=54
202700 On ch=1 n=g#5 v=70
202760 On ch=1 n=g#6 v=78
202790 On ch=1 n=g#5 v=0
202805 Par ch=1 c=64 v=127
202815 On ch=1 n=a3 v=0
202820 On ch=1 n=e6 v=0
202820 On ch=1 n=c#4 v=54
202860 On ch=1 n=c6 v=61
202890 On ch=1 n=g#6 v=0
202910 On ch=1 n=c#4 v=0
202910 On ch=1 n=f#4 v=44
202960 On ch=1 n=c#6 v=67
202965 On ch=1 n=f#4 v=0
202995 On ch=1 n=c6 v=0
202995 On ch=1 n=a4 v=35
202995 On ch=1 n=f#5 v=64
203065 On ch=1 n=c#6 v=0
203085 On ch=1 n=f#6 v=81
203100 On ch=1 n=f#5 v=0
203100 On ch=1 n=f#4 v=43
203115 On ch=1 n=a4 v=0
203160 On ch=1 n=c6 v=63
203185 On ch=1 n=c#4 v=45
203210 On ch=1 n=f#4 v=0
203235 On ch=1 n=c#6 v=75
203250 On ch=1 n=c6 v=0
203265 On ch=1 n=f#6 v=0
203275 On ch=1 n=c#6 v=0
203300 On ch=1 n=c#4 v=0
203320 On ch=1 n=a3 v=46
203400 On ch=1 n=d#6 v=63
203460 Par ch=1 c=64 v=0
203495 On ch=1 n=d#7 v=78
203545 On ch=1 n=d#4 v=29
203630 Par ch=1 c=64 v=127
203680 On ch=1 n=f#4 v=42
203695 On ch=1 n=f#6 v=56
203720 On ch=1 n=d#6 v=0
203720 On ch=1 n=a3 v=0
203765 On ch=1 n=d#7 v=0
203770 On ch=1 n=d#4 v=0
203785 On ch=1 n=f#4 v=0
203800 On ch=1 n=a6 v=47
203805 On ch=1 n=a4 v=30
203845 On ch=1 n=f#6 v=0
203885 On ch=1 n=c#6 v=60
203965 On ch=1 n=f#4 v=38
203970 On ch=1 n=a4 v=0
203980 On ch=1 n=a6 v=0
203980 On ch=1 n=c#7 v=71
204065 On ch=1 n=f#6 v=54
204095 On ch=1 n=c#6 v=0
204095 On ch=1 n=d#4 v=35
204105 On ch=1 n=f#4 v=0
204165 On ch=1 n=a6 v=49
204200 On ch=1 n=f#6 v=0
204205 On ch=1 n=c#7 v=0
204250 On ch=1 n=d#4 v=0
204250 On ch=1 n=g#3 v=49
204260 On ch=1 n=c#6 v=63
204280 On ch=1 n=a6 v=0
204280 Par ch=1 c=64 v=0
204355 On ch=1 n=c#7 v=76
204410 Par ch=1 c=64 v=127
204430 On ch=1 n=d#4 v=42
204475 On ch=1 n=c#6 v=0
204475 On ch=1 n=g#3 v=0
204520 On ch=1 n=d#6 v=49
204535 On ch=1 n=c#7 v=0
204590 On ch=1 n=f#4 v=32
204615 On ch=1 n=d#4 v=0
204635 On ch=1 n=f#6 v=51
204665 On ch=1 n=d#6 v=0
204685 On ch=1 n=f#4 v=0
204710 On ch=1 n=c5 v=27
204730 On ch=1 n=c6 v=60
204735 On ch=1 n=f#6 v=0
204830 On ch=1 n=c7 v=66
204845 On ch=1 n=c5 v=0
204865 On ch=1 n=f#4 v=35
204910 On ch=1 n=c6 v=0
204955 On ch=1 n=f#4 v=0
204955 On ch=1 n=d#6 v=59
204955 On ch=1 n=d#4 v=36
205040 On ch=1 n=f#6 v=55
205050 On ch=1 n=d#4 v=0
205055 On ch=1 n=d#6 v=0
205070 On ch=1 n=c7 v=0
205090 On ch=1 n=g#3 v=52
205095 Par ch=1 c=64 v=0
205100 On ch=1 n=c6 v=62
205115 On ch=1 n=f#6 v=0
205165 Par ch=1 c=64 v=127
205205 On ch=1 n=c7 v=81
205220 On ch=1 n=d#4 v=42
205265 On ch=1 n=g#3 v=0
205290 On ch=1 n=c6 v=0
205305 On ch=1 n=d#6 v=61
205340 On ch=1 n=f#4 v=42
205360 On ch=1 n=f#6 v=67
205370 On ch=1 n=c7 v=0
205390 On ch=1 n=d#6 v=0
205390 On ch=1 n=d#4 v=0
205440 On ch=1 n=f#4 v=0
205440 On ch=1 n=c5 v=35
205440 On ch=1 n=c6 v=63
205460 On ch=1 n=f#6 v=0
205530 On ch=1 n=c7 v=83
205560 On ch=1 n=c5 v=0
205570 On ch=1 n=f#4 v=50
205580 On ch=1 n=c6 v=0
205625 On ch=1 n=d#6 v=67
205655 On ch=1 n=d#4 v=48
205695 On ch=1 n=f#6 v=73
205700 On ch=1 n=f#4 v=0
205715 On ch=1 n=c7 v=0
205735 On ch=1 n=d#6 v=0
205770 On ch=1 n=c6 v=72
205775 On ch=1 n=a3 v=61
205805 On ch=1 n=f#6 v=0
205815 On ch=1 n=d#4 v=0
205815 Par ch=1 c=64 v=0
205860 On ch=1 n=c7 v=83
205950 Par ch=1 c=64 v=127
205965 On ch=1 n=d#4 v=51
205970 On ch=1 n=a3 v=0
205980 On ch=1 n=d#6 v=70
206010 On ch=1 n=c6 v=0
206030 On ch=1 n=c7 v=0
206055 On ch=1 n=f#6 v=67
206055 On ch=1 n=f#4 v=49
206085 On ch=1 n=d#4 v=0
206115 On ch=1 n=f#4 v=0
206130 On ch=1 n=d#6 v=0
206130 On ch=1 n=b5 v=75
206130 On ch=1 n=b4 v=43
206200 On ch=1 n=f#6 v=0
206200 On ch=1 n=b6 v=88
206235 On ch=1 n=f#4 v=51
206245 On ch=1 n=b4 v=0
206280 On ch=1 n=b5 v=0
206290 On ch=1 n=d#6 v=70
206310 On ch=1 n=d#4 v=47
206330 On ch=1 n=f#4 v=0
206355 On ch=1 n=f#6 v=69
206385 On ch=1 n=d#4 v=0
206395 On ch=1 n=b6 v=0
206400 On ch=1 n=d#6 v=0
206420 On ch=1 n=a#3 v=59
206430 On ch=1 n=b5 v=75
206435 Par ch=1 c=64 v=0
206460 On ch=1 n=f#6 v=0
206510 On ch=1 n=b6 v=86
206530 On ch=1 n=d#4 v=48
206575 On ch=1 n=b5 v=0
206575 Par ch=1 c=64 v=127
206595 On ch=1 n=d#6 v=61
206620 On ch=1 n=f#4 v=47
206640 On ch=1 n=b6 v=0
206650 On ch=1 n=f#6 v=73
206660 On ch=1 n=a#3 v=0
206685 On ch=1 n=d#4 v=0
206700 On ch=1 n=d#6 v=0
206715 On ch=1 n=f#4 v=0
206715 On ch=1 n=a#4 v=42
206740 On ch=1 n=a#5 v=70
206800 On ch=1 n=f#6 v=0
206810 On ch=1 n=a#6 v=86
206825 On ch=1 n=a#4 v=0
206830 On ch=1 n=f#4 v=43
206865 On ch=1 n=a#5 v=0
206875 On ch=1 n=d#6 v=67
206895 On ch=1 n=d#4 v=40
206910 On ch=1 n=f#4 v=0
206955 On ch=1 n=f#6 v=76
206970 On ch=1 n=a#6 v=0
206995 On ch=1 n=d#4 v=0
206995 On ch=1 n=d#6 v=0
207005 On ch=1 n=c4 v=54
207015 Par ch=1 c=64 v=0
207020 On ch=1 n=a#5 v=70
207085 On ch=1 n=f#6 v=0
207100 On ch=1 n=a#6 v=87
207120 On ch=1 n=d#4 v=35
207165 On ch=1 n=a#5 v=0
207165 Par ch=1 c=64 v=127
207190 On ch=1 n=d#6 v=60
207205 On ch=1 n=f#4 v=41
207235 On ch=1 n=f#6 v=72
207245 On ch=1 n=a#6 v=0
207265 On ch=1 n=d#4 v=0
207280 On ch=1 n=f#4 v=0
207285 On ch=1 n=d#6 v=0
207310 On ch=1 n=a4 v=33
207340 On ch=1 n=a5 v=59
207380 On ch=1 n=f#6 v=0
207385 On ch=1 n=c4 v=0
207405 On ch=1 n=a6 v=71
207430 On ch=1 n=a4 v=0
207430 On ch=1 n=f#4 v=39
207505 On ch=1 n=f#4 v=0
207505 On ch=1 n=d#4 v=37
207505 On ch=1 n=d#6 v=54
207515 On ch=1 n=a5 v=0
207555 On ch=1 n=f#6 v=68
207570 On ch=1 n=a6 v=0
207575 On ch=1 n=d#6 v=0
207605 On ch=1 n=d#4 v=0
207640 On ch=1 n=c4 v=44
207665 On ch=1 n=a5 v=56
207680 Par ch=1 c=64 v=0
207685 On ch=1 n=f#6 v=0
207730 On ch=1 n=a6 v=64
207765 Par ch=1 c=64 v=127
207770 On ch=1 n=d#4 v=32
207810 On ch=1 n=a5 v=0
207840 On ch=1 n=d#6 v=51
207865 On ch=1 n=f#4 v=35
207880 On ch=1 n=a6 v=0
207885 On ch=1 n=d#4 v=0
207895 On ch=1 n=d#6 v=0
207905 On ch=1 n=f#6 v=55
207930 On ch=1 n=f#4 v=0
207955 On ch=1 n=c4 v=0
207985 On ch=1 n=a4 v=28
207990 Par ch=1 c=67 v=127
208000 On ch=1 n=a5 v=49
208015 On ch=1 n=f#6 v=0
208060 On ch=1 n=a6 v=57
208080 On ch=1 n=a4 v=0
208080 On ch=1 n=f#4 v=38
208125 On ch=1 n=a5 v=0
208175 On ch=1 n=d#6 v=52
208180 On ch=1 n=f#4 v=0
208195 On ch=1 n=d#4 v=31
208255 On ch=1 n=d#6 v=0
208255 On ch=1 n=a6 v=0
208255 On ch=1 n=f#6 v=54
208320 On ch=1 n=f#6 v=0
208320 On ch=1 n=d#4 v=0
208380 Par ch=1 c=64 v=0
208385 On ch=1 n=a3 v=37
208410 On ch=1 n=c6 v=54
208515 On ch=1 n=c7 v=61
208585 Par ch=1 c=64 v=127
208595 On ch=1 n=d#4 v=27
208615 On ch=1 n=a3 v=0
208665 On ch=1 n=c7 v=0
208670 On ch=1 n=d#6 v=47
208685 On ch=1 n=c6 v=0
208710 On ch=1 n=f#4 v=28
208740 On ch=1 n=d#4 v=0
208755 On ch=1 n=f#6 v=52
208775 On ch=1 n=f#4 v=0
208815 On ch=1 n=d#6 v=0
208820 On ch=1 n=b4 v=27
208855 On ch=1 n=b5 v=53
208865 On ch=1 n=f#6 v=0
208915 On ch=1 n=b4 v=0
208925 On ch=1 n=b6 v=69
208925 On ch=1 n=f#4 v=36
208985 On ch=1 n=b5 v=0
209015 On ch=1 n=f#4 v=0
209025 On ch=1 n=d#6 v=48
209030 On ch=1 n=d#4 v=38
209060 On ch=1 n=b6 v=0
209070 On ch=1 n=f#6 v=57
209085 On ch=1 n=d#4 v=0
209090 On ch=1 n=d#6 v=0
209120 Par ch=1 c=64 v=0
209150 On ch=1 n=a#3 v=46
209155 On ch=1 n=f#6 v=0
209165 On ch=1 n=b5 v=59
209220 On ch=1 n=b6 v=70
209240 Par ch=1 c=64 v=127
209255 On ch=1 n=d#4 v=35
209275 On ch=1 n=b5 v=0
209290 On ch=1 n=a#3 v=0
209330 On ch=1 n=d#6 v=59
209345 On ch=1 n=b6 v=0
209365 On ch=1 n=f#4 v=32
209375 On ch=1 n=d#6 v=0
209380 On ch=1 n=f#6 v=58
209390 On ch=1 n=d#4 v=0
209435 On ch=1 n=f#4 v=0
209465 On ch=1 n=a#4 v=32
209485 On ch=1 n=a#5 v=56
209495 On ch=1 n=f#6 v=0
209535 On ch=1 n=a#6 v=73
209550 On ch=1 n=a#4 v=0
209575 On ch=1 n=a#5 v=0
209575 On ch=1 n=f#4 v=42
209620 On ch=1 n=d#6 v=61
209645 On ch=1 n=f#4 v=0
209645 On ch=1 n=a#6 v=0
209670 On ch=1 n=d#4 v=37
209695 On ch=1 n=f#6 v=63
209710 On ch=1 n=d#6 v=0
209730 On ch=1 n=d#4 v=0
209755 Par ch=1 c=64 v=0
209760 On ch=1 n=b3 v=47
209765 On ch=1 n=f#6 v=0
209775 On ch=1 n=a#5 v=61
209835 On ch=1 n=a#6 v=69
209845 Par ch=1 c=64 v=127
209850 On ch=1 n=d#4 v=42
209880 On ch=1 n=a#5 v=0
209930 On ch=1 n=d#6 v=64
209955 On ch=1 n=a#6 v=0
209955 On ch=1 n=f#4 v=37
209985 On ch=1 n=d#4 v=0
209990 On ch=1 n=b3 v=0
209990 On ch=1 n=f#6 v=59
210000 On ch=1 n=d#6 v=0
210015 On ch=1 n=f#4 v=0
210065 On ch=1 n=a4 v=32
210090 On ch=1 n=a5 v=46
210095 On ch=1 n=f#6 v=0
210155 On ch=1 n=f#4 v=38
210160 On ch=1 n=a4 v=0
210160 On ch=1 n=a6 v=70
210260 On ch=1 n=f#4 v=0
210260 On ch=1 n=a5 v=0
210260 On ch=1 n=d#6 v=64
210270 On ch=1 n=a6 v=0
210280 On ch=1 n=d#4 v=33
210330 On ch=1 n=d#6 v=0
210345 On ch=1 n=f#6 v=61
210350 On ch=1 n=d#4 v=0
210405 On ch=1 n=f#6 v=0
210405 On ch=1 n=c4 v=50
210430 Par ch=1 c=64 v=0
210435 On ch=1 n=a5 v=56
210515 On ch=1 n=a6 v=63
210545 On ch=1 n=d#4 v=30
210560 Par ch=1 c=64 v=127
210630 On ch=1 n=a5 v=0
210640 On ch=1 n=d#6 v=60
210665 On ch=1 n=a6 v=0
210690 On ch=1 n=d#4 v=0
210695 On ch=1 n=f#4 v=33
210720 On ch=1 n=d#6 v=0
210740 On ch=1 n=f#6 v=54
210785 Par ch=1 c=64 v=0
210800 On ch=1 n=f#4 v=0
210810 On ch=1 n=f#6 v=0
210830 On ch=1 n=g#4 v=33
210840 On ch=1 n=g#5 v=54
210865 Par ch=1 c=64 v=127
210940 On ch=1 n=g#6 v=64
210975 On ch=1 n=f#4 v=35
211015 On ch=1 n=c4 v=0
211030 On ch=1 n=g#6 v=0
211050 On ch=1 n=g#4 v=0
211090 On ch=1 n=d#6 v=54
211145 On ch=1 n=d#4 v=33
211190 On ch=1 n=f#4 v=0
211210 On ch=1 n=d#6 v=0
211210 On ch=1 n=f#6 v=65
211265 On ch=1 n=f#6 v=0
211365 On ch=1 n=d#4 v=0
211405 On ch=1 n=g#5 v=0
211415 On ch=1 n=c#4 v=40
211480 Par ch=1 c=64 v=0
211540 On ch=1 n=g#5 v=54
211630 On ch=1 n=g#5 v=0
211655 On ch=1 n=a5 v=54
211675 Par ch=1 c=64 v=127
211680 On ch=1 n=c#4 v=0
211690 On ch=1 n=g#4 v=32
211750 On ch=1 n=a5 v=0
211775 On ch=1 n=g#5 v=54
211810 On ch=1 n=g#4 v=0
211820 On ch=1 n=c#5 v=39
211830 On ch=1 n=g#5 v=0
211870 On ch=1 n=g5 v=48
211885 On ch=1 n=c#5 v=0
211930 On ch=1 n=e5 v=40
211930 On ch=1 n=g#5 v=62
211945 On ch=1 n=g5 v=0
212025 On ch=1 n=c#6 v=63
212025 On ch=1 n=c#5 v=41
212045 On ch=1 n=g#5 v=0
212050 On ch=1 n=e5 v=0
212075 On ch=1 n=c#6 v=0
212090 On ch=1 n=c#5 v=0
212090 On ch=1 n=e6 v=63
212110 On ch=1 n=g#4 v=36
212155 Par ch=1 c=64 v=0
212170 On ch=1 n=g#4 v=0
212185 On ch=1 n=d#6 v=69
212195 On ch=1 n=e6 v=0
212195 On ch=1 n=e4 v=42
212260 On ch=1 n=d#6 v=0
212275 Par ch=1 c=64 v=127
212280 On ch=1 n=c#6 v=67
212315 On ch=1 n=c#6 v=0
212315 On ch=1 n=e4 v=0
212315 On ch=1 n=g#4 v=43
212330 On ch=1 n=d#6 v=68
212395 On ch=1 n=c#5 v=35
212405 On ch=1 n=g#4 v=0
212415 On ch=1 n=d#6 v=0
212415 On ch=1 n=c#6 v=74
212455 On ch=1 n=c#5 v=0
212465 On ch=1 n=c#6 v=0
212480 On ch=1 n=c6 v=68
212510 On ch=1 n=e5 v=38
212560 On ch=1 n=c6 v=0
212560 On ch=1 n=c#6 v=72
212600 On ch=1 n=e6 v=69
212605 On ch=1 n=e5 v=0
212610 On ch=1 n=c#5 v=39
212640 On ch=1 n=c#6 v=0
212675 On ch=1 n=c#5 v=0
212675 On ch=1 n=g#4 v=40
212690 On ch=1 n=e6 v=0
212690 On ch=1 n=g#6 v=67
212735 On ch=1 n=g#6 v=0
212735 On ch=1 n=g#4 v=0
212795 Par ch=1 c=64 v=0
212805 On ch=1 n=c#4 v=62
212870 On ch=1 n=g#5 v=62
212915 Par ch=1 c=64 v=127
212925 On ch=1 n=g#5 v=0
212925 On ch=1 n=g#4 v=45
212940 On ch=1 n=c#4 v=0
212940 On ch=1 n=a5 v=68
213015 Par ch=1 c=67 v=0
213025 On ch=1 n=a5 v=0
213025 On ch=1 n=g#5 v=68
213040 On ch=1 n=c#5 v=43
213045 On ch=1 n=g#4 v=0
213075 On ch=1 n=g#5 v=0
213100 On ch=1 n=c#5 v=0
213110 On ch=1 n=g5 v=57
213140 On ch=1 n=e5 v=42
213170 On ch=1 n=g#5 v=68
213195 On ch=1 n=g5 v=0
213245 On ch=1 n=e5 v=0
213260 On ch=1 n=c#5 v=39
213270 On ch=1 n=c#6 v=63
213280 On ch=1 n=g#5 v=0
213315 On ch=1 n=c#6 v=0
213315 On ch=1 n=c#5 v=0
213325 On ch=1 n=e6 v=68
213325 On ch=1 n=g#4 v=37
213390 On ch=1 n=g#4 v=0
213400 Par ch=1 c=64 v=0
213420 On ch=1 n=d#6 v=67
213430 On ch=1 n=e6 v=0
213430 On ch=1 n=e4 v=41
213480 Par ch=1 c=64 v=127
213500 On ch=1 n=d#6 v=0
213515 On ch=1 n=c#6 v=65
213540 On ch=1 n=e4 v=0
213550 On ch=1 n=g#4 v=42
213560 On ch=1 n=c#6 v=0
213575 On ch=1 n=d#6 v=67
213630 On ch=1 n=c#5 v=40
213655 On ch=1 n=d#6 v=0
213655 On ch=1 n=c#6 v=72
213685 On ch=1 n=c#5 v=0
213685 On ch=1 n=g#4 v=0
213695 On ch=1 n=c#6 v=0
213725 On ch=1 n=c6 v=65
213730 On ch=1 n=e5 v=45
213800 On ch=1 n=c#6 v=69
213820 On ch=1 n=e5 v=0
213820 On ch=1 n=c6 v=0
213840 On ch=1 n=c#5 v=38
213870 On ch=1 n=e6 v=64
213920 On ch=1 n=c#5 v=0
213930 On ch=1 n=c#6 v=0
213930 On ch=1 n=g#4 v=34
213960 On ch=1 n=g#6 v=69
213985 On ch=1 n=e6 v=0
214045 On ch=1 n=g#4 v=0
214055 On ch=1 n=d#4 v=52
214070 Par ch=1 c=64 v=0
214085 On ch=1 n=g#6 v=0
214155 On ch=1 n=a5 v=55
214185 On ch=1 n=a4 v=42
214195 Par ch=1 c=64 v=127
214230 On ch=1 n=d#4 v=0
214230 On ch=1 n=c#6 v=74
214265 On ch=1 n=a5 v=0
214310 On ch=1 n=d#6 v=69
214320 On ch=1 n=c#5 v=49
214345 On ch=1 n=c#6 v=0
214345 On ch=1 n=a4 v=0
214390 On ch=1 n=d#6 v=0
214390 On ch=1 n=f#6 v=74
214410 On ch=1 n=c#5 v=0
214415 On ch=1 n=f#5 v=54
214420 On ch=1 n=f#6 v=0
214480 On ch=1 n=a6 v=75
214535 On ch=1 n=f#5 v=0
214535 On ch=1 n=c#5 v=36
214570 On ch=1 n=a6 v=0
214570 On ch=1 n=c#7 v=81
214600 On ch=1 n=c#5 v=0
214600 On ch=1 n=a4 v=36
214640 On ch=1 n=d#7 v=80
214655 On ch=1 n=c#7 v=0
214680 On ch=1 n=d#7 v=0
214720 On ch=1 n=a4 v=0
214735 On ch=1 n=f#4 v=50
214750 On ch=1 n=b7 v=81
214795 Par ch=1 c=64 v=0
214840 On ch=1 n=a7 v=78
214855 Par ch=1 c=64 v=127
214875 On ch=1 n=b7 v=0
214895 On ch=1 n=f#4 v=0
214895 On ch=1 n=c#5 v=45
214925 On ch=1 n=g#7 v=80
214955 On ch=1 n=a7 v=0
214975 On ch=1 n=d#5 v=47
214990 On ch=1 n=c#5 v=0
214990 On ch=1 n=f#7 v=78
215010 On ch=1 n=g#7 v=0
215045 On ch=1 n=d#5 v=0
215065 On ch=1 n=f#7 v=0
215065 On ch=1 n=e7 v=78
215080 On ch=1 n=a5 v=53
215135 On ch=1 n=e7 v=0
215135 On ch=1 n=d#7 v=83
215165 On ch=1 n=a5 v=0
215180 On ch=1 n=d#5 v=50
215215 On ch=1 n=f#7 v=76
215220 On ch=1 n=d#5 v=0
215225 On ch=1 n=c#5 v=48
215260 On ch=1 n=c#5 v=0
215265 On ch=1 n=d#7 v=0
215280 On ch=1 n=c#7 v=74
215295 Par ch=1 c=64 v=0
215320 On ch=1 n=f#7 v=0
215350 On ch=1 n=g#3 v=67
215350 On ch=1 n=c7 v=72
215355 On ch=1 n=c#7 v=0
215380 Par ch=1 c=64 v=127
215395 On ch=1 n=c7 v=0
215420 On ch=1 n=d#7 v=76
215435 On ch=1 n=g#3 v=0
215470 On ch=1 n=d#4 v=50
215480 On ch=1 n=d#7 v=0
215505 On ch=1 n=a6 v=73
215550 On ch=1 n=a6 v=0
215550 On ch=1 n=d#4 v=0
215550 On ch=1 n=f#4 v=45
215580 On ch=1 n=g#6 v=80
215605 On ch=1 n=f#4 v=0
215635 On ch=1 n=c5 v=33
215665 On ch=1 n=g#6 v=0
215665 On ch=1 n=f#6 v=75
215715 On ch=1 n=a6 v=63
215725 On ch=1 n=c5 v=0
215750 On ch=1 n=f#6 v=0
215755 On ch=1 n=f#4 v=38
215760 On ch=1 n=a6 v=0
215790 On ch=1 n=e6 v=76
215825 On ch=1 n=f#4 v=0
215830 On ch=1 n=d#4 v=45
215850 On ch=1 n=e6 v=0
215870 On ch=1 n=d#6 v=75
215915 On ch=1 n=d#4 v=0
215930 Par ch=1 c=64 v=0
215945 On ch=1 n=f#6 v=77
215955 On ch=1 n=g#3 v=56
215960 On ch=1 n=d#6 v=0
216015 On ch=1 n=c#6 v=67
216035 On ch=1 n=f#6 v=0
216035 Par ch=1 c=64 v=127
216060 On ch=1 n=d#4 v=49
216065 On ch=1 n=c#6 v=0
216065 On ch=1 n=g#3 v=0
216080 On ch=1 n=c6 v=73
216125 On ch=1 n=c6 v=0
216155 On ch=1 n=d#6 v=73
216155 On ch=1 n=f#4 v=48
216180 On ch=1 n=d#4 v=0
216215 On ch=1 n=f#4 v=0
216215 On ch=1 n=d#6 v=0
216245 On ch=1 n=a5 v=68
216255 On ch=1 n=c5 v=27
216305 On ch=1 n=a5 v=0
216315 On ch=1 n=g#5 v=71
216355 On ch=1 n=c5 v=0
216380 On ch=1 n=f#4 v=41
216380 On ch=1 n=b5 v=74
216395 On ch=1 n=g#5 v=0
216455 On ch=1 n=f#4 v=0
216455 On ch=1 n=d#4 v=38
216485 On ch=1 n=a5 v=71
216500 On ch=1 n=d#4 v=0
216515 On ch=1 n=b5 v=0
216560 Par ch=1 c=64 v=0
216605 On ch=1 n=c#4 v=65
216690 On ch=1 n=a5 v=0
216710 On ch=1 n=g#5 v=60
216730 Par ch=1 c=64 v=127
216755 On ch=1 n=g#5 v=0
216780 On ch=1 n=a5 v=57
216800 On ch=1 n=c#4 v=0
216800 On ch=1 n=g#4 v=39
216850 On ch=1 n=a5 v=0
216855 On ch=1 n=g#5 v=64
216890 On ch=1 n=g#4 v=0
216905 On ch=1 n=g#5 v=0
216905 On ch=1 n=c#5 v=39
216940 On ch=1 n=g5 v=54
216960 On ch=1 n=c#5 v=0
217005 On ch=1 n=g#5 v=68
217010 On ch=1 n=e5 v=41
217015 On ch=1 n=g5 v=0
217095 On ch=1 n=c#6 v=66
217095 On ch=1 n=c#5 v=39
217110 On ch=1 n=e5 v=0
217110 On ch=1 n=g#5 v=0
217165 On ch=1 n=c#5 v=0
217165 On ch=1 n=c#6 v=0
217170 On ch=1 n=e6 v=61
217175 On ch=1 n=g#4 v=40
217235 On ch=1 n=g#4 v=0
217250 Par ch=1 c=64 v=0
217260 On ch=1 n=d#6 v=70
217275 On ch=1 n=e6 v=0
217280 On ch=1 n=e4 v=48
217335 Par ch=1 c=64 v=127
217340 On ch=1 n=d#6 v=0
217350 On ch=1 n=c#6 v=68
217390 On ch=1 n=e4 v=0
217390 On ch=1 n=g#4 v=49
217395 On ch=1 n=c#6 v=0
217410 On ch=1 n=d#6 v=67
217470 On ch=1 n=g#4 v=0
217470 On ch=1 n=c#5 v=39
217500 On ch=1 n=d#6 v=0
217500 On ch=1 n=c#6 v=73
217505 On ch=1 n=c#5 v=0
217535 On ch=1 n=c#6 v=0
217545 On ch=1 n=c6 v=69
217555 On ch=1 n=e5 v=47
217620 On ch=1 n=c#6 v=76
217635 On ch=1 n=c6 v=0
217645 On ch=1 n=c#5 v=37
217655 On ch=1 n=e5 v=0
217695 On ch=1 n=e6 v=75
217705 On ch=1 n=g#4 v=41
217710 On ch=1 n=c#6 v=0
217730 On ch=1 n=c#5 v=0
217755 On ch=1 n=g#4 v=0
217770 On ch=1 n=e6 v=0
217770 On ch=1 n=g#6 v=74
217795 Par ch=1 c=64 v=0
217845 On ch=1 n=f#4 v=68
217850 On ch=1 n=e6 v=71
217875 On ch=1 n=g#6 v=0
217880 Par ch=1 c=64 v=127
217925 On ch=1 n=e6 v=0
217940 On ch=1 n=d#6 v=75
217960 On ch=1 n=c#5 v=51
217970 On ch=1 n=f#4 v=0
218000 On ch=1 n=d#6 v=0
218010 On ch=1 n=e6 v=77
218045 On ch=1 n=d#5 v=52
218070 On ch=1 n=c#5 v=0
218095 On ch=1 n=e6 v=0
218095 On ch=1 n=d#6 v=76
218120 On ch=1 n=d#5 v=0
218150 On ch=1 n=a5 v=51
218160 On ch=1 n=d#6 v=0
218175 On ch=1 n=d6 v=72
218235 On ch=1 n=d#6 v=66
218250 On ch=1 n=a5 v=0
218260 On ch=1 n=d6 v=0
218265 On ch=1 n=d#5 v=51
218310 On ch=1 n=f#6 v=76
218330 On ch=1 n=d#5 v=0
218330 On ch=1 n=c#5 v=42
218345 On ch=1 n=d#6 v=0
218380 On ch=1 n=c#5 v=0
218380 On ch=1 n=a6 v=78
218390 On ch=1 n=f#6 v=0
218420 Par ch=1 c=64 v=0
218455 On ch=1 n=g#4 v=59
218470 On ch=1 n=f#6 v=79
218485 On ch=1 n=a6 v=0
218515 Par ch=1 c=64 v=127
218545 On ch=1 n=c#5 v=48
218545 On ch=1 n=f6 v=77
218560 On ch=1 n=f#6 v=0
218580 On ch=1 n=g#4 v=0
218620 On ch=1 n=f#6 v=80
218630 On ch=1 n=f6 v=0
218640 On ch=1 n=f5 v=56
218665 On ch=1 n=c#5 v=0
218705 On ch=1 n=f6 v=61
218715 On ch=1 n=f#6 v=0
218735 On ch=1 n=f5 v=0
218745 On ch=1 n=f6 v=0
218745 On ch=1 n=b5 v=63
218755 On ch=1 n=e6 v=74
218825 On ch=1 n=f6 v=81
218830 On ch=1 n=e6 v=0
218845 On ch=1 n=f5 v=55
218850 On ch=1 n=b5 v=0
218890 On ch=1 n=g#6 v=78
218915 On ch=1 n=f6 v=0
218930 On ch=1 n=f5 v=0
218935 On ch=1 n=c#5 v=47
218965 On ch=1 n=c#7 v=81
218980 On ch=1 n=g#6 v=0
218985 On ch=1 n=c#5 v=0
219025 On ch=1 n=c#7 v=0
219065 Par ch=1 c=64 v=0
219070 On ch=1 n=a4 v=63
219150 On ch=1 n=c#6 v=76
219185 Par ch=1 c=64 v=127
219200 On ch=1 n=c#5 v=47
219225 On ch=1 n=c#6 v=0
219225 On ch=1 n=d6 v=78
219235 On ch=1 n=a4 v=0
219310 On ch=1 n=d6 v=0
219310 On ch=1 n=c#6 v=65
219310 On ch=1 n=f#5 v=45
219335 On ch=1 n=c#5 v=0
219355 On ch=1 n=f#5 v=0
219370 On ch=1 n=c#6 v=0
219385 On ch=1 n=c6 v=70
219390 On ch=1 n=a5 v=55
219455 On ch=1 n=c#6 v=74
219480 On ch=1 n=c6 v=0
219495 On ch=1 n=f#5 v=53
219510 On ch=1 n=a5 v=0
219540 On ch=1 n=f#6 v=76
219550 On ch=1 n=c#6 v=0
219590 On ch=1 n=f#5 v=0
219590 On ch=1 n=c#5 v=38
219605 On ch=1 n=a6 v=75
219620 On ch=1 n=f#6 v=0
219635 On ch=1 n=c#5 v=0
219695 Par ch=1 c=64 v=0
219710 On ch=1 n=f#6 v=83
219710 On ch=1 n=g#4 v=63
219725 On ch=1 n=a6 v=0
219775 Par ch=1 c=64 v=127
219785 On ch=1 n=f6 v=78
219800 On ch=1 n=f#6 v=0
219805 On ch=1 n=c#5 v=45
219825 On ch=1 n=g#4 v=0
219865 On ch=1 n=f6 v=0
219870 On ch=1 n=f#6 v=83
219890 On ch=1 n=f5 v=57
219910 On ch=1 n=c#5 v=0
219960 On ch=1 n=f6 v=66
219970 On ch=1 n=f#6 v=0
219980 On ch=1 n=f5 v=0
220000 On ch=1 n=f6 v=0
220000 On ch=1 n=b5 v=65
220010 On ch=1 n=e6 v=75
220080 On ch=1 n=f6 v=84
220085 On ch=1 n=e6 v=0
220100 On ch=1 n=b5 v=0
220100 On ch=1 n=f5 v=55
220150 On ch=1 n=g#6 v=78
220160 On ch=1 n=f6 v=0
220180 On ch=1 n=f5 v=0
220180 On ch=1 n=c#5 v=49
220215 On ch=1 n=c#7 v=84
220220 On ch=1 n=c#5 v=0
220225 On ch=1 n=g#6 v=0
220275 Par ch=1 c=64 v=0
220310 On ch=1 n=a4 v=62
220310 On ch=1 n=g#6 v=80
220330 On ch=1 n=c#7 v=0
220360 Par ch=1 c=64 v=127
220395 On ch=1 n=g#6 v=0
220395 On ch=1 n=f#6 v=84
220420 On ch=1 n=c#5 v=51
220440 On ch=1 n=a4 v=0
220465 On ch=1 n=g#6 v=80
220470 On ch=1 n=f#6 v=0
220515 On ch=1 n=f#5 v=54
220540 On ch=1 n=c#5 v=0
220540 On ch=1 n=f#6 v=72
220555 On ch=1 n=g#6 v=0
220570 On ch=1 n=f#5 v=0
220595 On ch=1 n=f#6 v=0
220595 On ch=1 n=a5 v=56
220595 On ch=1 n=f6 v=76
220665 On ch=1 n=f#6 v=75
220685 On ch=1 n=f6 v=0
220700 On ch=1 n=f#5 v=58
220720 On ch=1 n=a5 v=0
220745 On ch=1 n=a6 v=79
220755 On ch=1 n=c#5 v=49
220770 On ch=1 n=f#5 v=0
220770 On ch=1 n=f#6 v=0
220795 On ch=1 n=c#5 v=0
220800 On ch=1 n=c#7 v=81
220820 On ch=1 n=a6 v=0
220885 Par ch=1 c=64 v=0
220890 On ch=1 n=a6 v=75
220890 On ch=1 n=c4 v=72
220920 On ch=1 n=c#7 v=0
220970 On ch=1 n=a6 v=0
220975 Par ch=1 c=64 v=127
220980 On ch=1 n=g#6 v=79
221005 On ch=1 n=c4 v=0
221015 On ch=1 n=f#4 v=60
221055 On ch=1 n=g#6 v=0
221055 On ch=1 n=a6 v=79
221130 On ch=1 n=g#4 v=50
221135 On ch=1 n=g#6 v=75
221145 On ch=1 n=a6 v=0
221145 On ch=1 n=f#4 v=0
221190 On ch=1 n=g#4 v=0
221200 On ch=1 n=g#6 v=0
221200 On ch=1 n=g6 v=82
221215 On ch=1 n=d#5 v=47
221275 On ch=1 n=g#6 v=75
221305 On ch=1 n=g6 v=0
221315 On ch=1 n=g#4 v=50
221325 On ch=1 n=d#5 v=0
221335 On ch=1 n=c7 v=81
221380 On ch=1 n=g#6 v=0
221400 On ch=1 n=f#4 v=46
221410 On ch=1 n=g#4 v=0
221430 On ch=1 n=d#7 v=80
221445 On ch=1 n=c7 v=0
221460 On ch=1 n=f#4 v=0
221490 Par ch=1 c=64 v=0
221500 On ch=1 n=c#4 v=74
221505 On ch=1 n=d#7 v=0
221505 On ch=1 n=g#6 v=80
221585 On ch=1 n=a6 v=84
221600 On ch=1 n=g#6 v=0
221600 Par ch=1 c=64 v=127
221630 On ch=1 n=g#4 v=53
221640 On ch=1 n=c#4 v=0
221685 On ch=1 n=g#6 v=82
221715 On ch=1 n=a6 v=0
221745 On ch=1 n=c#5 v=59
221765 On ch=1 n=g6 v=85
221775 On ch=1 n=g#6 v=0
221800 On ch=1 n=g#4 v=0
221875 On ch=1 n=c#5 v=0
221880 On ch=1 n=g#6 v=86
221885 On ch=1 n=e5 v=52
221910 On ch=1 n=g6 v=0
222000 On ch=1 n=e7 v=91
222030 On ch=1 n=g#6 v=0
222035 On ch=1 n=e5 v=0
222035 On ch=1 n=c#5 v=51
222105 On ch=1 n=d#7 v=81
222160 On ch=1 n=g#4 v=48
222165 On ch=1 n=c#5 v=0
222195 On ch=1 n=d7 v=89
222205 On ch=1 n=e7 v=0
222245 On ch=1 n=g#4 v=0
222295 On ch=1 n=d#7 v=0
222295 On ch=1 n=c#7 v=85
222295 On ch=1 n=d#4 v=62
222310 Par ch=1 c=64 v=0
222335 On ch=1 n=d7 v=0
222385 On ch=1 n=c7 v=78
222395 On ch=1 n=c#7 v=0
222395 Par ch=1 c=64 v=127
222400 On ch=1 n=g#4 v=53
222435 On ch=1 n=d#4 v=0
222445 On ch=1 n=c7 v=0
222460 On ch=1 n=b6 v=91
222505 On ch=1 n=c5 v=47
222535 On ch=1 n=a#6 v=84
222550 On ch=1 n=b6 v=0
222550 On ch=1 n=g#4 v=0
222610 On ch=1 n=c5 v=0
222615 On ch=1 n=f#5 v=57
222625 On ch=1 n=a#6 v=0
222625 On ch=1 n=a6 v=81
222685 On ch=1 n=a6 v=0
222690 On ch=1 n=f#5 v=0
222715 On ch=1 n=g#6 v=83
222725 On ch=1 n=c5 v=37
222775 On ch=1 n=g#6 v=0
222785 On ch=1 n=g6 v=80
222820 On ch=1 n=g#4 v=53
222830 On ch=1 n=c5 v=0
222835 On ch=1 n=g6 v=0
222865 On ch=1 n=f#6 v=80
222905 On ch=1 n=g#4 v=0
222925 On ch=1 n=f#6 v=0
222940 On ch=1 n=e6 v=84
222950 Par ch=1 c=64 v=0
222955 On ch=1 n=e4 v=62
223000 On ch=1 n=e6 v=0
223025 On ch=1 n=f#6 v=86
223035 Par ch=1 c=64 v=127
223060 On ch=1 n=e4 v=0
223070 On ch=1 n=g#4 v=54
223110 On ch=1 n=e6 v=80
223150 On ch=1 n=c#5 v=45
223165 On ch=1 n=f#6 v=0
223175 On ch=1 n=g#4 v=0
223185 On ch=1 n=d#6 v=78
223205 On ch=1 n=c#5 v=0
223210 On ch=1 n=e6 v=0
223240 On ch=1 n=e5 v=54
223260 On ch=1 n=e6 v=77
223270 On ch=1 n=d#6 v=0
223325 On ch=1 n=e6 v=0
223340 On ch=1 n=c#5 v=52
223340 On ch=1 n=e7 v=95
223345 On ch=1 n=e5 v=0
223415 On ch=1 n=d#7 v=78
223415 On ch=1 n=g#4 v=48
223440 On ch=1 n=c#5 v=0
223465 On ch=1 n=g#4 v=0
223475 On ch=1 n=e7 v=0
223480 On ch=1 n=d7 v=80
223515 Par ch=1 c=64 v=0
223545 On ch=1 n=f#4 v=71
223560 On ch=1 n=c#7 v=85
223570 On ch=1 n=d#7 v=0
223595 On ch=1 n=d7 v=0
223625 Par ch=1 c=64 v=127
223635 On ch=1 n=c7 v=83
223640 On ch=1 n=c#7 v=0
223660 On ch=1 n=c#5 v=55
223685 On ch=1 n=c7 v=0
223685 On ch=1 n=f#4 v=0
223715 On ch=1 n=b6 v=88
223745 On ch=1 n=d#5 v=56
223775 On ch=1 n=a#6 v=87
223795 On ch=1 n=c#5 v=0
223805 On ch=1 n=b6 v=0
223835 On ch=1 n=d#5 v=0
223835 On ch=1 n=a5 v=63
223860 On ch=1 n=a6 v=78
223865 On ch=1 n=a#6 v=0
223915 On ch=1 n=a6 v=0
223935 On ch=1 n=g#6 v=83
223940 On ch=1 n=a5 v=0
223950 On ch=1 n=d#5 v=54
223990 On ch=1 n=c#5 v=56
224000 On ch=1 n=d#5 v=0
224005 On ch=1 n=g6 v=87
224015 On ch=1 n=g#6 v=0
224055 On ch=1 n=c#5 v=0
224070 On ch=1 n=f#6 v=87
224075 Par ch=1 c=64 v=0
224090 On ch=1 n=g6 v=0
224135 On ch=1 n=g#6 v=92
224145 On ch=1 n=f#6 v=0
224145 On ch=1 n=g#5 v=87
224145 On ch=1 n=e5 v=76
224145 On ch=1 n=c#5 v=60
224145 On ch=1 n=g#4 v=67
224160 On ch=1 n=g#6 v=0
224165 On ch=1 n=d#5 v=25
224175 Par ch=1 c=64 v=127
224215 On ch=1 n=d#5 v=0
224225 On ch=1 n=c#5 v=0
224225 On ch=1 n=g#5 v=0
224240 On ch=1 n=g#4 v=0
224265 On ch=1 n=e5 v=0
224325 On ch=1 n=g#7 v=92
224375 Par ch=1 c=64 v=0
224395 On ch=1 n=g7 v=86
224400 On ch=1 n=g#7 v=0
224465 On ch=1 n=g7 v=0
224470 On ch=1 n=f#7 v=94
224550 On ch=1 n=f7 v=86
224585 On ch=1 n=f#7 v=0
224615 On ch=1 n=e7 v=89
224625 On ch=1 n=f7 v=0
224685 On ch=1 n=e7 v=0
224695 On ch=1 n=d#7 v=92
224755 On ch=1 n=c#5 v=69
224755 On ch=1 n=a5 v=83
224755 On ch=1 n=e5 v=77
224755 On ch=1 n=g4 v=69
224775 On ch=1 n=d7 v=97
224795 On ch=1 n=d#7 v=0
224835 On ch=1 n=d7 v=0
224835 Par ch=1 c=64 v=127
224855 On ch=1 n=c#7 v=92
224880 On ch=1 n=a5 v=0
224890 On ch=1 n=e5 v=0
224900 On ch=1 n=g4 v=0
224900 On ch=1 n=c#5 v=0
224935 On ch=1 n=c7 v=80
224965 On ch=1 n=c#7 v=0
225000 On ch=1 n=b6 v=86
225005 On ch=1 n=c7 v=0
225065 On ch=1 n=b6 v=0
225080 On ch=1 n=a#6 v=89
225155 On ch=1 n=a#6 v=0
225155 On ch=1 n=a6 v=82
225215 On ch=1 n=a6 v=0
225240 On ch=1 n=g#6 v=83
225310 On ch=1 n=g#6 v=0
225310 On ch=1 n=g6 v=80
225370 On ch=1 n=g6 v=0
225390 On ch=1 n=f#6 v=81
225460 On ch=1 n=f6 v=80
225480 On ch=1 n=f#6 v=0
225525 On ch=1 n=f6 v=0
225540 On ch=1 n=e6 v=73
225595 On ch=1 n=e6 v=0
225615 On ch=1 n=d#6 v=77
225680 On ch=1 n=d#6 v=0
225695 On ch=1 n=d6 v=78
225760 On ch=1 n=d6 v=0
225770 On ch=1 n=c#6 v=82
225845 On ch=1 n=c6 v=80
225870 On ch=1 n=c#6 v=0
225920 On ch=1 n=c6 v=0
225930 On ch=1 n=b5 v=82
226000 On ch=1 n=b5 v=0
226010 On ch=1 n=a#5 v=82
226090 On ch=1 n=a5 v=85
226095 On ch=1 n=a#5 v=0
226160 On ch=1 n=a5 v=0
226180 On ch=1 n=g#5 v=79
226260 On ch=1 n=g5 v=80
226275 On ch=1 n=g#5 v=0
226330 On ch=1 n=g5 v=0
226360 On ch=1 n=f#5 v=83
226455 On ch=1 n=e5 v=80
226470 On ch=1 n=f#5 v=0
226525 On ch=1 n=e5 v=0
226555 On ch=1 n=d#5 v=73
226635 On ch=1 n=c#5 v=75
226660 On ch=1 n=d#5 v=0
226695 On ch=1 n=c#5 v=0
226795 On ch=1 n=g#3 v=88
226800 On ch=1 n=g#2 v=92
226805 Par ch=1 c=64 v=0
226810 On ch=1 n=g#4 v=86
227020 On ch=1 n=g#4 v=0
227020 On ch=1 n=g#2 v=0
227020 Par ch=1 c=64 v=127
227060 On ch=1 n=g#3 v=0
227560 On ch=1 n=e6 v=90
227560 On ch=1 n=e5 v=73
227615 On ch=1 n=a7 v=101
227685 On ch=1 n=e6 v=0
227720 On ch=1 n=e5 v=0
227765 On ch=1 n=a7 v=0
227765 On ch=1 n=g#7 v=81
227845 On ch=1 n=e8 v=89
227860 On ch=1 n=g#7 v=0
227900 On ch=1 n=e8 v=0
227935 On ch=1 n=e7 v=81
228005 On ch=1 n=e7 v=0
228010 On ch=1 n=c#6 v=94
228020 On ch=1 n=f#7 v=86
228020 On ch=1 n=c#5 v=73
228070 On ch=1 n=c#6 v=0
228095 On ch=1 n=e7 v=78
228110 On ch=1 n=c#5 v=0
228110 On ch=1 n=f#7 v=0
228165 On ch=1 n=c#8 v=83
228180 On ch=1 n=e7 v=0
228220 On ch=1 n=c#8 v=0
228225 On ch=1 n=c#7 v=84
228300 On ch=1 n=c#7 v=0
228315 On ch=1 n=g#5 v=87
228315 On ch=1 n=g#4 v=73
228315 On ch=1 n=d#7 v=88
228350 On ch=1 n=g#5 v=0
228365 On ch=1 n=g#4 v=0
228405 On ch=1 n=c#7 v=78
228425 On ch=1 n=d#7 v=0
228445 On ch=1 n=g#7 v=78
228480 On ch=1 n=c#7 v=0
228505 On ch=1 n=g#7 v=0
228505 On ch=1 n=g#6 v=79
228555 On ch=1 n=g#6 v=0
228600 On ch=1 n=a6 v=85
228600 On ch=1 n=e5 v=82
228610 On ch=1 n=e4 v=69
228665 On ch=1 n=e5 v=0
228665 On ch=1 n=g#6 v=78
228675 On ch=1 n=a6 v=0
228705 On ch=1 n=e4 v=0
228735 On ch=1 n=e7 v=89
228750 On ch=1 n=g#6 v=0
228780 On ch=1 n=e7 v=0
228800 On ch=1 n=e6 v=75
228850 Par ch=1 c=64 v=0
228880 Par ch=1 c=64 v=127
228885 On ch=1 n=e6 v=0
228885 On ch=1 n=f#6 v=87
228895 On ch=1 n=c#5 v=77
228895 On ch=1 n=c#4 v=79
228940 On ch=1 n=c#5 v=0
228955 On ch=1 n=c#4 v=0
228960 On ch=1 n=e6 v=65
228970 On ch=1 n=f#6 v=0
229015 On ch=1 n=c#7 v=85
229050 On ch=1 n=e6 v=0
229080 On ch=1 n=c#7 v=0
229080 On ch=1 n=c#6 v=83
229155 On ch=1 n=c#6 v=0
229155 On ch=1 n=g#4 v=75
229160 On ch=1 n=g#3 v=72
229170 On ch=1 n=d#6 v=87
229210 On ch=1 n=g#4 v=0
229230 On ch=1 n=g#3 v=0
229250 On ch=1 n=c#6 v=82
229280 On ch=1 n=d#6 v=0
229290 On ch=1 n=g#6 v=75
229345 On ch=1 n=c#6 v=0
229350 On ch=1 n=g#6 v=0
229355 On ch=1 n=g#5 v=73
229395 On ch=1 n=g#5 v=0
229440 On ch=1 n=e4 v=75
229445 On ch=1 n=e3 v=83
229450 On ch=1 n=a5 v=85
229500 On ch=1 n=e4 v=0
229505 On ch=1 n=g#5 v=70
229515 On ch=1 n=e3 v=0
229520 On ch=1 n=a5 v=0
229585 On ch=1 n=e6 v=85
229600 On ch=1 n=g#5 v=0
229635 On ch=1 n=e6 v=0
229650 On ch=1 n=e5 v=69
229730 On ch=1 n=e5 v=0
229735 On ch=1 n=f#5 v=77
229745 Par ch=1 c=64 v=0
229760 On ch=1 n=c#4 v=79
229760 On ch=1 n=c#3 v=79
229825 On ch=1 n=e5 v=60
229840 On ch=1 n=c#4 v=0
229840 On ch=1 n=f#5 v=0
229840 Par ch=1 c=64 v=127
229890 On ch=1 n=c#3 v=0
229890 On ch=1 n=c#6 v=83
229955 On ch=1 n=e5 v=0
229960 On ch=1 n=c#5 v=67
229970 On ch=1 n=c#6 v=0
230035 On ch=1 n=c#5 v=0
230075 Par ch=1 c=64 v=0
230080 On ch=1 n=d#5 v=72
230080 On ch=1 n=g#3 v=77
230080 On ch=1 n=g#2 v=84
230195 On ch=1 n=c#5 v=58
230240 Par ch=1 c=64 v=127
230285 On ch=1 n=g#5 v=72
230295 On ch=1 n=d#5 v=0
230345 On ch=1 n=c#5 v=0
230355 On ch=1 n=g#3 v=0
230360 On ch=1 n=g#2 v=0
230375 On ch=1 n=g#4 v=58
230410 On ch=1 n=g#5 v=0
230465 Par ch=1 c=64 v=0
230470 On ch=1 n=d#5 v=61
230470 On ch=1 n=g#3 v=72
230480 On ch=1 n=g#4 v=0
230480 On ch=1 n=g#2 v=77
230530 Par ch=1 c=64 v=127
230555 On ch=1 n=c#5 v=56
230600 On ch=1 n=d#5 v=0
230640 On ch=1 n=g#5 v=72
230665 On ch=1 n=c#5 v=0
230665 On ch=1 n=g#3 v=0
230680 On ch=1 n=g#2 v=0
230680 On ch=1 n=g#4 v=58
230745 On ch=1 n=g#4 v=0
230745 On ch=1 n=g#5 v=0
230765 On ch=1 n=d#5 v=65
230770 On ch=1 n=a3 v=78
230770 On ch=1 n=a2 v=84
230790 Par ch=1 c=64 v=0
230865 On ch=1 n=c#5 v=52
230890 Par ch=1 c=64 v=127
230900 On ch=1 n=d#5 v=0
230915 On ch=1 n=a3 v=0
230915 On ch=1 n=a5 v=73
230925 On ch=1 n=a2 v=0
230955 On ch=1 n=c#5 v=0
230980 On ch=1 n=a4 v=58
231015 On ch=1 n=a5 v=0
231065 On ch=1 n=a4 v=0
231065 On ch=1 n=d#5 v=69
231065 On ch=1 n=g#3 v=80
231065 On ch=1 n=g#2 v=88
231080 Par ch=1 c=64 v=0
231160 On ch=1 n=c#5 v=61
231180 Par ch=1 c=64 v=127
231230 On ch=1 n=d#5 v=0
231235 On ch=1 n=g#5 v=73
231260 On ch=1 n=g#3 v=0
231275 On ch=1 n=c#5 v=0
231285 On ch=1 n=g#2 v=0
231305 On ch=1 n=g#4 v=60
231380 On ch=1 n=g#5 v=0
231380 On ch=1 n=d#5 v=65
231380 On ch=1 n=g3 v=80
231380 On ch=1 n=g2 v=89
231395 On ch=1 n=g#4 v=0
231410 Par ch=1 c=64 v=0
231485 On ch=1 n=c#5 v=63
231505 Par ch=1 c=64 v=127
231545 On ch=1 n=g2 v=0
231550 On ch=1 n=g3 v=0
231560 On ch=1 n=d#5 v=0
231560 On ch=1 n=g5 v=70
231605 On ch=1 n=c#5 v=0
231650 On ch=1 n=g4 v=66
231765 On ch=1 n=g#3 v=82
231770 On ch=1 n=d#5 v=69
231770 On ch=1 n=g#2 v=92
231780 On ch=1 n=g4 v=0
231780 On ch=1 n=g5 v=0
231795 Par ch=1 c=64 v=0
231880 On ch=1 n=c#5 v=66
231990 On ch=1 n=g#5 v=76
232040 On ch=1 n=d#5 v=0
232095 On ch=1 n=g#4 v=72
232110 On ch=1 n=c#5 v=0
232230 On ch=1 n=d#5 v=70
232320 On ch=1 n=g#5 v=0
232360 Par ch=1 c=64 v=127
232365 On ch=1 n=c5 v=60
232410 On ch=1 n=g#4 v=0
232445 On ch=1 n=g#2 v=0
232500 On ch=1 n=g#3 v=0
232530 On ch=1 n=g#5 v=79
232665 On ch=1 n=g#4 v=70
232675 On ch=1 n=c5 v=0
232690 On ch=1 n=d#5 v=0
232730 On ch=1 n=g#5 v=0
232845 On ch=1 n=c#3 v=88
232855 Par ch=1 c=64 v=0
232870 On ch=1 n=d#5 v=67
232905 On ch=1 n=g#4 v=0
232980 Par ch=1 c=64 v=127
233035 On ch=1 n=c#3 v=0
233035 On ch=1 n=c#5 v=66
233100 On ch=1 n=d#5 v=0
233190 On ch=1 n=g#5 v=72
233210 On ch=1 n=e4 v=56
233235 On ch=1 n=c#5 v=0
233275 On ch=1 n=g#4 v=62
233295 On ch=1 n=g#5 v=0
233310 On ch=1 n=g#4 v=0
233420 On ch=1 n=a5 v=82
233430 On ch=1 n=c#4 v=58
233510 On ch=1 n=e4 v=0
233520 On ch=1 n=a5 v=0
233520 On ch=1 n=g#5 v=76
233575 On ch=1 n=g#5 v=0
233625 On ch=1 n=e6 v=87
233635 On ch=1 n=c#4 v=0
233635 On ch=1 n=g#3 v=60
233690 On ch=1 n=g#3 v=0
233690 On ch=1 n=e6 v=0
233710 On ch=1 n=e5 v=69
233800 On ch=1 n=c#3 v=84
233800 On ch=1 n=a5 v=77
233815 Par ch=1 c=64 v=0
233825 On ch=1 n=e5 v=0
233845 On ch=1 n=c#3 v=0
233875 On ch=1 n=g#5 v=75
233890 On ch=1 n=a5 v=0
233890 Par ch=1 c=64 v=127
233935 On ch=1 n=e6 v=87
233960 On ch=1 n=f#4 v=58
233965 On ch=1 n=g#5 v=0
234005 On ch=1 n=e6 v=0
234010 On ch=1 n=e5 v=73
234095 On ch=1 n=a5 v=77
234110 On ch=1 n=f#4 v=0
234110 On ch=1 n=c4 v=52
234115 On ch=1 n=e5 v=0
234160 On ch=1 n=g#5 v=75
234250 On ch=1 n=g#5 v=0
234250 On ch=1 n=d#6 v=88
234265 On ch=1 n=c4 v=0
234265 On ch=1 n=g#3 v=53
234320 On ch=1 n=g#3 v=0
234325 On ch=1 n=a5 v=0
234325 On ch=1 n=d#5 v=66
234395 Par ch=1 c=64 v=0
234415 On ch=1 n=a5 v=75
234420 On ch=1 n=d#6 v=0
234420 On ch=1 n=c#3 v=76
234430 On ch=1 n=d#5 v=0
234470 Par ch=1 c=64 v=127
234475 On ch=1 n=c#3 v=0
234490 On ch=1 n=g#5 v=72
234565 On ch=1 n=d#6 v=85
234575 On ch=1 n=e4 v=50
234580 On ch=1 n=a5 v=0
234610 On ch=1 n=g#5 v=0
234650 On ch=1 n=d#5 v=67
234685 On ch=1 n=d#6 v=0
234720 On ch=1 n=c#4 v=57
234725 On ch=1 n=a5 v=70
234755 On ch=1 n=d#5 v=0
234775 On ch=1 n=e4 v=0
234800 On ch=1 n=g#5 v=65
234835 On ch=1 n=c#6 v=80
234865 On ch=1 n=a5 v=0
234870 On ch=1 n=c#4 v=0
234870 On ch=1 n=g#3 v=55
234890 On ch=1 n=g#5 v=0
234915 On ch=1 n=g#3 v=0
234920 On ch=1 n=c#6 v=0
234940 On ch=1 n=c#5 v=53
234985 On ch=1 n=c#5 v=0
234985 Par ch=1 c=64 v=0
235015 On ch=1 n=c#3 v=74
235035 On ch=1 n=e5 v=68
235060 On ch=1 n=c#3 v=0
235095 Par ch=1 c=64 v=127
235160 On ch=1 n=e5 v=0
235160 On ch=1 n=d#5 v=37
235170 On ch=1 n=g#5 v=70
235170 On ch=1 n=f#4 v=51
235195 On ch=1 n=d#5 v=0
235235 On ch=1 n=g#4 v=59
235265 On ch=1 n=g#5 v=0
235290 On ch=1 n=f#4 v=0
235315 On ch=1 n=e5 v=58
235320 On ch=1 n=c4 v=48
235340 On ch=1 n=g#4 v=0
235375 On ch=1 n=d#5 v=35
235415 On ch=1 n=e5 v=0
235435 On ch=1 n=c4 v=0
235440 On ch=1 n=g#3 v=54
235465 On ch=1 n=g#5 v=65
235475 On ch=1 n=d#5 v=0
235500 On ch=1 n=g#3 v=0
235530 On ch=1 n=g#5 v=0
235530 On ch=1 n=g#4 v=52
235565 Par ch=1 c=64 v=0
235605 On ch=1 n=g#4 v=0
235615 On ch=1 n=c#3 v=69
235625 On ch=1 n=d#5 v=62
235670 Par ch=1 c=64 v=127
235680 On ch=1 n=c#3 v=0
235715 On ch=1 n=c#5 v=56
235755 On ch=1 n=d#5 v=0
235770 On ch=1 n=e4 v=41
235775 On ch=1 n=g#5 v=68
235780 On ch=1 n=c#5 v=0
235840 On ch=1 n=g#4 v=53
235845 On ch=1 n=g#5 v=0
235880 On ch=1 n=g#4 v=0
235965 On ch=1 n=a5 v=79
235965 On ch=1 n=c#4 v=52
235985 On ch=1 n=e4 v=0
236060 On ch=1 n=a5 v=0
236070 On ch=1 n=g#5 v=64
236100 On ch=1 n=g#5 v=0
236155 On ch=1 n=e6 v=84
236155 On ch=1 n=g#3 v=46
236160 On ch=1 n=c#4 v=0
236215 On ch=1 n=g#3 v=0
236220 On ch=1 n=e6 v=0
236240 On ch=1 n=e5 v=68
236315 On ch=1 n=c#3 v=75
236325 Par ch=1 c=64 v=0
236330 On ch=1 n=a5 v=80
236345 On ch=1 n=e5 v=0
236365 On ch=1 n=c#3 v=0
236390 Par ch=1 c=64 v=127
236415 On ch=1 n=g#5 v=69
236430 On ch=1 n=a5 v=0
236475 On ch=1 n=f#4 v=53
236480 On ch=1 n=e6 v=84
236490 On ch=1 n=g#5 v=0
236545 On ch=1 n=e6 v=0
236560 On ch=1 n=e5 v=72
236610 On ch=1 n=f#4 v=0
236625 On ch=1 n=c4 v=51
236645 On ch=1 n=a5 v=75
236660 On ch=1 n=e5 v=0
236715 On ch=1 n=g#5 v=68
236745 On ch=1 n=g#3 v=57
236755 On ch=1 n=c4 v=0
236790 On ch=1 n=d#6 v=87
236805 On ch=1 n=g#3 v=0
236805 On ch=1 n=a5 v=0
236820 On ch=1 n=g#5 v=0
236875 On ch=1 n=d#5 v=67
236915 On ch=1 n=d#6 v=0
236915 Par ch=1 c=64 v=0
236925 On ch=1 n=c#3 v=78
236950 On ch=1 n=a5 v=66
236970 On ch=1 n=d#5 v=0
236980 On ch=1 n=c#3 v=0
236995 Par ch=1 c=64 v=127
237015 On ch=1 n=g#5 v=75
237070 On ch=1 n=e4 v=51
237090 On ch=1 n=d#6 v=82
237095 On ch=1 n=a5 v=0
237120 On ch=1 n=g#5 v=0
237175 On ch=1 n=d#5 v=66
237220 On ch=1 n=d#6 v=0
237230 On ch=1 n=c#4 v=56
237240 On ch=1 n=a5 v=75
237275 On ch=1 n=d#5 v=0
237305 On ch=1 n=g#5 v=71
237335 On ch=1 n=e4 v=0
237370 On ch=1 n=c#6 v=85
237380 On ch=1 n=a5 v=0
237385 On ch=1 n=c#4 v=0
237385 On ch=1 n=g#3 v=54
237410 On ch=1 n=g#5 v=0
237430 On ch=1 n=g#3 v=0
237450 On ch=1 n=c#6 v=0
237470 On ch=1 n=c#5 v=53
237525 On ch=1 n=c#5 v=0
237525 Par ch=1 c=64 v=0
237545 On ch=1 n=c#3 v=76
237545 On ch=1 n=e5 v=70
237595 On ch=1 n=c#3 v=0
237630 Par ch=1 c=64 v=127
237640 On ch=1 n=d#5 v=56
237670 On ch=1 n=e5 v=0
237695 On ch=1 n=g#5 v=68
237705 On ch=1 n=f#4 v=51
237720 On ch=1 n=d#5 v=0
237755 On ch=1 n=g#4 v=59
237790 On ch=1 n=g#5 v=0
237810 On ch=1 n=f#4 v=0
237840 On ch=1 n=e5 v=67
237850 On ch=1 n=g#4 v=0
237850 On ch=1 n=c4 v=50
237905 On ch=1 n=d#5 v=25
237950 On ch=1 n=e5 v=0
237955 On ch=1 n=g#5 v=68
237985 On ch=1 n=d#5 v=0
237990 On ch=1 n=g#3 v=53
238000 On ch=1 n=c4 v=0
238030 On ch=1 n=g#4 v=60
238060 On ch=1 n=g#3 v=0
238070 On ch=1 n=g#5 v=0
238110 On ch=1 n=g#4 v=0
238125 Par ch=1 c=64 v=0
238135 On ch=1 n=d#5 v=59
238165 On ch=1 n=c#3 v=71
238210 On ch=1 n=c#5 v=56
238225 On ch=1 n=c#3 v=0
238235 On ch=1 n=d#5 v=0
238235 Par ch=1 c=64 v=127
238285 On ch=1 n=g#5 v=62
238305 On ch=1 n=c#5 v=0
238310 On ch=1 n=e4 v=46
238345 On ch=1 n=g#4 v=56
238350 On ch=1 n=g#5 v=0
238385 On ch=1 n=g#4 v=0
238470 On ch=1 n=a5 v=76
238490 On ch=1 n=c#4 v=50
238535 On ch=1 n=e4 v=0
238550 On ch=1 n=a5 v=0
238555 On ch=1 n=g#5 v=68
238635 On ch=1 n=e6 v=74
238640 On ch=1 n=g#5 v=0
238655 On ch=1 n=g#3 v=51
238660 On ch=1 n=c#4 v=0
238680 On ch=1 n=e6 v=0
238700 On ch=1 n=g#3 v=0
238715 On ch=1 n=e5 v=63
238770 Par ch=1 c=64 v=0
238795 On ch=1 n=e5 v=0
238795 On ch=1 n=c#3 v=67
238805 On ch=1 n=f#5 v=71
238835 On ch=1 n=c#3 v=0
238835 Par ch=1 c=64 v=127
238900 On ch=1 n=e5 v=55
238910 On ch=1 n=f#5 v=0
238930 On ch=1 n=c#6 v=73
238955 On ch=1 n=e5 v=0
238965 On ch=1 n=g#4 v=48
239005 On ch=1 n=c#5 v=61
239040 On ch=1 n=c#6 v=0
239050 On ch=1 n=c#5 v=0
239060 On ch=1 n=g#4 v=0
239105 On ch=1 n=a5 v=68
239110 On ch=1 n=c#4 v=50
239175 On ch=1 n=a5 v=0
239175 On ch=1 n=g#5 v=65
239240 On ch=1 n=e6 v=77
239245 On ch=1 n=c#4 v=0
239255 On ch=1 n=g#5 v=0
239255 On ch=1 n=g#3 v=50
239285 On ch=1 n=e6 v=0
239305 On ch=1 n=g#3 v=0
239315 On ch=1 n=e5 v=62
239395 On ch=1 n=e5 v=0
239395 Par ch=1 c=64 v=0
239420 On ch=1 n=c#3 v=65
239420 On ch=1 n=d#5 v=59
239475 Par ch=1 c=64 v=127
239480 On ch=1 n=c#3 v=0
239515 On ch=1 n=c#5 v=55
239525 On ch=1 n=d#5 v=0
239560 On ch=1 n=g#5 v=70
239575 On ch=1 n=c#5 v=0
239580 On ch=1 n=e4 v=42
239645 On ch=1 n=g#4 v=56
239650 On ch=1 n=g#5 v=0
239685 On ch=1 n=g#4 v=0
239755 On ch=1 n=a5 v=76
239765 On ch=1 n=c#4 v=50
239815 On ch=1 n=e4 v=0
239825 On ch=1 n=a5 v=0
239825 On ch=1 n=g#5 v=70
239895 On ch=1 n=c#4 v=0
239905 On ch=1 n=e6 v=80
239910 On ch=1 n=g#3 v=46
239920 On ch=1 n=g#5 v=0
239945 On ch=1 n=e6 v=0
239970 On ch=1 n=g#3 v=0
239970 On ch=1 n=e5 v=61
240030 Par ch=1 c=64 v=0
240055 On ch=1 n=e5 v=0
240055 On ch=1 n=f#5 v=69
240060 On ch=1 n=c#3 v=68
240080 Par ch=1 c=64 v=127
240085 On ch=1 n=c#3 v=0
240110 On ch=1 n=e5 v=53
240120 On ch=1 n=f#5 v=0
240185 On ch=1 n=c#6 v=75
240190 On ch=1 n=e5 v=0
240220 On ch=1 n=g#4 v=46
240235 On ch=1 n=c#5 v=56
240255 On ch=1 n=c#6 v=0
240280 On ch=1 n=c#5 v=0
240310 On ch=1 n=g#4 v=0
240340 On ch=1 n=a5 v=69
240375 On ch=1 n=c#4 v=51
240415 On ch=1 n=a5 v=0
240415 On ch=1 n=g#5 v=70
240490 On ch=1 n=e6 v=71
240505 On ch=1 n=g#5 v=0
240505 On ch=1 n=c#4 v=0
240520 On ch=1 n=g#3 v=44
240530 On ch=1 n=e6 v=0
240570 On ch=1 n=e5 v=62
240580 On ch=1 n=g#3 v=0
240690 Par ch=1 c=64 v=0
240700 On ch=1 n=c#3 v=68
240705 On ch=1 n=f#5 v=65
240715 On ch=1 n=e5 v=0
240810 On ch=1 n=c#3 v=0
240820 On ch=1 n=e5 v=50
240845 Par ch=1 c=64 v=127
240850 On ch=1 n=f#5 v=0
240930 On ch=1 n=e4 v=42
240935 On ch=1 n=c#6 v=67
240945 On ch=1 n=e5 v=0
240985 On ch=1 n=c#5 v=63
241055 On ch=1 n=c#6 v=0
241090 On ch=1 n=a5 v=70
241105 On ch=1 n=c#5 v=0
241115 On ch=1 n=c#4 v=50
241155 On ch=1 n=e4 v=0
241170 On ch=1 n=g#5 v=66
241230 On ch=1 n=a5 v=0
241235 On ch=1 n=c#4 v=0
241235 On ch=1 n=c#6 v=73
241240 On ch=1 n=g#3 v=45
241275 On ch=1 n=g#5 v=0
241285 On ch=1 n=g#3 v=0
241310 On ch=1 n=c#5 v=56
241330 On ch=1 n=c#6 v=0
241370 On ch=1 n=c#3 v=64
241400 On ch=1 n=c#5 v=0
241400 On ch=1 n=f#5 v=69
241420 On ch=1 n=c#3 v=0
241465 On ch=1 n=e5 v=65
241490 On ch=1 n=f#5 v=0
241520 On ch=1 n=e4 v=46
241540 On ch=1 n=c#6 v=78
241565 On ch=1 n=e5 v=0
241595 On ch=1 n=c#5 v=59
241655 On ch=1 n=c#6 v=0
241665 Par ch=1 c=64 v=0
241680 On ch=1 n=c#4 v=53
241680 On ch=1 n=a5 v=70
241710 On ch=1 n=c#5 v=0
241715 On ch=1 n=e4 v=0
241755 On ch=1 n=g#5 v=66
241800 On ch=1 n=a5 v=0
241825 On ch=1 n=c#4 v=0
241825 On ch=1 n=c#6 v=75
241825 On ch=1 n=g#3 v=41
241850 On ch=1 n=g#5 v=0
241880 On ch=1 n=g#3 v=0
241895 On ch=1 n=c#5 v=52
241915 On ch=1 n=c#6 v=0
241970 On ch=1 n=c#3 v=61
241985 On ch=1 n=c#5 v=0
241985 On ch=1 n=f#5 v=66
242020 On ch=1 n=c#3 v=0
242055 On ch=1 n=e5 v=59
242075 On ch=1 n=f#5 v=0
242115 On ch=1 n=e4 v=38
242130 On ch=1 n=c#6 v=71
242140 On ch=1 n=e5 v=0
242195 On ch=1 n=c#5 v=54
242250 On ch=1 n=c#6 v=0
242275 On ch=1 n=a5 v=65
242290 On ch=1 n=c#5 v=0
242295 On ch=1 n=c#4 v=47
242365 On ch=1 n=g#5 v=60
242385 On ch=1 n=e4 v=0
242400 On ch=1 n=a5 v=0
242430 On ch=1 n=c#4 v=0
242430 On ch=1 n=c#6 v=68
242430 On ch=1 n=g#3 v=44
242455 On ch=1 n=g#5 v=0
242475 On ch=1 n=g#3 v=0
242505 On ch=1 n=c#5 v=42
242525 On ch=1 n=c#6 v=0
242545 On ch=1 n=c#5 v=0
242545 On ch=1 n=c#3 v=61
242560 On ch=1 n=f#5 v=60
242585 On ch=1 n=c#3 v=0
242615 On ch=1 n=e5 v=57
242625 On ch=1 n=f#5 v=0
242640 Par ch=1 c=67 v=127
242695 On ch=1 n=e5 v=0
242695 On ch=1 n=e4 v=36
242695 On ch=1 n=c#6 v=71
242760 On ch=1 n=c#5 v=51
242815 On ch=1 n=c#6 v=0
242855 On ch=1 n=a5 v=62
242870 On ch=1 n=c#5 v=0
242895 On ch=1 n=c#4 v=39
242945 On ch=1 n=g#5 v=56
242960 On ch=1 n=e4 v=0
242990 On ch=1 n=a5 v=0
243010 On ch=1 n=c#6 v=66
243045 On ch=1 n=c#4 v=0
243045 On ch=1 n=g#3 v=38
243080 On ch=1 n=g#5 v=0
243115 On ch=1 n=c#6 v=0
243115 On ch=1 n=c#5 v=49
243165 On ch=1 n=c#3 v=54
243175 On ch=1 n=g#3 v=0
243190 On ch=1 n=c#5 v=0
243205 On ch=1 n=d#5 v=48
243330 On ch=1 n=c#5 v=51
243400 On ch=1 n=g#5 v=61
243415 On ch=1 n=d#5 v=0
243465 On ch=1 n=c#5 v=0
243475 On ch=1 n=g#4 v=52
243510 On ch=1 n=g#5 v=0
243530 On ch=1 n=d#5 v=54
243550 On ch=1 n=g#4 v=0
243600 On ch=1 n=c#5 v=50
243650 On ch=1 n=d#5 v=0
243665 On ch=1 n=g#5 v=62
243710 On ch=1 n=c#5 v=0
243730 On ch=1 n=g#4 v=52
243775 On ch=1 n=g#5 v=0
243805 On ch=1 n=d#5 v=53
243840 On ch=1 n=g#4 v=0
243890 On ch=1 n=c#5 v=47
243930 On ch=1 n=d#5 v=0
243955 On ch=1 n=g#5 v=58
243975 On ch=1 n=c#5 v=0
244020 On ch=1 n=g#4 v=47
244060 On ch=1 n=g#5 v=0
244100 On ch=1 n=d#5 v=48
244115 On ch=1 n=g#4 v=0
244195 On ch=1 n=c#5 v=41
244225 On ch=1 n=d#5 v=0
244260 On ch=1 n=g#5 v=55
244280 On ch=1 n=c#5 v=0
244320 On ch=1 n=g#4 v=41
244370 On ch=1 n=g#5 v=0
244400 On ch=1 n=d#5 v=47
244415 On ch=1 n=g#4 v=0
244430 On ch=1 n=c#3 v=0
244500 On ch=1 n=c#5 v=40
244530 On ch=1 n=d#5 v=0
244560 On ch=1 n=g#5 v=56
244585 On ch=1 n=c#5 v=0
244640 On ch=1 n=g#4 v=38
244675 On ch=1 n=g#5 v=0
244710 On ch=1 n=d#5 v=41
244730 On ch=1 n=g#4 v=0
244815 On ch=1 n=c#5 v=37
244840 On ch=1 n=d#5 v=0
244875 On ch=1 n=g#5 v=47
244915 On ch=1 n=c#5 v=0
244975 On ch=1 n=g#4 v=32
244990 On ch=1 n=g#5 v=0
245045 On ch=1 n=d#5 v=34
245060 On ch=1 n=g#4 v=0
245175 On ch=1 n=c#5 v=28
245180 On ch=1 n=d#5 v=0
245230 On ch=1 n=g#5 v=39
245245 On ch=1 n=c#5 v=0
245265 Par ch=1 c=64 v=127
245325 On ch=1 n=g#4 v=28
245340 On ch=1 n=g#5 v=0
245390 On ch=1 n=d#5 v=37
245400 On ch=1 n=g#4 v=0
245535 On ch=1 n=c#5 v=29
245585 On ch=1 n=d#5 v=0
245625 On ch=1 n=c#5 v=0
245625 On ch=1 n=g#5 v=41
245735 On ch=1 n=g#4 v=28
245985 On ch=1 n=g#5 v=0
245985 On ch=1 n=g#3 v=68
246010 On ch=1 n=c#3 v=50
246025 On ch=1 n=d#5 v=27
246205 On ch=1 n=g#4 v=0
246205 On ch=1 n=c#5 v=29
246235 On ch=1 n=d#5 v=0
246295 On ch=1 n=g#5 v=46
246310 On ch=1 n=c#5 v=0
246395 On ch=1 n=g#4 v=32
246450 On ch=1 n=g#5 v=0
246485 On ch=1 n=d#5 v=33
246490 On ch=1 n=g#4 v=0
246585 On ch=1 n=c#5 v=34
246595 On ch=1 n=d#5 v=0
246650 On ch=1 n=c#5 v=0
246650 On ch=1 n=g#5 v=40
246740 On ch=1 n=g#4 v=31
246750 On ch=1 n=g#5 v=0
246820 On ch=1 n=g#4 v=0
246820 On ch=1 n=d#5 v=36
246930 On ch=1 n=d#5 v=0
246940 On ch=1 n=c#5 v=29
246985 On ch=1 n=g#5 v=44
247005 On ch=1 n=c#5 v=0
247045 On ch=1 n=g#5 v=0
247080 On ch=1 n=g#4 v=33
247155 On ch=1 n=g#4 v=0
247170 On ch=1 n=d#5 v=35
247270 On ch=1 n=d#5 v=0
247280 On ch=1 n=c#5 v=30
247350 On ch=1 n=c#5 v=0
247370 On ch=1 n=g#5 v=41
247430 On ch=1 n=g#5 v=0
247445 On ch=1 n=g#4 v=32
247595 On ch=1 n=a#3 v=68
247610 On ch=1 n=d#5 v=37
247660 On ch=1 n=g#4 v=0
247685 On ch=1 n=g#3 v=0
247720 Par ch=1 c=64 v=0
247730 On ch=1 n=c#5 v=34
247760 On ch=1 n=d#5 v=0
247835 On ch=1 n=c#5 v=0
247835 On ch=1 n=g#5 v=45
247890 Par ch=1 c=64 v=127
247925 On ch=1 n=g#5 v=0
247940 On ch=1 n=g#4 v=29
248000 On ch=1 n=g#3 v=73
248030 On ch=1 n=g#4 v=0
248045 On ch=1 n=d#5 v=42
248080 Par ch=1 c=64 v=0
248090 On ch=1 n=a#3 v=0
248155 On ch=1 n=c#5 v=35
248185 On ch=1 n=d#5 v=0
248215 Par ch=1 c=64 v=127
248240 On ch=1 n=c#5 v=0
248250 On ch=1 n=g#5 v=44
248315 On ch=1 n=g#4 v=33
248325 On ch=1 n=g#5 v=0
248390 On ch=1 n=g#4 v=0
248390 Par ch=1 c=64 v=0
248405 On ch=1 n=d#5 v=41
248415 On ch=1 n=c#4 v=73
248460 On ch=1 n=c#3 v=0
248525 On ch=1 n=c#5 v=33
248550 On ch=1 n=g#3 v=0
248555 On ch=1 n=d#5 v=0
248570 Par ch=1 c=64 v=127
248610 On ch=1 n=c#5 v=0
248610 On ch=1 n=g#5 v=49
248685 On ch=1 n=g#5 v=0
248700 On ch=1 n=g#4 v=32
248820 Par ch=1 c=64 v=0
248830 On ch=1 n=g#4 v=0
248830 On ch=1 n=d#4 v=72
248830 On ch=1 n=d#5 v=41
248970 On ch=1 n=c#5 v=32
249040 On ch=1 n=c#4 v=0
249060 On ch=1 n=g#5 v=56
249095 On ch=1 n=d#5 v=0
249180 On ch=1 n=g#4 v=37
249205 On ch=1 n=c#5 v=0
249210 On ch=1 n=g#5 v=0
249210 On ch=1 n=g#5 v=34
249405 On ch=1 n=f4 v=68
249480 On ch=1 n=d#5 v=39
249505 On ch=1 n=g#5 v=0
249505 On ch=1 n=d#4 v=0
249730 On ch=1 n=c#5 v=30
249790 On ch=1 n=g#4 v=0
249865 On ch=1 n=d#5 v=0
249880 On ch=1 n=g#5 v=43
249940 Par ch=1 c=64 v=127
250000 On ch=1 n=c#5 v=0
250005 On ch=1 n=g#4 v=26
250095 On ch=1 n=g#5 v=0
250105 On ch=1 n=d#5 v=39
250150 On ch=1 n=g#4 v=0
250215 On ch=1 n=d#5 v=0
250230 On ch=1 n=c#5 v=25
250275 On ch=1 n=g#5 v=44
250310 On ch=1 n=c#5 v=0
250380 On ch=1 n=g#5 v=0
250380 On ch=1 n=g#4 v=36
250450 On ch=1 n=g#4 v=0
250470 On ch=1 n=d#5 v=36
250555 On ch=1 n=d#5 v=0
250580 On ch=1 n=c#5 v=31
250650 On ch=1 n=c#5 v=0
250665 On ch=1 n=g#5 v=43
250730 On ch=1 n=g#5 v=0
250740 On ch=1 n=g#4 v=32
250815 On ch=1 n=g#4 v=0
250820 On ch=1 n=d#5 v=38
250940 On ch=1 n=d#5 v=0
250955 On ch=1 n=c#5 v=26
251025 On ch=1 n=g#5 v=42
251030 On ch=1 n=c#5 v=0
251105 On ch=1 n=g#5 v=0
251110 On ch=1 n=g#4 v=37
251190 On ch=1 n=g#4 v=0
251390 On ch=1 n=g#4 v=62
251450 On ch=1 n=d#5 v=30
251475 Par ch=1 c=64 v=0
251550 On ch=1 n=f4 v=0
251645 On ch=1 n=c#5 v=32
251660 On ch=1 n=d#5 v=0
251660 Par ch=1 c=64 v=127
251735 On ch=1 n=c#5 v=0
251765 On ch=1 n=g#5 v=44
251780 On ch=1 n=g#4 v=0
251830 On ch=1 n=g#5 v=0
251865 On ch=1 n=g#4 v=23
251970 On ch=1 n=d#5 v=36
252010 On ch=1 n=g#4 v=0
252060 On ch=1 n=d#5 v=0
252065 On ch=1 n=c#5 v=32
252135 On ch=1 n=g#5 v=44
252140 On ch=1 n=c#5 v=0
252210 On ch=1 n=g#4 v=35
252220 On ch=1 n=g#5 v=0
252300 On ch=1 n=g#4 v=0
252315 On ch=1 n=d#5 v=36
252405 On ch=1 n=d#5 v=0
252405 On ch=1 n=c#5 v=28
252480 On ch=1 n=c#5 v=0
252480 On ch=1 n=g#5 v=44
252545 On ch=1 n=g#5 v=0
252565 On ch=1 n=g#4 v=32
252645 On ch=1 n=g#4 v=0
252650 On ch=1 n=d#5 v=37
252765 On ch=1 n=d#5 v=0
252765 On ch=1 n=c#5 v=29
252845 On ch=1 n=g#5 v=42
252860 On ch=1 n=c#5 v=0
252935 On ch=1 n=g#4 v=31
253080 On ch=1 n=f#4 v=69
253100 On ch=1 n=g#5 v=0
253125 On ch=1 n=d#5 v=37
253185 On ch=1 n=g#4 v=0
253190 Par ch=1 c=64 v=0
253225 On ch=1 n=c#5 v=28
253270 On ch=1 n=d#5 v=0
253305 On ch=1 n=g#5 v=40
253350 On ch=1 n=c#5 v=0
253405 On ch=1 n=g#4 v=30
253435 On ch=1 n=g#5 v=0
253450 Par ch=1 c=64 v=127
253490 On ch=1 n=d#5 v=38
253495 On ch=1 n=g#4 v=0
253605 On ch=1 n=c#5 v=36
253625 On ch=1 n=d#5 v=0
253675 On ch=1 n=c#5 v=0
253675 On ch=1 n=g#5 v=43
253750 On ch=1 n=g#4 v=37
253795 On ch=1 n=g#5 v=0
253840 On ch=1 n=g#4 v=0
253855 On ch=1 n=d#5 v=37
253855 On ch=1 n=f4 v=71
253930 Par ch=1 c=64 v=0
253965 On ch=1 n=c#5 v=33
253980 On ch=1 n=f#4 v=0
253995 On ch=1 n=d#5 v=0
254040 On ch=1 n=g#5 v=43
254065 On ch=1 n=c#5 v=0
254120 On ch=1 n=g#4 v=38
254175 On ch=1 n=g#5 v=0
254220 On ch=1 n=d#5 v=37
254330 On ch=1 n=g#4 v=0
254330 On ch=1 n=c#5 v=34
254355 On ch=1 n=d#5 v=0
254395 On ch=1 n=g#5 v=43
254420 On ch=1 n=c#5 v=0
254485 On ch=1 n=g#4 v=37
254520 On ch=1 n=g#5 v=0
254585 On ch=1 n=g#4 v=0
254590 On ch=1 n=d#5 v=36
254600 On ch=1 n=d#4 v=67
254695 On ch=1 n=c#5 v=33
254750 On ch=1 n=d#5 v=0
254785 On ch=1 n=f4 v=0
254790 On ch=1 n=g#5 v=50
254825 On ch=1 n=c#5 v=0
254885 On ch=1 n=g#5 v=0
254895 On ch=1 n=g#4 v=26
254995 On ch=1 n=d#5 v=29
255040 On ch=1 n=g#4 v=0
255105 On ch=1 n=c#5 v=30
255125 On ch=1 n=d#5 v=0
255190 On ch=1 n=c#5 v=0
255200 On ch=1 n=g#5 v=43
255295 On ch=1 n=g#5 v=0
255310 On ch=1 n=g#4 v=28
255480 On ch=1 n=f4 v=60
255485 On ch=1 n=d#5 v=29
255535 On ch=1 n=g#4 v=0
255635 On ch=1 n=c#5 v=24
255665 On ch=1 n=d#4 v=0
255695 On ch=1 n=d#5 v=0
255715 On ch=1 n=g#5 v=39
255745 On ch=1 n=c#5 v=0
255820 On ch=1 n=g#4 v=29
255940 On ch=1 n=g#5 v=0
255980 On ch=1 n=c#4 v=58
255995 On ch=1 n=d#5 v=28
256165 On ch=1 n=g#4 v=0
256175 On ch=1 n=c#5 v=25
256240 On ch=1 n=f4 v=0
256315 On ch=1 n=d#5 v=0
256325 On ch=1 n=g#5 v=37
256470 On ch=1 n=c#5 v=0
256485 On ch=1 n=g#4 v=24
256700 On ch=1 n=g#3 v=50
256775 On ch=1 n=g#5 v=0
256800 On ch=1 n=d#5 v=31
256885 On ch=1 n=c#4 v=0
257035 On ch=1 n=c#5 v=24
257175 Par ch=1 c=64 v=127
257225 On ch=1 n=g#5 v=39
257240 On ch=1 n=g#4 v=0
257265 On ch=1 n=d#5 v=0
257305 On ch=1 n=c#5 v=0
257395 On ch=1 n=f4 v=28
257405 On ch=1 n=g#5 v=0
257510 On ch=1 n=d#5 v=36
257580 On ch=1 n=f4 v=0
257635 On ch=1 n=c#5 v=30
257725 On ch=1 n=d#5 v=0
257725 On ch=1 n=g#5 v=43
257730 On ch=1 n=c#5 v=0
257770 On ch=1 n=g#5 v=0
257830 On ch=1 n=f4 v=33
257910 On ch=1 n=f4 v=0
257910 On ch=1 n=d#5 v=33
258035 On ch=1 n=c#5 v=38
258125 On ch=1 n=c#5 v=0
258125 On ch=1 n=d#5 v=0
258150 On ch=1 n=g#5 v=45
258210 On ch=1 n=g#5 v=0
258230 On ch=1 n=f4 v=30
258335 On ch=1 n=f4 v=0
258350 On ch=1 n=d#5 v=38
258460 On ch=1 n=c#5 v=36
258590 On ch=1 n=c#5 v=0
258590 On ch=1 n=g#5 v=46
258605 On ch=1 n=d#5 v=0
258695 On ch=1 n=g#5 v=0
258710 On ch=1 n=f4 v=34
258755 On ch=1 n=f4 v=0
258800 On ch=1 n=g#3 v=0
258975 On ch=1 n=g#2 v=49
258975 On ch=1 n=g#3 v=36
258980 On ch=1 n=f5 v=43
259100 Par ch=1 c=64 v=0
259175 Par ch=1 c=64 v=127
259180 On ch=1 n=d#5 v=34
259280 On ch=1 n=f5 v=0
259325 On ch=1 n=g#5 v=49
259425 On ch=1 n=g#5 v=0
259445 On ch=1 n=d#5 v=0
259485 On ch=1 n=f#4 v=35
259590 On ch=1 n=f#4 v=0
259615 On ch=1 n=f5 v=44
259760 On ch=1 n=d#5 v=36
259785 On ch=1 n=f5 v=0
259915 On ch=1 n=g#5 v=52
260005 On ch=1 n=d#5 v=0
260015 On ch=1 n=g#5 v=0
260075 On ch=1 n=f#4 v=32
260190 On ch=1 n=f#4 v=0
260205 On ch=1 n=f5 v=42
260390 On ch=1 n=d#5 v=38
260405 On ch=1 n=f5 v=0
260615 On ch=1 n=g#5 v=53
260715 On ch=1 n=g#5 v=0
260725 On ch=1 n=d#5 v=0
260825 On ch=1 n=f#4 v=31
261025 On ch=1 n=f5 v=37
261060 On ch=1 n=f#4 v=0
261325 On ch=1 n=d#5 v=28
261405 On ch=1 n=f5 v=0
261790 On ch=1 n=g#5 v=39
261895 On ch=1 n=d#5 v=0
262330 Par ch=1 c=64 v=0
262380 Par ch=1 c=64 v=127
262550 On ch=1 n=g#5 v=0
262920 On ch=1 n=f#4 v=23
263290 On ch=1 n=c#3 v=39
263400 On ch=1 n=g#3 v=0
263415 On ch=1 n=g#2 v=0
263535 On ch=1 n=f#4 v=0
263575 On ch=1 n=g#3 v=36
263585 Par ch=1 c=64 v=0
263735 On ch=1 n=f#4 v=27
263925 On ch=1 n=g#4 v=36
264120 On ch=1 n=c5 v=36
264565 On ch=1 n=d#5 v=43
266325 Par ch=1 c=64 v=127
266950 On ch=1 n=c#3 v=0
267165 On ch=1 n=f#4 v=0
267580 On ch=1 n=c#3 v=37
267690 Par ch=1 c=64 v=0
267880 On ch=1 n=g#3 v=0
268225 On ch=1 n=g#3 v=27
268615 On ch=1 n=f4 v=23
269725 On ch=1 n=c#5 v=24
270005 On ch=1 n=c5 v=0
270105 On ch=1 n=d#5 v=0
273785 Par ch=1 c=64 v=127
274630 On ch=1 n=f4 v=0
274710 On ch=1 n=g#4 v=0
274770 On ch=1 n=g#3 v=0
274770 On ch=1 n=c#3 v=0
274785 On ch=1 n=c#5 v=0
274860 Par ch=1 c=64 v=0
275990 Par ch=1 c=67 v=0
275990 Meta TrkEnd
TrkEnd
