MFile 1 7 480
MTrk
0 Tempo 166666
0 TimeSig 4/4 24 8
0 KeySig 0 major
0 Meta TrkEnd
TrkEnd
MTrk
0 Meta TrkName "Gnosienne n.1"
0 Meta 0x21 00
0 Meta 0x20 00
0 Par ch=1 c=10 v=64
3764 Par ch=1 c=0 v=0
3769 Par ch=1 c=32 v=112
3769 PrCh ch=1 p=0
3781 Par ch=1 c=91 v=19
3801 Par ch=1 c=94 v=0
6638 Par ch=1 c=64 v=24
6690 Par ch=1 c=64 v=40
6742 Par ch=1 c=64 v=56
6782 Par ch=1 c=64 v=72
6808 On ch=1 n=f3 v=32
6822 Par ch=1 c=64 v=88
6863 Par ch=1 c=64 v=104
6920 Par ch=1 c=64 v=127
7110 Off ch=1 n=f3 v=64
8640 On ch=1 n=c6 v=43
8700 On ch=1 n=g#4 v=21
8717 On ch=1 n=f5 v=14
8798 On ch=1 n=c5 v=27
9432 On ch=1 n=d#6 v=52
9570 Off ch=1 n=c6 v=64
9927 Off ch=1 n=f5 v=64
10085 Off ch=1 n=c5 v=64
10166 Off ch=1 n=g#4 v=64
10339 On ch=1 n=d6 v=52
10520 Off ch=1 n=d#6 v=64
11759 On ch=1 n=f5 v=24
11834 On ch=1 n=c6 v=46
11851 On ch=1 n=c5 v=26
11963 Off ch=1 n=d6 v=64
12041 On ch=1 n=g#4 v=19
12061 Off ch=1 n=c5 v=64
12087 Off ch=1 n=f5 v=64
12260 Off ch=1 n=g#4 v=64
12274 Off ch=1 n=c6 v=64
13196 On ch=1 n=c6 v=33
13204 Par ch=1 c=64 v=104
13216 Par ch=1 c=64 v=88
13225 Par ch=1 c=64 v=72
13242 Par ch=1 c=64 v=56
13262 Par ch=1 c=64 v=40
13282 Par ch=1 c=64 v=24
13311 Par ch=1 c=64 v=0
13513 On ch=1 n=b5 v=60
13541 Off ch=1 n=c6 v=64
13599 On ch=1 n=f3 v=41
13746 Par ch=1 c=64 v=24
13789 Par ch=1 c=64 v=40
13832 Par ch=1 c=64 v=56
13861 Par ch=1 c=64 v=72
13896 Par ch=1 c=64 v=88
13924 Par ch=1 c=64 v=104
13962 Par ch=1 c=64 v=127
13970 Off ch=1 n=f3 v=64
15298 On ch=1 n=c5 v=28
15315 On ch=1 n=g#4 v=24
15399 On ch=1 n=f5 v=11
16272 Off ch=1 n=b5 v=64
16611 On ch=1 n=c6 v=32
16646 Off ch=1 n=f5 v=64
16796 Off ch=1 n=g#4 v=64
16911 On ch=1 n=b5 v=55
16914 Off ch=1 n=c5 v=64
16971 Off ch=1 n=c6 v=64
18342 On ch=1 n=f5 v=22
18391 On ch=1 n=c5 v=31
18544 On ch=1 n=g#4 v=23
18564 Off ch=1 n=f5 v=64
18590 Off ch=1 n=c5 v=64
18714 Off ch=1 n=g#4 v=64
19820 Par ch=1 c=64 v=104
19826 Par ch=1 c=64 v=88
19840 Par ch=1 c=64 v=72
19846 Par ch=1 c=64 v=56
19860 Par ch=1 c=64 v=40
19883 Par ch=1 c=64 v=24
19903 Par ch=1 c=64 v=0
20145 On ch=1 n=f3 v=43
20436 Par ch=1 c=64 v=24
20465 Par ch=1 c=64 v=40
20499 Par ch=1 c=64 v=56
20540 Par ch=1 c=64 v=72
20551 Par ch=1 c=64 v=88
20557 Off ch=1 n=b5 v=64
20580 Par ch=1 c=64 v=104
20586 Off ch=1 n=f3 v=64
20609 Par ch=1 c=64 v=127
22003 On ch=1 n=c6 v=43
22058 On ch=1 n=c5 v=30
22075 On ch=1 n=g#4 v=30
22109 On ch=1 n=f5 v=14
22780 On ch=1 n=d#6 v=58
22968 Off ch=1 n=c6 v=64
23132 Off ch=1 n=f5 v=64
23224 Off ch=1 n=c5 v=64
23273 Off ch=1 n=g#4 v=64
23598 On ch=1 n=d6 v=61
23722 Off ch=1 n=d#6 v=64
25007 On ch=1 n=f5 v=27
25053 On ch=1 n=c5 v=27
25064 On ch=1 n=c6 v=61
25079 On ch=1 n=g#4 v=39
25180 Off ch=1 n=d6 v=64
25182 Off ch=1 n=f5 v=64
25226 Off ch=1 n=c5 v=64
25413 Off ch=1 n=g#4 v=64
26375 Par ch=1 c=64 v=104
26401 Par ch=1 c=64 v=88
26401 Par ch=1 c=64 v=72
26421 Par ch=1 c=64 v=56
26424 Par ch=1 c=64 v=40
26429 On ch=1 n=e6 v=40
26441 Par ch=1 c=64 v=24
26458 Par ch=1 c=64 v=0
26527 Off ch=1 n=c6 v=64
26622 On ch=1 n=f3 v=36
26683 On ch=1 n=f6 v=65
26769 Off ch=1 n=e6 v=64
26933 Par ch=1 c=64 v=24
26977 Par ch=1 c=64 v=40
26997 Off ch=1 n=f3 v=64
27020 Par ch=1 c=64 v=56
27049 Par ch=1 c=64 v=72
27086 Par ch=1 c=64 v=88
27115 Par ch=1 c=64 v=104
27167 Par ch=1 c=64 v=127
28267 On ch=1 n=g#4 v=31
28350 On ch=1 n=c5 v=31
28463 On ch=1 n=f5 v=14
29168 Off ch=1 n=f6 v=64
29747 On ch=1 n=e6 v=18
29880 Off ch=1 n=f5 v=64
29897 On ch=1 n=f6 v=48
29937 Off ch=1 n=e6 v=64
29949 Off ch=1 n=g#4 v=64
30038 Off ch=1 n=c5 v=64
31478 On ch=1 n=f5 v=20
31501 On ch=1 n=c5 v=30
31639 On ch=1 n=g#4 v=24
31818 Off ch=1 n=f5 v=64
31916 Off ch=1 n=c5 v=64
32045 Off ch=1 n=g#4 v=64
32751 Off ch=1 n=f6 v=64
33131 Par ch=1 c=64 v=104
33140 Par ch=1 c=64 v=88
33146 Par ch=1 c=64 v=72
33160 Par ch=1 c=64 v=56
33174 Par ch=1 c=64 v=40
33195 Par ch=1 c=64 v=24
33215 Par ch=1 c=64 v=0
33422 On ch=1 n=f3 v=40
33693 Par ch=1 c=64 v=24
33719 Par ch=1 c=64 v=40
33762 Par ch=1 c=64 v=56
33799 Par ch=1 c=64 v=72
33834 Par ch=1 c=64 v=88
33863 Par ch=1 c=64 v=104
33900 Par ch=1 c=64 v=127
33946 Off ch=1 n=f3 v=64
35236 On ch=1 n=c5 v=31
35239 On ch=1 n=g#4 v=31
35262 On ch=1 n=c6 v=39
35280 On ch=1 n=f5 v=14
36023 On ch=1 n=d#6 v=54
36141 Off ch=1 n=c6 v=64
36406 Off ch=1 n=f5 v=64
36561 Off ch=1 n=c5 v=64
36659 Off ch=1 n=g#4 v=64
36864 On ch=1 n=d6 v=64
37054 Off ch=1 n=d#6 v=64
38263 On ch=1 n=f5 v=25
38304 On ch=1 n=c5 v=34
38309 On ch=1 n=c6 v=64
38353 On ch=1 n=g#4 v=34
38477 Off ch=1 n=d6 v=64
38488 Off ch=1 n=f5 v=64
38543 Off ch=1 n=c5 v=64
38788 Off ch=1 n=g#4 v=64
38790 Off ch=1 n=c6 v=64
39649 Par ch=1 c=64 v=104
39657 Par ch=1 c=64 v=88
39666 Par ch=1 c=64 v=72
39677 Par ch=1 c=64 v=56
39692 Par ch=1 c=64 v=40
39695 On ch=1 n=c6 v=41
39718 Par ch=1 c=64 v=24
39726 Par ch=1 c=64 v=0
39983 On ch=1 n=b5 v=60
40006 Off ch=1 n=c6 v=64
40023 On ch=1 n=f3 v=41
40181 Par ch=1 c=64 v=24
40210 Par ch=1 c=64 v=40
40253 Par ch=1 c=64 v=56
40271 Off ch=1 n=f3 v=64
40282 Par ch=1 c=64 v=72
40320 Par ch=1 c=64 v=88
40346 Par ch=1 c=64 v=104
40392 Par ch=1 c=64 v=127
41587 On ch=1 n=c5 v=32
41633 On ch=1 n=f5 v=16
41656 On ch=1 n=g#4 v=32
42730 On ch=1 n=g#5 v=32
42866 Off ch=1 n=b5 v=64
42889 Off ch=1 n=f5 v=64
42955 Off ch=1 n=c5 v=64
43027 Off ch=1 n=g#4 v=64
43064 On ch=1 n=g5 v=52
43151 Off ch=1 n=g#5 v=64
44539 On ch=1 n=c5 v=27
44591 On ch=1 n=f5 v=12
44634 On ch=1 n=g#4 v=36
44769 Off ch=1 n=f5 v=64
44821 Off ch=1 n=c5 v=64
45017 Off ch=1 n=g#4 v=64
46134 Off ch=1 n=g5 v=64
46146 Par ch=1 c=64 v=104
46155 Par ch=1 c=64 v=88
46169 Par ch=1 c=64 v=72
46192 Par ch=1 c=64 v=56
46192 On ch=1 n=f5 v=32
46209 Par ch=1 c=64 v=40
46209 Par ch=1 c=64 v=24
46224 Par ch=1 c=64 v=0
46373 On ch=1 n=c3 v=46
46480 On ch=1 n=g5 v=58
46538 Off ch=1 n=f5 v=64
46621 Par ch=1 c=64 v=24
46673 Par ch=1 c=64 v=40
46687 Par ch=1 c=64 v=56
46696 Off ch=1 n=c3 v=64
46716 Par ch=1 c=64 v=72
46736 Par ch=1 c=64 v=88
46759 Par ch=1 c=64 v=104
46782 Par ch=1 c=64 v=127
47788 Off ch=1 n=g5 v=64
47788 On ch=1 n=f5 v=36
47909 Par ch=1 c=64 v=104
47917 Par ch=1 c=64 v=88
47937 Par ch=1 c=64 v=72
47937 Par ch=1 c=64 v=56
47958 Par ch=1 c=64 v=40
47966 Par ch=1 c=64 v=24
47981 Par ch=1 c=64 v=0
48021 On ch=1 n=g4 v=46
48053 On ch=1 n=d#4 v=33
48055 On ch=1 n=c5 v=37
48073 On ch=1 n=g5 v=57
48156 Off ch=1 n=f5 v=64
48398 Par ch=1 c=64 v=24
48441 Par ch=1 c=64 v=40
48479 Par ch=1 c=64 v=56
48508 Par ch=1 c=64 v=72
48536 Par ch=1 c=64 v=88
48568 Par ch=1 c=64 v=104
48594 Par ch=1 c=64 v=127
49317 Off ch=1 n=c5 v=64
49677 Off ch=1 n=d#4 v=64
49714 Off ch=1 n=g4 v=64
51117 On ch=1 n=d#4 v=32
51140 On ch=1 n=c5 v=25
51200 On ch=1 n=g4 v=32
51324 Off ch=1 n=c5 v=64
51514 Off ch=1 n=g4 v=64
51710 Off ch=1 n=d#4 v=64
52347 Par ch=1 c=64 v=104
52361 Par ch=1 c=64 v=88
52370 Par ch=1 c=64 v=72
52375 Par ch=1 c=64 v=56
52390 Par ch=1 c=64 v=40
52404 Par ch=1 c=64 v=24
52419 Par ch=1 c=64 v=0
52453 On ch=1 n=g#5 v=60
52545 Off ch=1 n=g5 v=64
52807 On ch=1 n=f3 v=57
52842 On ch=1 n=g5 v=70
52859 Par ch=1 c=64 v=24
52871 Par ch=1 c=64 v=40
52900 Par ch=1 c=64 v=56
52923 Par ch=1 c=64 v=72
52937 Par ch=1 c=64 v=88
52951 Par ch=1 c=64 v=104
52966 Off ch=1 n=g#5 v=64
52974 Par ch=1 c=64 v=127
53116 Off ch=1 n=g5 v=64
54029 On ch=1 n=g5 v=65
54103 Par ch=1 c=64 v=104
54118 Par ch=1 c=64 v=88
54132 Par ch=1 c=64 v=72
54147 Par ch=1 c=64 v=56
54167 Par ch=1 c=64 v=40
54196 Par ch=1 c=64 v=24
54219 Par ch=1 c=64 v=0
54443 Off ch=1 n=g5 v=64
54446 On ch=1 n=c5 v=61
54507 On ch=1 n=f5 v=46
54579 On ch=1 n=g#4 v=57
55212 Par ch=1 c=64 v=24
55290 Par ch=1 c=64 v=40
55388 Par ch=1 c=64 v=56
55425 Par ch=1 c=64 v=72
55469 Par ch=1 c=64 v=88
55500 Par ch=1 c=64 v=104
55549 Par ch=1 c=64 v=127
56560 Off ch=1 n=g#4 v=64
56655 Off ch=1 n=c5 v=64
56750 Off ch=1 n=f5 v=64
58104 Off ch=1 n=f3 v=64
58271 On ch=1 n=f5 v=32
58308 On ch=1 n=c5 v=49
58311 On ch=1 n=g#4 v=30
60036 Par ch=1 c=64 v=104
60039 On ch=1 n=f3 v=36
60045 Par ch=1 c=64 v=88
60059 Par ch=1 c=64 v=72
60065 Par ch=1 c=64 v=56
60088 Par ch=1 c=64 v=40
60108 Par ch=1 c=64 v=24
60123 Par ch=1 c=64 v=0
60295 Off ch=1 n=g#4 v=64
60370 Off ch=1 n=c5 v=64
60468 Off ch=1 n=f5 v=64
60831 Par ch=1 c=64 v=24
60866 Par ch=1 c=64 v=40
60912 Par ch=1 c=64 v=56
60932 Par ch=1 c=64 v=72
60952 Par ch=1 c=64 v=88
60975 Par ch=1 c=64 v=104
60995 Par ch=1 c=64 v=127
61931 On ch=1 n=c5 v=37
61957 On ch=1 n=f5 v=25
61975 On ch=1 n=g#4 v=25
63996 Off ch=1 n=g#4 v=64
64071 Off ch=1 n=c5 v=64
64163 Off ch=1 n=f5 v=64
65428 On ch=1 n=g#4 v=27
65442 On ch=1 n=c5 v=37
65477 On ch=1 n=f5 v=20
65675 Off ch=1 n=f3 v=64
66407 Off ch=1 n=g#4 v=64
66562 Off ch=1 n=c5 v=64
66873 Off ch=1 n=f5 v=64
67207 Par ch=1 c=64 v=104
67213 Par ch=1 c=64 v=88
67222 Par ch=1 c=64 v=72
67236 Par ch=1 c=64 v=56
67259 Par ch=1 c=64 v=40
67277 Par ch=1 c=64 v=24
67294 Par ch=1 c=64 v=0
67380 On ch=1 n=f3 v=36
67625 Par ch=1 c=64 v=24
67660 Par ch=1 c=64 v=40
67697 Par ch=1 c=64 v=56
67732 Par ch=1 c=64 v=72
67755 Par ch=1 c=64 v=88
67769 Par ch=1 c=64 v=104
67798 Par ch=1 c=64 v=127
67838 Off ch=1 n=f3 v=64
69229 On ch=1 n=c5 v=31
69244 On ch=1 n=g#4 v=30
69247 On ch=1 n=c6 v=40
69249 On ch=1 n=f5 v=18
70013 On ch=1 n=d#6 v=57
70122 Off ch=1 n=c6 v=64
70649 Off ch=1 n=f5 v=64
70807 Off ch=1 n=g#4 v=64
70859 Off ch=1 n=c5 v=64
70954 On ch=1 n=d6 v=61
71142 Off ch=1 n=d#6 v=64
72544 On ch=1 n=c5 v=34
72547 On ch=1 n=f5 v=21
72550 On ch=1 n=c6 v=60
72665 On ch=1 n=g#4 v=30
72720 Off ch=1 n=d6 v=64
72731 Off ch=1 n=f5 v=64
72763 Off ch=1 n=c5 v=64
72970 Off ch=1 n=g#4 v=64
72982 Off ch=1 n=c6 v=64
73901 Par ch=1 c=64 v=104
73921 Par ch=1 c=64 v=88
73921 Par ch=1 c=64 v=72
73929 Par ch=1 c=64 v=56
73944 Par ch=1 c=64 v=40
73964 Par ch=1 c=64 v=24
73987 Par ch=1 c=64 v=0
74059 On ch=1 n=c6 v=43
74275 On ch=1 n=f3 v=35
74304 On ch=1 n=b5 v=58
74376 Off ch=1 n=c6 v=64
74459 Par ch=1 c=64 v=24
74488 Par ch=1 c=64 v=40
74537 Par ch=1 c=64 v=56
74557 Par ch=1 c=64 v=72
74583 Par ch=1 c=64 v=88
74598 Par ch=1 c=64 v=104
74626 Par ch=1 c=64 v=127
74713 Off ch=1 n=f3 v=64
76020 On ch=1 n=c5 v=29
76040 On ch=1 n=g#4 v=28
76043 On ch=1 n=f5 v=12
77241 Off ch=1 n=b5 v=64
77371 On ch=1 n=c6 v=36
77673 On ch=1 n=b5 v=48
77676 Off ch=1 n=f5 v=64
77685 Off ch=1 n=c6 v=64
77743 Off ch=1 n=g#4 v=64
77745 Off ch=1 n=c5 v=64
79260 On ch=1 n=f5 v=22
79309 On ch=1 n=c5 v=32
79361 On ch=1 n=g#4 v=32
79537 Off ch=1 n=f5 v=64
79635 Off ch=1 n=c5 v=64
79773 Off ch=1 n=g#4 v=64
80951 Par ch=1 c=64 v=104
80960 Par ch=1 c=64 v=88
80974 Par ch=1 c=64 v=72
80980 Par ch=1 c=64 v=56
80994 Par ch=1 c=64 v=40
81008 Par ch=1 c=64 v=24
81023 Par ch=1 c=64 v=0
81118 Off ch=1 n=b5 v=64
81268 On ch=1 n=f3 v=41
81469 Par ch=1 c=64 v=24
81498 Par ch=1 c=64 v=40
81533 Par ch=1 c=64 v=56
81564 Par ch=1 c=64 v=72
81593 Par ch=1 c=64 v=88
81613 Par ch=1 c=64 v=104
81636 Par ch=1 c=64 v=127
81697 Off ch=1 n=f3 v=64
83059 On ch=1 n=c6 v=44
83125 On ch=1 n=c5 v=31
83140 On ch=1 n=g#4 v=32
83143 On ch=1 n=f5 v=14
83871 On ch=1 n=d#6 v=60
83989 Off ch=1 n=c6 v=64
84390 Off ch=1 n=f5 v=64
84545 Off ch=1 n=c5 v=64
84545 Off ch=1 n=g#4 v=64
84698 On ch=1 n=d6 v=71
84807 Off ch=1 n=d#6 v=64
86141 On ch=1 n=c5 v=33
86172 On ch=1 n=f5 v=26
86204 On ch=1 n=g#4 v=39
86279 On ch=1 n=c6 v=66
86345 Off ch=1 n=f5 v=64
86397 Off ch=1 n=d6 v=64
86437 Off ch=1 n=c5 v=64
86601 Off ch=1 n=g#4 v=64
87765 Par ch=1 c=64 v=104
87774 Par ch=1 c=64 v=88
87782 Par ch=1 c=64 v=72
87794 Par ch=1 c=64 v=56
87797 On ch=1 n=e6 v=43
87820 Par ch=1 c=64 v=40
87846 Par ch=1 c=64 v=24
87863 Par ch=1 c=64 v=0
87892 Off ch=1 n=c6 v=64
87949 On ch=1 n=f3 v=41
88065 On ch=1 n=f6 v=66
88177 Off ch=1 n=e6 v=64
88220 Par ch=1 c=64 v=24
88263 Par ch=1 c=64 v=40
88298 Par ch=1 c=64 v=56
88306 Off ch=1 n=f3 v=64
88329 Par ch=1 c=64 v=72
88358 Par ch=1 c=64 v=88
88378 Par ch=1 c=64 v=104
88407 Par ch=1 c=64 v=127
89804 On ch=1 n=f5 v=20
89813 On ch=1 n=g#4 v=30
89873 On ch=1 n=c5 v=31
91114 Off ch=1 n=f6 v=64
91316 On ch=1 n=e6 v=31
91374 Off ch=1 n=f5 v=64
91584 Off ch=1 n=g#4 v=64
91604 Off ch=1 n=c5 v=64
91636 On ch=1 n=f6 v=51
91644 Off ch=1 n=e6 v=64
93260 On ch=1 n=f5 v=22
93280 On ch=1 n=c5 v=31
93341 On ch=1 n=g#4 v=29
93531 Off ch=1 n=f5 v=64
93669 Off ch=1 n=c5 v=64
93781 Off ch=1 n=g#4 v=64
94997 Off ch=1 n=f6 v=64
95054 Par ch=1 c=64 v=104
95063 Par ch=1 c=64 v=88
95072 Par ch=1 c=64 v=72
95080 Par ch=1 c=64 v=56
95092 Par ch=1 c=64 v=40
95126 Par ch=1 c=64 v=24
95126 Par ch=1 c=64 v=0
95259 On ch=1 n=f3 v=40
95544 Par ch=1 c=64 v=24
95581 Par ch=1 c=64 v=40
95625 Par ch=1 c=64 v=56
95645 Par ch=1 c=64 v=72
95668 Par ch=1 c=64 v=88
95688 Par ch=1 c=64 v=104
95711 Par ch=1 c=64 v=127
95820 Off ch=1 n=f3 v=64
97163 On ch=1 n=g#4 v=24
97168 On ch=1 n=c6 v=37
97217 On ch=1 n=c5 v=26
97304 On ch=1 n=f5 v=7
97960 On ch=1 n=d#6 v=57
98015 Off ch=1 n=c6 v=64
98363 Off ch=1 n=f5 v=64
98505 Off ch=1 n=c5 v=64
98597 Off ch=1 n=g#4 v=64
98859 On ch=1 n=d6 v=60
98988 Off ch=1 n=d#6 v=64
100400 On ch=1 n=c5 v=33
100417 On ch=1 n=c6 v=54
100434 On ch=1 n=f5 v=16
100593 Off ch=1 n=f5 v=64
100604 Off ch=1 n=d6 v=64
100679 On ch=1 n=g#4 v=15
100696 Off ch=1 n=c5 v=64
100855 Off ch=1 n=g#4 v=64
100889 Off ch=1 n=c6 v=64
101814 Par ch=1 c=64 v=104
101817 On ch=1 n=c6 v=37
101828 Par ch=1 c=64 v=88
101837 Par ch=1 c=64 v=72
101845 Par ch=1 c=64 v=56
101851 Par ch=1 c=64 v=40
101868 Par ch=1 c=64 v=24
101891 Par ch=1 c=64 v=0
102056 On ch=1 n=f3 v=39
102093 On ch=1 n=b5 v=61
102110 Off ch=1 n=c6 v=64
102243 Par ch=1 c=64 v=24
102280 Par ch=1 c=64 v=40
102315 Par ch=1 c=64 v=56
102347 Par ch=1 c=64 v=72
102375 Par ch=1 c=64 v=88
102387 Off ch=1 n=f3 v=64
102395 Par ch=1 c=64 v=104
102421 Par ch=1 c=64 v=127
103694 On ch=1 n=c5 v=24
103769 On ch=1 n=f5 v=20
103784 On ch=1 n=g#4 v=29
105028 On ch=1 n=g#5 v=37
105126 Off ch=1 n=f5 v=64
105137 Off ch=1 n=b5 v=64
105261 Off ch=1 n=g#4 v=64
105316 Off ch=1 n=c5 v=64
105319 On ch=1 n=g5 v=57
105353 Off ch=1 n=g#5 v=64
106880 On ch=1 n=f5 v=20
106888 On ch=1 n=c5 v=32
106943 On ch=1 n=g#4 v=32
107058 Off ch=1 n=f5 v=64
107136 Off ch=1 n=c5 v=64
107323 Off ch=1 n=g#4 v=64
108412 Off ch=1 n=g5 v=64
108455 Par ch=1 c=64 v=104
108455 On ch=1 n=f5 v=32
108469 Par ch=1 c=64 v=88
108478 Par ch=1 c=64 v=72
108484 Par ch=1 c=64 v=56
108492 Par ch=1 c=64 v=40
108510 Par ch=1 c=64 v=24
108533 Par ch=1 c=64 v=0
108625 On ch=1 n=c3 v=45
108746 On ch=1 n=g5 v=52
108806 Off ch=1 n=f5 v=64
108841 Par ch=1 c=64 v=24
108870 Par ch=1 c=64 v=40
108907 Par ch=1 c=64 v=56
108930 Par ch=1 c=64 v=72
108950 Off ch=1 n=c3 v=64
108959 Par ch=1 c=64 v=88
108973 Par ch=1 c=64 v=104
108994 Par ch=1 c=64 v=127
110033 Off ch=1 n=g5 v=64
110033 On ch=1 n=f5 v=37
110151 Par ch=1 c=64 v=104
110166 Par ch=1 c=64 v=88
110174 Par ch=1 c=64 v=72
110180 Par ch=1 c=64 v=56
110195 Par ch=1 c=64 v=40
110218 Par ch=1 c=64 v=24
110232 Par ch=1 c=64 v=0
110307 On ch=1 n=d#4 v=33
110321 On ch=1 n=g4 v=40
110339 On ch=1 n=g5 v=58
110385 Off ch=1 n=f5 v=64
110436 On ch=1 n=c5 v=32
110621 Par ch=1 c=64 v=24
110655 Par ch=1 c=64 v=40
110699 Par ch=1 c=64 v=56
110727 Par ch=1 c=64 v=72
110750 Par ch=1 c=64 v=88
110771 Par ch=1 c=64 v=104
110808 Par ch=1 c=64 v=127
111865 Off ch=1 n=c5 v=64
112268 Off ch=1 n=g4 v=64
112346 Off ch=1 n=d#4 v=64
113671 On ch=1 n=d#4 v=32
113674 On ch=1 n=c5 v=27
113717 On ch=1 n=g4 v=32
113861 Off ch=1 n=c5 v=64
114106 Off ch=1 n=g4 v=64
114290 Off ch=1 n=d#4 v=64
114932 Par ch=1 c=64 v=104
114952 Par ch=1 c=64 v=88
114952 Par ch=1 c=64 v=72
114958 Par ch=1 c=64 v=56
114964 Par ch=1 c=64 v=40
114978 Par ch=1 c=64 v=24
115001 Par ch=1 c=64 v=0
115004 On ch=1 n=g#5 v=61
115053 Off ch=1 n=g5 v=64
115327 On ch=1 n=g5 v=77
115344 On ch=1 n=f3 v=63
115410 Par ch=1 c=64 v=24
115430 Par ch=1 c=64 v=40
115445 Par ch=1 c=64 v=56
115462 Off ch=1 n=g#5 v=64
115471 Par ch=1 c=64 v=72
115488 Par ch=1 c=64 v=88
115502 Par ch=1 c=64 v=104
115525 Par ch=1 c=64 v=127
115626 Off ch=1 n=g5 v=64
116551 On ch=1 n=g5 v=58
116793 Par ch=1 c=64 v=104
116807 Par ch=1 c=64 v=88
116830 Par ch=1 c=64 v=72
116830 Par ch=1 c=64 v=56
116847 Par ch=1 c=64 v=40
116850 Par ch=1 c=64 v=24
116870 Par ch=1 c=64 v=0
116942 Off ch=1 n=g5 v=64
117011 On ch=1 n=c5 v=75
117063 On ch=1 n=f5 v=57
117101 On ch=1 n=g#4 v=57
117841 Par ch=1 c=64 v=24
117922 Par ch=1 c=64 v=40
117971 Par ch=1 c=64 v=56
118008 Par ch=1 c=64 v=72
118037 Par ch=1 c=64 v=88
118066 Par ch=1 c=64 v=104
118120 Par ch=1 c=64 v=127
118662 Off ch=1 n=g#4 v=64
118892 Off ch=1 n=c5 v=64
119036 Off ch=1 n=f5 v=64
120203 Off ch=1 n=f3 v=64
120949 On ch=1 n=g#4 v=39
120969 On ch=1 n=f5 v=37
120969 On ch=1 n=c5 v=60
122625 Par ch=1 c=64 v=104
122630 Par ch=1 c=64 v=88
122639 Par ch=1 c=64 v=72
122645 Par ch=1 c=64 v=56
122659 Par ch=1 c=64 v=40
122668 On ch=1 n=f3 v=60
122691 Par ch=1 c=64 v=24
122711 Par ch=1 c=64 v=0
122760 Off ch=1 n=g#4 v=64
122826 Off ch=1 n=c5 v=64
122956 Off ch=1 n=f5 v=64
123094 Par ch=1 c=64 v=24
123137 Par ch=1 c=64 v=40
123183 Par ch=1 c=64 v=56
123218 Par ch=1 c=64 v=72
123252 Par ch=1 c=64 v=88
123290 Par ch=1 c=64 v=104
123342 Par ch=1 c=64 v=127
124390 On ch=1 n=f5 v=43
124393 On ch=1 n=g#4 v=43
124396 On ch=1 n=c5 v=65
126049 Off ch=1 n=g#4 v=64
126107 Off ch=1 n=c5 v=64
126271 Off ch=1 n=f5 v=64
127791 On ch=1 n=f5 v=46
127791 On ch=1 n=g#4 v=48
127797 Off ch=1 n=f3 v=64
127820 On ch=1 n=c5 v=54
127930 Off ch=1 n=g#4 v=64
128016 Off ch=1 n=c5 v=64
128264 Off ch=1 n=f5 v=64
129085 On ch=1 n=g#5 v=80
129197 Par ch=1 c=64 v=104
129197 Par ch=1 c=64 v=88
129214 Par ch=1 c=64 v=72
129214 Par ch=1 c=64 v=56
129226 Par ch=1 c=64 v=40
129240 Par ch=1 c=64 v=24
129254 Par ch=1 c=64 v=0
129413 On ch=1 n=a#2 v=74
129453 Off ch=1 n=g#5 v=64
129462 On ch=1 n=a#5 v=85
129689 Off ch=1 n=a#2 v=64
129689 Par ch=1 c=64 v=24
129710 Par ch=1 c=64 v=40
129738 Par ch=1 c=64 v=56
129767 Par ch=1 c=64 v=72
129787 Par ch=1 c=64 v=88
129825 Par ch=1 c=64 v=104
129842 Par ch=1 c=64 v=127
131092 On ch=1 n=c#5 v=52
131103 On ch=1 n=f4 v=55
131132 On ch=1 n=a#4 v=58
132359 On ch=1 n=g#5 v=66
132506 Off ch=1 n=f4 v=64
132543 Off ch=1 n=a#5 v=64
132561 Off ch=1 n=c#5 v=64
132624 Off ch=1 n=a#4 v=64
132633 On ch=1 n=g5 v=91
132656 Off ch=1 n=g#5 v=64
134145 On ch=1 n=c#5 v=54
134151 On ch=1 n=a#4 v=65
134165 On ch=1 n=f4 v=60
134257 Off ch=1 n=c#5 v=64
134415 Off ch=1 n=a#4 v=64
134482 Off ch=1 n=f4 v=64
135398 On ch=1 n=g#5 v=79
135493 Par ch=1 c=64 v=104
135521 Par ch=1 c=64 v=88
135521 Par ch=1 c=64 v=72
135521 Par ch=1 c=64 v=56
135542 Par ch=1 c=64 v=40
135550 Par ch=1 c=64 v=24
135556 Off ch=1 n=g5 v=64
135565 Par ch=1 c=64 v=0
135662 On ch=1 n=a#2 v=64
135700 On ch=1 n=a#5 v=86
135743 Off ch=1 n=g#5 v=64
135876 Off ch=1 n=a#2 v=64
135953 Par ch=1 c=64 v=24
135999 Par ch=1 c=64 v=40
136020 Par ch=1 c=64 v=56
136043 Par ch=1 c=64 v=72
136063 Par ch=1 c=64 v=88
136077 Par ch=1 c=64 v=104
136100 Par ch=1 c=64 v=127
137324 On ch=1 n=f4 v=49
137344 On ch=1 n=a#4 v=52
137362 On ch=1 n=c#5 v=36
138603 On ch=1 n=g#5 v=69
138750 Off ch=1 n=f4 v=64
138770 Off ch=1 n=c#5 v=64
138865 Off ch=1 n=a#4 v=64
138891 Off ch=1 n=a#5 v=64
138917 On ch=1 n=g5 v=92
139035 Off ch=1 n=g#5 v=64
140380 On ch=1 n=a#4 v=61
140389 On ch=1 n=c#5 v=44
140403 On ch=1 n=f4 v=58
140507 Off ch=1 n=c#5 v=64
140633 Off ch=1 n=f4 v=64
140726 Off ch=1 n=a#4 v=64
141725 Par ch=1 c=64 v=104
141731 Par ch=1 c=64 v=88
141739 Par ch=1 c=64 v=72
141745 Par ch=1 c=64 v=56
141754 Par ch=1 c=64 v=40
141757 On ch=1 n=g#5 v=79
141777 Par ch=1 c=64 v=24
141788 Par ch=1 c=64 v=0
141872 Off ch=1 n=g5 v=64
142065 On ch=1 n=f3 v=72
142091 On ch=1 n=g5 v=88
142220 Par ch=1 c=64 v=24
142240 Par ch=1 c=64 v=40
142269 Par ch=1 c=64 v=56
142272 Off ch=1 n=g#5 v=64
142289 Par ch=1 c=64 v=72
142307 Par ch=1 c=64 v=88
142321 Par ch=1 c=64 v=104
142344 Par ch=1 c=64 v=127
142416 Off ch=1 n=g5 v=64
143335 On ch=1 n=g5 v=64
143516 Par ch=1 c=64 v=104
143525 Par ch=1 c=64 v=88
143534 Par ch=1 c=64 v=72
143545 Par ch=1 c=64 v=56
143554 Par ch=1 c=64 v=40
143574 Par ch=1 c=64 v=24
143588 Par ch=1 c=64 v=0
143715 On ch=1 n=c5 v=83
143770 Off ch=1 n=g5 v=64
143842 On ch=1 n=f5 v=43
143865 On ch=1 n=g#4 v=55
144400 Par ch=1 c=64 v=24
144421 Par ch=1 c=64 v=40
144458 Par ch=1 c=64 v=56
144501 Par ch=1 c=64 v=72
144562 Par ch=1 c=64 v=88
144596 Par ch=1 c=64 v=104
144645 Par ch=1 c=64 v=127
145705 Off ch=1 n=g#4 v=64
145792 Off ch=1 n=c5 v=64
145846 Off ch=1 n=f5 v=64
147217 Off ch=1 n=f3 v=64
147445 On ch=1 n=g#4 v=43
147488 On ch=1 n=f5 v=36
147494 On ch=1 n=c5 v=57
149213 Par ch=1 c=64 v=104
149219 Par ch=1 c=64 v=88
149227 Par ch=1 c=64 v=72
149230 On ch=1 n=f3 v=51
149245 Par ch=1 c=64 v=56
149256 Par ch=1 c=64 v=40
149271 Par ch=1 c=64 v=24
149305 Par ch=1 c=64 v=0
149337 Off ch=1 n=g#4 v=64
149426 Off ch=1 n=c5 v=64
149547 Off ch=1 n=f5 v=64
149832 Par ch=1 c=64 v=24
149881 Par ch=1 c=64 v=40
149942 Par ch=1 c=64 v=56
149985 Par ch=1 c=64 v=72
150028 Par ch=1 c=64 v=88
150071 Par ch=1 c=64 v=104
150135 Par ch=1 c=64 v=127
151022 On ch=1 n=f5 v=28
151050 On ch=1 n=c5 v=44
151068 On ch=1 n=g#4 v=26
152945 Off ch=1 n=g#4 v=64
153058 Off ch=1 n=c5 v=64
153199 Off ch=1 n=f5 v=64
154408 On ch=1 n=g#4 v=40
154440 On ch=1 n=f5 v=33
154469 On ch=1 n=c5 v=46
154613 Off ch=1 n=f3 v=64
154688 Off ch=1 n=g#4 v=64
154705 Off ch=1 n=c5 v=64
154918 Off ch=1 n=f5 v=64
155612 On ch=1 n=g#5 v=71
155849 Par ch=1 c=64 v=104
155857 Par ch=1 c=64 v=88
155866 Par ch=1 c=64 v=72
155872 Par ch=1 c=64 v=56
155886 Par ch=1 c=64 v=40
155900 Par ch=1 c=64 v=24
155915 Par ch=1 c=64 v=0
155923 Off ch=1 n=g#5 v=64
155984 On ch=1 n=a#2 v=77
156004 On ch=1 n=a#5 v=85
156243 Off ch=1 n=a#2 v=64
156295 Par ch=1 c=64 v=24
156324 Par ch=1 c=64 v=40
156353 Par ch=1 c=64 v=56
156375 Par ch=1 c=64 v=72
156396 Par ch=1 c=64 v=88
156410 Par ch=1 c=64 v=104
156448 Par ch=1 c=64 v=127
157513 On ch=1 n=c#5 v=60
157525 On ch=1 n=f4 v=65
157533 On ch=1 n=a#4 v=65
158662 On ch=1 n=g#5 v=74
158852 Off ch=1 n=f4 v=64
158867 Off ch=1 n=c#5 v=64
158893 Off ch=1 n=a#5 v=64
158913 Off ch=1 n=a#4 v=64
158999 On ch=1 n=g5 v=91
159045 Off ch=1 n=g#5 v=64
160468 On ch=1 n=c#5 v=69
160477 On ch=1 n=a#4 v=74
160500 On ch=1 n=f4 v=72
160566 Off ch=1 n=c#5 v=64
160747 Off ch=1 n=a#4 v=64
160773 Off ch=1 n=f4 v=64
161571 On ch=1 n=g#5 v=79
161825 Off ch=1 n=g5 v=64
161845 Par ch=1 c=64 v=104
161845 Par ch=1 c=64 v=88
161850 Par ch=1 c=64 v=72
161862 Par ch=1 c=64 v=56
161871 Par ch=1 c=64 v=40
161891 Par ch=1 c=64 v=24
161905 Par ch=1 c=64 v=0
161983 Off ch=1 n=g#5 v=64
162003 On ch=1 n=a#2 v=77
162012 On ch=1 n=a#5 v=90
162271 Off ch=1 n=a#2 v=64
162282 Par ch=1 c=64 v=24
162311 Par ch=1 c=64 v=40
162340 Par ch=1 c=64 v=56
162369 Par ch=1 c=64 v=72
162389 Par ch=1 c=64 v=88
162412 Par ch=1 c=64 v=104
162447 Par ch=1 c=64 v=127
163498 On ch=1 n=c#5 v=52
163518 On ch=1 n=a#4 v=69
163532 On ch=1 n=f4 v=52
164670 On ch=1 n=g#5 v=72
164788 Off ch=1 n=f4 v=64
164843 Off ch=1 n=c#5 v=64
164886 Off ch=1 n=a#4 v=64
164923 Off ch=1 n=a#5 v=64
165007 On ch=1 n=g5 v=90
165088 Off ch=1 n=g#5 v=64
166447 On ch=1 n=c#5 v=45
166456 On ch=1 n=a#4 v=57
166473 On ch=1 n=f4 v=51
166591 Off ch=1 n=c#5 v=64
166729 Off ch=1 n=f4 v=64
166810 Off ch=1 n=a#4 v=64
167593 On ch=1 n=g#5 v=75
167700 Par ch=1 c=64 v=104
167700 Par ch=1 c=64 v=88
167700 Par ch=1 c=64 v=72
167711 Par ch=1 c=64 v=56
167720 Par ch=1 c=64 v=40
167729 Off ch=1 n=g5 v=64
167740 Par ch=1 c=64 v=24
167754 Par ch=1 c=64 v=0
167996 On ch=1 n=f3 v=78
168014 On ch=1 n=g5 v=90
168135 Off ch=1 n=g#5 v=64
168181 Par ch=1 c=64 v=24
168210 Par ch=1 c=64 v=40
168238 Par ch=1 c=64 v=56
168267 Par ch=1 c=64 v=72
168290 Par ch=1 c=64 v=88
168313 Par ch=1 c=64 v=104
168333 Par ch=1 c=64 v=127
168336 Off ch=1 n=g5 v=64
169171 On ch=1 n=g5 v=70
169500 Par ch=1 c=64 v=104
169505 Par ch=1 c=64 v=88
169514 Par ch=1 c=64 v=72
169526 Par ch=1 c=64 v=56
169540 Par ch=1 c=64 v=40
169554 Par ch=1 c=64 v=24
169572 Off ch=1 n=g5 v=64
169580 Par ch=1 c=64 v=0
169592 On ch=1 n=c5 v=69
169684 On ch=1 n=f5 v=65
169707 On ch=1 n=g#4 v=69
170370 Par ch=1 c=64 v=24
170404 Par ch=1 c=64 v=40
170447 Par ch=1 c=64 v=56
170499 Par ch=1 c=64 v=72
170562 Par ch=1 c=64 v=88
170614 Par ch=1 c=64 v=104
170686 Par ch=1 c=64 v=127
171274 Off ch=1 n=g#4 v=64
171496 Off ch=1 n=c5 v=64
171539 Off ch=1 n=f5 v=64
172993 Off ch=1 n=f3 v=64
173157 On ch=1 n=f5 v=35
173163 On ch=1 n=g#4 v=36
173192 On ch=1 n=c5 v=57
174848 Par ch=1 c=64 v=104
174862 Par ch=1 c=64 v=88
174871 Par ch=1 c=64 v=72
174882 Par ch=1 c=64 v=56
174906 Par ch=1 c=64 v=40
174917 On ch=1 n=f3 v=49
174926 Par ch=1 c=64 v=24
174955 Par ch=1 c=64 v=0
175029 Off ch=1 n=g#4 v=64
175093 Off ch=1 n=c5 v=64
175205 Off ch=1 n=f5 v=64
175669 Par ch=1 c=64 v=24
175749 Par ch=1 c=64 v=40
175813 Par ch=1 c=64 v=56
175879 Par ch=1 c=64 v=72
175986 Par ch=1 c=64 v=88
176083 Par ch=1 c=64 v=104
176144 Par ch=1 c=64 v=127
176763 On ch=1 n=g#4 v=28
176772 On ch=1 n=f5 v=27
176780 On ch=1 n=c5 v=44
178632 Off ch=1 n=g#4 v=64
178690 Off ch=1 n=c5 v=64
178822 Off ch=1 n=f5 v=64
180190 On ch=1 n=g#4 v=29
180242 On ch=1 n=c5 v=40
180268 On ch=1 n=f5 v=25
180392 Off ch=1 n=f3 v=64
180599 Off ch=1 n=g#4 v=64
180732 Off ch=1 n=c5 v=64
181014 Off ch=1 n=f5 v=64
181815 Par ch=1 c=64 v=104
181823 Par ch=1 c=64 v=88
181838 Par ch=1 c=64 v=72
181843 Par ch=1 c=64 v=56
181867 Par ch=1 c=64 v=40
181887 Par ch=1 c=64 v=24
181910 Par ch=1 c=64 v=0
181959 On ch=1 n=f3 v=40
182391 Par ch=1 c=64 v=24
182431 Par ch=1 c=64 v=40
182474 Par ch=1 c=64 v=56
182503 Off ch=1 n=f3 v=64
182512 Par ch=1 c=64 v=72
182549 Par ch=1 c=64 v=88
182584 Par ch=1 c=64 v=104
182636 Par ch=1 c=64 v=127
182906 On ch=1 n=c6 v=33
183741 On ch=1 n=d6 v=48
183782 On ch=1 n=g#4 v=32
183785 Off ch=1 n=c6 v=64
183805 On ch=1 n=f5 v=12
183836 On ch=1 n=c5 v=29
184470 On ch=1 n=e6 v=48
184646 Off ch=1 n=d6 v=64
185181 Off ch=1 n=f5 v=64
185184 Off ch=1 n=e6 v=64
185279 On ch=1 n=f6 v=54
185314 Off ch=1 n=g#4 v=64
185438 Off ch=1 n=c5 v=64
186034 On ch=1 n=g6 v=49
186106 Off ch=1 n=f6 v=64
186843 On ch=1 n=c5 v=34
186860 On ch=1 n=f5 v=16
186883 On ch=1 n=g#4 v=27
186981 On ch=1 n=b6 v=54
187042 Off ch=1 n=g6 v=64
187843 Off ch=1 n=f5 v=64
188038 Off ch=1 n=c5 v=64
188133 On ch=1 n=g6 v=39
188197 Off ch=1 n=g#4 v=64
188511 Off ch=1 n=b6 v=64
189006 Par ch=1 c=64 v=104
189015 Par ch=1 c=64 v=88
189020 Par ch=1 c=64 v=72
189035 Par ch=1 c=64 v=56
189058 Par ch=1 c=64 v=40
189078 Par ch=1 c=64 v=24
189084 Par ch=1 c=64 v=0
189136 On ch=1 n=f6 v=45
189179 On ch=1 n=f3 v=41
189234 Off ch=1 n=g6 v=64
189501 Par ch=1 c=64 v=24
189550 Par ch=1 c=64 v=40
189579 Par ch=1 c=64 v=56
189611 Par ch=1 c=64 v=72
189640 Par ch=1 c=64 v=88
189668 Par ch=1 c=64 v=104
189703 Par ch=1 c=64 v=127
189758 Off ch=1 n=f3 v=64
190507 On ch=1 n=g6 v=34
190573 Off ch=1 n=f6 v=64
190890 On ch=1 n=f6 v=40
190956 Off ch=1 n=g6 v=64
191013 On ch=1 n=c5 v=27
191019 On ch=1 n=f5 v=14
191034 On ch=1 n=g#4 v=29
192479 Off ch=1 n=f5 v=64
192528 Off ch=1 n=g#4 v=64
192597 Off ch=1 n=c5 v=64
193891 On ch=1 n=f5 v=33
193902 On ch=1 n=c5 v=39
193917 On ch=1 n=g#4 v=40
194158 Off ch=1 n=f5 v=64
194277 Off ch=1 n=c5 v=64
194383 Off ch=1 n=g#4 v=64
195135 On ch=1 n=g6 v=37
195155 Off ch=1 n=f6 v=64
195270 Par ch=1 c=64 v=104
195284 Par ch=1 c=64 v=88
195293 Par ch=1 c=64 v=72
195299 Par ch=1 c=64 v=56
195313 Par ch=1 c=64 v=40
195336 Par ch=1 c=64 v=24
195351 Par ch=1 c=64 v=0
195472 On ch=1 n=f6 v=61
195477 On ch=1 n=f3 v=49
195570 Off ch=1 n=g6 v=64
195812 Par ch=1 c=64 v=24
195846 Par ch=1 c=64 v=40
195852 Off ch=1 n=f3 v=64
195884 Par ch=1 c=64 v=56
195921 Par ch=1 c=64 v=72
195950 Par ch=1 c=64 v=88
195984 Par ch=1 c=64 v=104
196022 Par ch=1 c=64 v=127
197067 On ch=1 n=c5 v=39
197125 On ch=1 n=g#4 v=36
197148 On ch=1 n=f5 v=22
197799 Off ch=1 n=f6 v=64
198303 On ch=1 n=f6 v=48
198412 Off ch=1 n=f5 v=64
198588 Off ch=1 n=g#4 v=64
198660 On ch=1 n=e6 v=69
198677 Off ch=1 n=f6 v=64
198700 Off ch=1 n=c5 v=64
200011 On ch=1 n=f5 v=27
200031 On ch=1 n=c5 v=36
200037 On ch=1 n=g#4 v=39
200172 Off ch=1 n=f5 v=64
200215 Off ch=1 n=c5 v=64
200394 Off ch=1 n=g#4 v=64
201309 On ch=1 n=c#6 v=49
201373 Par ch=1 c=64 v=104
201381 Par ch=1 c=64 v=88
201390 Par ch=1 c=64 v=72
201402 Par ch=1 c=64 v=56
201416 Par ch=1 c=64 v=40
201430 Par ch=1 c=64 v=24
201451 Par ch=1 c=64 v=0
201462 Off ch=1 n=e6 v=64
201652 On ch=1 n=f3 v=33
201690 On ch=1 n=c6 v=71
201802 Off ch=1 n=c#6 v=64
201894 Par ch=1 c=64 v=24
201920 Par ch=1 c=64 v=40
201963 Par ch=1 c=64 v=56
201998 Par ch=1 c=64 v=72
202027 Par ch=1 c=64 v=88
202053 Off ch=1 n=f3 v=64
202070 Par ch=1 c=64 v=104
202093 Par ch=1 c=64 v=127
203334 On ch=1 n=c5 v=32
203372 On ch=1 n=f5 v=18
203412 On ch=1 n=g#4 v=32
203893 Off ch=1 n=c6 v=64
204593 On ch=1 n=c6 v=40
204696 Off ch=1 n=f5 v=64
204826 Off ch=1 n=g#4 v=64
204898 On ch=1 n=b5 v=61
204918 Off ch=1 n=c5 v=64
204918 Off ch=1 n=c6 v=64
206344 On ch=1 n=f5 v=24
206396 On ch=1 n=c5 v=29
206413 On ch=1 n=g#4 v=37
206525 Off ch=1 n=f5 v=64
206591 Off ch=1 n=c5 v=64
206833 Off ch=1 n=g#4 v=64
207648 On ch=1 n=g#5 v=45
207671 Par ch=1 c=64 v=88
207680 Par ch=1 c=64 v=72
207686 Par ch=1 c=64 v=56
207697 Par ch=1 c=64 v=40
207712 Par ch=1 c=64 v=24
207732 Par ch=1 c=64 v=0
207959 Off ch=1 n=b5 v=64
207971 On ch=1 n=g5 v=69
208003 On ch=1 n=f3 v=41
208135 Par ch=1 c=64 v=24
208141 Off ch=1 n=g#5 v=64
208164 Par ch=1 c=64 v=40
208193 Par ch=1 c=64 v=56
208230 Par ch=1 c=64 v=72
208247 Par ch=1 c=64 v=88
208253 Par ch=1 c=64 v=104
208273 Par ch=1 c=64 v=127
208276 Off ch=1 n=g5 v=64
209172 On ch=1 n=g5 v=49
209526 Par ch=1 c=64 v=104
209535 Par ch=1 c=64 v=88
209549 Par ch=1 c=64 v=72
209555 Par ch=1 c=64 v=56
209561 Off ch=1 n=g5 v=64
209569 Par ch=1 c=64 v=40
209575 On ch=1 n=c5 v=64
209584 Par ch=1 c=64 v=24
209598 Par ch=1 c=64 v=0
209624 On ch=1 n=f5 v=43
209739 On ch=1 n=g#4 v=43
210416 Par ch=1 c=64 v=24
210502 Par ch=1 c=64 v=40
210574 Par ch=1 c=64 v=56
210623 Par ch=1 c=64 v=72
210652 Par ch=1 c=64 v=88
210681 Par ch=1 c=64 v=104
210727 Par ch=1 c=64 v=127
211539 Off ch=1 n=g#4 v=64
211689 Off ch=1 n=c5 v=64
211845 Off ch=1 n=f5 v=64
212806 Off ch=1 n=f3 v=64
213299 On ch=1 n=g#4 v=27
213305 On ch=1 n=c5 v=45
213334 On ch=1 n=f5 v=28
214969 Par ch=1 c=64 v=104
214984 Par ch=1 c=64 v=88
214990 Par ch=1 c=64 v=72
215004 Par ch=1 c=64 v=56
215018 Par ch=1 c=64 v=40
215041 Par ch=1 c=64 v=24
215070 Par ch=1 c=64 v=0
215085 On ch=1 n=f3 v=35
215240 Off ch=1 n=g#4 v=64
215358 Off ch=1 n=c5 v=64
215436 Off ch=1 n=f5 v=64
215871 Par ch=1 c=64 v=24
215943 Par ch=1 c=64 v=40
216021 Par ch=1 c=64 v=56
216087 Par ch=1 c=64 v=72
216150 Par ch=1 c=64 v=88
216193 Par ch=1 c=64 v=104
216268 Par ch=1 c=64 v=127
216804 On ch=1 n=g#4 v=26
216810 On ch=1 n=c5 v=37
216841 On ch=1 n=f5 v=24
218463 Off ch=1 n=g#4 v=64
218572 Off ch=1 n=c5 v=64
218751 Off ch=1 n=f5 v=64
220171 On ch=1 n=g#4 v=30
220179 On ch=1 n=f5 v=22
220205 On ch=1 n=c5 v=37
220266 Off ch=1 n=f3 v=64
220758 Off ch=1 n=g#4 v=64
220847 Off ch=1 n=c5 v=64
221190 Off ch=1 n=f5 v=64
221936 Par ch=1 c=64 v=104
221951 Par ch=1 c=64 v=88
221953 On ch=1 n=f3 v=37
221959 Par ch=1 c=64 v=72
221974 Par ch=1 c=64 v=56
221988 Par ch=1 c=64 v=40
222008 Par ch=1 c=64 v=24
222028 Par ch=1 c=64 v=0
222506 Off ch=1 n=f3 v=64
222506 Par ch=1 c=64 v=24
222541 Par ch=1 c=64 v=40
222596 Par ch=1 c=64 v=56
222659 Par ch=1 c=64 v=72
222691 Par ch=1 c=64 v=88
222728 Par ch=1 c=64 v=104
222777 Par ch=1 c=64 v=127
222872 On ch=1 n=c6 v=43
223702 On ch=1 n=c5 v=28
223725 On ch=1 n=f5 v=18
223751 On ch=1 n=d6 v=41
223768 Off ch=1 n=c6 v=64
223811 On ch=1 n=g#4 v=32
224574 On ch=1 n=e6 v=37
224710 Off ch=1 n=d6 v=64
225093 Off ch=1 n=f5 v=64
225283 Off ch=1 n=g#4 v=64
225332 Off ch=1 n=e6 v=64
225375 Off ch=1 n=c5 v=64
225427 On ch=1 n=f6 v=43
226247 Off ch=1 n=f6 v=64
226314 On ch=1 n=g6 v=44
227192 On ch=1 n=f5 v=12
227247 On ch=1 n=c5 v=32
227264 On ch=1 n=g#4 v=28
227353 On ch=1 n=b6 v=41
227368 Off ch=1 n=g6 v=64
228235 Off ch=1 n=f5 v=64
228459 Off ch=1 n=c5 v=64
228598 Off ch=1 n=g#4 v=64
228687 On ch=1 n=g6 v=41
228963 Off ch=1 n=b6 v=64
229401 Par ch=1 c=64 v=104
229407 Par ch=1 c=64 v=88
229416 Par ch=1 c=64 v=72
229430 Par ch=1 c=64 v=56
229453 Par ch=1 c=64 v=40
229470 Par ch=1 c=64 v=24
229479 Par ch=1 c=64 v=0
229513 On ch=1 n=f6 v=55
229528 On ch=1 n=f3 v=39
229597 Off ch=1 n=g6 v=64
229868 Par ch=1 c=64 v=24
229911 Par ch=1 c=64 v=40
229951 Par ch=1 c=64 v=56
229977 Par ch=1 c=64 v=72
230006 Par ch=1 c=64 v=88
230035 Par ch=1 c=64 v=104
230063 Par ch=1 c=64 v=127
230136 Off ch=1 n=f3 v=64
230951 On ch=1 n=g6 v=34
230974 Off ch=1 n=f6 v=64
231285 On ch=1 n=f6 v=49
231325 On ch=1 n=c5 v=34
231380 On ch=1 n=g#4 v=34
231394 On ch=1 n=f5 v=18
231408 Off ch=1 n=g6 v=64
232586 Off ch=1 n=f5 v=64
232808 Off ch=1 n=g#4 v=64
232825 Off ch=1 n=c5 v=64
234366 On ch=1 n=f5 v=34
234430 On ch=1 n=g#4 v=41
234438 On ch=1 n=c5 v=40
234542 Off ch=1 n=f5 v=64
234574 Off ch=1 n=c5 v=64
234827 Off ch=1 n=g#4 v=64
235619 Off ch=1 n=f6 v=64
235625 On ch=1 n=g6 v=48
235731 Par ch=1 c=64 v=104
235737 Par ch=1 c=64 v=88
235746 Par ch=1 c=64 v=72
235760 Par ch=1 c=64 v=56
235792 Par ch=1 c=64 v=40
235792 Par ch=1 c=64 v=24
235809 Par ch=1 c=64 v=0
235965 On ch=1 n=f3 v=48
235991 On ch=1 n=f6 v=71
236065 Off ch=1 n=g6 v=64
236207 Par ch=1 c=64 v=24
236264 Par ch=1 c=64 v=40
236284 Off ch=1 n=f3 v=64
236293 Par ch=1 c=64 v=56
236330 Par ch=1 c=64 v=72
236365 Par ch=1 c=64 v=88
236394 Par ch=1 c=64 v=104
236431 Par ch=1 c=64 v=127
237635 On ch=1 n=g#4 v=33
237652 On ch=1 n=c5 v=33
237687 On ch=1 n=f5 v=12
238179 Off ch=1 n=f6 v=64
238822 On ch=1 n=f6 v=41
238943 Off ch=1 n=f5 v=64
239084 Off ch=1 n=g#4 v=64
239176 On ch=1 n=e6 v=60
239202 Off ch=1 n=f6 v=64
239228 Off ch=1 n=c5 v=64
240705 On ch=1 n=g#4 v=39
240740 On ch=1 n=f5 v=9
240763 On ch=1 n=c5 v=28
240875 Off ch=1 n=f5 v=64
240964 Off ch=1 n=c5 v=64
241149 Off ch=1 n=g#4 v=64
241981 On ch=1 n=c#6 v=43
242033 Par ch=1 c=64 v=104
242047 Par ch=1 c=64 v=88
242059 Par ch=1 c=64 v=72
242070 Par ch=1 c=64 v=56
242085 Par ch=1 c=64 v=40
242122 Par ch=1 c=64 v=24
242139 Par ch=1 c=64 v=0
242151 Off ch=1 n=e6 v=64
242335 On ch=1 n=c6 v=64
242416 On ch=1 n=f3 v=33
242450 Off ch=1 n=c#6 v=64
242508 Par ch=1 c=64 v=24
242551 Par ch=1 c=64 v=40
242589 Par ch=1 c=64 v=56
242626 Par ch=1 c=64 v=72
242655 Par ch=1 c=64 v=88
242675 Par ch=1 c=64 v=104
242704 Par ch=1 c=64 v=127
242822 Off ch=1 n=f3 v=64
244118 On ch=1 n=c5 v=21
244190 On ch=1 n=f5 v=14
244250 On ch=1 n=g#4 v=28
244613 Off ch=1 n=c6 v=64
245322 On ch=1 n=c6 v=43
245382 Off ch=1 n=f5 v=64
245532 Off ch=1 n=g#4 v=64
245598 Off ch=1 n=c5 v=64
245679 On ch=1 n=b5 v=61
245705 Off ch=1 n=c6 v=64
247038 On ch=1 n=f5 v=18
247096 On ch=1 n=c5 v=27
247128 On ch=1 n=g#4 v=26
247292 Off ch=1 n=f5 v=64
247499 Off ch=1 n=c5 v=64
247585 Off ch=1 n=g#4 v=64
248375 Par ch=1 c=64 v=104
248378 On ch=1 n=g#5 v=37
248389 Par ch=1 c=64 v=88
248400 Par ch=1 c=64 v=72
248406 Par ch=1 c=64 v=56
248415 Par ch=1 c=64 v=40
248424 Par ch=1 c=64 v=24
248458 Par ch=1 c=64 v=0
248605 Off ch=1 n=b5 v=64
248674 On ch=1 n=g5 v=65
248714 On ch=1 n=f3 v=34
248812 Par ch=1 c=64 v=24
248830 Off ch=1 n=g#5 v=64
248841 Par ch=1 c=64 v=40
248870 Par ch=1 c=64 v=56
248899 Par ch=1 c=64 v=72
248913 Par ch=1 c=64 v=88
248936 Par ch=1 c=64 v=104
248956 Par ch=1 c=64 v=127
248959 Off ch=1 n=g5 v=64
249889 On ch=1 n=g5 v=36
250206 Par ch=1 c=64 v=104
250209 Par ch=1 c=64 v=88
250226 Par ch=1 c=64 v=72
250226 Par ch=1 c=64 v=56
250232 Par ch=1 c=64 v=40
250235 Off ch=1 n=g5 v=64
250255 Par ch=1 c=64 v=24
250267 Par ch=1 c=64 v=0
250321 On ch=1 n=c5 v=70
250382 On ch=1 n=g#4 v=54
250382 On ch=1 n=f5 v=37
250941 Par ch=1 c=64 v=24
250998 Par ch=1 c=64 v=40
251044 Par ch=1 c=64 v=56
251099 Par ch=1 c=64 v=72
251174 Par ch=1 c=64 v=88
251214 Par ch=1 c=64 v=104
251286 Par ch=1 c=64 v=127
252006 Off ch=1 n=g#4 v=64
252093 Off ch=1 n=c5 v=64
252205 Off ch=1 n=f5 v=64
253250 Off ch=1 n=f3 v=64
254284 On ch=1 n=g#4 v=32
254336 On ch=1 n=f5 v=26
254336 On ch=1 n=c5 v=46
256113 Par ch=1 c=64 v=104
256128 Par ch=1 c=64 v=88
256142 Par ch=1 c=64 v=72
256156 Par ch=1 c=64 v=56
256177 Par ch=1 c=64 v=40
256182 On ch=1 n=f3 v=40
256200 Par ch=1 c=64 v=24
256220 Par ch=1 c=64 v=0
256280 Off ch=1 n=g#4 v=64
256344 Off ch=1 n=c5 v=64
256479 Off ch=1 n=f5 v=64
256948 Par ch=1 c=64 v=24
256992 Par ch=1 c=64 v=40
257049 Par ch=1 c=64 v=56
257101 Par ch=1 c=64 v=72
257179 Par ch=1 c=64 v=88
257245 Par ch=1 c=64 v=104
257323 Par ch=1 c=64 v=127
257887 On ch=1 n=g#4 v=30
257893 On ch=1 n=f5 v=23
257907 On ch=1 n=c5 v=40
259598 Off ch=1 n=g#4 v=64
259719 Off ch=1 n=c5 v=64
259860 Off ch=1 n=f5 v=64
261081 On ch=1 n=g#4 v=46
261104 On ch=1 n=f5 v=36
261156 Off ch=1 n=f3 v=64
261179 On ch=1 n=c5 v=40
261320 Off ch=1 n=c5 v=64
261329 Off ch=1 n=g#4 v=64
261594 Off ch=1 n=f5 v=64
262202 On ch=1 n=g#5 v=71
262418 Par ch=1 c=64 v=104
262423 Par ch=1 c=64 v=88
262432 Par ch=1 c=64 v=72
262441 Par ch=1 c=64 v=56
262452 Par ch=1 c=64 v=40
262466 Par ch=1 c=64 v=24
262484 Par ch=1 c=64 v=0
262573 Off ch=1 n=g#5 v=64
262611 On ch=1 n=a#2 v=71
262613 On ch=1 n=a#5 v=83
262901 Off ch=1 n=a#2 v=64
262985 Par ch=1 c=64 v=24
263022 Par ch=1 c=64 v=40
263066 Par ch=1 c=64 v=56
263094 Par ch=1 c=64 v=72
263123 Par ch=1 c=64 v=88
263158 Par ch=1 c=64 v=104
263195 Par ch=1 c=64 v=127
264151 On ch=1 n=f4 v=51
264171 On ch=1 n=c#5 v=44
264200 On ch=1 n=a#4 v=54
265280 On ch=1 n=g#5 v=70
265467 Off ch=1 n=c#5 v=64
265502 Off ch=1 n=f4 v=64
265508 Off ch=1 n=a#5 v=64
265591 Off ch=1 n=a#4 v=64
265643 On ch=1 n=g5 v=92
265689 Off ch=1 n=g#5 v=64
267106 On ch=1 n=c#5 v=65
267129 On ch=1 n=f4 v=65
267129 On ch=1 n=a#4 v=66
267227 Off ch=1 n=c#5 v=64
267426 Off ch=1 n=a#4 v=64
267446 Off ch=1 n=f4 v=64
268155 On ch=1 n=g#5 v=88
268371 Off ch=1 n=g5 v=64
268463 Par ch=1 c=64 v=104
268468 Par ch=1 c=64 v=88
268477 Par ch=1 c=64 v=72
268491 Par ch=1 c=64 v=56
268506 Par ch=1 c=64 v=40
268520 Par ch=1 c=64 v=24
268540 Par ch=1 c=64 v=0
268558 Off ch=1 n=g#5 v=64
268604 On ch=1 n=a#2 v=69
268610 On ch=1 n=a#5 v=88
268863 Off ch=1 n=a#2 v=64
268944 Par ch=1 c=64 v=24
268981 Par ch=1 c=64 v=40
269016 Par ch=1 c=64 v=56
269053 Par ch=1 c=64 v=72
269076 Par ch=1 c=64 v=88
269096 Par ch=1 c=64 v=104
269134 Par ch=1 c=64 v=127
270159 On ch=1 n=f4 v=52
270179 On ch=1 n=a#4 v=48
270182 On ch=1 n=c#5 v=32
271348 On ch=1 n=g#5 v=64
271443 Off ch=1 n=c#5 v=64
271478 Off ch=1 n=f4 v=64
271648 Off ch=1 n=a#4 v=64
271717 Off ch=1 n=a#5 v=64
271760 On ch=1 n=g5 v=82
271841 Off ch=1 n=g#5 v=64
273255 On ch=1 n=f4 v=57
273264 On ch=1 n=c#5 v=41
273278 On ch=1 n=a#4 v=48
273411 Off ch=1 n=c#5 v=64
273560 Off ch=1 n=f4 v=64
273661 Off ch=1 n=a#4 v=64
274540 On ch=1 n=g#5 v=71
274661 Off ch=1 n=g5 v=64
274715 Par ch=1 c=64 v=104
274724 Par ch=1 c=64 v=88
274730 Par ch=1 c=64 v=72
274744 Par ch=1 c=64 v=56
274761 Par ch=1 c=64 v=40
274779 Par ch=1 c=64 v=24
274787 Par ch=1 c=64 v=0
274917 On ch=1 n=f3 v=77
274951 On ch=1 n=g5 v=90
275081 Off ch=1 n=g#5 v=64
275219 Par ch=1 c=64 v=24
275262 Par ch=1 c=64 v=40
275283 Par ch=1 c=64 v=56
275285 Off ch=1 n=g5 v=64
275308 Par ch=1 c=64 v=72
275334 Par ch=1 c=64 v=88
275357 Par ch=1 c=64 v=104
275409 Par ch=1 c=64 v=127
276086 On ch=1 n=g5 v=66
276466 Par ch=1 c=64 v=104
276472 Par ch=1 c=64 v=88
276481 Par ch=1 c=64 v=72
276504 Off ch=1 n=g5 v=64
276504 Par ch=1 c=64 v=56
276521 Par ch=1 c=64 v=40
276524 Par ch=1 c=64 v=24
276538 Par ch=1 c=64 v=0
276547 On ch=1 n=c5 v=80
276602 On ch=1 n=g#4 v=69
276728 On ch=1 n=f5 v=54
277143 Par ch=1 c=64 v=24
277192 Par ch=1 c=64 v=40
277241 Par ch=1 c=64 v=56
277287 Par ch=1 c=64 v=72
277313 Par ch=1 c=64 v=88
277350 Par ch=1 c=64 v=104
277394 Par ch=1 c=64 v=127
278525 Off ch=1 n=g#4 v=64
278563 Off ch=1 n=c5 v=64
278638 Off ch=1 n=f5 v=64
279940 Off ch=1 n=f3 v=64
280107 On ch=1 n=g#4 v=43
280144 On ch=1 n=c5 v=55
280144 On ch=1 n=f5 v=34
281829 Par ch=1 c=64 v=104
281843 Par ch=1 c=64 v=88
281852 Par ch=1 c=64 v=72
281881 Par ch=1 c=64 v=56
281881 Par ch=1 c=64 v=40
281909 Par ch=1 c=64 v=24
281924 On ch=1 n=f3 v=48
281930 Par ch=1 c=64 v=0
282045 Off ch=1 n=g#4 v=64
282117 Off ch=1 n=c5 v=64
282267 Off ch=1 n=f5 v=64
282471 Par ch=1 c=64 v=24
282520 Par ch=1 c=64 v=40
282563 Par ch=1 c=64 v=56
282606 Par ch=1 c=64 v=72
282650 Par ch=1 c=64 v=88
282699 Par ch=1 c=64 v=104
282739 Par ch=1 c=64 v=127
283591 On ch=1 n=f5 v=32
283609 On ch=1 n=c5 v=51
283629 On ch=1 n=g#4 v=32
285541 Off ch=1 n=g#4 v=64
285553 Off ch=1 n=c5 v=64
285774 Off ch=1 n=f5 v=64
286808 On ch=1 n=g#4 v=40
286811 On ch=1 n=f5 v=39
286872 Off ch=1 n=f3 v=64
286877 On ch=1 n=c5 v=41
286978 Off ch=1 n=g#4 v=64
287016 Off ch=1 n=c5 v=64
287324 Off ch=1 n=f5 v=64
287934 On ch=1 n=g#5 v=73
288148 Par ch=1 c=64 v=104
288156 Par ch=1 c=64 v=88
288165 Par ch=1 c=64 v=72
288176 Par ch=1 c=64 v=56
288191 Par ch=1 c=64 v=40
288205 Par ch=1 c=64 v=24
288228 Par ch=1 c=64 v=0
288245 Off ch=1 n=g#5 v=64
288315 On ch=1 n=a#2 v=73
288318 On ch=1 n=a#5 v=85
288571 Off ch=1 n=a#2 v=64
288695 Par ch=1 c=64 v=24
288724 Par ch=1 c=64 v=40
288758 Par ch=1 c=64 v=56
288790 Par ch=1 c=64 v=72
288810 Par ch=1 c=64 v=88
288839 Par ch=1 c=64 v=104
288888 Par ch=1 c=64 v=127
289867 On ch=1 n=f4 v=51
289870 On ch=1 n=c#5 v=46
289893 On ch=1 n=a#4 v=54
291007 On ch=1 n=g#5 v=64
291241 Off ch=1 n=c#5 v=64
291267 Off ch=1 n=f4 v=64
291339 Off ch=1 n=a#5 v=64
291356 On ch=1 n=g5 v=87
291373 Off ch=1 n=a#4 v=64
291460 Off ch=1 n=g#5 v=64
292782 On ch=1 n=c#5 v=51
292787 On ch=1 n=a#4 v=63
292793 On ch=1 n=f4 v=65
292894 Off ch=1 n=c#5 v=64
293058 Off ch=1 n=a#4 v=64
293081 Off ch=1 n=f4 v=64
293882 On ch=1 n=g#5 v=79
294106 Par ch=1 c=64 v=104
294109 Off ch=1 n=g5 v=64
294115 Par ch=1 c=64 v=88
294121 Par ch=1 c=64 v=72
294126 Par ch=1 c=64 v=56
294141 Par ch=1 c=64 v=40
294164 Par ch=1 c=64 v=24
294178 Par ch=1 c=64 v=0
294224 Off ch=1 n=g#5 v=64
294247 On ch=1 n=a#2 v=66
294253 On ch=1 n=a#5 v=86
294426 Off ch=1 n=a#2 v=64
294602 Par ch=1 c=64 v=24
294639 Par ch=1 c=64 v=40
294682 Par ch=1 c=64 v=56
294717 Par ch=1 c=64 v=72
294749 Par ch=1 c=64 v=88
294783 Par ch=1 c=64 v=104
294826 Par ch=1 c=64 v=127
295748 On ch=1 n=c#5 v=43
295751 On ch=1 n=f4 v=55
295780 On ch=1 n=a#4 v=57
296874 On ch=1 n=g#5 v=67
297021 Off ch=1 n=c#5 v=64
297032 Off ch=1 n=f4 v=64
297156 Off ch=1 n=a#4 v=64
297185 Off ch=1 n=a#5 v=64
297271 On ch=1 n=g5 v=88
297335 Off ch=1 n=g#5 v=64
298677 On ch=1 n=c#5 v=45
298734 On ch=1 n=a#4 v=45
298755 On ch=1 n=f4 v=46
298835 Off ch=1 n=c#5 v=64
298916 Off ch=1 n=a#4 v=64
298985 Off ch=1 n=f4 v=64
299861 On ch=1 n=g#5 v=66
299889 Par ch=1 c=64 v=104
299895 Par ch=1 c=64 v=88
299904 Par ch=1 c=64 v=72
299918 Par ch=1 c=64 v=56
299941 Par ch=1 c=64 v=40
299959 Par ch=1 c=64 v=24
299961 Par ch=1 c=64 v=0
299964 Off ch=1 n=g5 v=64
300321 On ch=1 n=g5 v=87
300336 On ch=1 n=f3 v=64
300393 Par ch=1 c=64 v=24
300437 Par ch=1 c=64 v=40
300451 Par ch=1 c=64 v=56
300454 Off ch=1 n=g#5 v=64
300480 Par ch=1 c=64 v=72
300503 Par ch=1 c=64 v=88
300523 Par ch=1 c=64 v=104
300552 Par ch=1 c=64 v=127
300589 Off ch=1 n=g5 v=64
301450 On ch=1 n=g5 v=65
301473 On ch=1 n=c5 v=72
301488 On ch=1 n=g#4 v=57
301684 Par ch=1 c=64 v=104
301684 Par ch=1 c=64 v=88
301704 Par ch=1 c=64 v=72
301704 Par ch=1 c=64 v=56
301710 Par ch=1 c=64 v=40
301733 Par ch=1 c=64 v=24
301747 Par ch=1 c=64 v=0
301865 Off ch=1 n=g5 v=64
301894 On ch=1 n=f5 v=64
302159 Par ch=1 c=64 v=24
302188 Par ch=1 c=64 v=40
302222 Par ch=1 c=64 v=56
302251 Par ch=1 c=64 v=72
302280 Par ch=1 c=64 v=88
302317 Par ch=1 c=64 v=104
302340 Par ch=1 c=64 v=127
303599 Off ch=1 n=g#4 v=64
303700 Off ch=1 n=c5 v=64
303818 Off ch=1 n=f5 v=64
304958 Off ch=1 n=f3 v=64
305307 On ch=1 n=g#4 v=52
305330 On ch=1 n=f5 v=46
305333 On ch=1 n=c5 v=67
306911 Par ch=1 c=64 v=104
306925 Par ch=1 c=64 v=88
306934 Par ch=1 c=64 v=72
306948 Par ch=1 c=64 v=56
306968 Par ch=1 c=64 v=40
306991 Par ch=1 c=64 v=24
307009 Off ch=1 n=g#4 v=64
307020 Par ch=1 c=64 v=0
307032 On ch=1 n=f3 v=54
307130 Off ch=1 n=c5 v=64
307202 Off ch=1 n=f5 v=64
307616 Par ch=1 c=64 v=24
307668 Par ch=1 c=64 v=40
307723 Par ch=1 c=64 v=56
307769 Par ch=1 c=64 v=72
307812 Par ch=1 c=64 v=88
307855 Par ch=1 c=64 v=104
307919 Par ch=1 c=64 v=127
308688 On ch=1 n=f5 v=36
308699 On ch=1 n=g#4 v=33
308745 On ch=1 n=c5 v=46
310188 Off ch=1 n=g#4 v=64
310318 Off ch=1 n=c5 v=64
310439 Off ch=1 n=f5 v=64
311795 On ch=1 n=f5 v=30
311850 On ch=1 n=g#4 v=27
311856 On ch=1 n=c5 v=37
311905 Off ch=1 n=f3 v=64
312406 Off ch=1 n=g#4 v=64
312527 Off ch=1 n=c5 v=64
312849 Off ch=1 n=f5 v=64
313561 Par ch=1 c=64 v=104
313569 Par ch=1 c=64 v=88
313575 Par ch=1 c=64 v=72
313590 Par ch=1 c=64 v=56
313604 Par ch=1 c=64 v=40
313633 Par ch=1 c=64 v=24
313656 Par ch=1 c=64 v=0
313736 On ch=1 n=f3 v=40
314157 Par ch=1 c=64 v=24
314200 Off ch=1 n=f3 v=64
314200 Par ch=1 c=64 v=40
314243 Par ch=1 c=64 v=56
314287 Par ch=1 c=64 v=72
314321 Par ch=1 c=64 v=88
314359 Par ch=1 c=64 v=104
314410 Par ch=1 c=64 v=127
315603 On ch=1 n=g#4 v=17
315646 On ch=1 n=f5 v=4
315652 On ch=1 n=c5 v=27
315655 On ch=1 n=c6 v=36
316418 On ch=1 n=d#6 v=46
316524 Off ch=1 n=c6 v=64
317023 Off ch=1 n=f5 v=64
317106 Off ch=1 n=c5 v=64
317241 Off ch=1 n=g#4 v=64
317365 On ch=1 n=d6 v=46
317576 Off ch=1 n=d#6 v=64
318846 On ch=1 n=g#4 v=31
318854 On ch=1 n=f5 v=12
318874 On ch=1 n=c5 v=32
318889 On ch=1 n=c6 v=51
319053 Off ch=1 n=f5 v=64
319056 Off ch=1 n=d6 v=64
319113 Off ch=1 n=c5 v=64
319295 Off ch=1 n=g#4 v=64
319358 Off ch=1 n=c6 v=64
320127 On ch=1 n=c6 v=39
320147 Par ch=1 c=64 v=104
320156 Par ch=1 c=64 v=88
320162 Par ch=1 c=64 v=72
320173 Par ch=1 c=64 v=56
320188 Par ch=1 c=64 v=40
320214 Par ch=1 c=64 v=24
320234 Par ch=1 c=64 v=0
320407 On ch=1 n=b5 v=63
320450 On ch=1 n=f3 v=36
320473 Off ch=1 n=c6 v=64
320663 Par ch=1 c=64 v=24
320706 Par ch=1 c=64 v=40
320749 Par ch=1 c=64 v=56
320784 Par ch=1 c=64 v=72
320813 Off ch=1 n=f3 v=64
320821 Par ch=1 c=64 v=88
320865 Par ch=1 c=64 v=104
320902 Par ch=1 c=64 v=127
322195 On ch=1 n=c5 v=27
322267 On ch=1 n=f5 v=7
322276 On ch=1 n=g#4 v=27
323891 Off ch=1 n=f5 v=64
324004 Off ch=1 n=g#4 v=64
324032 Off ch=1 n=c5 v=64
325504 On ch=1 n=f5 v=14
325619 On ch=1 n=c5 v=30
325625 On ch=1 n=g#4 v=23
325930 Off ch=1 n=f5 v=64
326028 Off ch=1 n=c5 v=64
326164 Off ch=1 n=g#4 v=64
327068 Par ch=1 c=64 v=104
327074 Par ch=1 c=64 v=88
327082 Par ch=1 c=64 v=72
327097 Par ch=1 c=64 v=56
327106 Par ch=1 c=64 v=40
327126 Par ch=1 c=64 v=24
327140 Par ch=1 c=64 v=0
327345 On ch=1 n=f3 v=32
327670 Par ch=1 c=64 v=24
327705 Par ch=1 c=64 v=40
327748 Par ch=1 c=64 v=56
327791 Par ch=1 c=64 v=72
327820 Par ch=1 c=64 v=88
327834 Off ch=1 n=f3 v=64
327837 Off ch=1 n=b5 v=64
327851 Par ch=1 c=64 v=104
327880 Par ch=1 c=64 v=127
329026 On ch=1 n=f5 v=21
329032 On ch=1 n=c6 v=45
329049 On ch=1 n=g#4 v=36
329159 On ch=1 n=c5 v=24
329862 On ch=1 n=d#6 v=51
330043 Off ch=1 n=c6 v=64
330259 Off ch=1 n=f5 v=64
330573 Off ch=1 n=c5 v=64
330579 Off ch=1 n=g#4 v=64
330700 On ch=1 n=d6 v=64
330870 Off ch=1 n=d#6 v=64
332327 On ch=1 n=c6 v=51
332353 On ch=1 n=f5 v=23
332390 Off ch=1 n=d6 v=64
332396 On ch=1 n=c5 v=32
332419 On ch=1 n=g#4 v=37
332526 Off ch=1 n=f5 v=64
332549 Off ch=1 n=c5 v=64
332733 Off ch=1 n=g#4 v=64
333577 Par ch=1 c=64 v=104
333586 Par ch=1 c=64 v=88
333600 Par ch=1 c=64 v=72
333609 Par ch=1 c=64 v=56
333629 Par ch=1 c=64 v=40
333643 Par ch=1 c=64 v=24
333678 Par ch=1 c=64 v=0
333761 On ch=1 n=e6 v=36
333819 Off ch=1 n=c6 v=64
333914 On ch=1 n=f3 v=39
334029 On ch=1 n=f6 v=61
334107 Off ch=1 n=e6 v=64
334262 Par ch=1 c=64 v=24
334314 Par ch=1 c=64 v=40
334349 Par ch=1 c=64 v=56
334378 Par ch=1 c=64 v=72
334403 Off ch=1 n=f3 v=64
334412 Par ch=1 c=64 v=88
334441 Par ch=1 c=64 v=104
334493 Par ch=1 c=64 v=127
335895 On ch=1 n=c5 v=29
335915 On ch=1 n=g#4 v=32
335918 On ch=1 n=f5 v=16
337618 Off ch=1 n=c5 v=64
337623 Off ch=1 n=f5 v=64
337672 Off ch=1 n=g#4 v=64
339127 On ch=1 n=f5 v=27
339176 On ch=1 n=c5 v=34
339268 On ch=1 n=g#4 v=32
339426 Off ch=1 n=f5 v=64
339443 Off ch=1 n=c5 v=64
339631 Off ch=1 n=g#4 v=64
340593 Off ch=1 n=f6 v=64
340702 Par ch=1 c=64 v=104
340716 Par ch=1 c=64 v=88
340725 Par ch=1 c=64 v=72
340739 Par ch=1 c=64 v=56
340754 Par ch=1 c=64 v=40
340774 Par ch=1 c=64 v=24
340809 Par ch=1 c=64 v=0
341079 On ch=1 n=f3 v=37
341313 Par ch=1 c=64 v=24
341333 Par ch=1 c=64 v=40
341370 Par ch=1 c=64 v=56
341390 Par ch=1 c=64 v=72
341413 Par ch=1 c=64 v=88
341448 Par ch=1 c=64 v=104
341465 Par ch=1 c=64 v=127
341531 Off ch=1 n=f3 v=64
342925 On ch=1 n=f5 v=18
342969 On ch=1 n=c5 v=27
342977 On ch=1 n=g#4 v=30
342983 On ch=1 n=c6 v=35
343795 On ch=1 n=d#6 v=52
343847 Off ch=1 n=c6 v=64
344112 Off ch=1 n=f5 v=64
344328 Off ch=1 n=c5 v=64
344409 Off ch=1 n=g#4 v=64
344947 On ch=1 n=d6 v=43
345160 Off ch=1 n=d#6 v=64
346589 On ch=1 n=c6 v=41
346592 On ch=1 n=f5 v=18
346626 On ch=1 n=c5 v=30
346739 Off ch=1 n=d6 v=64
346816 Off ch=1 n=f5 v=64
346903 Off ch=1 n=c5 v=64
347070 Off ch=1 n=c6 v=64
347885 Par ch=1 c=64 v=104
347891 Par ch=1 c=64 v=88
347905 Par ch=1 c=64 v=72
347914 Par ch=1 c=64 v=56
347942 Par ch=1 c=64 v=40
347942 On ch=1 n=c6 v=32
347960 Par ch=1 c=64 v=24
347968 Par ch=1 c=64 v=0
348181 On ch=1 n=f3 v=36
348184 On ch=1 n=b5 v=54
348268 Off ch=1 n=c6 v=64
348380 Par ch=1 c=64 v=24
348418 Par ch=1 c=64 v=40
348452 Par ch=1 c=64 v=56
348475 Par ch=1 c=64 v=72
348504 Par ch=1 c=64 v=88
348524 Par ch=1 c=64 v=104
348547 Par ch=1 c=64 v=127
348576 Off ch=1 n=f3 v=64
349918 On ch=1 n=f5 v=21
349950 On ch=1 n=c5 v=32
350016 On ch=1 n=g#4 v=23
351755 Off ch=1 n=f5 v=64
351802 Off ch=1 n=g#4 v=64
351874 Off ch=1 n=c5 v=64
353340 On ch=1 n=c5 v=32
353348 On ch=1 n=f5 v=21
353357 On ch=1 n=g#4 v=31
353676 Off ch=1 n=f5 v=64
353763 Off ch=1 n=c5 v=64
353898 Off ch=1 n=g#4 v=64
354877 Par ch=1 c=64 v=104
354886 Par ch=1 c=64 v=88
354895 Par ch=1 c=64 v=72
354900 Par ch=1 c=64 v=56
354915 Par ch=1 c=64 v=40
354929 Par ch=1 c=64 v=24
354949 Par ch=1 c=64 v=0
355122 On ch=1 n=f3 v=32
355284 Off ch=1 n=b5 v=64
355373 Par ch=1 c=64 v=24
355416 Par ch=1 c=64 v=40
355445 Par ch=1 c=64 v=56
355474 Par ch=1 c=64 v=72
355497 Par ch=1 c=64 v=88
355517 Par ch=1 c=64 v=104
355554 Par ch=1 c=64 v=127
355698 Off ch=1 n=f3 v=64
356842 On ch=1 n=c6 v=41
356847 On ch=1 n=c5 v=24
356885 On ch=1 n=g#4 v=32
356899 On ch=1 n=f5 v=14
357703 On ch=1 n=d#6 v=51
357786 Off ch=1 n=c6 v=64
358132 Off ch=1 n=f5 v=64
358221 Off ch=1 n=c5 v=64
358333 Off ch=1 n=g#4 v=64
358745 On ch=1 n=d6 v=46
358878 Off ch=1 n=d#6 v=64
360326 On ch=1 n=c5 v=31
360378 On ch=1 n=f5 v=18
360404 On ch=1 n=c6 v=45
360459 On ch=1 n=g#4 v=23
360485 Off ch=1 n=d6 v=64
360571 Off ch=1 n=f5 v=64
360626 Off ch=1 n=c5 v=64
360816 Off ch=1 n=g#4 v=64
361634 Par ch=1 c=64 v=104
361643 Par ch=1 c=64 v=88
361657 Par ch=1 c=64 v=72
361663 Par ch=1 c=64 v=56
361677 Par ch=1 c=64 v=40
361715 Par ch=1 c=64 v=24
361715 Par ch=1 c=64 v=0
361812 Off ch=1 n=c6 v=64
361815 On ch=1 n=e6 v=33
361965 On ch=1 n=f3 v=36
362075 On ch=1 n=f6 v=54
362152 Par ch=1 c=64 v=24
362161 Off ch=1 n=e6 v=64
362198 Par ch=1 c=64 v=40
362219 Par ch=1 c=64 v=56
362247 Par ch=1 c=64 v=72
362276 Par ch=1 c=64 v=88
362305 Par ch=1 c=64 v=104
362334 Par ch=1 c=64 v=127
362383 Off ch=1 n=f3 v=64
363690 On ch=1 n=c5 v=37
363722 On ch=1 n=g#4 v=35
363754 On ch=1 n=f5 v=26
365303 Off ch=1 n=f5 v=64
365395 Off ch=1 n=c5 v=64
365441 Off ch=1 n=g#4 v=64
365839 Off ch=1 n=f6 v=64
366804 On ch=1 n=f5 v=32
366835 On ch=1 n=g#4 v=45
366852 On ch=1 n=c5 v=37
366965 Off ch=1 n=f5 v=64
366985 Off ch=1 n=c5 v=64
367135 Off ch=1 n=g#4 v=64
368013 On ch=1 n=g#5 v=70
368229 Par ch=1 c=64 v=104
368229 Par ch=1 c=64 v=88
368235 Par ch=1 c=64 v=72
368241 Par ch=1 c=64 v=56
368255 Par ch=1 c=64 v=40
368275 Par ch=1 c=64 v=24
368290 Par ch=1 c=64 v=0
368333 On ch=1 n=a#2 v=57
368339 On ch=1 n=a#5 v=87
368367 Off ch=1 n=g#5 v=64
368630 Off ch=1 n=a#2 v=64
368664 Par ch=1 c=64 v=24
368701 Par ch=1 c=64 v=40
368736 Par ch=1 c=64 v=56
368765 Par ch=1 c=64 v=72
368794 Par ch=1 c=64 v=88
368817 Par ch=1 c=64 v=104
368846 Par ch=1 c=64 v=127
369972 On ch=1 n=c#5 v=36
369992 On ch=1 n=f4 v=41
369995 On ch=1 n=a#4 v=43
371158 On ch=1 n=g#5 v=63
371262 Off ch=1 n=c#5 v=64
371296 Off ch=1 n=f4 v=64
371397 Off ch=1 n=a#5 v=64
371423 Off ch=1 n=a#4 v=64
371466 On ch=1 n=g5 v=85
371518 Off ch=1 n=g#5 v=64
372883 On ch=1 n=c#5 v=45
372892 On ch=1 n=a#4 v=65
372924 On ch=1 n=f4 v=49
372998 Off ch=1 n=c#5 v=64
373105 Off ch=1 n=a#4 v=64
373194 Off ch=1 n=f4 v=64
374030 On ch=1 n=g#5 v=81
374197 Par ch=1 c=64 v=104
374202 Par ch=1 c=64 v=88
374211 Par ch=1 c=64 v=72
374234 Off ch=1 n=g5 v=64
374234 Par ch=1 c=64 v=56
374254 Par ch=1 c=64 v=40
374254 Par ch=1 c=64 v=24
374274 Par ch=1 c=64 v=0
374352 On ch=1 n=a#2 v=72
374387 On ch=1 n=a#5 v=86
374421 Off ch=1 n=g#5 v=64
374582 Off ch=1 n=a#2 v=64
374680 Par ch=1 c=64 v=24
374732 Par ch=1 c=64 v=40
374752 Par ch=1 c=64 v=56
374781 Par ch=1 c=64 v=72
374804 Par ch=1 c=64 v=88
374824 Par ch=1 c=64 v=104
374853 Par ch=1 c=64 v=127
375876 On ch=1 n=c#5 v=46
375878 On ch=1 n=f4 v=49
375910 On ch=1 n=a#4 v=58
377010 Off ch=1 n=c#5 v=64
377031 On ch=1 n=g#5 v=66
377059 Off ch=1 n=f4 v=64
377198 Off ch=1 n=a#4 v=64
377327 Off ch=1 n=a#5 v=64
377370 On ch=1 n=g5 v=85
377477 Off ch=1 n=g#5 v=64
378805 On ch=1 n=f4 v=51
378813 On ch=1 n=a#4 v=51
378833 On ch=1 n=c#5 v=28
379006 Off ch=1 n=c#5 v=64
379081 Off ch=1 n=f4 v=64
379159 Off ch=1 n=a#4 v=64
379968 Par ch=1 c=64 v=104
379974 Par ch=1 c=64 v=88
379988 Par ch=1 c=64 v=72
379997 Par ch=1 c=64 v=56
380008 Par ch=1 c=64 v=40
380014 On ch=1 n=g#5 v=77
380034 Par ch=1 c=64 v=24
380043 Par ch=1 c=64 v=0
380089 Off ch=1 n=g5 v=64
380340 On ch=1 n=f3 v=69
380380 On ch=1 n=g5 v=85
380458 Par ch=1 c=64 v=24
380484 Par ch=1 c=64 v=40
380512 Off ch=1 n=g#5 v=64
380521 Par ch=1 c=64 v=56
380544 Par ch=1 c=64 v=72
380573 Par ch=1 c=64 v=88
380590 Par ch=1 c=64 v=104
380616 Par ch=1 c=64 v=127
380674 Off ch=1 n=g5 v=64
381561 On ch=1 n=c5 v=75
381578 On ch=1 n=g#4 v=66
381624 On ch=1 n=g5 v=26
381898 Off ch=1 n=g5 v=64
381967 On ch=1 n=f5 v=63
383917 Off ch=1 n=g#4 v=64
384069 Off ch=1 n=c5 v=64
384239 Off ch=1 n=f5 v=64
385046 Off ch=1 n=f3 v=64
385544 On ch=1 n=f5 v=40
385555 On ch=1 n=g#4 v=43
385573 On ch=1 n=c5 v=57
387168 Par ch=1 c=64 v=104
387177 Par ch=1 c=64 v=88
387191 Par ch=1 c=64 v=72
387203 Par ch=1 c=64 v=56
387226 Par ch=1 c=64 v=40
387246 Par ch=1 c=64 v=24
387275 Par ch=1 c=64 v=0
387338 On ch=1 n=f3 v=46
387413 Off ch=1 n=g#4 v=64
387494 Off ch=1 n=c5 v=64
387563 Off ch=1 n=f5 v=64
387888 Par ch=1 c=64 v=24
387940 Par ch=1 c=64 v=40
388003 Par ch=1 c=64 v=56
388064 Par ch=1 c=64 v=72
388113 Par ch=1 c=64 v=88
388156 Par ch=1 c=64 v=104
388228 Par ch=1 c=64 v=127
389023 On ch=1 n=f5 v=28
389069 On ch=1 n=c5 v=43
389075 On ch=1 n=g#4 v=27
390921 Off ch=1 n=g#4 v=64
391004 Off ch=1 n=c5 v=64
391209 Off ch=1 n=f5 v=64
392159 On ch=1 n=g#4 v=44
392174 On ch=1 n=f5 v=36
392237 On ch=1 n=c5 v=41
392286 Off ch=1 n=f3 v=64
392352 Off ch=1 n=g#4 v=64
392384 Off ch=1 n=c5 v=64
392680 Off ch=1 n=f5 v=64
393326 On ch=1 n=g#5 v=73
393424 Par ch=1 c=64 v=104
393429 Par ch=1 c=64 v=88
393444 Par ch=1 c=64 v=72
393449 Par ch=1 c=64 v=56
393464 Par ch=1 c=64 v=40
393487 Par ch=1 c=64 v=24
393507 Par ch=1 c=64 v=0
393723 Off ch=1 n=g#5 v=64
393723 On ch=1 n=a#2 v=69
393743 On ch=1 n=a#5 v=79
393948 Par ch=1 c=64 v=24
393951 Off ch=1 n=a#2 v=64
393976 Par ch=1 c=64 v=40
394011 Par ch=1 c=64 v=56
394057 Par ch=1 c=64 v=72
394069 Par ch=1 c=64 v=88
394092 Par ch=1 c=64 v=104
394120 Par ch=1 c=64 v=127
395247 On ch=1 n=c#5 v=37
395258 On ch=1 n=f4 v=44
395295 On ch=1 n=a#4 v=51
396430 On ch=1 n=g#5 v=55
396594 Off ch=1 n=f4 v=64
396643 Off ch=1 n=c#5 v=64
396704 Off ch=1 n=a#4 v=64
396741 Off ch=1 n=a#5 v=64
396784 On ch=1 n=g5 v=79
396888 Off ch=1 n=g#5 v=64
398184 On ch=1 n=a#4 v=55
398196 On ch=1 n=c#5 v=41
398248 On ch=1 n=f4 v=45
398322 Off ch=1 n=c#5 v=64
398495 Off ch=1 n=a#4 v=64
398596 Off ch=1 n=f4 v=64
399333 On ch=1 n=g#5 v=75
399500 Par ch=1 c=64 v=104
399509 Par ch=1 c=64 v=88
399515 Par ch=1 c=64 v=72
399529 Par ch=1 c=64 v=56
399544 Par ch=1 c=64 v=40
399558 Par ch=1 c=64 v=24
399581 Off ch=1 n=g5 v=64
399581 Par ch=1 c=64 v=0
399705 On ch=1 n=a#2 v=61
399716 On ch=1 n=a#5 v=81
399803 Off ch=1 n=g#5 v=64
399981 Off ch=1 n=a#2 v=64
399999 Par ch=1 c=64 v=24
400033 Par ch=1 c=64 v=40
400071 Par ch=1 c=64 v=56
400108 Par ch=1 c=64 v=72
400137 Par ch=1 c=64 v=88
400157 Par ch=1 c=64 v=104
400209 Par ch=1 c=64 v=127
401318 On ch=1 n=c#5 v=35
401338 On ch=1 n=f4 v=39
401355 On ch=1 n=a#4 v=45
402432 On ch=1 n=g#5 v=63
402599 Off ch=1 n=c#5 v=64
402642 Off ch=1 n=f4 v=64
402740 Off ch=1 n=a#4 v=64
402758 Off ch=1 n=a#5 v=64
402769 On ch=1 n=g5 v=81
402881 Off ch=1 n=g#5 v=64
404209 On ch=1 n=a#4 v=48
404293 On ch=1 n=c#5 v=15
404419 Off ch=1 n=c#5 v=64
404549 Off ch=1 n=a#4 v=64
405315 Par ch=1 c=64 v=104
405329 Par ch=1 c=64 v=88
405335 Par ch=1 c=64 v=72
405350 Par ch=1 c=64 v=56
405364 Par ch=1 c=64 v=40
405367 On ch=1 n=g#5 v=65
405390 Par ch=1 c=64 v=24
405399 Par ch=1 c=64 v=0
405476 Off ch=1 n=g5 v=64
405790 On ch=1 n=f3 v=54
405799 On ch=1 n=g5 v=80
405839 Par ch=1 c=64 v=24
405868 Par ch=1 c=64 v=40
405897 Par ch=1 c=64 v=56
405926 Par ch=1 c=64 v=72
405929 Off ch=1 n=g#5 v=64
405949 Par ch=1 c=64 v=88
405977 Par ch=1 c=64 v=104
406006 Par ch=1 c=64 v=127
406081 Off ch=1 n=g5 v=64
407032 On ch=1 n=g5 v=40
407032 On ch=1 n=c5 v=67
407052 On ch=1 n=g#4 v=44
407472 On ch=1 n=f5 v=66
407478 Off ch=1 n=g5 v=64
409171 Off ch=1 n=g#4 v=64
409298 Off ch=1 n=c5 v=64
409434 Off ch=1 n=f5 v=64
411006 On ch=1 n=f5 v=32
411015 On ch=1 n=c5 v=49
411032 On ch=1 n=g#4 v=28
411072 Off ch=1 n=f3 v=64
412697 Par ch=1 c=64 v=104
412711 Par ch=1 c=64 v=88
412731 Par ch=1 c=64 v=72
412731 Par ch=1 c=64 v=56
412751 Par ch=1 c=64 v=40
412769 Par ch=1 c=64 v=24
412797 Par ch=1 c=64 v=0
412820 Off ch=1 n=g#4 v=64
412835 On ch=1 n=f3 v=41
412898 Off ch=1 n=c5 v=64
413002 Off ch=1 n=f5 v=64
413229 Par ch=1 c=64 v=24
413273 Par ch=1 c=64 v=40
413316 Par ch=1 c=64 v=56
413353 Par ch=1 c=64 v=72
413396 Par ch=1 c=64 v=88
413440 Par ch=1 c=64 v=104
413517 Par ch=1 c=64 v=127
414384 On ch=1 n=f5 v=25
414445 On ch=1 n=c5 v=40
414491 On ch=1 n=g#4 v=26
415988 Off ch=1 n=g#4 v=64
416049 Off ch=1 n=c5 v=64
416104 Off ch=1 n=f5 v=64
417492 On ch=1 n=g#4 v=33
417549 On ch=1 n=c5 v=39
417558 On ch=1 n=f5 v=26
417820 Off ch=1 n=f3 v=64
417840 Off ch=1 n=g#4 v=64
417947 Off ch=1 n=c5 v=64
418177 Off ch=1 n=f5 v=64
419030 Par ch=1 c=64 v=104
419038 Par ch=1 c=64 v=88
419058 Par ch=1 c=64 v=72
419058 Par ch=1 c=64 v=56
419079 Par ch=1 c=64 v=40
419102 Par ch=1 c=64 v=24
419122 Par ch=1 c=64 v=0
419185 On ch=1 n=f3 v=52
419505 Par ch=1 c=64 v=24
419557 Par ch=1 c=64 v=40
419603 Par ch=1 c=64 v=56
419614 Off ch=1 n=f3 v=64
419649 Par ch=1 c=64 v=72
419692 Par ch=1 c=64 v=88
419735 Par ch=1 c=64 v=104
419793 Par ch=1 c=64 v=127
420124 On ch=1 n=c6 v=45
420951 On ch=1 n=d6 v=49
420974 Off ch=1 n=c6 v=64
420997 On ch=1 n=f5 v=23
421028 On ch=1 n=c5 v=35
421037 On ch=1 n=g#4 v=39
421751 On ch=1 n=e6 v=45
421872 Off ch=1 n=d6 v=64
422431 Off ch=1 n=e6 v=64
422477 Off ch=1 n=f5 v=64
422558 On ch=1 n=f6 v=44
422644 Off ch=1 n=g#4 v=64
422759 Off ch=1 n=c5 v=64
423373 On ch=1 n=g6 v=58
423384 Off ch=1 n=f6 v=64
424456 On ch=1 n=f5 v=14
424476 On ch=1 n=g#4 v=27
424519 On ch=1 n=c5 v=32
424677 On ch=1 n=b6 v=45
424703 Off ch=1 n=g6 v=64
425455 Off ch=1 n=f5 v=64
425625 Off ch=1 n=c5 v=64
425737 On ch=1 n=g6 v=46
425763 Off ch=1 n=g#4 v=64
426057 Off ch=1 n=b6 v=64
426564 Par ch=1 c=64 v=104
426572 Par ch=1 c=64 v=88
426578 Par ch=1 c=64 v=72
426587 Par ch=1 c=64 v=56
426598 Par ch=1 c=64 v=40
426621 Par ch=1 c=64 v=24
426642 Par ch=1 c=64 v=0
426688 On ch=1 n=f6 v=57
426688 On ch=1 n=f3 v=44
426737 Off ch=1 n=g6 v=64
426996 Par ch=1 c=64 v=24
427016 Par ch=1 c=64 v=40
427068 Par ch=1 c=64 v=56
427097 Par ch=1 c=64 v=72
427134 Par ch=1 c=64 v=88
427163 Par ch=1 c=64 v=104
427197 Par ch=1 c=64 v=127
427246 Off ch=1 n=f3 v=64
428110 On ch=1 n=g6 v=39
428116 Off ch=1 n=f6 v=64
428427 On ch=1 n=g#4 v=37
428447 On ch=1 n=f5 v=16
428462 On ch=1 n=c5 v=34
428476 On ch=1 n=f6 v=60
428612 Off ch=1 n=g6 v=64
429758 Off ch=1 n=f5 v=64
429928 Off ch=1 n=g#4 v=64
430049 Off ch=1 n=c5 v=64
431535 On ch=1 n=f5 v=22
431552 On ch=1 n=c5 v=37
431566 On ch=1 n=g#4 v=45
431713 Off ch=1 n=f5 v=64
431733 Off ch=1 n=c5 v=64
431964 Off ch=1 n=g#4 v=64
432888 Off ch=1 n=f6 v=64
432908 On ch=1 n=g6 v=43
432998 Par ch=1 c=64 v=104
432998 Par ch=1 c=64 v=88
432998 Par ch=1 c=64 v=72
433018 Par ch=1 c=64 v=56
433024 Par ch=1 c=64 v=40
433047 Par ch=1 c=64 v=24
433067 Par ch=1 c=64 v=0
433179 On ch=1 n=f3 v=40
433219 On ch=1 n=f6 v=69
433343 Off ch=1 n=g6 v=64
433493 Par ch=1 c=64 v=24
433542 Par ch=1 c=64 v=40
433585 Par ch=1 c=64 v=56
433631 Par ch=1 c=64 v=72
433649 Off ch=1 n=f3 v=64
433675 Par ch=1 c=64 v=88
433709 Par ch=1 c=64 v=104
433761 Par ch=1 c=64 v=127
434824 On ch=1 n=f5 v=21
434847 On ch=1 n=c5 v=27
434870 On ch=1 n=g#4 v=34
435310 Off ch=1 n=f6 v=64
435956 On ch=1 n=f6 v=46
436094 Off ch=1 n=f5 v=64
436269 On ch=1 n=e6 v=74
436287 Off ch=1 n=f6 v=64
436310 Off ch=1 n=g#4 v=64
436364 Off ch=1 n=c5 v=64
437649 On ch=1 n=f5 v=24
437704 On ch=1 n=c5 v=37
437712 On ch=1 n=g#4 v=39
437825 Off ch=1 n=f5 v=64
437900 Off ch=1 n=c5 v=64
438081 Off ch=1 n=g#4 v=64
438974 On ch=1 n=c#6 v=52
439069 Par ch=1 c=64 v=104
439075 Par ch=1 c=64 v=88
439083 Par ch=1 c=64 v=72
439098 Par ch=1 c=64 v=56
439112 Par ch=1 c=64 v=40
439132 Par ch=1 c=64 v=24
439144 Off ch=1 n=e6 v=64
439155 Par ch=1 c=64 v=0
439296 On ch=1 n=c6 v=74
439305 On ch=1 n=f3 v=43
439400 Off ch=1 n=c#6 v=64
439587 Par ch=1 c=64 v=24
439630 Par ch=1 c=64 v=40
439682 Off ch=1 n=f3 v=64
439682 Par ch=1 c=64 v=56
439708 Par ch=1 c=64 v=72
439746 Par ch=1 c=64 v=88
439774 Par ch=1 c=64 v=104
439818 Par ch=1 c=64 v=127
441053 On ch=1 n=c5 v=36
441085 On ch=1 n=g#4 v=31
441102 On ch=1 n=f5 v=14
441474 Off ch=1 n=c6 v=64
442257 On ch=1 n=c6 v=43
442343 Off ch=1 n=f5 v=64
442528 Off ch=1 n=g#4 v=64
442594 On ch=1 n=b5 v=60
442600 Off ch=1 n=c5 v=64
442603 Off ch=1 n=c6 v=64
443999 On ch=1 n=c5 v=31
444034 On ch=1 n=f5 v=14
444083 On ch=1 n=g#4 v=33
444250 Off ch=1 n=f5 v=64
444426 Off ch=1 n=c5 v=64
444495 Off ch=1 n=g#4 v=64
445267 On ch=1 n=g#5 v=48
445287 Par ch=1 c=64 v=104
445295 Par ch=1 c=64 v=88
445301 Par ch=1 c=64 v=72
445313 Par ch=1 c=64 v=56
445327 Par ch=1 c=64 v=40
445344 Par ch=1 c=64 v=24
445365 Par ch=1 c=64 v=0
445534 Off ch=1 n=b5 v=64
445589 On ch=1 n=g5 v=74
445632 On ch=1 n=f3 v=49
445730 Off ch=1 n=g#5 v=64
445768 Par ch=1 c=64 v=24
445797 Par ch=1 c=64 v=40
445831 Par ch=1 c=64 v=56
445854 Par ch=1 c=64 v=72
445874 Par ch=1 c=64 v=88
445897 Par ch=1 c=64 v=104
445900 Off ch=1 n=g5 v=64
445920 Par ch=1 c=64 v=127
446781 On ch=1 n=g5 v=57
447116 Par ch=1 c=64 v=104
447127 Par ch=1 c=64 v=88
447136 Par ch=1 c=64 v=72
447144 Par ch=1 c=64 v=56
447156 Par ch=1 c=64 v=40
447162 Off ch=1 n=g5 v=64
447179 Par ch=1 c=64 v=24
447182 On ch=1 n=c5 v=60
447193 Par ch=1 c=64 v=0
447225 On ch=1 n=f5 v=52
447277 On ch=1 n=g#4 v=63
447908 Par ch=1 c=64 v=24
447954 Par ch=1 c=64 v=40
448011 Par ch=1 c=64 v=56
448083 Par ch=1 c=64 v=72
448149 Par ch=1 c=64 v=88
448224 Par ch=1 c=64 v=104
448270 Par ch=1 c=64 v=127
449085 Off ch=1 n=g#4 v=64
449261 Off ch=1 n=c5 v=64
449379 Off ch=1 n=f5 v=64
450739 Off ch=1 n=f3 v=64
451018 On ch=1 n=f5 v=32
451053 On ch=1 n=c5 v=48
451053 On ch=1 n=g#4 v=31
452832 Par ch=1 c=64 v=104
452832 Par ch=1 c=64 v=88
452835 Par ch=1 c=64 v=72
452850 Par ch=1 c=64 v=56
452864 Par ch=1 c=64 v=40
452887 Par ch=1 c=64 v=24
452890 On ch=1 n=f3 v=43
452907 Par ch=1 c=64 v=0
452922 Off ch=1 n=g#4 v=64
453037 Off ch=1 n=c5 v=64
453129 Off ch=1 n=f5 v=64
453486 Par ch=1 c=64 v=24
453564 Par ch=1 c=64 v=40
453636 Par ch=1 c=64 v=56
453688 Par ch=1 c=64 v=72
453748 Par ch=1 c=64 v=88
453766 Par ch=1 c=64 v=104
453826 Par ch=1 c=64 v=127
454707 On ch=1 n=f5 v=25
454727 On ch=1 n=c5 v=37
454727 On ch=1 n=g#4 v=26
456358 Off ch=1 n=g#4 v=64
456453 Off ch=1 n=c5 v=64
456516 Off ch=1 n=f5 v=64
457674 On ch=1 n=g#4 v=32
457708 On ch=1 n=c5 v=43
457757 On ch=1 n=f5 v=23
457823 Off ch=1 n=f3 v=64
458114 Off ch=1 n=g#4 v=64
458247 Off ch=1 n=c5 v=64
458535 Off ch=1 n=f5 v=64
459171 Par ch=1 c=64 v=104
459180 Par ch=1 c=64 v=88
459186 Par ch=1 c=64 v=72
459200 Par ch=1 c=64 v=56
459215 Par ch=1 c=64 v=40
459229 Par ch=1 c=64 v=24
459249 Par ch=1 c=64 v=0
459330 On ch=1 n=f3 v=44
459695 Par ch=1 c=64 v=24
459739 Par ch=1 c=64 v=40
459793 Par ch=1 c=64 v=56
459819 Par ch=1 c=64 v=72
459862 Par ch=1 c=64 v=88
459897 Par ch=1 c=64 v=104
459949 Par ch=1 c=64 v=127
460006 Off ch=1 n=f3 v=64
460269 On ch=1 n=c6 v=57
461415 On ch=1 n=d6 v=45
461432 Off ch=1 n=c6 v=64
461472 On ch=1 n=g#4 v=32
461490 On ch=1 n=c5 v=32
461550 On ch=1 n=f5 v=5
462204 On ch=1 n=e6 v=48
462325 Off ch=1 n=d6 v=64
462578 Off ch=1 n=f5 v=64
462783 Off ch=1 n=c5 v=64
462800 Off ch=1 n=g#4 v=64
462800 Off ch=1 n=e6 v=64
462938 On ch=1 n=f6 v=48
463702 Off ch=1 n=f6 v=64
463751 On ch=1 n=g6 v=48
464540 On ch=1 n=f5 v=25
464586 On ch=1 n=c5 v=32
464615 On ch=1 n=g#4 v=35
464623 On ch=1 n=b6 v=52
464678 Off ch=1 n=g6 v=64
464862 Off ch=1 n=f5 v=64
464995 Off ch=1 n=c5 v=64
465153 Off ch=1 n=g#4 v=64
465496 On ch=1 n=g6 v=51
465692 Off ch=1 n=b6 v=64
466124 Par ch=1 c=64 v=104
466129 Par ch=1 c=64 v=88
466138 Par ch=1 c=64 v=72
466152 Par ch=1 c=64 v=56
466167 Par ch=1 c=64 v=40
466187 Par ch=1 c=64 v=24
466201 Par ch=1 c=64 v=0
466320 On ch=1 n=f3 v=51
466328 On ch=1 n=f6 v=61
466383 Off ch=1 n=g6 v=64
466605 Par ch=1 c=64 v=24
466648 Par ch=1 c=64 v=40
466691 Par ch=1 c=64 v=56
466737 Par ch=1 c=64 v=72
466754 Off ch=1 n=f3 v=64
466757 Par ch=1 c=64 v=88
466786 Par ch=1 c=64 v=104
466829 Par ch=1 c=64 v=127
467705 Off ch=1 n=f6 v=64
467725 On ch=1 n=g6 v=39
467955 On ch=1 n=c5 v=39
468068 On ch=1 n=f5 v=22
468088 On ch=1 n=f6 v=66
468117 On ch=1 n=g#4 v=30
468200 Off ch=1 n=g6 v=64
469355 Off ch=1 n=f5 v=64
469398 Off ch=1 n=c5 v=64
469439 Off ch=1 n=g#4 v=64
471233 On ch=1 n=f5 v=35
471250 On ch=1 n=g#4 v=37
471279 On ch=1 n=c5 v=35
471521 Off ch=1 n=f5 v=64
471558 Off ch=1 n=c5 v=64
471679 Off ch=1 n=g#4 v=64
472558 Off ch=1 n=f6 v=64
472569 On ch=1 n=g6 v=34
472647 Par ch=1 c=64 v=104
472656 Par ch=1 c=64 v=88
472664 Par ch=1 c=64 v=72
472676 Par ch=1 c=64 v=56
472690 Par ch=1 c=64 v=40
472704 Par ch=1 c=64 v=24
472728 Par ch=1 c=64 v=0
472851 On ch=1 n=f3 v=43
472900 On ch=1 n=f6 v=51
473007 Off ch=1 n=g6 v=64
473160 Par ch=1 c=64 v=24
473197 Par ch=1 c=64 v=40
473211 Off ch=1 n=f3 v=64
473249 Par ch=1 c=64 v=56
473269 Par ch=1 c=64 v=72
473306 Par ch=1 c=64 v=88
473335 Par ch=1 c=64 v=104
473378 Par ch=1 c=64 v=127
474458 On ch=1 n=c5 v=26
474490 On ch=1 n=f5 v=22
474504 On ch=1 n=g#4 v=34
474856 Off ch=1 n=f6 v=64
475616 On ch=1 n=f6 v=37
475812 Off ch=1 n=f5 v=64
475973 Off ch=1 n=f6 v=64
475979 On ch=1 n=e6 v=54
475991 Off ch=1 n=g#4 v=64
476045 Off ch=1 n=c5 v=64
477425 On ch=1 n=f5 v=14
477442 On ch=1 n=g#4 v=37
477514 On ch=1 n=c5 v=27
477569 Off ch=1 n=f5 v=64
477690 Off ch=1 n=c5 v=64
477793 Off ch=1 n=g#4 v=64
478686 On ch=1 n=c#6 v=44
478701 Par ch=1 c=64 v=104
478709 Par ch=1 c=64 v=72
478721 Par ch=1 c=64 v=56
478735 Par ch=1 c=64 v=40
478758 Par ch=1 c=64 v=24
478793 Par ch=1 c=64 v=0
478839 Off ch=1 n=e6 v=64
479040 On ch=1 n=c6 v=65
479069 On ch=1 n=f3 v=37
479156 Off ch=1 n=c#6 v=64
479196 Par ch=1 c=64 v=24
479254 Par ch=1 c=64 v=40
479297 Par ch=1 c=64 v=56
479340 Par ch=1 c=64 v=72
479377 Par ch=1 c=64 v=88
479412 Off ch=1 n=f3 v=64
479412 Par ch=1 c=64 v=104
479455 Par ch=1 c=64 v=127
480714 On ch=1 n=c5 v=26
480740 On ch=1 n=f5 v=16
480763 On ch=1 n=g#4 v=25
481097 Off ch=1 n=c6 v=64
481944 On ch=1 n=c6 v=43
482018 Off ch=1 n=f5 v=64
482203 Off ch=1 n=g#4 v=64
482257 On ch=1 n=b5 v=65
482275 Off ch=1 n=c5 v=64
482275 Off ch=1 n=c6 v=64
483746 On ch=1 n=f5 v=14
483798 On ch=1 n=c5 v=23
483841 On ch=1 n=g#4 v=33
483957 Off ch=1 n=f5 v=64
484127 Off ch=1 n=c5 v=64
484233 Off ch=1 n=g#4 v=64
485089 Par ch=1 c=64 v=104
485112 Par ch=1 c=64 v=88
485112 On ch=1 n=g#5 v=43
485129 Par ch=1 c=64 v=72
485129 Par ch=1 c=64 v=56
485138 Par ch=1 c=64 v=40
485146 Par ch=1 c=64 v=24
485166 Par ch=1 c=64 v=0
485267 Off ch=1 n=b5 v=64
485371 On ch=1 n=g5 v=66
485437 On ch=1 n=f3 v=33
485544 Off ch=1 n=g#5 v=64
485558 Par ch=1 c=64 v=24
485587 Par ch=1 c=64 v=40
485621 Par ch=1 c=64 v=56
485650 Par ch=1 c=64 v=72
485667 Off ch=1 n=g5 v=64
485676 Par ch=1 c=64 v=88
485693 Par ch=1 c=64 v=104
485716 Par ch=1 c=64 v=127
486626 On ch=1 n=g5 v=51
486802 Par ch=1 c=64 v=104
486811 Par ch=1 c=64 v=88
486825 Par ch=1 c=64 v=72
486831 Par ch=1 c=64 v=56
486860 Par ch=1 c=64 v=40
486860 Par ch=1 c=64 v=24
486883 Par ch=1 c=64 v=0
486940 On ch=1 n=c5 v=64
486958 Off ch=1 n=g5 v=64
486995 On ch=1 n=f5 v=22
487056 On ch=1 n=g#4 v=48
487499 Par ch=1 c=64 v=24
487557 Par ch=1 c=64 v=40
487614 Par ch=1 c=64 v=56
487666 Par ch=1 c=64 v=72
487701 Par ch=1 c=64 v=88
487744 Par ch=1 c=64 v=104
487819 Par ch=1 c=64 v=127
488654 Off ch=1 n=g#4 v=64
488795 Off ch=1 n=c5 v=64
488809 Off ch=1 n=f5 v=64
490051 Off ch=1 n=f3 v=64
490575 On ch=1 n=g#4 v=27
490578 On ch=1 n=f5 v=26
490604 On ch=1 n=c5 v=39
492217 Par ch=1 c=64 v=104
492222 Par ch=1 c=64 v=88
492237 Par ch=1 c=64 v=72
492251 Par ch=1 c=64 v=56
492274 Par ch=1 c=64 v=40
492294 On ch=1 n=f3 v=34
492297 Off ch=1 n=g#4 v=64
492303 Par ch=1 c=64 v=24
492332 Par ch=1 c=64 v=0
492381 Off ch=1 n=c5 v=64
492536 Off ch=1 n=f5 v=64
492844 Par ch=1 c=64 v=24
492896 Par ch=1 c=64 v=40
492945 Par ch=1 c=64 v=56
492994 Par ch=1 c=64 v=72
493052 Par ch=1 c=64 v=88
493109 Par ch=1 c=64 v=104
493196 Par ch=1 c=64 v=127
493896 On ch=1 n=f5 v=23
493910 On ch=1 n=g#4 v=29
493924 On ch=1 n=c5 v=39
495514 Off ch=1 n=g#4 v=64
495644 Off ch=1 n=c5 v=64
495860 Off ch=1 n=f5 v=64
496994 On ch=1 n=g#4 v=43
497018 On ch=1 n=f5 v=39
497095 On ch=1 n=c5 v=37
497110 Off ch=1 n=f3 v=64
497173 Off ch=1 n=g#4 v=64
497225 Off ch=1 n=c5 v=64
497521 Off ch=1 n=f5 v=64
498100 On ch=1 n=g#5 v=69
498299 Par ch=1 c=64 v=104
498305 Par ch=1 c=64 v=88
498314 Par ch=1 c=64 v=72
498328 Par ch=1 c=64 v=56
498342 Par ch=1 c=64 v=40
498362 Par ch=1 c=64 v=24
498386 Par ch=1 c=64 v=0
498504 Off ch=1 n=g#5 v=64
498512 On ch=1 n=a#5 v=79
498541 On ch=1 n=a#2 v=65
498751 Off ch=1 n=a#2 v=64
498818 Par ch=1 c=64 v=24
498852 Par ch=1 c=64 v=40
498890 Par ch=1 c=64 v=56
498924 Par ch=1 c=64 v=72
498953 Par ch=1 c=64 v=88
498990 Par ch=1 c=64 v=104
499034 Par ch=1 c=64 v=127
500145 On ch=1 n=c#5 v=31
500171 On ch=1 n=f4 v=39
500186 On ch=1 n=a#4 v=43
501320 On ch=1 n=g#5 v=58
501602 Off ch=1 n=c#5 v=64
501623 Off ch=1 n=f4 v=64
501634 Off ch=1 n=a#5 v=64
501683 On ch=1 n=g5 v=81
501752 Off ch=1 n=g#5 v=64
501767 Off ch=1 n=a#4 v=64
503143 On ch=1 n=c#5 v=41
503155 On ch=1 n=a#4 v=52
503172 On ch=1 n=f4 v=45
503273 Off ch=1 n=c#5 v=64
503449 Off ch=1 n=f4 v=64
503477 Off ch=1 n=a#4 v=64
504310 On ch=1 n=g#5 v=74
504494 Par ch=1 c=64 v=104
504508 Par ch=1 c=64 v=88
504514 Par ch=1 c=64 v=72
504523 Par ch=1 c=64 v=56
504543 Par ch=1 c=64 v=40
504546 Off ch=1 n=g5 v=64
504557 Par ch=1 c=64 v=24
504592 Par ch=1 c=64 v=0
504733 On ch=1 n=a#5 v=79
504739 On ch=1 n=a#2 v=49
504794 Off ch=1 n=g#5 v=64
505007 Off ch=1 n=a#2 v=64
505084 Par ch=1 c=64 v=24
505113 Par ch=1 c=64 v=40
505171 Par ch=1 c=64 v=56
505214 Par ch=1 c=64 v=72
505257 Par ch=1 c=64 v=88
505292 Par ch=1 c=64 v=104
505344 Par ch=1 c=64 v=127
506484 On ch=1 n=c#5 v=19
506524 On ch=1 n=f4 v=25
506530 On ch=1 n=a#4 v=33
507682 On ch=1 n=g#5 v=49
507743 Off ch=1 n=c#5 v=64
507786 Off ch=1 n=f4 v=64
507947 Off ch=1 n=a#4 v=64
508060 Off ch=1 n=a#5 v=64
508108 On ch=1 n=g5 v=67
508247 Off ch=1 n=g#5 v=64
509523 On ch=1 n=a#4 v=36
509577 On ch=1 n=c#5 v=21
509652 On ch=1 n=f4 v=19
509762 Off ch=1 n=c#5 v=64
509845 Off ch=1 n=f4 v=64
509937 Off ch=1 n=a#4 v=64
510856 On ch=1 n=g#5 v=61
510954 Off ch=1 n=g5 v=64
510963 Par ch=1 c=64 v=104
510968 Par ch=1 c=64 v=88
510977 Par ch=1 c=64 v=72
510991 Par ch=1 c=64 v=56
511000 Par ch=1 c=64 v=40
511020 Par ch=1 c=64 v=24
511035 Par ch=1 c=64 v=0
511193 On ch=1 n=g5 v=74
511204 On ch=1 n=f3 v=66
511331 Off ch=1 n=g#5 v=64
511467 Par ch=1 c=64 v=24
511495 Par ch=1 c=64 v=40
511513 Off ch=1 n=g5 v=64
511533 Par ch=1 c=64 v=56
511562 Par ch=1 c=64 v=72
511590 Par ch=1 c=64 v=88
511619 Par ch=1 c=64 v=104
511662 Par ch=1 c=64 v=127
512365 On ch=1 n=g5 v=58
512647 Par ch=1 c=64 v=104
512656 Par ch=1 c=64 v=88
512685 Par ch=1 c=64 v=72
512685 Par ch=1 c=64 v=56
512702 Par ch=1 c=64 v=40
512711 Par ch=1 c=64 v=24
512734 Par ch=1 c=64 v=0
512777 Off ch=1 n=g5 v=64
512788 On ch=1 n=c5 v=60
512878 On ch=1 n=f5 v=48
512881 On ch=1 n=g#4 v=52
513566 Par ch=1 c=64 v=24
513644 Par ch=1 c=64 v=40
513724 Par ch=1 c=64 v=56
513802 Par ch=1 c=64 v=72
513877 Par ch=1 c=64 v=88
513961 Par ch=1 c=64 v=104
514079 Par ch=1 c=64 v=127
514658 Off ch=1 n=g#4 v=64
514827 Off ch=1 n=c5 v=64
514888 Off ch=1 n=f5 v=64
516158 Off ch=1 n=f3 v=64
516363 On ch=1 n=g#4 v=32
516368 On ch=1 n=f5 v=32
516412 On ch=1 n=c5 v=51
517932 Par ch=1 c=64 v=104
517938 Par ch=1 c=64 v=88
517947 Par ch=1 c=64 v=72
517961 Par ch=1 c=64 v=56
517975 Par ch=1 c=64 v=40
517996 Par ch=1 c=64 v=24
518019 Par ch=1 c=64 v=0
518044 On ch=1 n=f3 v=36
518096 Off ch=1 n=g#4 v=64
518212 Off ch=1 n=c5 v=64
518292 Off ch=1 n=f5 v=64
518733 Par ch=1 c=64 v=24
518782 Par ch=1 c=64 v=40
518825 Par ch=1 c=64 v=56
518877 Par ch=1 c=64 v=72
518906 Par ch=1 c=64 v=88
518934 Par ch=1 c=64 v=104
518992 Par ch=1 c=64 v=127
519608 On ch=1 n=f5 v=22
519646 On ch=1 n=c5 v=41
519663 On ch=1 n=g#4 v=27
521192 Off ch=1 n=g#4 v=64
521279 Off ch=1 n=c5 v=64
521437 Off ch=1 n=f5 v=64
522534 On ch=1 n=g#4 v=32
522563 Off ch=1 n=f3 v=64
522566 On ch=1 n=f5 v=26
522606 On ch=1 n=c5 v=41
522753 Off ch=1 n=g#4 v=64
522917 Off ch=1 n=c5 v=64
523131 Off ch=1 n=f5 v=64
523828 On ch=1 n=g#5 v=45
524015 Par ch=1 c=64 v=104
524029 Par ch=1 c=64 v=88
524035 Par ch=1 c=64 v=72
524049 Par ch=1 c=64 v=56
524058 Par ch=1 c=64 v=40
524078 Par ch=1 c=64 v=24
524093 Par ch=1 c=64 v=0
524216 On ch=1 n=a#5 v=60
524248 On ch=1 n=a#2 v=48
524265 Off ch=1 n=g#5 v=64
524510 Par ch=1 c=64 v=24
524539 Par ch=1 c=64 v=40
524579 Par ch=1 c=64 v=56
524597 Par ch=1 c=64 v=72
524599 Off ch=1 n=a#2 v=64
524625 Par ch=1 c=64 v=88
524645 Par ch=1 c=64 v=104
524677 Par ch=1 c=64 v=127
525933 On ch=1 n=c#5 v=23
525942 On ch=1 n=f4 v=32
526016 On ch=1 n=a#4 v=34
527151 On ch=1 n=g#5 v=33
527327 Off ch=1 n=a#5 v=64
527379 Off ch=1 n=f4 v=64
527387 Off ch=1 n=c#5 v=64
527485 Off ch=1 n=a#4 v=64
527505 On ch=1 n=g5 v=48
527549 Off ch=1 n=g#5 v=64
529012 On ch=1 n=a#4 v=43
529055 On ch=1 n=c#5 v=14
529063 On ch=1 n=f4 v=32
529121 Off ch=1 n=a#4 v=64
529176 Off ch=1 n=c#5 v=64
529222 Off ch=1 n=f4 v=64
530195 On ch=1 n=g#5 v=49
530351 Off ch=1 n=g5 v=64
530388 Par ch=1 c=64 v=104
530397 Par ch=1 c=64 v=88
530403 Par ch=1 c=64 v=72
530411 Par ch=1 c=64 v=56
530426 Par ch=1 c=64 v=40
530440 Par ch=1 c=64 v=24
530454 Par ch=1 c=64 v=0
530616 On ch=1 n=a#5 v=55
530622 On ch=1 n=a#2 v=45
530639 Off ch=1 n=g#5 v=64
530889 Par ch=1 c=64 v=24
530921 Par ch=1 c=64 v=40
530950 Par ch=1 c=64 v=56
530953 Off ch=1 n=a#2 v=64
530973 Par ch=1 c=64 v=72
530996 Par ch=1 c=64 v=88
531010 Par ch=1 c=64 v=104
531045 Par ch=1 c=64 v=127
532349 On ch=1 n=c#5 v=15
532430 On ch=1 n=a#4 v=24
532450 On ch=1 n=f4 v=32
533605 On ch=1 n=g#5 v=40
533738 Off ch=1 n=c#5 v=64
533761 Off ch=1 n=f4 v=64
533864 Off ch=1 n=a#4 v=64
533983 Off ch=1 n=a#5 v=64
534083 On ch=1 n=g5 v=49
534126 Off ch=1 n=g#5 v=64
535656 On ch=1 n=a#4 v=37
535687 On ch=1 n=c#5 v=23
535716 On ch=1 n=f4 v=33
535860 Off ch=1 n=c#5 v=64
535875 Off ch=1 n=f4 v=64
536056 Off ch=1 n=a#4 v=64
536940 Off ch=1 n=g5 v=64
536940 On ch=1 n=g#5 v=46
537038 Par ch=1 c=64 v=104
537044 Par ch=1 c=64 v=88
537053 Par ch=1 c=64 v=72
537076 Par ch=1 c=64 v=56
537076 Par ch=1 c=64 v=40
537096 Par ch=1 c=64 v=24
537110 Par ch=1 c=64 v=0
537424 On ch=1 n=g5 v=60
537473 On ch=1 n=f3 v=40
537525 Off ch=1 n=g#5 v=64
537551 Par ch=1 c=64 v=24
537571 Par ch=1 c=64 v=40
537591 Par ch=1 c=64 v=56
537614 Par ch=1 c=64 v=72
537629 Par ch=1 c=64 v=88
537643 Par ch=1 c=64 v=104
537657 Par ch=1 c=64 v=127
537775 Off ch=1 n=g5 v=64
538631 Par ch=1 c=64 v=104
538637 Par ch=1 c=64 v=88
538645 Par ch=1 c=64 v=72
538668 Par ch=1 c=64 v=56
538668 Par ch=1 c=64 v=40
538685 Par ch=1 c=64 v=24
538694 Par ch=1 c=64 v=0
538732 On ch=1 n=g5 v=51
539247 Par ch=1 c=64 v=24
539282 Par ch=1 c=64 v=40
539302 Par ch=1 c=64 v=56
539310 Par ch=1 c=64 v=72
539334 Par ch=1 c=64 v=88
539354 Par ch=1 c=64 v=104
539377 Par ch=1 c=64 v=127
539426 Off ch=1 n=g5 v=64
539454 On ch=1 n=f5 v=33
539503 On ch=1 n=c5 v=51
539570 On ch=1 n=g#4 v=45
542458 Off ch=1 n=g#4 v=64
542582 Off ch=1 n=c5 v=64
542792 Off ch=1 n=f5 v=64
543135 Off ch=1 n=f3 v=64
552478 Par ch=1 c=64 v=104
552737 Par ch=1 c=64 v=88
552939 Par ch=1 c=64 v=72
553077 Par ch=1 c=64 v=56
553238 Par ch=1 c=64 v=40
553400 Par ch=1 c=64 v=24
553529 Par ch=1 c=64 v=0
553529 Meta TrkEnd
TrkEnd
MTrk
0 Meta TrkName "Erik Satie"
0 Meta 0x21 00
0 Meta TrkEnd
TrkEnd
MTrk
0 Meta TrkName "Real Time Sequence"
0 Meta 0x21 00
0 Meta TrkEnd
TrkEnd
MTrk
0 Meta TrkName "played on Clavinova"
0 Meta 0x21 00
0 Meta TrkEnd
TrkEnd
MTrk
0 Meta TrkName "Copyright 1999 by"
0 Meta 0x21 00
0 Meta TrkEnd
TrkEnd
MTrk
0 Meta TrkName "Enzo Falzone"
0 Meta 0x21 00
0 Meta TrkEnd
TrkEnd
