MFile 0 1 384
MTrk
0 Meta SeqName "RLucardie"
0 TimeSig 12/8 24 8
0 Tempo 1111110
0 SysEx f0 7e 7f 09 01 f7
392 PrCh ch=1 p=0
396 Par ch=1 c=7 v=110
396 Par ch=1 c=10 v=84
396 Par ch=1 c=11 v=127
400 Par ch=1 c=91 v=64
400 Par ch=1 c=93 v=0
412 PrCh ch=2 p=0
416 Par ch=2 c=10 v=64
416 Par ch=2 c=7 v=110
416 Par ch=2 c=11 v=127
420 Par ch=2 c=93 v=0
420 Par ch=2 c=91 v=64
2304 On ch=2 n=d3 v=37
2496 Tempo 1111110
2503 Off ch=2 n=d3 v=0
2503 On ch=2 n=a3 v=31
2695 Off ch=2 n=a3 v=0
2695 On ch=2 n=d4 v=31
2880 On ch=2 n=f4 v=39
2887 Off ch=2 n=d4 v=0
3072 Tempo 1034480
3079 Off ch=2 n=f4 v=0
3079 On ch=2 n=a4 v=43
3271 Off ch=2 n=a4 v=0
3271 On ch=2 n=d5 v=42
3463 Off ch=2 n=d5 v=0
3463 On ch=2 n=f5 v=39
3653 On ch=2 n=d5 v=33
3655 Off ch=2 n=f5 v=0
3840 Tempo 1016940
3845 Off ch=2 n=d5 v=0
3845 On ch=2 n=a4 v=28
4037 Off ch=2 n=a4 v=0
4037 On ch=2 n=f4 v=25
4229 Off ch=2 n=f4 v=0
4229 On ch=2 n=d4 v=30
4416 On ch=2 n=a3 v=36
4421 Off ch=2 n=d4 v=0
4608 Off ch=2 n=a3 v=0
4608 On ch=2 n=d3 v=34
4800 Tempo 1034480
4807 Off ch=2 n=d3 v=0
4807 On ch=2 n=a3 v=27
4999 Off ch=2 n=a3 v=0
4999 On ch=2 n=d4 v=27
5191 Off ch=2 n=d4 v=0
5191 On ch=2 n=f4 v=34
5376 Tempo 1100910
5383 Off ch=2 n=f4 v=0
5383 On ch=2 n=a4 v=34
5575 Off ch=2 n=a4 v=0
5575 On ch=2 n=d5 v=26
5760 On ch=2 n=f5 v=31
5767 Off ch=2 n=d5 v=0
5957 Off ch=2 n=f5 v=0
5957 On ch=2 n=d5 v=33
6144 Tempo 1016940
6149 Off ch=2 n=d5 v=0
6149 On ch=2 n=a4 v=39
6341 Off ch=2 n=a4 v=0
6341 On ch=2 n=f4 v=36
6533 Off ch=2 n=f4 v=0
6533 On ch=2 n=d4 v=24
6720 On ch=2 n=a3 v=27
6725 Off ch=2 n=d4 v=0
6912 Off ch=2 n=a3 v=0
6912 On ch=2 n=d3 v=37
7104 Tempo 1034480
7111 Off ch=2 n=d3 v=0
7111 On ch=2 n=a3 v=40
7296 On ch=1 n=a6 v=69
7303 Off ch=2 n=a3 v=0
7303 On ch=2 n=d4 v=46
7486 Off ch=1 n=a6 v=0
7488 On ch=1 n=a6 v=76
7495 Off ch=2 n=d4 v=0
7495 On ch=2 n=f4 v=48
7678 Off ch=1 n=a6 v=0
7680 Tempo 1090900
7680 On ch=1 n=a6 v=85
7687 Off ch=2 n=f4 v=0
7687 On ch=2 n=a4 v=44
7870 Off ch=1 n=a6 v=0
7872 On ch=1 n=a6 v=82
7879 Off ch=2 n=a4 v=0
7879 On ch=2 n=d5 v=46
8062 Off ch=1 n=a6 v=0
8064 On ch=2 n=f5 v=53
8064 On ch=1 n=c7 v=75
8071 Off ch=2 n=d5 v=0
8254 Off ch=1 n=c7 v=0
8256 Off ch=2 n=f5 v=0
8256 On ch=1 n=b6 v=72
8261 On ch=2 n=d5 v=46
8446 Off ch=1 n=b6 v=0
8448 Tempo 1016940
8448 On ch=1 n=a6 v=75
8453 Off ch=2 n=d5 v=0
8453 On ch=2 n=a4 v=47
8640 Off ch=1 n=a6 v=0
8640 On ch=1 n=g#6 v=73
8645 Off ch=2 n=a4 v=0
8645 On ch=2 n=f4 v=38
8832 Off ch=1 n=g#6 v=0
8832 On ch=1 n=f6 v=76
8837 Off ch=2 n=f4 v=0
8837 On ch=2 n=d4 v=31
9024 Off ch=1 n=f6 v=0
9024 On ch=2 n=a3 v=46
9024 On ch=1 n=e6 v=60
9029 Off ch=2 n=d4 v=0
9216 Off ch=1 n=e6 v=0
9216 Off ch=2 n=a3 v=0
9216 On ch=2 n=c3 v=56
9216 On ch=1 n=d#6 v=70
9406 Off ch=1 n=d#6 v=0
9408 Off ch=2 n=c3 v=0
9408 Tempo 1034480
9408 On ch=1 n=b5 v=69
9415 On ch=2 n=g3 v=36
9454 Off ch=1 n=b5 v=0
9456 On ch=1 n=d6 v=59
9598 Off ch=1 n=d6 v=0
9605 Off ch=2 n=g3 v=0
9607 On ch=2 n=c4 v=37
9799 Off ch=2 n=c4 v=0
9799 On ch=2 n=d#4 v=39
9984 Tempo 1090900
9991 Off ch=2 n=d#4 v=0
9991 On ch=2 n=g4 v=43
10183 Off ch=2 n=g4 v=0
10183 On ch=2 n=c5 v=39
10368 On ch=2 n=d#5 v=34
10375 Off ch=2 n=c5 v=0
10565 Off ch=2 n=d#5 v=0
10565 On ch=2 n=c5 v=30
10752 Tempo 1016940
10757 Off ch=2 n=c5 v=0
10757 On ch=2 n=g4 v=30
10949 Off ch=2 n=g4 v=0
10949 On ch=2 n=d#4 v=34
11141 Off ch=2 n=d#4 v=0
11141 On ch=2 n=c4 v=34
11328 On ch=2 n=g3 v=31
11333 Off ch=2 n=c4 v=0
11520 Off ch=2 n=g3 v=0
11520 On ch=2 n=c3 v=34
11712 Tempo 1034480
11719 Off ch=2 n=c3 v=0
11719 On ch=2 n=g3 v=42
11911 Off ch=2 n=g3 v=0
11911 On ch=2 n=c4 v=36
12103 Off ch=2 n=c4 v=0
12103 On ch=2 n=d#4 v=33
12288 Tempo 1081080
12295 Off ch=2 n=d#4 v=0
12295 On ch=2 n=g4 v=40
12487 Off ch=2 n=g4 v=0
12487 On ch=2 n=c5 v=45
12672 On ch=2 n=d#5 v=41
12679 Off ch=2 n=c5 v=0
12869 Off ch=2 n=d#5 v=0
12869 On ch=2 n=c5 v=44
13056 Tempo 1008400
13061 Off ch=2 n=c5 v=0
13061 On ch=2 n=g4 v=41
13253 Off ch=2 n=g4 v=0
13253 On ch=2 n=d#4 v=37
13445 Off ch=2 n=d#4 v=0
13445 On ch=2 n=c4 v=32
13632 On ch=2 n=g3 v=31
13637 Off ch=2 n=c4 v=0
13824 Off ch=2 n=g3 v=0
13824 On ch=2 n=d3 v=32
14016 Tempo 1034480
14023 Off ch=2 n=d3 v=0
14023 On ch=2 n=a3 v=38
14208 On ch=1 n=a6 v=69
14215 Off ch=2 n=a3 v=0
14215 On ch=2 n=d4 v=43
14398 Off ch=1 n=a6 v=0
14400 On ch=1 n=a6 v=70
14407 Off ch=2 n=d4 v=0
14407 On ch=2 n=f4 v=47
14590 Off ch=1 n=a6 v=0
14592 Tempo 1090900
14592 On ch=1 n=a6 v=72
14599 Off ch=2 n=f4 v=0
14599 On ch=2 n=a4 v=49
14782 Off ch=1 n=a6 v=0
14784 On ch=1 n=a6 v=73
14791 Off ch=2 n=a4 v=0
14791 On ch=2 n=d5 v=49
14974 Off ch=1 n=a6 v=0
14976 On ch=2 n=f5 v=47
14976 On ch=1 n=c7 v=76
14983 Off ch=2 n=d5 v=0
15166 Off ch=1 n=c7 v=0
15168 Off ch=2 n=f5 v=0
15168 On ch=1 n=b6 v=78
15173 On ch=2 n=d5 v=41
15360 Off ch=1 n=b6 v=0
15360 Tempo 1016940
15360 On ch=1 n=a6 v=84
15365 Off ch=2 n=d5 v=0
15365 On ch=2 n=a4 v=37
15552 Off ch=1 n=a6 v=0
15552 On ch=1 n=g#6 v=85
15557 Off ch=2 n=a4 v=0
15557 On ch=2 n=f4 v=32
15744 Off ch=1 n=g#6 v=0
15744 On ch=1 n=f6 v=90
15749 Off ch=2 n=f4 v=0
15749 On ch=2 n=d4 v=31
15936 Off ch=1 n=f6 v=0
15936 On ch=2 n=a3 v=31
15936 On ch=1 n=e6 v=90
15941 Off ch=2 n=d4 v=0
16126 Off ch=1 n=e6 v=0
16128 Off ch=2 n=a3 v=0
16128 On ch=2 n=c3 v=37
16128 On ch=1 n=d#6 v=84
16318 Off ch=1 n=d#6 v=0
16320 Off ch=2 n=c3 v=0
16320 Tempo 1034480
16320 On ch=1 n=b5 v=76
16327 On ch=2 n=g3 v=40
16366 Off ch=1 n=b5 v=0
16368 On ch=1 n=c6 v=76
16510 Off ch=1 n=c6 v=0
16517 Off ch=2 n=g3 v=0
16519 On ch=2 n=c4 v=41
16711 Off ch=2 n=c4 v=0
16711 On ch=2 n=d#4 v=38
16896 Tempo 1081080
16903 Off ch=2 n=d#4 v=0
16903 On ch=2 n=g4 v=41
17095 Off ch=2 n=g4 v=0
17095 On ch=2 n=c5 v=45
17280 On ch=2 n=d#5 v=42
17287 Off ch=2 n=c5 v=0
17477 Off ch=2 n=d#5 v=0
17477 On ch=2 n=c5 v=41
17664 Tempo 1008400
17669 Off ch=2 n=c5 v=0
17669 On ch=2 n=g4 v=36
17861 Off ch=2 n=g4 v=0
17861 On ch=2 n=d#4 v=34
18053 Off ch=2 n=d#4 v=0
18053 On ch=2 n=c4 v=33
18240 On ch=2 n=g3 v=39
18245 Off ch=2 n=c4 v=0
18432 Off ch=2 n=g3 v=0
18432 On ch=2 n=c3 v=40
18624 Tempo 1034480
18631 Off ch=2 n=c3 v=0
18631 On ch=2 n=g3 v=45
18816 On ch=1 n=g5 v=79
18823 Off ch=2 n=g3 v=0
18823 On ch=2 n=c4 v=55
18880 Off ch=1 n=g5 v=0
18912 On ch=1 n=a5 v=79
19008 Off ch=1 n=a5 v=0
19008 On ch=1 n=a#5 v=78
19013 Off ch=2 n=c4 v=0
19015 On ch=2 n=d#4 v=58
19102 Off ch=1 n=a#5 v=0
19104 On ch=1 n=a5 v=78
19200 Off ch=1 n=a5 v=0
19200 Tempo 1081080
19200 On ch=1 n=g5 v=77
19205 Off ch=2 n=d#4 v=0
19207 On ch=2 n=g4 v=54
19294 Off ch=1 n=g5 v=0
19296 On ch=1 n=a5 v=77
19392 Off ch=1 n=a5 v=0
19392 On ch=1 n=a#5 v=76
19397 Off ch=2 n=g4 v=0
19399 On ch=2 n=c5 v=48
19486 Off ch=1 n=a#5 v=0
19488 On ch=1 n=a5 v=75
19584 Off ch=1 n=a5 v=0
19584 On ch=2 n=d#5 v=46
19584 On ch=1 n=g5 v=75
19589 Off ch=2 n=c5 v=0
19678 Off ch=1 n=g5 v=0
19680 On ch=1 n=a5 v=74
19774 Off ch=2 n=d#5 v=0
19776 Off ch=1 n=a5 v=0
19776 On ch=1 n=a#5 v=74
19781 On ch=2 n=c5 v=45
19870 Off ch=1 n=a#5 v=0
19872 On ch=1 n=a5 v=73
19968 Off ch=1 n=a5 v=0
19968 Tempo 1008400
19968 On ch=1 n=g5 v=73
19971 Off ch=2 n=c5 v=0
19973 On ch=2 n=g4 v=43
20062 Off ch=1 n=g5 v=0
20064 On ch=1 n=a5 v=72
20160 Off ch=1 n=a5 v=0
20160 On ch=1 n=a#5 v=72
20163 Off ch=2 n=g4 v=0
20165 On ch=2 n=d#4 v=43
20254 Off ch=1 n=a#5 v=0
20256 On ch=1 n=a5 v=71
20352 Off ch=1 n=a5 v=0
20352 On ch=1 n=g5 v=71
20355 Off ch=2 n=d#4 v=0
20357 On ch=2 n=c4 v=46
20446 Off ch=1 n=g5 v=0
20448 On ch=1 n=f#5 v=70
20544 Off ch=1 n=f#5 v=0
20544 On ch=2 n=g3 v=52
20544 On ch=1 n=d#5 v=73
20547 Off ch=2 n=c4 v=0
20638 Off ch=1 n=d#5 v=0
20640 On ch=1 n=f#5 v=72
20734 Off ch=1 n=f#5 v=0
20734 Off ch=2 n=g3 v=0
20736 On ch=1 n=d5 v=72
20743 On ch=2 n=b2 v=58
20928 Tempo 1025640
20933 Off ch=2 n=b2 v=0
20935 On ch=2 n=f#3 v=53
21118 Off ch=1 n=d5 v=0
21120 On ch=1 n=f#5 v=60
21127 Off ch=2 n=f#3 v=0
21127 On ch=2 n=b3 v=50
21166 Off ch=1 n=f#5 v=0
21168 On ch=1 n=g5 v=70
21317 Off ch=2 n=b3 v=0
21319 On ch=2 n=d4 v=42
21504 Tempo 1081080
21509 Off ch=2 n=d4 v=0
21511 On ch=2 n=f#4 v=37
21696 On ch=2 n=b4 v=36
21701 Off ch=2 n=f#4 v=0
21718 Off ch=1 n=g5 v=0
21888 Off ch=2 n=b4 v=0
21888 On ch=2 n=d5 v=37
22085 Off ch=2 n=d5 v=0
22085 On ch=2 n=b4 v=42
22272 Tempo 1008400
22277 Off ch=2 n=b4 v=0
22277 On ch=2 n=f#4 v=43
22469 Off ch=2 n=f#4 v=0
22469 On ch=2 n=d4 v=39
22661 Off ch=2 n=d4 v=0
22661 On ch=2 n=b3 v=34
22848 On ch=2 n=f#3 v=37
22853 Off ch=2 n=b3 v=0
23047 Off ch=2 n=f#3 v=0
23047 On ch=2 n=c3 v=40
23232 Tempo 1034480
23239 Off ch=2 n=c3 v=0
23239 On ch=2 n=g3 v=42
23424 On ch=1 n=g5 v=85
23431 Off ch=2 n=g3 v=0
23431 On ch=2 n=c4 v=49
23518 Off ch=1 n=g5 v=0
23520 On ch=1 n=a5 v=82
23616 Off ch=1 n=a5 v=0
23616 On ch=1 n=a#5 v=81
23621 Off ch=2 n=c4 v=0
23623 On ch=2 n=d#4 v=49
23710 Off ch=1 n=a#5 v=0
23712 On ch=1 n=a5 v=80
23808 Off ch=1 n=a5 v=0
23808 Tempo 1081080
23808 On ch=1 n=g5 v=78
23813 Off ch=2 n=d#4 v=0
23815 On ch=2 n=g4 v=47
23902 Off ch=1 n=g5 v=0
23904 On ch=1 n=a5 v=77
24000 Off ch=1 n=a5 v=0
24000 On ch=2 n=c5 v=47
24000 On ch=1 n=a#5 v=76
24005 Off ch=2 n=g4 v=0
24094 Off ch=1 n=a#5 v=0
24096 On ch=1 n=a5 v=75
24190 Off ch=2 n=c5 v=0
24192 Off ch=1 n=a5 v=0
24192 On ch=2 n=d#5 v=47
24192 On ch=1 n=g5 v=74
24286 Off ch=1 n=g5 v=0
24288 On ch=1 n=a5 v=73
24382 Off ch=2 n=d#5 v=0
24384 Off ch=1 n=a5 v=0
24384 On ch=1 n=a#5 v=72
24389 On ch=2 n=c5 v=47
24478 Off ch=1 n=a#5 v=0
24480 On ch=1 n=a5 v=71
24576 Off ch=1 n=a5 v=0
24576 Tempo 1008400
24576 On ch=1 n=g5 v=70
24579 Off ch=2 n=c5 v=0
24581 On ch=2 n=g4 v=47
24670 Off ch=1 n=g5 v=0
24672 On ch=1 n=a5 v=68
24768 Off ch=1 n=a5 v=0
24768 On ch=1 n=a#5 v=67
24771 Off ch=2 n=g4 v=0
24773 On ch=2 n=d#4 v=47
24862 Off ch=1 n=a#5 v=0
24864 On ch=1 n=a5 v=66
24960 Off ch=1 n=a5 v=0
24960 On ch=1 n=g5 v=65
24963 Off ch=2 n=d#4 v=0
24965 On ch=2 n=c4 v=49
25054 Off ch=1 n=g5 v=0
25056 On ch=1 n=f#5 v=64
25152 Off ch=1 n=f#5 v=0
25152 On ch=2 n=g3 v=38
25152 On ch=1 n=d#5 v=63
25155 Off ch=2 n=c4 v=0
25246 Off ch=1 n=d#5 v=0
25248 On ch=1 n=f#5 v=62
25342 Off ch=1 n=f#5 v=0
25342 Off ch=2 n=g3 v=0
25344 On ch=1 n=d5 v=61
25351 On ch=2 n=b2 v=39
25536 Tempo 1034480
25541 Off ch=2 n=b2 v=0
25543 On ch=2 n=f#3 v=39
25726 Off ch=1 n=d5 v=0
25728 On ch=1 n=f#5 v=49
25735 Off ch=2 n=f#3 v=0
25735 On ch=2 n=b3 v=43
25774 Off ch=1 n=f#5 v=0
25776 On ch=1 n=g#5 v=56
25925 Off ch=2 n=b3 v=0
25927 On ch=2 n=d4 v=49
26112 Tempo 1090900
26117 Off ch=2 n=d4 v=0
26119 On ch=2 n=f#4 v=46
26292 Off ch=1 n=g#5 v=0
26304 On ch=2 n=b4 v=50
26311 Off ch=2 n=f#4 v=0
26496 Off ch=2 n=b4 v=0
26496 On ch=2 n=d5 v=49
26693 Off ch=2 n=d5 v=0
26693 On ch=2 n=b4 v=42
26880 Tempo 1008400
26885 Off ch=2 n=b4 v=0
26885 On ch=2 n=f#4 v=38
27077 Off ch=2 n=f#4 v=0
27077 On ch=2 n=d4 v=38
27269 Off ch=2 n=d4 v=0
27269 On ch=2 n=b3 v=35
27456 On ch=2 n=f#3 v=35
27461 Off ch=2 n=b3 v=0
27648 Off ch=2 n=f#3 v=0
27648 On ch=1 n=a5 v=64
27655 On ch=2 n=d3 v=49
27694 Off ch=1 n=a5 v=0
27696 On ch=1 n=f5 v=71
27840 Tempo 1034480
27845 Off ch=2 n=d3 v=0
27847 On ch=2 n=a3 v=49
28037 Off ch=2 n=a3 v=0
28039 On ch=2 n=d4 v=51
28212 Off ch=1 n=f5 v=0
28231 Off ch=2 n=d4 v=0
28231 On ch=2 n=f4 v=51
28416 Tempo 1090900
28423 Off ch=2 n=f4 v=0
28423 On ch=2 n=a4 v=51
28608 On ch=2 n=d5 v=51
28615 Off ch=2 n=a4 v=0
28800 Off ch=2 n=d5 v=0
28800 On ch=2 n=f5 v=49
28997 Off ch=2 n=f5 v=0
28997 On ch=2 n=d5 v=48
29184 Tempo 1016940
29189 Off ch=2 n=d5 v=0
29189 On ch=2 n=a4 v=41
29381 Off ch=2 n=a4 v=0
29381 On ch=2 n=f4 v=40
29573 Off ch=2 n=f4 v=0
29573 On ch=2 n=d4 v=40
29760 On ch=2 n=a3 v=40
29765 Off ch=2 n=d4 v=0
29959 Off ch=2 n=a3 v=0
29959 On ch=2 n=d3 v=43
30144 Tempo 1034480
30151 Off ch=2 n=d3 v=0
30151 On ch=2 n=a3 v=44
30343 Off ch=2 n=a3 v=0
30343 On ch=2 n=d4 v=44
30535 Off ch=2 n=d4 v=0
30535 On ch=2 n=f4 v=40
30720 Tempo 1090900
30727 Off ch=2 n=f4 v=0
30727 On ch=2 n=a4 v=37
30912 On ch=2 n=d5 v=40
30919 Off ch=2 n=a4 v=0
31104 Off ch=2 n=d5 v=0
31104 On ch=2 n=f5 v=40
31104 On ch=1 n=a5 v=58
31296 Off ch=1 n=a5 v=0
31296 Off ch=2 n=f5 v=0
31296 On ch=1 n=b5 v=60
31301 On ch=2 n=d5 v=40
31488 Off ch=1 n=b5 v=0
31488 Tempo 1016940
31488 On ch=1 n=c6 v=62
31493 Off ch=2 n=d5 v=0
31493 On ch=2 n=a4 v=36
31680 Off ch=1 n=c6 v=0
31680 On ch=1 n=d6 v=65
31685 Off ch=2 n=a4 v=0
31685 On ch=2 n=f4 v=31
31872 Off ch=1 n=d6 v=0
31872 On ch=1 n=c6 v=67
31877 Off ch=2 n=f4 v=0
31877 On ch=2 n=d4 v=30
32064 Off ch=1 n=c6 v=0
32064 On ch=2 n=a3 v=31
32064 On ch=1 n=b5 v=51
32069 Off ch=2 n=d4 v=0
32254 Off ch=1 n=b5 v=0
32256 Off ch=2 n=a3 v=0
32256 On ch=1 n=b5 v=54
32263 On ch=2 n=e3 v=39
32302 Off ch=1 n=b5 v=0
32304 On ch=1 n=e6 v=68
32446 Off ch=1 n=e6 v=0
32448 Tempo 1034480
32448 On ch=1 n=a5 v=57
32453 Off ch=2 n=e3 v=0
32455 On ch=2 n=b3 v=40
32494 Off ch=1 n=a5 v=0
32496 On ch=1 n=g5 v=71
32638 Off ch=1 n=g5 v=0
32645 Off ch=2 n=b3 v=0
32647 On ch=2 n=e4 v=42
32839 Off ch=2 n=e4 v=0
32839 On ch=2 n=g4 v=40
33024 Tempo 1090900
33031 Off ch=2 n=g4 v=0
33031 On ch=2 n=b4 v=36
33216 On ch=2 n=e5 v=34
33223 Off ch=2 n=b4 v=0
33408 Off ch=2 n=e5 v=0
33408 On ch=2 n=g5 v=43
33605 Off ch=2 n=g5 v=0
33605 On ch=2 n=e5 v=46
33792 Tempo 1008400
33797 Off ch=2 n=e5 v=0
33797 On ch=2 n=b4 v=42
33989 Off ch=2 n=b4 v=0
33989 On ch=2 n=g4 v=42
34181 Off ch=2 n=g4 v=0
34181 On ch=2 n=e4 v=42
34368 On ch=2 n=b3 v=37
34373 Off ch=2 n=e4 v=0
34567 Off ch=2 n=b3 v=0
34567 On ch=2 n=d3 v=37
34752 Tempo 1034480
34759 Off ch=2 n=d3 v=0
34759 On ch=2 n=a3 v=31
34951 Off ch=2 n=a3 v=0
34951 On ch=2 n=d4 v=31
35143 Off ch=2 n=d4 v=0
35143 On ch=2 n=f4 v=33
35328 Tempo 1090900
35335 Off ch=2 n=f4 v=0
35335 On ch=2 n=a4 v=39
35520 On ch=2 n=d5 v=40
35527 Off ch=2 n=a4 v=0
35712 Off ch=2 n=d5 v=0
35712 On ch=2 n=f5 v=48
35712 On ch=1 n=a5 v=56
35904 Off ch=1 n=a5 v=0
35904 Off ch=2 n=f5 v=0
35904 On ch=1 n=b5 v=58
35909 On ch=2 n=d5 v=49
36096 Off ch=1 n=b5 v=0
36096 Tempo 1016940
36096 On ch=1 n=c6 v=60
36101 Off ch=2 n=d5 v=0
36101 On ch=2 n=a4 v=44
36288 Off ch=1 n=c6 v=0
36288 On ch=1 n=d6 v=63
36293 Off ch=2 n=a4 v=0
36293 On ch=2 n=f4 v=40
36480 Off ch=1 n=d6 v=0
36480 On ch=1 n=c6 v=65
36485 Off ch=2 n=f4 v=0
36485 On ch=2 n=d4 v=37
36672 Off ch=1 n=c6 v=0
36672 On ch=2 n=a3 v=36
36672 On ch=1 n=b5 v=68
36677 Off ch=2 n=d4 v=0
36864 Off ch=1 n=b5 v=0
36864 Off ch=2 n=a3 v=0
36864 On ch=1 n=a5 v=70
36871 On ch=2 n=d3 v=36
37056 Off ch=1 n=a5 v=0
37056 Tempo 1034480
37056 On ch=1 n=b5 v=72
37063 Off ch=2 n=d3 v=0
37063 On ch=2 n=a3 v=36
37248 Off ch=1 n=b5 v=0
37248 On ch=1 n=c6 v=75
37255 Off ch=2 n=a3 v=0
37255 On ch=2 n=d4 v=37
37440 Off ch=1 n=c6 v=0
37440 On ch=1 n=d6 v=74
37447 Off ch=2 n=d4 v=0
37447 On ch=2 n=f4 v=35
37632 Off ch=1 n=d6 v=0
37632 Tempo 1081080
37632 On ch=1 n=c6 v=74
37639 Off ch=2 n=f4 v=0
37639 On ch=2 n=a4 v=38
37824 Off ch=1 n=c6 v=0
37824 On ch=2 n=d5 v=41
37824 On ch=1 n=b5 v=70
37831 Off ch=2 n=a4 v=0
38016 Off ch=1 n=b5 v=0
38016 Off ch=2 n=d5 v=0
38016 On ch=2 n=f5 v=41
38016 On ch=1 n=a5 v=67
38208 Off ch=1 n=a5 v=0
38208 Off ch=2 n=f5 v=0
38208 On ch=1 n=b5 v=64
38213 On ch=2 n=d5 v=35
38400 Off ch=1 n=b5 v=0
38400 Tempo 1008400
38400 On ch=1 n=c6 v=60
38405 Off ch=2 n=d5 v=0
38405 On ch=2 n=a4 v=30
38592 Off ch=1 n=c6 v=0
38592 On ch=1 n=d6 v=57
38597 Off ch=2 n=a4 v=0
38597 On ch=2 n=f4 v=27
38784 Off ch=1 n=d6 v=0
38784 On ch=1 n=c6 v=68
38789 Off ch=2 n=f4 v=0
38789 On ch=2 n=d4 v=32
38976 Off ch=1 n=c6 v=0
38976 On ch=2 n=a3 v=37
38976 On ch=1 n=b5 v=68
38981 Off ch=2 n=d4 v=0
39166 Off ch=1 n=b5 v=0
39168 Off ch=2 n=a3 v=0
39168 On ch=1 n=b5 v=54
39175 On ch=2 n=e3 v=40
39214 Off ch=1 n=b5 v=0
39216 On ch=1 n=d6 v=74
39358 Off ch=1 n=d6 v=0
39360 Tempo 1034480
39360 On ch=1 n=a5 v=61
39365 Off ch=2 n=e3 v=0
39367 On ch=2 n=b3 v=42
39406 Off ch=1 n=a5 v=0
39408 On ch=1 n=g5 v=74
39550 Off ch=1 n=g5 v=0
39557 Off ch=2 n=b3 v=0
39559 On ch=2 n=e4 v=42
39751 Off ch=2 n=e4 v=0
39751 On ch=2 n=g4 v=36
39936 Tempo 1081080
39936 On ch=2 n=b4 v=31
39943 Off ch=2 n=g4 v=0
40128 Off ch=2 n=b4 v=0
40128 On ch=2 n=e5 v=33
40320 Off ch=2 n=e5 v=0
40320 On ch=2 n=g5 v=41
40517 Off ch=2 n=g5 v=0
40517 On ch=2 n=e5 v=49
40704 Tempo 1004180
40709 Off ch=2 n=e5 v=0
40709 On ch=2 n=b4 v=46
40901 Off ch=2 n=b4 v=0
40901 On ch=2 n=g4 v=40
41093 Off ch=2 n=g4 v=0
41093 On ch=2 n=e4 v=33
41280 On ch=2 n=b3 v=33
41285 Off ch=2 n=e4 v=0
41472 Off ch=2 n=b3 v=0
41472 On ch=1 n=a5 v=74
41479 On ch=2 n=d3 v=36
41664 Tempo 1034480
41669 Off ch=2 n=d3 v=0
41671 On ch=2 n=a3 v=36
41861 Off ch=2 n=a3 v=0
41863 On ch=2 n=d4 v=37
42053 Off ch=2 n=d4 v=0
42055 On ch=2 n=f4 v=40
42238 Off ch=1 n=a5 v=0
42240 Tempo 1081080
42240 On ch=1 n=e6 v=58
42247 Off ch=2 n=f4 v=0
42247 On ch=2 n=a4 v=43
42286 Off ch=1 n=e6 v=0
42288 On ch=1 n=f6 v=74
42432 On ch=2 n=d5 v=43
42437 Off ch=2 n=a4 v=0
42622 Off ch=2 n=d5 v=0
42624 On ch=2 n=f5 v=43
42804 Off ch=1 n=f6 v=0
42821 Off ch=2 n=f5 v=0
42821 On ch=2 n=d5 v=40
43008 Tempo 1004180
43013 Off ch=2 n=d5 v=0
43013 On ch=2 n=a4 v=36
43205 Off ch=2 n=a4 v=0
43205 On ch=2 n=f4 v=31
43397 Off ch=2 n=f4 v=0
43397 On ch=2 n=d4 v=30
43584 On ch=2 n=a3 v=34
43589 Off ch=2 n=d4 v=0
43783 Off ch=2 n=a3 v=0
43783 On ch=2 n=d3 v=37
43968 Tempo 1034480
43975 Off ch=2 n=d3 v=0
43975 On ch=2 n=a3 v=40
44167 Off ch=2 n=a3 v=0
44167 On ch=2 n=d4 v=42
44359 Off ch=2 n=d4 v=0
44359 On ch=2 n=f4 v=44
44544 Tempo 1090900
44551 Off ch=2 n=f4 v=0
44551 On ch=2 n=a4 v=44
44736 On ch=2 n=d5 v=44
44743 Off ch=2 n=a4 v=0
44928 Off ch=2 n=d5 v=0
44928 On ch=2 n=f5 v=44
45125 Off ch=2 n=f5 v=0
45125 On ch=2 n=d5 v=42
45312 Tempo 1008400
45317 Off ch=2 n=d5 v=0
45317 On ch=2 n=a4 v=37
45509 Off ch=2 n=a4 v=0
45509 On ch=2 n=f4 v=35
45701 Off ch=2 n=f4 v=0
45701 On ch=2 n=d4 v=32
45888 On ch=2 n=a3 v=29
45893 Off ch=2 n=d4 v=0
46080 Off ch=2 n=a3 v=0
46080 On ch=1 n=f#5 v=74
46087 On ch=2 n=f#3 v=40
46272 Tempo 1034480
46277 Off ch=2 n=f#3 v=0
46279 On ch=2 n=c#4 v=43
46462 Off ch=1 n=f#5 v=0
46464 On ch=1 n=d#5 v=58
46471 Off ch=2 n=c#4 v=0
46471 On ch=2 n=f#4 v=43
46510 Off ch=1 n=d#5 v=0
46512 On ch=1 n=g#4 v=48
46512 On ch=1 n=c#5 v=48
46661 Off ch=2 n=f#4 v=0
46663 On ch=2 n=a#4 v=42
46846 Off ch=1 n=c#5 v=0
46846 Off ch=1 n=g#4 v=0
46848 Tempo 1100910
46855 Off ch=2 n=a#4 v=0
46855 On ch=2 n=c#5 v=40
47040 On ch=2 n=f#5 v=31
47047 Off ch=2 n=c#5 v=0
47232 Off ch=2 n=f#5 v=0
47232 On ch=2 n=a#5 v=33
47429 Off ch=2 n=a#5 v=0
47429 On ch=2 n=f#5 v=34
47616 Tempo 1016940
47621 Off ch=2 n=f#5 v=0
47621 On ch=2 n=c#5 v=35
47808 On ch=2 n=a#4 v=46
47813 Off ch=2 n=c#5 v=0
48005 Off ch=2 n=a#4 v=0
48005 On ch=2 n=f#4 v=51
48192 On ch=2 n=c#4 v=49
48197 Off ch=2 n=f#4 v=0
48384 Off ch=2 n=c#4 v=0
48384 On ch=1 n=b5 v=55
48391 On ch=2 n=d3 v=46
48430 Off ch=1 n=b5 v=0
48432 On ch=1 n=a5 v=75
48574 Off ch=1 n=a5 v=0
48576 Tempo 1034480
48576 On ch=1 n=b5 v=56
48581 Off ch=2 n=d3 v=0
48583 On ch=2 n=a3 v=40
48622 Off ch=1 n=b5 v=0
48624 On ch=1 n=a5 v=44
48766 Off ch=1 n=a5 v=0
48773 Off ch=2 n=a3 v=0
48775 On ch=2 n=d4 v=33
48967 Off ch=2 n=d4 v=0
48967 On ch=2 n=f4 v=37
49152 Tempo 1090900
49159 Off ch=2 n=f4 v=0
49159 On ch=2 n=a4 v=40
49344 On ch=2 n=d5 v=43
49351 Off ch=2 n=a4 v=0
49536 Off ch=2 n=d5 v=0
49536 On ch=2 n=f5 v=39
49733 Off ch=2 n=f5 v=0
49733 On ch=2 n=d5 v=42
49920 Tempo 1008400
49925 Off ch=2 n=d5 v=0
49925 On ch=2 n=a4 v=36
50117 Off ch=2 n=a4 v=0
50117 On ch=2 n=f4 v=28
50309 Off ch=2 n=f4 v=0
50309 On ch=2 n=d4 v=27
50496 On ch=2 n=a3 v=28
50501 Off ch=2 n=d4 v=0
50695 Off ch=2 n=a3 v=0
50695 On ch=2 n=d3 v=31
50880 Tempo 1034480
50887 Off ch=2 n=d3 v=0
50887 On ch=2 n=a3 v=36
51079 Off ch=2 n=a3 v=0
51079 On ch=2 n=d4 v=34
51271 Off ch=2 n=d4 v=0
51271 On ch=2 n=f4 v=34
51456 Tempo 1090900
51456 On ch=1 n=a6 v=58
51463 Off ch=2 n=f4 v=0
51463 On ch=2 n=a4 v=34
51646 Off ch=1 n=a6 v=0
51648 On ch=2 n=d5 v=34
51648 On ch=1 n=a6 v=60
51655 Off ch=2 n=a4 v=0
51838 Off ch=1 n=a6 v=0
51840 Off ch=2 n=d5 v=0
51840 On ch=2 n=f5 v=33
51840 On ch=1 n=a6 v=63
52030 Off ch=1 n=a6 v=0
52032 Off ch=2 n=f5 v=0
52032 On ch=1 n=a6 v=65
52037 On ch=2 n=d5 v=33
52222 Off ch=1 n=a6 v=0
52224 Tempo 1008400
52224 On ch=1 n=c7 v=67
52229 Off ch=2 n=d5 v=0
52229 On ch=2 n=a4 v=36
52416 Off ch=1 n=c7 v=0
52416 On ch=1 n=b6 v=70
52421 Off ch=2 n=a4 v=0
52421 On ch=2 n=f4 v=37
52608 Off ch=1 n=b6 v=0
52608 On ch=1 n=a6 v=72
52613 Off ch=2 n=f4 v=0
52613 On ch=2 n=d4 v=40
52798 Off ch=1 n=a6 v=0
52800 On ch=2 n=a3 v=45
52800 On ch=1 n=g#6 v=74
52805 Off ch=2 n=d4 v=0
52990 Off ch=1 n=g#6 v=0
52992 Off ch=2 n=a3 v=0
52992 On ch=1 n=f6 v=77
52999 On ch=2 n=c3 v=46
53182 Off ch=1 n=f6 v=0
53184 Tempo 1034480
53184 On ch=1 n=e6 v=75
53191 Off ch=2 n=c3 v=0
53191 On ch=2 n=g3 v=48
53374 Off ch=1 n=e6 v=0
53376 On ch=1 n=d#6 v=71
53383 Off ch=2 n=g3 v=0
53383 On ch=2 n=c4 v=48
53566 Off ch=1 n=d#6 v=0
53568 On ch=1 n=b5 v=59
53575 Off ch=2 n=c4 v=0
53575 On ch=2 n=d#4 v=48
53614 Off ch=1 n=b5 v=0
53616 On ch=1 n=c6 v=66
53758 Off ch=1 n=c6 v=0
53760 Tempo 1090900
53765 Off ch=2 n=d#4 v=0
53767 On ch=2 n=g4 v=48
53952 On ch=2 n=c5 v=40
53959 Off ch=2 n=g4 v=0
54144 Off ch=2 n=c5 v=0
54144 On ch=2 n=d#5 v=33
54341 Off ch=2 n=d#5 v=0
54341 On ch=2 n=c5 v=30
54528 Tempo 1008400
54533 Off ch=2 n=c5 v=0
54533 On ch=2 n=g4 v=30
54725 Off ch=2 n=g4 v=0
54725 On ch=2 n=d#4 v=34
54917 Off ch=2 n=d#4 v=0
54917 On ch=2 n=c4 v=42
55104 On ch=2 n=g3 v=43
55109 Off ch=2 n=c4 v=0
55296 Off ch=2 n=g3 v=0
55296 On ch=1 n=d5 v=74
55303 On ch=2 n=b2 v=43
55488 Tempo 1034480
55493 Off ch=2 n=b2 v=0
55495 On ch=2 n=f#3 v=43
55678 Off ch=1 n=d5 v=0
55680 On ch=1 n=f#5 v=52
55687 Off ch=2 n=f#3 v=0
55687 On ch=2 n=b3 v=43
55726 Off ch=1 n=f#5 v=0
55728 On ch=1 n=g5 v=74
55877 Off ch=2 n=b3 v=0
55879 On ch=2 n=d4 v=42
56064 Tempo 1081080
56069 Off ch=2 n=d4 v=0
56071 On ch=2 n=f#4 v=39
56244 Off ch=1 n=g5 v=0
56256 On ch=2 n=b4 v=37
56263 Off ch=2 n=f#4 v=0
56448 Off ch=2 n=b4 v=0
56448 On ch=2 n=d5 v=37
56645 Off ch=2 n=d5 v=0
56645 On ch=2 n=b4 v=36
56832 Tempo 1008400
56837 Off ch=2 n=b4 v=0
56837 On ch=2 n=f#4 v=36
57029 Off ch=2 n=f#4 v=0
57029 On ch=2 n=d4 v=36
57221 Off ch=2 n=d4 v=0
57221 On ch=2 n=b3 v=31
57408 On ch=2 n=f#3 v=30
57413 Off ch=2 n=b3 v=0
57600 Off ch=2 n=f#3 v=0
57600 On ch=1 n=f5 v=74
57607 On ch=2 n=d3 v=30
57792 Tempo 1034480
57797 Off ch=2 n=d3 v=0
57799 On ch=2 n=a3 v=30
57989 Off ch=2 n=a3 v=0
57991 On ch=2 n=d4 v=31
58150 Off ch=1 n=f5 v=0
58183 Off ch=2 n=d4 v=0
58183 On ch=2 n=f4 v=34
58368 Tempo 1090900
58375 Off ch=2 n=f4 v=0
58375 On ch=2 n=a4 v=36
58560 On ch=2 n=d5 v=39
58567 Off ch=2 n=a4 v=0
58752 Off ch=2 n=d5 v=0
58752 On ch=2 n=f5 v=40
58949 Off ch=2 n=f5 v=0
58949 On ch=2 n=d5 v=39
59136 Tempo 1008400
59141 Off ch=2 n=d5 v=0
59141 On ch=2 n=a4 v=34
59333 Off ch=2 n=a4 v=0
59333 On ch=2 n=f4 v=31
59525 Off ch=2 n=f4 v=0
59525 On ch=2 n=d4 v=33
59712 On ch=2 n=a3 v=37
59717 Off ch=2 n=d4 v=0
59904 Off ch=2 n=a3 v=0
59904 On ch=1 n=f6 v=55
59911 On ch=2 n=d3 v=42
60096 Off ch=1 n=f6 v=0
60096 Tempo 1034480
60096 On ch=1 n=g6 v=58
60103 Off ch=2 n=d3 v=0
60103 On ch=2 n=a3 v=42
60288 Off ch=1 n=g6 v=0
60288 On ch=1 n=a6 v=61
60295 Off ch=2 n=a3 v=0
60295 On ch=2 n=d4 v=45
60480 Off ch=1 n=a6 v=0
60480 On ch=1 n=b6 v=65
60487 Off ch=2 n=d4 v=0
60487 On ch=2 n=f4 v=49
60672 Off ch=1 n=b6 v=0
60672 Tempo 1081080
60672 On ch=1 n=a6 v=68
60679 Off ch=2 n=f4 v=0
60679 On ch=2 n=a4 v=51
60864 Off ch=1 n=a6 v=0
60864 On ch=2 n=d5 v=48
60864 On ch=1 n=g6 v=71
60871 Off ch=2 n=a4 v=0
61056 Off ch=1 n=g6 v=0
61056 Off ch=2 n=d5 v=0
61056 On ch=2 n=f5 v=46
61056 On ch=1 n=f6 v=75
61248 Off ch=1 n=f6 v=0
61248 Off ch=2 n=f5 v=0
61248 On ch=1 n=g6 v=74
61253 On ch=2 n=d5 v=43
61440 Off ch=1 n=g6 v=0
61440 Tempo 1016940
61440 On ch=1 n=a6 v=73
61445 Off ch=2 n=d5 v=0
61445 On ch=2 n=a4 v=40
61632 Off ch=1 n=a6 v=0
61632 On ch=1 n=b6 v=68
61637 Off ch=2 n=a4 v=0
61637 On ch=2 n=f4 v=39
61824 Off ch=1 n=b6 v=0
61824 On ch=1 n=a6 v=64
61829 Off ch=2 n=f4 v=0
61829 On ch=2 n=d4 v=39
62016 Off ch=1 n=a6 v=0
62016 On ch=2 n=a3 v=39
62016 On ch=1 n=g6 v=59
62021 Off ch=2 n=d4 v=0
62208 Off ch=1 n=g6 v=0
62208 Off ch=2 n=a3 v=0
62208 On ch=1 n=f6 v=66
62215 On ch=2 n=e3 v=39
62254 Off ch=1 n=f6 v=0
62256 On ch=1 n=g6 v=67
62398 Off ch=1 n=g6 v=0
62400 Tempo 1034480
62400 On ch=1 n=d6 v=59
62405 Off ch=2 n=e3 v=0
62407 On ch=2 n=b3 v=42
62446 Off ch=1 n=d6 v=0
62448 On ch=1 n=e6 v=40
62590 Off ch=1 n=e6 v=0
62597 Off ch=2 n=b3 v=0
62599 On ch=2 n=e4 v=37
62791 Off ch=2 n=e4 v=0
62791 On ch=2 n=g4 v=40
62976 Tempo 1081080
62983 Off ch=2 n=g4 v=0
62983 On ch=2 n=b4 v=49
63168 On ch=2 n=e5 v=51
63175 Off ch=2 n=b4 v=0
63360 Off ch=2 n=e5 v=0
63360 On ch=2 n=g5 v=39
63557 Off ch=2 n=g5 v=0
63557 On ch=2 n=e5 v=33
63744 Tempo 1008400
63749 Off ch=2 n=e5 v=0
63749 On ch=2 n=b4 v=27
63941 Off ch=2 n=b4 v=0
63941 On ch=2 n=g4 v=24
64133 Off ch=2 n=g4 v=0
64133 On ch=2 n=e4 v=30
64320 On ch=2 n=b3 v=37
64325 Off ch=2 n=e4 v=0
64512 Off ch=2 n=b3 v=0
64512 On ch=1 n=f6 v=55
64519 On ch=2 n=d3 v=45
64704 Off ch=1 n=f6 v=0
64704 Tempo 1034480
64704 On ch=1 n=g6 v=57
64711 Off ch=2 n=d3 v=0
64711 On ch=2 n=a3 v=45
64896 Off ch=1 n=g6 v=0
64896 On ch=1 n=a6 v=64
64903 Off ch=2 n=a3 v=0
64903 On ch=2 n=d4 v=46
65088 Off ch=1 n=a6 v=0
65088 On ch=1 n=b6 v=67
65095 Off ch=2 n=d4 v=0
65095 On ch=2 n=f4 v=49
65280 Off ch=1 n=b6 v=0
65280 Tempo 1100910
65280 On ch=1 n=a6 v=69
65287 Off ch=2 n=f4 v=0
65287 On ch=2 n=a4 v=46
65472 Off ch=1 n=a6 v=0
65472 On ch=2 n=d5 v=42
65472 On ch=1 n=g6 v=72
65479 Off ch=2 n=a4 v=0
65664 Off ch=1 n=g6 v=0
65664 Off ch=2 n=d5 v=0
65664 On ch=2 n=f5 v=38
65664 On ch=1 n=f6 v=76
65856 Off ch=1 n=f6 v=0
65856 Off ch=2 n=f5 v=0
65856 On ch=1 n=g6 v=73
65861 On ch=2 n=d5 v=39
66048 Off ch=1 n=g6 v=0
66048 Tempo 1008400
66048 On ch=1 n=a6 v=69
66053 Off ch=2 n=d5 v=0
66053 On ch=2 n=a4 v=37
66240 Off ch=1 n=a6 v=0
66240 On ch=1 n=b6 v=66
66245 Off ch=2 n=a4 v=0
66245 On ch=2 n=f4 v=36
66432 Off ch=1 n=b6 v=0
66432 On ch=1 n=a6 v=64
66437 Off ch=2 n=f4 v=0
66437 On ch=2 n=d4 v=33
66624 Off ch=1 n=a6 v=0
66624 On ch=2 n=a3 v=33
66624 On ch=1 n=g6 v=61
66629 Off ch=2 n=d4 v=0
66816 Off ch=1 n=g6 v=0
66816 Off ch=2 n=a3 v=0
66816 On ch=1 n=f6 v=66
66823 On ch=2 n=e3 v=39
66862 Off ch=1 n=f6 v=0
66864 On ch=1 n=g6 v=64
67006 Off ch=1 n=g6 v=0
67008 On ch=1 n=d6 v=64
67013 Off ch=2 n=e3 v=0
67015 On ch=2 n=b3 v=42
67054 Off ch=1 n=d6 v=0
67056 On ch=1 n=e6 v=61
67198 Off ch=1 n=e6 v=0
67205 Off ch=2 n=b3 v=0
67207 On ch=2 n=e4 v=40
67399 Off ch=2 n=e4 v=0
67399 On ch=2 n=g4 v=43
67584 Tempo 1034480
67591 Off ch=2 n=g4 v=0
67591 On ch=2 n=b4 v=43
67776 On ch=2 n=e5 v=42
67783 Off ch=2 n=b4 v=0
67968 Off ch=2 n=e5 v=0
67968 On ch=2 n=g5 v=40
68165 Off ch=2 n=g5 v=0
68165 On ch=2 n=e5 v=36
68352 Tempo 1111110
68357 Off ch=2 n=e5 v=0
68357 On ch=2 n=b4 v=31
68549 Off ch=2 n=b4 v=0
68549 On ch=2 n=g4 v=30
68741 Off ch=2 n=g4 v=0
68741 On ch=2 n=e4 v=30
68928 On ch=2 n=b3 v=30
68933 Off ch=2 n=e4 v=0
69120 Off ch=2 n=b3 v=0
69120 On ch=1 n=a5 v=74
69127 On ch=2 n=d3 v=42
69312 Tempo 1016940
69317 Off ch=2 n=d3 v=0
69319 On ch=2 n=a3 v=43
69509 Off ch=2 n=a3 v=0
69511 On ch=2 n=d4 v=48
69701 Off ch=2 n=d4 v=0
69703 On ch=2 n=f4 v=48
69886 Off ch=1 n=a5 v=0
69888 Tempo 1034480
69888 On ch=1 n=e6 v=61
69895 Off ch=2 n=f4 v=0
69895 On ch=2 n=a4 v=54
69934 Off ch=1 n=e6 v=0
69936 On ch=1 n=f6 v=74
70080 On ch=2 n=d5 v=49
70085 Off ch=2 n=a4 v=0
70270 Off ch=2 n=d5 v=0
70272 On ch=2 n=f5 v=39
70452 Off ch=1 n=f6 v=0
70469 Off ch=2 n=f5 v=0
70469 On ch=2 n=d5 v=36
70661 Off ch=2 n=d5 v=0
70661 On ch=2 n=a4 v=34
70853 Off ch=2 n=a4 v=0
70853 On ch=2 n=f4 v=33
71045 Off ch=2 n=f4 v=0
71045 On ch=2 n=d4 v=31
71232 On ch=2 n=a3 v=30
71237 Off ch=2 n=d4 v=0
71431 Off ch=2 n=a3 v=0
71431 On ch=2 n=d3 v=30
71616 Tempo 1111110
71623 Off ch=2 n=d3 v=0
71623 On ch=2 n=a3 v=30
71815 Off ch=2 n=a3 v=0
71815 On ch=2 n=d4 v=28
72007 Off ch=2 n=d4 v=0
72007 On ch=2 n=f4 v=27
72192 Tempo 1025640
72199 Off ch=2 n=f4 v=0
72199 On ch=2 n=a4 v=25
72384 On ch=2 n=d5 v=25
72391 Off ch=2 n=a4 v=0
72576 Off ch=2 n=d5 v=0
72576 On ch=2 n=f5 v=24
72773 Off ch=2 n=f5 v=0
72773 On ch=2 n=d5 v=28
72960 Tempo 1043470
72965 Off ch=2 n=d5 v=0
72965 On ch=2 n=a4 v=30
73157 Off ch=2 n=a4 v=0
73157 On ch=2 n=f4 v=33
73349 Off ch=2 n=f4 v=0
73349 On ch=2 n=d4 v=36
73536 On ch=2 n=a3 v=42
73541 Off ch=2 n=d4 v=0
73728 Off ch=2 n=a3 v=0
73728 On ch=1 n=f#5 v=74
73735 On ch=2 n=f#3 v=39
73920 Tempo 1111110
73925 Off ch=2 n=f#3 v=0
73927 On ch=2 n=c#4 v=39
74110 Off ch=1 n=f#5 v=0
74112 On ch=1 n=d#5 v=57
74119 Off ch=2 n=c#4 v=0
74119 On ch=2 n=f#4 v=43
74158 Off ch=1 n=d#5 v=0
74160 On ch=1 n=g#4 v=40
74160 On ch=1 n=c#5 v=40
74309 Off ch=2 n=f#4 v=0
74311 On ch=2 n=a#4 v=43
74494 Off ch=1 n=c#5 v=0
74494 Off ch=1 n=g#4 v=0
74496 Tempo 1025640
74503 Off ch=2 n=a#4 v=0
74503 On ch=2 n=c#5 v=39
74688 On ch=2 n=f#5 v=37
74695 Off ch=2 n=c#5 v=0
74880 Off ch=2 n=f#5 v=0
74880 On ch=2 n=a#5 v=36
75077 Off ch=2 n=a#5 v=0
75077 On ch=2 n=f#5 v=39
75264 Tempo 1142850
75269 Off ch=2 n=f#5 v=0
75269 On ch=2 n=c#5 v=28
75461 Off ch=2 n=c#5 v=0
75461 On ch=2 n=a#4 v=27
75653 Off ch=2 n=a#4 v=0
75653 On ch=2 n=f#4 v=31
75840 On ch=2 n=c#4 v=31
75845 Off ch=2 n=f#4 v=0
76032 Off ch=2 n=c#4 v=0
76034 On ch=1 n=e5 v=30
76038 On ch=1 n=e6 v=39
76039 On ch=2 n=e3 v=33
76041 On ch=1 n=b5 v=33
76043 On ch=1 n=g5 v=32
76048 On ch=2 n=b3 v=31
76050 On ch=2 n=e4 v=28
76224 Tempo 2000000
79104 Off ch=1 n=e5 v=0
79108 Off ch=1 n=e6 v=0
79111 Off ch=1 n=b5 v=0
79113 Off ch=1 n=g5 v=0
80647 Off ch=2 n=e3 v=0
80656 Off ch=2 n=b3 v=0
80658 Off ch=2 n=e4 v=0
81408 Meta TrkEnd
TrkEnd
