MFile 0 1 384
MTrk
0 Meta SeqName "RLucardie"
0 Tempo 1250000
0 TimeSig 4/4 24 8
25 Par ch=1 c=0 v=0
25 Par ch=2 c=0 v=0
49 PrCh ch=1 p=0
49 PrCh ch=2 p=0
73 Pb ch=1 v=8192
73 Pb ch=2 v=8192
97 Par ch=1 c=7 v=115
97 Par ch=2 c=7 v=110
121 Par ch=1 c=10 v=72
121 Par ch=2 c=10 v=55
145 Par ch=1 c=91 v=100
145 Par ch=2 c=91 v=100
169 Par ch=1 c=93 v=20
169 Par ch=2 c=93 v=20
193 Par ch=1 c=100 v=0
193 Par ch=2 c=100 v=0
217 Par ch=1 c=101 v=0
217 Par ch=2 c=101 v=0
241 Par ch=1 c=6 v=2
241 Par ch=2 c=6 v=2
1536 On ch=2 n=g3 v=54
1536 On ch=1 n=d6 v=66
1582 Off ch=1 n=d6 v=0
1584 On ch=1 n=g6 v=79
1918 Off ch=2 n=g3 v=0
1920 On ch=2 n=g4 v=61
1922 On ch=2 n=b4 v=66
1924 On ch=2 n=d5 v=62
2014 Off ch=1 n=g6 v=0
2016 On ch=1 n=f#6 v=80
2110 Off ch=1 n=f#6 v=0
2112 On ch=1 n=d6 v=83
2206 Off ch=1 n=d6 v=0
2208 On ch=1 n=f#6 v=67
2302 Off ch=1 n=f#6 v=0
2302 Off ch=2 n=g4 v=0
2304 Off ch=2 n=b4 v=0
2304 On ch=2 n=c4 v=48
2304 On ch=1 n=e6 v=78
2306 Off ch=2 n=d5 v=0
2350 Off ch=1 n=e6 v=0
2352 On ch=1 n=c6 v=84
2398 Off ch=1 n=c6 v=0
2400 On ch=1 n=e6 v=76
2494 Off ch=1 n=e6 v=0
2496 On ch=1 n=e6 v=74
2686 Off ch=2 n=c4 v=0
2688 On ch=2 n=g4 v=64
2690 On ch=2 n=c5 v=55
2692 On ch=2 n=e5 v=60
3070 Off ch=2 n=g4 v=0
3072 Off ch=2 n=c5 v=0
3072 On ch=2 n=a3 v=59
3074 Off ch=2 n=e5 v=0
3454 Off ch=2 n=a3 v=0
3456 On ch=2 n=a4 v=57
3458 On ch=2 n=c5 v=59
3460 On ch=2 n=e5 v=72
3838 Off ch=2 n=a4 v=0
3840 Off ch=2 n=c5 v=0
3840 On ch=2 n=e3 v=60
3842 Off ch=2 n=e5 v=0
3934 Off ch=1 n=e6 v=0
3936 On ch=1 n=f#6 v=67
4030 Off ch=1 n=f#6 v=0
4032 On ch=1 n=g6 v=76
4126 Off ch=1 n=g6 v=0
4128 On ch=1 n=a6 v=83
4222 Off ch=1 n=a6 v=0
4222 Off ch=2 n=e3 v=0
4224 On ch=2 n=g4 v=58
4224 On ch=1 n=b6 v=72
4226 On ch=2 n=b4 v=58
4228 On ch=2 n=e5 v=58
4318 Off ch=1 n=b6 v=0
4320 On ch=1 n=c7 v=62
4414 Off ch=1 n=c7 v=0
4416 On ch=1 n=d7 v=59
4446 Off ch=1 n=d7 v=0
4448 On ch=1 n=e7 v=62
4478 Off ch=1 n=e7 v=0
4480 On ch=1 n=f#7 v=65
4510 Off ch=1 n=f#7 v=0
4512 On ch=1 n=e7 v=67
4606 Off ch=1 n=e7 v=0
4606 Off ch=2 n=g4 v=0
4608 Off ch=2 n=b4 v=0
4608 On ch=2 n=g3 v=63
4608 On ch=1 n=d7 v=65
4610 Off ch=2 n=e5 v=0
4702 Off ch=1 n=d7 v=0
4704 On ch=1 n=b6 v=75
4798 Off ch=1 n=b6 v=0
4800 On ch=1 n=d7 v=67
4990 Off ch=2 n=g3 v=0
4992 On ch=2 n=g4 v=57
4994 On ch=2 n=b4 v=58
4996 On ch=2 n=d5 v=62
5182 Off ch=1 n=d7 v=0
5184 On ch=1 n=c7 v=82
5278 Off ch=1 n=c7 v=0
5280 On ch=1 n=d7 v=78
5374 Off ch=1 n=d7 v=0
5374 Off ch=2 n=g4 v=0
5376 Off ch=2 n=b4 v=0
5376 On ch=2 n=d3 v=62
5376 On ch=1 n=a6 v=62
5378 Off ch=2 n=d5 v=0
5758 Off ch=2 n=d3 v=0
5760 On ch=2 n=g4 v=64
5762 On ch=2 n=b4 v=50
5764 On ch=2 n=d5 v=50
6046 Off ch=1 n=a6 v=0
6048 On ch=1 n=b6 v=70
6142 Off ch=1 n=b6 v=0
6142 Off ch=2 n=g4 v=0
6144 Off ch=2 n=b4 v=0
6144 On ch=2 n=b2 v=70
6144 On ch=1 n=f#6 v=69
6146 Off ch=2 n=d5 v=0
6526 Off ch=1 n=f#6 v=0
6526 Off ch=2 n=b2 v=0
6528 On ch=2 n=f#4 v=50
6528 On ch=1 n=b5 v=75
6530 On ch=2 n=b4 v=50
6532 On ch=2 n=d5 v=50
6718 Off ch=1 n=b5 v=0
6720 On ch=1 n=d6 v=84
6910 Off ch=1 n=d6 v=0
6910 Off ch=2 n=f#4 v=0
6912 Off ch=2 n=b4 v=0
6912 On ch=2 n=e3 v=55
6912 On ch=1 n=e6 v=74
6914 Off ch=2 n=d5 v=0
6974 Off ch=1 n=e6 v=0
6976 On ch=1 n=b5 v=79
7026 Off ch=1 n=b5 v=0
7028 On ch=1 n=d6 v=71
7078 Off ch=1 n=d6 v=0
7080 On ch=1 n=e6 v=71
7126 Off ch=1 n=e6 v=0
7128 On ch=1 n=f#6 v=71
7182 Off ch=1 n=f#6 v=0
7184 On ch=1 n=d6 v=76
7242 Off ch=1 n=d6 v=0
7244 On ch=1 n=g6 v=53
7294 Off ch=1 n=g6 v=0
7294 Off ch=2 n=e3 v=0
7296 On ch=2 n=g4 v=48
7296 On ch=1 n=e6 v=76
7298 On ch=2 n=b4 v=48
7300 On ch=2 n=e5 v=48
7678 Off ch=1 n=e6 v=0
7678 Off ch=2 n=g4 v=0
7680 Off ch=2 n=b4 v=0
7680 On ch=2 n=d3 v=49
7680 On ch=1 n=d6 v=77
7682 Off ch=2 n=e5 v=0
7726 Off ch=1 n=d6 v=0
7728 On ch=1 n=a6 v=74
8062 Off ch=2 n=d3 v=0
8064 On ch=2 n=f4 v=58
8066 On ch=2 n=a4 v=51
8068 On ch=2 n=d5 v=51
8446 Off ch=2 n=f4 v=0
8446 Off ch=1 n=a6 v=0
8448 Off ch=2 n=a4 v=0
8448 On ch=2 n=b2 v=54
8448 On ch=1 n=b6 v=80
8450 Off ch=2 n=d5 v=0
8830 Off ch=1 n=b6 v=0
8830 Off ch=2 n=b2 v=0
8832 On ch=2 n=f#4 v=58
8832 On ch=1 n=a6 v=74
8834 On ch=2 n=b4 v=58
8836 On ch=2 n=d5 v=58
8926 Off ch=1 n=a6 v=0
8928 On ch=1 n=b6 v=84
9022 Off ch=1 n=b6 v=0
9024 On ch=1 n=a6 v=71
9118 Off ch=1 n=a6 v=0
9120 On ch=1 n=b6 v=77
9214 Off ch=1 n=b6 v=0
9214 Off ch=2 n=f#4 v=0
9216 Off ch=2 n=b4 v=0
9216 On ch=2 n=e3 v=51
9216 On ch=1 n=c#7 v=83
9218 Off ch=2 n=d5 v=0
9502 Off ch=1 n=c#7 v=0
9504 On ch=1 n=e7 v=80
9598 Off ch=1 n=e7 v=0
9598 Off ch=2 n=e3 v=0
9600 On ch=2 n=e4 v=52
9600 On ch=1 n=b6 v=81
9602 On ch=2 n=g#4 v=61
9604 On ch=2 n=d5 v=55
9646 Off ch=1 n=b6 v=0
9648 On ch=1 n=a6 v=70
9694 Off ch=1 n=a6 v=0
9696 On ch=1 n=b6 v=80
9934 Off ch=1 n=b6 v=0
9936 On ch=1 n=c#7 v=72
9982 Off ch=1 n=c#7 v=0
9982 Off ch=2 n=e4 v=0
9984 Off ch=2 n=g#4 v=0
9984 On ch=2 n=a3 v=61
9984 On ch=1 n=f#6 v=74
9986 Off ch=2 n=d5 v=0
10366 Off ch=2 n=a3 v=0
10368 On ch=2 n=f#4 v=55
10370 On ch=2 n=c#5 v=55
10372 On ch=2 n=f#5 v=55
10654 Off ch=1 n=f#6 v=0
10656 On ch=1 n=g#6 v=83
10750 Off ch=1 n=g#6 v=0
10750 Off ch=2 n=f#4 v=0
10752 Off ch=2 n=c#5 v=0
10752 On ch=2 n=e3 v=58
10752 On ch=1 n=b6 v=75
10754 Off ch=2 n=f#5 v=0
10798 Off ch=1 n=b6 v=0
10800 On ch=1 n=c#7 v=80
10846 Off ch=1 n=c#7 v=0
10848 On ch=1 n=d7 v=83
10894 Off ch=1 n=d7 v=0
10896 On ch=1 n=c#7 v=75
10942 Off ch=1 n=c#7 v=0
10944 On ch=1 n=b6 v=71
10990 Off ch=1 n=b6 v=0
10992 On ch=1 n=a6 v=69
11038 Off ch=1 n=a6 v=0
11040 On ch=1 n=g#6 v=68
11086 Off ch=1 n=g#6 v=0
11088 On ch=1 n=f#6 v=66
11134 Off ch=1 n=f#6 v=0
11134 Off ch=2 n=e3 v=0
11136 On ch=2 n=e4 v=50
11136 On ch=1 n=g#6 v=66
11138 On ch=2 n=g#4 v=50
11140 On ch=2 n=d5 v=50
11422 Off ch=1 n=g#6 v=0
11424 On ch=1 n=f#6 v=71
11518 Off ch=1 n=f#6 v=0
11518 Off ch=2 n=e4 v=0
11520 Off ch=2 n=g#4 v=0
11520 On ch=2 n=a3 v=50
11520 On ch=1 n=c#7 v=67
11522 Off ch=2 n=d5 v=0
11902 Off ch=2 n=a3 v=0
11904 On ch=2 n=a4 v=63
11906 On ch=2 n=c#5 v=55
11908 On ch=2 n=f#5 v=52
12286 Off ch=2 n=a4 v=0
12286 Off ch=1 n=c#7 v=0
12288 Off ch=2 n=c#5 v=0
12288 On ch=2 n=e3 v=51
12288 On ch=1 n=e7 v=84
12290 Off ch=2 n=f#5 v=0
12670 Off ch=2 n=e3 v=0
12672 On ch=2 n=e4 v=55
12674 On ch=2 n=g#4 v=55
12676 On ch=2 n=d5 v=55
12958 Off ch=1 n=e7 v=0
12960 On ch=1 n=e7 v=81
13054 Off ch=1 n=e7 v=0
13054 Off ch=2 n=e4 v=0
13056 Off ch=2 n=g#4 v=0
13056 On ch=2 n=g3 v=57
13056 On ch=1 n=b6 v=72
13058 Off ch=2 n=d5 v=0
13150 Off ch=1 n=b6 v=0
13152 On ch=1 n=a6 v=75
13246 Off ch=1 n=a6 v=0
13248 On ch=1 n=b6 v=74
13342 Off ch=1 n=b6 v=0
13344 On ch=1 n=c7 v=74
13438 Off ch=1 n=c7 v=0
13438 Off ch=2 n=g3 v=0
13440 On ch=2 n=g4 v=63
13440 On ch=1 n=d7 v=65
13442 On ch=2 n=b4 v=63
13444 On ch=2 n=d5 v=63
13502 Off ch=1 n=d7 v=0
13504 On ch=1 n=e7 v=80
13566 Off ch=1 n=e7 v=0
13568 On ch=1 n=g7 v=76
13630 Off ch=1 n=g7 v=0
13632 On ch=1 n=f#7 v=82
13774 Off ch=1 n=f#7 v=0
13776 On ch=1 n=a6 v=84
13822 Off ch=1 n=a6 v=0
13822 Off ch=2 n=g4 v=0
13824 Off ch=2 n=b4 v=0
13824 On ch=2 n=d3 v=51
13824 On ch=1 n=d7 v=78
13826 Off ch=2 n=d5 v=0
14206 Off ch=2 n=d3 v=0
14208 On ch=2 n=f#4 v=59
14210 On ch=2 n=a4 v=59
14212 On ch=2 n=d5 v=59
14494 Off ch=1 n=d7 v=0
14496 On ch=1 n=d6 v=78
14590 Off ch=1 n=d6 v=0
14590 Off ch=2 n=f#4 v=0
14592 Off ch=2 n=a4 v=0
14592 On ch=2 n=g3 v=50
14592 On ch=1 n=g6 v=74
14594 Off ch=2 n=d5 v=0
14974 Off ch=2 n=g3 v=0
14976 On ch=2 n=g4 v=64
14978 On ch=2 n=b4 v=64
14980 On ch=2 n=d5 v=64
15262 Off ch=1 n=g6 v=0
15264 On ch=1 n=f#6 v=76
15358 Off ch=1 n=f#6 v=0
15358 Off ch=2 n=g4 v=0
15360 Off ch=2 n=b4 v=0
15360 On ch=2 n=b3 v=50
15360 On ch=1 n=b6 v=73
15362 Off ch=2 n=d5 v=0
15742 Off ch=2 n=b3 v=0
15744 On ch=2 n=f#4 v=56
15746 On ch=2 n=b4 v=64
15748 On ch=2 n=d5 v=73
15838 Off ch=1 n=b6 v=0
15840 On ch=1 n=a6 v=81
15934 Off ch=1 n=a6 v=0
15936 On ch=1 n=f#6 v=72
16030 Off ch=1 n=f#6 v=0
16032 On ch=1 n=a6 v=78
16126 Off ch=1 n=a6 v=0
16126 Off ch=2 n=f#4 v=0
16128 Off ch=2 n=b4 v=0
16128 On ch=2 n=e3 v=51
16128 On ch=1 n=g6 v=71
16130 Off ch=2 n=d5 v=0
16174 Off ch=1 n=g6 v=0
16176 On ch=1 n=e6 v=69
16222 Off ch=1 n=e6 v=0
16224 On ch=1 n=f#6 v=81
16318 Off ch=1 n=f#6 v=0
16320 On ch=1 n=f#6 v=75
16510 Off ch=2 n=e3 v=0
16512 On ch=2 n=g4 v=56
16514 On ch=2 n=b4 v=60
16516 On ch=2 n=d5 v=64
16894 Off ch=2 n=g4 v=0
16896 Off ch=2 n=b4 v=0
16896 On ch=2 n=a3 v=56
16898 Off ch=2 n=d5 v=0
17022 Off ch=1 n=f#6 v=0
17024 On ch=1 n=d#6 v=77
17150 Off ch=1 n=d#6 v=0
17152 On ch=1 n=f#6 v=72
17278 Off ch=1 n=f#6 v=0
17278 Off ch=2 n=a3 v=0
17280 On ch=2 n=a4 v=64
17280 On ch=1 n=g6 v=70
17282 On ch=2 n=c#5 v=67
17284 On ch=2 n=g5 v=65
17406 Off ch=1 n=g6 v=0
17408 On ch=1 n=a6 v=69
17534 Off ch=1 n=a6 v=0
17536 On ch=1 n=c#7 v=80
17662 Off ch=1 n=c#7 v=0
17662 Off ch=2 n=a4 v=0
17664 Off ch=2 n=c#5 v=0
17664 On ch=2 n=d3 v=65
17664 On ch=1 n=f#6 v=59
17666 Off ch=2 n=g5 v=0
17678 Off ch=1 n=f#6 v=0
17696 On ch=1 n=b6 v=79
17790 Off ch=1 n=b6 v=0
17792 On ch=1 n=f#6 v=57
17806 Off ch=1 n=f#6 v=0
17824 On ch=1 n=b6 v=83
18046 Off ch=1 n=b6 v=0
18046 Off ch=2 n=d3 v=0
18048 On ch=2 n=b4 v=61
18048 On ch=1 n=b6 v=70
18050 On ch=2 n=d5 v=59
18052 On ch=2 n=f#5 v=56
18430 Off ch=1 n=b6 v=0
18430 Off ch=2 n=b4 v=0
18432 Off ch=2 n=d5 v=0
18432 On ch=2 n=e3 v=57
18432 On ch=1 n=c#7 v=77
18434 Off ch=2 n=f#5 v=0
18718 Off ch=1 n=c#7 v=0
18720 On ch=1 n=e7 v=71
18814 Off ch=1 n=e7 v=0
18814 Off ch=2 n=e3 v=0
18816 On ch=2 n=e4 v=65
18816 On ch=1 n=b6 v=72
18818 On ch=2 n=g#4 v=65
18820 On ch=2 n=d5 v=65
18862 Off ch=1 n=b6 v=0
18864 On ch=1 n=a6 v=67
18910 Off ch=1 n=a6 v=0
18912 On ch=1 n=b6 v=83
19150 Off ch=1 n=b6 v=0
19152 On ch=1 n=c#7 v=78
19198 Off ch=1 n=c#7 v=0
19198 Off ch=2 n=e4 v=0
19200 Off ch=2 n=g#4 v=0
19200 On ch=2 n=a3 v=58
19200 On ch=1 n=f#6 v=82
19202 Off ch=2 n=d5 v=0
19582 Off ch=2 n=a3 v=0
19584 On ch=2 n=a4 v=66
19586 On ch=2 n=f#5 v=55
19588 On ch=2 n=c#5 v=71
19870 Off ch=1 n=f#6 v=0
19872 On ch=1 n=g#6 v=70
19966 Off ch=1 n=g#6 v=0
19966 Off ch=2 n=a4 v=0
19968 Off ch=2 n=f#5 v=0
19968 On ch=2 n=e3 v=61
19968 On ch=1 n=b6 v=81
19970 Off ch=2 n=c#5 v=0
20014 Off ch=1 n=b6 v=0
20016 On ch=1 n=c#7 v=67
20062 Off ch=1 n=c#7 v=0
20064 On ch=1 n=d7 v=81
20110 Off ch=1 n=d7 v=0
20112 On ch=1 n=c#7 v=66
20158 Off ch=1 n=c#7 v=0
20160 On ch=1 n=b6 v=71
20206 Off ch=1 n=b6 v=0
20208 On ch=1 n=a6 v=79
20254 Off ch=1 n=a6 v=0
20256 On ch=1 n=g#6 v=65
20302 Off ch=1 n=g#6 v=0
20304 On ch=1 n=f#6 v=72
20350 Off ch=1 n=f#6 v=0
20350 Off ch=2 n=e3 v=0
20352 On ch=2 n=e4 v=60
20352 On ch=1 n=g#6 v=70
20354 On ch=2 n=g#4 v=64
20356 On ch=2 n=d5 v=59
20638 Off ch=1 n=g#6 v=0
20640 On ch=1 n=f#6 v=69
20734 Off ch=1 n=f#6 v=0
20734 Off ch=2 n=e4 v=0
20736 Off ch=2 n=g#4 v=0
20736 On ch=2 n=a3 v=60
20736 On ch=1 n=c#7 v=65
20738 Off ch=2 n=d5 v=0
21118 Off ch=2 n=a3 v=0
21120 On ch=2 n=a4 v=68
21122 On ch=2 n=c#5 v=63
21124 On ch=2 n=f#5 v=53
21502 Off ch=2 n=a4 v=0
21502 Off ch=1 n=c#7 v=0
21504 Off ch=2 n=c#5 v=0
21504 TimeSig 6/4 24 8
21504 On ch=2 n=e3 v=60
21504 On ch=1 n=e6 v=67
21506 Off ch=2 n=f#5 v=0
21886 Off ch=2 n=e3 v=0
21888 On ch=2 n=e4 v=64
21890 On ch=2 n=g#4 v=55
21892 On ch=2 n=d5 v=59
22174 Off ch=1 n=e6 v=0
22176 On ch=1 n=e6 v=72
22270 Off ch=1 n=e6 v=0
22270 Off ch=2 n=e4 v=0
22272 Off ch=2 n=g#4 v=0
22272 On ch=2 n=g3 v=58
22272 On ch=1 n=b5 v=74
22274 Off ch=2 n=d5 v=0
22366 Off ch=1 n=b5 v=0
22368 On ch=1 n=a5 v=71
22462 Off ch=1 n=a5 v=0
22464 On ch=1 n=b5 v=73
22558 Off ch=1 n=b5 v=0
22560 On ch=1 n=c6 v=83
22654 Off ch=1 n=c6 v=0
22654 Off ch=2 n=g3 v=0
22656 On ch=2 n=g4 v=55
22656 On ch=1 n=d6 v=70
22658 On ch=2 n=b4 v=59
22660 On ch=2 n=d5 v=73
22718 Off ch=1 n=d6 v=0
22720 On ch=1 n=e6 v=83
22782 Off ch=1 n=e6 v=0
22784 On ch=1 n=g6 v=68
22846 Off ch=1 n=g6 v=0
22848 On ch=1 n=f#6 v=72
22990 Off ch=1 n=f#6 v=0
22992 On ch=1 n=a5 v=68
23038 Off ch=1 n=a5 v=0
23038 Off ch=2 n=g4 v=0
23040 Off ch=2 n=b4 v=0
23040 On ch=2 n=d3 v=50
23040 On ch=1 n=d6 v=74
23042 Off ch=2 n=d5 v=0
23422 Off ch=2 n=d3 v=0
23424 On ch=2 n=f#4 v=64
23426 On ch=2 n=a4 v=56
23428 On ch=2 n=d5 v=67
23710 Off ch=1 n=d6 v=0
23712 On ch=1 n=d6 v=80
23806 Off ch=1 n=d6 v=0
23806 Off ch=2 n=f#4 v=0
23808 Off ch=2 n=a4 v=0
23808 TimeSig 4/4 24 8
23808 On ch=2 n=g3 v=69
23808 On ch=1 n=g6 v=77
23810 Off ch=2 n=d5 v=0
24190 Off ch=2 n=g3 v=0
24192 On ch=2 n=g4 v=60
24194 On ch=2 n=b4 v=71
24196 On ch=2 n=d5 v=62
24286 Off ch=1 n=g6 v=0
24288 On ch=1 n=f#6 v=82
24382 Off ch=1 n=f#6 v=0
24384 On ch=1 n=d6 v=79
24478 Off ch=1 n=d6 v=0
24480 On ch=1 n=f#6 v=80
24574 Off ch=1 n=f#6 v=0
24574 Off ch=2 n=g4 v=0
24576 Off ch=2 n=b4 v=0
24576 On ch=2 n=c4 v=68
24576 On ch=1 n=e6 v=69
24578 Off ch=2 n=d5 v=0
24622 Off ch=1 n=e6 v=0
24624 On ch=1 n=c6 v=79
24670 Off ch=1 n=c6 v=0
24672 On ch=1 n=e6 v=73
24766 Off ch=1 n=e6 v=0
24768 On ch=1 n=e6 v=70
24958 Off ch=2 n=c4 v=0
24960 On ch=2 n=g4 v=55
24962 On ch=2 n=c5 v=62
24964 On ch=2 n=e5 v=62
25342 Off ch=2 n=g4 v=0
25344 Off ch=2 n=c5 v=0
25344 On ch=2 n=a3 v=53
25346 Off ch=2 n=e5 v=0
25726 Off ch=2 n=a3 v=0
25728 On ch=2 n=a4 v=52
25730 On ch=2 n=c5 v=52
25732 On ch=2 n=e5 v=52
26110 Off ch=2 n=a4 v=0
26112 Off ch=2 n=c5 v=0
26112 On ch=2 n=e3 v=53
26114 Off ch=2 n=e5 v=0
26206 Off ch=1 n=e6 v=0
26208 On ch=1 n=f#6 v=73
26302 Off ch=1 n=f#6 v=0
26304 On ch=1 n=g6 v=69
26398 Off ch=1 n=g6 v=0
26400 On ch=1 n=a6 v=74
26494 Off ch=1 n=a6 v=0
26494 Off ch=2 n=e3 v=0
26496 On ch=2 n=g4 v=58
26496 On ch=1 n=b6 v=79
26498 On ch=2 n=b4 v=67
26500 On ch=2 n=e5 v=61
26590 Off ch=1 n=b6 v=0
26592 On ch=1 n=c7 v=67
26686 Off ch=1 n=c7 v=0
26688 On ch=1 n=d7 v=67
26718 Off ch=1 n=d7 v=0
26720 On ch=1 n=e7 v=67
26750 Off ch=1 n=e7 v=0
26752 On ch=1 n=f#7 v=71
26782 Off ch=1 n=f#7 v=0
26784 On ch=1 n=e7 v=77
26878 Off ch=1 n=e7 v=0
26878 Off ch=2 n=g4 v=0
26880 Off ch=2 n=b4 v=0
26880 On ch=2 n=g3 v=62
26880 On ch=1 n=d7 v=71
26882 Off ch=2 n=e5 v=0
26974 Off ch=1 n=d7 v=0
26976 On ch=1 n=b6 v=73
27070 Off ch=1 n=b6 v=0
27072 On ch=1 n=d7 v=80
27262 Off ch=2 n=g3 v=0
27264 On ch=2 n=g4 v=55
27266 On ch=2 n=b4 v=66
27268 On ch=2 n=d5 v=61
27454 Off ch=1 n=d7 v=0
27456 On ch=1 n=c7 v=72
27550 Off ch=1 n=c7 v=0
27552 On ch=1 n=d7 v=75
27646 Off ch=1 n=d7 v=0
27646 Off ch=2 n=g4 v=0
27648 Off ch=2 n=b4 v=0
27648 On ch=2 n=d3 v=62
27648 On ch=1 n=a6 v=72
27650 Off ch=2 n=d5 v=0
28030 Off ch=2 n=d3 v=0
28032 On ch=2 n=g4 v=58
28034 On ch=2 n=b4 v=61
28036 On ch=2 n=d5 v=60
28318 Off ch=1 n=a6 v=0
28320 On ch=1 n=b6 v=75
28414 Off ch=1 n=b6 v=0
28414 Off ch=2 n=g4 v=0
28416 Off ch=2 n=b4 v=0
28416 On ch=2 n=b2 v=57
28416 On ch=1 n=f#6 v=75
28418 Off ch=2 n=d5 v=0
28798 Off ch=1 n=f#6 v=0
28798 Off ch=2 n=b2 v=0
28800 On ch=2 n=f#4 v=61
28800 On ch=1 n=b5 v=72
28802 On ch=2 n=b4 v=61
28804 On ch=2 n=d5 v=61
28990 Off ch=1 n=b5 v=0
28992 On ch=1 n=d6 v=70
29182 Off ch=1 n=d6 v=0
29182 Off ch=2 n=f#4 v=0
29184 Off ch=2 n=b4 v=0
29184 On ch=2 n=e3 v=60
29184 On ch=1 n=e6 v=72
29186 Off ch=2 n=d5 v=0
29246 Off ch=1 n=e6 v=0
29248 On ch=1 n=b5 v=70
29298 Off ch=1 n=b5 v=0
29300 On ch=1 n=d6 v=67
29350 Off ch=1 n=d6 v=0
29352 On ch=1 n=e6 v=79
29398 Off ch=1 n=e6 v=0
29400 On ch=1 n=f#6 v=77
29454 Off ch=1 n=f#6 v=0
29456 On ch=1 n=d6 v=65
29514 Off ch=1 n=d6 v=0
29516 On ch=1 n=g6 v=81
29566 Off ch=1 n=g6 v=0
29566 Off ch=2 n=e3 v=0
29568 On ch=2 n=g4 v=60
29568 On ch=1 n=e6 v=76
29570 On ch=2 n=b4 v=57
29572 On ch=2 n=e5 v=65
29950 Off ch=1 n=e6 v=0
29950 Off ch=2 n=g4 v=0
29952 Off ch=2 n=b4 v=0
29952 On ch=2 n=c3 v=68
29952 On ch=1 n=g6 v=72
29954 Off ch=2 n=e5 v=0
29998 Off ch=1 n=g6 v=0
30000 On ch=1 n=c7 v=78
30334 Off ch=2 n=c3 v=0
30336 On ch=2 n=g4 v=70
30338 On ch=2 n=c5 v=66
30340 On ch=2 n=e5 v=61
30430 Off ch=1 n=c7 v=0
30432 On ch=1 n=b6 v=67
30526 Off ch=1 n=b6 v=0
30528 On ch=1 n=a6 v=67
30622 Off ch=1 n=a6 v=0
30624 On ch=1 n=b6 v=67
30718 Off ch=1 n=b6 v=0
30718 Off ch=2 n=g4 v=0
30720 Off ch=2 n=c5 v=0
30720 On ch=2 n=f3 v=68
30720 On ch=1 n=a6 v=80
30722 Off ch=2 n=e5 v=0
30766 Off ch=1 n=a6 v=0
30768 On ch=1 n=f6 v=67
30814 Off ch=1 n=f6 v=0
30816 On ch=1 n=a6 v=72
30910 Off ch=1 n=a6 v=0
30912 On ch=1 n=a6 v=65
31102 Off ch=2 n=f3 v=0
31104 On ch=2 n=a4 v=59
31106 On ch=2 n=c5 v=67
31108 On ch=2 n=f5 v=57
31486 Off ch=2 n=a4 v=0
31488 Off ch=2 n=c5 v=0
31488 On ch=2 n=g3 v=66
31490 Off ch=2 n=f5 v=0
31614 Off ch=1 n=a6 v=0
31616 On ch=1 n=d6 v=75
31742 Off ch=1 n=d6 v=0
31744 On ch=1 n=e6 v=66
31870 Off ch=1 n=e6 v=0
31870 Off ch=2 n=g3 v=0
31872 On ch=2 n=g4 v=66
31872 On ch=1 n=f6 v=69
31874 On ch=2 n=b4 v=60
31876 On ch=2 n=f5 v=66
31998 Off ch=1 n=f6 v=0
32000 On ch=1 n=g6 v=68
32126 Off ch=1 n=g6 v=0
32128 On ch=1 n=b6 v=84
32254 Off ch=1 n=b6 v=0
32254 Off ch=2 n=g4 v=0
32256 Off ch=2 n=b4 v=0
32256 On ch=2 n=c3 v=56
32256 On ch=1 n=e6 v=53
32258 Off ch=2 n=f5 v=0
32270 Off ch=1 n=e6 v=0
32288 On ch=1 n=a6 v=83
32382 Off ch=1 n=a6 v=0
32384 On ch=1 n=e6 v=52
32398 Off ch=1 n=e6 v=0
32416 On ch=1 n=a6 v=71
32510 Off ch=1 n=a6 v=0
32512 On ch=1 n=a6 v=65
32638 Off ch=1 n=a6 v=0
32638 Off ch=2 n=c3 v=0
32640 On ch=2 n=a4 v=59
32640 On ch=1 n=a6 v=49
32642 On ch=2 n=c5 v=63
32644 On ch=2 n=e5 v=63
33022 Off ch=1 n=a6 v=0
33022 Off ch=2 n=a4 v=0
33024 Off ch=2 n=c5 v=0
33024 On ch=2 n=d3 v=58
33024 On ch=1 n=b6 v=80
33026 Off ch=2 n=e5 v=0
33310 Off ch=1 n=b6 v=0
33312 On ch=1 n=d7 v=79
33406 Off ch=1 n=d7 v=0
33406 Off ch=2 n=d3 v=0
33408 On ch=2 n=d4 v=57
33408 On ch=1 n=a6 v=66
33410 On ch=2 n=f#4 v=58
33412 On ch=2 n=c5 v=57
33454 Off ch=1 n=a6 v=0
33456 On ch=1 n=g6 v=70
33502 Off ch=1 n=g6 v=0
33504 On ch=1 n=a6 v=67
33742 Off ch=1 n=a6 v=0
33744 On ch=1 n=b6 v=54
33790 Off ch=1 n=b6 v=0
33790 Off ch=2 n=d4 v=0
33792 Off ch=2 n=f#4 v=0
33792 On ch=2 n=g3 v=53
33792 On ch=1 n=e6 v=68
33794 Off ch=2 n=c5 v=0
34174 Off ch=2 n=g3 v=0
34176 On ch=2 n=g4 v=57
34178 On ch=2 n=b4 v=70
34180 On ch=2 n=e5 v=55
34462 Off ch=1 n=e6 v=0
34464 On ch=1 n=f#6 v=83
34558 Off ch=1 n=f#6 v=0
34558 Off ch=2 n=g4 v=0
34560 Off ch=2 n=b4 v=0
34560 On ch=2 n=d3 v=51
34560 On ch=1 n=a6 v=77
34562 Off ch=2 n=e5 v=0
34606 Off ch=1 n=a6 v=0
34608 On ch=1 n=b6 v=75
34654 Off ch=1 n=b6 v=0
34656 On ch=1 n=c7 v=74
34702 Off ch=1 n=c7 v=0
34704 On ch=1 n=b6 v=72
34750 Off ch=1 n=b6 v=0
34752 On ch=1 n=a6 v=70
34798 Off ch=1 n=a6 v=0
34800 On ch=1 n=g6 v=68
34846 Off ch=1 n=g6 v=0
34848 On ch=1 n=f#6 v=67
34894 Off ch=1 n=f#6 v=0
34896 On ch=1 n=e6 v=65
34942 Off ch=1 n=e6 v=0
34942 Off ch=2 n=d3 v=0
34944 On ch=2 n=d4 v=62
34944 On ch=1 n=f#6 v=63
34946 On ch=2 n=f#4 v=62
34948 On ch=2 n=c5 v=62
35230 Off ch=1 n=f#6 v=0
35232 On ch=1 n=e6 v=69
35326 Off ch=1 n=e6 v=0
35326 Off ch=2 n=d4 v=0
35328 Off ch=2 n=f#4 v=0
35328 On ch=2 n=g3 v=61
35328 On ch=1 n=b6 v=56
35330 Off ch=2 n=c5 v=0
35710 Off ch=2 n=g3 v=0
35712 On ch=2 n=g4 v=62
35714 On ch=2 n=b4 v=58
35716 On ch=2 n=e5 v=70
36094 Off ch=2 n=g4 v=0
36094 Off ch=1 n=b6 v=0
36096 Off ch=2 n=b4 v=0
36096 TimeSig 6/4 24 8
36096 On ch=2 n=d3 v=53
36096 On ch=1 n=d7 v=77
36098 Off ch=2 n=e5 v=0
36478 Off ch=2 n=d3 v=0
36480 On ch=2 n=d4 v=57
36482 On ch=2 n=f#4 v=63
36484 On ch=2 n=c5 v=59
36766 Off ch=1 n=d7 v=0
36768 On ch=1 n=d7 v=72
36862 Off ch=1 n=d7 v=0
36862 Off ch=2 n=d4 v=0
36864 Off ch=2 n=f#4 v=0
36864 On ch=2 n=f3 v=62
36864 On ch=1 n=a6 v=78
36866 Off ch=2 n=c5 v=0
36958 Off ch=1 n=a6 v=0
36960 On ch=1 n=g6 v=68
37054 Off ch=1 n=g6 v=0
37056 On ch=1 n=a6 v=77
37150 Off ch=1 n=a6 v=0
37152 On ch=1 n=a#6 v=83
37246 Off ch=1 n=a#6 v=0
37246 Off ch=2 n=f3 v=0
37248 On ch=2 n=f4 v=70
37248 On ch=1 n=c7 v=76
37250 On ch=2 n=a4 v=56
37252 On ch=2 n=c5 v=60
37310 Off ch=1 n=c7 v=0
37312 On ch=1 n=d7 v=81
37374 Off ch=1 n=d7 v=0
37376 On ch=1 n=f7 v=72
37438 Off ch=1 n=f7 v=0
37440 On ch=1 n=e7 v=81
37582 Off ch=1 n=e7 v=0
37584 On ch=1 n=g6 v=53
37630 Off ch=1 n=g6 v=0
37630 Off ch=2 n=f4 v=0
37632 Off ch=2 n=a4 v=0
37632 On ch=2 n=c3 v=58
37632 On ch=1 n=c7 v=73
37634 Off ch=2 n=c5 v=0
38014 Off ch=2 n=c3 v=0
38016 On ch=2 n=g4 v=60
38018 On ch=2 n=c5 v=61
38020 On ch=2 n=e5 v=62
38302 Off ch=1 n=c7 v=0
38304 On ch=1 n=d6 v=72
38398 Off ch=1 n=d6 v=0
38398 Off ch=2 n=g4 v=0
38400 Off ch=2 n=c5 v=0
38400 TimeSig 4/4 24 8
38400 On ch=2 n=g3 v=57
38400 On ch=1 n=g6 v=69
38402 Off ch=2 n=e5 v=0
38782 Off ch=2 n=g3 v=0
38784 On ch=2 n=g4 v=67
38786 On ch=2 n=b4 v=68
38788 On ch=2 n=d5 v=65
38878 Off ch=1 n=g6 v=0
38880 On ch=1 n=f#6 v=77
38974 Off ch=1 n=f#6 v=0
38976 On ch=1 n=d6 v=84
39070 Off ch=1 n=d6 v=0
39072 On ch=1 n=f#6 v=66
39166 Off ch=1 n=f#6 v=0
39166 Off ch=2 n=g4 v=0
39168 Off ch=2 n=b4 v=0
39168 On ch=2 n=c4 v=62
39168 On ch=1 n=e6 v=62
39170 Off ch=2 n=d5 v=0
39214 Off ch=1 n=e6 v=0
39216 On ch=1 n=c6 v=66
39262 Off ch=1 n=c6 v=0
39264 On ch=1 n=e6 v=73
39358 Off ch=1 n=e6 v=0
39360 On ch=1 n=e6 v=73
39550 Off ch=2 n=c4 v=0
39552 On ch=2 n=g4 v=64
39554 On ch=2 n=c5 v=66
39556 On ch=2 n=e5 v=61
39934 Off ch=2 n=g4 v=0
39936 Off ch=2 n=c5 v=0
39936 On ch=2 n=a3 v=61
39938 Off ch=2 n=e5 v=0
40318 Off ch=2 n=a3 v=0
40320 On ch=2 n=a4 v=57
40322 On ch=2 n=c5 v=61
40324 On ch=2 n=e5 v=69
40702 Off ch=2 n=a4 v=0
40704 Off ch=2 n=c5 v=0
40704 On ch=2 n=e3 v=56
40706 Off ch=2 n=e5 v=0
40798 Off ch=1 n=e6 v=0
40800 On ch=1 n=f#6 v=78
40894 Off ch=1 n=f#6 v=0
40896 On ch=1 n=g6 v=77
40990 Off ch=1 n=g6 v=0
40992 On ch=1 n=a6 v=82
41086 Off ch=1 n=a6 v=0
41086 Off ch=2 n=e3 v=0
41088 On ch=2 n=g4 v=62
41088 On ch=1 n=b6 v=68
41090 On ch=2 n=b4 v=68
41092 On ch=2 n=e5 v=58
41182 Off ch=1 n=b6 v=0
41184 On ch=1 n=c7 v=84
41278 Off ch=1 n=c7 v=0
41280 On ch=1 n=d7 v=61
41310 Off ch=1 n=d7 v=0
41312 On ch=1 n=e7 v=62
41342 Off ch=1 n=e7 v=0
41344 On ch=1 n=f#7 v=70
41374 Off ch=1 n=f#7 v=0
41376 On ch=1 n=e7 v=66
41470 Off ch=1 n=e7 v=0
41470 Off ch=2 n=g4 v=0
41472 Off ch=2 n=b4 v=0
41472 On ch=2 n=g3 v=57
41472 On ch=1 n=d7 v=74
41474 Off ch=2 n=e5 v=0
41566 Off ch=1 n=d7 v=0
41568 On ch=1 n=b6 v=72
41662 Off ch=1 n=b6 v=0
41664 On ch=1 n=d7 v=65
41854 Off ch=2 n=g3 v=0
41856 On ch=2 n=g4 v=62
41858 On ch=2 n=b4 v=62
41860 On ch=2 n=d5 v=62
42046 Off ch=1 n=d7 v=0
42048 On ch=1 n=c7 v=75
42142 Off ch=1 n=c7 v=0
42144 On ch=1 n=d7 v=78
42238 Off ch=1 n=d7 v=0
42238 Off ch=2 n=g4 v=0
42240 Off ch=2 n=b4 v=0
42240 On ch=2 n=d3 v=53
42240 On ch=1 n=a6 v=70
42242 Off ch=2 n=d5 v=0
42622 Off ch=2 n=d3 v=0
42624 On ch=2 n=f#4 v=62
42626 On ch=2 n=a4 v=62
42628 On ch=2 n=d5 v=62
42910 Off ch=1 n=a6 v=0
42912 On ch=1 n=b6 v=70
43006 Off ch=1 n=b6 v=0
43006 Off ch=2 n=f#4 v=0
43008 Off ch=2 n=a4 v=0
43008 On ch=2 n=b2 v=56
43008 On ch=1 n=f#6 v=59
43010 Off ch=2 n=d5 v=0
43390 Off ch=1 n=f#6 v=0
43390 Off ch=2 n=b2 v=0
43392 On ch=2 n=f#4 v=56
43392 On ch=1 n=b5 v=78
43394 On ch=2 n=b4 v=58
43396 On ch=2 n=d5 v=61
43582 Off ch=1 n=b5 v=0
43584 On ch=1 n=d6 v=66
43774 Off ch=1 n=d6 v=0
43774 Off ch=2 n=f#4 v=0
43776 Off ch=2 n=b4 v=0
43776 On ch=2 n=e3 v=51
43776 On ch=1 n=e6 v=77
43778 Off ch=2 n=d5 v=0
43838 Off ch=1 n=e6 v=0
43840 On ch=1 n=b5 v=63
43890 Off ch=1 n=b5 v=0
43892 On ch=1 n=d6 v=63
43942 Off ch=1 n=d6 v=0
43944 On ch=1 n=e6 v=63
43990 Off ch=1 n=e6 v=0
43992 On ch=1 n=f#6 v=65
44046 Off ch=1 n=f#6 v=0
44048 On ch=1 n=d6 v=57
44106 Off ch=1 n=d6 v=0
44108 On ch=1 n=g6 v=76
44158 Off ch=1 n=g6 v=0
44158 Off ch=2 n=e3 v=0
44160 On ch=2 n=g4 v=55
44160 On ch=1 n=e6 v=75
44162 On ch=2 n=b4 v=55
44164 On ch=2 n=e5 v=55
44542 Off ch=1 n=e6 v=0
44542 Off ch=2 n=g4 v=0
44544 Off ch=2 n=b4 v=0
44544 On ch=2 n=d3 v=54
44544 On ch=1 n=d6 v=75
44546 Off ch=2 n=e5 v=0
44590 Off ch=1 n=d6 v=0
44592 On ch=1 n=a6 v=69
44926 Off ch=2 n=d3 v=0
44928 On ch=2 n=f4 v=62
44930 On ch=2 n=a4 v=58
44932 On ch=2 n=d5 v=63
45310 Off ch=2 n=f4 v=0
45310 Off ch=1 n=a6 v=0
45312 Off ch=2 n=a4 v=0
45312 On ch=2 n=b2 v=52
45312 On ch=1 n=b6 v=74
45314 Off ch=2 n=d5 v=0
45694 Off ch=1 n=b6 v=0
45694 Off ch=2 n=b2 v=0
45696 On ch=2 n=f#4 v=63
45696 On ch=1 n=a6 v=71
45698 On ch=2 n=b4 v=55
45700 On ch=2 n=d5 v=64
45790 Off ch=1 n=a6 v=0
45792 On ch=1 n=b6 v=82
45886 Off ch=1 n=b6 v=0
45888 On ch=1 n=a6 v=68
45982 Off ch=1 n=a6 v=0
45984 On ch=1 n=b6 v=72
46078 Off ch=1 n=b6 v=0
46078 Off ch=2 n=f#4 v=0
46080 Off ch=2 n=b4 v=0
46080 On ch=2 n=e3 v=60
46080 On ch=1 n=c#7 v=84
46082 Off ch=2 n=d5 v=0
46366 Off ch=1 n=c#7 v=0
46368 On ch=1 n=e7 v=82
46462 Off ch=1 n=e7 v=0
46462 Off ch=2 n=e3 v=0
46464 On ch=2 n=e4 v=62
46464 On ch=1 n=b6 v=84
46466 On ch=2 n=g#4 v=54
46468 On ch=2 n=d5 v=66
46510 Off ch=1 n=b6 v=0
46512 On ch=1 n=a6 v=77
46558 Off ch=1 n=a6 v=0
46560 On ch=1 n=b6 v=68
46798 Off ch=1 n=b6 v=0
46800 On ch=1 n=c#7 v=70
46846 Off ch=1 n=c#7 v=0
46846 Off ch=2 n=e4 v=0
46848 Off ch=2 n=g#4 v=0
46848 On ch=2 n=a3 v=55
46848 On ch=1 n=f#6 v=60
46850 Off ch=2 n=d5 v=0
47230 Off ch=2 n=a3 v=0
47232 On ch=2 n=f#4 v=55
47234 On ch=2 n=c#5 v=55
47236 On ch=2 n=f#5 v=55
47518 Off ch=1 n=f#6 v=0
47520 On ch=1 n=g#6 v=77
47614 Off ch=1 n=g#6 v=0
47614 Off ch=2 n=f#4 v=0
47616 Off ch=2 n=c#5 v=0
47616 On ch=2 n=e3 v=61
47616 On ch=1 n=b6 v=67
47618 Off ch=2 n=f#5 v=0
47662 Off ch=1 n=b6 v=0
47664 On ch=1 n=c#7 v=76
47710 Off ch=1 n=c#7 v=0
47712 On ch=1 n=d7 v=79
47758 Off ch=1 n=d7 v=0
47760 On ch=1 n=c#7 v=66
47806 Off ch=1 n=c#7 v=0
47808 On ch=1 n=b6 v=69
47854 Off ch=1 n=b6 v=0
47856 On ch=1 n=a6 v=67
47902 Off ch=1 n=a6 v=0
47904 On ch=1 n=g#6 v=73
47950 Off ch=1 n=g#6 v=0
47952 On ch=1 n=f#6 v=61
47998 Off ch=1 n=f#6 v=0
47998 Off ch=2 n=e3 v=0
48000 On ch=2 n=e4 v=59
48000 On ch=1 n=g#6 v=65
48002 On ch=2 n=g#4 v=60
48004 On ch=2 n=d5 v=61
48286 Off ch=1 n=g#6 v=0
48288 On ch=1 n=f#6 v=66
48382 Off ch=1 n=f#6 v=0
48382 Off ch=2 n=e4 v=0
48384 Off ch=2 n=g#4 v=0
48384 On ch=2 n=a3 v=64
48384 On ch=1 n=c#7 v=66
48386 Off ch=2 n=d5 v=0
48766 Off ch=2 n=a3 v=0
48768 On ch=2 n=a4 v=52
48770 On ch=2 n=c#5 v=53
48772 On ch=2 n=f#5 v=61
49150 Off ch=2 n=a4 v=0
49150 Off ch=1 n=c#7 v=0
49152 Off ch=2 n=c#5 v=0
49152 On ch=2 n=e3 v=54
49152 On ch=1 n=e7 v=65
49154 Off ch=2 n=f#5 v=0
49534 Off ch=2 n=e3 v=0
49536 On ch=2 n=e4 v=52
49536 On ch=2 n=g#4 v=58
49536 On ch=2 n=d5 v=64
49822 Off ch=1 n=e7 v=0
49824 On ch=1 n=e7 v=67
49918 Off ch=1 n=e7 v=0
49918 Off ch=2 n=d5 v=0
49918 Off ch=2 n=g#4 v=0
49918 Off ch=2 n=e4 v=0
49920 On ch=2 n=g3 v=61
49920 On ch=1 n=b6 v=78
50014 Off ch=1 n=b6 v=0
50016 On ch=1 n=a6 v=74
50110 Off ch=1 n=a6 v=0
50112 On ch=1 n=b6 v=83
50206 Off ch=1 n=b6 v=0
50208 On ch=1 n=c7 v=68
50302 Off ch=1 n=c7 v=0
50302 Off ch=2 n=g3 v=0
50304 On ch=2 n=g4 v=65
50304 On ch=2 n=b4 v=65
50304 On ch=2 n=d5 v=63
50304 On ch=1 n=d7 v=65
50366 Off ch=1 n=d7 v=0
50368 On ch=1 n=e7 v=62
50430 Off ch=1 n=e7 v=0
50432 On ch=1 n=g7 v=60
50494 Off ch=1 n=g7 v=0
50496 On ch=1 n=f#7 v=60
50638 Off ch=1 n=f#7 v=0
50640 On ch=1 n=a6 v=69
50686 Off ch=1 n=a6 v=0
50686 Off ch=2 n=d5 v=0
50686 Off ch=2 n=b4 v=0
50686 Off ch=2 n=g4 v=0
50688 On ch=2 n=d3 v=51
50688 On ch=1 n=d7 v=69
51070 Off ch=2 n=d3 v=0
51072 On ch=2 n=f#4 v=63
51074 On ch=2 n=a4 v=61
51076 On ch=2 n=d5 v=57
51358 Off ch=1 n=d7 v=0
51360 On ch=1 n=d6 v=73
51454 Off ch=1 n=d6 v=0
51454 Off ch=2 n=f#4 v=0
51456 Off ch=2 n=a4 v=0
51456 On ch=2 n=g3 v=51
51456 On ch=1 n=g6 v=84
51458 Off ch=2 n=d5 v=0
51838 Off ch=2 n=g3 v=0
51840 On ch=2 n=g4 v=60
51842 On ch=2 n=b4 v=63
51844 On ch=2 n=d5 v=68
52126 Off ch=1 n=g6 v=0
52128 On ch=1 n=f#6 v=83
52222 Off ch=1 n=f#6 v=0
52222 Off ch=2 n=g4 v=0
52224 Off ch=2 n=b4 v=0
52224 On ch=2 n=b3 v=58
52224 On ch=1 n=b6 v=84
52226 Off ch=2 n=d5 v=0
52606 Off ch=2 n=b3 v=0
52608 On ch=2 n=f#4 v=59
52610 On ch=2 n=b4 v=63
52612 On ch=2 n=d5 v=71
52702 Off ch=1 n=b6 v=0
52704 On ch=1 n=a6 v=72
52798 Off ch=1 n=a6 v=0
52800 On ch=1 n=f#6 v=83
52894 Off ch=1 n=f#6 v=0
52896 On ch=1 n=a6 v=79
52990 Off ch=1 n=a6 v=0
52990 Off ch=2 n=f#4 v=0
52992 Off ch=2 n=b4 v=0
52992 On ch=2 n=e3 v=50
52992 On ch=1 n=g6 v=79
52994 Off ch=2 n=d5 v=0
53038 Off ch=1 n=g6 v=0
53040 On ch=1 n=e6 v=77
53086 Off ch=1 n=e6 v=0
53088 On ch=1 n=f#6 v=70
53182 Off ch=1 n=f#6 v=0
53184 On ch=1 n=f#6 v=59
53374 Off ch=2 n=e3 v=0
53376 On ch=2 n=g4 v=65
53378 On ch=2 n=b4 v=57
53380 On ch=2 n=d5 v=55
53758 Off ch=2 n=g4 v=0
53760 Off ch=2 n=b4 v=0
53760 On ch=2 n=a3 v=59
53762 Off ch=2 n=d5 v=0
53886 Off ch=1 n=f#6 v=0
53888 On ch=1 n=d#6 v=71
54014 Off ch=1 n=d#6 v=0
54016 On ch=1 n=f#6 v=70
54142 Off ch=1 n=f#6 v=0
54142 Off ch=2 n=a3 v=0
54144 On ch=2 n=a4 v=56
54144 On ch=1 n=g6 v=69
54146 On ch=2 n=c#5 v=64
54148 On ch=2 n=g5 v=58
54270 Off ch=1 n=g6 v=0
54272 On ch=1 n=a6 v=71
54398 Off ch=1 n=a6 v=0
54400 On ch=1 n=c#7 v=60
54526 Off ch=1 n=c#7 v=0
54526 Off ch=2 n=a4 v=0
54528 Off ch=2 n=c#5 v=0
54528 On ch=2 n=d3 v=55
54528 On ch=1 n=f#6 v=53
54530 Off ch=2 n=g5 v=0
54542 Off ch=1 n=f#6 v=0
54560 On ch=1 n=b6 v=70
54654 Off ch=1 n=b6 v=0
54656 On ch=1 n=f#6 v=55
54670 Off ch=1 n=f#6 v=0
54688 On ch=1 n=b6 v=75
54910 Off ch=1 n=b6 v=0
54910 Off ch=2 n=d3 v=0
54912 On ch=2 n=b4 v=68
54912 On ch=1 n=b6 v=68
54914 On ch=2 n=d5 v=61
54916 On ch=2 n=f#5 v=64
55294 Off ch=1 n=b6 v=0
55294 Off ch=2 n=b4 v=0
55296 Off ch=2 n=d5 v=0
55296 On ch=2 n=e3 v=64
55296 On ch=1 n=c#7 v=68
55298 Off ch=2 n=f#5 v=0
55582 Off ch=1 n=c#7 v=0
55584 On ch=1 n=e7 v=62
55678 Off ch=1 n=e7 v=0
55678 Off ch=2 n=e3 v=0
55680 On ch=2 n=e4 v=55
55680 On ch=1 n=b6 v=68
55682 On ch=2 n=g#4 v=67
55684 On ch=2 n=d5 v=59
55726 Off ch=1 n=b6 v=0
55728 On ch=1 n=a6 v=77
55774 Off ch=1 n=a6 v=0
55776 On ch=1 n=b6 v=69
56014 Off ch=1 n=b6 v=0
56016 On ch=1 n=c#7 v=68
56062 Off ch=1 n=c#7 v=0
56062 Off ch=2 n=e4 v=0
56064 Off ch=2 n=g#4 v=0
56064 On ch=2 n=a3 v=63
56064 On ch=1 n=f#6 v=65
56066 Off ch=2 n=d5 v=0
56446 Off ch=2 n=a3 v=0
56448 On ch=2 n=a4 v=66
56450 On ch=2 n=c#5 v=63
56452 On ch=2 n=f#5 v=63
56734 Off ch=1 n=f#6 v=0
56736 On ch=1 n=g#6 v=82
56830 Off ch=1 n=g#6 v=0
56830 Off ch=2 n=a4 v=0
56832 Off ch=2 n=c#5 v=0
56832 On ch=2 n=e3 v=63
56832 On ch=1 n=b6 v=79
56834 Off ch=2 n=f#5 v=0
56878 Off ch=1 n=b6 v=0
56880 On ch=1 n=c#7 v=77
56926 Off ch=1 n=c#7 v=0
56928 On ch=1 n=d7 v=75
56974 Off ch=1 n=d7 v=0
56976 On ch=1 n=c#7 v=74
57022 Off ch=1 n=c#7 v=0
57024 On ch=1 n=b6 v=72
57070 Off ch=1 n=b6 v=0
57072 On ch=1 n=a6 v=71
57118 Off ch=1 n=a6 v=0
57120 On ch=1 n=g#6 v=71
57166 Off ch=1 n=g#6 v=0
57168 On ch=1 n=f#6 v=69
57214 Off ch=1 n=f#6 v=0
57214 Off ch=2 n=e3 v=0
57216 On ch=2 n=e4 v=61
57216 On ch=1 n=g#6 v=66
57218 On ch=2 n=g#4 v=60
57220 On ch=2 n=d5 v=69
57502 Off ch=1 n=g#6 v=0
57504 On ch=1 n=f#6 v=73
57598 Off ch=1 n=f#6 v=0
57598 Off ch=2 n=e4 v=0
57600 Off ch=2 n=g#4 v=0
57600 On ch=2 n=a3 v=54
57600 On ch=1 n=c#7 v=79
57602 Off ch=2 n=d5 v=0
57982 Off ch=2 n=a3 v=0
57984 On ch=2 n=a4 v=59
57986 On ch=2 n=c#5 v=65
57988 On ch=2 n=f#5 v=64
58366 Off ch=2 n=a4 v=0
58366 Off ch=1 n=c#7 v=0
58368 Off ch=2 n=c#5 v=0
58368 TimeSig 6/4 24 8
58368 On ch=2 n=e3 v=56
58368 On ch=1 n=e7 v=75
58370 Off ch=2 n=f#5 v=0
58750 Off ch=2 n=e3 v=0
58752 On ch=2 n=e4 v=55
58754 On ch=2 n=g#4 v=55
58756 On ch=2 n=d5 v=55
59038 Off ch=1 n=e7 v=0
59040 On ch=1 n=e7 v=84
59134 Off ch=1 n=e7 v=0
59134 Off ch=2 n=e4 v=0
59136 Off ch=2 n=g#4 v=0
59136 On ch=2 n=g3 v=58
59136 On ch=1 n=b6 v=74
59138 Off ch=2 n=d5 v=0
59230 Off ch=1 n=b6 v=0
59232 On ch=1 n=a6 v=79
59326 Off ch=1 n=a6 v=0
59328 On ch=1 n=b6 v=67
59422 Off ch=1 n=b6 v=0
59424 On ch=1 n=c7 v=73
59518 Off ch=1 n=c7 v=0
59518 Off ch=2 n=g3 v=0
59520 On ch=2 n=g4 v=56
59520 On ch=1 n=d7 v=80
59522 On ch=2 n=b4 v=56
59524 On ch=2 n=d5 v=56
59582 Off ch=1 n=d7 v=0
59584 On ch=1 n=e7 v=84
59646 Off ch=1 n=e7 v=0
59648 On ch=1 n=g7 v=77
59710 Off ch=1 n=g7 v=0
59712 On ch=1 n=f#7 v=79
59854 Off ch=1 n=f#7 v=0
59856 On ch=1 n=a6 v=53
59902 Off ch=1 n=a6 v=0
59902 Off ch=2 n=g4 v=0
59904 Off ch=2 n=b4 v=0
59904 On ch=2 n=d3 v=55
59904 On ch=1 n=d7 v=73
59906 Off ch=2 n=d5 v=0
60286 Off ch=2 n=d3 v=0
60288 On ch=2 n=f#4 v=62
60290 On ch=2 n=a4 v=59
60292 On ch=2 n=d5 v=60
60574 Off ch=1 n=d7 v=0
60576 On ch=1 n=d6 v=68
60670 Off ch=1 n=d6 v=0
60670 Off ch=2 n=f#4 v=0
60672 Off ch=2 n=a4 v=0
60672 TimeSig 4/4 24 8
60672 On ch=2 n=g3 v=52
60672 On ch=1 n=g6 v=82
60674 Off ch=2 n=d5 v=0
61054 Off ch=2 n=g3 v=0
61056 On ch=2 n=g4 v=61
61058 On ch=2 n=b4 v=61
61060 On ch=2 n=d5 v=60
61150 Off ch=1 n=g6 v=0
61152 On ch=1 n=f#6 v=68
61246 Off ch=1 n=f#6 v=0
61248 On ch=1 n=d6 v=75
61342 Off ch=1 n=d6 v=0
61344 On ch=1 n=f#6 v=81
61438 Off ch=1 n=f#6 v=0
61438 Off ch=2 n=g4 v=0
61440 Off ch=2 n=b4 v=0
61440 On ch=2 n=c4 v=60
61440 On ch=1 n=e6 v=77
61442 Off ch=2 n=d5 v=0
61486 Off ch=1 n=e6 v=0
61488 On ch=1 n=c6 v=67
61534 Off ch=1 n=c6 v=0
61536 On ch=1 n=e6 v=67
61630 Off ch=1 n=e6 v=0
61632 On ch=1 n=e6 v=59
61822 Off ch=2 n=c4 v=0
61824 On ch=2 n=g4 v=55
61826 On ch=2 n=c5 v=58
61828 On ch=2 n=e5 v=70
62206 Off ch=2 n=g4 v=0
62208 Off ch=2 n=c5 v=0
62208 On ch=2 n=a3 v=58
62210 Off ch=2 n=e5 v=0
62590 Off ch=2 n=a3 v=0
62592 On ch=2 n=a4 v=54
62594 On ch=2 n=c5 v=66
62596 On ch=2 n=e5 v=57
62974 Off ch=2 n=a4 v=0
62976 Off ch=2 n=c5 v=0
62976 On ch=2 n=e3 v=60
62978 Off ch=2 n=e5 v=0
63070 Off ch=1 n=e6 v=0
63072 On ch=1 n=f#6 v=84
63166 Off ch=1 n=f#6 v=0
63168 On ch=1 n=g6 v=67
63262 Off ch=1 n=g6 v=0
63264 On ch=1 n=a6 v=74
63358 Off ch=1 n=a6 v=0
63358 Off ch=2 n=e3 v=0
63360 On ch=2 n=g4 v=65
63360 On ch=1 n=b6 v=66
63362 On ch=2 n=b4 v=59
63364 On ch=2 n=e5 v=68
63454 Off ch=1 n=b6 v=0
63456 On ch=1 n=c7 v=66
63550 Off ch=1 n=c7 v=0
63552 On ch=1 n=d7 v=51
63582 Off ch=1 n=d7 v=0
63584 On ch=1 n=e7 v=58
63614 Off ch=1 n=e7 v=0
63616 On ch=1 n=f#7 v=50
63646 Off ch=1 n=f#7 v=0
63648 On ch=1 n=e7 v=62
63742 Off ch=1 n=e7 v=0
63742 Off ch=2 n=g4 v=0
63744 Off ch=2 n=b4 v=0
63744 On ch=2 n=g3 v=60
63744 On ch=1 n=d7 v=76
63746 Off ch=2 n=e5 v=0
63838 Off ch=1 n=d7 v=0
63840 On ch=1 n=b6 v=77
63934 Off ch=1 n=b6 v=0
63936 On ch=1 n=d7 v=73
64126 Off ch=2 n=g3 v=0
64128 On ch=2 n=g4 v=56
64130 On ch=2 n=b4 v=69
64132 On ch=2 n=d5 v=69
64318 Off ch=1 n=d7 v=0
64320 On ch=1 n=c7 v=65
64414 Off ch=1 n=c7 v=0
64416 On ch=1 n=d7 v=77
64510 Off ch=1 n=d7 v=0
64510 Off ch=2 n=g4 v=0
64512 Off ch=2 n=b4 v=0
64512 On ch=2 n=d3 v=60
64512 On ch=1 n=a6 v=71
64514 Off ch=2 n=d5 v=0
64894 Off ch=2 n=d3 v=0
64896 On ch=2 n=g4 v=61
64898 On ch=2 n=b4 v=61
64900 On ch=2 n=d5 v=61
65182 Off ch=1 n=a6 v=0
65184 On ch=1 n=b6 v=68
65278 Off ch=1 n=b6 v=0
65278 Off ch=2 n=g4 v=0
65280 Off ch=2 n=b4 v=0
65280 Tempo 1363630
65280 On ch=2 n=b2 v=57
65280 On ch=1 n=f#6 v=66
65282 Off ch=2 n=d5 v=0
65662 Off ch=1 n=f#6 v=0
65662 Off ch=2 n=b2 v=0
65664 On ch=2 n=f#4 v=64
65664 On ch=1 n=b5 v=82
65666 On ch=2 n=b4 v=58
65668 On ch=2 n=d5 v=63
65854 Off ch=1 n=b5 v=0
65856 On ch=1 n=d6 v=74
66046 Off ch=1 n=d6 v=0
66046 Off ch=2 n=f#4 v=0
66048 Off ch=2 n=b4 v=0
66048 On ch=2 n=e3 v=54
66048 On ch=1 n=e6 v=78
66050 Off ch=2 n=d5 v=0
66110 Off ch=1 n=e6 v=0
66112 On ch=1 n=b5 v=78
66162 Off ch=1 n=b5 v=0
66164 On ch=1 n=d6 v=75
66214 Off ch=1 n=d6 v=0
66216 On ch=1 n=e6 v=69
66262 Off ch=1 n=e6 v=0
66264 On ch=1 n=f#6 v=65
66318 Off ch=1 n=f#6 v=0
66320 On ch=1 n=d6 v=63
66378 Off ch=1 n=d6 v=0
66380 On ch=1 n=g6 v=60
66430 Off ch=1 n=g6 v=0
66430 Off ch=2 n=e3 v=0
66432 On ch=2 n=g4 v=50
66432 On ch=1 n=e6 v=57
66434 On ch=2 n=b4 v=50
66436 On ch=2 n=e5 v=50
66959 Tempo 1395340
67198 Off ch=1 n=e6 v=0
67198 Off ch=2 n=g4 v=0
67200 Off ch=2 n=b4 v=0
67202 Off ch=2 n=e5 v=0
68352 Tempo 1500000
69120 Meta TrkEnd
TrkEnd
