MFile 1 2 1024
MTrk
0 TimeSig 2/4 24 8
0 KeySig 0 major
0 Tempo 909090
0 Tempo 909090
24576 Tempo 857142
61440 Tempo 1200000
81920 Tempo 909090
88064 TimeSig 3/4 24 8
91136 Meta TrkEnd
TrkEnd
MTrk
0 Meta TrkName "Acoustic Grand Piano"
0 PrCh ch=1 p=0
0 On ch=1 n=f4 v=75
512 On ch=1 n=c6 v=75
512 Off ch=1 n=f4 v=0
512 On ch=1 n=c5 v=75
512 On ch=1 n=a5 v=75
1024 Off ch=1 n=c5 v=0
1024 Off ch=1 n=a5 v=0
1024 On ch=1 n=d#4 v=75
1536 Off ch=1 n=c6 v=0
1536 On ch=1 n=b5 v=75
1536 Off ch=1 n=d#4 v=0
1536 On ch=1 n=b4 v=75
1536 On ch=1 n=g5 v=75
2048 Off ch=1 n=b4 v=0
2048 Off ch=1 n=g5 v=0
2048 On ch=1 n=f4 v=75
2560 Off ch=1 n=b5 v=0
2560 On ch=1 n=c6 v=75
2560 Off ch=1 n=f4 v=0
2560 On ch=1 n=c5 v=75
2560 On ch=1 n=a5 v=75
3072 Off ch=1 n=c5 v=0
3072 Off ch=1 n=a5 v=0
3072 On ch=1 n=d#4 v=75
3584 Off ch=1 n=c6 v=0
3584 On ch=1 n=b5 v=75
3584 Off ch=1 n=d#4 v=0
3584 On ch=1 n=b4 v=75
3584 On ch=1 n=g5 v=75
4096 Off ch=1 n=b5 v=0
4096 Off ch=1 n=b4 v=0
4096 Off ch=1 n=g5 v=0
4096 On ch=1 n=d6 v=75
4096 On ch=1 n=d4 v=75
4352 Off ch=1 n=d6 v=0
4352 On ch=1 n=g6 v=75
4608 Off ch=1 n=g6 v=0
4608 On ch=1 n=a6 v=75
4608 Off ch=1 n=d4 v=0
4608 On ch=1 n=a4 v=75
4608 On ch=1 n=f5 v=75
5120 Off ch=1 n=a6 v=0
5120 On ch=1 n=b5 v=75
5120 Off ch=1 n=a4 v=0
5120 Off ch=1 n=f5 v=0
5120 On ch=1 n=c4 v=75
5376 Off ch=1 n=b5 v=0
5376 On ch=1 n=c6 v=75
5632 Off ch=1 n=c6 v=0
5632 On ch=1 n=e6 v=75
5632 Off ch=1 n=c4 v=0
5632 On ch=1 n=g4 v=75
5632 On ch=1 n=e5 v=75
6144 Off ch=1 n=e6 v=0
6144 Off ch=1 n=g4 v=0
6144 Off ch=1 n=e5 v=0
6144 On ch=1 n=a5 v=75
6144 On ch=1 n=a3 v=75
6656 Off ch=1 n=a5 v=0
6656 On ch=1 n=g#5 v=75
6656 Off ch=1 n=a3 v=0
6656 On ch=1 n=e4 v=75
6656 On ch=1 n=c5 v=75
7168 Off ch=1 n=g#5 v=0
7168 On ch=1 n=f5 v=75
7168 Off ch=1 n=e4 v=0
7168 Off ch=1 n=c5 v=0
7168 On ch=1 n=f3 v=75
7680 Off ch=1 n=f3 v=0
7680 On ch=1 n=c4 v=75
7680 On ch=1 n=a4 v=75
8192 Off ch=1 n=f5 v=0
8192 Off ch=1 n=c4 v=0
8192 Off ch=1 n=a4 v=0
8192 On ch=1 n=g5 v=75
8192 On ch=1 n=g3 v=75
8448 Off ch=1 n=g5 v=0
8448 On ch=1 n=f#5 v=75
8704 Off ch=1 n=f#5 v=0
8704 On ch=1 n=d5 v=75
8704 Off ch=1 n=g3 v=0
8704 On ch=1 n=d4 v=75
8704 On ch=1 n=b4 v=75
9216 Off ch=1 n=d5 v=0
9216 On ch=1 n=d#5 v=75
9216 Off ch=1 n=d4 v=0
9216 Off ch=1 n=b4 v=0
9216 On ch=1 n=g#3 v=75
9728 Off ch=1 n=d#5 v=0
9728 On ch=1 n=g#5 v=75
9728 Off ch=1 n=g#3 v=0
9728 On ch=1 n=d#4 v=75
9728 On ch=1 n=c5 v=75
10240 Off ch=1 n=g#5 v=0
10240 Off ch=1 n=d#4 v=0
10240 Off ch=1 n=c5 v=0
10240 On ch=1 n=e5 v=75
10240 On ch=1 n=e5 v=75
10240 On ch=1 n=e3 v=75
10752 Off ch=1 n=e5 v=0
10752 On ch=1 n=b4 v=75
10752 Off ch=1 n=e3 v=0
10752 On ch=1 n=b3 v=75
10752 On ch=1 n=g4 v=75
11264 Off ch=1 n=e5 v=0
11264 On ch=1 n=f#5 v=75
11264 Off ch=1 n=b4 v=0
11264 Off ch=1 n=b3 v=0
11264 Off ch=1 n=g4 v=0
11264 On ch=1 n=f#3 v=75
11776 Off ch=1 n=f#3 v=0
11776 On ch=1 n=c#4 v=75
11776 On ch=1 n=a#4 v=75
12288 Off ch=1 n=c#4 v=0
12288 Off ch=1 n=a#4 v=0
12288 On ch=1 n=g#3 v=75
12800 Off ch=1 n=f#5 v=0
12800 On ch=1 n=b5 v=75
12800 Off ch=1 n=g#3 v=0
12800 On ch=1 n=d#4 v=75
12800 On ch=1 n=b4 v=75
13312 Off ch=1 n=d#4 v=0
13312 Off ch=1 n=b4 v=0
13312 On ch=1 n=a#3 v=75
13824 Off ch=1 n=b5 v=0
13824 On ch=1 n=f5 v=75
13824 Off ch=1 n=a#3 v=0
13824 On ch=1 n=f4 v=75
13824 On ch=1 n=c#5 v=75
14336 Off ch=1 n=f5 v=0
14336 Off ch=1 n=f4 v=0
14336 Off ch=1 n=c#5 v=0
14336 On ch=1 n=g#5 v=75
14336 On ch=1 n=g#5 v=75
14336 On ch=1 n=g#3 v=75
14848 Off ch=1 n=g#5 v=0
14848 On ch=1 n=c5 v=75
14848 On ch=1 n=d#5 v=75
14848 Off ch=1 n=g#3 v=0
14848 On ch=1 n=f#4 v=75
15360 Off ch=1 n=g#5 v=0
15360 On ch=1 n=f#5 v=75
15360 Off ch=1 n=c5 v=0
15360 Off ch=1 n=d#5 v=0
15360 On ch=1 n=f#5 v=75
15360 Off ch=1 n=f#4 v=0
15360 On ch=1 n=f#3 v=75
15872 Off ch=1 n=f#5 v=0
15872 On ch=1 n=c#5 v=75
15872 Off ch=1 n=f#3 v=0
15872 On ch=1 n=c#4 v=75
15872 On ch=1 n=a4 v=75
16384 Off ch=1 n=f#5 v=0
16384 Off ch=1 n=c#5 v=0
16384 Off ch=1 n=c#4 v=0
16384 Off ch=1 n=a4 v=0
16384 On ch=1 n=g#5 v=75
16384 On ch=1 n=g#3 v=75
16896 Off ch=1 n=g#5 v=0
16896 On ch=1 n=g5 v=75
16896 Off ch=1 n=g#3 v=0
16896 On ch=1 n=d#4 v=75
16896 On ch=1 n=b4 v=75
17408 Off ch=1 n=g5 v=0
17408 On ch=1 n=e5 v=75
17408 Off ch=1 n=d#4 v=0
17408 Off ch=1 n=b4 v=0
17408 On ch=1 n=a3 v=75
17920 Off ch=1 n=a3 v=0
17920 On ch=1 n=e4 v=75
17920 On ch=1 n=a4 v=75
18432 Off ch=1 n=e5 v=0
18432 Off ch=1 n=e4 v=0
18432 Off ch=1 n=a4 v=0
18432 On ch=1 n=c6 v=75
18432 On ch=1 n=c5 v=75
18432 On ch=1 n=d#4 v=75
18944 Off ch=1 n=c5 v=0
18944 On ch=1 n=f5 v=75
18944 Off ch=1 n=d#4 v=0
18944 On ch=1 n=a4 v=75
19456 Off ch=1 n=c6 v=0
19456 On ch=1 n=a#5 v=75
19456 Off ch=1 n=f5 v=0
19456 On ch=1 n=a#4 v=75
19456 Off ch=1 n=a4 v=0
19456 On ch=1 n=e4 v=75
19968 Off ch=1 n=a#4 v=0
19968 On ch=1 n=e5 v=75
19968 Off ch=1 n=e4 v=0
19968 On ch=1 n=g4 v=75
20480 Off ch=1 n=a#5 v=0
20480 Off ch=1 n=e5 v=0
20480 Off ch=1 n=g4 v=0
20480 On ch=1 n=d5 v=75
20480 On ch=1 n=d5 v=75
20480 On ch=1 n=g#3 v=75
20992 Off ch=1 n=d5 v=0
20992 On ch=1 n=b4 v=75
20992 Off ch=1 n=g#3 v=0
20992 On ch=1 n=f4 v=75
21504 Off ch=1 n=d5 v=0
21504 On ch=1 n=b5 v=75
21504 Off ch=1 n=b4 v=0
21504 Off ch=1 n=f4 v=0
21504 On ch=1 n=b3 v=75
21760 Off ch=1 n=b5 v=0
21760 On ch=1 n=d6 v=75
22016 Off ch=1 n=d6 v=0
22016 On ch=1 n=f#5 v=75
22016 Off ch=1 n=b3 v=0
22016 On ch=1 n=f#4 v=75
22016 On ch=1 n=d5 v=75
22528 Off ch=1 n=f#5 v=0
22528 Off ch=1 n=f#4 v=0
22528 Off ch=1 n=d5 v=0
22528 On ch=1 n=f5 v=75
22528 On ch=1 n=g3 v=75
23040 Off ch=1 n=g3 v=0
23040 On ch=1 n=d4 v=75
23040 On ch=1 n=b4 v=75
23552 Off ch=1 n=f5 v=0
23552 On ch=1 n=e5 v=75
23552 Off ch=1 n=d4 v=0
23552 Off ch=1 n=b4 v=0
23552 On ch=1 n=e3 v=75
23808 Off ch=1 n=e5 v=0
23808 On ch=1 n=f#5 v=75
24064 Off ch=1 n=f#5 v=0
24064 On ch=1 n=g5 v=75
24064 Off ch=1 n=e3 v=0
24064 On ch=1 n=b3 v=75
24064 On ch=1 n=g4 v=75
24576 Off ch=1 n=g5 v=0
24576 Off ch=1 n=b3 v=0
24576 Off ch=1 n=g4 v=0
24576 On ch=1 n=d#5 v=75
24576 On ch=1 n=f3 v=75
25088 Off ch=1 n=f3 v=0
25088 On ch=1 n=c4 v=75
25088 On ch=1 n=a4 v=75
25600 Off ch=1 n=d#5 v=0
25600 On ch=1 n=a5 v=75
25600 Off ch=1 n=c4 v=0
25600 Off ch=1 n=a4 v=0
25600 On ch=1 n=d3 v=75
26112 Off ch=1 n=a5 v=0
26112 On ch=1 n=d5 v=88
26112 On ch=1 n=d6 v=88
26112 Off ch=1 n=d3 v=0
26112 On ch=1 n=a3 v=88
26112 On ch=1 n=f#4 v=88
26624 Off ch=1 n=d5 v=0
26624 Off ch=1 n=d6 v=0
26624 Off ch=1 n=a3 v=0
26624 Off ch=1 n=f#4 v=0
26624 On ch=1 n=c#6 v=88
26624 On ch=1 n=c#5 v=88
26624 On ch=1 n=a#3 v=88
27136 Off ch=1 n=c#5 v=0
27136 On ch=1 n=g#5 v=88
27136 Off ch=1 n=a#3 v=0
27136 On ch=1 n=e4 v=88
27136 On ch=1 n=g#4 v=88
27648 Off ch=1 n=c#6 v=0
27648 On ch=1 n=a5 v=88
27648 Off ch=1 n=g#5 v=0
27648 Off ch=1 n=e4 v=0
27648 Off ch=1 n=g#4 v=0
27648 On ch=1 n=d3 v=88
28160 Off ch=1 n=a5 v=0
28160 On ch=1 n=d5 v=88
28160 On ch=1 n=d6 v=88
28160 Off ch=1 n=d3 v=0
28160 On ch=1 n=a3 v=88
28160 On ch=1 n=f#4 v=88
28672 Off ch=1 n=d5 v=0
28672 Off ch=1 n=d6 v=0
28672 Off ch=1 n=a3 v=0
28672 Off ch=1 n=f#4 v=0
28672 On ch=1 n=c#6 v=88
28672 On ch=1 n=c#5 v=88
28672 On ch=1 n=a#3 v=88
29184 Off ch=1 n=c#5 v=0
29184 On ch=1 n=g#5 v=88
29184 Off ch=1 n=a#3 v=0
29184 On ch=1 n=e4 v=88
29184 On ch=1 n=g#4 v=88
29696 Off ch=1 n=c#6 v=0
29696 On ch=1 n=f#5 v=88
29696 Off ch=1 n=g#5 v=0
29696 On ch=1 n=f#5 v=88
29696 Off ch=1 n=e4 v=0
29696 Off ch=1 n=g#4 v=0
29696 On ch=1 n=f#3 v=88
30208 Off ch=1 n=f#5 v=0
30208 On ch=1 n=a#4 v=88
30208 On ch=1 n=c#5 v=88
30208 Off ch=1 n=f#3 v=0
30208 On ch=1 n=e4 v=88
30720 Off ch=1 n=f#5 v=0
30720 Off ch=1 n=a#4 v=0
30720 Off ch=1 n=c#5 v=0
30720 Off ch=1 n=e4 v=0
30720 On ch=1 n=d5 v=88
30720 On ch=1 n=d5 v=88
30720 On ch=1 n=d3 v=88
31232 Off ch=1 n=d5 v=0
31232 On ch=1 n=a4 v=88
31232 Off ch=1 n=d3 v=0
31232 On ch=1 n=a3 v=88
31232 On ch=1 n=f4 v=88
31488 Off ch=1 n=a4 v=0
31488 On ch=1 n=b4 v=88
31744 Off ch=1 n=d5 v=0
31744 On ch=1 n=e5 v=88
31744 Off ch=1 n=b4 v=0
31744 Off ch=1 n=a3 v=0
31744 Off ch=1 n=f4 v=0
31744 On ch=1 n=e3 v=88
32256 Off ch=1 n=e5 v=0
32256 On ch=1 n=d#5 v=88
32256 Off ch=1 n=e3 v=0
32256 On ch=1 n=b3 v=88
32256 On ch=1 n=g4 v=88
32768 Off ch=1 n=d#5 v=0
32768 Off ch=1 n=b3 v=0
32768 Off ch=1 n=g4 v=0
32768 On ch=1 n=c5 v=88
32768 On ch=1 n=f3 v=88
33280 Off ch=1 n=c5 v=0
33280 On ch=1 n=a4 v=88
33280 Off ch=1 n=f3 v=0
33280 On ch=1 n=c4 v=88
33280 On ch=1 n=f4 v=88
33792 Off ch=1 n=a4 v=0
33792 Off ch=1 n=c4 v=0
33792 Off ch=1 n=f4 v=0
33792 On ch=1 n=a3 v=88
34304 On ch=1 n=e5 v=88
34304 Off ch=1 n=a3 v=0
34304 On ch=1 n=c4 v=88
34304 On ch=1 n=c5 v=88
34816 Off ch=1 n=c4 v=0
34816 Off ch=1 n=c5 v=0
34816 On ch=1 n=g3 v=88
35328 Off ch=1 n=e5 v=0
35328 On ch=1 n=d#5 v=88
35328 Off ch=1 n=g3 v=0
35328 On ch=1 n=d#4 v=88
35328 On ch=1 n=b4 v=88
35840 Off ch=1 n=d#4 v=0
35840 Off ch=1 n=b4 v=0
35840 On ch=1 n=a3 v=88
36352 Off ch=1 n=d#5 v=0
36352 On ch=1 n=e5 v=88
36352 Off ch=1 n=a3 v=0
36352 On ch=1 n=e4 v=88
36352 On ch=1 n=c5 v=88
36864 Off ch=1 n=e4 v=0
36864 Off ch=1 n=c5 v=0
36864 On ch=1 n=g3 v=88
37376 Off ch=1 n=e5 v=0
37376 On ch=1 n=d#5 v=88
37376 Off ch=1 n=g3 v=0
37376 On ch=1 n=d#4 v=88
37376 On ch=1 n=b4 v=88
37888 Off ch=1 n=d#5 v=0
37888 On ch=1 n=b5 v=88
37888 Off ch=1 n=d#4 v=0
37888 Off ch=1 n=b4 v=0
37888 On ch=1 n=b3 v=88
38144 Off ch=1 n=b5 v=0
38144 On ch=1 n=e6 v=88
38400 Off ch=1 n=e6 v=0
38400 On ch=1 n=f#6 v=88
38400 Off ch=1 n=b3 v=0
38400 On ch=1 n=f#4 v=88
38400 On ch=1 n=d5 v=88
38912 Off ch=1 n=f#6 v=0
38912 Off ch=1 n=f#4 v=0
38912 Off ch=1 n=d5 v=0
38912 On ch=1 n=g#5 v=88
38912 On ch=1 n=a3 v=88
39168 Off ch=1 n=g#5 v=0
39168 On ch=1 n=a5 v=88
39424 Off ch=1 n=a5 v=0
39424 On ch=1 n=c#6 v=88
39424 Off ch=1 n=a3 v=0
39424 On ch=1 n=e4 v=88
39424 On ch=1 n=c#5 v=88
39936 Off ch=1 n=c#6 v=0
39936 On ch=1 n=f#5 v=88
39936 Off ch=1 n=e4 v=0
39936 Off ch=1 n=c#5 v=0
39936 On ch=1 n=f#3 v=88
40448 Off ch=1 n=f#5 v=0
40448 On ch=1 n=f5 v=88
40448 Off ch=1 n=f#3 v=0
40448 On ch=1 n=c#4 v=88
40448 On ch=1 n=a4 v=88
40960 Off ch=1 n=f5 v=0
40960 Off ch=1 n=c#4 v=0
40960 Off ch=1 n=a4 v=0
40960 On ch=1 n=d5 v=88
40960 On ch=1 n=d3 v=88
41472 Off ch=1 n=d3 v=0
41472 On ch=1 n=a3 v=88
41472 On ch=1 n=f#4 v=88
41984 Off ch=1 n=d5 v=0
41984 On ch=1 n=e5 v=88
41984 Off ch=1 n=a3 v=0
41984 Off ch=1 n=f#4 v=0
41984 On ch=1 n=e3 v=88
42496 Off ch=1 n=e5 v=0
42496 On ch=1 n=b4 v=88
42496 Off ch=1 n=e3 v=0
42496 On ch=1 n=b3 v=88
42496 On ch=1 n=g4 v=88
42752 Off ch=1 n=b4 v=0
42752 On ch=1 n=c#5 v=88
43008 Off ch=1 n=c#5 v=0
43008 Off ch=1 n=b3 v=0
43008 Off ch=1 n=g4 v=0
43008 On ch=1 n=f#5 v=88
43008 On ch=1 n=f#3 v=88
43520 Off ch=1 n=f#5 v=0
43520 On ch=1 n=f5 v=88
43520 Off ch=1 n=f#3 v=0
43520 On ch=1 n=c#4 v=88
43520 On ch=1 n=a4 v=88
44032 Off ch=1 n=f5 v=0
44032 On ch=1 n=d5 v=88
44032 Off ch=1 n=c#4 v=0
44032 Off ch=1 n=a4 v=0
44032 On ch=1 n=g3 v=88
44544 Off ch=1 n=d5 v=0
44544 On ch=1 n=b4 v=88
44544 Off ch=1 n=g3 v=0
44544 On ch=1 n=d4 v=88
44544 On ch=1 n=b4 v=88
45056 Off ch=1 n=b4 v=0
45056 Off ch=1 n=d4 v=0
45056 Off ch=1 n=b4 v=0
45056 On ch=1 n=c6 v=88
45056 On ch=1 n=f3 v=88
45568 Off ch=1 n=c6 v=0
45568 On ch=1 n=f5 v=88
45568 On ch=1 n=f6 v=88
45568 Off ch=1 n=f3 v=0
45568 On ch=1 n=c4 v=88
45568 On ch=1 n=a4 v=88
46080 Off ch=1 n=f5 v=0
46080 Off ch=1 n=f6 v=0
46080 On ch=1 n=e6 v=88
46080 On ch=1 n=e5 v=88
46080 Off ch=1 n=c4 v=0
46080 Off ch=1 n=a4 v=0
46080 On ch=1 n=c#4 v=88
46592 Off ch=1 n=e5 v=0
46592 On ch=1 n=b5 v=88
46592 Off ch=1 n=c#4 v=0
46592 On ch=1 n=g4 v=88
46592 On ch=1 n=b4 v=88
47104 Off ch=1 n=e6 v=0
47104 Off ch=1 n=b5 v=0
47104 Off ch=1 n=g4 v=0
47104 Off ch=1 n=b4 v=0
47104 On ch=1 n=c6 v=88
47104 On ch=1 n=f3 v=88
47616 Off ch=1 n=c6 v=0
47616 On ch=1 n=f5 v=88
47616 On ch=1 n=f6 v=88
47616 Off ch=1 n=f3 v=0
47616 On ch=1 n=c4 v=88
47616 On ch=1 n=a4 v=88
48128 Off ch=1 n=f5 v=0
48128 Off ch=1 n=f6 v=0
48128 On ch=1 n=e6 v=88
48128 On ch=1 n=e5 v=88
48128 Off ch=1 n=c4 v=0
48128 Off ch=1 n=a4 v=0
48128 On ch=1 n=c#4 v=88
48640 Off ch=1 n=e5 v=0
48640 On ch=1 n=b5 v=88
48640 Off ch=1 n=c#4 v=0
48640 On ch=1 n=g4 v=88
48640 On ch=1 n=b4 v=88
49152 Off ch=1 n=e6 v=0
49152 Off ch=1 n=b5 v=0
49152 Off ch=1 n=g4 v=0
49152 Off ch=1 n=b4 v=0
49152 On ch=1 n=a5 v=88
49152 On ch=1 n=a5 v=88
49152 On ch=1 n=a3 v=88
49664 Off ch=1 n=a5 v=0
49664 On ch=1 n=c#5 v=88
49664 On ch=1 n=e5 v=88
49664 Off ch=1 n=a3 v=0
49664 On ch=1 n=g4 v=88
50176 Off ch=1 n=a5 v=0
50176 On ch=1 n=f5 v=88
50176 Off ch=1 n=c#5 v=0
50176 Off ch=1 n=e5 v=0
50176 Off ch=1 n=g4 v=0
50176 On ch=1 n=f3 v=88
50432 Off ch=1 n=f5 v=0
50432 On ch=1 n=e5 v=88
50688 Off ch=1 n=e5 v=0
50688 On ch=1 n=c5 v=88
50688 Off ch=1 n=f3 v=0
50688 On ch=1 n=c4 v=88
50688 On ch=1 n=a4 v=88
51200 Off ch=1 n=c5 v=0
51200 Off ch=1 n=c4 v=0
51200 Off ch=1 n=a4 v=0
51200 On ch=1 n=c#5 v=88
51200 On ch=1 n=f#3 v=88
51712 Off ch=1 n=c#5 v=0
51712 On ch=1 n=f#5 v=88
51712 Off ch=1 n=f#3 v=0
51712 On ch=1 n=c#4 v=88
51712 On ch=1 n=a#4 v=88
52224 Off ch=1 n=f#5 v=0
52224 On ch=1 n=d5 v=88
52224 Off ch=1 n=c#4 v=0
52224 Off ch=1 n=a#4 v=0
52224 On ch=1 n=d3 v=88
52736 Off ch=1 n=d5 v=0
52736 On ch=1 n=a4 v=88
52736 Off ch=1 n=d3 v=0
52736 On ch=1 n=a3 v=88
52736 On ch=1 n=f4 v=88
53248 Off ch=1 n=a4 v=0
53248 Off ch=1 n=a3 v=0
53248 Off ch=1 n=f4 v=0
53248 On ch=1 n=e5 v=88
53248 On ch=1 n=e3 v=88
53760 Off ch=1 n=e3 v=0
53760 On ch=1 n=b3 v=88
53760 On ch=1 n=g#4 v=88
54272 Off ch=1 n=b3 v=0
54272 Off ch=1 n=g#4 v=0
54272 On ch=1 n=f#3 v=88
54784 Off ch=1 n=e5 v=0
54784 On ch=1 n=a5 v=88
54784 Off ch=1 n=f#3 v=0
54784 On ch=1 n=c#4 v=88
54784 On ch=1 n=a4 v=88
55296 Off ch=1 n=c#4 v=0
55296 Off ch=1 n=a4 v=0
55296 On ch=1 n=g#3 v=88
55808 Off ch=1 n=a5 v=0
55808 On ch=1 n=d#5 v=88
55808 Off ch=1 n=g#3 v=0
55808 On ch=1 n=d#4 v=88
55808 On ch=1 n=b4 v=88
56320 Off ch=1 n=d#5 v=0
56320 On ch=1 n=f#5 v=88
56320 On ch=1 n=f#5 v=88
56320 Off ch=1 n=d#4 v=0
56320 Off ch=1 n=b4 v=0
56320 On ch=1 n=f#3 v=88
56832 Off ch=1 n=f#5 v=0
56832 On ch=1 n=a#4 v=88
56832 On ch=1 n=c#5 v=88
56832 Off ch=1 n=f#3 v=0
56832 On ch=1 n=e4 v=88
57344 Off ch=1 n=f#5 v=0
57344 Off ch=1 n=a#4 v=0
57344 Off ch=1 n=c#5 v=0
57344 Off ch=1 n=e4 v=0
57344 On ch=1 n=d4 v=88
57856 On ch=1 n=a5 v=88
57856 Off ch=1 n=d4 v=0
57856 On ch=1 n=a4 v=88
57856 On ch=1 n=f5 v=88
58368 Off ch=1 n=a4 v=0
58368 Off ch=1 n=f5 v=0
58368 On ch=1 n=c4 v=88
58880 Off ch=1 n=a5 v=0
58880 On ch=1 n=g#5 v=88
58880 Off ch=1 n=c4 v=0
58880 On ch=1 n=g#4 v=88
58880 On ch=1 n=e5 v=88
59392 Off ch=1 n=g#4 v=0
59392 Off ch=1 n=e5 v=0
59392 On ch=1 n=d4 v=88
59904 Off ch=1 n=g#5 v=0
59904 On ch=1 n=a5 v=88
59904 Off ch=1 n=d4 v=0
59904 On ch=1 n=a4 v=88
59904 On ch=1 n=f5 v=88
60416 Off ch=1 n=a4 v=0
60416 Off ch=1 n=f5 v=0
60416 On ch=1 n=c4 v=88
60928 Off ch=1 n=a5 v=0
60928 On ch=1 n=g#5 v=88
60928 Off ch=1 n=c4 v=0
60928 On ch=1 n=g#4 v=88
60928 On ch=1 n=e5 v=88
61440 Off ch=1 n=g#5 v=0
61440 Off ch=1 n=g#4 v=0
61440 Off ch=1 n=e5 v=0
61440 On ch=1 n=c#6 v=49
61440 On ch=1 n=c#4 v=49
61696 Off ch=1 n=c#6 v=0
61696 On ch=1 n=f#6 v=49
61952 Off ch=1 n=f#6 v=0
61952 On ch=1 n=g#6 v=49
61952 Off ch=1 n=c#4 v=0
61952 On ch=1 n=g#4 v=49
61952 On ch=1 n=e5 v=49
62464 Off ch=1 n=g#6 v=0
62464 On ch=1 n=a#5 v=49
62464 Off ch=1 n=g#4 v=0
62464 Off ch=1 n=e5 v=0
62464 On ch=1 n=b3 v=49
62720 Off ch=1 n=a#5 v=0
62720 On ch=1 n=b5 v=49
62976 Off ch=1 n=b5 v=0
62976 On ch=1 n=d#6 v=49
62976 Off ch=1 n=b3 v=0
62976 On ch=1 n=g#4 v=49
62976 On ch=1 n=d#5 v=49
63232 Off ch=1 n=d#6 v=0
63488 Off ch=1 n=g#4 v=0
63488 Off ch=1 n=d#5 v=0
63488 On ch=1 n=g#5 v=49
63488 On ch=1 n=g#3 v=49
64000 Off ch=1 n=g#5 v=0
64000 On ch=1 n=g5 v=49
64000 Off ch=1 n=g#3 v=0
64000 On ch=1 n=d#4 v=49
64000 On ch=1 n=b4 v=49
64512 Off ch=1 n=g5 v=0
64512 On ch=1 n=e5 v=49
64512 Off ch=1 n=d#4 v=0
64512 Off ch=1 n=b4 v=0
64512 On ch=1 n=e3 v=49
65024 Off ch=1 n=e3 v=0
65024 On ch=1 n=b3 v=49
65024 On ch=1 n=g#4 v=49
65536 Off ch=1 n=e5 v=0
65536 Off ch=1 n=b3 v=0
65536 Off ch=1 n=g#4 v=0
65536 On ch=1 n=g6 v=49
65536 On ch=1 n=g5 v=49
65536 On ch=1 n=a#4 v=49
65536 On ch=1 n=a#4 v=49
66048 Off ch=1 n=g5 v=0
66048 On ch=1 n=c6 v=49
66048 Off ch=1 n=a#4 v=0
66048 On ch=1 n=e5 v=49
66560 Off ch=1 n=g6 v=0
66560 On ch=1 n=f6 v=49
66560 Off ch=1 n=c6 v=0
66560 On ch=1 n=f5 v=49
66560 Off ch=1 n=e5 v=0
66560 On ch=1 n=a4 v=49
66560 Off ch=1 n=a#4 v=0
66560 On ch=1 n=a4 v=49
67072 Off ch=1 n=f5 v=0
67072 On ch=1 n=b5 v=49
67072 Off ch=1 n=a4 v=0
67072 On ch=1 n=d5 v=49
67584 Off ch=1 n=f6 v=0
67584 Off ch=1 n=b5 v=0
67584 Off ch=1 n=d5 v=0
67584 Off ch=1 n=a4 v=0
67584 On ch=1 n=a5 v=49
67584 On ch=1 n=a5 v=49
67584 On ch=1 n=d#4 v=49
67584 On ch=1 n=d#4 v=49
68096 Off ch=1 n=a5 v=0
68096 On ch=1 n=f#5 v=49
68096 Off ch=1 n=d#4 v=0
68096 On ch=1 n=c5 v=49
68608 Off ch=1 n=a5 v=0
68608 On ch=1 n=e6 v=49
68608 Off ch=1 n=f#5 v=0
68608 Off ch=1 n=c5 v=0
68608 On ch=1 n=a3 v=49
68608 Off ch=1 n=d#4 v=0
69120 Off ch=1 n=e6 v=0
69120 On ch=1 n=a5 v=49
69120 On ch=1 n=a6 v=49
69120 Off ch=1 n=a3 v=0
69120 On ch=1 n=e4 v=49
69120 On ch=1 n=c#5 v=49
69632 Off ch=1 n=a5 v=0
69632 Off ch=1 n=a6 v=0
69632 Off ch=1 n=e4 v=0
69632 Off ch=1 n=c#5 v=0
69632 On ch=1 n=g#6 v=49
69632 On ch=1 n=g#5 v=49
69632 On ch=1 n=f4 v=49
70144 Off ch=1 n=g#5 v=0
70144 On ch=1 n=d#6 v=49
70144 Off ch=1 n=f4 v=0
70144 On ch=1 n=b4 v=49
70144 On ch=1 n=d#5 v=49
70656 Off ch=1 n=g#6 v=0
70656 On ch=1 n=e6 v=49
70656 Off ch=1 n=d#6 v=0
70656 Off ch=1 n=b4 v=0
70656 Off ch=1 n=d#5 v=0
70656 On ch=1 n=a3 v=49
71168 Off ch=1 n=e6 v=0
71168 On ch=1 n=a5 v=49
71168 On ch=1 n=a6 v=49
71168 Off ch=1 n=a3 v=0
71168 On ch=1 n=e4 v=49
71168 On ch=1 n=c#5 v=49
71680 Off ch=1 n=a5 v=0
71680 Off ch=1 n=a6 v=0
71680 Off ch=1 n=e4 v=0
71680 Off ch=1 n=c#5 v=0
71680 On ch=1 n=g#6 v=49
71680 On ch=1 n=g#5 v=49
71680 On ch=1 n=f4 v=49
72192 Off ch=1 n=g#5 v=0
72192 On ch=1 n=d#6 v=49
72192 Off ch=1 n=f4 v=0
72192 On ch=1 n=b4 v=49
72192 On ch=1 n=d#5 v=49
72704 Off ch=1 n=g#6 v=0
72704 On ch=1 n=c#6 v=49
72704 Off ch=1 n=d#6 v=0
72704 On ch=1 n=c#6 v=49
72704 Off ch=1 n=b4 v=0
72704 Off ch=1 n=d#5 v=0
72704 On ch=1 n=c#4 v=49
73216 Off ch=1 n=c#6 v=0
73216 On ch=1 n=f5 v=49
73216 On ch=1 n=g#5 v=49
73216 Off ch=1 n=c#4 v=0
73216 On ch=1 n=b4 v=49
73728 Off ch=1 n=c#6 v=0
73728 Off ch=1 n=f5 v=0
73728 Off ch=1 n=g#5 v=0
73728 Off ch=1 n=b4 v=0
73728 On ch=1 n=c6 v=49
73728 On ch=1 n=c4 v=49
73984 Off ch=1 n=c6 v=0
73984 On ch=1 n=d#6 v=49
74240 Off ch=1 n=d#6 v=0
74240 On ch=1 n=g5 v=49
74240 Off ch=1 n=c4 v=0
74240 On ch=1 n=g4 v=49
74240 On ch=1 n=d#5 v=49
74752 Off ch=1 n=g5 v=0
74752 On ch=1 n=f#5 v=49
74752 Off ch=1 n=g4 v=0
74752 Off ch=1 n=d#5 v=0
74752 On ch=1 n=g#3 v=49
75264 Off ch=1 n=g#3 v=0
75264 On ch=1 n=d#4 v=49
75264 On ch=1 n=c5 v=49
75776 Off ch=1 n=f#5 v=0
75776 Off ch=1 n=d#4 v=0
75776 Off ch=1 n=c5 v=0
75776 On ch=1 n=f5 v=49
75776 On ch=1 n=f3 v=49
76032 Off ch=1 n=f5 v=0
76032 On ch=1 n=g5 v=49
76288 Off ch=1 n=g5 v=0
76288 On ch=1 n=g#5 v=49
76288 Off ch=1 n=f3 v=0
76288 On ch=1 n=c4 v=49
76288 On ch=1 n=g#4 v=49
76800 Off ch=1 n=g#5 v=0
76800 On ch=1 n=e5 v=49
76800 Off ch=1 n=c4 v=0
76800 Off ch=1 n=g#4 v=0
76800 On ch=1 n=f#3 v=49
77312 Off ch=1 n=f#3 v=0
77312 On ch=1 n=c#4 v=49
77312 On ch=1 n=a#4 v=49
77824 Off ch=1 n=e5 v=0
77824 Off ch=1 n=c#4 v=0
77824 Off ch=1 n=a#4 v=0
77824 On ch=1 n=c6 v=49
77824 On ch=1 n=c4 v=49
78336 Off ch=1 n=c4 v=0
78336 On ch=1 n=g4 v=49
78336 On ch=1 n=e5 v=49
78848 Off ch=1 n=g4 v=0
78848 Off ch=1 n=e5 v=0
78848 On ch=1 n=d4 v=49
79360 Off ch=1 n=c6 v=0
79360 On ch=1 n=f6 v=49
79360 Off ch=1 n=d4 v=0
79360 On ch=1 n=a4 v=49
79360 On ch=1 n=f5 v=49
79872 Off ch=1 n=a4 v=0
79872 Off ch=1 n=f5 v=0
79872 On ch=1 n=e4 v=49
80384 Off ch=1 n=f6 v=0
80384 On ch=1 n=b5 v=49
80384 Off ch=1 n=e4 v=0
80384 On ch=1 n=b4 v=49
80384 On ch=1 n=g5 v=49
80896 Off ch=1 n=b5 v=0
80896 On ch=1 n=d6 v=49
80896 On ch=1 n=d6 v=49
80896 Off ch=1 n=b4 v=0
80896 Off ch=1 n=g5 v=0
80896 On ch=1 n=d4 v=49
81408 Off ch=1 n=d6 v=0
81408 On ch=1 n=f#5 v=49
81408 On ch=1 n=a5 v=49
81408 Off ch=1 n=d4 v=0
81408 On ch=1 n=c5 v=49
81920 Off ch=1 n=d6 v=0
81920 Off ch=1 n=f#5 v=0
81920 Off ch=1 n=a5 v=0
81920 Off ch=1 n=c5 v=0
81920 On ch=1 n=b5 v=94
81920 On ch=1 n=b3 v=94
82176 Off ch=1 n=b5 v=0
82176 On ch=1 n=a#5 v=100
82432 Off ch=1 n=a#5 v=0
82432 On ch=1 n=f#5 v=106
82432 Off ch=1 n=b3 v=0
82432 On ch=1 n=f#4 v=94
82432 On ch=1 n=d#5 v=94
82944 Off ch=1 n=f#5 v=0
82944 On ch=1 n=g5 v=118
82944 Off ch=1 n=f#4 v=0
82944 Off ch=1 n=d#5 v=0
82944 On ch=1 n=c4 v=94
83456 Off ch=1 n=g5 v=0
83456 On ch=1 n=c6 v=127
83456 Off ch=1 n=c4 v=0
83456 On ch=1 n=g4 v=94
83456 On ch=1 n=e5 v=94
83968 Off ch=1 n=c6 v=0
83968 Off ch=1 n=g4 v=0
83968 Off ch=1 n=e5 v=0
83968 On ch=1 n=g#5 v=94
83968 On ch=1 n=g#5 v=94
83968 On ch=1 n=g#3 v=94
84480 Off ch=1 n=g#5 v=0
84480 On ch=1 n=d#5 v=106
84480 Off ch=1 n=g#3 v=0
84480 On ch=1 n=d#4 v=94
84480 On ch=1 n=b4 v=94
84992 Off ch=1 n=g#5 v=0
84992 On ch=1 n=c6 v=118
84992 Off ch=1 n=d#5 v=0
84992 On ch=1 n=c6 v=118
84992 Off ch=1 n=d#4 v=0
84992 Off ch=1 n=b4 v=0
84992 On ch=1 n=c4 v=94
85504 Off ch=1 n=c6 v=0
85504 On ch=1 n=g5 v=127
85504 Off ch=1 n=c4 v=0
85504 On ch=1 n=g4 v=94
85504 On ch=1 n=d#5 v=94
85760 Off ch=1 n=g5 v=0
85760 On ch=1 n=a5 v=127
86016 Off ch=1 n=c6 v=0
86016 Off ch=1 n=a5 v=0
86016 Off ch=1 n=g4 v=0
86016 Off ch=1 n=d#5 v=0
86016 On ch=1 n=d6 v=94
86016 On ch=1 n=d4 v=94
86528 Off ch=1 n=d6 v=0
86528 On ch=1 n=c#6 v=94
86528 Off ch=1 n=d4 v=0
86528 On ch=1 n=a4 v=94
86528 On ch=1 n=f5 v=94
87040 Off ch=1 n=c#6 v=0
87040 On ch=1 n=a#5 v=94
87040 On ch=1 n=a#5 v=94
87040 Off ch=1 n=a4 v=0
87040 Off ch=1 n=f5 v=0
87040 On ch=1 n=d#4 v=94
87552 Off ch=1 n=a#5 v=0
87552 On ch=1 n=g5 v=94
87552 Off ch=1 n=d#4 v=0
87552 On ch=1 n=a#4 v=94
87552 On ch=1 n=d#5 v=94
88064 Off ch=1 n=a#5 v=0
88064 Off ch=1 n=g5 v=0
88064 Off ch=1 n=a#4 v=0
88064 Off ch=1 n=d#5 v=0
88064 On ch=1 n=c5 v=75
88064 On ch=1 n=d#5 v=75
88064 On ch=1 n=g5 v=75
88064 On ch=1 n=c6 v=75
88064 On ch=1 n=c3 v=75
88064 On ch=1 n=g3 v=75
88064 On ch=1 n=c4 v=75
91136 Off ch=1 n=c5 v=0
91136 Off ch=1 n=d#5 v=0
91136 Off ch=1 n=g5 v=0
91136 Off ch=1 n=c6 v=0
91136 Off ch=1 n=c3 v=0
91136 Off ch=1 n=g3 v=0
91136 Off ch=1 n=c4 v=0
91136 Meta TrkEnd
TrkEnd
