MFile 1 4 1024
MTrk
0 TimeSig 4/4 24 8
0 KeySig 0 minor
0 Tempo 1200000
0 Tempo 1200000
20480 Tempo 1333333
20480 Tempo 1333333
20480 Tempo 1333333
36864 Tempo 1200000
36864 Tempo 1200000
36864 Tempo 1200000
61440 Tempo 1333333
61440 Tempo 1333333
61440 Tempo 1333333
94208 Tempo 1500000
94208 Tempo 1500000
94208 Tempo 1500000
155648 Tempo 1333333
155648 Tempo 1333333
155648 Tempo 1333333
184320 Tempo 1200000
184320 Tempo 1200000
184320 Tempo 1200000
200704 Tempo 1333333
200704 Tempo 1333333
200704 Tempo 1333333
216728 Tempo 1428571
216728 Tempo 1538461
216728 Tempo 1666666
221184 Meta TrkEnd
TrkEnd
MTrk
0 Meta TrkName "Acoustic Grand Piano"
0 PrCh ch=1 p=0
0 Par ch=1 c=67 v=0
0 On ch=1 n=a6 v=64
512 Off ch=1 n=a6 v=0
512 On ch=1 n=a6 v=64
1024 Off ch=1 n=a6 v=0
1024 On ch=1 n=d#6 v=64
1536 Off ch=1 n=d#6 v=0
1536 On ch=1 n=d#6 v=64
2048 Off ch=1 n=d#6 v=0
2048 On ch=1 n=f#6 v=64
2560 Off ch=1 n=f#6 v=0
2560 On ch=1 n=f#6 v=64
4096 Off ch=1 n=f#6 v=0
5120 On ch=1 n=e6 v=64
5632 Off ch=1 n=e6 v=0
5632 On ch=1 n=e6 v=64
6144 Off ch=1 n=e6 v=0
6144 On ch=1 n=d#6 v=64
6656 Off ch=1 n=d#6 v=0
6656 On ch=1 n=d#6 v=64
7168 Off ch=1 n=d#6 v=0
7168 On ch=1 n=c6 v=64
7680 Off ch=1 n=c6 v=0
7680 On ch=1 n=c6 v=64
8192 Off ch=1 n=c6 v=0
8192 On ch=1 n=b5 v=64
8704 Off ch=1 n=b5 v=0
8704 On ch=1 n=b5 v=64
10240 Off ch=1 n=b5 v=0
16384 On ch=1 n=a6 v=64
16896 Off ch=1 n=a6 v=0
16896 On ch=1 n=a6 v=64
17408 Off ch=1 n=a6 v=0
17408 On ch=1 n=d#6 v=64
17920 Off ch=1 n=d#6 v=0
17920 On ch=1 n=d#6 v=64
18432 Off ch=1 n=d#6 v=0
18432 On ch=1 n=f#6 v=64
18944 Off ch=1 n=f#6 v=0
18944 On ch=1 n=f#6 v=64
20480 Off ch=1 n=f#6 v=0
21504 On ch=1 n=e6 v=64
22016 Off ch=1 n=e6 v=0
22016 On ch=1 n=e6 v=64
22528 Off ch=1 n=e6 v=0
22528 On ch=1 n=d#6 v=64
23040 Off ch=1 n=d#6 v=0
23040 On ch=1 n=d#6 v=64
23552 Off ch=1 n=d#6 v=0
23552 On ch=1 n=c6 v=64
24064 Off ch=1 n=c6 v=0
24064 On ch=1 n=c6 v=64
24576 Off ch=1 n=c6 v=0
24576 On ch=1 n=b5 v=64
25088 Off ch=1 n=b5 v=0
25088 On ch=1 n=b5 v=64
26624 Off ch=1 n=b5 v=0
28544 On ch=1 n=b5 v=64
28672 Off ch=1 n=b5 v=0
28672 On ch=1 n=d6 v=64
29696 Off ch=1 n=d6 v=0
29696 On ch=1 n=b5 v=64
30208 Off ch=1 n=b5 v=0
30208 On ch=1 n=b5 v=64
30720 Off ch=1 n=b5 v=0
30720 On ch=1 n=c6 v=64
31232 Off ch=1 n=c6 v=0
31232 On ch=1 n=c6 v=64
32768 Off ch=1 n=c6 v=0
32768 On ch=1 n=b5 v=64
33280 Off ch=1 n=b5 v=0
33280 On ch=1 n=b5 v=64
34816 Off ch=1 n=b5 v=0
36736 On ch=1 n=b5 v=64
36864 Off ch=1 n=b5 v=0
36864 On ch=1 n=d6 v=64
41984 Off ch=1 n=d6 v=0
41984 On ch=1 n=b5 v=64
42496 Off ch=1 n=b5 v=0
42496 On ch=1 n=b5 v=64
43008 Off ch=1 n=b5 v=0
43008 On ch=1 n=d6 v=64
43520 Off ch=1 n=d6 v=0
43520 On ch=1 n=d6 v=64
44032 Off ch=1 n=d6 v=0
44032 On ch=1 n=b5 v=64
44544 Off ch=1 n=b5 v=0
44544 On ch=1 n=b5 v=64
45056 Off ch=1 n=b5 v=0
45056 On ch=1 n=g#5 v=64
45568 Off ch=1 n=g#5 v=0
45568 On ch=1 n=a5 v=67
46080 Off ch=1 n=a5 v=0
46080 On ch=1 n=b5 v=70
46592 Off ch=1 n=b5 v=0
46592 On ch=1 n=d6 v=73
47104 Off ch=1 n=d6 v=0
47104 On ch=1 n=b5 v=76
47616 Off ch=1 n=b5 v=0
47616 On ch=1 n=a5 v=79
48128 Off ch=1 n=a5 v=0
48128 On ch=1 n=g#5 v=82
48640 Off ch=1 n=g#5 v=0
48640 On ch=1 n=a5 v=85
49152 Off ch=1 n=a5 v=0
49152 On ch=1 n=b5 v=88
49664 Off ch=1 n=b5 v=0
49664 On ch=1 n=d6 v=85
50176 Off ch=1 n=d6 v=0
50176 On ch=1 n=b5 v=82
50688 Off ch=1 n=b5 v=0
50688 On ch=1 n=a5 v=79
51200 Off ch=1 n=a5 v=0
51200 On ch=1 n=g#5 v=76
51712 Off ch=1 n=g#5 v=0
51712 On ch=1 n=a5 v=73
52224 Off ch=1 n=a5 v=0
52224 On ch=1 n=b5 v=70
52736 Off ch=1 n=b5 v=0
52736 On ch=1 n=d6 v=67
53248 Off ch=1 n=d6 v=0
53248 On ch=1 n=f6 v=64
53760 Off ch=1 n=f6 v=0
53760 On ch=1 n=f6 v=64
54272 Off ch=1 n=f6 v=0
54272 On ch=1 n=a5 v=64
54784 Off ch=1 n=a5 v=0
54784 On ch=1 n=a5 v=64
56320 Off ch=1 n=a5 v=0
61440 Par ch=1 c=65 v=10
61440 On ch=1 n=e6 v=49
61952 Off ch=1 n=e6 v=0
61952 On ch=1 n=e6 v=49
62464 Off ch=1 n=e6 v=0
62464 On ch=1 n=a#5 v=49
62976 Off ch=1 n=a#5 v=0
62976 On ch=1 n=a#5 v=49
63488 Off ch=1 n=a#5 v=0
63488 On ch=1 n=c#6 v=49
64000 Off ch=1 n=c#6 v=0
64000 On ch=1 n=c#6 v=49
65536 Off ch=1 n=c#6 v=0
66560 On ch=1 n=b5 v=49
67072 Off ch=1 n=b5 v=0
67072 On ch=1 n=b5 v=49
67584 Off ch=1 n=b5 v=0
67584 On ch=1 n=a#5 v=49
68096 Off ch=1 n=a#5 v=0
68096 On ch=1 n=a#5 v=49
68608 Off ch=1 n=a#5 v=0
68608 On ch=1 n=g5 v=49
69120 Off ch=1 n=g5 v=0
69120 On ch=1 n=g5 v=49
69632 Off ch=1 n=g5 v=0
69632 On ch=1 n=f#5 v=49
70144 Off ch=1 n=f#5 v=0
70144 On ch=1 n=f#5 v=49
71680 Off ch=1 n=f#5 v=0
77824 On ch=1 n=e6 v=49
78336 Off ch=1 n=e6 v=0
78336 On ch=1 n=e6 v=49
78848 Off ch=1 n=e6 v=0
78848 On ch=1 n=a#5 v=49
79360 Off ch=1 n=a#5 v=0
79360 On ch=1 n=a#5 v=49
79872 Off ch=1 n=a#5 v=0
79872 On ch=1 n=c#6 v=49
80384 Off ch=1 n=c#6 v=0
80384 On ch=1 n=c#6 v=49
81920 Off ch=1 n=c#6 v=0
82944 On ch=1 n=b5 v=49
83456 Off ch=1 n=b5 v=0
83456 On ch=1 n=b5 v=49
83968 Off ch=1 n=b5 v=0
83968 On ch=1 n=a#5 v=49
84480 Off ch=1 n=a#5 v=0
84480 On ch=1 n=a#5 v=49
84992 Off ch=1 n=a#5 v=0
84992 On ch=1 n=g5 v=49
85504 Off ch=1 n=g5 v=0
85504 On ch=1 n=g5 v=49
86016 Off ch=1 n=g5 v=0
86016 On ch=1 n=f#5 v=49
86528 Off ch=1 n=f#5 v=0
86528 On ch=1 n=f#5 v=49
88064 Off ch=1 n=f#5 v=0
89984 On ch=1 n=f#5 v=49
90112 Off ch=1 n=f#5 v=0
90112 On ch=1 n=a5 v=49
94208 Off ch=1 n=a5 v=0
94208 On ch=1 n=e5 v=49
94720 Off ch=1 n=e5 v=0
94720 On ch=1 n=f#5 v=49
95232 Off ch=1 n=f#5 v=0
95232 On ch=1 n=g5 v=49
95744 Off ch=1 n=g5 v=0
95744 On ch=1 n=a#5 v=49
96256 Off ch=1 n=a#5 v=0
96256 On ch=1 n=b5 v=49
96768 Off ch=1 n=b5 v=0
96768 On ch=1 n=c#6 v=49
97280 Off ch=1 n=c#6 v=0
97280 On ch=1 n=e6 v=49
97792 Off ch=1 n=e6 v=0
97792 On ch=1 n=c#6 v=49
98304 Off ch=1 n=c#6 v=0
98304 On ch=1 n=b5 v=49
98816 Off ch=1 n=b5 v=0
98816 On ch=1 n=a#5 v=49
99328 Off ch=1 n=a#5 v=0
99328 On ch=1 n=g5 v=49
99840 Off ch=1 n=g5 v=0
99840 On ch=1 n=f#5 v=49
100352 Off ch=1 n=f#5 v=0
100352 On ch=1 n=e5 v=49
100864 Off ch=1 n=e5 v=0
100864 On ch=1 n=f#5 v=49
101376 Off ch=1 n=f#5 v=0
101376 On ch=1 n=g5 v=49
101888 Off ch=1 n=g5 v=0
101888 On ch=1 n=a#5 v=49
102400 Off ch=1 n=a#5 v=0
102400 On ch=1 n=b5 v=49
102912 Off ch=1 n=b5 v=0
102912 On ch=1 n=c#6 v=49
103424 Off ch=1 n=c#6 v=0
103424 On ch=1 n=e6 v=49
103936 Off ch=1 n=e6 v=0
103936 On ch=1 n=c#6 v=49
104448 Off ch=1 n=c#6 v=0
104448 On ch=1 n=b5 v=49
104960 Off ch=1 n=b5 v=0
104960 On ch=1 n=a#5 v=49
105472 Off ch=1 n=a#5 v=0
105472 On ch=1 n=g5 v=49
105984 Off ch=1 n=g5 v=0
105984 On ch=1 n=f#5 v=49
106496 Off ch=1 n=f#5 v=0
106496 On ch=1 n=e5 v=49
107008 Off ch=1 n=e5 v=0
107008 On ch=1 n=f#5 v=49
107520 Off ch=1 n=f#5 v=0
107520 On ch=1 n=g5 v=49
108032 Off ch=1 n=g5 v=0
108032 On ch=1 n=a#5 v=49
108544 Off ch=1 n=a#5 v=0
108544 On ch=1 n=b5 v=49
109056 Off ch=1 n=b5 v=0
109056 On ch=1 n=c#6 v=49
109568 Off ch=1 n=c#6 v=0
109568 On ch=1 n=e6 v=49
110080 Off ch=1 n=e6 v=0
110080 On ch=1 n=c#6 v=49
110592 Off ch=1 n=c#6 v=0
110592 On ch=1 n=d6 v=49
111104 Off ch=1 n=d6 v=0
111104 On ch=1 n=d6 v=49
112640 Off ch=1 n=d6 v=0
118784 Par ch=1 c=67 v=10
118784 On ch=1 n=e5 v=36
119296 Off ch=1 n=e5 v=0
119296 On ch=1 n=f#5 v=36
119808 Off ch=1 n=f#5 v=0
119808 On ch=1 n=g5 v=36
120320 Off ch=1 n=g5 v=0
120320 On ch=1 n=a#5 v=36
120832 Off ch=1 n=a#5 v=0
120832 On ch=1 n=b5 v=36
121344 Off ch=1 n=b5 v=0
121344 On ch=1 n=c#6 v=36
121856 Off ch=1 n=c#6 v=0
121856 On ch=1 n=e6 v=36
122368 Off ch=1 n=e6 v=0
122368 On ch=1 n=c#6 v=36
122880 Off ch=1 n=c#6 v=0
122880 On ch=1 n=b5 v=36
123392 Off ch=1 n=b5 v=0
123392 On ch=1 n=a#5 v=36
123904 Off ch=1 n=a#5 v=0
123904 On ch=1 n=g5 v=36
124416 Off ch=1 n=g5 v=0
124416 On ch=1 n=f#5 v=36
124928 Off ch=1 n=f#5 v=0
124928 On ch=1 n=e5 v=36
125440 Off ch=1 n=e5 v=0
125440 On ch=1 n=f#5 v=36
125952 Off ch=1 n=f#5 v=0
125952 On ch=1 n=g5 v=36
126464 Off ch=1 n=g5 v=0
126464 On ch=1 n=a#5 v=36
126976 Off ch=1 n=a#5 v=0
126976 On ch=1 n=b5 v=36
127488 Off ch=1 n=b5 v=0
127488 On ch=1 n=c#6 v=36
128000 Off ch=1 n=c#6 v=0
128000 On ch=1 n=e6 v=36
128512 Off ch=1 n=e6 v=0
128512 On ch=1 n=c#6 v=36
129024 Off ch=1 n=c#6 v=0
129024 On ch=1 n=b5 v=36
129536 Off ch=1 n=b5 v=0
129536 On ch=1 n=a#5 v=36
130048 Off ch=1 n=a#5 v=0
130048 On ch=1 n=g5 v=36
130560 Off ch=1 n=g5 v=0
130560 On ch=1 n=f#5 v=36
131072 Off ch=1 n=f#5 v=0
131072 On ch=1 n=e5 v=36
131584 Off ch=1 n=e5 v=0
131584 On ch=1 n=f#5 v=36
132096 Off ch=1 n=f#5 v=0
132096 On ch=1 n=g5 v=36
132608 Off ch=1 n=g5 v=0
132608 On ch=1 n=a#5 v=36
133120 Off ch=1 n=a#5 v=0
133120 On ch=1 n=b5 v=36
133632 Off ch=1 n=b5 v=0
133632 On ch=1 n=c#6 v=36
134144 Off ch=1 n=c#6 v=0
134144 On ch=1 n=e6 v=36
134656 Off ch=1 n=e6 v=0
134656 On ch=1 n=c#6 v=36
135168 Off ch=1 n=c#6 v=0
135168 On ch=1 n=d6 v=36
135680 Off ch=1 n=d6 v=0
135680 On ch=1 n=d6 v=36
137216 Off ch=1 n=d6 v=0
139136 On ch=1 n=f#5 v=36
139264 Off ch=1 n=f#5 v=0
139264 On ch=1 n=a5 v=36
145408 Off ch=1 n=a5 v=0
147328 On ch=1 n=c6 v=8
147456 Off ch=1 n=c6 v=0
147456 On ch=1 n=g#5 v=36
153600 Off ch=1 n=g#5 v=0
155648 On ch=1 n=g#5 v=64
156160 Off ch=1 n=g#5 v=0
156160 On ch=1 n=b5 v=73
156672 Off ch=1 n=b5 v=0
156672 On ch=1 n=c6 v=83
157184 Off ch=1 n=c6 v=0
157184 On ch=1 n=d#6 v=92
157696 Off ch=1 n=d#6 v=0
157696 On ch=1 n=d6 v=64
158208 Off ch=1 n=d6 v=0
158208 On ch=1 n=c6 v=55
158720 Off ch=1 n=c6 v=0
158720 On ch=1 n=b5 v=45
159232 Off ch=1 n=b5 v=0
159232 On ch=1 n=g#5 v=36
159744 Off ch=1 n=g#5 v=0
159744 On ch=1 n=c6 v=64
160256 Off ch=1 n=c6 v=0
160256 On ch=1 n=c6 v=64
161792 Off ch=1 n=c6 v=0
163712 On ch=1 n=b5 v=64
163840 Off ch=1 n=b5 v=0
163840 On ch=1 n=d6 v=64
169984 Off ch=1 n=d6 v=0
172032 On ch=1 n=g#5 v=64
172544 Off ch=1 n=g#5 v=0
172544 On ch=1 n=b5 v=73
173056 Off ch=1 n=b5 v=0
173056 On ch=1 n=c6 v=83
173568 Off ch=1 n=c6 v=0
173568 On ch=1 n=d#6 v=92
174080 Off ch=1 n=d#6 v=0
174080 On ch=1 n=d6 v=64
174592 Off ch=1 n=d6 v=0
174592 On ch=1 n=c6 v=55
175104 Off ch=1 n=c6 v=0
175104 On ch=1 n=b5 v=45
175616 Off ch=1 n=b5 v=0
175616 On ch=1 n=g#5 v=36
176128 Off ch=1 n=g#5 v=0
176128 On ch=1 n=c6 v=64
176640 Off ch=1 n=c6 v=0
176640 On ch=1 n=c6 v=64
178176 Off ch=1 n=c6 v=0
180096 On ch=1 n=b5 v=64
180224 Off ch=1 n=b5 v=0
180224 On ch=1 n=d6 v=64
184320 Off ch=1 n=d6 v=0
184320 On ch=1 n=a6 v=64
184832 Off ch=1 n=a6 v=0
184832 On ch=1 n=a6 v=64
185344 Off ch=1 n=a6 v=0
185344 On ch=1 n=d#6 v=64
185856 Off ch=1 n=d#6 v=0
185856 On ch=1 n=d#6 v=64
186368 Off ch=1 n=d#6 v=0
186368 On ch=1 n=f#6 v=64
186880 Off ch=1 n=f#6 v=0
186880 On ch=1 n=f#6 v=64
188416 Off ch=1 n=f#6 v=0
189440 On ch=1 n=e6 v=64
189952 Off ch=1 n=e6 v=0
189952 On ch=1 n=e6 v=64
190464 Off ch=1 n=e6 v=0
190464 On ch=1 n=d#6 v=64
190976 Off ch=1 n=d#6 v=0
190976 On ch=1 n=d#6 v=64
191488 Off ch=1 n=d#6 v=0
191488 On ch=1 n=c6 v=64
192000 Off ch=1 n=c6 v=0
192000 On ch=1 n=c6 v=64
192512 Off ch=1 n=c6 v=0
192512 On ch=1 n=b5 v=64
193024 Off ch=1 n=b5 v=0
193024 On ch=1 n=b5 v=64
194560 Off ch=1 n=b5 v=0
200704 Par ch=1 c=64 v=10
200704 On ch=1 n=a6 v=36
201216 Off ch=1 n=a6 v=0
201216 On ch=1 n=a6 v=36
201728 Off ch=1 n=a6 v=0
201728 On ch=1 n=d#6 v=36
202240 Off ch=1 n=d#6 v=0
202240 On ch=1 n=d#6 v=36
202752 Off ch=1 n=d#6 v=0
202752 On ch=1 n=f#6 v=36
203264 Off ch=1 n=f#6 v=0
203264 On ch=1 n=f#6 v=36
204800 Off ch=1 n=f#6 v=0
205824 On ch=1 n=e6 v=36
206336 Off ch=1 n=e6 v=0
206336 On ch=1 n=e6 v=36
206848 Off ch=1 n=e6 v=0
206848 On ch=1 n=d#6 v=36
207360 Off ch=1 n=d#6 v=0
207360 On ch=1 n=d#6 v=36
207872 Off ch=1 n=d#6 v=0
207872 On ch=1 n=c6 v=36
208384 Off ch=1 n=c6 v=0
208384 On ch=1 n=c6 v=36
208896 Off ch=1 n=c6 v=0
208896 On ch=1 n=b5 v=36
209408 Off ch=1 n=b5 v=0
209408 On ch=1 n=b5 v=36
210944 Off ch=1 n=b5 v=0
211968 On ch=1 n=b5 v=36
212480 Off ch=1 n=b5 v=0
212480 On ch=1 n=b5 v=36
212992 Off ch=1 n=b5 v=0
212992 On ch=1 n=e6 v=36
213504 Off ch=1 n=e6 v=0
213504 On ch=1 n=e6 v=36
215040 Off ch=1 n=e6 v=0
221184 Meta TrkEnd
TrkEnd
MTrk
0 Meta TrkName "Piano 2"
0 PrCh ch=2 p=0
0 Par ch=2 c=67 v=0
1024 On ch=2 n=c5 v=49
1024 On ch=2 n=e5 v=49
1024 On ch=2 n=a5 v=49
3072 Off ch=2 n=c5 v=0
3072 Off ch=2 n=e5 v=0
3072 Off ch=2 n=a5 v=0
3072 On ch=2 n=c5 v=49
3072 On ch=2 n=e5 v=49
3072 On ch=2 n=a5 v=49
4096 Off ch=2 n=c5 v=0
4096 Off ch=2 n=e5 v=0
4096 Off ch=2 n=a5 v=0
5120 On ch=2 n=c5 v=49
5120 On ch=2 n=e5 v=49
5120 On ch=2 n=a5 v=49
7168 Off ch=2 n=c5 v=0
7168 Off ch=2 n=e5 v=0
7168 Off ch=2 n=a5 v=0
7168 On ch=2 n=c5 v=49
7168 On ch=2 n=e5 v=49
7168 On ch=2 n=a5 v=49
8192 Off ch=2 n=c5 v=0
8192 Off ch=2 n=e5 v=0
8192 Off ch=2 n=a5 v=0
9216 On ch=2 n=g4 v=49
9216 On ch=2 n=b4 v=49
9216 On ch=2 n=e5 v=49
11264 Off ch=2 n=g4 v=0
11264 Off ch=2 n=b4 v=0
11264 Off ch=2 n=e5 v=0
11264 On ch=2 n=g4 v=49
11264 On ch=2 n=b4 v=49
11264 On ch=2 n=e5 v=49
12288 Off ch=2 n=g4 v=0
12288 Off ch=2 n=b4 v=0
12288 Off ch=2 n=e5 v=0
13312 On ch=2 n=g4 v=49
13312 On ch=2 n=b4 v=49
13312 On ch=2 n=e5 v=49
15360 Off ch=2 n=g4 v=0
15360 Off ch=2 n=b4 v=0
15360 Off ch=2 n=e5 v=0
15360 On ch=2 n=g4 v=49
15360 On ch=2 n=b4 v=49
15360 On ch=2 n=e5 v=49
16384 Off ch=2 n=g4 v=0
16384 Off ch=2 n=b4 v=0
16384 Off ch=2 n=e5 v=0
17408 On ch=2 n=c5 v=49
17408 On ch=2 n=e5 v=49
17408 On ch=2 n=a5 v=49
19456 Off ch=2 n=c5 v=0
19456 Off ch=2 n=e5 v=0
19456 Off ch=2 n=a5 v=0
19456 On ch=2 n=c5 v=49
19456 On ch=2 n=e5 v=49
19456 On ch=2 n=a5 v=49
20480 Off ch=2 n=c5 v=0
20480 Off ch=2 n=e5 v=0
20480 Off ch=2 n=a5 v=0
21504 On ch=2 n=c5 v=49
21504 On ch=2 n=e5 v=49
21504 On ch=2 n=a5 v=49
23552 Off ch=2 n=c5 v=0
23552 Off ch=2 n=e5 v=0
23552 Off ch=2 n=a5 v=0
23552 On ch=2 n=c5 v=49
23552 On ch=2 n=e5 v=49
23552 On ch=2 n=a5 v=49
24576 Off ch=2 n=c5 v=0
24576 Off ch=2 n=e5 v=0
24576 Off ch=2 n=a5 v=0
25600 On ch=2 n=g4 v=49
25600 On ch=2 n=b4 v=49
25600 On ch=2 n=e5 v=49
27648 Off ch=2 n=g4 v=0
27648 Off ch=2 n=b4 v=0
27648 Off ch=2 n=e5 v=0
27648 On ch=2 n=g4 v=49
27648 On ch=2 n=b4 v=49
27648 On ch=2 n=e5 v=49
28672 Off ch=2 n=g4 v=0
28672 Off ch=2 n=b4 v=0
28672 Off ch=2 n=e5 v=0
29696 On ch=2 n=a4 v=49
29696 On ch=2 n=d5 v=49
29696 On ch=2 n=f5 v=49
31744 Off ch=2 n=a4 v=0
31744 Off ch=2 n=d5 v=0
31744 Off ch=2 n=f5 v=0
31744 On ch=2 n=a4 v=49
31744 On ch=2 n=d5 v=49
31744 On ch=2 n=f5 v=49
32768 Off ch=2 n=a4 v=0
32768 Off ch=2 n=d5 v=0
32768 Off ch=2 n=f5 v=0
33792 On ch=2 n=g#4 v=49
33792 On ch=2 n=b4 v=49
33792 On ch=2 n=e5 v=49
35840 Off ch=2 n=g#4 v=0
35840 Off ch=2 n=b4 v=0
35840 Off ch=2 n=e5 v=0
35840 On ch=2 n=g#4 v=49
35840 On ch=2 n=b4 v=49
35840 On ch=2 n=e5 v=49
36864 Off ch=2 n=g#4 v=0
36864 Off ch=2 n=b4 v=0
36864 Off ch=2 n=e5 v=0
37888 On ch=2 n=a4 v=49
37888 On ch=2 n=d5 v=49
37888 On ch=2 n=f5 v=49
39936 Off ch=2 n=a4 v=0
39936 Off ch=2 n=d5 v=0
39936 Off ch=2 n=f5 v=0
39936 On ch=2 n=a4 v=49
39936 On ch=2 n=d5 v=49
39936 On ch=2 n=f5 v=49
40960 Off ch=2 n=a4 v=0
40960 Off ch=2 n=d5 v=0
40960 Off ch=2 n=f5 v=0
41984 On ch=2 n=a4 v=49
41984 On ch=2 n=d5 v=49
41984 On ch=2 n=f5 v=49
44032 Off ch=2 n=a4 v=0
44032 Off ch=2 n=d5 v=0
44032 Off ch=2 n=f5 v=0
44032 On ch=2 n=a4 v=49
44032 On ch=2 n=d5 v=49
44032 On ch=2 n=f5 v=49
45056 Off ch=2 n=a4 v=0
45056 Off ch=2 n=d5 v=0
45056 Off ch=2 n=f5 v=0
46080 On ch=2 n=a4 v=49
46080 On ch=2 n=d5 v=49
46080 On ch=2 n=f5 v=49
48128 Off ch=2 n=a4 v=0
48128 Off ch=2 n=d5 v=0
48128 Off ch=2 n=f5 v=0
48128 On ch=2 n=a4 v=49
48128 On ch=2 n=d5 v=49
48128 On ch=2 n=f5 v=49
49152 Off ch=2 n=a4 v=0
49152 Off ch=2 n=d5 v=0
49152 Off ch=2 n=f5 v=0
50176 On ch=2 n=a4 v=49
50176 On ch=2 n=d5 v=49
50176 On ch=2 n=f5 v=49
52224 Off ch=2 n=a4 v=0
52224 Off ch=2 n=d5 v=0
52224 Off ch=2 n=f5 v=0
52224 On ch=2 n=a4 v=49
52224 On ch=2 n=d5 v=49
52224 On ch=2 n=f5 v=49
53248 Off ch=2 n=a4 v=0
53248 Off ch=2 n=d5 v=0
53248 Off ch=2 n=f5 v=0
54272 On ch=2 n=a4 v=49
54272 On ch=2 n=c5 v=49
54272 On ch=2 n=e5 v=49
56320 Off ch=2 n=a4 v=0
56320 Off ch=2 n=c5 v=0
56320 Off ch=2 n=e5 v=0
56320 On ch=2 n=a4 v=49
56320 On ch=2 n=c5 v=49
56320 On ch=2 n=e5 v=49
57344 Off ch=2 n=a4 v=0
57344 Off ch=2 n=c5 v=0
57344 Off ch=2 n=e5 v=0
58368 On ch=2 n=a4 v=49
58368 On ch=2 n=c5 v=49
58368 On ch=2 n=e5 v=49
60416 Off ch=2 n=a4 v=0
60416 Off ch=2 n=c5 v=0
60416 Off ch=2 n=e5 v=0
60416 On ch=2 n=a4 v=49
60416 On ch=2 n=c5 v=49
60416 On ch=2 n=e5 v=49
61440 Par ch=2 c=65 v=10
61440 Off ch=2 n=a4 v=0
61440 Off ch=2 n=c5 v=0
61440 Off ch=2 n=e5 v=0
62464 On ch=2 n=g4 v=36
62464 On ch=2 n=b4 v=36
62464 On ch=2 n=e5 v=36
64512 Off ch=2 n=g4 v=0
64512 Off ch=2 n=b4 v=0
64512 Off ch=2 n=e5 v=0
64512 On ch=2 n=g4 v=36
64512 On ch=2 n=b4 v=36
64512 On ch=2 n=e5 v=36
65536 Off ch=2 n=g4 v=0
65536 Off ch=2 n=b4 v=0
65536 Off ch=2 n=e5 v=0
66560 On ch=2 n=g4 v=36
66560 On ch=2 n=b4 v=36
66560 On ch=2 n=e5 v=36
68608 Off ch=2 n=g4 v=0
68608 Off ch=2 n=b4 v=0
68608 Off ch=2 n=e5 v=0
68608 On ch=2 n=g4 v=36
68608 On ch=2 n=b4 v=36
68608 On ch=2 n=e5 v=36
69632 Off ch=2 n=g4 v=0
69632 Off ch=2 n=b4 v=0
69632 Off ch=2 n=e5 v=0
70656 On ch=2 n=f#4 v=36
70656 On ch=2 n=b4 v=36
70656 On ch=2 n=d5 v=36
72704 Off ch=2 n=f#4 v=0
72704 Off ch=2 n=b4 v=0
72704 Off ch=2 n=d5 v=0
72704 On ch=2 n=f#4 v=36
72704 On ch=2 n=b4 v=36
72704 On ch=2 n=d5 v=36
73728 Off ch=2 n=f#4 v=0
73728 Off ch=2 n=b4 v=0
73728 Off ch=2 n=d5 v=0
74752 On ch=2 n=f#4 v=36
74752 On ch=2 n=b4 v=36
74752 On ch=2 n=d5 v=36
76800 Off ch=2 n=f#4 v=0
76800 Off ch=2 n=b4 v=0
76800 Off ch=2 n=d5 v=0
76800 On ch=2 n=f#4 v=36
76800 On ch=2 n=b4 v=36
76800 On ch=2 n=d5 v=36
77824 Off ch=2 n=f#4 v=0
77824 Off ch=2 n=b4 v=0
77824 Off ch=2 n=d5 v=0
78848 On ch=2 n=g4 v=36
78848 On ch=2 n=b4 v=36
78848 On ch=2 n=e5 v=36
80896 Off ch=2 n=g4 v=0
80896 Off ch=2 n=b4 v=0
80896 Off ch=2 n=e5 v=0
80896 On ch=2 n=g4 v=36
80896 On ch=2 n=b4 v=36
80896 On ch=2 n=e5 v=36
81920 Off ch=2 n=g4 v=0
81920 Off ch=2 n=b4 v=0
81920 Off ch=2 n=e5 v=0
82944 On ch=2 n=g4 v=36
82944 On ch=2 n=b4 v=36
82944 On ch=2 n=e5 v=36
84992 Off ch=2 n=g4 v=0
84992 Off ch=2 n=b4 v=0
84992 Off ch=2 n=e5 v=0
84992 On ch=2 n=g4 v=36
84992 On ch=2 n=b4 v=36
84992 On ch=2 n=e5 v=36
86016 Off ch=2 n=g4 v=0
86016 Off ch=2 n=b4 v=0
86016 Off ch=2 n=e5 v=0
87040 On ch=2 n=f#4 v=36
87040 On ch=2 n=b4 v=36
87040 On ch=2 n=d5 v=36
89088 Off ch=2 n=f#4 v=0
89088 Off ch=2 n=b4 v=0
89088 Off ch=2 n=d5 v=0
89088 On ch=2 n=f#4 v=36
89088 On ch=2 n=b4 v=36
89088 On ch=2 n=d5 v=36
90112 Off ch=2 n=f#4 v=0
90112 Off ch=2 n=b4 v=0
90112 Off ch=2 n=d5 v=0
91136 On ch=2 n=a4 v=36
91136 On ch=2 n=c#5 v=36
91136 On ch=2 n=f#5 v=36
93184 Off ch=2 n=a4 v=0
93184 Off ch=2 n=c#5 v=0
93184 Off ch=2 n=f#5 v=0
93184 On ch=2 n=a4 v=36
93184 On ch=2 n=c#5 v=36
93184 On ch=2 n=f#5 v=36
94208 Off ch=2 n=a4 v=0
94208 Off ch=2 n=c#5 v=0
94208 Off ch=2 n=f#5 v=0
95232 On ch=2 n=g4 v=36
95232 On ch=2 n=b4 v=36
95232 On ch=2 n=e5 v=36
97280 Off ch=2 n=g4 v=0
97280 Off ch=2 n=b4 v=0
97280 Off ch=2 n=e5 v=0
97280 On ch=2 n=g4 v=36
97280 On ch=2 n=b4 v=36
97280 On ch=2 n=e5 v=36
98304 Off ch=2 n=g4 v=0
98304 Off ch=2 n=b4 v=0
98304 Off ch=2 n=e5 v=0
99328 On ch=2 n=g4 v=36
99328 On ch=2 n=b4 v=36
99328 On ch=2 n=e5 v=36
101376 Off ch=2 n=g4 v=0
101376 Off ch=2 n=b4 v=0
101376 Off ch=2 n=e5 v=0
101376 On ch=2 n=g4 v=36
101376 On ch=2 n=b4 v=36
101376 On ch=2 n=e5 v=36
102400 Off ch=2 n=g4 v=0
102400 Off ch=2 n=b4 v=0
102400 Off ch=2 n=e5 v=0
103424 On ch=2 n=g4 v=36
103424 On ch=2 n=b4 v=36
103424 On ch=2 n=e5 v=36
105472 Off ch=2 n=g4 v=0
105472 Off ch=2 n=b4 v=0
105472 Off ch=2 n=e5 v=0
105472 On ch=2 n=g4 v=36
105472 On ch=2 n=b4 v=36
105472 On ch=2 n=e5 v=36
106496 Off ch=2 n=g4 v=0
106496 Off ch=2 n=b4 v=0
106496 Off ch=2 n=e5 v=0
107520 On ch=2 n=g4 v=36
107520 On ch=2 n=b4 v=36
107520 On ch=2 n=e5 v=36
109568 Off ch=2 n=g4 v=0
109568 Off ch=2 n=b4 v=0
109568 Off ch=2 n=e5 v=0
109568 On ch=2 n=g4 v=36
109568 On ch=2 n=b4 v=36
109568 On ch=2 n=e5 v=36
110592 Off ch=2 n=g4 v=0
110592 Off ch=2 n=b4 v=0
110592 Off ch=2 n=e5 v=0
111616 On ch=2 n=f#4 v=36
111616 On ch=2 n=b4 v=36
111616 On ch=2 n=d5 v=36
113664 Off ch=2 n=f#4 v=0
113664 Off ch=2 n=b4 v=0
113664 Off ch=2 n=d5 v=0
113664 On ch=2 n=f#4 v=36
113664 On ch=2 n=b4 v=36
113664 On ch=2 n=d5 v=36
114688 Off ch=2 n=f#4 v=0
114688 Off ch=2 n=b4 v=0
114688 Off ch=2 n=d5 v=0
115712 On ch=2 n=f#4 v=36
115712 On ch=2 n=b4 v=36
115712 On ch=2 n=d5 v=36
117760 Off ch=2 n=f#4 v=0
117760 Off ch=2 n=b4 v=0
117760 Off ch=2 n=d5 v=0
117760 On ch=2 n=f#4 v=36
117760 On ch=2 n=b4 v=36
117760 On ch=2 n=d5 v=36
118784 Par ch=2 c=67 v=10
118784 Off ch=2 n=f#4 v=0
118784 Off ch=2 n=b4 v=0
118784 Off ch=2 n=d5 v=0
119808 On ch=2 n=g4 v=23
119808 On ch=2 n=b4 v=23
119808 On ch=2 n=e5 v=23
121856 Off ch=2 n=g4 v=0
121856 Off ch=2 n=b4 v=0
121856 Off ch=2 n=e5 v=0
121856 On ch=2 n=g4 v=23
121856 On ch=2 n=b4 v=23
121856 On ch=2 n=e5 v=23
122880 Off ch=2 n=g4 v=0
122880 Off ch=2 n=b4 v=0
122880 Off ch=2 n=e5 v=0
123904 On ch=2 n=g4 v=23
123904 On ch=2 n=b4 v=23
123904 On ch=2 n=e5 v=23
125952 Off ch=2 n=g4 v=0
125952 Off ch=2 n=b4 v=0
125952 Off ch=2 n=e5 v=0
125952 On ch=2 n=g4 v=23
125952 On ch=2 n=b4 v=23
125952 On ch=2 n=e5 v=23
126976 Off ch=2 n=g4 v=0
126976 Off ch=2 n=b4 v=0
126976 Off ch=2 n=e5 v=0
128000 On ch=2 n=g4 v=23
128000 On ch=2 n=b4 v=23
128000 On ch=2 n=e5 v=23
130048 Off ch=2 n=g4 v=0
130048 Off ch=2 n=b4 v=0
130048 Off ch=2 n=e5 v=0
130048 On ch=2 n=g4 v=23
130048 On ch=2 n=b4 v=23
130048 On ch=2 n=e5 v=23
131072 Off ch=2 n=g4 v=0
131072 Off ch=2 n=b4 v=0
131072 Off ch=2 n=e5 v=0
132096 On ch=2 n=g4 v=23
132096 On ch=2 n=b4 v=23
132096 On ch=2 n=e5 v=23
134144 Off ch=2 n=g4 v=0
134144 Off ch=2 n=b4 v=0
134144 Off ch=2 n=e5 v=0
134144 On ch=2 n=g4 v=23
134144 On ch=2 n=b4 v=23
134144 On ch=2 n=e5 v=23
135168 Off ch=2 n=g4 v=0
135168 Off ch=2 n=b4 v=0
135168 Off ch=2 n=e5 v=0
136192 On ch=2 n=f#4 v=23
136192 On ch=2 n=b4 v=23
136192 On ch=2 n=d5 v=23
138240 Off ch=2 n=f#4 v=0
138240 Off ch=2 n=b4 v=0
138240 Off ch=2 n=d5 v=0
138240 On ch=2 n=f#4 v=23
138240 On ch=2 n=b4 v=23
138240 On ch=2 n=d5 v=23
139264 Off ch=2 n=f#4 v=0
139264 Off ch=2 n=b4 v=0
139264 Off ch=2 n=d5 v=0
140288 On ch=2 n=a4 v=23
140288 On ch=2 n=c5 v=23
140288 On ch=2 n=e5 v=23
142336 Off ch=2 n=a4 v=0
142336 Off ch=2 n=c5 v=0
142336 Off ch=2 n=e5 v=0
142336 On ch=2 n=a4 v=23
142336 On ch=2 n=c5 v=23
142336 On ch=2 n=e5 v=23
143360 Off ch=2 n=a4 v=0
143360 Off ch=2 n=c5 v=0
143360 Off ch=2 n=e5 v=0
144384 On ch=2 n=a4 v=23
144384 On ch=2 n=c5 v=23
144384 On ch=2 n=e5 v=23
146432 Off ch=2 n=a4 v=0
146432 Off ch=2 n=c5 v=0
146432 Off ch=2 n=e5 v=0
146432 On ch=2 n=a4 v=23
146432 On ch=2 n=c5 v=23
146432 On ch=2 n=e5 v=23
147456 Off ch=2 n=a4 v=0
147456 Off ch=2 n=c5 v=0
147456 Off ch=2 n=e5 v=0
148480 On ch=2 n=g#4 v=36
148480 On ch=2 n=c5 v=36
148480 On ch=2 n=f5 v=36
150528 Off ch=2 n=g#4 v=0
150528 Off ch=2 n=c5 v=0
150528 Off ch=2 n=f5 v=0
150528 On ch=2 n=g#4 v=36
150528 On ch=2 n=c5 v=36
150528 On ch=2 n=f5 v=36
151552 Off ch=2 n=g#4 v=0
151552 Off ch=2 n=c5 v=0
151552 Off ch=2 n=f5 v=0
152576 On ch=2 n=g#4 v=44
152576 On ch=2 n=c5 v=44
152576 On ch=2 n=f5 v=44
154624 Off ch=2 n=g#4 v=0
154624 Off ch=2 n=c5 v=0
154624 Off ch=2 n=f5 v=0
154624 On ch=2 n=g#4 v=47
154624 On ch=2 n=c5 v=47
154624 On ch=2 n=f5 v=47
155648 Off ch=2 n=g#4 v=0
155648 Off ch=2 n=c5 v=0
155648 Off ch=2 n=f5 v=0
156672 On ch=2 n=g#4 v=49
156672 On ch=2 n=c5 v=49
156672 On ch=2 n=f5 v=49
158720 Off ch=2 n=g#4 v=0
158720 Off ch=2 n=c5 v=0
158720 Off ch=2 n=f5 v=0
158720 On ch=2 n=g#4 v=49
158720 On ch=2 n=c5 v=49
158720 On ch=2 n=f5 v=49
159744 Off ch=2 n=g#4 v=0
159744 Off ch=2 n=c5 v=0
159744 Off ch=2 n=f5 v=0
160768 On ch=2 n=g#4 v=49
160768 On ch=2 n=c5 v=49
160768 On ch=2 n=f5 v=49
162816 Off ch=2 n=g#4 v=0
162816 Off ch=2 n=c5 v=0
162816 Off ch=2 n=f5 v=0
162816 On ch=2 n=g#4 v=49
162816 On ch=2 n=c5 v=49
162816 On ch=2 n=f5 v=49
163840 Off ch=2 n=g#4 v=0
163840 Off ch=2 n=c5 v=0
163840 Off ch=2 n=f5 v=0
164864 On ch=2 n=a4 v=49
164864 On ch=2 n=d5 v=49
164864 On ch=2 n=f5 v=49
166912 Off ch=2 n=a4 v=0
166912 Off ch=2 n=d5 v=0
166912 Off ch=2 n=f5 v=0
166912 On ch=2 n=a4 v=49
166912 On ch=2 n=d5 v=49
166912 On ch=2 n=f5 v=49
167936 Off ch=2 n=a4 v=0
167936 Off ch=2 n=d5 v=0
167936 Off ch=2 n=f5 v=0
168960 On ch=2 n=a4 v=49
168960 On ch=2 n=d5 v=49
168960 On ch=2 n=f5 v=49
171008 Off ch=2 n=a4 v=0
171008 Off ch=2 n=d5 v=0
171008 Off ch=2 n=f5 v=0
171008 On ch=2 n=a4 v=49
171008 On ch=2 n=d5 v=49
171008 On ch=2 n=f5 v=49
172032 Off ch=2 n=a4 v=0
172032 Off ch=2 n=d5 v=0
172032 Off ch=2 n=f5 v=0
173056 On ch=2 n=g#4 v=49
173056 On ch=2 n=c5 v=49
173056 On ch=2 n=f5 v=49
175104 Off ch=2 n=g#4 v=0
175104 Off ch=2 n=c5 v=0
175104 Off ch=2 n=f5 v=0
175104 On ch=2 n=g#4 v=49
175104 On ch=2 n=c5 v=49
175104 On ch=2 n=f5 v=49
176128 Off ch=2 n=g#4 v=0
176128 Off ch=2 n=c5 v=0
176128 Off ch=2 n=f5 v=0
177152 On ch=2 n=g#4 v=49
177152 On ch=2 n=c5 v=49
177152 On ch=2 n=f5 v=49
179200 Off ch=2 n=g#4 v=0
179200 Off ch=2 n=c5 v=0
179200 Off ch=2 n=f5 v=0
179200 On ch=2 n=g#4 v=49
179200 On ch=2 n=c5 v=49
179200 On ch=2 n=f5 v=49
180224 Off ch=2 n=g#4 v=0
180224 Off ch=2 n=c5 v=0
180224 Off ch=2 n=f5 v=0
181248 On ch=2 n=a4 v=49
181248 On ch=2 n=d5 v=49
181248 On ch=2 n=f5 v=49
183296 Off ch=2 n=a4 v=0
183296 Off ch=2 n=d5 v=0
183296 Off ch=2 n=f5 v=0
183296 On ch=2 n=a4 v=49
183296 On ch=2 n=d5 v=49
183296 On ch=2 n=f5 v=49
184320 Off ch=2 n=a4 v=0
184320 Off ch=2 n=d5 v=0
184320 Off ch=2 n=f5 v=0
185344 On ch=2 n=c5 v=49
185344 On ch=2 n=e5 v=49
185344 On ch=2 n=a5 v=49
187392 Off ch=2 n=c5 v=0
187392 Off ch=2 n=e5 v=0
187392 Off ch=2 n=a5 v=0
187392 On ch=2 n=c5 v=49
187392 On ch=2 n=e5 v=49
187392 On ch=2 n=a5 v=49
188416 Off ch=2 n=c5 v=0
188416 Off ch=2 n=e5 v=0
188416 Off ch=2 n=a5 v=0
189440 On ch=2 n=c5 v=49
189440 On ch=2 n=e5 v=49
189440 On ch=2 n=a5 v=49
191488 Off ch=2 n=c5 v=0
191488 Off ch=2 n=e5 v=0
191488 Off ch=2 n=a5 v=0
191488 On ch=2 n=c5 v=49
191488 On ch=2 n=e5 v=49
191488 On ch=2 n=a5 v=49
192512 Off ch=2 n=c5 v=0
192512 Off ch=2 n=e5 v=0
192512 Off ch=2 n=a5 v=0
193536 On ch=2 n=g4 v=49
193536 On ch=2 n=b4 v=49
193536 On ch=2 n=e5 v=49
195584 Off ch=2 n=g4 v=0
195584 Off ch=2 n=b4 v=0
195584 Off ch=2 n=e5 v=0
195584 On ch=2 n=g4 v=49
195584 On ch=2 n=b4 v=49
195584 On ch=2 n=e5 v=49
196608 Off ch=2 n=g4 v=0
196608 Off ch=2 n=b4 v=0
196608 Off ch=2 n=e5 v=0
197632 On ch=2 n=g4 v=49
197632 On ch=2 n=b4 v=49
197632 On ch=2 n=e5 v=49
199680 Off ch=2 n=g4 v=0
199680 Off ch=2 n=b4 v=0
199680 Off ch=2 n=e5 v=0
199680 On ch=2 n=g4 v=49
199680 On ch=2 n=b4 v=49
199680 On ch=2 n=e5 v=49
200704 Par ch=2 c=64 v=10
200704 Off ch=2 n=g4 v=0
200704 Off ch=2 n=b4 v=0
200704 Off ch=2 n=e5 v=0
201728 On ch=2 n=c5 v=36
201728 On ch=2 n=e5 v=36
201728 On ch=2 n=a5 v=36
203776 Off ch=2 n=c5 v=0
203776 Off ch=2 n=e5 v=0
203776 Off ch=2 n=a5 v=0
203776 On ch=2 n=c5 v=36
203776 On ch=2 n=e5 v=36
203776 On ch=2 n=a5 v=36
204800 Off ch=2 n=c5 v=0
204800 Off ch=2 n=e5 v=0
204800 Off ch=2 n=a5 v=0
205824 On ch=2 n=c5 v=36
205824 On ch=2 n=e5 v=36
205824 On ch=2 n=a5 v=36
207872 Off ch=2 n=c5 v=0
207872 Off ch=2 n=e5 v=0
207872 Off ch=2 n=a5 v=0
207872 On ch=2 n=c5 v=36
207872 On ch=2 n=e5 v=36
207872 On ch=2 n=a5 v=36
208896 Off ch=2 n=c5 v=0
208896 Off ch=2 n=e5 v=0
208896 Off ch=2 n=a5 v=0
209920 On ch=2 n=g4 v=36
209920 On ch=2 n=b4 v=36
209920 On ch=2 n=e5 v=36
211968 Off ch=2 n=g4 v=0
211968 Off ch=2 n=b4 v=0
211968 Off ch=2 n=e5 v=0
211968 On ch=2 n=g4 v=36
211968 On ch=2 n=b4 v=36
211968 On ch=2 n=e5 v=36
212992 Off ch=2 n=g4 v=0
212992 Off ch=2 n=b4 v=0
212992 Off ch=2 n=e5 v=0
214016 On ch=2 n=a4 v=36
214016 On ch=2 n=c5 v=36
214016 On ch=2 n=e5 v=36
216064 Off ch=2 n=a4 v=0
216064 Off ch=2 n=c5 v=0
216064 Off ch=2 n=e5 v=0
216064 On ch=2 n=a4 v=36
216064 On ch=2 n=c5 v=36
216064 On ch=2 n=e5 v=36
217088 Off ch=2 n=a4 v=0
217088 Off ch=2 n=c5 v=0
217088 Off ch=2 n=e5 v=0
218112 On ch=2 n=a4 v=36
218112 On ch=2 n=c5 v=36
218112 On ch=2 n=e5 v=36
220160 Off ch=2 n=a4 v=0
220160 Off ch=2 n=c5 v=0
220160 Off ch=2 n=e5 v=0
220160 On ch=2 n=a4 v=36
220160 On ch=2 n=c5 v=36
220160 On ch=2 n=e5 v=36
221184 Off ch=2 n=a4 v=0
221184 Off ch=2 n=c5 v=0
221184 Off ch=2 n=e5 v=0
221184 Meta TrkEnd
TrkEnd
MTrk
0 Meta TrkName "Piano 3"
0 PrCh ch=3 p=0
0 Par ch=3 c=67 v=0
0 On ch=3 n=a3 v=49
4096 Off ch=3 n=a3 v=0
4096 On ch=3 n=a3 v=49
8192 Off ch=3 n=a3 v=0
8192 On ch=3 n=e3 v=49
12288 Off ch=3 n=e3 v=0
12288 On ch=3 n=e3 v=49
16384 Off ch=3 n=e3 v=0
16384 On ch=3 n=a3 v=49
20480 Off ch=3 n=a3 v=0
20480 On ch=3 n=a3 v=49
24576 Off ch=3 n=a3 v=0
24576 On ch=3 n=e3 v=49
28672 Off ch=3 n=e3 v=0
28672 On ch=3 n=d3 v=49
32768 Off ch=3 n=d3 v=0
32768 On ch=3 n=e3 v=49
36864 Off ch=3 n=e3 v=0
36864 On ch=3 n=d3 v=49
40960 Off ch=3 n=d3 v=0
40960 On ch=3 n=d3 v=49
45056 Off ch=3 n=d3 v=0
45056 On ch=3 n=d3 v=49
49152 Off ch=3 n=d3 v=0
49152 On ch=3 n=d3 v=49
53248 Off ch=3 n=d3 v=0
53248 On ch=3 n=a2 v=49
57344 Off ch=3 n=a2 v=0
57344 On ch=3 n=a3 v=49
61440 Par ch=3 c=65 v=10
61440 Off ch=3 n=a3 v=0
61440 On ch=3 n=e3 v=36
65536 Off ch=3 n=e3 v=0
65536 On ch=3 n=e3 v=36
69632 Off ch=3 n=e3 v=0
69632 On ch=3 n=b2 v=36
73728 Off ch=3 n=b2 v=0
73728 On ch=3 n=b2 v=36
77824 Off ch=3 n=b2 v=0
77824 On ch=3 n=e3 v=36
81920 Off ch=3 n=e3 v=0
81920 On ch=3 n=e3 v=36
86016 Off ch=3 n=e3 v=0
86016 On ch=3 n=b2 v=36
90112 Off ch=3 n=b2 v=0
90112 On ch=3 n=f#2 v=36
94208 Off ch=3 n=f#2 v=0
94208 On ch=3 n=e3 v=36
98304 Off ch=3 n=e3 v=0
98304 On ch=3 n=e3 v=36
102400 Off ch=3 n=e3 v=0
102400 On ch=3 n=e3 v=36
106496 Off ch=3 n=e3 v=0
106496 On ch=3 n=e3 v=36
110592 Off ch=3 n=e3 v=0
110592 On ch=3 n=b2 v=36
114688 Off ch=3 n=b2 v=0
114688 On ch=3 n=b2 v=36
118784 Par ch=3 c=67 v=10
118784 Off ch=3 n=b2 v=0
118784 On ch=3 n=e3 v=23
122880 Off ch=3 n=e3 v=0
122880 On ch=3 n=e3 v=23
126976 Off ch=3 n=e3 v=0
126976 On ch=3 n=e3 v=23
131072 Off ch=3 n=e3 v=0
131072 On ch=3 n=e3 v=23
135168 Off ch=3 n=e3 v=0
135168 On ch=3 n=b2 v=23
139264 Off ch=3 n=b2 v=0
139264 On ch=3 n=a2 v=23
143360 Off ch=3 n=a2 v=0
143360 On ch=3 n=a3 v=23
147456 Off ch=3 n=a3 v=0
147456 On ch=3 n=f3 v=36
151552 Off ch=3 n=f3 v=0
151552 On ch=3 n=f3 v=43
155648 Off ch=3 n=f3 v=0
155648 On ch=3 n=f3 v=49
159744 Off ch=3 n=f3 v=0
159744 On ch=3 n=f3 v=49
163840 Off ch=3 n=f3 v=0
163840 On ch=3 n=d3 v=49
167936 Off ch=3 n=d3 v=0
167936 On ch=3 n=d3 v=49
172032 Off ch=3 n=d3 v=0
172032 On ch=3 n=f3 v=49
176128 Off ch=3 n=f3 v=0
176128 On ch=3 n=f3 v=49
180224 Off ch=3 n=f3 v=0
180224 On ch=3 n=d3 v=49
184320 Off ch=3 n=d3 v=0
184320 On ch=3 n=a3 v=49
188416 Off ch=3 n=a3 v=0
188416 On ch=3 n=a3 v=49
192512 Off ch=3 n=a3 v=0
192512 On ch=3 n=e3 v=49
196608 Off ch=3 n=e3 v=0
196608 On ch=3 n=e3 v=49
200704 Par ch=3 c=64 v=10
200704 Off ch=3 n=e3 v=0
200704 On ch=3 n=a3 v=36
204800 Off ch=3 n=a3 v=0
204800 On ch=3 n=a3 v=36
208896 Off ch=3 n=a3 v=0
208896 On ch=3 n=e3 v=36
212992 Off ch=3 n=e3 v=0
212992 On ch=3 n=a2 v=36
217088 Off ch=3 n=a2 v=0
217088 On ch=3 n=a3 v=36
221184 Off ch=3 n=a3 v=0
221184 Meta TrkEnd
TrkEnd
