MFile 1 4 480
MTrk
0 Meta SeqName "\xffffff83W\xffffff83\xffffff80\xffffff83m\xffffff83y\xffffff83e\xffffff83B\xffffff91\xffffffe63\xffffff94\xffffffd4"
0 Meta Text "Made with OTAMA (C) 1997-2000 MISO"
0 Tempo 245901
0 KeySig 0 major
0 TimeSig 3/4 24 8
1440 Tempo 712482
76320 Tempo 937500
76688 Tempo 967741
77408 Tempo 1000000
78128 Tempo 1034482
78848 Tempo 1071428
79568 Tempo 1111111
80288 Tempo 1153846
80647 Tempo 712482
80774 Meta TrkEnd
TrkEnd
MTrk
0 SysEx f0 7e 7f 09 01 f7
480 Par ch=1 c=121 v=0
500 Meta Text "# Pitch Bend Sensitivity (0-2-24) #"
500 Par ch=1 c=101 v=0
505 Par ch=1 c=100 v=0
510 Par ch=1 c=6 v=2
515 Pb ch=1 v=8192
520 Par ch=1 c=0 v=0
525 Par ch=1 c=32 v=0
530 PrCh ch=1 p=0
535 Par ch=1 c=7 v=100
540 Par ch=1 c=11 v=110
545 Par ch=1 c=10 v=64
550 Par ch=1 c=91 v=90
555 Par ch=1 c=93 v=0
560 Par ch=1 c=1 v=0
7200 On ch=1 n=a6 v=90
8496 On ch=1 n=a6 v=0
8640 On ch=1 n=g6 v=90
9072 On ch=1 n=g6 v=0
9120 On ch=1 n=f6 v=94
9552 On ch=1 n=f6 v=0
9600 On ch=1 n=e6 v=97
10032 On ch=1 n=e6 v=0
10080 On ch=1 n=d6 v=101
10512 On ch=1 n=d6 v=0
10560 On ch=1 n=e6 v=91
10992 On ch=1 n=e6 v=0
11040 On ch=1 n=f6 v=88
11472 On ch=1 n=f6 v=0
11520 On ch=1 n=e6 v=85
11952 On ch=1 n=e6 v=0
12000 On ch=1 n=d6 v=82
12432 On ch=1 n=d6 v=0
12480 On ch=1 n=c6 v=79
12912 On ch=1 n=c6 v=0
12960 On ch=1 n=e6 v=90
14256 On ch=1 n=e6 v=0
14400 On ch=1 n=g6 v=90
15264 On ch=1 n=g6 v=0
15360 On ch=1 n=g6 v=96
15792 On ch=1 n=g6 v=0
15840 On ch=1 n=d6 v=89
16320 On ch=1 n=a5 v=78
16320 On ch=1 n=f5 v=78
17184 On ch=1 n=a5 v=0
17184 On ch=1 n=f5 v=0
17265 On ch=1 n=d6 v=0
17280 On ch=1 n=d6 v=79
18576 On ch=1 n=d6 v=0
18720 On ch=1 n=d6 v=90
19200 On ch=1 n=a5 v=80
19200 On ch=1 n=f5 v=80
20016 On ch=1 n=d6 v=0
20064 On ch=1 n=a5 v=0
20064 On ch=1 n=f5 v=0
20640 On ch=1 n=c6 v=90
21072 On ch=1 n=c6 v=0
21120 On ch=1 n=f6 v=90
21552 On ch=1 n=f6 v=0
21600 On ch=1 n=g6 v=90
22464 On ch=1 n=g6 v=0
22560 On ch=1 n=a6 v=90
22992 On ch=1 n=a6 v=0
23040 On ch=1 n=d6 v=90
23472 On ch=1 n=d6 v=0
23520 On ch=1 n=e6 v=90
23952 On ch=1 n=e6 v=0
24000 On ch=1 n=f6 v=90
24432 On ch=1 n=f6 v=0
24480 On ch=1 n=b5 v=90
24912 On ch=1 n=b5 v=0
24960 On ch=1 n=a5 v=90
25392 On ch=1 n=a5 v=0
25440 On ch=1 n=g5 v=90
25872 On ch=1 n=g5 v=0
25920 On ch=1 n=a5 v=90
27216 On ch=1 n=a5 v=0
27360 On ch=1 n=d5 v=90
28785 On ch=1 n=d5 v=0
28800 On ch=1 n=d5 v=90
30096 On ch=1 n=d5 v=0
30240 On ch=1 n=e6 v=85
31536 On ch=1 n=e6 v=0
31680 On ch=1 n=f6 v=81
32112 On ch=1 n=f6 v=0
32160 On ch=1 n=g6 v=86
32592 On ch=1 n=g6 v=0
32640 On ch=1 n=f6 v=91
33072 On ch=1 n=f6 v=0
33120 On ch=1 n=e6 v=85
33552 On ch=1 n=e6 v=0
33600 On ch=1 n=d6 v=84
34032 On ch=1 n=d6 v=0
34080 On ch=1 n=e6 v=83
34555 On ch=1 n=e6 v=0
34560 On ch=1 n=e6 v=83
35985 On ch=1 n=e6 v=0
36000 On ch=1 n=e6 v=80
36432 On ch=1 n=e6 v=0
36480 On ch=1 n=d6 v=79
36912 On ch=1 n=d6 v=0
36960 On ch=1 n=c6 v=79
37392 On ch=1 n=c6 v=0
37440 On ch=1 n=b5 v=78
37872 On ch=1 n=b5 v=0
37920 On ch=1 n=c6 v=77
38352 On ch=1 n=c6 v=0
38400 On ch=1 n=b5 v=76
38832 On ch=1 n=b5 v=0
38880 On ch=1 n=a5 v=85
40176 On ch=1 n=a5 v=0
44640 On ch=1 n=a6 v=90
45936 On ch=1 n=a6 v=0
46080 On ch=1 n=g6 v=90
46512 On ch=1 n=g6 v=0
46560 On ch=1 n=f6 v=90
46992 On ch=1 n=f6 v=0
47040 On ch=1 n=e6 v=91
47472 On ch=1 n=e6 v=0
47520 On ch=1 n=d6 v=93
47952 On ch=1 n=d6 v=0
48000 On ch=1 n=e6 v=94
48432 On ch=1 n=e6 v=0
48480 On ch=1 n=f6 v=96
48912 On ch=1 n=f6 v=0
48960 On ch=1 n=e6 v=97
49392 On ch=1 n=e6 v=0
49440 On ch=1 n=d6 v=98
49872 On ch=1 n=d6 v=0
49920 On ch=1 n=c6 v=90
50352 On ch=1 n=c6 v=0
50400 On ch=1 n=e6 v=90
51696 On ch=1 n=e6 v=0
51840 On ch=1 n=g6 v=90
52704 On ch=1 n=g6 v=0
52800 On ch=1 n=g6 v=90
53232 On ch=1 n=g6 v=0
53280 On ch=1 n=c6 v=90
53712 On ch=1 n=c6 v=0
53760 On ch=1 n=b5 v=90
54192 On ch=1 n=b5 v=0
54240 On ch=1 n=a5 v=88
54672 On ch=1 n=a5 v=0
54720 On ch=1 n=b5 v=86
55584 On ch=1 n=b5 v=0
55680 On ch=1 n=c6 v=81
56112 On ch=1 n=c6 v=0
56160 On ch=1 n=d6 v=79
57456 On ch=1 n=d6 v=0
57600 On ch=1 n=e6 v=90
58896 On ch=1 n=e6 v=0
61920 On ch=1 n=g6 v=90
62784 On ch=1 n=g6 v=0
62880 On ch=1 n=a6 v=93
63312 On ch=1 n=a6 v=0
63360 On ch=1 n=d6 v=94
63792 On ch=1 n=d6 v=0
63840 On ch=1 n=e6 v=95
64272 On ch=1 n=e6 v=0
64320 On ch=1 n=f6 v=97
64752 On ch=1 n=f6 v=0
64800 On ch=1 n=b5 v=98
65232 On ch=1 n=b5 v=0
65280 On ch=1 n=a5 v=99
65712 On ch=1 n=a5 v=0
65760 On ch=1 n=g5 v=101
66192 On ch=1 n=g5 v=0
66240 On ch=1 n=a5 v=89
67536 On ch=1 n=a5 v=0
67680 On ch=1 n=d5 v=84
69105 On ch=1 n=d5 v=0
69120 On ch=1 n=d5 v=79
70416 On ch=1 n=d5 v=0
70560 On ch=1 n=e6 v=85
71856 On ch=1 n=e6 v=0
72000 On ch=1 n=f6 v=85
72432 On ch=1 n=f6 v=0
72480 On ch=1 n=g6 v=86
72912 On ch=1 n=g6 v=0
72960 On ch=1 n=f6 v=88
73392 On ch=1 n=f6 v=0
73440 On ch=1 n=e6 v=89
73872 On ch=1 n=e6 v=0
73920 On ch=1 n=d6 v=91
74352 On ch=1 n=d6 v=0
74400 On ch=1 n=e6 v=92
74875 On ch=1 n=e6 v=0
74880 On ch=1 n=e6 v=85
76305 On ch=1 n=e6 v=0
76320 On ch=1 n=e6 v=85
76752 On ch=1 n=e6 v=0
76800 On ch=1 n=d6 v=84
77232 On ch=1 n=d6 v=0
77280 On ch=1 n=c6 v=82
77712 On ch=1 n=c6 v=0
77760 On ch=1 n=b5 v=81
78192 On ch=1 n=b5 v=0
78240 On ch=1 n=c6 v=80
78672 On ch=1 n=c6 v=0
78720 On ch=1 n=b5 v=78
79152 On ch=1 n=b5 v=0
79200 On ch=1 n=a5 v=77
80496 On ch=1 n=a5 v=0
84960 On ch=1 n=c5 v=85
84960 On ch=1 n=e5 v=85
84960 On ch=1 n=c6 v=85
84960 On ch=1 n=a5 v=85
86385 On ch=1 n=c5 v=0
86385 On ch=1 n=e5 v=0
86385 On ch=1 n=c6 v=0
86385 On ch=1 n=a5 v=0
86400 On ch=1 n=c5 v=85
86400 On ch=1 n=e5 v=85
86400 On ch=1 n=a5 v=85
86400 On ch=1 n=c6 v=85
87696 On ch=1 n=c5 v=0
87696 On ch=1 n=e5 v=0
87696 On ch=1 n=a5 v=0
87696 On ch=1 n=c6 v=0
87823 Meta TrkEnd
TrkEnd
MTrk
570 Par ch=2 c=121 v=0
590 Meta Text "# Pitch Bend Sensitivity (0-2-24) #"
590 Par ch=2 c=101 v=0
595 Par ch=2 c=100 v=0
600 Par ch=2 c=6 v=2
605 Pb ch=2 v=8192
610 Par ch=2 c=0 v=0
615 Par ch=2 c=32 v=0
620 PrCh ch=2 p=0
625 Par ch=2 c=7 v=100
630 Par ch=2 c=11 v=110
635 Par ch=2 c=10 v=64
640 Par ch=2 c=91 v=90
645 Par ch=2 c=93 v=0
650 Par ch=2 c=1 v=0
1440 On ch=2 n=a3 v=90
1920 On ch=2 n=c5 v=90
1920 On ch=2 n=e5 v=90
1920 On ch=2 n=a5 v=90
2736 On ch=2 n=a3 v=0
2784 On ch=2 n=c5 v=0
2784 On ch=2 n=e5 v=0
2784 On ch=2 n=a5 v=0
2880 On ch=2 n=d3 v=90
3360 On ch=2 n=b4 v=90
3360 On ch=2 n=e5 v=90
3360 On ch=2 n=g5 v=90
4176 On ch=2 n=d3 v=0
4224 On ch=2 n=b4 v=0
4224 On ch=2 n=e5 v=0
4224 On ch=2 n=g5 v=0
4320 On ch=2 n=a3 v=90
4800 On ch=2 n=c5 v=90
4800 On ch=2 n=e5 v=90
4800 On ch=2 n=a5 v=90
5616 On ch=2 n=a3 v=0
5664 On ch=2 n=c5 v=0
5664 On ch=2 n=e5 v=0
5664 On ch=2 n=a5 v=0
5760 On ch=2 n=d3 v=90
6240 On ch=2 n=b4 v=90
6240 On ch=2 n=e5 v=90
6240 On ch=2 n=g5 v=90
7056 On ch=2 n=d3 v=0
7104 On ch=2 n=b4 v=0
7104 On ch=2 n=e5 v=0
7104 On ch=2 n=g5 v=0
7200 On ch=2 n=a3 v=90
7680 On ch=2 n=c5 v=90
7680 On ch=2 n=e5 v=90
7680 On ch=2 n=a5 v=90
8496 On ch=2 n=a3 v=0
8544 On ch=2 n=c5 v=0
8544 On ch=2 n=e5 v=0
8544 On ch=2 n=a5 v=0
8640 On ch=2 n=c4 v=90
9120 On ch=2 n=c5 v=90
9120 On ch=2 n=e5 v=90
9120 On ch=2 n=a5 v=90
9936 On ch=2 n=c4 v=0
9984 On ch=2 n=c5 v=0
9984 On ch=2 n=e5 v=0
9984 On ch=2 n=a5 v=0
10080 On ch=2 n=g3 v=90
10560 On ch=2 n=a#4 v=90
10560 On ch=2 n=d5 v=90
10560 On ch=2 n=g5 v=90
11376 On ch=2 n=g3 v=0
11424 On ch=2 n=a#4 v=0
11424 On ch=2 n=d5 v=0
11424 On ch=2 n=g5 v=0
11520 On ch=2 n=d3 v=90
12000 On ch=2 n=a4 v=90
12000 On ch=2 n=d5 v=90
12000 On ch=2 n=f5 v=90
12816 On ch=2 n=d3 v=0
12864 On ch=2 n=a4 v=0
12864 On ch=2 n=d5 v=0
12864 On ch=2 n=f5 v=0
12960 On ch=2 n=a3 v=90
13440 On ch=2 n=a4 v=90
13440 On ch=2 n=c5 v=90
13440 On ch=2 n=e5 v=90
14256 On ch=2 n=a3 v=0
14304 On ch=2 n=a4 v=0
14304 On ch=2 n=c5 v=0
14304 On ch=2 n=e5 v=0
14400 On ch=2 n=e3 v=90
14880 On ch=2 n=e5 v=90
14880 On ch=2 n=b4 v=90
14880 On ch=2 n=g4 v=90
15696 On ch=2 n=e3 v=0
15744 On ch=2 n=e5 v=0
15744 On ch=2 n=b4 v=0
15744 On ch=2 n=g4 v=0
15840 On ch=2 n=g3 v=90
16320 On ch=2 n=d4 v=90
16320 On ch=2 n=g4 v=90
16320 On ch=2 n=b4 v=90
17136 On ch=2 n=g3 v=0
17184 On ch=2 n=d4 v=0
17184 On ch=2 n=g4 v=0
17184 On ch=2 n=b4 v=0
17280 On ch=2 n=d3 v=90
17760 On ch=2 n=a4 v=90
17760 On ch=2 n=c5 v=90
17760 On ch=2 n=f5 v=90
18576 On ch=2 n=d3 v=0
18624 On ch=2 n=a4 v=0
18624 On ch=2 n=c5 v=0
18624 On ch=2 n=f5 v=0
18720 On ch=2 n=g3 v=90
19200 On ch=2 n=d4 v=90
19200 On ch=2 n=g4 v=90
19200 On ch=2 n=b4 v=90
20016 On ch=2 n=g3 v=0
20064 On ch=2 n=d4 v=0
20064 On ch=2 n=g4 v=0
20064 On ch=2 n=b4 v=0
20160 On ch=2 n=d3 v=90
20640 On ch=2 n=a4 v=90
20640 On ch=2 n=c5 v=90
20640 On ch=2 n=f5 v=90
21456 On ch=2 n=d3 v=0
21504 On ch=2 n=a4 v=0
21504 On ch=2 n=c5 v=0
21504 On ch=2 n=f5 v=0
21600 On ch=2 n=g2 v=90
22080 On ch=2 n=b4 v=90
22080 On ch=2 n=e5 v=90
22080 On ch=2 n=g5 v=90
22896 On ch=2 n=g2 v=0
22944 On ch=2 n=b4 v=0
22944 On ch=2 n=e5 v=0
22944 On ch=2 n=g5 v=0
23040 On ch=2 n=g2 v=90
23520 On ch=2 n=a4 v=90
23520 On ch=2 n=c5 v=90
23520 On ch=2 n=f5 v=90
24336 On ch=2 n=g2 v=0
24384 On ch=2 n=a4 v=0
24384 On ch=2 n=c5 v=0
24384 On ch=2 n=f5 v=0
24480 On ch=2 n=g2 v=90
24960 On ch=2 n=a4 v=90
24960 On ch=2 n=c5 v=90
24960 On ch=2 n=e5 v=90
25776 On ch=2 n=g2 v=0
25824 On ch=2 n=a4 v=0
25824 On ch=2 n=c5 v=0
25824 On ch=2 n=e5 v=0
25920 On ch=2 n=d3 v=90
26400 On ch=2 n=a4 v=90
26400 On ch=2 n=c5 v=90
26400 On ch=2 n=f5 v=90
27216 On ch=2 n=d3 v=0
27264 On ch=2 n=a4 v=0
27264 On ch=2 n=c5 v=0
27264 On ch=2 n=f5 v=0
27360 On ch=2 n=g2 v=90
27840 On ch=2 n=a4 v=90
27840 On ch=2 n=c5 v=90
27840 On ch=2 n=f5 v=90
28656 On ch=2 n=g2 v=0
28704 On ch=2 n=a4 v=0
28704 On ch=2 n=c5 v=0
28704 On ch=2 n=f5 v=0
28800 On ch=2 n=g2 v=90
29280 On ch=2 n=b4 v=90
29280 On ch=2 n=e5 v=90
29280 On ch=2 n=g5 v=90
30096 On ch=2 n=g2 v=0
30144 On ch=2 n=b4 v=0
30144 On ch=2 n=e5 v=0
30144 On ch=2 n=g5 v=0
30240 On ch=2 n=c3 v=85
30720 On ch=2 n=c5 v=85
30720 On ch=2 n=e5 v=85
30720 On ch=2 n=a5 v=85
31536 On ch=2 n=c3 v=0
31584 On ch=2 n=c5 v=0
31584 On ch=2 n=e5 v=0
31584 On ch=2 n=a5 v=0
31680 On ch=2 n=e3 v=85
32160 On ch=2 n=b4 v=85
32160 On ch=2 n=e5 v=85
32160 On ch=2 n=g5 v=85
32976 On ch=2 n=e3 v=0
33024 On ch=2 n=b4 v=0
33024 On ch=2 n=e5 v=0
33024 On ch=2 n=g5 v=0
33120 On ch=2 n=c3 v=85
33600 On ch=2 n=c5 v=85
33600 On ch=2 n=e5 v=85
33600 On ch=2 n=a5 v=85
34416 On ch=2 n=c3 v=0
34464 On ch=2 n=c5 v=0
34464 On ch=2 n=e5 v=0
34464 On ch=2 n=a5 v=0
34560 On ch=2 n=e3 v=85
35040 On ch=2 n=b4 v=85
35040 On ch=2 n=e5 v=85
35040 On ch=2 n=g5 v=85
35856 On ch=2 n=e3 v=0
35904 On ch=2 n=b4 v=0
35904 On ch=2 n=e5 v=0
35904 On ch=2 n=g5 v=0
36000 On ch=2 n=c3 v=85
36480 On ch=2 n=c5 v=85
36480 On ch=2 n=e5 v=85
36480 On ch=2 n=a5 v=85
37296 On ch=2 n=c3 v=0
37344 On ch=2 n=c5 v=0
37344 On ch=2 n=e5 v=0
37344 On ch=2 n=a5 v=0
37440 On ch=2 n=e3 v=85
37920 On ch=2 n=b4 v=85
37920 On ch=2 n=e5 v=85
37920 On ch=2 n=g5 v=85
38736 On ch=2 n=e3 v=0
38784 On ch=2 n=b4 v=0
38784 On ch=2 n=e5 v=0
38784 On ch=2 n=g5 v=0
38880 On ch=2 n=a3 v=85
39360 On ch=2 n=a4 v=85
39360 On ch=2 n=c5 v=85
39360 On ch=2 n=f5 v=85
40176 On ch=2 n=a3 v=0
40224 On ch=2 n=a4 v=0
40224 On ch=2 n=c5 v=0
40224 On ch=2 n=f5 v=0
40320 On ch=2 n=d3 v=85
40800 On ch=2 n=b4 v=85
40800 On ch=2 n=e5 v=85
40800 On ch=2 n=g5 v=85
41616 On ch=2 n=d3 v=0
41664 On ch=2 n=b4 v=0
41664 On ch=2 n=e5 v=0
41664 On ch=2 n=g5 v=0
41760 On ch=2 n=a3 v=85
42240 On ch=2 n=c5 v=85
42240 On ch=2 n=e5 v=85
42240 On ch=2 n=a5 v=85
43056 On ch=2 n=a3 v=0
43104 On ch=2 n=c5 v=0
43104 On ch=2 n=e5 v=0
43104 On ch=2 n=a5 v=0
43200 On ch=2 n=d3 v=85
43680 On ch=2 n=b4 v=85
43680 On ch=2 n=e5 v=85
43680 On ch=2 n=g5 v=85
44496 On ch=2 n=d3 v=0
44544 On ch=2 n=b4 v=0
44544 On ch=2 n=e5 v=0
44544 On ch=2 n=g5 v=0
44640 On ch=2 n=a3 v=90
45120 On ch=2 n=c5 v=90
45120 On ch=2 n=e5 v=90
45120 On ch=2 n=a5 v=90
45936 On ch=2 n=a3 v=0
45984 On ch=2 n=c5 v=0
45984 On ch=2 n=e5 v=0
45984 On ch=2 n=a5 v=0
46080 On ch=2 n=c4 v=90
46560 On ch=2 n=c5 v=90
46560 On ch=2 n=e5 v=90
46560 On ch=2 n=a5 v=90
47376 On ch=2 n=c4 v=0
47424 On ch=2 n=c5 v=0
47424 On ch=2 n=e5 v=0
47424 On ch=2 n=a5 v=0
47520 On ch=2 n=g3 v=90
48000 On ch=2 n=a#4 v=90
48000 On ch=2 n=d5 v=90
48000 On ch=2 n=g5 v=90
48816 On ch=2 n=g3 v=0
48864 On ch=2 n=a#4 v=0
48864 On ch=2 n=d5 v=0
48864 On ch=2 n=g5 v=0
48960 On ch=2 n=d3 v=90
49440 On ch=2 n=a4 v=90
49440 On ch=2 n=d5 v=90
49440 On ch=2 n=f5 v=90
50256 On ch=2 n=d3 v=0
50304 On ch=2 n=a4 v=0
50304 On ch=2 n=d5 v=0
50304 On ch=2 n=f5 v=0
50400 On ch=2 n=a3 v=90
50880 On ch=2 n=a4 v=90
50880 On ch=2 n=c5 v=90
50880 On ch=2 n=e5 v=90
51696 On ch=2 n=a3 v=0
51744 On ch=2 n=a4 v=0
51744 On ch=2 n=c5 v=0
51744 On ch=2 n=e5 v=0
51840 On ch=2 n=e3 v=90
52320 On ch=2 n=g4 v=90
52320 On ch=2 n=b4 v=90
52320 On ch=2 n=e5 v=90
53136 On ch=2 n=e3 v=0
53184 On ch=2 n=g4 v=0
53184 On ch=2 n=b4 v=0
53184 On ch=2 n=e5 v=0
53280 On ch=2 n=e3 v=90
53760 On ch=2 n=a4 v=90
53760 On ch=2 n=c5 v=90
53760 On ch=2 n=f5 v=90
54576 On ch=2 n=e3 v=0
54624 On ch=2 n=a4 v=0
54624 On ch=2 n=c5 v=0
54624 On ch=2 n=f5 v=0
54720 On ch=2 n=e3 v=90
55200 On ch=2 n=g4 v=90
55200 On ch=2 n=b4 v=90
55200 On ch=2 n=e5 v=90
56016 On ch=2 n=e3 v=0
56064 On ch=2 n=g4 v=0
56064 On ch=2 n=b4 v=0
56064 On ch=2 n=e5 v=0
56160 On ch=2 n=d3 v=90
56640 On ch=2 n=a4 v=90
56640 On ch=2 n=c5 v=90
56640 On ch=2 n=f5 v=90
57456 On ch=2 n=d3 v=0
57504 On ch=2 n=a4 v=0
57504 On ch=2 n=c5 v=0
57504 On ch=2 n=f5 v=0
57600 On ch=2 n=d3 v=90
58080 On ch=2 n=c5 v=90
58080 On ch=2 n=e5 v=90
58080 On ch=2 n=a5 v=90
58896 On ch=2 n=d3 v=0
58944 On ch=2 n=c5 v=0
58944 On ch=2 n=e5 v=0
58944 On ch=2 n=a5 v=0
59040 On ch=2 n=d3 v=90
59520 On ch=2 n=a4 v=90
59520 On ch=2 n=c5 v=90
59520 On ch=2 n=e5 v=90
60336 On ch=2 n=d3 v=0
60384 On ch=2 n=a4 v=0
60384 On ch=2 n=c5 v=0
60384 On ch=2 n=e5 v=0
60480 On ch=2 n=d3 v=90
60960 On ch=2 n=a4 v=90
60960 On ch=2 n=c5 v=90
60960 On ch=2 n=f5 v=90
61776 On ch=2 n=d3 v=0
61824 On ch=2 n=a4 v=0
61824 On ch=2 n=c5 v=0
61824 On ch=2 n=f5 v=0
61920 On ch=2 n=g2 v=90
62400 On ch=2 n=b4 v=90
62400 On ch=2 n=e5 v=90
62400 On ch=2 n=g5 v=90
63216 On ch=2 n=g2 v=0
63264 On ch=2 n=b4 v=0
63264 On ch=2 n=e5 v=0
63264 On ch=2 n=g5 v=0
63360 On ch=2 n=g2 v=90
63840 On ch=2 n=a4 v=90
63840 On ch=2 n=c5 v=90
63840 On ch=2 n=f5 v=90
64656 On ch=2 n=g2 v=0
64704 On ch=2 n=a4 v=0
64704 On ch=2 n=c5 v=0
64704 On ch=2 n=f5 v=0
64800 On ch=2 n=g2 v=90
65280 On ch=2 n=a4 v=90
65280 On ch=2 n=c5 v=90
65280 On ch=2 n=e5 v=90
66096 On ch=2 n=g2 v=0
66144 On ch=2 n=a4 v=0
66144 On ch=2 n=c5 v=0
66144 On ch=2 n=e5 v=0
66240 On ch=2 n=d3 v=90
66720 On ch=2 n=a4 v=90
66720 On ch=2 n=c5 v=90
66720 On ch=2 n=f5 v=90
67536 On ch=2 n=d3 v=0
67584 On ch=2 n=a4 v=0
67584 On ch=2 n=c5 v=0
67584 On ch=2 n=f5 v=0
67680 On ch=2 n=g2 v=90
68160 On ch=2 n=a4 v=90
68160 On ch=2 n=c5 v=90
68160 On ch=2 n=f5 v=90
68976 On ch=2 n=g2 v=0
69024 On ch=2 n=a4 v=0
69024 On ch=2 n=c5 v=0
69024 On ch=2 n=f5 v=0
69120 On ch=2 n=g2 v=90
69600 On ch=2 n=b4 v=90
69600 On ch=2 n=e5 v=90
69600 On ch=2 n=g5 v=90
70416 On ch=2 n=g2 v=0
70464 On ch=2 n=b4 v=0
70464 On ch=2 n=e5 v=0
70464 On ch=2 n=g5 v=0
70560 On ch=2 n=c3 v=85
71040 On ch=2 n=c5 v=85
71040 On ch=2 n=e5 v=85
71040 On ch=2 n=a5 v=85
71856 On ch=2 n=c3 v=0
71904 On ch=2 n=c5 v=0
71904 On ch=2 n=e5 v=0
71904 On ch=2 n=a5 v=0
72000 On ch=2 n=e3 v=85
72480 On ch=2 n=b4 v=85
72480 On ch=2 n=e5 v=85
72480 On ch=2 n=g5 v=85
73296 On ch=2 n=e3 v=0
73344 On ch=2 n=b4 v=0
73344 On ch=2 n=e5 v=0
73344 On ch=2 n=g5 v=0
73440 On ch=2 n=c3 v=85
73920 On ch=2 n=c5 v=85
73920 On ch=2 n=e5 v=85
73920 On ch=2 n=a5 v=85
74736 On ch=2 n=c3 v=0
74784 On ch=2 n=c5 v=0
74784 On ch=2 n=e5 v=0
74784 On ch=2 n=a5 v=0
74880 On ch=2 n=e3 v=85
75360 On ch=2 n=b4 v=85
75360 On ch=2 n=e5 v=85
75360 On ch=2 n=g5 v=85
76176 On ch=2 n=e3 v=0
76224 On ch=2 n=b4 v=0
76224 On ch=2 n=e5 v=0
76224 On ch=2 n=g5 v=0
76320 On ch=2 n=c3 v=85
76800 On ch=2 n=c5 v=85
76800 On ch=2 n=e5 v=85
76800 On ch=2 n=a5 v=85
77616 On ch=2 n=c3 v=0
77664 On ch=2 n=c5 v=0
77664 On ch=2 n=e5 v=0
77664 On ch=2 n=a5 v=0
77760 On ch=2 n=e3 v=85
78240 On ch=2 n=b4 v=85
78240 On ch=2 n=e5 v=85
78240 On ch=2 n=g5 v=85
79056 On ch=2 n=e3 v=0
79104 On ch=2 n=b4 v=0
79104 On ch=2 n=e5 v=0
79104 On ch=2 n=g5 v=0
79200 On ch=2 n=a3 v=85
79680 On ch=2 n=c5 v=85
79680 On ch=2 n=a4 v=85
79680 On ch=2 n=f5 v=85
80496 On ch=2 n=a3 v=0
80544 On ch=2 n=c5 v=0
80544 On ch=2 n=a4 v=0
80544 On ch=2 n=f5 v=0
80640 On ch=2 n=d3 v=85
81120 On ch=2 n=b4 v=85
81120 On ch=2 n=e5 v=85
81120 On ch=2 n=g5 v=85
81936 On ch=2 n=d3 v=0
81984 On ch=2 n=b4 v=0
81984 On ch=2 n=e5 v=0
81984 On ch=2 n=g5 v=0
82080 On ch=2 n=a3 v=85
82560 On ch=2 n=c5 v=85
82560 On ch=2 n=e5 v=85
82560 On ch=2 n=a5 v=85
83376 On ch=2 n=a3 v=0
83424 On ch=2 n=c5 v=0
83424 On ch=2 n=e5 v=0
83424 On ch=2 n=a5 v=0
83520 On ch=2 n=d3 v=85
84000 On ch=2 n=b4 v=85
84000 On ch=2 n=e5 v=85
84000 On ch=2 n=g5 v=85
84816 On ch=2 n=d3 v=0
84864 On ch=2 n=b4 v=0
84864 On ch=2 n=e5 v=0
84864 On ch=2 n=g5 v=0
84960 On ch=2 n=a3 v=85
84960 On ch=2 n=e3 v=85
84960 On ch=2 n=a2 v=85
86385 On ch=2 n=a3 v=0
86385 On ch=2 n=e3 v=0
86385 On ch=2 n=a2 v=0
86400 On ch=2 n=a2 v=85
86400 On ch=2 n=e3 v=85
86400 On ch=2 n=a3 v=85
87696 On ch=2 n=a2 v=0
87696 On ch=2 n=e3 v=0
87696 On ch=2 n=a3 v=0
87823 Meta TrkEnd
TrkEnd
MTrk
660 Par ch=3 c=121 v=0
680 Meta Text "# Pitch Bend Sensitivity (0-2-24) #"
680 Par ch=3 c=101 v=0
685 Par ch=3 c=100 v=0
690 Par ch=3 c=6 v=2
695 Pb ch=3 v=8192
700 Par ch=3 c=0 v=0
705 Par ch=3 c=32 v=0
710 PrCh ch=3 p=0
715 Par ch=3 c=7 v=100
720 Par ch=3 c=11 v=127
725 Par ch=3 c=10 v=64
730 Par ch=3 c=91 v=30
735 Par ch=3 c=93 v=0
740 Par ch=3 c=1 v=0
867 Meta TrkEnd
TrkEnd
