MFile 1 10 480
MTrk
0 TimeSig 4/4 24 8
0 Tempo 499915
0 Tempo 333277
1920 TimeSig 2/4 24 8
1920 Tempo 499915
1920 Meta TrkEnd
TrkEnd
MTrk
0 SeqSpec 43 00 01 00
140 SysEx f0 41 10 42 12 40 00 7f 00 41 f7
240 SysEx f0 41 10 42 12 40 00 04 64 58 f7
380 SysEx f0 41 10 42 12 40 01 30 03 0c f7
400 SysEx f0 41 10 42 12 40 01 33 50 3c f7
420 SysEx f0 41 10 42 12 40 01 34 46 45 f7
480 SysEx f0 41 10 42 12 40 01 10 00 06 06 00 06 06 00 00 00 00 00 00 00 00 00 00 17 f7
1440 SysEx f0 41 10 45 12 10 00 00 28 63 29 31 39 39 36 2c 20 59 41 53 4b 41 57 41 20 4d 6f 63 6c 69 6e 04 f7
1440 Meta TrkEnd
TrkEnd
MTrk
0 SeqSpec 43 00 01 00
0 Meta TrkName "Piano 1(R.H.)                       "
960 Par ch=1 c=32 v=1
1020 Par ch=1 c=0 v=0
1080 PrCh ch=1 p=0
1140 Par ch=1 c=10 v=76
1200 Par ch=1 c=91 v=80
1260 Par ch=1 c=7 v=120
1320 Par ch=1 c=11 v=120
1920 On ch=1 n=a6 v=95
2640 On ch=1 n=a6 v=0
2640 On ch=1 n=a6 v=88
3080 On ch=1 n=a6 v=0
3120 On ch=1 n=g#6 v=90
3240 On ch=1 n=a6 v=96
3260 On ch=1 n=g#6 v=0
3360 On ch=1 n=a#6 v=101
3380 On ch=1 n=a6 v=0
3480 On ch=1 n=a6 v=105
3500 On ch=1 n=a#6 v=0
3600 On ch=1 n=g#6 v=108
3620 On ch=1 n=a6 v=0
3720 On ch=1 n=a6 v=110
3740 On ch=1 n=g#6 v=0
3820 On ch=1 n=a6 v=0
3840 On ch=1 n=f7 v=115
3840 On ch=1 n=d7 v=90
3840 On ch=1 n=a6 v=65
4540 On ch=1 n=a6 v=0
4540 On ch=1 n=d7 v=0
4540 On ch=1 n=f7 v=0
4560 On ch=1 n=d7 v=95
4760 On ch=1 n=d7 v=0
4800 On ch=1 n=a6 v=100
5200 On ch=1 n=a6 v=0
5280 On ch=1 n=f6 v=92
5680 On ch=1 n=f6 v=0
5760 On ch=1 n=g6 v=85
5760 On ch=1 n=d6 v=70
6480 On ch=1 n=d6 v=0
6480 On ch=1 n=g6 v=0
6480 On ch=1 n=g6 v=78
6920 On ch=1 n=g6 v=0
6960 On ch=1 n=f#6 v=80
7080 On ch=1 n=g6 v=86
7100 On ch=1 n=f#6 v=0
7200 On ch=1 n=a6 v=91
7220 On ch=1 n=g6 v=0
7320 On ch=1 n=g6 v=95
7340 On ch=1 n=a6 v=0
7440 On ch=1 n=f#6 v=98
7460 On ch=1 n=g6 v=0
7560 On ch=1 n=g6 v=100
7580 On ch=1 n=f#6 v=0
7660 On ch=1 n=g6 v=0
7680 On ch=1 n=a#6 v=105
7680 On ch=1 n=g6 v=55
8380 On ch=1 n=g6 v=0
8380 On ch=1 n=a#6 v=0
8400 On ch=1 n=g6 v=85
8600 On ch=1 n=g6 v=0
8640 On ch=1 n=e6 v=90
9040 On ch=1 n=e6 v=0
9120 On ch=1 n=c#6 v=82
9520 On ch=1 n=c#6 v=0
9600 On ch=1 n=d6 v=65
10200 On ch=1 n=c#6 v=63
10220 On ch=1 n=d6 v=0
10320 On ch=1 n=d6 v=58
10340 On ch=1 n=c#6 v=0
10440 On ch=1 n=e6 v=53
10460 On ch=1 n=d6 v=0
10560 On ch=1 n=d6 v=55
10580 On ch=1 n=e6 v=0
11040 On ch=1 n=a#5 v=60
11060 On ch=1 n=d6 v=0
11520 On ch=1 n=a5 v=50
11540 On ch=1 n=a#5 v=0
12180 On ch=1 n=a5 v=0
12240 On ch=1 n=a5 v=58
12680 On ch=1 n=a5 v=0
12720 On ch=1 n=g#5 v=55
12840 On ch=1 n=a5 v=62
12860 On ch=1 n=g#5 v=0
12960 On ch=1 n=a#5 v=65
12980 On ch=1 n=a5 v=0
13080 On ch=1 n=a5 v=58
13100 On ch=1 n=a#5 v=0
13200 On ch=1 n=g#5 v=60
13220 On ch=1 n=a5 v=0
13320 On ch=1 n=a5 v=50
13340 On ch=1 n=g#5 v=0
13440 On ch=1 n=f5 v=55
13460 On ch=1 n=a5 v=0
14040 On ch=1 n=e5 v=53
14060 On ch=1 n=f5 v=0
14160 On ch=1 n=f5 v=48
14180 On ch=1 n=e5 v=0
14280 On ch=1 n=g5 v=43
14300 On ch=1 n=f5 v=0
14400 On ch=1 n=f5 v=45
14420 On ch=1 n=g5 v=0
14880 On ch=1 n=e5 v=50
14900 On ch=1 n=f5 v=0
15360 On ch=1 n=d5 v=40
15380 On ch=1 n=e5 v=0
16020 On ch=1 n=d5 v=0
16080 On ch=1 n=d5 v=48
16520 On ch=1 n=d5 v=0
16560 On ch=1 n=c#5 v=50
16680 On ch=1 n=d5 v=57
16700 On ch=1 n=c#5 v=0
16800 On ch=1 n=e5 v=60
16820 On ch=1 n=d5 v=0
16920 On ch=1 n=d5 v=64
16940 On ch=1 n=e5 v=0
17040 On ch=1 n=c#5 v=66
17060 On ch=1 n=d5 v=0
17160 On ch=1 n=d5 v=62
17180 On ch=1 n=c#5 v=0
17260 On ch=1 n=d5 v=0
17280 On ch=1 n=a6 v=95
18000 On ch=1 n=a6 v=0
18000 On ch=1 n=a6 v=88
18440 On ch=1 n=a6 v=0
18480 On ch=1 n=g#6 v=90
18600 On ch=1 n=a6 v=96
18620 On ch=1 n=g#6 v=0
18720 On ch=1 n=a#6 v=101
18740 On ch=1 n=a6 v=0
18840 On ch=1 n=a6 v=105
18860 On ch=1 n=a#6 v=0
18960 On ch=1 n=g#6 v=108
18980 On ch=1 n=a6 v=0
19080 On ch=1 n=a6 v=110
19100 On ch=1 n=g#6 v=0
19180 On ch=1 n=a6 v=0
19200 On ch=1 n=f7 v=115
19200 On ch=1 n=d7 v=90
19200 On ch=1 n=a6 v=65
19900 On ch=1 n=a6 v=0
19900 On ch=1 n=d7 v=0
19900 On ch=1 n=f7 v=0
19920 On ch=1 n=d7 v=95
20120 On ch=1 n=d7 v=0
20160 On ch=1 n=a6 v=100
20560 On ch=1 n=a6 v=0
20640 On ch=1 n=f6 v=92
21040 On ch=1 n=f6 v=0
21120 On ch=1 n=g6 v=85
21120 On ch=1 n=d6 v=70
21840 On ch=1 n=d6 v=0
21840 On ch=1 n=g6 v=0
21840 On ch=1 n=g6 v=78
22280 On ch=1 n=g6 v=0
22320 On ch=1 n=f#6 v=80
22440 On ch=1 n=g6 v=86
22460 On ch=1 n=f#6 v=0
22560 On ch=1 n=a6 v=91
22580 On ch=1 n=g6 v=0
22680 On ch=1 n=g6 v=95
22700 On ch=1 n=a6 v=0
22800 On ch=1 n=f#6 v=98
22820 On ch=1 n=g6 v=0
22920 On ch=1 n=g6 v=100
22940 On ch=1 n=f#6 v=0
23020 On ch=1 n=g6 v=0
23040 On ch=1 n=a#6 v=105
23040 On ch=1 n=g6 v=55
23740 On ch=1 n=g6 v=0
23740 On ch=1 n=a#6 v=0
23760 On ch=1 n=g6 v=85
23960 On ch=1 n=g6 v=0
24000 On ch=1 n=e6 v=90
24400 On ch=1 n=e6 v=0
24480 On ch=1 n=c#6 v=82
24880 On ch=1 n=c#6 v=0
24960 On ch=1 n=d6 v=65
25560 On ch=1 n=c#6 v=63
25580 On ch=1 n=d6 v=0
25680 On ch=1 n=d6 v=58
25700 On ch=1 n=c#6 v=0
25800 On ch=1 n=e6 v=53
25820 On ch=1 n=d6 v=0
25920 On ch=1 n=d6 v=55
25940 On ch=1 n=e6 v=0
26400 On ch=1 n=a#5 v=60
26420 On ch=1 n=d6 v=0
26880 On ch=1 n=a5 v=50
26900 On ch=1 n=a#5 v=0
27540 On ch=1 n=a5 v=0
27600 On ch=1 n=a5 v=58
28040 On ch=1 n=a5 v=0
28080 On ch=1 n=g#5 v=55
28200 On ch=1 n=a5 v=62
28220 On ch=1 n=g#5 v=0
28320 On ch=1 n=a#5 v=65
28340 On ch=1 n=a5 v=0
28440 On ch=1 n=a5 v=58
28460 On ch=1 n=a#5 v=0
28560 On ch=1 n=g#5 v=60
28580 On ch=1 n=a5 v=0
28680 On ch=1 n=a5 v=50
28700 On ch=1 n=g#5 v=0
28800 On ch=1 n=f5 v=55
28820 On ch=1 n=a5 v=0
29400 On ch=1 n=e5 v=53
29420 On ch=1 n=f5 v=0
29520 On ch=1 n=f5 v=48
29540 On ch=1 n=e5 v=0
29640 On ch=1 n=g5 v=43
29660 On ch=1 n=f5 v=0
29760 On ch=1 n=f5 v=45
29780 On ch=1 n=g5 v=0
30240 On ch=1 n=e5 v=50
30260 On ch=1 n=f5 v=0
30720 On ch=1 n=d5 v=40
30740 On ch=1 n=e5 v=0
31380 On ch=1 n=d5 v=0
31440 On ch=1 n=d5 v=48
31880 On ch=1 n=d5 v=0
31920 On ch=1 n=c#5 v=50
32040 On ch=1 n=d5 v=57
32060 On ch=1 n=c#5 v=0
32160 On ch=1 n=e5 v=60
32180 On ch=1 n=d5 v=0
32280 On ch=1 n=d5 v=64
32300 On ch=1 n=e5 v=0
32400 On ch=1 n=c#5 v=66
32420 On ch=1 n=d5 v=0
32520 On ch=1 n=d5 v=62
32540 On ch=1 n=c#5 v=0
32620 On ch=1 n=d5 v=0
32640 On ch=1 n=d7 v=105
32640 On ch=1 n=b6 v=65
32640 On ch=1 n=f6 v=90
33360 On ch=1 n=f6 v=0
33360 On ch=1 n=b6 v=0
33360 On ch=1 n=d7 v=0
33360 On ch=1 n=d7 v=93
33360 On ch=1 n=b6 v=60
33360 On ch=1 n=f6 v=85
33560 On ch=1 n=f6 v=0
33560 On ch=1 n=b6 v=0
33560 On ch=1 n=d7 v=0
33840 On ch=1 n=d7 v=95
33840 On ch=1 n=a6 v=65
33840 On ch=1 n=f6 v=90
34320 On ch=1 n=f6 v=0
34320 On ch=1 n=a6 v=0
34320 On ch=1 n=d7 v=0
34320 On ch=1 n=e7 v=88
34320 On ch=1 n=g#6 v=70
34520 On ch=1 n=g#6 v=0
34520 On ch=1 n=e7 v=0
34560 On ch=1 n=c7 v=90
34560 On ch=1 n=a6 v=72
34560 On ch=1 n=e6 v=50
35280 On ch=1 n=e6 v=0
35280 On ch=1 n=a6 v=0
35280 On ch=1 n=c7 v=0
35280 On ch=1 n=b6 v=92
35480 On ch=1 n=b6 v=0
35520 On ch=1 n=a6 v=80
36000 On ch=1 n=a6 v=0
36000 On ch=1 n=e6 v=70
36400 On ch=1 n=e6 v=0
36480 On ch=1 n=d7 v=110
36480 On ch=1 n=b6 v=70
36480 On ch=1 n=f6 v=95
37200 On ch=1 n=f6 v=0
37200 On ch=1 n=b6 v=0
37200 On ch=1 n=d7 v=0
37200 On ch=1 n=d7 v=98
37200 On ch=1 n=b6 v=65
37200 On ch=1 n=f6 v=90
37400 On ch=1 n=f6 v=0
37400 On ch=1 n=b6 v=0
37400 On ch=1 n=d7 v=0
37680 On ch=1 n=d7 v=100
37680 On ch=1 n=a6 v=70
37680 On ch=1 n=f6 v=95
38160 On ch=1 n=f6 v=0
38160 On ch=1 n=a6 v=0
38160 On ch=1 n=d7 v=0
38160 On ch=1 n=e7 v=93
38160 On ch=1 n=g#6 v=75
38360 On ch=1 n=g#6 v=0
38360 On ch=1 n=e7 v=0
38640 On ch=1 n=c7 v=85
38640 On ch=1 n=a6 v=50
39120 On ch=1 n=a6 v=0
39120 On ch=1 n=c7 v=0
39120 On ch=1 n=b6 v=77
39480 On ch=1 n=b6 v=0
39600 On ch=1 n=a6 v=65
40080 On ch=1 n=e6 v=50
40100 On ch=1 n=a6 v=0
40240 On ch=1 n=e6 v=0
40320 On ch=1 n=a6 v=60
40320 On ch=1 n=d#6 v=42
40320 On ch=1 n=c6 v=30
41040 On ch=1 n=c6 v=0
41040 On ch=1 n=d#6 v=0
41040 On ch=1 n=a6 v=0
41040 On ch=1 n=a6 v=65
41040 On ch=1 n=d#6 v=50
41040 On ch=1 n=c6 v=38
41240 On ch=1 n=c6 v=0
41240 On ch=1 n=d#6 v=0
41240 On ch=1 n=a6 v=0
41280 On ch=1 n=g#6 v=62
41280 On ch=1 n=d6 v=35
41760 On ch=1 n=d6 v=0
41760 On ch=1 n=g#6 v=0
41760 On ch=1 n=f6 v=55
42160 On ch=1 n=f6 v=0
42480 On ch=1 n=e6 v=58
42960 On ch=1 n=e6 v=0
42960 On ch=1 n=e6 v=64
43160 On ch=1 n=e6 v=0
43200 On ch=1 n=a6 v=68
43680 On ch=1 n=e6 v=50
43700 On ch=1 n=a6 v=0
43840 On ch=1 n=e6 v=0
44160 On ch=1 n=a6 v=60
44160 On ch=1 n=d#6 v=42
44880 On ch=1 n=d#6 v=0
44880 On ch=1 n=a6 v=0
44880 On ch=1 n=a6 v=65
44880 On ch=1 n=d#6 v=50
45080 On ch=1 n=d#6 v=0
45080 On ch=1 n=a6 v=0
45360 On ch=1 n=g#6 v=62
45360 On ch=1 n=d6 v=35
45840 On ch=1 n=d6 v=0
45840 On ch=1 n=g#6 v=0
45840 On ch=1 n=f6 v=55
46040 On ch=1 n=f6 v=0
46080 On ch=1 n=e6 v=58
46080 On ch=1 n=c#6 v=40
46800 On ch=1 n=a6 v=50
46820 On ch=1 n=c#6 v=0
46820 On ch=1 n=e6 v=0
47000 On ch=1 n=a6 v=0
47040 On ch=1 n=e6 v=45
47040 On ch=1 n=c#6 v=28
47920 On ch=1 n=c#6 v=0
47920 On ch=1 n=e6 v=0
48000 On ch=1 n=d7 v=105
48000 On ch=1 n=b6 v=65
48000 On ch=1 n=f6 v=90
48720 On ch=1 n=f6 v=0
48720 On ch=1 n=b6 v=0
48720 On ch=1 n=d7 v=0
48720 On ch=1 n=d7 v=93
48720 On ch=1 n=b6 v=60
48720 On ch=1 n=f6 v=85
48920 On ch=1 n=f6 v=0
48920 On ch=1 n=b6 v=0
48920 On ch=1 n=d7 v=0
49200 On ch=1 n=d7 v=95
49200 On ch=1 n=a6 v=65
49200 On ch=1 n=f6 v=90
49680 On ch=1 n=f6 v=0
49680 On ch=1 n=a6 v=0
49680 On ch=1 n=d7 v=0
49680 On ch=1 n=e7 v=88
49680 On ch=1 n=g#6 v=70
49880 On ch=1 n=g#6 v=0
49880 On ch=1 n=e7 v=0
49920 On ch=1 n=c7 v=90
49920 On ch=1 n=a6 v=72
49920 On ch=1 n=e6 v=50
50640 On ch=1 n=e6 v=0
50640 On ch=1 n=a6 v=0
50640 On ch=1 n=c7 v=0
50640 On ch=1 n=b6 v=92
50840 On ch=1 n=b6 v=0
50880 On ch=1 n=a6 v=80
51360 On ch=1 n=a6 v=0
51360 On ch=1 n=e6 v=70
51760 On ch=1 n=e6 v=0
51840 On ch=1 n=d7 v=110
51840 On ch=1 n=b6 v=70
51840 On ch=1 n=f6 v=95
52560 On ch=1 n=f6 v=0
52560 On ch=1 n=b6 v=0
52560 On ch=1 n=d7 v=0
52560 On ch=1 n=d7 v=98
52560 On ch=1 n=b6 v=65
52560 On ch=1 n=f6 v=90
52760 On ch=1 n=f6 v=0
52760 On ch=1 n=b6 v=0
52760 On ch=1 n=d7 v=0
53040 On ch=1 n=d7 v=100
53040 On ch=1 n=a6 v=70
53040 On ch=1 n=f6 v=95
53520 On ch=1 n=f6 v=0
53520 On ch=1 n=a6 v=0
53520 On ch=1 n=d7 v=0
53520 On ch=1 n=e7 v=93
53520 On ch=1 n=g#6 v=75
53720 On ch=1 n=g#6 v=0
53720 On ch=1 n=e7 v=0
54000 On ch=1 n=c7 v=85
54000 On ch=1 n=a6 v=50
54480 On ch=1 n=a6 v=0
54480 On ch=1 n=c7 v=0
54480 On ch=1 n=b6 v=77
54840 On ch=1 n=b6 v=0
54960 On ch=1 n=a6 v=65
55440 On ch=1 n=e6 v=50
55460 On ch=1 n=a6 v=0
55600 On ch=1 n=e6 v=0
55680 On ch=1 n=a6 v=60
55680 On ch=1 n=d#6 v=42
55680 On ch=1 n=c6 v=30
56400 On ch=1 n=c6 v=0
56400 On ch=1 n=d#6 v=0
56400 On ch=1 n=a6 v=0
56400 On ch=1 n=a6 v=65
56400 On ch=1 n=d#6 v=50
56400 On ch=1 n=c6 v=38
56600 On ch=1 n=c6 v=0
56600 On ch=1 n=d#6 v=0
56600 On ch=1 n=a6 v=0
56640 On ch=1 n=g#6 v=62
56640 On ch=1 n=d6 v=35
57120 On ch=1 n=d6 v=0
57120 On ch=1 n=g#6 v=0
57120 On ch=1 n=f6 v=55
57520 On ch=1 n=f6 v=0
57840 On ch=1 n=e6 v=58
58320 On ch=1 n=e6 v=0
58320 On ch=1 n=e6 v=64
58520 On ch=1 n=e6 v=0
58560 On ch=1 n=a6 v=68
59040 On ch=1 n=e6 v=50
59060 On ch=1 n=a6 v=0
59200 On ch=1 n=e6 v=0
59520 On ch=1 n=a6 v=60
59520 On ch=1 n=d#6 v=42
60240 On ch=1 n=d#6 v=0
60240 On ch=1 n=a6 v=0
60240 On ch=1 n=a6 v=65
60240 On ch=1 n=d#6 v=50
60440 On ch=1 n=d#6 v=0
60440 On ch=1 n=a6 v=0
60720 On ch=1 n=g#6 v=62
60720 On ch=1 n=d6 v=35
61200 On ch=1 n=d6 v=0
61200 On ch=1 n=g#6 v=0
61200 On ch=1 n=f6 v=55
61400 On ch=1 n=f6 v=0
61440 On ch=1 n=e6 v=58
61440 On ch=1 n=c#6 v=40
62160 On ch=1 n=a6 v=50
62180 On ch=1 n=c#6 v=0
62180 On ch=1 n=e6 v=0
62360 On ch=1 n=a6 v=0
62400 On ch=1 n=e6 v=45
62400 On ch=1 n=c#6 v=28
63280 On ch=1 n=c#6 v=0
63280 On ch=1 n=e6 v=0
63360 On ch=1 n=a6 v=95
64080 On ch=1 n=a6 v=0
64080 On ch=1 n=a6 v=88
64520 On ch=1 n=a6 v=0
64560 On ch=1 n=g#6 v=90
64680 On ch=1 n=a6 v=96
64700 On ch=1 n=g#6 v=0
64800 On ch=1 n=a#6 v=101
64820 On ch=1 n=a6 v=0
64920 On ch=1 n=a6 v=105
64940 On ch=1 n=a#6 v=0
65040 On ch=1 n=g#6 v=108
65060 On ch=1 n=a6 v=0
65160 On ch=1 n=a6 v=110
65180 On ch=1 n=g#6 v=0
65260 On ch=1 n=a6 v=0
65280 On ch=1 n=f7 v=115
65280 On ch=1 n=d7 v=90
65280 On ch=1 n=a6 v=65
65980 On ch=1 n=a6 v=0
65980 On ch=1 n=d7 v=0
65980 On ch=1 n=f7 v=0
66000 On ch=1 n=d7 v=95
66200 On ch=1 n=d7 v=0
66240 On ch=1 n=a6 v=100
66640 On ch=1 n=a6 v=0
66720 On ch=1 n=f6 v=106
67120 On ch=1 n=f6 v=0
67200 On ch=1 n=g7 v=110
67200 On ch=1 n=d7 v=75
67200 On ch=1 n=a#6 v=95
67200 On ch=1 n=g6 v=103
67920 On ch=1 n=g6 v=0
67920 On ch=1 n=a#6 v=0
67920 On ch=1 n=d7 v=0
67920 On ch=1 n=g7 v=0
67920 On ch=1 n=g7 v=98
67920 On ch=1 n=g6 v=90
68360 On ch=1 n=g6 v=0
68360 On ch=1 n=g7 v=0
68400 On ch=1 n=f#6 v=90
68520 On ch=1 n=g6 v=96
68540 On ch=1 n=f#6 v=0
68640 On ch=1 n=a6 v=101
68660 On ch=1 n=g6 v=0
68760 On ch=1 n=g6 v=105
68780 On ch=1 n=a6 v=0
68880 On ch=1 n=f#6 v=108
68900 On ch=1 n=g6 v=0
69000 On ch=1 n=g6 v=110
69020 On ch=1 n=f#6 v=0
69100 On ch=1 n=g6 v=0
69120 On ch=1 n=a#6 v=115
69120 On ch=1 n=g6 v=65
69820 On ch=1 n=g6 v=0
69820 On ch=1 n=a#6 v=0
69840 On ch=1 n=g6 v=95
70040 On ch=1 n=g6 v=0
70080 On ch=1 n=e6 v=90
70480 On ch=1 n=e6 v=0
70560 On ch=1 n=c#6 v=82
70960 On ch=1 n=c#6 v=0
71040 On ch=1 n=d6 v=65
71640 On ch=1 n=c#6 v=63
71660 On ch=1 n=d6 v=0
71760 On ch=1 n=d6 v=58
71780 On ch=1 n=c#6 v=0
71880 On ch=1 n=e6 v=53
71900 On ch=1 n=d6 v=0
72000 On ch=1 n=d6 v=55
72020 On ch=1 n=e6 v=0
72480 On ch=1 n=a#5 v=60
72500 On ch=1 n=d6 v=0
72960 On ch=1 n=a5 v=50
72980 On ch=1 n=a#5 v=0
73620 On ch=1 n=a5 v=0
73680 On ch=1 n=a5 v=58
74120 On ch=1 n=a5 v=0
74160 On ch=1 n=g#5 v=55
74280 On ch=1 n=a5 v=62
74300 On ch=1 n=g#5 v=0
74400 On ch=1 n=a#5 v=65
74420 On ch=1 n=a5 v=0
74520 On ch=1 n=a5 v=58
74540 On ch=1 n=a#5 v=0
74640 On ch=1 n=g#5 v=60
74660 On ch=1 n=a5 v=0
74760 On ch=1 n=a5 v=50
74780 On ch=1 n=g#5 v=0
74880 On ch=1 n=f5 v=55
74900 On ch=1 n=a5 v=0
75480 On ch=1 n=e5 v=53
75500 On ch=1 n=f5 v=0
75600 On ch=1 n=f5 v=48
75620 On ch=1 n=e5 v=0
75720 On ch=1 n=g5 v=43
75740 On ch=1 n=f5 v=0
75840 On ch=1 n=f5 v=45
75860 On ch=1 n=g5 v=0
76320 On ch=1 n=e5 v=50
76340 On ch=1 n=f5 v=0
76800 On ch=1 n=d5 v=40
76820 On ch=1 n=e5 v=0
77460 On ch=1 n=d5 v=0
77520 On ch=1 n=d5 v=48
77960 On ch=1 n=d5 v=0
78000 On ch=1 n=c#5 v=50
78120 On ch=1 n=d5 v=57
78140 On ch=1 n=c#5 v=0
78240 On ch=1 n=e5 v=60
78260 On ch=1 n=d5 v=0
78360 On ch=1 n=d5 v=64
78380 On ch=1 n=e5 v=0
78480 On ch=1 n=c#5 v=66
78500 On ch=1 n=d5 v=0
78600 On ch=1 n=d5 v=62
78620 On ch=1 n=c#5 v=0
78700 On ch=1 n=d5 v=0
78720 On ch=1 n=f#5 v=60
78960 On ch=1 n=a5 v=45
78980 On ch=1 n=f#5 v=0
79100 On ch=1 n=a5 v=0
79200 On ch=1 n=a5 v=48
79360 On ch=1 n=a5 v=0
79440 On ch=1 n=a5 v=40
79560 On ch=1 n=a5 v=0
79680 On ch=1 n=a5 v=43
79820 On ch=1 n=a5 v=0
79920 On ch=1 n=a5 v=46
80040 On ch=1 n=a5 v=0
80160 On ch=1 n=a5 v=52
80310 On ch=1 n=a5 v=0
80400 On ch=1 n=a5 v=48
80580 On ch=1 n=a5 v=0
80640 On ch=1 n=g5 v=60
80880 On ch=1 n=b5 v=55
80900 On ch=1 n=g5 v=0
81020 On ch=1 n=b5 v=0
81120 On ch=1 n=b5 v=62
81280 On ch=1 n=b5 v=0
81360 On ch=1 n=b5 v=60
81480 On ch=1 n=b5 v=0
81600 On ch=1 n=b5 v=68
81740 On ch=1 n=b5 v=0
81840 On ch=1 n=b5 v=65
81960 On ch=1 n=b5 v=0
82080 On ch=1 n=b5 v=70
82230 On ch=1 n=b5 v=0
82320 On ch=1 n=b5 v=74
82500 On ch=1 n=b5 v=0
82560 On ch=1 n=a5 v=80
82800 On ch=1 n=a5 v=0
82800 On ch=1 n=c#6 v=65
82940 On ch=1 n=c#6 v=0
83040 On ch=1 n=c#6 v=73
83200 On ch=1 n=c#6 v=0
83280 On ch=1 n=c#6 v=80
83400 On ch=1 n=c#6 v=0
83520 On ch=1 n=c#6 v=83
83660 On ch=1 n=c#6 v=0
83760 On ch=1 n=c#6 v=88
83880 On ch=1 n=c#6 v=0
84000 On ch=1 n=c#6 v=94
84150 On ch=1 n=c#6 v=0
84240 On ch=1 n=c#6 v=97
84420 On ch=1 n=c#6 v=0
84480 On ch=1 n=f#6 v=100
84480 On ch=1 n=d6 v=72
84960 On ch=1 n=d6 v=0
84960 On ch=1 n=f#6 v=0
84960 On ch=1 n=e6 v=90
85120 On ch=1 n=e6 v=0
85200 On ch=1 n=d6 v=80
85340 On ch=1 n=d6 v=0
85440 On ch=1 n=c#6 v=85
85620 On ch=1 n=c#6 v=0
85680 On ch=1 n=b5 v=80
85800 On ch=1 n=b5 v=0
85920 On ch=1 n=a5 v=82
86320 On ch=1 n=a5 v=0
86400 On ch=1 n=b5 v=90
86880 On ch=1 n=b5 v=0
86880 On ch=1 n=a5 v=83
87040 On ch=1 n=a5 v=0
87120 On ch=1 n=g5 v=77
87260 On ch=1 n=g5 v=0
87360 On ch=1 n=f#5 v=70
87560 On ch=1 n=f#5 v=0
87600 On ch=1 n=e5 v=63
87720 On ch=1 n=e5 v=0
87840 On ch=1 n=d5 v=65
88240 On ch=1 n=d5 v=0
92160 On ch=1 n=f#6 v=70
92400 On ch=1 n=g#6 v=50
92420 On ch=1 n=f#6 v=0
92520 On ch=1 n=a6 v=48
92540 On ch=1 n=g#6 v=0
92640 On ch=1 n=b6 v=43
92660 On ch=1 n=a6 v=0
92760 On ch=1 n=a6 v=46
92780 On ch=1 n=b6 v=0
92880 On ch=1 n=g#6 v=48
92900 On ch=1 n=a6 v=0
93000 On ch=1 n=a6 v=50
93020 On ch=1 n=g#6 v=0
93120 On ch=1 n=b6 v=52
93140 On ch=1 n=a6 v=0
93240 On ch=1 n=a6 v=54
93260 On ch=1 n=b6 v=0
93360 On ch=1 n=g#6 v=56
93380 On ch=1 n=a6 v=0
93480 On ch=1 n=a6 v=53
93500 On ch=1 n=g#6 v=0
93600 On ch=1 n=b6 v=48
93620 On ch=1 n=a6 v=0
93720 On ch=1 n=a6 v=51
93740 On ch=1 n=b6 v=0
93840 On ch=1 n=g#6 v=54
93860 On ch=1 n=a6 v=0
93960 On ch=1 n=a6 v=47
93980 On ch=1 n=g#6 v=0
94060 On ch=1 n=a6 v=0
94080 On ch=1 n=g6 v=70
94320 On ch=1 n=a#6 v=50
94340 On ch=1 n=g6 v=0
94440 On ch=1 n=b6 v=48
94460 On ch=1 n=a#6 v=0
94560 On ch=1 n=c#7 v=46
94580 On ch=1 n=b6 v=0
94680 On ch=1 n=b6 v=49
94700 On ch=1 n=c#7 v=0
94800 On ch=1 n=a#6 v=51
94820 On ch=1 n=b6 v=0
94920 On ch=1 n=b6 v=54
94940 On ch=1 n=a#6 v=0
95040 On ch=1 n=c#7 v=57
95060 On ch=1 n=b6 v=0
95160 On ch=1 n=b6 v=55
95180 On ch=1 n=c#7 v=0
95280 On ch=1 n=a#6 v=58
95300 On ch=1 n=b6 v=0
95400 On ch=1 n=b6 v=61
95420 On ch=1 n=a#6 v=0
95520 On ch=1 n=c#7 v=64
95540 On ch=1 n=b6 v=0
95640 On ch=1 n=b6 v=67
95660 On ch=1 n=c#7 v=0
95760 On ch=1 n=a#6 v=70
95780 On ch=1 n=b6 v=0
95880 On ch=1 n=b6 v=73
95900 On ch=1 n=a#6 v=0
95980 On ch=1 n=b6 v=0
96000 On ch=1 n=a6 v=85
96240 On ch=1 n=c7 v=65
96260 On ch=1 n=a6 v=0
96360 On ch=1 n=c#7 v=68
96380 On ch=1 n=c7 v=0
96480 On ch=1 n=d7 v=71
96500 On ch=1 n=c#7 v=0
96600 On ch=1 n=c#7 v=74
96620 On ch=1 n=d7 v=0
96720 On ch=1 n=c7 v=76
96740 On ch=1 n=c#7 v=0
96840 On ch=1 n=c#7 v=79
96860 On ch=1 n=c7 v=0
96960 On ch=1 n=d7 v=82
96980 On ch=1 n=c#7 v=0
97080 On ch=1 n=c#7 v=76
97100 On ch=1 n=d7 v=0
97200 On ch=1 n=c7 v=79
97220 On ch=1 n=c#7 v=0
97320 On ch=1 n=c#7 v=82
97340 On ch=1 n=c7 v=0
97440 On ch=1 n=d7 v=85
97460 On ch=1 n=c#7 v=0
97560 On ch=1 n=c#7 v=88
97580 On ch=1 n=d7 v=0
97680 On ch=1 n=c7 v=91
97700 On ch=1 n=c#7 v=0
97800 On ch=1 n=c#7 v=94
97820 On ch=1 n=c7 v=0
97900 On ch=1 n=c#7 v=0
97920 On ch=1 n=f#7 v=110
97920 On ch=1 n=a6 v=82
98400 On ch=1 n=a6 v=0
98400 On ch=1 n=f#7 v=0
98400 On ch=1 n=e7 v=100
98400 On ch=1 n=a6 v=75
98560 On ch=1 n=a6 v=0
98560 On ch=1 n=e7 v=0
98640 On ch=1 n=d7 v=90
98640 On ch=1 n=g#6 v=78
98780 On ch=1 n=g#6 v=0
98780 On ch=1 n=d7 v=0
98880 On ch=1 n=c#7 v=95
98880 On ch=1 n=a6 v=80
99060 On ch=1 n=a6 v=0
99060 On ch=1 n=c#7 v=0
99120 On ch=1 n=b6 v=85
99240 On ch=1 n=b6 v=0
99360 On ch=1 n=a6 v=87
99760 On ch=1 n=a6 v=0
99840 On ch=1 n=b6 v=95
99840 On ch=1 n=d6 v=80
100320 On ch=1 n=d6 v=0
100320 On ch=1 n=b6 v=0
100320 On ch=1 n=a6 v=88
100320 On ch=1 n=d6 v=70
100480 On ch=1 n=d6 v=0
100480 On ch=1 n=a6 v=0
100560 On ch=1 n=g6 v=82
100560 On ch=1 n=c#6 v=58
100700 On ch=1 n=c#6 v=0
100700 On ch=1 n=g6 v=0
100800 On ch=1 n=f#6 v=75
100800 On ch=1 n=d6 v=60
101000 On ch=1 n=d6 v=0
101000 On ch=1 n=f#6 v=0
101040 On ch=1 n=e6 v=68
101160 On ch=1 n=e6 v=0
101280 On ch=1 n=d6 v=70
101680 On ch=1 n=d6 v=0
101760 On ch=1 n=c#6 v=55
102000 On ch=1 n=d#6 v=50
102020 On ch=1 n=c#6 v=0
102120 On ch=1 n=e6 v=48
102140 On ch=1 n=d#6 v=0
102240 On ch=1 n=f#6 v=43
102260 On ch=1 n=e6 v=0
102360 On ch=1 n=e6 v=46
102380 On ch=1 n=f#6 v=0
102480 On ch=1 n=d#6 v=48
102500 On ch=1 n=e6 v=0
102600 On ch=1 n=e6 v=50
102620 On ch=1 n=d#6 v=0
102720 On ch=1 n=d6 v=55
102740 On ch=1 n=e6 v=0
102960 On ch=1 n=f6 v=50
102980 On ch=1 n=d6 v=0
103080 On ch=1 n=f#6 v=48
103100 On ch=1 n=f6 v=0
103200 On ch=1 n=g6 v=43
103220 On ch=1 n=f#6 v=0
103320 On ch=1 n=f#6 v=46
103340 On ch=1 n=g6 v=0
103440 On ch=1 n=f6 v=48
103460 On ch=1 n=f#6 v=0
103560 On ch=1 n=f#6 v=43
103580 On ch=1 n=f6 v=0
103680 On ch=1 n=g6 v=45
103700 On ch=1 n=f#6 v=0
103880 On ch=1 n=g6 v=0
103920 On ch=1 n=e6 v=40
104040 On ch=1 n=a5 v=32
104060 On ch=1 n=e6 v=0
104160 On ch=1 n=c#6 v=35
104180 On ch=1 n=a5 v=0
104280 On ch=1 n=a5 v=30
104300 On ch=1 n=c#6 v=0
104400 On ch=1 n=e6 v=38
104420 On ch=1 n=a5 v=0
104520 On ch=1 n=a5 v=28
104540 On ch=1 n=e6 v=0
104640 On ch=1 n=d6 v=42
104660 On ch=1 n=a5 v=0
104880 On ch=1 n=f#6 v=32
104900 On ch=1 n=d6 v=0
105120 On ch=1 n=d6 v=35
105140 On ch=1 n=f#6 v=0
105520 On ch=1 n=d6 v=0
105600 On ch=1 n=f#8 v=110
105600 On ch=1 n=f#7 v=82
106080 On ch=1 n=f#7 v=0
106080 On ch=1 n=f#8 v=0
106080 On ch=1 n=e8 v=100
106080 On ch=1 n=e7 v=75
106240 On ch=1 n=e7 v=0
106240 On ch=1 n=e8 v=0
106320 On ch=1 n=d8 v=90
106320 On ch=1 n=d7 v=78
106460 On ch=1 n=d7 v=0
106460 On ch=1 n=d8 v=0
106560 On ch=1 n=c#8 v=95
106560 On ch=1 n=c#7 v=80
106740 On ch=1 n=c#7 v=0
106740 On ch=1 n=c#8 v=0
106800 On ch=1 n=b7 v=85
106800 On ch=1 n=b6 v=72
106920 On ch=1 n=b6 v=0
106920 On ch=1 n=b7 v=0
107040 On ch=1 n=a7 v=87
107040 On ch=1 n=a6 v=75
107440 On ch=1 n=a6 v=0
107440 On ch=1 n=a7 v=0
107520 On ch=1 n=b7 v=95
107520 On ch=1 n=b6 v=80
108000 On ch=1 n=b6 v=0
108000 On ch=1 n=b7 v=0
108000 On ch=1 n=a7 v=88
108000 On ch=1 n=a6 v=70
108160 On ch=1 n=a6 v=0
108160 On ch=1 n=a7 v=0
108240 On ch=1 n=g7 v=82
108240 On ch=1 n=g6 v=58
108380 On ch=1 n=g6 v=0
108380 On ch=1 n=g7 v=0
108480 On ch=1 n=f#7 v=75
108480 On ch=1 n=f#6 v=60
108680 On ch=1 n=f#6 v=0
108680 On ch=1 n=f#7 v=0
108720 On ch=1 n=e7 v=68
108720 On ch=1 n=a6 v=48
108840 On ch=1 n=a6 v=0
108840 On ch=1 n=e7 v=0
108960 On ch=1 n=d7 v=70
108960 On ch=1 n=a6 v=50
109360 On ch=1 n=a6 v=0
109360 On ch=1 n=d7 v=0
109440 On ch=1 n=c#7 v=55
109680 On ch=1 n=e7 v=50
109700 On ch=1 n=c#7 v=0
109800 On ch=1 n=a6 v=48
109820 On ch=1 n=e7 v=0
109920 On ch=1 n=e7 v=55
109940 On ch=1 n=a6 v=0
110040 On ch=1 n=a6 v=46
110060 On ch=1 n=e7 v=0
110160 On ch=1 n=e7 v=50
110180 On ch=1 n=a6 v=0
110280 On ch=1 n=a6 v=45
110300 On ch=1 n=e7 v=0
110400 On ch=1 n=d7 v=55
110420 On ch=1 n=a6 v=0
110640 On ch=1 n=f#7 v=50
110660 On ch=1 n=d7 v=0
110760 On ch=1 n=a6 v=48
110780 On ch=1 n=f#7 v=0
110880 On ch=1 n=f#7 v=52
110900 On ch=1 n=a6 v=0
111000 On ch=1 n=a6 v=43
111020 On ch=1 n=f#7 v=0
111120 On ch=1 n=f#7 v=45
111140 On ch=1 n=a6 v=0
111240 On ch=1 n=a6 v=48
111260 On ch=1 n=f#7 v=0
111360 On ch=1 n=g7 v=50
111380 On ch=1 n=a6 v=0
111560 On ch=1 n=g7 v=0
111600 On ch=1 n=e7 v=40
111720 On ch=1 n=a6 v=32
111740 On ch=1 n=e7 v=0
111840 On ch=1 n=c#7 v=35
111860 On ch=1 n=a6 v=0
111960 On ch=1 n=a6 v=30
111980 On ch=1 n=c#7 v=0
112080 On ch=1 n=e7 v=38
112100 On ch=1 n=a6 v=0
112200 On ch=1 n=a6 v=28
112220 On ch=1 n=e7 v=0
112320 On ch=1 n=d7 v=42
112340 On ch=1 n=a6 v=0
112480 On ch=1 n=d7 v=0
112800 On ch=1 n=d8 v=50
112800 On ch=1 n=a7 v=28
112800 On ch=1 n=d7 v=35
113000 On ch=1 n=d7 v=0
113000 On ch=1 n=a7 v=0
113000 On ch=1 n=d8 v=0
113280 On ch=1 n=a6 v=95
114000 On ch=1 n=a6 v=0
114000 On ch=1 n=a6 v=88
114440 On ch=1 n=a6 v=0
114480 On ch=1 n=g#6 v=90
114600 On ch=1 n=a6 v=96
114620 On ch=1 n=g#6 v=0
114720 On ch=1 n=a#6 v=101
114740 On ch=1 n=a6 v=0
114840 On ch=1 n=a6 v=105
114860 On ch=1 n=a#6 v=0
114960 On ch=1 n=g#6 v=108
114980 On ch=1 n=a6 v=0
115080 On ch=1 n=a6 v=110
115100 On ch=1 n=g#6 v=0
115180 On ch=1 n=a6 v=0
115200 On ch=1 n=f7 v=115
115200 On ch=1 n=d7 v=90
115200 On ch=1 n=a6 v=65
115900 On ch=1 n=a6 v=0
115900 On ch=1 n=d7 v=0
115900 On ch=1 n=f7 v=0
115920 On ch=1 n=d7 v=95
116120 On ch=1 n=d7 v=0
116160 On ch=1 n=a6 v=100
116560 On ch=1 n=a6 v=0
116640 On ch=1 n=f6 v=92
117040 On ch=1 n=f6 v=0
117120 On ch=1 n=g6 v=85
117120 On ch=1 n=d6 v=70
117840 On ch=1 n=d6 v=0
117840 On ch=1 n=g6 v=0
117840 On ch=1 n=g6 v=78
118280 On ch=1 n=g6 v=0
118320 On ch=1 n=f#6 v=80
118440 On ch=1 n=g6 v=86
118460 On ch=1 n=f#6 v=0
118560 On ch=1 n=a6 v=91
118580 On ch=1 n=g6 v=0
118680 On ch=1 n=g6 v=95
118700 On ch=1 n=a6 v=0
118800 On ch=1 n=f#6 v=98
118820 On ch=1 n=g6 v=0
118920 On ch=1 n=g6 v=100
118940 On ch=1 n=f#6 v=0
119020 On ch=1 n=g6 v=0
119040 On ch=1 n=a#6 v=105
119040 On ch=1 n=g6 v=55
119740 On ch=1 n=g6 v=0
119740 On ch=1 n=a#6 v=0
119760 On ch=1 n=g6 v=85
119960 On ch=1 n=g6 v=0
120000 On ch=1 n=e6 v=90
120400 On ch=1 n=e6 v=0
120480 On ch=1 n=c#6 v=82
120880 On ch=1 n=c#6 v=0
120960 On ch=1 n=d6 v=65
121560 On ch=1 n=c#6 v=63
121580 On ch=1 n=d6 v=0
121680 On ch=1 n=d6 v=58
121700 On ch=1 n=c#6 v=0
121800 On ch=1 n=e6 v=53
121820 On ch=1 n=d6 v=0
121920 On ch=1 n=d6 v=55
121940 On ch=1 n=e6 v=0
122400 On ch=1 n=a#5 v=60
122420 On ch=1 n=d6 v=0
122880 On ch=1 n=a5 v=50
122900 On ch=1 n=a#5 v=0
123540 On ch=1 n=a5 v=0
123600 On ch=1 n=a5 v=58
124040 On ch=1 n=a5 v=0
124080 On ch=1 n=g#5 v=55
124200 On ch=1 n=a5 v=62
124220 On ch=1 n=g#5 v=0
124320 On ch=1 n=a#5 v=65
124340 On ch=1 n=a5 v=0
124440 On ch=1 n=a5 v=58
124460 On ch=1 n=a#5 v=0
124560 On ch=1 n=g#5 v=60
124580 On ch=1 n=a5 v=0
124680 On ch=1 n=a5 v=50
124700 On ch=1 n=g#5 v=0
124800 On ch=1 n=f5 v=55
124820 On ch=1 n=a5 v=0
125400 On ch=1 n=e5 v=53
125420 On ch=1 n=f5 v=0
125520 On ch=1 n=f5 v=48
125540 On ch=1 n=e5 v=0
125640 On ch=1 n=g5 v=43
125660 On ch=1 n=f5 v=0
125760 On ch=1 n=f5 v=45
125780 On ch=1 n=g5 v=0
126240 On ch=1 n=e5 v=50
126260 On ch=1 n=f5 v=0
126720 On ch=1 n=d5 v=40
126740 On ch=1 n=e5 v=0
127380 On ch=1 n=d5 v=0
127440 On ch=1 n=d5 v=48
127880 On ch=1 n=d5 v=0
127920 On ch=1 n=c#5 v=50
128040 On ch=1 n=d5 v=57
128060 On ch=1 n=c#5 v=0
128160 On ch=1 n=e5 v=60
128180 On ch=1 n=d5 v=0
128280 On ch=1 n=d5 v=64
128300 On ch=1 n=e5 v=0
128400 On ch=1 n=c#5 v=66
128420 On ch=1 n=d5 v=0
128520 On ch=1 n=d5 v=62
128540 On ch=1 n=c#5 v=0
128620 On ch=1 n=d5 v=0
128640 On ch=1 n=a6 v=95
129360 On ch=1 n=a6 v=0
129360 On ch=1 n=a6 v=88
129800 On ch=1 n=a6 v=0
129840 On ch=1 n=g#6 v=90
129960 On ch=1 n=a6 v=96
129980 On ch=1 n=g#6 v=0
130080 On ch=1 n=a#6 v=101
130100 On ch=1 n=a6 v=0
130200 On ch=1 n=a6 v=105
130220 On ch=1 n=a#6 v=0
130320 On ch=1 n=g#6 v=108
130340 On ch=1 n=a6 v=0
130440 On ch=1 n=a6 v=110
130460 On ch=1 n=g#6 v=0
130540 On ch=1 n=a6 v=0
130560 On ch=1 n=f7 v=115
130560 On ch=1 n=d7 v=90
130560 On ch=1 n=a6 v=65
131260 On ch=1 n=a6 v=0
131260 On ch=1 n=d7 v=0
131260 On ch=1 n=f7 v=0
131280 On ch=1 n=d7 v=95
131480 On ch=1 n=d7 v=0
131520 On ch=1 n=a6 v=100
131920 On ch=1 n=a6 v=0
132000 On ch=1 n=f6 v=92
132400 On ch=1 n=f6 v=0
132480 On ch=1 n=g6 v=85
132480 On ch=1 n=d6 v=70
133200 On ch=1 n=d6 v=0
133200 On ch=1 n=g6 v=0
133200 On ch=1 n=g6 v=78
133640 On ch=1 n=g6 v=0
133680 On ch=1 n=f#6 v=80
133800 On ch=1 n=g6 v=86
133820 On ch=1 n=f#6 v=0
133920 On ch=1 n=a6 v=91
133940 On ch=1 n=g6 v=0
134040 On ch=1 n=g6 v=95
134060 On ch=1 n=a6 v=0
134160 On ch=1 n=f#6 v=98
134180 On ch=1 n=g6 v=0
134280 On ch=1 n=g6 v=100
134300 On ch=1 n=f#6 v=0
134380 On ch=1 n=g6 v=0
134400 On ch=1 n=a#6 v=105
134400 On ch=1 n=g6 v=55
135100 On ch=1 n=g6 v=0
135100 On ch=1 n=a#6 v=0
135120 On ch=1 n=g6 v=85
135320 On ch=1 n=g6 v=0
135360 On ch=1 n=e6 v=90
135760 On ch=1 n=e6 v=0
135840 On ch=1 n=c#6 v=82
136240 On ch=1 n=c#6 v=0
136320 On ch=1 n=d6 v=65
136920 On ch=1 n=c#6 v=63
136940 On ch=1 n=d6 v=0
137040 On ch=1 n=d6 v=58
137060 On ch=1 n=c#6 v=0
137160 On ch=1 n=e6 v=53
137180 On ch=1 n=d6 v=0
137280 On ch=1 n=d6 v=55
137300 On ch=1 n=e6 v=0
137760 On ch=1 n=a#5 v=60
137780 On ch=1 n=d6 v=0
138240 On ch=1 n=a5 v=50
138260 On ch=1 n=a#5 v=0
138900 On ch=1 n=a5 v=0
138960 On ch=1 n=a5 v=58
139400 On ch=1 n=a5 v=0
139440 On ch=1 n=g#5 v=55
139560 On ch=1 n=a5 v=62
139580 On ch=1 n=g#5 v=0
139680 On ch=1 n=a#5 v=65
139700 On ch=1 n=a5 v=0
139800 On ch=1 n=a5 v=58
139820 On ch=1 n=a#5 v=0
139920 On ch=1 n=g#5 v=60
139940 On ch=1 n=a5 v=0
140040 On ch=1 n=a5 v=50
140060 On ch=1 n=g#5 v=0
140160 On ch=1 n=f5 v=55
140180 On ch=1 n=a5 v=0
140760 On ch=1 n=e5 v=53
140780 On ch=1 n=f5 v=0
140880 On ch=1 n=f5 v=48
140900 On ch=1 n=e5 v=0
141000 On ch=1 n=g5 v=43
141020 On ch=1 n=f5 v=0
141120 On ch=1 n=f5 v=45
141140 On ch=1 n=g5 v=0
141600 On ch=1 n=e5 v=50
141620 On ch=1 n=f5 v=0
142080 On ch=1 n=d5 v=40
142100 On ch=1 n=e5 v=0
142740 On ch=1 n=d5 v=0
142800 On ch=1 n=d5 v=48
143240 On ch=1 n=d5 v=0
143280 On ch=1 n=c#5 v=50
143400 On ch=1 n=d5 v=57
143420 On ch=1 n=c#5 v=0
143520 On ch=1 n=e5 v=60
143540 On ch=1 n=d5 v=0
143640 On ch=1 n=d5 v=64
143660 On ch=1 n=e5 v=0
143760 On ch=1 n=c#5 v=66
143780 On ch=1 n=d5 v=0
143880 On ch=1 n=d5 v=62
143900 On ch=1 n=c#5 v=0
143980 On ch=1 n=d5 v=0
144000 On ch=1 n=d7 v=105
144000 On ch=1 n=b6 v=65
144000 On ch=1 n=f6 v=90
144720 On ch=1 n=f6 v=0
144720 On ch=1 n=b6 v=0
144720 On ch=1 n=d7 v=0
144720 On ch=1 n=d7 v=93
144720 On ch=1 n=b6 v=60
144720 On ch=1 n=f6 v=85
144920 On ch=1 n=f6 v=0
144920 On ch=1 n=b6 v=0
144920 On ch=1 n=d7 v=0
145200 On ch=1 n=d7 v=95
145200 On ch=1 n=a6 v=65
145200 On ch=1 n=f6 v=90
145680 On ch=1 n=f6 v=0
145680 On ch=1 n=a6 v=0
145680 On ch=1 n=d7 v=0
145680 On ch=1 n=e7 v=88
145680 On ch=1 n=g#6 v=70
145880 On ch=1 n=g#6 v=0
145880 On ch=1 n=e7 v=0
145920 On ch=1 n=c7 v=90
145920 On ch=1 n=a6 v=72
145920 On ch=1 n=e6 v=50
146640 On ch=1 n=e6 v=0
146640 On ch=1 n=a6 v=0
146640 On ch=1 n=c7 v=0
146640 On ch=1 n=b6 v=92
146840 On ch=1 n=b6 v=0
146880 On ch=1 n=a6 v=80
147360 On ch=1 n=a6 v=0
147360 On ch=1 n=e6 v=70
147760 On ch=1 n=e6 v=0
147840 On ch=1 n=d7 v=110
147840 On ch=1 n=b6 v=70
147840 On ch=1 n=f6 v=95
148560 On ch=1 n=f6 v=0
148560 On ch=1 n=b6 v=0
148560 On ch=1 n=d7 v=0
148560 On ch=1 n=d7 v=98
148560 On ch=1 n=b6 v=65
148560 On ch=1 n=f6 v=90
148760 On ch=1 n=f6 v=0
148760 On ch=1 n=b6 v=0
148760 On ch=1 n=d7 v=0
149040 On ch=1 n=d7 v=100
149040 On ch=1 n=a6 v=70
149040 On ch=1 n=f6 v=95
149520 On ch=1 n=f6 v=0
149520 On ch=1 n=a6 v=0
149520 On ch=1 n=d7 v=0
149520 On ch=1 n=e7 v=93
149520 On ch=1 n=g#6 v=75
149720 On ch=1 n=g#6 v=0
149720 On ch=1 n=e7 v=0
150000 On ch=1 n=c7 v=85
150000 On ch=1 n=a6 v=50
150480 On ch=1 n=a6 v=0
150480 On ch=1 n=c7 v=0
150480 On ch=1 n=b6 v=77
150840 On ch=1 n=b6 v=0
150960 On ch=1 n=a6 v=65
151440 On ch=1 n=e6 v=50
151460 On ch=1 n=a6 v=0
151600 On ch=1 n=e6 v=0
151680 On ch=1 n=a6 v=60
151680 On ch=1 n=d#6 v=42
151680 On ch=1 n=c6 v=30
152400 On ch=1 n=c6 v=0
152400 On ch=1 n=d#6 v=0
152400 On ch=1 n=a6 v=0
152400 On ch=1 n=a6 v=65
152400 On ch=1 n=d#6 v=50
152400 On ch=1 n=c6 v=38
152600 On ch=1 n=c6 v=0
152600 On ch=1 n=d#6 v=0
152600 On ch=1 n=a6 v=0
152640 On ch=1 n=g#6 v=62
152640 On ch=1 n=d6 v=35
153120 On ch=1 n=d6 v=0
153120 On ch=1 n=g#6 v=0
153120 On ch=1 n=f6 v=55
153520 On ch=1 n=f6 v=0
153840 On ch=1 n=e6 v=58
154320 On ch=1 n=e6 v=0
154320 On ch=1 n=e6 v=64
154520 On ch=1 n=e6 v=0
154560 On ch=1 n=a6 v=68
155040 On ch=1 n=e6 v=50
155060 On ch=1 n=a6 v=0
155200 On ch=1 n=e6 v=0
155520 On ch=1 n=a6 v=60
155520 On ch=1 n=d#6 v=42
156240 On ch=1 n=d#6 v=0
156240 On ch=1 n=a6 v=0
156240 On ch=1 n=a6 v=65
156240 On ch=1 n=d#6 v=50
156440 On ch=1 n=d#6 v=0
156440 On ch=1 n=a6 v=0
156720 On ch=1 n=g#6 v=62
156720 On ch=1 n=d6 v=35
157200 On ch=1 n=d6 v=0
157200 On ch=1 n=g#6 v=0
157200 On ch=1 n=f6 v=55
157400 On ch=1 n=f6 v=0
157440 On ch=1 n=e6 v=58
157440 On ch=1 n=c#6 v=40
158160 On ch=1 n=a6 v=50
158180 On ch=1 n=c#6 v=0
158180 On ch=1 n=e6 v=0
158360 On ch=1 n=a6 v=0
158400 On ch=1 n=e6 v=45
158400 On ch=1 n=c#6 v=28
159280 On ch=1 n=c#6 v=0
159280 On ch=1 n=e6 v=0
159360 On ch=1 n=d7 v=105
159360 On ch=1 n=b6 v=65
159360 On ch=1 n=f6 v=90
160080 On ch=1 n=f6 v=0
160080 On ch=1 n=b6 v=0
160080 On ch=1 n=d7 v=0
160080 On ch=1 n=d7 v=93
160080 On ch=1 n=b6 v=60
160080 On ch=1 n=f6 v=85
160280 On ch=1 n=f6 v=0
160280 On ch=1 n=b6 v=0
160280 On ch=1 n=d7 v=0
160560 On ch=1 n=d7 v=95
160560 On ch=1 n=a6 v=65
160560 On ch=1 n=f6 v=90
161040 On ch=1 n=f6 v=0
161040 On ch=1 n=a6 v=0
161040 On ch=1 n=d7 v=0
161040 On ch=1 n=e7 v=88
161040 On ch=1 n=g#6 v=70
161240 On ch=1 n=g#6 v=0
161240 On ch=1 n=e7 v=0
161280 On ch=1 n=c7 v=90
161280 On ch=1 n=a6 v=72
161280 On ch=1 n=e6 v=50
162000 On ch=1 n=e6 v=0
162000 On ch=1 n=a6 v=0
162000 On ch=1 n=c7 v=0
162000 On ch=1 n=b6 v=92
162200 On ch=1 n=b6 v=0
162240 On ch=1 n=a6 v=80
162720 On ch=1 n=a6 v=0
162720 On ch=1 n=e6 v=70
163120 On ch=1 n=e6 v=0
163200 On ch=1 n=d7 v=110
163200 On ch=1 n=b6 v=70
163200 On ch=1 n=f6 v=95
163920 On ch=1 n=f6 v=0
163920 On ch=1 n=b6 v=0
163920 On ch=1 n=d7 v=0
163920 On ch=1 n=d7 v=98
163920 On ch=1 n=b6 v=65
163920 On ch=1 n=f6 v=90
164120 On ch=1 n=f6 v=0
164120 On ch=1 n=b6 v=0
164120 On ch=1 n=d7 v=0
164400 On ch=1 n=d7 v=100
164400 On ch=1 n=a6 v=70
164400 On ch=1 n=f6 v=95
164880 On ch=1 n=f6 v=0
164880 On ch=1 n=a6 v=0
164880 On ch=1 n=d7 v=0
164880 On ch=1 n=e7 v=93
164880 On ch=1 n=g#6 v=75
165080 On ch=1 n=g#6 v=0
165080 On ch=1 n=e7 v=0
165360 On ch=1 n=c7 v=85
165360 On ch=1 n=a6 v=50
165840 On ch=1 n=a6 v=0
165840 On ch=1 n=c7 v=0
165840 On ch=1 n=b6 v=77
166200 On ch=1 n=b6 v=0
166320 On ch=1 n=a6 v=65
166800 On ch=1 n=e6 v=50
166820 On ch=1 n=a6 v=0
166960 On ch=1 n=e6 v=0
167040 On ch=1 n=a6 v=60
167040 On ch=1 n=d#6 v=42
167040 On ch=1 n=c6 v=30
167760 On ch=1 n=c6 v=0
167760 On ch=1 n=d#6 v=0
167760 On ch=1 n=a6 v=0
167760 On ch=1 n=a6 v=65
167760 On ch=1 n=d#6 v=50
167760 On ch=1 n=c6 v=38
167960 On ch=1 n=c6 v=0
167960 On ch=1 n=d#6 v=0
167960 On ch=1 n=a6 v=0
168000 On ch=1 n=g#6 v=62
168000 On ch=1 n=d6 v=35
168480 On ch=1 n=d6 v=0
168480 On ch=1 n=g#6 v=0
168480 On ch=1 n=f6 v=55
168880 On ch=1 n=f6 v=0
169200 On ch=1 n=e6 v=58
169680 On ch=1 n=e6 v=0
169680 On ch=1 n=e6 v=64
169880 On ch=1 n=e6 v=0
169920 On ch=1 n=a6 v=68
170400 On ch=1 n=e6 v=50
170420 On ch=1 n=a6 v=0
170560 On ch=1 n=e6 v=0
170880 On ch=1 n=a6 v=60
170880 On ch=1 n=d#6 v=42
171600 On ch=1 n=d#6 v=0
171600 On ch=1 n=a6 v=0
171600 On ch=1 n=a6 v=65
171600 On ch=1 n=d#6 v=50
171800 On ch=1 n=d#6 v=0
171800 On ch=1 n=a6 v=0
172080 On ch=1 n=g#6 v=62
172080 On ch=1 n=d6 v=35
172560 On ch=1 n=d6 v=0
172560 On ch=1 n=g#6 v=0
172560 On ch=1 n=f6 v=55
172760 On ch=1 n=f6 v=0
172800 On ch=1 n=e6 v=58
172800 On ch=1 n=c#6 v=40
173520 On ch=1 n=a6 v=50
173540 On ch=1 n=c#6 v=0
173540 On ch=1 n=e6 v=0
173720 On ch=1 n=a6 v=0
173760 On ch=1 n=e6 v=45
173760 On ch=1 n=c#6 v=28
174640 On ch=1 n=c#6 v=0
174640 On ch=1 n=e6 v=0
174720 On ch=1 n=a6 v=95
175440 On ch=1 n=a6 v=0
175440 On ch=1 n=a6 v=88
175880 On ch=1 n=a6 v=0
175920 On ch=1 n=g#6 v=90
176040 On ch=1 n=a6 v=96
176060 On ch=1 n=g#6 v=0
176160 On ch=1 n=a#6 v=101
176180 On ch=1 n=a6 v=0
176280 On ch=1 n=a6 v=105
176300 On ch=1 n=a#6 v=0
176400 On ch=1 n=g#6 v=108
176420 On ch=1 n=a6 v=0
176520 On ch=1 n=a6 v=110
176540 On ch=1 n=g#6 v=0
176620 On ch=1 n=a6 v=0
176640 On ch=1 n=f7 v=115
176640 On ch=1 n=d7 v=90
176640 On ch=1 n=a6 v=65
177340 On ch=1 n=a6 v=0
177340 On ch=1 n=d7 v=0
177340 On ch=1 n=f7 v=0
177360 On ch=1 n=d7 v=95
177560 On ch=1 n=d7 v=0
177600 On ch=1 n=a6 v=100
178000 On ch=1 n=a6 v=0
178080 On ch=1 n=f6 v=106
178480 On ch=1 n=f6 v=0
178560 On ch=1 n=g7 v=110
178560 On ch=1 n=d7 v=75
178560 On ch=1 n=a#6 v=95
178560 On ch=1 n=g6 v=103
179280 On ch=1 n=g6 v=0
179280 On ch=1 n=a#6 v=0
179280 On ch=1 n=d7 v=0
179280 On ch=1 n=g7 v=0
179280 On ch=1 n=g7 v=98
179280 On ch=1 n=g6 v=90
179720 On ch=1 n=g6 v=0
179720 On ch=1 n=g7 v=0
179760 On ch=1 n=f#6 v=90
179880 On ch=1 n=g6 v=96
179900 On ch=1 n=f#6 v=0
180000 On ch=1 n=a6 v=101
180020 On ch=1 n=g6 v=0
180120 On ch=1 n=g6 v=105
180140 On ch=1 n=a6 v=0
180240 On ch=1 n=f#6 v=108
180260 On ch=1 n=g6 v=0
180360 On ch=1 n=g6 v=110
180380 On ch=1 n=f#6 v=0
180460 On ch=1 n=g6 v=0
180480 On ch=1 n=a#6 v=115
180480 On ch=1 n=g6 v=65
181180 On ch=1 n=g6 v=0
181180 On ch=1 n=a#6 v=0
181200 On ch=1 n=g6 v=95
181400 On ch=1 n=g6 v=0
181440 On ch=1 n=e6 v=90
181840 On ch=1 n=e6 v=0
181920 On ch=1 n=c#6 v=82
182320 On ch=1 n=c#6 v=0
182400 On ch=1 n=d6 v=65
183000 On ch=1 n=c#6 v=63
183020 On ch=1 n=d6 v=0
183120 On ch=1 n=d6 v=58
183140 On ch=1 n=c#6 v=0
183240 On ch=1 n=e6 v=53
183260 On ch=1 n=d6 v=0
183360 On ch=1 n=d6 v=55
183380 On ch=1 n=e6 v=0
183840 On ch=1 n=a#5 v=60
183860 On ch=1 n=d6 v=0
184320 On ch=1 n=a5 v=50
184340 On ch=1 n=a#5 v=0
184980 On ch=1 n=a5 v=0
185040 On ch=1 n=a5 v=58
185480 On ch=1 n=a5 v=0
185520 On ch=1 n=g#5 v=55
185640 On ch=1 n=a5 v=62
185660 On ch=1 n=g#5 v=0
185760 On ch=1 n=a#5 v=65
185780 On ch=1 n=a5 v=0
185880 On ch=1 n=a5 v=58
185900 On ch=1 n=a#5 v=0
186000 On ch=1 n=g#5 v=60
186020 On ch=1 n=a5 v=0
186120 On ch=1 n=a5 v=50
186140 On ch=1 n=g#5 v=0
186240 On ch=1 n=f5 v=55
186260 On ch=1 n=a5 v=0
186840 On ch=1 n=e5 v=53
186860 On ch=1 n=f5 v=0
186960 On ch=1 n=f5 v=48
186980 On ch=1 n=e5 v=0
187080 On ch=1 n=g5 v=45
187100 On ch=1 n=f5 v=0
187200 On ch=1 n=f5 v=50
187220 On ch=1 n=g5 v=0
187680 On ch=1 n=e5 v=58
187700 On ch=1 n=f5 v=0
188160 On ch=1 n=f5 v=65
188180 On ch=1 n=e5 v=0
188760 On ch=1 n=e5 v=63
188780 On ch=1 n=f5 v=0
188880 On ch=1 n=f5 v=67
188900 On ch=1 n=e5 v=0
189000 On ch=1 n=g5 v=72
189020 On ch=1 n=f5 v=0
189120 On ch=1 n=f5 v=70
189140 On ch=1 n=g5 v=0
189600 On ch=1 n=e5 v=75
189620 On ch=1 n=f5 v=0
190080 On ch=1 n=f6 v=85
190100 On ch=1 n=e5 v=0
190680 On ch=1 n=e6 v=83
190700 On ch=1 n=f6 v=0
190800 On ch=1 n=f6 v=78
190820 On ch=1 n=e6 v=0
190920 On ch=1 n=g6 v=80
190940 On ch=1 n=f6 v=0
191040 On ch=1 n=f6 v=82
191060 On ch=1 n=g6 v=0
191520 On ch=1 n=e6 v=87
191540 On ch=1 n=f6 v=0
191920 On ch=1 n=e6 v=0
192240 On ch=1 n=d7 v=115
192720 On ch=1 n=c#7 v=90
192740 On ch=1 n=d7 v=0
192840 On ch=1 n=d7 v=83
192860 On ch=1 n=c#7 v=0
192960 On ch=1 n=e7 v=85
192980 On ch=1 n=d7 v=0
193080 On ch=1 n=d7 v=88
193100 On ch=1 n=e7 v=0
193200 On ch=1 n=c#7 v=91
193220 On ch=1 n=d7 v=0
193320 On ch=1 n=d7 v=94
193340 On ch=1 n=c#7 v=0
193440 On ch=1 n=e7 v=97
193460 On ch=1 n=d7 v=0
193560 On ch=1 n=d7 v=100
193580 On ch=1 n=e7 v=0
193680 On ch=1 n=c#7 v=103
193700 On ch=1 n=d7 v=0
193800 On ch=1 n=d7 v=106
193820 On ch=1 n=c#7 v=0
193900 On ch=1 n=d7 v=0
193920 On ch=1 n=d8 v=120
193920 On ch=1 n=a7 v=75
193920 On ch=1 n=f7 v=102
193920 On ch=1 n=d7 v=90
194120 On ch=1 n=d7 v=0
194120 On ch=1 n=f7 v=0
194120 On ch=1 n=a7 v=0
194120 On ch=1 n=d8 v=0
194120 Meta TrkEnd
TrkEnd
MTrk
0 SeqSpec 43 00 01 00
0 Meta TrkName "Piano 1(L.H.)                       "
980 Par ch=2 c=32 v=1
1040 Par ch=2 c=0 v=0
1100 PrCh ch=2 p=0
1160 Par ch=2 c=10 v=68
1220 Par ch=2 c=91 v=80
1280 Par ch=2 c=7 v=120
1340 Par ch=2 c=11 v=120
1920 On ch=2 n=e6 v=72
1920 On ch=2 n=c#6 v=85
1920 On ch=2 n=a5 v=95
2640 On ch=2 n=a5 v=0
2640 On ch=2 n=c#6 v=0
2640 On ch=2 n=e6 v=0
2640 On ch=2 n=e6 v=65
2640 On ch=2 n=c#6 v=78
2640 On ch=2 n=a5 v=88
3080 On ch=2 n=a5 v=0
3080 On ch=2 n=c#6 v=0
3080 On ch=2 n=e6 v=0
3120 On ch=2 n=g#5 v=90
3240 On ch=2 n=a5 v=96
3260 On ch=2 n=g#5 v=0
3360 On ch=2 n=a#5 v=101
3380 On ch=2 n=a5 v=0
3480 On ch=2 n=a5 v=105
3500 On ch=2 n=a#5 v=0
3600 On ch=2 n=g#5 v=108
3620 On ch=2 n=a5 v=0
3720 On ch=2 n=a5 v=110
3740 On ch=2 n=g#5 v=0
3820 On ch=2 n=a5 v=0
3840 On ch=2 n=f6 v=115
3840 On ch=2 n=d6 v=90
3840 On ch=2 n=a5 v=65
4540 On ch=2 n=a5 v=0
4540 On ch=2 n=d6 v=0
4540 On ch=2 n=f6 v=0
4560 On ch=2 n=d6 v=95
4760 On ch=2 n=d6 v=0
4800 On ch=2 n=a5 v=100
5200 On ch=2 n=a5 v=0
5280 On ch=2 n=f5 v=92
5680 On ch=2 n=f5 v=0
5760 On ch=2 n=g5 v=85
5900 On ch=2 n=g5 v=0
6480 On ch=2 n=d6 v=55
6480 On ch=2 n=a#5 v=68
6920 On ch=2 n=a#5 v=0
6920 On ch=2 n=d6 v=0
6960 On ch=2 n=f#5 v=80
7080 On ch=2 n=g5 v=86
7100 On ch=2 n=f#5 v=0
7200 On ch=2 n=a5 v=91
7220 On ch=2 n=g5 v=0
7320 On ch=2 n=g5 v=95
7340 On ch=2 n=a5 v=0
7440 On ch=2 n=f#5 v=98
7460 On ch=2 n=g5 v=0
7560 On ch=2 n=g5 v=100
7580 On ch=2 n=f#5 v=0
7660 On ch=2 n=g5 v=0
7680 On ch=2 n=d6 v=55
7680 On ch=2 n=a#5 v=105
7680 On ch=2 n=g5 v=80
8380 On ch=2 n=g5 v=0
8380 On ch=2 n=a#5 v=0
8380 On ch=2 n=d6 v=0
8400 On ch=2 n=d6 v=50
8400 On ch=2 n=a#5 v=67
8400 On ch=2 n=g5 v=85
8600 On ch=2 n=g5 v=0
8600 On ch=2 n=a#5 v=0
8600 On ch=2 n=d6 v=0
8640 On ch=2 n=c#6 v=80
8640 On ch=2 n=g5 v=65
9040 On ch=2 n=g5 v=0
9040 On ch=2 n=c#6 v=0
9120 On ch=2 n=g5 v=60
9520 On ch=2 n=g5 v=0
9600 On ch=2 n=a#5 v=65
9600 On ch=2 n=f5 v=53
10080 On ch=2 n=f5 v=0
10200 On ch=2 n=a5 v=63
10220 On ch=2 n=a#5 v=0
10320 On ch=2 n=a#5 v=58
10340 On ch=2 n=a5 v=0
10440 On ch=2 n=c6 v=53
10460 On ch=2 n=a#5 v=0
10560 On ch=2 n=a#5 v=55
10580 On ch=2 n=c6 v=0
11040 On ch=2 n=g5 v=60
11060 On ch=2 n=a#5 v=0
11520 On ch=2 n=f5 v=50
11520 On ch=2 n=c5 v=38
11540 On ch=2 n=g5 v=0
12180 On ch=2 n=c5 v=0
12180 On ch=2 n=f5 v=0
12240 On ch=2 n=f5 v=58
12240 On ch=2 n=c5 v=45
12680 On ch=2 n=c5 v=0
12680 On ch=2 n=f5 v=0
12720 On ch=2 n=e5 v=55
12840 On ch=2 n=f5 v=62
12860 On ch=2 n=e5 v=0
12960 On ch=2 n=g5 v=65
12980 On ch=2 n=f5 v=0
13080 On ch=2 n=f5 v=58
13100 On ch=2 n=g5 v=0
13200 On ch=2 n=e5 v=60
13220 On ch=2 n=f5 v=0
13320 On ch=2 n=f5 v=50
13340 On ch=2 n=e5 v=0
13440 On ch=2 n=d5 v=30
13440 On ch=2 n=a#4 v=40
13460 On ch=2 n=f5 v=0
14340 On ch=2 n=a#4 v=0
14340 On ch=2 n=d5 v=0
14400 On ch=2 n=c#5 v=35
14400 On ch=2 n=a4 v=48
14880 On ch=2 n=g4 v=52
14900 On ch=2 n=a4 v=0
15280 On ch=2 n=g4 v=0
15280 On ch=2 n=c#5 v=0
15360 On ch=2 n=a4 v=38
15360 On ch=2 n=f4 v=50
16020 On ch=2 n=f4 v=0
16020 On ch=2 n=a4 v=0
16080 On ch=2 n=a4 v=60
16080 On ch=2 n=f4 v=48
16320 On ch=2 n=a#4 v=62
16320 On ch=2 n=g4 v=50
16340 On ch=2 n=f4 v=0
16340 On ch=2 n=a4 v=0
16800 On ch=2 n=a4 v=55
16800 On ch=2 n=f4 v=40
16820 On ch=2 n=g4 v=0
16820 On ch=2 n=a#4 v=0
17200 On ch=2 n=f4 v=0
17200 On ch=2 n=a4 v=0
17280 On ch=2 n=e6 v=72
17280 On ch=2 n=c#6 v=85
17280 On ch=2 n=a5 v=95
18000 On ch=2 n=a5 v=0
18000 On ch=2 n=c#6 v=0
18000 On ch=2 n=e6 v=0
18000 On ch=2 n=e6 v=65
18000 On ch=2 n=c#6 v=78
18000 On ch=2 n=a5 v=88
18440 On ch=2 n=a5 v=0
18440 On ch=2 n=c#6 v=0
18440 On ch=2 n=e6 v=0
18480 On ch=2 n=g#5 v=90
18600 On ch=2 n=a5 v=96
18620 On ch=2 n=g#5 v=0
18720 On ch=2 n=a#5 v=101
18740 On ch=2 n=a5 v=0
18840 On ch=2 n=a5 v=105
18860 On ch=2 n=a#5 v=0
18960 On ch=2 n=g#5 v=108
18980 On ch=2 n=a5 v=0
19080 On ch=2 n=a5 v=110
19100 On ch=2 n=g#5 v=0
19180 On ch=2 n=a5 v=0
19200 On ch=2 n=f6 v=115
19200 On ch=2 n=d6 v=90
19200 On ch=2 n=a5 v=65
19900 On ch=2 n=a5 v=0
19900 On ch=2 n=d6 v=0
19900 On ch=2 n=f6 v=0
19920 On ch=2 n=d6 v=95
20120 On ch=2 n=d6 v=0
20160 On ch=2 n=a5 v=100
20560 On ch=2 n=a5 v=0
20640 On ch=2 n=f5 v=92
21040 On ch=2 n=f5 v=0
21120 On ch=2 n=g5 v=85
21260 On ch=2 n=g5 v=0
21840 On ch=2 n=d6 v=55
21840 On ch=2 n=a#5 v=68
22280 On ch=2 n=a#5 v=0
22280 On ch=2 n=d6 v=0
22320 On ch=2 n=f#5 v=80
22440 On ch=2 n=g5 v=86
22460 On ch=2 n=f#5 v=0
22560 On ch=2 n=a5 v=91
22580 On ch=2 n=g5 v=0
22680 On ch=2 n=g5 v=95
22700 On ch=2 n=a5 v=0
22800 On ch=2 n=f#5 v=98
22820 On ch=2 n=g5 v=0
22920 On ch=2 n=g5 v=100
22940 On ch=2 n=f#5 v=0
23020 On ch=2 n=g5 v=0
23040 On ch=2 n=d6 v=55
23040 On ch=2 n=a#5 v=105
23040 On ch=2 n=g5 v=80
23740 On ch=2 n=g5 v=0
23740 On ch=2 n=a#5 v=0
23740 On ch=2 n=d6 v=0
23760 On ch=2 n=d6 v=50
23760 On ch=2 n=a#5 v=67
23760 On ch=2 n=g5 v=85
23960 On ch=2 n=g5 v=0
23960 On ch=2 n=a#5 v=0
23960 On ch=2 n=d6 v=0
24000 On ch=2 n=c#6 v=80
24000 On ch=2 n=g5 v=65
24400 On ch=2 n=g5 v=0
24400 On ch=2 n=c#6 v=0
24480 On ch=2 n=g5 v=60
24880 On ch=2 n=g5 v=0
24960 On ch=2 n=a#5 v=65
24960 On ch=2 n=f5 v=53
25440 On ch=2 n=f5 v=0
25560 On ch=2 n=a5 v=63
25580 On ch=2 n=a#5 v=0
25680 On ch=2 n=a#5 v=58
25700 On ch=2 n=a5 v=0
25800 On ch=2 n=c6 v=53
25820 On ch=2 n=a#5 v=0
25920 On ch=2 n=a#5 v=55
25940 On ch=2 n=c6 v=0
26400 On ch=2 n=g5 v=60
26420 On ch=2 n=a#5 v=0
26880 On ch=2 n=f5 v=50
26880 On ch=2 n=c5 v=38
26900 On ch=2 n=g5 v=0
27540 On ch=2 n=c5 v=0
27540 On ch=2 n=f5 v=0
27600 On ch=2 n=f5 v=58
27600 On ch=2 n=c5 v=45
28040 On ch=2 n=c5 v=0
28040 On ch=2 n=f5 v=0
28080 On ch=2 n=e5 v=55
28200 On ch=2 n=f5 v=62
28220 On ch=2 n=e5 v=0
28320 On ch=2 n=g5 v=65
28340 On ch=2 n=f5 v=0
28440 On ch=2 n=f5 v=58
28460 On ch=2 n=g5 v=0
28560 On ch=2 n=e5 v=60
28580 On ch=2 n=f5 v=0
28680 On ch=2 n=f5 v=50
28700 On ch=2 n=e5 v=0
28800 On ch=2 n=d5 v=30
28800 On ch=2 n=a#4 v=40
28820 On ch=2 n=f5 v=0
29700 On ch=2 n=a#4 v=0
29700 On ch=2 n=d5 v=0
29760 On ch=2 n=c#5 v=35
29760 On ch=2 n=a4 v=48
30240 On ch=2 n=g4 v=52
30260 On ch=2 n=a4 v=0
30640 On ch=2 n=g4 v=0
30640 On ch=2 n=c#5 v=0
30720 On ch=2 n=a4 v=38
30720 On ch=2 n=f4 v=50
31380 On ch=2 n=f4 v=0
31380 On ch=2 n=a4 v=0
31440 On ch=2 n=a4 v=60
31440 On ch=2 n=f4 v=48
31680 On ch=2 n=a#4 v=62
31680 On ch=2 n=g4 v=50
31700 On ch=2 n=f4 v=0
31700 On ch=2 n=a4 v=0
32160 On ch=2 n=a4 v=55
32160 On ch=2 n=f4 v=40
32180 On ch=2 n=g4 v=0
32180 On ch=2 n=a#4 v=0
32560 On ch=2 n=f4 v=0
32560 On ch=2 n=a4 v=0
32640 On ch=2 n=d6 v=105
32640 On ch=2 n=b5 v=65
32640 On ch=2 n=f5 v=90
33360 On ch=2 n=f5 v=0
33360 On ch=2 n=b5 v=0
33360 On ch=2 n=d6 v=0
33360 On ch=2 n=d6 v=93
33360 On ch=2 n=b5 v=60
33360 On ch=2 n=f5 v=85
33560 On ch=2 n=f5 v=0
33560 On ch=2 n=b5 v=0
33560 On ch=2 n=d6 v=0
33840 On ch=2 n=d6 v=95
33840 On ch=2 n=a5 v=65
33840 On ch=2 n=f5 v=90
34320 On ch=2 n=f5 v=0
34320 On ch=2 n=a5 v=0
34320 On ch=2 n=d6 v=0
34320 On ch=2 n=e6 v=88
34320 On ch=2 n=g#5 v=70
34520 On ch=2 n=g#5 v=0
34520 On ch=2 n=e6 v=0
34560 On ch=2 n=c6 v=90
34560 On ch=2 n=a5 v=72
34560 On ch=2 n=e5 v=50
35280 On ch=2 n=e5 v=0
35280 On ch=2 n=a5 v=0
35280 On ch=2 n=c6 v=0
35280 On ch=2 n=b5 v=92
35480 On ch=2 n=b5 v=0
35520 On ch=2 n=a5 v=80
36000 On ch=2 n=a5 v=0
36000 On ch=2 n=e5 v=70
36400 On ch=2 n=e5 v=0
36480 On ch=2 n=d6 v=110
36480 On ch=2 n=b5 v=70
36480 On ch=2 n=f5 v=95
37200 On ch=2 n=f5 v=0
37200 On ch=2 n=b5 v=0
37200 On ch=2 n=d6 v=0
37200 On ch=2 n=d6 v=98
37200 On ch=2 n=b5 v=65
37200 On ch=2 n=f5 v=90
37400 On ch=2 n=f5 v=0
37400 On ch=2 n=b5 v=0
37400 On ch=2 n=d6 v=0
37680 On ch=2 n=d6 v=100
37680 On ch=2 n=a5 v=70
37680 On ch=2 n=f5 v=95
38160 On ch=2 n=f5 v=0
38160 On ch=2 n=a5 v=0
38160 On ch=2 n=d6 v=0
38160 On ch=2 n=e6 v=93
38160 On ch=2 n=g#5 v=75
38360 On ch=2 n=g#5 v=0
38360 On ch=2 n=e6 v=0
38640 On ch=2 n=e6 v=60
38640 On ch=2 n=c6 v=85
39120 On ch=2 n=c6 v=0
39120 On ch=2 n=e6 v=0
39120 On ch=2 n=e6 v=48
39120 On ch=2 n=b5 v=77
39480 On ch=2 n=b5 v=0
39480 On ch=2 n=e6 v=0
39600 On ch=2 n=c6 v=40
39600 On ch=2 n=a5 v=65
40080 On ch=2 n=e5 v=50
40100 On ch=2 n=a5 v=0
40100 On ch=2 n=c6 v=0
40240 On ch=2 n=e5 v=0
40320 On ch=2 n=a5 v=42
40320 On ch=2 n=f5 v=55
41040 On ch=2 n=f5 v=0
41040 On ch=2 n=a5 v=0
41040 On ch=2 n=a5 v=50
41040 On ch=2 n=f5 v=60
41240 On ch=2 n=f5 v=0
41240 On ch=2 n=a5 v=0
41280 On ch=2 n=b5 v=40
41280 On ch=2 n=g#5 v=58
41280 On ch=2 n=f5 v=62
41760 On ch=2 n=f5 v=0
41760 On ch=2 n=g#5 v=0
41760 On ch=2 n=b5 v=0
41760 On ch=2 n=b5 v=32
41760 On ch=2 n=g#5 v=50
41760 On ch=2 n=f5 v=55
42160 On ch=2 n=f5 v=0
42160 On ch=2 n=g#5 v=0
42160 On ch=2 n=b5 v=0
42480 On ch=2 n=c#6 v=50
42480 On ch=2 n=a5 v=35
42480 On ch=2 n=e5 v=58
42960 On ch=2 n=e5 v=0
42960 On ch=2 n=a5 v=0
42960 On ch=2 n=c#6 v=0
42960 On ch=2 n=c#6 v=48
42960 On ch=2 n=a5 v=38
42960 On ch=2 n=e5 v=64
43160 On ch=2 n=e5 v=0
43160 On ch=2 n=a5 v=0
43160 On ch=2 n=c#6 v=0
43200 On ch=2 n=c#6 v=45
43200 On ch=2 n=a5 v=60
43680 On ch=2 n=e5 v=50
43700 On ch=2 n=a5 v=0
43700 On ch=2 n=c#6 v=0
43840 On ch=2 n=e5 v=0
44160 On ch=2 n=c6 v=35
44160 On ch=2 n=a5 v=55
44160 On ch=2 n=f5 v=60
44880 On ch=2 n=f5 v=0
44880 On ch=2 n=a5 v=0
44880 On ch=2 n=c6 v=0
44880 On ch=2 n=c6 v=38
44880 On ch=2 n=a5 v=65
44880 On ch=2 n=f5 v=50
45080 On ch=2 n=f5 v=0
45080 On ch=2 n=a5 v=0
45080 On ch=2 n=c6 v=0
45360 On ch=2 n=b5 v=60
45360 On ch=2 n=g#5 v=48
45360 On ch=2 n=f5 v=40
45840 On ch=2 n=f5 v=0
45840 On ch=2 n=g#5 v=0
45840 On ch=2 n=b5 v=0
45840 On ch=2 n=b5 v=55
45840 On ch=2 n=g#5 v=43
45840 On ch=2 n=f5 v=35
46040 On ch=2 n=f5 v=0
46040 On ch=2 n=g#5 v=0
46040 On ch=2 n=b5 v=0
46080 On ch=2 n=e5 v=58
46800 On ch=2 n=a5 v=50
46820 On ch=2 n=e5 v=0
47000 On ch=2 n=a5 v=0
47040 On ch=2 n=e5 v=45
47920 On ch=2 n=e5 v=0
48000 On ch=2 n=d6 v=105
48000 On ch=2 n=b5 v=65
48000 On ch=2 n=f5 v=90
48720 On ch=2 n=f5 v=0
48720 On ch=2 n=b5 v=0
48720 On ch=2 n=d6 v=0
48720 On ch=2 n=d6 v=93
48720 On ch=2 n=b5 v=60
48720 On ch=2 n=f5 v=85
48920 On ch=2 n=f5 v=0
48920 On ch=2 n=b5 v=0
48920 On ch=2 n=d6 v=0
49200 On ch=2 n=d6 v=95
49200 On ch=2 n=a5 v=65
49200 On ch=2 n=f5 v=90
49680 On ch=2 n=f5 v=0
49680 On ch=2 n=a5 v=0
49680 On ch=2 n=d6 v=0
49680 On ch=2 n=e6 v=88
49680 On ch=2 n=g#5 v=70
49880 On ch=2 n=g#5 v=0
49880 On ch=2 n=e6 v=0
49920 On ch=2 n=c6 v=90
49920 On ch=2 n=a5 v=72
49920 On ch=2 n=e5 v=50
50640 On ch=2 n=e5 v=0
50640 On ch=2 n=a5 v=0
50640 On ch=2 n=c6 v=0
50640 On ch=2 n=b5 v=92
50840 On ch=2 n=b5 v=0
50880 On ch=2 n=a5 v=80
51360 On ch=2 n=a5 v=0
51360 On ch=2 n=e5 v=70
51760 On ch=2 n=e5 v=0
51840 On ch=2 n=d6 v=110
51840 On ch=2 n=b5 v=70
51840 On ch=2 n=f5 v=95
52560 On ch=2 n=f5 v=0
52560 On ch=2 n=b5 v=0
52560 On ch=2 n=d6 v=0
52560 On ch=2 n=d6 v=98
52560 On ch=2 n=b5 v=65
52560 On ch=2 n=f5 v=90
52760 On ch=2 n=f5 v=0
52760 On ch=2 n=b5 v=0
52760 On ch=2 n=d6 v=0
53040 On ch=2 n=d6 v=100
53040 On ch=2 n=a5 v=70
53040 On ch=2 n=f5 v=95
53520 On ch=2 n=f5 v=0
53520 On ch=2 n=a5 v=0
53520 On ch=2 n=d6 v=0
53520 On ch=2 n=e6 v=93
53520 On ch=2 n=g#5 v=75
53720 On ch=2 n=g#5 v=0
53720 On ch=2 n=e6 v=0
54000 On ch=2 n=e6 v=60
54000 On ch=2 n=c6 v=85
54480 On ch=2 n=c6 v=0
54480 On ch=2 n=e6 v=0
54480 On ch=2 n=e6 v=48
54480 On ch=2 n=b5 v=77
54840 On ch=2 n=b5 v=0
54840 On ch=2 n=e6 v=0
54960 On ch=2 n=c6 v=40
54960 On ch=2 n=a5 v=65
55440 On ch=2 n=e5 v=50
55460 On ch=2 n=a5 v=0
55460 On ch=2 n=c6 v=0
55600 On ch=2 n=e5 v=0
55680 On ch=2 n=a5 v=42
55680 On ch=2 n=f5 v=55
56400 On ch=2 n=f5 v=0
56400 On ch=2 n=a5 v=0
56400 On ch=2 n=a5 v=50
56400 On ch=2 n=f5 v=60
56600 On ch=2 n=f5 v=0
56600 On ch=2 n=a5 v=0
56640 On ch=2 n=b5 v=40
56640 On ch=2 n=g#5 v=58
56640 On ch=2 n=f5 v=62
57120 On ch=2 n=f5 v=0
57120 On ch=2 n=g#5 v=0
57120 On ch=2 n=b5 v=0
57120 On ch=2 n=b5 v=32
57120 On ch=2 n=g#5 v=50
57120 On ch=2 n=f5 v=55
57520 On ch=2 n=f5 v=0
57520 On ch=2 n=g#5 v=0
57520 On ch=2 n=b5 v=0
57840 On ch=2 n=c#6 v=50
57840 On ch=2 n=a5 v=35
57840 On ch=2 n=e5 v=58
58320 On ch=2 n=e5 v=0
58320 On ch=2 n=a5 v=0
58320 On ch=2 n=c#6 v=0
58320 On ch=2 n=c#6 v=48
58320 On ch=2 n=a5 v=38
58320 On ch=2 n=e5 v=64
58520 On ch=2 n=e5 v=0
58520 On ch=2 n=a5 v=0
58520 On ch=2 n=c#6 v=0
58560 On ch=2 n=c#6 v=45
58560 On ch=2 n=a5 v=60
59040 On ch=2 n=e5 v=50
59060 On ch=2 n=a5 v=0
59060 On ch=2 n=c#6 v=0
59200 On ch=2 n=e5 v=0
59520 On ch=2 n=c6 v=35
59520 On ch=2 n=a5 v=55
59520 On ch=2 n=f5 v=60
60240 On ch=2 n=f5 v=0
60240 On ch=2 n=a5 v=0
60240 On ch=2 n=c6 v=0
60240 On ch=2 n=c6 v=38
60240 On ch=2 n=a5 v=65
60240 On ch=2 n=f5 v=50
60440 On ch=2 n=f5 v=0
60440 On ch=2 n=a5 v=0
60440 On ch=2 n=c6 v=0
60720 On ch=2 n=b5 v=60
60720 On ch=2 n=g#5 v=48
60720 On ch=2 n=f5 v=40
61200 On ch=2 n=f5 v=0
61200 On ch=2 n=g#5 v=0
61200 On ch=2 n=b5 v=0
61200 On ch=2 n=b5 v=55
61200 On ch=2 n=g#5 v=43
61200 On ch=2 n=f5 v=35
61400 On ch=2 n=f5 v=0
61400 On ch=2 n=g#5 v=0
61400 On ch=2 n=b5 v=0
61440 On ch=2 n=e5 v=58
62160 On ch=2 n=a5 v=50
62180 On ch=2 n=e5 v=0
62360 On ch=2 n=a5 v=0
62400 On ch=2 n=e5 v=45
63280 On ch=2 n=e5 v=0
63360 On ch=2 n=e6 v=72
63360 On ch=2 n=c#6 v=85
63360 On ch=2 n=a5 v=95
64080 On ch=2 n=a5 v=0
64080 On ch=2 n=c#6 v=0
64080 On ch=2 n=e6 v=0
64080 On ch=2 n=e6 v=65
64080 On ch=2 n=c#6 v=78
64080 On ch=2 n=a5 v=88
64520 On ch=2 n=a5 v=0
64520 On ch=2 n=c#6 v=0
64520 On ch=2 n=e6 v=0
64560 On ch=2 n=g#5 v=90
64680 On ch=2 n=a5 v=96
64700 On ch=2 n=g#5 v=0
64800 On ch=2 n=a#5 v=101
64820 On ch=2 n=a5 v=0
64920 On ch=2 n=a5 v=105
64940 On ch=2 n=a#5 v=0
65040 On ch=2 n=g#5 v=108
65060 On ch=2 n=a5 v=0
65160 On ch=2 n=a5 v=110
65180 On ch=2 n=g#5 v=0
65260 On ch=2 n=a5 v=0
65280 On ch=2 n=f6 v=115
65280 On ch=2 n=d6 v=90
65280 On ch=2 n=a5 v=65
65980 On ch=2 n=a5 v=0
65980 On ch=2 n=d6 v=0
65980 On ch=2 n=f6 v=0
66000 On ch=2 n=d6 v=95
66200 On ch=2 n=d6 v=0
66240 On ch=2 n=a5 v=100
66640 On ch=2 n=a5 v=0
66720 On ch=2 n=f5 v=106
67120 On ch=2 n=f5 v=0
67200 On ch=2 n=d6 v=88
67200 On ch=2 n=g5 v=110
67340 On ch=2 n=g5 v=0
67340 On ch=2 n=d6 v=0
67920 On ch=2 n=d6 v=65
67920 On ch=2 n=a#5 v=78
68360 On ch=2 n=a#5 v=0
68360 On ch=2 n=d6 v=0
68400 On ch=2 n=f#5 v=90
68520 On ch=2 n=g5 v=96
68540 On ch=2 n=f#5 v=0
68640 On ch=2 n=a5 v=101
68660 On ch=2 n=g5 v=0
68760 On ch=2 n=g5 v=105
68780 On ch=2 n=a5 v=0
68880 On ch=2 n=f#5 v=108
68900 On ch=2 n=g5 v=0
69000 On ch=2 n=g5 v=110
69020 On ch=2 n=f#5 v=0
69100 On ch=2 n=g5 v=0
69120 On ch=2 n=d6 v=55
69120 On ch=2 n=a#5 v=105
69120 On ch=2 n=g5 v=80
69820 On ch=2 n=g5 v=0
69820 On ch=2 n=a#5 v=0
69820 On ch=2 n=d6 v=0
69840 On ch=2 n=d6 v=50
69840 On ch=2 n=a#5 v=67
69840 On ch=2 n=g5 v=85
70040 On ch=2 n=g5 v=0
70040 On ch=2 n=a#5 v=0
70040 On ch=2 n=d6 v=0
70080 On ch=2 n=c#6 v=80
70080 On ch=2 n=g5 v=65
70480 On ch=2 n=g5 v=0
70480 On ch=2 n=c#6 v=0
70560 On ch=2 n=g5 v=60
70960 On ch=2 n=g5 v=0
71040 On ch=2 n=a#5 v=65
71040 On ch=2 n=f5 v=53
71520 On ch=2 n=f5 v=0
71640 On ch=2 n=a5 v=63
71660 On ch=2 n=a#5 v=0
71760 On ch=2 n=a#5 v=58
71780 On ch=2 n=a5 v=0
71880 On ch=2 n=c6 v=53
71900 On ch=2 n=a#5 v=0
72000 On ch=2 n=a#5 v=55
72020 On ch=2 n=c6 v=0
72480 On ch=2 n=g5 v=60
72500 On ch=2 n=a#5 v=0
72960 On ch=2 n=f5 v=50
72960 On ch=2 n=c5 v=38
72980 On ch=2 n=g5 v=0
73620 On ch=2 n=c5 v=0
73620 On ch=2 n=f5 v=0
73680 On ch=2 n=f5 v=58
74120 On ch=2 n=f5 v=0
74160 On ch=2 n=e5 v=55
74280 On ch=2 n=f5 v=62
74300 On ch=2 n=e5 v=0
74400 On ch=2 n=g5 v=65
74420 On ch=2 n=f5 v=0
74520 On ch=2 n=f5 v=58
74540 On ch=2 n=g5 v=0
74640 On ch=2 n=e5 v=60
74660 On ch=2 n=f5 v=0
74760 On ch=2 n=f5 v=50
74780 On ch=2 n=e5 v=0
74880 On ch=2 n=d5 v=30
74880 On ch=2 n=a#4 v=40
74900 On ch=2 n=f5 v=0
75780 On ch=2 n=a#4 v=0
75780 On ch=2 n=d5 v=0
75840 On ch=2 n=c#5 v=35
75840 On ch=2 n=a4 v=48
76320 On ch=2 n=g4 v=52
76340 On ch=2 n=a4 v=0
76720 On ch=2 n=g4 v=0
76720 On ch=2 n=c#5 v=0
76800 On ch=2 n=a4 v=38
76800 On ch=2 n=f4 v=50
77460 On ch=2 n=f4 v=0
77460 On ch=2 n=a4 v=0
77520 On ch=2 n=a4 v=60
77520 On ch=2 n=f4 v=48
77760 On ch=2 n=a#4 v=62
77760 On ch=2 n=g4 v=50
77780 On ch=2 n=f4 v=0
77780 On ch=2 n=a4 v=0
78240 On ch=2 n=a4 v=55
78240 On ch=2 n=f4 v=40
78260 On ch=2 n=g4 v=0
78260 On ch=2 n=a#4 v=0
78640 On ch=2 n=f4 v=0
78640 On ch=2 n=a4 v=0
78720 On ch=2 n=d5 v=60
78960 On ch=2 n=f#5 v=45
78980 On ch=2 n=d5 v=0
79100 On ch=2 n=f#5 v=0
79200 On ch=2 n=f#5 v=48
79360 On ch=2 n=f#5 v=0
79440 On ch=2 n=f#5 v=40
79560 On ch=2 n=f#5 v=0
79680 On ch=2 n=f#5 v=43
79820 On ch=2 n=f#5 v=0
79920 On ch=2 n=f#5 v=46
80040 On ch=2 n=f#5 v=0
80160 On ch=2 n=f#5 v=52
80310 On ch=2 n=f#5 v=0
80400 On ch=2 n=f#5 v=48
80580 On ch=2 n=f#5 v=0
80640 On ch=2 n=d5 v=60
80880 On ch=2 n=g5 v=55
80900 On ch=2 n=d5 v=0
81020 On ch=2 n=g5 v=0
81120 On ch=2 n=g5 v=62
81280 On ch=2 n=g5 v=0
81360 On ch=2 n=g5 v=60
81480 On ch=2 n=g5 v=0
81600 On ch=2 n=g5 v=68
81740 On ch=2 n=g5 v=0
81840 On ch=2 n=g5 v=65
81960 On ch=2 n=g5 v=0
82080 On ch=2 n=g5 v=70
82230 On ch=2 n=g5 v=0
82320 On ch=2 n=g5 v=74
82500 On ch=2 n=g5 v=0
82560 On ch=2 n=g5 v=80
82560 On ch=2 n=e5 v=50
82800 On ch=2 n=g5 v=0
82800 On ch=2 n=a5 v=65
82800 On ch=2 n=g5 v=53
82820 On ch=2 n=e5 v=0
82940 On ch=2 n=g5 v=0
82940 On ch=2 n=a5 v=0
83040 On ch=2 n=a5 v=73
83040 On ch=2 n=g5 v=55
83200 On ch=2 n=g5 v=0
83200 On ch=2 n=a5 v=0
83280 On ch=2 n=a5 v=80
83280 On ch=2 n=g5 v=57
83400 On ch=2 n=g5 v=0
83400 On ch=2 n=a5 v=0
83520 On ch=2 n=a5 v=83
83520 On ch=2 n=g5 v=59
83660 On ch=2 n=g5 v=0
83660 On ch=2 n=a5 v=0
83760 On ch=2 n=a5 v=88
83760 On ch=2 n=g5 v=62
83880 On ch=2 n=g5 v=0
83880 On ch=2 n=a5 v=0
84000 On ch=2 n=a5 v=94
84000 On ch=2 n=g5 v=65
84150 On ch=2 n=g5 v=0
84150 On ch=2 n=a5 v=0
84240 On ch=2 n=a5 v=97
84240 On ch=2 n=g5 v=68
84420 On ch=2 n=g5 v=0
84420 On ch=2 n=a5 v=0
84480 On ch=2 n=a5 v=80
84480 On ch=2 n=f#5 v=100
84960 On ch=2 n=f#5 v=0
84960 On ch=2 n=a5 v=0
84960 On ch=2 n=a5 v=90
84960 On ch=2 n=e5 v=70
85120 On ch=2 n=e5 v=0
85120 On ch=2 n=a5 v=0
85200 On ch=2 n=g#5 v=80
85340 On ch=2 n=g#5 v=0
85440 On ch=2 n=a5 v=85
85620 On ch=2 n=a5 v=0
85680 On ch=2 n=d5 v=75
85800 On ch=2 n=d5 v=0
85920 On ch=2 n=d5 v=77
86320 On ch=2 n=d5 v=0
86400 On ch=2 n=d5 v=85
86880 On ch=2 n=d5 v=0
86880 On ch=2 n=d5 v=78
87040 On ch=2 n=d5 v=0
87120 On ch=2 n=c#5 v=72
87260 On ch=2 n=c#5 v=0
87360 On ch=2 n=d5 v=65
87560 On ch=2 n=d5 v=0
88320 On ch=2 n=c#5 v=50
88560 On ch=2 n=e5 v=42
88580 On ch=2 n=c#5 v=0
88700 On ch=2 n=e5 v=0
88800 On ch=2 n=e5 v=45
88920 On ch=2 n=e5 v=0
89040 On ch=2 n=e5 v=40
89200 On ch=2 n=e5 v=0
89280 On ch=2 n=d5 v=48
89520 On ch=2 n=f#5 v=40
89540 On ch=2 n=d5 v=0
89660 On ch=2 n=f#5 v=0
89760 On ch=2 n=f#5 v=44
89880 On ch=2 n=f#5 v=0
90000 On ch=2 n=f#5 v=35
90160 On ch=2 n=f#5 v=0
90240 On ch=2 n=g5 v=38
90400 On ch=2 n=g5 v=0
90480 On ch=2 n=e5 v=43
90640 On ch=2 n=e5 v=0
90720 On ch=2 n=c#5 v=45
90880 On ch=2 n=c#5 v=0
90960 On ch=2 n=e5 v=40
91120 On ch=2 n=e5 v=0
91200 On ch=2 n=d5 v=42
91440 On ch=2 n=f#5 v=32
91460 On ch=2 n=d5 v=0
91680 On ch=2 n=d5 v=35
91700 On ch=2 n=f#5 v=0
92080 On ch=2 n=d5 v=0
92160 On ch=2 n=f#5 v=70
92400 On ch=2 n=a5 v=55
92420 On ch=2 n=f#5 v=0
92540 On ch=2 n=a5 v=0
92640 On ch=2 n=a5 v=58
92800 On ch=2 n=a5 v=0
92880 On ch=2 n=a5 v=50
93000 On ch=2 n=a5 v=0
93120 On ch=2 n=a5 v=53
93260 On ch=2 n=a5 v=0
93360 On ch=2 n=a5 v=56
93480 On ch=2 n=a5 v=0
93600 On ch=2 n=a5 v=62
93750 On ch=2 n=a5 v=0
93840 On ch=2 n=a5 v=58
94020 On ch=2 n=a5 v=0
94080 On ch=2 n=g5 v=70
94320 On ch=2 n=b5 v=65
94340 On ch=2 n=g5 v=0
94460 On ch=2 n=b5 v=0
94560 On ch=2 n=b5 v=72
94720 On ch=2 n=b5 v=0
94800 On ch=2 n=b5 v=70
94920 On ch=2 n=b5 v=0
95040 On ch=2 n=b5 v=78
95180 On ch=2 n=b5 v=0
95280 On ch=2 n=b5 v=75
95400 On ch=2 n=b5 v=0
95520 On ch=2 n=b5 v=80
95670 On ch=2 n=b5 v=0
95760 On ch=2 n=b5 v=84
95940 On ch=2 n=b5 v=0
96000 On ch=2 n=a5 v=90
96240 On ch=2 n=a5 v=0
96240 On ch=2 n=c#6 v=75
96380 On ch=2 n=c#6 v=0
96480 On ch=2 n=c#6 v=83
96640 On ch=2 n=c#6 v=0
96720 On ch=2 n=c#6 v=90
96840 On ch=2 n=c#6 v=0
96960 On ch=2 n=c#6 v=93
97100 On ch=2 n=c#6 v=0
97200 On ch=2 n=c#6 v=98
97320 On ch=2 n=c#6 v=0
97440 On ch=2 n=c#6 v=104
97590 On ch=2 n=c#6 v=0
97680 On ch=2 n=c#6 v=107
97860 On ch=2 n=c#6 v=0
97920 On ch=2 n=f#6 v=110
97920 On ch=2 n=a5 v=82
98400 On ch=2 n=a5 v=0
98400 On ch=2 n=f#6 v=0
98400 On ch=2 n=e6 v=100
98400 On ch=2 n=a5 v=75
98560 On ch=2 n=a5 v=0
98560 On ch=2 n=e6 v=0
98640 On ch=2 n=d6 v=90
98640 On ch=2 n=g#5 v=78
98780 On ch=2 n=g#5 v=0
98780 On ch=2 n=d6 v=0
98880 On ch=2 n=c#6 v=95
98880 On ch=2 n=a5 v=80
99060 On ch=2 n=a5 v=0
99060 On ch=2 n=c#6 v=0
99120 On ch=2 n=d6 v=85
99120 On ch=2 n=b5 v=68
99240 On ch=2 n=b5 v=0
99240 On ch=2 n=d6 v=0
99360 On ch=2 n=d6 v=87
99360 On ch=2 n=a5 v=70
99760 On ch=2 n=a5 v=0
99760 On ch=2 n=d6 v=0
99840 On ch=2 n=b5 v=95
100320 On ch=2 n=b5 v=0
100320 On ch=2 n=a5 v=88
100480 On ch=2 n=a5 v=0
100560 On ch=2 n=g5 v=82
100700 On ch=2 n=g5 v=0
100800 On ch=2 n=f#5 v=75
101000 On ch=2 n=f#5 v=0
101040 On ch=2 n=a5 v=55
101040 On ch=2 n=e5 v=68
101160 On ch=2 n=e5 v=0
101160 On ch=2 n=a5 v=0
101280 On ch=2 n=a5 v=50
101280 On ch=2 n=d5 v=70
101680 On ch=2 n=d5 v=0
101680 On ch=2 n=a5 v=0
101760 On ch=2 n=c#5 v=50
102000 On ch=2 n=e5 v=42
102020 On ch=2 n=c#5 v=0
102140 On ch=2 n=e5 v=0
102240 On ch=2 n=e5 v=45
102360 On ch=2 n=e5 v=0
102480 On ch=2 n=e5 v=40
102640 On ch=2 n=e5 v=0
102720 On ch=2 n=d5 v=48
102960 On ch=2 n=f#5 v=40
102980 On ch=2 n=d5 v=0
103100 On ch=2 n=f#5 v=0
103200 On ch=2 n=f#5 v=44
103320 On ch=2 n=f#5 v=0
103440 On ch=2 n=f#5 v=35
103600 On ch=2 n=f#5 v=0
103680 On ch=2 n=g5 v=38
103840 On ch=2 n=g5 v=0
103920 On ch=2 n=e5 v=43
104080 On ch=2 n=e5 v=0
104160 On ch=2 n=c#5 v=45
104320 On ch=2 n=c#5 v=0
104400 On ch=2 n=e5 v=40
104560 On ch=2 n=e5 v=0
104640 On ch=2 n=d5 v=42
104880 On ch=2 n=f#5 v=32
104900 On ch=2 n=d5 v=0
105120 On ch=2 n=d5 v=35
105140 On ch=2 n=f#5 v=0
105520 On ch=2 n=d5 v=0
105600 On ch=2 n=f#6 v=120
105600 On ch=2 n=a5 v=92
106080 On ch=2 n=a5 v=0
106080 On ch=2 n=f#6 v=0
106080 On ch=2 n=e6 v=110
106080 On ch=2 n=a5 v=85
106240 On ch=2 n=a5 v=0
106240 On ch=2 n=e6 v=0
106320 On ch=2 n=d6 v=100
106320 On ch=2 n=g#5 v=88
106460 On ch=2 n=g#5 v=0
106460 On ch=2 n=d6 v=0
106560 On ch=2 n=c#6 v=105
106560 On ch=2 n=a5 v=90
106740 On ch=2 n=a5 v=0
106740 On ch=2 n=c#6 v=0
106800 On ch=2 n=d6 v=95
106800 On ch=2 n=b5 v=78
106920 On ch=2 n=b5 v=0
106920 On ch=2 n=d6 v=0
107040 On ch=2 n=d6 v=97
107040 On ch=2 n=a5 v=80
107440 On ch=2 n=a5 v=0
107440 On ch=2 n=d6 v=0
107520 On ch=2 n=d6 v=80
107520 On ch=2 n=b5 v=105
108000 On ch=2 n=b5 v=0
108000 On ch=2 n=d6 v=0
108000 On ch=2 n=d6 v=73
108000 On ch=2 n=a5 v=98
108160 On ch=2 n=a5 v=0
108160 On ch=2 n=d6 v=0
108240 On ch=2 n=c#6 v=75
108240 On ch=2 n=g5 v=92
108380 On ch=2 n=g5 v=0
108380 On ch=2 n=c#6 v=0
108480 On ch=2 n=d6 v=70
108480 On ch=2 n=f#5 v=85
108680 On ch=2 n=f#5 v=0
108680 On ch=2 n=d6 v=0
108720 On ch=2 n=e6 v=65
108720 On ch=2 n=a5 v=78
108840 On ch=2 n=a5 v=0
108840 On ch=2 n=e6 v=0
108960 On ch=2 n=d6 v=60
108960 On ch=2 n=a5 v=80
109360 On ch=2 n=a5 v=0
109360 On ch=2 n=d6 v=0
109440 On ch=2 n=c#6 v=60
109680 On ch=2 n=e6 v=52
109700 On ch=2 n=c#6 v=0
109820 On ch=2 n=e6 v=0
109920 On ch=2 n=e6 v=55
110040 On ch=2 n=e6 v=0
110160 On ch=2 n=e6 v=50
110320 On ch=2 n=e6 v=0
110400 On ch=2 n=d6 v=58
110640 On ch=2 n=f#6 v=50
110660 On ch=2 n=d6 v=0
110780 On ch=2 n=f#6 v=0
110880 On ch=2 n=f#6 v=54
111000 On ch=2 n=f#6 v=0
111120 On ch=2 n=f#6 v=45
111280 On ch=2 n=f#6 v=0
111360 On ch=2 n=g6 v=48
111520 On ch=2 n=g6 v=0
111600 On ch=2 n=e6 v=53
111760 On ch=2 n=e6 v=0
111840 On ch=2 n=c#6 v=55
112000 On ch=2 n=c#6 v=0
112080 On ch=2 n=e6 v=50
112240 On ch=2 n=e6 v=0
112320 On ch=2 n=d6 v=52
112460 On ch=2 n=d6 v=0
112680 On ch=2 n=a5 v=40
112760 On ch=2 n=d6 v=32
112800 On ch=2 n=a6 v=45
113000 On ch=2 n=a6 v=0
113200 On ch=2 n=d6 v=0
113200 On ch=2 n=a5 v=0
113280 On ch=2 n=e6 v=72
113280 On ch=2 n=c#6 v=85
113280 On ch=2 n=a5 v=95
114000 On ch=2 n=a5 v=0
114000 On ch=2 n=c#6 v=0
114000 On ch=2 n=e6 v=0
114000 On ch=2 n=e6 v=65
114000 On ch=2 n=c#6 v=78
114000 On ch=2 n=a5 v=88
114440 On ch=2 n=a5 v=0
114440 On ch=2 n=c#6 v=0
114440 On ch=2 n=e6 v=0
114480 On ch=2 n=g#5 v=90
114600 On ch=2 n=a5 v=96
114620 On ch=2 n=g#5 v=0
114720 On ch=2 n=a#5 v=101
114740 On ch=2 n=a5 v=0
114840 On ch=2 n=a5 v=105
114860 On ch=2 n=a#5 v=0
114960 On ch=2 n=g#5 v=108
114980 On ch=2 n=a5 v=0
115080 On ch=2 n=a5 v=110
115100 On ch=2 n=g#5 v=0
115180 On ch=2 n=a5 v=0
115200 On ch=2 n=f6 v=115
115200 On ch=2 n=d6 v=90
115200 On ch=2 n=a5 v=65
115900 On ch=2 n=a5 v=0
115900 On ch=2 n=d6 v=0
115900 On ch=2 n=f6 v=0
115920 On ch=2 n=d6 v=95
116120 On ch=2 n=d6 v=0
116160 On ch=2 n=a5 v=100
116560 On ch=2 n=a5 v=0
116640 On ch=2 n=f5 v=92
117040 On ch=2 n=f5 v=0
117120 On ch=2 n=g5 v=85
117260 On ch=2 n=g5 v=0
117840 On ch=2 n=d6 v=55
117840 On ch=2 n=a#5 v=68
118280 On ch=2 n=a#5 v=0
118280 On ch=2 n=d6 v=0
118320 On ch=2 n=f#5 v=80
118440 On ch=2 n=g5 v=86
118460 On ch=2 n=f#5 v=0
118560 On ch=2 n=a5 v=91
118580 On ch=2 n=g5 v=0
118680 On ch=2 n=g5 v=95
118700 On ch=2 n=a5 v=0
118800 On ch=2 n=f#5 v=98
118820 On ch=2 n=g5 v=0
118920 On ch=2 n=g5 v=100
118940 On ch=2 n=f#5 v=0
119020 On ch=2 n=g5 v=0
119040 On ch=2 n=d6 v=55
119040 On ch=2 n=a#5 v=105
119040 On ch=2 n=g5 v=80
119740 On ch=2 n=g5 v=0
119740 On ch=2 n=a#5 v=0
119740 On ch=2 n=d6 v=0
119760 On ch=2 n=d6 v=50
119760 On ch=2 n=a#5 v=67
119760 On ch=2 n=g5 v=85
119960 On ch=2 n=g5 v=0
119960 On ch=2 n=a#5 v=0
119960 On ch=2 n=d6 v=0
120000 On ch=2 n=c#6 v=80
120000 On ch=2 n=g5 v=65
120400 On ch=2 n=g5 v=0
120400 On ch=2 n=c#6 v=0
120480 On ch=2 n=g5 v=60
120880 On ch=2 n=g5 v=0
120960 On ch=2 n=a#5 v=65
120960 On ch=2 n=f5 v=53
121440 On ch=2 n=f5 v=0
121560 On ch=2 n=a5 v=63
121580 On ch=2 n=a#5 v=0
121680 On ch=2 n=a#5 v=58
121700 On ch=2 n=a5 v=0
121800 On ch=2 n=c6 v=53
121820 On ch=2 n=a#5 v=0
121920 On ch=2 n=a#5 v=55
121940 On ch=2 n=c6 v=0
122400 On ch=2 n=g5 v=60
122420 On ch=2 n=a#5 v=0
122880 On ch=2 n=f5 v=50
122880 On ch=2 n=c5 v=38
122900 On ch=2 n=g5 v=0
123540 On ch=2 n=c5 v=0
123540 On ch=2 n=f5 v=0
123600 On ch=2 n=f5 v=58
123600 On ch=2 n=c5 v=45
124040 On ch=2 n=c5 v=0
124040 On ch=2 n=f5 v=0
124080 On ch=2 n=e5 v=55
124200 On ch=2 n=f5 v=62
124220 On ch=2 n=e5 v=0
124320 On ch=2 n=g5 v=65
124340 On ch=2 n=f5 v=0
124440 On ch=2 n=f5 v=58
124460 On ch=2 n=g5 v=0
124560 On ch=2 n=e5 v=60
124580 On ch=2 n=f5 v=0
124680 On ch=2 n=f5 v=50
124700 On ch=2 n=e5 v=0
124800 On ch=2 n=d5 v=30
124800 On ch=2 n=a#4 v=40
124820 On ch=2 n=f5 v=0
125700 On ch=2 n=a#4 v=0
125700 On ch=2 n=d5 v=0
125760 On ch=2 n=c#5 v=35
125760 On ch=2 n=a4 v=48
126240 On ch=2 n=g4 v=52
126260 On ch=2 n=a4 v=0
126640 On ch=2 n=g4 v=0
126640 On ch=2 n=c#5 v=0
126720 On ch=2 n=a4 v=38
126720 On ch=2 n=f4 v=50
127380 On ch=2 n=f4 v=0
127380 On ch=2 n=a4 v=0
127440 On ch=2 n=a4 v=60
127440 On ch=2 n=f4 v=48
127680 On ch=2 n=a#4 v=62
127680 On ch=2 n=g4 v=50
127700 On ch=2 n=f4 v=0
127700 On ch=2 n=a4 v=0
128160 On ch=2 n=a4 v=55
128160 On ch=2 n=f4 v=40
128180 On ch=2 n=g4 v=0
128180 On ch=2 n=a#4 v=0
128560 On ch=2 n=f4 v=0
128560 On ch=2 n=a4 v=0
128640 On ch=2 n=e6 v=72
128640 On ch=2 n=c#6 v=85
128640 On ch=2 n=a5 v=95
129360 On ch=2 n=a5 v=0
129360 On ch=2 n=c#6 v=0
129360 On ch=2 n=e6 v=0
129360 On ch=2 n=e6 v=65
129360 On ch=2 n=c#6 v=78
129360 On ch=2 n=a5 v=88
129800 On ch=2 n=a5 v=0
129800 On ch=2 n=c#6 v=0
129800 On ch=2 n=e6 v=0
129840 On ch=2 n=g#5 v=90
129960 On ch=2 n=a5 v=96
129980 On ch=2 n=g#5 v=0
130080 On ch=2 n=a#5 v=101
130100 On ch=2 n=a5 v=0
130200 On ch=2 n=a5 v=105
130220 On ch=2 n=a#5 v=0
130320 On ch=2 n=g#5 v=108
130340 On ch=2 n=a5 v=0
130440 On ch=2 n=a5 v=110
130460 On ch=2 n=g#5 v=0
130540 On ch=2 n=a5 v=0
130560 On ch=2 n=f6 v=115
130560 On ch=2 n=d6 v=90
130560 On ch=2 n=a5 v=65
131260 On ch=2 n=a5 v=0
131260 On ch=2 n=d6 v=0
131260 On ch=2 n=f6 v=0
131280 On ch=2 n=d6 v=95
131480 On ch=2 n=d6 v=0
131520 On ch=2 n=a5 v=100
131920 On ch=2 n=a5 v=0
132000 On ch=2 n=f5 v=92
132400 On ch=2 n=f5 v=0
132480 On ch=2 n=g5 v=85
132620 On ch=2 n=g5 v=0
133200 On ch=2 n=d6 v=55
133200 On ch=2 n=a#5 v=68
133640 On ch=2 n=a#5 v=0
133640 On ch=2 n=d6 v=0
133680 On ch=2 n=f#5 v=80
133800 On ch=2 n=g5 v=86
133820 On ch=2 n=f#5 v=0
133920 On ch=2 n=a5 v=91
133940 On ch=2 n=g5 v=0
134040 On ch=2 n=g5 v=95
134060 On ch=2 n=a5 v=0
134160 On ch=2 n=f#5 v=98
134180 On ch=2 n=g5 v=0
134280 On ch=2 n=g5 v=100
134300 On ch=2 n=f#5 v=0
134380 On ch=2 n=g5 v=0
134400 On ch=2 n=d6 v=55
134400 On ch=2 n=a#5 v=105
134400 On ch=2 n=g5 v=80
135100 On ch=2 n=g5 v=0
135100 On ch=2 n=a#5 v=0
135100 On ch=2 n=d6 v=0
135120 On ch=2 n=d6 v=50
135120 On ch=2 n=a#5 v=67
135120 On ch=2 n=g5 v=85
135320 On ch=2 n=g5 v=0
135320 On ch=2 n=a#5 v=0
135320 On ch=2 n=d6 v=0
135360 On ch=2 n=c#6 v=80
135360 On ch=2 n=g5 v=65
135760 On ch=2 n=g5 v=0
135760 On ch=2 n=c#6 v=0
135840 On ch=2 n=g5 v=60
136240 On ch=2 n=g5 v=0
136320 On ch=2 n=a#5 v=65
136320 On ch=2 n=f5 v=53
136800 On ch=2 n=f5 v=0
136920 On ch=2 n=a5 v=63
136940 On ch=2 n=a#5 v=0
137040 On ch=2 n=a#5 v=58
137060 On ch=2 n=a5 v=0
137160 On ch=2 n=c6 v=53
137180 On ch=2 n=a#5 v=0
137280 On ch=2 n=a#5 v=55
137300 On ch=2 n=c6 v=0
137760 On ch=2 n=g5 v=60
137780 On ch=2 n=a#5 v=0
138240 On ch=2 n=f5 v=50
138240 On ch=2 n=c5 v=38
138260 On ch=2 n=g5 v=0
138900 On ch=2 n=c5 v=0
138900 On ch=2 n=f5 v=0
138960 On ch=2 n=f5 v=58
138960 On ch=2 n=c5 v=45
139400 On ch=2 n=c5 v=0
139400 On ch=2 n=f5 v=0
139440 On ch=2 n=e5 v=55
139560 On ch=2 n=f5 v=62
139580 On ch=2 n=e5 v=0
139680 On ch=2 n=g5 v=65
139700 On ch=2 n=f5 v=0
139800 On ch=2 n=f5 v=58
139820 On ch=2 n=g5 v=0
139920 On ch=2 n=e5 v=60
139940 On ch=2 n=f5 v=0
140040 On ch=2 n=f5 v=50
140060 On ch=2 n=e5 v=0
140160 On ch=2 n=d5 v=30
140160 On ch=2 n=a#4 v=40
140180 On ch=2 n=f5 v=0
141060 On ch=2 n=a#4 v=0
141060 On ch=2 n=d5 v=0
141120 On ch=2 n=c#5 v=35
141120 On ch=2 n=a4 v=48
141600 On ch=2 n=g4 v=52
141620 On ch=2 n=a4 v=0
142000 On ch=2 n=g4 v=0
142000 On ch=2 n=c#5 v=0
142080 On ch=2 n=a4 v=38
142080 On ch=2 n=f4 v=50
142740 On ch=2 n=f4 v=0
142740 On ch=2 n=a4 v=0
142800 On ch=2 n=a4 v=60
142800 On ch=2 n=f4 v=48
143040 On ch=2 n=a#4 v=62
143040 On ch=2 n=g4 v=50
143060 On ch=2 n=f4 v=0
143060 On ch=2 n=a4 v=0
143520 On ch=2 n=a4 v=55
143520 On ch=2 n=f4 v=40
143540 On ch=2 n=g4 v=0
143540 On ch=2 n=a#4 v=0
143920 On ch=2 n=f4 v=0
143920 On ch=2 n=a4 v=0
144000 On ch=2 n=d6 v=105
144000 On ch=2 n=b5 v=65
144000 On ch=2 n=f5 v=90
144720 On ch=2 n=f5 v=0
144720 On ch=2 n=b5 v=0
144720 On ch=2 n=d6 v=0
144720 On ch=2 n=d6 v=93
144720 On ch=2 n=b5 v=60
144720 On ch=2 n=f5 v=85
144920 On ch=2 n=f5 v=0
144920 On ch=2 n=b5 v=0
144920 On ch=2 n=d6 v=0
145200 On ch=2 n=d6 v=95
145200 On ch=2 n=a5 v=65
145200 On ch=2 n=f5 v=90
145680 On ch=2 n=f5 v=0
145680 On ch=2 n=a5 v=0
145680 On ch=2 n=d6 v=0
145680 On ch=2 n=e6 v=88
145680 On ch=2 n=g#5 v=70
145880 On ch=2 n=g#5 v=0
145880 On ch=2 n=e6 v=0
145920 On ch=2 n=c6 v=90
145920 On ch=2 n=a5 v=72
145920 On ch=2 n=e5 v=50
146640 On ch=2 n=e5 v=0
146640 On ch=2 n=a5 v=0
146640 On ch=2 n=c6 v=0
146640 On ch=2 n=b5 v=92
146840 On ch=2 n=b5 v=0
146880 On ch=2 n=a5 v=80
147360 On ch=2 n=a5 v=0
147360 On ch=2 n=e5 v=70
147760 On ch=2 n=e5 v=0
147840 On ch=2 n=d6 v=110
147840 On ch=2 n=b5 v=70
147840 On ch=2 n=f5 v=95
148560 On ch=2 n=f5 v=0
148560 On ch=2 n=b5 v=0
148560 On ch=2 n=d6 v=0
148560 On ch=2 n=d6 v=98
148560 On ch=2 n=b5 v=65
148560 On ch=2 n=f5 v=90
148760 On ch=2 n=f5 v=0
148760 On ch=2 n=b5 v=0
148760 On ch=2 n=d6 v=0
149040 On ch=2 n=d6 v=100
149040 On ch=2 n=a5 v=70
149040 On ch=2 n=f5 v=95
149520 On ch=2 n=f5 v=0
149520 On ch=2 n=a5 v=0
149520 On ch=2 n=d6 v=0
149520 On ch=2 n=e6 v=93
149520 On ch=2 n=g#5 v=75
149720 On ch=2 n=g#5 v=0
149720 On ch=2 n=e6 v=0
150000 On ch=2 n=e6 v=60
150000 On ch=2 n=c6 v=85
150480 On ch=2 n=c6 v=0
150480 On ch=2 n=e6 v=0
150480 On ch=2 n=e6 v=48
150480 On ch=2 n=b5 v=77
150840 On ch=2 n=b5 v=0
150840 On ch=2 n=e6 v=0
150960 On ch=2 n=c6 v=40
150960 On ch=2 n=a5 v=65
151440 On ch=2 n=e5 v=50
151460 On ch=2 n=a5 v=0
151460 On ch=2 n=c6 v=0
151600 On ch=2 n=e5 v=0
151680 On ch=2 n=a5 v=42
151680 On ch=2 n=f5 v=55
152400 On ch=2 n=f5 v=0
152400 On ch=2 n=a5 v=0
152400 On ch=2 n=a5 v=50
152400 On ch=2 n=f5 v=60
152600 On ch=2 n=f5 v=0
152600 On ch=2 n=a5 v=0
152640 On ch=2 n=b5 v=40
152640 On ch=2 n=g#5 v=58
152640 On ch=2 n=f5 v=62
153120 On ch=2 n=f5 v=0
153120 On ch=2 n=g#5 v=0
153120 On ch=2 n=b5 v=0
153120 On ch=2 n=b5 v=32
153120 On ch=2 n=g#5 v=50
153120 On ch=2 n=f5 v=55
153520 On ch=2 n=f5 v=0
153520 On ch=2 n=g#5 v=0
153520 On ch=2 n=b5 v=0
153840 On ch=2 n=c#6 v=50
153840 On ch=2 n=a5 v=35
153840 On ch=2 n=e5 v=58
154320 On ch=2 n=e5 v=0
154320 On ch=2 n=a5 v=0
154320 On ch=2 n=c#6 v=0
154320 On ch=2 n=c#6 v=48
154320 On ch=2 n=a5 v=38
154320 On ch=2 n=e5 v=64
154520 On ch=2 n=e5 v=0
154520 On ch=2 n=a5 v=0
154520 On ch=2 n=c#6 v=0
154560 On ch=2 n=c#6 v=45
154560 On ch=2 n=a5 v=60
155040 On ch=2 n=e5 v=50
155060 On ch=2 n=a5 v=0
155060 On ch=2 n=c#6 v=0
155200 On ch=2 n=e5 v=0
155520 On ch=2 n=c6 v=35
155520 On ch=2 n=a5 v=55
155520 On ch=2 n=f5 v=60
156240 On ch=2 n=f5 v=0
156240 On ch=2 n=a5 v=0
156240 On ch=2 n=c6 v=0
156240 On ch=2 n=c6 v=38
156240 On ch=2 n=a5 v=65
156240 On ch=2 n=f5 v=50
156440 On ch=2 n=f5 v=0
156440 On ch=2 n=a5 v=0
156440 On ch=2 n=c6 v=0
156720 On ch=2 n=b5 v=60
156720 On ch=2 n=g#5 v=48
156720 On ch=2 n=f5 v=40
157200 On ch=2 n=f5 v=0
157200 On ch=2 n=g#5 v=0
157200 On ch=2 n=b5 v=0
157200 On ch=2 n=b5 v=55
157200 On ch=2 n=g#5 v=43
157200 On ch=2 n=f5 v=35
157400 On ch=2 n=f5 v=0
157400 On ch=2 n=g#5 v=0
157400 On ch=2 n=b5 v=0
157440 On ch=2 n=e5 v=58
158160 On ch=2 n=a5 v=50
158180 On ch=2 n=e5 v=0
158360 On ch=2 n=a5 v=0
158400 On ch=2 n=e5 v=45
159280 On ch=2 n=e5 v=0
159360 On ch=2 n=d6 v=105
159360 On ch=2 n=b5 v=65
159360 On ch=2 n=f5 v=90
160080 On ch=2 n=f5 v=0
160080 On ch=2 n=b5 v=0
160080 On ch=2 n=d6 v=0
160080 On ch=2 n=d6 v=93
160080 On ch=2 n=b5 v=60
160080 On ch=2 n=f5 v=85
160280 On ch=2 n=f5 v=0
160280 On ch=2 n=b5 v=0
160280 On ch=2 n=d6 v=0
160560 On ch=2 n=d6 v=95
160560 On ch=2 n=a5 v=65
160560 On ch=2 n=f5 v=90
161040 On ch=2 n=f5 v=0
161040 On ch=2 n=a5 v=0
161040 On ch=2 n=d6 v=0
161040 On ch=2 n=e6 v=88
161040 On ch=2 n=g#5 v=70
161240 On ch=2 n=g#5 v=0
161240 On ch=2 n=e6 v=0
161280 On ch=2 n=c6 v=90
161280 On ch=2 n=a5 v=72
161280 On ch=2 n=e5 v=50
162000 On ch=2 n=e5 v=0
162000 On ch=2 n=a5 v=0
162000 On ch=2 n=c6 v=0
162000 On ch=2 n=b5 v=92
162200 On ch=2 n=b5 v=0
162240 On ch=2 n=a5 v=80
162720 On ch=2 n=a5 v=0
162720 On ch=2 n=e5 v=70
163120 On ch=2 n=e5 v=0
163200 On ch=2 n=d6 v=110
163200 On ch=2 n=b5 v=70
163200 On ch=2 n=f5 v=95
163920 On ch=2 n=f5 v=0
163920 On ch=2 n=b5 v=0
163920 On ch=2 n=d6 v=0
163920 On ch=2 n=d6 v=98
163920 On ch=2 n=b5 v=65
163920 On ch=2 n=f5 v=90
164120 On ch=2 n=f5 v=0
164120 On ch=2 n=b5 v=0
164120 On ch=2 n=d6 v=0
164400 On ch=2 n=d6 v=100
164400 On ch=2 n=a5 v=70
164400 On ch=2 n=f5 v=95
164880 On ch=2 n=f5 v=0
164880 On ch=2 n=a5 v=0
164880 On ch=2 n=d6 v=0
164880 On ch=2 n=e6 v=93
164880 On ch=2 n=g#5 v=75
165080 On ch=2 n=g#5 v=0
165080 On ch=2 n=e6 v=0
165360 On ch=2 n=e6 v=60
165360 On ch=2 n=c6 v=85
165840 On ch=2 n=c6 v=0
165840 On ch=2 n=e6 v=0
165840 On ch=2 n=e6 v=48
165840 On ch=2 n=b5 v=77
166200 On ch=2 n=b5 v=0
166200 On ch=2 n=e6 v=0
166320 On ch=2 n=c6 v=40
166320 On ch=2 n=a5 v=65
166800 On ch=2 n=e5 v=50
166820 On ch=2 n=a5 v=0
166820 On ch=2 n=c6 v=0
166960 On ch=2 n=e5 v=0
167040 On ch=2 n=a5 v=42
167040 On ch=2 n=f5 v=55
167760 On ch=2 n=f5 v=0
167760 On ch=2 n=a5 v=0
167760 On ch=2 n=a5 v=50
167760 On ch=2 n=f5 v=60
167960 On ch=2 n=f5 v=0
167960 On ch=2 n=a5 v=0
168000 On ch=2 n=b5 v=40
168000 On ch=2 n=g#5 v=58
168000 On ch=2 n=f5 v=62
168480 On ch=2 n=f5 v=0
168480 On ch=2 n=g#5 v=0
168480 On ch=2 n=b5 v=0
168480 On ch=2 n=b5 v=32
168480 On ch=2 n=g#5 v=50
168480 On ch=2 n=f5 v=55
168880 On ch=2 n=f5 v=0
168880 On ch=2 n=g#5 v=0
168880 On ch=2 n=b5 v=0
169200 On ch=2 n=c#6 v=50
169200 On ch=2 n=a5 v=35
169200 On ch=2 n=e5 v=58
169680 On ch=2 n=e5 v=0
169680 On ch=2 n=a5 v=0
169680 On ch=2 n=c#6 v=0
169680 On ch=2 n=c#6 v=48
169680 On ch=2 n=a5 v=38
169680 On ch=2 n=e5 v=64
169880 On ch=2 n=e5 v=0
169880 On ch=2 n=a5 v=0
169880 On ch=2 n=c#6 v=0
169920 On ch=2 n=c#6 v=45
169920 On ch=2 n=a5 v=60
170400 On ch=2 n=e5 v=50
170420 On ch=2 n=a5 v=0
170420 On ch=2 n=c#6 v=0
170560 On ch=2 n=e5 v=0
170880 On ch=2 n=c6 v=35
170880 On ch=2 n=a5 v=55
170880 On ch=2 n=f5 v=60
171600 On ch=2 n=f5 v=0
171600 On ch=2 n=a5 v=0
171600 On ch=2 n=c6 v=0
171600 On ch=2 n=c6 v=38
171600 On ch=2 n=a5 v=65
171600 On ch=2 n=f5 v=50
171800 On ch=2 n=f5 v=0
171800 On ch=2 n=a5 v=0
171800 On ch=2 n=c6 v=0
172080 On ch=2 n=b5 v=60
172080 On ch=2 n=g#5 v=48
172080 On ch=2 n=f5 v=40
172560 On ch=2 n=f5 v=0
172560 On ch=2 n=g#5 v=0
172560 On ch=2 n=b5 v=0
172560 On ch=2 n=b5 v=55
172560 On ch=2 n=g#5 v=43
172560 On ch=2 n=f5 v=35
172760 On ch=2 n=f5 v=0
172760 On ch=2 n=g#5 v=0
172760 On ch=2 n=b5 v=0
172800 On ch=2 n=e5 v=58
173520 On ch=2 n=a5 v=50
173540 On ch=2 n=e5 v=0
173720 On ch=2 n=a5 v=0
173760 On ch=2 n=e5 v=45
174640 On ch=2 n=e5 v=0
174720 On ch=2 n=e6 v=72
174720 On ch=2 n=c#6 v=85
174720 On ch=2 n=a5 v=95
175440 On ch=2 n=a5 v=0
175440 On ch=2 n=c#6 v=0
175440 On ch=2 n=e6 v=0
175440 On ch=2 n=e6 v=65
175440 On ch=2 n=c#6 v=78
175440 On ch=2 n=a5 v=88
175880 On ch=2 n=a5 v=0
175880 On ch=2 n=c#6 v=0
175880 On ch=2 n=e6 v=0
175920 On ch=2 n=g#5 v=90
176040 On ch=2 n=a5 v=96
176060 On ch=2 n=g#5 v=0
176160 On ch=2 n=a#5 v=101
176180 On ch=2 n=a5 v=0
176280 On ch=2 n=a5 v=105
176300 On ch=2 n=a#5 v=0
176400 On ch=2 n=g#5 v=108
176420 On ch=2 n=a5 v=0
176520 On ch=2 n=a5 v=110
176540 On ch=2 n=g#5 v=0
176620 On ch=2 n=a5 v=0
176640 On ch=2 n=f6 v=115
176640 On ch=2 n=d6 v=90
176640 On ch=2 n=a5 v=65
177340 On ch=2 n=a5 v=0
177340 On ch=2 n=d6 v=0
177340 On ch=2 n=f6 v=0
177360 On ch=2 n=d6 v=95
177560 On ch=2 n=d6 v=0
177600 On ch=2 n=a5 v=100
178000 On ch=2 n=a5 v=0
178080 On ch=2 n=f5 v=106
178480 On ch=2 n=f5 v=0
178560 On ch=2 n=d6 v=88
178560 On ch=2 n=g5 v=110
178700 On ch=2 n=g5 v=0
178700 On ch=2 n=d6 v=0
179280 On ch=2 n=d6 v=65
179280 On ch=2 n=a#5 v=78
179720 On ch=2 n=a#5 v=0
179720 On ch=2 n=d6 v=0
179760 On ch=2 n=f#5 v=90
179880 On ch=2 n=g5 v=96
179900 On ch=2 n=f#5 v=0
180000 On ch=2 n=a5 v=101
180020 On ch=2 n=g5 v=0
180120 On ch=2 n=g5 v=105
180140 On ch=2 n=a5 v=0
180240 On ch=2 n=f#5 v=108
180260 On ch=2 n=g5 v=0
180360 On ch=2 n=g5 v=110
180380 On ch=2 n=f#5 v=0
180460 On ch=2 n=g5 v=0
180480 On ch=2 n=d6 v=55
180480 On ch=2 n=a#5 v=105
180480 On ch=2 n=g5 v=80
181180 On ch=2 n=g5 v=0
181180 On ch=2 n=a#5 v=0
181180 On ch=2 n=d6 v=0
181200 On ch=2 n=d6 v=50
181200 On ch=2 n=a#5 v=67
181200 On ch=2 n=g5 v=85
181400 On ch=2 n=g5 v=0
181400 On ch=2 n=a#5 v=0
181400 On ch=2 n=d6 v=0
181440 On ch=2 n=c#6 v=80
181440 On ch=2 n=g5 v=65
181840 On ch=2 n=g5 v=0
181840 On ch=2 n=c#6 v=0
181920 On ch=2 n=g5 v=60
182320 On ch=2 n=g5 v=0
182400 On ch=2 n=a#5 v=65
182400 On ch=2 n=f5 v=53
182880 On ch=2 n=f5 v=0
183000 On ch=2 n=a5 v=63
183020 On ch=2 n=a#5 v=0
183120 On ch=2 n=a#5 v=58
183140 On ch=2 n=a5 v=0
183240 On ch=2 n=c6 v=53
183260 On ch=2 n=a#5 v=0
183360 On ch=2 n=a#5 v=55
183380 On ch=2 n=c6 v=0
183840 On ch=2 n=g5 v=60
183860 On ch=2 n=a#5 v=0
184320 On ch=2 n=f5 v=50
184320 On ch=2 n=c5 v=38
184340 On ch=2 n=g5 v=0
184980 On ch=2 n=c5 v=0
184980 On ch=2 n=f5 v=0
185040 On ch=2 n=f5 v=58
185480 On ch=2 n=f5 v=0
185520 On ch=2 n=e5 v=55
185640 On ch=2 n=f5 v=62
185660 On ch=2 n=e5 v=0
185760 On ch=2 n=g5 v=65
185780 On ch=2 n=f5 v=0
185880 On ch=2 n=f5 v=58
185900 On ch=2 n=g5 v=0
186000 On ch=2 n=e5 v=60
186020 On ch=2 n=f5 v=0
186120 On ch=2 n=f5 v=50
186140 On ch=2 n=e5 v=0
186240 On ch=2 n=d5 v=30
186240 On ch=2 n=a#4 v=40
186260 On ch=2 n=f5 v=0
187140 On ch=2 n=a#4 v=0
187140 On ch=2 n=d5 v=0
187200 On ch=2 n=d5 v=35
187200 On ch=2 n=g4 v=48
188100 On ch=2 n=g4 v=0
188100 On ch=2 n=d5 v=0
188160 On ch=2 n=d5 v=42
188160 On ch=2 n=b4 v=52
189060 On ch=2 n=b4 v=0
189060 On ch=2 n=d5 v=0
189120 On ch=2 n=d5 v=46
189120 On ch=2 n=g#4 v=56
190020 On ch=2 n=g#4 v=0
190020 On ch=2 n=d5 v=0
190080 On ch=2 n=c#6 v=98
190080 On ch=2 n=a5 v=60
190680 On ch=2 n=c#6 v=0
190680 On ch=2 n=c#6 v=70
190680 On ch=2 n=g5 v=95
190700 On ch=2 n=a5 v=0
190800 On ch=2 n=c#6 v=0
190800 On ch=2 n=c#6 v=63
190800 On ch=2 n=a5 v=85
190820 On ch=2 n=g5 v=0
190920 On ch=2 n=c#6 v=0
190920 On ch=2 n=c#6 v=55
190920 On ch=2 n=a#5 v=80
190940 On ch=2 n=a5 v=0
191040 On ch=2 n=c#6 v=0
191040 On ch=2 n=c#6 v=61
191040 On ch=2 n=a5 v=86
191060 On ch=2 n=a#5 v=0
191520 On ch=2 n=c#6 v=0
191520 On ch=2 n=c#6 v=48
191520 On ch=2 n=g5 v=70
191540 On ch=2 n=a5 v=0
192000 On ch=2 n=d6 v=115
192020 On ch=2 n=g5 v=0
192020 On ch=2 n=c#6 v=0
192720 On ch=2 n=d6 v=0
192720 On ch=2 n=c#6 v=90
192840 On ch=2 n=d6 v=83
192860 On ch=2 n=c#6 v=0
192960 On ch=2 n=e6 v=85
192980 On ch=2 n=d6 v=0
193080 On ch=2 n=d6 v=88
193100 On ch=2 n=e6 v=0
193200 On ch=2 n=c#6 v=91
193220 On ch=2 n=d6 v=0
193320 On ch=2 n=d6 v=94
193340 On ch=2 n=c#6 v=0
193440 On ch=2 n=e6 v=97
193460 On ch=2 n=d6 v=0
193560 On ch=2 n=d6 v=100
193580 On ch=2 n=e6 v=0
193680 On ch=2 n=c#6 v=103
193700 On ch=2 n=d6 v=0
193800 On ch=2 n=d6 v=106
193820 On ch=2 n=c#6 v=0
193860 On ch=2 n=a5 v=88
193900 On ch=2 n=d6 v=0
193900 On ch=2 n=d6 v=95
193940 On ch=2 n=f6 v=112
193970 On ch=2 n=a6 v=120
194120 On ch=2 n=a5 v=0
194140 On ch=2 n=a6 v=0
194140 On ch=2 n=f6 v=0
194150 On ch=2 n=d6 v=0
194150 Meta TrkEnd
TrkEnd
MTrk
0 SeqSpec 43 00 01 00
0 Meta TrkName "Piano 2(R.H.)                       "
1000 Par ch=4 c=32 v=1
1060 Par ch=4 c=0 v=0
1120 PrCh ch=4 p=0
1180 Par ch=4 c=10 v=60
1240 Par ch=4 c=91 v=80
1300 Par ch=4 c=7 v=120
1360 Par ch=4 c=11 v=120
1920 On ch=4 n=c#5 v=95
1920 On ch=4 n=a4 v=72
1920 On ch=4 n=e4 v=60
2040 On ch=4 n=e4 v=0
2040 On ch=4 n=a4 v=0
2040 On ch=4 n=c#5 v=0
2280 On ch=4 n=g5 v=70
2380 On ch=4 n=g5 v=0
2520 On ch=4 n=e5 v=75
2620 On ch=4 n=e5 v=0
2760 On ch=4 n=c#5 v=78
2860 On ch=4 n=c#5 v=0
3000 On ch=4 n=a4 v=80
3100 On ch=4 n=a4 v=0
3240 On ch=4 n=g4 v=75
3340 On ch=4 n=g4 v=0
3480 On ch=4 n=e4 v=85
3580 On ch=4 n=e4 v=0
3720 On ch=4 n=c#4 v=92
3820 On ch=4 n=c#4 v=0
4080 On ch=4 n=f5 v=105
4080 On ch=4 n=d5 v=90
4080 On ch=4 n=a4 v=75
4080 On ch=4 n=f4 v=95
4560 On ch=4 n=f4 v=0
4560 On ch=4 n=a4 v=0
4560 On ch=4 n=d5 v=0
4560 On ch=4 n=f5 v=0
4560 On ch=4 n=f5 v=93
4560 On ch=4 n=d5 v=70
4560 On ch=4 n=a4 v=55
4560 On ch=4 n=f4 v=85
4720 On ch=4 n=f4 v=0
4720 On ch=4 n=a4 v=0
4720 On ch=4 n=d5 v=0
4720 On ch=4 n=f5 v=0
5040 On ch=4 n=d5 v=90
5040 On ch=4 n=a4 v=60
5040 On ch=4 n=f4 v=82
5520 On ch=4 n=f4 v=0
5520 On ch=4 n=a4 v=0
5520 On ch=4 n=d5 v=0
5520 On ch=4 n=d5 v=80
5520 On ch=4 n=a4 v=45
5520 On ch=4 n=f4 v=68
5680 On ch=4 n=f4 v=0
5680 On ch=4 n=a4 v=0
5680 On ch=4 n=d5 v=0
5760 On ch=4 n=d5 v=80
5760 On ch=4 n=a#4 v=57
5760 On ch=4 n=g4 v=45
5880 On ch=4 n=g4 v=0
5880 On ch=4 n=a#4 v=0
5880 On ch=4 n=d5 v=0
6120 On ch=4 n=a#5 v=55
6220 On ch=4 n=a#5 v=0
6360 On ch=4 n=g5 v=60
6460 On ch=4 n=g5 v=0
6600 On ch=4 n=d5 v=63
6700 On ch=4 n=d5 v=0
6840 On ch=4 n=a#4 v=65
6940 On ch=4 n=a#4 v=0
7080 On ch=4 n=g4 v=60
7180 On ch=4 n=g4 v=0
7320 On ch=4 n=d4 v=70
7420 On ch=4 n=d4 v=0
7560 On ch=4 n=a#3 v=77
7660 On ch=4 n=a#3 v=0
7920 On ch=4 n=d5 v=90
7920 On ch=4 n=a#4 v=75
7920 On ch=4 n=g4 v=60
7920 On ch=4 n=e4 v=80
8400 On ch=4 n=e4 v=0
8400 On ch=4 n=g4 v=0
8400 On ch=4 n=a#4 v=0
8400 On ch=4 n=d5 v=0
8400 On ch=4 n=d5 v=78
8400 On ch=4 n=a#4 v=55
8400 On ch=4 n=g4 v=40
8400 On ch=4 n=e4 v=70
8560 On ch=4 n=e4 v=0
8560 On ch=4 n=g4 v=0
8560 On ch=4 n=a#4 v=0
8560 On ch=4 n=d5 v=0
8880 On ch=4 n=c#5 v=75
8880 On ch=4 n=g4 v=45
8880 On ch=4 n=e4 v=67
9360 On ch=4 n=e4 v=0
9360 On ch=4 n=g4 v=0
9360 On ch=4 n=c#5 v=0
9360 On ch=4 n=c#5 v=65
9360 On ch=4 n=g4 v=40
9360 On ch=4 n=e4 v=53
9520 On ch=4 n=e4 v=0
9520 On ch=4 n=g4 v=0
9520 On ch=4 n=c#5 v=0
9840 On ch=4 n=d5 v=52
9840 On ch=4 n=f4 v=22
9840 On ch=4 n=d4 v=44
10320 On ch=4 n=d4 v=0
10320 On ch=4 n=f4 v=0
10320 On ch=4 n=d5 v=0
10320 On ch=4 n=f4 v=45
10320 On ch=4 n=d4 v=30
10480 On ch=4 n=d4 v=0
10480 On ch=4 n=f4 v=0
10800 On ch=4 n=d5 v=52
10800 On ch=4 n=a#4 v=45
10800 On ch=4 n=g4 v=22
10800 On ch=4 n=d4 v=33
11280 On ch=4 n=d4 v=0
11280 On ch=4 n=g4 v=0
11280 On ch=4 n=a#4 v=0
11280 On ch=4 n=d5 v=0
11280 On ch=4 n=a#4 v=57
11280 On ch=4 n=g4 v=40
11280 On ch=4 n=d4 v=45
11440 On ch=4 n=d4 v=0
11440 On ch=4 n=g4 v=0
11440 On ch=4 n=a#4 v=0
11760 On ch=4 n=a4 v=62
11760 On ch=4 n=f4 v=32
11760 On ch=4 n=c4 v=54
12240 On ch=4 n=c4 v=0
12240 On ch=4 n=f4 v=0
12240 On ch=4 n=a4 v=0
12240 On ch=4 n=f4 v=47
12240 On ch=4 n=c4 v=35
12400 On ch=4 n=c4 v=0
12400 On ch=4 n=f4 v=0
12720 On ch=4 n=a4 v=52
12720 On ch=4 n=f4 v=30
12720 On ch=4 n=c4 v=44
13200 On ch=4 n=c4 v=0
13200 On ch=4 n=f4 v=0
13200 On ch=4 n=a4 v=0
13200 On ch=4 n=c4 v=45
13360 On ch=4 n=c4 v=0
13680 On ch=4 n=g4 v=49
13680 On ch=4 n=d4 v=25
13680 On ch=4 n=a#3 v=41
14080 On ch=4 n=a#3 v=0
14080 On ch=4 n=d4 v=0
14080 On ch=4 n=g4 v=0
14160 On ch=4 n=g4 v=39
14160 On ch=4 n=d4 v=20
14160 On ch=4 n=a#3 v=27
14320 On ch=4 n=a#3 v=0
14320 On ch=4 n=d4 v=0
14320 On ch=4 n=g4 v=0
14640 On ch=4 n=c#4 v=52
14640 On ch=4 n=a3 v=44
15120 On ch=4 n=a3 v=0
15120 On ch=4 n=c#4 v=0
15120 On ch=4 n=c#4 v=42
15120 On ch=4 n=a3 v=30
15280 On ch=4 n=a3 v=0
15280 On ch=4 n=c#4 v=0
15600 On ch=4 n=d4 v=52
15600 On ch=4 n=a3 v=44
16080 On ch=4 n=a3 v=0
16080 On ch=4 n=d4 v=0
16080 On ch=4 n=d4 v=50
16080 On ch=4 n=a3 v=45
16320 On ch=4 n=g3 v=52
16340 On ch=4 n=a3 v=0
16800 On ch=4 n=a3 v=40
16820 On ch=4 n=g3 v=0
17200 On ch=4 n=a3 v=0
17200 On ch=4 n=d4 v=0
17280 On ch=4 n=c#5 v=95
17280 On ch=4 n=a4 v=72
17280 On ch=4 n=e4 v=60
17400 On ch=4 n=e4 v=0
17400 On ch=4 n=a4 v=0
17400 On ch=4 n=c#5 v=0
17640 On ch=4 n=g5 v=70
17740 On ch=4 n=g5 v=0
17880 On ch=4 n=e5 v=75
17980 On ch=4 n=e5 v=0
18120 On ch=4 n=c#5 v=78
18220 On ch=4 n=c#5 v=0
18360 On ch=4 n=a4 v=80
18460 On ch=4 n=a4 v=0
18600 On ch=4 n=g4 v=75
18700 On ch=4 n=g4 v=0
18840 On ch=4 n=e4 v=85
18940 On ch=4 n=e4 v=0
19080 On ch=4 n=c#4 v=92
19180 On ch=4 n=c#4 v=0
19440 On ch=4 n=f5 v=105
19440 On ch=4 n=d5 v=90
19440 On ch=4 n=a4 v=75
19440 On ch=4 n=f4 v=95
19920 On ch=4 n=f4 v=0
19920 On ch=4 n=a4 v=0
19920 On ch=4 n=d5 v=0
19920 On ch=4 n=f5 v=0
19920 On ch=4 n=f5 v=93
19920 On ch=4 n=d5 v=70
19920 On ch=4 n=a4 v=55
19920 On ch=4 n=f4 v=85
20080 On ch=4 n=f4 v=0
20080 On ch=4 n=a4 v=0
20080 On ch=4 n=d5 v=0
20080 On ch=4 n=f5 v=0
20400 On ch=4 n=d5 v=90
20400 On ch=4 n=a4 v=60
20400 On ch=4 n=f4 v=82
20880 On ch=4 n=f4 v=0
20880 On ch=4 n=a4 v=0
20880 On ch=4 n=d5 v=0
20880 On ch=4 n=d5 v=80
20880 On ch=4 n=a4 v=45
20880 On ch=4 n=f4 v=68
21040 On ch=4 n=f4 v=0
21040 On ch=4 n=a4 v=0
21040 On ch=4 n=d5 v=0
21120 On ch=4 n=d5 v=80
21120 On ch=4 n=a#4 v=57
21120 On ch=4 n=g4 v=45
21240 On ch=4 n=g4 v=0
21240 On ch=4 n=a#4 v=0
21240 On ch=4 n=d5 v=0
21480 On ch=4 n=a#5 v=55
21580 On ch=4 n=a#5 v=0
21720 On ch=4 n=g5 v=60
21820 On ch=4 n=g5 v=0
21960 On ch=4 n=d5 v=63
22060 On ch=4 n=d5 v=0
22200 On ch=4 n=a#4 v=65
22300 On ch=4 n=a#4 v=0
22440 On ch=4 n=g4 v=60
22540 On ch=4 n=g4 v=0
22680 On ch=4 n=d4 v=70
22780 On ch=4 n=d4 v=0
22920 On ch=4 n=a#3 v=77
23020 On ch=4 n=a#3 v=0
23280 On ch=4 n=d5 v=90
23280 On ch=4 n=a#4 v=75
23280 On ch=4 n=g4 v=60
23280 On ch=4 n=e4 v=80
23760 On ch=4 n=e4 v=0
23760 On ch=4 n=g4 v=0
23760 On ch=4 n=a#4 v=0
23760 On ch=4 n=d5 v=0
23760 On ch=4 n=d5 v=78
23760 On ch=4 n=a#4 v=55
23760 On ch=4 n=g4 v=40
23760 On ch=4 n=e4 v=70
23920 On ch=4 n=e4 v=0
23920 On ch=4 n=g4 v=0
23920 On ch=4 n=a#4 v=0
23920 On ch=4 n=d5 v=0
24240 On ch=4 n=c#5 v=75
24240 On ch=4 n=g4 v=45
24240 On ch=4 n=e4 v=67
24720 On ch=4 n=e4 v=0
24720 On ch=4 n=g4 v=0
24720 On ch=4 n=c#5 v=0
24720 On ch=4 n=c#5 v=65
24720 On ch=4 n=g4 v=40
24720 On ch=4 n=e4 v=53
24880 On ch=4 n=e4 v=0
24880 On ch=4 n=g4 v=0
24880 On ch=4 n=c#5 v=0
25200 On ch=4 n=d5 v=52
25200 On ch=4 n=f4 v=22
25200 On ch=4 n=d4 v=44
25680 On ch=4 n=d4 v=0
25680 On ch=4 n=f4 v=0
25680 On ch=4 n=d5 v=0
25680 On ch=4 n=f4 v=45
25680 On ch=4 n=d4 v=30
25840 On ch=4 n=d4 v=0
25840 On ch=4 n=f4 v=0
26160 On ch=4 n=d5 v=52
26160 On ch=4 n=a#4 v=45
26160 On ch=4 n=g4 v=22
26160 On ch=4 n=d4 v=33
26640 On ch=4 n=d4 v=0
26640 On ch=4 n=g4 v=0
26640 On ch=4 n=a#4 v=0
26640 On ch=4 n=d5 v=0
26640 On ch=4 n=a#4 v=57
26640 On ch=4 n=g4 v=40
26640 On ch=4 n=d4 v=45
26800 On ch=4 n=d4 v=0
26800 On ch=4 n=g4 v=0
26800 On ch=4 n=a#4 v=0
27120 On ch=4 n=a4 v=62
27120 On ch=4 n=f4 v=32
27120 On ch=4 n=c4 v=54
27600 On ch=4 n=c4 v=0
27600 On ch=4 n=f4 v=0
27600 On ch=4 n=a4 v=0
27600 On ch=4 n=f4 v=47
27600 On ch=4 n=c4 v=35
27760 On ch=4 n=c4 v=0
27760 On ch=4 n=f4 v=0
28080 On ch=4 n=a4 v=52
28080 On ch=4 n=f4 v=30
28080 On ch=4 n=c4 v=44
28560 On ch=4 n=c4 v=0
28560 On ch=4 n=f4 v=0
28560 On ch=4 n=a4 v=0
28560 On ch=4 n=c4 v=45
28720 On ch=4 n=c4 v=0
29040 On ch=4 n=g4 v=49
29040 On ch=4 n=d4 v=25
29040 On ch=4 n=a#3 v=41
29440 On ch=4 n=a#3 v=0
29440 On ch=4 n=d4 v=0
29440 On ch=4 n=g4 v=0
29520 On ch=4 n=g4 v=39
29520 On ch=4 n=d4 v=20
29520 On ch=4 n=a#3 v=27
29680 On ch=4 n=a#3 v=0
29680 On ch=4 n=d4 v=0
29680 On ch=4 n=g4 v=0
30000 On ch=4 n=c#4 v=52
30000 On ch=4 n=a3 v=44
30480 On ch=4 n=a3 v=0
30480 On ch=4 n=c#4 v=0
30480 On ch=4 n=c#4 v=42
30480 On ch=4 n=a3 v=30
30640 On ch=4 n=a3 v=0
30640 On ch=4 n=c#4 v=0
30960 On ch=4 n=d4 v=52
30960 On ch=4 n=a3 v=44
31440 On ch=4 n=a3 v=0
31440 On ch=4 n=d4 v=0
31440 On ch=4 n=d4 v=50
31440 On ch=4 n=a3 v=45
31680 On ch=4 n=g3 v=52
31700 On ch=4 n=a3 v=0
32160 On ch=4 n=a3 v=40
32180 On ch=4 n=g3 v=0
32560 On ch=4 n=a3 v=0
32560 On ch=4 n=d4 v=0
32880 On ch=4 n=d5 v=100
32880 On ch=4 n=b4 v=92
32880 On ch=4 n=f4 v=70
33360 On ch=4 n=f4 v=0
33360 On ch=4 n=b4 v=0
33360 On ch=4 n=d5 v=0
33360 On ch=4 n=d5 v=80
33360 On ch=4 n=b4 v=72
33360 On ch=4 n=f4 v=60
33560 On ch=4 n=f4 v=0
33560 On ch=4 n=b4 v=0
33560 On ch=4 n=d5 v=0
33840 On ch=4 n=d5 v=85
33840 On ch=4 n=a4 v=70
33840 On ch=4 n=f4 v=55
34320 On ch=4 n=f4 v=0
34320 On ch=4 n=a4 v=0
34320 On ch=4 n=d5 v=0
34320 On ch=4 n=b4 v=78
34320 On ch=4 n=g#4 v=65
34320 On ch=4 n=e4 v=50
34520 On ch=4 n=e4 v=0
34520 On ch=4 n=g#4 v=0
34520 On ch=4 n=b4 v=0
34800 On ch=4 n=c5 v=80
34800 On ch=4 n=a4 v=72
34800 On ch=4 n=e4 v=55
35000 On ch=4 n=e4 v=0
35000 On ch=4 n=a4 v=0
35000 On ch=4 n=c5 v=0
35280 On ch=4 n=c5 v=74
35280 On ch=4 n=a4 v=66
35280 On ch=4 n=e4 v=49
35440 On ch=4 n=e4 v=0
35440 On ch=4 n=a4 v=0
35440 On ch=4 n=c5 v=0
35760 On ch=4 n=c5 v=70
35760 On ch=4 n=a4 v=62
35760 On ch=4 n=e4 v=45
35940 On ch=4 n=e4 v=0
35940 On ch=4 n=a4 v=0
35940 On ch=4 n=c5 v=0
36240 On ch=4 n=c5 v=65
36240 On ch=4 n=a4 v=57
36240 On ch=4 n=e4 v=40
36440 On ch=4 n=e4 v=0
36440 On ch=4 n=a4 v=0
36440 On ch=4 n=c5 v=0
36720 On ch=4 n=d5 v=105
36720 On ch=4 n=b4 v=97
36720 On ch=4 n=f4 v=75
37200 On ch=4 n=f4 v=0
37200 On ch=4 n=b4 v=0
37200 On ch=4 n=d5 v=0
37200 On ch=4 n=d5 v=85
37200 On ch=4 n=b4 v=77
37200 On ch=4 n=f4 v=65
37400 On ch=4 n=f4 v=0
37400 On ch=4 n=b4 v=0
37400 On ch=4 n=d5 v=0
37680 On ch=4 n=d5 v=90
37680 On ch=4 n=a4 v=75
37680 On ch=4 n=f4 v=60
38160 On ch=4 n=f4 v=0
38160 On ch=4 n=a4 v=0
38160 On ch=4 n=d5 v=0
38160 On ch=4 n=b4 v=83
38160 On ch=4 n=g#4 v=70
38160 On ch=4 n=e4 v=55
38360 On ch=4 n=e4 v=0
38360 On ch=4 n=g#4 v=0
38360 On ch=4 n=b4 v=0
38640 On ch=4 n=e5 v=80
38640 On ch=4 n=c5 v=72
38640 On ch=4 n=a4 v=50
38640 On ch=4 n=e4 v=55
38840 On ch=4 n=e4 v=0
38840 On ch=4 n=a4 v=0
38840 On ch=4 n=c5 v=0
38840 On ch=4 n=e5 v=0
39120 On ch=4 n=e5 v=64
39120 On ch=4 n=c5 v=56
39120 On ch=4 n=a4 v=35
39120 On ch=4 n=e4 v=39
39280 On ch=4 n=e4 v=0
39280 On ch=4 n=a4 v=0
39280 On ch=4 n=c5 v=0
39280 On ch=4 n=e5 v=0
39600 On ch=4 n=c5 v=50
39600 On ch=4 n=a4 v=42
39600 On ch=4 n=e4 v=25
39780 On ch=4 n=e4 v=0
39780 On ch=4 n=a4 v=0
39780 On ch=4 n=c5 v=0
40080 On ch=4 n=c5 v=42
40080 On ch=4 n=a4 v=34
40280 On ch=4 n=a4 v=0
40280 On ch=4 n=c5 v=0
40560 On ch=4 n=c5 v=49
40560 On ch=4 n=a4 v=25
40560 On ch=4 n=f4 v=41
40960 On ch=4 n=f4 v=0
40960 On ch=4 n=a4 v=0
40960 On ch=4 n=c5 v=0
41040 On ch=4 n=c5 v=54
41040 On ch=4 n=a4 v=35
41040 On ch=4 n=f4 v=42
41200 On ch=4 n=f4 v=0
41200 On ch=4 n=a4 v=0
41200 On ch=4 n=c5 v=0
41520 On ch=4 n=b4 v=51
41520 On ch=4 n=g#4 v=27
41520 On ch=4 n=f4 v=43
41920 On ch=4 n=f4 v=0
41920 On ch=4 n=g#4 v=0
41920 On ch=4 n=b4 v=0
42000 On ch=4 n=b4 v=44
42000 On ch=4 n=g#4 v=25
42000 On ch=4 n=d4 v=32
42160 On ch=4 n=d4 v=0
42160 On ch=4 n=g#4 v=0
42160 On ch=4 n=b4 v=0
42480 On ch=4 n=a4 v=51
42480 On ch=4 n=e4 v=30
42480 On ch=4 n=c#4 v=35
42720 On ch=4 n=a3 v=55
42740 On ch=4 n=c#4 v=0
42740 On ch=4 n=e4 v=0
42740 On ch=4 n=a4 v=0
43120 On ch=4 n=a3 v=0
43440 On ch=4 n=a4 v=59
43440 On ch=4 n=e4 v=35
43440 On ch=4 n=c#4 v=43
43680 On ch=4 n=a3 v=50
43700 On ch=4 n=c#4 v=0
43700 On ch=4 n=e4 v=0
43700 On ch=4 n=a4 v=0
44080 On ch=4 n=a3 v=0
44400 On ch=4 n=c5 v=49
44400 On ch=4 n=a4 v=25
44400 On ch=4 n=f4 v=41
44800 On ch=4 n=f4 v=0
44800 On ch=4 n=a4 v=0
44800 On ch=4 n=c5 v=0
44880 On ch=4 n=c5 v=54
44880 On ch=4 n=a4 v=35
44880 On ch=4 n=f4 v=42
45040 On ch=4 n=f4 v=0
45040 On ch=4 n=a4 v=0
45040 On ch=4 n=c5 v=0
45360 On ch=4 n=b4 v=51
45360 On ch=4 n=g#4 v=27
45360 On ch=4 n=f4 v=43
45760 On ch=4 n=f4 v=0
45760 On ch=4 n=g#4 v=0
45760 On ch=4 n=b4 v=0
45840 On ch=4 n=b4 v=44
45840 On ch=4 n=g#4 v=25
45840 On ch=4 n=d4 v=32
46000 On ch=4 n=d4 v=0
46000 On ch=4 n=g#4 v=0
46000 On ch=4 n=b4 v=0
46320 On ch=4 n=e4 v=51
46320 On ch=4 n=c#4 v=35
46560 On ch=4 n=c#5 v=45
46560 On ch=4 n=a4 v=30
46580 On ch=4 n=c#4 v=0
46580 On ch=4 n=e4 v=0
46960 On ch=4 n=a4 v=0
46960 On ch=4 n=c#5 v=0
47280 On ch=4 n=e4 v=44
47280 On ch=4 n=c#4 v=28
47520 On ch=4 n=c#5 v=35
47520 On ch=4 n=a4 v=20
47540 On ch=4 n=c#4 v=0
47540 On ch=4 n=e4 v=0
47920 On ch=4 n=a4 v=0
47920 On ch=4 n=c#5 v=0
48240 On ch=4 n=d5 v=100
48240 On ch=4 n=b4 v=92
48240 On ch=4 n=f4 v=70
48720 On ch=4 n=f4 v=0
48720 On ch=4 n=b4 v=0
48720 On ch=4 n=d5 v=0
48720 On ch=4 n=d5 v=80
48720 On ch=4 n=b4 v=72
48720 On ch=4 n=f4 v=60
48920 On ch=4 n=f4 v=0
48920 On ch=4 n=b4 v=0
48920 On ch=4 n=d5 v=0
49200 On ch=4 n=d5 v=85
49200 On ch=4 n=a4 v=70
49200 On ch=4 n=f4 v=55
49680 On ch=4 n=f4 v=0
49680 On ch=4 n=a4 v=0
49680 On ch=4 n=d5 v=0
49680 On ch=4 n=b4 v=78
49680 On ch=4 n=g#4 v=65
49680 On ch=4 n=e4 v=50
49880 On ch=4 n=e4 v=0
49880 On ch=4 n=g#4 v=0
49880 On ch=4 n=b4 v=0
50160 On ch=4 n=c5 v=80
50160 On ch=4 n=a4 v=72
50160 On ch=4 n=e4 v=55
50360 On ch=4 n=e4 v=0
50360 On ch=4 n=a4 v=0
50360 On ch=4 n=c5 v=0
50640 On ch=4 n=c5 v=74
50640 On ch=4 n=a4 v=66
50640 On ch=4 n=e4 v=49
50800 On ch=4 n=e4 v=0
50800 On ch=4 n=a4 v=0
50800 On ch=4 n=c5 v=0
51120 On ch=4 n=c5 v=70
51120 On ch=4 n=a4 v=62
51120 On ch=4 n=e4 v=45
51300 On ch=4 n=e4 v=0
51300 On ch=4 n=a4 v=0
51300 On ch=4 n=c5 v=0
51600 On ch=4 n=c5 v=65
51600 On ch=4 n=a4 v=57
51600 On ch=4 n=e4 v=40
51800 On ch=4 n=e4 v=0
51800 On ch=4 n=a4 v=0
51800 On ch=4 n=c5 v=0
52080 On ch=4 n=d5 v=105
52080 On ch=4 n=b4 v=97
52080 On ch=4 n=f4 v=75
52560 On ch=4 n=f4 v=0
52560 On ch=4 n=b4 v=0
52560 On ch=4 n=d5 v=0
52560 On ch=4 n=d5 v=85
52560 On ch=4 n=b4 v=77
52560 On ch=4 n=f4 v=65
52760 On ch=4 n=f4 v=0
52760 On ch=4 n=b4 v=0
52760 On ch=4 n=d5 v=0
53040 On ch=4 n=d5 v=90
53040 On ch=4 n=a4 v=75
53040 On ch=4 n=f4 v=60
53520 On ch=4 n=f4 v=0
53520 On ch=4 n=a4 v=0
53520 On ch=4 n=d5 v=0
53520 On ch=4 n=b4 v=83
53520 On ch=4 n=g#4 v=70
53520 On ch=4 n=e4 v=55
53720 On ch=4 n=e4 v=0
53720 On ch=4 n=g#4 v=0
53720 On ch=4 n=b4 v=0
54000 On ch=4 n=e5 v=80
54000 On ch=4 n=c5 v=72
54000 On ch=4 n=a4 v=50
54000 On ch=4 n=e4 v=55
54200 On ch=4 n=e4 v=0
54200 On ch=4 n=a4 v=0
54200 On ch=4 n=c5 v=0
54200 On ch=4 n=e5 v=0
54480 On ch=4 n=e5 v=64
54480 On ch=4 n=c5 v=56
54480 On ch=4 n=a4 v=35
54480 On ch=4 n=e4 v=39
54640 On ch=4 n=e4 v=0
54640 On ch=4 n=a4 v=0
54640 On ch=4 n=c5 v=0
54640 On ch=4 n=e5 v=0
54960 On ch=4 n=c5 v=50
54960 On ch=4 n=a4 v=42
54960 On ch=4 n=e4 v=25
55140 On ch=4 n=e4 v=0
55140 On ch=4 n=a4 v=0
55140 On ch=4 n=c5 v=0
55440 On ch=4 n=c5 v=42
55440 On ch=4 n=a4 v=34
55640 On ch=4 n=a4 v=0
55640 On ch=4 n=c5 v=0
55920 On ch=4 n=c5 v=49
55920 On ch=4 n=a4 v=25
55920 On ch=4 n=f4 v=41
56320 On ch=4 n=f4 v=0
56320 On ch=4 n=a4 v=0
56320 On ch=4 n=c5 v=0
56400 On ch=4 n=c5 v=54
56400 On ch=4 n=a4 v=35
56400 On ch=4 n=f4 v=42
56560 On ch=4 n=f4 v=0
56560 On ch=4 n=a4 v=0
56560 On ch=4 n=c5 v=0
56880 On ch=4 n=b4 v=51
56880 On ch=4 n=g#4 v=27
56880 On ch=4 n=f4 v=43
57280 On ch=4 n=f4 v=0
57280 On ch=4 n=g#4 v=0
57280 On ch=4 n=b4 v=0
57360 On ch=4 n=b4 v=44
57360 On ch=4 n=g#4 v=25
57360 On ch=4 n=d4 v=32
57520 On ch=4 n=d4 v=0
57520 On ch=4 n=g#4 v=0
57520 On ch=4 n=b4 v=0
57840 On ch=4 n=a4 v=51
57840 On ch=4 n=e4 v=30
57840 On ch=4 n=c#4 v=35
58080 On ch=4 n=a3 v=55
58100 On ch=4 n=c#4 v=0
58100 On ch=4 n=e4 v=0
58100 On ch=4 n=a4 v=0
58480 On ch=4 n=a3 v=0
58800 On ch=4 n=a4 v=59
58800 On ch=4 n=e4 v=35
58800 On ch=4 n=c#4 v=43
59040 On ch=4 n=a3 v=50
59060 On ch=4 n=c#4 v=0
59060 On ch=4 n=e4 v=0
59060 On ch=4 n=a4 v=0
59440 On ch=4 n=a3 v=0
59760 On ch=4 n=c5 v=49
59760 On ch=4 n=a4 v=25
59760 On ch=4 n=f4 v=41
60160 On ch=4 n=f4 v=0
60160 On ch=4 n=a4 v=0
60160 On ch=4 n=c5 v=0
60240 On ch=4 n=c5 v=54
60240 On ch=4 n=a4 v=35
60240 On ch=4 n=f4 v=42
60400 On ch=4 n=f4 v=0
60400 On ch=4 n=a4 v=0
60400 On ch=4 n=c5 v=0
60720 On ch=4 n=b4 v=51
60720 On ch=4 n=g#4 v=27
60720 On ch=4 n=f4 v=43
61120 On ch=4 n=f4 v=0
61120 On ch=4 n=g#4 v=0
61120 On ch=4 n=b4 v=0
61200 On ch=4 n=b4 v=44
61200 On ch=4 n=g#4 v=25
61200 On ch=4 n=d4 v=32
61360 On ch=4 n=d4 v=0
61360 On ch=4 n=g#4 v=0
61360 On ch=4 n=b4 v=0
61680 On ch=4 n=e4 v=51
61680 On ch=4 n=c#4 v=35
61920 On ch=4 n=c#5 v=45
61920 On ch=4 n=a4 v=30
61940 On ch=4 n=c#4 v=0
61940 On ch=4 n=e4 v=0
62320 On ch=4 n=a4 v=0
62320 On ch=4 n=c#5 v=0
62640 On ch=4 n=e4 v=44
62640 On ch=4 n=c#4 v=28
62880 On ch=4 n=c#5 v=35
62880 On ch=4 n=a4 v=20
62900 On ch=4 n=c#4 v=0
62900 On ch=4 n=e4 v=0
63280 On ch=4 n=a4 v=0
63280 On ch=4 n=c#5 v=0
63360 On ch=4 n=c#5 v=95
63360 On ch=4 n=a4 v=72
63360 On ch=4 n=e4 v=60
63480 On ch=4 n=e4 v=0
63480 On ch=4 n=a4 v=0
63480 On ch=4 n=c#5 v=0
63720 On ch=4 n=g5 v=70
63820 On ch=4 n=g5 v=0
63960 On ch=4 n=e5 v=75
64060 On ch=4 n=e5 v=0
64200 On ch=4 n=c#5 v=78
64300 On ch=4 n=c#5 v=0
64440 On ch=4 n=a4 v=80
64540 On ch=4 n=a4 v=0
64680 On ch=4 n=g4 v=75
64780 On ch=4 n=g4 v=0
64920 On ch=4 n=e4 v=85
65020 On ch=4 n=e4 v=0
65160 On ch=4 n=c#4 v=92
65260 On ch=4 n=c#4 v=0
65520 On ch=4 n=f5 v=105
65520 On ch=4 n=d5 v=90
65520 On ch=4 n=a4 v=75
65520 On ch=4 n=f4 v=95
66000 On ch=4 n=f4 v=0
66000 On ch=4 n=a4 v=0
66000 On ch=4 n=d5 v=0
66000 On ch=4 n=f5 v=0
66000 On ch=4 n=f5 v=100
66000 On ch=4 n=d5 v=80
66000 On ch=4 n=a4 v=65
66000 On ch=4 n=f4 v=95
66160 On ch=4 n=f4 v=0
66160 On ch=4 n=a4 v=0
66160 On ch=4 n=d5 v=0
66160 On ch=4 n=f5 v=0
66480 On ch=4 n=d5 v=100
66480 On ch=4 n=a4 v=70
66480 On ch=4 n=f4 v=92
66960 On ch=4 n=f4 v=0
66960 On ch=4 n=a4 v=0
66960 On ch=4 n=d5 v=0
66960 On ch=4 n=d5 v=90
66960 On ch=4 n=a4 v=55
66960 On ch=4 n=f4 v=78
67120 On ch=4 n=f4 v=0
67120 On ch=4 n=a4 v=0
67120 On ch=4 n=d5 v=0
67200 On ch=4 n=d5 v=90
67200 On ch=4 n=a#4 v=67
67200 On ch=4 n=g4 v=55
67320 On ch=4 n=g4 v=0
67320 On ch=4 n=a#4 v=0
67320 On ch=4 n=d5 v=0
67560 On ch=4 n=a#5 v=65
67660 On ch=4 n=a#5 v=0
67800 On ch=4 n=g5 v=70
67900 On ch=4 n=g5 v=0
68040 On ch=4 n=d5 v=73
68140 On ch=4 n=d5 v=0
68280 On ch=4 n=a#4 v=75
68380 On ch=4 n=a#4 v=0
68520 On ch=4 n=g4 v=70
68620 On ch=4 n=g4 v=0
68760 On ch=4 n=d4 v=80
68860 On ch=4 n=d4 v=0
69000 On ch=4 n=a#3 v=87
69100 On ch=4 n=a#3 v=0
69360 On ch=4 n=d5 v=100
69360 On ch=4 n=a#4 v=85
69360 On ch=4 n=g4 v=70
69360 On ch=4 n=e4 v=90
69840 On ch=4 n=e4 v=0
69840 On ch=4 n=g4 v=0
69840 On ch=4 n=a#4 v=0
69840 On ch=4 n=d5 v=0
69840 On ch=4 n=d5 v=88
69840 On ch=4 n=a#4 v=65
69840 On ch=4 n=g4 v=50
69840 On ch=4 n=e4 v=80
70000 On ch=4 n=e4 v=0
70000 On ch=4 n=g4 v=0
70000 On ch=4 n=a#4 v=0
70000 On ch=4 n=d5 v=0
70320 On ch=4 n=c#5 v=75
70320 On ch=4 n=g4 v=45
70320 On ch=4 n=e4 v=67
70800 On ch=4 n=e4 v=0
70800 On ch=4 n=g4 v=0
70800 On ch=4 n=c#5 v=0
70800 On ch=4 n=c#5 v=65
70800 On ch=4 n=g4 v=40
70800 On ch=4 n=e4 v=53
70960 On ch=4 n=e4 v=0
70960 On ch=4 n=g4 v=0
70960 On ch=4 n=c#5 v=0
71280 On ch=4 n=d5 v=52
71280 On ch=4 n=f4 v=22
71280 On ch=4 n=d4 v=44
71760 On ch=4 n=d4 v=0
71760 On ch=4 n=f4 v=0
71760 On ch=4 n=d5 v=0
71760 On ch=4 n=f4 v=45
71760 On ch=4 n=d4 v=30
71920 On ch=4 n=d4 v=0
71920 On ch=4 n=f4 v=0
72240 On ch=4 n=d5 v=52
72240 On ch=4 n=a#4 v=45
72240 On ch=4 n=g4 v=22
72240 On ch=4 n=d4 v=33
72720 On ch=4 n=d4 v=0
72720 On ch=4 n=g4 v=0
72720 On ch=4 n=a#4 v=0
72720 On ch=4 n=d5 v=0
72720 On ch=4 n=a#4 v=57
72720 On ch=4 n=g4 v=40
72720 On ch=4 n=d4 v=45
72880 On ch=4 n=d4 v=0
72880 On ch=4 n=g4 v=0
72880 On ch=4 n=a#4 v=0
73200 On ch=4 n=a4 v=62
73200 On ch=4 n=f4 v=32
73200 On ch=4 n=c4 v=54
73680 On ch=4 n=c4 v=0
73680 On ch=4 n=f4 v=0
73680 On ch=4 n=a4 v=0
73680 On ch=4 n=f4 v=47
73680 On ch=4 n=c4 v=35
73840 On ch=4 n=c4 v=0
73840 On ch=4 n=f4 v=0
74160 On ch=4 n=a4 v=52
74160 On ch=4 n=f4 v=30
74160 On ch=4 n=c4 v=44
74640 On ch=4 n=c4 v=0
74640 On ch=4 n=f4 v=0
74640 On ch=4 n=a4 v=0
74640 On ch=4 n=c4 v=45
74800 On ch=4 n=c4 v=0
75120 On ch=4 n=g4 v=49
75120 On ch=4 n=d4 v=25
75120 On ch=4 n=a#3 v=41
75520 On ch=4 n=a#3 v=0
75520 On ch=4 n=d4 v=0
75520 On ch=4 n=g4 v=0
75600 On ch=4 n=g4 v=39
75600 On ch=4 n=d4 v=20
75600 On ch=4 n=a#3 v=27
75760 On ch=4 n=a#3 v=0
75760 On ch=4 n=d4 v=0
75760 On ch=4 n=g4 v=0
76080 On ch=4 n=c#4 v=52
76080 On ch=4 n=a3 v=44
76560 On ch=4 n=a3 v=0
76560 On ch=4 n=c#4 v=0
76560 On ch=4 n=c#4 v=42
76560 On ch=4 n=a3 v=30
76720 On ch=4 n=a3 v=0
76720 On ch=4 n=c#4 v=0
77040 On ch=4 n=d4 v=52
77040 On ch=4 n=a3 v=44
77520 On ch=4 n=a3 v=0
77520 On ch=4 n=d4 v=0
77520 On ch=4 n=d4 v=50
77520 On ch=4 n=a3 v=45
77760 On ch=4 n=g3 v=52
77780 On ch=4 n=a3 v=0
78240 On ch=4 n=a3 v=40
78260 On ch=4 n=g3 v=0
78640 On ch=4 n=a3 v=0
78640 On ch=4 n=d4 v=0
78720 On ch=4 n=d4 v=48
78960 On ch=4 n=a4 v=28
78960 On ch=4 n=f#4 v=40
78980 On ch=4 n=d4 v=0
79120 On ch=4 n=f#4 v=0
79120 On ch=4 n=a4 v=0
79440 On ch=4 n=d5 v=35
79440 On ch=4 n=a4 v=28
79580 On ch=4 n=a4 v=0
79580 On ch=4 n=d5 v=0
79920 On ch=4 n=a4 v=42
79920 On ch=4 n=f#4 v=30
80040 On ch=4 n=f#4 v=0
80040 On ch=4 n=a4 v=0
80400 On ch=4 n=f#4 v=45
80400 On ch=4 n=d4 v=35
80550 On ch=4 n=d4 v=0
80550 On ch=4 n=f#4 v=0
80640 On ch=4 n=d4 v=48
80880 On ch=4 n=b4 v=40
80880 On ch=4 n=g4 v=30
80900 On ch=4 n=d4 v=0
81040 On ch=4 n=g4 v=0
81040 On ch=4 n=b4 v=0
81360 On ch=4 n=d5 v=45
81360 On ch=4 n=b4 v=33
81500 On ch=4 n=b4 v=0
81500 On ch=4 n=d5 v=0
81840 On ch=4 n=b4 v=55
81840 On ch=4 n=g4 v=40
81960 On ch=4 n=g4 v=0
81960 On ch=4 n=b4 v=0
82320 On ch=4 n=g4 v=61
82320 On ch=4 n=d4 v=45
82470 On ch=4 n=d4 v=0
82470 On ch=4 n=g4 v=0
82560 On ch=4 n=e4 v=65
82800 On ch=4 n=c#5 v=57
82800 On ch=4 n=g4 v=45
82820 On ch=4 n=e4 v=0
82960 On ch=4 n=g4 v=0
82960 On ch=4 n=c#5 v=0
83280 On ch=4 n=e5 v=62
83280 On ch=4 n=c#5 v=48
83420 On ch=4 n=c#5 v=0
83420 On ch=4 n=e5 v=0
83760 On ch=4 n=c#5 v=72
83760 On ch=4 n=g4 v=55
83880 On ch=4 n=g4 v=0
83880 On ch=4 n=c#5 v=0
84240 On ch=4 n=e5 v=78
84240 On ch=4 n=c#5 v=58
84390 On ch=4 n=c#5 v=0
84390 On ch=4 n=e5 v=0
84480 On ch=4 n=d5 v=80
84480 On ch=4 n=a4 v=55
84480 On ch=4 n=f#4 v=68
84960 On ch=4 n=f#4 v=0
84960 On ch=4 n=a4 v=0
84960 On ch=4 n=d5 v=0
84960 On ch=4 n=a4 v=85
84960 On ch=4 n=e4 v=60
85120 On ch=4 n=e4 v=0
85120 On ch=4 n=a4 v=0
85200 On ch=4 n=d5 v=90
85200 On ch=4 n=g#4 v=72
85380 On ch=4 n=g#4 v=0
85380 On ch=4 n=d5 v=0
85440 On ch=4 n=c#5 v=93
85440 On ch=4 n=a4 v=65
85640 On ch=4 n=a4 v=0
85640 On ch=4 n=c#5 v=0
85680 On ch=4 n=b4 v=95
85680 On ch=4 n=d4 v=58
85840 On ch=4 n=d4 v=0
85840 On ch=4 n=b4 v=0
85920 On ch=4 n=a4 v=85
85920 On ch=4 n=d4 v=60
86320 On ch=4 n=d4 v=0
86320 On ch=4 n=a4 v=0
86400 On ch=4 n=b4 v=90
86400 On ch=4 n=g4 v=78
86400 On ch=4 n=d4 v=50
86880 On ch=4 n=d4 v=0
86880 On ch=4 n=g4 v=0
86880 On ch=4 n=b4 v=0
86880 On ch=4 n=a4 v=80
86880 On ch=4 n=f#4 v=72
86880 On ch=4 n=d4 v=55
87040 On ch=4 n=d4 v=0
87040 On ch=4 n=f#4 v=0
87040 On ch=4 n=a4 v=0
87120 On ch=4 n=g4 v=72
87120 On ch=4 n=e4 v=48
87120 On ch=4 n=c#4 v=55
87300 On ch=4 n=c#4 v=0
87300 On ch=4 n=e4 v=0
87300 On ch=4 n=g4 v=0
87360 On ch=4 n=f#4 v=74
87360 On ch=4 n=d4 v=58
87560 On ch=4 n=d4 v=0
87560 On ch=4 n=f#4 v=0
87600 On ch=4 n=a4 v=64
87600 On ch=4 n=c#4 v=48
87760 On ch=4 n=c#4 v=0
87760 On ch=4 n=a4 v=0
87840 On ch=4 n=a4 v=58
87840 On ch=4 n=b3 v=45
88240 On ch=4 n=b3 v=0
88240 On ch=4 n=a4 v=0
88320 On ch=4 n=a3 v=50
88560 On ch=4 n=a4 v=42
88560 On ch=4 n=g4 v=35
88580 On ch=4 n=a3 v=0
88700 On ch=4 n=g4 v=0
88700 On ch=4 n=a4 v=0
89040 On ch=4 n=a4 v=45
89040 On ch=4 n=e4 v=30
89200 On ch=4 n=e4 v=0
89200 On ch=4 n=a4 v=0
89280 On ch=4 n=a3 v=48
89520 On ch=4 n=a4 v=28
89520 On ch=4 n=f#4 v=40
89540 On ch=4 n=a3 v=0
89660 On ch=4 n=f#4 v=0
89660 On ch=4 n=a4 v=0
90000 On ch=4 n=a4 v=45
90000 On ch=4 n=d4 v=25
90160 On ch=4 n=d4 v=0
90160 On ch=4 n=a4 v=0
90480 On ch=4 n=c#4 v=38
90640 On ch=4 n=c#4 v=0
90720 On ch=4 n=e4 v=43
90900 On ch=4 n=e4 v=0
90960 On ch=4 n=g4 v=40
90960 On ch=4 n=c#4 v=32
91100 On ch=4 n=c#4 v=0
91100 On ch=4 n=g4 v=0
91200 On ch=4 n=f#4 v=35
91200 On ch=4 n=d4 v=28
91440 On ch=4 n=a4 v=30
91460 On ch=4 n=d4 v=0
91460 On ch=4 n=f#4 v=0
91680 On ch=4 n=a4 v=0
91680 On ch=4 n=f#4 v=32
91680 On ch=4 n=d4 v=25
91880 On ch=4 n=d4 v=0
91880 On ch=4 n=f#4 v=0
92160 On ch=4 n=d5 v=60
92160 On ch=4 n=f#4 v=45
92640 On ch=4 n=c#5 v=50
92640 On ch=4 n=a4 v=40
92660 On ch=4 n=f#4 v=0
92660 On ch=4 n=d5 v=0
92780 On ch=4 n=a4 v=0
92780 On ch=4 n=c#5 v=0
92880 On ch=4 n=b4 v=54
92880 On ch=4 n=g4 v=42
93040 On ch=4 n=g4 v=0
93040 On ch=4 n=b4 v=0
93120 On ch=4 n=a4 v=57
93120 On ch=4 n=f#4 v=48
93300 On ch=4 n=f#4 v=0
93300 On ch=4 n=a4 v=0
93360 On ch=4 n=g4 v=48
93360 On ch=4 n=e4 v=38
93480 On ch=4 n=e4 v=0
93480 On ch=4 n=g4 v=0
93600 On ch=4 n=f#4 v=50
93600 On ch=4 n=d4 v=40
94000 On ch=4 n=d4 v=0
94000 On ch=4 n=f#4 v=0
94080 On ch=4 n=e5 v=60
94080 On ch=4 n=g4 v=45
94560 On ch=4 n=d5 v=50
94560 On ch=4 n=b4 v=40
94580 On ch=4 n=g4 v=0
94580 On ch=4 n=e5 v=0
94700 On ch=4 n=b4 v=0
94700 On ch=4 n=d5 v=0
94800 On ch=4 n=c#5 v=54
94800 On ch=4 n=a4 v=42
94960 On ch=4 n=a4 v=0
94960 On ch=4 n=c#5 v=0
95040 On ch=4 n=b4 v=59
95040 On ch=4 n=g4 v=50
95220 On ch=4 n=g4 v=0
95220 On ch=4 n=b4 v=0
95280 On ch=4 n=a4 v=63
95280 On ch=4 n=f#4 v=53
95400 On ch=4 n=f#4 v=0
95400 On ch=4 n=a4 v=0
95520 On ch=4 n=g4 v=65
95520 On ch=4 n=e4 v=55
95920 On ch=4 n=e4 v=0
95920 On ch=4 n=g4 v=0
96000 On ch=4 n=g5 v=70
96000 On ch=4 n=e5 v=55
96480 On ch=4 n=f#5 v=65
96480 On ch=4 n=d5 v=55
96500 On ch=4 n=e5 v=0
96500 On ch=4 n=g5 v=0
96620 On ch=4 n=d5 v=0
96620 On ch=4 n=f#5 v=0
96720 On ch=4 n=e5 v=73
96720 On ch=4 n=c#5 v=61
96880 On ch=4 n=c#5 v=0
96880 On ch=4 n=e5 v=0
96960 On ch=4 n=d5 v=80
96960 On ch=4 n=b4 v=71
97140 On ch=4 n=b4 v=0
97140 On ch=4 n=d5 v=0
97200 On ch=4 n=c#5 v=86
97200 On ch=4 n=a4 v=76
97320 On ch=4 n=a4 v=0
97320 On ch=4 n=c#5 v=0
97440 On ch=4 n=b4 v=92
97440 On ch=4 n=g4 v=82
97840 On ch=4 n=g4 v=0
97840 On ch=4 n=b4 v=0
97920 On ch=4 n=f#5 v=105
97920 On ch=4 n=d5 v=88
97920 On ch=4 n=a4 v=65
98400 On ch=4 n=a4 v=0
98400 On ch=4 n=d5 v=0
98400 On ch=4 n=f#5 v=0
98400 On ch=4 n=e5 v=95
98400 On ch=4 n=a4 v=70
98560 On ch=4 n=a4 v=0
98560 On ch=4 n=e5 v=0
98640 On ch=4 n=d5 v=100
98640 On ch=4 n=g#4 v=82
98820 On ch=4 n=g#4 v=0
98820 On ch=4 n=d5 v=0
98880 On ch=4 n=c#5 v=103
98880 On ch=4 n=a4 v=75
99080 On ch=4 n=a4 v=0
99080 On ch=4 n=c#5 v=0
99120 On ch=4 n=d5 v=80
99120 On ch=4 n=b4 v=105
99120 On ch=4 n=d4 v=68
99280 On ch=4 n=d4 v=0
99280 On ch=4 n=b4 v=0
99280 On ch=4 n=d5 v=0
99360 On ch=4 n=d5 v=85
99360 On ch=4 n=a4 v=95
99360 On ch=4 n=d4 v=70
99760 On ch=4 n=d4 v=0
99760 On ch=4 n=a4 v=0
99760 On ch=4 n=d5 v=0
99840 On ch=4 n=d5 v=88
99840 On ch=4 n=b4 v=100
99840 On ch=4 n=d4 v=60
100320 On ch=4 n=d4 v=0
100320 On ch=4 n=b4 v=0
100320 On ch=4 n=d5 v=0
100320 On ch=4 n=d5 v=82
100320 On ch=4 n=a4 v=90
100320 On ch=4 n=d4 v=65
100480 On ch=4 n=d4 v=0
100480 On ch=4 n=a4 v=0
100480 On ch=4 n=d5 v=0
100560 On ch=4 n=c#5 v=70
100560 On ch=4 n=g4 v=82
100560 On ch=4 n=e4 v=55
100740 On ch=4 n=e4 v=0
100740 On ch=4 n=g4 v=0
100740 On ch=4 n=c#5 v=0
100800 On ch=4 n=d5 v=75
100800 On ch=4 n=f#4 v=84
100800 On ch=4 n=d4 v=68
101000 On ch=4 n=d4 v=0
101000 On ch=4 n=f#4 v=0
101000 On ch=4 n=d5 v=0
101040 On ch=4 n=a4 v=74
101040 On ch=4 n=c#4 v=58
101200 On ch=4 n=c#4 v=0
101200 On ch=4 n=a4 v=0
101280 On ch=4 n=a4 v=68
101280 On ch=4 n=b3 v=55
101680 On ch=4 n=b3 v=0
101680 On ch=4 n=a4 v=0
101760 On ch=4 n=a3 v=60
102000 On ch=4 n=a4 v=52
102000 On ch=4 n=g4 v=45
102020 On ch=4 n=a3 v=0
102140 On ch=4 n=g4 v=0
102140 On ch=4 n=a4 v=0
102480 On ch=4 n=a4 v=55
102480 On ch=4 n=e4 v=40
102640 On ch=4 n=e4 v=0
102640 On ch=4 n=a4 v=0
102720 On ch=4 n=a3 v=58
102960 On ch=4 n=a4 v=38
102960 On ch=4 n=f#4 v=50
102980 On ch=4 n=a3 v=0
103100 On ch=4 n=f#4 v=0
103100 On ch=4 n=a4 v=0
103440 On ch=4 n=a4 v=55
103440 On ch=4 n=d4 v=35
103600 On ch=4 n=d4 v=0
103600 On ch=4 n=a4 v=0
103920 On ch=4 n=c#4 v=48
104080 On ch=4 n=c#4 v=0
104160 On ch=4 n=e4 v=53
104340 On ch=4 n=e4 v=0
104400 On ch=4 n=g4 v=50
104400 On ch=4 n=c#4 v=42
104540 On ch=4 n=c#4 v=0
104540 On ch=4 n=g4 v=0
104640 On ch=4 n=f#4 v=45
104640 On ch=4 n=d4 v=38
104880 On ch=4 n=a4 v=40
104900 On ch=4 n=d4 v=0
104900 On ch=4 n=f#4 v=0
105120 On ch=4 n=a4 v=0
105120 On ch=4 n=f#4 v=42
105120 On ch=4 n=d4 v=35
105320 On ch=4 n=d4 v=0
105320 On ch=4 n=f#4 v=0
105600 On ch=4 n=f#5 v=115
105600 On ch=4 n=d5 v=98
105600 On ch=4 n=a4 v=75
106080 On ch=4 n=a4 v=0
106080 On ch=4 n=d5 v=0
106080 On ch=4 n=f#5 v=0
106080 On ch=4 n=e5 v=105
106080 On ch=4 n=a4 v=80
106240 On ch=4 n=a4 v=0
106240 On ch=4 n=e5 v=0
106320 On ch=4 n=d5 v=110
106320 On ch=4 n=g#4 v=92
106500 On ch=4 n=g#4 v=0
106500 On ch=4 n=d5 v=0
106560 On ch=4 n=c#5 v=113
106560 On ch=4 n=a4 v=85
106760 On ch=4 n=a4 v=0
106760 On ch=4 n=c#5 v=0
106800 On ch=4 n=d5 v=90
106800 On ch=4 n=b4 v=115
106800 On ch=4 n=d4 v=78
106960 On ch=4 n=d4 v=0
106960 On ch=4 n=b4 v=0
106960 On ch=4 n=d5 v=0
107040 On ch=4 n=d5 v=95
107040 On ch=4 n=a4 v=105
107040 On ch=4 n=d4 v=80
107440 On ch=4 n=d4 v=0
107440 On ch=4 n=a4 v=0
107440 On ch=4 n=d5 v=0
107520 On ch=4 n=d5 v=98
107520 On ch=4 n=b4 v=110
107520 On ch=4 n=d4 v=70
108000 On ch=4 n=d4 v=0
108000 On ch=4 n=b4 v=0
108000 On ch=4 n=d5 v=0
108000 On ch=4 n=d5 v=92
108000 On ch=4 n=a4 v=100
108000 On ch=4 n=d4 v=75
108160 On ch=4 n=d4 v=0
108160 On ch=4 n=a4 v=0
108160 On ch=4 n=d5 v=0
108240 On ch=4 n=c#5 v=80
108240 On ch=4 n=g4 v=92
108240 On ch=4 n=e4 v=65
108420 On ch=4 n=e4 v=0
108420 On ch=4 n=g4 v=0
108420 On ch=4 n=c#5 v=0
108480 On ch=4 n=d5 v=85
108480 On ch=4 n=f#4 v=94
108480 On ch=4 n=d4 v=78
108680 On ch=4 n=d4 v=0
108680 On ch=4 n=f#4 v=0
108680 On ch=4 n=d5 v=0
108720 On ch=4 n=a4 v=84
108720 On ch=4 n=c#4 v=68
108880 On ch=4 n=c#4 v=0
108880 On ch=4 n=a4 v=0
108960 On ch=4 n=a4 v=78
108960 On ch=4 n=b3 v=65
109360 On ch=4 n=b3 v=0
109360 On ch=4 n=a4 v=0
109440 On ch=4 n=a4 v=70
109640 On ch=4 n=c#5 v=55
109680 On ch=4 n=g5 v=62
109700 On ch=4 n=a4 v=0
109820 On ch=4 n=g5 v=0
109820 On ch=4 n=c#5 v=0
110160 On ch=4 n=a5 v=65
110160 On ch=4 n=e5 v=42
110160 On ch=4 n=a4 v=50
110320 On ch=4 n=a4 v=0
110320 On ch=4 n=e5 v=0
110320 On ch=4 n=a5 v=0
110400 On ch=4 n=a4 v=68
110600 On ch=4 n=d5 v=40
110630 On ch=4 n=f#5 v=48
110660 On ch=4 n=a4 v=0
110660 On ch=4 n=a5 v=60
110800 On ch=4 n=a5 v=0
110800 On ch=4 n=f#5 v=0
110800 On ch=4 n=d5 v=0
111120 On ch=4 n=f#5 v=65
111120 On ch=4 n=d5 v=45
111120 On ch=4 n=a4 v=35
111280 On ch=4 n=a4 v=0
111280 On ch=4 n=d5 v=0
111280 On ch=4 n=f#5 v=0
111360 On ch=4 n=c#5 v=60
111360 On ch=4 n=a4 v=35
111560 On ch=4 n=a4 v=0
111560 On ch=4 n=c#5 v=0
111600 On ch=4 n=g5 v=58
111760 On ch=4 n=g5 v=0
111840 On ch=4 n=e5 v=63
111840 On ch=4 n=g4 v=60
112020 On ch=4 n=g4 v=0
112020 On ch=4 n=e5 v=0
112080 On ch=4 n=c#5 v=52
112220 On ch=4 n=c#5 v=0
112320 On ch=4 n=d5 v=55
112320 On ch=4 n=f#4 v=48
112460 On ch=4 n=f#4 v=0
112460 On ch=4 n=d5 v=0
112800 On ch=4 n=d5 v=52
112800 On ch=4 n=a4 v=45
113000 On ch=4 n=a4 v=0
113000 On ch=4 n=d5 v=0
113280 On ch=4 n=c#5 v=95
113280 On ch=4 n=a4 v=72
113280 On ch=4 n=e4 v=60
113400 On ch=4 n=e4 v=0
113400 On ch=4 n=a4 v=0
113400 On ch=4 n=c#5 v=0
113640 On ch=4 n=g5 v=70
113740 On ch=4 n=g5 v=0
113880 On ch=4 n=e5 v=75
113980 On ch=4 n=e5 v=0
114120 On ch=4 n=c#5 v=78
114220 On ch=4 n=c#5 v=0
114360 On ch=4 n=a4 v=80
114460 On ch=4 n=a4 v=0
114600 On ch=4 n=g4 v=75
114700 On ch=4 n=g4 v=0
114840 On ch=4 n=e4 v=85
114940 On ch=4 n=e4 v=0
115080 On ch=4 n=c#4 v=92
115180 On ch=4 n=c#4 v=0
115440 On ch=4 n=f5 v=105
115440 On ch=4 n=d5 v=90
115440 On ch=4 n=a4 v=75
115440 On ch=4 n=f4 v=95
115920 On ch=4 n=f4 v=0
115920 On ch=4 n=a4 v=0
115920 On ch=4 n=d5 v=0
115920 On ch=4 n=f5 v=0
115920 On ch=4 n=f5 v=93
115920 On ch=4 n=d5 v=70
115920 On ch=4 n=a4 v=55
115920 On ch=4 n=f4 v=85
116080 On ch=4 n=f4 v=0
116080 On ch=4 n=a4 v=0
116080 On ch=4 n=d5 v=0
116080 On ch=4 n=f5 v=0
116400 On ch=4 n=d5 v=90
116400 On ch=4 n=a4 v=60
116400 On ch=4 n=f4 v=82
116880 On ch=4 n=f4 v=0
116880 On ch=4 n=a4 v=0
116880 On ch=4 n=d5 v=0
116880 On ch=4 n=d5 v=80
116880 On ch=4 n=a4 v=45
116880 On ch=4 n=f4 v=68
117040 On ch=4 n=f4 v=0
117040 On ch=4 n=a4 v=0
117040 On ch=4 n=d5 v=0
117120 On ch=4 n=d5 v=80
117120 On ch=4 n=a#4 v=57
117120 On ch=4 n=g4 v=45
117240 On ch=4 n=g4 v=0
117240 On ch=4 n=a#4 v=0
117240 On ch=4 n=d5 v=0
117480 On ch=4 n=a#5 v=55
117580 On ch=4 n=a#5 v=0
117720 On ch=4 n=g5 v=60
117820 On ch=4 n=g5 v=0
117960 On ch=4 n=d5 v=63
118060 On ch=4 n=d5 v=0
118200 On ch=4 n=a#4 v=65
118300 On ch=4 n=a#4 v=0
118440 On ch=4 n=g4 v=60
118540 On ch=4 n=g4 v=0
118680 On ch=4 n=d4 v=70
118780 On ch=4 n=d4 v=0
118920 On ch=4 n=a#3 v=77
119020 On ch=4 n=a#3 v=0
119280 On ch=4 n=d5 v=90
119280 On ch=4 n=a#4 v=75
119280 On ch=4 n=g4 v=60
119280 On ch=4 n=e4 v=80
119760 On ch=4 n=e4 v=0
119760 On ch=4 n=g4 v=0
119760 On ch=4 n=a#4 v=0
119760 On ch=4 n=d5 v=0
119760 On ch=4 n=d5 v=78
119760 On ch=4 n=a#4 v=55
119760 On ch=4 n=g4 v=40
119760 On ch=4 n=e4 v=70
119920 On ch=4 n=e4 v=0
119920 On ch=4 n=g4 v=0
119920 On ch=4 n=a#4 v=0
119920 On ch=4 n=d5 v=0
120240 On ch=4 n=c#5 v=75
120240 On ch=4 n=g4 v=45
120240 On ch=4 n=e4 v=67
120720 On ch=4 n=e4 v=0
120720 On ch=4 n=g4 v=0
120720 On ch=4 n=c#5 v=0
120720 On ch=4 n=c#5 v=65
120720 On ch=4 n=g4 v=40
120720 On ch=4 n=e4 v=53
120880 On ch=4 n=e4 v=0
120880 On ch=4 n=g4 v=0
120880 On ch=4 n=c#5 v=0
121200 On ch=4 n=d5 v=52
121200 On ch=4 n=f4 v=22
121200 On ch=4 n=d4 v=44
121680 On ch=4 n=d4 v=0
121680 On ch=4 n=f4 v=0
121680 On ch=4 n=d5 v=0
121680 On ch=4 n=f4 v=45
121680 On ch=4 n=d4 v=30
121840 On ch=4 n=d4 v=0
121840 On ch=4 n=f4 v=0
122160 On ch=4 n=d5 v=52
122160 On ch=4 n=a#4 v=45
122160 On ch=4 n=g4 v=22
122160 On ch=4 n=d4 v=33
122640 On ch=4 n=d4 v=0
122640 On ch=4 n=g4 v=0
122640 On ch=4 n=a#4 v=0
122640 On ch=4 n=d5 v=0
122640 On ch=4 n=a#4 v=57
122640 On ch=4 n=g4 v=40
122640 On ch=4 n=d4 v=45
122800 On ch=4 n=d4 v=0
122800 On ch=4 n=g4 v=0
122800 On ch=4 n=a#4 v=0
123120 On ch=4 n=a4 v=62
123120 On ch=4 n=f4 v=32
123120 On ch=4 n=c4 v=54
123600 On ch=4 n=c4 v=0
123600 On ch=4 n=f4 v=0
123600 On ch=4 n=a4 v=0
123600 On ch=4 n=f4 v=47
123600 On ch=4 n=c4 v=35
123760 On ch=4 n=c4 v=0
123760 On ch=4 n=f4 v=0
124080 On ch=4 n=a4 v=52
124080 On ch=4 n=f4 v=30
124080 On ch=4 n=c4 v=44
124560 On ch=4 n=c4 v=0
124560 On ch=4 n=f4 v=0
124560 On ch=4 n=a4 v=0
124560 On ch=4 n=c4 v=45
124720 On ch=4 n=c4 v=0
125040 On ch=4 n=g4 v=49
125040 On ch=4 n=d4 v=25
125040 On ch=4 n=a#3 v=41
125440 On ch=4 n=a#3 v=0
125440 On ch=4 n=d4 v=0
125440 On ch=4 n=g4 v=0
125520 On ch=4 n=g4 v=39
125520 On ch=4 n=d4 v=20
125520 On ch=4 n=a#3 v=27
125680 On ch=4 n=a#3 v=0
125680 On ch=4 n=d4 v=0
125680 On ch=4 n=g4 v=0
126000 On ch=4 n=c#4 v=52
126000 On ch=4 n=a3 v=44
126480 On ch=4 n=a3 v=0
126480 On ch=4 n=c#4 v=0
126480 On ch=4 n=c#4 v=42
126480 On ch=4 n=a3 v=30
126640 On ch=4 n=a3 v=0
126640 On ch=4 n=c#4 v=0
126960 On ch=4 n=d4 v=52
126960 On ch=4 n=a3 v=44
127440 On ch=4 n=a3 v=0
127440 On ch=4 n=d4 v=0
127440 On ch=4 n=d4 v=50
127440 On ch=4 n=a3 v=45
127680 On ch=4 n=g3 v=52
127700 On ch=4 n=a3 v=0
128160 On ch=4 n=a3 v=40
128180 On ch=4 n=g3 v=0
128560 On ch=4 n=a3 v=0
128560 On ch=4 n=d4 v=0
128640 On ch=4 n=c#5 v=95
128640 On ch=4 n=a4 v=72
128640 On ch=4 n=e4 v=60
128760 On ch=4 n=e4 v=0
128760 On ch=4 n=a4 v=0
128760 On ch=4 n=c#5 v=0
129000 On ch=4 n=g5 v=70
129100 On ch=4 n=g5 v=0
129240 On ch=4 n=e5 v=75
129340 On ch=4 n=e5 v=0
129480 On ch=4 n=c#5 v=78
129580 On ch=4 n=c#5 v=0
129720 On ch=4 n=a4 v=80
129820 On ch=4 n=a4 v=0
129960 On ch=4 n=g4 v=75
130060 On ch=4 n=g4 v=0
130200 On ch=4 n=e4 v=85
130300 On ch=4 n=e4 v=0
130440 On ch=4 n=c#4 v=92
130540 On ch=4 n=c#4 v=0
130800 On ch=4 n=f5 v=105
130800 On ch=4 n=d5 v=90
130800 On ch=4 n=a4 v=75
130800 On ch=4 n=f4 v=95
131280 On ch=4 n=f4 v=0
131280 On ch=4 n=a4 v=0
131280 On ch=4 n=d5 v=0
131280 On ch=4 n=f5 v=0
131280 On ch=4 n=f5 v=93
131280 On ch=4 n=d5 v=70
131280 On ch=4 n=a4 v=55
131280 On ch=4 n=f4 v=85
131440 On ch=4 n=f4 v=0
131440 On ch=4 n=a4 v=0
131440 On ch=4 n=d5 v=0
131440 On ch=4 n=f5 v=0
131760 On ch=4 n=d5 v=90
131760 On ch=4 n=a4 v=60
131760 On ch=4 n=f4 v=82
132240 On ch=4 n=f4 v=0
132240 On ch=4 n=a4 v=0
132240 On ch=4 n=d5 v=0
132240 On ch=4 n=d5 v=80
132240 On ch=4 n=a4 v=45
132240 On ch=4 n=f4 v=68
132400 On ch=4 n=f4 v=0
132400 On ch=4 n=a4 v=0
132400 On ch=4 n=d5 v=0
132480 On ch=4 n=d5 v=80
132480 On ch=4 n=a#4 v=57
132480 On ch=4 n=g4 v=45
132600 On ch=4 n=g4 v=0
132600 On ch=4 n=a#4 v=0
132600 On ch=4 n=d5 v=0
132840 On ch=4 n=a#5 v=55
132940 On ch=4 n=a#5 v=0
133080 On ch=4 n=g5 v=60
133180 On ch=4 n=g5 v=0
133320 On ch=4 n=d5 v=63
133420 On ch=4 n=d5 v=0
133560 On ch=4 n=a#4 v=65
133660 On ch=4 n=a#4 v=0
133800 On ch=4 n=g4 v=60
133900 On ch=4 n=g4 v=0
134040 On ch=4 n=d4 v=70
134140 On ch=4 n=d4 v=0
134280 On ch=4 n=a#3 v=77
134380 On ch=4 n=a#3 v=0
134640 On ch=4 n=d5 v=90
134640 On ch=4 n=a#4 v=75
134640 On ch=4 n=g4 v=60
134640 On ch=4 n=e4 v=80
135120 On ch=4 n=e4 v=0
135120 On ch=4 n=g4 v=0
135120 On ch=4 n=a#4 v=0
135120 On ch=4 n=d5 v=0
135120 On ch=4 n=d5 v=78
135120 On ch=4 n=a#4 v=55
135120 On ch=4 n=g4 v=40
135120 On ch=4 n=e4 v=70
135280 On ch=4 n=e4 v=0
135280 On ch=4 n=g4 v=0
135280 On ch=4 n=a#4 v=0
135280 On ch=4 n=d5 v=0
135600 On ch=4 n=c#5 v=75
135600 On ch=4 n=g4 v=45
135600 On ch=4 n=e4 v=67
136080 On ch=4 n=e4 v=0
136080 On ch=4 n=g4 v=0
136080 On ch=4 n=c#5 v=0
136080 On ch=4 n=c#5 v=65
136080 On ch=4 n=g4 v=40
136080 On ch=4 n=e4 v=53
136240 On ch=4 n=e4 v=0
136240 On ch=4 n=g4 v=0
136240 On ch=4 n=c#5 v=0
136560 On ch=4 n=d5 v=52
136560 On ch=4 n=f4 v=22
136560 On ch=4 n=d4 v=44
137040 On ch=4 n=d4 v=0
137040 On ch=4 n=f4 v=0
137040 On ch=4 n=d5 v=0
137040 On ch=4 n=f4 v=45
137040 On ch=4 n=d4 v=30
137200 On ch=4 n=d4 v=0
137200 On ch=4 n=f4 v=0
137520 On ch=4 n=d5 v=52
137520 On ch=4 n=a#4 v=45
137520 On ch=4 n=g4 v=22
137520 On ch=4 n=d4 v=33
138000 On ch=4 n=d4 v=0
138000 On ch=4 n=g4 v=0
138000 On ch=4 n=a#4 v=0
138000 On ch=4 n=d5 v=0
138000 On ch=4 n=a#4 v=57
138000 On ch=4 n=g4 v=40
138000 On ch=4 n=d4 v=45
138160 On ch=4 n=d4 v=0
138160 On ch=4 n=g4 v=0
138160 On ch=4 n=a#4 v=0
138480 On ch=4 n=a4 v=62
138480 On ch=4 n=f4 v=32
138480 On ch=4 n=c4 v=54
138960 On ch=4 n=c4 v=0
138960 On ch=4 n=f4 v=0
138960 On ch=4 n=a4 v=0
138960 On ch=4 n=f4 v=47
138960 On ch=4 n=c4 v=35
139120 On ch=4 n=c4 v=0
139120 On ch=4 n=f4 v=0
139440 On ch=4 n=a4 v=52
139440 On ch=4 n=f4 v=30
139440 On ch=4 n=c4 v=44
139920 On ch=4 n=c4 v=0
139920 On ch=4 n=f4 v=0
139920 On ch=4 n=a4 v=0
139920 On ch=4 n=c4 v=45
140080 On ch=4 n=c4 v=0
140400 On ch=4 n=g4 v=49
140400 On ch=4 n=d4 v=25
140400 On ch=4 n=a#3 v=41
140800 On ch=4 n=a#3 v=0
140800 On ch=4 n=d4 v=0
140800 On ch=4 n=g4 v=0
140880 On ch=4 n=g4 v=39
140880 On ch=4 n=d4 v=20
140880 On ch=4 n=a#3 v=27
141040 On ch=4 n=a#3 v=0
141040 On ch=4 n=d4 v=0
141040 On ch=4 n=g4 v=0
141360 On ch=4 n=c#4 v=52
141360 On ch=4 n=a3 v=44
141840 On ch=4 n=a3 v=0
141840 On ch=4 n=c#4 v=0
141840 On ch=4 n=c#4 v=42
141840 On ch=4 n=a3 v=30
142000 On ch=4 n=a3 v=0
142000 On ch=4 n=c#4 v=0
142320 On ch=4 n=d4 v=52
142320 On ch=4 n=a3 v=44
142800 On ch=4 n=a3 v=0
142800 On ch=4 n=d4 v=0
142800 On ch=4 n=d4 v=50
142800 On ch=4 n=a3 v=45
143040 On ch=4 n=g3 v=52
143060 On ch=4 n=a3 v=0
143520 On ch=4 n=a3 v=40
143540 On ch=4 n=g3 v=0
143920 On ch=4 n=a3 v=0
143920 On ch=4 n=d4 v=0
144240 On ch=4 n=d5 v=100
144240 On ch=4 n=b4 v=92
144240 On ch=4 n=f4 v=70
144720 On ch=4 n=f4 v=0
144720 On ch=4 n=b4 v=0
144720 On ch=4 n=d5 v=0
144720 On ch=4 n=d5 v=80
144720 On ch=4 n=b4 v=72
144720 On ch=4 n=f4 v=60
144920 On ch=4 n=f4 v=0
144920 On ch=4 n=b4 v=0
144920 On ch=4 n=d5 v=0
145200 On ch=4 n=d5 v=85
145200 On ch=4 n=a4 v=70
145200 On ch=4 n=f4 v=55
145680 On ch=4 n=f4 v=0
145680 On ch=4 n=a4 v=0
145680 On ch=4 n=d5 v=0
145680 On ch=4 n=b4 v=78
145680 On ch=4 n=g#4 v=65
145680 On ch=4 n=e4 v=50
145880 On ch=4 n=e4 v=0
145880 On ch=4 n=g#4 v=0
145880 On ch=4 n=b4 v=0
146160 On ch=4 n=c5 v=80
146160 On ch=4 n=a4 v=72
146160 On ch=4 n=e4 v=55
146360 On ch=4 n=e4 v=0
146360 On ch=4 n=a4 v=0
146360 On ch=4 n=c5 v=0
146640 On ch=4 n=c5 v=74
146640 On ch=4 n=a4 v=66
146640 On ch=4 n=e4 v=49
146800 On ch=4 n=e4 v=0
146800 On ch=4 n=a4 v=0
146800 On ch=4 n=c5 v=0
147120 On ch=4 n=c5 v=70
147120 On ch=4 n=a4 v=62
147120 On ch=4 n=e4 v=45
147300 On ch=4 n=e4 v=0
147300 On ch=4 n=a4 v=0
147300 On ch=4 n=c5 v=0
147600 On ch=4 n=c5 v=65
147600 On ch=4 n=a4 v=57
147600 On ch=4 n=e4 v=40
147800 On ch=4 n=e4 v=0
147800 On ch=4 n=a4 v=0
147800 On ch=4 n=c5 v=0
148080 On ch=4 n=d5 v=105
148080 On ch=4 n=b4 v=97
148080 On ch=4 n=f4 v=75
148560 On ch=4 n=f4 v=0
148560 On ch=4 n=b4 v=0
148560 On ch=4 n=d5 v=0
148560 On ch=4 n=d5 v=85
148560 On ch=4 n=b4 v=77
148560 On ch=4 n=f4 v=65
148760 On ch=4 n=f4 v=0
148760 On ch=4 n=b4 v=0
148760 On ch=4 n=d5 v=0
149040 On ch=4 n=d5 v=90
149040 On ch=4 n=a4 v=75
149040 On ch=4 n=f4 v=60
149520 On ch=4 n=f4 v=0
149520 On ch=4 n=a4 v=0
149520 On ch=4 n=d5 v=0
149520 On ch=4 n=b4 v=83
149520 On ch=4 n=g#4 v=70
149520 On ch=4 n=e4 v=55
149720 On ch=4 n=e4 v=0
149720 On ch=4 n=g#4 v=0
149720 On ch=4 n=b4 v=0
150000 On ch=4 n=e5 v=80
150000 On ch=4 n=c5 v=72
150000 On ch=4 n=a4 v=50
150000 On ch=4 n=e4 v=55
150200 On ch=4 n=e4 v=0
150200 On ch=4 n=a4 v=0
150200 On ch=4 n=c5 v=0
150200 On ch=4 n=e5 v=0
150480 On ch=4 n=e5 v=64
150480 On ch=4 n=c5 v=56
150480 On ch=4 n=a4 v=35
150480 On ch=4 n=e4 v=39
150640 On ch=4 n=e4 v=0
150640 On ch=4 n=a4 v=0
150640 On ch=4 n=c5 v=0
150640 On ch=4 n=e5 v=0
150960 On ch=4 n=c5 v=50
150960 On ch=4 n=a4 v=42
150960 On ch=4 n=e4 v=25
151140 On ch=4 n=e4 v=0
151140 On ch=4 n=a4 v=0
151140 On ch=4 n=c5 v=0
151440 On ch=4 n=c5 v=42
151440 On ch=4 n=a4 v=34
151640 On ch=4 n=a4 v=0
151640 On ch=4 n=c5 v=0
151920 On ch=4 n=c5 v=49
151920 On ch=4 n=a4 v=25
151920 On ch=4 n=f4 v=41
152320 On ch=4 n=f4 v=0
152320 On ch=4 n=a4 v=0
152320 On ch=4 n=c5 v=0
152400 On ch=4 n=c5 v=54
152400 On ch=4 n=a4 v=35
152400 On ch=4 n=f4 v=42
152560 On ch=4 n=f4 v=0
152560 On ch=4 n=a4 v=0
152560 On ch=4 n=c5 v=0
152880 On ch=4 n=b4 v=51
152880 On ch=4 n=g#4 v=27
152880 On ch=4 n=f4 v=43
153280 On ch=4 n=f4 v=0
153280 On ch=4 n=g#4 v=0
153280 On ch=4 n=b4 v=0
153360 On ch=4 n=b4 v=44
153360 On ch=4 n=g#4 v=25
153360 On ch=4 n=d4 v=32
153520 On ch=4 n=d4 v=0
153520 On ch=4 n=g#4 v=0
153520 On ch=4 n=b4 v=0
153840 On ch=4 n=a4 v=51
153840 On ch=4 n=e4 v=30
153840 On ch=4 n=c#4 v=35
154080 On ch=4 n=a3 v=55
154100 On ch=4 n=c#4 v=0
154100 On ch=4 n=e4 v=0
154100 On ch=4 n=a4 v=0
154480 On ch=4 n=a3 v=0
154800 On ch=4 n=a4 v=59
154800 On ch=4 n=e4 v=35
154800 On ch=4 n=c#4 v=43
155040 On ch=4 n=a3 v=50
155060 On ch=4 n=c#4 v=0
155060 On ch=4 n=e4 v=0
155060 On ch=4 n=a4 v=0
155440 On ch=4 n=a3 v=0
155760 On ch=4 n=c5 v=49
155760 On ch=4 n=a4 v=25
155760 On ch=4 n=f4 v=41
156160 On ch=4 n=f4 v=0
156160 On ch=4 n=a4 v=0
156160 On ch=4 n=c5 v=0
156240 On ch=4 n=c5 v=54
156240 On ch=4 n=a4 v=35
156240 On ch=4 n=f4 v=42
156400 On ch=4 n=f4 v=0
156400 On ch=4 n=a4 v=0
156400 On ch=4 n=c5 v=0
156720 On ch=4 n=b4 v=51
156720 On ch=4 n=g#4 v=27
156720 On ch=4 n=f4 v=43
157120 On ch=4 n=f4 v=0
157120 On ch=4 n=g#4 v=0
157120 On ch=4 n=b4 v=0
157200 On ch=4 n=b4 v=44
157200 On ch=4 n=g#4 v=25
157200 On ch=4 n=d4 v=32
157360 On ch=4 n=d4 v=0
157360 On ch=4 n=g#4 v=0
157360 On ch=4 n=b4 v=0
157680 On ch=4 n=e4 v=51
157680 On ch=4 n=c#4 v=35
157920 On ch=4 n=c#5 v=45
157920 On ch=4 n=a4 v=30
157940 On ch=4 n=c#4 v=0
157940 On ch=4 n=e4 v=0
158320 On ch=4 n=a4 v=0
158320 On ch=4 n=c#5 v=0
158640 On ch=4 n=e4 v=44
158640 On ch=4 n=c#4 v=28
158880 On ch=4 n=c#5 v=35
158880 On ch=4 n=a4 v=20
158900 On ch=4 n=c#4 v=0
158900 On ch=4 n=e4 v=0
159280 On ch=4 n=a4 v=0
159280 On ch=4 n=c#5 v=0
159600 On ch=4 n=d5 v=100
159600 On ch=4 n=b4 v=92
159600 On ch=4 n=f4 v=70
160080 On ch=4 n=f4 v=0
160080 On ch=4 n=b4 v=0
160080 On ch=4 n=d5 v=0
160080 On ch=4 n=d5 v=80
160080 On ch=4 n=b4 v=72
160080 On ch=4 n=f4 v=60
160280 On ch=4 n=f4 v=0
160280 On ch=4 n=b4 v=0
160280 On ch=4 n=d5 v=0
160560 On ch=4 n=d5 v=85
160560 On ch=4 n=a4 v=70
160560 On ch=4 n=f4 v=55
161040 On ch=4 n=f4 v=0
161040 On ch=4 n=a4 v=0
161040 On ch=4 n=d5 v=0
161040 On ch=4 n=b4 v=78
161040 On ch=4 n=g#4 v=65
161040 On ch=4 n=e4 v=50
161240 On ch=4 n=e4 v=0
161240 On ch=4 n=g#4 v=0
161240 On ch=4 n=b4 v=0
161520 On ch=4 n=c5 v=80
161520 On ch=4 n=a4 v=72
161520 On ch=4 n=e4 v=55
161720 On ch=4 n=e4 v=0
161720 On ch=4 n=a4 v=0
161720 On ch=4 n=c5 v=0
162000 On ch=4 n=c5 v=74
162000 On ch=4 n=a4 v=66
162000 On ch=4 n=e4 v=49
162160 On ch=4 n=e4 v=0
162160 On ch=4 n=a4 v=0
162160 On ch=4 n=c5 v=0
162480 On ch=4 n=c5 v=70
162480 On ch=4 n=a4 v=62
162480 On ch=4 n=e4 v=45
162660 On ch=4 n=e4 v=0
162660 On ch=4 n=a4 v=0
162660 On ch=4 n=c5 v=0
162960 On ch=4 n=c5 v=65
162960 On ch=4 n=a4 v=57
162960 On ch=4 n=e4 v=40
163160 On ch=4 n=e4 v=0
163160 On ch=4 n=a4 v=0
163160 On ch=4 n=c5 v=0
163440 On ch=4 n=d5 v=105
163440 On ch=4 n=b4 v=97
163440 On ch=4 n=f4 v=75
163920 On ch=4 n=f4 v=0
163920 On ch=4 n=b4 v=0
163920 On ch=4 n=d5 v=0
163920 On ch=4 n=d5 v=85
163920 On ch=4 n=b4 v=77
163920 On ch=4 n=f4 v=65
164120 On ch=4 n=f4 v=0
164120 On ch=4 n=b4 v=0
164120 On ch=4 n=d5 v=0
164400 On ch=4 n=d5 v=90
164400 On ch=4 n=a4 v=75
164400 On ch=4 n=f4 v=60
164880 On ch=4 n=f4 v=0
164880 On ch=4 n=a4 v=0
164880 On ch=4 n=d5 v=0
164880 On ch=4 n=b4 v=83
164880 On ch=4 n=g#4 v=70
164880 On ch=4 n=e4 v=55
165080 On ch=4 n=e4 v=0
165080 On ch=4 n=g#4 v=0
165080 On ch=4 n=b4 v=0
165360 On ch=4 n=e5 v=80
165360 On ch=4 n=c5 v=72
165360 On ch=4 n=a4 v=50
165360 On ch=4 n=e4 v=55
165560 On ch=4 n=e4 v=0
165560 On ch=4 n=a4 v=0
165560 On ch=4 n=c5 v=0
165560 On ch=4 n=e5 v=0
165840 On ch=4 n=e5 v=64
165840 On ch=4 n=c5 v=56
165840 On ch=4 n=a4 v=35
165840 On ch=4 n=e4 v=39
166000 On ch=4 n=e4 v=0
166000 On ch=4 n=a4 v=0
166000 On ch=4 n=c5 v=0
166000 On ch=4 n=e5 v=0
166320 On ch=4 n=c5 v=50
166320 On ch=4 n=a4 v=42
166320 On ch=4 n=e4 v=25
166500 On ch=4 n=e4 v=0
166500 On ch=4 n=a4 v=0
166500 On ch=4 n=c5 v=0
166800 On ch=4 n=c5 v=42
166800 On ch=4 n=a4 v=34
167000 On ch=4 n=a4 v=0
167000 On ch=4 n=c5 v=0
167280 On ch=4 n=c5 v=49
167280 On ch=4 n=a4 v=25
167280 On ch=4 n=f4 v=41
167680 On ch=4 n=f4 v=0
167680 On ch=4 n=a4 v=0
167680 On ch=4 n=c5 v=0
167760 On ch=4 n=c5 v=54
167760 On ch=4 n=a4 v=35
167760 On ch=4 n=f4 v=42
167920 On ch=4 n=f4 v=0
167920 On ch=4 n=a4 v=0
167920 On ch=4 n=c5 v=0
168240 On ch=4 n=b4 v=51
168240 On ch=4 n=g#4 v=27
168240 On ch=4 n=f4 v=43
168640 On ch=4 n=f4 v=0
168640 On ch=4 n=g#4 v=0
168640 On ch=4 n=b4 v=0
168720 On ch=4 n=b4 v=44
168720 On ch=4 n=g#4 v=25
168720 On ch=4 n=d4 v=32
168880 On ch=4 n=d4 v=0
168880 On ch=4 n=g#4 v=0
168880 On ch=4 n=b4 v=0
169200 On ch=4 n=a4 v=51
169200 On ch=4 n=e4 v=30
169200 On ch=4 n=c#4 v=35
169440 On ch=4 n=a3 v=55
169460 On ch=4 n=c#4 v=0
169460 On ch=4 n=e4 v=0
169460 On ch=4 n=a4 v=0
169840 On ch=4 n=a3 v=0
170160 On ch=4 n=a4 v=59
170160 On ch=4 n=e4 v=35
170160 On ch=4 n=c#4 v=43
170400 On ch=4 n=a3 v=50
170420 On ch=4 n=c#4 v=0
170420 On ch=4 n=e4 v=0
170420 On ch=4 n=a4 v=0
170800 On ch=4 n=a3 v=0
171120 On ch=4 n=c5 v=49
171120 On ch=4 n=a4 v=25
171120 On ch=4 n=f4 v=41
171520 On ch=4 n=f4 v=0
171520 On ch=4 n=a4 v=0
171520 On ch=4 n=c5 v=0
171600 On ch=4 n=c5 v=54
171600 On ch=4 n=a4 v=35
171600 On ch=4 n=f4 v=42
171760 On ch=4 n=f4 v=0
171760 On ch=4 n=a4 v=0
171760 On ch=4 n=c5 v=0
172080 On ch=4 n=b4 v=51
172080 On ch=4 n=g#4 v=27
172080 On ch=4 n=f4 v=43
172480 On ch=4 n=f4 v=0
172480 On ch=4 n=g#4 v=0
172480 On ch=4 n=b4 v=0
172560 On ch=4 n=b4 v=44
172560 On ch=4 n=g#4 v=25
172560 On ch=4 n=d4 v=32
172720 On ch=4 n=d4 v=0
172720 On ch=4 n=g#4 v=0
172720 On ch=4 n=b4 v=0
173040 On ch=4 n=e4 v=51
173040 On ch=4 n=c#4 v=35
173280 On ch=4 n=c#5 v=45
173280 On ch=4 n=a4 v=30
173300 On ch=4 n=c#4 v=0
173300 On ch=4 n=e4 v=0
173680 On ch=4 n=a4 v=0
173680 On ch=4 n=c#5 v=0
174000 On ch=4 n=e4 v=44
174000 On ch=4 n=c#4 v=28
174240 On ch=4 n=c#5 v=35
174240 On ch=4 n=a4 v=20
174260 On ch=4 n=c#4 v=0
174260 On ch=4 n=e4 v=0
174640 On ch=4 n=a4 v=0
174640 On ch=4 n=c#5 v=0
174720 On ch=4 n=c#5 v=95
174720 On ch=4 n=a4 v=72
174720 On ch=4 n=e4 v=60
174840 On ch=4 n=e4 v=0
174840 On ch=4 n=a4 v=0
174840 On ch=4 n=c#5 v=0
175080 On ch=4 n=g5 v=70
175180 On ch=4 n=g5 v=0
175320 On ch=4 n=e5 v=75
175420 On ch=4 n=e5 v=0
175560 On ch=4 n=c#5 v=78
175660 On ch=4 n=c#5 v=0
175800 On ch=4 n=a4 v=80
175900 On ch=4 n=a4 v=0
176040 On ch=4 n=g4 v=75
176140 On ch=4 n=g4 v=0
176280 On ch=4 n=e4 v=85
176380 On ch=4 n=e4 v=0
176520 On ch=4 n=c#4 v=92
176620 On ch=4 n=c#4 v=0
176880 On ch=4 n=f5 v=105
176880 On ch=4 n=d5 v=90
176880 On ch=4 n=a4 v=75
176880 On ch=4 n=f4 v=95
177360 On ch=4 n=f4 v=0
177360 On ch=4 n=a4 v=0
177360 On ch=4 n=d5 v=0
177360 On ch=4 n=f5 v=0
177360 On ch=4 n=f5 v=100
177360 On ch=4 n=d5 v=80
177360 On ch=4 n=a4 v=65
177360 On ch=4 n=f4 v=95
177520 On ch=4 n=f4 v=0
177520 On ch=4 n=a4 v=0
177520 On ch=4 n=d5 v=0
177520 On ch=4 n=f5 v=0
177840 On ch=4 n=d5 v=100
177840 On ch=4 n=a4 v=70
177840 On ch=4 n=f4 v=92
178320 On ch=4 n=f4 v=0
178320 On ch=4 n=a4 v=0
178320 On ch=4 n=d5 v=0
178320 On ch=4 n=d5 v=90
178320 On ch=4 n=a4 v=55
178320 On ch=4 n=f4 v=78
178480 On ch=4 n=f4 v=0
178480 On ch=4 n=a4 v=0
178480 On ch=4 n=d5 v=0
178560 On ch=4 n=d5 v=90
178560 On ch=4 n=a#4 v=67
178560 On ch=4 n=g4 v=55
178680 On ch=4 n=g4 v=0
178680 On ch=4 n=a#4 v=0
178680 On ch=4 n=d5 v=0
178920 On ch=4 n=a#5 v=65
179020 On ch=4 n=a#5 v=0
179160 On ch=4 n=g5 v=70
179260 On ch=4 n=g5 v=0
179400 On ch=4 n=d5 v=73
179500 On ch=4 n=d5 v=0
179640 On ch=4 n=a#4 v=75
179740 On ch=4 n=a#4 v=0
179880 On ch=4 n=g4 v=70
179980 On ch=4 n=g4 v=0
180120 On ch=4 n=d4 v=80
180220 On ch=4 n=d4 v=0
180360 On ch=4 n=a#3 v=87
180460 On ch=4 n=a#3 v=0
180720 On ch=4 n=d5 v=100
180720 On ch=4 n=a#4 v=85
180720 On ch=4 n=g4 v=70
180720 On ch=4 n=e4 v=90
181200 On ch=4 n=e4 v=0
181200 On ch=4 n=g4 v=0
181200 On ch=4 n=a#4 v=0
181200 On ch=4 n=d5 v=0
181200 On ch=4 n=d5 v=88
181200 On ch=4 n=a#4 v=65
181200 On ch=4 n=g4 v=50
181200 On ch=4 n=e4 v=80
181360 On ch=4 n=e4 v=0
181360 On ch=4 n=g4 v=0
181360 On ch=4 n=a#4 v=0
181360 On ch=4 n=d5 v=0
181680 On ch=4 n=c#5 v=75
181680 On ch=4 n=g4 v=45
181680 On ch=4 n=e4 v=67
182160 On ch=4 n=e4 v=0
182160 On ch=4 n=g4 v=0
182160 On ch=4 n=c#5 v=0
182160 On ch=4 n=c#5 v=65
182160 On ch=4 n=g4 v=40
182160 On ch=4 n=e4 v=53
182320 On ch=4 n=e4 v=0
182320 On ch=4 n=g4 v=0
182320 On ch=4 n=c#5 v=0
182640 On ch=4 n=d5 v=52
182640 On ch=4 n=f4 v=22
182640 On ch=4 n=d4 v=44
183120 On ch=4 n=d4 v=0
183120 On ch=4 n=f4 v=0
183120 On ch=4 n=d5 v=0
183120 On ch=4 n=f4 v=45
183120 On ch=4 n=d4 v=30
183280 On ch=4 n=d4 v=0
183280 On ch=4 n=f4 v=0
183600 On ch=4 n=d5 v=52
183600 On ch=4 n=a#4 v=45
183600 On ch=4 n=g4 v=22
183600 On ch=4 n=d4 v=33
184080 On ch=4 n=d4 v=0
184080 On ch=4 n=g4 v=0
184080 On ch=4 n=a#4 v=0
184080 On ch=4 n=d5 v=0
184080 On ch=4 n=a#4 v=57
184080 On ch=4 n=g4 v=40
184080 On ch=4 n=d4 v=45
184240 On ch=4 n=d4 v=0
184240 On ch=4 n=g4 v=0
184240 On ch=4 n=a#4 v=0
184560 On ch=4 n=a4 v=62
184560 On ch=4 n=f4 v=32
184560 On ch=4 n=c4 v=54
185040 On ch=4 n=c4 v=0
185040 On ch=4 n=f4 v=0
185040 On ch=4 n=a4 v=0
185040 On ch=4 n=f4 v=47
185040 On ch=4 n=c4 v=35
185200 On ch=4 n=c4 v=0
185200 On ch=4 n=f4 v=0
185520 On ch=4 n=a4 v=52
185520 On ch=4 n=f4 v=30
185520 On ch=4 n=c4 v=44
186000 On ch=4 n=c4 v=0
186000 On ch=4 n=f4 v=0
186000 On ch=4 n=a4 v=0
186000 On ch=4 n=c4 v=45
186160 On ch=4 n=c4 v=0
186480 On ch=4 n=g4 v=49
186480 On ch=4 n=d4 v=25
186480 On ch=4 n=a#3 v=41
186880 On ch=4 n=a#3 v=0
186880 On ch=4 n=d4 v=0
186880 On ch=4 n=g4 v=0
186960 On ch=4 n=d4 v=55
186960 On ch=4 n=a#3 v=47
187120 On ch=4 n=a#3 v=0
187120 On ch=4 n=d4 v=0
187440 On ch=4 n=d4 v=52
187440 On ch=4 n=a#3 v=44
187920 On ch=4 n=a#3 v=0
187920 On ch=4 n=d4 v=0
187920 On ch=4 n=d4 v=42
187920 On ch=4 n=a#3 v=30
188080 On ch=4 n=a#3 v=0
188080 On ch=4 n=d4 v=0
188400 On ch=4 n=d4 v=60
188400 On ch=4 n=g#3 v=41
188800 On ch=4 n=g#3 v=0
188800 On ch=4 n=d4 v=0
188880 On ch=4 n=d4 v=65
188880 On ch=4 n=g#3 v=47
189040 On ch=4 n=g#3 v=0
189040 On ch=4 n=d4 v=0
189360 On ch=4 n=d4 v=72
189360 On ch=4 n=b3 v=64
189840 On ch=4 n=b3 v=0
189840 On ch=4 n=d4 v=0
189840 On ch=4 n=d4 v=65
189840 On ch=4 n=b3 v=53
190000 On ch=4 n=b3 v=0
190000 On ch=4 n=d4 v=0
190080 On ch=4 n=f5 v=110
190080 On ch=4 n=c#5 v=98
190080 On ch=4 n=a4 v=60
190680 On ch=4 n=c#5 v=0
190680 On ch=4 n=e5 v=107
190680 On ch=4 n=c#5 v=70
190680 On ch=4 n=g4 v=95
190700 On ch=4 n=a4 v=0
190700 On ch=4 n=f5 v=0
190800 On ch=4 n=c#5 v=0
190800 On ch=4 n=f5 v=100
190800 On ch=4 n=c#5 v=63
190800 On ch=4 n=a4 v=85
190820 On ch=4 n=g4 v=0
190820 On ch=4 n=e5 v=0
190920 On ch=4 n=c#5 v=0
190920 On ch=4 n=g5 v=95
190920 On ch=4 n=c#5 v=55
190920 On ch=4 n=a#4 v=80
190940 On ch=4 n=a4 v=0
190940 On ch=4 n=f5 v=0
191040 On ch=4 n=c#5 v=0
191040 On ch=4 n=f5 v=98
191040 On ch=4 n=c#5 v=61
191040 On ch=4 n=a4 v=86
191060 On ch=4 n=a#4 v=0
191060 On ch=4 n=g5 v=0
191520 On ch=4 n=c#5 v=0
191520 On ch=4 n=e5 v=88
191520 On ch=4 n=c#5 v=48
191520 On ch=4 n=g4 v=70
191540 On ch=4 n=a4 v=0
191540 On ch=4 n=f5 v=0
192000 On ch=4 n=d5 v=75
192000 On ch=4 n=f4 v=50
192020 On ch=4 n=g4 v=0
192020 On ch=4 n=c#5 v=0
192020 On ch=4 n=e5 v=0
192120 On ch=4 n=f4 v=0
192120 On ch=4 n=d5 v=0
192240 On ch=4 n=g#5 v=120
192240 On ch=4 n=g#4 v=102
192720 On ch=4 n=f5 v=95
192740 On ch=4 n=g#4 v=0
192740 On ch=4 n=g#5 v=0
192960 On ch=4 n=d5 v=100
192980 On ch=4 n=f5 v=0
193200 On ch=4 n=b4 v=98
193220 On ch=4 n=d5 v=0
193440 On ch=4 n=g#4 v=105
193460 On ch=4 n=b4 v=0
193680 On ch=4 n=f4 v=112
193700 On ch=4 n=g#4 v=0
193920 On ch=4 n=f4 v=0
193920 On ch=4 n=d5 v=120
193920 On ch=4 n=a4 v=70
193920 On ch=4 n=f4 v=102
193920 On ch=4 n=d4 v=90
194120 On ch=4 n=d4 v=0
194120 On ch=4 n=f4 v=0
194120 On ch=4 n=a4 v=0
194120 On ch=4 n=d5 v=0
194120 Meta TrkEnd
TrkEnd
MTrk
0 SeqSpec 43 00 01 00
0 Meta TrkName "Piano 2(L.H.)                       "
1020 Par ch=5 c=32 v=1
1080 Par ch=5 c=0 v=0
1140 PrCh ch=5 p=0
1200 Par ch=5 c=10 v=52
1260 Par ch=5 c=91 v=80
1320 Par ch=5 c=7 v=120
1380 Par ch=5 c=11 v=120
1920 On ch=5 n=a3 v=75
1920 On ch=5 n=a2 v=90
2060 On ch=5 n=a2 v=0
2060 On ch=5 n=a3 v=0
2160 On ch=5 n=g4 v=70
2320 On ch=5 n=g4 v=0
2400 On ch=5 n=e4 v=75
2580 On ch=5 n=e4 v=0
2640 On ch=5 n=c#4 v=78
2780 On ch=5 n=c#4 v=0
2880 On ch=5 n=a3 v=80
3040 On ch=5 n=a3 v=0
3120 On ch=5 n=g3 v=75
3300 On ch=5 n=g3 v=0
3360 On ch=5 n=e3 v=85
3560 On ch=5 n=e3 v=0
3600 On ch=5 n=c#3 v=92
3760 On ch=5 n=c#3 v=0
3840 On ch=5 n=d3 v=95
3840 On ch=5 n=d2 v=105
4740 On ch=5 n=d2 v=0
4740 On ch=5 n=d3 v=0
4800 On ch=5 n=f3 v=68
4800 On ch=5 n=f2 v=90
5200 On ch=5 n=f2 v=0
5200 On ch=5 n=f3 v=0
5760 On ch=5 n=a#3 v=60
5760 On ch=5 n=a#2 v=75
5900 On ch=5 n=a#2 v=0
5900 On ch=5 n=a#3 v=0
6000 On ch=5 n=a#4 v=55
6160 On ch=5 n=a#4 v=0
6240 On ch=5 n=g4 v=60
6420 On ch=5 n=g4 v=0
6480 On ch=5 n=d4 v=63
6620 On ch=5 n=d4 v=0
6720 On ch=5 n=a#3 v=65
6880 On ch=5 n=a#3 v=0
6960 On ch=5 n=g3 v=60
7140 On ch=5 n=g3 v=0
7200 On ch=5 n=d3 v=70
7400 On ch=5 n=d3 v=0
7440 On ch=5 n=a#2 v=77
7600 On ch=5 n=a#2 v=0
7680 On ch=5 n=e3 v=80
7680 On ch=5 n=e2 v=90
8580 On ch=5 n=e2 v=0
8580 On ch=5 n=e3 v=0
8640 On ch=5 n=a3 v=53
8640 On ch=5 n=a2 v=75
9540 On ch=5 n=a2 v=0
9540 On ch=5 n=a3 v=0
9600 On ch=5 n=a#3 v=40
9600 On ch=5 n=a#2 v=60
10500 On ch=5 n=a#2 v=0
10500 On ch=5 n=a#3 v=0
10560 On ch=5 n=g3 v=33
10560 On ch=5 n=g2 v=50
11460 On ch=5 n=g2 v=0
11460 On ch=5 n=g3 v=0
11520 On ch=5 n=a3 v=35
11520 On ch=5 n=a2 v=53
12420 On ch=5 n=a2 v=0
12420 On ch=5 n=a3 v=0
12480 On ch=5 n=f3 v=40
12480 On ch=5 n=f2 v=60
13380 On ch=5 n=f2 v=0
13380 On ch=5 n=f3 v=0
13440 On ch=5 n=g3 v=45
13440 On ch=5 n=g2 v=65
14340 On ch=5 n=g2 v=0
14340 On ch=5 n=g3 v=0
14400 On ch=5 n=a2 v=55
15300 On ch=5 n=a2 v=0
15360 On ch=5 n=d3 v=35
15360 On ch=5 n=d2 v=50
16260 On ch=5 n=d2 v=0
16260 On ch=5 n=d3 v=0
16320 On ch=5 n=d3 v=40
17220 On ch=5 n=d3 v=0
17280 On ch=5 n=a3 v=75
17280 On ch=5 n=a2 v=90
17420 On ch=5 n=a2 v=0
17420 On ch=5 n=a3 v=0
17520 On ch=5 n=g4 v=70
17680 On ch=5 n=g4 v=0
17760 On ch=5 n=e4 v=75
17940 On ch=5 n=e4 v=0
18000 On ch=5 n=c#4 v=78
18140 On ch=5 n=c#4 v=0
18240 On ch=5 n=a3 v=80
18400 On ch=5 n=a3 v=0
18480 On ch=5 n=g3 v=75
18660 On ch=5 n=g3 v=0
18720 On ch=5 n=e3 v=85
18920 On ch=5 n=e3 v=0
18960 On ch=5 n=c#3 v=92
19120 On ch=5 n=c#3 v=0
19200 On ch=5 n=d3 v=95
19200 On ch=5 n=d2 v=105
20100 On ch=5 n=d2 v=0
20100 On ch=5 n=d3 v=0
20160 On ch=5 n=f3 v=68
20160 On ch=5 n=f2 v=90
20560 On ch=5 n=f2 v=0
20560 On ch=5 n=f3 v=0
21120 On ch=5 n=a#3 v=60
21120 On ch=5 n=a#2 v=75
21260 On ch=5 n=a#2 v=0
21260 On ch=5 n=a#3 v=0
21360 On ch=5 n=a#4 v=55
21520 On ch=5 n=a#4 v=0
21600 On ch=5 n=g4 v=60
21780 On ch=5 n=g4 v=0
21840 On ch=5 n=d4 v=63
21980 On ch=5 n=d4 v=0
22080 On ch=5 n=a#3 v=65
22240 On ch=5 n=a#3 v=0
22320 On ch=5 n=g3 v=60
22500 On ch=5 n=g3 v=0
22560 On ch=5 n=d3 v=70
22760 On ch=5 n=d3 v=0
22800 On ch=5 n=a#2 v=77
22960 On ch=5 n=a#2 v=0
23040 On ch=5 n=e3 v=80
23040 On ch=5 n=e2 v=90
23940 On ch=5 n=e2 v=0
23940 On ch=5 n=e3 v=0
24000 On ch=5 n=a3 v=53
24000 On ch=5 n=a2 v=75
24900 On ch=5 n=a2 v=0
24900 On ch=5 n=a3 v=0
24960 On ch=5 n=a#3 v=40
24960 On ch=5 n=a#2 v=60
25860 On ch=5 n=a#2 v=0
25860 On ch=5 n=a#3 v=0
25920 On ch=5 n=g3 v=33
25920 On ch=5 n=g2 v=50
26820 On ch=5 n=g2 v=0
26820 On ch=5 n=g3 v=0
26880 On ch=5 n=a3 v=35
26880 On ch=5 n=a2 v=53
27780 On ch=5 n=a2 v=0
27780 On ch=5 n=a3 v=0
27840 On ch=5 n=f3 v=40
27840 On ch=5 n=f2 v=60
28740 On ch=5 n=f2 v=0
28740 On ch=5 n=f3 v=0
28800 On ch=5 n=g3 v=45
28800 On ch=5 n=g2 v=65
29700 On ch=5 n=g2 v=0
29700 On ch=5 n=g3 v=0
29760 On ch=5 n=a2 v=55
30660 On ch=5 n=a2 v=0
30720 On ch=5 n=d3 v=35
30720 On ch=5 n=d2 v=50
31620 On ch=5 n=d2 v=0
31620 On ch=5 n=d3 v=0
31680 On ch=5 n=d3 v=40
32580 On ch=5 n=d3 v=0
32640 On ch=5 n=d4 v=85
32640 On ch=5 n=d3 v=100
33540 On ch=5 n=d3 v=0
33540 On ch=5 n=d4 v=0
33600 On ch=5 n=b3 v=82
33600 On ch=5 n=b2 v=105
33800 On ch=5 n=b2 v=0
33800 On ch=5 n=b3 v=0
34080 On ch=5 n=e4 v=78
34080 On ch=5 n=e3 v=98
34240 On ch=5 n=e3 v=0
34240 On ch=5 n=e4 v=0
34560 On ch=5 n=a3 v=80
34560 On ch=5 n=a2 v=103
34760 On ch=5 n=a2 v=0
34760 On ch=5 n=a3 v=0
35040 On ch=5 n=c4 v=70
35040 On ch=5 n=c3 v=90
35200 On ch=5 n=c3 v=0
35200 On ch=5 n=c4 v=0
35520 On ch=5 n=e3 v=82
35700 On ch=5 n=e3 v=0
36000 On ch=5 n=a3 v=74
36200 On ch=5 n=a3 v=0
36480 On ch=5 n=d4 v=90
36480 On ch=5 n=d3 v=105
37380 On ch=5 n=d3 v=0
37380 On ch=5 n=d4 v=0
37440 On ch=5 n=b3 v=87
37440 On ch=5 n=b2 v=110
37640 On ch=5 n=b2 v=0
37640 On ch=5 n=b3 v=0
37920 On ch=5 n=e4 v=83
37920 On ch=5 n=e3 v=103
38080 On ch=5 n=e3 v=0
38080 On ch=5 n=e4 v=0
38400 On ch=5 n=a3 v=85
38400 On ch=5 n=a2 v=108
38600 On ch=5 n=a2 v=0
38600 On ch=5 n=a3 v=0
38880 On ch=5 n=b3 v=70
38880 On ch=5 n=b2 v=90
39040 On ch=5 n=b2 v=0
39040 On ch=5 n=b3 v=0
39360 On ch=5 n=c4 v=58
39360 On ch=5 n=c3 v=75
39540 On ch=5 n=c3 v=0
39540 On ch=5 n=c4 v=0
39840 On ch=5 n=e4 v=45
39840 On ch=5 n=e3 v=60
40040 On ch=5 n=e3 v=0
40040 On ch=5 n=e4 v=0
40200 On ch=5 n=f3 v=50
40280 On ch=5 n=c4 v=32
40340 On ch=5 n=d#4 v=40
41220 On ch=5 n=d#4 v=0
41220 On ch=5 n=c4 v=0
41220 On ch=5 n=f3 v=0
41280 On ch=5 n=d4 v=40
41280 On ch=5 n=b3 v=25
41280 On ch=5 n=f3 v=48
41760 On ch=5 n=d3 v=52
41780 On ch=5 n=f3 v=0
41780 On ch=5 n=b3 v=0
41780 On ch=5 n=d4 v=0
42160 On ch=5 n=d3 v=0
42240 On ch=5 n=a2 v=55
43140 On ch=5 n=a2 v=0
43200 On ch=5 n=a2 v=48
44100 On ch=5 n=a2 v=0
44120 On ch=5 n=f3 v=50
44160 On ch=5 n=c4 v=32
44190 On ch=5 n=d#4 v=38
45060 On ch=5 n=d#4 v=0
45060 On ch=5 n=c4 v=0
45060 On ch=5 n=f3 v=0
45120 On ch=5 n=d4 v=40
45120 On ch=5 n=b3 v=25
45120 On ch=5 n=f3 v=48
45600 On ch=5 n=d3 v=52
45620 On ch=5 n=f3 v=0
45620 On ch=5 n=b3 v=0
45620 On ch=5 n=d4 v=0
46000 On ch=5 n=d3 v=0
46080 On ch=5 n=a3 v=42
46080 On ch=5 n=a2 v=50
47040 On ch=5 n=a2 v=0
47040 On ch=5 n=a3 v=0
47040 On ch=5 n=a3 v=35
47040 On ch=5 n=a2 v=45
47940 On ch=5 n=a2 v=0
47940 On ch=5 n=a3 v=0
48000 On ch=5 n=d4 v=85
48000 On ch=5 n=d3 v=100
48900 On ch=5 n=d3 v=0
48900 On ch=5 n=d4 v=0
48960 On ch=5 n=b3 v=82
48960 On ch=5 n=b2 v=105
49160 On ch=5 n=b2 v=0
49160 On ch=5 n=b3 v=0
49440 On ch=5 n=e4 v=78
49440 On ch=5 n=e3 v=98
49600 On ch=5 n=e3 v=0
49600 On ch=5 n=e4 v=0
49920 On ch=5 n=a3 v=80
49920 On ch=5 n=a2 v=103
50120 On ch=5 n=a2 v=0
50120 On ch=5 n=a3 v=0
50400 On ch=5 n=c4 v=70
50400 On ch=5 n=c3 v=90
50560 On ch=5 n=c3 v=0
50560 On ch=5 n=c4 v=0
50880 On ch=5 n=e3 v=82
51060 On ch=5 n=e3 v=0
51360 On ch=5 n=a3 v=74
51560 On ch=5 n=a3 v=0
51840 On ch=5 n=d4 v=90
51840 On ch=5 n=d3 v=105
52740 On ch=5 n=d3 v=0
52740 On ch=5 n=d4 v=0
52800 On ch=5 n=b3 v=87
52800 On ch=5 n=b2 v=110
53000 On ch=5 n=b2 v=0
53000 On ch=5 n=b3 v=0
53280 On ch=5 n=e4 v=83
53280 On ch=5 n=e3 v=103
53440 On ch=5 n=e3 v=0
53440 On ch=5 n=e4 v=0
53760 On ch=5 n=a3 v=85
53760 On ch=5 n=a2 v=108
53960 On ch=5 n=a2 v=0
53960 On ch=5 n=a3 v=0
54240 On ch=5 n=b3 v=70
54240 On ch=5 n=b2 v=90
54400 On ch=5 n=b2 v=0
54400 On ch=5 n=b3 v=0
54720 On ch=5 n=c4 v=58
54720 On ch=5 n=c3 v=75
54900 On ch=5 n=c3 v=0
54900 On ch=5 n=c4 v=0
55200 On ch=5 n=e4 v=45
55200 On ch=5 n=e3 v=60
55400 On ch=5 n=e3 v=0
55400 On ch=5 n=e4 v=0
55560 On ch=5 n=f3 v=50
55640 On ch=5 n=c4 v=32
55700 On ch=5 n=d#4 v=40
56580 On ch=5 n=d#4 v=0
56580 On ch=5 n=c4 v=0
56580 On ch=5 n=f3 v=0
56640 On ch=5 n=d4 v=40
56640 On ch=5 n=b3 v=25
56640 On ch=5 n=f3 v=48
57120 On ch=5 n=d3 v=52
57140 On ch=5 n=f3 v=0
57140 On ch=5 n=b3 v=0
57140 On ch=5 n=d4 v=0
57520 On ch=5 n=d3 v=0
57600 On ch=5 n=a2 v=55
58500 On ch=5 n=a2 v=0
58560 On ch=5 n=a2 v=48
59460 On ch=5 n=a2 v=0
59480 On ch=5 n=f3 v=50
59520 On ch=5 n=c4 v=32
59550 On ch=5 n=d#4 v=38
60420 On ch=5 n=d#4 v=0
60420 On ch=5 n=c4 v=0
60420 On ch=5 n=f3 v=0
60480 On ch=5 n=d4 v=40
60480 On ch=5 n=b3 v=25
60480 On ch=5 n=f3 v=48
60960 On ch=5 n=d3 v=52
60980 On ch=5 n=f3 v=0
60980 On ch=5 n=b3 v=0
60980 On ch=5 n=d4 v=0
61360 On ch=5 n=d3 v=0
61440 On ch=5 n=a3 v=42
61440 On ch=5 n=a2 v=50
62400 On ch=5 n=a2 v=0
62400 On ch=5 n=a3 v=0
62400 On ch=5 n=a3 v=35
62400 On ch=5 n=a2 v=45
63300 On ch=5 n=a2 v=0
63300 On ch=5 n=a3 v=0
63360 On ch=5 n=a3 v=75
63360 On ch=5 n=a2 v=90
63500 On ch=5 n=a2 v=0
63500 On ch=5 n=a3 v=0
63600 On ch=5 n=g4 v=70
63760 On ch=5 n=g4 v=0
63840 On ch=5 n=e4 v=75
64020 On ch=5 n=e4 v=0
64080 On ch=5 n=c#4 v=78
64220 On ch=5 n=c#4 v=0
64320 On ch=5 n=a3 v=80
64480 On ch=5 n=a3 v=0
64560 On ch=5 n=g3 v=75
64740 On ch=5 n=g3 v=0
64800 On ch=5 n=e3 v=85
65000 On ch=5 n=e3 v=0
65040 On ch=5 n=c#3 v=92
65200 On ch=5 n=c#3 v=0
65280 On ch=5 n=d3 v=95
65280 On ch=5 n=d2 v=105
66180 On ch=5 n=d2 v=0
66180 On ch=5 n=d3 v=0
66240 On ch=5 n=f3 v=68
66240 On ch=5 n=f2 v=90
66640 On ch=5 n=f2 v=0
66640 On ch=5 n=f3 v=0
67200 On ch=5 n=a#3 v=70
67200 On ch=5 n=a#2 v=85
67340 On ch=5 n=a#2 v=0
67340 On ch=5 n=a#3 v=0
67440 On ch=5 n=a#4 v=65
67600 On ch=5 n=a#4 v=0
67680 On ch=5 n=g4 v=70
67860 On ch=5 n=g4 v=0
67920 On ch=5 n=d4 v=73
68060 On ch=5 n=d4 v=0
68160 On ch=5 n=a#3 v=75
68320 On ch=5 n=a#3 v=0
68400 On ch=5 n=g3 v=70
68580 On ch=5 n=g3 v=0
68640 On ch=5 n=d3 v=80
68840 On ch=5 n=d3 v=0
68880 On ch=5 n=a#2 v=87
69040 On ch=5 n=a#2 v=0
69120 On ch=5 n=e3 v=90
69120 On ch=5 n=e2 v=100
70020 On ch=5 n=e2 v=0
70020 On ch=5 n=e3 v=0
70080 On ch=5 n=a3 v=63
70080 On ch=5 n=a2 v=85
70980 On ch=5 n=a2 v=0
70980 On ch=5 n=a3 v=0
71040 On ch=5 n=a#3 v=40
71040 On ch=5 n=a#2 v=60
71940 On ch=5 n=a#2 v=0
71940 On ch=5 n=a#3 v=0
72000 On ch=5 n=g3 v=33
72000 On ch=5 n=g2 v=50
72900 On ch=5 n=g2 v=0
72900 On ch=5 n=g3 v=0
72960 On ch=5 n=a3 v=35
72960 On ch=5 n=a2 v=53
73860 On ch=5 n=a2 v=0
73860 On ch=5 n=a3 v=0
73920 On ch=5 n=f3 v=40
73920 On ch=5 n=f2 v=60
74820 On ch=5 n=f2 v=0
74820 On ch=5 n=f3 v=0
74880 On ch=5 n=g3 v=45
74880 On ch=5 n=g2 v=65
75780 On ch=5 n=g2 v=0
75780 On ch=5 n=g3 v=0
75840 On ch=5 n=a2 v=55
76740 On ch=5 n=a2 v=0
76800 On ch=5 n=d3 v=35
76800 On ch=5 n=d2 v=50
77700 On ch=5 n=d2 v=0
77700 On ch=5 n=d3 v=0
77760 On ch=5 n=d3 v=40
78660 On ch=5 n=d3 v=0
78720 On ch=5 n=d2 v=48
78960 On ch=5 n=d3 v=40
78980 On ch=5 n=d2 v=0
79120 On ch=5 n=d3 v=0
79440 On ch=5 n=f#4 v=35
79580 On ch=5 n=f#4 v=0
79920 On ch=5 n=d4 v=42
80040 On ch=5 n=d4 v=0
80400 On ch=5 n=d3 v=45
80550 On ch=5 n=d3 v=0
80640 On ch=5 n=g2 v=48
80880 On ch=5 n=g3 v=40
80900 On ch=5 n=g2 v=0
81040 On ch=5 n=g3 v=0
81360 On ch=5 n=g4 v=45
81500 On ch=5 n=g4 v=0
81840 On ch=5 n=d4 v=55
81960 On ch=5 n=d4 v=0
82320 On ch=5 n=g3 v=61
82470 On ch=5 n=g3 v=0
82560 On ch=5 n=a2 v=65
82800 On ch=5 n=a3 v=57
82820 On ch=5 n=a2 v=0
82960 On ch=5 n=a3 v=0
83280 On ch=5 n=g4 v=62
83420 On ch=5 n=g4 v=0
83760 On ch=5 n=e4 v=72
83880 On ch=5 n=e4 v=0
84240 On ch=5 n=a3 v=78
84390 On ch=5 n=a3 v=0
84480 On ch=5 n=d4 v=65
84480 On ch=5 n=d3 v=82
84960 On ch=5 n=d3 v=0
84960 On ch=5 n=d4 v=0
84960 On ch=5 n=c#4 v=68
84960 On ch=5 n=c#3 v=85
85120 On ch=5 n=c#3 v=0
85120 On ch=5 n=c#4 v=0
85200 On ch=5 n=b3 v=70
85200 On ch=5 n=b2 v=90
85380 On ch=5 n=b2 v=0
85380 On ch=5 n=b3 v=0
85440 On ch=5 n=a3 v=72
85440 On ch=5 n=a2 v=93
85640 On ch=5 n=a2 v=0
85640 On ch=5 n=a3 v=0
85680 On ch=5 n=g3 v=74
85680 On ch=5 n=g2 v=95
85840 On ch=5 n=g2 v=0
85840 On ch=5 n=g3 v=0
85920 On ch=5 n=f#3 v=70
85920 On ch=5 n=f#2 v=85
86320 On ch=5 n=f#2 v=0
86320 On ch=5 n=f#3 v=0
86400 On ch=5 n=g3 v=90
86880 On ch=5 n=g3 v=0
86880 On ch=5 n=f#3 v=80
87040 On ch=5 n=f#3 v=0
87120 On ch=5 n=e3 v=72
87300 On ch=5 n=e3 v=0
87360 On ch=5 n=d3 v=74
87560 On ch=5 n=d3 v=0
87600 On ch=5 n=c#3 v=64
87760 On ch=5 n=c#3 v=0
87840 On ch=5 n=b2 v=58
88240 On ch=5 n=b2 v=0
88320 On ch=5 n=a2 v=50
88560 On ch=5 n=a3 v=40
88580 On ch=5 n=a2 v=0
88700 On ch=5 n=a3 v=0
89040 On ch=5 n=c#4 v=45
89200 On ch=5 n=c#4 v=0
89280 On ch=5 n=a2 v=48
89520 On ch=5 n=a3 v=38
89540 On ch=5 n=a2 v=0
89660 On ch=5 n=a3 v=0
90000 On ch=5 n=f#3 v=43
90160 On ch=5 n=f#3 v=0
90240 On ch=5 n=a2 v=45
90440 On ch=5 n=a2 v=0
90480 On ch=5 n=a3 v=38
90640 On ch=5 n=a3 v=0
90720 On ch=5 n=a2 v=40
90900 On ch=5 n=a2 v=0
90960 On ch=5 n=a3 v=33
91100 On ch=5 n=a3 v=0
91200 On ch=5 n=d3 v=35
91360 On ch=5 n=d3 v=0
91680 On ch=5 n=d3 v=30
91880 On ch=5 n=d3 v=0
92160 On ch=5 n=d2 v=58
92400 On ch=5 n=d3 v=50
92420 On ch=5 n=d2 v=0
92560 On ch=5 n=d3 v=0
92880 On ch=5 n=d4 v=45
93020 On ch=5 n=d4 v=0
93360 On ch=5 n=a3 v=52
93480 On ch=5 n=a3 v=0
93840 On ch=5 n=d3 v=55
93990 On ch=5 n=d3 v=0
94080 On ch=5 n=g2 v=58
94320 On ch=5 n=g3 v=50
94340 On ch=5 n=g2 v=0
94480 On ch=5 n=g3 v=0
94800 On ch=5 n=e4 v=55
94940 On ch=5 n=e4 v=0
95280 On ch=5 n=b3 v=65
95400 On ch=5 n=b3 v=0
95760 On ch=5 n=g3 v=71
95910 On ch=5 n=g3 v=0
96000 On ch=5 n=a2 v=75
96240 On ch=5 n=a3 v=67
96260 On ch=5 n=a2 v=0
96400 On ch=5 n=a3 v=0
96720 On ch=5 n=g4 v=72
96860 On ch=5 n=g4 v=0
97200 On ch=5 n=e4 v=82
97320 On ch=5 n=e4 v=0
97680 On ch=5 n=a3 v=88
97830 On ch=5 n=a3 v=0
97920 On ch=5 n=d4 v=75
97920 On ch=5 n=d3 v=92
98400 On ch=5 n=d3 v=0
98400 On ch=5 n=d4 v=0
98400 On ch=5 n=c#4 v=78
98400 On ch=5 n=c#3 v=95
98560 On ch=5 n=c#3 v=0
98560 On ch=5 n=c#4 v=0
98640 On ch=5 n=b3 v=80
98640 On ch=5 n=b2 v=100
98820 On ch=5 n=b2 v=0
98820 On ch=5 n=b3 v=0
98880 On ch=5 n=a3 v=82
98880 On ch=5 n=a2 v=103
99080 On ch=5 n=a2 v=0
99080 On ch=5 n=a3 v=0
99120 On ch=5 n=g3 v=84
99120 On ch=5 n=g2 v=105
99280 On ch=5 n=g2 v=0
99280 On ch=5 n=g3 v=0
99360 On ch=5 n=f#3 v=80
99360 On ch=5 n=f#2 v=95
99760 On ch=5 n=f#2 v=0
99760 On ch=5 n=f#3 v=0
99840 On ch=5 n=g3 v=100
100320 On ch=5 n=g3 v=0
100320 On ch=5 n=f#3 v=90
100480 On ch=5 n=f#3 v=0
100560 On ch=5 n=e3 v=82
100740 On ch=5 n=e3 v=0
100800 On ch=5 n=d3 v=84
101000 On ch=5 n=d3 v=0
101040 On ch=5 n=c#3 v=74
101200 On ch=5 n=c#3 v=0
101280 On ch=5 n=b2 v=68
101680 On ch=5 n=b2 v=0
101760 On ch=5 n=a2 v=60
102000 On ch=5 n=a3 v=50
102020 On ch=5 n=a2 v=0
102140 On ch=5 n=a3 v=0
102480 On ch=5 n=c#4 v=55
102640 On ch=5 n=c#4 v=0
102720 On ch=5 n=a2 v=58
102960 On ch=5 n=a3 v=48
102980 On ch=5 n=a2 v=0
103100 On ch=5 n=a3 v=0
103440 On ch=5 n=f#3 v=53
103600 On ch=5 n=f#3 v=0
103680 On ch=5 n=a2 v=55
103880 On ch=5 n=a2 v=0
103920 On ch=5 n=a3 v=48
104080 On ch=5 n=a3 v=0
104160 On ch=5 n=a2 v=50
104340 On ch=5 n=a2 v=0
104400 On ch=5 n=a3 v=43
104540 On ch=5 n=a3 v=0
104640 On ch=5 n=d3 v=45
104800 On ch=5 n=d3 v=0
105120 On ch=5 n=d3 v=40
105320 On ch=5 n=d3 v=0
105600 On ch=5 n=d4 v=85
105600 On ch=5 n=d3 v=102
106080 On ch=5 n=d3 v=0
106080 On ch=5 n=d4 v=0
106080 On ch=5 n=c#4 v=88
106080 On ch=5 n=c#3 v=105
106240 On ch=5 n=c#3 v=0
106240 On ch=5 n=c#4 v=0
106320 On ch=5 n=b3 v=90
106320 On ch=5 n=b2 v=110
106500 On ch=5 n=b2 v=0
106500 On ch=5 n=b3 v=0
106560 On ch=5 n=a3 v=92
106560 On ch=5 n=a2 v=113
106760 On ch=5 n=a2 v=0
106760 On ch=5 n=a3 v=0
106800 On ch=5 n=g3 v=94
106800 On ch=5 n=g2 v=115
106960 On ch=5 n=g2 v=0
106960 On ch=5 n=g3 v=0
107040 On ch=5 n=f#3 v=90
107040 On ch=5 n=f#2 v=105
107440 On ch=5 n=f#2 v=0
107440 On ch=5 n=f#3 v=0
107520 On ch=5 n=g3 v=110
108000 On ch=5 n=g3 v=0
108000 On ch=5 n=f#3 v=100
108160 On ch=5 n=f#3 v=0
108240 On ch=5 n=e3 v=92
108420 On ch=5 n=e3 v=0
108480 On ch=5 n=d3 v=94
108680 On ch=5 n=d3 v=0
108720 On ch=5 n=c#3 v=84
108880 On ch=5 n=c#3 v=0
108960 On ch=5 n=b2 v=78
109360 On ch=5 n=b2 v=0
109440 On ch=5 n=a2 v=70
109680 On ch=5 n=a3 v=60
109700 On ch=5 n=a2 v=0
109820 On ch=5 n=a3 v=0
110160 On ch=5 n=c#4 v=65
110320 On ch=5 n=c#4 v=0
110400 On ch=5 n=a2 v=68
110640 On ch=5 n=a3 v=58
110660 On ch=5 n=a2 v=0
110780 On ch=5 n=a3 v=0
111120 On ch=5 n=f#3 v=63
111280 On ch=5 n=f#3 v=0
111360 On ch=5 n=a2 v=65
111560 On ch=5 n=a2 v=0
111600 On ch=5 n=a3 v=58
111760 On ch=5 n=a3 v=0
111840 On ch=5 n=a2 v=60
112020 On ch=5 n=a2 v=0
112080 On ch=5 n=a3 v=53
112220 On ch=5 n=a3 v=0
112320 On ch=5 n=d3 v=55
112480 On ch=5 n=d3 v=0
112680 On ch=5 n=d3 v=50
112760 On ch=5 n=a3 v=38
112800 On ch=5 n=d4 v=42
112940 On ch=5 n=d3 v=0
112980 On ch=5 n=a3 v=0
113000 On ch=5 n=d4 v=0
113280 On ch=5 n=a3 v=75
113280 On ch=5 n=a2 v=90
113420 On ch=5 n=a2 v=0
113420 On ch=5 n=a3 v=0
113520 On ch=5 n=g4 v=70
113680 On ch=5 n=g4 v=0
113760 On ch=5 n=e4 v=75
113940 On ch=5 n=e4 v=0
114000 On ch=5 n=c#4 v=78
114140 On ch=5 n=c#4 v=0
114240 On ch=5 n=a3 v=80
114400 On ch=5 n=a3 v=0
114480 On ch=5 n=g3 v=75
114660 On ch=5 n=g3 v=0
114720 On ch=5 n=e3 v=85
114920 On ch=5 n=e3 v=0
114960 On ch=5 n=c#3 v=92
115120 On ch=5 n=c#3 v=0
115200 On ch=5 n=d3 v=95
115200 On ch=5 n=d2 v=105
116100 On ch=5 n=d2 v=0
116100 On ch=5 n=d3 v=0
116160 On ch=5 n=f3 v=68
116160 On ch=5 n=f2 v=90
116560 On ch=5 n=f2 v=0
116560 On ch=5 n=f3 v=0
117120 On ch=5 n=a#3 v=60
117120 On ch=5 n=a#2 v=75
117260 On ch=5 n=a#2 v=0
117260 On ch=5 n=a#3 v=0
117360 On ch=5 n=a#4 v=55
117520 On ch=5 n=a#4 v=0
117600 On ch=5 n=g4 v=60
117780 On ch=5 n=g4 v=0
117840 On ch=5 n=d4 v=63
117980 On ch=5 n=d4 v=0
118080 On ch=5 n=a#3 v=65
118240 On ch=5 n=a#3 v=0
118320 On ch=5 n=g3 v=60
118500 On ch=5 n=g3 v=0
118560 On ch=5 n=d3 v=70
118760 On ch=5 n=d3 v=0
118800 On ch=5 n=a#2 v=77
118960 On ch=5 n=a#2 v=0
119040 On ch=5 n=e3 v=80
119040 On ch=5 n=e2 v=90
119940 On ch=5 n=e2 v=0
119940 On ch=5 n=e3 v=0
120000 On ch=5 n=a3 v=53
120000 On ch=5 n=a2 v=75
120900 On ch=5 n=a2 v=0
120900 On ch=5 n=a3 v=0
120960 On ch=5 n=a#3 v=40
120960 On ch=5 n=a#2 v=60
121860 On ch=5 n=a#2 v=0
121860 On ch=5 n=a#3 v=0
121920 On ch=5 n=g3 v=33
121920 On ch=5 n=g2 v=50
122820 On ch=5 n=g2 v=0
122820 On ch=5 n=g3 v=0
122880 On ch=5 n=a3 v=35
122880 On ch=5 n=a2 v=53
123780 On ch=5 n=a2 v=0
123780 On ch=5 n=a3 v=0
123840 On ch=5 n=f3 v=40
123840 On ch=5 n=f2 v=60
124740 On ch=5 n=f2 v=0
124740 On ch=5 n=f3 v=0
124800 On ch=5 n=g3 v=45
124800 On ch=5 n=g2 v=65
125700 On ch=5 n=g2 v=0
125700 On ch=5 n=g3 v=0
125760 On ch=5 n=a2 v=55
126660 On ch=5 n=a2 v=0
126720 On ch=5 n=d3 v=35
126720 On ch=5 n=d2 v=50
127620 On ch=5 n=d2 v=0
127620 On ch=5 n=d3 v=0
127680 On ch=5 n=d3 v=40
128580 On ch=5 n=d3 v=0
128640 On ch=5 n=a3 v=75
128640 On ch=5 n=a2 v=90
128780 On ch=5 n=a2 v=0
128780 On ch=5 n=a3 v=0
128880 On ch=5 n=g4 v=70
129040 On ch=5 n=g4 v=0
129120 On ch=5 n=e4 v=75
129300 On ch=5 n=e4 v=0
129360 On ch=5 n=c#4 v=78
129500 On ch=5 n=c#4 v=0
129600 On ch=5 n=a3 v=80
129760 On ch=5 n=a3 v=0
129840 On ch=5 n=g3 v=75
130020 On ch=5 n=g3 v=0
130080 On ch=5 n=e3 v=85
130280 On ch=5 n=e3 v=0
130320 On ch=5 n=c#3 v=92
130480 On ch=5 n=c#3 v=0
130560 On ch=5 n=d3 v=95
130560 On ch=5 n=d2 v=105
131460 On ch=5 n=d2 v=0
131460 On ch=5 n=d3 v=0
131520 On ch=5 n=f3 v=68
131520 On ch=5 n=f2 v=90
131920 On ch=5 n=f2 v=0
131920 On ch=5 n=f3 v=0
132480 On ch=5 n=a#3 v=60
132480 On ch=5 n=a#2 v=75
132620 On ch=5 n=a#2 v=0
132620 On ch=5 n=a#3 v=0
132720 On ch=5 n=a#4 v=55
132880 On ch=5 n=a#4 v=0
132960 On ch=5 n=g4 v=60
133140 On ch=5 n=g4 v=0
133200 On ch=5 n=d4 v=63
133340 On ch=5 n=d4 v=0
133440 On ch=5 n=a#3 v=65
133600 On ch=5 n=a#3 v=0
133680 On ch=5 n=g3 v=60
133860 On ch=5 n=g3 v=0
133920 On ch=5 n=d3 v=70
134120 On ch=5 n=d3 v=0
134160 On ch=5 n=a#2 v=77
134320 On ch=5 n=a#2 v=0
134400 On ch=5 n=e3 v=80
134400 On ch=5 n=e2 v=90
135300 On ch=5 n=e2 v=0
135300 On ch=5 n=e3 v=0
135360 On ch=5 n=a3 v=53
135360 On ch=5 n=a2 v=75
136260 On ch=5 n=a2 v=0
136260 On ch=5 n=a3 v=0
136320 On ch=5 n=a#3 v=40
136320 On ch=5 n=a#2 v=60
137220 On ch=5 n=a#2 v=0
137220 On ch=5 n=a#3 v=0
137280 On ch=5 n=g3 v=33
137280 On ch=5 n=g2 v=50
138180 On ch=5 n=g2 v=0
138180 On ch=5 n=g3 v=0
138240 On ch=5 n=a3 v=35
138240 On ch=5 n=a2 v=53
139140 On ch=5 n=a2 v=0
139140 On ch=5 n=a3 v=0
139200 On ch=5 n=f3 v=40
139200 On ch=5 n=f2 v=60
140100 On ch=5 n=f2 v=0
140100 On ch=5 n=f3 v=0
140160 On ch=5 n=g3 v=45
140160 On ch=5 n=g2 v=65
141060 On ch=5 n=g2 v=0
141060 On ch=5 n=g3 v=0
141120 On ch=5 n=a2 v=55
142020 On ch=5 n=a2 v=0
142080 On ch=5 n=d3 v=35
142080 On ch=5 n=d2 v=50
142980 On ch=5 n=d2 v=0
142980 On ch=5 n=d3 v=0
143040 On ch=5 n=d3 v=40
143940 On ch=5 n=d3 v=0
144000 On ch=5 n=d4 v=85
144000 On ch=5 n=d3 v=100
144900 On ch=5 n=d3 v=0
144900 On ch=5 n=d4 v=0
144960 On ch=5 n=b3 v=82
144960 On ch=5 n=b2 v=105
145160 On ch=5 n=b2 v=0
145160 On ch=5 n=b3 v=0
145440 On ch=5 n=e4 v=78
145440 On ch=5 n=e3 v=98
145600 On ch=5 n=e3 v=0
145600 On ch=5 n=e4 v=0
145920 On ch=5 n=a3 v=80
145920 On ch=5 n=a2 v=103
146120 On ch=5 n=a2 v=0
146120 On ch=5 n=a3 v=0
146400 On ch=5 n=c4 v=70
146400 On ch=5 n=c3 v=90
146560 On ch=5 n=c3 v=0
146560 On ch=5 n=c4 v=0
146880 On ch=5 n=e3 v=82
147060 On ch=5 n=e3 v=0
147360 On ch=5 n=a3 v=74
147560 On ch=5 n=a3 v=0
147840 On ch=5 n=d4 v=90
147840 On ch=5 n=d3 v=105
148740 On ch=5 n=d3 v=0
148740 On ch=5 n=d4 v=0
148800 On ch=5 n=b3 v=87
148800 On ch=5 n=b2 v=110
149000 On ch=5 n=b2 v=0
149000 On ch=5 n=b3 v=0
149280 On ch=5 n=e4 v=83
149280 On ch=5 n=e3 v=103
149440 On ch=5 n=e3 v=0
149440 On ch=5 n=e4 v=0
149760 On ch=5 n=a3 v=85
149760 On ch=5 n=a2 v=108
149960 On ch=5 n=a2 v=0
149960 On ch=5 n=a3 v=0
150240 On ch=5 n=b3 v=70
150240 On ch=5 n=b2 v=90
150400 On ch=5 n=b2 v=0
150400 On ch=5 n=b3 v=0
150720 On ch=5 n=c4 v=58
150720 On ch=5 n=c3 v=75
150900 On ch=5 n=c3 v=0
150900 On ch=5 n=c4 v=0
151200 On ch=5 n=e4 v=45
151200 On ch=5 n=e3 v=60
151400 On ch=5 n=e3 v=0
151400 On ch=5 n=e4 v=0
151560 On ch=5 n=f3 v=50
151640 On ch=5 n=c4 v=32
151700 On ch=5 n=d#4 v=40
152580 On ch=5 n=d#4 v=0
152580 On ch=5 n=c4 v=0
152580 On ch=5 n=f3 v=0
152640 On ch=5 n=d4 v=40
152640 On ch=5 n=b3 v=25
152640 On ch=5 n=f3 v=48
153120 On ch=5 n=d3 v=52
153140 On ch=5 n=f3 v=0
153140 On ch=5 n=b3 v=0
153140 On ch=5 n=d4 v=0
153520 On ch=5 n=d3 v=0
153600 On ch=5 n=a2 v=55
154500 On ch=5 n=a2 v=0
154560 On ch=5 n=a2 v=48
155460 On ch=5 n=a2 v=0
155480 On ch=5 n=f3 v=50
155520 On ch=5 n=c4 v=32
155550 On ch=5 n=d#4 v=38
156420 On ch=5 n=d#4 v=0
156420 On ch=5 n=c4 v=0
156420 On ch=5 n=f3 v=0
156480 On ch=5 n=d4 v=40
156480 On ch=5 n=b3 v=25
156480 On ch=5 n=f3 v=48
156960 On ch=5 n=d3 v=52
156980 On ch=5 n=f3 v=0
156980 On ch=5 n=b3 v=0
156980 On ch=5 n=d4 v=0
157360 On ch=5 n=d3 v=0
157440 On ch=5 n=a3 v=42
157440 On ch=5 n=a2 v=50
158400 On ch=5 n=a2 v=0
158400 On ch=5 n=a3 v=0
158400 On ch=5 n=a3 v=35
158400 On ch=5 n=a2 v=45
159300 On ch=5 n=a2 v=0
159300 On ch=5 n=a3 v=0
159360 On ch=5 n=d4 v=85
159360 On ch=5 n=d3 v=100
160260 On ch=5 n=d3 v=0
160260 On ch=5 n=d4 v=0
160320 On ch=5 n=b3 v=82
160320 On ch=5 n=b2 v=105
160520 On ch=5 n=b2 v=0
160520 On ch=5 n=b3 v=0
160800 On ch=5 n=e4 v=78
160800 On ch=5 n=e3 v=98
160960 On ch=5 n=e3 v=0
160960 On ch=5 n=e4 v=0
161280 On ch=5 n=a3 v=80
161280 On ch=5 n=a2 v=103
161480 On ch=5 n=a2 v=0
161480 On ch=5 n=a3 v=0
161760 On ch=5 n=c4 v=70
161760 On ch=5 n=c3 v=90
161920 On ch=5 n=c3 v=0
161920 On ch=5 n=c4 v=0
162240 On ch=5 n=e3 v=82
162420 On ch=5 n=e3 v=0
162720 On ch=5 n=a3 v=74
162920 On ch=5 n=a3 v=0
163200 On ch=5 n=d4 v=90
163200 On ch=5 n=d3 v=105
164100 On ch=5 n=d3 v=0
164100 On ch=5 n=d4 v=0
164160 On ch=5 n=b3 v=87
164160 On ch=5 n=b2 v=110
164360 On ch=5 n=b2 v=0
164360 On ch=5 n=b3 v=0
164640 On ch=5 n=e4 v=83
164640 On ch=5 n=e3 v=103
164800 On ch=5 n=e3 v=0
164800 On ch=5 n=e4 v=0
165120 On ch=5 n=a3 v=85
165120 On ch=5 n=a2 v=108
165320 On ch=5 n=a2 v=0
165320 On ch=5 n=a3 v=0
165600 On ch=5 n=b3 v=70
165600 On ch=5 n=b2 v=90
165760 On ch=5 n=b2 v=0
165760 On ch=5 n=b3 v=0
166080 On ch=5 n=c4 v=58
166080 On ch=5 n=c3 v=75
166260 On ch=5 n=c3 v=0
166260 On ch=5 n=c4 v=0
166560 On ch=5 n=e4 v=45
166560 On ch=5 n=e3 v=60
166760 On ch=5 n=e3 v=0
166760 On ch=5 n=e4 v=0
166920 On ch=5 n=f3 v=50
167000 On ch=5 n=c4 v=32
167060 On ch=5 n=d#4 v=40
167940 On ch=5 n=d#4 v=0
167940 On ch=5 n=c4 v=0
167940 On ch=5 n=f3 v=0
168000 On ch=5 n=d4 v=40
168000 On ch=5 n=b3 v=25
168000 On ch=5 n=f3 v=48
168480 On ch=5 n=d3 v=52
168500 On ch=5 n=f3 v=0
168500 On ch=5 n=b3 v=0
168500 On ch=5 n=d4 v=0
168880 On ch=5 n=d3 v=0
168960 On ch=5 n=a2 v=55
169860 On ch=5 n=a2 v=0
169920 On ch=5 n=a2 v=48
170820 On ch=5 n=a2 v=0
170840 On ch=5 n=f3 v=50
170880 On ch=5 n=c4 v=32
170910 On ch=5 n=d#4 v=38
171780 On ch=5 n=d#4 v=0
171780 On ch=5 n=c4 v=0
171780 On ch=5 n=f3 v=0
171840 On ch=5 n=d4 v=40
171840 On ch=5 n=b3 v=25
171840 On ch=5 n=f3 v=48
172320 On ch=5 n=d3 v=52
172340 On ch=5 n=f3 v=0
172340 On ch=5 n=b3 v=0
172340 On ch=5 n=d4 v=0
172720 On ch=5 n=d3 v=0
172800 On ch=5 n=a3 v=42
172800 On ch=5 n=a2 v=50
173760 On ch=5 n=a2 v=0
173760 On ch=5 n=a3 v=0
173760 On ch=5 n=a3 v=35
173760 On ch=5 n=a2 v=45
174660 On ch=5 n=a2 v=0
174660 On ch=5 n=a3 v=0
174720 On ch=5 n=a3 v=75
174720 On ch=5 n=a2 v=90
174860 On ch=5 n=a2 v=0
174860 On ch=5 n=a3 v=0
174960 On ch=5 n=g4 v=70
175120 On ch=5 n=g4 v=0
175200 On ch=5 n=e4 v=75
175380 On ch=5 n=e4 v=0
175440 On ch=5 n=c#4 v=78
175580 On ch=5 n=c#4 v=0
175680 On ch=5 n=a3 v=80
175840 On ch=5 n=a3 v=0
175920 On ch=5 n=g3 v=75
176100 On ch=5 n=g3 v=0
176160 On ch=5 n=e3 v=85
176360 On ch=5 n=e3 v=0
176400 On ch=5 n=c#3 v=92
176560 On ch=5 n=c#3 v=0
176640 On ch=5 n=d3 v=95
176640 On ch=5 n=d2 v=105
177540 On ch=5 n=d2 v=0
177540 On ch=5 n=d3 v=0
177600 On ch=5 n=f3 v=68
177600 On ch=5 n=f2 v=90
178000 On ch=5 n=f2 v=0
178000 On ch=5 n=f3 v=0
178560 On ch=5 n=a#3 v=70
178560 On ch=5 n=a#2 v=85
178700 On ch=5 n=a#2 v=0
178700 On ch=5 n=a#3 v=0
178800 On ch=5 n=a#4 v=65
178960 On ch=5 n=a#4 v=0
179040 On ch=5 n=g4 v=70
179220 On ch=5 n=g4 v=0
179280 On ch=5 n=d4 v=73
179420 On ch=5 n=d4 v=0
179520 On ch=5 n=a#3 v=75
179680 On ch=5 n=a#3 v=0
179760 On ch=5 n=g3 v=70
179940 On ch=5 n=g3 v=0
180000 On ch=5 n=d3 v=80
180200 On ch=5 n=d3 v=0
180240 On ch=5 n=a#2 v=87
180400 On ch=5 n=a#2 v=0
180480 On ch=5 n=e3 v=90
180480 On ch=5 n=e2 v=100
181380 On ch=5 n=e2 v=0
181380 On ch=5 n=e3 v=0
181440 On ch=5 n=a3 v=63
181440 On ch=5 n=a2 v=85
182340 On ch=5 n=a2 v=0
182340 On ch=5 n=a3 v=0
182400 On ch=5 n=a#3 v=40
182400 On ch=5 n=a#2 v=60
183300 On ch=5 n=a#2 v=0
183300 On ch=5 n=a#3 v=0
183360 On ch=5 n=g3 v=33
183360 On ch=5 n=g2 v=50
184260 On ch=5 n=g2 v=0
184260 On ch=5 n=g3 v=0
184320 On ch=5 n=a3 v=35
184320 On ch=5 n=a2 v=53
185220 On ch=5 n=a2 v=0
185220 On ch=5 n=a3 v=0
185280 On ch=5 n=f3 v=40
185280 On ch=5 n=f2 v=60
186180 On ch=5 n=f2 v=0
186180 On ch=5 n=f3 v=0
186240 On ch=5 n=g3 v=45
186240 On ch=5 n=g2 v=65
187140 On ch=5 n=g2 v=0
187140 On ch=5 n=g3 v=0
187200 On ch=5 n=a#2 v=55
188100 On ch=5 n=a#2 v=0
188160 On ch=5 n=g#2 v=63
189060 On ch=5 n=g#2 v=0
189120 On ch=5 n=b2 v=75
190020 On ch=5 n=b2 v=0
190080 On ch=5 n=a3 v=80
190080 On ch=5 n=a2 v=90
190280 On ch=5 n=a3 v=0
190320 On ch=5 n=a3 v=82
190800 On ch=5 n=a3 v=0
190800 On ch=5 n=a3 v=70
191200 On ch=5 n=a3 v=0
191280 On ch=5 n=a3 v=75
191760 On ch=5 n=a3 v=0
191760 On ch=5 n=a3 v=78
191920 On ch=5 n=a3 v=0
191940 On ch=5 n=a2 v=0
192000 On ch=5 n=d3 v=70
192000 On ch=5 n=d2 v=90
192200 On ch=5 n=d2 v=0
192200 On ch=5 n=d3 v=0
192720 On ch=5 n=f4 v=95
192960 On ch=5 n=d4 v=100
192980 On ch=5 n=f4 v=0
193200 On ch=5 n=b3 v=98
193220 On ch=5 n=d4 v=0
193440 On ch=5 n=g#3 v=105
193460 On ch=5 n=b3 v=0
193680 On ch=5 n=f3 v=112
193700 On ch=5 n=g#3 v=0
193840 On ch=5 n=d2 v=120
193920 On ch=5 n=d3 v=108
193940 On ch=5 n=f3 v=0
194120 On ch=5 n=d3 v=0
194120 On ch=5 n=d2 v=0
194120 Meta TrkEnd
TrkEnd
MTrk
0 SeqSpec 43 00 01 00
0 Meta TrkName "Damper Pedal(P1-RH)                 "
1920 Par ch=1 c=64 v=0
1960 Par ch=1 c=64 v=127
2880 Par ch=1 c=64 v=127
3840 Par ch=1 c=64 v=127
3860 Par ch=1 c=64 v=0
3880 Par ch=1 c=64 v=127
4800 Par ch=1 c=64 v=127
4820 Par ch=1 c=64 v=0
4840 Par ch=1 c=64 v=127
5760 Par ch=1 c=64 v=127
5780 Par ch=1 c=64 v=0
5800 Par ch=1 c=64 v=127
6720 Par ch=1 c=64 v=127
7680 Par ch=1 c=64 v=127
7700 Par ch=1 c=64 v=0
7720 Par ch=1 c=64 v=127
8640 Par ch=1 c=64 v=127
8660 Par ch=1 c=64 v=0
8680 Par ch=1 c=64 v=127
9600 Par ch=1 c=64 v=127
9620 Par ch=1 c=64 v=0
9640 Par ch=1 c=64 v=127
10560 Par ch=1 c=64 v=127
10580 Par ch=1 c=64 v=0
10600 Par ch=1 c=64 v=127
11520 Par ch=1 c=64 v=127
11540 Par ch=1 c=64 v=0
11560 Par ch=1 c=64 v=127
12480 Par ch=1 c=64 v=127
12500 Par ch=1 c=64 v=0
12520 Par ch=1 c=64 v=127
13440 Par ch=1 c=64 v=127
13460 Par ch=1 c=64 v=0
13480 Par ch=1 c=64 v=127
14400 Par ch=1 c=64 v=127
14420 Par ch=1 c=64 v=0
14440 Par ch=1 c=64 v=127
15360 Par ch=1 c=64 v=127
15380 Par ch=1 c=64 v=0
15400 Par ch=1 c=64 v=127
16320 Par ch=1 c=64 v=127
16340 Par ch=1 c=64 v=0
16360 Par ch=1 c=64 v=127
16840 Par ch=1 c=64 v=0
17280 Par ch=1 c=64 v=0
17320 Par ch=1 c=64 v=127
18240 Par ch=1 c=64 v=127
19200 Par ch=1 c=64 v=127
19220 Par ch=1 c=64 v=0
19240 Par ch=1 c=64 v=127
20160 Par ch=1 c=64 v=127
20180 Par ch=1 c=64 v=0
20200 Par ch=1 c=64 v=127
21120 Par ch=1 c=64 v=127
21140 Par ch=1 c=64 v=0
21160 Par ch=1 c=64 v=127
22080 Par ch=1 c=64 v=127
23040 Par ch=1 c=64 v=127
23060 Par ch=1 c=64 v=0
23080 Par ch=1 c=64 v=127
24000 Par ch=1 c=64 v=127
24020 Par ch=1 c=64 v=0
24040 Par ch=1 c=64 v=127
24960 Par ch=1 c=64 v=127
24980 Par ch=1 c=64 v=0
25000 Par ch=1 c=64 v=127
25920 Par ch=1 c=64 v=127
25940 Par ch=1 c=64 v=0
25960 Par ch=1 c=64 v=127
26880 Par ch=1 c=64 v=127
26900 Par ch=1 c=64 v=0
26920 Par ch=1 c=64 v=127
27840 Par ch=1 c=64 v=127
27860 Par ch=1 c=64 v=0
27880 Par ch=1 c=64 v=127
28800 Par ch=1 c=64 v=127
28820 Par ch=1 c=64 v=0
28840 Par ch=1 c=64 v=127
29760 Par ch=1 c=64 v=127
29780 Par ch=1 c=64 v=0
29800 Par ch=1 c=64 v=127
30720 Par ch=1 c=64 v=127
30740 Par ch=1 c=64 v=0
30760 Par ch=1 c=64 v=127
31680 Par ch=1 c=64 v=127
31700 Par ch=1 c=64 v=0
31720 Par ch=1 c=64 v=127
32200 Par ch=1 c=64 v=0
32640 Par ch=1 c=64 v=0
32680 Par ch=1 c=64 v=127
33600 Par ch=1 c=64 v=127
33620 Par ch=1 c=64 v=0
33640 Par ch=1 c=64 v=127
34100 Par ch=1 c=64 v=0
34120 Par ch=1 c=64 v=127
34560 Par ch=1 c=64 v=127
34580 Par ch=1 c=64 v=0
35520 Par ch=1 c=64 v=0
36480 Par ch=1 c=64 v=0
36520 Par ch=1 c=64 v=127
37440 Par ch=1 c=64 v=127
37460 Par ch=1 c=64 v=0
37480 Par ch=1 c=64 v=127
37940 Par ch=1 c=64 v=0
37960 Par ch=1 c=64 v=127
38400 Par ch=1 c=64 v=127
38420 Par ch=1 c=64 v=0
39360 Par ch=1 c=64 v=0
40320 Par ch=1 c=64 v=0
40360 Par ch=1 c=64 v=127
41280 Par ch=1 c=64 v=127
41300 Par ch=1 c=64 v=0
41320 Par ch=1 c=64 v=127
42240 Par ch=1 c=64 v=127
42260 Par ch=1 c=64 v=0
42280 Par ch=1 c=64 v=127
43200 Par ch=1 c=64 v=127
43700 Par ch=1 c=64 v=0
44160 Par ch=1 c=64 v=0
44200 Par ch=1 c=64 v=127
45120 Par ch=1 c=64 v=127
45140 Par ch=1 c=64 v=0
45160 Par ch=1 c=64 v=127
46080 Par ch=1 c=64 v=127
46100 Par ch=1 c=64 v=0
46120 Par ch=1 c=64 v=127
47040 Par ch=1 c=64 v=127
47920 Par ch=1 c=64 v=0
48000 Par ch=1 c=64 v=0
48040 Par ch=1 c=64 v=127
48960 Par ch=1 c=64 v=127
48980 Par ch=1 c=64 v=0
49000 Par ch=1 c=64 v=127
49460 Par ch=1 c=64 v=0
49480 Par ch=1 c=64 v=127
49920 Par ch=1 c=64 v=127
49940 Par ch=1 c=64 v=0
50880 Par ch=1 c=64 v=0
51840 Par ch=1 c=64 v=0
51880 Par ch=1 c=64 v=127
52800 Par ch=1 c=64 v=127
52820 Par ch=1 c=64 v=0
52840 Par ch=1 c=64 v=127
53300 Par ch=1 c=64 v=0
53320 Par ch=1 c=64 v=127
53760 Par ch=1 c=64 v=127
53780 Par ch=1 c=64 v=0
54720 Par ch=1 c=64 v=0
55680 Par ch=1 c=64 v=0
55720 Par ch=1 c=64 v=127
56640 Par ch=1 c=64 v=127
56660 Par ch=1 c=64 v=0
56680 Par ch=1 c=64 v=127
57600 Par ch=1 c=64 v=127
57620 Par ch=1 c=64 v=0
57640 Par ch=1 c=64 v=127
58560 Par ch=1 c=64 v=127
59060 Par ch=1 c=64 v=0
59520 Par ch=1 c=64 v=0
59560 Par ch=1 c=64 v=127
60480 Par ch=1 c=64 v=127
60500 Par ch=1 c=64 v=0
60520 Par ch=1 c=64 v=127
61440 Par ch=1 c=64 v=127
61460 Par ch=1 c=64 v=0
61480 Par ch=1 c=64 v=127
62400 Par ch=1 c=64 v=127
63280 Par ch=1 c=64 v=0
63360 Par ch=1 c=64 v=0
63400 Par ch=1 c=64 v=127
64320 Par ch=1 c=64 v=127
65280 Par ch=1 c=64 v=127
65300 Par ch=1 c=64 v=0
65320 Par ch=1 c=64 v=127
66240 Par ch=1 c=64 v=127
66260 Par ch=1 c=64 v=0
66280 Par ch=1 c=64 v=127
67200 Par ch=1 c=64 v=127
67220 Par ch=1 c=64 v=0
67240 Par ch=1 c=64 v=127
68160 Par ch=1 c=64 v=127
69120 Par ch=1 c=64 v=127
69140 Par ch=1 c=64 v=0
69160 Par ch=1 c=64 v=127
70080 Par ch=1 c=64 v=127
70100 Par ch=1 c=64 v=0
70120 Par ch=1 c=64 v=127
71040 Par ch=1 c=64 v=127
71060 Par ch=1 c=64 v=0
71080 Par ch=1 c=64 v=127
72000 Par ch=1 c=64 v=127
72020 Par ch=1 c=64 v=0
72040 Par ch=1 c=64 v=127
72960 Par ch=1 c=64 v=127
72980 Par ch=1 c=64 v=0
73000 Par ch=1 c=64 v=127
73920 Par ch=1 c=64 v=127
73940 Par ch=1 c=64 v=0
73960 Par ch=1 c=64 v=127
74880 Par ch=1 c=64 v=127
74900 Par ch=1 c=64 v=0
74920 Par ch=1 c=64 v=127
75840 Par ch=1 c=64 v=127
75860 Par ch=1 c=64 v=0
75880 Par ch=1 c=64 v=127
76800 Par ch=1 c=64 v=127
76820 Par ch=1 c=64 v=0
76840 Par ch=1 c=64 v=127
77760 Par ch=1 c=64 v=127
77780 Par ch=1 c=64 v=0
77800 Par ch=1 c=64 v=127
78280 Par ch=1 c=64 v=0
78720 Par ch=1 c=64 v=0
78760 Par ch=1 c=64 v=127
79000 Par ch=1 c=64 v=0
79680 Par ch=1 c=64 v=0
80640 Par ch=1 c=64 v=0
80680 Par ch=1 c=64 v=127
80920 Par ch=1 c=64 v=0
81600 Par ch=1 c=64 v=0
82560 Par ch=1 c=64 v=0
82600 Par ch=1 c=64 v=127
82840 Par ch=1 c=64 v=0
83520 Par ch=1 c=64 v=0
84480 Par ch=1 c=64 v=0
84520 Par ch=1 c=64 v=127
85000 Par ch=1 c=64 v=0
85440 Par ch=1 c=64 v=0
85960 Par ch=1 c=64 v=127
86400 Par ch=1 c=64 v=127
86420 Par ch=1 c=64 v=0
86440 Par ch=1 c=64 v=127
86920 Par ch=1 c=64 v=0
87360 Par ch=1 c=64 v=0
87880 Par ch=1 c=64 v=127
88280 Par ch=1 c=64 v=0
88320 Par ch=1 c=64 v=0
88360 Par ch=1 c=64 v=127
88600 Par ch=1 c=64 v=0
89280 Par ch=1 c=64 v=0
89320 Par ch=1 c=64 v=127
89560 Par ch=1 c=64 v=0
90240 Par ch=1 c=64 v=0
91200 Par ch=1 c=64 v=0
91240 Par ch=1 c=64 v=127
91480 Par ch=1 c=64 v=0
91720 Par ch=1 c=64 v=127
92120 Par ch=1 c=64 v=0
92160 Par ch=1 c=64 v=0
92200 Par ch=1 c=64 v=127
92440 Par ch=1 c=64 v=0
93120 Par ch=1 c=64 v=0
94080 Par ch=1 c=64 v=0
94120 Par ch=1 c=64 v=127
94360 Par ch=1 c=64 v=0
95040 Par ch=1 c=64 v=0
96000 Par ch=1 c=64 v=0
96040 Par ch=1 c=64 v=127
96280 Par ch=1 c=64 v=0
96960 Par ch=1 c=64 v=0
97920 Par ch=1 c=64 v=0
97960 Par ch=1 c=64 v=127
98440 Par ch=1 c=64 v=0
98880 Par ch=1 c=64 v=0
99400 Par ch=1 c=64 v=127
99840 Par ch=1 c=64 v=127
99860 Par ch=1 c=64 v=0
99880 Par ch=1 c=64 v=127
100360 Par ch=1 c=64 v=0
100800 Par ch=1 c=64 v=0
101320 Par ch=1 c=64 v=127
101720 Par ch=1 c=64 v=0
101760 Par ch=1 c=64 v=0
101800 Par ch=1 c=64 v=127
102040 Par ch=1 c=64 v=0
102720 Par ch=1 c=64 v=0
102760 Par ch=1 c=64 v=127
103000 Par ch=1 c=64 v=0
103680 Par ch=1 c=64 v=0
104640 Par ch=1 c=64 v=0
104680 Par ch=1 c=64 v=127
104920 Par ch=1 c=64 v=0
105160 Par ch=1 c=64 v=127
105560 Par ch=1 c=64 v=0
105600 Par ch=1 c=64 v=0
105640 Par ch=1 c=64 v=127
106120 Par ch=1 c=64 v=0
106560 Par ch=1 c=64 v=0
107080 Par ch=1 c=64 v=127
107520 Par ch=1 c=64 v=127
107540 Par ch=1 c=64 v=0
107560 Par ch=1 c=64 v=127
108040 Par ch=1 c=64 v=0
108480 Par ch=1 c=64 v=0
109000 Par ch=1 c=64 v=127
109400 Par ch=1 c=64 v=0
109440 Par ch=1 c=64 v=0
109480 Par ch=1 c=64 v=127
109720 Par ch=1 c=64 v=0
110400 Par ch=1 c=64 v=0
110440 Par ch=1 c=64 v=127
110680 Par ch=1 c=64 v=0
111360 Par ch=1 c=64 v=0
112320 Par ch=1 c=64 v=0
112360 Par ch=1 c=64 v=127
112600 Par ch=1 c=64 v=0
112840 Par ch=1 c=64 v=127
113240 Par ch=1 c=64 v=0
113280 Par ch=1 c=64 v=0
113320 Par ch=1 c=64 v=127
114240 Par ch=1 c=64 v=127
115200 Par ch=1 c=64 v=127
115220 Par ch=1 c=64 v=0
115240 Par ch=1 c=64 v=127
116160 Par ch=1 c=64 v=127
116180 Par ch=1 c=64 v=0
116200 Par ch=1 c=64 v=127
117120 Par ch=1 c=64 v=127
117140 Par ch=1 c=64 v=0
117160 Par ch=1 c=64 v=127
118080 Par ch=1 c=64 v=127
119040 Par ch=1 c=64 v=127
119060 Par ch=1 c=64 v=0
119080 Par ch=1 c=64 v=127
120000 Par ch=1 c=64 v=127
120020 Par ch=1 c=64 v=0
120040 Par ch=1 c=64 v=127
120960 Par ch=1 c=64 v=127
120980 Par ch=1 c=64 v=0
121000 Par ch=1 c=64 v=127
121920 Par ch=1 c=64 v=127
121940 Par ch=1 c=64 v=0
121960 Par ch=1 c=64 v=127
122880 Par ch=1 c=64 v=127
122900 Par ch=1 c=64 v=0
122920 Par ch=1 c=64 v=127
123840 Par ch=1 c=64 v=127
123860 Par ch=1 c=64 v=0
123880 Par ch=1 c=64 v=127
124800 Par ch=1 c=64 v=127
124820 Par ch=1 c=64 v=0
124840 Par ch=1 c=64 v=127
125760 Par ch=1 c=64 v=127
125780 Par ch=1 c=64 v=0
125800 Par ch=1 c=64 v=127
126720 Par ch=1 c=64 v=127
126740 Par ch=1 c=64 v=0
126760 Par ch=1 c=64 v=127
127680 Par ch=1 c=64 v=127
127700 Par ch=1 c=64 v=0
127720 Par ch=1 c=64 v=127
128200 Par ch=1 c=64 v=0
128640 Par ch=1 c=64 v=0
128680 Par ch=1 c=64 v=127
129600 Par ch=1 c=64 v=127
130560 Par ch=1 c=64 v=127
130580 Par ch=1 c=64 v=0
130600 Par ch=1 c=64 v=127
131520 Par ch=1 c=64 v=127
131540 Par ch=1 c=64 v=0
131560 Par ch=1 c=64 v=127
132480 Par ch=1 c=64 v=127
132500 Par ch=1 c=64 v=0
132520 Par ch=1 c=64 v=127
133440 Par ch=1 c=64 v=127
134400 Par ch=1 c=64 v=127
134420 Par ch=1 c=64 v=0
134440 Par ch=1 c=64 v=127
135360 Par ch=1 c=64 v=127
135380 Par ch=1 c=64 v=0
135400 Par ch=1 c=64 v=127
136320 Par ch=1 c=64 v=127
136340 Par ch=1 c=64 v=0
136360 Par ch=1 c=64 v=127
137280 Par ch=1 c=64 v=127
137300 Par ch=1 c=64 v=0
137320 Par ch=1 c=64 v=127
138240 Par ch=1 c=64 v=127
138260 Par ch=1 c=64 v=0
138280 Par ch=1 c=64 v=127
139200 Par ch=1 c=64 v=127
139220 Par ch=1 c=64 v=0
139240 Par ch=1 c=64 v=127
140160 Par ch=1 c=64 v=127
140180 Par ch=1 c=64 v=0
140200 Par ch=1 c=64 v=127
141120 Par ch=1 c=64 v=127
141140 Par ch=1 c=64 v=0
141160 Par ch=1 c=64 v=127
142080 Par ch=1 c=64 v=127
142100 Par ch=1 c=64 v=0
142120 Par ch=1 c=64 v=127
143040 Par ch=1 c=64 v=127
143060 Par ch=1 c=64 v=0
143080 Par ch=1 c=64 v=127
143560 Par ch=1 c=64 v=0
144000 Par ch=1 c=64 v=0
144040 Par ch=1 c=64 v=127
144960 Par ch=1 c=64 v=127
144980 Par ch=1 c=64 v=0
145000 Par ch=1 c=64 v=127
145460 Par ch=1 c=64 v=0
145480 Par ch=1 c=64 v=127
145920 Par ch=1 c=64 v=127
145940 Par ch=1 c=64 v=0
146880 Par ch=1 c=64 v=0
147840 Par ch=1 c=64 v=0
147880 Par ch=1 c=64 v=127
148800 Par ch=1 c=64 v=127
148820 Par ch=1 c=64 v=0
148840 Par ch=1 c=64 v=127
149300 Par ch=1 c=64 v=0
149320 Par ch=1 c=64 v=127
149760 Par ch=1 c=64 v=127
149780 Par ch=1 c=64 v=0
150720 Par ch=1 c=64 v=0
151680 Par ch=1 c=64 v=0
151720 Par ch=1 c=64 v=127
152640 Par ch=1 c=64 v=127
152660 Par ch=1 c=64 v=0
152680 Par ch=1 c=64 v=127
153600 Par ch=1 c=64 v=127
153620 Par ch=1 c=64 v=0
153640 Par ch=1 c=64 v=127
154560 Par ch=1 c=64 v=127
155060 Par ch=1 c=64 v=0
155520 Par ch=1 c=64 v=0
155560 Par ch=1 c=64 v=127
156480 Par ch=1 c=64 v=127
156500 Par ch=1 c=64 v=0
156520 Par ch=1 c=64 v=127
157440 Par ch=1 c=64 v=127
157460 Par ch=1 c=64 v=0
157480 Par ch=1 c=64 v=127
158400 Par ch=1 c=64 v=127
159280 Par ch=1 c=64 v=0
159360 Par ch=1 c=64 v=0
159400 Par ch=1 c=64 v=127
160320 Par ch=1 c=64 v=127
160340 Par ch=1 c=64 v=0
160360 Par ch=1 c=64 v=127
160820 Par ch=1 c=64 v=0
160840 Par ch=1 c=64 v=127
161280 Par ch=1 c=64 v=127
161300 Par ch=1 c=64 v=0
162240 Par ch=1 c=64 v=0
163200 Par ch=1 c=64 v=0
163240 Par ch=1 c=64 v=127
164160 Par ch=1 c=64 v=127
164180 Par ch=1 c=64 v=0
164200 Par ch=1 c=64 v=127
164660 Par ch=1 c=64 v=0
164680 Par ch=1 c=64 v=127
165120 Par ch=1 c=64 v=127
165140 Par ch=1 c=64 v=0
166080 Par ch=1 c=64 v=0
167040 Par ch=1 c=64 v=0
167080 Par ch=1 c=64 v=127
168000 Par ch=1 c=64 v=127
168020 Par ch=1 c=64 v=0
168040 Par ch=1 c=64 v=127
168960 Par ch=1 c=64 v=127
168980 Par ch=1 c=64 v=0
169000 Par ch=1 c=64 v=127
169920 Par ch=1 c=64 v=127
170420 Par ch=1 c=64 v=0
170880 Par ch=1 c=64 v=0
170920 Par ch=1 c=64 v=127
171840 Par ch=1 c=64 v=127
171860 Par ch=1 c=64 v=0
171880 Par ch=1 c=64 v=127
172800 Par ch=1 c=64 v=127
172820 Par ch=1 c=64 v=0
172840 Par ch=1 c=64 v=127
173760 Par ch=1 c=64 v=127
174640 Par ch=1 c=64 v=0
174720 Par ch=1 c=64 v=0
174760 Par ch=1 c=64 v=127
175680 Par ch=1 c=64 v=127
176640 Par ch=1 c=64 v=127
176660 Par ch=1 c=64 v=0
176680 Par ch=1 c=64 v=127
177600 Par ch=1 c=64 v=127
177620 Par ch=1 c=64 v=0
177640 Par ch=1 c=64 v=127
178560 Par ch=1 c=64 v=127
178580 Par ch=1 c=64 v=0
178600 Par ch=1 c=64 v=127
179520 Par ch=1 c=64 v=127
180480 Par ch=1 c=64 v=127
180500 Par ch=1 c=64 v=0
180520 Par ch=1 c=64 v=127
181440 Par ch=1 c=64 v=127
181460 Par ch=1 c=64 v=0
181480 Par ch=1 c=64 v=127
182400 Par ch=1 c=64 v=127
182420 Par ch=1 c=64 v=0
182440 Par ch=1 c=64 v=127
183360 Par ch=1 c=64 v=127
183380 Par ch=1 c=64 v=0
183400 Par ch=1 c=64 v=127
184320 Par ch=1 c=64 v=127
184340 Par ch=1 c=64 v=0
184360 Par ch=1 c=64 v=127
185280 Par ch=1 c=64 v=127
185300 Par ch=1 c=64 v=0
185320 Par ch=1 c=64 v=127
186240 Par ch=1 c=64 v=127
186260 Par ch=1 c=64 v=0
186280 Par ch=1 c=64 v=127
187200 Par ch=1 c=64 v=127
187220 Par ch=1 c=64 v=0
187240 Par ch=1 c=64 v=127
187700 Par ch=1 c=64 v=0
187720 Par ch=1 c=64 v=127
188160 Par ch=1 c=64 v=127
188180 Par ch=1 c=64 v=0
188200 Par ch=1 c=64 v=127
189120 Par ch=1 c=64 v=127
189140 Par ch=1 c=64 v=0
189160 Par ch=1 c=64 v=127
189620 Par ch=1 c=64 v=0
189640 Par ch=1 c=64 v=127
190080 Par ch=1 c=64 v=127
190100 Par ch=1 c=64 v=0
190120 Par ch=1 c=64 v=127
191040 Par ch=1 c=64 v=127
191060 Par ch=1 c=64 v=0
191080 Par ch=1 c=64 v=127
191540 Par ch=1 c=64 v=0
191560 Par ch=1 c=64 v=127
192000 Par ch=1 c=64 v=127
192020 Par ch=1 c=64 v=0
192040 Par ch=1 c=64 v=127
192960 Par ch=1 c=64 v=127
193920 Par ch=1 c=64 v=127
193940 Par ch=1 c=64 v=0
193940 Meta TrkEnd
TrkEnd
MTrk
0 SeqSpec 43 00 01 00
0 Meta TrkName "Damper Pedal(P1-LH)                 "
1920 Par ch=2 c=64 v=0
1960 Par ch=2 c=64 v=127
2880 Par ch=2 c=64 v=127
3840 Par ch=2 c=64 v=127
3860 Par ch=2 c=64 v=0
3880 Par ch=2 c=64 v=127
4800 Par ch=2 c=64 v=127
4820 Par ch=2 c=64 v=0
4840 Par ch=2 c=64 v=127
5760 Par ch=2 c=64 v=127
5780 Par ch=2 c=64 v=0
5800 Par ch=2 c=64 v=127
6720 Par ch=2 c=64 v=127
7680 Par ch=2 c=64 v=127
7700 Par ch=2 c=64 v=0
7720 Par ch=2 c=64 v=127
8640 Par ch=2 c=64 v=127
8660 Par ch=2 c=64 v=0
8680 Par ch=2 c=64 v=127
9600 Par ch=2 c=64 v=127
9620 Par ch=2 c=64 v=0
9640 Par ch=2 c=64 v=127
10560 Par ch=2 c=64 v=127
10580 Par ch=2 c=64 v=0
10600 Par ch=2 c=64 v=127
11520 Par ch=2 c=64 v=127
11540 Par ch=2 c=64 v=0
11560 Par ch=2 c=64 v=127
12480 Par ch=2 c=64 v=127
12500 Par ch=2 c=64 v=0
12520 Par ch=2 c=64 v=127
13440 Par ch=2 c=64 v=127
13460 Par ch=2 c=64 v=0
13480 Par ch=2 c=64 v=127
14400 Par ch=2 c=64 v=127
14420 Par ch=2 c=64 v=0
14440 Par ch=2 c=64 v=127
15360 Par ch=2 c=64 v=127
15380 Par ch=2 c=64 v=0
15400 Par ch=2 c=64 v=127
16320 Par ch=2 c=64 v=127
16340 Par ch=2 c=64 v=0
16360 Par ch=2 c=64 v=127
16840 Par ch=2 c=64 v=0
17280 Par ch=2 c=64 v=0
17320 Par ch=2 c=64 v=127
18240 Par ch=2 c=64 v=127
19200 Par ch=2 c=64 v=127
19220 Par ch=2 c=64 v=0
19240 Par ch=2 c=64 v=127
20160 Par ch=2 c=64 v=127
20180 Par ch=2 c=64 v=0
20200 Par ch=2 c=64 v=127
21120 Par ch=2 c=64 v=127
21140 Par ch=2 c=64 v=0
21160 Par ch=2 c=64 v=127
22080 Par ch=2 c=64 v=127
23040 Par ch=2 c=64 v=127
23060 Par ch=2 c=64 v=0
23080 Par ch=2 c=64 v=127
24000 Par ch=2 c=64 v=127
24020 Par ch=2 c=64 v=0
24040 Par ch=2 c=64 v=127
24960 Par ch=2 c=64 v=127
24980 Par ch=2 c=64 v=0
25000 Par ch=2 c=64 v=127
25920 Par ch=2 c=64 v=127
25940 Par ch=2 c=64 v=0
25960 Par ch=2 c=64 v=127
26880 Par ch=2 c=64 v=127
26900 Par ch=2 c=64 v=0
26920 Par ch=2 c=64 v=127
27840 Par ch=2 c=64 v=127
27860 Par ch=2 c=64 v=0
27880 Par ch=2 c=64 v=127
28800 Par ch=2 c=64 v=127
28820 Par ch=2 c=64 v=0
28840 Par ch=2 c=64 v=127
29760 Par ch=2 c=64 v=127
29780 Par ch=2 c=64 v=0
29800 Par ch=2 c=64 v=127
30720 Par ch=2 c=64 v=127
30740 Par ch=2 c=64 v=0
30760 Par ch=2 c=64 v=127
31680 Par ch=2 c=64 v=127
31700 Par ch=2 c=64 v=0
31720 Par ch=2 c=64 v=127
32200 Par ch=2 c=64 v=0
32640 Par ch=2 c=64 v=0
32680 Par ch=2 c=64 v=127
33600 Par ch=2 c=64 v=127
33620 Par ch=2 c=64 v=0
33640 Par ch=2 c=64 v=127
34100 Par ch=2 c=64 v=0
34120 Par ch=2 c=64 v=127
34560 Par ch=2 c=64 v=127
34580 Par ch=2 c=64 v=0
35520 Par ch=2 c=64 v=0
36480 Par ch=2 c=64 v=0
36520 Par ch=2 c=64 v=127
37440 Par ch=2 c=64 v=127
37460 Par ch=2 c=64 v=0
37480 Par ch=2 c=64 v=127
37940 Par ch=2 c=64 v=0
37960 Par ch=2 c=64 v=127
38400 Par ch=2 c=64 v=127
38420 Par ch=2 c=64 v=0
39360 Par ch=2 c=64 v=0
40320 Par ch=2 c=64 v=0
40360 Par ch=2 c=64 v=127
41280 Par ch=2 c=64 v=127
41300 Par ch=2 c=64 v=0
41320 Par ch=2 c=64 v=127
42240 Par ch=2 c=64 v=127
42260 Par ch=2 c=64 v=0
42280 Par ch=2 c=64 v=127
43200 Par ch=2 c=64 v=127
43700 Par ch=2 c=64 v=0
44160 Par ch=2 c=64 v=0
44200 Par ch=2 c=64 v=127
45120 Par ch=2 c=64 v=127
45140 Par ch=2 c=64 v=0
45160 Par ch=2 c=64 v=127
46080 Par ch=2 c=64 v=127
46100 Par ch=2 c=64 v=0
46120 Par ch=2 c=64 v=127
47040 Par ch=2 c=64 v=127
47920 Par ch=2 c=64 v=0
48000 Par ch=2 c=64 v=0
48040 Par ch=2 c=64 v=127
48960 Par ch=2 c=64 v=127
48980 Par ch=2 c=64 v=0
49000 Par ch=2 c=64 v=127
49460 Par ch=2 c=64 v=0
49480 Par ch=2 c=64 v=127
49920 Par ch=2 c=64 v=127
49940 Par ch=2 c=64 v=0
50880 Par ch=2 c=64 v=0
51840 Par ch=2 c=64 v=0
51880 Par ch=2 c=64 v=127
52800 Par ch=2 c=64 v=127
52820 Par ch=2 c=64 v=0
52840 Par ch=2 c=64 v=127
53300 Par ch=2 c=64 v=0
53320 Par ch=2 c=64 v=127
53760 Par ch=2 c=64 v=127
53780 Par ch=2 c=64 v=0
54720 Par ch=2 c=64 v=0
55680 Par ch=2 c=64 v=0
55720 Par ch=2 c=64 v=127
56640 Par ch=2 c=64 v=127
56660 Par ch=2 c=64 v=0
56680 Par ch=2 c=64 v=127
57600 Par ch=2 c=64 v=127
57620 Par ch=2 c=64 v=0
57640 Par ch=2 c=64 v=127
58560 Par ch=2 c=64 v=127
59060 Par ch=2 c=64 v=0
59520 Par ch=2 c=64 v=0
59560 Par ch=2 c=64 v=127
60480 Par ch=2 c=64 v=127
60500 Par ch=2 c=64 v=0
60520 Par ch=2 c=64 v=127
61440 Par ch=2 c=64 v=127
61460 Par ch=2 c=64 v=0
61480 Par ch=2 c=64 v=127
62400 Par ch=2 c=64 v=127
63280 Par ch=2 c=64 v=0
63360 Par ch=2 c=64 v=0
63400 Par ch=2 c=64 v=127
64320 Par ch=2 c=64 v=127
65280 Par ch=2 c=64 v=127
65300 Par ch=2 c=64 v=0
65320 Par ch=2 c=64 v=127
66240 Par ch=2 c=64 v=127
66260 Par ch=2 c=64 v=0
66280 Par ch=2 c=64 v=127
67200 Par ch=2 c=64 v=127
67220 Par ch=2 c=64 v=0
67240 Par ch=2 c=64 v=127
68160 Par ch=2 c=64 v=127
69120 Par ch=2 c=64 v=127
69140 Par ch=2 c=64 v=0
69160 Par ch=2 c=64 v=127
70080 Par ch=2 c=64 v=127
70100 Par ch=2 c=64 v=0
70120 Par ch=2 c=64 v=127
71040 Par ch=2 c=64 v=127
71060 Par ch=2 c=64 v=0
71080 Par ch=2 c=64 v=127
72000 Par ch=2 c=64 v=127
72020 Par ch=2 c=64 v=0
72040 Par ch=2 c=64 v=127
72960 Par ch=2 c=64 v=127
72980 Par ch=2 c=64 v=0
73000 Par ch=2 c=64 v=127
73920 Par ch=2 c=64 v=127
73940 Par ch=2 c=64 v=0
73960 Par ch=2 c=64 v=127
74880 Par ch=2 c=64 v=127
74900 Par ch=2 c=64 v=0
74920 Par ch=2 c=64 v=127
75840 Par ch=2 c=64 v=127
75860 Par ch=2 c=64 v=0
75880 Par ch=2 c=64 v=127
76800 Par ch=2 c=64 v=127
76820 Par ch=2 c=64 v=0
76840 Par ch=2 c=64 v=127
77760 Par ch=2 c=64 v=127
77780 Par ch=2 c=64 v=0
77800 Par ch=2 c=64 v=127
78280 Par ch=2 c=64 v=0
78720 Par ch=2 c=64 v=0
78760 Par ch=2 c=64 v=127
79000 Par ch=2 c=64 v=0
79680 Par ch=2 c=64 v=0
80640 Par ch=2 c=64 v=0
80680 Par ch=2 c=64 v=127
80920 Par ch=2 c=64 v=0
81600 Par ch=2 c=64 v=0
82560 Par ch=2 c=64 v=0
82600 Par ch=2 c=64 v=127
82840 Par ch=2 c=64 v=0
83520 Par ch=2 c=64 v=0
84480 Par ch=2 c=64 v=0
84520 Par ch=2 c=64 v=127
85000 Par ch=2 c=64 v=0
85440 Par ch=2 c=64 v=0
85960 Par ch=2 c=64 v=127
86400 Par ch=2 c=64 v=127
86420 Par ch=2 c=64 v=0
86440 Par ch=2 c=64 v=127
86920 Par ch=2 c=64 v=0
87360 Par ch=2 c=64 v=0
87880 Par ch=2 c=64 v=127
88280 Par ch=2 c=64 v=0
88320 Par ch=2 c=64 v=0
88360 Par ch=2 c=64 v=127
88600 Par ch=2 c=64 v=0
89280 Par ch=2 c=64 v=0
89320 Par ch=2 c=64 v=127
89560 Par ch=2 c=64 v=0
90240 Par ch=2 c=64 v=0
91200 Par ch=2 c=64 v=0
91240 Par ch=2 c=64 v=127
91480 Par ch=2 c=64 v=0
91720 Par ch=2 c=64 v=127
92120 Par ch=2 c=64 v=0
92160 Par ch=2 c=64 v=0
92200 Par ch=2 c=64 v=127
92440 Par ch=2 c=64 v=0
93120 Par ch=2 c=64 v=0
94080 Par ch=2 c=64 v=0
94120 Par ch=2 c=64 v=127
94360 Par ch=2 c=64 v=0
95040 Par ch=2 c=64 v=0
96000 Par ch=2 c=64 v=0
96040 Par ch=2 c=64 v=127
96280 Par ch=2 c=64 v=0
96960 Par ch=2 c=64 v=0
97920 Par ch=2 c=64 v=0
97960 Par ch=2 c=64 v=127
98440 Par ch=2 c=64 v=0
98880 Par ch=2 c=64 v=0
99400 Par ch=2 c=64 v=127
99840 Par ch=2 c=64 v=127
99860 Par ch=2 c=64 v=0
99880 Par ch=2 c=64 v=127
100360 Par ch=2 c=64 v=0
100800 Par ch=2 c=64 v=0
101320 Par ch=2 c=64 v=127
101720 Par ch=2 c=64 v=0
101760 Par ch=2 c=64 v=0
101800 Par ch=2 c=64 v=127
102040 Par ch=2 c=64 v=0
102720 Par ch=2 c=64 v=0
102760 Par ch=2 c=64 v=127
103000 Par ch=2 c=64 v=0
103680 Par ch=2 c=64 v=0
104640 Par ch=2 c=64 v=0
104680 Par ch=2 c=64 v=127
104920 Par ch=2 c=64 v=0
105160 Par ch=2 c=64 v=127
105560 Par ch=2 c=64 v=0
105600 Par ch=2 c=64 v=0
105640 Par ch=2 c=64 v=127
106120 Par ch=2 c=64 v=0
106560 Par ch=2 c=64 v=0
107080 Par ch=2 c=64 v=127
107520 Par ch=2 c=64 v=127
107540 Par ch=2 c=64 v=0
107560 Par ch=2 c=64 v=127
108040 Par ch=2 c=64 v=0
108480 Par ch=2 c=64 v=0
109000 Par ch=2 c=64 v=127
109400 Par ch=2 c=64 v=0
109440 Par ch=2 c=64 v=0
109480 Par ch=2 c=64 v=127
109720 Par ch=2 c=64 v=0
110400 Par ch=2 c=64 v=0
110440 Par ch=2 c=64 v=127
110680 Par ch=2 c=64 v=0
111360 Par ch=2 c=64 v=0
112320 Par ch=2 c=64 v=0
112360 Par ch=2 c=64 v=127
112600 Par ch=2 c=64 v=0
112840 Par ch=2 c=64 v=127
113240 Par ch=2 c=64 v=0
113280 Par ch=2 c=64 v=0
113320 Par ch=2 c=64 v=127
114240 Par ch=2 c=64 v=127
115200 Par ch=2 c=64 v=127
115220 Par ch=2 c=64 v=0
115240 Par ch=2 c=64 v=127
116160 Par ch=2 c=64 v=127
116180 Par ch=2 c=64 v=0
116200 Par ch=2 c=64 v=127
117120 Par ch=2 c=64 v=127
117140 Par ch=2 c=64 v=0
117160 Par ch=2 c=64 v=127
118080 Par ch=2 c=64 v=127
119040 Par ch=2 c=64 v=127
119060 Par ch=2 c=64 v=0
119080 Par ch=2 c=64 v=127
120000 Par ch=2 c=64 v=127
120020 Par ch=2 c=64 v=0
120040 Par ch=2 c=64 v=127
120960 Par ch=2 c=64 v=127
120980 Par ch=2 c=64 v=0
121000 Par ch=2 c=64 v=127
121920 Par ch=2 c=64 v=127
121940 Par ch=2 c=64 v=0
121960 Par ch=2 c=64 v=127
122880 Par ch=2 c=64 v=127
122900 Par ch=2 c=64 v=0
122920 Par ch=2 c=64 v=127
123840 Par ch=2 c=64 v=127
123860 Par ch=2 c=64 v=0
123880 Par ch=2 c=64 v=127
124800 Par ch=2 c=64 v=127
124820 Par ch=2 c=64 v=0
124840 Par ch=2 c=64 v=127
125760 Par ch=2 c=64 v=127
125780 Par ch=2 c=64 v=0
125800 Par ch=2 c=64 v=127
126720 Par ch=2 c=64 v=127
126740 Par ch=2 c=64 v=0
126760 Par ch=2 c=64 v=127
127680 Par ch=2 c=64 v=127
127700 Par ch=2 c=64 v=0
127720 Par ch=2 c=64 v=127
128200 Par ch=2 c=64 v=0
128640 Par ch=2 c=64 v=0
128680 Par ch=2 c=64 v=127
129600 Par ch=2 c=64 v=127
130560 Par ch=2 c=64 v=127
130580 Par ch=2 c=64 v=0
130600 Par ch=2 c=64 v=127
131520 Par ch=2 c=64 v=127
131540 Par ch=2 c=64 v=0
131560 Par ch=2 c=64 v=127
132480 Par ch=2 c=64 v=127
132500 Par ch=2 c=64 v=0
132520 Par ch=2 c=64 v=127
133440 Par ch=2 c=64 v=127
134400 Par ch=2 c=64 v=127
134420 Par ch=2 c=64 v=0
134440 Par ch=2 c=64 v=127
135360 Par ch=2 c=64 v=127
135380 Par ch=2 c=64 v=0
135400 Par ch=2 c=64 v=127
136320 Par ch=2 c=64 v=127
136340 Par ch=2 c=64 v=0
136360 Par ch=2 c=64 v=127
137280 Par ch=2 c=64 v=127
137300 Par ch=2 c=64 v=0
137320 Par ch=2 c=64 v=127
138240 Par ch=2 c=64 v=127
138260 Par ch=2 c=64 v=0
138280 Par ch=2 c=64 v=127
139200 Par ch=2 c=64 v=127
139220 Par ch=2 c=64 v=0
139240 Par ch=2 c=64 v=127
140160 Par ch=2 c=64 v=127
140180 Par ch=2 c=64 v=0
140200 Par ch=2 c=64 v=127
141120 Par ch=2 c=64 v=127
141140 Par ch=2 c=64 v=0
141160 Par ch=2 c=64 v=127
142080 Par ch=2 c=64 v=127
142100 Par ch=2 c=64 v=0
142120 Par ch=2 c=64 v=127
143040 Par ch=2 c=64 v=127
143060 Par ch=2 c=64 v=0
143080 Par ch=2 c=64 v=127
143560 Par ch=2 c=64 v=0
144000 Par ch=2 c=64 v=0
144040 Par ch=2 c=64 v=127
144960 Par ch=2 c=64 v=127
144980 Par ch=2 c=64 v=0
145000 Par ch=2 c=64 v=127
145460 Par ch=2 c=64 v=0
145480 Par ch=2 c=64 v=127
145920 Par ch=2 c=64 v=127
145940 Par ch=2 c=64 v=0
146880 Par ch=2 c=64 v=0
147840 Par ch=2 c=64 v=0
147880 Par ch=2 c=64 v=127
148800 Par ch=2 c=64 v=127
148820 Par ch=2 c=64 v=0
148840 Par ch=2 c=64 v=127
149300 Par ch=2 c=64 v=0
149320 Par ch=2 c=64 v=127
149760 Par ch=2 c=64 v=127
149780 Par ch=2 c=64 v=0
150720 Par ch=2 c=64 v=0
151680 Par ch=2 c=64 v=0
151720 Par ch=2 c=64 v=127
152640 Par ch=2 c=64 v=127
152660 Par ch=2 c=64 v=0
152680 Par ch=2 c=64 v=127
153600 Par ch=2 c=64 v=127
153620 Par ch=2 c=64 v=0
153640 Par ch=2 c=64 v=127
154560 Par ch=2 c=64 v=127
155060 Par ch=2 c=64 v=0
155520 Par ch=2 c=64 v=0
155560 Par ch=2 c=64 v=127
156480 Par ch=2 c=64 v=127
156500 Par ch=2 c=64 v=0
156520 Par ch=2 c=64 v=127
157440 Par ch=2 c=64 v=127
157460 Par ch=2 c=64 v=0
157480 Par ch=2 c=64 v=127
158400 Par ch=2 c=64 v=127
159280 Par ch=2 c=64 v=0
159360 Par ch=2 c=64 v=0
159400 Par ch=2 c=64 v=127
160320 Par ch=2 c=64 v=127
160340 Par ch=2 c=64 v=0
160360 Par ch=2 c=64 v=127
160820 Par ch=2 c=64 v=0
160840 Par ch=2 c=64 v=127
161280 Par ch=2 c=64 v=127
161300 Par ch=2 c=64 v=0
162240 Par ch=2 c=64 v=0
163200 Par ch=2 c=64 v=0
163240 Par ch=2 c=64 v=127
164160 Par ch=2 c=64 v=127
164180 Par ch=2 c=64 v=0
164200 Par ch=2 c=64 v=127
164660 Par ch=2 c=64 v=0
164680 Par ch=2 c=64 v=127
165120 Par ch=2 c=64 v=127
165140 Par ch=2 c=64 v=0
166080 Par ch=2 c=64 v=0
167040 Par ch=2 c=64 v=0
167080 Par ch=2 c=64 v=127
168000 Par ch=2 c=64 v=127
168020 Par ch=2 c=64 v=0
168040 Par ch=2 c=64 v=127
168960 Par ch=2 c=64 v=127
168980 Par ch=2 c=64 v=0
169000 Par ch=2 c=64 v=127
169920 Par ch=2 c=64 v=127
170420 Par ch=2 c=64 v=0
170880 Par ch=2 c=64 v=0
170920 Par ch=2 c=64 v=127
171840 Par ch=2 c=64 v=127
171860 Par ch=2 c=64 v=0
171880 Par ch=2 c=64 v=127
172800 Par ch=2 c=64 v=127
172820 Par ch=2 c=64 v=0
172840 Par ch=2 c=64 v=127
173760 Par ch=2 c=64 v=127
174640 Par ch=2 c=64 v=0
174720 Par ch=2 c=64 v=0
174760 Par ch=2 c=64 v=127
175680 Par ch=2 c=64 v=127
176640 Par ch=2 c=64 v=127
176660 Par ch=2 c=64 v=0
176680 Par ch=2 c=64 v=127
177600 Par ch=2 c=64 v=127
177620 Par ch=2 c=64 v=0
177640 Par ch=2 c=64 v=127
178560 Par ch=2 c=64 v=127
178580 Par ch=2 c=64 v=0
178600 Par ch=2 c=64 v=127
179520 Par ch=2 c=64 v=127
180480 Par ch=2 c=64 v=127
180500 Par ch=2 c=64 v=0
180520 Par ch=2 c=64 v=127
181440 Par ch=2 c=64 v=127
181460 Par ch=2 c=64 v=0
181480 Par ch=2 c=64 v=127
182400 Par ch=2 c=64 v=127
182420 Par ch=2 c=64 v=0
182440 Par ch=2 c=64 v=127
183360 Par ch=2 c=64 v=127
183380 Par ch=2 c=64 v=0
183400 Par ch=2 c=64 v=127
184320 Par ch=2 c=64 v=127
184340 Par ch=2 c=64 v=0
184360 Par ch=2 c=64 v=127
185280 Par ch=2 c=64 v=127
185300 Par ch=2 c=64 v=0
185320 Par ch=2 c=64 v=127
186240 Par ch=2 c=64 v=127
186260 Par ch=2 c=64 v=0
186280 Par ch=2 c=64 v=127
187200 Par ch=2 c=64 v=127
187220 Par ch=2 c=64 v=0
187240 Par ch=2 c=64 v=127
187700 Par ch=2 c=64 v=0
187720 Par ch=2 c=64 v=127
188160 Par ch=2 c=64 v=127
188180 Par ch=2 c=64 v=0
188200 Par ch=2 c=64 v=127
189120 Par ch=2 c=64 v=127
189140 Par ch=2 c=64 v=0
189160 Par ch=2 c=64 v=127
189620 Par ch=2 c=64 v=0
189640 Par ch=2 c=64 v=127
190080 Par ch=2 c=64 v=127
190100 Par ch=2 c=64 v=0
190120 Par ch=2 c=64 v=127
191040 Par ch=2 c=64 v=127
191060 Par ch=2 c=64 v=0
191080 Par ch=2 c=64 v=127
191540 Par ch=2 c=64 v=0
191560 Par ch=2 c=64 v=127
192000 Par ch=2 c=64 v=127
192020 Par ch=2 c=64 v=0
192040 Par ch=2 c=64 v=127
192960 Par ch=2 c=64 v=127
193920 Par ch=2 c=64 v=127
193940 Par ch=2 c=64 v=0
193940 Meta TrkEnd
TrkEnd
MTrk
0 SeqSpec 43 00 01 00
0 Meta TrkName "Damper Pedal(P2-RH)                 "
1920 Par ch=4 c=64 v=0
1960 Par ch=4 c=64 v=127
2880 Par ch=4 c=64 v=127
3840 Par ch=4 c=64 v=127
3860 Par ch=4 c=64 v=0
3880 Par ch=4 c=64 v=127
4800 Par ch=4 c=64 v=127
4820 Par ch=4 c=64 v=0
4840 Par ch=4 c=64 v=127
5760 Par ch=4 c=64 v=127
5780 Par ch=4 c=64 v=0
5800 Par ch=4 c=64 v=127
6720 Par ch=4 c=64 v=127
7680 Par ch=4 c=64 v=127
7700 Par ch=4 c=64 v=0
7720 Par ch=4 c=64 v=127
8640 Par ch=4 c=64 v=127
8660 Par ch=4 c=64 v=0
8680 Par ch=4 c=64 v=127
9600 Par ch=4 c=64 v=127
9620 Par ch=4 c=64 v=0
9640 Par ch=4 c=64 v=127
10560 Par ch=4 c=64 v=127
10580 Par ch=4 c=64 v=0
10600 Par ch=4 c=64 v=127
11520 Par ch=4 c=64 v=127
11540 Par ch=4 c=64 v=0
11560 Par ch=4 c=64 v=127
12480 Par ch=4 c=64 v=127
12500 Par ch=4 c=64 v=0
12520 Par ch=4 c=64 v=127
13440 Par ch=4 c=64 v=127
13460 Par ch=4 c=64 v=0
13480 Par ch=4 c=64 v=127
14400 Par ch=4 c=64 v=127
14420 Par ch=4 c=64 v=0
14440 Par ch=4 c=64 v=127
15360 Par ch=4 c=64 v=127
15380 Par ch=4 c=64 v=0
15400 Par ch=4 c=64 v=127
16320 Par ch=4 c=64 v=127
16340 Par ch=4 c=64 v=0
16360 Par ch=4 c=64 v=127
16840 Par ch=4 c=64 v=0
17280 Par ch=4 c=64 v=0
17320 Par ch=4 c=64 v=127
18240 Par ch=4 c=64 v=127
19200 Par ch=4 c=64 v=127
19220 Par ch=4 c=64 v=0
19240 Par ch=4 c=64 v=127
20160 Par ch=4 c=64 v=127
20180 Par ch=4 c=64 v=0
20200 Par ch=4 c=64 v=127
21120 Par ch=4 c=64 v=127
21140 Par ch=4 c=64 v=0
21160 Par ch=4 c=64 v=127
22080 Par ch=4 c=64 v=127
23040 Par ch=4 c=64 v=127
23060 Par ch=4 c=64 v=0
23080 Par ch=4 c=64 v=127
24000 Par ch=4 c=64 v=127
24020 Par ch=4 c=64 v=0
24040 Par ch=4 c=64 v=127
24960 Par ch=4 c=64 v=127
24980 Par ch=4 c=64 v=0
25000 Par ch=4 c=64 v=127
25920 Par ch=4 c=64 v=127
25940 Par ch=4 c=64 v=0
25960 Par ch=4 c=64 v=127
26880 Par ch=4 c=64 v=127
26900 Par ch=4 c=64 v=0
26920 Par ch=4 c=64 v=127
27840 Par ch=4 c=64 v=127
27860 Par ch=4 c=64 v=0
27880 Par ch=4 c=64 v=127
28800 Par ch=4 c=64 v=127
28820 Par ch=4 c=64 v=0
28840 Par ch=4 c=64 v=127
29760 Par ch=4 c=64 v=127
29780 Par ch=4 c=64 v=0
29800 Par ch=4 c=64 v=127
30720 Par ch=4 c=64 v=127
30740 Par ch=4 c=64 v=0
30760 Par ch=4 c=64 v=127
31680 Par ch=4 c=64 v=127
31700 Par ch=4 c=64 v=0
31720 Par ch=4 c=64 v=127
32200 Par ch=4 c=64 v=0
32640 Par ch=4 c=64 v=0
32680 Par ch=4 c=64 v=127
33600 Par ch=4 c=64 v=127
33620 Par ch=4 c=64 v=0
33640 Par ch=4 c=64 v=127
34100 Par ch=4 c=64 v=0
34120 Par ch=4 c=64 v=127
34560 Par ch=4 c=64 v=127
34580 Par ch=4 c=64 v=0
35520 Par ch=4 c=64 v=0
36480 Par ch=4 c=64 v=0
36520 Par ch=4 c=64 v=127
37440 Par ch=4 c=64 v=127
37460 Par ch=4 c=64 v=0
37480 Par ch=4 c=64 v=127
37940 Par ch=4 c=64 v=0
37960 Par ch=4 c=64 v=127
38400 Par ch=4 c=64 v=127
38420 Par ch=4 c=64 v=0
39360 Par ch=4 c=64 v=0
40320 Par ch=4 c=64 v=0
40360 Par ch=4 c=64 v=127
41280 Par ch=4 c=64 v=127
41300 Par ch=4 c=64 v=0
41320 Par ch=4 c=64 v=127
42240 Par ch=4 c=64 v=127
42260 Par ch=4 c=64 v=0
42280 Par ch=4 c=64 v=127
43200 Par ch=4 c=64 v=127
43700 Par ch=4 c=64 v=0
44160 Par ch=4 c=64 v=0
44200 Par ch=4 c=64 v=127
45120 Par ch=4 c=64 v=127
45140 Par ch=4 c=64 v=0
45160 Par ch=4 c=64 v=127
46080 Par ch=4 c=64 v=127
46100 Par ch=4 c=64 v=0
46120 Par ch=4 c=64 v=127
47040 Par ch=4 c=64 v=127
47920 Par ch=4 c=64 v=0
48000 Par ch=4 c=64 v=0
48040 Par ch=4 c=64 v=127
48960 Par ch=4 c=64 v=127
48980 Par ch=4 c=64 v=0
49000 Par ch=4 c=64 v=127
49460 Par ch=4 c=64 v=0
49480 Par ch=4 c=64 v=127
49920 Par ch=4 c=64 v=127
49940 Par ch=4 c=64 v=0
50880 Par ch=4 c=64 v=0
51840 Par ch=4 c=64 v=0
51880 Par ch=4 c=64 v=127
52800 Par ch=4 c=64 v=127
52820 Par ch=4 c=64 v=0
52840 Par ch=4 c=64 v=127
53300 Par ch=4 c=64 v=0
53320 Par ch=4 c=64 v=127
53760 Par ch=4 c=64 v=127
53780 Par ch=4 c=64 v=0
54720 Par ch=4 c=64 v=0
55680 Par ch=4 c=64 v=0
55720 Par ch=4 c=64 v=127
56640 Par ch=4 c=64 v=127
56660 Par ch=4 c=64 v=0
56680 Par ch=4 c=64 v=127
57600 Par ch=4 c=64 v=127
57620 Par ch=4 c=64 v=0
57640 Par ch=4 c=64 v=127
58560 Par ch=4 c=64 v=127
59060 Par ch=4 c=64 v=0
59520 Par ch=4 c=64 v=0
59560 Par ch=4 c=64 v=127
60480 Par ch=4 c=64 v=127
60500 Par ch=4 c=64 v=0
60520 Par ch=4 c=64 v=127
61440 Par ch=4 c=64 v=127
61460 Par ch=4 c=64 v=0
61480 Par ch=4 c=64 v=127
62400 Par ch=4 c=64 v=127
63280 Par ch=4 c=64 v=0
63360 Par ch=4 c=64 v=0
63400 Par ch=4 c=64 v=127
64320 Par ch=4 c=64 v=127
65280 Par ch=4 c=64 v=127
65300 Par ch=4 c=64 v=0
65320 Par ch=4 c=64 v=127
66240 Par ch=4 c=64 v=127
66260 Par ch=4 c=64 v=0
66280 Par ch=4 c=64 v=127
67200 Par ch=4 c=64 v=127
67220 Par ch=4 c=64 v=0
67240 Par ch=4 c=64 v=127
68160 Par ch=4 c=64 v=127
69120 Par ch=4 c=64 v=127
69140 Par ch=4 c=64 v=0
69160 Par ch=4 c=64 v=127
70080 Par ch=4 c=64 v=127
70100 Par ch=4 c=64 v=0
70120 Par ch=4 c=64 v=127
71040 Par ch=4 c=64 v=127
71060 Par ch=4 c=64 v=0
71080 Par ch=4 c=64 v=127
72000 Par ch=4 c=64 v=127
72020 Par ch=4 c=64 v=0
72040 Par ch=4 c=64 v=127
72960 Par ch=4 c=64 v=127
72980 Par ch=4 c=64 v=0
73000 Par ch=4 c=64 v=127
73920 Par ch=4 c=64 v=127
73940 Par ch=4 c=64 v=0
73960 Par ch=4 c=64 v=127
74880 Par ch=4 c=64 v=127
74900 Par ch=4 c=64 v=0
74920 Par ch=4 c=64 v=127
75840 Par ch=4 c=64 v=127
75860 Par ch=4 c=64 v=0
75880 Par ch=4 c=64 v=127
76800 Par ch=4 c=64 v=127
76820 Par ch=4 c=64 v=0
76840 Par ch=4 c=64 v=127
77760 Par ch=4 c=64 v=127
77780 Par ch=4 c=64 v=0
77800 Par ch=4 c=64 v=127
78280 Par ch=4 c=64 v=0
78720 Par ch=4 c=64 v=0
78760 Par ch=4 c=64 v=127
79000 Par ch=4 c=64 v=0
79680 Par ch=4 c=64 v=0
80640 Par ch=4 c=64 v=0
80680 Par ch=4 c=64 v=127
80920 Par ch=4 c=64 v=0
81600 Par ch=4 c=64 v=0
82560 Par ch=4 c=64 v=0
82600 Par ch=4 c=64 v=127
82840 Par ch=4 c=64 v=0
83520 Par ch=4 c=64 v=0
84480 Par ch=4 c=64 v=0
84520 Par ch=4 c=64 v=127
85000 Par ch=4 c=64 v=0
85440 Par ch=4 c=64 v=0
85960 Par ch=4 c=64 v=127
86400 Par ch=4 c=64 v=127
86420 Par ch=4 c=64 v=0
86440 Par ch=4 c=64 v=127
86920 Par ch=4 c=64 v=0
87360 Par ch=4 c=64 v=0
87880 Par ch=4 c=64 v=127
88280 Par ch=4 c=64 v=0
88320 Par ch=4 c=64 v=0
88360 Par ch=4 c=64 v=127
88600 Par ch=4 c=64 v=0
89280 Par ch=4 c=64 v=0
89320 Par ch=4 c=64 v=127
89560 Par ch=4 c=64 v=0
90240 Par ch=4 c=64 v=0
91200 Par ch=4 c=64 v=0
91240 Par ch=4 c=64 v=127
91480 Par ch=4 c=64 v=0
91720 Par ch=4 c=64 v=127
92120 Par ch=4 c=64 v=0
92160 Par ch=4 c=64 v=0
92200 Par ch=4 c=64 v=127
92440 Par ch=4 c=64 v=0
93120 Par ch=4 c=64 v=0
94080 Par ch=4 c=64 v=0
94120 Par ch=4 c=64 v=127
94360 Par ch=4 c=64 v=0
95040 Par ch=4 c=64 v=0
96000 Par ch=4 c=64 v=0
96040 Par ch=4 c=64 v=127
96280 Par ch=4 c=64 v=0
96960 Par ch=4 c=64 v=0
97920 Par ch=4 c=64 v=0
97960 Par ch=4 c=64 v=127
98440 Par ch=4 c=64 v=0
98880 Par ch=4 c=64 v=0
99400 Par ch=4 c=64 v=127
99840 Par ch=4 c=64 v=127
99860 Par ch=4 c=64 v=0
99880 Par ch=4 c=64 v=127
100360 Par ch=4 c=64 v=0
100800 Par ch=4 c=64 v=0
101320 Par ch=4 c=64 v=127
101720 Par ch=4 c=64 v=0
101760 Par ch=4 c=64 v=0
101800 Par ch=4 c=64 v=127
102040 Par ch=4 c=64 v=0
102720 Par ch=4 c=64 v=0
102760 Par ch=4 c=64 v=127
103000 Par ch=4 c=64 v=0
103680 Par ch=4 c=64 v=0
104640 Par ch=4 c=64 v=0
104680 Par ch=4 c=64 v=127
104920 Par ch=4 c=64 v=0
105160 Par ch=4 c=64 v=127
105560 Par ch=4 c=64 v=0
105600 Par ch=4 c=64 v=0
105640 Par ch=4 c=64 v=127
106120 Par ch=4 c=64 v=0
106560 Par ch=4 c=64 v=0
107080 Par ch=4 c=64 v=127
107520 Par ch=4 c=64 v=127
107540 Par ch=4 c=64 v=0
107560 Par ch=4 c=64 v=127
108040 Par ch=4 c=64 v=0
108480 Par ch=4 c=64 v=0
109000 Par ch=4 c=64 v=127
109400 Par ch=4 c=64 v=0
109440 Par ch=4 c=64 v=0
109480 Par ch=4 c=64 v=127
109720 Par ch=4 c=64 v=0
110400 Par ch=4 c=64 v=0
110440 Par ch=4 c=64 v=127
110680 Par ch=4 c=64 v=0
111360 Par ch=4 c=64 v=0
112320 Par ch=4 c=64 v=0
112360 Par ch=4 c=64 v=127
112600 Par ch=4 c=64 v=0
112840 Par ch=4 c=64 v=127
113240 Par ch=4 c=64 v=0
113280 Par ch=4 c=64 v=0
113320 Par ch=4 c=64 v=127
114240 Par ch=4 c=64 v=127
115200 Par ch=4 c=64 v=127
115220 Par ch=4 c=64 v=0
115240 Par ch=4 c=64 v=127
116160 Par ch=4 c=64 v=127
116180 Par ch=4 c=64 v=0
116200 Par ch=4 c=64 v=127
117120 Par ch=4 c=64 v=127
117140 Par ch=4 c=64 v=0
117160 Par ch=4 c=64 v=127
118080 Par ch=4 c=64 v=127
119040 Par ch=4 c=64 v=127
119060 Par ch=4 c=64 v=0
119080 Par ch=4 c=64 v=127
120000 Par ch=4 c=64 v=127
120020 Par ch=4 c=64 v=0
120040 Par ch=4 c=64 v=127
120960 Par ch=4 c=64 v=127
120980 Par ch=4 c=64 v=0
121000 Par ch=4 c=64 v=127
121920 Par ch=4 c=64 v=127
121940 Par ch=4 c=64 v=0
121960 Par ch=4 c=64 v=127
122880 Par ch=4 c=64 v=127
122900 Par ch=4 c=64 v=0
122920 Par ch=4 c=64 v=127
123840 Par ch=4 c=64 v=127
123860 Par ch=4 c=64 v=0
123880 Par ch=4 c=64 v=127
124800 Par ch=4 c=64 v=127
124820 Par ch=4 c=64 v=0
124840 Par ch=4 c=64 v=127
125760 Par ch=4 c=64 v=127
125780 Par ch=4 c=64 v=0
125800 Par ch=4 c=64 v=127
126720 Par ch=4 c=64 v=127
126740 Par ch=4 c=64 v=0
126760 Par ch=4 c=64 v=127
127680 Par ch=4 c=64 v=127
127700 Par ch=4 c=64 v=0
127720 Par ch=4 c=64 v=127
128200 Par ch=4 c=64 v=0
128640 Par ch=4 c=64 v=0
128680 Par ch=4 c=64 v=127
129600 Par ch=4 c=64 v=127
130560 Par ch=4 c=64 v=127
130580 Par ch=4 c=64 v=0
130600 Par ch=4 c=64 v=127
131520 Par ch=4 c=64 v=127
131540 Par ch=4 c=64 v=0
131560 Par ch=4 c=64 v=127
132480 Par ch=4 c=64 v=127
132500 Par ch=4 c=64 v=0
132520 Par ch=4 c=64 v=127
133440 Par ch=4 c=64 v=127
134400 Par ch=4 c=64 v=127
134420 Par ch=4 c=64 v=0
134440 Par ch=4 c=64 v=127
135360 Par ch=4 c=64 v=127
135380 Par ch=4 c=64 v=0
135400 Par ch=4 c=64 v=127
136320 Par ch=4 c=64 v=127
136340 Par ch=4 c=64 v=0
136360 Par ch=4 c=64 v=127
137280 Par ch=4 c=64 v=127
137300 Par ch=4 c=64 v=0
137320 Par ch=4 c=64 v=127
138240 Par ch=4 c=64 v=127
138260 Par ch=4 c=64 v=0
138280 Par ch=4 c=64 v=127
139200 Par ch=4 c=64 v=127
139220 Par ch=4 c=64 v=0
139240 Par ch=4 c=64 v=127
140160 Par ch=4 c=64 v=127
140180 Par ch=4 c=64 v=0
140200 Par ch=4 c=64 v=127
141120 Par ch=4 c=64 v=127
141140 Par ch=4 c=64 v=0
141160 Par ch=4 c=64 v=127
142080 Par ch=4 c=64 v=127
142100 Par ch=4 c=64 v=0
142120 Par ch=4 c=64 v=127
143040 Par ch=4 c=64 v=127
143060 Par ch=4 c=64 v=0
143080 Par ch=4 c=64 v=127
143560 Par ch=4 c=64 v=0
144000 Par ch=4 c=64 v=0
144040 Par ch=4 c=64 v=127
144960 Par ch=4 c=64 v=127
144980 Par ch=4 c=64 v=0
145000 Par ch=4 c=64 v=127
145460 Par ch=4 c=64 v=0
145480 Par ch=4 c=64 v=127
145920 Par ch=4 c=64 v=127
145940 Par ch=4 c=64 v=0
146880 Par ch=4 c=64 v=0
147840 Par ch=4 c=64 v=0
147880 Par ch=4 c=64 v=127
148800 Par ch=4 c=64 v=127
148820 Par ch=4 c=64 v=0
148840 Par ch=4 c=64 v=127
149300 Par ch=4 c=64 v=0
149320 Par ch=4 c=64 v=127
149760 Par ch=4 c=64 v=127
149780 Par ch=4 c=64 v=0
150720 Par ch=4 c=64 v=0
151680 Par ch=4 c=64 v=0
151720 Par ch=4 c=64 v=127
152640 Par ch=4 c=64 v=127
152660 Par ch=4 c=64 v=0
152680 Par ch=4 c=64 v=127
153600 Par ch=4 c=64 v=127
153620 Par ch=4 c=64 v=0
153640 Par ch=4 c=64 v=127
154560 Par ch=4 c=64 v=127
155060 Par ch=4 c=64 v=0
155520 Par ch=4 c=64 v=0
155560 Par ch=4 c=64 v=127
156480 Par ch=4 c=64 v=127
156500 Par ch=4 c=64 v=0
156520 Par ch=4 c=64 v=127
157440 Par ch=4 c=64 v=127
157460 Par ch=4 c=64 v=0
157480 Par ch=4 c=64 v=127
158400 Par ch=4 c=64 v=127
159280 Par ch=4 c=64 v=0
159360 Par ch=4 c=64 v=0
159400 Par ch=4 c=64 v=127
160320 Par ch=4 c=64 v=127
160340 Par ch=4 c=64 v=0
160360 Par ch=4 c=64 v=127
160820 Par ch=4 c=64 v=0
160840 Par ch=4 c=64 v=127
161280 Par ch=4 c=64 v=127
161300 Par ch=4 c=64 v=0
162240 Par ch=4 c=64 v=0
163200 Par ch=4 c=64 v=0
163240 Par ch=4 c=64 v=127
164160 Par ch=4 c=64 v=127
164180 Par ch=4 c=64 v=0
164200 Par ch=4 c=64 v=127
164660 Par ch=4 c=64 v=0
164680 Par ch=4 c=64 v=127
165120 Par ch=4 c=64 v=127
165140 Par ch=4 c=64 v=0
166080 Par ch=4 c=64 v=0
167040 Par ch=4 c=64 v=0
167080 Par ch=4 c=64 v=127
168000 Par ch=4 c=64 v=127
168020 Par ch=4 c=64 v=0
168040 Par ch=4 c=64 v=127
168960 Par ch=4 c=64 v=127
168980 Par ch=4 c=64 v=0
169000 Par ch=4 c=64 v=127
169920 Par ch=4 c=64 v=127
170420 Par ch=4 c=64 v=0
170880 Par ch=4 c=64 v=0
170920 Par ch=4 c=64 v=127
171840 Par ch=4 c=64 v=127
171860 Par ch=4 c=64 v=0
171880 Par ch=4 c=64 v=127
172800 Par ch=4 c=64 v=127
172820 Par ch=4 c=64 v=0
172840 Par ch=4 c=64 v=127
173760 Par ch=4 c=64 v=127
174640 Par ch=4 c=64 v=0
174720 Par ch=4 c=64 v=0
174760 Par ch=4 c=64 v=127
175680 Par ch=4 c=64 v=127
176640 Par ch=4 c=64 v=127
176660 Par ch=4 c=64 v=0
176680 Par ch=4 c=64 v=127
177600 Par ch=4 c=64 v=127
177620 Par ch=4 c=64 v=0
177640 Par ch=4 c=64 v=127
178560 Par ch=4 c=64 v=127
178580 Par ch=4 c=64 v=0
178600 Par ch=4 c=64 v=127
179520 Par ch=4 c=64 v=127
180480 Par ch=4 c=64 v=127
180500 Par ch=4 c=64 v=0
180520 Par ch=4 c=64 v=127
181440 Par ch=4 c=64 v=127
181460 Par ch=4 c=64 v=0
181480 Par ch=4 c=64 v=127
182400 Par ch=4 c=64 v=127
182420 Par ch=4 c=64 v=0
182440 Par ch=4 c=64 v=127
183360 Par ch=4 c=64 v=127
183380 Par ch=4 c=64 v=0
183400 Par ch=4 c=64 v=127
184320 Par ch=4 c=64 v=127
184340 Par ch=4 c=64 v=0
184360 Par ch=4 c=64 v=127
185280 Par ch=4 c=64 v=127
185300 Par ch=4 c=64 v=0
185320 Par ch=4 c=64 v=127
186240 Par ch=4 c=64 v=127
186260 Par ch=4 c=64 v=0
186280 Par ch=4 c=64 v=127
187200 Par ch=4 c=64 v=127
187220 Par ch=4 c=64 v=0
187240 Par ch=4 c=64 v=127
187700 Par ch=4 c=64 v=0
187720 Par ch=4 c=64 v=127
188160 Par ch=4 c=64 v=127
188180 Par ch=4 c=64 v=0
188200 Par ch=4 c=64 v=127
189120 Par ch=4 c=64 v=127
189140 Par ch=4 c=64 v=0
189160 Par ch=4 c=64 v=127
189620 Par ch=4 c=64 v=0
189640 Par ch=4 c=64 v=127
190080 Par ch=4 c=64 v=127
190100 Par ch=4 c=64 v=0
190120 Par ch=4 c=64 v=127
191040 Par ch=4 c=64 v=127
191060 Par ch=4 c=64 v=0
191080 Par ch=4 c=64 v=127
191540 Par ch=4 c=64 v=0
191560 Par ch=4 c=64 v=127
192000 Par ch=4 c=64 v=127
192020 Par ch=4 c=64 v=0
192040 Par ch=4 c=64 v=127
192960 Par ch=4 c=64 v=127
193920 Par ch=4 c=64 v=127
193940 Par ch=4 c=64 v=0
193940 Meta TrkEnd
TrkEnd
MTrk
0 SeqSpec 43 00 01 00
0 Meta TrkName "Damper Pedal(P2-LH)                 "
1920 Par ch=5 c=64 v=0
1960 Par ch=5 c=64 v=127
2880 Par ch=5 c=64 v=127
3840 Par ch=5 c=64 v=127
3860 Par ch=5 c=64 v=0
3880 Par ch=5 c=64 v=127
4800 Par ch=5 c=64 v=127
4820 Par ch=5 c=64 v=0
4840 Par ch=5 c=64 v=127
5760 Par ch=5 c=64 v=127
5780 Par ch=5 c=64 v=0
5800 Par ch=5 c=64 v=127
6720 Par ch=5 c=64 v=127
7680 Par ch=5 c=64 v=127
7700 Par ch=5 c=64 v=0
7720 Par ch=5 c=64 v=127
8640 Par ch=5 c=64 v=127
8660 Par ch=5 c=64 v=0
8680 Par ch=5 c=64 v=127
9600 Par ch=5 c=64 v=127
9620 Par ch=5 c=64 v=0
9640 Par ch=5 c=64 v=127
10560 Par ch=5 c=64 v=127
10580 Par ch=5 c=64 v=0
10600 Par ch=5 c=64 v=127
11520 Par ch=5 c=64 v=127
11540 Par ch=5 c=64 v=0
11560 Par ch=5 c=64 v=127
12480 Par ch=5 c=64 v=127
12500 Par ch=5 c=64 v=0
12520 Par ch=5 c=64 v=127
13440 Par ch=5 c=64 v=127
13460 Par ch=5 c=64 v=0
13480 Par ch=5 c=64 v=127
14400 Par ch=5 c=64 v=127
14420 Par ch=5 c=64 v=0
14440 Par ch=5 c=64 v=127
15360 Par ch=5 c=64 v=127
15380 Par ch=5 c=64 v=0
15400 Par ch=5 c=64 v=127
16320 Par ch=5 c=64 v=127
16340 Par ch=5 c=64 v=0
16360 Par ch=5 c=64 v=127
16840 Par ch=5 c=64 v=0
17280 Par ch=5 c=64 v=0
17320 Par ch=5 c=64 v=127
18240 Par ch=5 c=64 v=127
19200 Par ch=5 c=64 v=127
19220 Par ch=5 c=64 v=0
19240 Par ch=5 c=64 v=127
20160 Par ch=5 c=64 v=127
20180 Par ch=5 c=64 v=0
20200 Par ch=5 c=64 v=127
21120 Par ch=5 c=64 v=127
21140 Par ch=5 c=64 v=0
21160 Par ch=5 c=64 v=127
22080 Par ch=5 c=64 v=127
23040 Par ch=5 c=64 v=127
23060 Par ch=5 c=64 v=0
23080 Par ch=5 c=64 v=127
24000 Par ch=5 c=64 v=127
24020 Par ch=5 c=64 v=0
24040 Par ch=5 c=64 v=127
24960 Par ch=5 c=64 v=127
24980 Par ch=5 c=64 v=0
25000 Par ch=5 c=64 v=127
25920 Par ch=5 c=64 v=127
25940 Par ch=5 c=64 v=0
25960 Par ch=5 c=64 v=127
26880 Par ch=5 c=64 v=127
26900 Par ch=5 c=64 v=0
26920 Par ch=5 c=64 v=127
27840 Par ch=5 c=64 v=127
27860 Par ch=5 c=64 v=0
27880 Par ch=5 c=64 v=127
28800 Par ch=5 c=64 v=127
28820 Par ch=5 c=64 v=0
28840 Par ch=5 c=64 v=127
29760 Par ch=5 c=64 v=127
29780 Par ch=5 c=64 v=0
29800 Par ch=5 c=64 v=127
30720 Par ch=5 c=64 v=127
30740 Par ch=5 c=64 v=0
30760 Par ch=5 c=64 v=127
31680 Par ch=5 c=64 v=127
31700 Par ch=5 c=64 v=0
31720 Par ch=5 c=64 v=127
32200 Par ch=5 c=64 v=0
32640 Par ch=5 c=64 v=0
32680 Par ch=5 c=64 v=127
33600 Par ch=5 c=64 v=127
33620 Par ch=5 c=64 v=0
33640 Par ch=5 c=64 v=127
34100 Par ch=5 c=64 v=0
34120 Par ch=5 c=64 v=127
34560 Par ch=5 c=64 v=127
34580 Par ch=5 c=64 v=0
35520 Par ch=5 c=64 v=0
36480 Par ch=5 c=64 v=0
36520 Par ch=5 c=64 v=127
37440 Par ch=5 c=64 v=127
37460 Par ch=5 c=64 v=0
37480 Par ch=5 c=64 v=127
37940 Par ch=5 c=64 v=0
37960 Par ch=5 c=64 v=127
38400 Par ch=5 c=64 v=127
38420 Par ch=5 c=64 v=0
39360 Par ch=5 c=64 v=0
40320 Par ch=5 c=64 v=0
40360 Par ch=5 c=64 v=127
41280 Par ch=5 c=64 v=127
41300 Par ch=5 c=64 v=0
41320 Par ch=5 c=64 v=127
42240 Par ch=5 c=64 v=127
42260 Par ch=5 c=64 v=0
42280 Par ch=5 c=64 v=127
43200 Par ch=5 c=64 v=127
43700 Par ch=5 c=64 v=0
44160 Par ch=5 c=64 v=0
44200 Par ch=5 c=64 v=127
45120 Par ch=5 c=64 v=127
45140 Par ch=5 c=64 v=0
45160 Par ch=5 c=64 v=127
46080 Par ch=5 c=64 v=127
46100 Par ch=5 c=64 v=0
46120 Par ch=5 c=64 v=127
47040 Par ch=5 c=64 v=127
47920 Par ch=5 c=64 v=0
48000 Par ch=5 c=64 v=0
48040 Par ch=5 c=64 v=127
48960 Par ch=5 c=64 v=127
48980 Par ch=5 c=64 v=0
49000 Par ch=5 c=64 v=127
49460 Par ch=5 c=64 v=0
49480 Par ch=5 c=64 v=127
49920 Par ch=5 c=64 v=127
49940 Par ch=5 c=64 v=0
50880 Par ch=5 c=64 v=0
51840 Par ch=5 c=64 v=0
51880 Par ch=5 c=64 v=127
52800 Par ch=5 c=64 v=127
52820 Par ch=5 c=64 v=0
52840 Par ch=5 c=64 v=127
53300 Par ch=5 c=64 v=0
53320 Par ch=5 c=64 v=127
53760 Par ch=5 c=64 v=127
53780 Par ch=5 c=64 v=0
54720 Par ch=5 c=64 v=0
55680 Par ch=5 c=64 v=0
55720 Par ch=5 c=64 v=127
56640 Par ch=5 c=64 v=127
56660 Par ch=5 c=64 v=0
56680 Par ch=5 c=64 v=127
57600 Par ch=5 c=64 v=127
57620 Par ch=5 c=64 v=0
57640 Par ch=5 c=64 v=127
58560 Par ch=5 c=64 v=127
59060 Par ch=5 c=64 v=0
59520 Par ch=5 c=64 v=0
59560 Par ch=5 c=64 v=127
60480 Par ch=5 c=64 v=127
60500 Par ch=5 c=64 v=0
60520 Par ch=5 c=64 v=127
61440 Par ch=5 c=64 v=127
61460 Par ch=5 c=64 v=0
61480 Par ch=5 c=64 v=127
62400 Par ch=5 c=64 v=127
63280 Par ch=5 c=64 v=0
63360 Par ch=5 c=64 v=0
63400 Par ch=5 c=64 v=127
64320 Par ch=5 c=64 v=127
65280 Par ch=5 c=64 v=127
65300 Par ch=5 c=64 v=0
65320 Par ch=5 c=64 v=127
66240 Par ch=5 c=64 v=127
66260 Par ch=5 c=64 v=0
66280 Par ch=5 c=64 v=127
67200 Par ch=5 c=64 v=127
67220 Par ch=5 c=64 v=0
67240 Par ch=5 c=64 v=127
68160 Par ch=5 c=64 v=127
69120 Par ch=5 c=64 v=127
69140 Par ch=5 c=64 v=0
69160 Par ch=5 c=64 v=127
70080 Par ch=5 c=64 v=127
70100 Par ch=5 c=64 v=0
70120 Par ch=5 c=64 v=127
71040 Par ch=5 c=64 v=127
71060 Par ch=5 c=64 v=0
71080 Par ch=5 c=64 v=127
72000 Par ch=5 c=64 v=127
72020 Par ch=5 c=64 v=0
72040 Par ch=5 c=64 v=127
72960 Par ch=5 c=64 v=127
72980 Par ch=5 c=64 v=0
73000 Par ch=5 c=64 v=127
73920 Par ch=5 c=64 v=127
73940 Par ch=5 c=64 v=0
73960 Par ch=5 c=64 v=127
74880 Par ch=5 c=64 v=127
74900 Par ch=5 c=64 v=0
74920 Par ch=5 c=64 v=127
75840 Par ch=5 c=64 v=127
75860 Par ch=5 c=64 v=0
75880 Par ch=5 c=64 v=127
76800 Par ch=5 c=64 v=127
76820 Par ch=5 c=64 v=0
76840 Par ch=5 c=64 v=127
77760 Par ch=5 c=64 v=127
77780 Par ch=5 c=64 v=0
77800 Par ch=5 c=64 v=127
78280 Par ch=5 c=64 v=0
78720 Par ch=5 c=64 v=0
78760 Par ch=5 c=64 v=127
79000 Par ch=5 c=64 v=0
79680 Par ch=5 c=64 v=0
80640 Par ch=5 c=64 v=0
80680 Par ch=5 c=64 v=127
80920 Par ch=5 c=64 v=0
81600 Par ch=5 c=64 v=0
82560 Par ch=5 c=64 v=0
82600 Par ch=5 c=64 v=127
82840 Par ch=5 c=64 v=0
83520 Par ch=5 c=64 v=0
84480 Par ch=5 c=64 v=0
84520 Par ch=5 c=64 v=127
85000 Par ch=5 c=64 v=0
85440 Par ch=5 c=64 v=0
85960 Par ch=5 c=64 v=127
86400 Par ch=5 c=64 v=127
86420 Par ch=5 c=64 v=0
86440 Par ch=5 c=64 v=127
86920 Par ch=5 c=64 v=0
87360 Par ch=5 c=64 v=0
87880 Par ch=5 c=64 v=127
88280 Par ch=5 c=64 v=0
88320 Par ch=5 c=64 v=0
88360 Par ch=5 c=64 v=127
88600 Par ch=5 c=64 v=0
89280 Par ch=5 c=64 v=0
89320 Par ch=5 c=64 v=127
89560 Par ch=5 c=64 v=0
90240 Par ch=5 c=64 v=0
91200 Par ch=5 c=64 v=0
91240 Par ch=5 c=64 v=127
91480 Par ch=5 c=64 v=0
91720 Par ch=5 c=64 v=127
92120 Par ch=5 c=64 v=0
92160 Par ch=5 c=64 v=0
92200 Par ch=5 c=64 v=127
92440 Par ch=5 c=64 v=0
93120 Par ch=5 c=64 v=0
94080 Par ch=5 c=64 v=0
94120 Par ch=5 c=64 v=127
94360 Par ch=5 c=64 v=0
95040 Par ch=5 c=64 v=0
96000 Par ch=5 c=64 v=0
96040 Par ch=5 c=64 v=127
96280 Par ch=5 c=64 v=0
96960 Par ch=5 c=64 v=0
97920 Par ch=5 c=64 v=0
97960 Par ch=5 c=64 v=127
98440 Par ch=5 c=64 v=0
98880 Par ch=5 c=64 v=0
99400 Par ch=5 c=64 v=127
99840 Par ch=5 c=64 v=127
99860 Par ch=5 c=64 v=0
99880 Par ch=5 c=64 v=127
100360 Par ch=5 c=64 v=0
100800 Par ch=5 c=64 v=0
101320 Par ch=5 c=64 v=127
101720 Par ch=5 c=64 v=0
101760 Par ch=5 c=64 v=0
101800 Par ch=5 c=64 v=127
102040 Par ch=5 c=64 v=0
102720 Par ch=5 c=64 v=0
102760 Par ch=5 c=64 v=127
103000 Par ch=5 c=64 v=0
103680 Par ch=5 c=64 v=0
104640 Par ch=5 c=64 v=0
104680 Par ch=5 c=64 v=127
104920 Par ch=5 c=64 v=0
105160 Par ch=5 c=64 v=127
105560 Par ch=5 c=64 v=0
105600 Par ch=5 c=64 v=0
105640 Par ch=5 c=64 v=127
106120 Par ch=5 c=64 v=0
106560 Par ch=5 c=64 v=0
107080 Par ch=5 c=64 v=127
107520 Par ch=5 c=64 v=127
107540 Par ch=5 c=64 v=0
107560 Par ch=5 c=64 v=127
108040 Par ch=5 c=64 v=0
108480 Par ch=5 c=64 v=0
109000 Par ch=5 c=64 v=127
109400 Par ch=5 c=64 v=0
109440 Par ch=5 c=64 v=0
109480 Par ch=5 c=64 v=127
109720 Par ch=5 c=64 v=0
110400 Par ch=5 c=64 v=0
110440 Par ch=5 c=64 v=127
110680 Par ch=5 c=64 v=0
111360 Par ch=5 c=64 v=0
112320 Par ch=5 c=64 v=0
112360 Par ch=5 c=64 v=127
112600 Par ch=5 c=64 v=0
112840 Par ch=5 c=64 v=127
113240 Par ch=5 c=64 v=0
113280 Par ch=5 c=64 v=0
113320 Par ch=5 c=64 v=127
114240 Par ch=5 c=64 v=127
115200 Par ch=5 c=64 v=127
115220 Par ch=5 c=64 v=0
115240 Par ch=5 c=64 v=127
116160 Par ch=5 c=64 v=127
116180 Par ch=5 c=64 v=0
116200 Par ch=5 c=64 v=127
117120 Par ch=5 c=64 v=127
117140 Par ch=5 c=64 v=0
117160 Par ch=5 c=64 v=127
118080 Par ch=5 c=64 v=127
119040 Par ch=5 c=64 v=127
119060 Par ch=5 c=64 v=0
119080 Par ch=5 c=64 v=127
120000 Par ch=5 c=64 v=127
120020 Par ch=5 c=64 v=0
120040 Par ch=5 c=64 v=127
120960 Par ch=5 c=64 v=127
120980 Par ch=5 c=64 v=0
121000 Par ch=5 c=64 v=127
121920 Par ch=5 c=64 v=127
121940 Par ch=5 c=64 v=0
121960 Par ch=5 c=64 v=127
122880 Par ch=5 c=64 v=127
122900 Par ch=5 c=64 v=0
122920 Par ch=5 c=64 v=127
123840 Par ch=5 c=64 v=127
123860 Par ch=5 c=64 v=0
123880 Par ch=5 c=64 v=127
124800 Par ch=5 c=64 v=127
124820 Par ch=5 c=64 v=0
124840 Par ch=5 c=64 v=127
125760 Par ch=5 c=64 v=127
125780 Par ch=5 c=64 v=0
125800 Par ch=5 c=64 v=127
126720 Par ch=5 c=64 v=127
126740 Par ch=5 c=64 v=0
126760 Par ch=5 c=64 v=127
127680 Par ch=5 c=64 v=127
127700 Par ch=5 c=64 v=0
127720 Par ch=5 c=64 v=127
128200 Par ch=5 c=64 v=0
128640 Par ch=5 c=64 v=0
128680 Par ch=5 c=64 v=127
129600 Par ch=5 c=64 v=127
130560 Par ch=5 c=64 v=127
130580 Par ch=5 c=64 v=0
130600 Par ch=5 c=64 v=127
131520 Par ch=5 c=64 v=127
131540 Par ch=5 c=64 v=0
131560 Par ch=5 c=64 v=127
132480 Par ch=5 c=64 v=127
132500 Par ch=5 c=64 v=0
132520 Par ch=5 c=64 v=127
133440 Par ch=5 c=64 v=127
134400 Par ch=5 c=64 v=127
134420 Par ch=5 c=64 v=0
134440 Par ch=5 c=64 v=127
135360 Par ch=5 c=64 v=127
135380 Par ch=5 c=64 v=0
135400 Par ch=5 c=64 v=127
136320 Par ch=5 c=64 v=127
136340 Par ch=5 c=64 v=0
136360 Par ch=5 c=64 v=127
137280 Par ch=5 c=64 v=127
137300 Par ch=5 c=64 v=0
137320 Par ch=5 c=64 v=127
138240 Par ch=5 c=64 v=127
138260 Par ch=5 c=64 v=0
138280 Par ch=5 c=64 v=127
139200 Par ch=5 c=64 v=127
139220 Par ch=5 c=64 v=0
139240 Par ch=5 c=64 v=127
140160 Par ch=5 c=64 v=127
140180 Par ch=5 c=64 v=0
140200 Par ch=5 c=64 v=127
141120 Par ch=5 c=64 v=127
141140 Par ch=5 c=64 v=0
141160 Par ch=5 c=64 v=127
142080 Par ch=5 c=64 v=127
142100 Par ch=5 c=64 v=0
142120 Par ch=5 c=64 v=127
143040 Par ch=5 c=64 v=127
143060 Par ch=5 c=64 v=0
143080 Par ch=5 c=64 v=127
143560 Par ch=5 c=64 v=0
144000 Par ch=5 c=64 v=0
144040 Par ch=5 c=64 v=127
144960 Par ch=5 c=64 v=127
144980 Par ch=5 c=64 v=0
145000 Par ch=5 c=64 v=127
145460 Par ch=5 c=64 v=0
145480 Par ch=5 c=64 v=127
145920 Par ch=5 c=64 v=127
145940 Par ch=5 c=64 v=0
146880 Par ch=5 c=64 v=0
147840 Par ch=5 c=64 v=0
147880 Par ch=5 c=64 v=127
148800 Par ch=5 c=64 v=127
148820 Par ch=5 c=64 v=0
148840 Par ch=5 c=64 v=127
149300 Par ch=5 c=64 v=0
149320 Par ch=5 c=64 v=127
149760 Par ch=5 c=64 v=127
149780 Par ch=5 c=64 v=0
150720 Par ch=5 c=64 v=0
151680 Par ch=5 c=64 v=0
151720 Par ch=5 c=64 v=127
152640 Par ch=5 c=64 v=127
152660 Par ch=5 c=64 v=0
152680 Par ch=5 c=64 v=127
153600 Par ch=5 c=64 v=127
153620 Par ch=5 c=64 v=0
153640 Par ch=5 c=64 v=127
154560 Par ch=5 c=64 v=127
155060 Par ch=5 c=64 v=0
155520 Par ch=5 c=64 v=0
155560 Par ch=5 c=64 v=127
156480 Par ch=5 c=64 v=127
156500 Par ch=5 c=64 v=0
156520 Par ch=5 c=64 v=127
157440 Par ch=5 c=64 v=127
157460 Par ch=5 c=64 v=0
157480 Par ch=5 c=64 v=127
158400 Par ch=5 c=64 v=127
159280 Par ch=5 c=64 v=0
159360 Par ch=5 c=64 v=0
159400 Par ch=5 c=64 v=127
160320 Par ch=5 c=64 v=127
160340 Par ch=5 c=64 v=0
160360 Par ch=5 c=64 v=127
160820 Par ch=5 c=64 v=0
160840 Par ch=5 c=64 v=127
161280 Par ch=5 c=64 v=127
161300 Par ch=5 c=64 v=0
162240 Par ch=5 c=64 v=0
163200 Par ch=5 c=64 v=0
163240 Par ch=5 c=64 v=127
164160 Par ch=5 c=64 v=127
164180 Par ch=5 c=64 v=0
164200 Par ch=5 c=64 v=127
164660 Par ch=5 c=64 v=0
164680 Par ch=5 c=64 v=127
165120 Par ch=5 c=64 v=127
165140 Par ch=5 c=64 v=0
166080 Par ch=5 c=64 v=0
167040 Par ch=5 c=64 v=0
167080 Par ch=5 c=64 v=127
168000 Par ch=5 c=64 v=127
168020 Par ch=5 c=64 v=0
168040 Par ch=5 c=64 v=127
168960 Par ch=5 c=64 v=127
168980 Par ch=5 c=64 v=0
169000 Par ch=5 c=64 v=127
169920 Par ch=5 c=64 v=127
170420 Par ch=5 c=64 v=0
170880 Par ch=5 c=64 v=0
170920 Par ch=5 c=64 v=127
171840 Par ch=5 c=64 v=127
171860 Par ch=5 c=64 v=0
171880 Par ch=5 c=64 v=127
172800 Par ch=5 c=64 v=127
172820 Par ch=5 c=64 v=0
172840 Par ch=5 c=64 v=127
173760 Par ch=5 c=64 v=127
174640 Par ch=5 c=64 v=0
174720 Par ch=5 c=64 v=0
174760 Par ch=5 c=64 v=127
175680 Par ch=5 c=64 v=127
176640 Par ch=5 c=64 v=127
176660 Par ch=5 c=64 v=0
176680 Par ch=5 c=64 v=127
177600 Par ch=5 c=64 v=127
177620 Par ch=5 c=64 v=0
177640 Par ch=5 c=64 v=127
178560 Par ch=5 c=64 v=127
178580 Par ch=5 c=64 v=0
178600 Par ch=5 c=64 v=127
179520 Par ch=5 c=64 v=127
180480 Par ch=5 c=64 v=127
180500 Par ch=5 c=64 v=0
180520 Par ch=5 c=64 v=127
181440 Par ch=5 c=64 v=127
181460 Par ch=5 c=64 v=0
181480 Par ch=5 c=64 v=127
182400 Par ch=5 c=64 v=127
182420 Par ch=5 c=64 v=0
182440 Par ch=5 c=64 v=127
183360 Par ch=5 c=64 v=127
183380 Par ch=5 c=64 v=0
183400 Par ch=5 c=64 v=127
184320 Par ch=5 c=64 v=127
184340 Par ch=5 c=64 v=0
184360 Par ch=5 c=64 v=127
185280 Par ch=5 c=64 v=127
185300 Par ch=5 c=64 v=0
185320 Par ch=5 c=64 v=127
186240 Par ch=5 c=64 v=127
186260 Par ch=5 c=64 v=0
186280 Par ch=5 c=64 v=127
187200 Par ch=5 c=64 v=127
187220 Par ch=5 c=64 v=0
187240 Par ch=5 c=64 v=127
187700 Par ch=5 c=64 v=0
187720 Par ch=5 c=64 v=127
188160 Par ch=5 c=64 v=127
188180 Par ch=5 c=64 v=0
188200 Par ch=5 c=64 v=127
189120 Par ch=5 c=64 v=127
189140 Par ch=5 c=64 v=0
189160 Par ch=5 c=64 v=127
189620 Par ch=5 c=64 v=0
189640 Par ch=5 c=64 v=127
190080 Par ch=5 c=64 v=127
190100 Par ch=5 c=64 v=0
190120 Par ch=5 c=64 v=127
191040 Par ch=5 c=64 v=127
191060 Par ch=5 c=64 v=0
191080 Par ch=5 c=64 v=127
191540 Par ch=5 c=64 v=0
191560 Par ch=5 c=64 v=127
192000 Par ch=5 c=64 v=127
192020 Par ch=5 c=64 v=0
192040 Par ch=5 c=64 v=127
192960 Par ch=5 c=64 v=127
193920 Par ch=5 c=64 v=127
193940 Par ch=5 c=64 v=0
193940 Meta TrkEnd
TrkEnd
