MFile 1 10 480
MTrk
0 TimeSig 4/4 24 8
0 Tempo 833289
0 Tempo 555494
1680 Tempo 969594
1920 TimeSig 2/4 24 8
1920 Tempo 692259
2040 Tempo 833289
2160 Tempo 808043
2280 Tempo 663558
2400 Tempo 833289
2640 Tempo 663558
2880 Tempo 833289
3120 Tempo 692259
3360 Tempo 808043
3600 Tempo 663558
3840 Tempo 919488
4080 Tempo 663558
4320 Tempo 833289
4560 Tempo 919488
4800 Tempo 692259
4920 Tempo 833289
5040 Tempo 808043
5160 Tempo 663558
5280 Tempo 833289
5520 Tempo 692259
5760 Tempo 663558
6000 Tempo 692259
6240 Tempo 833289
6480 Tempo 692259
6720 Tempo 919488
6960 Tempo 663558
7200 Tempo 833289
7440 Tempo 969594
7680 Tempo 692259
7800 Tempo 833289
7920 Tempo 808043
8040 Tempo 663558
8160 Tempo 833289
8400 Tempo 663558
8640 Tempo 833289
8880 Tempo 692259
9120 Tempo 808043
9360 Tempo 663558
9600 Tempo 919488
9840 Tempo 663558
10080 Tempo 833289
10320 Tempo 969594
10560 Tempo 692259
10680 Tempo 833289
10800 Tempo 808043
10920 Tempo 663558
11040 Tempo 833289
11280 Tempo 692259
11520 Tempo 663558
11760 Tempo 692259
12000 Tempo 663558
12240 Tempo 833289
12480 Tempo 919488
12720 Tempo 692259
12960 Tempo 663558
13200 Tempo 919488
13440 Tempo 692259
13560 Tempo 833289
13680 Tempo 808043
13920 Tempo 784238
14160 Tempo 663558
14400 Tempo 833289
14640 Tempo 808043
14880 Tempo 784238
15120 Tempo 663558
15360 Tempo 833289
15600 Tempo 808043
15840 Tempo 846535
16080 Tempo 692259
16320 Tempo 833289
16560 Tempo 808043
16800 Tempo 784238
17040 Tempo 663558
17280 Tempo 833289
17520 Tempo 808043
17760 Tempo 784238
18000 Tempo 663558
18240 Tempo 833289
18480 Tempo 808043
18720 Tempo 663558
18960 Tempo 692259
19200 Tempo 663558
19320 Tempo 808043
19440 Tempo 784238
19680 Tempo 761872
19920 Tempo 692259
20040 Tempo 833289
20160 Tempo 808043
20400 Tempo 784238
20640 Tempo 761872
20880 Tempo 833289
21120 Tempo 808043
21360 Tempo 784238
21600 Tempo 808043
21840 Tempo 663558
22080 Tempo 808043
22320 Tempo 784238
22560 Tempo 761872
22800 Tempo 833289
23040 Tempo 808043
23280 Tempo 784238
23520 Tempo 833289
23760 Tempo 663558
23880 Tempo 692259
24000 Tempo 663558
24240 Tempo 919488
24480 Tempo 663558
24720 Tempo 969594
24960 Tempo 692259
25080 Tempo 833289
25200 Tempo 808043
25320 Tempo 663558
25440 Tempo 833289
25680 Tempo 663558
25920 Tempo 833289
26160 Tempo 692259
26400 Tempo 808043
26640 Tempo 663558
26880 Tempo 692259
27120 Tempo 833289
27360 Tempo 808043
27600 Tempo 919488
27840 Tempo 663558
27960 Tempo 833289
28080 Tempo 808043
28200 Tempo 663558
28320 Tempo 833289
28560 Tempo 663558
28800 Tempo 833289
29040 Tempo 692259
29280 Tempo 663558
29520 Tempo 833289
29760 Tempo 919488
30000 Tempo 663558
30240 Tempo 833289
30480 Tempo 969594
30720 Tempo 692259
30840 Tempo 833289
30960 Tempo 808043
31080 Tempo 663558
31200 Tempo 833289
31440 Tempo 663558
31680 Tempo 833289
31920 Tempo 692259
32160 Tempo 808043
32400 Tempo 663558
32640 Tempo 692259
32880 Tempo 663558
33120 Tempo 833289
33360 Tempo 919488
33600 Tempo 663558
33720 Tempo 808043
33840 Tempo 833289
33960 Tempo 663558
34080 Tempo 833289
34320 Tempo 692259
34560 Tempo 663558
34800 Tempo 692259
35040 Tempo 663558
35280 Tempo 919488
35520 Tempo 969594
35760 Tempo 692259
36000 Tempo 663558
36240 Tempo 919488
36480 Tempo 692259
36600 Tempo 846535
36720 Tempo 808043
36960 Tempo 784238
37200 Tempo 663558
37440 Tempo 833289
37680 Tempo 808043
37920 Tempo 784238
38160 Tempo 663558
38400 Tempo 833289
38640 Tempo 808043
38880 Tempo 784238
39120 Tempo 663558
39360 Tempo 833289
39600 Tempo 808043
39840 Tempo 784238
40080 Tempo 663558
40320 Tempo 833289
40560 Tempo 808043
40800 Tempo 784238
41040 Tempo 663558
41280 Tempo 833289
41520 Tempo 808043
41760 Tempo 784238
42000 Tempo 820426
42120 Tempo 692259
42240 Tempo 663558
42360 Tempo 808043
42480 Tempo 784238
42720 Tempo 761872
42960 Tempo 833289
43080 Tempo 784238
43200 Tempo 808043
43440 Tempo 784238
43680 Tempo 761872
43920 Tempo 784238
44040 Tempo 740658
44160 Tempo 784238
44280 Tempo 761872
44400 Tempo 740658
44520 Tempo 720692
44640 Tempo 784238
44760 Tempo 761872
44880 Tempo 720692
45000 Tempo 740658
45120 Tempo 761872
45360 Tempo 740658
45600 Tempo 720692
45840 Tempo 740658
45960 Tempo 720692
46080 Tempo 740658
46320 Tempo 761872
46560 Tempo 720692
46680 Tempo 761872
46800 Tempo 740658
46920 Tempo 808043
47040 TimeSig 5/8 24 8
47040 Tempo 784238
47160 Tempo 730483
47280 Tempo 683736
47400 Tempo 720692
47520 Tempo 784238
47640 Tempo 650332
47760 Tempo 683736
47880 Tempo 711093
48000 Tempo 1066640
48240 TimeSig 2/4 24 8
48240 Tempo 484749
48480 Tempo 444433
48960 Tempo 433586
49200 Tempo 416596
49680 Tempo 410165
50160 Tempo 426579
50640 Tempo 419860
51040 Tempo 463727
51120 Tempo 444433
51360 Tempo 451920
51840 Tempo 433586
52080 Tempo 416596
52560 Tempo 410165
52980 Tempo 761872
53040 Tempo 463727
53280 Tempo 444433
53520 Tempo 533320
53600 Tempo 476110
53680 Tempo 444433
53760 Tempo 451920
53840 Tempo 426579
53920 Tempo 463727
54000 Tempo 444433
54240 Tempo 451920
54720 Tempo 433586
54960 Tempo 416596
55440 Tempo 410165
55920 Tempo 426579
56400 Tempo 419860
56800 Tempo 592546
56880 Tempo 444433
57120 Tempo 451920
57600 Tempo 433586
57840 Tempo 416596
58320 Tempo 444433
58740 Tempo 761872
58800 Tempo 533320
58920 Tempo 605984
59040 Tempo 592546
59160 Tempo 683736
59280 Tempo 666650
59320 Tempo 833289
59400 Tempo 761872
59520 Tempo 740658
59640 Tempo 1066640
59760 Tempo 969594
59880 Tempo 820426
60000 Tempo 784238
60240 Tempo 761872
60480 Tempo 833289
60720 Tempo 808043
60960 Tempo 784238
61200 Tempo 761872
61440 Tempo 833289
61680 Tempo 808043
61920 Tempo 784238
62160 Tempo 833289
62400 Tempo 692259
62640 Tempo 808043
62880 Tempo 784238
63120 Tempo 761872
63360 Tempo 833289
63600 Tempo 808043
63840 Tempo 784238
64080 Tempo 761872
64320 Tempo 833289
64560 Tempo 808043
64800 Tempo 692259
65040 Tempo 663558
65280 Tempo 692259
65520 Tempo 663558
65640 Tempo 833289
65760 Tempo 808043
66000 Tempo 784238
66240 Tempo 663558
66480 Tempo 833289
66720 Tempo 808043
66960 Tempo 784238
67200 Tempo 663558
67440 Tempo 833289
67680 Tempo 808043
67920 Tempo 833289
68160 Tempo 692259
68400 Tempo 663558
68640 Tempo 833289
68880 Tempo 808043
69120 Tempo 663558
69360 Tempo 833289
69600 Tempo 808043
69840 Tempo 663558
70080 Tempo 833289
70200 Tempo 692259
70320 Tempo 663558
70560 Tempo 692259
70800 Tempo 663558
71040 Tempo 969594
71280 Tempo 692259
71400 Tempo 833289
71520 Tempo 808043
71640 Tempo 663558
71760 Tempo 833289
72000 Tempo 663558
72240 Tempo 833289
72480 Tempo 692259
72720 Tempo 808043
72960 Tempo 663558
73200 Tempo 692259
73440 Tempo 663558
73680 Tempo 833289
73920 Tempo 919488
74160 Tempo 692259
74280 Tempo 833289
74400 Tempo 808043
74520 Tempo 663558
74640 Tempo 833289
74880 Tempo 692259
75120 Tempo 663558
75360 Tempo 692259
75600 Tempo 833289
75840 Tempo 808043
76080 Tempo 692259
76320 Tempo 663558
76560 Tempo 833289
76800 Tempo 969594
77040 Tempo 692259
77160 Tempo 833289
77280 Tempo 808043
77400 Tempo 663558
77520 Tempo 833289
77760 Tempo 808043
78000 Tempo 919488
78120 Tempo 663558
78240 Tempo 692259
78360 Tempo 833289
78480 Tempo 663558
78720 Tempo 692259
78960 Tempo 919488
79200 Tempo 663558
79440 Tempo 833289
79680 Tempo 969594
79920 Tempo 919488
80040 Tempo 833289
80160 Tempo 663558
80280 Tempo 919488
80400 Tempo 692259
80640 Tempo 969594
80880 Tempo 919488
81120 Tempo 987545
81360 Tempo 952316
81600 Tempo 1066640
81720 Tempo 1523745
81840 Tempo 1066640
82080 Tempo 1523745
82320 Tempo 1777734
82560 Tempo 692259
82800 Tempo 1777734
82800 Meta TrkEnd
TrkEnd
MTrk
0 SeqSpec 43 00 01 00
140 SysEx f0 41 10 42 12 40 00 7f 00 41 f7
240 SysEx f0 41 10 42 12 40 00 04 64 58 f7
380 SysEx f0 41 10 42 12 40 01 30 03 0c f7
400 SysEx f0 41 10 42 12 40 01 33 50 3c f7
420 SysEx f0 41 10 42 12 40 01 34 46 45 f7
480 SysEx f0 41 10 42 12 40 01 10 00 06 06 00 06 06 00 00 00 00 00 00 00 00 00 00 17 f7
1440 SysEx f0 41 10 45 12 10 00 00 28 63 29 31 39 39 36 2c 20 59 41 53 4b 41 57 41 20 4d 6f 63 6c 69 6e 04 f7
1440 Meta TrkEnd
TrkEnd
MTrk
0 SeqSpec 43 00 01 00
0 Meta TrkName "Piano 1(R.H.)                       "
960 Par ch=1 c=32 v=1
1020 Par ch=1 c=0 v=0
1080 PrCh ch=1 p=0
1140 Par ch=1 c=10 v=76
1200 Par ch=1 c=91 v=80
1260 Par ch=1 c=7 v=120
1320 Par ch=1 c=11 v=120
1680 On ch=1 n=c6 v=50
1840 On ch=1 n=c6 v=0
1850 On ch=1 n=c6 v=35
1880 On ch=1 n=d6 v=39
1900 On ch=1 n=e6 v=42
1910 On ch=1 n=c6 v=0
1920 On ch=1 n=f6 v=48
1940 On ch=1 n=d6 v=0
1960 On ch=1 n=e6 v=0
2020 On ch=1 n=f6 v=0
2040 On ch=1 n=f5 v=55
2120 On ch=1 n=f5 v=0
2160 On ch=1 n=a#5 v=50
2220 On ch=1 n=a#5 v=0
2280 On ch=1 n=d6 v=45
2350 On ch=1 n=d6 v=0
2400 On ch=1 n=c6 v=48
2520 On ch=1 n=c6 v=0
2640 On ch=1 n=c6 v=52
2800 On ch=1 n=c6 v=0
2820 On ch=1 n=c6 v=40
2840 On ch=1 n=d6 v=44
2860 On ch=1 n=e6 v=47
2880 On ch=1 n=c6 v=0
2880 On ch=1 n=f6 v=50
2900 On ch=1 n=d6 v=0
2920 On ch=1 n=e6 v=0
3040 On ch=1 n=f6 v=0
3120 On ch=1 n=e6 v=54
3240 On ch=1 n=e6 v=0
3360 On ch=1 n=d6 v=60
3760 On ch=1 n=d6 v=0
3800 On ch=1 n=c6 v=35
3840 On ch=1 n=f6 v=50
3860 On ch=1 n=c6 v=0
3980 On ch=1 n=f6 v=0
4080 On ch=1 n=c6 v=65
4560 On ch=1 n=c6 v=0
4560 On ch=1 n=c6 v=48
4680 On ch=1 n=c6 v=0
4730 On ch=1 n=c6 v=35
4760 On ch=1 n=d6 v=39
4780 On ch=1 n=e6 v=42
4790 On ch=1 n=c6 v=0
4800 On ch=1 n=f6 v=48
4820 On ch=1 n=d6 v=0
4840 On ch=1 n=e6 v=0
4900 On ch=1 n=f6 v=0
4920 On ch=1 n=c5 v=55
5000 On ch=1 n=c5 v=0
5040 On ch=1 n=f5 v=50
5100 On ch=1 n=f5 v=0
5160 On ch=1 n=a#5 v=45
5230 On ch=1 n=a#5 v=0
5280 On ch=1 n=a5 v=48
5400 On ch=1 n=a5 v=0
5520 On ch=1 n=f5 v=52
5680 On ch=1 n=f5 v=0
5700 On ch=1 n=f5 v=40
5720 On ch=1 n=g5 v=34
5740 On ch=1 n=a5 v=37
5760 On ch=1 n=f5 v=0
5760 On ch=1 n=a#5 v=45
5780 On ch=1 n=g5 v=0
5800 On ch=1 n=a5 v=0
5920 On ch=1 n=a#5 v=0
6000 On ch=1 n=a5 v=49
6120 On ch=1 n=a5 v=0
6240 On ch=1 n=g5 v=55
6640 On ch=1 n=g5 v=0
6720 On ch=1 n=a5 v=40
6860 On ch=1 n=a5 v=0
6960 On ch=1 n=f5 v=50
7360 On ch=1 n=f5 v=0
7440 On ch=1 n=c6 v=45
7560 On ch=1 n=c6 v=0
7610 On ch=1 n=c6 v=30
7640 On ch=1 n=d6 v=34
7660 On ch=1 n=e6 v=37
7670 On ch=1 n=c6 v=0
7680 On ch=1 n=f6 v=43
7700 On ch=1 n=d6 v=0
7720 On ch=1 n=e6 v=0
7780 On ch=1 n=f6 v=0
7800 On ch=1 n=f5 v=50
7880 On ch=1 n=f5 v=0
7920 On ch=1 n=a#5 v=45
7980 On ch=1 n=a#5 v=0
8040 On ch=1 n=d6 v=40
8110 On ch=1 n=d6 v=0
8160 On ch=1 n=c6 v=43
8280 On ch=1 n=c6 v=0
8400 On ch=1 n=c6 v=47
8560 On ch=1 n=c6 v=0
8580 On ch=1 n=c6 v=35
8600 On ch=1 n=d6 v=39
8620 On ch=1 n=e6 v=42
8640 On ch=1 n=c6 v=0
8640 On ch=1 n=f6 v=45
8660 On ch=1 n=d6 v=0
8680 On ch=1 n=e6 v=0
8800 On ch=1 n=f6 v=0
8880 On ch=1 n=e6 v=49
9000 On ch=1 n=e6 v=0
9120 On ch=1 n=d6 v=55
9520 On ch=1 n=d6 v=0
9560 On ch=1 n=c6 v=30
9600 On ch=1 n=f6 v=45
9620 On ch=1 n=c6 v=0
9740 On ch=1 n=f6 v=0
9840 On ch=1 n=c6 v=60
10320 On ch=1 n=c6 v=0
10320 On ch=1 n=c6 v=43
10440 On ch=1 n=c6 v=0
10490 On ch=1 n=c6 v=30
10520 On ch=1 n=d6 v=34
10540 On ch=1 n=e6 v=37
10550 On ch=1 n=c6 v=0
10560 On ch=1 n=f6 v=43
10580 On ch=1 n=d6 v=0
10600 On ch=1 n=e6 v=0
10660 On ch=1 n=f6 v=0
10680 On ch=1 n=c5 v=50
10760 On ch=1 n=c5 v=0
10800 On ch=1 n=f5 v=45
10860 On ch=1 n=f5 v=0
10920 On ch=1 n=a#5 v=40
10990 On ch=1 n=a#5 v=0
11040 On ch=1 n=a5 v=43
11160 On ch=1 n=a5 v=0
11280 On ch=1 n=f5 v=47
11440 On ch=1 n=f5 v=0
11460 On ch=1 n=f5 v=35
11480 On ch=1 n=g5 v=29
11500 On ch=1 n=a5 v=32
11520 On ch=1 n=f5 v=0
11520 On ch=1 n=a#5 v=40
11540 On ch=1 n=g5 v=0
11560 On ch=1 n=a5 v=0
11680 On ch=1 n=a#5 v=0
11760 On ch=1 n=a5 v=44
11880 On ch=1 n=a5 v=0
12000 On ch=1 n=g5 v=50
12400 On ch=1 n=g5 v=0
12480 On ch=1 n=a5 v=35
12620 On ch=1 n=a5 v=0
12720 On ch=1 n=f5 v=45
13120 On ch=1 n=f5 v=0
18960 On ch=1 n=a5 v=58
19160 On ch=1 n=a5 v=0
19200 On ch=1 n=d6 v=60
19260 On ch=1 n=d6 v=0
19320 On ch=1 n=e6 v=53
19360 On ch=1 n=e6 v=0
19440 On ch=1 n=f6 v=55
19580 On ch=1 n=f6 v=0
19920 On ch=1 n=e6 v=58
19980 On ch=1 n=e6 v=0
20040 On ch=1 n=f6 v=62
20080 On ch=1 n=f6 v=0
20160 On ch=1 n=g6 v=65
20320 On ch=1 n=g6 v=0
20520 On ch=1 n=f6 v=68
20580 On ch=1 n=f6 v=0
20640 On ch=1 n=f6 v=70
20760 On ch=1 n=e6 v=63
20780 On ch=1 n=f6 v=0
20840 On ch=1 n=e6 v=0
20880 On ch=1 n=e6 v=65
21000 On ch=1 n=d6 v=58
21020 On ch=1 n=e6 v=0
21100 On ch=1 n=d6 v=0
21120 On ch=1 n=e6 v=62
21600 On ch=1 n=a6 v=50
21620 On ch=1 n=e6 v=0
21800 On ch=1 n=a6 v=0
21840 On ch=1 n=a5 v=60
21980 On ch=1 n=a5 v=0
22080 On ch=1 n=d6 v=65
22140 On ch=1 n=d6 v=0
22200 On ch=1 n=e6 v=58
22240 On ch=1 n=e6 v=0
22320 On ch=1 n=f6 v=55
22460 On ch=1 n=f6 v=0
22800 On ch=1 n=e6 v=58
22860 On ch=1 n=e6 v=0
22920 On ch=1 n=f6 v=62
22960 On ch=1 n=f6 v=0
23040 On ch=1 n=g6 v=65
23200 On ch=1 n=g6 v=0
23400 On ch=1 n=f6 v=68
23460 On ch=1 n=f6 v=0
23520 On ch=1 n=f6 v=70
23640 On ch=1 n=e6 v=63
23660 On ch=1 n=f6 v=0
23720 On ch=1 n=e6 v=0
23760 On ch=1 n=e6 v=65
23880 On ch=1 n=a5 v=60
23900 On ch=1 n=e6 v=0
23980 On ch=1 n=a5 v=0
24000 On ch=1 n=d6 v=62
24480 On ch=1 n=c6 v=70
24500 On ch=1 n=d6 v=0
24880 On ch=1 n=c6 v=0
24890 On ch=1 n=c6 v=45
24920 On ch=1 n=d6 v=49
24940 On ch=1 n=e6 v=52
24950 On ch=1 n=c6 v=0
24960 On ch=1 n=f6 v=58
24980 On ch=1 n=d6 v=0
25000 On ch=1 n=e6 v=0
25060 On ch=1 n=f6 v=0
25080 On ch=1 n=f5 v=65
25160 On ch=1 n=f5 v=0
25200 On ch=1 n=a#5 v=60
25260 On ch=1 n=a#5 v=0
25320 On ch=1 n=d6 v=55
25390 On ch=1 n=d6 v=0
25440 On ch=1 n=c6 v=58
25560 On ch=1 n=c6 v=0
25680 On ch=1 n=c6 v=62
25840 On ch=1 n=c6 v=0
25860 On ch=1 n=c6 v=50
25880 On ch=1 n=d6 v=54
25900 On ch=1 n=e6 v=57
25920 On ch=1 n=c6 v=0
25920 On ch=1 n=f6 v=60
25940 On ch=1 n=d6 v=0
25960 On ch=1 n=e6 v=0
26080 On ch=1 n=f6 v=0
26160 On ch=1 n=e6 v=64
26280 On ch=1 n=e6 v=0
26400 On ch=1 n=d6 v=70
26800 On ch=1 n=d6 v=0
26840 On ch=1 n=c6 v=45
26880 On ch=1 n=f6 v=60
26900 On ch=1 n=c6 v=0
27020 On ch=1 n=f6 v=0
27120 On ch=1 n=c6 v=75
27600 On ch=1 n=c6 v=0
27600 On ch=1 n=c6 v=58
27720 On ch=1 n=c6 v=0
27770 On ch=1 n=c6 v=45
27800 On ch=1 n=d6 v=49
27820 On ch=1 n=e6 v=52
27830 On ch=1 n=c6 v=0
27840 On ch=1 n=f6 v=58
27860 On ch=1 n=d6 v=0
27880 On ch=1 n=e6 v=0
27940 On ch=1 n=f6 v=0
27960 On ch=1 n=c5 v=65
28040 On ch=1 n=c5 v=0
28080 On ch=1 n=f5 v=60
28140 On ch=1 n=f5 v=0
28200 On ch=1 n=a#5 v=55
28270 On ch=1 n=a#5 v=0
28320 On ch=1 n=a5 v=58
28440 On ch=1 n=a5 v=0
28560 On ch=1 n=f5 v=62
28720 On ch=1 n=f5 v=0
28740 On ch=1 n=f5 v=50
28760 On ch=1 n=g5 v=44
28780 On ch=1 n=a5 v=47
28800 On ch=1 n=f5 v=0
28800 On ch=1 n=a#5 v=55
28820 On ch=1 n=g5 v=0
28840 On ch=1 n=a5 v=0
28960 On ch=1 n=a#5 v=0
29040 On ch=1 n=a5 v=59
29160 On ch=1 n=a5 v=0
29280 On ch=1 n=g5 v=65
29680 On ch=1 n=g5 v=0
29760 On ch=1 n=a5 v=50
29900 On ch=1 n=a5 v=0
30000 On ch=1 n=f5 v=60
30400 On ch=1 n=f5 v=0
30480 On ch=1 n=c6 v=55
30600 On ch=1 n=c6 v=0
30650 On ch=1 n=c6 v=35
30680 On ch=1 n=d6 v=39
30700 On ch=1 n=e6 v=42
30710 On ch=1 n=c6 v=0
30720 On ch=1 n=f6 v=48
30740 On ch=1 n=d6 v=0
30760 On ch=1 n=e6 v=0
30820 On ch=1 n=f6 v=0
30840 On ch=1 n=f5 v=55
30920 On ch=1 n=f5 v=0
30960 On ch=1 n=a#5 v=50
31020 On ch=1 n=a#5 v=0
31080 On ch=1 n=d6 v=45
31150 On ch=1 n=d6 v=0
31200 On ch=1 n=c6 v=48
31320 On ch=1 n=c6 v=0
31440 On ch=1 n=c6 v=52
31600 On ch=1 n=c6 v=0
31620 On ch=1 n=c6 v=40
31640 On ch=1 n=d6 v=44
31660 On ch=1 n=e6 v=47
31680 On ch=1 n=c6 v=0
31680 On ch=1 n=f6 v=50
31700 On ch=1 n=d6 v=0
31720 On ch=1 n=e6 v=0
31840 On ch=1 n=f6 v=0
31920 On ch=1 n=e6 v=54
32040 On ch=1 n=e6 v=0
32160 On ch=1 n=d6 v=60
32560 On ch=1 n=d6 v=0
32600 On ch=1 n=c6 v=35
32640 On ch=1 n=f6 v=50
32660 On ch=1 n=c6 v=0
32780 On ch=1 n=f6 v=0
32880 On ch=1 n=c6 v=65
33360 On ch=1 n=c6 v=0
33360 On ch=1 n=c6 v=48
33480 On ch=1 n=c6 v=0
33530 On ch=1 n=c6 v=35
33560 On ch=1 n=d6 v=39
33580 On ch=1 n=e6 v=42
33590 On ch=1 n=c6 v=0
33600 On ch=1 n=f6 v=48
33620 On ch=1 n=d6 v=0
33640 On ch=1 n=e6 v=0
33700 On ch=1 n=f6 v=0
33720 On ch=1 n=c5 v=55
33800 On ch=1 n=c5 v=0
33840 On ch=1 n=f5 v=50
33900 On ch=1 n=f5 v=0
33960 On ch=1 n=a#5 v=45
34030 On ch=1 n=a#5 v=0
34080 On ch=1 n=a5 v=48
34200 On ch=1 n=a5 v=0
34320 On ch=1 n=f5 v=52
34480 On ch=1 n=f5 v=0
34500 On ch=1 n=f5 v=40
34520 On ch=1 n=g5 v=34
34540 On ch=1 n=a5 v=37
34560 On ch=1 n=f5 v=0
34560 On ch=1 n=a#5 v=45
34580 On ch=1 n=g5 v=0
34600 On ch=1 n=a5 v=0
34720 On ch=1 n=a#5 v=0
34800 On ch=1 n=a5 v=49
34920 On ch=1 n=a5 v=0
35040 On ch=1 n=g5 v=55
35440 On ch=1 n=g5 v=0
35520 On ch=1 n=a5 v=40
35660 On ch=1 n=a5 v=0
35760 On ch=1 n=f5 v=50
36160 On ch=1 n=f5 v=0
38520 On ch=1 n=a#6 v=70
38640 On ch=1 n=a6 v=64
38660 On ch=1 n=a#6 v=0
38760 On ch=1 n=g#6 v=58
38780 On ch=1 n=a6 v=0
38880 On ch=1 n=a6 v=60
38900 On ch=1 n=g#6 v=0
39000 On ch=1 n=g6 v=54
39020 On ch=1 n=a6 v=0
39120 On ch=1 n=f6 v=48
39140 On ch=1 n=g6 v=0
39240 On ch=1 n=e6 v=50
39260 On ch=1 n=f6 v=0
39340 On ch=1 n=e6 v=0
39360 On ch=1 n=d6 v=40
39600 On ch=1 n=d6 v=0
41400 On ch=1 n=a#5 v=75
41520 On ch=1 n=a5 v=68
41540 On ch=1 n=a#5 v=0
41640 On ch=1 n=g#5 v=62
41660 On ch=1 n=a5 v=0
41760 On ch=1 n=a5 v=65
41780 On ch=1 n=g#5 v=0
41880 On ch=1 n=b5 v=58
41900 On ch=1 n=a5 v=0
42000 On ch=1 n=c#6 v=48
42020 On ch=1 n=b5 v=0
42120 On ch=1 n=d6 v=52
42140 On ch=1 n=c#6 v=0
42220 On ch=1 n=d6 v=0
44280 On ch=1 n=a#6 v=80
44400 On ch=1 n=a6 v=74
44420 On ch=1 n=a#6 v=0
44520 On ch=1 n=g#6 v=68
44540 On ch=1 n=a6 v=0
44640 On ch=1 n=a6 v=70
44660 On ch=1 n=g#6 v=0
44760 On ch=1 n=g6 v=64
44780 On ch=1 n=a6 v=0
44880 On ch=1 n=f6 v=58
44900 On ch=1 n=g6 v=0
45000 On ch=1 n=e6 v=60
45020 On ch=1 n=f6 v=0
45120 On ch=1 n=d6 v=50
45140 On ch=1 n=e6 v=0
45360 On ch=1 n=d6 v=0
47160 On ch=1 n=a#5 v=98
47280 On ch=1 n=a5 v=95
47300 On ch=1 n=a#5 v=0
47400 On ch=1 n=g#5 v=105
47420 On ch=1 n=a5 v=0
47520 On ch=1 n=a5 v=95
47540 On ch=1 n=g#5 v=0
47640 On ch=1 n=c#6 v=105
47660 On ch=1 n=a5 v=0
47760 On ch=1 n=e6 v=115
47780 On ch=1 n=c#6 v=0
47880 On ch=1 n=a6 v=120
47900 On ch=1 n=e6 v=0
47980 On ch=1 n=a6 v=0
48240 On ch=1 n=d8 v=110
48240 On ch=1 n=f#7 v=103
48240 On ch=1 n=d7 v=85
48380 On ch=1 n=d7 v=0
48380 On ch=1 n=f#7 v=0
48380 On ch=1 n=d8 v=0
48480 On ch=1 n=a7 v=115
48480 On ch=1 n=f#7 v=100
48480 On ch=1 n=d7 v=75
48880 On ch=1 n=d7 v=0
48880 On ch=1 n=f#7 v=0
48880 On ch=1 n=a7 v=0
48960 On ch=1 n=b7 v=102
48960 On ch=1 n=g7 v=90
48960 On ch=1 n=d7 v=65
49080 On ch=1 n=d7 v=0
49080 On ch=1 n=g7 v=0
49080 On ch=1 n=b7 v=0
49200 On ch=1 n=a7 v=108
49200 On ch=1 n=f#7 v=92
49200 On ch=1 n=d7 v=68
49600 On ch=1 n=d7 v=0
49600 On ch=1 n=f#7 v=0
49600 On ch=1 n=a7 v=0
49680 On ch=1 n=b7 v=110
49680 On ch=1 n=g7 v=95
49680 On ch=1 n=d7 v=60
50080 On ch=1 n=d7 v=0
50080 On ch=1 n=g7 v=0
50080 On ch=1 n=b7 v=0
50160 On ch=1 n=a7 v=105
50160 On ch=1 n=f#7 v=90
50160 On ch=1 n=d7 v=65
50960 On ch=1 n=a7 v=0
50970 On ch=1 n=a7 v=95
51020 On ch=1 n=a7 v=0
51030 On ch=1 n=b7 v=100
51040 On ch=1 n=d7 v=0
51040 On ch=1 n=f#7 v=0
51080 On ch=1 n=b7 v=0
51080 On ch=1 n=c#8 v=103
51120 On ch=1 n=d8 v=110
51120 On ch=1 n=f#7 v=88
51130 On ch=1 n=c#8 v=0
51260 On ch=1 n=f#7 v=0
51260 On ch=1 n=d8 v=0
51360 On ch=1 n=a7 v=118
51360 On ch=1 n=f#7 v=100
51360 On ch=1 n=d7 v=75
51760 On ch=1 n=d7 v=0
51760 On ch=1 n=f#7 v=0
51760 On ch=1 n=a7 v=0
51840 On ch=1 n=b7 v=102
51840 On ch=1 n=g7 v=90
51840 On ch=1 n=d7 v=65
51960 On ch=1 n=d7 v=0
51960 On ch=1 n=g7 v=0
51960 On ch=1 n=b7 v=0
52080 On ch=1 n=a7 v=108
52080 On ch=1 n=f#7 v=92
52080 On ch=1 n=d7 v=68
52480 On ch=1 n=d7 v=0
52480 On ch=1 n=f#7 v=0
52480 On ch=1 n=a7 v=0
52560 On ch=1 n=g7 v=110
52560 On ch=1 n=e7 v=95
52560 On ch=1 n=c#7 v=60
52960 On ch=1 n=c#7 v=0
52960 On ch=1 n=e7 v=0
52960 On ch=1 n=g7 v=0
52980 On ch=1 n=f#7 v=112
52980 On ch=1 n=d7 v=90
52980 On ch=1 n=a6 v=65
53020 On ch=1 n=a6 v=0
53020 On ch=1 n=d7 v=0
53020 On ch=1 n=f#7 v=0
53040 On ch=1 n=f#7 v=105
53040 On ch=1 n=d7 v=90
53040 On ch=1 n=a6 v=65
53440 On ch=1 n=a6 v=0
53440 On ch=1 n=d7 v=0
53440 On ch=1 n=f#7 v=0
53520 On ch=1 n=d6 v=110
53620 On ch=1 n=f#6 v=95
53640 On ch=1 n=d6 v=0
53680 On ch=1 n=a6 v=103
53700 On ch=1 n=f#6 v=0
53760 On ch=1 n=d7 v=110
53780 On ch=1 n=a6 v=0
53840 On ch=1 n=f#7 v=117
53860 On ch=1 n=d7 v=0
53910 On ch=1 n=a7 v=120
53930 On ch=1 n=f#7 v=0
54000 On ch=1 n=d8 v=125
54000 On ch=1 n=f#7 v=98
54020 On ch=1 n=a7 v=0
54140 On ch=1 n=f#7 v=0
54140 On ch=1 n=d8 v=0
54240 On ch=1 n=a7 v=125
54240 On ch=1 n=f#7 v=110
54240 On ch=1 n=d7 v=85
54640 On ch=1 n=d7 v=0
54640 On ch=1 n=f#7 v=0
54640 On ch=1 n=a7 v=0
54720 On ch=1 n=b7 v=112
54720 On ch=1 n=g7 v=100
54720 On ch=1 n=d7 v=75
54840 On ch=1 n=d7 v=0
54840 On ch=1 n=g7 v=0
54840 On ch=1 n=b7 v=0
54960 On ch=1 n=a7 v=118
54960 On ch=1 n=f#7 v=102
54960 On ch=1 n=d7 v=78
55360 On ch=1 n=d7 v=0
55360 On ch=1 n=f#7 v=0
55360 On ch=1 n=a7 v=0
55440 On ch=1 n=b7 v=125
55440 On ch=1 n=f#7 v=110
55440 On ch=1 n=d7 v=75
55840 On ch=1 n=d7 v=0
55840 On ch=1 n=f#7 v=0
55840 On ch=1 n=b7 v=0
55860 On ch=1 n=a7 v=110
55860 On ch=1 n=f#7 v=98
55860 On ch=1 n=d7 v=80
55900 On ch=1 n=d7 v=0
55900 On ch=1 n=f#7 v=0
55900 On ch=1 n=a7 v=0
55920 On ch=1 n=a7 v=115
55920 On ch=1 n=f#7 v=100
55920 On ch=1 n=d7 v=75
56720 On ch=1 n=a7 v=0
56730 On ch=1 n=a7 v=105
56780 On ch=1 n=a7 v=0
56790 On ch=1 n=b7 v=110
56800 On ch=1 n=d7 v=0
56800 On ch=1 n=f#7 v=0
56840 On ch=1 n=b7 v=0
56840 On ch=1 n=c#8 v=113
56880 On ch=1 n=d8 v=120
56880 On ch=1 n=f#7 v=98
56890 On ch=1 n=c#8 v=0
57020 On ch=1 n=f#7 v=0
57020 On ch=1 n=d8 v=0
57120 On ch=1 n=a7 v=127
57120 On ch=1 n=f#7 v=110
57120 On ch=1 n=d7 v=85
57520 On ch=1 n=d7 v=0
57520 On ch=1 n=f#7 v=0
57520 On ch=1 n=a7 v=0
57600 On ch=1 n=b7 v=112
57600 On ch=1 n=g7 v=100
57600 On ch=1 n=d7 v=75
57720 On ch=1 n=d7 v=0
57720 On ch=1 n=g7 v=0
57720 On ch=1 n=b7 v=0
57840 On ch=1 n=a7 v=118
57840 On ch=1 n=f#7 v=102
57840 On ch=1 n=d7 v=78
58240 On ch=1 n=d7 v=0
58240 On ch=1 n=f#7 v=0
58240 On ch=1 n=a7 v=0
58320 On ch=1 n=g7 v=120
58320 On ch=1 n=e7 v=105
58320 On ch=1 n=c#7 v=70
58720 On ch=1 n=c#7 v=0
58720 On ch=1 n=e7 v=0
58720 On ch=1 n=g7 v=0
58740 On ch=1 n=f#7 v=122
58740 On ch=1 n=d7 v=100
58740 On ch=1 n=a6 v=75
58780 On ch=1 n=a6 v=0
58780 On ch=1 n=d7 v=0
58780 On ch=1 n=f#7 v=0
58800 On ch=1 n=f#7 v=115
58800 On ch=1 n=d7 v=100
58800 On ch=1 n=a6 v=75
59200 On ch=1 n=a6 v=0
59200 On ch=1 n=d7 v=0
59200 On ch=1 n=f#7 v=0
59520 On ch=1 n=a6 v=60
59720 On ch=1 n=a6 v=0
59760 On ch=1 n=d6 v=60
59820 On ch=1 n=d6 v=0
59880 On ch=1 n=e6 v=53
59920 On ch=1 n=e6 v=0
60000 On ch=1 n=f6 v=55
60140 On ch=1 n=f6 v=0
60480 On ch=1 n=e6 v=58
60540 On ch=1 n=e6 v=0
60600 On ch=1 n=f6 v=62
60640 On ch=1 n=f6 v=0
60720 On ch=1 n=g6 v=65
60880 On ch=1 n=g6 v=0
61080 On ch=1 n=f6 v=68
61140 On ch=1 n=f6 v=0
61200 On ch=1 n=f6 v=70
61320 On ch=1 n=e6 v=63
61340 On ch=1 n=f6 v=0
61400 On ch=1 n=e6 v=0
61440 On ch=1 n=e6 v=65
61560 On ch=1 n=d6 v=58
61580 On ch=1 n=e6 v=0
61660 On ch=1 n=d6 v=0
61920 On ch=1 n=a#7 v=85
61920 On ch=1 n=a#6 v=68
62400 On ch=1 n=a7 v=70
62400 On ch=1 n=a6 v=55
62420 On ch=1 n=a#6 v=0
62420 On ch=1 n=a#7 v=0
62600 On ch=1 n=a7 v=0
62640 On ch=1 n=a6 v=0
62880 On ch=1 n=g#7 v=58
62880 On ch=1 n=g#6 v=45
63040 On ch=1 n=g#6 v=0
63040 On ch=1 n=g#7 v=0
63360 On ch=1 n=a7 v=50
63360 On ch=1 n=a6 v=38
63540 On ch=1 n=a6 v=0
63540 On ch=1 n=a7 v=0
63960 On ch=1 n=f6 v=68
64020 On ch=1 n=f6 v=0
64080 On ch=1 n=f6 v=70
64200 On ch=1 n=e6 v=63
64220 On ch=1 n=f6 v=0
64280 On ch=1 n=e6 v=0
64320 On ch=1 n=e6 v=65
64520 On ch=1 n=e6 v=0
64800 On ch=1 n=a#7 v=95
64800 On ch=1 n=a#6 v=78
65040 On ch=1 n=a7 v=80
65040 On ch=1 n=a6 v=65
65060 On ch=1 n=a#6 v=0
65060 On ch=1 n=a#7 v=0
65280 On ch=1 n=g#7 v=70
65280 On ch=1 n=g#6 v=58
65300 On ch=1 n=a6 v=0
65300 On ch=1 n=a7 v=0
65520 On ch=1 n=a7 v=62
65520 On ch=1 n=a6 v=50
65540 On ch=1 n=g#6 v=0
65540 On ch=1 n=g#7 v=0
65720 On ch=1 n=a6 v=0
65720 On ch=1 n=a7 v=0
65760 On ch=1 n=f7 v=65
65900 On ch=1 n=f7 v=0
66000 On ch=1 n=d7 v=53
66160 On ch=1 n=d7 v=0
66240 On ch=1 n=a6 v=45
66360 On ch=1 n=a6 v=0
66720 On ch=1 n=a#6 v=50
66900 On ch=1 n=a#6 v=0
67200 On ch=1 n=g#6 v=43
67340 On ch=1 n=g#6 v=0
67680 On ch=1 n=a6 v=45
68160 On ch=1 n=a6 v=0
68160 On ch=1 n=a6 v=45
68360 On ch=1 n=a6 v=0
68640 On ch=1 n=f6 v=55
68860 On ch=1 n=f6 v=0
68880 On ch=1 n=d6 v=42
69060 On ch=1 n=d6 v=0
69120 On ch=1 n=a5 v=45
69320 On ch=1 n=a5 v=0
69600 On ch=1 n=a#5 v=40
69760 On ch=1 n=a#5 v=0
70080 On ch=1 n=a5 v=35
70260 On ch=1 n=a5 v=0
71040 On ch=1 n=c7 v=55
71200 On ch=1 n=c7 v=0
71210 On ch=1 n=c7 v=40
71240 On ch=1 n=d7 v=44
71260 On ch=1 n=e7 v=47
71270 On ch=1 n=c7 v=0
71280 On ch=1 n=f7 v=53
71300 On ch=1 n=d7 v=0
71320 On ch=1 n=e7 v=0
71380 On ch=1 n=f7 v=0
71400 On ch=1 n=f6 v=60
71480 On ch=1 n=f6 v=0
71520 On ch=1 n=a#6 v=55
71580 On ch=1 n=a#6 v=0
71640 On ch=1 n=d7 v=50
71710 On ch=1 n=d7 v=0
71760 On ch=1 n=c7 v=53
71760 On ch=1 n=a6 v=42
71880 On ch=1 n=a6 v=0
71880 On ch=1 n=c7 v=0
72000 On ch=1 n=c7 v=57
72000 On ch=1 n=a6 v=45
72160 On ch=1 n=a6 v=0
72160 On ch=1 n=c7 v=0
72180 On ch=1 n=c7 v=45
72200 On ch=1 n=d7 v=49
72220 On ch=1 n=e7 v=52
72240 On ch=1 n=d7 v=0
72240 On ch=1 n=c7 v=0
72240 On ch=1 n=f7 v=55
72240 On ch=1 n=d7 v=48
72280 On ch=1 n=e7 v=0
72400 On ch=1 n=d7 v=0
72400 On ch=1 n=f7 v=0
72480 On ch=1 n=e7 v=59
72480 On ch=1 n=c7 v=50
72600 On ch=1 n=c7 v=0
72600 On ch=1 n=e7 v=0
72720 On ch=1 n=d7 v=65
72720 On ch=1 n=a#6 v=52
73120 On ch=1 n=a#6 v=0
73120 On ch=1 n=d7 v=0
73160 On ch=1 n=a6 v=40
73200 On ch=1 n=f7 v=55
73220 On ch=1 n=a6 v=0
73340 On ch=1 n=f7 v=0
73440 On ch=1 n=c7 v=70
73440 On ch=1 n=a6 v=50
73920 On ch=1 n=a6 v=0
73920 On ch=1 n=c7 v=0
73920 On ch=1 n=c7 v=53
74040 On ch=1 n=c7 v=0
74090 On ch=1 n=c7 v=40
74120 On ch=1 n=d7 v=44
74140 On ch=1 n=e7 v=47
74150 On ch=1 n=c7 v=0
74160 On ch=1 n=f7 v=53
74180 On ch=1 n=d7 v=0
74200 On ch=1 n=e7 v=0
74260 On ch=1 n=f7 v=0
74280 On ch=1 n=c6 v=60
74360 On ch=1 n=c6 v=0
74400 On ch=1 n=f6 v=55
74460 On ch=1 n=f6 v=0
74520 On ch=1 n=a#6 v=50
74590 On ch=1 n=a#6 v=0
74640 On ch=1 n=a6 v=53
74760 On ch=1 n=a6 v=0
74880 On ch=1 n=f6 v=57
75040 On ch=1 n=f6 v=0
75060 On ch=1 n=f6 v=45
75080 On ch=1 n=g6 v=39
75100 On ch=1 n=a6 v=42
75120 On ch=1 n=f6 v=0
75120 On ch=1 n=a#6 v=50
75140 On ch=1 n=g6 v=0
75160 On ch=1 n=a6 v=0
75280 On ch=1 n=a#6 v=0
75360 On ch=1 n=a6 v=54
75360 On ch=1 n=f6 v=38
75480 On ch=1 n=f6 v=0
75480 On ch=1 n=a6 v=0
75600 On ch=1 n=g6 v=60
75600 On ch=1 n=c6 v=42
76000 On ch=1 n=c6 v=0
76000 On ch=1 n=g6 v=0
76040 On ch=1 n=f6 v=35
76080 On ch=1 n=a6 v=45
76220 On ch=1 n=a6 v=0
76220 On ch=1 n=f6 v=0
76320 On ch=1 n=f6 v=55
76720 On ch=1 n=f6 v=0
76800 On ch=1 n=c7 v=50
76920 On ch=1 n=c7 v=0
76970 On ch=1 n=c7 v=35
77000 On ch=1 n=d7 v=39
77020 On ch=1 n=e7 v=42
77030 On ch=1 n=c7 v=0
77040 On ch=1 n=f7 v=48
77060 On ch=1 n=d7 v=0
77080 On ch=1 n=e7 v=0
77140 On ch=1 n=f7 v=0
77160 On ch=1 n=f6 v=55
77240 On ch=1 n=f6 v=0
77280 On ch=1 n=a#6 v=50
77340 On ch=1 n=a#6 v=0
77400 On ch=1 n=d7 v=45
77470 On ch=1 n=d7 v=0
77520 On ch=1 n=c7 v=48
77520 On ch=1 n=a6 v=35
77640 On ch=1 n=a6 v=0
77640 On ch=1 n=c7 v=0
77760 On ch=1 n=c7 v=52
77760 On ch=1 n=a6 v=40
77920 On ch=1 n=a6 v=0
77920 On ch=1 n=c7 v=0
78000 On ch=1 n=g7 v=55
78000 On ch=1 n=e7 v=38
78120 On ch=1 n=f7 v=50
78120 On ch=1 n=d7 v=33
78140 On ch=1 n=e7 v=0
78140 On ch=1 n=g7 v=0
78220 On ch=1 n=d7 v=0
78220 On ch=1 n=f7 v=0
78240 On ch=1 n=f7 v=52
78240 On ch=1 n=d7 v=35
78360 On ch=1 n=d7 v=0
78360 On ch=1 n=d7 v=54
78360 On ch=1 n=a#6 v=37
78380 On ch=1 n=f7 v=0
78460 On ch=1 n=a#6 v=0
78460 On ch=1 n=d7 v=0
78480 On ch=1 n=d7 v=60
78480 On ch=1 n=a#6 v=40
78880 On ch=1 n=a#6 v=0
78880 On ch=1 n=d7 v=0
78920 On ch=1 n=c7 v=35
78960 On ch=1 n=a7 v=50
78980 On ch=1 n=c7 v=0
79100 On ch=1 n=a7 v=0
79200 On ch=1 n=c7 v=65
79200 On ch=1 n=a6 v=45
79680 On ch=1 n=a6 v=0
79680 On ch=1 n=c7 v=0
79680 On ch=1 n=c7 v=48
79800 On ch=1 n=c7 v=0
79850 On ch=1 n=c7 v=35
79880 On ch=1 n=d7 v=39
79900 On ch=1 n=e7 v=42
79910 On ch=1 n=c7 v=0
79920 On ch=1 n=f7 v=48
79940 On ch=1 n=d7 v=0
79960 On ch=1 n=e7 v=0
80020 On ch=1 n=f7 v=0
80040 On ch=1 n=c6 v=55
80120 On ch=1 n=c6 v=0
80160 On ch=1 n=f6 v=50
80220 On ch=1 n=f6 v=0
80280 On ch=1 n=a#6 v=45
80350 On ch=1 n=a#6 v=0
80400 On ch=1 n=a6 v=48
80520 On ch=1 n=a6 v=0
80640 On ch=1 n=f6 v=52
80800 On ch=1 n=f6 v=0
80820 On ch=1 n=f6 v=40
80840 On ch=1 n=g6 v=34
80860 On ch=1 n=a6 v=37
80880 On ch=1 n=f6 v=0
80880 On ch=1 n=a#6 v=45
80900 On ch=1 n=g6 v=0
80920 On ch=1 n=a6 v=0
81040 On ch=1 n=a#6 v=0
81120 On ch=1 n=a6 v=40
81120 On ch=1 n=f6 v=23
81240 On ch=1 n=f6 v=0
81240 On ch=1 n=a6 v=0
81360 On ch=1 n=g6 v=42
81360 On ch=1 n=c6 v=25
81720 On ch=1 n=c7 v=38
81740 On ch=1 n=c6 v=0
81740 On ch=1 n=g6 v=0
81820 On ch=1 n=c7 v=0
81840 On ch=1 n=a6 v=40
81840 On ch=1 n=f6 v=28
81980 On ch=1 n=f6 v=0
81980 On ch=1 n=a6 v=0
82320 On ch=1 n=f6 v=35
82320 On ch=1 n=c6 v=15
82560 On ch=1 n=c6 v=0
82560 On ch=1 n=f6 v=0
82560 Meta TrkEnd
TrkEnd
MTrk
0 SeqSpec 43 00 01 00
0 Meta TrkName "Piano 1(L.H.)                       "
980 Par ch=2 c=32 v=1
1040 Par ch=2 c=0 v=0
1100 PrCh ch=2 p=0
1160 Par ch=2 c=10 v=68
1220 Par ch=2 c=91 v=80
1280 Par ch=2 c=7 v=120
1340 Par ch=2 c=11 v=120
2400 On ch=2 n=a5 v=40
2520 On ch=2 n=a5 v=0
2640 On ch=2 n=a5 v=45
2800 On ch=2 n=a5 v=0
2820 On ch=2 n=a5 v=32
2840 On ch=2 n=a#5 v=36
2860 On ch=2 n=c6 v=39
2880 On ch=2 n=a5 v=0
2880 On ch=2 n=d6 v=42
2900 On ch=2 n=a#5 v=0
2920 On ch=2 n=c6 v=0
3040 On ch=2 n=d6 v=0
3120 On ch=2 n=c6 v=46
3240 On ch=2 n=c6 v=0
3360 On ch=2 n=a#5 v=50
3760 On ch=2 n=a#5 v=0
3840 On ch=2 n=a5 v=42
3980 On ch=2 n=a5 v=0
4080 On ch=2 n=a5 v=48
4560 On ch=2 n=a5 v=0
5760 On ch=2 n=g5 v=40
5920 On ch=2 n=g5 v=0
6000 On ch=2 n=f5 v=44
6120 On ch=2 n=f5 v=0
6240 On ch=2 n=c5 v=50
6640 On ch=2 n=c5 v=0
6720 On ch=2 n=f5 v=42
6860 On ch=2 n=f5 v=0
8160 On ch=2 n=a5 v=35
8280 On ch=2 n=a5 v=0
8400 On ch=2 n=a5 v=40
8560 On ch=2 n=a5 v=0
8580 On ch=2 n=a5 v=27
8600 On ch=2 n=a#5 v=31
8620 On ch=2 n=c6 v=34
8640 On ch=2 n=a5 v=0
8640 On ch=2 n=d6 v=37
8660 On ch=2 n=a#5 v=0
8680 On ch=2 n=c6 v=0
8800 On ch=2 n=d6 v=0
8880 On ch=2 n=c6 v=41
9000 On ch=2 n=c6 v=0
9120 On ch=2 n=a#5 v=45
9520 On ch=2 n=a#5 v=0
9600 On ch=2 n=a5 v=37
9740 On ch=2 n=a5 v=0
9840 On ch=2 n=a5 v=43
10320 On ch=2 n=a5 v=0
11520 On ch=2 n=g5 v=35
11680 On ch=2 n=g5 v=0
11760 On ch=2 n=f5 v=39
11880 On ch=2 n=f5 v=0
12000 On ch=2 n=c5 v=45
12400 On ch=2 n=c5 v=0
12480 On ch=2 n=f5 v=37
12620 On ch=2 n=f5 v=0
19200 On ch=2 n=f5 v=48
19260 On ch=2 n=f5 v=0
19320 On ch=2 n=a5 v=43
19360 On ch=2 n=a5 v=0
19440 On ch=2 n=d6 v=45
19580 On ch=2 n=d6 v=0
19920 On ch=2 n=c#6 v=45
19980 On ch=2 n=c#6 v=0
20040 On ch=2 n=d6 v=48
20080 On ch=2 n=d6 v=0
20160 On ch=2 n=e6 v=52
20320 On ch=2 n=e6 v=0
20520 On ch=2 n=d6 v=55
20580 On ch=2 n=d6 v=0
20640 On ch=2 n=d6 v=58
20760 On ch=2 n=c#6 v=50
20780 On ch=2 n=d6 v=0
20840 On ch=2 n=c#6 v=0
20880 On ch=2 n=c#6 v=57
21000 On ch=2 n=b5 v=50
21020 On ch=2 n=c#6 v=0
21100 On ch=2 n=b5 v=0
21120 On ch=2 n=c#6 v=55
21600 On ch=2 n=c#6 v=0
22080 On ch=2 n=f5 v=53
22140 On ch=2 n=f5 v=0
22200 On ch=2 n=a5 v=48
22240 On ch=2 n=a5 v=0
22320 On ch=2 n=d6 v=45
22460 On ch=2 n=d6 v=0
22800 On ch=2 n=c#6 v=45
22860 On ch=2 n=c#6 v=0
22920 On ch=2 n=d6 v=48
22960 On ch=2 n=d6 v=0
23040 On ch=2 n=e6 v=52
23200 On ch=2 n=e6 v=0
23400 On ch=2 n=d6 v=55
23460 On ch=2 n=d6 v=0
23520 On ch=2 n=d6 v=58
23640 On ch=2 n=c#6 v=50
23660 On ch=2 n=d6 v=0
23720 On ch=2 n=c#6 v=0
23760 On ch=2 n=c#6 v=57
24020 On ch=2 n=c#6 v=0
25440 On ch=2 n=a5 v=50
25560 On ch=2 n=a5 v=0
25680 On ch=2 n=a5 v=55
25840 On ch=2 n=a5 v=0
25860 On ch=2 n=a5 v=42
25880 On ch=2 n=a#5 v=46
25900 On ch=2 n=c6 v=49
25920 On ch=2 n=a5 v=0
25920 On ch=2 n=d6 v=52
25940 On ch=2 n=a#5 v=0
25960 On ch=2 n=c6 v=0
26080 On ch=2 n=d6 v=0
26160 On ch=2 n=c6 v=56
26280 On ch=2 n=c6 v=0
26400 On ch=2 n=a#5 v=60
26800 On ch=2 n=a#5 v=0
26880 On ch=2 n=a5 v=52
27020 On ch=2 n=a5 v=0
27120 On ch=2 n=a5 v=58
27600 On ch=2 n=a5 v=0
28800 On ch=2 n=g5 v=50
28960 On ch=2 n=g5 v=0
29040 On ch=2 n=f5 v=54
29160 On ch=2 n=f5 v=0
29280 On ch=2 n=c5 v=60
29680 On ch=2 n=c5 v=0
29760 On ch=2 n=f5 v=52
29900 On ch=2 n=f5 v=0
31200 On ch=2 n=a5 v=40
31320 On ch=2 n=a5 v=0
31440 On ch=2 n=a5 v=45
31600 On ch=2 n=a5 v=0
31620 On ch=2 n=a5 v=32
31640 On ch=2 n=a#5 v=36
31660 On ch=2 n=c6 v=39
31680 On ch=2 n=a5 v=0
31680 On ch=2 n=d6 v=42
31700 On ch=2 n=a#5 v=0
31720 On ch=2 n=c6 v=0
31840 On ch=2 n=d6 v=0
31920 On ch=2 n=c6 v=46
32040 On ch=2 n=c6 v=0
32160 On ch=2 n=a#5 v=50
32560 On ch=2 n=a#5 v=0
32640 On ch=2 n=a5 v=42
32780 On ch=2 n=a5 v=0
32880 On ch=2 n=a5 v=48
33360 On ch=2 n=a5 v=0
34560 On ch=2 n=g5 v=40
34720 On ch=2 n=g5 v=0
34800 On ch=2 n=f5 v=44
34920 On ch=2 n=f5 v=0
35040 On ch=2 n=c5 v=50
35440 On ch=2 n=c5 v=0
35520 On ch=2 n=f5 v=42
35660 On ch=2 n=f5 v=0
36480 On ch=2 n=d5 v=55
36540 On ch=2 n=d5 v=0
36600 On ch=2 n=e5 v=48
36640 On ch=2 n=e5 v=0
36720 On ch=2 n=f5 v=50
36860 On ch=2 n=f5 v=0
37200 On ch=2 n=e5 v=53
37260 On ch=2 n=e5 v=0
37320 On ch=2 n=f5 v=57
37360 On ch=2 n=f5 v=0
37440 On ch=2 n=g5 v=60
37600 On ch=2 n=g5 v=0
37800 On ch=2 n=f5 v=63
37860 On ch=2 n=f5 v=0
37920 On ch=2 n=f5 v=65
38040 On ch=2 n=e5 v=58
38060 On ch=2 n=f5 v=0
38120 On ch=2 n=e5 v=0
38160 On ch=2 n=e5 v=60
38280 On ch=2 n=d5 v=53
38300 On ch=2 n=e5 v=0
38380 On ch=2 n=d5 v=0
38400 On ch=2 n=e5 v=57
38500 On ch=2 n=e5 v=0
38520 On ch=2 n=a#5 v=70
38640 On ch=2 n=a5 v=64
38660 On ch=2 n=a#5 v=0
38760 On ch=2 n=g#5 v=58
38780 On ch=2 n=a5 v=0
38880 On ch=2 n=a5 v=60
38900 On ch=2 n=g#5 v=0
39000 On ch=2 n=g5 v=54
39020 On ch=2 n=a5 v=0
39120 On ch=2 n=f5 v=48
39140 On ch=2 n=g5 v=0
39240 On ch=2 n=e5 v=50
39260 On ch=2 n=f5 v=0
39340 On ch=2 n=e5 v=0
39360 On ch=2 n=d5 v=65
39420 On ch=2 n=d5 v=0
39480 On ch=2 n=e5 v=58
39520 On ch=2 n=e5 v=0
39600 On ch=2 n=f5 v=55
39740 On ch=2 n=f5 v=0
40080 On ch=2 n=e5 v=58
40140 On ch=2 n=e5 v=0
40200 On ch=2 n=f5 v=62
40240 On ch=2 n=f5 v=0
40320 On ch=2 n=g5 v=65
40480 On ch=2 n=g5 v=0
40680 On ch=2 n=f5 v=68
40740 On ch=2 n=f5 v=0
40800 On ch=2 n=f5 v=70
40920 On ch=2 n=e5 v=63
40940 On ch=2 n=f5 v=0
41000 On ch=2 n=e5 v=0
41040 On ch=2 n=e5 v=65
41160 On ch=2 n=a4 v=60
41180 On ch=2 n=e5 v=0
41260 On ch=2 n=a4 v=0
41280 On ch=2 n=d5 v=62
41400 On ch=2 n=a#4 v=75
41420 On ch=2 n=d5 v=0
41520 On ch=2 n=a4 v=68
41540 On ch=2 n=a#4 v=0
41640 On ch=2 n=g#4 v=62
41660 On ch=2 n=a4 v=0
41760 On ch=2 n=a4 v=65
41780 On ch=2 n=g#4 v=0
41880 On ch=2 n=b4 v=58
41900 On ch=2 n=a4 v=0
42000 On ch=2 n=c#5 v=48
42020 On ch=2 n=b4 v=0
42120 On ch=2 n=d5 v=52
42140 On ch=2 n=c#5 v=0
42220 On ch=2 n=d5 v=0
42240 On ch=2 n=d5 v=65
42300 On ch=2 n=d5 v=0
42360 On ch=2 n=e5 v=58
42400 On ch=2 n=e5 v=0
42480 On ch=2 n=f5 v=60
42620 On ch=2 n=f5 v=0
42960 On ch=2 n=e5 v=63
43020 On ch=2 n=e5 v=0
43080 On ch=2 n=f5 v=67
43120 On ch=2 n=f5 v=0
43200 On ch=2 n=g5 v=70
43360 On ch=2 n=g5 v=0
43560 On ch=2 n=f5 v=73
43620 On ch=2 n=f5 v=0
43680 On ch=2 n=f5 v=75
43800 On ch=2 n=e5 v=68
43820 On ch=2 n=f5 v=0
43880 On ch=2 n=e5 v=0
43920 On ch=2 n=e5 v=70
44040 On ch=2 n=d5 v=63
44060 On ch=2 n=e5 v=0
44140 On ch=2 n=d5 v=0
44160 On ch=2 n=e5 v=67
44260 On ch=2 n=e5 v=0
44280 On ch=2 n=a#5 v=80
44400 On ch=2 n=a5 v=74
44420 On ch=2 n=a#5 v=0
44520 On ch=2 n=g#5 v=68
44540 On ch=2 n=a5 v=0
44640 On ch=2 n=a5 v=70
44660 On ch=2 n=g#5 v=0
44760 On ch=2 n=g5 v=64
44780 On ch=2 n=a5 v=0
44880 On ch=2 n=f5 v=58
44900 On ch=2 n=g5 v=0
45000 On ch=2 n=e5 v=60
45020 On ch=2 n=f5 v=0
45100 On ch=2 n=e5 v=0
45120 On ch=2 n=d5 v=75
45180 On ch=2 n=d5 v=0
45240 On ch=2 n=e5 v=68
45280 On ch=2 n=e5 v=0
45360 On ch=2 n=f5 v=65
45500 On ch=2 n=f5 v=0
45840 On ch=2 n=e5 v=68
45900 On ch=2 n=e5 v=0
45960 On ch=2 n=f5 v=72
46000 On ch=2 n=f5 v=0
46080 On ch=2 n=g5 v=75
46240 On ch=2 n=g5 v=0
46440 On ch=2 n=f5 v=78
46500 On ch=2 n=f5 v=0
46560 On ch=2 n=f5 v=80
46680 On ch=2 n=e5 v=83
46700 On ch=2 n=f5 v=0
46760 On ch=2 n=e5 v=0
46800 On ch=2 n=e5 v=85
46920 On ch=2 n=a4 v=90
46940 On ch=2 n=e5 v=0
47020 On ch=2 n=a4 v=0
47040 On ch=2 n=d5 v=92
47160 On ch=2 n=a#4 v=98
47180 On ch=2 n=d5 v=0
47280 On ch=2 n=a4 v=95
47300 On ch=2 n=a#4 v=0
47400 On ch=2 n=g#4 v=105
47420 On ch=2 n=a4 v=0
47520 On ch=2 n=a4 v=108
47540 On ch=2 n=g#4 v=0
47640 On ch=2 n=c#5 v=105
47660 On ch=2 n=a4 v=0
47760 On ch=2 n=e5 v=115
47780 On ch=2 n=c#5 v=0
47880 On ch=2 n=a5 v=120
47900 On ch=2 n=e5 v=0
47980 On ch=2 n=a5 v=0
48240 On ch=2 n=a6 v=115
48240 On ch=2 n=f#6 v=103
48240 On ch=2 n=d6 v=85
48380 On ch=2 n=d6 v=0
48380 On ch=2 n=f#6 v=0
48380 On ch=2 n=a6 v=0
48480 On ch=2 n=a6 v=115
48480 On ch=2 n=f#6 v=100
48480 On ch=2 n=d6 v=75
48880 On ch=2 n=d6 v=0
48880 On ch=2 n=f#6 v=0
48880 On ch=2 n=a6 v=0
48960 On ch=2 n=b6 v=102
48960 On ch=2 n=g6 v=90
48960 On ch=2 n=d6 v=65
49080 On ch=2 n=d6 v=0
49080 On ch=2 n=g6 v=0
49080 On ch=2 n=b6 v=0
49200 On ch=2 n=a6 v=108
49200 On ch=2 n=f#6 v=92
49200 On ch=2 n=d6 v=68
49600 On ch=2 n=d6 v=0
49600 On ch=2 n=f#6 v=0
49600 On ch=2 n=a6 v=0
49680 On ch=2 n=b6 v=110
49680 On ch=2 n=g6 v=95
49680 On ch=2 n=d6 v=60
50080 On ch=2 n=d6 v=0
50080 On ch=2 n=g6 v=0
50080 On ch=2 n=b6 v=0
50160 On ch=2 n=a6 v=105
50160 On ch=2 n=f#6 v=90
50160 On ch=2 n=d6 v=65
50960 On ch=2 n=a6 v=0
50970 On ch=2 n=a6 v=95
51020 On ch=2 n=a6 v=0
51030 On ch=2 n=b6 v=100
51040 On ch=2 n=d6 v=0
51040 On ch=2 n=f#6 v=0
51080 On ch=2 n=b6 v=0
51080 On ch=2 n=c#7 v=103
51120 On ch=2 n=d7 v=110
51120 On ch=2 n=f#6 v=88
51130 On ch=2 n=c#7 v=0
51260 On ch=2 n=f#6 v=0
51260 On ch=2 n=d7 v=0
51360 On ch=2 n=a6 v=118
51360 On ch=2 n=f#6 v=100
51360 On ch=2 n=d6 v=75
51760 On ch=2 n=d6 v=0
51760 On ch=2 n=f#6 v=0
51760 On ch=2 n=a6 v=0
51840 On ch=2 n=b6 v=102
51840 On ch=2 n=g6 v=90
51840 On ch=2 n=d6 v=65
51960 On ch=2 n=d6 v=0
51960 On ch=2 n=g6 v=0
51960 On ch=2 n=b6 v=0
52080 On ch=2 n=a6 v=108
52080 On ch=2 n=f#6 v=92
52080 On ch=2 n=d6 v=68
52480 On ch=2 n=d6 v=0
52480 On ch=2 n=f#6 v=0
52480 On ch=2 n=a6 v=0
52560 On ch=2 n=g6 v=110
52560 On ch=2 n=e6 v=95
52560 On ch=2 n=c#6 v=60
52960 On ch=2 n=c#6 v=0
52960 On ch=2 n=e6 v=0
52960 On ch=2 n=g6 v=0
52980 On ch=2 n=f#6 v=112
52980 On ch=2 n=d6 v=90
52980 On ch=2 n=a5 v=65
53020 On ch=2 n=a5 v=0
53020 On ch=2 n=d6 v=0
53020 On ch=2 n=f#6 v=0
53040 On ch=2 n=f#6 v=105
53040 On ch=2 n=d6 v=90
53040 On ch=2 n=a5 v=65
53440 On ch=2 n=a5 v=0
53440 On ch=2 n=d6 v=0
53440 On ch=2 n=f#6 v=0
53760 On ch=2 n=d6 v=112
53840 On ch=2 n=f#6 v=117
53860 On ch=2 n=d6 v=0
53910 On ch=2 n=a6 v=120
53930 On ch=2 n=f#6 v=0
54000 On ch=2 n=d7 v=125
54000 On ch=2 n=f#6 v=98
54020 On ch=2 n=a6 v=0
54140 On ch=2 n=f#6 v=0
54140 On ch=2 n=d7 v=0
54240 On ch=2 n=a6 v=125
54240 On ch=2 n=f#6 v=110
54240 On ch=2 n=d6 v=85
54640 On ch=2 n=d6 v=0
54640 On ch=2 n=f#6 v=0
54640 On ch=2 n=a6 v=0
54720 On ch=2 n=b6 v=112
54720 On ch=2 n=g6 v=100
54720 On ch=2 n=d6 v=75
54840 On ch=2 n=d6 v=0
54840 On ch=2 n=g6 v=0
54840 On ch=2 n=b6 v=0
54960 On ch=2 n=a6 v=118
54960 On ch=2 n=f#6 v=102
54960 On ch=2 n=d6 v=78
55360 On ch=2 n=d6 v=0
55360 On ch=2 n=f#6 v=0
55360 On ch=2 n=a6 v=0
55440 On ch=2 n=b6 v=125
55440 On ch=2 n=f#6 v=110
55440 On ch=2 n=d6 v=75
55840 On ch=2 n=d6 v=0
55840 On ch=2 n=f#6 v=0
55840 On ch=2 n=b6 v=0
55860 On ch=2 n=a6 v=110
55860 On ch=2 n=f#6 v=98
55860 On ch=2 n=d6 v=80
55900 On ch=2 n=d6 v=0
55900 On ch=2 n=f#6 v=0
55900 On ch=2 n=a6 v=0
55920 On ch=2 n=a6 v=115
55920 On ch=2 n=f#6 v=100
55920 On ch=2 n=d6 v=75
56720 On ch=2 n=a6 v=0
56730 On ch=2 n=a6 v=105
56780 On ch=2 n=a6 v=0
56790 On ch=2 n=b6 v=110
56800 On ch=2 n=d6 v=0
56800 On ch=2 n=f#6 v=0
56840 On ch=2 n=b6 v=0
56840 On ch=2 n=c#7 v=113
56880 On ch=2 n=d7 v=120
56880 On ch=2 n=f#6 v=98
56890 On ch=2 n=c#7 v=0
57020 On ch=2 n=f#6 v=0
57020 On ch=2 n=d7 v=0
57120 On ch=2 n=a6 v=127
57120 On ch=2 n=f#6 v=110
57120 On ch=2 n=d6 v=85
57520 On ch=2 n=d6 v=0
57520 On ch=2 n=f#6 v=0
57520 On ch=2 n=a6 v=0
57600 On ch=2 n=b6 v=112
57600 On ch=2 n=g6 v=100
57600 On ch=2 n=d6 v=75
57720 On ch=2 n=d6 v=0
57720 On ch=2 n=g6 v=0
57720 On ch=2 n=b6 v=0
57840 On ch=2 n=a6 v=118
57840 On ch=2 n=f#6 v=102
57840 On ch=2 n=d6 v=78
58240 On ch=2 n=d6 v=0
58240 On ch=2 n=f#6 v=0
58240 On ch=2 n=a6 v=0
58320 On ch=2 n=g6 v=120
58320 On ch=2 n=e6 v=105
58320 On ch=2 n=c#6 v=70
58720 On ch=2 n=c#6 v=0
58720 On ch=2 n=e6 v=0
58720 On ch=2 n=g6 v=0
58740 On ch=2 n=f#6 v=122
58740 On ch=2 n=d6 v=100
58740 On ch=2 n=a5 v=75
58780 On ch=2 n=a5 v=0
58780 On ch=2 n=d6 v=0
58780 On ch=2 n=f#6 v=0
58800 On ch=2 n=f#6 v=115
58800 On ch=2 n=d6 v=100
58800 On ch=2 n=a5 v=75
59200 On ch=2 n=a5 v=0
59200 On ch=2 n=d6 v=0
59200 On ch=2 n=f#6 v=0
59520 On ch=2 n=a5 v=60
59720 On ch=2 n=a5 v=0
59760 On ch=2 n=f5 v=53
59820 On ch=2 n=f5 v=0
59880 On ch=2 n=a5 v=48
59920 On ch=2 n=a5 v=0
60000 On ch=2 n=d6 v=50
60140 On ch=2 n=d6 v=0
60480 On ch=2 n=c#6 v=50
60540 On ch=2 n=c#6 v=0
60600 On ch=2 n=d6 v=53
60640 On ch=2 n=d6 v=0
60720 On ch=2 n=e6 v=57
60880 On ch=2 n=e6 v=0
61080 On ch=2 n=d6 v=60
61140 On ch=2 n=d6 v=0
61200 On ch=2 n=d6 v=63
61320 On ch=2 n=c#6 v=55
61340 On ch=2 n=d6 v=0
61400 On ch=2 n=c#6 v=0
61440 On ch=2 n=c#6 v=62
61560 On ch=2 n=b5 v=65
61580 On ch=2 n=c#6 v=0
61660 On ch=2 n=b5 v=0
61680 On ch=2 n=e6 v=72
61680 On ch=2 n=c#6 v=55
62160 On ch=2 n=a6 v=65
62180 On ch=2 n=c#6 v=0
62180 On ch=2 n=e6 v=0
62360 On ch=2 n=a6 v=0
62400 On ch=2 n=a5 v=80
62560 On ch=2 n=a5 v=0
62640 On ch=2 n=d6 v=75
62700 On ch=2 n=d6 v=0
62760 On ch=2 n=e6 v=68
62800 On ch=2 n=e6 v=0
62880 On ch=2 n=f6 v=65
63020 On ch=2 n=f6 v=0
63360 On ch=2 n=e6 v=68
63420 On ch=2 n=e6 v=0
63480 On ch=2 n=f6 v=72
63520 On ch=2 n=f6 v=0
63600 On ch=2 n=g6 v=75
63760 On ch=2 n=g6 v=0
63960 On ch=2 n=d6 v=58
64020 On ch=2 n=d6 v=0
64080 On ch=2 n=d6 v=60
64200 On ch=2 n=c#6 v=53
64220 On ch=2 n=d6 v=0
64280 On ch=2 n=c#6 v=0
64320 On ch=2 n=c#6 v=55
64440 On ch=2 n=a5 v=60
64460 On ch=2 n=c#6 v=0
64540 On ch=2 n=a5 v=0
64560 On ch=2 n=d6 v=62
64560 On ch=2 n=f5 v=48
65040 On ch=2 n=f5 v=0
65040 On ch=2 n=d6 v=0
65040 On ch=2 n=d6 v=50
65040 On ch=2 n=f5 v=42
65240 On ch=2 n=f5 v=0
65240 On ch=2 n=d6 v=0
65760 On ch=2 n=f6 v=65
65900 On ch=2 n=f6 v=0
66000 On ch=2 n=d6 v=53
66160 On ch=2 n=d6 v=0
66240 On ch=2 n=a5 v=45
66360 On ch=2 n=a5 v=0
66720 On ch=2 n=a#5 v=50
66900 On ch=2 n=a#5 v=0
67200 On ch=2 n=g#5 v=43
67340 On ch=2 n=g#5 v=0
71040 On ch=2 n=c6 v=55
71200 On ch=2 n=c6 v=0
71210 On ch=2 n=c6 v=40
71240 On ch=2 n=d6 v=44
71260 On ch=2 n=e6 v=47
71270 On ch=2 n=c6 v=0
71280 On ch=2 n=f6 v=53
71300 On ch=2 n=d6 v=0
71320 On ch=2 n=e6 v=0
71380 On ch=2 n=f6 v=0
71400 On ch=2 n=f5 v=60
71480 On ch=2 n=f5 v=0
71520 On ch=2 n=a#5 v=55
71580 On ch=2 n=a#5 v=0
71640 On ch=2 n=d6 v=50
71710 On ch=2 n=d6 v=0
71760 On ch=2 n=c6 v=53
71760 On ch=2 n=a5 v=42
71880 On ch=2 n=a5 v=0
71880 On ch=2 n=c6 v=0
72000 On ch=2 n=c6 v=57
72000 On ch=2 n=a5 v=45
72160 On ch=2 n=a5 v=0
72160 On ch=2 n=c6 v=0
72180 On ch=2 n=c6 v=45
72200 On ch=2 n=d6 v=49
72220 On ch=2 n=e6 v=52
72240 On ch=2 n=d6 v=0
72240 On ch=2 n=c6 v=0
72240 On ch=2 n=f6 v=55
72240 On ch=2 n=d6 v=48
72280 On ch=2 n=e6 v=0
72400 On ch=2 n=d6 v=0
72400 On ch=2 n=f6 v=0
72480 On ch=2 n=e6 v=59
72480 On ch=2 n=c6 v=50
72600 On ch=2 n=c6 v=0
72600 On ch=2 n=e6 v=0
72720 On ch=2 n=d6 v=65
72720 On ch=2 n=a#5 v=52
73120 On ch=2 n=a#5 v=0
73120 On ch=2 n=d6 v=0
73160 On ch=2 n=a5 v=40
73200 On ch=2 n=f6 v=55
73220 On ch=2 n=a5 v=0
73340 On ch=2 n=f6 v=0
73440 On ch=2 n=c6 v=70
73440 On ch=2 n=a5 v=50
73920 On ch=2 n=a5 v=0
73920 On ch=2 n=c6 v=0
73920 On ch=2 n=c6 v=53
74040 On ch=2 n=c6 v=0
74090 On ch=2 n=c6 v=40
74120 On ch=2 n=d6 v=44
74140 On ch=2 n=e6 v=47
74150 On ch=2 n=c6 v=0
74160 On ch=2 n=f6 v=53
74180 On ch=2 n=d6 v=0
74200 On ch=2 n=e6 v=0
74260 On ch=2 n=f6 v=0
74280 On ch=2 n=c5 v=60
74360 On ch=2 n=c5 v=0
74400 On ch=2 n=f5 v=55
74460 On ch=2 n=f5 v=0
74520 On ch=2 n=a#5 v=50
74590 On ch=2 n=a#5 v=0
74640 On ch=2 n=a5 v=53
74760 On ch=2 n=a5 v=0
74880 On ch=2 n=f5 v=57
75040 On ch=2 n=f5 v=0
75060 On ch=2 n=f5 v=45
75080 On ch=2 n=g5 v=39
75100 On ch=2 n=a5 v=42
75120 On ch=2 n=f5 v=0
75120 On ch=2 n=a#5 v=50
75140 On ch=2 n=g5 v=0
75160 On ch=2 n=a5 v=0
75280 On ch=2 n=a#5 v=0
75360 On ch=2 n=a5 v=54
75360 On ch=2 n=f5 v=38
75480 On ch=2 n=f5 v=0
75480 On ch=2 n=a5 v=0
75600 On ch=2 n=g5 v=60
75600 On ch=2 n=c5 v=42
76000 On ch=2 n=c5 v=0
76000 On ch=2 n=g5 v=0
76040 On ch=2 n=f5 v=35
76080 On ch=2 n=a5 v=45
76220 On ch=2 n=a5 v=0
76220 On ch=2 n=f5 v=0
76320 On ch=2 n=f5 v=55
76720 On ch=2 n=f5 v=0
76800 On ch=2 n=c6 v=50
76920 On ch=2 n=c6 v=0
76970 On ch=2 n=c6 v=35
77000 On ch=2 n=d6 v=39
77020 On ch=2 n=e6 v=42
77030 On ch=2 n=c6 v=0
77040 On ch=2 n=f6 v=48
77060 On ch=2 n=d6 v=0
77080 On ch=2 n=e6 v=0
77140 On ch=2 n=f6 v=0
77160 On ch=2 n=f5 v=55
77240 On ch=2 n=f5 v=0
77280 On ch=2 n=a#5 v=50
77340 On ch=2 n=a#5 v=0
77400 On ch=2 n=d6 v=45
77470 On ch=2 n=d6 v=0
77520 On ch=2 n=c6 v=48
77520 On ch=2 n=a5 v=35
77640 On ch=2 n=a5 v=0
77640 On ch=2 n=c6 v=0
77760 On ch=2 n=c6 v=52
77760 On ch=2 n=a5 v=40
77920 On ch=2 n=a5 v=0
77920 On ch=2 n=c6 v=0
78000 On ch=2 n=g6 v=55
78000 On ch=2 n=e6 v=38
78120 On ch=2 n=f6 v=50
78120 On ch=2 n=d6 v=33
78140 On ch=2 n=e6 v=0
78140 On ch=2 n=g6 v=0
78220 On ch=2 n=d6 v=0
78220 On ch=2 n=f6 v=0
78240 On ch=2 n=f6 v=52
78240 On ch=2 n=d6 v=35
78360 On ch=2 n=d6 v=0
78360 On ch=2 n=d6 v=54
78360 On ch=2 n=a#5 v=37
78380 On ch=2 n=f6 v=0
78460 On ch=2 n=a#5 v=0
78460 On ch=2 n=d6 v=0
78480 On ch=2 n=d6 v=60
78480 On ch=2 n=a#5 v=40
78880 On ch=2 n=a#5 v=0
78880 On ch=2 n=d6 v=0
78920 On ch=2 n=c6 v=35
78960 On ch=2 n=a6 v=50
78980 On ch=2 n=c6 v=0
79100 On ch=2 n=a6 v=0
79200 On ch=2 n=c6 v=65
79200 On ch=2 n=a5 v=45
79680 On ch=2 n=a5 v=0
79680 On ch=2 n=c6 v=0
79680 On ch=2 n=c6 v=48
79800 On ch=2 n=c6 v=0
79850 On ch=2 n=c6 v=35
79880 On ch=2 n=d6 v=39
79900 On ch=2 n=e6 v=42
79910 On ch=2 n=c6 v=0
79920 On ch=2 n=f6 v=48
79940 On ch=2 n=d6 v=0
79960 On ch=2 n=e6 v=0
80020 On ch=2 n=f6 v=0
80040 On ch=2 n=c5 v=55
80120 On ch=2 n=c5 v=0
80160 On ch=2 n=f5 v=50
80220 On ch=2 n=f5 v=0
80280 On ch=2 n=a#5 v=45
80350 On ch=2 n=a#5 v=0
80400 On ch=2 n=a5 v=48
80520 On ch=2 n=a5 v=0
80640 On ch=2 n=f5 v=52
80800 On ch=2 n=f5 v=0
80820 On ch=2 n=f5 v=40
80840 On ch=2 n=g5 v=34
80860 On ch=2 n=a5 v=37
80880 On ch=2 n=f5 v=0
80880 On ch=2 n=a#5 v=45
80900 On ch=2 n=g5 v=0
80920 On ch=2 n=a5 v=0
81040 On ch=2 n=a#5 v=0
81120 On ch=2 n=a5 v=40
81120 On ch=2 n=f5 v=23
81240 On ch=2 n=f5 v=0
81240 On ch=2 n=a5 v=0
81360 On ch=2 n=g5 v=42
81360 On ch=2 n=c5 v=25
81720 On ch=2 n=c6 v=38
81740 On ch=2 n=c5 v=0
81740 On ch=2 n=g5 v=0
81820 On ch=2 n=c6 v=0
81840 On ch=2 n=a5 v=40
81840 On ch=2 n=f5 v=28
81980 On ch=2 n=f5 v=0
81980 On ch=2 n=a5 v=0
82320 On ch=2 n=a5 v=35
82320 On ch=2 n=f5 v=20
82560 On ch=2 n=f5 v=0
82560 On ch=2 n=a5 v=0
82560 Meta TrkEnd
TrkEnd
MTrk
0 SeqSpec 43 00 01 00
0 Meta TrkName "Piano 2(R.H.)                       "
1000 Par ch=4 c=32 v=1
1060 Par ch=4 c=0 v=0
1120 PrCh ch=4 p=0
1180 Par ch=4 c=10 v=60
1240 Par ch=4 c=91 v=80
1300 Par ch=4 c=7 v=120
1360 Par ch=4 c=11 v=120
2160 On ch=4 n=d5 v=35
2160 On ch=4 n=a#4 v=28
2160 On ch=4 n=f4 v=20
2320 On ch=4 n=f4 v=0
2320 On ch=4 n=a#4 v=0
2320 On ch=4 n=d5 v=0
2640 On ch=4 n=c5 v=30
2640 On ch=4 n=a4 v=26
2640 On ch=4 n=f4 v=18
2780 On ch=4 n=f4 v=0
2780 On ch=4 n=a4 v=0
2780 On ch=4 n=c5 v=0
3120 On ch=4 n=d5 v=40
3120 On ch=4 n=a#4 v=28
3120 On ch=4 n=f4 v=22
3600 On ch=4 n=f4 v=0
3600 On ch=4 n=a#4 v=0
3600 On ch=4 n=d5 v=0
3600 On ch=4 n=d5 v=32
3600 On ch=4 n=a#4 v=25
3600 On ch=4 n=f4 v=18
3760 On ch=4 n=f4 v=0
3760 On ch=4 n=a#4 v=0
3760 On ch=4 n=d5 v=0
4080 On ch=4 n=c5 v=35
4080 On ch=4 n=a4 v=20
4080 On ch=4 n=f4 v=15
4560 On ch=4 n=f4 v=0
4560 On ch=4 n=a4 v=0
4560 On ch=4 n=c5 v=0
4560 On ch=4 n=a4 v=38
4560 On ch=4 n=f4 v=25
4720 On ch=4 n=f4 v=0
4720 On ch=4 n=a4 v=0
5040 On ch=4 n=a4 v=35
5040 On ch=4 n=f4 v=28
5040 On ch=4 n=c4 v=20
5200 On ch=4 n=c4 v=0
5200 On ch=4 n=f4 v=0
5200 On ch=4 n=a4 v=0
5520 On ch=4 n=a4 v=30
5520 On ch=4 n=f4 v=26
5520 On ch=4 n=c4 v=18
5660 On ch=4 n=c4 v=0
5660 On ch=4 n=f4 v=0
5660 On ch=4 n=a4 v=0
6000 On ch=4 n=a#4 v=40
6000 On ch=4 n=c4 v=22
6480 On ch=4 n=c4 v=0
6480 On ch=4 n=a#4 v=0
6480 On ch=4 n=e4 v=35
6480 On ch=4 n=c4 v=25
6640 On ch=4 n=c4 v=0
6640 On ch=4 n=e4 v=0
6960 On ch=4 n=a4 v=38
6960 On ch=4 n=c4 v=25
7440 On ch=4 n=c4 v=0
7440 On ch=4 n=a4 v=0
7440 On ch=4 n=a4 v=30
7440 On ch=4 n=f4 v=18
7600 On ch=4 n=f4 v=0
7600 On ch=4 n=a4 v=0
7920 On ch=4 n=d5 v=30
7920 On ch=4 n=a#4 v=23
7920 On ch=4 n=f4 v=15
8080 On ch=4 n=f4 v=0
8080 On ch=4 n=a#4 v=0
8080 On ch=4 n=d5 v=0
8400 On ch=4 n=c5 v=25
8400 On ch=4 n=a4 v=21
8400 On ch=4 n=f4 v=10
8540 On ch=4 n=f4 v=0
8540 On ch=4 n=a4 v=0
8540 On ch=4 n=c5 v=0
8880 On ch=4 n=d5 v=35
8880 On ch=4 n=a#4 v=23
8880 On ch=4 n=f4 v=17
9360 On ch=4 n=f4 v=0
9360 On ch=4 n=a#4 v=0
9360 On ch=4 n=d5 v=0
9360 On ch=4 n=d5 v=27
9360 On ch=4 n=a#4 v=20
9360 On ch=4 n=f4 v=10
9520 On ch=4 n=f4 v=0
9520 On ch=4 n=a#4 v=0
9520 On ch=4 n=d5 v=0
9840 On ch=4 n=c5 v=30
9840 On ch=4 n=a4 v=15
9840 On ch=4 n=f4 v=10
10320 On ch=4 n=f4 v=0
10320 On ch=4 n=a4 v=0
10320 On ch=4 n=c5 v=0
10320 On ch=4 n=a4 v=33
10320 On ch=4 n=f4 v=20
10480 On ch=4 n=f4 v=0
10480 On ch=4 n=a4 v=0
10800 On ch=4 n=a4 v=30
10800 On ch=4 n=f4 v=23
10800 On ch=4 n=c4 v=15
10960 On ch=4 n=c4 v=0
10960 On ch=4 n=f4 v=0
10960 On ch=4 n=a4 v=0
11280 On ch=4 n=a4 v=25
11280 On ch=4 n=f4 v=21
11280 On ch=4 n=c4 v=10
11420 On ch=4 n=c4 v=0
11420 On ch=4 n=f4 v=0
11420 On ch=4 n=a4 v=0
11760 On ch=4 n=a#4 v=35
11760 On ch=4 n=c4 v=17
12240 On ch=4 n=c4 v=0
12240 On ch=4 n=a#4 v=0
12240 On ch=4 n=e4 v=30
12240 On ch=4 n=c4 v=20
12400 On ch=4 n=c4 v=0
12400 On ch=4 n=e4 v=0
12720 On ch=4 n=a4 v=33
12720 On ch=4 n=c4 v=20
13200 On ch=4 n=c4 v=0
13200 On ch=4 n=a4 v=0
13200 On ch=4 n=a4 v=48
13400 On ch=4 n=a4 v=0
13440 On ch=4 n=d5 v=50
13440 On ch=4 n=f4 v=38
13500 On ch=4 n=f4 v=0
13500 On ch=4 n=d5 v=0
13560 On ch=4 n=e5 v=43
13560 On ch=4 n=a4 v=33
13600 On ch=4 n=a4 v=0
13600 On ch=4 n=e5 v=0
13680 On ch=4 n=f5 v=45
13680 On ch=4 n=d5 v=35
13820 On ch=4 n=d5 v=0
13820 On ch=4 n=f5 v=0
14160 On ch=4 n=e5 v=48
14160 On ch=4 n=a4 v=35
14220 On ch=4 n=a4 v=0
14220 On ch=4 n=e5 v=0
14280 On ch=4 n=f5 v=52
14280 On ch=4 n=e5 v=38
14320 On ch=4 n=e5 v=0
14320 On ch=4 n=f5 v=0
14400 On ch=4 n=g5 v=55
14400 On ch=4 n=e5 v=42
14560 On ch=4 n=e5 v=0
14560 On ch=4 n=g5 v=0
14760 On ch=4 n=f5 v=58
14760 On ch=4 n=d5 v=45
14820 On ch=4 n=d5 v=0
14820 On ch=4 n=f5 v=0
14880 On ch=4 n=f5 v=60
14880 On ch=4 n=d5 v=48
15000 On ch=4 n=e5 v=53
15000 On ch=4 n=c#5 v=40
15020 On ch=4 n=d5 v=0
15020 On ch=4 n=f5 v=0
15080 On ch=4 n=c#5 v=0
15080 On ch=4 n=e5 v=0
15120 On ch=4 n=e5 v=55
15120 On ch=4 n=c#5 v=47
15240 On ch=4 n=d5 v=48
15240 On ch=4 n=b4 v=40
15260 On ch=4 n=c#5 v=0
15260 On ch=4 n=e5 v=0
15340 On ch=4 n=b4 v=0
15340 On ch=4 n=d5 v=0
15360 On ch=4 n=e5 v=52
15360 On ch=4 n=c#5 v=45
15840 On ch=4 n=a5 v=40
15860 On ch=4 n=c#5 v=0
15860 On ch=4 n=e5 v=0
16040 On ch=4 n=a5 v=0
16080 On ch=4 n=a4 v=50
16220 On ch=4 n=a4 v=0
16320 On ch=4 n=d5 v=55
16320 On ch=4 n=f4 v=43
16380 On ch=4 n=f4 v=0
16380 On ch=4 n=d5 v=0
16440 On ch=4 n=e5 v=48
16440 On ch=4 n=a4 v=38
16480 On ch=4 n=a4 v=0
16480 On ch=4 n=e5 v=0
16560 On ch=4 n=f5 v=45
16560 On ch=4 n=d5 v=35
16700 On ch=4 n=d5 v=0
16700 On ch=4 n=f5 v=0
17040 On ch=4 n=e5 v=48
17040 On ch=4 n=a4 v=35
17100 On ch=4 n=a4 v=0
17100 On ch=4 n=e5 v=0
17160 On ch=4 n=f5 v=52
17160 On ch=4 n=e5 v=38
17200 On ch=4 n=e5 v=0
17200 On ch=4 n=f5 v=0
17280 On ch=4 n=g5 v=55
17280 On ch=4 n=e5 v=42
17440 On ch=4 n=e5 v=0
17440 On ch=4 n=g5 v=0
17640 On ch=4 n=f5 v=58
17640 On ch=4 n=d5 v=45
17700 On ch=4 n=d5 v=0
17700 On ch=4 n=f5 v=0
17760 On ch=4 n=f5 v=60
17760 On ch=4 n=d5 v=48
17880 On ch=4 n=e5 v=53
17880 On ch=4 n=c#5 v=40
17900 On ch=4 n=d5 v=0
17900 On ch=4 n=f5 v=0
17960 On ch=4 n=c#5 v=0
17960 On ch=4 n=e5 v=0
18000 On ch=4 n=e5 v=55
18000 On ch=4 n=c#5 v=47
18120 On ch=4 n=a4 v=50
18140 On ch=4 n=c#5 v=0
18140 On ch=4 n=e5 v=0
18220 On ch=4 n=a4 v=0
18240 On ch=4 n=d5 v=52
18240 On ch=4 n=f4 v=45
18720 On ch=4 n=f4 v=0
18720 On ch=4 n=d5 v=0
18720 On ch=4 n=d5 v=40
18720 On ch=4 n=f4 v=32
18920 On ch=4 n=f4 v=0
18920 On ch=4 n=d5 v=0
18960 On ch=4 n=a4 v=58
19100 On ch=4 n=a4 v=0
19200 On ch=4 n=d5 v=60
19200 On ch=4 n=f4 v=48
19260 On ch=4 n=f4 v=0
19260 On ch=4 n=d5 v=0
19320 On ch=4 n=e5 v=53
19320 On ch=4 n=a4 v=43
19360 On ch=4 n=a4 v=0
19360 On ch=4 n=e5 v=0
19440 On ch=4 n=f5 v=55
19440 On ch=4 n=d5 v=45
19580 On ch=4 n=d5 v=0
19580 On ch=4 n=f5 v=0
19920 On ch=4 n=e5 v=58
19920 On ch=4 n=a4 v=45
19980 On ch=4 n=a4 v=0
19980 On ch=4 n=e5 v=0
20040 On ch=4 n=f5 v=62
20040 On ch=4 n=e5 v=48
20080 On ch=4 n=e5 v=0
20080 On ch=4 n=f5 v=0
20160 On ch=4 n=g5 v=65
20160 On ch=4 n=e5 v=52
20320 On ch=4 n=e5 v=0
20320 On ch=4 n=g5 v=0
20520 On ch=4 n=f5 v=68
20520 On ch=4 n=d5 v=55
20580 On ch=4 n=d5 v=0
20580 On ch=4 n=f5 v=0
20640 On ch=4 n=f5 v=70
20640 On ch=4 n=d5 v=58
20760 On ch=4 n=e5 v=63
20760 On ch=4 n=c#5 v=50
20780 On ch=4 n=d5 v=0
20780 On ch=4 n=f5 v=0
20840 On ch=4 n=c#5 v=0
20840 On ch=4 n=e5 v=0
20880 On ch=4 n=e5 v=65
20880 On ch=4 n=c#5 v=57
21000 On ch=4 n=d5 v=58
21000 On ch=4 n=b4 v=50
21020 On ch=4 n=c#5 v=0
21020 On ch=4 n=e5 v=0
21100 On ch=4 n=b4 v=0
21100 On ch=4 n=d5 v=0
21120 On ch=4 n=e5 v=62
21120 On ch=4 n=c#5 v=55
21600 On ch=4 n=a5 v=50
21620 On ch=4 n=c#5 v=0
21620 On ch=4 n=e5 v=0
21800 On ch=4 n=a5 v=0
21840 On ch=4 n=a4 v=60
21980 On ch=4 n=a4 v=0
22080 On ch=4 n=d5 v=65
22080 On ch=4 n=f4 v=53
22140 On ch=4 n=f4 v=0
22140 On ch=4 n=d5 v=0
22200 On ch=4 n=e5 v=58
22200 On ch=4 n=a4 v=48
22240 On ch=4 n=a4 v=0
22240 On ch=4 n=e5 v=0
22320 On ch=4 n=f5 v=55
22320 On ch=4 n=d5 v=45
22460 On ch=4 n=d5 v=0
22460 On ch=4 n=f5 v=0
22800 On ch=4 n=e5 v=58
22800 On ch=4 n=a4 v=45
22860 On ch=4 n=a4 v=0
22860 On ch=4 n=e5 v=0
22920 On ch=4 n=f5 v=62
22920 On ch=4 n=e5 v=48
22960 On ch=4 n=e5 v=0
22960 On ch=4 n=f5 v=0
23040 On ch=4 n=g5 v=65
23040 On ch=4 n=e5 v=52
23200 On ch=4 n=e5 v=0
23200 On ch=4 n=g5 v=0
23400 On ch=4 n=f5 v=68
23400 On ch=4 n=d5 v=55
23460 On ch=4 n=d5 v=0
23460 On ch=4 n=f5 v=0
23520 On ch=4 n=f5 v=70
23520 On ch=4 n=d5 v=58
23640 On ch=4 n=e5 v=63
23640 On ch=4 n=c#5 v=50
23660 On ch=4 n=d5 v=0
23660 On ch=4 n=f5 v=0
23720 On ch=4 n=c#5 v=0
23720 On ch=4 n=e5 v=0
23760 On ch=4 n=e5 v=65
23760 On ch=4 n=c#5 v=57
23880 On ch=4 n=a4 v=60
23900 On ch=4 n=c#5 v=0
23900 On ch=4 n=e5 v=0
23980 On ch=4 n=a4 v=0
24000 On ch=4 n=d5 v=62
24000 On ch=4 n=f4 v=55
24400 On ch=4 n=f4 v=0
24400 On ch=4 n=d5 v=0
24480 On ch=4 n=c5 v=70
24480 On ch=4 n=a#4 v=62
24480 On ch=4 n=g4 v=45
24980 On ch=4 n=g4 v=0
24980 On ch=4 n=a#4 v=0
24980 On ch=4 n=c5 v=0
25200 On ch=4 n=d5 v=45
25200 On ch=4 n=a#4 v=38
25200 On ch=4 n=f4 v=30
25360 On ch=4 n=f4 v=0
25360 On ch=4 n=a#4 v=0
25360 On ch=4 n=d5 v=0
25680 On ch=4 n=c5 v=40
25680 On ch=4 n=a4 v=36
25680 On ch=4 n=f4 v=28
25820 On ch=4 n=f4 v=0
25820 On ch=4 n=a4 v=0
25820 On ch=4 n=c5 v=0
26160 On ch=4 n=d5 v=50
26160 On ch=4 n=a#4 v=38
26160 On ch=4 n=f4 v=32
26640 On ch=4 n=f4 v=0
26640 On ch=4 n=a#4 v=0
26640 On ch=4 n=d5 v=0
26640 On ch=4 n=d5 v=42
26640 On ch=4 n=a#4 v=35
26640 On ch=4 n=f4 v=28
26800 On ch=4 n=f4 v=0
26800 On ch=4 n=a#4 v=0
26800 On ch=4 n=d5 v=0
27120 On ch=4 n=c5 v=45
27120 On ch=4 n=a4 v=30
27120 On ch=4 n=f4 v=25
27600 On ch=4 n=f4 v=0
27600 On ch=4 n=a4 v=0
27600 On ch=4 n=c5 v=0
27600 On ch=4 n=a4 v=48
27600 On ch=4 n=f4 v=35
27760 On ch=4 n=f4 v=0
27760 On ch=4 n=a4 v=0
28080 On ch=4 n=a4 v=45
28080 On ch=4 n=f4 v=38
28080 On ch=4 n=c4 v=30
28240 On ch=4 n=c4 v=0
28240 On ch=4 n=f4 v=0
28240 On ch=4 n=a4 v=0
28560 On ch=4 n=a4 v=40
28560 On ch=4 n=f4 v=36
28560 On ch=4 n=c4 v=28
28700 On ch=4 n=c4 v=0
28700 On ch=4 n=f4 v=0
28700 On ch=4 n=a4 v=0
29040 On ch=4 n=a#4 v=50
29040 On ch=4 n=c4 v=32
29520 On ch=4 n=c4 v=0
29520 On ch=4 n=a#4 v=0
29520 On ch=4 n=e4 v=45
29520 On ch=4 n=c4 v=35
29680 On ch=4 n=c4 v=0
29680 On ch=4 n=e4 v=0
30000 On ch=4 n=a4 v=48
30000 On ch=4 n=c4 v=35
30480 On ch=4 n=c4 v=0
30480 On ch=4 n=a4 v=0
30480 On ch=4 n=a4 v=40
30480 On ch=4 n=f4 v=28
30640 On ch=4 n=f4 v=0
30640 On ch=4 n=a4 v=0
30960 On ch=4 n=d5 v=35
30960 On ch=4 n=a#4 v=28
30960 On ch=4 n=f4 v=20
31120 On ch=4 n=f4 v=0
31120 On ch=4 n=a#4 v=0
31120 On ch=4 n=d5 v=0
31440 On ch=4 n=c5 v=30
31440 On ch=4 n=a4 v=26
31440 On ch=4 n=f4 v=18
31580 On ch=4 n=f4 v=0
31580 On ch=4 n=a4 v=0
31580 On ch=4 n=c5 v=0
31920 On ch=4 n=d5 v=40
31920 On ch=4 n=a#4 v=28
31920 On ch=4 n=f4 v=22
32400 On ch=4 n=f4 v=0
32400 On ch=4 n=a#4 v=0
32400 On ch=4 n=d5 v=0
32400 On ch=4 n=d5 v=32
32400 On ch=4 n=a#4 v=25
32400 On ch=4 n=f4 v=18
32560 On ch=4 n=f4 v=0
32560 On ch=4 n=a#4 v=0
32560 On ch=4 n=d5 v=0
32880 On ch=4 n=c5 v=35
32880 On ch=4 n=a4 v=20
32880 On ch=4 n=f4 v=15
33360 On ch=4 n=f4 v=0
33360 On ch=4 n=a4 v=0
33360 On ch=4 n=c5 v=0
33360 On ch=4 n=a4 v=38
33360 On ch=4 n=f4 v=25
33520 On ch=4 n=f4 v=0
33520 On ch=4 n=a4 v=0
33840 On ch=4 n=a4 v=35
33840 On ch=4 n=f4 v=28
33840 On ch=4 n=c4 v=20
34000 On ch=4 n=c4 v=0
34000 On ch=4 n=f4 v=0
34000 On ch=4 n=a4 v=0
34320 On ch=4 n=a4 v=30
34320 On ch=4 n=f4 v=26
34320 On ch=4 n=c4 v=18
34460 On ch=4 n=c4 v=0
34460 On ch=4 n=f4 v=0
34460 On ch=4 n=a4 v=0
34800 On ch=4 n=a#4 v=40
34800 On ch=4 n=c4 v=22
35280 On ch=4 n=c4 v=0
35280 On ch=4 n=a#4 v=0
35280 On ch=4 n=e4 v=35
35280 On ch=4 n=c4 v=25
35440 On ch=4 n=c4 v=0
35440 On ch=4 n=e4 v=0
35760 On ch=4 n=a4 v=38
35760 On ch=4 n=f4 v=25
36240 On ch=4 n=f4 v=0
36240 On ch=4 n=a4 v=0
36240 On ch=4 n=a3 v=53
36440 On ch=4 n=a3 v=0
36480 On ch=4 n=a4 v=40
36480 On ch=4 n=d4 v=55
36540 On ch=4 n=d4 v=0
36540 On ch=4 n=a4 v=0
36600 On ch=4 n=a4 v=33
36600 On ch=4 n=e4 v=48
36640 On ch=4 n=e4 v=0
36640 On ch=4 n=a4 v=0
36720 On ch=4 n=a4 v=38
36720 On ch=4 n=f4 v=50
36860 On ch=4 n=f4 v=0
36860 On ch=4 n=a4 v=0
37200 On ch=4 n=a4 v=35
37200 On ch=4 n=e4 v=53
37260 On ch=4 n=e4 v=0
37260 On ch=4 n=a4 v=0
37320 On ch=4 n=a4 v=39
37320 On ch=4 n=f4 v=57
37360 On ch=4 n=f4 v=0
37380 On ch=4 n=a4 v=0
37440 On ch=4 n=a4 v=42
37440 On ch=4 n=g4 v=60
37600 On ch=4 n=g4 v=0
37600 On ch=4 n=a4 v=0
37800 On ch=4 n=a4 v=45
37800 On ch=4 n=f4 v=63
37860 On ch=4 n=f4 v=0
37860 On ch=4 n=a4 v=0
37920 On ch=4 n=a4 v=48
37920 On ch=4 n=f4 v=65
38040 On ch=4 n=e4 v=58
38060 On ch=4 n=f4 v=0
38060 On ch=4 n=a4 v=0
38120 On ch=4 n=e4 v=0
38160 On ch=4 n=a4 v=50
38160 On ch=4 n=e4 v=60
38280 On ch=4 n=d4 v=53
38300 On ch=4 n=e4 v=0
38300 On ch=4 n=a4 v=0
38380 On ch=4 n=d4 v=0
38400 On ch=4 n=a4 v=45
38400 On ch=4 n=e4 v=57
38880 On ch=4 n=a4 v=0
38880 On ch=4 n=a4 v=40
38900 On ch=4 n=e4 v=0
39080 On ch=4 n=a4 v=0
39120 On ch=4 n=a3 v=60
39260 On ch=4 n=a3 v=0
39360 On ch=4 n=a4 v=48
39360 On ch=4 n=d4 v=65
39420 On ch=4 n=d4 v=0
39420 On ch=4 n=a4 v=0
39480 On ch=4 n=a4 v=43
39480 On ch=4 n=e4 v=58
39520 On ch=4 n=e4 v=0
39520 On ch=4 n=a4 v=0
39600 On ch=4 n=a4 v=45
39600 On ch=4 n=f4 v=55
39740 On ch=4 n=f4 v=0
39740 On ch=4 n=a4 v=0
40080 On ch=4 n=a4 v=40
40080 On ch=4 n=e4 v=58
40140 On ch=4 n=e4 v=0
40140 On ch=4 n=a4 v=0
40200 On ch=4 n=a4 v=43
40200 On ch=4 n=f4 v=62
40240 On ch=4 n=f4 v=0
40240 On ch=4 n=a4 v=0
40320 On ch=4 n=a4 v=47
40320 On ch=4 n=g4 v=65
40480 On ch=4 n=g4 v=0
40480 On ch=4 n=a4 v=0
40680 On ch=4 n=a4 v=50
40680 On ch=4 n=f4 v=68
40740 On ch=4 n=f4 v=0
40740 On ch=4 n=a4 v=0
40800 On ch=4 n=a4 v=53
40800 On ch=4 n=f4 v=70
40860 On ch=4 n=a4 v=0
40920 On ch=4 n=e4 v=63
40940 On ch=4 n=f4 v=0
41000 On ch=4 n=e4 v=0
41040 On ch=4 n=a4 v=52
41040 On ch=4 n=e4 v=65
41160 On ch=4 n=a3 v=60
41180 On ch=4 n=e4 v=0
41180 On ch=4 n=a4 v=0
41260 On ch=4 n=a3 v=0
41280 On ch=4 n=d4 v=62
41760 On ch=4 n=d4 v=0
41760 On ch=4 n=d4 v=55
41960 On ch=4 n=d4 v=0
42000 On ch=4 n=a3 v=73
42140 On ch=4 n=a3 v=0
42240 On ch=4 n=a4 v=50
42240 On ch=4 n=d4 v=65
42300 On ch=4 n=d4 v=0
42300 On ch=4 n=a4 v=0
42360 On ch=4 n=a4 v=43
42360 On ch=4 n=e4 v=58
42400 On ch=4 n=e4 v=0
42400 On ch=4 n=a4 v=0
42480 On ch=4 n=a4 v=48
42480 On ch=4 n=f4 v=60
42620 On ch=4 n=f4 v=0
42620 On ch=4 n=a4 v=0
42960 On ch=4 n=a4 v=45
42960 On ch=4 n=e4 v=63
43020 On ch=4 n=e4 v=0
43020 On ch=4 n=a4 v=0
43080 On ch=4 n=a4 v=49
43080 On ch=4 n=f4 v=67
43120 On ch=4 n=f4 v=0
43140 On ch=4 n=a4 v=0
43200 On ch=4 n=a4 v=52
43200 On ch=4 n=g4 v=70
43360 On ch=4 n=g4 v=0
43360 On ch=4 n=a4 v=0
43560 On ch=4 n=a4 v=55
43560 On ch=4 n=f4 v=73
43620 On ch=4 n=f4 v=0
43620 On ch=4 n=a4 v=0
43680 On ch=4 n=a4 v=58
43680 On ch=4 n=f4 v=75
43800 On ch=4 n=e4 v=68
43820 On ch=4 n=f4 v=0
43820 On ch=4 n=a4 v=0
43880 On ch=4 n=e4 v=0
43920 On ch=4 n=a4 v=60
43920 On ch=4 n=e4 v=70
44040 On ch=4 n=d4 v=63
44060 On ch=4 n=e4 v=0
44060 On ch=4 n=a4 v=0
44140 On ch=4 n=d4 v=0
44160 On ch=4 n=a4 v=55
44160 On ch=4 n=e4 v=67
44640 On ch=4 n=a4 v=0
44640 On ch=4 n=a4 v=50
44660 On ch=4 n=e4 v=0
44840 On ch=4 n=a4 v=0
44880 On ch=4 n=a3 v=80
45020 On ch=4 n=a3 v=0
45120 On ch=4 n=a4 v=68
45120 On ch=4 n=d4 v=85
45180 On ch=4 n=d4 v=0
45180 On ch=4 n=a4 v=0
45240 On ch=4 n=a4 v=63
45240 On ch=4 n=e4 v=78
45280 On ch=4 n=e4 v=0
45280 On ch=4 n=a4 v=0
45360 On ch=4 n=a4 v=65
45360 On ch=4 n=f4 v=75
45500 On ch=4 n=f4 v=0
45500 On ch=4 n=a4 v=0
45840 On ch=4 n=a4 v=60
45840 On ch=4 n=e4 v=78
45900 On ch=4 n=e4 v=0
45900 On ch=4 n=a4 v=0
45960 On ch=4 n=a4 v=63
45960 On ch=4 n=f4 v=82
46000 On ch=4 n=f4 v=0
46000 On ch=4 n=a4 v=0
46080 On ch=4 n=a4 v=67
46080 On ch=4 n=g4 v=85
46240 On ch=4 n=g4 v=0
46240 On ch=4 n=a4 v=0
46440 On ch=4 n=a4 v=70
46440 On ch=4 n=f4 v=88
46500 On ch=4 n=f4 v=0
46500 On ch=4 n=a4 v=0
46560 On ch=4 n=a4 v=73
46560 On ch=4 n=f4 v=90
46620 On ch=4 n=a4 v=0
46680 On ch=4 n=e4 v=93
46700 On ch=4 n=f4 v=0
46760 On ch=4 n=e4 v=0
46800 On ch=4 n=a4 v=82
46800 On ch=4 n=e4 v=95
46920 On ch=4 n=a3 v=100
46940 On ch=4 n=e4 v=0
46940 On ch=4 n=a4 v=0
47020 On ch=4 n=a3 v=0
47040 On ch=4 n=d4 v=102
47520 On ch=4 n=d4 v=0
47520 On ch=4 n=a3 v=95
47920 On ch=4 n=a3 v=0
48240 On ch=4 n=d5 v=110
48240 On ch=4 n=a4 v=75
48240 On ch=4 n=f#4 v=100
48380 On ch=4 n=f#4 v=0
48380 On ch=4 n=a4 v=0
48380 On ch=4 n=d5 v=0
48480 On ch=4 n=a5 v=115
48480 On ch=4 n=f#5 v=100
48480 On ch=4 n=d5 v=75
48880 On ch=4 n=d5 v=0
48880 On ch=4 n=f#5 v=0
48880 On ch=4 n=a5 v=0
48960 On ch=4 n=b5 v=102
48960 On ch=4 n=g5 v=90
48960 On ch=4 n=d5 v=65
49080 On ch=4 n=d5 v=0
49080 On ch=4 n=g5 v=0
49080 On ch=4 n=b5 v=0
49200 On ch=4 n=a5 v=108
49200 On ch=4 n=f#5 v=92
49200 On ch=4 n=d5 v=68
49600 On ch=4 n=d5 v=0
49600 On ch=4 n=f#5 v=0
49600 On ch=4 n=a5 v=0
49680 On ch=4 n=b5 v=110
49680 On ch=4 n=g5 v=95
49680 On ch=4 n=d5 v=60
50080 On ch=4 n=d5 v=0
50080 On ch=4 n=g5 v=0
50080 On ch=4 n=b5 v=0
50160 On ch=4 n=a5 v=105
50160 On ch=4 n=f#5 v=90
50160 On ch=4 n=d5 v=65
51080 On ch=4 n=d5 v=0
51080 On ch=4 n=f#5 v=0
51080 On ch=4 n=a5 v=0
51120 On ch=4 n=f#5 v=95
51120 On ch=4 n=d5 v=60
51120 On ch=4 n=a4 v=85
51260 On ch=4 n=a4 v=0
51260 On ch=4 n=d5 v=0
51260 On ch=4 n=f#5 v=0
51360 On ch=4 n=a5 v=115
51360 On ch=4 n=f#5 v=100
51360 On ch=4 n=d5 v=75
51760 On ch=4 n=d5 v=0
51760 On ch=4 n=f#5 v=0
51760 On ch=4 n=a5 v=0
51840 On ch=4 n=b5 v=102
51840 On ch=4 n=g5 v=90
51840 On ch=4 n=d5 v=65
51960 On ch=4 n=d5 v=0
51960 On ch=4 n=g5 v=0
51960 On ch=4 n=b5 v=0
52080 On ch=4 n=a5 v=108
52080 On ch=4 n=f#5 v=92
52080 On ch=4 n=d5 v=68
52480 On ch=4 n=d5 v=0
52480 On ch=4 n=f#5 v=0
52480 On ch=4 n=a5 v=0
52560 On ch=4 n=g5 v=110
52560 On ch=4 n=e5 v=68
52560 On ch=4 n=c#5 v=95
52560 On ch=4 n=a4 v=60
52960 On ch=4 n=a4 v=0
52960 On ch=4 n=c#5 v=0
52960 On ch=4 n=e5 v=0
52960 On ch=4 n=g5 v=0
53040 On ch=4 n=f#5 v=105
53040 On ch=4 n=d5 v=90
53040 On ch=4 n=a4 v=65
53960 On ch=4 n=a4 v=0
53960 On ch=4 n=d5 v=0
53960 On ch=4 n=f#5 v=0
54000 On ch=4 n=f#5 v=105
54000 On ch=4 n=d5 v=70
54000 On ch=4 n=a4 v=95
54140 On ch=4 n=a4 v=0
54140 On ch=4 n=d5 v=0
54140 On ch=4 n=f#5 v=0
54240 On ch=4 n=a5 v=125
54240 On ch=4 n=f#5 v=110
54240 On ch=4 n=d5 v=85
54640 On ch=4 n=d5 v=0
54640 On ch=4 n=f#5 v=0
54640 On ch=4 n=a5 v=0
54720 On ch=4 n=b5 v=112
54720 On ch=4 n=g5 v=100
54720 On ch=4 n=d5 v=75
54840 On ch=4 n=d5 v=0
54840 On ch=4 n=g5 v=0
54840 On ch=4 n=b5 v=0
54960 On ch=4 n=a5 v=118
54960 On ch=4 n=f#5 v=102
54960 On ch=4 n=d5 v=78
55360 On ch=4 n=d5 v=0
55360 On ch=4 n=f#5 v=0
55360 On ch=4 n=a5 v=0
55440 On ch=4 n=b5 v=125
55440 On ch=4 n=f#5 v=75
55440 On ch=4 n=d5 v=110
55840 On ch=4 n=d5 v=0
55840 On ch=4 n=f#5 v=0
55840 On ch=4 n=b5 v=0
55920 On ch=4 n=a5 v=115
55920 On ch=4 n=f#5 v=100
55920 On ch=4 n=d5 v=75
56840 On ch=4 n=d5 v=0
56840 On ch=4 n=f#5 v=0
56840 On ch=4 n=a5 v=0
56880 On ch=4 n=f#5 v=105
56880 On ch=4 n=d5 v=70
56880 On ch=4 n=a4 v=95
57020 On ch=4 n=a4 v=0
57020 On ch=4 n=d5 v=0
57020 On ch=4 n=f#5 v=0
57120 On ch=4 n=a5 v=125
57120 On ch=4 n=f#5 v=110
57120 On ch=4 n=d5 v=85
57520 On ch=4 n=d5 v=0
57520 On ch=4 n=f#5 v=0
57520 On ch=4 n=a5 v=0
57600 On ch=4 n=b5 v=112
57600 On ch=4 n=g5 v=100
57600 On ch=4 n=d5 v=75
57720 On ch=4 n=d5 v=0
57720 On ch=4 n=g5 v=0
57720 On ch=4 n=b5 v=0
57840 On ch=4 n=a5 v=118
57840 On ch=4 n=f#5 v=102
57840 On ch=4 n=d5 v=78
58240 On ch=4 n=d5 v=0
58240 On ch=4 n=f#5 v=0
58240 On ch=4 n=a5 v=0
58320 On ch=4 n=g5 v=110
58320 On ch=4 n=e5 v=68
58320 On ch=4 n=c#5 v=95
58320 On ch=4 n=a4 v=60
58720 On ch=4 n=a4 v=0
58720 On ch=4 n=c#5 v=0
58720 On ch=4 n=e5 v=0
58720 On ch=4 n=g5 v=0
58800 On ch=4 n=f#5 v=100
58800 On ch=4 n=d5 v=85
58800 On ch=4 n=a4 v=60
59280 On ch=4 n=a4 v=0
59280 On ch=4 n=d5 v=0
59280 On ch=4 n=f#5 v=0
59520 On ch=4 n=a4 v=60
59720 On ch=4 n=a4 v=0
59760 On ch=4 n=d5 v=60
59760 On ch=4 n=f4 v=48
59820 On ch=4 n=f4 v=0
59820 On ch=4 n=d5 v=0
59880 On ch=4 n=e5 v=53
59880 On ch=4 n=a4 v=43
59920 On ch=4 n=a4 v=0
59920 On ch=4 n=e5 v=0
60000 On ch=4 n=f5 v=55
60000 On ch=4 n=d5 v=45
60140 On ch=4 n=d5 v=0
60140 On ch=4 n=f5 v=0
60480 On ch=4 n=e5 v=58
60480 On ch=4 n=a4 v=45
60540 On ch=4 n=a4 v=0
60540 On ch=4 n=e5 v=0
60600 On ch=4 n=f5 v=62
60600 On ch=4 n=e5 v=48
60640 On ch=4 n=e5 v=0
60640 On ch=4 n=f5 v=0
60720 On ch=4 n=g5 v=65
60720 On ch=4 n=e5 v=52
60880 On ch=4 n=e5 v=0
60880 On ch=4 n=g5 v=0
61080 On ch=4 n=f5 v=68
61080 On ch=4 n=d5 v=55
61140 On ch=4 n=d5 v=0
61140 On ch=4 n=f5 v=0
61200 On ch=4 n=f5 v=70
61200 On ch=4 n=d5 v=58
61320 On ch=4 n=e5 v=63
61320 On ch=4 n=c#5 v=50
61340 On ch=4 n=d5 v=0
61340 On ch=4 n=f5 v=0
61400 On ch=4 n=c#5 v=0
61400 On ch=4 n=e5 v=0
61440 On ch=4 n=e5 v=65
61440 On ch=4 n=c#5 v=57
61560 On ch=4 n=d5 v=58
61560 On ch=4 n=b4 v=50
61580 On ch=4 n=c#5 v=0
61580 On ch=4 n=e5 v=0
61660 On ch=4 n=b4 v=0
61660 On ch=4 n=d5 v=0
61680 On ch=4 n=e5 v=62
61680 On ch=4 n=c#5 v=55
62160 On ch=4 n=a5 v=50
62180 On ch=4 n=c#5 v=0
62180 On ch=4 n=e5 v=0
62360 On ch=4 n=a5 v=0
62400 On ch=4 n=a4 v=60
62540 On ch=4 n=a4 v=0
62640 On ch=4 n=d5 v=65
62640 On ch=4 n=f4 v=53
62700 On ch=4 n=f4 v=0
62700 On ch=4 n=d5 v=0
62760 On ch=4 n=e5 v=58
62760 On ch=4 n=a4 v=48
62800 On ch=4 n=a4 v=0
62800 On ch=4 n=e5 v=0
62880 On ch=4 n=f5 v=55
62880 On ch=4 n=d5 v=45
63020 On ch=4 n=d5 v=0
63020 On ch=4 n=f5 v=0
63360 On ch=4 n=e5 v=58
63360 On ch=4 n=a4 v=45
63420 On ch=4 n=a4 v=0
63420 On ch=4 n=e5 v=0
63480 On ch=4 n=f5 v=62
63480 On ch=4 n=e5 v=48
63520 On ch=4 n=e5 v=0
63520 On ch=4 n=f5 v=0
63600 On ch=4 n=g5 v=65
63600 On ch=4 n=e5 v=52
63760 On ch=4 n=e5 v=0
63760 On ch=4 n=g5 v=0
63960 On ch=4 n=f5 v=68
63960 On ch=4 n=d5 v=55
64020 On ch=4 n=d5 v=0
64020 On ch=4 n=f5 v=0
64080 On ch=4 n=f5 v=70
64080 On ch=4 n=d5 v=58
64200 On ch=4 n=e5 v=63
64200 On ch=4 n=c#5 v=50
64220 On ch=4 n=d5 v=0
64220 On ch=4 n=f5 v=0
64280 On ch=4 n=c#5 v=0
64280 On ch=4 n=e5 v=0
64320 On ch=4 n=e5 v=65
64320 On ch=4 n=c#5 v=57
64440 On ch=4 n=a4 v=60
64460 On ch=4 n=c#5 v=0
64460 On ch=4 n=e5 v=0
64540 On ch=4 n=a4 v=0
64560 On ch=4 n=d5 v=62
64560 On ch=4 n=f4 v=55
65040 On ch=4 n=f4 v=0
65040 On ch=4 n=d5 v=0
65040 On ch=4 n=d5 v=50
65040 On ch=4 n=f4 v=42
65240 On ch=4 n=f4 v=0
65240 On ch=4 n=d5 v=0
65280 On ch=4 n=a4 v=68
65420 On ch=4 n=a4 v=0
65520 On ch=4 n=d5 v=70
65520 On ch=4 n=f4 v=58
65580 On ch=4 n=f4 v=0
65580 On ch=4 n=d5 v=0
65640 On ch=4 n=e5 v=63
65640 On ch=4 n=a4 v=53
65680 On ch=4 n=a4 v=0
65680 On ch=4 n=e5 v=0
65760 On ch=4 n=f5 v=65
65760 On ch=4 n=d5 v=55
65900 On ch=4 n=d5 v=0
65900 On ch=4 n=f5 v=0
66240 On ch=4 n=e5 v=68
66240 On ch=4 n=a4 v=55
66300 On ch=4 n=a4 v=0
66300 On ch=4 n=e5 v=0
66360 On ch=4 n=f5 v=72
66360 On ch=4 n=e5 v=58
66400 On ch=4 n=e5 v=0
66400 On ch=4 n=f5 v=0
66480 On ch=4 n=g5 v=75
66480 On ch=4 n=e5 v=62
66640 On ch=4 n=e5 v=0
66640 On ch=4 n=g5 v=0
66840 On ch=4 n=f5 v=78
66840 On ch=4 n=d5 v=65
66900 On ch=4 n=d5 v=0
66900 On ch=4 n=f5 v=0
66960 On ch=4 n=f5 v=80
66960 On ch=4 n=d5 v=68
67080 On ch=4 n=e5 v=73
67080 On ch=4 n=c#5 v=60
67100 On ch=4 n=d5 v=0
67100 On ch=4 n=f5 v=0
67160 On ch=4 n=c#5 v=0
67160 On ch=4 n=e5 v=0
67200 On ch=4 n=e5 v=75
67200 On ch=4 n=c#5 v=67
67320 On ch=4 n=d5 v=68
67320 On ch=4 n=b4 v=60
67340 On ch=4 n=c#5 v=0
67340 On ch=4 n=e5 v=0
67420 On ch=4 n=b4 v=0
67420 On ch=4 n=d5 v=0
67440 On ch=4 n=e5 v=72
67440 On ch=4 n=c#5 v=65
67920 On ch=4 n=a5 v=60
67940 On ch=4 n=c#5 v=0
67940 On ch=4 n=e5 v=0
68120 On ch=4 n=a5 v=0
68160 On ch=4 n=a4 v=70
68300 On ch=4 n=a4 v=0
68400 On ch=4 n=d5 v=75
68400 On ch=4 n=f4 v=63
68460 On ch=4 n=f4 v=0
68460 On ch=4 n=d5 v=0
68520 On ch=4 n=e5 v=68
68520 On ch=4 n=a4 v=58
68560 On ch=4 n=a4 v=0
68560 On ch=4 n=e5 v=0
68640 On ch=4 n=f5 v=65
68640 On ch=4 n=d5 v=55
68780 On ch=4 n=d5 v=0
68780 On ch=4 n=f5 v=0
69120 On ch=4 n=e5 v=63
69120 On ch=4 n=a4 v=50
69180 On ch=4 n=a4 v=0
69180 On ch=4 n=e5 v=0
69240 On ch=4 n=f5 v=67
69240 On ch=4 n=e5 v=53
69280 On ch=4 n=e5 v=0
69280 On ch=4 n=f5 v=0
69360 On ch=4 n=g5 v=70
69360 On ch=4 n=e5 v=57
69520 On ch=4 n=e5 v=0
69520 On ch=4 n=g5 v=0
69720 On ch=4 n=f5 v=63
69720 On ch=4 n=d5 v=50
69780 On ch=4 n=d5 v=0
69780 On ch=4 n=f5 v=0
69840 On ch=4 n=f5 v=65
69840 On ch=4 n=d5 v=53
69960 On ch=4 n=e5 v=58
69960 On ch=4 n=c#5 v=45
69980 On ch=4 n=d5 v=0
69980 On ch=4 n=f5 v=0
70040 On ch=4 n=c#5 v=0
70040 On ch=4 n=e5 v=0
70080 On ch=4 n=e5 v=60
70080 On ch=4 n=c#5 v=52
70200 On ch=4 n=a4 v=55
70220 On ch=4 n=c#5 v=0
70220 On ch=4 n=e5 v=0
70300 On ch=4 n=a4 v=0
70320 On ch=4 n=d5 v=57
70320 On ch=4 n=f4 v=50
70720 On ch=4 n=f4 v=0
70720 On ch=4 n=d5 v=0
70800 On ch=4 n=c5 v=60
70800 On ch=4 n=a#4 v=52
70800 On ch=4 n=g4 v=35
71300 On ch=4 n=g4 v=0
71300 On ch=4 n=a#4 v=0
71300 On ch=4 n=c5 v=0
71520 On ch=4 n=d5 v=45
71520 On ch=4 n=a#4 v=38
71520 On ch=4 n=f4 v=30
71680 On ch=4 n=f4 v=0
71680 On ch=4 n=a#4 v=0
71680 On ch=4 n=d5 v=0
71760 On ch=4 n=f4 v=48
71860 On ch=4 n=f4 v=0
71880 On ch=4 n=f5 v=42
71960 On ch=4 n=f5 v=0
72000 On ch=4 n=c5 v=45
72060 On ch=4 n=c5 v=0
72120 On ch=4 n=a4 v=38
72190 On ch=4 n=a4 v=0
72240 On ch=4 n=a#4 v=40
72400 On ch=4 n=a#4 v=0
72480 On ch=4 n=f5 v=50
72480 On ch=4 n=f4 v=32
72960 On ch=4 n=f4 v=0
72960 On ch=4 n=f5 v=0
72960 On ch=4 n=d5 v=42
72960 On ch=4 n=a#4 v=35
72960 On ch=4 n=f4 v=28
73120 On ch=4 n=f4 v=0
73120 On ch=4 n=a#4 v=0
73120 On ch=4 n=d5 v=0
73200 On ch=4 n=c5 v=38
73200 On ch=4 n=f4 v=20
73380 On ch=4 n=f4 v=0
73380 On ch=4 n=c5 v=0
73440 On ch=4 n=f5 v=45
73440 On ch=4 n=f4 v=25
73920 On ch=4 n=f4 v=0
73920 On ch=4 n=f5 v=0
73920 On ch=4 n=a4 v=48
73920 On ch=4 n=f4 v=35
74080 On ch=4 n=f4 v=0
74080 On ch=4 n=a4 v=0
74400 On ch=4 n=a4 v=45
74400 On ch=4 n=f4 v=33
74560 On ch=4 n=f4 v=0
74560 On ch=4 n=a4 v=0
74640 On ch=4 n=c4 v=48
74740 On ch=4 n=c4 v=0
74760 On ch=4 n=c5 v=42
74840 On ch=4 n=c5 v=0
74880 On ch=4 n=a4 v=45
74940 On ch=4 n=a4 v=0
75000 On ch=4 n=f4 v=40
75070 On ch=4 n=f4 v=0
75120 On ch=4 n=c4 v=42
75280 On ch=4 n=c4 v=0
75360 On ch=4 n=a#4 v=50
75360 On ch=4 n=c4 v=32
75840 On ch=4 n=c4 v=0
75840 On ch=4 n=a#4 v=0
75840 On ch=4 n=e4 v=45
75840 On ch=4 n=c4 v=35
76000 On ch=4 n=c4 v=0
76000 On ch=4 n=e4 v=0
76080 On ch=4 n=c4 v=40
76280 On ch=4 n=c4 v=0
76320 On ch=4 n=a4 v=48
76320 On ch=4 n=c4 v=35
76800 On ch=4 n=c4 v=0
76800 On ch=4 n=a4 v=0
76800 On ch=4 n=a4 v=40
76800 On ch=4 n=f4 v=28
76960 On ch=4 n=f4 v=0
76960 On ch=4 n=a4 v=0
77280 On ch=4 n=d5 v=35
77280 On ch=4 n=a#4 v=28
77280 On ch=4 n=f4 v=20
77440 On ch=4 n=f4 v=0
77440 On ch=4 n=a#4 v=0
77440 On ch=4 n=d5 v=0
77520 On ch=4 n=f4 v=38
77620 On ch=4 n=f4 v=0
77640 On ch=4 n=f5 v=28
77720 On ch=4 n=f5 v=0
77760 On ch=4 n=c5 v=32
77820 On ch=4 n=c5 v=0
77880 On ch=4 n=a4 v=30
77950 On ch=4 n=a4 v=0
78000 On ch=4 n=a#4 v=35
78160 On ch=4 n=a#4 v=0
78240 On ch=4 n=f5 v=40
78240 On ch=4 n=f4 v=22
78720 On ch=4 n=f4 v=0
78720 On ch=4 n=f5 v=0
78720 On ch=4 n=d5 v=32
78720 On ch=4 n=a#4 v=25
78720 On ch=4 n=f4 v=18
78880 On ch=4 n=f4 v=0
78880 On ch=4 n=a#4 v=0
78880 On ch=4 n=d5 v=0
78960 On ch=4 n=c5 v=28
78960 On ch=4 n=f4 v=20
79160 On ch=4 n=f4 v=0
79160 On ch=4 n=c5 v=0
79200 On ch=4 n=f5 v=35
79200 On ch=4 n=f4 v=15
79680 On ch=4 n=f4 v=0
79680 On ch=4 n=f5 v=0
79680 On ch=4 n=a4 v=38
79680 On ch=4 n=f4 v=25
79840 On ch=4 n=f4 v=0
79840 On ch=4 n=a4 v=0
80160 On ch=4 n=a4 v=35
80160 On ch=4 n=f4 v=28
80320 On ch=4 n=f4 v=0
80320 On ch=4 n=a4 v=0
80400 On ch=4 n=c4 v=38
80500 On ch=4 n=c4 v=0
80520 On ch=4 n=c5 v=30
80600 On ch=4 n=c5 v=0
80640 On ch=4 n=a4 v=32
80700 On ch=4 n=a4 v=0
80760 On ch=4 n=f4 v=28
80830 On ch=4 n=f4 v=0
80880 On ch=4 n=c4 v=30
81080 On ch=4 n=c4 v=0
81120 On ch=4 n=a#4 v=40
81120 On ch=4 n=c4 v=22
81600 On ch=4 n=c4 v=0
81600 On ch=4 n=a#4 v=0
81600 On ch=4 n=e4 v=35
81600 On ch=4 n=c4 v=25
81760 On ch=4 n=c4 v=0
81760 On ch=4 n=e4 v=0
81840 On ch=4 n=f4 v=30
81840 On ch=4 n=c4 v=18
81980 On ch=4 n=c4 v=0
81980 On ch=4 n=f4 v=0
82320 On ch=4 n=c5 v=15
82320 On ch=4 n=a4 v=25
82320 On ch=4 n=f4 v=38
82560 On ch=4 n=f4 v=0
82560 On ch=4 n=a4 v=0
82560 On ch=4 n=c5 v=0
82560 Meta TrkEnd
TrkEnd
MTrk
0 SeqSpec 43 00 01 00
0 Meta TrkName "Piano 2(L.H.)                       "
1020 Par ch=5 c=32 v=1
1080 Par ch=5 c=0 v=0
1140 PrCh ch=5 p=0
1200 Par ch=5 c=10 v=52
1260 Par ch=5 c=91 v=80
1320 Par ch=5 c=7 v=120
1380 Par ch=5 c=11 v=120
1920 On ch=5 n=f3 v=45
2120 On ch=5 n=f3 v=0
2400 On ch=5 n=f3 v=38
2580 On ch=5 n=f3 v=0
2880 On ch=5 n=a#3 v=28
2880 On ch=5 n=a#2 v=40
3080 On ch=5 n=a#2 v=0
3080 On ch=5 n=a#3 v=0
3840 On ch=5 n=f3 v=45
4040 On ch=5 n=f3 v=0
4800 On ch=5 n=f3 v=42
5000 On ch=5 n=f3 v=0
5280 On ch=5 n=f3 v=35
5460 On ch=5 n=f3 v=0
5760 On ch=5 n=c4 v=25
5760 On ch=5 n=c3 v=37
5960 On ch=5 n=c3 v=0
5960 On ch=5 n=c4 v=0
6720 On ch=5 n=f3 v=42
6920 On ch=5 n=f3 v=0
7680 On ch=5 n=f3 v=40
7880 On ch=5 n=f3 v=0
8160 On ch=5 n=f3 v=33
8340 On ch=5 n=f3 v=0
8640 On ch=5 n=a#3 v=23
8640 On ch=5 n=a#2 v=35
8840 On ch=5 n=a#2 v=0
8840 On ch=5 n=a#3 v=0
9600 On ch=5 n=f3 v=40
9800 On ch=5 n=f3 v=0
10560 On ch=5 n=f3 v=37
10760 On ch=5 n=f3 v=0
11040 On ch=5 n=f3 v=30
11220 On ch=5 n=f3 v=0
11520 On ch=5 n=c4 v=20
11520 On ch=5 n=c3 v=32
11720 On ch=5 n=c3 v=0
11720 On ch=5 n=c4 v=0
12480 On ch=5 n=f3 v=37
12680 On ch=5 n=f3 v=0
13440 On ch=5 n=a3 v=28
13440 On ch=5 n=d3 v=40
13580 On ch=5 n=d3 v=0
13580 On ch=5 n=a3 v=0
13680 On ch=5 n=a3 v=35
13680 On ch=5 n=d3 v=48
14160 On ch=5 n=d3 v=0
14160 On ch=5 n=a3 v=0
14160 On ch=5 n=a3 v=25
14160 On ch=5 n=d3 v=36
14280 On ch=5 n=d3 v=0
14280 On ch=5 n=a3 v=0
14400 On ch=5 n=a3 v=28
14400 On ch=5 n=d3 v=40
14540 On ch=5 n=d3 v=0
14540 On ch=5 n=a3 v=0
14640 On ch=5 n=a3 v=35
14640 On ch=5 n=d3 v=48
15120 On ch=5 n=d3 v=0
15120 On ch=5 n=a3 v=0
15120 On ch=5 n=a3 v=31
15120 On ch=5 n=d3 v=42
15240 On ch=5 n=d3 v=0
15240 On ch=5 n=a3 v=0
15360 On ch=5 n=a3 v=33
15360 On ch=5 n=d3 v=45
15500 On ch=5 n=d3 v=0
15500 On ch=5 n=a3 v=0
15600 On ch=5 n=a#3 v=50
15600 On ch=5 n=d3 v=40
16080 On ch=5 n=d3 v=0
16080 On ch=5 n=a#3 v=0
16080 On ch=5 n=a3 v=52
16080 On ch=5 n=d3 v=45
16560 On ch=5 n=d3 v=0
16560 On ch=5 n=a3 v=0
16560 On ch=5 n=g#3 v=55
16560 On ch=5 n=d3 v=48
17040 On ch=5 n=d3 v=0
17040 On ch=5 n=g#3 v=0
17040 On ch=5 n=a3 v=45
17040 On ch=5 n=d3 v=50
17520 On ch=5 n=d3 v=0
17520 On ch=5 n=a3 v=0
17520 On ch=5 n=a3 v=38
17520 On ch=5 n=d3 v=45
18000 On ch=5 n=d3 v=0
18000 On ch=5 n=a3 v=0
18000 On ch=5 n=a3 v=30
18000 On ch=5 n=d3 v=38
18480 On ch=5 n=d3 v=0
18480 On ch=5 n=a3 v=0
18480 On ch=5 n=a3 v=25
18480 On ch=5 n=d3 v=40
18960 On ch=5 n=d3 v=0
18960 On ch=5 n=a3 v=0
18960 On ch=5 n=a3 v=55
19120 On ch=5 n=a3 v=0
19200 On ch=5 n=a3 v=38
19200 On ch=5 n=d3 v=50
19340 On ch=5 n=d3 v=0
19340 On ch=5 n=a3 v=0
19440 On ch=5 n=a3 v=45
19440 On ch=5 n=d3 v=58
19920 On ch=5 n=d3 v=0
19920 On ch=5 n=a3 v=0
19920 On ch=5 n=a3 v=35
19920 On ch=5 n=d3 v=46
20040 On ch=5 n=d3 v=0
20040 On ch=5 n=a3 v=0
20160 On ch=5 n=a3 v=38
20160 On ch=5 n=d3 v=50
20300 On ch=5 n=d3 v=0
20300 On ch=5 n=a3 v=0
20400 On ch=5 n=a3 v=45
20400 On ch=5 n=d3 v=58
20880 On ch=5 n=d3 v=0
20880 On ch=5 n=a3 v=0
20880 On ch=5 n=a3 v=41
20880 On ch=5 n=d3 v=52
21000 On ch=5 n=d3 v=0
21000 On ch=5 n=a3 v=0
21120 On ch=5 n=a3 v=43
21120 On ch=5 n=d3 v=55
21260 On ch=5 n=d3 v=0
21260 On ch=5 n=a3 v=0
21360 On ch=5 n=a#3 v=60
21360 On ch=5 n=d3 v=50
21840 On ch=5 n=d3 v=0
21840 On ch=5 n=a#3 v=0
21840 On ch=5 n=a3 v=62
21840 On ch=5 n=d3 v=55
22320 On ch=5 n=d3 v=0
22320 On ch=5 n=a3 v=0
22320 On ch=5 n=g#3 v=65
22320 On ch=5 n=d3 v=58
22800 On ch=5 n=d3 v=0
22800 On ch=5 n=g#3 v=0
22800 On ch=5 n=a3 v=55
22800 On ch=5 n=d3 v=60
23280 On ch=5 n=d3 v=0
23280 On ch=5 n=a3 v=0
23280 On ch=5 n=a3 v=48
23280 On ch=5 n=d3 v=55
23760 On ch=5 n=d3 v=0
23760 On ch=5 n=a3 v=0
23760 On ch=5 n=a3 v=40
23760 On ch=5 n=d3 v=48
23920 On ch=5 n=d3 v=0
23920 On ch=5 n=a3 v=0
24000 On ch=5 n=a3 v=42
24000 On ch=5 n=d3 v=50
24400 On ch=5 n=d3 v=0
24400 On ch=5 n=a3 v=0
24480 On ch=5 n=c4 v=48
24480 On ch=5 n=e3 v=62
24960 On ch=5 n=f3 v=55
24980 On ch=5 n=e3 v=0
24980 On ch=5 n=c4 v=0
25160 On ch=5 n=f3 v=0
25440 On ch=5 n=f3 v=48
25620 On ch=5 n=f3 v=0
25920 On ch=5 n=a#3 v=38
25920 On ch=5 n=a#2 v=50
26120 On ch=5 n=a#2 v=0
26120 On ch=5 n=a#3 v=0
26880 On ch=5 n=f3 v=55
27080 On ch=5 n=f3 v=0
27840 On ch=5 n=f3 v=52
28040 On ch=5 n=f3 v=0
28320 On ch=5 n=f3 v=45
28500 On ch=5 n=f3 v=0
28800 On ch=5 n=c4 v=35
28800 On ch=5 n=c3 v=47
29000 On ch=5 n=c3 v=0
29000 On ch=5 n=c4 v=0
29760 On ch=5 n=f3 v=52
29960 On ch=5 n=f3 v=0
30720 On ch=5 n=f3 v=45
30920 On ch=5 n=f3 v=0
31200 On ch=5 n=f3 v=38
31380 On ch=5 n=f3 v=0
31680 On ch=5 n=a#3 v=28
31680 On ch=5 n=a#2 v=40
31880 On ch=5 n=a#2 v=0
31880 On ch=5 n=a#3 v=0
32640 On ch=5 n=f3 v=45
32840 On ch=5 n=f3 v=0
33600 On ch=5 n=f3 v=42
33800 On ch=5 n=f3 v=0
34080 On ch=5 n=f3 v=35
34260 On ch=5 n=f3 v=0
34560 On ch=5 n=c4 v=25
34560 On ch=5 n=c3 v=37
34760 On ch=5 n=c3 v=0
34760 On ch=5 n=c4 v=0
35520 On ch=5 n=f3 v=42
35720 On ch=5 n=f3 v=0
36240 On ch=5 n=a2 v=53
36440 On ch=5 n=a2 v=0
36480 On ch=5 n=a3 v=40
36480 On ch=5 n=d3 v=55
36540 On ch=5 n=d3 v=0
36540 On ch=5 n=a3 v=0
36600 On ch=5 n=a3 v=33
36600 On ch=5 n=e3 v=48
36640 On ch=5 n=e3 v=0
36640 On ch=5 n=a3 v=0
36720 On ch=5 n=a3 v=38
36720 On ch=5 n=f3 v=50
36860 On ch=5 n=f3 v=0
36860 On ch=5 n=a3 v=0
37200 On ch=5 n=a3 v=35
37200 On ch=5 n=e3 v=53
37260 On ch=5 n=e3 v=0
37260 On ch=5 n=a3 v=0
37320 On ch=5 n=a3 v=39
37320 On ch=5 n=f3 v=57
37360 On ch=5 n=f3 v=0
37380 On ch=5 n=a3 v=0
37440 On ch=5 n=a3 v=42
37440 On ch=5 n=g3 v=60
37600 On ch=5 n=g3 v=0
37600 On ch=5 n=a3 v=0
37800 On ch=5 n=a3 v=45
37800 On ch=5 n=f3 v=63
37860 On ch=5 n=f3 v=0
37860 On ch=5 n=a3 v=0
37920 On ch=5 n=a3 v=48
37920 On ch=5 n=f3 v=65
38040 On ch=5 n=e3 v=58
38060 On ch=5 n=f3 v=0
38060 On ch=5 n=a3 v=0
38120 On ch=5 n=e3 v=0
38160 On ch=5 n=a3 v=50
38160 On ch=5 n=e3 v=60
38280 On ch=5 n=d3 v=53
38300 On ch=5 n=e3 v=0
38300 On ch=5 n=a3 v=0
38380 On ch=5 n=d3 v=0
38400 On ch=5 n=a3 v=45
38400 On ch=5 n=e3 v=57
38880 On ch=5 n=a3 v=0
38880 On ch=5 n=a3 v=40
38900 On ch=5 n=e3 v=0
39080 On ch=5 n=a3 v=0
39120 On ch=5 n=a2 v=60
39260 On ch=5 n=a2 v=0
39360 On ch=5 n=a3 v=48
39360 On ch=5 n=d3 v=65
39420 On ch=5 n=d3 v=0
39420 On ch=5 n=a3 v=0
39480 On ch=5 n=a3 v=43
39480 On ch=5 n=e3 v=58
39520 On ch=5 n=e3 v=0
39520 On ch=5 n=a3 v=0
39600 On ch=5 n=a3 v=45
39600 On ch=5 n=f3 v=55
39740 On ch=5 n=f3 v=0
39740 On ch=5 n=a3 v=0
40080 On ch=5 n=a3 v=40
40080 On ch=5 n=e3 v=58
40140 On ch=5 n=e3 v=0
40140 On ch=5 n=a3 v=0
40200 On ch=5 n=a3 v=43
40200 On ch=5 n=f3 v=62
40240 On ch=5 n=f3 v=0
40240 On ch=5 n=a3 v=0
40320 On ch=5 n=a3 v=47
40320 On ch=5 n=g3 v=65
40480 On ch=5 n=g3 v=0
40480 On ch=5 n=a3 v=0
40680 On ch=5 n=a3 v=50
40680 On ch=5 n=f3 v=68
40740 On ch=5 n=f3 v=0
40740 On ch=5 n=a3 v=0
40800 On ch=5 n=a3 v=53
40800 On ch=5 n=f3 v=70
40860 On ch=5 n=a3 v=0
40920 On ch=5 n=e3 v=63
40940 On ch=5 n=f3 v=0
41000 On ch=5 n=e3 v=0
41040 On ch=5 n=a3 v=52
41040 On ch=5 n=e3 v=65
41160 On ch=5 n=a2 v=60
41180 On ch=5 n=e3 v=0
41180 On ch=5 n=a3 v=0
41260 On ch=5 n=a2 v=0
41280 On ch=5 n=d3 v=62
41760 On ch=5 n=d3 v=0
41760 On ch=5 n=d3 v=55
41960 On ch=5 n=d3 v=0
42000 On ch=5 n=a2 v=73
42140 On ch=5 n=a2 v=0
42240 On ch=5 n=a3 v=50
42240 On ch=5 n=d3 v=65
42300 On ch=5 n=d3 v=0
42300 On ch=5 n=a3 v=0
42360 On ch=5 n=a3 v=43
42360 On ch=5 n=e3 v=58
42400 On ch=5 n=e3 v=0
42400 On ch=5 n=a3 v=0
42480 On ch=5 n=a3 v=48
42480 On ch=5 n=f3 v=60
42620 On ch=5 n=f3 v=0
42620 On ch=5 n=a3 v=0
42960 On ch=5 n=a3 v=45
42960 On ch=5 n=e3 v=63
43020 On ch=5 n=e3 v=0
43020 On ch=5 n=a3 v=0
43080 On ch=5 n=a3 v=49
43080 On ch=5 n=f3 v=67
43120 On ch=5 n=f3 v=0
43140 On ch=5 n=a3 v=0
43200 On ch=5 n=a3 v=52
43200 On ch=5 n=g3 v=70
43360 On ch=5 n=g3 v=0
43360 On ch=5 n=a3 v=0
43560 On ch=5 n=a3 v=55
43560 On ch=5 n=f3 v=73
43620 On ch=5 n=f3 v=0
43620 On ch=5 n=a3 v=0
43680 On ch=5 n=a3 v=58
43680 On ch=5 n=f3 v=75
43800 On ch=5 n=e3 v=68
43820 On ch=5 n=f3 v=0
43820 On ch=5 n=a3 v=0
43880 On ch=5 n=e3 v=0
43920 On ch=5 n=a3 v=60
43920 On ch=5 n=e3 v=70
44040 On ch=5 n=d3 v=63
44060 On ch=5 n=e3 v=0
44060 On ch=5 n=a3 v=0
44140 On ch=5 n=d3 v=0
44160 On ch=5 n=a3 v=55
44160 On ch=5 n=e3 v=67
44640 On ch=5 n=a3 v=0
44640 On ch=5 n=a3 v=50
44660 On ch=5 n=e3 v=0
44840 On ch=5 n=a3 v=0
44880 On ch=5 n=a2 v=80
45020 On ch=5 n=a2 v=0
45120 On ch=5 n=a3 v=68
45120 On ch=5 n=d3 v=85
45180 On ch=5 n=d3 v=0
45180 On ch=5 n=a3 v=0
45240 On ch=5 n=a3 v=63
45240 On ch=5 n=e3 v=78
45280 On ch=5 n=e3 v=0
45280 On ch=5 n=a3 v=0
45360 On ch=5 n=a3 v=65
45360 On ch=5 n=f3 v=75
45500 On ch=5 n=f3 v=0
45500 On ch=5 n=a3 v=0
45840 On ch=5 n=a3 v=60
45840 On ch=5 n=e3 v=78
45900 On ch=5 n=e3 v=0
45900 On ch=5 n=a3 v=0
45960 On ch=5 n=a3 v=63
45960 On ch=5 n=f3 v=82
46000 On ch=5 n=f3 v=0
46000 On ch=5 n=a3 v=0
46080 On ch=5 n=a3 v=67
46080 On ch=5 n=g3 v=85
46240 On ch=5 n=g3 v=0
46240 On ch=5 n=a3 v=0
46440 On ch=5 n=a3 v=70
46440 On ch=5 n=f3 v=88
46500 On ch=5 n=f3 v=0
46500 On ch=5 n=a3 v=0
46560 On ch=5 n=a3 v=73
46560 On ch=5 n=f3 v=90
46620 On ch=5 n=a3 v=0
46680 On ch=5 n=e3 v=93
46700 On ch=5 n=f3 v=0
46760 On ch=5 n=e3 v=0
46800 On ch=5 n=a3 v=82
46800 On ch=5 n=e3 v=95
46920 On ch=5 n=a2 v=100
46940 On ch=5 n=e3 v=0
46940 On ch=5 n=a3 v=0
47020 On ch=5 n=a2 v=0
47040 On ch=5 n=d3 v=102
47520 On ch=5 n=d3 v=0
47520 On ch=5 n=a2 v=95
47920 On ch=5 n=a2 v=0
48240 On ch=5 n=d3 v=95
48240 On ch=5 n=d2 v=110
48380 On ch=5 n=d2 v=0
48380 On ch=5 n=d3 v=0
48480 On ch=5 n=d4 v=100
48480 On ch=5 n=d3 v=118
48880 On ch=5 n=d3 v=0
48880 On ch=5 n=d4 v=0
48960 On ch=5 n=g3 v=90
48960 On ch=5 n=g2 v=105
49080 On ch=5 n=g2 v=0
49080 On ch=5 n=g3 v=0
49200 On ch=5 n=d4 v=92
49200 On ch=5 n=d3 v=110
49600 On ch=5 n=d3 v=0
49600 On ch=5 n=d4 v=0
49680 On ch=5 n=g3 v=95
49680 On ch=5 n=g2 v=112
50080 On ch=5 n=g2 v=0
50080 On ch=5 n=g3 v=0
50160 On ch=5 n=d4 v=90
50160 On ch=5 n=d3 v=108
51080 On ch=5 n=d3 v=0
51080 On ch=5 n=d4 v=0
51120 On ch=5 n=d3 v=85
51120 On ch=5 n=d2 v=100
51260 On ch=5 n=d2 v=0
51260 On ch=5 n=d3 v=0
51360 On ch=5 n=d4 v=100
51360 On ch=5 n=d3 v=118
51760 On ch=5 n=d3 v=0
51760 On ch=5 n=d4 v=0
51840 On ch=5 n=g3 v=90
51840 On ch=5 n=g2 v=105
51960 On ch=5 n=g2 v=0
51960 On ch=5 n=g3 v=0
52080 On ch=5 n=d4 v=92
52080 On ch=5 n=d3 v=110
52480 On ch=5 n=d3 v=0
52480 On ch=5 n=d4 v=0
52560 On ch=5 n=a3 v=95
52560 On ch=5 n=a2 v=112
52960 On ch=5 n=a2 v=0
52960 On ch=5 n=a3 v=0
53040 On ch=5 n=d3 v=105
53140 On ch=5 n=a3 v=70
53160 On ch=5 n=d3 v=0
53200 On ch=5 n=d3 v=75
53210 On ch=5 n=a3 v=0
53250 On ch=5 n=a3 v=65
53260 On ch=5 n=d3 v=0
53290 On ch=5 n=d3 v=72
53300 On ch=5 n=a3 v=0
53340 On ch=5 n=a3 v=67
53350 On ch=5 n=d3 v=0
53390 On ch=5 n=d3 v=74
53400 On ch=5 n=a3 v=0
53450 On ch=5 n=a3 v=70
53460 On ch=5 n=d3 v=0
53520 On ch=5 n=d3 v=98
53920 On ch=5 n=d3 v=0
53920 On ch=5 n=a3 v=0
54000 On ch=5 n=d3 v=90
54000 On ch=5 n=d2 v=105
54140 On ch=5 n=d2 v=0
54140 On ch=5 n=d3 v=0
54240 On ch=5 n=d4 v=105
54240 On ch=5 n=d3 v=123
54640 On ch=5 n=d3 v=0
54640 On ch=5 n=d4 v=0
54720 On ch=5 n=g3 v=95
54720 On ch=5 n=g2 v=110
54840 On ch=5 n=g2 v=0
54840 On ch=5 n=g3 v=0
54960 On ch=5 n=d4 v=97
54960 On ch=5 n=d3 v=115
55360 On ch=5 n=d3 v=0
55360 On ch=5 n=d4 v=0
55440 On ch=5 n=b3 v=110
55440 On ch=5 n=b2 v=127
55840 On ch=5 n=b2 v=0
55840 On ch=5 n=b3 v=0
55920 On ch=5 n=d4 v=95
55920 On ch=5 n=d3 v=113
56840 On ch=5 n=d3 v=0
56840 On ch=5 n=d4 v=0
56880 On ch=5 n=d3 v=90
56880 On ch=5 n=d2 v=105
57020 On ch=5 n=d2 v=0
57020 On ch=5 n=d3 v=0
57120 On ch=5 n=d4 v=105
57120 On ch=5 n=d3 v=123
57520 On ch=5 n=d3 v=0
57520 On ch=5 n=d4 v=0
57600 On ch=5 n=g3 v=95
57600 On ch=5 n=g2 v=110
57720 On ch=5 n=g2 v=0
57720 On ch=5 n=g3 v=0
57840 On ch=5 n=d4 v=97
57840 On ch=5 n=d3 v=115
58240 On ch=5 n=d3 v=0
58240 On ch=5 n=d4 v=0
58320 On ch=5 n=a3 v=100
58320 On ch=5 n=a2 v=117
58720 On ch=5 n=a2 v=0
58720 On ch=5 n=a3 v=0
58800 On ch=5 n=a3 v=110
58900 On ch=5 n=d3 v=88
58920 On ch=5 n=a3 v=0
58980 On ch=5 n=a3 v=77
58990 On ch=5 n=d3 v=0
59050 On ch=5 n=d3 v=79
59060 On ch=5 n=a3 v=0
59110 On ch=5 n=a3 v=68
59120 On ch=5 n=d3 v=0
59160 On ch=5 n=d3 v=72
59180 On ch=5 n=a3 v=0
59220 On ch=5 n=a3 v=61
59230 On ch=5 n=d3 v=0
59270 On ch=5 n=d3 v=64
59290 On ch=5 n=a3 v=0
59320 On ch=5 n=a3 v=54
59340 On ch=5 n=d3 v=0
59380 On ch=5 n=d3 v=58
59390 On ch=5 n=a3 v=0
59430 On ch=5 n=a3 v=47
59450 On ch=5 n=d3 v=0
59490 On ch=5 n=d3 v=52
59500 On ch=5 n=a3 v=0
59530 On ch=5 n=a3 v=42
59550 On ch=5 n=d3 v=0
59580 On ch=5 n=d3 v=46
59600 On ch=5 n=a3 v=0
59640 On ch=5 n=a3 v=32
59650 On ch=5 n=d3 v=0
59690 On ch=5 n=d3 v=38
59710 On ch=5 n=a3 v=0
59760 On ch=5 n=a3 v=40
59780 On ch=5 n=d3 v=0
59850 On ch=5 n=d3 v=43
59870 On ch=5 n=a3 v=0
59920 On ch=5 n=a3 v=30
59940 On ch=5 n=d3 v=0
59970 On ch=5 n=d3 v=38
60000 On ch=5 n=a3 v=0
60030 On ch=5 n=a3 v=28
60050 On ch=5 n=d3 v=0
60090 On ch=5 n=d3 v=35
60110 On ch=5 n=a3 v=0
60140 On ch=5 n=a3 v=23
60170 On ch=5 n=d3 v=0
60200 On ch=5 n=d3 v=30
60220 On ch=5 n=a3 v=0
60260 On ch=5 n=a3 v=25
60280 On ch=5 n=d3 v=0
60310 On ch=5 n=d3 v=32
60340 On ch=5 n=a3 v=0
60370 On ch=5 n=a3 v=28
60390 On ch=5 n=d3 v=0
60420 On ch=5 n=d3 v=34
60450 On ch=5 n=a3 v=0
60470 On ch=5 n=a3 v=30
60500 On ch=5 n=d3 v=0
60530 On ch=5 n=d3 v=36
60560 On ch=5 n=a3 v=0
60580 On ch=5 n=a3 v=25
60610 On ch=5 n=d3 v=0
60640 On ch=5 n=d3 v=28
60660 On ch=5 n=a3 v=0
60720 On ch=5 n=a3 v=30
60740 On ch=5 n=d3 v=0
60810 On ch=5 n=d3 v=35
60830 On ch=5 n=a3 v=0
60880 On ch=5 n=a3 v=28
60900 On ch=5 n=d3 v=0
60930 On ch=5 n=d3 v=32
60960 On ch=5 n=a3 v=0
60990 On ch=5 n=a3 v=25
61010 On ch=5 n=d3 v=0
61050 On ch=5 n=d3 v=28
61070 On ch=5 n=a3 v=0
61100 On ch=5 n=a3 v=23
61130 On ch=5 n=d3 v=0
61160 On ch=5 n=d3 v=30
61180 On ch=5 n=a3 v=0
61220 On ch=5 n=a3 v=25
61240 On ch=5 n=d3 v=0
61270 On ch=5 n=d3 v=32
61300 On ch=5 n=a3 v=0
61330 On ch=5 n=a3 v=28
61350 On ch=5 n=d3 v=0
61380 On ch=5 n=d3 v=34
61410 On ch=5 n=a3 v=0
61430 On ch=5 n=a3 v=30
61460 On ch=5 n=d3 v=0
61490 On ch=5 n=d3 v=36
61520 On ch=5 n=a3 v=0
61540 On ch=5 n=a3 v=25
61570 On ch=5 n=d3 v=0
61600 On ch=5 n=d3 v=28
61620 On ch=5 n=a3 v=0
61680 On ch=5 n=a3 v=30
61700 On ch=5 n=d3 v=0
61750 On ch=5 n=d3 v=35
61760 On ch=5 n=a3 v=0
61810 On ch=5 n=a3 v=33
61830 On ch=5 n=d3 v=0
61860 On ch=5 n=d3 v=37
61890 On ch=5 n=a3 v=0
61920 On ch=5 n=a#3 v=45
61940 On ch=5 n=d3 v=0
62010 On ch=5 n=d3 v=38
62030 On ch=5 n=a#3 v=0
62080 On ch=5 n=a#3 v=43
62090 On ch=5 n=d3 v=0
62140 On ch=5 n=d3 v=40
62160 On ch=5 n=a#3 v=0
62190 On ch=5 n=a#3 v=50
62220 On ch=5 n=d3 v=0
62240 On ch=5 n=d3 v=38
62270 On ch=5 n=a#3 v=0
62300 On ch=5 n=a#3 v=42
62320 On ch=5 n=d3 v=0
62350 On ch=5 n=d3 v=34
62380 On ch=5 n=a#3 v=0
62400 On ch=5 n=a3 v=45
62430 On ch=5 n=d3 v=0
62470 On ch=5 n=d3 v=33
62490 On ch=5 n=a3 v=0
62520 On ch=5 n=a3 v=38
62550 On ch=5 n=d3 v=0
62580 On ch=5 n=d3 v=28
62600 On ch=5 n=a3 v=0
62640 On ch=5 n=a3 v=40
62680 On ch=5 n=d3 v=0
62710 On ch=5 n=d3 v=28
62720 On ch=5 n=a3 v=0
62770 On ch=5 n=a3 v=35
62790 On ch=5 n=d3 v=0
62820 On ch=5 n=d3 v=25
62850 On ch=5 n=a3 v=0
62880 On ch=5 n=g#3 v=42
62900 On ch=5 n=d3 v=0
62970 On ch=5 n=d3 v=28
62990 On ch=5 n=g#3 v=0
63040 On ch=5 n=g#3 v=38
63050 On ch=5 n=d3 v=0
63100 On ch=5 n=d3 v=23
63120 On ch=5 n=g#3 v=0
63150 On ch=5 n=g#3 v=40
63180 On ch=5 n=d3 v=0
63200 On ch=5 n=d3 v=25
63230 On ch=5 n=g#3 v=0
63260 On ch=5 n=g#3 v=35
63280 On ch=5 n=d3 v=0
63310 On ch=5 n=d3 v=28
63340 On ch=5 n=g#3 v=0
63360 On ch=5 n=a3 v=38
63390 On ch=5 n=d3 v=0
63430 On ch=5 n=d3 v=25
63450 On ch=5 n=a3 v=0
63480 On ch=5 n=a3 v=32
63510 On ch=5 n=d3 v=0
63540 On ch=5 n=d3 v=20
63560 On ch=5 n=a3 v=0
63600 On ch=5 n=a3 v=28
63640 On ch=5 n=d3 v=0
63690 On ch=5 n=d3 v=40
63710 On ch=5 n=a3 v=0
63760 On ch=5 n=a3 v=30
63780 On ch=5 n=d3 v=0
63810 On ch=5 n=d3 v=38
63840 On ch=5 n=a3 v=0
63870 On ch=5 n=a3 v=27
63890 On ch=5 n=d3 v=0
63930 On ch=5 n=d3 v=35
63950 On ch=5 n=a3 v=0
63980 On ch=5 n=a3 v=23
64010 On ch=5 n=d3 v=0
64040 On ch=5 n=d3 v=30
64060 On ch=5 n=a3 v=0
64100 On ch=5 n=a3 v=25
64120 On ch=5 n=d3 v=0
64150 On ch=5 n=d3 v=32
64180 On ch=5 n=a3 v=0
64210 On ch=5 n=a3 v=28
64230 On ch=5 n=d3 v=0
64260 On ch=5 n=d3 v=34
64290 On ch=5 n=a3 v=0
64310 On ch=5 n=a3 v=30
64340 On ch=5 n=d3 v=0
64370 On ch=5 n=d3 v=36
64400 On ch=5 n=a3 v=0
64420 On ch=5 n=a3 v=35
64450 On ch=5 n=d3 v=0
64480 On ch=5 n=d3 v=32
64500 On ch=5 n=a3 v=0
64560 On ch=5 n=a3 v=39
64580 On ch=5 n=d3 v=0
64630 On ch=5 n=d3 v=35
64650 On ch=5 n=a3 v=0
64690 On ch=5 n=a3 v=43
64710 On ch=5 n=d3 v=0
64740 On ch=5 n=d3 v=38
64770 On ch=5 n=a3 v=0
64800 On ch=5 n=a#3 v=90
64820 On ch=5 n=d3 v=0
64870 On ch=5 n=d3 v=70
64890 On ch=5 n=a#3 v=0
64930 On ch=5 n=a#3 v=80
64950 On ch=5 n=d3 v=0
64980 On ch=5 n=d3 v=60
65010 On ch=5 n=a#3 v=0
65040 On ch=5 n=a3 v=72
65060 On ch=5 n=d3 v=0
65110 On ch=5 n=d3 v=55
65130 On ch=5 n=a3 v=0
65170 On ch=5 n=a3 v=65
65190 On ch=5 n=d3 v=0
65220 On ch=5 n=d3 v=48
65250 On ch=5 n=a3 v=0
65280 On ch=5 n=g#3 v=70
65300 On ch=5 n=d3 v=0
65350 On ch=5 n=d3 v=53
65370 On ch=5 n=g#3 v=0
65410 On ch=5 n=g#3 v=65
65430 On ch=5 n=d3 v=0
65460 On ch=5 n=d3 v=50
65490 On ch=5 n=g#3 v=0
65520 On ch=5 n=a3 v=70
65540 On ch=5 n=d3 v=0
65610 On ch=5 n=d3 v=50
65630 On ch=5 n=a3 v=0
65680 On ch=5 n=a3 v=60
65700 On ch=5 n=d3 v=0
65730 On ch=5 n=d3 v=48
65760 On ch=5 n=a3 v=0
65790 On ch=5 n=a3 v=57
65810 On ch=5 n=d3 v=0
65850 On ch=5 n=d3 v=45
65870 On ch=5 n=a3 v=0
65900 On ch=5 n=a3 v=53
65930 On ch=5 n=d3 v=0
65960 On ch=5 n=d3 v=40
65980 On ch=5 n=a3 v=0
66020 On ch=5 n=a3 v=55
66040 On ch=5 n=d3 v=0
66070 On ch=5 n=d3 v=42
66100 On ch=5 n=a3 v=0
66130 On ch=5 n=a3 v=58
66150 On ch=5 n=d3 v=0
66180 On ch=5 n=d3 v=44
66210 On ch=5 n=a3 v=0
66230 On ch=5 n=a3 v=53
66260 On ch=5 n=d3 v=0
66290 On ch=5 n=d3 v=46
66320 On ch=5 n=a3 v=0
66340 On ch=5 n=a3 v=55
66370 On ch=5 n=d3 v=0
66400 On ch=5 n=d3 v=42
66420 On ch=5 n=a3 v=0
66480 On ch=5 n=a3 v=40
66500 On ch=5 n=d3 v=0
66550 On ch=5 n=d3 v=45
66560 On ch=5 n=a3 v=0
66610 On ch=5 n=a3 v=43
66630 On ch=5 n=d3 v=0
66660 On ch=5 n=d3 v=47
66690 On ch=5 n=a3 v=0
66720 On ch=5 n=a#3 v=55
66740 On ch=5 n=d3 v=0
66810 On ch=5 n=d3 v=48
66830 On ch=5 n=a#3 v=0
66880 On ch=5 n=a#3 v=53
66890 On ch=5 n=d3 v=0
66940 On ch=5 n=d3 v=45
66960 On ch=5 n=a#3 v=0
66990 On ch=5 n=a#3 v=50
67020 On ch=5 n=d3 v=0
67040 On ch=5 n=d3 v=43
67070 On ch=5 n=a#3 v=0
67100 On ch=5 n=a#3 v=47
67120 On ch=5 n=d3 v=0
67150 On ch=5 n=d3 v=39
67180 On ch=5 n=a#3 v=0
67200 On ch=5 n=g#3 v=50
67230 On ch=5 n=d3 v=0
67270 On ch=5 n=d3 v=38
67290 On ch=5 n=g#3 v=0
67320 On ch=5 n=g#3 v=43
67350 On ch=5 n=d3 v=0
67380 On ch=5 n=d3 v=33
67400 On ch=5 n=g#3 v=0
67440 On ch=5 n=a3 v=45
67480 On ch=5 n=d3 v=0
67560 On ch=5 n=d3 v=38
67580 On ch=5 n=a3 v=0
67660 On ch=5 n=a3 v=40
67680 On ch=5 n=d3 v=0
67740 On ch=5 n=d3 v=35
67760 On ch=5 n=a3 v=0
67810 On ch=5 n=a3 v=42
67840 On ch=5 n=d3 v=0
67870 On ch=5 n=d3 v=27
67910 On ch=5 n=a3 v=0
67950 On ch=5 n=a3 v=38
67970 On ch=5 n=d3 v=0
68020 On ch=5 n=d3 v=30
68050 On ch=5 n=a3 v=0
68100 On ch=5 n=a3 v=40
68120 On ch=5 n=d3 v=0
68160 On ch=5 n=d3 v=35
68200 On ch=5 n=a3 v=0
68240 On ch=5 n=a3 v=42
68260 On ch=5 n=d3 v=0
68310 On ch=5 n=d3 v=28
68340 On ch=5 n=a3 v=0
68400 On ch=5 n=a3 v=45
68410 On ch=5 n=d3 v=0
68490 On ch=5 n=d3 v=32
68500 On ch=5 n=a3 v=0
68570 On ch=5 n=a3 v=50
68590 On ch=5 n=d3 v=0
68640 On ch=5 n=d3 v=36
68670 On ch=5 n=a3 v=0
68720 On ch=5 n=g#3 v=55
68740 On ch=5 n=d3 v=0
68820 On ch=5 n=d3 v=40
68840 On ch=5 n=g#3 v=0
68900 On ch=5 n=g#3 v=50
68920 On ch=5 n=d3 v=0
68960 On ch=5 n=d3 v=35
69000 On ch=5 n=g#3 v=0
69040 On ch=5 n=a3 v=52
69060 On ch=5 n=d3 v=0
69130 On ch=5 n=d3 v=37
69140 On ch=5 n=a3 v=0
69210 On ch=5 n=a3 v=48
69230 On ch=5 n=d3 v=0
69280 On ch=5 n=d3 v=32
69310 On ch=5 n=a3 v=0
69360 On ch=5 n=a3 v=45
69380 On ch=5 n=d3 v=0
69450 On ch=5 n=d3 v=32
69460 On ch=5 n=a3 v=0
69530 On ch=5 n=a3 v=42
69550 On ch=5 n=d3 v=0
69600 On ch=5 n=d3 v=28
69630 On ch=5 n=a3 v=0
69680 On ch=5 n=a#3 v=39
69700 On ch=5 n=d3 v=0
69780 On ch=5 n=d3 v=22
69800 On ch=5 n=a#3 v=0
69860 On ch=5 n=a#3 v=32
69880 On ch=5 n=d3 v=0
69920 On ch=5 n=d3 v=17
69960 On ch=5 n=a#3 v=0
70000 On ch=5 n=a#3 v=29
70020 On ch=5 n=d3 v=0
70090 On ch=5 n=d3 v=14
70100 On ch=5 n=a#3 v=0
70170 On ch=5 n=a3 v=30
70190 On ch=5 n=d3 v=0
70240 On ch=5 n=d3 v=17
70270 On ch=5 n=a3 v=0
70320 On ch=5 n=d3 v=0
70320 On ch=5 n=a3 v=25
70320 On ch=5 n=d3 v=40
70720 On ch=5 n=d3 v=0
70720 On ch=5 n=a3 v=0
70800 On ch=5 n=c4 v=30
70800 On ch=5 n=e3 v=55
71280 On ch=5 n=f3 v=50
71300 On ch=5 n=e3 v=0
71300 On ch=5 n=c4 v=0
71480 On ch=5 n=f3 v=0
71760 On ch=5 n=f3 v=43
71940 On ch=5 n=f3 v=0
72240 On ch=5 n=a#3 v=33
72240 On ch=5 n=a#2 v=45
72440 On ch=5 n=a#2 v=0
72440 On ch=5 n=a#3 v=0
73200 On ch=5 n=f3 v=50
73400 On ch=5 n=f3 v=0
74160 On ch=5 n=f3 v=47
74360 On ch=5 n=f3 v=0
74640 On ch=5 n=f3 v=40
74820 On ch=5 n=f3 v=0
75120 On ch=5 n=c3 v=42
75320 On ch=5 n=c3 v=0
76080 On ch=5 n=f3 v=47
76280 On ch=5 n=f3 v=0
77040 On ch=5 n=f3 v=40
77240 On ch=5 n=f3 v=0
77520 On ch=5 n=f3 v=33
77700 On ch=5 n=f3 v=0
78000 On ch=5 n=a#3 v=23
78000 On ch=5 n=a#2 v=35
78200 On ch=5 n=a#2 v=0
78200 On ch=5 n=a#3 v=0
78480 On ch=5 n=d4 v=26
78480 On ch=5 n=d3 v=38
78640 On ch=5 n=d3 v=0
78640 On ch=5 n=d4 v=0
78960 On ch=5 n=f3 v=40
79160 On ch=5 n=f3 v=0
79920 On ch=5 n=f3 v=37
80120 On ch=5 n=f3 v=0
80400 On ch=5 n=f3 v=30
80580 On ch=5 n=f3 v=0
80880 On ch=5 n=c4 v=20
80880 On ch=5 n=c3 v=32
81080 On ch=5 n=c3 v=0
81080 On ch=5 n=c4 v=0
81840 On ch=5 n=f3 v=25
81840 On ch=5 n=f2 v=37
81980 On ch=5 n=f2 v=0
81980 On ch=5 n=f3 v=0
81980 Meta TrkEnd
TrkEnd
MTrk
0 SeqSpec 43 00 01 00
0 Meta TrkName "Damper Pedal(P1-RH)                 "
1920 Par ch=1 c=64 v=0
2880 Par ch=1 c=64 v=0
3400 Par ch=1 c=64 v=127
3840 Par ch=1 c=64 v=127
3860 Par ch=1 c=64 v=0
4360 Par ch=1 c=64 v=127
4760 Par ch=1 c=64 v=0
4800 Par ch=1 c=64 v=0
5760 Par ch=1 c=64 v=0
6280 Par ch=1 c=64 v=127
6720 Par ch=1 c=64 v=127
6740 Par ch=1 c=64 v=0
7460 Par ch=1 c=64 v=127
7640 Par ch=1 c=64 v=0
7680 Par ch=1 c=64 v=0
8640 Par ch=1 c=64 v=0
9160 Par ch=1 c=64 v=127
9600 Par ch=1 c=64 v=127
9620 Par ch=1 c=64 v=0
10120 Par ch=1 c=64 v=127
10520 Par ch=1 c=64 v=0
10560 Par ch=1 c=64 v=0
11520 Par ch=1 c=64 v=0
12040 Par ch=1 c=64 v=127
12480 Par ch=1 c=64 v=127
12500 Par ch=1 c=64 v=0
13220 Par ch=1 c=64 v=127
13400 Par ch=1 c=64 v=0
13440 Par ch=1 c=64 v=0
13680 Par ch=1 c=64 v=127
14160 Par ch=1 c=64 v=0
14400 Par ch=1 c=64 v=0
14920 Par ch=1 c=64 v=127
15140 Par ch=1 c=64 v=0
15160 Par ch=1 c=64 v=127
15360 Par ch=1 c=64 v=127
15380 Par ch=1 c=64 v=0
15640 Par ch=1 c=64 v=127
16040 Par ch=1 c=64 v=0
16320 Par ch=1 c=64 v=0
16560 Par ch=1 c=64 v=127
17040 Par ch=1 c=64 v=0
17280 Par ch=1 c=64 v=0
17800 Par ch=1 c=64 v=127
18020 Par ch=1 c=64 v=0
18040 Par ch=1 c=64 v=127
18240 Par ch=1 c=64 v=127
18260 Par ch=1 c=64 v=0
18520 Par ch=1 c=64 v=127
18920 Par ch=1 c=64 v=0
19200 Par ch=1 c=64 v=0
19440 Par ch=1 c=64 v=127
19920 Par ch=1 c=64 v=0
20160 Par ch=1 c=64 v=0
20680 Par ch=1 c=64 v=127
20900 Par ch=1 c=64 v=0
20920 Par ch=1 c=64 v=127
21120 Par ch=1 c=64 v=127
21140 Par ch=1 c=64 v=0
21400 Par ch=1 c=64 v=127
21800 Par ch=1 c=64 v=0
22080 Par ch=1 c=64 v=0
22320 Par ch=1 c=64 v=127
22800 Par ch=1 c=64 v=0
23040 Par ch=1 c=64 v=0
23560 Par ch=1 c=64 v=127
23780 Par ch=1 c=64 v=0
23800 Par ch=1 c=64 v=127
24000 Par ch=1 c=64 v=127
24020 Par ch=1 c=64 v=0
24280 Par ch=1 c=64 v=127
24680 Par ch=1 c=64 v=0
24960 Par ch=1 c=64 v=0
25920 Par ch=1 c=64 v=0
26440 Par ch=1 c=64 v=127
26880 Par ch=1 c=64 v=127
26900 Par ch=1 c=64 v=0
27400 Par ch=1 c=64 v=127
27800 Par ch=1 c=64 v=0
27840 Par ch=1 c=64 v=0
28800 Par ch=1 c=64 v=0
29320 Par ch=1 c=64 v=127
29760 Par ch=1 c=64 v=127
29780 Par ch=1 c=64 v=0
30500 Par ch=1 c=64 v=127
30680 Par ch=1 c=64 v=0
30720 Par ch=1 c=64 v=0
31680 Par ch=1 c=64 v=0
32200 Par ch=1 c=64 v=127
32640 Par ch=1 c=64 v=127
32660 Par ch=1 c=64 v=0
33160 Par ch=1 c=64 v=127
33560 Par ch=1 c=64 v=0
33600 Par ch=1 c=64 v=0
34560 Par ch=1 c=64 v=0
35080 Par ch=1 c=64 v=127
35520 Par ch=1 c=64 v=127
35540 Par ch=1 c=64 v=0
36260 Par ch=1 c=64 v=127
36440 Par ch=1 c=64 v=0
36480 Par ch=1 c=64 v=0
37440 Par ch=1 c=64 v=0
37960 Par ch=1 c=64 v=127
38180 Par ch=1 c=64 v=0
38200 Par ch=1 c=64 v=127
38400 Par ch=1 c=64 v=127
38420 Par ch=1 c=64 v=0
38680 Par ch=1 c=64 v=127
39080 Par ch=1 c=64 v=0
39360 Par ch=1 c=64 v=0
40320 Par ch=1 c=64 v=0
40840 Par ch=1 c=64 v=127
41060 Par ch=1 c=64 v=0
41080 Par ch=1 c=64 v=127
41280 Par ch=1 c=64 v=127
41300 Par ch=1 c=64 v=0
41560 Par ch=1 c=64 v=127
41960 Par ch=1 c=64 v=0
42240 Par ch=1 c=64 v=0
43200 Par ch=1 c=64 v=0
43720 Par ch=1 c=64 v=127
43940 Par ch=1 c=64 v=0
43960 Par ch=1 c=64 v=127
44160 Par ch=1 c=64 v=127
44180 Par ch=1 c=64 v=0
44440 Par ch=1 c=64 v=127
44840 Par ch=1 c=64 v=0
45120 Par ch=1 c=64 v=0
46080 Par ch=1 c=64 v=0
46600 Par ch=1 c=64 v=127
46820 Par ch=1 c=64 v=0
46840 Par ch=1 c=64 v=127
47040 Par ch=1 c=64 v=127
47060 Par ch=1 c=64 v=0
47080 Par ch=1 c=64 v=127
47540 Par ch=1 c=64 v=0
47560 Par ch=1 c=64 v=127
48040 Par ch=1 c=64 v=0
48240 Par ch=1 c=64 v=2
48260 Par ch=1 c=64 v=0
48500 Par ch=1 c=64 v=127
48980 Par ch=1 c=64 v=0
49200 Par ch=1 c=64 v=0
49240 Par ch=1 c=64 v=127
49700 Par ch=1 c=64 v=0
49720 Par ch=1 c=64 v=127
50160 Par ch=1 c=64 v=127
50180 Par ch=1 c=64 v=0
50200 Par ch=1 c=64 v=127
51120 Par ch=1 c=64 v=2
51140 Par ch=1 c=64 v=0
51380 Par ch=1 c=64 v=127
51860 Par ch=1 c=64 v=0
52080 Par ch=1 c=64 v=0
52120 Par ch=1 c=64 v=127
52580 Par ch=1 c=64 v=0
52600 Par ch=1 c=64 v=127
53040 Par ch=1 c=64 v=127
53060 Par ch=1 c=64 v=0
53080 Par ch=1 c=64 v=127
54000 Par ch=1 c=64 v=2
54020 Par ch=1 c=64 v=0
54260 Par ch=1 c=64 v=127
54740 Par ch=1 c=64 v=0
54960 Par ch=1 c=64 v=0
55000 Par ch=1 c=64 v=127
55460 Par ch=1 c=64 v=0
55480 Par ch=1 c=64 v=127
55920 Par ch=1 c=64 v=127
55940 Par ch=1 c=64 v=0
55960 Par ch=1 c=64 v=127
56880 Par ch=1 c=64 v=2
56900 Par ch=1 c=64 v=0
57140 Par ch=1 c=64 v=127
57620 Par ch=1 c=64 v=0
57840 Par ch=1 c=64 v=0
57880 Par ch=1 c=64 v=127
58340 Par ch=1 c=64 v=0
58360 Par ch=1 c=64 v=127
58800 Par ch=1 c=64 v=127
58820 Par ch=1 c=64 v=0
58840 Par ch=1 c=64 v=127
59760 Par ch=1 c=64 v=0
60000 Par ch=1 c=64 v=127
60480 Par ch=1 c=64 v=0
60720 Par ch=1 c=64 v=0
61240 Par ch=1 c=64 v=127
61460 Par ch=1 c=64 v=0
61480 Par ch=1 c=64 v=127
61680 Par ch=1 c=64 v=127
61700 Par ch=1 c=64 v=0
61960 Par ch=1 c=64 v=127
62360 Par ch=1 c=64 v=0
62640 Par ch=1 c=64 v=0
62880 Par ch=1 c=64 v=127
63360 Par ch=1 c=64 v=0
63600 Par ch=1 c=64 v=0
64120 Par ch=1 c=64 v=127
64340 Par ch=1 c=64 v=0
64360 Par ch=1 c=64 v=127
64560 Par ch=1 c=64 v=127
64580 Par ch=1 c=64 v=0
64840 Par ch=1 c=64 v=127
65240 Par ch=1 c=64 v=0
65520 Par ch=1 c=64 v=0
65760 Par ch=1 c=64 v=127
66240 Par ch=1 c=64 v=0
66480 Par ch=1 c=64 v=0
67000 Par ch=1 c=64 v=127
67220 Par ch=1 c=64 v=0
67240 Par ch=1 c=64 v=127
67440 Par ch=1 c=64 v=127
67460 Par ch=1 c=64 v=0
67720 Par ch=1 c=64 v=127
68120 Par ch=1 c=64 v=0
68400 Par ch=1 c=64 v=0
68640 Par ch=1 c=64 v=127
69120 Par ch=1 c=64 v=0
69360 Par ch=1 c=64 v=0
69880 Par ch=1 c=64 v=127
70100 Par ch=1 c=64 v=0
70120 Par ch=1 c=64 v=127
70320 Par ch=1 c=64 v=127
70340 Par ch=1 c=64 v=0
70600 Par ch=1 c=64 v=127
71000 Par ch=1 c=64 v=0
71280 Par ch=1 c=64 v=0
72240 Par ch=1 c=64 v=0
72760 Par ch=1 c=64 v=127
73200 Par ch=1 c=64 v=127
73220 Par ch=1 c=64 v=0
73720 Par ch=1 c=64 v=127
74120 Par ch=1 c=64 v=0
74160 Par ch=1 c=64 v=0
75120 Par ch=1 c=64 v=0
75640 Par ch=1 c=64 v=127
76080 Par ch=1 c=64 v=127
76100 Par ch=1 c=64 v=0
76820 Par ch=1 c=64 v=127
77000 Par ch=1 c=64 v=0
77040 Par ch=1 c=64 v=0
78000 Par ch=1 c=64 v=0
78520 Par ch=1 c=64 v=127
78960 Par ch=1 c=64 v=127
78980 Par ch=1 c=64 v=0
79480 Par ch=1 c=64 v=127
79880 Par ch=1 c=64 v=0
79920 Par ch=1 c=64 v=0
80880 Par ch=1 c=64 v=0
81400 Par ch=1 c=64 v=127
81840 Par ch=1 c=64 v=127
81860 Par ch=1 c=64 v=0
82340 Par ch=1 c=64 v=127
82560 Par ch=1 c=64 v=0
82560 Meta TrkEnd
TrkEnd
MTrk
0 SeqSpec 43 00 01 00
0 Meta TrkName "Damper Pedal(P1-LH)                 "
1920 Par ch=2 c=64 v=0
2880 Par ch=2 c=64 v=0
3400 Par ch=2 c=64 v=127
3840 Par ch=2 c=64 v=127
3860 Par ch=2 c=64 v=0
4360 Par ch=2 c=64 v=127
4760 Par ch=2 c=64 v=0
4800 Par ch=2 c=64 v=0
5760 Par ch=2 c=64 v=0
6280 Par ch=2 c=64 v=127
6720 Par ch=2 c=64 v=127
6740 Par ch=2 c=64 v=0
7460 Par ch=2 c=64 v=127
7640 Par ch=2 c=64 v=0
7680 Par ch=2 c=64 v=0
8640 Par ch=2 c=64 v=0
9160 Par ch=2 c=64 v=127
9600 Par ch=2 c=64 v=127
9620 Par ch=2 c=64 v=0
10120 Par ch=2 c=64 v=127
10520 Par ch=2 c=64 v=0
10560 Par ch=2 c=64 v=0
11520 Par ch=2 c=64 v=0
12040 Par ch=2 c=64 v=127
12480 Par ch=2 c=64 v=127
12500 Par ch=2 c=64 v=0
13220 Par ch=2 c=64 v=127
13400 Par ch=2 c=64 v=0
13440 Par ch=2 c=64 v=0
13680 Par ch=2 c=64 v=127
14160 Par ch=2 c=64 v=0
14400 Par ch=2 c=64 v=0
14920 Par ch=2 c=64 v=127
15140 Par ch=2 c=64 v=0
15160 Par ch=2 c=64 v=127
15360 Par ch=2 c=64 v=127
15380 Par ch=2 c=64 v=0
15640 Par ch=2 c=64 v=127
16040 Par ch=2 c=64 v=0
16320 Par ch=2 c=64 v=0
16560 Par ch=2 c=64 v=127
17040 Par ch=2 c=64 v=0
17280 Par ch=2 c=64 v=0
17800 Par ch=2 c=64 v=127
18020 Par ch=2 c=64 v=0
18040 Par ch=2 c=64 v=127
18240 Par ch=2 c=64 v=127
18260 Par ch=2 c=64 v=0
18520 Par ch=2 c=64 v=127
18920 Par ch=2 c=64 v=0
19200 Par ch=2 c=64 v=0
19440 Par ch=2 c=64 v=127
19920 Par ch=2 c=64 v=0
20160 Par ch=2 c=64 v=0
20680 Par ch=2 c=64 v=127
20900 Par ch=2 c=64 v=0
20920 Par ch=2 c=64 v=127
21120 Par ch=2 c=64 v=127
21140 Par ch=2 c=64 v=0
21400 Par ch=2 c=64 v=127
21800 Par ch=2 c=64 v=0
22080 Par ch=2 c=64 v=0
22320 Par ch=2 c=64 v=127
22800 Par ch=2 c=64 v=0
23040 Par ch=2 c=64 v=0
23560 Par ch=2 c=64 v=127
23780 Par ch=2 c=64 v=0
23800 Par ch=2 c=64 v=127
24000 Par ch=2 c=64 v=127
24020 Par ch=2 c=64 v=0
24280 Par ch=2 c=64 v=127
24680 Par ch=2 c=64 v=0
24960 Par ch=2 c=64 v=0
25920 Par ch=2 c=64 v=0
26440 Par ch=2 c=64 v=127
26880 Par ch=2 c=64 v=127
26900 Par ch=2 c=64 v=0
27400 Par ch=2 c=64 v=127
27800 Par ch=2 c=64 v=0
27840 Par ch=2 c=64 v=0
28800 Par ch=2 c=64 v=0
29320 Par ch=2 c=64 v=127
29760 Par ch=2 c=64 v=127
29780 Par ch=2 c=64 v=0
30500 Par ch=2 c=64 v=127
30680 Par ch=2 c=64 v=0
30720 Par ch=2 c=64 v=0
31680 Par ch=2 c=64 v=0
32200 Par ch=2 c=64 v=127
32640 Par ch=2 c=64 v=127
32660 Par ch=2 c=64 v=0
33160 Par ch=2 c=64 v=127
33560 Par ch=2 c=64 v=0
33600 Par ch=2 c=64 v=0
34560 Par ch=2 c=64 v=0
35080 Par ch=2 c=64 v=127
35520 Par ch=2 c=64 v=127
35540 Par ch=2 c=64 v=0
36260 Par ch=2 c=64 v=127
36440 Par ch=2 c=64 v=0
36480 Par ch=2 c=64 v=0
37440 Par ch=2 c=64 v=0
37960 Par ch=2 c=64 v=127
38180 Par ch=2 c=64 v=0
38200 Par ch=2 c=64 v=127
38400 Par ch=2 c=64 v=127
38420 Par ch=2 c=64 v=0
38680 Par ch=2 c=64 v=127
39080 Par ch=2 c=64 v=0
39360 Par ch=2 c=64 v=0
40320 Par ch=2 c=64 v=0
40840 Par ch=2 c=64 v=127
41060 Par ch=2 c=64 v=0
41080 Par ch=2 c=64 v=127
41280 Par ch=2 c=64 v=127
41300 Par ch=2 c=64 v=0
41560 Par ch=2 c=64 v=127
41960 Par ch=2 c=64 v=0
42240 Par ch=2 c=64 v=0
43200 Par ch=2 c=64 v=0
43720 Par ch=2 c=64 v=127
43940 Par ch=2 c=64 v=0
43960 Par ch=2 c=64 v=127
44160 Par ch=2 c=64 v=127
44180 Par ch=2 c=64 v=0
44440 Par ch=2 c=64 v=127
44840 Par ch=2 c=64 v=0
45120 Par ch=2 c=64 v=0
46080 Par ch=2 c=64 v=0
46600 Par ch=2 c=64 v=127
46820 Par ch=2 c=64 v=0
46840 Par ch=2 c=64 v=127
47040 Par ch=2 c=64 v=127
47060 Par ch=2 c=64 v=0
47080 Par ch=2 c=64 v=127
47540 Par ch=2 c=64 v=0
47560 Par ch=2 c=64 v=127
48040 Par ch=2 c=64 v=0
48240 Par ch=2 c=64 v=2
48260 Par ch=2 c=64 v=0
48500 Par ch=2 c=64 v=127
48980 Par ch=2 c=64 v=0
49200 Par ch=2 c=64 v=0
49240 Par ch=2 c=64 v=127
49700 Par ch=2 c=64 v=0
49720 Par ch=2 c=64 v=127
50160 Par ch=2 c=64 v=127
50180 Par ch=2 c=64 v=0
50200 Par ch=2 c=64 v=127
51120 Par ch=2 c=64 v=2
51140 Par ch=2 c=64 v=0
51380 Par ch=2 c=64 v=127
51860 Par ch=2 c=64 v=0
52080 Par ch=2 c=64 v=0
52120 Par ch=2 c=64 v=127
52580 Par ch=2 c=64 v=0
52600 Par ch=2 c=64 v=127
53040 Par ch=2 c=64 v=127
53060 Par ch=2 c=64 v=0
53080 Par ch=2 c=64 v=127
54000 Par ch=2 c=64 v=2
54020 Par ch=2 c=64 v=0
54260 Par ch=2 c=64 v=127
54740 Par ch=2 c=64 v=0
54960 Par ch=2 c=64 v=0
55000 Par ch=2 c=64 v=127
55460 Par ch=2 c=64 v=0
55480 Par ch=2 c=64 v=127
55920 Par ch=2 c=64 v=127
55940 Par ch=2 c=64 v=0
55960 Par ch=2 c=64 v=127
56880 Par ch=2 c=64 v=2
56900 Par ch=2 c=64 v=0
57140 Par ch=2 c=64 v=127
57620 Par ch=2 c=64 v=0
57840 Par ch=2 c=64 v=0
57880 Par ch=2 c=64 v=127
58340 Par ch=2 c=64 v=0
58360 Par ch=2 c=64 v=127
58800 Par ch=2 c=64 v=127
58820 Par ch=2 c=64 v=0
58840 Par ch=2 c=64 v=127
59760 Par ch=2 c=64 v=0
60000 Par ch=2 c=64 v=127
60480 Par ch=2 c=64 v=0
60720 Par ch=2 c=64 v=0
61240 Par ch=2 c=64 v=127
61460 Par ch=2 c=64 v=0
61480 Par ch=2 c=64 v=127
61680 Par ch=2 c=64 v=127
61700 Par ch=2 c=64 v=0
61960 Par ch=2 c=64 v=127
62360 Par ch=2 c=64 v=0
62640 Par ch=2 c=64 v=0
62880 Par ch=2 c=64 v=127
63360 Par ch=2 c=64 v=0
63600 Par ch=2 c=64 v=0
64120 Par ch=2 c=64 v=127
64340 Par ch=2 c=64 v=0
64360 Par ch=2 c=64 v=127
64560 Par ch=2 c=64 v=127
64580 Par ch=2 c=64 v=0
64840 Par ch=2 c=64 v=127
65240 Par ch=2 c=64 v=0
65520 Par ch=2 c=64 v=0
65760 Par ch=2 c=64 v=127
66240 Par ch=2 c=64 v=0
66480 Par ch=2 c=64 v=0
67000 Par ch=2 c=64 v=127
67220 Par ch=2 c=64 v=0
67240 Par ch=2 c=64 v=127
67440 Par ch=2 c=64 v=127
67460 Par ch=2 c=64 v=0
67720 Par ch=2 c=64 v=127
68120 Par ch=2 c=64 v=0
68400 Par ch=2 c=64 v=0
68640 Par ch=2 c=64 v=127
69120 Par ch=2 c=64 v=0
69360 Par ch=2 c=64 v=0
69880 Par ch=2 c=64 v=127
70100 Par ch=2 c=64 v=0
70120 Par ch=2 c=64 v=127
70320 Par ch=2 c=64 v=127
70340 Par ch=2 c=64 v=0
70600 Par ch=2 c=64 v=127
71000 Par ch=2 c=64 v=0
71280 Par ch=2 c=64 v=0
72240 Par ch=2 c=64 v=0
72760 Par ch=2 c=64 v=127
73200 Par ch=2 c=64 v=127
73220 Par ch=2 c=64 v=0
73720 Par ch=2 c=64 v=127
74120 Par ch=2 c=64 v=0
74160 Par ch=2 c=64 v=0
75120 Par ch=2 c=64 v=0
75640 Par ch=2 c=64 v=127
76080 Par ch=2 c=64 v=127
76100 Par ch=2 c=64 v=0
76820 Par ch=2 c=64 v=127
77000 Par ch=2 c=64 v=0
77040 Par ch=2 c=64 v=0
78000 Par ch=2 c=64 v=0
78520 Par ch=2 c=64 v=127
78960 Par ch=2 c=64 v=127
78980 Par ch=2 c=64 v=0
79480 Par ch=2 c=64 v=127
79880 Par ch=2 c=64 v=0
79920 Par ch=2 c=64 v=0
80880 Par ch=2 c=64 v=0
81400 Par ch=2 c=64 v=127
81840 Par ch=2 c=64 v=127
81860 Par ch=2 c=64 v=0
82340 Par ch=2 c=64 v=127
82560 Par ch=2 c=64 v=0
82560 Meta TrkEnd
TrkEnd
MTrk
0 SeqSpec 43 00 01 00
0 Meta TrkName "Damper Pedal(P2-RH)                 "
1920 Par ch=4 c=64 v=0
2880 Par ch=4 c=64 v=0
3400 Par ch=4 c=64 v=127
3840 Par ch=4 c=64 v=127
3860 Par ch=4 c=64 v=0
4360 Par ch=4 c=64 v=127
4760 Par ch=4 c=64 v=0
4800 Par ch=4 c=64 v=0
5760 Par ch=4 c=64 v=0
6280 Par ch=4 c=64 v=127
6720 Par ch=4 c=64 v=127
6740 Par ch=4 c=64 v=0
7460 Par ch=4 c=64 v=127
7640 Par ch=4 c=64 v=0
7680 Par ch=4 c=64 v=0
8640 Par ch=4 c=64 v=0
9160 Par ch=4 c=64 v=127
9600 Par ch=4 c=64 v=127
9620 Par ch=4 c=64 v=0
10120 Par ch=4 c=64 v=127
10520 Par ch=4 c=64 v=0
10560 Par ch=4 c=64 v=0
11520 Par ch=4 c=64 v=0
12040 Par ch=4 c=64 v=127
12480 Par ch=4 c=64 v=127
12500 Par ch=4 c=64 v=0
13220 Par ch=4 c=64 v=127
13400 Par ch=4 c=64 v=0
13440 Par ch=4 c=64 v=0
13680 Par ch=4 c=64 v=127
14160 Par ch=4 c=64 v=0
14400 Par ch=4 c=64 v=0
14920 Par ch=4 c=64 v=127
15140 Par ch=4 c=64 v=0
15160 Par ch=4 c=64 v=127
15360 Par ch=4 c=64 v=127
15380 Par ch=4 c=64 v=0
15640 Par ch=4 c=64 v=127
16040 Par ch=4 c=64 v=0
16320 Par ch=4 c=64 v=0
16560 Par ch=4 c=64 v=127
17040 Par ch=4 c=64 v=0
17280 Par ch=4 c=64 v=0
17800 Par ch=4 c=64 v=127
18020 Par ch=4 c=64 v=0
18040 Par ch=4 c=64 v=127
18240 Par ch=4 c=64 v=127
18260 Par ch=4 c=64 v=0
18520 Par ch=4 c=64 v=127
18920 Par ch=4 c=64 v=0
19200 Par ch=4 c=64 v=0
19440 Par ch=4 c=64 v=127
19920 Par ch=4 c=64 v=0
20160 Par ch=4 c=64 v=0
20680 Par ch=4 c=64 v=127
20900 Par ch=4 c=64 v=0
20920 Par ch=4 c=64 v=127
21120 Par ch=4 c=64 v=127
21140 Par ch=4 c=64 v=0
21400 Par ch=4 c=64 v=127
21800 Par ch=4 c=64 v=0
22080 Par ch=4 c=64 v=0
22320 Par ch=4 c=64 v=127
22800 Par ch=4 c=64 v=0
23040 Par ch=4 c=64 v=0
23560 Par ch=4 c=64 v=127
23780 Par ch=4 c=64 v=0
23800 Par ch=4 c=64 v=127
24000 Par ch=4 c=64 v=127
24020 Par ch=4 c=64 v=0
24280 Par ch=4 c=64 v=127
24680 Par ch=4 c=64 v=0
24960 Par ch=4 c=64 v=0
25920 Par ch=4 c=64 v=0
26440 Par ch=4 c=64 v=127
26880 Par ch=4 c=64 v=127
26900 Par ch=4 c=64 v=0
27400 Par ch=4 c=64 v=127
27800 Par ch=4 c=64 v=0
27840 Par ch=4 c=64 v=0
28800 Par ch=4 c=64 v=0
29320 Par ch=4 c=64 v=127
29760 Par ch=4 c=64 v=127
29780 Par ch=4 c=64 v=0
30500 Par ch=4 c=64 v=127
30680 Par ch=4 c=64 v=0
30720 Par ch=4 c=64 v=0
31680 Par ch=4 c=64 v=0
32200 Par ch=4 c=64 v=127
32640 Par ch=4 c=64 v=127
32660 Par ch=4 c=64 v=0
33160 Par ch=4 c=64 v=127
33560 Par ch=4 c=64 v=0
33600 Par ch=4 c=64 v=0
34560 Par ch=4 c=64 v=0
35080 Par ch=4 c=64 v=127
35520 Par ch=4 c=64 v=127
35540 Par ch=4 c=64 v=0
36260 Par ch=4 c=64 v=127
36440 Par ch=4 c=64 v=0
36480 Par ch=4 c=64 v=0
37440 Par ch=4 c=64 v=0
37960 Par ch=4 c=64 v=127
38180 Par ch=4 c=64 v=0
38200 Par ch=4 c=64 v=127
38400 Par ch=4 c=64 v=127
38420 Par ch=4 c=64 v=0
38680 Par ch=4 c=64 v=127
39080 Par ch=4 c=64 v=0
39360 Par ch=4 c=64 v=0
40320 Par ch=4 c=64 v=0
40840 Par ch=4 c=64 v=127
41060 Par ch=4 c=64 v=0
41080 Par ch=4 c=64 v=127
41280 Par ch=4 c=64 v=127
41300 Par ch=4 c=64 v=0
41560 Par ch=4 c=64 v=127
41960 Par ch=4 c=64 v=0
42240 Par ch=4 c=64 v=0
43200 Par ch=4 c=64 v=0
43720 Par ch=4 c=64 v=127
43940 Par ch=4 c=64 v=0
43960 Par ch=4 c=64 v=127
44160 Par ch=4 c=64 v=127
44180 Par ch=4 c=64 v=0
44440 Par ch=4 c=64 v=127
44840 Par ch=4 c=64 v=0
45120 Par ch=4 c=64 v=0
46080 Par ch=4 c=64 v=0
46600 Par ch=4 c=64 v=127
46820 Par ch=4 c=64 v=0
46840 Par ch=4 c=64 v=127
47040 Par ch=4 c=64 v=127
47060 Par ch=4 c=64 v=0
47080 Par ch=4 c=64 v=127
47540 Par ch=4 c=64 v=0
47560 Par ch=4 c=64 v=127
48040 Par ch=4 c=64 v=0
48240 Par ch=4 c=64 v=2
48260 Par ch=4 c=64 v=0
48500 Par ch=4 c=64 v=127
48980 Par ch=4 c=64 v=0
49200 Par ch=4 c=64 v=0
49240 Par ch=4 c=64 v=127
49700 Par ch=4 c=64 v=0
49720 Par ch=4 c=64 v=127
50160 Par ch=4 c=64 v=127
50180 Par ch=4 c=64 v=0
50200 Par ch=4 c=64 v=127
51120 Par ch=4 c=64 v=2
51140 Par ch=4 c=64 v=0
51380 Par ch=4 c=64 v=127
51860 Par ch=4 c=64 v=0
52080 Par ch=4 c=64 v=0
52120 Par ch=4 c=64 v=127
52580 Par ch=4 c=64 v=0
52600 Par ch=4 c=64 v=127
53040 Par ch=4 c=64 v=127
53060 Par ch=4 c=64 v=0
53080 Par ch=4 c=64 v=127
54000 Par ch=4 c=64 v=2
54020 Par ch=4 c=64 v=0
54260 Par ch=4 c=64 v=127
54740 Par ch=4 c=64 v=0
54960 Par ch=4 c=64 v=0
55000 Par ch=4 c=64 v=127
55460 Par ch=4 c=64 v=0
55480 Par ch=4 c=64 v=127
55920 Par ch=4 c=64 v=127
55940 Par ch=4 c=64 v=0
55960 Par ch=4 c=64 v=127
56880 Par ch=4 c=64 v=2
56900 Par ch=4 c=64 v=0
57140 Par ch=4 c=64 v=127
57620 Par ch=4 c=64 v=0
57840 Par ch=4 c=64 v=0
57880 Par ch=4 c=64 v=127
58340 Par ch=4 c=64 v=0
58360 Par ch=4 c=64 v=127
58800 Par ch=4 c=64 v=127
58820 Par ch=4 c=64 v=0
58840 Par ch=4 c=64 v=127
59760 Par ch=4 c=64 v=0
60000 Par ch=4 c=64 v=127
60480 Par ch=4 c=64 v=0
60720 Par ch=4 c=64 v=0
61240 Par ch=4 c=64 v=127
61460 Par ch=4 c=64 v=0
61480 Par ch=4 c=64 v=127
61680 Par ch=4 c=64 v=127
61700 Par ch=4 c=64 v=0
61960 Par ch=4 c=64 v=127
62360 Par ch=4 c=64 v=0
62640 Par ch=4 c=64 v=0
62880 Par ch=4 c=64 v=127
63360 Par ch=4 c=64 v=0
63600 Par ch=4 c=64 v=0
64120 Par ch=4 c=64 v=127
64340 Par ch=4 c=64 v=0
64360 Par ch=4 c=64 v=127
64560 Par ch=4 c=64 v=127
64580 Par ch=4 c=64 v=0
64840 Par ch=4 c=64 v=127
65240 Par ch=4 c=64 v=0
65520 Par ch=4 c=64 v=0
65760 Par ch=4 c=64 v=127
66240 Par ch=4 c=64 v=0
66480 Par ch=4 c=64 v=0
67000 Par ch=4 c=64 v=127
67220 Par ch=4 c=64 v=0
67240 Par ch=4 c=64 v=127
67440 Par ch=4 c=64 v=127
67460 Par ch=4 c=64 v=0
67720 Par ch=4 c=64 v=127
68120 Par ch=4 c=64 v=0
68400 Par ch=4 c=64 v=0
68640 Par ch=4 c=64 v=127
69120 Par ch=4 c=64 v=0
69360 Par ch=4 c=64 v=0
69880 Par ch=4 c=64 v=127
70100 Par ch=4 c=64 v=0
70120 Par ch=4 c=64 v=127
70320 Par ch=4 c=64 v=127
70340 Par ch=4 c=64 v=0
70600 Par ch=4 c=64 v=127
71000 Par ch=4 c=64 v=0
71280 Par ch=4 c=64 v=0
72240 Par ch=4 c=64 v=0
72760 Par ch=4 c=64 v=127
73200 Par ch=4 c=64 v=127
73220 Par ch=4 c=64 v=0
73720 Par ch=4 c=64 v=127
74120 Par ch=4 c=64 v=0
74160 Par ch=4 c=64 v=0
75120 Par ch=4 c=64 v=0
75640 Par ch=4 c=64 v=127
76080 Par ch=4 c=64 v=127
76100 Par ch=4 c=64 v=0
76820 Par ch=4 c=64 v=127
77000 Par ch=4 c=64 v=0
77040 Par ch=4 c=64 v=0
78000 Par ch=4 c=64 v=0
78520 Par ch=4 c=64 v=127
78960 Par ch=4 c=64 v=127
78980 Par ch=4 c=64 v=0
79480 Par ch=4 c=64 v=127
79880 Par ch=4 c=64 v=0
79920 Par ch=4 c=64 v=0
80880 Par ch=4 c=64 v=0
81400 Par ch=4 c=64 v=127
81840 Par ch=4 c=64 v=127
81860 Par ch=4 c=64 v=0
82340 Par ch=4 c=64 v=127
82560 Par ch=4 c=64 v=0
82560 Meta TrkEnd
TrkEnd
MTrk
0 SeqSpec 43 00 01 00
0 Meta TrkName "Damper Pedal(P2-LH)                 "
1920 Par ch=5 c=64 v=0
2880 Par ch=5 c=64 v=0
3400 Par ch=5 c=64 v=127
3840 Par ch=5 c=64 v=127
3860 Par ch=5 c=64 v=0
4360 Par ch=5 c=64 v=127
4760 Par ch=5 c=64 v=0
4800 Par ch=5 c=64 v=0
5760 Par ch=5 c=64 v=0
6280 Par ch=5 c=64 v=127
6720 Par ch=5 c=64 v=127
6740 Par ch=5 c=64 v=0
7460 Par ch=5 c=64 v=127
7640 Par ch=5 c=64 v=0
7680 Par ch=5 c=64 v=0
8640 Par ch=5 c=64 v=0
9160 Par ch=5 c=64 v=127
9600 Par ch=5 c=64 v=127
9620 Par ch=5 c=64 v=0
10120 Par ch=5 c=64 v=127
10520 Par ch=5 c=64 v=0
10560 Par ch=5 c=64 v=0
11520 Par ch=5 c=64 v=0
12040 Par ch=5 c=64 v=127
12480 Par ch=5 c=64 v=127
12500 Par ch=5 c=64 v=0
13220 Par ch=5 c=64 v=127
13400 Par ch=5 c=64 v=0
13440 Par ch=5 c=64 v=0
13680 Par ch=5 c=64 v=127
14160 Par ch=5 c=64 v=0
14400 Par ch=5 c=64 v=0
14920 Par ch=5 c=64 v=127
15140 Par ch=5 c=64 v=0
15160 Par ch=5 c=64 v=127
15360 Par ch=5 c=64 v=127
15380 Par ch=5 c=64 v=0
15640 Par ch=5 c=64 v=127
16040 Par ch=5 c=64 v=0
16320 Par ch=5 c=64 v=0
16560 Par ch=5 c=64 v=127
17040 Par ch=5 c=64 v=0
17280 Par ch=5 c=64 v=0
17800 Par ch=5 c=64 v=127
18020 Par ch=5 c=64 v=0
18040 Par ch=5 c=64 v=127
18240 Par ch=5 c=64 v=127
18260 Par ch=5 c=64 v=0
18520 Par ch=5 c=64 v=127
18920 Par ch=5 c=64 v=0
19200 Par ch=5 c=64 v=0
19440 Par ch=5 c=64 v=127
19920 Par ch=5 c=64 v=0
20160 Par ch=5 c=64 v=0
20680 Par ch=5 c=64 v=127
20900 Par ch=5 c=64 v=0
20920 Par ch=5 c=64 v=127
21120 Par ch=5 c=64 v=127
21140 Par ch=5 c=64 v=0
21400 Par ch=5 c=64 v=127
21800 Par ch=5 c=64 v=0
22080 Par ch=5 c=64 v=0
22320 Par ch=5 c=64 v=127
22800 Par ch=5 c=64 v=0
23040 Par ch=5 c=64 v=0
23560 Par ch=5 c=64 v=127
23780 Par ch=5 c=64 v=0
23800 Par ch=5 c=64 v=127
24000 Par ch=5 c=64 v=127
24020 Par ch=5 c=64 v=0
24280 Par ch=5 c=64 v=127
24680 Par ch=5 c=64 v=0
24960 Par ch=5 c=64 v=0
25920 Par ch=5 c=64 v=0
26440 Par ch=5 c=64 v=127
26880 Par ch=5 c=64 v=127
26900 Par ch=5 c=64 v=0
27400 Par ch=5 c=64 v=127
27800 Par ch=5 c=64 v=0
27840 Par ch=5 c=64 v=0
28800 Par ch=5 c=64 v=0
29320 Par ch=5 c=64 v=127
29760 Par ch=5 c=64 v=127
29780 Par ch=5 c=64 v=0
30500 Par ch=5 c=64 v=127
30680 Par ch=5 c=64 v=0
30720 Par ch=5 c=64 v=0
31680 Par ch=5 c=64 v=0
32200 Par ch=5 c=64 v=127
32640 Par ch=5 c=64 v=127
32660 Par ch=5 c=64 v=0
33160 Par ch=5 c=64 v=127
33560 Par ch=5 c=64 v=0
33600 Par ch=5 c=64 v=0
34560 Par ch=5 c=64 v=0
35080 Par ch=5 c=64 v=127
35520 Par ch=5 c=64 v=127
35540 Par ch=5 c=64 v=0
36260 Par ch=5 c=64 v=127
36440 Par ch=5 c=64 v=0
36480 Par ch=5 c=64 v=0
37440 Par ch=5 c=64 v=0
37960 Par ch=5 c=64 v=127
38180 Par ch=5 c=64 v=0
38200 Par ch=5 c=64 v=127
38400 Par ch=5 c=64 v=127
38420 Par ch=5 c=64 v=0
38680 Par ch=5 c=64 v=127
39080 Par ch=5 c=64 v=0
39360 Par ch=5 c=64 v=0
40320 Par ch=5 c=64 v=0
40840 Par ch=5 c=64 v=127
41060 Par ch=5 c=64 v=0
41080 Par ch=5 c=64 v=127
41280 Par ch=5 c=64 v=127
41300 Par ch=5 c=64 v=0
41560 Par ch=5 c=64 v=127
41960 Par ch=5 c=64 v=0
42240 Par ch=5 c=64 v=0
43200 Par ch=5 c=64 v=0
43720 Par ch=5 c=64 v=127
43940 Par ch=5 c=64 v=0
43960 Par ch=5 c=64 v=127
44160 Par ch=5 c=64 v=127
44180 Par ch=5 c=64 v=0
44440 Par ch=5 c=64 v=127
44840 Par ch=5 c=64 v=0
45120 Par ch=5 c=64 v=0
46080 Par ch=5 c=64 v=0
46600 Par ch=5 c=64 v=127
46820 Par ch=5 c=64 v=0
46840 Par ch=5 c=64 v=127
47040 Par ch=5 c=64 v=127
47060 Par ch=5 c=64 v=0
47080 Par ch=5 c=64 v=127
47540 Par ch=5 c=64 v=0
47560 Par ch=5 c=64 v=127
48040 Par ch=5 c=64 v=0
48240 Par ch=5 c=64 v=2
48260 Par ch=5 c=64 v=0
48500 Par ch=5 c=64 v=127
48980 Par ch=5 c=64 v=0
49200 Par ch=5 c=64 v=0
49240 Par ch=5 c=64 v=127
49700 Par ch=5 c=64 v=0
49720 Par ch=5 c=64 v=127
50160 Par ch=5 c=64 v=127
50180 Par ch=5 c=64 v=0
50200 Par ch=5 c=64 v=127
51120 Par ch=5 c=64 v=2
51140 Par ch=5 c=64 v=0
51380 Par ch=5 c=64 v=127
51860 Par ch=5 c=64 v=0
52080 Par ch=5 c=64 v=0
52120 Par ch=5 c=64 v=127
52580 Par ch=5 c=64 v=0
52600 Par ch=5 c=64 v=127
53040 Par ch=5 c=64 v=127
53060 Par ch=5 c=64 v=0
53080 Par ch=5 c=64 v=127
54000 Par ch=5 c=64 v=2
54020 Par ch=5 c=64 v=0
54260 Par ch=5 c=64 v=127
54740 Par ch=5 c=64 v=0
54960 Par ch=5 c=64 v=0
55000 Par ch=5 c=64 v=127
55460 Par ch=5 c=64 v=0
55480 Par ch=5 c=64 v=127
55920 Par ch=5 c=64 v=127
55940 Par ch=5 c=64 v=0
55960 Par ch=5 c=64 v=127
56880 Par ch=5 c=64 v=2
56900 Par ch=5 c=64 v=0
57140 Par ch=5 c=64 v=127
57620 Par ch=5 c=64 v=0
57840 Par ch=5 c=64 v=0
57880 Par ch=5 c=64 v=127
58340 Par ch=5 c=64 v=0
58360 Par ch=5 c=64 v=127
58800 Par ch=5 c=64 v=127
58820 Par ch=5 c=64 v=0
58840 Par ch=5 c=64 v=127
59760 Par ch=5 c=64 v=0
60000 Par ch=5 c=64 v=127
60480 Par ch=5 c=64 v=0
60720 Par ch=5 c=64 v=0
61240 Par ch=5 c=64 v=127
61460 Par ch=5 c=64 v=0
61480 Par ch=5 c=64 v=127
61680 Par ch=5 c=64 v=127
61700 Par ch=5 c=64 v=0
61960 Par ch=5 c=64 v=127
62360 Par ch=5 c=64 v=0
62640 Par ch=5 c=64 v=0
62880 Par ch=5 c=64 v=127
63360 Par ch=5 c=64 v=0
63600 Par ch=5 c=64 v=0
64120 Par ch=5 c=64 v=127
64340 Par ch=5 c=64 v=0
64360 Par ch=5 c=64 v=127
64560 Par ch=5 c=64 v=127
64580 Par ch=5 c=64 v=0
64840 Par ch=5 c=64 v=127
65240 Par ch=5 c=64 v=0
65520 Par ch=5 c=64 v=0
65760 Par ch=5 c=64 v=127
66240 Par ch=5 c=64 v=0
66480 Par ch=5 c=64 v=0
67000 Par ch=5 c=64 v=127
67220 Par ch=5 c=64 v=0
67240 Par ch=5 c=64 v=127
67440 Par ch=5 c=64 v=127
67460 Par ch=5 c=64 v=0
67720 Par ch=5 c=64 v=127
68120 Par ch=5 c=64 v=0
68400 Par ch=5 c=64 v=0
68640 Par ch=5 c=64 v=127
69120 Par ch=5 c=64 v=0
69360 Par ch=5 c=64 v=0
69880 Par ch=5 c=64 v=127
70100 Par ch=5 c=64 v=0
70120 Par ch=5 c=64 v=127
70320 Par ch=5 c=64 v=127
70340 Par ch=5 c=64 v=0
70600 Par ch=5 c=64 v=127
71000 Par ch=5 c=64 v=0
71280 Par ch=5 c=64 v=0
72240 Par ch=5 c=64 v=0
72760 Par ch=5 c=64 v=127
73200 Par ch=5 c=64 v=127
73220 Par ch=5 c=64 v=0
73720 Par ch=5 c=64 v=127
74120 Par ch=5 c=64 v=0
74160 Par ch=5 c=64 v=0
75120 Par ch=5 c=64 v=0
75640 Par ch=5 c=64 v=127
76080 Par ch=5 c=64 v=127
76100 Par ch=5 c=64 v=0
76820 Par ch=5 c=64 v=127
77000 Par ch=5 c=64 v=0
77040 Par ch=5 c=64 v=0
78000 Par ch=5 c=64 v=0
78520 Par ch=5 c=64 v=127
78960 Par ch=5 c=64 v=127
78980 Par ch=5 c=64 v=0
79480 Par ch=5 c=64 v=127
79880 Par ch=5 c=64 v=0
79920 Par ch=5 c=64 v=0
80880 Par ch=5 c=64 v=0
81400 Par ch=5 c=64 v=127
81840 Par ch=5 c=64 v=127
81860 Par ch=5 c=64 v=0
82340 Par ch=5 c=64 v=127
82560 Par ch=5 c=64 v=0
82560 Meta TrkEnd
TrkEnd
