MFile 1 5 120
MTrk
0 Meta SeqName "untitled"
0 Meta Copyright "Copyright \xffffffa9 2000 by XMAN98"
0 Meta Text "XMAN98"
0 TimeSig 3/4 24 8
0 KeySig -5 major
0 Tempo 800000
360 TimeSig 2/4 24 8
1380 Tempo 1000000
1560 Tempo 800000
1860 Tempo 1000000
2340 Tempo 800000
2520 TimeSig 9/16 6 8
2520 Tempo 1000000
2790 Tempo 800000
3060 TimeSig 2/4 24 8
3360 Tempo 1000000
3540 Tempo 800000
3840 Tempo 1000000
4320 Tempo 800000
4500 Tempo 1000000
4740 TimeSig 9/16 6 8
4740 Tempo 800000
5010 TimeSig 2/4 24 8
5310 Tempo 1000000
5490 TimeSig 9/16 6 8
5760 TimeSig 2/4 24 8
6300 Tempo 800000
6480 TimeSig 9/16 6 8
6480 Tempo 1000000
6750 TimeSig 2/4 24 8
6750 Tempo 800000
7290 Tempo 1000000
7470 TimeSig 9/16 6 8
7740 TimeSig 2/4 24 8
8280 Tempo 800000
8460 TimeSig 9/16 6 8
8460 Tempo 1000000
8655 Tempo 800000
8730 TimeSig 5/8 12 8
9330 TimeSig 2/4 24 8
9330 Tempo 800000
10770 TimeSig 3/4 24 8
11130 TimeSig 2/4 24 8
11130 KeySig 7 major
11130 Tempo 294118
18810 Tempo 294118
26490 TimeSig 4/4 24 8
26490 KeySig -5 major
26490 Tempo 800000
26970 TimeSig 7/4 24 8
27810 TimeSig 4/4 24 8
28290 TimeSig 6/4 24 8
29010 TimeSig 17/16 6 8
29520 TimeSig 17/8 12 8
30540 TimeSig 6/4 24 8
31260 TimeSig 9/8 12 8
31800 TimeSig 4/4 24 8
32760 TimeSig 11/8 12 8
33420 TimeSig 9/8 12 8
33960 TimeSig 7/4 24 8
33960 Tempo 666667
34080 Tempo 666667
34500 Tempo 800000
34800 Tempo 666667
35322 Tempo 800000
35637 TimeSig 9/8 12 8
36177 TimeSig 4/4 24 8
36657 TimeSig 5/4 24 8
37257 TimeSig 9/8 12 8
37437 Tempo 1090909
37857 Tempo 800000
38337 TimeSig 4/4 24 8
38817 TimeSig 7/4 24 8
39057 Tempo 800000
39267 Tempo 666667
39657 TimeSig 4/4 24 8
41067 Tempo 689655
41097 TimeSig 3/4 24 8
41127 Tempo 714286
41187 Tempo 740741
41247 Tempo 779221
41307 Tempo 810811
41367 Tempo 845070
41427 Tempo 685745
41457 TimeSig 9/16 6 8
41457 KeySig -2 major
41487 Tempo 555556
41727 TimeSig 2/4 24 8
49227 Tempo 571429
49287 Tempo 588235
49347 Tempo 606061
49407 Tempo 631579
49467 Tempo 652174
49527 Tempo 674157
49587 Tempo 697674
49647 Tempo 517241
65247 Tempo 437956
65967 Tempo 402685
65967 Meta TrkEnd
TrkEnd
MTrk
0 Meta 0x21 00
0 Meta TrkName "Grand Piano"
0 PrCh ch=1 p=0
0 Par ch=1 c=7 v=127
0 Par ch=1 c=10 v=97
1080 Par ch=1 c=64 v=127
1080 On ch=1 n=f5 v=88
1080 On ch=1 n=g#5 v=88
1080 On ch=1 n=f6 v=88
1140 On ch=1 n=f6 v=0
1140 On ch=1 n=g#5 v=0
1140 On ch=1 n=f5 v=0
1140 On ch=1 n=f5 v=104
1140 On ch=1 n=c#6 v=109
1140 On ch=1 n=f6 v=114
1200 On ch=1 n=f6 v=0
1200 On ch=1 n=c#6 v=0
1200 On ch=1 n=f5 v=0
1200 On ch=1 n=c#4 v=88
1206 On ch=1 n=c#4 v=0
1260 On ch=1 n=f5 v=104
1260 On ch=1 n=c#6 v=109
1260 On ch=1 n=f6 v=114
1320 On ch=1 n=f6 v=0
1320 On ch=1 n=c#6 v=0
1320 On ch=1 n=f5 v=0
1320 On ch=1 n=c#4 v=88
1380 On ch=1 n=c#4 v=0
1380 On ch=1 n=f5 v=88
1380 On ch=1 n=c#6 v=88
1380 On ch=1 n=f6 v=88
1384 On ch=1 n=f6 v=0
1384 On ch=1 n=c#6 v=0
1384 On ch=1 n=f5 v=0
1425 On ch=1 n=e5 v=88
1425 On ch=1 n=c6 v=88
1425 On ch=1 n=e6 v=88
1429 On ch=1 n=e6 v=0
1429 On ch=1 n=c6 v=0
1429 On ch=1 n=e5 v=0
1440 Par ch=1 c=64 v=0
1440 On ch=1 n=f5 v=104
1440 On ch=1 n=c#6 v=109
1440 On ch=1 n=f6 v=114
1560 On ch=1 n=f6 v=0
1560 On ch=1 n=c#6 v=0
1560 On ch=1 n=f5 v=0
1560 Par ch=1 c=64 v=127
1560 On ch=1 n=d#5 v=88
1560 On ch=1 n=g#5 v=88
1560 On ch=1 n=d#6 v=88
1566 On ch=1 n=d#6 v=0
1566 On ch=1 n=g#5 v=0
1566 On ch=1 n=d#5 v=0
1620 On ch=1 n=d#5 v=104
1620 On ch=1 n=c6 v=109
1620 On ch=1 n=d#6 v=114
1680 On ch=1 n=d#6 v=0
1680 On ch=1 n=c6 v=0
1680 On ch=1 n=d#5 v=0
1680 On ch=1 n=c4 v=88
1686 On ch=1 n=c4 v=0
1740 On ch=1 n=d#5 v=104
1740 On ch=1 n=c6 v=109
1740 On ch=1 n=d#6 v=114
1800 On ch=1 n=d#6 v=0
1800 On ch=1 n=c6 v=0
1800 On ch=1 n=d#5 v=0
1800 On ch=1 n=c4 v=88
1806 On ch=1 n=c4 v=0
1860 On ch=1 n=d#5 v=88
1860 On ch=1 n=c6 v=88
1860 On ch=1 n=d#6 v=88
1864 On ch=1 n=d#6 v=0
1864 On ch=1 n=c6 v=0
1864 On ch=1 n=d#5 v=0
1905 On ch=1 n=d5 v=88
1905 On ch=1 n=b5 v=88
1905 On ch=1 n=d6 v=88
1909 On ch=1 n=d6 v=0
1909 On ch=1 n=b5 v=0
1909 On ch=1 n=d5 v=0
1920 Par ch=1 c=64 v=0
1920 On ch=1 n=d#5 v=104
1920 On ch=1 n=c6 v=109
1920 On ch=1 n=d#6 v=114
2040 On ch=1 n=d#6 v=0
2040 On ch=1 n=c6 v=0
2040 On ch=1 n=d#5 v=0
2040 On ch=1 n=c#5 v=104
2040 On ch=1 n=a#5 v=109
2040 On ch=1 n=c#6 v=114
2130 On ch=1 n=c#6 v=0
2130 On ch=1 n=a#5 v=0
2130 On ch=1 n=c#5 v=0
2130 On ch=1 n=c5 v=88
2130 On ch=1 n=g#5 v=88
2130 On ch=1 n=c6 v=88
2160 On ch=1 n=c6 v=0
2160 On ch=1 n=g#5 v=0
2160 On ch=1 n=c5 v=0
2160 On ch=1 n=a#4 v=88
2160 On ch=1 n=g5 v=88
2160 On ch=1 n=a#5 v=88
2164 On ch=1 n=a#5 v=0
2164 On ch=1 n=g5 v=0
2164 On ch=1 n=a#4 v=0
2190 On ch=1 n=a4 v=88
2190 On ch=1 n=f#5 v=88
2190 On ch=1 n=a5 v=88
2194 On ch=1 n=a5 v=0
2194 On ch=1 n=f#5 v=0
2194 On ch=1 n=a4 v=0
2220 On ch=1 n=a#4 v=104
2220 On ch=1 n=g5 v=109
2220 On ch=1 n=a#5 v=114
2340 On ch=1 n=a#5 v=0
2340 On ch=1 n=g5 v=0
2340 On ch=1 n=a#4 v=0
2340 On ch=1 n=d#5 v=62
2340 On ch=1 n=g5 v=62
2340 On ch=1 n=a#5 v=62
2344 On ch=1 n=a#5 v=0
2344 On ch=1 n=g5 v=0
2344 On ch=1 n=d#5 v=0
2370 On ch=1 n=g#5 v=62
2370 On ch=1 n=c6 v=62
2374 On ch=1 n=c6 v=0
2374 On ch=1 n=g#5 v=0
2400 On ch=1 n=a#5 v=75
2400 On ch=1 n=c#6 v=75
2404 On ch=1 n=c#6 v=0
2404 On ch=1 n=a#5 v=0
2430 On ch=1 n=c6 v=75
2430 On ch=1 n=d#6 v=75
2434 On ch=1 n=d#6 v=0
2434 On ch=1 n=c6 v=0
2460 On ch=1 n=c#6 v=88
2460 On ch=1 n=f6 v=88
2464 On ch=1 n=f6 v=0
2464 On ch=1 n=c#6 v=0
2490 On ch=1 n=g5 v=88
2490 On ch=1 n=a#5 v=88
2490 On ch=1 n=g6 v=88
2494 On ch=1 n=g6 v=0
2494 On ch=1 n=a#5 v=0
2494 On ch=1 n=g5 v=0
2530 On ch=1 n=g#5 v=49
2540 On ch=1 n=c6 v=49
2550 On ch=1 n=g#6 v=49
2553 On ch=1 n=c6 v=0
2553 On ch=1 n=g#5 v=0
2554 On ch=1 n=g#6 v=0
2595 On ch=1 n=c6 v=49
2595 On ch=1 n=g#6 v=49
2610 On ch=1 n=g#6 v=0
2610 On ch=1 n=c6 v=0
2610 On ch=1 n=g#5 v=75
2670 On ch=1 n=g#5 v=0
2670 On ch=1 n=c#6 v=49
2670 On ch=1 n=f6 v=49
2674 On ch=1 n=f6 v=0
2674 On ch=1 n=c#6 v=0
2715 On ch=1 n=c#6 v=49
2715 On ch=1 n=f6 v=49
2730 On ch=1 n=f6 v=0
2730 On ch=1 n=c#6 v=0
2730 On ch=1 n=g5 v=75
2790 On ch=1 n=g5 v=0
2790 On ch=1 n=g#5 v=49
2805 On ch=1 n=g#5 v=0
2805 On ch=1 n=a#5 v=49
2820 On ch=1 n=a#5 v=0
2820 On ch=1 n=g#5 v=49
2840 On ch=1 n=g#5 v=0
2840 On ch=1 n=g5 v=49
2859 On ch=1 n=a#5 v=49
2860 On ch=1 n=g5 v=0
2879 On ch=1 n=a#5 v=0
2880 On ch=1 n=g#5 v=49
2884 On ch=1 n=g#5 v=0
2910 On ch=1 n=g5 v=49
2914 On ch=1 n=g5 v=0
2940 On ch=1 n=g#5 v=75
3060 On ch=1 n=g#5 v=0
3060 Par ch=1 c=64 v=127
3060 On ch=1 n=f6 v=101
3060 On ch=1 n=g#6 v=101
3060 On ch=1 n=f7 v=101
3066 On ch=1 n=f7 v=0
3066 On ch=1 n=g#6 v=0
3066 On ch=1 n=f6 v=0
3120 On ch=1 n=f6 v=117
3120 On ch=1 n=c#7 v=122
3120 On ch=1 n=f7 v=127
3180 On ch=1 n=f7 v=0
3180 On ch=1 n=c#7 v=0
3180 On ch=1 n=f6 v=0
3180 On ch=1 n=f4 v=101
3180 On ch=1 n=g#4 v=101
3180 On ch=1 n=c#5 v=101
3186 On ch=1 n=c#5 v=0
3186 On ch=1 n=g#4 v=0
3186 On ch=1 n=f4 v=0
3240 On ch=1 n=f6 v=117
3240 On ch=1 n=c#7 v=122
3240 On ch=1 n=f7 v=127
3300 On ch=1 n=f7 v=0
3300 On ch=1 n=c#7 v=0
3300 On ch=1 n=f6 v=0
3300 On ch=1 n=f4 v=101
3300 On ch=1 n=g#4 v=101
3300 On ch=1 n=c#5 v=101
3306 On ch=1 n=c#5 v=0
3306 On ch=1 n=g#4 v=0
3306 On ch=1 n=f4 v=0
3360 On ch=1 n=f6 v=101
3360 On ch=1 n=c#7 v=101
3360 On ch=1 n=f7 v=101
3364 On ch=1 n=f7 v=0
3364 On ch=1 n=c#7 v=0
3364 On ch=1 n=f6 v=0
3405 On ch=1 n=e6 v=101
3405 On ch=1 n=c7 v=101
3405 On ch=1 n=e7 v=101
3409 On ch=1 n=e7 v=0
3409 On ch=1 n=c7 v=0
3409 On ch=1 n=e6 v=0
3420 Par ch=1 c=64 v=0
3420 On ch=1 n=f6 v=117
3420 On ch=1 n=c#7 v=122
3420 On ch=1 n=f7 v=127
3540 On ch=1 n=f7 v=0
3540 On ch=1 n=c#7 v=0
3540 On ch=1 n=f6 v=0
3540 Par ch=1 c=64 v=127
3540 On ch=1 n=d#6 v=101
3540 On ch=1 n=f#6 v=101
3540 On ch=1 n=d#7 v=101
3546 On ch=1 n=d#7 v=0
3546 On ch=1 n=f#6 v=0
3546 On ch=1 n=d#6 v=0
3600 On ch=1 n=d#6 v=117
3600 On ch=1 n=b6 v=122
3600 On ch=1 n=d#7 v=127
3660 On ch=1 n=d#7 v=0
3660 On ch=1 n=b6 v=0
3660 On ch=1 n=d#6 v=0
3660 On ch=1 n=d#4 v=101
3660 On ch=1 n=f#4 v=101
3660 On ch=1 n=b4 v=101
3666 On ch=1 n=b4 v=0
3666 On ch=1 n=f#4 v=0
3666 On ch=1 n=d#4 v=0
3720 On ch=1 n=d#6 v=117
3720 On ch=1 n=b6 v=122
3720 On ch=1 n=d#7 v=127
3780 On ch=1 n=d#7 v=0
3780 On ch=1 n=b6 v=0
3780 On ch=1 n=d#6 v=0
3780 On ch=1 n=d#4 v=101
3780 On ch=1 n=f#4 v=101
3780 On ch=1 n=b4 v=101
3786 On ch=1 n=b4 v=0
3786 On ch=1 n=f#4 v=0
3786 On ch=1 n=d#4 v=0
3840 On ch=1 n=d#6 v=101
3840 On ch=1 n=b6 v=101
3840 On ch=1 n=d#7 v=101
3844 On ch=1 n=d#7 v=0
3844 On ch=1 n=b6 v=0
3844 On ch=1 n=d#6 v=0
3885 On ch=1 n=d6 v=101
3885 On ch=1 n=a#6 v=101
3885 On ch=1 n=d7 v=101
3889 On ch=1 n=d7 v=0
3889 On ch=1 n=a#6 v=0
3889 On ch=1 n=d6 v=0
3900 Par ch=1 c=64 v=0
3900 On ch=1 n=d#6 v=117
3900 On ch=1 n=b6 v=122
3900 On ch=1 n=d#7 v=127
4020 On ch=1 n=d#7 v=0
4020 On ch=1 n=b6 v=0
4020 On ch=1 n=d#6 v=0
4020 On ch=1 n=c#6 v=117
4020 On ch=1 n=a#6 v=122
4020 On ch=1 n=c#7 v=127
4110 On ch=1 n=c#7 v=0
4110 On ch=1 n=a#6 v=0
4110 On ch=1 n=c#6 v=0
4110 On ch=1 n=b5 v=101
4110 On ch=1 n=g#6 v=101
4110 On ch=1 n=b6 v=101
4140 On ch=1 n=b6 v=0
4140 On ch=1 n=g#6 v=0
4140 On ch=1 n=b5 v=0
4140 On ch=1 n=a#5 v=101
4140 On ch=1 n=g6 v=101
4140 On ch=1 n=a#6 v=101
4144 On ch=1 n=a#6 v=0
4144 On ch=1 n=g6 v=0
4144 On ch=1 n=a#5 v=0
4170 On ch=1 n=a5 v=101
4170 On ch=1 n=f#6 v=101
4170 On ch=1 n=a6 v=101
4174 On ch=1 n=a6 v=0
4174 On ch=1 n=f#6 v=0
4174 On ch=1 n=a5 v=0
4200 On ch=1 n=a#5 v=117
4200 On ch=1 n=g6 v=122
4200 On ch=1 n=a#6 v=127
4320 On ch=1 n=a#6 v=0
4320 On ch=1 n=g6 v=0
4320 On ch=1 n=a#5 v=0
4320 On ch=1 n=a#5 v=75
4320 On ch=1 n=g6 v=75
4320 On ch=1 n=a#6 v=75
4324 On ch=1 n=a#6 v=0
4324 On ch=1 n=g6 v=0
4324 On ch=1 n=a#5 v=0
4350 On ch=1 n=c6 v=75
4350 On ch=1 n=g#6 v=75
4350 On ch=1 n=c7 v=75
4354 On ch=1 n=c7 v=0
4354 On ch=1 n=g#6 v=0
4354 On ch=1 n=c6 v=0
4380 On ch=1 n=c#6 v=88
4380 On ch=1 n=a#6 v=88
4380 On ch=1 n=c#7 v=88
4384 On ch=1 n=c#7 v=0
4384 On ch=1 n=a#6 v=0
4384 On ch=1 n=c#6 v=0
4410 On ch=1 n=d#6 v=88
4410 On ch=1 n=c7 v=88
4410 On ch=1 n=d#7 v=88
4414 On ch=1 n=d#7 v=0
4414 On ch=1 n=c7 v=0
4414 On ch=1 n=d#6 v=0
4440 On ch=1 n=f6 v=101
4440 On ch=1 n=c#7 v=101
4440 On ch=1 n=f7 v=101
4444 On ch=1 n=f7 v=0
4444 On ch=1 n=c#7 v=0
4444 On ch=1 n=f6 v=0
4470 On ch=1 n=g6 v=101
4470 On ch=1 n=d#7 v=101
4470 On ch=1 n=g7 v=101
4474 On ch=1 n=g7 v=0
4474 On ch=1 n=d#7 v=0
4474 On ch=1 n=g6 v=0
4500 On ch=1 n=g#6 v=49
4500 On ch=1 n=c7 v=49
4500 On ch=1 n=g#7 v=49
4504 On ch=1 n=g#7 v=0
4504 On ch=1 n=c7 v=0
4504 On ch=1 n=g#6 v=0
4545 On ch=1 n=g#6 v=49
4550 On ch=1 n=g#6 v=0
4550 On ch=1 n=c7 v=49
4550 On ch=1 n=g#7 v=49
4554 On ch=1 n=g#6 v=49
4555 On ch=1 n=g#7 v=0
4555 On ch=1 n=c7 v=0
4559 On ch=1 n=g#6 v=0
4560 On ch=1 n=g#5 v=75
4620 On ch=1 n=g#5 v=0
4620 On ch=1 n=f6 v=49
4620 On ch=1 n=c#7 v=49
4620 On ch=1 n=f7 v=49
4624 On ch=1 n=f7 v=0
4624 On ch=1 n=c#7 v=0
4624 On ch=1 n=f6 v=0
4665 On ch=1 n=f6 v=49
4670 On ch=1 n=f6 v=0
4670 On ch=1 n=c#7 v=49
4670 On ch=1 n=f7 v=49
4674 On ch=1 n=f6 v=49
4675 On ch=1 n=f7 v=0
4675 On ch=1 n=c#7 v=0
4679 On ch=1 n=f6 v=0
4680 On ch=1 n=g5 v=75
4740 On ch=1 n=g5 v=0
4740 On ch=1 n=g#5 v=49
4755 On ch=1 n=g#5 v=0
4755 On ch=1 n=a#5 v=49
4770 On ch=1 n=a#5 v=0
4770 On ch=1 n=g#5 v=49
4790 On ch=1 n=g#5 v=0
4790 On ch=1 n=g5 v=49
4809 On ch=1 n=a#5 v=49
4810 On ch=1 n=g5 v=0
4829 On ch=1 n=a#5 v=0
4830 On ch=1 n=g#5 v=49
4834 On ch=1 n=g#5 v=0
4860 On ch=1 n=g5 v=49
4864 On ch=1 n=g5 v=0
4890 On ch=1 n=g#5 v=75
5010 On ch=1 n=g#5 v=0
5010 Par ch=1 c=64 v=127
5010 On ch=1 n=a#5 v=88
5010 On ch=1 n=c#6 v=88
5010 On ch=1 n=a#6 v=88
5016 On ch=1 n=a#6 v=0
5016 On ch=1 n=c#6 v=0
5016 On ch=1 n=a#5 v=0
5070 On ch=1 n=a#5 v=104
5070 On ch=1 n=f#6 v=109
5070 On ch=1 n=a#6 v=114
5130 On ch=1 n=a#6 v=0
5130 On ch=1 n=f#6 v=0
5130 On ch=1 n=a#5 v=0
5130 On ch=1 n=f#4 v=88
5136 On ch=1 n=f#4 v=0
5190 Par ch=1 c=64 v=0
5190 On ch=1 n=a#5 v=88
5190 On ch=1 n=f#6 v=88
5190 On ch=1 n=a#6 v=88
5196 On ch=1 n=a#6 v=0
5196 On ch=1 n=f#6 v=0
5196 On ch=1 n=a#5 v=0
5250 On ch=1 n=c#6 v=88
5250 On ch=1 n=a#6 v=88
5250 On ch=1 n=c#7 v=88
5310 On ch=1 n=c#7 v=0
5310 On ch=1 n=a#6 v=0
5310 On ch=1 n=c#6 v=0
5310 On ch=1 n=c6 v=88
5310 On ch=1 n=g#6 v=88
5310 On ch=1 n=c7 v=88
5355 On ch=1 n=c7 v=0
5355 On ch=1 n=g#6 v=0
5355 On ch=1 n=c6 v=0
5355 On ch=1 n=a#5 v=88
5355 On ch=1 n=f#6 v=88
5355 On ch=1 n=a#6 v=88
5370 On ch=1 n=a#6 v=0
5370 On ch=1 n=f#6 v=0
5370 On ch=1 n=a#5 v=0
5370 On ch=1 n=a#5 v=88
5370 On ch=1 n=f#6 v=88
5370 On ch=1 n=a#6 v=88
5490 On ch=1 n=a#6 v=0
5490 On ch=1 n=f#6 v=0
5490 On ch=1 n=a#5 v=0
5520 On ch=1 n=a5 v=91
5520 On ch=1 n=f6 v=96
5520 On ch=1 n=a6 v=101
5685 On ch=1 n=a6 v=0
5685 On ch=1 n=f6 v=0
5685 On ch=1 n=a5 v=0
5685 On ch=1 n=a#5 v=75
5685 On ch=1 n=d6 v=75
5685 On ch=1 n=a#6 v=75
5700 On ch=1 n=a#6 v=0
5700 On ch=1 n=d6 v=0
5700 On ch=1 n=a#5 v=0
5700 On ch=1 n=a#5 v=91
5700 On ch=1 n=d6 v=96
5700 On ch=1 n=a#6 v=101
5745 On ch=1 n=a#6 v=0
5745 On ch=1 n=d6 v=0
5745 On ch=1 n=a#5 v=0
5745 On ch=1 n=a5 v=75
5745 On ch=1 n=c6 v=75
5745 On ch=1 n=a6 v=75
5760 On ch=1 n=a6 v=0
5760 On ch=1 n=c6 v=0
5760 On ch=1 n=a5 v=0
5760 On ch=1 n=a5 v=91
5760 On ch=1 n=c6 v=96
5760 On ch=1 n=a6 v=101
5805 On ch=1 n=a6 v=0
5805 On ch=1 n=c6 v=0
5805 On ch=1 n=a5 v=0
5805 On ch=1 n=g5 v=75
5805 On ch=1 n=c6 v=75
5805 On ch=1 n=g6 v=75
5820 On ch=1 n=g6 v=0
5820 On ch=1 n=c6 v=0
5820 On ch=1 n=g5 v=0
5820 On ch=1 n=g5 v=91
5820 On ch=1 n=c6 v=96
5820 On ch=1 n=g6 v=101
5865 On ch=1 n=g6 v=0
5865 On ch=1 n=c6 v=0
5865 On ch=1 n=g5 v=0
5865 On ch=1 n=f5 v=75
5865 On ch=1 n=c6 v=75
5865 On ch=1 n=f6 v=75
5880 On ch=1 n=f6 v=0
5880 On ch=1 n=c6 v=0
5880 On ch=1 n=f5 v=0
5880 On ch=1 n=f5 v=75
5880 On ch=1 n=c6 v=75
5880 On ch=1 n=f6 v=75
6000 On ch=1 n=f6 v=0
6000 On ch=1 n=c6 v=0
6000 On ch=1 n=f5 v=0
6000 On ch=1 n=f#5 v=104
6000 On ch=1 n=d#6 v=109
6000 On ch=1 n=f#6 v=114
6090 On ch=1 n=f#6 v=0
6090 On ch=1 n=d#6 v=0
6090 On ch=1 n=f#5 v=0
6090 On ch=1 n=f5 v=88
6090 On ch=1 n=c#6 v=88
6090 On ch=1 n=f6 v=88
6120 On ch=1 n=f6 v=0
6120 On ch=1 n=c#6 v=0
6120 On ch=1 n=f5 v=0
6120 On ch=1 n=d#5 v=88
6120 On ch=1 n=c6 v=88
6120 On ch=1 n=d#6 v=88
6165 On ch=1 n=d#6 v=0
6165 On ch=1 n=c6 v=0
6165 On ch=1 n=d#5 v=0
6165 On ch=1 n=d5 v=88
6165 On ch=1 n=b5 v=88
6165 On ch=1 n=d6 v=88
6180 On ch=1 n=d6 v=0
6180 On ch=1 n=b5 v=0
6180 On ch=1 n=d5 v=0
6180 On ch=1 n=d#5 v=88
6180 On ch=1 n=c6 v=88
6180 On ch=1 n=d#6 v=88
6300 On ch=1 n=d#6 v=0
6300 On ch=1 n=c6 v=0
6300 On ch=1 n=d#5 v=0
6300 On ch=1 n=d#5 v=62
6300 On ch=1 n=c6 v=62
6300 On ch=1 n=d#6 v=62
6304 On ch=1 n=d#6 v=0
6304 On ch=1 n=c6 v=0
6304 On ch=1 n=d#5 v=0
6330 On ch=1 n=f5 v=62
6330 On ch=1 n=c#6 v=62
6330 On ch=1 n=f6 v=62
6334 On ch=1 n=f6 v=0
6334 On ch=1 n=c#6 v=0
6334 On ch=1 n=f5 v=0
6360 On ch=1 n=f#5 v=75
6360 On ch=1 n=d#6 v=75
6360 On ch=1 n=f#6 v=75
6364 On ch=1 n=f#6 v=0
6364 On ch=1 n=d#6 v=0
6364 On ch=1 n=f#5 v=0
6390 On ch=1 n=g#5 v=75
6390 On ch=1 n=f6 v=75
6390 On ch=1 n=g#6 v=75
6394 On ch=1 n=g#6 v=0
6394 On ch=1 n=f6 v=0
6394 On ch=1 n=g#5 v=0
6420 On ch=1 n=a#5 v=88
6420 On ch=1 n=f#6 v=88
6420 On ch=1 n=a#6 v=88
6424 On ch=1 n=a#6 v=0
6424 On ch=1 n=f#6 v=0
6424 On ch=1 n=a#5 v=0
6450 On ch=1 n=c6 v=88
6450 On ch=1 n=d#6 v=88
6450 On ch=1 n=c7 v=88
6454 On ch=1 n=c7 v=0
6454 On ch=1 n=d#6 v=0
6454 On ch=1 n=c6 v=0
6490 On ch=1 n=c#6 v=49
6500 On ch=1 n=f6 v=49
6510 On ch=1 n=c#7 v=49
6540 On ch=1 n=c#7 v=0
6540 On ch=1 n=f6 v=0
6540 On ch=1 n=c#6 v=0
6555 On ch=1 n=f6 v=49
6555 On ch=1 n=c#7 v=49
6570 On ch=1 n=c#7 v=0
6570 On ch=1 n=f6 v=0
6570 On ch=1 n=c#6 v=75
6630 On ch=1 n=c#6 v=0
6630 On ch=1 n=f#6 v=49
6630 On ch=1 n=a#6 v=49
6660 On ch=1 n=a#6 v=0
6660 On ch=1 n=f#6 v=0
6675 On ch=1 n=f#6 v=49
6675 On ch=1 n=a#6 v=49
6690 On ch=1 n=a#6 v=0
6690 On ch=1 n=f#6 v=0
6690 On ch=1 n=c6 v=75
6720 On ch=1 n=c#6 v=49
6735 On ch=1 n=c#6 v=0
6735 On ch=1 n=d#6 v=49
6750 On ch=1 n=d#6 v=0
6750 On ch=1 n=c6 v=0
6750 On ch=1 n=c#6 v=49
6770 On ch=1 n=c#6 v=0
6770 On ch=1 n=c6 v=49
6789 On ch=1 n=d#6 v=49
6790 On ch=1 n=c6 v=0
6809 On ch=1 n=d#6 v=0
6810 On ch=1 n=c#6 v=49
6814 On ch=1 n=c#6 v=0
6840 On ch=1 n=c6 v=49
6844 On ch=1 n=c6 v=0
6870 On ch=1 n=f5 v=67
6870 On ch=1 n=c#6 v=75
6990 On ch=1 n=c#6 v=0
6990 On ch=1 n=f5 v=0
6990 Par ch=1 c=64 v=127
6990 On ch=1 n=a#5 v=101
6990 On ch=1 n=c#6 v=101
6990 On ch=1 n=a#6 v=101
6996 On ch=1 n=a#6 v=0
6996 On ch=1 n=c#6 v=0
6996 On ch=1 n=a#5 v=0
7050 On ch=1 n=a#5 v=117
7050 On ch=1 n=f#6 v=122
7050 On ch=1 n=a#6 v=127
7110 On ch=1 n=a#6 v=0
7110 On ch=1 n=f#6 v=0
7110 On ch=1 n=a#5 v=0
7110 On ch=1 n=f#4 v=101
7116 On ch=1 n=f#4 v=0
7170 Par ch=1 c=64 v=0
7170 On ch=1 n=a#5 v=101
7170 On ch=1 n=f#6 v=101
7170 On ch=1 n=a#6 v=101
7176 On ch=1 n=a#6 v=0
7176 On ch=1 n=f#6 v=0
7176 On ch=1 n=a#5 v=0
7230 On ch=1 n=c#6 v=101
7230 On ch=1 n=a#6 v=101
7230 On ch=1 n=c#7 v=101
7290 On ch=1 n=c#7 v=0
7290 On ch=1 n=a#6 v=0
7290 On ch=1 n=c#6 v=0
7290 On ch=1 n=c6 v=101
7290 On ch=1 n=g#6 v=101
7290 On ch=1 n=c7 v=101
7335 On ch=1 n=c7 v=0
7335 On ch=1 n=g#6 v=0
7335 On ch=1 n=c6 v=0
7335 On ch=1 n=a#5 v=101
7335 On ch=1 n=f#6 v=101
7335 On ch=1 n=a#6 v=101
7350 On ch=1 n=a#6 v=0
7350 On ch=1 n=f#6 v=0
7350 On ch=1 n=a#5 v=0
7350 On ch=1 n=a#5 v=101
7350 On ch=1 n=f#6 v=101
7350 On ch=1 n=a#6 v=101
7470 On ch=1 n=a#6 v=0
7470 On ch=1 n=f#6 v=0
7470 On ch=1 n=a#5 v=0
7500 On ch=1 n=a5 v=104
7500 On ch=1 n=f6 v=109
7500 On ch=1 n=a6 v=114
7590 On ch=1 n=a6 v=0
7590 On ch=1 n=f6 v=0
7590 On ch=1 n=a5 v=0
7590 On ch=1 n=g#5 v=88
7590 On ch=1 n=e6 v=88
7590 On ch=1 n=g#6 v=88
7620 On ch=1 n=g#6 v=0
7620 On ch=1 n=e6 v=0
7620 On ch=1 n=g#5 v=0
7620 On ch=1 n=a5 v=88
7620 On ch=1 n=f6 v=88
7620 On ch=1 n=a6 v=88
7665 On ch=1 n=a6 v=0
7665 On ch=1 n=f6 v=0
7665 On ch=1 n=a5 v=0
7665 On ch=1 n=a#5 v=88
7665 On ch=1 n=d6 v=88
7665 On ch=1 n=a#6 v=88
7680 On ch=1 n=a#6 v=0
7680 On ch=1 n=d6 v=0
7680 On ch=1 n=a#5 v=0
7680 On ch=1 n=c6 v=88
7680 On ch=1 n=e6 v=88
7680 On ch=1 n=c7 v=88
7725 On ch=1 n=c7 v=0
7725 On ch=1 n=e6 v=0
7725 On ch=1 n=c6 v=0
7725 On ch=1 n=a#5 v=88
7725 On ch=1 n=d6 v=88
7725 On ch=1 n=a#6 v=88
7740 On ch=1 n=a#6 v=0
7740 On ch=1 n=d6 v=0
7740 On ch=1 n=a#5 v=0
7740 On ch=1 n=a5 v=88
7740 On ch=1 n=c6 v=88
7740 On ch=1 n=a6 v=88
7785 On ch=1 n=a6 v=0
7785 On ch=1 n=c6 v=0
7785 On ch=1 n=a5 v=0
7785 On ch=1 n=a#5 v=88
7785 On ch=1 n=d6 v=88
7785 On ch=1 n=a#6 v=88
7800 On ch=1 n=a#6 v=0
7800 On ch=1 n=d6 v=0
7800 On ch=1 n=a#5 v=0
7800 On ch=1 n=a5 v=88
7800 On ch=1 n=c6 v=88
7800 On ch=1 n=a6 v=88
7845 On ch=1 n=a6 v=0
7845 On ch=1 n=c6 v=0
7845 On ch=1 n=a5 v=0
7845 On ch=1 n=g5 v=88
7845 On ch=1 n=g6 v=88
7860 On ch=1 n=g6 v=0
7860 On ch=1 n=g5 v=0
7860 On ch=1 n=f5 v=88
7860 On ch=1 n=c6 v=88
7860 On ch=1 n=f6 v=88
7980 On ch=1 n=f6 v=0
7980 On ch=1 n=c6 v=0
7980 On ch=1 n=f5 v=0
7980 On ch=1 n=f#5 v=104
7980 On ch=1 n=d#6 v=109
7980 On ch=1 n=f#6 v=114
8070 On ch=1 n=f#6 v=0
8070 On ch=1 n=d#6 v=0
8070 On ch=1 n=f#5 v=0
8070 On ch=1 n=f5 v=88
8070 On ch=1 n=c#6 v=88
8070 On ch=1 n=f6 v=88
8100 On ch=1 n=f6 v=0
8100 On ch=1 n=c#6 v=0
8100 On ch=1 n=f5 v=0
8100 On ch=1 n=d#5 v=88
8100 On ch=1 n=c6 v=88
8100 On ch=1 n=d#6 v=88
8145 On ch=1 n=d#6 v=0
8145 On ch=1 n=c6 v=0
8145 On ch=1 n=d#5 v=0
8145 On ch=1 n=d5 v=88
8145 On ch=1 n=b5 v=88
8145 On ch=1 n=d6 v=88
8160 On ch=1 n=d6 v=0
8160 On ch=1 n=b5 v=0
8160 On ch=1 n=d5 v=0
8160 On ch=1 n=d#5 v=88
8160 On ch=1 n=c6 v=88
8160 On ch=1 n=d#6 v=88
8280 On ch=1 n=d#6 v=0
8280 On ch=1 n=c6 v=0
8280 On ch=1 n=d#5 v=0
8280 On ch=1 n=d#5 v=62
8280 On ch=1 n=c6 v=62
8280 On ch=1 n=d#6 v=62
8284 On ch=1 n=d#6 v=0
8284 On ch=1 n=c6 v=0
8284 On ch=1 n=d#5 v=0
8310 On ch=1 n=f5 v=62
8310 On ch=1 n=c#6 v=62
8310 On ch=1 n=f6 v=62
8314 On ch=1 n=f6 v=0
8314 On ch=1 n=c#6 v=0
8314 On ch=1 n=f5 v=0
8340 On ch=1 n=f#5 v=75
8340 On ch=1 n=d#6 v=75
8340 On ch=1 n=f#6 v=75
8344 On ch=1 n=f#6 v=0
8344 On ch=1 n=d#6 v=0
8344 On ch=1 n=f#5 v=0
8370 On ch=1 n=g#5 v=75
8370 On ch=1 n=f6 v=75
8370 On ch=1 n=g#6 v=75
8374 On ch=1 n=g#6 v=0
8374 On ch=1 n=f6 v=0
8374 On ch=1 n=g#5 v=0
8400 On ch=1 n=a#5 v=88
8400 On ch=1 n=f#6 v=88
8400 On ch=1 n=a#6 v=88
8404 On ch=1 n=a#6 v=0
8404 On ch=1 n=f#6 v=0
8404 On ch=1 n=a#5 v=0
8430 On ch=1 n=c6 v=88
8430 On ch=1 n=d#6 v=88
8430 On ch=1 n=c7 v=88
8434 On ch=1 n=c7 v=0
8434 On ch=1 n=d#6 v=0
8434 On ch=1 n=c6 v=0
8470 On ch=1 n=c#6 v=49
8480 On ch=1 n=f6 v=49
8490 On ch=1 n=c#7 v=49
8493 On ch=1 n=f6 v=0
8493 On ch=1 n=c#6 v=0
8494 On ch=1 n=c#7 v=0
8535 On ch=1 n=f6 v=49
8535 On ch=1 n=c#7 v=49
8550 On ch=1 n=c#7 v=0
8550 On ch=1 n=f6 v=0
8550 On ch=1 n=c#6 v=75
8610 On ch=1 n=c#6 v=0
8610 On ch=1 n=f#6 v=49
8610 On ch=1 n=a#6 v=49
8614 On ch=1 n=a#6 v=0
8614 On ch=1 n=f#6 v=0
8655 On ch=1 n=f#6 v=49
8655 On ch=1 n=a#6 v=49
8670 On ch=1 n=a#6 v=0
8670 On ch=1 n=f#6 v=0
8670 On ch=1 n=c6 v=75
8715 On ch=1 n=g#6 v=49
8730 On ch=1 n=g#6 v=0
8730 On ch=1 n=c6 v=0
8730 On ch=1 n=c#7 v=49
8745 On ch=1 n=c#7 v=0
8745 On ch=1 n=f7 v=49
8760 On ch=1 n=f7 v=0
8760 On ch=1 n=c#8 v=49
8764 On ch=1 n=c#8 v=0
8805 On ch=1 n=f7 v=49
8805 On ch=1 n=c#8 v=49
8820 On ch=1 n=c#8 v=0
8820 On ch=1 n=f7 v=0
8820 On ch=1 n=c#7 v=75
8880 On ch=1 n=c#7 v=0
8880 On ch=1 n=f#6 v=49
8895 On ch=1 n=f#6 v=0
8895 On ch=1 n=c7 v=49
8910 On ch=1 n=c7 v=0
8910 On ch=1 n=f#7 v=49
8910 On ch=1 n=a#7 v=49
8914 On ch=1 n=a#7 v=0
8914 On ch=1 n=f#7 v=0
8955 On ch=1 n=f#7 v=49
8955 On ch=1 n=a#7 v=49
8970 On ch=1 n=a#7 v=0
8970 On ch=1 n=f#7 v=0
8970 On ch=1 n=c7 v=75
9030 On ch=1 n=c7 v=0
9030 On ch=1 n=c#7 v=49
9045 On ch=1 n=c#7 v=0
9045 On ch=1 n=g#7 v=49
9060 On ch=1 n=g#7 v=0
9060 On ch=1 n=c#8 v=49
9060 On ch=1 n=f8 v=49
9064 On ch=1 n=f8 v=0
9064 On ch=1 n=c#8 v=0
9105 On ch=1 n=c#8 v=49
9105 On ch=1 n=f8 v=49
9120 On ch=1 n=f8 v=0
9120 On ch=1 n=c#8 v=0
9120 On ch=1 n=c#7 v=75
9180 On ch=1 n=c#7 v=0
9180 On ch=1 n=f#6 v=49
9195 On ch=1 n=f#6 v=0
9195 On ch=1 n=c7 v=49
9210 On ch=1 n=c7 v=0
9210 On ch=1 n=f#7 v=49
9210 On ch=1 n=a#7 v=49
9214 On ch=1 n=a#7 v=0
9214 On ch=1 n=f#7 v=0
9255 On ch=1 n=f#7 v=49
9255 On ch=1 n=a#7 v=49
9270 On ch=1 n=a#7 v=0
9270 On ch=1 n=f#7 v=0
9270 On ch=1 n=c7 v=75
9330 On ch=1 n=c7 v=0
9330 On ch=1 n=c#7 v=49
9341 On ch=1 n=d#7 v=49
9342 On ch=1 n=c#7 v=0
9353 On ch=1 n=d#7 v=0
9354 On ch=1 n=c#7 v=49
9365 On ch=1 n=c7 v=49
9366 On ch=1 n=c#7 v=0
9377 On ch=1 n=c7 v=0
9378 On ch=1 n=d#7 v=49
9390 On ch=1 n=d#7 v=0
9390 On ch=1 n=c#7 v=49
9394 On ch=1 n=c#7 v=0
9435 On ch=1 n=c7 v=49
9450 On ch=1 n=c7 v=0
9450 On ch=1 n=c#7 v=49
9461 On ch=1 n=d#7 v=49
9462 On ch=1 n=c#7 v=0
9473 On ch=1 n=d#7 v=0
9474 On ch=1 n=c#7 v=49
9485 On ch=1 n=c7 v=49
9486 On ch=1 n=c#7 v=0
9497 On ch=1 n=c7 v=0
9498 On ch=1 n=d#7 v=49
9510 On ch=1 n=d#7 v=0
9510 On ch=1 n=c#7 v=49
9514 On ch=1 n=c#7 v=0
9555 On ch=1 n=c7 v=49
9570 On ch=1 n=c7 v=0
9570 On ch=1 n=c#7 v=49
9581 On ch=1 n=d#7 v=49
9582 On ch=1 n=c#7 v=0
9593 On ch=1 n=d#7 v=0
9594 On ch=1 n=c#7 v=49
9605 On ch=1 n=c7 v=49
9606 On ch=1 n=c#7 v=0
9617 On ch=1 n=c7 v=0
9618 On ch=1 n=d#7 v=49
9630 On ch=1 n=d#7 v=0
9630 On ch=1 n=c#7 v=49
9634 On ch=1 n=c#7 v=0
9675 On ch=1 n=c7 v=49
9690 On ch=1 n=c7 v=0
9690 On ch=1 n=c#7 v=49
9701 On ch=1 n=d#7 v=49
9702 On ch=1 n=c#7 v=0
9713 On ch=1 n=d#7 v=0
9714 On ch=1 n=c#7 v=49
9725 On ch=1 n=c7 v=49
9726 On ch=1 n=c#7 v=0
9737 On ch=1 n=c7 v=0
9738 On ch=1 n=d#7 v=49
9750 On ch=1 n=d#7 v=0
9750 On ch=1 n=c#7 v=49
9754 On ch=1 n=c#7 v=0
9795 On ch=1 n=c7 v=49
9810 On ch=1 n=c7 v=0
9810 Par ch=1 c=64 v=127
9810 On ch=1 n=c#7 v=49
9819 On ch=1 n=d#7 v=49
9820 On ch=1 n=c#7 v=0
9829 On ch=1 n=d#7 v=0
9830 On ch=1 n=c#7 v=49
9840 On ch=1 n=c#7 v=0
9840 On ch=1 n=d#7 v=49
9849 On ch=1 n=c#7 v=49
9850 On ch=1 n=d#7 v=0
9859 On ch=1 n=c#7 v=0
9860 On ch=1 n=d#7 v=49
9870 On ch=1 n=d#7 v=0
9870 On ch=1 n=c#7 v=49
9879 On ch=1 n=d#7 v=49
9880 On ch=1 n=c#7 v=0
9889 On ch=1 n=d#7 v=0
9890 On ch=1 n=c#7 v=49
9900 On ch=1 n=c#7 v=0
9900 On ch=1 n=d#7 v=49
9909 On ch=1 n=c#7 v=49
9910 On ch=1 n=d#7 v=0
9919 On ch=1 n=c#7 v=0
9920 On ch=1 n=d#7 v=49
9930 On ch=1 n=d#7 v=0
9930 On ch=1 n=c#7 v=49
9939 On ch=1 n=d#7 v=49
9940 On ch=1 n=c#7 v=0
9949 On ch=1 n=d#7 v=0
9950 On ch=1 n=c#7 v=49
9960 On ch=1 n=c#7 v=0
9960 On ch=1 n=d#7 v=49
9969 On ch=1 n=c7 v=49
9970 On ch=1 n=d#7 v=0
9979 On ch=1 n=c7 v=0
9980 On ch=1 n=c#7 v=49
9990 On ch=1 n=c#7 v=0
9990 On ch=1 n=d#7 v=49
9999 On ch=1 n=c#7 v=49
10000 On ch=1 n=d#7 v=0
10009 On ch=1 n=c#7 v=0
10010 On ch=1 n=f#7 v=49
10020 On ch=1 n=f#7 v=0
10020 On ch=1 n=d#7 v=49
10029 On ch=1 n=g#7 v=49
10030 On ch=1 n=d#7 v=0
10039 On ch=1 n=g#7 v=0
10040 On ch=1 n=f#7 v=49
10050 On ch=1 n=f#7 v=0
10050 On ch=1 n=a#7 v=49
10059 On ch=1 n=g#7 v=49
10060 On ch=1 n=a#7 v=0
10069 On ch=1 n=g#7 v=0
10070 On ch=1 n=c#8 v=49
10080 On ch=1 n=c#8 v=0
10080 On ch=1 n=a#7 v=49
10089 On ch=1 n=d#8 v=49
10090 On ch=1 n=a#7 v=0
10099 On ch=1 n=d#8 v=0
10100 On ch=1 n=c#8 v=49
10110 On ch=1 n=c#8 v=0
10110 On ch=1 n=f#8 v=49
10119 On ch=1 n=c#8 v=49
10120 On ch=1 n=f#8 v=0
10129 On ch=1 n=c#8 v=0
10130 On ch=1 n=d#8 v=49
10140 On ch=1 n=d#8 v=0
10140 On ch=1 n=a#7 v=49
10149 On ch=1 n=c#8 v=49
10150 On ch=1 n=a#7 v=0
10159 On ch=1 n=c#8 v=0
10160 On ch=1 n=g#7 v=49
10170 On ch=1 n=g#7 v=0
10170 On ch=1 n=a#7 v=49
10179 On ch=1 n=f#7 v=49
10180 On ch=1 n=a#7 v=0
10189 On ch=1 n=f#7 v=0
10190 On ch=1 n=g#7 v=49
10200 On ch=1 n=g#7 v=0
10200 On ch=1 n=d#7 v=49
10209 On ch=1 n=f#7 v=49
10210 On ch=1 n=d#7 v=0
10219 On ch=1 n=f#7 v=0
10220 On ch=1 n=c#7 v=49
10230 On ch=1 n=c#7 v=0
10230 On ch=1 n=d#7 v=49
10239 On ch=1 n=a#6 v=49
10240 On ch=1 n=d#7 v=0
10249 On ch=1 n=a#6 v=0
10250 On ch=1 n=c#7 v=49
10260 On ch=1 n=c#7 v=0
10260 On ch=1 n=g#6 v=49
10269 On ch=1 n=a#6 v=49
10270 On ch=1 n=g#6 v=0
10279 On ch=1 n=a#6 v=0
10280 On ch=1 n=f#6 v=49
10290 On ch=1 n=f#6 v=0
10290 On ch=1 n=g#6 v=62
10299 On ch=1 n=d#6 v=62
10300 On ch=1 n=g#6 v=0
10309 On ch=1 n=d#6 v=0
10310 On ch=1 n=f#6 v=62
10320 On ch=1 n=f#6 v=0
10320 On ch=1 n=c#6 v=62
10329 On ch=1 n=d#6 v=62
10330 On ch=1 n=c#6 v=0
10339 On ch=1 n=d#6 v=0
10340 On ch=1 n=a#5 v=62
10350 On ch=1 n=a#5 v=0
10350 On ch=1 n=c#6 v=75
10359 On ch=1 n=g#5 v=75
10360 On ch=1 n=c#6 v=0
10369 On ch=1 n=g#5 v=0
10370 On ch=1 n=a#5 v=75
10380 On ch=1 n=a#5 v=0
10380 On ch=1 n=f#5 v=75
10389 On ch=1 n=g#5 v=75
10390 On ch=1 n=f#5 v=0
10399 On ch=1 n=g#5 v=0
10400 On ch=1 n=d#5 v=75
10410 On ch=1 n=d#5 v=0
10650 Par ch=1 c=64 v=0
10770 Par ch=1 c=64 v=127
10770 On ch=1 n=f4 v=75
10779 On ch=1 n=g#4 v=75
10780 On ch=1 n=f4 v=0
10789 On ch=1 n=g#4 v=0
10790 On ch=1 n=c#5 v=75
10800 On ch=1 n=c#5 v=0
10800 On ch=1 n=d#5 v=75
10809 On ch=1 n=f5 v=75
10810 On ch=1 n=d#5 v=0
10819 On ch=1 n=f5 v=0
10820 On ch=1 n=g#5 v=75
10830 On ch=1 n=g#5 v=0
10830 On ch=1 n=c#6 v=75
10839 On ch=1 n=d#6 v=75
10840 On ch=1 n=c#6 v=0
10849 On ch=1 n=d#6 v=0
10850 On ch=1 n=f6 v=75
10860 On ch=1 n=f6 v=0
10860 On ch=1 n=g#6 v=75
10869 On ch=1 n=c#7 v=75
10870 On ch=1 n=g#6 v=0
10879 On ch=1 n=c#7 v=0
10880 On ch=1 n=d#7 v=75
10890 On ch=1 n=d#7 v=0
10890 On ch=1 n=f7 v=114
10899 On ch=1 n=g#7 v=114
10900 On ch=1 n=f7 v=0
10909 On ch=1 n=g#7 v=0
10910 On ch=1 n=c#8 v=114
10920 On ch=1 n=c#8 v=0
10920 On ch=1 n=d#8 v=114
10930 On ch=1 n=c#7 v=114
10940 On ch=1 n=g#7 v=114
10950 On ch=1 n=d#8 v=0
10950 On ch=1 n=f8 v=114
10956 On ch=1 n=f8 v=0
10956 On ch=1 n=g#7 v=0
10956 On ch=1 n=c#7 v=0
11070 Par ch=1 c=64 v=0
11130 On ch=1 n=f4 v=49
11130 On ch=1 n=c#5 v=49
11142 On ch=1 n=c#5 v=0
11142 On ch=1 n=f4 v=0
11250 On ch=1 n=g#4 v=49
11250 On ch=1 n=c#5 v=49
11256 On ch=1 n=c#5 v=0
11256 On ch=1 n=g#4 v=0
11310 On ch=1 n=c#5 v=49
11310 On ch=1 n=f5 v=49
11316 On ch=1 n=f5 v=0
11316 On ch=1 n=c#5 v=0
11370 On ch=1 n=d#5 v=49
11370 On ch=1 n=f#5 v=49
11382 On ch=1 n=f#5 v=0
11382 On ch=1 n=d#5 v=0
11490 On ch=1 n=c#5 v=49
11490 On ch=1 n=f5 v=49
11502 On ch=1 n=f5 v=0
11502 On ch=1 n=c#5 v=0
11610 On ch=1 n=g#4 v=49
11610 On ch=1 n=d#5 v=49
11616 On ch=1 n=d#5 v=0
11616 On ch=1 n=g#4 v=0
11670 On ch=1 n=g#4 v=49
11670 On ch=1 n=c5 v=49
11676 On ch=1 n=c5 v=0
11676 On ch=1 n=g#4 v=0
11730 On ch=1 n=g#4 v=49
11730 On ch=1 n=c#5 v=49
11742 On ch=1 n=c#5 v=0
11742 On ch=1 n=g#4 v=0
11910 On ch=1 n=f4 v=106
11910 On ch=1 n=c#5 v=114
12030 On ch=1 n=c#5 v=0
12030 On ch=1 n=f4 v=0
12030 On ch=1 n=f4 v=88
12030 On ch=1 n=c#5 v=88
12036 On ch=1 n=c#5 v=0
12036 On ch=1 n=f4 v=0
12090 On ch=1 n=g#4 v=49
12090 On ch=1 n=c5 v=49
12090 On ch=1 n=g#5 v=49
12102 On ch=1 n=g#5 v=0
12102 On ch=1 n=c5 v=0
12102 On ch=1 n=g#4 v=0
12210 On ch=1 n=c5 v=49
12210 On ch=1 n=g#5 v=49
12216 On ch=1 n=g#5 v=0
12216 On ch=1 n=c5 v=0
12270 On ch=1 n=d#5 v=49
12270 On ch=1 n=c6 v=49
12276 On ch=1 n=c6 v=0
12276 On ch=1 n=d#5 v=0
12330 On ch=1 n=d#5 v=49
12330 On ch=1 n=c#6 v=49
12342 On ch=1 n=c#6 v=0
12342 On ch=1 n=d#5 v=0
12450 On ch=1 n=d#5 v=49
12450 On ch=1 n=c6 v=49
12462 On ch=1 n=c6 v=0
12462 On ch=1 n=d#5 v=0
12570 On ch=1 n=d#5 v=49
12570 On ch=1 n=a#5 v=49
12576 On ch=1 n=a#5 v=0
12576 On ch=1 n=d#5 v=0
12630 On ch=1 n=d#5 v=49
12630 On ch=1 n=g5 v=49
12636 On ch=1 n=g5 v=0
12636 On ch=1 n=d#5 v=0
12690 On ch=1 n=d#5 v=49
12690 On ch=1 n=g#5 v=49
12702 On ch=1 n=g#5 v=0
12702 On ch=1 n=d#5 v=0
12870 On ch=1 n=c5 v=106
12870 On ch=1 n=g#5 v=114
12990 On ch=1 n=g#5 v=0
12990 On ch=1 n=c5 v=0
12990 On ch=1 n=c5 v=88
12990 On ch=1 n=g#5 v=88
12996 On ch=1 n=g#5 v=0
12996 On ch=1 n=c5 v=0
13050 On ch=1 n=c#5 v=49
13050 On ch=1 n=f5 v=49
13050 On ch=1 n=c#6 v=49
13062 On ch=1 n=c#6 v=0
13062 On ch=1 n=f5 v=0
13062 On ch=1 n=c#5 v=0
13170 On ch=1 n=c#5 v=49
13170 On ch=1 n=g#5 v=49
13170 On ch=1 n=c#6 v=49
13176 On ch=1 n=c#6 v=0
13176 On ch=1 n=g#5 v=0
13176 On ch=1 n=c#5 v=0
13230 On ch=1 n=f5 v=49
13230 On ch=1 n=g#5 v=49
13230 On ch=1 n=f6 v=49
13236 On ch=1 n=f6 v=0
13236 On ch=1 n=g#5 v=0
13236 On ch=1 n=f5 v=0
13290 On ch=1 n=f#5 v=49
13290 On ch=1 n=g#5 v=49
13290 On ch=1 n=f#6 v=49
13302 On ch=1 n=f#6 v=0
13302 On ch=1 n=g#5 v=0
13302 On ch=1 n=f#5 v=0
13410 On ch=1 n=f5 v=49
13410 On ch=1 n=g#5 v=49
13410 On ch=1 n=f6 v=49
13422 On ch=1 n=f6 v=0
13422 On ch=1 n=g#5 v=0
13422 On ch=1 n=f5 v=0
13530 On ch=1 n=d#5 v=49
13530 On ch=1 n=g#5 v=49
13530 On ch=1 n=d#6 v=49
13536 On ch=1 n=d#6 v=0
13536 On ch=1 n=g#5 v=0
13536 On ch=1 n=d#5 v=0
13590 On ch=1 n=c5 v=49
13590 On ch=1 n=g#5 v=49
13590 On ch=1 n=c6 v=49
13596 On ch=1 n=c6 v=0
13596 On ch=1 n=g#5 v=0
13596 On ch=1 n=c5 v=0
13650 On ch=1 n=c#5 v=49
13650 On ch=1 n=g#5 v=49
13650 On ch=1 n=c#6 v=49
13662 On ch=1 n=c#6 v=0
13662 On ch=1 n=g#5 v=0
13662 On ch=1 n=c#5 v=0
13830 On ch=1 n=c#5 v=104
13830 On ch=1 n=f5 v=109
13830 On ch=1 n=c#6 v=114
13950 On ch=1 n=c#6 v=0
13950 On ch=1 n=f5 v=0
13950 On ch=1 n=c#5 v=0
13950 On ch=1 n=c#5 v=88
13950 On ch=1 n=f5 v=88
13950 On ch=1 n=c#6 v=88
13956 On ch=1 n=c#6 v=0
13956 On ch=1 n=f5 v=0
13956 On ch=1 n=c#5 v=0
14010 On ch=1 n=g#5 v=49
14010 On ch=1 n=c6 v=49
14010 On ch=1 n=g#6 v=49
14022 On ch=1 n=g#6 v=0
14022 On ch=1 n=c6 v=0
14022 On ch=1 n=g#5 v=0
14130 On ch=1 n=g#5 v=49
14130 On ch=1 n=d#6 v=49
14130 On ch=1 n=g#6 v=49
14136 On ch=1 n=g#6 v=0
14136 On ch=1 n=d#6 v=0
14136 On ch=1 n=g#5 v=0
14190 On ch=1 n=c6 v=49
14190 On ch=1 n=d#6 v=49
14190 On ch=1 n=c7 v=49
14196 On ch=1 n=c7 v=0
14196 On ch=1 n=d#6 v=0
14196 On ch=1 n=c6 v=0
14250 On ch=1 n=c#6 v=49
14250 On ch=1 n=d#6 v=49
14250 On ch=1 n=c#7 v=49
14262 On ch=1 n=c#7 v=0
14262 On ch=1 n=d#6 v=0
14262 On ch=1 n=c#6 v=0
14370 On ch=1 n=c6 v=49
14370 On ch=1 n=d#6 v=49
14370 On ch=1 n=c7 v=49
14382 On ch=1 n=c7 v=0
14382 On ch=1 n=d#6 v=0
14382 On ch=1 n=c6 v=0
14490 On ch=1 n=a#5 v=49
14490 On ch=1 n=d#6 v=49
14490 On ch=1 n=a#6 v=49
14496 On ch=1 n=a#6 v=0
14496 On ch=1 n=d#6 v=0
14496 On ch=1 n=a#5 v=0
14550 On ch=1 n=g5 v=49
14550 On ch=1 n=d#6 v=49
14550 On ch=1 n=g6 v=49
14556 On ch=1 n=g6 v=0
14556 On ch=1 n=d#6 v=0
14556 On ch=1 n=g5 v=0
14610 On ch=1 n=g#5 v=49
14610 On ch=1 n=d#6 v=49
14610 On ch=1 n=g#6 v=49
14622 On ch=1 n=g#6 v=0
14622 On ch=1 n=d#6 v=0
14622 On ch=1 n=g#5 v=0
14790 On ch=1 n=g#5 v=104
14790 On ch=1 n=c6 v=109
14790 On ch=1 n=g#6 v=114
14910 On ch=1 n=g#6 v=0
14910 On ch=1 n=c6 v=0
14910 On ch=1 n=g#5 v=0
14910 On ch=1 n=g#5 v=88
14910 On ch=1 n=c6 v=88
14910 On ch=1 n=g#6 v=88
14916 On ch=1 n=g#6 v=0
14916 On ch=1 n=c6 v=0
14916 On ch=1 n=g#5 v=0
14970 On ch=1 n=c#6 v=65
14970 On ch=1 n=a#6 v=70
14970 On ch=1 n=c#7 v=75
14982 On ch=1 n=c#7 v=0
14982 On ch=1 n=a#6 v=0
14982 On ch=1 n=c#6 v=0
15090 On ch=1 n=c#6 v=49
15090 On ch=1 n=a#6 v=49
15090 On ch=1 n=c#7 v=49
15096 On ch=1 n=c#7 v=0
15096 On ch=1 n=a#6 v=0
15096 On ch=1 n=c#6 v=0
15150 On ch=1 n=b5 v=49
15150 On ch=1 n=g#6 v=49
15150 On ch=1 n=b6 v=49
15156 On ch=1 n=b6 v=0
15156 On ch=1 n=g#6 v=0
15156 On ch=1 n=b5 v=0
15210 On ch=1 n=a#5 v=49
15210 On ch=1 n=g6 v=49
15210 On ch=1 n=a#6 v=49
15222 On ch=1 n=a#6 v=0
15222 On ch=1 n=g6 v=0
15222 On ch=1 n=a#5 v=0
15330 On ch=1 n=b5 v=49
15330 On ch=1 n=g#6 v=49
15330 On ch=1 n=b6 v=49
15342 On ch=1 n=b6 v=0
15342 On ch=1 n=g#6 v=0
15342 On ch=1 n=b5 v=0
15450 On ch=1 n=a#5 v=65
15450 On ch=1 n=f#6 v=70
15450 On ch=1 n=a#6 v=75
15462 On ch=1 n=a#6 v=0
15462 On ch=1 n=f#6 v=0
15462 On ch=1 n=a#5 v=0
15570 On ch=1 n=a#5 v=49
15570 On ch=1 n=f#6 v=49
15570 On ch=1 n=a#6 v=49
15576 On ch=1 n=a#6 v=0
15576 On ch=1 n=f#6 v=0
15576 On ch=1 n=a#5 v=0
15630 On ch=1 n=g#5 v=49
15630 On ch=1 n=f6 v=49
15630 On ch=1 n=g#6 v=49
15636 On ch=1 n=g#6 v=0
15636 On ch=1 n=f6 v=0
15636 On ch=1 n=g#5 v=0
15690 On ch=1 n=f#5 v=49
15690 On ch=1 n=d#6 v=49
15690 On ch=1 n=f#6 v=49
15702 On ch=1 n=f#6 v=0
15702 On ch=1 n=d#6 v=0
15702 On ch=1 n=f#5 v=0
15810 On ch=1 n=f5 v=49
15810 On ch=1 n=c#6 v=49
15810 On ch=1 n=f6 v=49
15822 On ch=1 n=f6 v=0
15822 On ch=1 n=c#6 v=0
15822 On ch=1 n=f5 v=0
15930 On ch=1 n=d#5 v=49
15930 On ch=1 n=c6 v=49
15930 On ch=1 n=d#6 v=49
15942 On ch=1 n=d#6 v=0
15942 On ch=1 n=c6 v=0
15942 On ch=1 n=d#5 v=0
16050 On ch=1 n=d#5 v=49
16050 On ch=1 n=g#5 v=49
16050 On ch=1 n=d#6 v=49
16056 On ch=1 n=d#6 v=0
16056 On ch=1 n=g#5 v=0
16056 On ch=1 n=d#5 v=0
16110 On ch=1 n=f5 v=49
16110 On ch=1 n=g#5 v=49
16110 On ch=1 n=f6 v=49
16116 On ch=1 n=f6 v=0
16116 On ch=1 n=g#5 v=0
16116 On ch=1 n=f5 v=0
16170 On ch=1 n=f#5 v=49
16170 On ch=1 n=g#5 v=49
16170 On ch=1 n=f#6 v=49
16182 On ch=1 n=f#6 v=0
16182 On ch=1 n=g#5 v=0
16182 On ch=1 n=f#5 v=0
16290 On ch=1 n=f5 v=49
16290 On ch=1 n=g#5 v=49
16290 On ch=1 n=f6 v=49
16302 On ch=1 n=f6 v=0
16302 On ch=1 n=g#5 v=0
16302 On ch=1 n=f5 v=0
16410 On ch=1 n=d#5 v=49
16410 On ch=1 n=g#5 v=49
16410 On ch=1 n=d#6 v=49
16416 On ch=1 n=d#6 v=0
16416 On ch=1 n=g#5 v=0
16416 On ch=1 n=d#5 v=0
16470 On ch=1 n=c5 v=49
16470 On ch=1 n=g#5 v=49
16470 On ch=1 n=c6 v=49
16476 On ch=1 n=c6 v=0
16476 On ch=1 n=g#5 v=0
16476 On ch=1 n=c5 v=0
16530 On ch=1 n=c#5 v=49
16530 On ch=1 n=g#5 v=49
16530 On ch=1 n=c#6 v=49
16542 On ch=1 n=c#6 v=0
16542 On ch=1 n=g#5 v=0
16542 On ch=1 n=c#5 v=0
16710 On ch=1 n=c#6 v=104
16710 On ch=1 n=f6 v=109
16710 On ch=1 n=c#7 v=114
16830 On ch=1 n=c#7 v=0
16830 On ch=1 n=f6 v=0
16830 On ch=1 n=c#6 v=0
16830 On ch=1 n=c#6 v=88
16830 On ch=1 n=f6 v=88
16830 On ch=1 n=c#7 v=88
16836 On ch=1 n=c#7 v=0
16836 On ch=1 n=f6 v=0
16836 On ch=1 n=c#6 v=0
16890 On ch=1 n=c#7 v=65
16890 On ch=1 n=a#7 v=70
16890 On ch=1 n=c#8 v=75
16902 On ch=1 n=c#8 v=0
16902 On ch=1 n=a#7 v=0
16902 On ch=1 n=c#7 v=0
17010 On ch=1 n=c#7 v=49
17010 On ch=1 n=a#7 v=49
17010 On ch=1 n=c#8 v=49
17016 On ch=1 n=c#8 v=0
17016 On ch=1 n=a#7 v=0
17016 On ch=1 n=c#7 v=0
17070 On ch=1 n=b6 v=49
17070 On ch=1 n=g#7 v=49
17070 On ch=1 n=b7 v=49
17076 On ch=1 n=b7 v=0
17076 On ch=1 n=g#7 v=0
17076 On ch=1 n=b6 v=0
17130 On ch=1 n=a#6 v=49
17130 On ch=1 n=g7 v=49
17130 On ch=1 n=a#7 v=49
17142 On ch=1 n=a#7 v=0
17142 On ch=1 n=g7 v=0
17142 On ch=1 n=a#6 v=0
17250 On ch=1 n=b6 v=49
17250 On ch=1 n=g#7 v=49
17250 On ch=1 n=b7 v=49
17262 On ch=1 n=b7 v=0
17262 On ch=1 n=g#7 v=0
17262 On ch=1 n=b6 v=0
17370 On ch=1 n=a#6 v=65
17370 On ch=1 n=f#7 v=70
17370 On ch=1 n=a#7 v=75
17382 On ch=1 n=a#7 v=0
17382 On ch=1 n=f#7 v=0
17382 On ch=1 n=a#6 v=0
17490 On ch=1 n=a#6 v=49
17490 On ch=1 n=f#7 v=49
17490 On ch=1 n=a#7 v=49
17496 On ch=1 n=a#7 v=0
17496 On ch=1 n=f#7 v=0
17496 On ch=1 n=a#6 v=0
17550 On ch=1 n=g#6 v=49
17550 On ch=1 n=f7 v=49
17550 On ch=1 n=g#7 v=49
17556 On ch=1 n=g#7 v=0
17556 On ch=1 n=f7 v=0
17556 On ch=1 n=g#6 v=0
17610 On ch=1 n=f#6 v=49
17610 On ch=1 n=d#7 v=49
17610 On ch=1 n=f#7 v=49
17622 On ch=1 n=f#7 v=0
17622 On ch=1 n=d#7 v=0
17622 On ch=1 n=f#6 v=0
17730 On ch=1 n=f6 v=49
17730 On ch=1 n=c#7 v=49
17730 On ch=1 n=f7 v=49
17742 On ch=1 n=f7 v=0
17742 On ch=1 n=c#7 v=0
17742 On ch=1 n=f6 v=0
17850 On ch=1 n=d#6 v=49
17850 On ch=1 n=c7 v=49
17850 On ch=1 n=d#7 v=49
17862 On ch=1 n=d#7 v=0
17862 On ch=1 n=c7 v=0
17862 On ch=1 n=d#6 v=0
17970 On ch=1 n=d#6 v=49
17970 On ch=1 n=g#6 v=49
17970 On ch=1 n=d#7 v=49
17976 On ch=1 n=d#7 v=0
17976 On ch=1 n=g#6 v=0
17976 On ch=1 n=d#6 v=0
18030 On ch=1 n=f6 v=49
18030 On ch=1 n=g#6 v=49
18030 On ch=1 n=f7 v=49
18036 On ch=1 n=f7 v=0
18036 On ch=1 n=g#6 v=0
18036 On ch=1 n=f6 v=0
18090 On ch=1 n=f#6 v=49
18090 On ch=1 n=g#6 v=49
18090 On ch=1 n=f#7 v=49
18102 On ch=1 n=f#7 v=0
18102 On ch=1 n=g#6 v=0
18102 On ch=1 n=f#6 v=0
18210 On ch=1 n=f6 v=49
18210 On ch=1 n=g#6 v=49
18210 On ch=1 n=f7 v=49
18222 On ch=1 n=f7 v=0
18222 On ch=1 n=g#6 v=0
18222 On ch=1 n=f6 v=0
18330 On ch=1 n=d#6 v=49
18330 On ch=1 n=g#6 v=49
18330 On ch=1 n=d#7 v=49
18336 On ch=1 n=d#7 v=0
18336 On ch=1 n=g#6 v=0
18336 On ch=1 n=d#6 v=0
18390 On ch=1 n=c6 v=49
18390 On ch=1 n=g#6 v=49
18390 On ch=1 n=c7 v=49
18396 On ch=1 n=c7 v=0
18396 On ch=1 n=g#6 v=0
18396 On ch=1 n=c6 v=0
18450 On ch=1 n=c#6 v=49
18450 On ch=1 n=g#6 v=49
18450 On ch=1 n=c#7 v=49
18462 On ch=1 n=c#7 v=0
18462 On ch=1 n=g#6 v=0
18462 On ch=1 n=c#6 v=0
18630 On ch=1 n=c#7 v=104
18630 On ch=1 n=f7 v=109
18630 On ch=1 n=c#8 v=114
18750 On ch=1 n=c#8 v=0
18750 On ch=1 n=f7 v=0
18750 On ch=1 n=c#7 v=0
18750 On ch=1 n=c#7 v=88
18750 On ch=1 n=f7 v=88
18750 On ch=1 n=c#8 v=88
18756 On ch=1 n=c#8 v=0
18756 On ch=1 n=f7 v=0
18756 On ch=1 n=c#7 v=0
18810 On ch=1 n=f4 v=49
18810 On ch=1 n=c#5 v=49
18822 On ch=1 n=c#5 v=0
18822 On ch=1 n=f4 v=0
18930 On ch=1 n=g#4 v=49
18930 On ch=1 n=c#5 v=49
18936 On ch=1 n=c#5 v=0
18936 On ch=1 n=g#4 v=0
18990 On ch=1 n=c#5 v=49
18990 On ch=1 n=f5 v=49
18996 On ch=1 n=f5 v=0
18996 On ch=1 n=c#5 v=0
19050 On ch=1 n=d#5 v=49
19050 On ch=1 n=f#5 v=49
19062 On ch=1 n=f#5 v=0
19062 On ch=1 n=d#5 v=0
19170 On ch=1 n=c#5 v=49
19170 On ch=1 n=f5 v=49
19182 On ch=1 n=f5 v=0
19182 On ch=1 n=c#5 v=0
19290 On ch=1 n=g#4 v=49
19290 On ch=1 n=d#5 v=49
19296 On ch=1 n=d#5 v=0
19296 On ch=1 n=g#4 v=0
19350 On ch=1 n=g#4 v=49
19350 On ch=1 n=c5 v=49
19356 On ch=1 n=c5 v=0
19356 On ch=1 n=g#4 v=0
19410 On ch=1 n=g#4 v=49
19410 On ch=1 n=c#5 v=49
19422 On ch=1 n=c#5 v=0
19422 On ch=1 n=g#4 v=0
19590 On ch=1 n=f4 v=106
19590 On ch=1 n=c#5 v=114
19710 On ch=1 n=c#5 v=0
19710 On ch=1 n=f4 v=0
19710 On ch=1 n=f4 v=88
19710 On ch=1 n=c#5 v=88
19716 On ch=1 n=c#5 v=0
19716 On ch=1 n=f4 v=0
19770 On ch=1 n=g#4 v=49
19770 On ch=1 n=c5 v=49
19770 On ch=1 n=g#5 v=49
19782 On ch=1 n=g#5 v=0
19782 On ch=1 n=c5 v=0
19782 On ch=1 n=g#4 v=0
19890 On ch=1 n=c5 v=49
19890 On ch=1 n=g#5 v=49
19896 On ch=1 n=g#5 v=0
19896 On ch=1 n=c5 v=0
19950 On ch=1 n=d#5 v=49
19950 On ch=1 n=c6 v=49
19956 On ch=1 n=c6 v=0
19956 On ch=1 n=d#5 v=0
20010 On ch=1 n=d#5 v=49
20010 On ch=1 n=c#6 v=49
20022 On ch=1 n=c#6 v=0
20022 On ch=1 n=d#5 v=0
20130 On ch=1 n=d#5 v=49
20130 On ch=1 n=c6 v=49
20142 On ch=1 n=c6 v=0
20142 On ch=1 n=d#5 v=0
20250 On ch=1 n=d#5 v=49
20250 On ch=1 n=a#5 v=49
20256 On ch=1 n=a#5 v=0
20256 On ch=1 n=d#5 v=0
20310 On ch=1 n=d#5 v=49
20310 On ch=1 n=g5 v=49
20316 On ch=1 n=g5 v=0
20316 On ch=1 n=d#5 v=0
20370 On ch=1 n=d#5 v=49
20370 On ch=1 n=g#5 v=49
20382 On ch=1 n=g#5 v=0
20382 On ch=1 n=d#5 v=0
20550 On ch=1 n=c5 v=106
20550 On ch=1 n=g#5 v=114
20670 On ch=1 n=g#5 v=0
20670 On ch=1 n=c5 v=0
20670 On ch=1 n=c5 v=88
20670 On ch=1 n=g#5 v=88
20676 On ch=1 n=g#5 v=0
20676 On ch=1 n=c5 v=0
20730 On ch=1 n=c#5 v=49
20730 On ch=1 n=f5 v=49
20730 On ch=1 n=c#6 v=49
20742 On ch=1 n=c#6 v=0
20742 On ch=1 n=f5 v=0
20742 On ch=1 n=c#5 v=0
20850 On ch=1 n=c#5 v=49
20850 On ch=1 n=g#5 v=49
20850 On ch=1 n=c#6 v=49
20856 On ch=1 n=c#6 v=0
20856 On ch=1 n=g#5 v=0
20856 On ch=1 n=c#5 v=0
20910 On ch=1 n=f5 v=49
20910 On ch=1 n=g#5 v=49
20910 On ch=1 n=f6 v=49
20916 On ch=1 n=f6 v=0
20916 On ch=1 n=g#5 v=0
20916 On ch=1 n=f5 v=0
20970 On ch=1 n=f#5 v=49
20970 On ch=1 n=g#5 v=49
20970 On ch=1 n=f#6 v=49
20982 On ch=1 n=f#6 v=0
20982 On ch=1 n=g#5 v=0
20982 On ch=1 n=f#5 v=0
21090 On ch=1 n=f5 v=49
21090 On ch=1 n=g#5 v=49
21090 On ch=1 n=f6 v=49
21102 On ch=1 n=f6 v=0
21102 On ch=1 n=g#5 v=0
21102 On ch=1 n=f5 v=0
21210 On ch=1 n=d#5 v=49
21210 On ch=1 n=g#5 v=49
21210 On ch=1 n=d#6 v=49
21216 On ch=1 n=d#6 v=0
21216 On ch=1 n=g#5 v=0
21216 On ch=1 n=d#5 v=0
21270 On ch=1 n=c5 v=49
21270 On ch=1 n=g#5 v=49
21270 On ch=1 n=c6 v=49
21276 On ch=1 n=c6 v=0
21276 On ch=1 n=g#5 v=0
21276 On ch=1 n=c5 v=0
21330 On ch=1 n=c#5 v=49
21330 On ch=1 n=g#5 v=49
21330 On ch=1 n=c#6 v=49
21342 On ch=1 n=c#6 v=0
21342 On ch=1 n=g#5 v=0
21342 On ch=1 n=c#5 v=0
21510 On ch=1 n=c#5 v=104
21510 On ch=1 n=f5 v=109
21510 On ch=1 n=c#6 v=114
21630 On ch=1 n=c#6 v=0
21630 On ch=1 n=f5 v=0
21630 On ch=1 n=c#5 v=0
21630 On ch=1 n=c#5 v=88
21630 On ch=1 n=f5 v=88
21630 On ch=1 n=c#6 v=88
21636 On ch=1 n=c#6 v=0
21636 On ch=1 n=f5 v=0
21636 On ch=1 n=c#5 v=0
21690 On ch=1 n=g#5 v=49
21690 On ch=1 n=c6 v=49
21690 On ch=1 n=g#6 v=49
21702 On ch=1 n=g#6 v=0
21702 On ch=1 n=c6 v=0
21702 On ch=1 n=g#5 v=0
21810 On ch=1 n=g#5 v=49
21810 On ch=1 n=d#6 v=49
21810 On ch=1 n=g#6 v=49
21816 On ch=1 n=g#6 v=0
21816 On ch=1 n=d#6 v=0
21816 On ch=1 n=g#5 v=0
21870 On ch=1 n=c6 v=49
21870 On ch=1 n=d#6 v=49
21870 On ch=1 n=c7 v=49
21876 On ch=1 n=c7 v=0
21876 On ch=1 n=d#6 v=0
21876 On ch=1 n=c6 v=0
21930 On ch=1 n=c#6 v=49
21930 On ch=1 n=d#6 v=49
21930 On ch=1 n=c#7 v=49
21942 On ch=1 n=c#7 v=0
21942 On ch=1 n=d#6 v=0
21942 On ch=1 n=c#6 v=0
22050 On ch=1 n=c6 v=49
22050 On ch=1 n=d#6 v=49
22050 On ch=1 n=c7 v=49
22062 On ch=1 n=c7 v=0
22062 On ch=1 n=d#6 v=0
22062 On ch=1 n=c6 v=0
22170 On ch=1 n=a#5 v=49
22170 On ch=1 n=d#6 v=49
22170 On ch=1 n=a#6 v=49
22176 On ch=1 n=a#6 v=0
22176 On ch=1 n=d#6 v=0
22176 On ch=1 n=a#5 v=0
22230 On ch=1 n=g5 v=49
22230 On ch=1 n=d#6 v=49
22230 On ch=1 n=g6 v=49
22236 On ch=1 n=g6 v=0
22236 On ch=1 n=d#6 v=0
22236 On ch=1 n=g5 v=0
22290 On ch=1 n=g#5 v=49
22290 On ch=1 n=d#6 v=49
22290 On ch=1 n=g#6 v=49
22302 On ch=1 n=g#6 v=0
22302 On ch=1 n=d#6 v=0
22302 On ch=1 n=g#5 v=0
22470 On ch=1 n=g#5 v=104
22470 On ch=1 n=c6 v=109
22470 On ch=1 n=g#6 v=114
22590 On ch=1 n=g#6 v=0
22590 On ch=1 n=c6 v=0
22590 On ch=1 n=g#5 v=0
22590 On ch=1 n=g#5 v=88
22590 On ch=1 n=c6 v=88
22590 On ch=1 n=g#6 v=88
22596 On ch=1 n=g#6 v=0
22596 On ch=1 n=c6 v=0
22596 On ch=1 n=g#5 v=0
22650 On ch=1 n=c#6 v=65
22650 On ch=1 n=a#6 v=70
22650 On ch=1 n=c#7 v=75
22662 On ch=1 n=c#7 v=0
22662 On ch=1 n=a#6 v=0
22662 On ch=1 n=c#6 v=0
22770 On ch=1 n=c#6 v=49
22770 On ch=1 n=a#6 v=49
22770 On ch=1 n=c#7 v=49
22776 On ch=1 n=c#7 v=0
22776 On ch=1 n=a#6 v=0
22776 On ch=1 n=c#6 v=0
22830 On ch=1 n=b5 v=49
22830 On ch=1 n=g#6 v=49
22830 On ch=1 n=b6 v=49
22836 On ch=1 n=b6 v=0
22836 On ch=1 n=g#6 v=0
22836 On ch=1 n=b5 v=0
22890 On ch=1 n=a#5 v=49
22890 On ch=1 n=g6 v=49
22890 On ch=1 n=a#6 v=49
22902 On ch=1 n=a#6 v=0
22902 On ch=1 n=g6 v=0
22902 On ch=1 n=a#5 v=0
23010 On ch=1 n=b5 v=49
23010 On ch=1 n=g#6 v=49
23010 On ch=1 n=b6 v=49
23022 On ch=1 n=b6 v=0
23022 On ch=1 n=g#6 v=0
23022 On ch=1 n=b5 v=0
23130 On ch=1 n=a#5 v=65
23130 On ch=1 n=f#6 v=70
23130 On ch=1 n=a#6 v=75
23142 On ch=1 n=a#6 v=0
23142 On ch=1 n=f#6 v=0
23142 On ch=1 n=a#5 v=0
23250 On ch=1 n=a#5 v=49
23250 On ch=1 n=f#6 v=49
23250 On ch=1 n=a#6 v=49
23256 On ch=1 n=a#6 v=0
23256 On ch=1 n=f#6 v=0
23256 On ch=1 n=a#5 v=0
23310 On ch=1 n=g#5 v=49
23310 On ch=1 n=f6 v=49
23310 On ch=1 n=g#6 v=49
23316 On ch=1 n=g#6 v=0
23316 On ch=1 n=f6 v=0
23316 On ch=1 n=g#5 v=0
23370 On ch=1 n=f#5 v=49
23370 On ch=1 n=d#6 v=49
23370 On ch=1 n=f#6 v=49
23382 On ch=1 n=f#6 v=0
23382 On ch=1 n=d#6 v=0
23382 On ch=1 n=f#5 v=0
23490 On ch=1 n=f5 v=49
23490 On ch=1 n=c#6 v=49
23490 On ch=1 n=f6 v=49
23502 On ch=1 n=f6 v=0
23502 On ch=1 n=c#6 v=0
23502 On ch=1 n=f5 v=0
23610 On ch=1 n=d#5 v=49
23610 On ch=1 n=c6 v=49
23610 On ch=1 n=d#6 v=49
23622 On ch=1 n=d#6 v=0
23622 On ch=1 n=c6 v=0
23622 On ch=1 n=d#5 v=0
23730 On ch=1 n=d#5 v=49
23730 On ch=1 n=g#5 v=49
23730 On ch=1 n=d#6 v=49
23736 On ch=1 n=d#6 v=0
23736 On ch=1 n=g#5 v=0
23736 On ch=1 n=d#5 v=0
23790 On ch=1 n=f5 v=49
23790 On ch=1 n=g#5 v=49
23790 On ch=1 n=f6 v=49
23796 On ch=1 n=f6 v=0
23796 On ch=1 n=g#5 v=0
23796 On ch=1 n=f5 v=0
23850 On ch=1 n=f#5 v=49
23850 On ch=1 n=g#5 v=49
23850 On ch=1 n=f#6 v=49
23862 On ch=1 n=f#6 v=0
23862 On ch=1 n=g#5 v=0
23862 On ch=1 n=f#5 v=0
23970 On ch=1 n=f5 v=49
23970 On ch=1 n=g#5 v=49
23970 On ch=1 n=f6 v=49
23982 On ch=1 n=f6 v=0
23982 On ch=1 n=g#5 v=0
23982 On ch=1 n=f5 v=0
24090 On ch=1 n=d#5 v=49
24090 On ch=1 n=g#5 v=49
24090 On ch=1 n=d#6 v=49
24096 On ch=1 n=d#6 v=0
24096 On ch=1 n=g#5 v=0
24096 On ch=1 n=d#5 v=0
24150 On ch=1 n=c5 v=49
24150 On ch=1 n=g#5 v=49
24150 On ch=1 n=c6 v=49
24156 On ch=1 n=c6 v=0
24156 On ch=1 n=g#5 v=0
24156 On ch=1 n=c5 v=0
24210 On ch=1 n=c#5 v=49
24210 On ch=1 n=g#5 v=49
24210 On ch=1 n=c#6 v=49
24222 On ch=1 n=c#6 v=0
24222 On ch=1 n=g#5 v=0
24222 On ch=1 n=c#5 v=0
24390 On ch=1 n=c#6 v=104
24390 On ch=1 n=f6 v=109
24390 On ch=1 n=c#7 v=114
24510 On ch=1 n=c#7 v=0
24510 On ch=1 n=f6 v=0
24510 On ch=1 n=c#6 v=0
24510 On ch=1 n=c#6 v=88
24510 On ch=1 n=f6 v=88
24510 On ch=1 n=c#7 v=88
24516 On ch=1 n=c#7 v=0
24516 On ch=1 n=f6 v=0
24516 On ch=1 n=c#6 v=0
24570 On ch=1 n=c#7 v=65
24570 On ch=1 n=a#7 v=70
24570 On ch=1 n=c#8 v=75
24582 On ch=1 n=c#8 v=0
24582 On ch=1 n=a#7 v=0
24582 On ch=1 n=c#7 v=0
24690 On ch=1 n=c#7 v=49
24690 On ch=1 n=a#7 v=49
24690 On ch=1 n=c#8 v=49
24696 On ch=1 n=c#8 v=0
24696 On ch=1 n=a#7 v=0
24696 On ch=1 n=c#7 v=0
24750 On ch=1 n=b6 v=49
24750 On ch=1 n=g#7 v=49
24750 On ch=1 n=b7 v=49
24756 On ch=1 n=b7 v=0
24756 On ch=1 n=g#7 v=0
24756 On ch=1 n=b6 v=0
24780 On ch=1 n=a#6 v=49
24780 On ch=1 n=g7 v=49
24780 On ch=1 n=a#7 v=49
24795 On ch=1 n=a#7 v=0
24795 On ch=1 n=g7 v=0
24795 On ch=1 n=a#6 v=0
24795 On ch=1 n=c8 v=49
24810 On ch=1 n=c8 v=0
24810 On ch=1 n=a#6 v=49
24810 On ch=1 n=g7 v=49
24810 On ch=1 n=a#7 v=49
24822 On ch=1 n=a#7 v=0
24822 On ch=1 n=g7 v=0
24822 On ch=1 n=a#6 v=0
24930 On ch=1 n=b6 v=49
24930 On ch=1 n=g#7 v=49
24930 On ch=1 n=b7 v=49
24942 On ch=1 n=b7 v=0
24942 On ch=1 n=g#7 v=0
24942 On ch=1 n=b6 v=0
25050 On ch=1 n=a#6 v=65
25050 On ch=1 n=f#7 v=70
25050 On ch=1 n=a#7 v=75
25062 On ch=1 n=a#7 v=0
25062 On ch=1 n=f#7 v=0
25062 On ch=1 n=a#6 v=0
25170 On ch=1 n=a#6 v=49
25170 On ch=1 n=f#7 v=49
25170 On ch=1 n=a#7 v=49
25176 On ch=1 n=a#7 v=0
25176 On ch=1 n=f#7 v=0
25176 On ch=1 n=a#6 v=0
25230 On ch=1 n=g#6 v=49
25230 On ch=1 n=f7 v=49
25230 On ch=1 n=g#7 v=49
25236 On ch=1 n=g#7 v=0
25236 On ch=1 n=f7 v=0
25236 On ch=1 n=g#6 v=0
25260 On ch=1 n=f#6 v=49
25260 On ch=1 n=d#7 v=49
25260 On ch=1 n=f#7 v=49
25275 On ch=1 n=f#7 v=0
25275 On ch=1 n=d#7 v=0
25275 On ch=1 n=f#6 v=0
25275 On ch=1 n=g#7 v=49
25290 On ch=1 n=g#7 v=0
25290 On ch=1 n=f#6 v=49
25290 On ch=1 n=d#7 v=49
25290 On ch=1 n=f#7 v=49
25302 On ch=1 n=f#7 v=0
25302 On ch=1 n=d#7 v=0
25302 On ch=1 n=f#6 v=0
25410 On ch=1 n=f6 v=49
25410 On ch=1 n=c#7 v=49
25410 On ch=1 n=f7 v=49
25422 On ch=1 n=f7 v=0
25422 On ch=1 n=c#7 v=0
25422 On ch=1 n=f6 v=0
25530 On ch=1 n=d#6 v=49
25530 On ch=1 n=c7 v=49
25530 On ch=1 n=d#7 v=49
25542 On ch=1 n=d#7 v=0
25542 On ch=1 n=c7 v=0
25542 On ch=1 n=d#6 v=0
25650 On ch=1 n=d#6 v=49
25650 On ch=1 n=g#6 v=49
25650 On ch=1 n=d#7 v=49
25656 On ch=1 n=d#7 v=0
25656 On ch=1 n=g#6 v=0
25656 On ch=1 n=d#6 v=0
25710 On ch=1 n=f6 v=49
25710 On ch=1 n=g#6 v=49
25710 On ch=1 n=f7 v=49
25716 On ch=1 n=f7 v=0
25716 On ch=1 n=g#6 v=0
25716 On ch=1 n=f6 v=0
25770 On ch=1 n=f#6 v=49
25770 On ch=1 n=g#6 v=49
25770 On ch=1 n=f#7 v=49
25782 On ch=1 n=f#7 v=0
25782 On ch=1 n=g#6 v=0
25782 On ch=1 n=f#6 v=0
25890 On ch=1 n=f6 v=49
25890 On ch=1 n=g#6 v=49
25890 On ch=1 n=f7 v=49
25902 On ch=1 n=f7 v=0
25902 On ch=1 n=g#6 v=0
25902 On ch=1 n=f6 v=0
26010 On ch=1 n=d#6 v=49
26010 On ch=1 n=g#6 v=49
26010 On ch=1 n=d#7 v=49
26016 On ch=1 n=d#7 v=0
26016 On ch=1 n=g#6 v=0
26016 On ch=1 n=d#6 v=0
26070 On ch=1 n=c6 v=49
26070 On ch=1 n=g#6 v=49
26070 On ch=1 n=c7 v=49
26076 On ch=1 n=c7 v=0
26076 On ch=1 n=g#6 v=0
26076 On ch=1 n=c6 v=0
26130 On ch=1 n=c#6 v=49
26130 On ch=1 n=g#6 v=49
26130 On ch=1 n=c#7 v=49
26142 On ch=1 n=c#7 v=0
26142 On ch=1 n=g#6 v=0
26142 On ch=1 n=c#6 v=0
26310 On ch=1 n=c#7 v=104
26310 On ch=1 n=f7 v=109
26310 On ch=1 n=c#8 v=114
26430 On ch=1 n=c#8 v=0
26430 On ch=1 n=f7 v=0
26430 On ch=1 n=c#7 v=0
26430 On ch=1 n=c#7 v=88
26430 On ch=1 n=f7 v=88
26430 On ch=1 n=c#8 v=88
26436 On ch=1 n=c#8 v=0
26436 On ch=1 n=f7 v=0
26436 On ch=1 n=c#7 v=0
26835 On ch=1 n=f4 v=75
26850 On ch=1 n=f4 v=0
26850 On ch=1 n=f4 v=75
26854 On ch=1 n=f4 v=0
26889 On ch=1 n=g4 v=75
26893 On ch=1 n=g4 v=0
26930 On ch=1 n=a4 v=75
26934 On ch=1 n=a4 v=0
26970 On ch=1 n=a#4 v=101
27330 On ch=1 n=a#4 v=0
27330 On ch=1 n=a#4 v=75
27360 On ch=1 n=a#4 v=0
27360 On ch=1 n=a#4 v=75
27405 On ch=1 n=a#4 v=0
27405 On ch=1 n=c5 v=75
27420 On ch=1 n=c5 v=0
27420 On ch=1 n=c#5 v=75
27720 On ch=1 n=c#5 v=0
27720 On ch=1 n=a#4 v=75
27735 On ch=1 n=a#4 v=0
27735 On ch=1 n=a#4 v=75
27780 On ch=1 n=a#4 v=0
27780 On ch=1 n=c5 v=75
27795 On ch=1 n=c5 v=0
27810 On ch=1 n=c5 v=75
28170 On ch=1 n=c5 v=0
28275 On ch=1 n=d#5 v=75
28290 On ch=1 n=d#5 v=0
28290 On ch=1 n=d#5 v=75
28329 On ch=1 n=g#4 v=75
28330 On ch=1 n=d#5 v=0
28333 On ch=1 n=g#4 v=0
28370 On ch=1 n=g#4 v=75
28374 On ch=1 n=g#4 v=0
28410 On ch=1 n=g#4 v=75
28530 On ch=1 n=g#4 v=0
28530 On ch=1 n=d#5 v=75
28560 On ch=1 n=d#5 v=0
28560 On ch=1 n=d#5 v=75
28590 On ch=1 n=d#5 v=0
28590 On ch=1 n=f5 v=75
28620 On ch=1 n=f5 v=0
28620 On ch=1 n=f#5 v=75
28800 On ch=1 n=f#5 v=0
28800 On ch=1 n=f5 v=75
28980 On ch=1 n=f5 v=0
28980 On ch=1 n=d#5 v=75
29010 On ch=1 n=d#5 v=0
29010 On ch=1 n=f5 v=75
29370 On ch=1 n=f5 v=0
29400 On ch=1 n=e5 v=49
29406 On ch=1 n=e5 v=0
29460 On ch=1 n=f5 v=49
29466 On ch=1 n=f5 v=0
29520 On ch=1 n=f#5 v=75
29640 On ch=1 n=f#5 v=0
29640 On ch=1 n=f5 v=49
29670 On ch=1 n=f5 v=0
29670 On ch=1 n=d#5 v=49
29700 On ch=1 n=d#5 v=0
29700 On ch=1 n=c#5 v=49
29820 On ch=1 n=c#5 v=0
29820 On ch=1 n=a#4 v=49
29850 On ch=1 n=a#4 v=0
29850 On ch=1 n=a#4 v=49
29880 On ch=1 n=a#4 v=0
29880 On ch=1 n=c5 v=49
29910 On ch=1 n=c5 v=0
29910 On ch=1 n=c#5 v=75
30060 On ch=1 n=c#5 v=0
30060 On ch=1 n=c5 v=88
30090 On ch=1 n=c5 v=0
30090 On ch=1 n=d#5 v=88
30120 On ch=1 n=d#5 v=0
30120 On ch=1 n=c#5 v=88
30165 On ch=1 n=c#5 v=0
30165 On ch=1 n=c5 v=88
30180 On ch=1 n=c5 v=0
30180 On ch=1 n=c5 v=88
30225 On ch=1 n=c5 v=0
30225 On ch=1 n=f5 v=88
30240 On ch=1 n=f5 v=0
30240 On ch=1 n=f5 v=88
30390 On ch=1 n=f5 v=0
30390 On ch=1 n=f4 v=88
30420 On ch=1 n=f4 v=0
30420 On ch=1 n=f4 v=88
30424 On ch=1 n=f4 v=0
30450 On ch=1 n=g4 v=88
30454 On ch=1 n=g4 v=0
30480 On ch=1 n=a4 v=88
30484 On ch=1 n=a4 v=0
30540 On ch=1 n=a#4 v=88
30900 On ch=1 n=a#4 v=0
30900 On ch=1 n=a#4 v=88
30930 On ch=1 n=a#4 v=0
30930 On ch=1 n=a#4 v=88
30960 On ch=1 n=a#4 v=0
30960 On ch=1 n=c5 v=88
30990 On ch=1 n=c5 v=0
30990 On ch=1 n=c#5 v=114
31110 On ch=1 n=c#5 v=0
31110 On ch=1 n=c5 v=75
31200 On ch=1 n=c5 v=0
31200 On ch=1 n=a#4 v=75
31230 On ch=1 n=a#4 v=0
31260 On ch=1 n=a#4 v=75
31500 On ch=1 n=a#4 v=0
31665 On ch=1 n=f5 v=75
31665 On ch=1 n=f6 v=75
31680 On ch=1 n=f6 v=0
31680 On ch=1 n=f5 v=0
31680 On ch=1 n=f5 v=75
31680 On ch=1 n=f6 v=75
31684 On ch=1 n=f6 v=0
31684 On ch=1 n=f5 v=0
31719 On ch=1 n=g5 v=75
31719 On ch=1 n=g6 v=75
31723 On ch=1 n=g6 v=0
31723 On ch=1 n=g5 v=0
31760 On ch=1 n=a5 v=88
31760 On ch=1 n=a6 v=88
31764 On ch=1 n=a6 v=0
31764 On ch=1 n=a5 v=0
31800 On ch=1 n=a#5 v=106
31800 On ch=1 n=a#6 v=114
31980 On ch=1 n=a#6 v=0
31980 On ch=1 n=a#5 v=0
31980 On ch=1 n=a#5 v=88
31980 On ch=1 n=a#6 v=88
31984 On ch=1 n=a#6 v=0
31984 On ch=1 n=a#5 v=0
32000 On ch=1 n=a#5 v=88
32000 On ch=1 n=a#6 v=88
32004 On ch=1 n=a#6 v=0
32004 On ch=1 n=a#5 v=0
32019 On ch=1 n=c6 v=88
32019 On ch=1 n=c7 v=88
32023 On ch=1 n=c7 v=0
32023 On ch=1 n=c6 v=0
32040 On ch=1 n=c#6 v=106
32040 On ch=1 n=c#7 v=114
32205 On ch=1 n=c#7 v=0
32205 On ch=1 n=c#6 v=0
32205 On ch=1 n=a#5 v=88
32205 On ch=1 n=a#6 v=88
32220 On ch=1 n=a#6 v=0
32220 On ch=1 n=a#5 v=0
32220 On ch=1 n=a#5 v=88
32220 On ch=1 n=a#6 v=88
32265 On ch=1 n=a#6 v=0
32265 On ch=1 n=a#5 v=0
32265 On ch=1 n=c6 v=88
32265 On ch=1 n=c7 v=88
32280 On ch=1 n=c7 v=0
32280 On ch=1 n=c6 v=0
32280 On ch=1 n=c6 v=88
32280 On ch=1 n=c7 v=88
32640 On ch=1 n=c7 v=0
32640 On ch=1 n=c6 v=0
32745 On ch=1 n=d#6 v=88
32745 On ch=1 n=d#7 v=88
32760 On ch=1 n=d#7 v=0
32760 On ch=1 n=d#6 v=0
32760 On ch=1 n=d#6 v=88
32760 On ch=1 n=d#7 v=88
32764 On ch=1 n=d#7 v=0
32764 On ch=1 n=d#6 v=0
32799 On ch=1 n=g#5 v=88
32799 On ch=1 n=g#6 v=88
32803 On ch=1 n=g#6 v=0
32803 On ch=1 n=g#5 v=0
32840 On ch=1 n=g#5 v=101
32840 On ch=1 n=g#6 v=101
32844 On ch=1 n=g#6 v=0
32844 On ch=1 n=g#5 v=0
32880 On ch=1 n=g#5 v=101
32880 On ch=1 n=g#6 v=101
33000 On ch=1 n=g#6 v=0
33000 On ch=1 n=g#5 v=0
33000 On ch=1 n=d#6 v=101
33000 On ch=1 n=d#7 v=101
33030 On ch=1 n=d#7 v=0
33030 On ch=1 n=d#6 v=0
33030 On ch=1 n=d#6 v=101
33030 On ch=1 n=d#7 v=101
33060 On ch=1 n=d#7 v=0
33060 On ch=1 n=d#6 v=0
33060 On ch=1 n=f6 v=101
33060 On ch=1 n=f7 v=101
33090 On ch=1 n=f7 v=0
33090 On ch=1 n=f6 v=0
33090 On ch=1 n=f#6 v=119
33090 On ch=1 n=f#7 v=127
33330 On ch=1 n=f#7 v=0
33330 On ch=1 n=f#6 v=0
33375 On ch=1 n=f#6 v=101
33375 On ch=1 n=f#7 v=101
33390 On ch=1 n=f#7 v=0
33390 On ch=1 n=f#6 v=0
33390 On ch=1 n=f#6 v=101
33390 On ch=1 n=f#7 v=101
33399 On ch=1 n=f6 v=101
33399 On ch=1 n=f7 v=101
33400 On ch=1 n=f#7 v=0
33400 On ch=1 n=f#6 v=0
33409 On ch=1 n=f6 v=0
33409 On ch=1 n=f7 v=0
33410 On ch=1 n=d#6 v=101
33410 On ch=1 n=d#7 v=101
33420 On ch=1 n=d#7 v=0
33420 On ch=1 n=d#6 v=0
33420 On ch=1 n=f6 v=101
33420 On ch=1 n=f7 v=101
33780 On ch=1 n=f7 v=0
33780 On ch=1 n=f6 v=0
33900 On ch=1 n=e6 v=75
33904 On ch=1 n=e6 v=0
33930 On ch=1 n=f6 v=75
33934 On ch=1 n=f6 v=0
33960 Par ch=1 c=64 v=127
33960 On ch=1 n=f6 v=49
33980 On ch=1 n=f6 v=0
33980 On ch=1 n=f#6 v=49
33999 On ch=1 n=g#6 v=49
34000 On ch=1 n=f#6 v=0
34019 On ch=1 n=g#6 v=0
34020 On ch=1 n=f#6 v=49
34050 On ch=1 n=f#6 v=0
34050 On ch=1 n=g#6 v=49
34080 On ch=1 n=g#6 v=0
34080 On ch=1 n=f#6 v=49
34095 On ch=1 n=f#6 v=0
34095 On ch=1 n=g#6 v=49
34110 On ch=1 n=g#6 v=0
34110 On ch=1 n=f#6 v=49
34125 On ch=1 n=f#6 v=0
34125 On ch=1 n=g#6 v=49
34140 On ch=1 n=g#6 v=0
34140 On ch=1 n=f#6 v=49
34155 On ch=1 n=f#6 v=0
34155 On ch=1 n=g#6 v=49
34170 On ch=1 n=g#6 v=0
34170 On ch=1 n=f#6 v=49
34185 On ch=1 n=f#6 v=0
34185 On ch=1 n=g#6 v=49
34200 On ch=1 n=g#6 v=0
34200 On ch=1 n=f#6 v=49
34215 On ch=1 n=f#6 v=0
34215 On ch=1 n=g#6 v=49
34230 On ch=1 n=g#6 v=0
34230 On ch=1 n=f#6 v=49
34245 On ch=1 n=f#6 v=0
34245 On ch=1 n=g#6 v=49
34260 On ch=1 n=g#6 v=0
34260 On ch=1 n=f#6 v=49
34275 On ch=1 n=f#6 v=0
34275 On ch=1 n=g#6 v=49
34290 On ch=1 n=g#6 v=0
34290 On ch=1 n=f#6 v=49
34305 On ch=1 n=f#6 v=0
34305 On ch=1 n=g#6 v=49
34320 On ch=1 n=g#6 v=0
34320 On ch=1 n=f6 v=49
34335 On ch=1 n=f6 v=0
34335 On ch=1 n=f#6 v=49
34350 On ch=1 n=f#6 v=0
34350 On ch=1 n=a6 v=49
34365 On ch=1 n=a6 v=0
34365 On ch=1 n=c7 v=49
34380 On ch=1 n=c7 v=0
34380 On ch=1 n=d#7 v=49
34395 On ch=1 n=d#7 v=0
34395 On ch=1 n=g#7 v=49
34410 On ch=1 n=g#7 v=0
34410 On ch=1 n=f#7 v=49
34425 On ch=1 n=f#7 v=0
34425 On ch=1 n=d#7 v=49
34440 On ch=1 n=d#7 v=0
34440 On ch=1 n=c7 v=49
34455 On ch=1 n=c7 v=0
34455 On ch=1 n=a6 v=49
34470 On ch=1 n=a6 v=0
34470 On ch=1 n=f#6 v=49
34485 On ch=1 n=f#6 v=0
34485 Par ch=1 c=64 v=0
34485 On ch=1 n=d#6 v=49
34500 On ch=1 n=d#6 v=0
34500 On ch=1 n=c#6 v=49
34640 On ch=1 n=c#6 v=0
34640 On ch=1 n=a#5 v=49
34644 On ch=1 n=a#5 v=0
34659 On ch=1 n=c6 v=49
34663 On ch=1 n=c6 v=0
34680 Par ch=1 c=64 v=127
34680 On ch=1 n=c6 v=49
34700 On ch=1 n=c6 v=0
34700 On ch=1 n=c#6 v=49
34719 On ch=1 n=d#6 v=49
34720 On ch=1 n=c#6 v=0
34739 On ch=1 n=d#6 v=0
34740 On ch=1 n=c#6 v=49
34770 On ch=1 n=c#6 v=0
34770 On ch=1 n=d#6 v=49
34800 On ch=1 n=d#6 v=0
34800 On ch=1 n=c#6 v=49
34815 On ch=1 n=c#6 v=0
34815 On ch=1 n=d#6 v=49
34830 On ch=1 n=d#6 v=0
34830 On ch=1 n=c#6 v=49
34845 On ch=1 n=c#6 v=0
34845 On ch=1 n=d#6 v=49
34860 On ch=1 n=d#6 v=0
34860 On ch=1 n=c#6 v=49
34875 On ch=1 n=c#6 v=0
34875 On ch=1 n=d#6 v=49
34890 On ch=1 n=d#6 v=0
34890 On ch=1 n=c#6 v=49
34905 On ch=1 n=c#6 v=0
34905 On ch=1 n=d#6 v=49
34920 On ch=1 n=d#6 v=0
34920 On ch=1 n=c#6 v=49
34935 On ch=1 n=c#6 v=0
34935 On ch=1 n=d#6 v=49
34950 On ch=1 n=d#6 v=0
34950 On ch=1 n=c#6 v=49
34965 On ch=1 n=c#6 v=0
34965 On ch=1 n=d#6 v=49
34980 On ch=1 n=d#6 v=0
34980 On ch=1 n=c#6 v=49
34995 On ch=1 n=c#6 v=0
34995 On ch=1 n=d#6 v=49
35010 On ch=1 n=d#6 v=0
35010 On ch=1 n=c#6 v=49
35025 On ch=1 n=c#6 v=0
35025 On ch=1 n=d#6 v=49
35040 On ch=1 n=d#6 v=0
35040 On ch=1 n=c6 v=49
35055 On ch=1 n=c6 v=0
35055 On ch=1 n=c#6 v=49
35070 On ch=1 n=c#6 v=0
35070 On ch=1 n=e6 v=49
35085 On ch=1 n=e6 v=0
35085 On ch=1 n=g6 v=49
35100 On ch=1 n=g6 v=0
35100 On ch=1 n=a#6 v=49
35115 On ch=1 n=a#6 v=0
35115 On ch=1 n=c#7 v=49
35130 On ch=1 n=c#7 v=0
35130 On ch=1 n=e7 v=49
35145 On ch=1 n=e7 v=0
35145 On ch=1 n=g7 v=49
35160 On ch=1 n=g7 v=0
35160 On ch=1 n=a#7 v=49
35175 On ch=1 n=a#7 v=0
35175 On ch=1 n=d#8 v=49
35190 On ch=1 n=d#8 v=0
35190 On ch=1 n=c#8 v=49
35205 On ch=1 n=c#8 v=0
35205 On ch=1 n=a#7 v=49
35220 On ch=1 n=a#7 v=0
35220 On ch=1 n=g7 v=49
35235 On ch=1 n=g7 v=0
35235 On ch=1 n=e7 v=49
35250 On ch=1 n=e7 v=0
35250 On ch=1 n=c#7 v=49
35265 On ch=1 n=c#7 v=0
35265 On ch=1 n=a#6 v=49
35280 On ch=1 n=a#6 v=0
35280 On ch=1 n=g6 v=49
35295 On ch=1 n=g6 v=0
35295 On ch=1 n=e6 v=49
35310 On ch=1 n=e6 v=0
35310 Par ch=1 c=64 v=0
35310 On ch=1 n=c#6 v=49
35325 On ch=1 n=c#6 v=0
35325 On ch=1 n=a#5 v=62
35342 On ch=1 n=a#5 v=0
35342 On ch=1 n=c6 v=62
35359 On ch=1 n=c6 v=0
35359 On ch=1 n=a#5 v=62
35376 On ch=1 n=a#5 v=0
35376 On ch=1 n=a5 v=62
35393 On ch=1 n=a5 v=0
35393 On ch=1 n=a#5 v=62
35410 On ch=1 n=a#5 v=0
35410 On ch=1 n=b5 v=62
35427 On ch=1 n=b5 v=0
35427 On ch=1 n=c6 v=62
35444 On ch=1 n=c6 v=0
35445 On ch=1 n=d#6 v=75
35449 On ch=1 n=d#6 v=0
35460 On ch=1 n=d6 v=75
35464 On ch=1 n=d6 v=0
35475 On ch=1 n=c#6 v=75
35479 On ch=1 n=c#6 v=0
35490 On ch=1 n=c6 v=75
35494 On ch=1 n=c6 v=0
35505 On ch=1 n=b5 v=75
35509 On ch=1 n=b5 v=0
35520 On ch=1 n=a#5 v=62
35524 On ch=1 n=a#5 v=0
35550 On ch=1 n=a5 v=62
35554 On ch=1 n=a5 v=0
35580 On ch=1 n=a#5 v=62
35584 On ch=1 n=a#5 v=0
35640 On ch=1 n=c6 v=49
35730 On ch=1 n=c6 v=0
35730 On ch=1 n=f6 v=49
35760 On ch=1 n=f6 v=0
35760 On ch=1 n=f6 v=49
35880 On ch=1 n=f6 v=0
36105 On ch=1 n=f5 v=75
36120 On ch=1 n=f5 v=0
36120 On ch=1 n=f5 v=75
36124 On ch=1 n=f5 v=0
36140 On ch=1 n=g5 v=75
36144 On ch=1 n=g5 v=0
36159 On ch=1 n=a5 v=75
36163 On ch=1 n=a5 v=0
36180 On ch=1 n=a#5 v=101
36360 On ch=1 n=a#5 v=0
36360 On ch=1 n=a#5 v=75
36380 On ch=1 n=a#5 v=0
36380 On ch=1 n=a#5 v=75
36414 On ch=1 n=c6 v=75
36415 On ch=1 n=a#5 v=0
36424 On ch=1 n=c6 v=0
36425 On ch=1 n=c#6 v=75
36579 On ch=1 n=c6 v=88
36580 On ch=1 n=c#6 v=0
36639 On ch=1 n=c6 v=0
36639 On ch=1 n=a#5 v=75
36659 On ch=1 n=a#5 v=0
36660 On ch=1 n=a#5 v=75
36900 On ch=1 n=a#5 v=0
38340 On ch=1 n=a#4 v=75
38520 On ch=1 n=a#4 v=0
38520 On ch=1 n=a#4 v=75
38524 On ch=1 n=a#4 v=0
38540 On ch=1 n=a#4 v=75
38544 On ch=1 n=a#4 v=0
38559 On ch=1 n=c5 v=88
38579 On ch=1 n=c5 v=0
38580 On ch=1 n=c#5 v=88
38700 On ch=1 n=c#5 v=0
38700 On ch=1 n=c5 v=88
38790 On ch=1 n=c5 v=0
38790 On ch=1 n=a#4 v=75
38820 On ch=1 n=a#4 v=0
38820 Par ch=1 c=64 v=127
38820 On ch=1 n=c#5 v=101
39075 On ch=1 n=c#5 v=0
39075 On ch=1 n=c5 v=75
39090 On ch=1 n=c5 v=0
39090 On ch=1 n=g#4 v=75
39105 On ch=1 n=g#4 v=0
39105 On ch=1 n=a4 v=75
39120 On ch=1 n=a4 v=0
39120 On ch=1 n=c5 v=75
39135 On ch=1 n=c5 v=0
39135 On ch=1 n=d#5 v=75
39150 On ch=1 n=d#5 v=0
39150 On ch=1 n=g#5 v=75
39165 On ch=1 n=g#5 v=0
39165 On ch=1 n=f#5 v=75
39180 On ch=1 n=f#5 v=0
39180 On ch=1 n=d5 v=75
39195 On ch=1 n=d5 v=0
39195 On ch=1 n=d#5 v=75
39210 On ch=1 n=d#5 v=0
39210 On ch=1 n=f#5 v=75
39225 On ch=1 n=f#5 v=0
39225 On ch=1 n=a5 v=75
39240 On ch=1 n=a5 v=0
39240 On ch=1 n=c#6 v=75
39255 On ch=1 n=c#6 v=0
39255 On ch=1 n=c6 v=75
39270 On ch=1 n=c6 v=0
39270 On ch=1 n=g#5 v=75
39285 On ch=1 n=g#5 v=0
39285 On ch=1 n=a5 v=75
39300 On ch=1 n=a5 v=0
39300 On ch=1 n=c6 v=75
39315 On ch=1 n=c6 v=0
39315 On ch=1 n=d#6 v=75
39330 On ch=1 n=d#6 v=0
39330 On ch=1 n=g#6 v=75
39345 On ch=1 n=g#6 v=0
39345 On ch=1 n=f#6 v=75
39360 On ch=1 n=f#6 v=0
39360 On ch=1 n=d6 v=75
39375 On ch=1 n=d6 v=0
39375 On ch=1 n=d#6 v=75
39390 On ch=1 n=d#6 v=0
39390 On ch=1 n=f#6 v=75
39405 On ch=1 n=f#6 v=0
39405 On ch=1 n=a6 v=75
39420 On ch=1 n=a6 v=0
39420 On ch=1 n=c#7 v=75
39435 On ch=1 n=c#7 v=0
39435 On ch=1 n=c7 v=75
39450 On ch=1 n=c7 v=0
39450 On ch=1 n=g#6 v=75
39465 On ch=1 n=g#6 v=0
39465 On ch=1 n=a6 v=75
39480 On ch=1 n=a6 v=0
39480 On ch=1 n=c7 v=75
39495 On ch=1 n=c7 v=0
39495 On ch=1 n=d#7 v=75
39510 On ch=1 n=d#7 v=0
39510 On ch=1 n=g#7 v=88
39525 On ch=1 n=g#7 v=0
39525 On ch=1 n=f#7 v=88
39540 On ch=1 n=f#7 v=0
39540 On ch=1 n=d7 v=88
39555 On ch=1 n=d7 v=0
39555 On ch=1 n=d#7 v=88
39570 On ch=1 n=d#7 v=0
39570 On ch=1 n=f#7 v=88
39585 On ch=1 n=f#7 v=0
39585 On ch=1 n=a7 v=88
39600 On ch=1 n=a7 v=0
39600 On ch=1 n=c#8 v=88
39615 On ch=1 n=c#8 v=0
39615 On ch=1 n=c8 v=88
39630 On ch=1 n=c8 v=0
39630 On ch=1 n=g#7 v=88
39645 On ch=1 n=g#7 v=0
39645 On ch=1 n=a7 v=88
39660 On ch=1 n=a7 v=0
39660 On ch=1 n=c8 v=101
39675 On ch=1 n=c8 v=0
39675 On ch=1 n=d#8 v=101
39690 On ch=1 n=d#8 v=0
39690 On ch=1 n=f#8 v=101
39705 On ch=1 n=f#8 v=0
39705 On ch=1 n=c8 v=101
39720 On ch=1 n=c8 v=0
39720 On ch=1 n=d#8 v=101
39735 On ch=1 n=d#8 v=0
39735 On ch=1 n=b7 v=101
39750 On ch=1 n=b7 v=0
39750 On ch=1 n=f#8 v=101
39765 On ch=1 n=f#8 v=0
39765 On ch=1 n=a#7 v=101
39780 On ch=1 n=a#7 v=0
39780 On ch=1 n=d#8 v=101
39795 On ch=1 n=d#8 v=0
39795 On ch=1 n=a7 v=101
39810 On ch=1 n=a7 v=0
39810 On ch=1 n=f#8 v=101
39825 On ch=1 n=f#8 v=0
39825 On ch=1 n=a#7 v=101
39840 On ch=1 n=a#7 v=0
39840 On ch=1 n=d#8 v=101
39855 On ch=1 n=d#8 v=0
39855 On ch=1 n=b7 v=101
39870 On ch=1 n=b7 v=0
39870 On ch=1 n=f#8 v=101
39885 On ch=1 n=f#8 v=0
39885 On ch=1 n=c8 v=101
39900 On ch=1 n=c8 v=0
39900 On ch=1 n=d#8 v=101
39915 On ch=1 n=d#8 v=0
39915 On ch=1 n=b7 v=101
39930 On ch=1 n=b7 v=0
39930 On ch=1 n=f#8 v=101
39945 On ch=1 n=f#8 v=0
39945 On ch=1 n=a#7 v=101
39960 On ch=1 n=a#7 v=0
39960 On ch=1 n=d#8 v=101
39975 On ch=1 n=d#8 v=0
39975 On ch=1 n=a7 v=101
39990 On ch=1 n=a7 v=0
39990 On ch=1 n=f#8 v=101
40005 On ch=1 n=f#8 v=0
40005 On ch=1 n=a#7 v=101
40020 On ch=1 n=a#7 v=0
40020 On ch=1 n=d#8 v=101
40035 On ch=1 n=d#8 v=0
40035 On ch=1 n=b7 v=101
40050 On ch=1 n=b7 v=0
40050 On ch=1 n=f#8 v=101
40065 On ch=1 n=f#8 v=0
40065 On ch=1 n=c8 v=101
40080 On ch=1 n=c8 v=0
40080 On ch=1 n=d#8 v=101
40095 On ch=1 n=d#8 v=0
40095 On ch=1 n=b7 v=101
40110 On ch=1 n=b7 v=0
40110 On ch=1 n=f#8 v=101
40125 On ch=1 n=f#8 v=0
40125 On ch=1 n=a#7 v=101
40140 On ch=1 n=a#7 v=0
40140 On ch=1 n=d#8 v=101
40155 On ch=1 n=d#8 v=0
40155 On ch=1 n=a7 v=101
40170 On ch=1 n=a7 v=0
40170 On ch=1 n=c8 v=101
40185 On ch=1 n=c8 v=0
40185 On ch=1 n=g#7 v=101
40200 On ch=1 n=g#7 v=0
40200 On ch=1 n=d#8 v=101
40215 On ch=1 n=d#8 v=0
40215 On ch=1 n=g7 v=101
40230 On ch=1 n=g7 v=0
40230 On ch=1 n=c8 v=101
40245 On ch=1 n=c8 v=0
40245 On ch=1 n=f#7 v=101
40260 On ch=1 n=f#7 v=0
40260 On ch=1 n=a7 v=101
40275 On ch=1 n=a7 v=0
40275 On ch=1 n=f7 v=101
40290 On ch=1 n=f7 v=0
40290 On ch=1 n=c8 v=101
40305 On ch=1 n=c8 v=0
40305 On ch=1 n=e7 v=101
40320 On ch=1 n=e7 v=0
40320 On ch=1 n=a7 v=101
40335 On ch=1 n=a7 v=0
40335 On ch=1 n=d#7 v=101
40350 On ch=1 n=d#7 v=0
40350 On ch=1 n=f#7 v=101
40365 On ch=1 n=f#7 v=0
40365 On ch=1 n=d7 v=101
40380 On ch=1 n=d7 v=0
40380 On ch=1 n=f#7 v=101
40395 On ch=1 n=f#7 v=0
40395 On ch=1 n=c7 v=101
40410 On ch=1 n=c7 v=0
40410 On ch=1 n=d#7 v=101
40425 On ch=1 n=d#7 v=0
40425 On ch=1 n=b6 v=101
40440 On ch=1 n=b6 v=0
40440 On ch=1 n=f#7 v=101
40455 On ch=1 n=f#7 v=0
40455 On ch=1 n=a#6 v=101
40470 On ch=1 n=a#6 v=0
40470 On ch=1 n=d#7 v=101
40485 On ch=1 n=d#7 v=0
40485 On ch=1 n=a6 v=101
40500 On ch=1 n=a6 v=0
40500 On ch=1 n=c7 v=101
40515 On ch=1 n=c7 v=0
40515 On ch=1 n=g#6 v=101
40530 On ch=1 n=g#6 v=0
40530 On ch=1 n=d#7 v=101
40545 On ch=1 n=d#7 v=0
40545 On ch=1 n=g6 v=101
40560 On ch=1 n=g6 v=0
40560 On ch=1 n=c7 v=101
40575 On ch=1 n=c7 v=0
40575 On ch=1 n=f#6 v=101
40590 On ch=1 n=f#6 v=0
40590 On ch=1 n=a6 v=101
40605 On ch=1 n=a6 v=0
40605 On ch=1 n=f6 v=101
40620 On ch=1 n=f6 v=0
40620 On ch=1 n=c7 v=101
40635 On ch=1 n=c7 v=0
40635 On ch=1 n=e6 v=101
40650 On ch=1 n=e6 v=0
40650 On ch=1 n=a6 v=101
40665 On ch=1 n=a6 v=0
40665 On ch=1 n=d#6 v=101
40680 On ch=1 n=d#6 v=0
40680 On ch=1 n=f#6 v=101
40695 On ch=1 n=f#6 v=0
40695 On ch=1 n=d6 v=101
40710 On ch=1 n=d6 v=0
40710 On ch=1 n=a6 v=101
40725 On ch=1 n=a6 v=0
40725 On ch=1 n=c#6 v=101
40740 On ch=1 n=c#6 v=0
40740 On ch=1 n=f#6 v=101
40755 On ch=1 n=f#6 v=0
40755 On ch=1 n=c6 v=101
40770 On ch=1 n=c6 v=0
40770 On ch=1 n=d#6 v=88
40785 On ch=1 n=d#6 v=0
40785 On ch=1 n=b5 v=88
40800 On ch=1 n=b5 v=0
40800 On ch=1 n=f#6 v=88
40815 On ch=1 n=f#6 v=0
40815 On ch=1 n=a#5 v=88
40830 On ch=1 n=a#5 v=0
40830 On ch=1 n=d#6 v=88
40845 On ch=1 n=d#6 v=0
40845 On ch=1 n=a5 v=88
40860 On ch=1 n=a5 v=0
40860 On ch=1 n=c6 v=88
40875 On ch=1 n=c6 v=0
40875 On ch=1 n=g#5 v=88
40890 On ch=1 n=g#5 v=0
40890 On ch=1 n=d#6 v=75
40905 On ch=1 n=d#6 v=0
40905 On ch=1 n=g5 v=75
40920 On ch=1 n=g5 v=0
40920 On ch=1 n=c6 v=75
40935 On ch=1 n=c6 v=0
40935 On ch=1 n=f#5 v=75
40950 On ch=1 n=f#5 v=0
40950 On ch=1 n=a5 v=75
40965 On ch=1 n=a5 v=0
40965 On ch=1 n=f5 v=75
40980 On ch=1 n=f5 v=0
40980 On ch=1 n=c6 v=75
40995 On ch=1 n=c6 v=0
40995 On ch=1 n=e5 v=75
41010 On ch=1 n=e5 v=0
41010 On ch=1 n=a5 v=75
41025 On ch=1 n=a5 v=0
41025 On ch=1 n=f#5 v=75
41040 On ch=1 n=f#5 v=0
41040 On ch=1 n=c6 v=75
41055 On ch=1 n=c6 v=0
41055 On ch=1 n=f5 v=75
41070 On ch=1 n=f5 v=0
41070 On ch=1 n=a5 v=75
41085 On ch=1 n=a5 v=0
41085 On ch=1 n=e5 v=75
41100 On ch=1 n=e5 v=0
41100 Par ch=1 c=64 v=0
41100 On ch=1 n=c6 v=75
41115 On ch=1 n=c6 v=0
41115 On ch=1 n=f#5 v=75
41130 On ch=1 n=f#5 v=0
41130 On ch=1 n=a5 v=75
41145 On ch=1 n=a5 v=0
41145 On ch=1 n=f5 v=75
41160 On ch=1 n=f5 v=0
41160 On ch=1 n=c6 v=62
41175 On ch=1 n=c6 v=0
41175 On ch=1 n=e5 v=62
41190 On ch=1 n=e5 v=0
41190 On ch=1 n=a5 v=62
41205 On ch=1 n=a5 v=0
41205 On ch=1 n=f#5 v=62
41220 On ch=1 n=f#5 v=0
41220 On ch=1 n=c6 v=62
41235 On ch=1 n=c6 v=0
41235 On ch=1 n=f5 v=62
41250 On ch=1 n=f5 v=0
41250 On ch=1 n=a5 v=62
41265 On ch=1 n=a5 v=0
41265 On ch=1 n=e5 v=62
41280 On ch=1 n=e5 v=0
41280 On ch=1 n=c6 v=62
41295 On ch=1 n=c6 v=0
41295 On ch=1 n=f#5 v=62
41310 On ch=1 n=f#5 v=0
41310 On ch=1 n=a5 v=62
41325 On ch=1 n=a5 v=0
41325 On ch=1 n=f5 v=62
41340 On ch=1 n=f5 v=0
41340 On ch=1 n=c6 v=62
41355 On ch=1 n=c6 v=0
41355 On ch=1 n=e5 v=62
41370 On ch=1 n=e5 v=0
41370 On ch=1 n=a5 v=62
41385 On ch=1 n=a5 v=0
41385 On ch=1 n=f#5 v=62
41400 On ch=1 n=f#5 v=0
41400 On ch=1 n=c6 v=62
41415 On ch=1 n=c6 v=0
41415 On ch=1 n=f5 v=62
41430 On ch=1 n=f5 v=0
41430 On ch=1 n=a5 v=62
41445 On ch=1 n=a5 v=0
41445 On ch=1 n=e5 v=62
41490 On ch=1 n=e5 v=0
41490 On ch=1 n=f5 v=49
41496 On ch=1 n=f5 v=0
41550 On ch=1 n=f5 v=75
41670 On ch=1 n=f5 v=0
41670 On ch=1 n=f5 v=49
41676 On ch=1 n=f5 v=0
41790 On ch=1 n=f5 v=75
41910 On ch=1 n=f5 v=0
41910 On ch=1 n=f5 v=49
41916 On ch=1 n=f5 v=0
42030 On ch=1 n=f5 v=36
42150 On ch=1 n=f5 v=0
42150 On ch=1 n=f5 v=36
42156 On ch=1 n=f5 v=0
42210 On ch=1 n=f5 v=49
42214 On ch=1 n=f5 v=0
42240 On ch=1 n=g5 v=49
42244 On ch=1 n=g5 v=0
42270 On ch=1 n=a5 v=49
42274 On ch=1 n=a5 v=0
42300 On ch=1 n=a#5 v=49
42304 On ch=1 n=a#5 v=0
42330 On ch=1 n=c6 v=49
42334 On ch=1 n=c6 v=0
42360 On ch=1 n=a#5 v=49
42364 On ch=1 n=a#5 v=0
42390 On ch=1 n=a5 v=49
42394 On ch=1 n=a5 v=0
42420 On ch=1 n=a#5 v=49
42424 On ch=1 n=a#5 v=0
42450 On ch=1 n=c6 v=49
42510 On ch=1 n=c6 v=0
42510 On ch=1 n=c6 v=75
42630 On ch=1 n=c6 v=0
42630 On ch=1 n=c6 v=49
42720 On ch=1 n=c6 v=0
42720 On ch=1 n=d6 v=49
42724 On ch=1 n=d6 v=0
42750 On ch=1 n=d6 v=49
42754 On ch=1 n=d6 v=0
42780 On ch=1 n=d#6 v=49
42784 On ch=1 n=d#6 v=0
42810 On ch=1 n=d#6 v=49
42814 On ch=1 n=d#6 v=0
42840 On ch=1 n=d6 v=49
42844 On ch=1 n=d6 v=0
42870 On ch=1 n=d6 v=49
42874 On ch=1 n=d6 v=0
42900 On ch=1 n=c6 v=49
42904 On ch=1 n=c6 v=0
42930 On ch=1 n=d6 v=49
42936 On ch=1 n=d6 v=0
42990 On ch=1 n=d6 v=75
43110 On ch=1 n=d6 v=0
43110 On ch=1 n=d6 v=49
43116 On ch=1 n=d6 v=0
43170 On ch=1 n=d#6 v=49
43174 On ch=1 n=d#6 v=0
43200 On ch=1 n=d6 v=49
43204 On ch=1 n=d6 v=0
43230 On ch=1 n=c6 v=49
43234 On ch=1 n=c6 v=0
43260 On ch=1 n=a#5 v=49
43264 On ch=1 n=a#5 v=0
43290 On ch=1 n=a5 v=49
43294 On ch=1 n=a5 v=0
43320 On ch=1 n=g5 v=49
43324 On ch=1 n=g5 v=0
43350 On ch=1 n=a5 v=49
43354 On ch=1 n=a5 v=0
43380 On ch=1 n=a#5 v=49
43384 On ch=1 n=a#5 v=0
43410 On ch=1 n=c6 v=49
43416 On ch=1 n=c6 v=0
43470 On ch=1 n=c6 v=75
43590 On ch=1 n=c6 v=0
43590 On ch=1 n=c6 v=49
43680 On ch=1 n=c6 v=0
43680 On ch=1 n=f5 v=49
43684 On ch=1 n=f5 v=0
43710 On ch=1 n=f5 v=49
43714 On ch=1 n=f5 v=0
43740 On ch=1 n=f6 v=49
43744 On ch=1 n=f6 v=0
43770 On ch=1 n=f6 v=49
43774 On ch=1 n=f6 v=0
43800 On ch=1 n=c6 v=49
43804 On ch=1 n=c6 v=0
43830 On ch=1 n=c6 v=49
43834 On ch=1 n=c6 v=0
43860 On ch=1 n=d6 v=49
43864 On ch=1 n=d6 v=0
43890 On ch=1 n=a#5 v=49
43950 On ch=1 n=a#5 v=0
43950 On ch=1 n=a#5 v=49
44070 On ch=1 n=a#5 v=0
44070 On ch=1 n=a#5 v=49
44130 On ch=1 n=a#5 v=0
44130 Par ch=1 c=64 v=127
44130 On ch=1 n=f5 v=49
44130 On ch=1 n=f6 v=49
44134 On ch=1 n=f6 v=0
44134 On ch=1 n=f5 v=0
44160 On ch=1 n=g5 v=49
44160 On ch=1 n=g6 v=49
44164 On ch=1 n=g6 v=0
44164 On ch=1 n=g5 v=0
44190 On ch=1 n=a5 v=49
44190 On ch=1 n=a6 v=49
44194 On ch=1 n=a6 v=0
44194 On ch=1 n=a5 v=0
44220 On ch=1 n=a#5 v=49
44220 On ch=1 n=a#6 v=49
44224 On ch=1 n=a#6 v=0
44224 On ch=1 n=a#5 v=0
44250 On ch=1 n=c6 v=49
44250 On ch=1 n=c7 v=49
44254 On ch=1 n=c7 v=0
44254 On ch=1 n=c6 v=0
44280 On ch=1 n=a#5 v=49
44280 On ch=1 n=a#6 v=49
44284 On ch=1 n=a#6 v=0
44284 On ch=1 n=a#5 v=0
44310 On ch=1 n=a5 v=49
44310 On ch=1 n=a6 v=49
44314 On ch=1 n=a6 v=0
44314 On ch=1 n=a5 v=0
44340 Par ch=1 c=64 v=0
44340 On ch=1 n=a#5 v=49
44340 On ch=1 n=a#6 v=49
44344 On ch=1 n=a#6 v=0
44344 On ch=1 n=a#5 v=0
44370 Par ch=1 c=64 v=127
44370 On ch=1 n=c6 v=49
44370 On ch=1 n=c7 v=49
44376 On ch=1 n=c7 v=0
44376 On ch=1 n=c6 v=0
44430 On ch=1 n=c6 v=67
44430 On ch=1 n=c7 v=75
44550 On ch=1 n=c7 v=0
44550 On ch=1 n=c6 v=0
44550 On ch=1 n=c6 v=49
44550 On ch=1 n=c7 v=49
44640 On ch=1 n=c7 v=0
44640 On ch=1 n=c6 v=0
44640 On ch=1 n=d6 v=49
44640 On ch=1 n=d7 v=49
44644 On ch=1 n=d7 v=0
44644 On ch=1 n=d6 v=0
44670 On ch=1 n=d6 v=49
44670 On ch=1 n=d7 v=49
44674 On ch=1 n=d7 v=0
44674 On ch=1 n=d6 v=0
44700 On ch=1 n=d#6 v=49
44700 On ch=1 n=d#7 v=49
44704 On ch=1 n=d#7 v=0
44704 On ch=1 n=d#6 v=0
44730 On ch=1 n=d#6 v=49
44730 On ch=1 n=d#7 v=49
44734 On ch=1 n=d#7 v=0
44734 On ch=1 n=d#6 v=0
44760 On ch=1 n=d6 v=49
44760 On ch=1 n=d7 v=49
44764 On ch=1 n=d7 v=0
44764 On ch=1 n=d6 v=0
44790 On ch=1 n=d6 v=49
44790 On ch=1 n=d7 v=49
44794 On ch=1 n=d7 v=0
44794 On ch=1 n=d6 v=0
44820 Par ch=1 c=64 v=0
44820 On ch=1 n=c6 v=49
44820 On ch=1 n=c7 v=49
44824 On ch=1 n=c7 v=0
44824 On ch=1 n=c6 v=0
44850 Par ch=1 c=64 v=127
44850 On ch=1 n=d6 v=49
44850 On ch=1 n=d7 v=49
44856 On ch=1 n=d7 v=0
44856 On ch=1 n=d6 v=0
44910 On ch=1 n=d6 v=67
44910 On ch=1 n=d7 v=75
45030 On ch=1 n=d7 v=0
45030 On ch=1 n=d6 v=0
45030 On ch=1 n=d6 v=49
45030 On ch=1 n=d7 v=49
45090 On ch=1 n=d7 v=0
45090 On ch=1 n=d6 v=0
45090 On ch=1 n=d#6 v=49
45090 On ch=1 n=d#7 v=49
45094 On ch=1 n=d#7 v=0
45094 On ch=1 n=d#6 v=0
45120 On ch=1 n=d6 v=49
45120 On ch=1 n=d7 v=49
45124 On ch=1 n=d7 v=0
45124 On ch=1 n=d6 v=0
45150 On ch=1 n=c6 v=49
45150 On ch=1 n=c7 v=49
45154 On ch=1 n=c7 v=0
45154 On ch=1 n=c6 v=0
45180 On ch=1 n=a#5 v=49
45180 On ch=1 n=a#6 v=49
45184 On ch=1 n=a#6 v=0
45184 On ch=1 n=a#5 v=0
45210 On ch=1 n=a5 v=49
45210 On ch=1 n=a6 v=49
45214 On ch=1 n=a6 v=0
45214 On ch=1 n=a5 v=0
45240 On ch=1 n=g5 v=49
45240 On ch=1 n=g6 v=49
45244 On ch=1 n=g6 v=0
45244 On ch=1 n=g5 v=0
45270 On ch=1 n=a5 v=49
45270 On ch=1 n=a6 v=49
45274 On ch=1 n=a6 v=0
45274 On ch=1 n=a5 v=0
45300 Par ch=1 c=64 v=0
45300 On ch=1 n=a#5 v=49
45300 On ch=1 n=a#6 v=49
45304 On ch=1 n=a#6 v=0
45304 On ch=1 n=a#5 v=0
45330 Par ch=1 c=64 v=127
45330 On ch=1 n=c6 v=49
45330 On ch=1 n=c7 v=49
45336 On ch=1 n=c7 v=0
45336 On ch=1 n=c6 v=0
45390 On ch=1 n=c6 v=67
45390 On ch=1 n=c7 v=75
45510 On ch=1 n=c7 v=0
45510 On ch=1 n=c6 v=0
45510 On ch=1 n=c6 v=49
45510 On ch=1 n=c7 v=49
45600 On ch=1 n=c7 v=0
45600 On ch=1 n=c6 v=0
45600 On ch=1 n=f5 v=49
45600 On ch=1 n=f6 v=49
45604 On ch=1 n=f6 v=0
45604 On ch=1 n=f5 v=0
45630 On ch=1 n=f5 v=49
45630 On ch=1 n=f6 v=49
45634 On ch=1 n=f6 v=0
45634 On ch=1 n=f5 v=0
45660 On ch=1 n=f6 v=49
45660 On ch=1 n=f7 v=49
45664 On ch=1 n=f7 v=0
45664 On ch=1 n=f6 v=0
45690 On ch=1 n=f6 v=49
45690 On ch=1 n=f7 v=49
45694 On ch=1 n=f7 v=0
45694 On ch=1 n=f6 v=0
45720 On ch=1 n=c6 v=49
45720 On ch=1 n=c7 v=49
45724 On ch=1 n=c7 v=0
45724 On ch=1 n=c6 v=0
45750 On ch=1 n=c6 v=49
45750 On ch=1 n=c7 v=49
45754 On ch=1 n=c7 v=0
45754 On ch=1 n=c6 v=0
45780 Par ch=1 c=64 v=0
45780 On ch=1 n=d6 v=49
45780 On ch=1 n=d7 v=49
45784 On ch=1 n=d7 v=0
45784 On ch=1 n=d6 v=0
45810 Par ch=1 c=64 v=127
45810 On ch=1 n=a#5 v=49
45810 On ch=1 n=a#6 v=49
45816 On ch=1 n=a#6 v=0
45816 On ch=1 n=a#5 v=0
45870 On ch=1 n=a#5 v=67
45870 On ch=1 n=a#6 v=75
45990 On ch=1 n=a#6 v=0
45990 On ch=1 n=a#5 v=0
45990 On ch=1 n=f5 v=49
45990 On ch=1 n=f6 v=49
45994 On ch=1 n=f6 v=0
45994 On ch=1 n=f5 v=0
46020 Par ch=1 c=64 v=0
46020 On ch=1 n=g5 v=49
46020 On ch=1 n=g6 v=49
46024 On ch=1 n=g6 v=0
46024 On ch=1 n=g5 v=0
46050 Par ch=1 c=64 v=127
46050 On ch=1 n=a5 v=62
46050 On ch=1 n=a6 v=62
46054 On ch=1 n=a6 v=0
46054 On ch=1 n=a5 v=0
46080 On ch=1 n=a#5 v=62
46080 On ch=1 n=a#6 v=62
46084 On ch=1 n=a#6 v=0
46084 On ch=1 n=a#5 v=0
46110 On ch=1 n=c#6 v=62
46110 On ch=1 n=c#7 v=62
46114 On ch=1 n=c#7 v=0
46114 On ch=1 n=c#6 v=0
46140 On ch=1 n=d6 v=62
46140 On ch=1 n=d7 v=62
46144 On ch=1 n=d7 v=0
46144 On ch=1 n=d6 v=0
46170 On ch=1 n=d#6 v=62
46170 On ch=1 n=d#7 v=62
46174 On ch=1 n=d#7 v=0
46174 On ch=1 n=d#6 v=0
46200 On ch=1 n=d6 v=62
46200 On ch=1 n=d7 v=62
46204 On ch=1 n=d7 v=0
46204 On ch=1 n=d6 v=0
46230 On ch=1 n=c#6 v=62
46230 On ch=1 n=c#7 v=62
46234 On ch=1 n=c#7 v=0
46234 On ch=1 n=c#6 v=0
46260 Par ch=1 c=64 v=0
46260 On ch=1 n=d6 v=62
46260 On ch=1 n=d7 v=62
46264 On ch=1 n=d7 v=0
46264 On ch=1 n=d6 v=0
46290 Par ch=1 c=64 v=127
46290 On ch=1 n=e6 v=62
46290 On ch=1 n=e7 v=62
46350 On ch=1 n=e7 v=0
46350 On ch=1 n=e6 v=0
46350 On ch=1 n=e6 v=80
46350 On ch=1 n=e7 v=88
46470 On ch=1 n=e7 v=0
46470 On ch=1 n=e6 v=0
46470 Par ch=1 c=64 v=0
46470 On ch=1 n=e6 v=62
46470 On ch=1 n=e7 v=62
46530 Par ch=1 c=64 v=127
46560 On ch=1 n=e7 v=0
46560 On ch=1 n=e6 v=0
46560 On ch=1 n=f#6 v=62
46560 On ch=1 n=f#7 v=62
46564 On ch=1 n=f#7 v=0
46564 On ch=1 n=f#6 v=0
46590 On ch=1 n=f#6 v=62
46590 On ch=1 n=f#7 v=62
46594 On ch=1 n=f#7 v=0
46594 On ch=1 n=f#6 v=0
46620 On ch=1 n=g6 v=62
46620 On ch=1 n=g7 v=62
46624 On ch=1 n=g7 v=0
46624 On ch=1 n=g6 v=0
46650 On ch=1 n=g6 v=62
46650 On ch=1 n=g7 v=62
46654 On ch=1 n=g7 v=0
46654 On ch=1 n=g6 v=0
46680 On ch=1 n=f#6 v=62
46680 On ch=1 n=f#7 v=62
46684 On ch=1 n=f#7 v=0
46684 On ch=1 n=f#6 v=0
46710 On ch=1 n=f#6 v=62
46710 On ch=1 n=f#7 v=62
46714 On ch=1 n=f#7 v=0
46714 On ch=1 n=f#6 v=0
46740 Par ch=1 c=64 v=0
46740 On ch=1 n=e6 v=62
46740 On ch=1 n=e7 v=62
46744 On ch=1 n=e7 v=0
46744 On ch=1 n=e6 v=0
46770 Par ch=1 c=64 v=127
46770 On ch=1 n=f#6 v=62
46770 On ch=1 n=f#7 v=62
46830 On ch=1 n=f#7 v=0
46830 On ch=1 n=f#6 v=0
46830 On ch=1 n=f#6 v=80
46830 On ch=1 n=f#7 v=88
46950 On ch=1 n=f#7 v=0
46950 On ch=1 n=f#6 v=0
46950 Par ch=1 c=64 v=0
46950 On ch=1 n=f#6 v=62
46950 On ch=1 n=f#7 v=62
47010 On ch=1 n=f#7 v=0
47010 On ch=1 n=f#6 v=0
47010 Par ch=1 c=64 v=127
47010 On ch=1 n=g6 v=62
47010 On ch=1 n=g7 v=62
47014 On ch=1 n=g7 v=0
47014 On ch=1 n=g6 v=0
47040 On ch=1 n=f#6 v=62
47040 On ch=1 n=f#7 v=62
47044 On ch=1 n=f#7 v=0
47044 On ch=1 n=f#6 v=0
47070 On ch=1 n=e6 v=62
47070 On ch=1 n=e7 v=62
47074 On ch=1 n=e7 v=0
47074 On ch=1 n=e6 v=0
47100 On ch=1 n=d6 v=62
47100 On ch=1 n=d7 v=62
47104 On ch=1 n=d7 v=0
47104 On ch=1 n=d6 v=0
47130 On ch=1 n=c#6 v=62
47130 On ch=1 n=c#7 v=62
47134 On ch=1 n=c#7 v=0
47134 On ch=1 n=c#6 v=0
47160 On ch=1 n=a#5 v=62
47160 On ch=1 n=a#6 v=62
47164 On ch=1 n=a#6 v=0
47164 On ch=1 n=a#5 v=0
47190 On ch=1 n=c#6 v=62
47190 On ch=1 n=c#7 v=62
47194 On ch=1 n=c#7 v=0
47194 On ch=1 n=c#6 v=0
47220 Par ch=1 c=64 v=0
47220 On ch=1 n=d6 v=62
47220 On ch=1 n=d7 v=62
47224 On ch=1 n=d7 v=0
47224 On ch=1 n=d6 v=0
47250 Par ch=1 c=64 v=127
47250 On ch=1 n=e6 v=62
47250 On ch=1 n=e7 v=62
47310 On ch=1 n=e7 v=0
47310 On ch=1 n=e6 v=0
47310 On ch=1 n=e6 v=80
47310 On ch=1 n=e7 v=88
47430 On ch=1 n=e7 v=0
47430 On ch=1 n=e6 v=0
47430 Par ch=1 c=64 v=0
47430 On ch=1 n=e6 v=62
47430 On ch=1 n=e7 v=62
47490 Par ch=1 c=64 v=127
47520 On ch=1 n=e7 v=0
47520 On ch=1 n=e6 v=0
47520 On ch=1 n=a5 v=62
47520 On ch=1 n=a6 v=62
47524 On ch=1 n=a6 v=0
47524 On ch=1 n=a5 v=0
47550 On ch=1 n=a5 v=62
47550 On ch=1 n=a6 v=62
47554 On ch=1 n=a6 v=0
47554 On ch=1 n=a5 v=0
47580 On ch=1 n=a6 v=62
47580 On ch=1 n=a7 v=62
47584 On ch=1 n=a7 v=0
47584 On ch=1 n=a6 v=0
47610 On ch=1 n=a6 v=62
47610 On ch=1 n=a7 v=62
47614 On ch=1 n=a7 v=0
47614 On ch=1 n=a6 v=0
47640 On ch=1 n=e6 v=62
47640 On ch=1 n=e7 v=62
47644 On ch=1 n=e7 v=0
47644 On ch=1 n=e6 v=0
47670 On ch=1 n=e6 v=62
47670 On ch=1 n=e7 v=62
47674 On ch=1 n=e7 v=0
47674 On ch=1 n=e6 v=0
47700 Par ch=1 c=64 v=0
47700 On ch=1 n=f#6 v=62
47700 On ch=1 n=f#7 v=62
47704 On ch=1 n=f#7 v=0
47704 On ch=1 n=f#6 v=0
47730 On ch=1 n=d6 v=88
47730 On ch=1 n=d7 v=88
47736 On ch=1 n=d7 v=0
47736 On ch=1 n=d6 v=0
47790 On ch=1 n=d6 v=106
47790 On ch=1 n=d7 v=114
47910 On ch=1 n=d7 v=0
47910 On ch=1 n=d6 v=0
47910 On ch=1 n=d6 v=88
47910 On ch=1 n=d7 v=88
48030 On ch=1 n=d7 v=0
48030 On ch=1 n=d6 v=0
48030 On ch=1 n=d6 v=75
48030 On ch=1 n=d7 v=75
48150 On ch=1 n=d7 v=0
48150 On ch=1 n=d6 v=0
48150 On ch=1 n=d6 v=75
48150 On ch=1 n=d7 v=75
48270 On ch=1 n=d7 v=0
48270 On ch=1 n=d6 v=0
48270 On ch=1 n=d6 v=106
48270 On ch=1 n=d7 v=114
48390 On ch=1 n=d7 v=0
48390 On ch=1 n=d6 v=0
48390 On ch=1 n=d6 v=88
48390 On ch=1 n=d7 v=88
48510 On ch=1 n=d7 v=0
48510 On ch=1 n=d6 v=0
48510 On ch=1 n=d6 v=93
48510 On ch=1 n=d7 v=101
48630 On ch=1 n=d7 v=0
48630 On ch=1 n=d6 v=0
48630 On ch=1 n=d6 v=75
48630 On ch=1 n=d7 v=75
48750 On ch=1 n=d7 v=0
48750 On ch=1 n=d6 v=0
48750 On ch=1 n=d6 v=75
48750 On ch=1 n=d7 v=75
48870 On ch=1 n=d7 v=0
48870 On ch=1 n=d6 v=0
48870 On ch=1 n=d6 v=75
48870 On ch=1 n=d7 v=75
48936 On ch=1 n=d7 v=0
48936 On ch=1 n=d6 v=0
48990 On ch=1 n=d6 v=93
48990 On ch=1 n=d7 v=101
49110 On ch=1 n=d7 v=0
49110 On ch=1 n=d6 v=0
49110 On ch=1 n=d6 v=75
49110 On ch=1 n=d7 v=75
49230 On ch=1 n=d7 v=0
49230 On ch=1 n=d6 v=0
49230 On ch=1 n=d6 v=93
49230 On ch=1 n=d7 v=101
49350 On ch=1 n=d7 v=0
49350 On ch=1 n=d6 v=0
49350 On ch=1 n=d6 v=75
49350 On ch=1 n=d7 v=75
49470 On ch=1 n=d7 v=0
49470 On ch=1 n=d6 v=0
49470 On ch=1 n=d6 v=67
49470 On ch=1 n=d7 v=75
49590 On ch=1 n=d7 v=0
49590 On ch=1 n=d6 v=0
49590 On ch=1 n=d6 v=49
49590 On ch=1 n=d7 v=49
49650 On ch=1 n=d7 v=0
49650 On ch=1 n=d6 v=0
49650 Par ch=1 c=64 v=127
49650 On ch=1 n=f5 v=49
49650 On ch=1 n=f6 v=49
49654 On ch=1 n=f6 v=0
49654 On ch=1 n=f5 v=0
49680 On ch=1 n=g5 v=49
49680 On ch=1 n=g6 v=49
49684 On ch=1 n=g6 v=0
49684 On ch=1 n=g5 v=0
49710 On ch=1 n=a5 v=49
49710 On ch=1 n=a6 v=49
49714 On ch=1 n=a6 v=0
49714 On ch=1 n=a5 v=0
49740 On ch=1 n=a#5 v=49
49740 On ch=1 n=a#6 v=49
49744 On ch=1 n=a#6 v=0
49744 On ch=1 n=a#5 v=0
49770 On ch=1 n=c6 v=49
49770 On ch=1 n=c7 v=49
49774 On ch=1 n=c7 v=0
49774 On ch=1 n=c6 v=0
49800 On ch=1 n=a#5 v=49
49800 On ch=1 n=a#6 v=49
49804 On ch=1 n=a#6 v=0
49804 On ch=1 n=a#5 v=0
49830 On ch=1 n=a5 v=49
49830 On ch=1 n=a6 v=49
49834 On ch=1 n=a6 v=0
49834 On ch=1 n=a5 v=0
49860 Par ch=1 c=64 v=0
49860 On ch=1 n=a#5 v=49
49860 On ch=1 n=a#6 v=49
49864 On ch=1 n=a#6 v=0
49864 On ch=1 n=a#5 v=0
49890 Par ch=1 c=64 v=127
49950 On ch=1 n=c6 v=67
49950 On ch=1 n=c7 v=75
50070 On ch=1 n=c7 v=0
50070 On ch=1 n=c6 v=0
50070 On ch=1 n=c6 v=49
50070 On ch=1 n=c7 v=49
50130 On ch=1 n=c7 v=0
50130 On ch=1 n=c6 v=0
50130 On ch=1 n=c6 v=49
50130 On ch=1 n=c7 v=49
50134 On ch=1 n=c7 v=0
50134 On ch=1 n=c6 v=0
50160 On ch=1 n=d6 v=49
50160 On ch=1 n=d7 v=49
50164 On ch=1 n=d7 v=0
50164 On ch=1 n=d6 v=0
50190 On ch=1 n=d6 v=49
50190 On ch=1 n=d7 v=49
50194 On ch=1 n=d7 v=0
50194 On ch=1 n=d6 v=0
50220 On ch=1 n=d#6 v=49
50220 On ch=1 n=d#7 v=49
50224 On ch=1 n=d#7 v=0
50224 On ch=1 n=d#6 v=0
50250 On ch=1 n=d#6 v=49
50250 On ch=1 n=d#7 v=49
50254 On ch=1 n=d#7 v=0
50254 On ch=1 n=d#6 v=0
50280 On ch=1 n=d6 v=49
50280 On ch=1 n=d7 v=49
50284 On ch=1 n=d7 v=0
50284 On ch=1 n=d6 v=0
50310 On ch=1 n=d6 v=49
50310 On ch=1 n=d7 v=49
50314 On ch=1 n=d7 v=0
50314 On ch=1 n=d6 v=0
50340 Par ch=1 c=64 v=0
50340 On ch=1 n=c6 v=49
50340 On ch=1 n=c7 v=49
50344 On ch=1 n=c7 v=0
50344 On ch=1 n=c6 v=0
50370 Par ch=1 c=64 v=127
50430 On ch=1 n=d6 v=67
50430 On ch=1 n=d7 v=75
50550 On ch=1 n=d7 v=0
50550 On ch=1 n=d6 v=0
50550 On ch=1 n=d6 v=49
50550 On ch=1 n=d7 v=49
50610 On ch=1 n=d7 v=0
50610 On ch=1 n=d6 v=0
50610 On ch=1 n=d#6 v=49
50610 On ch=1 n=d#7 v=49
50614 On ch=1 n=d#7 v=0
50614 On ch=1 n=d#6 v=0
50640 On ch=1 n=d6 v=49
50640 On ch=1 n=d7 v=49
50644 On ch=1 n=d7 v=0
50644 On ch=1 n=d6 v=0
50670 On ch=1 n=c6 v=49
50670 On ch=1 n=c7 v=49
50674 On ch=1 n=c7 v=0
50674 On ch=1 n=c6 v=0
50700 On ch=1 n=a#5 v=49
50700 On ch=1 n=a#6 v=49
50704 On ch=1 n=a#6 v=0
50704 On ch=1 n=a#5 v=0
50730 On ch=1 n=a5 v=49
50730 On ch=1 n=a6 v=49
50734 On ch=1 n=a6 v=0
50734 On ch=1 n=a5 v=0
50760 On ch=1 n=g5 v=49
50760 On ch=1 n=g6 v=49
50764 On ch=1 n=g6 v=0
50764 On ch=1 n=g5 v=0
50790 On ch=1 n=a5 v=49
50790 On ch=1 n=a6 v=49
50794 On ch=1 n=a6 v=0
50794 On ch=1 n=a5 v=0
50820 Par ch=1 c=64 v=0
50820 On ch=1 n=a#5 v=49
50820 On ch=1 n=a#6 v=49
50824 On ch=1 n=a#6 v=0
50824 On ch=1 n=a#5 v=0
50850 Par ch=1 c=64 v=127
50910 On ch=1 n=c6 v=67
50910 On ch=1 n=c7 v=75
51030 On ch=1 n=c7 v=0
51030 On ch=1 n=c6 v=0
51030 On ch=1 n=c6 v=49
51030 On ch=1 n=c7 v=49
51090 On ch=1 n=c7 v=0
51090 On ch=1 n=c6 v=0
51090 On ch=1 n=c6 v=49
51090 On ch=1 n=c7 v=49
51120 On ch=1 n=c7 v=0
51120 On ch=1 n=c6 v=0
51120 On ch=1 n=f5 v=49
51120 On ch=1 n=f6 v=49
51124 On ch=1 n=f6 v=0
51124 On ch=1 n=f5 v=0
51150 On ch=1 n=f5 v=49
51150 On ch=1 n=f6 v=49
51154 On ch=1 n=f6 v=0
51154 On ch=1 n=f5 v=0
51180 On ch=1 n=f6 v=49
51180 On ch=1 n=f7 v=49
51184 On ch=1 n=f7 v=0
51184 On ch=1 n=f6 v=0
51210 On ch=1 n=f6 v=49
51210 On ch=1 n=f7 v=49
51214 On ch=1 n=f7 v=0
51214 On ch=1 n=f6 v=0
51240 On ch=1 n=c6 v=49
51240 On ch=1 n=c7 v=49
51244 On ch=1 n=c7 v=0
51244 On ch=1 n=c6 v=0
51270 On ch=1 n=c6 v=49
51270 On ch=1 n=c7 v=49
51274 On ch=1 n=c7 v=0
51274 On ch=1 n=c6 v=0
51300 Par ch=1 c=64 v=0
51300 On ch=1 n=d6 v=49
51300 On ch=1 n=d7 v=49
51304 On ch=1 n=d7 v=0
51304 On ch=1 n=d6 v=0
51330 Par ch=1 c=64 v=127
51390 On ch=1 n=a#5 v=67
51390 On ch=1 n=a#6 v=75
51510 On ch=1 n=a#6 v=0
51510 On ch=1 n=a#5 v=0
51510 On ch=1 n=a#5 v=49
51510 On ch=1 n=a#6 v=49
51570 On ch=1 n=a#6 v=0
51570 On ch=1 n=a#5 v=0
51570 On ch=1 n=f5 v=49
51570 On ch=1 n=f6 v=49
51574 On ch=1 n=f6 v=0
51574 On ch=1 n=f5 v=0
51600 On ch=1 n=g5 v=49
51600 On ch=1 n=g6 v=49
51604 On ch=1 n=g6 v=0
51604 On ch=1 n=g5 v=0
51630 On ch=1 n=a5 v=49
51630 On ch=1 n=a6 v=49
51634 On ch=1 n=a6 v=0
51634 On ch=1 n=a5 v=0
51660 On ch=1 n=a#5 v=49
51660 On ch=1 n=a#6 v=49
51664 On ch=1 n=a#6 v=0
51664 On ch=1 n=a#5 v=0
51690 On ch=1 n=c6 v=49
51690 On ch=1 n=c7 v=49
51694 On ch=1 n=c7 v=0
51694 On ch=1 n=c6 v=0
51720 On ch=1 n=a#5 v=49
51720 On ch=1 n=a#6 v=49
51724 On ch=1 n=a#6 v=0
51724 On ch=1 n=a#5 v=0
51750 On ch=1 n=a5 v=49
51750 On ch=1 n=a6 v=49
51754 On ch=1 n=a6 v=0
51754 On ch=1 n=a5 v=0
51780 Par ch=1 c=64 v=0
51780 On ch=1 n=a#5 v=49
51780 On ch=1 n=a#6 v=49
51784 On ch=1 n=a#6 v=0
51784 On ch=1 n=a#5 v=0
51810 Par ch=1 c=64 v=127
51870 On ch=1 n=c6 v=80
51870 On ch=1 n=c7 v=88
51990 On ch=1 n=c7 v=0
51990 On ch=1 n=c6 v=0
51990 On ch=1 n=c6 v=75
51990 On ch=1 n=c7 v=75
52050 On ch=1 n=c7 v=0
52050 On ch=1 n=c6 v=0
52050 On ch=1 n=c6 v=49
52050 On ch=1 n=c7 v=49
52054 On ch=1 n=c7 v=0
52054 On ch=1 n=c6 v=0
52080 On ch=1 n=d6 v=49
52080 On ch=1 n=d7 v=49
52084 On ch=1 n=d7 v=0
52084 On ch=1 n=d6 v=0
52110 On ch=1 n=d6 v=49
52110 On ch=1 n=d7 v=49
52114 On ch=1 n=d7 v=0
52114 On ch=1 n=d6 v=0
52140 On ch=1 n=d#6 v=49
52140 On ch=1 n=d#7 v=49
52144 On ch=1 n=d#7 v=0
52144 On ch=1 n=d#6 v=0
52170 On ch=1 n=d#6 v=49
52170 On ch=1 n=d#7 v=49
52174 On ch=1 n=d#7 v=0
52174 On ch=1 n=d#6 v=0
52200 On ch=1 n=d6 v=49
52200 On ch=1 n=d7 v=49
52204 On ch=1 n=d7 v=0
52204 On ch=1 n=d6 v=0
52230 On ch=1 n=d6 v=49
52230 On ch=1 n=d7 v=49
52234 On ch=1 n=d7 v=0
52234 On ch=1 n=d6 v=0
52260 Par ch=1 c=64 v=0
52260 On ch=1 n=c6 v=49
52260 On ch=1 n=c7 v=49
52264 On ch=1 n=c7 v=0
52264 On ch=1 n=c6 v=0
52290 Par ch=1 c=64 v=127
52350 On ch=1 n=d6 v=80
52350 On ch=1 n=d7 v=88
52470 On ch=1 n=d7 v=0
52470 On ch=1 n=d6 v=0
52470 On ch=1 n=d6 v=75
52470 On ch=1 n=d7 v=75
52530 On ch=1 n=d7 v=0
52530 On ch=1 n=d6 v=0
52530 On ch=1 n=d#6 v=49
52530 On ch=1 n=d#7 v=49
52534 On ch=1 n=d#7 v=0
52534 On ch=1 n=d#6 v=0
52560 On ch=1 n=d6 v=49
52560 On ch=1 n=d7 v=49
52564 On ch=1 n=d7 v=0
52564 On ch=1 n=d6 v=0
52590 On ch=1 n=c6 v=49
52590 On ch=1 n=c7 v=49
52594 On ch=1 n=c7 v=0
52594 On ch=1 n=c6 v=0
52620 On ch=1 n=a#5 v=49
52620 On ch=1 n=a#6 v=49
52624 On ch=1 n=a#6 v=0
52624 On ch=1 n=a#5 v=0
52650 On ch=1 n=a5 v=49
52650 On ch=1 n=a6 v=49
52654 On ch=1 n=a6 v=0
52654 On ch=1 n=a5 v=0
52680 On ch=1 n=g5 v=49
52680 On ch=1 n=g6 v=49
52684 On ch=1 n=g6 v=0
52684 On ch=1 n=g5 v=0
52710 On ch=1 n=a5 v=49
52710 On ch=1 n=a6 v=49
52714 On ch=1 n=a6 v=0
52714 On ch=1 n=a5 v=0
52740 Par ch=1 c=64 v=0
52740 On ch=1 n=a#5 v=49
52740 On ch=1 n=a#6 v=49
52744 On ch=1 n=a#6 v=0
52744 On ch=1 n=a#5 v=0
52770 Par ch=1 c=64 v=127
52830 On ch=1 n=c6 v=93
52830 On ch=1 n=c7 v=101
52950 On ch=1 n=c7 v=0
52950 On ch=1 n=c6 v=0
52950 On ch=1 n=c6 v=88
52950 On ch=1 n=c7 v=88
53010 On ch=1 n=c7 v=0
53010 On ch=1 n=c6 v=0
53010 On ch=1 n=c6 v=49
53010 On ch=1 n=c7 v=49
53040 On ch=1 n=c7 v=0
53040 On ch=1 n=c6 v=0
53040 On ch=1 n=f5 v=49
53040 On ch=1 n=f6 v=49
53044 On ch=1 n=f6 v=0
53044 On ch=1 n=f5 v=0
53070 On ch=1 n=f5 v=49
53070 On ch=1 n=f6 v=49
53074 On ch=1 n=f6 v=0
53074 On ch=1 n=f5 v=0
53100 On ch=1 n=f6 v=49
53100 On ch=1 n=f7 v=49
53104 On ch=1 n=f7 v=0
53104 On ch=1 n=f6 v=0
53130 On ch=1 n=f6 v=49
53130 On ch=1 n=f7 v=49
53134 On ch=1 n=f7 v=0
53134 On ch=1 n=f6 v=0
53160 On ch=1 n=c6 v=49
53160 On ch=1 n=c7 v=49
53164 On ch=1 n=c7 v=0
53164 On ch=1 n=c6 v=0
53190 On ch=1 n=c6 v=49
53190 On ch=1 n=c7 v=49
53194 On ch=1 n=c7 v=0
53194 On ch=1 n=c6 v=0
53220 Par ch=1 c=64 v=0
53220 On ch=1 n=d6 v=49
53220 On ch=1 n=d7 v=49
53224 On ch=1 n=d7 v=0
53224 On ch=1 n=d6 v=0
53250 Par ch=1 c=64 v=127
53310 On ch=1 n=a#5 v=67
53310 On ch=1 n=a#6 v=75
53430 On ch=1 n=a#6 v=0
53430 On ch=1 n=a#5 v=0
53430 Par ch=1 c=64 v=0
53490 Par ch=1 c=64 v=127
53490 On ch=1 n=a5 v=49
53490 On ch=1 n=a6 v=49
53494 On ch=1 n=a6 v=0
53494 On ch=1 n=a5 v=0
53520 On ch=1 n=a#5 v=49
53520 On ch=1 n=a#6 v=49
53524 On ch=1 n=a#6 v=0
53524 On ch=1 n=a#5 v=0
53550 On ch=1 n=c#6 v=49
53550 On ch=1 n=c#7 v=49
53554 On ch=1 n=c#7 v=0
53554 On ch=1 n=c#6 v=0
53580 On ch=1 n=d6 v=49
53580 On ch=1 n=d7 v=49
53584 On ch=1 n=d7 v=0
53584 On ch=1 n=d6 v=0
53610 On ch=1 n=d#6 v=49
53610 On ch=1 n=d#7 v=49
53614 On ch=1 n=d#7 v=0
53614 On ch=1 n=d#6 v=0
53640 On ch=1 n=d6 v=49
53640 On ch=1 n=d7 v=49
53644 On ch=1 n=d7 v=0
53644 On ch=1 n=d6 v=0
53670 On ch=1 n=c#6 v=49
53670 On ch=1 n=c#7 v=49
53674 On ch=1 n=c#7 v=0
53674 On ch=1 n=c#6 v=0
53700 Par ch=1 c=64 v=0
53700 On ch=1 n=d6 v=49
53700 On ch=1 n=d7 v=49
53704 On ch=1 n=d7 v=0
53704 On ch=1 n=d6 v=0
53730 Par ch=1 c=64 v=127
53730 On ch=1 n=e6 v=49
53730 On ch=1 n=e7 v=49
53760 On ch=1 n=e7 v=0
53760 On ch=1 n=e6 v=0
53760 On ch=1 n=e6 v=49
53760 On ch=1 n=e7 v=49
53790 On ch=1 n=e7 v=0
53790 On ch=1 n=e6 v=0
53790 On ch=1 n=e6 v=49
53790 On ch=1 n=e7 v=49
53820 On ch=1 n=e7 v=0
53820 On ch=1 n=e6 v=0
53820 On ch=1 n=e6 v=49
53820 On ch=1 n=e7 v=49
53850 On ch=1 n=e7 v=0
53850 On ch=1 n=e6 v=0
53850 On ch=1 n=e6 v=49
53850 On ch=1 n=e7 v=49
53880 On ch=1 n=e7 v=0
53880 On ch=1 n=e6 v=0
53880 On ch=1 n=e6 v=49
53880 On ch=1 n=e7 v=49
53910 On ch=1 n=e7 v=0
53910 On ch=1 n=e6 v=0
53910 On ch=1 n=e6 v=49
53910 On ch=1 n=e7 v=49
53940 On ch=1 n=e7 v=0
53940 On ch=1 n=e6 v=0
53940 Par ch=1 c=64 v=0
53940 On ch=1 n=e6 v=49
53940 On ch=1 n=e7 v=49
53970 On ch=1 n=e7 v=0
53970 On ch=1 n=e6 v=0
53970 Par ch=1 c=64 v=127
53970 On ch=1 n=e6 v=49
53970 On ch=1 n=e7 v=49
54000 On ch=1 n=e7 v=0
54000 On ch=1 n=e6 v=0
54000 On ch=1 n=f#6 v=49
54000 On ch=1 n=f#7 v=49
54004 On ch=1 n=f#7 v=0
54004 On ch=1 n=f#6 v=0
54030 On ch=1 n=f#6 v=49
54030 On ch=1 n=f#7 v=49
54034 On ch=1 n=f#7 v=0
54034 On ch=1 n=f#6 v=0
54060 On ch=1 n=g6 v=49
54060 On ch=1 n=g7 v=49
54064 On ch=1 n=g7 v=0
54064 On ch=1 n=g6 v=0
54090 On ch=1 n=g6 v=49
54090 On ch=1 n=g7 v=49
54094 On ch=1 n=g7 v=0
54094 On ch=1 n=g6 v=0
54120 On ch=1 n=f#6 v=49
54120 On ch=1 n=f#7 v=49
54124 On ch=1 n=f#7 v=0
54124 On ch=1 n=f#6 v=0
54150 On ch=1 n=f#6 v=49
54150 On ch=1 n=f#7 v=49
54154 On ch=1 n=f#7 v=0
54154 On ch=1 n=f#6 v=0
54180 Par ch=1 c=64 v=0
54180 On ch=1 n=e6 v=49
54180 On ch=1 n=e7 v=49
54184 On ch=1 n=e7 v=0
54184 On ch=1 n=e6 v=0
54210 Par ch=1 c=64 v=127
54210 On ch=1 n=f#6 v=49
54210 On ch=1 n=f#7 v=49
54240 On ch=1 n=f#7 v=0
54240 On ch=1 n=f#6 v=0
54240 On ch=1 n=f#6 v=49
54240 On ch=1 n=f#7 v=49
54270 On ch=1 n=f#7 v=0
54270 On ch=1 n=f#6 v=0
54270 On ch=1 n=f#6 v=49
54270 On ch=1 n=f#7 v=49
54300 On ch=1 n=f#7 v=0
54300 On ch=1 n=f#6 v=0
54300 On ch=1 n=f#6 v=49
54300 On ch=1 n=f#7 v=49
54330 On ch=1 n=f#7 v=0
54330 On ch=1 n=f#6 v=0
54330 On ch=1 n=f#6 v=49
54330 On ch=1 n=f#7 v=49
54360 On ch=1 n=f#7 v=0
54360 On ch=1 n=f#6 v=0
54360 On ch=1 n=f#6 v=49
54360 On ch=1 n=f#7 v=49
54390 On ch=1 n=f#7 v=0
54390 On ch=1 n=f#6 v=0
54390 On ch=1 n=f#6 v=49
54390 On ch=1 n=f#7 v=49
54420 On ch=1 n=f#7 v=0
54420 On ch=1 n=f#6 v=0
54420 On ch=1 n=f#6 v=49
54420 On ch=1 n=f#7 v=49
54450 On ch=1 n=f#7 v=0
54450 On ch=1 n=f#6 v=0
54450 On ch=1 n=g6 v=49
54450 On ch=1 n=g7 v=49
54454 On ch=1 n=g7 v=0
54454 On ch=1 n=g6 v=0
54480 On ch=1 n=f#6 v=49
54480 On ch=1 n=f#7 v=49
54484 On ch=1 n=f#7 v=0
54484 On ch=1 n=f#6 v=0
54510 On ch=1 n=e6 v=49
54510 On ch=1 n=e7 v=49
54514 On ch=1 n=e7 v=0
54514 On ch=1 n=e6 v=0
54540 On ch=1 n=d6 v=49
54540 On ch=1 n=d7 v=49
54544 On ch=1 n=d7 v=0
54544 On ch=1 n=d6 v=0
54570 On ch=1 n=c#6 v=49
54570 On ch=1 n=c#7 v=49
54574 On ch=1 n=c#7 v=0
54574 On ch=1 n=c#6 v=0
54600 On ch=1 n=a#5 v=49
54600 On ch=1 n=a#6 v=49
54604 On ch=1 n=a#6 v=0
54604 On ch=1 n=a#5 v=0
54630 On ch=1 n=c#6 v=49
54630 On ch=1 n=c#7 v=49
54634 On ch=1 n=c#7 v=0
54634 On ch=1 n=c#6 v=0
54660 Par ch=1 c=64 v=0
54660 On ch=1 n=d6 v=49
54660 On ch=1 n=d7 v=49
54664 On ch=1 n=d7 v=0
54664 On ch=1 n=d6 v=0
54690 Par ch=1 c=64 v=127
54690 On ch=1 n=e6 v=49
54690 On ch=1 n=e7 v=49
54720 On ch=1 n=e7 v=0
54720 On ch=1 n=e6 v=0
54720 On ch=1 n=e6 v=49
54720 On ch=1 n=e7 v=49
54750 On ch=1 n=e7 v=0
54750 On ch=1 n=e6 v=0
54750 On ch=1 n=e6 v=49
54750 On ch=1 n=e7 v=49
54780 On ch=1 n=e7 v=0
54780 On ch=1 n=e6 v=0
54780 On ch=1 n=e6 v=49
54780 On ch=1 n=e7 v=49
54810 On ch=1 n=e7 v=0
54810 On ch=1 n=e6 v=0
54810 On ch=1 n=e6 v=49
54810 On ch=1 n=e7 v=49
54840 On ch=1 n=e7 v=0
54840 On ch=1 n=e6 v=0
54840 On ch=1 n=e6 v=49
54840 On ch=1 n=e7 v=49
54870 On ch=1 n=e7 v=0
54870 On ch=1 n=e6 v=0
54870 On ch=1 n=e6 v=49
54870 On ch=1 n=e7 v=49
54900 On ch=1 n=e7 v=0
54900 On ch=1 n=e6 v=0
54900 Par ch=1 c=64 v=0
54900 On ch=1 n=e6 v=49
54900 On ch=1 n=e7 v=49
54930 On ch=1 n=e7 v=0
54930 On ch=1 n=e6 v=0
54930 Par ch=1 c=64 v=127
54930 On ch=1 n=e6 v=49
54930 On ch=1 n=e7 v=49
54960 On ch=1 n=e7 v=0
54960 On ch=1 n=e6 v=0
54960 On ch=1 n=a5 v=49
54960 On ch=1 n=a6 v=49
54964 On ch=1 n=a6 v=0
54964 On ch=1 n=a5 v=0
54990 On ch=1 n=a5 v=49
54990 On ch=1 n=a6 v=49
54994 On ch=1 n=a6 v=0
54994 On ch=1 n=a5 v=0
55020 On ch=1 n=a6 v=49
55020 On ch=1 n=a7 v=49
55024 On ch=1 n=a7 v=0
55024 On ch=1 n=a6 v=0
55050 On ch=1 n=a6 v=49
55050 On ch=1 n=a7 v=49
55054 On ch=1 n=a7 v=0
55054 On ch=1 n=a6 v=0
55080 On ch=1 n=e6 v=49
55080 On ch=1 n=e7 v=49
55084 On ch=1 n=e7 v=0
55084 On ch=1 n=e6 v=0
55110 On ch=1 n=e6 v=49
55110 On ch=1 n=e7 v=49
55114 On ch=1 n=e7 v=0
55114 On ch=1 n=e6 v=0
55140 Par ch=1 c=64 v=0
55140 On ch=1 n=f#6 v=49
55140 On ch=1 n=f#7 v=49
55144 On ch=1 n=f#7 v=0
55144 On ch=1 n=f#6 v=0
55170 On ch=1 n=d6 v=49
55170 On ch=1 n=d7 v=49
55200 On ch=1 n=d7 v=0
55200 On ch=1 n=d6 v=0
55200 On ch=1 n=d6 v=49
55200 On ch=1 n=d7 v=49
55230 On ch=1 n=d7 v=0
55230 On ch=1 n=d6 v=0
55230 On ch=1 n=d6 v=49
55230 On ch=1 n=d7 v=49
55260 On ch=1 n=d7 v=0
55260 On ch=1 n=d6 v=0
55260 On ch=1 n=d6 v=49
55260 On ch=1 n=d7 v=49
55290 On ch=1 n=d7 v=0
55290 On ch=1 n=d6 v=0
55290 On ch=1 n=d6 v=49
55290 On ch=1 n=d7 v=49
55320 On ch=1 n=d7 v=0
55320 On ch=1 n=d6 v=0
55320 On ch=1 n=d6 v=49
55320 On ch=1 n=d7 v=49
55350 On ch=1 n=d7 v=0
55350 On ch=1 n=d6 v=0
55350 On ch=1 n=d6 v=49
55350 On ch=1 n=d7 v=49
55380 On ch=1 n=d7 v=0
55380 On ch=1 n=d6 v=0
55380 On ch=1 n=d6 v=49
55380 On ch=1 n=d7 v=49
55410 On ch=1 n=d7 v=0
55410 On ch=1 n=d6 v=0
55410 On ch=1 n=d6 v=49
55410 On ch=1 n=d7 v=49
55440 On ch=1 n=d7 v=0
55440 On ch=1 n=d6 v=0
55440 On ch=1 n=d6 v=49
55440 On ch=1 n=d7 v=49
55470 On ch=1 n=d7 v=0
55470 On ch=1 n=d6 v=0
55470 On ch=1 n=d6 v=49
55470 On ch=1 n=d7 v=49
55500 On ch=1 n=d7 v=0
55500 On ch=1 n=d6 v=0
55500 On ch=1 n=d6 v=49
55500 On ch=1 n=d7 v=49
55530 On ch=1 n=d7 v=0
55530 On ch=1 n=d6 v=0
55530 On ch=1 n=d6 v=49
55530 On ch=1 n=d7 v=49
55560 On ch=1 n=d7 v=0
55560 On ch=1 n=d6 v=0
55560 On ch=1 n=d6 v=49
55560 On ch=1 n=d7 v=49
55590 On ch=1 n=d7 v=0
55590 On ch=1 n=d6 v=0
55590 On ch=1 n=d6 v=49
55590 On ch=1 n=d7 v=49
55620 On ch=1 n=d7 v=0
55620 On ch=1 n=d6 v=0
55620 On ch=1 n=d6 v=49
55620 On ch=1 n=d7 v=49
55650 On ch=1 n=d7 v=0
55650 On ch=1 n=d6 v=0
55650 On ch=1 n=d6 v=49
55650 On ch=1 n=d7 v=49
55680 On ch=1 n=d7 v=0
55680 On ch=1 n=d6 v=0
55680 On ch=1 n=d6 v=49
55680 On ch=1 n=d7 v=49
55710 On ch=1 n=d7 v=0
55710 On ch=1 n=d6 v=0
55710 On ch=1 n=d6 v=49
55710 On ch=1 n=d7 v=49
55740 On ch=1 n=d7 v=0
55740 On ch=1 n=d6 v=0
55740 On ch=1 n=d6 v=49
55740 On ch=1 n=d7 v=49
55770 On ch=1 n=d7 v=0
55770 On ch=1 n=d6 v=0
55770 On ch=1 n=d6 v=49
55770 On ch=1 n=d7 v=49
55800 On ch=1 n=d7 v=0
55800 On ch=1 n=d6 v=0
55800 On ch=1 n=d#6 v=49
55800 On ch=1 n=d#7 v=49
55830 On ch=1 n=d#7 v=0
55830 On ch=1 n=d#6 v=0
55830 On ch=1 n=e6 v=49
55830 On ch=1 n=e7 v=49
55860 On ch=1 n=e7 v=0
55860 On ch=1 n=e6 v=0
55860 On ch=1 n=f6 v=49
55860 On ch=1 n=f7 v=49
55890 On ch=1 n=f7 v=0
55890 On ch=1 n=f6 v=0
55890 On ch=1 n=f#6 v=62
55890 On ch=1 n=f#7 v=62
55920 On ch=1 n=f#7 v=0
55920 On ch=1 n=f#6 v=0
55920 On ch=1 n=g6 v=62
55920 On ch=1 n=g7 v=62
55950 On ch=1 n=g7 v=0
55950 On ch=1 n=g6 v=0
55950 On ch=1 n=g#6 v=75
55950 On ch=1 n=g#7 v=75
55980 On ch=1 n=g#7 v=0
55980 On ch=1 n=g#6 v=0
55980 On ch=1 n=a6 v=75
55980 On ch=1 n=a7 v=75
56010 On ch=1 n=a7 v=0
56010 On ch=1 n=a6 v=0
56010 On ch=1 n=a#6 v=88
56010 On ch=1 n=a#7 v=88
56040 On ch=1 n=a#7 v=0
56040 On ch=1 n=a#6 v=0
56040 On ch=1 n=b6 v=88
56040 On ch=1 n=b7 v=88
56070 On ch=1 n=b7 v=0
56070 On ch=1 n=b6 v=0
56070 On ch=1 n=c7 v=101
56070 On ch=1 n=c8 v=101
56100 On ch=1 n=c8 v=0
56100 On ch=1 n=c7 v=0
56100 On ch=1 n=c#7 v=101
56100 On ch=1 n=c#8 v=101
56130 On ch=1 n=c#8 v=0
56130 On ch=1 n=c#7 v=0
56130 On ch=1 n=d7 v=49
56130 On ch=1 n=d8 v=49
56160 On ch=1 n=d8 v=0
56160 On ch=1 n=d7 v=0
56160 On ch=1 n=d7 v=49
56160 On ch=1 n=d8 v=49
56190 On ch=1 n=d8 v=0
56190 On ch=1 n=d7 v=0
56190 On ch=1 n=d7 v=49
56190 On ch=1 n=d8 v=49
56220 On ch=1 n=d8 v=0
56220 On ch=1 n=d7 v=0
56220 On ch=1 n=d7 v=49
56220 On ch=1 n=d8 v=49
56250 On ch=1 n=d8 v=0
56250 On ch=1 n=d7 v=0
56250 On ch=1 n=d7 v=49
56250 On ch=1 n=d8 v=49
56280 On ch=1 n=d8 v=0
56280 On ch=1 n=d7 v=0
56280 On ch=1 n=d7 v=49
56280 On ch=1 n=d8 v=49
56310 On ch=1 n=d8 v=0
56310 On ch=1 n=d7 v=0
56310 On ch=1 n=d7 v=49
56310 On ch=1 n=d8 v=49
56340 On ch=1 n=d8 v=0
56340 On ch=1 n=d7 v=0
56340 On ch=1 n=d7 v=49
56340 On ch=1 n=d8 v=49
56370 On ch=1 n=d8 v=0
56370 On ch=1 n=d7 v=0
56370 On ch=1 n=d7 v=49
56370 On ch=1 n=d8 v=49
56400 On ch=1 n=d8 v=0
56400 On ch=1 n=d7 v=0
56400 On ch=1 n=d7 v=49
56400 On ch=1 n=d8 v=49
56430 On ch=1 n=d8 v=0
56430 On ch=1 n=d7 v=0
56430 On ch=1 n=d7 v=49
56430 On ch=1 n=d8 v=49
56460 On ch=1 n=d8 v=0
56460 On ch=1 n=d7 v=0
56460 On ch=1 n=d7 v=49
56460 On ch=1 n=d8 v=49
56490 On ch=1 n=d8 v=0
56490 On ch=1 n=d7 v=0
56490 On ch=1 n=d7 v=62
56490 On ch=1 n=d8 v=62
56520 On ch=1 n=d8 v=0
56520 On ch=1 n=d7 v=0
56520 On ch=1 n=d#7 v=75
56520 On ch=1 n=d#8 v=75
56550 On ch=1 n=d#8 v=0
56550 On ch=1 n=d#7 v=0
56550 On ch=1 n=e7 v=88
56550 On ch=1 n=e8 v=88
56580 On ch=1 n=e8 v=0
56580 On ch=1 n=e7 v=0
56580 On ch=1 n=f7 v=101
56580 On ch=1 n=f8 v=101
56610 On ch=1 n=f8 v=0
56610 On ch=1 n=f7 v=0
56610 On ch=1 n=f#7 v=101
56610 On ch=1 n=f#8 v=101
56640 On ch=1 n=f#8 v=0
56640 On ch=1 n=f#7 v=0
56640 On ch=1 n=f7 v=101
56640 On ch=1 n=f8 v=101
56670 On ch=1 n=f8 v=0
56670 On ch=1 n=f7 v=0
56670 On ch=1 n=e7 v=75
56670 On ch=1 n=e8 v=75
56700 On ch=1 n=e8 v=0
56700 On ch=1 n=e7 v=0
56700 On ch=1 n=d#7 v=75
56700 On ch=1 n=d#8 v=75
56730 On ch=1 n=d#8 v=0
56730 On ch=1 n=d#7 v=0
56730 On ch=1 n=d7 v=62
56730 On ch=1 n=d8 v=62
56760 On ch=1 n=d8 v=0
56760 On ch=1 n=d7 v=0
56760 On ch=1 n=d#7 v=75
56760 On ch=1 n=d#8 v=75
56790 On ch=1 n=d#8 v=0
56790 On ch=1 n=d#7 v=0
56790 On ch=1 n=e7 v=88
56790 On ch=1 n=e8 v=88
56820 On ch=1 n=e8 v=0
56820 On ch=1 n=e7 v=0
56820 On ch=1 n=f7 v=101
56820 On ch=1 n=f8 v=101
56850 On ch=1 n=f8 v=0
56850 On ch=1 n=f7 v=0
56850 On ch=1 n=f#7 v=101
56850 On ch=1 n=f#8 v=101
56880 On ch=1 n=f#8 v=0
56880 On ch=1 n=f#7 v=0
56880 On ch=1 n=f7 v=101
56880 On ch=1 n=f8 v=101
56910 On ch=1 n=f8 v=0
56910 On ch=1 n=f7 v=0
56910 On ch=1 n=e7 v=75
56910 On ch=1 n=e8 v=75
56940 On ch=1 n=e8 v=0
56940 On ch=1 n=e7 v=0
56940 On ch=1 n=d#7 v=75
56940 On ch=1 n=d#8 v=75
56970 On ch=1 n=d#8 v=0
56970 On ch=1 n=d#7 v=0
56970 On ch=1 n=d7 v=75
56970 On ch=1 n=d8 v=75
57000 On ch=1 n=d8 v=0
57000 On ch=1 n=d7 v=0
57000 On ch=1 n=c#7 v=75
57000 On ch=1 n=c#8 v=75
57030 On ch=1 n=c#8 v=0
57030 On ch=1 n=c#7 v=0
57030 On ch=1 n=c7 v=75
57030 On ch=1 n=c8 v=75
57060 On ch=1 n=c8 v=0
57060 On ch=1 n=c7 v=0
57060 On ch=1 n=b6 v=75
57060 On ch=1 n=b7 v=75
57090 On ch=1 n=b7 v=0
57090 On ch=1 n=b6 v=0
57090 On ch=1 n=a#6 v=75
57090 On ch=1 n=a#7 v=75
57120 On ch=1 n=a#7 v=0
57120 On ch=1 n=a#6 v=0
57120 On ch=1 n=a6 v=75
57120 On ch=1 n=a7 v=75
57150 On ch=1 n=a7 v=0
57150 On ch=1 n=a6 v=0
57150 On ch=1 n=g#6 v=75
57150 On ch=1 n=g#7 v=75
57180 On ch=1 n=g#7 v=0
57180 On ch=1 n=g#6 v=0
57180 On ch=1 n=g6 v=75
57180 On ch=1 n=g7 v=75
57210 On ch=1 n=g7 v=0
57210 On ch=1 n=g6 v=0
57210 On ch=1 n=f#6 v=75
57210 On ch=1 n=f#7 v=75
57240 On ch=1 n=f#7 v=0
57240 On ch=1 n=f#6 v=0
57240 On ch=1 n=f6 v=75
57240 On ch=1 n=f7 v=75
57270 On ch=1 n=f7 v=0
57270 On ch=1 n=f6 v=0
57270 On ch=1 n=e6 v=75
57270 On ch=1 n=e7 v=75
57300 On ch=1 n=e7 v=0
57300 On ch=1 n=e6 v=0
57300 On ch=1 n=d#6 v=75
57300 On ch=1 n=d#7 v=75
57330 On ch=1 n=d#7 v=0
57330 On ch=1 n=d#6 v=0
57330 On ch=1 n=d6 v=75
57330 On ch=1 n=d7 v=75
57360 On ch=1 n=d7 v=0
57360 On ch=1 n=d6 v=0
57360 On ch=1 n=c#6 v=75
57360 On ch=1 n=c#7 v=75
57390 On ch=1 n=c#7 v=0
57390 On ch=1 n=c#6 v=0
57390 On ch=1 n=c6 v=75
57390 On ch=1 n=c7 v=75
57420 On ch=1 n=c7 v=0
57420 On ch=1 n=c6 v=0
57420 On ch=1 n=b5 v=75
57420 On ch=1 n=b6 v=75
57450 On ch=1 n=b6 v=0
57450 On ch=1 n=b5 v=0
57450 On ch=1 n=a#5 v=75
57450 On ch=1 n=a#6 v=75
57480 On ch=1 n=a#6 v=0
57480 On ch=1 n=a#5 v=0
57480 On ch=1 n=a5 v=75
57480 On ch=1 n=a6 v=75
57510 On ch=1 n=a6 v=0
57510 On ch=1 n=a5 v=0
57510 On ch=1 n=g#5 v=75
57510 On ch=1 n=g#6 v=75
57540 On ch=1 n=g#6 v=0
57540 On ch=1 n=g#5 v=0
57540 On ch=1 n=g5 v=75
57540 On ch=1 n=g6 v=75
57570 On ch=1 n=g6 v=0
57570 On ch=1 n=g5 v=0
57570 On ch=1 n=f#5 v=114
57600 On ch=1 n=f#5 v=0
57600 On ch=1 n=f5 v=88
57600 On ch=1 n=f6 v=88
57630 On ch=1 n=f6 v=0
57630 On ch=1 n=f5 v=0
57630 On ch=1 n=e5 v=88
57630 On ch=1 n=e6 v=88
57660 On ch=1 n=e6 v=0
57660 On ch=1 n=e5 v=0
57660 On ch=1 n=d#5 v=88
57660 On ch=1 n=d#6 v=88
57690 On ch=1 n=d#6 v=0
57690 On ch=1 n=d#5 v=0
57690 On ch=1 n=d5 v=114
57720 On ch=1 n=d5 v=0
57720 On ch=1 n=d#5 v=88
57720 On ch=1 n=d#6 v=88
57750 On ch=1 n=d#6 v=0
57750 On ch=1 n=d#5 v=0
57750 On ch=1 n=e5 v=88
57750 On ch=1 n=e6 v=88
57780 On ch=1 n=e6 v=0
57780 On ch=1 n=e5 v=0
57780 On ch=1 n=f5 v=88
57780 On ch=1 n=f6 v=88
57810 On ch=1 n=f6 v=0
57810 On ch=1 n=f5 v=0
57810 On ch=1 n=f#5 v=114
57840 On ch=1 n=f#5 v=0
57840 On ch=1 n=f5 v=88
57840 On ch=1 n=f6 v=88
57870 On ch=1 n=f6 v=0
57870 On ch=1 n=f5 v=0
57870 On ch=1 n=e5 v=88
57870 On ch=1 n=e6 v=88
57900 On ch=1 n=e6 v=0
57900 On ch=1 n=e5 v=0
57900 On ch=1 n=d#5 v=88
57900 On ch=1 n=d#6 v=88
57930 On ch=1 n=d#6 v=0
57930 On ch=1 n=d#5 v=0
57930 On ch=1 n=d5 v=114
57960 On ch=1 n=d5 v=0
57960 On ch=1 n=d#5 v=88
57960 On ch=1 n=d#6 v=88
57990 On ch=1 n=d#6 v=0
57990 On ch=1 n=d#5 v=0
57990 On ch=1 n=e5 v=88
57990 On ch=1 n=e6 v=88
58020 On ch=1 n=e6 v=0
58020 On ch=1 n=e5 v=0
58020 On ch=1 n=f5 v=88
58020 On ch=1 n=f6 v=88
58050 On ch=1 n=f6 v=0
58050 On ch=1 n=f5 v=0
58050 Par ch=1 c=64 v=127
58050 On ch=1 n=f#5 v=101
58080 On ch=1 n=f#5 v=0
58080 On ch=1 n=f5 v=101
58080 On ch=1 n=f6 v=101
58110 On ch=1 n=f6 v=0
58110 On ch=1 n=f5 v=0
58110 On ch=1 n=f#6 v=101
58140 On ch=1 n=f#6 v=0
58140 On ch=1 n=f5 v=101
58140 On ch=1 n=f6 v=101
58170 On ch=1 n=f6 v=0
58170 On ch=1 n=f5 v=0
58170 On ch=1 n=f#5 v=101
58200 On ch=1 n=f#5 v=0
58200 On ch=1 n=f5 v=101
58200 On ch=1 n=f6 v=101
58230 On ch=1 n=f6 v=0
58230 On ch=1 n=f5 v=0
58230 On ch=1 n=f#6 v=101
58260 On ch=1 n=f#6 v=0
58260 On ch=1 n=f5 v=101
58260 On ch=1 n=f6 v=101
58290 On ch=1 n=f6 v=0
58290 On ch=1 n=f5 v=0
58290 On ch=1 n=f#5 v=101
58320 On ch=1 n=f#5 v=0
58320 On ch=1 n=f5 v=101
58320 On ch=1 n=f6 v=101
58350 On ch=1 n=f6 v=0
58350 On ch=1 n=f5 v=0
58350 On ch=1 n=f#6 v=101
58380 On ch=1 n=f#6 v=0
58380 On ch=1 n=f5 v=101
58380 On ch=1 n=f6 v=101
58410 On ch=1 n=f6 v=0
58410 On ch=1 n=f5 v=0
58410 On ch=1 n=f#5 v=114
58440 On ch=1 n=f#5 v=0
58440 On ch=1 n=f5 v=114
58440 On ch=1 n=f6 v=114
58470 On ch=1 n=f6 v=0
58470 On ch=1 n=f5 v=0
58470 On ch=1 n=f#6 v=114
58500 On ch=1 n=f#6 v=0
58500 Par ch=1 c=64 v=0
58500 On ch=1 n=f5 v=114
58500 On ch=1 n=f6 v=114
58530 On ch=1 n=f6 v=0
58530 On ch=1 n=f5 v=0
58530 Par ch=1 c=64 v=127
58530 On ch=1 n=f5 v=88
58530 On ch=1 n=a#5 v=88
58530 On ch=1 n=d6 v=88
58530 On ch=1 n=f6 v=88
58534 On ch=1 n=f6 v=0
58534 On ch=1 n=f5 v=0
58534 On ch=1 n=a#5 v=0
58534 On ch=1 n=d6 v=0
58560 On ch=1 n=g5 v=88
58560 On ch=1 n=g6 v=88
58564 On ch=1 n=g6 v=0
58564 On ch=1 n=g5 v=0
58590 On ch=1 n=a5 v=88
58590 On ch=1 n=a6 v=88
58594 On ch=1 n=a6 v=0
58594 On ch=1 n=a5 v=0
58620 On ch=1 n=a#5 v=88
58620 On ch=1 n=a#6 v=88
58624 On ch=1 n=a#6 v=0
58624 On ch=1 n=a#5 v=0
58650 On ch=1 n=c6 v=88
58650 On ch=1 n=c7 v=88
58654 On ch=1 n=c7 v=0
58654 On ch=1 n=c6 v=0
58680 On ch=1 n=a#5 v=88
58680 On ch=1 n=a#6 v=88
58684 On ch=1 n=a#6 v=0
58684 On ch=1 n=a#5 v=0
58710 On ch=1 n=a5 v=88
58710 On ch=1 n=a6 v=88
58714 On ch=1 n=a6 v=0
58714 On ch=1 n=a5 v=0
58740 Par ch=1 c=64 v=0
58740 On ch=1 n=a#5 v=88
58740 On ch=1 n=a#6 v=88
58744 On ch=1 n=a#6 v=0
58744 On ch=1 n=a#5 v=0
58770 Par ch=1 c=64 v=127
58770 On ch=1 n=c6 v=88
58770 On ch=1 n=c7 v=88
58800 On ch=1 n=c7 v=0
58800 On ch=1 n=c6 v=0
58800 On ch=1 n=c6 v=88
58800 On ch=1 n=c7 v=88
58830 On ch=1 n=c7 v=0
58830 On ch=1 n=c6 v=0
58830 On ch=1 n=c6 v=106
58830 On ch=1 n=c7 v=114
58860 On ch=1 n=c7 v=0
58860 On ch=1 n=c6 v=0
58860 On ch=1 n=c6 v=88
58860 On ch=1 n=c7 v=88
58890 On ch=1 n=c7 v=0
58890 On ch=1 n=c6 v=0
58890 On ch=1 n=c6 v=88
58890 On ch=1 n=c7 v=88
58920 On ch=1 n=c7 v=0
58920 On ch=1 n=c6 v=0
58920 On ch=1 n=c6 v=88
58920 On ch=1 n=c7 v=88
58950 On ch=1 n=c7 v=0
58950 On ch=1 n=c6 v=0
58950 On ch=1 n=c6 v=106
58950 On ch=1 n=c7 v=114
58980 On ch=1 n=c7 v=0
58980 On ch=1 n=c6 v=0
58980 On ch=1 n=c6 v=88
58980 On ch=1 n=c7 v=88
59010 On ch=1 n=c7 v=0
59010 On ch=1 n=c6 v=0
59010 On ch=1 n=c6 v=88
59010 On ch=1 n=c7 v=88
59014 On ch=1 n=c7 v=0
59014 On ch=1 n=c6 v=0
59040 On ch=1 n=d6 v=88
59040 On ch=1 n=d7 v=88
59044 On ch=1 n=d7 v=0
59044 On ch=1 n=d6 v=0
59070 On ch=1 n=d6 v=88
59070 On ch=1 n=d7 v=88
59074 On ch=1 n=d7 v=0
59074 On ch=1 n=d6 v=0
59100 On ch=1 n=d#6 v=88
59100 On ch=1 n=d#7 v=88
59104 On ch=1 n=d#7 v=0
59104 On ch=1 n=d#6 v=0
59130 On ch=1 n=d#6 v=88
59130 On ch=1 n=d#7 v=88
59134 On ch=1 n=d#7 v=0
59134 On ch=1 n=d#6 v=0
59160 On ch=1 n=d6 v=88
59160 On ch=1 n=d7 v=88
59164 On ch=1 n=d7 v=0
59164 On ch=1 n=d6 v=0
59190 On ch=1 n=d6 v=88
59190 On ch=1 n=d7 v=88
59194 On ch=1 n=d7 v=0
59194 On ch=1 n=d6 v=0
59220 Par ch=1 c=64 v=0
59220 On ch=1 n=c6 v=88
59220 On ch=1 n=c7 v=88
59224 On ch=1 n=c7 v=0
59224 On ch=1 n=c6 v=0
59250 Par ch=1 c=64 v=127
59250 On ch=1 n=d6 v=88
59250 On ch=1 n=d7 v=88
59280 On ch=1 n=d7 v=0
59280 On ch=1 n=d6 v=0
59280 On ch=1 n=d6 v=88
59280 On ch=1 n=d7 v=88
59310 On ch=1 n=d7 v=0
59310 On ch=1 n=d6 v=0
59310 On ch=1 n=d6 v=106
59310 On ch=1 n=d7 v=114
59340 On ch=1 n=d7 v=0
59340 On ch=1 n=d6 v=0
59340 On ch=1 n=d6 v=88
59340 On ch=1 n=d7 v=88
59370 On ch=1 n=d7 v=0
59370 On ch=1 n=d6 v=0
59370 On ch=1 n=d6 v=88
59370 On ch=1 n=d7 v=88
59400 On ch=1 n=d7 v=0
59400 On ch=1 n=d6 v=0
59400 On ch=1 n=d6 v=88
59400 On ch=1 n=d7 v=88
59430 On ch=1 n=d7 v=0
59430 On ch=1 n=d6 v=0
59430 On ch=1 n=d6 v=106
59430 On ch=1 n=d7 v=114
59460 On ch=1 n=d7 v=0
59460 On ch=1 n=d6 v=0
59460 On ch=1 n=d6 v=88
59460 On ch=1 n=d7 v=88
59490 On ch=1 n=d7 v=0
59490 On ch=1 n=d6 v=0
59490 On ch=1 n=d#6 v=88
59490 On ch=1 n=d#7 v=88
59494 On ch=1 n=d#7 v=0
59494 On ch=1 n=d#6 v=0
59520 On ch=1 n=d6 v=88
59520 On ch=1 n=d7 v=88
59524 On ch=1 n=d7 v=0
59524 On ch=1 n=d6 v=0
59550 On ch=1 n=c6 v=88
59550 On ch=1 n=c7 v=88
59554 On ch=1 n=c7 v=0
59554 On ch=1 n=c6 v=0
59580 On ch=1 n=a#5 v=88
59580 On ch=1 n=a#6 v=88
59584 On ch=1 n=a#6 v=0
59584 On ch=1 n=a#5 v=0
59610 On ch=1 n=a5 v=88
59610 On ch=1 n=a6 v=88
59614 On ch=1 n=a6 v=0
59614 On ch=1 n=a5 v=0
59640 On ch=1 n=g5 v=88
59640 On ch=1 n=g6 v=88
59644 On ch=1 n=g6 v=0
59644 On ch=1 n=g5 v=0
59670 On ch=1 n=a5 v=88
59670 On ch=1 n=a6 v=88
59674 On ch=1 n=a6 v=0
59674 On ch=1 n=a5 v=0
59700 Par ch=1 c=64 v=0
59700 On ch=1 n=a#5 v=88
59700 On ch=1 n=a#6 v=88
59704 On ch=1 n=a#6 v=0
59704 On ch=1 n=a#5 v=0
59730 Par ch=1 c=64 v=127
59730 On ch=1 n=c6 v=88
59730 On ch=1 n=c7 v=88
59760 On ch=1 n=c7 v=0
59760 On ch=1 n=c6 v=0
59760 On ch=1 n=c6 v=88
59760 On ch=1 n=c7 v=88
59790 On ch=1 n=c7 v=0
59790 On ch=1 n=c6 v=0
59790 On ch=1 n=c6 v=106
59790 On ch=1 n=c7 v=114
59820 On ch=1 n=c7 v=0
59820 On ch=1 n=c6 v=0
59820 On ch=1 n=c6 v=88
59820 On ch=1 n=c7 v=88
59850 On ch=1 n=c7 v=0
59850 On ch=1 n=c6 v=0
59850 On ch=1 n=c6 v=88
59850 On ch=1 n=c7 v=88
59880 On ch=1 n=c7 v=0
59880 On ch=1 n=c6 v=0
59880 On ch=1 n=c6 v=88
59880 On ch=1 n=c7 v=88
59910 On ch=1 n=c7 v=0
59910 On ch=1 n=c6 v=0
59910 On ch=1 n=c6 v=106
59910 On ch=1 n=c7 v=114
59940 On ch=1 n=c7 v=0
59940 On ch=1 n=c6 v=0
59940 On ch=1 n=c6 v=88
59940 On ch=1 n=c7 v=88
59970 On ch=1 n=c7 v=0
59970 On ch=1 n=c6 v=0
59970 On ch=1 n=c6 v=88
59970 On ch=1 n=c7 v=88
60000 On ch=1 n=c7 v=0
60000 On ch=1 n=c6 v=0
60000 On ch=1 n=f6 v=88
60004 On ch=1 n=f6 v=0
60030 On ch=1 n=f6 v=88
60034 On ch=1 n=f6 v=0
60060 On ch=1 n=f6 v=88
60060 On ch=1 n=f7 v=88
60064 On ch=1 n=f7 v=0
60064 On ch=1 n=f6 v=0
60090 On ch=1 n=f6 v=88
60090 On ch=1 n=f7 v=88
60094 On ch=1 n=f7 v=0
60094 On ch=1 n=f6 v=0
60120 On ch=1 n=c6 v=88
60120 On ch=1 n=c7 v=88
60124 On ch=1 n=c7 v=0
60124 On ch=1 n=c6 v=0
60150 On ch=1 n=c6 v=88
60150 On ch=1 n=c7 v=88
60154 On ch=1 n=c7 v=0
60154 On ch=1 n=c6 v=0
60180 Par ch=1 c=64 v=0
60180 On ch=1 n=d6 v=88
60180 On ch=1 n=d7 v=88
60184 On ch=1 n=d7 v=0
60184 On ch=1 n=d6 v=0
60210 Par ch=1 c=64 v=127
60210 On ch=1 n=a#5 v=88
60210 On ch=1 n=a#6 v=88
60240 On ch=1 n=a#6 v=0
60240 On ch=1 n=a#5 v=0
60240 On ch=1 n=a#5 v=88
60240 On ch=1 n=a#6 v=88
60270 On ch=1 n=a#6 v=0
60270 On ch=1 n=a#5 v=0
60270 On ch=1 n=a#5 v=106
60270 On ch=1 n=a#6 v=114
60300 On ch=1 n=a#6 v=0
60300 On ch=1 n=a#5 v=0
60300 On ch=1 n=a#5 v=88
60300 On ch=1 n=a#6 v=88
60330 On ch=1 n=a#6 v=0
60330 On ch=1 n=a#5 v=0
60330 On ch=1 n=a#5 v=88
60330 On ch=1 n=a#6 v=88
60360 On ch=1 n=a#6 v=0
60360 On ch=1 n=a#5 v=0
60360 On ch=1 n=a#5 v=88
60360 On ch=1 n=a#6 v=88
60390 On ch=1 n=a#6 v=0
60390 On ch=1 n=a#5 v=0
60390 Par ch=1 c=64 v=0
60390 On ch=1 n=a#5 v=106
60390 On ch=1 n=a#6 v=114
60450 On ch=1 n=a#6 v=0
60450 On ch=1 n=a#5 v=0
60450 Par ch=1 c=64 v=127
60450 On ch=1 n=f6 v=88
60450 On ch=1 n=a#6 v=88
60450 On ch=1 n=d7 v=88
60450 On ch=1 n=f7 v=88
60454 On ch=1 n=f7 v=0
60454 On ch=1 n=f6 v=0
60454 On ch=1 n=a#6 v=0
60454 On ch=1 n=d7 v=0
60480 On ch=1 n=g6 v=88
60480 On ch=1 n=g7 v=88
60484 On ch=1 n=g7 v=0
60484 On ch=1 n=g6 v=0
60510 On ch=1 n=a6 v=88
60510 On ch=1 n=a7 v=88
60514 On ch=1 n=a7 v=0
60514 On ch=1 n=a6 v=0
60540 On ch=1 n=a#6 v=88
60540 On ch=1 n=a#7 v=88
60544 On ch=1 n=a#7 v=0
60544 On ch=1 n=a#6 v=0
60570 On ch=1 n=c7 v=88
60570 On ch=1 n=c8 v=88
60574 On ch=1 n=c8 v=0
60574 On ch=1 n=c7 v=0
60600 On ch=1 n=a#6 v=88
60600 On ch=1 n=a#7 v=88
60604 On ch=1 n=a#7 v=0
60604 On ch=1 n=a#6 v=0
60630 On ch=1 n=a6 v=88
60630 On ch=1 n=a7 v=88
60634 On ch=1 n=a7 v=0
60634 On ch=1 n=a6 v=0
60660 Par ch=1 c=64 v=0
60660 On ch=1 n=a#6 v=88
60660 On ch=1 n=a#7 v=88
60664 On ch=1 n=a#7 v=0
60664 On ch=1 n=a#6 v=0
60690 Par ch=1 c=64 v=127
60690 On ch=1 n=c7 v=88
60690 On ch=1 n=c8 v=88
60720 On ch=1 n=c8 v=0
60720 On ch=1 n=c7 v=0
60720 On ch=1 n=c7 v=88
60720 On ch=1 n=c8 v=88
60750 On ch=1 n=c8 v=0
60750 On ch=1 n=c7 v=0
60750 On ch=1 n=c7 v=119
60750 On ch=1 n=c8 v=127
60780 On ch=1 n=c8 v=0
60780 On ch=1 n=c7 v=0
60780 On ch=1 n=c7 v=101
60780 On ch=1 n=c8 v=101
60810 On ch=1 n=c8 v=0
60810 On ch=1 n=c7 v=0
60810 On ch=1 n=c7 v=101
60810 On ch=1 n=c8 v=101
60840 On ch=1 n=c8 v=0
60840 On ch=1 n=c7 v=0
60840 On ch=1 n=c7 v=114
60840 On ch=1 n=c8 v=114
60870 On ch=1 n=c8 v=0
60870 On ch=1 n=c7 v=0
60870 On ch=1 n=c7 v=127
60870 On ch=1 n=c8 v=127
60900 On ch=1 n=c8 v=0
60900 On ch=1 n=c7 v=0
60900 On ch=1 n=c7 v=114
60900 On ch=1 n=c8 v=114
60930 On ch=1 n=c8 v=0
60930 On ch=1 n=c7 v=0
60930 On ch=1 n=c7 v=88
60930 On ch=1 n=c8 v=88
60934 On ch=1 n=c8 v=0
60934 On ch=1 n=c7 v=0
60960 On ch=1 n=d7 v=88
60960 On ch=1 n=d8 v=88
60964 On ch=1 n=d8 v=0
60964 On ch=1 n=d7 v=0
60990 On ch=1 n=d7 v=88
60990 On ch=1 n=d8 v=88
60994 On ch=1 n=d8 v=0
60994 On ch=1 n=d7 v=0
61020 On ch=1 n=d#7 v=88
61020 On ch=1 n=d#8 v=88
61024 On ch=1 n=d#8 v=0
61024 On ch=1 n=d#7 v=0
61050 On ch=1 n=d#7 v=88
61050 On ch=1 n=d#8 v=88
61054 On ch=1 n=d#8 v=0
61054 On ch=1 n=d#7 v=0
61080 On ch=1 n=d7 v=88
61080 On ch=1 n=d8 v=88
61084 On ch=1 n=d8 v=0
61084 On ch=1 n=d7 v=0
61110 On ch=1 n=d7 v=88
61110 On ch=1 n=d8 v=88
61114 On ch=1 n=d8 v=0
61114 On ch=1 n=d7 v=0
61140 Par ch=1 c=64 v=0
61140 On ch=1 n=c7 v=88
61140 On ch=1 n=c8 v=88
61144 On ch=1 n=c8 v=0
61144 On ch=1 n=c7 v=0
61170 Par ch=1 c=64 v=127
61170 On ch=1 n=d7 v=88
61170 On ch=1 n=d8 v=88
61200 On ch=1 n=d8 v=0
61200 On ch=1 n=d7 v=0
61200 On ch=1 n=d7 v=88
61200 On ch=1 n=d8 v=88
61230 On ch=1 n=d8 v=0
61230 On ch=1 n=d7 v=0
61230 On ch=1 n=d7 v=119
61230 On ch=1 n=d8 v=127
61260 On ch=1 n=d8 v=0
61260 On ch=1 n=d7 v=0
61260 On ch=1 n=d7 v=101
61260 On ch=1 n=d8 v=101
61290 On ch=1 n=d8 v=0
61290 On ch=1 n=d7 v=0
61290 On ch=1 n=d7 v=101
61290 On ch=1 n=d8 v=101
61320 On ch=1 n=d8 v=0
61320 On ch=1 n=d7 v=0
61320 On ch=1 n=d7 v=114
61320 On ch=1 n=d8 v=114
61350 On ch=1 n=d8 v=0
61350 On ch=1 n=d7 v=0
61350 On ch=1 n=d7 v=127
61350 On ch=1 n=d8 v=127
61380 On ch=1 n=d8 v=0
61380 On ch=1 n=d7 v=0
61380 On ch=1 n=d7 v=114
61380 On ch=1 n=d8 v=114
61410 On ch=1 n=d8 v=0
61410 On ch=1 n=d7 v=0
61410 On ch=1 n=d#7 v=88
61410 On ch=1 n=d#8 v=88
61414 On ch=1 n=d#8 v=0
61414 On ch=1 n=d#7 v=0
61440 On ch=1 n=d7 v=88
61440 On ch=1 n=d8 v=88
61444 On ch=1 n=d8 v=0
61444 On ch=1 n=d7 v=0
61470 On ch=1 n=c7 v=88
61470 On ch=1 n=c8 v=88
61474 On ch=1 n=c8 v=0
61474 On ch=1 n=c7 v=0
61500 On ch=1 n=a#6 v=88
61500 On ch=1 n=a#7 v=88
61504 On ch=1 n=a#7 v=0
61504 On ch=1 n=a#6 v=0
61530 On ch=1 n=a6 v=88
61530 On ch=1 n=a7 v=88
61534 On ch=1 n=a7 v=0
61534 On ch=1 n=a6 v=0
61560 On ch=1 n=g6 v=88
61560 On ch=1 n=g7 v=88
61564 On ch=1 n=g7 v=0
61564 On ch=1 n=g6 v=0
61590 On ch=1 n=a6 v=88
61590 On ch=1 n=a7 v=88
61594 On ch=1 n=a7 v=0
61594 On ch=1 n=a6 v=0
61620 Par ch=1 c=64 v=0
61620 On ch=1 n=a#6 v=88
61620 On ch=1 n=a#7 v=88
61624 On ch=1 n=a#7 v=0
61624 On ch=1 n=a#6 v=0
61650 Par ch=1 c=64 v=127
61650 On ch=1 n=c7 v=88
61650 On ch=1 n=c8 v=88
61680 On ch=1 n=c8 v=0
61680 On ch=1 n=c7 v=0
61680 On ch=1 n=c7 v=88
61680 On ch=1 n=c8 v=88
61710 On ch=1 n=c8 v=0
61710 On ch=1 n=c7 v=0
61710 On ch=1 n=c7 v=119
61710 On ch=1 n=c8 v=127
61740 On ch=1 n=c8 v=0
61740 On ch=1 n=c7 v=0
61740 On ch=1 n=c7 v=101
61740 On ch=1 n=c8 v=101
61770 On ch=1 n=c8 v=0
61770 On ch=1 n=c7 v=0
61770 On ch=1 n=c7 v=101
61770 On ch=1 n=c8 v=101
61800 On ch=1 n=c8 v=0
61800 On ch=1 n=c7 v=0
61800 On ch=1 n=c7 v=114
61800 On ch=1 n=c8 v=114
61830 On ch=1 n=c8 v=0
61830 On ch=1 n=c7 v=0
61830 On ch=1 n=c7 v=127
61830 On ch=1 n=c8 v=127
61860 On ch=1 n=c8 v=0
61860 On ch=1 n=c7 v=0
61860 On ch=1 n=c7 v=114
61860 On ch=1 n=c8 v=114
61890 On ch=1 n=c8 v=0
61890 On ch=1 n=c7 v=0
61890 On ch=1 n=c7 v=88
61890 On ch=1 n=c8 v=88
61920 On ch=1 n=c8 v=0
61920 On ch=1 n=c7 v=0
61920 On ch=1 n=f7 v=88
61924 On ch=1 n=f7 v=0
61950 On ch=1 n=f7 v=88
61954 On ch=1 n=f7 v=0
61980 On ch=1 n=f7 v=88
61980 On ch=1 n=f8 v=88
61984 On ch=1 n=f8 v=0
61984 On ch=1 n=f7 v=0
62010 On ch=1 n=f7 v=88
62010 On ch=1 n=f8 v=88
62014 On ch=1 n=f8 v=0
62014 On ch=1 n=f7 v=0
62040 On ch=1 n=c7 v=88
62040 On ch=1 n=c8 v=88
62044 On ch=1 n=c8 v=0
62044 On ch=1 n=c7 v=0
62070 On ch=1 n=c7 v=88
62070 On ch=1 n=c8 v=88
62074 On ch=1 n=c8 v=0
62074 On ch=1 n=c7 v=0
62100 Par ch=1 c=64 v=0
62100 On ch=1 n=d7 v=88
62100 On ch=1 n=d8 v=88
62104 On ch=1 n=d8 v=0
62104 On ch=1 n=d7 v=0
62130 On ch=1 n=a#6 v=88
62130 On ch=1 n=a#7 v=88
62160 On ch=1 n=a#7 v=0
62160 On ch=1 n=a#6 v=0
62160 On ch=1 n=a#6 v=88
62160 On ch=1 n=a#7 v=88
62190 On ch=1 n=a#7 v=0
62190 On ch=1 n=a#6 v=0
62190 On ch=1 n=a#6 v=106
62190 On ch=1 n=a#7 v=114
62220 On ch=1 n=a#7 v=0
62220 On ch=1 n=a#6 v=0
62220 On ch=1 n=a#6 v=88
62220 On ch=1 n=a#7 v=88
62250 On ch=1 n=a#7 v=0
62250 On ch=1 n=a#6 v=0
62250 On ch=1 n=a#6 v=101
62250 On ch=1 n=a#7 v=101
62280 On ch=1 n=a#7 v=0
62280 On ch=1 n=a#6 v=0
62280 On ch=1 n=a#6 v=101
62280 On ch=1 n=a#7 v=101
62310 On ch=1 n=a#7 v=0
62310 On ch=1 n=a#6 v=0
62310 On ch=1 n=a#6 v=119
62310 On ch=1 n=a#7 v=127
62370 On ch=1 n=a#7 v=0
62370 On ch=1 n=a#6 v=0
62370 Par ch=1 c=64 v=127
62430 On ch=1 n=f#7 v=49
62430 On ch=1 n=a7 v=49
62450 On ch=1 n=a7 v=0
62450 On ch=1 n=f#7 v=0
62450 On ch=1 n=d7 v=49
62469 On ch=1 n=a6 v=49
62470 On ch=1 n=d7 v=0
62489 On ch=1 n=a6 v=0
62490 On ch=1 n=f#6 v=49
62490 On ch=1 n=a6 v=49
62510 On ch=1 n=a6 v=0
62510 On ch=1 n=f#6 v=0
62510 On ch=1 n=d6 v=49
62529 On ch=1 n=a5 v=49
62530 On ch=1 n=d6 v=0
62549 On ch=1 n=a5 v=0
62550 On ch=1 n=f#5 v=49
62550 On ch=1 n=a5 v=49
62570 On ch=1 n=a5 v=0
62570 On ch=1 n=f#5 v=0
62570 On ch=1 n=d5 v=49
62589 Par ch=1 c=64 v=0
62589 On ch=1 n=a4 v=49
62590 On ch=1 n=d5 v=0
62609 On ch=1 n=a4 v=0
62610 Par ch=1 c=64 v=127
62670 On ch=1 n=g7 v=49
62670 On ch=1 n=a7 v=49
62690 On ch=1 n=a7 v=0
62690 On ch=1 n=g7 v=0
62690 On ch=1 n=c#7 v=49
62709 On ch=1 n=a6 v=49
62710 On ch=1 n=c#7 v=0
62729 On ch=1 n=a6 v=0
62730 On ch=1 n=g6 v=49
62730 On ch=1 n=a6 v=49
62750 On ch=1 n=a6 v=0
62750 On ch=1 n=g6 v=0
62750 On ch=1 n=c#6 v=49
62769 On ch=1 n=a5 v=49
62770 On ch=1 n=c#6 v=0
62789 On ch=1 n=a5 v=0
62790 On ch=1 n=g5 v=49
62790 On ch=1 n=a5 v=49
62810 On ch=1 n=a5 v=0
62810 On ch=1 n=g5 v=0
62810 On ch=1 n=c#5 v=49
62829 Par ch=1 c=64 v=0
62829 On ch=1 n=a4 v=49
62830 On ch=1 n=c#5 v=0
62849 On ch=1 n=a4 v=0
62850 Par ch=1 c=64 v=127
62910 On ch=1 n=e7 v=49
62910 On ch=1 n=a7 v=49
62930 On ch=1 n=a7 v=0
62930 On ch=1 n=e7 v=0
62930 On ch=1 n=c#7 v=49
62949 On ch=1 n=a6 v=49
62950 On ch=1 n=c#7 v=0
62969 On ch=1 n=a6 v=0
62970 On ch=1 n=e6 v=49
62970 On ch=1 n=a6 v=49
62990 On ch=1 n=a6 v=0
62990 On ch=1 n=e6 v=0
62990 On ch=1 n=c#6 v=49
63009 On ch=1 n=a5 v=49
63010 On ch=1 n=c#6 v=0
63029 On ch=1 n=a5 v=0
63030 On ch=1 n=e5 v=49
63030 On ch=1 n=a5 v=49
63050 On ch=1 n=a5 v=0
63050 On ch=1 n=e5 v=0
63050 On ch=1 n=c#5 v=49
63069 Par ch=1 c=64 v=0
63069 On ch=1 n=a4 v=49
63070 On ch=1 n=c#5 v=0
63089 On ch=1 n=a4 v=0
63090 Par ch=1 c=64 v=127
63150 On ch=1 n=f#7 v=49
63150 On ch=1 n=a7 v=49
63170 On ch=1 n=a7 v=0
63170 On ch=1 n=f#7 v=0
63170 On ch=1 n=d7 v=49
63189 On ch=1 n=a6 v=49
63190 On ch=1 n=d7 v=0
63209 On ch=1 n=a6 v=0
63210 On ch=1 n=f#6 v=49
63210 On ch=1 n=a6 v=49
63230 On ch=1 n=a6 v=0
63230 On ch=1 n=f#6 v=0
63230 On ch=1 n=d6 v=49
63249 On ch=1 n=a5 v=49
63250 On ch=1 n=d6 v=0
63269 On ch=1 n=a5 v=0
63270 On ch=1 n=f#5 v=49
63270 On ch=1 n=a5 v=49
63290 On ch=1 n=a5 v=0
63290 On ch=1 n=f#5 v=0
63290 On ch=1 n=d5 v=49
63309 Par ch=1 c=64 v=0
63309 On ch=1 n=a4 v=49
63310 On ch=1 n=d5 v=0
63329 On ch=1 n=a4 v=0
63330 Par ch=1 c=64 v=127
63390 On ch=1 n=f#7 v=49
63390 On ch=1 n=a7 v=49
63410 On ch=1 n=a7 v=0
63410 On ch=1 n=f#7 v=0
63410 On ch=1 n=d7 v=49
63429 On ch=1 n=a6 v=49
63430 On ch=1 n=d7 v=0
63449 On ch=1 n=a6 v=0
63450 On ch=1 n=f#6 v=49
63450 On ch=1 n=a6 v=49
63470 On ch=1 n=a6 v=0
63470 On ch=1 n=f#6 v=0
63470 On ch=1 n=d6 v=49
63489 On ch=1 n=a5 v=49
63490 On ch=1 n=d6 v=0
63509 On ch=1 n=a5 v=0
63510 On ch=1 n=f#5 v=49
63510 On ch=1 n=a5 v=49
63530 On ch=1 n=a5 v=0
63530 On ch=1 n=f#5 v=0
63530 On ch=1 n=d5 v=49
63549 Par ch=1 c=64 v=0
63549 On ch=1 n=a4 v=49
63550 On ch=1 n=d5 v=0
63569 On ch=1 n=a4 v=0
63570 Par ch=1 c=64 v=127
63630 On ch=1 n=g7 v=49
63630 On ch=1 n=a7 v=49
63650 On ch=1 n=a7 v=0
63650 On ch=1 n=g7 v=0
63650 On ch=1 n=c#7 v=49
63669 On ch=1 n=a6 v=49
63670 On ch=1 n=c#7 v=0
63689 On ch=1 n=a6 v=0
63690 On ch=1 n=g6 v=49
63690 On ch=1 n=a6 v=49
63710 On ch=1 n=a6 v=0
63710 On ch=1 n=g6 v=0
63710 On ch=1 n=c#6 v=49
63729 On ch=1 n=a5 v=49
63730 On ch=1 n=c#6 v=0
63749 On ch=1 n=a5 v=0
63750 On ch=1 n=g5 v=49
63750 On ch=1 n=a5 v=49
63770 On ch=1 n=a5 v=0
63770 On ch=1 n=g5 v=0
63770 On ch=1 n=c#5 v=49
63789 Par ch=1 c=64 v=0
63789 On ch=1 n=a4 v=49
63790 On ch=1 n=c#5 v=0
63809 On ch=1 n=a4 v=0
63810 Par ch=1 c=64 v=127
63870 On ch=1 n=e7 v=49
63870 On ch=1 n=a7 v=49
63890 On ch=1 n=a7 v=0
63890 On ch=1 n=e7 v=0
63890 On ch=1 n=c#7 v=49
63909 On ch=1 n=a6 v=49
63910 On ch=1 n=c#7 v=0
63929 On ch=1 n=a6 v=0
63930 On ch=1 n=e6 v=49
63930 On ch=1 n=a6 v=49
63950 On ch=1 n=a6 v=0
63950 On ch=1 n=e6 v=0
63950 On ch=1 n=c#6 v=49
63969 On ch=1 n=a5 v=49
63970 On ch=1 n=c#6 v=0
63989 On ch=1 n=a5 v=0
63990 On ch=1 n=e5 v=49
63990 On ch=1 n=a5 v=49
64010 On ch=1 n=a5 v=0
64010 On ch=1 n=e5 v=0
64010 On ch=1 n=c#5 v=49
64029 Par ch=1 c=64 v=0
64029 On ch=1 n=a4 v=49
64030 On ch=1 n=c#5 v=0
64049 On ch=1 n=a4 v=0
64050 Par ch=1 c=64 v=127
64110 On ch=1 n=d5 v=88
64130 On ch=1 n=d5 v=0
64130 On ch=1 n=f#5 v=88
64149 On ch=1 n=a5 v=88
64149 On ch=1 n=d6 v=88
64150 On ch=1 n=f#5 v=0
64169 On ch=1 n=d6 v=0
64169 On ch=1 n=a5 v=0
64170 On ch=1 n=d6 v=101
64190 On ch=1 n=d6 v=0
64190 On ch=1 n=f#6 v=101
64209 On ch=1 n=a6 v=101
64209 On ch=1 n=d7 v=101
64210 On ch=1 n=f#6 v=0
64229 On ch=1 n=d7 v=0
64229 On ch=1 n=a6 v=0
64230 On ch=1 n=d7 v=101
64250 On ch=1 n=d7 v=0
64250 On ch=1 n=f#7 v=101
64269 Par ch=1 c=64 v=0
64269 On ch=1 n=a7 v=101
64270 On ch=1 n=f#7 v=0
64289 On ch=1 n=a7 v=0
64290 Par ch=1 c=64 v=127
64290 On ch=1 n=b7 v=101
64290 On ch=1 n=d8 v=101
64310 On ch=1 n=d8 v=0
64310 On ch=1 n=b7 v=0
64310 On ch=1 n=f#7 v=101
64329 On ch=1 n=d7 v=101
64330 On ch=1 n=f#7 v=0
64349 On ch=1 n=d7 v=0
64350 On ch=1 n=b6 v=101
64350 On ch=1 n=d7 v=101
64370 On ch=1 n=d7 v=0
64370 On ch=1 n=b6 v=0
64370 On ch=1 n=f#6 v=101
64389 Par ch=1 c=64 v=0
64389 On ch=1 n=d6 v=101
64390 On ch=1 n=f#6 v=0
64409 On ch=1 n=d6 v=0
64410 Par ch=1 c=64 v=127
64410 On ch=1 n=a#6 v=101
64410 On ch=1 n=d7 v=101
64430 On ch=1 n=d7 v=0
64430 On ch=1 n=a#6 v=0
64430 On ch=1 n=f6 v=101
64449 On ch=1 n=d6 v=101
64450 On ch=1 n=f6 v=0
64469 On ch=1 n=d6 v=0
64470 On ch=1 n=a#5 v=101
64470 On ch=1 n=d6 v=101
64490 On ch=1 n=d6 v=0
64490 On ch=1 n=a#5 v=0
64490 On ch=1 n=f5 v=101
64509 Par ch=1 c=64 v=0
64509 On ch=1 n=d5 v=101
64510 On ch=1 n=f5 v=0
64529 On ch=1 n=d5 v=0
64530 Par ch=1 c=64 v=127
64590 On ch=1 n=d5 v=88
64610 On ch=1 n=d5 v=0
64610 On ch=1 n=f#5 v=88
64629 On ch=1 n=a5 v=88
64629 On ch=1 n=d6 v=88
64630 On ch=1 n=f#5 v=0
64649 On ch=1 n=d6 v=0
64649 On ch=1 n=a5 v=0
64650 On ch=1 n=d6 v=101
64670 On ch=1 n=d6 v=0
64670 On ch=1 n=f#6 v=101
64689 On ch=1 n=a6 v=101
64689 On ch=1 n=d7 v=101
64690 On ch=1 n=f#6 v=0
64709 On ch=1 n=d7 v=0
64709 On ch=1 n=a6 v=0
64710 On ch=1 n=d7 v=101
64730 On ch=1 n=d7 v=0
64730 On ch=1 n=f#7 v=101
64749 Par ch=1 c=64 v=0
64749 On ch=1 n=a7 v=101
64750 On ch=1 n=f#7 v=0
64769 On ch=1 n=a7 v=0
64770 Par ch=1 c=64 v=127
64770 On ch=1 n=b7 v=101
64770 On ch=1 n=d8 v=101
64790 On ch=1 n=d8 v=0
64790 On ch=1 n=b7 v=0
64790 On ch=1 n=f#7 v=101
64809 On ch=1 n=d7 v=101
64810 On ch=1 n=f#7 v=0
64829 On ch=1 n=d7 v=0
64830 On ch=1 n=b6 v=101
64830 On ch=1 n=d7 v=101
64850 On ch=1 n=d7 v=0
64850 On ch=1 n=b6 v=0
64850 On ch=1 n=f#6 v=101
64869 Par ch=1 c=64 v=0
64869 On ch=1 n=d6 v=101
64870 On ch=1 n=f#6 v=0
64889 On ch=1 n=d6 v=0
64890 Par ch=1 c=64 v=127
64890 On ch=1 n=a#6 v=101
64890 On ch=1 n=d7 v=101
64910 On ch=1 n=d7 v=0
64910 On ch=1 n=a#6 v=0
64910 On ch=1 n=f6 v=101
64929 On ch=1 n=d6 v=101
64930 On ch=1 n=f6 v=0
64949 On ch=1 n=d6 v=0
64950 On ch=1 n=a#5 v=101
64950 On ch=1 n=d6 v=101
64970 On ch=1 n=d6 v=0
64970 On ch=1 n=a#5 v=0
64970 On ch=1 n=f5 v=101
64989 Par ch=1 c=64 v=0
64989 On ch=1 n=d5 v=101
64990 On ch=1 n=f5 v=0
65009 On ch=1 n=d5 v=0
65070 Par ch=1 c=64 v=127
65070 On ch=1 n=d5 v=88
65090 On ch=1 n=d5 v=0
65090 On ch=1 n=f#5 v=88
65109 On ch=1 n=a5 v=88
65109 On ch=1 n=d6 v=88
65110 On ch=1 n=f#5 v=0
65129 On ch=1 n=d6 v=0
65129 On ch=1 n=a5 v=0
65130 On ch=1 n=d6 v=101
65150 On ch=1 n=d6 v=0
65150 On ch=1 n=f#6 v=101
65169 On ch=1 n=a6 v=101
65169 On ch=1 n=d7 v=101
65170 On ch=1 n=f#6 v=0
65189 On ch=1 n=d7 v=0
65189 On ch=1 n=a6 v=0
65190 On ch=1 n=d7 v=101
65210 On ch=1 n=d7 v=0
65210 On ch=1 n=f#7 v=101
65229 Par ch=1 c=64 v=0
65229 On ch=1 n=a7 v=101
65230 On ch=1 n=f#7 v=0
65249 On ch=1 n=a7 v=0
65250 On ch=1 n=d7 v=101
65250 On ch=1 n=d8 v=101
65310 On ch=1 n=d8 v=0
65310 On ch=1 n=d7 v=0
65310 On ch=1 n=f#5 v=101
65310 On ch=1 n=f#6 v=101
65370 On ch=1 n=f#6 v=0
65370 On ch=1 n=f#5 v=0
65370 On ch=1 n=d7 v=101
65370 On ch=1 n=d8 v=101
65430 On ch=1 n=d8 v=0
65430 On ch=1 n=d7 v=0
65430 On ch=1 n=f5 v=101
65430 On ch=1 n=f6 v=101
65490 On ch=1 n=f6 v=0
65490 On ch=1 n=f5 v=0
65490 On ch=1 n=d7 v=101
65490 On ch=1 n=d8 v=101
65550 On ch=1 n=d8 v=0
65550 On ch=1 n=d7 v=0
65550 On ch=1 n=f#5 v=101
65550 On ch=1 n=f#6 v=101
65610 On ch=1 n=f#6 v=0
65610 On ch=1 n=f#5 v=0
65610 On ch=1 n=d7 v=101
65610 On ch=1 n=d8 v=101
65670 On ch=1 n=d8 v=0
65670 On ch=1 n=d7 v=0
65670 On ch=1 n=f5 v=101
65670 On ch=1 n=f6 v=101
65730 On ch=1 n=f6 v=0
65730 On ch=1 n=f5 v=0
65730 On ch=1 n=d7 v=101
65730 On ch=1 n=d8 v=101
65790 On ch=1 n=d8 v=0
65790 On ch=1 n=d7 v=0
65790 On ch=1 n=f#5 v=101
65790 On ch=1 n=f#6 v=101
65850 On ch=1 n=f#6 v=0
65850 On ch=1 n=f#5 v=0
65850 On ch=1 n=d7 v=101
65850 On ch=1 n=d8 v=101
65910 On ch=1 n=d8 v=0
65910 On ch=1 n=d7 v=0
65910 On ch=1 n=f5 v=101
65910 On ch=1 n=f6 v=101
65970 On ch=1 n=f6 v=0
65970 On ch=1 n=f5 v=0
65970 Par ch=1 c=64 v=127
65970 On ch=1 n=f5 v=101
65970 On ch=1 n=a#5 v=101
65970 On ch=1 n=d6 v=101
65970 On ch=1 n=f6 v=101
65974 On ch=1 n=f6 v=0
65974 On ch=1 n=f5 v=0
65974 On ch=1 n=a#5 v=0
65974 On ch=1 n=d6 v=0
66000 On ch=1 n=g5 v=101
66000 On ch=1 n=g6 v=101
66004 On ch=1 n=g6 v=0
66004 On ch=1 n=g5 v=0
66030 On ch=1 n=a5 v=101
66030 On ch=1 n=a6 v=101
66034 On ch=1 n=a6 v=0
66034 On ch=1 n=a5 v=0
66060 On ch=1 n=a#5 v=101
66060 On ch=1 n=a#6 v=101
66064 On ch=1 n=a#6 v=0
66064 On ch=1 n=a#5 v=0
66090 On ch=1 n=c6 v=101
66090 On ch=1 n=c7 v=101
66094 On ch=1 n=c7 v=0
66094 On ch=1 n=c6 v=0
66120 On ch=1 n=a#5 v=101
66120 On ch=1 n=a#6 v=101
66124 On ch=1 n=a#6 v=0
66124 On ch=1 n=a#5 v=0
66150 On ch=1 n=a5 v=101
66150 On ch=1 n=a6 v=101
66154 On ch=1 n=a6 v=0
66154 On ch=1 n=a5 v=0
66180 Par ch=1 c=64 v=0
66180 On ch=1 n=a#5 v=101
66180 On ch=1 n=a#6 v=101
66184 On ch=1 n=a#6 v=0
66184 On ch=1 n=a#5 v=0
66210 Par ch=1 c=64 v=127
66210 On ch=1 n=c6 v=101
66210 On ch=1 n=c7 v=101
66240 On ch=1 n=c7 v=0
66240 On ch=1 n=c6 v=0
66240 On ch=1 n=c6 v=101
66240 On ch=1 n=c7 v=101
66270 On ch=1 n=c7 v=0
66270 On ch=1 n=c6 v=0
66270 On ch=1 n=c6 v=119
66270 On ch=1 n=c7 v=127
66300 On ch=1 n=c7 v=0
66300 On ch=1 n=c6 v=0
66300 On ch=1 n=c6 v=101
66300 On ch=1 n=c7 v=101
66330 On ch=1 n=c7 v=0
66330 On ch=1 n=c6 v=0
66330 On ch=1 n=c6 v=101
66330 On ch=1 n=c7 v=101
66360 On ch=1 n=c7 v=0
66360 On ch=1 n=c6 v=0
66360 On ch=1 n=c6 v=101
66360 On ch=1 n=c7 v=101
66390 On ch=1 n=c7 v=0
66390 On ch=1 n=c6 v=0
66390 On ch=1 n=c6 v=119
66390 On ch=1 n=c7 v=127
66420 On ch=1 n=c7 v=0
66420 On ch=1 n=c6 v=0
66420 On ch=1 n=c6 v=101
66420 On ch=1 n=c7 v=101
66450 On ch=1 n=c7 v=0
66450 On ch=1 n=c6 v=0
66450 On ch=1 n=c6 v=101
66450 On ch=1 n=c7 v=101
66454 On ch=1 n=c7 v=0
66454 On ch=1 n=c6 v=0
66480 On ch=1 n=d6 v=101
66480 On ch=1 n=d7 v=101
66484 On ch=1 n=d7 v=0
66484 On ch=1 n=d6 v=0
66510 On ch=1 n=d6 v=101
66510 On ch=1 n=d7 v=101
66514 On ch=1 n=d7 v=0
66514 On ch=1 n=d6 v=0
66540 On ch=1 n=d#6 v=101
66540 On ch=1 n=d#7 v=101
66544 On ch=1 n=d#7 v=0
66544 On ch=1 n=d#6 v=0
66570 On ch=1 n=d#6 v=101
66570 On ch=1 n=d#7 v=101
66574 On ch=1 n=d#7 v=0
66574 On ch=1 n=d#6 v=0
66600 On ch=1 n=d6 v=101
66600 On ch=1 n=d7 v=101
66604 On ch=1 n=d7 v=0
66604 On ch=1 n=d6 v=0
66630 On ch=1 n=d6 v=101
66630 On ch=1 n=d7 v=101
66634 On ch=1 n=d7 v=0
66634 On ch=1 n=d6 v=0
66660 Par ch=1 c=64 v=0
66660 On ch=1 n=c6 v=101
66660 On ch=1 n=c7 v=101
66664 On ch=1 n=c7 v=0
66664 On ch=1 n=c6 v=0
66690 Par ch=1 c=64 v=127
66690 On ch=1 n=d6 v=101
66690 On ch=1 n=d7 v=101
66720 On ch=1 n=d7 v=0
66720 On ch=1 n=d6 v=0
66720 On ch=1 n=d6 v=101
66720 On ch=1 n=d7 v=101
66750 On ch=1 n=d7 v=0
66750 On ch=1 n=d6 v=0
66750 On ch=1 n=d6 v=119
66750 On ch=1 n=d7 v=127
66780 On ch=1 n=d7 v=0
66780 On ch=1 n=d6 v=0
66780 On ch=1 n=d6 v=101
66780 On ch=1 n=d7 v=101
66810 On ch=1 n=d7 v=0
66810 On ch=1 n=d6 v=0
66810 On ch=1 n=d6 v=101
66810 On ch=1 n=d7 v=101
66840 On ch=1 n=d7 v=0
66840 On ch=1 n=d6 v=0
66840 On ch=1 n=d6 v=101
66840 On ch=1 n=d7 v=101
66870 On ch=1 n=d7 v=0
66870 On ch=1 n=d6 v=0
66870 On ch=1 n=d6 v=119
66870 On ch=1 n=d7 v=127
66900 On ch=1 n=d7 v=0
66900 On ch=1 n=d6 v=0
66900 On ch=1 n=d6 v=101
66900 On ch=1 n=d7 v=101
66930 On ch=1 n=d7 v=0
66930 On ch=1 n=d6 v=0
66930 On ch=1 n=d#6 v=101
66930 On ch=1 n=d#7 v=101
66934 On ch=1 n=d#7 v=0
66934 On ch=1 n=d#6 v=0
66960 On ch=1 n=d6 v=101
66960 On ch=1 n=d7 v=101
66964 On ch=1 n=d7 v=0
66964 On ch=1 n=d6 v=0
66990 On ch=1 n=c6 v=101
66990 On ch=1 n=c7 v=101
66994 On ch=1 n=c7 v=0
66994 On ch=1 n=c6 v=0
67020 On ch=1 n=a#5 v=101
67020 On ch=1 n=a#6 v=101
67024 On ch=1 n=a#6 v=0
67024 On ch=1 n=a#5 v=0
67050 On ch=1 n=a5 v=101
67050 On ch=1 n=a6 v=101
67054 On ch=1 n=a6 v=0
67054 On ch=1 n=a5 v=0
67080 On ch=1 n=g5 v=101
67080 On ch=1 n=g6 v=101
67084 On ch=1 n=g6 v=0
67084 On ch=1 n=g5 v=0
67110 On ch=1 n=a5 v=101
67110 On ch=1 n=a6 v=101
67114 On ch=1 n=a6 v=0
67114 On ch=1 n=a5 v=0
67140 Par ch=1 c=64 v=0
67140 On ch=1 n=a#5 v=101
67140 On ch=1 n=a#6 v=101
67144 On ch=1 n=a#6 v=0
67144 On ch=1 n=a#5 v=0
67170 Par ch=1 c=64 v=127
67170 On ch=1 n=c6 v=101
67170 On ch=1 n=c7 v=101
67200 On ch=1 n=c7 v=0
67200 On ch=1 n=c6 v=0
67200 On ch=1 n=c6 v=101
67200 On ch=1 n=c7 v=101
67230 On ch=1 n=c7 v=0
67230 On ch=1 n=c6 v=0
67230 On ch=1 n=c6 v=119
67230 On ch=1 n=c7 v=127
67260 On ch=1 n=c7 v=0
67260 On ch=1 n=c6 v=0
67260 On ch=1 n=c6 v=101
67260 On ch=1 n=c7 v=101
67290 On ch=1 n=c7 v=0
67290 On ch=1 n=c6 v=0
67290 On ch=1 n=c6 v=101
67290 On ch=1 n=c7 v=101
67320 On ch=1 n=c7 v=0
67320 On ch=1 n=c6 v=0
67320 On ch=1 n=c6 v=101
67320 On ch=1 n=c7 v=101
67350 On ch=1 n=c7 v=0
67350 On ch=1 n=c6 v=0
67350 On ch=1 n=c6 v=119
67350 On ch=1 n=c7 v=127
67380 On ch=1 n=c7 v=0
67380 On ch=1 n=c6 v=0
67380 On ch=1 n=c6 v=101
67380 On ch=1 n=c7 v=101
67410 On ch=1 n=c7 v=0
67410 On ch=1 n=c6 v=0
67410 On ch=1 n=c6 v=101
67410 On ch=1 n=c7 v=101
67440 On ch=1 n=c7 v=0
67440 On ch=1 n=c6 v=0
67440 On ch=1 n=f6 v=101
67444 On ch=1 n=f6 v=0
67470 On ch=1 n=f6 v=101
67474 On ch=1 n=f6 v=0
67500 On ch=1 n=f6 v=101
67500 On ch=1 n=f7 v=101
67504 On ch=1 n=f7 v=0
67504 On ch=1 n=f6 v=0
67530 On ch=1 n=f6 v=101
67530 On ch=1 n=f7 v=101
67534 On ch=1 n=f7 v=0
67534 On ch=1 n=f6 v=0
67560 On ch=1 n=c6 v=101
67560 On ch=1 n=c7 v=101
67564 On ch=1 n=c7 v=0
67564 On ch=1 n=c6 v=0
67590 On ch=1 n=c6 v=101
67590 On ch=1 n=c7 v=101
67594 On ch=1 n=c7 v=0
67594 On ch=1 n=c6 v=0
67620 Par ch=1 c=64 v=0
67620 On ch=1 n=d6 v=101
67620 On ch=1 n=d7 v=101
67624 On ch=1 n=d7 v=0
67624 On ch=1 n=d6 v=0
67650 Par ch=1 c=64 v=127
67650 On ch=1 n=a#5 v=101
67650 On ch=1 n=a#6 v=101
67680 On ch=1 n=a#6 v=0
67680 On ch=1 n=a#5 v=0
67680 On ch=1 n=a#5 v=101
67680 On ch=1 n=a#6 v=101
67710 On ch=1 n=a#6 v=0
67710 On ch=1 n=a#5 v=0
67710 On ch=1 n=a#5 v=119
67710 On ch=1 n=a#6 v=127
67740 On ch=1 n=a#6 v=0
67740 On ch=1 n=a#5 v=0
67740 On ch=1 n=a#5 v=101
67740 On ch=1 n=a#6 v=101
67770 On ch=1 n=a#6 v=0
67770 On ch=1 n=a#5 v=0
67770 On ch=1 n=a#5 v=101
67770 On ch=1 n=a#6 v=101
67800 On ch=1 n=a#6 v=0
67800 On ch=1 n=a#5 v=0
67800 On ch=1 n=a#5 v=101
67800 On ch=1 n=a#6 v=101
67830 On ch=1 n=a#6 v=0
67830 On ch=1 n=a#5 v=0
67830 Par ch=1 c=64 v=0
67830 On ch=1 n=a#5 v=119
67830 On ch=1 n=a#6 v=127
67890 On ch=1 n=a#6 v=0
67890 On ch=1 n=a#5 v=0
67890 On ch=1 n=f5 v=101
67890 On ch=1 n=f6 v=101
67920 On ch=1 n=f6 v=0
67920 On ch=1 n=f5 v=0
67920 On ch=1 n=g5 v=101
67920 On ch=1 n=g6 v=101
67950 On ch=1 n=g6 v=0
67950 On ch=1 n=g5 v=0
67950 On ch=1 n=a5 v=101
67950 On ch=1 n=a6 v=101
67980 On ch=1 n=a6 v=0
67980 On ch=1 n=a5 v=0
67980 On ch=1 n=a#5 v=101
67980 On ch=1 n=a#6 v=101
68010 On ch=1 n=a#6 v=0
68010 On ch=1 n=a#5 v=0
68010 On ch=1 n=c6 v=101
68010 On ch=1 n=c7 v=101
68040 On ch=1 n=c7 v=0
68040 On ch=1 n=c6 v=0
68040 On ch=1 n=a#5 v=101
68040 On ch=1 n=a#6 v=101
68070 On ch=1 n=a#6 v=0
68070 On ch=1 n=a#5 v=0
68070 On ch=1 n=a5 v=101
68070 On ch=1 n=a6 v=101
68100 On ch=1 n=a6 v=0
68100 On ch=1 n=a5 v=0
68100 On ch=1 n=a#5 v=101
68100 On ch=1 n=a#6 v=101
68130 On ch=1 n=a#6 v=0
68130 On ch=1 n=a#5 v=0
68130 On ch=1 n=c6 v=101
68130 On ch=1 n=c7 v=101
68136 On ch=1 n=c7 v=0
68136 On ch=1 n=c6 v=0
68190 On ch=1 n=c6 v=117
68190 On ch=1 n=e6 v=122
68190 On ch=1 n=c7 v=127
68310 On ch=1 n=c7 v=0
68310 On ch=1 n=e6 v=0
68310 On ch=1 n=c6 v=0
68310 On ch=1 n=c6 v=101
68310 On ch=1 n=e6 v=101
68310 On ch=1 n=c7 v=101
68316 On ch=1 n=c7 v=0
68316 On ch=1 n=e6 v=0
68316 On ch=1 n=c6 v=0
68370 On ch=1 n=c6 v=101
68370 On ch=1 n=d#6 v=101
68370 On ch=1 n=c7 v=101
68400 On ch=1 n=c7 v=0
68400 On ch=1 n=d#6 v=0
68400 On ch=1 n=c6 v=0
68400 On ch=1 n=d6 v=101
68400 On ch=1 n=d7 v=101
68430 On ch=1 n=d7 v=0
68430 On ch=1 n=d6 v=0
68430 On ch=1 n=d6 v=101
68430 On ch=1 n=d7 v=101
68460 On ch=1 n=d7 v=0
68460 On ch=1 n=d6 v=0
68460 On ch=1 n=d#6 v=101
68460 On ch=1 n=d#7 v=101
68490 On ch=1 n=d#7 v=0
68490 On ch=1 n=d#6 v=0
68490 On ch=1 n=d#6 v=101
68490 On ch=1 n=d#7 v=101
68520 On ch=1 n=d#7 v=0
68520 On ch=1 n=d#6 v=0
68520 On ch=1 n=d6 v=101
68520 On ch=1 n=d7 v=101
68550 On ch=1 n=d7 v=0
68550 On ch=1 n=d6 v=0
68550 On ch=1 n=d6 v=101
68550 On ch=1 n=d7 v=101
68580 On ch=1 n=d7 v=0
68580 On ch=1 n=d6 v=0
68580 On ch=1 n=c6 v=101
68580 On ch=1 n=c7 v=101
68610 On ch=1 n=c7 v=0
68610 On ch=1 n=c6 v=0
68610 On ch=1 n=d6 v=101
68610 On ch=1 n=d7 v=101
68616 On ch=1 n=d7 v=0
68616 On ch=1 n=d6 v=0
68670 On ch=1 n=d6 v=115
68670 On ch=1 n=f#6 v=119
68670 On ch=1 n=a6 v=123
68670 On ch=1 n=d7 v=127
68790 On ch=1 n=d7 v=0
68790 On ch=1 n=d6 v=0
68790 On ch=1 n=f#6 v=0
68790 On ch=1 n=a6 v=0
68790 On ch=1 n=d6 v=101
68790 On ch=1 n=g6 v=101
68790 On ch=1 n=a#6 v=101
68790 On ch=1 n=d7 v=101
68796 On ch=1 n=d7 v=0
68796 On ch=1 n=d6 v=0
68796 On ch=1 n=g6 v=0
68796 On ch=1 n=a#6 v=0
68850 On ch=1 n=d#6 v=101
68850 On ch=1 n=d#7 v=101
68880 On ch=1 n=d#7 v=0
68880 On ch=1 n=d#6 v=0
68880 On ch=1 n=d6 v=101
68880 On ch=1 n=d7 v=101
68910 On ch=1 n=d7 v=0
68910 On ch=1 n=d6 v=0
68910 On ch=1 n=c6 v=101
68910 On ch=1 n=c7 v=101
68940 On ch=1 n=c7 v=0
68940 On ch=1 n=c6 v=0
68940 On ch=1 n=a#5 v=101
68940 On ch=1 n=a#6 v=101
68970 On ch=1 n=a#6 v=0
68970 On ch=1 n=a#5 v=0
68970 On ch=1 n=a5 v=101
68970 On ch=1 n=a6 v=101
69000 On ch=1 n=a6 v=0
69000 On ch=1 n=a5 v=0
69000 On ch=1 n=g5 v=101
69000 On ch=1 n=g6 v=101
69030 On ch=1 n=g6 v=0
69030 On ch=1 n=g5 v=0
69030 On ch=1 n=a5 v=101
69030 On ch=1 n=a6 v=101
69060 On ch=1 n=a6 v=0
69060 On ch=1 n=a5 v=0
69060 On ch=1 n=a#5 v=101
69060 On ch=1 n=a#6 v=101
69090 On ch=1 n=a#6 v=0
69090 On ch=1 n=a#5 v=0
69090 On ch=1 n=c6 v=101
69090 On ch=1 n=c7 v=101
69096 On ch=1 n=c7 v=0
69096 On ch=1 n=c6 v=0
69150 On ch=1 n=c6 v=117
69150 On ch=1 n=e6 v=122
69150 On ch=1 n=c7 v=127
69270 On ch=1 n=c7 v=0
69270 On ch=1 n=e6 v=0
69270 On ch=1 n=c6 v=0
69270 On ch=1 n=c6 v=101
69270 On ch=1 n=e6 v=101
69270 On ch=1 n=c7 v=101
69276 On ch=1 n=c7 v=0
69276 On ch=1 n=e6 v=0
69276 On ch=1 n=c6 v=0
69330 Par ch=1 c=64 v=127
69330 On ch=1 n=a5 v=91
69330 On ch=1 n=d#6 v=96
69330 On ch=1 n=a6 v=101
69360 On ch=1 n=a6 v=0
69360 On ch=1 n=d#6 v=0
69360 On ch=1 n=a5 v=0
69360 On ch=1 n=a#5 v=75
69360 On ch=1 n=a#6 v=75
69390 On ch=1 n=a#6 v=0
69390 On ch=1 n=a#5 v=0
69390 On ch=1 n=b5 v=75
69390 On ch=1 n=b6 v=75
69420 On ch=1 n=b6 v=0
69420 On ch=1 n=b5 v=0
69420 On ch=1 n=c6 v=75
69420 On ch=1 n=c7 v=75
69450 On ch=1 n=c7 v=0
69450 On ch=1 n=c6 v=0
69450 On ch=1 n=c#6 v=75
69450 On ch=1 n=c#7 v=75
69480 On ch=1 n=c#7 v=0
69480 On ch=1 n=c#6 v=0
69480 On ch=1 n=d6 v=75
69480 On ch=1 n=d7 v=75
69510 On ch=1 n=d7 v=0
69510 On ch=1 n=d6 v=0
69510 On ch=1 n=d#6 v=75
69510 On ch=1 n=d#7 v=75
69540 On ch=1 n=d#7 v=0
69540 On ch=1 n=d#6 v=0
69540 On ch=1 n=e6 v=75
69540 On ch=1 n=e7 v=75
69570 On ch=1 n=e7 v=0
69570 On ch=1 n=e6 v=0
69570 On ch=1 n=f6 v=88
69570 On ch=1 n=f7 v=88
69600 On ch=1 n=f7 v=0
69600 On ch=1 n=f6 v=0
69600 On ch=1 n=f#6 v=88
69600 On ch=1 n=f#7 v=88
69630 On ch=1 n=f#7 v=0
69630 On ch=1 n=f#6 v=0
69630 On ch=1 n=g6 v=88
69630 On ch=1 n=g7 v=88
69660 On ch=1 n=g7 v=0
69660 On ch=1 n=g6 v=0
69660 On ch=1 n=g#6 v=88
69660 On ch=1 n=g#7 v=88
69690 On ch=1 n=g#7 v=0
69690 On ch=1 n=g#6 v=0
69690 On ch=1 n=a6 v=88
69690 On ch=1 n=a7 v=88
69720 On ch=1 n=a7 v=0
69720 On ch=1 n=a6 v=0
69720 On ch=1 n=a#6 v=88
69720 On ch=1 n=a#7 v=88
69750 On ch=1 n=a#7 v=0
69750 On ch=1 n=a#6 v=0
69750 On ch=1 n=b6 v=88
69750 On ch=1 n=b7 v=88
69780 On ch=1 n=b7 v=0
69780 On ch=1 n=b6 v=0
69780 On ch=1 n=c7 v=88
69780 On ch=1 n=c8 v=88
69810 On ch=1 n=c8 v=0
69810 On ch=1 n=c7 v=0
69810 On ch=1 n=c#7 v=101
69810 On ch=1 n=c#8 v=101
69840 On ch=1 n=c#8 v=0
69840 On ch=1 n=c#7 v=0
69840 On ch=1 n=d7 v=101
69840 On ch=1 n=d8 v=101
69870 On ch=1 n=d8 v=0
69870 On ch=1 n=d7 v=0
69870 On ch=1 n=d#7 v=101
69870 On ch=1 n=d#8 v=101
69900 On ch=1 n=d#8 v=0
69900 On ch=1 n=d#7 v=0
69900 Par ch=1 c=64 v=0
69900 On ch=1 n=e7 v=101
69900 On ch=1 n=e8 v=101
69930 On ch=1 n=e8 v=0
69930 On ch=1 n=e7 v=0
69930 On ch=1 n=f7 v=101
69930 On ch=1 n=c8 v=101
69930 On ch=1 n=d8 v=101
69930 On ch=1 n=f8 v=101
69960 On ch=1 n=f8 v=0
69960 On ch=1 n=f7 v=0
69960 On ch=1 n=c8 v=0
69960 On ch=1 n=d8 v=0
69960 On ch=1 n=f7 v=101
69960 On ch=1 n=c8 v=101
69960 On ch=1 n=d8 v=101
69960 On ch=1 n=f8 v=101
69990 On ch=1 n=f8 v=0
69990 On ch=1 n=f7 v=0
69990 On ch=1 n=c8 v=0
69990 On ch=1 n=d8 v=0
69990 On ch=1 n=f7 v=101
69990 On ch=1 n=c8 v=101
69990 On ch=1 n=d8 v=101
69990 On ch=1 n=f8 v=101
70020 On ch=1 n=f8 v=0
70020 On ch=1 n=f7 v=0
70020 On ch=1 n=c8 v=0
70020 On ch=1 n=d8 v=0
70020 On ch=1 n=f7 v=101
70020 On ch=1 n=c8 v=101
70020 On ch=1 n=d8 v=101
70020 On ch=1 n=f8 v=101
70050 On ch=1 n=f8 v=0
70050 On ch=1 n=f7 v=0
70050 On ch=1 n=c8 v=0
70050 On ch=1 n=d8 v=0
70050 On ch=1 n=f7 v=114
70050 On ch=1 n=c8 v=114
70050 On ch=1 n=d8 v=114
70050 On ch=1 n=f8 v=114
70080 On ch=1 n=f8 v=0
70080 On ch=1 n=f7 v=0
70080 On ch=1 n=c8 v=0
70080 On ch=1 n=d8 v=0
70080 On ch=1 n=f7 v=114
70080 On ch=1 n=c8 v=114
70080 On ch=1 n=d8 v=114
70080 On ch=1 n=f8 v=114
70110 On ch=1 n=f8 v=0
70110 On ch=1 n=f7 v=0
70110 On ch=1 n=c8 v=0
70110 On ch=1 n=d8 v=0
70110 On ch=1 n=f7 v=114
70110 On ch=1 n=c8 v=114
70110 On ch=1 n=d8 v=114
70110 On ch=1 n=f8 v=114
70140 On ch=1 n=f8 v=0
70140 On ch=1 n=f7 v=0
70140 On ch=1 n=c8 v=0
70140 On ch=1 n=d8 v=0
70140 On ch=1 n=f7 v=114
70140 On ch=1 n=c8 v=114
70140 On ch=1 n=d8 v=114
70140 On ch=1 n=f8 v=114
70170 On ch=1 n=f8 v=0
70170 On ch=1 n=f7 v=0
70170 On ch=1 n=c8 v=0
70170 On ch=1 n=d8 v=0
70170 On ch=1 n=f7 v=114
70170 On ch=1 n=c8 v=114
70170 On ch=1 n=d8 v=114
70170 On ch=1 n=f8 v=114
70200 On ch=1 n=f8 v=0
70200 On ch=1 n=f7 v=0
70200 On ch=1 n=c8 v=0
70200 On ch=1 n=d8 v=0
70200 On ch=1 n=f7 v=114
70200 On ch=1 n=c8 v=114
70200 On ch=1 n=d8 v=114
70200 On ch=1 n=f8 v=114
70230 On ch=1 n=f8 v=0
70230 On ch=1 n=f7 v=0
70230 On ch=1 n=c8 v=0
70230 On ch=1 n=d8 v=0
70230 On ch=1 n=f7 v=114
70230 On ch=1 n=c8 v=114
70230 On ch=1 n=d8 v=114
70230 On ch=1 n=f8 v=114
70260 On ch=1 n=f8 v=0
70260 On ch=1 n=f7 v=0
70260 On ch=1 n=c8 v=0
70260 On ch=1 n=d8 v=0
70260 On ch=1 n=f7 v=114
70260 On ch=1 n=c8 v=114
70260 On ch=1 n=d8 v=114
70260 On ch=1 n=f8 v=114
70290 On ch=1 n=f8 v=0
70290 On ch=1 n=f7 v=0
70290 On ch=1 n=c8 v=0
70290 On ch=1 n=d8 v=0
70290 On ch=1 n=f7 v=114
70290 On ch=1 n=d8 v=114
70290 On ch=1 n=f8 v=114
70350 On ch=1 n=f8 v=0
70350 On ch=1 n=d8 v=0
70350 On ch=1 n=f7 v=0
70350 On ch=1 n=f#7 v=114
70350 On ch=1 n=a#7 v=114
70350 On ch=1 n=f#8 v=114
70410 On ch=1 n=f#8 v=0
70410 On ch=1 n=a#7 v=0
70410 On ch=1 n=f#7 v=0
70410 Par ch=1 c=64 v=127
70410 On ch=1 n=f7 v=114
70410 On ch=1 n=d8 v=114
70410 On ch=1 n=f8 v=114
70470 On ch=1 n=f8 v=0
70470 On ch=1 n=d8 v=0
70470 On ch=1 n=f7 v=0
70470 On ch=1 n=g7 v=114
70470 On ch=1 n=a#7 v=114
70470 On ch=1 n=g8 v=114
70530 On ch=1 n=g8 v=0
70530 On ch=1 n=a#7 v=0
70530 On ch=1 n=g7 v=0
70530 On ch=1 n=f7 v=114
70530 On ch=1 n=d8 v=114
70530 On ch=1 n=f8 v=114
70590 On ch=1 n=f8 v=0
70590 On ch=1 n=d8 v=0
70590 On ch=1 n=f7 v=0
70590 On ch=1 n=f#7 v=114
70590 On ch=1 n=a#7 v=114
70590 On ch=1 n=f#8 v=114
70650 On ch=1 n=f#8 v=0
70650 On ch=1 n=a#7 v=0
70650 On ch=1 n=f#7 v=0
70650 On ch=1 n=f7 v=114
70650 On ch=1 n=d8 v=114
70650 On ch=1 n=f8 v=114
70710 On ch=1 n=f8 v=0
70710 On ch=1 n=d8 v=0
70710 On ch=1 n=f7 v=0
70710 On ch=1 n=g7 v=114
70710 On ch=1 n=a#7 v=114
70710 On ch=1 n=g8 v=114
70770 On ch=1 n=g8 v=0
70770 On ch=1 n=a#7 v=0
70770 On ch=1 n=g7 v=0
70770 On ch=1 n=f7 v=114
70770 On ch=1 n=d8 v=114
70770 On ch=1 n=f8 v=114
70830 On ch=1 n=f8 v=0
70830 On ch=1 n=d8 v=0
70830 On ch=1 n=f7 v=0
70830 On ch=1 n=f#7 v=114
70830 On ch=1 n=a#7 v=114
70830 On ch=1 n=f#8 v=114
70890 On ch=1 n=f#8 v=0
70890 On ch=1 n=a#7 v=0
70890 On ch=1 n=f#7 v=0
70890 On ch=1 n=f7 v=114
70890 On ch=1 n=d8 v=114
70890 On ch=1 n=f8 v=114
70950 On ch=1 n=f8 v=0
70950 On ch=1 n=d8 v=0
70950 On ch=1 n=f7 v=0
70950 On ch=1 n=g7 v=114
70950 On ch=1 n=a#7 v=114
70950 On ch=1 n=g8 v=114
71010 On ch=1 n=g8 v=0
71010 On ch=1 n=a#7 v=0
71010 On ch=1 n=g7 v=0
71010 On ch=1 n=f7 v=114
71010 On ch=1 n=d8 v=114
71010 On ch=1 n=f8 v=114
71070 On ch=1 n=f8 v=0
71070 On ch=1 n=d8 v=0
71070 On ch=1 n=f7 v=0
71070 On ch=1 n=f#7 v=114
71070 On ch=1 n=a#7 v=114
71070 On ch=1 n=f#8 v=114
71130 On ch=1 n=f#8 v=0
71130 On ch=1 n=a#7 v=0
71130 On ch=1 n=f#7 v=0
71130 On ch=1 n=f7 v=114
71130 On ch=1 n=d8 v=114
71130 On ch=1 n=f8 v=114
71190 On ch=1 n=f8 v=0
71190 On ch=1 n=d8 v=0
71190 On ch=1 n=f7 v=0
71190 On ch=1 n=g7 v=114
71190 On ch=1 n=a#7 v=114
71190 On ch=1 n=g8 v=114
71250 On ch=1 n=g8 v=0
71250 On ch=1 n=a#7 v=0
71250 On ch=1 n=g7 v=0
71250 On ch=1 n=f7 v=114
71250 On ch=1 n=d8 v=114
71250 On ch=1 n=f8 v=114
71310 On ch=1 n=f8 v=0
71310 On ch=1 n=d8 v=0
71310 On ch=1 n=f7 v=0
71310 Par ch=1 c=64 v=0
71370 On ch=1 n=f6 v=114
71370 On ch=1 n=a6 v=114
71370 On ch=1 n=c7 v=114
71370 On ch=1 n=f7 v=114
71430 On ch=1 n=f7 v=0
71430 On ch=1 n=f6 v=0
71430 On ch=1 n=a6 v=0
71430 On ch=1 n=c7 v=0
71490 On ch=1 n=f5 v=114
71490 On ch=1 n=a#5 v=114
71490 On ch=1 n=d6 v=114
71490 On ch=1 n=f6 v=114
71550 On ch=1 n=f6 v=0
71550 On ch=1 n=f5 v=0
71550 On ch=1 n=a#5 v=0
71550 On ch=1 n=d6 v=0
71610 On ch=1 n=f4 v=114
71610 On ch=1 n=a4 v=114
71610 On ch=1 n=c5 v=114
71610 On ch=1 n=f5 v=114
71670 On ch=1 n=f5 v=0
71670 On ch=1 n=f4 v=0
71670 On ch=1 n=a4 v=0
71670 On ch=1 n=c5 v=0
71730 Par ch=1 c=64 v=127
71730 On ch=1 n=f4 v=114
71730 On ch=1 n=a#4 v=114
71730 On ch=1 n=d5 v=114
71730 On ch=1 n=f5 v=114
71790 On ch=1 n=f5 v=0
71790 On ch=1 n=f4 v=0
71790 On ch=1 n=a#4 v=0
71790 On ch=1 n=d5 v=0
71940 On ch=1 n=d6 v=114
71940 On ch=1 n=f6 v=114
71940 On ch=1 n=a#6 v=114
71940 On ch=1 n=d7 v=114
71970 On ch=1 n=d7 v=0
71970 On ch=1 n=d6 v=0
71970 On ch=1 n=f6 v=0
71970 On ch=1 n=a#6 v=0
71970 On ch=1 n=d6 v=114
71970 On ch=1 n=f6 v=114
71970 On ch=1 n=a#6 v=114
71970 On ch=1 n=d7 v=114
71976 On ch=1 n=d7 v=0
71976 On ch=1 n=d6 v=0
71976 On ch=1 n=f6 v=0
71976 On ch=1 n=a#6 v=0
72180 On ch=1 n=d4 v=114
72180 On ch=1 n=f4 v=114
72180 On ch=1 n=a#4 v=114
72210 On ch=1 n=a#4 v=0
72210 On ch=1 n=f4 v=0
72210 On ch=1 n=d4 v=0
72210 On ch=1 n=d4 v=114
72210 On ch=1 n=f4 v=114
72210 On ch=1 n=a#4 v=114
72216 On ch=1 n=a#4 v=0
72216 On ch=1 n=f4 v=0
72216 On ch=1 n=d4 v=0
72690 Par ch=1 c=64 v=0
72690 Meta TrkEnd
TrkEnd
MTrk
0 Meta 0x21 00
0 Meta TrkName "Instrument17"
0 PrCh ch=2 p=0
0 Par ch=2 c=7 v=127
0 Par ch=2 c=10 v=97
2880 On ch=2 n=c#5 v=64
2940 On ch=2 n=c#5 v=0
2940 On ch=2 n=c5 v=90
3060 On ch=2 n=c5 v=0
4830 On ch=2 n=c#5 v=64
4890 On ch=2 n=c#5 v=0
4890 On ch=2 n=c5 v=90
5010 On ch=2 n=c5 v=0
6810 On ch=2 n=f#5 v=64
6870 On ch=2 n=f#5 v=0
36225 On ch=2 n=c#5 v=62
36225 On ch=2 n=f5 v=62
36240 On ch=2 n=f5 v=0
36240 On ch=2 n=c#5 v=0
36240 On ch=2 n=c#5 v=62
36240 On ch=2 n=f5 v=62
36300 On ch=2 n=f5 v=0
36300 On ch=2 n=c#5 v=0
36465 On ch=2 n=d#5 v=62
36465 On ch=2 n=f#5 v=62
36480 On ch=2 n=f#5 v=0
36480 On ch=2 n=d#5 v=0
36480 On ch=2 n=d#5 v=62
36480 On ch=2 n=f#5 v=62
36540 On ch=2 n=f#5 v=0
36540 On ch=2 n=d#5 v=0
36705 On ch=2 n=d5 v=62
36705 On ch=2 n=f5 v=62
36720 On ch=2 n=f5 v=0
36720 On ch=2 n=d5 v=0
36720 On ch=2 n=d5 v=62
36720 On ch=2 n=f5 v=62
36765 On ch=2 n=d6 v=62
36765 On ch=2 n=f6 v=62
36765 On ch=2 n=a#6 v=62
36780 On ch=2 n=a#6 v=0
36780 On ch=2 n=d6 v=0
36780 On ch=2 n=d5 v=0
36780 On ch=2 n=f5 v=0
36780 On ch=2 n=f6 v=0
36780 On ch=2 n=d6 v=62
36780 On ch=2 n=f6 v=62
36780 On ch=2 n=a#6 v=62
37020 On ch=2 n=a#6 v=0
37020 On ch=2 n=f6 v=0
37020 On ch=2 n=d6 v=0
37305 On ch=2 n=f#4 v=36
37305 On ch=2 n=a#4 v=36
37305 On ch=2 n=c#5 v=36
37320 On ch=2 n=c#5 v=0
37320 On ch=2 n=a#4 v=0
37320 On ch=2 n=f#4 v=0
37320 On ch=2 n=f#4 v=36
37320 On ch=2 n=a#4 v=36
37320 On ch=2 n=c#5 v=36
37380 On ch=2 n=c#5 v=0
37380 On ch=2 n=a#4 v=0
37380 On ch=2 n=f#4 v=0
37425 On ch=2 n=g#4 v=36
37425 On ch=2 n=c#5 v=36
37425 On ch=2 n=f5 v=36
37440 On ch=2 n=f5 v=0
37440 On ch=2 n=c#5 v=0
37440 On ch=2 n=g#4 v=0
37440 On ch=2 n=g#4 v=36
37440 On ch=2 n=c#5 v=36
37440 On ch=2 n=f5 v=36
37500 On ch=2 n=f5 v=0
37500 On ch=2 n=c#5 v=0
37500 On ch=2 n=g#4 v=0
37545 On ch=2 n=a#4 v=36
37545 On ch=2 n=e5 v=36
37545 On ch=2 n=g5 v=36
37560 On ch=2 n=g5 v=0
37560 On ch=2 n=e5 v=0
37560 On ch=2 n=a#4 v=0
37560 On ch=2 n=a#4 v=36
37560 On ch=2 n=e5 v=36
37560 On ch=2 n=g5 v=36
37620 On ch=2 n=g5 v=0
37620 On ch=2 n=e5 v=0
37620 On ch=2 n=a#4 v=0
37845 On ch=2 n=a4 v=36
37845 On ch=2 n=c5 v=36
37845 On ch=2 n=f5 v=36
37845 On ch=2 n=a5 v=36
37860 On ch=2 n=a5 v=0
37860 On ch=2 n=a4 v=0
37860 On ch=2 n=c5 v=0
37860 On ch=2 n=f5 v=0
37860 On ch=2 n=a4 v=50
37860 On ch=2 n=c5 v=54
37860 On ch=2 n=f5 v=58
37860 On ch=2 n=a5 v=62
38100 On ch=2 n=a5 v=0
38100 On ch=2 n=a4 v=0
38100 On ch=2 n=c5 v=0
38100 On ch=2 n=f5 v=0
38265 On ch=2 n=f4 v=75
38280 On ch=2 n=f4 v=0
38280 On ch=2 n=f4 v=75
38284 On ch=2 n=f4 v=0
38300 On ch=2 n=g4 v=75
38304 On ch=2 n=g4 v=0
38319 On ch=2 n=a4 v=75
38323 On ch=2 n=a4 v=0
42510 On ch=2 n=f5 v=62
42630 On ch=2 n=f5 v=0
42630 On ch=2 n=f5 v=36
42636 On ch=2 n=f5 v=0
42990 On ch=2 n=f5 v=54
42990 On ch=2 n=a#5 v=62
43110 On ch=2 n=a#5 v=0
43110 On ch=2 n=f5 v=0
43110 On ch=2 n=f5 v=36
43110 On ch=2 n=a#5 v=36
43116 On ch=2 n=a#5 v=0
43116 On ch=2 n=f5 v=0
43470 On ch=2 n=f5 v=62
43590 On ch=2 n=f5 v=0
43590 On ch=2 n=f5 v=36
43596 On ch=2 n=f5 v=0
43950 On ch=2 n=f5 v=36
44070 On ch=2 n=f5 v=0
44070 On ch=2 n=f5 v=36
44130 On ch=2 n=f5 v=0
49890 Par ch=2 c=64 v=127
49890 On ch=2 n=c6 v=49
49890 On ch=2 n=c7 v=49
49920 On ch=2 n=c7 v=0
49920 On ch=2 n=c6 v=0
49920 On ch=2 n=c6 v=49
49920 On ch=2 n=c7 v=49
49950 On ch=2 n=c7 v=0
49950 On ch=2 n=c6 v=0
49980 On ch=2 n=c6 v=49
49980 On ch=2 n=c7 v=49
50010 On ch=2 n=c7 v=0
50010 On ch=2 n=c6 v=0
50010 On ch=2 n=c6 v=49
50010 On ch=2 n=c7 v=49
50040 On ch=2 n=c7 v=0
50040 On ch=2 n=c6 v=0
50040 On ch=2 n=c6 v=49
50040 On ch=2 n=c7 v=49
50070 On ch=2 n=c7 v=0
50070 On ch=2 n=c6 v=0
50100 Par ch=2 c=64 v=0
50100 On ch=2 n=c6 v=49
50100 On ch=2 n=c7 v=49
50130 On ch=2 n=c7 v=0
50130 On ch=2 n=c6 v=0
50370 Par ch=2 c=64 v=127
50370 On ch=2 n=d6 v=49
50370 On ch=2 n=d7 v=49
50400 On ch=2 n=d7 v=0
50400 On ch=2 n=d6 v=0
50400 On ch=2 n=d6 v=49
50400 On ch=2 n=d7 v=49
50430 On ch=2 n=d7 v=0
50430 On ch=2 n=d6 v=0
50460 On ch=2 n=d6 v=49
50460 On ch=2 n=d7 v=49
50490 On ch=2 n=d7 v=0
50490 On ch=2 n=d6 v=0
50490 On ch=2 n=d6 v=49
50490 On ch=2 n=d7 v=49
50520 On ch=2 n=d7 v=0
50520 On ch=2 n=d6 v=0
50520 On ch=2 n=d6 v=49
50520 On ch=2 n=d7 v=49
50550 On ch=2 n=d7 v=0
50550 On ch=2 n=d6 v=0
50580 Par ch=2 c=64 v=0
50580 On ch=2 n=d6 v=49
50580 On ch=2 n=d7 v=49
50610 On ch=2 n=d7 v=0
50610 On ch=2 n=d6 v=0
50850 Par ch=2 c=64 v=127
50850 On ch=2 n=c6 v=49
50850 On ch=2 n=c7 v=49
50880 On ch=2 n=c7 v=0
50880 On ch=2 n=c6 v=0
50880 On ch=2 n=c6 v=49
50880 On ch=2 n=c7 v=49
50910 On ch=2 n=c7 v=0
50910 On ch=2 n=c6 v=0
50940 On ch=2 n=c6 v=49
50940 On ch=2 n=c7 v=49
50970 On ch=2 n=c7 v=0
50970 On ch=2 n=c6 v=0
50970 On ch=2 n=c6 v=49
50970 On ch=2 n=c7 v=49
51000 On ch=2 n=c7 v=0
51000 On ch=2 n=c6 v=0
51000 On ch=2 n=c6 v=49
51000 On ch=2 n=c7 v=49
51030 On ch=2 n=c7 v=0
51030 On ch=2 n=c6 v=0
51060 Par ch=2 c=64 v=0
51060 On ch=2 n=c6 v=49
51060 On ch=2 n=c7 v=49
51090 On ch=2 n=c7 v=0
51090 On ch=2 n=c6 v=0
51330 Par ch=2 c=64 v=127
51330 On ch=2 n=a#5 v=49
51330 On ch=2 n=a#6 v=49
51360 On ch=2 n=a#6 v=0
51360 On ch=2 n=a#5 v=0
51360 On ch=2 n=a#5 v=49
51360 On ch=2 n=a#6 v=49
51390 On ch=2 n=a#6 v=0
51390 On ch=2 n=a#5 v=0
51420 On ch=2 n=a#5 v=49
51420 On ch=2 n=a#6 v=49
51450 On ch=2 n=a#6 v=0
51450 On ch=2 n=a#5 v=0
51450 On ch=2 n=a#5 v=49
51450 On ch=2 n=a#6 v=49
51480 On ch=2 n=a#6 v=0
51480 On ch=2 n=a#5 v=0
51480 On ch=2 n=a#5 v=49
51480 On ch=2 n=a#6 v=49
51510 On ch=2 n=a#6 v=0
51510 On ch=2 n=a#5 v=0
51540 Par ch=2 c=64 v=0
51540 On ch=2 n=a#5 v=49
51540 On ch=2 n=a#6 v=49
51570 On ch=2 n=a#6 v=0
51570 On ch=2 n=a#5 v=0
51810 Par ch=2 c=64 v=127
51810 On ch=2 n=c6 v=49
51810 On ch=2 n=c7 v=49
51840 On ch=2 n=c7 v=0
51840 On ch=2 n=c6 v=0
51840 On ch=2 n=c6 v=49
51840 On ch=2 n=c7 v=49
51870 On ch=2 n=c7 v=0
51870 On ch=2 n=c6 v=0
51900 On ch=2 n=c6 v=62
51900 On ch=2 n=c7 v=62
51930 On ch=2 n=c7 v=0
51930 On ch=2 n=c6 v=0
51930 On ch=2 n=c6 v=62
51930 On ch=2 n=c7 v=62
51960 On ch=2 n=c7 v=0
51960 On ch=2 n=c6 v=0
51960 On ch=2 n=c6 v=75
51960 On ch=2 n=c7 v=75
51990 On ch=2 n=c7 v=0
51990 On ch=2 n=c6 v=0
52020 Par ch=2 c=64 v=0
52020 On ch=2 n=c6 v=75
52020 On ch=2 n=c7 v=75
52050 On ch=2 n=c7 v=0
52050 On ch=2 n=c6 v=0
52290 Par ch=2 c=64 v=127
52290 On ch=2 n=d6 v=75
52290 On ch=2 n=d7 v=75
52320 On ch=2 n=d7 v=0
52320 On ch=2 n=d6 v=0
52320 On ch=2 n=d6 v=75
52320 On ch=2 n=d7 v=75
52350 On ch=2 n=d7 v=0
52350 On ch=2 n=d6 v=0
52380 On ch=2 n=d6 v=62
52380 On ch=2 n=d7 v=62
52410 On ch=2 n=d7 v=0
52410 On ch=2 n=d6 v=0
52410 On ch=2 n=d6 v=62
52410 On ch=2 n=d7 v=62
52440 On ch=2 n=d7 v=0
52440 On ch=2 n=d6 v=0
52440 On ch=2 n=d6 v=75
52440 On ch=2 n=d7 v=75
52470 On ch=2 n=d7 v=0
52470 On ch=2 n=d6 v=0
52500 Par ch=2 c=64 v=0
52500 On ch=2 n=d6 v=75
52500 On ch=2 n=d7 v=75
52530 On ch=2 n=d7 v=0
52530 On ch=2 n=d6 v=0
52770 Par ch=2 c=64 v=127
52770 On ch=2 n=c6 v=62
52770 On ch=2 n=c7 v=62
52800 On ch=2 n=c7 v=0
52800 On ch=2 n=c6 v=0
52800 On ch=2 n=c6 v=62
52800 On ch=2 n=c7 v=62
52830 On ch=2 n=c7 v=0
52830 On ch=2 n=c6 v=0
52860 On ch=2 n=c6 v=75
52860 On ch=2 n=c7 v=75
52890 On ch=2 n=c7 v=0
52890 On ch=2 n=c6 v=0
52890 On ch=2 n=c6 v=75
52890 On ch=2 n=c7 v=75
52920 On ch=2 n=c7 v=0
52920 On ch=2 n=c6 v=0
52920 On ch=2 n=c6 v=88
52920 On ch=2 n=c7 v=88
52950 On ch=2 n=c7 v=0
52950 On ch=2 n=c6 v=0
52980 Par ch=2 c=64 v=0
52980 On ch=2 n=c6 v=88
52980 On ch=2 n=c7 v=88
53010 On ch=2 n=c7 v=0
53010 On ch=2 n=c6 v=0
53250 Par ch=2 c=64 v=127
53250 On ch=2 n=a#5 v=88
53250 On ch=2 n=a#6 v=88
53280 On ch=2 n=a#6 v=0
53280 On ch=2 n=a#5 v=0
53280 On ch=2 n=a#5 v=88
53280 On ch=2 n=a#6 v=88
53310 On ch=2 n=a#6 v=0
53310 On ch=2 n=a#5 v=0
53340 On ch=2 n=a#5 v=88
53340 On ch=2 n=a#6 v=88
53370 On ch=2 n=a#6 v=0
53370 On ch=2 n=a#5 v=0
53370 On ch=2 n=a#5 v=88
53370 On ch=2 n=a#6 v=88
53400 On ch=2 n=a#6 v=0
53400 On ch=2 n=a#5 v=0
53400 On ch=2 n=a#5 v=88
53400 On ch=2 n=a#6 v=88
53430 On ch=2 n=a#6 v=0
53430 On ch=2 n=a#5 v=0
53430 On ch=2 n=f5 v=88
53430 On ch=2 n=f6 v=88
53460 On ch=2 n=f6 v=0
53460 On ch=2 n=f5 v=0
53460 Par ch=2 c=64 v=0
53460 On ch=2 n=g5 v=88
53460 On ch=2 n=g6 v=88
53490 On ch=2 n=g6 v=0
53490 On ch=2 n=g5 v=0
72690 Par ch=2 c=64 v=0
72690 Meta TrkEnd
TrkEnd
MTrk
0 Meta 0x21 00
0 Meta TrkName "Instrument18"
0 PrCh ch=3 p=0
0 Par ch=3 c=7 v=127
0 Par ch=3 c=10 v=30
0 Par ch=3 c=64 v=127
100 On ch=3 n=c#3 v=104
110 On ch=3 n=g#3 v=109
120 On ch=3 n=c#4 v=114
126 On ch=3 n=c#4 v=0
126 On ch=3 n=g#3 v=0
126 On ch=3 n=c#3 v=0
180 On ch=3 n=g#3 v=106
180 On ch=3 n=c#4 v=114
240 On ch=3 n=c#4 v=0
240 On ch=3 n=g#3 v=0
240 On ch=3 n=c#3 v=88
246 On ch=3 n=c#3 v=0
300 On ch=3 n=g#3 v=106
300 On ch=3 n=c#4 v=114
360 On ch=3 n=c#4 v=0
360 On ch=3 n=g#3 v=0
360 On ch=3 n=c#3 v=88
366 On ch=3 n=c#3 v=0
420 On ch=3 n=g#3 v=106
420 On ch=3 n=c#4 v=114
480 On ch=3 n=c#4 v=0
480 On ch=3 n=g#3 v=0
480 On ch=3 n=c#3 v=88
486 On ch=3 n=c#3 v=0
540 On ch=3 n=g#3 v=88
540 On ch=3 n=c#4 v=88
546 On ch=3 n=c#4 v=0
546 On ch=3 n=g#3 v=0
577 On ch=3 n=c#3 v=102
585 On ch=3 n=g#3 v=106
592 On ch=3 n=c#4 v=110
600 On ch=3 n=g#4 v=114
605 On ch=3 n=c#4 v=0
605 On ch=3 n=c#3 v=0
606 On ch=3 n=g#3 v=0
606 On ch=3 n=g#4 v=0
660 On ch=3 n=g#3 v=104
660 On ch=3 n=c#4 v=109
660 On ch=3 n=g#4 v=114
720 On ch=3 n=g#4 v=0
720 On ch=3 n=c#4 v=0
720 On ch=3 n=g#3 v=0
720 On ch=3 n=c#3 v=88
726 On ch=3 n=c#3 v=0
780 On ch=3 n=g#3 v=104
780 On ch=3 n=c#4 v=109
780 On ch=3 n=g#4 v=114
840 On ch=3 n=g#4 v=0
840 On ch=3 n=c#4 v=0
840 On ch=3 n=g#3 v=0
840 On ch=3 n=c#3 v=88
846 On ch=3 n=c#3 v=0
900 On ch=3 n=g#3 v=104
900 On ch=3 n=c#4 v=109
900 On ch=3 n=g#4 v=114
960 On ch=3 n=g#4 v=0
960 On ch=3 n=c#4 v=0
960 On ch=3 n=g#3 v=0
960 On ch=3 n=c#3 v=88
966 On ch=3 n=c#3 v=0
1020 Par ch=3 c=64 v=0
1020 On ch=3 n=g#3 v=88
1020 On ch=3 n=c#4 v=88
1020 On ch=3 n=g#4 v=88
1026 On ch=3 n=g#4 v=0
1026 On ch=3 n=c#4 v=0
1026 On ch=3 n=g#3 v=0
1060 On ch=3 n=c#4 v=88
1070 On ch=3 n=g#4 v=88
1080 Par ch=3 c=64 v=127
1080 On ch=3 n=c#5 v=75
1086 On ch=3 n=c#5 v=0
1086 On ch=3 n=g#4 v=0
1086 On ch=3 n=c#4 v=0
1140 On ch=3 n=f4 v=91
1140 On ch=3 n=g#4 v=96
1140 On ch=3 n=c#5 v=101
1200 On ch=3 n=c#5 v=0
1200 On ch=3 n=g#4 v=0
1200 On ch=3 n=f4 v=0
1200 On ch=3 n=c#3 v=75
1206 On ch=3 n=c#3 v=0
1260 On ch=3 n=f4 v=75
1260 On ch=3 n=g#4 v=75
1260 On ch=3 n=c#5 v=75
1320 On ch=3 n=c#5 v=0
1320 On ch=3 n=g#4 v=0
1320 On ch=3 n=f4 v=0
1380 On ch=3 n=c#5 v=75
1425 On ch=3 n=c#5 v=0
1425 On ch=3 n=c5 v=75
1440 On ch=3 n=c5 v=0
1440 Par ch=3 c=64 v=0
1440 On ch=3 n=c#5 v=75
1560 On ch=3 n=c#5 v=0
1800 Par ch=3 c=64 v=127
1860 On ch=3 n=c5 v=75
1905 On ch=3 n=c5 v=0
1905 Par ch=3 c=64 v=0
1905 On ch=3 n=b4 v=75
1920 On ch=3 n=b4 v=0
1920 On ch=3 n=c5 v=75
2040 On ch=3 n=c5 v=0
2040 On ch=3 n=a#4 v=101
2130 On ch=3 n=a#4 v=0
2130 On ch=3 n=g#4 v=75
2160 On ch=3 n=g#4 v=0
2160 On ch=3 n=g4 v=75
2164 On ch=3 n=g4 v=0
2190 On ch=3 n=f#4 v=75
2194 On ch=3 n=f#4 v=0
2220 On ch=3 n=g4 v=101
2280 On ch=3 n=g4 v=0
2340 On ch=3 n=g4 v=49
2340 On ch=3 n=a#4 v=49
2344 On ch=3 n=a#4 v=0
2344 On ch=3 n=g4 v=0
2370 On ch=3 n=g#4 v=49
2370 On ch=3 n=c5 v=49
2374 On ch=3 n=c5 v=0
2374 On ch=3 n=g#4 v=0
2400 On ch=3 n=a#4 v=62
2400 On ch=3 n=c#5 v=62
2404 On ch=3 n=c#5 v=0
2404 On ch=3 n=a#4 v=0
2430 On ch=3 n=c5 v=62
2430 On ch=3 n=d#5 v=62
2434 On ch=3 n=d#5 v=0
2434 On ch=3 n=c5 v=0
2460 On ch=3 n=c#5 v=75
2460 On ch=3 n=f5 v=75
2464 On ch=3 n=f5 v=0
2464 On ch=3 n=c#5 v=0
2490 On ch=3 n=a#4 v=75
2490 On ch=3 n=c#5 v=75
2494 On ch=3 n=c#5 v=0
2494 On ch=3 n=a#4 v=0
2550 On ch=3 n=g#3 v=49
2610 On ch=3 n=g#3 v=0
2610 On ch=3 n=c5 v=49
2610 On ch=3 n=d#5 v=49
2670 On ch=3 n=d#5 v=0
2670 On ch=3 n=c5 v=0
2670 On ch=3 n=d#3 v=49
2730 On ch=3 n=d#3 v=0
2730 On ch=3 n=d#4 v=49
2730 On ch=3 n=a#4 v=49
2730 On ch=3 n=c#5 v=49
2790 On ch=3 n=c#5 v=0
2790 On ch=3 n=a#4 v=0
2790 On ch=3 n=d#4 v=0
2820 On ch=3 n=g#4 v=49
2820 On ch=3 n=c5 v=49
2880 On ch=3 n=c5 v=0
2880 On ch=3 n=g#4 v=0
2880 On ch=3 n=d#4 v=49
2880 On ch=3 n=a#4 v=49
2940 On ch=3 n=a#4 v=0
2940 On ch=3 n=d#4 v=0
2940 On ch=3 n=g#3 v=49
2940 On ch=3 n=d#4 v=49
2940 On ch=3 n=g#4 v=49
2946 On ch=3 n=g#4 v=0
2946 On ch=3 n=d#4 v=0
2946 On ch=3 n=g#3 v=0
3000 On ch=3 n=g#2 v=49
3060 On ch=3 n=g#2 v=0
3300 Par ch=3 c=64 v=127
3360 On ch=3 n=c#5 v=49
3360 On ch=3 n=f5 v=49
3364 On ch=3 n=f5 v=0
3364 On ch=3 n=c#5 v=0
3405 On ch=3 n=c5 v=49
3405 On ch=3 n=e5 v=49
3409 On ch=3 n=e5 v=0
3409 On ch=3 n=c5 v=0
3420 Par ch=3 c=64 v=0
3420 On ch=3 n=c#5 v=67
3420 On ch=3 n=f5 v=75
3540 On ch=3 n=f5 v=0
3540 On ch=3 n=c#5 v=0
3780 Par ch=3 c=64 v=127
3840 On ch=3 n=b4 v=88
3840 On ch=3 n=d#5 v=88
3885 On ch=3 n=d#5 v=0
3885 On ch=3 n=b4 v=0
3885 On ch=3 n=a#4 v=88
3885 On ch=3 n=d5 v=88
3900 On ch=3 n=d5 v=0
3900 On ch=3 n=a#4 v=0
3900 Par ch=3 c=64 v=0
3900 On ch=3 n=b4 v=88
3900 On ch=3 n=d#5 v=88
3997 On ch=3 n=a#3 v=88
4005 On ch=3 n=e4 v=88
4012 On ch=3 n=g4 v=88
4020 On ch=3 n=d#5 v=0
4020 On ch=3 n=b4 v=0
4020 On ch=3 n=c#5 v=88
4110 On ch=3 n=c#5 v=0
4110 On ch=3 n=g4 v=0
4110 On ch=3 n=a#3 v=0
4110 On ch=3 n=e4 v=0
4110 On ch=3 n=g#4 v=88
4110 On ch=3 n=b4 v=88
4140 On ch=3 n=b4 v=0
4140 On ch=3 n=g#4 v=0
4140 On ch=3 n=d#4 v=88
4140 On ch=3 n=a#4 v=88
4170 On ch=3 n=a#4 v=0
4170 On ch=3 n=d#4 v=0
4170 On ch=3 n=f#4 v=88
4170 On ch=3 n=a4 v=88
4200 On ch=3 n=a4 v=0
4200 On ch=3 n=f#4 v=0
4200 On ch=3 n=g4 v=88
4200 On ch=3 n=a#4 v=88
4260 On ch=3 n=a#4 v=0
4260 On ch=3 n=g4 v=0
4320 On ch=3 n=g4 v=62
4320 On ch=3 n=a#4 v=62
4324 On ch=3 n=a#4 v=0
4324 On ch=3 n=g4 v=0
4350 On ch=3 n=g#4 v=62
4350 On ch=3 n=c5 v=62
4354 On ch=3 n=c5 v=0
4354 On ch=3 n=g#4 v=0
4380 On ch=3 n=a#4 v=75
4380 On ch=3 n=c#5 v=75
4384 On ch=3 n=c#5 v=0
4384 On ch=3 n=a#4 v=0
4410 On ch=3 n=c5 v=75
4410 On ch=3 n=d#5 v=75
4414 On ch=3 n=d#5 v=0
4414 On ch=3 n=c5 v=0
4440 On ch=3 n=c#5 v=88
4440 On ch=3 n=f5 v=88
4444 On ch=3 n=f5 v=0
4444 On ch=3 n=c#5 v=0
4470 On ch=3 n=a#4 v=88
4470 On ch=3 n=c#5 v=88
4474 On ch=3 n=c#5 v=0
4474 On ch=3 n=a#4 v=0
4500 On ch=3 n=g#3 v=49
4560 On ch=3 n=g#3 v=0
4560 On ch=3 n=c5 v=49
4560 On ch=3 n=d#5 v=49
4620 On ch=3 n=d#5 v=0
4620 On ch=3 n=c5 v=0
4620 On ch=3 n=d#3 v=49
4680 On ch=3 n=d#3 v=0
4680 On ch=3 n=a#4 v=49
4680 On ch=3 n=c#5 v=49
4740 On ch=3 n=c#5 v=0
4740 On ch=3 n=a#4 v=0
4770 On ch=3 n=g#4 v=49
4770 On ch=3 n=c5 v=49
4830 On ch=3 n=c5 v=0
4830 On ch=3 n=g#4 v=0
4830 On ch=3 n=d#4 v=49
4830 On ch=3 n=a#4 v=49
4890 On ch=3 n=a#4 v=0
4890 On ch=3 n=d#4 v=0
4890 On ch=3 n=g#3 v=49
4890 On ch=3 n=d#4 v=49
4890 On ch=3 n=g#4 v=49
4896 On ch=3 n=g#4 v=0
4896 On ch=3 n=d#4 v=0
4896 On ch=3 n=g#3 v=0
4950 On ch=3 n=g#2 v=49
4950 On ch=3 n=g#3 v=49
4956 On ch=3 n=g#3 v=0
4956 On ch=3 n=g#2 v=0
5010 Par ch=3 c=64 v=127
5010 On ch=3 n=f#2 v=75
5010 On ch=3 n=f#3 v=75
5016 On ch=3 n=f#3 v=0
5016 On ch=3 n=f#2 v=0
5070 On ch=3 n=c#4 v=75
5070 On ch=3 n=f#4 v=75
5070 On ch=3 n=a#4 v=75
5130 On ch=3 n=a#4 v=0
5130 On ch=3 n=f#4 v=0
5130 On ch=3 n=c#4 v=0
5130 On ch=3 n=f#3 v=75
5136 On ch=3 n=f#3 v=0
5190 Par ch=3 c=64 v=0
5190 On ch=3 n=c#4 v=75
5190 On ch=3 n=f#4 v=75
5190 On ch=3 n=a#4 v=75
5196 On ch=3 n=a#4 v=0
5196 On ch=3 n=f#4 v=0
5196 On ch=3 n=c#4 v=0
5235 On ch=3 n=a#3 v=75
5250 On ch=3 n=c#5 v=75
5290 On ch=3 n=g#3 v=75
5300 On ch=3 n=c4 v=75
5310 On ch=3 n=c#5 v=0
5310 On ch=3 n=a#3 v=0
5310 On ch=3 n=c5 v=75
5355 On ch=3 n=f#3 v=75
5370 On ch=3 n=c5 v=0
5370 On ch=3 n=c4 v=0
5370 On ch=3 n=g#3 v=0
5370 On ch=3 n=a#4 v=75
5490 On ch=3 n=a#4 v=0
5490 On ch=3 n=f#3 v=0
6300 On ch=3 n=c4 v=49
6300 On ch=3 n=d#4 v=49
6304 On ch=3 n=d#4 v=0
6304 On ch=3 n=c4 v=0
6330 On ch=3 n=c#4 v=49
6330 On ch=3 n=f4 v=49
6334 On ch=3 n=f4 v=0
6334 On ch=3 n=c#4 v=0
6360 On ch=3 n=d#4 v=62
6360 On ch=3 n=f#4 v=62
6364 On ch=3 n=f#4 v=0
6364 On ch=3 n=d#4 v=0
6390 On ch=3 n=f4 v=62
6390 On ch=3 n=g#4 v=62
6394 On ch=3 n=g#4 v=0
6394 On ch=3 n=f4 v=0
6420 On ch=3 n=f#4 v=75
6420 On ch=3 n=a#4 v=75
6424 On ch=3 n=a#4 v=0
6424 On ch=3 n=f#4 v=0
6450 On ch=3 n=d#4 v=75
6450 On ch=3 n=c5 v=75
6454 On ch=3 n=c5 v=0
6454 On ch=3 n=d#4 v=0
6750 On ch=3 n=c#5 v=75
6750 On ch=3 n=f5 v=75
6810 On ch=3 n=f5 v=0
6810 On ch=3 n=c#5 v=0
6810 On ch=3 n=g#4 v=75
6810 On ch=3 n=d#5 v=75
6870 On ch=3 n=d#5 v=0
6870 On ch=3 n=g#4 v=0
6870 On ch=3 n=c#4 v=75
6870 On ch=3 n=g#4 v=75
6870 On ch=3 n=c#5 v=75
6930 On ch=3 n=c#5 v=0
6930 On ch=3 n=g#4 v=0
6930 On ch=3 n=c#4 v=0
6930 On ch=3 n=c#3 v=75
6936 On ch=3 n=c#3 v=0
6990 Par ch=3 c=64 v=127
6990 On ch=3 n=f#3 v=88
6990 On ch=3 n=c#4 v=88
6990 On ch=3 n=a#4 v=88
6996 On ch=3 n=a#4 v=0
6996 On ch=3 n=c#4 v=0
6996 On ch=3 n=f#3 v=0
7050 On ch=3 n=c#4 v=104
7050 On ch=3 n=f#4 v=109
7050 On ch=3 n=a#4 v=114
7110 On ch=3 n=a#4 v=0
7110 On ch=3 n=f#4 v=0
7110 On ch=3 n=c#4 v=0
7110 On ch=3 n=f#2 v=88
7110 On ch=3 n=f#3 v=88
7116 On ch=3 n=f#3 v=0
7116 On ch=3 n=f#2 v=0
7170 Par ch=3 c=64 v=0
7170 On ch=3 n=c#4 v=88
7170 On ch=3 n=f#4 v=88
7170 On ch=3 n=a#4 v=88
7176 On ch=3 n=a#4 v=0
7176 On ch=3 n=f#4 v=0
7176 On ch=3 n=c#4 v=0
7215 On ch=3 n=a#3 v=88
7230 On ch=3 n=c#5 v=88
7270 On ch=3 n=g#3 v=88
7280 On ch=3 n=c4 v=88
7290 On ch=3 n=c#5 v=0
7290 On ch=3 n=a#3 v=0
7290 On ch=3 n=c5 v=88
7335 On ch=3 n=f#3 v=88
7350 On ch=3 n=c5 v=0
7350 On ch=3 n=c4 v=0
7350 On ch=3 n=g#3 v=0
7350 On ch=3 n=a#4 v=88
7470 On ch=3 n=a#4 v=0
7470 On ch=3 n=f#3 v=0
7740 On ch=3 n=c4 v=75
7740 On ch=3 n=f4 v=75
7740 On ch=3 n=a4 v=75
7740 On ch=3 n=c5 v=75
7800 On ch=3 n=c5 v=0
7800 On ch=3 n=c4 v=0
7800 On ch=3 n=f4 v=0
7800 On ch=3 n=a4 v=0
7800 On ch=3 n=c4 v=75
7800 On ch=3 n=e4 v=75
7800 On ch=3 n=a#4 v=75
7800 On ch=3 n=c5 v=75
7860 On ch=3 n=c5 v=0
7860 On ch=3 n=c4 v=0
7860 On ch=3 n=e4 v=0
7860 On ch=3 n=a#4 v=0
7860 On ch=3 n=f4 v=75
7860 On ch=3 n=a4 v=75
7860 On ch=3 n=c5 v=75
7920 On ch=3 n=c5 v=0
7920 On ch=3 n=a4 v=0
7920 On ch=3 n=f4 v=0
7920 On ch=3 n=f2 v=75
7920 On ch=3 n=f3 v=75
7924 On ch=3 n=f3 v=0
7924 On ch=3 n=f2 v=0
7950 On ch=3 n=f#2 v=75
7950 On ch=3 n=f#3 v=75
7954 On ch=3 n=f#3 v=0
7954 On ch=3 n=f#2 v=0
7980 On ch=3 n=g#2 v=75
7980 On ch=3 n=g#3 v=75
7986 On ch=3 n=g#3 v=0
7986 On ch=3 n=g#2 v=0
8040 On ch=3 n=g#2 v=75
8040 On ch=3 n=c3 v=75
8040 On ch=3 n=g#3 v=75
8044 On ch=3 n=g#3 v=0
8044 On ch=3 n=c3 v=0
8044 On ch=3 n=g#2 v=0
8070 On ch=3 n=a#2 v=75
8070 On ch=3 n=c#3 v=75
8070 On ch=3 n=a#3 v=75
8074 On ch=3 n=a#3 v=0
8074 On ch=3 n=c#3 v=0
8074 On ch=3 n=a#2 v=0
8100 On ch=3 n=c3 v=75
8100 On ch=3 n=d#3 v=75
8100 On ch=3 n=c4 v=75
8106 On ch=3 n=c4 v=0
8106 On ch=3 n=d#3 v=0
8106 On ch=3 n=c3 v=0
8160 On ch=3 n=c3 v=75
8160 On ch=3 n=d#3 v=75
8160 On ch=3 n=c4 v=75
8164 On ch=3 n=c4 v=0
8164 On ch=3 n=d#3 v=0
8164 On ch=3 n=c3 v=0
8190 On ch=3 n=c#3 v=75
8190 On ch=3 n=f3 v=75
8190 On ch=3 n=c#4 v=75
8194 On ch=3 n=c#4 v=0
8194 On ch=3 n=f3 v=0
8194 On ch=3 n=c#3 v=0
8220 On ch=3 n=d#3 v=75
8220 On ch=3 n=f#3 v=75
8220 On ch=3 n=d#4 v=75
8280 On ch=3 n=d#4 v=0
8280 On ch=3 n=f#3 v=0
8280 On ch=3 n=d#3 v=0
8280 On ch=3 n=g#3 v=75
8340 On ch=3 n=g#3 v=0
8400 On ch=3 n=g#3 v=75
8460 On ch=3 n=g#3 v=0
8490 On ch=3 n=c#4 v=49
8496 On ch=3 n=c#4 v=0
8550 On ch=3 n=c#5 v=49
8550 On ch=3 n=f5 v=49
8556 On ch=3 n=f5 v=0
8556 On ch=3 n=c#5 v=0
8610 On ch=3 n=g#3 v=49
8616 On ch=3 n=g#3 v=0
8670 On ch=3 n=g#4 v=49
8670 On ch=3 n=d#5 v=49
8670 On ch=3 n=f#5 v=49
8676 On ch=3 n=f#5 v=0
8676 On ch=3 n=d#5 v=0
8676 On ch=3 n=g#4 v=0
8760 On ch=3 n=c#5 v=49
8766 On ch=3 n=c#5 v=0
8820 On ch=3 n=f6 v=49
8820 On ch=3 n=g#6 v=49
8880 On ch=3 n=g#6 v=0
8880 On ch=3 n=f6 v=0
8880 On ch=3 n=g#4 v=49
8886 On ch=3 n=g#4 v=0
8940 On ch=3 n=d#6 v=49
8940 On ch=3 n=f#6 v=49
9000 On ch=3 n=f#6 v=0
9000 On ch=3 n=d#6 v=0
9037 On ch=3 n=c#5 v=49
9045 On ch=3 n=g#5 v=49
9052 On ch=3 n=c#6 v=49
9060 On ch=3 n=f6 v=49
9120 On ch=3 n=f6 v=0
9120 On ch=3 n=c#5 v=0
9120 On ch=3 n=g#5 v=0
9120 On ch=3 n=c#6 v=0
9120 On ch=3 n=f6 v=49
9120 On ch=3 n=g#6 v=49
9180 On ch=3 n=g#6 v=0
9180 On ch=3 n=f6 v=0
9187 On ch=3 n=g#4 v=49
9195 On ch=3 n=d#5 v=49
9202 On ch=3 n=f#5 v=49
9210 On ch=3 n=c6 v=49
9270 On ch=3 n=c6 v=0
9270 On ch=3 n=g#4 v=0
9270 On ch=3 n=d#5 v=0
9270 On ch=3 n=f#5 v=0
9270 On ch=3 n=g#5 v=49
9270 On ch=3 n=d#6 v=49
9270 On ch=3 n=f#6 v=49
9330 On ch=3 n=f#6 v=0
9330 On ch=3 n=d#6 v=0
9330 On ch=3 n=g#5 v=0
9330 On ch=3 n=c#6 v=49
9330 On ch=3 n=f6 v=49
9390 On ch=3 n=f6 v=0
9390 On ch=3 n=c#6 v=0
9390 On ch=3 n=a5 v=49
9390 On ch=3 n=e6 v=49
9390 On ch=3 n=a6 v=49
9450 On ch=3 n=a6 v=0
9450 On ch=3 n=e6 v=0
9450 On ch=3 n=a5 v=0
9450 On ch=3 n=c#6 v=49
9450 On ch=3 n=f6 v=49
9450 On ch=3 n=g#6 v=49
9510 On ch=3 n=g#6 v=0
9510 On ch=3 n=f6 v=0
9510 On ch=3 n=c#6 v=0
9510 On ch=3 n=a#5 v=49
9510 On ch=3 n=f6 v=49
9510 On ch=3 n=a#6 v=49
9570 On ch=3 n=a#6 v=0
9570 On ch=3 n=f6 v=0
9570 On ch=3 n=a#5 v=0
9570 On ch=3 n=c#6 v=49
9570 On ch=3 n=f6 v=49
9570 On ch=3 n=g#6 v=49
9630 On ch=3 n=g#6 v=0
9630 On ch=3 n=f6 v=0
9630 On ch=3 n=c#6 v=0
9630 On ch=3 n=a5 v=49
9630 On ch=3 n=e6 v=49
9630 On ch=3 n=a6 v=49
9690 On ch=3 n=a6 v=0
9690 On ch=3 n=e6 v=0
9690 On ch=3 n=a5 v=0
9690 On ch=3 n=c#6 v=49
9690 On ch=3 n=f6 v=49
9690 On ch=3 n=g#6 v=49
9750 On ch=3 n=g#6 v=0
9750 On ch=3 n=f6 v=0
9750 On ch=3 n=c#6 v=0
9750 On ch=3 n=a#5 v=49
9750 On ch=3 n=f6 v=49
9750 On ch=3 n=a#6 v=49
9786 On ch=3 n=f#5 v=49
9792 On ch=3 n=a#5 v=49
9798 On ch=3 n=c#6 v=49
9804 On ch=3 n=f#6 v=49
9810 On ch=3 n=a#6 v=0
9810 On ch=3 n=a#5 v=0
9810 On ch=3 n=f6 v=0
9810 Par ch=3 c=64 v=127
9810 On ch=3 n=a#6 v=49
9930 On ch=3 n=a#6 v=0
9930 On ch=3 n=f#6 v=0
9930 On ch=3 n=f#5 v=0
9930 On ch=3 n=c#6 v=0
9930 On ch=3 n=a#5 v=0
10410 On ch=3 n=f#5 v=88
10419 On ch=3 n=c#5 v=88
10420 On ch=3 n=f#5 v=0
10429 On ch=3 n=c#5 v=0
10430 On ch=3 n=d#5 v=88
10440 On ch=3 n=d#5 v=0
10440 On ch=3 n=a#4 v=88
10449 On ch=3 n=c#5 v=88
10450 On ch=3 n=a#4 v=0
10459 On ch=3 n=c#5 v=0
10460 On ch=3 n=g#4 v=88
10470 On ch=3 n=g#4 v=0
10470 On ch=3 n=a#4 v=101
10479 On ch=3 n=f#4 v=101
10480 On ch=3 n=a#4 v=0
10489 On ch=3 n=f#4 v=0
10490 On ch=3 n=g#4 v=101
10500 On ch=3 n=g#4 v=0
10500 On ch=3 n=d#4 v=101
10509 On ch=3 n=f#4 v=101
10510 On ch=3 n=d#4 v=0
10519 On ch=3 n=f#4 v=0
10520 On ch=3 n=c#4 v=101
10530 On ch=3 n=c#4 v=0
10530 On ch=3 n=d#4 v=101
10539 On ch=3 n=a#3 v=101
10540 On ch=3 n=d#4 v=0
10549 On ch=3 n=a#3 v=0
10550 On ch=3 n=c#4 v=101
10560 On ch=3 n=c#4 v=0
10560 On ch=3 n=g#3 v=101
10569 On ch=3 n=a#3 v=101
10570 On ch=3 n=g#3 v=0
10579 On ch=3 n=a#3 v=0
10580 On ch=3 n=f#3 v=101
10590 On ch=3 n=f#3 v=0
10590 On ch=3 n=g#3 v=101
10599 On ch=3 n=d#3 v=101
10600 On ch=3 n=g#3 v=0
10609 On ch=3 n=d#3 v=0
10610 On ch=3 n=f#3 v=101
10620 On ch=3 n=f#3 v=0
10620 On ch=3 n=c#3 v=101
10629 On ch=3 n=d#3 v=101
10630 On ch=3 n=c#3 v=0
10639 On ch=3 n=d#3 v=0
10640 On ch=3 n=a#2 v=101
10650 On ch=3 n=a#2 v=0
10650 On ch=3 n=c#3 v=101
10659 On ch=3 n=g#2 v=101
10660 On ch=3 n=c#3 v=0
10669 On ch=3 n=g#2 v=0
10670 On ch=3 n=a#2 v=101
10680 On ch=3 n=a#2 v=0
10680 Par ch=3 c=64 v=0
10680 On ch=3 n=f#2 v=101
10689 Par ch=3 c=64 v=127
10689 On ch=3 n=c#2 v=119
10689 On ch=3 n=c#3 v=127
10690 On ch=3 n=f#2 v=0
10739 On ch=3 n=c#3 v=0
10740 On ch=3 n=c#3 v=101
10749 On ch=3 n=c#2 v=0
10749 On ch=3 n=g#3 v=101
10750 On ch=3 n=c#3 v=0
10759 On ch=3 n=g#3 v=0
10760 On ch=3 n=c#4 v=101
10770 On ch=3 n=c#4 v=0
10927 On ch=3 n=c#4 v=114
10935 On ch=3 n=g#4 v=114
10942 On ch=3 n=c#5 v=114
10950 On ch=3 n=f5 v=114
10955 On ch=3 n=c#5 v=0
10955 On ch=3 n=c#4 v=0
10956 On ch=3 n=g#4 v=0
10956 On ch=3 n=f5 v=0
11070 Par ch=3 c=64 v=0
11130 On ch=3 n=c#4 v=36
11130 On ch=3 n=g#4 v=36
11142 On ch=3 n=g#4 v=0
11142 On ch=3 n=c#4 v=0
11250 On ch=3 n=f4 v=36
11256 On ch=3 n=f4 v=0
11310 On ch=3 n=c#4 v=36
11310 On ch=3 n=g#4 v=36
11316 On ch=3 n=g#4 v=0
11316 On ch=3 n=c#4 v=0
11370 On ch=3 n=c4 v=36
11370 On ch=3 n=g#4 v=36
11382 On ch=3 n=g#4 v=0
11382 On ch=3 n=c4 v=0
11490 On ch=3 n=c#4 v=36
11490 On ch=3 n=g#4 v=36
11502 On ch=3 n=g#4 v=0
11502 On ch=3 n=c#4 v=0
11610 On ch=3 n=g#3 v=36
11610 On ch=3 n=f#4 v=36
11616 On ch=3 n=f#4 v=0
11616 On ch=3 n=g#3 v=0
11670 On ch=3 n=g#3 v=36
11670 On ch=3 n=d#4 v=36
11676 On ch=3 n=d#4 v=0
11676 On ch=3 n=g#3 v=0
11730 On ch=3 n=c#4 v=36
11730 On ch=3 n=f4 v=36
11742 On ch=3 n=f4 v=0
11742 On ch=3 n=c#4 v=0
11850 On ch=3 n=c#3 v=36
11856 On ch=3 n=c#3 v=0
11910 On ch=3 n=c#4 v=93
11910 On ch=3 n=g#4 v=101
12030 On ch=3 n=g#4 v=0
12030 On ch=3 n=c#4 v=0
12030 On ch=3 n=c#4 v=75
12030 On ch=3 n=g#4 v=75
12036 On ch=3 n=g#4 v=0
12036 On ch=3 n=c#4 v=0
12090 On ch=3 n=g#3 v=36
12090 On ch=3 n=d#4 v=36
12102 On ch=3 n=d#4 v=0
12102 On ch=3 n=g#3 v=0
12210 On ch=3 n=d#4 v=36
12210 On ch=3 n=g#4 v=36
12216 On ch=3 n=g#4 v=0
12216 On ch=3 n=d#4 v=0
12270 On ch=3 n=g#4 v=36
12270 On ch=3 n=c5 v=36
12276 On ch=3 n=c5 v=0
12276 On ch=3 n=g#4 v=0
12330 On ch=3 n=g4 v=36
12330 On ch=3 n=a#4 v=36
12342 On ch=3 n=a#4 v=0
12342 On ch=3 n=g4 v=0
12450 On ch=3 n=g#4 v=36
12450 On ch=3 n=c5 v=36
12462 On ch=3 n=c5 v=0
12462 On ch=3 n=g#4 v=0
12570 On ch=3 n=d#4 v=36
12570 On ch=3 n=c#5 v=36
12576 On ch=3 n=c#5 v=0
12576 On ch=3 n=d#4 v=0
12630 On ch=3 n=d#4 v=36
12630 On ch=3 n=a#4 v=36
12636 On ch=3 n=a#4 v=0
12636 On ch=3 n=d#4 v=0
12690 On ch=3 n=g#4 v=36
12690 On ch=3 n=c5 v=36
12702 On ch=3 n=c5 v=0
12702 On ch=3 n=g#4 v=0
12810 On ch=3 n=g#3 v=36
12816 On ch=3 n=g#3 v=0
12870 On ch=3 n=g#4 v=93
12870 On ch=3 n=d#5 v=101
12990 On ch=3 n=d#5 v=0
12990 On ch=3 n=g#4 v=0
12990 On ch=3 n=g#4 v=75
12990 On ch=3 n=d#5 v=75
12996 On ch=3 n=d#5 v=0
12996 On ch=3 n=g#4 v=0
13050 On ch=3 n=c#4 v=36
13050 On ch=3 n=g#4 v=36
13062 On ch=3 n=g#4 v=0
13062 On ch=3 n=c#4 v=0
13170 On ch=3 n=f4 v=36
13170 On ch=3 n=g#4 v=36
13176 On ch=3 n=g#4 v=0
13176 On ch=3 n=f4 v=0
13230 On ch=3 n=c#4 v=36
13230 On ch=3 n=c#5 v=36
13236 On ch=3 n=c#5 v=0
13236 On ch=3 n=c#4 v=0
13290 On ch=3 n=c4 v=36
13290 On ch=3 n=d#5 v=36
13302 On ch=3 n=d#5 v=0
13302 On ch=3 n=c4 v=0
13410 On ch=3 n=c#4 v=36
13410 On ch=3 n=c#5 v=36
13422 On ch=3 n=c#5 v=0
13422 On ch=3 n=c#4 v=0
13530 On ch=3 n=g#3 v=36
13530 On ch=3 n=f#4 v=36
13530 On ch=3 n=g#4 v=36
13536 On ch=3 n=g#4 v=0
13536 On ch=3 n=f#4 v=0
13536 On ch=3 n=g#3 v=0
13590 On ch=3 n=g#3 v=36
13590 On ch=3 n=d#4 v=36
13590 On ch=3 n=g#4 v=36
13596 On ch=3 n=g#4 v=0
13596 On ch=3 n=d#4 v=0
13596 On ch=3 n=g#3 v=0
13650 On ch=3 n=c#4 v=36
13650 On ch=3 n=f4 v=36
13650 On ch=3 n=g#4 v=36
13662 On ch=3 n=g#4 v=0
13662 On ch=3 n=f4 v=0
13662 On ch=3 n=c#4 v=0
13770 On ch=3 n=c#3 v=36
13776 On ch=3 n=c#3 v=0
13830 On ch=3 n=f4 v=93
13830 On ch=3 n=g#4 v=101
13950 On ch=3 n=g#4 v=0
13950 On ch=3 n=f4 v=0
13950 On ch=3 n=c#4 v=75
13950 On ch=3 n=g#4 v=75
13956 On ch=3 n=g#4 v=0
13956 On ch=3 n=c#4 v=0
14010 On ch=3 n=g#3 v=36
14010 On ch=3 n=d#4 v=36
14010 On ch=3 n=g#4 v=36
14022 On ch=3 n=g#4 v=0
14022 On ch=3 n=d#4 v=0
14022 On ch=3 n=g#3 v=0
14130 On ch=3 n=c5 v=36
14130 On ch=3 n=d#5 v=36
14136 On ch=3 n=d#5 v=0
14136 On ch=3 n=c5 v=0
14190 On ch=3 n=g#4 v=36
14190 On ch=3 n=g#5 v=36
14196 On ch=3 n=g#5 v=0
14196 On ch=3 n=g#4 v=0
14250 On ch=3 n=g4 v=36
14250 On ch=3 n=a#5 v=36
14262 On ch=3 n=a#5 v=0
14262 On ch=3 n=g4 v=0
14370 On ch=3 n=g#4 v=36
14370 On ch=3 n=g#5 v=36
14382 On ch=3 n=g#5 v=0
14382 On ch=3 n=g#4 v=0
14490 On ch=3 n=d#4 v=36
14490 On ch=3 n=c#5 v=36
14490 On ch=3 n=d#5 v=36
14496 On ch=3 n=d#5 v=0
14496 On ch=3 n=c#5 v=0
14496 On ch=3 n=d#4 v=0
14550 On ch=3 n=d#4 v=36
14550 On ch=3 n=a#4 v=36
14550 On ch=3 n=d#5 v=36
14556 On ch=3 n=d#5 v=0
14556 On ch=3 n=a#4 v=0
14556 On ch=3 n=d#4 v=0
14610 On ch=3 n=g#4 v=36
14610 On ch=3 n=c5 v=36
14610 On ch=3 n=d#5 v=36
14622 On ch=3 n=d#5 v=0
14622 On ch=3 n=c5 v=0
14622 On ch=3 n=g#4 v=0
14730 On ch=3 n=g#3 v=36
14736 On ch=3 n=g#3 v=0
14790 On ch=3 n=c5 v=93
14790 On ch=3 n=d#5 v=101
14910 On ch=3 n=d#5 v=0
14910 On ch=3 n=c5 v=0
14910 On ch=3 n=g#4 v=75
14910 On ch=3 n=c5 v=75
14910 On ch=3 n=d#5 v=75
14916 On ch=3 n=d#5 v=0
14916 On ch=3 n=c5 v=0
14916 On ch=3 n=g#4 v=0
14970 On ch=3 n=a#3 v=54
14970 On ch=3 n=c#5 v=62
15090 On ch=3 n=c#5 v=0
15090 On ch=3 n=a#3 v=0
15090 On ch=3 n=a#3 v=36
15090 On ch=3 n=c#5 v=36
15096 On ch=3 n=c#5 v=0
15096 On ch=3 n=a#3 v=0
15150 On ch=3 n=g#3 v=36
15150 On ch=3 n=b4 v=36
15156 On ch=3 n=b4 v=0
15156 On ch=3 n=g#3 v=0
15210 On ch=3 n=g3 v=36
15210 On ch=3 n=a#4 v=36
15222 On ch=3 n=a#4 v=0
15222 On ch=3 n=g3 v=0
15330 On ch=3 n=g#3 v=36
15330 On ch=3 n=b4 v=36
15342 On ch=3 n=b4 v=0
15342 On ch=3 n=g#3 v=0
15450 On ch=3 n=f#3 v=72
15450 On ch=3 n=a#4 v=88
15570 On ch=3 n=a#4 v=0
15570 On ch=3 n=f#3 v=0
15570 On ch=3 n=f#3 v=36
15570 On ch=3 n=a#4 v=36
15576 On ch=3 n=a#4 v=0
15576 On ch=3 n=f#3 v=0
15630 On ch=3 n=f3 v=36
15630 On ch=3 n=g#4 v=36
15636 On ch=3 n=g#4 v=0
15636 On ch=3 n=f3 v=0
15690 On ch=3 n=d#3 v=36
15690 On ch=3 n=f#4 v=36
15702 On ch=3 n=f#4 v=0
15702 On ch=3 n=d#3 v=0
15810 On ch=3 n=c#3 v=36
15810 On ch=3 n=f4 v=36
15822 On ch=3 n=f4 v=0
15822 On ch=3 n=c#3 v=0
15930 On ch=3 n=g#3 v=36
15930 On ch=3 n=g#4 v=36
15942 On ch=3 n=g#4 v=0
15942 On ch=3 n=g#3 v=0
16050 On ch=3 n=c4 v=36
16050 On ch=3 n=g#4 v=36
16050 On ch=3 n=c5 v=36
16056 On ch=3 n=c5 v=0
16056 On ch=3 n=g#4 v=0
16056 On ch=3 n=c4 v=0
16110 On ch=3 n=c#4 v=36
16110 On ch=3 n=g#4 v=36
16110 On ch=3 n=c#5 v=36
16116 On ch=3 n=c#5 v=0
16116 On ch=3 n=g#4 v=0
16116 On ch=3 n=c#4 v=0
16170 On ch=3 n=d#4 v=36
16170 On ch=3 n=g#4 v=36
16170 On ch=3 n=d#5 v=36
16182 On ch=3 n=d#5 v=0
16182 On ch=3 n=g#4 v=0
16182 On ch=3 n=d#4 v=0
16290 On ch=3 n=c#4 v=36
16290 On ch=3 n=g#4 v=36
16290 On ch=3 n=c#5 v=36
16302 On ch=3 n=c#5 v=0
16302 On ch=3 n=g#4 v=0
16302 On ch=3 n=c#4 v=0
16410 On ch=3 n=g#3 v=36
16410 On ch=3 n=f#4 v=36
16410 On ch=3 n=g#4 v=36
16416 On ch=3 n=g#4 v=0
16416 On ch=3 n=f#4 v=0
16416 On ch=3 n=g#3 v=0
16470 On ch=3 n=g#3 v=36
16470 On ch=3 n=d#4 v=36
16470 On ch=3 n=g#4 v=36
16476 On ch=3 n=g#4 v=0
16476 On ch=3 n=d#4 v=0
16476 On ch=3 n=g#3 v=0
16530 On ch=3 n=c#4 v=36
16530 On ch=3 n=f4 v=36
16530 On ch=3 n=g#4 v=36
16542 On ch=3 n=g#4 v=0
16542 On ch=3 n=f4 v=0
16542 On ch=3 n=c#4 v=0
16650 On ch=3 n=c#3 v=36
16656 On ch=3 n=c#3 v=0
16710 On ch=3 n=f4 v=91
16710 On ch=3 n=g#4 v=96
16710 On ch=3 n=c#5 v=101
16830 On ch=3 n=c#5 v=0
16830 On ch=3 n=g#4 v=0
16830 On ch=3 n=f4 v=0
16830 On ch=3 n=c#4 v=75
16830 On ch=3 n=g#4 v=75
16830 On ch=3 n=c#5 v=75
16836 On ch=3 n=c#5 v=0
16836 On ch=3 n=g#4 v=0
16836 On ch=3 n=c#4 v=0
16890 On ch=3 n=a#4 v=54
16890 On ch=3 n=c#6 v=62
17010 On ch=3 n=c#6 v=0
17010 On ch=3 n=a#4 v=0
17010 On ch=3 n=a#4 v=36
17010 On ch=3 n=c#6 v=36
17016 On ch=3 n=c#6 v=0
17016 On ch=3 n=a#4 v=0
17070 On ch=3 n=g#4 v=36
17070 On ch=3 n=b5 v=36
17076 On ch=3 n=b5 v=0
17076 On ch=3 n=g#4 v=0
17130 On ch=3 n=g4 v=36
17130 On ch=3 n=a#5 v=36
17142 On ch=3 n=a#5 v=0
17142 On ch=3 n=g4 v=0
17250 On ch=3 n=g#4 v=36
17250 On ch=3 n=b5 v=36
17262 On ch=3 n=b5 v=0
17262 On ch=3 n=g#4 v=0
17370 On ch=3 n=f#4 v=72
17370 On ch=3 n=a#5 v=88
17490 On ch=3 n=a#5 v=0
17490 On ch=3 n=f#4 v=0
17490 On ch=3 n=f#4 v=36
17490 On ch=3 n=a#5 v=36
17496 On ch=3 n=a#5 v=0
17496 On ch=3 n=f#4 v=0
17550 On ch=3 n=f4 v=36
17550 On ch=3 n=g#5 v=36
17556 On ch=3 n=g#5 v=0
17556 On ch=3 n=f4 v=0
17610 On ch=3 n=d#4 v=36
17610 On ch=3 n=f#5 v=36
17622 On ch=3 n=f#5 v=0
17622 On ch=3 n=d#4 v=0
17730 On ch=3 n=c#4 v=36
17730 On ch=3 n=f5 v=36
17742 On ch=3 n=f5 v=0
17742 On ch=3 n=c#4 v=0
17850 On ch=3 n=g#4 v=36
17850 On ch=3 n=g#5 v=36
17862 On ch=3 n=g#5 v=0
17862 On ch=3 n=g#4 v=0
17970 On ch=3 n=c5 v=36
17970 On ch=3 n=g#5 v=36
17970 On ch=3 n=c6 v=36
17976 On ch=3 n=c6 v=0
17976 On ch=3 n=g#5 v=0
17976 On ch=3 n=c5 v=0
18030 On ch=3 n=c#5 v=36
18030 On ch=3 n=g#5 v=36
18030 On ch=3 n=c#6 v=36
18036 On ch=3 n=c#6 v=0
18036 On ch=3 n=g#5 v=0
18036 On ch=3 n=c#5 v=0
18090 On ch=3 n=d#5 v=36
18090 On ch=3 n=g#5 v=36
18090 On ch=3 n=d#6 v=36
18102 On ch=3 n=d#6 v=0
18102 On ch=3 n=g#5 v=0
18102 On ch=3 n=d#5 v=0
18210 On ch=3 n=c#5 v=36
18210 On ch=3 n=g#5 v=36
18210 On ch=3 n=c#6 v=36
18222 On ch=3 n=c#6 v=0
18222 On ch=3 n=g#5 v=0
18222 On ch=3 n=c#5 v=0
18330 On ch=3 n=g#4 v=36
18330 On ch=3 n=f#5 v=36
18330 On ch=3 n=g#5 v=36
18336 On ch=3 n=g#5 v=0
18336 On ch=3 n=f#5 v=0
18336 On ch=3 n=g#4 v=0
18390 On ch=3 n=g#4 v=36
18390 On ch=3 n=d#5 v=36
18390 On ch=3 n=g#5 v=36
18396 On ch=3 n=g#5 v=0
18396 On ch=3 n=d#5 v=0
18396 On ch=3 n=g#4 v=0
18450 On ch=3 n=c#5 v=36
18450 On ch=3 n=f5 v=36
18450 On ch=3 n=g#5 v=36
18462 On ch=3 n=g#5 v=0
18462 On ch=3 n=f5 v=0
18462 On ch=3 n=c#5 v=0
18570 On ch=3 n=c#4 v=36
18576 On ch=3 n=c#4 v=0
18630 On ch=3 n=f5 v=91
18630 On ch=3 n=g#5 v=96
18630 On ch=3 n=c#6 v=101
18750 On ch=3 n=c#6 v=0
18750 On ch=3 n=g#5 v=0
18750 On ch=3 n=f5 v=0
18750 On ch=3 n=c#5 v=75
18750 On ch=3 n=g#5 v=75
18750 On ch=3 n=c#6 v=75
18756 On ch=3 n=c#6 v=0
18756 On ch=3 n=g#5 v=0
18756 On ch=3 n=c#5 v=0
18810 On ch=3 n=c#4 v=36
18810 On ch=3 n=g#4 v=36
18822 On ch=3 n=g#4 v=0
18822 On ch=3 n=c#4 v=0
18930 On ch=3 n=f4 v=36
18936 On ch=3 n=f4 v=0
18990 On ch=3 n=c#4 v=36
18990 On ch=3 n=g#4 v=36
18996 On ch=3 n=g#4 v=0
18996 On ch=3 n=c#4 v=0
19050 On ch=3 n=c4 v=36
19050 On ch=3 n=g#4 v=36
19062 On ch=3 n=g#4 v=0
19062 On ch=3 n=c4 v=0
19170 On ch=3 n=c#4 v=36
19170 On ch=3 n=g#4 v=36
19182 On ch=3 n=g#4 v=0
19182 On ch=3 n=c#4 v=0
19290 On ch=3 n=g#3 v=36
19290 On ch=3 n=f#4 v=36
19296 On ch=3 n=f#4 v=0
19296 On ch=3 n=g#3 v=0
19350 On ch=3 n=g#3 v=36
19350 On ch=3 n=d#4 v=36
19356 On ch=3 n=d#4 v=0
19356 On ch=3 n=g#3 v=0
19410 On ch=3 n=c#4 v=36
19410 On ch=3 n=f4 v=36
19422 On ch=3 n=f4 v=0
19422 On ch=3 n=c#4 v=0
19530 On ch=3 n=c#3 v=36
19536 On ch=3 n=c#3 v=0
19590 On ch=3 n=c#4 v=93
19590 On ch=3 n=g#4 v=101
19710 On ch=3 n=g#4 v=0
19710 On ch=3 n=c#4 v=0
19710 On ch=3 n=c#4 v=75
19710 On ch=3 n=g#4 v=75
19716 On ch=3 n=g#4 v=0
19716 On ch=3 n=c#4 v=0
19770 On ch=3 n=g#3 v=36
19770 On ch=3 n=d#4 v=36
19782 On ch=3 n=d#4 v=0
19782 On ch=3 n=g#3 v=0
19890 On ch=3 n=d#4 v=36
19890 On ch=3 n=g#4 v=36
19896 On ch=3 n=g#4 v=0
19896 On ch=3 n=d#4 v=0
19950 On ch=3 n=g#4 v=36
19950 On ch=3 n=c5 v=36
19956 On ch=3 n=c5 v=0
19956 On ch=3 n=g#4 v=0
20010 On ch=3 n=g4 v=36
20010 On ch=3 n=a#4 v=36
20022 On ch=3 n=a#4 v=0
20022 On ch=3 n=g4 v=0
20130 On ch=3 n=g#4 v=36
20130 On ch=3 n=c5 v=36
20142 On ch=3 n=c5 v=0
20142 On ch=3 n=g#4 v=0
20250 On ch=3 n=d#4 v=36
20250 On ch=3 n=c#5 v=36
20256 On ch=3 n=c#5 v=0
20256 On ch=3 n=d#4 v=0
20310 On ch=3 n=d#4 v=36
20310 On ch=3 n=a#4 v=36
20316 On ch=3 n=a#4 v=0
20316 On ch=3 n=d#4 v=0
20370 On ch=3 n=g#4 v=36
20370 On ch=3 n=c5 v=36
20382 On ch=3 n=c5 v=0
20382 On ch=3 n=g#4 v=0
20490 On ch=3 n=g#3 v=36
20496 On ch=3 n=g#3 v=0
20550 On ch=3 n=g#4 v=93
20550 On ch=3 n=d#5 v=101
20670 On ch=3 n=d#5 v=0
20670 On ch=3 n=g#4 v=0
20670 On ch=3 n=g#4 v=75
20670 On ch=3 n=d#5 v=75
20676 On ch=3 n=d#5 v=0
20676 On ch=3 n=g#4 v=0
20730 On ch=3 n=c#4 v=36
20730 On ch=3 n=g#4 v=36
20742 On ch=3 n=g#4 v=0
20742 On ch=3 n=c#4 v=0
20850 On ch=3 n=f4 v=36
20850 On ch=3 n=g#4 v=36
20856 On ch=3 n=g#4 v=0
20856 On ch=3 n=f4 v=0
20910 On ch=3 n=c#4 v=36
20910 On ch=3 n=c#5 v=36
20916 On ch=3 n=c#5 v=0
20916 On ch=3 n=c#4 v=0
20970 On ch=3 n=c4 v=36
20970 On ch=3 n=d#5 v=36
20982 On ch=3 n=d#5 v=0
20982 On ch=3 n=c4 v=0
21090 On ch=3 n=c#4 v=36
21090 On ch=3 n=c#5 v=36
21102 On ch=3 n=c#5 v=0
21102 On ch=3 n=c#4 v=0
21210 On ch=3 n=g#3 v=36
21210 On ch=3 n=f#4 v=36
21210 On ch=3 n=g#4 v=36
21216 On ch=3 n=g#4 v=0
21216 On ch=3 n=f#4 v=0
21216 On ch=3 n=g#3 v=0
21270 On ch=3 n=g#3 v=36
21270 On ch=3 n=d#4 v=36
21270 On ch=3 n=g#4 v=36
21276 On ch=3 n=g#4 v=0
21276 On ch=3 n=d#4 v=0
21276 On ch=3 n=g#3 v=0
21330 On ch=3 n=c#4 v=36
21330 On ch=3 n=f4 v=36
21330 On ch=3 n=g#4 v=36
21342 On ch=3 n=g#4 v=0
21342 On ch=3 n=f4 v=0
21342 On ch=3 n=c#4 v=0
21450 On ch=3 n=c#3 v=36
21456 On ch=3 n=c#3 v=0
21510 On ch=3 n=f4 v=93
21510 On ch=3 n=g#4 v=101
21630 On ch=3 n=g#4 v=0
21630 On ch=3 n=f4 v=0
21630 On ch=3 n=c#4 v=75
21630 On ch=3 n=g#4 v=75
21636 On ch=3 n=g#4 v=0
21636 On ch=3 n=c#4 v=0
21690 On ch=3 n=g#3 v=36
21690 On ch=3 n=d#4 v=36
21690 On ch=3 n=g#4 v=36
21702 On ch=3 n=g#4 v=0
21702 On ch=3 n=d#4 v=0
21702 On ch=3 n=g#3 v=0
21810 On ch=3 n=c5 v=36
21810 On ch=3 n=d#5 v=36
21816 On ch=3 n=d#5 v=0
21816 On ch=3 n=c5 v=0
21870 On ch=3 n=g#4 v=36
21870 On ch=3 n=g#5 v=36
21876 On ch=3 n=g#5 v=0
21876 On ch=3 n=g#4 v=0
21930 On ch=3 n=g4 v=36
21930 On ch=3 n=a#5 v=36
21942 On ch=3 n=a#5 v=0
21942 On ch=3 n=g4 v=0
22050 On ch=3 n=g#4 v=36
22050 On ch=3 n=g#5 v=36
22062 On ch=3 n=g#5 v=0
22062 On ch=3 n=g#4 v=0
22170 On ch=3 n=d#4 v=36
22170 On ch=3 n=c#5 v=36
22170 On ch=3 n=d#5 v=36
22176 On ch=3 n=d#5 v=0
22176 On ch=3 n=c#5 v=0
22176 On ch=3 n=d#4 v=0
22230 On ch=3 n=d#4 v=36
22230 On ch=3 n=a#4 v=36
22230 On ch=3 n=d#5 v=36
22236 On ch=3 n=d#5 v=0
22236 On ch=3 n=a#4 v=0
22236 On ch=3 n=d#4 v=0
22290 On ch=3 n=g#4 v=36
22290 On ch=3 n=c5 v=36
22290 On ch=3 n=d#5 v=36
22302 On ch=3 n=d#5 v=0
22302 On ch=3 n=c5 v=0
22302 On ch=3 n=g#4 v=0
22410 On ch=3 n=g#3 v=36
22416 On ch=3 n=g#3 v=0
22470 On ch=3 n=c5 v=93
22470 On ch=3 n=d#5 v=101
22590 On ch=3 n=d#5 v=0
22590 On ch=3 n=c5 v=0
22590 On ch=3 n=g#4 v=75
22590 On ch=3 n=c5 v=75
22590 On ch=3 n=d#5 v=75
22596 On ch=3 n=d#5 v=0
22596 On ch=3 n=c5 v=0
22596 On ch=3 n=g#4 v=0
22650 On ch=3 n=a#3 v=54
22650 On ch=3 n=c#5 v=62
22770 On ch=3 n=c#5 v=0
22770 On ch=3 n=a#3 v=0
22770 On ch=3 n=a#3 v=36
22770 On ch=3 n=c#5 v=36
22776 On ch=3 n=c#5 v=0
22776 On ch=3 n=a#3 v=0
22830 On ch=3 n=g#3 v=36
22830 On ch=3 n=b4 v=36
22836 On ch=3 n=b4 v=0
22836 On ch=3 n=g#3 v=0
22890 On ch=3 n=g3 v=36
22890 On ch=3 n=a#4 v=36
22902 On ch=3 n=a#4 v=0
22902 On ch=3 n=g3 v=0
23010 On ch=3 n=g#3 v=36
23010 On ch=3 n=b4 v=36
23022 On ch=3 n=b4 v=0
23022 On ch=3 n=g#3 v=0
23130 On ch=3 n=f#3 v=72
23130 On ch=3 n=a#4 v=88
23250 On ch=3 n=a#4 v=0
23250 On ch=3 n=f#3 v=0
23250 On ch=3 n=f#3 v=36
23250 On ch=3 n=a#4 v=36
23256 On ch=3 n=a#4 v=0
23256 On ch=3 n=f#3 v=0
23310 On ch=3 n=f3 v=36
23310 On ch=3 n=g#4 v=36
23316 On ch=3 n=g#4 v=0
23316 On ch=3 n=f3 v=0
23370 On ch=3 n=d#3 v=36
23370 On ch=3 n=f#4 v=36
23382 On ch=3 n=f#4 v=0
23382 On ch=3 n=d#3 v=0
23490 On ch=3 n=c#3 v=36
23490 On ch=3 n=f4 v=36
23502 On ch=3 n=f4 v=0
23502 On ch=3 n=c#3 v=0
23610 On ch=3 n=g#3 v=36
23610 On ch=3 n=g#4 v=36
23622 On ch=3 n=g#4 v=0
23622 On ch=3 n=g#3 v=0
23730 On ch=3 n=c4 v=36
23730 On ch=3 n=g#4 v=36
23730 On ch=3 n=c5 v=36
23736 On ch=3 n=c5 v=0
23736 On ch=3 n=g#4 v=0
23736 On ch=3 n=c4 v=0
23790 On ch=3 n=c#4 v=36
23790 On ch=3 n=g#4 v=36
23790 On ch=3 n=c#5 v=36
23796 On ch=3 n=c#5 v=0
23796 On ch=3 n=g#4 v=0
23796 On ch=3 n=c#4 v=0
23850 On ch=3 n=d#4 v=36
23850 On ch=3 n=g#4 v=36
23850 On ch=3 n=d#5 v=36
23862 On ch=3 n=d#5 v=0
23862 On ch=3 n=g#4 v=0
23862 On ch=3 n=d#4 v=0
23970 On ch=3 n=c#4 v=36
23970 On ch=3 n=g#4 v=36
23970 On ch=3 n=c#5 v=36
23982 On ch=3 n=c#5 v=0
23982 On ch=3 n=g#4 v=0
23982 On ch=3 n=c#4 v=0
24090 On ch=3 n=g#3 v=36
24090 On ch=3 n=f#4 v=36
24090 On ch=3 n=g#4 v=36
24096 On ch=3 n=g#4 v=0
24096 On ch=3 n=f#4 v=0
24096 On ch=3 n=g#3 v=0
24150 On ch=3 n=g#3 v=36
24150 On ch=3 n=d#4 v=36
24150 On ch=3 n=g#4 v=36
24156 On ch=3 n=g#4 v=0
24156 On ch=3 n=d#4 v=0
24156 On ch=3 n=g#3 v=0
24210 On ch=3 n=c#4 v=36
24210 On ch=3 n=f4 v=36
24210 On ch=3 n=g#4 v=36
24222 On ch=3 n=g#4 v=0
24222 On ch=3 n=f4 v=0
24222 On ch=3 n=c#4 v=0
24330 On ch=3 n=c#3 v=36
24336 On ch=3 n=c#3 v=0
24390 On ch=3 n=f4 v=91
24390 On ch=3 n=g#4 v=96
24390 On ch=3 n=c#5 v=101
24510 On ch=3 n=c#5 v=0
24510 On ch=3 n=g#4 v=0
24510 On ch=3 n=f4 v=0
24510 On ch=3 n=c#4 v=75
24510 On ch=3 n=g#4 v=75
24510 On ch=3 n=c#5 v=75
24516 On ch=3 n=c#5 v=0
24516 On ch=3 n=g#4 v=0
24516 On ch=3 n=c#4 v=0
24570 On ch=3 n=a#4 v=54
24570 On ch=3 n=c#6 v=62
24690 On ch=3 n=c#6 v=0
24690 On ch=3 n=a#4 v=0
24690 On ch=3 n=a#4 v=36
24690 On ch=3 n=c#6 v=36
24696 On ch=3 n=c#6 v=0
24696 On ch=3 n=a#4 v=0
24750 On ch=3 n=g#4 v=36
24750 On ch=3 n=b5 v=36
24756 On ch=3 n=b5 v=0
24756 On ch=3 n=g#4 v=0
24810 On ch=3 n=g4 v=36
24810 On ch=3 n=a#5 v=36
24822 On ch=3 n=a#5 v=0
24822 On ch=3 n=g4 v=0
24930 On ch=3 n=g#4 v=36
24930 On ch=3 n=b5 v=36
24942 On ch=3 n=b5 v=0
24942 On ch=3 n=g#4 v=0
25050 On ch=3 n=f#4 v=72
25050 On ch=3 n=a#5 v=88
25170 On ch=3 n=a#5 v=0
25170 On ch=3 n=f#4 v=0
25170 On ch=3 n=f#4 v=36
25170 On ch=3 n=a#5 v=36
25176 On ch=3 n=a#5 v=0
25176 On ch=3 n=f#4 v=0
25230 On ch=3 n=f4 v=36
25230 On ch=3 n=g#5 v=36
25236 On ch=3 n=g#5 v=0
25236 On ch=3 n=f4 v=0
25290 On ch=3 n=d#4 v=36
25290 On ch=3 n=f#5 v=36
25302 On ch=3 n=f#5 v=0
25302 On ch=3 n=d#4 v=0
25410 On ch=3 n=c#4 v=36
25410 On ch=3 n=f5 v=36
25422 On ch=3 n=f5 v=0
25422 On ch=3 n=c#4 v=0
25530 On ch=3 n=g#4 v=36
25530 On ch=3 n=g#5 v=36
25542 On ch=3 n=g#5 v=0
25542 On ch=3 n=g#4 v=0
25650 On ch=3 n=c5 v=36
25650 On ch=3 n=g#5 v=36
25650 On ch=3 n=c6 v=36
25656 On ch=3 n=c6 v=0
25656 On ch=3 n=g#5 v=0
25656 On ch=3 n=c5 v=0
25710 On ch=3 n=c#5 v=36
25710 On ch=3 n=g#5 v=36
25710 On ch=3 n=c#6 v=36
25716 On ch=3 n=c#6 v=0
25716 On ch=3 n=g#5 v=0
25716 On ch=3 n=c#5 v=0
25770 On ch=3 n=d#5 v=36
25770 On ch=3 n=g#5 v=36
25770 On ch=3 n=d#6 v=36
25782 On ch=3 n=d#6 v=0
25782 On ch=3 n=g#5 v=0
25782 On ch=3 n=d#5 v=0
25890 On ch=3 n=c#5 v=36
25890 On ch=3 n=g#5 v=36
25890 On ch=3 n=c#6 v=36
25902 On ch=3 n=c#6 v=0
25902 On ch=3 n=g#5 v=0
25902 On ch=3 n=c#5 v=0
26010 On ch=3 n=g#4 v=36
26010 On ch=3 n=f#5 v=36
26010 On ch=3 n=g#5 v=36
26016 On ch=3 n=g#5 v=0
26016 On ch=3 n=f#5 v=0
26016 On ch=3 n=g#4 v=0
26070 On ch=3 n=g#4 v=36
26070 On ch=3 n=d#5 v=36
26070 On ch=3 n=g#5 v=36
26076 On ch=3 n=g#5 v=0
26076 On ch=3 n=d#5 v=0
26076 On ch=3 n=g#4 v=0
26130 On ch=3 n=c#5 v=36
26130 On ch=3 n=f5 v=36
26130 On ch=3 n=g#5 v=36
26142 On ch=3 n=g#5 v=0
26142 On ch=3 n=f5 v=0
26142 On ch=3 n=c#5 v=0
26250 On ch=3 n=c#4 v=36
26256 On ch=3 n=c#4 v=0
26310 On ch=3 n=f5 v=91
26310 On ch=3 n=g#5 v=96
26310 On ch=3 n=c#6 v=101
26430 On ch=3 n=c#6 v=0
26430 On ch=3 n=g#5 v=0
26430 On ch=3 n=f5 v=0
26430 On ch=3 n=c#5 v=75
26430 On ch=3 n=g#5 v=75
26430 On ch=3 n=c#6 v=75
26436 On ch=3 n=c#6 v=0
26436 On ch=3 n=g#5 v=0
26436 On ch=3 n=c#5 v=0
27465 On ch=3 n=a#4 v=62
27465 On ch=3 n=f5 v=62
27465 On ch=3 n=a#5 v=62
27480 On ch=3 n=a#5 v=0
27480 On ch=3 n=f5 v=0
27480 On ch=3 n=a#4 v=0
27480 On ch=3 n=a#4 v=62
27480 On ch=3 n=f5 v=62
27480 On ch=3 n=a#5 v=62
27600 On ch=3 n=a#5 v=0
27600 On ch=3 n=f5 v=0
27600 On ch=3 n=a#4 v=0
27855 On ch=3 n=a4 v=62
27855 On ch=3 n=f5 v=62
27855 On ch=3 n=a5 v=62
27870 On ch=3 n=a5 v=0
27870 On ch=3 n=f5 v=0
27870 On ch=3 n=a4 v=0
27870 On ch=3 n=a4 v=62
27870 On ch=3 n=f5 v=62
27870 On ch=3 n=a5 v=62
28110 On ch=3 n=a5 v=0
28110 On ch=3 n=f5 v=0
28110 On ch=3 n=a4 v=0
28395 On ch=3 n=c5 v=62
28395 On ch=3 n=d#5 v=62
28395 On ch=3 n=f#5 v=62
28395 On ch=3 n=g#5 v=62
28410 On ch=3 n=g#5 v=0
28410 On ch=3 n=c5 v=0
28410 On ch=3 n=d#5 v=0
28410 On ch=3 n=f#5 v=0
28410 On ch=3 n=c5 v=62
28410 On ch=3 n=d#5 v=62
28410 On ch=3 n=f#5 v=62
28410 On ch=3 n=g#5 v=62
28530 On ch=3 n=g#5 v=0
28530 On ch=3 n=c5 v=0
28530 On ch=3 n=d#5 v=0
28530 On ch=3 n=f#5 v=0
28725 On ch=3 n=d#5 v=62
28725 On ch=3 n=g#5 v=62
28725 On ch=3 n=c6 v=62
28740 On ch=3 n=c6 v=0
28740 On ch=3 n=g#5 v=0
28740 On ch=3 n=d#5 v=0
28740 On ch=3 n=d#5 v=62
28740 On ch=3 n=g#5 v=62
28740 On ch=3 n=c6 v=62
28800 On ch=3 n=c6 v=0
28800 On ch=3 n=g#5 v=0
28800 On ch=3 n=d#5 v=0
29055 On ch=3 n=c#5 v=62
29055 On ch=3 n=g#5 v=62
29055 On ch=3 n=c#6 v=62
29070 On ch=3 n=c#6 v=0
29070 On ch=3 n=g#5 v=0
29070 On ch=3 n=c#5 v=0
29070 On ch=3 n=c#5 v=62
29070 On ch=3 n=g#5 v=62
29070 On ch=3 n=c#6 v=62
29310 On ch=3 n=c#6 v=0
29310 On ch=3 n=g#5 v=0
29310 On ch=3 n=c#5 v=0
29910 On ch=3 n=a#3 v=62
29910 On ch=3 n=e4 v=62
30030 On ch=3 n=e4 v=0
30030 On ch=3 n=a#3 v=0
30180 On ch=3 n=a3 v=75
30180 On ch=3 n=f4 v=75
30300 On ch=3 n=f4 v=0
30300 On ch=3 n=a3 v=0
30585 On ch=3 n=f4 v=75
30585 On ch=3 n=c#5 v=75
30585 On ch=3 n=f5 v=75
30600 On ch=3 n=f5 v=0
30600 On ch=3 n=c#5 v=0
30600 On ch=3 n=f4 v=0
30600 On ch=3 n=f4 v=75
30600 On ch=3 n=c#5 v=75
30600 On ch=3 n=f5 v=75
30720 On ch=3 n=f5 v=0
30720 On ch=3 n=c#5 v=0
30720 On ch=3 n=f4 v=0
31035 On ch=3 n=d#5 v=75
31035 On ch=3 n=f#5 v=75
31035 On ch=3 n=a5 v=75
31050 On ch=3 n=a5 v=0
31050 On ch=3 n=f#5 v=0
31050 On ch=3 n=d#5 v=0
31050 On ch=3 n=d#5 v=75
31050 On ch=3 n=f#5 v=75
31050 On ch=3 n=a5 v=75
31170 On ch=3 n=a5 v=0
31170 On ch=3 n=f#5 v=0
31170 On ch=3 n=d#5 v=0
31305 On ch=3 n=d5 v=49
31305 On ch=3 n=f5 v=49
31305 On ch=3 n=a#5 v=49
31320 On ch=3 n=a#5 v=0
31320 On ch=3 n=f5 v=0
31320 On ch=3 n=d5 v=0
31320 On ch=3 n=d5 v=49
31320 On ch=3 n=f5 v=49
31320 On ch=3 n=a#5 v=49
31500 On ch=3 n=a#5 v=0
31500 On ch=3 n=f5 v=0
31500 On ch=3 n=d5 v=0
32325 On ch=3 n=a4 v=49
32325 On ch=3 n=c5 v=49
32325 On ch=3 n=f5 v=49
32325 On ch=3 n=a5 v=49
32340 On ch=3 n=a5 v=0
32340 On ch=3 n=a4 v=0
32340 On ch=3 n=c5 v=0
32340 On ch=3 n=f5 v=0
32340 On ch=3 n=a4 v=49
32340 On ch=3 n=c5 v=49
32340 On ch=3 n=f5 v=49
32340 On ch=3 n=a5 v=49
32580 On ch=3 n=a5 v=0
32580 On ch=3 n=a4 v=0
32580 On ch=3 n=c5 v=0
32580 On ch=3 n=f5 v=0
32799 On ch=3 n=g#4 v=49
32799 On ch=3 n=c5 v=49
32799 On ch=3 n=f#5 v=49
32839 On ch=3 n=f#5 v=0
32839 On ch=3 n=c5 v=0
32839 On ch=3 n=g#4 v=0
32840 On ch=3 n=a#4 v=88
32840 On ch=3 n=c#5 v=88
32840 On ch=3 n=f#5 v=88
32880 On ch=3 n=f#5 v=0
32880 On ch=3 n=c#5 v=0
32880 On ch=3 n=a#4 v=0
32880 On ch=3 n=f#5 v=88
33000 On ch=3 n=f#5 v=0
33129 On ch=3 n=g#4 v=88
33129 On ch=3 n=c5 v=88
33129 On ch=3 n=f#5 v=88
33129 On ch=3 n=g#5 v=88
33169 On ch=3 n=g#5 v=0
33169 On ch=3 n=g#4 v=0
33169 On ch=3 n=c5 v=0
33169 On ch=3 n=f#5 v=0
33170 On ch=3 n=a#4 v=88
33170 On ch=3 n=c#5 v=88
33170 On ch=3 n=f#5 v=88
33170 On ch=3 n=g#5 v=88
33210 On ch=3 n=g#5 v=0
33210 On ch=3 n=a#4 v=0
33210 On ch=3 n=c#5 v=0
33210 On ch=3 n=f#5 v=0
33210 On ch=3 n=f#5 v=88
33210 On ch=3 n=g#5 v=88
33330 On ch=3 n=g#5 v=0
33330 On ch=3 n=f#5 v=0
33465 On ch=3 n=g#4 v=88
33465 On ch=3 n=c#5 v=88
33465 On ch=3 n=f5 v=88
33465 On ch=3 n=g#5 v=88
33480 On ch=3 n=g#5 v=0
33480 On ch=3 n=g#4 v=0
33480 On ch=3 n=c#5 v=0
33480 On ch=3 n=f5 v=0
33480 On ch=3 n=g#4 v=88
33480 On ch=3 n=c#5 v=88
33480 On ch=3 n=f5 v=88
33480 On ch=3 n=g#5 v=88
33720 On ch=3 n=g#5 v=0
33720 On ch=3 n=g#4 v=0
33720 On ch=3 n=c#5 v=0
33720 On ch=3 n=f5 v=0
34020 On ch=3 n=a5 v=36
34020 On ch=3 n=c6 v=36
34020 On ch=3 n=d#6 v=36
34140 On ch=3 n=d#6 v=0
34140 On ch=3 n=c6 v=0
34140 On ch=3 n=a5 v=0
34500 On ch=3 n=e5 v=36
34500 On ch=3 n=g5 v=36
34500 On ch=3 n=a#5 v=36
34620 On ch=3 n=a#5 v=0
34620 On ch=3 n=g5 v=0
34620 On ch=3 n=e5 v=0
34740 On ch=3 n=a#4 v=36
34740 On ch=3 n=e5 v=36
34740 On ch=3 n=g5 v=36
34800 On ch=3 n=g5 v=0
34800 On ch=3 n=e5 v=0
34800 On ch=3 n=a#4 v=0
35310 On ch=3 n=c#5 v=36
35310 On ch=3 n=e5 v=36
35430 On ch=3 n=e5 v=0
35430 On ch=3 n=c#5 v=0
38385 On ch=3 n=c#5 v=62
38385 On ch=3 n=f5 v=62
38385 On ch=3 n=a#5 v=62
38400 On ch=3 n=a#5 v=0
38400 On ch=3 n=f5 v=0
38400 On ch=3 n=c#5 v=0
38400 On ch=3 n=c#5 v=62
38400 On ch=3 n=f5 v=62
38400 On ch=3 n=a#5 v=62
38520 On ch=3 n=a#5 v=0
38520 On ch=3 n=f5 v=0
38520 On ch=3 n=c#5 v=0
38625 On ch=3 n=a#4 v=62
38625 On ch=3 n=f#5 v=62
38625 On ch=3 n=a#5 v=62
38640 On ch=3 n=a#5 v=0
38640 On ch=3 n=f#5 v=0
38640 On ch=3 n=a#4 v=0
38640 On ch=3 n=a#4 v=62
38640 On ch=3 n=f#5 v=62
38640 On ch=3 n=a#5 v=62
38760 On ch=3 n=a#5 v=0
38760 On ch=3 n=f#5 v=0
38760 On ch=3 n=a#4 v=0
44430 On ch=3 n=d#5 v=75
44550 On ch=3 n=d#5 v=0
44550 On ch=3 n=d#5 v=49
44610 On ch=3 n=d#5 v=0
44910 On ch=3 n=d5 v=75
45030 On ch=3 n=d5 v=0
45030 On ch=3 n=d5 v=49
45090 On ch=3 n=d5 v=0
45390 On ch=3 n=d#5 v=75
45510 On ch=3 n=d#5 v=0
45510 On ch=3 n=d#5 v=49
45570 On ch=3 n=d#5 v=0
45870 On ch=3 n=d5 v=75
45990 On ch=3 n=d5 v=0
45990 On ch=3 n=d5 v=49
46050 On ch=3 n=d5 v=0
46350 On ch=3 n=e5 v=75
46470 On ch=3 n=e5 v=0
46470 On ch=3 n=e5 v=49
46530 On ch=3 n=e5 v=0
46830 On ch=3 n=f#5 v=75
46950 On ch=3 n=f#5 v=0
46950 On ch=3 n=f#5 v=49
47010 On ch=3 n=f#5 v=0
47310 On ch=3 n=e5 v=75
47430 On ch=3 n=e5 v=0
47430 On ch=3 n=e5 v=49
47490 On ch=3 n=e5 v=0
47790 On ch=3 n=a4 v=75
47790 On ch=3 n=d5 v=75
47850 On ch=3 n=d5 v=0
47850 On ch=3 n=a4 v=0
47850 On ch=3 n=f#4 v=75
47910 On ch=3 n=f#4 v=0
47910 On ch=3 n=a4 v=75
47910 On ch=3 n=d5 v=75
47970 On ch=3 n=d5 v=0
47970 On ch=3 n=a4 v=0
48030 On ch=3 n=b4 v=75
48030 On ch=3 n=d5 v=75
48090 On ch=3 n=d5 v=0
48090 On ch=3 n=b4 v=0
48150 On ch=3 n=a#4 v=62
48150 On ch=3 n=d5 v=62
48210 On ch=3 n=d5 v=0
48210 On ch=3 n=a#4 v=0
48270 On ch=3 n=a4 v=75
48270 On ch=3 n=d5 v=75
48330 On ch=3 n=d5 v=0
48330 On ch=3 n=a4 v=0
48330 On ch=3 n=f#4 v=75
48390 On ch=3 n=f#4 v=0
48390 On ch=3 n=a4 v=75
48390 On ch=3 n=d5 v=75
48450 On ch=3 n=d5 v=0
48450 On ch=3 n=a4 v=0
48510 On ch=3 n=b4 v=62
48510 On ch=3 n=d5 v=62
48570 On ch=3 n=d5 v=0
48570 On ch=3 n=b4 v=0
48630 On ch=3 n=a#4 v=62
48630 On ch=3 n=d5 v=62
48690 On ch=3 n=d5 v=0
48690 On ch=3 n=a#4 v=0
48750 On ch=3 n=a4 v=62
48750 On ch=3 n=d5 v=62
48810 On ch=3 n=d5 v=0
48810 On ch=3 n=a4 v=0
48810 On ch=3 n=f#4 v=62
48870 On ch=3 n=f#4 v=0
48870 On ch=3 n=a4 v=62
48870 On ch=3 n=d5 v=62
48930 On ch=3 n=d5 v=0
48930 On ch=3 n=a4 v=0
48990 On ch=3 n=b4 v=62
48990 On ch=3 n=d5 v=62
49050 On ch=3 n=d5 v=0
49050 On ch=3 n=b4 v=0
49110 On ch=3 n=a#4 v=62
49110 On ch=3 n=d5 v=62
49170 On ch=3 n=d5 v=0
49170 On ch=3 n=a#4 v=0
49230 On ch=3 n=b4 v=62
49230 On ch=3 n=d5 v=62
49290 On ch=3 n=d5 v=0
49290 On ch=3 n=b4 v=0
49350 On ch=3 n=a#4 v=62
49350 On ch=3 n=d5 v=62
49410 On ch=3 n=d5 v=0
49410 On ch=3 n=a#4 v=0
49470 On ch=3 n=b4 v=36
49470 On ch=3 n=d5 v=36
49530 On ch=3 n=d5 v=0
49530 On ch=3 n=b4 v=0
49590 On ch=3 n=a#4 v=36
49590 On ch=3 n=d5 v=36
49650 On ch=3 n=d5 v=0
49650 On ch=3 n=a#4 v=0
51870 On ch=3 n=d#5 v=62
51990 On ch=3 n=d#5 v=0
51990 On ch=3 n=d#5 v=36
52050 On ch=3 n=d#5 v=0
52350 On ch=3 n=d5 v=62
52470 On ch=3 n=d5 v=0
52470 On ch=3 n=d5 v=36
52530 On ch=3 n=d5 v=0
52830 On ch=3 n=d#5 v=62
52950 On ch=3 n=d#5 v=0
52950 On ch=3 n=d#5 v=36
53010 On ch=3 n=d#5 v=0
53310 On ch=3 n=d5 v=62
53430 On ch=3 n=d5 v=0
53430 On ch=3 n=d5 v=36
53490 On ch=3 n=d5 v=0
55230 On ch=3 n=a4 v=36
55230 On ch=3 n=d5 v=36
55290 On ch=3 n=d5 v=0
55290 On ch=3 n=a4 v=0
55290 On ch=3 n=f#4 v=36
55350 On ch=3 n=f#4 v=0
55350 On ch=3 n=a4 v=36
55350 On ch=3 n=d5 v=36
55410 On ch=3 n=d5 v=0
55410 On ch=3 n=a4 v=0
55470 On ch=3 n=b4 v=62
55470 On ch=3 n=d5 v=62
55530 On ch=3 n=d5 v=0
55530 On ch=3 n=b4 v=0
55590 On ch=3 n=a#4 v=49
55590 On ch=3 n=d5 v=49
55650 On ch=3 n=d5 v=0
55650 On ch=3 n=a#4 v=0
55710 On ch=3 n=a4 v=49
55710 On ch=3 n=d5 v=49
55770 On ch=3 n=d5 v=0
55770 On ch=3 n=a4 v=0
55770 On ch=3 n=f#4 v=49
55830 On ch=3 n=f#4 v=0
55830 On ch=3 n=a4 v=49
55830 On ch=3 n=d5 v=49
55890 On ch=3 n=d5 v=0
55890 On ch=3 n=a4 v=0
55950 On ch=3 n=b4 v=62
55950 On ch=3 n=d5 v=62
56010 On ch=3 n=d5 v=0
56010 On ch=3 n=b4 v=0
56070 On ch=3 n=a#4 v=49
56070 On ch=3 n=d5 v=49
56130 On ch=3 n=d5 v=0
56130 On ch=3 n=a#4 v=0
56190 On ch=3 n=a4 v=49
56190 On ch=3 n=d5 v=49
56250 On ch=3 n=d5 v=0
56250 On ch=3 n=a4 v=0
56250 On ch=3 n=f#4 v=49
56310 On ch=3 n=f#4 v=0
56310 On ch=3 n=a4 v=49
56310 On ch=3 n=d5 v=49
56370 On ch=3 n=d5 v=0
56370 On ch=3 n=a4 v=0
56430 On ch=3 n=b4 v=62
56430 On ch=3 n=d5 v=62
56490 On ch=3 n=d5 v=0
56490 On ch=3 n=b4 v=0
56550 On ch=3 n=a#4 v=49
56550 On ch=3 n=d5 v=49
56610 On ch=3 n=d5 v=0
56610 On ch=3 n=a#4 v=0
56670 On ch=3 n=b4 v=62
56670 On ch=3 n=d5 v=62
56730 On ch=3 n=d5 v=0
56730 On ch=3 n=b4 v=0
56790 On ch=3 n=a#4 v=49
56790 On ch=3 n=d5 v=49
56850 On ch=3 n=d5 v=0
56850 On ch=3 n=a#4 v=0
56910 On ch=3 n=b4 v=62
56910 On ch=3 n=d5 v=62
56970 On ch=3 n=d5 v=0
56970 On ch=3 n=b4 v=0
57030 On ch=3 n=a#4 v=49
57030 On ch=3 n=d5 v=49
57090 On ch=3 n=d5 v=0
57090 On ch=3 n=a#4 v=0
57150 On ch=3 n=b4 v=62
57150 On ch=3 n=d5 v=62
57210 On ch=3 n=d5 v=0
57210 On ch=3 n=b4 v=0
57270 On ch=3 n=a#4 v=49
57270 On ch=3 n=d5 v=49
57330 On ch=3 n=d5 v=0
57330 On ch=3 n=a#4 v=0
60750 On ch=3 n=f5 v=75
60870 On ch=3 n=f5 v=0
60870 On ch=3 n=f5 v=49
60930 On ch=3 n=f5 v=0
61230 On ch=3 n=f5 v=75
61350 On ch=3 n=f5 v=0
61350 On ch=3 n=f5 v=49
61410 On ch=3 n=f5 v=0
61710 On ch=3 n=f5 v=75
61830 On ch=3 n=f5 v=0
61830 On ch=3 n=f5 v=49
61890 On ch=3 n=f5 v=0
62370 On ch=3 n=a2 v=75
62370 On ch=3 n=a3 v=75
62374 On ch=3 n=a3 v=0
62374 On ch=3 n=a2 v=0
62400 On ch=3 n=a#2 v=75
62400 On ch=3 n=a#3 v=75
62404 On ch=3 n=a#3 v=0
62404 On ch=3 n=a#2 v=0
62430 On ch=3 n=c#3 v=75
62430 On ch=3 n=c#4 v=75
62434 On ch=3 n=c#4 v=0
62434 On ch=3 n=c#3 v=0
62460 On ch=3 n=d3 v=75
62460 On ch=3 n=d4 v=75
62464 On ch=3 n=d4 v=0
62464 On ch=3 n=d3 v=0
62490 On ch=3 n=d#3 v=75
62490 On ch=3 n=d#4 v=75
62494 On ch=3 n=d#4 v=0
62494 On ch=3 n=d#3 v=0
62520 On ch=3 n=d3 v=75
62520 On ch=3 n=d4 v=75
62524 On ch=3 n=d4 v=0
62524 On ch=3 n=d3 v=0
62550 On ch=3 n=c#3 v=75
62550 On ch=3 n=c#4 v=75
62554 On ch=3 n=c#4 v=0
62554 On ch=3 n=c#3 v=0
62580 On ch=3 n=d3 v=75
62580 On ch=3 n=d4 v=75
62584 On ch=3 n=d4 v=0
62584 On ch=3 n=d3 v=0
62610 On ch=3 n=e3 v=75
62610 On ch=3 n=e4 v=75
62614 On ch=3 n=e4 v=0
62614 On ch=3 n=e3 v=0
62640 On ch=3 n=e3 v=75
62640 On ch=3 n=e4 v=75
62644 On ch=3 n=e4 v=0
62644 On ch=3 n=e3 v=0
62670 On ch=3 n=e3 v=75
62670 On ch=3 n=e4 v=75
62674 On ch=3 n=e4 v=0
62674 On ch=3 n=e3 v=0
62700 On ch=3 n=e3 v=75
62700 On ch=3 n=e4 v=75
62704 On ch=3 n=e4 v=0
62704 On ch=3 n=e3 v=0
62730 On ch=3 n=e3 v=75
62730 On ch=3 n=e4 v=75
62734 On ch=3 n=e4 v=0
62734 On ch=3 n=e3 v=0
62760 On ch=3 n=e3 v=75
62760 On ch=3 n=e4 v=75
62764 On ch=3 n=e4 v=0
62764 On ch=3 n=e3 v=0
62790 On ch=3 n=e3 v=75
62790 On ch=3 n=e4 v=75
62794 On ch=3 n=e4 v=0
62794 On ch=3 n=e3 v=0
62820 On ch=3 n=e3 v=75
62820 On ch=3 n=e4 v=75
62824 On ch=3 n=e4 v=0
62824 On ch=3 n=e3 v=0
62850 On ch=3 n=e3 v=75
62850 On ch=3 n=e4 v=75
62854 On ch=3 n=e4 v=0
62854 On ch=3 n=e3 v=0
62880 On ch=3 n=f#3 v=75
62880 On ch=3 n=f#4 v=75
62884 On ch=3 n=f#4 v=0
62884 On ch=3 n=f#3 v=0
62910 On ch=3 n=f#3 v=75
62910 On ch=3 n=f#4 v=75
62914 On ch=3 n=f#4 v=0
62914 On ch=3 n=f#3 v=0
62940 On ch=3 n=g3 v=75
62940 On ch=3 n=g4 v=75
62944 On ch=3 n=g4 v=0
62944 On ch=3 n=g3 v=0
62970 On ch=3 n=g3 v=75
62970 On ch=3 n=g4 v=75
62974 On ch=3 n=g4 v=0
62974 On ch=3 n=g3 v=0
63000 On ch=3 n=f#3 v=75
63000 On ch=3 n=f#4 v=75
63004 On ch=3 n=f#4 v=0
63004 On ch=3 n=f#3 v=0
63030 On ch=3 n=f#3 v=75
63030 On ch=3 n=f#4 v=75
63034 On ch=3 n=f#4 v=0
63034 On ch=3 n=f#3 v=0
63060 On ch=3 n=e3 v=75
63060 On ch=3 n=e4 v=75
63064 On ch=3 n=e4 v=0
63064 On ch=3 n=e3 v=0
63090 On ch=3 n=f#3 v=75
63090 On ch=3 n=f#4 v=75
63094 On ch=3 n=f#4 v=0
63094 On ch=3 n=f#3 v=0
63120 On ch=3 n=f#3 v=75
63120 On ch=3 n=f#4 v=75
63124 On ch=3 n=f#4 v=0
63124 On ch=3 n=f#3 v=0
63150 On ch=3 n=f#3 v=75
63150 On ch=3 n=f#4 v=75
63154 On ch=3 n=f#4 v=0
63154 On ch=3 n=f#3 v=0
63180 On ch=3 n=f#3 v=75
63180 On ch=3 n=f#4 v=75
63184 On ch=3 n=f#4 v=0
63184 On ch=3 n=f#3 v=0
63210 On ch=3 n=f#3 v=75
63210 On ch=3 n=f#4 v=75
63214 On ch=3 n=f#4 v=0
63214 On ch=3 n=f#3 v=0
63240 On ch=3 n=f#3 v=75
63240 On ch=3 n=f#4 v=75
63244 On ch=3 n=f#4 v=0
63244 On ch=3 n=f#3 v=0
63270 On ch=3 n=f#3 v=75
63270 On ch=3 n=f#4 v=75
63274 On ch=3 n=f#4 v=0
63274 On ch=3 n=f#3 v=0
63300 On ch=3 n=f#3 v=75
63300 On ch=3 n=f#4 v=75
63304 On ch=3 n=f#4 v=0
63304 On ch=3 n=f#3 v=0
63330 On ch=3 n=g3 v=75
63330 On ch=3 n=g4 v=75
63334 On ch=3 n=g4 v=0
63334 On ch=3 n=g3 v=0
63360 On ch=3 n=f#3 v=75
63360 On ch=3 n=f#4 v=75
63364 On ch=3 n=f#4 v=0
63364 On ch=3 n=f#3 v=0
63390 On ch=3 n=e3 v=75
63390 On ch=3 n=e4 v=75
63394 On ch=3 n=e4 v=0
63394 On ch=3 n=e3 v=0
63420 On ch=3 n=d3 v=75
63420 On ch=3 n=d4 v=75
63424 On ch=3 n=d4 v=0
63424 On ch=3 n=d3 v=0
63450 On ch=3 n=c#3 v=75
63450 On ch=3 n=c#4 v=75
63454 On ch=3 n=c#4 v=0
63454 On ch=3 n=c#3 v=0
63480 On ch=3 n=a#2 v=75
63480 On ch=3 n=a#3 v=75
63484 On ch=3 n=a#3 v=0
63484 On ch=3 n=a#2 v=0
63510 On ch=3 n=c#3 v=75
63510 On ch=3 n=c#4 v=75
63514 On ch=3 n=c#4 v=0
63514 On ch=3 n=c#3 v=0
63540 On ch=3 n=d3 v=75
63540 On ch=3 n=d4 v=75
63544 On ch=3 n=d4 v=0
63544 On ch=3 n=d3 v=0
63570 On ch=3 n=e3 v=75
63570 On ch=3 n=e4 v=75
63574 On ch=3 n=e4 v=0
63574 On ch=3 n=e3 v=0
63600 On ch=3 n=e3 v=75
63600 On ch=3 n=e4 v=75
63604 On ch=3 n=e4 v=0
63604 On ch=3 n=e3 v=0
63630 On ch=3 n=e3 v=75
63630 On ch=3 n=e4 v=75
63634 On ch=3 n=e4 v=0
63634 On ch=3 n=e3 v=0
63660 On ch=3 n=e3 v=75
63660 On ch=3 n=e4 v=75
63664 On ch=3 n=e4 v=0
63664 On ch=3 n=e3 v=0
63690 On ch=3 n=e3 v=75
63690 On ch=3 n=e4 v=75
63694 On ch=3 n=e4 v=0
63694 On ch=3 n=e3 v=0
63720 On ch=3 n=e3 v=75
63720 On ch=3 n=e4 v=75
63724 On ch=3 n=e4 v=0
63724 On ch=3 n=e3 v=0
63750 On ch=3 n=e3 v=75
63750 On ch=3 n=e4 v=75
63754 On ch=3 n=e4 v=0
63754 On ch=3 n=e3 v=0
63780 On ch=3 n=e3 v=75
63780 On ch=3 n=e4 v=75
63784 On ch=3 n=e4 v=0
63784 On ch=3 n=e3 v=0
63810 On ch=3 n=e3 v=75
63810 On ch=3 n=e4 v=75
63814 On ch=3 n=e4 v=0
63814 On ch=3 n=e3 v=0
63840 On ch=3 n=a2 v=75
63840 On ch=3 n=a3 v=75
63844 On ch=3 n=a3 v=0
63844 On ch=3 n=a2 v=0
63870 On ch=3 n=a2 v=75
63870 On ch=3 n=a3 v=75
63874 On ch=3 n=a3 v=0
63874 On ch=3 n=a2 v=0
63900 On ch=3 n=a3 v=75
63900 On ch=3 n=a4 v=75
63904 On ch=3 n=a4 v=0
63904 On ch=3 n=a3 v=0
63930 On ch=3 n=a3 v=75
63930 On ch=3 n=a4 v=75
63934 On ch=3 n=a4 v=0
63934 On ch=3 n=a3 v=0
63960 On ch=3 n=e3 v=75
63960 On ch=3 n=e4 v=75
63964 On ch=3 n=e4 v=0
63964 On ch=3 n=e3 v=0
63990 On ch=3 n=e3 v=75
63990 On ch=3 n=e4 v=75
63994 On ch=3 n=e4 v=0
63994 On ch=3 n=e3 v=0
64020 On ch=3 n=f#3 v=75
64020 On ch=3 n=f#4 v=75
64024 On ch=3 n=f#4 v=0
64024 On ch=3 n=f#3 v=0
64050 On ch=3 n=d3 v=88
64050 On ch=3 n=f#3 v=88
64050 On ch=3 n=a3 v=88
64050 On ch=3 n=d4 v=88
64080 On ch=3 n=d4 v=0
64080 On ch=3 n=d3 v=0
64080 On ch=3 n=f#3 v=0
64080 On ch=3 n=a3 v=0
64080 On ch=3 n=d3 v=88
64080 On ch=3 n=f#3 v=88
64080 On ch=3 n=a3 v=88
64080 On ch=3 n=d4 v=88
64110 On ch=3 n=d4 v=0
64110 On ch=3 n=d3 v=0
64110 On ch=3 n=f#3 v=0
64110 On ch=3 n=a3 v=0
64110 On ch=3 n=d3 v=88
64110 On ch=3 n=f#3 v=88
64110 On ch=3 n=a3 v=88
64110 On ch=3 n=d4 v=88
64140 On ch=3 n=d4 v=0
64140 On ch=3 n=d3 v=0
64140 On ch=3 n=f#3 v=0
64140 On ch=3 n=a3 v=0
64140 On ch=3 n=d3 v=88
64140 On ch=3 n=f#3 v=88
64140 On ch=3 n=a3 v=88
64140 On ch=3 n=d4 v=88
64170 On ch=3 n=d4 v=0
64170 On ch=3 n=d3 v=0
64170 On ch=3 n=f#3 v=0
64170 On ch=3 n=a3 v=0
64170 On ch=3 n=d3 v=101
64170 On ch=3 n=f#3 v=101
64170 On ch=3 n=a3 v=101
64170 On ch=3 n=d4 v=101
64200 On ch=3 n=d4 v=0
64200 On ch=3 n=d3 v=0
64200 On ch=3 n=f#3 v=0
64200 On ch=3 n=a3 v=0
64200 On ch=3 n=d3 v=101
64200 On ch=3 n=f#3 v=101
64200 On ch=3 n=a3 v=101
64200 On ch=3 n=d4 v=101
64230 On ch=3 n=d4 v=0
64230 On ch=3 n=d3 v=0
64230 On ch=3 n=f#3 v=0
64230 On ch=3 n=a3 v=0
64230 On ch=3 n=d3 v=101
64230 On ch=3 n=f#3 v=101
64230 On ch=3 n=a3 v=101
64230 On ch=3 n=d4 v=101
64290 On ch=3 n=d4 v=0
64290 On ch=3 n=d3 v=0
64290 On ch=3 n=f#3 v=0
64290 On ch=3 n=a3 v=0
64290 On ch=3 n=b2 v=101
64290 On ch=3 n=b3 v=101
64350 On ch=3 n=b3 v=0
64350 On ch=3 n=b2 v=0
64350 On ch=3 n=f#4 v=101
64350 On ch=3 n=b4 v=101
64350 On ch=3 n=d5 v=101
64410 On ch=3 n=d5 v=0
64410 On ch=3 n=b4 v=0
64410 On ch=3 n=f#4 v=0
64410 On ch=3 n=a#2 v=101
64410 On ch=3 n=a#3 v=101
64470 On ch=3 n=a#3 v=0
64470 On ch=3 n=a#2 v=0
64470 On ch=3 n=f4 v=101
64470 On ch=3 n=a#4 v=101
64530 On ch=3 n=a#4 v=0
64530 On ch=3 n=f4 v=0
64530 On ch=3 n=d3 v=88
64530 On ch=3 n=f#3 v=88
64530 On ch=3 n=a3 v=88
64530 On ch=3 n=d4 v=88
64560 On ch=3 n=d4 v=0
64560 On ch=3 n=d3 v=0
64560 On ch=3 n=f#3 v=0
64560 On ch=3 n=a3 v=0
64560 On ch=3 n=d3 v=88
64560 On ch=3 n=f#3 v=88
64560 On ch=3 n=a3 v=88
64560 On ch=3 n=d4 v=88
64590 On ch=3 n=d4 v=0
64590 On ch=3 n=d3 v=0
64590 On ch=3 n=f#3 v=0
64590 On ch=3 n=a3 v=0
64590 On ch=3 n=d3 v=88
64590 On ch=3 n=f#3 v=88
64590 On ch=3 n=a3 v=88
64590 On ch=3 n=d4 v=88
64620 On ch=3 n=d4 v=0
64620 On ch=3 n=d3 v=0
64620 On ch=3 n=f#3 v=0
64620 On ch=3 n=a3 v=0
64620 On ch=3 n=d3 v=88
64620 On ch=3 n=f#3 v=88
64620 On ch=3 n=a3 v=88
64620 On ch=3 n=d4 v=88
64650 On ch=3 n=d4 v=0
64650 On ch=3 n=d3 v=0
64650 On ch=3 n=f#3 v=0
64650 On ch=3 n=a3 v=0
64650 On ch=3 n=d3 v=101
64650 On ch=3 n=f#3 v=101
64650 On ch=3 n=a3 v=101
64650 On ch=3 n=d4 v=101
64680 On ch=3 n=d4 v=0
64680 On ch=3 n=d3 v=0
64680 On ch=3 n=f#3 v=0
64680 On ch=3 n=a3 v=0
64680 On ch=3 n=d3 v=101
64680 On ch=3 n=f#3 v=101
64680 On ch=3 n=a3 v=101
64680 On ch=3 n=d4 v=101
64710 On ch=3 n=d4 v=0
64710 On ch=3 n=d3 v=0
64710 On ch=3 n=f#3 v=0
64710 On ch=3 n=a3 v=0
64710 On ch=3 n=d3 v=101
64710 On ch=3 n=f#3 v=101
64710 On ch=3 n=a3 v=101
64710 On ch=3 n=d4 v=101
64770 On ch=3 n=d4 v=0
64770 On ch=3 n=d3 v=0
64770 On ch=3 n=f#3 v=0
64770 On ch=3 n=a3 v=0
64770 On ch=3 n=b2 v=101
64770 On ch=3 n=b3 v=101
64830 On ch=3 n=b3 v=0
64830 On ch=3 n=b2 v=0
64830 On ch=3 n=f#4 v=101
64830 On ch=3 n=b4 v=101
64830 On ch=3 n=d5 v=101
64890 On ch=3 n=d5 v=0
64890 On ch=3 n=b4 v=0
64890 On ch=3 n=f#4 v=0
64890 On ch=3 n=a#2 v=101
64890 On ch=3 n=a#3 v=101
64950 On ch=3 n=a#3 v=0
64950 On ch=3 n=a#2 v=0
64950 On ch=3 n=f4 v=101
64950 On ch=3 n=a#4 v=101
65010 On ch=3 n=a#4 v=0
65010 On ch=3 n=f4 v=0
65010 On ch=3 n=d3 v=88
65010 On ch=3 n=f#3 v=88
65010 On ch=3 n=a3 v=88
65010 On ch=3 n=d4 v=88
65040 On ch=3 n=d4 v=0
65040 On ch=3 n=d3 v=0
65040 On ch=3 n=f#3 v=0
65040 On ch=3 n=a3 v=0
65040 On ch=3 n=d3 v=88
65040 On ch=3 n=f#3 v=88
65040 On ch=3 n=a3 v=88
65040 On ch=3 n=d4 v=88
65070 On ch=3 n=d4 v=0
65070 On ch=3 n=d3 v=0
65070 On ch=3 n=f#3 v=0
65070 On ch=3 n=a3 v=0
65070 On ch=3 n=d3 v=88
65070 On ch=3 n=f#3 v=88
65070 On ch=3 n=a3 v=88
65070 On ch=3 n=d4 v=88
65100 On ch=3 n=d4 v=0
65100 On ch=3 n=d3 v=0
65100 On ch=3 n=f#3 v=0
65100 On ch=3 n=a3 v=0
65100 On ch=3 n=d3 v=88
65100 On ch=3 n=f#3 v=88
65100 On ch=3 n=a3 v=88
65100 On ch=3 n=d4 v=88
65130 On ch=3 n=d4 v=0
65130 On ch=3 n=d3 v=0
65130 On ch=3 n=f#3 v=0
65130 On ch=3 n=a3 v=0
65130 On ch=3 n=d3 v=101
65130 On ch=3 n=f#3 v=101
65130 On ch=3 n=a3 v=101
65130 On ch=3 n=d4 v=101
65160 On ch=3 n=d4 v=0
65160 On ch=3 n=d3 v=0
65160 On ch=3 n=f#3 v=0
65160 On ch=3 n=a3 v=0
65160 On ch=3 n=d3 v=101
65160 On ch=3 n=f#3 v=101
65160 On ch=3 n=a3 v=101
65160 On ch=3 n=d4 v=101
65190 On ch=3 n=d4 v=0
65190 On ch=3 n=d3 v=0
65190 On ch=3 n=f#3 v=0
65190 On ch=3 n=a3 v=0
65190 On ch=3 n=d3 v=101
65190 On ch=3 n=f#3 v=101
65190 On ch=3 n=a3 v=101
65190 On ch=3 n=d4 v=101
65250 On ch=3 n=d4 v=0
65250 On ch=3 n=d3 v=0
65250 On ch=3 n=f#3 v=0
65250 On ch=3 n=a3 v=0
65250 On ch=3 n=b2 v=101
65250 On ch=3 n=b3 v=101
65310 On ch=3 n=b3 v=0
65310 On ch=3 n=b2 v=0
65310 On ch=3 n=f#4 v=101
65310 On ch=3 n=d5 v=101
65370 On ch=3 n=d5 v=0
65370 On ch=3 n=f#4 v=0
65370 On ch=3 n=a#2 v=101
65370 On ch=3 n=a#3 v=101
65430 On ch=3 n=a#3 v=0
65430 On ch=3 n=a#2 v=0
65430 On ch=3 n=f4 v=101
65430 On ch=3 n=d5 v=101
65490 On ch=3 n=d5 v=0
65490 On ch=3 n=f4 v=0
65490 On ch=3 n=b2 v=101
65490 On ch=3 n=b3 v=101
65550 On ch=3 n=b3 v=0
65550 On ch=3 n=b2 v=0
65550 On ch=3 n=f#4 v=101
65550 On ch=3 n=d5 v=101
65610 On ch=3 n=d5 v=0
65610 On ch=3 n=f#4 v=0
65610 On ch=3 n=a#2 v=101
65610 On ch=3 n=a#3 v=101
65670 On ch=3 n=a#3 v=0
65670 On ch=3 n=a#2 v=0
65670 On ch=3 n=f4 v=101
65670 On ch=3 n=d5 v=101
65730 On ch=3 n=d5 v=0
65730 On ch=3 n=f4 v=0
65730 On ch=3 n=b2 v=101
65730 On ch=3 n=b3 v=101
65790 On ch=3 n=b3 v=0
65790 On ch=3 n=b2 v=0
65790 On ch=3 n=f#4 v=101
65790 On ch=3 n=d5 v=101
65850 On ch=3 n=d5 v=0
65850 On ch=3 n=f#4 v=0
65850 On ch=3 n=a#2 v=101
65850 On ch=3 n=a#3 v=101
65910 On ch=3 n=a#3 v=0
65910 On ch=3 n=a#2 v=0
65910 On ch=3 n=f4 v=101
65910 On ch=3 n=d5 v=101
65970 On ch=3 n=d5 v=0
65970 On ch=3 n=f4 v=0
65970 Par ch=3 c=64 v=127
65970 On ch=3 n=a#2 v=88
65970 On ch=3 n=a#3 v=88
66030 On ch=3 n=a#3 v=0
66030 On ch=3 n=a#2 v=0
66030 On ch=3 n=f4 v=88
66030 On ch=3 n=a#4 v=88
66030 On ch=3 n=d5 v=88
66090 On ch=3 n=d5 v=0
66090 On ch=3 n=a#4 v=0
66090 On ch=3 n=f4 v=0
66090 On ch=3 n=a#2 v=88
66090 On ch=3 n=a#3 v=88
66150 On ch=3 n=a#3 v=0
66150 On ch=3 n=a#2 v=0
66150 Par ch=3 c=64 v=0
66150 On ch=3 n=f4 v=88
66150 On ch=3 n=a#4 v=88
66150 On ch=3 n=d5 v=88
66210 On ch=3 n=d5 v=0
66210 On ch=3 n=a#4 v=0
66210 On ch=3 n=f4 v=0
66210 Par ch=3 c=64 v=127
66210 On ch=3 n=a#2 v=88
66210 On ch=3 n=a#3 v=88
66270 On ch=3 n=a#3 v=0
66270 On ch=3 n=a#2 v=0
66270 On ch=3 n=a4 v=104
66270 On ch=3 n=d#5 v=109
66270 On ch=3 n=f5 v=114
66330 On ch=3 n=f5 v=0
66330 On ch=3 n=d#5 v=0
66330 On ch=3 n=a4 v=0
66330 On ch=3 n=a#2 v=88
66330 On ch=3 n=a#3 v=88
66390 On ch=3 n=a#3 v=0
66390 On ch=3 n=a#2 v=0
66390 On ch=3 n=a4 v=88
66390 On ch=3 n=d#5 v=88
66390 On ch=3 n=f5 v=88
66450 On ch=3 n=f5 v=0
66450 On ch=3 n=d#5 v=0
66450 On ch=3 n=a4 v=0
66450 On ch=3 n=a#2 v=88
66450 On ch=3 n=a#3 v=88
66510 On ch=3 n=a#3 v=0
66510 On ch=3 n=a#2 v=0
66510 On ch=3 n=a4 v=88
66510 On ch=3 n=d#5 v=88
66510 On ch=3 n=f5 v=88
66570 On ch=3 n=f5 v=0
66570 On ch=3 n=d#5 v=0
66570 On ch=3 n=a4 v=0
66570 On ch=3 n=a#2 v=88
66570 On ch=3 n=a#3 v=88
66630 On ch=3 n=a#3 v=0
66630 On ch=3 n=a#2 v=0
66630 Par ch=3 c=64 v=0
66630 On ch=3 n=a4 v=88
66630 On ch=3 n=d#5 v=88
66630 On ch=3 n=f5 v=88
66690 On ch=3 n=f5 v=0
66690 On ch=3 n=d#5 v=0
66690 On ch=3 n=a4 v=0
66690 Par ch=3 c=64 v=127
66690 On ch=3 n=a#2 v=88
66690 On ch=3 n=a#3 v=88
66750 On ch=3 n=a#3 v=0
66750 On ch=3 n=a#2 v=0
66750 On ch=3 n=f4 v=102
66750 On ch=3 n=a#4 v=106
66750 On ch=3 n=d5 v=110
66750 On ch=3 n=f5 v=114
66810 On ch=3 n=f5 v=0
66810 On ch=3 n=f4 v=0
66810 On ch=3 n=a#4 v=0
66810 On ch=3 n=d5 v=0
66810 On ch=3 n=a#2 v=88
66810 On ch=3 n=a#3 v=88
66870 On ch=3 n=a#3 v=0
66870 On ch=3 n=a#2 v=0
66870 On ch=3 n=f4 v=88
66870 On ch=3 n=a#4 v=88
66870 On ch=3 n=d5 v=88
66870 On ch=3 n=f5 v=88
66930 On ch=3 n=f5 v=0
66930 On ch=3 n=f4 v=0
66930 On ch=3 n=a#4 v=0
66930 On ch=3 n=d5 v=0
66930 On ch=3 n=a#2 v=88
66930 On ch=3 n=a#3 v=88
66990 On ch=3 n=a#3 v=0
66990 On ch=3 n=a#2 v=0
66990 On ch=3 n=f4 v=88
66990 On ch=3 n=a#4 v=88
66990 On ch=3 n=d5 v=88
66990 On ch=3 n=f5 v=88
67050 On ch=3 n=f5 v=0
67050 On ch=3 n=f4 v=0
67050 On ch=3 n=a#4 v=0
67050 On ch=3 n=d5 v=0
67050 On ch=3 n=a#2 v=88
67050 On ch=3 n=a#3 v=88
67110 On ch=3 n=a#3 v=0
67110 On ch=3 n=a#2 v=0
67110 Par ch=3 c=64 v=0
67110 On ch=3 n=f4 v=88
67110 On ch=3 n=a#4 v=88
67110 On ch=3 n=d5 v=88
67110 On ch=3 n=f5 v=88
67170 On ch=3 n=f5 v=0
67170 On ch=3 n=f4 v=0
67170 On ch=3 n=a#4 v=0
67170 On ch=3 n=d5 v=0
67170 Par ch=3 c=64 v=127
67170 On ch=3 n=a#2 v=88
67170 On ch=3 n=a#3 v=88
67230 On ch=3 n=a#3 v=0
67230 On ch=3 n=a#2 v=0
67230 On ch=3 n=a4 v=104
67230 On ch=3 n=d#5 v=109
67230 On ch=3 n=f5 v=114
67290 On ch=3 n=f5 v=0
67290 On ch=3 n=d#5 v=0
67290 On ch=3 n=a4 v=0
67290 On ch=3 n=a#2 v=88
67290 On ch=3 n=a#3 v=88
67350 On ch=3 n=a#3 v=0
67350 On ch=3 n=a#2 v=0
67350 On ch=3 n=a4 v=88
67350 On ch=3 n=d#5 v=88
67350 On ch=3 n=f5 v=88
67410 On ch=3 n=f5 v=0
67410 On ch=3 n=d#5 v=0
67410 On ch=3 n=a4 v=0
67410 On ch=3 n=a#2 v=88
67410 On ch=3 n=a#3 v=88
67470 On ch=3 n=a#3 v=0
67470 On ch=3 n=a#2 v=0
67470 On ch=3 n=a4 v=88
67470 On ch=3 n=d#5 v=88
67470 On ch=3 n=f5 v=88
67530 On ch=3 n=f5 v=0
67530 On ch=3 n=d#5 v=0
67530 On ch=3 n=a4 v=0
67530 On ch=3 n=a#2 v=88
67530 On ch=3 n=a#3 v=88
67590 On ch=3 n=a#3 v=0
67590 On ch=3 n=a#2 v=0
67590 Par ch=3 c=64 v=0
67590 On ch=3 n=a4 v=88
67590 On ch=3 n=d#5 v=88
67590 On ch=3 n=f5 v=88
67650 On ch=3 n=f5 v=0
67650 On ch=3 n=d#5 v=0
67650 On ch=3 n=a4 v=0
67650 Par ch=3 c=64 v=127
67650 On ch=3 n=a#2 v=88
67650 On ch=3 n=a#3 v=88
67710 On ch=3 n=a#3 v=0
67710 On ch=3 n=a#2 v=0
67710 On ch=3 n=f4 v=102
67710 On ch=3 n=a#4 v=106
67710 On ch=3 n=d5 v=110
67710 On ch=3 n=f5 v=114
67770 On ch=3 n=f5 v=0
67770 On ch=3 n=f4 v=0
67770 On ch=3 n=a#4 v=0
67770 On ch=3 n=d5 v=0
67770 On ch=3 n=a#2 v=88
67770 On ch=3 n=a#3 v=88
67830 On ch=3 n=a#3 v=0
67830 On ch=3 n=a#2 v=0
67830 Par ch=3 c=64 v=0
67830 On ch=3 n=f4 v=102
67830 On ch=3 n=a#4 v=106
67830 On ch=3 n=d5 v=110
67830 On ch=3 n=f5 v=114
67890 On ch=3 n=f5 v=0
67890 On ch=3 n=f4 v=0
67890 On ch=3 n=a#4 v=0
67890 On ch=3 n=d5 v=0
67890 On ch=3 n=f3 v=88
67890 On ch=3 n=f4 v=88
67920 On ch=3 n=f4 v=0
67920 On ch=3 n=f3 v=0
67920 On ch=3 n=g3 v=88
67920 On ch=3 n=g4 v=88
67950 On ch=3 n=g4 v=0
67950 On ch=3 n=g3 v=0
67950 On ch=3 n=a3 v=88
67950 On ch=3 n=a4 v=88
67980 On ch=3 n=a4 v=0
67980 On ch=3 n=a3 v=0
67980 On ch=3 n=a#3 v=88
67980 On ch=3 n=a#4 v=88
68010 On ch=3 n=a#4 v=0
68010 On ch=3 n=a#3 v=0
68010 On ch=3 n=c4 v=88
68010 On ch=3 n=c5 v=88
68040 On ch=3 n=c5 v=0
68040 On ch=3 n=c4 v=0
68040 On ch=3 n=a#3 v=88
68040 On ch=3 n=a#4 v=88
68070 On ch=3 n=a#4 v=0
68070 On ch=3 n=a#3 v=0
68070 On ch=3 n=a3 v=88
68070 On ch=3 n=a4 v=88
68100 On ch=3 n=a4 v=0
68100 On ch=3 n=a3 v=0
68100 On ch=3 n=a#3 v=88
68100 On ch=3 n=a#4 v=88
68130 On ch=3 n=a#4 v=0
68130 On ch=3 n=a#3 v=0
68130 On ch=3 n=c4 v=88
68130 On ch=3 n=c5 v=88
68136 On ch=3 n=c5 v=0
68136 On ch=3 n=c4 v=0
68190 On ch=3 n=c4 v=102
68190 On ch=3 n=g4 v=106
68190 On ch=3 n=a#4 v=110
68190 On ch=3 n=c5 v=114
68310 On ch=3 n=c5 v=0
68310 On ch=3 n=c4 v=0
68310 On ch=3 n=g4 v=0
68310 On ch=3 n=a#4 v=0
68310 On ch=3 n=c4 v=88
68310 On ch=3 n=g4 v=88
68310 On ch=3 n=a#4 v=88
68310 On ch=3 n=c5 v=88
68316 On ch=3 n=c5 v=0
68316 On ch=3 n=c4 v=0
68316 On ch=3 n=g4 v=0
68316 On ch=3 n=a#4 v=0
68370 On ch=3 n=c4 v=88
68370 On ch=3 n=f4 v=88
68370 On ch=3 n=a4 v=88
68370 On ch=3 n=c5 v=88
68400 On ch=3 n=c5 v=0
68400 On ch=3 n=c4 v=0
68400 On ch=3 n=f4 v=0
68400 On ch=3 n=a4 v=0
68400 On ch=3 n=d4 v=88
68400 On ch=3 n=d5 v=88
68430 On ch=3 n=d5 v=0
68430 On ch=3 n=d4 v=0
68430 On ch=3 n=d4 v=88
68430 On ch=3 n=d5 v=88
68460 On ch=3 n=d5 v=0
68460 On ch=3 n=d4 v=0
68460 On ch=3 n=d#4 v=88
68460 On ch=3 n=d#5 v=88
68490 On ch=3 n=d#5 v=0
68490 On ch=3 n=d#4 v=0
68490 On ch=3 n=d#4 v=88
68490 On ch=3 n=d#5 v=88
68520 On ch=3 n=d#5 v=0
68520 On ch=3 n=d#4 v=0
68520 On ch=3 n=d4 v=88
68520 On ch=3 n=d5 v=88
68550 On ch=3 n=d5 v=0
68550 On ch=3 n=d4 v=0
68550 On ch=3 n=d4 v=88
68550 On ch=3 n=d5 v=88
68580 On ch=3 n=d5 v=0
68580 On ch=3 n=d4 v=0
68580 On ch=3 n=c4 v=88
68580 On ch=3 n=c5 v=88
68610 On ch=3 n=c5 v=0
68610 On ch=3 n=c4 v=0
68610 On ch=3 n=d4 v=88
68610 On ch=3 n=d5 v=88
68616 On ch=3 n=d5 v=0
68616 On ch=3 n=d4 v=0
68670 On ch=3 n=d4 v=102
68670 On ch=3 n=f#4 v=106
68670 On ch=3 n=a4 v=110
68670 On ch=3 n=d5 v=114
68790 On ch=3 n=d5 v=0
68790 On ch=3 n=d4 v=0
68790 On ch=3 n=f#4 v=0
68790 On ch=3 n=a4 v=0
68790 On ch=3 n=d4 v=88
68790 On ch=3 n=g4 v=88
68790 On ch=3 n=a#4 v=88
68790 On ch=3 n=d5 v=88
68796 On ch=3 n=d5 v=0
68796 On ch=3 n=d4 v=0
68796 On ch=3 n=g4 v=0
68796 On ch=3 n=a#4 v=0
68850 On ch=3 n=d#4 v=88
68850 On ch=3 n=d#5 v=88
68880 On ch=3 n=d#5 v=0
68880 On ch=3 n=d#4 v=0
68880 On ch=3 n=d4 v=88
68880 On ch=3 n=d5 v=88
68910 On ch=3 n=d5 v=0
68910 On ch=3 n=d4 v=0
68910 On ch=3 n=c4 v=88
68910 On ch=3 n=c5 v=88
68940 On ch=3 n=c5 v=0
68940 On ch=3 n=c4 v=0
68940 On ch=3 n=a#3 v=88
68940 On ch=3 n=a#4 v=88
68970 On ch=3 n=a#4 v=0
68970 On ch=3 n=a#3 v=0
68970 On ch=3 n=a3 v=88
68970 On ch=3 n=a4 v=88
69000 On ch=3 n=a4 v=0
69000 On ch=3 n=a3 v=0
69000 On ch=3 n=g3 v=88
69000 On ch=3 n=g4 v=88
69030 On ch=3 n=g4 v=0
69030 On ch=3 n=g3 v=0
69030 On ch=3 n=a3 v=88
69030 On ch=3 n=a4 v=88
69060 On ch=3 n=a4 v=0
69060 On ch=3 n=a3 v=0
69060 On ch=3 n=a#3 v=88
69060 On ch=3 n=a#4 v=88
69090 On ch=3 n=a#4 v=0
69090 On ch=3 n=a#3 v=0
69090 On ch=3 n=c4 v=88
69090 On ch=3 n=c5 v=88
69096 On ch=3 n=c5 v=0
69096 On ch=3 n=c4 v=0
69150 On ch=3 n=c4 v=102
69150 On ch=3 n=g4 v=106
69150 On ch=3 n=a#4 v=110
69150 On ch=3 n=c5 v=114
69270 On ch=3 n=c5 v=0
69270 On ch=3 n=c4 v=0
69270 On ch=3 n=g4 v=0
69270 On ch=3 n=a#4 v=0
69270 On ch=3 n=c4 v=88
69270 On ch=3 n=g4 v=88
69270 On ch=3 n=a#4 v=88
69270 On ch=3 n=c5 v=88
69276 On ch=3 n=c5 v=0
69276 On ch=3 n=c4 v=0
69276 On ch=3 n=g4 v=0
69276 On ch=3 n=a#4 v=0
69330 Par ch=3 c=64 v=127
69330 On ch=3 n=f#4 v=93
69330 On ch=3 n=f#5 v=101
69360 On ch=3 n=f#5 v=0
69360 On ch=3 n=f#4 v=0
69360 On ch=3 n=f4 v=75
69360 On ch=3 n=f5 v=75
69390 On ch=3 n=f5 v=0
69390 On ch=3 n=f4 v=0
69390 On ch=3 n=e4 v=75
69390 On ch=3 n=e5 v=75
69420 On ch=3 n=e5 v=0
69420 On ch=3 n=e4 v=0
69420 On ch=3 n=d#4 v=75
69420 On ch=3 n=d#5 v=75
69450 On ch=3 n=d#5 v=0
69450 On ch=3 n=d#4 v=0
69450 On ch=3 n=d4 v=75
69450 On ch=3 n=d5 v=75
69480 On ch=3 n=d5 v=0
69480 On ch=3 n=d4 v=0
69480 On ch=3 n=c#4 v=75
69480 On ch=3 n=c#5 v=75
69510 On ch=3 n=c#5 v=0
69510 On ch=3 n=c#4 v=0
69510 On ch=3 n=c4 v=75
69510 On ch=3 n=c5 v=75
69540 On ch=3 n=c5 v=0
69540 On ch=3 n=c4 v=0
69540 On ch=3 n=a#3 v=75
69540 On ch=3 n=a#4 v=75
69570 On ch=3 n=a#4 v=0
69570 On ch=3 n=a#3 v=0
69570 On ch=3 n=a3 v=88
69570 On ch=3 n=a4 v=88
69600 On ch=3 n=a4 v=0
69600 On ch=3 n=a3 v=0
69600 On ch=3 n=a3 v=88
69600 On ch=3 n=a4 v=88
69630 On ch=3 n=a4 v=0
69630 On ch=3 n=a3 v=0
69630 On ch=3 n=g#3 v=88
69630 On ch=3 n=g#4 v=88
69660 On ch=3 n=g#4 v=0
69660 On ch=3 n=g#3 v=0
69660 On ch=3 n=g3 v=88
69660 On ch=3 n=g4 v=88
69690 On ch=3 n=g4 v=0
69690 On ch=3 n=g3 v=0
69690 On ch=3 n=f#3 v=88
69690 On ch=3 n=f#4 v=88
69720 On ch=3 n=f#4 v=0
69720 On ch=3 n=f#3 v=0
69720 On ch=3 n=f3 v=88
69720 On ch=3 n=f4 v=88
69750 On ch=3 n=f4 v=0
69750 On ch=3 n=f3 v=0
69750 On ch=3 n=e3 v=88
69750 On ch=3 n=e4 v=88
69780 On ch=3 n=e4 v=0
69780 On ch=3 n=e3 v=0
69780 On ch=3 n=d#3 v=88
69780 On ch=3 n=d#4 v=88
69810 On ch=3 n=d#4 v=0
69810 On ch=3 n=d#3 v=0
69810 On ch=3 n=d3 v=101
69810 On ch=3 n=d4 v=101
69840 On ch=3 n=d4 v=0
69840 On ch=3 n=d3 v=0
69840 On ch=3 n=c#3 v=101
69840 On ch=3 n=c#4 v=101
69870 On ch=3 n=c#4 v=0
69870 On ch=3 n=c#3 v=0
69870 On ch=3 n=c3 v=101
69870 On ch=3 n=c4 v=101
69900 On ch=3 n=c4 v=0
69900 On ch=3 n=c3 v=0
69900 Par ch=3 c=64 v=0
69900 On ch=3 n=b2 v=101
69900 On ch=3 n=b3 v=101
69930 On ch=3 n=b3 v=0
69930 On ch=3 n=b2 v=0
69930 On ch=3 n=a#2 v=101
69930 On ch=3 n=a#3 v=101
69960 On ch=3 n=a#3 v=0
69960 On ch=3 n=a#2 v=0
69960 On ch=3 n=a2 v=101
69960 On ch=3 n=a3 v=101
69990 On ch=3 n=a3 v=0
69990 On ch=3 n=a2 v=0
69990 On ch=3 n=g#2 v=101
69990 On ch=3 n=g#3 v=101
70020 On ch=3 n=g#3 v=0
70020 On ch=3 n=g#2 v=0
70020 On ch=3 n=g2 v=101
70020 On ch=3 n=g3 v=101
70050 On ch=3 n=g3 v=0
70050 On ch=3 n=g2 v=0
70050 On ch=3 n=f#2 v=101
70050 On ch=3 n=f#3 v=101
70080 On ch=3 n=f#3 v=0
70080 On ch=3 n=f#2 v=0
70080 On ch=3 n=f2 v=101
70080 On ch=3 n=f3 v=101
70110 On ch=3 n=f3 v=0
70110 On ch=3 n=f2 v=0
70110 On ch=3 n=e2 v=101
70110 On ch=3 n=e3 v=101
70140 On ch=3 n=e3 v=0
70140 On ch=3 n=e2 v=0
70140 On ch=3 n=f2 v=101
70140 On ch=3 n=f3 v=101
70170 On ch=3 n=f3 v=0
70170 On ch=3 n=f2 v=0
70170 On ch=3 n=f#2 v=101
70170 On ch=3 n=f#3 v=101
70200 On ch=3 n=f#3 v=0
70200 On ch=3 n=f#2 v=0
70200 On ch=3 n=g2 v=101
70200 On ch=3 n=g3 v=101
70230 On ch=3 n=g3 v=0
70230 On ch=3 n=g2 v=0
70230 On ch=3 n=g#2 v=101
70230 On ch=3 n=g#3 v=101
70260 On ch=3 n=g#3 v=0
70260 On ch=3 n=g#2 v=0
70260 On ch=3 n=a2 v=101
70260 On ch=3 n=a3 v=101
70290 On ch=3 n=a3 v=0
70290 On ch=3 n=a2 v=0
70290 On ch=3 n=a#2 v=101
70290 On ch=3 n=a#3 v=101
70350 On ch=3 n=a#3 v=0
70350 On ch=3 n=a#2 v=0
70350 On ch=3 n=f#2 v=101
70350 On ch=3 n=f#3 v=101
70410 On ch=3 n=f#3 v=0
70410 On ch=3 n=f#2 v=0
70410 Par ch=3 c=64 v=127
70410 On ch=3 n=a#2 v=101
70410 On ch=3 n=a#3 v=101
70470 On ch=3 n=a#3 v=0
70470 On ch=3 n=a#2 v=0
70470 On ch=3 n=g2 v=101
70470 On ch=3 n=g3 v=101
70530 On ch=3 n=g3 v=0
70530 On ch=3 n=g2 v=0
70530 On ch=3 n=a#2 v=101
70530 On ch=3 n=a#3 v=101
70590 On ch=3 n=a#3 v=0
70590 On ch=3 n=a#2 v=0
70590 On ch=3 n=f#2 v=101
70590 On ch=3 n=f#3 v=101
70650 On ch=3 n=f#3 v=0
70650 On ch=3 n=f#2 v=0
70650 On ch=3 n=a#2 v=101
70650 On ch=3 n=a#3 v=101
70710 On ch=3 n=a#3 v=0
70710 On ch=3 n=a#2 v=0
70710 On ch=3 n=g2 v=101
70710 On ch=3 n=g3 v=101
70770 On ch=3 n=g3 v=0
70770 On ch=3 n=g2 v=0
70770 On ch=3 n=a#2 v=101
70770 On ch=3 n=a#3 v=101
70830 On ch=3 n=a#3 v=0
70830 On ch=3 n=a#2 v=0
70830 On ch=3 n=f#2 v=101
70830 On ch=3 n=f#3 v=101
70890 On ch=3 n=f#3 v=0
70890 On ch=3 n=f#2 v=0
70890 On ch=3 n=a#2 v=101
70890 On ch=3 n=a#3 v=101
70950 On ch=3 n=a#3 v=0
70950 On ch=3 n=a#2 v=0
70950 On ch=3 n=g2 v=101
70950 On ch=3 n=g3 v=101
71010 On ch=3 n=g3 v=0
71010 On ch=3 n=g2 v=0
71010 On ch=3 n=a#2 v=101
71010 On ch=3 n=a#3 v=101
71070 On ch=3 n=a#3 v=0
71070 On ch=3 n=a#2 v=0
71070 On ch=3 n=f#2 v=101
71070 On ch=3 n=f#3 v=101
71130 On ch=3 n=f#3 v=0
71130 On ch=3 n=f#2 v=0
71130 On ch=3 n=a#2 v=101
71130 On ch=3 n=a#3 v=101
71190 On ch=3 n=a#3 v=0
71190 On ch=3 n=a#2 v=0
71190 On ch=3 n=g2 v=101
71190 On ch=3 n=g3 v=101
71250 On ch=3 n=g3 v=0
71250 On ch=3 n=g2 v=0
71250 On ch=3 n=a#2 v=101
71250 On ch=3 n=a#3 v=101
71310 On ch=3 n=a#3 v=0
71310 On ch=3 n=a#2 v=0
71310 Par ch=3 c=64 v=0
71370 On ch=3 n=f3 v=101
71370 On ch=3 n=a3 v=101
71370 On ch=3 n=c4 v=101
71370 On ch=3 n=f4 v=101
71430 On ch=3 n=f4 v=0
71430 On ch=3 n=f3 v=0
71430 On ch=3 n=a3 v=0
71430 On ch=3 n=c4 v=0
71490 On ch=3 n=a#3 v=101
71490 On ch=3 n=d4 v=101
71490 On ch=3 n=f4 v=101
71490 On ch=3 n=a#4 v=101
71550 On ch=3 n=a#4 v=0
71550 On ch=3 n=a#3 v=0
71550 On ch=3 n=d4 v=0
71550 On ch=3 n=f4 v=0
71610 On ch=3 n=f2 v=101
71610 On ch=3 n=a2 v=101
71610 On ch=3 n=c3 v=101
71610 On ch=3 n=f3 v=101
71670 On ch=3 n=f3 v=0
71670 On ch=3 n=f2 v=0
71670 On ch=3 n=a2 v=0
71670 On ch=3 n=c3 v=0
71730 Par ch=3 c=64 v=127
71730 On ch=3 n=a#2 v=101
71730 On ch=3 n=d3 v=101
71730 On ch=3 n=f3 v=101
71730 On ch=3 n=a#3 v=101
71790 On ch=3 n=a#3 v=0
71790 On ch=3 n=a#2 v=0
71790 On ch=3 n=d3 v=0
71790 On ch=3 n=f3 v=0
71940 On ch=3 n=f4 v=101
71940 On ch=3 n=a#4 v=101
71940 On ch=3 n=d5 v=101
71940 On ch=3 n=f5 v=101
71970 On ch=3 n=f5 v=0
71970 On ch=3 n=f4 v=0
71970 On ch=3 n=a#4 v=0
71970 On ch=3 n=d5 v=0
71970 On ch=3 n=f4 v=101
71970 On ch=3 n=a#4 v=101
71970 On ch=3 n=d5 v=101
71970 On ch=3 n=f5 v=101
71976 On ch=3 n=f5 v=0
71976 On ch=3 n=f4 v=0
71976 On ch=3 n=a#4 v=0
71976 On ch=3 n=d5 v=0
72180 On ch=3 n=a#2 v=101
72180 On ch=3 n=d3 v=101
72180 On ch=3 n=f3 v=101
72180 On ch=3 n=a#3 v=101
72210 On ch=3 n=a#3 v=0
72210 On ch=3 n=a#2 v=0
72210 On ch=3 n=d3 v=0
72210 On ch=3 n=f3 v=0
72210 On ch=3 n=a#2 v=101
72210 On ch=3 n=d3 v=101
72210 On ch=3 n=f3 v=101
72210 On ch=3 n=a#3 v=101
72216 On ch=3 n=a#3 v=0
72216 On ch=3 n=a#2 v=0
72216 On ch=3 n=d3 v=0
72216 On ch=3 n=f3 v=0
72690 Par ch=3 c=64 v=0
72690 Meta TrkEnd
TrkEnd
MTrk
0 Meta 0x21 00
0 Meta TrkName "Instrument19"
0 PrCh ch=4 p=0
0 Par ch=4 c=7 v=127
0 Par ch=4 c=10 v=30
1320 Par ch=4 c=64 v=127
1320 On ch=4 n=c#3 v=75
1326 On ch=4 n=c#3 v=0
1380 On ch=4 n=c#4 v=75
1380 On ch=4 n=g#4 v=75
1440 On ch=4 n=g#4 v=0
1440 On ch=4 n=c#4 v=0
1440 On ch=4 n=c#4 v=75
1440 On ch=4 n=g#4 v=75
1500 On ch=4 n=g#4 v=0
1500 On ch=4 n=c#4 v=0
1500 Par ch=4 c=64 v=0
1500 On ch=4 n=f4 v=75
1500 On ch=4 n=g#4 v=75
1560 On ch=4 n=g#4 v=0
1560 On ch=4 n=f4 v=0
1560 Par ch=4 c=64 v=127
1560 On ch=4 n=c4 v=75
1560 On ch=4 n=g#4 v=75
1560 On ch=4 n=c5 v=75
1566 On ch=4 n=c5 v=0
1566 On ch=4 n=g#4 v=0
1566 On ch=4 n=c4 v=0
1620 On ch=4 n=d#4 v=91
1620 On ch=4 n=g#4 v=96
1620 On ch=4 n=c5 v=101
1680 On ch=4 n=c5 v=0
1680 On ch=4 n=g#4 v=0
1680 On ch=4 n=d#4 v=0
1680 On ch=4 n=c3 v=75
1686 On ch=4 n=c3 v=0
1740 On ch=4 n=d#4 v=91
1740 On ch=4 n=g#4 v=96
1740 On ch=4 n=c5 v=101
1800 On ch=4 n=c5 v=0
1800 On ch=4 n=g#4 v=0
1800 On ch=4 n=d#4 v=0
1800 On ch=4 n=c3 v=75
1806 On ch=4 n=c3 v=0
1860 On ch=4 n=d#4 v=75
1860 On ch=4 n=g#4 v=75
1920 On ch=4 n=g#4 v=0
1920 On ch=4 n=d#4 v=0
1920 On ch=4 n=c4 v=75
1920 On ch=4 n=g#4 v=75
1980 On ch=4 n=g#4 v=0
1980 On ch=4 n=c4 v=0
1980 Par ch=4 c=64 v=0
1980 On ch=4 n=d#4 v=75
1980 On ch=4 n=g#4 v=75
2040 On ch=4 n=g#4 v=0
2040 On ch=4 n=d#4 v=0
2040 On ch=4 n=a#3 v=75
2040 On ch=4 n=g4 v=75
2100 On ch=4 n=g4 v=0
2100 On ch=4 n=a#3 v=0
2100 On ch=4 n=g#3 v=75
2100 On ch=4 n=d#4 v=75
2160 On ch=4 n=d#4 v=0
2160 On ch=4 n=g#3 v=0
2160 On ch=4 n=g3 v=75
2160 On ch=4 n=d#4 v=75
2220 On ch=4 n=d#4 v=0
2220 On ch=4 n=g3 v=0
2220 On ch=4 n=a#3 v=75
2220 On ch=4 n=d#4 v=75
2280 On ch=4 n=d#4 v=0
2280 On ch=4 n=a#3 v=0
2280 On ch=4 n=d#3 v=75
2340 On ch=4 n=d#3 v=0
2340 On ch=4 n=d#4 v=75
2400 On ch=4 n=d#4 v=0
2460 On ch=4 n=d#4 v=75
2520 On ch=4 n=d#4 v=0
3060 Par ch=4 c=64 v=127
3060 On ch=4 n=c#4 v=88
3060 On ch=4 n=g#4 v=88
3060 On ch=4 n=f5 v=88
3120 On ch=4 n=f5 v=0
3120 On ch=4 n=g#4 v=0
3120 On ch=4 n=c#4 v=0
3120 On ch=4 n=g#4 v=104
3120 On ch=4 n=c#5 v=109
3120 On ch=4 n=f5 v=114
3180 On ch=4 n=f5 v=0
3180 On ch=4 n=c#5 v=0
3180 On ch=4 n=g#4 v=0
3180 On ch=4 n=c#3 v=88
3180 On ch=4 n=g#3 v=88
3180 On ch=4 n=c#4 v=88
3186 On ch=4 n=c#4 v=0
3186 On ch=4 n=g#3 v=0
3186 On ch=4 n=c#3 v=0
3240 On ch=4 n=g#4 v=104
3240 On ch=4 n=c#5 v=109
3240 On ch=4 n=f5 v=114
3300 On ch=4 n=f5 v=0
3300 On ch=4 n=c#5 v=0
3300 On ch=4 n=g#4 v=0
3300 On ch=4 n=c#3 v=88
3300 On ch=4 n=g#3 v=88
3300 On ch=4 n=c#4 v=88
3306 On ch=4 n=c#4 v=0
3306 On ch=4 n=g#3 v=0
3306 On ch=4 n=c#3 v=0
3360 On ch=4 n=g#4 v=88
3420 On ch=4 n=g#4 v=0
3420 On ch=4 n=g#4 v=88
3480 On ch=4 n=g#4 v=0
3480 Par ch=4 c=64 v=0
3480 On ch=4 n=c#4 v=88
3486 On ch=4 n=c#4 v=0
3520 On ch=4 n=b3 v=88
3530 On ch=4 n=f#4 v=88
3540 Par ch=4 c=64 v=127
3540 On ch=4 n=d#5 v=88
3546 On ch=4 n=d#5 v=0
3546 On ch=4 n=f#4 v=0
3546 On ch=4 n=b3 v=0
3600 On ch=4 n=f#4 v=104
3600 On ch=4 n=b4 v=109
3600 On ch=4 n=d#5 v=114
3660 On ch=4 n=d#5 v=0
3660 On ch=4 n=b4 v=0
3660 On ch=4 n=f#4 v=0
3660 On ch=4 n=b2 v=88
3660 On ch=4 n=f#3 v=88
3660 On ch=4 n=b3 v=88
3666 On ch=4 n=b3 v=0
3666 On ch=4 n=f#3 v=0
3666 On ch=4 n=b2 v=0
3720 On ch=4 n=f#4 v=104
3720 On ch=4 n=b4 v=109
3720 On ch=4 n=d#5 v=114
3780 On ch=4 n=d#5 v=0
3780 On ch=4 n=b4 v=0
3780 On ch=4 n=f#4 v=0
3780 On ch=4 n=b2 v=88
3780 On ch=4 n=f#3 v=88
3780 On ch=4 n=b3 v=88
3786 On ch=4 n=b3 v=0
3786 On ch=4 n=f#3 v=0
3786 On ch=4 n=b2 v=0
3840 On ch=4 n=f#4 v=88
3900 On ch=4 n=f#4 v=0
3900 On ch=4 n=f#4 v=88
3960 On ch=4 n=f#4 v=0
3960 Par ch=4 c=64 v=0
3960 On ch=4 n=b3 v=88
3966 On ch=4 n=b3 v=0
4080 On ch=4 n=g#3 v=88
4080 On ch=4 n=d#4 v=88
4140 On ch=4 n=d#4 v=0
4140 On ch=4 n=g#3 v=0
4140 On ch=4 n=g3 v=88
4200 On ch=4 n=g3 v=0
4200 On ch=4 n=a#3 v=88
4260 On ch=4 n=a#3 v=0
4260 On ch=4 n=d#3 v=88
4320 On ch=4 n=d#3 v=0
4320 On ch=4 n=d#4 v=88
4380 On ch=4 n=d#4 v=0
4440 On ch=4 n=d#4 v=88
4500 On ch=4 n=d#4 v=0
5370 On ch=4 n=c#4 v=88
5430 On ch=4 n=c#4 v=0
5430 On ch=4 n=d#4 v=88
5441 On ch=4 n=f4 v=88
5442 On ch=4 n=d#4 v=0
5453 On ch=4 n=f4 v=0
5454 On ch=4 n=d#4 v=88
5465 On ch=4 n=c#4 v=88
5466 On ch=4 n=d#4 v=0
5477 On ch=4 n=c#4 v=0
5478 On ch=4 n=d#4 v=88
5490 On ch=4 n=d#4 v=0
5497 On ch=4 n=f3 v=62
5505 On ch=4 n=c4 v=62
5512 On ch=4 n=f4 v=62
5520 On ch=4 n=a4 v=62
5580 On ch=4 n=a4 v=0
5580 On ch=4 n=f3 v=0
5580 On ch=4 n=c4 v=0
5580 On ch=4 n=f4 v=0
5580 On ch=4 n=c5 v=62
5580 On ch=4 n=f5 v=62
5580 On ch=4 n=a5 v=62
5640 On ch=4 n=a5 v=0
5640 On ch=4 n=f5 v=0
5640 On ch=4 n=c5 v=0
5640 On ch=4 n=f3 v=62
5640 On ch=4 n=c4 v=62
5640 On ch=4 n=a4 v=62
5700 On ch=4 n=a4 v=0
5700 On ch=4 n=c4 v=0
5700 On ch=4 n=f3 v=0
5700 On ch=4 n=a#3 v=62
5700 On ch=4 n=f4 v=62
5700 On ch=4 n=d5 v=62
5760 On ch=4 n=d5 v=0
5760 On ch=4 n=f4 v=0
5760 On ch=4 n=a#3 v=0
5760 On ch=4 n=c4 v=62
5760 On ch=4 n=f4 v=62
5760 On ch=4 n=a4 v=62
5760 On ch=4 n=c5 v=62
5820 On ch=4 n=c5 v=0
5820 On ch=4 n=c4 v=0
5820 On ch=4 n=f4 v=0
5820 On ch=4 n=a4 v=0
5820 On ch=4 n=c4 v=62
5820 On ch=4 n=e4 v=62
5820 On ch=4 n=a#4 v=62
5820 On ch=4 n=c5 v=62
5880 On ch=4 n=c5 v=0
5880 On ch=4 n=c4 v=0
5880 On ch=4 n=e4 v=0
5880 On ch=4 n=a#4 v=0
5880 On ch=4 n=f4 v=62
5880 On ch=4 n=a4 v=62
5880 On ch=4 n=c5 v=62
5940 On ch=4 n=c5 v=0
5940 On ch=4 n=a4 v=0
5940 On ch=4 n=f4 v=0
5940 On ch=4 n=f2 v=75
5940 On ch=4 n=f3 v=75
5944 On ch=4 n=f3 v=0
5944 On ch=4 n=f2 v=0
5970 On ch=4 n=f#2 v=75
5970 On ch=4 n=f#3 v=75
5974 On ch=4 n=f#3 v=0
5974 On ch=4 n=f#2 v=0
6000 On ch=4 n=g#2 v=75
6000 On ch=4 n=g#3 v=75
6006 On ch=4 n=g#3 v=0
6006 On ch=4 n=g#2 v=0
6060 On ch=4 n=g#2 v=75
6060 On ch=4 n=c3 v=75
6060 On ch=4 n=g#3 v=75
6064 On ch=4 n=g#3 v=0
6064 On ch=4 n=c3 v=0
6064 On ch=4 n=g#2 v=0
6090 On ch=4 n=a#2 v=75
6090 On ch=4 n=c#3 v=75
6090 On ch=4 n=a#3 v=75
6094 On ch=4 n=a#3 v=0
6094 On ch=4 n=c#3 v=0
6094 On ch=4 n=a#2 v=0
6120 On ch=4 n=c3 v=75
6120 On ch=4 n=d#3 v=75
6120 On ch=4 n=c4 v=75
6126 On ch=4 n=c4 v=0
6126 On ch=4 n=d#3 v=0
6126 On ch=4 n=c3 v=0
6180 On ch=4 n=c3 v=75
6180 On ch=4 n=d#3 v=75
6180 On ch=4 n=c4 v=75
6184 On ch=4 n=c4 v=0
6184 On ch=4 n=d#3 v=0
6184 On ch=4 n=c3 v=0
6210 On ch=4 n=c#3 v=75
6210 On ch=4 n=f3 v=75
6210 On ch=4 n=c#4 v=75
6214 On ch=4 n=c#4 v=0
6214 On ch=4 n=f3 v=0
6214 On ch=4 n=c#3 v=0
6240 On ch=4 n=d#3 v=75
6240 On ch=4 n=f#3 v=75
6240 On ch=4 n=d#4 v=75
6300 On ch=4 n=d#4 v=0
6300 On ch=4 n=f#3 v=0
6300 On ch=4 n=d#3 v=0
6300 On ch=4 n=g#3 v=75
6360 On ch=4 n=g#3 v=0
6420 On ch=4 n=g#3 v=75
6480 On ch=4 n=g#3 v=0
6510 On ch=4 n=c#4 v=49
6516 On ch=4 n=c#4 v=0
6570 On ch=4 n=c#5 v=49
6570 On ch=4 n=f5 v=49
6630 On ch=4 n=f5 v=0
6630 On ch=4 n=c#5 v=0
6630 On ch=4 n=g#3 v=49
6636 On ch=4 n=g#3 v=0
6690 On ch=4 n=g#4 v=49
6690 On ch=4 n=d#5 v=49
6690 On ch=4 n=f#5 v=49
6750 On ch=4 n=f#5 v=0
6750 On ch=4 n=d#5 v=0
6750 On ch=4 n=g#4 v=0
7350 On ch=4 n=c#4 v=49
7410 On ch=4 n=c#4 v=0
7410 On ch=4 n=d#4 v=49
7421 On ch=4 n=f4 v=49
7422 On ch=4 n=d#4 v=0
7433 On ch=4 n=f4 v=0
7434 On ch=4 n=d#4 v=49
7445 On ch=4 n=c#4 v=49
7446 On ch=4 n=d#4 v=0
7457 On ch=4 n=c#4 v=0
7458 On ch=4 n=d#4 v=49
7470 On ch=4 n=d#4 v=0
7477 On ch=4 n=f3 v=75
7485 On ch=4 n=c4 v=75
7492 On ch=4 n=f4 v=75
7500 On ch=4 n=a4 v=75
7560 On ch=4 n=a4 v=0
7560 On ch=4 n=f3 v=0
7560 On ch=4 n=c4 v=0
7560 On ch=4 n=f4 v=0
7560 On ch=4 n=c5 v=75
7560 On ch=4 n=f5 v=75
7560 On ch=4 n=a5 v=75
7600 On ch=4 n=f3 v=75
7610 On ch=4 n=c4 v=75
7620 On ch=4 n=a5 v=0
7620 On ch=4 n=c5 v=0
7620 On ch=4 n=f5 v=0
7620 On ch=4 n=a4 v=75
7680 On ch=4 n=a4 v=0
7680 On ch=4 n=f3 v=0
7680 On ch=4 n=c4 v=0
7680 On ch=4 n=a#3 v=75
7680 On ch=4 n=f4 v=75
7680 On ch=4 n=d5 v=75
7740 On ch=4 n=d5 v=0
7740 On ch=4 n=f4 v=0
7740 On ch=4 n=a#3 v=0
8280 On ch=4 n=c4 v=49
8280 On ch=4 n=d#4 v=49
8284 On ch=4 n=d#4 v=0
8284 On ch=4 n=c4 v=0
8310 On ch=4 n=c#4 v=49
8310 On ch=4 n=f4 v=49
8314 On ch=4 n=f4 v=0
8314 On ch=4 n=c#4 v=0
8340 On ch=4 n=d#4 v=62
8340 On ch=4 n=f#4 v=62
8344 On ch=4 n=f#4 v=0
8344 On ch=4 n=d#4 v=0
8370 On ch=4 n=f4 v=62
8370 On ch=4 n=g#4 v=62
8374 On ch=4 n=g#4 v=0
8374 On ch=4 n=f4 v=0
8400 On ch=4 n=f#4 v=75
8400 On ch=4 n=a#4 v=75
8404 On ch=4 n=a#4 v=0
8404 On ch=4 n=f#4 v=0
8430 On ch=4 n=d#4 v=75
8430 On ch=4 n=c5 v=75
8434 On ch=4 n=c5 v=0
8434 On ch=4 n=d#4 v=0
14970 On ch=4 n=a#4 v=93
14970 On ch=4 n=a#5 v=101
15090 On ch=4 n=a#5 v=0
15090 On ch=4 n=a#4 v=0
15090 On ch=4 n=a#4 v=75
15090 On ch=4 n=a#5 v=75
15096 On ch=4 n=a#5 v=0
15096 On ch=4 n=a#4 v=0
15150 On ch=4 n=g#4 v=75
15150 On ch=4 n=g#5 v=75
15156 On ch=4 n=g#5 v=0
15156 On ch=4 n=g#4 v=0
15210 On ch=4 n=g4 v=75
15210 On ch=4 n=g5 v=75
15222 On ch=4 n=g5 v=0
15222 On ch=4 n=g4 v=0
15330 On ch=4 n=g#4 v=75
15330 On ch=4 n=g#5 v=75
15342 On ch=4 n=g#5 v=0
15342 On ch=4 n=g#4 v=0
15450 On ch=4 n=f#4 v=93
15450 On ch=4 n=f#5 v=101
15570 On ch=4 n=f#5 v=0
15570 On ch=4 n=f#4 v=0
15570 On ch=4 n=f#4 v=75
15570 On ch=4 n=f#5 v=75
15576 On ch=4 n=f#5 v=0
15576 On ch=4 n=f#4 v=0
15630 On ch=4 n=f4 v=75
15630 On ch=4 n=f5 v=75
15636 On ch=4 n=f5 v=0
15636 On ch=4 n=f4 v=0
15690 On ch=4 n=d#4 v=75
15690 On ch=4 n=d#5 v=75
15702 On ch=4 n=d#5 v=0
15702 On ch=4 n=d#4 v=0
15810 On ch=4 n=c#4 v=75
15810 On ch=4 n=c#5 v=75
15822 On ch=4 n=c#5 v=0
15822 On ch=4 n=c#4 v=0
16890 On ch=4 n=a#5 v=93
16890 On ch=4 n=a#6 v=101
17010 On ch=4 n=a#6 v=0
17010 On ch=4 n=a#5 v=0
17010 On ch=4 n=a#5 v=75
17010 On ch=4 n=a#6 v=75
17016 On ch=4 n=a#6 v=0
17016 On ch=4 n=a#5 v=0
17070 On ch=4 n=g#5 v=75
17070 On ch=4 n=g#6 v=75
17076 On ch=4 n=g#6 v=0
17076 On ch=4 n=g#5 v=0
17130 On ch=4 n=g5 v=75
17130 On ch=4 n=g6 v=75
17142 On ch=4 n=g6 v=0
17142 On ch=4 n=g5 v=0
17250 On ch=4 n=g#5 v=75
17250 On ch=4 n=g#6 v=75
17262 On ch=4 n=g#6 v=0
17262 On ch=4 n=g#5 v=0
17370 On ch=4 n=f#5 v=93
17370 On ch=4 n=f#6 v=101
17490 On ch=4 n=f#6 v=0
17490 On ch=4 n=f#5 v=0
17490 On ch=4 n=f#5 v=75
17490 On ch=4 n=f#6 v=75
17496 On ch=4 n=f#6 v=0
17496 On ch=4 n=f#5 v=0
17550 On ch=4 n=f5 v=75
17550 On ch=4 n=f6 v=75
17556 On ch=4 n=f6 v=0
17556 On ch=4 n=f5 v=0
17610 On ch=4 n=d#5 v=75
17610 On ch=4 n=d#6 v=75
17622 On ch=4 n=d#6 v=0
17622 On ch=4 n=d#5 v=0
17730 On ch=4 n=c#5 v=75
17730 On ch=4 n=c#6 v=75
17742 On ch=4 n=c#6 v=0
17742 On ch=4 n=c#5 v=0
22650 On ch=4 n=a#4 v=93
22650 On ch=4 n=a#5 v=101
22770 On ch=4 n=a#5 v=0
22770 On ch=4 n=a#4 v=0
22770 On ch=4 n=a#4 v=75
22770 On ch=4 n=a#5 v=75
22776 On ch=4 n=a#5 v=0
22776 On ch=4 n=a#4 v=0
22830 On ch=4 n=g#4 v=75
22830 On ch=4 n=g#5 v=75
22836 On ch=4 n=g#5 v=0
22836 On ch=4 n=g#4 v=0
22890 On ch=4 n=g4 v=75
22890 On ch=4 n=g5 v=75
22902 On ch=4 n=g5 v=0
22902 On ch=4 n=g4 v=0
23010 On ch=4 n=g#4 v=75
23010 On ch=4 n=g#5 v=75
23022 On ch=4 n=g#5 v=0
23022 On ch=4 n=g#4 v=0
23130 On ch=4 n=f#4 v=93
23130 On ch=4 n=f#5 v=101
23250 On ch=4 n=f#5 v=0
23250 On ch=4 n=f#4 v=0
23250 On ch=4 n=f#4 v=75
23250 On ch=4 n=f#5 v=75
23256 On ch=4 n=f#5 v=0
23256 On ch=4 n=f#4 v=0
23310 On ch=4 n=f4 v=75
23310 On ch=4 n=f5 v=75
23316 On ch=4 n=f5 v=0
23316 On ch=4 n=f4 v=0
23370 On ch=4 n=d#4 v=75
23370 On ch=4 n=d#5 v=75
23382 On ch=4 n=d#5 v=0
23382 On ch=4 n=d#4 v=0
23490 On ch=4 n=c#4 v=75
23490 On ch=4 n=c#5 v=75
23502 On ch=4 n=c#5 v=0
23502 On ch=4 n=c#4 v=0
24570 On ch=4 n=a#5 v=93
24570 On ch=4 n=a#6 v=101
24690 On ch=4 n=a#6 v=0
24690 On ch=4 n=a#5 v=0
24690 On ch=4 n=a#5 v=75
24690 On ch=4 n=a#6 v=75
24696 On ch=4 n=a#6 v=0
24696 On ch=4 n=a#5 v=0
24750 On ch=4 n=g#5 v=75
24750 On ch=4 n=g#6 v=75
24756 On ch=4 n=g#6 v=0
24756 On ch=4 n=g#5 v=0
24810 On ch=4 n=g5 v=75
24810 On ch=4 n=g6 v=75
24822 On ch=4 n=g6 v=0
24822 On ch=4 n=g5 v=0
24930 On ch=4 n=g#5 v=75
24930 On ch=4 n=g#6 v=75
24942 On ch=4 n=g#6 v=0
24942 On ch=4 n=g#5 v=0
25050 On ch=4 n=f#5 v=93
25050 On ch=4 n=f#6 v=101
25170 On ch=4 n=f#6 v=0
25170 On ch=4 n=f#5 v=0
25170 On ch=4 n=f#5 v=75
25170 On ch=4 n=f#6 v=75
25176 On ch=4 n=f#6 v=0
25176 On ch=4 n=f#5 v=0
25230 On ch=4 n=f5 v=75
25230 On ch=4 n=f6 v=75
25236 On ch=4 n=f6 v=0
25236 On ch=4 n=f5 v=0
25290 On ch=4 n=d#5 v=75
25290 On ch=4 n=d#6 v=75
25302 On ch=4 n=d#6 v=0
25302 On ch=4 n=d#5 v=0
25410 On ch=4 n=c#5 v=75
25410 On ch=4 n=c#6 v=75
25422 On ch=4 n=c#6 v=0
25422 On ch=4 n=c#5 v=0
26970 On ch=4 n=a#2 v=62
27015 On ch=4 n=f4 v=62
27015 On ch=4 n=c#5 v=62
27015 On ch=4 n=f5 v=62
27030 On ch=4 n=f5 v=0
27030 On ch=4 n=a#2 v=0
27030 On ch=4 n=f4 v=0
27030 On ch=4 n=c#5 v=0
27030 On ch=4 n=f4 v=62
27030 On ch=4 n=c#5 v=62
27030 On ch=4 n=f5 v=62
27150 On ch=4 n=f5 v=0
27150 On ch=4 n=c#5 v=0
27150 On ch=4 n=f4 v=0
27420 On ch=4 n=a#2 v=62
27480 On ch=4 n=a#2 v=0
27810 On ch=4 n=f3 v=62
27870 On ch=4 n=f3 v=0
28290 On ch=4 n=g#3 v=62
28350 On ch=4 n=g#3 v=0
28620 On ch=4 n=g#3 v=62
28680 On ch=4 n=g#3 v=0
29010 On ch=4 n=c#3 v=62
29070 On ch=4 n=c#3 v=0
29520 On ch=4 n=d#4 v=36
29520 On ch=4 n=a4 v=36
29520 On ch=4 n=c5 v=36
29640 On ch=4 n=c5 v=0
29640 On ch=4 n=a4 v=0
29640 On ch=4 n=d#4 v=0
29700 On ch=4 n=a#3 v=36
29700 On ch=4 n=e4 v=36
29700 On ch=4 n=g4 v=36
29820 On ch=4 n=g4 v=0
29820 On ch=4 n=e4 v=0
29820 On ch=4 n=a#3 v=0
29910 On ch=4 n=g3 v=62
29970 On ch=4 n=g3 v=0
29970 On ch=4 n=f#3 v=62
30030 On ch=4 n=f#3 v=0
30180 On ch=4 n=f3 v=75
30300 On ch=4 n=f3 v=0
30540 On ch=4 n=c#3 v=75
30600 On ch=4 n=c#3 v=0
30990 On ch=4 n=f3 v=75
31050 On ch=4 n=f3 v=0
31260 On ch=4 n=a#3 v=62
31320 On ch=4 n=a#3 v=0
31800 On ch=4 n=a#2 v=75
31800 On ch=4 n=a#3 v=75
31845 On ch=4 n=f4 v=75
31845 On ch=4 n=c#5 v=75
31845 On ch=4 n=f5 v=75
31860 On ch=4 n=f5 v=0
31860 On ch=4 n=f4 v=0
31860 On ch=4 n=a#2 v=0
31860 On ch=4 n=a#3 v=0
31860 On ch=4 n=c#5 v=0
31860 On ch=4 n=f4 v=75
31860 On ch=4 n=c#5 v=75
31860 On ch=4 n=f5 v=75
31980 On ch=4 n=f5 v=0
31980 On ch=4 n=c#5 v=0
31980 On ch=4 n=f4 v=0
32040 On ch=4 n=a#2 v=75
32040 On ch=4 n=a#3 v=75
32085 On ch=4 n=f4 v=75
32085 On ch=4 n=a#4 v=75
32085 On ch=4 n=c#5 v=75
32085 On ch=4 n=f5 v=75
32100 On ch=4 n=f5 v=0
32100 On ch=4 n=a#3 v=0
32100 On ch=4 n=f4 v=0
32100 On ch=4 n=a#2 v=0
32100 On ch=4 n=c#5 v=0
32100 On ch=4 n=a#4 v=0
32100 On ch=4 n=f4 v=75
32100 On ch=4 n=a#4 v=75
32100 On ch=4 n=c#5 v=75
32100 On ch=4 n=f5 v=75
32220 On ch=4 n=f5 v=0
32220 On ch=4 n=f4 v=0
32220 On ch=4 n=a#4 v=0
32220 On ch=4 n=c#5 v=0
32280 On ch=4 n=f2 v=75
32280 On ch=4 n=f3 v=75
32340 On ch=4 n=f3 v=0
32340 On ch=4 n=f2 v=0
32760 On ch=4 n=g#2 v=75
32760 On ch=4 n=g#3 v=75
32820 On ch=4 n=g#3 v=0
32820 On ch=4 n=g#2 v=0
32880 On ch=4 n=b4 v=88
32880 On ch=4 n=d5 v=88
32910 On ch=4 n=d5 v=0
32910 On ch=4 n=b4 v=0
32910 On ch=4 n=c5 v=88
32910 On ch=4 n=d#5 v=88
33000 On ch=4 n=d#5 v=0
33000 On ch=4 n=c5 v=0
33090 On ch=4 n=g#2 v=88
33090 On ch=4 n=g#3 v=88
33150 On ch=4 n=g#3 v=0
33150 On ch=4 n=g#2 v=0
33210 On ch=4 n=b4 v=88
33210 On ch=4 n=d5 v=88
33240 On ch=4 n=d5 v=0
33240 On ch=4 n=b4 v=0
33240 On ch=4 n=c5 v=88
33240 On ch=4 n=d#5 v=88
33330 On ch=4 n=d#5 v=0
33330 On ch=4 n=c5 v=0
33420 On ch=4 n=c#3 v=88
33420 On ch=4 n=c#4 v=88
33480 On ch=4 n=c#4 v=0
33480 On ch=4 n=c#3 v=0
35310 On ch=4 n=g4 v=88
35430 On ch=4 n=g4 v=0
35430 On ch=4 n=f#4 v=88
35490 On ch=4 n=f#4 v=0
35640 On ch=4 n=f4 v=36
35640 On ch=4 n=a4 v=36
35880 On ch=4 n=a4 v=0
35880 On ch=4 n=f4 v=0
36225 On ch=4 n=c#4 v=62
36225 On ch=4 n=a#4 v=62
36240 On ch=4 n=a#4 v=0
36240 On ch=4 n=c#4 v=0
36240 On ch=4 n=c#4 v=62
36240 On ch=4 n=a#4 v=62
36300 On ch=4 n=a#4 v=0
36300 On ch=4 n=c#4 v=0
36465 On ch=4 n=f3 v=62
36465 On ch=4 n=a4 v=62
36480 On ch=4 n=a4 v=0
36480 On ch=4 n=f3 v=0
36480 On ch=4 n=f3 v=62
36480 On ch=4 n=a4 v=62
36540 On ch=4 n=a4 v=0
36540 On ch=4 n=f3 v=0
36705 On ch=4 n=a#3 v=62
36705 On ch=4 n=f4 v=62
36720 On ch=4 n=f4 v=0
36720 On ch=4 n=a#3 v=0
36720 On ch=4 n=a#3 v=62
36720 On ch=4 n=f4 v=62
36780 On ch=4 n=f4 v=0
36780 On ch=4 n=a#3 v=0
37230 On ch=4 n=f3 v=62
37245 On ch=4 n=f3 v=0
37260 On ch=4 n=f#3 v=62
37350 On ch=4 n=f#3 v=0
37350 On ch=4 n=f3 v=62
37365 On ch=4 n=f3 v=0
37365 On ch=4 n=d#3 v=62
37380 On ch=4 n=d#3 v=0
37380 On ch=4 n=c#3 v=62
37455 On ch=4 n=c#3 v=0
37455 On ch=4 n=a#2 v=62
37470 On ch=4 n=a#2 v=0
37470 On ch=4 n=a#2 v=62
37485 On ch=4 n=a#2 v=0
37485 On ch=4 n=c3 v=62
37500 On ch=4 n=c3 v=0
37500 On ch=4 n=c#3 v=62
37590 On ch=4 n=c#3 v=0
37590 On ch=4 n=c3 v=62
37620 On ch=4 n=c3 v=0
37620 On ch=4 n=d#3 v=62
37650 On ch=4 n=d#3 v=0
37650 On ch=4 n=c#3 v=62
37695 On ch=4 n=c#3 v=0
37695 On ch=4 n=c3 v=62
37710 On ch=4 n=c3 v=0
37710 On ch=4 n=c3 v=62
37770 On ch=4 n=c3 v=0
37770 On ch=4 n=f3 v=62
37800 On ch=4 n=f3 v=0
37800 On ch=4 n=f3 v=62
38040 On ch=4 n=f3 v=0
38340 On ch=4 n=c#3 v=62
38400 On ch=4 n=c#3 v=0
38580 On ch=4 n=e3 v=62
38640 On ch=4 n=e3 v=0
38820 Par ch=4 c=64 v=127
38820 On ch=4 n=f3 v=62
38865 On ch=4 n=a4 v=62
38865 On ch=4 n=d#5 v=62
38865 On ch=4 n=f#5 v=62
38880 On ch=4 n=f#5 v=0
38880 On ch=4 n=f3 v=0
38880 On ch=4 n=a4 v=0
38880 On ch=4 n=d#5 v=0
38880 On ch=4 n=a4 v=62
38880 On ch=4 n=d#5 v=62
38880 On ch=4 n=f#5 v=62
39000 On ch=4 n=f#5 v=0
39000 On ch=4 n=d#5 v=0
39000 On ch=4 n=a4 v=0
41100 Par ch=4 c=64 v=0
42210 On ch=4 n=a#3 v=49
42216 On ch=4 n=a#3 v=0
42270 On ch=4 n=a#4 v=49
42270 On ch=4 n=d5 v=49
42276 On ch=4 n=d5 v=0
42276 On ch=4 n=a#4 v=0
42330 On ch=4 n=f4 v=49
42336 On ch=4 n=f4 v=0
42390 On ch=4 n=a#4 v=49
42390 On ch=4 n=d5 v=49
42396 On ch=4 n=d5 v=0
42396 On ch=4 n=a#4 v=0
42450 On ch=4 n=a#3 v=49
42456 On ch=4 n=a#3 v=0
42510 On ch=4 n=a4 v=49
42510 On ch=4 n=d#5 v=49
42516 On ch=4 n=d#5 v=0
42516 On ch=4 n=a4 v=0
42570 On ch=4 n=f4 v=49
42576 On ch=4 n=f4 v=0
42630 On ch=4 n=a4 v=49
42630 On ch=4 n=d#5 v=49
42636 On ch=4 n=d#5 v=0
42636 On ch=4 n=a4 v=0
42690 On ch=4 n=a#3 v=49
42696 On ch=4 n=a#3 v=0
42750 On ch=4 n=a4 v=49
42750 On ch=4 n=d#5 v=49
42756 On ch=4 n=d#5 v=0
42756 On ch=4 n=a4 v=0
42810 On ch=4 n=f4 v=49
42816 On ch=4 n=f4 v=0
42870 On ch=4 n=a4 v=49
42870 On ch=4 n=d#5 v=49
42876 On ch=4 n=d#5 v=0
42876 On ch=4 n=a4 v=0
42930 On ch=4 n=a#3 v=49
42936 On ch=4 n=a#3 v=0
42990 On ch=4 n=a#4 v=49
42990 On ch=4 n=d5 v=49
42996 On ch=4 n=d5 v=0
42996 On ch=4 n=a#4 v=0
43050 On ch=4 n=f4 v=49
43056 On ch=4 n=f4 v=0
43110 On ch=4 n=a#4 v=49
43110 On ch=4 n=d5 v=49
43116 On ch=4 n=d5 v=0
43116 On ch=4 n=a#4 v=0
43170 On ch=4 n=a#3 v=49
43176 On ch=4 n=a#3 v=0
43230 On ch=4 n=a#4 v=49
43230 On ch=4 n=d5 v=49
43236 On ch=4 n=d5 v=0
43236 On ch=4 n=a#4 v=0
43290 On ch=4 n=f4 v=49
43296 On ch=4 n=f4 v=0
43350 On ch=4 n=a#4 v=49
43350 On ch=4 n=d5 v=49
43356 On ch=4 n=d5 v=0
43356 On ch=4 n=a#4 v=0
43410 On ch=4 n=a#3 v=49
43416 On ch=4 n=a#3 v=0
43470 On ch=4 n=a4 v=49
43470 On ch=4 n=d#5 v=49
43476 On ch=4 n=d#5 v=0
43476 On ch=4 n=a4 v=0
43530 On ch=4 n=f4 v=49
43536 On ch=4 n=f4 v=0
43590 On ch=4 n=a4 v=49
43590 On ch=4 n=d#5 v=49
43596 On ch=4 n=d#5 v=0
43596 On ch=4 n=a4 v=0
43650 On ch=4 n=a#3 v=49
43656 On ch=4 n=a#3 v=0
43710 On ch=4 n=a4 v=49
43710 On ch=4 n=d#5 v=49
43716 On ch=4 n=d#5 v=0
43716 On ch=4 n=a4 v=0
43770 On ch=4 n=f4 v=49
43776 On ch=4 n=f4 v=0
43830 On ch=4 n=a4 v=49
43830 On ch=4 n=d#5 v=49
43836 On ch=4 n=d#5 v=0
43836 On ch=4 n=a4 v=0
43890 On ch=4 n=a#3 v=49
43896 On ch=4 n=a#3 v=0
43950 On ch=4 n=a#4 v=49
43950 On ch=4 n=d5 v=49
43956 On ch=4 n=d5 v=0
43956 On ch=4 n=a#4 v=0
44010 On ch=4 n=f4 v=49
44016 On ch=4 n=f4 v=0
44070 On ch=4 n=a#4 v=49
44070 On ch=4 n=d5 v=49
44076 On ch=4 n=d5 v=0
44076 On ch=4 n=a#4 v=0
44130 Par ch=4 c=64 v=127
44130 On ch=4 n=a#3 v=49
44136 On ch=4 n=a#3 v=0
44190 On ch=4 n=a#4 v=49
44190 On ch=4 n=d5 v=49
44196 On ch=4 n=d5 v=0
44196 On ch=4 n=a#4 v=0
44250 On ch=4 n=f4 v=49
44256 On ch=4 n=f4 v=0
44310 Par ch=4 c=64 v=0
44310 On ch=4 n=a#4 v=49
44310 On ch=4 n=d5 v=49
44316 On ch=4 n=d5 v=0
44316 On ch=4 n=a#4 v=0
44370 Par ch=4 c=64 v=127
44370 On ch=4 n=a#3 v=49
44376 On ch=4 n=a#3 v=0
44430 On ch=4 n=a4 v=75
44490 On ch=4 n=a4 v=0
44490 On ch=4 n=f4 v=49
44550 On ch=4 n=f4 v=0
44550 On ch=4 n=a4 v=49
44610 On ch=4 n=a4 v=0
44610 On ch=4 n=a#3 v=49
44616 On ch=4 n=a#3 v=0
44670 On ch=4 n=a4 v=49
44670 On ch=4 n=d#5 v=49
44676 On ch=4 n=d#5 v=0
44676 On ch=4 n=a4 v=0
44730 On ch=4 n=f4 v=49
44736 On ch=4 n=f4 v=0
44790 Par ch=4 c=64 v=0
44790 On ch=4 n=a4 v=49
44790 On ch=4 n=d#5 v=49
44796 On ch=4 n=d#5 v=0
44796 On ch=4 n=a4 v=0
44850 Par ch=4 c=64 v=127
44850 On ch=4 n=a#3 v=49
44856 On ch=4 n=a#3 v=0
44910 On ch=4 n=a#4 v=75
44970 On ch=4 n=a#4 v=0
44970 On ch=4 n=f4 v=49
45030 On ch=4 n=f4 v=0
45030 On ch=4 n=a#4 v=49
45090 On ch=4 n=a#4 v=0
45090 On ch=4 n=a#3 v=49
45096 On ch=4 n=a#3 v=0
45150 On ch=4 n=a#4 v=49
45150 On ch=4 n=d5 v=49
45156 On ch=4 n=d5 v=0
45156 On ch=4 n=a#4 v=0
45210 On ch=4 n=f4 v=49
45216 On ch=4 n=f4 v=0
45270 Par ch=4 c=64 v=0
45270 On ch=4 n=a#4 v=49
45270 On ch=4 n=d5 v=49
45276 On ch=4 n=d5 v=0
45276 On ch=4 n=a#4 v=0
45330 Par ch=4 c=64 v=127
45330 On ch=4 n=a#3 v=49
45336 On ch=4 n=a#3 v=0
45390 On ch=4 n=a4 v=75
45450 On ch=4 n=a4 v=0
45450 On ch=4 n=f4 v=49
45510 On ch=4 n=f4 v=0
45510 On ch=4 n=a4 v=49
45570 On ch=4 n=a4 v=0
45570 On ch=4 n=a#3 v=49
45576 On ch=4 n=a#3 v=0
45630 On ch=4 n=a4 v=49
45630 On ch=4 n=d#5 v=49
45636 On ch=4 n=d#5 v=0
45636 On ch=4 n=a4 v=0
45690 On ch=4 n=f4 v=49
45696 On ch=4 n=f4 v=0
45750 Par ch=4 c=64 v=0
45750 On ch=4 n=a4 v=49
45750 On ch=4 n=d#5 v=49
45756 On ch=4 n=d#5 v=0
45756 On ch=4 n=a4 v=0
45810 Par ch=4 c=64 v=127
45810 On ch=4 n=a#3 v=49
45816 On ch=4 n=a#3 v=0
45870 On ch=4 n=a#4 v=75
45930 On ch=4 n=a#4 v=0
45930 On ch=4 n=f4 v=49
45990 On ch=4 n=f4 v=0
45990 Par ch=4 c=64 v=0
45990 On ch=4 n=a#4 v=49
46050 On ch=4 n=a#4 v=0
46050 Par ch=4 c=64 v=127
46050 On ch=4 n=a3 v=49
46056 On ch=4 n=a3 v=0
46110 On ch=4 n=a4 v=49
46110 On ch=4 n=d5 v=49
46116 On ch=4 n=d5 v=0
46116 On ch=4 n=a4 v=0
46170 On ch=4 n=f#4 v=49
46176 On ch=4 n=f#4 v=0
46230 Par ch=4 c=64 v=0
46230 On ch=4 n=a4 v=49
46230 On ch=4 n=d5 v=49
46236 On ch=4 n=d5 v=0
46236 On ch=4 n=a4 v=0
46290 Par ch=4 c=64 v=127
46290 On ch=4 n=a3 v=49
46296 On ch=4 n=a3 v=0
46350 On ch=4 n=a#4 v=67
46350 On ch=4 n=d5 v=75
46410 On ch=4 n=d5 v=0
46410 On ch=4 n=a#4 v=0
46410 On ch=4 n=g4 v=49
46470 On ch=4 n=g4 v=0
46470 Par ch=4 c=64 v=0
46470 On ch=4 n=a#4 v=49
46470 On ch=4 n=d5 v=49
46530 On ch=4 n=d5 v=0
46530 On ch=4 n=a#4 v=0
46530 Par ch=4 c=64 v=127
46530 On ch=4 n=a3 v=49
46536 On ch=4 n=a3 v=0
46590 On ch=4 n=a4 v=49
46590 On ch=4 n=c#5 v=49
46590 On ch=4 n=e5 v=49
46596 On ch=4 n=e5 v=0
46596 On ch=4 n=c#5 v=0
46596 On ch=4 n=a4 v=0
46650 On ch=4 n=g4 v=49
46656 On ch=4 n=g4 v=0
46710 Par ch=4 c=64 v=0
46710 On ch=4 n=a4 v=49
46710 On ch=4 n=c#5 v=49
46710 On ch=4 n=e5 v=49
46716 On ch=4 n=e5 v=0
46716 On ch=4 n=c#5 v=0
46716 On ch=4 n=a4 v=0
46770 Par ch=4 c=64 v=127
46770 On ch=4 n=a3 v=49
46776 On ch=4 n=a3 v=0
46830 On ch=4 n=a4 v=67
46830 On ch=4 n=d5 v=75
46890 On ch=4 n=d5 v=0
46890 On ch=4 n=a4 v=0
46890 On ch=4 n=f#4 v=49
46950 On ch=4 n=f#4 v=0
46950 Par ch=4 c=64 v=0
46950 On ch=4 n=a4 v=49
46950 On ch=4 n=d5 v=49
47010 On ch=4 n=d5 v=0
47010 On ch=4 n=a4 v=0
47010 Par ch=4 c=64 v=127
47010 On ch=4 n=a3 v=49
47016 On ch=4 n=a3 v=0
47070 On ch=4 n=d5 v=49
47070 On ch=4 n=f#5 v=49
47076 On ch=4 n=f#5 v=0
47076 On ch=4 n=d5 v=0
47130 On ch=4 n=f#4 v=49
47136 On ch=4 n=f#4 v=0
47190 Par ch=4 c=64 v=0
47190 On ch=4 n=d5 v=49
47190 On ch=4 n=f#5 v=49
47196 On ch=4 n=f#5 v=0
47196 On ch=4 n=d5 v=0
47250 Par ch=4 c=64 v=127
47250 On ch=4 n=a3 v=49
47256 On ch=4 n=a3 v=0
47310 On ch=4 n=a#4 v=67
47310 On ch=4 n=d5 v=75
47370 On ch=4 n=d5 v=0
47370 On ch=4 n=a#4 v=0
47370 On ch=4 n=g4 v=49
47430 On ch=4 n=g4 v=0
47430 Par ch=4 c=64 v=0
47430 On ch=4 n=a#4 v=49
47430 On ch=4 n=d5 v=49
47490 On ch=4 n=d5 v=0
47490 On ch=4 n=a#4 v=0
47490 Par ch=4 c=64 v=127
47490 On ch=4 n=a3 v=49
47496 On ch=4 n=a3 v=0
47550 On ch=4 n=a4 v=49
47550 On ch=4 n=c#5 v=49
47550 On ch=4 n=e5 v=49
47556 On ch=4 n=e5 v=0
47556 On ch=4 n=c#5 v=0
47556 On ch=4 n=a4 v=0
47610 On ch=4 n=g4 v=49
47616 On ch=4 n=g4 v=0
47670 Par ch=4 c=64 v=0
47670 On ch=4 n=a4 v=49
47670 On ch=4 n=c#5 v=49
47670 On ch=4 n=e5 v=49
47676 On ch=4 n=e5 v=0
47676 On ch=4 n=c#5 v=0
47676 On ch=4 n=a4 v=0
47730 On ch=4 n=d4 v=75
47970 On ch=4 n=d4 v=0
47970 On ch=4 n=b3 v=75
47970 On ch=4 n=f#4 v=75
48090 On ch=4 n=f#4 v=0
48090 On ch=4 n=b3 v=0
48090 On ch=4 n=a#3 v=62
48090 On ch=4 n=f4 v=62
48210 On ch=4 n=f4 v=0
48210 On ch=4 n=a#3 v=0
48210 On ch=4 n=d4 v=62
48450 On ch=4 n=d4 v=0
48450 On ch=4 n=b3 v=62
48450 On ch=4 n=f#4 v=62
48570 On ch=4 n=f#4 v=0
48570 On ch=4 n=b3 v=0
48570 On ch=4 n=a#3 v=62
48570 On ch=4 n=f4 v=62
48690 On ch=4 n=f4 v=0
48690 On ch=4 n=a#3 v=0
48690 On ch=4 n=d4 v=62
48930 On ch=4 n=d4 v=0
48930 On ch=4 n=b3 v=62
48930 On ch=4 n=f#4 v=62
49050 On ch=4 n=f#4 v=0
49050 On ch=4 n=b3 v=0
49050 On ch=4 n=a#3 v=62
49050 On ch=4 n=f4 v=62
49170 On ch=4 n=f4 v=0
49170 On ch=4 n=a#3 v=0
49170 On ch=4 n=b3 v=62
49170 On ch=4 n=f#4 v=62
49290 On ch=4 n=f#4 v=0
49290 On ch=4 n=b3 v=0
49290 On ch=4 n=a#3 v=62
49290 On ch=4 n=f4 v=62
49410 On ch=4 n=f4 v=0
49410 On ch=4 n=a#3 v=0
49410 On ch=4 n=b3 v=62
49410 On ch=4 n=f#4 v=62
49530 On ch=4 n=f#4 v=0
49530 On ch=4 n=b3 v=0
49530 On ch=4 n=a#3 v=36
49530 On ch=4 n=f4 v=36
49650 On ch=4 n=f4 v=0
49650 On ch=4 n=a#3 v=0
49650 Par ch=4 c=64 v=127
49650 On ch=4 n=a#3 v=49
49656 On ch=4 n=a#3 v=0
49710 On ch=4 n=a#4 v=49
49710 On ch=4 n=d5 v=49
49716 On ch=4 n=d5 v=0
49716 On ch=4 n=a#4 v=0
49770 On ch=4 n=f4 v=49
49776 On ch=4 n=f4 v=0
49830 Par ch=4 c=64 v=0
49830 On ch=4 n=a#4 v=49
49830 On ch=4 n=d5 v=49
49836 On ch=4 n=d5 v=0
49836 On ch=4 n=a#4 v=0
49890 Par ch=4 c=64 v=127
49890 On ch=4 n=a#3 v=49
49896 On ch=4 n=a#3 v=0
49950 On ch=4 n=a4 v=49
49950 On ch=4 n=d#5 v=49
49956 On ch=4 n=d#5 v=0
49956 On ch=4 n=a4 v=0
50010 On ch=4 n=f4 v=49
50016 On ch=4 n=f4 v=0
50070 On ch=4 n=a4 v=49
50070 On ch=4 n=d#5 v=49
50076 On ch=4 n=d#5 v=0
50076 On ch=4 n=a4 v=0
50130 On ch=4 n=a#3 v=49
50136 On ch=4 n=a#3 v=0
50190 On ch=4 n=a4 v=49
50190 On ch=4 n=d#5 v=49
50196 On ch=4 n=d#5 v=0
50196 On ch=4 n=a4 v=0
50250 On ch=4 n=f4 v=49
50256 On ch=4 n=f4 v=0
50310 Par ch=4 c=64 v=0
50310 On ch=4 n=a4 v=49
50310 On ch=4 n=d#5 v=49
50316 On ch=4 n=d#5 v=0
50316 On ch=4 n=a4 v=0
50370 Par ch=4 c=64 v=127
50370 On ch=4 n=a#3 v=49
50376 On ch=4 n=a#3 v=0
50430 On ch=4 n=a#4 v=49
50430 On ch=4 n=d5 v=49
50436 On ch=4 n=d5 v=0
50436 On ch=4 n=a#4 v=0
50490 On ch=4 n=f4 v=49
50496 On ch=4 n=f4 v=0
50550 On ch=4 n=a#4 v=49
50550 On ch=4 n=d5 v=49
50556 On ch=4 n=d5 v=0
50556 On ch=4 n=a#4 v=0
50610 On ch=4 n=a#3 v=49
50616 On ch=4 n=a#3 v=0
50670 On ch=4 n=a#4 v=49
50670 On ch=4 n=d5 v=49
50676 On ch=4 n=d5 v=0
50676 On ch=4 n=a#4 v=0
50730 On ch=4 n=f4 v=49
50736 On ch=4 n=f4 v=0
50790 Par ch=4 c=64 v=0
50790 On ch=4 n=a#4 v=49
50790 On ch=4 n=d5 v=49
50796 On ch=4 n=d5 v=0
50796 On ch=4 n=a#4 v=0
50850 Par ch=4 c=64 v=127
50850 On ch=4 n=a#3 v=49
50856 On ch=4 n=a#3 v=0
50910 On ch=4 n=a4 v=49
50910 On ch=4 n=d#5 v=49
50916 On ch=4 n=d#5 v=0
50916 On ch=4 n=a4 v=0
50970 On ch=4 n=f4 v=49
50976 On ch=4 n=f4 v=0
51030 On ch=4 n=a4 v=49
51030 On ch=4 n=d#5 v=49
51036 On ch=4 n=d#5 v=0
51036 On ch=4 n=a4 v=0
51090 On ch=4 n=a#3 v=49
51096 On ch=4 n=a#3 v=0
51150 On ch=4 n=a4 v=49
51150 On ch=4 n=d#5 v=49
51156 On ch=4 n=d#5 v=0
51156 On ch=4 n=a4 v=0
51210 On ch=4 n=f4 v=49
51216 On ch=4 n=f4 v=0
51270 Par ch=4 c=64 v=0
51270 On ch=4 n=a4 v=49
51270 On ch=4 n=d#5 v=49
51276 On ch=4 n=d#5 v=0
51276 On ch=4 n=a4 v=0
51330 Par ch=4 c=64 v=127
51330 On ch=4 n=a#3 v=49
51336 On ch=4 n=a#3 v=0
51390 On ch=4 n=a#4 v=49
51390 On ch=4 n=d5 v=49
51396 On ch=4 n=d5 v=0
51396 On ch=4 n=a#4 v=0
51450 On ch=4 n=f4 v=49
51456 On ch=4 n=f4 v=0
51510 On ch=4 n=a#4 v=49
51510 On ch=4 n=d5 v=49
51516 On ch=4 n=d5 v=0
51516 On ch=4 n=a#4 v=0
51570 On ch=4 n=a#3 v=49
51576 On ch=4 n=a#3 v=0
51630 On ch=4 n=a#4 v=49
51630 On ch=4 n=d5 v=49
51636 On ch=4 n=d5 v=0
51636 On ch=4 n=a#4 v=0
51690 On ch=4 n=f4 v=49
51696 On ch=4 n=f4 v=0
51750 Par ch=4 c=64 v=0
51750 On ch=4 n=a#4 v=49
51750 On ch=4 n=d5 v=49
51756 On ch=4 n=d5 v=0
51756 On ch=4 n=a#4 v=0
51810 Par ch=4 c=64 v=127
51810 On ch=4 n=a#3 v=49
51816 On ch=4 n=a#3 v=0
51870 On ch=4 n=a4 v=75
51930 On ch=4 n=a4 v=0
51930 On ch=4 n=f4 v=49
51990 On ch=4 n=f4 v=0
51990 On ch=4 n=a4 v=49
52050 On ch=4 n=a4 v=0
52050 On ch=4 n=a#3 v=49
52056 On ch=4 n=a#3 v=0
52110 On ch=4 n=a4 v=49
52110 On ch=4 n=d#5 v=49
52116 On ch=4 n=d#5 v=0
52116 On ch=4 n=a4 v=0
52170 On ch=4 n=f4 v=49
52176 On ch=4 n=f4 v=0
52230 Par ch=4 c=64 v=0
52230 On ch=4 n=a4 v=49
52230 On ch=4 n=d#5 v=49
52236 On ch=4 n=d#5 v=0
52236 On ch=4 n=a4 v=0
52290 Par ch=4 c=64 v=127
52290 On ch=4 n=a#3 v=49
52296 On ch=4 n=a#3 v=0
52350 On ch=4 n=a#4 v=75
52410 On ch=4 n=a#4 v=0
52410 On ch=4 n=f4 v=49
52470 On ch=4 n=f4 v=0
52470 On ch=4 n=a#4 v=49
52530 On ch=4 n=a#4 v=0
52530 On ch=4 n=a#3 v=49
52536 On ch=4 n=a#3 v=0
52590 On ch=4 n=a#4 v=49
52590 On ch=4 n=d5 v=49
52596 On ch=4 n=d5 v=0
52596 On ch=4 n=a#4 v=0
52650 On ch=4 n=f4 v=49
52656 On ch=4 n=f4 v=0
52710 Par ch=4 c=64 v=0
52710 On ch=4 n=a#4 v=49
52710 On ch=4 n=d5 v=49
52716 On ch=4 n=d5 v=0
52716 On ch=4 n=a#4 v=0
52770 Par ch=4 c=64 v=127
52770 On ch=4 n=a#3 v=49
52776 On ch=4 n=a#3 v=0
52830 On ch=4 n=a4 v=75
52890 On ch=4 n=a4 v=0
52890 On ch=4 n=f4 v=49
52950 On ch=4 n=f4 v=0
52950 On ch=4 n=a4 v=49
53010 On ch=4 n=a4 v=0
53010 On ch=4 n=a#3 v=49
53016 On ch=4 n=a#3 v=0
53070 On ch=4 n=a4 v=49
53070 On ch=4 n=d#5 v=49
53076 On ch=4 n=d#5 v=0
53076 On ch=4 n=a4 v=0
53130 On ch=4 n=f4 v=49
53136 On ch=4 n=f4 v=0
53190 Par ch=4 c=64 v=0
53190 On ch=4 n=a4 v=49
53190 On ch=4 n=d#5 v=49
53196 On ch=4 n=d#5 v=0
53196 On ch=4 n=a4 v=0
53250 Par ch=4 c=64 v=127
53250 On ch=4 n=a#3 v=49
53256 On ch=4 n=a#3 v=0
53310 On ch=4 n=a#4 v=75
53370 On ch=4 n=a#4 v=0
53370 On ch=4 n=f4 v=49
53430 On ch=4 n=f4 v=0
53430 Par ch=4 c=64 v=0
53430 On ch=4 n=a#4 v=49
53490 On ch=4 n=a#4 v=0
53490 Par ch=4 c=64 v=127
53490 On ch=4 n=a3 v=49
53496 On ch=4 n=a3 v=0
53550 On ch=4 n=a4 v=49
53550 On ch=4 n=d5 v=49
53556 On ch=4 n=d5 v=0
53556 On ch=4 n=a4 v=0
53610 On ch=4 n=f#4 v=49
53616 On ch=4 n=f#4 v=0
53670 Par ch=4 c=64 v=0
53670 On ch=4 n=a4 v=49
53670 On ch=4 n=d5 v=49
53676 On ch=4 n=d5 v=0
53676 On ch=4 n=a4 v=0
53730 Par ch=4 c=64 v=127
53730 On ch=4 n=a3 v=49
53736 On ch=4 n=a3 v=0
53790 On ch=4 n=g4 v=63
53790 On ch=4 n=a#4 v=67
53790 On ch=4 n=d5 v=71
53790 On ch=4 n=e5 v=75
53910 On ch=4 n=e5 v=0
53910 On ch=4 n=g4 v=0
53910 On ch=4 n=a#4 v=0
53910 On ch=4 n=d5 v=0
53910 Par ch=4 c=64 v=0
53910 On ch=4 n=g4 v=49
53910 On ch=4 n=a#4 v=49
53910 On ch=4 n=d5 v=49
53910 On ch=4 n=e5 v=49
53970 On ch=4 n=e5 v=0
53970 On ch=4 n=g4 v=0
53970 On ch=4 n=a#4 v=0
53970 On ch=4 n=d5 v=0
53970 Par ch=4 c=64 v=127
53970 On ch=4 n=a3 v=49
53976 On ch=4 n=a3 v=0
54030 On ch=4 n=c#5 v=49
54030 On ch=4 n=e5 v=49
54036 On ch=4 n=e5 v=0
54036 On ch=4 n=c#5 v=0
54090 On ch=4 n=g4 v=49
54096 On ch=4 n=g4 v=0
54150 Par ch=4 c=64 v=0
54150 On ch=4 n=c#5 v=49
54150 On ch=4 n=e5 v=49
54156 On ch=4 n=e5 v=0
54156 On ch=4 n=c#5 v=0
54210 Par ch=4 c=64 v=127
54210 On ch=4 n=a3 v=49
54216 On ch=4 n=a3 v=0
54270 On ch=4 n=a4 v=65
54270 On ch=4 n=d5 v=70
54270 On ch=4 n=f#5 v=75
54390 On ch=4 n=f#5 v=0
54390 On ch=4 n=d5 v=0
54390 On ch=4 n=a4 v=0
54390 On ch=4 n=a4 v=49
54390 On ch=4 n=d5 v=49
54390 On ch=4 n=f#5 v=49
54396 On ch=4 n=f#5 v=0
54396 On ch=4 n=d5 v=0
54396 On ch=4 n=a4 v=0
54450 On ch=4 n=a3 v=49
54456 On ch=4 n=a3 v=0
54510 On ch=4 n=d5 v=49
54510 On ch=4 n=f#5 v=49
54516 On ch=4 n=f#5 v=0
54516 On ch=4 n=d5 v=0
54570 On ch=4 n=f#4 v=49
54576 On ch=4 n=f#4 v=0
54630 Par ch=4 c=64 v=0
54630 On ch=4 n=d5 v=49
54630 On ch=4 n=f#5 v=49
54636 On ch=4 n=f#5 v=0
54636 On ch=4 n=d5 v=0
54690 Par ch=4 c=64 v=127
54690 On ch=4 n=a3 v=49
54696 On ch=4 n=a3 v=0
54750 On ch=4 n=g4 v=63
54750 On ch=4 n=a#4 v=67
54750 On ch=4 n=d5 v=71
54750 On ch=4 n=e5 v=75
54870 On ch=4 n=e5 v=0
54870 On ch=4 n=g4 v=0
54870 On ch=4 n=a#4 v=0
54870 On ch=4 n=d5 v=0
54870 Par ch=4 c=64 v=0
54870 On ch=4 n=g4 v=49
54870 On ch=4 n=a#4 v=49
54870 On ch=4 n=d5 v=49
54870 On ch=4 n=e5 v=49
54930 On ch=4 n=e5 v=0
54930 On ch=4 n=g4 v=0
54930 On ch=4 n=a#4 v=0
54930 On ch=4 n=d5 v=0
54930 Par ch=4 c=64 v=127
54930 On ch=4 n=a3 v=49
54936 On ch=4 n=a3 v=0
54990 On ch=4 n=c#5 v=49
54990 On ch=4 n=e5 v=49
54996 On ch=4 n=e5 v=0
54996 On ch=4 n=c#5 v=0
55050 On ch=4 n=g4 v=49
55056 On ch=4 n=g4 v=0
55110 Par ch=4 c=64 v=0
55110 On ch=4 n=c#5 v=49
55110 On ch=4 n=e5 v=49
55116 On ch=4 n=e5 v=0
55116 On ch=4 n=c#5 v=0
55170 On ch=4 n=d4 v=49
55410 On ch=4 n=d4 v=0
55410 On ch=4 n=b3 v=62
55410 On ch=4 n=f#4 v=62
55530 On ch=4 n=f#4 v=0
55530 On ch=4 n=b3 v=0
55530 On ch=4 n=a#3 v=49
55530 On ch=4 n=f4 v=49
55650 On ch=4 n=f4 v=0
55650 On ch=4 n=a#3 v=0
55650 On ch=4 n=d4 v=49
55890 On ch=4 n=d4 v=0
55890 On ch=4 n=b3 v=62
55890 On ch=4 n=f#4 v=62
56010 On ch=4 n=f#4 v=0
56010 On ch=4 n=b3 v=0
56010 On ch=4 n=a#3 v=49
56010 On ch=4 n=f4 v=49
56130 On ch=4 n=f4 v=0
56130 On ch=4 n=a#3 v=0
56130 On ch=4 n=d4 v=49
56370 On ch=4 n=d4 v=0
56370 On ch=4 n=b3 v=62
56370 On ch=4 n=f#4 v=62
56490 On ch=4 n=f#4 v=0
56490 On ch=4 n=b3 v=0
56490 On ch=4 n=a#3 v=49
56490 On ch=4 n=f4 v=49
56610 On ch=4 n=f4 v=0
56610 On ch=4 n=a#3 v=0
56610 On ch=4 n=b3 v=62
56610 On ch=4 n=f#4 v=62
56730 On ch=4 n=f#4 v=0
56730 On ch=4 n=b3 v=0
56730 On ch=4 n=a#3 v=49
56730 On ch=4 n=f4 v=49
56850 On ch=4 n=f4 v=0
56850 On ch=4 n=a#3 v=0
56850 On ch=4 n=b3 v=62
56850 On ch=4 n=f#4 v=62
56970 On ch=4 n=f#4 v=0
56970 On ch=4 n=b3 v=0
56970 On ch=4 n=a#3 v=49
56970 On ch=4 n=f4 v=49
57090 On ch=4 n=f4 v=0
57090 On ch=4 n=a#3 v=0
57090 On ch=4 n=b3 v=62
57090 On ch=4 n=f#4 v=62
57210 On ch=4 n=f#4 v=0
57210 On ch=4 n=b3 v=0
57210 On ch=4 n=a#3 v=49
57210 On ch=4 n=f4 v=49
57330 On ch=4 n=f4 v=0
57330 On ch=4 n=a#3 v=0
58530 Par ch=4 c=64 v=127
58530 On ch=4 n=a#2 v=75
58530 On ch=4 n=a#3 v=75
58536 On ch=4 n=a#3 v=0
58536 On ch=4 n=a#2 v=0
58590 On ch=4 n=a#4 v=75
58590 On ch=4 n=d5 v=75
58590 On ch=4 n=f5 v=75
58596 On ch=4 n=f5 v=0
58596 On ch=4 n=d5 v=0
58596 On ch=4 n=a#4 v=0
58650 On ch=4 n=f4 v=75
58656 On ch=4 n=f4 v=0
58710 Par ch=4 c=64 v=0
58710 On ch=4 n=a#4 v=75
58710 On ch=4 n=d5 v=75
58710 On ch=4 n=f5 v=75
58716 On ch=4 n=f5 v=0
58716 On ch=4 n=d5 v=0
58716 On ch=4 n=a#4 v=0
58770 Par ch=4 c=64 v=127
58770 On ch=4 n=a#2 v=75
58770 On ch=4 n=a#3 v=75
58776 On ch=4 n=a#3 v=0
58776 On ch=4 n=a#2 v=0
58830 On ch=4 n=a4 v=75
58830 On ch=4 n=d#5 v=75
58830 On ch=4 n=f5 v=75
58836 On ch=4 n=f5 v=0
58836 On ch=4 n=d#5 v=0
58836 On ch=4 n=a4 v=0
58890 On ch=4 n=f4 v=75
58896 On ch=4 n=f4 v=0
58950 On ch=4 n=a4 v=75
58950 On ch=4 n=d#5 v=75
58950 On ch=4 n=f5 v=75
58956 On ch=4 n=f5 v=0
58956 On ch=4 n=d#5 v=0
58956 On ch=4 n=a4 v=0
59010 On ch=4 n=a#2 v=75
59010 On ch=4 n=a#3 v=75
59016 On ch=4 n=a#3 v=0
59016 On ch=4 n=a#2 v=0
59070 On ch=4 n=a4 v=75
59070 On ch=4 n=d#5 v=75
59070 On ch=4 n=f5 v=75
59076 On ch=4 n=f5 v=0
59076 On ch=4 n=d#5 v=0
59076 On ch=4 n=a4 v=0
59130 On ch=4 n=f4 v=75
59136 On ch=4 n=f4 v=0
59190 Par ch=4 c=64 v=0
59190 On ch=4 n=a4 v=75
59190 On ch=4 n=d#5 v=75
59190 On ch=4 n=f5 v=75
59196 On ch=4 n=f5 v=0
59196 On ch=4 n=d#5 v=0
59196 On ch=4 n=a4 v=0
59250 Par ch=4 c=64 v=127
59250 On ch=4 n=a#2 v=75
59250 On ch=4 n=a#3 v=75
59256 On ch=4 n=a#3 v=0
59256 On ch=4 n=a#2 v=0
59310 On ch=4 n=a#4 v=75
59310 On ch=4 n=d5 v=75
59310 On ch=4 n=f5 v=75
59316 On ch=4 n=f5 v=0
59316 On ch=4 n=d5 v=0
59316 On ch=4 n=a#4 v=0
59370 On ch=4 n=f4 v=75
59376 On ch=4 n=f4 v=0
59430 On ch=4 n=a#4 v=75
59430 On ch=4 n=d5 v=75
59430 On ch=4 n=f5 v=75
59436 On ch=4 n=f5 v=0
59436 On ch=4 n=d5 v=0
59436 On ch=4 n=a#4 v=0
59490 On ch=4 n=a#2 v=75
59490 On ch=4 n=a#3 v=75
59496 On ch=4 n=a#3 v=0
59496 On ch=4 n=a#2 v=0
59550 On ch=4 n=a#4 v=75
59550 On ch=4 n=d5 v=75
59550 On ch=4 n=f5 v=75
59556 On ch=4 n=f5 v=0
59556 On ch=4 n=d5 v=0
59556 On ch=4 n=a#4 v=0
59610 On ch=4 n=f4 v=75
59616 On ch=4 n=f4 v=0
59670 Par ch=4 c=64 v=0
59670 On ch=4 n=a#4 v=75
59670 On ch=4 n=d5 v=75
59670 On ch=4 n=f5 v=75
59676 On ch=4 n=f5 v=0
59676 On ch=4 n=d5 v=0
59676 On ch=4 n=a#4 v=0
59730 Par ch=4 c=64 v=127
59730 On ch=4 n=a#2 v=75
59730 On ch=4 n=a#3 v=75
59736 On ch=4 n=a#3 v=0
59736 On ch=4 n=a#2 v=0
59790 On ch=4 n=a4 v=75
59790 On ch=4 n=d#5 v=75
59790 On ch=4 n=f5 v=75
59796 On ch=4 n=f5 v=0
59796 On ch=4 n=d#5 v=0
59796 On ch=4 n=a4 v=0
59850 On ch=4 n=f4 v=75
59856 On ch=4 n=f4 v=0
59910 On ch=4 n=a4 v=75
59910 On ch=4 n=d#5 v=75
59910 On ch=4 n=f5 v=75
59916 On ch=4 n=f5 v=0
59916 On ch=4 n=d#5 v=0
59916 On ch=4 n=a4 v=0
59970 On ch=4 n=a#2 v=75
59970 On ch=4 n=a#3 v=75
59976 On ch=4 n=a#3 v=0
59976 On ch=4 n=a#2 v=0
60030 On ch=4 n=a4 v=75
60030 On ch=4 n=d#5 v=75
60030 On ch=4 n=f5 v=75
60036 On ch=4 n=f5 v=0
60036 On ch=4 n=d#5 v=0
60036 On ch=4 n=a4 v=0
60090 On ch=4 n=f4 v=75
60096 On ch=4 n=f4 v=0
60150 Par ch=4 c=64 v=0
60150 On ch=4 n=a4 v=75
60150 On ch=4 n=d#5 v=75
60150 On ch=4 n=f5 v=75
60156 On ch=4 n=f5 v=0
60156 On ch=4 n=d#5 v=0
60156 On ch=4 n=a4 v=0
60210 Par ch=4 c=64 v=127
60210 On ch=4 n=a#2 v=75
60210 On ch=4 n=a#3 v=75
60216 On ch=4 n=a#3 v=0
60216 On ch=4 n=a#2 v=0
60270 On ch=4 n=a#4 v=75
60270 On ch=4 n=d5 v=75
60270 On ch=4 n=f5 v=75
60276 On ch=4 n=f5 v=0
60276 On ch=4 n=d5 v=0
60276 On ch=4 n=a#4 v=0
60330 On ch=4 n=f4 v=75
60336 On ch=4 n=f4 v=0
60390 Par ch=4 c=64 v=0
60390 On ch=4 n=a#4 v=75
60390 On ch=4 n=d5 v=75
60390 On ch=4 n=f5 v=75
60396 On ch=4 n=f5 v=0
60396 On ch=4 n=d5 v=0
60396 On ch=4 n=a#4 v=0
60450 Par ch=4 c=64 v=127
60450 On ch=4 n=a#2 v=75
60450 On ch=4 n=a#3 v=75
60456 On ch=4 n=a#3 v=0
60456 On ch=4 n=a#2 v=0
60510 On ch=4 n=a#4 v=75
60510 On ch=4 n=d5 v=75
60510 On ch=4 n=f5 v=75
60516 On ch=4 n=f5 v=0
60516 On ch=4 n=d5 v=0
60516 On ch=4 n=a#4 v=0
60570 On ch=4 n=f4 v=75
60576 On ch=4 n=f4 v=0
60630 Par ch=4 c=64 v=0
60630 On ch=4 n=a#4 v=75
60630 On ch=4 n=d5 v=75
60630 On ch=4 n=f5 v=75
60636 On ch=4 n=f5 v=0
60636 On ch=4 n=d5 v=0
60636 On ch=4 n=a#4 v=0
60690 Par ch=4 c=64 v=127
60690 On ch=4 n=a#2 v=75
60690 On ch=4 n=a#3 v=75
60696 On ch=4 n=a#3 v=0
60696 On ch=4 n=a#2 v=0
60750 On ch=4 n=a4 v=93
60750 On ch=4 n=d#5 v=101
60756 On ch=4 n=d#5 v=0
60756 On ch=4 n=a4 v=0
60810 On ch=4 n=f4 v=75
60816 On ch=4 n=f4 v=0
60870 On ch=4 n=a4 v=75
60870 On ch=4 n=d#5 v=75
60876 On ch=4 n=d#5 v=0
60876 On ch=4 n=a4 v=0
60930 On ch=4 n=a#2 v=75
60930 On ch=4 n=a#3 v=75
60936 On ch=4 n=a#3 v=0
60936 On ch=4 n=a#2 v=0
60990 On ch=4 n=a4 v=75
60990 On ch=4 n=d#5 v=75
60990 On ch=4 n=f5 v=75
60996 On ch=4 n=f5 v=0
60996 On ch=4 n=d#5 v=0
60996 On ch=4 n=a4 v=0
61050 On ch=4 n=f4 v=75
61056 On ch=4 n=f4 v=0
61110 Par ch=4 c=64 v=0
61110 On ch=4 n=a4 v=75
61110 On ch=4 n=d#5 v=75
61110 On ch=4 n=f5 v=75
61116 On ch=4 n=f5 v=0
61116 On ch=4 n=d#5 v=0
61116 On ch=4 n=a4 v=0
61170 Par ch=4 c=64 v=127
61170 On ch=4 n=a#2 v=75
61170 On ch=4 n=a#3 v=75
61176 On ch=4 n=a#3 v=0
61176 On ch=4 n=a#2 v=0
61230 On ch=4 n=a#4 v=93
61230 On ch=4 n=d5 v=101
61236 On ch=4 n=d5 v=0
61236 On ch=4 n=a#4 v=0
61290 On ch=4 n=f4 v=75
61296 On ch=4 n=f4 v=0
61350 On ch=4 n=a#4 v=75
61350 On ch=4 n=d5 v=75
61356 On ch=4 n=d5 v=0
61356 On ch=4 n=a#4 v=0
61410 On ch=4 n=a#2 v=75
61410 On ch=4 n=a#3 v=75
61416 On ch=4 n=a#3 v=0
61416 On ch=4 n=a#2 v=0
61470 On ch=4 n=a#4 v=75
61470 On ch=4 n=d5 v=75
61470 On ch=4 n=f5 v=75
61476 On ch=4 n=f5 v=0
61476 On ch=4 n=d5 v=0
61476 On ch=4 n=a#4 v=0
61530 On ch=4 n=f4 v=75
61536 On ch=4 n=f4 v=0
61590 Par ch=4 c=64 v=0
61590 On ch=4 n=a#4 v=75
61590 On ch=4 n=d5 v=75
61590 On ch=4 n=f5 v=75
61596 On ch=4 n=f5 v=0
61596 On ch=4 n=d5 v=0
61596 On ch=4 n=a#4 v=0
61650 Par ch=4 c=64 v=127
61650 On ch=4 n=a#2 v=75
61650 On ch=4 n=a#3 v=75
61656 On ch=4 n=a#3 v=0
61656 On ch=4 n=a#2 v=0
61710 On ch=4 n=a4 v=93
61710 On ch=4 n=d#5 v=101
61716 On ch=4 n=d#5 v=0
61716 On ch=4 n=a4 v=0
61770 On ch=4 n=f4 v=75
61776 On ch=4 n=f4 v=0
61830 On ch=4 n=a4 v=75
61830 On ch=4 n=d#5 v=75
61836 On ch=4 n=d#5 v=0
61836 On ch=4 n=a4 v=0
61890 On ch=4 n=a#2 v=75
61890 On ch=4 n=a#3 v=75
61896 On ch=4 n=a#3 v=0
61896 On ch=4 n=a#2 v=0
61950 On ch=4 n=a4 v=75
61950 On ch=4 n=d#5 v=75
61950 On ch=4 n=f5 v=75
61956 On ch=4 n=f5 v=0
61956 On ch=4 n=d#5 v=0
61956 On ch=4 n=a4 v=0
62010 On ch=4 n=f4 v=75
62016 On ch=4 n=f4 v=0
62070 Par ch=4 c=64 v=0
62070 On ch=4 n=a4 v=75
62070 On ch=4 n=d#5 v=75
62070 On ch=4 n=f5 v=75
62076 On ch=4 n=f5 v=0
62076 On ch=4 n=d#5 v=0
62076 On ch=4 n=a4 v=0
62130 On ch=4 n=a#2 v=75
62130 On ch=4 n=a#3 v=75
62190 On ch=4 n=a#3 v=0
62190 On ch=4 n=a#2 v=0
62190 On ch=4 n=f4 v=89
62190 On ch=4 n=a#4 v=93
62190 On ch=4 n=d5 v=97
62190 On ch=4 n=f5 v=101
62310 On ch=4 n=f5 v=0
62310 On ch=4 n=f4 v=0
62310 On ch=4 n=a#4 v=0
62310 On ch=4 n=d5 v=0
62310 On ch=4 n=f2 v=75
62310 On ch=4 n=f3 v=75
62314 On ch=4 n=f3 v=0
62314 On ch=4 n=f2 v=0
62340 On ch=4 n=g2 v=75
62340 On ch=4 n=g3 v=75
62344 On ch=4 n=g3 v=0
62344 On ch=4 n=g2 v=0
72690 Par ch=4 c=64 v=0
72690 Meta TrkEnd
TrkEnd
