MFile 1 3 480
MTrk
0 TimeSig 4/4 24 8
0 Tempo 500000
0 SMPTE 96 0 0 0 0
0 SeqSpec
3840 KeySig 4 major
3840 TimeSig 1/4 24 8
3840 Tempo 1000000
4320 TimeSig 4/4 24 8
9120 Tempo 500000
10848 Tempo 1000000
11442 Tempo 1000000
11502 Tempo 1071428
11562 Tempo 1153846
11622 Tempo 1250000
11682 Tempo 1395348
11742 Tempo 1538461
11802 Tempo 1714285
11862 Tempo 1935483
11922 Tempo 2307692
11982 Tempo 2727272
11999 Tempo 3000000
12000 Tempo 1000000
24480 Tempo 545454
26118 Tempo 1000000
43996 Tempo 1000000
44056 Tempo 1052631
44116 Tempo 1132075
44176 Tempo 1224489
44236 Tempo 1304347
44296 Tempo 1428571
44356 Tempo 1578947
44416 Tempo 1714285
44476 Tempo 1935483
44536 Tempo 2222222
44596 Tempo 2608695
44639 Tempo 3000000
44640 Tempo 1000000
46560 KeySig 0 major
46722 Tempo 500000
48090 Tempo 1000000
48480 TimeSig 2/4 24 8
49440 KeySig 4 major
49440 TimeSig 4/4 24 8
49440 Tempo 2000000
51360 Tempo 1000000
57840 Tempo 1000000
57900 Tempo 1016949
57960 Tempo 1034482
58020 Tempo 1071428
58080 Tempo 1090909
58140 Tempo 1132075
58200 Tempo 1153846
58260 Tempo 1200000
58320 Tempo 1224489
58380 Tempo 1276595
58440 Tempo 1304347
58500 Tempo 1363636
58560 Tempo 1395348
58620 Tempo 1463414
58680 Tempo 1500000
58740 Tempo 1578947
58800 Tempo 1621621
58860 Tempo 1714285
58920 Tempo 1764705
58980 Tempo 1875000
59039 Tempo 2000000
59040 Tempo 1000000
65520 Tempo 1000000
65580 Tempo 1016949
65640 Tempo 1034482
65700 Tempo 1071428
65760 Tempo 1090909
65820 Tempo 1132075
65880 Tempo 1153846
65940 Tempo 1200000
66000 Tempo 1224489
66060 Tempo 1276595
66120 Tempo 1304347
66180 Tempo 1363636
66240 Tempo 1395348
66300 Tempo 1463414
66360 Tempo 1500000
66420 Tempo 1578947
66480 Tempo 1621621
66540 Tempo 1714285
66600 Tempo 1764705
66660 Tempo 1875000
66719 Tempo 2000000
66720 Tempo 1000000
84000 TimeSig 1/4 24 8
84000 Tempo 2000000
84480 TimeSig 4/4 24 8
84480 Tempo 705882
85920 Tempo 857142
86400 Tempo 705882
87840 Tempo 857142
88320 Tempo 705882
93600 Tempo 857142
94080 Tempo 705882
95520 Tempo 857142
96000 Tempo 705882
97920 Tempo 857142
99840 Tempo 705882
111360 Tempo 722891
112320 Tempo 740740
113280 Tempo 759493
114240 Tempo 779220
115200 Tempo 800000
120960 Tempo 705882
121200 Tempo 705882
121320 Tempo 714285
121380 Tempo 722891
121440 Tempo 731707
121500 Tempo 740740
121560 Tempo 750000
121620 Tempo 759493
121680 Tempo 769230
121800 Tempo 779220
121860 Tempo 789473
121920 Tempo 800000
121980 Tempo 810810
122040 Tempo 821917
122100 Tempo 833333
122160 Tempo 845070
122220 Tempo 857142
122340 Tempo 869565
122400 Tempo 882352
122460 Tempo 895522
122520 Tempo 909090
122580 Tempo 923076
122640 Tempo 937500
122700 Tempo 952380
122760 Tempo 967741
122820 Tempo 983606
122879 Tempo 1000000
122880 Tempo 705882
128160 Tempo 705882
128280 Tempo 714285
128340 Tempo 722891
128460 Tempo 731707
128520 Tempo 740740
128580 Tempo 750000
128700 Tempo 759493
128760 Tempo 769230
128820 Tempo 779220
128940 Tempo 789473
129000 Tempo 800000
129060 Tempo 810810
129180 Tempo 821917
129240 Tempo 833333
129300 Tempo 845070
129420 Tempo 857142
129480 Tempo 869565
129540 Tempo 882352
129660 Tempo 895522
129720 Tempo 909090
129760 Tempo 2000000
129760 Tempo 2222222
129760 Tempo 2222222
129780 Tempo 923076
129900 Tempo 937500
129960 Tempo 952380
130020 Tempo 967741
130140 Tempo 983606
130200 Tempo 1000000
130260 Tempo 1016949
130380 Tempo 1034482
130384 Tempo 1000000
130384 Tempo 1111111
130384 Tempo 1111111
130440 Tempo 1052631
130500 Tempo 1071428
130559 Tempo 1090909
130560 Tempo 705882
136320 Tempo 705882
136440 Tempo 714285
136500 Tempo 722891
136560 Tempo 731707
136620 Tempo 740740
136680 Tempo 750000
136740 Tempo 759493
136800 Tempo 769230
136860 Tempo 779220
136920 Tempo 789473
136980 Tempo 800000
137040 Tempo 810810
137100 Tempo 821917
137220 Tempo 833333
137280 Tempo 845070
137340 Tempo 857142
137400 Tempo 869565
137460 Tempo 882352
137520 Tempo 895522
137580 Tempo 909090
137640 Tempo 923076
137700 Tempo 937500
137760 Tempo 952380
137820 Tempo 967741
137880 Tempo 983606
137940 Tempo 1000000
138000 Tempo 1016949
138060 Tempo 1034482
138120 Tempo 1052631
138180 Tempo 1071428
138239 Tempo 1090909
138240 Tempo 705882
151350 Tempo 923076
151680 Tempo 705882
151920 Tempo 714285
152100 Tempo 722891
152280 Tempo 731707
152460 Tempo 740740
152700 Tempo 750000
152880 Tempo 759493
153060 Tempo 769230
153240 Tempo 779220
153420 Tempo 789473
153599 Tempo 800000
153600 TimeSig 1/4 24 8
154080 KeySig -3 major
155040 KeySig -5 major
155040 TimeSig 4/4 24 8
155040 Tempo 666666
160434 Tempo 800000
160494 Tempo 845070
160554 Tempo 895522
160614 Tempo 952380
160674 Tempo 1016949
160734 Tempo 1090909
160794 Tempo 1200000
160800 TimeSig 1/16 24 8
160920 Tempo 800000
160920 TimeSig 2/4 24 8
186240 Tempo 800000
186300 Tempo 833333
186360 Tempo 869565
186420 Tempo 923076
186480 Tempo 967741
186540 Tempo 1034482
186600 Tempo 1090909
186660 Tempo 1176470
186720 Tempo 1250000
186720 Tempo 1250000
186780 Tempo 1363636
186839 Tempo 1500000
186840 TimeSig 1/4 24 8
186840 Tempo 3000000
187320 TimeSig 1/8 24 8
187320 Tempo 1200000
187560 TimeSig 2/4 24 8
187800 KeySig 4 major
189480 TimeSig 2/4 24 8
192000 Tempo 3000000
192240 Tempo 1200000
193200 Tempo 3000000
193320 KeySig -5 major
193320 Tempo 800000
198120 Tempo 800000
198180 Tempo 810810
198240 Tempo 845070
198300 Tempo 869565
198360 Tempo 895522
198420 Tempo 923076
198480 Tempo 952380
198540 Tempo 1000000
198600 Tempo 1034482
198660 Tempo 1071428
198720 Tempo 1111111
198780 Tempo 1153846
198840 Tempo 1224489
198900 Tempo 1276595
198960 Tempo 1333333
198960 Tempo 3000000
198960 Tempo 3000000
198960 Tempo 3000000
199020 Tempo 1395348
199079 Tempo 1500000
199080 KeySig 4 major
199080 Tempo 1200000
199080 TimeSig 2/8 24 8
199560 TimeSig 2/4 24 8
200520 TimeSig 2/4 24 8
201480 TimeSig 1/8 24 8
201720 TimeSig 2/4 24 8
202680 TimeSig 2/4 24 8
204240 Tempo 3000000
204480 Tempo 1200000
205320 KeySig -5 major
205440 Tempo 3000000
205560 Tempo 800000
207240 Tempo 800000
207480 Tempo 810810
207660 Tempo 821917
207840 Tempo 833333
208020 Tempo 845070
208199 Tempo 857142
208200 Tempo 857142
208440 Tempo 869565
208620 Tempo 882352
208800 Tempo 895522
208980 Tempo 909090
209220 Tempo 923076
209400 Tempo 937500
209580 Tempo 952380
209760 Tempo 967741
209940 Tempo 983606
210119 Tempo 1000000
210120 Tempo 937500
210180 Tempo 952380
210240 Tempo 1000000
210300 Tempo 1034482
210360 Tempo 1071428
210420 Tempo 1111111
210480 Tempo 1153846
210540 Tempo 1200000
210600 Tempo 1250000
210660 Tempo 1333333
210720 Tempo 1395348
210780 Tempo 1463414
210840 Tempo 1538461
210900 Tempo 1621621
210960 Tempo 1714285
210960 Tempo 1363636
210960 Tempo 1363636
210960 Tempo 1363636
210960 Tempo 1363636
211020 Tempo 1818181
211079 Tempo 2000000
211080 Tempo 3000000
211320 TimeSig 1/4 24 8
211800 TimeSig 2/4 24 8
211800 Tempo 1000000
234600 Tempo 1200000
235800 KeySig 4 major
235800 TimeSig 2/4 24 8
235800 Tempo 1000000
240600 KeySig -5 major
240600 TimeSig 4/4 24 8
240600 Tempo 500000
256920 Tempo 750000
257880 Tempo 1000000
257880 TimeSig 2/4 24 8
257880 KeySig 4 major
262680 Tempo 500000
262680 KeySig -5 major
266520 TimeSig 4/4 24 8
285720 Tempo 545454
290520 Tempo 600000
291720 Tempo 375000
293400 Tempo 2000000
295320 KeySig 4 major
295320 TimeSig 2/4 24 8
295320 Tempo 500000
316440 Tempo 545454
317400 Tempo 600000
318360 Tempo 500000
341400 Tempo 500000
341460 Tempo 504201
341520 Tempo 508474
341580 Tempo 512820
341640 Tempo 517241
341700 Tempo 526315
341760 Tempo 530973
341820 Tempo 535714
341880 Tempo 540540
341940 Tempo 550458
342000 Tempo 555555
342060 Tempo 560747
342120 Tempo 566037
342180 Tempo 576923
342240 Tempo 582524
342300 Tempo 588235
342359 Tempo 545454
363960 Tempo 750000
364440 Tempo 750000
364740 Tempo 740740
364920 Tempo 731707
365160 Tempo 722891
365340 Tempo 714285
365580 Tempo 705882
365820 Tempo 697674
366060 Tempo 689655
366240 Tempo 681818
366420 Tempo 674157
366660 Tempo 666666
366840 Tempo 659340
367140 Tempo 652173
367320 Tempo 645161
367560 Tempo 638297
367740 Tempo 631578
367920 Tempo 625000
368160 Tempo 618556
368400 Tempo 612244
368640 Tempo 606060
368820 Tempo 600000
369000 Tempo 594059
369240 Tempo 588235
369480 Tempo 582524
369720 Tempo 576923
369900 Tempo 571428
370140 Tempo 566037
370320 Tempo 560747
370500 Tempo 555555
370800 Tempo 550458
370980 Tempo 545454
371220 Tempo 540540
371400 Tempo 535714
371640 Tempo 530973
371820 Tempo 526315
372060 Tempo 521739
372300 Tempo 517241
372480 Tempo 512820
372720 Tempo 508474
372900 Tempo 504201
373079 Tempo 500000
378840 KeySig 0 major
378840 Tempo 461538
399000 Tempo 923076
399960 Tempo 461538
416280 Tempo 461538
416700 Tempo 458015
417120 Tempo 454545
417480 Tempo 451127
417840 Tempo 447761
418260 Tempo 444444
418620 Tempo 441176
418980 Tempo 437956
419400 Tempo 434782
419760 Tempo 431654
420119 Tempo 428571
421080 KeySig 4 major
421080 TimeSig 2/4 24 8
421080 Tempo 545454
447000 Tempo 400000
468720 Tempo 397350
469320 Tempo 394736
469920 Tempo 392156
470460 Tempo 389610
471060 Tempo 387096
471660 Tempo 384615
472200 Tempo 382165
472800 Tempo 379746
473340 Tempo 377358
473879 Tempo 375000
473879 Meta TrkEnd
TrkEnd
MTrk
0 SeqSpec 43 00 01 00
0 SysEx f0 7e 7f 09 01 f7
960 SysEx f0 43 10 4c 00 00 7e 00 f7
1920 SysEx f0 43 10 4c 02 01 00 01 00 f7
1925 SysEx f0 43 10 4c 02 01 02 19 f7
1930 SysEx f0 43 10 4c 02 01 04 1c f7
1935 SysEx f0 43 10 4c 02 01 40 4d 00 f7
1940 SysEx f0 43 10 4c 02 01 42 00 11 f7
1945 SysEx f0 43 10 4c 02 01 44 00 46 f7
1950 SysEx f0 43 10 4c 02 01 48 00 40 f7
1955 SysEx f0 43 10 4c 02 01 5b 00 f7
1960 SysEx f0 43 10 4c 02 40 01 45 f7
1965 SysEx f0 43 10 4c 02 40 0d 3e f7
1970 SysEx f0 43 10 4c 02 40 11 41 f7
2400 Par ch=1 c=0 v=0
2405 Par ch=1 c=32 v=1
2410 PrCh ch=1 p=0
2415 Par ch=1 c=7 v=127
2420 Par ch=1 c=10 v=64
2425 Par ch=1 c=11 v=127
2430 Par ch=1 c=91 v=51
2435 Par ch=1 c=93 v=0
12000 Par ch=1 c=64 v=127
12240 On ch=1 n=d#4 v=42
12240 On ch=1 n=g#4 v=42
12240 On ch=1 n=c5 v=47
12672 On ch=1 n=c5 v=0
12672 On ch=1 n=g#4 v=0
12672 On ch=1 n=d#4 v=0
12720 On ch=1 n=e4 v=47
12720 On ch=1 n=c#5 v=52
12720 On ch=1 n=a4 v=47
12720 Par ch=1 c=64 v=0
12840 Par ch=1 c=64 v=127
12936 On ch=1 n=a4 v=0
12936 On ch=1 n=c#5 v=0
12936 On ch=1 n=e4 v=0
12960 On ch=1 n=d#4 v=47
12960 On ch=1 n=g#4 v=47
12960 On ch=1 n=c5 v=52
12960 Par ch=1 c=64 v=0
13020 Par ch=1 c=64 v=127
13068 On ch=1 n=c5 v=0
13068 On ch=1 n=g#4 v=0
13068 On ch=1 n=d#4 v=0
13080 On ch=1 n=c#4 v=45
13080 On ch=1 n=e4 v=45
13080 On ch=1 n=a4 v=50
13080 Par ch=1 c=64 v=0
13440 Par ch=1 c=64 v=127
13656 On ch=1 n=a4 v=0
13656 On ch=1 n=e4 v=0
13656 On ch=1 n=c#4 v=0
13800 Par ch=1 c=64 v=0
13920 Par ch=1 c=64 v=127
14160 On ch=1 n=d#4 v=42
14160 On ch=1 n=g#4 v=42
14160 On ch=1 n=c5 v=47
14592 On ch=1 n=c5 v=0
14592 On ch=1 n=g#4 v=0
14592 On ch=1 n=d#4 v=0
14640 On ch=1 n=e4 v=47
14640 On ch=1 n=c#5 v=52
14640 On ch=1 n=a4 v=47
14640 Par ch=1 c=64 v=0
14760 Par ch=1 c=64 v=127
14856 On ch=1 n=a4 v=0
14856 On ch=1 n=c#5 v=0
14856 On ch=1 n=e4 v=0
14880 On ch=1 n=d#4 v=47
14880 On ch=1 n=g#4 v=47
14880 On ch=1 n=c5 v=52
14880 Par ch=1 c=64 v=0
14940 Par ch=1 c=64 v=127
14988 On ch=1 n=c5 v=0
14988 On ch=1 n=g#4 v=0
14988 On ch=1 n=d#4 v=0
15000 On ch=1 n=c#4 v=45
15000 On ch=1 n=e4 v=45
15000 On ch=1 n=a4 v=50
15000 Par ch=1 c=64 v=0
15360 Par ch=1 c=64 v=127
15576 On ch=1 n=a4 v=0
15576 On ch=1 n=e4 v=0
15576 On ch=1 n=c#4 v=0
15720 Par ch=1 c=64 v=0
15840 Par ch=1 c=64 v=127
16080 On ch=1 n=f#4 v=45
16080 On ch=1 n=d#5 v=50
16080 On ch=1 n=c5 v=45
16512 On ch=1 n=c5 v=0
16512 On ch=1 n=d#5 v=0
16512 On ch=1 n=f#4 v=0
16560 On ch=1 n=g#4 v=52
16560 On ch=1 n=e5 v=57
16560 On ch=1 n=c5 v=52
16560 Par ch=1 c=64 v=0
16680 Par ch=1 c=64 v=127
16776 On ch=1 n=c5 v=0
16776 On ch=1 n=e5 v=0
16776 On ch=1 n=g#4 v=0
16800 On ch=1 n=f#4 v=55
16800 On ch=1 n=d#5 v=60
16800 On ch=1 n=c5 v=55
16800 Par ch=1 c=64 v=0
16860 Par ch=1 c=64 v=127
16908 On ch=1 n=c5 v=0
16908 On ch=1 n=d#5 v=0
16908 On ch=1 n=f#4 v=0
16920 On ch=1 n=e4 v=57
16920 On ch=1 n=a4 v=57
16920 On ch=1 n=c#5 v=62
16920 Par ch=1 c=64 v=0
17280 Par ch=1 c=64 v=127
17496 On ch=1 n=c#5 v=0
17496 On ch=1 n=a4 v=0
17496 On ch=1 n=e4 v=0
17640 Par ch=1 c=64 v=0
17760 Par ch=1 c=64 v=127
18000 On ch=1 n=f#4 v=65
18000 On ch=1 n=d#5 v=72
18000 On ch=1 n=c5 v=67
18432 On ch=1 n=c5 v=0
18432 On ch=1 n=d#5 v=0
18432 On ch=1 n=f#4 v=0
18480 On ch=1 n=g#4 v=72
18480 On ch=1 n=e5 v=79
18480 On ch=1 n=c5 v=74
18480 Par ch=1 c=64 v=0
18600 Par ch=1 c=64 v=127
18696 On ch=1 n=c5 v=0
18696 On ch=1 n=e5 v=0
18696 On ch=1 n=g#4 v=0
18720 On ch=1 n=f#4 v=76
18720 On ch=1 n=d#5 v=83
18720 On ch=1 n=c5 v=78
18720 Par ch=1 c=64 v=0
18780 Par ch=1 c=64 v=127
18828 On ch=1 n=c5 v=0
18828 On ch=1 n=d#5 v=0
18828 On ch=1 n=f#4 v=0
18840 On ch=1 n=e4 v=78
18840 On ch=1 n=a4 v=80
18840 On ch=1 n=c#5 v=85
18840 Par ch=1 c=64 v=0
19200 Par ch=1 c=64 v=127
19416 On ch=1 n=c#5 v=0
19416 On ch=1 n=a4 v=0
19416 On ch=1 n=e4 v=0
19560 Par ch=1 c=64 v=0
27480 Par ch=1 c=64 v=127
27600 On ch=1 n=f#4 v=55
27600 On ch=1 n=a4 v=55
27600 On ch=1 n=d#5 v=60
28032 On ch=1 n=d#5 v=0
28032 On ch=1 n=a4 v=0
28032 On ch=1 n=f#4 v=0
28080 On ch=1 n=b4 v=59
28080 On ch=1 n=e5 v=64
28080 On ch=1 n=g4 v=59
28080 Par ch=1 c=64 v=0
28200 Par ch=1 c=64 v=127
28296 On ch=1 n=g4 v=0
28296 On ch=1 n=e5 v=0
28296 On ch=1 n=b4 v=0
28320 On ch=1 n=f#4 v=57
28320 On ch=1 n=a4 v=57
28320 On ch=1 n=d#5 v=62
28320 Par ch=1 c=64 v=0
28380 Par ch=1 c=64 v=127
28428 On ch=1 n=d#5 v=0
28428 On ch=1 n=a4 v=0
28428 On ch=1 n=f#4 v=0
28440 On ch=1 n=e4 v=55
28440 On ch=1 n=c5 v=60
28440 On ch=1 n=g4 v=55
28440 Par ch=1 c=64 v=0
28800 Par ch=1 c=64 v=127
29016 On ch=1 n=g4 v=0
29016 On ch=1 n=c5 v=0
29016 On ch=1 n=e4 v=0
29220 Par ch=1 c=64 v=0
29280 Par ch=1 c=64 v=127
29520 On ch=1 n=f#4 v=55
29520 On ch=1 n=a4 v=55
29520 On ch=1 n=d#5 v=60
29952 On ch=1 n=d#5 v=0
29952 On ch=1 n=a4 v=0
29952 On ch=1 n=f#4 v=0
30000 On ch=1 n=b4 v=59
30000 On ch=1 n=e5 v=64
30000 On ch=1 n=g4 v=59
30000 Par ch=1 c=64 v=0
30120 Par ch=1 c=64 v=127
30216 On ch=1 n=g4 v=0
30216 On ch=1 n=e5 v=0
30216 On ch=1 n=b4 v=0
30240 On ch=1 n=f#4 v=57
30240 On ch=1 n=a4 v=57
30240 On ch=1 n=d#5 v=62
30240 Par ch=1 c=64 v=0
30300 Par ch=1 c=64 v=127
30348 On ch=1 n=d#5 v=0
30348 On ch=1 n=a4 v=0
30348 On ch=1 n=f#4 v=0
30360 On ch=1 n=e4 v=55
30360 On ch=1 n=c5 v=60
30360 On ch=1 n=g4 v=55
30360 Par ch=1 c=64 v=0
30720 Par ch=1 c=64 v=127
30936 On ch=1 n=g4 v=0
30936 On ch=1 n=c5 v=0
30936 On ch=1 n=e4 v=0
31140 Par ch=1 c=64 v=0
31200 Par ch=1 c=64 v=127
31440 On ch=1 n=a4 v=55
31440 On ch=1 n=d#5 v=55
31440 On ch=1 n=f#5 v=60
31872 On ch=1 n=f#5 v=0
31872 On ch=1 n=d#5 v=0
31872 On ch=1 n=a4 v=0
31920 On ch=1 n=b4 v=59
31920 On ch=1 n=e5 v=59
31920 On ch=1 n=g5 v=64
31920 Par ch=1 c=64 v=0
32040 Par ch=1 c=64 v=127
32136 On ch=1 n=g5 v=0
32136 On ch=1 n=e5 v=0
32136 On ch=1 n=b4 v=0
32160 On ch=1 n=a4 v=57
32160 On ch=1 n=d#5 v=57
32160 On ch=1 n=f#5 v=62
32160 Par ch=1 c=64 v=0
32220 Par ch=1 c=64 v=127
32268 On ch=1 n=f#5 v=0
32268 On ch=1 n=d#5 v=0
32268 On ch=1 n=a4 v=0
32280 On ch=1 n=e5 v=60
32280 On ch=1 n=c5 v=55
32280 On ch=1 n=g4 v=55
32280 Par ch=1 c=64 v=0
32640 Par ch=1 c=64 v=127
32856 On ch=1 n=g4 v=0
32856 On ch=1 n=c5 v=0
32856 On ch=1 n=e5 v=0
33060 Par ch=1 c=64 v=0
33120 Par ch=1 c=64 v=127
33360 On ch=1 n=a4 v=55
33360 On ch=1 n=d#5 v=55
33360 On ch=1 n=f#5 v=60
33792 On ch=1 n=f#5 v=0
33792 On ch=1 n=d#5 v=0
33792 On ch=1 n=a4 v=0
33840 On ch=1 n=b4 v=59
33840 On ch=1 n=e5 v=59
33840 On ch=1 n=g5 v=64
33840 Par ch=1 c=64 v=0
33960 Par ch=1 c=64 v=127
34056 On ch=1 n=g5 v=0
34056 On ch=1 n=e5 v=0
34056 On ch=1 n=b4 v=0
34080 On ch=1 n=a4 v=57
34080 On ch=1 n=d#5 v=57
34080 On ch=1 n=f#5 v=62
34080 Par ch=1 c=64 v=0
34140 Par ch=1 c=64 v=127
34188 On ch=1 n=f#5 v=0
34188 On ch=1 n=d#5 v=0
34188 On ch=1 n=a4 v=0
34200 On ch=1 n=e5 v=60
34200 On ch=1 n=c5 v=55
34200 On ch=1 n=g4 v=55
34200 Par ch=1 c=64 v=0
34560 Par ch=1 c=64 v=127
34776 On ch=1 n=g4 v=0
34776 On ch=1 n=c5 v=0
34776 On ch=1 n=e5 v=0
34800 Par ch=1 c=64 v=0
34880 Par ch=1 c=64 v=127
35200 On ch=1 n=b5 v=64
35200 On ch=1 n=b4 v=62
35360 On ch=1 n=d5 v=49
35504 On ch=1 n=d5 v=0
35520 On ch=1 n=g5 v=50
35632 On ch=1 n=b4 v=0
35632 On ch=1 n=b5 v=0
35664 On ch=1 n=g5 v=0
35680 On ch=1 n=d5 v=48
35824 On ch=1 n=d5 v=0
35840 On ch=1 n=e5 v=43
35840 On ch=1 n=g5 v=45
35840 On ch=1 n=c6 v=50
35840 Par ch=1 c=64 v=0
35880 Par ch=1 c=64 v=127
35984 On ch=1 n=c6 v=0
35984 On ch=1 n=g5 v=0
35984 On ch=1 n=e5 v=0
36000 On ch=1 n=f#5 v=43
36000 On ch=1 n=b5 v=48
36000 On ch=1 n=d5 v=41
36000 Par ch=1 c=64 v=0
36080 Par ch=1 c=64 v=127
36144 On ch=1 n=d5 v=0
36144 On ch=1 n=b5 v=0
36160 On ch=1 n=a5 v=46
36160 On ch=1 n=c5 v=39
36160 Par ch=1 c=64 v=0
36240 Par ch=1 c=64 v=127
36304 On ch=1 n=c5 v=0
36304 On ch=1 n=a5 v=0
36304 On ch=1 n=f#5 v=0
36320 On ch=1 n=e6 v=37
36320 On ch=1 n=g6 v=39
36320 On ch=1 n=c7 v=44
36320 Par ch=1 c=64 v=0
36400 Par ch=1 c=64 v=127
36464 On ch=1 n=c7 v=0
36464 On ch=1 n=g6 v=0
36464 On ch=1 n=e6 v=0
36480 On ch=1 n=f#6 v=37
36480 On ch=1 n=b6 v=42
36480 On ch=1 n=d6 v=35
36480 Par ch=1 c=64 v=0
36560 Par ch=1 c=64 v=127
36624 On ch=1 n=d6 v=0
36624 On ch=1 n=b6 v=0
36624 On ch=1 n=f#6 v=0
36640 On ch=1 n=f#6 v=35
36640 On ch=1 n=a6 v=40
36640 On ch=1 n=c6 v=33
36640 Par ch=1 c=64 v=0
36720 Par ch=1 c=64 v=127
36800 Par ch=1 c=64 v=0
36880 Par ch=1 c=64 v=127
36928 On ch=1 n=c6 v=0
36928 On ch=1 n=a6 v=0
36928 On ch=1 n=f#6 v=0
37120 On ch=1 n=b6 v=54
37120 On ch=1 n=b5 v=52
37280 On ch=1 n=d6 v=39
37408 On ch=1 n=b5 v=0
37408 On ch=1 n=b6 v=0
37424 On ch=1 n=d6 v=0
37440 On ch=1 n=g6 v=40
37584 On ch=1 n=g6 v=0
37600 On ch=1 n=d6 v=38
37744 On ch=1 n=d6 v=0
37760 On ch=1 n=e6 v=37
37760 On ch=1 n=g6 v=39
37760 On ch=1 n=c7 v=44
37760 Par ch=1 c=64 v=0
37800 Par ch=1 c=64 v=127
37904 On ch=1 n=c7 v=0
37904 On ch=1 n=g6 v=0
37904 On ch=1 n=e6 v=0
37920 On ch=1 n=f#6 v=37
37920 On ch=1 n=b6 v=42
37920 On ch=1 n=d6 v=35
37920 Par ch=1 c=64 v=0
38000 Par ch=1 c=64 v=127
38064 On ch=1 n=d6 v=0
38064 On ch=1 n=b6 v=0
38080 On ch=1 n=a6 v=40
38080 On ch=1 n=c6 v=33
38080 Par ch=1 c=64 v=0
38160 Par ch=1 c=64 v=127
38224 On ch=1 n=c6 v=0
38224 On ch=1 n=a6 v=0
38224 On ch=1 n=f#6 v=0
38240 On ch=1 n=e7 v=37
38240 On ch=1 n=g7 v=39
38240 On ch=1 n=c8 v=44
38240 Par ch=1 c=64 v=0
38320 Par ch=1 c=64 v=127
38384 On ch=1 n=c8 v=0
38384 On ch=1 n=g7 v=0
38384 On ch=1 n=e7 v=0
38400 On ch=1 n=f#7 v=37
38400 On ch=1 n=b7 v=42
38400 On ch=1 n=d7 v=35
38400 Par ch=1 c=64 v=0
38480 Par ch=1 c=64 v=127
38544 On ch=1 n=d7 v=0
38544 On ch=1 n=b7 v=0
38544 On ch=1 n=f#7 v=0
38560 On ch=1 n=f#7 v=35
38560 On ch=1 n=a7 v=40
38560 On ch=1 n=c7 v=33
38560 Par ch=1 c=64 v=0
38640 Par ch=1 c=64 v=127
38720 Par ch=1 c=64 v=0
38800 Par ch=1 c=64 v=127
38848 On ch=1 n=c7 v=0
38848 On ch=1 n=a7 v=0
38848 On ch=1 n=f#7 v=0
39040 On ch=1 n=g5 v=54
39040 On ch=1 n=g4 v=39
39184 On ch=1 n=g4 v=0
39200 On ch=1 n=b4 v=40
39328 On ch=1 n=g5 v=0
39344 On ch=1 n=b4 v=0
39360 On ch=1 n=e5 v=41
39504 On ch=1 n=e5 v=0
39520 On ch=1 n=b4 v=39
39664 On ch=1 n=b4 v=0
39680 On ch=1 n=e5 v=39
39680 On ch=1 n=a5 v=44
39680 On ch=1 n=c5 v=37
39680 Par ch=1 c=64 v=0
39720 Par ch=1 c=64 v=127
39824 On ch=1 n=c5 v=0
39824 On ch=1 n=a5 v=0
39824 On ch=1 n=e5 v=0
39840 On ch=1 n=b4 v=35
39840 On ch=1 n=d#5 v=37
39840 On ch=1 n=g5 v=42
39840 Par ch=1 c=64 v=0
39920 Par ch=1 c=64 v=127
39984 On ch=1 n=g5 v=0
39984 On ch=1 n=b4 v=0
40000 On ch=1 n=a4 v=33
40000 On ch=1 n=f#5 v=40
40000 Par ch=1 c=64 v=0
40080 Par ch=1 c=64 v=127
40144 On ch=1 n=f#5 v=0
40144 On ch=1 n=a4 v=0
40144 On ch=1 n=d#5 v=0
40160 On ch=1 n=e6 v=39
40160 On ch=1 n=a6 v=44
40160 On ch=1 n=c6 v=37
40160 Par ch=1 c=64 v=0
40240 Par ch=1 c=64 v=127
40304 On ch=1 n=c6 v=0
40304 On ch=1 n=a6 v=0
40304 On ch=1 n=e6 v=0
40320 On ch=1 n=b5 v=35
40320 On ch=1 n=d#6 v=37
40320 On ch=1 n=g6 v=42
40320 Par ch=1 c=64 v=0
40400 Par ch=1 c=64 v=127
40464 On ch=1 n=g6 v=0
40464 On ch=1 n=b5 v=0
40480 On ch=1 n=a5 v=33
40480 On ch=1 n=f#6 v=40
40480 Par ch=1 c=64 v=0
40560 Par ch=1 c=64 v=127
40640 Par ch=1 c=64 v=0
40720 Par ch=1 c=64 v=127
40768 On ch=1 n=f#6 v=0
40768 On ch=1 n=a5 v=0
40768 On ch=1 n=d#6 v=0
40960 On ch=1 n=g6 v=64
40960 On ch=1 n=g5 v=39
41104 On ch=1 n=g5 v=0
41120 On ch=1 n=b5 v=40
41248 On ch=1 n=g6 v=0
41264 On ch=1 n=b5 v=0
41280 On ch=1 n=e6 v=41
41424 On ch=1 n=e6 v=0
41440 On ch=1 n=b5 v=39
41584 On ch=1 n=b5 v=0
41600 On ch=1 n=e6 v=39
41600 On ch=1 n=a6 v=44
41600 On ch=1 n=c6 v=37
41600 Par ch=1 c=64 v=0
41640 Par ch=1 c=64 v=127
41744 On ch=1 n=c6 v=0
41744 On ch=1 n=a6 v=0
41744 On ch=1 n=e6 v=0
41760 On ch=1 n=b5 v=35
41760 On ch=1 n=d#6 v=37
41760 On ch=1 n=g6 v=42
41760 Par ch=1 c=64 v=0
41840 Par ch=1 c=64 v=127
41904 On ch=1 n=g6 v=0
41904 On ch=1 n=b5 v=0
41920 On ch=1 n=a5 v=33
41920 On ch=1 n=f#6 v=40
41920 Par ch=1 c=64 v=0
42000 Par ch=1 c=64 v=127
42064 On ch=1 n=f#6 v=0
42064 On ch=1 n=a5 v=0
42064 On ch=1 n=d#6 v=0
42080 On ch=1 n=e7 v=39
42080 On ch=1 n=a7 v=44
42080 On ch=1 n=c7 v=37
42080 Par ch=1 c=64 v=0
42160 Par ch=1 c=64 v=127
42224 On ch=1 n=c7 v=0
42224 On ch=1 n=a7 v=0
42224 On ch=1 n=e7 v=0
42240 On ch=1 n=b6 v=35
42240 On ch=1 n=d#7 v=37
42240 On ch=1 n=g7 v=42
42240 Par ch=1 c=64 v=0
42320 Par ch=1 c=64 v=127
42384 On ch=1 n=g7 v=0
42384 On ch=1 n=d#7 v=0
42384 On ch=1 n=b6 v=0
42400 On ch=1 n=a6 v=33
42400 On ch=1 n=d#7 v=35
42400 On ch=1 n=f#7 v=40
42400 Par ch=1 c=64 v=0
42480 Par ch=1 c=64 v=127
42544 On ch=1 n=f#7 v=0
42544 On ch=1 n=d#7 v=0
42544 On ch=1 n=a6 v=0
42560 On ch=1 n=a5 v=37
42560 On ch=1 n=f#6 v=44
42560 On ch=1 n=c6 v=39
42560 Par ch=1 c=64 v=0
42640 Par ch=1 c=64 v=127
42704 On ch=1 n=c6 v=0
42704 On ch=1 n=f#6 v=0
42704 On ch=1 n=a5 v=0
42720 On ch=1 n=b5 v=37
42720 On ch=1 n=e6 v=42
42720 On ch=1 n=g5 v=35
42720 Par ch=1 c=64 v=0
42800 Par ch=1 c=64 v=127
42864 On ch=1 n=g5 v=0
42864 On ch=1 n=e6 v=0
42864 On ch=1 n=b5 v=0
42880 On ch=1 n=f#5 v=33
42880 On ch=1 n=a5 v=35
42880 On ch=1 n=d#6 v=40
42880 Par ch=1 c=64 v=0
42960 Par ch=1 c=64 v=127
43024 On ch=1 n=d#6 v=0
43024 On ch=1 n=a5 v=0
43024 On ch=1 n=f#5 v=0
43040 On ch=1 n=a6 v=37
43040 On ch=1 n=f#7 v=44
43040 On ch=1 n=c7 v=39
43040 Par ch=1 c=64 v=0
43120 Par ch=1 c=64 v=127
43184 On ch=1 n=c7 v=0
43184 On ch=1 n=f#7 v=0
43184 On ch=1 n=a6 v=0
43200 On ch=1 n=b6 v=37
43200 On ch=1 n=e7 v=42
43200 On ch=1 n=g6 v=35
43200 Par ch=1 c=64 v=0
43280 Par ch=1 c=64 v=127
43344 On ch=1 n=g6 v=0
43344 On ch=1 n=e7 v=0
43344 On ch=1 n=b6 v=0
43360 On ch=1 n=f#6 v=33
43360 On ch=1 n=a6 v=35
43360 On ch=1 n=d#7 v=40
43360 Par ch=1 c=64 v=0
43440 Par ch=1 c=64 v=127
43504 On ch=1 n=d#7 v=0
43504 On ch=1 n=a6 v=0
43504 On ch=1 n=f#6 v=0
43520 On ch=1 n=f#5 v=37
43520 On ch=1 n=a5 v=39
43520 On ch=1 n=d6 v=44
43520 Par ch=1 c=64 v=0
43600 Par ch=1 c=64 v=127
43664 On ch=1 n=d6 v=0
43664 On ch=1 n=a5 v=0
43664 On ch=1 n=f#5 v=0
43680 On ch=1 n=c6 v=42
43680 On ch=1 n=e5 v=35
43680 On ch=1 n=g5 v=37
43680 Par ch=1 c=64 v=0
43760 Par ch=1 c=64 v=127
43824 On ch=1 n=g5 v=0
43824 On ch=1 n=e5 v=0
43824 On ch=1 n=c6 v=0
43840 On ch=1 n=f#5 v=35
43840 On ch=1 n=b5 v=40
43840 On ch=1 n=d#5 v=33
43840 Par ch=1 c=64 v=0
43920 Par ch=1 c=64 v=127
43984 On ch=1 n=d#5 v=0
43984 On ch=1 n=b5 v=0
43984 On ch=1 n=f#5 v=0
44000 On ch=1 n=f#6 v=31
44000 On ch=1 n=a6 v=33
44000 On ch=1 n=d7 v=38
44000 Par ch=1 c=64 v=0
44080 Par ch=1 c=64 v=127
44144 On ch=1 n=d7 v=0
44144 On ch=1 n=a6 v=0
44144 On ch=1 n=f#6 v=0
44160 On ch=1 n=e6 v=29
44160 On ch=1 n=c7 v=36
44160 On ch=1 n=g6 v=31
44160 Par ch=1 c=64 v=0
44240 Par ch=1 c=64 v=127
44304 On ch=1 n=g6 v=0
44304 On ch=1 n=c7 v=0
44304 On ch=1 n=e6 v=0
44320 On ch=1 n=d#6 v=27
44320 On ch=1 n=f#6 v=29
44320 On ch=1 n=b6 v=34
44320 Par ch=1 c=64 v=0
44400 Par ch=1 c=64 v=127
44464 On ch=1 n=b6 v=0
44464 On ch=1 n=f#6 v=0
44464 On ch=1 n=d#6 v=0
44520 Par ch=1 c=64 v=0
45840 Par ch=1 c=64 v=127
46080 Par ch=1 c=64 v=0
46320 Par ch=1 c=64 v=127
46560 Par ch=1 c=64 v=0
46722 Par ch=1 c=64 v=127
48600 Par ch=1 c=64 v=0
49560 Par ch=1 c=64 v=127
49920 On ch=1 n=a4 v=71
49920 On ch=1 n=e5 v=66
49920 On ch=1 n=f#5 v=66
50352 On ch=1 n=f#5 v=0
50352 On ch=1 n=e5 v=0
50352 On ch=1 n=a4 v=0
50400 Par ch=1 c=64 v=0
50520 Par ch=1 c=64 v=127
50640 On ch=1 n=a4 v=69
50640 On ch=1 n=d#5 v=64
50640 On ch=1 n=f#5 v=64
51072 On ch=1 n=f#5 v=0
51120 On ch=1 n=g5 v=50
51120 Par ch=1 c=64 v=0
51180 Par ch=1 c=64 v=127
51300 Par ch=1 c=64 v=0
51336 On ch=1 n=g5 v=0
51336 On ch=1 n=d#5 v=0
51336 On ch=1 n=a4 v=0
51360 Par ch=1 c=64 v=127
51840 On ch=1 n=b4 v=38
51900 On ch=1 n=e5 v=33
51904 On ch=1 n=e5 v=0
51904 On ch=1 n=b4 v=0
51960 On ch=1 n=g#5 v=33
51961 On ch=1 n=g#5 v=0
52080 Par ch=1 c=64 v=0
52560 Par ch=1 c=64 v=127
52800 On ch=1 n=b4 v=36
52860 On ch=1 n=d#5 v=31
52864 On ch=1 n=d#5 v=0
52864 On ch=1 n=b4 v=0
52920 On ch=1 n=a5 v=31
52921 On ch=1 n=a5 v=0
53220 Par ch=1 c=64 v=0
53280 Par ch=1 c=64 v=127
53760 On ch=1 n=b4 v=38
53820 On ch=1 n=e5 v=33
53824 On ch=1 n=e5 v=0
53824 On ch=1 n=b4 v=0
53880 On ch=1 n=g#5 v=33
53881 On ch=1 n=g#5 v=0
54000 Par ch=1 c=64 v=0
54240 Par ch=1 c=64 v=127
54480 Par ch=1 c=64 v=0
54600 Par ch=1 c=64 v=127
54720 On ch=1 n=b4 v=36
54780 On ch=1 n=d#5 v=31
54784 On ch=1 n=d#5 v=0
54784 On ch=1 n=b4 v=0
54840 On ch=1 n=a5 v=31
54841 On ch=1 n=a5 v=0
54960 Par ch=1 c=64 v=0
55080 Par ch=1 c=64 v=127
55680 On ch=1 n=b4 v=38
55740 On ch=1 n=e5 v=33
55744 On ch=1 n=e5 v=0
55744 On ch=1 n=b4 v=0
55800 On ch=1 n=g#5 v=33
55801 On ch=1 n=g#5 v=0
55920 Par ch=1 c=64 v=0
56040 Par ch=1 c=64 v=127
56160 Par ch=1 c=64 v=0
56400 Par ch=1 c=64 v=127
56640 On ch=1 n=d5 v=36
56700 On ch=1 n=e5 v=31
56704 On ch=1 n=e5 v=0
56704 On ch=1 n=d5 v=0
56760 On ch=1 n=g#5 v=31
56761 On ch=1 n=g#5 v=0
56880 Par ch=1 c=64 v=0
57000 Par ch=1 c=64 v=127
57600 On ch=1 n=e5 v=53
57660 On ch=1 n=a5 v=48
57664 On ch=1 n=a5 v=0
57664 On ch=1 n=e5 v=0
57840 Par ch=1 c=64 v=0
57960 Par ch=1 c=64 v=127
58080 Par ch=1 c=64 v=0
58200 Par ch=1 c=64 v=127
58560 On ch=1 n=e5 v=46
58620 On ch=1 n=a5 v=41
58624 On ch=1 n=a5 v=0
58624 On ch=1 n=e5 v=0
58680 On ch=1 n=c#6 v=41
58681 On ch=1 n=c#6 v=0
58980 Par ch=1 c=64 v=0
59040 Par ch=1 c=64 v=127
59520 On ch=1 n=c#5 v=38
59580 On ch=1 n=f#5 v=33
59584 On ch=1 n=f#5 v=0
59584 On ch=1 n=c#5 v=0
59640 On ch=1 n=a5 v=33
59641 On ch=1 n=a5 v=0
59760 Par ch=1 c=64 v=0
60120 Par ch=1 c=64 v=127
60480 On ch=1 n=d5 v=36
60540 On ch=1 n=f5 v=31
60544 On ch=1 n=f5 v=0
60544 On ch=1 n=d5 v=0
60600 On ch=1 n=b5 v=31
60601 On ch=1 n=b5 v=0
60900 Par ch=1 c=64 v=0
60960 Par ch=1 c=64 v=127
61440 On ch=1 n=c#5 v=38
61500 On ch=1 n=f#5 v=33
61504 On ch=1 n=f#5 v=0
61504 On ch=1 n=c#5 v=0
61560 On ch=1 n=a5 v=33
61561 On ch=1 n=a5 v=0
61680 Par ch=1 c=64 v=0
61980 Par ch=1 c=64 v=127
62160 Par ch=1 c=64 v=0
62280 Par ch=1 c=64 v=127
62400 On ch=1 n=d5 v=36
62460 On ch=1 n=f5 v=31
62464 On ch=1 n=f5 v=0
62464 On ch=1 n=d5 v=0
62520 On ch=1 n=b5 v=31
62521 On ch=1 n=b5 v=0
62640 Par ch=1 c=64 v=0
62760 Par ch=1 c=64 v=127
63360 On ch=1 n=c#5 v=38
63420 On ch=1 n=f#5 v=33
63424 On ch=1 n=f#5 v=0
63424 On ch=1 n=c#5 v=0
63480 On ch=1 n=a5 v=33
63481 On ch=1 n=a5 v=0
63600 Par ch=1 c=64 v=0
63720 Par ch=1 c=64 v=127
63840 Par ch=1 c=64 v=0
63960 Par ch=1 c=64 v=127
64320 On ch=1 n=c#5 v=41
64380 On ch=1 n=f#5 v=36
64384 On ch=1 n=f#5 v=0
64384 On ch=1 n=c#5 v=0
64440 On ch=1 n=a5 v=36
64441 On ch=1 n=a5 v=0
64560 Par ch=1 c=64 v=0
64680 Par ch=1 c=64 v=127
65280 On ch=1 n=a5 v=54
65340 On ch=1 n=d6 v=49
65344 On ch=1 n=d6 v=0
65344 On ch=1 n=a5 v=0
65520 Par ch=1 c=64 v=0
65640 Par ch=1 c=64 v=127
65760 Par ch=1 c=64 v=0
65880 Par ch=1 c=64 v=127
66240 On ch=1 n=a5 v=47
66300 On ch=1 n=d6 v=42
66304 On ch=1 n=d6 v=0
66304 On ch=1 n=a5 v=0
66360 On ch=1 n=f#6 v=42
66361 On ch=1 n=f#6 v=0
66660 Par ch=1 c=64 v=0
66720 Par ch=1 c=64 v=127
67140 On ch=1 n=a#4 v=49
67140 On ch=1 n=d5 v=44
67200 On ch=1 n=g5 v=44
67416 On ch=1 n=g5 v=0
67416 On ch=1 n=d5 v=0
67416 On ch=1 n=a#4 v=0
67920 Par ch=1 c=64 v=0
67980 Par ch=1 c=64 v=127
68100 On ch=1 n=a4 v=47
68100 On ch=1 n=d5 v=42
68160 On ch=1 n=f#5 v=42
68376 On ch=1 n=f#5 v=0
68376 On ch=1 n=d5 v=0
68376 On ch=1 n=a4 v=0
68640 Par ch=1 c=64 v=0
68760 Par ch=1 c=64 v=127
69120 On ch=1 n=g4 v=49
69120 On ch=1 n=b4 v=44
69120 On ch=1 n=d#5 v=44
69360 On ch=1 n=g4 v=0
69360 On ch=1 n=f#4 v=46
69360 Par ch=1 c=64 v=0
69480 Par ch=1 c=64 v=127
69552 On ch=1 n=d#5 v=0
69552 On ch=1 n=b4 v=0
69600 On ch=1 n=f#4 v=0
69600 On ch=1 n=e4 v=43
69600 On ch=1 n=b4 v=46
69600 On ch=1 n=e5 v=46
69600 Par ch=1 c=64 v=0
69720 Par ch=1 c=64 v=127
69816 On ch=1 n=e5 v=0
69816 On ch=1 n=b4 v=0
69816 On ch=1 n=e4 v=0
69840 Par ch=1 c=64 v=0
69960 Par ch=1 c=64 v=127
70080 Par ch=1 c=64 v=0
70200 Par ch=1 c=64 v=127
70440 Par ch=1 c=64 v=0
70500 Par ch=1 c=64 v=127
70560 Par ch=1 c=64 v=0
70680 Par ch=1 c=64 v=127
70980 On ch=1 n=b4 v=44
70980 On ch=1 n=g4 v=49
71040 On ch=1 n=e5 v=44
71256 On ch=1 n=e5 v=0
71256 On ch=1 n=g4 v=0
71256 On ch=1 n=b4 v=0
71280 Par ch=1 c=64 v=0
71640 Par ch=1 c=64 v=127
71940 On ch=1 n=f#4 v=47
71940 On ch=1 n=b4 v=42
72000 On ch=1 n=d#5 v=42
72216 On ch=1 n=d#5 v=0
72216 On ch=1 n=b4 v=0
72216 On ch=1 n=f#4 v=0
72240 Par ch=1 c=64 v=0
72480 Par ch=1 c=64 v=127
72720 On ch=1 n=b4 v=42
72720 On ch=1 n=e5 v=42
72720 On ch=1 n=g4 v=47
72936 On ch=1 n=g4 v=0
72936 On ch=1 n=e5 v=0
72936 On ch=1 n=b4 v=0
72960 Par ch=1 c=64 v=0
73200 On ch=1 n=a4 v=47
73200 On ch=1 n=e5 v=46
73200 On ch=1 n=c5 v=42
73200 Par ch=1 c=64 v=127
73416 On ch=1 n=c5 v=0
73416 On ch=1 n=a4 v=0
73440 On ch=1 n=b4 v=46
73440 On ch=1 n=g4 v=51
73440 Par ch=1 c=64 v=0
73560 Par ch=1 c=64 v=127
73656 On ch=1 n=g4 v=0
73656 On ch=1 n=b4 v=0
73656 On ch=1 n=e5 v=0
73860 Par ch=1 c=64 v=0
73920 On ch=1 n=e5 v=74
73920 Par ch=1 c=64 v=127
73980 On ch=1 n=g5 v=69
74040 On ch=1 n=e6 v=74
74352 On ch=1 n=e6 v=0
74352 On ch=1 n=g5 v=0
74352 On ch=1 n=e5 v=0
74400 On ch=1 n=d5 v=80
74400 On ch=1 n=g5 v=75
74400 On ch=1 n=d6 v=80
74400 Par ch=1 c=64 v=0
74520 Par ch=1 c=64 v=127
75048 On ch=1 n=d6 v=0
75048 On ch=1 n=g5 v=0
75048 On ch=1 n=d5 v=0
75120 On ch=1 n=e5 v=74
75120 On ch=1 n=e6 v=74
75120 On ch=1 n=g5 v=69
75120 Par ch=1 c=64 v=0
75240 Par ch=1 c=64 v=127
75336 On ch=1 n=g5 v=0
75336 On ch=1 n=e6 v=0
75336 On ch=1 n=e5 v=0
75360 On ch=1 n=d5 v=78
75360 On ch=1 n=g5 v=73
75360 On ch=1 n=d6 v=78
75360 Par ch=1 c=64 v=0
75480 Par ch=1 c=64 v=127
75576 On ch=1 n=d6 v=0
75576 On ch=1 n=g5 v=0
75576 On ch=1 n=d5 v=0
75600 On ch=1 n=d5 v=74
75600 On ch=1 n=c6 v=74
75600 On ch=1 n=f#5 v=69
75600 Par ch=1 c=64 v=0
75720 Par ch=1 c=64 v=127
76248 On ch=1 n=f#5 v=0
76248 On ch=1 n=c6 v=0
76248 On ch=1 n=d5 v=0
76320 On ch=1 n=b4 v=80
76320 On ch=1 n=b5 v=80
76320 On ch=1 n=d5 v=75
76320 Par ch=1 c=64 v=0
76440 Par ch=1 c=64 v=127
76968 On ch=1 n=d5 v=0
76968 On ch=1 n=b5 v=0
76968 On ch=1 n=b4 v=0
77040 On ch=1 n=b4 v=74
77040 On ch=1 n=d#5 v=69
77040 On ch=1 n=a5 v=69
77040 Par ch=1 c=64 v=0
77160 Par ch=1 c=64 v=127
77169 On ch=1 n=a5 v=0
77169 On ch=1 n=d#5 v=0
77169 On ch=1 n=b4 v=0
77280 On ch=1 n=b4 v=73
77280 On ch=1 n=g4 v=78
77280 On ch=1 n=g5 v=78
77280 Par ch=1 c=64 v=0
77400 On ch=1 n=g5 v=0
77400 On ch=1 n=f#5 v=76
77520 On ch=1 n=f#5 v=0
77520 On ch=1 n=e5 v=74
77640 Par ch=1 c=64 v=127
77712 On ch=1 n=g4 v=0
77712 On ch=1 n=b4 v=0
77952 On ch=1 n=e5 v=0
78060 Par ch=1 c=64 v=0
78360 Par ch=1 c=64 v=127
78660 On ch=1 n=e5 v=31
78660 On ch=1 n=g#4 v=36
78660 On ch=1 n=c#5 v=31
78714 On ch=1 n=c#5 v=0
78714 On ch=1 n=g#4 v=0
78714 On ch=1 n=e5 v=0
78720 On ch=1 n=e5 v=33
78720 On ch=1 n=g#4 v=38
78720 On ch=1 n=c#5 v=33
78936 On ch=1 n=c#5 v=0
78936 On ch=1 n=g#4 v=0
78936 On ch=1 n=e5 v=0
78960 Par ch=1 c=64 v=0
79320 Par ch=1 c=64 v=127
79620 On ch=1 n=f#4 v=34
79620 On ch=1 n=d#5 v=29
79620 On ch=1 n=g#5 v=29
79620 On ch=1 n=c5 v=29
79674 On ch=1 n=c5 v=0
79674 On ch=1 n=g#5 v=0
79674 On ch=1 n=d#5 v=0
79674 On ch=1 n=f#4 v=0
79680 On ch=1 n=f#4 v=36
79680 On ch=1 n=d#5 v=31
79680 On ch=1 n=g#5 v=31
79680 On ch=1 n=c5 v=31
79896 On ch=1 n=c5 v=0
79896 On ch=1 n=g#5 v=0
79896 On ch=1 n=d#5 v=0
79896 On ch=1 n=f#4 v=0
79920 Par ch=1 c=64 v=0
80160 Par ch=1 c=64 v=127
80400 On ch=1 n=e4 v=40
80400 On ch=1 n=g#4 v=35
80400 On ch=1 n=c#5 v=35
80616 On ch=1 n=c#5 v=0
80616 On ch=1 n=g#4 v=0
80616 On ch=1 n=e4 v=0
80640 Par ch=1 c=64 v=0
80760 Par ch=1 c=64 v=127
80880 On ch=1 n=e4 v=36
80880 On ch=1 n=g#4 v=31
80880 On ch=1 n=c#5 v=31
81096 On ch=1 n=c#5 v=0
81096 On ch=1 n=g#4 v=0
81096 On ch=1 n=e4 v=0
81120 Par ch=1 c=64 v=0
81240 Par ch=1 c=64 v=127
81360 On ch=1 n=e4 v=38
81360 On ch=1 n=g#4 v=33
81360 On ch=1 n=c#5 v=33
81576 On ch=1 n=c#5 v=0
81576 On ch=1 n=g#4 v=0
81576 On ch=1 n=e4 v=0
81600 Par ch=1 c=64 v=0
81720 Par ch=1 c=64 v=127
81840 On ch=1 n=e4 v=34
81840 On ch=1 n=g#4 v=29
81840 On ch=1 n=c#5 v=29
82056 On ch=1 n=c#5 v=0
82056 On ch=1 n=g#4 v=0
82056 On ch=1 n=e4 v=0
82080 Par ch=1 c=64 v=0
82200 Par ch=1 c=64 v=127
84420 Par ch=1 c=64 v=0
84480 On ch=1 n=g#5 v=47
84480 Par ch=1 c=64 v=127
84600 On ch=1 n=e3 v=28
84708 On ch=1 n=e3 v=0
84720 On ch=1 n=b3 v=29
84828 On ch=1 n=b3 v=0
84840 On ch=1 n=e4 v=30
84948 On ch=1 n=e4 v=0
84960 On ch=1 n=g#4 v=31
85068 On ch=1 n=g#4 v=0
85080 On ch=1 n=b4 v=32
85188 On ch=1 n=b4 v=0
85200 On ch=1 n=e5 v=33
85308 On ch=1 n=e5 v=0
85320 On ch=1 n=g#5 v=0
85320 On ch=1 n=a5 v=36
85380 On ch=1 n=a5 v=0
85380 On ch=1 n=g#5 v=38
85434 On ch=1 n=g#5 v=0
85440 On ch=1 n=f#5 v=40
85440 Par ch=1 c=64 v=0
85560 On ch=1 n=d#5 v=35
85560 Par ch=1 c=64 v=127
85680 On ch=1 n=b4 v=34
85800 On ch=1 n=a4 v=33
85920 On ch=1 n=d#4 v=32
86028 On ch=1 n=d#4 v=0
86040 On ch=1 n=c4 v=39
86136 On ch=1 n=a4 v=0
86136 On ch=1 n=b4 v=0
86136 On ch=1 n=d#5 v=0
86256 On ch=1 n=c4 v=0
86280 On ch=1 n=b3 v=27
86304 On ch=1 n=f#5 v=0
86388 On ch=1 n=b3 v=0
86400 On ch=1 n=g#5 v=47
86400 Par ch=1 c=64 v=0
86520 On ch=1 n=e3 v=28
86520 Par ch=1 c=64 v=127
86628 On ch=1 n=e3 v=0
86640 On ch=1 n=b3 v=29
86748 On ch=1 n=b3 v=0
86760 On ch=1 n=e4 v=30
86868 On ch=1 n=e4 v=0
86880 On ch=1 n=g#4 v=31
86988 On ch=1 n=g#4 v=0
87000 On ch=1 n=b4 v=32
87108 On ch=1 n=b4 v=0
87120 On ch=1 n=e5 v=33
87228 On ch=1 n=e5 v=0
87240 On ch=1 n=g#5 v=0
87240 On ch=1 n=a5 v=36
87360 On ch=1 n=a5 v=0
87360 On ch=1 n=g#5 v=38
87468 On ch=1 n=g#5 v=0
87480 On ch=1 n=f#5 v=40
87480 On ch=1 n=d#5 v=35
87480 Par ch=1 c=64 v=0
87600 On ch=1 n=b4 v=34
87600 Par ch=1 c=64 v=127
87720 On ch=1 n=a4 v=33
87840 On ch=1 n=d#4 v=31
87912 On ch=1 n=f#5 v=0
87948 On ch=1 n=d#4 v=0
87960 On ch=1 n=c4 v=39
88056 On ch=1 n=a4 v=0
88056 On ch=1 n=b4 v=0
88056 On ch=1 n=d#5 v=0
88176 On ch=1 n=c4 v=0
88200 On ch=1 n=d#5 v=34
88200 On ch=1 n=g5 v=36
88200 On ch=1 n=b3 v=27
88200 Par ch=1 c=64 v=0
88260 Par ch=1 c=64 v=127
88308 On ch=1 n=b3 v=0
88308 On ch=1 n=g5 v=0
88308 On ch=1 n=d#5 v=0
88320 On ch=1 n=e5 v=36
88320 On ch=1 n=g#5 v=38
88320 Par ch=1 c=64 v=0
88440 On ch=1 n=e3 v=28
88440 Par ch=1 c=64 v=127
88536 On ch=1 n=g#5 v=0
88536 On ch=1 n=e5 v=0
88548 On ch=1 n=e3 v=0
88560 On ch=1 n=e5 v=38
88560 On ch=1 n=g#5 v=40
88560 On ch=1 n=b3 v=29
88668 On ch=1 n=b3 v=0
88680 On ch=1 n=e4 v=30
88788 On ch=1 n=e4 v=0
88800 On ch=1 n=g#4 v=31
88908 On ch=1 n=g#4 v=0
88920 On ch=1 n=b4 v=32
89028 On ch=1 n=b4 v=0
89040 On ch=1 n=b4 v=33
89148 On ch=1 n=b4 v=0
89160 On ch=1 n=g5 v=36
89160 On ch=1 n=d#5 v=34
89208 On ch=1 n=g#5 v=0
89208 On ch=1 n=e5 v=0
89268 On ch=1 n=d#5 v=0
89268 On ch=1 n=g5 v=0
89280 On ch=1 n=g#5 v=40
89280 On ch=1 n=e5 v=38
89280 Par ch=1 c=64 v=0
89400 Par ch=1 c=64 v=127
89712 On ch=1 n=e5 v=0
89712 On ch=1 n=g#5 v=0
89760 On ch=1 n=e4 v=31
89790 On ch=1 n=d5 v=29
89820 On ch=1 n=e5 v=27
89850 On ch=1 n=g#5 v=25
89880 On ch=1 n=b5 v=36
89976 On ch=1 n=b5 v=0
90000 On ch=1 n=c6 v=38
90192 On ch=1 n=g#5 v=0
90192 On ch=1 n=e5 v=0
90192 On ch=1 n=d5 v=0
90192 On ch=1 n=e4 v=0
90216 On ch=1 n=c6 v=0
90240 On ch=1 n=c#6 v=40
90240 On ch=1 n=a5 v=38
90240 Par ch=1 c=64 v=0
90300 Par ch=1 c=64 v=127
90304 On ch=1 n=a5 v=0
90304 On ch=1 n=c#6 v=0
90360 On ch=1 n=a3 v=37
90468 On ch=1 n=a3 v=0
90480 On ch=1 n=a5 v=43
90480 On ch=1 n=c#6 v=45
90480 On ch=1 n=e4 v=37
90588 On ch=1 n=e4 v=0
90600 On ch=1 n=a4 v=37
90708 On ch=1 n=a4 v=0
90720 On ch=1 n=c#5 v=37
90828 On ch=1 n=c#5 v=0
90840 On ch=1 n=e5 v=38
90948 On ch=1 n=e5 v=0
90960 On ch=1 n=e5 v=39
91122 On ch=1 n=e5 v=0
91128 On ch=1 n=c#6 v=0
91128 On ch=1 n=a5 v=0
91140 On ch=1 n=c6 v=34
91140 On ch=1 n=g#5 v=32
91194 On ch=1 n=g#5 v=0
91194 On ch=1 n=c6 v=0
91200 On ch=1 n=c#6 v=26
91200 On ch=1 n=a5 v=24
91200 Par ch=1 c=64 v=0
91320 Par ch=1 c=64 v=127
92064 On ch=1 n=a5 v=0
92064 On ch=1 n=c#6 v=0
92100 Par ch=1 c=64 v=0
92160 On ch=1 n=a5 v=47
92160 Par ch=1 c=64 v=127
92280 On ch=1 n=f#3 v=28
92388 On ch=1 n=f#3 v=0
92400 On ch=1 n=c#4 v=29
92508 On ch=1 n=c#4 v=0
92520 On ch=1 n=f#4 v=30
92628 On ch=1 n=f#4 v=0
92640 On ch=1 n=a4 v=31
92748 On ch=1 n=a4 v=0
92760 On ch=1 n=c#5 v=32
92868 On ch=1 n=c#5 v=0
92880 On ch=1 n=f#5 v=33
92988 On ch=1 n=f#5 v=0
93000 On ch=1 n=a5 v=0
93000 On ch=1 n=b5 v=36
93060 On ch=1 n=b5 v=0
93060 On ch=1 n=a5 v=38
93114 On ch=1 n=a5 v=0
93120 On ch=1 n=g#5 v=40
93120 Par ch=1 c=64 v=0
93240 On ch=1 n=f5 v=37
93240 Par ch=1 c=64 v=127
93360 On ch=1 n=d5 v=35
93480 On ch=1 n=b4 v=33
93600 On ch=1 n=f4 v=31
93708 On ch=1 n=f4 v=0
93720 On ch=1 n=d4 v=29
93816 On ch=1 n=b4 v=0
93816 On ch=1 n=d5 v=0
93816 On ch=1 n=f5 v=0
93936 On ch=1 n=d4 v=0
93960 On ch=1 n=c#4 v=27
93984 On ch=1 n=g#5 v=0
94068 On ch=1 n=c#4 v=0
94080 On ch=1 n=a5 v=47
94080 Par ch=1 c=64 v=0
94200 On ch=1 n=f#3 v=28
94200 Par ch=1 c=64 v=127
94308 On ch=1 n=f#3 v=0
94320 On ch=1 n=c#4 v=29
94428 On ch=1 n=c#4 v=0
94440 On ch=1 n=f#4 v=30
94548 On ch=1 n=f#4 v=0
94560 On ch=1 n=a4 v=31
94668 On ch=1 n=a4 v=0
94680 On ch=1 n=c#5 v=32
94788 On ch=1 n=c#5 v=0
94800 On ch=1 n=f#5 v=33
94908 On ch=1 n=f#5 v=0
94920 On ch=1 n=a5 v=0
94920 On ch=1 n=b5 v=36
95040 On ch=1 n=b5 v=0
95040 On ch=1 n=a5 v=38
95148 On ch=1 n=a5 v=0
95160 On ch=1 n=g#5 v=40
95160 On ch=1 n=f5 v=37
95160 Par ch=1 c=64 v=0
95280 On ch=1 n=d5 v=35
95280 Par ch=1 c=64 v=127
95400 On ch=1 n=b4 v=33
95520 On ch=1 n=f4 v=31
95592 On ch=1 n=g#5 v=0
95628 On ch=1 n=f4 v=0
95640 On ch=1 n=d4 v=29
95736 On ch=1 n=b4 v=0
95736 On ch=1 n=d5 v=0
95736 On ch=1 n=f5 v=0
95856 On ch=1 n=d4 v=0
95880 On ch=1 n=g#5 v=36
95880 On ch=1 n=f5 v=34
95880 On ch=1 n=c#4 v=27
95880 Par ch=1 c=64 v=0
95940 Par ch=1 c=64 v=127
95988 On ch=1 n=c#4 v=0
95988 On ch=1 n=f5 v=0
95988 On ch=1 n=g#5 v=0
96000 On ch=1 n=f#5 v=36
96000 On ch=1 n=a5 v=38
96000 Par ch=1 c=64 v=0
96120 On ch=1 n=f#3 v=28
96120 Par ch=1 c=64 v=127
96216 On ch=1 n=a5 v=0
96216 On ch=1 n=f#5 v=0
96228 On ch=1 n=f#3 v=0
96240 On ch=1 n=f#5 v=38
96240 On ch=1 n=a5 v=40
96240 On ch=1 n=c#4 v=29
96348 On ch=1 n=c#4 v=0
96360 On ch=1 n=f#4 v=30
96468 On ch=1 n=f#4 v=0
96480 On ch=1 n=a4 v=31
96588 On ch=1 n=a4 v=0
96600 On ch=1 n=c#5 v=32
96672 On ch=1 n=a5 v=0
96672 On ch=1 n=f#5 v=0
96708 On ch=1 n=c#5 v=0
96720 On ch=1 n=c#5 v=33
96828 On ch=1 n=c#5 v=0
96840 On ch=1 n=g#5 v=38
96840 On ch=1 n=f5 v=33
96948 On ch=1 n=f5 v=0
96948 On ch=1 n=g#5 v=0
96960 On ch=1 n=a5 v=40
96960 On ch=1 n=f#5 v=35
96960 Par ch=1 c=64 v=0
97080 Par ch=1 c=64 v=127
97392 On ch=1 n=f#5 v=0
97392 On ch=1 n=a5 v=0
97440 On ch=1 n=f#5 v=24
97440 On ch=1 n=a5 v=22
97440 On ch=1 n=c#6 v=36
97440 On ch=1 n=f#4 v=31
97440 On ch=1 n=c#5 v=26
97656 On ch=1 n=c#6 v=0
97680 On ch=1 n=f6 v=38
97872 On ch=1 n=c#5 v=0
97872 On ch=1 n=f#4 v=0
97872 On ch=1 n=a5 v=0
97872 On ch=1 n=f#5 v=0
97896 On ch=1 n=f6 v=0
97920 On ch=1 n=f#6 v=40
97920 On ch=1 n=d6 v=38
97920 Par ch=1 c=64 v=0
97980 Par ch=1 c=64 v=127
97984 On ch=1 n=d6 v=0
97984 On ch=1 n=f#6 v=0
98040 On ch=1 n=d4 v=32
98148 On ch=1 n=d4 v=0
98160 On ch=1 n=f#6 v=45
98160 On ch=1 n=d6 v=43
98160 On ch=1 n=a4 v=33
98268 On ch=1 n=a4 v=0
98280 On ch=1 n=d5 v=34
98388 On ch=1 n=d5 v=0
98400 On ch=1 n=f#5 v=35
98508 On ch=1 n=f#5 v=0
98520 On ch=1 n=a5 v=36
98628 On ch=1 n=a5 v=0
98640 On ch=1 n=a5 v=37
98748 On ch=1 n=a5 v=0
98760 On ch=1 n=f6 v=43
98760 On ch=1 n=c#6 v=38
98808 On ch=1 n=d6 v=0
98808 On ch=1 n=f#6 v=0
98868 On ch=1 n=c#6 v=0
98868 On ch=1 n=f6 v=0
98880 On ch=1 n=d6 v=43
98880 On ch=1 n=f#6 v=45
98880 Par ch=1 c=64 v=0
99000 Par ch=1 c=64 v=127
99300 Par ch=1 c=64 v=0
99744 On ch=1 n=f#6 v=0
99744 On ch=1 n=d6 v=0
99840 On ch=1 n=d6 v=43
99840 Par ch=1 c=64 v=127
99960 On ch=1 n=d5 v=20
100068 On ch=1 n=d5 v=0
100080 On ch=1 n=g5 v=21
100188 On ch=1 n=g5 v=0
100200 On ch=1 n=c#6 v=22
100308 On ch=1 n=c#6 v=0
100320 On ch=1 n=d6 v=23
100428 On ch=1 n=d6 v=0
100440 On ch=1 n=d7 v=24
100488 On ch=1 n=d6 v=0
100548 On ch=1 n=d7 v=0
100560 On ch=1 n=d#7 v=25
100668 On ch=1 n=d#7 v=0
100680 On ch=1 n=d#6 v=29
100788 On ch=1 n=d#6 v=0
100800 On ch=1 n=d6 v=31
100800 Par ch=1 c=64 v=0
100920 On ch=1 n=d5 v=20
100920 Par ch=1 c=64 v=127
101028 On ch=1 n=d5 v=0
101040 On ch=1 n=a5 v=21
101148 On ch=1 n=a5 v=0
101160 On ch=1 n=c#6 v=22
101268 On ch=1 n=c#6 v=0
101280 On ch=1 n=d6 v=23
101388 On ch=1 n=d6 v=0
101400 On ch=1 n=d7 v=24
101448 On ch=1 n=d6 v=0
101508 On ch=1 n=d7 v=0
101520 On ch=1 n=c7 v=25
101628 On ch=1 n=c7 v=0
101640 On ch=1 n=c6 v=29
101748 On ch=1 n=c6 v=0
101760 On ch=1 n=b5 v=33
101760 Par ch=1 c=64 v=0
101880 On ch=1 n=d5 v=20
101880 Par ch=1 c=64 v=127
101988 On ch=1 n=d5 v=0
102000 On ch=1 n=g5 v=21
102108 On ch=1 n=g5 v=0
102120 On ch=1 n=a#5 v=22
102228 On ch=1 n=a#5 v=0
102240 On ch=1 n=b5 v=23
102348 On ch=1 n=b5 v=0
102360 On ch=1 n=b6 v=24
102468 On ch=1 n=b6 v=0
102480 On ch=1 n=a6 v=25
102588 On ch=1 n=a6 v=0
102588 On ch=1 n=b5 v=0
102600 On ch=1 n=a5 v=29
102708 On ch=1 n=a5 v=0
102720 On ch=1 n=g5 v=31
102720 Par ch=1 c=64 v=0
102840 On ch=1 n=g6 v=24
102840 Par ch=1 c=64 v=127
102948 On ch=1 n=g6 v=0
102960 On ch=1 n=f#6 v=25
103044 On ch=1 n=g5 v=0
103068 On ch=1 n=f#6 v=0
103080 On ch=1 n=f#5 v=28
103188 On ch=1 n=f#5 v=0
103200 On ch=1 n=f5 v=30
103320 On ch=1 n=f6 v=24
103428 On ch=1 n=f6 v=0
103440 On ch=1 n=e6 v=25
103524 On ch=1 n=f5 v=0
103548 On ch=1 n=e6 v=0
103560 On ch=1 n=e5 v=27
103668 On ch=1 n=e5 v=0
103680 On ch=1 n=g5 v=31
103680 Par ch=1 c=64 v=0
103800 On ch=1 n=g6 v=25
103800 Par ch=1 c=64 v=127
103908 On ch=1 n=g6 v=0
103920 On ch=1 n=a6 v=26
104004 On ch=1 n=g5 v=0
104028 On ch=1 n=a6 v=0
104040 On ch=1 n=a5 v=30
104148 On ch=1 n=a5 v=0
104160 On ch=1 n=a#5 v=31
104280 On ch=1 n=a#6 v=25
104388 On ch=1 n=a#6 v=0
104400 On ch=1 n=b6 v=26
104484 On ch=1 n=a#5 v=0
104508 On ch=1 n=b6 v=0
104520 On ch=1 n=b5 v=35
104628 On ch=1 n=b5 v=0
104640 On ch=1 n=c6 v=36
104760 On ch=1 n=c7 v=30
104868 On ch=1 n=c7 v=0
104880 On ch=1 n=c#7 v=31
104880 Par ch=1 c=64 v=0
104964 On ch=1 n=c6 v=0
104988 On ch=1 n=c#7 v=0
105000 On ch=1 n=c#6 v=41
105000 Par ch=1 c=64 v=127
105108 On ch=1 n=c#6 v=0
105120 On ch=1 n=d6 v=42
105240 On ch=1 n=d7 v=36
105348 On ch=1 n=d7 v=0
105360 On ch=1 n=d#7 v=37
105444 On ch=1 n=d6 v=0
105468 On ch=1 n=d#7 v=0
105480 On ch=1 n=d#6 v=46
105588 On ch=1 n=d#6 v=0
105600 On ch=1 n=e6 v=47
105720 On ch=1 n=e7 v=41
105828 On ch=1 n=e7 v=0
105840 On ch=1 n=g7 v=42
105840 Par ch=1 c=64 v=0
105924 On ch=1 n=e6 v=0
105948 On ch=1 n=g7 v=0
105960 On ch=1 n=g6 v=43
105960 Par ch=1 c=64 v=127
106068 On ch=1 n=g6 v=0
106080 On ch=1 n=a#6 v=45
106200 On ch=1 n=a#7 v=39
106308 On ch=1 n=a#7 v=0
106320 On ch=1 n=b7 v=40
106404 On ch=1 n=a#6 v=0
106428 On ch=1 n=b7 v=0
106440 On ch=1 n=b6 v=43
106548 On ch=1 n=b6 v=0
106560 On ch=1 n=d#7 v=46
106680 On ch=1 n=d#8 v=40
106788 On ch=1 n=d#8 v=0
106800 On ch=1 n=e8 v=41
106884 On ch=1 n=d#7 v=0
106908 On ch=1 n=e8 v=0
106920 On ch=1 n=e7 v=39
107028 On ch=1 n=e7 v=0
107280 On ch=1 n=g6 v=49
107280 On ch=1 n=e7 v=54
107280 On ch=1 n=e6 v=54
107280 Par ch=1 c=64 v=0
107400 Par ch=1 c=64 v=127
107496 On ch=1 n=e6 v=0
107496 On ch=1 n=e7 v=0
107496 On ch=1 n=g6 v=0
107520 On ch=1 n=d7 v=47
107520 Par ch=1 c=64 v=0
107640 On ch=1 n=d6 v=35
107640 Par ch=1 c=64 v=127
107748 On ch=1 n=d6 v=0
107760 On ch=1 n=g6 v=36
107868 On ch=1 n=g6 v=0
107880 On ch=1 n=c#7 v=37
107988 On ch=1 n=c#7 v=0
108000 On ch=1 n=d7 v=38
108108 On ch=1 n=d7 v=0
108120 On ch=1 n=d8 v=39
108168 On ch=1 n=d7 v=0
108228 On ch=1 n=d8 v=0
108240 On ch=1 n=e8 v=40
108348 On ch=1 n=e8 v=0
108360 On ch=1 n=e7 v=43
108468 On ch=1 n=e7 v=0
108480 On ch=1 n=d7 v=45
108480 Par ch=1 c=64 v=0
108600 Par ch=1 c=64 v=127
108600 On ch=1 n=d6 v=35
108708 On ch=1 n=d6 v=0
108720 On ch=1 n=a6 v=36
108828 On ch=1 n=a6 v=0
108840 On ch=1 n=c#7 v=37
108948 On ch=1 n=c#7 v=0
108960 On ch=1 n=d7 v=38
109068 On ch=1 n=d7 v=0
109080 On ch=1 n=d8 v=39
109128 On ch=1 n=d7 v=0
109188 On ch=1 n=d8 v=0
109200 On ch=1 n=c8 v=40
109308 On ch=1 n=c8 v=0
109320 On ch=1 n=c7 v=43
109428 On ch=1 n=c7 v=0
109440 On ch=1 n=b6 v=47
109440 Par ch=1 c=64 v=0
109560 On ch=1 n=d6 v=35
109560 Par ch=1 c=64 v=127
109668 On ch=1 n=d6 v=0
109680 On ch=1 n=g6 v=36
109788 On ch=1 n=g6 v=0
109800 On ch=1 n=a#6 v=37
109908 On ch=1 n=a#6 v=0
109920 On ch=1 n=b6 v=38
110028 On ch=1 n=b6 v=0
110040 On ch=1 n=b7 v=39
110088 On ch=1 n=b6 v=0
110148 On ch=1 n=b7 v=0
110160 On ch=1 n=a7 v=40
110268 On ch=1 n=a7 v=0
110280 On ch=1 n=a6 v=45
110388 On ch=1 n=a6 v=0
110400 On ch=1 n=g6 v=46
110400 Par ch=1 c=64 v=0
110520 On ch=1 n=g7 v=40
110520 Par ch=1 c=64 v=127
110628 On ch=1 n=g7 v=0
110640 On ch=1 n=f#7 v=41
110724 On ch=1 n=g6 v=0
110748 On ch=1 n=f#7 v=0
110760 On ch=1 n=f#6 v=43
110868 On ch=1 n=f#6 v=0
110880 On ch=1 n=f6 v=44
111000 On ch=1 n=f7 v=38
111108 On ch=1 n=f7 v=0
111120 On ch=1 n=e7 v=39
111204 On ch=1 n=f6 v=0
111228 On ch=1 n=e7 v=0
111240 On ch=1 n=e6 v=41
111348 On ch=1 n=e6 v=0
111360 On ch=1 n=e6 v=47
111360 Par ch=1 c=64 v=0
111480 On ch=1 n=e7 v=41
111480 Par ch=1 c=64 v=127
111588 On ch=1 n=e7 v=0
111600 On ch=1 n=d#7 v=42
111684 On ch=1 n=e6 v=0
111708 On ch=1 n=d#7 v=0
111720 On ch=1 n=d#6 v=44
111828 On ch=1 n=d#6 v=0
111840 On ch=1 n=d6 v=45
111960 On ch=1 n=d7 v=39
112068 On ch=1 n=d7 v=0
112080 On ch=1 n=c#7 v=40
112164 On ch=1 n=d6 v=0
112188 On ch=1 n=c#7 v=0
112200 On ch=1 n=c#6 v=45
112308 On ch=1 n=c#6 v=0
112320 On ch=1 n=c6 v=46
112440 On ch=1 n=c7 v=40
112548 On ch=1 n=c7 v=0
112560 On ch=1 n=b6 v=41
112560 Par ch=1 c=64 v=0
112644 On ch=1 n=c6 v=0
112668 On ch=1 n=b6 v=0
112680 On ch=1 n=b5 v=43
112680 Par ch=1 c=64 v=127
112788 On ch=1 n=b5 v=0
112800 On ch=1 n=a5 v=44
112920 On ch=1 n=a6 v=38
113028 On ch=1 n=a6 v=0
113040 On ch=1 n=g#6 v=39
113124 On ch=1 n=a5 v=0
113148 On ch=1 n=g#6 v=0
113160 On ch=1 n=g#5 v=42
113268 On ch=1 n=g#5 v=0
113280 On ch=1 n=e5 v=47
113400 On ch=1 n=e6 v=41
113508 On ch=1 n=e6 v=0
113520 On ch=1 n=d#6 v=42
113520 Par ch=1 c=64 v=0
113604 On ch=1 n=e5 v=0
113628 On ch=1 n=d#6 v=0
113640 On ch=1 n=d#5 v=44
113640 Par ch=1 c=64 v=127
113748 On ch=1 n=d#5 v=0
113760 On ch=1 n=d5 v=45
113880 On ch=1 n=d6 v=39
113988 On ch=1 n=d6 v=0
114000 On ch=1 n=c#6 v=40
114084 On ch=1 n=d5 v=0
114108 On ch=1 n=c#6 v=0
114120 On ch=1 n=c#5 v=45
114228 On ch=1 n=c#5 v=0
114240 On ch=1 n=c5 v=46
114360 On ch=1 n=c6 v=40
114468 On ch=1 n=c6 v=0
114480 On ch=1 n=b5 v=41
114480 Par ch=1 c=64 v=0
114564 On ch=1 n=c5 v=0
114588 On ch=1 n=b5 v=0
114600 On ch=1 n=b4 v=43
114600 Par ch=1 c=64 v=127
114708 On ch=1 n=b4 v=0
114720 On ch=1 n=a4 v=44
114840 On ch=1 n=a5 v=38
114948 On ch=1 n=a5 v=0
114960 On ch=1 n=g#5 v=39
115044 On ch=1 n=a4 v=0
115068 On ch=1 n=g#5 v=0
115080 On ch=1 n=g#4 v=42
115188 On ch=1 n=g#4 v=0
115680 On ch=1 n=g#4 v=40
115680 On ch=1 n=c#5 v=35
115680 On ch=1 n=e5 v=35
115680 Par ch=1 c=64 v=0
115800 Par ch=1 c=64 v=127
115896 On ch=1 n=e5 v=0
115896 On ch=1 n=c#5 v=0
115896 On ch=1 n=g#4 v=0
116640 On ch=1 n=f#4 v=36
116640 On ch=1 n=d#5 v=31
116640 On ch=1 n=g#5 v=31
116640 On ch=1 n=c5 v=31
116640 Par ch=1 c=64 v=0
116760 Par ch=1 c=64 v=127
116856 On ch=1 n=c5 v=0
116856 On ch=1 n=g#5 v=0
116856 On ch=1 n=d#5 v=0
116856 On ch=1 n=f#4 v=0
117120 Par ch=1 c=64 v=0
117240 Par ch=1 c=64 v=127
117360 On ch=1 n=c#5 v=47
117360 On ch=1 n=e4 v=42
117360 On ch=1 n=g#4 v=42
117576 On ch=1 n=g#4 v=0
117576 On ch=1 n=e4 v=0
117600 On ch=1 n=f#4 v=38
117600 On ch=1 n=a4 v=38
117840 On ch=1 n=c#5 v=0
117840 On ch=1 n=c5 v=43
118032 On ch=1 n=a4 v=0
118032 On ch=1 n=f#4 v=0
118056 On ch=1 n=c5 v=0
118080 Par ch=1 c=64 v=0
118200 Par ch=1 c=64 v=127
118320 On ch=1 n=e4 v=31
118320 On ch=1 n=g#4 v=33
118320 On ch=1 n=c#5 v=38
118536 On ch=1 n=g#4 v=0
118536 On ch=1 n=e4 v=0
118560 On ch=1 n=f#4 v=27
118560 On ch=1 n=a4 v=29
118800 On ch=1 n=c#5 v=0
118800 On ch=1 n=c5 v=34
118992 On ch=1 n=a4 v=0
118992 On ch=1 n=f#4 v=0
119016 On ch=1 n=c5 v=0
119040 Par ch=1 c=64 v=0
119160 Par ch=1 c=64 v=127
121200 On ch=1 n=g#5 v=57
121440 On ch=1 n=g#5 v=0
121440 On ch=1 n=c#6 v=58
121680 On ch=1 n=c#6 v=0
121680 On ch=1 n=d#6 v=59
121920 On ch=1 n=d#6 v=0
121920 On ch=1 n=e6 v=60
121920 Par ch=1 c=64 v=0
122040 Par ch=1 c=64 v=127
122160 On ch=1 n=e6 v=0
122160 On ch=1 n=f6 v=61
122400 On ch=1 n=f6 v=0
122400 On ch=1 n=f#6 v=62
122640 On ch=1 n=f#6 v=0
122640 On ch=1 n=g6 v=63
122704 On ch=1 n=g6 v=0
122880 On ch=1 n=g#6 v=84
122880 Par ch=1 c=64 v=0
123000 Par ch=1 c=64 v=127
123600 On ch=1 n=g#6 v=0
123600 On ch=1 n=a6 v=58
123720 On ch=1 n=a6 v=0
123720 On ch=1 n=g#6 v=56
123828 On ch=1 n=g#6 v=0
123840 On ch=1 n=f#6 v=60
123840 On ch=1 n=c6 v=72
123840 Par ch=1 c=64 v=0
123960 Par ch=1 c=64 v=127
124272 On ch=1 n=f#6 v=0
124560 On ch=1 n=c6 v=0
124560 On ch=1 n=d6 v=56
124680 On ch=1 n=d6 v=0
124680 On ch=1 n=c6 v=54
124800 On ch=1 n=c6 v=0
124800 On ch=1 n=b5 v=58
124800 Par ch=1 c=64 v=0
124920 Par ch=1 c=64 v=127
125016 On ch=1 n=b5 v=0
125040 On ch=1 n=g#6 v=84
125520 On ch=1 n=g#6 v=0
125520 On ch=1 n=a6 v=58
125736 On ch=1 n=a6 v=0
125760 On ch=1 n=g#6 v=56
125760 Par ch=1 c=64 v=0
125880 Par ch=1 c=64 v=127
125889 On ch=1 n=g#6 v=0
126000 On ch=1 n=f#6 v=60
126000 On ch=1 n=c6 v=72
126432 On ch=1 n=f#6 v=0
126480 On ch=1 n=c6 v=0
126480 On ch=1 n=d6 v=56
126696 On ch=1 n=d6 v=0
126720 On ch=1 n=c6 v=54
126720 Par ch=1 c=64 v=0
126840 Par ch=1 c=64 v=127
126936 On ch=1 n=c6 v=0
126960 On ch=1 n=b5 v=58
127360 On ch=1 n=g#6 v=65
127360 On ch=1 n=e6 v=60
127403 On ch=1 n=e6 v=0
127403 On ch=1 n=g#6 v=0
127520 On ch=1 n=g6 v=63
127520 On ch=1 n=d#6 v=58
127563 On ch=1 n=d#6 v=0
127563 On ch=1 n=g6 v=0
127680 On ch=1 n=e6 v=62
127680 On ch=1 n=g#6 v=67
127680 Par ch=1 c=64 v=0
127800 Par ch=1 c=64 v=127
127824 On ch=1 n=g#6 v=0
127824 On ch=1 n=e6 v=0
127840 On ch=1 n=e6 v=64
127840 On ch=1 n=g#6 v=69
128112 On ch=1 n=b5 v=0
128304 On ch=1 n=g#6 v=0
128304 On ch=1 n=e6 v=0
128320 On ch=1 n=d6 v=64
128320 On ch=1 n=e6 v=64
128320 On ch=1 n=b6 v=69
128363 On ch=1 n=b6 v=0
128363 On ch=1 n=e6 v=0
128363 On ch=1 n=d6 v=0
128480 On ch=1 n=c7 v=67
128480 On ch=1 n=d6 v=62
128480 On ch=1 n=g#6 v=62
128523 On ch=1 n=g#6 v=0
128523 On ch=1 n=d6 v=0
128523 On ch=1 n=c7 v=0
128640 On ch=1 n=c#6 v=71
128640 On ch=1 n=e6 v=66
128640 On ch=1 n=a6 v=66
128640 On ch=1 n=c#7 v=71
128640 Par ch=1 c=64 v=0
128760 Par ch=1 c=64 v=127
128784 On ch=1 n=c#7 v=0
128784 On ch=1 n=a6 v=0
128784 On ch=1 n=e6 v=0
128784 On ch=1 n=c#6 v=0
128800 On ch=1 n=a6 v=68
128800 On ch=1 n=c#7 v=73
129264 On ch=1 n=c#7 v=0
129264 On ch=1 n=a6 v=0
129280 On ch=1 n=e6 v=69
129280 On ch=1 n=a6 v=69
129280 On ch=1 n=c#7 v=74
129323 On ch=1 n=c#7 v=0
129323 On ch=1 n=a6 v=0
129323 On ch=1 n=e6 v=0
129440 On ch=1 n=c7 v=72
129440 On ch=1 n=e6 v=67
129440 On ch=1 n=g#6 v=67
129483 On ch=1 n=g#6 v=0
129483 On ch=1 n=e6 v=0
129483 On ch=1 n=c7 v=0
129600 On ch=1 n=e6 v=71
129600 On ch=1 n=a6 v=71
129600 On ch=1 n=c#7 v=76
129600 Par ch=1 c=64 v=0
129720 Par ch=1 c=64 v=127
129744 On ch=1 n=c#7 v=0
129744 On ch=1 n=a6 v=0
129744 On ch=1 n=e6 v=0
129760 On ch=1 n=c#7 v=78
129760 On ch=1 n=a6 v=73
129760 On ch=1 n=e6 v=73
130384 On ch=1 n=e6 v=0
130384 On ch=1 n=a6 v=0
130384 On ch=1 n=c#7 v=0
130560 On ch=1 n=a6 v=84
130560 Par ch=1 c=64 v=0
130680 Par ch=1 c=64 v=127
131280 On ch=1 n=a6 v=0
131280 On ch=1 n=b6 v=59
131400 On ch=1 n=b6 v=0
131400 On ch=1 n=a6 v=58
131508 On ch=1 n=a6 v=0
131520 On ch=1 n=d6 v=70
131520 Par ch=1 c=64 v=0
131580 On ch=1 n=g#6 v=62
131640 Par ch=1 c=64 v=127
131952 On ch=1 n=g#6 v=0
132240 On ch=1 n=d6 v=0
132240 On ch=1 n=e6 v=55
132360 On ch=1 n=e6 v=0
132360 On ch=1 n=d6 v=54
132480 On ch=1 n=d6 v=0
132480 On ch=1 n=c#6 v=58
132480 Par ch=1 c=64 v=0
132600 Par ch=1 c=64 v=127
132696 On ch=1 n=c#6 v=0
132720 On ch=1 n=a6 v=84
133200 On ch=1 n=a6 v=0
133200 On ch=1 n=b6 v=59
133416 On ch=1 n=b6 v=0
133440 On ch=1 n=a6 v=58
133440 Par ch=1 c=64 v=0
133560 Par ch=1 c=64 v=127
133569 On ch=1 n=a6 v=0
133680 On ch=1 n=g#6 v=62
133680 On ch=1 n=d6 v=70
134112 On ch=1 n=g#6 v=0
134160 On ch=1 n=d6 v=0
134160 On ch=1 n=e6 v=55
134376 On ch=1 n=e6 v=0
134400 On ch=1 n=d6 v=54
134400 Par ch=1 c=64 v=0
134520 Par ch=1 c=64 v=127
134529 On ch=1 n=d6 v=0
134640 On ch=1 n=c#6 v=56
135040 On ch=1 n=a6 v=64
135040 On ch=1 n=f#6 v=59
135083 On ch=1 n=f#6 v=0
135083 On ch=1 n=a6 v=0
135200 On ch=1 n=f6 v=57
135200 On ch=1 n=g#6 v=62
135243 On ch=1 n=g#6 v=0
135243 On ch=1 n=f6 v=0
135360 On ch=1 n=f#6 v=61
135360 On ch=1 n=a6 v=66
135360 Par ch=1 c=64 v=0
135480 Par ch=1 c=64 v=127
135504 On ch=1 n=a6 v=0
135504 On ch=1 n=f#6 v=0
135520 On ch=1 n=f#6 v=63
135520 On ch=1 n=a6 v=68
135792 On ch=1 n=c#6 v=0
135984 On ch=1 n=a6 v=0
135984 On ch=1 n=f#6 v=0
136000 On ch=1 n=c#6 v=63
136000 On ch=1 n=f#6 v=63
136000 On ch=1 n=a6 v=68
136043 On ch=1 n=a6 v=0
136043 On ch=1 n=f#6 v=0
136043 On ch=1 n=c#6 v=0
136160 On ch=1 n=f#6 v=61
136160 On ch=1 n=a6 v=61
136160 On ch=1 n=c#7 v=66
136203 On ch=1 n=c#7 v=0
136203 On ch=1 n=a6 v=0
136203 On ch=1 n=f#6 v=0
136320 On ch=1 n=f#6 v=70
136320 On ch=1 n=a6 v=65
136320 On ch=1 n=f#7 v=70
136320 On ch=1 n=d7 v=65
136320 Par ch=1 c=64 v=0
136440 Par ch=1 c=64 v=127
136464 On ch=1 n=d7 v=0
136464 On ch=1 n=f#7 v=0
136464 On ch=1 n=a6 v=0
136464 On ch=1 n=f#6 v=0
136480 On ch=1 n=f#6 v=72
136480 On ch=1 n=a6 v=67
136480 On ch=1 n=f#7 v=72
136480 On ch=1 n=d7 v=67
136944 On ch=1 n=d7 v=0
136944 On ch=1 n=f#7 v=0
136944 On ch=1 n=a6 v=0
136944 On ch=1 n=f#6 v=0
136960 On ch=1 n=d7 v=67
136960 On ch=1 n=f#7 v=72
136960 On ch=1 n=a6 v=67
136960 On ch=1 n=f#6 v=72
137003 On ch=1 n=f#6 v=0
137003 On ch=1 n=a6 v=0
137003 On ch=1 n=f#7 v=0
137003 On ch=1 n=d7 v=0
137120 On ch=1 n=f7 v=70
137120 On ch=1 n=f6 v=70
137120 On ch=1 n=c#7 v=65
137120 On ch=1 n=a6 v=65
137163 On ch=1 n=a6 v=0
137163 On ch=1 n=c#7 v=0
137163 On ch=1 n=f6 v=0
137163 On ch=1 n=f7 v=0
137280 On ch=1 n=f#6 v=74
137280 On ch=1 n=a6 v=69
137280 On ch=1 n=f#7 v=74
137280 On ch=1 n=d7 v=69
137280 Par ch=1 c=64 v=0
137400 Par ch=1 c=64 v=127
137424 On ch=1 n=d7 v=0
137424 On ch=1 n=f#7 v=0
137424 On ch=1 n=a6 v=0
137424 On ch=1 n=f#6 v=0
137440 On ch=1 n=f#6 v=76
137440 On ch=1 n=a6 v=71
137440 On ch=1 n=f#7 v=76
137440 On ch=1 n=d7 v=71
138064 On ch=1 n=d7 v=0
138064 On ch=1 n=f#7 v=0
138064 On ch=1 n=a6 v=0
138064 On ch=1 n=f#6 v=0
138240 Par ch=1 c=64 v=0
138360 Par ch=1 c=64 v=127
138480 On ch=1 n=b6 v=80
138480 On ch=1 n=g#7 v=85
138912 On ch=1 n=g#7 v=0
138912 On ch=1 n=b6 v=0
138960 On ch=1 n=c#7 v=76
138960 On ch=1 n=a7 v=81
139176 On ch=1 n=a7 v=0
139176 On ch=1 n=c#7 v=0
139200 On ch=1 n=b6 v=74
139200 On ch=1 n=g#7 v=79
139200 Par ch=1 c=64 v=0
139320 Par ch=1 c=64 v=127
139416 On ch=1 n=g#7 v=0
139416 On ch=1 n=b6 v=0
139440 On ch=1 n=a6 v=78
139440 On ch=1 n=f#7 v=83
139680 Par ch=1 c=64 v=0
139800 Par ch=1 c=64 v=127
140088 On ch=1 n=f#7 v=0
140088 On ch=1 n=a6 v=0
140160 On ch=1 n=e7 v=85
140160 On ch=1 n=g#6 v=90
140160 Par ch=1 c=64 v=0
140280 Par ch=1 c=64 v=127
140464 On ch=1 n=g#6 v=0
140464 On ch=1 n=e7 v=0
140480 On ch=1 n=a6 v=72
140480 On ch=1 n=f#7 v=77
140624 On ch=1 n=f#7 v=0
140624 On ch=1 n=a6 v=0
140640 On ch=1 n=g#6 v=71
140640 On ch=1 n=e7 v=76
140640 Par ch=1 c=64 v=0
140760 Par ch=1 c=64 v=127
140784 On ch=1 n=e7 v=0
140784 On ch=1 n=g#6 v=0
140800 On ch=1 n=f#6 v=73
140800 On ch=1 n=d#7 v=78
141104 On ch=1 n=d#7 v=0
141104 On ch=1 n=f#6 v=0
141120 On ch=1 n=e6 v=74
141120 On ch=1 n=c#7 v=79
141120 Par ch=1 c=64 v=0
141240 Par ch=1 c=64 v=127
141264 On ch=1 n=c#7 v=0
141264 On ch=1 n=e6 v=0
141280 On ch=1 n=f#6 v=73
141280 On ch=1 n=d#7 v=78
141424 On ch=1 n=d#7 v=0
141424 On ch=1 n=f#6 v=0
141440 On ch=1 n=e6 v=72
141440 On ch=1 n=c#7 v=77
141584 On ch=1 n=c#7 v=0
141584 On ch=1 n=e6 v=0
141600 On ch=1 n=d#6 v=72
141600 On ch=1 n=b6 v=77
141600 Par ch=1 c=64 v=0
141720 Par ch=1 c=64 v=127
141744 On ch=1 n=b6 v=0
141744 On ch=1 n=d#6 v=0
141760 On ch=1 n=c#6 v=71
141760 On ch=1 n=a6 v=76
141904 On ch=1 n=a6 v=0
141904 On ch=1 n=c#6 v=0
141920 On ch=1 n=a5 v=70
141920 On ch=1 n=f#6 v=75
142064 On ch=1 n=f#6 v=0
142064 On ch=1 n=a5 v=0
142080 On ch=1 n=g#5 v=75
142080 On ch=1 n=e6 v=80
142080 Par ch=1 c=64 v=0
142200 Par ch=1 c=64 v=127
142296 On ch=1 n=e6 v=0
142296 On ch=1 n=g#5 v=0
142440 On ch=1 n=f#5 v=71
142440 On ch=1 n=d#6 v=76
142548 On ch=1 n=d#6 v=0
142548 On ch=1 n=f#5 v=0
142560 On ch=1 n=e5 v=73
142560 On ch=1 n=c#6 v=78
142560 Par ch=1 c=64 v=0
142680 Par ch=1 c=64 v=127
142776 On ch=1 n=c#6 v=0
142776 On ch=1 n=e5 v=0
142920 On ch=1 n=g#5 v=72
142920 On ch=1 n=e6 v=77
143028 On ch=1 n=e6 v=0
143028 On ch=1 n=g#5 v=0
143040 On ch=1 n=c6 v=74
143040 On ch=1 n=g#6 v=79
143040 Par ch=1 c=64 v=0
143084 On ch=1 n=g#6 v=0
143088 On ch=1 n=a6 v=84
143132 On ch=1 n=a6 v=0
143138 On ch=1 n=g#6 v=78
143160 Par ch=1 c=64 v=127
143180 On ch=1 n=g#6 v=0
143184 On ch=1 n=a6 v=79
143226 On ch=1 n=a6 v=0
143234 On ch=1 n=g#6 v=70
143256 On ch=1 n=c6 v=0
143276 On ch=1 n=g#6 v=0
143282 On ch=1 n=a6 v=74
143318 On ch=1 n=a6 v=0
143330 On ch=1 n=g#6 v=73
143372 On ch=1 n=g#6 v=0
143378 On ch=1 n=a6 v=73
143418 On ch=1 n=a6 v=0
143424 On ch=1 n=g#6 v=68
143466 On ch=1 n=g#6 v=0
143472 On ch=1 n=a6 v=76
143514 On ch=1 n=a6 v=0
143520 On ch=1 n=g#6 v=77
143563 On ch=1 n=g#6 v=0
143572 On ch=1 n=a6 v=81
143603 On ch=1 n=a6 v=0
143618 On ch=1 n=g#6 v=73
143660 On ch=1 n=g#6 v=0
143668 On ch=1 n=a6 v=80
143699 On ch=1 n=a6 v=0
143716 On ch=1 n=g#6 v=79
143730 On ch=1 n=g6 v=77
143752 On ch=1 n=g#6 v=0
143784 On ch=1 n=g6 v=0
143784 On ch=1 n=g#6 v=78
143838 On ch=1 n=g#6 v=0
143838 On ch=1 n=b6 v=79
143892 On ch=1 n=b6 v=0
143892 On ch=1 n=a6 v=78
143946 On ch=1 n=a6 v=0
143946 On ch=1 n=g#6 v=77
144000 On ch=1 n=g#6 v=0
144000 On ch=1 n=c#6 v=80
144000 Par ch=1 c=64 v=0
144120 Par ch=1 c=64 v=127
144240 On ch=1 n=e5 v=70
144240 On ch=1 n=g#5 v=75
144426 On ch=1 n=c#6 v=0
144426 On ch=1 n=d#6 v=76
144456 On ch=1 n=g#5 v=0
144456 On ch=1 n=e5 v=0
144480 On ch=1 n=d#6 v=0
144480 On ch=1 n=c#6 v=78
144480 Par ch=1 c=64 v=0
144600 Par ch=1 c=64 v=127
144720 On ch=1 n=f#5 v=68
144720 On ch=1 n=a5 v=73
144840 On ch=1 n=c#6 v=0
144840 On ch=1 n=c6 v=77
144936 On ch=1 n=a5 v=0
144936 On ch=1 n=f#5 v=0
144948 On ch=1 n=c6 v=0
144960 On ch=1 n=c#6 v=79
144960 Par ch=1 c=64 v=0
145080 Par ch=1 c=64 v=127
145200 On ch=1 n=e5 v=69
145200 On ch=1 n=g#5 v=74
145392 On ch=1 n=c#6 v=0
145416 On ch=1 n=g#5 v=0
145416 On ch=1 n=e5 v=0
145440 On ch=1 n=a5 v=102
145440 Par ch=1 c=64 v=0
145500 On ch=1 n=e6 v=102
145560 On ch=1 n=c#7 v=107
145560 Par ch=1 c=64 v=127
145872 On ch=1 n=c#7 v=0
145872 On ch=1 n=e6 v=0
145872 On ch=1 n=a5 v=0
145920 Par ch=1 c=64 v=0
146040 Par ch=1 c=64 v=127
146160 On ch=1 n=g#6 v=80
146160 On ch=1 n=b6 v=85
146592 On ch=1 n=b6 v=0
146592 On ch=1 n=g#6 v=0
146640 On ch=1 n=a6 v=78
146640 On ch=1 n=c#7 v=83
146856 On ch=1 n=c#7 v=0
146856 On ch=1 n=a6 v=0
146880 On ch=1 n=g#6 v=77
146880 On ch=1 n=b6 v=82
146880 Par ch=1 c=64 v=0
147000 Par ch=1 c=64 v=127
147024 On ch=1 n=b6 v=0
147024 On ch=1 n=g#6 v=0
147040 On ch=1 n=f#6 v=79
147040 On ch=1 n=a6 v=84
147360 Par ch=1 c=64 v=0
147480 Par ch=1 c=64 v=127
147792 On ch=1 n=a6 v=0
147792 On ch=1 n=f#6 v=0
147840 On ch=1 n=e6 v=80
147840 On ch=1 n=g#6 v=85
147840 Par ch=1 c=64 v=0
147960 Par ch=1 c=64 v=127
148144 On ch=1 n=g#6 v=0
148144 On ch=1 n=e6 v=0
148160 On ch=1 n=f#6 v=76
148160 On ch=1 n=a6 v=81
148304 On ch=1 n=a6 v=0
148304 On ch=1 n=f#6 v=0
148320 On ch=1 n=e6 v=78
148320 On ch=1 n=g#6 v=83
148320 Par ch=1 c=64 v=0
148440 Par ch=1 c=64 v=127
148464 On ch=1 n=g#6 v=0
148464 On ch=1 n=e6 v=0
148480 On ch=1 n=f#6 v=82
148480 On ch=1 n=d#6 v=77
148624 On ch=1 n=d#6 v=0
148624 On ch=1 n=f#6 v=0
148640 On ch=1 n=c6 v=76
148640 On ch=1 n=d#6 v=81
148784 On ch=1 n=d#6 v=0
148784 On ch=1 n=c6 v=0
148800 On ch=1 n=c#6 v=79
148800 On ch=1 n=e6 v=84
148800 Par ch=1 c=64 v=0
148860 Par ch=1 c=64 v=127
148908 On ch=1 n=e6 v=0
148908 On ch=1 n=c#6 v=0
148920 On ch=1 n=f#6 v=83
148920 On ch=1 n=d#6 v=78
149028 On ch=1 n=d#6 v=0
149028 On ch=1 n=f#6 v=0
149040 On ch=1 n=c#6 v=77
149040 On ch=1 n=e6 v=82
149148 On ch=1 n=e6 v=0
149148 On ch=1 n=c#6 v=0
149160 On ch=1 n=c#6 v=81
149160 On ch=1 n=a5 v=76
149268 On ch=1 n=a5 v=0
149268 On ch=1 n=c#6 v=0
149280 On ch=1 n=b5 v=77
149280 On ch=1 n=d#6 v=82
149280 Par ch=1 c=64 v=0
149340 Par ch=1 c=64 v=127
149388 On ch=1 n=d#6 v=0
149388 On ch=1 n=b5 v=0
149400 On ch=1 n=c#6 v=81
149400 On ch=1 n=a5 v=76
149508 On ch=1 n=a5 v=0
149508 On ch=1 n=c#6 v=0
149520 On ch=1 n=a5 v=80
149520 On ch=1 n=f#5 v=75
149628 On ch=1 n=f#5 v=0
149628 On ch=1 n=a5 v=0
149640 On ch=1 n=f#5 v=79
149640 On ch=1 n=d#5 v=74
149748 On ch=1 n=d#5 v=0
149748 On ch=1 n=f#5 v=0
149760 On ch=1 n=c#5 v=75
149760 Par ch=1 c=64 v=0
149800 On ch=1 n=e5 v=80
149820 Par ch=1 c=64 v=127
149840 On ch=1 n=e5 v=0
149840 On ch=1 n=g5 v=79
149920 On ch=1 n=g5 v=0
149920 On ch=1 n=g#5 v=78
149976 On ch=1 n=c#5 v=0
150000 On ch=1 n=g#5 v=0
150000 On ch=1 n=a5 v=79
150080 On ch=1 n=a5 v=0
150080 On ch=1 n=c6 v=78
150160 On ch=1 n=c6 v=0
150160 On ch=1 n=c#6 v=77
150240 On ch=1 n=c#6 v=0
150240 On ch=1 n=e6 v=80
150308 On ch=1 n=e6 v=0
150308 On ch=1 n=g6 v=81
150376 On ch=1 n=g6 v=0
150377 On ch=1 n=g#6 v=82
150445 On ch=1 n=g#6 v=0
150445 On ch=1 n=a6 v=83
150513 On ch=1 n=a6 v=0
150514 On ch=1 n=c7 v=84
150582 On ch=1 n=c7 v=0
150582 On ch=1 n=c#7 v=85
150650 On ch=1 n=c#7 v=0
150651 On ch=1 n=e7 v=86
150719 On ch=1 n=e7 v=0
150720 On ch=1 n=b6 v=72
150720 On ch=1 n=g#7 v=77
150720 Par ch=1 c=64 v=0
150764 On ch=1 n=g#7 v=0
150768 On ch=1 n=a7 v=82
150780 Par ch=1 c=64 v=127
150812 On ch=1 n=a7 v=0
150818 On ch=1 n=g#7 v=76
150860 On ch=1 n=g#7 v=0
150864 On ch=1 n=a7 v=77
150906 On ch=1 n=a7 v=0
150914 On ch=1 n=g#7 v=68
150936 On ch=1 n=b6 v=0
150956 On ch=1 n=g#7 v=0
150962 On ch=1 n=a7 v=72
150998 On ch=1 n=a7 v=0
151010 On ch=1 n=g#7 v=71
151052 On ch=1 n=g#7 v=0
151058 On ch=1 n=a7 v=71
151098 On ch=1 n=a7 v=0
151104 On ch=1 n=g#7 v=66
151146 On ch=1 n=g#7 v=0
151152 On ch=1 n=a7 v=74
151194 On ch=1 n=a7 v=0
151200 On ch=1 n=g#7 v=75
151243 On ch=1 n=g#7 v=0
151252 On ch=1 n=a7 v=79
151283 On ch=1 n=a7 v=0
151298 On ch=1 n=g#7 v=71
151340 On ch=1 n=g#7 v=0
151348 On ch=1 n=a7 v=78
151350 On ch=1 n=g7 v=63
151379 On ch=1 n=a7 v=0
151404 On ch=1 n=g7 v=0
151404 On ch=1 n=g#7 v=64
151458 On ch=1 n=g#7 v=0
151458 On ch=1 n=b7 v=65
151512 On ch=1 n=b7 v=0
151512 On ch=1 n=a7 v=64
151566 On ch=1 n=a7 v=0
151566 On ch=1 n=g#7 v=63
151620 On ch=1 n=g#7 v=0
151680 On ch=1 n=e5 v=31
151680 Par ch=1 c=64 v=0
151740 Par ch=1 c=64 v=127
151752 On ch=1 n=e5 v=0
151760 On ch=1 n=g5 v=30
151832 On ch=1 n=g5 v=0
151840 On ch=1 n=g#5 v=29
151912 On ch=1 n=g#5 v=0
151920 On ch=1 n=a5 v=32
151992 On ch=1 n=a5 v=0
152000 On ch=1 n=c6 v=31
152072 On ch=1 n=c6 v=0
152080 On ch=1 n=c#6 v=30
152152 On ch=1 n=c#6 v=0
152160 On ch=1 n=e6 v=33
152228 On ch=1 n=e6 v=0
152228 On ch=1 n=g6 v=32
152296 On ch=1 n=g6 v=0
152297 On ch=1 n=g#6 v=31
152365 On ch=1 n=g#6 v=0
152365 On ch=1 n=a6 v=30
152433 On ch=1 n=a6 v=0
152434 On ch=1 n=c7 v=34
152502 On ch=1 n=c7 v=0
152502 On ch=1 n=c#7 v=33
152570 On ch=1 n=c#7 v=0
152571 On ch=1 n=e7 v=32
152639 On ch=1 n=e7 v=0
152640 On ch=1 n=c7 v=30
152640 On ch=1 n=g#7 v=35
152640 Par ch=1 c=64 v=0
152684 On ch=1 n=g#7 v=0
152688 On ch=1 n=a7 v=40
152700 Par ch=1 c=64 v=127
152732 On ch=1 n=a7 v=0
152738 On ch=1 n=g#7 v=34
152780 On ch=1 n=g#7 v=0
152784 On ch=1 n=a7 v=35
152826 On ch=1 n=a7 v=0
152834 On ch=1 n=g#7 v=26
152856 On ch=1 n=c7 v=0
152876 On ch=1 n=g#7 v=0
152882 On ch=1 n=a7 v=30
152918 On ch=1 n=a7 v=0
152930 On ch=1 n=g#7 v=29
152972 On ch=1 n=g#7 v=0
152978 On ch=1 n=a7 v=29
153018 On ch=1 n=a7 v=0
153024 On ch=1 n=g#7 v=24
153066 On ch=1 n=g#7 v=0
153072 On ch=1 n=a7 v=32
153114 On ch=1 n=a7 v=0
153120 On ch=1 n=g#7 v=33
153163 On ch=1 n=g#7 v=0
153172 On ch=1 n=a7 v=37
153203 On ch=1 n=a7 v=0
153218 On ch=1 n=g#7 v=29
153260 On ch=1 n=g#7 v=0
153268 On ch=1 n=a7 v=36
153299 On ch=1 n=a7 v=0
153316 On ch=1 n=g#7 v=35
153352 On ch=1 n=g#7 v=0
153360 On ch=1 n=a7 v=40
153384 On ch=1 n=g7 v=28
153402 On ch=1 n=a7 v=0
153438 On ch=1 n=g7 v=0
153438 On ch=1 n=g#7 v=29
153492 On ch=1 n=g#7 v=0
153492 On ch=1 n=b7 v=30
153546 On ch=1 n=b7 v=0
153546 On ch=1 n=a7 v=29
153600 On ch=1 n=a7 v=0
153600 On ch=1 n=g#7 v=31
153600 Par ch=1 c=64 v=0
153644 On ch=1 n=g#7 v=0
153648 On ch=1 n=a7 v=36
153660 Par ch=1 c=64 v=127
153692 On ch=1 n=a7 v=0
153698 On ch=1 n=g#7 v=30
153740 On ch=1 n=g#7 v=0
153744 On ch=1 n=a7 v=31
153786 On ch=1 n=a7 v=0
153794 On ch=1 n=g#7 v=22
153836 On ch=1 n=g#7 v=0
153842 On ch=1 n=a7 v=26
153864 On ch=1 n=g7 v=28
153878 On ch=1 n=a7 v=0
153918 On ch=1 n=g7 v=0
153918 On ch=1 n=g#7 v=29
153972 On ch=1 n=g#7 v=0
153972 On ch=1 n=c8 v=30
154026 On ch=1 n=c8 v=0
154026 On ch=1 n=a#7 v=29
154080 On ch=1 n=a#7 v=0
154080 On ch=1 n=g#7 v=32
154080 Par ch=1 c=64 v=0
154124 On ch=1 n=g#7 v=0
154128 On ch=1 n=a#7 v=37
154140 Par ch=1 c=64 v=127
154172 On ch=1 n=a#7 v=0
154178 On ch=1 n=g#7 v=31
154220 On ch=1 n=g#7 v=0
154224 On ch=1 n=a#7 v=32
154266 On ch=1 n=a#7 v=0
154274 On ch=1 n=g#7 v=23
154316 On ch=1 n=g#7 v=0
154322 On ch=1 n=a#7 v=27
154344 On ch=1 n=g7 v=29
154358 On ch=1 n=a#7 v=0
154398 On ch=1 n=g7 v=0
154398 On ch=1 n=g#7 v=30
154452 On ch=1 n=g#7 v=0
154452 On ch=1 n=c#8 v=31
154506 On ch=1 n=c#8 v=0
154506 On ch=1 n=a#7 v=30
154560 On ch=1 n=a#7 v=0
154560 On ch=1 n=g#7 v=33
154560 Par ch=1 c=64 v=0
154604 On ch=1 n=g#7 v=0
154608 On ch=1 n=a#7 v=38
154620 Par ch=1 c=64 v=127
154652 On ch=1 n=a#7 v=0
154658 On ch=1 n=g#7 v=32
154700 On ch=1 n=g#7 v=0
154704 On ch=1 n=a#7 v=33
154746 On ch=1 n=a#7 v=0
154754 On ch=1 n=g#7 v=24
154796 On ch=1 n=g#7 v=0
154802 On ch=1 n=a#7 v=28
154824 On ch=1 n=g7 v=30
154838 On ch=1 n=a#7 v=0
154850 On ch=1 n=g#7 v=27
154878 On ch=1 n=g7 v=0
154878 On ch=1 n=g#7 v=31
154892 On ch=1 n=g#7 v=0
154898 On ch=1 n=a#7 v=27
154932 On ch=1 n=g#7 v=0
154932 On ch=1 n=d8 v=32
154938 On ch=1 n=a#7 v=0
154944 On ch=1 n=g#7 v=22
154986 On ch=1 n=g#7 v=0
154986 On ch=1 n=d8 v=0
154986 On ch=1 n=a#7 v=31
154992 On ch=1 n=a#7 v=30
155034 On ch=1 n=a#7 v=0
155040 On ch=1 n=a#7 v=0
155040 On ch=1 n=g#7 v=35
155040 Par ch=1 c=64 v=0
155094 On ch=1 n=g#7 v=0
155094 On ch=1 n=a#7 v=34
155100 Par ch=1 c=64 v=127
155148 On ch=1 n=a#7 v=0
155148 On ch=1 n=g#7 v=33
155202 On ch=1 n=g#7 v=0
155202 On ch=1 n=g7 v=32
155256 On ch=1 n=g7 v=0
155256 On ch=1 n=g#7 v=31
155310 On ch=1 n=g#7 v=0
155310 On ch=1 n=d#8 v=34
155364 On ch=1 n=d#8 v=0
155364 On ch=1 n=a#7 v=33
155418 On ch=1 n=a#7 v=0
155418 On ch=1 n=g#7 v=35
155472 On ch=1 n=g#7 v=0
155472 On ch=1 n=a#7 v=34
155526 On ch=1 n=a#7 v=0
155526 On ch=1 n=g#7 v=33
155580 On ch=1 n=g#7 v=0
155580 On ch=1 n=g7 v=32
155634 On ch=1 n=g7 v=0
155634 On ch=1 n=g#7 v=31
155688 On ch=1 n=g#7 v=0
155688 On ch=1 n=e8 v=34
155742 On ch=1 n=e8 v=0
155742 On ch=1 n=a#7 v=33
155796 On ch=1 n=a#7 v=0
155796 On ch=1 n=g#7 v=35
155796 Par ch=1 c=64 v=0
155850 On ch=1 n=g#7 v=0
155850 On ch=1 n=a#7 v=34
155904 On ch=1 n=a#7 v=0
155904 On ch=1 n=g#7 v=33
155958 On ch=1 n=g#7 v=0
155958 On ch=1 n=g7 v=32
156012 On ch=1 n=g7 v=0
156012 On ch=1 n=g#7 v=31
156066 On ch=1 n=g#7 v=0
156066 On ch=1 n=f8 v=35
156066 Par ch=1 c=64 v=127
156120 On ch=1 n=f8 v=0
156120 On ch=1 n=d#8 v=34
156174 On ch=1 n=d#8 v=0
156174 On ch=1 n=c8 v=33
156228 On ch=1 n=c8 v=0
156228 On ch=1 n=g#7 v=32
156282 On ch=1 n=g#7 v=0
156282 On ch=1 n=g7 v=34
156336 On ch=1 n=g7 v=0
156336 On ch=1 n=f#7 v=33
156390 On ch=1 n=f#7 v=0
156390 On ch=1 n=g#7 v=32
156444 On ch=1 n=g#7 v=0
156444 On ch=1 n=g7 v=31
156498 On ch=1 n=g7 v=0
156498 On ch=1 n=a#7 v=35
156552 On ch=1 n=a#7 v=0
156552 On ch=1 n=g#7 v=34
156606 On ch=1 n=g#7 v=0
156606 On ch=1 n=f#7 v=33
156660 On ch=1 n=f#7 v=0
156660 On ch=1 n=d#7 v=32
156714 On ch=1 n=d#7 v=0
156714 On ch=1 n=c7 v=34
156768 On ch=1 n=c7 v=0
156768 On ch=1 n=b6 v=33
156822 On ch=1 n=b6 v=0
156822 On ch=1 n=c#7 v=32
156876 On ch=1 n=c#7 v=0
156876 On ch=1 n=c7 v=31
156930 On ch=1 n=c7 v=0
156930 On ch=1 n=f7 v=35
156984 On ch=1 n=f7 v=0
156984 On ch=1 n=d#7 v=34
157038 On ch=1 n=d#7 v=0
157038 On ch=1 n=c7 v=33
157092 On ch=1 n=c7 v=0
157092 On ch=1 n=g#6 v=32
157146 On ch=1 n=g#6 v=0
157146 On ch=1 n=g6 v=34
157200 On ch=1 n=g6 v=0
157200 On ch=1 n=f#6 v=33
157254 On ch=1 n=f#6 v=0
157254 On ch=1 n=g#6 v=32
157308 On ch=1 n=g#6 v=0
157308 On ch=1 n=g6 v=31
157362 On ch=1 n=g6 v=0
157362 On ch=1 n=a#6 v=35
157416 On ch=1 n=a#6 v=0
157416 On ch=1 n=g#6 v=34
157470 On ch=1 n=g#6 v=0
157470 On ch=1 n=f#6 v=33
157524 On ch=1 n=f#6 v=0
157524 On ch=1 n=d#6 v=32
157578 On ch=1 n=d#6 v=0
157578 On ch=1 n=c6 v=34
157632 On ch=1 n=c6 v=0
157632 On ch=1 n=b5 v=33
157686 On ch=1 n=b5 v=0
157686 On ch=1 n=c#6 v=32
157740 On ch=1 n=c#6 v=0
157740 On ch=1 n=c6 v=31
157794 On ch=1 n=c6 v=0
157794 On ch=1 n=f6 v=35
157848 On ch=1 n=f6 v=0
157848 On ch=1 n=d#6 v=34
157902 On ch=1 n=d#6 v=0
157902 On ch=1 n=c6 v=33
157956 On ch=1 n=c6 v=0
157956 On ch=1 n=g#5 v=32
158010 On ch=1 n=g#5 v=0
158010 On ch=1 n=g5 v=34
158064 On ch=1 n=g5 v=0
158064 On ch=1 n=f#5 v=33
158118 On ch=1 n=f#5 v=0
158118 On ch=1 n=g#5 v=32
158172 On ch=1 n=g#5 v=0
158172 On ch=1 n=g5 v=31
158226 On ch=1 n=g5 v=0
158226 On ch=1 n=a#5 v=35
158280 On ch=1 n=a#5 v=0
158280 On ch=1 n=g#5 v=34
158334 On ch=1 n=g#5 v=0
158334 On ch=1 n=f#5 v=33
158388 On ch=1 n=f#5 v=0
158388 On ch=1 n=d#5 v=32
158442 On ch=1 n=d#5 v=0
158442 On ch=1 n=c5 v=34
158496 On ch=1 n=c5 v=0
158496 On ch=1 n=b4 v=33
158550 On ch=1 n=b4 v=0
158550 On ch=1 n=c#5 v=32
158604 On ch=1 n=c#5 v=0
158604 On ch=1 n=c5 v=31
158658 On ch=1 n=c5 v=0
158658 On ch=1 n=f5 v=35
158712 On ch=1 n=f5 v=0
158712 On ch=1 n=d#5 v=34
158766 On ch=1 n=d#5 v=0
158766 On ch=1 n=c5 v=33
158820 On ch=1 n=c5 v=0
158820 On ch=1 n=g#4 v=32
158874 On ch=1 n=g#4 v=0
158874 On ch=1 n=g4 v=34
158928 On ch=1 n=g4 v=0
158928 On ch=1 n=f#4 v=33
158982 On ch=1 n=f#4 v=0
158982 On ch=1 n=g#4 v=32
159036 On ch=1 n=g#4 v=0
159036 On ch=1 n=g4 v=31
159090 On ch=1 n=g4 v=0
159090 On ch=1 n=a#4 v=35
159144 On ch=1 n=a#4 v=0
159144 On ch=1 n=g#4 v=34
159198 On ch=1 n=g#4 v=0
159198 On ch=1 n=f#4 v=33
159252 On ch=1 n=f#4 v=0
159252 On ch=1 n=d#4 v=32
159306 On ch=1 n=d#4 v=0
159306 On ch=1 n=c4 v=34
159360 On ch=1 n=c4 v=0
159360 On ch=1 n=b3 v=33
159414 On ch=1 n=b3 v=0
159414 On ch=1 n=c#4 v=32
159468 On ch=1 n=c#4 v=0
159468 On ch=1 n=c4 v=31
159522 On ch=1 n=c4 v=0
159522 On ch=1 n=f4 v=35
159576 On ch=1 n=f4 v=0
159576 On ch=1 n=d#4 v=34
159630 On ch=1 n=d#4 v=0
159630 On ch=1 n=c4 v=33
159684 On ch=1 n=c4 v=0
159684 On ch=1 n=g#3 v=32
159738 On ch=1 n=g#3 v=0
159738 On ch=1 n=g3 v=34
159792 On ch=1 n=g3 v=0
159792 On ch=1 n=f#3 v=33
159846 On ch=1 n=f#3 v=0
159846 On ch=1 n=g#3 v=32
159900 On ch=1 n=g#3 v=0
159900 On ch=1 n=g3 v=31
159954 On ch=1 n=g3 v=0
159954 On ch=1 n=a#3 v=31
160062 On ch=1 n=a#3 v=0
160074 On ch=1 n=g#3 v=33
160074 Par ch=1 c=64 v=0
160182 On ch=1 n=g#3 v=0
160194 On ch=1 n=g3 v=35
160194 Par ch=1 c=64 v=127
160302 On ch=1 n=g3 v=0
160314 On ch=1 n=g#3 v=37
160422 On ch=1 n=g#3 v=0
160434 On ch=1 n=f#3 v=35
160542 On ch=1 n=f#3 v=0
160554 On ch=1 n=g#3 v=37
160662 On ch=1 n=g#3 v=0
160674 On ch=1 n=d#3 v=39
160782 On ch=1 n=d#3 v=0
160794 On ch=1 n=g#3 v=41
160800 Par ch=1 c=64 v=0
160902 On ch=1 n=g#3 v=0
160920 Par ch=1 c=64 v=127
163800 On ch=1 n=f5 v=52
163800 On ch=1 n=c#5 v=29
163800 Par ch=1 c=64 v=0
163908 On ch=1 n=c#5 v=0
163920 On ch=1 n=g#4 v=28
163920 Par ch=1 c=64 v=127
164028 On ch=1 n=g#4 v=0
164628 On ch=1 n=f5 v=0
164640 On ch=1 n=d#5 v=46
164640 On ch=1 n=f#5 v=48
164748 On ch=1 n=f#5 v=0
164748 On ch=1 n=d#5 v=0
164760 On ch=1 n=g#5 v=50
164760 On ch=1 n=f5 v=29
164760 Par ch=1 c=64 v=0
164868 On ch=1 n=f5 v=0
164880 On ch=1 n=g#4 v=28
164880 Par ch=1 c=64 v=127
164976 On ch=1 n=g#5 v=0
164988 On ch=1 n=g#4 v=0
165000 On ch=1 n=g#5 v=52
165000 On ch=1 n=f5 v=50
165648 On ch=1 n=f5 v=0
165648 On ch=1 n=g#5 v=0
165720 On ch=1 n=g#5 v=52
165720 On ch=1 n=f5 v=50
165720 Par ch=1 c=64 v=0
165840 On ch=1 n=g#4 v=28
165840 Par ch=1 c=64 v=127
165948 On ch=1 n=g#4 v=0
166368 On ch=1 n=f5 v=0
166368 On ch=1 n=g#5 v=0
166440 On ch=1 n=f5 v=46
166440 On ch=1 n=a5 v=48
166656 On ch=1 n=a5 v=0
166656 On ch=1 n=f5 v=0
166680 On ch=1 n=f#5 v=50
166680 On ch=1 n=a#5 v=52
166680 Par ch=1 c=64 v=0
166800 On ch=1 n=a#4 v=28
166800 Par ch=1 c=64 v=127
166908 On ch=1 n=a#4 v=0
167328 On ch=1 n=a#5 v=0
167328 On ch=1 n=f#5 v=0
167400 On ch=1 n=f#5 v=50
167400 On ch=1 n=d#5 v=48
167508 On ch=1 n=d#5 v=0
167508 On ch=1 n=f#5 v=0
167520 On ch=1 n=f5 v=48
167520 On ch=1 n=c#5 v=46
167628 On ch=1 n=c#5 v=0
167628 On ch=1 n=f5 v=0
167640 On ch=1 n=d#5 v=52
167640 On ch=1 n=c5 v=29
167640 Par ch=1 c=64 v=0
167748 On ch=1 n=c5 v=0
167760 On ch=1 n=g#4 v=28
167760 Par ch=1 c=64 v=127
167868 On ch=1 n=g#4 v=0
168066 On ch=1 n=f5 v=46
168072 On ch=1 n=d#5 v=0
168120 On ch=1 n=f5 v=0
168120 On ch=1 n=c5 v=48
168120 On ch=1 n=d#5 v=50
168336 On ch=1 n=d#5 v=0
168336 On ch=1 n=c5 v=0
168360 On ch=1 n=d5 v=48
168360 On ch=1 n=b4 v=46
168576 On ch=1 n=b4 v=0
168576 On ch=1 n=d5 v=0
168600 On ch=1 n=d#5 v=52
168600 On ch=1 n=c5 v=29
168600 Par ch=1 c=64 v=0
168708 On ch=1 n=c5 v=0
168720 On ch=1 n=g#4 v=28
168720 Par ch=1 c=64 v=127
168828 On ch=1 n=g#4 v=0
169032 On ch=1 n=d#5 v=0
169560 On ch=1 n=d#5 v=52
169560 On ch=1 n=c5 v=29
169560 Par ch=1 c=64 v=0
169668 On ch=1 n=c5 v=0
169680 On ch=1 n=g#4 v=28
169680 Par ch=1 c=64 v=127
169788 On ch=1 n=g#4 v=0
170388 On ch=1 n=d#5 v=0
170400 On ch=1 n=c#5 v=46
170400 On ch=1 n=f5 v=48
170508 On ch=1 n=f5 v=0
170508 On ch=1 n=c#5 v=0
170520 On ch=1 n=f#5 v=50
170520 On ch=1 n=d#5 v=29
170520 Par ch=1 c=64 v=0
170628 On ch=1 n=d#5 v=0
170640 On ch=1 n=g#4 v=28
170640 Par ch=1 c=64 v=127
170736 On ch=1 n=f#5 v=0
170748 On ch=1 n=g#4 v=0
170760 On ch=1 n=f#5 v=52
170760 On ch=1 n=d#5 v=50
171408 On ch=1 n=d#5 v=0
171408 On ch=1 n=f#5 v=0
171480 On ch=1 n=f#5 v=52
171480 On ch=1 n=d#5 v=29
171480 Par ch=1 c=64 v=0
171588 On ch=1 n=d#5 v=0
171600 On ch=1 n=g#4 v=28
171600 Par ch=1 c=64 v=127
171708 On ch=1 n=g#4 v=0
172128 On ch=1 n=f#5 v=0
172200 On ch=1 n=a#4 v=44
172200 On ch=1 n=c#5 v=43
172200 On ch=1 n=g5 v=49
172416 On ch=1 n=g5 v=0
172416 On ch=1 n=c#5 v=0
172416 On ch=1 n=a#4 v=0
172440 On ch=1 n=g#5 v=52
172440 On ch=1 n=c5 v=27
172440 On ch=1 n=d#5 v=29
172440 Par ch=1 c=64 v=0
172548 On ch=1 n=d#5 v=0
172548 On ch=1 n=c5 v=0
172560 On ch=1 n=g#4 v=28
172560 Par ch=1 c=64 v=127
172668 On ch=1 n=g#4 v=0
173088 On ch=1 n=g#5 v=0
173160 On ch=1 n=f#4 v=43
173160 On ch=1 n=c5 v=48
173376 On ch=1 n=c5 v=0
173376 On ch=1 n=f#4 v=0
173400 On ch=1 n=c#5 v=52
173400 On ch=1 n=f4 v=29
173400 Par ch=1 c=64 v=0
173508 On ch=1 n=f4 v=0
173520 On ch=1 n=g#4 v=28
173520 Par ch=1 c=64 v=127
173628 On ch=1 n=g#4 v=0
173826 On ch=1 n=d#5 v=46
173832 On ch=1 n=c#5 v=0
173880 On ch=1 n=d#5 v=0
173880 On ch=1 n=f4 v=48
173880 On ch=1 n=c#5 v=50
174096 On ch=1 n=c#5 v=0
174096 On ch=1 n=f4 v=0
174120 On ch=1 n=g#4 v=44
174120 On ch=1 n=c5 v=48
174120 On ch=1 n=e4 v=46
174336 On ch=1 n=e4 v=0
174336 On ch=1 n=c5 v=0
174336 On ch=1 n=g#4 v=0
174360 On ch=1 n=c#5 v=52
174360 On ch=1 n=f4 v=29
174360 Par ch=1 c=64 v=0
174468 On ch=1 n=f4 v=0
174480 On ch=1 n=g#4 v=28
174480 Par ch=1 c=64 v=127
174588 On ch=1 n=g#4 v=0
174792 On ch=1 n=c#5 v=0
175320 On ch=1 n=f5 v=27
175320 Par ch=1 c=64 v=0
175339 On ch=1 n=g#5 v=29
175359 On ch=1 n=c#6 v=50
175380 On ch=1 n=f6 v=52
175428 On ch=1 n=g#5 v=0
175428 On ch=1 n=f5 v=0
175440 On ch=1 n=g#5 v=28
175440 On ch=1 n=f5 v=26
175440 Par ch=1 c=64 v=127
175548 On ch=1 n=f5 v=0
175548 On ch=1 n=g#5 v=0
175968 On ch=1 n=f6 v=0
175968 On ch=1 n=c#6 v=0
176160 On ch=1 n=f#5 v=47
176160 On ch=1 n=d#6 v=43
176160 On ch=1 n=f#6 v=48
176268 On ch=1 n=f#6 v=0
176268 On ch=1 n=d#6 v=0
176268 On ch=1 n=f#5 v=0
176280 On ch=1 n=g#5 v=27
176280 Par ch=1 c=64 v=0
176299 On ch=1 n=c#6 v=29
176319 On ch=1 n=f6 v=48
176340 On ch=1 n=g#6 v=50
176388 On ch=1 n=c#6 v=0
176388 On ch=1 n=g#5 v=0
176400 On ch=1 n=g#5 v=26
176400 On ch=1 n=c#6 v=28
176400 Par ch=1 c=64 v=127
176496 On ch=1 n=g#6 v=0
176496 On ch=1 n=f6 v=0
176508 On ch=1 n=c#6 v=0
176508 On ch=1 n=g#5 v=0
176520 On ch=1 n=f6 v=50
176520 On ch=1 n=g#6 v=52
177168 On ch=1 n=g#6 v=0
177168 On ch=1 n=f6 v=0
177240 On ch=1 n=g#5 v=27
177240 Par ch=1 c=64 v=0
177259 On ch=1 n=c#6 v=29
177279 On ch=1 n=f6 v=50
177300 On ch=1 n=g#6 v=52
177348 On ch=1 n=c#6 v=0
177348 On ch=1 n=g#5 v=0
177360 On ch=1 n=g#5 v=26
177360 On ch=1 n=c#6 v=28
177360 Par ch=1 c=64 v=127
177468 On ch=1 n=c#6 v=0
177468 On ch=1 n=g#5 v=0
178068 On ch=1 n=g#6 v=0
178068 On ch=1 n=f6 v=0
178080 On ch=1 n=f6 v=48
178080 On ch=1 n=a6 v=53
178080 On ch=1 n=a5 v=52
178188 On ch=1 n=a5 v=0
178188 On ch=1 n=a6 v=0
178188 On ch=1 n=f6 v=0
178200 On ch=1 n=a#5 v=27
178200 Par ch=1 c=64 v=0
178219 On ch=1 n=c#6 v=29
178239 On ch=1 n=f#6 v=55
178260 On ch=1 n=a#6 v=57
178308 On ch=1 n=c#6 v=0
178308 On ch=1 n=a#5 v=0
178320 On ch=1 n=a#5 v=26
178320 On ch=1 n=c#6 v=28
178320 Par ch=1 c=64 v=127
178428 On ch=1 n=c#6 v=0
178428 On ch=1 n=a#5 v=0
178848 On ch=1 n=a#6 v=0
178848 On ch=1 n=f#6 v=0
178920 On ch=1 n=f#5 v=54
178920 On ch=1 n=d#6 v=50
178920 On ch=1 n=f#6 v=55
179028 On ch=1 n=f#6 v=0
179028 On ch=1 n=d#6 v=0
179028 On ch=1 n=f#5 v=0
179040 On ch=1 n=f5 v=52
179040 On ch=1 n=c#6 v=48
179040 On ch=1 n=f6 v=53
179148 On ch=1 n=f6 v=0
179148 On ch=1 n=c#6 v=0
179148 On ch=1 n=f5 v=0
179160 On ch=1 n=d#5 v=27
179160 Par ch=1 c=64 v=0
179179 On ch=1 n=g#5 v=29
179199 On ch=1 n=c6 v=55
179220 On ch=1 n=d#6 v=57
179268 On ch=1 n=g#5 v=0
179268 On ch=1 n=d#5 v=0
179280 On ch=1 n=d#5 v=27
179280 On ch=1 n=g#5 v=28
179280 Par ch=1 c=64 v=127
179388 On ch=1 n=g#5 v=0
179388 On ch=1 n=d#5 v=0
179586 On ch=1 n=f6 v=51
179592 On ch=1 n=d#6 v=0
179592 On ch=1 n=c6 v=0
179640 On ch=1 n=f6 v=0
179640 On ch=1 n=d#5 v=54
179640 On ch=1 n=c6 v=50
179640 On ch=1 n=d#6 v=55
179964 On ch=1 n=d#6 v=0
179964 On ch=1 n=c6 v=0
179964 On ch=1 n=d#5 v=0
180000 On ch=1 n=d6 v=53
180000 On ch=1 n=b5 v=48
180000 On ch=1 n=d5 v=52
180108 On ch=1 n=d5 v=0
180108 On ch=1 n=b5 v=0
180108 On ch=1 n=d6 v=0
180120 On ch=1 n=d#5 v=27
180120 Par ch=1 c=64 v=0
180139 On ch=1 n=g#5 v=29
180159 On ch=1 n=c6 v=55
180180 On ch=1 n=d#6 v=57
180228 On ch=1 n=g#5 v=0
180228 On ch=1 n=d#5 v=0
180240 On ch=1 n=d#5 v=27
180240 On ch=1 n=g#5 v=28
180240 Par ch=1 c=64 v=127
180348 On ch=1 n=g#5 v=0
180348 On ch=1 n=d#5 v=0
180552 On ch=1 n=d#6 v=0
180552 On ch=1 n=c6 v=0
181080 On ch=1 n=d#5 v=27
181080 Par ch=1 c=64 v=0
181099 On ch=1 n=g#5 v=29
181119 On ch=1 n=c6 v=55
181140 On ch=1 n=d#6 v=57
181188 On ch=1 n=g#5 v=0
181188 On ch=1 n=d#5 v=0
181200 On ch=1 n=d#5 v=26
181200 On ch=1 n=g#5 v=28
181200 Par ch=1 c=64 v=127
181308 On ch=1 n=g#5 v=0
181308 On ch=1 n=d#5 v=0
181908 On ch=1 n=d#6 v=0
181908 On ch=1 n=c6 v=0
181920 On ch=1 n=f5 v=52
181920 On ch=1 n=c#6 v=48
181920 On ch=1 n=f6 v=53
182028 On ch=1 n=f6 v=0
182028 On ch=1 n=c#6 v=0
182028 On ch=1 n=f5 v=0
182040 On ch=1 n=f#5 v=27
182040 Par ch=1 c=64 v=0
182059 On ch=1 n=g#5 v=29
182079 On ch=1 n=d#6 v=53
182100 On ch=1 n=f#6 v=55
182148 On ch=1 n=g#5 v=0
182148 On ch=1 n=f#5 v=0
182160 On ch=1 n=f#5 v=26
182160 On ch=1 n=g#5 v=28
182160 Par ch=1 c=64 v=127
182256 On ch=1 n=f#6 v=0
182280 On ch=1 n=f#6 v=57
182928 On ch=1 n=f#6 v=0
182928 On ch=1 n=g#5 v=0
182928 On ch=1 n=f#5 v=0
182928 On ch=1 n=d#6 v=0
183000 On ch=1 n=f#5 v=27
183000 Par ch=1 c=64 v=0
183019 On ch=1 n=c6 v=29
183039 On ch=1 n=d#6 v=54
183060 On ch=1 n=f#6 v=57
183108 On ch=1 n=c6 v=0
183108 On ch=1 n=f#5 v=0
183120 On ch=1 n=f#5 v=26
183120 On ch=1 n=c6 v=28
183120 Par ch=1 c=64 v=127
183228 On ch=1 n=c6 v=0
183228 On ch=1 n=f#5 v=0
183648 On ch=1 n=f#6 v=0
183648 On ch=1 n=d#6 v=0
183720 On ch=1 n=e5 v=53
183739 On ch=1 n=a#5 v=52
183759 On ch=1 n=c#6 v=51
183780 On ch=1 n=g6 v=58
183936 On ch=1 n=g6 v=0
183936 On ch=1 n=c#6 v=0
183936 On ch=1 n=a#5 v=0
183936 On ch=1 n=e5 v=0
183960 On ch=1 n=f#5 v=27
183960 Par ch=1 c=64 v=0
183979 On ch=1 n=c6 v=29
183999 On ch=1 n=d#6 v=60
184020 On ch=1 n=g#6 v=62
184068 On ch=1 n=c6 v=0
184068 On ch=1 n=f#5 v=0
184080 On ch=1 n=f#5 v=26
184080 On ch=1 n=c6 v=28
184080 Par ch=1 c=64 v=127
184188 On ch=1 n=c6 v=0
184188 On ch=1 n=f#5 v=0
184608 On ch=1 n=g#6 v=0
184608 On ch=1 n=d#6 v=0
184680 On ch=1 n=f#5 v=53
184680 On ch=1 n=g#5 v=52
184680 On ch=1 n=c6 v=58
184896 On ch=1 n=c6 v=0
184896 On ch=1 n=g#5 v=0
184896 On ch=1 n=f#5 v=0
184920 On ch=1 n=c#6 v=57
184920 On ch=1 n=f5 v=27
184920 On ch=1 n=g#5 v=29
184920 Par ch=1 c=64 v=0
185028 On ch=1 n=g#5 v=0
185028 On ch=1 n=f5 v=0
185040 On ch=1 n=f5 v=26
185040 On ch=1 n=g#5 v=28
185040 Par ch=1 c=64 v=127
185148 On ch=1 n=g#5 v=0
185148 On ch=1 n=f5 v=0
185346 On ch=1 n=d#6 v=51
185352 On ch=1 n=c#6 v=0
185400 On ch=1 n=d#6 v=0
185400 On ch=1 n=f5 v=50
185400 On ch=1 n=g#5 v=49
185400 On ch=1 n=c#6 v=55
185616 On ch=1 n=c#6 v=0
185616 On ch=1 n=g#5 v=0
185616 On ch=1 n=f5 v=0
185640 On ch=1 n=g#5 v=47
185640 On ch=1 n=c6 v=53
185640 On ch=1 n=e5 v=48
185856 On ch=1 n=e5 v=0
185856 On ch=1 n=c6 v=0
185856 On ch=1 n=g#5 v=0
185880 On ch=1 n=c#6 v=57
185880 On ch=1 n=f5 v=27
185880 On ch=1 n=g#5 v=29
185880 Par ch=1 c=64 v=0
185988 On ch=1 n=g#5 v=0
185988 On ch=1 n=f5 v=0
186000 On ch=1 n=f5 v=26
186000 On ch=1 n=g#5 v=28
186000 Par ch=1 c=64 v=127
186108 On ch=1 n=g#5 v=0
186108 On ch=1 n=f5 v=0
186528 On ch=1 n=c#6 v=0
186960 Par ch=1 c=64 v=0
187380 Par ch=1 c=64 v=127
188760 Par ch=1 c=64 v=0
188880 Par ch=1 c=64 v=127
189240 Par ch=1 c=64 v=0
189300 Par ch=1 c=64 v=127
190680 Par ch=1 c=64 v=0
190800 Par ch=1 c=64 v=127
191340 Par ch=1 c=64 v=0
191400 Par ch=1 c=64 v=127
191820 Par ch=1 c=64 v=0
191880 Par ch=1 c=64 v=127
192300 Par ch=1 c=64 v=0
192360 Par ch=1 c=64 v=127
193200 On ch=1 n=g#5 v=45
193200 Par ch=1 c=64 v=0
193308 On ch=1 n=g#5 v=0
193320 On ch=1 n=g#5 v=41
193320 Par ch=1 c=64 v=127
193800 On ch=1 n=c5 v=23
193908 On ch=1 n=c5 v=0
193920 On ch=1 n=d#5 v=21
193968 On ch=1 n=g#5 v=0
194028 On ch=1 n=d#5 v=0
194040 On ch=1 n=g#5 v=22
194070 On ch=1 n=f#6 v=37
194148 On ch=1 n=g#5 v=0
194160 On ch=1 n=d#5 v=20
194226 On ch=1 n=f#6 v=0
194268 On ch=1 n=d#5 v=0
194280 On ch=1 n=f6 v=39
194280 Par ch=1 c=64 v=0
194400 Par ch=1 c=64 v=127
194409 On ch=1 n=f6 v=0
194520 On ch=1 n=d#6 v=41
194760 On ch=1 n=c5 v=23
194868 On ch=1 n=c5 v=0
194880 On ch=1 n=d#5 v=21
194988 On ch=1 n=d#5 v=0
195000 On ch=1 n=g#5 v=22
195108 On ch=1 n=g#5 v=0
195120 On ch=1 n=d#5 v=20
195168 On ch=1 n=d#6 v=0
195228 On ch=1 n=d#5 v=0
195240 On ch=1 n=f6 v=41
195240 Par ch=1 c=64 v=0
195360 Par ch=1 c=64 v=127
195720 On ch=1 n=c#5 v=23
195828 On ch=1 n=c#5 v=0
195840 On ch=1 n=g#5 v=21
195888 On ch=1 n=f6 v=0
195948 On ch=1 n=g#5 v=0
195960 On ch=1 n=f5 v=22
195990 On ch=1 n=f#6 v=37
196068 On ch=1 n=f5 v=0
196080 On ch=1 n=g#5 v=20
196146 On ch=1 n=f#6 v=0
196188 On ch=1 n=g#5 v=0
196200 On ch=1 n=f6 v=39
196200 Par ch=1 c=64 v=0
196320 Par ch=1 c=64 v=127
196329 On ch=1 n=f6 v=0
196440 On ch=1 n=d#6 v=41
196680 On ch=1 n=c5 v=23
196788 On ch=1 n=c5 v=0
196800 On ch=1 n=f#5 v=21
196872 On ch=1 n=d#6 v=0
196908 On ch=1 n=f#5 v=0
196920 On ch=1 n=c6 v=39
196920 On ch=1 n=g#5 v=22
197028 On ch=1 n=g#5 v=0
197040 On ch=1 n=f#5 v=20
197136 On ch=1 n=c6 v=0
197148 On ch=1 n=f#5 v=0
197160 On ch=1 n=c#6 v=41
197160 On ch=1 n=f5 v=24
197160 Par ch=1 c=64 v=0
197268 On ch=1 n=f5 v=0
197280 On ch=1 n=g#5 v=22
197280 Par ch=1 c=64 v=127
197388 On ch=1 n=g#5 v=0
197400 On ch=1 n=f5 v=23
197508 On ch=1 n=f5 v=0
197520 On ch=1 n=g#5 v=21
197586 On ch=1 n=d#6 v=35
197592 On ch=1 n=c#6 v=0
197628 On ch=1 n=g#5 v=0
197640 On ch=1 n=d#6 v=0
197640 On ch=1 n=c#6 v=39
197640 On ch=1 n=f5 v=23
197748 On ch=1 n=f5 v=0
197760 On ch=1 n=g#5 v=21
197868 On ch=1 n=g#5 v=0
197880 On ch=1 n=f5 v=22
197964 On ch=1 n=c#6 v=0
197988 On ch=1 n=f5 v=0
198000 On ch=1 n=c6 v=37
198000 On ch=1 n=e5 v=20
198108 On ch=1 n=e5 v=0
198108 On ch=1 n=c6 v=0
198120 On ch=1 n=c#6 v=41
198120 On ch=1 n=f5 v=24
198120 Par ch=1 c=64 v=0
198228 On ch=1 n=f5 v=0
198240 On ch=1 n=g#5 v=22
198240 Par ch=1 c=64 v=127
198348 On ch=1 n=g#5 v=0
198360 On ch=1 n=f5 v=23
198468 On ch=1 n=f5 v=0
198480 On ch=1 n=g#5 v=21
198552 On ch=1 n=c#6 v=0
198588 On ch=1 n=g#5 v=0
198600 On ch=1 n=c#6 v=22
198708 On ch=1 n=c#6 v=0
198720 On ch=1 n=f6 v=21
198828 On ch=1 n=f6 v=0
198840 On ch=1 n=g#6 v=20
198948 On ch=1 n=g#6 v=0
198960 On ch=1 n=c#7 v=19
199200 On ch=1 n=c#7 v=0
199200 Par ch=1 c=64 v=0
199335 Par ch=1 c=64 v=127
200760 Par ch=1 c=64 v=0
200880 Par ch=1 c=64 v=127
201420 Par ch=1 c=64 v=0
201495 Par ch=1 c=64 v=127
202920 Par ch=1 c=64 v=0
203040 Par ch=1 c=64 v=127
203580 Par ch=1 c=64 v=0
203640 Par ch=1 c=64 v=127
204060 Par ch=1 c=64 v=0
204120 Par ch=1 c=64 v=127
204540 Par ch=1 c=64 v=0
204600 Par ch=1 c=64 v=127
205440 On ch=1 n=g#6 v=60
205440 On ch=1 n=g#5 v=58
205440 Par ch=1 c=64 v=0
205548 On ch=1 n=g#5 v=0
205548 On ch=1 n=g#6 v=0
205560 On ch=1 n=g#6 v=54
205560 On ch=1 n=g#5 v=32
205560 Par ch=1 c=64 v=127
205668 On ch=1 n=g#5 v=0
205680 On ch=1 n=c6 v=28
205680 On ch=1 n=d#6 v=30
205788 On ch=1 n=d#6 v=0
205788 On ch=1 n=c6 v=0
205800 On ch=1 n=g#5 v=31
205908 On ch=1 n=g#5 v=0
205920 On ch=1 n=c6 v=27
205920 On ch=1 n=d#6 v=29
206028 On ch=1 n=d#6 v=0
206028 On ch=1 n=c6 v=0
206040 On ch=1 n=g#5 v=31
206148 On ch=1 n=g#5 v=0
206160 On ch=1 n=c6 v=27
206160 On ch=1 n=d#6 v=29
206208 On ch=1 n=g#6 v=0
206268 On ch=1 n=d#6 v=0
206268 On ch=1 n=c6 v=0
206280 On ch=1 n=f#7 v=50
206280 On ch=1 n=f#6 v=30
206388 On ch=1 n=f#6 v=0
206400 On ch=1 n=g#6 v=26
206400 On ch=1 n=c7 v=28
206496 On ch=1 n=f#7 v=0
206508 On ch=1 n=c7 v=0
206508 On ch=1 n=g#6 v=0
206520 On ch=1 n=f6 v=32
206520 On ch=1 n=f7 v=52
206520 Par ch=1 c=64 v=0
206628 On ch=1 n=f6 v=0
206640 On ch=1 n=g#6 v=28
206640 On ch=1 n=c7 v=30
206640 Par ch=1 c=64 v=127
206649 On ch=1 n=f7 v=0
206748 On ch=1 n=c7 v=0
206748 On ch=1 n=g#6 v=0
206760 On ch=1 n=d#7 v=54
206760 On ch=1 n=d#6 v=31
206868 On ch=1 n=d#6 v=0
206880 On ch=1 n=g#6 v=27
206880 On ch=1 n=c7 v=29
206988 On ch=1 n=c7 v=0
206988 On ch=1 n=g#6 v=0
207000 On ch=1 n=d#6 v=31
207108 On ch=1 n=d#6 v=0
207120 On ch=1 n=g#6 v=27
207120 On ch=1 n=c7 v=29
207228 On ch=1 n=c7 v=0
207228 On ch=1 n=g#6 v=0
207240 On ch=1 n=d#6 v=30
207348 On ch=1 n=d#6 v=0
207360 On ch=1 n=g#6 v=26
207360 On ch=1 n=c7 v=28
207408 On ch=1 n=d#7 v=0
207468 On ch=1 n=c7 v=0
207468 On ch=1 n=g#6 v=0
207480 On ch=1 n=f7 v=54
207480 On ch=1 n=f6 v=32
207480 Par ch=1 c=64 v=0
207588 On ch=1 n=f6 v=0
207600 On ch=1 n=g#6 v=28
207600 On ch=1 n=c#7 v=30
207600 Par ch=1 c=64 v=127
207708 On ch=1 n=c#7 v=0
207708 On ch=1 n=g#6 v=0
207720 On ch=1 n=f6 v=31
207828 On ch=1 n=f6 v=0
207840 On ch=1 n=g#6 v=27
207840 On ch=1 n=c#7 v=29
207948 On ch=1 n=c#7 v=0
207948 On ch=1 n=g#6 v=0
207960 On ch=1 n=f6 v=31
208068 On ch=1 n=f6 v=0
208080 On ch=1 n=g#6 v=27
208080 On ch=1 n=c#7 v=29
208128 On ch=1 n=f7 v=0
208188 On ch=1 n=c#7 v=0
208188 On ch=1 n=g#6 v=0
208200 On ch=1 n=f#7 v=50
208200 On ch=1 n=f#6 v=30
208308 On ch=1 n=f#6 v=0
208320 On ch=1 n=g#6 v=26
208320 On ch=1 n=c#7 v=28
208416 On ch=1 n=f#7 v=0
208428 On ch=1 n=c#7 v=0
208428 On ch=1 n=g#6 v=0
208440 On ch=1 n=f7 v=52
208440 On ch=1 n=f6 v=32
208440 Par ch=1 c=64 v=0
208548 On ch=1 n=f6 v=0
208560 On ch=1 n=g#6 v=28
208560 On ch=1 n=c7 v=30
208560 Par ch=1 c=64 v=127
208569 On ch=1 n=f7 v=0
208668 On ch=1 n=c7 v=0
208668 On ch=1 n=g#6 v=0
208680 On ch=1 n=d#7 v=54
208680 On ch=1 n=d#6 v=31
208788 On ch=1 n=d#6 v=0
208800 On ch=1 n=g#6 v=27
208800 On ch=1 n=c7 v=29
208908 On ch=1 n=c7 v=0
208908 On ch=1 n=g#6 v=0
208920 On ch=1 n=d#6 v=31
209028 On ch=1 n=d#6 v=0
209040 On ch=1 n=g#6 v=27
209040 On ch=1 n=c7 v=29
209148 On ch=1 n=c7 v=0
209148 On ch=1 n=g#6 v=0
209160 On ch=1 n=d#6 v=30
209244 On ch=1 n=d#7 v=0
209268 On ch=1 n=d#6 v=0
209280 On ch=1 n=g#6 v=28
209280 On ch=1 n=c7 v=50
209388 On ch=1 n=c7 v=0
209388 On ch=1 n=g#6 v=0
209400 On ch=1 n=c#7 v=54
209400 On ch=1 n=c#6 v=32
209400 Par ch=1 c=64 v=0
209508 On ch=1 n=c#6 v=0
209520 On ch=1 n=f6 v=28
209520 On ch=1 n=g#6 v=30
209520 Par ch=1 c=64 v=127
209628 On ch=1 n=g#6 v=0
209628 On ch=1 n=f6 v=0
209640 On ch=1 n=c#6 v=31
209748 On ch=1 n=c#6 v=0
209760 On ch=1 n=f6 v=27
209760 On ch=1 n=g#6 v=29
209826 On ch=1 n=d#7 v=48
209832 On ch=1 n=c#7 v=0
209868 On ch=1 n=g#6 v=0
209868 On ch=1 n=f6 v=0
209880 On ch=1 n=d#7 v=0
209880 On ch=1 n=c#7 v=52
209880 On ch=1 n=c#6 v=31
209988 On ch=1 n=c#6 v=0
210000 On ch=1 n=f6 v=27
210000 On ch=1 n=g#6 v=29
210108 On ch=1 n=g#6 v=0
210108 On ch=1 n=f6 v=0
210120 On ch=1 n=c#6 v=30
210204 On ch=1 n=c#7 v=0
210228 On ch=1 n=c#6 v=0
210240 On ch=1 n=c7 v=50
210240 On ch=1 n=e6 v=28
210348 On ch=1 n=e6 v=0
210348 On ch=1 n=c7 v=0
210360 On ch=1 n=c#6 v=32
210360 On ch=1 n=c#7 v=54
210360 Par ch=1 c=64 v=0
210468 On ch=1 n=c#6 v=0
210480 On ch=1 n=f6 v=29
210480 On ch=1 n=g#6 v=31
210480 Par ch=1 c=64 v=127
210588 On ch=1 n=g#6 v=0
210588 On ch=1 n=f6 v=0
210600 On ch=1 n=c#6 v=30
210708 On ch=1 n=c#6 v=0
210720 On ch=1 n=f6 v=27
210720 On ch=1 n=g#6 v=29
210828 On ch=1 n=g#6 v=0
210828 On ch=1 n=f6 v=0
210840 On ch=1 n=c#6 v=28
210948 On ch=1 n=c#6 v=0
210960 On ch=1 n=f6 v=25
210960 On ch=1 n=g#6 v=27
211068 On ch=1 n=g#6 v=0
211068 On ch=1 n=f6 v=0
211080 On ch=1 n=c#6 v=26
211188 On ch=1 n=c#6 v=0
211200 On ch=1 n=g#6 v=20
211200 On ch=1 n=f6 v=18
211224 On ch=1 n=c#7 v=0
211440 On ch=1 n=f6 v=0
211440 On ch=1 n=g#6 v=0
211440 Par ch=1 c=64 v=0
211800 Par ch=1 c=64 v=127
212040 On ch=1 n=c6 v=21
212040 On ch=1 n=e6 v=24
212148 On ch=1 n=e6 v=0
212148 On ch=1 n=c6 v=0
212160 On ch=1 n=c#6 v=20
212160 On ch=1 n=f6 v=23
212268 On ch=1 n=f6 v=0
212268 On ch=1 n=c#6 v=0
212280 On ch=1 n=c7 v=22
212280 On ch=1 n=e7 v=25
212388 On ch=1 n=e7 v=0
212388 On ch=1 n=c7 v=0
212400 On ch=1 n=c#7 v=21
212400 On ch=1 n=f7 v=24
212508 On ch=1 n=f7 v=0
212508 On ch=1 n=c#7 v=0
212760 Par ch=1 c=64 v=0
212820 Par ch=1 c=64 v=120
213000 On ch=1 n=e6 v=21
213000 On ch=1 n=g6 v=24
213108 On ch=1 n=g6 v=0
213108 On ch=1 n=e6 v=0
213120 On ch=1 n=f6 v=20
213120 On ch=1 n=g#6 v=23
213228 On ch=1 n=g#6 v=0
213228 On ch=1 n=f6 v=0
213240 On ch=1 n=e7 v=22
213240 On ch=1 n=g7 v=25
213348 On ch=1 n=g7 v=0
213348 On ch=1 n=e7 v=0
213360 On ch=1 n=f7 v=21
213360 On ch=1 n=g#7 v=24
213468 On ch=1 n=g#7 v=0
213468 On ch=1 n=f7 v=0
213720 Par ch=1 c=64 v=0
213780 Par ch=1 c=64 v=127
213960 On ch=1 n=e6 v=21
213960 On ch=1 n=g6 v=24
214068 On ch=1 n=g6 v=0
214068 On ch=1 n=e6 v=0
214080 On ch=1 n=f6 v=20
214080 On ch=1 n=g#6 v=23
214188 On ch=1 n=g#6 v=0
214188 On ch=1 n=f6 v=0
214200 On ch=1 n=e7 v=22
214200 On ch=1 n=g7 v=25
214308 On ch=1 n=g7 v=0
214308 On ch=1 n=e7 v=0
214320 On ch=1 n=f7 v=21
214320 On ch=1 n=g#7 v=24
214428 On ch=1 n=g#7 v=0
214428 On ch=1 n=f7 v=0
214680 Par ch=1 c=64 v=0
214740 Par ch=1 c=64 v=127
214920 On ch=1 n=f6 v=21
214920 On ch=1 n=a6 v=24
215028 On ch=1 n=a6 v=0
215028 On ch=1 n=f6 v=0
215040 On ch=1 n=f#6 v=20
215040 On ch=1 n=a#6 v=23
215148 On ch=1 n=a#6 v=0
215148 On ch=1 n=f#6 v=0
215160 On ch=1 n=f7 v=22
215160 On ch=1 n=a7 v=25
215268 On ch=1 n=a7 v=0
215268 On ch=1 n=f7 v=0
215280 On ch=1 n=f#7 v=21
215280 On ch=1 n=a#7 v=24
215388 On ch=1 n=a#7 v=0
215388 On ch=1 n=f#7 v=0
215640 Par ch=1 c=64 v=0
215700 Par ch=1 c=64 v=127
215880 On ch=1 n=b5 v=21
215880 On ch=1 n=d6 v=24
215988 On ch=1 n=d6 v=0
215988 On ch=1 n=b5 v=0
216000 On ch=1 n=c6 v=20
216000 On ch=1 n=d#6 v=23
216108 On ch=1 n=d#6 v=0
216108 On ch=1 n=c6 v=0
216120 On ch=1 n=b6 v=22
216120 On ch=1 n=d7 v=25
216228 On ch=1 n=d7 v=0
216228 On ch=1 n=b6 v=0
216240 On ch=1 n=c7 v=21
216240 On ch=1 n=d#7 v=24
216348 On ch=1 n=d#7 v=0
216348 On ch=1 n=c7 v=0
216600 Par ch=1 c=64 v=0
216660 Par ch=1 c=64 v=127
216840 On ch=1 n=b5 v=21
216840 On ch=1 n=d6 v=24
216948 On ch=1 n=d6 v=0
216948 On ch=1 n=b5 v=0
216960 On ch=1 n=d#6 v=23
216960 On ch=1 n=c6 v=20
217068 On ch=1 n=c6 v=0
217068 On ch=1 n=d#6 v=0
217080 On ch=1 n=b6 v=22
217080 On ch=1 n=d7 v=25
217188 On ch=1 n=d7 v=0
217188 On ch=1 n=b6 v=0
217200 On ch=1 n=c7 v=21
217200 On ch=1 n=d#7 v=24
217308 On ch=1 n=d#7 v=0
217308 On ch=1 n=c7 v=0
217560 Par ch=1 c=64 v=0
217620 Par ch=1 c=64 v=127
217800 On ch=1 n=b5 v=21
217800 On ch=1 n=d6 v=24
217908 On ch=1 n=d6 v=0
217908 On ch=1 n=b5 v=0
217920 On ch=1 n=c6 v=20
217920 On ch=1 n=d#6 v=23
218028 On ch=1 n=d#6 v=0
218028 On ch=1 n=c6 v=0
218040 On ch=1 n=b6 v=22
218040 On ch=1 n=d7 v=25
218148 On ch=1 n=d7 v=0
218148 On ch=1 n=b6 v=0
218160 On ch=1 n=c7 v=21
218160 On ch=1 n=d#7 v=24
218268 On ch=1 n=d#7 v=0
218268 On ch=1 n=c7 v=0
218520 Par ch=1 c=64 v=0
218580 Par ch=1 c=64 v=127
218760 On ch=1 n=f6 v=24
218760 On ch=1 n=d6 v=21
218868 On ch=1 n=d6 v=0
218868 On ch=1 n=f6 v=0
218880 On ch=1 n=d#6 v=20
218880 On ch=1 n=f#6 v=23
218988 On ch=1 n=f#6 v=0
218988 On ch=1 n=d#6 v=0
219000 On ch=1 n=f7 v=25
219000 On ch=1 n=d7 v=22
219108 On ch=1 n=d7 v=0
219108 On ch=1 n=f7 v=0
219120 On ch=1 n=d#7 v=21
219120 On ch=1 n=f#7 v=24
219228 On ch=1 n=f#7 v=0
219228 On ch=1 n=d#7 v=0
219480 Par ch=1 c=64 v=127
219540 Par ch=1 c=64 v=127
219720 On ch=1 n=f6 v=29
219720 On ch=1 n=d6 v=26
219828 On ch=1 n=d6 v=0
219828 On ch=1 n=f6 v=0
219840 On ch=1 n=d#6 v=25
219840 On ch=1 n=f#6 v=28
219948 On ch=1 n=f#6 v=0
219948 On ch=1 n=d#6 v=0
219960 On ch=1 n=f7 v=30
219960 On ch=1 n=d7 v=27
220068 On ch=1 n=d7 v=0
220068 On ch=1 n=f7 v=0
220080 On ch=1 n=d#7 v=26
220080 On ch=1 n=f#7 v=29
220188 On ch=1 n=f#7 v=0
220188 On ch=1 n=d#7 v=0
220440 Par ch=1 c=64 v=0
220500 Par ch=1 c=64 v=127
220680 On ch=1 n=b5 v=31
220680 On ch=1 n=g6 v=34
220680 On ch=1 n=d#6 v=28
220788 On ch=1 n=g6 v=0
220788 On ch=1 n=b5 v=0
220800 On ch=1 n=c6 v=30
220800 On ch=1 n=g#6 v=33
220896 On ch=1 n=d#6 v=0
220908 On ch=1 n=g#6 v=0
220908 On ch=1 n=c6 v=0
220920 On ch=1 n=b6 v=32
220920 On ch=1 n=g7 v=35
220920 On ch=1 n=d#7 v=29
221028 On ch=1 n=g7 v=0
221028 On ch=1 n=b6 v=0
221040 On ch=1 n=c7 v=31
221040 On ch=1 n=g#7 v=34
221136 On ch=1 n=d#7 v=0
221148 On ch=1 n=g#7 v=0
221148 On ch=1 n=c7 v=0
221400 Par ch=1 c=64 v=0
221460 Par ch=1 c=64 v=127
221640 On ch=1 n=c6 v=34
221640 On ch=1 n=e5 v=31
221640 On ch=1 n=g#5 v=28
221748 On ch=1 n=e5 v=0
221748 On ch=1 n=c6 v=0
221760 On ch=1 n=f5 v=30
221760 On ch=1 n=c#6 v=33
221856 On ch=1 n=g#5 v=0
221868 On ch=1 n=c#6 v=0
221868 On ch=1 n=f5 v=0
221880 On ch=1 n=c7 v=35
221880 On ch=1 n=e6 v=32
221880 On ch=1 n=g#6 v=29
221988 On ch=1 n=e6 v=0
221988 On ch=1 n=c7 v=0
222000 On ch=1 n=f6 v=31
222000 On ch=1 n=c#7 v=34
222096 On ch=1 n=g#6 v=0
222108 On ch=1 n=c#7 v=0
222108 On ch=1 n=f6 v=0
222360 Par ch=1 c=64 v=0
222420 Par ch=1 c=64 v=127
222600 On ch=1 n=c6 v=34
222600 On ch=1 n=e5 v=31
222600 On ch=1 n=g#5 v=28
222708 On ch=1 n=e5 v=0
222708 On ch=1 n=c6 v=0
222720 On ch=1 n=f5 v=30
222720 On ch=1 n=c#6 v=33
222816 On ch=1 n=g#5 v=0
222828 On ch=1 n=c#6 v=0
222828 On ch=1 n=f5 v=0
222840 On ch=1 n=c7 v=35
222840 On ch=1 n=e6 v=32
222840 On ch=1 n=g#6 v=29
222948 On ch=1 n=e6 v=0
222948 On ch=1 n=c7 v=0
222960 On ch=1 n=f6 v=31
222960 On ch=1 n=c#7 v=34
223056 On ch=1 n=g#6 v=0
223068 On ch=1 n=c#7 v=0
223068 On ch=1 n=f6 v=0
223320 Par ch=1 c=64 v=0
223380 Par ch=1 c=64 v=127
223560 On ch=1 n=c6 v=39
223560 On ch=1 n=e5 v=36
223668 On ch=1 n=e5 v=0
223668 On ch=1 n=c6 v=0
223680 On ch=1 n=f5 v=35
223680 On ch=1 n=c#6 v=38
223788 On ch=1 n=c#6 v=0
223788 On ch=1 n=f5 v=0
223800 On ch=1 n=c7 v=34
223800 On ch=1 n=e6 v=37
223800 On ch=1 n=e7 v=40
223908 On ch=1 n=e7 v=0
223908 On ch=1 n=e6 v=0
223908 On ch=1 n=c7 v=0
223920 On ch=1 n=f6 v=36
223920 On ch=1 n=c#7 v=33
223920 On ch=1 n=f7 v=39
224028 On ch=1 n=f7 v=0
224028 On ch=1 n=c#7 v=0
224028 On ch=1 n=f6 v=0
224280 Par ch=1 c=64 v=0
224340 Par ch=1 c=64 v=127
224520 On ch=1 n=g5 v=41
224520 On ch=1 n=e6 v=44
224628 On ch=1 n=e6 v=0
224628 On ch=1 n=g5 v=0
224640 On ch=1 n=g#5 v=40
224640 On ch=1 n=f6 v=43
224748 On ch=1 n=f6 v=0
224748 On ch=1 n=g#5 v=0
224760 On ch=1 n=g6 v=42
224760 On ch=1 n=e7 v=39
224760 On ch=1 n=g7 v=45
224868 On ch=1 n=g7 v=0
224868 On ch=1 n=e7 v=0
224868 On ch=1 n=g6 v=0
224880 On ch=1 n=g#6 v=41
224880 On ch=1 n=f7 v=38
224880 On ch=1 n=g#7 v=44
224988 On ch=1 n=g#7 v=0
224988 On ch=1 n=f7 v=0
224988 On ch=1 n=g#6 v=0
225240 Par ch=1 c=64 v=0
225300 Par ch=1 c=64 v=127
225480 On ch=1 n=g5 v=41
225480 On ch=1 n=e6 v=44
225588 On ch=1 n=e6 v=0
225588 On ch=1 n=g5 v=0
225600 On ch=1 n=g#5 v=40
225600 On ch=1 n=f6 v=43
225708 On ch=1 n=f6 v=0
225708 On ch=1 n=g#5 v=0
225720 On ch=1 n=g6 v=42
225720 On ch=1 n=e7 v=39
225720 On ch=1 n=g7 v=45
225828 On ch=1 n=g7 v=0
225828 On ch=1 n=e7 v=0
225828 On ch=1 n=g6 v=0
225840 On ch=1 n=g#6 v=41
225840 On ch=1 n=f7 v=38
225840 On ch=1 n=g#7 v=44
225948 On ch=1 n=g#7 v=0
225948 On ch=1 n=f7 v=0
225948 On ch=1 n=g#6 v=0
226200 Par ch=1 c=64 v=0
226260 Par ch=1 c=64 v=127
226440 On ch=1 n=f6 v=44
226440 On ch=1 n=a5 v=41
226548 On ch=1 n=a5 v=0
226548 On ch=1 n=f6 v=0
226560 On ch=1 n=a#5 v=40
226560 On ch=1 n=f#6 v=43
226668 On ch=1 n=f#6 v=0
226668 On ch=1 n=a#5 v=0
226680 On ch=1 n=f7 v=39
226680 On ch=1 n=a6 v=42
226680 On ch=1 n=a7 v=45
226788 On ch=1 n=a7 v=0
226788 On ch=1 n=a6 v=0
226788 On ch=1 n=f7 v=0
226800 On ch=1 n=a#6 v=41
226800 On ch=1 n=f#7 v=38
226800 On ch=1 n=a#7 v=44
226908 On ch=1 n=a#7 v=0
226908 On ch=1 n=f#7 v=0
226908 On ch=1 n=a#6 v=0
227160 Par ch=1 c=64 v=0
227220 Par ch=1 c=64 v=127
227400 On ch=1 n=d5 v=41
227400 On ch=1 n=b5 v=44
227508 On ch=1 n=b5 v=0
227508 On ch=1 n=d5 v=0
227520 On ch=1 n=d#5 v=40
227520 On ch=1 n=c6 v=43
227628 On ch=1 n=c6 v=0
227628 On ch=1 n=d#5 v=0
227640 On ch=1 n=d6 v=42
227640 On ch=1 n=b6 v=39
227640 On ch=1 n=d7 v=45
227748 On ch=1 n=d7 v=0
227748 On ch=1 n=b6 v=0
227748 On ch=1 n=d6 v=0
227760 On ch=1 n=d#6 v=41
227760 On ch=1 n=c7 v=38
227760 On ch=1 n=d#7 v=44
227868 On ch=1 n=d#7 v=0
227868 On ch=1 n=c7 v=0
227868 On ch=1 n=d#6 v=0
228120 Par ch=1 c=64 v=0
228180 Par ch=1 c=64 v=127
228360 On ch=1 n=d5 v=41
228360 On ch=1 n=b5 v=44
228468 On ch=1 n=b5 v=0
228468 On ch=1 n=d5 v=0
228480 On ch=1 n=d#5 v=40
228480 On ch=1 n=c6 v=43
228588 On ch=1 n=c6 v=0
228588 On ch=1 n=d#5 v=0
228600 On ch=1 n=d6 v=42
228600 On ch=1 n=b6 v=39
228600 On ch=1 n=d7 v=45
228708 On ch=1 n=d7 v=0
228708 On ch=1 n=b6 v=0
228708 On ch=1 n=d6 v=0
228720 On ch=1 n=d#6 v=41
228720 On ch=1 n=c7 v=38
228720 On ch=1 n=d#7 v=44
228828 On ch=1 n=d#7 v=0
228828 On ch=1 n=c7 v=0
228828 On ch=1 n=d#6 v=0
229080 Par ch=1 c=64 v=0
229140 Par ch=1 c=64 v=127
229320 On ch=1 n=d5 v=46
229320 On ch=1 n=b5 v=49
229428 On ch=1 n=b5 v=0
229428 On ch=1 n=d5 v=0
229440 On ch=1 n=d#5 v=45
229440 On ch=1 n=c6 v=48
229548 On ch=1 n=c6 v=0
229548 On ch=1 n=d#5 v=0
229560 On ch=1 n=d6 v=47
229560 On ch=1 n=b6 v=44
229560 On ch=1 n=d7 v=50
229668 On ch=1 n=d7 v=0
229668 On ch=1 n=b6 v=0
229668 On ch=1 n=d6 v=0
229680 On ch=1 n=d#6 v=46
229680 On ch=1 n=c7 v=43
229680 On ch=1 n=d#7 v=49
229788 On ch=1 n=d#7 v=0
229788 On ch=1 n=c7 v=0
229788 On ch=1 n=d#6 v=0
230040 Par ch=1 c=64 v=0
230100 Par ch=1 c=64 v=127
230280 On ch=1 n=f5 v=51
230280 On ch=1 n=d6 v=54
230388 On ch=1 n=d6 v=0
230388 On ch=1 n=f5 v=0
230400 On ch=1 n=f#5 v=50
230400 On ch=1 n=d#6 v=53
230508 On ch=1 n=d#6 v=0
230508 On ch=1 n=f#5 v=0
230520 On ch=1 n=f6 v=52
230520 On ch=1 n=f7 v=55
230520 On ch=1 n=d7 v=49
230628 On ch=1 n=d7 v=0
230628 On ch=1 n=f7 v=0
230628 On ch=1 n=f6 v=0
230640 On ch=1 n=f#6 v=51
230640 On ch=1 n=d#7 v=48
230640 On ch=1 n=f#7 v=54
230748 On ch=1 n=f#7 v=0
230748 On ch=1 n=d#7 v=0
230748 On ch=1 n=f#6 v=0
231000 Par ch=1 c=64 v=0
231060 Par ch=1 c=64 v=127
231240 On ch=1 n=f5 v=56
231240 On ch=1 n=d6 v=59
231348 On ch=1 n=d6 v=0
231348 On ch=1 n=f5 v=0
231360 On ch=1 n=f#5 v=55
231360 On ch=1 n=d#6 v=58
231468 On ch=1 n=d#6 v=0
231468 On ch=1 n=f#5 v=0
231480 On ch=1 n=f6 v=57
231480 On ch=1 n=f7 v=60
231480 On ch=1 n=d7 v=54
231588 On ch=1 n=d7 v=0
231588 On ch=1 n=f7 v=0
231588 On ch=1 n=f6 v=0
231600 On ch=1 n=f#6 v=56
231600 On ch=1 n=d#7 v=53
231600 On ch=1 n=f#7 v=59
231708 On ch=1 n=f#7 v=0
231708 On ch=1 n=d#7 v=0
231708 On ch=1 n=f#6 v=0
231960 Par ch=1 c=64 v=0
232020 Par ch=1 c=64 v=127
232200 On ch=1 n=b5 v=61
232200 On ch=1 n=g6 v=64
232200 On ch=1 n=d#6 v=58
232308 On ch=1 n=g6 v=0
232308 On ch=1 n=b5 v=0
232320 On ch=1 n=c6 v=60
232320 On ch=1 n=g#6 v=63
232416 On ch=1 n=d#6 v=0
232428 On ch=1 n=g#6 v=0
232428 On ch=1 n=c6 v=0
232440 On ch=1 n=b6 v=62
232440 On ch=1 n=g7 v=65
232440 On ch=1 n=d#7 v=59
232548 On ch=1 n=g7 v=0
232548 On ch=1 n=b6 v=0
232560 On ch=1 n=c7 v=61
232560 On ch=1 n=g#7 v=64
232656 On ch=1 n=d#7 v=0
232668 On ch=1 n=g#7 v=0
232668 On ch=1 n=c7 v=0
232920 Par ch=1 c=64 v=0
232980 Par ch=1 c=64 v=127
233160 On ch=1 n=c6 v=64
233160 On ch=1 n=e5 v=61
233160 On ch=1 n=g#5 v=58
233268 On ch=1 n=e5 v=0
233268 On ch=1 n=c6 v=0
233280 On ch=1 n=f5 v=60
233280 On ch=1 n=c#6 v=63
233376 On ch=1 n=g#5 v=0
233388 On ch=1 n=c#6 v=0
233388 On ch=1 n=f5 v=0
233400 On ch=1 n=c7 v=65
233400 On ch=1 n=e6 v=62
233400 On ch=1 n=g#6 v=59
233508 On ch=1 n=e6 v=0
233508 On ch=1 n=c7 v=0
233520 On ch=1 n=f6 v=61
233520 On ch=1 n=c#7 v=64
233616 On ch=1 n=g#6 v=0
233628 On ch=1 n=c#7 v=0
233628 On ch=1 n=f6 v=0
233880 Par ch=1 c=64 v=0
233940 Par ch=1 c=64 v=127
234120 On ch=1 n=c6 v=64
234120 On ch=1 n=e5 v=61
234120 On ch=1 n=g#5 v=58
234228 On ch=1 n=e5 v=0
234228 On ch=1 n=c6 v=0
234240 On ch=1 n=f5 v=60
234240 On ch=1 n=c#6 v=63
234336 On ch=1 n=g#5 v=0
234348 On ch=1 n=c#6 v=0
234348 On ch=1 n=f5 v=0
234360 On ch=1 n=c7 v=65
234360 On ch=1 n=e6 v=62
234360 On ch=1 n=g#6 v=59
234468 On ch=1 n=e6 v=0
234468 On ch=1 n=c7 v=0
234480 On ch=1 n=f6 v=61
234480 On ch=1 n=c#7 v=64
234576 On ch=1 n=g#6 v=0
234588 On ch=1 n=c#7 v=0
234588 On ch=1 n=f6 v=0
234600 On ch=1 n=c8 v=63
234600 On ch=1 n=e7 v=60
234600 On ch=1 n=g#7 v=57
234708 On ch=1 n=e7 v=0
234708 On ch=1 n=c8 v=0
234720 On ch=1 n=f7 v=59
234720 On ch=1 n=c#8 v=62
234816 On ch=1 n=g#7 v=0
234840 Par ch=1 c=64 v=0
235508 On ch=1 n=c#8 v=0
235508 On ch=1 n=f7 v=0
235800 On ch=1 n=e4 v=58
235800 On ch=1 n=g#4 v=62
235800 On ch=1 n=e5 v=82
235800 Par ch=1 c=64 v=127
235908 On ch=1 n=g#4 v=0
235908 On ch=1 n=e4 v=0
235920 On ch=1 n=e4 v=57
235920 On ch=1 n=g#4 v=61
236136 On ch=1 n=g#4 v=0
236136 On ch=1 n=e4 v=0
236160 On ch=1 n=e4 v=55
236160 On ch=1 n=g#4 v=59
236268 On ch=1 n=g#4 v=0
236268 On ch=1 n=e4 v=0
236280 On ch=1 n=g#4 v=61
236280 On ch=1 n=e4 v=57
236388 On ch=1 n=e4 v=0
236388 On ch=1 n=g#4 v=0
236400 On ch=1 n=e4 v=55
236400 On ch=1 n=g#4 v=59
236508 On ch=1 n=g#4 v=0
236508 On ch=1 n=e4 v=0
236520 On ch=1 n=e5 v=0
236520 On ch=1 n=e5 v=66
236520 On ch=1 n=e4 v=56
236520 On ch=1 n=g#4 v=60
236628 On ch=1 n=g#4 v=0
236628 On ch=1 n=e4 v=0
236640 On ch=1 n=e4 v=54
236640 On ch=1 n=g#4 v=58
236748 On ch=1 n=g#4 v=0
236748 On ch=1 n=e4 v=0
236760 On ch=1 n=e5 v=0
236760 On ch=1 n=d#5 v=70
236760 On ch=1 n=g#4 v=62
236760 On ch=1 n=d#4 v=58
236760 Par ch=1 c=64 v=0
236820 Par ch=1 c=64 v=127
236832 On ch=1 n=d#4 v=0
236832 On ch=1 n=g#4 v=0
236840 On ch=1 n=g#4 v=61
236840 On ch=1 n=d#4 v=57
236912 On ch=1 n=d#4 v=0
236912 On ch=1 n=g#4 v=0
236920 On ch=1 n=g#4 v=60
236920 On ch=1 n=d#4 v=56
236992 On ch=1 n=d#4 v=0
236992 On ch=1 n=g#4 v=0
237000 On ch=1 n=d#5 v=0
237000 On ch=1 n=c#5 v=82
237000 On ch=1 n=c#4 v=56
237000 On ch=1 n=g#4 v=60
237000 Par ch=1 c=64 v=0
237060 Par ch=1 c=64 v=127
237072 On ch=1 n=g#4 v=0
237072 On ch=1 n=c#4 v=0
237080 On ch=1 n=g#4 v=59
237080 On ch=1 n=c#4 v=55
237152 On ch=1 n=c#4 v=0
237152 On ch=1 n=g#4 v=0
237160 On ch=1 n=c#4 v=54
237160 On ch=1 n=g#4 v=58
237232 On ch=1 n=g#4 v=0
237232 On ch=1 n=c#4 v=0
237240 On ch=1 n=c#4 v=57
237240 On ch=1 n=g#4 v=61
237294 On ch=1 n=g#4 v=0
237294 On ch=1 n=c#4 v=0
237300 On ch=1 n=g#4 v=60
237300 On ch=1 n=c#4 v=56
237354 On ch=1 n=c#4 v=0
237354 On ch=1 n=g#4 v=0
237360 On ch=1 n=c#4 v=55
237360 On ch=1 n=g#4 v=59
237414 On ch=1 n=g#4 v=0
237414 On ch=1 n=c#4 v=0
237420 On ch=1 n=g#4 v=58
237420 On ch=1 n=c#4 v=54
237474 On ch=1 n=c#4 v=0
237474 On ch=1 n=g#4 v=0
237480 On ch=1 n=g#4 v=59
237480 On ch=1 n=c#4 v=55
237512 On ch=1 n=c#4 v=0
237512 On ch=1 n=g#4 v=0
237648 On ch=1 n=c#5 v=0
237660 Par ch=1 c=64 v=0
237720 On ch=1 n=e4 v=58
237720 On ch=1 n=g4 v=62
237720 On ch=1 n=e5 v=82
237720 Par ch=1 c=64 v=127
237828 On ch=1 n=g4 v=0
237828 On ch=1 n=e4 v=0
237840 On ch=1 n=e4 v=57
237840 On ch=1 n=g4 v=61
238056 On ch=1 n=g4 v=0
238056 On ch=1 n=e4 v=0
238080 On ch=1 n=e4 v=55
238080 On ch=1 n=g4 v=59
238188 On ch=1 n=g4 v=0
238188 On ch=1 n=e4 v=0
238200 On ch=1 n=e4 v=57
238200 On ch=1 n=g4 v=61
238308 On ch=1 n=g4 v=0
238308 On ch=1 n=e4 v=0
238320 On ch=1 n=e4 v=55
238320 On ch=1 n=g4 v=59
238428 On ch=1 n=g4 v=0
238428 On ch=1 n=e4 v=0
238440 On ch=1 n=e5 v=0
238440 On ch=1 n=e5 v=68
238440 On ch=1 n=e4 v=56
238440 On ch=1 n=g4 v=60
238548 On ch=1 n=g4 v=0
238548 On ch=1 n=e4 v=0
238560 On ch=1 n=e4 v=54
238560 On ch=1 n=g4 v=58
238668 On ch=1 n=g4 v=0
238668 On ch=1 n=e4 v=0
238680 On ch=1 n=e5 v=0
238680 On ch=1 n=d#5 v=70
238680 On ch=1 n=d#4 v=58
238680 On ch=1 n=g4 v=62
238680 Par ch=1 c=64 v=0
238740 Par ch=1 c=64 v=127
238752 On ch=1 n=g4 v=0
238752 On ch=1 n=d#4 v=0
238760 On ch=1 n=d#4 v=57
238760 On ch=1 n=g4 v=61
238832 On ch=1 n=g4 v=0
238832 On ch=1 n=d#4 v=0
238840 On ch=1 n=d#4 v=56
238840 On ch=1 n=g4 v=60
238912 On ch=1 n=g4 v=0
238912 On ch=1 n=d#4 v=0
238920 On ch=1 n=d#5 v=0
238920 On ch=1 n=c#5 v=82
238920 On ch=1 n=c#4 v=56
238920 On ch=1 n=g4 v=60
238920 Par ch=1 c=64 v=0
238980 Par ch=1 c=64 v=127
238992 On ch=1 n=g4 v=0
238992 On ch=1 n=c#4 v=0
239000 On ch=1 n=c#4 v=55
239000 On ch=1 n=g4 v=59
239072 On ch=1 n=g4 v=0
239072 On ch=1 n=c#4 v=0
239080 On ch=1 n=c#4 v=54
239080 On ch=1 n=g4 v=58
239152 On ch=1 n=g4 v=0
239152 On ch=1 n=c#4 v=0
239160 On ch=1 n=c#4 v=57
239160 On ch=1 n=g4 v=61
239214 On ch=1 n=g4 v=0
239214 On ch=1 n=c#4 v=0
239220 On ch=1 n=c#4 v=56
239220 On ch=1 n=g4 v=60
239274 On ch=1 n=g4 v=0
239274 On ch=1 n=c#4 v=0
239280 On ch=1 n=c#4 v=55
239280 On ch=1 n=g4 v=59
239334 On ch=1 n=g4 v=0
239334 On ch=1 n=c#4 v=0
239340 On ch=1 n=c#4 v=54
239340 On ch=1 n=g4 v=58
239394 On ch=1 n=g4 v=0
239394 On ch=1 n=c#4 v=0
239400 On ch=1 n=f#4 v=59
239400 On ch=1 n=c#4 v=55
239432 On ch=1 n=c#4 v=0
239432 On ch=1 n=f#4 v=0
239568 On ch=1 n=c#5 v=0
239580 Par ch=1 c=64 v=0
239640 On ch=1 n=c5 v=82
239640 On ch=1 n=g#4 v=75
239640 On ch=1 n=d#4 v=77
239640 Par ch=1 c=64 v=127
240072 On ch=1 n=d#4 v=0
240072 On ch=1 n=g#4 v=0
240072 On ch=1 n=c5 v=0
240120 On ch=1 n=f4 v=75
240120 On ch=1 n=c#5 v=80
240120 On ch=1 n=g#4 v=73
240120 Par ch=1 c=64 v=0
240180 Par ch=1 c=64 v=127
240552 On ch=1 n=g#4 v=0
240552 On ch=1 n=c#5 v=0
240552 On ch=1 n=f4 v=0
240600 On ch=1 n=c5 v=75
240600 On ch=1 n=d#5 v=82
240600 On ch=1 n=f#4 v=77
240600 Par ch=1 c=64 v=0
240720 Par ch=1 c=64 v=127
241080 On ch=1 n=g#3 v=70
241080 Par ch=1 c=64 v=0
241096 On ch=1 n=g#3 v=0
241140 On ch=1 n=a#3 v=64
241140 Par ch=1 c=64 v=127
241154 On ch=1 n=a#3 v=0
241200 On ch=1 n=g#3 v=63
241216 On ch=1 n=g#3 v=0
241260 On ch=1 n=a#3 v=63
241275 On ch=1 n=a#3 v=0
241318 On ch=1 n=g#3 v=58
241334 On ch=1 n=g#3 v=0
241378 On ch=1 n=a#3 v=66
241394 On ch=1 n=a#3 v=0
241438 On ch=1 n=g#3 v=67
241454 On ch=1 n=g#3 v=0
241464 On ch=1 n=f#4 v=0
241464 On ch=1 n=d#5 v=0
241464 On ch=1 n=c5 v=0
241502 On ch=1 n=a#3 v=71
241514 On ch=1 n=a#3 v=0
241560 On ch=1 n=g#4 v=72
241560 Par ch=1 c=64 v=0
241576 On ch=1 n=g#4 v=0
241620 On ch=1 n=a#4 v=66
241620 Par ch=1 c=64 v=127
241634 On ch=1 n=a#4 v=0
241680 On ch=1 n=g#4 v=65
241696 On ch=1 n=g#4 v=0
241740 On ch=1 n=a#4 v=65
241755 On ch=1 n=a#4 v=0
241798 On ch=1 n=g#4 v=60
241814 On ch=1 n=g#4 v=0
241858 On ch=1 n=a#4 v=68
241874 On ch=1 n=a#4 v=0
241918 On ch=1 n=g#4 v=69
241934 On ch=1 n=g#4 v=0
241982 On ch=1 n=a#4 v=73
241994 On ch=1 n=a#4 v=0
242040 On ch=1 n=g#5 v=68
242040 Par ch=1 c=64 v=0
242056 On ch=1 n=g#5 v=0
242100 On ch=1 n=a#5 v=62
242100 Par ch=1 c=64 v=125
242114 On ch=1 n=a#5 v=0
242160 On ch=1 n=g#5 v=61
242176 On ch=1 n=g#5 v=0
242220 On ch=1 n=a#5 v=61
242235 On ch=1 n=a#5 v=0
242278 On ch=1 n=g#5 v=56
242294 On ch=1 n=g#5 v=0
242338 On ch=1 n=a#5 v=64
242354 On ch=1 n=a#5 v=0
242398 On ch=1 n=g#5 v=65
242414 On ch=1 n=g#5 v=0
242462 On ch=1 n=a#5 v=69
242474 On ch=1 n=a#5 v=0
242520 On ch=1 n=g#6 v=72
242520 Par ch=1 c=64 v=0
242574 On ch=1 n=g#6 v=0
242580 On ch=1 n=a#6 v=66
242580 Par ch=1 c=64 v=123
242628 On ch=1 n=a#6 v=0
242640 On ch=1 n=g#6 v=65
242694 On ch=1 n=g#6 v=0
242700 On ch=1 n=a#6 v=65
242752 On ch=1 n=a#6 v=0
242758 On ch=1 n=g#6 v=60
242812 On ch=1 n=g#6 v=0
242818 On ch=1 n=a#6 v=68
242872 On ch=1 n=a#6 v=0
242878 On ch=1 n=g#6 v=69
242933 On ch=1 n=g#6 v=0
242942 On ch=1 n=a#6 v=73
242985 On ch=1 n=a#6 v=0
243000 On ch=1 n=g#7 v=74
243000 Par ch=1 c=64 v=0
243054 On ch=1 n=g#7 v=0
243060 On ch=1 n=a#7 v=68
243060 Par ch=1 c=64 v=127
243108 On ch=1 n=a#7 v=0
243120 On ch=1 n=g#7 v=67
243174 On ch=1 n=g#7 v=0
243180 On ch=1 n=a#7 v=67
243232 On ch=1 n=a#7 v=0
243238 On ch=1 n=g#7 v=55
243292 On ch=1 n=g#7 v=0
243298 On ch=1 n=a#7 v=63
243352 On ch=1 n=a#7 v=0
243358 On ch=1 n=g#7 v=64
243413 On ch=1 n=g#7 v=0
243422 On ch=1 n=a#7 v=68
243465 On ch=1 n=a#7 v=0
243480 On ch=1 n=g#7 v=53
243534 On ch=1 n=g#7 v=0
243542 On ch=1 n=a#7 v=60
243585 On ch=1 n=a#7 v=0
243602 On ch=1 n=g#7 v=59
243650 On ch=1 n=g#7 v=0
243658 On ch=1 n=a#7 v=64
243712 On ch=1 n=a#7 v=0
243718 On ch=1 n=g#7 v=48
243766 On ch=1 n=g#7 v=0
243780 On ch=1 n=a#7 v=53
243832 On ch=1 n=a#7 v=0
243838 On ch=1 n=g#7 v=45
243894 On ch=1 n=g#7 v=0
243897 On ch=1 n=a#7 v=49
243953 On ch=1 n=a#7 v=0
243960 On ch=1 n=g#7 v=49
244012 On ch=1 n=g#7 v=0
244018 On ch=1 n=a#7 v=42
244064 On ch=1 n=a#7 v=0
244076 On ch=1 n=g#7 v=37
244127 On ch=1 n=g#7 v=0
244140 On ch=1 n=a#7 v=46
244190 On ch=1 n=a#7 v=0
244200 On ch=1 n=g#7 v=32
244200 On ch=1 n=g#6 v=47
244257 On ch=1 n=g#7 v=0
244262 On ch=1 n=a#7 v=40
244312 On ch=1 n=a#7 v=0
244316 On ch=1 n=g#7 v=31
244374 On ch=1 n=g#7 v=0
244378 On ch=1 n=a#7 v=33
244416 On ch=1 n=g#6 v=0
244432 On ch=1 n=a#7 v=0
244440 On ch=1 n=g#6 v=55
244440 On ch=1 n=g#7 v=31
244440 Par ch=1 c=64 v=0
244494 On ch=1 n=g#7 v=0
244500 On ch=1 n=a#7 v=35
244500 Par ch=1 c=64 v=127
244548 On ch=1 n=a#7 v=0
244560 On ch=1 n=g#7 v=34
244614 On ch=1 n=g#7 v=0
244620 On ch=1 n=a#7 v=34
244672 On ch=1 n=a#7 v=0
244678 On ch=1 n=g#7 v=29
244732 On ch=1 n=g#7 v=0
244738 On ch=1 n=a#7 v=37
244792 On ch=1 n=a#7 v=0
244798 On ch=1 n=g#7 v=38
244853 On ch=1 n=g#7 v=0
244862 On ch=1 n=a#7 v=42
244905 On ch=1 n=a#7 v=0
244920 On ch=1 n=g#7 v=34
244974 On ch=1 n=g#7 v=0
244982 On ch=1 n=a#7 v=41
245025 On ch=1 n=a#7 v=0
245042 On ch=1 n=g#7 v=40
245090 On ch=1 n=g#7 v=0
245098 On ch=1 n=a#7 v=45
245152 On ch=1 n=a#7 v=0
245158 On ch=1 n=g#7 v=36
245206 On ch=1 n=g#7 v=0
245220 On ch=1 n=a#7 v=41
245272 On ch=1 n=a#7 v=0
245278 On ch=1 n=g#7 v=33
245334 On ch=1 n=g#7 v=0
245337 On ch=1 n=a#7 v=37
245393 On ch=1 n=a#7 v=0
245400 On ch=1 n=g#7 v=44
245452 On ch=1 n=g#7 v=0
245458 On ch=1 n=a#7 v=37
245504 On ch=1 n=a#7 v=0
245516 On ch=1 n=g#7 v=32
245567 On ch=1 n=g#7 v=0
245580 On ch=1 n=a#7 v=41
245630 On ch=1 n=a#7 v=0
245640 On ch=1 n=g#7 v=34
245697 On ch=1 n=g#7 v=0
245702 On ch=1 n=a#7 v=42
245752 On ch=1 n=a#7 v=0
245756 On ch=1 n=g#7 v=33
245814 On ch=1 n=g#7 v=0
245818 On ch=1 n=a#7 v=35
245872 On ch=1 n=a#7 v=0
245880 On ch=1 n=g#6 v=0
245880 On ch=1 n=f#7 v=41
245880 On ch=1 n=g#7 v=29
245938 On ch=1 n=g#7 v=0
245940 On ch=1 n=a#7 v=41
245992 On ch=1 n=a#7 v=0
245998 On ch=1 n=g#7 v=33
246056 On ch=1 n=g#7 v=0
246061 On ch=1 n=a#7 v=40
246116 On ch=1 n=a#7 v=0
246122 On ch=1 n=g#7 v=36
246180 On ch=1 n=g#7 v=0
246182 On ch=1 n=a#7 v=34
246232 On ch=1 n=a#7 v=0
246244 On ch=1 n=g#7 v=34
246294 On ch=1 n=g#7 v=0
246302 On ch=1 n=a#7 v=41
246312 On ch=1 n=f#7 v=0
246356 On ch=1 n=a#7 v=0
246360 On ch=1 n=g#7 v=44
246360 On ch=1 n=f7 v=43
246360 Par ch=1 c=64 v=0
246412 On ch=1 n=g#7 v=0
246418 On ch=1 n=a#7 v=37
246420 Par ch=1 c=64 v=127
246464 On ch=1 n=a#7 v=0
246476 On ch=1 n=g#7 v=32
246527 On ch=1 n=g#7 v=0
246540 On ch=1 n=a#7 v=41
246590 On ch=1 n=a#7 v=0
246600 On ch=1 n=g#7 v=34
246619 On ch=1 n=f7 v=0
246657 On ch=1 n=g#7 v=0
246662 On ch=1 n=a#7 v=42
246712 On ch=1 n=a#7 v=0
246716 On ch=1 n=g#7 v=33
246774 On ch=1 n=g#7 v=0
246778 On ch=1 n=a#7 v=35
246832 On ch=1 n=a#7 v=0
246840 On ch=1 n=g#7 v=33
246840 On ch=1 n=d#7 v=45
246898 On ch=1 n=g#7 v=0
246902 On ch=1 n=a#7 v=35
246956 On ch=1 n=a#7 v=0
246964 On ch=1 n=g#7 v=29
247022 On ch=1 n=g#7 v=0
247024 On ch=1 n=a#7 v=41
247076 On ch=1 n=a#7 v=0
247082 On ch=1 n=g#7 v=33
247140 On ch=1 n=g#7 v=0
247145 On ch=1 n=a#7 v=40
247200 On ch=1 n=a#7 v=0
247206 On ch=1 n=g#7 v=36
247264 On ch=1 n=g#7 v=0
247266 On ch=1 n=a#7 v=34
247316 On ch=1 n=a#7 v=0
247320 On ch=1 n=g#7 v=31
247374 On ch=1 n=g#7 v=0
247380 On ch=1 n=a#7 v=35
247428 On ch=1 n=a#7 v=0
247440 On ch=1 n=g#7 v=34
247494 On ch=1 n=g#7 v=0
247500 On ch=1 n=a#7 v=34
247552 On ch=1 n=a#7 v=0
247558 On ch=1 n=g#7 v=29
247612 On ch=1 n=g#7 v=0
247618 On ch=1 n=a#7 v=37
247672 On ch=1 n=a#7 v=0
247678 On ch=1 n=g#7 v=38
247733 On ch=1 n=g#7 v=0
247742 On ch=1 n=a#7 v=42
247785 On ch=1 n=a#7 v=0
247800 On ch=1 n=g#7 v=34
247854 On ch=1 n=g#7 v=0
247862 On ch=1 n=a#7 v=41
247905 On ch=1 n=a#7 v=0
247922 On ch=1 n=g#7 v=40
247970 On ch=1 n=g#7 v=0
247978 On ch=1 n=a#7 v=45
248032 On ch=1 n=a#7 v=0
248038 On ch=1 n=g#7 v=36
248086 On ch=1 n=g#7 v=0
248100 On ch=1 n=a#7 v=41
248136 On ch=1 n=d#7 v=0
248152 On ch=1 n=a#7 v=0
248158 On ch=1 n=g#7 v=33
248214 On ch=1 n=g#7 v=0
248217 On ch=1 n=a#7 v=37
248273 On ch=1 n=a#7 v=0
248280 On ch=1 n=g#7 v=44
248280 On ch=1 n=f7 v=45
248280 Par ch=1 c=64 v=0
248332 On ch=1 n=g#7 v=0
248338 On ch=1 n=a#7 v=37
248340 Par ch=1 c=64 v=127
248384 On ch=1 n=a#7 v=0
248396 On ch=1 n=g#7 v=32
248447 On ch=1 n=g#7 v=0
248460 On ch=1 n=a#7 v=41
248510 On ch=1 n=a#7 v=0
248520 On ch=1 n=g#7 v=34
248577 On ch=1 n=g#7 v=0
248582 On ch=1 n=a#7 v=42
248632 On ch=1 n=a#7 v=0
248636 On ch=1 n=g#7 v=33
248694 On ch=1 n=g#7 v=0
248698 On ch=1 n=a#7 v=35
248752 On ch=1 n=a#7 v=0
248760 On ch=1 n=g#7 v=29
248818 On ch=1 n=g#7 v=0
248820 On ch=1 n=a#7 v=41
248872 On ch=1 n=a#7 v=0
248878 On ch=1 n=g#7 v=33
248936 On ch=1 n=g#7 v=0
248941 On ch=1 n=a#7 v=40
248996 On ch=1 n=a#7 v=0
249002 On ch=1 n=g#7 v=36
249060 On ch=1 n=g#7 v=0
249062 On ch=1 n=a#7 v=34
249112 On ch=1 n=a#7 v=0
249124 On ch=1 n=g#7 v=34
249174 On ch=1 n=g#7 v=0
249182 On ch=1 n=a#7 v=41
249236 On ch=1 n=a#7 v=0
249240 On ch=1 n=g#7 v=44
249292 On ch=1 n=g#7 v=0
249298 On ch=1 n=a#7 v=37
249344 On ch=1 n=a#7 v=0
249356 On ch=1 n=g#7 v=32
249407 On ch=1 n=g#7 v=0
249420 On ch=1 n=a#7 v=41
249470 On ch=1 n=a#7 v=0
249480 On ch=1 n=g#7 v=34
249537 On ch=1 n=g#7 v=0
249542 On ch=1 n=a#7 v=42
249592 On ch=1 n=a#7 v=0
249596 On ch=1 n=g#7 v=33
249654 On ch=1 n=g#7 v=0
249658 On ch=1 n=a#7 v=35
249712 On ch=1 n=a#7 v=0
249720 On ch=1 n=f7 v=0
249720 On ch=1 n=g#7 v=33
249720 On ch=1 n=f#7 v=41
249778 On ch=1 n=g#7 v=0
249782 On ch=1 n=a#7 v=35
249836 On ch=1 n=a#7 v=0
249844 On ch=1 n=g#7 v=29
249902 On ch=1 n=g#7 v=0
249904 On ch=1 n=a#7 v=41
249956 On ch=1 n=a#7 v=0
249962 On ch=1 n=g#7 v=33
250020 On ch=1 n=g#7 v=0
250025 On ch=1 n=a#7 v=40
250080 On ch=1 n=a#7 v=0
250086 On ch=1 n=g#7 v=36
250144 On ch=1 n=g#7 v=0
250146 On ch=1 n=a#7 v=34
250152 On ch=1 n=f#7 v=0
250196 On ch=1 n=a#7 v=0
250200 On ch=1 n=g#7 v=31
250200 On ch=1 n=f7 v=43
250200 Par ch=1 c=64 v=0
250254 On ch=1 n=g#7 v=0
250260 On ch=1 n=a#7 v=35
250260 Par ch=1 c=64 v=127
250308 On ch=1 n=a#7 v=0
250320 On ch=1 n=g#7 v=34
250374 On ch=1 n=g#7 v=0
250380 On ch=1 n=a#7 v=34
250432 On ch=1 n=a#7 v=0
250438 On ch=1 n=g#7 v=29
250459 On ch=1 n=f7 v=0
250492 On ch=1 n=g#7 v=0
250498 On ch=1 n=a#7 v=37
250552 On ch=1 n=a#7 v=0
250558 On ch=1 n=g#7 v=38
250613 On ch=1 n=g#7 v=0
250622 On ch=1 n=a#7 v=42
250665 On ch=1 n=a#7 v=0
250680 On ch=1 n=g#7 v=34
250680 On ch=1 n=d#7 v=45
250734 On ch=1 n=g#7 v=0
250742 On ch=1 n=a#7 v=41
250785 On ch=1 n=a#7 v=0
250802 On ch=1 n=g#7 v=40
250850 On ch=1 n=g#7 v=0
250858 On ch=1 n=a#7 v=45
250912 On ch=1 n=a#7 v=0
250918 On ch=1 n=g#7 v=36
250966 On ch=1 n=g#7 v=0
250980 On ch=1 n=a#7 v=41
251032 On ch=1 n=a#7 v=0
251038 On ch=1 n=g#7 v=33
251094 On ch=1 n=g#7 v=0
251097 On ch=1 n=a#7 v=37
251153 On ch=1 n=a#7 v=0
251160 On ch=1 n=g#7 v=44
251212 On ch=1 n=g#7 v=0
251218 On ch=1 n=a#7 v=37
251264 On ch=1 n=a#7 v=0
251276 On ch=1 n=g#7 v=32
251327 On ch=1 n=g#7 v=0
251340 On ch=1 n=a#7 v=41
251390 On ch=1 n=a#7 v=0
251400 On ch=1 n=g#7 v=34
251457 On ch=1 n=g#7 v=0
251462 On ch=1 n=a#7 v=42
251512 On ch=1 n=a#7 v=0
251516 On ch=1 n=g#7 v=33
251544 On ch=1 n=d#7 v=0
251574 On ch=1 n=g#7 v=0
251578 On ch=1 n=a#7 v=35
251632 On ch=1 n=a#7 v=0
251640 On ch=1 n=g#7 v=29
251640 On ch=1 n=c7 v=41
251698 On ch=1 n=g#7 v=0
251700 On ch=1 n=a#7 v=41
251752 On ch=1 n=a#7 v=0
251758 On ch=1 n=g#7 v=33
251816 On ch=1 n=g#7 v=0
251821 On ch=1 n=a#7 v=40
251876 On ch=1 n=a#7 v=0
251882 On ch=1 n=g#7 v=36
251940 On ch=1 n=g#7 v=0
251942 On ch=1 n=a#7 v=34
251992 On ch=1 n=a#7 v=0
252004 On ch=1 n=g#7 v=34
252054 On ch=1 n=g#7 v=0
252062 On ch=1 n=a#7 v=41
252072 On ch=1 n=c7 v=0
252116 On ch=1 n=a#7 v=0
252120 On ch=1 n=g#7 v=44
252120 On ch=1 n=c#7 v=45
252120 Par ch=1 c=64 v=0
252172 On ch=1 n=g#7 v=0
252178 On ch=1 n=a#7 v=37
252180 Par ch=1 c=64 v=127
252224 On ch=1 n=a#7 v=0
252236 On ch=1 n=g#7 v=32
252287 On ch=1 n=g#7 v=0
252300 On ch=1 n=a#7 v=41
252350 On ch=1 n=a#7 v=0
252360 On ch=1 n=g#7 v=34
252417 On ch=1 n=g#7 v=0
252422 On ch=1 n=a#7 v=42
252472 On ch=1 n=a#7 v=0
252476 On ch=1 n=g#7 v=33
252534 On ch=1 n=g#7 v=0
252538 On ch=1 n=a#7 v=35
252592 On ch=1 n=a#7 v=0
252600 On ch=1 n=g#7 v=33
252658 On ch=1 n=g#7 v=0
252662 On ch=1 n=a#7 v=35
252716 On ch=1 n=a#7 v=0
252724 On ch=1 n=g#7 v=29
252782 On ch=1 n=g#7 v=0
252784 On ch=1 n=a#7 v=41
252836 On ch=1 n=a#7 v=0
252842 On ch=1 n=g#7 v=33
252900 On ch=1 n=g#7 v=0
252905 On ch=1 n=a#7 v=40
252960 On ch=1 n=a#7 v=0
252966 On ch=1 n=g#7 v=36
253024 On ch=1 n=g#7 v=0
253026 On ch=1 n=a#7 v=34
253076 On ch=1 n=a#7 v=0
253080 On ch=1 n=g#7 v=31
253134 On ch=1 n=g#7 v=0
253140 On ch=1 n=a#7 v=35
253188 On ch=1 n=a#7 v=0
253200 On ch=1 n=g#7 v=34
253254 On ch=1 n=g#7 v=0
253260 On ch=1 n=a#7 v=34
253312 On ch=1 n=a#7 v=0
253318 On ch=1 n=g#7 v=29
253372 On ch=1 n=g#7 v=0
253378 On ch=1 n=a#7 v=37
253432 On ch=1 n=a#7 v=0
253438 On ch=1 n=g#7 v=38
253493 On ch=1 n=g#7 v=0
253502 On ch=1 n=a#7 v=42
253545 On ch=1 n=a#7 v=0
253560 On ch=1 n=g#7 v=34
253614 On ch=1 n=g#7 v=0
253622 On ch=1 n=a#7 v=41
253665 On ch=1 n=a#7 v=0
253682 On ch=1 n=g#7 v=40
253730 On ch=1 n=g#7 v=0
253738 On ch=1 n=a#7 v=45
253792 On ch=1 n=a#7 v=0
253798 On ch=1 n=g#7 v=36
253846 On ch=1 n=g#7 v=0
253860 On ch=1 n=a#7 v=41
253908 On ch=1 n=c#7 v=0
253912 On ch=1 n=a#7 v=0
253918 On ch=1 n=g#7 v=33
253920 On ch=1 n=c7 v=36
253974 On ch=1 n=g#7 v=0
253977 On ch=1 n=a#7 v=37
254028 On ch=1 n=c7 v=0
254033 On ch=1 n=a#7 v=0
254040 On ch=1 n=g#7 v=44
254040 On ch=1 n=c#7 v=40
254040 Par ch=1 c=64 v=0
254092 On ch=1 n=g#7 v=0
254098 On ch=1 n=a#7 v=37
254100 Par ch=1 c=64 v=127
254144 On ch=1 n=a#7 v=0
254156 On ch=1 n=g#7 v=32
254207 On ch=1 n=g#7 v=0
254220 On ch=1 n=a#7 v=41
254270 On ch=1 n=a#7 v=0
254280 On ch=1 n=g#7 v=34
254337 On ch=1 n=g#7 v=0
254342 On ch=1 n=a#7 v=42
254392 On ch=1 n=a#7 v=0
254396 On ch=1 n=g#7 v=33
254454 On ch=1 n=g#7 v=0
254458 On ch=1 n=a#7 v=35
254512 On ch=1 n=a#7 v=0
254520 On ch=1 n=g#7 v=29
254578 On ch=1 n=g#7 v=0
254580 On ch=1 n=a#7 v=41
254632 On ch=1 n=a#7 v=0
254638 On ch=1 n=g#7 v=33
254696 On ch=1 n=g#7 v=0
254701 On ch=1 n=a#7 v=40
254756 On ch=1 n=a#7 v=0
254762 On ch=1 n=g#7 v=36
254820 On ch=1 n=g#7 v=0
254822 On ch=1 n=a#7 v=34
254872 On ch=1 n=a#7 v=0
254884 On ch=1 n=g#7 v=34
254904 On ch=1 n=c#7 v=0
254934 On ch=1 n=g#7 v=0
254942 On ch=1 n=a#7 v=41
254996 On ch=1 n=a#7 v=0
255000 On ch=1 n=g#7 v=44
255052 On ch=1 n=g#7 v=0
255058 On ch=1 n=a#7 v=37
255104 On ch=1 n=a#7 v=0
255116 On ch=1 n=g#7 v=32
255167 On ch=1 n=g#7 v=0
255180 On ch=1 n=a#7 v=41
255230 On ch=1 n=a#7 v=0
255240 On ch=1 n=g#7 v=34
255297 On ch=1 n=g#7 v=0
255302 On ch=1 n=a#7 v=42
255352 On ch=1 n=a#7 v=0
255356 On ch=1 n=g#7 v=33
255414 On ch=1 n=g#7 v=0
255418 On ch=1 n=a#7 v=35
255472 On ch=1 n=a#7 v=0
255480 On ch=1 n=g#7 v=33
255538 On ch=1 n=g#7 v=0
255542 On ch=1 n=a#7 v=35
255596 On ch=1 n=a#7 v=0
255604 On ch=1 n=g#7 v=29
255662 On ch=1 n=g#7 v=0
255664 On ch=1 n=a#7 v=41
255716 On ch=1 n=a#7 v=0
255722 On ch=1 n=g#7 v=33
255780 On ch=1 n=g#7 v=0
255785 On ch=1 n=a#7 v=40
255840 On ch=1 n=a#7 v=0
255846 On ch=1 n=g#7 v=36
255904 On ch=1 n=g#7 v=0
255906 On ch=1 n=a#7 v=34
255956 On ch=1 n=a#7 v=0
255960 On ch=1 n=g#7 v=31
255960 Par ch=1 c=64 v=0
256014 On ch=1 n=g#7 v=0
256020 Par ch=1 c=64 v=127
256040 On ch=1 n=g#7 v=31
256094 On ch=1 n=g#7 v=0
256120 On ch=1 n=e7 v=31
256174 On ch=1 n=e7 v=0
256200 On ch=1 n=f7 v=31
256254 On ch=1 n=f7 v=0
256280 On ch=1 n=f#7 v=31
256334 On ch=1 n=f#7 v=0
256360 On ch=1 n=g7 v=32
256414 On ch=1 n=g7 v=0
256440 On ch=1 n=g#7 v=32
256494 On ch=1 n=g#7 v=0
256520 On ch=1 n=a7 v=31
256574 On ch=1 n=a7 v=0
256600 On ch=1 n=a#7 v=31
256654 On ch=1 n=a#7 v=0
256680 On ch=1 n=b7 v=31
256734 On ch=1 n=b7 v=0
256760 On ch=1 n=c8 v=31
256814 On ch=1 n=c8 v=0
256840 On ch=1 n=d#8 v=32
256894 On ch=1 n=d#8 v=0
256920 On ch=1 n=c#8 v=34
256920 Par ch=1 c=64 v=0
257049 On ch=1 n=c#8 v=0
257880 On ch=1 n=e4 v=58
257880 On ch=1 n=g#4 v=62
257880 On ch=1 n=e5 v=82
257880 Par ch=1 c=64 v=127
257988 On ch=1 n=g#4 v=0
257988 On ch=1 n=e4 v=0
258000 On ch=1 n=e4 v=57
258000 On ch=1 n=g#4 v=61
258216 On ch=1 n=g#4 v=0
258216 On ch=1 n=e4 v=0
258240 On ch=1 n=e4 v=55
258240 On ch=1 n=g#4 v=59
258348 On ch=1 n=g#4 v=0
258348 On ch=1 n=e4 v=0
258360 On ch=1 n=g#4 v=61
258360 On ch=1 n=e4 v=57
258468 On ch=1 n=e4 v=0
258468 On ch=1 n=g#4 v=0
258480 On ch=1 n=e4 v=55
258480 On ch=1 n=g#4 v=59
258588 On ch=1 n=g#4 v=0
258588 On ch=1 n=e4 v=0
258600 On ch=1 n=e5 v=0
258600 On ch=1 n=e5 v=66
258600 On ch=1 n=e4 v=56
258600 On ch=1 n=g#4 v=60
258708 On ch=1 n=g#4 v=0
258708 On ch=1 n=e4 v=0
258720 On ch=1 n=e4 v=54
258720 On ch=1 n=g#4 v=58
258828 On ch=1 n=g#4 v=0
258828 On ch=1 n=e4 v=0
258840 On ch=1 n=e5 v=0
258840 On ch=1 n=d#5 v=70
258840 On ch=1 n=g#4 v=62
258840 On ch=1 n=d#4 v=58
258840 Par ch=1 c=64 v=0
258900 Par ch=1 c=64 v=127
258912 On ch=1 n=d#4 v=0
258912 On ch=1 n=g#4 v=0
258920 On ch=1 n=g#4 v=61
258920 On ch=1 n=d#4 v=57
258992 On ch=1 n=d#4 v=0
258992 On ch=1 n=g#4 v=0
259000 On ch=1 n=g#4 v=60
259000 On ch=1 n=d#4 v=56
259072 On ch=1 n=d#4 v=0
259072 On ch=1 n=g#4 v=0
259080 On ch=1 n=d#5 v=0
259080 On ch=1 n=c#5 v=82
259080 On ch=1 n=c#4 v=56
259080 On ch=1 n=g#4 v=60
259080 Par ch=1 c=64 v=0
259140 Par ch=1 c=64 v=127
259152 On ch=1 n=g#4 v=0
259152 On ch=1 n=c#4 v=0
259160 On ch=1 n=g#4 v=59
259160 On ch=1 n=c#4 v=55
259232 On ch=1 n=c#4 v=0
259232 On ch=1 n=g#4 v=0
259240 On ch=1 n=c#4 v=54
259240 On ch=1 n=g#4 v=58
259312 On ch=1 n=g#4 v=0
259312 On ch=1 n=c#4 v=0
259320 On ch=1 n=c#4 v=57
259320 On ch=1 n=g#4 v=61
259374 On ch=1 n=g#4 v=0
259374 On ch=1 n=c#4 v=0
259380 On ch=1 n=g#4 v=60
259380 On ch=1 n=c#4 v=56
259434 On ch=1 n=c#4 v=0
259434 On ch=1 n=g#4 v=0
259440 On ch=1 n=c#4 v=55
259440 On ch=1 n=g#4 v=59
259494 On ch=1 n=g#4 v=0
259494 On ch=1 n=c#4 v=0
259500 On ch=1 n=g#4 v=58
259500 On ch=1 n=c#4 v=54
259554 On ch=1 n=c#4 v=0
259554 On ch=1 n=g#4 v=0
259560 On ch=1 n=g#4 v=59
259560 On ch=1 n=c#4 v=55
259592 On ch=1 n=c#4 v=0
259592 On ch=1 n=g#4 v=0
259728 On ch=1 n=c#5 v=0
259740 Par ch=1 c=64 v=0
259800 On ch=1 n=e4 v=58
259800 On ch=1 n=g4 v=62
259800 On ch=1 n=e5 v=82
259800 Par ch=1 c=64 v=127
259908 On ch=1 n=g4 v=0
259908 On ch=1 n=e4 v=0
259920 On ch=1 n=e4 v=57
259920 On ch=1 n=g4 v=61
260136 On ch=1 n=g4 v=0
260136 On ch=1 n=e4 v=0
260160 On ch=1 n=e4 v=55
260160 On ch=1 n=g4 v=59
260268 On ch=1 n=g4 v=0
260268 On ch=1 n=e4 v=0
260280 On ch=1 n=e4 v=57
260280 On ch=1 n=g4 v=61
260388 On ch=1 n=g4 v=0
260388 On ch=1 n=e4 v=0
260400 On ch=1 n=e4 v=55
260400 On ch=1 n=g4 v=59
260508 On ch=1 n=g4 v=0
260508 On ch=1 n=e4 v=0
260520 On ch=1 n=e5 v=0
260520 On ch=1 n=e5 v=68
260520 On ch=1 n=e4 v=56
260520 On ch=1 n=g4 v=60
260628 On ch=1 n=g4 v=0
260628 On ch=1 n=e4 v=0
260640 On ch=1 n=e4 v=54
260640 On ch=1 n=g4 v=58
260748 On ch=1 n=g4 v=0
260748 On ch=1 n=e4 v=0
260760 On ch=1 n=e5 v=0
260760 On ch=1 n=d#5 v=70
260760 On ch=1 n=d#4 v=58
260760 On ch=1 n=g4 v=62
260760 Par ch=1 c=64 v=0
260820 Par ch=1 c=64 v=127
260832 On ch=1 n=g4 v=0
260832 On ch=1 n=d#4 v=0
260840 On ch=1 n=d#4 v=57
260840 On ch=1 n=g4 v=61
260912 On ch=1 n=g4 v=0
260912 On ch=1 n=d#4 v=0
260920 On ch=1 n=d#4 v=56
260920 On ch=1 n=g4 v=60
260992 On ch=1 n=g4 v=0
260992 On ch=1 n=d#4 v=0
261000 On ch=1 n=d#5 v=0
261000 On ch=1 n=c#5 v=82
261000 On ch=1 n=c#4 v=56
261000 On ch=1 n=g4 v=60
261000 Par ch=1 c=64 v=0
261060 Par ch=1 c=64 v=127
261072 On ch=1 n=g4 v=0
261072 On ch=1 n=c#4 v=0
261080 On ch=1 n=c#4 v=55
261080 On ch=1 n=g4 v=59
261152 On ch=1 n=g4 v=0
261152 On ch=1 n=c#4 v=0
261160 On ch=1 n=c#4 v=54
261160 On ch=1 n=g4 v=58
261232 On ch=1 n=g4 v=0
261232 On ch=1 n=c#4 v=0
261240 On ch=1 n=c#4 v=57
261240 On ch=1 n=g4 v=61
261294 On ch=1 n=g4 v=0
261294 On ch=1 n=c#4 v=0
261300 On ch=1 n=c#4 v=56
261300 On ch=1 n=g4 v=60
261354 On ch=1 n=g4 v=0
261354 On ch=1 n=c#4 v=0
261360 On ch=1 n=c#4 v=55
261360 On ch=1 n=g4 v=59
261414 On ch=1 n=g4 v=0
261414 On ch=1 n=c#4 v=0
261420 On ch=1 n=c#4 v=54
261420 On ch=1 n=g4 v=58
261474 On ch=1 n=g4 v=0
261474 On ch=1 n=c#4 v=0
261480 On ch=1 n=f#4 v=59
261480 On ch=1 n=c#4 v=55
261512 On ch=1 n=c#4 v=0
261512 On ch=1 n=f#4 v=0
261648 On ch=1 n=c#5 v=0
261660 Par ch=1 c=64 v=0
261720 On ch=1 n=c5 v=82
261720 On ch=1 n=g#4 v=75
261720 On ch=1 n=d#4 v=77
261720 Par ch=1 c=64 v=127
262152 On ch=1 n=d#4 v=0
262152 On ch=1 n=g#4 v=0
262152 On ch=1 n=c5 v=0
262200 On ch=1 n=f4 v=75
262200 On ch=1 n=c#5 v=80
262200 On ch=1 n=g#4 v=73
262200 Par ch=1 c=64 v=0
262260 Par ch=1 c=64 v=127
262632 On ch=1 n=g#4 v=0
262632 On ch=1 n=c#5 v=0
262632 On ch=1 n=f4 v=0
262680 On ch=1 n=c5 v=75
262680 On ch=1 n=d#5 v=82
262680 On ch=1 n=f#4 v=77
262680 Par ch=1 c=64 v=0
262800 Par ch=1 c=64 v=127
263160 On ch=1 n=g#3 v=70
263160 Par ch=1 c=64 v=0
263176 On ch=1 n=g#3 v=0
263220 On ch=1 n=a#3 v=64
263220 Par ch=1 c=64 v=127
263234 On ch=1 n=a#3 v=0
263280 On ch=1 n=g#3 v=63
263296 On ch=1 n=g#3 v=0
263340 On ch=1 n=a#3 v=63
263355 On ch=1 n=a#3 v=0
263398 On ch=1 n=g#3 v=58
263414 On ch=1 n=g#3 v=0
263458 On ch=1 n=a#3 v=66
263474 On ch=1 n=a#3 v=0
263518 On ch=1 n=g#3 v=67
263534 On ch=1 n=g#3 v=0
263544 On ch=1 n=f#4 v=0
263544 On ch=1 n=d#5 v=0
263544 On ch=1 n=c5 v=0
263582 On ch=1 n=a#3 v=71
263594 On ch=1 n=a#3 v=0
263640 On ch=1 n=g#4 v=72
263640 Par ch=1 c=64 v=0
263656 On ch=1 n=g#4 v=0
263700 On ch=1 n=a#4 v=66
263700 Par ch=1 c=64 v=127
263714 On ch=1 n=a#4 v=0
263760 On ch=1 n=g#4 v=65
263776 On ch=1 n=g#4 v=0
263820 On ch=1 n=a#4 v=65
263835 On ch=1 n=a#4 v=0
263878 On ch=1 n=g#4 v=60
263894 On ch=1 n=g#4 v=0
263938 On ch=1 n=a#4 v=68
263954 On ch=1 n=a#4 v=0
263998 On ch=1 n=g#4 v=69
264014 On ch=1 n=g#4 v=0
264062 On ch=1 n=a#4 v=73
264074 On ch=1 n=a#4 v=0
264120 On ch=1 n=g#5 v=68
264120 Par ch=1 c=64 v=0
264136 On ch=1 n=g#5 v=0
264180 On ch=1 n=a#5 v=62
264180 Par ch=1 c=64 v=127
264194 On ch=1 n=a#5 v=0
264240 On ch=1 n=g#5 v=61
264256 On ch=1 n=g#5 v=0
264300 On ch=1 n=a#5 v=61
264315 On ch=1 n=a#5 v=0
264358 On ch=1 n=g#5 v=56
264374 On ch=1 n=g#5 v=0
264418 On ch=1 n=a#5 v=64
264434 On ch=1 n=a#5 v=0
264478 On ch=1 n=g#5 v=65
264494 On ch=1 n=g#5 v=0
264542 On ch=1 n=a#5 v=69
264554 On ch=1 n=a#5 v=0
264600 On ch=1 n=g#6 v=72
264600 Par ch=1 c=64 v=0
264654 On ch=1 n=g#6 v=0
264660 On ch=1 n=a#6 v=66
264660 Par ch=1 c=64 v=127
264708 On ch=1 n=a#6 v=0
264720 On ch=1 n=g#6 v=65
264774 On ch=1 n=g#6 v=0
264780 On ch=1 n=a#6 v=65
264832 On ch=1 n=a#6 v=0
264838 On ch=1 n=g#6 v=60
264892 On ch=1 n=g#6 v=0
264898 On ch=1 n=a#6 v=68
264952 On ch=1 n=a#6 v=0
264958 On ch=1 n=g#6 v=69
265013 On ch=1 n=g#6 v=0
265022 On ch=1 n=a#6 v=73
265065 On ch=1 n=a#6 v=0
265080 On ch=1 n=g#7 v=74
265080 Par ch=1 c=64 v=1
265134 On ch=1 n=g#7 v=0
265140 On ch=1 n=a#7 v=68
265140 Par ch=1 c=64 v=127
265188 On ch=1 n=a#7 v=0
265200 On ch=1 n=g#7 v=67
265254 On ch=1 n=g#7 v=0
265260 On ch=1 n=a#7 v=67
265312 On ch=1 n=a#7 v=0
265318 On ch=1 n=g#7 v=55
265372 On ch=1 n=g#7 v=0
265378 On ch=1 n=a#7 v=63
265432 On ch=1 n=a#7 v=0
265438 On ch=1 n=g#7 v=64
265493 On ch=1 n=g#7 v=0
265502 On ch=1 n=a#7 v=68
265545 On ch=1 n=a#7 v=0
265560 On ch=1 n=g#7 v=53
265614 On ch=1 n=g#7 v=0
265622 On ch=1 n=a#7 v=60
265665 On ch=1 n=a#7 v=0
265682 On ch=1 n=g#7 v=59
265730 On ch=1 n=g#7 v=0
265738 On ch=1 n=a#7 v=64
265792 On ch=1 n=a#7 v=0
265798 On ch=1 n=g#7 v=48
265846 On ch=1 n=g#7 v=0
265860 On ch=1 n=a#7 v=53
265912 On ch=1 n=a#7 v=0
265918 On ch=1 n=g#7 v=45
265974 On ch=1 n=g#7 v=0
265977 On ch=1 n=a#7 v=49
266033 On ch=1 n=a#7 v=0
266040 On ch=1 n=g#7 v=49
266092 On ch=1 n=g#7 v=0
266098 On ch=1 n=a#7 v=42
266144 On ch=1 n=a#7 v=0
266156 On ch=1 n=g#7 v=37
266207 On ch=1 n=g#7 v=0
266220 On ch=1 n=a#7 v=46
266270 On ch=1 n=a#7 v=0
266280 On ch=1 n=g#7 v=32
266280 On ch=1 n=g#6 v=47
266337 On ch=1 n=g#7 v=0
266342 On ch=1 n=a#7 v=40
266392 On ch=1 n=a#7 v=0
266396 On ch=1 n=g#7 v=31
266454 On ch=1 n=g#7 v=0
266458 On ch=1 n=a#7 v=33
266496 On ch=1 n=g#6 v=0
266512 On ch=1 n=a#7 v=0
266520 On ch=1 n=g#7 v=31
266520 Par ch=1 c=64 v=0
266574 On ch=1 n=g#7 v=0
266580 On ch=1 n=a#7 v=35
266580 Par ch=1 c=64 v=127
266628 On ch=1 n=a#7 v=0
266640 On ch=1 n=g#7 v=34
266694 On ch=1 n=g#7 v=0
266700 On ch=1 n=a#7 v=34
266752 On ch=1 n=a#7 v=0
266758 On ch=1 n=g#7 v=29
266812 On ch=1 n=g#7 v=0
266818 On ch=1 n=a#7 v=37
266872 On ch=1 n=a#7 v=0
266878 On ch=1 n=g#7 v=38
266933 On ch=1 n=g#7 v=0
266942 On ch=1 n=a#7 v=42
266985 On ch=1 n=a#7 v=0
267000 On ch=1 n=g#7 v=34
267054 On ch=1 n=g#7 v=0
267062 On ch=1 n=a#7 v=41
267105 On ch=1 n=a#7 v=0
267122 On ch=1 n=g#7 v=40
267170 On ch=1 n=g#7 v=0
267178 On ch=1 n=a#7 v=45
267232 On ch=1 n=a#7 v=0
267238 On ch=1 n=g#7 v=36
267286 On ch=1 n=g#7 v=0
267300 On ch=1 n=a#7 v=41
267352 On ch=1 n=a#7 v=0
267358 On ch=1 n=g#7 v=33
267414 On ch=1 n=g#7 v=0
267417 On ch=1 n=a#7 v=37
267473 On ch=1 n=a#7 v=0
267480 On ch=1 n=g#7 v=44
267532 On ch=1 n=g#7 v=0
267538 On ch=1 n=a#7 v=37
267584 On ch=1 n=a#7 v=0
267596 On ch=1 n=g#7 v=32
267647 On ch=1 n=g#7 v=0
267660 On ch=1 n=a#7 v=41
267710 On ch=1 n=a#7 v=0
267720 On ch=1 n=g#7 v=34
267777 On ch=1 n=g#7 v=0
267782 On ch=1 n=a#7 v=42
267832 On ch=1 n=a#7 v=0
267836 On ch=1 n=g#7 v=33
267894 On ch=1 n=g#7 v=0
267898 On ch=1 n=a#7 v=35
267952 On ch=1 n=a#7 v=0
267960 On ch=1 n=g#7 v=29
267960 On ch=1 n=f#7 v=40
267960 On ch=1 n=f#8 v=41
268018 On ch=1 n=g#7 v=0
268020 On ch=1 n=a#7 v=41
268072 On ch=1 n=a#7 v=0
268078 On ch=1 n=g#7 v=33
268136 On ch=1 n=g#7 v=0
268141 On ch=1 n=a#7 v=40
268196 On ch=1 n=a#7 v=0
268202 On ch=1 n=g#7 v=36
268260 On ch=1 n=g#7 v=0
268262 On ch=1 n=a#7 v=34
268312 On ch=1 n=a#7 v=0
268324 On ch=1 n=g#7 v=34
268374 On ch=1 n=g#7 v=0
268382 On ch=1 n=a#7 v=41
268392 On ch=1 n=f#8 v=0
268392 On ch=1 n=f#7 v=0
268436 On ch=1 n=a#7 v=0
268440 On ch=1 n=g#7 v=44
268440 On ch=1 n=f8 v=43
268440 On ch=1 n=f7 v=42
268440 Par ch=1 c=64 v=0
268492 On ch=1 n=g#7 v=0
268498 On ch=1 n=a#7 v=37
268500 Par ch=1 c=64 v=127
268544 On ch=1 n=a#7 v=0
268556 On ch=1 n=g#7 v=32
268607 On ch=1 n=g#7 v=0
268620 On ch=1 n=a#7 v=41
268670 On ch=1 n=a#7 v=0
268680 On ch=1 n=g#7 v=34
268699 On ch=1 n=f7 v=0
268699 On ch=1 n=f8 v=0
268737 On ch=1 n=g#7 v=0
268742 On ch=1 n=a#7 v=42
268792 On ch=1 n=a#7 v=0
268796 On ch=1 n=g#7 v=33
268854 On ch=1 n=g#7 v=0
268858 On ch=1 n=a#7 v=35
268912 On ch=1 n=a#7 v=0
268920 On ch=1 n=g#7 v=33
268920 On ch=1 n=d#7 v=44
268920 On ch=1 n=d#8 v=45
268978 On ch=1 n=g#7 v=0
268982 On ch=1 n=a#7 v=35
269036 On ch=1 n=a#7 v=0
269044 On ch=1 n=g#7 v=29
269102 On ch=1 n=g#7 v=0
269104 On ch=1 n=a#7 v=41
269156 On ch=1 n=a#7 v=0
269162 On ch=1 n=g#7 v=33
269220 On ch=1 n=g#7 v=0
269225 On ch=1 n=a#7 v=40
269280 On ch=1 n=a#7 v=0
269286 On ch=1 n=g#7 v=36
269344 On ch=1 n=g#7 v=0
269346 On ch=1 n=a#7 v=34
269396 On ch=1 n=a#7 v=0
269400 On ch=1 n=g#7 v=31
269454 On ch=1 n=g#7 v=0
269460 On ch=1 n=a#7 v=35
269508 On ch=1 n=a#7 v=0
269520 On ch=1 n=g#7 v=34
269574 On ch=1 n=g#7 v=0
269580 On ch=1 n=a#7 v=34
269632 On ch=1 n=a#7 v=0
269638 On ch=1 n=g#7 v=29
269692 On ch=1 n=g#7 v=0
269698 On ch=1 n=a#7 v=37
269752 On ch=1 n=a#7 v=0
269758 On ch=1 n=g#7 v=38
269813 On ch=1 n=g#7 v=0
269822 On ch=1 n=a#7 v=42
269865 On ch=1 n=a#7 v=0
269880 On ch=1 n=g#7 v=34
269934 On ch=1 n=g#7 v=0
269942 On ch=1 n=a#7 v=41
269985 On ch=1 n=a#7 v=0
270002 On ch=1 n=g#7 v=40
270050 On ch=1 n=g#7 v=0
270058 On ch=1 n=a#7 v=45
270112 On ch=1 n=a#7 v=0
270118 On ch=1 n=g#7 v=36
270166 On ch=1 n=g#7 v=0
270180 On ch=1 n=a#7 v=41
270216 On ch=1 n=d#8 v=0
270216 On ch=1 n=d#7 v=0
270232 On ch=1 n=a#7 v=0
270238 On ch=1 n=g#7 v=33
270294 On ch=1 n=g#7 v=0
270297 On ch=1 n=a#7 v=37
270353 On ch=1 n=a#7 v=0
270360 On ch=1 n=g#7 v=44
270360 On ch=1 n=f7 v=44
270360 On ch=1 n=f8 v=45
270360 Par ch=1 c=64 v=0
270412 On ch=1 n=g#7 v=0
270418 On ch=1 n=a#7 v=37
270420 Par ch=1 c=64 v=127
270464 On ch=1 n=a#7 v=0
270476 On ch=1 n=g#7 v=32
270527 On ch=1 n=g#7 v=0
270540 On ch=1 n=a#7 v=41
270590 On ch=1 n=a#7 v=0
270600 On ch=1 n=g#7 v=34
270657 On ch=1 n=g#7 v=0
270662 On ch=1 n=a#7 v=42
270712 On ch=1 n=a#7 v=0
270716 On ch=1 n=g#7 v=33
270774 On ch=1 n=g#7 v=0
270778 On ch=1 n=a#7 v=35
270832 On ch=1 n=a#7 v=0
270840 On ch=1 n=g#7 v=29
270898 On ch=1 n=g#7 v=0
270900 On ch=1 n=a#7 v=41
270952 On ch=1 n=a#7 v=0
270958 On ch=1 n=g#7 v=33
271016 On ch=1 n=g#7 v=0
271021 On ch=1 n=a#7 v=40
271076 On ch=1 n=a#7 v=0
271082 On ch=1 n=g#7 v=36
271140 On ch=1 n=g#7 v=0
271142 On ch=1 n=a#7 v=34
271192 On ch=1 n=a#7 v=0
271204 On ch=1 n=g#7 v=34
271254 On ch=1 n=g#7 v=0
271262 On ch=1 n=a#7 v=41
271316 On ch=1 n=a#7 v=0
271320 On ch=1 n=g#7 v=44
271372 On ch=1 n=g#7 v=0
271378 On ch=1 n=a#7 v=37
271424 On ch=1 n=a#7 v=0
271436 On ch=1 n=g#7 v=32
271487 On ch=1 n=g#7 v=0
271500 On ch=1 n=a#7 v=41
271550 On ch=1 n=a#7 v=0
271560 On ch=1 n=g#7 v=34
271617 On ch=1 n=g#7 v=0
271622 On ch=1 n=a#7 v=42
271656 On ch=1 n=f8 v=0
271656 On ch=1 n=f7 v=0
271672 On ch=1 n=a#7 v=0
271676 On ch=1 n=g#7 v=33
271734 On ch=1 n=g#7 v=0
271738 On ch=1 n=a#7 v=35
271792 On ch=1 n=a#7 v=0
271800 On ch=1 n=g#7 v=33
271800 On ch=1 n=f#7 v=40
271800 On ch=1 n=f#8 v=41
271858 On ch=1 n=g#7 v=0
271862 On ch=1 n=a#7 v=35
271916 On ch=1 n=a#7 v=0
271924 On ch=1 n=g#7 v=29
271982 On ch=1 n=g#7 v=0
271984 On ch=1 n=a#7 v=41
272036 On ch=1 n=a#7 v=0
272042 On ch=1 n=g#7 v=33
272100 On ch=1 n=g#7 v=0
272105 On ch=1 n=a#7 v=40
272160 On ch=1 n=a#7 v=0
272166 On ch=1 n=g#7 v=36
272224 On ch=1 n=g#7 v=0
272226 On ch=1 n=a#7 v=34
272232 On ch=1 n=f#8 v=0
272232 On ch=1 n=f#7 v=0
272276 On ch=1 n=a#7 v=0
272280 On ch=1 n=g#7 v=31
272280 On ch=1 n=f7 v=42
272280 On ch=1 n=f8 v=43
272280 Par ch=1 c=64 v=0
272334 On ch=1 n=g#7 v=0
272340 On ch=1 n=a#7 v=35
272340 Par ch=1 c=64 v=127
272388 On ch=1 n=a#7 v=0
272400 On ch=1 n=g#7 v=34
272454 On ch=1 n=g#7 v=0
272460 On ch=1 n=a#7 v=34
272512 On ch=1 n=a#7 v=0
272518 On ch=1 n=g#7 v=29
272539 On ch=1 n=f8 v=0
272539 On ch=1 n=f7 v=0
272572 On ch=1 n=g#7 v=0
272578 On ch=1 n=a#7 v=37
272632 On ch=1 n=a#7 v=0
272638 On ch=1 n=g#7 v=38
272693 On ch=1 n=g#7 v=0
272702 On ch=1 n=a#7 v=42
272745 On ch=1 n=a#7 v=0
272760 On ch=1 n=g#7 v=34
272760 On ch=1 n=d#7 v=44
272760 On ch=1 n=d#8 v=45
272814 On ch=1 n=g#7 v=0
272822 On ch=1 n=a#7 v=41
272865 On ch=1 n=a#7 v=0
272882 On ch=1 n=g#7 v=40
272930 On ch=1 n=g#7 v=0
272938 On ch=1 n=a#7 v=45
272992 On ch=1 n=a#7 v=0
272998 On ch=1 n=g#7 v=36
273046 On ch=1 n=g#7 v=0
273060 On ch=1 n=a#7 v=41
273112 On ch=1 n=a#7 v=0
273118 On ch=1 n=g#7 v=33
273174 On ch=1 n=g#7 v=0
273177 On ch=1 n=a#7 v=37
273233 On ch=1 n=a#7 v=0
273240 On ch=1 n=g#7 v=44
273292 On ch=1 n=g#7 v=0
273298 On ch=1 n=a#7 v=37
273344 On ch=1 n=a#7 v=0
273356 On ch=1 n=g#7 v=32
273407 On ch=1 n=g#7 v=0
273420 On ch=1 n=a#7 v=41
273470 On ch=1 n=a#7 v=0
273480 On ch=1 n=g#7 v=34
273537 On ch=1 n=g#7 v=0
273542 On ch=1 n=a#7 v=42
273592 On ch=1 n=a#7 v=0
273596 On ch=1 n=g#7 v=33
273624 On ch=1 n=d#8 v=0
273624 On ch=1 n=d#7 v=0
273654 On ch=1 n=g#7 v=0
273658 On ch=1 n=a#7 v=35
273712 On ch=1 n=a#7 v=0
273720 On ch=1 n=g#7 v=29
273720 On ch=1 n=c7 v=40
273720 On ch=1 n=c8 v=41
273778 On ch=1 n=g#7 v=0
273780 On ch=1 n=a#7 v=41
273832 On ch=1 n=a#7 v=0
273838 On ch=1 n=g#7 v=33
273896 On ch=1 n=g#7 v=0
273901 On ch=1 n=a#7 v=40
273956 On ch=1 n=a#7 v=0
273962 On ch=1 n=g#7 v=36
274020 On ch=1 n=g#7 v=0
274022 On ch=1 n=a#7 v=34
274072 On ch=1 n=a#7 v=0
274084 On ch=1 n=g#7 v=34
274134 On ch=1 n=g#7 v=0
274142 On ch=1 n=a#7 v=41
274152 On ch=1 n=c8 v=0
274152 On ch=1 n=c7 v=0
274196 On ch=1 n=a#7 v=0
274200 On ch=1 n=g#7 v=44
274200 On ch=1 n=c#7 v=44
274200 On ch=1 n=c#8 v=45
274200 Par ch=1 c=64 v=0
274252 On ch=1 n=g#7 v=0
274258 On ch=1 n=a#7 v=37
274260 Par ch=1 c=64 v=127
274304 On ch=1 n=a#7 v=0
274316 On ch=1 n=g#7 v=32
274367 On ch=1 n=g#7 v=0
274380 On ch=1 n=a#7 v=41
274430 On ch=1 n=a#7 v=0
274440 On ch=1 n=g#7 v=34
274497 On ch=1 n=g#7 v=0
274502 On ch=1 n=a#7 v=42
274552 On ch=1 n=a#7 v=0
274556 On ch=1 n=g#7 v=33
274614 On ch=1 n=g#7 v=0
274618 On ch=1 n=a#7 v=35
274660 On ch=1 n=c#8 v=0
274660 On ch=1 n=c#7 v=0
274672 On ch=1 n=a#7 v=0
274680 On ch=1 n=g7 v=30
274734 On ch=1 n=g7 v=0
274760 On ch=1 n=g#7 v=31
274814 On ch=1 n=g#7 v=0
274840 On ch=1 n=a7 v=32
274894 On ch=1 n=a7 v=0
274920 On ch=1 n=a#7 v=33
274974 On ch=1 n=a#7 v=0
275000 On ch=1 n=b7 v=34
275054 On ch=1 n=b7 v=0
275080 On ch=1 n=c8 v=35
275134 On ch=1 n=c8 v=0
275160 On ch=1 n=f7 v=31
275160 On ch=1 n=c#8 v=36
275160 Par ch=1 c=64 v=0
275214 On ch=1 n=c#8 v=0
275220 On ch=1 n=d#8 v=40
275220 Par ch=1 c=64 v=127
275268 On ch=1 n=d#8 v=0
275280 On ch=1 n=c#8 v=39
275334 On ch=1 n=c#8 v=0
275340 On ch=1 n=d#8 v=39
275392 On ch=1 n=d#8 v=0
275398 On ch=1 n=c#8 v=34
275452 On ch=1 n=c#8 v=0
275458 On ch=1 n=d#8 v=42
275512 On ch=1 n=d#8 v=0
275518 On ch=1 n=c#8 v=43
275573 On ch=1 n=c#8 v=0
275582 On ch=1 n=d#8 v=47
275625 On ch=1 n=d#8 v=0
275640 On ch=1 n=c#8 v=39
275694 On ch=1 n=c#8 v=0
275702 On ch=1 n=d#8 v=46
275745 On ch=1 n=d#8 v=0
275762 On ch=1 n=c#8 v=45
275810 On ch=1 n=c#8 v=0
275818 On ch=1 n=d#8 v=50
275872 On ch=1 n=d#8 v=0
275878 On ch=1 n=c#8 v=41
275926 On ch=1 n=c#8 v=0
275940 On ch=1 n=d#8 v=46
276000 On ch=1 n=d#8 v=0
276000 On ch=1 n=c8 v=32
276024 On ch=1 n=f7 v=0
276108 On ch=1 n=c8 v=0
276120 On ch=1 n=c#8 v=36
276120 Par ch=1 c=64 v=0
276174 On ch=1 n=c#8 v=0
276180 On ch=1 n=d#8 v=40
276180 Par ch=1 c=64 v=127
276228 On ch=1 n=d#8 v=0
276240 On ch=1 n=c#8 v=39
276294 On ch=1 n=c#8 v=0
276300 On ch=1 n=d#8 v=39
276352 On ch=1 n=d#8 v=0
276358 On ch=1 n=c#8 v=34
276412 On ch=1 n=c#8 v=0
276418 On ch=1 n=d#8 v=42
276472 On ch=1 n=d#8 v=0
276478 On ch=1 n=c#8 v=43
276533 On ch=1 n=c#8 v=0
276542 On ch=1 n=d#8 v=47
276585 On ch=1 n=d#8 v=0
276600 On ch=1 n=c#8 v=39
276654 On ch=1 n=c#8 v=0
276662 On ch=1 n=d#8 v=46
276705 On ch=1 n=d#8 v=0
276722 On ch=1 n=c#8 v=45
276770 On ch=1 n=c#8 v=0
276778 On ch=1 n=d#8 v=50
276832 On ch=1 n=d#8 v=0
276838 On ch=1 n=c#8 v=41
276886 On ch=1 n=c#8 v=0
276900 On ch=1 n=d#8 v=46
276952 On ch=1 n=d#8 v=0
276958 On ch=1 n=c#8 v=38
277014 On ch=1 n=c#8 v=0
277080 On ch=1 n=f#7 v=31
277080 On ch=1 n=c#8 v=36
277134 On ch=1 n=c#8 v=0
277140 On ch=1 n=d#8 v=40
277188 On ch=1 n=d#8 v=0
277200 On ch=1 n=c#8 v=39
277254 On ch=1 n=c#8 v=0
277260 On ch=1 n=d#8 v=39
277312 On ch=1 n=d#8 v=0
277318 On ch=1 n=c#8 v=34
277372 On ch=1 n=c#8 v=0
277378 On ch=1 n=d#8 v=42
277432 On ch=1 n=d#8 v=0
277438 On ch=1 n=c#8 v=43
277493 On ch=1 n=c#8 v=0
277502 On ch=1 n=d#8 v=47
277545 On ch=1 n=d#8 v=0
277560 On ch=1 n=c#8 v=39
277614 On ch=1 n=c#8 v=0
277622 On ch=1 n=d#8 v=46
277665 On ch=1 n=d#8 v=0
277682 On ch=1 n=c#8 v=45
277730 On ch=1 n=c#8 v=0
277738 On ch=1 n=d#8 v=50
277792 On ch=1 n=d#8 v=0
277798 On ch=1 n=c#8 v=41
277846 On ch=1 n=c#8 v=0
277860 On ch=1 n=d#8 v=46
277920 On ch=1 n=d#8 v=0
277920 On ch=1 n=c8 v=32
277944 On ch=1 n=f#7 v=0
278028 On ch=1 n=c8 v=0
278040 On ch=1 n=c#8 v=36
278040 Par ch=1 c=64 v=0
278094 On ch=1 n=c#8 v=0
278100 On ch=1 n=d#8 v=40
278100 Par ch=1 c=64 v=127
278148 On ch=1 n=d#8 v=0
278160 On ch=1 n=c#8 v=39
278214 On ch=1 n=c#8 v=0
278220 On ch=1 n=d#8 v=39
278272 On ch=1 n=d#8 v=0
278278 On ch=1 n=c#8 v=34
278332 On ch=1 n=c#8 v=0
278338 On ch=1 n=d#8 v=42
278392 On ch=1 n=d#8 v=0
278398 On ch=1 n=c#8 v=43
278453 On ch=1 n=c#8 v=0
278462 On ch=1 n=d#8 v=47
278505 On ch=1 n=d#8 v=0
278520 On ch=1 n=c#8 v=39
278574 On ch=1 n=c#8 v=0
278582 On ch=1 n=d#8 v=46
278625 On ch=1 n=d#8 v=0
278642 On ch=1 n=c#8 v=45
278690 On ch=1 n=c#8 v=0
278698 On ch=1 n=d#8 v=50
278752 On ch=1 n=d#8 v=0
278758 On ch=1 n=c#8 v=41
278806 On ch=1 n=c#8 v=0
278820 On ch=1 n=d#8 v=46
278872 On ch=1 n=d#8 v=0
278878 On ch=1 n=c#8 v=38
278934 On ch=1 n=c#8 v=0
279000 On ch=1 n=f7 v=31
279000 On ch=1 n=c#8 v=36
279054 On ch=1 n=c#8 v=0
279060 On ch=1 n=d#8 v=40
279108 On ch=1 n=d#8 v=0
279120 On ch=1 n=c#8 v=39
279174 On ch=1 n=c#8 v=0
279180 On ch=1 n=d#8 v=39
279232 On ch=1 n=d#8 v=0
279238 On ch=1 n=c#8 v=34
279292 On ch=1 n=c#8 v=0
279298 On ch=1 n=d#8 v=42
279352 On ch=1 n=d#8 v=0
279358 On ch=1 n=c#8 v=43
279413 On ch=1 n=c#8 v=0
279422 On ch=1 n=d#8 v=47
279465 On ch=1 n=d#8 v=0
279480 On ch=1 n=c#8 v=39
279534 On ch=1 n=c#8 v=0
279542 On ch=1 n=d#8 v=46
279585 On ch=1 n=d#8 v=0
279602 On ch=1 n=c#8 v=45
279650 On ch=1 n=c#8 v=0
279658 On ch=1 n=d#8 v=50
279712 On ch=1 n=d#8 v=0
279718 On ch=1 n=c#8 v=41
279766 On ch=1 n=c#8 v=0
279780 On ch=1 n=d#8 v=46
279840 On ch=1 n=d#8 v=0
279840 On ch=1 n=c8 v=32
279864 On ch=1 n=f7 v=0
279948 On ch=1 n=c8 v=0
279960 On ch=1 n=c#8 v=36
279960 Par ch=1 c=64 v=0
280014 On ch=1 n=c#8 v=0
280020 On ch=1 n=d#8 v=40
280020 Par ch=1 c=64 v=127
280068 On ch=1 n=d#8 v=0
280080 On ch=1 n=c#8 v=39
280134 On ch=1 n=c#8 v=0
280140 On ch=1 n=d#8 v=39
280192 On ch=1 n=d#8 v=0
280198 On ch=1 n=c#8 v=34
280252 On ch=1 n=c#8 v=0
280258 On ch=1 n=d#8 v=42
280312 On ch=1 n=d#8 v=0
280318 On ch=1 n=c#8 v=43
280373 On ch=1 n=c#8 v=0
280382 On ch=1 n=d#8 v=47
280425 On ch=1 n=d#8 v=0
280440 On ch=1 n=c#8 v=39
280494 On ch=1 n=c#8 v=0
280502 On ch=1 n=d#8 v=46
280545 On ch=1 n=d#8 v=0
280562 On ch=1 n=c#8 v=45
280610 On ch=1 n=c#8 v=0
280618 On ch=1 n=d#8 v=50
280672 On ch=1 n=d#8 v=0
280678 On ch=1 n=c#8 v=41
280726 On ch=1 n=c#8 v=0
280740 On ch=1 n=d#8 v=46
280792 On ch=1 n=d#8 v=0
280798 On ch=1 n=c#8 v=38
280854 On ch=1 n=c#8 v=0
280920 On ch=1 n=f#7 v=31
280920 On ch=1 n=c#8 v=36
280974 On ch=1 n=c#8 v=0
280980 On ch=1 n=d#8 v=40
281028 On ch=1 n=d#8 v=0
281040 On ch=1 n=c#8 v=39
281094 On ch=1 n=c#8 v=0
281100 On ch=1 n=d#8 v=39
281152 On ch=1 n=d#8 v=0
281158 On ch=1 n=c#8 v=34
281212 On ch=1 n=c#8 v=0
281218 On ch=1 n=d#8 v=42
281272 On ch=1 n=d#8 v=0
281278 On ch=1 n=c#8 v=43
281333 On ch=1 n=c#8 v=0
281342 On ch=1 n=d#8 v=47
281385 On ch=1 n=d#8 v=0
281400 On ch=1 n=c#8 v=39
281454 On ch=1 n=c#8 v=0
281462 On ch=1 n=d#8 v=46
281505 On ch=1 n=d#8 v=0
281522 On ch=1 n=c#8 v=45
281570 On ch=1 n=c#8 v=0
281578 On ch=1 n=d#8 v=50
281632 On ch=1 n=d#8 v=0
281638 On ch=1 n=c#8 v=41
281686 On ch=1 n=c#8 v=0
281700 On ch=1 n=d#8 v=46
281760 On ch=1 n=d#8 v=0
281760 On ch=1 n=c8 v=32
281784 On ch=1 n=f#7 v=0
281868 On ch=1 n=c8 v=0
281880 On ch=1 n=c#8 v=36
281880 Par ch=1 c=64 v=0
281934 On ch=1 n=c#8 v=0
281940 On ch=1 n=d#8 v=40
281940 Par ch=1 c=64 v=127
281988 On ch=1 n=d#8 v=0
282000 On ch=1 n=c#8 v=39
282054 On ch=1 n=c#8 v=0
282060 On ch=1 n=d#8 v=39
282112 On ch=1 n=d#8 v=0
282118 On ch=1 n=c#8 v=34
282172 On ch=1 n=c#8 v=0
282178 On ch=1 n=d#8 v=42
282232 On ch=1 n=d#8 v=0
282238 On ch=1 n=c#8 v=43
282293 On ch=1 n=c#8 v=0
282302 On ch=1 n=d#8 v=47
282345 On ch=1 n=d#8 v=0
282360 On ch=1 n=c#8 v=39
282414 On ch=1 n=c#8 v=0
282422 On ch=1 n=d#8 v=46
282465 On ch=1 n=d#8 v=0
282482 On ch=1 n=c#8 v=45
282530 On ch=1 n=c#8 v=0
282538 On ch=1 n=d#8 v=50
282592 On ch=1 n=d#8 v=0
282598 On ch=1 n=c#8 v=41
282646 On ch=1 n=c#8 v=0
282660 On ch=1 n=d#8 v=46
282712 On ch=1 n=d#8 v=0
282718 On ch=1 n=c#8 v=38
282774 On ch=1 n=c#8 v=0
282777 On ch=1 n=d#8 v=42
282833 On ch=1 n=d#8 v=0
282840 On ch=1 n=c#8 v=49
282840 On ch=1 n=f7 v=31
282892 On ch=1 n=c#8 v=0
282898 On ch=1 n=d#8 v=42
282944 On ch=1 n=d#8 v=0
282956 On ch=1 n=c#8 v=37
282969 On ch=1 n=f7 v=0
283007 On ch=1 n=c#8 v=0
283020 On ch=1 n=d#8 v=46
283070 On ch=1 n=d#8 v=0
283080 On ch=1 n=c#8 v=39
283137 On ch=1 n=c#8 v=0
283142 On ch=1 n=d#8 v=47
283192 On ch=1 n=d#8 v=0
283196 On ch=1 n=c#8 v=38
283254 On ch=1 n=c#8 v=0
283258 On ch=1 n=d#8 v=40
283312 On ch=1 n=d#8 v=0
283320 On ch=1 n=c#8 v=34
283378 On ch=1 n=c#8 v=0
283380 On ch=1 n=d#8 v=46
283432 On ch=1 n=d#8 v=0
283438 On ch=1 n=c#8 v=38
283496 On ch=1 n=c#8 v=0
283501 On ch=1 n=d#8 v=45
283556 On ch=1 n=d#8 v=0
283562 On ch=1 n=c#8 v=41
283620 On ch=1 n=c#8 v=0
283622 On ch=1 n=d#8 v=39
283672 On ch=1 n=d#8 v=0
283684 On ch=1 n=c#8 v=39
283734 On ch=1 n=c#8 v=0
283742 On ch=1 n=d#8 v=46
283796 On ch=1 n=d#8 v=0
283800 On ch=1 n=c#8 v=49
283800 Par ch=1 c=64 v=0
283852 On ch=1 n=c#8 v=0
283858 On ch=1 n=d#8 v=42
283860 Par ch=1 c=64 v=127
283904 On ch=1 n=d#8 v=0
283916 On ch=1 n=c#8 v=37
283967 On ch=1 n=c#8 v=0
283980 On ch=1 n=d#8 v=46
284030 On ch=1 n=d#8 v=0
284040 On ch=1 n=c#8 v=39
284097 On ch=1 n=c#8 v=0
284102 On ch=1 n=d#8 v=47
284152 On ch=1 n=d#8 v=0
284156 On ch=1 n=c#8 v=38
284214 On ch=1 n=c#8 v=0
284218 On ch=1 n=d#8 v=40
284272 On ch=1 n=d#8 v=0
284280 On ch=1 n=c#8 v=38
284338 On ch=1 n=c#8 v=0
284342 On ch=1 n=d#8 v=40
284396 On ch=1 n=d#8 v=0
284404 On ch=1 n=c#8 v=34
284462 On ch=1 n=c#8 v=0
284464 On ch=1 n=d#8 v=46
284516 On ch=1 n=d#8 v=0
284522 On ch=1 n=c#8 v=38
284580 On ch=1 n=c#8 v=0
284585 On ch=1 n=d#8 v=45
284640 On ch=1 n=d#8 v=0
284646 On ch=1 n=c#8 v=41
284704 On ch=1 n=c#8 v=0
284706 On ch=1 n=d#8 v=39
284756 On ch=1 n=d#8 v=0
284760 On ch=1 n=c#8 v=36
284814 On ch=1 n=c#8 v=0
284820 On ch=1 n=d#8 v=40
284868 On ch=1 n=d#8 v=0
284880 On ch=1 n=c#8 v=39
284934 On ch=1 n=c#8 v=0
284940 On ch=1 n=d#8 v=39
284992 On ch=1 n=d#8 v=0
284998 On ch=1 n=c#8 v=34
285052 On ch=1 n=c#8 v=0
285058 On ch=1 n=d#8 v=42
285112 On ch=1 n=d#8 v=0
285118 On ch=1 n=c#8 v=43
285173 On ch=1 n=c#8 v=0
285182 On ch=1 n=d#8 v=47
285225 On ch=1 n=d#8 v=0
285240 On ch=1 n=c#8 v=39
285294 On ch=1 n=c#8 v=0
285302 On ch=1 n=d#8 v=46
285345 On ch=1 n=d#8 v=0
285362 On ch=1 n=c#8 v=45
285410 On ch=1 n=c#8 v=0
285418 On ch=1 n=d#8 v=50
285472 On ch=1 n=d#8 v=0
285478 On ch=1 n=c#8 v=41
285526 On ch=1 n=c#8 v=0
285600 On ch=1 n=c8 v=36
285654 On ch=1 n=c8 v=0
285720 On ch=1 n=c#8 v=36
285774 On ch=1 n=c#8 v=0
285780 On ch=1 n=d#8 v=35
285834 On ch=1 n=d#8 v=0
285840 On ch=1 n=e8 v=34
285894 On ch=1 n=e8 v=0
285900 On ch=1 n=f8 v=33
285954 On ch=1 n=f8 v=0
285960 On ch=1 n=c8 v=34
286014 On ch=1 n=c8 v=0
286020 On ch=1 n=b7 v=33
286074 On ch=1 n=b7 v=0
286080 On ch=1 n=a#7 v=32
286134 On ch=1 n=a#7 v=0
286140 On ch=1 n=a7 v=31
286194 On ch=1 n=a7 v=0
286200 On ch=1 n=f7 v=34
286254 On ch=1 n=f7 v=0
286260 On ch=1 n=f#7 v=33
286314 On ch=1 n=f#7 v=0
286320 On ch=1 n=g7 v=32
286374 On ch=1 n=g7 v=0
286380 On ch=1 n=g#7 v=31
286434 On ch=1 n=g#7 v=0
286440 On ch=1 n=f7 v=32
286494 On ch=1 n=f7 v=0
286500 On ch=1 n=e7 v=31
286554 On ch=1 n=e7 v=0
286560 On ch=1 n=d#7 v=30
286614 On ch=1 n=d#7 v=0
286620 On ch=1 n=d7 v=29
286674 On ch=1 n=d7 v=0
286680 On ch=1 n=c#7 v=35
286734 On ch=1 n=c#7 v=0
286740 On ch=1 n=d#7 v=34
286794 On ch=1 n=d#7 v=0
286800 On ch=1 n=e7 v=33
286854 On ch=1 n=e7 v=0
286860 On ch=1 n=f7 v=32
286914 On ch=1 n=f7 v=0
286920 On ch=1 n=c7 v=33
286974 On ch=1 n=c7 v=0
286980 On ch=1 n=b6 v=32
287034 On ch=1 n=b6 v=0
287040 On ch=1 n=a#6 v=31
287094 On ch=1 n=a#6 v=0
287100 On ch=1 n=a6 v=30
287154 On ch=1 n=a6 v=0
287160 On ch=1 n=f6 v=33
287214 On ch=1 n=f6 v=0
287220 On ch=1 n=f#6 v=32
287274 On ch=1 n=f#6 v=0
287280 On ch=1 n=g6 v=31
287334 On ch=1 n=g6 v=0
287340 On ch=1 n=g#6 v=30
287394 On ch=1 n=g#6 v=0
287400 On ch=1 n=f6 v=31
287454 On ch=1 n=f6 v=0
287460 On ch=1 n=e6 v=30
287514 On ch=1 n=e6 v=0
287520 On ch=1 n=d#6 v=29
287574 On ch=1 n=d#6 v=0
287580 On ch=1 n=d6 v=28
287634 On ch=1 n=d6 v=0
287640 On ch=1 n=c#6 v=36
287694 On ch=1 n=c#6 v=0
287700 On ch=1 n=d#6 v=35
287754 On ch=1 n=d#6 v=0
287760 On ch=1 n=e6 v=34
287814 On ch=1 n=e6 v=0
287820 On ch=1 n=f6 v=33
287874 On ch=1 n=f6 v=0
287880 On ch=1 n=c6 v=34
287934 On ch=1 n=c6 v=0
287940 On ch=1 n=b5 v=33
287994 On ch=1 n=b5 v=0
288000 On ch=1 n=a#5 v=32
288054 On ch=1 n=a#5 v=0
288060 On ch=1 n=a5 v=31
288114 On ch=1 n=a5 v=0
288120 On ch=1 n=f5 v=34
288174 On ch=1 n=f5 v=0
288180 On ch=1 n=f#5 v=33
288234 On ch=1 n=f#5 v=0
288240 On ch=1 n=g5 v=32
288294 On ch=1 n=g5 v=0
288300 On ch=1 n=g#5 v=31
288354 On ch=1 n=g#5 v=0
288360 On ch=1 n=f5 v=32
288414 On ch=1 n=f5 v=0
288420 On ch=1 n=e5 v=31
288474 On ch=1 n=e5 v=0
288480 On ch=1 n=d#5 v=30
288534 On ch=1 n=d#5 v=0
288540 On ch=1 n=d5 v=29
288594 On ch=1 n=d5 v=0
288600 On ch=1 n=c#5 v=35
288654 On ch=1 n=c#5 v=0
288660 On ch=1 n=d#5 v=34
288714 On ch=1 n=d#5 v=0
288720 On ch=1 n=e5 v=33
288774 On ch=1 n=e5 v=0
288780 On ch=1 n=f5 v=32
288834 On ch=1 n=f5 v=0
288840 On ch=1 n=c5 v=33
288894 On ch=1 n=c5 v=0
288900 On ch=1 n=b4 v=32
288954 On ch=1 n=b4 v=0
288960 On ch=1 n=a#4 v=31
289014 On ch=1 n=a#4 v=0
289020 On ch=1 n=a4 v=30
289074 On ch=1 n=a4 v=0
289080 On ch=1 n=f4 v=33
289134 On ch=1 n=f4 v=0
289140 On ch=1 n=f#4 v=32
289194 On ch=1 n=f#4 v=0
289200 On ch=1 n=g4 v=31
289254 On ch=1 n=g4 v=0
289260 On ch=1 n=g#4 v=30
289314 On ch=1 n=g#4 v=0
289320 On ch=1 n=f4 v=31
289374 On ch=1 n=f4 v=0
289380 On ch=1 n=e4 v=30
289434 On ch=1 n=e4 v=0
289440 On ch=1 n=d#4 v=29
289494 On ch=1 n=d#4 v=0
289500 On ch=1 n=d4 v=28
289554 On ch=1 n=d4 v=0
289560 On ch=1 n=c#4 v=36
289614 On ch=1 n=c#4 v=0
289620 On ch=1 n=d#4 v=35
289674 On ch=1 n=d#4 v=0
289680 On ch=1 n=e4 v=34
289734 On ch=1 n=e4 v=0
289740 On ch=1 n=f4 v=33
289794 On ch=1 n=f4 v=0
289800 On ch=1 n=c4 v=34
289854 On ch=1 n=c4 v=0
289860 On ch=1 n=b3 v=33
289914 On ch=1 n=b3 v=0
289920 On ch=1 n=a#3 v=32
289974 On ch=1 n=a#3 v=0
289980 On ch=1 n=a3 v=31
290034 On ch=1 n=a3 v=0
290040 On ch=1 n=f3 v=34
290094 On ch=1 n=f3 v=0
290100 On ch=1 n=f#3 v=33
290154 On ch=1 n=f#3 v=0
290160 On ch=1 n=g3 v=32
290214 On ch=1 n=g3 v=0
290220 On ch=1 n=g#3 v=31
290274 On ch=1 n=g#3 v=0
290280 On ch=1 n=f3 v=32
290280 Par ch=1 c=64 v=0
290334 On ch=1 n=f3 v=0
290340 On ch=1 n=e3 v=31
290394 On ch=1 n=e3 v=0
290400 On ch=1 n=d#3 v=30
290454 On ch=1 n=d#3 v=0
290460 On ch=1 n=d3 v=29
290514 On ch=1 n=d3 v=0
290520 On ch=1 n=c#3 v=35
290520 Par ch=1 c=64 v=127
290574 On ch=1 n=c#3 v=0
290600 On ch=1 n=g#3 v=34
290654 On ch=1 n=g#3 v=0
290680 On ch=1 n=c#4 v=33
290734 On ch=1 n=c#4 v=0
290760 On ch=1 n=f4 v=35
290814 On ch=1 n=f4 v=0
290840 On ch=1 n=g#4 v=34
290894 On ch=1 n=g#4 v=0
290920 On ch=1 n=c#5 v=33
290974 On ch=1 n=c#5 v=0
291000 On ch=1 n=f5 v=35
291054 On ch=1 n=f5 v=0
291080 On ch=1 n=g#5 v=34
291134 On ch=1 n=g#5 v=0
291160 On ch=1 n=c#6 v=33
291214 On ch=1 n=c#6 v=0
291240 On ch=1 n=f6 v=35
291294 On ch=1 n=f6 v=0
291320 On ch=1 n=g#6 v=34
291374 On ch=1 n=g#6 v=0
291400 On ch=1 n=c#7 v=33
291454 On ch=1 n=c#7 v=0
291480 On ch=1 n=f7 v=35
291534 On ch=1 n=f7 v=0
291560 On ch=1 n=g#7 v=34
291614 On ch=1 n=g#7 v=0
291640 On ch=1 n=c#8 v=33
291694 On ch=1 n=c#8 v=0
291720 On ch=1 n=f8 v=35
291774 On ch=1 n=f8 v=0
293400 On ch=1 n=f4 v=32
293400 On ch=1 n=g#4 v=20
293400 On ch=1 n=c#5 v=24
293400 On ch=1 n=f5 v=34
293400 Par ch=1 c=64 v=0
293520 Par ch=1 c=64 v=127
293832 On ch=1 n=f5 v=0
293832 On ch=1 n=c#5 v=0
293832 On ch=1 n=g#4 v=0
293832 On ch=1 n=f4 v=0
293880 On ch=1 n=f5 v=31
293880 On ch=1 n=c#5 v=21
293880 On ch=1 n=g#4 v=17
293880 On ch=1 n=f4 v=29
294744 On ch=1 n=f4 v=0
294744 On ch=1 n=g#4 v=0
294744 On ch=1 n=c#5 v=0
294744 On ch=1 n=f5 v=0
294840 Par ch=1 c=64 v=0
301266 On ch=1 n=b4 v=44
301320 On ch=1 n=b4 v=0
301320 On ch=1 n=a4 v=46
301352 On ch=1 n=a4 v=0
301440 On ch=1 n=g#4 v=45
301472 On ch=1 n=g#4 v=0
301560 On ch=1 n=a4 v=47
301624 On ch=1 n=a4 v=0
302040 On ch=1 n=d7 v=32
302040 On ch=1 n=f#6 v=28
302104 On ch=1 n=f#6 v=0
302104 On ch=1 n=d7 v=0
302226 On ch=1 n=e7 v=28
302280 On ch=1 n=e7 v=0
302280 On ch=1 n=d7 v=30
302280 On ch=1 n=f#6 v=26
302312 On ch=1 n=f#6 v=0
302312 On ch=1 n=d7 v=0
302400 On ch=1 n=f6 v=25
302400 On ch=1 n=c#7 v=29
302432 On ch=1 n=c#7 v=0
302432 On ch=1 n=f6 v=0
302520 On ch=1 n=d7 v=31
302520 On ch=1 n=f#6 v=27
302584 On ch=1 n=f#6 v=0
302584 On ch=1 n=d7 v=0
303000 On ch=1 n=a4 v=48
303064 On ch=1 n=a4 v=0
303186 On ch=1 n=b4 v=44
303240 On ch=1 n=b4 v=0
303240 On ch=1 n=a4 v=46
303272 On ch=1 n=a4 v=0
303360 On ch=1 n=g#4 v=45
303392 On ch=1 n=g#4 v=0
303480 On ch=1 n=a4 v=47
303544 On ch=1 n=a4 v=0
303960 On ch=1 n=d7 v=28
303960 On ch=1 n=a6 v=26
303960 On ch=1 n=f#7 v=32
304024 On ch=1 n=f#7 v=0
304024 On ch=1 n=a6 v=0
304024 On ch=1 n=d7 v=0
304146 On ch=1 n=g7 v=28
304200 On ch=1 n=g7 v=0
304200 On ch=1 n=d7 v=26
304200 On ch=1 n=a6 v=24
304200 On ch=1 n=f#7 v=30
304232 On ch=1 n=f#7 v=0
304232 On ch=1 n=a6 v=0
304232 On ch=1 n=d7 v=0
304320 On ch=1 n=f7 v=29
304320 On ch=1 n=a6 v=23
304320 On ch=1 n=c#7 v=25
304352 On ch=1 n=c#7 v=0
304352 On ch=1 n=a6 v=0
304352 On ch=1 n=f7 v=0
304440 On ch=1 n=d7 v=27
304440 On ch=1 n=a6 v=25
304440 On ch=1 n=f#7 v=31
304504 On ch=1 n=f#7 v=0
304504 On ch=1 n=a6 v=0
304504 On ch=1 n=d7 v=0
310866 On ch=1 n=a4 v=44
310920 On ch=1 n=a4 v=0
310920 On ch=1 n=g4 v=46
310952 On ch=1 n=g4 v=0
311040 On ch=1 n=f#4 v=45
311072 On ch=1 n=f#4 v=0
311160 On ch=1 n=g4 v=47
311224 On ch=1 n=g4 v=0
311640 On ch=1 n=g6 v=28
311640 On ch=1 n=e7 v=32
311704 On ch=1 n=e7 v=0
311704 On ch=1 n=g6 v=0
311826 On ch=1 n=f#7 v=28
311880 On ch=1 n=f#7 v=0
311880 On ch=1 n=g6 v=26
311880 On ch=1 n=e7 v=30
311912 On ch=1 n=e7 v=0
311912 On ch=1 n=g6 v=0
312000 On ch=1 n=d#7 v=29
312000 On ch=1 n=f#6 v=25
312032 On ch=1 n=f#6 v=0
312032 On ch=1 n=d#7 v=0
312120 On ch=1 n=g6 v=27
312120 On ch=1 n=e7 v=31
312184 On ch=1 n=e7 v=0
312184 On ch=1 n=g6 v=0
312600 On ch=1 n=g4 v=48
312664 On ch=1 n=g4 v=0
312786 On ch=1 n=a4 v=44
312840 On ch=1 n=a4 v=0
312840 On ch=1 n=g4 v=46
312872 On ch=1 n=g4 v=0
312960 On ch=1 n=f#4 v=45
312992 On ch=1 n=f#4 v=0
313080 On ch=1 n=g4 v=47
313144 On ch=1 n=g4 v=0
313560 On ch=1 n=c7 v=28
313560 On ch=1 n=g7 v=32
313624 On ch=1 n=g7 v=0
313624 On ch=1 n=c7 v=0
313746 On ch=1 n=a7 v=28
313800 On ch=1 n=a7 v=0
313800 On ch=1 n=c7 v=26
313800 On ch=1 n=g7 v=30
313832 On ch=1 n=g7 v=0
313832 On ch=1 n=c7 v=0
313920 On ch=1 n=c7 v=25
313920 On ch=1 n=f#7 v=29
313952 On ch=1 n=f#7 v=0
313952 On ch=1 n=c7 v=0
314040 On ch=1 n=c7 v=27
314040 On ch=1 n=g7 v=31
314104 On ch=1 n=g7 v=0
314104 On ch=1 n=c7 v=0
315480 On ch=1 n=g4 v=50
315544 On ch=1 n=g4 v=0
315666 On ch=1 n=a4 v=46
315720 On ch=1 n=a4 v=0
315720 On ch=1 n=g4 v=48
315752 On ch=1 n=g4 v=0
315840 On ch=1 n=f#4 v=47
315872 On ch=1 n=f#4 v=0
315960 On ch=1 n=g4 v=49
316024 On ch=1 n=g4 v=0
316440 On ch=1 n=a4 v=49
316504 On ch=1 n=a4 v=0
316626 On ch=1 n=b4 v=45
316680 On ch=1 n=b4 v=0
316680 On ch=1 n=a4 v=47
316712 On ch=1 n=a4 v=0
316800 On ch=1 n=g4 v=46
316832 On ch=1 n=g4 v=0
316920 On ch=1 n=a4 v=48
316984 On ch=1 n=a4 v=0
317400 On ch=1 n=a#4 v=48
317464 On ch=1 n=a#4 v=0
317586 On ch=1 n=b4 v=44
317640 On ch=1 n=b4 v=0
317640 On ch=1 n=a#4 v=46
317672 On ch=1 n=a#4 v=0
317760 On ch=1 n=a4 v=45
317792 On ch=1 n=a4 v=0
317880 On ch=1 n=a#4 v=47
317944 On ch=1 n=a#4 v=0
320040 On ch=1 n=b4 v=31
320104 On ch=1 n=b4 v=0
320280 On ch=1 n=e5 v=33
320280 On ch=1 n=b4 v=29
320280 On ch=1 n=g#4 v=27
320344 On ch=1 n=g#4 v=0
320344 On ch=1 n=b4 v=0
320344 On ch=1 n=e5 v=0
320640 On ch=1 n=e4 v=23
320640 On ch=1 n=g#4 v=25
320640 On ch=1 n=b4 v=29
320672 On ch=1 n=b4 v=0
320672 On ch=1 n=g#4 v=0
320672 On ch=1 n=e4 v=0
320760 On ch=1 n=c#5 v=30
320760 On ch=1 n=g#4 v=26
320760 On ch=1 n=e4 v=24
320824 On ch=1 n=e4 v=0
320824 On ch=1 n=g#4 v=0
320824 On ch=1 n=c#5 v=0
321000 On ch=1 n=f#4 v=25
321000 On ch=1 n=a4 v=27
321000 On ch=1 n=d#5 v=31
321064 On ch=1 n=d#5 v=0
321064 On ch=1 n=a4 v=0
321064 On ch=1 n=f#4 v=0
321240 On ch=1 n=g#4 v=26
321240 On ch=1 n=b4 v=28
321240 On ch=1 n=e5 v=32
321304 On ch=1 n=e5 v=0
321304 On ch=1 n=b4 v=0
321304 On ch=1 n=g#4 v=0
321480 On ch=1 n=a4 v=27
321480 On ch=1 n=c#5 v=29
321480 On ch=1 n=f#5 v=33
321544 On ch=1 n=f#5 v=0
321544 On ch=1 n=c#5 v=0
321544 On ch=1 n=a4 v=0
321720 On ch=1 n=b4 v=28
321720 On ch=1 n=e5 v=30
321720 On ch=1 n=g#5 v=34
321784 On ch=1 n=g#5 v=0
321784 On ch=1 n=e5 v=0
321784 On ch=1 n=b4 v=0
321960 On ch=1 n=c#5 v=29
321960 On ch=1 n=e5 v=31
321960 On ch=1 n=a5 v=35
322024 On ch=1 n=a5 v=0
322024 On ch=1 n=e5 v=0
322024 On ch=1 n=c#5 v=0
322200 On ch=1 n=e5 v=30
322200 On ch=1 n=g#5 v=32
322200 On ch=1 n=b5 v=36
322264 On ch=1 n=b5 v=0
322264 On ch=1 n=g#5 v=0
322264 On ch=1 n=e5 v=0
322386 On ch=1 n=c#6 v=28
322440 On ch=1 n=c#6 v=0
322440 On ch=1 n=e5 v=24
322440 On ch=1 n=g#5 v=26
322440 On ch=1 n=b5 v=30
322472 On ch=1 n=b5 v=0
322472 On ch=1 n=g#5 v=0
322472 On ch=1 n=e5 v=0
322560 On ch=1 n=a#5 v=29
322560 On ch=1 n=e5 v=23
322560 On ch=1 n=g#5 v=25
322592 On ch=1 n=g#5 v=0
322592 On ch=1 n=e5 v=0
322592 On ch=1 n=a#5 v=0
322680 On ch=1 n=e5 v=25
322680 On ch=1 n=g#5 v=27
322680 On ch=1 n=b5 v=31
322744 On ch=1 n=b5 v=0
322744 On ch=1 n=g#5 v=0
322744 On ch=1 n=e5 v=0
323160 On ch=1 n=b6 v=32
323160 On ch=1 n=g#6 v=28
323160 On ch=1 n=e6 v=26
323224 On ch=1 n=e6 v=0
323224 On ch=1 n=g#6 v=0
323224 On ch=1 n=b6 v=0
323346 On ch=1 n=c#7 v=28
323400 On ch=1 n=c#7 v=0
323400 On ch=1 n=b6 v=30
323400 On ch=1 n=g#6 v=26
323400 On ch=1 n=e6 v=24
323432 On ch=1 n=e6 v=0
323432 On ch=1 n=g#6 v=0
323432 On ch=1 n=b6 v=0
323520 On ch=1 n=a#6 v=29
323520 On ch=1 n=e6 v=23
323520 On ch=1 n=g#6 v=25
323552 On ch=1 n=g#6 v=0
323552 On ch=1 n=e6 v=0
323552 On ch=1 n=a#6 v=0
323640 On ch=1 n=e6 v=25
323640 On ch=1 n=g#6 v=27
323640 On ch=1 n=b6 v=31
323704 On ch=1 n=b6 v=0
323704 On ch=1 n=g#6 v=0
323704 On ch=1 n=e6 v=0
323880 On ch=1 n=e5 v=27
323880 On ch=1 n=g#5 v=31
323944 On ch=1 n=g#5 v=0
323944 On ch=1 n=e5 v=0
324120 On ch=1 n=f5 v=27
324120 On ch=1 n=g#5 v=29
324120 On ch=1 n=c#6 v=33
324184 On ch=1 n=c#6 v=0
324184 On ch=1 n=g#5 v=0
324184 On ch=1 n=f5 v=0
324480 On ch=1 n=f5 v=25
324480 On ch=1 n=c#5 v=23
324480 On ch=1 n=g#5 v=29
324512 On ch=1 n=g#5 v=0
324512 On ch=1 n=c#5 v=0
324512 On ch=1 n=f5 v=0
324600 On ch=1 n=f5 v=26
324600 On ch=1 n=a5 v=30
324600 On ch=1 n=c#5 v=24
324664 On ch=1 n=c#5 v=0
324664 On ch=1 n=a5 v=0
324664 On ch=1 n=f5 v=0
324840 On ch=1 n=d#5 v=25
324840 On ch=1 n=f#5 v=27
324840 On ch=1 n=b5 v=31
324904 On ch=1 n=b5 v=0
324904 On ch=1 n=f#5 v=0
324904 On ch=1 n=d#5 v=0
325080 On ch=1 n=f5 v=26
325080 On ch=1 n=g#5 v=28
325080 On ch=1 n=c#6 v=32
325144 On ch=1 n=c#6 v=0
325144 On ch=1 n=g#5 v=0
325144 On ch=1 n=f5 v=0
325320 On ch=1 n=f#5 v=27
325320 On ch=1 n=a5 v=29
325320 On ch=1 n=d#6 v=33
325384 On ch=1 n=d#6 v=0
325384 On ch=1 n=a5 v=0
325384 On ch=1 n=f#5 v=0
325560 On ch=1 n=f6 v=34
325560 On ch=1 n=g#5 v=28
325560 On ch=1 n=c#6 v=30
325624 On ch=1 n=c#6 v=0
325624 On ch=1 n=g#5 v=0
325624 On ch=1 n=f6 v=0
325800 On ch=1 n=a5 v=29
325800 On ch=1 n=c#6 v=31
325800 On ch=1 n=f#6 v=35
325864 On ch=1 n=f#6 v=0
325864 On ch=1 n=c#6 v=0
325864 On ch=1 n=a5 v=0
326040 On ch=1 n=f6 v=32
326040 On ch=1 n=g#6 v=36
326040 On ch=1 n=c#6 v=30
326104 On ch=1 n=c#6 v=0
326104 On ch=1 n=g#6 v=0
326104 On ch=1 n=f6 v=0
326226 On ch=1 n=a6 v=28
326280 On ch=1 n=a6 v=0
326280 On ch=1 n=f6 v=26
326280 On ch=1 n=c#6 v=24
326280 On ch=1 n=g#6 v=30
326312 On ch=1 n=g#6 v=0
326312 On ch=1 n=c#6 v=0
326312 On ch=1 n=f6 v=0
326400 On ch=1 n=f#6 v=29
326400 On ch=1 n=d#6 v=25
326400 On ch=1 n=c#6 v=23
326432 On ch=1 n=c#6 v=0
326432 On ch=1 n=d#6 v=0
326432 On ch=1 n=f#6 v=0
326520 On ch=1 n=f6 v=27
326520 On ch=1 n=c#6 v=25
326520 On ch=1 n=g#6 v=31
326584 On ch=1 n=g#6 v=0
326584 On ch=1 n=c#6 v=0
326584 On ch=1 n=f6 v=0
327000 On ch=1 n=f7 v=28
327000 On ch=1 n=c#7 v=26
327000 On ch=1 n=g#7 v=32
327064 On ch=1 n=g#7 v=0
327064 On ch=1 n=c#7 v=0
327064 On ch=1 n=f7 v=0
327186 On ch=1 n=a7 v=28
327240 On ch=1 n=a7 v=0
327240 On ch=1 n=f7 v=26
327240 On ch=1 n=c#7 v=24
327240 On ch=1 n=g#7 v=30
327272 On ch=1 n=g#7 v=0
327272 On ch=1 n=c#7 v=0
327272 On ch=1 n=f7 v=0
327360 On ch=1 n=c#7 v=23
327360 On ch=1 n=d#7 v=25
327360 On ch=1 n=f#7 v=29
327392 On ch=1 n=f#7 v=0
327392 On ch=1 n=d#7 v=0
327392 On ch=1 n=c#7 v=0
327480 On ch=1 n=f7 v=27
327480 On ch=1 n=c#7 v=25
327480 On ch=1 n=g#7 v=31
327544 On ch=1 n=g#7 v=0
327544 On ch=1 n=c#7 v=0
327544 On ch=1 n=f7 v=0
327720 On ch=1 n=f5 v=30
327720 On ch=1 n=g#5 v=32
327720 On ch=1 n=c#6 v=36
327784 On ch=1 n=c#6 v=0
327784 On ch=1 n=g#5 v=0
327784 On ch=1 n=f5 v=0
327960 On ch=1 n=d6 v=38
327960 On ch=1 n=a5 v=34
327960 On ch=1 n=f#5 v=32
328024 On ch=1 n=f#5 v=0
328024 On ch=1 n=a5 v=0
328024 On ch=1 n=d6 v=0
328320 On ch=1 n=d5 v=28
328320 On ch=1 n=f#5 v=30
328320 On ch=1 n=a5 v=34
328352 On ch=1 n=a5 v=0
328352 On ch=1 n=f#5 v=0
328352 On ch=1 n=d5 v=0
328440 On ch=1 n=d5 v=29
328440 On ch=1 n=f#5 v=31
328440 On ch=1 n=b5 v=35
328504 On ch=1 n=b5 v=0
328504 On ch=1 n=f#5 v=0
328504 On ch=1 n=d5 v=0
328680 On ch=1 n=e5 v=30
328680 On ch=1 n=a5 v=32
328680 On ch=1 n=c#6 v=36
328744 On ch=1 n=c#6 v=0
328744 On ch=1 n=a5 v=0
328744 On ch=1 n=e5 v=0
328920 On ch=1 n=d6 v=37
328920 On ch=1 n=f#5 v=31
328920 On ch=1 n=a5 v=33
328984 On ch=1 n=a5 v=0
328984 On ch=1 n=f#5 v=0
328984 On ch=1 n=d6 v=0
329160 On ch=1 n=a5 v=32
329160 On ch=1 n=c#6 v=34
329160 On ch=1 n=e6 v=38
329224 On ch=1 n=e6 v=0
329224 On ch=1 n=c#6 v=0
329224 On ch=1 n=a5 v=0
329400 On ch=1 n=d6 v=35
329400 On ch=1 n=a5 v=33
329400 On ch=1 n=f#6 v=39
329464 On ch=1 n=f#6 v=0
329464 On ch=1 n=a5 v=0
329464 On ch=1 n=d6 v=0
329640 On ch=1 n=c#6 v=34
329640 On ch=1 n=e6 v=36
329640 On ch=1 n=a6 v=40
329704 On ch=1 n=a6 v=0
329704 On ch=1 n=e6 v=0
329704 On ch=1 n=c#6 v=0
329880 On ch=1 n=d7 v=41
329880 On ch=1 n=f#6 v=35
329880 On ch=1 n=a6 v=37
329944 On ch=1 n=a6 v=0
329944 On ch=1 n=f#6 v=0
329944 On ch=1 n=d7 v=0
330240 On ch=1 n=d6 v=33
330240 On ch=1 n=f#6 v=35
330240 On ch=1 n=a6 v=39
330272 On ch=1 n=a6 v=0
330272 On ch=1 n=f#6 v=0
330272 On ch=1 n=d6 v=0
330360 On ch=1 n=d6 v=34
330360 On ch=1 n=f#6 v=36
330360 On ch=1 n=b6 v=40
330424 On ch=1 n=b6 v=0
330424 On ch=1 n=f#6 v=0
330424 On ch=1 n=d6 v=0
330600 On ch=1 n=e6 v=35
330600 On ch=1 n=a6 v=37
330600 On ch=1 n=c#7 v=41
330664 On ch=1 n=c#7 v=0
330664 On ch=1 n=a6 v=0
330664 On ch=1 n=e6 v=0
330840 On ch=1 n=d7 v=42
330840 On ch=1 n=f#6 v=36
330840 On ch=1 n=a6 v=38
330904 On ch=1 n=a6 v=0
330904 On ch=1 n=f#6 v=0
330904 On ch=1 n=d7 v=0
331080 On ch=1 n=a6 v=37
331080 On ch=1 n=c#7 v=39
331080 On ch=1 n=e7 v=43
331144 On ch=1 n=e7 v=0
331144 On ch=1 n=c#7 v=0
331144 On ch=1 n=a6 v=0
331320 On ch=1 n=a6 v=38
331320 On ch=1 n=d7 v=40
331320 On ch=1 n=f#7 v=44
331384 On ch=1 n=f#7 v=0
331384 On ch=1 n=d7 v=0
331384 On ch=1 n=a6 v=0
331560 On ch=1 n=d6 v=47
331560 On ch=1 n=f#5 v=41
331560 On ch=1 n=a5 v=43
331624 On ch=1 n=a5 v=0
331624 On ch=1 n=f#5 v=0
331624 On ch=1 n=d6 v=0
331800 On ch=1 n=d6 v=45
331800 On ch=1 n=g6 v=49
331800 On ch=1 n=b5 v=43
331864 On ch=1 n=b5 v=0
331864 On ch=1 n=g6 v=0
331864 On ch=1 n=d6 v=0
332160 On ch=1 n=d6 v=45
332160 On ch=1 n=g5 v=39
332160 On ch=1 n=b5 v=41
332192 On ch=1 n=b5 v=0
332192 On ch=1 n=g5 v=0
332192 On ch=1 n=d6 v=0
332280 On ch=1 n=g5 v=40
332280 On ch=1 n=b5 v=42
332280 On ch=1 n=e6 v=46
332344 On ch=1 n=e6 v=0
332344 On ch=1 n=b5 v=0
332344 On ch=1 n=g5 v=0
332520 On ch=1 n=d6 v=43
332520 On ch=1 n=a5 v=41
332520 On ch=1 n=f#6 v=47
332584 On ch=1 n=f#6 v=0
332584 On ch=1 n=a5 v=0
332584 On ch=1 n=d6 v=0
332760 On ch=1 n=d6 v=44
332760 On ch=1 n=g6 v=48
332760 On ch=1 n=b5 v=42
332824 On ch=1 n=b5 v=0
332824 On ch=1 n=g6 v=0
332824 On ch=1 n=d6 v=0
333000 On ch=1 n=d6 v=43
333000 On ch=1 n=f#6 v=45
333000 On ch=1 n=a6 v=49
333064 On ch=1 n=a6 v=0
333064 On ch=1 n=f#6 v=0
333064 On ch=1 n=d6 v=0
333240 On ch=1 n=d6 v=44
333240 On ch=1 n=g6 v=46
333240 On ch=1 n=b6 v=50
333304 On ch=1 n=b6 v=0
333304 On ch=1 n=g6 v=0
333304 On ch=1 n=d6 v=0
333480 On ch=1 n=d7 v=51
333480 On ch=1 n=f#6 v=45
333480 On ch=1 n=a6 v=47
333544 On ch=1 n=a6 v=0
333544 On ch=1 n=f#6 v=0
333544 On ch=1 n=d7 v=0
333720 On ch=1 n=d7 v=48
333720 On ch=1 n=g7 v=52
333720 On ch=1 n=b6 v=46
333784 On ch=1 n=b6 v=0
333784 On ch=1 n=g7 v=0
333784 On ch=1 n=d7 v=0
334080 On ch=1 n=d7 v=48
334080 On ch=1 n=g6 v=42
334080 On ch=1 n=b6 v=44
334112 On ch=1 n=b6 v=0
334112 On ch=1 n=g6 v=0
334112 On ch=1 n=d7 v=0
334200 On ch=1 n=g6 v=43
334200 On ch=1 n=b6 v=45
334200 On ch=1 n=e7 v=49
334264 On ch=1 n=e7 v=0
334264 On ch=1 n=b6 v=0
334264 On ch=1 n=g6 v=0
334440 On ch=1 n=d7 v=46
334440 On ch=1 n=a6 v=44
334440 On ch=1 n=f#7 v=50
334504 On ch=1 n=f#7 v=0
334504 On ch=1 n=a6 v=0
334504 On ch=1 n=d7 v=0
334680 On ch=1 n=d7 v=47
334680 On ch=1 n=g7 v=51
334680 On ch=1 n=b6 v=45
334744 On ch=1 n=b6 v=0
334744 On ch=1 n=g7 v=0
334744 On ch=1 n=d7 v=0
334920 On ch=1 n=d7 v=46
334920 On ch=1 n=f#7 v=48
334920 On ch=1 n=a7 v=52
334984 On ch=1 n=a7 v=0
334984 On ch=1 n=f#7 v=0
334984 On ch=1 n=d7 v=0
335160 On ch=1 n=d7 v=47
335160 On ch=1 n=g7 v=49
335160 On ch=1 n=b7 v=53
335224 On ch=1 n=b7 v=0
335224 On ch=1 n=g7 v=0
335224 On ch=1 n=d7 v=0
335400 On ch=1 n=d5 v=45
335400 On ch=1 n=g5 v=49
335400 On ch=1 n=b4 v=43
335464 On ch=1 n=b4 v=0
335464 On ch=1 n=g5 v=0
335464 On ch=1 n=d5 v=0
335640 On ch=1 n=d#5 v=75
335640 On ch=1 n=b5 v=81
335640 On ch=1 n=f#5 v=77
335640 On ch=1 n=b4 v=79
335640 Par ch=1 c=64 v=127
335704 On ch=1 n=b4 v=0
335704 On ch=1 n=f#5 v=0
335704 On ch=1 n=b5 v=0
335704 On ch=1 n=d#5 v=0
336000 On ch=1 n=f#4 v=45
336000 On ch=1 n=f#5 v=47
336032 On ch=1 n=f#5 v=0
336032 On ch=1 n=f#4 v=0
336120 On ch=1 n=g#4 v=47
336120 On ch=1 n=g#5 v=49
336120 Par ch=1 c=64 v=0
336184 On ch=1 n=g#5 v=0
336184 On ch=1 n=g#4 v=0
336360 On ch=1 n=a#4 v=49
336360 On ch=1 n=a#5 v=51
336424 On ch=1 n=a#5 v=0
336424 On ch=1 n=a#4 v=0
336600 On ch=1 n=b4 v=51
336600 On ch=1 n=b5 v=53
336664 On ch=1 n=b5 v=0
336664 On ch=1 n=b4 v=0
336840 On ch=1 n=c#5 v=53
336840 On ch=1 n=c#6 v=55
336904 On ch=1 n=c#6 v=0
336904 On ch=1 n=c#5 v=0
337080 On ch=1 n=d#5 v=55
337080 On ch=1 n=d#6 v=57
337080 Par ch=1 c=64 v=127
337144 On ch=1 n=d#6 v=0
337144 On ch=1 n=d#5 v=0
337440 On ch=1 n=a#5 v=53
337440 On ch=1 n=a#4 v=51
337472 On ch=1 n=a#4 v=0
337472 On ch=1 n=a#5 v=0
337560 On ch=1 n=b4 v=53
337560 On ch=1 n=b5 v=55
337560 Par ch=1 c=64 v=0
337624 On ch=1 n=b5 v=0
337624 On ch=1 n=b4 v=0
337800 On ch=1 n=c#5 v=55
337800 On ch=1 n=c#6 v=57
337864 On ch=1 n=c#6 v=0
337864 On ch=1 n=c#5 v=0
338040 On ch=1 n=d#5 v=57
338040 On ch=1 n=d#6 v=59
338104 On ch=1 n=d#6 v=0
338104 On ch=1 n=d#5 v=0
338280 On ch=1 n=e5 v=59
338280 On ch=1 n=e6 v=61
338344 On ch=1 n=e6 v=0
338344 On ch=1 n=e5 v=0
338520 On ch=1 n=f#5 v=61
338520 On ch=1 n=f#6 v=63
338520 Par ch=1 c=64 v=127
338584 On ch=1 n=f#6 v=0
338584 On ch=1 n=f#5 v=0
338880 On ch=1 n=d5 v=57
338880 On ch=1 n=d6 v=59
338912 On ch=1 n=d6 v=0
338912 On ch=1 n=d5 v=0
339000 On ch=1 n=d#5 v=59
339000 On ch=1 n=d#6 v=61
339000 Par ch=1 c=64 v=0
339064 On ch=1 n=d#6 v=0
339064 On ch=1 n=d#5 v=0
339240 On ch=1 n=e5 v=61
339240 On ch=1 n=e6 v=63
339304 On ch=1 n=e6 v=0
339304 On ch=1 n=e5 v=0
339480 On ch=1 n=f#5 v=63
339480 On ch=1 n=f#6 v=65
339544 On ch=1 n=f#6 v=0
339544 On ch=1 n=f#5 v=0
339720 On ch=1 n=g#5 v=65
339720 On ch=1 n=g#6 v=67
339784 On ch=1 n=g#6 v=0
339784 On ch=1 n=g#5 v=0
339960 On ch=1 n=a5 v=67
339960 On ch=1 n=a6 v=69
340024 On ch=1 n=a6 v=0
340024 On ch=1 n=a5 v=0
340200 On ch=1 n=a#5 v=69
340200 On ch=1 n=a#6 v=71
340264 On ch=1 n=a#6 v=0
340264 On ch=1 n=a#5 v=0
340440 On ch=1 n=b5 v=70
340440 On ch=1 n=b6 v=72
340440 Par ch=1 c=64 v=127
340483 On ch=1 n=b6 v=0
340483 On ch=1 n=b5 v=0
340600 On ch=1 n=c#6 v=71
340600 On ch=1 n=c#7 v=73
340643 On ch=1 n=c#7 v=0
340643 On ch=1 n=c#6 v=0
340760 On ch=1 n=d#6 v=72
340760 On ch=1 n=d#7 v=74
340803 On ch=1 n=d#7 v=0
340803 On ch=1 n=d#6 v=0
340920 On ch=1 n=e7 v=76
340920 On ch=1 n=e6 v=74
340963 On ch=1 n=e6 v=0
340963 On ch=1 n=e7 v=0
341080 On ch=1 n=f#6 v=75
341080 On ch=1 n=f#7 v=77
341123 On ch=1 n=f#7 v=0
341123 On ch=1 n=f#6 v=0
341240 On ch=1 n=g#7 v=79
341240 On ch=1 n=g#6 v=77
341283 On ch=1 n=g#6 v=0
341283 On ch=1 n=g#7 v=0
341400 On ch=1 n=a6 v=78
341400 On ch=1 n=a7 v=80
341443 On ch=1 n=a7 v=0
341443 On ch=1 n=a6 v=0
341560 On ch=1 n=a#6 v=79
341560 On ch=1 n=a#7 v=81
341603 On ch=1 n=a#7 v=0
341603 On ch=1 n=a#6 v=0
341720 On ch=1 n=b6 v=81
341720 On ch=1 n=b7 v=83
341763 On ch=1 n=b7 v=0
341763 On ch=1 n=b6 v=0
341880 On ch=1 n=c7 v=82
341880 On ch=1 n=c8 v=84
341923 On ch=1 n=c8 v=0
341923 On ch=1 n=c7 v=0
342040 On ch=1 n=c#7 v=84
342040 On ch=1 n=c#8 v=86
342083 On ch=1 n=c#8 v=0
342083 On ch=1 n=c#7 v=0
342200 On ch=1 n=d#8 v=88
342200 On ch=1 n=d#7 v=86
342243 On ch=1 n=d#7 v=0
342243 On ch=1 n=d#8 v=0
342360 Par ch=1 c=64 v=0
342360 On ch=1 n=e7 v=98
342360 On ch=1 n=b6 v=93
342360 On ch=1 n=g#6 v=91
342360 On ch=1 n=e6 v=96
342480 Par ch=1 c=64 v=127
342576 On ch=1 n=e6 v=0
342576 On ch=1 n=g#6 v=0
342576 On ch=1 n=b6 v=0
342576 On ch=1 n=e7 v=0
342720 On ch=1 n=b4 v=88
342752 On ch=1 n=b4 v=0
342840 On ch=1 n=c#5 v=89
342840 Par ch=1 c=64 v=0
342904 On ch=1 n=c#5 v=0
343080 On ch=1 n=d#5 v=90
343144 On ch=1 n=d#5 v=0
343320 On ch=1 n=e5 v=91
343384 On ch=1 n=e5 v=0
343560 On ch=1 n=f#5 v=92
343624 On ch=1 n=f#5 v=0
343800 On ch=1 n=g#5 v=93
343864 On ch=1 n=g#5 v=0
344040 On ch=1 n=a#5 v=94
344040 On ch=1 n=a#4 v=92
344040 On ch=1 n=c#5 v=87
344040 On ch=1 n=e5 v=89
344104 On ch=1 n=e5 v=0
344104 On ch=1 n=c#5 v=0
344104 On ch=1 n=a#4 v=0
344104 On ch=1 n=a#5 v=0
344280 On ch=1 n=b4 v=93
344280 On ch=1 n=d#5 v=88
344280 On ch=1 n=f#5 v=90
344280 On ch=1 n=b5 v=95
344344 On ch=1 n=b5 v=0
344344 On ch=1 n=f#5 v=0
344344 On ch=1 n=d#5 v=0
344344 On ch=1 n=b4 v=0
344466 On ch=1 n=c#6 v=86
344520 On ch=1 n=c#6 v=0
344520 On ch=1 n=d#5 v=83
344520 On ch=1 n=f#5 v=85
344520 On ch=1 n=b5 v=90
344552 On ch=1 n=b5 v=0
344552 On ch=1 n=f#5 v=0
344552 On ch=1 n=d#5 v=0
344640 On ch=1 n=a#5 v=89
344640 On ch=1 n=c#5 v=82
344640 On ch=1 n=f#5 v=84
344672 On ch=1 n=f#5 v=0
344672 On ch=1 n=c#5 v=0
344672 On ch=1 n=a#5 v=0
344760 On ch=1 n=d#5 v=84
344760 On ch=1 n=f#5 v=86
344760 On ch=1 n=b5 v=91
344824 On ch=1 n=b5 v=0
344824 On ch=1 n=f#5 v=0
344824 On ch=1 n=d#5 v=0
345240 On ch=1 n=d#6 v=41
345240 On ch=1 n=b6 v=46
345304 On ch=1 n=b6 v=0
345304 On ch=1 n=d#6 v=0
345426 On ch=1 n=c#7 v=38
345480 On ch=1 n=c#7 v=0
345480 On ch=1 n=d#6 v=38
345480 On ch=1 n=b6 v=42
345512 On ch=1 n=b6 v=0
345512 On ch=1 n=d#6 v=0
345600 On ch=1 n=a#6 v=40
345600 On ch=1 n=d#6 v=35
345632 On ch=1 n=d#6 v=0
345632 On ch=1 n=a#6 v=0
345720 On ch=1 n=d#6 v=39
345720 On ch=1 n=b6 v=44
345784 On ch=1 n=b6 v=0
345784 On ch=1 n=d#6 v=0
346200 On ch=1 n=c#5 v=93
346200 On ch=1 n=a4 v=91
346200 On ch=1 n=f#5 v=98
346560 On ch=1 n=f#5 v=0
346560 On ch=1 n=g#5 v=82
346632 On ch=1 n=a4 v=0
346632 On ch=1 n=c#5 v=0
346668 On ch=1 n=g#5 v=0
346680 On ch=1 n=c5 v=81
346680 On ch=1 n=f#5 v=86
346680 On ch=1 n=g#4 v=79
346744 On ch=1 n=g#4 v=0
346744 On ch=1 n=f#5 v=0
346744 On ch=1 n=c5 v=0
346920 On ch=1 n=f#4 v=79
346920 On ch=1 n=d#5 v=84
346984 On ch=1 n=d#5 v=0
346984 On ch=1 n=f#4 v=0
347160 On ch=1 n=g#4 v=93
347160 On ch=1 n=e4 v=91
347160 On ch=1 n=c#5 v=98
347520 On ch=1 n=c#5 v=0
347520 On ch=1 n=d#5 v=82
347592 On ch=1 n=e4 v=0
347592 On ch=1 n=g#4 v=0
347628 On ch=1 n=d#5 v=0
347640 On ch=1 n=e5 v=86
347640 On ch=1 n=g#4 v=79
347640 On ch=1 n=c#5 v=81
347769 On ch=1 n=e5 v=0
347856 On ch=1 n=c#5 v=0
347856 On ch=1 n=g#4 v=0
347880 On ch=1 n=c5 v=77
347880 On ch=1 n=g#5 v=84
347880 On ch=1 n=g#4 v=82
347880 On ch=1 n=d#5 v=79
348009 On ch=1 n=g#5 v=0
348096 On ch=1 n=d#5 v=0
348096 On ch=1 n=g#4 v=0
348096 On ch=1 n=c5 v=0
348120 On ch=1 n=c#5 v=88
348120 On ch=1 n=g#4 v=83
348120 On ch=1 n=e4 v=81
348184 On ch=1 n=e4 v=0
348184 On ch=1 n=g#4 v=0
348184 On ch=1 n=c#5 v=0
348306 On ch=1 n=d#5 v=80
348360 On ch=1 n=d#5 v=0
348360 On ch=1 n=e4 v=77
348360 On ch=1 n=g#4 v=79
348360 On ch=1 n=c#5 v=84
348392 On ch=1 n=c#5 v=0
348392 On ch=1 n=g#4 v=0
348392 On ch=1 n=e4 v=0
348480 On ch=1 n=c5 v=83
348480 On ch=1 n=d#4 v=76
348480 On ch=1 n=g#4 v=78
348512 On ch=1 n=g#4 v=0
348512 On ch=1 n=d#4 v=0
348512 On ch=1 n=c5 v=0
348600 On ch=1 n=e4 v=79
348600 On ch=1 n=g#4 v=81
348600 On ch=1 n=c#5 v=86
348664 On ch=1 n=c#5 v=0
348664 On ch=1 n=g#4 v=0
348664 On ch=1 n=e4 v=0
349080 On ch=1 n=c#7 v=46
349080 On ch=1 n=e6 v=41
349144 On ch=1 n=e6 v=0
349144 On ch=1 n=c#7 v=0
349266 On ch=1 n=d#7 v=38
349320 On ch=1 n=d#7 v=0
349320 On ch=1 n=e6 v=37
349320 On ch=1 n=c#7 v=42
349352 On ch=1 n=c#7 v=0
349352 On ch=1 n=e6 v=0
349440 On ch=1 n=c7 v=40
349440 On ch=1 n=e6 v=35
349472 On ch=1 n=e6 v=0
349472 On ch=1 n=c7 v=0
349560 On ch=1 n=e6 v=39
349560 On ch=1 n=c#7 v=44
349624 On ch=1 n=c#7 v=0
349624 On ch=1 n=e6 v=0
350040 On ch=1 n=e5 v=93
350040 On ch=1 n=c#5 v=91
350040 On ch=1 n=a4 v=96
350040 On ch=1 n=a5 v=98
350400 On ch=1 n=a5 v=0
350400 On ch=1 n=c#6 v=82
350472 On ch=1 n=a4 v=0
350472 On ch=1 n=c#5 v=0
350472 On ch=1 n=e5 v=0
350508 On ch=1 n=c#6 v=0
350520 On ch=1 n=b5 v=86
350520 On ch=1 n=f#5 v=81
350520 On ch=1 n=d#5 v=79
350520 On ch=1 n=b4 v=77
350520 On ch=1 n=a4 v=84
350584 On ch=1 n=a4 v=0
350584 On ch=1 n=b4 v=0
350584 On ch=1 n=d#5 v=0
350584 On ch=1 n=f#5 v=0
350584 On ch=1 n=b5 v=0
350760 On ch=1 n=a5 v=84
350760 On ch=1 n=d#5 v=79
350824 On ch=1 n=d#5 v=0
350824 On ch=1 n=a5 v=0
351000 On ch=1 n=e5 v=93
351000 On ch=1 n=b4 v=91
351000 On ch=1 n=g#5 v=98
351360 On ch=1 n=g#5 v=0
351360 On ch=1 n=b5 v=82
351432 On ch=1 n=b4 v=0
351432 On ch=1 n=e5 v=0
351468 On ch=1 n=b5 v=0
351480 On ch=1 n=c#5 v=79
351480 On ch=1 n=e5 v=81
351480 On ch=1 n=a5 v=86
351544 On ch=1 n=a5 v=0
351544 On ch=1 n=e5 v=0
351544 On ch=1 n=c#5 v=0
351720 On ch=1 n=b4 v=75
351720 On ch=1 n=d#5 v=77
351720 On ch=1 n=e5 v=79
351720 On ch=1 n=g#5 v=84
351784 On ch=1 n=g#5 v=0
351784 On ch=1 n=e5 v=0
351784 On ch=1 n=d#5 v=0
351784 On ch=1 n=b4 v=0
351960 On ch=1 n=f#5 v=88
351960 On ch=1 n=c#5 v=83
351960 On ch=1 n=a4 v=81
352024 On ch=1 n=a4 v=0
352024 On ch=1 n=c#5 v=0
352024 On ch=1 n=f#5 v=0
352146 On ch=1 n=g#5 v=80
352200 On ch=1 n=g#5 v=0
352200 On ch=1 n=a4 v=77
352200 On ch=1 n=c#5 v=79
352200 On ch=1 n=f#5 v=84
352232 On ch=1 n=f#5 v=0
352232 On ch=1 n=c#5 v=0
352232 On ch=1 n=a4 v=0
352320 On ch=1 n=f5 v=83
352320 On ch=1 n=c#5 v=78
352320 On ch=1 n=g#4 v=76
352352 On ch=1 n=g#4 v=0
352352 On ch=1 n=c#5 v=0
352352 On ch=1 n=f5 v=0
352440 On ch=1 n=a4 v=78
352440 On ch=1 n=c#5 v=81
352440 On ch=1 n=f#5 v=86
352504 On ch=1 n=f#5 v=0
352504 On ch=1 n=c#5 v=0
352504 On ch=1 n=a4 v=0
352920 On ch=1 n=a6 v=39
352920 On ch=1 n=c#7 v=41
352920 On ch=1 n=f#7 v=46
352984 On ch=1 n=f#7 v=0
352984 On ch=1 n=c#7 v=0
352984 On ch=1 n=a6 v=0
353106 On ch=1 n=g#7 v=38
353160 On ch=1 n=g#7 v=0
353160 On ch=1 n=a6 v=35
353160 On ch=1 n=c#7 v=37
353160 On ch=1 n=f#7 v=42
353192 On ch=1 n=f#7 v=0
353192 On ch=1 n=c#7 v=0
353192 On ch=1 n=a6 v=0
353280 On ch=1 n=f7 v=40
353280 On ch=1 n=g#6 v=33
353280 On ch=1 n=c#7 v=35
353312 On ch=1 n=c#7 v=0
353312 On ch=1 n=g#6 v=0
353312 On ch=1 n=f7 v=0
353400 On ch=1 n=a6 v=37
353400 On ch=1 n=c#7 v=39
353400 On ch=1 n=f#7 v=44
353464 On ch=1 n=f#7 v=0
353464 On ch=1 n=c#7 v=0
353464 On ch=1 n=a6 v=0
353880 On ch=1 n=c#5 v=98
353880 On ch=1 n=a4 v=93
354204 On ch=1 n=a4 v=0
354204 On ch=1 n=c#5 v=0
354240 On ch=1 n=a4 v=75
354240 On ch=1 n=b4 v=77
354240 On ch=1 n=d#5 v=82
354348 On ch=1 n=d#5 v=0
354348 On ch=1 n=b4 v=0
354348 On ch=1 n=a4 v=0
354360 On ch=1 n=g#4 v=79
354360 On ch=1 n=b4 v=81
354360 On ch=1 n=e5 v=86
354424 On ch=1 n=e5 v=0
354424 On ch=1 n=b4 v=0
354424 On ch=1 n=g#4 v=0
354600 On ch=1 n=a4 v=77
354600 On ch=1 n=c#5 v=79
354600 On ch=1 n=f#5 v=84
354664 On ch=1 n=f#5 v=0
354664 On ch=1 n=c#5 v=0
354664 On ch=1 n=a4 v=0
354840 On ch=1 n=g#5 v=98
354840 On ch=1 n=e5 v=93
354840 On ch=1 n=b4 v=91
355164 On ch=1 n=b4 v=0
355164 On ch=1 n=e5 v=0
355164 On ch=1 n=g#5 v=0
355200 On ch=1 n=c#5 v=75
355200 On ch=1 n=e5 v=77
355200 On ch=1 n=a5 v=82
355308 On ch=1 n=a5 v=0
355308 On ch=1 n=e5 v=0
355308 On ch=1 n=c#5 v=0
355320 On ch=1 n=g#5 v=86
355320 On ch=1 n=e5 v=81
355320 On ch=1 n=b4 v=79
355384 On ch=1 n=b4 v=0
355384 On ch=1 n=e5 v=0
355384 On ch=1 n=g#5 v=0
355560 On ch=1 n=a4 v=77
355560 On ch=1 n=d#5 v=79
355560 On ch=1 n=f#5 v=84
355624 On ch=1 n=f#5 v=0
355624 On ch=1 n=d#5 v=0
355624 On ch=1 n=a4 v=0
355800 On ch=1 n=g#4 v=81
355800 On ch=1 n=b4 v=83
355800 On ch=1 n=e5 v=88
355864 On ch=1 n=e5 v=0
355864 On ch=1 n=b4 v=0
355864 On ch=1 n=g#4 v=0
355986 On ch=1 n=f#5 v=80
356040 On ch=1 n=f#5 v=0
356040 On ch=1 n=g#4 v=77
356040 On ch=1 n=b4 v=79
356040 On ch=1 n=e5 v=84
356072 On ch=1 n=e5 v=0
356072 On ch=1 n=b4 v=0
356072 On ch=1 n=g#4 v=0
356160 On ch=1 n=f#4 v=76
356160 On ch=1 n=b4 v=78
356160 On ch=1 n=d#5 v=83
356192 On ch=1 n=d#5 v=0
356192 On ch=1 n=b4 v=0
356192 On ch=1 n=f#4 v=0
356280 On ch=1 n=g#4 v=79
356280 On ch=1 n=b4 v=81
356280 On ch=1 n=e5 v=86
356344 On ch=1 n=e5 v=0
356344 On ch=1 n=b4 v=0
356344 On ch=1 n=g#4 v=0
356760 On ch=1 n=g#6 v=39
356760 On ch=1 n=b6 v=41
356760 On ch=1 n=e7 v=46
356824 On ch=1 n=e7 v=0
356824 On ch=1 n=b6 v=0
356824 On ch=1 n=g#6 v=0
356946 On ch=1 n=f#7 v=38
357000 On ch=1 n=f#7 v=0
357000 On ch=1 n=g#6 v=35
357000 On ch=1 n=b6 v=37
357000 On ch=1 n=e7 v=42
357032 On ch=1 n=e7 v=0
357032 On ch=1 n=b6 v=0
357032 On ch=1 n=g#6 v=0
357120 On ch=1 n=f#6 v=33
357120 On ch=1 n=b6 v=35
357120 On ch=1 n=d#7 v=40
357152 On ch=1 n=d#7 v=0
357152 On ch=1 n=b6 v=0
357152 On ch=1 n=f#6 v=0
357240 On ch=1 n=g#6 v=37
357240 On ch=1 n=b6 v=39
357240 On ch=1 n=e7 v=44
357304 On ch=1 n=e7 v=0
357304 On ch=1 n=b6 v=0
357304 On ch=1 n=g#6 v=0
357720 On ch=1 n=a6 v=114
357720 On ch=1 n=e6 v=109
357720 On ch=1 n=c#6 v=107
357720 On ch=1 n=a5 v=112
357720 Par ch=1 c=64 v=127
358044 On ch=1 n=a5 v=0
358044 On ch=1 n=c#6 v=0
358044 On ch=1 n=e6 v=0
358044 On ch=1 n=a6 v=0
358080 On ch=1 n=c#6 v=96
358080 On ch=1 n=c#7 v=98
358188 On ch=1 n=c#7 v=0
358188 On ch=1 n=c#6 v=0
358200 On ch=1 n=b6 v=102
358200 On ch=1 n=f#6 v=97
358200 On ch=1 n=b5 v=100
358200 Par ch=1 c=64 v=0
358264 On ch=1 n=b5 v=0
358264 On ch=1 n=f#6 v=0
358264 On ch=1 n=b6 v=0
358440 On ch=1 n=a5 v=98
358440 On ch=1 n=a6 v=100
358504 On ch=1 n=a6 v=0
358504 On ch=1 n=a5 v=0
358680 On ch=1 n=g#6 v=114
358680 On ch=1 n=e6 v=109
358680 On ch=1 n=g#5 v=112
358680 Par ch=1 c=64 v=127
359004 On ch=1 n=g#5 v=0
359004 On ch=1 n=e6 v=0
359004 On ch=1 n=g#6 v=0
359040 On ch=1 n=b5 v=96
359040 On ch=1 n=b6 v=98
359148 On ch=1 n=b6 v=0
359148 On ch=1 n=b5 v=0
359160 On ch=1 n=a6 v=102
359160 On ch=1 n=e6 v=97
359160 On ch=1 n=a5 v=100
359160 Par ch=1 c=64 v=0
359224 On ch=1 n=a5 v=0
359224 On ch=1 n=e6 v=0
359224 On ch=1 n=a6 v=0
359400 On ch=1 n=g#5 v=98
359400 On ch=1 n=d#6 v=93
359400 On ch=1 n=e6 v=95
359400 On ch=1 n=g#6 v=100
359464 On ch=1 n=g#6 v=0
359464 On ch=1 n=e6 v=0
359464 On ch=1 n=d#6 v=0
359464 On ch=1 n=g#5 v=0
359640 On ch=1 n=f#6 v=104
359640 On ch=1 n=c#6 v=99
359640 On ch=1 n=f#5 v=102
359704 On ch=1 n=f#5 v=0
359704 On ch=1 n=c#6 v=0
359704 On ch=1 n=f#6 v=0
359826 On ch=1 n=g#6 v=96
359880 On ch=1 n=g#6 v=0
359880 On ch=1 n=f#5 v=98
359880 On ch=1 n=c#6 v=95
359880 On ch=1 n=f#6 v=100
359912 On ch=1 n=f#6 v=0
359912 On ch=1 n=c#6 v=0
359912 On ch=1 n=f#5 v=0
360000 On ch=1 n=f6 v=99
360000 On ch=1 n=f5 v=97
360000 On ch=1 n=c#6 v=94
360032 On ch=1 n=c#6 v=0
360032 On ch=1 n=f5 v=0
360032 On ch=1 n=f6 v=0
360120 On ch=1 n=f#5 v=100
360120 On ch=1 n=c#6 v=97
360120 On ch=1 n=f#6 v=102
360184 On ch=1 n=f#6 v=0
360184 On ch=1 n=c#6 v=0
360184 On ch=1 n=f#5 v=0
360600 On ch=1 n=a6 v=47
360600 On ch=1 n=c#7 v=49
360600 On ch=1 n=f#7 v=54
360654 On ch=1 n=f#7 v=0
360654 On ch=1 n=c#7 v=0
360654 On ch=1 n=a6 v=0
360660 On ch=1 n=f6 v=50
360714 On ch=1 n=f6 v=0
360720 On ch=1 n=a6 v=44
360720 On ch=1 n=c#7 v=46
360720 On ch=1 n=f#7 v=51
360774 On ch=1 n=f#7 v=0
360774 On ch=1 n=c#7 v=0
360774 On ch=1 n=a6 v=0
360780 On ch=1 n=f6 v=47
360834 On ch=1 n=f6 v=0
360840 On ch=1 n=a6 v=45
360840 On ch=1 n=c#7 v=47
360840 On ch=1 n=f#7 v=52
360894 On ch=1 n=f#7 v=0
360894 On ch=1 n=c#7 v=0
360894 On ch=1 n=a6 v=0
360900 On ch=1 n=f6 v=48
360954 On ch=1 n=f6 v=0
360960 On ch=1 n=a6 v=43
360960 On ch=1 n=c#7 v=45
360960 On ch=1 n=f#7 v=50
361014 On ch=1 n=f#7 v=0
361014 On ch=1 n=c#7 v=0
361014 On ch=1 n=a6 v=0
361020 On ch=1 n=f6 v=46
361074 On ch=1 n=f6 v=0
361080 On ch=1 n=f#7 v=53
361080 On ch=1 n=c#7 v=48
361080 On ch=1 n=a6 v=46
361144 On ch=1 n=a6 v=0
361144 On ch=1 n=c#7 v=0
361144 On ch=1 n=f#7 v=0
361560 On ch=1 n=c#6 v=98
361560 On ch=1 n=a5 v=93
361560 On ch=1 n=c#5 v=96
361560 Par ch=1 c=64 v=127
361884 On ch=1 n=c#5 v=0
361884 On ch=1 n=a5 v=0
361884 On ch=1 n=c#6 v=0
361920 On ch=1 n=d#5 v=80
361920 On ch=1 n=b5 v=77
361920 On ch=1 n=d#6 v=82
362028 On ch=1 n=d#6 v=0
362028 On ch=1 n=b5 v=0
362028 On ch=1 n=d#5 v=0
362040 On ch=1 n=e5 v=84
362040 On ch=1 n=b5 v=81
362040 On ch=1 n=e6 v=86
362040 Par ch=1 c=64 v=0
362104 On ch=1 n=e6 v=0
362104 On ch=1 n=b5 v=0
362104 On ch=1 n=e5 v=0
362280 On ch=1 n=f#6 v=84
362280 On ch=1 n=c#6 v=79
362280 On ch=1 n=a5 v=77
362280 On ch=1 n=f#5 v=82
362344 On ch=1 n=f#5 v=0
362344 On ch=1 n=a5 v=0
362344 On ch=1 n=c#6 v=0
362344 On ch=1 n=f#6 v=0
362520 On ch=1 n=g#5 v=96
362520 On ch=1 n=b5 v=91
362520 On ch=1 n=e6 v=93
362520 On ch=1 n=g#6 v=98
362520 Par ch=1 c=64 v=127
362952 On ch=1 n=g#6 v=0
362952 On ch=1 n=e6 v=0
362952 On ch=1 n=b5 v=0
362952 On ch=1 n=g#5 v=0
363000 On ch=1 n=b5 v=94
363000 On ch=1 n=d#6 v=89
363000 On ch=1 n=f#6 v=91
363000 On ch=1 n=b6 v=96
363000 Par ch=1 c=64 v=0
363240 Par ch=1 c=64 v=127
363432 On ch=1 n=b6 v=0
363432 On ch=1 n=f#6 v=0
363432 On ch=1 n=d#6 v=0
363432 On ch=1 n=b5 v=0
363480 On ch=1 n=g#7 v=98
363480 On ch=1 n=e7 v=93
363480 On ch=1 n=b6 v=91
363480 On ch=1 n=g#6 v=96
363480 Par ch=1 c=64 v=0
363912 On ch=1 n=g#6 v=0
363912 On ch=1 n=b6 v=0
363912 On ch=1 n=e7 v=0
363912 On ch=1 n=g#7 v=0
363960 On ch=1 n=b7 v=96
363960 On ch=1 n=f#7 v=91
363960 On ch=1 n=d#7 v=89
363960 On ch=1 n=b6 v=94
363960 Par ch=1 c=64 v=127
364284 On ch=1 n=b6 v=0
364284 On ch=1 n=d#7 v=0
364284 On ch=1 n=f#7 v=0
364284 On ch=1 n=b7 v=0
364320 On ch=1 n=b4 v=42
364320 Par ch=1 c=64 v=0
364428 On ch=1 n=b4 v=0
364440 On ch=1 n=e5 v=43
364472 On ch=1 n=e5 v=0
364560 On ch=1 n=b4 v=40
364592 On ch=1 n=b4 v=0
364680 On ch=1 n=c#5 v=41
364712 On ch=1 n=c#5 v=0
364800 On ch=1 n=d#5 v=42
364832 On ch=1 n=d#5 v=0
364920 On ch=1 n=e5 v=43
364952 On ch=1 n=e5 v=0
365040 On ch=1 n=f#5 v=44
365072 On ch=1 n=f#5 v=0
365160 On ch=1 n=g#5 v=45
365192 On ch=1 n=g#5 v=0
365280 On ch=1 n=a5 v=46
365312 On ch=1 n=a5 v=0
365400 On ch=1 n=b5 v=47
365432 On ch=1 n=b5 v=0
365520 On ch=1 n=b5 v=43
365552 On ch=1 n=b5 v=0
365620 On ch=1 n=c#6 v=41
365640 On ch=1 n=c#6 v=0
365640 On ch=1 n=e5 v=40
365640 On ch=1 n=b5 v=45
365672 On ch=1 n=b5 v=0
365760 On ch=1 n=a#5 v=41
365792 On ch=1 n=a#5 v=0
365856 On ch=1 n=e5 v=0
365880 On ch=1 n=b5 v=46
365912 On ch=1 n=b5 v=0
366000 On ch=1 n=b5 v=42
366032 On ch=1 n=b5 v=0
366100 On ch=1 n=c#6 v=40
366120 On ch=1 n=c#6 v=0
366120 On ch=1 n=e5 v=39
366120 On ch=1 n=b5 v=44
366152 On ch=1 n=b5 v=0
366240 On ch=1 n=a#5 v=40
366272 On ch=1 n=a#5 v=0
366336 On ch=1 n=e5 v=0
366360 On ch=1 n=a5 v=43
366392 On ch=1 n=a5 v=0
366480 On ch=1 n=e5 v=40
366512 On ch=1 n=e5 v=0
366600 On ch=1 n=f#5 v=41
366632 On ch=1 n=f#5 v=0
366720 On ch=1 n=g#5 v=42
366752 On ch=1 n=g#5 v=0
366840 On ch=1 n=a5 v=43
366872 On ch=1 n=a5 v=0
366960 On ch=1 n=b5 v=44
366992 On ch=1 n=b5 v=0
367080 On ch=1 n=c#6 v=45
367112 On ch=1 n=c#6 v=0
367200 On ch=1 n=d#6 v=46
367232 On ch=1 n=d#6 v=0
367320 On ch=1 n=e6 v=47
367352 On ch=1 n=e6 v=0
367440 On ch=1 n=e6 v=43
367472 On ch=1 n=e6 v=0
367540 On ch=1 n=f6 v=41
367560 On ch=1 n=f6 v=0
367560 On ch=1 n=a5 v=40
367560 On ch=1 n=e6 v=45
367592 On ch=1 n=e6 v=0
367680 On ch=1 n=d#6 v=41
367712 On ch=1 n=d#6 v=0
367776 On ch=1 n=a5 v=0
367800 On ch=1 n=e6 v=46
367832 On ch=1 n=e6 v=0
367920 On ch=1 n=e6 v=42
367952 On ch=1 n=e6 v=0
368020 On ch=1 n=f6 v=40
368040 On ch=1 n=f6 v=0
368040 On ch=1 n=a5 v=39
368040 On ch=1 n=e6 v=44
368072 On ch=1 n=e6 v=0
368160 On ch=1 n=d#6 v=40
368192 On ch=1 n=d#6 v=0
368256 On ch=1 n=a5 v=0
368280 On ch=1 n=e6 v=43
368312 On ch=1 n=e6 v=0
368400 On ch=1 n=b5 v=40
368432 On ch=1 n=b5 v=0
368520 On ch=1 n=c#6 v=42
368552 On ch=1 n=c#6 v=0
368640 On ch=1 n=d#6 v=44
368672 On ch=1 n=d#6 v=0
368760 On ch=1 n=e6 v=46
368792 On ch=1 n=e6 v=0
368880 On ch=1 n=f#6 v=48
368912 On ch=1 n=f#6 v=0
369000 On ch=1 n=g#6 v=50
369000 On ch=1 n=g#5 v=48
369032 On ch=1 n=g#5 v=0
369032 On ch=1 n=g#6 v=0
369120 On ch=1 n=a6 v=52
369120 On ch=1 n=a5 v=50
369152 On ch=1 n=a5 v=0
369152 On ch=1 n=a6 v=0
369240 On ch=1 n=b6 v=54
369240 On ch=1 n=b5 v=52
369272 On ch=1 n=b5 v=0
369272 On ch=1 n=b6 v=0
369360 On ch=1 n=g#6 v=50
369360 On ch=1 n=e6 v=48
369392 On ch=1 n=e6 v=0
369392 On ch=1 n=g#6 v=0
369480 On ch=1 n=c#7 v=52
369480 On ch=1 n=c#6 v=50
369512 On ch=1 n=c#6 v=0
369512 On ch=1 n=c#7 v=0
369600 On ch=1 n=a#6 v=48
369600 On ch=1 n=a#5 v=46
369632 On ch=1 n=a#5 v=0
369632 On ch=1 n=a#6 v=0
369720 On ch=1 n=b5 v=51
369720 On ch=1 n=b6 v=53
369752 On ch=1 n=b6 v=0
369752 On ch=1 n=b5 v=0
369840 On ch=1 n=g#6 v=49
369840 On ch=1 n=e6 v=47
369872 On ch=1 n=e6 v=0
369872 On ch=1 n=g#6 v=0
369960 On ch=1 n=c#6 v=49
369960 On ch=1 n=c#7 v=51
369992 On ch=1 n=c#7 v=0
369992 On ch=1 n=c#6 v=0
370080 On ch=1 n=b6 v=47
370080 On ch=1 n=b5 v=45
370112 On ch=1 n=b5 v=0
370112 On ch=1 n=b6 v=0
370200 On ch=1 n=a5 v=52
370200 On ch=1 n=a6 v=54
370232 On ch=1 n=a6 v=0
370232 On ch=1 n=a5 v=0
370320 On ch=1 n=e6 v=51
370352 On ch=1 n=e6 v=0
370440 On ch=1 n=f#6 v=53
370472 On ch=1 n=f#6 v=0
370560 On ch=1 n=g#6 v=55
370592 On ch=1 n=g#6 v=0
370680 On ch=1 n=a5 v=55
370680 On ch=1 n=a6 v=57
370712 On ch=1 n=a6 v=0
370712 On ch=1 n=a5 v=0
370800 On ch=1 n=b5 v=57
370800 On ch=1 n=b6 v=59
370832 On ch=1 n=b6 v=0
370832 On ch=1 n=b5 v=0
370920 On ch=1 n=c#6 v=59
370920 On ch=1 n=c#7 v=61
370952 On ch=1 n=c#7 v=0
370952 On ch=1 n=c#6 v=0
371040 On ch=1 n=d#6 v=61
371040 On ch=1 n=d#7 v=63
371072 On ch=1 n=d#7 v=0
371072 On ch=1 n=d#6 v=0
371160 On ch=1 n=e6 v=63
371160 On ch=1 n=e7 v=65
371192 On ch=1 n=e7 v=0
371192 On ch=1 n=e6 v=0
371280 On ch=1 n=c7 v=61
371280 On ch=1 n=a6 v=59
371312 On ch=1 n=a6 v=0
371312 On ch=1 n=c7 v=0
371400 On ch=1 n=f6 v=61
371400 On ch=1 n=f7 v=63
371432 On ch=1 n=f7 v=0
371432 On ch=1 n=f6 v=0
371520 On ch=1 n=d#6 v=57
371520 On ch=1 n=d#7 v=59
371552 On ch=1 n=d#7 v=0
371552 On ch=1 n=d#6 v=0
371640 On ch=1 n=e6 v=62
371640 On ch=1 n=e7 v=64
371672 On ch=1 n=e7 v=0
371672 On ch=1 n=e6 v=0
371760 On ch=1 n=c7 v=60
371760 On ch=1 n=a6 v=58
371792 On ch=1 n=a6 v=0
371792 On ch=1 n=c7 v=0
371880 On ch=1 n=f6 v=60
371880 On ch=1 n=f7 v=62
371912 On ch=1 n=f7 v=0
371912 On ch=1 n=f6 v=0
372000 On ch=1 n=d#6 v=56
372000 On ch=1 n=d#7 v=58
372032 On ch=1 n=d#7 v=0
372032 On ch=1 n=d#6 v=0
372120 On ch=1 n=e7 v=65
372120 On ch=1 n=e6 v=63
372152 On ch=1 n=e6 v=0
372152 On ch=1 n=e7 v=0
372240 On ch=1 n=b6 v=62
372272 On ch=1 n=b6 v=0
372360 On ch=1 n=c#6 v=62
372360 On ch=1 n=c#7 v=64
372392 On ch=1 n=c#7 v=0
372392 On ch=1 n=c#6 v=0
372480 On ch=1 n=d#7 v=66
372480 On ch=1 n=d#6 v=64
372512 On ch=1 n=d#6 v=0
372512 On ch=1 n=d#7 v=0
372600 On ch=1 n=e6 v=66
372600 On ch=1 n=e7 v=68
372632 On ch=1 n=e7 v=0
372632 On ch=1 n=e6 v=0
372720 On ch=1 n=f#7 v=70
372720 On ch=1 n=f#6 v=68
372752 On ch=1 n=f#6 v=0
372752 On ch=1 n=f#7 v=0
372840 On ch=1 n=g#6 v=70
372840 On ch=1 n=g#7 v=72
372872 On ch=1 n=g#7 v=0
372872 On ch=1 n=g#6 v=0
372960 On ch=1 n=a7 v=74
372960 On ch=1 n=a6 v=72
372992 On ch=1 n=a6 v=0
372992 On ch=1 n=a7 v=0
373080 On ch=1 n=b6 v=74
373080 On ch=1 n=b7 v=76
373112 On ch=1 n=b7 v=0
373112 On ch=1 n=b6 v=0
373200 On ch=1 n=e7 v=70
373200 On ch=1 n=g#7 v=72
373232 On ch=1 n=g#7 v=0
373232 On ch=1 n=e7 v=0
373320 On ch=1 n=c#7 v=72
373320 On ch=1 n=c#8 v=74
373352 On ch=1 n=c#8 v=0
373352 On ch=1 n=c#7 v=0
373440 On ch=1 n=a#6 v=68
373440 On ch=1 n=a#7 v=70
373472 On ch=1 n=a#7 v=0
373472 On ch=1 n=a#6 v=0
373560 On ch=1 n=b7 v=75
373560 On ch=1 n=b6 v=73
373592 On ch=1 n=b6 v=0
373592 On ch=1 n=b7 v=0
373680 On ch=1 n=e7 v=69
373680 On ch=1 n=g#7 v=71
373712 On ch=1 n=g#7 v=0
373712 On ch=1 n=e7 v=0
373800 On ch=1 n=c#7 v=71
373800 On ch=1 n=c#8 v=73
373832 On ch=1 n=c#8 v=0
373832 On ch=1 n=c#7 v=0
373920 On ch=1 n=b7 v=69
373920 On ch=1 n=b6 v=67
373952 On ch=1 n=b6 v=0
373952 On ch=1 n=b7 v=0
374040 On ch=1 n=a6 v=73
374040 On ch=1 n=a7 v=75
374072 On ch=1 n=a7 v=0
374072 On ch=1 n=a6 v=0
374160 On ch=1 n=e7 v=72
374192 On ch=1 n=e7 v=0
374280 On ch=1 n=f#7 v=74
374312 On ch=1 n=f#7 v=0
374400 On ch=1 n=g#7 v=76
374432 On ch=1 n=g#7 v=0
374520 On ch=1 n=a6 v=76
374520 On ch=1 n=a7 v=78
374552 On ch=1 n=a7 v=0
374552 On ch=1 n=a6 v=0
374640 On ch=1 n=b6 v=78
374640 On ch=1 n=b7 v=80
374672 On ch=1 n=b7 v=0
374672 On ch=1 n=b6 v=0
374760 On ch=1 n=c#7 v=80
374760 On ch=1 n=c#8 v=82
374792 On ch=1 n=c#8 v=0
374792 On ch=1 n=c#7 v=0
374880 On ch=1 n=d#7 v=82
374880 On ch=1 n=d#8 v=84
374912 On ch=1 n=d#8 v=0
374912 On ch=1 n=d#7 v=0
375000 On ch=1 n=e7 v=84
375000 On ch=1 n=e8 v=86
375032 On ch=1 n=e8 v=0
375032 On ch=1 n=e7 v=0
375120 On ch=1 n=c8 v=82
375120 On ch=1 n=a7 v=80
375152 On ch=1 n=a7 v=0
375152 On ch=1 n=c8 v=0
375240 On ch=1 n=f7 v=82
375240 On ch=1 n=f8 v=84
375272 On ch=1 n=f8 v=0
375272 On ch=1 n=f7 v=0
375360 On ch=1 n=d#7 v=78
375360 On ch=1 n=d#8 v=80
375392 On ch=1 n=d#8 v=0
375392 On ch=1 n=d#7 v=0
375480 On ch=1 n=e7 v=83
375480 On ch=1 n=e8 v=85
375512 On ch=1 n=e8 v=0
375512 On ch=1 n=e7 v=0
375600 On ch=1 n=c8 v=81
375600 On ch=1 n=a7 v=79
375632 On ch=1 n=a7 v=0
375632 On ch=1 n=c8 v=0
375720 On ch=1 n=f7 v=81
375720 On ch=1 n=f8 v=83
375752 On ch=1 n=f8 v=0
375752 On ch=1 n=f7 v=0
375840 On ch=1 n=d#7 v=77
375840 On ch=1 n=d#8 v=79
375872 On ch=1 n=d#8 v=0
375872 On ch=1 n=d#7 v=0
375960 On ch=1 n=e7 v=89
375960 On ch=1 n=e8 v=91
375992 On ch=1 n=e8 v=0
375992 On ch=1 n=e7 v=0
376080 On ch=1 n=c8 v=87
376080 On ch=1 n=a7 v=85
376112 On ch=1 n=a7 v=0
376112 On ch=1 n=c8 v=0
376200 On ch=1 n=f#8 v=89
376200 On ch=1 n=f#7 v=87
376232 On ch=1 n=f#7 v=0
376232 On ch=1 n=f#8 v=0
376320 On ch=1 n=d#7 v=83
376320 On ch=1 n=d#8 v=85
376352 On ch=1 n=d#8 v=0
376352 On ch=1 n=d#7 v=0
376440 On ch=1 n=e7 v=88
376440 On ch=1 n=e8 v=90
376472 On ch=1 n=e8 v=0
376472 On ch=1 n=e7 v=0
376560 On ch=1 n=c8 v=86
376560 On ch=1 n=a7 v=84
376592 On ch=1 n=a7 v=0
376592 On ch=1 n=c8 v=0
376680 On ch=1 n=f#8 v=88
376680 On ch=1 n=f#7 v=86
376712 On ch=1 n=f#7 v=0
376712 On ch=1 n=f#8 v=0
376800 On ch=1 n=d#7 v=82
376800 On ch=1 n=d#8 v=84
376832 On ch=1 n=d#8 v=0
376832 On ch=1 n=d#7 v=0
376920 On ch=1 n=e7 v=79
376920 On ch=1 n=e8 v=77
376952 On ch=1 n=e8 v=0
376952 On ch=1 n=e7 v=0
377040 On ch=1 n=e8 v=78
377040 On ch=1 n=e7 v=75
377072 On ch=1 n=e7 v=0
377072 On ch=1 n=e8 v=0
377160 On ch=1 n=f7 v=81
377160 On ch=1 n=e8 v=79
377192 On ch=1 n=e8 v=0
377192 On ch=1 n=f7 v=0
377280 On ch=1 n=f7 v=82
377280 On ch=1 n=e8 v=80
377312 On ch=1 n=e8 v=0
377312 On ch=1 n=f7 v=0
377400 On ch=1 n=f#7 v=83
377400 On ch=1 n=e8 v=81
377432 On ch=1 n=e8 v=0
377432 On ch=1 n=f#7 v=0
377520 On ch=1 n=f#7 v=84
377520 On ch=1 n=e8 v=82
377552 On ch=1 n=e8 v=0
377552 On ch=1 n=f#7 v=0
377640 On ch=1 n=g7 v=85
377640 On ch=1 n=e8 v=83
377672 On ch=1 n=e8 v=0
377672 On ch=1 n=g7 v=0
377760 On ch=1 n=g7 v=86
377760 On ch=1 n=e8 v=84
377792 On ch=1 n=e8 v=0
377792 On ch=1 n=g7 v=0
377880 On ch=1 n=g#7 v=87
377880 On ch=1 n=e8 v=85
377912 On ch=1 n=e8 v=0
377912 On ch=1 n=g#7 v=0
378000 On ch=1 n=g#7 v=88
378000 On ch=1 n=e8 v=86
378032 On ch=1 n=e8 v=0
378032 On ch=1 n=g#7 v=0
378120 On ch=1 n=a7 v=89
378120 On ch=1 n=e8 v=87
378152 On ch=1 n=e8 v=0
378152 On ch=1 n=a7 v=0
378240 On ch=1 n=a7 v=90
378240 On ch=1 n=e8 v=88
378272 On ch=1 n=e8 v=0
378272 On ch=1 n=a7 v=0
378360 On ch=1 n=a#7 v=91
378360 On ch=1 n=e8 v=89
378392 On ch=1 n=e8 v=0
378392 On ch=1 n=a#7 v=0
378480 On ch=1 n=a#7 v=92
378480 On ch=1 n=e8 v=90
378512 On ch=1 n=e8 v=0
378512 On ch=1 n=a#7 v=0
378600 On ch=1 n=b7 v=93
378600 On ch=1 n=e8 v=91
378632 On ch=1 n=e8 v=0
378632 On ch=1 n=b7 v=0
378720 On ch=1 n=b7 v=94
378720 On ch=1 n=e8 v=92
378752 On ch=1 n=e8 v=0
378752 On ch=1 n=b7 v=0
378840 On ch=1 n=e8 v=40
378840 On ch=1 n=c8 v=38
378872 On ch=1 n=c8 v=0
378872 On ch=1 n=e8 v=0
378960 On ch=1 n=b7 v=37
378960 On ch=1 n=d8 v=39
378992 On ch=1 n=d8 v=0
378992 On ch=1 n=b7 v=0
379080 On ch=1 n=c8 v=38
379080 On ch=1 n=a7 v=36
379112 On ch=1 n=a7 v=0
379112 On ch=1 n=c8 v=0
379200 On ch=1 n=g7 v=35
379200 On ch=1 n=b7 v=37
379232 On ch=1 n=b7 v=0
379232 On ch=1 n=g7 v=0
379320 On ch=1 n=a7 v=39
379320 On ch=1 n=f7 v=37
379352 On ch=1 n=f7 v=0
379352 On ch=1 n=a7 v=0
379440 On ch=1 n=e7 v=36
379440 On ch=1 n=g7 v=38
379472 On ch=1 n=g7 v=0
379472 On ch=1 n=e7 v=0
379560 On ch=1 n=d7 v=35
379560 On ch=1 n=f7 v=37
379592 On ch=1 n=f7 v=0
379592 On ch=1 n=d7 v=0
379680 On ch=1 n=c7 v=34
379680 On ch=1 n=e7 v=36
379712 On ch=1 n=e7 v=0
379712 On ch=1 n=c7 v=0
379800 On ch=1 n=b6 v=38
379800 On ch=1 n=d7 v=40
379832 On ch=1 n=d7 v=0
379832 On ch=1 n=b6 v=0
379920 On ch=1 n=c7 v=39
379920 On ch=1 n=a6 v=37
379952 On ch=1 n=a6 v=0
379952 On ch=1 n=c7 v=0
380040 On ch=1 n=g6 v=36
380040 On ch=1 n=b6 v=38
380072 On ch=1 n=b6 v=0
380072 On ch=1 n=g6 v=0
380160 On ch=1 n=f6 v=35
380160 On ch=1 n=a6 v=37
380192 On ch=1 n=a6 v=0
380192 On ch=1 n=f6 v=0
380280 On ch=1 n=g6 v=39
380280 On ch=1 n=e6 v=37
380312 On ch=1 n=e6 v=0
380312 On ch=1 n=g6 v=0
380400 On ch=1 n=d6 v=36
380400 On ch=1 n=f6 v=38
380432 On ch=1 n=f6 v=0
380432 On ch=1 n=d6 v=0
380520 On ch=1 n=e6 v=37
380520 On ch=1 n=c6 v=35
380552 On ch=1 n=c6 v=0
380552 On ch=1 n=e6 v=0
380640 On ch=1 n=b5 v=34
380640 On ch=1 n=d6 v=36
380672 On ch=1 n=d6 v=0
380672 On ch=1 n=b5 v=0
380760 On ch=1 n=e8 v=40
380760 On ch=1 n=c8 v=38
380792 On ch=1 n=c8 v=0
380792 On ch=1 n=e8 v=0
380880 On ch=1 n=d8 v=39
380880 On ch=1 n=b7 v=37
380912 On ch=1 n=b7 v=0
380912 On ch=1 n=d8 v=0
381000 On ch=1 n=c8 v=38
381000 On ch=1 n=a7 v=36
381032 On ch=1 n=a7 v=0
381032 On ch=1 n=c8 v=0
381120 On ch=1 n=b7 v=37
381120 On ch=1 n=g7 v=35
381152 On ch=1 n=g7 v=0
381152 On ch=1 n=b7 v=0
381240 On ch=1 n=a7 v=39
381240 On ch=1 n=f7 v=37
381272 On ch=1 n=f7 v=0
381272 On ch=1 n=a7 v=0
381360 On ch=1 n=g7 v=38
381360 On ch=1 n=e7 v=36
381392 On ch=1 n=e7 v=0
381392 On ch=1 n=g7 v=0
381480 On ch=1 n=f7 v=37
381480 On ch=1 n=d7 v=35
381512 On ch=1 n=d7 v=0
381512 On ch=1 n=f7 v=0
381600 On ch=1 n=c7 v=34
381600 On ch=1 n=e7 v=36
381632 On ch=1 n=e7 v=0
381632 On ch=1 n=c7 v=0
381720 On ch=1 n=d7 v=40
381720 On ch=1 n=b6 v=38
381752 On ch=1 n=b6 v=0
381752 On ch=1 n=d7 v=0
381840 On ch=1 n=c7 v=39
381840 On ch=1 n=a6 v=37
381872 On ch=1 n=a6 v=0
381872 On ch=1 n=c7 v=0
381960 On ch=1 n=b6 v=38
381960 On ch=1 n=g6 v=36
381992 On ch=1 n=g6 v=0
381992 On ch=1 n=b6 v=0
382080 On ch=1 n=a6 v=37
382080 On ch=1 n=f6 v=35
382112 On ch=1 n=f6 v=0
382112 On ch=1 n=a6 v=0
382200 On ch=1 n=g6 v=39
382200 On ch=1 n=e6 v=37
382232 On ch=1 n=e6 v=0
382232 On ch=1 n=g6 v=0
382320 On ch=1 n=f6 v=38
382320 On ch=1 n=d6 v=36
382352 On ch=1 n=d6 v=0
382352 On ch=1 n=f6 v=0
382440 On ch=1 n=e6 v=37
382440 On ch=1 n=c6 v=35
382472 On ch=1 n=c6 v=0
382472 On ch=1 n=e6 v=0
382560 On ch=1 n=d6 v=36
382560 On ch=1 n=b5 v=34
382592 On ch=1 n=b5 v=0
382592 On ch=1 n=d6 v=0
382680 On ch=1 n=e8 v=40
382680 On ch=1 n=c8 v=38
382712 On ch=1 n=c8 v=0
382712 On ch=1 n=e8 v=0
382800 On ch=1 n=d8 v=39
382800 On ch=1 n=b7 v=37
382832 On ch=1 n=b7 v=0
382832 On ch=1 n=d8 v=0
382920 On ch=1 n=c8 v=38
382920 On ch=1 n=a7 v=36
382952 On ch=1 n=a7 v=0
382952 On ch=1 n=c8 v=0
383040 On ch=1 n=b7 v=37
383040 On ch=1 n=g7 v=35
383072 On ch=1 n=g7 v=0
383072 On ch=1 n=b7 v=0
383160 On ch=1 n=a7 v=39
383160 On ch=1 n=f7 v=37
383192 On ch=1 n=f7 v=0
383192 On ch=1 n=a7 v=0
383280 On ch=1 n=g7 v=38
383280 On ch=1 n=e7 v=36
383312 On ch=1 n=e7 v=0
383312 On ch=1 n=g7 v=0
383400 On ch=1 n=f7 v=37
383400 On ch=1 n=d7 v=35
383432 On ch=1 n=d7 v=0
383432 On ch=1 n=f7 v=0
383520 On ch=1 n=e7 v=36
383520 On ch=1 n=c7 v=34
383552 On ch=1 n=c7 v=0
383552 On ch=1 n=e7 v=0
383760 On ch=1 n=d7 v=39
383760 On ch=1 n=b6 v=37
383792 On ch=1 n=b6 v=0
383792 On ch=1 n=d7 v=0
383880 On ch=1 n=c7 v=38
383880 On ch=1 n=a6 v=36
383912 On ch=1 n=a6 v=0
383912 On ch=1 n=c7 v=0
384000 On ch=1 n=b6 v=37
384000 On ch=1 n=g6 v=35
384032 On ch=1 n=g6 v=0
384032 On ch=1 n=b6 v=0
384120 On ch=1 n=a6 v=39
384120 On ch=1 n=f6 v=37
384152 On ch=1 n=f6 v=0
384152 On ch=1 n=a6 v=0
384240 On ch=1 n=g6 v=38
384240 On ch=1 n=e6 v=36
384272 On ch=1 n=e6 v=0
384272 On ch=1 n=g6 v=0
384360 On ch=1 n=f6 v=37
384360 On ch=1 n=d6 v=35
384392 On ch=1 n=d6 v=0
384392 On ch=1 n=f6 v=0
384480 On ch=1 n=e6 v=36
384480 On ch=1 n=c6 v=34
384512 On ch=1 n=c6 v=0
384512 On ch=1 n=e6 v=0
384600 On ch=1 n=a8 v=40
384600 On ch=1 n=f8 v=38
384632 On ch=1 n=f8 v=0
384632 On ch=1 n=a8 v=0
384720 On ch=1 n=g8 v=39
384720 On ch=1 n=e8 v=37
384752 On ch=1 n=e8 v=0
384752 On ch=1 n=g8 v=0
384840 On ch=1 n=f8 v=38
384840 On ch=1 n=d8 v=36
384872 On ch=1 n=d8 v=0
384872 On ch=1 n=f8 v=0
384960 On ch=1 n=e8 v=37
384960 On ch=1 n=c8 v=35
384992 On ch=1 n=c8 v=0
384992 On ch=1 n=e8 v=0
385080 On ch=1 n=d8 v=39
385080 On ch=1 n=b7 v=37
385112 On ch=1 n=b7 v=0
385112 On ch=1 n=d8 v=0
385200 On ch=1 n=c8 v=38
385200 On ch=1 n=a7 v=36
385232 On ch=1 n=a7 v=0
385232 On ch=1 n=c8 v=0
385320 On ch=1 n=b7 v=37
385320 On ch=1 n=g7 v=35
385352 On ch=1 n=g7 v=0
385352 On ch=1 n=b7 v=0
385440 On ch=1 n=a7 v=36
385440 On ch=1 n=f7 v=34
385472 On ch=1 n=f7 v=0
385472 On ch=1 n=a7 v=0
385680 On ch=1 n=g7 v=39
385680 On ch=1 n=e7 v=37
385712 On ch=1 n=e7 v=0
385712 On ch=1 n=g7 v=0
385800 On ch=1 n=f7 v=38
385800 On ch=1 n=d7 v=36
385832 On ch=1 n=d7 v=0
385832 On ch=1 n=f7 v=0
385920 On ch=1 n=e7 v=37
385920 On ch=1 n=c7 v=35
385952 On ch=1 n=c7 v=0
385952 On ch=1 n=e7 v=0
386040 On ch=1 n=d7 v=39
386040 On ch=1 n=b6 v=37
386072 On ch=1 n=b6 v=0
386072 On ch=1 n=d7 v=0
386160 On ch=1 n=c7 v=38
386160 On ch=1 n=a6 v=36
386192 On ch=1 n=a6 v=0
386192 On ch=1 n=c7 v=0
386280 On ch=1 n=b6 v=37
386280 On ch=1 n=g6 v=35
386312 On ch=1 n=g6 v=0
386312 On ch=1 n=b6 v=0
386400 On ch=1 n=a6 v=36
386400 On ch=1 n=f6 v=34
386432 On ch=1 n=f6 v=0
386432 On ch=1 n=a6 v=0
386520 On ch=1 n=f8 v=40
386520 On ch=1 n=d8 v=38
386552 On ch=1 n=d8 v=0
386552 On ch=1 n=f8 v=0
386640 On ch=1 n=c#8 v=37
386640 On ch=1 n=e8 v=39
386672 On ch=1 n=e8 v=0
386672 On ch=1 n=c#8 v=0
386760 On ch=1 n=a#7 v=36
386760 On ch=1 n=d8 v=38
386792 On ch=1 n=d8 v=0
386792 On ch=1 n=a#7 v=0
386880 On ch=1 n=c#8 v=37
386880 On ch=1 n=a7 v=35
386912 On ch=1 n=a7 v=0
386912 On ch=1 n=c#8 v=0
387000 On ch=1 n=a#7 v=39
387000 On ch=1 n=g7 v=37
387032 On ch=1 n=g7 v=0
387032 On ch=1 n=a#7 v=0
387120 On ch=1 n=a7 v=38
387120 On ch=1 n=f7 v=36
387152 On ch=1 n=f7 v=0
387152 On ch=1 n=a7 v=0
387240 On ch=1 n=g7 v=37
387240 On ch=1 n=e7 v=35
387272 On ch=1 n=e7 v=0
387272 On ch=1 n=g7 v=0
387360 On ch=1 n=f7 v=36
387360 On ch=1 n=d7 v=34
387392 On ch=1 n=d7 v=0
387392 On ch=1 n=f7 v=0
387480 On ch=1 n=c#7 v=38
387480 On ch=1 n=e7 v=40
387512 On ch=1 n=e7 v=0
387512 On ch=1 n=c#7 v=0
387600 On ch=1 n=a#6 v=37
387600 On ch=1 n=d7 v=39
387632 On ch=1 n=d7 v=0
387632 On ch=1 n=a#6 v=0
387720 On ch=1 n=c#7 v=38
387720 On ch=1 n=a6 v=36
387752 On ch=1 n=a6 v=0
387752 On ch=1 n=c#7 v=0
387840 On ch=1 n=a#6 v=37
387840 On ch=1 n=g6 v=35
387872 On ch=1 n=g6 v=0
387872 On ch=1 n=a#6 v=0
387960 On ch=1 n=a6 v=39
387960 On ch=1 n=f6 v=37
387992 On ch=1 n=f6 v=0
387992 On ch=1 n=a6 v=0
388080 On ch=1 n=g6 v=38
388080 On ch=1 n=e6 v=36
388112 On ch=1 n=e6 v=0
388112 On ch=1 n=g6 v=0
388200 On ch=1 n=f6 v=37
388200 On ch=1 n=d6 v=35
388232 On ch=1 n=d6 v=0
388232 On ch=1 n=f6 v=0
388320 On ch=1 n=c#6 v=34
388320 On ch=1 n=e6 v=36
388352 On ch=1 n=e6 v=0
388352 On ch=1 n=c#6 v=0
388440 On ch=1 n=f8 v=40
388440 On ch=1 n=d8 v=38
388472 On ch=1 n=d8 v=0
388472 On ch=1 n=f8 v=0
388560 On ch=1 n=c#8 v=37
388560 On ch=1 n=e8 v=39
388592 On ch=1 n=e8 v=0
388592 On ch=1 n=c#8 v=0
388680 On ch=1 n=a#7 v=36
388680 On ch=1 n=d8 v=38
388712 On ch=1 n=d8 v=0
388712 On ch=1 n=a#7 v=0
388800 On ch=1 n=c#8 v=37
388800 On ch=1 n=a7 v=35
388832 On ch=1 n=a7 v=0
388832 On ch=1 n=c#8 v=0
388920 On ch=1 n=a#7 v=39
388920 On ch=1 n=g7 v=37
388952 On ch=1 n=g7 v=0
388952 On ch=1 n=a#7 v=0
389040 On ch=1 n=a7 v=38
389040 On ch=1 n=f7 v=36
389072 On ch=1 n=f7 v=0
389072 On ch=1 n=a7 v=0
389160 On ch=1 n=g7 v=37
389160 On ch=1 n=e7 v=35
389192 On ch=1 n=e7 v=0
389192 On ch=1 n=g7 v=0
389280 On ch=1 n=f7 v=36
389280 On ch=1 n=d7 v=34
389312 On ch=1 n=d7 v=0
389312 On ch=1 n=f7 v=0
389400 On ch=1 n=c#7 v=38
389400 On ch=1 n=e7 v=40
389432 On ch=1 n=e7 v=0
389432 On ch=1 n=c#7 v=0
389520 On ch=1 n=a#6 v=37
389520 On ch=1 n=d7 v=39
389552 On ch=1 n=d7 v=0
389552 On ch=1 n=a#6 v=0
389640 On ch=1 n=c#7 v=38
389640 On ch=1 n=a6 v=36
389672 On ch=1 n=a6 v=0
389672 On ch=1 n=c#7 v=0
389760 On ch=1 n=a#6 v=37
389760 On ch=1 n=g6 v=35
389792 On ch=1 n=g6 v=0
389792 On ch=1 n=a#6 v=0
389880 On ch=1 n=a6 v=39
389880 On ch=1 n=f6 v=37
389912 On ch=1 n=f6 v=0
389912 On ch=1 n=a6 v=0
390000 On ch=1 n=g6 v=38
390000 On ch=1 n=e6 v=36
390032 On ch=1 n=e6 v=0
390032 On ch=1 n=g6 v=0
390120 On ch=1 n=f6 v=37
390120 On ch=1 n=d6 v=35
390152 On ch=1 n=d6 v=0
390152 On ch=1 n=f6 v=0
390240 On ch=1 n=c#6 v=34
390240 On ch=1 n=e6 v=36
390272 On ch=1 n=e6 v=0
390272 On ch=1 n=c#6 v=0
390360 On ch=1 n=f8 v=40
390360 On ch=1 n=d8 v=38
390392 On ch=1 n=d8 v=0
390392 On ch=1 n=f8 v=0
390480 On ch=1 n=c#8 v=37
390480 On ch=1 n=e8 v=39
390512 On ch=1 n=e8 v=0
390512 On ch=1 n=c#8 v=0
390600 On ch=1 n=a#7 v=36
390600 On ch=1 n=d8 v=38
390632 On ch=1 n=d8 v=0
390632 On ch=1 n=a#7 v=0
390720 On ch=1 n=c#8 v=37
390720 On ch=1 n=a7 v=35
390752 On ch=1 n=a7 v=0
390752 On ch=1 n=c#8 v=0
390840 On ch=1 n=a#7 v=39
390840 On ch=1 n=g7 v=37
390872 On ch=1 n=g7 v=0
390872 On ch=1 n=a#7 v=0
390960 On ch=1 n=a7 v=38
390960 On ch=1 n=f7 v=36
390992 On ch=1 n=f7 v=0
390992 On ch=1 n=a7 v=0
391080 On ch=1 n=g7 v=37
391080 On ch=1 n=e7 v=35
391112 On ch=1 n=e7 v=0
391112 On ch=1 n=g7 v=0
391200 On ch=1 n=f7 v=36
391200 On ch=1 n=d7 v=34
391232 On ch=1 n=d7 v=0
391232 On ch=1 n=f7 v=0
391440 On ch=1 n=c#7 v=37
391440 On ch=1 n=e7 v=39
391472 On ch=1 n=e7 v=0
391472 On ch=1 n=c#7 v=0
391560 On ch=1 n=a#6 v=36
391560 On ch=1 n=d7 v=38
391592 On ch=1 n=d7 v=0
391592 On ch=1 n=a#6 v=0
391680 On ch=1 n=c#7 v=37
391680 On ch=1 n=a6 v=35
391712 On ch=1 n=a6 v=0
391712 On ch=1 n=c#7 v=0
391800 On ch=1 n=a#6 v=39
391800 On ch=1 n=g6 v=37
391832 On ch=1 n=g6 v=0
391832 On ch=1 n=a#6 v=0
391920 On ch=1 n=a6 v=38
391920 On ch=1 n=f6 v=36
391952 On ch=1 n=f6 v=0
391952 On ch=1 n=a6 v=0
392040 On ch=1 n=g6 v=37
392040 On ch=1 n=e6 v=35
392072 On ch=1 n=e6 v=0
392072 On ch=1 n=g6 v=0
392160 On ch=1 n=f6 v=36
392160 On ch=1 n=d6 v=34
392192 On ch=1 n=d6 v=0
392192 On ch=1 n=f6 v=0
392280 On ch=1 n=f8 v=40
392280 On ch=1 n=d8 v=38
392312 On ch=1 n=d8 v=0
392312 On ch=1 n=f8 v=0
392400 On ch=1 n=c#8 v=37
392400 On ch=1 n=e8 v=39
392432 On ch=1 n=e8 v=0
392432 On ch=1 n=c#8 v=0
392520 On ch=1 n=d#8 v=38
392520 On ch=1 n=c8 v=36
392552 On ch=1 n=c8 v=0
392552 On ch=1 n=d#8 v=0
392640 On ch=1 n=b7 v=35
392640 On ch=1 n=d8 v=37
392672 On ch=1 n=d8 v=0
392672 On ch=1 n=b7 v=0
392760 On ch=1 n=a#7 v=37
392760 On ch=1 n=c#8 v=39
392792 On ch=1 n=c#8 v=0
392792 On ch=1 n=a#7 v=0
392880 On ch=1 n=c8 v=38
392880 On ch=1 n=a7 v=36
392912 On ch=1 n=a7 v=0
392912 On ch=1 n=c8 v=0
393000 On ch=1 n=g#7 v=35
393000 On ch=1 n=b7 v=37
393032 On ch=1 n=b7 v=0
393032 On ch=1 n=g#7 v=0
393120 On ch=1 n=a#7 v=36
393120 On ch=1 n=g7 v=34
393152 On ch=1 n=g7 v=0
393152 On ch=1 n=a#7 v=0
393240 On ch=1 n=f#7 v=38
393240 On ch=1 n=a7 v=40
393240 Par ch=1 c=64 v=127
393272 On ch=1 n=a7 v=0
393272 On ch=1 n=f#7 v=0
393360 On ch=1 n=g#7 v=39
393360 On ch=1 n=f7 v=37
393392 On ch=1 n=f7 v=0
393392 On ch=1 n=g#7 v=0
393480 On ch=1 n=g7 v=38
393480 On ch=1 n=e7 v=36
393512 On ch=1 n=e7 v=0
393512 On ch=1 n=g7 v=0
393600 On ch=1 n=f#7 v=37
393600 On ch=1 n=d#7 v=35
393632 On ch=1 n=d#7 v=0
393632 On ch=1 n=f#7 v=0
393720 On ch=1 n=f7 v=39
393720 On ch=1 n=d7 v=37
393752 On ch=1 n=d7 v=0
393752 On ch=1 n=f7 v=0
393840 On ch=1 n=c#7 v=36
393840 On ch=1 n=e7 v=38
393872 On ch=1 n=e7 v=0
393872 On ch=1 n=c#7 v=0
393960 On ch=1 n=f7 v=37
393960 On ch=1 n=d7 v=35
393992 On ch=1 n=d7 v=0
393992 On ch=1 n=f7 v=0
394080 On ch=1 n=d#7 v=36
394080 On ch=1 n=c7 v=34
394112 On ch=1 n=c7 v=0
394112 On ch=1 n=d#7 v=0
394200 On ch=1 n=c#7 v=38
394200 On ch=1 n=e7 v=40
394232 On ch=1 n=e7 v=0
394232 On ch=1 n=c#7 v=0
394320 On ch=1 n=b6 v=37
394320 On ch=1 n=d7 v=39
394352 On ch=1 n=d7 v=0
394352 On ch=1 n=b6 v=0
394440 On ch=1 n=d#7 v=38
394440 On ch=1 n=c7 v=36
394472 On ch=1 n=c7 v=0
394472 On ch=1 n=d#7 v=0
394560 On ch=1 n=a#6 v=35
394560 On ch=1 n=c#7 v=37
394592 On ch=1 n=c#7 v=0
394592 On ch=1 n=a#6 v=0
394680 On ch=1 n=d7 v=39
394680 On ch=1 n=b6 v=37
394712 On ch=1 n=b6 v=0
394712 On ch=1 n=d7 v=0
394800 On ch=1 n=c7 v=38
394800 On ch=1 n=a6 v=36
394832 On ch=1 n=a6 v=0
394832 On ch=1 n=c7 v=0
394920 On ch=1 n=a#6 v=35
394920 On ch=1 n=c#7 v=37
394952 On ch=1 n=c#7 v=0
394952 On ch=1 n=a#6 v=0
395040 On ch=1 n=g#6 v=34
395040 On ch=1 n=b6 v=36
395072 On ch=1 n=b6 v=0
395072 On ch=1 n=g#6 v=0
395160 On ch=1 n=c7 v=40
395160 On ch=1 n=a6 v=38
395192 On ch=1 n=a6 v=0
395192 On ch=1 n=c7 v=0
395280 On ch=1 n=g6 v=37
395280 On ch=1 n=a#6 v=39
395312 On ch=1 n=a#6 v=0
395312 On ch=1 n=g6 v=0
395400 On ch=1 n=g#6 v=36
395400 On ch=1 n=b6 v=38
395432 On ch=1 n=b6 v=0
395432 On ch=1 n=g#6 v=0
395520 On ch=1 n=f#6 v=35
395520 On ch=1 n=a6 v=37
395552 On ch=1 n=a6 v=0
395552 On ch=1 n=f#6 v=0
395640 On ch=1 n=a#6 v=39
395640 On ch=1 n=g6 v=37
395672 On ch=1 n=g6 v=0
395672 On ch=1 n=a#6 v=0
395760 On ch=1 n=g#6 v=38
395760 On ch=1 n=f6 v=36
395792 On ch=1 n=f6 v=0
395792 On ch=1 n=g#6 v=0
395880 On ch=1 n=f#6 v=35
395880 On ch=1 n=a6 v=37
395912 On ch=1 n=a6 v=0
395912 On ch=1 n=f#6 v=0
396000 On ch=1 n=g6 v=36
396000 On ch=1 n=e6 v=34
396032 On ch=1 n=e6 v=0
396032 On ch=1 n=g6 v=0
396120 On ch=1 n=f6 v=38
396120 On ch=1 n=g#6 v=40
396152 On ch=1 n=g#6 v=0
396152 On ch=1 n=f6 v=0
396240 On ch=1 n=f#6 v=39
396240 On ch=1 n=d#6 v=37
396272 On ch=1 n=d#6 v=0
396272 On ch=1 n=f#6 v=0
396360 On ch=1 n=e6 v=36
396360 On ch=1 n=g6 v=38
396392 On ch=1 n=g6 v=0
396392 On ch=1 n=e6 v=0
396480 On ch=1 n=f6 v=37
396480 On ch=1 n=d6 v=35
396512 On ch=1 n=d6 v=0
396512 On ch=1 n=f6 v=0
396600 On ch=1 n=d#6 v=37
396600 On ch=1 n=f#6 v=39
396632 On ch=1 n=f#6 v=0
396632 On ch=1 n=d#6 v=0
396720 On ch=1 n=c#6 v=36
396720 On ch=1 n=e6 v=38
396752 On ch=1 n=e6 v=0
396752 On ch=1 n=c#6 v=0
396840 On ch=1 n=d6 v=35
396840 On ch=1 n=f6 v=37
396840 Par ch=1 c=64 v=0
396861 On ch=1 n=f6 v=0
396861 On ch=1 n=d6 v=0
396960 Par ch=1 c=64 v=127
397000 On ch=1 n=a5 v=22
397000 On ch=1 n=c#6 v=24
397072 On ch=1 n=c#6 v=0
397072 On ch=1 n=a5 v=0
397080 On ch=1 n=d6 v=25
397080 On ch=1 n=a#5 v=23
397152 On ch=1 n=a#5 v=0
397152 On ch=1 n=d6 v=0
397160 On ch=1 n=b5 v=24
397160 On ch=1 n=d#6 v=26
397232 On ch=1 n=d#6 v=0
397232 On ch=1 n=b5 v=0
397240 On ch=1 n=e6 v=27
397240 On ch=1 n=c6 v=25
397312 On ch=1 n=c6 v=0
397312 On ch=1 n=e6 v=0
397320 On ch=1 n=f6 v=28
397320 On ch=1 n=c#6 v=26
397392 On ch=1 n=c#6 v=0
397392 On ch=1 n=f6 v=0
397400 On ch=1 n=d6 v=27
397400 On ch=1 n=f#6 v=29
397472 On ch=1 n=f#6 v=0
397472 On ch=1 n=d6 v=0
397480 On ch=1 n=g6 v=30
397480 On ch=1 n=d#6 v=28
397552 On ch=1 n=d#6 v=0
397552 On ch=1 n=g6 v=0
397560 On ch=1 n=e6 v=29
397560 On ch=1 n=g#6 v=31
397632 On ch=1 n=g#6 v=0
397632 On ch=1 n=e6 v=0
397640 On ch=1 n=f6 v=30
397640 On ch=1 n=a6 v=32
397712 On ch=1 n=a6 v=0
397712 On ch=1 n=f6 v=0
397720 On ch=1 n=f#6 v=31
397720 On ch=1 n=a#6 v=33
397792 On ch=1 n=a#6 v=0
397792 On ch=1 n=f#6 v=0
397800 On ch=1 n=g6 v=32
397800 On ch=1 n=b6 v=34
397872 On ch=1 n=b6 v=0
397872 On ch=1 n=g6 v=0
397880 On ch=1 n=c7 v=35
397880 On ch=1 n=g#6 v=33
397952 On ch=1 n=g#6 v=0
397952 On ch=1 n=c7 v=0
397960 On ch=1 n=a6 v=34
397960 On ch=1 n=c#7 v=36
398032 On ch=1 n=c#7 v=0
398032 On ch=1 n=a6 v=0
398040 On ch=1 n=d7 v=37
398040 On ch=1 n=a#6 v=35
398112 On ch=1 n=a#6 v=0
398112 On ch=1 n=d7 v=0
398120 On ch=1 n=b6 v=36
398120 On ch=1 n=d#7 v=38
398192 On ch=1 n=d#7 v=0
398192 On ch=1 n=b6 v=0
398200 On ch=1 n=e7 v=39
398200 On ch=1 n=c7 v=37
398272 On ch=1 n=c7 v=0
398272 On ch=1 n=e7 v=0
398280 On ch=1 n=f7 v=40
398280 On ch=1 n=c#7 v=38
398352 On ch=1 n=c#7 v=0
398352 On ch=1 n=f7 v=0
398360 On ch=1 n=d7 v=39
398360 On ch=1 n=f#7 v=41
398432 On ch=1 n=f#7 v=0
398432 On ch=1 n=d7 v=0
398440 On ch=1 n=d#7 v=40
398440 On ch=1 n=g7 v=42
398512 On ch=1 n=g7 v=0
398512 On ch=1 n=d#7 v=0
398520 On ch=1 n=e7 v=41
398520 On ch=1 n=g#7 v=43
398592 On ch=1 n=g#7 v=0
398592 On ch=1 n=e7 v=0
398600 On ch=1 n=f7 v=42
398600 On ch=1 n=a7 v=44
398672 On ch=1 n=a7 v=0
398672 On ch=1 n=f7 v=0
398680 On ch=1 n=f#7 v=43
398680 On ch=1 n=a#7 v=45
398752 On ch=1 n=a#7 v=0
398752 On ch=1 n=f#7 v=0
398760 On ch=1 n=g7 v=44
398760 On ch=1 n=b7 v=46
398832 On ch=1 n=b7 v=0
398832 On ch=1 n=g7 v=0
398840 On ch=1 n=c8 v=47
398840 On ch=1 n=g#7 v=45
398912 On ch=1 n=g#7 v=0
398912 On ch=1 n=c8 v=0
398920 On ch=1 n=a7 v=46
398920 On ch=1 n=c#8 v=48
398992 On ch=1 n=c#8 v=0
398992 On ch=1 n=a7 v=0
399000 On ch=1 n=a#7 v=47
399000 On ch=1 n=d8 v=49
399000 Par ch=1 c=64 v=0
399064 On ch=1 n=d8 v=0
399064 On ch=1 n=a#7 v=0
400200 On ch=1 n=a#5 v=44
400232 On ch=1 n=a#5 v=0
400320 On ch=1 n=a#5 v=42
400352 On ch=1 n=a#5 v=0
400440 On ch=1 n=a#5 v=43
400472 On ch=1 n=a#5 v=0
400560 On ch=1 n=a#5 v=41
400592 On ch=1 n=a#5 v=0
400680 On ch=1 n=a#5 v=42
400712 On ch=1 n=a#5 v=0
400800 On ch=1 n=a#5 v=40
400832 On ch=1 n=a#5 v=0
400920 On ch=1 n=f#5 v=45
400952 On ch=1 n=f#5 v=0
401040 On ch=1 n=a#5 v=41
401040 On ch=1 n=a#6 v=48
401072 On ch=1 n=a#6 v=0
401072 On ch=1 n=a#5 v=0
401160 On ch=1 n=a#5 v=44
401192 On ch=1 n=a#5 v=0
401280 On ch=1 n=d#6 v=40
401280 On ch=1 n=a#6 v=42
401312 On ch=1 n=a#6 v=0
401312 On ch=1 n=d#6 v=0
401400 On ch=1 n=d#6 v=43
401432 On ch=1 n=d#6 v=0
401520 On ch=1 n=d#6 v=39
401520 On ch=1 n=a#6 v=41
401552 On ch=1 n=a#6 v=0
401552 On ch=1 n=d#6 v=0
401640 On ch=1 n=a#5 v=42
401672 On ch=1 n=a#5 v=0
401760 On ch=1 n=a#5 v=38
401760 On ch=1 n=b6 v=45
401792 On ch=1 n=b6 v=0
401792 On ch=1 n=a#5 v=0
401880 On ch=1 n=f5 v=45
401912 On ch=1 n=f5 v=0
402000 On ch=1 n=a#5 v=41
402000 On ch=1 n=a#6 v=48
402032 On ch=1 n=a#6 v=0
402032 On ch=1 n=a#5 v=0
402120 On ch=1 n=a#5 v=44
402152 On ch=1 n=a#5 v=0
402240 On ch=1 n=a#6 v=42
402240 On ch=1 n=d6 v=40
402272 On ch=1 n=d6 v=0
402272 On ch=1 n=a#6 v=0
402360 On ch=1 n=d6 v=43
402392 On ch=1 n=d6 v=0
402480 On ch=1 n=a#6 v=41
402480 On ch=1 n=d6 v=39
402512 On ch=1 n=d6 v=0
402512 On ch=1 n=a#6 v=0
402600 On ch=1 n=a#5 v=42
402632 On ch=1 n=a#5 v=0
402720 On ch=1 n=a#5 v=38
402720 On ch=1 n=g#6 v=45
402752 On ch=1 n=g#6 v=0
402752 On ch=1 n=a#5 v=0
402840 On ch=1 n=d#5 v=45
402872 On ch=1 n=d#5 v=0
402960 On ch=1 n=g5 v=41
402960 On ch=1 n=g6 v=48
402992 On ch=1 n=g6 v=0
402992 On ch=1 n=g5 v=0
403080 On ch=1 n=g5 v=44
403112 On ch=1 n=g5 v=0
403200 On ch=1 n=a#5 v=40
403200 On ch=1 n=g6 v=42
403232 On ch=1 n=g6 v=0
403232 On ch=1 n=a#5 v=0
403320 On ch=1 n=d5 v=43
403352 On ch=1 n=d5 v=0
403440 On ch=1 n=g5 v=39
403440 On ch=1 n=g6 v=41
403472 On ch=1 n=g6 v=0
403472 On ch=1 n=g5 v=0
403560 On ch=1 n=g5 v=42
403592 On ch=1 n=g5 v=0
403680 On ch=1 n=b5 v=38
403680 On ch=1 n=f6 v=45
403712 On ch=1 n=f6 v=0
403712 On ch=1 n=b5 v=0
403800 On ch=1 n=c5 v=45
403832 On ch=1 n=c5 v=0
403920 On ch=1 n=d#6 v=48
403920 On ch=1 n=g5 v=41
403952 On ch=1 n=g5 v=0
403952 On ch=1 n=d#6 v=0
404040 On ch=1 n=g5 v=44
404072 On ch=1 n=g5 v=0
404160 On ch=1 n=d6 v=47
404160 On ch=1 n=g5 v=40
404192 On ch=1 n=g5 v=0
404192 On ch=1 n=d6 v=0
404280 On ch=1 n=d#5 v=43
404312 On ch=1 n=d#5 v=0
404400 On ch=1 n=g5 v=39
404400 On ch=1 n=c6 v=46
404432 On ch=1 n=c6 v=0
404432 On ch=1 n=g5 v=0
404520 On ch=1 n=g5 v=42
404552 On ch=1 n=g5 v=0
404640 On ch=1 n=g5 v=38
404640 On ch=1 n=d6 v=45
404672 On ch=1 n=d6 v=0
404672 On ch=1 n=g5 v=0
404760 On ch=1 n=g4 v=45
404792 On ch=1 n=g4 v=0
404880 On ch=1 n=d#6 v=48
404880 On ch=1 n=g5 v=41
404912 On ch=1 n=g5 v=0
404912 On ch=1 n=d#6 v=0
405000 On ch=1 n=g5 v=44
405032 On ch=1 n=g5 v=0
405120 On ch=1 n=c6 v=40
405120 On ch=1 n=e6 v=47
405152 On ch=1 n=e6 v=0
405152 On ch=1 n=c6 v=0
405240 On ch=1 n=d#5 v=43
405272 On ch=1 n=d#5 v=0
405360 On ch=1 n=f6 v=46
405360 On ch=1 n=g5 v=39
405392 On ch=1 n=g5 v=0
405392 On ch=1 n=f6 v=0
405480 On ch=1 n=g5 v=42
405512 On ch=1 n=g5 v=0
405600 On ch=1 n=f#6 v=45
405600 On ch=1 n=c6 v=38
405632 On ch=1 n=c6 v=0
405632 On ch=1 n=f#6 v=0
405720 On ch=1 n=g4 v=45
405752 On ch=1 n=g4 v=0
405840 On ch=1 n=g6 v=48
405840 On ch=1 n=b5 v=41
405872 On ch=1 n=b5 v=0
405872 On ch=1 n=g6 v=0
405960 On ch=1 n=g5 v=42
405960 On ch=1 n=b5 v=44
405992 On ch=1 n=b5 v=0
405992 On ch=1 n=g5 v=0
406080 On ch=1 n=d6 v=40
406080 On ch=1 n=g#6 v=47
406112 On ch=1 n=g#6 v=0
406112 On ch=1 n=d6 v=0
406200 On ch=1 n=f5 v=43
406232 On ch=1 n=f5 v=0
406320 On ch=1 n=b5 v=39
406320 On ch=1 n=a6 v=46
406352 On ch=1 n=a6 v=0
406352 On ch=1 n=b5 v=0
406440 On ch=1 n=g5 v=40
406440 On ch=1 n=b5 v=42
406472 On ch=1 n=b5 v=0
406472 On ch=1 n=g5 v=0
406560 On ch=1 n=d6 v=38
406560 On ch=1 n=b6 v=45
406592 On ch=1 n=b6 v=0
406592 On ch=1 n=d6 v=0
406680 On ch=1 n=c5 v=45
406712 On ch=1 n=c5 v=0
406800 On ch=1 n=d#6 v=41
406800 On ch=1 n=c7 v=48
406832 On ch=1 n=c7 v=0
406832 On ch=1 n=d#6 v=0
406920 On ch=1 n=g5 v=42
406920 On ch=1 n=c6 v=44
406952 On ch=1 n=c6 v=0
406952 On ch=1 n=g5 v=0
407040 On ch=1 n=c#7 v=42
407040 On ch=1 n=g6 v=40
407072 On ch=1 n=g6 v=0
407072 On ch=1 n=c#7 v=0
407160 On ch=1 n=d#5 v=43
407192 On ch=1 n=d#5 v=0
407280 On ch=1 n=d#6 v=39
407280 On ch=1 n=d7 v=41
407312 On ch=1 n=d7 v=0
407312 On ch=1 n=d#6 v=0
407400 On ch=1 n=g5 v=40
407400 On ch=1 n=c6 v=42
407432 On ch=1 n=c6 v=0
407432 On ch=1 n=g5 v=0
407520 On ch=1 n=d#7 v=40
407520 On ch=1 n=g6 v=38
407552 On ch=1 n=g6 v=0
407552 On ch=1 n=d#7 v=0
407640 On ch=1 n=g5 v=45
407672 On ch=1 n=g5 v=0
407760 On ch=1 n=e7 v=43
407760 On ch=1 n=g6 v=41
407792 On ch=1 n=g6 v=0
407792 On ch=1 n=e7 v=0
407880 On ch=1 n=d#6 v=44
407880 On ch=1 n=c6 v=42
407912 On ch=1 n=c6 v=0
407912 On ch=1 n=d#6 v=0
408000 On ch=1 n=c7 v=40
408000 On ch=1 n=f7 v=42
408032 On ch=1 n=f7 v=0
408032 On ch=1 n=c7 v=0
408120 On ch=1 n=c6 v=43
408152 On ch=1 n=c6 v=0
408240 On ch=1 n=f#7 v=41
408240 On ch=1 n=g6 v=39
408272 On ch=1 n=g6 v=0
408272 On ch=1 n=f#7 v=0
408360 On ch=1 n=d#6 v=40
408360 On ch=1 n=g6 v=42
408392 On ch=1 n=g6 v=0
408392 On ch=1 n=d#6 v=0
408480 On ch=1 n=c7 v=38
408480 On ch=1 n=g7 v=40
408512 On ch=1 n=g7 v=0
408512 On ch=1 n=c7 v=0
408600 On ch=1 n=g5 v=45
408632 On ch=1 n=g5 v=0
408720 On ch=1 n=a#6 v=41
408720 On ch=1 n=a#7 v=48
408752 On ch=1 n=a#7 v=0
408752 On ch=1 n=a#6 v=0
408840 On ch=1 n=a#6 v=44
408840 On ch=1 n=g6 v=42
408872 On ch=1 n=g6 v=0
408872 On ch=1 n=a#6 v=0
408960 On ch=1 n=d#7 v=40
408960 On ch=1 n=a#7 v=42
408992 On ch=1 n=a#7 v=0
408992 On ch=1 n=d#7 v=0
409080 On ch=1 n=d#6 v=43
409112 On ch=1 n=d#6 v=0
409200 On ch=1 n=a#6 v=39
409200 On ch=1 n=a#7 v=41
409232 On ch=1 n=a#7 v=0
409232 On ch=1 n=a#6 v=0
409320 On ch=1 n=a#6 v=42
409320 On ch=1 n=g6 v=40
409352 On ch=1 n=g6 v=0
409352 On ch=1 n=a#6 v=0
409440 On ch=1 n=d#7 v=38
409440 On ch=1 n=c8 v=45
409472 On ch=1 n=c8 v=0
409472 On ch=1 n=d#7 v=0
409560 On ch=1 n=f5 v=45
409592 On ch=1 n=f5 v=0
409680 On ch=1 n=a#6 v=41
409680 On ch=1 n=a#7 v=48
409712 On ch=1 n=a#7 v=0
409712 On ch=1 n=a#6 v=0
409800 On ch=1 n=g#6 v=42
409800 On ch=1 n=a#6 v=44
409832 On ch=1 n=a#6 v=0
409832 On ch=1 n=g#6 v=0
409920 On ch=1 n=a#7 v=42
409920 On ch=1 n=d7 v=40
409952 On ch=1 n=d7 v=0
409952 On ch=1 n=a#7 v=0
410040 On ch=1 n=d6 v=43
410072 On ch=1 n=d6 v=0
410160 On ch=1 n=a#6 v=39
410160 On ch=1 n=a#7 v=41
410192 On ch=1 n=a#7 v=0
410192 On ch=1 n=a#6 v=0
410280 On ch=1 n=g#6 v=40
410280 On ch=1 n=a#6 v=42
410312 On ch=1 n=a#6 v=0
410312 On ch=1 n=g#6 v=0
410400 On ch=1 n=g#7 v=45
410400 On ch=1 n=d7 v=38
410432 On ch=1 n=d7 v=0
410432 On ch=1 n=g#7 v=0
410520 On ch=1 n=d#5 v=45
410552 On ch=1 n=d#5 v=0
410640 On ch=1 n=g6 v=41
410640 On ch=1 n=g7 v=48
410672 On ch=1 n=g7 v=0
410672 On ch=1 n=g6 v=0
410760 On ch=1 n=a#5 v=42
410760 On ch=1 n=g6 v=44
410792 On ch=1 n=g6 v=0
410792 On ch=1 n=a#5 v=0
410880 On ch=1 n=a#6 v=40
410880 On ch=1 n=g7 v=42
410912 On ch=1 n=g7 v=0
410912 On ch=1 n=a#6 v=0
411000 On ch=1 n=d5 v=43
411032 On ch=1 n=d5 v=0
411120 On ch=1 n=g6 v=39
411120 On ch=1 n=g7 v=41
411152 On ch=1 n=g7 v=0
411152 On ch=1 n=g6 v=0
411240 On ch=1 n=b5 v=40
411240 On ch=1 n=f6 v=42
411272 On ch=1 n=f6 v=0
411272 On ch=1 n=b5 v=0
411360 On ch=1 n=f7 v=45
411360 On ch=1 n=b6 v=38
411392 On ch=1 n=b6 v=0
411392 On ch=1 n=f7 v=0
411480 On ch=1 n=c5 v=45
411512 On ch=1 n=c5 v=0
411600 On ch=1 n=d#6 v=41
411600 On ch=1 n=d#7 v=48
411632 On ch=1 n=d#7 v=0
411632 On ch=1 n=d#6 v=0
411720 On ch=1 n=d#6 v=44
411720 On ch=1 n=c6 v=42
411752 On ch=1 n=c6 v=0
411752 On ch=1 n=d#6 v=0
411840 On ch=1 n=g6 v=40
411840 On ch=1 n=d7 v=47
411872 On ch=1 n=d7 v=0
411872 On ch=1 n=g6 v=0
411960 On ch=1 n=g5 v=43
411992 On ch=1 n=g5 v=0
412080 On ch=1 n=d#6 v=39
412080 On ch=1 n=c7 v=46
412112 On ch=1 n=c7 v=0
412112 On ch=1 n=d#6 v=0
412200 On ch=1 n=d#6 v=42
412200 On ch=1 n=c6 v=40
412232 On ch=1 n=c6 v=0
412232 On ch=1 n=d#6 v=0
412320 On ch=1 n=d#7 v=45
412320 On ch=1 n=g6 v=38
412352 On ch=1 n=g6 v=0
412352 On ch=1 n=d#7 v=0
412440 On ch=1 n=b4 v=45
412472 On ch=1 n=b4 v=0
412560 On ch=1 n=g6 v=41
412560 On ch=1 n=g7 v=48
412592 On ch=1 n=g7 v=0
412592 On ch=1 n=g6 v=0
412680 On ch=1 n=e6 v=42
412680 On ch=1 n=g6 v=44
412712 On ch=1 n=g6 v=0
412712 On ch=1 n=e6 v=0
412800 On ch=1 n=f#7 v=47
412800 On ch=1 n=b6 v=40
412832 On ch=1 n=b6 v=0
412832 On ch=1 n=f#7 v=0
412920 On ch=1 n=b5 v=43
412952 On ch=1 n=b5 v=0
413040 On ch=1 n=g6 v=39
413040 On ch=1 n=f7 v=46
413072 On ch=1 n=f7 v=0
413072 On ch=1 n=g6 v=0
413160 On ch=1 n=e6 v=40
413160 On ch=1 n=g6 v=42
413192 On ch=1 n=g6 v=0
413192 On ch=1 n=e6 v=0
413280 On ch=1 n=b6 v=38
413280 On ch=1 n=e7 v=45
413312 On ch=1 n=e7 v=0
413312 On ch=1 n=b6 v=0
413400 On ch=1 n=a5 v=45
413432 On ch=1 n=a5 v=0
413520 On ch=1 n=d#6 v=41
413520 On ch=1 n=d#7 v=48
413552 On ch=1 n=d#7 v=0
413552 On ch=1 n=d#6 v=0
413640 On ch=1 n=d#6 v=44
413640 On ch=1 n=b5 v=42
413672 On ch=1 n=b5 v=0
413672 On ch=1 n=d#6 v=0
413760 On ch=1 n=f#6 v=40
413760 On ch=1 n=c7 v=47
413792 On ch=1 n=c7 v=0
413792 On ch=1 n=f#6 v=0
413880 On ch=1 n=f#5 v=43
413912 On ch=1 n=f#5 v=0
414000 On ch=1 n=d#6 v=39
414000 On ch=1 n=a#6 v=46
414032 On ch=1 n=a#6 v=0
414032 On ch=1 n=d#6 v=0
414120 On ch=1 n=d#5 v=38
414120 On ch=1 n=a5 v=40
414120 On ch=1 n=b5 v=42
414152 On ch=1 n=b5 v=0
414152 On ch=1 n=a5 v=0
414152 On ch=1 n=d#5 v=0
414240 On ch=1 n=f#6 v=38
414240 On ch=1 n=b6 v=45
414272 On ch=1 n=b6 v=0
414272 On ch=1 n=f#6 v=0
414360 On ch=1 n=b4 v=45
414360 Par ch=1 c=64 v=127
414392 On ch=1 n=b4 v=0
414480 On ch=1 n=g5 v=41
414480 On ch=1 n=g6 v=43
414512 On ch=1 n=g6 v=0
414512 On ch=1 n=g5 v=0
414600 On ch=1 n=e5 v=42
414600 On ch=1 n=g5 v=44
414632 On ch=1 n=g5 v=0
414632 On ch=1 n=e5 v=0
414720 On ch=1 n=f#6 v=42
414720 On ch=1 n=b5 v=40
414752 On ch=1 n=b5 v=0
414752 On ch=1 n=f#6 v=0
414840 On ch=1 n=b4 v=49
414872 On ch=1 n=b4 v=0
414960 On ch=1 n=g5 v=45
414960 On ch=1 n=f6 v=47
414992 On ch=1 n=f6 v=0
414992 On ch=1 n=g5 v=0
415080 On ch=1 n=e5 v=46
415080 On ch=1 n=g5 v=48
415112 On ch=1 n=g5 v=0
415112 On ch=1 n=e5 v=0
415200 On ch=1 n=b5 v=44
415200 On ch=1 n=e6 v=46
415232 On ch=1 n=e6 v=0
415232 On ch=1 n=b5 v=0
415320 On ch=1 n=a4 v=53
415320 Par ch=1 c=64 v=0
415352 On ch=1 n=a4 v=0
415380 Par ch=1 c=64 v=127
415440 On ch=1 n=d#5 v=49
415440 On ch=1 n=d#6 v=51
415472 On ch=1 n=d#6 v=0
415472 On ch=1 n=d#5 v=0
415560 On ch=1 n=d#5 v=52
415560 On ch=1 n=b4 v=50
415592 On ch=1 n=b4 v=0
415592 On ch=1 n=d#5 v=0
415680 On ch=1 n=c6 v=50
415680 On ch=1 n=f#5 v=48
415712 On ch=1 n=f#5 v=0
415712 On ch=1 n=c6 v=0
415800 On ch=1 n=f#4 v=57
415832 On ch=1 n=f#4 v=0
415920 On ch=1 n=d#5 v=53
415920 On ch=1 n=a#5 v=55
415952 On ch=1 n=a#5 v=0
415952 On ch=1 n=d#5 v=0
416040 On ch=1 n=d#4 v=56
416040 On ch=1 n=a4 v=54
416040 On ch=1 n=b4 v=52
416072 On ch=1 n=b4 v=0
416072 On ch=1 n=a4 v=0
416072 On ch=1 n=d#4 v=0
416160 On ch=1 n=f#5 v=52
416160 On ch=1 n=b5 v=54
416192 On ch=1 n=b5 v=0
416192 On ch=1 n=f#5 v=0
416280 On ch=1 n=g4 v=61
416280 Par ch=1 c=64 v=0
416312 On ch=1 n=g4 v=0
416340 Par ch=1 c=64 v=127
416400 On ch=1 n=g4 v=57
416400 On ch=1 n=g5 v=59
416432 On ch=1 n=g5 v=0
416432 On ch=1 n=g4 v=0
416520 On ch=1 n=f#4 v=60
416552 On ch=1 n=f#4 v=0
416640 On ch=1 n=f#5 v=58
416640 On ch=1 n=b4 v=56
416672 On ch=1 n=b4 v=0
416672 On ch=1 n=f#5 v=0
416760 On ch=1 n=f4 v=65
416792 On ch=1 n=f4 v=0
416880 On ch=1 n=f4 v=61
416880 On ch=1 n=f5 v=63
416912 On ch=1 n=f5 v=0
416912 On ch=1 n=f4 v=0
417000 On ch=1 n=e4 v=64
417032 On ch=1 n=e4 v=0
417120 On ch=1 n=b4 v=60
417120 On ch=1 n=e5 v=62
417152 On ch=1 n=e5 v=0
417152 On ch=1 n=b4 v=0
417240 On ch=1 n=d#4 v=69
417240 Par ch=1 c=64 v=0
417272 On ch=1 n=d#4 v=0
417300 Par ch=1 c=64 v=127
417360 On ch=1 n=d#4 v=65
417360 On ch=1 n=d#5 v=67
417392 On ch=1 n=d#5 v=0
417392 On ch=1 n=d#4 v=0
417480 On ch=1 n=c4 v=68
417512 On ch=1 n=c4 v=0
417600 On ch=1 n=c5 v=66
417632 On ch=1 n=c5 v=0
417720 On ch=1 n=a#3 v=73
417752 On ch=1 n=a#3 v=0
417840 On ch=1 n=a#4 v=71
417872 On ch=1 n=a#4 v=0
417960 On ch=1 n=b3 v=72
417992 On ch=1 n=b3 v=0
418080 On ch=1 n=b4 v=70
418112 On ch=1 n=b4 v=0
418200 On ch=1 n=g3 v=77
418200 On ch=1 n=g4 v=75
418200 Par ch=1 c=64 v=0
418232 On ch=1 n=g4 v=0
418232 On ch=1 n=g3 v=0
418260 Par ch=1 c=64 v=127
418320 On ch=1 n=g4 v=73
418320 On ch=1 n=g5 v=75
418352 On ch=1 n=g5 v=0
418352 On ch=1 n=g4 v=0
418440 On ch=1 n=f#3 v=76
418440 On ch=1 n=f#4 v=74
418472 On ch=1 n=f#4 v=0
418472 On ch=1 n=f#3 v=0
418560 On ch=1 n=f#4 v=72
418560 On ch=1 n=f#5 v=74
418592 On ch=1 n=f#5 v=0
418592 On ch=1 n=f#4 v=0
418680 On ch=1 n=f3 v=81
418680 On ch=1 n=f4 v=79
418712 On ch=1 n=f4 v=0
418712 On ch=1 n=f3 v=0
418800 On ch=1 n=f4 v=77
418800 On ch=1 n=f5 v=79
418832 On ch=1 n=f5 v=0
418832 On ch=1 n=f4 v=0
418920 On ch=1 n=e3 v=80
418920 On ch=1 n=e4 v=78
418952 On ch=1 n=e4 v=0
418952 On ch=1 n=e3 v=0
419040 On ch=1 n=e4 v=76
419040 On ch=1 n=e5 v=78
419072 On ch=1 n=e5 v=0
419072 On ch=1 n=e4 v=0
419160 On ch=1 n=d#4 v=83
419160 On ch=1 n=d#3 v=85
419160 Par ch=1 c=64 v=0
419192 On ch=1 n=d#3 v=0
419192 On ch=1 n=d#4 v=0
419220 Par ch=1 c=64 v=127
419280 On ch=1 n=d#4 v=81
419280 On ch=1 n=d#5 v=83
419312 On ch=1 n=d#5 v=0
419312 On ch=1 n=d#4 v=0
419400 On ch=1 n=c3 v=84
419400 On ch=1 n=c4 v=82
419432 On ch=1 n=c4 v=0
419432 On ch=1 n=c3 v=0
419520 On ch=1 n=c5 v=82
419552 On ch=1 n=c5 v=0
419640 On ch=1 n=a#2 v=99
419640 On ch=1 n=a#3 v=97
419672 On ch=1 n=a#3 v=0
419672 On ch=1 n=a#2 v=0
419760 On ch=1 n=a#4 v=87
419792 On ch=1 n=a#4 v=0
419880 On ch=1 n=b2 v=88
419880 On ch=1 n=b3 v=86
419912 On ch=1 n=b3 v=0
419912 On ch=1 n=b2 v=0
420000 On ch=1 n=b4 v=86
420032 On ch=1 n=b4 v=0
420120 On ch=1 n=a2 v=103
420120 On ch=1 n=a3 v=101
420120 Par ch=1 c=64 v=0
420152 On ch=1 n=a3 v=0
420152 On ch=1 n=a2 v=0
420180 Par ch=1 c=64 v=127
420240 On ch=1 n=a4 v=91
420272 On ch=1 n=a4 v=0
420360 On ch=1 n=b2 v=92
420360 On ch=1 n=b3 v=90
420392 On ch=1 n=b3 v=0
420392 On ch=1 n=b2 v=0
420480 On ch=1 n=b4 v=90
420512 On ch=1 n=b4 v=0
420600 On ch=1 n=f#2 v=108
420600 On ch=1 n=f#3 v=106
420632 On ch=1 n=f#3 v=0
420632 On ch=1 n=f#2 v=0
420720 On ch=1 n=f#4 v=96
420752 On ch=1 n=f#4 v=0
420840 On ch=1 n=b2 v=97
420840 On ch=1 n=b3 v=95
420872 On ch=1 n=b3 v=0
420872 On ch=1 n=b2 v=0
420960 On ch=1 n=b4 v=95
420992 On ch=1 n=b4 v=0
421080 On ch=1 n=g#6 v=109
421080 On ch=1 n=e6 v=104
421080 On ch=1 n=g#5 v=107
421080 Par ch=1 c=64 v=0
421728 On ch=1 n=g#5 v=0
421728 On ch=1 n=e6 v=0
421728 On ch=1 n=g#6 v=0
421800 On ch=1 n=a5 v=100
421800 On ch=1 n=f#6 v=97
421800 On ch=1 n=a6 v=102
421908 On ch=1 n=a6 v=0
421908 On ch=1 n=f#6 v=0
421908 On ch=1 n=a5 v=0
421920 On ch=1 n=g#5 v=98
421920 On ch=1 n=e6 v=95
421920 On ch=1 n=g#6 v=100
422028 On ch=1 n=g#6 v=0
422028 On ch=1 n=e6 v=0
422028 On ch=1 n=g#5 v=0
422040 On ch=1 n=f#6 v=104
422040 On ch=1 n=d#6 v=99
422040 On ch=1 n=f#5 v=102
422104 On ch=1 n=f#5 v=0
422104 On ch=1 n=d#6 v=0
422104 On ch=1 n=f#6 v=0
422226 On ch=1 n=c#8 v=101
422280 On ch=1 n=b7 v=105
422280 On ch=1 n=b6 v=103
422312 On ch=1 n=b6 v=0
422400 On ch=1 n=a#7 v=103
422400 On ch=1 n=a#6 v=101
422432 On ch=1 n=a#6 v=0
422520 On ch=1 n=b7 v=107
422520 On ch=1 n=b6 v=105
422584 On ch=1 n=b6 v=0
422658 On ch=1 n=c#8 v=0
422712 On ch=1 n=b7 v=0
422760 On ch=1 n=b6 v=106
422760 On ch=1 n=f#6 v=101
422760 On ch=1 n=d#6 v=99
422760 On ch=1 n=b5 v=104
422832 On ch=1 n=a#7 v=0
422952 On ch=1 n=b7 v=0
422976 On ch=1 n=b5 v=0
422976 On ch=1 n=d#6 v=0
422976 On ch=1 n=f#6 v=0
422976 On ch=1 n=b6 v=0
423000 On ch=1 n=g#6 v=109
423000 On ch=1 n=e6 v=104
423000 On ch=1 n=g#5 v=107
423648 On ch=1 n=g#5 v=0
423648 On ch=1 n=e6 v=0
423648 On ch=1 n=g#6 v=0
423720 On ch=1 n=a5 v=100
423720 On ch=1 n=f#6 v=97
423720 On ch=1 n=a6 v=102
423828 On ch=1 n=a6 v=0
423828 On ch=1 n=f#6 v=0
423828 On ch=1 n=a5 v=0
423840 On ch=1 n=g#5 v=98
423840 On ch=1 n=e6 v=95
423840 On ch=1 n=g#6 v=100
423948 On ch=1 n=g#6 v=0
423948 On ch=1 n=e6 v=0
423948 On ch=1 n=g#5 v=0
423960 On ch=1 n=f#6 v=104
423960 On ch=1 n=d#6 v=99
423960 On ch=1 n=f#5 v=102
424024 On ch=1 n=f#5 v=0
424024 On ch=1 n=d#6 v=0
424024 On ch=1 n=f#6 v=0
424146 On ch=1 n=c#8 v=101
424200 On ch=1 n=b7 v=105
424200 On ch=1 n=b6 v=103
424232 On ch=1 n=b6 v=0
424320 On ch=1 n=a#6 v=101
424320 On ch=1 n=a#7 v=103
424352 On ch=1 n=a#6 v=0
424440 On ch=1 n=b6 v=105
424440 On ch=1 n=b7 v=107
424504 On ch=1 n=b6 v=0
424578 On ch=1 n=c#8 v=0
424632 On ch=1 n=b7 v=0
424680 On ch=1 n=b6 v=106
424680 On ch=1 n=f#6 v=101
424680 On ch=1 n=d#6 v=99
424680 On ch=1 n=b5 v=104
424752 On ch=1 n=a#7 v=0
424872 On ch=1 n=b7 v=0
424896 On ch=1 n=b5 v=0
424896 On ch=1 n=d#6 v=0
424896 On ch=1 n=f#6 v=0
424896 On ch=1 n=b6 v=0
424920 On ch=1 n=g#5 v=102
424920 On ch=1 n=e6 v=99
424920 On ch=1 n=g#6 v=104
425352 On ch=1 n=g#6 v=0
425352 On ch=1 n=e6 v=0
425352 On ch=1 n=g#5 v=0
425400 On ch=1 n=g#5 v=100
425400 On ch=1 n=e6 v=97
425400 On ch=1 n=g#6 v=102
425724 On ch=1 n=g#6 v=0
425724 On ch=1 n=e6 v=0
425724 On ch=1 n=g#5 v=0
425760 On ch=1 n=d#6 v=95
425760 On ch=1 n=g5 v=98
425760 On ch=1 n=g6 v=100
425868 On ch=1 n=g6 v=0
425868 On ch=1 n=g5 v=0
425868 On ch=1 n=d#6 v=0
425880 On ch=1 n=g#6 v=104
425880 On ch=1 n=e6 v=99
425880 On ch=1 n=g#5 v=102
425944 On ch=1 n=g#5 v=0
425944 On ch=1 n=e6 v=0
425944 On ch=1 n=g#6 v=0
426120 On ch=1 n=g#6 v=103
426120 On ch=1 n=e7 v=100
426120 On ch=1 n=g#7 v=105
426152 On ch=1 n=e7 v=0
426152 On ch=1 n=g#6 v=0
426240 On ch=1 n=g7 v=103
426240 On ch=1 n=g6 v=101
426240 On ch=1 n=d#7 v=98
426272 On ch=1 n=d#7 v=0
426272 On ch=1 n=g6 v=0
426360 On ch=1 n=g#6 v=105
426360 On ch=1 n=e7 v=102
426360 On ch=1 n=g#7 v=107
426424 On ch=1 n=e7 v=0
426424 On ch=1 n=g#6 v=0
426552 On ch=1 n=g#7 v=0
426600 On ch=1 n=g#5 v=104
426600 On ch=1 n=e6 v=101
426600 On ch=1 n=g#6 v=106
426672 On ch=1 n=g7 v=0
426792 On ch=1 n=g#7 v=0
426816 On ch=1 n=g#6 v=0
426816 On ch=1 n=e6 v=0
426816 On ch=1 n=g#5 v=0
426840 On ch=1 n=c#6 v=102
426840 On ch=1 n=a6 v=99
426840 On ch=1 n=c#7 v=104
427272 On ch=1 n=c#7 v=0
427272 On ch=1 n=a6 v=0
427272 On ch=1 n=c#6 v=0
427320 On ch=1 n=c#6 v=100
427320 On ch=1 n=a6 v=97
427320 On ch=1 n=c#7 v=102
427644 On ch=1 n=c#7 v=0
427644 On ch=1 n=a6 v=0
427644 On ch=1 n=c#6 v=0
427680 On ch=1 n=g#6 v=89
427680 On ch=1 n=c6 v=92
427680 On ch=1 n=c7 v=94
427788 On ch=1 n=c7 v=0
427788 On ch=1 n=c6 v=0
427788 On ch=1 n=g#6 v=0
427800 On ch=1 n=c#6 v=102
427800 On ch=1 n=a6 v=99
427800 On ch=1 n=c#7 v=104
427864 On ch=1 n=c#7 v=0
427864 On ch=1 n=a6 v=0
427864 On ch=1 n=c#6 v=0
428040 On ch=1 n=c#7 v=103
428040 On ch=1 n=a7 v=100
428040 On ch=1 n=c#8 v=105
428072 On ch=1 n=c#7 v=0
428160 On ch=1 n=c7 v=101
428160 On ch=1 n=g#7 v=98
428160 On ch=1 n=c8 v=103
428192 On ch=1 n=c7 v=0
428280 On ch=1 n=c#7 v=105
428280 On ch=1 n=a7 v=102
428280 On ch=1 n=c#8 v=107
428344 On ch=1 n=c#7 v=0
428472 On ch=1 n=c#8 v=0
428472 On ch=1 n=a7 v=0
428520 On ch=1 n=c#7 v=106
428520 On ch=1 n=a6 v=101
428520 On ch=1 n=c#6 v=104
428592 On ch=1 n=c8 v=0
428592 On ch=1 n=g#7 v=0
428712 On ch=1 n=c#8 v=0
428712 On ch=1 n=a7 v=0
428736 On ch=1 n=c#6 v=0
428736 On ch=1 n=a6 v=0
428736 On ch=1 n=c#7 v=0
428760 On ch=1 n=a6 v=109
428760 On ch=1 n=f#6 v=104
428760 On ch=1 n=a5 v=107
429408 On ch=1 n=a5 v=0
429408 On ch=1 n=f#6 v=0
429408 On ch=1 n=a6 v=0
429480 On ch=1 n=b5 v=100
429480 On ch=1 n=g#6 v=97
429480 On ch=1 n=b6 v=102
429588 On ch=1 n=b6 v=0
429588 On ch=1 n=g#6 v=0
429588 On ch=1 n=b5 v=0
429600 On ch=1 n=a5 v=98
429600 On ch=1 n=f#6 v=95
429600 On ch=1 n=a6 v=100
429708 On ch=1 n=a6 v=0
429708 On ch=1 n=f#6 v=0
429708 On ch=1 n=a5 v=0
429720 On ch=1 n=f6 v=99
429720 On ch=1 n=g#6 v=104
429720 On ch=1 n=g#5 v=102
429784 On ch=1 n=g#5 v=0
429784 On ch=1 n=g#6 v=0
429784 On ch=1 n=f6 v=0
429906 On ch=1 n=d8 v=101
429960 On ch=1 n=c#8 v=105
429960 On ch=1 n=c#7 v=103
429992 On ch=1 n=c#7 v=0
430080 On ch=1 n=c7 v=101
430080 On ch=1 n=c8 v=103
430112 On ch=1 n=c7 v=0
430200 On ch=1 n=c#7 v=105
430200 On ch=1 n=c#8 v=107
430264 On ch=1 n=c#7 v=0
430338 On ch=1 n=d8 v=0
430392 On ch=1 n=c#8 v=0
430440 On ch=1 n=f6 v=99
430440 On ch=1 n=c#7 v=106
430440 On ch=1 n=g#6 v=101
430440 On ch=1 n=c#6 v=104
430512 On ch=1 n=c8 v=0
430632 On ch=1 n=c#8 v=0
430656 On ch=1 n=c#6 v=0
430656 On ch=1 n=g#6 v=0
430656 On ch=1 n=c#7 v=0
430656 On ch=1 n=f6 v=0
430680 On ch=1 n=a6 v=109
430680 On ch=1 n=f#6 v=104
430680 On ch=1 n=a5 v=107
431328 On ch=1 n=a5 v=0
431328 On ch=1 n=f#6 v=0
431328 On ch=1 n=a6 v=0
431400 On ch=1 n=b5 v=100
431400 On ch=1 n=g#6 v=97
431400 On ch=1 n=b6 v=102
431508 On ch=1 n=b6 v=0
431508 On ch=1 n=g#6 v=0
431508 On ch=1 n=b5 v=0
431520 On ch=1 n=a5 v=98
431520 On ch=1 n=f#6 v=95
431520 On ch=1 n=a6 v=100
431628 On ch=1 n=a6 v=0
431628 On ch=1 n=f#6 v=0
431628 On ch=1 n=a5 v=0
431640 On ch=1 n=f6 v=99
431640 On ch=1 n=g#5 v=102
431640 On ch=1 n=g#6 v=104
431704 On ch=1 n=g#6 v=0
431704 On ch=1 n=g#5 v=0
431704 On ch=1 n=f6 v=0
431826 On ch=1 n=d8 v=101
431880 On ch=1 n=c#8 v=105
431880 On ch=1 n=c#7 v=103
431912 On ch=1 n=c#7 v=0
432000 On ch=1 n=c7 v=101
432000 On ch=1 n=c8 v=103
432032 On ch=1 n=c7 v=0
432120 On ch=1 n=c#8 v=107
432120 On ch=1 n=c#7 v=105
432184 On ch=1 n=c#7 v=0
432258 On ch=1 n=d8 v=0
432312 On ch=1 n=c#8 v=0
432360 On ch=1 n=f6 v=99
432360 On ch=1 n=c#7 v=106
432360 On ch=1 n=g#6 v=101
432360 On ch=1 n=c#6 v=104
432432 On ch=1 n=c8 v=0
432552 On ch=1 n=c#8 v=0
432576 On ch=1 n=c#6 v=0
432576 On ch=1 n=g#6 v=0
432576 On ch=1 n=c#7 v=0
432576 On ch=1 n=f6 v=0
432600 On ch=1 n=a6 v=109
432600 On ch=1 n=f#6 v=104
432600 On ch=1 n=a5 v=107
433032 On ch=1 n=a5 v=0
433032 On ch=1 n=f#6 v=0
433032 On ch=1 n=a6 v=0
433080 On ch=1 n=a5 v=100
433080 On ch=1 n=f#6 v=97
433080 On ch=1 n=a6 v=102
433404 On ch=1 n=a6 v=0
433404 On ch=1 n=f#6 v=0
433404 On ch=1 n=a5 v=0
433440 On ch=1 n=g#5 v=96
433440 On ch=1 n=g#6 v=98
433440 On ch=1 n=f6 v=93
433548 On ch=1 n=f6 v=0
433548 On ch=1 n=g#6 v=0
433548 On ch=1 n=g#5 v=0
433560 On ch=1 n=a5 v=102
433560 On ch=1 n=f#6 v=99
433560 On ch=1 n=a6 v=104
433624 On ch=1 n=a6 v=0
433624 On ch=1 n=f#6 v=0
433624 On ch=1 n=a5 v=0
433800 On ch=1 n=a6 v=103
433800 On ch=1 n=f#7 v=100
433800 On ch=1 n=a7 v=105
433832 On ch=1 n=a6 v=0
433920 On ch=1 n=f7 v=98
433920 On ch=1 n=g#6 v=101
433920 On ch=1 n=g#7 v=103
433952 On ch=1 n=g#6 v=0
434040 On ch=1 n=a6 v=105
434040 On ch=1 n=f#7 v=102
434040 On ch=1 n=a7 v=107
434104 On ch=1 n=a6 v=0
434232 On ch=1 n=a7 v=0
434232 On ch=1 n=f#7 v=0
434280 On ch=1 n=a5 v=104
434280 On ch=1 n=f#6 v=101
434280 On ch=1 n=a6 v=106
434352 On ch=1 n=g#7 v=0
434352 On ch=1 n=f7 v=0
434472 On ch=1 n=a7 v=0
434472 On ch=1 n=f#7 v=0
434496 On ch=1 n=a6 v=0
434496 On ch=1 n=f#6 v=0
434496 On ch=1 n=a5 v=0
434520 On ch=1 n=f#5 v=102
434520 On ch=1 n=f#6 v=104
434520 On ch=1 n=d6 v=99
434952 On ch=1 n=d6 v=0
434952 On ch=1 n=f#6 v=0
434952 On ch=1 n=f#5 v=0
435000 On ch=1 n=f#5 v=100
435000 On ch=1 n=f#6 v=102
435000 On ch=1 n=d6 v=97
435324 On ch=1 n=d6 v=0
435324 On ch=1 n=f#6 v=0
435324 On ch=1 n=f#5 v=0
435360 On ch=1 n=c#6 v=93
435360 On ch=1 n=f6 v=98
435360 On ch=1 n=f5 v=96
435468 On ch=1 n=f5 v=0
435468 On ch=1 n=f6 v=0
435468 On ch=1 n=c#6 v=0
435480 On ch=1 n=d6 v=99
435480 On ch=1 n=f#5 v=102
435480 On ch=1 n=f#6 v=104
435544 On ch=1 n=f#6 v=0
435544 On ch=1 n=f#5 v=0
435544 On ch=1 n=d6 v=0
435720 On ch=1 n=d8 v=105
435720 On ch=1 n=f#7 v=108
435720 On ch=1 n=f#8 v=110
435840 On ch=1 n=f7 v=106
435840 On ch=1 n=f8 v=108
435840 On ch=1 n=c#8 v=103
435960 On ch=1 n=d8 v=107
435960 On ch=1 n=f#7 v=110
435960 On ch=1 n=f#8 v=112
436152 On ch=1 n=f#8 v=0
436152 On ch=1 n=f#7 v=0
436152 On ch=1 n=d8 v=0
436272 On ch=1 n=c#8 v=0
436272 On ch=1 n=f8 v=0
436272 On ch=1 n=f7 v=0
436392 On ch=1 n=f#8 v=0
436392 On ch=1 n=f#7 v=0
436392 On ch=1 n=d8 v=0
436626 On ch=1 n=e5 v=96
436680 On ch=1 n=e5 v=0
436680 On ch=1 n=d5 v=100
436712 On ch=1 n=d5 v=0
436800 On ch=1 n=c#5 v=98
436832 On ch=1 n=c#5 v=0
436920 On ch=1 n=d5 v=112
437136 On ch=1 n=d5 v=0
437160 On ch=1 n=c5 v=108
437376 On ch=1 n=c5 v=0
437400 On ch=1 n=b5 v=118
437400 On ch=1 n=g#6 v=115
437400 On ch=1 n=b6 v=120
437400 Par ch=1 c=64 v=127
437724 On ch=1 n=b6 v=0
437724 On ch=1 n=g#6 v=0
437724 On ch=1 n=b5 v=0
437760 On ch=1 n=c#6 v=112
437760 On ch=1 n=a6 v=109
437760 On ch=1 n=c#7 v=114
437868 On ch=1 n=c#7 v=0
437868 On ch=1 n=a6 v=0
437868 On ch=1 n=c#6 v=0
437880 On ch=1 n=b5 v=116
437880 On ch=1 n=g#6 v=113
437880 On ch=1 n=b6 v=118
437880 Par ch=1 c=64 v=0
438096 On ch=1 n=b6 v=0
438096 On ch=1 n=g#6 v=0
438096 On ch=1 n=b5 v=0
438120 On ch=1 n=a5 v=114
438120 On ch=1 n=f#6 v=111
438120 On ch=1 n=a6 v=116
438336 On ch=1 n=a6 v=0
438336 On ch=1 n=f#6 v=0
438336 On ch=1 n=a5 v=0
438360 On ch=1 n=g#5 v=118
438360 On ch=1 n=e6 v=115
438360 On ch=1 n=g#6 v=120
438360 Par ch=1 c=64 v=127
438684 On ch=1 n=g#6 v=0
438684 On ch=1 n=e6 v=0
438684 On ch=1 n=g#5 v=0
438720 On ch=1 n=f#5 v=112
438720 On ch=1 n=d#6 v=109
438720 On ch=1 n=f#6 v=114
438828 On ch=1 n=f#6 v=0
438828 On ch=1 n=d#6 v=0
438828 On ch=1 n=f#5 v=0
438840 On ch=1 n=e5 v=116
438840 On ch=1 n=c#6 v=113
438840 On ch=1 n=e6 v=118
438840 Par ch=1 c=64 v=0
439056 On ch=1 n=e6 v=0
439056 On ch=1 n=c#6 v=0
439056 On ch=1 n=e5 v=0
439080 On ch=1 n=c#5 v=114
439080 On ch=1 n=a5 v=111
439080 On ch=1 n=c#6 v=116
439188 On ch=1 n=c#6 v=0
439188 On ch=1 n=a5 v=0
439188 On ch=1 n=c#5 v=0
439200 On ch=1 n=d#5 v=116
439200 On ch=1 n=a5 v=113
439200 On ch=1 n=d#6 v=118
439308 On ch=1 n=d#6 v=0
439308 On ch=1 n=a5 v=0
439308 On ch=1 n=d#5 v=0
439320 On ch=1 n=e5 v=118
439320 On ch=1 n=g#5 v=115
439320 On ch=1 n=e6 v=120
439428 On ch=1 n=e6 v=0
439428 On ch=1 n=g#5 v=0
439428 On ch=1 n=e5 v=0
439440 On ch=1 n=e5 v=116
439440 On ch=1 n=g#5 v=113
439440 On ch=1 n=d#6 v=118
439548 On ch=1 n=d#6 v=0
439548 On ch=1 n=g#5 v=0
439548 On ch=1 n=e5 v=0
439560 On ch=1 n=e5 v=114
439560 On ch=1 n=g#5 v=111
439560 On ch=1 n=c#6 v=116
439776 On ch=1 n=c#6 v=0
439776 On ch=1 n=g#5 v=0
439776 On ch=1 n=e5 v=0
439800 On ch=1 n=g#5 v=116
439800 On ch=1 n=g#6 v=118
439864 On ch=1 n=g#6 v=0
439864 On ch=1 n=g#5 v=0
440040 On ch=1 n=c6 v=116
440040 On ch=1 n=d#5 v=114
440040 On ch=1 n=f#5 v=111
440104 On ch=1 n=f#5 v=0
440104 On ch=1 n=d#5 v=0
440104 On ch=1 n=c6 v=0
440280 On ch=1 n=e5 v=118
440280 On ch=1 n=g#5 v=115
440280 On ch=1 n=c#6 v=120
440280 Par ch=1 c=64 v=127
440496 On ch=1 n=c#6 v=0
440496 On ch=1 n=g#5 v=0
440496 On ch=1 n=e5 v=0
440520 On ch=1 n=c6 v=113
440520 Par ch=1 c=64 v=0
440570 On ch=1 n=c6 v=0
440571 On ch=1 n=c#6 v=114
440621 On ch=1 n=c#6 v=0
440622 On ch=1 n=d#6 v=115
440672 On ch=1 n=d#6 v=0
440674 On ch=1 n=e6 v=116
440724 On ch=1 n=e6 v=0
440725 On ch=1 n=f#6 v=117
440775 On ch=1 n=f#6 v=0
440777 On ch=1 n=g#6 v=118
440827 On ch=1 n=g#6 v=0
440828 On ch=1 n=a6 v=119
440878 On ch=1 n=a6 v=0
440879 On ch=1 n=b6 v=120
440929 On ch=1 n=b6 v=0
440931 On ch=1 n=c#7 v=121
440981 On ch=1 n=c#7 v=0
440982 On ch=1 n=d#7 v=122
441032 On ch=1 n=d#7 v=0
441034 On ch=1 n=e7 v=123
441084 On ch=1 n=e7 v=0
441085 On ch=1 n=f#7 v=124
441135 On ch=1 n=f#7 v=0
441137 On ch=1 n=g#7 v=125
441187 On ch=1 n=g#7 v=0
441188 On ch=1 n=a7 v=126
441238 On ch=1 n=a7 v=0
441240 On ch=1 n=b6 v=125
441240 On ch=1 n=g#7 v=122
441240 On ch=1 n=b7 v=127
441240 Par ch=1 c=64 v=127
441564 On ch=1 n=b7 v=0
441564 On ch=1 n=g#7 v=0
441564 On ch=1 n=b6 v=0
441600 On ch=1 n=c#7 v=119
441600 On ch=1 n=a7 v=116
441600 On ch=1 n=c#8 v=121
441708 On ch=1 n=c#8 v=0
441708 On ch=1 n=a7 v=0
441708 On ch=1 n=c#7 v=0
441720 On ch=1 n=b6 v=123
441720 On ch=1 n=g#7 v=120
441720 On ch=1 n=b7 v=125
441720 Par ch=1 c=64 v=0
441936 On ch=1 n=b7 v=0
441936 On ch=1 n=g#7 v=0
441936 On ch=1 n=b6 v=0
441960 On ch=1 n=a6 v=121
441960 On ch=1 n=f#7 v=118
441960 On ch=1 n=a7 v=123
442176 On ch=1 n=a7 v=0
442176 On ch=1 n=f#7 v=0
442176 On ch=1 n=a6 v=0
442200 On ch=1 n=g#6 v=125
442200 On ch=1 n=e7 v=122
442200 On ch=1 n=g#7 v=127
442200 Par ch=1 c=64 v=127
442524 On ch=1 n=g#7 v=0
442524 On ch=1 n=e7 v=0
442524 On ch=1 n=g#6 v=0
442560 On ch=1 n=f#6 v=117
442560 On ch=1 n=d#7 v=114
442560 On ch=1 n=f#7 v=119
442668 On ch=1 n=f#7 v=0
442668 On ch=1 n=d#7 v=0
442668 On ch=1 n=f#6 v=0
442680 On ch=1 n=e6 v=123
442680 On ch=1 n=c#7 v=120
442680 On ch=1 n=e7 v=125
442680 Par ch=1 c=64 v=0
442896 On ch=1 n=e7 v=0
442896 On ch=1 n=c#7 v=0
442896 On ch=1 n=e6 v=0
442920 On ch=1 n=c#6 v=121
442920 On ch=1 n=a6 v=118
442920 On ch=1 n=c#7 v=123
443028 On ch=1 n=c#7 v=0
443028 On ch=1 n=a6 v=0
443028 On ch=1 n=c#6 v=0
443040 On ch=1 n=d#6 v=123
443040 On ch=1 n=a6 v=120
443040 On ch=1 n=d#7 v=125
443148 On ch=1 n=d#7 v=0
443148 On ch=1 n=a6 v=0
443148 On ch=1 n=d#6 v=0
443160 On ch=1 n=e6 v=125
443160 On ch=1 n=g#6 v=122
443160 On ch=1 n=e7 v=127
443268 On ch=1 n=e7 v=0
443268 On ch=1 n=g#6 v=0
443268 On ch=1 n=e6 v=0
443280 On ch=1 n=d#6 v=123
443280 On ch=1 n=g#6 v=120
443280 On ch=1 n=d#7 v=125
443388 On ch=1 n=d#7 v=0
443388 On ch=1 n=g#6 v=0
443388 On ch=1 n=d#6 v=0
443400 On ch=1 n=c#6 v=121
443400 On ch=1 n=g#6 v=118
443400 On ch=1 n=c#7 v=123
443616 On ch=1 n=c#7 v=0
443616 On ch=1 n=g#6 v=0
443616 On ch=1 n=c#6 v=0
443640 On ch=1 n=g#6 v=123
443640 On ch=1 n=g#7 v=125
443704 On ch=1 n=g#7 v=0
443704 On ch=1 n=g#6 v=0
443880 On ch=1 n=c6 v=121
443880 On ch=1 n=c7 v=123
443880 On ch=1 n=g#6 v=118
443944 On ch=1 n=g#6 v=0
443944 On ch=1 n=c7 v=0
443944 On ch=1 n=c6 v=0
444120 On ch=1 n=e5 v=125
444120 On ch=1 n=g#5 v=122
444120 On ch=1 n=e6 v=127
444228 On ch=1 n=e6 v=0
444228 On ch=1 n=g#5 v=0
444228 On ch=1 n=e5 v=0
444240 On ch=1 n=e5 v=118
444240 On ch=1 n=g#5 v=120
444240 On ch=1 n=d#6 v=125
444348 On ch=1 n=d#6 v=0
444348 On ch=1 n=g#5 v=0
444348 On ch=1 n=e5 v=0
444360 On ch=1 n=e5 v=116
444360 On ch=1 n=g#5 v=118
444360 On ch=1 n=c#6 v=123
444576 On ch=1 n=c#6 v=0
444576 On ch=1 n=g#5 v=0
444576 On ch=1 n=e5 v=0
444600 On ch=1 n=g#6 v=125
444600 On ch=1 n=g#5 v=123
444664 On ch=1 n=g#5 v=0
444664 On ch=1 n=g#6 v=0
444840 On ch=1 n=c6 v=121
444840 On ch=1 n=d#5 v=119
444840 On ch=1 n=g#5 v=116
444904 On ch=1 n=g#5 v=0
444904 On ch=1 n=d#5 v=0
444904 On ch=1 n=c6 v=0
445080 On ch=1 n=e5 v=125
445112 On ch=1 n=e5 v=0
445200 On ch=1 n=d#5 v=123
445232 On ch=1 n=d#5 v=0
445320 On ch=1 n=c#5 v=121
445384 On ch=1 n=c#5 v=0
445560 On ch=1 n=g#5 v=123
445560 Par ch=1 c=64 v=127
445624 On ch=1 n=g#5 v=0
445800 On ch=1 n=g#4 v=120
445864 On ch=1 n=g#4 v=0
446040 On ch=1 n=g#5 v=127
446040 On ch=1 n=g#6 v=127
446256 On ch=1 n=g#6 v=0
446256 On ch=1 n=g#5 v=0
446520 On ch=1 n=g#6 v=127
446520 On ch=1 n=g#7 v=127
446736 On ch=1 n=g#7 v=0
446736 On ch=1 n=g#6 v=0
446940 Par ch=1 c=64 v=0
447000 On ch=1 n=g#7 v=53
447000 On ch=1 n=e7 v=46
447108 On ch=1 n=e7 v=0
447120 On ch=1 n=g#6 v=44
447216 On ch=1 n=g#7 v=0
447228 On ch=1 n=g#6 v=0
447240 On ch=1 n=g#6 v=46
447240 On ch=1 n=e6 v=44
447348 On ch=1 n=e6 v=0
447348 On ch=1 n=g#6 v=0
447360 On ch=1 n=g#5 v=42
447468 On ch=1 n=g#5 v=0
447480 On ch=1 n=g#6 v=46
447480 On ch=1 n=e6 v=44
447588 On ch=1 n=e6 v=0
447588 On ch=1 n=g#6 v=0
447600 On ch=1 n=g#6 v=42
447708 On ch=1 n=g#6 v=0
447720 On ch=1 n=a7 v=49
447720 On ch=1 n=f#7 v=42
447828 On ch=1 n=f#7 v=0
447840 On ch=1 n=a6 v=40
447936 On ch=1 n=a7 v=0
447948 On ch=1 n=a6 v=0
447960 On ch=1 n=b7 v=53
447960 On ch=1 n=g#7 v=46
448068 On ch=1 n=g#7 v=0
448080 On ch=1 n=b6 v=44
448176 On ch=1 n=b7 v=0
448188 On ch=1 n=b6 v=0
448200 On ch=1 n=g#6 v=44
448200 On ch=1 n=b6 v=46
448308 On ch=1 n=b6 v=0
448308 On ch=1 n=g#6 v=0
448320 On ch=1 n=b5 v=42
448428 On ch=1 n=b5 v=0
448440 On ch=1 n=g#6 v=44
448440 On ch=1 n=b6 v=46
448548 On ch=1 n=b6 v=0
448548 On ch=1 n=g#6 v=0
448560 On ch=1 n=b6 v=42
448668 On ch=1 n=b6 v=0
448680 On ch=1 n=b7 v=49
448680 On ch=1 n=g#7 v=42
448788 On ch=1 n=g#7 v=0
448800 On ch=1 n=b6 v=40
448896 On ch=1 n=b7 v=0
448908 On ch=1 n=b6 v=0
448920 On ch=1 n=b7 v=53
448920 On ch=1 n=g#7 v=46
449028 On ch=1 n=g#7 v=0
449040 On ch=1 n=b6 v=44
449136 On ch=1 n=b7 v=0
449148 On ch=1 n=b6 v=0
449160 On ch=1 n=g#6 v=44
449160 On ch=1 n=b6 v=46
449268 On ch=1 n=b6 v=0
449268 On ch=1 n=g#6 v=0
449280 On ch=1 n=b5 v=42
449388 On ch=1 n=b5 v=0
449400 On ch=1 n=g#6 v=44
449400 On ch=1 n=b6 v=46
449508 On ch=1 n=b6 v=0
449508 On ch=1 n=g#6 v=0
449520 On ch=1 n=b6 v=42
449628 On ch=1 n=b6 v=0
449640 On ch=1 n=g#7 v=42
449640 On ch=1 n=c8 v=49
449748 On ch=1 n=g#7 v=0
449760 On ch=1 n=c7 v=40
449856 On ch=1 n=c8 v=0
449868 On ch=1 n=c7 v=0
449880 On ch=1 n=c#8 v=53
449880 On ch=1 n=a7 v=46
449988 On ch=1 n=a7 v=0
450000 On ch=1 n=c#7 v=44
450096 On ch=1 n=c#8 v=0
450108 On ch=1 n=c#7 v=0
450120 On ch=1 n=c#7 v=46
450120 On ch=1 n=a6 v=44
450228 On ch=1 n=a6 v=0
450228 On ch=1 n=c#7 v=0
450240 On ch=1 n=c#7 v=42
450348 On ch=1 n=c#7 v=0
450360 On ch=1 n=a7 v=51
450360 On ch=1 n=f#7 v=44
450468 On ch=1 n=f#7 v=0
450480 On ch=1 n=a6 v=42
450576 On ch=1 n=a7 v=0
450588 On ch=1 n=a6 v=0
450600 On ch=1 n=g#7 v=49
450600 On ch=1 n=e7 v=42
450708 On ch=1 n=e7 v=0
450720 On ch=1 n=g#6 v=40
450816 On ch=1 n=g#7 v=0
450828 On ch=1 n=g#6 v=0
450840 On ch=1 n=f#7 v=53
450840 On ch=1 n=d#7 v=46
450948 On ch=1 n=d#7 v=0
450960 On ch=1 n=f#6 v=44
451056 On ch=1 n=f#7 v=0
451068 On ch=1 n=f#6 v=0
451080 On ch=1 n=f#6 v=46
451080 On ch=1 n=d#6 v=44
451188 On ch=1 n=d#6 v=0
451188 On ch=1 n=f#6 v=0
451200 On ch=1 n=f#5 v=42
451308 On ch=1 n=f#5 v=0
451320 On ch=1 n=f#6 v=46
451320 On ch=1 n=d#6 v=44
451428 On ch=1 n=d#6 v=0
451428 On ch=1 n=f#6 v=0
451440 On ch=1 n=f#6 v=42
451548 On ch=1 n=f#6 v=0
451560 On ch=1 n=f7 v=44
451560 On ch=1 n=d7 v=42
451668 On ch=1 n=d7 v=0
451668 On ch=1 n=f7 v=0
451680 On ch=1 n=f6 v=40
451788 On ch=1 n=f6 v=0
451800 On ch=1 n=d#7 v=46
451800 On ch=1 n=f#7 v=48
451908 On ch=1 n=f#7 v=0
451908 On ch=1 n=d#7 v=0
451920 On ch=1 n=f#6 v=51
452028 On ch=1 n=f#6 v=0
452040 On ch=1 n=d#7 v=52
452040 On ch=1 n=f#7 v=54
452148 On ch=1 n=f#7 v=0
452148 On ch=1 n=d#7 v=0
452160 On ch=1 n=f#7 v=57
452268 On ch=1 n=f#7 v=0
452280 On ch=1 n=d#8 v=58
452280 On ch=1 n=f#8 v=60
452388 On ch=1 n=f#8 v=0
452388 On ch=1 n=d#8 v=0
452400 On ch=1 n=f#7 v=57
452508 On ch=1 n=f#7 v=0
452520 On ch=1 n=f#7 v=54
452520 On ch=1 n=d#7 v=52
452628 On ch=1 n=d#7 v=0
452628 On ch=1 n=f#7 v=0
452640 On ch=1 n=f#6 v=51
452748 On ch=1 n=f#6 v=0
452760 On ch=1 n=f#7 v=53
452760 On ch=1 n=d#7 v=46
452868 On ch=1 n=d#7 v=0
452880 On ch=1 n=f#6 v=44
452976 On ch=1 n=f#7 v=0
452988 On ch=1 n=f#6 v=0
453000 On ch=1 n=f#6 v=46
453000 On ch=1 n=d#6 v=44
453108 On ch=1 n=d#6 v=0
453108 On ch=1 n=f#6 v=0
453120 On ch=1 n=f#5 v=42
453228 On ch=1 n=f#5 v=0
453240 On ch=1 n=f#6 v=46
453240 On ch=1 n=d#6 v=44
453348 On ch=1 n=d#6 v=0
453348 On ch=1 n=f#6 v=0
453360 On ch=1 n=f#6 v=42
453468 On ch=1 n=f#6 v=0
453480 On ch=1 n=g#7 v=49
453480 On ch=1 n=e7 v=42
453588 On ch=1 n=e7 v=0
453600 On ch=1 n=g#6 v=40
453696 On ch=1 n=g#7 v=0
453708 On ch=1 n=g#6 v=0
453720 On ch=1 n=a7 v=53
453720 On ch=1 n=f#7 v=46
453828 On ch=1 n=f#7 v=0
453840 On ch=1 n=a6 v=44
453936 On ch=1 n=a7 v=0
453948 On ch=1 n=a6 v=0
453960 On ch=1 n=a6 v=46
453960 On ch=1 n=f#6 v=44
454068 On ch=1 n=f#6 v=0
454068 On ch=1 n=a6 v=0
454080 On ch=1 n=a5 v=42
454188 On ch=1 n=a5 v=0
454200 On ch=1 n=a6 v=46
454200 On ch=1 n=f#6 v=44
454308 On ch=1 n=f#6 v=0
454308 On ch=1 n=a6 v=0
454320 On ch=1 n=a6 v=42
454428 On ch=1 n=a6 v=0
454440 On ch=1 n=a7 v=44
454440 On ch=1 n=f#7 v=42
454548 On ch=1 n=f#7 v=0
454548 On ch=1 n=a7 v=0
454560 On ch=1 n=a6 v=40
454668 On ch=1 n=a6 v=0
454680 On ch=1 n=a7 v=53
454680 On ch=1 n=f#7 v=46
454788 On ch=1 n=f#7 v=0
454800 On ch=1 n=a6 v=44
454896 On ch=1 n=a7 v=0
454908 On ch=1 n=a6 v=0
454920 On ch=1 n=a6 v=46
454920 On ch=1 n=f#6 v=44
455028 On ch=1 n=f#6 v=0
455028 On ch=1 n=a6 v=0
455040 On ch=1 n=a5 v=42
455148 On ch=1 n=a5 v=0
455160 On ch=1 n=a6 v=46
455160 On ch=1 n=f#6 v=44
455268 On ch=1 n=f#6 v=0
455268 On ch=1 n=a6 v=0
455280 On ch=1 n=a6 v=42
455388 On ch=1 n=a6 v=0
455400 On ch=1 n=e7 v=42
455400 On ch=1 n=a#7 v=49
455508 On ch=1 n=e7 v=0
455520 On ch=1 n=a#6 v=40
455616 On ch=1 n=a#7 v=0
455628 On ch=1 n=a#6 v=0
455640 On ch=1 n=b7 v=53
455640 On ch=1 n=d#7 v=46
455748 On ch=1 n=d#7 v=0
455760 On ch=1 n=b6 v=44
455856 On ch=1 n=b7 v=0
455868 On ch=1 n=b6 v=0
455880 On ch=1 n=b6 v=46
455880 On ch=1 n=d#6 v=44
455988 On ch=1 n=d#6 v=0
455988 On ch=1 n=b6 v=0
456000 On ch=1 n=b5 v=42
456108 On ch=1 n=b5 v=0
456120 On ch=1 n=b6 v=46
456120 On ch=1 n=d#6 v=44
456228 On ch=1 n=d#6 v=0
456228 On ch=1 n=b6 v=0
456240 On ch=1 n=d#6 v=42
456348 On ch=1 n=d#6 v=0
456360 On ch=1 n=b6 v=42
456360 On ch=1 n=d#7 v=44
456468 On ch=1 n=d#7 v=0
456468 On ch=1 n=b6 v=0
456480 On ch=1 n=d#6 v=40
456588 On ch=1 n=d#6 v=0
456600 On ch=1 n=e7 v=48
456600 On ch=1 n=b6 v=46
456708 On ch=1 n=b6 v=0
456708 On ch=1 n=e7 v=0
456720 On ch=1 n=e6 v=44
456828 On ch=1 n=e6 v=0
456840 On ch=1 n=e6 v=46
456840 On ch=1 n=b5 v=44
456948 On ch=1 n=b5 v=0
456948 On ch=1 n=e6 v=0
456960 On ch=1 n=e5 v=42
457068 On ch=1 n=e5 v=0
457080 On ch=1 n=b5 v=40
457080 On ch=1 n=e6 v=40
457188 On ch=1 n=e6 v=0
457188 On ch=1 n=b5 v=0
457200 On ch=1 n=e6 v=42
457308 On ch=1 n=e6 v=0
457320 On ch=1 n=b6 v=42
457320 On ch=1 n=d#7 v=44
457428 On ch=1 n=d#7 v=0
457428 On ch=1 n=b6 v=0
457440 On ch=1 n=d#6 v=40
457548 On ch=1 n=d#6 v=0
457560 On ch=1 n=b6 v=46
457560 On ch=1 n=e7 v=48
457668 On ch=1 n=e7 v=0
457668 On ch=1 n=b6 v=0
457680 On ch=1 n=e6 v=51
457788 On ch=1 n=e6 v=0
457800 On ch=1 n=e7 v=54
457800 On ch=1 n=b6 v=52
457908 On ch=1 n=b6 v=0
457908 On ch=1 n=e7 v=0
457920 On ch=1 n=e7 v=57
458028 On ch=1 n=e7 v=0
458040 On ch=1 n=b7 v=58
458040 On ch=1 n=e8 v=60
458148 On ch=1 n=e8 v=0
458148 On ch=1 n=b7 v=0
458160 On ch=1 n=e7 v=57
458268 On ch=1 n=e7 v=0
458280 On ch=1 n=e7 v=54
458280 On ch=1 n=b6 v=52
458388 On ch=1 n=b6 v=0
458388 On ch=1 n=e7 v=0
458400 On ch=1 n=e6 v=51
458508 On ch=1 n=e6 v=0
458520 On ch=1 n=g#7 v=97
458520 On ch=1 n=e7 v=91
458628 On ch=1 n=e7 v=0
458640 On ch=1 n=g#6 v=90
458736 On ch=1 n=g#7 v=0
458748 On ch=1 n=g#6 v=0
458760 On ch=1 n=g#6 v=91
458760 On ch=1 n=e6 v=89
458868 On ch=1 n=e6 v=0
458868 On ch=1 n=g#6 v=0
458880 On ch=1 n=g#5 v=89
458988 On ch=1 n=g#5 v=0
459000 On ch=1 n=g#6 v=91
459000 On ch=1 n=e6 v=89
459108 On ch=1 n=e6 v=0
459108 On ch=1 n=g#6 v=0
459120 On ch=1 n=g#6 v=89
459228 On ch=1 n=g#6 v=0
459240 On ch=1 n=a7 v=95
459240 On ch=1 n=f#7 v=88
459348 On ch=1 n=f#7 v=0
459360 On ch=1 n=a6 v=88
459456 On ch=1 n=a7 v=0
459468 On ch=1 n=a6 v=0
459480 On ch=1 n=b7 v=97
459480 On ch=1 n=g#7 v=90
459588 On ch=1 n=g#7 v=0
459600 On ch=1 n=b6 v=90
459696 On ch=1 n=b7 v=0
459708 On ch=1 n=b6 v=0
459720 On ch=1 n=b6 v=91
459720 On ch=1 n=g#6 v=89
459828 On ch=1 n=g#6 v=0
459828 On ch=1 n=b6 v=0
459840 On ch=1 n=b5 v=89
459948 On ch=1 n=b5 v=0
459960 On ch=1 n=b6 v=91
459960 On ch=1 n=g#6 v=89
460068 On ch=1 n=g#6 v=0
460068 On ch=1 n=b6 v=0
460080 On ch=1 n=b6 v=89
460188 On ch=1 n=b6 v=0
460200 On ch=1 n=g#7 v=88
460200 On ch=1 n=b7 v=90
460308 On ch=1 n=b7 v=0
460308 On ch=1 n=g#7 v=0
460320 On ch=1 n=b6 v=88
460428 On ch=1 n=b6 v=0
460440 On ch=1 n=b7 v=92
460440 On ch=1 n=g#7 v=90
460548 On ch=1 n=g#7 v=0
460548 On ch=1 n=b7 v=0
460560 On ch=1 n=b6 v=90
460668 On ch=1 n=b6 v=0
460680 On ch=1 n=b6 v=91
460680 On ch=1 n=g#6 v=89
460788 On ch=1 n=g#6 v=0
460788 On ch=1 n=b6 v=0
460800 On ch=1 n=b5 v=89
460908 On ch=1 n=b5 v=0
460920 On ch=1 n=b6 v=91
460920 On ch=1 n=g#6 v=89
461028 On ch=1 n=g#6 v=0
461028 On ch=1 n=b6 v=0
461040 On ch=1 n=b6 v=89
461148 On ch=1 n=b6 v=0
461160 On ch=1 n=g#7 v=88
461160 On ch=1 n=c8 v=90
461268 On ch=1 n=c8 v=0
461268 On ch=1 n=g#7 v=0
461280 On ch=1 n=c7 v=88
461388 On ch=1 n=c7 v=0
461400 On ch=1 n=c#8 v=92
461400 On ch=1 n=a7 v=90
461508 On ch=1 n=a7 v=0
461508 On ch=1 n=c#8 v=0
461520 On ch=1 n=c#7 v=90
461628 On ch=1 n=c#7 v=0
461640 On ch=1 n=c#7 v=91
461640 On ch=1 n=a6 v=89
461748 On ch=1 n=a6 v=0
461748 On ch=1 n=c#7 v=0
461760 On ch=1 n=c#6 v=89
461868 On ch=1 n=c#6 v=0
461880 On ch=1 n=a6 v=91
461880 On ch=1 n=f#6 v=89
461988 On ch=1 n=f#6 v=0
461988 On ch=1 n=a6 v=0
462000 On ch=1 n=a5 v=89
462108 On ch=1 n=a5 v=0
462120 On ch=1 n=g#6 v=90
462120 On ch=1 n=e6 v=88
462228 On ch=1 n=e6 v=0
462228 On ch=1 n=g#6 v=0
462240 On ch=1 n=g#5 v=88
462348 On ch=1 n=g#5 v=0
462360 On ch=1 n=f#6 v=92
462360 On ch=1 n=d#6 v=90
462468 On ch=1 n=d#6 v=0
462468 On ch=1 n=f#6 v=0
462480 On ch=1 n=f#5 v=90
462588 On ch=1 n=f#5 v=0
462600 On ch=1 n=f#6 v=91
462600 On ch=1 n=d#6 v=89
462708 On ch=1 n=d#6 v=0
462708 On ch=1 n=f#6 v=0
462720 On ch=1 n=f#6 v=89
462828 On ch=1 n=f#6 v=0
462840 On ch=1 n=d#7 v=89
462840 On ch=1 n=f#7 v=91
462948 On ch=1 n=f#7 v=0
462948 On ch=1 n=d#7 v=0
462960 On ch=1 n=f#6 v=89
463068 On ch=1 n=f#6 v=0
463080 On ch=1 n=f7 v=90
463080 On ch=1 n=d7 v=88
463188 On ch=1 n=d7 v=0
463188 On ch=1 n=f7 v=0
463200 On ch=1 n=f6 v=88
463308 On ch=1 n=f6 v=0
463320 On ch=1 n=d#7 v=90
463320 On ch=1 n=f#7 v=92
463428 On ch=1 n=f#7 v=0
463428 On ch=1 n=d#7 v=0
463440 On ch=1 n=f#6 v=90
463548 On ch=1 n=f#6 v=0
463560 On ch=1 n=d#7 v=89
463560 On ch=1 n=f#7 v=91
463668 On ch=1 n=f#7 v=0
463668 On ch=1 n=d#7 v=0
463680 On ch=1 n=f#7 v=89
463788 On ch=1 n=f#7 v=0
463800 On ch=1 n=d#8 v=89
463800 On ch=1 n=f#8 v=91
463908 On ch=1 n=f#8 v=0
463908 On ch=1 n=d#8 v=0
463920 On ch=1 n=f#7 v=89
464028 On ch=1 n=f#7 v=0
464040 On ch=1 n=f#7 v=90
464040 On ch=1 n=d#7 v=88
464148 On ch=1 n=d#7 v=0
464148 On ch=1 n=f#7 v=0
464160 On ch=1 n=f#6 v=88
464268 On ch=1 n=f#6 v=0
464280 On ch=1 n=d#7 v=90
464280 On ch=1 n=f#7 v=92
464388 On ch=1 n=f#7 v=0
464388 On ch=1 n=d#7 v=0
464400 On ch=1 n=f#6 v=90
464508 On ch=1 n=f#6 v=0
464520 On ch=1 n=f#6 v=91
464520 On ch=1 n=d#6 v=89
464628 On ch=1 n=d#6 v=0
464628 On ch=1 n=f#6 v=0
464640 On ch=1 n=f#5 v=89
464748 On ch=1 n=f#5 v=0
464760 On ch=1 n=d#6 v=89
464760 On ch=1 n=f#6 v=91
464868 On ch=1 n=f#6 v=0
464868 On ch=1 n=d#6 v=0
464880 On ch=1 n=f#6 v=89
464988 On ch=1 n=f#6 v=0
465000 On ch=1 n=e7 v=88
465000 On ch=1 n=g#7 v=90
465108 On ch=1 n=g#7 v=0
465108 On ch=1 n=e7 v=0
465120 On ch=1 n=g#6 v=88
465228 On ch=1 n=g#6 v=0
465240 On ch=1 n=f#7 v=90
465240 On ch=1 n=a7 v=92
465348 On ch=1 n=a7 v=0
465348 On ch=1 n=f#7 v=0
465360 On ch=1 n=a6 v=90
465468 On ch=1 n=a6 v=0
465480 On ch=1 n=a6 v=91
465480 On ch=1 n=f#6 v=89
465588 On ch=1 n=f#6 v=0
465588 On ch=1 n=a6 v=0
465600 On ch=1 n=a5 v=89
465708 On ch=1 n=a5 v=0
465720 On ch=1 n=f#6 v=89
465720 On ch=1 n=a6 v=91
465828 On ch=1 n=a6 v=0
465828 On ch=1 n=f#6 v=0
465840 On ch=1 n=a6 v=89
465948 On ch=1 n=a6 v=0
465960 On ch=1 n=f#7 v=88
465960 On ch=1 n=a7 v=90
466068 On ch=1 n=a7 v=0
466068 On ch=1 n=f#7 v=0
466080 On ch=1 n=a6 v=88
466188 On ch=1 n=a6 v=0
466200 On ch=1 n=a7 v=92
466200 On ch=1 n=f#7 v=90
466308 On ch=1 n=f#7 v=0
466308 On ch=1 n=a7 v=0
466320 On ch=1 n=a6 v=90
466428 On ch=1 n=a6 v=0
466440 On ch=1 n=a6 v=91
466440 On ch=1 n=f#6 v=89
466548 On ch=1 n=f#6 v=0
466548 On ch=1 n=a6 v=0
466560 On ch=1 n=a5 v=89
466668 On ch=1 n=a5 v=0
466680 On ch=1 n=e6 v=89
466680 On ch=1 n=a#6 v=91
466788 On ch=1 n=a#6 v=0
466788 On ch=1 n=e6 v=0
466800 On ch=1 n=a#6 v=89
466908 On ch=1 n=a#6 v=0
466920 On ch=1 n=e7 v=88
466920 On ch=1 n=a#7 v=90
467028 On ch=1 n=a#7 v=0
467028 On ch=1 n=e7 v=0
467040 On ch=1 n=a#6 v=88
467148 On ch=1 n=a#6 v=0
467160 On ch=1 n=d#7 v=90
467160 On ch=1 n=b7 v=92
467268 On ch=1 n=b7 v=0
467268 On ch=1 n=d#7 v=0
467280 On ch=1 n=b6 v=90
467388 On ch=1 n=b6 v=0
467400 On ch=1 n=b6 v=91
467400 On ch=1 n=d#6 v=89
467508 On ch=1 n=d#6 v=0
467508 On ch=1 n=b6 v=0
467520 On ch=1 n=b5 v=89
467628 On ch=1 n=b5 v=0
467640 On ch=1 n=d#6 v=89
467640 On ch=1 n=b6 v=91
467748 On ch=1 n=b6 v=0
467748 On ch=1 n=d#6 v=0
467760 On ch=1 n=d#6 v=89
467868 On ch=1 n=d#6 v=0
467880 On ch=1 n=b6 v=88
467880 On ch=1 n=d#7 v=90
467988 On ch=1 n=d#7 v=0
467988 On ch=1 n=b6 v=0
468000 On ch=1 n=d#6 v=88
468108 On ch=1 n=d#6 v=0
468120 On ch=1 n=g#6 v=88
468120 On ch=1 n=b6 v=90
468120 On ch=1 n=e7 v=92
468228 On ch=1 n=e7 v=0
468228 On ch=1 n=b6 v=0
468228 On ch=1 n=g#6 v=0
468240 On ch=1 n=e6 v=90
468348 On ch=1 n=e6 v=0
468360 On ch=1 n=g#5 v=87
468360 On ch=1 n=b5 v=89
468360 On ch=1 n=e6 v=91
468468 On ch=1 n=e6 v=0
468468 On ch=1 n=b5 v=0
468468 On ch=1 n=g#5 v=0
468480 On ch=1 n=e5 v=89
468588 On ch=1 n=e5 v=0
468600 On ch=1 n=g#5 v=87
468600 On ch=1 n=b5 v=89
468600 On ch=1 n=e6 v=91
468708 On ch=1 n=e6 v=0
468708 On ch=1 n=b5 v=0
468708 On ch=1 n=g#5 v=0
468720 On ch=1 n=e6 v=89
468828 On ch=1 n=e6 v=0
468840 On ch=1 n=g#6 v=86
468840 On ch=1 n=b6 v=88
468840 On ch=1 n=e7 v=90
468948 On ch=1 n=e7 v=0
468948 On ch=1 n=b6 v=0
468948 On ch=1 n=g#6 v=0
468960 On ch=1 n=e6 v=88
469068 On ch=1 n=e6 v=0
469080 On ch=1 n=e7 v=92
469080 On ch=1 n=g6 v=88
469080 On ch=1 n=c7 v=90
469188 On ch=1 n=c7 v=0
469188 On ch=1 n=g6 v=0
469188 On ch=1 n=e7 v=0
469200 On ch=1 n=e6 v=90
469308 On ch=1 n=e6 v=0
469320 On ch=1 n=e7 v=91
469320 On ch=1 n=g6 v=87
469320 On ch=1 n=c7 v=89
469428 On ch=1 n=c7 v=0
469428 On ch=1 n=g6 v=0
469428 On ch=1 n=e7 v=0
469440 On ch=1 n=e7 v=89
469548 On ch=1 n=e7 v=0
469560 On ch=1 n=e8 v=91
469560 On ch=1 n=g7 v=87
469560 On ch=1 n=c8 v=89
469668 On ch=1 n=c8 v=0
469668 On ch=1 n=g7 v=0
469668 On ch=1 n=e8 v=0
469680 On ch=1 n=e7 v=89
469788 On ch=1 n=e7 v=0
469800 On ch=1 n=e8 v=90
469800 On ch=1 n=g7 v=86
469800 On ch=1 n=c8 v=88
469908 On ch=1 n=c8 v=0
469908 On ch=1 n=g7 v=0
469908 On ch=1 n=e8 v=0
469920 On ch=1 n=e7 v=88
470028 On ch=1 n=e7 v=0
470040 On ch=1 n=b7 v=90
470040 On ch=1 n=e8 v=92
470040 On ch=1 n=g#7 v=88
470148 On ch=1 n=g#7 v=0
470148 On ch=1 n=e8 v=0
470148 On ch=1 n=b7 v=0
470160 On ch=1 n=e7 v=90
470268 On ch=1 n=e7 v=0
470280 On ch=1 n=b6 v=89
470280 On ch=1 n=e7 v=91
470280 On ch=1 n=g#6 v=87
470388 On ch=1 n=g#6 v=0
470388 On ch=1 n=e7 v=0
470388 On ch=1 n=b6 v=0
470400 On ch=1 n=e6 v=89
470508 On ch=1 n=e6 v=0
470520 On ch=1 n=g#6 v=87
470520 On ch=1 n=b6 v=89
470520 On ch=1 n=e7 v=91
470628 On ch=1 n=e7 v=0
470628 On ch=1 n=b6 v=0
470628 On ch=1 n=g#6 v=0
470640 On ch=1 n=e6 v=89
470748 On ch=1 n=e6 v=0
470760 On ch=1 n=g#6 v=86
470760 On ch=1 n=b6 v=88
470760 On ch=1 n=d#7 v=90
470868 On ch=1 n=d#7 v=0
470868 On ch=1 n=b6 v=0
470868 On ch=1 n=g#6 v=0
470880 On ch=1 n=d#6 v=88
470988 On ch=1 n=d#6 v=0
471000 On ch=1 n=e7 v=92
471000 On ch=1 n=g6 v=88
471000 On ch=1 n=c7 v=90
471108 On ch=1 n=c7 v=0
471108 On ch=1 n=g6 v=0
471108 On ch=1 n=e7 v=0
471120 On ch=1 n=e6 v=90
471228 On ch=1 n=e6 v=0
471240 On ch=1 n=e7 v=91
471240 On ch=1 n=g6 v=87
471240 On ch=1 n=c7 v=89
471348 On ch=1 n=c7 v=0
471348 On ch=1 n=g6 v=0
471348 On ch=1 n=e7 v=0
471360 On ch=1 n=e7 v=89
471468 On ch=1 n=e7 v=0
471480 On ch=1 n=e8 v=91
471480 On ch=1 n=g7 v=87
471480 On ch=1 n=c8 v=89
471588 On ch=1 n=c8 v=0
471588 On ch=1 n=g7 v=0
471588 On ch=1 n=e8 v=0
471600 On ch=1 n=e7 v=89
471708 On ch=1 n=e7 v=0
471720 On ch=1 n=e8 v=90
471720 On ch=1 n=g7 v=86
471720 On ch=1 n=c8 v=88
471828 On ch=1 n=c8 v=0
471828 On ch=1 n=g7 v=0
471828 On ch=1 n=e8 v=0
471840 On ch=1 n=e7 v=88
471948 On ch=1 n=e7 v=0
471960 On ch=1 n=b7 v=90
471960 On ch=1 n=e8 v=92
471960 On ch=1 n=g#7 v=88
472068 On ch=1 n=g#7 v=0
472068 On ch=1 n=e8 v=0
472068 On ch=1 n=b7 v=0
472080 On ch=1 n=e7 v=90
472188 On ch=1 n=e7 v=0
472200 On ch=1 n=b6 v=89
472200 On ch=1 n=e7 v=91
472200 On ch=1 n=g#6 v=87
472308 On ch=1 n=g#6 v=0
472308 On ch=1 n=e7 v=0
472308 On ch=1 n=b6 v=0
472320 On ch=1 n=e6 v=89
472428 On ch=1 n=e6 v=0
472440 On ch=1 n=g#6 v=87
472440 On ch=1 n=b6 v=89
472440 On ch=1 n=e7 v=91
472548 On ch=1 n=e7 v=0
472548 On ch=1 n=b6 v=0
472548 On ch=1 n=g#6 v=0
472560 On ch=1 n=e6 v=89
472668 On ch=1 n=e6 v=0
472680 On ch=1 n=g#6 v=86
472680 On ch=1 n=b6 v=88
472680 On ch=1 n=d#7 v=90
472788 On ch=1 n=d#7 v=0
472788 On ch=1 n=b6 v=0
472788 On ch=1 n=g#6 v=0
472800 On ch=1 n=d#6 v=88
472908 On ch=1 n=d#6 v=0
472920 On ch=1 n=e7 v=92
472920 On ch=1 n=g6 v=88
472920 On ch=1 n=c7 v=90
473028 On ch=1 n=c7 v=0
473028 On ch=1 n=g6 v=0
473028 On ch=1 n=e7 v=0
473040 On ch=1 n=e6 v=90
473148 On ch=1 n=e6 v=0
473160 On ch=1 n=e7 v=91
473160 On ch=1 n=g6 v=87
473160 On ch=1 n=c7 v=89
473268 On ch=1 n=c7 v=0
473268 On ch=1 n=g6 v=0
473268 On ch=1 n=e7 v=0
473280 On ch=1 n=e7 v=89
473388 On ch=1 n=e7 v=0
473400 On ch=1 n=e8 v=91
473400 On ch=1 n=g7 v=87
473400 On ch=1 n=c8 v=89
473508 On ch=1 n=c8 v=0
473508 On ch=1 n=g7 v=0
473508 On ch=1 n=e8 v=0
473520 On ch=1 n=e7 v=89
473628 On ch=1 n=e7 v=0
473640 On ch=1 n=e8 v=90
473640 On ch=1 n=g7 v=86
473640 On ch=1 n=c8 v=88
473748 On ch=1 n=c8 v=0
473748 On ch=1 n=g7 v=0
473748 On ch=1 n=e8 v=0
473760 On ch=1 n=e7 v=88
473868 On ch=1 n=e7 v=0
473880 On ch=1 n=b7 v=86
473880 On ch=1 n=e8 v=88
473880 On ch=1 n=g#7 v=84
473988 On ch=1 n=g#7 v=0
473988 On ch=1 n=e8 v=0
473988 On ch=1 n=b7 v=0
474000 On ch=1 n=e7 v=89
474108 On ch=1 n=e7 v=0
474120 On ch=1 n=g#7 v=86
474120 On ch=1 n=b7 v=88
474120 On ch=1 n=e8 v=90
474228 On ch=1 n=e8 v=0
474228 On ch=1 n=b7 v=0
474228 On ch=1 n=g#7 v=0
474240 On ch=1 n=e7 v=91
474348 On ch=1 n=e7 v=0
474360 On ch=1 n=e8 v=92
474360 On ch=1 n=g7 v=88
474360 On ch=1 n=c8 v=90
474468 On ch=1 n=c8 v=0
474468 On ch=1 n=g7 v=0
474468 On ch=1 n=e8 v=0
474480 On ch=1 n=e7 v=93
474588 On ch=1 n=e7 v=0
474600 On ch=1 n=e8 v=94
474600 On ch=1 n=g7 v=90
474600 On ch=1 n=c8 v=92
474708 On ch=1 n=c8 v=0
474708 On ch=1 n=g7 v=0
474708 On ch=1 n=e8 v=0
474720 On ch=1 n=e7 v=95
474828 On ch=1 n=e7 v=0
474840 On ch=1 n=b7 v=94
474840 On ch=1 n=e8 v=96
474840 On ch=1 n=g#7 v=92
474948 On ch=1 n=g#7 v=0
474948 On ch=1 n=e8 v=0
474948 On ch=1 n=b7 v=0
474960 On ch=1 n=e7 v=97
475068 On ch=1 n=e7 v=0
475080 On ch=1 n=g#7 v=94
475080 On ch=1 n=b7 v=96
475080 On ch=1 n=e8 v=98
475188 On ch=1 n=e8 v=0
475188 On ch=1 n=b7 v=0
475188 On ch=1 n=g#7 v=0
475200 On ch=1 n=e7 v=99
475308 On ch=1 n=e7 v=0
475320 On ch=1 n=e8 v=100
475320 On ch=1 n=g7 v=96
475320 On ch=1 n=c8 v=98
475428 On ch=1 n=c8 v=0
475428 On ch=1 n=g7 v=0
475428 On ch=1 n=e8 v=0
475440 On ch=1 n=e7 v=101
475548 On ch=1 n=e7 v=0
475560 On ch=1 n=e8 v=102
475560 On ch=1 n=g7 v=98
475560 On ch=1 n=c8 v=100
475668 On ch=1 n=c8 v=0
475668 On ch=1 n=g7 v=0
475668 On ch=1 n=e8 v=0
475680 On ch=1 n=e7 v=103
475788 On ch=1 n=e7 v=0
475800 On ch=1 n=e8 v=104
475800 On ch=1 n=b7 v=102
475800 On ch=1 n=g#7 v=100
475800 Par ch=1 c=64 v=127
475864 On ch=1 n=g#7 v=0
475864 On ch=1 n=b7 v=0
475864 On ch=1 n=e8 v=0
476040 On ch=1 n=b3 v=98
476040 On ch=1 n=b2 v=100
476148 On ch=1 n=b2 v=0
476148 On ch=1 n=b3 v=0
476160 On ch=1 n=b4 v=103
476160 On ch=1 n=b5 v=105
476268 On ch=1 n=b5 v=0
476268 On ch=1 n=b4 v=0
476280 On ch=1 n=c#3 v=102
476280 On ch=1 n=c#4 v=100
476280 Par ch=1 c=64 v=0
476388 On ch=1 n=c#4 v=0
476388 On ch=1 n=c#3 v=0
476400 On ch=1 n=c#5 v=105
476400 On ch=1 n=c#6 v=107
476508 On ch=1 n=c#6 v=0
476508 On ch=1 n=c#5 v=0
476520 On ch=1 n=d#3 v=104
476520 On ch=1 n=d#4 v=102
476628 On ch=1 n=d#4 v=0
476628 On ch=1 n=d#3 v=0
476640 On ch=1 n=d#5 v=107
476640 On ch=1 n=d#6 v=109
476748 On ch=1 n=d#6 v=0
476748 On ch=1 n=d#5 v=0
476760 On ch=1 n=e3 v=106
476760 On ch=1 n=e4 v=104
476868 On ch=1 n=e4 v=0
476868 On ch=1 n=e3 v=0
476880 On ch=1 n=e5 v=109
476880 On ch=1 n=e6 v=111
476988 On ch=1 n=e6 v=0
476988 On ch=1 n=e5 v=0
477000 On ch=1 n=f#3 v=108
477000 On ch=1 n=f#4 v=106
477108 On ch=1 n=f#4 v=0
477108 On ch=1 n=f#3 v=0
477120 On ch=1 n=f#5 v=111
477120 On ch=1 n=f#6 v=113
477228 On ch=1 n=f#6 v=0
477228 On ch=1 n=f#5 v=0
477240 On ch=1 n=g#3 v=113
477240 On ch=1 n=g#4 v=111
477348 On ch=1 n=g#4 v=0
477348 On ch=1 n=g#3 v=0
477360 On ch=1 n=g#5 v=113
477360 On ch=1 n=g#6 v=115
477468 On ch=1 n=g#6 v=0
477468 On ch=1 n=g#5 v=0
477480 On ch=1 n=b3 v=112
477480 On ch=1 n=d#4 v=107
477480 On ch=1 n=f#4 v=105
477480 On ch=1 n=b4 v=110
477588 On ch=1 n=b4 v=0
477588 On ch=1 n=f#4 v=0
477588 On ch=1 n=d#4 v=0
477588 On ch=1 n=b3 v=0
477600 On ch=1 n=b5 v=115
477600 On ch=1 n=d#6 v=110
477600 On ch=1 n=f#6 v=112
477600 On ch=1 n=b6 v=117
477708 On ch=1 n=b6 v=0
477708 On ch=1 n=f#6 v=0
477708 On ch=1 n=d#6 v=0
477708 On ch=1 n=b5 v=0
477720 On ch=1 n=e4 v=114
477720 On ch=1 n=g#4 v=109
477720 On ch=1 n=b4 v=107
477720 On ch=1 n=e5 v=112
477720 Par ch=1 c=64 v=127
477828 On ch=1 n=e5 v=0
477828 On ch=1 n=b4 v=0
477828 On ch=1 n=g#4 v=0
477828 On ch=1 n=e4 v=0
477840 On ch=1 n=e6 v=117
477840 On ch=1 n=g#6 v=112
477840 On ch=1 n=b6 v=114
477840 On ch=1 n=e7 v=119
477948 On ch=1 n=e7 v=0
477948 On ch=1 n=b6 v=0
477948 On ch=1 n=g#6 v=0
477948 On ch=1 n=e6 v=0
477960 On ch=1 n=b3 v=110
477960 On ch=1 n=b4 v=108
478068 On ch=1 n=b4 v=0
478068 On ch=1 n=b3 v=0
478080 On ch=1 n=b5 v=113
478080 On ch=1 n=b6 v=115
478188 On ch=1 n=b6 v=0
478188 On ch=1 n=b5 v=0
478200 On ch=1 n=c#4 v=111
478200 On ch=1 n=c#5 v=109
478200 Par ch=1 c=64 v=0
478308 On ch=1 n=c#5 v=0
478308 On ch=1 n=c#4 v=0
478320 On ch=1 n=c#6 v=114
478320 On ch=1 n=c#7 v=116
478428 On ch=1 n=c#7 v=0
478428 On ch=1 n=c#6 v=0
478440 On ch=1 n=d#4 v=113
478440 On ch=1 n=d#5 v=111
478548 On ch=1 n=d#5 v=0
478548 On ch=1 n=d#4 v=0
478560 On ch=1 n=d#6 v=116
478560 On ch=1 n=d#7 v=118
478668 On ch=1 n=d#7 v=0
478668 On ch=1 n=d#6 v=0
478680 On ch=1 n=e4 v=115
478680 On ch=1 n=e5 v=113
478788 On ch=1 n=e5 v=0
478788 On ch=1 n=e4 v=0
478800 On ch=1 n=e6 v=118
478800 On ch=1 n=e7 v=120
478908 On ch=1 n=e7 v=0
478908 On ch=1 n=e6 v=0
478920 On ch=1 n=f#4 v=117
478920 On ch=1 n=f#5 v=115
479028 On ch=1 n=f#5 v=0
479028 On ch=1 n=f#4 v=0
479040 On ch=1 n=f#6 v=120
479040 On ch=1 n=f#7 v=122
479148 On ch=1 n=f#7 v=0
479148 On ch=1 n=f#6 v=0
479160 On ch=1 n=g#4 v=119
479160 On ch=1 n=g#5 v=117
479268 On ch=1 n=g#5 v=0
479268 On ch=1 n=g#4 v=0
479280 On ch=1 n=g#6 v=122
479280 On ch=1 n=g#7 v=124
479388 On ch=1 n=g#7 v=0
479388 On ch=1 n=g#6 v=0
479400 On ch=1 n=b4 v=121
479400 On ch=1 n=d#5 v=116
479400 On ch=1 n=f#5 v=114
479400 On ch=1 n=b5 v=119
479508 On ch=1 n=b5 v=0
479508 On ch=1 n=f#5 v=0
479508 On ch=1 n=d#5 v=0
479508 On ch=1 n=b4 v=0
479520 On ch=1 n=b6 v=124
479520 On ch=1 n=d#7 v=119
479520 On ch=1 n=f#7 v=121
479520 On ch=1 n=b7 v=126
479628 On ch=1 n=b7 v=0
479628 On ch=1 n=f#7 v=0
479628 On ch=1 n=d#7 v=0
479628 On ch=1 n=b6 v=0
479640 Par ch=1 c=64 v=127
479760 On ch=1 n=e7 v=115
479760 On ch=1 n=g#7 v=110
479760 On ch=1 n=b7 v=112
479760 On ch=1 n=e8 v=117
479976 On ch=1 n=e8 v=0
479976 On ch=1 n=b7 v=0
479976 On ch=1 n=g#7 v=0
479976 On ch=1 n=e7 v=0
480000 Par ch=1 c=64 v=0
480060 Par ch=1 c=64 v=127
480120 On ch=1 n=b6 v=115
480120 On ch=1 n=d#7 v=110
480120 On ch=1 n=f#7 v=112
480120 On ch=1 n=b7 v=117
480336 On ch=1 n=b7 v=0
480336 On ch=1 n=f#7 v=0
480336 On ch=1 n=d#7 v=0
480336 On ch=1 n=b6 v=0
480480 Par ch=1 c=64 v=0
480540 Par ch=1 c=64 v=127
480600 On ch=1 n=e6 v=115
480600 On ch=1 n=g#6 v=110
480600 On ch=1 n=b6 v=112
480600 On ch=1 n=e7 v=117
480816 On ch=1 n=e7 v=0
480816 On ch=1 n=b6 v=0
480816 On ch=1 n=g#6 v=0
480816 On ch=1 n=e6 v=0
480960 Par ch=1 c=64 v=0
481020 Par ch=1 c=64 v=127
481080 On ch=1 n=b5 v=115
481080 On ch=1 n=d#6 v=110
481080 On ch=1 n=f#6 v=112
481080 On ch=1 n=b6 v=117
481296 On ch=1 n=b6 v=0
481296 On ch=1 n=f#6 v=0
481296 On ch=1 n=d#6 v=0
481296 On ch=1 n=b5 v=0
481440 Par ch=1 c=64 v=0
481500 Par ch=1 c=64 v=127
481560 On ch=1 n=e5 v=115
481560 On ch=1 n=g#5 v=110
481560 On ch=1 n=b5 v=112
481560 On ch=1 n=e6 v=117
481776 On ch=1 n=e6 v=0
481776 On ch=1 n=b5 v=0
481776 On ch=1 n=g#5 v=0
481776 On ch=1 n=e5 v=0
482400 On ch=1 n=e6 v=123
482400 On ch=1 n=g#6 v=118
482400 On ch=1 n=b6 v=120
482400 On ch=1 n=e7 v=125
482508 On ch=1 n=e7 v=0
482508 On ch=1 n=b6 v=0
482508 On ch=1 n=g#6 v=0
482508 On ch=1 n=e6 v=0
482520 On ch=1 n=e6 v=125
482520 On ch=1 n=g#6 v=120
482520 On ch=1 n=b6 v=122
482520 On ch=1 n=e7 v=127
482736 On ch=1 n=e7 v=0
482736 On ch=1 n=b6 v=0
482736 On ch=1 n=g#6 v=0
482736 On ch=1 n=e6 v=0
483360 On ch=1 n=e7 v=123
483360 On ch=1 n=g#7 v=118
483360 On ch=1 n=b7 v=120
483360 On ch=1 n=e8 v=125
483468 On ch=1 n=e8 v=0
483468 On ch=1 n=b7 v=0
483468 On ch=1 n=g#7 v=0
483468 On ch=1 n=e7 v=0
483480 On ch=1 n=e7 v=125
483480 On ch=1 n=g#7 v=120
483480 On ch=1 n=b7 v=122
483480 On ch=1 n=e8 v=127
483696 On ch=1 n=e8 v=0
483696 On ch=1 n=b7 v=0
483696 On ch=1 n=g#7 v=0
483696 On ch=1 n=e7 v=0
484920 Par ch=1 c=64 v=0
487320 Par ch=1 c=64 v=0
487320 Meta TrkEnd
TrkEnd
MTrk
0 SeqSpec 43 00 01 00
2400 Par ch=2 c=0 v=0
2405 Par ch=2 c=32 v=1
2410 PrCh ch=2 p=0
2415 Par ch=2 c=7 v=127
2420 Par ch=2 c=10 v=64
2425 Par ch=2 c=11 v=127
2430 Par ch=2 c=91 v=51
2435 Par ch=2 c=93 v=0
4266 On ch=2 n=g#3 v=75
4320 On ch=2 n=g#3 v=0
4320 On ch=2 n=g#4 v=80
5040 On ch=2 n=g#4 v=0
5040 On ch=2 n=a4 v=74
5256 On ch=2 n=a4 v=0
5280 On ch=2 n=g#4 v=78
5400 On ch=2 n=g#4 v=0
5400 On ch=2 n=f#4 v=74
5520 Par ch=2 c=64 v=127
5724 On ch=2 n=f#4 v=0
6120 Par ch=2 c=64 v=0
6720 On ch=2 n=e4 v=76
7080 On ch=2 n=e4 v=0
7080 On ch=2 n=f#4 v=74
7200 On ch=2 n=f#4 v=0
7200 On ch=2 n=e4 v=78
7260 On ch=2 n=e4 v=0
7260 On ch=2 n=d#4 v=74
7674 On ch=2 n=d#4 v=0
7680 On ch=2 n=c#4 v=80
8040 On ch=2 n=c#4 v=0
8040 On ch=2 n=d#4 v=71
8160 On ch=2 n=d#4 v=0
8160 On ch=2 n=c#4 v=64
8220 On ch=2 n=c#4 v=0
8220 On ch=2 n=b3 v=60
8634 On ch=2 n=b3 v=0
8640 On ch=2 n=a3 v=62
8700 On ch=2 n=a3 v=0
8700 On ch=2 n=g#3 v=58
8958 On ch=2 n=f3 v=61
9012 On ch=2 n=f3 v=0
9012 On ch=2 n=f#3 v=62
9066 On ch=2 n=f#3 v=0
9066 On ch=2 n=g#3 v=63
9114 On ch=2 n=g#3 v=0
9120 On ch=2 n=g#3 v=0
9120 On ch=2 n=f#3 v=64
9120 Par ch=2 c=64 v=127
9182 On ch=2 n=f#3 v=0
9184 On ch=2 n=g#3 v=69
9250 On ch=2 n=g#3 v=0
9260 On ch=2 n=f#3 v=63
9318 On ch=2 n=f#3 v=0
9324 On ch=2 n=g#3 v=64
9387 On ch=2 n=g#3 v=0
9393 On ch=2 n=f#3 v=55
9450 On ch=2 n=f#3 v=0
9462 On ch=2 n=g#3 v=59
9522 On ch=2 n=g#3 v=0
9527 On ch=2 n=f#3 v=58
9587 On ch=2 n=f#3 v=0
9600 On ch=2 n=g#3 v=58
9650 On ch=2 n=g#3 v=0
9663 On ch=2 n=f#3 v=53
9720 On ch=2 n=f#3 v=0
9728 On ch=2 n=g#3 v=61
9796 On ch=2 n=g#3 v=0
9802 On ch=2 n=f#3 v=62
9853 On ch=2 n=f#3 v=0
9872 On ch=2 n=g#3 v=66
9931 On ch=2 n=g#3 v=0
9941 On ch=2 n=f#3 v=58
10002 On ch=2 n=f#3 v=0
10006 On ch=2 n=g#3 v=65
10067 On ch=2 n=g#3 v=0
10080 On ch=2 n=f#3 v=64
10143 On ch=2 n=f#3 v=0
10151 On ch=2 n=g#3 v=69
10210 On ch=2 n=g#3 v=0
10223 On ch=2 n=f#3 v=60
10283 On ch=2 n=f#3 v=0
10286 On ch=2 n=g#3 v=65
10352 On ch=2 n=g#3 v=0
10360 On ch=2 n=f#3 v=57
10419 On ch=2 n=f#3 v=0
10426 On ch=2 n=g#3 v=61
10487 On ch=2 n=g#3 v=0
10493 On ch=2 n=f#3 v=68
10550 On ch=2 n=f#3 v=0
10560 On ch=2 n=g#3 v=61
10627 On ch=2 n=g#3 v=0
10631 On ch=2 n=f#3 v=56
10695 On ch=2 n=f#3 v=0
10699 On ch=2 n=g#3 v=65
10755 On ch=2 n=g#3 v=0
10768 On ch=2 n=f#3 v=58
10821 On ch=2 n=f#3 v=0
10834 On ch=2 n=g#3 v=66
10848 On ch=2 n=f3 v=64
10888 On ch=2 n=g#3 v=0
10902 On ch=2 n=f3 v=0
10902 On ch=2 n=f#3 v=64
10956 On ch=2 n=f#3 v=0
10956 On ch=2 n=g#3 v=66
11010 On ch=2 n=g#3 v=0
11010 On ch=2 n=a3 v=68
11064 On ch=2 n=a3 v=0
11064 On ch=2 n=c4 v=70
11118 On ch=2 n=c4 v=0
11118 On ch=2 n=c#4 v=72
11172 On ch=2 n=c#4 v=0
11172 On ch=2 n=d#4 v=75
11226 On ch=2 n=d#4 v=0
11226 On ch=2 n=e4 v=77
11280 On ch=2 n=e4 v=0
11280 On ch=2 n=c4 v=80
11334 On ch=2 n=c4 v=0
11334 On ch=2 n=d#4 v=80
11388 On ch=2 n=d#4 v=0
11388 On ch=2 n=c#4 v=80
11442 On ch=2 n=c#4 v=0
11442 Par ch=2 c=64 v=0
11442 On ch=2 n=b3 v=80
11496 On ch=2 n=b3 v=0
11496 On ch=2 n=a3 v=80
11550 On ch=2 n=a3 v=0
11550 On ch=2 n=g#3 v=80
11604 On ch=2 n=g#3 v=0
11604 On ch=2 n=a3 v=80
11658 On ch=2 n=a3 v=0
11658 On ch=2 n=e3 v=80
11712 On ch=2 n=e3 v=0
11712 On ch=2 n=f#3 v=80
11766 On ch=2 n=f#3 v=0
11766 On ch=2 n=g3 v=80
11946 On ch=2 n=g3 v=0
11946 On ch=2 n=g#3 v=42
12000 On ch=2 n=g#3 v=0
12000 On ch=2 n=g#3 v=42
12000 Par ch=2 c=64 v=127
12216 On ch=2 n=g#3 v=0
12480 On ch=2 n=g#2 v=38
12696 On ch=2 n=g#2 v=0
12720 Par ch=2 c=64 v=0
12840 Par ch=2 c=64 v=127
12960 Par ch=2 c=64 v=0
13020 Par ch=2 c=64 v=127
13080 Par ch=2 c=64 v=0
13440 On ch=2 n=f#3 v=34
13440 On ch=2 n=f#2 v=34
13440 Par ch=2 c=64 v=127
13656 On ch=2 n=f#2 v=0
13656 On ch=2 n=f#3 v=0
13800 Par ch=2 c=64 v=0
13920 On ch=2 n=g#3 v=42
13920 Par ch=2 c=64 v=127
14136 On ch=2 n=g#3 v=0
14400 On ch=2 n=g#2 v=38
14616 On ch=2 n=g#2 v=0
14640 Par ch=2 c=64 v=0
14760 Par ch=2 c=64 v=127
14880 Par ch=2 c=64 v=0
14940 Par ch=2 c=64 v=127
15000 Par ch=2 c=64 v=0
15360 On ch=2 n=f#3 v=34
15360 On ch=2 n=f#2 v=34
15360 Par ch=2 c=64 v=127
15576 On ch=2 n=f#2 v=0
15576 On ch=2 n=f#3 v=0
15720 Par ch=2 c=64 v=0
15840 On ch=2 n=g#3 v=42
15840 Par ch=2 c=64 v=127
16056 On ch=2 n=g#3 v=0
16320 On ch=2 n=g#2 v=48
16536 On ch=2 n=g#2 v=0
16560 Par ch=2 c=64 v=0
16680 Par ch=2 c=64 v=127
16800 Par ch=2 c=64 v=0
16860 Par ch=2 c=64 v=127
16920 Par ch=2 c=64 v=0
17280 On ch=2 n=c#3 v=55
17280 Par ch=2 c=64 v=127
17340 On ch=2 n=e3 v=59
17400 On ch=2 n=a3 v=63
17401 On ch=2 n=a3 v=0
17496 On ch=2 n=e3 v=0
17496 On ch=2 n=c#3 v=0
17640 Par ch=2 c=64 v=0
17760 On ch=2 n=g#3 v=65
17760 Par ch=2 c=64 v=127
17824 On ch=2 n=g#3 v=0
18240 On ch=2 n=g#2 v=70
18304 On ch=2 n=g#2 v=0
18480 Par ch=2 c=64 v=0
18600 Par ch=2 c=64 v=127
18720 Par ch=2 c=64 v=0
18780 Par ch=2 c=64 v=127
18840 Par ch=2 c=64 v=0
19200 On ch=2 n=c#3 v=78
19200 Par ch=2 c=64 v=127
19260 On ch=2 n=e3 v=82
19320 On ch=2 n=a3 v=86
19321 On ch=2 n=a3 v=0
19416 On ch=2 n=e3 v=0
19416 On ch=2 n=c#3 v=0
19560 Par ch=2 c=64 v=0
19680 On ch=2 n=g#2 v=115
19680 Par ch=2 c=64 v=127
19734 On ch=2 n=g#2 v=0
19734 On ch=2 n=g#3 v=105
19788 On ch=2 n=g#3 v=0
19788 On ch=2 n=g#4 v=100
19842 On ch=2 n=g#5 v=120
20398 On ch=2 n=g#4 v=0
20400 On ch=2 n=g#5 v=0
20400 On ch=2 n=a5 v=108
20400 On ch=2 n=a4 v=103
20400 Par ch=2 c=64 v=0
20520 Par ch=2 c=64 v=127
20616 On ch=2 n=a4 v=0
20616 On ch=2 n=a5 v=0
20640 On ch=2 n=g#5 v=103
20640 On ch=2 n=g#4 v=99
20640 Par ch=2 c=64 v=0
20700 Par ch=2 c=64 v=127
20760 On ch=2 n=g#4 v=0
20760 On ch=2 n=g#5 v=0
20760 On ch=2 n=f#5 v=95
20760 On ch=2 n=f#4 v=93
20760 Par ch=2 c=64 v=0
20880 Par ch=2 c=64 v=127
21084 On ch=2 n=f#4 v=0
21084 On ch=2 n=f#5 v=0
21480 Par ch=2 c=64 v=0
22080 On ch=2 n=e4 v=90
22080 On ch=2 n=e5 v=92
22080 Par ch=2 c=64 v=127
22440 On ch=2 n=e4 v=0
22440 On ch=2 n=f#4 v=88
22440 On ch=2 n=f#5 v=88
22440 Par ch=2 c=64 v=0
22467 On ch=2 n=e5 v=0
22560 On ch=2 n=e4 v=90
22560 On ch=2 n=e5 v=90
22571 On ch=2 n=f#4 v=0
22583 On ch=2 n=f#5 v=0
22620 On ch=2 n=e5 v=0
22620 On ch=2 n=e4 v=0
22620 On ch=2 n=d#4 v=94
22620 On ch=2 n=d#5 v=94
22800 Par ch=2 c=64 v=127
23034 On ch=2 n=d#5 v=0
23034 On ch=2 n=d#4 v=0
23040 On ch=2 n=c#4 v=90
23040 On ch=2 n=c#5 v=90
23040 Par ch=2 c=64 v=0
23280 Par ch=2 c=64 v=127
23400 On ch=2 n=c#5 v=0
23400 On ch=2 n=c#4 v=0
23400 On ch=2 n=d#4 v=86
23400 On ch=2 n=d#5 v=86
23400 Par ch=2 c=64 v=0
23460 Par ch=2 c=64 v=127
23508 On ch=2 n=d#5 v=0
23520 On ch=2 n=d#4 v=0
23520 On ch=2 n=c#4 v=92
23520 On ch=2 n=c#5 v=92
23520 Par ch=2 c=64 v=0
23580 On ch=2 n=c#5 v=0
23580 On ch=2 n=c#4 v=0
23580 On ch=2 n=b3 v=96
23580 On ch=2 n=b4 v=96
23760 Par ch=2 c=64 v=127
23994 On ch=2 n=b4 v=0
23994 On ch=2 n=b3 v=0
24000 On ch=2 n=a4 v=92
24000 On ch=2 n=a3 v=92
24000 Par ch=2 c=64 v=0
24060 On ch=2 n=a3 v=0
24060 On ch=2 n=a4 v=0
24060 On ch=2 n=g#3 v=88
24060 On ch=2 n=g#4 v=88
24240 Par ch=2 c=64 v=127
24318 On ch=2 n=f3 v=93
24318 On ch=2 n=f4 v=93
24318 Par ch=2 c=64 v=0
24320 On ch=2 n=g#4 v=0
24320 On ch=2 n=g#3 v=0
24372 On ch=2 n=f4 v=0
24372 On ch=2 n=f3 v=0
24372 On ch=2 n=f#3 v=94
24372 On ch=2 n=f#4 v=94
24426 On ch=2 n=f#4 v=0
24426 On ch=2 n=f#3 v=0
24426 On ch=2 n=g#3 v=95
24426 On ch=2 n=g#4 v=95
24480 On ch=2 n=g#4 v=0
24480 On ch=2 n=g#3 v=0
24480 Par ch=2 c=64 v=127
24480 On ch=2 n=f#4 v=96
24480 On ch=2 n=f#3 v=96
24542 On ch=2 n=f#3 v=0
24542 On ch=2 n=f#4 v=0
24544 On ch=2 n=g#4 v=101
24544 On ch=2 n=g#3 v=101
24610 On ch=2 n=g#3 v=0
24610 On ch=2 n=g#4 v=0
24620 On ch=2 n=f#4 v=95
24620 On ch=2 n=f#3 v=95
24678 On ch=2 n=f#3 v=0
24678 On ch=2 n=f#4 v=0
24684 On ch=2 n=g#4 v=96
24684 On ch=2 n=g#3 v=96
24747 On ch=2 n=g#3 v=0
24747 On ch=2 n=g#4 v=0
24753 On ch=2 n=f#4 v=87
24753 On ch=2 n=f#3 v=87
24810 On ch=2 n=f#3 v=0
24810 On ch=2 n=f#4 v=0
24822 On ch=2 n=g#4 v=91
24822 On ch=2 n=g#3 v=91
24882 On ch=2 n=g#3 v=0
24882 On ch=2 n=g#4 v=0
24887 On ch=2 n=f#4 v=90
24887 On ch=2 n=f#3 v=90
24947 On ch=2 n=f#3 v=0
24947 On ch=2 n=f#4 v=0
24960 On ch=2 n=g#4 v=90
24960 On ch=2 n=g#3 v=90
25010 On ch=2 n=g#3 v=0
25010 On ch=2 n=g#4 v=0
25023 On ch=2 n=f#4 v=85
25023 On ch=2 n=f#3 v=85
25080 On ch=2 n=f#3 v=0
25080 On ch=2 n=f#4 v=0
25088 On ch=2 n=g#4 v=93
25088 On ch=2 n=g#3 v=93
25156 On ch=2 n=g#3 v=0
25156 On ch=2 n=g#4 v=0
25162 On ch=2 n=f#4 v=94
25162 On ch=2 n=f#3 v=94
25213 On ch=2 n=f#3 v=0
25213 On ch=2 n=f#4 v=0
25232 On ch=2 n=g#4 v=98
25232 On ch=2 n=g#3 v=98
25291 On ch=2 n=g#3 v=0
25291 On ch=2 n=g#4 v=0
25301 On ch=2 n=f#4 v=90
25301 On ch=2 n=f#3 v=90
25362 On ch=2 n=f#3 v=0
25362 On ch=2 n=f#4 v=0
25366 On ch=2 n=g#4 v=97
25366 On ch=2 n=g#3 v=97
25427 On ch=2 n=g#3 v=0
25427 On ch=2 n=g#4 v=0
25440 On ch=2 n=f#4 v=96
25440 On ch=2 n=f#3 v=96
25503 On ch=2 n=f#3 v=0
25503 On ch=2 n=f#4 v=0
25511 On ch=2 n=g#4 v=101
25511 On ch=2 n=g#3 v=101
25570 On ch=2 n=g#3 v=0
25570 On ch=2 n=g#4 v=0
25583 On ch=2 n=f#4 v=92
25583 On ch=2 n=f#3 v=92
25643 On ch=2 n=f#3 v=0
25643 On ch=2 n=f#4 v=0
25646 On ch=2 n=g#4 v=97
25646 On ch=2 n=g#3 v=97
25712 On ch=2 n=g#3 v=0
25712 On ch=2 n=g#4 v=0
25720 On ch=2 n=f#4 v=89
25720 On ch=2 n=f#3 v=89
25779 On ch=2 n=f#3 v=0
25779 On ch=2 n=f#4 v=0
25786 On ch=2 n=g#4 v=93
25786 On ch=2 n=g#3 v=93
25847 On ch=2 n=g#3 v=0
25847 On ch=2 n=g#4 v=0
25853 On ch=2 n=f#4 v=100
25853 On ch=2 n=f#3 v=100
25910 On ch=2 n=f#3 v=0
25910 On ch=2 n=f#4 v=0
25920 On ch=2 n=g#4 v=93
25920 On ch=2 n=g#3 v=93
25987 On ch=2 n=g#3 v=0
25987 On ch=2 n=g#4 v=0
25991 On ch=2 n=f#4 v=88
25991 On ch=2 n=f#3 v=88
26055 On ch=2 n=f#3 v=0
26055 On ch=2 n=f#4 v=0
26059 On ch=2 n=g#4 v=97
26059 On ch=2 n=g#3 v=97
26115 On ch=2 n=g#3 v=0
26115 On ch=2 n=g#4 v=0
26118 On ch=2 n=f4 v=80
26118 On ch=2 n=f3 v=80
26172 On ch=2 n=f3 v=0
26172 On ch=2 n=f4 v=0
26172 On ch=2 n=f#4 v=80
26172 On ch=2 n=f#3 v=80
26226 On ch=2 n=f#3 v=0
26226 On ch=2 n=f#4 v=0
26226 On ch=2 n=g#4 v=82
26226 On ch=2 n=g#3 v=82
26280 On ch=2 n=g#3 v=0
26280 On ch=2 n=g#4 v=0
26280 On ch=2 n=a4 v=84
26280 On ch=2 n=a3 v=84
26334 On ch=2 n=a3 v=0
26334 On ch=2 n=a4 v=0
26334 On ch=2 n=b4 v=86
26334 On ch=2 n=b3 v=86
26388 On ch=2 n=b3 v=0
26388 On ch=2 n=b4 v=0
26388 On ch=2 n=c#5 v=88
26388 On ch=2 n=c#4 v=88
26442 On ch=2 n=c#4 v=0
26442 On ch=2 n=c#5 v=0
26442 On ch=2 n=d#5 v=91
26442 On ch=2 n=d#4 v=91
26496 On ch=2 n=d#4 v=0
26496 On ch=2 n=d#5 v=0
26496 On ch=2 n=e5 v=93
26496 On ch=2 n=e4 v=93
26550 On ch=2 n=e4 v=0
26550 On ch=2 n=e5 v=0
26550 On ch=2 n=c5 v=96
26550 On ch=2 n=c4 v=96
26604 On ch=2 n=c4 v=0
26604 On ch=2 n=c5 v=0
26604 On ch=2 n=d#5 v=96
26604 On ch=2 n=d#4 v=96
26658 On ch=2 n=d#4 v=0
26658 On ch=2 n=d#5 v=0
26658 On ch=2 n=c#5 v=96
26658 On ch=2 n=c#4 v=96
26712 On ch=2 n=c#4 v=0
26712 On ch=2 n=c#5 v=0
26712 On ch=2 n=b4 v=96
26712 On ch=2 n=b3 v=96
26766 On ch=2 n=b3 v=0
26766 On ch=2 n=b4 v=0
26766 On ch=2 n=a4 v=96
26766 On ch=2 n=a3 v=96
26820 On ch=2 n=a3 v=0
26820 On ch=2 n=a4 v=0
26820 On ch=2 n=g#4 v=96
26820 On ch=2 n=g#3 v=96
26874 On ch=2 n=g#3 v=0
26874 On ch=2 n=g#4 v=0
26874 On ch=2 n=a4 v=96
26874 On ch=2 n=a3 v=96
26928 On ch=2 n=a3 v=0
26928 On ch=2 n=a4 v=0
26928 On ch=2 n=f4 v=96
26928 On ch=2 n=f3 v=96
26928 Par ch=2 c=64 v=0
26982 On ch=2 n=f3 v=0
26982 On ch=2 n=f4 v=0
26982 On ch=2 n=g#4 v=96
26982 On ch=2 n=g#3 v=96
27036 On ch=2 n=g#3 v=0
27036 On ch=2 n=g#4 v=0
27036 On ch=2 n=f#4 v=96
27036 On ch=2 n=f#3 v=96
27090 On ch=2 n=f#3 v=0
27090 On ch=2 n=f#4 v=0
27090 On ch=2 n=e4 v=91
27090 On ch=2 n=e3 v=91
27144 On ch=2 n=e3 v=0
27144 On ch=2 n=e4 v=0
27144 On ch=2 n=d#4 v=86
27144 On ch=2 n=d#3 v=86
27198 On ch=2 n=d#3 v=0
27198 On ch=2 n=d#4 v=0
27198 On ch=2 n=d4 v=81
27198 On ch=2 n=d3 v=81
27252 On ch=2 n=d3 v=0
27252 On ch=2 n=d4 v=0
27252 On ch=2 n=c#4 v=76
27252 On ch=2 n=c#3 v=76
27306 On ch=2 n=c#3 v=0
27306 On ch=2 n=c#4 v=0
27306 On ch=2 n=c4 v=71
27306 On ch=2 n=c3 v=71
27360 On ch=2 n=c3 v=0
27360 On ch=2 n=c4 v=0
27360 On ch=2 n=b3 v=59
27360 On ch=2 n=b2 v=59
27480 Par ch=2 c=64 v=127
27576 On ch=2 n=b2 v=0
27576 On ch=2 n=b3 v=0
27840 On ch=2 n=b2 v=55
28056 On ch=2 n=b2 v=0
28080 Par ch=2 c=64 v=0
28200 Par ch=2 c=64 v=127
28320 Par ch=2 c=64 v=0
28380 Par ch=2 c=64 v=127
28440 Par ch=2 c=64 v=0
28800 On ch=2 n=a3 v=43
28800 On ch=2 n=a2 v=48
28800 Par ch=2 c=64 v=127
29016 On ch=2 n=a2 v=0
29016 On ch=2 n=a3 v=0
29220 Par ch=2 c=64 v=0
29280 On ch=2 n=b3 v=59
29280 Par ch=2 c=64 v=127
29496 On ch=2 n=b3 v=0
29760 On ch=2 n=b2 v=55
29976 On ch=2 n=b2 v=0
30000 Par ch=2 c=64 v=0
30120 Par ch=2 c=64 v=127
30240 Par ch=2 c=64 v=0
30300 Par ch=2 c=64 v=127
30360 Par ch=2 c=64 v=0
30720 On ch=2 n=a3 v=43
30720 On ch=2 n=a2 v=48
30720 Par ch=2 c=64 v=127
30936 On ch=2 n=a2 v=0
30936 On ch=2 n=a3 v=0
31140 Par ch=2 c=64 v=0
31200 On ch=2 n=b3 v=59
31200 Par ch=2 c=64 v=127
31416 On ch=2 n=b3 v=0
31680 On ch=2 n=b2 v=55
31896 On ch=2 n=b2 v=0
31920 Par ch=2 c=64 v=0
32040 Par ch=2 c=64 v=127
32160 Par ch=2 c=64 v=0
32220 Par ch=2 c=64 v=127
32280 Par ch=2 c=64 v=0
32640 On ch=2 n=e3 v=48
32640 On ch=2 n=c4 v=43
32640 On ch=2 n=g3 v=43
32640 Par ch=2 c=64 v=127
32856 On ch=2 n=g3 v=0
32856 On ch=2 n=c4 v=0
32856 On ch=2 n=e3 v=0
33060 Par ch=2 c=64 v=0
33120 On ch=2 n=b3 v=59
33120 Par ch=2 c=64 v=127
33336 On ch=2 n=b3 v=0
33600 On ch=2 n=b2 v=55
33816 On ch=2 n=b2 v=0
33840 Par ch=2 c=64 v=0
33960 Par ch=2 c=64 v=127
34080 Par ch=2 c=64 v=0
34140 Par ch=2 c=64 v=127
34200 Par ch=2 c=64 v=0
34560 On ch=2 n=e3 v=48
34560 On ch=2 n=c4 v=43
34560 On ch=2 n=g3 v=43
34560 Par ch=2 c=64 v=127
34704 On ch=2 n=g3 v=0
34704 On ch=2 n=c4 v=0
34704 On ch=2 n=e3 v=0
34800 Par ch=2 c=64 v=0
34880 On ch=2 n=d3 v=39
34880 Par ch=2 c=64 v=127
35040 On ch=2 n=g4 v=44
35472 On ch=2 n=g4 v=0
35472 On ch=2 n=d3 v=0
35840 Par ch=2 c=64 v=0
35880 Par ch=2 c=64 v=127
36000 Par ch=2 c=64 v=0
36080 Par ch=2 c=64 v=127
36160 Par ch=2 c=64 v=0
36240 Par ch=2 c=64 v=127
36320 Par ch=2 c=64 v=0
36400 Par ch=2 c=64 v=127
36480 Par ch=2 c=64 v=0
36560 Par ch=2 c=64 v=127
36640 Par ch=2 c=64 v=0
36720 Par ch=2 c=64 v=127
36800 On ch=2 n=d4 v=39
36800 Par ch=2 c=64 v=0
36880 Par ch=2 c=64 v=127
36960 On ch=2 n=g5 v=44
37392 On ch=2 n=g5 v=0
37392 On ch=2 n=d4 v=0
37760 Par ch=2 c=64 v=0
37800 Par ch=2 c=64 v=127
37920 Par ch=2 c=64 v=0
38000 Par ch=2 c=64 v=127
38080 Par ch=2 c=64 v=0
38160 Par ch=2 c=64 v=127
38240 Par ch=2 c=64 v=0
38320 Par ch=2 c=64 v=127
38400 Par ch=2 c=64 v=0
38480 Par ch=2 c=64 v=127
38560 Par ch=2 c=64 v=0
38640 Par ch=2 c=64 v=127
38720 On ch=2 n=b2 v=39
38720 Par ch=2 c=64 v=0
38800 Par ch=2 c=64 v=127
38880 On ch=2 n=e4 v=44
39312 On ch=2 n=e4 v=0
39312 On ch=2 n=b2 v=0
39680 Par ch=2 c=64 v=0
39720 Par ch=2 c=64 v=127
39840 Par ch=2 c=64 v=0
39920 Par ch=2 c=64 v=127
40000 Par ch=2 c=64 v=0
40080 Par ch=2 c=64 v=127
40160 Par ch=2 c=64 v=0
40240 Par ch=2 c=64 v=127
40320 Par ch=2 c=64 v=0
40400 Par ch=2 c=64 v=127
40480 Par ch=2 c=64 v=0
40560 Par ch=2 c=64 v=127
40640 On ch=2 n=b3 v=39
40640 Par ch=2 c=64 v=0
40720 Par ch=2 c=64 v=127
40800 On ch=2 n=e5 v=44
41232 On ch=2 n=e5 v=0
41232 On ch=2 n=b3 v=0
41600 Par ch=2 c=64 v=0
41640 Par ch=2 c=64 v=127
41760 Par ch=2 c=64 v=0
41840 Par ch=2 c=64 v=127
41920 Par ch=2 c=64 v=0
42000 Par ch=2 c=64 v=127
42080 Par ch=2 c=64 v=0
42160 Par ch=2 c=64 v=127
42240 Par ch=2 c=64 v=0
42320 Par ch=2 c=64 v=127
42400 Par ch=2 c=64 v=0
42480 Par ch=2 c=64 v=127
42560 Par ch=2 c=64 v=0
42640 Par ch=2 c=64 v=127
42720 Par ch=2 c=64 v=0
42800 Par ch=2 c=64 v=127
42880 Par ch=2 c=64 v=0
42960 Par ch=2 c=64 v=127
43040 Par ch=2 c=64 v=0
43120 Par ch=2 c=64 v=127
43200 Par ch=2 c=64 v=0
43280 Par ch=2 c=64 v=127
43360 Par ch=2 c=64 v=0
43440 Par ch=2 c=64 v=127
43520 Par ch=2 c=64 v=0
43600 Par ch=2 c=64 v=127
43680 Par ch=2 c=64 v=0
43760 Par ch=2 c=64 v=127
43840 Par ch=2 c=64 v=0
43920 Par ch=2 c=64 v=127
44000 Par ch=2 c=64 v=0
44080 Par ch=2 c=64 v=127
44160 Par ch=2 c=64 v=0
44240 Par ch=2 c=64 v=127
44320 Par ch=2 c=64 v=0
44400 Par ch=2 c=64 v=127
44640 Par ch=2 c=64 v=0
45120 On ch=2 n=c5 v=76
45120 On ch=2 n=c4 v=76
45480 On ch=2 n=c4 v=0
45480 On ch=2 n=c5 v=0
45480 On ch=2 n=d5 v=72
45480 On ch=2 n=d4 v=72
45600 On ch=2 n=d4 v=0
45600 On ch=2 n=d5 v=0
45600 On ch=2 n=c5 v=74
45600 On ch=2 n=c4 v=74
45660 On ch=2 n=c4 v=0
45660 On ch=2 n=c5 v=0
45660 On ch=2 n=b4 v=78
45660 On ch=2 n=b3 v=78
45840 Par ch=2 c=64 v=127
46074 On ch=2 n=b3 v=0
46074 On ch=2 n=b4 v=0
46080 On ch=2 n=a4 v=72
46080 On ch=2 n=a3 v=72
46080 Par ch=2 c=64 v=0
46140 On ch=2 n=a3 v=0
46140 On ch=2 n=a4 v=0
46140 On ch=2 n=g4 v=76
46140 On ch=2 n=g3 v=76
46320 Par ch=2 c=64 v=127
46554 On ch=2 n=g3 v=0
46554 On ch=2 n=g4 v=0
46560 On ch=2 n=e4 v=77
46560 On ch=2 n=e3 v=77
46560 Par ch=2 c=64 v=0
46614 On ch=2 n=e3 v=0
46614 On ch=2 n=e4 v=0
46614 On ch=2 n=f4 v=78
46614 On ch=2 n=f3 v=78
46668 On ch=2 n=f3 v=0
46668 On ch=2 n=f4 v=0
46668 On ch=2 n=g4 v=79
46668 On ch=2 n=g3 v=79
46722 On ch=2 n=g3 v=0
46722 On ch=2 n=g4 v=0
46722 On ch=2 n=f4 v=80
46722 On ch=2 n=f3 v=80
46722 Par ch=2 c=64 v=127
46784 On ch=2 n=f3 v=0
46784 On ch=2 n=f4 v=0
46786 On ch=2 n=g4 v=85
46786 On ch=2 n=g3 v=85
46852 On ch=2 n=g3 v=0
46852 On ch=2 n=g4 v=0
46862 On ch=2 n=f4 v=79
46862 On ch=2 n=f3 v=79
46920 On ch=2 n=f3 v=0
46920 On ch=2 n=f4 v=0
46926 On ch=2 n=g4 v=80
46926 On ch=2 n=g3 v=80
46989 On ch=2 n=g3 v=0
46989 On ch=2 n=g4 v=0
46995 On ch=2 n=f4 v=71
46995 On ch=2 n=f3 v=71
47052 On ch=2 n=f3 v=0
47052 On ch=2 n=f4 v=0
47064 On ch=2 n=g4 v=75
47064 On ch=2 n=g3 v=75
47124 On ch=2 n=g3 v=0
47124 On ch=2 n=g4 v=0
47129 On ch=2 n=f4 v=74
47129 On ch=2 n=f3 v=74
47189 On ch=2 n=f3 v=0
47189 On ch=2 n=f4 v=0
47202 On ch=2 n=g4 v=74
47202 On ch=2 n=g3 v=74
47252 On ch=2 n=g3 v=0
47252 On ch=2 n=g4 v=0
47265 On ch=2 n=f4 v=69
47265 On ch=2 n=f3 v=69
47322 On ch=2 n=f3 v=0
47322 On ch=2 n=f4 v=0
47330 On ch=2 n=g4 v=77
47330 On ch=2 n=g3 v=77
47398 On ch=2 n=g3 v=0
47398 On ch=2 n=g4 v=0
47404 On ch=2 n=f4 v=78
47404 On ch=2 n=f3 v=78
47455 On ch=2 n=f3 v=0
47455 On ch=2 n=f4 v=0
47474 On ch=2 n=g4 v=82
47474 On ch=2 n=g3 v=82
47533 On ch=2 n=g3 v=0
47533 On ch=2 n=g4 v=0
47543 On ch=2 n=f4 v=74
47543 On ch=2 n=f3 v=74
47604 On ch=2 n=f3 v=0
47604 On ch=2 n=f4 v=0
47608 On ch=2 n=g4 v=81
47608 On ch=2 n=g3 v=81
47669 On ch=2 n=g3 v=0
47669 On ch=2 n=g4 v=0
47682 On ch=2 n=f4 v=80
47682 On ch=2 n=f3 v=80
47745 On ch=2 n=f3 v=0
47745 On ch=2 n=f4 v=0
47753 On ch=2 n=g4 v=85
47753 On ch=2 n=g3 v=85
47812 On ch=2 n=g3 v=0
47812 On ch=2 n=g4 v=0
47825 On ch=2 n=f4 v=76
47825 On ch=2 n=f3 v=76
47885 On ch=2 n=f3 v=0
47885 On ch=2 n=f4 v=0
47888 On ch=2 n=g4 v=81
47888 On ch=2 n=g3 v=81
47954 On ch=2 n=g3 v=0
47954 On ch=2 n=g4 v=0
47962 On ch=2 n=f4 v=73
47962 On ch=2 n=f3 v=73
48021 On ch=2 n=f3 v=0
48021 On ch=2 n=f4 v=0
48028 On ch=2 n=g4 v=77
48028 On ch=2 n=g3 v=77
48089 On ch=2 n=g3 v=0
48089 On ch=2 n=g4 v=0
48090 On ch=2 n=e4 v=80
48090 On ch=2 n=e3 v=80
48144 On ch=2 n=e3 v=0
48144 On ch=2 n=e4 v=0
48144 On ch=2 n=f4 v=80
48144 On ch=2 n=f3 v=80
48198 On ch=2 n=f3 v=0
48198 On ch=2 n=f4 v=0
48198 On ch=2 n=g4 v=80
48198 On ch=2 n=g3 v=80
48252 On ch=2 n=g3 v=0
48252 On ch=2 n=g4 v=0
48252 On ch=2 n=a4 v=80
48252 On ch=2 n=a3 v=80
48306 On ch=2 n=a3 v=0
48306 On ch=2 n=a4 v=0
48306 On ch=2 n=b4 v=80
48306 On ch=2 n=b3 v=80
48360 On ch=2 n=b3 v=0
48360 On ch=2 n=b4 v=0
48360 On ch=2 n=c5 v=80
48360 On ch=2 n=c4 v=80
48414 On ch=2 n=c4 v=0
48414 On ch=2 n=c5 v=0
48414 On ch=2 n=d5 v=80
48414 On ch=2 n=d4 v=80
48468 On ch=2 n=d4 v=0
48468 On ch=2 n=d5 v=0
48468 On ch=2 n=e5 v=80
48468 On ch=2 n=e4 v=80
48522 On ch=2 n=e4 v=0
48522 On ch=2 n=e5 v=0
48522 On ch=2 n=b4 v=80
48522 On ch=2 n=b3 v=80
48576 On ch=2 n=b3 v=0
48576 On ch=2 n=b4 v=0
48576 On ch=2 n=d5 v=80
48576 On ch=2 n=d4 v=80
48600 Par ch=2 c=64 v=0
48630 On ch=2 n=d4 v=0
48630 On ch=2 n=d5 v=0
48630 On ch=2 n=c5 v=80
48630 On ch=2 n=c4 v=80
48684 On ch=2 n=c4 v=0
48684 On ch=2 n=c5 v=0
48684 On ch=2 n=b4 v=80
48684 On ch=2 n=b3 v=80
48738 On ch=2 n=b3 v=0
48738 On ch=2 n=b4 v=0
48738 On ch=2 n=a4 v=80
48738 On ch=2 n=a3 v=80
48792 On ch=2 n=a3 v=0
48792 On ch=2 n=a4 v=0
48792 On ch=2 n=g#4 v=80
48792 On ch=2 n=g#3 v=80
48846 On ch=2 n=g#3 v=0
48846 On ch=2 n=g#4 v=0
48846 On ch=2 n=b4 v=80
48846 On ch=2 n=b3 v=80
48900 On ch=2 n=b3 v=0
48900 On ch=2 n=b4 v=0
48900 On ch=2 n=a4 v=80
48900 On ch=2 n=a3 v=80
48954 On ch=2 n=a3 v=0
48954 On ch=2 n=a4 v=0
48954 On ch=2 n=e4 v=80
48954 On ch=2 n=e3 v=80
49008 On ch=2 n=e3 v=0
49008 On ch=2 n=e4 v=0
49008 On ch=2 n=g4 v=80
49008 On ch=2 n=g3 v=80
49062 On ch=2 n=g3 v=0
49062 On ch=2 n=g4 v=0
49062 On ch=2 n=f#4 v=80
49062 On ch=2 n=f#3 v=80
49116 On ch=2 n=f#3 v=0
49116 On ch=2 n=f#4 v=0
49116 On ch=2 n=f4 v=80
49116 On ch=2 n=f3 v=80
49170 On ch=2 n=f3 v=0
49170 On ch=2 n=f4 v=0
49170 On ch=2 n=e4 v=80
49170 On ch=2 n=e3 v=80
49224 On ch=2 n=e3 v=0
49224 On ch=2 n=e4 v=0
49224 On ch=2 n=d#4 v=80
49224 On ch=2 n=d#3 v=80
49278 On ch=2 n=d#3 v=0
49278 On ch=2 n=d#4 v=0
49278 On ch=2 n=d4 v=80
49278 On ch=2 n=d3 v=80
49332 On ch=2 n=d3 v=0
49332 On ch=2 n=d4 v=0
49332 On ch=2 n=c#4 v=80
49332 On ch=2 n=c#3 v=80
49386 On ch=2 n=c#3 v=0
49386 On ch=2 n=c#4 v=0
49386 On ch=2 n=c4 v=80
49386 On ch=2 n=c3 v=80
49440 On ch=2 n=c4 v=0
49440 On ch=2 n=c4 v=80
49560 Par ch=2 c=64 v=127
50304 On ch=2 n=c4 v=0
50304 On ch=2 n=c3 v=0
50400 On ch=2 n=b2 v=80
50400 Par ch=2 c=64 v=0
50520 On ch=2 n=b3 v=80
50520 Par ch=2 c=64 v=127
51120 Par ch=2 c=64 v=0
51180 Par ch=2 c=64 v=127
51264 On ch=2 n=b3 v=0
51264 On ch=2 n=b2 v=0
51300 Par ch=2 c=64 v=0
51360 On ch=2 n=e3 v=45
51360 Par ch=2 c=64 v=127
51480 On ch=2 n=g#4 v=52
51576 On ch=2 n=e3 v=0
52080 On ch=2 n=g#4 v=0
52080 On ch=2 n=a4 v=48
52080 Par ch=2 c=64 v=0
52200 On ch=2 n=a4 v=0
52200 On ch=2 n=g#4 v=46
52320 On ch=2 n=g#4 v=0
52320 On ch=2 n=f#4 v=50
52560 Par ch=2 c=64 v=127
53184 On ch=2 n=f#4 v=0
53220 Par ch=2 c=64 v=0
53280 On ch=2 n=e3 v=45
53280 Par ch=2 c=64 v=127
53400 On ch=2 n=g#4 v=52
53496 On ch=2 n=e3 v=0
54000 On ch=2 n=g#4 v=0
54000 On ch=2 n=a4 v=48
54000 Par ch=2 c=64 v=0
54240 On ch=2 n=a4 v=0
54240 On ch=2 n=g#4 v=47
54240 Par ch=2 c=64 v=127
54304 On ch=2 n=g#4 v=0
54480 On ch=2 n=f#4 v=46
54480 Par ch=2 c=64 v=0
54600 Par ch=2 c=64 v=127
54912 On ch=2 n=f#4 v=0
54960 On ch=2 n=g4 v=48
54960 Par ch=2 c=64 v=0
55080 Par ch=2 c=64 v=127
55200 On ch=2 n=g4 v=0
55200 On ch=2 n=e3 v=45
55260 On ch=2 n=g#4 v=52
55416 On ch=2 n=g#4 v=0
55416 On ch=2 n=e3 v=0
55440 On ch=2 n=g#4 v=47
55872 On ch=2 n=g#4 v=0
55920 On ch=2 n=g4 v=45
55920 Par ch=2 c=64 v=0
56040 Par ch=2 c=64 v=127
56136 On ch=2 n=g4 v=0
56160 On ch=2 n=g#4 v=50
56160 Par ch=2 c=64 v=0
56400 Par ch=2 c=64 v=127
56592 On ch=2 n=g#4 v=0
56640 On ch=2 n=b4 v=52
56880 On ch=2 n=b4 v=0
56880 On ch=2 n=c5 v=55
56880 Par ch=2 c=64 v=0
57000 Par ch=2 c=64 v=127
57120 On ch=2 n=c5 v=0
57120 On ch=2 n=a3 v=61
57180 On ch=2 n=c#5 v=63
57336 On ch=2 n=c#5 v=0
57336 On ch=2 n=a3 v=0
57360 On ch=2 n=c#5 v=59
57792 On ch=2 n=c#5 v=0
57840 On ch=2 n=c5 v=52
57840 Par ch=2 c=64 v=0
57960 Par ch=2 c=64 v=127
58056 On ch=2 n=c5 v=0
58080 On ch=2 n=c#5 v=56
58080 Par ch=2 c=64 v=0
58200 Par ch=2 c=64 v=127
58944 On ch=2 n=c#5 v=0
58980 Par ch=2 c=64 v=0
59040 On ch=2 n=f#3 v=45
59040 Par ch=2 c=64 v=127
59160 On ch=2 n=a4 v=52
59256 On ch=2 n=f#3 v=0
59760 On ch=2 n=a4 v=0
59760 On ch=2 n=b4 v=48
59760 Par ch=2 c=64 v=0
59880 On ch=2 n=b4 v=0
59880 On ch=2 n=a4 v=46
60000 On ch=2 n=a4 v=0
60000 On ch=2 n=g#4 v=50
60120 Par ch=2 c=64 v=127
60864 On ch=2 n=g#4 v=0
60900 Par ch=2 c=64 v=0
60960 On ch=2 n=f#3 v=45
60960 Par ch=2 c=64 v=127
61080 On ch=2 n=a4 v=52
61176 On ch=2 n=f#3 v=0
61680 On ch=2 n=a4 v=0
61680 On ch=2 n=b4 v=46
61680 Par ch=2 c=64 v=0
61920 On ch=2 n=b4 v=0
61920 On ch=2 n=a4 v=50
61980 Par ch=2 c=64 v=127
61984 On ch=2 n=a4 v=0
62160 On ch=2 n=g#4 v=46
62160 Par ch=2 c=64 v=0
62280 Par ch=2 c=64 v=127
62592 On ch=2 n=g#4 v=0
62640 On ch=2 n=c#4 v=44
62640 Par ch=2 c=64 v=0
62760 Par ch=2 c=64 v=127
62880 On ch=2 n=c#4 v=0
62880 On ch=2 n=f#3 v=45
62940 On ch=2 n=a4 v=52
63096 On ch=2 n=a4 v=0
63096 On ch=2 n=f#3 v=0
63120 On ch=2 n=a4 v=46
63552 On ch=2 n=a4 v=0
63600 On ch=2 n=g#4 v=50
63600 Par ch=2 c=64 v=0
63720 Par ch=2 c=64 v=127
63816 On ch=2 n=g#4 v=0
63840 On ch=2 n=a4 v=55
63840 Par ch=2 c=64 v=0
63960 Par ch=2 c=64 v=127
64488 On ch=2 n=a4 v=0
64560 On ch=2 n=c#5 v=60
64560 Par ch=2 c=64 v=0
64680 Par ch=2 c=64 v=127
64800 On ch=2 n=c#5 v=0
64800 On ch=2 n=d4 v=56
64860 On ch=2 n=f#5 v=63
65016 On ch=2 n=f#5 v=0
65016 On ch=2 n=d4 v=0
65040 On ch=2 n=f#5 v=59
65472 On ch=2 n=f#5 v=0
65520 On ch=2 n=f5 v=52
65520 Par ch=2 c=64 v=0
65640 Par ch=2 c=64 v=127
65736 On ch=2 n=f5 v=0
65760 On ch=2 n=f#5 v=56
65760 Par ch=2 c=64 v=0
65880 Par ch=2 c=64 v=127
66624 On ch=2 n=f#5 v=0
66660 Par ch=2 c=64 v=0
66720 On ch=2 n=d4 v=63
66720 Par ch=2 c=64 v=127
67440 On ch=2 n=d4 v=0
67440 On ch=2 n=d#4 v=57
67680 On ch=2 n=d#4 v=0
67680 On ch=2 n=d4 v=61
67896 On ch=2 n=d4 v=0
67920 On ch=2 n=c4 v=57
67920 Par ch=2 c=64 v=0
67980 Par ch=2 c=64 v=127
68568 On ch=2 n=c4 v=0
68640 On ch=2 n=b3 v=63
68640 Par ch=2 c=64 v=0
68760 Par ch=2 c=64 v=127
69360 On ch=2 n=b3 v=0
69360 On ch=2 n=a3 v=57
69360 Par ch=2 c=64 v=0
69480 Par ch=2 c=64 v=127
69600 On ch=2 n=a3 v=0
69600 On ch=2 n=g3 v=61
69600 Par ch=2 c=64 v=0
69720 Par ch=2 c=64 v=127
69840 On ch=2 n=g3 v=0
69840 On ch=2 n=f#3 v=55
69840 Par ch=2 c=64 v=0
69960 Par ch=2 c=64 v=127
70080 On ch=2 n=f#3 v=0
70080 On ch=2 n=e3 v=57
70080 Par ch=2 c=64 v=0
70200 Par ch=2 c=64 v=127
70440 On ch=2 n=e3 v=0
70440 On ch=2 n=f#3 v=55
70440 Par ch=2 c=64 v=0
70500 Par ch=2 c=64 v=127
70548 On ch=2 n=f#3 v=0
70560 On ch=2 n=g3 v=63
70560 Par ch=2 c=64 v=0
70680 Par ch=2 c=64 v=127
71280 Par ch=2 c=64 v=0
71358 On ch=2 n=g3 v=0
71358 On ch=2 n=a#3 v=55
71412 On ch=2 n=a#3 v=0
71412 On ch=2 n=b3 v=57
71466 On ch=2 n=b3 v=0
71466 On ch=2 n=c4 v=59
71520 On ch=2 n=c4 v=0
71520 On ch=2 n=b3 v=61
71640 Par ch=2 c=64 v=127
72240 Par ch=2 c=64 v=0
72384 On ch=2 n=b3 v=0
72480 On ch=2 n=e3 v=63
72480 Par ch=2 c=64 v=127
72906 On ch=2 n=e3 v=0
72906 On ch=2 n=f#3 v=57
72960 On ch=2 n=f#3 v=0
72960 On ch=2 n=e3 v=59
72960 Par ch=2 c=64 v=0
73200 Par ch=2 c=64 v=127
73320 On ch=2 n=e3 v=0
73320 On ch=2 n=d#3 v=57
73440 On ch=2 n=d#3 v=0
73440 On ch=2 n=e3 v=61
73440 Par ch=2 c=64 v=0
73560 Par ch=2 c=64 v=127
73656 On ch=2 n=e3 v=0
73860 Par ch=2 c=64 v=0
73920 On ch=2 n=c4 v=75
73920 Par ch=2 c=64 v=127
73980 On ch=2 n=g4 v=70
74040 On ch=2 n=c5 v=75
74352 On ch=2 n=c5 v=0
74352 On ch=2 n=g4 v=0
74352 On ch=2 n=c4 v=0
74400 On ch=2 n=b3 v=75
74400 On ch=2 n=b4 v=75
74400 On ch=2 n=g4 v=70
74400 Par ch=2 c=64 v=0
74520 Par ch=2 c=64 v=127
75048 On ch=2 n=g4 v=0
75048 On ch=2 n=b4 v=0
75048 On ch=2 n=b3 v=0
75120 On ch=2 n=g4 v=64
75120 On ch=2 n=c5 v=69
75120 On ch=2 n=c4 v=69
75120 Par ch=2 c=64 v=0
75240 Par ch=2 c=64 v=127
75336 On ch=2 n=c4 v=0
75336 On ch=2 n=c5 v=0
75336 On ch=2 n=g4 v=0
75360 On ch=2 n=b3 v=73
75360 On ch=2 n=b4 v=73
75360 On ch=2 n=g4 v=68
75360 Par ch=2 c=64 v=0
75480 Par ch=2 c=64 v=127
75576 On ch=2 n=g4 v=0
75576 On ch=2 n=b4 v=0
75576 On ch=2 n=b3 v=0
75600 On ch=2 n=a4 v=69
75600 On ch=2 n=d4 v=64
75600 On ch=2 n=a3 v=69
75600 Par ch=2 c=64 v=0
75720 Par ch=2 c=64 v=127
76248 On ch=2 n=a3 v=0
76248 On ch=2 n=d4 v=0
76248 On ch=2 n=a4 v=0
76320 On ch=2 n=g4 v=75
76320 On ch=2 n=d4 v=70
76320 On ch=2 n=g3 v=75
76320 Par ch=2 c=64 v=0
76440 Par ch=2 c=64 v=127
76968 On ch=2 n=g3 v=0
76968 On ch=2 n=d4 v=0
76968 On ch=2 n=g4 v=0
77040 On ch=2 n=f#4 v=69
77040 On ch=2 n=b3 v=64
77040 On ch=2 n=f#3 v=69
77040 Par ch=2 c=64 v=0
77160 Par ch=2 c=64 v=127
77169 On ch=2 n=f#3 v=0
77169 On ch=2 n=b3 v=0
77169 On ch=2 n=f#4 v=0
77280 On ch=2 n=e3 v=73
77280 On ch=2 n=b3 v=68
77280 On ch=2 n=e4 v=73
77280 Par ch=2 c=64 v=0
77640 Par ch=2 c=64 v=127
77712 On ch=2 n=e4 v=0
77712 On ch=2 n=b3 v=0
77712 On ch=2 n=e3 v=0
78060 On ch=2 n=e3 v=52
78060 Par ch=2 c=64 v=0
78120 On ch=2 n=e3 v=0
78120 On ch=2 n=f#3 v=49
78180 On ch=2 n=f#3 v=0
78180 On ch=2 n=g3 v=46
78240 On ch=2 n=g3 v=0
78240 On ch=2 n=g#3 v=57
78360 Par ch=2 c=64 v=127
78960 Par ch=2 c=64 v=0
79038 On ch=2 n=g#3 v=0
79038 On ch=2 n=a3 v=42
79092 On ch=2 n=a3 v=0
79092 On ch=2 n=g#3 v=40
79146 On ch=2 n=g#3 v=0
79146 On ch=2 n=a3 v=38
79200 On ch=2 n=a3 v=0
79200 On ch=2 n=g#3 v=45
79320 Par ch=2 c=64 v=127
79920 Par ch=2 c=64 v=0
80064 On ch=2 n=g#3 v=0
80160 On ch=2 n=c#3 v=47
80160 Par ch=2 c=64 v=127
80586 On ch=2 n=d#3 v=41
80588 On ch=2 n=c#3 v=0
80640 On ch=2 n=d#3 v=0
80640 On ch=2 n=c#3 v=43
80640 Par ch=2 c=64 v=0
80760 Par ch=2 c=64 v=127
80964 On ch=2 n=c#3 v=0
81000 On ch=2 n=c3 v=41
81108 On ch=2 n=c3 v=0
81120 On ch=2 n=c#3 v=45
81120 Par ch=2 c=64 v=0
81240 Par ch=2 c=64 v=127
81546 On ch=2 n=d#3 v=39
81548 On ch=2 n=c#3 v=0
81600 On ch=2 n=d#3 v=0
81600 On ch=2 n=c#3 v=41
81600 Par ch=2 c=64 v=0
81720 Par ch=2 c=64 v=127
81924 On ch=2 n=c#3 v=0
81960 On ch=2 n=c3 v=39
82068 On ch=2 n=c3 v=0
82080 On ch=2 n=c#3 v=47
82080 Par ch=2 c=64 v=0
82200 Par ch=2 c=64 v=127
82240 On ch=2 n=c#3 v=0
82240 On ch=2 n=g#3 v=46
82400 On ch=2 n=g#3 v=0
82400 On ch=2 n=c#4 v=44
82560 On ch=2 n=c#4 v=0
82560 On ch=2 n=f4 v=43
82720 On ch=2 n=f4 v=0
82720 On ch=2 n=g#4 v=42
82880 On ch=2 n=g#4 v=0
82880 On ch=2 n=c#5 v=41
83040 On ch=2 n=c#5 v=0
83040 On ch=2 n=f5 v=40
83200 On ch=2 n=f5 v=0
83200 On ch=2 n=g#5 v=39
83360 On ch=2 n=g#5 v=0
83360 On ch=2 n=c#6 v=38
83520 On ch=2 n=c#6 v=0
83520 On ch=2 n=f6 v=37
83680 On ch=2 n=f6 v=0
83680 On ch=2 n=g#6 v=36
83824 On ch=2 n=g#6 v=0
83840 On ch=2 n=c#7 v=35
84420 Par ch=2 c=64 v=0
84432 On ch=2 n=c#7 v=0
99840 Par ch=2 c=64 v=127
100080 On ch=2 n=a#3 v=26
100200 On ch=2 n=d5 v=22
100296 On ch=2 n=d5 v=0
100296 On ch=2 n=a#3 v=0
100800 Par ch=2 c=64 v=0
100920 Par ch=2 c=64 v=127
101040 On ch=2 n=f#3 v=24
101160 On ch=2 n=a4 v=20
101256 On ch=2 n=a4 v=0
101256 On ch=2 n=f#3 v=0
101760 Par ch=2 c=64 v=0
101880 Par ch=2 c=64 v=127
102000 On ch=2 n=g3 v=26
102120 On ch=2 n=b4 v=22
102216 On ch=2 n=b4 v=0
102216 On ch=2 n=g3 v=0
102480 On ch=2 n=d#3 v=22
102600 On ch=2 n=f#4 v=18
102696 On ch=2 n=f#4 v=0
102696 On ch=2 n=d#3 v=0
102720 On ch=2 n=e3 v=24
102720 Par ch=2 c=64 v=0
102840 On ch=2 n=g4 v=20
102840 Par ch=2 c=64 v=127
102936 On ch=2 n=g4 v=0
102936 On ch=2 n=e3 v=0
103680 Par ch=2 c=64 v=0
103800 Par ch=2 c=64 v=127
103920 On ch=2 n=b2 v=26
103920 On ch=2 n=b3 v=26
104136 On ch=2 n=b3 v=0
104136 On ch=2 n=b2 v=0
104400 On ch=2 n=b4 v=24
104400 On ch=2 n=e5 v=20
104400 On ch=2 n=g5 v=20
104616 On ch=2 n=g5 v=0
104616 On ch=2 n=e5 v=0
104616 On ch=2 n=b4 v=0
104880 On ch=2 n=b2 v=30
104880 On ch=2 n=b3 v=30
104880 Par ch=2 c=64 v=0
105000 Par ch=2 c=64 v=127
105096 On ch=2 n=b3 v=0
105096 On ch=2 n=b2 v=0
105360 On ch=2 n=f#4 v=28
105360 On ch=2 n=b4 v=24
105360 On ch=2 n=d#5 v=24
105360 On ch=2 n=a5 v=24
105576 On ch=2 n=a5 v=0
105576 On ch=2 n=d#5 v=0
105576 On ch=2 n=b4 v=0
105576 On ch=2 n=f#4 v=0
105840 On ch=2 n=e3 v=42
105840 On ch=2 n=e4 v=42
105840 Par ch=2 c=64 v=0
105960 Par ch=2 c=64 v=127
106056 On ch=2 n=e4 v=0
106056 On ch=2 n=e3 v=0
106320 On ch=2 n=b4 v=34
106320 On ch=2 n=e5 v=34
106320 On ch=2 n=g4 v=38
106320 On ch=2 n=g5 v=38
106536 On ch=2 n=g5 v=0
106536 On ch=2 n=g4 v=0
106536 On ch=2 n=e5 v=0
106536 On ch=2 n=b4 v=0
107280 On ch=2 n=c5 v=46
107280 On ch=2 n=g5 v=41
107280 On ch=2 n=c6 v=46
107280 Par ch=2 c=64 v=0
107400 Par ch=2 c=64 v=127
107496 On ch=2 n=c6 v=0
107496 On ch=2 n=g5 v=0
107496 On ch=2 n=c5 v=0
107520 Par ch=2 c=64 v=0
107640 Par ch=2 c=64 v=127
107760 On ch=2 n=b4 v=42
107820 On ch=2 n=g5 v=38
107880 On ch=2 n=d6 v=38
107976 On ch=2 n=d6 v=0
107976 On ch=2 n=g5 v=0
107976 On ch=2 n=b4 v=0
108480 Par ch=2 c=64 v=0
108600 Par ch=2 c=64 v=127
108720 On ch=2 n=f#4 v=40
108780 On ch=2 n=d5 v=36
108840 On ch=2 n=a5 v=36
108936 On ch=2 n=a5 v=0
108936 On ch=2 n=d5 v=0
108936 On ch=2 n=f#4 v=0
109440 Par ch=2 c=64 v=0
109560 Par ch=2 c=64 v=127
109680 On ch=2 n=g4 v=42
109740 On ch=2 n=d5 v=38
109800 On ch=2 n=b5 v=38
109896 On ch=2 n=b5 v=0
109896 On ch=2 n=d5 v=0
109896 On ch=2 n=g4 v=0
110160 On ch=2 n=f#5 v=34
110160 On ch=2 n=d#4 v=38
110376 On ch=2 n=d#4 v=0
110376 On ch=2 n=f#5 v=0
110400 On ch=2 n=e4 v=40
110400 On ch=2 n=g5 v=36
110400 Par ch=2 c=64 v=0
110520 Par ch=2 c=64 v=127
110616 On ch=2 n=g5 v=0
110616 On ch=2 n=e4 v=0
111360 Par ch=2 c=64 v=0
111480 Par ch=2 c=64 v=127
111600 On ch=2 n=g#4 v=42
111816 On ch=2 n=g#4 v=0
112080 On ch=2 n=g#4 v=38
112080 On ch=2 n=c#5 v=34
112080 On ch=2 n=e5 v=34
112080 On ch=2 n=g#5 v=38
112296 On ch=2 n=g#5 v=0
112296 On ch=2 n=e5 v=0
112296 On ch=2 n=c#5 v=0
112296 On ch=2 n=g#4 v=0
112560 On ch=2 n=g#4 v=40
112560 Par ch=2 c=64 v=0
112680 Par ch=2 c=64 v=127
112776 On ch=2 n=g#4 v=0
113040 On ch=2 n=g#4 v=36
113040 On ch=2 n=d#5 v=32
113040 On ch=2 n=f#5 v=32
113040 On ch=2 n=c5 v=32
113256 On ch=2 n=c5 v=0
113256 On ch=2 n=f#5 v=0
113256 On ch=2 n=d#5 v=0
113256 On ch=2 n=g#4 v=0
113520 On ch=2 n=g#3 v=42
113520 Par ch=2 c=64 v=0
113640 Par ch=2 c=64 v=127
113736 On ch=2 n=g#3 v=0
114000 On ch=2 n=e4 v=38
114000 On ch=2 n=g#4 v=34
114216 On ch=2 n=g#4 v=0
114216 On ch=2 n=e4 v=0
114480 On ch=2 n=g#3 v=40
114480 Par ch=2 c=64 v=0
114600 Par ch=2 c=64 v=127
114696 On ch=2 n=g#3 v=0
114960 On ch=2 n=d#4 v=32
114960 On ch=2 n=f#4 v=32
114960 On ch=2 n=c4 v=36
115176 On ch=2 n=c4 v=0
115176 On ch=2 n=f#4 v=0
115176 On ch=2 n=d#4 v=0
115200 On ch=2 n=e3 v=47
115308 On ch=2 n=e3 v=0
115320 On ch=2 n=e4 v=41
115428 On ch=2 n=e4 v=0
115440 On ch=2 n=d#4 v=42
115548 On ch=2 n=d#4 v=0
115560 On ch=2 n=d#3 v=44
115668 On ch=2 n=d#3 v=0
115680 On ch=2 n=d3 v=45
115680 Par ch=2 c=64 v=0
115800 On ch=2 n=d4 v=39
115800 Par ch=2 c=64 v=127
115908 On ch=2 n=d4 v=0
115920 On ch=2 n=c#4 v=40
116004 On ch=2 n=d3 v=0
116028 On ch=2 n=c#4 v=0
116040 On ch=2 n=c#3 v=45
116148 On ch=2 n=c#3 v=0
116160 On ch=2 n=c3 v=46
116280 On ch=2 n=c4 v=40
116388 On ch=2 n=c4 v=0
116400 On ch=2 n=b3 v=41
116484 On ch=2 n=c3 v=0
116508 On ch=2 n=b3 v=0
116520 On ch=2 n=b2 v=43
116628 On ch=2 n=b2 v=0
116640 On ch=2 n=a2 v=44
116640 Par ch=2 c=64 v=0
116760 On ch=2 n=a3 v=38
116760 Par ch=2 c=64 v=127
116868 On ch=2 n=a3 v=0
116880 On ch=2 n=g#3 v=39
116964 On ch=2 n=a2 v=0
116988 On ch=2 n=g#3 v=0
117000 On ch=2 n=g#2 v=42
117108 On ch=2 n=g#2 v=0
117120 On ch=2 n=c#3 v=42
117120 Par ch=2 c=64 v=0
117228 On ch=2 n=c#3 v=0
117240 On ch=2 n=g#3 v=38
117240 Par ch=2 c=64 v=127
117348 On ch=2 n=g#3 v=0
117360 On ch=2 n=c#3 v=40
117468 On ch=2 n=c#3 v=0
117480 On ch=2 n=g#3 v=36
117588 On ch=2 n=g#3 v=0
117600 On ch=2 n=f#3 v=38
117708 On ch=2 n=f#3 v=0
117720 On ch=2 n=a3 v=34
117828 On ch=2 n=a3 v=0
117840 On ch=2 n=f#3 v=36
117948 On ch=2 n=f#3 v=0
117960 On ch=2 n=a3 v=32
118068 On ch=2 n=a3 v=0
118080 On ch=2 n=c#3 v=42
118080 Par ch=2 c=64 v=0
118188 On ch=2 n=c#3 v=0
118200 On ch=2 n=g#3 v=38
118200 Par ch=2 c=64 v=127
118308 On ch=2 n=g#3 v=0
118320 On ch=2 n=c#3 v=40
118428 On ch=2 n=c#3 v=0
118440 On ch=2 n=g#3 v=36
118548 On ch=2 n=g#3 v=0
118560 On ch=2 n=f#3 v=38
118668 On ch=2 n=f#3 v=0
118680 On ch=2 n=a3 v=34
118788 On ch=2 n=a3 v=0
118800 On ch=2 n=f#3 v=36
118908 On ch=2 n=f#3 v=0
118920 On ch=2 n=a3 v=32
119028 On ch=2 n=a3 v=0
119040 On ch=2 n=c#3 v=41
119040 Par ch=2 c=64 v=0
119160 Par ch=2 c=64 v=127
119200 On ch=2 n=g#3 v=42
119360 On ch=2 n=c#4 v=43
119520 On ch=2 n=f4 v=44
119680 On ch=2 n=g#4 v=45
119840 On ch=2 n=c#5 v=46
120000 On ch=2 n=f5 v=47
120816 On ch=2 n=f4 v=0
120816 On ch=2 n=c#4 v=0
120816 On ch=2 n=g#3 v=0
120816 On ch=2 n=c#3 v=0
120864 On ch=2 n=c#5 v=0
120864 On ch=2 n=g#4 v=0
121176 On ch=2 n=f5 v=0
121920 Par ch=2 c=64 v=0
122040 Par ch=2 c=64 v=127
122880 On ch=2 n=e3 v=59
122880 Par ch=2 c=64 v=0
123000 Par ch=2 c=64 v=127
123040 On ch=2 n=e5 v=53
123200 On ch=2 n=e5 v=0
123200 On ch=2 n=b4 v=52
123312 On ch=2 n=e3 v=0
123360 On ch=2 n=b4 v=0
123360 On ch=2 n=g#5 v=52
123520 On ch=2 n=g#5 v=0
123520 On ch=2 n=e5 v=51
123680 On ch=2 n=e5 v=0
123680 On ch=2 n=b4 v=50
123840 On ch=2 n=b4 v=0
123840 On ch=2 n=e4 v=53
123840 Par ch=2 c=64 v=0
123960 Par ch=2 c=64 v=127
124000 On ch=2 n=e4 v=0
124000 On ch=2 n=c5 v=52
124160 On ch=2 n=c5 v=0
124160 On ch=2 n=d#5 v=51
124320 On ch=2 n=d#5 v=0
124320 On ch=2 n=a5 v=51
124536 On ch=2 n=a5 v=0
124800 On ch=2 n=e3 v=59
124800 Par ch=2 c=64 v=0
124920 Par ch=2 c=64 v=127
124960 On ch=2 n=e5 v=53
125120 On ch=2 n=e5 v=0
125120 On ch=2 n=b4 v=52
125232 On ch=2 n=e3 v=0
125280 On ch=2 n=b4 v=0
125280 On ch=2 n=g#5 v=52
125440 On ch=2 n=g#5 v=0
125440 On ch=2 n=e5 v=51
125600 On ch=2 n=e5 v=0
125600 On ch=2 n=b4 v=50
125760 On ch=2 n=b4 v=0
125760 On ch=2 n=e4 v=53
125760 Par ch=2 c=64 v=0
125880 Par ch=2 c=64 v=127
125920 On ch=2 n=e4 v=0
125920 On ch=2 n=c5 v=52
126080 On ch=2 n=c5 v=0
126080 On ch=2 n=d#5 v=51
126240 On ch=2 n=d#5 v=0
126240 On ch=2 n=a5 v=51
126456 On ch=2 n=a5 v=0
126720 On ch=2 n=e3 v=59
126720 Par ch=2 c=64 v=0
126840 Par ch=2 c=64 v=127
126880 On ch=2 n=b4 v=53
126880 On ch=2 n=e5 v=48
126880 On ch=2 n=g#5 v=48
126923 On ch=2 n=g#5 v=0
126923 On ch=2 n=e5 v=0
126923 On ch=2 n=b4 v=0
126936 On ch=2 n=e3 v=0
127040 On ch=2 n=g5 v=47
127040 On ch=2 n=b4 v=52
127040 On ch=2 n=d#5 v=47
127083 On ch=2 n=d#5 v=0
127083 On ch=2 n=b4 v=0
127083 On ch=2 n=g5 v=0
127200 On ch=2 n=b4 v=57
127200 On ch=2 n=e5 v=52
127200 On ch=2 n=g#5 v=47
127344 On ch=2 n=g#5 v=0
127344 On ch=2 n=e5 v=0
127360 On ch=2 n=e5 v=53
127360 On ch=2 n=g#5 v=48
127632 On ch=2 n=b4 v=0
127664 On ch=2 n=g#5 v=0
127664 On ch=2 n=e5 v=0
127680 On ch=2 n=e3 v=63
127680 Par ch=2 c=64 v=0
127800 Par ch=2 c=64 v=127
127840 On ch=2 n=b4 v=57
127840 On ch=2 n=e5 v=52
127840 On ch=2 n=g#5 v=52
127883 On ch=2 n=g#5 v=0
127883 On ch=2 n=e5 v=0
127883 On ch=2 n=b4 v=0
127896 On ch=2 n=e3 v=0
128000 On ch=2 n=g5 v=51
128000 On ch=2 n=b4 v=56
128000 On ch=2 n=d#5 v=51
128043 On ch=2 n=d#5 v=0
128043 On ch=2 n=b4 v=0
128043 On ch=2 n=g5 v=0
128160 On ch=2 n=b4 v=56
128160 On ch=2 n=e5 v=51
128160 On ch=2 n=g#5 v=51
128304 On ch=2 n=g#5 v=0
128304 On ch=2 n=e5 v=0
128304 On ch=2 n=b4 v=0
128320 On ch=2 n=e5 v=57
128320 On ch=2 n=g#5 v=52
128624 On ch=2 n=g#5 v=0
128624 On ch=2 n=e5 v=0
128640 On ch=2 n=a3 v=68
128640 Par ch=2 c=64 v=0
128760 Par ch=2 c=64 v=127
128800 On ch=2 n=e5 v=62
128800 On ch=2 n=a5 v=57
128800 On ch=2 n=c#6 v=57
128843 On ch=2 n=c#6 v=0
128843 On ch=2 n=a5 v=0
128843 On ch=2 n=e5 v=0
128856 On ch=2 n=a3 v=0
128960 On ch=2 n=c6 v=56
128960 On ch=2 n=e5 v=61
128960 On ch=2 n=g#5 v=56
129003 On ch=2 n=g#5 v=0
129003 On ch=2 n=e5 v=0
129003 On ch=2 n=c6 v=0
129120 On ch=2 n=e5 v=61
129120 On ch=2 n=a5 v=56
129120 On ch=2 n=c#6 v=56
129264 On ch=2 n=c#6 v=0
129264 On ch=2 n=a5 v=0
129264 On ch=2 n=e5 v=0
129280 On ch=2 n=e5 v=62
129280 On ch=2 n=a5 v=57
129280 On ch=2 n=c#6 v=57
129584 On ch=2 n=c#6 v=0
129584 On ch=2 n=a5 v=0
129584 On ch=2 n=e5 v=0
129600 Par ch=2 c=64 v=0
129720 Par ch=2 c=64 v=127
130560 On ch=2 n=f#3 v=59
130560 Par ch=2 c=64 v=0
130680 Par ch=2 c=64 v=127
130720 On ch=2 n=f#5 v=53
130880 On ch=2 n=f#5 v=0
130880 On ch=2 n=c#5 v=52
130992 On ch=2 n=f#3 v=0
131040 On ch=2 n=c#5 v=0
131040 On ch=2 n=a5 v=52
131200 On ch=2 n=a5 v=0
131200 On ch=2 n=f#5 v=51
131360 On ch=2 n=f#5 v=0
131360 On ch=2 n=c#5 v=50
131520 On ch=2 n=c#5 v=0
131520 On ch=2 n=f#4 v=53
131520 Par ch=2 c=64 v=0
131640 Par ch=2 c=64 v=127
131680 On ch=2 n=f#4 v=0
131680 On ch=2 n=d5 v=52
131840 On ch=2 n=d5 v=0
131840 On ch=2 n=f5 v=51
132000 On ch=2 n=f5 v=0
132000 On ch=2 n=b5 v=51
132144 On ch=2 n=b5 v=0
132480 On ch=2 n=f#3 v=59
132480 Par ch=2 c=64 v=0
132600 Par ch=2 c=64 v=127
132640 On ch=2 n=f#5 v=53
132800 On ch=2 n=f#5 v=0
132800 On ch=2 n=c#5 v=52
132912 On ch=2 n=f#3 v=0
132960 On ch=2 n=c#5 v=0
132960 On ch=2 n=a5 v=52
133120 On ch=2 n=a5 v=0
133120 On ch=2 n=f#5 v=51
133280 On ch=2 n=f#5 v=0
133280 On ch=2 n=c#5 v=50
133440 On ch=2 n=c#5 v=0
133440 On ch=2 n=f#4 v=53
133440 Par ch=2 c=64 v=0
133560 Par ch=2 c=64 v=127
133600 On ch=2 n=f#4 v=0
133600 On ch=2 n=d5 v=52
133760 On ch=2 n=d5 v=0
133760 On ch=2 n=f5 v=51
133920 On ch=2 n=f5 v=0
133920 On ch=2 n=b5 v=51
134064 On ch=2 n=b5 v=0
134400 On ch=2 n=f#3 v=59
134400 Par ch=2 c=64 v=0
134520 Par ch=2 c=64 v=127
134544 On ch=2 n=f#3 v=0
134560 On ch=2 n=c#5 v=53
134560 On ch=2 n=f#5 v=48
134560 On ch=2 n=a5 v=48
134603 On ch=2 n=a5 v=0
134603 On ch=2 n=f#5 v=0
134603 On ch=2 n=c#5 v=0
134720 On ch=2 n=c#5 v=52
134720 On ch=2 n=f5 v=47
134720 On ch=2 n=g#5 v=47
134763 On ch=2 n=g#5 v=0
134763 On ch=2 n=f5 v=0
134763 On ch=2 n=c#5 v=0
134880 On ch=2 n=c#5 v=57
134880 On ch=2 n=f#5 v=52
134880 On ch=2 n=a5 v=47
135024 On ch=2 n=a5 v=0
135024 On ch=2 n=f#5 v=0
135040 On ch=2 n=f#5 v=53
135040 On ch=2 n=a5 v=48
135184 On ch=2 n=c#5 v=0
135344 On ch=2 n=a5 v=0
135344 On ch=2 n=f#5 v=0
135360 On ch=2 n=f#3 v=63
135360 Par ch=2 c=64 v=0
135480 Par ch=2 c=64 v=127
135504 On ch=2 n=f#3 v=0
135520 On ch=2 n=c#5 v=57
135520 On ch=2 n=f#5 v=52
135520 On ch=2 n=a5 v=52
135563 On ch=2 n=a5 v=0
135563 On ch=2 n=f#5 v=0
135563 On ch=2 n=c#5 v=0
135680 On ch=2 n=c#5 v=56
135680 On ch=2 n=f5 v=51
135680 On ch=2 n=g#5 v=51
135723 On ch=2 n=g#5 v=0
135723 On ch=2 n=f5 v=0
135723 On ch=2 n=c#5 v=0
135840 On ch=2 n=c#5 v=62
135840 On ch=2 n=f#5 v=56
135840 On ch=2 n=a5 v=51
135984 On ch=2 n=a5 v=0
135984 On ch=2 n=f#5 v=0
136000 On ch=2 n=f#5 v=57
136000 On ch=2 n=a5 v=52
136144 On ch=2 n=c#5 v=0
136304 On ch=2 n=a5 v=0
136304 On ch=2 n=f#5 v=0
136320 On ch=2 n=d3 v=67
136320 On ch=2 n=d4 v=67
136320 Par ch=2 c=64 v=0
136440 Par ch=2 c=64 v=127
136464 On ch=2 n=d4 v=0
136464 On ch=2 n=d3 v=0
136480 On ch=2 n=d5 v=56
136480 On ch=2 n=a4 v=61
136480 On ch=2 n=f#5 v=56
136480 On ch=2 n=a5 v=61
136523 On ch=2 n=a5 v=0
136523 On ch=2 n=f#5 v=0
136523 On ch=2 n=a4 v=0
136523 On ch=2 n=d5 v=0
136640 On ch=2 n=f5 v=55
136640 On ch=2 n=d5 v=55
136640 On ch=2 n=a4 v=60
136640 On ch=2 n=g#5 v=55
136683 On ch=2 n=g#5 v=0
136683 On ch=2 n=a4 v=0
136683 On ch=2 n=d5 v=0
136683 On ch=2 n=f5 v=0
136800 On ch=2 n=a4 v=60
136800 On ch=2 n=f#5 v=55
136800 On ch=2 n=a5 v=60
136800 On ch=2 n=d5 v=55
136944 On ch=2 n=d5 v=0
136944 On ch=2 n=a5 v=0
136944 On ch=2 n=f#5 v=0
136944 On ch=2 n=a4 v=0
136960 On ch=2 n=f#5 v=61
136960 On ch=2 n=a5 v=56
136960 On ch=2 n=d6 v=56
137280 Par ch=2 c=64 v=0
137400 Par ch=2 c=64 v=127
137424 On ch=2 n=d6 v=0
137424 On ch=2 n=a5 v=0
137424 On ch=2 n=f#5 v=0
138080 On ch=2 n=c4 v=85
138224 On ch=2 n=c4 v=0
138240 On ch=2 n=b3 v=75
138240 Par ch=2 c=64 v=0
138360 Par ch=2 c=64 v=127
138384 On ch=2 n=b3 v=0
138400 On ch=2 n=e5 v=69
138544 On ch=2 n=e5 v=0
138560 On ch=2 n=b4 v=68
138704 On ch=2 n=b4 v=0
138720 On ch=2 n=g#4 v=73
138864 On ch=2 n=g#4 v=0
138880 On ch=2 n=e5 v=67
139024 On ch=2 n=e5 v=0
139040 On ch=2 n=b4 v=66
139184 On ch=2 n=b4 v=0
139200 On ch=2 n=b3 v=74
139200 Par ch=2 c=64 v=0
139320 Par ch=2 c=64 v=127
139344 On ch=2 n=b3 v=0
139360 On ch=2 n=d#5 v=68
139504 On ch=2 n=d#5 v=0
139520 On ch=2 n=a4 v=67
139664 On ch=2 n=a4 v=0
139680 On ch=2 n=c4 v=72
139680 Par ch=2 c=64 v=0
139800 Par ch=2 c=64 v=127
139824 On ch=2 n=c4 v=0
139840 On ch=2 n=d#5 v=66
139984 On ch=2 n=d#5 v=0
140000 On ch=2 n=a4 v=65
140144 On ch=2 n=a4 v=0
140160 On ch=2 n=c#4 v=75
140160 Par ch=2 c=64 v=0
140280 Par ch=2 c=64 v=127
140304 On ch=2 n=c#4 v=0
140320 On ch=2 n=e5 v=69
140464 On ch=2 n=e5 v=0
140480 On ch=2 n=g#4 v=68
140624 On ch=2 n=g#4 v=0
140640 On ch=2 n=d#4 v=73
140640 Par ch=2 c=64 v=0
140760 Par ch=2 c=64 v=127
140784 On ch=2 n=d#4 v=0
140800 On ch=2 n=f#5 v=67
140944 On ch=2 n=f#5 v=0
140960 On ch=2 n=c5 v=66
141104 On ch=2 n=c5 v=0
141120 On ch=2 n=e4 v=74
141120 Par ch=2 c=64 v=0
141240 Par ch=2 c=64 v=127
141264 On ch=2 n=e4 v=0
141280 On ch=2 n=g#5 v=68
141424 On ch=2 n=g#5 v=0
141440 On ch=2 n=c#5 v=67
141584 On ch=2 n=c#5 v=0
141600 On ch=2 n=f#4 v=72
141600 Par ch=2 c=64 v=0
141720 Par ch=2 c=64 v=127
141744 On ch=2 n=f#4 v=0
141760 On ch=2 n=a5 v=66
141904 On ch=2 n=a5 v=0
141920 On ch=2 n=c#5 v=65
141920 On ch=2 n=d#5 v=60
142064 On ch=2 n=d#5 v=0
142064 On ch=2 n=c#5 v=0
142080 On ch=2 n=g#3 v=75
142080 Par ch=2 c=64 v=0
142200 Par ch=2 c=64 v=127
142224 On ch=2 n=g#3 v=0
142240 On ch=2 n=e5 v=69
142384 On ch=2 n=e5 v=0
142400 On ch=2 n=c#5 v=68
142544 On ch=2 n=c#5 v=0
142560 On ch=2 n=g#4 v=73
142560 Par ch=2 c=64 v=0
142704 On ch=2 n=g#4 v=0
142720 On ch=2 n=e5 v=67
142864 On ch=2 n=e5 v=0
142880 On ch=2 n=c#5 v=66
143024 On ch=2 n=c#5 v=0
143040 On ch=2 n=g#3 v=74
143040 Par ch=2 c=64 v=0
143160 Par ch=2 c=64 v=127
143184 On ch=2 n=g#3 v=0
143200 On ch=2 n=f#5 v=68
143344 On ch=2 n=f#5 v=0
143360 On ch=2 n=d#5 v=67
143504 On ch=2 n=d#5 v=0
143520 On ch=2 n=g#4 v=72
143664 On ch=2 n=g#4 v=0
143680 On ch=2 n=f#5 v=66
143824 On ch=2 n=f#5 v=0
143840 On ch=2 n=d#5 v=65
143984 On ch=2 n=d#5 v=0
144000 On ch=2 n=c#4 v=75
144000 Par ch=2 c=64 v=0
144120 Par ch=2 c=64 v=127
144144 On ch=2 n=c#4 v=0
144160 On ch=2 n=c#5 v=69
144304 On ch=2 n=c#5 v=0
144320 On ch=2 n=g#4 v=68
144464 On ch=2 n=g#4 v=0
144480 On ch=2 n=f#4 v=73
144480 Par ch=2 c=64 v=0
144600 Par ch=2 c=64 v=127
144624 On ch=2 n=f#4 v=0
144640 On ch=2 n=c#5 v=67
144784 On ch=2 n=c#5 v=0
144800 On ch=2 n=a4 v=66
144944 On ch=2 n=a4 v=0
144960 On ch=2 n=c#4 v=74
144960 Par ch=2 c=64 v=0
145080 Par ch=2 c=64 v=127
145104 On ch=2 n=c#4 v=0
145120 On ch=2 n=g#4 v=68
145264 On ch=2 n=g#4 v=0
145280 On ch=2 n=c#5 v=67
145424 On ch=2 n=c#5 v=0
145440 On ch=2 n=a3 v=102
145440 On ch=2 n=e4 v=97
145440 On ch=2 n=c#5 v=97
145440 Par ch=2 c=64 v=0
145560 Par ch=2 c=64 v=127
145872 On ch=2 n=c#5 v=0
145872 On ch=2 n=e4 v=0
145872 On ch=2 n=a3 v=0
145920 On ch=2 n=b3 v=80
145920 Par ch=2 c=64 v=0
146040 Par ch=2 c=64 v=127
146064 On ch=2 n=b3 v=0
146080 On ch=2 n=e5 v=74
146224 On ch=2 n=e5 v=0
146240 On ch=2 n=b4 v=73
146384 On ch=2 n=b4 v=0
146400 On ch=2 n=g#4 v=78
146544 On ch=2 n=g#4 v=0
146560 On ch=2 n=e5 v=72
146704 On ch=2 n=e5 v=0
146720 On ch=2 n=b4 v=71
146864 On ch=2 n=b4 v=0
146880 On ch=2 n=b3 v=79
146880 Par ch=2 c=64 v=0
147000 Par ch=2 c=64 v=127
147024 On ch=2 n=b3 v=0
147040 On ch=2 n=d#5 v=73
147184 On ch=2 n=d#5 v=0
147200 On ch=2 n=a4 v=72
147344 On ch=2 n=a4 v=0
147360 On ch=2 n=c4 v=77
147360 Par ch=2 c=64 v=0
147480 Par ch=2 c=64 v=127
147504 On ch=2 n=c4 v=0
147520 On ch=2 n=d#5 v=71
147664 On ch=2 n=d#5 v=0
147680 On ch=2 n=a4 v=70
147824 On ch=2 n=a4 v=0
147840 On ch=2 n=c#4 v=80
147840 Par ch=2 c=64 v=0
147960 Par ch=2 c=64 v=127
147984 On ch=2 n=c#4 v=0
148000 On ch=2 n=e5 v=74
148144 On ch=2 n=e5 v=0
148160 On ch=2 n=g#4 v=73
148304 On ch=2 n=g#4 v=0
148320 On ch=2 n=d#4 v=78
148320 Par ch=2 c=64 v=0
148440 Par ch=2 c=64 v=127
148464 On ch=2 n=d#4 v=0
148480 On ch=2 n=f#5 v=72
148624 On ch=2 n=f#5 v=0
148640 On ch=2 n=g#4 v=71
148784 On ch=2 n=g#4 v=0
148800 On ch=2 n=e4 v=79
148800 Par ch=2 c=64 v=0
148860 Par ch=2 c=64 v=127
148864 On ch=2 n=e4 v=0
148920 On ch=2 n=g#5 v=74
148921 On ch=2 n=g#5 v=0
149280 On ch=2 n=f#4 v=77
149280 Par ch=2 c=64 v=0
149340 On ch=2 n=c#5 v=72
149340 Par ch=2 c=64 v=127
149344 On ch=2 n=c#5 v=0
149344 On ch=2 n=f#4 v=0
149400 On ch=2 n=d#5 v=72
149401 On ch=2 n=d#5 v=0
149760 On ch=2 n=g#3 v=80
149760 Par ch=2 c=64 v=0
149820 Par ch=2 c=64 v=127
149920 On ch=2 n=g#3 v=0
149920 On ch=2 n=e4 v=80
150080 On ch=2 n=e4 v=0
150080 On ch=2 n=g#4 v=80
150240 On ch=2 n=g#4 v=0
150240 On ch=2 n=c#5 v=80
150456 On ch=2 n=c#5 v=0
150720 On ch=2 n=g#4 v=80
150720 Par ch=2 c=64 v=0
150780 Par ch=2 c=64 v=127
150880 On ch=2 n=g#4 v=0
150880 On ch=2 n=d#5 v=80
151040 On ch=2 n=d#5 v=0
151040 On ch=2 n=f#5 v=80
151200 On ch=2 n=f#5 v=0
151200 On ch=2 n=c6 v=80
151416 On ch=2 n=c6 v=0
151680 On ch=2 n=g#3 v=26
151680 Par ch=2 c=64 v=0
151740 Par ch=2 c=64 v=127
151840 On ch=2 n=g#3 v=0
151840 On ch=2 n=e4 v=26
152000 On ch=2 n=e4 v=0
152000 On ch=2 n=g#4 v=26
152160 On ch=2 n=g#4 v=0
152160 On ch=2 n=c#5 v=26
152376 On ch=2 n=c#5 v=0
152640 On ch=2 n=g#4 v=26
152640 Par ch=2 c=64 v=0
152700 Par ch=2 c=64 v=127
152800 On ch=2 n=g#4 v=0
152800 On ch=2 n=d#5 v=26
152960 On ch=2 n=d#5 v=0
152960 On ch=2 n=f#5 v=26
153120 On ch=2 n=f#5 v=0
153120 On ch=2 n=c6 v=26
153336 On ch=2 n=c6 v=0
153600 Par ch=2 c=64 v=0
153660 Par ch=2 c=64 v=127
154080 Par ch=2 c=64 v=0
154140 Par ch=2 c=64 v=127
154560 Par ch=2 c=64 v=0
154620 Par ch=2 c=64 v=127
155040 Par ch=2 c=64 v=0
155100 Par ch=2 c=64 v=127
155796 Par ch=2 c=64 v=0
156066 Par ch=2 c=64 v=127
160074 Par ch=2 c=64 v=0
160194 Par ch=2 c=64 v=127
160800 Par ch=2 c=64 v=0
160920 On ch=2 n=c#3 v=32
160920 Par ch=2 c=64 v=127
161280 On ch=2 n=g#4 v=27
161400 On ch=2 n=c#4 v=25
161496 On ch=2 n=g#4 v=0
161520 On ch=2 n=c#4 v=0
161520 On ch=2 n=g#3 v=24
161640 On ch=2 n=g#3 v=0
161640 On ch=2 n=c#4 v=24
161760 On ch=2 n=c#4 v=0
161760 On ch=2 n=g#3 v=23
161784 On ch=2 n=c#3 v=0
161868 On ch=2 n=g#3 v=0
161880 On ch=2 n=c#3 v=32
162240 On ch=2 n=g#4 v=27
162360 On ch=2 n=c#4 v=25
162456 On ch=2 n=g#4 v=0
162480 On ch=2 n=c#4 v=0
162480 On ch=2 n=g#3 v=24
162600 On ch=2 n=g#3 v=0
162600 On ch=2 n=c#4 v=24
162720 On ch=2 n=c#4 v=0
162720 On ch=2 n=g#3 v=23
162744 On ch=2 n=c#3 v=0
162828 On ch=2 n=g#3 v=0
162840 On ch=2 n=c#3 v=32
163200 On ch=2 n=g#4 v=27
163320 On ch=2 n=c#4 v=25
163416 On ch=2 n=g#4 v=0
163440 On ch=2 n=c#4 v=0
163440 On ch=2 n=g#3 v=24
163560 On ch=2 n=g#3 v=0
163560 On ch=2 n=c#4 v=24
163680 On ch=2 n=c#4 v=0
163680 On ch=2 n=g#3 v=23
163704 On ch=2 n=c#3 v=0
163788 On ch=2 n=g#3 v=0
163800 On ch=2 n=c#3 v=32
163800 Par ch=2 c=64 v=0
163920 Par ch=2 c=64 v=127
164160 On ch=2 n=g#4 v=27
164280 On ch=2 n=c#4 v=25
164376 On ch=2 n=g#4 v=0
164400 On ch=2 n=c#4 v=0
164400 On ch=2 n=g#3 v=24
164520 On ch=2 n=g#3 v=0
164520 On ch=2 n=c#4 v=24
164640 On ch=2 n=c#4 v=0
164640 On ch=2 n=g#3 v=23
164664 On ch=2 n=c#3 v=0
164748 On ch=2 n=g#3 v=0
164760 On ch=2 n=c#3 v=32
164760 Par ch=2 c=64 v=0
164880 Par ch=2 c=64 v=127
165120 On ch=2 n=g#4 v=27
165240 On ch=2 n=c#4 v=25
165336 On ch=2 n=g#4 v=0
165360 On ch=2 n=c#4 v=0
165360 On ch=2 n=g#3 v=24
165480 On ch=2 n=g#3 v=0
165480 On ch=2 n=c#4 v=24
165600 On ch=2 n=c#4 v=0
165600 On ch=2 n=g#3 v=23
165624 On ch=2 n=c#3 v=0
165708 On ch=2 n=g#3 v=0
165720 On ch=2 n=c#3 v=32
165720 Par ch=2 c=64 v=0
165840 Par ch=2 c=64 v=127
166080 On ch=2 n=g#4 v=27
166200 On ch=2 n=c#4 v=25
166296 On ch=2 n=g#4 v=0
166320 On ch=2 n=c#4 v=0
166320 On ch=2 n=g#3 v=24
166440 On ch=2 n=g#3 v=0
166440 On ch=2 n=c#4 v=24
166560 On ch=2 n=c#4 v=0
166560 On ch=2 n=c#3 v=23
166584 On ch=2 n=c#3 v=0
166668 On ch=2 n=c#3 v=0
166680 On ch=2 n=f#3 v=32
166680 On ch=2 n=c#4 v=30
166680 Par ch=2 c=64 v=0
166800 Par ch=2 c=64 v=127
167040 On ch=2 n=c#5 v=27
167160 On ch=2 n=f#4 v=25
167256 On ch=2 n=c#5 v=0
167280 On ch=2 n=f#4 v=0
167280 On ch=2 n=c#4 v=24
167400 On ch=2 n=f#4 v=24
167520 On ch=2 n=f#4 v=0
167520 On ch=2 n=d#4 v=23
167544 On ch=2 n=c#4 v=0
167544 On ch=2 n=c#4 v=0
167544 On ch=2 n=f#3 v=0
167628 On ch=2 n=d#4 v=0
167640 On ch=2 n=g#3 v=32
167640 Par ch=2 c=64 v=0
167760 Par ch=2 c=64 v=127
168000 On ch=2 n=g#4 v=27
168120 On ch=2 n=d#4 v=25
168216 On ch=2 n=g#4 v=0
168240 On ch=2 n=d#4 v=0
168240 On ch=2 n=g#3 v=24
168360 On ch=2 n=d#4 v=24
168480 On ch=2 n=d#4 v=0
168480 On ch=2 n=g#3 v=32
168502 On ch=2 n=g#3 v=0
168504 On ch=2 n=g#3 v=0
168600 Par ch=2 c=64 v=0
168720 Par ch=2 c=64 v=127
168960 On ch=2 n=g#4 v=27
169080 On ch=2 n=d#4 v=25
169176 On ch=2 n=g#4 v=0
169200 On ch=2 n=d#4 v=0
169200 On ch=2 n=g#3 v=24
169320 On ch=2 n=g#3 v=0
169320 On ch=2 n=d#4 v=24
169440 On ch=2 n=d#4 v=0
169440 On ch=2 n=g#3 v=23
169452 On ch=2 n=g#3 v=0
169548 On ch=2 n=g#3 v=0
169560 On ch=2 n=g#2 v=32
169560 Par ch=2 c=64 v=0
169680 Par ch=2 c=64 v=127
169920 On ch=2 n=g#4 v=27
170040 On ch=2 n=d#4 v=25
170136 On ch=2 n=g#4 v=0
170160 On ch=2 n=d#4 v=0
170160 On ch=2 n=g#3 v=24
170280 On ch=2 n=g#3 v=0
170280 On ch=2 n=d#4 v=24
170400 On ch=2 n=d#4 v=0
170400 On ch=2 n=g#3 v=32
170424 On ch=2 n=g#2 v=0
170520 Par ch=2 c=64 v=0
170640 Par ch=2 c=64 v=127
170880 On ch=2 n=g#4 v=27
170952 On ch=2 n=g#3 v=0
171000 On ch=2 n=d#4 v=25
171096 On ch=2 n=g#4 v=0
171120 On ch=2 n=d#4 v=0
171120 On ch=2 n=g#3 v=24
171240 On ch=2 n=g#3 v=0
171240 On ch=2 n=d#4 v=24
171360 On ch=2 n=d#4 v=0
171360 On ch=2 n=g#3 v=32
171480 Par ch=2 c=64 v=0
171600 Par ch=2 c=64 v=127
171840 On ch=2 n=g#4 v=27
171912 On ch=2 n=g#3 v=0
171960 On ch=2 n=d#4 v=25
172056 On ch=2 n=g#4 v=0
172080 On ch=2 n=d#4 v=0
172080 On ch=2 n=g#3 v=24
172200 On ch=2 n=g#3 v=0
172200 On ch=2 n=e4 v=24
172320 On ch=2 n=e4 v=0
172320 On ch=2 n=g#3 v=23
172428 On ch=2 n=g#3 v=0
172440 On ch=2 n=g#2 v=32
172440 Par ch=2 c=64 v=0
172560 Par ch=2 c=64 v=127
172800 On ch=2 n=f#4 v=27
172920 On ch=2 n=d#4 v=25
173016 On ch=2 n=f#4 v=0
173040 On ch=2 n=d#4 v=0
173040 On ch=2 n=g#3 v=24
173160 On ch=2 n=g#3 v=0
173160 On ch=2 n=g#4 v=24
173280 On ch=2 n=g#4 v=0
173280 On ch=2 n=g#3 v=23
173304 On ch=2 n=g#2 v=0
173388 On ch=2 n=g#3 v=0
173400 On ch=2 n=c#3 v=32
173400 Par ch=2 c=64 v=0
173520 Par ch=2 c=64 v=127
173760 On ch=2 n=g#4 v=27
173880 On ch=2 n=c#4 v=25
173976 On ch=2 n=g#4 v=0
174000 On ch=2 n=c#4 v=0
174000 On ch=2 n=g#3 v=24
174120 On ch=2 n=g#3 v=0
174120 On ch=2 n=c#4 v=24
174240 On ch=2 n=c#4 v=0
174240 On ch=2 n=g#3 v=23
174264 On ch=2 n=c#3 v=0
174348 On ch=2 n=g#3 v=0
174360 On ch=2 n=c#3 v=32
174360 Par ch=2 c=64 v=0
174480 Par ch=2 c=64 v=127
174720 On ch=2 n=g#4 v=27
174840 On ch=2 n=c#4 v=25
174936 On ch=2 n=g#4 v=0
174960 On ch=2 n=c#4 v=0
174960 On ch=2 n=g#3 v=24
175080 On ch=2 n=g#3 v=0
175080 On ch=2 n=c#4 v=24
175200 On ch=2 n=c#4 v=0
175200 On ch=2 n=g#3 v=23
175224 On ch=2 n=c#3 v=0
175308 On ch=2 n=g#3 v=0
175320 On ch=2 n=c#3 v=32
175320 Par ch=2 c=64 v=0
175440 Par ch=2 c=64 v=127
175680 On ch=2 n=c#5 v=25
175680 On ch=2 n=g#5 v=27
175788 On ch=2 n=g#5 v=0
175800 On ch=2 n=g#4 v=25
175896 On ch=2 n=c#5 v=0
175908 On ch=2 n=g#4 v=0
175920 On ch=2 n=c#4 v=24
176028 On ch=2 n=c#4 v=0
176040 On ch=2 n=c#4 v=24
176040 On ch=2 n=g#3 v=22
176148 On ch=2 n=g#3 v=0
176148 On ch=2 n=c#4 v=0
176160 On ch=2 n=c#3 v=32
176184 On ch=2 n=c#3 v=0
176280 Par ch=2 c=64 v=0
176400 Par ch=2 c=64 v=127
176640 On ch=2 n=c#5 v=25
176640 On ch=2 n=g#5 v=27
176748 On ch=2 n=g#5 v=0
176760 On ch=2 n=g#4 v=25
176856 On ch=2 n=c#5 v=0
176868 On ch=2 n=g#4 v=0
176880 On ch=2 n=c#4 v=24
176988 On ch=2 n=c#4 v=0
177000 On ch=2 n=c#4 v=24
177000 On ch=2 n=g#3 v=22
177108 On ch=2 n=g#3 v=0
177108 On ch=2 n=c#4 v=0
177120 On ch=2 n=c#3 v=32
177144 On ch=2 n=c#3 v=0
177240 Par ch=2 c=64 v=0
177360 Par ch=2 c=64 v=127
177600 On ch=2 n=c#5 v=25
177600 On ch=2 n=g#5 v=27
177708 On ch=2 n=g#5 v=0
177720 On ch=2 n=g#4 v=28
177816 On ch=2 n=c#5 v=0
177828 On ch=2 n=g#4 v=0
177840 On ch=2 n=c#4 v=29
177948 On ch=2 n=c#4 v=0
177960 On ch=2 n=c#4 v=30
177960 On ch=2 n=g#3 v=28
178068 On ch=2 n=g#3 v=0
178068 On ch=2 n=c#4 v=0
178080 On ch=2 n=c#3 v=31
178104 On ch=2 n=c#3 v=0
178188 On ch=2 n=c#3 v=0
178200 On ch=2 n=f#3 v=37
178200 On ch=2 n=c#4 v=35
178200 Par ch=2 c=64 v=0
178320 Par ch=2 c=64 v=127
178560 On ch=2 n=c#5 v=28
178560 On ch=2 n=a#5 v=30
178668 On ch=2 n=a#5 v=0
178680 On ch=2 n=a#4 v=29
178776 On ch=2 n=c#5 v=0
178788 On ch=2 n=a#4 v=0
178800 On ch=2 n=f#4 v=28
178908 On ch=2 n=f#4 v=0
178920 On ch=2 n=a#4 v=28
178920 On ch=2 n=c#4 v=26
179028 On ch=2 n=a#4 v=0
179028 On ch=2 n=c#4 v=0
179040 On ch=2 n=f#3 v=27
179064 On ch=2 n=c#4 v=0
179064 On ch=2 n=f#3 v=0
179148 On ch=2 n=f#3 v=0
179160 On ch=2 n=g#3 v=37
179160 Par ch=2 c=64 v=0
179280 Par ch=2 c=64 v=127
179520 On ch=2 n=g#4 v=28
179520 On ch=2 n=d#5 v=30
179628 On ch=2 n=d#5 v=0
179640 On ch=2 n=d#4 v=29
179736 On ch=2 n=g#4 v=0
179748 On ch=2 n=d#4 v=0
179760 On ch=2 n=g#3 v=28
179868 On ch=2 n=g#3 v=0
179880 On ch=2 n=g#3 v=28
179880 On ch=2 n=d#3 v=26
179988 On ch=2 n=d#3 v=0
179988 On ch=2 n=g#3 v=0
180000 On ch=2 n=g#2 v=37
180024 On ch=2 n=g#3 v=0
180120 Par ch=2 c=64 v=0
180240 Par ch=2 c=64 v=127
180480 On ch=2 n=g#4 v=28
180480 On ch=2 n=d#5 v=30
180588 On ch=2 n=d#5 v=0
180600 On ch=2 n=d#4 v=29
180696 On ch=2 n=g#4 v=0
180708 On ch=2 n=d#4 v=0
180720 On ch=2 n=g#3 v=28
180828 On ch=2 n=g#3 v=0
180840 On ch=2 n=g#3 v=28
180840 On ch=2 n=d#3 v=26
180948 On ch=2 n=d#3 v=0
180948 On ch=2 n=g#3 v=0
180960 On ch=2 n=g#2 v=37
180984 On ch=2 n=g#2 v=0
181080 Par ch=2 c=64 v=0
181200 Par ch=2 c=64 v=127
181440 On ch=2 n=g#4 v=28
181440 On ch=2 n=d#5 v=30
181548 On ch=2 n=d#5 v=0
181560 On ch=2 n=d#4 v=29
181656 On ch=2 n=g#4 v=0
181668 On ch=2 n=d#4 v=0
181680 On ch=2 n=g#3 v=28
181788 On ch=2 n=g#3 v=0
181800 On ch=2 n=g#3 v=28
181800 On ch=2 n=d#3 v=26
181908 On ch=2 n=d#3 v=0
181908 On ch=2 n=g#3 v=0
181920 On ch=2 n=g#2 v=37
181944 On ch=2 n=g#2 v=0
182040 Par ch=2 c=64 v=0
182160 Par ch=2 c=64 v=127
182400 On ch=2 n=g#4 v=28
182400 On ch=2 n=d#5 v=30
182508 On ch=2 n=d#5 v=0
182520 On ch=2 n=d#4 v=29
182616 On ch=2 n=g#4 v=0
182628 On ch=2 n=d#4 v=0
182640 On ch=2 n=g#3 v=28
182748 On ch=2 n=g#3 v=0
182760 On ch=2 n=g#3 v=28
182760 On ch=2 n=d#3 v=26
182868 On ch=2 n=d#3 v=0
182868 On ch=2 n=g#3 v=0
182880 On ch=2 n=g#2 v=37
182904 On ch=2 n=g#2 v=0
183000 Par ch=2 c=64 v=0
183120 Par ch=2 c=64 v=127
183360 On ch=2 n=g#4 v=28
183360 On ch=2 n=d#5 v=30
183468 On ch=2 n=d#5 v=0
183480 On ch=2 n=d#4 v=29
183576 On ch=2 n=g#4 v=0
183588 On ch=2 n=d#4 v=0
183600 On ch=2 n=g#3 v=28
183708 On ch=2 n=g#3 v=0
183720 On ch=2 n=g#3 v=28
183720 On ch=2 n=d#3 v=26
183828 On ch=2 n=d#3 v=0
183828 On ch=2 n=g#3 v=0
183840 On ch=2 n=g#2 v=42
183864 On ch=2 n=g#2 v=0
183960 Par ch=2 c=64 v=0
184080 Par ch=2 c=64 v=127
184320 On ch=2 n=d#5 v=28
184320 On ch=2 n=g#5 v=30
184428 On ch=2 n=g#5 v=0
184440 On ch=2 n=g#4 v=29
184536 On ch=2 n=d#5 v=0
184548 On ch=2 n=g#4 v=0
184560 On ch=2 n=d#4 v=28
184668 On ch=2 n=d#4 v=0
184680 On ch=2 n=g#4 v=28
184680 On ch=2 n=d#4 v=26
184788 On ch=2 n=d#4 v=0
184788 On ch=2 n=g#4 v=0
184800 On ch=2 n=g#3 v=27
184824 On ch=2 n=g#2 v=0
184908 On ch=2 n=g#3 v=0
184920 On ch=2 n=c#3 v=37
184920 Par ch=2 c=64 v=0
185040 Par ch=2 c=64 v=127
185280 On ch=2 n=c#5 v=28
185280 On ch=2 n=g#5 v=30
185388 On ch=2 n=g#5 v=0
185400 On ch=2 n=g#4 v=29
185496 On ch=2 n=c#5 v=0
185508 On ch=2 n=g#4 v=0
185520 On ch=2 n=c#4 v=28
185628 On ch=2 n=c#4 v=0
185640 On ch=2 n=c#4 v=28
185640 On ch=2 n=g#3 v=26
185748 On ch=2 n=g#3 v=0
185748 On ch=2 n=c#4 v=0
185760 On ch=2 n=c#3 v=37
185784 On ch=2 n=c#3 v=0
185880 Par ch=2 c=64 v=0
186000 Par ch=2 c=64 v=127
186240 On ch=2 n=c#5 v=28
186240 On ch=2 n=g#5 v=30
186348 On ch=2 n=g#5 v=0
186360 On ch=2 n=g#4 v=29
186456 On ch=2 n=c#5 v=0
186468 On ch=2 n=g#4 v=0
186480 On ch=2 n=c#4 v=28
186588 On ch=2 n=c#4 v=0
186600 On ch=2 n=c#4 v=28
186600 On ch=2 n=g#3 v=26
186708 On ch=2 n=g#3 v=0
186708 On ch=2 n=c#4 v=0
186720 On ch=2 n=c#3 v=27
186744 On ch=2 n=c#3 v=0
186960 On ch=2 n=c#3 v=0
186960 Par ch=2 c=64 v=0
187380 On ch=2 n=c#4 v=60
187380 Par ch=2 c=64 v=127
187425 On ch=2 n=c#4 v=0
187425 On ch=2 n=e4 v=61
187470 On ch=2 n=e4 v=0
187470 On ch=2 n=g#4 v=62
187515 On ch=2 n=g#4 v=0
187515 On ch=2 n=c#5 v=63
187560 On ch=2 n=c#5 v=0
187560 On ch=2 n=e5 v=74
188208 On ch=2 n=e5 v=0
188280 On ch=2 n=e5 v=60
188496 On ch=2 n=e5 v=0
188520 On ch=2 n=d#5 v=64
188736 On ch=2 n=d#5 v=0
188760 On ch=2 n=c#5 v=60
188760 Par ch=2 c=64 v=0
188880 Par ch=2 c=64 v=127
189240 Par ch=2 c=64 v=0
189298 On ch=2 n=c#5 v=0
189300 On ch=2 n=a3 v=60
189300 Par ch=2 c=64 v=127
189345 On ch=2 n=a3 v=0
189345 On ch=2 n=e4 v=61
189390 On ch=2 n=e4 v=0
189390 On ch=2 n=g4 v=62
189435 On ch=2 n=g4 v=0
189435 On ch=2 n=c#5 v=63
189480 On ch=2 n=c#5 v=0
189480 On ch=2 n=e5 v=74
190128 On ch=2 n=e5 v=0
190200 On ch=2 n=e5 v=60
190416 On ch=2 n=e5 v=0
190440 On ch=2 n=d#5 v=62
190656 On ch=2 n=d#5 v=0
190680 On ch=2 n=c#5 v=64
190680 Par ch=2 c=64 v=0
190800 Par ch=2 c=64 v=127
191328 On ch=2 n=c#5 v=0
191340 Par ch=2 c=64 v=0
191400 On ch=2 n=g#3 v=59
191400 Par ch=2 c=64 v=127
191439 On ch=2 n=d#4 v=52
191479 On ch=2 n=g#4 v=50
191520 On ch=2 n=c5 v=64
191616 On ch=2 n=g#4 v=0
191616 On ch=2 n=d#4 v=0
191616 On ch=2 n=g#3 v=0
191820 Par ch=2 c=64 v=0
191880 On ch=2 n=c5 v=0
191880 On ch=2 n=g#3 v=57
191880 Par ch=2 c=64 v=127
191919 On ch=2 n=e4 v=50
191959 On ch=2 n=g#4 v=48
192000 On ch=2 n=c#5 v=62
192096 On ch=2 n=g#4 v=0
192096 On ch=2 n=e4 v=0
192096 On ch=2 n=g#3 v=0
192240 On ch=2 n=c#5 v=0
192240 On ch=2 n=d5 v=60
192300 Par ch=2 c=64 v=0
192348 On ch=2 n=d5 v=0
192360 On ch=2 n=g#3 v=59
192360 Par ch=2 c=64 v=127
192400 On ch=2 n=f#4 v=52
192440 On ch=2 n=g#4 v=50
192480 On ch=2 n=c5 v=60
192520 On ch=2 n=d#5 v=64
192576 On ch=2 n=g#3 v=0
192586 On ch=2 n=f#4 v=0
192596 On ch=2 n=g#4 v=0
192822 On ch=2 n=c5 v=0
192832 On ch=2 n=d#5 v=0
193200 Par ch=2 c=64 v=0
193320 Par ch=2 c=64 v=127
193440 On ch=2 n=f#4 v=24
193440 On ch=2 n=d#5 v=22
193548 On ch=2 n=d#5 v=0
193548 On ch=2 n=f#4 v=0
193560 On ch=2 n=c5 v=25
193560 On ch=2 n=g#5 v=23
193668 On ch=2 n=g#5 v=0
193668 On ch=2 n=c5 v=0
193680 On ch=2 n=f#4 v=23
193680 On ch=2 n=d#5 v=21
193788 On ch=2 n=d#5 v=0
193788 On ch=2 n=f#4 v=0
193800 On ch=2 n=g#3 v=25
193908 On ch=2 n=g#3 v=0
193920 On ch=2 n=f#4 v=23
194028 On ch=2 n=f#4 v=0
194040 On ch=2 n=c5 v=24
194148 On ch=2 n=c5 v=0
194160 On ch=2 n=f#4 v=22
194268 On ch=2 n=f#4 v=0
194280 Par ch=2 c=64 v=0
194400 On ch=2 n=f#4 v=24
194400 On ch=2 n=d#5 v=22
194400 Par ch=2 c=64 v=127
194508 On ch=2 n=d#5 v=0
194508 On ch=2 n=f#4 v=0
194520 On ch=2 n=c5 v=25
194520 On ch=2 n=g#5 v=23
194628 On ch=2 n=g#5 v=0
194628 On ch=2 n=c5 v=0
194640 On ch=2 n=f#4 v=23
194640 On ch=2 n=d#5 v=21
194748 On ch=2 n=d#5 v=0
194748 On ch=2 n=f#4 v=0
194760 On ch=2 n=g#3 v=25
194868 On ch=2 n=g#3 v=0
194880 On ch=2 n=f#4 v=23
194988 On ch=2 n=f#4 v=0
195000 On ch=2 n=c5 v=24
195108 On ch=2 n=c5 v=0
195120 On ch=2 n=f#4 v=22
195228 On ch=2 n=f#4 v=0
195240 Par ch=2 c=64 v=0
195360 On ch=2 n=f4 v=24
195360 On ch=2 n=c#5 v=22
195360 Par ch=2 c=64 v=127
195468 On ch=2 n=c#5 v=0
195468 On ch=2 n=f4 v=0
195480 On ch=2 n=g#4 v=25
195480 On ch=2 n=g#5 v=23
195588 On ch=2 n=g#5 v=0
195588 On ch=2 n=g#4 v=0
195600 On ch=2 n=f4 v=23
195600 On ch=2 n=c#5 v=21
195708 On ch=2 n=c#5 v=0
195708 On ch=2 n=f4 v=0
195720 On ch=2 n=g#3 v=25
195828 On ch=2 n=g#3 v=0
195840 On ch=2 n=f4 v=23
195948 On ch=2 n=f4 v=0
195960 On ch=2 n=c#5 v=24
196068 On ch=2 n=c#5 v=0
196080 On ch=2 n=g#4 v=22
196188 On ch=2 n=g#4 v=0
196200 Par ch=2 c=64 v=0
196320 On ch=2 n=g#4 v=24
196320 On ch=2 n=f#5 v=22
196320 Par ch=2 c=64 v=127
196428 On ch=2 n=f#5 v=0
196428 On ch=2 n=g#4 v=0
196440 On ch=2 n=c5 v=25
196440 On ch=2 n=g#5 v=23
196548 On ch=2 n=g#5 v=0
196548 On ch=2 n=c5 v=0
196560 On ch=2 n=g#4 v=23
196560 On ch=2 n=f#5 v=21
196668 On ch=2 n=f#5 v=0
196668 On ch=2 n=g#4 v=0
196680 On ch=2 n=g#3 v=25
196788 On ch=2 n=g#3 v=0
196800 On ch=2 n=g#4 v=23
196908 On ch=2 n=g#4 v=0
196920 On ch=2 n=d#5 v=24
197028 On ch=2 n=d#5 v=0
197040 On ch=2 n=g#4 v=22
197148 On ch=2 n=g#4 v=0
197160 On ch=2 n=c#4 v=26
197160 Par ch=2 c=64 v=0
197268 On ch=2 n=c#4 v=0
197280 On ch=2 n=g#4 v=24
197280 Par ch=2 c=64 v=127
197388 On ch=2 n=g#4 v=0
197400 On ch=2 n=c#5 v=25
197508 On ch=2 n=c#5 v=0
197520 On ch=2 n=g#4 v=23
197628 On ch=2 n=g#4 v=0
197640 On ch=2 n=c#5 v=25
197748 On ch=2 n=c#5 v=0
197760 On ch=2 n=g#4 v=23
197868 On ch=2 n=g#4 v=0
197880 On ch=2 n=c#5 v=24
197988 On ch=2 n=c#5 v=0
198000 On ch=2 n=g#4 v=26
198120 Par ch=2 c=64 v=0
198228 On ch=2 n=g#4 v=0
198240 On ch=2 n=c#5 v=24
198240 Par ch=2 c=64 v=127
198348 On ch=2 n=c#5 v=0
198360 On ch=2 n=g#4 v=25
198468 On ch=2 n=g#4 v=0
198480 On ch=2 n=c#5 v=23
198588 On ch=2 n=c#5 v=0
198600 On ch=2 n=f5 v=20
198708 On ch=2 n=f5 v=0
198720 On ch=2 n=g#5 v=19
198828 On ch=2 n=g#5 v=0
198840 On ch=2 n=c#6 v=18
198948 On ch=2 n=c#6 v=0
198960 On ch=2 n=f6 v=17
199200 On ch=2 n=f6 v=0
199200 Par ch=2 c=64 v=0
199335 On ch=2 n=c#3 v=75
199335 Par ch=2 c=64 v=127
199380 On ch=2 n=c#3 v=0
199380 On ch=2 n=c#4 v=70
199425 On ch=2 n=c#4 v=0
199425 On ch=2 n=e4 v=65
199470 On ch=2 n=e4 v=0
199470 On ch=2 n=g#4 v=64
199515 On ch=2 n=g#4 v=0
199515 On ch=2 n=c#5 v=63
199560 On ch=2 n=c#5 v=0
199560 On ch=2 n=e5 v=90
200208 On ch=2 n=e5 v=0
200280 On ch=2 n=e5 v=71
200496 On ch=2 n=e5 v=0
200520 On ch=2 n=d#5 v=73
200736 On ch=2 n=d#5 v=0
200760 On ch=2 n=c#5 v=75
200760 Par ch=2 c=64 v=0
200880 Par ch=2 c=64 v=127
201408 On ch=2 n=c#5 v=0
201420 Par ch=2 c=64 v=0
201495 On ch=2 n=a2 v=75
201495 Par ch=2 c=64 v=127
201540 On ch=2 n=a2 v=0
201540 On ch=2 n=a3 v=70
201585 On ch=2 n=a3 v=0
201585 On ch=2 n=e4 v=65
201630 On ch=2 n=e4 v=0
201630 On ch=2 n=g4 v=64
201675 On ch=2 n=g4 v=0
201675 On ch=2 n=c#5 v=63
201720 On ch=2 n=c#5 v=0
201720 On ch=2 n=e5 v=90
202368 On ch=2 n=e5 v=0
202440 On ch=2 n=e5 v=71
202656 On ch=2 n=e5 v=0
202680 On ch=2 n=d#5 v=73
202896 On ch=2 n=d#5 v=0
202920 On ch=2 n=c#5 v=75
202920 Par ch=2 c=64 v=0
203040 Par ch=2 c=64 v=127
203568 On ch=2 n=c#5 v=0
203580 Par ch=2 c=64 v=0
203640 On ch=2 n=g#3 v=75
203640 Par ch=2 c=64 v=127
203679 On ch=2 n=d#4 v=70
203719 On ch=2 n=g#4 v=68
203760 On ch=2 n=c5 v=80
203856 On ch=2 n=g#4 v=0
203856 On ch=2 n=d#4 v=0
203856 On ch=2 n=g#3 v=0
204060 Par ch=2 c=64 v=0
204120 On ch=2 n=c5 v=0
204120 On ch=2 n=g#3 v=65
204120 Par ch=2 c=64 v=127
204159 On ch=2 n=f4 v=60
204199 On ch=2 n=g#4 v=58
204240 On ch=2 n=c#5 v=70
204336 On ch=2 n=g#4 v=0
204336 On ch=2 n=f4 v=0
204336 On ch=2 n=g#3 v=0
204444 On ch=2 n=c#5 v=0
204480 On ch=2 n=d5 v=68
204540 Par ch=2 c=64 v=0
204588 On ch=2 n=d5 v=0
204600 On ch=2 n=g#3 v=70
204600 Par ch=2 c=64 v=127
204650 On ch=2 n=f#4 v=65
204700 On ch=2 n=g#4 v=63
204750 On ch=2 n=c5 v=70
204800 On ch=2 n=d#5 v=75
204816 On ch=2 n=g#3 v=0
204836 On ch=2 n=f#4 v=0
204856 On ch=2 n=g#4 v=0
205092 On ch=2 n=c5 v=0
205112 On ch=2 n=d#5 v=0
205440 Par ch=2 c=64 v=0
205560 Par ch=2 c=64 v=127
205680 On ch=2 n=f#4 v=19
205680 On ch=2 n=d#5 v=17
205788 On ch=2 n=d#5 v=0
205788 On ch=2 n=f#4 v=0
205800 On ch=2 n=c5 v=21
205800 On ch=2 n=g#5 v=19
205908 On ch=2 n=g#5 v=0
205908 On ch=2 n=c5 v=0
205920 On ch=2 n=f#4 v=18
205920 On ch=2 n=d#5 v=16
206028 On ch=2 n=d#5 v=0
206028 On ch=2 n=f#4 v=0
206040 On ch=2 n=c5 v=21
206040 On ch=2 n=g#5 v=19
206148 On ch=2 n=g#5 v=0
206148 On ch=2 n=c5 v=0
206160 On ch=2 n=f#4 v=19
206160 On ch=2 n=d#5 v=17
206268 On ch=2 n=d#5 v=0
206268 On ch=2 n=f#4 v=0
206280 On ch=2 n=c5 v=20
206280 On ch=2 n=g#5 v=18
206388 On ch=2 n=g#5 v=0
206388 On ch=2 n=c5 v=0
206400 On ch=2 n=f#4 v=18
206400 On ch=2 n=d#5 v=16
206508 On ch=2 n=d#5 v=0
206508 On ch=2 n=f#4 v=0
206520 On ch=2 n=g#3 v=37
206520 Par ch=2 c=64 v=0
206640 On ch=2 n=f#4 v=20
206640 On ch=2 n=d#5 v=18
206640 Par ch=2 c=64 v=127
206736 On ch=2 n=g#3 v=0
206748 On ch=2 n=d#5 v=0
206748 On ch=2 n=f#4 v=0
206760 On ch=2 n=c5 v=21
206760 On ch=2 n=g#5 v=19
206868 On ch=2 n=g#5 v=0
206868 On ch=2 n=c5 v=0
206880 On ch=2 n=f#4 v=19
206880 On ch=2 n=d#5 v=17
206988 On ch=2 n=d#5 v=0
206988 On ch=2 n=f#4 v=0
207000 On ch=2 n=c5 v=21
207000 On ch=2 n=g#5 v=19
207108 On ch=2 n=g#5 v=0
207108 On ch=2 n=c5 v=0
207120 On ch=2 n=f#4 v=19
207120 On ch=2 n=d#5 v=17
207228 On ch=2 n=d#5 v=0
207228 On ch=2 n=f#4 v=0
207240 On ch=2 n=c5 v=20
207240 On ch=2 n=g#5 v=18
207348 On ch=2 n=g#5 v=0
207348 On ch=2 n=c5 v=0
207360 On ch=2 n=f#4 v=18
207360 On ch=2 n=d#5 v=16
207468 On ch=2 n=d#5 v=0
207468 On ch=2 n=f#4 v=0
207480 On ch=2 n=c#3 v=37
207480 Par ch=2 c=64 v=0
207600 On ch=2 n=f4 v=20
207600 On ch=2 n=c#5 v=18
207600 Par ch=2 c=64 v=127
207696 On ch=2 n=c#3 v=0
207708 On ch=2 n=c#5 v=0
207708 On ch=2 n=f4 v=0
207720 On ch=2 n=g#4 v=21
207720 On ch=2 n=g#5 v=19
207828 On ch=2 n=g#5 v=0
207828 On ch=2 n=g#4 v=0
207840 On ch=2 n=f4 v=19
207840 On ch=2 n=c#5 v=17
207948 On ch=2 n=c#5 v=0
207948 On ch=2 n=f4 v=0
207960 On ch=2 n=g#4 v=21
207960 On ch=2 n=g#5 v=19
208068 On ch=2 n=g#5 v=0
208068 On ch=2 n=g#4 v=0
208080 On ch=2 n=f4 v=19
208080 On ch=2 n=c#5 v=17
208188 On ch=2 n=c#5 v=0
208188 On ch=2 n=f4 v=0
208200 On ch=2 n=g#4 v=20
208200 On ch=2 n=g#5 v=18
208308 On ch=2 n=g#5 v=0
208308 On ch=2 n=g#4 v=0
208320 On ch=2 n=f4 v=18
208320 On ch=2 n=c#5 v=16
208428 On ch=2 n=c#5 v=0
208428 On ch=2 n=f4 v=0
208440 On ch=2 n=g#2 v=37
208440 Par ch=2 c=64 v=0
208560 On ch=2 n=f#4 v=20
208560 On ch=2 n=d#5 v=18
208560 Par ch=2 c=64 v=127
208656 On ch=2 n=g#2 v=0
208668 On ch=2 n=d#5 v=0
208668 On ch=2 n=f#4 v=0
208680 On ch=2 n=c5 v=21
208680 On ch=2 n=g#5 v=19
208788 On ch=2 n=g#5 v=0
208788 On ch=2 n=c5 v=0
208800 On ch=2 n=f#4 v=19
208800 On ch=2 n=d#5 v=17
208908 On ch=2 n=d#5 v=0
208908 On ch=2 n=f#4 v=0
208920 On ch=2 n=c5 v=21
208920 On ch=2 n=g#5 v=19
209028 On ch=2 n=g#5 v=0
209028 On ch=2 n=c5 v=0
209040 On ch=2 n=f#4 v=19
209040 On ch=2 n=d#5 v=17
209148 On ch=2 n=d#5 v=0
209148 On ch=2 n=f#4 v=0
209160 On ch=2 n=c5 v=20
209160 On ch=2 n=g#5 v=18
209268 On ch=2 n=g#5 v=0
209268 On ch=2 n=c5 v=0
209280 On ch=2 n=f#4 v=18
209280 On ch=2 n=d#5 v=16
209388 On ch=2 n=d#5 v=0
209388 On ch=2 n=f#4 v=0
209400 On ch=2 n=c#3 v=37
209400 Par ch=2 c=64 v=0
209520 On ch=2 n=f4 v=20
209520 On ch=2 n=c#5 v=18
209520 Par ch=2 c=64 v=127
209616 On ch=2 n=c#3 v=0
209628 On ch=2 n=c#5 v=0
209628 On ch=2 n=f4 v=0
209640 On ch=2 n=g#4 v=21
209640 On ch=2 n=g#5 v=19
209748 On ch=2 n=g#5 v=0
209748 On ch=2 n=g#4 v=0
209760 On ch=2 n=f4 v=19
209760 On ch=2 n=c#5 v=17
209868 On ch=2 n=c#5 v=0
209868 On ch=2 n=f4 v=0
209880 On ch=2 n=g#4 v=21
209880 On ch=2 n=g#5 v=19
209988 On ch=2 n=g#5 v=0
209988 On ch=2 n=g#4 v=0
210000 On ch=2 n=f4 v=19
210000 On ch=2 n=c#5 v=17
210108 On ch=2 n=c#5 v=0
210108 On ch=2 n=f4 v=0
210120 On ch=2 n=g#4 v=20
210120 On ch=2 n=g#5 v=18
210228 On ch=2 n=g#5 v=0
210228 On ch=2 n=g#4 v=0
210240 On ch=2 n=f4 v=18
210240 On ch=2 n=c#5 v=16
210348 On ch=2 n=c#5 v=0
210348 On ch=2 n=f4 v=0
210360 On ch=2 n=g#4 v=22
210360 On ch=2 n=g#5 v=20
210360 Par ch=2 c=64 v=0
210468 On ch=2 n=g#5 v=0
210468 On ch=2 n=g#4 v=0
210480 On ch=2 n=f4 v=20
210480 On ch=2 n=c#5 v=18
210480 Par ch=2 c=64 v=127
210588 On ch=2 n=c#5 v=0
210588 On ch=2 n=f4 v=0
210600 On ch=2 n=g#4 v=21
210600 On ch=2 n=g#5 v=19
210708 On ch=2 n=g#5 v=0
210708 On ch=2 n=g#4 v=0
210720 On ch=2 n=f4 v=19
210720 On ch=2 n=c#5 v=17
210828 On ch=2 n=c#5 v=0
210828 On ch=2 n=f4 v=0
210840 On ch=2 n=g#4 v=21
210840 On ch=2 n=g#5 v=19
210948 On ch=2 n=g#5 v=0
210948 On ch=2 n=g#4 v=0
210960 On ch=2 n=f4 v=19
210960 On ch=2 n=c#5 v=17
211068 On ch=2 n=c#5 v=0
211068 On ch=2 n=f4 v=0
211080 On ch=2 n=g#4 v=20
211080 On ch=2 n=g#5 v=18
211188 On ch=2 n=g#5 v=0
211188 On ch=2 n=g#4 v=0
211200 On ch=2 n=c#5 v=16
211200 On ch=2 n=f4 v=18
211440 On ch=2 n=f4 v=0
211440 On ch=2 n=c#5 v=0
211440 Par ch=2 c=64 v=0
211800 On ch=2 n=g#4 v=15
211800 On ch=2 n=c#5 v=19
211800 On ch=2 n=f5 v=29
211800 On ch=2 n=c#3 v=24
211800 On ch=2 n=g#3 v=17
211800 Par ch=2 c=64 v=127
211908 On ch=2 n=g#3 v=0
211908 On ch=2 n=c#3 v=0
211908 On ch=2 n=f5 v=0
211908 On ch=2 n=c#5 v=0
211908 On ch=2 n=g#4 v=0
211920 On ch=2 n=c#3 v=26
211920 On ch=2 n=g#3 v=19
211920 On ch=2 n=g#4 v=17
211920 On ch=2 n=c#5 v=21
211920 On ch=2 n=f5 v=31
212352 On ch=2 n=f5 v=0
212352 On ch=2 n=c#5 v=0
212352 On ch=2 n=g#4 v=0
212352 On ch=2 n=g#3 v=0
212352 On ch=2 n=c#3 v=0
212640 On ch=2 n=c#3 v=22
212640 On ch=2 n=g#3 v=15
212640 On ch=2 n=g#4 v=13
212640 On ch=2 n=d#5 v=17
212640 On ch=2 n=f#5 v=27
212748 On ch=2 n=f#5 v=0
212748 On ch=2 n=d#5 v=0
212748 On ch=2 n=g#4 v=0
212748 On ch=2 n=g#3 v=0
212748 On ch=2 n=c#3 v=0
212760 On ch=2 n=c#3 v=24
212760 On ch=2 n=g#3 v=17
212760 On ch=2 n=g#4 v=15
212760 On ch=2 n=f5 v=19
212760 On ch=2 n=g#5 v=29
212760 Par ch=2 c=64 v=0
212820 Par ch=2 c=64 v=120
212868 On ch=2 n=g#5 v=0
212868 On ch=2 n=f5 v=0
212868 On ch=2 n=g#4 v=0
212868 On ch=2 n=g#3 v=0
212868 On ch=2 n=c#3 v=0
212880 On ch=2 n=c#3 v=26
212880 On ch=2 n=g#3 v=19
212880 On ch=2 n=g#4 v=17
212880 On ch=2 n=f5 v=21
212880 On ch=2 n=g#5 v=31
213312 On ch=2 n=g#5 v=0
213312 On ch=2 n=f5 v=0
213312 On ch=2 n=g#4 v=0
213312 On ch=2 n=g#3 v=0
213312 On ch=2 n=c#3 v=0
213600 On ch=2 n=c#3 v=22
213600 On ch=2 n=g#3 v=15
213600 On ch=2 n=g#4 v=13
213600 On ch=2 n=f5 v=17
213600 On ch=2 n=g#5 v=27
213708 On ch=2 n=g#5 v=0
213708 On ch=2 n=f5 v=0
213708 On ch=2 n=g#4 v=0
213708 On ch=2 n=g#3 v=0
213708 On ch=2 n=c#3 v=0
213720 On ch=2 n=c#3 v=24
213720 On ch=2 n=c#4 v=17
213720 On ch=2 n=f5 v=19
213720 On ch=2 n=g#5 v=29
213720 On ch=2 n=b4 v=15
213720 Par ch=2 c=64 v=0
213780 Par ch=2 c=64 v=127
213828 On ch=2 n=b4 v=0
213828 On ch=2 n=g#5 v=0
213828 On ch=2 n=f5 v=0
213828 On ch=2 n=c#4 v=0
213828 On ch=2 n=c#3 v=0
213840 On ch=2 n=c#3 v=26
213840 On ch=2 n=c#4 v=19
213840 On ch=2 n=f5 v=21
213840 On ch=2 n=g#5 v=31
213840 On ch=2 n=b4 v=17
214272 On ch=2 n=b4 v=0
214272 On ch=2 n=g#5 v=0
214272 On ch=2 n=f5 v=0
214272 On ch=2 n=c#4 v=0
214272 On ch=2 n=c#3 v=0
214560 On ch=2 n=c#3 v=22
214560 On ch=2 n=c#4 v=15
214560 On ch=2 n=f5 v=17
214560 On ch=2 n=a5 v=27
214560 On ch=2 n=b4 v=13
214668 On ch=2 n=b4 v=0
214668 On ch=2 n=a5 v=0
214668 On ch=2 n=f5 v=0
214668 On ch=2 n=c#4 v=0
214668 On ch=2 n=c#3 v=0
214680 On ch=2 n=f#3 v=24
214680 On ch=2 n=c#4 v=17
214680 On ch=2 n=a#4 v=15
214680 On ch=2 n=f#5 v=19
214680 On ch=2 n=a#5 v=29
214680 Par ch=2 c=64 v=0
214740 Par ch=2 c=64 v=127
214788 On ch=2 n=a#5 v=0
214788 On ch=2 n=f#5 v=0
214788 On ch=2 n=a#4 v=0
214788 On ch=2 n=c#4 v=0
214788 On ch=2 n=f#3 v=0
214800 On ch=2 n=f#3 v=26
214800 On ch=2 n=c#4 v=19
214800 On ch=2 n=a#4 v=17
214800 On ch=2 n=f#5 v=21
214800 On ch=2 n=a#5 v=31
215232 On ch=2 n=a#5 v=0
215232 On ch=2 n=f#5 v=0
215232 On ch=2 n=a#4 v=0
215232 On ch=2 n=c#4 v=0
215232 On ch=2 n=f#3 v=0
215520 On ch=2 n=f#2 v=22
215520 On ch=2 n=f#3 v=15
215520 On ch=2 n=a#4 v=13
215520 On ch=2 n=d#5 v=17
215520 On ch=2 n=f#5 v=27
215628 On ch=2 n=f#5 v=0
215628 On ch=2 n=d#5 v=0
215628 On ch=2 n=a#4 v=0
215628 On ch=2 n=f#3 v=0
215628 On ch=2 n=f#2 v=0
215640 On ch=2 n=g#2 v=24
215640 On ch=2 n=g#3 v=17
215640 On ch=2 n=g#4 v=15
215640 On ch=2 n=c5 v=19
215640 On ch=2 n=d#5 v=29
215640 Par ch=2 c=64 v=0
215700 Par ch=2 c=64 v=127
215748 On ch=2 n=d#5 v=0
215748 On ch=2 n=c5 v=0
215748 On ch=2 n=g#4 v=0
215748 On ch=2 n=g#3 v=0
215748 On ch=2 n=g#2 v=0
215760 On ch=2 n=g#2 v=26
215760 On ch=2 n=g#3 v=19
215760 On ch=2 n=g#4 v=17
215760 On ch=2 n=c5 v=21
215760 On ch=2 n=d#5 v=31
216192 On ch=2 n=d#5 v=0
216192 On ch=2 n=c5 v=0
216192 On ch=2 n=g#4 v=0
216192 On ch=2 n=g#3 v=0
216192 On ch=2 n=g#2 v=0
216480 On ch=2 n=g#2 v=22
216480 On ch=2 n=g#3 v=15
216480 On ch=2 n=f4 v=13
216480 On ch=2 n=b4 v=17
216480 On ch=2 n=d5 v=27
216588 On ch=2 n=d5 v=0
216588 On ch=2 n=b4 v=0
216588 On ch=2 n=f4 v=0
216588 On ch=2 n=g#3 v=0
216588 On ch=2 n=g#2 v=0
216600 On ch=2 n=g#2 v=24
216600 On ch=2 n=g#3 v=17
216600 On ch=2 n=g#4 v=15
216600 On ch=2 n=c5 v=19
216600 On ch=2 n=d#5 v=29
216600 Par ch=2 c=64 v=0
216660 Par ch=2 c=64 v=127
216708 On ch=2 n=d#5 v=0
216708 On ch=2 n=c5 v=0
216708 On ch=2 n=g#4 v=0
216708 On ch=2 n=g#3 v=0
216708 On ch=2 n=g#2 v=0
216720 On ch=2 n=g#2 v=26
216720 On ch=2 n=g#3 v=19
216720 On ch=2 n=g#4 v=17
216720 On ch=2 n=c5 v=21
216720 On ch=2 n=d#5 v=31
217368 On ch=2 n=d#5 v=0
217368 On ch=2 n=c5 v=0
217368 On ch=2 n=g#4 v=0
217368 On ch=2 n=g#3 v=0
217368 On ch=2 n=g#2 v=0
217560 On ch=2 n=g#2 v=24
217560 On ch=2 n=g#3 v=17
217560 On ch=2 n=g#4 v=15
217560 On ch=2 n=c5 v=19
217560 On ch=2 n=d#5 v=29
217560 Par ch=2 c=64 v=0
217620 Par ch=2 c=64 v=127
217668 On ch=2 n=d#5 v=0
217668 On ch=2 n=c5 v=0
217668 On ch=2 n=g#4 v=0
217668 On ch=2 n=g#3 v=0
217668 On ch=2 n=g#2 v=0
217680 On ch=2 n=g#2 v=26
217680 On ch=2 n=g#3 v=19
217680 On ch=2 n=g#4 v=17
217680 On ch=2 n=c5 v=21
217680 On ch=2 n=d#5 v=31
218112 On ch=2 n=d#5 v=0
218112 On ch=2 n=c5 v=0
218112 On ch=2 n=g#4 v=0
218112 On ch=2 n=g#3 v=0
218112 On ch=2 n=g#2 v=0
218400 On ch=2 n=g#2 v=22
218400 On ch=2 n=g#3 v=15
218400 On ch=2 n=g#4 v=13
218400 On ch=2 n=c#5 v=17
218400 On ch=2 n=f5 v=27
218508 On ch=2 n=f5 v=0
218508 On ch=2 n=c#5 v=0
218508 On ch=2 n=g#4 v=0
218508 On ch=2 n=g#3 v=0
218508 On ch=2 n=g#2 v=0
218520 On ch=2 n=g#2 v=24
218520 On ch=2 n=g#3 v=17
218520 On ch=2 n=g#4 v=15
218520 On ch=2 n=d#5 v=19
218520 On ch=2 n=f#5 v=29
218520 Par ch=2 c=64 v=0
218580 Par ch=2 c=64 v=127
218628 On ch=2 n=f#5 v=0
218628 On ch=2 n=d#5 v=0
218628 On ch=2 n=g#4 v=0
218628 On ch=2 n=g#3 v=0
218628 On ch=2 n=g#2 v=0
218640 On ch=2 n=g#2 v=26
218640 On ch=2 n=g#3 v=19
218640 On ch=2 n=g#4 v=17
218640 On ch=2 n=d#5 v=21
218640 On ch=2 n=f#5 v=31
219072 On ch=2 n=f#5 v=0
219072 On ch=2 n=d#5 v=0
219072 On ch=2 n=g#4 v=0
219072 On ch=2 n=g#3 v=0
219072 On ch=2 n=g#2 v=0
219360 On ch=2 n=g#2 v=27
219360 On ch=2 n=g#3 v=20
219360 On ch=2 n=g#4 v=18
219360 On ch=2 n=d#5 v=22
219360 On ch=2 n=f#5 v=32
219468 On ch=2 n=f#5 v=0
219468 On ch=2 n=d#5 v=0
219468 On ch=2 n=g#4 v=0
219468 On ch=2 n=g#3 v=0
219468 On ch=2 n=g#2 v=0
219480 On ch=2 n=g#2 v=29
219480 On ch=2 n=g#3 v=22
219480 On ch=2 n=g#4 v=18
219480 On ch=2 n=c5 v=20
219480 On ch=2 n=d#5 v=24
219480 On ch=2 n=f#5 v=34
219480 Par ch=2 c=64 v=127
219540 Par ch=2 c=64 v=127
219588 On ch=2 n=f#5 v=0
219588 On ch=2 n=d#5 v=0
219588 On ch=2 n=c5 v=0
219588 On ch=2 n=g#4 v=0
219588 On ch=2 n=g#3 v=0
219588 On ch=2 n=g#2 v=0
219600 On ch=2 n=g#2 v=31
219600 On ch=2 n=g#3 v=24
219600 On ch=2 n=g#4 v=20
219600 On ch=2 n=c5 v=22
219600 On ch=2 n=d#5 v=26
219600 On ch=2 n=f#5 v=36
220032 On ch=2 n=f#5 v=0
220032 On ch=2 n=d#5 v=0
220032 On ch=2 n=c5 v=0
220032 On ch=2 n=g#4 v=0
220032 On ch=2 n=g#3 v=0
220032 On ch=2 n=g#2 v=0
220320 On ch=2 n=g#2 v=32
220320 On ch=2 n=g#3 v=25
220320 On ch=2 n=g#4 v=21
220320 On ch=2 n=c#5 v=23
220320 On ch=2 n=e5 v=27
220320 On ch=2 n=g5 v=37
220428 On ch=2 n=g5 v=0
220428 On ch=2 n=e5 v=0
220428 On ch=2 n=c#5 v=0
220428 On ch=2 n=g#4 v=0
220428 On ch=2 n=g#3 v=0
220428 On ch=2 n=g#2 v=0
220440 On ch=2 n=g#2 v=34
220440 On ch=2 n=g#3 v=27
220440 On ch=2 n=g#4 v=23
220440 On ch=2 n=c5 v=25
220440 On ch=2 n=d#5 v=29
220440 On ch=2 n=g#5 v=39
220440 Par ch=2 c=64 v=0
220500 Par ch=2 c=64 v=127
220548 On ch=2 n=g#5 v=0
220548 On ch=2 n=d#5 v=0
220548 On ch=2 n=c5 v=0
220548 On ch=2 n=g#4 v=0
220548 On ch=2 n=g#3 v=0
220548 On ch=2 n=g#2 v=0
220560 On ch=2 n=g#2 v=36
220560 On ch=2 n=g#3 v=29
220560 On ch=2 n=g#4 v=25
220560 On ch=2 n=c5 v=27
220560 On ch=2 n=d#5 v=31
220560 On ch=2 n=g#5 v=41
220992 On ch=2 n=g#5 v=0
220992 On ch=2 n=d#5 v=0
220992 On ch=2 n=c5 v=0
220992 On ch=2 n=g#4 v=0
220992 On ch=2 n=g#3 v=0
220992 On ch=2 n=g#2 v=0
221280 On ch=2 n=g#2 v=32
221280 On ch=2 n=g#3 v=25
221280 On ch=2 n=f#4 v=23
221280 On ch=2 n=g#4 v=27
221280 On ch=2 n=c5 v=37
221388 On ch=2 n=c5 v=0
221388 On ch=2 n=g#4 v=0
221388 On ch=2 n=f#4 v=0
221388 On ch=2 n=g#3 v=0
221388 On ch=2 n=g#2 v=0
221400 On ch=2 n=c#3 v=34
221400 On ch=2 n=g#3 v=27
221400 On ch=2 n=f4 v=25
221400 On ch=2 n=g#4 v=29
221400 On ch=2 n=c#5 v=39
221400 Par ch=2 c=64 v=0
221460 Par ch=2 c=64 v=127
221508 On ch=2 n=c#5 v=0
221508 On ch=2 n=g#4 v=0
221508 On ch=2 n=f4 v=0
221508 On ch=2 n=g#3 v=0
221508 On ch=2 n=c#3 v=0
221520 On ch=2 n=c#3 v=36
221520 On ch=2 n=g#3 v=29
221520 On ch=2 n=f4 v=27
221520 On ch=2 n=g#4 v=31
221520 On ch=2 n=c#5 v=41
221952 On ch=2 n=c#5 v=0
221952 On ch=2 n=g#4 v=0
221952 On ch=2 n=f4 v=0
221952 On ch=2 n=g#3 v=0
221952 On ch=2 n=c#3 v=0
222240 On ch=2 n=c#3 v=32
222240 On ch=2 n=g#3 v=25
222240 On ch=2 n=g#4 v=27
222240 On ch=2 n=c5 v=37
222240 On ch=2 n=e4 v=23
222348 On ch=2 n=e4 v=0
222348 On ch=2 n=c5 v=0
222348 On ch=2 n=g#4 v=0
222348 On ch=2 n=g#3 v=0
222348 On ch=2 n=c#3 v=0
222360 On ch=2 n=c#3 v=34
222360 On ch=2 n=g#3 v=27
222360 On ch=2 n=f4 v=25
222360 On ch=2 n=g#4 v=29
222360 On ch=2 n=c#5 v=39
222360 Par ch=2 c=64 v=0
222420 Par ch=2 c=64 v=127
222468 On ch=2 n=c#5 v=0
222468 On ch=2 n=g#4 v=0
222468 On ch=2 n=f4 v=0
222468 On ch=2 n=g#3 v=0
222468 On ch=2 n=c#3 v=0
222480 On ch=2 n=c#3 v=36
222480 On ch=2 n=g#3 v=29
222480 On ch=2 n=f4 v=27
222480 On ch=2 n=g#4 v=31
222480 On ch=2 n=c#5 v=41
222912 On ch=2 n=c#5 v=0
222912 On ch=2 n=g#4 v=0
222912 On ch=2 n=f4 v=0
222912 On ch=2 n=g#3 v=0
222912 On ch=2 n=c#3 v=0
223200 On ch=2 n=g#3 v=40
223200 On ch=2 n=g#4 v=42
223308 On ch=2 n=g#4 v=0
223308 On ch=2 n=g#3 v=0
223320 On ch=2 n=c#3 v=39
223320 On ch=2 n=g#3 v=32
223320 On ch=2 n=c#4 v=28
223320 On ch=2 n=f4 v=26
223320 On ch=2 n=g#4 v=30
223320 On ch=2 n=c#5 v=34
223320 On ch=2 n=f5 v=44
223320 Par ch=2 c=64 v=0
223380 Par ch=2 c=64 v=127
223428 On ch=2 n=f5 v=0
223428 On ch=2 n=c#5 v=0
223428 On ch=2 n=g#4 v=0
223428 On ch=2 n=f4 v=0
223428 On ch=2 n=c#4 v=0
223428 On ch=2 n=g#3 v=0
223428 On ch=2 n=c#3 v=0
223440 On ch=2 n=c#3 v=41
223440 On ch=2 n=g#3 v=34
223440 On ch=2 n=c#4 v=30
223440 On ch=2 n=f4 v=28
223440 On ch=2 n=g#4 v=32
223440 On ch=2 n=c#5 v=36
223440 On ch=2 n=f5 v=46
223872 On ch=2 n=f5 v=0
223872 On ch=2 n=c#5 v=0
223872 On ch=2 n=g#4 v=0
223872 On ch=2 n=f4 v=0
223872 On ch=2 n=c#4 v=0
223872 On ch=2 n=g#3 v=0
223872 On ch=2 n=c#3 v=0
224160 On ch=2 n=c#3 v=42
224160 On ch=2 n=g#3 v=35
224160 On ch=2 n=c#4 v=31
224160 On ch=2 n=f#4 v=33
224160 On ch=2 n=d#5 v=37
224160 On ch=2 n=f#5 v=47
224268 On ch=2 n=f#5 v=0
224268 On ch=2 n=d#5 v=0
224268 On ch=2 n=f#4 v=0
224268 On ch=2 n=c#4 v=0
224268 On ch=2 n=g#3 v=0
224268 On ch=2 n=c#3 v=0
224280 On ch=2 n=c#3 v=44
224280 On ch=2 n=g#3 v=37
224280 On ch=2 n=c#4 v=33
224280 On ch=2 n=g#4 v=35
224280 On ch=2 n=f5 v=39
224280 On ch=2 n=g#5 v=49
224280 Par ch=2 c=64 v=0
224340 Par ch=2 c=64 v=127
224388 On ch=2 n=g#5 v=0
224388 On ch=2 n=f5 v=0
224388 On ch=2 n=g#4 v=0
224388 On ch=2 n=c#4 v=0
224388 On ch=2 n=g#3 v=0
224388 On ch=2 n=c#3 v=0
224400 On ch=2 n=c#3 v=46
224400 On ch=2 n=g#3 v=39
224400 On ch=2 n=c#4 v=35
224400 On ch=2 n=g#4 v=37
224400 On ch=2 n=f5 v=41
224400 On ch=2 n=g#5 v=51
224832 On ch=2 n=g#5 v=0
224832 On ch=2 n=f5 v=0
224832 On ch=2 n=g#4 v=0
224832 On ch=2 n=c#4 v=0
224832 On ch=2 n=g#3 v=0
224832 On ch=2 n=c#3 v=0
225120 On ch=2 n=c#3 v=42
225120 On ch=2 n=g#3 v=35
225120 On ch=2 n=c#4 v=31
225120 On ch=2 n=g#4 v=33
225120 On ch=2 n=f5 v=37
225120 On ch=2 n=g#5 v=47
225228 On ch=2 n=g#5 v=0
225228 On ch=2 n=f5 v=0
225228 On ch=2 n=g#4 v=0
225228 On ch=2 n=c#4 v=0
225228 On ch=2 n=g#3 v=0
225228 On ch=2 n=c#3 v=0
225240 On ch=2 n=c#3 v=44
225240 On ch=2 n=c#4 v=37
225240 On ch=2 n=f5 v=39
225240 On ch=2 n=g#5 v=49
225240 On ch=2 n=b4 v=35
225240 Par ch=2 c=64 v=0
225300 Par ch=2 c=64 v=127
225348 On ch=2 n=b4 v=0
225348 On ch=2 n=g#5 v=0
225348 On ch=2 n=f5 v=0
225348 On ch=2 n=c#4 v=0
225348 On ch=2 n=c#3 v=0
225360 On ch=2 n=c#3 v=46
225360 On ch=2 n=c#4 v=39
225360 On ch=2 n=f5 v=41
225360 On ch=2 n=g#5 v=51
225360 On ch=2 n=b4 v=37
225792 On ch=2 n=b4 v=0
225792 On ch=2 n=g#5 v=0
225792 On ch=2 n=f5 v=0
225792 On ch=2 n=c#4 v=0
225792 On ch=2 n=c#3 v=0
226080 On ch=2 n=c#3 v=42
226080 On ch=2 n=c#4 v=35
226080 On ch=2 n=f5 v=37
226080 On ch=2 n=b4 v=33
226080 On ch=2 n=a5 v=47
226188 On ch=2 n=a5 v=0
226188 On ch=2 n=b4 v=0
226188 On ch=2 n=f5 v=0
226188 On ch=2 n=c#4 v=0
226188 On ch=2 n=c#3 v=0
226200 On ch=2 n=f#3 v=44
226200 On ch=2 n=c#4 v=37
226200 On ch=2 n=a#4 v=35
226200 On ch=2 n=f#5 v=39
226200 On ch=2 n=a#5 v=49
226200 Par ch=2 c=64 v=0
226260 Par ch=2 c=64 v=127
226308 On ch=2 n=a#5 v=0
226308 On ch=2 n=f#5 v=0
226308 On ch=2 n=a#4 v=0
226308 On ch=2 n=c#4 v=0
226308 On ch=2 n=f#3 v=0
226320 On ch=2 n=f#3 v=46
226320 On ch=2 n=c#4 v=39
226320 On ch=2 n=a#4 v=37
226320 On ch=2 n=f#5 v=41
226320 On ch=2 n=a#5 v=51
226752 On ch=2 n=a#5 v=0
226752 On ch=2 n=f#5 v=0
226752 On ch=2 n=a#4 v=0
226752 On ch=2 n=c#4 v=0
226752 On ch=2 n=f#3 v=0
227040 On ch=2 n=f#2 v=42
227040 On ch=2 n=f#3 v=35
227040 On ch=2 n=a#4 v=33
227040 On ch=2 n=d#5 v=37
227040 On ch=2 n=f#5 v=47
227148 On ch=2 n=f#5 v=0
227148 On ch=2 n=d#5 v=0
227148 On ch=2 n=a#4 v=0
227148 On ch=2 n=f#3 v=0
227148 On ch=2 n=f#2 v=0
227160 On ch=2 n=g#2 v=44
227160 On ch=2 n=g#3 v=37
227160 On ch=2 n=g#4 v=35
227160 On ch=2 n=c5 v=39
227160 On ch=2 n=d#5 v=49
227160 Par ch=2 c=64 v=0
227220 Par ch=2 c=64 v=127
227268 On ch=2 n=d#5 v=0
227268 On ch=2 n=c5 v=0
227268 On ch=2 n=g#4 v=0
227268 On ch=2 n=g#3 v=0
227268 On ch=2 n=g#2 v=0
227280 On ch=2 n=g#2 v=46
227280 On ch=2 n=g#3 v=39
227280 On ch=2 n=g#4 v=37
227280 On ch=2 n=c5 v=41
227280 On ch=2 n=d#5 v=51
227712 On ch=2 n=d#5 v=0
227712 On ch=2 n=c5 v=0
227712 On ch=2 n=g#4 v=0
227712 On ch=2 n=g#3 v=0
227712 On ch=2 n=g#2 v=0
228000 On ch=2 n=g#2 v=42
228000 On ch=2 n=g#3 v=35
228000 On ch=2 n=f4 v=33
228000 On ch=2 n=b4 v=37
228000 On ch=2 n=d5 v=47
228108 On ch=2 n=d5 v=0
228108 On ch=2 n=b4 v=0
228108 On ch=2 n=f4 v=0
228108 On ch=2 n=g#3 v=0
228108 On ch=2 n=g#2 v=0
228120 On ch=2 n=g#2 v=44
228120 On ch=2 n=g#3 v=37
228120 On ch=2 n=g#4 v=35
228120 On ch=2 n=c5 v=39
228120 On ch=2 n=d#5 v=49
228120 Par ch=2 c=64 v=0
228180 Par ch=2 c=64 v=127
228228 On ch=2 n=d#5 v=0
228228 On ch=2 n=c5 v=0
228228 On ch=2 n=g#4 v=0
228228 On ch=2 n=g#3 v=0
228228 On ch=2 n=g#2 v=0
228240 On ch=2 n=g#2 v=46
228240 On ch=2 n=g#3 v=39
228240 On ch=2 n=g#4 v=37
228240 On ch=2 n=c5 v=41
228240 On ch=2 n=d#5 v=51
228888 On ch=2 n=d#5 v=0
228888 On ch=2 n=c5 v=0
228888 On ch=2 n=g#4 v=0
228888 On ch=2 n=g#3 v=0
228888 On ch=2 n=g#2 v=0
229080 On ch=2 n=g#2 v=49
229080 On ch=2 n=g#3 v=42
229080 On ch=2 n=g#4 v=40
229080 On ch=2 n=c5 v=44
229080 On ch=2 n=d#5 v=54
229080 Par ch=2 c=64 v=0
229140 Par ch=2 c=64 v=127
229188 On ch=2 n=d#5 v=0
229188 On ch=2 n=c5 v=0
229188 On ch=2 n=g#4 v=0
229188 On ch=2 n=g#3 v=0
229188 On ch=2 n=g#2 v=0
229200 On ch=2 n=g#2 v=51
229200 On ch=2 n=g#3 v=44
229200 On ch=2 n=g#4 v=42
229200 On ch=2 n=c5 v=46
229200 On ch=2 n=d#5 v=56
229632 On ch=2 n=d#5 v=0
229632 On ch=2 n=c5 v=0
229632 On ch=2 n=g#4 v=0
229632 On ch=2 n=g#3 v=0
229632 On ch=2 n=g#2 v=0
229920 On ch=2 n=g#2 v=52
229920 On ch=2 n=g#3 v=45
229920 On ch=2 n=g#4 v=43
229920 On ch=2 n=f5 v=57
229920 On ch=2 n=c#5 v=47
230028 On ch=2 n=c#5 v=0
230028 On ch=2 n=f5 v=0
230028 On ch=2 n=g#4 v=0
230028 On ch=2 n=g#3 v=0
230028 On ch=2 n=g#2 v=0
230040 On ch=2 n=g#2 v=54
230040 On ch=2 n=g#3 v=47
230040 On ch=2 n=g#4 v=45
230040 On ch=2 n=d#5 v=49
230040 On ch=2 n=f#5 v=59
230040 Par ch=2 c=64 v=0
230100 Par ch=2 c=64 v=127
230148 On ch=2 n=f#5 v=0
230148 On ch=2 n=d#5 v=0
230148 On ch=2 n=g#4 v=0
230148 On ch=2 n=g#3 v=0
230148 On ch=2 n=g#2 v=0
230160 On ch=2 n=g#2 v=56
230160 On ch=2 n=g#3 v=49
230160 On ch=2 n=g#4 v=47
230160 On ch=2 n=d#5 v=51
230160 On ch=2 n=f#5 v=61
230592 On ch=2 n=f#5 v=0
230592 On ch=2 n=d#5 v=0
230592 On ch=2 n=g#4 v=0
230592 On ch=2 n=g#3 v=0
230592 On ch=2 n=g#2 v=0
230880 On ch=2 n=g#2 v=57
230880 On ch=2 n=g#3 v=50
230880 On ch=2 n=g#4 v=48
230880 On ch=2 n=d#5 v=52
230880 On ch=2 n=f#5 v=62
230988 On ch=2 n=f#5 v=0
230988 On ch=2 n=d#5 v=0
230988 On ch=2 n=g#4 v=0
230988 On ch=2 n=g#3 v=0
230988 On ch=2 n=g#2 v=0
231000 On ch=2 n=g#2 v=59
231000 On ch=2 n=g#3 v=52
231000 On ch=2 n=g#4 v=48
231000 On ch=2 n=c5 v=50
231000 On ch=2 n=d#5 v=54
231000 On ch=2 n=f#5 v=64
231000 Par ch=2 c=64 v=0
231060 Par ch=2 c=64 v=127
231108 On ch=2 n=f#5 v=0
231108 On ch=2 n=d#5 v=0
231108 On ch=2 n=c5 v=0
231108 On ch=2 n=g#4 v=0
231108 On ch=2 n=g#3 v=0
231108 On ch=2 n=g#2 v=0
231120 On ch=2 n=g#2 v=61
231120 On ch=2 n=g#3 v=54
231120 On ch=2 n=g#4 v=50
231120 On ch=2 n=c5 v=52
231120 On ch=2 n=d#5 v=56
231120 On ch=2 n=f#5 v=66
231552 On ch=2 n=f#5 v=0
231552 On ch=2 n=d#5 v=0
231552 On ch=2 n=c5 v=0
231552 On ch=2 n=g#4 v=0
231552 On ch=2 n=g#3 v=0
231552 On ch=2 n=g#2 v=0
231840 On ch=2 n=g#2 v=62
231840 On ch=2 n=g#3 v=55
231840 On ch=2 n=g#4 v=51
231840 On ch=2 n=c#5 v=53
231840 On ch=2 n=e5 v=57
231840 On ch=2 n=g5 v=67
231948 On ch=2 n=g5 v=0
231948 On ch=2 n=e5 v=0
231948 On ch=2 n=c#5 v=0
231948 On ch=2 n=g#4 v=0
231948 On ch=2 n=g#3 v=0
231948 On ch=2 n=g#2 v=0
231960 On ch=2 n=g#2 v=64
231960 On ch=2 n=g#3 v=57
231960 On ch=2 n=g#4 v=53
231960 On ch=2 n=c5 v=55
231960 On ch=2 n=d#5 v=59
231960 On ch=2 n=g#5 v=69
231960 Par ch=2 c=64 v=0
232020 Par ch=2 c=64 v=127
232068 On ch=2 n=g#5 v=0
232068 On ch=2 n=d#5 v=0
232068 On ch=2 n=c5 v=0
232068 On ch=2 n=g#4 v=0
232068 On ch=2 n=g#3 v=0
232068 On ch=2 n=g#2 v=0
232080 On ch=2 n=g#2 v=66
232080 On ch=2 n=g#3 v=59
232080 On ch=2 n=g#4 v=55
232080 On ch=2 n=c5 v=57
232080 On ch=2 n=d#5 v=61
232080 On ch=2 n=g#5 v=71
232512 On ch=2 n=g#5 v=0
232512 On ch=2 n=d#5 v=0
232512 On ch=2 n=c5 v=0
232512 On ch=2 n=g#4 v=0
232512 On ch=2 n=g#3 v=0
232512 On ch=2 n=g#2 v=0
232800 On ch=2 n=g#2 v=62
232800 On ch=2 n=g#3 v=55
232800 On ch=2 n=f#4 v=53
232800 On ch=2 n=g#4 v=57
232800 On ch=2 n=c5 v=67
232908 On ch=2 n=c5 v=0
232908 On ch=2 n=g#4 v=0
232908 On ch=2 n=f#4 v=0
232908 On ch=2 n=g#3 v=0
232908 On ch=2 n=g#2 v=0
232920 On ch=2 n=c#3 v=64
232920 On ch=2 n=g#3 v=57
232920 On ch=2 n=f4 v=55
232920 On ch=2 n=g#4 v=59
232920 On ch=2 n=c#5 v=69
232920 Par ch=2 c=64 v=0
232980 Par ch=2 c=64 v=127
233028 On ch=2 n=c#5 v=0
233028 On ch=2 n=g#4 v=0
233028 On ch=2 n=f4 v=0
233028 On ch=2 n=g#3 v=0
233028 On ch=2 n=c#3 v=0
233040 On ch=2 n=c#3 v=66
233040 On ch=2 n=g#3 v=59
233040 On ch=2 n=f4 v=57
233040 On ch=2 n=g#4 v=61
233040 On ch=2 n=c#5 v=71
233472 On ch=2 n=c#5 v=0
233472 On ch=2 n=g#4 v=0
233472 On ch=2 n=f4 v=0
233472 On ch=2 n=g#3 v=0
233472 On ch=2 n=c#3 v=0
233760 On ch=2 n=c#3 v=62
233760 On ch=2 n=g#3 v=55
233760 On ch=2 n=g#4 v=57
233760 On ch=2 n=c5 v=67
233760 On ch=2 n=e4 v=53
233868 On ch=2 n=e4 v=0
233868 On ch=2 n=c5 v=0
233868 On ch=2 n=g#4 v=0
233868 On ch=2 n=g#3 v=0
233868 On ch=2 n=c#3 v=0
233880 On ch=2 n=c#3 v=64
233880 On ch=2 n=g#3 v=57
233880 On ch=2 n=f4 v=55
233880 On ch=2 n=g#4 v=59
233880 On ch=2 n=c#5 v=69
233880 Par ch=2 c=64 v=0
233940 Par ch=2 c=64 v=127
233988 On ch=2 n=c#5 v=0
233988 On ch=2 n=g#4 v=0
233988 On ch=2 n=f4 v=0
233988 On ch=2 n=g#3 v=0
233988 On ch=2 n=c#3 v=0
234000 On ch=2 n=c#3 v=66
234000 On ch=2 n=g#3 v=59
234000 On ch=2 n=f4 v=57
234000 On ch=2 n=g#4 v=61
234000 On ch=2 n=c#5 v=71
234432 On ch=2 n=c#5 v=0
234432 On ch=2 n=g#4 v=0
234432 On ch=2 n=f4 v=0
234432 On ch=2 n=g#3 v=0
234432 On ch=2 n=c#3 v=0
234840 Par ch=2 c=64 v=0
235800 On ch=2 n=c#3 v=67
235800 On ch=2 n=g#3 v=62
235800 On ch=2 n=c#4 v=66
235800 Par ch=2 c=64 v=127
235908 On ch=2 n=c#4 v=0
235908 On ch=2 n=g#3 v=0
235908 On ch=2 n=c#3 v=0
235920 On ch=2 n=c#3 v=66
235920 On ch=2 n=g#3 v=61
235920 On ch=2 n=c#4 v=65
236136 On ch=2 n=c#4 v=0
236136 On ch=2 n=g#3 v=0
236136 On ch=2 n=c#3 v=0
236160 On ch=2 n=c#3 v=64
236160 On ch=2 n=g#3 v=59
236160 On ch=2 n=c#4 v=63
236268 On ch=2 n=c#4 v=0
236268 On ch=2 n=g#3 v=0
236268 On ch=2 n=c#3 v=0
236280 On ch=2 n=c#3 v=66
236280 On ch=2 n=g#3 v=61
236280 On ch=2 n=c#4 v=65
236388 On ch=2 n=c#4 v=0
236388 On ch=2 n=g#3 v=0
236388 On ch=2 n=c#3 v=0
236400 On ch=2 n=c#3 v=64
236400 On ch=2 n=g#3 v=59
236400 On ch=2 n=c#4 v=63
236508 On ch=2 n=c#4 v=0
236508 On ch=2 n=g#3 v=0
236508 On ch=2 n=c#3 v=0
236520 On ch=2 n=c#3 v=65
236520 On ch=2 n=g#3 v=60
236520 On ch=2 n=c#4 v=64
236628 On ch=2 n=c#4 v=0
236628 On ch=2 n=g#3 v=0
236628 On ch=2 n=c#3 v=0
236640 On ch=2 n=c#3 v=63
236640 On ch=2 n=g#3 v=58
236640 On ch=2 n=c#4 v=62
236748 On ch=2 n=c#4 v=0
236748 On ch=2 n=g#3 v=0
236748 On ch=2 n=c#3 v=0
236760 On ch=2 n=b2 v=67
236760 On ch=2 n=e3 v=62
236760 On ch=2 n=b3 v=66
236760 Par ch=2 c=64 v=0
236820 Par ch=2 c=64 v=127
236832 On ch=2 n=b3 v=0
236832 On ch=2 n=e3 v=0
236832 On ch=2 n=b2 v=0
236840 On ch=2 n=b2 v=66
236840 On ch=2 n=e3 v=61
236840 On ch=2 n=b3 v=65
236912 On ch=2 n=b3 v=0
236912 On ch=2 n=e3 v=0
236912 On ch=2 n=b2 v=0
236920 On ch=2 n=b2 v=65
236920 On ch=2 n=e3 v=60
236920 On ch=2 n=b3 v=64
236992 On ch=2 n=b3 v=0
236992 On ch=2 n=e3 v=0
236992 On ch=2 n=b2 v=0
237000 On ch=2 n=b2 v=65
237000 On ch=2 n=e3 v=60
237000 On ch=2 n=b3 v=64
237000 Par ch=2 c=64 v=0
237060 Par ch=2 c=64 v=127
237072 On ch=2 n=b3 v=0
237072 On ch=2 n=e3 v=0
237072 On ch=2 n=b2 v=0
237080 On ch=2 n=b2 v=64
237080 On ch=2 n=e3 v=59
237080 On ch=2 n=b3 v=63
237152 On ch=2 n=b3 v=0
237152 On ch=2 n=e3 v=0
237152 On ch=2 n=b2 v=0
237160 On ch=2 n=b2 v=63
237160 On ch=2 n=e3 v=58
237160 On ch=2 n=b3 v=62
237232 On ch=2 n=b3 v=0
237232 On ch=2 n=e3 v=0
237232 On ch=2 n=b2 v=0
237240 On ch=2 n=b2 v=66
237240 On ch=2 n=e3 v=61
237240 On ch=2 n=b3 v=65
237294 On ch=2 n=b3 v=0
237294 On ch=2 n=e3 v=0
237294 On ch=2 n=b2 v=0
237300 On ch=2 n=b2 v=65
237300 On ch=2 n=e3 v=60
237300 On ch=2 n=b3 v=64
237354 On ch=2 n=b3 v=0
237354 On ch=2 n=e3 v=0
237354 On ch=2 n=b2 v=0
237360 On ch=2 n=b2 v=64
237360 On ch=2 n=e3 v=59
237360 On ch=2 n=b3 v=63
237414 On ch=2 n=b3 v=0
237414 On ch=2 n=e3 v=0
237414 On ch=2 n=b2 v=0
237420 On ch=2 n=b2 v=63
237420 On ch=2 n=e3 v=58
237420 On ch=2 n=b3 v=62
237474 On ch=2 n=b3 v=0
237474 On ch=2 n=e3 v=0
237474 On ch=2 n=b2 v=0
237480 On ch=2 n=b2 v=64
237480 On ch=2 n=e3 v=59
237480 On ch=2 n=b3 v=63
237512 On ch=2 n=b3 v=0
237512 On ch=2 n=e3 v=0
237512 On ch=2 n=b2 v=0
237660 Par ch=2 c=64 v=0
237720 On ch=2 n=c#3 v=62
237720 On ch=2 n=a#3 v=66
237720 On ch=2 n=a#2 v=67
237720 Par ch=2 c=64 v=127
237828 On ch=2 n=a#2 v=0
237828 On ch=2 n=a#3 v=0
237828 On ch=2 n=c#3 v=0
237840 On ch=2 n=c#3 v=61
237840 On ch=2 n=a#3 v=65
237840 On ch=2 n=a#2 v=66
238056 On ch=2 n=a#2 v=0
238056 On ch=2 n=a#3 v=0
238056 On ch=2 n=c#3 v=0
238080 On ch=2 n=c#3 v=59
238080 On ch=2 n=a#3 v=63
238080 On ch=2 n=a#2 v=64
238188 On ch=2 n=a#2 v=0
238188 On ch=2 n=a#3 v=0
238188 On ch=2 n=c#3 v=0
238200 On ch=2 n=c#3 v=61
238200 On ch=2 n=a#3 v=65
238200 On ch=2 n=a#2 v=66
238308 On ch=2 n=a#2 v=0
238308 On ch=2 n=a#3 v=0
238308 On ch=2 n=c#3 v=0
238320 On ch=2 n=c#3 v=59
238320 On ch=2 n=a#3 v=63
238320 On ch=2 n=a#2 v=64
238428 On ch=2 n=a#2 v=0
238428 On ch=2 n=a#3 v=0
238428 On ch=2 n=c#3 v=0
238440 On ch=2 n=c#3 v=60
238440 On ch=2 n=a#3 v=64
238440 On ch=2 n=a#2 v=65
238548 On ch=2 n=a#2 v=0
238548 On ch=2 n=a#3 v=0
238548 On ch=2 n=c#3 v=0
238560 On ch=2 n=c#3 v=58
238560 On ch=2 n=a#3 v=62
238560 On ch=2 n=a#2 v=63
238668 On ch=2 n=a#2 v=0
238668 On ch=2 n=a#3 v=0
238668 On ch=2 n=c#3 v=0
238680 On ch=2 n=c#3 v=62
238680 On ch=2 n=a3 v=66
238680 On ch=2 n=a2 v=67
238680 Par ch=2 c=64 v=0
238740 Par ch=2 c=64 v=127
238752 On ch=2 n=a2 v=0
238752 On ch=2 n=a3 v=0
238752 On ch=2 n=c#3 v=0
238760 On ch=2 n=a2 v=66
238760 On ch=2 n=c#3 v=61
238760 On ch=2 n=a3 v=65
238832 On ch=2 n=a3 v=0
238832 On ch=2 n=c#3 v=0
238832 On ch=2 n=a2 v=0
238840 On ch=2 n=a2 v=65
238840 On ch=2 n=c#3 v=60
238840 On ch=2 n=a3 v=64
238912 On ch=2 n=a3 v=0
238912 On ch=2 n=c#3 v=0
238912 On ch=2 n=a2 v=0
238920 On ch=2 n=a2 v=65
238920 On ch=2 n=c#3 v=60
238920 On ch=2 n=a3 v=64
238920 Par ch=2 c=64 v=0
238980 Par ch=2 c=64 v=127
238992 On ch=2 n=a3 v=0
238992 On ch=2 n=c#3 v=0
238992 On ch=2 n=a2 v=0
239000 On ch=2 n=a2 v=64
239000 On ch=2 n=c#3 v=59
239000 On ch=2 n=a3 v=63
239072 On ch=2 n=a3 v=0
239072 On ch=2 n=c#3 v=0
239072 On ch=2 n=a2 v=0
239080 On ch=2 n=a2 v=63
239080 On ch=2 n=c#3 v=58
239080 On ch=2 n=a3 v=62
239152 On ch=2 n=a3 v=0
239152 On ch=2 n=c#3 v=0
239152 On ch=2 n=a2 v=0
239160 On ch=2 n=a2 v=66
239160 On ch=2 n=c#3 v=61
239160 On ch=2 n=a3 v=65
239214 On ch=2 n=a3 v=0
239214 On ch=2 n=c#3 v=0
239214 On ch=2 n=a2 v=0
239220 On ch=2 n=a2 v=65
239220 On ch=2 n=c#3 v=60
239220 On ch=2 n=a3 v=64
239274 On ch=2 n=a3 v=0
239274 On ch=2 n=c#3 v=0
239274 On ch=2 n=a2 v=0
239280 On ch=2 n=a2 v=64
239280 On ch=2 n=c#3 v=59
239280 On ch=2 n=a3 v=63
239334 On ch=2 n=a3 v=0
239334 On ch=2 n=c#3 v=0
239334 On ch=2 n=a2 v=0
239340 On ch=2 n=a2 v=63
239340 On ch=2 n=c#3 v=58
239340 On ch=2 n=a3 v=62
239394 On ch=2 n=a3 v=0
239394 On ch=2 n=c#3 v=0
239394 On ch=2 n=a2 v=0
239400 On ch=2 n=a3 v=63
239400 On ch=2 n=c#3 v=59
239400 On ch=2 n=a2 v=64
239432 On ch=2 n=a2 v=0
239432 On ch=2 n=c#3 v=0
239432 On ch=2 n=a3 v=0
239580 Par ch=2 c=64 v=0
239640 Par ch=2 c=64 v=127
239800 On ch=2 n=g3 v=66
239800 On ch=2 n=g2 v=67
239872 On ch=2 n=g2 v=0
239872 On ch=2 n=g3 v=0
239880 On ch=2 n=g#3 v=68
239880 On ch=2 n=g#2 v=69
239952 On ch=2 n=g#2 v=0
239952 On ch=2 n=g#3 v=0
239960 On ch=2 n=a3 v=70
239960 On ch=2 n=a2 v=71
240032 On ch=2 n=a2 v=0
240032 On ch=2 n=a3 v=0
240040 On ch=2 n=g#3 v=72
240040 On ch=2 n=g#2 v=73
240112 On ch=2 n=g#2 v=0
240112 On ch=2 n=g#3 v=0
240120 Par ch=2 c=64 v=0
240180 Par ch=2 c=64 v=127
240280 On ch=2 n=g3 v=66
240280 On ch=2 n=g2 v=67
240352 On ch=2 n=g2 v=0
240352 On ch=2 n=g3 v=0
240360 On ch=2 n=g#3 v=68
240360 On ch=2 n=g#2 v=69
240432 On ch=2 n=g#2 v=0
240432 On ch=2 n=g#3 v=0
240440 On ch=2 n=a#3 v=70
240440 On ch=2 n=a#2 v=71
240512 On ch=2 n=a#2 v=0
240512 On ch=2 n=a#3 v=0
240520 On ch=2 n=g#3 v=72
240520 On ch=2 n=g#2 v=73
240592 On ch=2 n=g#2 v=0
240592 On ch=2 n=g#3 v=0
240600 Par ch=2 c=64 v=0
240720 Par ch=2 c=64 v=127
241080 Par ch=2 c=64 v=0
241140 Par ch=2 c=64 v=127
241560 Par ch=2 c=64 v=0
241620 Par ch=2 c=64 v=127
242040 Par ch=2 c=64 v=0
242100 Par ch=2 c=64 v=125
242520 Par ch=2 c=64 v=0
242580 Par ch=2 c=64 v=123
243000 Par ch=2 c=64 v=0
243060 Par ch=2 c=64 v=127
244440 Par ch=2 c=64 v=0
244500 Par ch=2 c=64 v=127
244680 On ch=2 n=g#4 v=29
244744 On ch=2 n=g#4 v=0
244920 On ch=2 n=f#5 v=30
244984 On ch=2 n=f#5 v=0
245160 On ch=2 n=c6 v=28
245224 On ch=2 n=c6 v=0
245400 On ch=2 n=g#6 v=30
245464 On ch=2 n=g#6 v=0
245640 On ch=2 n=c6 v=28
245704 On ch=2 n=c6 v=0
245880 On ch=2 n=f#5 v=29
245944 On ch=2 n=f#5 v=0
246120 On ch=2 n=g#4 v=27
246184 On ch=2 n=g#4 v=0
246360 Par ch=2 c=64 v=0
246420 Par ch=2 c=64 v=127
246600 On ch=2 n=g#4 v=29
246664 On ch=2 n=g#4 v=0
246840 On ch=2 n=f#5 v=30
246904 On ch=2 n=f#5 v=0
247080 On ch=2 n=c6 v=28
247144 On ch=2 n=c6 v=0
247320 On ch=2 n=g#6 v=30
247384 On ch=2 n=g#6 v=0
247560 On ch=2 n=c6 v=28
247624 On ch=2 n=c6 v=0
247800 On ch=2 n=f#5 v=29
247864 On ch=2 n=f#5 v=0
248040 On ch=2 n=g#4 v=27
248104 On ch=2 n=g#4 v=0
248280 Par ch=2 c=64 v=0
248340 Par ch=2 c=64 v=127
248520 On ch=2 n=c#5 v=29
248584 On ch=2 n=c#5 v=0
248760 On ch=2 n=g#5 v=30
248824 On ch=2 n=g#5 v=0
249000 On ch=2 n=f6 v=28
249064 On ch=2 n=f6 v=0
249240 On ch=2 n=g#6 v=30
249304 On ch=2 n=g#6 v=0
249480 On ch=2 n=f6 v=28
249544 On ch=2 n=f6 v=0
249720 On ch=2 n=g#5 v=29
249784 On ch=2 n=g#5 v=0
249960 On ch=2 n=c#5 v=27
250024 On ch=2 n=c#5 v=0
250200 Par ch=2 c=64 v=0
250260 Par ch=2 c=64 v=127
250440 On ch=2 n=g#4 v=29
250504 On ch=2 n=g#4 v=0
250680 On ch=2 n=f#5 v=30
250744 On ch=2 n=f#5 v=0
250920 On ch=2 n=c6 v=28
250984 On ch=2 n=c6 v=0
251160 On ch=2 n=g#6 v=30
251224 On ch=2 n=g#6 v=0
251400 On ch=2 n=c6 v=28
251464 On ch=2 n=c6 v=0
251640 On ch=2 n=f#5 v=29
251704 On ch=2 n=f#5 v=0
251880 On ch=2 n=g#4 v=27
251944 On ch=2 n=g#4 v=0
252120 Par ch=2 c=64 v=0
252180 Par ch=2 c=64 v=127
252360 On ch=2 n=c#5 v=29
252424 On ch=2 n=c#5 v=0
252600 On ch=2 n=g#5 v=30
252664 On ch=2 n=g#5 v=0
252840 On ch=2 n=f6 v=28
252904 On ch=2 n=f6 v=0
253080 On ch=2 n=c#7 v=43
253209 On ch=2 n=c#7 v=0
253320 On ch=2 n=f6 v=28
253384 On ch=2 n=f6 v=0
253560 On ch=2 n=g#5 v=29
253624 On ch=2 n=g#5 v=0
253800 On ch=2 n=c#5 v=27
253864 On ch=2 n=c#5 v=0
254040 Par ch=2 c=64 v=0
254100 Par ch=2 c=64 v=127
254280 On ch=2 n=c#5 v=29
254496 On ch=2 n=c#5 v=0
254520 On ch=2 n=g#5 v=30
254736 On ch=2 n=g#5 v=0
254760 On ch=2 n=f6 v=28
254976 On ch=2 n=f6 v=0
255000 On ch=2 n=c#7 v=30
255216 On ch=2 n=c#7 v=0
255960 Par ch=2 c=64 v=0
256020 Par ch=2 c=64 v=127
256920 Par ch=2 c=64 v=0
257880 On ch=2 n=c#3 v=67
257880 On ch=2 n=g#3 v=62
257880 On ch=2 n=c#4 v=66
257880 Par ch=2 c=64 v=127
257988 On ch=2 n=c#4 v=0
257988 On ch=2 n=g#3 v=0
257988 On ch=2 n=c#3 v=0
258000 On ch=2 n=c#3 v=66
258000 On ch=2 n=g#3 v=61
258000 On ch=2 n=c#4 v=65
258216 On ch=2 n=c#4 v=0
258216 On ch=2 n=g#3 v=0
258216 On ch=2 n=c#3 v=0
258240 On ch=2 n=c#3 v=64
258240 On ch=2 n=g#3 v=59
258240 On ch=2 n=c#4 v=63
258348 On ch=2 n=c#4 v=0
258348 On ch=2 n=g#3 v=0
258348 On ch=2 n=c#3 v=0
258360 On ch=2 n=c#3 v=66
258360 On ch=2 n=g#3 v=61
258360 On ch=2 n=c#4 v=65
258468 On ch=2 n=c#4 v=0
258468 On ch=2 n=g#3 v=0
258468 On ch=2 n=c#3 v=0
258480 On ch=2 n=c#3 v=64
258480 On ch=2 n=g#3 v=59
258480 On ch=2 n=c#4 v=63
258588 On ch=2 n=c#4 v=0
258588 On ch=2 n=g#3 v=0
258588 On ch=2 n=c#3 v=0
258600 On ch=2 n=c#3 v=65
258600 On ch=2 n=g#3 v=60
258600 On ch=2 n=c#4 v=64
258708 On ch=2 n=c#4 v=0
258708 On ch=2 n=g#3 v=0
258708 On ch=2 n=c#3 v=0
258720 On ch=2 n=c#3 v=63
258720 On ch=2 n=g#3 v=58
258720 On ch=2 n=c#4 v=62
258828 On ch=2 n=c#4 v=0
258828 On ch=2 n=g#3 v=0
258828 On ch=2 n=c#3 v=0
258840 On ch=2 n=b2 v=67
258840 On ch=2 n=e3 v=62
258840 On ch=2 n=b3 v=66
258840 Par ch=2 c=64 v=0
258900 Par ch=2 c=64 v=127
258912 On ch=2 n=b3 v=0
258912 On ch=2 n=e3 v=0
258912 On ch=2 n=b2 v=0
258920 On ch=2 n=b2 v=66
258920 On ch=2 n=e3 v=61
258920 On ch=2 n=b3 v=65
258992 On ch=2 n=b3 v=0
258992 On ch=2 n=e3 v=0
258992 On ch=2 n=b2 v=0
259000 On ch=2 n=b2 v=65
259000 On ch=2 n=e3 v=60
259000 On ch=2 n=b3 v=64
259072 On ch=2 n=b3 v=0
259072 On ch=2 n=e3 v=0
259072 On ch=2 n=b2 v=0
259080 On ch=2 n=b2 v=65
259080 On ch=2 n=e3 v=60
259080 On ch=2 n=b3 v=64
259080 Par ch=2 c=64 v=0
259140 Par ch=2 c=64 v=127
259152 On ch=2 n=b3 v=0
259152 On ch=2 n=e3 v=0
259152 On ch=2 n=b2 v=0
259160 On ch=2 n=b2 v=64
259160 On ch=2 n=e3 v=59
259160 On ch=2 n=b3 v=63
259232 On ch=2 n=b3 v=0
259232 On ch=2 n=e3 v=0
259232 On ch=2 n=b2 v=0
259240 On ch=2 n=b2 v=63
259240 On ch=2 n=e3 v=58
259240 On ch=2 n=b3 v=62
259312 On ch=2 n=b3 v=0
259312 On ch=2 n=e3 v=0
259312 On ch=2 n=b2 v=0
259320 On ch=2 n=b2 v=66
259320 On ch=2 n=e3 v=61
259320 On ch=2 n=b3 v=65
259374 On ch=2 n=b3 v=0
259374 On ch=2 n=e3 v=0
259374 On ch=2 n=b2 v=0
259380 On ch=2 n=b2 v=65
259380 On ch=2 n=e3 v=60
259380 On ch=2 n=b3 v=64
259434 On ch=2 n=b3 v=0
259434 On ch=2 n=e3 v=0
259434 On ch=2 n=b2 v=0
259440 On ch=2 n=b2 v=64
259440 On ch=2 n=e3 v=59
259440 On ch=2 n=b3 v=63
259494 On ch=2 n=b3 v=0
259494 On ch=2 n=e3 v=0
259494 On ch=2 n=b2 v=0
259500 On ch=2 n=b2 v=63
259500 On ch=2 n=e3 v=58
259500 On ch=2 n=b3 v=62
259554 On ch=2 n=b3 v=0
259554 On ch=2 n=e3 v=0
259554 On ch=2 n=b2 v=0
259560 On ch=2 n=b2 v=64
259560 On ch=2 n=e3 v=59
259560 On ch=2 n=b3 v=63
259592 On ch=2 n=b3 v=0
259592 On ch=2 n=e3 v=0
259592 On ch=2 n=b2 v=0
259740 Par ch=2 c=64 v=0
259800 On ch=2 n=c#3 v=62
259800 On ch=2 n=a#3 v=66
259800 On ch=2 n=a#2 v=67
259800 Par ch=2 c=64 v=127
259908 On ch=2 n=a#2 v=0
259908 On ch=2 n=a#3 v=0
259908 On ch=2 n=c#3 v=0
259920 On ch=2 n=c#3 v=61
259920 On ch=2 n=a#3 v=65
259920 On ch=2 n=a#2 v=66
260136 On ch=2 n=a#2 v=0
260136 On ch=2 n=a#3 v=0
260136 On ch=2 n=c#3 v=0
260160 On ch=2 n=c#3 v=59
260160 On ch=2 n=a#3 v=63
260160 On ch=2 n=a#2 v=64
260268 On ch=2 n=a#2 v=0
260268 On ch=2 n=a#3 v=0
260268 On ch=2 n=c#3 v=0
260280 On ch=2 n=c#3 v=61
260280 On ch=2 n=a#3 v=65
260280 On ch=2 n=a#2 v=66
260388 On ch=2 n=a#2 v=0
260388 On ch=2 n=a#3 v=0
260388 On ch=2 n=c#3 v=0
260400 On ch=2 n=c#3 v=59
260400 On ch=2 n=a#3 v=63
260400 On ch=2 n=a#2 v=64
260508 On ch=2 n=a#2 v=0
260508 On ch=2 n=a#3 v=0
260508 On ch=2 n=c#3 v=0
260520 On ch=2 n=c#3 v=60
260520 On ch=2 n=a#3 v=64
260520 On ch=2 n=a#2 v=65
260628 On ch=2 n=a#2 v=0
260628 On ch=2 n=a#3 v=0
260628 On ch=2 n=c#3 v=0
260640 On ch=2 n=c#3 v=58
260640 On ch=2 n=a#3 v=62
260640 On ch=2 n=a#2 v=63
260748 On ch=2 n=a#2 v=0
260748 On ch=2 n=a#3 v=0
260748 On ch=2 n=c#3 v=0
260760 On ch=2 n=c#3 v=62
260760 On ch=2 n=a3 v=66
260760 On ch=2 n=a2 v=67
260760 Par ch=2 c=64 v=0
260820 Par ch=2 c=64 v=127
260832 On ch=2 n=a2 v=0
260832 On ch=2 n=a3 v=0
260832 On ch=2 n=c#3 v=0
260840 On ch=2 n=a2 v=66
260840 On ch=2 n=c#3 v=61
260840 On ch=2 n=a3 v=65
260912 On ch=2 n=a3 v=0
260912 On ch=2 n=c#3 v=0
260912 On ch=2 n=a2 v=0
260920 On ch=2 n=a2 v=65
260920 On ch=2 n=c#3 v=60
260920 On ch=2 n=a3 v=64
260992 On ch=2 n=a3 v=0
260992 On ch=2 n=c#3 v=0
260992 On ch=2 n=a2 v=0
261000 On ch=2 n=a2 v=65
261000 On ch=2 n=c#3 v=60
261000 On ch=2 n=a3 v=64
261000 Par ch=2 c=64 v=0
261060 Par ch=2 c=64 v=127
261072 On ch=2 n=a3 v=0
261072 On ch=2 n=c#3 v=0
261072 On ch=2 n=a2 v=0
261080 On ch=2 n=a2 v=64
261080 On ch=2 n=c#3 v=59
261080 On ch=2 n=a3 v=63
261152 On ch=2 n=a3 v=0
261152 On ch=2 n=c#3 v=0
261152 On ch=2 n=a2 v=0
261160 On ch=2 n=a2 v=63
261160 On ch=2 n=c#3 v=58
261160 On ch=2 n=a3 v=62
261232 On ch=2 n=a3 v=0
261232 On ch=2 n=c#3 v=0
261232 On ch=2 n=a2 v=0
261240 On ch=2 n=a2 v=66
261240 On ch=2 n=c#3 v=61
261240 On ch=2 n=a3 v=65
261294 On ch=2 n=a3 v=0
261294 On ch=2 n=c#3 v=0
261294 On ch=2 n=a2 v=0
261300 On ch=2 n=a2 v=65
261300 On ch=2 n=c#3 v=60
261300 On ch=2 n=a3 v=64
261354 On ch=2 n=a3 v=0
261354 On ch=2 n=c#3 v=0
261354 On ch=2 n=a2 v=0
261360 On ch=2 n=a2 v=64
261360 On ch=2 n=c#3 v=59
261360 On ch=2 n=a3 v=63
261414 On ch=2 n=a3 v=0
261414 On ch=2 n=c#3 v=0
261414 On ch=2 n=a2 v=0
261420 On ch=2 n=a2 v=63
261420 On ch=2 n=c#3 v=58
261420 On ch=2 n=a3 v=62
261474 On ch=2 n=a3 v=0
261474 On ch=2 n=c#3 v=0
261474 On ch=2 n=a2 v=0
261480 On ch=2 n=a3 v=63
261480 On ch=2 n=c#3 v=59
261480 On ch=2 n=a2 v=64
261512 On ch=2 n=a2 v=0
261512 On ch=2 n=c#3 v=0
261512 On ch=2 n=a3 v=0
261660 Par ch=2 c=64 v=0
261720 Par ch=2 c=64 v=127
261880 On ch=2 n=g3 v=66
261880 On ch=2 n=g2 v=67
261952 On ch=2 n=g2 v=0
261952 On ch=2 n=g3 v=0
261960 On ch=2 n=g#3 v=68
261960 On ch=2 n=g#2 v=69
262032 On ch=2 n=g#2 v=0
262032 On ch=2 n=g#3 v=0
262040 On ch=2 n=a3 v=70
262040 On ch=2 n=a2 v=71
262112 On ch=2 n=a2 v=0
262112 On ch=2 n=a3 v=0
262120 On ch=2 n=g#3 v=72
262120 On ch=2 n=g#2 v=73
262192 On ch=2 n=g#2 v=0
262192 On ch=2 n=g#3 v=0
262200 Par ch=2 c=64 v=0
262260 Par ch=2 c=64 v=127
262360 On ch=2 n=g3 v=66
262360 On ch=2 n=g2 v=67
262432 On ch=2 n=g2 v=0
262432 On ch=2 n=g3 v=0
262440 On ch=2 n=g#3 v=68
262440 On ch=2 n=g#2 v=69
262512 On ch=2 n=g#2 v=0
262512 On ch=2 n=g#3 v=0
262520 On ch=2 n=a#3 v=70
262520 On ch=2 n=a#2 v=71
262592 On ch=2 n=a#2 v=0
262592 On ch=2 n=a#3 v=0
262600 On ch=2 n=g#3 v=72
262600 On ch=2 n=g#2 v=73
262672 On ch=2 n=g#2 v=0
262672 On ch=2 n=g#3 v=0
262680 Par ch=2 c=64 v=0
262800 Par ch=2 c=64 v=127
263160 Par ch=2 c=64 v=0
263220 Par ch=2 c=64 v=127
263640 Par ch=2 c=64 v=0
263700 Par ch=2 c=64 v=127
264120 Par ch=2 c=64 v=0
264180 Par ch=2 c=64 v=127
264600 Par ch=2 c=64 v=0
264660 Par ch=2 c=64 v=127
265080 Par ch=2 c=64 v=1
265140 Par ch=2 c=64 v=127
266520 On ch=2 n=g#6 v=55
266520 Par ch=2 c=64 v=0
266580 Par ch=2 c=64 v=127
266760 On ch=2 n=g#4 v=29
266824 On ch=2 n=g#4 v=0
267000 On ch=2 n=f#5 v=30
267064 On ch=2 n=f#5 v=0
267240 On ch=2 n=c6 v=28
267304 On ch=2 n=c6 v=0
267480 On ch=2 n=g#6 v=30
267544 On ch=2 n=g#6 v=0
267720 On ch=2 n=c6 v=28
267784 On ch=2 n=c6 v=0
267816 On ch=2 n=g#6 v=0
267960 On ch=2 n=f#5 v=29
268024 On ch=2 n=f#5 v=0
268200 On ch=2 n=g#4 v=27
268264 On ch=2 n=g#4 v=0
268440 Par ch=2 c=64 v=0
268500 Par ch=2 c=64 v=127
268680 On ch=2 n=g#4 v=29
268744 On ch=2 n=g#4 v=0
268920 On ch=2 n=f#5 v=30
268984 On ch=2 n=f#5 v=0
269160 On ch=2 n=c6 v=28
269224 On ch=2 n=c6 v=0
269400 On ch=2 n=g#6 v=30
269464 On ch=2 n=g#6 v=0
269640 On ch=2 n=c6 v=28
269704 On ch=2 n=c6 v=0
269880 On ch=2 n=f#5 v=29
269944 On ch=2 n=f#5 v=0
270120 On ch=2 n=g#4 v=27
270184 On ch=2 n=g#4 v=0
270360 Par ch=2 c=64 v=0
270420 Par ch=2 c=64 v=127
270600 On ch=2 n=c#5 v=29
270664 On ch=2 n=c#5 v=0
270840 On ch=2 n=g#5 v=30
270904 On ch=2 n=g#5 v=0
271080 On ch=2 n=f6 v=28
271144 On ch=2 n=f6 v=0
271320 On ch=2 n=g#6 v=30
271384 On ch=2 n=g#6 v=0
271560 On ch=2 n=f6 v=28
271624 On ch=2 n=f6 v=0
271800 On ch=2 n=g#5 v=29
271864 On ch=2 n=g#5 v=0
272040 On ch=2 n=c#5 v=27
272104 On ch=2 n=c#5 v=0
272280 Par ch=2 c=64 v=0
272340 Par ch=2 c=64 v=127
272520 On ch=2 n=g#4 v=29
272584 On ch=2 n=g#4 v=0
272760 On ch=2 n=f#5 v=30
272824 On ch=2 n=f#5 v=0
273000 On ch=2 n=c6 v=28
273064 On ch=2 n=c6 v=0
273240 On ch=2 n=g#6 v=30
273304 On ch=2 n=g#6 v=0
273480 On ch=2 n=c6 v=28
273544 On ch=2 n=c6 v=0
273720 On ch=2 n=f#5 v=29
273784 On ch=2 n=f#5 v=0
273960 On ch=2 n=g#4 v=27
274024 On ch=2 n=g#4 v=0
274200 Par ch=2 c=64 v=0
274260 Par ch=2 c=64 v=127
274440 On ch=2 n=c#5 v=29
274504 On ch=2 n=c#5 v=0
274680 On ch=2 n=g#5 v=30
274744 On ch=2 n=g#5 v=0
274920 On ch=2 n=f6 v=28
274984 On ch=2 n=f6 v=0
275160 On ch=2 n=g#6 v=30
275160 On ch=2 n=c#7 v=28
275160 Par ch=2 c=64 v=0
275220 Par ch=2 c=64 v=127
275289 On ch=2 n=c#7 v=0
275289 On ch=2 n=g#6 v=0
276120 Par ch=2 c=64 v=0
276180 Par ch=2 c=64 v=127
276360 On ch=2 n=c#5 v=29
276424 On ch=2 n=c#5 v=0
276600 On ch=2 n=a5 v=30
276664 On ch=2 n=a5 v=0
276840 On ch=2 n=f#6 v=28
276904 On ch=2 n=f#6 v=0
277080 On ch=2 n=a6 v=30
277080 On ch=2 n=c#7 v=28
277209 On ch=2 n=c#7 v=0
277209 On ch=2 n=a6 v=0
278040 Par ch=2 c=64 v=0
278100 Par ch=2 c=64 v=127
278280 On ch=2 n=c#5 v=29
278344 On ch=2 n=c#5 v=0
278520 On ch=2 n=g#5 v=30
278584 On ch=2 n=g#5 v=0
278760 On ch=2 n=f6 v=28
278824 On ch=2 n=f6 v=0
279000 On ch=2 n=g#6 v=30
279000 On ch=2 n=c#7 v=28
279129 On ch=2 n=c#7 v=0
279129 On ch=2 n=g#6 v=0
279960 Par ch=2 c=64 v=0
280020 Par ch=2 c=64 v=127
280200 On ch=2 n=c#5 v=29
280264 On ch=2 n=c#5 v=0
280440 On ch=2 n=a5 v=30
280504 On ch=2 n=a5 v=0
280680 On ch=2 n=f#6 v=28
280744 On ch=2 n=f#6 v=0
280920 On ch=2 n=c#7 v=28
280920 On ch=2 n=a6 v=30
281049 On ch=2 n=a6 v=0
281352 On ch=2 n=c#7 v=0
281880 Par ch=2 c=64 v=0
281940 Par ch=2 c=64 v=127
282120 On ch=2 n=c#5 v=29
282184 On ch=2 n=c#5 v=0
282360 On ch=2 n=g#5 v=30
282424 On ch=2 n=g#5 v=0
282600 On ch=2 n=f6 v=28
282664 On ch=2 n=f6 v=0
282840 On ch=2 n=g#6 v=30
282840 On ch=2 n=c#7 v=28
282969 On ch=2 n=c#7 v=0
282969 On ch=2 n=g#6 v=0
283800 Par ch=2 c=64 v=0
283860 Par ch=2 c=64 v=127
290280 Par ch=2 c=64 v=0
290520 Par ch=2 c=64 v=127
293400 On ch=2 n=c#3 v=29
293400 On ch=2 n=g#3 v=22
293400 On ch=2 n=c#4 v=18
293400 Par ch=2 c=64 v=0
293520 Par ch=2 c=64 v=127
293832 On ch=2 n=c#4 v=0
293832 On ch=2 n=g#3 v=0
293832 On ch=2 n=c#3 v=0
293880 On ch=2 n=c#4 v=15
293880 On ch=2 n=g#3 v=19
293880 On ch=2 n=c#3 v=26
294744 On ch=2 n=c#3 v=0
294744 On ch=2 n=g#3 v=0
294744 On ch=2 n=c#4 v=0
294840 Par ch=2 c=64 v=0
296040 On ch=2 n=c#3 v=41
296104 On ch=2 n=c#3 v=0
296280 On ch=2 n=d3 v=43
296344 On ch=2 n=d3 v=0
296640 On ch=2 n=a2 v=40
296672 On ch=2 n=a2 v=0
296760 On ch=2 n=b2 v=41
296824 On ch=2 n=b2 v=0
297000 On ch=2 n=c#3 v=42
297064 On ch=2 n=c#3 v=0
297240 On ch=2 n=d3 v=43
297304 On ch=2 n=d3 v=0
297480 On ch=2 n=e3 v=44
297544 On ch=2 n=e3 v=0
297720 On ch=2 n=f#3 v=45
297784 On ch=2 n=f#3 v=0
298920 On ch=2 n=a3 v=40
298920 On ch=2 n=a2 v=41
298984 On ch=2 n=a2 v=0
298984 On ch=2 n=a3 v=0
299160 On ch=2 n=d4 v=42
299160 On ch=2 n=d3 v=43
299224 On ch=2 n=d3 v=0
299224 On ch=2 n=d4 v=0
299520 On ch=2 n=a3 v=39
299520 On ch=2 n=a2 v=40
299552 On ch=2 n=a2 v=0
299552 On ch=2 n=a3 v=0
299640 On ch=2 n=b2 v=41
299640 On ch=2 n=b3 v=40
299704 On ch=2 n=b3 v=0
299704 On ch=2 n=b2 v=0
299880 On ch=2 n=c#4 v=41
299880 On ch=2 n=c#3 v=42
299944 On ch=2 n=c#3 v=0
299944 On ch=2 n=c#4 v=0
300120 On ch=2 n=d4 v=42
300120 On ch=2 n=d3 v=43
300184 On ch=2 n=d3 v=0
300184 On ch=2 n=d4 v=0
300360 On ch=2 n=e3 v=44
300360 On ch=2 n=e4 v=43
300424 On ch=2 n=e4 v=0
300424 On ch=2 n=e3 v=0
300600 On ch=2 n=f#4 v=44
300600 On ch=2 n=f#3 v=45
300664 On ch=2 n=f#3 v=0
300664 On ch=2 n=f#4 v=0
300840 On ch=2 n=g4 v=45
300840 On ch=2 n=g3 v=46
300904 On ch=2 n=g3 v=0
300904 On ch=2 n=g4 v=0
301080 On ch=2 n=a4 v=46
301080 On ch=2 n=a3 v=47
301144 On ch=2 n=a3 v=0
301144 On ch=2 n=a4 v=0
301266 On ch=2 n=b3 v=38
301320 On ch=2 n=b3 v=0
301320 On ch=2 n=a3 v=40
301352 On ch=2 n=a3 v=0
301440 On ch=2 n=g#3 v=39
301472 On ch=2 n=g#3 v=0
301560 On ch=2 n=a3 v=42
301624 On ch=2 n=a3 v=0
302040 On ch=2 n=d6 v=24
302040 On ch=2 n=a5 v=26
302104 On ch=2 n=a5 v=0
302104 On ch=2 n=d6 v=0
302280 On ch=2 n=d6 v=22
302280 On ch=2 n=a5 v=24
302312 On ch=2 n=a5 v=0
302312 On ch=2 n=d6 v=0
302400 On ch=2 n=a5 v=23
302400 On ch=2 n=c#6 v=21
302432 On ch=2 n=c#6 v=0
302432 On ch=2 n=a5 v=0
302520 On ch=2 n=d6 v=23
302520 On ch=2 n=a5 v=25
302584 On ch=2 n=a5 v=0
302584 On ch=2 n=d6 v=0
303000 On ch=2 n=a3 v=42
303064 On ch=2 n=a3 v=0
303186 On ch=2 n=b3 v=38
303240 On ch=2 n=b3 v=0
303240 On ch=2 n=a3 v=40
303272 On ch=2 n=a3 v=0
303360 On ch=2 n=g#3 v=39
303392 On ch=2 n=g#3 v=0
303480 On ch=2 n=a3 v=41
303544 On ch=2 n=a3 v=0
303960 On ch=2 n=d6 v=26
303960 On ch=2 n=f#6 v=24
304024 On ch=2 n=f#6 v=0
304024 On ch=2 n=d6 v=0
304200 On ch=2 n=d6 v=24
304200 On ch=2 n=f#6 v=22
304232 On ch=2 n=f#6 v=0
304232 On ch=2 n=d6 v=0
304320 On ch=2 n=f6 v=21
304320 On ch=2 n=c#6 v=23
304352 On ch=2 n=c#6 v=0
304352 On ch=2 n=f6 v=0
304440 On ch=2 n=d6 v=25
304440 On ch=2 n=f#6 v=23
304504 On ch=2 n=f#6 v=0
304504 On ch=2 n=d6 v=0
305640 On ch=2 n=b2 v=41
305704 On ch=2 n=b2 v=0
305880 On ch=2 n=c3 v=43
305944 On ch=2 n=c3 v=0
306240 On ch=2 n=g2 v=40
306272 On ch=2 n=g2 v=0
306360 On ch=2 n=a2 v=41
306424 On ch=2 n=a2 v=0
306600 On ch=2 n=b2 v=42
306664 On ch=2 n=b2 v=0
306840 On ch=2 n=c3 v=43
306904 On ch=2 n=c3 v=0
307080 On ch=2 n=d3 v=44
307144 On ch=2 n=d3 v=0
307320 On ch=2 n=e3 v=45
307384 On ch=2 n=e3 v=0
308520 On ch=2 n=g3 v=40
308520 On ch=2 n=g2 v=41
308584 On ch=2 n=g2 v=0
308584 On ch=2 n=g3 v=0
308760 On ch=2 n=c4 v=42
308760 On ch=2 n=c3 v=43
308824 On ch=2 n=c3 v=0
308824 On ch=2 n=c4 v=0
309120 On ch=2 n=g2 v=40
309120 On ch=2 n=g3 v=39
309152 On ch=2 n=g3 v=0
309152 On ch=2 n=g2 v=0
309240 On ch=2 n=a2 v=41
309240 On ch=2 n=a3 v=40
309304 On ch=2 n=a3 v=0
309304 On ch=2 n=a2 v=0
309480 On ch=2 n=b3 v=41
309480 On ch=2 n=b2 v=42
309544 On ch=2 n=b2 v=0
309544 On ch=2 n=b3 v=0
309720 On ch=2 n=c4 v=42
309720 On ch=2 n=c3 v=43
309784 On ch=2 n=c3 v=0
309784 On ch=2 n=c4 v=0
309960 On ch=2 n=d3 v=44
309960 On ch=2 n=d4 v=43
310024 On ch=2 n=d4 v=0
310024 On ch=2 n=d3 v=0
310200 On ch=2 n=e3 v=45
310200 On ch=2 n=e4 v=44
310264 On ch=2 n=e4 v=0
310264 On ch=2 n=e3 v=0
310440 On ch=2 n=f#4 v=45
310440 On ch=2 n=f#3 v=46
310504 On ch=2 n=f#3 v=0
310504 On ch=2 n=f#4 v=0
310680 On ch=2 n=g4 v=46
310680 On ch=2 n=g3 v=47
310744 On ch=2 n=g3 v=0
310744 On ch=2 n=g4 v=0
310866 On ch=2 n=a3 v=38
310920 On ch=2 n=a3 v=0
310920 On ch=2 n=g3 v=40
310952 On ch=2 n=g3 v=0
311040 On ch=2 n=f#3 v=39
311072 On ch=2 n=f#3 v=0
311160 On ch=2 n=g3 v=41
311224 On ch=2 n=g3 v=0
311640 On ch=2 n=c6 v=27
311640 On ch=2 n=e6 v=25
311704 On ch=2 n=e6 v=0
311704 On ch=2 n=c6 v=0
311880 On ch=2 n=c6 v=25
311880 On ch=2 n=e6 v=23
311912 On ch=2 n=e6 v=0
311912 On ch=2 n=c6 v=0
312000 On ch=2 n=d#6 v=22
312000 On ch=2 n=b5 v=24
312032 On ch=2 n=b5 v=0
312032 On ch=2 n=d#6 v=0
312120 On ch=2 n=c6 v=26
312120 On ch=2 n=e6 v=24
312184 On ch=2 n=e6 v=0
312184 On ch=2 n=c6 v=0
312600 On ch=2 n=g3 v=43
312664 On ch=2 n=g3 v=0
312786 On ch=2 n=a3 v=39
312840 On ch=2 n=a3 v=0
312840 On ch=2 n=g3 v=41
312872 On ch=2 n=g3 v=0
312960 On ch=2 n=f#3 v=40
312992 On ch=2 n=f#3 v=0
313080 On ch=2 n=g3 v=42
313144 On ch=2 n=g3 v=0
313560 On ch=2 n=g6 v=25
313560 On ch=2 n=e6 v=27
313624 On ch=2 n=e6 v=0
313624 On ch=2 n=g6 v=0
313800 On ch=2 n=g6 v=23
313800 On ch=2 n=e6 v=25
313832 On ch=2 n=e6 v=0
313832 On ch=2 n=g6 v=0
313920 On ch=2 n=d#6 v=24
313920 On ch=2 n=f#6 v=22
313952 On ch=2 n=f#6 v=0
313952 On ch=2 n=d#6 v=0
314040 On ch=2 n=g6 v=24
314040 On ch=2 n=e6 v=26
314104 On ch=2 n=e6 v=0
314104 On ch=2 n=g6 v=0
315480 On ch=2 n=g3 v=45
315544 On ch=2 n=g3 v=0
315666 On ch=2 n=a3 v=41
315720 On ch=2 n=a3 v=0
315720 On ch=2 n=g3 v=43
315752 On ch=2 n=g3 v=0
315840 On ch=2 n=f#3 v=42
315872 On ch=2 n=f#3 v=0
315960 On ch=2 n=g3 v=44
316024 On ch=2 n=g3 v=0
316440 On ch=2 n=a3 v=44
316504 On ch=2 n=a3 v=0
316626 On ch=2 n=b3 v=40
316680 On ch=2 n=b3 v=0
316680 On ch=2 n=a3 v=42
316712 On ch=2 n=a3 v=0
316800 On ch=2 n=g3 v=41
316832 On ch=2 n=g3 v=0
316920 On ch=2 n=a3 v=43
316984 On ch=2 n=a3 v=0
317400 On ch=2 n=a#3 v=43
317464 On ch=2 n=a#3 v=0
317586 On ch=2 n=b3 v=39
317640 On ch=2 n=b3 v=0
317640 On ch=2 n=a#3 v=41
317672 On ch=2 n=a#3 v=0
317760 On ch=2 n=a3 v=40
317792 On ch=2 n=a3 v=0
317880 On ch=2 n=a#3 v=42
317944 On ch=2 n=a#3 v=0
319080 On ch=2 n=b3 v=24
319080 On ch=2 n=b2 v=26
319144 On ch=2 n=b2 v=0
319144 On ch=2 n=b3 v=0
319320 On ch=2 n=b2 v=29
319320 On ch=2 n=b3 v=27
319384 On ch=2 n=b3 v=0
319384 On ch=2 n=b2 v=0
319680 On ch=2 n=b2 v=24
319680 On ch=2 n=b3 v=22
319712 On ch=2 n=b3 v=0
319712 On ch=2 n=b2 v=0
319800 On ch=2 n=b2 v=28
319800 On ch=2 n=b3 v=26
319864 On ch=2 n=b3 v=0
319864 On ch=2 n=b2 v=0
320040 On ch=2 n=b3 v=24
320040 On ch=2 n=b2 v=26
320104 On ch=2 n=b2 v=0
320104 On ch=2 n=b3 v=0
320280 On ch=2 n=b3 v=25
320280 On ch=2 n=b2 v=27
320344 On ch=2 n=b2 v=0
320344 On ch=2 n=b3 v=0
320520 On ch=2 n=b2 v=25
320520 On ch=2 n=b3 v=23
320584 On ch=2 n=b3 v=0
320584 On ch=2 n=b2 v=0
320760 On ch=2 n=b3 v=24
320760 On ch=2 n=b2 v=26
320824 On ch=2 n=b2 v=0
320824 On ch=2 n=b3 v=0
321000 On ch=2 n=b2 v=24
321000 On ch=2 n=b3 v=22
321064 On ch=2 n=b3 v=0
321064 On ch=2 n=b2 v=0
321240 On ch=2 n=b3 v=25
321240 On ch=2 n=b2 v=27
321304 On ch=2 n=b2 v=0
321304 On ch=2 n=b3 v=0
321480 On ch=2 n=b2 v=25
321480 On ch=2 n=b3 v=23
321544 On ch=2 n=b3 v=0
321544 On ch=2 n=b2 v=0
321720 On ch=2 n=b3 v=24
321720 On ch=2 n=b2 v=26
321784 On ch=2 n=b2 v=0
321784 On ch=2 n=b3 v=0
321960 On ch=2 n=b2 v=24
321960 On ch=2 n=b3 v=22
322024 On ch=2 n=b3 v=0
322024 On ch=2 n=b2 v=0
322200 On ch=2 n=b2 v=27
322200 On ch=2 n=b3 v=25
322264 On ch=2 n=b3 v=0
322264 On ch=2 n=b2 v=0
322440 On ch=2 n=b2 v=25
322440 On ch=2 n=b3 v=23
322504 On ch=2 n=b3 v=0
322504 On ch=2 n=b2 v=0
322680 On ch=2 n=b2 v=26
322680 On ch=2 n=b3 v=24
322744 On ch=2 n=b3 v=0
322744 On ch=2 n=b2 v=0
322920 On ch=2 n=b2 v=24
322920 On ch=2 n=b3 v=22
322984 On ch=2 n=b3 v=0
322984 On ch=2 n=b2 v=0
323160 On ch=2 n=b2 v=27
323160 On ch=2 n=b3 v=25
323224 On ch=2 n=b3 v=0
323224 On ch=2 n=b2 v=0
323400 On ch=2 n=b2 v=25
323400 On ch=2 n=b3 v=23
323464 On ch=2 n=b3 v=0
323464 On ch=2 n=b2 v=0
323640 On ch=2 n=b2 v=26
323640 On ch=2 n=b3 v=24
323704 On ch=2 n=b3 v=0
323704 On ch=2 n=b2 v=0
323880 On ch=2 n=b2 v=24
323880 On ch=2 n=b3 v=22
323944 On ch=2 n=b3 v=0
323944 On ch=2 n=b2 v=0
324120 On ch=2 n=b2 v=27
324120 On ch=2 n=b3 v=25
324184 On ch=2 n=b3 v=0
324184 On ch=2 n=b2 v=0
324360 On ch=2 n=b2 v=25
324360 On ch=2 n=b3 v=23
324424 On ch=2 n=b3 v=0
324424 On ch=2 n=b2 v=0
324600 On ch=2 n=b2 v=26
324600 On ch=2 n=b3 v=24
324664 On ch=2 n=b3 v=0
324664 On ch=2 n=b2 v=0
324840 On ch=2 n=b2 v=24
324840 On ch=2 n=b3 v=22
324904 On ch=2 n=b3 v=0
324904 On ch=2 n=b2 v=0
325080 On ch=2 n=b2 v=27
325080 On ch=2 n=b3 v=25
325144 On ch=2 n=b3 v=0
325144 On ch=2 n=b2 v=0
325320 On ch=2 n=b2 v=25
325320 On ch=2 n=b3 v=23
325384 On ch=2 n=b3 v=0
325384 On ch=2 n=b2 v=0
325560 On ch=2 n=b2 v=26
325560 On ch=2 n=b3 v=24
325624 On ch=2 n=b3 v=0
325624 On ch=2 n=b2 v=0
325800 On ch=2 n=b2 v=24
325800 On ch=2 n=b3 v=22
325864 On ch=2 n=b3 v=0
325864 On ch=2 n=b2 v=0
326040 On ch=2 n=b3 v=25
326040 On ch=2 n=b2 v=27
326104 On ch=2 n=b2 v=0
326104 On ch=2 n=b3 v=0
326280 On ch=2 n=b2 v=25
326280 On ch=2 n=b3 v=23
326344 On ch=2 n=b3 v=0
326344 On ch=2 n=b2 v=0
326520 On ch=2 n=b2 v=26
326520 On ch=2 n=b3 v=24
326584 On ch=2 n=b3 v=0
326584 On ch=2 n=b2 v=0
326760 On ch=2 n=b3 v=22
326760 On ch=2 n=b2 v=24
326824 On ch=2 n=b2 v=0
326824 On ch=2 n=b3 v=0
327000 On ch=2 n=b2 v=27
327000 On ch=2 n=b3 v=25
327064 On ch=2 n=b3 v=0
327064 On ch=2 n=b2 v=0
327240 On ch=2 n=b3 v=23
327240 On ch=2 n=b2 v=25
327304 On ch=2 n=b2 v=0
327304 On ch=2 n=b3 v=0
327480 On ch=2 n=b2 v=26
327480 On ch=2 n=b3 v=24
327544 On ch=2 n=b3 v=0
327544 On ch=2 n=b2 v=0
327720 On ch=2 n=b3 v=22
327720 On ch=2 n=b2 v=24
327784 On ch=2 n=b2 v=0
327784 On ch=2 n=b3 v=0
327960 On ch=2 n=b2 v=32
327960 On ch=2 n=b3 v=30
328024 On ch=2 n=b3 v=0
328024 On ch=2 n=b2 v=0
328200 On ch=2 n=b2 v=30
328200 On ch=2 n=b3 v=28
328264 On ch=2 n=b3 v=0
328264 On ch=2 n=b2 v=0
328440 On ch=2 n=b2 v=31
328440 On ch=2 n=b3 v=29
328504 On ch=2 n=b3 v=0
328504 On ch=2 n=b2 v=0
328680 On ch=2 n=b2 v=29
328680 On ch=2 n=b3 v=27
328744 On ch=2 n=b3 v=0
328744 On ch=2 n=b2 v=0
328920 On ch=2 n=b2 v=32
328920 On ch=2 n=b3 v=30
328984 On ch=2 n=b3 v=0
328984 On ch=2 n=b2 v=0
329160 On ch=2 n=b2 v=30
329160 On ch=2 n=b3 v=28
329224 On ch=2 n=b3 v=0
329224 On ch=2 n=b2 v=0
329400 On ch=2 n=b2 v=31
329400 On ch=2 n=b3 v=29
329464 On ch=2 n=b3 v=0
329464 On ch=2 n=b2 v=0
329640 On ch=2 n=b2 v=29
329640 On ch=2 n=b3 v=27
329704 On ch=2 n=b3 v=0
329704 On ch=2 n=b2 v=0
329880 On ch=2 n=b2 v=37
329880 On ch=2 n=b3 v=35
329944 On ch=2 n=b3 v=0
329944 On ch=2 n=b2 v=0
330120 On ch=2 n=b2 v=35
330120 On ch=2 n=b3 v=33
330184 On ch=2 n=b3 v=0
330184 On ch=2 n=b2 v=0
330360 On ch=2 n=b3 v=34
330360 On ch=2 n=b2 v=36
330424 On ch=2 n=b2 v=0
330424 On ch=2 n=b3 v=0
330600 On ch=2 n=b2 v=34
330600 On ch=2 n=b3 v=32
330664 On ch=2 n=b3 v=0
330664 On ch=2 n=b2 v=0
330840 On ch=2 n=b3 v=35
330840 On ch=2 n=b2 v=37
330904 On ch=2 n=b2 v=0
330904 On ch=2 n=b3 v=0
331080 On ch=2 n=b2 v=35
331080 On ch=2 n=b3 v=33
331144 On ch=2 n=b3 v=0
331144 On ch=2 n=b2 v=0
331320 On ch=2 n=b3 v=34
331320 On ch=2 n=b2 v=36
331384 On ch=2 n=b2 v=0
331384 On ch=2 n=b3 v=0
331560 On ch=2 n=b2 v=34
331560 On ch=2 n=b3 v=32
331624 On ch=2 n=b3 v=0
331624 On ch=2 n=b2 v=0
331800 On ch=2 n=b3 v=35
331800 On ch=2 n=b2 v=37
331864 On ch=2 n=b2 v=0
331864 On ch=2 n=b3 v=0
332040 On ch=2 n=b2 v=35
332040 On ch=2 n=b3 v=33
332104 On ch=2 n=b3 v=0
332104 On ch=2 n=b2 v=0
332280 On ch=2 n=b3 v=34
332280 On ch=2 n=b2 v=36
332344 On ch=2 n=b2 v=0
332344 On ch=2 n=b3 v=0
332520 On ch=2 n=b2 v=34
332520 On ch=2 n=b3 v=32
332584 On ch=2 n=b3 v=0
332584 On ch=2 n=b2 v=0
332760 On ch=2 n=b3 v=35
332760 On ch=2 n=b2 v=37
332824 On ch=2 n=b2 v=0
332824 On ch=2 n=b3 v=0
333000 On ch=2 n=b2 v=35
333000 On ch=2 n=b3 v=33
333064 On ch=2 n=b3 v=0
333064 On ch=2 n=b2 v=0
333240 On ch=2 n=b3 v=34
333240 On ch=2 n=b2 v=36
333304 On ch=2 n=b2 v=0
333304 On ch=2 n=b3 v=0
333480 On ch=2 n=b2 v=34
333480 On ch=2 n=b3 v=32
333544 On ch=2 n=b3 v=0
333544 On ch=2 n=b2 v=0
333720 On ch=2 n=b3 v=35
333720 On ch=2 n=b2 v=37
333784 On ch=2 n=b2 v=0
333784 On ch=2 n=b3 v=0
333960 On ch=2 n=b2 v=35
333960 On ch=2 n=b3 v=33
334024 On ch=2 n=b3 v=0
334024 On ch=2 n=b2 v=0
334200 On ch=2 n=b3 v=34
334200 On ch=2 n=b2 v=36
334264 On ch=2 n=b2 v=0
334264 On ch=2 n=b3 v=0
334440 On ch=2 n=b2 v=34
334440 On ch=2 n=b3 v=32
334504 On ch=2 n=b3 v=0
334504 On ch=2 n=b2 v=0
334680 On ch=2 n=b3 v=35
334680 On ch=2 n=b2 v=37
334744 On ch=2 n=b2 v=0
334744 On ch=2 n=b3 v=0
334920 On ch=2 n=b2 v=35
334920 On ch=2 n=b3 v=33
334984 On ch=2 n=b3 v=0
334984 On ch=2 n=b2 v=0
335160 On ch=2 n=b3 v=34
335160 On ch=2 n=b2 v=36
335224 On ch=2 n=b2 v=0
335224 On ch=2 n=b3 v=0
335400 On ch=2 n=b2 v=45
335400 On ch=2 n=b3 v=43
335464 On ch=2 n=b3 v=0
335464 On ch=2 n=b2 v=0
335640 On ch=2 n=d#3 v=71
335640 On ch=2 n=b3 v=74
335640 On ch=2 n=f#3 v=69
335640 On ch=2 n=b2 v=76
335640 Par ch=2 c=64 v=127
335704 On ch=2 n=b2 v=0
335704 On ch=2 n=f#3 v=0
335704 On ch=2 n=b3 v=0
335704 On ch=2 n=d#3 v=0
336000 On ch=2 n=f#2 v=42
336000 On ch=2 n=f#3 v=40
336032 On ch=2 n=f#3 v=0
336032 On ch=2 n=f#2 v=0
336120 On ch=2 n=g#2 v=44
336120 On ch=2 n=g#3 v=42
336120 Par ch=2 c=64 v=0
336184 On ch=2 n=g#3 v=0
336184 On ch=2 n=g#2 v=0
336360 On ch=2 n=a#2 v=46
336360 On ch=2 n=a#3 v=44
336424 On ch=2 n=a#3 v=0
336424 On ch=2 n=a#2 v=0
336600 On ch=2 n=b2 v=48
336600 On ch=2 n=b3 v=46
336664 On ch=2 n=b3 v=0
336664 On ch=2 n=b2 v=0
336840 On ch=2 n=c#3 v=50
336840 On ch=2 n=c#4 v=48
336904 On ch=2 n=c#4 v=0
336904 On ch=2 n=c#3 v=0
337080 On ch=2 n=d#3 v=52
337080 On ch=2 n=d#4 v=50
337080 Par ch=2 c=64 v=127
337144 On ch=2 n=d#4 v=0
337144 On ch=2 n=d#3 v=0
337440 On ch=2 n=a#2 v=48
337440 On ch=2 n=a#3 v=46
337472 On ch=2 n=a#3 v=0
337472 On ch=2 n=a#2 v=0
337560 On ch=2 n=b3 v=48
337560 On ch=2 n=b2 v=50
337560 Par ch=2 c=64 v=0
337624 On ch=2 n=b2 v=0
337624 On ch=2 n=b3 v=0
337800 On ch=2 n=c#4 v=50
337800 On ch=2 n=c#3 v=52
337864 On ch=2 n=c#3 v=0
337864 On ch=2 n=c#4 v=0
338040 On ch=2 n=d#3 v=54
338040 On ch=2 n=d#4 v=52
338104 On ch=2 n=d#4 v=0
338104 On ch=2 n=d#3 v=0
338280 On ch=2 n=e4 v=54
338280 On ch=2 n=e3 v=56
338344 On ch=2 n=e3 v=0
338344 On ch=2 n=e4 v=0
338520 On ch=2 n=f#4 v=56
338520 On ch=2 n=f#3 v=58
338520 Par ch=2 c=64 v=127
338584 On ch=2 n=f#3 v=0
338584 On ch=2 n=f#4 v=0
338880 On ch=2 n=d3 v=54
338880 On ch=2 n=d4 v=52
338912 On ch=2 n=d4 v=0
338912 On ch=2 n=d3 v=0
339000 On ch=2 n=d#3 v=56
339000 On ch=2 n=d#4 v=54
339000 Par ch=2 c=64 v=0
339064 On ch=2 n=d#4 v=0
339064 On ch=2 n=d#3 v=0
339240 On ch=2 n=e3 v=58
339240 On ch=2 n=e4 v=56
339304 On ch=2 n=e4 v=0
339304 On ch=2 n=e3 v=0
339480 On ch=2 n=f#3 v=60
339480 On ch=2 n=f#4 v=58
339544 On ch=2 n=f#4 v=0
339544 On ch=2 n=f#3 v=0
339720 On ch=2 n=g#3 v=62
339720 On ch=2 n=g#4 v=60
339784 On ch=2 n=g#4 v=0
339784 On ch=2 n=g#3 v=0
339960 On ch=2 n=a3 v=64
339960 On ch=2 n=a4 v=62
340024 On ch=2 n=a4 v=0
340024 On ch=2 n=a3 v=0
340200 On ch=2 n=a#3 v=66
340200 On ch=2 n=a#4 v=64
340264 On ch=2 n=a#4 v=0
340264 On ch=2 n=a#3 v=0
340440 On ch=2 n=b3 v=67
340440 On ch=2 n=b4 v=65
340440 Par ch=2 c=64 v=127
340483 On ch=2 n=b4 v=0
340483 On ch=2 n=b3 v=0
340600 On ch=2 n=c#4 v=68
340600 On ch=2 n=c#5 v=66
340643 On ch=2 n=c#5 v=0
340643 On ch=2 n=c#4 v=0
340760 On ch=2 n=d#5 v=67
340760 On ch=2 n=d#4 v=69
340803 On ch=2 n=d#4 v=0
340803 On ch=2 n=d#5 v=0
340920 On ch=2 n=e4 v=71
340920 On ch=2 n=e5 v=69
340963 On ch=2 n=e5 v=0
340963 On ch=2 n=e4 v=0
341080 On ch=2 n=f#5 v=70
341080 On ch=2 n=f#4 v=72
341123 On ch=2 n=f#4 v=0
341123 On ch=2 n=f#5 v=0
341240 On ch=2 n=g#4 v=74
341240 On ch=2 n=g#5 v=72
341283 On ch=2 n=g#5 v=0
341283 On ch=2 n=g#4 v=0
341400 On ch=2 n=a4 v=75
341400 On ch=2 n=a5 v=73
341443 On ch=2 n=a5 v=0
341443 On ch=2 n=a4 v=0
341560 On ch=2 n=a#4 v=76
341560 On ch=2 n=a#5 v=74
341603 On ch=2 n=a#5 v=0
341603 On ch=2 n=a#4 v=0
341720 On ch=2 n=b4 v=78
341720 On ch=2 n=b5 v=76
341763 On ch=2 n=b5 v=0
341763 On ch=2 n=b4 v=0
341880 On ch=2 n=c5 v=79
341880 On ch=2 n=c6 v=77
341923 On ch=2 n=c6 v=0
341923 On ch=2 n=c5 v=0
342040 On ch=2 n=c#5 v=81
342040 On ch=2 n=c#6 v=79
342083 On ch=2 n=c#6 v=0
342083 On ch=2 n=c#5 v=0
342200 On ch=2 n=d#5 v=83
342200 On ch=2 n=d#6 v=81
342243 On ch=2 n=d#6 v=0
342243 On ch=2 n=d#5 v=0
342360 Par ch=2 c=64 v=0
342360 On ch=2 n=e5 v=91
342360 On ch=2 n=b4 v=86
342360 On ch=2 n=g#4 v=88
342360 On ch=2 n=e4 v=93
342480 Par ch=2 c=64 v=127
342576 On ch=2 n=e4 v=0
342576 On ch=2 n=g#4 v=0
342576 On ch=2 n=b4 v=0
342576 On ch=2 n=e5 v=0
342720 On ch=2 n=b3 v=81
342720 On ch=2 n=b2 v=83
342752 On ch=2 n=b2 v=0
342752 On ch=2 n=b3 v=0
342840 On ch=2 n=c#3 v=84
342840 On ch=2 n=c#4 v=82
342840 Par ch=2 c=64 v=0
342904 On ch=2 n=c#4 v=0
342904 On ch=2 n=c#3 v=0
343080 On ch=2 n=d#3 v=85
343080 On ch=2 n=d#4 v=83
343144 On ch=2 n=d#4 v=0
343144 On ch=2 n=d#3 v=0
343320 On ch=2 n=e3 v=86
343320 On ch=2 n=e4 v=84
343384 On ch=2 n=e4 v=0
343384 On ch=2 n=e3 v=0
343560 On ch=2 n=f#3 v=87
343560 On ch=2 n=f#4 v=85
343624 On ch=2 n=f#4 v=0
343624 On ch=2 n=f#3 v=0
343800 On ch=2 n=g#3 v=88
343800 On ch=2 n=g#4 v=86
343864 On ch=2 n=g#4 v=0
343864 On ch=2 n=g#3 v=0
344040 On ch=2 n=f#3 v=89
344040 On ch=2 n=c#4 v=84
344040 On ch=2 n=e4 v=82
344104 On ch=2 n=e4 v=0
344104 On ch=2 n=c#4 v=0
344104 On ch=2 n=f#3 v=0
344280 On ch=2 n=b3 v=90
344280 On ch=2 n=d#4 v=85
344280 On ch=2 n=f#4 v=83
344344 On ch=2 n=f#4 v=0
344344 On ch=2 n=d#4 v=0
344344 On ch=2 n=b3 v=0
344520 On ch=2 n=d#4 v=85
344520 On ch=2 n=f#4 v=80
344520 On ch=2 n=b4 v=78
344552 On ch=2 n=b4 v=0
344552 On ch=2 n=f#4 v=0
344552 On ch=2 n=d#4 v=0
344640 On ch=2 n=a#4 v=82
344640 On ch=2 n=f#4 v=84
344672 On ch=2 n=f#4 v=0
344672 On ch=2 n=a#4 v=0
344760 On ch=2 n=b3 v=86
344760 On ch=2 n=f#4 v=81
344760 On ch=2 n=b4 v=84
344824 On ch=2 n=b4 v=0
344824 On ch=2 n=f#4 v=0
344824 On ch=2 n=b3 v=0
345240 On ch=2 n=f#6 v=36
345240 On ch=2 n=b5 v=41
345304 On ch=2 n=b5 v=0
345304 On ch=2 n=f#6 v=0
345480 On ch=2 n=b5 v=37
345480 On ch=2 n=f#6 v=32
345512 On ch=2 n=f#6 v=0
345512 On ch=2 n=b5 v=0
345600 On ch=2 n=b5 v=35
345600 On ch=2 n=f#6 v=33
345632 On ch=2 n=f#6 v=0
345632 On ch=2 n=b5 v=0
345720 On ch=2 n=b5 v=39
345720 On ch=2 n=f#6 v=34
345784 On ch=2 n=f#6 v=0
345784 On ch=2 n=b5 v=0
346200 On ch=2 n=f#4 v=86
346200 On ch=2 n=c#4 v=88
346200 On ch=2 n=a3 v=93
346632 On ch=2 n=a3 v=0
346632 On ch=2 n=c#4 v=0
346632 On ch=2 n=f#4 v=0
346680 On ch=2 n=f#4 v=74
346680 On ch=2 n=d#4 v=76
346680 On ch=2 n=g#3 v=81
346744 On ch=2 n=g#3 v=0
346744 On ch=2 n=d#4 v=0
346744 On ch=2 n=f#4 v=0
346920 On ch=2 n=c4 v=74
346920 On ch=2 n=g#3 v=79
346920 On ch=2 n=d#4 v=72
346984 On ch=2 n=d#4 v=0
346984 On ch=2 n=g#3 v=0
346984 On ch=2 n=c4 v=0
347160 On ch=2 n=e3 v=83
347160 On ch=2 n=g#3 v=78
347160 On ch=2 n=c#4 v=76
347592 On ch=2 n=c#4 v=0
347592 On ch=2 n=g#3 v=0
347592 On ch=2 n=e3 v=0
347640 On ch=2 n=c#3 v=81
347640 On ch=2 n=c#4 v=79
347856 On ch=2 n=c#4 v=0
347856 On ch=2 n=c#3 v=0
347880 On ch=2 n=g#2 v=79
347880 On ch=2 n=g#3 v=77
348096 On ch=2 n=g#3 v=0
348096 On ch=2 n=g#2 v=0
348120 On ch=2 n=c#4 v=81
348120 On ch=2 n=g#3 v=78
348120 On ch=2 n=c#3 v=83
348184 On ch=2 n=c#3 v=0
348184 On ch=2 n=g#3 v=0
348184 On ch=2 n=c#4 v=0
348360 On ch=2 n=e3 v=79
348360 On ch=2 n=c#4 v=74
348392 On ch=2 n=c#4 v=0
348392 On ch=2 n=e3 v=0
348480 On ch=2 n=c4 v=73
348480 On ch=2 n=g#3 v=78
348512 On ch=2 n=g#3 v=0
348512 On ch=2 n=c4 v=0
348600 On ch=2 n=c#3 v=81
348600 On ch=2 n=g#3 v=76
348600 On ch=2 n=c#4 v=79
348664 On ch=2 n=c#4 v=0
348664 On ch=2 n=g#3 v=0
348664 On ch=2 n=c#3 v=0
349080 On ch=2 n=c#6 v=41
349080 On ch=2 n=g#6 v=36
349144 On ch=2 n=g#6 v=0
349144 On ch=2 n=c#6 v=0
349320 On ch=2 n=c#6 v=37
349320 On ch=2 n=g#6 v=32
349352 On ch=2 n=g#6 v=0
349352 On ch=2 n=c#6 v=0
349440 On ch=2 n=c#6 v=35
349440 On ch=2 n=g#6 v=30
349472 On ch=2 n=g#6 v=0
349472 On ch=2 n=c#6 v=0
349560 On ch=2 n=c#6 v=39
349560 On ch=2 n=g#6 v=34
349624 On ch=2 n=g#6 v=0
349624 On ch=2 n=c#6 v=0
350040 On ch=2 n=c#3 v=83
350040 On ch=2 n=e4 v=78
350104 On ch=2 n=e4 v=0
350104 On ch=2 n=c#3 v=0
350280 On ch=2 n=a3 v=79
350344 On ch=2 n=a3 v=0
350520 On ch=2 n=d#3 v=81
350520 On ch=2 n=f#4 v=76
350584 On ch=2 n=f#4 v=0
350584 On ch=2 n=d#3 v=0
350760 On ch=2 n=b3 v=77
350824 On ch=2 n=b3 v=0
351000 On ch=2 n=e3 v=83
351064 On ch=2 n=e3 v=0
351120 On ch=2 n=g#4 v=78
351121 On ch=2 n=g#4 v=0
351240 On ch=2 n=e4 v=79
351304 On ch=2 n=e4 v=0
351480 On ch=2 n=c#4 v=81
351480 On ch=2 n=e4 v=76
351480 On ch=2 n=a4 v=74
351544 On ch=2 n=a4 v=0
351544 On ch=2 n=e4 v=0
351544 On ch=2 n=c#4 v=0
351720 On ch=2 n=d4 v=72
351720 On ch=2 n=f4 v=70
351720 On ch=2 n=b3 v=77
351720 On ch=2 n=g#4 v=68
351784 On ch=2 n=g#4 v=0
351784 On ch=2 n=b3 v=0
351784 On ch=2 n=f4 v=0
351784 On ch=2 n=d4 v=0
351960 On ch=2 n=a3 v=83
351960 On ch=2 n=c#4 v=78
351960 On ch=2 n=f#4 v=76
352024 On ch=2 n=f#4 v=0
352024 On ch=2 n=c#4 v=0
352024 On ch=2 n=a3 v=0
352200 On ch=2 n=a3 v=79
352200 On ch=2 n=c#4 v=74
352200 On ch=2 n=f#4 v=72
352232 On ch=2 n=f#4 v=0
352232 On ch=2 n=c#4 v=0
352232 On ch=2 n=a3 v=0
352320 On ch=2 n=f4 v=73
352320 On ch=2 n=c#4 v=78
352352 On ch=2 n=c#4 v=0
352352 On ch=2 n=f4 v=0
352440 On ch=2 n=a3 v=81
352440 On ch=2 n=c#4 v=76
352440 On ch=2 n=f#4 v=74
352504 On ch=2 n=f#4 v=0
352504 On ch=2 n=c#4 v=0
352504 On ch=2 n=a3 v=0
352920 On ch=2 n=a5 v=41
352920 On ch=2 n=c#6 v=36
352920 On ch=2 n=f#6 v=34
352984 On ch=2 n=f#6 v=0
352984 On ch=2 n=c#6 v=0
352984 On ch=2 n=a5 v=0
353160 On ch=2 n=a5 v=37
353160 On ch=2 n=c#6 v=32
353160 On ch=2 n=f#6 v=30
353192 On ch=2 n=f#6 v=0
353192 On ch=2 n=c#6 v=0
353192 On ch=2 n=a5 v=0
353280 On ch=2 n=f6 v=30
353280 On ch=2 n=c#6 v=35
353312 On ch=2 n=c#6 v=0
353312 On ch=2 n=f6 v=0
353400 On ch=2 n=a5 v=39
353400 On ch=2 n=c#6 v=34
353400 On ch=2 n=f#6 v=32
353464 On ch=2 n=f#6 v=0
353464 On ch=2 n=c#6 v=0
353464 On ch=2 n=a5 v=0
353880 On ch=2 n=a3 v=93
353880 On ch=2 n=c#4 v=88
354204 On ch=2 n=c#4 v=0
354204 On ch=2 n=a3 v=0
354240 On ch=2 n=f#3 v=77
354240 On ch=2 n=b3 v=72
354240 On ch=2 n=d#4 v=70
354348 On ch=2 n=d#4 v=0
354348 On ch=2 n=b3 v=0
354348 On ch=2 n=f#3 v=0
354360 On ch=2 n=g#3 v=81
354360 On ch=2 n=b3 v=76
354360 On ch=2 n=e4 v=74
354424 On ch=2 n=e4 v=0
354424 On ch=2 n=b3 v=0
354424 On ch=2 n=g#3 v=0
354600 On ch=2 n=a3 v=79
354600 On ch=2 n=c#4 v=74
354600 On ch=2 n=f#4 v=72
354664 On ch=2 n=f#4 v=0
354664 On ch=2 n=c#4 v=0
354664 On ch=2 n=a3 v=0
354840 On ch=2 n=g#4 v=86
354840 On ch=2 n=e4 v=88
354840 On ch=2 n=b3 v=93
355164 On ch=2 n=b3 v=0
355164 On ch=2 n=e4 v=0
355164 On ch=2 n=g#4 v=0
355200 On ch=2 n=c#4 v=77
355200 On ch=2 n=e4 v=72
355200 On ch=2 n=a4 v=70
355308 On ch=2 n=a4 v=0
355308 On ch=2 n=e4 v=0
355308 On ch=2 n=c#4 v=0
355320 On ch=2 n=g#4 v=74
355320 On ch=2 n=e4 v=76
355320 On ch=2 n=b3 v=81
355384 On ch=2 n=b3 v=0
355384 On ch=2 n=e4 v=0
355384 On ch=2 n=g#4 v=0
355560 On ch=2 n=b2 v=79
355560 On ch=2 n=b3 v=77
355624 On ch=2 n=b3 v=0
355624 On ch=2 n=b2 v=0
355800 On ch=2 n=e3 v=83
355800 On ch=2 n=b3 v=78
355800 On ch=2 n=e4 v=81
355864 On ch=2 n=e4 v=0
355864 On ch=2 n=b3 v=0
355864 On ch=2 n=e3 v=0
356040 On ch=2 n=g#3 v=79
356040 On ch=2 n=b3 v=74
356040 On ch=2 n=e4 v=72
356072 On ch=2 n=e4 v=0
356072 On ch=2 n=b3 v=0
356072 On ch=2 n=g#3 v=0
356160 On ch=2 n=b3 v=78
356160 On ch=2 n=d#4 v=73
356192 On ch=2 n=d#4 v=0
356192 On ch=2 n=b3 v=0
356280 On ch=2 n=e3 v=81
356280 On ch=2 n=b3 v=76
356280 On ch=2 n=e4 v=79
356344 On ch=2 n=e4 v=0
356344 On ch=2 n=b3 v=0
356344 On ch=2 n=e3 v=0
356760 On ch=2 n=e5 v=41
356760 On ch=2 n=b5 v=36
356760 On ch=2 n=e6 v=39
356824 On ch=2 n=e6 v=0
356824 On ch=2 n=b5 v=0
356824 On ch=2 n=e5 v=0
357000 On ch=2 n=g#5 v=37
357000 On ch=2 n=b5 v=32
357000 On ch=2 n=e6 v=30
357032 On ch=2 n=e6 v=0
357032 On ch=2 n=b5 v=0
357032 On ch=2 n=g#5 v=0
357120 On ch=2 n=b5 v=35
357120 On ch=2 n=d#6 v=30
357152 On ch=2 n=d#6 v=0
357152 On ch=2 n=b5 v=0
357240 On ch=2 n=e5 v=39
357240 On ch=2 n=b5 v=34
357240 On ch=2 n=e6 v=37
357304 On ch=2 n=e6 v=0
357304 On ch=2 n=b5 v=0
357304 On ch=2 n=e5 v=0
357720 On ch=2 n=c#3 v=99
357720 On ch=2 n=c#4 v=97
357720 Par ch=2 c=64 v=127
357784 On ch=2 n=c#4 v=0
357784 On ch=2 n=c#3 v=0
357960 On ch=2 n=e4 v=95
357960 On ch=2 n=a4 v=90
357960 On ch=2 n=c#5 v=88
357960 On ch=2 n=e5 v=93
358024 On ch=2 n=e5 v=0
358024 On ch=2 n=c#5 v=0
358024 On ch=2 n=a4 v=0
358024 On ch=2 n=e4 v=0
358200 On ch=2 n=d#3 v=97
358200 On ch=2 n=d#4 v=95
358200 Par ch=2 c=64 v=0
358264 On ch=2 n=d#4 v=0
358264 On ch=2 n=d#3 v=0
358440 On ch=2 n=f#4 v=93
358440 On ch=2 n=b4 v=88
358440 On ch=2 n=f#5 v=91
358504 On ch=2 n=f#5 v=0
358504 On ch=2 n=b4 v=0
358504 On ch=2 n=f#4 v=0
358680 On ch=2 n=e3 v=99
358680 On ch=2 n=e4 v=97
358680 Par ch=2 c=64 v=127
358744 On ch=2 n=e4 v=0
358744 On ch=2 n=e3 v=0
358920 On ch=2 n=g#4 v=95
358920 On ch=2 n=b4 v=90
358920 On ch=2 n=e5 v=88
358920 On ch=2 n=g#5 v=93
358984 On ch=2 n=g#5 v=0
358984 On ch=2 n=e5 v=0
358984 On ch=2 n=b4 v=0
358984 On ch=2 n=g#4 v=0
359160 On ch=2 n=c#3 v=97
359160 On ch=2 n=c#4 v=95
359160 Par ch=2 c=64 v=0
359224 On ch=2 n=c#4 v=0
359224 On ch=2 n=c#3 v=0
359400 On ch=2 n=b2 v=93
359400 On ch=2 n=b3 v=91
359464 On ch=2 n=b3 v=0
359464 On ch=2 n=b2 v=0
359640 On ch=2 n=a2 v=99
359640 On ch=2 n=a3 v=97
359704 On ch=2 n=a3 v=0
359704 On ch=2 n=a2 v=0
359880 On ch=2 n=a3 v=95
359880 On ch=2 n=c#4 v=90
359880 On ch=2 n=f#4 v=88
359912 On ch=2 n=f#4 v=0
359912 On ch=2 n=c#4 v=0
359912 On ch=2 n=a3 v=0
360000 On ch=2 n=f4 v=87
360000 On ch=2 n=a3 v=94
360000 On ch=2 n=c#4 v=89
360032 On ch=2 n=c#4 v=0
360032 On ch=2 n=a3 v=0
360032 On ch=2 n=f4 v=0
360120 On ch=2 n=a3 v=97
360120 On ch=2 n=c#4 v=92
360120 On ch=2 n=f#4 v=90
360184 On ch=2 n=f#4 v=0
360184 On ch=2 n=c#4 v=0
360184 On ch=2 n=a3 v=0
360600 On ch=2 n=f#6 v=49
360654 On ch=2 n=f#6 v=0
360660 On ch=2 n=a5 v=45
360660 On ch=2 n=c#6 v=40
360714 On ch=2 n=c#6 v=0
360714 On ch=2 n=a5 v=0
360720 On ch=2 n=f#6 v=46
360774 On ch=2 n=f#6 v=0
360780 On ch=2 n=c#6 v=37
360780 On ch=2 n=a5 v=42
360834 On ch=2 n=a5 v=0
360834 On ch=2 n=c#6 v=0
360840 On ch=2 n=f#6 v=47
360894 On ch=2 n=f#6 v=0
360900 On ch=2 n=c#6 v=38
360900 On ch=2 n=a5 v=43
360954 On ch=2 n=a5 v=0
360954 On ch=2 n=c#6 v=0
360960 On ch=2 n=f#6 v=45
361014 On ch=2 n=f#6 v=0
361020 On ch=2 n=c#6 v=36
361020 On ch=2 n=a5 v=41
361074 On ch=2 n=a5 v=0
361074 On ch=2 n=c#6 v=0
361080 On ch=2 n=f#6 v=48
361144 On ch=2 n=f#6 v=0
361560 On ch=2 n=a3 v=93
361560 On ch=2 n=c#4 v=88
361560 On ch=2 n=a4 v=91
361560 Par ch=2 c=64 v=127
361884 On ch=2 n=a4 v=0
361884 On ch=2 n=c#4 v=0
361884 On ch=2 n=a3 v=0
361920 On ch=2 n=f#3 v=77
361920 On ch=2 n=b3 v=72
361920 On ch=2 n=f#4 v=75
362028 On ch=2 n=f#4 v=0
362028 On ch=2 n=b3 v=0
362028 On ch=2 n=f#3 v=0
362040 On ch=2 n=g#3 v=81
362040 On ch=2 n=e4 v=76
362040 On ch=2 n=g#4 v=79
362040 Par ch=2 c=64 v=0
362104 On ch=2 n=g#4 v=0
362104 On ch=2 n=e4 v=0
362104 On ch=2 n=g#3 v=0
362280 On ch=2 n=a3 v=79
362280 On ch=2 n=c#4 v=74
362280 On ch=2 n=f#4 v=72
362280 On ch=2 n=a4 v=77
362344 On ch=2 n=a4 v=0
362344 On ch=2 n=f#4 v=0
362344 On ch=2 n=c#4 v=0
362344 On ch=2 n=a3 v=0
362520 On ch=2 n=b4 v=91
362520 On ch=2 n=g#4 v=86
362520 On ch=2 n=e4 v=88
362520 On ch=2 n=b3 v=93
362520 Par ch=2 c=64 v=127
362952 On ch=2 n=b3 v=0
362952 On ch=2 n=e4 v=0
362952 On ch=2 n=g#4 v=0
362952 On ch=2 n=b4 v=0
363000 On ch=2 n=b3 v=91
363000 On ch=2 n=d#4 v=86
363000 On ch=2 n=f#4 v=84
363000 On ch=2 n=b4 v=89
363000 Par ch=2 c=64 v=0
363240 Par ch=2 c=64 v=127
363432 On ch=2 n=b4 v=0
363432 On ch=2 n=f#4 v=0
363432 On ch=2 n=d#4 v=0
363432 On ch=2 n=b3 v=0
363480 On ch=2 n=b2 v=93
363480 On ch=2 n=e3 v=88
363480 On ch=2 n=g#3 v=86
363480 On ch=2 n=b3 v=91
363480 Par ch=2 c=64 v=0
363912 On ch=2 n=b3 v=0
363912 On ch=2 n=g#3 v=0
363912 On ch=2 n=e3 v=0
363912 On ch=2 n=b2 v=0
363960 On ch=2 n=b2 v=91
363960 On ch=2 n=d#3 v=86
363960 On ch=2 n=f#3 v=84
363960 On ch=2 n=b3 v=89
363960 Par ch=2 c=64 v=127
364284 On ch=2 n=b3 v=0
364284 On ch=2 n=f#3 v=0
364284 On ch=2 n=d#3 v=0
364284 On ch=2 n=b2 v=0
364320 Par ch=2 c=64 v=0
364440 On ch=2 n=e3 v=42
364504 On ch=2 n=e3 v=0
364680 On ch=2 n=g#4 v=33
364680 On ch=2 n=b4 v=31
364744 On ch=2 n=b4 v=0
364744 On ch=2 n=g#4 v=0
364920 On ch=2 n=e4 v=35
364984 On ch=2 n=e4 v=0
365160 On ch=2 n=g#4 v=31
365160 On ch=2 n=b4 v=29
365224 On ch=2 n=b4 v=0
365224 On ch=2 n=g#4 v=0
365400 On ch=2 n=e3 v=47
365464 On ch=2 n=e3 v=0
365640 On ch=2 n=d5 v=36
365640 On ch=2 n=g#4 v=38
365704 On ch=2 n=g#4 v=0
365704 On ch=2 n=d5 v=0
365880 On ch=2 n=e4 v=40
365944 On ch=2 n=e4 v=0
366120 On ch=2 n=d5 v=34
366120 On ch=2 n=g#4 v=36
366184 On ch=2 n=g#4 v=0
366184 On ch=2 n=d5 v=0
366360 On ch=2 n=e3 v=43
366424 On ch=2 n=e3 v=0
366600 On ch=2 n=a4 v=34
366600 On ch=2 n=c#5 v=32
366664 On ch=2 n=c#5 v=0
366664 On ch=2 n=a4 v=0
366840 On ch=2 n=e4 v=36
366904 On ch=2 n=e4 v=0
367080 On ch=2 n=a4 v=32
367080 On ch=2 n=c#5 v=30
367144 On ch=2 n=c#5 v=0
367144 On ch=2 n=a4 v=0
367320 On ch=2 n=e3 v=47
367384 On ch=2 n=e3 v=0
367560 On ch=2 n=c5 v=38
367560 On ch=2 n=e5 v=36
367624 On ch=2 n=e5 v=0
367624 On ch=2 n=c5 v=0
367800 On ch=2 n=e4 v=40
367864 On ch=2 n=e4 v=0
368040 On ch=2 n=c5 v=36
368040 On ch=2 n=e5 v=34
368104 On ch=2 n=e5 v=0
368104 On ch=2 n=c5 v=0
368280 On ch=2 n=e3 v=43
368344 On ch=2 n=e3 v=0
368520 On ch=2 n=g#4 v=34
368520 On ch=2 n=b4 v=30
368520 On ch=2 n=e5 v=28
368584 On ch=2 n=e5 v=0
368584 On ch=2 n=b4 v=0
368584 On ch=2 n=g#4 v=0
368760 On ch=2 n=e4 v=36
368824 On ch=2 n=e4 v=0
369000 On ch=2 n=g#4 v=32
369000 On ch=2 n=b4 v=28
369000 On ch=2 n=e5 v=26
369064 On ch=2 n=e5 v=0
369064 On ch=2 n=b4 v=0
369064 On ch=2 n=g#4 v=0
369240 On ch=2 n=e3 v=54
369304 On ch=2 n=e3 v=0
369480 On ch=2 n=d5 v=41
369480 On ch=2 n=g#4 v=45
369480 On ch=2 n=e5 v=39
369544 On ch=2 n=e5 v=0
369544 On ch=2 n=g#4 v=0
369544 On ch=2 n=d5 v=0
369720 On ch=2 n=e4 v=47
369784 On ch=2 n=e4 v=0
369960 On ch=2 n=d5 v=39
369960 On ch=2 n=g#4 v=43
369960 On ch=2 n=e5 v=37
370024 On ch=2 n=e5 v=0
370024 On ch=2 n=g#4 v=0
370024 On ch=2 n=d5 v=0
370200 On ch=2 n=e3 v=54
370264 On ch=2 n=e3 v=0
370440 On ch=2 n=a4 v=45
370440 On ch=2 n=c#5 v=41
370440 On ch=2 n=e5 v=39
370504 On ch=2 n=e5 v=0
370504 On ch=2 n=c#5 v=0
370504 On ch=2 n=a4 v=0
370680 On ch=2 n=e4 v=47
370744 On ch=2 n=e4 v=0
370920 On ch=2 n=a4 v=43
370920 On ch=2 n=c#5 v=39
370920 On ch=2 n=e5 v=37
370984 On ch=2 n=e5 v=0
370984 On ch=2 n=c#5 v=0
370984 On ch=2 n=a4 v=0
371160 On ch=2 n=e3 v=65
371224 On ch=2 n=e3 v=0
371400 On ch=2 n=c5 v=52
371400 On ch=2 n=a4 v=56
371400 On ch=2 n=e5 v=50
371464 On ch=2 n=e5 v=0
371464 On ch=2 n=a4 v=0
371464 On ch=2 n=c5 v=0
371640 On ch=2 n=e4 v=58
371704 On ch=2 n=e4 v=0
371880 On ch=2 n=c5 v=50
371880 On ch=2 n=a4 v=54
371880 On ch=2 n=e5 v=48
371944 On ch=2 n=e5 v=0
371944 On ch=2 n=a4 v=0
371944 On ch=2 n=c5 v=0
372120 On ch=2 n=e3 v=65
372120 On ch=2 n=e4 v=63
372184 On ch=2 n=e4 v=0
372184 On ch=2 n=e3 v=0
372360 On ch=2 n=g#4 v=56
372360 On ch=2 n=b4 v=52
372360 On ch=2 n=e5 v=50
372424 On ch=2 n=e5 v=0
372424 On ch=2 n=b4 v=0
372424 On ch=2 n=g#4 v=0
372600 On ch=2 n=e4 v=58
372664 On ch=2 n=e4 v=0
372840 On ch=2 n=g#4 v=54
372840 On ch=2 n=b4 v=50
372840 On ch=2 n=e5 v=48
372904 On ch=2 n=e5 v=0
372904 On ch=2 n=b4 v=0
372904 On ch=2 n=g#4 v=0
373080 On ch=2 n=e3 v=76
373080 On ch=2 n=e4 v=74
373144 On ch=2 n=e4 v=0
373144 On ch=2 n=e3 v=0
373320 On ch=2 n=d5 v=63
373320 On ch=2 n=g#4 v=67
373320 On ch=2 n=e5 v=61
373384 On ch=2 n=e5 v=0
373384 On ch=2 n=g#4 v=0
373384 On ch=2 n=d5 v=0
373560 On ch=2 n=e4 v=69
373624 On ch=2 n=e4 v=0
373800 On ch=2 n=d5 v=61
373800 On ch=2 n=g#4 v=65
373800 On ch=2 n=e5 v=59
373864 On ch=2 n=e5 v=0
373864 On ch=2 n=g#4 v=0
373864 On ch=2 n=d5 v=0
374040 On ch=2 n=e3 v=75
374040 On ch=2 n=e4 v=73
374104 On ch=2 n=e4 v=0
374104 On ch=2 n=e3 v=0
374280 On ch=2 n=a4 v=66
374280 On ch=2 n=c#5 v=62
374280 On ch=2 n=e5 v=60
374344 On ch=2 n=e5 v=0
374344 On ch=2 n=c#5 v=0
374344 On ch=2 n=a4 v=0
374520 On ch=2 n=e4 v=68
374584 On ch=2 n=e4 v=0
374760 On ch=2 n=a4 v=64
374760 On ch=2 n=c#5 v=60
374760 On ch=2 n=e5 v=58
374824 On ch=2 n=e5 v=0
374824 On ch=2 n=c#5 v=0
374824 On ch=2 n=a4 v=0
375000 On ch=2 n=e3 v=86
375000 On ch=2 n=e4 v=84
375064 On ch=2 n=e4 v=0
375064 On ch=2 n=e3 v=0
375240 On ch=2 n=c5 v=73
375240 On ch=2 n=a4 v=77
375240 On ch=2 n=e5 v=71
375304 On ch=2 n=e5 v=0
375304 On ch=2 n=a4 v=0
375304 On ch=2 n=c5 v=0
375480 On ch=2 n=a3 v=84
375544 On ch=2 n=a3 v=0
375720 On ch=2 n=c5 v=71
375720 On ch=2 n=a4 v=75
375720 On ch=2 n=e5 v=69
375784 On ch=2 n=e5 v=0
375784 On ch=2 n=a4 v=0
375784 On ch=2 n=c5 v=0
375960 On ch=2 n=c4 v=91
376024 On ch=2 n=c4 v=0
376200 On ch=2 n=c5 v=78
376200 On ch=2 n=a4 v=82
376200 On ch=2 n=e5 v=76
376264 On ch=2 n=e5 v=0
376264 On ch=2 n=a4 v=0
376264 On ch=2 n=c5 v=0
376440 On ch=2 n=e4 v=89
376504 On ch=2 n=e4 v=0
376680 On ch=2 n=c5 v=76
376680 On ch=2 n=e5 v=74
376680 On ch=2 n=a4 v=80
376744 On ch=2 n=a4 v=0
376744 On ch=2 n=e5 v=0
376744 On ch=2 n=c5 v=0
378840 On ch=2 n=g5 v=30
378840 On ch=2 n=c6 v=33
378840 On ch=2 n=e6 v=35
379488 On ch=2 n=e6 v=0
379488 On ch=2 n=c6 v=0
379560 On ch=2 n=f6 v=31
379560 On ch=2 n=d6 v=29
379668 On ch=2 n=d6 v=0
379668 On ch=2 n=f6 v=0
379680 On ch=2 n=e6 v=28
379680 On ch=2 n=c6 v=26
379704 On ch=2 n=g5 v=0
379788 On ch=2 n=c6 v=0
379788 On ch=2 n=e6 v=0
379800 On ch=2 n=d6 v=33
379800 On ch=2 n=b5 v=31
379864 On ch=2 n=b5 v=0
379864 On ch=2 n=d6 v=0
380220 On ch=2 n=g4 v=26
380220 On ch=2 n=g5 v=24
380274 On ch=2 n=g5 v=0
380274 On ch=2 n=g4 v=0
380280 On ch=2 n=g5 v=29
380280 On ch=2 n=g4 v=31
380344 On ch=2 n=g4 v=0
380344 On ch=2 n=g5 v=0
380760 On ch=2 n=g5 v=30
380760 On ch=2 n=c6 v=33
380760 On ch=2 n=e6 v=35
381408 On ch=2 n=e6 v=0
381408 On ch=2 n=c6 v=0
381480 On ch=2 n=d6 v=29
381480 On ch=2 n=f6 v=31
381588 On ch=2 n=f6 v=0
381588 On ch=2 n=d6 v=0
381600 On ch=2 n=c6 v=27
381600 On ch=2 n=e6 v=29
381624 On ch=2 n=g5 v=0
381708 On ch=2 n=e6 v=0
381708 On ch=2 n=c6 v=0
381720 On ch=2 n=d6 v=33
381720 On ch=2 n=b5 v=31
381784 On ch=2 n=b5 v=0
381784 On ch=2 n=d6 v=0
382140 On ch=2 n=g5 v=24
382140 On ch=2 n=g4 v=26
382194 On ch=2 n=g4 v=0
382194 On ch=2 n=g5 v=0
382200 On ch=2 n=g5 v=29
382200 On ch=2 n=g4 v=31
382264 On ch=2 n=g4 v=0
382264 On ch=2 n=g5 v=0
382680 On ch=2 n=g5 v=30
382680 On ch=2 n=c6 v=33
382896 On ch=2 n=c6 v=0
382896 On ch=2 n=g5 v=0
383040 On ch=2 n=e6 v=35
383160 On ch=2 n=g5 v=26
383160 On ch=2 n=c6 v=29
383160 On ch=2 n=e6 v=31
383256 On ch=2 n=e6 v=0
383574 On ch=2 n=e6 v=0
383574 On ch=2 n=c6 v=0
383580 On ch=2 n=b5 v=27
383580 On ch=2 n=d#6 v=29
383592 On ch=2 n=g5 v=0
383634 On ch=2 n=d#6 v=0
383634 On ch=2 n=b5 v=0
383640 On ch=2 n=c6 v=26
383640 On ch=2 n=e6 v=28
383856 On ch=2 n=e6 v=0
383856 On ch=2 n=c6 v=0
384600 On ch=2 n=f5 v=35
384639 On ch=2 n=c6 v=31
384679 On ch=2 n=f6 v=33
384720 On ch=2 n=a6 v=35
384816 On ch=2 n=a6 v=0
384816 On ch=2 n=f6 v=0
384816 On ch=2 n=c6 v=0
384816 On ch=2 n=f5 v=0
385080 On ch=2 n=f6 v=29
385080 On ch=2 n=a6 v=31
385404 On ch=2 n=a6 v=0
385404 On ch=2 n=f6 v=0
385440 On ch=2 n=e6 v=27
385440 On ch=2 n=g#6 v=29
385548 On ch=2 n=g#6 v=0
385548 On ch=2 n=e6 v=0
385560 On ch=2 n=f6 v=31
385560 On ch=2 n=a6 v=33
385776 On ch=2 n=a6 v=0
385776 On ch=2 n=f6 v=0
386520 On ch=2 n=a5 v=30
386520 On ch=2 n=d6 v=33
386520 On ch=2 n=f6 v=35
387168 On ch=2 n=f6 v=0
387168 On ch=2 n=d6 v=0
387240 On ch=2 n=e6 v=29
387240 On ch=2 n=g6 v=31
387348 On ch=2 n=g6 v=0
387348 On ch=2 n=e6 v=0
387360 On ch=2 n=d6 v=27
387360 On ch=2 n=f6 v=29
387384 On ch=2 n=a5 v=0
387468 On ch=2 n=f6 v=0
387468 On ch=2 n=d6 v=0
387480 On ch=2 n=c#6 v=31
387480 On ch=2 n=e6 v=33
387544 On ch=2 n=e6 v=0
387544 On ch=2 n=c#6 v=0
387900 On ch=2 n=a4 v=26
387900 On ch=2 n=a5 v=24
387954 On ch=2 n=a5 v=0
387954 On ch=2 n=a4 v=0
387960 On ch=2 n=a4 v=31
387960 On ch=2 n=a5 v=29
388024 On ch=2 n=a5 v=0
388024 On ch=2 n=a4 v=0
388440 On ch=2 n=a5 v=30
388440 On ch=2 n=d6 v=33
388440 On ch=2 n=f6 v=35
389088 On ch=2 n=f6 v=0
389088 On ch=2 n=d6 v=0
389160 On ch=2 n=e6 v=29
389160 On ch=2 n=g6 v=31
389268 On ch=2 n=g6 v=0
389268 On ch=2 n=e6 v=0
389280 On ch=2 n=d6 v=27
389280 On ch=2 n=f6 v=29
389304 On ch=2 n=a5 v=0
389388 On ch=2 n=f6 v=0
389388 On ch=2 n=d6 v=0
389400 On ch=2 n=c#6 v=31
389400 On ch=2 n=e6 v=33
389464 On ch=2 n=e6 v=0
389464 On ch=2 n=c#6 v=0
389820 On ch=2 n=a4 v=26
389820 On ch=2 n=a5 v=24
389874 On ch=2 n=a5 v=0
389874 On ch=2 n=a4 v=0
389880 On ch=2 n=a5 v=29
389880 On ch=2 n=a4 v=31
389944 On ch=2 n=a4 v=0
389944 On ch=2 n=a5 v=0
390360 On ch=2 n=a5 v=30
390360 On ch=2 n=d6 v=33
390360 On ch=2 n=f6 v=35
390576 On ch=2 n=f6 v=0
390576 On ch=2 n=d6 v=0
390576 On ch=2 n=a5 v=0
390840 On ch=2 n=d6 v=29
390840 On ch=2 n=f6 v=31
391254 On ch=2 n=f6 v=0
391254 On ch=2 n=d6 v=0
391260 On ch=2 n=e6 v=29
391260 On ch=2 n=c#6 v=27
391314 On ch=2 n=c#6 v=0
391314 On ch=2 n=e6 v=0
391320 On ch=2 n=d6 v=26
391320 On ch=2 n=f6 v=28
391536 On ch=2 n=f6 v=0
391536 On ch=2 n=d6 v=0
392280 On ch=2 n=a#5 v=35
392319 On ch=2 n=f6 v=31
392359 On ch=2 n=a#6 v=33
392400 On ch=2 n=d7 v=35
392496 On ch=2 n=d7 v=0
392496 On ch=2 n=a#6 v=0
392496 On ch=2 n=f6 v=0
392496 On ch=2 n=a#5 v=0
392760 On ch=2 n=d7 v=31
392760 On ch=2 n=a#6 v=29
393174 On ch=2 n=a#6 v=0
393174 On ch=2 n=d7 v=0
393180 On ch=2 n=a6 v=27
393180 On ch=2 n=c#7 v=29
393234 On ch=2 n=c#7 v=0
393234 On ch=2 n=a6 v=0
393240 On ch=2 n=d7 v=23
393240 On ch=2 n=a#6 v=21
393240 Par ch=2 c=64 v=127
393456 On ch=2 n=a#6 v=0
393456 On ch=2 n=d7 v=0
396840 Par ch=2 c=64 v=0
396960 Par ch=2 c=64 v=127
399000 Par ch=2 c=64 v=0
414360 Par ch=2 c=64 v=127
415320 Par ch=2 c=64 v=0
415380 Par ch=2 c=64 v=127
416280 Par ch=2 c=64 v=0
416340 Par ch=2 c=64 v=127
417240 Par ch=2 c=64 v=0
417300 Par ch=2 c=64 v=127
418200 Par ch=2 c=64 v=0
418260 Par ch=2 c=64 v=127
419160 Par ch=2 c=64 v=0
419220 Par ch=2 c=64 v=127
420120 Par ch=2 c=64 v=0
420180 Par ch=2 c=64 v=127
421080 On ch=2 n=e4 v=97
421080 On ch=2 n=e3 v=99
421080 Par ch=2 c=64 v=0
421188 On ch=2 n=e3 v=0
421188 On ch=2 n=e4 v=0
421200 On ch=2 n=b3 v=90
421200 On ch=2 n=b2 v=92
421308 On ch=2 n=b2 v=0
421308 On ch=2 n=b3 v=0
421320 On ch=2 n=c#4 v=91
421320 On ch=2 n=c#3 v=93
421428 On ch=2 n=c#3 v=0
421428 On ch=2 n=c#4 v=0
421440 On ch=2 n=d#4 v=92
421440 On ch=2 n=d#3 v=94
421548 On ch=2 n=d#3 v=0
421548 On ch=2 n=d#4 v=0
421560 On ch=2 n=e4 v=93
421560 On ch=2 n=e3 v=95
421668 On ch=2 n=e3 v=0
421668 On ch=2 n=e4 v=0
421680 On ch=2 n=f#4 v=94
421680 On ch=2 n=f#3 v=96
421788 On ch=2 n=f#3 v=0
421788 On ch=2 n=f#4 v=0
421800 On ch=2 n=g#3 v=97
421800 On ch=2 n=g#4 v=95
421908 On ch=2 n=g#4 v=0
421908 On ch=2 n=g#3 v=0
421920 On ch=2 n=a4 v=96
421920 On ch=2 n=a3 v=98
422028 On ch=2 n=a3 v=0
422028 On ch=2 n=a4 v=0
422040 On ch=2 n=b3 v=99
422040 On ch=2 n=b4 v=97
422104 On ch=2 n=b4 v=0
422104 On ch=2 n=b3 v=0
422280 On ch=2 n=b4 v=90
422280 On ch=2 n=d#5 v=85
422280 On ch=2 n=f#5 v=83
422280 On ch=2 n=b5 v=88
422312 On ch=2 n=b5 v=0
422312 On ch=2 n=f#5 v=0
422312 On ch=2 n=d#5 v=0
422312 On ch=2 n=b4 v=0
422400 On ch=2 n=b4 v=88
422400 On ch=2 n=d#5 v=83
422400 On ch=2 n=f#5 v=81
422400 On ch=2 n=b5 v=86
422432 On ch=2 n=b5 v=0
422432 On ch=2 n=f#5 v=0
422432 On ch=2 n=d#5 v=0
422432 On ch=2 n=b4 v=0
422520 On ch=2 n=b4 v=92
422520 On ch=2 n=d#5 v=87
422520 On ch=2 n=f#5 v=85
422520 On ch=2 n=b5 v=90
422584 On ch=2 n=b5 v=0
422584 On ch=2 n=f#5 v=0
422584 On ch=2 n=d#5 v=0
422584 On ch=2 n=b4 v=0
422760 On ch=2 n=b4 v=95
422760 On ch=2 n=d#5 v=90
422760 On ch=2 n=f#5 v=88
422760 On ch=2 n=a5 v=93
422976 On ch=2 n=a5 v=0
422976 On ch=2 n=f#5 v=0
422976 On ch=2 n=d#5 v=0
422976 On ch=2 n=b4 v=0
423000 On ch=2 n=e3 v=99
423000 On ch=2 n=e4 v=97
423108 On ch=2 n=e4 v=0
423108 On ch=2 n=e3 v=0
423120 On ch=2 n=b2 v=92
423120 On ch=2 n=b3 v=90
423228 On ch=2 n=b3 v=0
423228 On ch=2 n=b2 v=0
423240 On ch=2 n=c#3 v=93
423240 On ch=2 n=c#4 v=91
423348 On ch=2 n=c#4 v=0
423348 On ch=2 n=c#3 v=0
423360 On ch=2 n=d#3 v=94
423360 On ch=2 n=d#4 v=92
423468 On ch=2 n=d#4 v=0
423468 On ch=2 n=d#3 v=0
423480 On ch=2 n=e3 v=95
423480 On ch=2 n=e4 v=93
423588 On ch=2 n=e4 v=0
423588 On ch=2 n=e3 v=0
423600 On ch=2 n=f#3 v=96
423600 On ch=2 n=f#4 v=94
423708 On ch=2 n=f#4 v=0
423708 On ch=2 n=f#3 v=0
423720 On ch=2 n=g#3 v=97
423720 On ch=2 n=g#4 v=95
423828 On ch=2 n=g#4 v=0
423828 On ch=2 n=g#3 v=0
423840 On ch=2 n=a3 v=98
423840 On ch=2 n=a4 v=96
423948 On ch=2 n=a4 v=0
423948 On ch=2 n=a3 v=0
423960 On ch=2 n=b3 v=99
423960 On ch=2 n=b4 v=97
424024 On ch=2 n=b4 v=0
424024 On ch=2 n=b3 v=0
424200 On ch=2 n=b4 v=90
424200 On ch=2 n=d#5 v=85
424200 On ch=2 n=f#5 v=83
424200 On ch=2 n=b5 v=88
424232 On ch=2 n=b5 v=0
424232 On ch=2 n=f#5 v=0
424232 On ch=2 n=d#5 v=0
424232 On ch=2 n=b4 v=0
424320 On ch=2 n=b4 v=88
424320 On ch=2 n=d#5 v=86
424320 On ch=2 n=f#5 v=81
424320 On ch=2 n=b5 v=86
424352 On ch=2 n=b5 v=0
424352 On ch=2 n=f#5 v=0
424352 On ch=2 n=d#5 v=0
424352 On ch=2 n=b4 v=0
424440 On ch=2 n=b4 v=92
424440 On ch=2 n=d#5 v=87
424440 On ch=2 n=f#5 v=85
424440 On ch=2 n=b5 v=90
424504 On ch=2 n=b5 v=0
424504 On ch=2 n=f#5 v=0
424504 On ch=2 n=d#5 v=0
424504 On ch=2 n=b4 v=0
424680 On ch=2 n=b4 v=95
424680 On ch=2 n=d#5 v=90
424680 On ch=2 n=f#5 v=88
424680 On ch=2 n=a5 v=93
424896 On ch=2 n=a5 v=0
424896 On ch=2 n=f#5 v=0
424896 On ch=2 n=d#5 v=0
424896 On ch=2 n=b4 v=0
424920 On ch=2 n=e3 v=99
424920 On ch=2 n=e4 v=97
425028 On ch=2 n=e4 v=0
425028 On ch=2 n=e3 v=0
425040 On ch=2 n=b2 v=92
425040 On ch=2 n=b3 v=90
425148 On ch=2 n=b3 v=0
425148 On ch=2 n=b2 v=0
425160 On ch=2 n=c#3 v=93
425160 On ch=2 n=c#4 v=91
425268 On ch=2 n=c#4 v=0
425268 On ch=2 n=c#3 v=0
425280 On ch=2 n=d#3 v=94
425280 On ch=2 n=d#4 v=92
425388 On ch=2 n=d#4 v=0
425388 On ch=2 n=d#3 v=0
425400 On ch=2 n=e3 v=95
425400 On ch=2 n=e4 v=93
425508 On ch=2 n=e4 v=0
425508 On ch=2 n=e3 v=0
425520 On ch=2 n=f#3 v=96
425520 On ch=2 n=f#4 v=94
425628 On ch=2 n=f#4 v=0
425628 On ch=2 n=f#3 v=0
425640 On ch=2 n=g#3 v=97
425640 On ch=2 n=g#4 v=95
425748 On ch=2 n=g#4 v=0
425748 On ch=2 n=g#3 v=0
425760 On ch=2 n=a3 v=98
425760 On ch=2 n=a4 v=96
425868 On ch=2 n=a4 v=0
425868 On ch=2 n=a3 v=0
425880 On ch=2 n=b3 v=99
425880 On ch=2 n=b4 v=97
425944 On ch=2 n=b4 v=0
425944 On ch=2 n=b3 v=0
426120 On ch=2 n=b4 v=90
426120 On ch=2 n=e5 v=85
426120 On ch=2 n=g#5 v=83
426120 On ch=2 n=b5 v=88
426152 On ch=2 n=b5 v=0
426152 On ch=2 n=g#5 v=0
426152 On ch=2 n=e5 v=0
426152 On ch=2 n=b4 v=0
426240 On ch=2 n=b4 v=88
426240 On ch=2 n=e5 v=83
426240 On ch=2 n=g#5 v=81
426240 On ch=2 n=b5 v=86
426272 On ch=2 n=b5 v=0
426272 On ch=2 n=g#5 v=0
426272 On ch=2 n=e5 v=0
426272 On ch=2 n=b4 v=0
426360 On ch=2 n=b4 v=92
426360 On ch=2 n=e5 v=87
426360 On ch=2 n=g#5 v=85
426360 On ch=2 n=b5 v=90
426424 On ch=2 n=b5 v=0
426424 On ch=2 n=g#5 v=0
426424 On ch=2 n=e5 v=0
426424 On ch=2 n=b4 v=0
426600 On ch=2 n=e4 v=95
426600 On ch=2 n=g#4 v=90
426600 On ch=2 n=b4 v=88
426600 On ch=2 n=e5 v=93
426816 On ch=2 n=e5 v=0
426816 On ch=2 n=b4 v=0
426816 On ch=2 n=g#4 v=0
426816 On ch=2 n=e4 v=0
426840 On ch=2 n=a4 v=97
426840 On ch=2 n=a3 v=99
426948 On ch=2 n=a3 v=0
426948 On ch=2 n=a4 v=0
426960 On ch=2 n=e3 v=92
426960 On ch=2 n=e4 v=90
427068 On ch=2 n=e4 v=0
427068 On ch=2 n=e3 v=0
427080 On ch=2 n=f#3 v=93
427080 On ch=2 n=f#4 v=91
427188 On ch=2 n=f#4 v=0
427188 On ch=2 n=f#3 v=0
427200 On ch=2 n=g#3 v=94
427200 On ch=2 n=g#4 v=92
427308 On ch=2 n=g#4 v=0
427308 On ch=2 n=g#3 v=0
427320 On ch=2 n=a3 v=95
427320 On ch=2 n=a4 v=93
427428 On ch=2 n=a4 v=0
427428 On ch=2 n=a3 v=0
427440 On ch=2 n=b3 v=96
427440 On ch=2 n=b4 v=94
427548 On ch=2 n=b4 v=0
427548 On ch=2 n=b3 v=0
427560 On ch=2 n=c#4 v=97
427560 On ch=2 n=c#5 v=95
427668 On ch=2 n=c#5 v=0
427668 On ch=2 n=c#4 v=0
427680 On ch=2 n=d#4 v=98
427680 On ch=2 n=d#5 v=96
427788 On ch=2 n=d#5 v=0
427788 On ch=2 n=d#4 v=0
427800 On ch=2 n=e4 v=99
427800 On ch=2 n=e5 v=97
427864 On ch=2 n=e5 v=0
427864 On ch=2 n=e4 v=0
428040 On ch=2 n=c#5 v=90
428040 On ch=2 n=e5 v=85
428040 On ch=2 n=a5 v=83
428040 On ch=2 n=c#6 v=88
428072 On ch=2 n=c#6 v=0
428072 On ch=2 n=a5 v=0
428072 On ch=2 n=e5 v=0
428072 On ch=2 n=c#5 v=0
428160 On ch=2 n=c#5 v=88
428160 On ch=2 n=e5 v=83
428160 On ch=2 n=a5 v=81
428160 On ch=2 n=c#6 v=86
428192 On ch=2 n=c#6 v=0
428192 On ch=2 n=a5 v=0
428192 On ch=2 n=e5 v=0
428192 On ch=2 n=c#5 v=0
428280 On ch=2 n=c#5 v=92
428280 On ch=2 n=e5 v=87
428280 On ch=2 n=a5 v=85
428280 On ch=2 n=c#6 v=90
428344 On ch=2 n=c#6 v=0
428344 On ch=2 n=a5 v=0
428344 On ch=2 n=e5 v=0
428344 On ch=2 n=c#5 v=0
428520 On ch=2 n=a4 v=95
428520 On ch=2 n=c#5 v=90
428520 On ch=2 n=e5 v=88
428520 On ch=2 n=a5 v=93
428736 On ch=2 n=a5 v=0
428736 On ch=2 n=e5 v=0
428736 On ch=2 n=c#5 v=0
428736 On ch=2 n=a4 v=0
428760 On ch=2 n=f#4 v=97
428760 On ch=2 n=f#3 v=99
428868 On ch=2 n=f#3 v=0
428868 On ch=2 n=f#4 v=0
428880 On ch=2 n=c#3 v=92
428880 On ch=2 n=c#4 v=90
428988 On ch=2 n=c#4 v=0
428988 On ch=2 n=c#3 v=0
429000 On ch=2 n=d#3 v=93
429000 On ch=2 n=d#4 v=91
429108 On ch=2 n=d#4 v=0
429108 On ch=2 n=d#3 v=0
429120 On ch=2 n=f3 v=94
429120 On ch=2 n=f4 v=92
429228 On ch=2 n=f4 v=0
429228 On ch=2 n=f3 v=0
429240 On ch=2 n=f#3 v=95
429240 On ch=2 n=f#4 v=93
429348 On ch=2 n=f#4 v=0
429348 On ch=2 n=f#3 v=0
429360 On ch=2 n=g#3 v=96
429360 On ch=2 n=g#4 v=94
429468 On ch=2 n=g#4 v=0
429468 On ch=2 n=g#3 v=0
429480 On ch=2 n=a3 v=97
429480 On ch=2 n=a4 v=95
429588 On ch=2 n=a4 v=0
429588 On ch=2 n=a3 v=0
429600 On ch=2 n=b3 v=98
429600 On ch=2 n=b4 v=96
429708 On ch=2 n=b4 v=0
429708 On ch=2 n=b3 v=0
429720 On ch=2 n=c#4 v=99
429720 On ch=2 n=c#5 v=97
429784 On ch=2 n=c#5 v=0
429784 On ch=2 n=c#4 v=0
429960 On ch=2 n=f5 v=85
429960 On ch=2 n=c#5 v=90
429960 On ch=2 n=g#5 v=83
429960 On ch=2 n=c#6 v=88
429992 On ch=2 n=c#6 v=0
429992 On ch=2 n=g#5 v=0
429992 On ch=2 n=c#5 v=0
429992 On ch=2 n=f5 v=0
430080 On ch=2 n=f5 v=83
430080 On ch=2 n=c#5 v=88
430080 On ch=2 n=g#5 v=81
430080 On ch=2 n=c#6 v=86
430112 On ch=2 n=c#6 v=0
430112 On ch=2 n=g#5 v=0
430112 On ch=2 n=c#5 v=0
430112 On ch=2 n=f5 v=0
430200 On ch=2 n=f5 v=87
430200 On ch=2 n=c#5 v=92
430200 On ch=2 n=g#5 v=85
430200 On ch=2 n=c#6 v=90
430264 On ch=2 n=c#6 v=0
430264 On ch=2 n=g#5 v=0
430264 On ch=2 n=c#5 v=0
430264 On ch=2 n=f5 v=0
430440 On ch=2 n=c#5 v=95
430440 On ch=2 n=g#5 v=88
430440 On ch=2 n=b5 v=93
430440 On ch=2 n=f5 v=90
430656 On ch=2 n=f5 v=0
430656 On ch=2 n=b5 v=0
430656 On ch=2 n=g#5 v=0
430656 On ch=2 n=c#5 v=0
430680 On ch=2 n=f#4 v=97
430680 On ch=2 n=f#3 v=99
430788 On ch=2 n=f#3 v=0
430788 On ch=2 n=f#4 v=0
430800 On ch=2 n=c#3 v=92
430800 On ch=2 n=c#4 v=90
430908 On ch=2 n=c#4 v=0
430908 On ch=2 n=c#3 v=0
430920 On ch=2 n=d#3 v=93
430920 On ch=2 n=d#4 v=91
431028 On ch=2 n=d#4 v=0
431028 On ch=2 n=d#3 v=0
431040 On ch=2 n=f3 v=94
431040 On ch=2 n=f4 v=92
431148 On ch=2 n=f4 v=0
431148 On ch=2 n=f3 v=0
431160 On ch=2 n=f#3 v=95
431160 On ch=2 n=f#4 v=93
431268 On ch=2 n=f#4 v=0
431268 On ch=2 n=f#3 v=0
431280 On ch=2 n=g#3 v=96
431280 On ch=2 n=g#4 v=94
431388 On ch=2 n=g#4 v=0
431388 On ch=2 n=g#3 v=0
431400 On ch=2 n=a3 v=97
431400 On ch=2 n=a4 v=95
431508 On ch=2 n=a4 v=0
431508 On ch=2 n=a3 v=0
431520 On ch=2 n=b3 v=98
431520 On ch=2 n=b4 v=96
431628 On ch=2 n=b4 v=0
431628 On ch=2 n=b3 v=0
431640 On ch=2 n=c#4 v=99
431640 On ch=2 n=c#5 v=97
431704 On ch=2 n=c#5 v=0
431704 On ch=2 n=c#4 v=0
431880 On ch=2 n=f5 v=85
431880 On ch=2 n=c#5 v=90
431880 On ch=2 n=g#5 v=83
431880 On ch=2 n=c#6 v=88
431912 On ch=2 n=c#6 v=0
431912 On ch=2 n=g#5 v=0
431912 On ch=2 n=c#5 v=0
431912 On ch=2 n=f5 v=0
432000 On ch=2 n=f5 v=83
432000 On ch=2 n=c#5 v=88
432000 On ch=2 n=g#5 v=81
432000 On ch=2 n=c#6 v=86
432032 On ch=2 n=c#6 v=0
432032 On ch=2 n=g#5 v=0
432032 On ch=2 n=c#5 v=0
432032 On ch=2 n=f5 v=0
432120 On ch=2 n=f5 v=87
432120 On ch=2 n=c#5 v=92
432120 On ch=2 n=g#5 v=85
432120 On ch=2 n=c#6 v=90
432184 On ch=2 n=c#6 v=0
432184 On ch=2 n=g#5 v=0
432184 On ch=2 n=c#5 v=0
432184 On ch=2 n=f5 v=0
432360 On ch=2 n=c#5 v=95
432360 On ch=2 n=g#5 v=88
432360 On ch=2 n=b5 v=93
432360 On ch=2 n=f5 v=90
432576 On ch=2 n=f5 v=0
432576 On ch=2 n=b5 v=0
432576 On ch=2 n=g#5 v=0
432576 On ch=2 n=c#5 v=0
432600 On ch=2 n=f#4 v=97
432600 On ch=2 n=f#3 v=99
432708 On ch=2 n=f#3 v=0
432708 On ch=2 n=f#4 v=0
432720 On ch=2 n=c#3 v=92
432720 On ch=2 n=c#4 v=90
432828 On ch=2 n=c#4 v=0
432828 On ch=2 n=c#3 v=0
432840 On ch=2 n=d#3 v=93
432840 On ch=2 n=d#4 v=91
432948 On ch=2 n=d#4 v=0
432948 On ch=2 n=d#3 v=0
432960 On ch=2 n=f3 v=94
432960 On ch=2 n=f4 v=92
433068 On ch=2 n=f4 v=0
433068 On ch=2 n=f3 v=0
433080 On ch=2 n=f#3 v=95
433080 On ch=2 n=f#4 v=93
433188 On ch=2 n=f#4 v=0
433188 On ch=2 n=f#3 v=0
433200 On ch=2 n=g#3 v=96
433200 On ch=2 n=g#4 v=94
433308 On ch=2 n=g#4 v=0
433308 On ch=2 n=g#3 v=0
433320 On ch=2 n=a3 v=97
433320 On ch=2 n=a4 v=95
433428 On ch=2 n=a4 v=0
433428 On ch=2 n=a3 v=0
433440 On ch=2 n=b3 v=98
433440 On ch=2 n=b4 v=96
433548 On ch=2 n=b4 v=0
433548 On ch=2 n=b3 v=0
433560 On ch=2 n=c#4 v=99
433560 On ch=2 n=c#5 v=97
433624 On ch=2 n=c#5 v=0
433624 On ch=2 n=c#4 v=0
433800 On ch=2 n=c#5 v=90
433800 On ch=2 n=f#5 v=85
433800 On ch=2 n=a5 v=83
433800 On ch=2 n=c#6 v=88
433832 On ch=2 n=c#6 v=0
433832 On ch=2 n=a5 v=0
433832 On ch=2 n=f#5 v=0
433832 On ch=2 n=c#5 v=0
433920 On ch=2 n=c#5 v=88
433920 On ch=2 n=f#5 v=83
433920 On ch=2 n=a5 v=81
433920 On ch=2 n=c#6 v=86
433952 On ch=2 n=c#6 v=0
433952 On ch=2 n=a5 v=0
433952 On ch=2 n=f#5 v=0
433952 On ch=2 n=c#5 v=0
434040 On ch=2 n=c#5 v=92
434040 On ch=2 n=f#5 v=87
434040 On ch=2 n=a5 v=85
434040 On ch=2 n=c#6 v=90
434104 On ch=2 n=c#6 v=0
434104 On ch=2 n=a5 v=0
434104 On ch=2 n=f#5 v=0
434104 On ch=2 n=c#5 v=0
434280 On ch=2 n=f#4 v=95
434280 On ch=2 n=a4 v=90
434280 On ch=2 n=c#5 v=88
434280 On ch=2 n=f#5 v=93
434496 On ch=2 n=f#5 v=0
434496 On ch=2 n=c#5 v=0
434496 On ch=2 n=a4 v=0
434496 On ch=2 n=f#4 v=0
434520 On ch=2 n=d4 v=97
434520 On ch=2 n=d3 v=99
434628 On ch=2 n=d3 v=0
434628 On ch=2 n=d4 v=0
434640 On ch=2 n=a2 v=92
434640 On ch=2 n=a3 v=90
434748 On ch=2 n=a3 v=0
434748 On ch=2 n=a2 v=0
434760 On ch=2 n=b2 v=93
434760 On ch=2 n=b3 v=91
434868 On ch=2 n=b3 v=0
434868 On ch=2 n=b2 v=0
434880 On ch=2 n=c#3 v=94
434880 On ch=2 n=c#4 v=92
434988 On ch=2 n=c#4 v=0
434988 On ch=2 n=c#3 v=0
435000 On ch=2 n=d3 v=95
435000 On ch=2 n=d4 v=93
435108 On ch=2 n=d4 v=0
435108 On ch=2 n=d3 v=0
435120 On ch=2 n=e3 v=96
435120 On ch=2 n=e4 v=94
435228 On ch=2 n=e4 v=0
435228 On ch=2 n=e3 v=0
435240 On ch=2 n=f#3 v=97
435240 On ch=2 n=f#4 v=95
435348 On ch=2 n=f#4 v=0
435348 On ch=2 n=f#3 v=0
435360 On ch=2 n=g#3 v=98
435360 On ch=2 n=g#4 v=96
435468 On ch=2 n=g#4 v=0
435468 On ch=2 n=g#3 v=0
435480 On ch=2 n=a3 v=99
435480 On ch=2 n=a4 v=97
435696 On ch=2 n=a4 v=0
435696 On ch=2 n=a3 v=0
435720 On ch=2 n=d5 v=90
435720 On ch=2 n=d6 v=88
435720 On ch=2 n=f#5 v=85
435720 On ch=2 n=a5 v=83
435752 On ch=2 n=a5 v=0
435752 On ch=2 n=f#5 v=0
435752 On ch=2 n=d6 v=0
435752 On ch=2 n=d5 v=0
435840 On ch=2 n=d6 v=86
435840 On ch=2 n=d5 v=88
435840 On ch=2 n=f#5 v=83
435840 On ch=2 n=a5 v=81
435872 On ch=2 n=a5 v=0
435872 On ch=2 n=f#5 v=0
435872 On ch=2 n=d5 v=0
435872 On ch=2 n=d6 v=0
435960 On ch=2 n=d6 v=90
435960 On ch=2 n=d5 v=92
435960 On ch=2 n=f#5 v=87
435960 On ch=2 n=a5 v=85
436024 On ch=2 n=a5 v=0
436024 On ch=2 n=f#5 v=0
436024 On ch=2 n=d5 v=0
436024 On ch=2 n=d6 v=0
436680 On ch=2 n=d4 v=93
436680 On ch=2 n=d3 v=95
436712 On ch=2 n=d3 v=0
436712 On ch=2 n=d4 v=0
436800 On ch=2 n=c#3 v=93
436800 On ch=2 n=c#4 v=91
436832 On ch=2 n=c#4 v=0
436832 On ch=2 n=c#3 v=0
436920 On ch=2 n=d4 v=105
436920 On ch=2 n=d3 v=107
437136 On ch=2 n=d3 v=0
437136 On ch=2 n=d4 v=0
437160 On ch=2 n=c4 v=101
437160 On ch=2 n=c3 v=103
437376 On ch=2 n=c3 v=0
437376 On ch=2 n=c4 v=0
437400 On ch=2 n=b2 v=115
437400 On ch=2 n=b3 v=113
437400 Par ch=2 c=64 v=127
437616 On ch=2 n=b3 v=0
437616 On ch=2 n=b2 v=0
437640 On ch=2 n=g#4 v=111
437640 On ch=2 n=b4 v=109
437856 On ch=2 n=b4 v=0
437856 On ch=2 n=g#4 v=0
437880 On ch=2 n=b2 v=113
437880 On ch=2 n=b3 v=111
437880 Par ch=2 c=64 v=0
438096 On ch=2 n=b3 v=0
438096 On ch=2 n=b2 v=0
438120 On ch=2 n=c3 v=114
438120 On ch=2 n=c4 v=112
438336 On ch=2 n=c4 v=0
438336 On ch=2 n=c3 v=0
438360 On ch=2 n=c#3 v=115
438360 On ch=2 n=c#4 v=113
438360 Par ch=2 c=64 v=127
438576 On ch=2 n=c#4 v=0
438576 On ch=2 n=c#3 v=0
438600 On ch=2 n=d#3 v=111
438600 On ch=2 n=d#4 v=109
438816 On ch=2 n=d#4 v=0
438816 On ch=2 n=d#3 v=0
438840 On ch=2 n=e3 v=113
438840 On ch=2 n=e4 v=111
438840 Par ch=2 c=64 v=0
439056 On ch=2 n=e4 v=0
439056 On ch=2 n=e3 v=0
439080 On ch=2 n=f#3 v=111
439080 On ch=2 n=f#4 v=109
439188 On ch=2 n=f#4 v=0
439188 On ch=2 n=f#3 v=0
439200 On ch=2 n=f#3 v=113
439200 On ch=2 n=f#4 v=111
439308 On ch=2 n=f#4 v=0
439308 On ch=2 n=f#3 v=0
439320 On ch=2 n=g#3 v=115
439320 On ch=2 n=g#4 v=113
439428 On ch=2 n=g#4 v=0
439428 On ch=2 n=g#3 v=0
439440 On ch=2 n=e4 v=113
439440 On ch=2 n=g#4 v=108
439440 On ch=2 n=c#5 v=106
439548 On ch=2 n=c#5 v=0
439548 On ch=2 n=g#4 v=0
439548 On ch=2 n=e4 v=0
439560 On ch=2 n=e4 v=111
439560 On ch=2 n=g#4 v=106
439560 On ch=2 n=c#5 v=104
439776 On ch=2 n=c#5 v=0
439776 On ch=2 n=g#4 v=0
439776 On ch=2 n=e4 v=0
439800 On ch=2 n=g#3 v=113
439800 On ch=2 n=g#4 v=111
439864 On ch=2 n=g#4 v=0
439864 On ch=2 n=g#3 v=0
440040 On ch=2 n=c5 v=104
440040 On ch=2 n=f#4 v=111
440040 On ch=2 n=g#4 v=106
440104 On ch=2 n=g#4 v=0
440104 On ch=2 n=f#4 v=0
440104 On ch=2 n=c5 v=0
440280 On ch=2 n=c#4 v=115
440280 On ch=2 n=e4 v=110
440280 On ch=2 n=g#4 v=108
440280 On ch=2 n=c#5 v=113
440280 Par ch=2 c=64 v=127
440344 On ch=2 n=c#5 v=0
440344 On ch=2 n=g#4 v=0
440344 On ch=2 n=e4 v=0
440344 On ch=2 n=c#4 v=0
440520 On ch=2 n=d#5 v=109
440520 Par ch=2 c=64 v=0
440571 On ch=2 n=c#5 v=110
440574 On ch=2 n=d#5 v=0
440622 On ch=2 n=b4 v=111
440625 On ch=2 n=c#5 v=0
440674 On ch=2 n=a4 v=112
440676 On ch=2 n=b4 v=0
440725 On ch=2 n=g#4 v=113
440728 On ch=2 n=a4 v=0
440777 On ch=2 n=f#4 v=114
440779 On ch=2 n=g#4 v=0
440828 On ch=2 n=e4 v=115
440831 On ch=2 n=f#4 v=0
440879 On ch=2 n=d#4 v=116
440882 On ch=2 n=e4 v=0
440931 On ch=2 n=c#4 v=117
440933 On ch=2 n=d#4 v=0
440982 On ch=2 n=b3 v=118
440985 On ch=2 n=c#4 v=0
441034 On ch=2 n=a3 v=119
441036 On ch=2 n=b3 v=0
441085 On ch=2 n=g#3 v=120
441088 On ch=2 n=a3 v=0
441137 On ch=2 n=f#3 v=121
441139 On ch=2 n=g#3 v=0
441191 On ch=2 n=f#3 v=0
441240 On ch=2 n=b2 v=122
441240 On ch=2 n=b3 v=120
441240 Par ch=2 c=64 v=127
441456 On ch=2 n=b3 v=0
441456 On ch=2 n=b2 v=0
441480 On ch=2 n=g#4 v=118
441480 On ch=2 n=b4 v=116
441696 On ch=2 n=b4 v=0
441696 On ch=2 n=g#4 v=0
441720 On ch=2 n=b2 v=120
441720 On ch=2 n=b3 v=118
441720 Par ch=2 c=64 v=0
441936 On ch=2 n=b3 v=0
441936 On ch=2 n=b2 v=0
441960 On ch=2 n=c3 v=118
441960 On ch=2 n=c4 v=116
442176 On ch=2 n=c4 v=0
442176 On ch=2 n=c3 v=0
442200 On ch=2 n=c#3 v=122
442200 On ch=2 n=c#4 v=120
442200 Par ch=2 c=64 v=127
442416 On ch=2 n=c#4 v=0
442416 On ch=2 n=c#3 v=0
442440 On ch=2 n=d#3 v=118
442440 On ch=2 n=d#4 v=116
442656 On ch=2 n=d#4 v=0
442656 On ch=2 n=d#3 v=0
442680 On ch=2 n=e3 v=120
442680 On ch=2 n=e4 v=118
442680 Par ch=2 c=64 v=0
442896 On ch=2 n=e4 v=0
442896 On ch=2 n=e3 v=0
442920 On ch=2 n=f#3 v=118
442920 On ch=2 n=f#4 v=116
443028 On ch=2 n=f#4 v=0
443028 On ch=2 n=f#3 v=0
443040 On ch=2 n=f#3 v=120
443040 On ch=2 n=f#4 v=118
443148 On ch=2 n=f#4 v=0
443148 On ch=2 n=f#3 v=0
443160 On ch=2 n=g#3 v=122
443160 On ch=2 n=g#4 v=120
443268 On ch=2 n=g#4 v=0
443268 On ch=2 n=g#3 v=0
443280 On ch=2 n=g#4 v=120
443280 On ch=2 n=c#5 v=115
443280 On ch=2 n=e5 v=113
443388 On ch=2 n=e5 v=0
443388 On ch=2 n=c#5 v=0
443388 On ch=2 n=g#4 v=0
443400 On ch=2 n=g#4 v=118
443400 On ch=2 n=c#5 v=113
443400 On ch=2 n=e5 v=111
443616 On ch=2 n=e5 v=0
443616 On ch=2 n=c#5 v=0
443616 On ch=2 n=g#4 v=0
443640 On ch=2 n=g#3 v=120
443640 On ch=2 n=g#4 v=118
443704 On ch=2 n=g#4 v=0
443704 On ch=2 n=g#3 v=0
443880 On ch=2 n=c5 v=113
443880 On ch=2 n=g#4 v=118
443880 On ch=2 n=d#5 v=111
443880 On ch=2 n=g#5 v=116
443944 On ch=2 n=g#5 v=0
443944 On ch=2 n=d#5 v=0
443944 On ch=2 n=g#4 v=0
443944 On ch=2 n=c5 v=0
444120 On ch=2 n=g#3 v=122
444120 On ch=2 n=g#4 v=120
444228 On ch=2 n=g#4 v=0
444228 On ch=2 n=g#3 v=0
444240 On ch=2 n=e4 v=120
444240 On ch=2 n=g#4 v=115
444240 On ch=2 n=c#5 v=113
444348 On ch=2 n=c#5 v=0
444348 On ch=2 n=g#4 v=0
444348 On ch=2 n=e4 v=0
444360 On ch=2 n=e4 v=118
444360 On ch=2 n=g#4 v=113
444360 On ch=2 n=c#5 v=111
444576 On ch=2 n=c#5 v=0
444576 On ch=2 n=g#4 v=0
444576 On ch=2 n=e4 v=0
444600 On ch=2 n=g#3 v=120
444600 On ch=2 n=g#4 v=118
444664 On ch=2 n=g#4 v=0
444664 On ch=2 n=g#3 v=0
444840 On ch=2 n=c5 v=109
444840 On ch=2 n=f#4 v=116
444840 On ch=2 n=g#4 v=111
444904 On ch=2 n=g#4 v=0
444904 On ch=2 n=f#4 v=0
444904 On ch=2 n=c5 v=0
445080 On ch=2 n=e4 v=118
445080 On ch=2 n=e3 v=120
445112 On ch=2 n=e3 v=0
445112 On ch=2 n=e4 v=0
445200 On ch=2 n=d#3 v=118
445200 On ch=2 n=d#4 v=116
445232 On ch=2 n=d#4 v=0
445232 On ch=2 n=d#3 v=0
445320 On ch=2 n=c#4 v=114
445320 On ch=2 n=c#3 v=116
445384 On ch=2 n=c#3 v=0
445384 On ch=2 n=c#4 v=0
445560 On ch=2 n=g#3 v=118
445560 On ch=2 n=g#4 v=116
445560 Par ch=2 c=64 v=127
445624 On ch=2 n=g#4 v=0
445624 On ch=2 n=g#3 v=0
445800 On ch=2 n=g#3 v=113
445800 On ch=2 n=g#2 v=115
445864 On ch=2 n=g#2 v=0
445864 On ch=2 n=g#3 v=0
446280 On ch=2 n=g#4 v=118
446280 On ch=2 n=g#3 v=120
446496 On ch=2 n=g#3 v=0
446496 On ch=2 n=g#4 v=0
446760 On ch=2 n=g#5 v=118
446760 On ch=2 n=g#4 v=120
446940 Par ch=2 c=64 v=0
446976 On ch=2 n=g#4 v=0
446976 On ch=2 n=g#5 v=0
447000 On ch=2 n=g#5 v=51
447000 On ch=2 n=e5 v=41
447000 On ch=2 n=d5 v=39
447064 On ch=2 n=d5 v=0
447064 On ch=2 n=e5 v=0
447064 On ch=2 n=g#5 v=0
447240 On ch=2 n=e4 v=42
447304 On ch=2 n=e4 v=0
447480 On ch=2 n=d5 v=37
447480 On ch=2 n=e5 v=39
447480 On ch=2 n=g#5 v=44
447544 On ch=2 n=g#5 v=0
447544 On ch=2 n=e5 v=0
447544 On ch=2 n=d5 v=0
447720 On ch=2 n=d5 v=33
447720 On ch=2 n=f#5 v=35
447720 On ch=2 n=a5 v=45
447784 On ch=2 n=a5 v=0
447784 On ch=2 n=f#5 v=0
447784 On ch=2 n=d5 v=0
447960 On ch=2 n=d5 v=39
447960 On ch=2 n=g#5 v=41
447960 On ch=2 n=b5 v=51
448024 On ch=2 n=b5 v=0
448024 On ch=2 n=g#5 v=0
448024 On ch=2 n=d5 v=0
448200 On ch=2 n=e4 v=42
448264 On ch=2 n=e4 v=0
448440 On ch=2 n=d5 v=37
448440 On ch=2 n=g#5 v=39
448440 On ch=2 n=b5 v=49
448504 On ch=2 n=b5 v=0
448504 On ch=2 n=g#5 v=0
448504 On ch=2 n=d5 v=0
448680 On ch=2 n=e4 v=40
448744 On ch=2 n=e4 v=0
448920 On ch=2 n=d5 v=39
448920 On ch=2 n=b5 v=51
448920 On ch=2 n=g#5 v=41
448984 On ch=2 n=g#5 v=0
448984 On ch=2 n=b5 v=0
448984 On ch=2 n=d5 v=0
449160 On ch=2 n=e4 v=42
449224 On ch=2 n=e4 v=0
449400 On ch=2 n=d5 v=37
449400 On ch=2 n=g#5 v=39
449400 On ch=2 n=b5 v=44
449464 On ch=2 n=b5 v=0
449464 On ch=2 n=g#5 v=0
449464 On ch=2 n=d5 v=0
449640 On ch=2 n=d5 v=33
449640 On ch=2 n=c6 v=45
449640 On ch=2 n=g#5 v=35
449704 On ch=2 n=g#5 v=0
449704 On ch=2 n=c6 v=0
449704 On ch=2 n=d5 v=0
449880 On ch=2 n=c#5 v=39
449880 On ch=2 n=a5 v=41
449880 On ch=2 n=c#6 v=51
449944 On ch=2 n=c#6 v=0
449944 On ch=2 n=a5 v=0
449944 On ch=2 n=c#5 v=0
450120 On ch=2 n=e4 v=42
450184 On ch=2 n=e4 v=0
450360 On ch=2 n=c#5 v=37
450360 On ch=2 n=f#5 v=39
450360 On ch=2 n=a5 v=49
450424 On ch=2 n=a5 v=0
450424 On ch=2 n=f#5 v=0
450424 On ch=2 n=c#5 v=0
450600 On ch=2 n=c#5 v=33
450600 On ch=2 n=e5 v=35
450600 On ch=2 n=g#5 v=45
450664 On ch=2 n=g#5 v=0
450664 On ch=2 n=e5 v=0
450664 On ch=2 n=c#5 v=0
450840 On ch=2 n=c5 v=41
450840 On ch=2 n=f#5 v=51
450840 On ch=2 n=a4 v=39
450904 On ch=2 n=a4 v=0
450904 On ch=2 n=f#5 v=0
450904 On ch=2 n=c5 v=0
451080 On ch=2 n=e4 v=42
451144 On ch=2 n=e4 v=0
451320 On ch=2 n=c5 v=39
451320 On ch=2 n=a4 v=37
451320 On ch=2 n=f#5 v=49
451384 On ch=2 n=f#5 v=0
451384 On ch=2 n=a4 v=0
451384 On ch=2 n=c5 v=0
451560 On ch=2 n=c5 v=35
451560 On ch=2 n=f5 v=45
451560 On ch=2 n=a4 v=33
451624 On ch=2 n=a4 v=0
451624 On ch=2 n=f5 v=0
451624 On ch=2 n=c5 v=0
451800 On ch=2 n=c5 v=41
451800 On ch=2 n=a4 v=39
451800 On ch=2 n=f#5 v=51
451864 On ch=2 n=f#5 v=0
451864 On ch=2 n=a4 v=0
451864 On ch=2 n=c5 v=0
452040 On ch=2 n=e4 v=42
452104 On ch=2 n=e4 v=0
452280 On ch=2 n=a4 v=44
452344 On ch=2 n=a4 v=0
452520 On ch=2 n=c5 v=40
452584 On ch=2 n=c5 v=0
452760 On ch=2 n=c5 v=41
452760 On ch=2 n=a4 v=39
452760 On ch=2 n=f#5 v=51
452824 On ch=2 n=f#5 v=0
452824 On ch=2 n=a4 v=0
452824 On ch=2 n=c5 v=0
453000 On ch=2 n=e4 v=42
453064 On ch=2 n=e4 v=0
453240 On ch=2 n=c5 v=39
453240 On ch=2 n=a4 v=37
453240 On ch=2 n=f#5 v=47
453304 On ch=2 n=f#5 v=0
453304 On ch=2 n=a4 v=0
453304 On ch=2 n=c5 v=0
453480 On ch=2 n=c5 v=33
453480 On ch=2 n=e5 v=35
453480 On ch=2 n=g#5 v=49
453544 On ch=2 n=g#5 v=0
453544 On ch=2 n=e5 v=0
453544 On ch=2 n=c5 v=0
453720 On ch=2 n=a5 v=51
453720 On ch=2 n=d#5 v=41
453720 On ch=2 n=c5 v=39
453784 On ch=2 n=c5 v=0
453784 On ch=2 n=d#5 v=0
453784 On ch=2 n=a5 v=0
453960 On ch=2 n=e4 v=42
454024 On ch=2 n=e4 v=0
454200 On ch=2 n=a5 v=49
454200 On ch=2 n=d#5 v=39
454200 On ch=2 n=c5 v=37
454264 On ch=2 n=c5 v=0
454264 On ch=2 n=d#5 v=0
454264 On ch=2 n=a5 v=0
454440 On ch=2 n=e4 v=40
454504 On ch=2 n=e4 v=0
454680 On ch=2 n=c5 v=39
454680 On ch=2 n=d#5 v=41
454680 On ch=2 n=a5 v=51
454744 On ch=2 n=a5 v=0
454744 On ch=2 n=d#5 v=0
454744 On ch=2 n=c5 v=0
454920 On ch=2 n=e4 v=42
454984 On ch=2 n=e4 v=0
455160 On ch=2 n=c5 v=37
455160 On ch=2 n=d#5 v=39
455160 On ch=2 n=a5 v=47
455224 On ch=2 n=a5 v=0
455224 On ch=2 n=d#5 v=0
455224 On ch=2 n=c5 v=0
455400 On ch=2 n=g5 v=35
455400 On ch=2 n=a#5 v=49
455400 On ch=2 n=c#5 v=33
455464 On ch=2 n=c#5 v=0
455464 On ch=2 n=a#5 v=0
455464 On ch=2 n=g5 v=0
455640 On ch=2 n=b5 v=51
455640 On ch=2 n=f#5 v=41
455640 On ch=2 n=b4 v=39
455704 On ch=2 n=b4 v=0
455704 On ch=2 n=f#5 v=0
455704 On ch=2 n=b5 v=0
455880 On ch=2 n=e4 v=42
455944 On ch=2 n=e4 v=0
456120 On ch=2 n=a4 v=37
456120 On ch=2 n=b4 v=39
456120 On ch=2 n=d#5 v=49
456184 On ch=2 n=d#5 v=0
456184 On ch=2 n=b4 v=0
456184 On ch=2 n=a4 v=0
456360 On ch=2 n=e4 v=40
456424 On ch=2 n=e4 v=0
456600 On ch=2 n=g#4 v=39
456600 On ch=2 n=b4 v=41
456600 On ch=2 n=e5 v=51
456664 On ch=2 n=e5 v=0
456664 On ch=2 n=b4 v=0
456664 On ch=2 n=g#4 v=0
456840 On ch=2 n=e4 v=42
456904 On ch=2 n=e4 v=0
457080 On ch=2 n=g#4 v=37
457080 On ch=2 n=b4 v=39
457080 On ch=2 n=e5 v=49
457144 On ch=2 n=e5 v=0
457144 On ch=2 n=b4 v=0
457144 On ch=2 n=g#4 v=0
457320 On ch=2 n=g#4 v=33
457320 On ch=2 n=b4 v=35
457320 On ch=2 n=d#5 v=45
457384 On ch=2 n=d#5 v=0
457384 On ch=2 n=b4 v=0
457384 On ch=2 n=g#4 v=0
457560 On ch=2 n=e5 v=48
457560 On ch=2 n=b4 v=41
457560 On ch=2 n=g#4 v=39
457624 On ch=2 n=g#4 v=0
457624 On ch=2 n=b4 v=0
457624 On ch=2 n=e5 v=0
457800 On ch=2 n=e4 v=42
457864 On ch=2 n=e4 v=0
458520 On ch=2 n=e3 v=78
458520 On ch=2 n=e4 v=76
458736 On ch=2 n=e4 v=0
458736 On ch=2 n=e3 v=0
458760 On ch=2 n=e5 v=52
458760 On ch=2 n=d5 v=54
458976 On ch=2 n=d5 v=0
458976 On ch=2 n=e5 v=0
459000 On ch=2 n=b3 v=76
459000 On ch=2 n=b4 v=74
459216 On ch=2 n=b4 v=0
459216 On ch=2 n=b3 v=0
459240 On ch=2 n=e5 v=50
459240 On ch=2 n=d5 v=52
459456 On ch=2 n=d5 v=0
459456 On ch=2 n=e5 v=0
459480 On ch=2 n=e3 v=78
459480 On ch=2 n=e4 v=76
459696 On ch=2 n=e4 v=0
459696 On ch=2 n=e3 v=0
459720 On ch=2 n=e5 v=52
459720 On ch=2 n=d5 v=54
459936 On ch=2 n=d5 v=0
459936 On ch=2 n=e5 v=0
459960 On ch=2 n=b3 v=76
459960 On ch=2 n=b4 v=74
460176 On ch=2 n=b4 v=0
460176 On ch=2 n=b3 v=0
460200 On ch=2 n=e5 v=50
460200 On ch=2 n=d5 v=52
460416 On ch=2 n=d5 v=0
460416 On ch=2 n=e5 v=0
460440 On ch=2 n=e3 v=78
460440 On ch=2 n=e4 v=76
460656 On ch=2 n=e4 v=0
460656 On ch=2 n=e3 v=0
460680 On ch=2 n=e5 v=52
460680 On ch=2 n=d5 v=54
460896 On ch=2 n=d5 v=0
460896 On ch=2 n=e5 v=0
460920 On ch=2 n=b3 v=76
460920 On ch=2 n=b4 v=74
461136 On ch=2 n=b4 v=0
461136 On ch=2 n=b3 v=0
461160 On ch=2 n=e5 v=50
461160 On ch=2 n=d5 v=52
461376 On ch=2 n=d5 v=0
461376 On ch=2 n=e5 v=0
461400 On ch=2 n=e3 v=78
461400 On ch=2 n=e4 v=76
461616 On ch=2 n=e4 v=0
461616 On ch=2 n=e3 v=0
461640 On ch=2 n=c#5 v=54
461640 On ch=2 n=e5 v=52
461856 On ch=2 n=e5 v=0
461856 On ch=2 n=c#5 v=0
461880 On ch=2 n=a3 v=76
461880 On ch=2 n=a4 v=74
462096 On ch=2 n=a4 v=0
462096 On ch=2 n=a3 v=0
462120 On ch=2 n=c#5 v=52
462120 On ch=2 n=e5 v=50
462336 On ch=2 n=e5 v=0
462336 On ch=2 n=c#5 v=0
462360 On ch=2 n=e3 v=78
462360 On ch=2 n=e4 v=76
462576 On ch=2 n=e4 v=0
462576 On ch=2 n=e3 v=0
462600 On ch=2 n=d#5 v=52
462600 On ch=2 n=c5 v=54
462816 On ch=2 n=c5 v=0
462816 On ch=2 n=d#5 v=0
462840 On ch=2 n=a3 v=76
462840 On ch=2 n=a4 v=74
463056 On ch=2 n=a4 v=0
463056 On ch=2 n=a3 v=0
463080 On ch=2 n=d#5 v=50
463080 On ch=2 n=c5 v=52
463296 On ch=2 n=c5 v=0
463296 On ch=2 n=d#5 v=0
463320 On ch=2 n=e3 v=78
463320 On ch=2 n=e4 v=76
463536 On ch=2 n=e4 v=0
463536 On ch=2 n=e3 v=0
463560 On ch=2 n=c5 v=54
463560 On ch=2 n=d#5 v=52
463776 On ch=2 n=d#5 v=0
463776 On ch=2 n=c5 v=0
463800 On ch=2 n=a3 v=76
463800 On ch=2 n=a4 v=74
464016 On ch=2 n=a4 v=0
464016 On ch=2 n=a3 v=0
464040 On ch=2 n=c5 v=52
464040 On ch=2 n=d#5 v=50
464256 On ch=2 n=d#5 v=0
464256 On ch=2 n=c5 v=0
464280 On ch=2 n=e3 v=78
464280 On ch=2 n=e4 v=76
464496 On ch=2 n=e4 v=0
464496 On ch=2 n=e3 v=0
464520 On ch=2 n=c5 v=54
464520 On ch=2 n=d#5 v=52
464736 On ch=2 n=d#5 v=0
464736 On ch=2 n=c5 v=0
464760 On ch=2 n=a3 v=76
464760 On ch=2 n=a4 v=74
464976 On ch=2 n=a4 v=0
464976 On ch=2 n=a3 v=0
465000 On ch=2 n=c5 v=52
465000 On ch=2 n=d#5 v=50
465216 On ch=2 n=d#5 v=0
465216 On ch=2 n=c5 v=0
465240 On ch=2 n=e3 v=78
465240 On ch=2 n=e4 v=76
465456 On ch=2 n=e4 v=0
465456 On ch=2 n=e3 v=0
465480 On ch=2 n=c5 v=54
465480 On ch=2 n=d#5 v=52
465696 On ch=2 n=d#5 v=0
465696 On ch=2 n=c5 v=0
465720 On ch=2 n=a3 v=76
465720 On ch=2 n=a4 v=74
465936 On ch=2 n=a4 v=0
465936 On ch=2 n=a3 v=0
465960 On ch=2 n=c5 v=52
465960 On ch=2 n=d#5 v=50
466176 On ch=2 n=d#5 v=0
466176 On ch=2 n=c5 v=0
466200 On ch=2 n=e3 v=78
466200 On ch=2 n=e4 v=76
466416 On ch=2 n=e4 v=0
466416 On ch=2 n=e3 v=0
466440 On ch=2 n=c5 v=54
466440 On ch=2 n=d#5 v=52
466656 On ch=2 n=d#5 v=0
466656 On ch=2 n=c5 v=0
466680 On ch=2 n=g3 v=76
466680 On ch=2 n=g4 v=74
466896 On ch=2 n=g4 v=0
466896 On ch=2 n=g3 v=0
466920 On ch=2 n=c#5 v=50
466920 On ch=2 n=a#4 v=52
467136 On ch=2 n=a#4 v=0
467136 On ch=2 n=c#5 v=0
467160 On ch=2 n=e3 v=78
467160 On ch=2 n=e4 v=76
467376 On ch=2 n=e4 v=0
467376 On ch=2 n=e3 v=0
467400 On ch=2 n=b4 v=52
467400 On ch=2 n=a4 v=54
467616 On ch=2 n=a4 v=0
467616 On ch=2 n=b4 v=0
467640 On ch=2 n=f#3 v=76
467640 On ch=2 n=f#4 v=74
467856 On ch=2 n=f#4 v=0
467856 On ch=2 n=f#3 v=0
467880 On ch=2 n=a4 v=52
467880 On ch=2 n=b4 v=50
468096 On ch=2 n=b4 v=0
468096 On ch=2 n=a4 v=0
468120 On ch=2 n=e3 v=78
468120 On ch=2 n=e4 v=76
468336 On ch=2 n=e4 v=0
468336 On ch=2 n=e3 v=0
468600 On ch=2 n=e4 v=74
468600 On ch=2 n=g#4 v=69
468600 On ch=2 n=b4 v=71
468600 On ch=2 n=e5 v=76
468664 On ch=2 n=e5 v=0
468664 On ch=2 n=b4 v=0
468664 On ch=2 n=g#4 v=0
468664 On ch=2 n=e4 v=0
468840 On ch=2 n=e4 v=72
468840 On ch=2 n=g#4 v=67
468840 On ch=2 n=b4 v=69
468840 On ch=2 n=d#5 v=74
468904 On ch=2 n=d#5 v=0
468904 On ch=2 n=b4 v=0
468904 On ch=2 n=g#4 v=0
468904 On ch=2 n=e4 v=0
469080 On ch=2 n=g4 v=71
469080 On ch=2 n=c5 v=73
469080 On ch=2 n=e4 v=76
469080 On ch=2 n=e5 v=78
469144 On ch=2 n=e5 v=0
469144 On ch=2 n=e4 v=0
469144 On ch=2 n=c5 v=0
469144 On ch=2 n=g4 v=0
469560 On ch=2 n=c4 v=74
469560 On ch=2 n=c3 v=76
469624 On ch=2 n=c3 v=0
469624 On ch=2 n=c4 v=0
469800 On ch=2 n=a2 v=74
469800 On ch=2 n=a3 v=72
469864 On ch=2 n=a3 v=0
469864 On ch=2 n=a2 v=0
470040 On ch=2 n=e3 v=78
470040 On ch=2 n=e4 v=76
470104 On ch=2 n=e4 v=0
470104 On ch=2 n=e3 v=0
470520 On ch=2 n=e4 v=74
470520 On ch=2 n=g#4 v=69
470520 On ch=2 n=b4 v=71
470520 On ch=2 n=e5 v=76
470584 On ch=2 n=e5 v=0
470584 On ch=2 n=b4 v=0
470584 On ch=2 n=g#4 v=0
470584 On ch=2 n=e4 v=0
470760 On ch=2 n=e4 v=72
470760 On ch=2 n=g#4 v=67
470760 On ch=2 n=b4 v=69
470760 On ch=2 n=d#5 v=74
470824 On ch=2 n=d#5 v=0
470824 On ch=2 n=b4 v=0
470824 On ch=2 n=g#4 v=0
470824 On ch=2 n=e4 v=0
471000 On ch=2 n=g4 v=71
471000 On ch=2 n=c5 v=73
471000 On ch=2 n=e4 v=76
471000 On ch=2 n=e5 v=78
471064 On ch=2 n=e5 v=0
471064 On ch=2 n=e4 v=0
471064 On ch=2 n=c5 v=0
471064 On ch=2 n=g4 v=0
471480 On ch=2 n=c3 v=76
471480 On ch=2 n=c4 v=74
471544 On ch=2 n=c4 v=0
471544 On ch=2 n=c3 v=0
471720 On ch=2 n=a2 v=74
471720 On ch=2 n=a3 v=72
471936 On ch=2 n=a3 v=0
471936 On ch=2 n=a2 v=0
471960 On ch=2 n=e3 v=78
471960 On ch=2 n=e4 v=76
472024 On ch=2 n=e4 v=0
472024 On ch=2 n=e3 v=0
472440 On ch=2 n=e4 v=74
472440 On ch=2 n=g#4 v=69
472440 On ch=2 n=b4 v=71
472440 On ch=2 n=e5 v=76
472504 On ch=2 n=e5 v=0
472504 On ch=2 n=b4 v=0
472504 On ch=2 n=g#4 v=0
472504 On ch=2 n=e4 v=0
472680 On ch=2 n=e4 v=72
472680 On ch=2 n=g#4 v=67
472680 On ch=2 n=b4 v=69
472680 On ch=2 n=d#5 v=74
472744 On ch=2 n=d#5 v=0
472744 On ch=2 n=b4 v=0
472744 On ch=2 n=g#4 v=0
472744 On ch=2 n=e4 v=0
472920 On ch=2 n=g4 v=71
472920 On ch=2 n=c5 v=73
472920 On ch=2 n=e4 v=76
472920 On ch=2 n=e5 v=78
472984 On ch=2 n=e5 v=0
472984 On ch=2 n=e4 v=0
472984 On ch=2 n=c5 v=0
472984 On ch=2 n=g4 v=0
473400 On ch=2 n=c3 v=76
473400 On ch=2 n=c4 v=74
473464 On ch=2 n=c4 v=0
473464 On ch=2 n=c3 v=0
473640 On ch=2 n=a2 v=74
473640 On ch=2 n=a3 v=72
473704 On ch=2 n=a3 v=0
473704 On ch=2 n=a2 v=0
473880 On ch=2 n=e4 v=76
473880 On ch=2 n=e3 v=78
473944 On ch=2 n=e3 v=0
473944 On ch=2 n=e4 v=0
474360 On ch=2 n=c4 v=80
474360 On ch=2 n=c3 v=82
474424 On ch=2 n=c3 v=0
474424 On ch=2 n=c4 v=0
474600 On ch=2 n=a2 v=84
474600 On ch=2 n=a3 v=82
474664 On ch=2 n=a3 v=0
474664 On ch=2 n=a2 v=0
474840 On ch=2 n=e4 v=84
474840 On ch=2 n=e3 v=86
474904 On ch=2 n=e3 v=0
474904 On ch=2 n=e4 v=0
475320 On ch=2 n=c4 v=88
475320 On ch=2 n=c3 v=90
475384 On ch=2 n=c3 v=0
475384 On ch=2 n=c4 v=0
475560 On ch=2 n=a3 v=90
475560 On ch=2 n=a2 v=92
475624 On ch=2 n=a2 v=0
475624 On ch=2 n=a3 v=0
475800 On ch=2 n=e3 v=94
475800 On ch=2 n=e4 v=92
475800 Par ch=2 c=64 v=127
475864 On ch=2 n=e4 v=0
475864 On ch=2 n=e3 v=0
476280 Par ch=2 c=64 v=0
477720 Par ch=2 c=64 v=127
478200 Par ch=2 c=64 v=0
479640 On ch=2 n=e6 v=125
479640 Par ch=2 c=64 v=127
479640 On ch=2 n=b5 v=120
479640 On ch=2 n=g#5 v=122
479640 On ch=2 n=e5 v=127
479856 On ch=2 n=e5 v=0
479856 On ch=2 n=g#5 v=0
479856 On ch=2 n=b5 v=0
479856 On ch=2 n=e6 v=0
480000 On ch=2 n=b4 v=120
480000 On ch=2 n=d#5 v=115
480000 On ch=2 n=f#5 v=113
480000 On ch=2 n=b5 v=118
480000 Par ch=2 c=64 v=0
480060 Par ch=2 c=64 v=127
480108 On ch=2 n=b5 v=0
480108 On ch=2 n=f#5 v=0
480108 On ch=2 n=d#5 v=0
480108 On ch=2 n=b4 v=0
480480 On ch=2 n=e4 v=120
480480 On ch=2 n=g#4 v=115
480480 On ch=2 n=b4 v=113
480480 On ch=2 n=e5 v=118
480480 Par ch=2 c=64 v=0
480540 Par ch=2 c=64 v=127
480588 On ch=2 n=e5 v=0
480588 On ch=2 n=b4 v=0
480588 On ch=2 n=g#4 v=0
480588 On ch=2 n=e4 v=0
480960 On ch=2 n=b3 v=120
480960 On ch=2 n=d#4 v=115
480960 On ch=2 n=f#4 v=113
480960 On ch=2 n=b4 v=118
480960 Par ch=2 c=64 v=0
481020 Par ch=2 c=64 v=127
481068 On ch=2 n=b4 v=0
481068 On ch=2 n=f#4 v=0
481068 On ch=2 n=d#4 v=0
481068 On ch=2 n=b3 v=0
481440 On ch=2 n=e3 v=120
481440 On ch=2 n=g#3 v=115
481440 On ch=2 n=b3 v=113
481440 On ch=2 n=e4 v=118
481440 Par ch=2 c=64 v=0
481500 Par ch=2 c=64 v=127
481548 On ch=2 n=e4 v=0
481548 On ch=2 n=b3 v=0
481548 On ch=2 n=g#3 v=0
481548 On ch=2 n=e3 v=0
482400 On ch=2 n=e4 v=110
482400 On ch=2 n=g#4 v=105
482400 On ch=2 n=b4 v=103
482400 On ch=2 n=e5 v=108
482508 On ch=2 n=e5 v=0
482508 On ch=2 n=b4 v=0
482508 On ch=2 n=g#4 v=0
482508 On ch=2 n=e4 v=0
482520 On ch=2 n=e4 v=112
482520 On ch=2 n=g#4 v=107
482520 On ch=2 n=b4 v=105
482520 On ch=2 n=e5 v=110
482736 On ch=2 n=e5 v=0
482736 On ch=2 n=b4 v=0
482736 On ch=2 n=g#4 v=0
482736 On ch=2 n=e4 v=0
483360 On ch=2 n=e5 v=110
483360 On ch=2 n=g#5 v=105
483360 On ch=2 n=b5 v=103
483360 On ch=2 n=e6 v=108
483468 On ch=2 n=e6 v=0
483468 On ch=2 n=b5 v=0
483468 On ch=2 n=g#5 v=0
483468 On ch=2 n=e5 v=0
483480 On ch=2 n=e5 v=112
483480 On ch=2 n=g#5 v=107
483480 On ch=2 n=b5 v=105
483480 On ch=2 n=e6 v=110
483696 On ch=2 n=e6 v=0
483696 On ch=2 n=b5 v=0
483696 On ch=2 n=g#5 v=0
483696 On ch=2 n=e5 v=0
484920 Par ch=2 c=64 v=0
487320 Par ch=2 c=64 v=0
487320 Meta TrkEnd
TrkEnd
