MFile 1 3 480
MTrk
0 TimeSig 4/4 24 8
0 KeySig 0 major
0 Tempo 487805
21690 Tempo 476190
38420 Tempo 487805
38695 Tempo 480000
38970 Tempo 476190
39245 Tempo 476190
39520 Tempo 468750
39795 Tempo 465116
40070 Tempo 461538
40345 Tempo 458015
40620 Tempo 454545
40895 Tempo 454545
41170 Tempo 487805
41325 Tempo 487805
48555 Tempo 487805
48960 Tempo 480000
49365 Tempo 476190
49770 Tempo 476190
50175 Tempo 468750
50580 Tempo 465116
50985 Tempo 461538
51390 Tempo 458015
51795 Tempo 454545
52200 Tempo 454545
52610 Tempo 487805
52930 Tempo 487805
59890 Tempo 454545
106230 Tempo 491803
125550 Tempo 476190
157715 Tempo 476190
158295 Tempo 468750
158880 Tempo 465116
159460 Tempo 461538
160045 Tempo 458015
160625 Tempo 454545
161210 Tempo 454545
181250 Tempo 454545
181730 Tempo 437956
221292 Tempo 491803
265652 Tempo 476190
287617 Tempo 461538
299087 Tempo 476190
299522 Tempo 476190
299957 Tempo 480000
300387 Tempo 487805
300822 Tempo 491803
301257 Tempo 491803
301692 Tempo 500000
302127 Tempo 500000
302557 Tempo 508475
302992 Tempo 512821
303427 Tempo 476190
309722 Tempo 487805
338397 Tempo 454545
372627 Tempo 422535
388317 Tempo 517241
405682 Tempo 535714
446267 Tempo 428571
446647 Tempo 444444
448977 Tempo 487805
463737 Tempo 451128
467058 Tempo 461538
486553 Tempo 472441
492003 Tempo 491803
494697 Tempo 461538
494697 Meta TrkEnd
TrkEnd
MTrk
0 SeqSpec 43 00 01 00
0 Meta TrkName " 12th Hungarian Rhapsody "
0 Meta 0x21 00
0 Par ch=1 c=0 v=0
0 Par ch=1 c=32 v=0
0 PrCh ch=1 p=0
0 Par ch=1 c=7 v=127
0 Par ch=1 c=32 v=0
0 Par ch=1 c=91 v=127
1755 Par ch=1 c=64 v=24
1775 Par ch=1 c=64 v=40
1790 On ch=1 n=c#5 v=93
1795 On ch=1 n=c#4 v=75
1795 Par ch=1 c=64 v=72
1810 Par ch=1 c=64 v=104
1825 On ch=1 n=c#4 v=0
1830 Par ch=1 c=64 v=127
1835 On ch=1 n=c#5 v=0
1900 On ch=1 n=c#5 v=89
1905 On ch=1 n=c#4 v=91
1995 Par ch=1 c=64 v=104
2010 Par ch=1 c=64 v=24
2030 Par ch=1 c=64 v=0
2105 Par ch=1 c=64 v=104
2120 Par ch=1 c=64 v=127
2130 On ch=1 n=c#4 v=0
2135 On ch=1 n=c#5 v=0
3095 On ch=1 n=f#5 v=97
3095 On ch=1 n=f#4 v=81
3145 On ch=1 n=f#5 v=0
3150 On ch=1 n=f#4 v=0
3225 On ch=1 n=f#5 v=93
3225 On ch=1 n=f#4 v=83
3335 Par ch=1 c=64 v=72
3355 Par ch=1 c=64 v=0
3575 Par ch=1 c=64 v=104
3590 On ch=1 n=f#4 v=0
3595 Par ch=1 c=64 v=127
3615 On ch=1 n=f#5 v=0
4280 On ch=1 n=e5 v=94
4285 On ch=1 n=e4 v=86
4335 On ch=1 n=e5 v=0
4345 On ch=1 n=e4 v=0
4370 Par ch=1 c=64 v=72
4385 Par ch=1 c=64 v=0
4400 On ch=1 n=e5 v=89
4405 On ch=1 n=e4 v=86
4535 Par ch=1 c=64 v=127
4550 On ch=1 n=e4 v=0
4575 On ch=1 n=e5 v=0
4855 On ch=1 n=d#5 v=89
4855 On ch=1 n=d#4 v=80
4890 On ch=1 n=d#4 v=0
4915 On ch=1 n=d#5 v=0
4980 On ch=1 n=d#5 v=91
4980 On ch=1 n=d#4 v=84
4995 Par ch=1 c=64 v=40
5010 Par ch=1 c=64 v=0
5145 On ch=1 n=d#4 v=0
5155 Par ch=1 c=64 v=127
5165 On ch=1 n=d#5 v=0
5465 On ch=1 n=c#5 v=89
5475 On ch=1 n=c#4 v=80
5520 On ch=1 n=c#5 v=0
5530 On ch=1 n=c#4 v=0
5590 On ch=1 n=c#5 v=95
5590 On ch=1 n=c#4 v=83
5615 Par ch=1 c=64 v=40
5635 Par ch=1 c=64 v=0
5750 On ch=1 n=c#4 v=0
5770 On ch=1 n=c#5 v=0
5785 Par ch=1 c=64 v=56
5805 Par ch=1 c=64 v=127
6090 On ch=1 n=c5 v=93
6100 On ch=1 n=c4 v=82
6145 On ch=1 n=c5 v=0
6155 On ch=1 n=c4 v=0
6210 On ch=1 n=c5 v=89
6210 On ch=1 n=c4 v=70
6245 Par ch=1 c=64 v=72
6260 Par ch=1 c=64 v=0
6410 On ch=1 n=c4 v=0
6425 On ch=1 n=c5 v=0
6425 Par ch=1 c=64 v=88
6445 Par ch=1 c=64 v=127
6735 On ch=1 n=c#5 v=93
6745 On ch=1 n=c#4 v=84
6775 On ch=1 n=c#4 v=0
6790 On ch=1 n=c#5 v=0
6870 On ch=1 n=c#5 v=96
6880 On ch=1 n=c#4 v=95
6905 Par ch=1 c=64 v=88
6925 Par ch=1 c=64 v=0
7200 Par ch=1 c=64 v=127
7210 On ch=1 n=c#5 v=0
7240 On ch=1 n=c#4 v=0
7610 On ch=1 n=a#3 v=44
7630 On ch=1 n=g2 v=42
7670 On ch=1 n=a#3 v=0
7675 On ch=1 n=g2 v=0
7700 On ch=1 n=e3 v=46
7725 On ch=1 n=c#4 v=22
7755 On ch=1 n=e3 v=0
7765 On ch=1 n=c#4 v=0
7790 On ch=1 n=a#3 v=39
7805 On ch=1 n=g2 v=52
7835 On ch=1 n=a#3 v=0
7850 On ch=1 n=g2 v=0
7865 On ch=1 n=c#4 v=36
7880 On ch=1 n=e3 v=50
7905 On ch=1 n=c#4 v=0
7925 On ch=1 n=e3 v=0
7940 On ch=1 n=a#3 v=22
7975 On ch=1 n=a#3 v=0
7980 On ch=1 n=g2 v=55
7990 On ch=1 n=c#4 v=43
8020 On ch=1 n=g2 v=0
8045 On ch=1 n=e3 v=49
8055 On ch=1 n=c#4 v=0
8055 On ch=1 n=a#3 v=36
8100 On ch=1 n=e3 v=0
8115 On ch=1 n=a#3 v=0
8130 On ch=1 n=c#4 v=50
8170 On ch=1 n=g2 v=50
8195 On ch=1 n=c#4 v=0
8200 On ch=1 n=e3 v=52
8205 On ch=1 n=g2 v=0
8205 On ch=1 n=a#3 v=55
8255 On ch=1 n=a#3 v=0
8280 On ch=1 n=e3 v=0
8290 On ch=1 n=c#4 v=57
8320 On ch=1 n=c#4 v=0
8335 On ch=1 n=g2 v=56
8350 On ch=1 n=a#3 v=67
8370 On ch=1 n=e3 v=52
8375 On ch=1 n=g2 v=0
8400 On ch=1 n=a#3 v=0
8425 On ch=1 n=c#4 v=64
8450 On ch=1 n=e3 v=0
8475 On ch=1 n=c#4 v=0
8485 On ch=1 n=a#3 v=74
8500 On ch=1 n=g2 v=72
8525 On ch=1 n=e3 v=51
8540 On ch=1 n=g2 v=0
8545 On ch=1 n=a#3 v=0
8550 On ch=1 n=c#4 v=71
8625 On ch=1 n=c#4 v=0
8630 On ch=1 n=e3 v=0
8630 On ch=1 n=a#3 v=80
8660 On ch=1 n=g2 v=80
8695 On ch=1 n=a#3 v=0
8695 On ch=1 n=c#4 v=71
8725 On ch=1 n=e3 v=70
8735 On ch=1 n=g2 v=0
8770 On ch=1 n=c#4 v=0
8775 On ch=1 n=a#3 v=81
8810 On ch=1 n=e3 v=0
8845 On ch=1 n=a#3 v=0
8845 On ch=1 n=c#4 v=79
8855 On ch=1 n=g2 v=81
8915 On ch=1 n=c#4 v=0
8925 On ch=1 n=g2 v=0
8925 On ch=1 n=a#3 v=86
8925 On ch=1 n=e3 v=73
8985 On ch=1 n=a#3 v=0
8990 On ch=1 n=e3 v=0
8990 On ch=1 n=c#4 v=77
9030 On ch=1 n=g2 v=79
9055 On ch=1 n=c#4 v=0
9070 On ch=1 n=e3 v=70
9120 On ch=1 n=a#3 v=81
9140 On ch=1 n=g2 v=0
9155 On ch=1 n=e3 v=0
9190 On ch=1 n=a#3 v=0
9190 On ch=1 n=c#4 v=79
9200 On ch=1 n=g2 v=81
9260 On ch=1 n=c#4 v=0
9270 On ch=1 n=g2 v=0
9270 On ch=1 n=a#3 v=86
9270 On ch=1 n=e3 v=73
9330 On ch=1 n=a#3 v=0
9335 On ch=1 n=e3 v=0
9335 On ch=1 n=c#4 v=77
9375 On ch=1 n=g2 v=79
9400 On ch=1 n=c#4 v=0
9415 On ch=1 n=a#3 v=89
9430 On ch=1 n=e3 v=63
9485 On ch=1 n=g2 v=0
9510 On ch=1 n=e3 v=0
9555 On ch=1 n=a#3 v=0
9555 On ch=1 n=c#4 v=77
9585 On ch=1 n=c#4 v=0
9690 On ch=1 n=d#3 v=90
9690 On ch=1 n=f#2 v=81
9690 On ch=1 n=a3 v=83
9705 On ch=1 n=c4 v=96
9740 On ch=1 n=d#3 v=0
9745 On ch=1 n=f#2 v=0
9755 On ch=1 n=a3 v=0
9760 On ch=1 n=c4 v=0
9795 On ch=1 n=a#3 v=102
9805 On ch=1 n=c#4 v=103
9820 On ch=1 n=g2 v=99
9820 On ch=1 n=e3 v=102
9830 Par ch=1 c=64 v=104
9850 Par ch=1 c=64 v=0
9935 On ch=1 n=a#3 v=0
9945 On ch=1 n=g2 v=0
9975 On ch=1 n=c#4 v=0
9975 Par ch=1 c=64 v=127
10000 On ch=1 n=e3 v=0
11135 Par ch=1 c=64 v=104
11150 Par ch=1 c=64 v=88
11170 Par ch=1 c=64 v=72
11190 Par ch=1 c=64 v=40
11210 Par ch=1 c=64 v=0
11795 Par ch=1 c=64 v=24
11815 Par ch=1 c=64 v=56
11835 Par ch=1 c=64 v=104
11850 Par ch=1 c=64 v=127
11865 On ch=1 n=g#5 v=92
11865 On ch=1 n=g#4 v=77
11905 On ch=1 n=g#4 v=0
11910 On ch=1 n=g#5 v=0
11945 Par ch=1 c=64 v=40
11960 Par ch=1 c=64 v=0
11970 On ch=1 n=g#5 v=95
11980 On ch=1 n=g#4 v=82
12185 Par ch=1 c=64 v=127
12275 On ch=1 n=g#4 v=0
12300 On ch=1 n=g#5 v=0
13055 On ch=1 n=c#6 v=94
13055 On ch=1 n=c#5 v=83
13100 On ch=1 n=c#6 v=0
13110 On ch=1 n=c#5 v=0
13180 On ch=1 n=c#6 v=100
13185 On ch=1 n=c#5 v=93
13270 Par ch=1 c=64 v=40
13285 Par ch=1 c=64 v=0
13490 Par ch=1 c=64 v=88
13510 Par ch=1 c=64 v=127
13540 On ch=1 n=c#6 v=0
13555 On ch=1 n=c#5 v=0
14240 On ch=1 n=b5 v=92
14245 On ch=1 n=b4 v=86
14295 On ch=1 n=b5 v=0
14310 On ch=1 n=b4 v=0
14360 On ch=1 n=b5 v=90
14365 On ch=1 n=b4 v=82
14375 Par ch=1 c=64 v=24
14390 Par ch=1 c=64 v=0
14500 Par ch=1 c=64 v=88
14505 On ch=1 n=b4 v=0
14515 On ch=1 n=b5 v=0
14515 Par ch=1 c=64 v=127
14810 On ch=1 n=a#5 v=90
14825 On ch=1 n=a#4 v=74
14850 On ch=1 n=a#5 v=0
14860 On ch=1 n=a#4 v=0
14920 On ch=1 n=a#5 v=95
14920 On ch=1 n=a#4 v=77
14945 Par ch=1 c=64 v=0
15045 On ch=1 n=a#4 v=0
15050 Par ch=1 c=64 v=72
15060 On ch=1 n=a#5 v=0
15070 Par ch=1 c=64 v=127
15385 On ch=1 n=g#5 v=91
15395 On ch=1 n=g#4 v=73
15425 On ch=1 n=g#4 v=0
15425 On ch=1 n=g#5 v=0
15495 On ch=1 n=g#5 v=95
15500 On ch=1 n=g#4 v=76
15510 Par ch=1 c=64 v=72
15530 Par ch=1 c=64 v=0
15645 On ch=1 n=g#4 v=0
15660 Par ch=1 c=64 v=127
15670 On ch=1 n=g#5 v=0
15945 On ch=1 n=g5 v=89
15950 On ch=1 n=g4 v=87
15985 On ch=1 n=g4 v=0
16000 On ch=1 n=g5 v=0
16075 On ch=1 n=g5 v=92
16090 On ch=1 n=g4 v=93
16105 Par ch=1 c=64 v=72
16120 Par ch=1 c=64 v=0
16285 Par ch=1 c=64 v=127
16290 On ch=1 n=g4 v=0
16315 On ch=1 n=g5 v=0
16635 On ch=1 n=g#4 v=82
16635 On ch=1 n=g#5 v=96
16690 On ch=1 n=g#5 v=0
16690 On ch=1 n=g#4 v=0
16780 On ch=1 n=g#4 v=93
16780 On ch=1 n=g#5 v=103
16855 Par ch=1 c=64 v=88
16875 Par ch=1 c=64 v=0
17065 On ch=1 n=g#5 v=0
17080 Par ch=1 c=64 v=127
17090 On ch=1 n=g#4 v=0
17555 On ch=1 n=b3 v=25
17570 On ch=1 n=c#4 v=30
17590 On ch=1 n=d3 v=55
17595 On ch=1 n=b3 v=0
17605 On ch=1 n=c#4 v=0
17645 On ch=1 n=g#4 v=46
17675 On ch=1 n=d3 v=0
17685 On ch=1 n=g#4 v=0
17705 On ch=1 n=b3 v=51
17730 On ch=1 n=f2 v=51
17750 On ch=1 n=b3 v=0
17755 On ch=1 n=d3 v=47
17775 On ch=1 n=f2 v=0
17780 On ch=1 n=g#4 v=35
17815 On ch=1 n=g#4 v=0
17835 On ch=1 n=b3 v=58
17855 On ch=1 n=d3 v=0
17885 On ch=1 n=b3 v=0
17905 On ch=1 n=f2 v=57
17915 On ch=1 n=g#4 v=48
17950 On ch=1 n=g#4 v=0
17950 On ch=1 n=d3 v=42
17955 On ch=1 n=f2 v=0
17980 On ch=1 n=b3 v=60
18030 On ch=1 n=b3 v=0
18040 On ch=1 n=d3 v=0
18075 On ch=1 n=g#4 v=46
18090 On ch=1 n=f2 v=48
18105 On ch=1 n=g#4 v=0
18115 On ch=1 n=b3 v=70
18125 On ch=1 n=d3 v=43
18130 On ch=1 n=f2 v=0
18180 On ch=1 n=b3 v=0
18205 On ch=1 n=d3 v=0
18205 On ch=1 n=g#4 v=67
18215 On ch=1 n=d4 v=28
18240 On ch=1 n=g#4 v=0
18250 On ch=1 n=d4 v=0
18260 On ch=1 n=f2 v=59
18265 On ch=1 n=b3 v=66
18295 On ch=1 n=f2 v=0
18310 On ch=1 n=d3 v=55
18330 On ch=1 n=b3 v=0
18350 On ch=1 n=d4 v=44
18355 On ch=1 n=g#4 v=72
18380 Par ch=1 c=64 v=104
18390 On ch=1 n=d3 v=0
18400 On ch=1 n=g#4 v=0
18400 On ch=1 n=b3 v=75
18415 On ch=1 n=d4 v=0
18415 On ch=1 n=f2 v=69
18440 Par ch=1 c=64 v=127
18470 On ch=1 n=f2 v=0
18475 On ch=1 n=b3 v=0
18475 On ch=1 n=d3 v=50
18495 On ch=1 n=d4 v=56
18495 On ch=1 n=g#4 v=77
18535 On ch=1 n=d4 v=0
18540 On ch=1 n=g#4 v=0
18555 On ch=1 n=b3 v=73
18565 On ch=1 n=d3 v=0
18590 On ch=1 n=f2 v=67
18620 On ch=1 n=b3 v=0
18630 On ch=1 n=d4 v=59
18640 On ch=1 n=g#4 v=78
18645 On ch=1 n=f2 v=0
18655 On ch=1 n=d3 v=60
18665 On ch=1 n=d4 v=0
18690 On ch=1 n=g#4 v=0
18705 On ch=1 n=b3 v=76
18735 On ch=1 n=d3 v=0
18765 On ch=1 n=b3 v=0
18770 On ch=1 n=f2 v=68
18780 On ch=1 n=d4 v=52
18785 On ch=1 n=g#4 v=84
18820 On ch=1 n=d4 v=0
18840 On ch=1 n=g#4 v=0
18840 On ch=1 n=f2 v=0
18840 On ch=1 n=d3 v=74
18860 On ch=1 n=b3 v=81
18910 On ch=1 n=d3 v=0
18930 On ch=1 n=b3 v=0
18930 On ch=1 n=d4 v=62
18945 On ch=1 n=g#4 v=90
18955 On ch=1 n=f2 v=72
18960 On ch=1 n=d4 v=0
19005 On ch=1 n=g#4 v=0
19010 On ch=1 n=f2 v=0
19025 On ch=1 n=d3 v=60
19075 On ch=1 n=b3 v=76
19105 On ch=1 n=d3 v=0
19135 On ch=1 n=b3 v=0
19140 On ch=1 n=f2 v=68
19150 On ch=1 n=d4 v=52
19155 On ch=1 n=g#4 v=84
19190 On ch=1 n=d4 v=0
19210 On ch=1 n=g#4 v=0
19210 On ch=1 n=f2 v=0
19210 On ch=1 n=d3 v=74
19230 On ch=1 n=b3 v=81
19280 On ch=1 n=d3 v=0
19300 On ch=1 n=b3 v=0
19300 On ch=1 n=d4 v=62
19315 On ch=1 n=g#4 v=90
19325 On ch=1 n=f2 v=72
19330 On ch=1 n=d4 v=0
19375 On ch=1 n=g#4 v=0
19375 On ch=1 n=b3 v=78
19380 On ch=1 n=f2 v=0
19380 On ch=1 n=d4 v=71
19395 On ch=1 n=d3 v=77
19420 On ch=1 n=d4 v=0
19465 On ch=1 n=g#4 v=87
19500 On ch=1 n=f2 v=90
19540 On ch=1 n=d3 v=0
19550 On ch=1 n=f2 v=0
19555 On ch=1 n=b3 v=0
19600 On ch=1 n=g#4 v=0
19710 On ch=1 n=e2 v=85
19720 On ch=1 n=a#3 v=82
19720 On ch=1 n=c#3 v=88
19720 On ch=1 n=c#4 v=79
19730 On ch=1 n=g4 v=96
19770 On ch=1 n=c#3 v=0
19785 On ch=1 n=g4 v=0
19785 On ch=1 n=c#4 v=0
19785 On ch=1 n=a#3 v=0
19785 On ch=1 n=e2 v=0
19840 On ch=1 n=g#4 v=103
19840 On ch=1 n=b3 v=99
19840 On ch=1 n=d3 v=96
19840 On ch=1 n=f2 v=92
19840 On ch=1 n=d4 v=91
19860 Par ch=1 c=64 v=104
19910 On ch=1 n=d3 v=0
19950 On ch=1 n=b3 v=0
19985 On ch=1 n=d4 v=0
19990 On ch=1 n=g#4 v=0
20000 On ch=1 n=f2 v=0
20620 Par ch=1 c=64 v=0
21690 On ch=1 n=g#4 v=90
21735 On ch=1 n=g#4 v=0
21820 On ch=1 n=g#4 v=95
21980 Par ch=1 c=64 v=88
21995 Par ch=1 c=64 v=127
22085 On ch=1 n=g#4 v=0
22350 On ch=1 n=e3 v=57
22410 On ch=1 n=e3 v=0
22410 On ch=1 n=b3 v=55
22465 On ch=1 n=d4 v=59
22475 On ch=1 n=b3 v=0
22475 On ch=1 n=d5 v=61
22515 On ch=1 n=d4 v=0
22530 On ch=1 n=g#4 v=61
22530 On ch=1 n=g#5 v=63
22555 On ch=1 n=b5 v=80
22565 On ch=1 n=g#4 v=0
22585 On ch=1 n=d5 v=0
22620 On ch=1 n=g#5 v=0
22630 On ch=1 n=e6 v=93
22645 On ch=1 n=b5 v=0
22685 On ch=1 n=e6 v=0
23230 On ch=1 n=a4 v=82
23315 On ch=1 n=a4 v=0
23325 On ch=1 n=b4 v=84
23375 On ch=1 n=b4 v=0
23450 Par ch=1 c=64 v=104
23455 On ch=1 n=e4 v=97
23475 Par ch=1 c=64 v=24
23485 Par ch=1 c=64 v=0
23630 Par ch=1 c=64 v=127
23665 On ch=1 n=e4 v=0
23995 On ch=1 n=e3 v=54
24030 On ch=1 n=d4 v=48
24050 On ch=1 n=e3 v=0
24055 On ch=1 n=b3 v=60
24115 On ch=1 n=d5 v=70
24135 On ch=1 n=b3 v=0
24140 On ch=1 n=g#5 v=56
24145 On ch=1 n=d4 v=0
24145 On ch=1 n=g#4 v=58
24175 On ch=1 n=g#4 v=0
24185 On ch=1 n=b5 v=74
24220 On ch=1 n=d5 v=0
24245 On ch=1 n=g#5 v=0
24270 On ch=1 n=e6 v=95
24285 On ch=1 n=b5 v=0
24320 On ch=1 n=e6 v=0
24900 On ch=1 n=e4 v=99
24960 On ch=1 n=e4 v=0
25065 On ch=1 n=f#4 v=102
25090 Par ch=1 c=64 v=88
25105 Par ch=1 c=64 v=0
25285 Par ch=1 c=64 v=127
25355 On ch=1 n=f#4 v=0
25530 On ch=1 n=e3 v=66
25595 On ch=1 n=b3 v=61
25605 On ch=1 n=e3 v=0
25650 On ch=1 n=d4 v=54
25665 On ch=1 n=b3 v=0
25685 On ch=1 n=d5 v=69
25685 On ch=1 n=f#4 v=59
25690 On ch=1 n=d4 v=0
25710 On ch=1 n=f#4 v=0
25740 On ch=1 n=f#5 v=64
25790 On ch=1 n=a5 v=82
25795 On ch=1 n=d5 v=0
25830 On ch=1 n=f#5 v=0
25900 On ch=1 n=e6 v=93
25905 On ch=1 n=a5 v=0
25950 On ch=1 n=e6 v=0
26270 On ch=1 n=a4 v=78
26370 On ch=1 n=g#4 v=79
26390 On ch=1 n=a4 v=0
26465 On ch=1 n=g#4 v=0
26470 On ch=1 n=f#4 v=81
26570 On ch=1 n=f#4 v=0
26570 On ch=1 n=g#4 v=81
26665 On ch=1 n=a4 v=83
26670 On ch=1 n=g#4 v=0
26735 On ch=1 n=a4 v=0
26795 On ch=1 n=g#4 v=94
26810 Par ch=1 c=64 v=104
26830 Par ch=1 c=64 v=40
26845 Par ch=1 c=64 v=0
27075 Par ch=1 c=64 v=127
27095 On ch=1 n=g#4 v=0
27340 On ch=1 n=e3 v=59
27380 On ch=1 n=b3 v=48
27390 On ch=1 n=d5 v=59
27425 On ch=1 n=g#5 v=54
27445 On ch=1 n=d4 v=53
27450 On ch=1 n=e3 v=0
27475 On ch=1 n=b5 v=78
27485 On ch=1 n=d4 v=0
27485 On ch=1 n=b3 v=0
27495 On ch=1 n=d5 v=0
27515 On ch=1 n=g#4 v=40
27525 On ch=1 n=g#5 v=0
27550 On ch=1 n=g#4 v=0
27565 On ch=1 n=e6 v=96
27570 On ch=1 n=b5 v=0
27610 On ch=1 n=e6 v=0
28150 On ch=1 n=e4 v=94
28220 On ch=1 n=e4 v=0
28320 Par ch=1 c=64 v=88
28330 On ch=1 n=c#5 v=102
28335 Par ch=1 c=64 v=0
28495 Par ch=1 c=64 v=127
28570 On ch=1 n=c#5 v=0
28720 On ch=1 n=e3 v=62
28845 On ch=1 n=c#4 v=59
28855 On ch=1 n=e5 v=56
28865 On ch=1 n=e3 v=0
28915 On ch=1 n=a5 v=63
28920 On ch=1 n=e4 v=60
28940 On ch=1 n=e5 v=0
28950 On ch=1 n=c#6 v=78
28960 On ch=1 n=c#4 v=0
28980 On ch=1 n=a5 v=0
28995 On ch=1 n=a4 v=55
29030 On ch=1 n=a4 v=0
29035 On ch=1 n=e4 v=0
29045 On ch=1 n=c#6 v=0
29080 On ch=1 n=a6 v=96
29125 On ch=1 n=a6 v=0
29675 On ch=1 n=d5 v=81
29765 On ch=1 n=e5 v=90
29780 On ch=1 n=d5 v=0
29820 On ch=1 n=e5 v=0
29880 On ch=1 n=a4 v=92
29900 Par ch=1 c=64 v=88
29915 Par ch=1 c=64 v=0
30110 Par ch=1 c=64 v=127
30190 On ch=1 n=a4 v=0
30400 On ch=1 n=e3 v=63
30460 On ch=1 n=e3 v=0
30465 On ch=1 n=c#4 v=60
30500 On ch=1 n=e5 v=60
30535 On ch=1 n=e4 v=59
30550 On ch=1 n=a5 v=62
30580 On ch=1 n=c#4 v=0
30590 On ch=1 n=e5 v=0
30590 On ch=1 n=c#6 v=80
30630 On ch=1 n=a5 v=0
30630 On ch=1 n=e4 v=0
30650 On ch=1 n=a4 v=58
30680 On ch=1 n=c#6 v=0
30700 On ch=1 n=a6 v=95
30720 On ch=1 n=a4 v=0
30755 On ch=1 n=a6 v=0
31300 On ch=1 n=a4 v=95
31375 On ch=1 n=a4 v=0
31510 On ch=1 n=c5 v=97
31550 Par ch=1 c=64 v=104
31570 Par ch=1 c=64 v=0
31780 Par ch=1 c=64 v=127
31820 On ch=1 n=c5 v=0
31915 On ch=1 n=e3 v=61
31985 On ch=1 n=c4 v=68
32020 On ch=1 n=d#4 v=47
32030 On ch=1 n=e3 v=0
32100 On ch=1 n=c4 v=0
32105 On ch=1 n=a4 v=56
32115 On ch=1 n=d#5 v=64
32135 On ch=1 n=d#4 v=0
32140 On ch=1 n=a4 v=0
32190 On ch=1 n=d#5 v=0
32200 On ch=1 n=c6 v=63
32250 On ch=1 n=d#6 v=77
32295 On ch=1 n=c6 v=0
32345 On ch=1 n=a6 v=93
32360 On ch=1 n=d#6 v=0
32400 On ch=1 n=a6 v=0
32695 On ch=1 n=d#5 v=78
32755 Par ch=1 c=64 v=56
32775 Par ch=1 c=64 v=0
32790 On ch=1 n=c#5 v=80
32845 On ch=1 n=d#5 v=0
32880 On ch=1 n=c#5 v=0
32890 On ch=1 n=c5 v=83
32980 On ch=1 n=c#5 v=85
32990 On ch=1 n=c5 v=0
33075 On ch=1 n=d#5 v=86
33080 On ch=1 n=c#5 v=0
33160 On ch=1 n=d#5 v=0
33195 On ch=1 n=c#5 v=97
33380 Par ch=1 c=64 v=127
33390 On ch=1 n=c#5 v=0
33690 On ch=1 n=e3 v=65
33735 On ch=1 n=e5 v=63
33785 On ch=1 n=e3 v=0
33790 On ch=1 n=a5 v=67
33820 On ch=1 n=e5 v=0
33820 On ch=1 n=c#4 v=58
33825 On ch=1 n=e4 v=55
33840 On ch=1 n=c#6 v=81
33860 On ch=1 n=a5 v=0
33905 On ch=1 n=c#4 v=0
33940 On ch=1 n=c#6 v=0
33965 On ch=1 n=e4 v=0
33970 On ch=1 n=a4 v=53
33975 On ch=1 n=a6 v=94
34035 On ch=1 n=a4 v=0
34060 On ch=1 n=a6 v=0
34700 On ch=1 n=c#5 v=90
34760 Par ch=1 c=64 v=40
34780 Par ch=1 c=64 v=0
34890 On ch=1 n=d#3 v=62
34900 On ch=1 n=c#5 v=0
34925 Par ch=1 c=64 v=127
34960 On ch=1 n=c#4 v=72
34970 On ch=1 n=d#3 v=0
35035 On ch=1 n=f#4 v=60
35045 On ch=1 n=c#4 v=0
35100 On ch=1 n=f#4 v=0
35115 On ch=1 n=a4 v=67
35155 On ch=1 n=c#5 v=60
35235 On ch=1 n=f#5 v=73
35240 On ch=1 n=a4 v=0
35275 On ch=1 n=c#5 v=0
35385 On ch=1 n=a5 v=102
35390 On ch=1 n=f#5 v=0
35890 On ch=1 n=a5 v=0
36485 On ch=1 n=b5 v=96
36580 On ch=1 n=b5 v=0
36915 On ch=1 n=c#6 v=80
36965 On ch=1 n=c#6 v=0
37010 On ch=1 n=c#6 v=95
37080 On ch=1 n=c#6 v=0
37160 On ch=1 n=f#5 v=92
37230 Par ch=1 c=64 v=104
37250 Par ch=1 c=64 v=24
37265 Par ch=1 c=64 v=0
37550 Par ch=1 c=64 v=88
37570 Par ch=1 c=64 v=127
37625 On ch=1 n=f#5 v=0
38310 On ch=1 n=f#5 v=77
38365 On ch=1 n=f#5 v=0
38370 Par ch=1 c=64 v=40
38385 Par ch=1 c=64 v=88
38410 Par ch=1 c=64 v=127
38420 On ch=1 n=f#5 v=90
38560 On ch=1 n=f#5 v=0
38635 On ch=1 n=g#5 v=77
38735 On ch=1 n=a5 v=78
38765 On ch=1 n=g#5 v=0
38795 Par ch=1 c=64 v=72
38815 Par ch=1 c=64 v=0
38825 On ch=1 n=c#5 v=91
38830 On ch=1 n=a5 v=0
38890 Par ch=1 c=64 v=72
38910 Par ch=1 c=64 v=104
38915 On ch=1 n=c#5 v=0
38930 Par ch=1 c=64 v=127
39050 On ch=1 n=d#5 v=74
39140 On ch=1 n=e5 v=81
39150 On ch=1 n=d#5 v=0
39180 Par ch=1 c=64 v=88
39200 Par ch=1 c=64 v=24
39215 On ch=1 n=e5 v=0
39220 Par ch=1 c=64 v=0
39225 On ch=1 n=a4 v=92
39245 Par ch=1 c=64 v=24
39265 Par ch=1 c=64 v=72
39285 Par ch=1 c=64 v=104
39305 On ch=1 n=a4 v=0
39310 Par ch=1 c=64 v=127
39455 On ch=1 n=b4 v=78
39535 On ch=1 n=c#5 v=75
39560 On ch=1 n=b4 v=0
39575 Par ch=1 c=64 v=56
39595 Par ch=1 c=64 v=0
39625 On ch=1 n=c#5 v=0
39630 On ch=1 n=f#4 v=91
39710 Par ch=1 c=64 v=40
39725 On ch=1 n=f#4 v=0
39730 Par ch=1 c=64 v=88
39750 Par ch=1 c=64 v=127
39865 On ch=1 n=g#4 v=78
39935 On ch=1 n=a4 v=82
39965 On ch=1 n=g#4 v=0
40000 Par ch=1 c=64 v=56
40015 On ch=1 n=a4 v=0
40020 Par ch=1 c=64 v=0
40030 On ch=1 n=c#4 v=93
40095 Par ch=1 c=64 v=40
40110 Par ch=1 c=64 v=104
40115 On ch=1 n=c#4 v=0
40130 Par ch=1 c=64 v=127
40265 On ch=1 n=d#4 v=82
40345 On ch=1 n=e4 v=82
40370 On ch=1 n=d#4 v=0
40420 On ch=1 n=e4 v=0
40425 Par ch=1 c=64 v=72
40440 Par ch=1 c=64 v=0
40445 On ch=1 n=a3 v=95
40530 On ch=1 n=a3 v=0
40540 Par ch=1 c=64 v=40
40560 Par ch=1 c=64 v=104
40575 Par ch=1 c=64 v=127
40690 On ch=1 n=b3 v=82
40755 On ch=1 n=c#4 v=76
40790 On ch=1 n=b3 v=0
40850 On ch=1 n=c#4 v=0
40850 Par ch=1 c=64 v=56
40860 On ch=1 n=f#3 v=96
40870 Par ch=1 c=64 v=0
40950 On ch=1 n=f#3 v=0
40985 Par ch=1 c=64 v=72
41005 Par ch=1 c=64 v=127
41100 On ch=1 n=g#3 v=71
41170 On ch=1 n=a3 v=84
41190 On ch=1 n=g#3 v=0
41245 On ch=1 n=a3 v=0
41325 On ch=1 n=d#3 v=88
41370 Par ch=1 c=64 v=88
41390 Par ch=1 c=64 v=24
41410 Par ch=1 c=64 v=0
41510 On ch=1 n=d#3 v=37
41520 Par ch=1 c=64 v=104
41535 Par ch=1 c=64 v=88
41550 Par ch=1 c=64 v=56
41560 Par ch=1 c=64 v=24
41575 Par ch=1 c=64 v=0
41585 On ch=1 n=d#3 v=0
41590 On ch=1 n=e3 v=56
41665 On ch=1 n=e3 v=0
41665 On ch=1 n=d#3 v=64
41700 Par ch=1 c=64 v=24
41745 On ch=1 n=d#3 v=0
41745 On ch=1 n=d#3 v=0
41755 On ch=1 n=e3 v=66
41775 Par ch=1 c=64 v=0
41825 Par ch=1 c=64 v=24
41830 On ch=1 n=e3 v=0
41835 On ch=1 n=d#3 v=61
41840 Par ch=1 c=64 v=40
41850 Par ch=1 c=64 v=56
41865 Par ch=1 c=64 v=72
41875 Par ch=1 c=64 v=88
41905 On ch=1 n=d#3 v=0
41910 On ch=1 n=e3 v=63
41980 On ch=1 n=e3 v=0
41985 On ch=1 n=d#3 v=63
42050 On ch=1 n=d#3 v=0
42055 On ch=1 n=e3 v=63
42130 On ch=1 n=e3 v=0
42130 On ch=1 n=d#3 v=72
42200 On ch=1 n=d#3 v=0
42205 On ch=1 n=e3 v=66
42275 On ch=1 n=e3 v=0
42280 On ch=1 n=d#3 v=67
42340 On ch=1 n=d#3 v=0
42350 On ch=1 n=e3 v=58
42355 Par ch=1 c=64 v=72
42410 On ch=1 n=e3 v=0
42420 On ch=1 n=d#3 v=59
42480 On ch=1 n=d#3 v=0
42490 On ch=1 n=e3 v=62
42550 On ch=1 n=e3 v=0
42555 On ch=1 n=d#3 v=56
42615 On ch=1 n=d#3 v=0
42615 On ch=1 n=e3 v=56
42685 On ch=1 n=e3 v=0
42685 On ch=1 n=d#3 v=57
42765 On ch=1 n=d#3 v=0
42780 On ch=1 n=e3 v=54
42830 On ch=1 n=e3 v=0
42845 On ch=1 n=d#3 v=65
42905 On ch=1 n=d#3 v=0
42920 On ch=1 n=e3 v=64
42980 On ch=1 n=e3 v=0
42990 On ch=1 n=d#3 v=61
43055 On ch=1 n=d#3 v=0
43065 On ch=1 n=e3 v=68
43140 On ch=1 n=e3 v=0
43140 On ch=1 n=d#3 v=67
43255 On ch=1 n=d#3 v=0
43255 On ch=1 n=d3 v=79
43340 On ch=1 n=d#3 v=79
43345 On ch=1 n=d3 v=0
43425 On ch=1 n=d#3 v=0
43435 Par ch=1 c=64 v=56
43445 On ch=1 n=e3 v=70
43535 On ch=1 n=d#3 v=72
43540 On ch=1 n=e3 v=0
43630 On ch=1 n=d#3 v=0
43630 On ch=1 n=c#3 v=59
43715 On ch=1 n=c#3 v=0
43725 On ch=1 n=b2 v=74
43840 On ch=1 n=a2 v=72
43850 On ch=1 n=b2 v=0
43920 On ch=1 n=a2 v=0
43930 On ch=1 n=g#2 v=71
44000 On ch=1 n=g#2 v=0
44015 On ch=1 n=a2 v=70
44050 Par ch=1 c=64 v=40
44090 Par ch=1 c=64 v=0
44105 On ch=1 n=a2 v=0
44105 On ch=1 n=f2 v=71
44190 On ch=1 n=f#2 v=71
44210 On ch=1 n=f2 v=0
44280 On ch=1 n=g#2 v=71
44300 On ch=1 n=f#2 v=0
44355 On ch=1 n=g#2 v=0
44370 On ch=1 n=a2 v=68
44470 On ch=1 n=b2 v=74
44475 On ch=1 n=a2 v=0
44540 On ch=1 n=c#3 v=73
44550 On ch=1 n=b2 v=0
44635 On ch=1 n=d#3 v=73
44655 On ch=1 n=c#3 v=0
44705 On ch=1 n=d#3 v=0
44715 On ch=1 n=e3 v=79
44795 On ch=1 n=f#3 v=77
44815 On ch=1 n=e3 v=0
44885 On ch=1 n=g#3 v=78
44900 On ch=1 n=f#3 v=0
44965 On ch=1 n=a3 v=93
44970 On ch=1 n=g#3 v=0
45025 On ch=1 n=a3 v=0
45040 On ch=1 n=b3 v=82
45125 On ch=1 n=c#4 v=84
45145 On ch=1 n=b3 v=0
45210 On ch=1 n=d#4 v=91
45215 On ch=1 n=c#4 v=0
45290 On ch=1 n=d#4 v=0
45295 On ch=1 n=e4 v=96
45390 On ch=1 n=c4 v=90
45410 On ch=1 n=e4 v=0
45475 On ch=1 n=d#4 v=83
45490 On ch=1 n=c4 v=0
45570 On ch=1 n=c#4 v=83
45580 On ch=1 n=d#4 v=0
45650 On ch=1 n=c#4 v=0
45660 On ch=1 n=b3 v=83
45760 On ch=1 n=a3 v=79
45765 On ch=1 n=b3 v=0
45840 On ch=1 n=a3 v=0
45845 On ch=1 n=g#3 v=76
45915 On ch=1 n=g#3 v=0
45945 On ch=1 n=a3 v=76
46040 On ch=1 n=a3 v=0
46040 On ch=1 n=f3 v=73
46130 On ch=1 n=f#3 v=74
46135 On ch=1 n=f3 v=0
46215 On ch=1 n=g3 v=79
46240 On ch=1 n=f#3 v=0
46310 On ch=1 n=g#3 v=83
46340 On ch=1 n=g3 v=0
46395 On ch=1 n=g#3 v=0
46430 On ch=1 n=g#3 v=85
46570 Par ch=1 c=64 v=40
46585 Par ch=1 c=64 v=88
46595 Par ch=1 c=64 v=127
46795 Par ch=1 c=64 v=104
46810 Par ch=1 c=64 v=56
46820 Par ch=1 c=64 v=24
46835 Par ch=1 c=64 v=0
46855 On ch=1 n=g#2 v=85
46910 Par ch=1 c=64 v=56
46920 Par ch=1 c=64 v=104
46930 Par ch=1 c=64 v=127
47010 On ch=1 n=g#2 v=0
47035 On ch=1 n=g#3 v=0
47110 Par ch=1 c=64 v=40
47130 Par ch=1 c=64 v=88
47150 Par ch=1 c=64 v=127
47315 On ch=1 n=c#7 v=75
47320 On ch=1 n=e6 v=84
47320 On ch=1 n=e7 v=83
47320 On ch=1 n=c#6 v=70
47330 On ch=1 n=e5 v=64
47340 On ch=1 n=c#5 v=50
47350 On ch=1 n=e7 v=0
47360 On ch=1 n=c#7 v=0
47370 On ch=1 n=e5 v=0
47375 On ch=1 n=c#5 v=0
47380 On ch=1 n=e6 v=0
47385 On ch=1 n=c#6 v=0
47430 On ch=1 n=e7 v=99
47435 On ch=1 n=e6 v=102
47435 On ch=1 n=c#7 v=81
47435 On ch=1 n=c#5 v=51
47435 On ch=1 n=c#6 v=75
47440 On ch=1 n=e5 v=70
47510 On ch=1 n=e6 v=0
47515 On ch=1 n=c#7 v=0
47520 On ch=1 n=c#6 v=0
47520 On ch=1 n=c#5 v=0
47530 On ch=1 n=e5 v=0
47530 On ch=1 n=e7 v=0
48550 On ch=1 n=d#6 v=77
48550 On ch=1 n=b6 v=80
48555 On ch=1 n=d#7 v=79
48555 On ch=1 n=d#5 v=64
48570 On ch=1 n=b5 v=58
48570 On ch=1 n=b4 v=53
48585 On ch=1 n=b6 v=0
48605 On ch=1 n=b5 v=0
48605 On ch=1 n=d#7 v=0
48605 On ch=1 n=d#6 v=0
48610 On ch=1 n=b4 v=0
48630 On ch=1 n=d#5 v=0
48650 On ch=1 n=d#7 v=97
48650 On ch=1 n=d#6 v=91
48665 On ch=1 n=b6 v=88
48670 On ch=1 n=d#5 v=36
48670 On ch=1 n=b5 v=64
48680 On ch=1 n=b4 v=59
48715 On ch=1 n=b4 v=0
48735 On ch=1 n=b6 v=0
48745 On ch=1 n=b5 v=0
48750 On ch=1 n=d#5 v=0
48755 On ch=1 n=d#6 v=0
48760 On ch=1 n=d#7 v=0
48995 On ch=1 n=c#6 v=83
48995 On ch=1 n=c#7 v=85
49000 On ch=1 n=a5 v=76
49000 On ch=1 n=c#5 v=67
49005 On ch=1 n=a6 v=78
49015 On ch=1 n=a4 v=51
49035 On ch=1 n=c#5 v=0
49035 On ch=1 n=a5 v=0
49050 On ch=1 n=a6 v=0
49055 On ch=1 n=a4 v=0
49055 On ch=1 n=c#6 v=0
49065 On ch=1 n=c#7 v=0
49075 Par ch=1 c=64 v=56
49095 Par ch=1 c=64 v=0
49110 On ch=1 n=c#7 v=90
49110 On ch=1 n=c#6 v=80
49125 On ch=1 n=a6 v=84
49130 On ch=1 n=c#5 v=60
49130 On ch=1 n=a4 v=40
49130 On ch=1 n=a5 v=59
49135 Par ch=1 c=64 v=56
49150 Par ch=1 c=64 v=104
49170 On ch=1 n=a4 v=0
49175 Par ch=1 c=64 v=127
49190 On ch=1 n=a5 v=0
49200 On ch=1 n=c#5 v=0
49200 On ch=1 n=a6 v=0
49200 On ch=1 n=c#6 v=0
49210 On ch=1 n=c#7 v=0
49410 On ch=1 n=a6 v=90
49410 On ch=1 n=a5 v=89
49410 On ch=1 n=f#5 v=78
49420 On ch=1 n=f#6 v=69
49420 On ch=1 n=a4 v=67
49430 On ch=1 n=f#4 v=50
49450 On ch=1 n=f#6 v=0
49460 On ch=1 n=f#4 v=0
49460 On ch=1 n=a5 v=0
49460 Par ch=1 c=64 v=104
49465 On ch=1 n=a4 v=0
49470 On ch=1 n=f#5 v=0
49480 On ch=1 n=a6 v=0
49480 Par ch=1 c=64 v=56
49510 On ch=1 n=a6 v=83
49520 On ch=1 n=f#6 v=60
49520 On ch=1 n=a5 v=100
49520 Par ch=1 c=64 v=104
49525 On ch=1 n=f#4 v=63
49530 On ch=1 n=f#5 v=59
49540 Par ch=1 c=64 v=127
49545 On ch=1 n=a4 v=70
49575 On ch=1 n=a4 v=0
49605 On ch=1 n=f#5 v=0
49605 On ch=1 n=f#4 v=0
49605 On ch=1 n=a5 v=0
49605 On ch=1 n=a6 v=0
49620 On ch=1 n=f#6 v=0
49810 On ch=1 n=g#4 v=69
49810 On ch=1 n=g#5 v=79
49810 On ch=1 n=e5 v=75
49815 On ch=1 n=e6 v=86
49825 On ch=1 n=g#6 v=77
49845 On ch=1 n=e5 v=0
49845 On ch=1 n=g#4 v=0
49850 On ch=1 n=e6 v=0
49865 On ch=1 n=g#6 v=0
49865 On ch=1 n=g#5 v=0
49880 Par ch=1 c=64 v=56
49900 Par ch=1 c=64 v=24
49920 On ch=1 n=g#6 v=93
49920 Par ch=1 c=64 v=56
49925 On ch=1 n=g#5 v=78
49935 On ch=1 n=e6 v=82
49940 Par ch=1 c=64 v=104
49945 On ch=1 n=e5 v=60
49945 On ch=1 n=g#4 v=56
49960 On ch=1 n=e4 v=47
49960 Par ch=1 c=64 v=127
49985 On ch=1 n=e5 v=0
50000 On ch=1 n=e4 v=0
50005 On ch=1 n=g#5 v=0
50015 On ch=1 n=e6 v=0
50020 On ch=1 n=g#4 v=0
50035 On ch=1 n=g#6 v=0
50215 On ch=1 n=c#5 v=61
50215 On ch=1 n=e5 v=87
50220 On ch=1 n=e6 v=88
50225 On ch=1 n=e4 v=59
50230 On ch=1 n=c#4 v=47
50235 On ch=1 n=c#6 v=47
50240 Par ch=1 c=64 v=56
50255 On ch=1 n=e6 v=0
50255 On ch=1 n=e5 v=0
50260 Par ch=1 c=64 v=24
50265 On ch=1 n=c#6 v=0
50265 On ch=1 n=e4 v=0
50270 On ch=1 n=c#4 v=0
50270 On ch=1 n=c#5 v=0
50280 Par ch=1 c=64 v=56
50300 Par ch=1 c=64 v=104
50310 On ch=1 n=e6 v=87
50320 On ch=1 n=e5 v=75
50320 On ch=1 n=c#6 v=79
50320 Par ch=1 c=64 v=127
50330 On ch=1 n=c#4 v=42
50330 On ch=1 n=e4 v=69
50330 On ch=1 n=c#5 v=64
50395 On ch=1 n=c#4 v=0
50405 On ch=1 n=c#5 v=0
50405 On ch=1 n=e5 v=0
50415 On ch=1 n=e6 v=0
50420 On ch=1 n=e4 v=0
50435 On ch=1 n=c#6 v=0
50580 Par ch=1 c=64 v=104
50600 On ch=1 n=b4 v=75
50600 On ch=1 n=d#5 v=77
50600 On ch=1 n=d#4 v=73
50600 Par ch=1 c=64 v=24
50605 On ch=1 n=b5 v=80
50615 On ch=1 n=d#6 v=71
50615 On ch=1 n=b3 v=54
50620 Par ch=1 c=64 v=0
50635 On ch=1 n=d#4 v=0
50635 On ch=1 n=b4 v=0
50640 On ch=1 n=b5 v=0
50640 Par ch=1 c=64 v=56
50650 On ch=1 n=b3 v=0
50655 On ch=1 n=d#6 v=0
50660 On ch=1 n=d#5 v=0
50660 Par ch=1 c=64 v=104
50680 Par ch=1 c=64 v=127
50705 On ch=1 n=d#6 v=89
50710 On ch=1 n=d#5 v=85
50725 On ch=1 n=b5 v=73
50725 On ch=1 n=b3 v=59
50730 On ch=1 n=d#4 v=69
50730 On ch=1 n=b4 v=60
50760 On ch=1 n=b3 v=0
50760 On ch=1 n=b5 v=0
50790 On ch=1 n=b4 v=0
50810 On ch=1 n=d#4 v=0
50810 On ch=1 n=d#6 v=0
50835 On ch=1 n=d#5 v=0
50980 Par ch=1 c=64 v=56
50990 On ch=1 n=c#5 v=74
50990 On ch=1 n=a4 v=74
50990 On ch=1 n=c#4 v=77
51000 On ch=1 n=c#6 v=73
51000 On ch=1 n=a3 v=66
51000 Par ch=1 c=64 v=0
51005 On ch=1 n=a5 v=74
51020 Par ch=1 c=64 v=40
51030 On ch=1 n=a4 v=0
51040 On ch=1 n=a5 v=0
51040 On ch=1 n=a3 v=0
51040 Par ch=1 c=64 v=72
51050 On ch=1 n=c#4 v=0
51055 On ch=1 n=c#5 v=0
51060 On ch=1 n=c#6 v=0
51060 Par ch=1 c=64 v=127
51100 On ch=1 n=c#6 v=96
51105 On ch=1 n=c#5 v=76
51115 On ch=1 n=a5 v=77
51115 On ch=1 n=a3 v=59
51115 On ch=1 n=c#4 v=70
51125 On ch=1 n=a4 v=64
51165 On ch=1 n=a3 v=0
51185 On ch=1 n=a4 v=0
51195 On ch=1 n=c#4 v=0
51200 On ch=1 n=a5 v=0
51210 On ch=1 n=c#6 v=0
51235 On ch=1 n=c#5 v=0
51385 On ch=1 n=a5 v=89
51385 On ch=1 n=a4 v=83
51385 On ch=1 n=f#5 v=64
51385 Par ch=1 c=64 v=88
51395 On ch=1 n=f#4 v=85
51405 On ch=1 n=a3 v=93
51405 On ch=1 n=f#3 v=73
51405 Par ch=1 c=64 v=0
51415 On ch=1 n=a5 v=0
51420 On ch=1 n=f#5 v=0
51420 On ch=1 n=a4 v=0
51445 Par ch=1 c=64 v=24
51460 On ch=1 n=f#3 v=0
51460 On ch=1 n=a3 v=0
51460 On ch=1 n=f#4 v=0
51465 Par ch=1 c=64 v=72
51480 On ch=1 n=a5 v=94
51480 Par ch=1 c=64 v=127
51485 On ch=1 n=a4 v=80
51490 On ch=1 n=f#5 v=58
51535 On ch=1 n=f#4 v=63
51535 On ch=1 n=f#3 v=49
51540 On ch=1 n=a3 v=81
51580 On ch=1 n=a4 v=0
51580 On ch=1 n=a5 v=0
51605 On ch=1 n=f#3 v=0
51620 On ch=1 n=f#4 v=0
51625 On ch=1 n=a3 v=0
51625 On ch=1 n=f#5 v=0
51755 On ch=1 n=g#4 v=84
51760 On ch=1 n=e5 v=89
51760 Par ch=1 c=64 v=24
51765 On ch=1 n=g#5 v=79
51770 On ch=1 n=e4 v=82
51770 On ch=1 n=g#3 v=69
51785 Par ch=1 c=64 v=0
51790 On ch=1 n=e3 v=60
51805 On ch=1 n=e4 v=0
51810 On ch=1 n=g#3 v=0
51815 On ch=1 n=e5 v=0
51820 On ch=1 n=e3 v=0
51820 On ch=1 n=g#4 v=0
51825 On ch=1 n=g#5 v=0
51825 Par ch=1 c=64 v=56
51845 Par ch=1 c=64 v=127
51870 On ch=1 n=g#5 v=91
51875 On ch=1 n=g#4 v=85
51885 On ch=1 n=e5 v=93
51885 On ch=1 n=e3 v=53
51905 On ch=1 n=g#3 v=60
51905 On ch=1 n=e4 v=63
51945 On ch=1 n=e4 v=0
51945 On ch=1 n=e3 v=0
51970 On ch=1 n=g#5 v=0
51975 On ch=1 n=g#3 v=0
51975 On ch=1 n=e5 v=0
51980 On ch=1 n=g#4 v=0
52120 On ch=1 n=c#4 v=81
52125 Par ch=1 c=64 v=0
52135 On ch=1 n=e4 v=87
52135 On ch=1 n=c#5 v=68
52140 On ch=1 n=e5 v=82
52140 On ch=1 n=e3 v=59
52170 On ch=1 n=e3 v=0
52170 On ch=1 n=e5 v=0
52170 On ch=1 n=c#5 v=0
52170 On ch=1 n=e4 v=0
52175 On ch=1 n=c#4 v=0
52180 Par ch=1 c=64 v=40
52205 Par ch=1 c=64 v=104
52225 Par ch=1 c=64 v=127
52245 On ch=1 n=c#4 v=72
52245 On ch=1 n=e3 v=63
52245 On ch=1 n=e4 v=72
52245 On ch=1 n=c#5 v=57
52245 On ch=1 n=c#3 v=49
52245 On ch=1 n=e5 v=93
52320 On ch=1 n=c#4 v=0
52330 On ch=1 n=e3 v=0
52340 On ch=1 n=c#3 v=0
52340 On ch=1 n=e4 v=0
52345 On ch=1 n=e5 v=0
52375 On ch=1 n=c#5 v=0
52485 Par ch=1 c=64 v=24
52505 Par ch=1 c=64 v=0
52515 On ch=1 n=d#3 v=74
52515 On ch=1 n=d#4 v=82
52515 On ch=1 n=b4 v=83
52520 On ch=1 n=b3 v=85
52530 On ch=1 n=b2 v=59
52530 On ch=1 n=d#5 v=57
52540 Par ch=1 c=64 v=56
52550 On ch=1 n=b3 v=0
52550 On ch=1 n=b4 v=0
52560 On ch=1 n=d#5 v=0
52565 On ch=1 n=d#4 v=0
52565 Par ch=1 c=64 v=127
52570 On ch=1 n=b2 v=0
52580 On ch=1 n=d#3 v=0
52610 On ch=1 n=d#5 v=82
52610 On ch=1 n=d#4 v=95
52620 On ch=1 n=b4 v=84
52640 On ch=1 n=b2 v=55
52640 On ch=1 n=d#3 v=80
52645 On ch=1 n=b3 v=83
52695 On ch=1 n=b4 v=0
52710 On ch=1 n=b2 v=0
52715 On ch=1 n=b3 v=0
52735 On ch=1 n=d#3 v=0
52735 On ch=1 n=d#5 v=0
52745 On ch=1 n=d#4 v=0
52925 On ch=1 n=e3 v=79
52925 Par ch=1 c=64 v=88
52930 On ch=1 n=c#4 v=86
52935 On ch=1 n=a3 v=84
52940 On ch=1 n=a4 v=78
52940 On ch=1 n=c#5 v=82
52945 On ch=1 n=a2 v=68
52945 Par ch=1 c=64 v=24
52965 Par ch=1 c=64 v=40
52985 On ch=1 n=a2 v=0
52985 On ch=1 n=a3 v=0
52985 Par ch=1 c=64 v=104
53005 On ch=1 n=e3 v=0
53005 Par ch=1 c=64 v=127
53010 On ch=1 n=c#5 v=0
53010 On ch=1 n=c#4 v=0
53020 On ch=1 n=a4 v=0
53080 On ch=1 n=c#5 v=81
53085 On ch=1 n=c#4 v=96
53085 On ch=1 n=a4 v=84
53105 Par ch=1 c=64 v=0
53110 On ch=1 n=e3 v=74
53115 On ch=1 n=a3 v=87
53115 On ch=1 n=a2 v=77
53195 On ch=1 n=a2 v=0
53205 Par ch=1 c=64 v=72
53220 On ch=1 n=e3 v=0
53225 Par ch=1 c=64 v=127
53240 On ch=1 n=a3 v=0
53385 Par ch=1 c=64 v=72
53405 Par ch=1 c=64 v=0
53475 On ch=1 n=g3 v=93
53485 On ch=1 n=g2 v=78
53505 Par ch=1 c=64 v=104
53525 Par ch=1 c=64 v=127
53580 On ch=1 n=g2 v=0
53605 On ch=1 n=g3 v=0
53605 On ch=1 n=a4 v=0
53610 On ch=1 n=c#4 v=0
53620 On ch=1 n=c#5 v=0
53875 On ch=1 n=d5 v=102
53885 On ch=1 n=d4 v=97
53890 On ch=1 n=f4 v=82
53890 On ch=1 n=a4 v=82
53905 Par ch=1 c=64 v=0
53910 On ch=1 n=f3 v=90
53910 On ch=1 n=f2 v=79
54005 On ch=1 n=f2 v=0
54005 Par ch=1 c=64 v=56
54025 On ch=1 n=f3 v=0
54025 Par ch=1 c=64 v=127
54300 On ch=1 n=e3 v=89
54310 On ch=1 n=f4 v=0
54310 On ch=1 n=e2 v=83
54375 On ch=1 n=a4 v=0
54385 On ch=1 n=e2 v=0
54390 On ch=1 n=d4 v=0
54395 On ch=1 n=e3 v=0
54420 On ch=1 n=d5 v=0
54780 On ch=1 n=f#5 v=91
54785 Par ch=1 c=64 v=88
54790 On ch=1 n=f#4 v=93
54800 On ch=1 n=d5 v=83
54800 On ch=1 n=d3 v=97
54805 On ch=1 n=d2 v=86
54805 Par ch=1 c=64 v=0
54810 On ch=1 n=a4 v=79
54910 On ch=1 n=d2 v=0
54925 On ch=1 n=d3 v=0
54930 Par ch=1 c=64 v=104
54945 Par ch=1 c=64 v=127
55250 On ch=1 n=c#3 v=96
55255 On ch=1 n=c#2 v=85
55365 On ch=1 n=a4 v=0
55410 On ch=1 n=d5 v=0
55430 On ch=1 n=c#2 v=0
55430 On ch=1 n=f#4 v=0
55460 On ch=1 n=c#3 v=0
55460 On ch=1 n=f#5 v=0
55765 Par ch=1 c=64 v=24
55785 Par ch=1 c=64 v=0
55815 On ch=1 n=g#5 v=95
55820 On ch=1 n=d#5 v=82
55825 On ch=1 n=c2 v=82
55825 On ch=1 n=f#4 v=87
55825 On ch=1 n=g#4 v=79
55830 On ch=1 n=c3 v=86
55840 On ch=1 n=c5 v=79
55905 Par ch=1 c=64 v=88
55910 On ch=1 n=c2 v=0
55925 Par ch=1 c=64 v=127
55930 On ch=1 n=c3 v=0
56490 On ch=1 n=a3 v=90
56505 On ch=1 n=a2 v=74
56685 Par ch=1 c=64 v=72
56705 Par ch=1 c=64 v=0
56905 Par ch=1 c=64 v=127
57510 On ch=1 n=a3 v=0
58305 On ch=1 n=a2 v=0
58345 On ch=1 n=g#2 v=41
58350 On ch=1 n=g#3 v=43
58490 Par ch=1 c=64 v=56
58510 Par ch=1 c=64 v=0
59285 On ch=1 n=g#2 v=0
59285 On ch=1 n=c5 v=0
59285 On ch=1 n=g#5 v=0
59305 On ch=1 n=g#4 v=0
59310 On ch=1 n=g#3 v=0
59310 On ch=1 n=f#4 v=0
59315 On ch=1 n=d#5 v=0
59765 Par ch=1 c=64 v=24
59790 Par ch=1 c=64 v=56
59805 Par ch=1 c=64 v=88
59825 Par ch=1 c=64 v=104
59840 Par ch=1 c=64 v=127
59890 On ch=1 n=c#5 v=62
59950 On ch=1 n=c#5 v=0
60035 On ch=1 n=c#5 v=84
60070 On ch=1 n=e4 v=65
60075 On ch=1 n=g#4 v=36
60085 On ch=1 n=c#3 v=40
60090 On ch=1 n=c#4 v=36
60100 On ch=1 n=g#3 v=37
60115 Par ch=1 c=64 v=104
60130 Par ch=1 c=64 v=24
60150 Par ch=1 c=64 v=0
60245 Par ch=1 c=64 v=56
60260 Par ch=1 c=64 v=127
60285 On ch=1 n=c#3 v=0
60300 On ch=1 n=c#4 v=0
60300 On ch=1 n=e4 v=0
60310 On ch=1 n=g#3 v=0
60325 On ch=1 n=g#4 v=0
60350 On ch=1 n=c#5 v=0
61075 On ch=1 n=f#5 v=79
61125 On ch=1 n=c3 v=54
61160 On ch=1 n=f#5 v=0
61230 On ch=1 n=f#5 v=83
61245 On ch=1 n=a4 v=66
61250 On ch=1 n=f#4 v=45
61280 On ch=1 n=a3 v=43
61280 Par ch=1 c=64 v=56
61300 On ch=1 n=d#4 v=60
61300 Par ch=1 c=64 v=0
61440 On ch=1 n=c3 v=0
61480 Par ch=1 c=64 v=88
61490 On ch=1 n=d#4 v=0
61500 Par ch=1 c=64 v=127
61505 On ch=1 n=a3 v=0
61765 On ch=1 n=a4 v=0
61810 On ch=1 n=f#4 v=0
61845 On ch=1 n=f#5 v=0
62250 On ch=1 n=e5 v=74
62300 On ch=1 n=e5 v=0
62340 Par ch=1 c=64 v=40
62355 Par ch=1 c=64 v=0
62365 On ch=1 n=e5 v=89
62380 On ch=1 n=e4 v=68
62380 On ch=1 n=g#4 v=59
62410 On ch=1 n=c#4 v=47
62415 On ch=1 n=c#3 v=49
62415 On ch=1 n=g#3 v=40
62450 Par ch=1 c=64 v=56
62465 On ch=1 n=g#3 v=0
62470 Par ch=1 c=64 v=127
62480 On ch=1 n=e4 v=0
62485 On ch=1 n=c#4 v=0
62500 On ch=1 n=e5 v=0
62505 On ch=1 n=g#4 v=0
62515 On ch=1 n=c#3 v=0
62760 On ch=1 n=d#5 v=79
62760 On ch=1 n=f#2 v=44
62825 On ch=1 n=d#5 v=0
62835 On ch=1 n=f#2 v=0
62850 Par ch=1 c=64 v=0
62880 On ch=1 n=d#5 v=85
62900 On ch=1 n=f#4 v=65
62900 On ch=1 n=d#4 v=69
62905 On ch=1 n=a3 v=60
62915 On ch=1 n=f#3 v=52
62925 Par ch=1 c=64 v=56
62945 Par ch=1 c=64 v=127
62995 On ch=1 n=f#4 v=0
63025 On ch=1 n=f#3 v=0
63025 On ch=1 n=a3 v=0
63030 On ch=1 n=d#5 v=0
63035 On ch=1 n=d#4 v=0
63260 On ch=1 n=c#5 v=79
63325 On ch=1 n=c#5 v=0
63380 On ch=1 n=c#5 v=77
63400 On ch=1 n=c#4 v=59
63400 On ch=1 n=e4 v=69
63420 On ch=1 n=g#3 v=37
63425 On ch=1 n=g#2 v=43
63430 On ch=1 n=e3 v=46
63430 Par ch=1 c=64 v=72
63455 Par ch=1 c=64 v=0
63540 On ch=1 n=e4 v=0
63545 Par ch=1 c=64 v=40
63560 Par ch=1 c=64 v=127
63565 On ch=1 n=e3 v=0
63585 On ch=1 n=c#4 v=0
63590 On ch=1 n=g#3 v=0
63600 On ch=1 n=c#5 v=0
63625 On ch=1 n=g#2 v=0
63780 On ch=1 n=c5 v=74
63850 On ch=1 n=c5 v=0
63910 On ch=1 n=c5 v=84
63925 On ch=1 n=d#4 v=64
63925 Par ch=1 c=64 v=104
63930 On ch=1 n=c4 v=62
63930 On ch=1 n=f#3 v=46
63940 On ch=1 n=g#2 v=30
63940 On ch=1 n=g#3 v=25
63945 Par ch=1 c=64 v=24
63955 On ch=1 n=d#3 v=37
63965 Par ch=1 c=64 v=0
64035 On ch=1 n=c4 v=0
64055 Par ch=1 c=64 v=127
64065 On ch=1 n=d#3 v=0
64065 On ch=1 n=c5 v=0
64070 On ch=1 n=g#2 v=0
64075 On ch=1 n=g#3 v=0
64075 On ch=1 n=f#3 v=0
64085 On ch=1 n=d#4 v=0
64325 On ch=1 n=c#5 v=73
64400 On ch=1 n=c#5 v=0
64500 On ch=1 n=c#5 v=76
64515 On ch=1 n=c#4 v=53
64515 On ch=1 n=e4 v=64
64535 On ch=1 n=c#3 v=39
64540 On ch=1 n=g#3 v=35
64540 On ch=1 n=e3 v=41
64640 Par ch=1 c=64 v=40
64660 Par ch=1 c=64 v=0
64765 Par ch=1 c=64 v=40
64785 Par ch=1 c=64 v=127
64800 On ch=1 n=c#5 v=0
64810 On ch=1 n=e3 v=0
64815 On ch=1 n=e4 v=0
64825 On ch=1 n=g#3 v=0
64855 On ch=1 n=c#3 v=0
64855 On ch=1 n=c#4 v=0
65215 On ch=1 n=c#4 v=74
65275 Par ch=1 c=64 v=88
65295 On ch=1 n=f#2 v=41
65295 On ch=1 n=c#3 v=40
65295 On ch=1 n=f#3 v=43
65295 Par ch=1 c=64 v=0
65300 On ch=1 n=c#4 v=0
65365 Par ch=1 c=64 v=24
65370 On ch=1 n=c#4 v=80
65385 Par ch=1 c=64 v=104
65390 On ch=1 n=a3 v=58
65405 Par ch=1 c=64 v=127
65535 On ch=1 n=a3 v=0
65615 On ch=1 n=c#4 v=0
65620 On ch=1 n=d#4 v=61
65715 On ch=1 n=c#4 v=60
65720 On ch=1 n=d#4 v=0
65785 On ch=1 n=c#4 v=0
65795 On ch=1 n=d#4 v=54
65880 On ch=1 n=d#4 v=0
65880 On ch=1 n=c#4 v=56
65955 On ch=1 n=c#4 v=0
65955 On ch=1 n=d#4 v=55
66020 On ch=1 n=c#4 v=54
66030 On ch=1 n=d#4 v=0
66105 On ch=1 n=c#4 v=0
66110 On ch=1 n=d#4 v=68
66215 On ch=1 n=d#4 v=0
66215 On ch=1 n=c#4 v=57
66300 On ch=1 n=c#4 v=0
66320 On ch=1 n=c4 v=74
66320 Par ch=1 c=64 v=72
66335 Par ch=1 c=64 v=0
66425 On ch=1 n=c#4 v=69
66425 Par ch=1 c=64 v=40
66440 On ch=1 n=c4 v=0
66445 Par ch=1 c=64 v=72
66500 Par ch=1 c=64 v=0
66540 On ch=1 n=e4 v=60
66555 On ch=1 n=c#4 v=0
66645 Par ch=1 c=64 v=72
66660 Par ch=1 c=64 v=127
66680 On ch=1 n=d#4 v=67
66690 On ch=1 n=e4 v=0
66780 On ch=1 n=d#4 v=0
66795 On ch=1 n=f#2 v=0
66800 On ch=1 n=c#3 v=0
66810 On ch=1 n=f#3 v=0
66820 On ch=1 n=c#4 v=67
66905 On ch=1 n=c#4 v=0
67015 On ch=1 n=c#4 v=62
67020 On ch=1 n=g#3 v=44
67050 On ch=1 n=c#3 v=37
67055 On ch=1 n=e3 v=37
67065 Par ch=1 c=64 v=104
67080 Par ch=1 c=64 v=40
67105 Par ch=1 c=64 v=0
67210 Par ch=1 c=64 v=72
67230 Par ch=1 c=64 v=127
67375 On ch=1 n=c#3 v=0
67380 On ch=1 n=g#3 v=0
67385 On ch=1 n=c#4 v=0
67395 On ch=1 n=e3 v=0
68270 Par ch=1 c=64 v=56
68285 Par ch=1 c=64 v=0
68415 Par ch=1 c=64 v=56
68430 Par ch=1 c=64 v=127
68605 On ch=1 n=g#5 v=81
68680 On ch=1 n=g#5 v=0
68760 On ch=1 n=g#5 v=85
68785 On ch=1 n=d#5 v=57
68785 On ch=1 n=b4 v=64
68790 On ch=1 n=g#4 v=42
68790 On ch=1 n=g#3 v=49
68795 On ch=1 n=d#4 v=49
68825 On ch=1 n=b4 v=0
68850 Par ch=1 c=64 v=88
68870 Par ch=1 c=64 v=0
68980 Par ch=1 c=64 v=56
69000 Par ch=1 c=64 v=127
69030 On ch=1 n=g#3 v=0
69060 On ch=1 n=g#4 v=0
69070 On ch=1 n=d#4 v=0
69075 On ch=1 n=d#5 v=0
69140 On ch=1 n=g#5 v=0
69785 On ch=1 n=c#6 v=88
69820 On ch=1 n=g3 v=55
69885 On ch=1 n=c#6 v=0
69945 On ch=1 n=e4 v=42
69960 On ch=1 n=c#6 v=89
69975 On ch=1 n=c#5 v=67
69975 On ch=1 n=e5 v=75
69985 Par ch=1 c=64 v=104
69995 On ch=1 n=a#4 v=26
70000 Par ch=1 c=64 v=56
70020 Par ch=1 c=64 v=0
70240 Par ch=1 c=64 v=72
70250 On ch=1 n=g3 v=0
70260 Par ch=1 c=64 v=127
70305 On ch=1 n=a#4 v=0
70330 On ch=1 n=e4 v=0
70380 On ch=1 n=e5 v=0
70405 On ch=1 n=c#5 v=0
70410 On ch=1 n=c#6 v=0
70815 On ch=1 n=b5 v=81
70875 On ch=1 n=b5 v=0
70930 Par ch=1 c=64 v=72
70945 On ch=1 n=b5 v=82
70950 Par ch=1 c=64 v=0
70960 On ch=1 n=g#4 v=48
70970 On ch=1 n=b4 v=69
70975 On ch=1 n=d#5 v=49
70980 On ch=1 n=g#3 v=38
70995 On ch=1 n=d#4 v=40
71005 Par ch=1 c=64 v=40
71015 On ch=1 n=d#5 v=0
71025 Par ch=1 c=64 v=88
71040 Par ch=1 c=64 v=127
71050 On ch=1 n=d#4 v=0
71060 On ch=1 n=b4 v=0
71060 On ch=1 n=g#4 v=0
71085 On ch=1 n=b5 v=0
71095 On ch=1 n=g#3 v=0
71310 On ch=1 n=a5 v=92
71320 On ch=1 n=c#3 v=52
71355 On ch=1 n=c#3 v=0
71370 On ch=1 n=a5 v=0
71370 Par ch=1 c=64 v=104
71390 Par ch=1 c=64 v=0
71430 On ch=1 n=a5 v=85
71450 On ch=1 n=c#5 v=57
71455 On ch=1 n=a4 v=63
71455 On ch=1 n=c#4 v=59
71460 On ch=1 n=e4 v=55
71465 Par ch=1 c=64 v=40
71480 Par ch=1 c=64 v=127
71485 On ch=1 n=a4 v=0
71520 On ch=1 n=c#5 v=0
71545 On ch=1 n=c#4 v=0
71545 On ch=1 n=a5 v=0
71580 On ch=1 n=e4 v=0
71760 On ch=1 n=g#5 v=76
71820 On ch=1 n=g#5 v=0
71880 On ch=1 n=g#5 v=80
71900 On ch=1 n=g#4 v=57
71915 On ch=1 n=b4 v=61
71915 On ch=1 n=d#4 v=49
71915 Par ch=1 c=64 v=72
71925 On ch=1 n=d#3 v=45
71925 On ch=1 n=b3 v=48
71935 Par ch=1 c=64 v=0
72030 On ch=1 n=b3 v=0
72030 Par ch=1 c=64 v=56
72045 On ch=1 n=d#3 v=0
72045 Par ch=1 c=64 v=127
72050 On ch=1 n=d#4 v=0
72060 On ch=1 n=b4 v=0
72075 On ch=1 n=g#5 v=0
72135 On ch=1 n=g#4 v=0
72240 On ch=1 n=g5 v=75
72310 On ch=1 n=g5 v=0
72370 On ch=1 n=g5 v=77
72385 On ch=1 n=g4 v=55
72390 On ch=1 n=c#4 v=39
72395 On ch=1 n=d#3 v=37
72395 On ch=1 n=a#4 v=49
72410 On ch=1 n=d#4 v=22
72410 Par ch=1 c=64 v=104
72430 Par ch=1 c=64 v=24
72450 Par ch=1 c=64 v=0
72460 On ch=1 n=a#3 v=20
72510 On ch=1 n=a#3 v=0
72540 On ch=1 n=g5 v=0
72540 Par ch=1 c=64 v=104
72555 On ch=1 n=g4 v=0
72555 Par ch=1 c=64 v=127
72560 On ch=1 n=d#4 v=0
72560 On ch=1 n=c#4 v=0
72580 On ch=1 n=d#3 v=0
72605 On ch=1 n=a#4 v=0
72775 On ch=1 n=g#5 v=73
72855 On ch=1 n=g#5 v=0
72940 On ch=1 n=g#5 v=73
72955 On ch=1 n=g#4 v=50
72960 On ch=1 n=b4 v=60
72975 On ch=1 n=d#4 v=42
72975 On ch=1 n=g#3 v=42
72980 On ch=1 n=b3 v=48
73085 Par ch=1 c=64 v=104
73105 Par ch=1 c=64 v=24
73120 Par ch=1 c=64 v=0
73200 On ch=1 n=b4 v=0
73200 On ch=1 n=g#5 v=0
73210 Par ch=1 c=64 v=88
73230 Par ch=1 c=64 v=127
73260 On ch=1 n=g#4 v=0
73275 On ch=1 n=b3 v=0
73280 On ch=1 n=d#4 v=0
73310 On ch=1 n=g#3 v=0
73500 On ch=1 n=g#4 v=68
73575 On ch=1 n=g#4 v=0
73640 On ch=1 n=g#4 v=53
73660 On ch=1 n=e4 v=54
73665 On ch=1 n=g#3 v=58
73665 On ch=1 n=c#3 v=53
73670 Par ch=1 c=64 v=40
73690 Par ch=1 c=64 v=0
73745 On ch=1 n=e4 v=0
73745 Par ch=1 c=64 v=56
73760 Par ch=1 c=64 v=104
73780 On ch=1 n=c#3 v=0
73780 Par ch=1 c=64 v=127
73800 On ch=1 n=g#3 v=0
73825 On ch=1 n=g#4 v=0
73840 On ch=1 n=a#3 v=49
73850 On ch=1 n=a#4 v=54
73900 On ch=1 n=a#3 v=0
73940 On ch=1 n=a#4 v=0
73955 On ch=1 n=g#3 v=33
73960 On ch=1 n=g#4 v=49
74005 On ch=1 n=g#3 v=0
74020 On ch=1 n=a#3 v=49
74040 On ch=1 n=g#4 v=0
74040 On ch=1 n=a#4 v=51
74060 On ch=1 n=a#3 v=0
74115 On ch=1 n=a#4 v=0
74115 On ch=1 n=g#3 v=33
74120 On ch=1 n=g#4 v=45
74150 On ch=1 n=g#3 v=0
74180 On ch=1 n=a#3 v=49
74195 On ch=1 n=g#4 v=0
74200 On ch=1 n=a#4 v=51
74220 On ch=1 n=a#3 v=0
74260 On ch=1 n=g#3 v=44
74290 On ch=1 n=a#4 v=0
74295 On ch=1 n=g#4 v=39
74300 On ch=1 n=g#3 v=0
74330 On ch=1 n=a#3 v=55
74370 On ch=1 n=g#4 v=0
74370 On ch=1 n=a#4 v=46
74390 On ch=1 n=a#3 v=0
74425 On ch=1 n=g#3 v=23
74440 On ch=1 n=a#4 v=0
74515 On ch=1 n=a#4 v=34
74545 On ch=1 n=g#4 v=10
74565 On ch=1 n=a#4 v=0
74640 On ch=1 n=g#3 v=0
74645 On ch=1 n=g#4 v=0
74665 On ch=1 n=g4 v=62
74670 On ch=1 n=g3 v=39
74760 On ch=1 n=g4 v=0
74770 On ch=1 n=g#4 v=62
74805 On ch=1 n=g3 v=0
74855 On ch=1 n=b3 v=53
74880 On ch=1 n=g#4 v=0
74910 On ch=1 n=b4 v=63
74925 On ch=1 n=b3 v=0
74985 On ch=1 n=a#3 v=42
75045 On ch=1 n=b4 v=0
75050 On ch=1 n=a#4 v=56
75130 On ch=1 n=a#3 v=0
75155 On ch=1 n=g#3 v=56
75170 On ch=1 n=a#4 v=0
75195 On ch=1 n=g#4 v=56
75230 On ch=1 n=g#3 v=0
75260 On ch=1 n=g#4 v=0
75425 On ch=1 n=g#4 v=51
75450 On ch=1 n=g#3 v=35
75460 On ch=1 n=b3 v=41
75470 On ch=1 n=d#3 v=33
75470 On ch=1 n=d#4 v=34
75475 On ch=1 n=g#2 v=32
75550 Par ch=1 c=64 v=88
75565 Par ch=1 c=64 v=24
75585 Par ch=1 c=64 v=0
75710 Par ch=1 c=64 v=72
75725 On ch=1 n=b3 v=0
75730 Par ch=1 c=64 v=127
75735 On ch=1 n=d#4 v=0
75740 On ch=1 n=g#2 v=0
75750 On ch=1 n=d#3 v=0
75750 On ch=1 n=g#3 v=0
75765 On ch=1 n=g#4 v=0
76755 Par ch=1 c=64 v=72
76770 Par ch=1 c=64 v=0
76890 On ch=1 n=g#5 v=74
76955 Par ch=1 c=64 v=127
77000 On ch=1 n=e3 v=56
77035 On ch=1 n=g#5 v=0
77055 On ch=1 n=b3 v=58
77080 On ch=1 n=e3 v=0
77110 On ch=1 n=b3 v=0
77155 On ch=1 n=g#4 v=64
77225 On ch=1 n=g#4 v=0
77265 On ch=1 n=b4 v=60
77350 On ch=1 n=e5 v=79
77360 On ch=1 n=b4 v=0
77480 On ch=1 n=g#5 v=82
77495 On ch=1 n=e5 v=0
77570 On ch=1 n=g#5 v=0
78445 On ch=1 n=a5 v=81
78540 On ch=1 n=a5 v=0
78825 On ch=1 n=b5 v=69
78855 On ch=1 n=b5 v=0
78935 On ch=1 n=b5 v=79
78995 On ch=1 n=b5 v=0
79075 On ch=1 n=e5 v=88
79235 Par ch=1 c=64 v=56
79250 Par ch=1 c=64 v=0
79365 Par ch=1 c=64 v=104
79380 Par ch=1 c=64 v=127
79455 On ch=1 n=e5 v=0
79955 On ch=1 n=d#5 v=71
79995 On ch=1 n=d#5 v=0
80035 Par ch=1 c=64 v=72
80055 Par ch=1 c=64 v=0
80060 On ch=1 n=b2 v=63
80075 On ch=1 n=d#5 v=81
80110 Par ch=1 c=64 v=127
80125 On ch=1 n=b2 v=0
80190 On ch=1 n=d#5 v=0
80300 On ch=1 n=f#5 v=84
80325 On ch=1 n=a4 v=57
80325 On ch=1 n=d#4 v=46
80475 Par ch=1 c=64 v=72
80490 Par ch=1 c=64 v=0
80565 Par ch=1 c=64 v=56
80580 Par ch=1 c=64 v=127
80640 On ch=1 n=d#4 v=0
80730 On ch=1 n=a4 v=0
80845 On ch=1 n=f#5 v=0
80950 On ch=1 n=e5 v=76
81080 On ch=1 n=e5 v=0
81120 On ch=1 n=f#5 v=72
81250 On ch=1 n=f#5 v=0
81265 On ch=1 n=g#5 v=75
81405 On ch=1 n=g#5 v=0
81415 On ch=1 n=f#5 v=73
81545 On ch=1 n=f#5 v=0
81555 On ch=1 n=e5 v=82
81635 On ch=1 n=e5 v=0
81735 On ch=1 n=e5 v=70
81755 On ch=1 n=g#4 v=45
81765 On ch=1 n=e3 v=44
81775 On ch=1 n=e4 v=32
81775 On ch=1 n=b3 v=37
81805 Par ch=1 c=64 v=104
81825 Par ch=1 c=64 v=40
81840 Par ch=1 c=64 v=0
82045 Par ch=1 c=64 v=72
82060 Par ch=1 c=64 v=127
82140 On ch=1 n=g#4 v=0
82155 On ch=1 n=e3 v=0
82170 On ch=1 n=e5 v=0
82180 On ch=1 n=e4 v=0
82190 On ch=1 n=b3 v=0
82730 On ch=1 n=e4 v=65
82740 On ch=1 n=g#5 v=81
82740 On ch=1 n=g#4 v=68
82750 On ch=1 n=e5 v=71
82770 On ch=1 n=e4 v=0
82780 On ch=1 n=e5 v=0
82790 On ch=1 n=g#4 v=0
82795 On ch=1 n=g#5 v=0
82845 On ch=1 n=g#5 v=86
82860 On ch=1 n=e5 v=73
82860 On ch=1 n=g#4 v=67
82875 On ch=1 n=e4 v=68
82885 Par ch=1 c=64 v=88
82895 On ch=1 n=b3 v=60
82895 On ch=1 n=e3 v=50
82900 Par ch=1 c=64 v=0
83030 Par ch=1 c=64 v=72
83045 Par ch=1 c=64 v=127
83130 On ch=1 n=e3 v=0
83145 On ch=1 n=e4 v=0
83155 On ch=1 n=e5 v=0
83160 On ch=1 n=b3 v=0
83165 On ch=1 n=g#4 v=0
83235 On ch=1 n=g#5 v=0
83585 On ch=1 n=a5 v=93
83595 On ch=1 n=f#5 v=71
83600 On ch=1 n=a4 v=66
83620 On ch=1 n=f#4 v=61
83635 On ch=1 n=a4 v=0
83660 On ch=1 n=f#5 v=0
83670 On ch=1 n=a5 v=0
83710 On ch=1 n=f#4 v=0
83770 On ch=1 n=b5 v=98
83780 On ch=1 n=g#4 v=68
83780 On ch=1 n=b4 v=74
83790 On ch=1 n=g#5 v=64
83815 On ch=1 n=b4 v=0
83840 On ch=1 n=g#4 v=0
83850 On ch=1 n=b5 v=0
83865 On ch=1 n=g#5 v=0
84040 On ch=1 n=c#6 v=93
84055 On ch=1 n=c#5 v=65
84060 On ch=1 n=a5 v=75
84065 Par ch=1 c=64 v=88
84075 On ch=1 n=a3 v=57
84080 On ch=1 n=e4 v=40
84080 On ch=1 n=a4 v=43
84085 Par ch=1 c=64 v=24
84105 Par ch=1 c=64 v=0
84235 Par ch=1 c=64 v=56
84250 Par ch=1 c=64 v=127
84285 On ch=1 n=c#5 v=0
84340 On ch=1 n=a3 v=0
84365 On ch=1 n=a4 v=0
84365 On ch=1 n=c#6 v=0
84390 On ch=1 n=e4 v=0
84395 On ch=1 n=a5 v=0
84510 On ch=1 n=c#6 v=87
84520 On ch=1 n=c#5 v=73
84530 On ch=1 n=a5 v=69
84550 On ch=1 n=a4 v=37
84565 On ch=1 n=a5 v=0
84575 On ch=1 n=c#5 v=0
84585 On ch=1 n=a4 v=0
84585 On ch=1 n=c#6 v=0
84615 On ch=1 n=c#6 v=84
84630 On ch=1 n=c#5 v=61
84630 On ch=1 n=a5 v=57
84655 On ch=1 n=a4 v=52
84720 On ch=1 n=a5 v=0
84730 On ch=1 n=c#5 v=0
84740 On ch=1 n=c#6 v=0
84760 On ch=1 n=a4 v=0
84845 On ch=1 n=b5 v=88
84860 On ch=1 n=g#4 v=60
84865 On ch=1 n=g#5 v=70
84865 On ch=1 n=b4 v=60
84915 On ch=1 n=b4 v=0
84930 On ch=1 n=b5 v=0
84955 On ch=1 n=g#5 v=0
84955 On ch=1 n=g#4 v=0
85020 On ch=1 n=a#5 v=82
85025 On ch=1 n=g5 v=82
85030 On ch=1 n=a#4 v=66
85030 On ch=1 n=g4 v=69
85070 On ch=1 n=g4 v=0
85070 On ch=1 n=a#4 v=0
85090 On ch=1 n=g5 v=0
85140 On ch=1 n=a#5 v=0
85250 On ch=1 n=b5 v=90
85265 On ch=1 n=b4 v=66
85270 On ch=1 n=g#5 v=58
85290 Par ch=1 c=64 v=40
85295 On ch=1 n=g#4 v=40
85300 On ch=1 n=g#3 v=53
85310 Par ch=1 c=64 v=0
85320 On ch=1 n=e4 v=52
85470 Par ch=1 c=64 v=88
85490 Par ch=1 c=64 v=127
85505 On ch=1 n=e4 v=0
85505 On ch=1 n=g#4 v=0
85515 On ch=1 n=b5 v=0
85540 On ch=1 n=g#3 v=0
85545 On ch=1 n=g#5 v=0
85570 On ch=1 n=b4 v=0
85730 On ch=1 n=c#3 v=55
85855 On ch=1 n=c#3 v=0
85860 Par ch=1 c=64 v=72
85875 Par ch=1 c=64 v=0
85880 On ch=1 n=e5 v=86
85880 On ch=1 n=c#5 v=72
85885 On ch=1 n=g#4 v=56
85920 On ch=1 n=e4 v=59
85950 Par ch=1 c=64 v=56
85965 Par ch=1 c=64 v=127
85975 On ch=1 n=g#4 v=0
85980 On ch=1 n=c#5 v=0
86015 On ch=1 n=e4 v=0
86110 On ch=1 n=e5 v=0
86195 On ch=1 n=d#5 v=74
86320 On ch=1 n=e5 v=85
86330 Par ch=1 c=64 v=0
86355 On ch=1 n=d#5 v=0
86400 Par ch=1 c=64 v=56
86420 Par ch=1 c=64 v=127
86440 On ch=1 n=f#5 v=80
86455 On ch=1 n=e5 v=0
86490 On ch=1 n=b2 v=60
86540 On ch=1 n=b2 v=0
86555 On ch=1 n=e5 v=74
86590 On ch=1 n=f#5 v=0
86650 On ch=1 n=e5 v=0
86655 On ch=1 n=d#5 v=76
86725 On ch=1 n=d#5 v=0
86790 On ch=1 n=f#4 v=49
86790 On ch=1 n=d#5 v=72
86815 On ch=1 n=a4 v=65
86860 Par ch=1 c=64 v=72
86880 Par ch=1 c=64 v=0
87005 Par ch=1 c=64 v=56
87025 Par ch=1 c=64 v=127
87210 On ch=1 n=f#4 v=0
87225 On ch=1 n=d#5 v=0
87275 On ch=1 n=a4 v=0
87390 On ch=1 n=e5 v=74
87530 On ch=1 n=e5 v=0
87760 On ch=1 n=g#5 v=71
87785 On ch=1 n=a4 v=58
87800 On ch=1 n=d#4 v=43
87810 On ch=1 n=b3 v=49
87900 Par ch=1 c=64 v=72
87915 Par ch=1 c=64 v=0
88015 On ch=1 n=g#5 v=0
88020 On ch=1 n=f#5 v=61
88300 Par ch=1 c=64 v=127
88460 On ch=1 n=d#4 v=0
88465 On ch=1 n=b3 v=0
88555 On ch=1 n=a4 v=0
88635 On ch=1 n=f#5 v=0
88795 On ch=1 n=e5 v=65
88880 On ch=1 n=e5 v=0
88990 Par ch=1 c=64 v=0
89030 On ch=1 n=e5 v=65
89045 On ch=1 n=g#4 v=39
89065 On ch=1 n=e4 v=43
89070 On ch=1 n=e3 v=45
89090 On ch=1 n=b3 v=46
89140 Par ch=1 c=64 v=104
89340 On ch=1 n=g#4 v=0
89355 On ch=1 n=e5 v=0
89360 On ch=1 n=e4 v=0
89370 On ch=1 n=e3 v=0
89385 On ch=1 n=b3 v=0
90905 On ch=1 n=e6 v=79
91070 Par ch=1 c=64 v=88
91080 On ch=1 n=e6 v=0
91085 Par ch=1 c=64 v=127
91090 On ch=1 n=e5 v=65
91140 On ch=1 n=c#3 v=51
91160 On ch=1 n=g#5 v=55
91185 On ch=1 n=e5 v=0
91215 On ch=1 n=c#6 v=77
91255 On ch=1 n=g#5 v=0
91255 On ch=1 n=c#3 v=0
91335 On ch=1 n=c#6 v=0
91335 On ch=1 n=e6 v=88
91755 On ch=1 n=e4 v=51
91765 On ch=1 n=e5 v=45
91765 On ch=1 n=c#5 v=40
91765 On ch=1 n=g#4 v=38
91860 On ch=1 n=e4 v=0
91870 On ch=1 n=e5 v=0
91885 On ch=1 n=g#4 v=0
91885 On ch=1 n=c#5 v=0
91895 On ch=1 n=e6 v=0
92295 On ch=1 n=f#6 v=84
92395 On ch=1 n=f#6 v=0
92615 On ch=1 n=g#6 v=86
92665 On ch=1 n=g#6 v=0
92760 On ch=1 n=g#6 v=84
92840 Par ch=1 c=64 v=104
92845 On ch=1 n=g#6 v=0
92855 Par ch=1 c=64 v=0
92885 On ch=1 n=c#6 v=90
92890 On ch=1 n=e3 v=54
92970 On ch=1 n=e3 v=0
92985 Par ch=1 c=64 v=56
93005 Par ch=1 c=64 v=127
93325 On ch=1 n=g#5 v=50
93325 On ch=1 n=g#4 v=48
93340 On ch=1 n=e5 v=44
93340 On ch=1 n=c#5 v=39
93405 On ch=1 n=c#6 v=0
93415 On ch=1 n=g#4 v=0
93415 On ch=1 n=g#5 v=0
93435 On ch=1 n=e5 v=0
93445 On ch=1 n=c#5 v=0
93875 On ch=1 n=c6 v=82
93950 On ch=1 n=c6 v=0
94005 On ch=1 n=c6 v=86
94080 Par ch=1 c=64 v=24
94100 Par ch=1 c=64 v=0
94125 On ch=1 n=c6 v=0
94140 On ch=1 n=g#2 v=52
94150 On ch=1 n=g#3 v=38
94150 On ch=1 n=c5 v=74
94190 Par ch=1 c=64 v=127
94205 On ch=1 n=f#5 v=61
94230 On ch=1 n=c5 v=0
94230 On ch=1 n=g#2 v=0
94240 On ch=1 n=g#3 v=0
94295 On ch=1 n=g#5 v=70
94310 On ch=1 n=f#5 v=0
94395 On ch=1 n=g#5 v=0
94425 On ch=1 n=d#6 v=91
94790 On ch=1 n=f#4 v=39
94805 On ch=1 n=d#5 v=42
94805 On ch=1 n=g#4 v=38
94810 On ch=1 n=c5 v=48
94860 On ch=1 n=c5 v=0
94870 On ch=1 n=g#4 v=0
94870 On ch=1 n=f#4 v=0
94885 On ch=1 n=d#6 v=0
94895 On ch=1 n=d#5 v=0
94955 On ch=1 n=c#6 v=76
95125 On ch=1 n=c#6 v=0
95130 On ch=1 n=d#6 v=70
95225 On ch=1 n=d#6 v=0
95225 On ch=1 n=e6 v=79
95340 On ch=1 n=e6 v=0
95340 On ch=1 n=d#6 v=85
95400 On ch=1 n=d#6 v=0
95550 On ch=1 n=d#6 v=70
95630 On ch=1 n=c#6 v=80
95650 On ch=1 n=d#6 v=0
95690 On ch=1 n=c#6 v=0
96050 On ch=1 n=c6 v=71
96115 On ch=1 n=c6 v=0
96180 On ch=1 n=c#6 v=71
96195 On ch=1 n=e5 v=51
96195 Par ch=1 c=64 v=56
96200 On ch=1 n=g#5 v=50
96215 Par ch=1 c=64 v=0
96230 On ch=1 n=c#3 v=45
96235 On ch=1 n=c#4 v=39
96340 On ch=1 n=c#3 v=0
96340 Par ch=1 c=64 v=72
96350 On ch=1 n=c#4 v=0
96360 Par ch=1 c=64 v=127
96385 On ch=1 n=e5 v=0
96450 On ch=1 n=g#5 v=0
96765 On ch=1 n=e4 v=30
96770 On ch=1 n=c#5 v=28
96780 On ch=1 n=e5 v=35
96795 On ch=1 n=g#4 v=29
96890 Par ch=1 c=64 v=24
96910 Par ch=1 c=64 v=0
96980 Par ch=1 c=64 v=40
96990 On ch=1 n=e4 v=0
97000 Par ch=1 c=64 v=127
97015 On ch=1 n=e5 v=0
97045 On ch=1 n=g#4 v=0
97050 On ch=1 n=c#5 v=0
97105 On ch=1 n=c#6 v=0
97455 Par ch=1 c=64 v=24
97475 Par ch=1 c=64 v=0
97530 On ch=1 n=f5 v=88
97535 On ch=1 n=c#4 v=67
97555 On ch=1 n=c#5 v=56
97555 On ch=1 n=b4 v=58
97560 On ch=1 n=g#4 v=30
97565 Par ch=1 c=64 v=72
97580 Par ch=1 c=64 v=127
97595 On ch=1 n=g#4 v=0
97595 On ch=1 n=c#4 v=0
97620 On ch=1 n=c#5 v=0
97625 On ch=1 n=b4 v=0
97670 On ch=1 n=f5 v=0
97765 Par ch=1 c=64 v=72
97785 On ch=1 n=f#5 v=95
97785 Par ch=1 c=64 v=0
97790 On ch=1 n=a4 v=68
97795 On ch=1 n=c#5 v=76
97810 On ch=1 n=c#4 v=67
97815 On ch=1 n=f#3 v=65
97820 On ch=1 n=f#4 v=59
97830 On ch=1 n=a4 v=0
97840 On ch=1 n=c#5 v=0
97855 Par ch=1 c=64 v=24
97875 Par ch=1 c=64 v=104
97880 On ch=1 n=f#3 v=0
97880 On ch=1 n=c#4 v=0
97880 On ch=1 n=f#5 v=0
97890 On ch=1 n=f#4 v=0
97895 Par ch=1 c=64 v=127
98155 On ch=1 n=f#6 v=77
98160 On ch=1 n=a5 v=86
98160 On ch=1 n=a6 v=88
98170 On ch=1 n=f#5 v=68
98195 On ch=1 n=a6 v=0
98195 On ch=1 n=a5 v=0
98195 On ch=1 n=f#6 v=0
98220 On ch=1 n=f#5 v=0
98260 On ch=1 n=a6 v=96
98275 On ch=1 n=a5 v=81
98275 On ch=1 n=f#6 v=74
98280 On ch=1 n=f#5 v=67
98330 On ch=1 n=a5 v=0
98355 On ch=1 n=f#5 v=0
98355 On ch=1 n=f#6 v=0
98375 On ch=1 n=a6 v=0
98590 On ch=1 n=g#6 v=91
98590 On ch=1 n=g#5 v=84
98595 On ch=1 n=e6 v=86
98615 On ch=1 n=e5 v=69
98630 On ch=1 n=e6 v=0
98640 On ch=1 n=g#5 v=0
98645 On ch=1 n=g#6 v=0
98655 On ch=1 n=e5 v=0
98705 On ch=1 n=g#6 v=90
98710 On ch=1 n=g#5 v=79
98720 On ch=1 n=e6 v=86
98735 On ch=1 n=e5 v=66
98760 On ch=1 n=e6 v=0
98775 On ch=1 n=g#5 v=0
98795 On ch=1 n=e5 v=0
98825 On ch=1 n=g#6 v=0
99135 On ch=1 n=f#6 v=82
99140 On ch=1 n=f#5 v=65
99160 On ch=1 n=d#6 v=47
99165 On ch=1 n=d#5 v=59
99190 On ch=1 n=d#6 v=0
99195 On ch=1 n=f#5 v=0
99205 On ch=1 n=f#6 v=0
99230 On ch=1 n=d#5 v=0
99285 On ch=1 n=f#6 v=71
99305 On ch=1 n=f#5 v=52
99310 On ch=1 n=d#6 v=57
99325 On ch=1 n=d#5 v=45
99465 Par ch=1 c=64 v=88
99480 Par ch=1 c=64 v=0
99610 Par ch=1 c=64 v=40
99625 Par ch=1 c=64 v=104
99630 On ch=1 n=f#5 v=0
99640 On ch=1 n=d#5 v=0
99645 Par ch=1 c=64 v=127
99655 On ch=1 n=f#6 v=0
99665 On ch=1 n=d#6 v=0
100320 Par ch=1 c=64 v=72
100340 Par ch=1 c=64 v=0
100480 Par ch=1 c=64 v=24
100500 Par ch=1 c=64 v=72
100520 Par ch=1 c=64 v=127
100630 On ch=1 n=d#6 v=70
100640 On ch=1 n=f#4 v=42
100645 On ch=1 n=d#5 v=27
100655 On ch=1 n=f#5 v=39
100665 On ch=1 n=a5 v=32
100685 On ch=1 n=d#5 v=0
100700 On ch=1 n=a5 v=0
100700 On ch=1 n=f#4 v=0
100735 On ch=1 n=f#5 v=0
100775 On ch=1 n=d#6 v=0
100885 On ch=1 n=g#3 v=46
100905 Par ch=1 c=64 v=72
100920 Par ch=1 c=64 v=0
100975 On ch=1 n=e6 v=82
100980 On ch=1 n=g#3 v=0
100980 On ch=1 n=g#5 v=46
100990 On ch=1 n=e5 v=52
100995 Par ch=1 c=64 v=24
101010 Par ch=1 c=64 v=72
101025 On ch=1 n=g#5 v=0
101030 Par ch=1 c=64 v=127
101035 On ch=1 n=e5 v=0
101075 On ch=1 n=c#5 v=35
101085 On ch=1 n=e6 v=0
101115 On ch=1 n=c#5 v=0
101325 On ch=1 n=d#6 v=68
101420 On ch=1 n=d#6 v=0
101420 On ch=1 n=e6 v=73
101500 On ch=1 n=e6 v=0
101510 On ch=1 n=f#6 v=76
101600 On ch=1 n=e6 v=75
101640 On ch=1 n=f#6 v=0
101690 On ch=1 n=e6 v=0
101705 On ch=1 n=d#6 v=82
101705 Par ch=1 c=64 v=40
101720 On ch=1 n=g#5 v=54
101725 Par ch=1 c=64 v=0
101730 On ch=1 n=g#4 v=45
101745 On ch=1 n=e5 v=49
101815 On ch=1 n=d#6 v=0
101815 Par ch=1 c=64 v=40
101830 On ch=1 n=g#5 v=0
101835 On ch=1 n=e5 v=0
101835 Par ch=1 c=64 v=127
101845 On ch=1 n=g#4 v=0
102180 On ch=1 n=c#6 v=72
102230 On ch=1 n=g#3 v=54
102235 Par ch=1 c=64 v=72
102255 Par ch=1 c=64 v=0
102260 On ch=1 n=c#6 v=0
102305 On ch=1 n=g#3 v=0
102320 On ch=1 n=d#6 v=82
102335 On ch=1 n=g#5 v=58
102335 On ch=1 n=f#5 v=39
102360 Par ch=1 c=64 v=104
102375 On ch=1 n=g#5 v=0
102380 Par ch=1 c=64 v=127
102390 On ch=1 n=c5 v=60
102395 On ch=1 n=f#5 v=0
102425 On ch=1 n=c5 v=0
102425 On ch=1 n=d#6 v=0
102660 On ch=1 n=g#5 v=74
102740 On ch=1 n=g#5 v=0
103030 On ch=1 n=g#6 v=78
103040 On ch=1 n=f#5 v=39
103055 On ch=1 n=c6 v=60
103065 On ch=1 n=g#4 v=39
103075 On ch=1 n=d#5 v=28
103105 Par ch=1 c=64 v=88
103130 Par ch=1 c=64 v=0
103240 Par ch=1 c=64 v=72
103255 Par ch=1 c=64 v=127
103260 On ch=1 n=g#6 v=0
103285 On ch=1 n=d#5 v=0
103285 On ch=1 n=c6 v=0
103310 On ch=1 n=g#4 v=0
103360 On ch=1 n=f#5 v=0
103565 On ch=1 n=c6 v=69
103645 On ch=1 n=c6 v=0
103705 On ch=1 n=c#6 v=73
103725 On ch=1 n=e5 v=50
103730 On ch=1 n=g#5 v=48
103730 On ch=1 n=c#5 v=33
103735 On ch=1 n=c#4 v=38
103735 Par ch=1 c=64 v=56
103750 On ch=1 n=g#4 v=32
103750 Par ch=1 c=64 v=0
103825 On ch=1 n=e5 v=0
103840 Par ch=1 c=64 v=56
103850 On ch=1 n=c#5 v=0
103855 On ch=1 n=c#4 v=0
103860 Par ch=1 c=64 v=127
103865 On ch=1 n=g#4 v=0
103865 On ch=1 n=g#5 v=0
104040 On ch=1 n=c#6 v=0
104115 On ch=1 n=c6 v=66
104205 On ch=1 n=c6 v=0
104210 On ch=1 n=c#6 v=76
104310 On ch=1 n=c#6 v=0
104315 On ch=1 n=d#6 v=63
104420 On ch=1 n=g#5 v=29
104425 Par ch=1 c=64 v=88
104430 On ch=1 n=d#6 v=0
104430 On ch=1 n=c#6 v=74
104430 On ch=1 n=d#5 v=47
104435 On ch=1 n=g#3 v=46
104440 On ch=1 n=f#4 v=38
104440 Par ch=1 c=64 v=0
104555 On ch=1 n=d#5 v=0
104570 Par ch=1 c=64 v=104
104580 On ch=1 n=g#5 v=0
104585 Par ch=1 c=64 v=127
104590 On ch=1 n=c#6 v=0
104605 On ch=1 n=g#3 v=0
104615 On ch=1 n=f#4 v=0
105010 On ch=1 n=c6 v=67
105100 Par ch=1 c=64 v=24
105105 On ch=1 n=c6 v=0
105110 On ch=1 n=c#3 v=42
105120 Par ch=1 c=64 v=0
105175 On ch=1 n=c#6 v=65
105190 On ch=1 n=c#5 v=49
105190 On ch=1 n=g#5 v=42
105200 On ch=1 n=c#3 v=0
105210 Par ch=1 c=64 v=104
105230 Par ch=1 c=64 v=127
105260 On ch=1 n=e4 v=56
105275 On ch=1 n=c#5 v=0
105285 On ch=1 n=g#5 v=0
105300 On ch=1 n=c#6 v=0
105320 On ch=1 n=e4 v=0
106250 Par ch=1 c=64 v=88
106265 Par ch=1 c=64 v=40
106285 Par ch=1 c=64 v=0
106710 On ch=1 n=c#5 v=82
106770 On ch=1 n=c#5 v=0
106825 On ch=1 n=c#5 v=89
106830 Par ch=1 c=64 v=24
106835 On ch=1 n=g#4 v=77
106840 On ch=1 n=e4 v=87
106850 On ch=1 n=c#3 v=63
106850 Par ch=1 c=64 v=0
106860 On ch=1 n=c#4 v=72
106900 Par ch=1 c=64 v=72
106910 On ch=1 n=e4 v=0
106915 Par ch=1 c=64 v=127
106925 On ch=1 n=c#4 v=0
106960 On ch=1 n=c#3 v=0
106995 On ch=1 n=c4 v=75
107085 On ch=1 n=c4 v=0
107120 On ch=1 n=b3 v=74
107215 On ch=1 n=b3 v=0
107260 On ch=1 n=a#3 v=76
107375 On ch=1 n=a#3 v=0
107405 On ch=1 n=a3 v=78
107505 On ch=1 n=a3 v=0
107540 On ch=1 n=g#3 v=73
107590 On ch=1 n=g#4 v=0
107685 On ch=1 n=g#3 v=0
107690 On ch=1 n=g3 v=74
107720 On ch=1 n=c#5 v=0
107805 On ch=1 n=g3 v=0
107820 On ch=1 n=g#3 v=81
107925 On ch=1 n=f#5 v=84
107975 On ch=1 n=f#5 v=0
108025 On ch=1 n=f#5 v=77
108035 On ch=1 n=f#4 v=85
108035 On ch=1 n=a4 v=82
108040 Par ch=1 c=64 v=24
108045 On ch=1 n=g#3 v=0
108050 Par ch=1 c=64 v=0
108080 On ch=1 n=a3 v=71
108095 On ch=1 n=c3 v=51
108165 On ch=1 n=a3 v=0
108190 Par ch=1 c=64 v=127
108215 On ch=1 n=g#3 v=70
108330 On ch=1 n=g#3 v=0
108355 On ch=1 n=c3 v=0
108370 On ch=1 n=g3 v=69
108480 On ch=1 n=g3 v=0
108490 On ch=1 n=f#3 v=68
108605 On ch=1 n=f#3 v=0
108635 On ch=1 n=f3 v=68
108770 On ch=1 n=f3 v=0
108780 On ch=1 n=e3 v=68
108820 On ch=1 n=a4 v=0
108840 On ch=1 n=f#5 v=0
108895 On ch=1 n=f#4 v=0
108910 On ch=1 n=e3 v=0
108915 On ch=1 n=d#3 v=65
109070 On ch=1 n=d#3 v=0
109075 On ch=1 n=c3 v=73
109105 On ch=1 n=e5 v=85
109165 On ch=1 n=e5 v=0
109230 On ch=1 n=e5 v=86
109245 On ch=1 n=e4 v=82
109245 On ch=1 n=c#3 v=70
109250 On ch=1 n=g#4 v=63
109255 Par ch=1 c=64 v=56
109260 On ch=1 n=c3 v=0
109270 Par ch=1 c=64 v=0
109375 Par ch=1 c=64 v=88
109380 On ch=1 n=c#3 v=0
109395 Par ch=1 c=64 v=127
109405 On ch=1 n=d3 v=67
109505 On ch=1 n=e5 v=0
109525 On ch=1 n=d#3 v=71
109540 On ch=1 n=d3 v=0
109585 On ch=1 n=g#4 v=0
109630 On ch=1 n=d#3 v=0
109640 On ch=1 n=e4 v=0
109650 On ch=1 n=e3 v=76
109735 On ch=1 n=e3 v=0
109735 On ch=1 n=d5 v=83
109765 On ch=1 n=d5 v=0
109835 On ch=1 n=d5 v=88
109840 On ch=1 n=a4 v=93
109840 On ch=1 n=f#4 v=73
109850 Par ch=1 c=64 v=24
109855 On ch=1 n=f3 v=70
109860 On ch=1 n=f#2 v=60
109865 Par ch=1 c=64 v=0
109900 On ch=1 n=f#4 v=0
109930 Par ch=1 c=64 v=40
109940 On ch=1 n=f#2 v=0
109950 On ch=1 n=f3 v=0
109950 On ch=1 n=a4 v=0
109950 Par ch=1 c=64 v=127
110020 On ch=1 n=f#3 v=68
110125 On ch=1 n=f#3 v=0
110155 On ch=1 n=f3 v=66
110250 On ch=1 n=f#3 v=66
110265 On ch=1 n=f3 v=0
110305 On ch=1 n=d5 v=0
110385 On ch=1 n=c#5 v=85
110430 On ch=1 n=c#5 v=0
110485 On ch=1 n=f#3 v=0
110485 On ch=1 n=c#5 v=85
110490 Par ch=1 c=64 v=104
110500 On ch=1 n=g#4 v=72
110500 On ch=1 n=e4 v=82
110510 On ch=1 n=g3 v=74
110510 Par ch=1 c=64 v=0
110515 On ch=1 n=g#2 v=67
110595 On ch=1 n=g#2 v=0
110595 Par ch=1 c=64 v=56
110615 Par ch=1 c=64 v=127
110655 On ch=1 n=g3 v=0
110655 On ch=1 n=g#3 v=76
110715 On ch=1 n=g#4 v=0
110770 On ch=1 n=g#3 v=0
110770 On ch=1 n=e4 v=0
110790 On ch=1 n=g3 v=72
110840 On ch=1 n=c#5 v=0
110900 On ch=1 n=g#3 v=77
110905 On ch=1 n=g3 v=0
111035 On ch=1 n=c5 v=89
111085 On ch=1 n=c5 v=0
111120 On ch=1 n=g#3 v=0
111130 On ch=1 n=c5 v=93
111140 On ch=1 n=a3 v=68
111145 On ch=1 n=f#4 v=73
111150 On ch=1 n=d#4 v=81
111170 Par ch=1 c=64 v=56
111190 Par ch=1 c=64 v=0
111215 On ch=1 n=d#4 v=0
111270 On ch=1 n=a3 v=0
111275 Par ch=1 c=64 v=72
111290 On ch=1 n=g#3 v=69
111290 Par ch=1 c=64 v=127
111435 On ch=1 n=g#3 v=0
111460 On ch=1 n=a3 v=74
111495 On ch=1 n=c5 v=0
111575 On ch=1 n=a3 v=0
111580 On ch=1 n=g#3 v=75
111635 On ch=1 n=f#4 v=0
111725 On ch=1 n=c#5 v=92
111810 On ch=1 n=g#3 v=0
111815 On ch=1 n=c#5 v=0
111885 On ch=1 n=c#5 v=87
111895 On ch=1 n=c#4 v=82
111895 On ch=1 n=e4 v=83
111910 On ch=1 n=c#3 v=86
111950 Par ch=1 c=64 v=72
111970 Par ch=1 c=64 v=0
112085 Par ch=1 c=64 v=72
112105 On ch=1 n=e4 v=0
112105 Par ch=1 c=64 v=127
112120 On ch=1 n=c#5 v=0
112145 On ch=1 n=c#4 v=0
112185 On ch=1 n=c#3 v=0
112415 On ch=1 n=c#4 v=85
112495 On ch=1 n=c#4 v=0
112575 On ch=1 n=c#4 v=85
112585 On ch=1 n=a3 v=77
112595 On ch=1 n=c#3 v=78
112595 On ch=1 n=f#2 v=62
112595 Par ch=1 c=64 v=72
112615 Par ch=1 c=64 v=0
112695 On ch=1 n=a3 v=0
112700 On ch=1 n=f#2 v=0
112710 Par ch=1 c=64 v=72
112720 On ch=1 n=c#3 v=0
112730 Par ch=1 c=64 v=127
112745 On ch=1 n=d#3 v=48
112760 On ch=1 n=c#4 v=0
112785 On ch=1 n=d#4 v=67
112830 On ch=1 n=d#3 v=0
112865 On ch=1 n=c#3 v=51
112870 On ch=1 n=d#4 v=0
112895 On ch=1 n=c#4 v=69
112935 On ch=1 n=c#3 v=0
112945 On ch=1 n=d#3 v=55
112975 On ch=1 n=c#4 v=0
112980 On ch=1 n=d#4 v=72
113010 On ch=1 n=d#3 v=0
113045 On ch=1 n=c#3 v=53
113070 On ch=1 n=d#4 v=0
113070 On ch=1 n=c#4 v=64
113095 On ch=1 n=c#3 v=0
113120 On ch=1 n=d#3 v=59
113150 On ch=1 n=d#4 v=60
113155 On ch=1 n=c#4 v=0
113190 On ch=1 n=d#3 v=0
113200 On ch=1 n=c#3 v=58
113240 On ch=1 n=d#4 v=0
113240 On ch=1 n=c#4 v=62
113260 On ch=1 n=c#3 v=0
113280 On ch=1 n=d#3 v=54
113310 On ch=1 n=d#4 v=60
113320 On ch=1 n=c#4 v=0
113355 On ch=1 n=d#3 v=0
113365 On ch=1 n=c#3 v=57
113405 On ch=1 n=d#4 v=0
113405 On ch=1 n=c#4 v=56
113420 On ch=1 n=c#3 v=0
113445 On ch=1 n=d#3 v=55
113465 On ch=1 n=d#4 v=58
113475 On ch=1 n=c#4 v=0
113510 On ch=1 n=d#3 v=0
113530 On ch=1 n=c#3 v=60
113560 On ch=1 n=d#4 v=0
113560 On ch=1 n=c#4 v=56
113570 On ch=1 n=c#3 v=0
113605 On ch=1 n=d#3 v=55
113630 On ch=1 n=c#4 v=0
113640 On ch=1 n=d#4 v=67
113675 On ch=1 n=d#3 v=0
113730 On ch=1 n=c#4 v=61
113730 On ch=1 n=c#3 v=53
113735 On ch=1 n=d#4 v=0
113810 On ch=1 n=c#3 v=0
113835 On ch=1 n=c#4 v=0
113835 On ch=1 n=c4 v=84
113835 On ch=1 n=c3 v=71
113935 Par ch=1 c=64 v=104
113945 On ch=1 n=c#4 v=82
113945 On ch=1 n=c#3 v=73
113950 Par ch=1 c=64 v=88
113955 On ch=1 n=c4 v=0
113970 On ch=1 n=c3 v=0
113970 Par ch=1 c=64 v=72
114035 Par ch=1 c=64 v=40
114050 On ch=1 n=c#3 v=0
114055 On ch=1 n=d#4 v=73
114055 On ch=1 n=d#3 v=73
114060 On ch=1 n=c#4 v=0
114125 On ch=1 n=d#4 v=0
114130 On ch=1 n=e4 v=82
114130 On ch=1 n=e3 v=68
114185 On ch=1 n=d#3 v=0
114230 On ch=1 n=f#4 v=77
114230 On ch=1 n=f#3 v=69
114250 On ch=1 n=e4 v=0
114265 On ch=1 n=e3 v=0
114345 On ch=1 n=g#4 v=77
114345 On ch=1 n=g#3 v=76
114350 On ch=1 n=f#3 v=0
114375 On ch=1 n=f#4 v=0
114435 On ch=1 n=g#3 v=0
114435 On ch=1 n=a4 v=82
114435 On ch=1 n=a3 v=76
114440 On ch=1 n=g#4 v=0
114530 On ch=1 n=a3 v=0
114540 On ch=1 n=g#4 v=81
114540 On ch=1 n=g#3 v=71
114575 On ch=1 n=a4 v=0
114645 On ch=1 n=f#4 v=76
114645 On ch=1 n=f#3 v=51
114655 On ch=1 n=g#3 v=0
114720 On ch=1 n=g#4 v=0
114725 On ch=1 n=f#3 v=0
114740 On ch=1 n=e3 v=68
114740 On ch=1 n=e4 v=79
114750 On ch=1 n=f#4 v=0
114855 On ch=1 n=d#4 v=78
114855 On ch=1 n=d#3 v=65
114860 On ch=1 n=e3 v=0
114870 On ch=1 n=e4 v=0
114965 On ch=1 n=d#3 v=0
114965 On ch=1 n=c#4 v=74
114965 On ch=1 n=c#3 v=65
114980 On ch=1 n=d#4 v=0
115060 On ch=1 n=c#4 v=0
115060 On ch=1 n=c4 v=89
115060 On ch=1 n=c3 v=73
115075 On ch=1 n=c#3 v=0
115160 On ch=1 n=c4 v=0
115165 On ch=1 n=c3 v=0
115175 On ch=1 n=c#4 v=75
115175 On ch=1 n=c#3 v=73
115260 On ch=1 n=d#3 v=67
115260 Par ch=1 c=64 v=24
115265 On ch=1 n=d#4 v=75
115275 On ch=1 n=c#4 v=0
115275 Par ch=1 c=64 v=0
115290 On ch=1 n=c#3 v=0
115340 On ch=1 n=e4 v=89
115340 On ch=1 n=e3 v=74
115350 On ch=1 n=d#3 v=0
115380 On ch=1 n=d#4 v=0
115445 On ch=1 n=d#4 v=82
115445 On ch=1 n=d#3 v=69
115455 On ch=1 n=e3 v=0
115475 On ch=1 n=e4 v=0
115480 Par ch=1 c=64 v=40
115495 Par ch=1 c=64 v=88
115510 Par ch=1 c=64 v=127
115550 On ch=1 n=c#4 v=81
115550 On ch=1 n=c#3 v=71
115595 On ch=1 n=d#4 v=0
115600 On ch=1 n=d#3 v=0
115620 On ch=1 n=c#3 v=0
115675 On ch=1 n=c#4 v=0
115740 Par ch=1 c=64 v=104
115750 Par ch=1 c=64 v=24
115755 On ch=1 n=c#2 v=74
115765 Par ch=1 c=64 v=0
115805 On ch=1 n=c#4 v=94
115810 On ch=1 n=g#3 v=75
115815 On ch=1 n=e3 v=74
115820 On ch=1 n=c#2 v=0
115850 Par ch=1 c=64 v=104
115870 On ch=1 n=g#3 v=0
115870 Par ch=1 c=64 v=127
115880 On ch=1 n=e3 v=0
115920 On ch=1 n=c#4 v=0
116765 Par ch=1 c=64 v=104
116780 Par ch=1 c=64 v=72
116800 Par ch=1 c=64 v=24
116815 Par ch=1 c=64 v=0
116985 Par ch=1 c=64 v=56
117005 Par ch=1 c=64 v=127
117150 On ch=1 n=g#5 v=88
117225 On ch=1 n=g#5 v=0
117275 Par ch=1 c=64 v=88
117280 On ch=1 n=g#5 v=96
117295 Par ch=1 c=64 v=0
117300 On ch=1 n=b4 v=77
117300 On ch=1 n=g#4 v=71
117305 On ch=1 n=g#3 v=64
117305 On ch=1 n=d#5 v=54
117375 On ch=1 n=b4 v=0
117375 Par ch=1 c=64 v=88
117385 On ch=1 n=g#4 v=0
117395 Par ch=1 c=64 v=127
117455 On ch=1 n=g4 v=70
117525 On ch=1 n=g4 v=0
117580 On ch=1 n=f#4 v=70
117695 On ch=1 n=f#4 v=0
117735 On ch=1 n=f4 v=74
117850 On ch=1 n=f4 v=0
117885 On ch=1 n=e4 v=71
118010 On ch=1 n=e4 v=0
118035 On ch=1 n=d#4 v=73
118090 On ch=1 n=d#5 v=0
118105 On ch=1 n=g#3 v=0
118160 On ch=1 n=d#4 v=0
118175 On ch=1 n=d4 v=78
118180 On ch=1 n=g#5 v=0
118280 On ch=1 n=d4 v=0
118310 On ch=1 n=d#4 v=74
118405 On ch=1 n=c#6 v=95
118425 On ch=1 n=c#5 v=70
118455 On ch=1 n=c#5 v=0
118480 On ch=1 n=c#6 v=0
118515 On ch=1 n=c#6 v=100
118515 On ch=1 n=c#5 v=77
118520 On ch=1 n=d#4 v=0
118535 On ch=1 n=e4 v=70
118535 On ch=1 n=e5 v=82
118545 On ch=1 n=g3 v=62
118565 Par ch=1 c=64 v=104
118580 Par ch=1 c=64 v=0
118635 On ch=1 n=e4 v=0
118685 On ch=1 n=d#4 v=67
118730 Par ch=1 c=64 v=127
118790 On ch=1 n=d#4 v=0
118825 On ch=1 n=d4 v=70
118925 On ch=1 n=d4 v=0
118955 On ch=1 n=c#4 v=64
118980 On ch=1 n=g3 v=0
119045 On ch=1 n=e5 v=0
119060 On ch=1 n=c#4 v=0
119090 On ch=1 n=c4 v=68
119110 On ch=1 n=c#6 v=0
119150 On ch=1 n=c#5 v=0
119205 On ch=1 n=c4 v=0
119230 On ch=1 n=b3 v=70
119345 On ch=1 n=b3 v=0
119360 On ch=1 n=a#3 v=67
119485 On ch=1 n=a#3 v=0
119510 On ch=1 n=g3 v=70
119560 On ch=1 n=b5 v=89
119630 On ch=1 n=b5 v=0
119685 On ch=1 n=b5 v=90
119695 On ch=1 n=g#3 v=71
119700 On ch=1 n=g3 v=0
119700 Par ch=1 c=64 v=88
119705 On ch=1 n=d#5 v=71
119705 On ch=1 n=b4 v=80
119715 Par ch=1 c=64 v=0
119835 Par ch=1 c=64 v=88
119840 On ch=1 n=g#3 v=0
119850 Par ch=1 c=64 v=127
119855 On ch=1 n=a3 v=70
119960 On ch=1 n=b5 v=0
119980 On ch=1 n=a#3 v=77
119995 On ch=1 n=a3 v=0
120075 On ch=1 n=a#3 v=0
120100 On ch=1 n=d#5 v=0
120110 On ch=1 n=b3 v=85
120125 On ch=1 n=b4 v=0
120190 On ch=1 n=a5 v=87
120200 On ch=1 n=b3 v=0
120245 On ch=1 n=a5 v=0
120290 On ch=1 n=a5 v=94
120300 On ch=1 n=e5 v=94
120300 On ch=1 n=c4 v=74
120300 On ch=1 n=c#3 v=63
120310 On ch=1 n=c#5 v=64
120310 Par ch=1 c=64 v=40
120325 Par ch=1 c=64 v=0
120350 On ch=1 n=c#5 v=0
120395 On ch=1 n=c#3 v=0
120395 Par ch=1 c=64 v=24
120410 Par ch=1 c=64 v=104
120420 On ch=1 n=c4 v=0
120425 Par ch=1 c=64 v=127
120430 On ch=1 n=e5 v=0
120465 On ch=1 n=c#4 v=73
120565 On ch=1 n=c#4 v=0
120605 On ch=1 n=c4 v=68
120700 On ch=1 n=c4 v=0
120715 On ch=1 n=c#4 v=73
120735 On ch=1 n=a5 v=0
120810 On ch=1 n=g#5 v=89
120875 On ch=1 n=g#5 v=0
120915 On ch=1 n=g#5 v=90
120935 On ch=1 n=c#4 v=0
120935 On ch=1 n=b4 v=79
120935 On ch=1 n=d#5 v=71
120935 Par ch=1 c=64 v=88
120940 On ch=1 n=d#3 v=65
120945 On ch=1 n=d4 v=66
120955 Par ch=1 c=64 v=0
120990 On ch=1 n=b4 v=0
120995 On ch=1 n=d#5 v=0
121035 On ch=1 n=d#3 v=0
121040 Par ch=1 c=64 v=40
121055 Par ch=1 c=64 v=127
121090 On ch=1 n=d4 v=0
121100 On ch=1 n=d#4 v=76
121200 On ch=1 n=d#4 v=0
121200 On ch=1 n=g#5 v=0
121220 On ch=1 n=d4 v=73
121325 On ch=1 n=d4 v=0
121335 On ch=1 n=d#4 v=84
121440 On ch=1 n=g5 v=89
121495 On ch=1 n=g5 v=0
121515 On ch=1 n=d#4 v=0
121535 On ch=1 n=e4 v=73
121540 On ch=1 n=g5 v=96
121555 On ch=1 n=a#4 v=68
121560 On ch=1 n=c#5 v=65
121565 Par ch=1 c=64 v=104
121580 Par ch=1 c=64 v=24
121595 Par ch=1 c=64 v=0
121630 On ch=1 n=c#5 v=0
121685 Par ch=1 c=64 v=88
121695 On ch=1 n=e4 v=0
121695 On ch=1 n=d#4 v=79
121700 Par ch=1 c=64 v=127
121790 On ch=1 n=g5 v=0
121815 On ch=1 n=d#4 v=0
121855 On ch=1 n=e4 v=71
121880 On ch=1 n=a#4 v=0
121975 On ch=1 n=e4 v=0
121975 On ch=1 n=d#4 v=89
122075 On ch=1 n=g#5 v=88
122110 On ch=1 n=d#4 v=0
122160 On ch=1 n=g#5 v=0
122205 On ch=1 n=g#5 v=93
122220 On ch=1 n=g#4 v=80
122220 On ch=1 n=b4 v=69
122260 On ch=1 n=g#3 v=70
122260 On ch=1 n=d#4 v=76
122260 Par ch=1 c=64 v=104
122275 Par ch=1 c=64 v=0
122410 Par ch=1 c=64 v=127
122450 On ch=1 n=b4 v=0
122455 On ch=1 n=g#5 v=0
122485 On ch=1 n=d#4 v=0
122490 On ch=1 n=g#4 v=0
122515 On ch=1 n=g#3 v=0
122750 On ch=1 n=g#4 v=82
122835 On ch=1 n=g#4 v=0
122895 On ch=1 n=g#4 v=74
122910 On ch=1 n=e4 v=69
122920 On ch=1 n=c#3 v=62
122920 On ch=1 n=g#3 v=75
122940 Par ch=1 c=64 v=40
122955 Par ch=1 c=64 v=0
122985 On ch=1 n=e4 v=0
123020 On ch=1 n=c#3 v=0
123040 Par ch=1 c=64 v=56
123045 On ch=1 n=g#3 v=0
123055 Par ch=1 c=64 v=127
123080 On ch=1 n=a#3 v=55
123095 On ch=1 n=g#4 v=0
123110 On ch=1 n=a#4 v=52
123155 On ch=1 n=a#3 v=0
123195 On ch=1 n=g#3 v=43
123200 On ch=1 n=a#4 v=0
123215 On ch=1 n=g#4 v=63
123245 On ch=1 n=g#3 v=0
123270 On ch=1 n=a#3 v=55
123295 On ch=1 n=g#4 v=0
123295 On ch=1 n=a#4 v=62
123335 On ch=1 n=a#3 v=0
123360 On ch=1 n=g#3 v=55
123380 On ch=1 n=a#4 v=0
123380 On ch=1 n=g#4 v=62
123415 On ch=1 n=g#3 v=0
123430 On ch=1 n=a#3 v=62
123455 On ch=1 n=g#4 v=0
123455 On ch=1 n=a#4 v=60
123490 On ch=1 n=a#3 v=0
123510 On ch=1 n=g#3 v=58
123540 On ch=1 n=a#4 v=0
123540 On ch=1 n=g#4 v=68
123575 On ch=1 n=g#3 v=0
123580 On ch=1 n=a#3 v=64
123610 On ch=1 n=a#4 v=63
123620 On ch=1 n=g#4 v=0
123645 On ch=1 n=a#3 v=0
123655 On ch=1 n=g#3 v=55
123685 On ch=1 n=g#4 v=59
123695 On ch=1 n=a#4 v=0
123730 On ch=1 n=g#3 v=0
123740 On ch=1 n=a#3 v=67
123760 On ch=1 n=a#4 v=58
123770 On ch=1 n=g#4 v=0
123800 On ch=1 n=a#3 v=0
123810 On ch=1 n=g#3 v=57
123840 On ch=1 n=g#4 v=58
123845 On ch=1 n=a#4 v=0
123880 On ch=1 n=g#3 v=0
123900 On ch=1 n=a#3 v=74
123925 On ch=1 n=g#4 v=0
123930 On ch=1 n=a#4 v=64
123975 On ch=1 n=a#3 v=0
123975 On ch=1 n=g#3 v=64
124005 On ch=1 n=g#4 v=57
124020 On ch=1 n=a#4 v=0
124055 On ch=1 n=g#3 v=0
124105 On ch=1 n=g#4 v=0
124115 On ch=1 n=g4 v=82
124115 On ch=1 n=g3 v=65
124205 On ch=1 n=g#4 v=78
124205 On ch=1 n=g#3 v=72
124220 On ch=1 n=g4 v=0
124245 On ch=1 n=g3 v=0
124260 Par ch=1 c=64 v=88
124275 Par ch=1 c=64 v=72
124290 Par ch=1 c=64 v=56
124310 On ch=1 n=g#3 v=0
124310 On ch=1 n=a#4 v=78
124310 On ch=1 n=a#3 v=76
124325 On ch=1 n=g#4 v=0
124385 On ch=1 n=b4 v=79
124385 On ch=1 n=b3 v=78
124400 On ch=1 n=a#4 v=0
124415 On ch=1 n=a#3 v=0
124485 On ch=1 n=c#5 v=80
124485 On ch=1 n=c#4 v=71
124510 On ch=1 n=b3 v=0
124510 On ch=1 n=b4 v=0
124550 Par ch=1 c=64 v=40
124595 On ch=1 n=c#4 v=0
124600 On ch=1 n=d#5 v=77
124600 On ch=1 n=d#4 v=85
124630 On ch=1 n=c#5 v=0
124695 On ch=1 n=d#4 v=0
124695 On ch=1 n=e5 v=88
124695 On ch=1 n=e4 v=74
124700 On ch=1 n=d#5 v=0
124780 On ch=1 n=e4 v=0
124795 On ch=1 n=d#5 v=85
124795 On ch=1 n=d#4 v=69
124825 On ch=1 n=e5 v=0
124900 On ch=1 n=c#5 v=80
124900 On ch=1 n=c#4 v=61
124905 On ch=1 n=d#4 v=0
124970 On ch=1 n=d#5 v=0
124980 On ch=1 n=c#4 v=0
125000 On ch=1 n=c#5 v=0
125000 On ch=1 n=b4 v=74
125000 On ch=1 n=b3 v=74
125105 On ch=1 n=b3 v=0
125110 On ch=1 n=a#3 v=71
125110 On ch=1 n=a#4 v=61
125135 On ch=1 n=b4 v=0
125215 On ch=1 n=g#3 v=64
125215 On ch=1 n=g#4 v=56
125235 On ch=1 n=a#3 v=0
125240 On ch=1 n=a#4 v=0
125305 On ch=1 n=g4 v=81
125305 On ch=1 n=g3 v=69
125315 On ch=1 n=g#4 v=0
125345 On ch=1 n=g#3 v=0
125405 On ch=1 n=g#4 v=65
125405 On ch=1 n=g#3 v=69
125410 On ch=1 n=g4 v=0
125415 On ch=1 n=g3 v=0
125485 On ch=1 n=a#4 v=65
125485 On ch=1 n=a#3 v=63
125530 On ch=1 n=g#3 v=0
125530 On ch=1 n=g#4 v=0
125575 On ch=1 n=a#3 v=0
125595 On ch=1 n=b4 v=86
125595 On ch=1 n=b3 v=74
125600 On ch=1 n=a#4 v=0
125635 Par ch=1 c=64 v=0
125690 On ch=1 n=a#4 v=72
125690 On ch=1 n=a#3 v=74
125725 On ch=1 n=b3 v=0
125745 On ch=1 n=b4 v=0
125770 Par ch=1 c=64 v=72
125785 Par ch=1 c=64 v=127
125790 On ch=1 n=g#4 v=74
125790 On ch=1 n=g#3 v=77
125825 On ch=1 n=a#3 v=0
125850 On ch=1 n=g#3 v=0
125860 On ch=1 n=a#4 v=0
125915 On ch=1 n=g#4 v=0
125990 Par ch=1 c=64 v=88
125995 On ch=1 n=g#4 v=85
126000 On ch=1 n=d#4 v=73
126005 On ch=1 n=b3 v=74
126005 Par ch=1 c=64 v=0
126010 On ch=1 n=g#3 v=61
126025 On ch=1 n=d#3 v=56
126030 On ch=1 n=g#2 v=52
126070 Par ch=1 c=64 v=56
126090 Par ch=1 c=64 v=127
126100 On ch=1 n=d#4 v=0
126105 On ch=1 n=b3 v=0
126115 On ch=1 n=g#3 v=0
126120 On ch=1 n=g#2 v=0
126120 On ch=1 n=d#3 v=0
126135 On ch=1 n=g#4 v=0
126970 Par ch=1 c=64 v=104
126990 Par ch=1 c=64 v=88
127005 Par ch=1 c=64 v=56
127020 Par ch=1 c=64 v=0
127930 Par ch=1 c=64 v=24
127945 Par ch=1 c=64 v=72
127965 Par ch=1 c=64 v=127
128010 On ch=1 n=e5 v=45
128085 On ch=1 n=g#7 v=78
128105 On ch=1 n=g#6 v=55
128105 On ch=1 n=b5 v=51
128105 On ch=1 n=b6 v=66
128120 On ch=1 n=e5 v=0
128130 On ch=1 n=e6 v=54
128135 On ch=1 n=b6 v=0
128135 On ch=1 n=g#6 v=0
128135 Par ch=1 c=64 v=88
128150 Par ch=1 c=64 v=56
128160 On ch=1 n=e6 v=0
128160 On ch=1 n=g#7 v=0
128165 On ch=1 n=b5 v=0
128170 Par ch=1 c=64 v=24
128185 Par ch=1 c=64 v=0
128455 Par ch=1 c=64 v=40
128475 On ch=1 n=b4 v=56
128475 Par ch=1 c=64 v=72
128490 Par ch=1 c=64 v=127
128505 On ch=1 n=b4 v=0
128605 On ch=1 n=g#7 v=85
128615 On ch=1 n=e6 v=63
128620 On ch=1 n=g#6 v=50
128620 On ch=1 n=b6 v=70
128620 On ch=1 n=b5 v=48
128640 Par ch=1 c=64 v=104
128650 On ch=1 n=b6 v=0
128650 On ch=1 n=g#6 v=0
128650 On ch=1 n=e6 v=0
128655 On ch=1 n=b5 v=0
128660 Par ch=1 c=64 v=56
128670 On ch=1 n=g#7 v=0
128675 Par ch=1 c=64 v=24
128690 Par ch=1 c=64 v=0
129020 On ch=1 n=e5 v=58
129065 Par ch=1 c=64 v=88
129080 Par ch=1 c=64 v=127
129085 On ch=1 n=b5 v=48
129100 On ch=1 n=e5 v=0
129125 On ch=1 n=g#7 v=91
129135 On ch=1 n=e6 v=54
129140 On ch=1 n=b6 v=74
129145 On ch=1 n=g#6 v=55
129165 On ch=1 n=e6 v=0
129165 On ch=1 n=b5 v=0
129235 On ch=1 n=b6 v=0
129615 On ch=1 n=b4 v=56
129645 On ch=1 n=b4 v=0
129770 On ch=1 n=g#7 v=0
129805 On ch=1 n=g#6 v=0
129850 On ch=1 n=f#7 v=69
129955 On ch=1 n=d#5 v=49
129965 On ch=1 n=e7 v=80
130000 On ch=1 n=f#7 v=0
130015 Par ch=1 c=64 v=104
130030 Par ch=1 c=64 v=72
130040 On ch=1 n=d#5 v=0
130045 On ch=1 n=b5 v=53
130050 Par ch=1 c=64 v=40
130055 On ch=1 n=d#7 v=85
130065 Par ch=1 c=64 v=24
130080 On ch=1 n=f#6 v=51
130085 On ch=1 n=e7 v=0
130085 Par ch=1 c=64 v=0
130115 On ch=1 n=b5 v=0
130120 On ch=1 n=f#6 v=0
130125 On ch=1 n=a6 v=41
130135 On ch=1 n=b6 v=30
130170 On ch=1 n=b6 v=0
130175 On ch=1 n=a6 v=0
130180 On ch=1 n=d#7 v=0
130290 On ch=1 n=e7 v=85
130385 On ch=1 n=e7 v=0
130490 Par ch=1 c=64 v=24
130510 Par ch=1 c=64 v=72
130520 On ch=1 n=f#7 v=81
130525 Par ch=1 c=64 v=127
130540 On ch=1 n=b4 v=51
130560 On ch=1 n=a6 v=33
130560 On ch=1 n=b6 v=32
130575 On ch=1 n=b4 v=0
130590 On ch=1 n=b6 v=0
130590 On ch=1 n=a6 v=0
130600 On ch=1 n=f#7 v=0
130660 Par ch=1 c=64 v=104
130675 Par ch=1 c=64 v=72
130690 Par ch=1 c=64 v=40
130710 Par ch=1 c=64 v=24
130725 Par ch=1 c=64 v=0
130910 On ch=1 n=e5 v=46
130925 On ch=1 n=b5 v=51
130965 On ch=1 n=e5 v=0
130980 Par ch=1 c=64 v=56
130990 On ch=1 n=g#7 v=89
130995 On ch=1 n=e6 v=58
131000 On ch=1 n=b6 v=74
131000 Par ch=1 c=64 v=127
131005 On ch=1 n=g#6 v=54
131030 On ch=1 n=e6 v=0
131040 On ch=1 n=b5 v=0
131125 On ch=1 n=b6 v=0
131430 On ch=1 n=b4 v=54
131460 On ch=1 n=g#6 v=0
131505 On ch=1 n=b4 v=0
131535 On ch=1 n=g#7 v=0
131645 On ch=1 n=f#7 v=67
131725 On ch=1 n=e7 v=70
131735 On ch=1 n=d#5 v=47
131770 On ch=1 n=f#7 v=0
131790 On ch=1 n=b5 v=49
131810 On ch=1 n=d#5 v=0
131810 On ch=1 n=d#7 v=83
131825 On ch=1 n=e7 v=0
131830 Par ch=1 c=64 v=104
131835 On ch=1 n=f#6 v=50
131840 On ch=1 n=b6 v=38
131840 On ch=1 n=a6 v=64
131840 Par ch=1 c=64 v=72
131860 On ch=1 n=b5 v=0
131860 Par ch=1 c=64 v=40
131870 On ch=1 n=f#6 v=0
131880 Par ch=1 c=64 v=0
131885 On ch=1 n=a6 v=0
131885 On ch=1 n=b6 v=0
131915 On ch=1 n=d#7 v=0
132020 On ch=1 n=e7 v=86
132120 On ch=1 n=e7 v=0
132250 Par ch=1 c=64 v=40
132260 On ch=1 n=f#7 v=83
132270 Par ch=1 c=64 v=72
132285 On ch=1 n=b4 v=53
132285 Par ch=1 c=64 v=104
132295 On ch=1 n=a6 v=35
132300 On ch=1 n=b6 v=33
132305 Par ch=1 c=64 v=127
132315 On ch=1 n=b4 v=0
132335 On ch=1 n=b6 v=0
132335 On ch=1 n=a6 v=0
132345 On ch=1 n=f#7 v=0
132405 Par ch=1 c=64 v=88
132435 Par ch=1 c=64 v=72
132455 Par ch=1 c=64 v=56
132490 Par ch=1 c=64 v=40
132510 Par ch=1 c=64 v=24
132525 Par ch=1 c=64 v=0
132640 On ch=1 n=e5 v=51
132670 On ch=1 n=b5 v=42
132710 Par ch=1 c=64 v=40
132720 On ch=1 n=g#7 v=90
132725 On ch=1 n=e5 v=0
132725 Par ch=1 c=64 v=88
132735 On ch=1 n=b6 v=76
132735 On ch=1 n=g#6 v=60
132745 On ch=1 n=e6 v=60
132745 Par ch=1 c=64 v=127
132775 On ch=1 n=e6 v=0
132785 On ch=1 n=b5 v=0
132870 On ch=1 n=b6 v=0
133165 On ch=1 n=b4 v=53
133185 On ch=1 n=g#6 v=0
133200 On ch=1 n=b4 v=0
133255 On ch=1 n=g#7 v=0
133355 On ch=1 n=f#7 v=65
133445 On ch=1 n=e7 v=71
133475 On ch=1 n=f#7 v=0
133475 On ch=1 n=d#5 v=55
133520 On ch=1 n=d#7 v=82
133525 On ch=1 n=b5 v=50
133540 Par ch=1 c=64 v=88
133545 On ch=1 n=d#5 v=0
133545 On ch=1 n=e7 v=0
133555 Par ch=1 c=64 v=56
133565 On ch=1 n=b5 v=0
133565 On ch=1 n=f#6 v=58
133575 On ch=1 n=a6 v=54
133575 Par ch=1 c=64 v=24
133580 On ch=1 n=b6 v=37
133590 Par ch=1 c=64 v=0
133605 On ch=1 n=f#6 v=0
133620 On ch=1 n=b6 v=0
133630 On ch=1 n=a6 v=0
133640 On ch=1 n=d#7 v=0
133750 On ch=1 n=e7 v=88
133855 On ch=1 n=e7 v=0
133915 Par ch=1 c=64 v=24
133930 Par ch=1 c=64 v=56
133945 Par ch=1 c=64 v=88
133965 Par ch=1 c=64 v=127
133975 On ch=1 n=f#7 v=85
133985 On ch=1 n=b4 v=53
134005 On ch=1 n=b6 v=41
134010 On ch=1 n=a6 v=40
134015 On ch=1 n=b4 v=0
134045 On ch=1 n=a6 v=0
134045 On ch=1 n=b6 v=0
134070 On ch=1 n=f#7 v=0
134185 Par ch=1 c=64 v=104
134200 Par ch=1 c=64 v=88
134220 Par ch=1 c=64 v=72
134235 Par ch=1 c=64 v=40
134255 Par ch=1 c=64 v=24
134270 Par ch=1 c=64 v=0
134355 On ch=1 n=e5 v=43
134370 On ch=1 n=b5 v=46
134395 On ch=1 n=e5 v=0
134420 On ch=1 n=e6 v=61
134425 On ch=1 n=g#7 v=92
134425 Par ch=1 c=64 v=56
134435 Par ch=1 c=64 v=127
134445 On ch=1 n=b6 v=78
134450 On ch=1 n=b5 v=0
134450 On ch=1 n=g#6 v=53
134455 On ch=1 n=e6 v=0
134490 On ch=1 n=g#6 v=0
134500 On ch=1 n=b6 v=0
134745 On ch=1 n=e5 v=41
134760 Par ch=1 c=64 v=104
134775 Par ch=1 c=64 v=40
134795 On ch=1 n=b5 v=50
134795 Par ch=1 c=64 v=24
134820 On ch=1 n=e5 v=0
134830 Par ch=1 c=64 v=72
134850 On ch=1 n=b5 v=0
134850 Par ch=1 c=64 v=127
134855 On ch=1 n=g#6 v=65
134965 On ch=1 n=g#6 v=0
135005 On ch=1 n=g#7 v=0
135070 On ch=1 n=f#7 v=73
135155 On ch=1 n=d#5 v=48
135165 On ch=1 n=e7 v=71
135165 Par ch=1 c=64 v=72
135185 Par ch=1 c=64 v=24
135195 On ch=1 n=f#7 v=0
135195 On ch=1 n=b5 v=48
135205 Par ch=1 c=64 v=0
135240 On ch=1 n=d#5 v=0
135240 Par ch=1 c=64 v=40
135255 On ch=1 n=d#7 v=77
135255 Par ch=1 c=64 v=88
135260 On ch=1 n=f#6 v=55
135270 Par ch=1 c=64 v=127
135280 On ch=1 n=b5 v=0
135280 On ch=1 n=e7 v=0
135295 On ch=1 n=f#6 v=0
135330 On ch=1 n=b6 v=33
135365 On ch=1 n=e7 v=85
135380 On ch=1 n=d#7 v=0
135465 On ch=1 n=f#7 v=73
135490 On ch=1 n=e7 v=0
135525 Par ch=1 c=64 v=72
135540 Par ch=1 c=64 v=0
135545 On ch=1 n=c#5 v=53
135555 On ch=1 n=g#7 v=82
135570 On ch=1 n=f#7 v=0
135595 On ch=1 n=g#5 v=45
135640 On ch=1 n=c#5 v=0
135645 On ch=1 n=b6 v=0
135670 On ch=1 n=f#7 v=82
135680 On ch=1 n=g#5 v=0
135680 On ch=1 n=e6 v=58
135680 Par ch=1 c=64 v=88
135695 On ch=1 n=g#7 v=0
135695 Par ch=1 c=64 v=127
135720 On ch=1 n=e6 v=0
135800 On ch=1 n=f#7 v=0
135870 On ch=1 n=e7 v=82
135880 Par ch=1 c=64 v=72
135895 Par ch=1 c=64 v=24
135915 Par ch=1 c=64 v=0
135955 On ch=1 n=c5 v=60
135975 On ch=1 n=e7 v=0
136010 On ch=1 n=g#5 v=51
136030 On ch=1 n=c5 v=0
136050 Par ch=1 c=64 v=40
136070 Par ch=1 c=64 v=88
136085 On ch=1 n=d#7 v=78
136085 Par ch=1 c=64 v=127
136090 On ch=1 n=d#6 v=65
136105 On ch=1 n=g#6 v=58
136110 On ch=1 n=g#5 v=0
136130 On ch=1 n=d#6 v=0
136165 On ch=1 n=g#6 v=0
136210 On ch=1 n=d#7 v=0
136305 On ch=1 n=e7 v=82
136445 On ch=1 n=e7 v=0
136510 On ch=1 n=f#7 v=74
136530 On ch=1 n=g#4 v=49
136585 On ch=1 n=g#4 v=0
136615 On ch=1 n=f#7 v=0
136830 Par ch=1 c=64 v=72
136840 On ch=1 n=e7 v=72
136850 Par ch=1 c=64 v=24
136865 Par ch=1 c=64 v=0
136875 On ch=1 n=c#5 v=51
136910 On ch=1 n=g#5 v=48
136930 On ch=1 n=d#7 v=73
136940 On ch=1 n=c#5 v=0
136940 On ch=1 n=e7 v=0
136950 On ch=1 n=g#6 v=56
136950 On ch=1 n=e6 v=64
136975 On ch=1 n=g#5 v=0
137000 On ch=1 n=e6 v=0
137000 Par ch=1 c=64 v=72
137015 Par ch=1 c=64 v=127
137050 On ch=1 n=e7 v=75
137065 On ch=1 n=d#7 v=0
137070 On ch=1 n=g#6 v=0
137135 On ch=1 n=f#7 v=76
137160 On ch=1 n=e7 v=0
137240 On ch=1 n=g#7 v=79
137245 On ch=1 n=f#7 v=0
137340 On ch=1 n=f#7 v=78
137340 On ch=1 n=g#4 v=51
137345 On ch=1 n=g#7 v=0
137360 On ch=1 n=g#6 v=71
137385 On ch=1 n=g#4 v=0
137460 On ch=1 n=g#6 v=0
137480 On ch=1 n=f#7 v=0
137555 On ch=1 n=e7 v=78
137610 Par ch=1 c=64 v=104
137630 Par ch=1 c=64 v=56
137645 Par ch=1 c=64 v=0
137655 On ch=1 n=e7 v=0
137690 On ch=1 n=c5 v=58
137740 On ch=1 n=c5 v=0
137745 On ch=1 n=g#5 v=46
137755 On ch=1 n=d#7 v=79
137760 On ch=1 n=g#6 v=62
137780 Par ch=1 c=64 v=56
137795 Par ch=1 c=64 v=127
137805 On ch=1 n=d#6 v=56
137830 On ch=1 n=g#5 v=0
137840 On ch=1 n=d#6 v=0
137855 On ch=1 n=g#6 v=0
137865 On ch=1 n=d#7 v=0
137975 On ch=1 n=e7 v=83
138130 On ch=1 n=e7 v=0
138185 On ch=1 n=f#7 v=78
138205 On ch=1 n=g#4 v=49
138275 On ch=1 n=g#4 v=0
138295 On ch=1 n=f#7 v=0
138510 On ch=1 n=e7 v=74
138520 On ch=1 n=c#5 v=42
138525 Par ch=1 c=64 v=104
138540 Par ch=1 c=64 v=40
138555 Par ch=1 c=64 v=0
138570 On ch=1 n=g#5 v=43
138605 On ch=1 n=c#5 v=0
138615 On ch=1 n=e7 v=0
138625 On ch=1 n=d#7 v=71
138630 On ch=1 n=g#5 v=0
138635 On ch=1 n=e6 v=67
138640 On ch=1 n=g#6 v=60
138660 Par ch=1 c=64 v=88
138670 On ch=1 n=e6 v=0
138675 Par ch=1 c=64 v=127
138725 On ch=1 n=e7 v=66
138750 On ch=1 n=d#7 v=0
138770 On ch=1 n=g#6 v=0
138815 On ch=1 n=f#7 v=69
138830 On ch=1 n=e7 v=0
138930 On ch=1 n=f#7 v=0
138930 On ch=1 n=g#7 v=77
139000 Par ch=1 c=64 v=72
139015 Par ch=1 c=64 v=0
139035 On ch=1 n=g#4 v=56
139035 On ch=1 n=g#6 v=53
139045 On ch=1 n=f#7 v=75
139055 On ch=1 n=g#7 v=0
139065 Par ch=1 c=64 v=40
139085 On ch=1 n=g#4 v=0
139085 Par ch=1 c=64 v=88
139100 Par ch=1 c=64 v=127
139140 On ch=1 n=g#6 v=0
139155 On ch=1 n=f#7 v=0
139240 On ch=1 n=e7 v=81
139320 On ch=1 n=e7 v=0
139335 Par ch=1 c=64 v=56
139345 On ch=1 n=c5 v=60
139355 Par ch=1 c=64 v=0
139380 On ch=1 n=c5 v=0
139395 On ch=1 n=g#5 v=47
139440 Par ch=1 c=64 v=40
139455 On ch=1 n=d#7 v=82
139455 Par ch=1 c=64 v=104
139460 On ch=1 n=d#6 v=60
139475 Par ch=1 c=64 v=127
139480 On ch=1 n=g#6 v=56
139505 On ch=1 n=g#5 v=0
139510 On ch=1 n=d#6 v=0
139525 On ch=1 n=g#6 v=0
139555 On ch=1 n=d#7 v=0
139670 On ch=1 n=c#7 v=72
139690 On ch=1 n=g#6 v=27
139790 On ch=1 n=c#7 v=0
139885 On ch=1 n=c7 v=77
139905 On ch=1 n=g#4 v=48
139935 On ch=1 n=g#6 v=0
139955 On ch=1 n=g#4 v=0
139955 On ch=1 n=c7 v=0
140150 Par ch=1 c=64 v=104
140170 Par ch=1 c=64 v=40
140185 On ch=1 n=c#5 v=46
140185 Par ch=1 c=64 v=0
140230 On ch=1 n=g#5 v=53
140255 Par ch=1 c=64 v=24
140265 On ch=1 n=g#6 v=51
140270 On ch=1 n=d#7 v=70
140270 Par ch=1 c=64 v=88
140275 On ch=1 n=c#5 v=0
140285 Par ch=1 c=64 v=127
140325 On ch=1 n=g#5 v=0
140330 On ch=1 n=e6 v=60
140370 On ch=1 n=e6 v=0
140380 On ch=1 n=e7 v=78
140390 On ch=1 n=d#7 v=0
140420 On ch=1 n=g#6 v=0
140460 On ch=1 n=f#7 v=80
140500 On ch=1 n=e7 v=0
140565 On ch=1 n=f#7 v=0
140565 On ch=1 n=g#7 v=82
140625 Par ch=1 c=64 v=88
140645 On ch=1 n=g#7 v=0
140645 Par ch=1 c=64 v=0
140675 On ch=1 n=f#7 v=75
140675 On ch=1 n=c#7 v=57
140685 On ch=1 n=c#6 v=51
140695 On ch=1 n=e6 v=57
140695 On ch=1 n=a6 v=66
140695 On ch=1 n=a5 v=54
140720 On ch=1 n=e6 v=0
140725 On ch=1 n=a6 v=0
140725 On ch=1 n=c#7 v=0
140730 On ch=1 n=c#6 v=0
140730 Par ch=1 c=64 v=72
140735 On ch=1 n=a5 v=0
140745 Par ch=1 c=64 v=127
140775 On ch=1 n=f#7 v=0
140915 On ch=1 n=e7 v=88
141015 On ch=1 n=e7 v=0
141150 On ch=1 n=f#5 v=58
141155 On ch=1 n=d#7 v=73
141155 Par ch=1 c=64 v=56
141165 On ch=1 n=c#6 v=53
141165 On ch=1 n=d#6 v=48
141170 Par ch=1 c=64 v=0
141175 On ch=1 n=c#7 v=47
141190 On ch=1 n=a6 v=43
141220 Par ch=1 c=64 v=24
141230 On ch=1 n=a6 v=0
141240 On ch=1 n=d#6 v=0
141240 On ch=1 n=c#6 v=0
141240 Par ch=1 c=64 v=104
141255 On ch=1 n=f#5 v=0
141255 Par ch=1 c=64 v=127
141270 On ch=1 n=c#7 v=0
141270 On ch=1 n=d#7 v=0
141395 On ch=1 n=e7 v=82
141500 On ch=1 n=d#5 v=57
141525 Par ch=1 c=64 v=104
141540 On ch=1 n=a5 v=56
141540 Par ch=1 c=64 v=0
141580 On ch=1 n=d#5 v=0
141590 On ch=1 n=e7 v=0
141590 On ch=1 n=c#6 v=42
141595 Par ch=1 c=64 v=24
141610 Par ch=1 c=64 v=88
141630 Par ch=1 c=64 v=127
141640 On ch=1 n=f#6 v=51
141680 On ch=1 n=a5 v=0
141690 On ch=1 n=f#7 v=82
141715 On ch=1 n=a6 v=62
141715 On ch=1 n=c#7 v=57
141720 On ch=1 n=f#6 v=0
141720 On ch=1 n=c#6 v=0
141745 On ch=1 n=a6 v=0
141755 On ch=1 n=c#7 v=0
141805 On ch=1 n=f#7 v=0
142170 Par ch=1 c=64 v=88
142175 On ch=1 n=c#6 v=51
142175 On ch=1 n=e7 v=78
142185 On ch=1 n=g#5 v=42
142185 Par ch=1 c=64 v=0
142190 On ch=1 n=g#6 v=47
142190 On ch=1 n=e6 v=60
142225 On ch=1 n=e6 v=0
142235 Par ch=1 c=64 v=40
142255 On ch=1 n=c#6 v=0
142255 Par ch=1 c=64 v=104
142270 On ch=1 n=g#5 v=0
142270 Par ch=1 c=64 v=127
142280 On ch=1 n=e7 v=0
142310 On ch=1 n=d#7 v=73
142395 On ch=1 n=g#6 v=0
142440 On ch=1 n=d#7 v=0
142450 On ch=1 n=c#7 v=73
142575 On ch=1 n=e7 v=76
142585 On ch=1 n=c#7 v=0
142670 On ch=1 n=e7 v=0
142710 On ch=1 n=d#7 v=73
142730 On ch=1 n=f#6 v=53
142730 On ch=1 n=d#6 v=53
142730 Par ch=1 c=64 v=72
142740 On ch=1 n=g#6 v=48
142740 On ch=1 n=a5 v=51
142750 Par ch=1 c=64 v=0
142800 On ch=1 n=d#6 v=0
142800 On ch=1 n=f#6 v=0
142800 Par ch=1 c=64 v=24
142815 Par ch=1 c=64 v=104
142825 On ch=1 n=g#6 v=0
142830 On ch=1 n=a5 v=0
142830 Par ch=1 c=64 v=127
142850 On ch=1 n=d#7 v=0
142855 On ch=1 n=c#7 v=74
142975 On ch=1 n=c#7 v=0
143010 On ch=1 n=c7 v=81
143130 On ch=1 n=c7 v=0
143150 On ch=1 n=d#7 v=74
143155 On ch=1 n=c#5 v=43
143170 Par ch=1 c=64 v=104
143190 Par ch=1 c=64 v=0
143230 On ch=1 n=c#5 v=0
143230 On ch=1 n=g#5 v=60
143290 Par ch=1 c=64 v=104
143305 Par ch=1 c=64 v=127
143315 On ch=1 n=c#6 v=49
143345 On ch=1 n=g#5 v=0
143355 On ch=1 n=d#7 v=0
143355 On ch=1 n=e6 v=64
143375 On ch=1 n=c#7 v=75
143385 On ch=1 n=g#6 v=51
143395 On ch=1 n=c#6 v=0
143420 On ch=1 n=e6 v=0
143450 On ch=1 n=g#6 v=0
143495 On ch=1 n=c#7 v=0
143510 On ch=1 n=d#7 v=67
143605 On ch=1 n=d#7 v=0
143610 On ch=1 n=c#7 v=64
143695 On ch=1 n=d#7 v=60
143700 On ch=1 n=c#7 v=0
143780 On ch=1 n=d#7 v=0
143780 On ch=1 n=c#7 v=57
143845 On ch=1 n=d#7 v=56
143850 On ch=1 n=c#7 v=0
143930 On ch=1 n=d#7 v=0
143930 On ch=1 n=c#7 v=57
143990 On ch=1 n=d#7 v=58
143995 On ch=1 n=c#7 v=0
144070 On ch=1 n=d#7 v=0
144070 On ch=1 n=c#7 v=57
144130 On ch=1 n=d#7 v=57
144135 On ch=1 n=c#7 v=0
144205 On ch=1 n=d#7 v=0
144205 On ch=1 n=c#7 v=58
144260 On ch=1 n=d#7 v=61
144265 On ch=1 n=c#7 v=0
144340 On ch=1 n=d#7 v=0
144350 On ch=1 n=c#7 v=56
144400 On ch=1 n=d#7 v=63
144415 On ch=1 n=c#7 v=0
144480 On ch=1 n=d#7 v=0
144490 On ch=1 n=c#7 v=61
144540 On ch=1 n=d#7 v=60
144560 On ch=1 n=c#7 v=0
144615 On ch=1 n=d#7 v=0
144625 On ch=1 n=c#7 v=56
144695 On ch=1 n=d#7 v=55
144700 On ch=1 n=c#7 v=0
144810 On ch=1 n=c#7 v=66
144830 On ch=1 n=d#7 v=0
144905 On ch=1 n=c#7 v=0
144915 On ch=1 n=c7 v=71
145020 On ch=1 n=c#7 v=70
145025 On ch=1 n=c7 v=0
145140 On ch=1 n=d7 v=72
145145 On ch=1 n=c#7 v=0
145220 On ch=1 n=d7 v=0
145245 On ch=1 n=d#7 v=72
145350 On ch=1 n=d#7 v=0
145365 On ch=1 n=e7 v=71
145465 On ch=1 n=e7 v=0
145480 On ch=1 n=f7 v=70
145565 On ch=1 n=f7 v=0
145595 On ch=1 n=f#7 v=70
145705 On ch=1 n=f#7 v=0
145735 On ch=1 n=g7 v=71
145865 On ch=1 n=g7 v=0
145865 Par ch=1 c=64 v=56
145880 Par ch=1 c=64 v=0
145930 On ch=1 n=g#7 v=81
145950 On ch=1 n=e5 v=53
145985 Par ch=1 c=64 v=24
146000 On ch=1 n=g#7 v=0
146035 Par ch=1 c=64 v=0
146045 On ch=1 n=e5 v=0
146235 On ch=1 n=b6 v=58
146235 On ch=1 n=e6 v=55
146235 On ch=1 n=g#6 v=48
146260 On ch=1 n=b5 v=24
146270 On ch=1 n=e6 v=0
146270 On ch=1 n=b6 v=0
146285 On ch=1 n=g#6 v=0
146290 On ch=1 n=b5 v=0
146460 On ch=1 n=g#7 v=70
146475 On ch=1 n=b4 v=63
146510 On ch=1 n=b4 v=0
146545 On ch=1 n=g#7 v=0
146720 On ch=1 n=b5 v=52
146730 On ch=1 n=b6 v=54
146735 On ch=1 n=g#6 v=27
146740 On ch=1 n=e6 v=35
146760 On ch=1 n=b5 v=0
146770 On ch=1 n=b6 v=0
146775 On ch=1 n=e6 v=0
146775 On ch=1 n=g#6 v=0
146960 On ch=1 n=g#7 v=90
146995 On ch=1 n=e5 v=51
147000 Par ch=1 c=64 v=56
147015 Par ch=1 c=64 v=104
147035 Par ch=1 c=64 v=127
147055 On ch=1 n=e5 v=0
147210 On ch=1 n=g#6 v=36
147215 On ch=1 n=b5 v=48
147220 On ch=1 n=b6 v=54
147220 On ch=1 n=e6 v=44
147250 On ch=1 n=b5 v=0
147255 On ch=1 n=e6 v=0
147445 On ch=1 n=b4 v=52
147475 Par ch=1 c=64 v=104
147480 On ch=1 n=b4 v=0
147500 On ch=1 n=g#7 v=0
147510 Par ch=1 c=64 v=88
147525 Par ch=1 c=64 v=72
147530 On ch=1 n=b6 v=0
147540 Par ch=1 c=64 v=56
147550 On ch=1 n=g#6 v=0
147580 Par ch=1 c=64 v=40
147595 Par ch=1 c=64 v=24
147610 Par ch=1 c=64 v=0
147665 On ch=1 n=f#7 v=70
147685 On ch=1 n=b6 v=63
147695 On ch=1 n=b5 v=39
147695 On ch=1 n=e6 v=32
147700 On ch=1 n=g#6 v=22
147735 On ch=1 n=g#6 v=0
147735 On ch=1 n=b5 v=0
147735 On ch=1 n=b6 v=0
147740 On ch=1 n=e6 v=0
147745 On ch=1 n=f#7 v=0
147785 On ch=1 n=e7 v=84
147880 On ch=1 n=d#7 v=87
147890 On ch=1 n=d#5 v=61
147910 On ch=1 n=e7 v=0
147945 On ch=1 n=d#5 v=0
148000 On ch=1 n=d#7 v=0
148105 On ch=1 n=f#6 v=50
148115 On ch=1 n=e7 v=82
148115 On ch=1 n=b5 v=53
148125 On ch=1 n=a6 v=53
148140 On ch=1 n=f#6 v=0
148140 On ch=1 n=b6 v=38
148145 On ch=1 n=b5 v=0
148160 On ch=1 n=a6 v=0
148175 On ch=1 n=b6 v=0
148220 On ch=1 n=e7 v=0
148355 On ch=1 n=f#7 v=85
148365 On ch=1 n=b4 v=54
148420 On ch=1 n=b4 v=0
148495 On ch=1 n=f#7 v=0
148585 On ch=1 n=b6 v=70
148585 On ch=1 n=d#6 v=37
148590 On ch=1 n=b5 v=44
148605 On ch=1 n=a6 v=33
148620 On ch=1 n=b5 v=0
148620 On ch=1 n=d#6 v=0
148640 On ch=1 n=a6 v=0
148645 On ch=1 n=b6 v=0
148805 On ch=1 n=g#7 v=92
148845 On ch=1 n=e5 v=58
148885 Par ch=1 c=64 v=88
148890 On ch=1 n=e5 v=0
148900 Par ch=1 c=64 v=127
149070 On ch=1 n=b6 v=46
149070 On ch=1 n=g#6 v=42
149070 On ch=1 n=e6 v=48
149070 On ch=1 n=b5 v=48
149120 On ch=1 n=b5 v=0
149120 On ch=1 n=e6 v=0
149295 On ch=1 n=b4 v=59
149315 On ch=1 n=g#7 v=0
149345 On ch=1 n=b4 v=0
149375 On ch=1 n=b6 v=0
149385 On ch=1 n=g#6 v=0
149485 On ch=1 n=f#7 v=73
149510 On ch=1 n=b6 v=68
149515 On ch=1 n=e6 v=48
149515 On ch=1 n=b5 v=46
149525 Par ch=1 c=64 v=88
149545 Par ch=1 c=64 v=40
149560 On ch=1 n=b5 v=0
149560 On ch=1 n=e6 v=0
149560 On ch=1 n=b6 v=0
149560 Par ch=1 c=64 v=0
149605 On ch=1 n=e7 v=79
149615 On ch=1 n=f#7 v=0
149705 On ch=1 n=d#7 v=84
149720 On ch=1 n=e7 v=0
149725 On ch=1 n=d#5 v=61
149785 On ch=1 n=d#5 v=0
149805 On ch=1 n=d#7 v=0
149920 On ch=1 n=f#6 v=55
149930 On ch=1 n=e7 v=88
149940 On ch=1 n=a6 v=56
149940 On ch=1 n=b5 v=46
149960 On ch=1 n=f#6 v=0
149970 On ch=1 n=a6 v=0
149975 On ch=1 n=b5 v=0
150015 On ch=1 n=e7 v=0
150150 On ch=1 n=b4 v=55
150155 On ch=1 n=f#7 v=86
150225 On ch=1 n=b4 v=0
150280 On ch=1 n=f#7 v=0
150380 On ch=1 n=d#6 v=56
150390 On ch=1 n=b6 v=69
150390 On ch=1 n=b5 v=55
150400 On ch=1 n=a6 v=44
150420 On ch=1 n=b5 v=0
150435 On ch=1 n=a6 v=0
150435 On ch=1 n=d#6 v=0
150465 On ch=1 n=b6 v=0
150590 On ch=1 n=g#7 v=97
150630 On ch=1 n=e5 v=59
150635 Par ch=1 c=64 v=40
150650 Par ch=1 c=64 v=104
150670 Par ch=1 c=64 v=127
150700 On ch=1 n=e5 v=0
150835 On ch=1 n=b6 v=61
150835 On ch=1 n=g#6 v=45
150870 On ch=1 n=e6 v=36
150885 On ch=1 n=b5 v=24
150920 On ch=1 n=e6 v=0
150930 On ch=1 n=b5 v=0
150955 Par ch=1 c=64 v=72
150965 On ch=1 n=b6 v=0
150975 Par ch=1 c=64 v=0
151050 On ch=1 n=g#6 v=0
151060 Par ch=1 c=64 v=40
151075 On ch=1 n=e5 v=68
151080 Par ch=1 c=64 v=127
151160 On ch=1 n=e5 v=0
151215 On ch=1 n=g#7 v=0
151300 On ch=1 n=f#7 v=74
151300 On ch=1 n=b6 v=55
151310 On ch=1 n=g#6 v=52
151310 On ch=1 n=b5 v=48
151310 On ch=1 n=e6 v=55
151315 Par ch=1 c=64 v=104
151330 Par ch=1 c=64 v=72
151345 On ch=1 n=g#6 v=0
151345 Par ch=1 c=64 v=56
151350 On ch=1 n=b5 v=0
151365 Par ch=1 c=64 v=24
151380 Par ch=1 c=64 v=0
151410 On ch=1 n=b6 v=0
151410 On ch=1 n=f#7 v=0
151410 On ch=1 n=e7 v=82
151420 On ch=1 n=e6 v=0
151520 On ch=1 n=e7 v=0
151520 On ch=1 n=d#5 v=57
151520 On ch=1 n=d#7 v=85
151625 On ch=1 n=d#5 v=0
151635 On ch=1 n=e7 v=85
151660 On ch=1 n=d#7 v=0
151735 On ch=1 n=f#7 v=84
151735 On ch=1 n=b6 v=55
151755 On ch=1 n=e7 v=0
151755 On ch=1 n=f#6 v=50
151765 On ch=1 n=b5 v=49
151795 On ch=1 n=b5 v=0
151800 On ch=1 n=f#6 v=0
151840 On ch=1 n=f#7 v=0
151845 On ch=1 n=b6 v=0
151845 On ch=1 n=g#7 v=85
151925 On ch=1 n=g#7 v=0
151960 On ch=1 n=f#7 v=79
151985 On ch=1 n=c#5 v=58
152065 On ch=1 n=c#5 v=0
152110 On ch=1 n=f#7 v=0
152205 On ch=1 n=e7 v=88
152210 On ch=1 n=c#6 v=45
152210 On ch=1 n=g#6 v=54
152220 On ch=1 n=e6 v=48
152230 On ch=1 n=g#5 v=45
152240 On ch=1 n=c#6 v=0
152260 On ch=1 n=e6 v=0
152260 On ch=1 n=g#6 v=0
152270 On ch=1 n=g#5 v=0
152290 On ch=1 n=e7 v=0
152435 On ch=1 n=d#7 v=85
152445 On ch=1 n=c5 v=55
152520 On ch=1 n=c5 v=0
152535 On ch=1 n=d#7 v=0
152660 On ch=1 n=d#6 v=62
152660 On ch=1 n=e7 v=86
152665 On ch=1 n=g#5 v=53
152675 On ch=1 n=g#6 v=49
152700 On ch=1 n=g#5 v=0
152710 On ch=1 n=d#6 v=0
152715 On ch=1 n=g#6 v=0
152750 On ch=1 n=e7 v=0
152905 On ch=1 n=f#7 v=89
152925 On ch=1 n=g#4 v=61
152925 Par ch=1 c=64 v=40
152940 Par ch=1 c=64 v=88
152960 Par ch=1 c=64 v=127
152985 On ch=1 n=g#4 v=0
153125 On ch=1 n=f#7 v=0
153165 On ch=1 n=c6 v=47
153165 On ch=1 n=d#5 v=38
153175 On ch=1 n=g#6 v=47
153215 On ch=1 n=c6 v=0
153230 On ch=1 n=d#5 v=0
153245 Par ch=1 c=64 v=104
153265 Par ch=1 c=64 v=72
153280 Par ch=1 c=64 v=40
153290 On ch=1 n=e7 v=73
153295 Par ch=1 c=64 v=0
153325 On ch=1 n=g#6 v=0
153375 On ch=1 n=c#5 v=62
153390 On ch=1 n=e7 v=0
153400 On ch=1 n=d#7 v=84
153405 On ch=1 n=c#5 v=0
153510 On ch=1 n=e7 v=80
153535 On ch=1 n=d#7 v=0
153610 On ch=1 n=g#5 v=47
153615 On ch=1 n=f#7 v=72
153615 On ch=1 n=g#6 v=55
153615 On ch=1 n=e6 v=55
153645 On ch=1 n=e7 v=0
153665 On ch=1 n=e6 v=0
153665 On ch=1 n=g#5 v=0
153715 On ch=1 n=f#7 v=0
153720 On ch=1 n=g#7 v=85
153725 On ch=1 n=g#6 v=0
153825 On ch=1 n=g#7 v=0
153825 On ch=1 n=f#7 v=80
153840 On ch=1 n=g#4 v=60
153885 On ch=1 n=g#4 v=0
153925 On ch=1 n=f#7 v=0
154050 On ch=1 n=e7 v=87
154050 On ch=1 n=g#6 v=54
154050 On ch=1 n=c#6 v=49
154050 On ch=1 n=g#5 v=55
154050 On ch=1 n=e5 v=55
154085 On ch=1 n=c#6 v=0
154085 On ch=1 n=g#6 v=0
154100 On ch=1 n=e5 v=0
154100 On ch=1 n=g#5 v=0
154135 On ch=1 n=e7 v=0
154280 On ch=1 n=d#7 v=86
154290 On ch=1 n=c5 v=66
154300 Par ch=1 c=64 v=56
154315 Par ch=1 c=64 v=104
154335 Par ch=1 c=64 v=127
154350 On ch=1 n=c5 v=0
154405 On ch=1 n=d#7 v=0
154505 On ch=1 n=c#7 v=75
154515 On ch=1 n=d#6 v=48
154530 On ch=1 n=g#6 v=53
154530 On ch=1 n=f#5 v=38
154530 On ch=1 n=g#5 v=41
154555 On ch=1 n=d#6 v=0
154560 On ch=1 n=f#5 v=0
154565 On ch=1 n=g#5 v=0
154590 On ch=1 n=g#6 v=0
154610 On ch=1 n=c#7 v=0
154765 On ch=1 n=g#4 v=53
154765 On ch=1 n=c7 v=77
154820 On ch=1 n=g#4 v=0
154835 On ch=1 n=c7 v=0
154875 Par ch=1 c=64 v=104
154905 Par ch=1 c=64 v=88
154925 Par ch=1 c=64 v=72
154940 Par ch=1 c=64 v=56
154960 Par ch=1 c=64 v=40
154975 Par ch=1 c=64 v=24
154990 On ch=1 n=c6 v=61
154990 On ch=1 n=g#6 v=47
154995 On ch=1 n=f#5 v=48
154995 Par ch=1 c=64 v=0
155010 On ch=1 n=d#5 v=39
155040 On ch=1 n=g#6 v=0
155040 On ch=1 n=c6 v=0
155050 On ch=1 n=d#5 v=0
155050 On ch=1 n=f#5 v=0
155205 Par ch=1 c=64 v=24
155215 On ch=1 n=d#7 v=73
155215 On ch=1 n=c#5 v=56
155220 Par ch=1 c=64 v=56
155230 Par ch=1 c=64 v=88
155245 Par ch=1 c=64 v=104
155260 Par ch=1 c=64 v=127
155275 On ch=1 n=c#5 v=0
155300 On ch=1 n=d#7 v=0
155325 On ch=1 n=e7 v=76
155390 Par ch=1 c=64 v=104
155400 On ch=1 n=e7 v=0
155405 Par ch=1 c=64 v=88
155420 Par ch=1 c=64 v=56
155435 On ch=1 n=f#7 v=77
155435 On ch=1 n=g#6 v=47
155435 On ch=1 n=e6 v=55
155435 On ch=1 n=g#5 v=55
155440 Par ch=1 c=64 v=24
155450 Par ch=1 c=64 v=0
155480 On ch=1 n=g#6 v=0
155485 On ch=1 n=g#5 v=0
155485 On ch=1 n=e6 v=0
155510 On ch=1 n=f#7 v=0
155535 On ch=1 n=g#7 v=81
155610 On ch=1 n=g#7 v=0
155650 On ch=1 n=f#7 v=69
155655 On ch=1 n=e5 v=61
155725 On ch=1 n=e5 v=0
155730 On ch=1 n=f#7 v=0
155880 On ch=1 n=e7 v=80
155885 On ch=1 n=g#5 v=38
155890 On ch=1 n=c#6 v=32
155895 On ch=1 n=e6 v=42
155895 On ch=1 n=g#6 v=34
155900 On ch=1 n=c#7 v=37
155930 On ch=1 n=c#7 v=0
155930 On ch=1 n=g#6 v=0
155930 On ch=1 n=e6 v=0
155930 On ch=1 n=c#6 v=0
155940 On ch=1 n=g#5 v=0
155960 On ch=1 n=e7 v=0
156105 On ch=1 n=d#7 v=77
156120 On ch=1 n=f#5 v=63
156125 Par ch=1 c=64 v=40
156140 Par ch=1 c=64 v=72
156160 Par ch=1 c=64 v=104
156175 Par ch=1 c=64 v=127
156215 On ch=1 n=d#7 v=0
156255 On ch=1 n=f#5 v=0
156340 On ch=1 n=e7 v=83
156350 On ch=1 n=c#7 v=55
156350 On ch=1 n=f#6 v=48
156370 On ch=1 n=c#6 v=42
156375 On ch=1 n=c#7 v=0
156375 On ch=1 n=a6 v=39
156375 On ch=1 n=a5 v=44
156400 On ch=1 n=a6 v=0
156410 On ch=1 n=f#6 v=0
156415 On ch=1 n=a5 v=0
156445 On ch=1 n=e7 v=0
156475 On ch=1 n=c#6 v=0
156570 Par ch=1 c=64 v=88
156585 Par ch=1 c=64 v=56
156590 On ch=1 n=d#5 v=59
156600 On ch=1 n=f#7 v=82
156600 Par ch=1 c=64 v=0
156670 Par ch=1 c=64 v=24
156685 Par ch=1 c=64 v=72
156700 Par ch=1 c=64 v=127
156710 On ch=1 n=d#5 v=0
156720 On ch=1 n=f#7 v=0
156840 On ch=1 n=f#6 v=36
156845 On ch=1 n=c#7 v=59
156865 On ch=1 n=a6 v=43
156865 On ch=1 n=c#6 v=30
156920 On ch=1 n=a6 v=0
156935 On ch=1 n=c#7 v=0
156940 On ch=1 n=f#6 v=0
156965 On ch=1 n=c#6 v=0
157065 Par ch=1 c=64 v=104
157080 Par ch=1 c=64 v=40
157085 On ch=1 n=e7 v=80
157095 Par ch=1 c=64 v=0
157100 On ch=1 n=g5 v=67
157140 Par ch=1 c=64 v=24
157155 Par ch=1 c=64 v=56
157170 Par ch=1 c=64 v=104
157180 On ch=1 n=e7 v=0
157185 Par ch=1 c=64 v=127
157205 On ch=1 n=d#7 v=68
157305 On ch=1 n=d#7 v=0
157335 On ch=1 n=c#7 v=70
157340 On ch=1 n=g5 v=0
157345 On ch=1 n=c#6 v=42
157345 On ch=1 n=a#6 v=44
157350 On ch=1 n=g6 v=39
157350 On ch=1 n=e6 v=41
157360 On ch=1 n=a#5 v=42
157400 On ch=1 n=g6 v=0
157410 On ch=1 n=a#6 v=0
157435 On ch=1 n=c#6 v=0
157445 On ch=1 n=a#5 v=0
157455 On ch=1 n=c#7 v=0
157470 On ch=1 n=e7 v=79
157580 On ch=1 n=e7 v=0
157590 On ch=1 n=e6 v=0
157615 On ch=1 n=d#7 v=71
157620 On ch=1 n=g#5 v=70
157670 Par ch=1 c=64 v=72
157685 Par ch=1 c=64 v=0
157745 On ch=1 n=c#7 v=71
157750 On ch=1 n=d#7 v=0
157800 Par ch=1 c=64 v=56
157815 Par ch=1 c=64 v=104
157830 Par ch=1 c=64 v=127
157855 On ch=1 n=c#7 v=0
157885 On ch=1 n=c7 v=66
157885 On ch=1 n=f#6 v=49
157900 On ch=1 n=g#6 v=40
157900 On ch=1 n=d#6 v=46
157910 On ch=1 n=g#5 v=0
157925 On ch=1 n=d#6 v=0
157930 On ch=1 n=c6 v=40
157940 On ch=1 n=f#6 v=0
157955 On ch=1 n=c6 v=0
157985 On ch=1 n=c7 v=0
158030 On ch=1 n=d#7 v=71
158060 On ch=1 n=g#6 v=0
158150 On ch=1 n=d#7 v=0
158185 On ch=1 n=c#7 v=72
158185 Par ch=1 c=64 v=56
158195 Par ch=1 c=64 v=0
158205 On ch=1 n=c#5 v=65
158285 Par ch=1 c=64 v=88
158300 Par ch=1 c=64 v=127
158310 On ch=1 n=c#7 v=0
158310 On ch=1 n=g#6 v=61
158315 Par ch=1 c=64 v=88
158325 On ch=1 n=c#5 v=0
158330 Par ch=1 c=64 v=127
158420 On ch=1 n=g#6 v=0
158430 On ch=1 n=g#7 v=69
158455 On ch=1 n=g#5 v=49
158465 On ch=1 n=e6 v=53
158475 On ch=1 n=c#6 v=49
158550 On ch=1 n=g#6 v=66
158560 On ch=1 n=g#7 v=0
158670 On ch=1 n=c#7 v=68
158675 On ch=1 n=g#5 v=0
158690 On ch=1 n=e6 v=0
158695 On ch=1 n=c#6 v=0
158710 On ch=1 n=g#6 v=0
158780 On ch=1 n=c#7 v=0
158790 On ch=1 n=g#6 v=67
158900 On ch=1 n=g#6 v=0
158905 On ch=1 n=g#7 v=69
159000 On ch=1 n=g#6 v=70
159035 On ch=1 n=g#7 v=0
159095 On ch=1 n=g#6 v=0
159115 On ch=1 n=c#7 v=67
159210 On ch=1 n=g#6 v=69
159230 On ch=1 n=c#7 v=0
159320 On ch=1 n=g#6 v=0
159325 On ch=1 n=g#7 v=78
159425 On ch=1 n=g#6 v=69
159460 On ch=1 n=g#7 v=0
159535 On ch=1 n=g#6 v=0
159545 On ch=1 n=c#7 v=72
159630 On ch=1 n=g#6 v=71
159650 On ch=1 n=c#7 v=0
159735 On ch=1 n=g#6 v=0
159745 On ch=1 n=g#7 v=80
159840 On ch=1 n=g#6 v=67
159875 On ch=1 n=g#7 v=0
159970 On ch=1 n=g#6 v=0
159970 On ch=1 n=c#7 v=78
160055 On ch=1 n=g#6 v=80
160080 On ch=1 n=c#7 v=0
160165 On ch=1 n=g#6 v=0
160165 On ch=1 n=g#7 v=89
160260 On ch=1 n=g#6 v=79
160300 On ch=1 n=g#7 v=0
160380 On ch=1 n=g#6 v=0
160380 On ch=1 n=c#7 v=77
160475 On ch=1 n=g#6 v=76
160490 On ch=1 n=c#7 v=0
160575 On ch=1 n=g#6 v=0
160580 On ch=1 n=g#7 v=79
160670 On ch=1 n=g#6 v=71
160705 On ch=1 n=g#7 v=0
160780 On ch=1 n=g#6 v=0
160790 On ch=1 n=c#7 v=61
160870 On ch=1 n=c#7 v=0
160875 On ch=1 n=g#6 v=67
160980 On ch=1 n=g#7 v=74
160985 On ch=1 n=g#6 v=0
161085 On ch=1 n=g#6 v=65
161110 On ch=1 n=g#7 v=0
161190 On ch=1 n=g#6 v=0
161210 On ch=1 n=c#7 v=58
161285 On ch=1 n=c#7 v=0
161295 On ch=1 n=g#6 v=65
161380 On ch=1 n=g#6 v=0
161415 On ch=1 n=g#7 v=67
161530 On ch=1 n=g#7 v=0
161530 On ch=1 n=g#6 v=63
161605 On ch=1 n=g#6 v=0
161670 Par ch=1 c=64 v=104
161680 On ch=1 n=g#7 v=81
161685 Par ch=1 c=64 v=56
161700 Par ch=1 c=64 v=0
161730 On ch=1 n=e5 v=42
161800 On ch=1 n=b6 v=55
161810 Par ch=1 c=64 v=56
161825 Par ch=1 c=64 v=127
161830 On ch=1 n=e5 v=0
161830 On ch=1 n=g#7 v=0
161845 On ch=1 n=b5 v=36
161885 On ch=1 n=b5 v=0
161885 On ch=1 n=b6 v=0
161930 On ch=1 n=b7 v=70
162020 On ch=1 n=b7 v=0
162035 On ch=1 n=b6 v=76
162050 On ch=1 n=b5 v=38
162105 On ch=1 n=b5 v=0
162140 On ch=1 n=b6 v=0
162170 On ch=1 n=g#7 v=82
162180 On ch=1 n=b4 v=42
162235 On ch=1 n=b4 v=0
162280 On ch=1 n=b6 v=66
162285 On ch=1 n=b5 v=47
162315 On ch=1 n=g#7 v=0
162345 On ch=1 n=b5 v=0
162375 On ch=1 n=b6 v=0
162395 On ch=1 n=g#5 v=33
162405 On ch=1 n=b7 v=70
162435 On ch=1 n=g#5 v=0
162490 On ch=1 n=b5 v=41
162490 On ch=1 n=b6 v=68
162505 On ch=1 n=b7 v=0
162560 On ch=1 n=b5 v=0
162595 On ch=1 n=b6 v=0
162615 On ch=1 n=g#7 v=84
162630 On ch=1 n=e5 v=46
162710 On ch=1 n=b6 v=69
162730 On ch=1 n=b5 v=40
162735 On ch=1 n=e5 v=0
162735 On ch=1 n=g#7 v=0
162795 On ch=1 n=b5 v=0
162825 On ch=1 n=b6 v=0
162830 On ch=1 n=g#5 v=40
162840 On ch=1 n=b7 v=71
162870 On ch=1 n=g#5 v=0
162920 On ch=1 n=b5 v=54
162940 On ch=1 n=b7 v=0
162940 On ch=1 n=b6 v=79
163005 On ch=1 n=b5 v=0
163055 On ch=1 n=b6 v=0
163075 On ch=1 n=f#7 v=82
163075 On ch=1 n=b4 v=47
163140 On ch=1 n=b4 v=0
163175 On ch=1 n=b6 v=71
163180 On ch=1 n=f#7 v=0
163190 On ch=1 n=b5 v=52
163275 On ch=1 n=b6 v=0
163290 On ch=1 n=b5 v=0
163290 On ch=1 n=b7 v=69
163295 On ch=1 n=e7 v=83
163310 On ch=1 n=g#5 v=43
163375 On ch=1 n=g#5 v=0
163380 On ch=1 n=e7 v=0
163400 On ch=1 n=b6 v=76
163405 On ch=1 n=b7 v=0
163420 On ch=1 n=b5 v=42
163485 On ch=1 n=b5 v=0
163505 On ch=1 n=b6 v=0
163505 Par ch=1 c=64 v=104
163525 On ch=1 n=d#7 v=80
163525 Par ch=1 c=64 v=56
163540 Par ch=1 c=64 v=0
163550 On ch=1 n=f#5 v=45
163615 On ch=1 n=d#7 v=0
163615 Par ch=1 c=64 v=40
163625 On ch=1 n=b6 v=76
163630 Par ch=1 c=64 v=88
163645 On ch=1 n=f#5 v=0
163645 Par ch=1 c=64 v=127
163655 On ch=1 n=b5 v=47
163720 On ch=1 n=b6 v=0
163745 On ch=1 n=b5 v=0
163750 On ch=1 n=b7 v=72
163750 On ch=1 n=e7 v=83
163770 On ch=1 n=a5 v=53
163815 On ch=1 n=a5 v=0
163825 On ch=1 n=e7 v=0
163840 On ch=1 n=b7 v=0
163845 On ch=1 n=b6 v=68
163870 On ch=1 n=b5 v=46
163915 On ch=1 n=b5 v=0
163955 On ch=1 n=b6 v=0
163970 On ch=1 n=f#7 v=86
163995 On ch=1 n=b4 v=40
164035 On ch=1 n=b4 v=0
164080 On ch=1 n=b6 v=74
164095 On ch=1 n=f#7 v=0
164100 On ch=1 n=b5 v=46
164165 On ch=1 n=b5 v=0
164175 On ch=1 n=b6 v=0
164210 On ch=1 n=b7 v=68
164280 On ch=1 n=b7 v=0
164300 On ch=1 n=b6 v=74
164305 On ch=1 n=b5 v=35
164355 On ch=1 n=b5 v=0
164385 Par ch=1 c=64 v=72
164400 On ch=1 n=b6 v=0
164400 Par ch=1 c=64 v=0
164420 On ch=1 n=g#7 v=88
164445 On ch=1 n=e5 v=44
164460 Par ch=1 c=64 v=24
164475 Par ch=1 c=64 v=72
164490 Par ch=1 c=64 v=127
164520 On ch=1 n=g#7 v=0
164530 On ch=1 n=b6 v=78
164540 On ch=1 n=b5 v=38
164545 On ch=1 n=e5 v=0
164600 On ch=1 n=b5 v=0
164625 On ch=1 n=b6 v=0
164640 On ch=1 n=g#5 v=45
164645 On ch=1 n=b7 v=71
164670 On ch=1 n=g#5 v=0
164725 On ch=1 n=b5 v=46
164735 On ch=1 n=b7 v=0
164750 On ch=1 n=b6 v=68
164780 On ch=1 n=b5 v=0
164835 On ch=1 n=b6 v=0
164850 On ch=1 n=f#7 v=84
164870 On ch=1 n=b4 v=53
164910 On ch=1 n=b4 v=0
164950 On ch=1 n=b6 v=71
164960 On ch=1 n=f#7 v=0
164980 On ch=1 n=b5 v=46
165050 On ch=1 n=b5 v=0
165050 On ch=1 n=b6 v=0
165080 On ch=1 n=b7 v=72
165080 On ch=1 n=e7 v=82
165095 On ch=1 n=g#5 v=40
165145 On ch=1 n=g#5 v=0
165160 On ch=1 n=e7 v=0
165165 On ch=1 n=b7 v=0
165175 On ch=1 n=b6 v=77
165190 On ch=1 n=b5 v=44
165260 On ch=1 n=b5 v=0
165275 On ch=1 n=b6 v=0
165285 Par ch=1 c=64 v=88
165305 On ch=1 n=d#7 v=82
165305 Par ch=1 c=64 v=40
165320 Par ch=1 c=64 v=0
165325 On ch=1 n=f#5 v=39
165365 Par ch=1 c=64 v=24
165380 Par ch=1 c=64 v=72
165395 Par ch=1 c=64 v=104
165400 On ch=1 n=d#7 v=0
165410 On ch=1 n=b6 v=74
165410 Par ch=1 c=64 v=127
165415 On ch=1 n=f#5 v=0
165415 On ch=1 n=b5 v=45
165500 On ch=1 n=b5 v=0
165500 On ch=1 n=b6 v=0
165515 On ch=1 n=e7 v=84
165525 On ch=1 n=a5 v=52
165530 On ch=1 n=b7 v=73
165565 On ch=1 n=a5 v=0
165585 On ch=1 n=e7 v=0
165600 On ch=1 n=b7 v=0
165605 On ch=1 n=b5 v=51
165615 On ch=1 n=b6 v=70
165670 On ch=1 n=b5 v=0
165720 On ch=1 n=b6 v=0
165740 On ch=1 n=b4 v=46
165745 On ch=1 n=f#7 v=85
165780 On ch=1 n=b4 v=0
165835 On ch=1 n=b6 v=74
165840 On ch=1 n=b5 v=45
165865 On ch=1 n=f#7 v=0
165925 On ch=1 n=b5 v=0
165925 On ch=1 n=b6 v=0
165960 On ch=1 n=a5 v=41
165960 On ch=1 n=b7 v=71
165990 On ch=1 n=a5 v=0
166035 On ch=1 n=b7 v=0
166050 On ch=1 n=b5 v=35
166060 On ch=1 n=b6 v=68
166100 On ch=1 n=b5 v=0
166115 Par ch=1 c=64 v=104
166130 Par ch=1 c=64 v=56
166145 Par ch=1 c=64 v=0
166160 On ch=1 n=b6 v=0
166170 On ch=1 n=g#7 v=85
166175 On ch=1 n=e5 v=52
166205 Par ch=1 c=64 v=56
166220 Par ch=1 c=64 v=104
166240 Par ch=1 c=64 v=127
166260 On ch=1 n=g#7 v=0
166270 On ch=1 n=b6 v=71
166270 On ch=1 n=b5 v=45
166275 On ch=1 n=e5 v=0
166330 On ch=1 n=b5 v=0
166370 On ch=1 n=b6 v=0
166380 On ch=1 n=g#5 v=43
166395 On ch=1 n=b7 v=73
166425 On ch=1 n=g#5 v=0
166470 On ch=1 n=b5 v=43
166480 On ch=1 n=b7 v=0
166490 On ch=1 n=b6 v=70
166540 On ch=1 n=b5 v=0
166590 On ch=1 n=b6 v=0
166605 On ch=1 n=f#7 v=83
166620 On ch=1 n=e5 v=50
166705 On ch=1 n=b6 v=76
166710 On ch=1 n=f#7 v=0
166720 On ch=1 n=b5 v=53
166725 On ch=1 n=e5 v=0
166790 On ch=1 n=b6 v=0
166810 On ch=1 n=b5 v=0
166810 On ch=1 n=b7 v=73
166835 On ch=1 n=e7 v=83
166850 On ch=1 n=g#5 v=40
166895 On ch=1 n=e7 v=0
166910 On ch=1 n=b7 v=0
166910 On ch=1 n=b6 v=76
166945 On ch=1 n=g#5 v=0
166975 On ch=1 n=b5 v=42
167000 On ch=1 n=b6 v=0
167035 On ch=1 n=b5 v=0
167035 Par ch=1 c=64 v=72
167050 Par ch=1 c=64 v=24
167055 On ch=1 n=d#7 v=85
167070 Par ch=1 c=64 v=0
167085 On ch=1 n=d#5 v=49
167115 Par ch=1 c=64 v=40
167130 Par ch=1 c=64 v=72
167140 On ch=1 n=d#7 v=0
167145 Par ch=1 c=64 v=127
167175 On ch=1 n=e7 v=86
167190 On ch=1 n=b5 v=51
167255 On ch=1 n=e7 v=0
167260 On ch=1 n=b5 v=0
167275 On ch=1 n=d#5 v=0
167285 On ch=1 n=f#7 v=84
167285 On ch=1 n=f#5 v=40
167380 On ch=1 n=f#5 v=0
167380 On ch=1 n=f#7 v=0
167395 On ch=1 n=b5 v=52
167400 On ch=1 n=g#7 v=85
167465 On ch=1 n=b5 v=0
167470 On ch=1 n=g#7 v=0
167480 Par ch=1 c=64 v=88
167495 Par ch=1 c=64 v=40
167510 On ch=1 n=f#7 v=77
167510 Par ch=1 c=64 v=0
167530 On ch=1 n=c#5 v=47
167555 Par ch=1 c=64 v=72
167570 Par ch=1 c=64 v=104
167590 Par ch=1 c=64 v=127
167620 On ch=1 n=f#7 v=0
167625 On ch=1 n=c#5 v=0
167630 On ch=1 n=g#6 v=73
167655 On ch=1 n=g#5 v=40
167705 On ch=1 n=g#5 v=0
167705 On ch=1 n=g#6 v=0
167735 On ch=1 n=g#7 v=71
167735 On ch=1 n=e7 v=84
167775 On ch=1 n=e5 v=41
167815 On ch=1 n=e5 v=0
167825 On ch=1 n=e7 v=0
167830 On ch=1 n=g#7 v=0
167845 On ch=1 n=g#6 v=73
167850 On ch=1 n=g#5 v=33
167920 On ch=1 n=g#5 v=0
167930 On ch=1 n=g#6 v=0
167940 Par ch=1 c=64 v=88
167955 Par ch=1 c=64 v=40
167965 On ch=1 n=d#7 v=81
167970 Par ch=1 c=64 v=24
167990 On ch=1 n=c5 v=48
168015 Par ch=1 c=64 v=56
168030 On ch=1 n=c5 v=0
168030 Par ch=1 c=64 v=88
168045 Par ch=1 c=64 v=127
168055 On ch=1 n=d#7 v=0
168075 On ch=1 n=g#6 v=68
168075 On ch=1 n=g#5 v=36
168160 On ch=1 n=g#5 v=0
168160 On ch=1 n=g#6 v=0
168195 On ch=1 n=e7 v=83
168210 On ch=1 n=g#7 v=67
168215 On ch=1 n=d#5 v=34
168265 On ch=1 n=d#5 v=0
168285 On ch=1 n=g#5 v=43
168295 On ch=1 n=g#7 v=0
168300 On ch=1 n=e7 v=0
168300 On ch=1 n=g#6 v=70
168385 On ch=1 n=g#5 v=0
168400 On ch=1 n=g#6 v=0
168400 Par ch=1 c=64 v=88
168415 Par ch=1 c=64 v=72
168430 On ch=1 n=f#7 v=83
168450 On ch=1 n=g#4 v=45
168460 Par ch=1 c=64 v=104
168480 Par ch=1 c=64 v=127
168495 On ch=1 n=g#4 v=0
168535 On ch=1 n=f#7 v=0
168535 On ch=1 n=g#6 v=64
168545 On ch=1 n=g#5 v=40
168620 On ch=1 n=g#6 v=0
168630 On ch=1 n=g#5 v=0
168650 On ch=1 n=g#7 v=73
168655 On ch=1 n=e7 v=81
168685 On ch=1 n=d#5 v=41
168720 On ch=1 n=d#5 v=0
168735 On ch=1 n=e7 v=0
168735 On ch=1 n=g#7 v=0
168735 On ch=1 n=g#5 v=46
168740 On ch=1 n=g#6 v=70
168815 Par ch=1 c=64 v=88
168820 On ch=1 n=g#6 v=0
168820 On ch=1 n=g#5 v=0
168830 Par ch=1 c=64 v=40
168845 Par ch=1 c=64 v=0
168865 On ch=1 n=d#7 v=80
168885 On ch=1 n=c#5 v=49
168905 Par ch=1 c=64 v=72
168920 Par ch=1 c=64 v=104
168935 Par ch=1 c=64 v=127
168950 On ch=1 n=d#7 v=0
168955 On ch=1 n=g#5 v=40
168980 On ch=1 n=c#5 v=0
168990 On ch=1 n=e7 v=83
169045 On ch=1 n=g#5 v=0
169070 On ch=1 n=e7 v=0
169075 On ch=1 n=e5 v=46
169100 On ch=1 n=f#7 v=83
169115 On ch=1 n=e5 v=0
169155 On ch=1 n=g#5 v=51
169185 On ch=1 n=f#7 v=0
169210 On ch=1 n=g#7 v=86
169265 On ch=1 n=g#5 v=0
169285 On ch=1 n=g#7 v=0
169320 On ch=1 n=f#7 v=77
169325 On ch=1 n=g#4 v=47
169420 On ch=1 n=g#4 v=0
169425 On ch=1 n=f#7 v=0
169425 On ch=1 n=g#6 v=70
169435 On ch=1 n=g#5 v=36
169510 On ch=1 n=g#6 v=0
169525 On ch=1 n=g#5 v=0
169535 On ch=1 n=g#7 v=73
169535 On ch=1 n=e7 v=78
169560 On ch=1 n=e5 v=44
169605 On ch=1 n=e5 v=0
169630 On ch=1 n=e7 v=0
169645 On ch=1 n=g#5 v=39
169645 On ch=1 n=g#6 v=65
169650 On ch=1 n=g#7 v=0
169735 On ch=1 n=g#5 v=0
169735 Par ch=1 c=64 v=104
169740 On ch=1 n=g#6 v=0
169750 Par ch=1 c=64 v=56
169765 On ch=1 n=d#7 v=80
169765 Par ch=1 c=64 v=24
169780 Par ch=1 c=64 v=0
169785 On ch=1 n=c5 v=58
169810 Par ch=1 c=64 v=40
169825 Par ch=1 c=64 v=56
169840 Par ch=1 c=64 v=88
169860 Par ch=1 c=64 v=127
169870 On ch=1 n=c5 v=0
169870 On ch=1 n=d#7 v=0
169870 On ch=1 n=g#6 v=65
169875 On ch=1 n=g#5 v=34
169960 On ch=1 n=g#6 v=0
169965 On ch=1 n=g#5 v=0
169980 On ch=1 n=g#7 v=75
169985 On ch=1 n=c#7 v=82
170015 On ch=1 n=d#5 v=34
170060 On ch=1 n=d#5 v=0
170070 On ch=1 n=g#7 v=0
170085 On ch=1 n=c#7 v=0
170090 On ch=1 n=g#6 v=76
170095 On ch=1 n=g#5 v=37
170185 On ch=1 n=g#5 v=0
170185 On ch=1 n=g#6 v=0
170195 Par ch=1 c=64 v=104
170210 Par ch=1 c=64 v=56
170215 On ch=1 n=c7 v=83
170225 Par ch=1 c=64 v=24
170240 On ch=1 n=g#4 v=45
170240 Par ch=1 c=64 v=0
170255 Par ch=1 c=64 v=24
170270 Par ch=1 c=64 v=40
170285 Par ch=1 c=64 v=72
170305 Par ch=1 c=64 v=104
170315 On ch=1 n=g#4 v=0
170320 Par ch=1 c=64 v=127
170325 On ch=1 n=c7 v=0
170325 On ch=1 n=g#6 v=68
170335 On ch=1 n=g#5 v=43
170415 On ch=1 n=g#6 v=0
170425 On ch=1 n=g#5 v=0
170455 On ch=1 n=g#7 v=58
170520 On ch=1 n=g#7 v=0
170530 On ch=1 n=g#6 v=55
170535 On ch=1 n=g#5 v=39
170610 Par ch=1 c=64 v=104
170615 On ch=1 n=g#6 v=0
170625 On ch=1 n=g#5 v=0
170625 Par ch=1 c=64 v=56
170640 Par ch=1 c=64 v=0
170655 On ch=1 n=d#7 v=76
170685 Par ch=1 c=64 v=40
170690 On ch=1 n=c#5 v=47
170700 Par ch=1 c=64 v=72
170715 Par ch=1 c=64 v=127
170740 On ch=1 n=d#7 v=0
170765 On ch=1 n=g#5 v=37
170775 On ch=1 n=e7 v=79
170790 On ch=1 n=c#5 v=0
170855 On ch=1 n=e7 v=0
170855 On ch=1 n=g#5 v=0
170875 On ch=1 n=f#7 v=73
170895 On ch=1 n=e5 v=41
170930 On ch=1 n=e5 v=0
170960 On ch=1 n=f#7 v=0
170960 On ch=1 n=g#5 v=49
170985 On ch=1 n=g#7 v=80
171065 On ch=1 n=g#7 v=0
171065 On ch=1 n=g#5 v=0
171090 On ch=1 n=f#7 v=74
171125 On ch=1 n=g#4 v=51
171205 On ch=1 n=g#4 v=0
171205 On ch=1 n=f#7 v=0
171210 On ch=1 n=g#6 v=73
171210 On ch=1 n=g#5 v=46
171290 On ch=1 n=g#6 v=0
171300 On ch=1 n=g#5 v=0
171315 On ch=1 n=e7 v=82
171315 On ch=1 n=g#7 v=81
171330 On ch=1 n=e5 v=60
171390 On ch=1 n=e5 v=0
171405 On ch=1 n=e7 v=0
171420 On ch=1 n=g#6 v=73
171420 On ch=1 n=g#5 v=43
171430 On ch=1 n=g#7 v=0
171505 On ch=1 n=g#6 v=0
171515 Par ch=1 c=64 v=104
171520 On ch=1 n=g#5 v=0
171530 Par ch=1 c=64 v=56
171540 On ch=1 n=d#7 v=83
171545 Par ch=1 c=64 v=24
171560 Par ch=1 c=64 v=0
171570 On ch=1 n=c5 v=52
171575 Par ch=1 c=64 v=24
171590 Par ch=1 c=64 v=40
171605 Par ch=1 c=64 v=72
171610 On ch=1 n=c5 v=0
171620 Par ch=1 c=64 v=104
171635 On ch=1 n=g#6 v=70
171635 Par ch=1 c=64 v=127
171645 On ch=1 n=d#7 v=0
171655 On ch=1 n=g#5 v=42
171730 On ch=1 n=g#5 v=0
171740 On ch=1 n=g#6 v=0
171755 On ch=1 n=g#7 v=75
171770 On ch=1 n=c#7 v=78
171790 On ch=1 n=d#5 v=41
171830 On ch=1 n=d#5 v=0
171840 On ch=1 n=c#7 v=0
171840 On ch=1 n=g#7 v=0
171840 On ch=1 n=g#5 v=34
171870 On ch=1 n=g#6 v=64
171945 Par ch=1 c=64 v=88
171955 On ch=1 n=g#5 v=0
171960 On ch=1 n=g#6 v=0
171960 Par ch=1 c=64 v=40
171975 Par ch=1 c=64 v=0
171995 On ch=1 n=g#4 v=53
171995 On ch=1 n=c7 v=86
172020 Par ch=1 c=64 v=56
172035 Par ch=1 c=64 v=88
172050 Par ch=1 c=64 v=127
172080 On ch=1 n=g#4 v=0
172085 On ch=1 n=g#5 v=37
172110 On ch=1 n=c7 v=0
172110 On ch=1 n=g#6 v=73
172180 On ch=1 n=g#5 v=0
172190 On ch=1 n=g#6 v=0
172220 On ch=1 n=g#7 v=65
172285 On ch=1 n=g#5 v=38
172290 On ch=1 n=g#7 v=0
172310 On ch=1 n=g#6 v=51
172380 On ch=1 n=g#5 v=0
172385 On ch=1 n=g#6 v=0
172390 Par ch=1 c=64 v=72
172405 Par ch=1 c=64 v=24
172420 On ch=1 n=e7 v=85
172430 Par ch=1 c=64 v=40
172435 On ch=1 n=c#5 v=46
172450 Par ch=1 c=64 v=72
172465 Par ch=1 c=64 v=104
172480 Par ch=1 c=64 v=127
172515 On ch=1 n=e7 v=0
172530 On ch=1 n=g#5 v=42
172545 On ch=1 n=d#7 v=74
172550 On ch=1 n=g#6 v=47
172555 On ch=1 n=c#5 v=0
172585 On ch=1 n=g#6 v=0
172620 On ch=1 n=d#7 v=0
172660 On ch=1 n=g#5 v=0
172660 On ch=1 n=g#7 v=74
172685 On ch=1 n=g#6 v=46
172685 On ch=1 n=c#7 v=63
172695 On ch=1 n=e5 v=49
172735 On ch=1 n=e5 v=0
172755 On ch=1 n=g#7 v=0
172770 On ch=1 n=c#7 v=0
172775 On ch=1 n=g#5 v=53
172785 On ch=1 n=e7 v=69
172790 On ch=1 n=g#6 v=0
172880 Par ch=1 c=64 v=88
172885 On ch=1 n=e7 v=0
172890 On ch=1 n=g#5 v=0
172895 Par ch=1 c=64 v=40
172910 On ch=1 n=d#7 v=78
172910 Par ch=1 c=64 v=0
172940 On ch=1 n=g#4 v=54
172955 Par ch=1 c=64 v=24
172970 Par ch=1 c=64 v=72
172985 Par ch=1 c=64 v=104
173000 Par ch=1 c=64 v=127
173010 On ch=1 n=d#7 v=0
173020 On ch=1 n=g#4 v=0
173025 On ch=1 n=c#7 v=78
173035 On ch=1 n=g#5 v=55
173120 On ch=1 n=c#7 v=0
173135 On ch=1 n=g#5 v=0
173150 On ch=1 n=g#7 v=81
173160 On ch=1 n=g#6 v=55
173165 On ch=1 n=f#5 v=45
173175 On ch=1 n=c7 v=78
173195 On ch=1 n=d#5 v=30
173210 On ch=1 n=g#6 v=0
173245 On ch=1 n=c7 v=0
173250 On ch=1 n=g#7 v=0
173255 On ch=1 n=f#5 v=0
173285 On ch=1 n=d#7 v=81
173295 On ch=1 n=g#5 v=45
173305 On ch=1 n=d#5 v=0
173385 On ch=1 n=g#5 v=0
173385 Par ch=1 c=64 v=72
173390 On ch=1 n=d#7 v=0
173400 Par ch=1 c=64 v=0
173415 On ch=1 n=c#7 v=79
173430 On ch=1 n=c#5 v=54
173460 On ch=1 n=c#5 v=0
173490 Par ch=1 c=64 v=56
173505 Par ch=1 c=64 v=104
173520 Par ch=1 c=64 v=127
173525 On ch=1 n=c#7 v=0
173545 On ch=1 n=g#6 v=73
173570 On ch=1 n=f6 v=54
173615 On ch=1 n=f6 v=0
173615 On ch=1 n=g#6 v=0
173660 On ch=1 n=g#7 v=80
173685 On ch=1 n=g#5 v=47
173755 On ch=1 n=g#5 v=0
173760 On ch=1 n=g#7 v=0
173765 On ch=1 n=g#6 v=70
173775 On ch=1 n=f6 v=52
173850 On ch=1 n=f6 v=0
173850 On ch=1 n=c#6 v=56
173855 On ch=1 n=g#6 v=0
173885 On ch=1 n=c#7 v=71
173975 On ch=1 n=c#7 v=0
173980 On ch=1 n=c#6 v=0
173990 On ch=1 n=g#6 v=73
174020 On ch=1 n=f6 v=53
174080 On ch=1 n=f6 v=0
174090 On ch=1 n=g#6 v=0
174110 On ch=1 n=g#7 v=81
174160 On ch=1 n=g#5 v=35
174210 On ch=1 n=g#6 v=75
174210 On ch=1 n=f6 v=50
174215 On ch=1 n=g#7 v=0
174225 On ch=1 n=g#5 v=0
174245 On ch=1 n=f6 v=0
174300 On ch=1 n=g#6 v=0
174335 On ch=1 n=c#7 v=73
174335 On ch=1 n=c#5 v=50
174420 On ch=1 n=c#7 v=0
174435 On ch=1 n=c#5 v=0
174445 On ch=1 n=g#6 v=76
174445 On ch=1 n=f6 v=61
174520 On ch=1 n=f6 v=0
174530 On ch=1 n=g#6 v=0
174545 On ch=1 n=g#7 v=83
174560 On ch=1 n=g#5 v=45
174640 On ch=1 n=f6 v=58
174645 On ch=1 n=g#5 v=0
174645 On ch=1 n=g#7 v=0
174650 On ch=1 n=g#6 v=69
174715 On ch=1 n=f6 v=0
174730 On ch=1 n=c#6 v=61
174745 On ch=1 n=g#6 v=0
174755 On ch=1 n=c#7 v=67
174820 On ch=1 n=c#6 v=0
174840 On ch=1 n=f6 v=66
174855 On ch=1 n=c#7 v=0
174855 On ch=1 n=g#6 v=76
174920 On ch=1 n=f6 v=0
174945 On ch=1 n=g#6 v=0
174955 On ch=1 n=g#5 v=48
174955 On ch=1 n=g#7 v=77
175030 On ch=1 n=f6 v=63
175045 On ch=1 n=g#5 v=0
175055 On ch=1 n=g#6 v=71
175065 On ch=1 n=g#7 v=0
175090 On ch=1 n=f6 v=0
175120 On ch=1 n=g#6 v=0
175175 On ch=1 n=g#7 v=83
175175 On ch=1 n=c#5 v=44
175200 On ch=1 n=c#5 v=0
175260 On ch=1 n=g#7 v=0
175280 On ch=1 n=c#7 v=73
175295 On ch=1 n=f6 v=49
175355 On ch=1 n=f6 v=0
175365 On ch=1 n=c#7 v=0
175395 On ch=1 n=c#8 v=81
175400 On ch=1 n=g#5 v=44
175445 On ch=1 n=g#5 v=0
175475 On ch=1 n=f6 v=57
175495 On ch=1 n=c#8 v=0
175500 On ch=1 n=c#7 v=74
175545 On ch=1 n=f6 v=0
175575 On ch=1 n=c#6 v=59
175585 On ch=1 n=c#7 v=0
175610 On ch=1 n=g#7 v=74
175655 On ch=1 n=c#6 v=0
175680 On ch=1 n=f6 v=64
175710 On ch=1 n=g#7 v=0
175710 On ch=1 n=c#7 v=78
175750 On ch=1 n=f6 v=0
175790 On ch=1 n=g#5 v=50
175805 On ch=1 n=c#7 v=0
175810 On ch=1 n=c#8 v=77
175880 On ch=1 n=f6 v=58
175905 On ch=1 n=g#5 v=0
175915 On ch=1 n=c#8 v=0
175920 On ch=1 n=c#7 v=73
175940 On ch=1 n=f6 v=0
176005 Par ch=1 c=64 v=104
176020 On ch=1 n=c#7 v=0
176020 Par ch=1 c=64 v=56
176030 On ch=1 n=c#5 v=53
176035 Par ch=1 c=64 v=24
176040 On ch=1 n=g#7 v=74
176050 Par ch=1 c=64 v=40
176055 On ch=1 n=c#5 v=0
176065 Par ch=1 c=64 v=72
176080 Par ch=1 c=64 v=104
176100 Par ch=1 c=64 v=127
176125 On ch=1 n=g#7 v=0
176145 On ch=1 n=c#7 v=73
176145 On ch=1 n=f6 v=61
176235 On ch=1 n=f6 v=0
176235 On ch=1 n=c#7 v=0
176255 On ch=1 n=c#8 v=71
176285 On ch=1 n=g#5 v=38
176355 On ch=1 n=g#5 v=0
176355 On ch=1 n=c#8 v=0
176360 On ch=1 n=f6 v=58
176365 On ch=1 n=c#7 v=69
176435 On ch=1 n=f6 v=0
176450 On ch=1 n=c#7 v=0
176455 On ch=1 n=c#6 v=50
176475 On ch=1 n=g#7 v=70
176525 On ch=1 n=c#6 v=0
176550 On ch=1 n=g#7 v=0
176560 On ch=1 n=f6 v=56
176570 On ch=1 n=c#7 v=67
176625 On ch=1 n=f6 v=0
176650 On ch=1 n=c#7 v=0
176665 On ch=1 n=c#8 v=73
176680 On ch=1 n=g#5 v=45
176750 On ch=1 n=f6 v=52
176760 On ch=1 n=g#5 v=0
176765 On ch=1 n=c#7 v=63
176775 On ch=1 n=c#8 v=0
176790 On ch=1 n=f6 v=0
176850 On ch=1 n=c#7 v=0
176880 On ch=1 n=g#7 v=69
176880 On ch=1 n=c#5 v=47
176910 On ch=1 n=c#5 v=0
176960 On ch=1 n=g#7 v=0
176980 On ch=1 n=c#7 v=62
176995 On ch=1 n=f6 v=58
177065 On ch=1 n=f6 v=0
177065 On ch=1 n=c#7 v=0
177090 On ch=1 n=c#8 v=70
177105 On ch=1 n=g#5 v=31
177170 On ch=1 n=g#5 v=0
177185 On ch=1 n=c#8 v=0
177190 On ch=1 n=f6 v=55
177190 On ch=1 n=c#7 v=64
177260 On ch=1 n=f6 v=0
177290 On ch=1 n=c#7 v=0
177290 On ch=1 n=c#6 v=53
177305 On ch=1 n=g#7 v=67
177355 On ch=1 n=c#6 v=0
177380 On ch=1 n=g#7 v=0
177390 On ch=1 n=f6 v=53
177405 On ch=1 n=c#7 v=64
177435 On ch=1 n=f6 v=0
177495 On ch=1 n=g#5 v=45
177500 On ch=1 n=c#7 v=0
177520 On ch=1 n=c#8 v=64
177565 On ch=1 n=f6 v=52
177570 On ch=1 n=g#5 v=0
177605 On ch=1 n=f6 v=0
177610 On ch=1 n=c#8 v=0
177635 On ch=1 n=c#7 v=57
177705 On ch=1 n=c#7 v=0
177710 On ch=1 n=c#5 v=44
177715 On ch=1 n=g#7 v=65
177735 On ch=1 n=c#5 v=0
177765 On ch=1 n=g#7 v=0
177820 On ch=1 n=f6 v=51
177835 On ch=1 n=c#7 v=64
177895 On ch=1 n=f6 v=0
177905 On ch=1 n=c#7 v=0
177935 On ch=1 n=c#8 v=60
177960 On ch=1 n=g#5 v=30
177995 On ch=1 n=g#5 v=0
178015 On ch=1 n=c#8 v=0
178015 On ch=1 n=c#7 v=59
178025 On ch=1 n=f6 v=55
178095 On ch=1 n=c#7 v=0
178105 On ch=1 n=f6 v=0
178125 On ch=1 n=g#7 v=57
178130 On ch=1 n=c#6 v=49
178175 On ch=1 n=c#6 v=0
178200 On ch=1 n=g#7 v=0
178220 On ch=1 n=f6 v=59
178220 On ch=1 n=c#7 v=57
178285 On ch=1 n=f6 v=0
178300 On ch=1 n=c#7 v=0
178320 On ch=1 n=c#8 v=58
178330 On ch=1 n=g#5 v=37
178385 On ch=1 n=g#5 v=0
178405 On ch=1 n=f6 v=34
178410 On ch=1 n=c#8 v=0
178435 On ch=1 n=f6 v=0
178435 On ch=1 n=c#7 v=52
178520 On ch=1 n=c#7 v=0
178525 On ch=1 n=c#5 v=36
178535 On ch=1 n=g#7 v=56
178555 On ch=1 n=c#5 v=0
178610 On ch=1 n=g#7 v=0
178635 On ch=1 n=f6 v=52
178645 On ch=1 n=c#7 v=59
178705 On ch=1 n=f6 v=0
178720 On ch=1 n=c#7 v=0
178735 On ch=1 n=c#8 v=64
178755 On ch=1 n=g#5 v=32
178805 On ch=1 n=g#5 v=0
178830 On ch=1 n=f6 v=47
178835 On ch=1 n=c#8 v=0
178850 On ch=1 n=c#7 v=54
178890 On ch=1 n=f6 v=0
178930 On ch=1 n=c#7 v=0
178935 On ch=1 n=c#6 v=48
178945 On ch=1 n=g#7 v=51
179005 On ch=1 n=c#6 v=0
179015 On ch=1 n=g#7 v=0
179045 On ch=1 n=c#7 v=60
179055 On ch=1 n=f6 v=48
179095 On ch=1 n=f6 v=0
179125 On ch=1 n=c#7 v=0
179155 On ch=1 n=c#8 v=60
179155 On ch=1 n=g#5 v=34
179235 On ch=1 n=g#5 v=0
179240 On ch=1 n=f6 v=45
179245 On ch=1 n=c#8 v=0
179260 On ch=1 n=c#7 v=56
179270 On ch=1 n=f6 v=0
179350 On ch=1 n=c#7 v=0
179380 On ch=1 n=c#5 v=50
179395 On ch=1 n=g#7 v=56
179410 On ch=1 n=c#5 v=0
179470 On ch=1 n=g#7 v=0
179500 On ch=1 n=c#7 v=62
179590 On ch=1 n=c#7 v=0
179630 On ch=1 n=c#8 v=63
179675 On ch=1 n=f6 v=48
179695 On ch=1 n=g#5 v=27
179705 On ch=1 n=c#8 v=0
179735 On ch=1 n=g#5 v=0
179735 On ch=1 n=f6 v=0
180210 Par ch=1 c=64 v=104
180220 Par ch=1 c=64 v=88
180240 Par ch=1 c=64 v=56
180250 Par ch=1 c=64 v=24
180270 Par ch=1 c=64 v=0
181430 Par ch=1 c=64 v=40
181455 Par ch=1 c=64 v=104
181475 Par ch=1 c=64 v=127
181720 On ch=1 n=c#6 v=71
181825 On ch=1 n=c#6 v=0
181915 On ch=1 n=c#6 v=79
181975 On ch=1 n=a3 v=50
182065 On ch=1 n=c#6 v=0
182215 On ch=1 n=a3 v=0
182285 On ch=1 n=c#7 v=86
182315 On ch=1 n=e4 v=47
182435 On ch=1 n=c#7 v=0
182505 On ch=1 n=e4 v=0
182570 On ch=1 n=c#7 v=90
182570 On ch=1 n=a4 v=43
182735 On ch=1 n=c#7 v=0
182765 On ch=1 n=a4 v=0
182810 On ch=1 n=c#5 v=46
182815 On ch=1 n=b6 v=90
182945 On ch=1 n=b6 v=0
183055 On ch=1 n=b6 v=96
183060 On ch=1 n=c#5 v=0
183100 On ch=1 n=e5 v=52
183185 On ch=1 n=b6 v=0
183220 On ch=1 n=e5 v=0
183305 On ch=1 n=a6 v=90
183315 On ch=1 n=a5 v=52
183420 On ch=1 n=a6 v=0
183510 On ch=1 n=a5 v=0
183565 On ch=1 n=a6 v=84
183595 On ch=1 n=c#6 v=49
183650 On ch=1 n=c#6 v=0
183745 On ch=1 n=a6 v=0
183825 On ch=1 n=g#6 v=84
183990 On ch=1 n=g#6 v=0
184140 On ch=1 n=b6 v=86
184180 On ch=1 n=g#3 v=47
184180 Par ch=1 c=64 v=40
184200 Par ch=1 c=64 v=0
184320 Par ch=1 c=64 v=88
184325 On ch=1 n=b6 v=0
184340 Par ch=1 c=64 v=127
184355 On ch=1 n=g#3 v=0
184455 On ch=1 n=f4 v=40
184605 On ch=1 n=f4 v=0
184700 On ch=1 n=a6 v=74
184705 On ch=1 n=b4 v=43
184820 On ch=1 n=b4 v=0
184955 On ch=1 n=c#5 v=40
185240 On ch=1 n=a6 v=0
185260 On ch=1 n=g#6 v=70
185275 On ch=1 n=f5 v=38
185420 On ch=1 n=g#6 v=0
185480 On ch=1 n=f5 v=0
185510 On ch=1 n=c#5 v=0
185545 On ch=1 n=b5 v=41
185785 On ch=1 n=b5 v=0
185885 On ch=1 n=c#6 v=44
186000 On ch=1 n=c#6 v=0
186465 Par ch=1 c=64 v=88
186485 Par ch=1 c=64 v=24
186495 On ch=1 n=b6 v=81
186505 On ch=1 n=c#6 v=62
186510 Par ch=1 c=64 v=0
186530 On ch=1 n=f#3 v=49
186580 Par ch=1 c=64 v=72
186605 Par ch=1 c=64 v=127
186630 On ch=1 n=c#6 v=0
186740 On ch=1 n=b6 v=0
186810 On ch=1 n=a6 v=73
186835 On ch=1 n=f#3 v=0
186850 On ch=1 n=c#4 v=43
186910 On ch=1 n=a6 v=0
187005 On ch=1 n=a6 v=67
187035 On ch=1 n=c#4 v=0
187045 On ch=1 n=a6 v=0
187065 On ch=1 n=b6 v=78
187090 On ch=1 n=f#4 v=40
187125 On ch=1 n=a6 v=66
187175 On ch=1 n=b6 v=0
187265 On ch=1 n=a6 v=0
187305 On ch=1 n=f#4 v=0
187315 On ch=1 n=g#6 v=74
187350 On ch=1 n=a4 v=28
187395 On ch=1 n=a4 v=0
187395 On ch=1 n=g#6 v=0
187480 On ch=1 n=g#6 v=58
187540 On ch=1 n=a6 v=77
187545 On ch=1 n=g#6 v=0
187590 On ch=1 n=c#5 v=47
187605 On ch=1 n=g#6 v=74
187640 On ch=1 n=a6 v=0
187710 On ch=1 n=g#6 v=0
187825 On ch=1 n=f#6 v=61
187865 On ch=1 n=f#5 v=37
187885 On ch=1 n=f#6 v=0
187985 On ch=1 n=f#6 v=54
188050 On ch=1 n=f#6 v=0
188070 On ch=1 n=g#6 v=64
188135 On ch=1 n=f#6 v=65
188135 On ch=1 n=a5 v=51
188165 On ch=1 n=g#6 v=0
188180 On ch=1 n=a5 v=0
188205 On ch=1 n=f#5 v=0
188235 On ch=1 n=c#5 v=0
188240 On ch=1 n=f#6 v=0
188365 On ch=1 n=f6 v=82
188465 On ch=1 n=f6 v=0
188680 On ch=1 n=g#6 v=78
188695 Par ch=1 c=64 v=88
188715 Par ch=1 c=64 v=0
188730 On ch=1 n=c#3 v=40
188830 Par ch=1 c=64 v=56
188835 On ch=1 n=g#6 v=0
188845 Par ch=1 c=64 v=127
188950 On ch=1 n=c#4 v=44
188960 On ch=1 n=c#3 v=0
188995 On ch=1 n=c#4 v=0
189150 On ch=1 n=g#5 v=39
189210 On ch=1 n=c#6 v=53
189240 On ch=1 n=g#5 v=0
189280 On ch=1 n=f6 v=74
189300 On ch=1 n=c#6 v=0
189310 On ch=1 n=f4 v=37
189365 On ch=1 n=f6 v=0
189525 On ch=1 n=f4 v=0
189545 On ch=1 n=g#4 v=40
189855 On ch=1 n=c#6 v=64
189880 On ch=1 n=c#5 v=39
189935 On ch=1 n=c#6 v=0
189995 On ch=1 n=g#4 v=0
190110 On ch=1 n=c#5 v=0
190170 On ch=1 n=f5 v=32
190445 On ch=1 n=f5 v=0
190470 On ch=1 n=g#5 v=44
190555 On ch=1 n=g#5 v=0
191015 On ch=1 n=c#6 v=71
191115 On ch=1 n=c#6 v=0
191280 On ch=1 n=c#6 v=77
191330 Par ch=1 c=64 v=56
191350 Par ch=1 c=64 v=0
191360 On ch=1 n=a3 v=51
191465 Par ch=1 c=64 v=56
191480 Par ch=1 c=64 v=127
191505 On ch=1 n=c#6 v=0
191625 On ch=1 n=a3 v=0
191665 On ch=1 n=c#7 v=86
191665 On ch=1 n=e4 v=47
191790 On ch=1 n=c#7 v=0
191865 On ch=1 n=e4 v=0
191950 On ch=1 n=a4 v=43
191955 On ch=1 n=c#7 v=88
192105 On ch=1 n=c#7 v=0
192125 On ch=1 n=a4 v=0
192195 On ch=1 n=b6 v=87
192205 On ch=1 n=c#5 v=44
192310 On ch=1 n=b6 v=0
192425 On ch=1 n=c#5 v=0
192430 On ch=1 n=b6 v=96
192475 On ch=1 n=e5 v=45
192545 On ch=1 n=b6 v=0
192605 On ch=1 n=e5 v=0
192665 On ch=1 n=a6 v=90
192685 On ch=1 n=a5 v=53
192780 On ch=1 n=a6 v=0
192890 On ch=1 n=a5 v=0
192905 On ch=1 n=a6 v=86
192940 On ch=1 n=c#6 v=50
193015 On ch=1 n=c#6 v=0
193105 On ch=1 n=a6 v=0
193155 On ch=1 n=g#6 v=86
193455 On ch=1 n=b6 v=82
193475 Par ch=1 c=64 v=88
193485 On ch=1 n=g#3 v=35
193490 On ch=1 n=g#6 v=0
193500 Par ch=1 c=64 v=0
193615 Par ch=1 c=64 v=72
193635 On ch=1 n=b6 v=0
193635 Par ch=1 c=64 v=127
193685 On ch=1 n=g#3 v=0
193710 On ch=1 n=f4 v=52
193875 On ch=1 n=f4 v=0
193965 On ch=1 n=b4 v=44
194000 On ch=1 n=a6 v=75
194035 On ch=1 n=b4 v=0
194135 On ch=1 n=a6 v=0
194235 On ch=1 n=c#5 v=38
194515 On ch=1 n=f5 v=43
194520 On ch=1 n=g#6 v=65
194690 On ch=1 n=f5 v=0
194740 On ch=1 n=c#5 v=0
194780 On ch=1 n=b5 v=40
194835 On ch=1 n=g#6 v=0
195015 On ch=1 n=b5 v=0
195100 On ch=1 n=c#6 v=53
195180 On ch=1 n=c#6 v=0
195480 On ch=1 n=a6 v=64
195525 On ch=1 n=a6 v=0
195580 On ch=1 n=b6 v=71
195585 Par ch=1 c=64 v=56
195605 Par ch=1 c=64 v=0
195650 On ch=1 n=a6 v=81
195660 On ch=1 n=f#3 v=53
195690 On ch=1 n=b6 v=0
195705 Par ch=1 c=64 v=56
195725 On ch=1 n=a6 v=0
195725 Par ch=1 c=64 v=127
195755 On ch=1 n=f#3 v=0
195930 On ch=1 n=g#6 v=67
196035 On ch=1 n=g#6 v=0
196170 On ch=1 n=f#6 v=67
196185 On ch=1 n=c#6 v=44
196185 On ch=1 n=a5 v=53
196190 On ch=1 n=f#5 v=35
196205 On ch=1 n=c#5 v=35
196220 On ch=1 n=a5 v=0
196230 On ch=1 n=f#5 v=0
196250 On ch=1 n=c#5 v=0
196285 On ch=1 n=c#6 v=0
196335 On ch=1 n=f#6 v=0
196385 On ch=1 n=a6 v=68
196475 On ch=1 n=a6 v=0
196530 On ch=1 n=g#6 v=61
196570 On ch=1 n=g#6 v=0
196595 Par ch=1 c=64 v=104
196610 On ch=1 n=a6 v=58
196615 Par ch=1 c=64 v=24
196635 Par ch=1 c=64 v=0
196655 On ch=1 n=c#3 v=53
196670 On ch=1 n=g#6 v=82
196700 On ch=1 n=a6 v=0
196710 On ch=1 n=c#3 v=0
196730 Par ch=1 c=64 v=104
196750 Par ch=1 c=64 v=127
196755 On ch=1 n=g#6 v=0
196955 On ch=1 n=f#6 v=65
197050 On ch=1 n=f#6 v=0
197225 On ch=1 n=f6 v=66
197240 On ch=1 n=c#6 v=46
197245 On ch=1 n=g#5 v=40
197250 On ch=1 n=b4 v=44
197280 On ch=1 n=f5 v=32
197325 On ch=1 n=f5 v=0
197330 On ch=1 n=c#6 v=0
197335 On ch=1 n=g#5 v=0
197345 On ch=1 n=f6 v=0
197365 On ch=1 n=b4 v=0
197490 On ch=1 n=g#6 v=70
197630 On ch=1 n=g#6 v=0
197815 On ch=1 n=f#6 v=68
197835 Par ch=1 c=64 v=72
197855 On ch=1 n=f#3 v=52
197855 Par ch=1 c=64 v=0
197950 Par ch=1 c=64 v=40
197970 Par ch=1 c=64 v=127
197985 On ch=1 n=f#3 v=0
198125 On ch=1 n=f#6 v=0
198310 On ch=1 n=f#6 v=61
198395 On ch=1 n=f#6 v=0
198405 On ch=1 n=g#6 v=58
198490 On ch=1 n=f#6 v=58
198510 On ch=1 n=g#6 v=0
198540 On ch=1 n=c#6 v=46
198580 On ch=1 n=a#4 v=38
198590 On ch=1 n=f#5 v=34
198600 On ch=1 n=a#5 v=30
198620 On ch=1 n=c#6 v=0
198620 On ch=1 n=f#6 v=0
199215 On ch=1 n=f6 v=53
199350 On ch=1 n=f6 v=0
199385 On ch=1 n=f#6 v=58
199635 Par ch=1 c=64 v=104
199655 Par ch=1 c=64 v=40
199675 Par ch=1 c=64 v=0
199770 Par ch=1 c=64 v=40
199790 Par ch=1 c=64 v=104
199810 Par ch=1 c=64 v=127
199880 On ch=1 n=f#6 v=0
199935 On ch=1 n=a#5 v=0
199955 On ch=1 n=a#4 v=0
199975 On ch=1 n=f#5 v=0
200740 On ch=1 n=c#7 v=69
200760 On ch=1 n=c#6 v=43
200895 Par ch=1 c=64 v=104
200910 Par ch=1 c=64 v=24
200930 Par ch=1 c=64 v=0
200940 On ch=1 n=c#6 v=0
200960 On ch=1 n=c#7 v=0
200990 Par ch=1 c=64 v=24
201000 On ch=1 n=a3 v=53
201010 Par ch=1 c=64 v=104
201025 Par ch=1 c=64 v=127
201125 On ch=1 n=c#7 v=80
201125 On ch=1 n=c#6 v=69
201195 On ch=1 n=c#6 v=0
201235 On ch=1 n=c#7 v=0
201480 On ch=1 n=c#8 v=85
201480 On ch=1 n=c#7 v=71
201500 On ch=1 n=a3 v=0
201510 On ch=1 n=e4 v=40
201570 On ch=1 n=c#7 v=0
201600 On ch=1 n=c#8 v=0
201750 On ch=1 n=e4 v=0
201795 On ch=1 n=c#8 v=89
201805 On ch=1 n=c#7 v=76
201815 On ch=1 n=a4 v=41
201890 On ch=1 n=c#7 v=0
201905 On ch=1 n=c#8 v=0
201955 On ch=1 n=a4 v=0
202050 On ch=1 n=b7 v=88
202055 On ch=1 n=b6 v=74
202055 On ch=1 n=c#5 v=33
202150 On ch=1 n=b6 v=0
202170 On ch=1 n=b7 v=0
202290 On ch=1 n=c#5 v=0
202290 On ch=1 n=b7 v=97
202300 On ch=1 n=b6 v=80
202330 On ch=1 n=e5 v=61
202365 On ch=1 n=b6 v=0
202400 On ch=1 n=b7 v=0
202470 On ch=1 n=e5 v=0
202535 On ch=1 n=a7 v=96
202540 On ch=1 n=a6 v=78
202550 On ch=1 n=a5 v=53
202615 On ch=1 n=a6 v=0
202650 On ch=1 n=a7 v=0
202730 On ch=1 n=a5 v=0
202785 On ch=1 n=a7 v=97
202790 On ch=1 n=c#6 v=54
202795 On ch=1 n=a6 v=81
202865 On ch=1 n=a6 v=0
202875 On ch=1 n=c#6 v=0
202895 On ch=1 n=a7 v=0
203020 On ch=1 n=g#7 v=95
203025 On ch=1 n=g#6 v=79
203100 On ch=1 n=g#6 v=0
203210 On ch=1 n=g#7 v=0
203275 Par ch=1 c=64 v=88
203295 On ch=1 n=b7 v=86
203295 Par ch=1 c=64 v=0
203305 On ch=1 n=b6 v=74
203330 On ch=1 n=g#3 v=53
203400 On ch=1 n=b6 v=0
203410 Par ch=1 c=64 v=127
203425 On ch=1 n=b7 v=0
203510 On ch=1 n=g#3 v=0
203560 On ch=1 n=f4 v=52
203670 On ch=1 n=a6 v=53
203735 On ch=1 n=f4 v=0
203740 On ch=1 n=c#7 v=69
203795 On ch=1 n=a6 v=0
203830 On ch=1 n=b4 v=36
203840 On ch=1 n=a7 v=83
203865 On ch=1 n=c#7 v=0
203910 On ch=1 n=a7 v=0
203925 On ch=1 n=b4 v=0
204090 On ch=1 n=c#5 v=51
204210 On ch=1 n=g#6 v=55
204275 On ch=1 n=c#7 v=55
204320 On ch=1 n=g#6 v=0
204360 On ch=1 n=c#5 v=0
204360 On ch=1 n=g#7 v=79
204380 On ch=1 n=f5 v=35
204390 On ch=1 n=c#7 v=0
204435 On ch=1 n=g#7 v=0
204525 On ch=1 n=f5 v=0
204630 On ch=1 n=b5 v=41
204835 On ch=1 n=b5 v=0
204970 On ch=1 n=c#6 v=50
205030 On ch=1 n=c#6 v=0
205560 On ch=1 n=b7 v=88
205560 Par ch=1 c=64 v=40
205570 On ch=1 n=b6 v=67
205580 Par ch=1 c=64 v=0
205635 On ch=1 n=f#3 v=54
205680 Par ch=1 c=64 v=104
205700 Par ch=1 c=64 v=127
205725 On ch=1 n=b6 v=0
205730 On ch=1 n=b7 v=0
205925 On ch=1 n=f#3 v=0
205930 On ch=1 n=a7 v=97
205945 On ch=1 n=a6 v=73
205950 On ch=1 n=c#4 v=50
206015 On ch=1 n=a6 v=0
206060 On ch=1 n=a7 v=0
206115 On ch=1 n=c#4 v=0
206180 On ch=1 n=a7 v=102
206190 On ch=1 n=a6 v=77
206190 On ch=1 n=f#4 v=47
206260 On ch=1 n=a6 v=0
206315 On ch=1 n=a7 v=0
206405 On ch=1 n=f#4 v=0
206425 On ch=1 n=g#7 v=89
206425 On ch=1 n=g#6 v=70
206460 On ch=1 n=a4 v=43
206500 On ch=1 n=g#6 v=0
206510 On ch=1 n=a4 v=0
206555 On ch=1 n=g#7 v=0
206600 On ch=1 n=a7 v=81
206675 On ch=1 n=g#6 v=75
206690 On ch=1 n=g#7 v=79
206705 On ch=1 n=c#5 v=46
206710 On ch=1 n=a7 v=0
206790 On ch=1 n=g#6 v=0
206815 On ch=1 n=g#7 v=0
206935 On ch=1 n=f#7 v=82
206940 On ch=1 n=f#5 v=49
206940 On ch=1 n=f#6 v=76
207010 On ch=1 n=f#6 v=0
207045 On ch=1 n=f#7 v=0
207205 On ch=1 n=f#7 v=77
207210 On ch=1 n=f#6 v=74
207220 On ch=1 n=a5 v=53
207265 On ch=1 n=a5 v=0
207290 On ch=1 n=f#5 v=0
207305 On ch=1 n=f#6 v=0
207320 On ch=1 n=c#5 v=0
207375 On ch=1 n=f#7 v=0
207455 On ch=1 n=f7 v=85
207455 On ch=1 n=f6 v=78
207520 On ch=1 n=f6 v=0
207550 On ch=1 n=f7 v=0
207785 Par ch=1 c=64 v=104
207795 On ch=1 n=g#7 v=83
207800 On ch=1 n=g#6 v=67
207805 Par ch=1 c=64 v=40
207825 Par ch=1 c=64 v=0
207835 On ch=1 n=c#3 v=47
207920 Par ch=1 c=64 v=56
207930 On ch=1 n=g#6 v=0
207930 On ch=1 n=g#7 v=0
207940 Par ch=1 c=64 v=127
208035 On ch=1 n=c#3 v=0
208050 On ch=1 n=c#4 v=56
208090 On ch=1 n=c#4 v=0
208205 On ch=1 n=f6 v=60
208270 On ch=1 n=g#6 v=50
208335 On ch=1 n=c#7 v=51
208355 On ch=1 n=f6 v=0
208365 On ch=1 n=g#6 v=0
208375 On ch=1 n=f7 v=82
208400 On ch=1 n=c#7 v=0
208400 On ch=1 n=f4 v=44
208450 On ch=1 n=f7 v=0
208610 On ch=1 n=f4 v=0
208630 On ch=1 n=g#4 v=43
208755 On ch=1 n=c#6 v=56
208805 On ch=1 n=f6 v=65
208840 On ch=1 n=g#6 v=58
208850 On ch=1 n=c#6 v=0
208905 On ch=1 n=f6 v=0
208915 On ch=1 n=c#7 v=78
208915 On ch=1 n=c#5 v=28
208940 On ch=1 n=g#4 v=0
208945 On ch=1 n=g#6 v=0
208985 On ch=1 n=c#7 v=0
209120 On ch=1 n=c#5 v=0
209195 On ch=1 n=f5 v=35
209470 On ch=1 n=f5 v=0
209540 On ch=1 n=g#5 v=43
209640 On ch=1 n=g#5 v=0
210075 On ch=1 n=c#7 v=65
210075 On ch=1 n=c#6 v=58
210140 On ch=1 n=c#6 v=0
210155 On ch=1 n=c#7 v=0
210285 Par ch=1 c=64 v=72
210300 On ch=1 n=c#6 v=63
210305 On ch=1 n=c#7 v=77
210305 Par ch=1 c=64 v=0
210345 On ch=1 n=a3 v=58
210390 On ch=1 n=c#6 v=0
210405 Par ch=1 c=64 v=72
210420 Par ch=1 c=64 v=127
210455 On ch=1 n=c#7 v=0
210635 On ch=1 n=c#8 v=89
210635 On ch=1 n=c#7 v=81
210670 On ch=1 n=e4 v=44
210680 On ch=1 n=a3 v=0
210700 On ch=1 n=c#7 v=0
210725 On ch=1 n=c#8 v=0
210850 On ch=1 n=e4 v=0
210885 On ch=1 n=c#8 v=85
210895 On ch=1 n=c#7 v=83
210905 On ch=1 n=a4 v=51
210985 On ch=1 n=c#7 v=0
211000 On ch=1 n=c#8 v=0
211045 On ch=1 n=a4 v=0
211125 On ch=1 n=b7 v=88
211135 On ch=1 n=b6 v=74
211135 On ch=1 n=c#5 v=48
211220 On ch=1 n=b6 v=0
211245 On ch=1 n=b7 v=0
211340 On ch=1 n=c#5 v=0
211365 On ch=1 n=b7 v=97
211375 On ch=1 n=b6 v=80
211395 On ch=1 n=e5 v=55
211445 On ch=1 n=b6 v=0
211470 On ch=1 n=b7 v=0
211520 On ch=1 n=e5 v=0
211605 On ch=1 n=a7 v=96
211615 On ch=1 n=a6 v=78
211620 On ch=1 n=a5 v=51
211685 On ch=1 n=a6 v=0
211710 On ch=1 n=a7 v=0
211780 On ch=1 n=a5 v=0
211860 On ch=1 n=a7 v=93
211865 On ch=1 n=c#6 v=43
211865 On ch=1 n=a6 v=77
211925 On ch=1 n=c#6 v=0
211940 On ch=1 n=a6 v=0
211965 On ch=1 n=a7 v=0
212095 On ch=1 n=g#7 v=91
212100 On ch=1 n=g#6 v=80
212180 On ch=1 n=g#6 v=0
212290 On ch=1 n=g#7 v=0
212385 On ch=1 n=b7 v=88
212390 On ch=1 n=b6 v=75
212395 Par ch=1 c=64 v=40
212415 Par ch=1 c=64 v=0
212420 On ch=1 n=g#3 v=39
212510 On ch=1 n=b6 v=0
212515 On ch=1 n=b7 v=0
212515 Par ch=1 c=64 v=88
212535 Par ch=1 c=64 v=127
212585 On ch=1 n=g#3 v=0
212655 On ch=1 n=f4 v=48
212815 On ch=1 n=f4 v=0
212890 On ch=1 n=a7 v=78
212890 On ch=1 n=b4 v=41
212900 On ch=1 n=a6 v=56
212925 On ch=1 n=c#7 v=50
212945 On ch=1 n=b4 v=0
213020 On ch=1 n=a6 v=0
213020 On ch=1 n=a7 v=0
213145 On ch=1 n=c#7 v=0
213235 On ch=1 n=c#5 v=53
213305 On ch=1 n=g#6 v=57
213375 On ch=1 n=c#7 v=63
213420 On ch=1 n=g#6 v=0
213470 On ch=1 n=f5 v=55
213475 On ch=1 n=g#7 v=75
213485 On ch=1 n=c#5 v=0
213500 On ch=1 n=c#7 v=0
213565 On ch=1 n=g#7 v=0
213620 On ch=1 n=f5 v=0
213730 On ch=1 n=b5 v=39
213905 On ch=1 n=b5 v=0
214040 On ch=1 n=c#6 v=53
214130 On ch=1 n=c#6 v=0
214645 Par ch=1 c=64 v=104
214660 On ch=1 n=a7 v=79
214660 On ch=1 n=a6 v=62
214660 Par ch=1 c=64 v=24
214680 Par ch=1 c=64 v=0
214695 On ch=1 n=f#3 v=49
214765 On ch=1 n=a6 v=0
214780 Par ch=1 c=64 v=88
214795 Par ch=1 c=64 v=127
214825 On ch=1 n=a7 v=0
214830 On ch=1 n=f#3 v=0
214975 On ch=1 n=g#7 v=82
214980 On ch=1 n=g#6 v=65
215075 On ch=1 n=g#6 v=0
215100 On ch=1 n=g#7 v=0
215225 On ch=1 n=f#6 v=67
215230 On ch=1 n=f#7 v=69
215265 On ch=1 n=c#7 v=40
215275 On ch=1 n=a5 v=46
215290 On ch=1 n=c#5 v=34
215305 On ch=1 n=f#5 v=23
215310 On ch=1 n=a5 v=0
215315 On ch=1 n=c#7 v=0
215325 On ch=1 n=f#6 v=0
215340 On ch=1 n=f#5 v=0
215355 On ch=1 n=c#5 v=0
215390 On ch=1 n=f#7 v=0
215495 On ch=1 n=a7 v=84
215500 On ch=1 n=a6 v=64
215575 On ch=1 n=a6 v=0
215610 On ch=1 n=a7 v=0
215765 Par ch=1 c=64 v=104
215790 Par ch=1 c=64 v=24
215795 On ch=1 n=g#7 v=75
215805 On ch=1 n=g#6 v=61
215805 Par ch=1 c=64 v=0
215820 On ch=1 n=c#3 v=45
215885 Par ch=1 c=64 v=40
215905 On ch=1 n=c#3 v=0
215905 On ch=1 n=g#6 v=0
215905 Par ch=1 c=64 v=127
215930 On ch=1 n=g#7 v=0
216070 On ch=1 n=f#7 v=67
216075 On ch=1 n=f#6 v=64
216170 On ch=1 n=f#6 v=0
216235 On ch=1 n=f#7 v=0
216385 On ch=1 n=f7 v=74
216390 On ch=1 n=f6 v=62
216420 On ch=1 n=c#7 v=42
216440 On ch=1 n=b4 v=37
216450 On ch=1 n=f5 v=34
216450 On ch=1 n=g#5 v=32
216460 On ch=1 n=f6 v=0
216495 On ch=1 n=f7 v=0
216515 On ch=1 n=f5 v=0
216515 On ch=1 n=c#7 v=0
216540 On ch=1 n=b4 v=0
216545 On ch=1 n=g#5 v=0
216690 On ch=1 n=g#7 v=77
216705 On ch=1 n=g#6 v=55
216775 On ch=1 n=g#6 v=0
216785 On ch=1 n=g#7 v=0
217055 On ch=1 n=f#7 v=61
217070 On ch=1 n=f#6 v=46
217130 On ch=1 n=f#3 v=42
217165 Par ch=1 c=64 v=56
217180 Par ch=1 c=64 v=0
217280 Par ch=1 c=64 v=56
217295 On ch=1 n=f#3 v=0
217295 Par ch=1 c=64 v=127
217395 On ch=1 n=f#6 v=0
217485 On ch=1 n=f#7 v=0
217660 On ch=1 n=a#5 v=34
217660 On ch=1 n=a#4 v=30
217660 On ch=1 n=c#5 v=28
217665 On ch=1 n=f#5 v=31
217675 On ch=1 n=f#6 v=50
217740 On ch=1 n=c#7 v=53
217810 On ch=1 n=g#7 v=65
217930 On ch=1 n=c#7 v=0
217935 On ch=1 n=f#7 v=71
217950 On ch=1 n=g#7 v=0
217955 On ch=1 n=f#6 v=0
218065 On ch=1 n=f#7 v=0
218670 On ch=1 n=f7 v=66
218685 On ch=1 n=f6 v=47
218730 On ch=1 n=f6 v=0
218770 On ch=1 n=f7 v=0
218865 On ch=1 n=f#7 v=59
218865 On ch=1 n=c#7 v=32
218870 On ch=1 n=f#6 v=38
219135 Par ch=1 c=64 v=104
219155 Par ch=1 c=64 v=56
219175 Par ch=1 c=64 v=0
219290 Par ch=1 c=64 v=72
219310 Par ch=1 c=64 v=127
219585 Par ch=1 c=64 v=72
219600 Par ch=1 c=64 v=56
219620 Par ch=1 c=64 v=88
219635 Par ch=1 c=64 v=127
219815 On ch=1 n=f#6 v=0
219825 On ch=1 n=c#7 v=0
219825 On ch=1 n=f#7 v=0
219960 On ch=1 n=c#5 v=0
220000 On ch=1 n=f#5 v=0
220015 On ch=1 n=a#5 v=0
220040 On ch=1 n=a#4 v=0
220455 Par ch=1 c=64 v=88
220475 Par ch=1 c=64 v=72
220495 Par ch=1 c=64 v=56
220510 Par ch=1 c=64 v=40
220530 Par ch=1 c=64 v=0
221270 Par ch=1 c=64 v=40
221285 On ch=1 n=g#4 v=67
221285 Par ch=1 c=64 v=88
221290 On ch=1 n=e4 v=68
221300 On ch=1 n=c#4 v=85
221300 On ch=1 n=c#3 v=65
221300 Par ch=1 c=64 v=127
221365 On ch=1 n=c#3 v=0
221365 On ch=1 n=c#4 v=0
221380 On ch=1 n=e4 v=0
221395 On ch=1 n=c#5 v=67
221405 On ch=1 n=g#4 v=0
221480 On ch=1 n=e4 v=68
221480 On ch=1 n=g#4 v=62
221485 On ch=1 n=c4 v=76
221490 On ch=1 n=c#5 v=0
221495 On ch=1 n=c3 v=62
221540 On ch=1 n=c4 v=0
221550 On ch=1 n=c3 v=0
221565 On ch=1 n=e4 v=0
221585 On ch=1 n=g#4 v=0
221585 On ch=1 n=c#5 v=75
221655 On ch=1 n=b3 v=82
221665 On ch=1 n=e4 v=78
221665 On ch=1 n=b2 v=74
221670 On ch=1 n=g#4 v=69
221675 On ch=1 n=c#5 v=0
221710 On ch=1 n=b3 v=0
221715 On ch=1 n=b2 v=0
221750 On ch=1 n=e4 v=0
221760 On ch=1 n=c#5 v=72
221770 On ch=1 n=g#4 v=0
221825 On ch=1 n=a#3 v=80
221830 On ch=1 n=a#2 v=70
221835 On ch=1 n=e4 v=78
221835 On ch=1 n=g#4 v=55
221850 On ch=1 n=c#5 v=0
221885 On ch=1 n=a#3 v=0
221890 On ch=1 n=a#2 v=0
221920 On ch=1 n=e4 v=0
221930 On ch=1 n=c#5 v=73
221945 On ch=1 n=g#4 v=0
221955 Par ch=1 c=64 v=72
221970 Par ch=1 c=64 v=40
221985 Par ch=1 c=64 v=24
221995 On ch=1 n=a3 v=86
222005 On ch=1 n=a2 v=76
222015 On ch=1 n=e4 v=85
222015 Par ch=1 c=64 v=56
222020 On ch=1 n=g#4 v=61
222030 On ch=1 n=c#5 v=0
222030 Par ch=1 c=64 v=88
222045 Par ch=1 c=64 v=127
222060 On ch=1 n=a3 v=0
222065 On ch=1 n=a2 v=0
222090 On ch=1 n=e4 v=0
222100 On ch=1 n=c#5 v=65
222120 On ch=1 n=g#4 v=0
222175 On ch=1 n=g#3 v=77
222180 On ch=1 n=g#2 v=71
222190 On ch=1 n=e4 v=84
222190 On ch=1 n=g#4 v=56
222200 On ch=1 n=c#5 v=0
222240 On ch=1 n=g#3 v=0
222245 On ch=1 n=g#2 v=0
222260 On ch=1 n=e4 v=0
222270 On ch=1 n=c#5 v=69
222290 On ch=1 n=g#4 v=0
222365 On ch=1 n=e4 v=82
222365 On ch=1 n=g3 v=81
222375 On ch=1 n=c#5 v=0
222375 On ch=1 n=g#4 v=71
222380 On ch=1 n=g2 v=62
222425 On ch=1 n=g3 v=0
222425 On ch=1 n=e4 v=0
222440 On ch=1 n=g2 v=0
222450 On ch=1 n=c#5 v=77
222465 On ch=1 n=g#4 v=0
222540 On ch=1 n=c#5 v=0
222545 On ch=1 n=g#3 v=82
222545 On ch=1 n=e4 v=82
222550 On ch=1 n=g#2 v=74
222550 On ch=1 n=g#4 v=73
222605 On ch=1 n=g#3 v=0
222610 On ch=1 n=g#2 v=0
222615 On ch=1 n=e4 v=0
222625 On ch=1 n=c#5 v=84
222645 On ch=1 n=g#4 v=0
222695 Par ch=1 c=64 v=40
222710 On ch=1 n=c#5 v=0
222710 Par ch=1 c=64 v=0
222725 On ch=1 n=f#4 v=90
222735 On ch=1 n=a3 v=92
222735 On ch=1 n=a4 v=82
222745 On ch=1 n=a2 v=75
222795 On ch=1 n=a3 v=0
222795 On ch=1 n=f#4 v=0
222800 Par ch=1 c=64 v=24
222805 On ch=1 n=a2 v=0
222805 On ch=1 n=f#5 v=85
222815 Par ch=1 c=64 v=88
222820 On ch=1 n=a4 v=0
222830 Par ch=1 c=64 v=127
222890 On ch=1 n=f#4 v=76
222900 On ch=1 n=f#5 v=0
222900 On ch=1 n=a4 v=62
222915 On ch=1 n=g#3 v=76
222920 On ch=1 n=g#2 v=71
222975 On ch=1 n=g#3 v=0
222975 On ch=1 n=f#4 v=0
222980 On ch=1 n=g#2 v=0
222990 On ch=1 n=f#5 v=85
222995 On ch=1 n=a4 v=0
223075 On ch=1 n=f#4 v=80
223080 On ch=1 n=g3 v=78
223085 On ch=1 n=a4 v=74
223090 On ch=1 n=f#5 v=0
223095 On ch=1 n=g2 v=64
223125 On ch=1 n=g2 v=0
223145 On ch=1 n=g3 v=0
223160 On ch=1 n=f#4 v=0
223175 On ch=1 n=a4 v=0
223175 On ch=1 n=f#5 v=87
223245 On ch=1 n=f#3 v=71
223255 On ch=1 n=f#2 v=54
223255 On ch=1 n=f#4 v=74
223270 On ch=1 n=f#5 v=0
223270 On ch=1 n=a4 v=73
223295 On ch=1 n=f#2 v=0
223310 On ch=1 n=f#3 v=0
223325 On ch=1 n=f#4 v=0
223345 On ch=1 n=a4 v=0
223345 Par ch=1 c=64 v=72
223355 On ch=1 n=f#5 v=87
223360 Par ch=1 c=64 v=0
223410 On ch=1 n=f3 v=87
223420 On ch=1 n=f2 v=78
223425 On ch=1 n=f#4 v=83
223435 On ch=1 n=a4 v=76
223445 On ch=1 n=f#5 v=0
223455 Par ch=1 c=64 v=40
223470 Par ch=1 c=64 v=104
223485 On ch=1 n=f2 v=0
223485 On ch=1 n=f3 v=0
223485 Par ch=1 c=64 v=127
223505 On ch=1 n=f#4 v=0
223525 On ch=1 n=a4 v=0
223525 On ch=1 n=f#5 v=83
223590 On ch=1 n=e3 v=78
223600 On ch=1 n=f#4 v=79
223605 On ch=1 n=e2 v=70
223605 On ch=1 n=a4 v=70
223615 On ch=1 n=f#5 v=0
223650 On ch=1 n=e3 v=0
223655 On ch=1 n=e2 v=0
223670 On ch=1 n=f#4 v=0
223685 On ch=1 n=f#5 v=76
223695 On ch=1 n=a4 v=0
223760 On ch=1 n=d#3 v=82
223765 On ch=1 n=f#4 v=83
223765 On ch=1 n=d#2 v=73
223775 On ch=1 n=f#5 v=0
223775 On ch=1 n=a4 v=70
223825 On ch=1 n=d#3 v=0
223840 On ch=1 n=f#4 v=0
223845 On ch=1 n=d#2 v=0
223860 On ch=1 n=f#5 v=82
223865 On ch=1 n=a4 v=0
223945 On ch=1 n=f#5 v=0
223945 On ch=1 n=c3 v=79
223950 On ch=1 n=f#4 v=76
223955 On ch=1 n=a4 v=81
223955 On ch=1 n=c2 v=74
224005 On ch=1 n=c3 v=0
224015 On ch=1 n=c2 v=0
224025 On ch=1 n=a4 v=0
224030 On ch=1 n=f#4 v=0
224035 On ch=1 n=f#5 v=79
224075 Par ch=1 c=64 v=72
224090 Par ch=1 c=64 v=0
224105 On ch=1 n=f#5 v=0
224125 On ch=1 n=c#3 v=100
224130 On ch=1 n=c#2 v=87
224135 On ch=1 n=e4 v=82
224135 On ch=1 n=g#4 v=73
224180 On ch=1 n=c#3 v=0
224185 Par ch=1 c=64 v=24
224190 On ch=1 n=c#2 v=0
224195 Par ch=1 c=64 v=88
224210 On ch=1 n=e4 v=0
224210 Par ch=1 c=64 v=127
224220 On ch=1 n=g#4 v=0
224230 On ch=1 n=e5 v=87
224305 On ch=1 n=e5 v=0
224310 On ch=1 n=e4 v=78
224315 On ch=1 n=g#4 v=61
224315 On ch=1 n=d3 v=75
224320 On ch=1 n=d2 v=68
224355 On ch=1 n=d2 v=0
224355 On ch=1 n=d3 v=0
224380 On ch=1 n=e4 v=0
224395 On ch=1 n=g#4 v=0
224395 On ch=1 n=e5 v=86
224465 On ch=1 n=e5 v=0
224480 On ch=1 n=d#3 v=78
224480 On ch=1 n=d#2 v=69
224480 On ch=1 n=e4 v=83
224490 On ch=1 n=g#4 v=65
224535 On ch=1 n=e4 v=0
224535 On ch=1 n=d#3 v=0
224545 On ch=1 n=d#2 v=0
224555 On ch=1 n=g#4 v=0
224560 On ch=1 n=e5 v=83
224640 On ch=1 n=e4 v=79
224645 On ch=1 n=e5 v=0
224650 On ch=1 n=e3 v=72
224650 On ch=1 n=e2 v=70
224650 On ch=1 n=g#4 v=65
224710 On ch=1 n=e2 v=0
224710 On ch=1 n=e3 v=0
224720 On ch=1 n=e4 v=0
224740 On ch=1 n=e5 v=90
224745 On ch=1 n=g#4 v=0
224790 Par ch=1 c=64 v=72
224800 On ch=1 n=e5 v=0
224805 Par ch=1 c=64 v=0
224830 On ch=1 n=d4 v=89
224830 On ch=1 n=f3 v=95
224830 On ch=1 n=f#4 v=81
224835 On ch=1 n=f2 v=81
224890 On ch=1 n=f2 v=0
224895 Par ch=1 c=64 v=56
224900 On ch=1 n=f3 v=0
224900 On ch=1 n=d4 v=0
224910 Par ch=1 c=64 v=104
224925 On ch=1 n=f#4 v=0
224925 On ch=1 n=d5 v=86
224925 Par ch=1 c=64 v=127
224995 On ch=1 n=d5 v=0
225005 On ch=1 n=d4 v=85
225005 On ch=1 n=f#3 v=71
225010 On ch=1 n=f#2 v=67
225015 On ch=1 n=f#4 v=65
225060 On ch=1 n=f#3 v=0
225075 On ch=1 n=f#2 v=0
225075 On ch=1 n=d4 v=0
225095 On ch=1 n=f#4 v=0
225095 On ch=1 n=d5 v=88
225170 On ch=1 n=d5 v=0
225175 On ch=1 n=d4 v=89
225180 On ch=1 n=f3 v=75
225185 On ch=1 n=f2 v=70
225185 On ch=1 n=f#4 v=71
225225 On ch=1 n=f3 v=0
225240 On ch=1 n=f2 v=0
225255 On ch=1 n=d4 v=0
225260 On ch=1 n=f#4 v=0
225270 On ch=1 n=d5 v=87
225350 On ch=1 n=d5 v=0
225350 On ch=1 n=f#3 v=78
225350 On ch=1 n=f#2 v=69
225355 On ch=1 n=d4 v=84
225360 On ch=1 n=f#4 v=68
225400 On ch=1 n=f#2 v=0
225400 On ch=1 n=f#3 v=0
225425 On ch=1 n=d4 v=0
225430 On ch=1 n=f#4 v=0
225430 On ch=1 n=d5 v=86
225475 Par ch=1 c=64 v=56
225490 Par ch=1 c=64 v=0
225495 On ch=1 n=d5 v=0
225515 On ch=1 n=c#4 v=99
225530 On ch=1 n=g3 v=95
225530 On ch=1 n=e4 v=80
225530 On ch=1 n=g2 v=79
225580 On ch=1 n=g2 v=0
225580 On ch=1 n=g3 v=0
225580 Par ch=1 c=64 v=72
225595 Par ch=1 c=64 v=127
225600 On ch=1 n=c#4 v=0
225615 On ch=1 n=e4 v=0
225615 On ch=1 n=c#5 v=84
225695 On ch=1 n=c#5 v=0
225705 On ch=1 n=c#4 v=82
225705 On ch=1 n=g#3 v=76
225710 On ch=1 n=g#2 v=71
225720 On ch=1 n=e4 v=68
225755 On ch=1 n=g#3 v=0
225765 On ch=1 n=c#4 v=0
225770 On ch=1 n=g#2 v=0
225780 On ch=1 n=e4 v=0
225790 On ch=1 n=c#5 v=85
225865 On ch=1 n=c#5 v=0
225870 On ch=1 n=c#4 v=85
225880 On ch=1 n=g2 v=73
225880 On ch=1 n=g3 v=79
225885 On ch=1 n=e4 v=73
225925 On ch=1 n=c#4 v=0
225935 On ch=1 n=g3 v=0
225940 On ch=1 n=g2 v=0
225945 On ch=1 n=c#5 v=82
225955 On ch=1 n=e4 v=0
226020 On ch=1 n=c#5 v=0
226030 On ch=1 n=c#4 v=85
226045 On ch=1 n=e4 v=65
226050 On ch=1 n=g#3 v=78
226055 On ch=1 n=g#2 v=72
226095 On ch=1 n=c#4 v=0
226100 On ch=1 n=g#3 v=0
226100 On ch=1 n=e4 v=0
226105 On ch=1 n=g#2 v=0
226110 On ch=1 n=c#5 v=81
226170 Par ch=1 c=64 v=104
226185 Par ch=1 c=64 v=40
226200 On ch=1 n=c#5 v=0
226205 Par ch=1 c=64 v=0
226210 On ch=1 n=d#4 v=84
226215 On ch=1 n=f#4 v=75
226220 On ch=1 n=a3 v=102
226225 On ch=1 n=a2 v=88
226275 On ch=1 n=a2 v=0
226280 On ch=1 n=d#4 v=0
226285 On ch=1 n=a3 v=0
226300 On ch=1 n=c5 v=79
226305 Par ch=1 c=64 v=72
226310 On ch=1 n=f#4 v=0
226320 Par ch=1 c=64 v=127
226375 On ch=1 n=d#4 v=79
226395 On ch=1 n=c5 v=0
226400 On ch=1 n=g#3 v=85
226400 On ch=1 n=f#4 v=67
226405 On ch=1 n=g#2 v=78
226450 On ch=1 n=d#4 v=0
226455 On ch=1 n=g#2 v=0
226455 On ch=1 n=g#3 v=0
226475 On ch=1 n=c5 v=78
226485 On ch=1 n=f#4 v=0
226560 On ch=1 n=d#4 v=81
226570 On ch=1 n=c5 v=0
226585 On ch=1 n=a3 v=87
226585 On ch=1 n=f#4 v=68
226585 On ch=1 n=a2 v=84
226635 On ch=1 n=a2 v=0
226635 On ch=1 n=d#4 v=0
226640 On ch=1 n=a3 v=0
226660 On ch=1 n=c5 v=73
226665 On ch=1 n=f#4 v=0
226735 On ch=1 n=d#4 v=81
226755 On ch=1 n=g#3 v=92
226755 On ch=1 n=g#2 v=84
226765 On ch=1 n=f#4 v=62
226770 On ch=1 n=c5 v=0
226795 On ch=1 n=g#2 v=0
226800 On ch=1 n=g#3 v=0
226830 On ch=1 n=d#4 v=0
226840 On ch=1 n=c5 v=84
226870 On ch=1 n=f#4 v=0
226905 On ch=1 n=c5 v=0
226945 Par ch=1 c=64 v=88
226960 Par ch=1 c=64 v=24
226965 On ch=1 n=c#5 v=98
226975 On ch=1 n=g#3 v=85
226975 On ch=1 n=e4 v=82
226975 On ch=1 n=g#4 v=77
226975 On ch=1 n=c#3 v=85
226980 Par ch=1 c=64 v=0
226990 On ch=1 n=c4 v=62
227050 On ch=1 n=c4 v=0
227080 Par ch=1 c=64 v=88
227090 Par ch=1 c=64 v=127
227230 On ch=1 n=e4 v=0
227235 On ch=1 n=c#3 v=0
227245 On ch=1 n=g#3 v=0
227255 On ch=1 n=g#4 v=0
227285 On ch=1 n=c#5 v=0
227480 Par ch=1 c=64 v=104
227495 Par ch=1 c=64 v=40
227505 Par ch=1 c=64 v=0
227685 On ch=1 n=c#5 v=85
227690 On ch=1 n=a4 v=81
227700 On ch=1 n=f#4 v=96
227700 On ch=1 n=c#4 v=93
227710 On ch=1 n=f#3 v=82
227730 Par ch=1 c=64 v=127
227770 On ch=1 n=a4 v=0
227785 On ch=1 n=f#5 v=77
227810 On ch=1 n=c#5 v=0
227835 On ch=1 n=f#5 v=0
227895 On ch=1 n=a5 v=90
227965 On ch=1 n=c#6 v=77
228000 On ch=1 n=a5 v=0
228050 On ch=1 n=c#6 v=0
228050 On ch=1 n=f#6 v=80
228090 On ch=1 n=c#4 v=0
228090 On ch=1 n=f#4 v=0
228100 On ch=1 n=f#6 v=0
228115 On ch=1 n=f#3 v=0
228130 On ch=1 n=a6 v=92
228185 On ch=1 n=c#7 v=92
228245 On ch=1 n=a6 v=0
228255 On ch=1 n=f#7 v=87
228265 On ch=1 n=c#7 v=0
228310 On ch=1 n=a7 v=93
228325 Par ch=1 c=64 v=56
228330 On ch=1 n=f#7 v=0
228340 Par ch=1 c=64 v=0
228355 On ch=1 n=c#3 v=77
228370 On ch=1 n=a7 v=0
228405 On ch=1 n=g#3 v=69
228455 On ch=1 n=c#8 v=102
228460 On ch=1 n=c#7 v=100
228460 Par ch=1 c=64 v=127
228465 On ch=1 n=g#7 v=93
228485 On ch=1 n=c#3 v=0
228495 On ch=1 n=e4 v=87
228505 On ch=1 n=c#7 v=0
228510 On ch=1 n=g#7 v=0
228525 On ch=1 n=c#8 v=0
228525 On ch=1 n=g#3 v=0
228540 On ch=1 n=e4 v=0
229500 Par ch=1 c=64 v=104
229510 Par ch=1 c=64 v=40
229525 Par ch=1 c=64 v=0
229775 On ch=1 n=d#5 v=77
229785 On ch=1 n=b4 v=74
229790 On ch=1 n=g#3 v=82
229795 On ch=1 n=g#4 v=100
229810 Par ch=1 c=64 v=104
229825 Par ch=1 c=64 v=127
229850 On ch=1 n=g#4 v=0
229855 On ch=1 n=b4 v=0
229860 On ch=1 n=g#3 v=0
229880 On ch=1 n=g#5 v=65
229890 On ch=1 n=d#5 v=0
229965 On ch=1 n=b4 v=62
229970 On ch=1 n=d#5 v=72
229975 On ch=1 n=g#5 v=0
229985 On ch=1 n=g4 v=77
230000 On ch=1 n=g3 v=67
230025 On ch=1 n=g3 v=0
230030 On ch=1 n=g4 v=0
230040 On ch=1 n=b4 v=0
230060 On ch=1 n=g#5 v=70
230065 On ch=1 n=d#5 v=0
230150 On ch=1 n=b4 v=67
230150 On ch=1 n=f#4 v=75
230155 On ch=1 n=f#3 v=61
230155 On ch=1 n=d#5 v=73
230165 On ch=1 n=g#5 v=0
230185 On ch=1 n=f#3 v=0
230200 On ch=1 n=f#4 v=0
230230 On ch=1 n=b4 v=0
230245 On ch=1 n=g#5 v=65
230250 On ch=1 n=d#5 v=0
230330 On ch=1 n=f3 v=76
230330 On ch=1 n=b4 v=72
230330 On ch=1 n=f4 v=77
230330 On ch=1 n=d#5 v=68
230350 On ch=1 n=g#5 v=0
230370 On ch=1 n=f4 v=0
230385 On ch=1 n=f3 v=0
230410 On ch=1 n=b4 v=0
230415 On ch=1 n=g#5 v=69
230430 On ch=1 n=d#5 v=0
230500 On ch=1 n=e4 v=82
230510 On ch=1 n=b4 v=76
230515 On ch=1 n=g#5 v=0
230515 On ch=1 n=e3 v=73
230515 On ch=1 n=d#5 v=73
230560 On ch=1 n=e4 v=0
230565 On ch=1 n=e3 v=0
230585 On ch=1 n=b4 v=0
230595 On ch=1 n=g#5 v=78
230615 On ch=1 n=d#5 v=0
230685 On ch=1 n=d#4 v=77
230685 On ch=1 n=b4 v=79
230695 On ch=1 n=d#3 v=61
230695 On ch=1 n=d#5 v=71
230700 On ch=1 n=g#5 v=0
230735 On ch=1 n=d#4 v=0
230740 On ch=1 n=d#3 v=0
230755 On ch=1 n=b4 v=0
230770 On ch=1 n=g#5 v=72
230790 On ch=1 n=d#5 v=0
230860 On ch=1 n=b4 v=78
230865 On ch=1 n=g#5 v=0
230870 On ch=1 n=d4 v=76
230875 On ch=1 n=d#5 v=71
230875 On ch=1 n=d3 v=72
230910 On ch=1 n=d3 v=0
230930 On ch=1 n=d4 v=0
230930 On ch=1 n=b4 v=0
230945 On ch=1 n=g#5 v=81
230960 On ch=1 n=d#5 v=0
231030 On ch=1 n=b4 v=78
231035 On ch=1 n=g#5 v=0
231050 On ch=1 n=d#4 v=85
231050 On ch=1 n=d#5 v=71
231055 On ch=1 n=d#3 v=70
231105 On ch=1 n=d#4 v=0
231115 On ch=1 n=d#3 v=0
231115 On ch=1 n=b4 v=0
231125 On ch=1 n=g#5 v=86
231145 On ch=1 n=d#5 v=0
231190 Par ch=1 c=64 v=56
231200 On ch=1 n=g#5 v=0
231205 Par ch=1 c=64 v=0
231225 On ch=1 n=c#5 v=95
231240 On ch=1 n=e5 v=85
231240 On ch=1 n=e4 v=83
231245 On ch=1 n=e3 v=79
231295 On ch=1 n=e4 v=0
231295 On ch=1 n=c#5 v=0
231295 Par ch=1 c=64 v=56
231310 On ch=1 n=e3 v=0
231310 Par ch=1 c=64 v=127
231315 On ch=1 n=c#6 v=86
231320 On ch=1 n=e5 v=0
231400 On ch=1 n=c#6 v=0
231400 On ch=1 n=c#5 v=77
231420 On ch=1 n=d#4 v=81
231420 On ch=1 n=e5 v=69
231425 On ch=1 n=d#3 v=69
231470 On ch=1 n=d#4 v=0
231470 On ch=1 n=c#5 v=0
231480 On ch=1 n=d#3 v=0
231485 On ch=1 n=e5 v=0
231495 On ch=1 n=c#6 v=86
231575 On ch=1 n=c#5 v=75
231580 On ch=1 n=c#6 v=0
231585 On ch=1 n=e5 v=82
231585 On ch=1 n=d4 v=77
231600 On ch=1 n=d3 v=66
231625 On ch=1 n=d3 v=0
231645 On ch=1 n=d4 v=0
231650 On ch=1 n=c#5 v=0
231655 On ch=1 n=e5 v=0
231670 On ch=1 n=c#6 v=87
231755 On ch=1 n=c#5 v=71
231755 On ch=1 n=c#4 v=85
231760 On ch=1 n=c#6 v=0
231760 On ch=1 n=e5 v=75
231765 On ch=1 n=c#3 v=65
231810 On ch=1 n=c#4 v=0
231815 On ch=1 n=c#3 v=0
231820 On ch=1 n=c#5 v=0
231830 On ch=1 n=e5 v=0
231835 On ch=1 n=c#6 v=83
231875 Par ch=1 c=64 v=56
231890 Par ch=1 c=64 v=0
231910 On ch=1 n=c#5 v=82
231920 On ch=1 n=c#6 v=0
231920 On ch=1 n=c4 v=92
231925 On ch=1 n=e5 v=79
231925 On ch=1 n=c3 v=82
231945 Par ch=1 c=64 v=56
231960 Par ch=1 c=64 v=127
231975 On ch=1 n=c4 v=0
231985 On ch=1 n=c3 v=0
231985 On ch=1 n=c#5 v=0
232000 On ch=1 n=e5 v=0
232005 On ch=1 n=c#6 v=79
232080 On ch=1 n=c#5 v=78
232090 On ch=1 n=e5 v=72
232090 On ch=1 n=b3 v=84
232095 On ch=1 n=c#6 v=0
232105 On ch=1 n=b2 v=74
232150 On ch=1 n=b3 v=0
232150 On ch=1 n=c#5 v=0
232155 On ch=1 n=b2 v=0
232175 On ch=1 n=e5 v=0
232180 On ch=1 n=c#6 v=78
232250 On ch=1 n=a#3 v=79
232250 On ch=1 n=c#5 v=76
232255 On ch=1 n=a#2 v=70
232270 On ch=1 n=e5 v=64
232275 On ch=1 n=c#6 v=0
232305 On ch=1 n=a#3 v=0
232310 On ch=1 n=e5 v=0
232310 On ch=1 n=a#2 v=0
232335 On ch=1 n=c#5 v=0
232350 On ch=1 n=c#6 v=86
232415 On ch=1 n=g3 v=73
232425 On ch=1 n=g2 v=58
232440 On ch=1 n=c#5 v=65
232440 On ch=1 n=e5 v=77
232455 On ch=1 n=c#6 v=0
232470 On ch=1 n=g3 v=0
232475 On ch=1 n=g2 v=0
232505 On ch=1 n=e5 v=0
232515 On ch=1 n=c#6 v=74
232520 On ch=1 n=c#5 v=0
232555 Par ch=1 c=64 v=56
232570 Par ch=1 c=64 v=0
232580 On ch=1 n=g#3 v=97
232580 On ch=1 n=g#2 v=87
232585 On ch=1 n=c#6 v=0
232600 On ch=1 n=d#5 v=78
232600 On ch=1 n=b4 v=84
232630 On ch=1 n=g#3 v=0
232640 On ch=1 n=g#2 v=0
232645 Par ch=1 c=64 v=40
232660 Par ch=1 c=64 v=104
232665 On ch=1 n=b4 v=0
232680 On ch=1 n=d#5 v=0
232680 Par ch=1 c=64 v=127
232700 On ch=1 n=b5 v=87
232765 On ch=1 n=a3 v=87
232770 On ch=1 n=a2 v=69
232775 On ch=1 n=b4 v=70
232785 On ch=1 n=b5 v=0
232790 On ch=1 n=d#5 v=62
232805 On ch=1 n=a2 v=0
232810 On ch=1 n=a3 v=0
232835 On ch=1 n=b4 v=0
232865 On ch=1 n=b5 v=77
232880 On ch=1 n=d#5 v=0
232935 On ch=1 n=a#3 v=83
232940 On ch=1 n=a#2 v=69
232945 On ch=1 n=b4 v=70
232950 On ch=1 n=b5 v=0
232955 On ch=1 n=d#5 v=29
232985 On ch=1 n=a#3 v=0
232995 On ch=1 n=a#2 v=0
233015 On ch=1 n=b4 v=0
233030 On ch=1 n=b5 v=81
233055 On ch=1 n=d#5 v=0
233100 On ch=1 n=b3 v=81
233105 On ch=1 n=b5 v=0
233110 On ch=1 n=b2 v=76
233110 On ch=1 n=d#5 v=51
233115 On ch=1 n=b4 v=82
233155 On ch=1 n=b3 v=0
233170 On ch=1 n=b2 v=0
233180 On ch=1 n=b4 v=0
233190 On ch=1 n=b5 v=87
233205 On ch=1 n=d#5 v=0
233240 Par ch=1 c=64 v=88
233250 On ch=1 n=b5 v=0
233255 Par ch=1 c=64 v=0
233275 On ch=1 n=a4 v=82
233280 On ch=1 n=c#5 v=79
233290 On ch=1 n=c4 v=95
233290 On ch=1 n=c3 v=83
233330 Par ch=1 c=64 v=72
233340 On ch=1 n=c4 v=0
233345 On ch=1 n=a4 v=0
233345 Par ch=1 c=64 v=127
233350 On ch=1 n=c3 v=0
233365 On ch=1 n=a5 v=90
233370 On ch=1 n=c#5 v=0
233435 On ch=1 n=a5 v=0
233445 On ch=1 n=a4 v=81
233465 On ch=1 n=c#4 v=77
233465 On ch=1 n=c#5 v=65
233470 On ch=1 n=c#3 v=65
233510 On ch=1 n=a4 v=0
233515 On ch=1 n=c#4 v=0
233525 On ch=1 n=c#3 v=0
233530 On ch=1 n=a5 v=88
233535 On ch=1 n=c#5 v=0
233610 On ch=1 n=a5 v=0
233610 On ch=1 n=a4 v=77
233625 On ch=1 n=c#5 v=63
233635 On ch=1 n=c4 v=82
233640 On ch=1 n=c3 v=66
233680 On ch=1 n=c3 v=0
233680 On ch=1 n=a4 v=0
233690 On ch=1 n=c4 v=0
233700 On ch=1 n=a5 v=82
233715 On ch=1 n=c#5 v=0
233775 On ch=1 n=a5 v=0
233780 On ch=1 n=a4 v=75
233800 On ch=1 n=c#5 v=50
233800 On ch=1 n=c#4 v=82
233810 On ch=1 n=c#3 v=67
233840 On ch=1 n=c#3 v=0
233850 On ch=1 n=c#4 v=0
233865 On ch=1 n=a4 v=0
233875 On ch=1 n=a5 v=86
233900 On ch=1 n=c#5 v=0
233910 Par ch=1 c=64 v=72
233925 Par ch=1 c=64 v=0
233940 On ch=1 n=a5 v=0
233960 On ch=1 n=g#4 v=89
233975 On ch=1 n=b4 v=78
233975 On ch=1 n=d4 v=96
233980 On ch=1 n=d3 v=82
234015 Par ch=1 c=64 v=104
234030 On ch=1 n=d4 v=0
234030 Par ch=1 c=64 v=127
234040 On ch=1 n=d3 v=0
234045 On ch=1 n=g#4 v=0
234060 On ch=1 n=g#5 v=86
234070 On ch=1 n=b4 v=0
234150 On ch=1 n=g#5 v=0
234150 On ch=1 n=g#4 v=77
234160 On ch=1 n=d#4 v=78
234165 On ch=1 n=d#3 v=63
234165 On ch=1 n=b4 v=59
234195 On ch=1 n=d#3 v=0
234205 On ch=1 n=d#4 v=0
234215 On ch=1 n=g#4 v=0
234235 On ch=1 n=b4 v=0
234235 On ch=1 n=g#5 v=83
234315 On ch=1 n=g#5 v=0
234315 On ch=1 n=g#4 v=81
234320 On ch=1 n=d4 v=81
234330 On ch=1 n=d3 v=74
234340 On ch=1 n=b4 v=59
234355 On ch=1 n=d3 v=0
234380 On ch=1 n=d4 v=0
234385 On ch=1 n=g#4 v=0
234390 On ch=1 n=b4 v=0
234400 On ch=1 n=g#5 v=82
234480 On ch=1 n=g#5 v=0
234490 On ch=1 n=g#4 v=79
234490 On ch=1 n=d#4 v=85
234495 On ch=1 n=d#3 v=65
234510 On ch=1 n=b4 v=62
234530 On ch=1 n=d#3 v=0
234535 On ch=1 n=b4 v=0
234540 On ch=1 n=d#4 v=0
234555 On ch=1 n=g#4 v=0
234570 On ch=1 n=g#5 v=79
234620 Par ch=1 c=64 v=40
234635 Par ch=1 c=64 v=0
234655 On ch=1 n=g#5 v=0
234660 On ch=1 n=a#4 v=82
234665 On ch=1 n=c#5 v=74
234665 On ch=1 n=e4 v=95
234670 On ch=1 n=e3 v=85
234710 Par ch=1 c=64 v=40
234725 On ch=1 n=e3 v=0
234725 On ch=1 n=e4 v=0
234725 Par ch=1 c=64 v=127
234735 On ch=1 n=a#4 v=0
234760 On ch=1 n=g5 v=88
234770 On ch=1 n=c#5 v=0
234830 On ch=1 n=a#4 v=69
234840 On ch=1 n=d#4 v=86
234840 On ch=1 n=d#3 v=82
234845 On ch=1 n=g5 v=0
234855 On ch=1 n=c#5 v=63
234890 On ch=1 n=d#3 v=0
234890 On ch=1 n=d#4 v=0
234905 On ch=1 n=a#4 v=0
234925 On ch=1 n=g5 v=81
234935 On ch=1 n=c#5 v=0
235000 On ch=1 n=a#4 v=76
235010 On ch=1 n=e4 v=82
235020 On ch=1 n=e3 v=79
235025 On ch=1 n=g5 v=0
235025 On ch=1 n=c#5 v=64
235060 On ch=1 n=e4 v=0
235065 On ch=1 n=e3 v=0
235070 On ch=1 n=a#4 v=0
235090 On ch=1 n=g5 v=81
235110 On ch=1 n=c#5 v=0
235165 On ch=1 n=a#4 v=78
235185 On ch=1 n=d#4 v=93
235190 On ch=1 n=d#3 v=83
235190 On ch=1 n=c#5 v=59
235195 On ch=1 n=g5 v=0
235235 On ch=1 n=d#3 v=0
235235 On ch=1 n=d#4 v=0
235265 On ch=1 n=a#4 v=0
235275 On ch=1 n=g5 v=81
235295 On ch=1 n=c#5 v=0
235330 On ch=1 n=g5 v=0
235390 On ch=1 n=g#5 v=96
235395 Par ch=1 c=64 v=56
235400 On ch=1 n=g#4 v=89
235400 On ch=1 n=b4 v=84
235405 On ch=1 n=g#3 v=77
235405 On ch=1 n=d#4 v=90
235405 On ch=1 n=d#5 v=69
235410 Par ch=1 c=64 v=0
235530 Par ch=1 c=64 v=104
235540 Par ch=1 c=64 v=127
235640 On ch=1 n=b4 v=0
235655 On ch=1 n=g#3 v=0
235665 On ch=1 n=d#5 v=0
235670 On ch=1 n=g#4 v=0
235685 On ch=1 n=d#4 v=0
235700 On ch=1 n=g#5 v=0
235945 Par ch=1 c=64 v=56
235955 Par ch=1 c=64 v=0
236080 On ch=1 n=g#5 v=86
236080 On ch=1 n=e5 v=89
236085 On ch=1 n=c#5 v=93
236090 On ch=1 n=g#4 v=88
236095 On ch=1 n=c#4 v=85
236135 Par ch=1 c=64 v=127
236170 On ch=1 n=e5 v=0
236185 On ch=1 n=c#6 v=81
236210 On ch=1 n=g#5 v=0
236245 On ch=1 n=c#6 v=0
236295 On ch=1 n=e6 v=93
236375 On ch=1 n=g#6 v=84
236400 On ch=1 n=e6 v=0
236445 On ch=1 n=c#7 v=87
236465 On ch=1 n=g#6 v=0
236465 On ch=1 n=g#4 v=0
236465 On ch=1 n=c#5 v=0
236490 On ch=1 n=c#7 v=0
236490 On ch=1 n=c#4 v=0
236540 On ch=1 n=e7 v=96
236615 On ch=1 n=g#7 v=81
236650 On ch=1 n=e7 v=0
236690 On ch=1 n=c#8 v=86
236720 On ch=1 n=g#7 v=0
236730 Par ch=1 c=64 v=72
236745 On ch=1 n=e8 v=87
236745 Par ch=1 c=64 v=0
236760 On ch=1 n=c#8 v=0
236780 On ch=1 n=g#3 v=82
236790 On ch=1 n=e8 v=0
236825 On ch=1 n=d#4 v=70
236865 Par ch=1 c=64 v=127
236875 On ch=1 n=g#3 v=0
236875 On ch=1 n=g#8 v=105
236875 On ch=1 n=g#7 v=112
236880 On ch=1 n=d#8 v=100
236900 On ch=1 n=b4 v=88
236915 On ch=1 n=g#7 v=0
236925 On ch=1 n=d#8 v=0
236925 On ch=1 n=d#4 v=0
236940 On ch=1 n=b4 v=0
236940 On ch=1 n=g#8 v=0
238090 On ch=1 n=b3 v=86
238090 On ch=1 n=b2 v=80
238120 Par ch=1 c=64 v=24
238135 On ch=1 n=b2 v=0
238140 Par ch=1 c=64 v=56
238150 On ch=1 n=b3 v=0
238155 Par ch=1 c=64 v=88
238175 Par ch=1 c=64 v=104
238190 Par ch=1 c=64 v=127
238285 Par ch=1 c=64 v=72
238305 Par ch=1 c=64 v=40
238320 On ch=1 n=g#5 v=90
238320 On ch=1 n=g#6 v=103
238320 Par ch=1 c=64 v=0
238340 On ch=1 n=e3 v=77
238345 On ch=1 n=e4 v=79
238475 On ch=1 n=e3 v=0
238500 Par ch=1 c=64 v=56
238510 On ch=1 n=e4 v=0
238515 Par ch=1 c=64 v=104
238535 Par ch=1 c=64 v=127
238665 On ch=1 n=g#5 v=0
238725 On ch=1 n=g#6 v=0
238890 On ch=1 n=b4 v=58
238890 On ch=1 n=g#4 v=54
238890 On ch=1 n=e5 v=65
238930 On ch=1 n=e5 v=0
238930 On ch=1 n=b4 v=0
238940 On ch=1 n=g#4 v=0
239005 On ch=1 n=g#4 v=61
239015 On ch=1 n=e5 v=70
239025 On ch=1 n=b4 v=60
239050 On ch=1 n=b4 v=0
239075 On ch=1 n=e5 v=0
239105 On ch=1 n=g#4 v=0
239465 On ch=1 n=a6 v=86
239470 On ch=1 n=a5 v=79
239475 On ch=1 n=b2 v=71
239485 On ch=1 n=b3 v=77
239505 On ch=1 n=b2 v=0
239515 On ch=1 n=b3 v=0
239520 On ch=1 n=a5 v=0
239525 On ch=1 n=a6 v=0
239590 On ch=1 n=b6 v=100
239595 On ch=1 n=b5 v=80
239635 On ch=1 n=b5 v=0
239655 On ch=1 n=b6 v=0
239715 Par ch=1 c=64 v=72
239735 Par ch=1 c=64 v=0
239755 On ch=1 n=e6 v=102
239755 On ch=1 n=e5 v=88
239785 On ch=1 n=e4 v=77
239790 On ch=1 n=e3 v=75
239890 On ch=1 n=e3 v=0
239895 Par ch=1 c=64 v=56
239915 Par ch=1 c=64 v=127
239925 On ch=1 n=e4 v=0
240265 On ch=1 n=g#4 v=60
240270 On ch=1 n=b4 v=68
240305 On ch=1 n=b4 v=0
240305 On ch=1 n=g#4 v=0
240400 On ch=1 n=b4 v=72
240400 On ch=1 n=g#4 v=73
240470 On ch=1 n=g#4 v=0
240470 On ch=1 n=b4 v=0
240555 On ch=1 n=e6 v=0
240585 On ch=1 n=e5 v=0
240905 On ch=1 n=d#5 v=85
240905 On ch=1 n=d#6 v=102
240905 On ch=1 n=b2 v=68
240915 On ch=1 n=b3 v=73
240945 On ch=1 n=b3 v=0
240945 On ch=1 n=b2 v=0
240965 On ch=1 n=d#5 v=0
240980 On ch=1 n=d#6 v=0
241080 On ch=1 n=f#6 v=103
241085 On ch=1 n=f#5 v=93
241095 Par ch=1 c=64 v=88
241115 On ch=1 n=d#4 v=71
241115 On ch=1 n=d#3 v=59
241115 Par ch=1 c=64 v=0
241325 On ch=1 n=d#3 v=0
241335 On ch=1 n=d#4 v=0
241350 Par ch=1 c=64 v=88
241360 Par ch=1 c=64 v=127
241585 On ch=1 n=f#6 v=0
241615 On ch=1 n=b4 v=65
241615 On ch=1 n=a4 v=54
241630 On ch=1 n=f#5 v=0
241640 On ch=1 n=a4 v=0
241655 On ch=1 n=b4 v=0
241740 On ch=1 n=b4 v=67
241740 On ch=1 n=a4 v=66
241765 On ch=1 n=a4 v=0
241810 On ch=1 n=b4 v=0
241870 On ch=1 n=e6 v=93
241870 On ch=1 n=e5 v=82
241930 On ch=1 n=e5 v=0
241935 On ch=1 n=e6 v=0
242025 On ch=1 n=f#6 v=93
242030 On ch=1 n=f#5 v=69
242085 On ch=1 n=f#5 v=0
242085 On ch=1 n=f#6 v=0
242160 On ch=1 n=g#6 v=95
242170 On ch=1 n=g#5 v=82
242220 On ch=1 n=g#5 v=0
242220 On ch=1 n=g#6 v=0
242280 On ch=1 n=f#6 v=93
242280 On ch=1 n=f#5 v=93
242380 On ch=1 n=f#5 v=0
242385 On ch=1 n=f#6 v=0
242460 On ch=1 n=b2 v=73
242465 On ch=1 n=b3 v=81
242490 On ch=1 n=b2 v=0
242495 On ch=1 n=b3 v=0
242625 On ch=1 n=e6 v=94
242625 On ch=1 n=e5 v=89
242675 On ch=1 n=e6 v=0
242680 On ch=1 n=e5 v=0
242725 Par ch=1 c=64 v=56
242745 On ch=1 n=e5 v=93
242745 On ch=1 n=e6 v=99
242745 Par ch=1 c=64 v=0
242755 On ch=1 n=e4 v=70
242760 On ch=1 n=e3 v=63
242915 On ch=1 n=e3 v=0
242955 On ch=1 n=e4 v=0
242960 Par ch=1 c=64 v=88
242980 Par ch=1 c=64 v=127
243205 On ch=1 n=g#4 v=68
243215 On ch=1 n=b4 v=59
243250 On ch=1 n=b4 v=0
243265 On ch=1 n=g#4 v=0
243300 Par ch=1 c=64 v=72
243320 Par ch=1 c=64 v=24
243335 On ch=1 n=b4 v=70
243335 On ch=1 n=g#4 v=72
243335 Par ch=1 c=64 v=0
243355 Par ch=1 c=64 v=40
243375 Par ch=1 c=64 v=88
243390 Par ch=1 c=64 v=127
243400 On ch=1 n=b4 v=0
243410 On ch=1 n=g#4 v=0
243475 On ch=1 n=e5 v=0
243545 On ch=1 n=e6 v=0
243830 On ch=1 n=b2 v=74
243835 On ch=1 n=b3 v=85
243840 On ch=1 n=g#6 v=99
243840 On ch=1 n=g#5 v=90
243855 On ch=1 n=e6 v=81
243885 On ch=1 n=e6 v=0
243890 On ch=1 n=b3 v=0
243890 On ch=1 n=b2 v=0
243915 On ch=1 n=g#5 v=0
243940 On ch=1 n=g#6 v=0
244025 On ch=1 n=g#6 v=100
244035 On ch=1 n=g#5 v=89
244035 On ch=1 n=e6 v=90
244050 On ch=1 n=e4 v=83
244060 On ch=1 n=e3 v=83
244070 Par ch=1 c=64 v=88
244085 Par ch=1 c=64 v=0
244270 Par ch=1 c=64 v=56
244280 On ch=1 n=e3 v=0
244285 Par ch=1 c=64 v=127
244310 On ch=1 n=e4 v=0
244370 On ch=1 n=g#5 v=0
244385 On ch=1 n=g#6 v=0
244420 On ch=1 n=e6 v=0
244680 Par ch=1 c=64 v=24
244685 On ch=1 n=g#6 v=96
244685 On ch=1 n=g#5 v=91
244695 Par ch=1 c=64 v=0
244705 On ch=1 n=e4 v=73
244705 On ch=1 n=e5 v=76
244770 Par ch=1 c=64 v=72
244775 On ch=1 n=e5 v=0
244775 On ch=1 n=e4 v=0
244785 Par ch=1 c=64 v=127
244810 On ch=1 n=g#5 v=0
244835 On ch=1 n=g#6 v=0
244930 On ch=1 n=f#5 v=81
244930 On ch=1 n=a6 v=96
244935 On ch=1 n=f#4 v=74
244935 On ch=1 n=a5 v=87
244970 On ch=1 n=f#4 v=0
244985 On ch=1 n=f#5 v=0
244995 On ch=1 n=a5 v=0
245020 On ch=1 n=a6 v=0
245135 On ch=1 n=g#5 v=84
245135 On ch=1 n=b6 v=103
245140 On ch=1 n=b5 v=93
245140 On ch=1 n=g#4 v=77
245205 On ch=1 n=b5 v=0
245210 On ch=1 n=g#4 v=0
245215 On ch=1 n=g#5 v=0
245230 On ch=1 n=b6 v=0
245370 On ch=1 n=c#7 v=100
245375 On ch=1 n=c#6 v=97
245390 On ch=1 n=a5 v=80
245400 On ch=1 n=a4 v=79
245400 Par ch=1 c=64 v=88
245415 Par ch=1 c=64 v=0
245645 Par ch=1 c=64 v=88
245655 On ch=1 n=a5 v=0
245665 Par ch=1 c=64 v=127
245690 On ch=1 n=a4 v=0
245705 On ch=1 n=c#7 v=0
245725 On ch=1 n=c#6 v=0
246095 Par ch=1 c=64 v=24
246100 On ch=1 n=c#6 v=100
246100 On ch=1 n=a4 v=78
246100 On ch=1 n=a3 v=82
246100 On ch=1 n=e5 v=84
246100 On ch=1 n=c#5 v=86
246110 Par ch=1 c=64 v=0
246130 On ch=1 n=e4 v=70
246180 On ch=1 n=a3 v=0
246200 Par ch=1 c=64 v=56
246205 On ch=1 n=e5 v=0
246205 On ch=1 n=a4 v=0
246220 Par ch=1 c=64 v=127
246235 On ch=1 n=e4 v=0
246235 On ch=1 n=c#5 v=0
246260 On ch=1 n=c#6 v=0
246395 On ch=1 n=b5 v=100
246400 On ch=1 n=g#4 v=77
246400 On ch=1 n=e5 v=71
246400 On ch=1 n=e4 v=70
246400 On ch=1 n=b4 v=80
246400 On ch=1 n=g#3 v=73
246430 On ch=1 n=e4 v=0
246475 On ch=1 n=b4 v=0
246500 On ch=1 n=g#3 v=0
246500 On ch=1 n=b5 v=0
246505 On ch=1 n=g#4 v=0
246510 On ch=1 n=e5 v=0
246560 Par ch=1 c=64 v=40
246580 Par ch=1 c=64 v=0
246615 On ch=1 n=a#5 v=99
246615 On ch=1 n=a#4 v=92
246620 On ch=1 n=e5 v=82
246625 On ch=1 n=e4 v=76
246625 On ch=1 n=g4 v=83
246635 On ch=1 n=g3 v=77
246650 Par ch=1 c=64 v=40
246670 Par ch=1 c=64 v=127
246690 On ch=1 n=g4 v=0
246700 On ch=1 n=g3 v=0
246720 On ch=1 n=e5 v=0
246735 On ch=1 n=e4 v=0
246735 On ch=1 n=a#4 v=0
246755 On ch=1 n=a#5 v=0
246845 On ch=1 n=b5 v=105
246855 On ch=1 n=b4 v=90
246860 On ch=1 n=e5 v=89
246865 On ch=1 n=g#3 v=76
246865 On ch=1 n=e4 v=76
246870 On ch=1 n=g#4 v=76
246885 Par ch=1 c=64 v=88
246900 Par ch=1 c=64 v=0
247080 Par ch=1 c=64 v=88
247100 On ch=1 n=g#4 v=0
247100 On ch=1 n=e4 v=0
247100 Par ch=1 c=64 v=127
247135 On ch=1 n=g#3 v=0
247135 On ch=1 n=e5 v=0
247135 On ch=1 n=b5 v=0
247180 On ch=1 n=b4 v=0
247525 On ch=1 n=e5 v=99
247530 On ch=1 n=e4 v=88
247535 On ch=1 n=g#4 v=77
247550 On ch=1 n=c#3 v=75
247550 On ch=1 n=c#4 v=78
247550 Par ch=1 c=64 v=88
247555 On ch=1 n=g#3 v=69
247565 Par ch=1 c=64 v=0
247690 Par ch=1 c=64 v=72
247710 Par ch=1 c=64 v=127
247725 On ch=1 n=e5 v=0
247750 On ch=1 n=e4 v=0
247830 On ch=1 n=c#4 v=0
247865 On ch=1 n=g#3 v=0
247870 On ch=1 n=c#3 v=0
247880 On ch=1 n=g#4 v=0
248090 On ch=1 n=d#5 v=93
248090 On ch=1 n=d#4 v=92
248155 On ch=1 n=d#4 v=0
248170 On ch=1 n=d#5 v=0
248235 On ch=1 n=d#5 v=90
248245 On ch=1 n=d#4 v=93
248250 On ch=1 n=a4 v=85
248260 On ch=1 n=f#3 v=73
248260 On ch=1 n=b3 v=70
248265 On ch=1 n=b2 v=77
248270 On ch=1 n=a3 v=78
248320 Par ch=1 c=64 v=24
248335 Par ch=1 c=64 v=0
248455 Par ch=1 c=64 v=88
248480 Par ch=1 c=64 v=127
248515 On ch=1 n=b2 v=0
248520 On ch=1 n=f#3 v=0
248530 On ch=1 n=a3 v=0
248530 On ch=1 n=d#4 v=0
248535 On ch=1 n=b3 v=0
248565 On ch=1 n=d#5 v=0
248605 On ch=1 n=a4 v=0
248725 On ch=1 n=e5 v=88
248725 On ch=1 n=e4 v=76
248770 On ch=1 n=e4 v=0
248790 On ch=1 n=e5 v=0
248870 On ch=1 n=f#4 v=80
248875 On ch=1 n=f#5 v=82
248925 On ch=1 n=f#4 v=0
248940 On ch=1 n=f#5 v=0
249000 On ch=1 n=g#5 v=87
249005 On ch=1 n=g#4 v=85
249065 On ch=1 n=g#4 v=0
249070 On ch=1 n=g#5 v=0
249145 On ch=1 n=f#5 v=88
249155 On ch=1 n=f#4 v=95
249215 Par ch=1 c=64 v=56
249230 Par ch=1 c=64 v=0
249335 Par ch=1 c=64 v=88
249355 Par ch=1 c=64 v=127
249380 On ch=1 n=f#4 v=0
249380 On ch=1 n=f#5 v=0
249785 On ch=1 n=e5 v=96
249790 On ch=1 n=e3 v=81
249790 On ch=1 n=e4 v=86
249795 On ch=1 n=e2 v=70
249830 On ch=1 n=e2 v=0
249830 On ch=1 n=e4 v=0
249830 On ch=1 n=e3 v=0
249835 On ch=1 n=e5 v=0
249895 On ch=1 n=e5 v=85
249905 On ch=1 n=e4 v=102
249920 On ch=1 n=e3 v=84
249930 On ch=1 n=e2 v=91
249930 Par ch=1 c=64 v=104
249945 Par ch=1 c=64 v=0
250055 Par ch=1 c=64 v=88
250075 Par ch=1 c=64 v=127
250090 On ch=1 n=e2 v=0
250125 On ch=1 n=e3 v=0
250260 On ch=1 n=e4 v=0
250285 On ch=1 n=e5 v=0
250350 On ch=1 n=g#4 v=71
250375 On ch=1 n=g#3 v=70
250465 On ch=1 n=b4 v=74
250480 On ch=1 n=g#4 v=0
250485 On ch=1 n=g#3 v=0
250495 On ch=1 n=b4 v=0
250505 On ch=1 n=b3 v=73
250535 On ch=1 n=b3 v=0
250570 On ch=1 n=e4 v=77
250575 On ch=1 n=e5 v=89
250665 On ch=1 n=e5 v=0
250680 On ch=1 n=e4 v=0
250690 On ch=1 n=g#5 v=74
250715 On ch=1 n=g#4 v=77
250770 On ch=1 n=b5 v=80
250790 On ch=1 n=g#5 v=0
250795 On ch=1 n=g#4 v=0
250800 On ch=1 n=b5 v=0
250815 On ch=1 n=b4 v=78
250885 On ch=1 n=e6 v=92
250920 On ch=1 n=b4 v=0
250925 On ch=1 n=e5 v=80
250975 On ch=1 n=e6 v=0
251000 On ch=1 n=g#6 v=86
251045 On ch=1 n=e5 v=0
251050 On ch=1 n=b4 v=76
251080 On ch=1 n=g#4 v=74
251085 On ch=1 n=b4 v=0
251095 On ch=1 n=b6 v=85
251110 On ch=1 n=g#6 v=0
251130 On ch=1 n=b6 v=0
251145 On ch=1 n=g#4 v=0
251205 On ch=1 n=e7 v=93
251205 On ch=1 n=e4 v=82
251325 On ch=1 n=g#7 v=91
251335 On ch=1 n=e7 v=0
251340 On ch=1 n=b3 v=74
251355 On ch=1 n=e4 v=0
251395 On ch=1 n=g#3 v=76
251420 On ch=1 n=b7 v=85
251425 On ch=1 n=b3 v=0
251425 On ch=1 n=g#7 v=0
251525 On ch=1 n=g#3 v=0
251535 On ch=1 n=b7 v=0
251590 On ch=1 n=e8 v=107
251595 On ch=1 n=g#7 v=96
251595 On ch=1 n=e7 v=102
251600 On ch=1 n=e3 v=88
251600 On ch=1 n=b7 v=90
251600 On ch=1 n=g#3 v=76
251605 On ch=1 n=e4 v=94
251605 On ch=1 n=b3 v=84
251650 On ch=1 n=b7 v=0
251655 On ch=1 n=e3 v=0
251660 On ch=1 n=e4 v=0
251660 On ch=1 n=g#7 v=0
251670 On ch=1 n=b3 v=0
251670 On ch=1 n=g#3 v=0
251675 On ch=1 n=e7 v=0
251700 On ch=1 n=e8 v=0
252545 Par ch=1 c=64 v=88
252565 Par ch=1 c=64 v=0
252720 On ch=1 n=g#2 v=70
252725 On ch=1 n=g#3 v=95
252740 Par ch=1 c=64 v=104
252760 Par ch=1 c=64 v=127
252775 On ch=1 n=g#3 v=0
252775 On ch=1 n=g#2 v=0
252965 On ch=1 n=e7 v=112
252970 On ch=1 n=e6 v=100
252975 On ch=1 n=c#7 v=80
252975 On ch=1 n=g#6 v=84
252975 Par ch=1 c=64 v=40
252995 On ch=1 n=c#4 v=95
252995 On ch=1 n=c#3 v=76
252995 Par ch=1 c=64 v=0
253085 On ch=1 n=c#3 v=0
253115 On ch=1 n=c#4 v=0
253135 Par ch=1 c=64 v=127
253380 On ch=1 n=c#7 v=0
253435 On ch=1 n=g#6 v=0
253545 On ch=1 n=e6 v=0
253550 On ch=1 n=g#5 v=76
253555 On ch=1 n=e5 v=69
253560 On ch=1 n=g#4 v=56
253560 On ch=1 n=c#5 v=58
253590 On ch=1 n=c#5 v=0
253590 On ch=1 n=e5 v=0
253605 On ch=1 n=g#4 v=0
253610 On ch=1 n=g#5 v=0
253620 On ch=1 n=e7 v=0
253665 On ch=1 n=g#5 v=75
253685 On ch=1 n=e5 v=68
253685 On ch=1 n=g#4 v=43
253690 On ch=1 n=c#5 v=55
253725 On ch=1 n=e5 v=0
253755 On ch=1 n=g#5 v=0
253770 On ch=1 n=c#5 v=0
253785 On ch=1 n=g#4 v=0
254115 On ch=1 n=f#7 v=86
254115 On ch=1 n=f#6 v=77
254115 On ch=1 n=g#3 v=80
254120 On ch=1 n=g#2 v=75
254160 On ch=1 n=g#2 v=0
254165 On ch=1 n=g#3 v=0
254165 On ch=1 n=f#6 v=0
254185 On ch=1 n=f#7 v=0
254240 On ch=1 n=g#7 v=105
254240 On ch=1 n=g#6 v=97
254290 On ch=1 n=g#6 v=0
254290 On ch=1 n=g#7 v=0
254385 On ch=1 n=c#7 v=103
254390 On ch=1 n=c#6 v=95
254405 On ch=1 n=c#4 v=84
254405 Par ch=1 c=64 v=88
254410 On ch=1 n=c#3 v=85
254425 Par ch=1 c=64 v=0
254545 On ch=1 n=c#4 v=0
254550 On ch=1 n=c#3 v=0
254550 Par ch=1 c=64 v=104
254570 Par ch=1 c=64 v=127
254925 On ch=1 n=g#5 v=73
254925 On ch=1 n=g#4 v=60
254925 On ch=1 n=e5 v=74
254935 On ch=1 n=c#5 v=51
254965 On ch=1 n=c#5 v=0
254965 On ch=1 n=e5 v=0
254980 On ch=1 n=g#4 v=0
254985 On ch=1 n=g#5 v=0
255060 On ch=1 n=g#5 v=77
255060 On ch=1 n=g#4 v=61
255075 On ch=1 n=e5 v=73
255075 On ch=1 n=c#5 v=67
255100 On ch=1 n=e5 v=0
255135 On ch=1 n=g#5 v=0
255145 On ch=1 n=c#5 v=0
255170 On ch=1 n=g#4 v=0
255185 On ch=1 n=c#7 v=0
255195 On ch=1 n=c#6 v=0
255540 On ch=1 n=c6 v=89
255540 On ch=1 n=c7 v=100
255545 On ch=1 n=g#2 v=60
255555 On ch=1 n=g#3 v=61
255585 On ch=1 n=g#3 v=0
255590 On ch=1 n=g#2 v=0
255590 On ch=1 n=c6 v=0
255615 On ch=1 n=c7 v=0
255725 On ch=1 n=d#7 v=103
255735 On ch=1 n=d#6 v=103
255740 On ch=1 n=c4 v=82
255750 On ch=1 n=c3 v=83
255805 Par ch=1 c=64 v=56
255825 Par ch=1 c=64 v=0
255900 On ch=1 n=c3 v=0
255935 On ch=1 n=c4 v=0
255950 Par ch=1 c=64 v=127
256265 On ch=1 n=f#5 v=68
256265 On ch=1 n=g#4 v=63
256270 On ch=1 n=g#5 v=70
256270 On ch=1 n=d#5 v=59
256320 On ch=1 n=d#5 v=0
256325 On ch=1 n=g#5 v=0
256330 On ch=1 n=f#5 v=0
256345 On ch=1 n=g#4 v=0
256380 On ch=1 n=d#6 v=0
256380 On ch=1 n=d#7 v=0
256390 On ch=1 n=g#4 v=53
256395 On ch=1 n=g#5 v=73
256395 On ch=1 n=f#5 v=56
256400 On ch=1 n=d#5 v=45
256465 On ch=1 n=d#5 v=0
256465 On ch=1 n=g#5 v=0
256475 On ch=1 n=f#5 v=0
256505 On ch=1 n=c#7 v=86
256510 On ch=1 n=g#4 v=0
256510 On ch=1 n=c#6 v=82
256570 On ch=1 n=c#6 v=0
256595 On ch=1 n=c#7 v=0
256645 On ch=1 n=d#7 v=92
256650 On ch=1 n=d#6 v=92
256710 On ch=1 n=d#6 v=0
256720 On ch=1 n=d#7 v=0
256780 On ch=1 n=e7 v=100
256795 On ch=1 n=e6 v=90
256840 On ch=1 n=e6 v=0
256855 On ch=1 n=e7 v=0
256920 On ch=1 n=d#7 v=90
256930 On ch=1 n=d#6 v=93
256995 On ch=1 n=d#6 v=0
257035 On ch=1 n=d#7 v=0
257045 On ch=1 n=g#2 v=76
257045 On ch=1 n=g#3 v=82
257095 On ch=1 n=g#2 v=0
257105 On ch=1 n=g#3 v=0
257185 On ch=1 n=c#6 v=89
257185 On ch=1 n=c#7 v=91
257225 On ch=1 n=c#7 v=0
257230 On ch=1 n=c#6 v=0
257290 On ch=1 n=c#7 v=94
257295 On ch=1 n=c#6 v=94
257320 On ch=1 n=c#4 v=89
257325 On ch=1 n=c#3 v=84
257325 Par ch=1 c=64 v=104
257345 Par ch=1 c=64 v=0
257420 On ch=1 n=c#3 v=0
257430 On ch=1 n=c#4 v=0
257490 Par ch=1 c=64 v=104
257505 Par ch=1 c=64 v=127
257815 On ch=1 n=g#4 v=60
257820 On ch=1 n=e5 v=69
257825 On ch=1 n=g#5 v=61
257825 On ch=1 n=c#5 v=45
257860 On ch=1 n=c#5 v=0
257860 On ch=1 n=e5 v=0
257875 On ch=1 n=g#5 v=0
257885 On ch=1 n=g#4 v=0
257945 On ch=1 n=g#4 v=59
257950 On ch=1 n=g#5 v=72
257960 On ch=1 n=e5 v=63
257965 On ch=1 n=c#5 v=50
257995 On ch=1 n=e5 v=0
258020 On ch=1 n=g#5 v=0
258030 On ch=1 n=c#5 v=0
258035 On ch=1 n=c#7 v=0
258040 On ch=1 n=c#6 v=0
258070 On ch=1 n=g#4 v=0
258400 Par ch=1 c=64 v=88
258420 Par ch=1 c=64 v=0
258470 On ch=1 n=f3 v=81
258475 On ch=1 n=f4 v=96
258475 On ch=1 n=f2 v=73
258495 Par ch=1 c=64 v=56
258515 Par ch=1 c=64 v=127
258535 On ch=1 n=f3 v=0
258560 On ch=1 n=f2 v=0
258580 On ch=1 n=f4 v=0
258630 Par ch=1 c=64 v=88
258650 On ch=1 n=f#4 v=97
258650 Par ch=1 c=64 v=0
258660 On ch=1 n=f#2 v=79
258665 On ch=1 n=f#3 v=93
258795 On ch=1 n=f#4 v=0
258815 On ch=1 n=f#2 v=0
258815 Par ch=1 c=64 v=88
258830 Par ch=1 c=64 v=127
258840 On ch=1 n=f#3 v=0
259165 On ch=1 n=a6 v=79
259170 On ch=1 n=a5 v=76
259170 On ch=1 n=f#6 v=65
259175 On ch=1 n=f#5 v=69
259185 On ch=1 n=a4 v=56
259185 On ch=1 n=f#4 v=40
259195 On ch=1 n=a6 v=0
259200 On ch=1 n=f#6 v=0
259210 On ch=1 n=f#5 v=0
259210 On ch=1 n=a5 v=0
259215 On ch=1 n=a4 v=0
259250 On ch=1 n=a6 v=87
259260 On ch=1 n=f#6 v=65
259260 On ch=1 n=a5 v=93
259270 On ch=1 n=f#5 v=64
259275 On ch=1 n=a4 v=59
259280 Par ch=1 c=64 v=56
259300 Par ch=1 c=64 v=0
259335 Par ch=1 c=64 v=40
259350 On ch=1 n=a4 v=0
259350 On ch=1 n=a5 v=0
259355 Par ch=1 c=64 v=104
259370 On ch=1 n=f#5 v=0
259370 On ch=1 n=f#4 v=0
259370 Par ch=1 c=64 v=127
259385 On ch=1 n=a6 v=0
259390 On ch=1 n=f#6 v=0
259560 On ch=1 n=g#6 v=80
259560 On ch=1 n=e4 v=49
259560 On ch=1 n=g#4 v=64
259560 On ch=1 n=e6 v=77
259560 On ch=1 n=e5 v=82
259560 On ch=1 n=g#5 v=75
259585 On ch=1 n=e6 v=0
259590 On ch=1 n=g#4 v=0
259595 On ch=1 n=e5 v=0
259595 On ch=1 n=e4 v=0
259615 On ch=1 n=g#6 v=0
259620 On ch=1 n=g#5 v=0
259635 On ch=1 n=g#6 v=77
259640 On ch=1 n=g#5 v=87
259650 On ch=1 n=e6 v=73
259660 On ch=1 n=e5 v=76
259660 On ch=1 n=g#4 v=49
259665 On ch=1 n=e4 v=78
259665 Par ch=1 c=64 v=72
259685 Par ch=1 c=64 v=0
259735 Par ch=1 c=64 v=56
259740 On ch=1 n=g#4 v=0
259745 On ch=1 n=e4 v=0
259755 On ch=1 n=g#5 v=0
259755 Par ch=1 c=64 v=127
259765 On ch=1 n=e5 v=0
259765 On ch=1 n=e6 v=0
259795 On ch=1 n=g#6 v=0
259935 On ch=1 n=f#5 v=82
259935 On ch=1 n=f#6 v=73
259945 On ch=1 n=d#5 v=71
259945 On ch=1 n=d#6 v=60
259945 On ch=1 n=d#4 v=56
259945 On ch=1 n=f#4 v=55
259970 On ch=1 n=d#5 v=0
259970 On ch=1 n=f#6 v=0
259975 On ch=1 n=f#4 v=0
259980 On ch=1 n=d#4 v=0
259980 On ch=1 n=d#6 v=0
259980 On ch=1 n=f#5 v=0
260020 On ch=1 n=f#6 v=71
260030 On ch=1 n=f#5 v=84
260035 On ch=1 n=d#4 v=67
260035 On ch=1 n=d#5 v=61
260035 On ch=1 n=d#6 v=46
260035 Par ch=1 c=64 v=104
260040 On ch=1 n=f#4 v=64
260055 Par ch=1 c=64 v=0
260120 On ch=1 n=f#4 v=0
260120 On ch=1 n=d#5 v=0
260140 On ch=1 n=d#6 v=0
260140 On ch=1 n=d#4 v=0
260140 Par ch=1 c=64 v=72
260160 On ch=1 n=f#5 v=0
260160 On ch=1 n=f#6 v=0
260160 Par ch=1 c=64 v=127
260465 On ch=1 n=c#5 v=92
260470 On ch=1 n=c#4 v=86
260470 On ch=1 n=c#3 v=73
260510 On ch=1 n=c#3 v=0
260520 On ch=1 n=c#4 v=0
260545 On ch=1 n=c#5 v=0
260620 On ch=1 n=d5 v=110
260630 On ch=1 n=d4 v=84
260630 On ch=1 n=d3 v=83
260645 Par ch=1 c=64 v=24
260660 Par ch=1 c=64 v=0
260875 Par ch=1 c=64 v=127
260880 On ch=1 n=d3 v=0
260880 On ch=1 n=d5 v=0
260930 On ch=1 n=d4 v=0
261270 On ch=1 n=f#7 v=88
261270 On ch=1 n=f#6 v=75
261275 On ch=1 n=a6 v=77
261275 On ch=1 n=a5 v=69
261275 On ch=1 n=f#5 v=62
261305 On ch=1 n=a6 v=0
261310 On ch=1 n=f#5 v=0
261315 On ch=1 n=a5 v=0
261315 On ch=1 n=f#6 v=0
261315 On ch=1 n=f#7 v=0
261370 On ch=1 n=f#7 v=75
261375 On ch=1 n=f#6 v=80
261380 On ch=1 n=a6 v=84
261390 On ch=1 n=a5 v=73
261400 On ch=1 n=f#5 v=63
261455 On ch=1 n=a6 v=0
261465 On ch=1 n=a5 v=0
261465 On ch=1 n=f#6 v=0
261475 On ch=1 n=f#5 v=0
261490 On ch=1 n=f#7 v=0
261625 On ch=1 n=e7 v=89
261625 On ch=1 n=e6 v=88
261625 On ch=1 n=g6 v=86
261630 On ch=1 n=g5 v=74
261635 On ch=1 n=e5 v=70
261655 On ch=1 n=g6 v=0
261655 On ch=1 n=e7 v=0
261660 On ch=1 n=e6 v=0
261665 On ch=1 n=e5 v=0
261675 On ch=1 n=g5 v=0
261725 On ch=1 n=e7 v=92
261725 On ch=1 n=e6 v=94
261730 On ch=1 n=g6 v=78
261735 On ch=1 n=e5 v=63
261745 On ch=1 n=g5 v=68
261790 On ch=1 n=g6 v=0
261835 On ch=1 n=e7 v=0
261840 On ch=1 n=e6 v=0
261845 On ch=1 n=e5 v=0
261860 On ch=1 n=g5 v=0
261965 On ch=1 n=f#5 v=68
261970 On ch=1 n=d7 v=88
261970 On ch=1 n=f#6 v=80
261970 On ch=1 n=d5 v=68
261970 On ch=1 n=d6 v=84
262005 On ch=1 n=d6 v=0
262005 On ch=1 n=f#6 v=0
262005 On ch=1 n=d7 v=0
262015 On ch=1 n=d5 v=0
262030 On ch=1 n=f#5 v=0
262055 Par ch=1 c=64 v=56
262070 On ch=1 n=d7 v=86
262080 On ch=1 n=d6 v=89
262080 On ch=1 n=f#6 v=80
262080 On ch=1 n=f#5 v=68
262080 Par ch=1 c=64 v=0
262090 On ch=1 n=d5 v=81
262150 On ch=1 n=f#5 v=0
262150 On ch=1 n=d7 v=0
262150 Par ch=1 c=64 v=40
262160 On ch=1 n=f#6 v=0
262165 On ch=1 n=d5 v=0
262165 Par ch=1 c=64 v=104
262180 On ch=1 n=d6 v=0
262185 Par ch=1 c=64 v=127
262450 On ch=1 n=a#4 v=85
262455 On ch=1 n=a#3 v=75
262460 On ch=1 n=a#2 v=64
262485 On ch=1 n=a#3 v=0
262495 On ch=1 n=a#2 v=0
262530 On ch=1 n=a#4 v=0
262595 On ch=1 n=b4 v=107
262595 Par ch=1 c=64 v=0
262605 On ch=1 n=b2 v=78
262610 On ch=1 n=b3 v=84
262745 On ch=1 n=b4 v=0
262765 On ch=1 n=b2 v=0
262775 Par ch=1 c=64 v=127
262805 On ch=1 n=b3 v=0
263170 On ch=1 n=a7 v=92
263170 On ch=1 n=a6 v=88
263175 On ch=1 n=a5 v=72
263175 On ch=1 n=f#7 v=75
263175 On ch=1 n=f#5 v=60
263190 On ch=1 n=a4 v=44
263210 On ch=1 n=f#5 v=0
263220 On ch=1 n=a5 v=0
263230 On ch=1 n=a4 v=0
263230 On ch=1 n=f#7 v=0
263235 On ch=1 n=a6 v=0
263235 On ch=1 n=a7 v=0
263285 On ch=1 n=a7 v=99
263295 On ch=1 n=a6 v=89
263295 On ch=1 n=f#7 v=71
263305 On ch=1 n=a4 v=49
263305 On ch=1 n=a5 v=67
263320 On ch=1 n=f#5 v=61
263380 On ch=1 n=a6 v=0
263385 On ch=1 n=a4 v=0
263390 On ch=1 n=a5 v=0
263395 On ch=1 n=a7 v=0
263405 On ch=1 n=f#5 v=0
263420 On ch=1 n=f#7 v=0
263525 On ch=1 n=e7 v=82
263525 On ch=1 n=g#6 v=81
263525 On ch=1 n=g#7 v=83
263530 On ch=1 n=e5 v=71
263530 On ch=1 n=g#5 v=64
263530 On ch=1 n=g#4 v=62
263560 On ch=1 n=e5 v=0
263565 On ch=1 n=g#5 v=0
263565 On ch=1 n=e7 v=0
263580 On ch=1 n=g#7 v=0
263580 On ch=1 n=g#6 v=0
263585 On ch=1 n=g#4 v=0
263635 On ch=1 n=g#7 v=87
263640 On ch=1 n=g#6 v=85
263645 On ch=1 n=e7 v=83
263650 On ch=1 n=g#4 v=70
263650 On ch=1 n=e5 v=71
263655 On ch=1 n=g#5 v=65
263705 On ch=1 n=g#6 v=0
263715 On ch=1 n=g#5 v=0
263715 On ch=1 n=e5 v=0
263715 On ch=1 n=g#4 v=0
263730 On ch=1 n=e7 v=0
263745 On ch=1 n=g#7 v=0
263830 On ch=1 n=f#7 v=88
263835 On ch=1 n=f#6 v=99
263835 On ch=1 n=d#5 v=74
263835 On ch=1 n=f#5 v=69
263835 On ch=1 n=d#7 v=79
263835 On ch=1 n=f#4 v=77
263865 On ch=1 n=d#5 v=0
263870 On ch=1 n=f#5 v=0
263885 On ch=1 n=f#7 v=0
263895 On ch=1 n=d#7 v=0
263895 On ch=1 n=f#6 v=0
263900 On ch=1 n=f#4 v=0
264095 On ch=1 n=c5 v=99
264110 On ch=1 n=c4 v=89
264115 On ch=1 n=c3 v=68
264155 Par ch=1 c=64 v=40
264175 Par ch=1 c=64 v=0
264295 Par ch=1 c=64 v=88
264310 On ch=1 n=c5 v=0
264315 On ch=1 n=c3 v=0
264315 Par ch=1 c=64 v=127
264355 On ch=1 n=c4 v=0
264660 On ch=1 n=a5 v=79
264660 On ch=1 n=f#5 v=64
264660 On ch=1 n=f#7 v=76
264665 On ch=1 n=a6 v=88
264665 On ch=1 n=a7 v=96
264665 On ch=1 n=a4 v=64
264700 On ch=1 n=a4 v=0
264700 On ch=1 n=a7 v=0
264705 On ch=1 n=f#5 v=0
264710 On ch=1 n=f#7 v=0
264710 On ch=1 n=a5 v=0
264715 On ch=1 n=a6 v=0
264770 On ch=1 n=a7 v=97
264780 On ch=1 n=a6 v=88
264780 On ch=1 n=f#7 v=67
264805 On ch=1 n=a4 v=68
264805 On ch=1 n=a5 v=69
264810 On ch=1 n=f#5 v=60
264865 On ch=1 n=a6 v=0
264870 On ch=1 n=a4 v=0
264875 On ch=1 n=a7 v=0
264880 On ch=1 n=a5 v=0
264890 On ch=1 n=f#5 v=0
264890 On ch=1 n=f#7 v=0
265005 On ch=1 n=g#6 v=83
265010 On ch=1 n=e7 v=84
265015 On ch=1 n=g#7 v=93
265015 On ch=1 n=g#5 v=70
265020 On ch=1 n=e5 v=74
265025 On ch=1 n=g#4 v=55
265040 On ch=1 n=e7 v=0
265050 On ch=1 n=e5 v=0
265050 On ch=1 n=g#5 v=0
265050 On ch=1 n=g#7 v=0
265065 On ch=1 n=g#6 v=0
265070 On ch=1 n=g#4 v=0
265120 On ch=1 n=g#7 v=94
265120 On ch=1 n=g#6 v=91
265125 On ch=1 n=g#4 v=75
265125 On ch=1 n=g#5 v=61
265130 On ch=1 n=e5 v=72
265130 On ch=1 n=e7 v=89
265210 On ch=1 n=e5 v=0
265210 On ch=1 n=g#6 v=0
265215 On ch=1 n=g#4 v=0
265225 On ch=1 n=e7 v=0
265225 On ch=1 n=g#5 v=0
265225 On ch=1 n=g#7 v=0
265330 On ch=1 n=f#5 v=72
265335 On ch=1 n=f#4 v=74
265335 On ch=1 n=d#7 v=81
265335 On ch=1 n=d#5 v=73
265335 On ch=1 n=f#7 v=86
265335 On ch=1 n=f#6 v=84
265360 On ch=1 n=f#5 v=0
265365 On ch=1 n=d#5 v=0
265385 On ch=1 n=f#7 v=0
265385 On ch=1 n=f#4 v=0
265390 On ch=1 n=f#6 v=0
265395 On ch=1 n=d#7 v=0
265565 Par ch=1 c=64 v=0
265645 On ch=1 n=g4 v=109
265645 On ch=1 n=g2 v=86
265645 On ch=1 n=g3 v=95
265675 Par ch=1 c=64 v=72
265850 On ch=1 n=g4 v=0
265880 On ch=1 n=g2 v=0
265905 On ch=1 n=g3 v=0
266090 Par ch=1 c=64 v=88
266110 Par ch=1 c=64 v=127
266310 Par ch=1 c=64 v=100
266335 On ch=1 n=g7 v=84
266340 On ch=1 n=e8 v=97
266350 On ch=1 n=a#6 v=69
266350 On ch=1 n=e7 v=77
266350 On ch=1 n=g6 v=75
266350 On ch=1 n=a#5 v=65
266385 On ch=1 n=e7 v=0
266390 On ch=1 n=e8 v=0
266400 On ch=1 n=a#5 v=0
266400 On ch=1 n=g6 v=0
266400 On ch=1 n=a#6 v=0
266400 On ch=1 n=g7 v=0
266460 On ch=1 n=a#5 v=68
266460 On ch=1 n=a#6 v=67
266460 On ch=1 n=e8 v=93
266460 On ch=1 n=g7 v=93
266465 On ch=1 n=g6 v=80
266470 On ch=1 n=e7 v=94
266535 On ch=1 n=g6 v=0
266535 On ch=1 n=a#5 v=0
266540 On ch=1 n=e7 v=0
266540 On ch=1 n=a#6 v=0
266555 On ch=1 n=g7 v=0
266560 On ch=1 n=e8 v=0
266735 On ch=1 n=f#6 v=81
266740 On ch=1 n=a6 v=70
266750 On ch=1 n=a5 v=63
266755 On ch=1 n=d#8 v=90
266760 On ch=1 n=d#7 v=85
266765 On ch=1 n=f#7 v=73
266775 On ch=1 n=a6 v=0
266780 On ch=1 n=a5 v=0
266790 On ch=1 n=f#7 v=0
266790 On ch=1 n=f#6 v=0
266805 On ch=1 n=d#7 v=0
266815 On ch=1 n=d#8 v=0
266855 On ch=1 n=d#8 v=91
266865 On ch=1 n=d#7 v=86
266865 On ch=1 n=f#6 v=67
266865 On ch=1 n=f#7 v=75
266865 On ch=1 n=a6 v=78
266870 On ch=1 n=a5 v=66
266925 On ch=1 n=a5 v=0
266925 On ch=1 n=f#6 v=0
266930 On ch=1 n=a6 v=0
266940 On ch=1 n=f#7 v=0
266950 On ch=1 n=d#7 v=0
266955 On ch=1 n=d#8 v=0
267105 On ch=1 n=e6 v=80
267105 On ch=1 n=c#8 v=92
267115 On ch=1 n=c#7 v=85
267115 On ch=1 n=g6 v=74
267120 On ch=1 n=e7 v=82
267125 On ch=1 n=g5 v=59
267145 On ch=1 n=g6 v=0
267150 On ch=1 n=e7 v=0
267155 On ch=1 n=g5 v=0
267155 On ch=1 n=c#7 v=0
267155 On ch=1 n=c#8 v=0
267175 On ch=1 n=e6 v=0
267200 On ch=1 n=c#8 v=75
267210 On ch=1 n=c#7 v=84
267220 On ch=1 n=e7 v=68
267220 On ch=1 n=g5 v=67
267225 On ch=1 n=g6 v=68
267235 On ch=1 n=e6 v=82
267275 On ch=1 n=e6 v=0
267285 On ch=1 n=g6 v=0
267285 On ch=1 n=g5 v=0
267290 On ch=1 n=e7 v=0
267305 On ch=1 n=c#8 v=0
267320 On ch=1 n=c#7 v=0
267460 On ch=1 n=a#7 v=81
267465 On ch=1 n=c#6 v=84
267465 On ch=1 n=a#6 v=88
267465 On ch=1 n=e6 v=82
267475 On ch=1 n=e5 v=76
267475 On ch=1 n=c#7 v=72
267495 On ch=1 n=e6 v=0
267505 On ch=1 n=c#7 v=0
267505 On ch=1 n=e5 v=0
267505 On ch=1 n=a#6 v=0
267505 On ch=1 n=c#6 v=0
267505 On ch=1 n=a#7 v=0
267560 On ch=1 n=a#7 v=85
267560 On ch=1 n=a#6 v=86
267565 On ch=1 n=c#7 v=63
267580 On ch=1 n=c#6 v=62
267580 On ch=1 n=e6 v=72
267580 On ch=1 n=e5 v=60
267620 On ch=1 n=e5 v=0
267625 On ch=1 n=c#7 v=0
267655 On ch=1 n=e6 v=0
267655 On ch=1 n=c#6 v=0
267665 On ch=1 n=a#7 v=0
267670 On ch=1 n=a#6 v=0
267815 On ch=1 n=a7 v=99
267815 On ch=1 n=a6 v=90
267820 On ch=1 n=c7 v=85
267825 On ch=1 n=d#6 v=76
267825 On ch=1 n=d#5 v=72
267825 On ch=1 n=c6 v=82
267850 On ch=1 n=c7 v=0
267855 Par ch=1 c=64 v=72
267860 On ch=1 n=a7 v=0
267870 On ch=1 n=a6 v=0
267875 On ch=1 n=c6 v=0
267875 On ch=1 n=d#6 v=0
267875 Par ch=1 c=64 v=56
267885 On ch=1 n=d#5 v=0
267890 Par ch=1 c=64 v=88
267910 On ch=1 n=a7 v=103
267910 On ch=1 n=a6 v=99
267910 Par ch=1 c=64 v=127
267915 On ch=1 n=c7 v=58
267940 On ch=1 n=d#6 v=50
267945 On ch=1 n=d#5 v=62
267950 On ch=1 n=c6 v=75
267970 On ch=1 n=c7 v=0
267975 On ch=1 n=c6 v=0
267995 On ch=1 n=a6 v=0
267995 On ch=1 n=a7 v=0
268005 On ch=1 n=d#5 v=0
268005 On ch=1 n=d#6 v=0
268150 On ch=1 n=c#6 v=73
268155 On ch=1 n=g7 v=92
268155 On ch=1 n=g6 v=87
268155 On ch=1 n=a#6 v=77
268155 On ch=1 n=c#5 v=67
268160 Par ch=1 c=64 v=88
268165 On ch=1 n=a#5 v=51
268185 On ch=1 n=g7 v=0
268190 On ch=1 n=c#5 v=0
268190 On ch=1 n=a#6 v=0
268190 On ch=1 n=g6 v=0
268195 On ch=1 n=a#5 v=0
268195 On ch=1 n=c#6 v=0
268210 Par ch=1 c=64 v=127
268255 On ch=1 n=g7 v=84
268255 On ch=1 n=g6 v=90
268260 On ch=1 n=a#6 v=77
268260 On ch=1 n=c#6 v=74
268265 On ch=1 n=c#5 v=65
268270 On ch=1 n=a#5 v=44
268305 On ch=1 n=a#5 v=0
268325 On ch=1 n=c#5 v=0
268325 On ch=1 n=c#6 v=0
268325 On ch=1 n=a#6 v=0
268330 On ch=1 n=g7 v=0
268340 On ch=1 n=g6 v=0
268485 On ch=1 n=e6 v=96
268485 On ch=1 n=e7 v=94
268490 On ch=1 n=a#5 v=71
268490 On ch=1 n=g6 v=87
268490 On ch=1 n=g5 v=65
268500 On ch=1 n=a#4 v=48
268500 Par ch=1 c=64 v=88
268520 On ch=1 n=g6 v=0
268520 Par ch=1 c=64 v=72
268525 On ch=1 n=g5 v=0
268530 On ch=1 n=e6 v=0
268535 On ch=1 n=e7 v=0
268535 Par ch=1 c=64 v=88
268545 On ch=1 n=a#5 v=0
268550 On ch=1 n=a#4 v=0
268555 Par ch=1 c=64 v=127
268585 On ch=1 n=e6 v=99
268590 On ch=1 n=e7 v=103
268590 On ch=1 n=a#4 v=47
268595 On ch=1 n=g6 v=63
268600 On ch=1 n=a#5 v=59
268605 On ch=1 n=g5 v=62
268640 On ch=1 n=g5 v=0
268645 On ch=1 n=g6 v=0
268660 On ch=1 n=a#5 v=0
268665 On ch=1 n=e7 v=0
268670 On ch=1 n=a#4 v=0
268670 On ch=1 n=e6 v=0
268805 Par ch=1 c=64 v=104
268810 On ch=1 n=f#5 v=73
268820 On ch=1 n=a5 v=71
268820 On ch=1 n=d#7 v=83
268820 On ch=1 n=d#6 v=85
268825 On ch=1 n=a4 v=65
268825 Par ch=1 c=64 v=72
268830 On ch=1 n=f#6 v=67
268845 On ch=1 n=a5 v=0
268845 On ch=1 n=f#5 v=0
268855 On ch=1 n=d#6 v=0
268855 On ch=1 n=d#7 v=0
268860 On ch=1 n=a4 v=0
268865 On ch=1 n=f#6 v=0
268880 Par ch=1 c=64 v=127
268895 On ch=1 n=d#7 v=94
268905 On ch=1 n=d#6 v=84
268905 On ch=1 n=f#6 v=74
268920 On ch=1 n=a4 v=71
268920 On ch=1 n=f#5 v=71
268920 On ch=1 n=a5 v=70
268990 On ch=1 n=a5 v=0
268990 On ch=1 n=a4 v=0
268995 On ch=1 n=f#5 v=0
268995 On ch=1 n=f#6 v=0
268995 On ch=1 n=d#6 v=0
269010 On ch=1 n=d#7 v=0
269120 On ch=1 n=c#6 v=79
269125 On ch=1 n=c#7 v=85
269125 On ch=1 n=e5 v=76
269130 On ch=1 n=e6 v=77
269130 On ch=1 n=g5 v=74
269140 On ch=1 n=g4 v=69
269145 Par ch=1 c=64 v=72
269165 On ch=1 n=e6 v=0
269165 Par ch=1 c=64 v=40
269170 On ch=1 n=g5 v=0
269175 On ch=1 n=g4 v=0
269175 On ch=1 n=c#7 v=0
269175 On ch=1 n=c#6 v=0
269180 Par ch=1 c=64 v=72
269190 On ch=1 n=e5 v=0
269200 Par ch=1 c=64 v=127
269210 On ch=1 n=c#7 v=86
269220 On ch=1 n=c#6 v=86
269230 On ch=1 n=e6 v=81
269235 On ch=1 n=g4 v=64
269240 On ch=1 n=g5 v=66
269250 On ch=1 n=e5 v=67
269285 On ch=1 n=e5 v=0
269295 On ch=1 n=g5 v=0
269295 On ch=1 n=e6 v=0
269300 On ch=1 n=c#6 v=0
269305 On ch=1 n=g4 v=0
269310 On ch=1 n=c#7 v=0
269435 Par ch=1 c=64 v=88
269440 On ch=1 n=a#6 v=83
269445 On ch=1 n=a#5 v=86
269450 On ch=1 n=c#5 v=72
269450 On ch=1 n=e5 v=72
269450 Par ch=1 c=64 v=56
269450 On ch=1 n=c#6 v=71
269475 On ch=1 n=c#6 v=0
269480 On ch=1 n=e5 v=0
269480 On ch=1 n=c#5 v=0
269485 Par ch=1 c=64 v=104
269490 On ch=1 n=a#5 v=0
269505 On ch=1 n=a#6 v=0
269505 Par ch=1 c=64 v=127
269540 On ch=1 n=a#6 v=89
269545 On ch=1 n=a#5 v=84
269545 On ch=1 n=c#6 v=40
269550 On ch=1 n=e5 v=72
269555 On ch=1 n=c#5 v=67
269575 On ch=1 n=e4 v=60
269605 On ch=1 n=e4 v=0
269615 On ch=1 n=c#6 v=0
269620 On ch=1 n=c#5 v=0
269620 On ch=1 n=a#5 v=0
269630 On ch=1 n=e5 v=0
269650 On ch=1 n=a#6 v=0
269735 Par ch=1 c=64 v=88
269750 On ch=1 n=a6 v=89
269750 On ch=1 n=a5 v=85
269755 Par ch=1 c=64 v=24
269760 On ch=1 n=c6 v=84
269760 On ch=1 n=d#5 v=57
269765 On ch=1 n=d#4 v=62
269790 On ch=1 n=d#5 v=0
269790 On ch=1 n=c6 v=0
269795 On ch=1 n=d#4 v=0
269795 On ch=1 n=a5 v=0
269800 On ch=1 n=a6 v=0
269810 Par ch=1 c=64 v=88
269825 Par ch=1 c=64 v=127
269855 On ch=1 n=a5 v=92
269855 On ch=1 n=a6 v=100
269860 On ch=1 n=d#4 v=68
269865 On ch=1 n=c6 v=80
269865 On ch=1 n=d#5 v=65
269885 On ch=1 n=c5 v=79
269915 On ch=1 n=c5 v=0
269925 On ch=1 n=c6 v=0
269925 On ch=1 n=d#4 v=0
269930 On ch=1 n=d#5 v=0
269935 On ch=1 n=a5 v=0
269945 On ch=1 n=a6 v=0
270025 Par ch=1 c=64 v=72
270045 Par ch=1 c=64 v=0
270060 On ch=1 n=c#5 v=77
270070 On ch=1 n=a#4 v=72
270070 On ch=1 n=a#5 v=83
270070 On ch=1 n=c#4 v=68
270075 On ch=1 n=g6 v=87
270075 On ch=1 n=g5 v=81
270095 On ch=1 n=a#4 v=0
270095 Par ch=1 c=64 v=88
270105 On ch=1 n=g5 v=0
270105 On ch=1 n=g6 v=0
270105 On ch=1 n=c#4 v=0
270105 On ch=1 n=c#5 v=0
270115 Par ch=1 c=64 v=127
270120 On ch=1 n=a#5 v=0
270155 On ch=1 n=g6 v=87
270160 On ch=1 n=g5 v=71
270165 On ch=1 n=a#5 v=91
270170 On ch=1 n=c#4 v=64
270170 On ch=1 n=c#5 v=76
270175 On ch=1 n=a#4 v=72
270240 On ch=1 n=a#4 v=0
270240 On ch=1 n=c#5 v=0
270245 On ch=1 n=c#4 v=0
270245 On ch=1 n=a#5 v=0
270250 On ch=1 n=g5 v=0
270250 On ch=1 n=g6 v=0
270365 On ch=1 n=a#4 v=75
270385 On ch=1 n=e5 v=82
270385 On ch=1 n=e6 v=90
270385 On ch=1 n=a#3 v=57
270385 On ch=1 n=g4 v=60
270385 Par ch=1 c=64 v=104
270390 On ch=1 n=g5 v=71
270405 Par ch=1 c=64 v=24
270415 On ch=1 n=a#3 v=0
270415 On ch=1 n=e6 v=0
270415 On ch=1 n=e5 v=0
270420 On ch=1 n=g5 v=0
270420 Par ch=1 c=64 v=0
270430 On ch=1 n=a#4 v=0
270435 On ch=1 n=g4 v=0
270440 Par ch=1 c=64 v=40
270455 Par ch=1 c=64 v=88
270475 On ch=1 n=e6 v=94
270475 On ch=1 n=e5 v=88
270475 Par ch=1 c=64 v=127
270480 On ch=1 n=g5 v=72
270490 On ch=1 n=a#4 v=72
270495 On ch=1 n=a#3 v=68
270540 On ch=1 n=g4 v=68
270565 On ch=1 n=g5 v=0
270570 On ch=1 n=g4 v=0
270570 On ch=1 n=a#4 v=0
270575 On ch=1 n=e5 v=0
270580 On ch=1 n=e6 v=0
270585 On ch=1 n=a#3 v=0
270700 On ch=1 n=f#4 v=82
270700 On ch=1 n=d#6 v=92
270700 On ch=1 n=d#5 v=90
270705 On ch=1 n=a4 v=71
270710 On ch=1 n=f#5 v=73
270715 On ch=1 n=a3 v=68
270725 Par ch=1 c=64 v=56
270735 On ch=1 n=f#5 v=0
270735 On ch=1 n=a4 v=0
270740 Par ch=1 c=64 v=0
270745 On ch=1 n=a3 v=0
270750 On ch=1 n=d#5 v=0
270750 On ch=1 n=f#4 v=0
270760 On ch=1 n=d#6 v=0
270780 Par ch=1 c=64 v=56
270795 On ch=1 n=d#6 v=100
270795 On ch=1 n=d#5 v=91
270795 Par ch=1 c=64 v=127
270805 On ch=1 n=f#5 v=14
270810 On ch=1 n=a3 v=73
270810 On ch=1 n=f#4 v=63
270815 On ch=1 n=a4 v=71
270875 On ch=1 n=a3 v=0
270900 On ch=1 n=a4 v=0
270905 On ch=1 n=f#5 v=0
270905 On ch=1 n=d#5 v=0
270910 On ch=1 n=f#4 v=0
270910 On ch=1 n=d#6 v=0
271030 On ch=1 n=c#6 v=86
271030 On ch=1 n=c#5 v=77
271030 On ch=1 n=e4 v=79
271035 On ch=1 n=e5 v=79
271040 On ch=1 n=g4 v=75
271050 On ch=1 n=g3 v=68
271065 On ch=1 n=e5 v=0
271065 Par ch=1 c=64 v=88
271075 On ch=1 n=g4 v=0
271075 On ch=1 n=c#5 v=0
271080 On ch=1 n=g3 v=0
271080 On ch=1 n=c#6 v=0
271085 Par ch=1 c=64 v=0
271095 On ch=1 n=e4 v=0
271115 On ch=1 n=c#5 v=91
271115 On ch=1 n=c#6 v=91
271125 On ch=1 n=e5 v=70
271140 On ch=1 n=g3 v=80
271140 Par ch=1 c=64 v=40
271145 On ch=1 n=g4 v=68
271150 On ch=1 n=e4 v=87
271155 Par ch=1 c=64 v=127
271215 On ch=1 n=g4 v=0
271220 On ch=1 n=e4 v=0
271225 On ch=1 n=g3 v=0
271225 On ch=1 n=e5 v=0
271230 On ch=1 n=c#5 v=0
271245 On ch=1 n=c#6 v=0
272400 On ch=1 n=g3 v=67
272400 On ch=1 n=e5 v=88
272405 On ch=1 n=a#4 v=67
272405 On ch=1 n=c#3 v=47
272405 Par ch=1 c=64 v=72
272410 On ch=1 n=e4 v=73
272410 On ch=1 n=e3 v=58
272410 On ch=1 n=g2 v=62
272420 Par ch=1 c=64 v=104
272435 Par ch=1 c=64 v=127
272445 On ch=1 n=g2 v=0
272445 On ch=1 n=g3 v=0
272460 On ch=1 n=e4 v=0
272465 On ch=1 n=a#4 v=0
272475 On ch=1 n=c#3 v=0
272475 On ch=1 n=e5 v=0
272480 On ch=1 n=e3 v=0
272515 Par ch=1 c=64 v=72
272530 Par ch=1 c=64 v=0
272535 On ch=1 n=e5 v=86
272545 On ch=1 n=c#3 v=37
272545 On ch=1 n=g#4 v=84
272545 On ch=1 n=e3 v=64
272550 On ch=1 n=e4 v=80
272555 On ch=1 n=g#3 v=73
272555 On ch=1 n=g#2 v=69
272605 On ch=1 n=g#3 v=0
272610 On ch=1 n=g#2 v=0
272615 On ch=1 n=e4 v=0
272615 On ch=1 n=e3 v=0
272615 On ch=1 n=c#3 v=0
272625 On ch=1 n=g#4 v=0
272625 Par ch=1 c=64 v=72
272645 Par ch=1 c=64 v=127
272650 On ch=1 n=e5 v=0
273025 On ch=1 n=d#5 v=84
273030 On ch=1 n=d#4 v=79
273030 On ch=1 n=g#3 v=65
273035 On ch=1 n=g#4 v=65
273035 On ch=1 n=e3 v=60
273035 On ch=1 n=c#3 v=52
273035 On ch=1 n=g#2 v=61
273060 On ch=1 n=g#4 v=0
273070 On ch=1 n=e3 v=0
273075 On ch=1 n=c#3 v=0
273080 On ch=1 n=g#2 v=0
273080 On ch=1 n=d#4 v=0
273080 On ch=1 n=d#5 v=0
273085 On ch=1 n=g#3 v=0
273110 Par ch=1 c=64 v=72
273125 Par ch=1 c=64 v=0
273140 On ch=1 n=d#5 v=87
273150 On ch=1 n=d#4 v=81
273155 On ch=1 n=g#4 v=78
273165 On ch=1 n=g#3 v=63
273165 On ch=1 n=g#2 v=60
273170 On ch=1 n=e3 v=63
273175 On ch=1 n=c#3 v=55
273195 On ch=1 n=d#4 v=0
273200 On ch=1 n=e3 v=0
273205 On ch=1 n=c#3 v=0
273205 On ch=1 n=g#2 v=0
273210 On ch=1 n=g#3 v=0
273215 On ch=1 n=g#4 v=0
273225 Par ch=1 c=64 v=72
273240 Par ch=1 c=64 v=127
273260 On ch=1 n=d#5 v=0
273575 On ch=1 n=c#5 v=89
273580 On ch=1 n=c#4 v=78
273590 On ch=1 n=e3 v=64
273595 On ch=1 n=g#3 v=55
273595 On ch=1 n=g#2 v=49
273605 On ch=1 n=c#4 v=0
273605 On ch=1 n=g#4 v=51
273625 On ch=1 n=e3 v=0
273630 On ch=1 n=g#4 v=0
273640 On ch=1 n=g#3 v=0
273645 On ch=1 n=c#5 v=0
273660 On ch=1 n=g#2 v=0
273725 Par ch=1 c=64 v=72
273740 On ch=1 n=g#5 v=96
273740 Par ch=1 c=64 v=0
273750 On ch=1 n=f#3 v=77
273750 On ch=1 n=g#4 v=74
273755 On ch=1 n=c5 v=75
273755 On ch=1 n=g#2 v=64
273755 On ch=1 n=g#3 v=60
273765 On ch=1 n=d#3 v=51
273790 On ch=1 n=c5 v=0
273850 Par ch=1 c=64 v=88
273870 Par ch=1 c=64 v=127
273875 On ch=1 n=g#3 v=0
273885 On ch=1 n=d#3 v=0
273885 On ch=1 n=g#2 v=0
273890 On ch=1 n=f#3 v=0
273950 On ch=1 n=g#4 v=0
273960 On ch=1 n=g#5 v=0
274370 Par ch=1 c=64 v=88
274380 On ch=1 n=c5 v=79
274385 Par ch=1 c=64 v=24
274395 On ch=1 n=c4 v=77
274400 On ch=1 n=d#3 v=53
274400 On ch=1 n=g#4 v=57
274405 On ch=1 n=g#2 v=54
274405 Par ch=1 c=64 v=0
274410 On ch=1 n=g#3 v=50
274410 On ch=1 n=f#3 v=50
274430 On ch=1 n=c4 v=0
274445 Par ch=1 c=64 v=40
274465 On ch=1 n=g#4 v=0
274465 Par ch=1 c=64 v=104
274485 On ch=1 n=f#3 v=0
274485 On ch=1 n=g#3 v=0
274485 On ch=1 n=g#2 v=0
274485 Par ch=1 c=64 v=127
274490 On ch=1 n=d#3 v=0
274500 On ch=1 n=c5 v=0
274855 Par ch=1 c=64 v=56
274865 On ch=1 n=g#3 v=53
274870 Par ch=1 c=64 v=0
274885 On ch=1 n=e4 v=60
274925 On ch=1 n=e4 v=0
274925 On ch=1 n=g#3 v=0
274950 On ch=1 n=g#4 v=63
274980 Par ch=1 c=64 v=72
274990 On ch=1 n=e6 v=97
275000 Par ch=1 c=64 v=127
275005 On ch=1 n=e5 v=72
275005 On ch=1 n=g#5 v=61
275060 On ch=1 n=g#4 v=0
275060 On ch=1 n=c#5 v=57
275095 On ch=1 n=c#5 v=0
275110 On ch=1 n=e5 v=0
275130 On ch=1 n=e6 v=0
275315 On ch=1 n=d#6 v=85
275345 On ch=1 n=g#5 v=0
275360 On ch=1 n=d#6 v=0
275445 On ch=1 n=e4 v=56
275445 On ch=1 n=d#6 v=75
275450 On ch=1 n=g#3 v=38
275450 Par ch=1 c=64 v=72
275470 Par ch=1 c=64 v=0
275480 On ch=1 n=g#3 v=0
275485 On ch=1 n=e4 v=0
275495 On ch=1 n=d#6 v=0
275495 On ch=1 n=e6 v=78
275500 On ch=1 n=g#4 v=59
275530 Par ch=1 c=64 v=24
275545 On ch=1 n=e6 v=0
275545 Par ch=1 c=64 v=72
275560 Par ch=1 c=64 v=127
275570 On ch=1 n=d#6 v=83
275595 On ch=1 n=g#5 v=46
275595 On ch=1 n=e5 v=58
275610 On ch=1 n=g#4 v=0
275610 On ch=1 n=c#5 v=58
275620 On ch=1 n=g#5 v=0
275625 On ch=1 n=e5 v=0
275640 On ch=1 n=c#5 v=0
275675 On ch=1 n=d#6 v=0
275855 On ch=1 n=c#6 v=81
275950 On ch=1 n=c#6 v=0
276000 On ch=1 n=g#3 v=47
276000 Par ch=1 c=64 v=72
276015 Par ch=1 c=64 v=0
276065 On ch=1 n=g#3 v=0
276065 On ch=1 n=d#4 v=56
276110 On ch=1 n=g#4 v=62
276110 Par ch=1 c=64 v=88
276125 On ch=1 n=f#5 v=51
276130 Par ch=1 c=64 v=127
276160 On ch=1 n=d#4 v=0
276165 On ch=1 n=c6 v=68
276205 On ch=1 n=c5 v=49
276210 On ch=1 n=g#4 v=0
276215 On ch=1 n=f#5 v=0
276230 On ch=1 n=g#6 v=85
276235 On ch=1 n=c5 v=0
276250 On ch=1 n=c6 v=0
276305 On ch=1 n=g#6 v=0
276870 On ch=1 n=c6 v=74
276935 On ch=1 n=c6 v=0
277240 Par ch=1 c=64 v=88
277250 On ch=1 n=g#4 v=31
277255 Par ch=1 c=64 v=0
277285 On ch=1 n=e5 v=51
277290 On ch=1 n=g#4 v=0
277320 On ch=1 n=e5 v=0
277325 On ch=1 n=g#5 v=56
277355 Par ch=1 c=64 v=56
277370 Par ch=1 c=64 v=127
277435 On ch=1 n=e7 v=92
277445 On ch=1 n=g#5 v=0
277450 On ch=1 n=e6 v=71
277450 On ch=1 n=g#6 v=64
277470 On ch=1 n=c#6 v=71
277510 On ch=1 n=c#6 v=0
277525 On ch=1 n=g#6 v=0
277535 On ch=1 n=e6 v=0
277560 On ch=1 n=e7 v=0
277715 On ch=1 n=d#7 v=78
277800 On ch=1 n=c#7 v=71
277805 On ch=1 n=d#7 v=0
277850 On ch=1 n=c#7 v=0
277850 On ch=1 n=g#4 v=43
277860 On ch=1 n=d#7 v=74
277865 On ch=1 n=e5 v=41
277905 On ch=1 n=e5 v=0
277905 On ch=1 n=g#4 v=0
277910 On ch=1 n=d#7 v=0
277930 On ch=1 n=e7 v=76
277940 On ch=1 n=g#5 v=43
277980 On ch=1 n=e7 v=0
278005 On ch=1 n=d#7 v=81
278020 On ch=1 n=e6 v=59
278025 On ch=1 n=g#6 v=44
278040 On ch=1 n=g#5 v=0
278040 On ch=1 n=c#6 v=60
278050 On ch=1 n=e6 v=0
278055 On ch=1 n=g#6 v=0
278065 On ch=1 n=c#6 v=0
278090 On ch=1 n=d#7 v=0
278320 On ch=1 n=c#7 v=71
278405 Par ch=1 c=64 v=56
278410 On ch=1 n=g#4 v=50
278420 Par ch=1 c=64 v=0
278445 On ch=1 n=c#7 v=0
278475 On ch=1 n=f#5 v=56
278495 On ch=1 n=g#4 v=0
278520 Par ch=1 c=64 v=72
278535 Par ch=1 c=64 v=127
278575 On ch=1 n=d#7 v=77
278590 On ch=1 n=g#6 v=57
278590 On ch=1 n=d#6 v=50
278600 On ch=1 n=f#5 v=0
278600 On ch=1 n=c6 v=47
278630 On ch=1 n=d#6 v=0
278635 On ch=1 n=c6 v=0
278645 On ch=1 n=g#6 v=0
278685 On ch=1 n=d#7 v=0
278975 On ch=1 n=g#6 v=69
279025 On ch=1 n=g#4 v=37
279055 On ch=1 n=g#6 v=0
279060 On ch=1 n=f#5 v=58
279085 On ch=1 n=g#4 v=0
279130 On ch=1 n=g#7 v=82
279155 On ch=1 n=c6 v=64
279160 On ch=1 n=f#5 v=0
279185 On ch=1 n=c6 v=0
279480 On ch=1 n=g#7 v=0
279535 On ch=1 n=g#6 v=65
279550 Par ch=1 c=64 v=88
279565 Par ch=1 c=64 v=24
279570 On ch=1 n=g#4 v=48
279580 On ch=1 n=e5 v=44
279585 Par ch=1 c=64 v=0
279620 On ch=1 n=g#6 v=0
279630 On ch=1 n=e5 v=0
279635 On ch=1 n=g#4 v=0
279645 Par ch=1 c=64 v=72
279650 On ch=1 n=g#5 v=49
279665 Par ch=1 c=64 v=127
279730 On ch=1 n=e7 v=82
279740 On ch=1 n=g#5 v=0
279745 On ch=1 n=e6 v=52
279755 On ch=1 n=g#6 v=38
279765 On ch=1 n=c#6 v=62
279800 On ch=1 n=g#6 v=0
279805 On ch=1 n=c#6 v=0
279805 On ch=1 n=e6 v=0
279825 On ch=1 n=e7 v=0
280035 On ch=1 n=d#7 v=73
280115 On ch=1 n=d#7 v=0
280120 On ch=1 n=c#7 v=63
280170 On ch=1 n=c#7 v=0
280170 On ch=1 n=d#7 v=65
280200 On ch=1 n=g#4 v=53
280210 Par ch=1 c=64 v=104
280220 On ch=1 n=d#7 v=0
280220 On ch=1 n=e5 v=44
280225 Par ch=1 c=64 v=40
280230 On ch=1 n=e7 v=66
280245 Par ch=1 c=64 v=0
280250 On ch=1 n=g#4 v=0
280255 On ch=1 n=e5 v=0
280270 On ch=1 n=g#5 v=60
280280 On ch=1 n=e7 v=0
280285 On ch=1 n=d#7 v=72
280290 Par ch=1 c=64 v=40
280305 Par ch=1 c=64 v=88
280315 On ch=1 n=e6 v=44
280325 Par ch=1 c=64 v=127
280355 On ch=1 n=e6 v=0
280385 On ch=1 n=g#5 v=0
280385 On ch=1 n=c#6 v=52
280415 On ch=1 n=c#6 v=0
280440 On ch=1 n=d#7 v=0
280585 On ch=1 n=c#7 v=67
280705 On ch=1 n=g#4 v=55
280710 Par ch=1 c=64 v=104
280725 Par ch=1 c=64 v=40
280730 On ch=1 n=c#7 v=0
280745 Par ch=1 c=64 v=0
280750 On ch=1 n=f#5 v=57
280775 On ch=1 n=g#4 v=0
280810 Par ch=1 c=64 v=56
280825 Par ch=1 c=64 v=127
280850 On ch=1 n=f#5 v=0
280855 On ch=1 n=d#7 v=75
280855 On ch=1 n=c6 v=57
280865 On ch=1 n=d#6 v=52
280870 On ch=1 n=g#6 v=58
280900 On ch=1 n=d#6 v=0
280900 On ch=1 n=c6 v=0
280920 On ch=1 n=g#6 v=0
280975 On ch=1 n=d#7 v=0
281275 On ch=1 n=g#6 v=58
281375 On ch=1 n=g#6 v=0
281390 On ch=1 n=g#7 v=72
281460 On ch=1 n=g#7 v=0
281795 On ch=1 n=g#6 v=59
281895 On ch=1 n=g#6 v=0
281955 On ch=1 n=d#7 v=56
282065 On ch=1 n=d#7 v=0
282115 On ch=1 n=g#6 v=52
282225 On ch=1 n=g#6 v=0
282250 On ch=1 n=g#7 v=60
282360 On ch=1 n=g#7 v=0
282360 On ch=1 n=g#6 v=47
282450 On ch=1 n=g#6 v=0
282480 On ch=1 n=d#7 v=52
282560 On ch=1 n=d#7 v=0
282590 On ch=1 n=g#6 v=50
282690 On ch=1 n=g#6 v=0
282710 On ch=1 n=g#7 v=65
282815 On ch=1 n=g#6 v=51
282825 On ch=1 n=g#7 v=0
282910 On ch=1 n=g#6 v=0
282930 On ch=1 n=d#7 v=43
283015 On ch=1 n=d#7 v=0
283015 On ch=1 n=g#6 v=39
283110 On ch=1 n=g#6 v=0
283125 On ch=1 n=g#7 v=59
283220 On ch=1 n=g#7 v=0
283220 On ch=1 n=g#6 v=44
283320 On ch=1 n=g#6 v=0
283345 On ch=1 n=d#7 v=54
283430 On ch=1 n=g#6 v=44
283440 On ch=1 n=d#7 v=0
283515 On ch=1 n=g#6 v=0
283525 On ch=1 n=g#7 v=59
283620 On ch=1 n=g#6 v=50
283630 On ch=1 n=g#7 v=0
283710 On ch=1 n=g#6 v=0
283720 On ch=1 n=d#7 v=51
283815 On ch=1 n=d#7 v=0
283820 On ch=1 n=g#6 v=49
283905 On ch=1 n=g#6 v=0
283915 On ch=1 n=g#7 v=61
284005 On ch=1 n=g#7 v=0
284010 On ch=1 n=g#6 v=51
284095 On ch=1 n=g#6 v=0
284110 On ch=1 n=d#7 v=46
284195 On ch=1 n=d#7 v=0
284205 On ch=1 n=g#6 v=48
284285 On ch=1 n=g#6 v=0
284295 On ch=1 n=g#7 v=65
284395 On ch=1 n=g#7 v=0
284395 On ch=1 n=g#6 v=46
284470 Par ch=1 c=64 v=88
284485 Par ch=1 c=64 v=40
284490 On ch=1 n=g#6 v=0
284500 On ch=1 n=d#7 v=54
284535 Par ch=1 c=64 v=127
284580 On ch=1 n=d#7 v=0
284580 On ch=1 n=g#6 v=60
284660 On ch=1 n=g#6 v=0
284665 On ch=1 n=g#7 v=60
284760 On ch=1 n=g#7 v=0
284760 On ch=1 n=g#6 v=55
284835 On ch=1 n=g#6 v=0
284845 On ch=1 n=d#7 v=55
284925 On ch=1 n=d#7 v=0
284935 On ch=1 n=g#6 v=58
285005 On ch=1 n=g#6 v=0
285015 On ch=1 n=g#7 v=68
285105 On ch=1 n=g#6 v=54
285115 On ch=1 n=g#7 v=0
285175 On ch=1 n=g#6 v=0
285185 On ch=1 n=d#7 v=59
285255 On ch=1 n=d#7 v=0
285275 On ch=1 n=g#6 v=64
285345 On ch=1 n=g#6 v=0
285355 On ch=1 n=g#7 v=64
285445 On ch=1 n=g#6 v=60
285455 On ch=1 n=g#7 v=0
285510 On ch=1 n=g#6 v=0
285510 On ch=1 n=d#7 v=56
285595 On ch=1 n=d#7 v=0
285605 On ch=1 n=g#6 v=64
285680 On ch=1 n=g#6 v=0
285690 On ch=1 n=g#7 v=72
285780 On ch=1 n=g#6 v=61
285800 On ch=1 n=g#7 v=0
285855 On ch=1 n=g#6 v=0
285865 On ch=1 n=d#7 v=55
285940 On ch=1 n=d#7 v=0
285955 On ch=1 n=g#6 v=65
286030 On ch=1 n=g#6 v=0
286035 On ch=1 n=g#7 v=72
286125 On ch=1 n=g#7 v=0
286125 On ch=1 n=g#6 v=57
286200 On ch=1 n=g#6 v=0
286215 On ch=1 n=d#7 v=57
286290 On ch=1 n=d#7 v=0
286300 On ch=1 n=g#6 v=65
286385 On ch=1 n=g#6 v=0
286395 On ch=1 n=g#7 v=70
286485 On ch=1 n=g#7 v=0
286485 On ch=1 n=g#6 v=58
286560 On ch=1 n=g#6 v=0
286570 On ch=1 n=d#7 v=56
286645 On ch=1 n=d#7 v=0
286660 On ch=1 n=g#6 v=69
286740 On ch=1 n=g#6 v=0
286760 On ch=1 n=g#7 v=68
286840 On ch=1 n=g#6 v=62
286855 On ch=1 n=g#7 v=0
286920 On ch=1 n=g#6 v=0
286945 On ch=1 n=d#7 v=55
287020 On ch=1 n=d#7 v=0
287035 On ch=1 n=g#6 v=63
287070 On ch=1 n=g#6 v=0
287125 On ch=1 n=g#7 v=70
287215 On ch=1 n=g#6 v=60
287290 On ch=1 n=g#6 v=0
287325 On ch=1 n=g#7 v=0
287565 Par ch=1 c=64 v=56
287580 Par ch=1 c=64 v=127
287680 On ch=1 n=g7 v=56
287790 On ch=1 n=g7 v=0
287795 On ch=1 n=g#7 v=57
287910 On ch=1 n=a#7 v=57
287920 On ch=1 n=g#7 v=0
288010 On ch=1 n=a#7 v=0
288035 On ch=1 n=g#7 v=65
288125 On ch=1 n=g#7 v=0
288135 On ch=1 n=a#7 v=51
288215 On ch=1 n=a#7 v=0
288225 On ch=1 n=g#7 v=57
288295 On ch=1 n=g#7 v=0
288315 On ch=1 n=a#7 v=55
288380 On ch=1 n=a#7 v=0
288385 On ch=1 n=g#7 v=49
288460 On ch=1 n=g#7 v=0
288465 On ch=1 n=a#7 v=48
288535 On ch=1 n=a#7 v=0
288540 On ch=1 n=g#7 v=48
288605 On ch=1 n=g#7 v=0
288615 On ch=1 n=a#7 v=44
288695 On ch=1 n=a#7 v=0
288695 On ch=1 n=g#7 v=46
288765 On ch=1 n=g#7 v=0
288770 On ch=1 n=a#7 v=43
288850 On ch=1 n=a#7 v=0
288855 On ch=1 n=g#7 v=46
288920 On ch=1 n=a#7 v=38
288925 On ch=1 n=g#7 v=0
289000 On ch=1 n=a#7 v=0
289000 On ch=1 n=g#7 v=45
289075 On ch=1 n=g#7 v=0
289075 On ch=1 n=a#7 v=44
289150 On ch=1 n=a#7 v=0
289155 On ch=1 n=g#7 v=43
289220 On ch=1 n=g#7 v=0
289225 On ch=1 n=a#7 v=39
289300 On ch=1 n=a#7 v=0
289310 On ch=1 n=g#7 v=36
289370 On ch=1 n=a#7 v=36
289375 On ch=1 n=g#7 v=0
289450 On ch=1 n=a#7 v=0
289460 On ch=1 n=g#7 v=47
289515 On ch=1 n=a#7 v=37
289530 On ch=1 n=g#7 v=0
289600 On ch=1 n=g#7 v=45
289605 On ch=1 n=a#7 v=0
289670 On ch=1 n=a#7 v=39
289675 On ch=1 n=g#7 v=0
289760 On ch=1 n=a#7 v=0
289770 On ch=1 n=g#7 v=55
289825 On ch=1 n=g#7 v=0
289825 On ch=1 n=a#7 v=43
289905 On ch=1 n=a#7 v=0
289910 On ch=1 n=g#7 v=44
289980 On ch=1 n=g#7 v=0
289980 On ch=1 n=a#7 v=38
290055 On ch=1 n=a#7 v=0
290065 On ch=1 n=g#7 v=35
290125 On ch=1 n=a#7 v=34
290130 On ch=1 n=g#7 v=0
290200 On ch=1 n=a#7 v=0
290210 On ch=1 n=g#7 v=40
290280 On ch=1 n=g#7 v=0
290280 On ch=1 n=a#7 v=42
290350 On ch=1 n=a#7 v=0
290360 On ch=1 n=g#7 v=40
290425 On ch=1 n=g#7 v=0
290430 On ch=1 n=a#7 v=39
290495 On ch=1 n=a#7 v=0
290505 On ch=1 n=g#7 v=43
290575 On ch=1 n=g#7 v=0
290575 On ch=1 n=a#7 v=39
290645 On ch=1 n=a#7 v=0
290655 On ch=1 n=g#7 v=44
290735 On ch=1 n=g#7 v=0
290740 On ch=1 n=a#7 v=43
290810 On ch=1 n=a#7 v=0
290810 On ch=1 n=g#5 v=54
290815 On ch=1 n=g#7 v=40
290890 On ch=1 n=g#7 v=0
290890 On ch=1 n=a#7 v=48
290950 On ch=1 n=g#5 v=0
290975 On ch=1 n=a#7 v=0
290975 On ch=1 n=g#7 v=35
291055 On ch=1 n=g#7 v=0
291060 On ch=1 n=a#7 v=43
291140 On ch=1 n=a#7 v=0
291140 On ch=1 n=c#5 v=37
291145 On ch=1 n=g#7 v=47
291200 Par ch=1 c=64 v=56
291215 On ch=1 n=g#5 v=48
291215 Par ch=1 c=64 v=24
291230 On ch=1 n=c#5 v=0
291250 On ch=1 n=a#7 v=44
291260 On ch=1 n=g#7 v=0
291260 Par ch=1 c=64 v=127
291335 On ch=1 n=g#5 v=0
291340 On ch=1 n=g#7 v=45
291345 On ch=1 n=f6 v=66
291360 On ch=1 n=a#7 v=0
291390 On ch=1 n=f7 v=64
291395 On ch=1 n=g#7 v=0
291400 On ch=1 n=f6 v=0
291485 On ch=1 n=f7 v=0
291500 On ch=1 n=g#7 v=64
291585 On ch=1 n=g#7 v=0
291595 On ch=1 n=a#7 v=55
291680 On ch=1 n=a#7 v=0
291685 On ch=1 n=g#7 v=47
291760 On ch=1 n=a#7 v=45
291770 On ch=1 n=g#7 v=0
291835 On ch=1 n=g#7 v=46
291840 On ch=1 n=a#7 v=0
291930 On ch=1 n=g#7 v=0
291945 On ch=1 n=a#7 v=56
292005 On ch=1 n=g#7 v=46
292060 On ch=1 n=a#7 v=0
292095 On ch=1 n=d#7 v=63
292110 On ch=1 n=g#7 v=0
292115 On ch=1 n=a#7 v=46
292190 On ch=1 n=d#7 v=0
292215 On ch=1 n=a#7 v=0
292225 On ch=1 n=g#7 v=46
292245 On ch=1 n=g#5 v=48
292295 Par ch=1 c=64 v=56
292305 On ch=1 n=d#6 v=49
292310 Par ch=1 c=64 v=0
292325 On ch=1 n=g#7 v=0
292335 On ch=1 n=f#7 v=67
292370 On ch=1 n=f#6 v=49
292375 Par ch=1 c=64 v=72
292380 On ch=1 n=g#5 v=0
292390 Par ch=1 c=64 v=127
292415 On ch=1 n=d#6 v=0
292420 On ch=1 n=g#7 v=64
292425 On ch=1 n=f#7 v=0
292455 On ch=1 n=f#6 v=0
292500 On ch=1 n=g#7 v=0
292515 On ch=1 n=a#7 v=59
292590 On ch=1 n=a#7 v=0
292610 On ch=1 n=g#7 v=56
292670 On ch=1 n=a#7 v=50
292680 On ch=1 n=g#7 v=0
292750 On ch=1 n=a#7 v=0
292760 On ch=1 n=g#7 v=47
292870 On ch=1 n=g#7 v=0
292880 On ch=1 n=a#7 v=45
292965 On ch=1 n=g#7 v=45
293005 On ch=1 n=a#7 v=0
293030 On ch=1 n=c7 v=68
293055 On ch=1 n=g#7 v=0
293105 On ch=1 n=c7 v=0
293110 On ch=1 n=c#5 v=49
293125 Par ch=1 c=64 v=88
293140 Par ch=1 c=64 v=0
293150 On ch=1 n=g#7 v=41
293185 On ch=1 n=c#5 v=0
293185 On ch=1 n=g#5 v=44
293200 On ch=1 n=g#7 v=0
293200 Par ch=1 c=64 v=72
293220 Par ch=1 c=64 v=127
293245 On ch=1 n=d#7 v=75
293280 On ch=1 n=g#5 v=0
293285 On ch=1 n=f6 v=50
293325 On ch=1 n=g#7 v=55
293335 On ch=1 n=d#7 v=0
293350 On ch=1 n=f6 v=0
293415 On ch=1 n=g#7 v=0
293420 On ch=1 n=a#7 v=55
293505 On ch=1 n=a#7 v=0
293510 On ch=1 n=g#7 v=58
293580 On ch=1 n=g#7 v=0
293585 On ch=1 n=a#7 v=51
293670 On ch=1 n=a#7 v=0
293675 On ch=1 n=g#7 v=49
293745 On ch=1 n=g#7 v=0
293750 On ch=1 n=a#7 v=42
293775 On ch=1 n=c#7 v=69
293820 On ch=1 n=a#7 v=0
293840 On ch=1 n=g#7 v=51
293905 On ch=1 n=g#7 v=0
293910 On ch=1 n=a#7 v=48
293975 On ch=1 n=a#7 v=0
293995 On ch=1 n=g#7 v=44
294055 On ch=1 n=g#7 v=0
294060 On ch=1 n=a#7 v=43
294120 On ch=1 n=a#7 v=0
294135 On ch=1 n=g#7 v=46
294195 On ch=1 n=g#7 v=0
294195 On ch=1 n=a#7 v=46
294200 On ch=1 n=c#7 v=0
294260 On ch=1 n=a#7 v=0
294285 On ch=1 n=g#7 v=47
294340 On ch=1 n=g#7 v=0
294345 On ch=1 n=a#7 v=46
294425 On ch=1 n=a#7 v=0
294440 On ch=1 n=g#7 v=45
294490 On ch=1 n=g#7 v=0
294500 On ch=1 n=a#7 v=46
294585 On ch=1 n=a#7 v=0
294600 On ch=1 n=g#7 v=48
294660 On ch=1 n=c#7 v=70
294685 On ch=1 n=g#7 v=0
294690 On ch=1 n=a#7 v=53
294735 On ch=1 n=c#7 v=0
294790 On ch=1 n=g#7 v=60
294795 On ch=1 n=a#7 v=0
294875 On ch=1 n=g#7 v=0
294875 On ch=1 n=g7 v=61
294940 On ch=1 n=g7 v=0
294945 On ch=1 n=g#7 v=56
294995 On ch=1 n=f#5 v=43
295050 Par ch=1 c=64 v=56
295055 On ch=1 n=g#7 v=0
295065 On ch=1 n=a7 v=63
295065 Par ch=1 c=64 v=0
295080 On ch=1 n=c#6 v=47
295085 On ch=1 n=f#5 v=0
295130 Par ch=1 c=64 v=72
295145 Par ch=1 c=64 v=127
295150 On ch=1 n=c#6 v=0
295160 On ch=1 n=a7 v=0
295165 On ch=1 n=a#6 v=69
295195 On ch=1 n=a#7 v=61
295240 On ch=1 n=a#6 v=0
295290 On ch=1 n=a#7 v=0
295315 On ch=1 n=c8 v=58
295365 On ch=1 n=c8 v=0
295390 On ch=1 n=a#7 v=58
295455 On ch=1 n=a#7 v=0
295465 On ch=1 n=c8 v=65
295525 On ch=1 n=c8 v=0
295535 On ch=1 n=a#7 v=50
295600 On ch=1 n=a#7 v=0
295600 On ch=1 n=c8 v=63
295660 On ch=1 n=a#6 v=75
295675 On ch=1 n=c8 v=0
295680 On ch=1 n=a#7 v=47
295750 On ch=1 n=a#7 v=0
295750 On ch=1 n=c8 v=58
295780 On ch=1 n=a#6 v=0
295815 On ch=1 n=a#7 v=45
295825 On ch=1 n=c8 v=0
295905 On ch=1 n=c8 v=61
295910 On ch=1 n=a#7 v=0
295980 On ch=1 n=c8 v=0
295985 On ch=1 n=a#7 v=31
296055 On ch=1 n=a#7 v=0
296055 On ch=1 n=f5 v=53
296060 On ch=1 n=c8 v=55
296085 Par ch=1 c=64 v=88
296100 Par ch=1 c=64 v=40
296110 On ch=1 n=f5 v=0
296115 On ch=1 n=a#7 v=45
296115 Par ch=1 c=64 v=24
296120 On ch=1 n=d6 v=49
296130 Par ch=1 c=64 v=72
296145 On ch=1 n=c8 v=0
296145 Par ch=1 c=64 v=127
296160 On ch=1 n=d6 v=0
296175 On ch=1 n=g#6 v=69
296215 On ch=1 n=a#7 v=0
296215 On ch=1 n=g#7 v=73
296235 On ch=1 n=g#6 v=0
296320 On ch=1 n=g#7 v=0
296325 On ch=1 n=a#7 v=51
296405 On ch=1 n=a#7 v=0
296420 On ch=1 n=c8 v=60
296495 On ch=1 n=c8 v=0
296505 On ch=1 n=a#7 v=61
296570 On ch=1 n=a#7 v=0
296570 On ch=1 n=c8 v=58
296650 On ch=1 n=c8 v=0
296660 On ch=1 n=a#7 v=45
296730 On ch=1 n=a#7 v=0
296730 On ch=1 n=c8 v=58
296805 On ch=1 n=c8 v=0
296810 On ch=1 n=a#7 v=23
296880 On ch=1 n=a#7 v=0
296905 On ch=1 n=c8 v=60
296985 On ch=1 n=a#7 v=58
296985 On ch=1 n=d#5 v=49
297020 On ch=1 n=c8 v=0
297025 Par ch=1 c=64 v=88
297040 Par ch=1 c=64 v=24
297050 On ch=1 n=a#5 v=49
297055 Par ch=1 c=64 v=0
297070 On ch=1 n=d#5 v=0
297070 Par ch=1 c=64 v=24
297085 Par ch=1 c=64 v=88
297100 Par ch=1 c=64 v=127
297115 On ch=1 n=a#7 v=0
297115 On ch=1 n=f#7 v=72
297120 On ch=1 n=a#5 v=0
297130 On ch=1 n=f#6 v=58
297185 On ch=1 n=f#6 v=0
297220 On ch=1 n=f#7 v=0
297230 On ch=1 n=a#7 v=54
297310 On ch=1 n=a#7 v=0
297330 On ch=1 n=c8 v=64
297410 On ch=1 n=c8 v=0
297420 On ch=1 n=a#7 v=56
297485 On ch=1 n=a#7 v=0
297490 On ch=1 n=c8 v=52
297570 On ch=1 n=c8 v=0
297595 On ch=1 n=a#7 v=51
297600 On ch=1 n=f#7 v=73
297665 On ch=1 n=a#7 v=0
297675 On ch=1 n=c8 v=53
297730 On ch=1 n=c8 v=0
297755 On ch=1 n=a#7 v=46
297820 On ch=1 n=a#7 v=0
297830 On ch=1 n=f#7 v=0
297830 On ch=1 n=c8 v=54
297895 On ch=1 n=c8 v=0
297905 On ch=1 n=a#7 v=43
297970 On ch=1 n=a#7 v=0
297970 On ch=1 n=c8 v=53
298040 On ch=1 n=c8 v=0
298045 On ch=1 n=a#7 v=43
298110 On ch=1 n=a#7 v=0
298115 On ch=1 n=c8 v=60
298180 On ch=1 n=c8 v=0
298205 On ch=1 n=a#7 v=33
298255 On ch=1 n=a#7 v=0
298255 On ch=1 n=c8 v=55
298315 On ch=1 n=c8 v=0
298330 On ch=1 n=a#7 v=33
298395 On ch=1 n=a#7 v=0
298395 On ch=1 n=c8 v=62
298460 On ch=1 n=c8 v=0
298485 On ch=1 n=a#7 v=33
298500 On ch=1 n=f#6 v=47
298525 On ch=1 n=a#7 v=0
298530 On ch=1 n=d#6 v=33
298550 On ch=1 n=c8 v=59
298625 On ch=1 n=c8 v=0
298625 On ch=1 n=a#7 v=59
298660 On ch=1 n=f#6 v=0
298725 On ch=1 n=a#7 v=0
298725 On ch=1 n=a7 v=59
298780 On ch=1 n=a7 v=0
298780 On ch=1 n=a#7 v=59
298795 On ch=1 n=d#6 v=0
298885 On ch=1 n=a#7 v=0
298895 On ch=1 n=b7 v=70
298970 On ch=1 n=b7 v=0
298970 On ch=1 n=c8 v=76
299060 Par ch=1 c=64 v=104
299070 On ch=1 n=c#7 v=49
299075 On ch=1 n=c8 v=0
299075 Par ch=1 c=64 v=24
299080 On ch=1 n=a#6 v=38
299085 On ch=1 n=c#8 v=69
299090 Par ch=1 c=64 v=0
299135 Par ch=1 c=64 v=88
299155 Par ch=1 c=64 v=127
299170 On ch=1 n=c#8 v=0
299175 On ch=1 n=c#7 v=0
299180 On ch=1 n=d#8 v=56
299185 On ch=1 n=a#6 v=0
299245 On ch=1 n=d#8 v=0
299270 On ch=1 n=c#8 v=60
299330 On ch=1 n=c#8 v=0
299355 On ch=1 n=d#8 v=64
299415 On ch=1 n=d#8 v=0
299420 On ch=1 n=c#8 v=69
299490 On ch=1 n=c#8 v=0
299500 On ch=1 n=d#8 v=70
299565 On ch=1 n=d#8 v=0
299575 On ch=1 n=c#7 v=58
299580 On ch=1 n=c#8 v=61
299590 On ch=1 n=a#6 v=47
299640 On ch=1 n=c#8 v=0
299645 On ch=1 n=d#8 v=58
299705 On ch=1 n=d#8 v=0
299720 On ch=1 n=c#8 v=57
299780 On ch=1 n=c#8 v=0
299790 On ch=1 n=d#8 v=56
299840 On ch=1 n=d#8 v=0
299855 On ch=1 n=c#8 v=50
299910 On ch=1 n=c#8 v=0
299930 On ch=1 n=d#8 v=63
299985 On ch=1 n=c#8 v=39
300000 On ch=1 n=c#7 v=0
300025 On ch=1 n=d#8 v=0
300070 On ch=1 n=a#6 v=0
300100 On ch=1 n=c#8 v=0
300105 On ch=1 n=c8 v=74
300110 On ch=1 n=c7 v=56
300125 On ch=1 n=g#6 v=35
300125 Par ch=1 c=64 v=72
300140 Par ch=1 c=64 v=24
300155 Par ch=1 c=64 v=40
300170 Par ch=1 c=64 v=88
300185 Par ch=1 c=64 v=127
300190 On ch=1 n=c8 v=0
300200 On ch=1 n=c#8 v=69
300290 On ch=1 n=c#8 v=0
300310 On ch=1 n=d#8 v=59
300330 On ch=1 n=c7 v=0
300380 On ch=1 n=d#8 v=0
300380 On ch=1 n=g#6 v=0
300395 On ch=1 n=c#8 v=60
300455 On ch=1 n=c#8 v=0
300470 On ch=1 n=d#8 v=56
300535 On ch=1 n=d#8 v=0
300545 On ch=1 n=c#8 v=54
300600 On ch=1 n=c#8 v=0
300610 On ch=1 n=d#8 v=59
300685 On ch=1 n=d#8 v=0
300705 On ch=1 n=c#8 v=49
300745 On ch=1 n=c#8 v=0
300775 On ch=1 n=d#8 v=60
300835 On ch=1 n=c#8 v=49
300870 On ch=1 n=d#8 v=0
300895 On ch=1 n=a#6 v=49
300900 On ch=1 n=a#7 v=62
300910 On ch=1 n=f#6 v=45
300920 On ch=1 n=c#8 v=0
300945 On ch=1 n=f#6 v=0
300975 On ch=1 n=a#6 v=0
300995 On ch=1 n=a#7 v=0
301010 On ch=1 n=c#8 v=51
301095 On ch=1 n=c#8 v=0
301095 On ch=1 n=g#7 v=58
301125 On ch=1 n=g#6 v=51
301140 Par ch=1 c=64 v=72
301150 On ch=1 n=f6 v=56
301155 Par ch=1 c=64 v=24
301175 Par ch=1 c=64 v=40
301190 Par ch=1 c=64 v=88
301195 On ch=1 n=f6 v=0
301195 On ch=1 n=g#7 v=0
301195 On ch=1 n=c#8 v=57
301205 Par ch=1 c=64 v=127
301285 On ch=1 n=c#8 v=0
301285 On ch=1 n=g#6 v=0
301310 On ch=1 n=d#8 v=56
301385 On ch=1 n=d#8 v=0
301390 On ch=1 n=c#8 v=55
301470 On ch=1 n=c#8 v=0
301475 On ch=1 n=d#8 v=60
301540 On ch=1 n=d#8 v=0
301560 On ch=1 n=c#8 v=49
301575 On ch=1 n=g#5 v=50
301615 On ch=1 n=c#8 v=0
301625 On ch=1 n=d#8 v=47
301665 On ch=1 n=f6 v=51
301670 On ch=1 n=g#5 v=0
301695 On ch=1 n=d#8 v=0
301710 On ch=1 n=c#8 v=46
301720 On ch=1 n=g#6 v=68
301755 On ch=1 n=f6 v=0
301775 On ch=1 n=c#8 v=0
301780 On ch=1 n=g#6 v=0
301785 On ch=1 n=d#8 v=50
301850 On ch=1 n=d#8 v=0
301870 On ch=1 n=c#8 v=50
301935 On ch=1 n=c#8 v=0
301940 On ch=1 n=d#8 v=53
302010 On ch=1 n=d#8 v=0
302025 On ch=1 n=c#8 v=50
302090 On ch=1 n=c#8 v=0
302090 On ch=1 n=d#8 v=56
302160 On ch=1 n=d#8 v=0
302180 On ch=1 n=c#8 v=43
302235 On ch=1 n=d#8 v=49
302240 On ch=1 n=c#8 v=0
302310 On ch=1 n=d#8 v=0
302325 On ch=1 n=c#8 v=53
302390 On ch=1 n=d#8 v=56
302395 On ch=1 n=c#8 v=0
302465 On ch=1 n=d#8 v=0
302480 On ch=1 n=c#8 v=55
302550 On ch=1 n=c#8 v=0
302560 On ch=1 n=d#8 v=63
302630 On ch=1 n=d#8 v=0
302655 On ch=1 n=c#8 v=30
302690 On ch=1 n=c#8 v=0
302720 On ch=1 n=d#8 v=55
302735 On ch=1 n=a6 v=56
302755 On ch=1 n=f6 v=48
302805 On ch=1 n=c#8 v=52
302825 On ch=1 n=d#8 v=0
302840 On ch=1 n=f6 v=0
302840 On ch=1 n=a6 v=0
302900 On ch=1 n=c#8 v=0
302910 On ch=1 n=c8 v=58
302975 On ch=1 n=c8 v=0
302990 On ch=1 n=c#8 v=64
303100 On ch=1 n=c#8 v=0
303110 On ch=1 n=d8 v=69
303195 Par ch=1 c=64 v=40
303210 Par ch=1 c=64 v=0
303220 On ch=1 n=g#5 v=54
303240 Par ch=1 c=64 v=40
303255 Par ch=1 c=64 v=104
303270 Par ch=1 c=64 v=127
303290 On ch=1 n=g#5 v=0
303305 On ch=1 n=d8 v=0
303305 On ch=1 n=c6 v=53
303335 On ch=1 n=f#6 v=48
303340 On ch=1 n=f8 v=71
303345 On ch=1 n=c6 v=0
303410 On ch=1 n=a#6 v=44
303415 On ch=1 n=f#6 v=0
303450 On ch=1 n=a#6 v=0
303530 On ch=1 n=f8 v=0
303570 On ch=1 n=d#8 v=61
303680 On ch=1 n=c#8 v=60
303735 On ch=1 n=d#8 v=0
303750 On ch=1 n=c#8 v=0
303775 On ch=1 n=c8 v=62
303810 On ch=1 n=c8 v=0
303870 On ch=1 n=a#7 v=59
303945 On ch=1 n=g#7 v=60
303985 On ch=1 n=a#7 v=0
304040 On ch=1 n=f#7 v=58
304075 On ch=1 n=g#7 v=0
304100 On ch=1 n=f#7 v=0
304120 On ch=1 n=f7 v=57
304180 On ch=1 n=f7 v=0
304205 On ch=1 n=d#7 v=53
304295 On ch=1 n=c#7 v=53
304320 On ch=1 n=d#7 v=0
304360 On ch=1 n=c#7 v=0
304380 On ch=1 n=c7 v=52
304415 On ch=1 n=c7 v=0
304470 On ch=1 n=a#6 v=51
304555 On ch=1 n=g#6 v=50
304575 On ch=1 n=a#6 v=0
304645 On ch=1 n=f#6 v=51
304670 On ch=1 n=g#6 v=0
304720 On ch=1 n=f#6 v=0
304730 On ch=1 n=f6 v=52
304795 On ch=1 n=f6 v=0
304815 On ch=1 n=d#6 v=51
304910 On ch=1 n=c#6 v=49
304915 On ch=1 n=d#6 v=0
304960 On ch=1 n=c#6 v=0
304990 On ch=1 n=c6 v=49
305020 On ch=1 n=c6 v=0
305085 On ch=1 n=a#5 v=48
305170 On ch=1 n=g#5 v=48
305185 On ch=1 n=a#5 v=0
305255 On ch=1 n=f#5 v=47
305275 On ch=1 n=g#5 v=0
305275 Par ch=1 c=64 v=104
305290 Par ch=1 c=64 v=127
305325 On ch=1 n=f#5 v=0
305340 On ch=1 n=f5 v=46
305400 On ch=1 n=f5 v=0
305440 On ch=1 n=d#5 v=46
305540 On ch=1 n=d#5 v=0
305540 On ch=1 n=c#5 v=45
305605 On ch=1 n=c#5 v=0
305620 On ch=1 n=c5 v=44
305660 On ch=1 n=c5 v=0
305665 Par ch=1 c=64 v=104
305680 Par ch=1 c=64 v=88
305695 Par ch=1 c=64 v=104
305710 Par ch=1 c=64 v=127
305720 On ch=1 n=a#4 v=43
305795 Par ch=1 c=64 v=104
305820 On ch=1 n=g#4 v=44
305830 On ch=1 n=a#4 v=0
305840 Par ch=1 c=64 v=127
305900 On ch=1 n=f#4 v=46
305915 On ch=1 n=g#4 v=0
305970 On ch=1 n=f#4 v=0
306000 On ch=1 n=f4 v=44
306085 On ch=1 n=f4 v=0
306090 On ch=1 n=d#4 v=45
306190 On ch=1 n=c#4 v=44
306200 On ch=1 n=d#4 v=0
306260 On ch=1 n=c#4 v=0
306260 Par ch=1 c=64 v=104
306275 Par ch=1 c=64 v=56
306285 On ch=1 n=c4 v=46
306295 Par ch=1 c=64 v=40
306310 Par ch=1 c=64 v=56
306325 Par ch=1 c=64 v=104
306340 On ch=1 n=c4 v=0
306340 Par ch=1 c=64 v=127
306380 On ch=1 n=a#3 v=43
306485 On ch=1 n=g#3 v=45
306490 On ch=1 n=a#3 v=0
306590 On ch=1 n=f#3 v=42
306595 On ch=1 n=g#3 v=0
306655 On ch=1 n=f#3 v=0
306670 On ch=1 n=f3 v=45
306755 On ch=1 n=f3 v=0
306790 On ch=1 n=d#3 v=44
306885 On ch=1 n=d#3 v=0
306975 On ch=1 n=c#3 v=52
307060 Par ch=1 c=64 v=88
307075 Par ch=1 c=64 v=0
307115 On ch=1 n=f3 v=47
307180 On ch=1 n=g#3 v=51
307185 Par ch=1 c=64 v=72
307200 Par ch=1 c=64 v=127
307260 On ch=1 n=c#3 v=0
307260 On ch=1 n=c#4 v=51
307270 On ch=1 n=f3 v=0
307310 On ch=1 n=g#3 v=0
307355 On ch=1 n=c#4 v=0
307375 On ch=1 n=f4 v=52
307420 On ch=1 n=f4 v=0
307450 On ch=1 n=g#4 v=53
307550 On ch=1 n=g#4 v=0
307555 On ch=1 n=c#5 v=47
307635 On ch=1 n=f5 v=56
307640 On ch=1 n=c#5 v=0
307695 On ch=1 n=f5 v=0
307730 On ch=1 n=g#5 v=56
307750 Par ch=1 c=64 v=72
307765 Par ch=1 c=64 v=104
307780 Par ch=1 c=64 v=127
307810 On ch=1 n=c#6 v=55
307875 On ch=1 n=g#5 v=0
307905 On ch=1 n=f6 v=54
307935 On ch=1 n=c#6 v=0
307960 On ch=1 n=g#6 v=46
307980 On ch=1 n=f6 v=0
308015 On ch=1 n=g#6 v=0
308060 On ch=1 n=c#7 v=48
308135 On ch=1 n=c#7 v=0
308150 On ch=1 n=f7 v=59
308250 On ch=1 n=f7 v=0
308250 On ch=1 n=g#7 v=56
308355 On ch=1 n=g#7 v=0
308355 On ch=1 n=c#8 v=54
308425 On ch=1 n=c#8 v=0
309285 Par ch=1 c=64 v=88
309300 Par ch=1 c=64 v=56
309315 Par ch=1 c=64 v=24
309330 Par ch=1 c=64 v=0
309705 On ch=1 n=g#5 v=64
309855 On ch=1 n=g#5 v=0
309890 On ch=1 n=f6 v=79
309945 On ch=1 n=c#4 v=45
310095 Par ch=1 c=64 v=72
310110 Par ch=1 c=64 v=127
310205 On ch=1 n=f6 v=0
310255 On ch=1 n=c#4 v=0
310290 On ch=1 n=c#5 v=40
310300 On ch=1 n=g#4 v=44
310320 On ch=1 n=f5 v=52
310330 On ch=1 n=g#4 v=0
310330 On ch=1 n=c#5 v=0
310330 On ch=1 n=g#5 v=42
310395 On ch=1 n=f5 v=0
310405 On ch=1 n=g#5 v=0
310485 On ch=1 n=d#6 v=71
310540 Par ch=1 c=64 v=88
310560 Par ch=1 c=64 v=24
310580 Par ch=1 c=64 v=0
310595 On ch=1 n=d#6 v=0
310670 On ch=1 n=f#6 v=80
310675 On ch=1 n=g#3 v=49
310715 Par ch=1 c=64 v=56
310735 Par ch=1 c=64 v=127
310740 On ch=1 n=g#3 v=0
310895 On ch=1 n=f#6 v=0
311060 On ch=1 n=d#5 v=34
311065 On ch=1 n=g#5 v=53
311070 On ch=1 n=g#4 v=42
311080 On ch=1 n=f#5 v=28
311100 On ch=1 n=g#4 v=0
311100 On ch=1 n=d#5 v=0
311185 On ch=1 n=g#5 v=0
311235 On ch=1 n=c6 v=74
311255 On ch=1 n=f#5 v=0
311350 On ch=1 n=c6 v=0
311350 On ch=1 n=d#6 v=65
311415 On ch=1 n=c#6 v=76
311430 Par ch=1 c=64 v=72
311435 On ch=1 n=c#4 v=51
311440 On ch=1 n=d#6 v=0
311450 Par ch=1 c=64 v=24
311470 Par ch=1 c=64 v=0
311480 On ch=1 n=c#4 v=0
311500 On ch=1 n=c#6 v=0
311840 On ch=1 n=c#6 v=66
311865 On ch=1 n=f5 v=48
311865 On ch=1 n=c#5 v=32
311870 On ch=1 n=g#5 v=38
311870 On ch=1 n=g#4 v=35
311880 Par ch=1 c=64 v=56
311895 Par ch=1 c=64 v=104
311915 On ch=1 n=g#4 v=0
311915 Par ch=1 c=64 v=127
311920 On ch=1 n=f5 v=0
311935 On ch=1 n=g#5 v=0
311960 On ch=1 n=c#5 v=0
311980 On ch=1 n=c#6 v=0
312225 On ch=1 n=c#4 v=32
312400 On ch=1 n=c#4 v=0
312590 On ch=1 n=c#6 v=71
312605 On ch=1 n=g#4 v=37
312610 On ch=1 n=f5 v=47
312615 On ch=1 n=g#5 v=43
312620 On ch=1 n=c#5 v=29
312650 On ch=1 n=g#5 v=0
312650 On ch=1 n=f5 v=0
312650 On ch=1 n=g#4 v=0
312665 On ch=1 n=c#5 v=0
312690 On ch=1 n=c#6 v=0
312825 Par ch=1 c=64 v=88
312845 Par ch=1 c=64 v=56
312865 Par ch=1 c=64 v=40
312885 Par ch=1 c=64 v=0
312975 On ch=1 n=a#6 v=85
312985 On ch=1 n=f#4 v=52
313030 On ch=1 n=f#4 v=0
313065 On ch=1 n=a#6 v=0
313335 On ch=1 n=a#6 v=77
313350 On ch=1 n=a#5 v=60
313355 On ch=1 n=f#5 v=42
313355 On ch=1 n=c#5 v=46
313370 On ch=1 n=c#6 v=48
313405 On ch=1 n=c#6 v=0
313405 On ch=1 n=c#5 v=0
313410 On ch=1 n=f#5 v=0
313430 On ch=1 n=a#5 v=0
313455 On ch=1 n=a#6 v=0
313750 On ch=1 n=g#6 v=75
313765 On ch=1 n=f4 v=52
313775 Par ch=1 c=64 v=24
313795 Par ch=1 c=64 v=72
313810 Par ch=1 c=64 v=127
314015 On ch=1 n=f4 v=0
314135 On ch=1 n=g#5 v=33
314145 On ch=1 n=a#5 v=42
314150 On ch=1 n=f5 v=39
314175 On ch=1 n=d5 v=37
314200 On ch=1 n=f5 v=0
314215 On ch=1 n=g#6 v=0
314220 On ch=1 n=d5 v=0
314255 On ch=1 n=g#5 v=0
314260 On ch=1 n=a#5 v=0
314505 On ch=1 n=f#6 v=71
314520 On ch=1 n=d#4 v=51
314530 Par ch=1 c=64 v=104
314545 Par ch=1 c=64 v=88
314565 Par ch=1 c=64 v=56
314590 Par ch=1 c=64 v=40
314595 On ch=1 n=f#6 v=0
314610 On ch=1 n=d#4 v=0
314610 Par ch=1 c=64 v=24
314630 Par ch=1 c=64 v=0
314925 On ch=1 n=f#6 v=68
314940 On ch=1 n=f#5 v=39
314955 On ch=1 n=d#5 v=29
314960 On ch=1 n=a#5 v=34
314990 On ch=1 n=a#4 v=27
315110 Par ch=1 c=64 v=24
315130 Par ch=1 c=64 v=56
315145 Par ch=1 c=64 v=88
315170 Par ch=1 c=64 v=127
315340 On ch=1 n=a#4 v=0
315375 On ch=1 n=f#4 v=41
315500 On ch=1 n=d#5 v=0
315525 On ch=1 n=f#5 v=0
315550 On ch=1 n=a#5 v=0
315560 On ch=1 n=f#6 v=0
315855 On ch=1 n=f#6 v=70
315865 On ch=1 n=f#5 v=46
315875 On ch=1 n=a#5 v=50
315885 On ch=1 n=d#5 v=27
315895 On ch=1 n=a#4 v=26
315925 On ch=1 n=f#5 v=0
315930 On ch=1 n=a#5 v=0
315975 On ch=1 n=d#5 v=0
315990 On ch=1 n=a#4 v=0
315995 On ch=1 n=f#4 v=0
316005 On ch=1 n=f#6 v=0
316420 On ch=1 n=c#7 v=82
316425 Par ch=1 c=64 v=56
316430 On ch=1 n=c#6 v=63
316435 On ch=1 n=f#3 v=55
316435 On ch=1 n=a#6 v=57
316450 Par ch=1 c=64 v=0
316510 On ch=1 n=c#6 v=0
316535 On ch=1 n=f#3 v=0
316545 Par ch=1 c=64 v=40
316550 On ch=1 n=a#6 v=0
316565 Par ch=1 c=64 v=127
316580 On ch=1 n=c#7 v=0
316950 On ch=1 n=c#7 v=77
316965 On ch=1 n=a#6 v=60
316985 On ch=1 n=c#6 v=35
316985 On ch=1 n=c#5 v=44
316990 On ch=1 n=a#5 v=44
317050 Par ch=1 c=64 v=104
317065 Par ch=1 c=64 v=56
317105 Par ch=1 c=64 v=88
317125 Par ch=1 c=64 v=127
317225 On ch=1 n=a#5 v=0
317270 On ch=1 n=c#7 v=0
317315 On ch=1 n=c#6 v=0
317325 On ch=1 n=a#6 v=0
317610 On ch=1 n=c7 v=70
317625 On ch=1 n=g#6 v=51
317630 On ch=1 n=g#5 v=30
317640 On ch=1 n=c6 v=34
317805 Par ch=1 c=64 v=24
317825 Par ch=1 c=64 v=0
317935 Par ch=1 c=64 v=56
317960 Par ch=1 c=64 v=127
317995 On ch=1 n=c6 v=0
318095 On ch=1 n=g#6 v=0
318190 On ch=1 n=c7 v=0
318215 On ch=1 n=c#5 v=0
318215 On ch=1 n=a#5 v=44
318225 On ch=1 n=f#5 v=40
318245 On ch=1 n=g#5 v=0
318250 On ch=1 n=a#5 v=0
318260 On ch=1 n=f#5 v=0
318310 On ch=1 n=f#6 v=65
318310 On ch=1 n=a#6 v=68
318340 On ch=1 n=a#6 v=0
318340 On ch=1 n=f#6 v=0
318420 On ch=1 n=a#6 v=74
318425 On ch=1 n=f#6 v=64
318425 Par ch=1 c=64 v=104
318440 Par ch=1 c=64 v=24
318460 Par ch=1 c=64 v=0
318485 On ch=1 n=f#6 v=0
318515 On ch=1 n=g#6 v=86
318515 On ch=1 n=f6 v=78
318540 On ch=1 n=a#6 v=0
318555 On ch=1 n=f6 v=0
318560 On ch=1 n=g#3 v=52
318605 On ch=1 n=g#6 v=0
318675 On ch=1 n=g#3 v=0
319005 On ch=1 n=g#6 v=75
319020 On ch=1 n=f6 v=63
319020 On ch=1 n=g#5 v=38
319040 On ch=1 n=f5 v=47
319120 Par ch=1 c=64 v=24
319135 Par ch=1 c=64 v=72
319155 Par ch=1 c=64 v=127
319295 On ch=1 n=f6 v=0
319335 On ch=1 n=g#6 v=0
319435 On ch=1 n=g#4 v=47
319485 On ch=1 n=g#5 v=0
319495 On ch=1 n=f5 v=0
319500 On ch=1 n=g#4 v=0
320055 On ch=1 n=f6 v=63
320060 On ch=1 n=f5 v=66
320065 On ch=1 n=a6 v=74
320065 On ch=1 n=a5 v=68
320105 Par ch=1 c=64 v=88
320130 Par ch=1 c=64 v=56
320150 Par ch=1 c=64 v=24
320155 On ch=1 n=f6 v=0
320160 On ch=1 n=f#6 v=72
320165 Par ch=1 c=64 v=0
320175 On ch=1 n=a#6 v=86
320180 On ch=1 n=a#5 v=85
320180 On ch=1 n=f#5 v=71
320205 On ch=1 n=a6 v=0
320205 On ch=1 n=f5 v=0
320215 On ch=1 n=f#5 v=0
320215 On ch=1 n=a5 v=0
320225 On ch=1 n=f#6 v=0
320230 On ch=1 n=a#5 v=0
320245 On ch=1 n=a#6 v=0
320670 On ch=1 n=a#6 v=61
320675 On ch=1 n=f#6 v=58
320675 On ch=1 n=a#5 v=61
320690 On ch=1 n=f#5 v=43
320730 On ch=1 n=f#5 v=0
320730 Par ch=1 c=64 v=56
320745 On ch=1 n=a#5 v=0
320745 Par ch=1 c=64 v=127
320760 On ch=1 n=f#6 v=0
320775 On ch=1 n=a#6 v=0
321480 Par ch=1 c=64 v=88
321505 Par ch=1 c=64 v=24
321515 On ch=1 n=c6 v=71
321525 On ch=1 n=f#5 v=36
321525 On ch=1 n=d#5 v=35
321525 Par ch=1 c=64 v=0
321535 On ch=1 n=g#4 v=42
321580 Par ch=1 c=64 v=72
321600 Par ch=1 c=64 v=127
321655 On ch=1 n=c6 v=0
321660 On ch=1 n=f#5 v=0
321690 On ch=1 n=d#5 v=0
321985 On ch=1 n=c#6 v=64
322000 On ch=1 n=c#5 v=48
322015 On ch=1 n=f5 v=51
322025 Par ch=1 c=64 v=104
322045 Par ch=1 c=64 v=88
322055 On ch=1 n=g#4 v=0
322065 Par ch=1 c=64 v=72
322070 On ch=1 n=f5 v=0
322075 On ch=1 n=c#5 v=0
322085 Par ch=1 c=64 v=40
322105 On ch=1 n=c#6 v=0
322105 Par ch=1 c=64 v=24
322120 Par ch=1 c=64 v=0
322540 On ch=1 n=c#6 v=54
322540 On ch=1 n=c#4 v=42
322550 On ch=1 n=g#4 v=32
322550 On ch=1 n=f5 v=40
322550 Par ch=1 c=64 v=24
322560 On ch=1 n=c#5 v=26
322565 Par ch=1 c=64 v=56
322585 Par ch=1 c=64 v=88
322605 Par ch=1 c=64 v=127
322680 On ch=1 n=c#4 v=0
322685 On ch=1 n=f5 v=0
322700 On ch=1 n=c#5 v=0
322705 On ch=1 n=g#4 v=0
322745 On ch=1 n=c#6 v=0
323460 Par ch=1 c=64 v=104
323480 Par ch=1 c=64 v=88
323495 Par ch=1 c=64 v=40
323515 Par ch=1 c=64 v=0
323660 On ch=1 n=g#5 v=57
323660 On ch=1 n=g#6 v=71
323670 Par ch=1 c=64 v=40
323690 Par ch=1 c=64 v=88
323700 On ch=1 n=g#5 v=0
323710 Par ch=1 c=64 v=127
323740 On ch=1 n=g#6 v=0
323825 Par ch=1 c=64 v=104
323845 Par ch=1 c=64 v=56
323865 Par ch=1 c=64 v=0
323925 On ch=1 n=f7 v=86
323925 On ch=1 n=f6 v=74
323940 On ch=1 n=c#4 v=43
323950 On ch=1 n=c#3 v=47
323980 Par ch=1 c=64 v=72
323995 Par ch=1 c=64 v=127
324005 On ch=1 n=c#3 v=0
324020 On ch=1 n=c#4 v=0
324335 On ch=1 n=f7 v=0
324360 On ch=1 n=f6 v=0
324365 On ch=1 n=g#5 v=51
324390 On ch=1 n=c#5 v=41
324390 On ch=1 n=f5 v=39
324410 On ch=1 n=g#5 v=0
324425 On ch=1 n=c#5 v=0
324425 Par ch=1 c=64 v=88
324435 On ch=1 n=f5 v=0
324445 Par ch=1 c=64 v=72
324465 Par ch=1 c=64 v=40
324480 Par ch=1 c=64 v=0
324555 On ch=1 n=d#7 v=79
324555 On ch=1 n=d#6 v=64
324620 On ch=1 n=d#6 v=0
324635 On ch=1 n=d#7 v=0
324735 Par ch=1 c=64 v=40
324740 On ch=1 n=f#7 v=82
324750 On ch=1 n=f#6 v=69
324755 Par ch=1 c=64 v=104
324770 On ch=1 n=g#3 v=51
324775 Par ch=1 c=64 v=127
324780 On ch=1 n=g#4 v=41
324845 On ch=1 n=g#3 v=0
324860 On ch=1 n=g#4 v=0
325010 On ch=1 n=f#7 v=0
325020 On ch=1 n=f#6 v=0
325165 On ch=1 n=g#5 v=45
325195 On ch=1 n=f#5 v=38
325205 On ch=1 n=d#5 v=37
325220 Par ch=1 c=64 v=104
325230 On ch=1 n=g#5 v=0
325235 On ch=1 n=f#5 v=0
325240 Par ch=1 c=64 v=72
325245 On ch=1 n=d#5 v=0
325260 Par ch=1 c=64 v=56
325280 Par ch=1 c=64 v=24
325300 Par ch=1 c=64 v=0
325340 On ch=1 n=c7 v=84
325350 On ch=1 n=c6 v=64
325395 On ch=1 n=c6 v=0
325415 On ch=1 n=c7 v=0
325470 Par ch=1 c=64 v=40
325490 Par ch=1 c=64 v=127
325520 On ch=1 n=d#7 v=89
325520 On ch=1 n=d#6 v=77
325550 On ch=1 n=c#3 v=45
325555 On ch=1 n=c#4 v=49
325570 On ch=1 n=d#7 v=0
325575 On ch=1 n=d#6 v=0
325585 On ch=1 n=c#3 v=0
325615 On ch=1 n=c#4 v=0
325665 Par ch=1 c=64 v=88
325685 Par ch=1 c=64 v=56
325705 Par ch=1 c=64 v=24
325725 Par ch=1 c=64 v=0
325950 On ch=1 n=g#5 v=43
325965 On ch=1 n=c#7 v=80
325970 On ch=1 n=f5 v=40
325980 On ch=1 n=c#6 v=58
325980 On ch=1 n=c#5 v=36
325995 Par ch=1 c=64 v=40
326015 On ch=1 n=f5 v=0
326015 On ch=1 n=g#5 v=0
326015 Par ch=1 c=64 v=88
326030 On ch=1 n=c#5 v=0
326030 Par ch=1 c=64 v=127
326320 On ch=1 n=g#3 v=50
326340 On ch=1 n=g#4 v=45
326380 On ch=1 n=g#3 v=0
326385 On ch=1 n=g#4 v=0
326415 On ch=1 n=c#7 v=0
326420 On ch=1 n=c#6 v=0
326420 Par ch=1 c=64 v=104
326440 Par ch=1 c=64 v=88
326460 Par ch=1 c=64 v=72
326475 Par ch=1 c=64 v=56
326495 Par ch=1 c=64 v=40
326575 Par ch=1 c=64 v=24
326705 On ch=1 n=c#6 v=71
326710 On ch=1 n=c#7 v=84
326710 On ch=1 n=g#5 v=46
326725 On ch=1 n=c#5 v=45
326730 On ch=1 n=f5 v=33
326755 On ch=1 n=g#5 v=0
326765 On ch=1 n=f5 v=0
326765 On ch=1 n=c#5 v=0
326765 On ch=1 n=c#6 v=0
326790 On ch=1 n=c#7 v=0
326885 Par ch=1 c=64 v=0
327040 Par ch=1 c=64 v=24
327060 Par ch=1 c=64 v=56
327065 On ch=1 n=f#3 v=57
327065 On ch=1 n=a#7 v=90
327070 On ch=1 n=a#6 v=78
327075 On ch=1 n=f#4 v=48
327105 On ch=1 n=f#3 v=0
327130 On ch=1 n=f#4 v=0
327130 On ch=1 n=a#6 v=0
327135 On ch=1 n=a#7 v=0
327175 Par ch=1 c=64 v=40
327250 Par ch=1 c=64 v=0
327470 On ch=1 n=a#5 v=59
327480 On ch=1 n=a#7 v=85
327485 On ch=1 n=f#5 v=51
327490 On ch=1 n=a#6 v=71
327495 On ch=1 n=c#5 v=46
327510 On ch=1 n=f#5 v=0
327510 On ch=1 n=a#5 v=0
327545 On ch=1 n=c#5 v=0
327565 On ch=1 n=a#6 v=0
327570 On ch=1 n=a#7 v=0
327835 Par ch=1 c=64 v=24
327855 Par ch=1 c=64 v=72
327860 On ch=1 n=g#7 v=81
327870 On ch=1 n=g#6 v=65
327870 On ch=1 n=f3 v=61
327870 Par ch=1 c=64 v=127
327895 On ch=1 n=f4 v=53
327910 On ch=1 n=f3 v=0
327970 On ch=1 n=f4 v=0
328280 On ch=1 n=g#5 v=51
328300 On ch=1 n=d5 v=42
328305 On ch=1 n=a#4 v=37
328335 On ch=1 n=g#5 v=0
328345 On ch=1 n=d5 v=0
328355 On ch=1 n=g#7 v=0
328375 On ch=1 n=g#6 v=0
328385 On ch=1 n=a#4 v=0
328530 Par ch=1 c=64 v=104
328550 Par ch=1 c=64 v=88
328570 Par ch=1 c=64 v=72
328585 Par ch=1 c=64 v=56
328605 Par ch=1 c=64 v=40
328630 Par ch=1 c=64 v=24
328650 Par ch=1 c=64 v=0
328665 On ch=1 n=d#3 v=58
328670 On ch=1 n=f#7 v=76
328680 On ch=1 n=f#6 v=69
328680 On ch=1 n=d#4 v=61
328735 On ch=1 n=d#4 v=0
328735 On ch=1 n=d#3 v=0
328760 On ch=1 n=f#6 v=0
328765 On ch=1 n=f#7 v=0
329110 Par ch=1 c=64 v=24
329115 On ch=1 n=f#7 v=77
329125 On ch=1 n=f#6 v=64
329130 On ch=1 n=f#5 v=42
329130 Par ch=1 c=64 v=72
329135 On ch=1 n=a#6 v=58
329145 On ch=1 n=d#5 v=39
329150 Par ch=1 c=64 v=127
329160 On ch=1 n=a#4 v=31
329180 On ch=1 n=d#5 v=0
329190 On ch=1 n=f#5 v=0
329210 On ch=1 n=a#4 v=0
329555 On ch=1 n=a#4 v=35
329560 On ch=1 n=a#3 v=45
329610 On ch=1 n=a#3 v=0
329640 On ch=1 n=a#4 v=0
329660 On ch=1 n=a#6 v=0
329665 On ch=1 n=f#7 v=0
329675 On ch=1 n=f#6 v=0
330045 On ch=1 n=f#7 v=80
330045 On ch=1 n=f#6 v=62
330055 On ch=1 n=a#6 v=61
330055 On ch=1 n=f#5 v=43
330075 On ch=1 n=a#4 v=36
330080 On ch=1 n=d#5 v=34
330105 On ch=1 n=a#6 v=0
330105 On ch=1 n=f#6 v=0
330125 On ch=1 n=d#5 v=0
330125 On ch=1 n=f#5 v=0
330150 On ch=1 n=f#7 v=0
330155 On ch=1 n=a#4 v=0
330580 On ch=1 n=c#8 v=82
330585 Par ch=1 c=64 v=104
330590 On ch=1 n=c#7 v=63
330600 On ch=1 n=a#7 v=56
330605 On ch=1 n=f#3 v=50
330605 On ch=1 n=f#4 v=45
330605 Par ch=1 c=64 v=40
330620 Par ch=1 c=64 v=0
330680 Par ch=1 c=64 v=56
330700 On ch=1 n=f#3 v=0
330705 Par ch=1 c=64 v=127
330710 On ch=1 n=f#4 v=0
330720 On ch=1 n=c#7 v=0
330770 On ch=1 n=a#7 v=0
330775 On ch=1 n=c#8 v=0
331160 On ch=1 n=c#8 v=76
331170 On ch=1 n=c#7 v=62
331180 On ch=1 n=a#7 v=56
331180 On ch=1 n=c#6 v=39
331185 On ch=1 n=c#5 v=44
331190 On ch=1 n=a#5 v=39
331280 Par ch=1 c=64 v=104
331300 Par ch=1 c=64 v=72
331360 Par ch=1 c=64 v=127
331410 On ch=1 n=a#5 v=0
331415 On ch=1 n=a#7 v=0
331465 On ch=1 n=c#6 v=0
331485 On ch=1 n=c#7 v=0
331500 On ch=1 n=c#8 v=0
331775 On ch=1 n=c8 v=65
331790 On ch=1 n=c7 v=44
331800 On ch=1 n=g#7 v=57
331825 On ch=1 n=c6 v=39
331840 On ch=1 n=g#5 v=30
331940 Par ch=1 c=64 v=104
331960 Par ch=1 c=64 v=24
331980 Par ch=1 c=64 v=0
332055 Par ch=1 c=64 v=56
332080 Par ch=1 c=64 v=127
332100 On ch=1 n=c8 v=0
332130 On ch=1 n=c6 v=0
332155 On ch=1 n=g#7 v=0
332175 On ch=1 n=c7 v=0
332255 On ch=1 n=g#5 v=0
332345 On ch=1 n=a#5 v=36
332365 On ch=1 n=f#5 v=36
332375 On ch=1 n=a#5 v=0
332395 On ch=1 n=f#5 v=0
332395 On ch=1 n=c#5 v=0
332440 On ch=1 n=a#7 v=77
332450 On ch=1 n=a#6 v=56
332460 On ch=1 n=f#7 v=47
332485 On ch=1 n=a#6 v=0
332495 On ch=1 n=f#7 v=0
332505 On ch=1 n=a#7 v=0
332560 On ch=1 n=a#7 v=73
332560 On ch=1 n=f#7 v=47
332580 Par ch=1 c=64 v=88
332585 On ch=1 n=a#6 v=55
332600 Par ch=1 c=64 v=40
332620 On ch=1 n=a#6 v=0
332620 Par ch=1 c=64 v=0
332630 On ch=1 n=f#7 v=0
332630 On ch=1 n=a#7 v=0
332675 On ch=1 n=g#7 v=90
332685 On ch=1 n=f7 v=60
332685 On ch=1 n=g#6 v=68
332690 On ch=1 n=g#3 v=58
332740 On ch=1 n=g#6 v=0
332750 On ch=1 n=f7 v=0
332755 On ch=1 n=g#7 v=0
332775 On ch=1 n=g#3 v=0
333170 On ch=1 n=g#7 v=81
333175 On ch=1 n=g#6 v=63
333185 On ch=1 n=f7 v=66
333195 On ch=1 n=g#5 v=43
333210 On ch=1 n=f5 v=54
333255 Par ch=1 c=64 v=56
333275 Par ch=1 c=64 v=104
333295 Par ch=1 c=64 v=127
333535 On ch=1 n=g#6 v=0
333570 On ch=1 n=g#4 v=52
333600 On ch=1 n=f7 v=0
333600 On ch=1 n=g#7 v=0
333645 On ch=1 n=f5 v=0
333660 On ch=1 n=g#4 v=0
333665 On ch=1 n=g#5 v=0
334195 On ch=1 n=a6 v=68
334195 On ch=1 n=f5 v=64
334195 On ch=1 n=a7 v=92
334195 On ch=1 n=f6 v=74
334240 On ch=1 n=f5 v=0
334240 On ch=1 n=a6 v=0
334245 On ch=1 n=f6 v=0
334265 Par ch=1 c=64 v=72
334270 On ch=1 n=a7 v=0
334280 Par ch=1 c=64 v=0
334330 On ch=1 n=a#7 v=92
334340 On ch=1 n=a#6 v=100
334340 On ch=1 n=f#5 v=80
334340 On ch=1 n=f#6 v=88
334380 Par ch=1 c=64 v=127
334395 On ch=1 n=f#6 v=0
334395 On ch=1 n=a#6 v=0
334400 On ch=1 n=f#5 v=0
334400 On ch=1 n=a#7 v=0
334555 Par ch=1 c=64 v=104
334575 Par ch=1 c=64 v=56
334595 Par ch=1 c=64 v=24
334615 Par ch=1 c=64 v=0
335255 On ch=1 n=c6 v=71
335275 On ch=1 n=c5 v=51
335275 On ch=1 n=f#5 v=47
335305 On ch=1 n=g#3 v=43
335305 On ch=1 n=g#4 v=36
335310 Par ch=1 c=64 v=56
335330 Par ch=1 c=64 v=104
335350 Par ch=1 c=64 v=127
335395 On ch=1 n=c5 v=0
335410 On ch=1 n=g#4 v=0
335425 On ch=1 n=g#3 v=0
335425 On ch=1 n=c6 v=0
335435 On ch=1 n=f#5 v=0
336125 On ch=1 n=c#6 v=48
336140 On ch=1 n=c#5 v=33
336140 On ch=1 n=c#4 v=44
336140 On ch=1 n=f5 v=52
336140 On ch=1 n=g#4 v=34
336160 Par ch=1 c=64 v=88
336180 Par ch=1 c=64 v=72
336200 On ch=1 n=g#4 v=0
336200 Par ch=1 c=64 v=40
336210 On ch=1 n=f5 v=0
336210 On ch=1 n=c#4 v=0
336220 Par ch=1 c=64 v=24
336230 On ch=1 n=c#6 v=0
336235 On ch=1 n=c#5 v=0
336240 Par ch=1 c=64 v=0
336725 On ch=1 n=c#6 v=43
336740 On ch=1 n=c#5 v=29
336740 On ch=1 n=c#4 v=37
336740 On ch=1 n=g#4 v=34
336740 On ch=1 n=f5 v=44
336740 Par ch=1 c=64 v=24
336765 Par ch=1 c=64 v=72
336785 Par ch=1 c=64 v=127
336805 On ch=1 n=g#4 v=0
336815 On ch=1 n=c#4 v=0
336830 On ch=1 n=f5 v=0
336845 On ch=1 n=c#5 v=0
336855 On ch=1 n=c#6 v=0
337420 Par ch=1 c=64 v=88
337440 Par ch=1 c=64 v=56
337460 Par ch=1 c=64 v=24
337480 Par ch=1 c=64 v=0
338380 Par ch=1 c=64 v=127
338540 On ch=1 n=c#7 v=43
338550 On ch=1 n=f7 v=63
338595 On ch=1 n=c#7 v=0
338640 On ch=1 n=f7 v=0
338695 On ch=1 n=d#7 v=55
338710 On ch=1 n=f#7 v=56
338765 On ch=1 n=d#7 v=0
338800 On ch=1 n=f#7 v=0
338855 On ch=1 n=g7 v=68
338865 On ch=1 n=e7 v=52
338910 On ch=1 n=e7 v=0
338950 On ch=1 n=g7 v=0
339015 On ch=1 n=a#7 v=69
339025 On ch=1 n=f#7 v=59
339045 Par ch=1 c=64 v=88
339065 Par ch=1 c=64 v=0
339090 On ch=1 n=f#7 v=0
339120 On ch=1 n=a#7 v=0
339155 Par ch=1 c=64 v=56
339160 On ch=1 n=g#7 v=74
339170 Par ch=1 c=64 v=127
339175 On ch=1 n=f7 v=56
339210 On ch=1 n=f7 v=0
339240 On ch=1 n=g#7 v=0
339300 On ch=1 n=c#5 v=46
339305 On ch=1 n=g#7 v=62
339325 On ch=1 n=f7 v=54
339330 On ch=1 n=c#5 v=0
339360 On ch=1 n=f7 v=0
339390 On ch=1 n=g#7 v=0
339465 On ch=1 n=e7 v=59
339470 On ch=1 n=g7 v=74
339480 On ch=1 n=f6 v=39
339515 On ch=1 n=e7 v=0
339525 On ch=1 n=f6 v=0
339530 On ch=1 n=g7 v=0
339610 On ch=1 n=a#7 v=64
339615 On ch=1 n=f#7 v=60
339650 On ch=1 n=g#5 v=29
339685 On ch=1 n=g#5 v=0
339685 On ch=1 n=f#7 v=0
339690 On ch=1 n=a#7 v=0
339760 On ch=1 n=g#7 v=75
339770 On ch=1 n=f7 v=56
339780 On ch=1 n=f6 v=42
339805 On ch=1 n=f7 v=0
339825 On ch=1 n=g#7 v=0
339830 On ch=1 n=f6 v=0
339900 On ch=1 n=g#7 v=67
339930 On ch=1 n=f7 v=40
339930 On ch=1 n=c#6 v=43
339960 On ch=1 n=f7 v=0
339965 On ch=1 n=c#6 v=0
339985 On ch=1 n=g#7 v=0
340050 On ch=1 n=g7 v=72
340050 On ch=1 n=e7 v=54
340050 On ch=1 n=f6 v=49
340095 On ch=1 n=e7 v=0
340100 On ch=1 n=f6 v=0
340105 On ch=1 n=g7 v=0
340185 On ch=1 n=a#7 v=61
340195 On ch=1 n=f#7 v=50
340200 On ch=1 n=g#5 v=38
340245 On ch=1 n=f#7 v=0
340265 On ch=1 n=a#7 v=0
340280 On ch=1 n=g#5 v=0
340325 On ch=1 n=g#7 v=73
340330 On ch=1 n=f6 v=55
340335 On ch=1 n=f7 v=55
340365 On ch=1 n=f6 v=0
340370 On ch=1 n=f7 v=0
340390 On ch=1 n=g#7 v=0
340470 On ch=1 n=g#7 v=63
340485 On ch=1 n=f7 v=54
340485 On ch=1 n=c#5 v=46
340510 On ch=1 n=c#5 v=0
340515 On ch=1 n=f7 v=0
340545 On ch=1 n=g#7 v=0
340615 On ch=1 n=f6 v=52
340615 On ch=1 n=e7 v=58
340615 On ch=1 n=g7 v=71
340660 On ch=1 n=e7 v=0
340675 On ch=1 n=g7 v=0
340675 On ch=1 n=f6 v=0
340745 Par ch=1 c=64 v=88
340750 On ch=1 n=a#7 v=63
340755 On ch=1 n=f#7 v=57
340755 Par ch=1 c=64 v=56
340775 On ch=1 n=g#5 v=39
340800 Par ch=1 c=64 v=127
340815 On ch=1 n=f#7 v=0
340835 On ch=1 n=a#7 v=0
340850 On ch=1 n=g#5 v=0
340885 On ch=1 n=g#7 v=75
340900 On ch=1 n=f6 v=52
340900 On ch=1 n=f7 v=47
340935 On ch=1 n=f7 v=0
340945 On ch=1 n=f6 v=0
340950 On ch=1 n=g#7 v=0
341025 On ch=1 n=g#7 v=63
341030 On ch=1 n=f7 v=54
341045 On ch=1 n=c#6 v=49
341065 On ch=1 n=f7 v=0
341080 On ch=1 n=c#6 v=0
341110 On ch=1 n=g#7 v=0
341165 On ch=1 n=e7 v=60
341170 On ch=1 n=g7 v=74
341180 On ch=1 n=f6 v=42
341210 On ch=1 n=e7 v=0
341225 On ch=1 n=f6 v=0
341225 On ch=1 n=g7 v=0
341310 On ch=1 n=f#7 v=64
341310 On ch=1 n=a#7 v=64
341325 On ch=1 n=g#5 v=34
341365 On ch=1 n=f#7 v=0
341380 On ch=1 n=a#7 v=0
341410 On ch=1 n=g#5 v=0
341440 On ch=1 n=g#7 v=73
341455 On ch=1 n=f7 v=51
341460 On ch=1 n=f6 v=47
341485 On ch=1 n=f7 v=0
341490 On ch=1 n=f6 v=0
341500 On ch=1 n=g#7 v=0
341580 On ch=1 n=g#7 v=74
341595 On ch=1 n=f7 v=56
341595 On ch=1 n=c#5 v=48
341625 On ch=1 n=c#5 v=0
341625 On ch=1 n=f7 v=0
341660 On ch=1 n=g#7 v=0
341725 On ch=1 n=e7 v=64
341730 On ch=1 n=g7 v=77
341730 On ch=1 n=f6 v=49
341780 On ch=1 n=e7 v=0
341785 On ch=1 n=f6 v=0
341790 On ch=1 n=g7 v=0
341860 On ch=1 n=a#7 v=71
341865 On ch=1 n=f#7 v=64
341890 On ch=1 n=g#5 v=32
341930 On ch=1 n=g#5 v=0
341930 On ch=1 n=f#7 v=0
341945 On ch=1 n=a#7 v=0
341990 On ch=1 n=g#7 v=78
342005 On ch=1 n=f6 v=53
342005 On ch=1 n=f7 v=55
342035 On ch=1 n=f7 v=0
342050 On ch=1 n=g#7 v=0
342055 On ch=1 n=f6 v=0
342120 On ch=1 n=g#7 v=69
342135 On ch=1 n=f7 v=58
342150 On ch=1 n=c#6 v=52
342165 On ch=1 n=f7 v=0
342185 On ch=1 n=c#6 v=0
342200 On ch=1 n=g#7 v=0
342260 On ch=1 n=e7 v=63
342265 On ch=1 n=g7 v=79
342275 On ch=1 n=f6 v=49
342315 On ch=1 n=e7 v=0
342320 On ch=1 n=g7 v=0
342350 On ch=1 n=f6 v=0
342400 On ch=1 n=a#7 v=65
342400 On ch=1 n=f#7 v=67
342425 On ch=1 n=g#5 v=42
342465 On ch=1 n=f#7 v=0
342475 On ch=1 n=a#7 v=0
342520 On ch=1 n=g#5 v=0
342535 On ch=1 n=g#7 v=78
342535 On ch=1 n=f7 v=64
342590 On ch=1 n=f7 v=0
342600 On ch=1 n=g#7 v=0
342675 On ch=1 n=g#7 v=80
342695 On ch=1 n=f7 v=51
342695 On ch=1 n=c#5 v=37
342725 On ch=1 n=f7 v=0
342745 On ch=1 n=c#5 v=0
342750 On ch=1 n=g#7 v=0
342830 On ch=1 n=f8 v=76
342900 On ch=1 n=f8 v=0
342925 Par ch=1 c=64 v=104
342940 Par ch=1 c=64 v=24
342955 Par ch=1 c=64 v=0
342960 On ch=1 n=f8 v=81
342965 On ch=1 n=f7 v=78
343005 On ch=1 n=a5 v=42
343040 On ch=1 n=f7 v=0
343045 Par ch=1 c=64 v=40
343060 On ch=1 n=f8 v=0
343060 Par ch=1 c=64 v=127
343105 On ch=1 n=e8 v=82
343130 On ch=1 n=a5 v=0
343185 On ch=1 n=e8 v=0
343235 On ch=1 n=e8 v=80
343245 On ch=1 n=f7 v=67
343270 On ch=1 n=f6 v=42
343270 On ch=1 n=c6 v=47
343310 On ch=1 n=f7 v=0
343315 On ch=1 n=c6 v=0
343320 On ch=1 n=e8 v=0
343335 On ch=1 n=f6 v=0
343370 On ch=1 n=d#8 v=79
343445 On ch=1 n=d#8 v=0
343475 Par ch=1 c=64 v=104
343490 Par ch=1 c=64 v=40
343505 Par ch=1 c=64 v=0
343515 On ch=1 n=d#8 v=76
343525 On ch=1 n=f7 v=67
343530 On ch=1 n=a#5 v=48
343550 Par ch=1 c=64 v=72
343565 Par ch=1 c=64 v=127
343595 On ch=1 n=f7 v=0
343610 On ch=1 n=d#8 v=0
343660 On ch=1 n=d8 v=79
343720 On ch=1 n=d8 v=0
343730 On ch=1 n=a#5 v=0
343780 On ch=1 n=a#6 v=50
343800 On ch=1 n=d8 v=76
343810 On ch=1 n=a#6 v=0
343810 On ch=1 n=f7 v=61
343810 On ch=1 n=f6 v=41
343840 On ch=1 n=f6 v=0
343865 On ch=1 n=f7 v=0
343875 On ch=1 n=d8 v=0
343920 On ch=1 n=c#8 v=72
344005 On ch=1 n=c#8 v=0
344025 Par ch=1 c=64 v=88
344040 Par ch=1 c=64 v=0
344060 On ch=1 n=f5 v=54
344070 On ch=1 n=c#8 v=62
344080 On ch=1 n=f7 v=59
344095 On ch=1 n=f5 v=0
344100 Par ch=1 c=64 v=56
344115 On ch=1 n=f7 v=0
344115 Par ch=1 c=64 v=127
344140 On ch=1 n=c#8 v=0
344215 On ch=1 n=c8 v=74
344225 On ch=1 n=f7 v=46
344260 On ch=1 n=f7 v=0
344275 On ch=1 n=c8 v=0
344355 On ch=1 n=c8 v=71
344370 On ch=1 n=f7 v=53
344375 On ch=1 n=d#7 v=47
344385 On ch=1 n=f6 v=41
344395 On ch=1 n=a6 v=37
344410 On ch=1 n=f7 v=0
344425 On ch=1 n=f6 v=0
344430 On ch=1 n=a6 v=0
344440 On ch=1 n=d#7 v=0
344440 On ch=1 n=c8 v=0
344480 On ch=1 n=b7 v=73
344540 On ch=1 n=b7 v=0
344605 Par ch=1 c=64 v=56
344620 On ch=1 n=c#8 v=73
344620 Par ch=1 c=64 v=0
344645 On ch=1 n=c8 v=67
344645 On ch=1 n=c#7 v=49
344655 On ch=1 n=a#6 v=43
344655 On ch=1 n=f7 v=25
344690 On ch=1 n=c#8 v=0
344695 Par ch=1 c=64 v=56
344710 Par ch=1 c=64 v=127
344735 On ch=1 n=c#7 v=0
344740 On ch=1 n=a#6 v=0
344750 On ch=1 n=c8 v=0
344775 On ch=1 n=a#7 v=73
344810 On ch=1 n=f7 v=0
344855 On ch=1 n=a#7 v=0
344900 On ch=1 n=c8 v=74
344900 Par ch=1 c=64 v=72
344915 Par ch=1 c=64 v=40
344925 On ch=1 n=f7 v=56
344925 On ch=1 n=d#7 v=42
344930 On ch=1 n=a#7 v=55
344945 Par ch=1 c=64 v=56
344950 On ch=1 n=c7 v=37
344960 Par ch=1 c=64 v=88
344975 On ch=1 n=f6 v=28
344975 Par ch=1 c=64 v=127
344985 On ch=1 n=c7 v=0
344990 On ch=1 n=c8 v=0
345000 On ch=1 n=d#7 v=0
345010 On ch=1 n=f6 v=0
345030 On ch=1 n=f7 v=0
345060 On ch=1 n=a7 v=82
345070 On ch=1 n=a#7 v=0
345120 On ch=1 n=a7 v=0
345140 Par ch=1 c=64 v=72
345150 Par ch=1 c=64 v=0
345180 On ch=1 n=c#8 v=69
345185 On ch=1 n=c#7 v=49
345190 On ch=1 n=c8 v=86
345195 On ch=1 n=f7 v=62
345200 On ch=1 n=a#6 v=45
345200 Par ch=1 c=64 v=40
345215 Par ch=1 c=64 v=88
345225 Par ch=1 c=64 v=127
345280 On ch=1 n=a#6 v=0
345285 On ch=1 n=c#8 v=0
345295 On ch=1 n=c8 v=0
345300 On ch=1 n=c#7 v=0
345310 On ch=1 n=f7 v=0
345325 On ch=1 n=a#7 v=72
345400 On ch=1 n=a#7 v=0
345405 Par ch=1 c=64 v=104
345420 Par ch=1 c=64 v=40
345435 Par ch=1 c=64 v=0
345450 On ch=1 n=c8 v=74
345450 On ch=1 n=d#7 v=49
345470 On ch=1 n=a#7 v=57
345470 On ch=1 n=f7 v=59
345475 On ch=1 n=c7 v=44
345480 On ch=1 n=f6 v=42
345480 Par ch=1 c=64 v=56
345490 Par ch=1 c=64 v=88
345505 On ch=1 n=c7 v=0
345505 On ch=1 n=f7 v=0
345510 Par ch=1 c=64 v=127
345515 On ch=1 n=f6 v=0
345525 On ch=1 n=d#7 v=0
345535 On ch=1 n=c8 v=0
345590 On ch=1 n=a#7 v=0
345600 On ch=1 n=a7 v=73
345650 On ch=1 n=a7 v=0
345655 Par ch=1 c=64 v=104
345670 Par ch=1 c=64 v=40
345685 Par ch=1 c=64 v=0
345720 On ch=1 n=c#8 v=61
345730 On ch=1 n=c8 v=80
345730 On ch=1 n=c#7 v=58
345735 On ch=1 n=f7 v=56
345735 Par ch=1 c=64 v=24
345745 On ch=1 n=a#6 v=46
345750 Par ch=1 c=64 v=72
345765 Par ch=1 c=64 v=127
345780 On ch=1 n=f7 v=0
345805 On ch=1 n=a#6 v=0
345810 On ch=1 n=c#8 v=0
345830 On ch=1 n=c8 v=0
345845 On ch=1 n=c#7 v=0
345855 On ch=1 n=a#7 v=71
345930 On ch=1 n=a#7 v=0
345955 Par ch=1 c=64 v=104
345970 Par ch=1 c=64 v=72
345995 On ch=1 n=c8 v=74
346000 On ch=1 n=a#7 v=60
346000 On ch=1 n=d#7 v=47
346015 On ch=1 n=f7 v=58
346015 On ch=1 n=c7 v=48
346015 Par ch=1 c=64 v=127
346030 On ch=1 n=f6 v=43
346050 On ch=1 n=c7 v=0
346055 On ch=1 n=f7 v=0
346065 On ch=1 n=f6 v=0
346070 On ch=1 n=d#7 v=0
346085 On ch=1 n=c8 v=0
346110 On ch=1 n=a#7 v=0
346135 On ch=1 n=a7 v=76
346195 On ch=1 n=a7 v=0
346220 Par ch=1 c=64 v=88
346235 Par ch=1 c=64 v=56
346265 On ch=1 n=c#8 v=58
346275 On ch=1 n=c#7 v=46
346280 On ch=1 n=c8 v=76
346280 Par ch=1 c=64 v=127
346290 On ch=1 n=f7 v=44
346295 On ch=1 n=a#6 v=38
346365 On ch=1 n=c#8 v=0
346370 On ch=1 n=c8 v=0
346375 On ch=1 n=c#7 v=0
346385 On ch=1 n=a#6 v=0
346400 On ch=1 n=a#7 v=71
346405 On ch=1 n=f7 v=0
346480 On ch=1 n=a#7 v=0
346540 On ch=1 n=c8 v=73
346545 On ch=1 n=d#7 v=46
346560 On ch=1 n=a#7 v=51
346565 On ch=1 n=f6 v=49
346565 On ch=1 n=c7 v=39
346570 On ch=1 n=f7 v=39
346600 On ch=1 n=f7 v=0
346600 On ch=1 n=c7 v=0
346600 On ch=1 n=f6 v=0
346625 On ch=1 n=d#7 v=0
346625 On ch=1 n=c8 v=0
346640 On ch=1 n=a#7 v=0
346680 On ch=1 n=a7 v=77
346700 On ch=1 n=f7 v=44
346745 On ch=1 n=f7 v=0
346760 On ch=1 n=a7 v=0
346845 Par ch=1 c=64 v=88
346850 On ch=1 n=a#7 v=73
346860 On ch=1 n=c#7 v=67
346860 Par ch=1 c=64 v=0
346865 On ch=1 n=f7 v=48
346865 On ch=1 n=a#6 v=53
346915 On ch=1 n=f7 v=0
346940 On ch=1 n=a#6 v=0
346945 On ch=1 n=c#7 v=0
346950 Par ch=1 c=64 v=104
346965 On ch=1 n=a#7 v=0
346965 Par ch=1 c=64 v=127
347010 On ch=1 n=a#7 v=58
347090 On ch=1 n=a#7 v=0
347125 On ch=1 n=c8 v=55
347185 On ch=1 n=c8 v=0
347190 On ch=1 n=a#7 v=56
347250 On ch=1 n=a#7 v=0
347265 On ch=1 n=c8 v=56
347330 On ch=1 n=c8 v=0
347345 On ch=1 n=a#7 v=51
347390 On ch=1 n=a#7 v=0
347405 On ch=1 n=c8 v=55
347470 On ch=1 n=c8 v=0
347475 On ch=1 n=a#7 v=56
347530 On ch=1 n=a#7 v=0
347535 On ch=1 n=c8 v=55
347605 On ch=1 n=c8 v=0
347615 On ch=1 n=a#7 v=47
347660 On ch=1 n=a#7 v=0
347670 On ch=1 n=c8 v=53
347740 On ch=1 n=c8 v=0
347750 On ch=1 n=a#7 v=51
347800 On ch=1 n=a#7 v=0
347805 On ch=1 n=c8 v=56
347870 On ch=1 n=c8 v=0
347890 On ch=1 n=a#7 v=51
347930 On ch=1 n=a#7 v=0
347940 On ch=1 n=c8 v=52
348000 On ch=1 n=c8 v=0
348015 On ch=1 n=a#7 v=56
348070 On ch=1 n=a#7 v=0
348075 On ch=1 n=c8 v=56
348135 On ch=1 n=c8 v=0
348150 On ch=1 n=a#7 v=52
348200 On ch=1 n=a#7 v=0
348205 On ch=1 n=c8 v=56
348270 On ch=1 n=c8 v=0
348290 On ch=1 n=a#7 v=50
348325 On ch=1 n=a#7 v=0
348335 On ch=1 n=c8 v=53
348400 On ch=1 n=c8 v=0
348420 On ch=1 n=a#7 v=56
348460 On ch=1 n=a#7 v=0
348465 On ch=1 n=c8 v=54
348535 On ch=1 n=c8 v=0
348545 On ch=1 n=a#7 v=60
348610 On ch=1 n=a#7 v=0
348615 On ch=1 n=c8 v=61
348690 On ch=1 n=c8 v=0
348690 On ch=1 n=a#7 v=40
348745 On ch=1 n=a#7 v=0
348755 On ch=1 n=c8 v=62
348835 On ch=1 n=a#7 v=54
348845 On ch=1 n=c8 v=0
348945 On ch=1 n=a#7 v=0
348950 On ch=1 n=a7 v=68
349035 On ch=1 n=a7 v=0
349045 On ch=1 n=a#7 v=55
349160 On ch=1 n=a#7 v=0
349175 On ch=1 n=b7 v=68
349250 Par ch=1 c=64 v=72
349265 Par ch=1 c=64 v=0
349280 On ch=1 n=c8 v=73
349310 On ch=1 n=b7 v=0
349310 Par ch=1 c=64 v=40
349315 On ch=1 n=a#5 v=46
349325 Par ch=1 c=64 v=127
349365 On ch=1 n=c8 v=0
349390 On ch=1 n=a#5 v=0
349470 On ch=1 n=c#7 v=58
349490 On ch=1 n=c#8 v=68
349565 On ch=1 n=c#7 v=0
349585 On ch=1 n=c#8 v=0
349610 On ch=1 n=d#8 v=60
349680 On ch=1 n=d#8 v=0
349705 On ch=1 n=c#8 v=61
349770 On ch=1 n=c#8 v=0
349780 On ch=1 n=d#8 v=61
349845 On ch=1 n=d#8 v=0
349860 On ch=1 n=c#8 v=61
349915 On ch=1 n=c#8 v=0
349925 On ch=1 n=d#8 v=60
349995 On ch=1 n=d#8 v=0
350005 On ch=1 n=c#8 v=59
350010 On ch=1 n=a#5 v=42
350060 On ch=1 n=c#8 v=0
350060 On ch=1 n=d#8 v=58
350120 On ch=1 n=a#5 v=0
350130 On ch=1 n=d#8 v=0
350150 On ch=1 n=c#8 v=59
350155 On ch=1 n=c#7 v=64
350195 On ch=1 n=c#8 v=0
350195 On ch=1 n=d#8 v=54
350220 On ch=1 n=c#7 v=0
350270 On ch=1 n=d#8 v=0
350280 On ch=1 n=c#8 v=56
350335 On ch=1 n=c#8 v=0
350335 On ch=1 n=d#8 v=54
350405 On ch=1 n=d#8 v=0
350420 On ch=1 n=c#8 v=40
350475 On ch=1 n=d#8 v=58
350485 On ch=1 n=c#8 v=0
350540 On ch=1 n=d#8 v=0
350550 On ch=1 n=c#8 v=51
350615 On ch=1 n=c#8 v=0
350620 On ch=1 n=g#5 v=51
350625 On ch=1 n=d#8 v=68
350690 On ch=1 n=g#5 v=0
350705 On ch=1 n=c#8 v=49
350725 On ch=1 n=d#8 v=0
350765 On ch=1 n=c7 v=64
350800 On ch=1 n=c#8 v=0
350800 On ch=1 n=c8 v=66
350835 On ch=1 n=c7 v=0
350885 On ch=1 n=c8 v=0
350895 On ch=1 n=c#8 v=65
350975 On ch=1 n=c#8 v=0
350990 On ch=1 n=d#8 v=60
351070 On ch=1 n=d#8 v=0
351070 On ch=1 n=c#8 v=62
351120 On ch=1 n=c#8 v=0
351135 On ch=1 n=d#8 v=61
351210 On ch=1 n=d#8 v=0
351220 On ch=1 n=c#8 v=58
351280 On ch=1 n=d#8 v=57
351290 On ch=1 n=c#8 v=0
351345 On ch=1 n=d#8 v=0
351365 On ch=1 n=c#8 v=51
351430 On ch=1 n=c#8 v=0
351430 On ch=1 n=d#8 v=62
351520 On ch=1 n=f#5 v=46
351530 On ch=1 n=c#8 v=62
351560 On ch=1 n=f#5 v=0
351565 On ch=1 n=d#8 v=0
351630 On ch=1 n=a#6 v=62
351630 On ch=1 n=a#7 v=55
351645 On ch=1 n=c#8 v=0
351680 On ch=1 n=a#6 v=0
351730 Par ch=1 c=64 v=40
351735 On ch=1 n=a#7 v=0
351745 Par ch=1 c=64 v=0
351790 On ch=1 n=f5 v=63
351805 On ch=1 n=c#8 v=20
351815 Par ch=1 c=64 v=24
351830 Par ch=1 c=64 v=104
351845 Par ch=1 c=64 v=127
351855 On ch=1 n=c#8 v=0
351855 On ch=1 n=f5 v=0
351860 On ch=1 n=g#7 v=64
351920 On ch=1 n=g#6 v=62
351955 On ch=1 n=g#7 v=0
351975 On ch=1 n=g#6 v=0
351985 On ch=1 n=c#8 v=50
352070 On ch=1 n=c#8 v=0
352095 On ch=1 n=d#8 v=54
352160 On ch=1 n=d#8 v=0
352190 On ch=1 n=c#8 v=53
352265 On ch=1 n=c#8 v=0
352290 On ch=1 n=d#8 v=51
352340 On ch=1 n=g#5 v=49
352350 On ch=1 n=c#8 v=39
352375 On ch=1 n=d#8 v=0
352410 On ch=1 n=g#5 v=0
352410 On ch=1 n=f6 v=43
352445 On ch=1 n=c#8 v=0
352455 On ch=1 n=f6 v=0
352455 On ch=1 n=g#7 v=71
352455 On ch=1 n=g#6 v=55
352500 On ch=1 n=g#6 v=0
352525 On ch=1 n=g#7 v=0
352550 On ch=1 n=c#8 v=62
352625 On ch=1 n=c#8 v=0
352655 On ch=1 n=d#8 v=55
352720 On ch=1 n=d#8 v=0
352725 On ch=1 n=c#8 v=47
352780 On ch=1 n=c#8 v=0
352795 On ch=1 n=d#8 v=53
352855 On ch=1 n=d#8 v=0
352880 On ch=1 n=c#8 v=55
352930 On ch=1 n=c#8 v=0
352935 On ch=1 n=d#8 v=58
353000 On ch=1 n=d#8 v=0
353030 On ch=1 n=c#8 v=44
353065 On ch=1 n=c#8 v=0
353065 On ch=1 n=d#8 v=47
353140 On ch=1 n=d#8 v=0
353165 On ch=1 n=c#8 v=53
353215 On ch=1 n=c#8 v=0
353215 On ch=1 n=d#8 v=44
353285 On ch=1 n=d#8 v=0
353310 On ch=1 n=c#8 v=50
353365 On ch=1 n=d#8 v=57
353370 On ch=1 n=c#8 v=0
353435 On ch=1 n=d#8 v=0
353460 On ch=1 n=c#8 v=45
353510 On ch=1 n=a6 v=50
353510 On ch=1 n=f6 v=46
353515 On ch=1 n=c#8 v=0
353530 On ch=1 n=d#8 v=65
353620 On ch=1 n=f6 v=0
353620 On ch=1 n=c#8 v=56
353625 On ch=1 n=d#8 v=0
353625 On ch=1 n=a6 v=0
353745 On ch=1 n=c#8 v=0
353750 On ch=1 n=c8 v=58
353845 On ch=1 n=c8 v=0
353870 On ch=1 n=c#8 v=61
353955 On ch=1 n=c#8 v=0
353985 On ch=1 n=d8 v=73
354010 Par ch=1 c=64 v=72
354025 Par ch=1 c=64 v=0
354060 On ch=1 n=g#5 v=54
354090 Par ch=1 c=64 v=72
354105 Par ch=1 c=64 v=127
354125 On ch=1 n=g#5 v=0
354130 On ch=1 n=d8 v=0
354140 On ch=1 n=c6 v=48
354160 On ch=1 n=f#6 v=54
354205 On ch=1 n=c6 v=0
354240 On ch=1 n=a#6 v=55
354260 On ch=1 n=f8 v=69
354290 On ch=1 n=f#6 v=0
354310 On ch=1 n=a#6 v=0
354435 On ch=1 n=f8 v=0
354445 On ch=1 n=e8 v=77
354575 On ch=1 n=e8 v=0
354575 On ch=1 n=d#8 v=69
354660 On ch=1 n=d#8 v=0
354680 On ch=1 n=d8 v=56
354745 On ch=1 n=d8 v=0
354755 On ch=1 n=c#8 v=60
354850 On ch=1 n=c8 v=60
354870 On ch=1 n=c#8 v=0
354910 On ch=1 n=c8 v=0
354935 On ch=1 n=b7 v=62
354980 On ch=1 n=b7 v=0
355020 On ch=1 n=a#7 v=54
355080 On ch=1 n=a#7 v=0
355105 On ch=1 n=a7 v=55
355150 On ch=1 n=a7 v=0
355175 On ch=1 n=g#7 v=53
355225 On ch=1 n=g#7 v=0
355265 On ch=1 n=g7 v=51
355305 On ch=1 n=g7 v=0
355335 On ch=1 n=f#7 v=46
355420 On ch=1 n=f#7 v=0
355420 On ch=1 n=f7 v=64
355485 On ch=1 n=f7 v=0
355520 On ch=1 n=e7 v=50
355580 On ch=1 n=e7 v=0
355605 On ch=1 n=d#7 v=55
355665 On ch=1 n=d#7 v=0
355685 On ch=1 n=d7 v=54
355750 On ch=1 n=c#7 v=54
355755 On ch=1 n=d7 v=0
355845 On ch=1 n=c#7 v=0
355850 On ch=1 n=c7 v=56
355900 On ch=1 n=c7 v=0
355935 On ch=1 n=b6 v=52
355985 On ch=1 n=b6 v=0
356025 On ch=1 n=a#6 v=46
356085 On ch=1 n=a#6 v=0
356110 On ch=1 n=a6 v=41
356150 On ch=1 n=a6 v=0
356180 On ch=1 n=g#6 v=46
356235 On ch=1 n=g#6 v=0
356260 On ch=1 n=g6 v=48
356315 On ch=1 n=g#4 v=48
356330 Par ch=1 c=64 v=56
356345 On ch=1 n=g#4 v=0
356345 Par ch=1 c=64 v=24
356360 On ch=1 n=f#6 v=53
356365 On ch=1 n=g6 v=0
356370 On ch=1 n=d#5 v=51
356385 Par ch=1 c=64 v=88
356390 On ch=1 n=f#5 v=47
356400 Par ch=1 c=64 v=127
356460 On ch=1 n=d#5 v=0
356470 On ch=1 n=c6 v=39
356480 On ch=1 n=f6 v=60
356490 On ch=1 n=f#6 v=0
356495 On ch=1 n=f#5 v=0
356520 On ch=1 n=c6 v=0
356560 On ch=1 n=f6 v=0
356600 On ch=1 n=e6 v=54
356665 On ch=1 n=e6 v=0
356680 On ch=1 n=d#6 v=54
356745 On ch=1 n=d#6 v=0
356770 On ch=1 n=d6 v=53
356825 On ch=1 n=d6 v=0
356825 On ch=1 n=c#6 v=54
356920 On ch=1 n=c#6 v=0
356925 On ch=1 n=c6 v=54
356990 On ch=1 n=c6 v=0
357025 On ch=1 n=b5 v=56
357100 On ch=1 n=b5 v=0
357110 On ch=1 n=a#5 v=48
357185 On ch=1 n=a#5 v=0
357205 On ch=1 n=a5 v=54
357275 On ch=1 n=a5 v=0
357290 On ch=1 n=g#5 v=46
357350 Par ch=1 c=64 v=88
357355 On ch=1 n=g#5 v=0
357360 Par ch=1 c=64 v=72
357370 On ch=1 n=g5 v=51
357375 Par ch=1 c=64 v=88
357390 Par ch=1 c=64 v=127
357440 On ch=1 n=f#5 v=49
357455 On ch=1 n=g5 v=0
357535 On ch=1 n=f5 v=59
357540 On ch=1 n=f#5 v=0
357625 On ch=1 n=f5 v=0
357655 On ch=1 n=e5 v=52
357715 On ch=1 n=e5 v=0
357755 On ch=1 n=d#5 v=46
357820 On ch=1 n=d#5 v=0
357845 On ch=1 n=d5 v=51
357915 On ch=1 n=c#5 v=59
357925 On ch=1 n=d5 v=0
357955 Par ch=1 c=64 v=104
358000 Par ch=1 c=64 v=127
358030 On ch=1 n=c#5 v=0
358030 On ch=1 n=c5 v=58
358095 On ch=1 n=c5 v=0
358120 On ch=1 n=b4 v=52
358195 On ch=1 n=b4 v=0
358235 On ch=1 n=a#4 v=42
358315 On ch=1 n=a#4 v=0
358355 On ch=1 n=a4 v=56
358460 On ch=1 n=a4 v=0
358470 On ch=1 n=g#4 v=55
358545 On ch=1 n=g#4 v=0
358610 On ch=1 n=c#3 v=53
358655 Par ch=1 c=64 v=56
358670 Par ch=1 c=64 v=0
358730 On ch=1 n=g#3 v=47
358760 Par ch=1 c=64 v=104
358775 Par ch=1 c=64 v=127
358835 On ch=1 n=c#4 v=48
358850 On ch=1 n=c#3 v=0
358900 On ch=1 n=g#3 v=0
358945 On ch=1 n=c#4 v=0
358960 On ch=1 n=f4 v=56
359010 On ch=1 n=f4 v=0
359040 On ch=1 n=g#4 v=42
359140 On ch=1 n=g#4 v=0
359140 On ch=1 n=c#5 v=46
359220 On ch=1 n=f5 v=59
359230 On ch=1 n=c#5 v=0
359285 On ch=1 n=f5 v=0
359355 On ch=1 n=g#5 v=56
359445 On ch=1 n=c#6 v=54
359450 On ch=1 n=g#5 v=0
359540 On ch=1 n=f6 v=56
359560 On ch=1 n=c#6 v=0
359605 On ch=1 n=g#6 v=49
359620 On ch=1 n=f6 v=0
359660 On ch=1 n=g#6 v=0
359690 On ch=1 n=c#7 v=54
359790 On ch=1 n=c#7 v=0
359795 On ch=1 n=f7 v=54
359905 On ch=1 n=f7 v=0
359905 On ch=1 n=g#7 v=57
360025 On ch=1 n=g#7 v=0
360025 On ch=1 n=c#8 v=58
360090 On ch=1 n=c#8 v=0
361085 Par ch=1 c=64 v=104
361100 Par ch=1 c=64 v=88
361115 Par ch=1 c=64 v=56
361330 Par ch=1 c=64 v=56
361345 Par ch=1 c=64 v=104
361365 Par ch=1 c=64 v=127
361395 On ch=1 n=f6 v=44
361395 On ch=1 n=c#6 v=20
361435 On ch=1 n=c#6 v=0
361475 On ch=1 n=f6 v=0
361550 On ch=1 n=f#6 v=58
361555 On ch=1 n=d#6 v=34
361595 On ch=1 n=d#6 v=0
361625 On ch=1 n=f#6 v=0
361715 On ch=1 n=g6 v=70
361715 On ch=1 n=e6 v=57
361760 On ch=1 n=e6 v=0
361785 On ch=1 n=g6 v=0
361875 On ch=1 n=a#6 v=62
361875 On ch=1 n=f#6 v=64
361925 Par ch=1 c=64 v=88
361940 Par ch=1 c=64 v=0
361950 On ch=1 n=f#6 v=0
361960 On ch=1 n=a#6 v=0
362025 On ch=1 n=g#6 v=69
362045 On ch=1 n=f6 v=59
362070 Par ch=1 c=64 v=88
362080 On ch=1 n=f6 v=0
362090 Par ch=1 c=64 v=127
362105 On ch=1 n=g#6 v=0
362175 On ch=1 n=c#4 v=47
362175 On ch=1 n=g#6 v=68
362195 On ch=1 n=f6 v=59
362230 On ch=1 n=f6 v=0
362230 On ch=1 n=c#4 v=0
362265 On ch=1 n=g#6 v=0
362335 On ch=1 n=g6 v=73
362335 On ch=1 n=e6 v=56
362355 On ch=1 n=f5 v=39
362370 On ch=1 n=e6 v=0
362390 On ch=1 n=g6 v=0
362410 On ch=1 n=f5 v=0
362475 On ch=1 n=f#6 v=64
362485 On ch=1 n=a#6 v=64
362515 On ch=1 n=g#4 v=40
362550 On ch=1 n=g#4 v=0
362550 On ch=1 n=a#6 v=0
362550 On ch=1 n=f#6 v=0
362620 On ch=1 n=f5 v=46
362625 On ch=1 n=g#6 v=71
362640 On ch=1 n=f6 v=56
362675 On ch=1 n=f5 v=0
362680 On ch=1 n=f6 v=0
362690 On ch=1 n=g#6 v=0
362770 On ch=1 n=g#6 v=71
362770 On ch=1 n=f6 v=53
362775 On ch=1 n=c#5 v=49
362800 On ch=1 n=c#5 v=0
362815 On ch=1 n=f6 v=0
362845 On ch=1 n=g#6 v=0
362905 On ch=1 n=f5 v=44
362910 On ch=1 n=e6 v=59
362910 On ch=1 n=g6 v=74
362945 On ch=1 n=e6 v=0
362965 On ch=1 n=g6 v=0
362985 On ch=1 n=f5 v=0
363050 On ch=1 n=a#6 v=66
363050 On ch=1 n=f#6 v=61
363070 On ch=1 n=g#4 v=44
363110 On ch=1 n=f#6 v=0
363130 On ch=1 n=a#6 v=0
363165 On ch=1 n=g#4 v=0
363195 On ch=1 n=f5 v=58
363200 On ch=1 n=g#6 v=70
363210 On ch=1 n=f6 v=55
363235 On ch=1 n=f5 v=0
363245 On ch=1 n=f6 v=0
363255 On ch=1 n=g#6 v=0
363335 On ch=1 n=g#6 v=67
363340 On ch=1 n=c#4 v=55
363345 On ch=1 n=f6 v=54
363380 On ch=1 n=f6 v=0
363385 On ch=1 n=c#4 v=0
363405 On ch=1 n=g#6 v=0
363485 On ch=1 n=e6 v=56
363485 On ch=1 n=g6 v=70
363500 On ch=1 n=f5 v=41
363520 On ch=1 n=e6 v=0
363535 On ch=1 n=g6 v=0
363550 On ch=1 n=f5 v=0
363615 On ch=1 n=a#6 v=70
363620 On ch=1 n=f#6 v=64
363625 On ch=1 n=g#4 v=53
363680 On ch=1 n=f#6 v=0
363690 On ch=1 n=a#6 v=0
363700 On ch=1 n=g#4 v=0
363745 On ch=1 n=f5 v=51
363755 On ch=1 n=g#6 v=68
363770 On ch=1 n=f6 v=54
363810 On ch=1 n=f6 v=0
363820 On ch=1 n=g#6 v=0
363825 On ch=1 n=f5 v=0
363890 On ch=1 n=g#6 v=71
363910 On ch=1 n=f6 v=47
363910 On ch=1 n=c#5 v=44
363945 On ch=1 n=c#5 v=0
363945 On ch=1 n=f6 v=0
363975 On ch=1 n=g#6 v=0
364025 On ch=1 n=f5 v=53
364040 On ch=1 n=e6 v=58
364040 On ch=1 n=g6 v=68
364075 On ch=1 n=e6 v=0
364085 On ch=1 n=g6 v=0
364115 On ch=1 n=f5 v=0
364165 On ch=1 n=a#6 v=73
364175 On ch=1 n=f#6 v=56
364180 On ch=1 n=g#4 v=47
364225 On ch=1 n=f#6 v=0
364245 On ch=1 n=a#6 v=0
364275 On ch=1 n=g#4 v=0
364305 On ch=1 n=g#6 v=70
364305 On ch=1 n=f5 v=56
364305 On ch=1 n=f6 v=53
364335 On ch=1 n=f6 v=0
364360 On ch=1 n=f5 v=0
364370 On ch=1 n=g#6 v=0
364425 On ch=1 n=g#6 v=71
364425 On ch=1 n=f6 v=55
364425 On ch=1 n=c#4 v=46
364465 On ch=1 n=f6 v=0
364490 On ch=1 n=c#4 v=0
364515 On ch=1 n=g#6 v=0
364575 On ch=1 n=g6 v=69
364585 On ch=1 n=e6 v=53
364605 On ch=1 n=f5 v=47
364615 On ch=1 n=e6 v=0
364640 On ch=1 n=g6 v=0
364650 On ch=1 n=f5 v=0
364715 On ch=1 n=a#6 v=70
364715 On ch=1 n=f#6 v=64
364730 On ch=1 n=g#4 v=44
364770 On ch=1 n=g#4 v=0
364780 On ch=1 n=f#6 v=0
364795 On ch=1 n=a#6 v=0
364845 On ch=1 n=f5 v=52
364860 On ch=1 n=g#6 v=67
364865 On ch=1 n=f6 v=51
364905 On ch=1 n=f6 v=0
364915 On ch=1 n=g#6 v=0
364920 On ch=1 n=f5 v=0
364990 On ch=1 n=g#6 v=58
365000 On ch=1 n=f6 v=49
365005 On ch=1 n=c#5 v=44
365035 On ch=1 n=f6 v=0
365045 On ch=1 n=c#5 v=0
365065 On ch=1 n=g#6 v=0
365125 On ch=1 n=e6 v=62
365130 On ch=1 n=g6 v=78
365130 On ch=1 n=f5 v=53
365170 On ch=1 n=e6 v=0
365185 On ch=1 n=g6 v=0
365205 On ch=1 n=f5 v=0
365255 On ch=1 n=a#6 v=64
365270 On ch=1 n=f#6 v=58
365275 On ch=1 n=g#4 v=47
365325 On ch=1 n=f#6 v=0
365335 On ch=1 n=a#6 v=0
365375 On ch=1 n=g#4 v=0
365410 On ch=1 n=f6 v=60
365410 On ch=1 n=f5 v=56
365415 On ch=1 n=g#6 v=71
365450 On ch=1 n=f5 v=0
365465 On ch=1 n=g#6 v=0
365470 On ch=1 n=f6 v=0
365545 On ch=1 n=g#6 v=70
365555 On ch=1 n=f6 v=55
365565 On ch=1 n=c#4 v=47
365590 On ch=1 n=c#4 v=0
365600 On ch=1 n=f6 v=0
365610 On ch=1 n=g#6 v=0
365700 On ch=1 n=f7 v=85
365775 On ch=1 n=f7 v=0
365795 Par ch=1 c=64 v=72
365810 Par ch=1 c=64 v=0
365855 On ch=1 n=f7 v=77
365865 On ch=1 n=f6 v=72
365875 On ch=1 n=a4 v=59
365925 Par ch=1 c=64 v=56
365940 On ch=1 n=f6 v=0
365945 On ch=1 n=f7 v=0
365945 Par ch=1 c=64 v=127
365990 On ch=1 n=e7 v=79
366070 On ch=1 n=e7 v=0
366070 On ch=1 n=a4 v=0
366130 On ch=1 n=e7 v=78
366140 On ch=1 n=c5 v=56
366140 On ch=1 n=f5 v=53
366145 On ch=1 n=f6 v=63
366185 On ch=1 n=c5 v=0
366205 On ch=1 n=f6 v=0
366220 On ch=1 n=e7 v=0
366225 On ch=1 n=f5 v=0
366265 On ch=1 n=d#7 v=74
366345 On ch=1 n=d#7 v=0
366355 Par ch=1 c=64 v=104
366370 Par ch=1 c=64 v=40
366390 Par ch=1 c=64 v=0
366405 On ch=1 n=d#7 v=72
366425 On ch=1 n=f6 v=65
366430 On ch=1 n=a#4 v=45
366455 Par ch=1 c=64 v=40
366460 On ch=1 n=f6 v=0
366470 Par ch=1 c=64 v=88
366485 Par ch=1 c=64 v=127
366495 On ch=1 n=d#7 v=0
366555 On ch=1 n=d7 v=79
366625 On ch=1 n=d7 v=0
366675 On ch=1 n=a#4 v=0
366690 On ch=1 n=d7 v=72
366690 On ch=1 n=a#5 v=55
366700 On ch=1 n=f6 v=59
366710 On ch=1 n=f5 v=52
366745 On ch=1 n=f5 v=0
366745 On ch=1 n=a#5 v=0
366755 On ch=1 n=f6 v=0
366770 On ch=1 n=d7 v=0
366825 On ch=1 n=c#7 v=75
366910 On ch=1 n=c#7 v=0
366930 Par ch=1 c=64 v=104
366945 Par ch=1 c=64 v=40
366965 On ch=1 n=c#7 v=67
366965 Par ch=1 c=64 v=0
366980 On ch=1 n=f4 v=60
366985 On ch=1 n=f6 v=66
367010 On ch=1 n=f4 v=0
367020 On ch=1 n=f6 v=0
367030 Par ch=1 c=64 v=40
367045 Par ch=1 c=64 v=88
367050 On ch=1 n=c#7 v=0
367060 Par ch=1 c=64 v=127
367135 On ch=1 n=c7 v=66
367135 On ch=1 n=f6 v=40
367175 On ch=1 n=c7 v=0
367180 On ch=1 n=f6 v=0
367260 On ch=1 n=c7 v=60
367265 On ch=1 n=f6 v=52
367280 On ch=1 n=d#6 v=55
367295 On ch=1 n=f5 v=42
367315 On ch=1 n=a5 v=34
367330 On ch=1 n=f6 v=0
367340 On ch=1 n=c7 v=0
367345 On ch=1 n=f5 v=0
367360 On ch=1 n=a5 v=0
367375 On ch=1 n=d#6 v=0
367390 On ch=1 n=b6 v=74
367400 On ch=1 n=f6 v=24
367435 On ch=1 n=f6 v=0
367455 On ch=1 n=b6 v=0
367490 Par ch=1 c=64 v=88
367510 Par ch=1 c=64 v=24
367525 Par ch=1 c=64 v=0
367530 On ch=1 n=c#7 v=73
367550 On ch=1 n=c7 v=78
367560 On ch=1 n=f6 v=64
367560 On ch=1 n=c#6 v=49
367565 On ch=1 n=a#5 v=48
367605 On ch=1 n=f6 v=0
367625 Par ch=1 c=64 v=72
367635 On ch=1 n=c#7 v=0
367640 Par ch=1 c=64 v=127
367660 On ch=1 n=a#5 v=0
367660 On ch=1 n=c7 v=0
367670 On ch=1 n=c#6 v=0
367680 On ch=1 n=a#6 v=68
367765 On ch=1 n=a#6 v=0
367785 Par ch=1 c=64 v=104
367805 Par ch=1 c=64 v=56
367810 On ch=1 n=c7 v=69
367820 Par ch=1 c=64 v=24
367825 On ch=1 n=a#6 v=55
367830 On ch=1 n=d#6 v=45
367840 On ch=1 n=f6 v=51
367850 On ch=1 n=c6 v=53
367870 Par ch=1 c=64 v=72
367885 On ch=1 n=f6 v=0
367890 On ch=1 n=c6 v=0
367890 On ch=1 n=f5 v=24
367890 Par ch=1 c=64 v=104
367905 On ch=1 n=c7 v=0
367905 Par ch=1 c=64 v=127
367915 On ch=1 n=d#6 v=0
367925 On ch=1 n=f5 v=0
367960 On ch=1 n=a#6 v=0
367970 On ch=1 n=a6 v=66
368030 On ch=1 n=a6 v=0
368050 Par ch=1 c=64 v=88
368065 Par ch=1 c=64 v=24
368085 On ch=1 n=c#7 v=60
368085 Par ch=1 c=64 v=0
368105 On ch=1 n=c#6 v=53
368110 On ch=1 n=c7 v=78
368110 On ch=1 n=f6 v=60
368115 On ch=1 n=a#5 v=47
368130 Par ch=1 c=64 v=24
368150 Par ch=1 c=64 v=56
368165 Par ch=1 c=64 v=104
368185 Par ch=1 c=64 v=127
368190 On ch=1 n=c#7 v=0
368200 On ch=1 n=f6 v=0
368215 On ch=1 n=c#6 v=0
368220 On ch=1 n=a#5 v=0
368220 On ch=1 n=c7 v=0
368235 On ch=1 n=a#6 v=71
368315 Par ch=1 c=64 v=104
368330 On ch=1 n=a#6 v=0
368330 Par ch=1 c=64 v=56
368345 Par ch=1 c=64 v=0
368370 On ch=1 n=d#6 v=55
368375 On ch=1 n=c7 v=70
368385 On ch=1 n=c6 v=63
368385 On ch=1 n=f6 v=63
368390 On ch=1 n=a#6 v=58
368395 Par ch=1 c=64 v=72
368400 On ch=1 n=f5 v=44
368415 Par ch=1 c=64 v=88
368420 On ch=1 n=c6 v=0
368430 Par ch=1 c=64 v=127
368445 On ch=1 n=f5 v=0
368450 On ch=1 n=f6 v=0
368455 On ch=1 n=d#6 v=0
368480 On ch=1 n=c7 v=0
368520 On ch=1 n=a#6 v=0
368530 On ch=1 n=a6 v=72
368595 On ch=1 n=a6 v=0
368595 Par ch=1 c=64 v=88
368610 Par ch=1 c=64 v=24
368630 Par ch=1 c=64 v=0
368650 On ch=1 n=c#7 v=60
368665 On ch=1 n=c#6 v=52
368670 On ch=1 n=c7 v=75
368675 On ch=1 n=a#5 v=51
368680 On ch=1 n=f6 v=54
368690 Par ch=1 c=64 v=40
368710 Par ch=1 c=64 v=88
368725 Par ch=1 c=64 v=127
368755 On ch=1 n=c#7 v=0
368770 On ch=1 n=a#5 v=0
368770 On ch=1 n=c7 v=0
368770 On ch=1 n=c#6 v=0
368790 On ch=1 n=a#6 v=69
368810 On ch=1 n=f6 v=0
368875 Par ch=1 c=64 v=104
368885 On ch=1 n=a#6 v=0
368890 Par ch=1 c=64 v=56
368905 Par ch=1 c=64 v=0
368930 On ch=1 n=c7 v=72
368935 On ch=1 n=d#6 v=51
368940 Par ch=1 c=64 v=24
368945 On ch=1 n=a#6 v=61
368945 On ch=1 n=f6 v=68
368950 On ch=1 n=c6 v=59
368960 On ch=1 n=f5 v=45
368960 Par ch=1 c=64 v=56
368975 Par ch=1 c=64 v=88
368985 On ch=1 n=c6 v=0
368990 Par ch=1 c=64 v=104
369000 On ch=1 n=f5 v=0
369010 Par ch=1 c=64 v=127
369015 On ch=1 n=f6 v=0
369015 On ch=1 n=d#6 v=0
369030 On ch=1 n=c7 v=0
369070 On ch=1 n=a#6 v=0
369075 On ch=1 n=a6 v=71
369140 Par ch=1 c=64 v=104
369145 On ch=1 n=a6 v=0
369155 Par ch=1 c=64 v=40
369170 Par ch=1 c=64 v=0
369210 On ch=1 n=c#7 v=62
369220 Par ch=1 c=64 v=40
369225 On ch=1 n=c#6 v=51
369230 On ch=1 n=c7 v=78
369230 On ch=1 n=f6 v=56
369235 On ch=1 n=a#5 v=49
369240 Par ch=1 c=64 v=72
369250 Par ch=1 c=64 v=104
369270 Par ch=1 c=64 v=127
369325 On ch=1 n=c#7 v=0
369330 On ch=1 n=f6 v=0
369330 On ch=1 n=c7 v=0
369345 On ch=1 n=a#5 v=0
369345 On ch=1 n=c#6 v=0
369350 On ch=1 n=a#6 v=71
369440 On ch=1 n=a#6 v=0
369450 Par ch=1 c=64 v=104
369465 Par ch=1 c=64 v=56
369485 Par ch=1 c=64 v=0
369495 On ch=1 n=c7 v=68
369505 On ch=1 n=d#6 v=50
369515 On ch=1 n=f6 v=57
369515 On ch=1 n=a#6 v=52
369515 Par ch=1 c=64 v=24
369525 On ch=1 n=c6 v=55
369530 On ch=1 n=f5 v=48
369535 Par ch=1 c=64 v=56
369550 Par ch=1 c=64 v=72
369560 On ch=1 n=c6 v=0
369560 On ch=1 n=f6 v=0
369565 Par ch=1 c=64 v=104
369570 On ch=1 n=f5 v=0
369580 Par ch=1 c=64 v=127
369590 On ch=1 n=d#6 v=0
369590 On ch=1 n=c7 v=0
369630 On ch=1 n=a#6 v=0
369650 On ch=1 n=a6 v=74
369725 On ch=1 n=a6 v=0
369750 Par ch=1 c=64 v=40
369765 Par ch=1 c=64 v=0
369815 On ch=1 n=f6 v=66
369815 On ch=1 n=c#6 v=67
369820 On ch=1 n=a#6 v=77
369820 On ch=1 n=a#5 v=59
369875 On ch=1 n=a#5 v=0
369880 On ch=1 n=c#6 v=0
369880 Par ch=1 c=64 v=104
369890 On ch=1 n=f6 v=0
369895 Par ch=1 c=64 v=127
369940 On ch=1 n=a#6 v=0
369970 On ch=1 n=c7 v=58
370045 On ch=1 n=c7 v=0
370070 On ch=1 n=a#6 v=56
370135 On ch=1 n=a#6 v=0
370135 On ch=1 n=c7 v=52
370220 On ch=1 n=c7 v=0
370230 On ch=1 n=a#6 v=51
370285 On ch=1 n=c7 v=61
370290 On ch=1 n=a#6 v=0
370370 On ch=1 n=c7 v=0
370385 On ch=1 n=a#6 v=42
370430 On ch=1 n=a#6 v=0
370445 On ch=1 n=c7 v=62
370495 On ch=1 n=c7 v=0
370515 On ch=1 n=a#6 v=32
370570 On ch=1 n=a#6 v=0
370580 On ch=1 n=c7 v=62
370655 On ch=1 n=c7 v=0
370670 On ch=1 n=a#6 v=54
370720 On ch=1 n=c7 v=55
370725 On ch=1 n=a#6 v=0
370800 On ch=1 n=c7 v=0
370815 On ch=1 n=a#6 v=47
370875 On ch=1 n=a#6 v=0
370875 On ch=1 n=c7 v=54
370950 On ch=1 n=c7 v=0
370965 On ch=1 n=a#6 v=45
371020 On ch=1 n=a#6 v=0
371020 On ch=1 n=c7 v=53
371095 On ch=1 n=c7 v=0
371105 On ch=1 n=a#6 v=48
371165 On ch=1 n=a#6 v=0
371170 On ch=1 n=c7 v=58
371255 On ch=1 n=c7 v=0
371255 On ch=1 n=a#6 v=53
371340 On ch=1 n=a#6 v=0
371360 On ch=1 n=a6 v=62
371430 On ch=1 n=a6 v=0
371435 On ch=1 n=a#6 v=62
371520 On ch=1 n=a#6 v=0
371540 On ch=1 n=b6 v=69
371615 On ch=1 n=b6 v=0
371615 On ch=1 n=c7 v=79
371690 On ch=1 n=c7 v=0
371695 On ch=1 n=c#7 v=62
371775 On ch=1 n=c#7 v=0
371775 On ch=1 n=d7 v=67
371850 On ch=1 n=d7 v=0
371860 On ch=1 n=d#7 v=65
371935 On ch=1 n=d#7 v=0
371950 On ch=1 n=e7 v=64
372010 On ch=1 n=e7 v=0
372015 On ch=1 n=f7 v=80
372095 On ch=1 n=f7 v=0
372105 On ch=1 n=f#7 v=62
372170 On ch=1 n=f#7 v=0
372170 On ch=1 n=g7 v=64
372240 On ch=1 n=g7 v=0
372260 On ch=1 n=g#7 v=73
372330 On ch=1 n=g#7 v=0
372350 On ch=1 n=a7 v=74
372415 On ch=1 n=a7 v=0
372415 On ch=1 n=a#7 v=67
372480 On ch=1 n=a#7 v=0
372510 On ch=1 n=b7 v=74
372570 Par ch=1 c=64 v=72
372585 Par ch=1 c=64 v=127
372600 On ch=1 n=b7 v=0
372600 On ch=1 n=c8 v=77
372610 On ch=1 n=f#4 v=50
372680 On ch=1 n=f#4 v=0
372730 On ch=1 n=c8 v=0
372815 On ch=1 n=c#8 v=68
372835 On ch=1 n=c#6 v=61
372845 On ch=1 n=a#5 v=40
372875 On ch=1 n=a#5 v=0
372900 On ch=1 n=c#8 v=0
372930 On ch=1 n=d#8 v=69
372950 On ch=1 n=a#5 v=46
373035 On ch=1 n=c#8 v=68
373050 On ch=1 n=d#8 v=0
373125 On ch=1 n=c#8 v=0
373140 On ch=1 n=c8 v=69
373225 On ch=1 n=c#8 v=68
373235 On ch=1 n=c8 v=0
373305 On ch=1 n=c#8 v=0
373355 On ch=1 n=d#8 v=69
373455 On ch=1 n=c#8 v=63
373465 On ch=1 n=d#8 v=0
373540 On ch=1 n=a#7 v=64
373555 On ch=1 n=c#8 v=0
373645 On ch=1 n=a#7 v=0
373655 On ch=1 n=g#7 v=71
373720 On ch=1 n=c#6 v=0
373740 On ch=1 n=a#5 v=0
373750 On ch=1 n=g#7 v=0
373765 On ch=1 n=c#8 v=71
373870 On ch=1 n=a#7 v=67
373885 On ch=1 n=c#8 v=0
373965 On ch=1 n=g#7 v=69
373985 On ch=1 n=a#7 v=0
374060 On ch=1 n=g#7 v=0
374070 On ch=1 n=f#7 v=48
374145 On ch=1 n=f#7 v=0
374175 On ch=1 n=a#7 v=58
374175 On ch=1 n=c#6 v=78
374205 On ch=1 n=a#5 v=50
374265 On ch=1 n=g#7 v=63
374275 On ch=1 n=a#7 v=0
374340 On ch=1 n=f#7 v=51
374360 On ch=1 n=g#7 v=0
374415 On ch=1 n=f#7 v=0
374430 On ch=1 n=d#7 v=54
374525 On ch=1 n=d#7 v=0
374560 On ch=1 n=g#7 v=69
374660 On ch=1 n=f#7 v=58
374680 On ch=1 n=g#7 v=0
374760 On ch=1 n=f#7 v=0
374770 On ch=1 n=d#7 v=56
374845 On ch=1 n=d#7 v=0
374860 On ch=1 n=c#7 v=38
374905 On ch=1 n=c#6 v=0
374925 On ch=1 n=c#7 v=0
374945 On ch=1 n=a#5 v=0
374945 On ch=1 n=f#7 v=58
374945 On ch=1 n=c6 v=72
374945 On ch=1 n=g#5 v=49
375040 On ch=1 n=d#7 v=57
375060 On ch=1 n=f#7 v=0
375125 On ch=1 n=d#7 v=0
375125 On ch=1 n=c#7 v=55
375195 On ch=1 n=c#7 v=0
375215 On ch=1 n=a#6 v=49
375280 On ch=1 n=a#6 v=0
375295 On ch=1 n=d#7 v=61
375380 On ch=1 n=c#7 v=58
375400 On ch=1 n=d#7 v=0
375460 On ch=1 n=c#7 v=0
375470 On ch=1 n=a#6 v=46
375545 On ch=1 n=a#6 v=0
375560 On ch=1 n=g#6 v=32
375615 On ch=1 n=g#6 v=0
375635 On ch=1 n=c#7 v=57
375735 On ch=1 n=a#6 v=54
375740 On ch=1 n=c#7 v=0
375800 On ch=1 n=g#6 v=53
375810 On ch=1 n=a#6 v=0
375880 On ch=1 n=g#6 v=0
375890 On ch=1 n=f#6 v=42
375915 On ch=1 n=g#5 v=0
375915 On ch=1 n=c6 v=0
375955 On ch=1 n=f#6 v=0
375970 On ch=1 n=a#6 v=53
376060 On ch=1 n=g#6 v=54
376075 On ch=1 n=a#6 v=0
376135 On ch=1 n=f#6 v=49
376145 On ch=1 n=g#6 v=0
376205 On ch=1 n=f#6 v=0
376225 On ch=1 n=d#6 v=39
376285 On ch=1 n=d#6 v=0
376310 On ch=1 n=g#6 v=54
376405 On ch=1 n=f#6 v=50
376420 On ch=1 n=g#6 v=0
376485 On ch=1 n=f#6 v=0
376490 On ch=1 n=d#6 v=52
376570 On ch=1 n=d#6 v=0
376585 On ch=1 n=c#6 v=33
376650 On ch=1 n=c#6 v=0
376670 On ch=1 n=f#6 v=51
376765 On ch=1 n=d#6 v=49
376775 On ch=1 n=f#6 v=0
376840 On ch=1 n=d#6 v=0
376850 On ch=1 n=c#6 v=43
376915 On ch=1 n=c#6 v=0
376945 On ch=1 n=a#5 v=36
376995 On ch=1 n=a#5 v=0
377030 On ch=1 n=d#6 v=51
377120 On ch=1 n=c#6 v=47
377135 On ch=1 n=d#6 v=0
377195 On ch=1 n=c#6 v=0
377215 On ch=1 n=a#5 v=45
377325 On ch=1 n=a#5 v=0
377330 On ch=1 n=g#5 v=44
377445 On ch=1 n=g#5 v=0
377700 On ch=1 n=f#3 v=55
377700 On ch=1 n=a#4 v=47
377700 On ch=1 n=f#4 v=46
377700 On ch=1 n=c#5 v=55
377700 On ch=1 n=a#5 v=70
377765 On ch=1 n=f#3 v=0
377780 On ch=1 n=c#5 v=0
377785 On ch=1 n=f#4 v=0
377790 On ch=1 n=a#4 v=0
377820 On ch=1 n=a#5 v=0
377915 On ch=1 n=g#5 v=75
377915 On ch=1 n=c#5 v=45
377915 On ch=1 n=f4 v=52
377915 On ch=1 n=g#3 v=60
377915 On ch=1 n=g#4 v=52
377935 Par ch=1 c=64 v=24
377950 Par ch=1 c=64 v=0
378050 Par ch=1 c=64 v=127
378105 On ch=1 n=g#5 v=0
378125 On ch=1 n=c#5 v=0
378130 On ch=1 n=g#3 v=0
378135 On ch=1 n=g#4 v=0
378150 On ch=1 n=f4 v=0
378360 On ch=1 n=g#7 v=67
378460 On ch=1 n=g#7 v=0
378465 On ch=1 n=a#7 v=65
378575 On ch=1 n=g#7 v=74
378600 On ch=1 n=a#7 v=0
378670 On ch=1 n=g#7 v=0
378685 On ch=1 n=g7 v=70
378765 On ch=1 n=g7 v=0
378765 On ch=1 n=g#7 v=79
378845 On ch=1 n=g#7 v=0
378910 On ch=1 n=g#5 v=68
378910 On ch=1 n=g#4 v=61
378915 On ch=1 n=f5 v=66
378925 On ch=1 n=f8 v=75
378945 Par ch=1 c=64 v=104
378960 Par ch=1 c=64 v=88
378990 Par ch=1 c=64 v=127
379025 On ch=1 n=d#8 v=65
379030 On ch=1 n=f8 v=0
379110 On ch=1 n=c#8 v=65
379160 On ch=1 n=d#8 v=0
379205 On ch=1 n=c#8 v=0
379215 On ch=1 n=a#7 v=50
379285 On ch=1 n=a#7 v=0
379310 On ch=1 n=d#8 v=65
379410 On ch=1 n=c#8 v=64
379425 On ch=1 n=d#8 v=0
379490 On ch=1 n=a#7 v=58
379525 On ch=1 n=c#8 v=0
379570 On ch=1 n=a#7 v=0
379570 On ch=1 n=g#7 v=49
379645 On ch=1 n=g#7 v=0
379670 On ch=1 n=c#8 v=60
379770 On ch=1 n=a#7 v=58
379780 On ch=1 n=c#8 v=0
379850 On ch=1 n=g#7 v=61
379890 On ch=1 n=a#7 v=0
379940 On ch=1 n=g#7 v=0
379945 On ch=1 n=f7 v=53
380000 On ch=1 n=f7 v=0
380035 On ch=1 n=a#7 v=63
380115 On ch=1 n=g#7 v=64
380135 On ch=1 n=a#7 v=0
380190 On ch=1 n=f7 v=58
380215 On ch=1 n=g#7 v=0
380285 On ch=1 n=f7 v=0
380285 On ch=1 n=d#7 v=48
380355 On ch=1 n=d#7 v=0
380370 On ch=1 n=g#7 v=64
380445 On ch=1 n=f5 v=0
380465 On ch=1 n=g#4 v=0
380465 On ch=1 n=f7 v=63
380470 On ch=1 n=g#7 v=0
380520 On ch=1 n=g#5 v=0
380550 On ch=1 n=d#7 v=61
380575 On ch=1 n=f7 v=0
380645 On ch=1 n=d#7 v=0
380650 On ch=1 n=c#7 v=34
380700 On ch=1 n=c#7 v=0
380735 On ch=1 n=f7 v=56
380810 On ch=1 n=d#7 v=58
380820 On ch=1 n=f7 v=0
380885 On ch=1 n=c#7 v=55
380905 On ch=1 n=d#7 v=0
380965 On ch=1 n=c#7 v=0
380965 On ch=1 n=a#6 v=33
381035 On ch=1 n=a#6 v=0
381045 On ch=1 n=d#7 v=54
381130 On ch=1 n=c#7 v=61
381145 On ch=1 n=d#7 v=0
381215 On ch=1 n=a#6 v=43
381230 On ch=1 n=c#7 v=0
381280 On ch=1 n=g#6 v=44
381285 On ch=1 n=a#6 v=0
381355 On ch=1 n=g#6 v=0
381365 On ch=1 n=c#7 v=50
381460 On ch=1 n=a#6 v=57
381475 On ch=1 n=c#7 v=0
381545 On ch=1 n=g#6 v=57
381575 On ch=1 n=a#6 v=0
381615 On ch=1 n=g#6 v=0
381625 On ch=1 n=f6 v=56
381675 On ch=1 n=f6 v=0
381710 On ch=1 n=a#6 v=50
381795 On ch=1 n=g#6 v=50
381815 On ch=1 n=a#6 v=0
381875 On ch=1 n=f6 v=53
381895 On ch=1 n=g#6 v=0
381945 On ch=1 n=f6 v=0
381960 On ch=1 n=d#6 v=38
382025 On ch=1 n=d#6 v=0
382035 On ch=1 n=g#6 v=55
382115 On ch=1 n=f6 v=53
382140 On ch=1 n=g#6 v=0
382190 On ch=1 n=d#6 v=58
382195 On ch=1 n=f6 v=0
382265 On ch=1 n=d#6 v=0
382285 On ch=1 n=c#6 v=32
382335 On ch=1 n=c#6 v=0
382365 On ch=1 n=f6 v=59
382440 On ch=1 n=d#6 v=52
382445 On ch=1 n=f6 v=0
382525 On ch=1 n=c#6 v=44
382540 On ch=1 n=d#6 v=0
382585 On ch=1 n=c#6 v=0
382605 On ch=1 n=a#5 v=40
382675 On ch=1 n=a#5 v=0
382690 On ch=1 n=d#6 v=48
382775 On ch=1 n=c#6 v=47
382785 On ch=1 n=d#6 v=0
382855 On ch=1 n=c#6 v=0
382855 On ch=1 n=a#5 v=39
382920 On ch=1 n=a#5 v=0
382935 On ch=1 n=g#5 v=31
382990 On ch=1 n=g#5 v=0
383015 On ch=1 n=c#6 v=50
383090 On ch=1 n=a#5 v=49
383120 On ch=1 n=c#6 v=0
383180 On ch=1 n=g#5 v=48
383205 On ch=1 n=a#5 v=0
383265 On ch=1 n=g#5 v=0
383280 On ch=1 n=f5 v=47
383340 On ch=1 n=f5 v=0
383365 On ch=1 n=a#5 v=54
383440 On ch=1 n=g#5 v=46
383470 On ch=1 n=a#5 v=0
383515 On ch=1 n=g#5 v=0
383515 On ch=1 n=f5 v=45
383610 On ch=1 n=f5 v=0
383620 On ch=1 n=d#5 v=42
383695 On ch=1 n=d#5 v=0
383710 On ch=1 n=g#5 v=49
383800 On ch=1 n=f5 v=46
383825 On ch=1 n=g#5 v=0
383910 On ch=1 n=d#5 v=44
383925 On ch=1 n=f5 v=0
383995 On ch=1 n=d#5 v=0
384015 On ch=1 n=c#5 v=38
384080 On ch=1 n=c#5 v=0
384315 Par ch=1 c=64 v=104
384330 Par ch=1 c=64 v=56
384345 Par ch=1 c=64 v=0
384835 On ch=1 n=f4 v=70
384835 On ch=1 n=f5 v=79
384835 On ch=1 n=a5 v=85
384835 On ch=1 n=a6 v=88
384870 On ch=1 n=f4 v=0
384905 On ch=1 n=a5 v=0
384910 On ch=1 n=f5 v=0
384935 On ch=1 n=a6 v=0
384995 On ch=1 n=a#6 v=97
385000 On ch=1 n=a#5 v=102
385000 On ch=1 n=f#5 v=86
385010 On ch=1 n=f#4 v=74
385055 On ch=1 n=a#5 v=0
385060 On ch=1 n=f#4 v=0
385060 Par ch=1 c=64 v=127
385065 On ch=1 n=f#5 v=0
385070 On ch=1 n=a#6 v=0
385315 Par ch=1 c=64 v=56
385340 Par ch=1 c=64 v=0
385660 On ch=1 n=d#4 v=89
385665 On ch=1 n=c5 v=96
385665 On ch=1 n=g#3 v=96
385665 On ch=1 n=g#2 v=81
385665 On ch=1 n=f#4 v=84
385690 Par ch=1 c=64 v=88
385715 Par ch=1 c=64 v=127
385735 On ch=1 n=g#2 v=0
385735 On ch=1 n=g#3 v=0
385750 On ch=1 n=d#4 v=0
385755 On ch=1 n=f#4 v=0
385785 On ch=1 n=c5 v=0
386735 Par ch=1 c=64 v=88
386760 Par ch=1 c=64 v=56
386780 Par ch=1 c=64 v=0
388300 On ch=1 n=c#3 v=49
388340 On ch=1 n=c#3 v=0
388455 On ch=1 n=g#3 v=57
388520 On ch=1 n=g#3 v=0
388640 On ch=1 n=g#4 v=65
388655 On ch=1 n=c#4 v=50
388675 Par ch=1 c=64 v=56
388685 On ch=1 n=c#4 v=0
388685 On ch=1 n=g#4 v=0
388690 Par ch=1 c=64 v=104
388705 Par ch=1 c=64 v=127
388915 Par ch=1 c=64 v=88
388930 Par ch=1 c=64 v=72
388945 Par ch=1 c=64 v=40
388955 Par ch=1 c=64 v=0
388980 On ch=1 n=c#3 v=48
389035 On ch=1 n=c#3 v=0
389145 On ch=1 n=g#3 v=54
389210 On ch=1 n=g#3 v=0
389315 On ch=1 n=g#4 v=59
389330 On ch=1 n=c#4 v=36
389330 Par ch=1 c=64 v=24
389345 Par ch=1 c=64 v=72
389350 On ch=1 n=g#4 v=0
389360 On ch=1 n=c#4 v=0
389360 Par ch=1 c=64 v=127
389640 Par ch=1 c=64 v=104
389650 On ch=1 n=c#3 v=51
389655 Par ch=1 c=64 v=72
389670 Par ch=1 c=64 v=40
389685 Par ch=1 c=64 v=0
389710 On ch=1 n=c#3 v=0
389820 On ch=1 n=g#3 v=58
389880 On ch=1 n=g#3 v=0
390015 On ch=1 n=g#5 v=73
390015 On ch=1 n=f5 v=76
390025 On ch=1 n=g#4 v=49
390035 On ch=1 n=c#4 v=47
390040 Par ch=1 c=64 v=56
390055 On ch=1 n=g#4 v=0
390055 Par ch=1 c=64 v=104
390060 On ch=1 n=c#4 v=0
390070 Par ch=1 c=64 v=127
390325 Par ch=1 c=64 v=104
390335 On ch=1 n=c#3 v=57
390340 Par ch=1 c=64 v=72
390355 Par ch=1 c=64 v=40
390370 Par ch=1 c=64 v=24
390380 On ch=1 n=f5 v=0
390380 Par ch=1 c=64 v=0
390410 On ch=1 n=c#3 v=0
390475 On ch=1 n=g#5 v=0
390510 On ch=1 n=g#3 v=54
390510 On ch=1 n=f#5 v=62
390510 On ch=1 n=d#5 v=59
390570 On ch=1 n=d#5 v=0
390570 On ch=1 n=g#3 v=0
390605 On ch=1 n=f#5 v=0
390675 On ch=1 n=c#5 v=53
390675 On ch=1 n=g#4 v=53
390685 On ch=1 n=f5 v=74
390695 On ch=1 n=c#4 v=46
390705 On ch=1 n=g#4 v=0
390720 On ch=1 n=c#4 v=0
390725 On ch=1 n=c#5 v=0
390735 On ch=1 n=f5 v=0
390840 On ch=1 n=d#5 v=55
390840 On ch=1 n=f#5 v=77
390895 On ch=1 n=f#5 v=0
390895 On ch=1 n=d#5 v=0
390995 On ch=1 n=g#5 v=75
390995 On ch=1 n=c#3 v=50
391005 On ch=1 n=f5 v=68
391040 On ch=1 n=c#3 v=0
391060 On ch=1 n=f5 v=0
391110 On ch=1 n=g#5 v=0
391155 On ch=1 n=g#3 v=50
391190 On ch=1 n=g#3 v=0
391235 On ch=1 n=f#5 v=48
391235 On ch=1 n=a#5 v=67
391285 On ch=1 n=f#5 v=0
391290 On ch=1 n=a#5 v=0
391310 On ch=1 n=g#5 v=81
391310 On ch=1 n=f5 v=79
391345 On ch=1 n=g#4 v=57
391350 On ch=1 n=c#4 v=59
391380 On ch=1 n=c#4 v=0
391385 On ch=1 n=g#4 v=0
391390 Par ch=1 c=64 v=24
391405 Par ch=1 c=64 v=72
391420 Par ch=1 c=64 v=127
391615 Par ch=1 c=64 v=104
391630 Par ch=1 c=64 v=72
391645 On ch=1 n=c#3 v=49
391645 Par ch=1 c=64 v=40
391660 Par ch=1 c=64 v=24
391675 Par ch=1 c=64 v=0
391700 On ch=1 n=c#3 v=0
391700 On ch=1 n=f5 v=0
391770 On ch=1 n=g#5 v=0
391810 On ch=1 n=d#5 v=59
391810 On ch=1 n=f#5 v=65
391815 On ch=1 n=g#3 v=52
391860 On ch=1 n=g#3 v=0
391870 On ch=1 n=d#5 v=0
391905 On ch=1 n=f#5 v=0
391970 On ch=1 n=c#5 v=54
391970 On ch=1 n=f5 v=73
391980 On ch=1 n=g#4 v=45
391995 On ch=1 n=c#4 v=37
392010 On ch=1 n=g#4 v=0
392020 On ch=1 n=c#4 v=0
392020 On ch=1 n=c#5 v=0
392035 On ch=1 n=f5 v=0
392130 On ch=1 n=f#5 v=69
392135 On ch=1 n=d#5 v=53
392200 On ch=1 n=d#5 v=0
392215 On ch=1 n=f#5 v=0
392285 On ch=1 n=g#5 v=70
392290 On ch=1 n=c#3 v=47
392295 On ch=1 n=f5 v=67
392300 Par ch=1 c=64 v=24
392315 Par ch=1 c=64 v=56
392335 On ch=1 n=f5 v=0
392345 On ch=1 n=c#3 v=0
392385 Par ch=1 c=64 v=24
392400 Par ch=1 c=64 v=0
392415 On ch=1 n=g#5 v=0
392435 On ch=1 n=g#3 v=47
392465 On ch=1 n=g#3 v=0
392535 On ch=1 n=a#5 v=69
392540 On ch=1 n=f#5 v=60
392590 On ch=1 n=a#5 v=0
392595 On ch=1 n=f#5 v=0
392620 On ch=1 n=g#5 v=75
392625 On ch=1 n=f5 v=76
392635 On ch=1 n=g#4 v=51
392645 On ch=1 n=c#4 v=48
392670 On ch=1 n=c#4 v=0
392670 On ch=1 n=g#4 v=0
392945 On ch=1 n=c#3 v=55
393010 On ch=1 n=c#3 v=0
393120 On ch=1 n=g#3 v=60
393185 On ch=1 n=g#3 v=0
393295 On ch=1 n=g#4 v=54
393295 On ch=1 n=c#4 v=60
393305 Par ch=1 c=64 v=24
393325 On ch=1 n=c#4 v=0
393325 On ch=1 n=g#4 v=0
393325 Par ch=1 c=64 v=72
393340 Par ch=1 c=64 v=104
393355 Par ch=1 c=64 v=127
393445 On ch=1 n=f5 v=0
393525 On ch=1 n=g#5 v=0
393575 Par ch=1 c=64 v=88
393590 Par ch=1 c=64 v=72
393605 Par ch=1 c=64 v=56
393620 On ch=1 n=c#3 v=53
393620 Par ch=1 c=64 v=24
393635 Par ch=1 c=64 v=0
393690 On ch=1 n=c#3 v=0
393775 On ch=1 n=a3 v=68
393805 On ch=1 n=a3 v=0
393960 On ch=1 n=e6 v=84
393960 On ch=1 n=c#6 v=69
393970 On ch=1 n=e5 v=65
393975 On ch=1 n=a4 v=53
393980 On ch=1 n=c#4 v=56
393990 Par ch=1 c=64 v=40
394005 On ch=1 n=c#4 v=0
394005 On ch=1 n=a4 v=0
394005 Par ch=1 c=64 v=88
394020 Par ch=1 c=64 v=127
394270 On ch=1 n=c#3 v=48
394300 Par ch=1 c=64 v=104
394310 On ch=1 n=e5 v=0
394315 Par ch=1 c=64 v=72
394330 Par ch=1 c=64 v=56
394345 Par ch=1 c=64 v=40
394350 On ch=1 n=c#3 v=0
394365 On ch=1 n=e6 v=0
394365 Par ch=1 c=64 v=24
394380 On ch=1 n=c#6 v=0
394380 Par ch=1 c=64 v=0
394445 On ch=1 n=a3 v=60
394455 On ch=1 n=d6 v=74
394460 On ch=1 n=b5 v=70
394470 On ch=1 n=a3 v=0
394515 On ch=1 n=b5 v=0
394530 On ch=1 n=d6 v=0
394615 On ch=1 n=a5 v=67
394615 On ch=1 n=c#6 v=72
394620 On ch=1 n=a4 v=53
394625 On ch=1 n=c#4 v=54
394650 On ch=1 n=c#4 v=0
394650 On ch=1 n=a4 v=0
394680 On ch=1 n=c#6 v=0
394685 On ch=1 n=a5 v=0
394780 On ch=1 n=d6 v=68
394795 On ch=1 n=b5 v=59
394830 On ch=1 n=b5 v=0
394870 On ch=1 n=d6 v=0
394930 On ch=1 n=c#3 v=55
394935 On ch=1 n=c#6 v=68
394945 On ch=1 n=e6 v=81
394950 Par ch=1 c=64 v=40
394970 Par ch=1 c=64 v=72
394985 Par ch=1 c=64 v=88
395000 Par ch=1 c=64 v=104
395005 On ch=1 n=c#3 v=0
395040 On ch=1 n=e6 v=0
395040 On ch=1 n=c#6 v=0
395060 Par ch=1 c=64 v=127
395075 On ch=1 n=a3 v=54
395100 On ch=1 n=a3 v=0
395195 On ch=1 n=f#6 v=73
395195 On ch=1 n=d6 v=50
395225 Par ch=1 c=64 v=104
395235 Par ch=1 c=64 v=72
395240 On ch=1 n=d6 v=0
395240 On ch=1 n=f#6 v=0
395250 Par ch=1 c=64 v=56
395265 Par ch=1 c=64 v=40
395270 On ch=1 n=e6 v=90
395280 On ch=1 n=e5 v=75
395280 On ch=1 n=c#6 v=64
395280 Par ch=1 c=64 v=24
395295 Par ch=1 c=64 v=0
395305 On ch=1 n=c#4 v=60
395310 On ch=1 n=a4 v=55
395340 On ch=1 n=a4 v=0
395360 On ch=1 n=c#4 v=0
395595 On ch=1 n=c#3 v=55
395610 Par ch=1 c=64 v=40
395625 Par ch=1 c=64 v=88
395640 On ch=1 n=e5 v=0
395640 Par ch=1 c=64 v=127
395665 On ch=1 n=c#3 v=0
395665 On ch=1 n=e6 v=0
395675 On ch=1 n=c#6 v=0
395725 Par ch=1 c=64 v=88
395740 Par ch=1 c=64 v=56
395750 On ch=1 n=d6 v=76
395750 On ch=1 n=b5 v=70
395755 On ch=1 n=a3 v=69
395760 Par ch=1 c=64 v=24
395775 Par ch=1 c=64 v=0
395790 On ch=1 n=a3 v=0
395810 On ch=1 n=b5 v=0
395825 On ch=1 n=d6 v=0
395905 On ch=1 n=c#6 v=71
395910 On ch=1 n=a5 v=64
395930 On ch=1 n=a4 v=57
395930 On ch=1 n=c#4 v=57
395955 On ch=1 n=c#4 v=0
395960 On ch=1 n=a4 v=0
395975 On ch=1 n=c#6 v=0
395980 On ch=1 n=a5 v=0
396065 On ch=1 n=d6 v=68
396080 On ch=1 n=b5 v=57
396130 On ch=1 n=b5 v=0
396160 On ch=1 n=d6 v=0
396215 On ch=1 n=c#6 v=65
396225 On ch=1 n=e6 v=79
396235 On ch=1 n=c#3 v=54
396245 Par ch=1 c=64 v=40
396260 Par ch=1 c=64 v=88
396275 Par ch=1 c=64 v=104
396290 Par ch=1 c=64 v=127
396295 On ch=1 n=c#3 v=0
396310 On ch=1 n=e6 v=0
396310 On ch=1 n=c#6 v=0
396350 Par ch=1 c=64 v=88
396370 On ch=1 n=a3 v=64
396395 On ch=1 n=a3 v=0
396410 Par ch=1 c=64 v=72
396425 Par ch=1 c=64 v=56
396465 On ch=1 n=f#6 v=72
396465 On ch=1 n=d6 v=56
396470 Par ch=1 c=64 v=40
396515 Par ch=1 c=64 v=24
396525 On ch=1 n=d6 v=0
396525 On ch=1 n=f#6 v=0
396530 Par ch=1 c=64 v=0
396550 On ch=1 n=e6 v=89
396550 On ch=1 n=c#6 v=73
396560 On ch=1 n=e5 v=77
396590 On ch=1 n=c#4 v=51
396600 On ch=1 n=a4 v=45
396630 On ch=1 n=a4 v=0
396635 On ch=1 n=e5 v=0
396650 On ch=1 n=c#4 v=0
396890 On ch=1 n=c#3 v=49
396955 On ch=1 n=c#3 v=0
397050 On ch=1 n=a3 v=68
397080 On ch=1 n=a3 v=0
397200 Par ch=1 c=64 v=24
397215 Par ch=1 c=64 v=56
397230 Par ch=1 c=64 v=88
397240 On ch=1 n=a4 v=59
397240 On ch=1 n=c#4 v=50
397240 Par ch=1 c=64 v=104
397255 Par ch=1 c=64 v=127
397265 On ch=1 n=a4 v=0
397275 On ch=1 n=c#4 v=0
397445 On ch=1 n=c#6 v=0
397480 On ch=1 n=e6 v=0
397510 Par ch=1 c=64 v=104
397525 Par ch=1 c=64 v=72
397540 Par ch=1 c=64 v=24
397550 On ch=1 n=c#3 v=60
397555 Par ch=1 c=64 v=0
397615 On ch=1 n=c#3 v=0
397670 Par ch=1 c=64 v=40
397685 Par ch=1 c=64 v=56
397700 Par ch=1 c=64 v=88
397710 On ch=1 n=c#4 v=65
397750 On ch=1 n=c#4 v=0
397760 Par ch=1 c=64 v=104
397850 Par ch=1 c=64 v=56
397865 Par ch=1 c=64 v=0
397900 On ch=1 n=a6 v=87
397905 On ch=1 n=f#6 v=71
397910 On ch=1 n=a5 v=70
397925 On ch=1 n=f#4 v=62
397930 On ch=1 n=d5 v=60
397960 On ch=1 n=d5 v=0
397960 On ch=1 n=f#4 v=0
397980 Par ch=1 c=64 v=56
398000 Par ch=1 c=64 v=88
398015 Par ch=1 c=64 v=104
398030 Par ch=1 c=64 v=127
398100 On ch=1 n=f#6 v=0
398160 Par ch=1 c=64 v=104
398175 Par ch=1 c=64 v=88
398180 On ch=1 n=a5 v=0
398210 On ch=1 n=c#3 v=53
398210 Par ch=1 c=64 v=72
398225 Par ch=1 c=64 v=40
398240 Par ch=1 c=64 v=24
398250 Par ch=1 c=64 v=0
398285 On ch=1 n=c#3 v=0
398310 On ch=1 n=a6 v=0
398370 On ch=1 n=c#4 v=61
398375 On ch=1 n=g#6 v=77
398375 On ch=1 n=e6 v=79
398410 On ch=1 n=c#4 v=0
398435 On ch=1 n=e6 v=0
398460 On ch=1 n=g#6 v=0
398530 On ch=1 n=f#6 v=78
398540 On ch=1 n=d6 v=69
398550 On ch=1 n=f#4 v=64
398555 On ch=1 n=d5 v=64
398580 On ch=1 n=f#4 v=0
398590 On ch=1 n=d5 v=0
398605 On ch=1 n=d6 v=0
398610 On ch=1 n=f#6 v=0
398690 On ch=1 n=g#6 v=76
398695 On ch=1 n=e6 v=81
398775 On ch=1 n=e6 v=0
398790 On ch=1 n=g#6 v=0
398860 On ch=1 n=a6 v=84
398860 Par ch=1 c=64 v=24
398865 On ch=1 n=f#6 v=69
398870 On ch=1 n=c#3 v=59
398875 Par ch=1 c=64 v=72
398890 Par ch=1 c=64 v=104
398905 Par ch=1 c=64 v=127
398930 On ch=1 n=f#6 v=0
398965 On ch=1 n=a6 v=0
398980 On ch=1 n=c#3 v=0
398995 On ch=1 n=c#4 v=60
399035 On ch=1 n=c#4 v=0
399100 On ch=1 n=b6 v=79
399100 On ch=1 n=g#6 v=61
399125 On ch=1 n=g#6 v=0
399125 On ch=1 n=b6 v=0
399140 Par ch=1 c=64 v=104
399155 Par ch=1 c=64 v=88
399170 Par ch=1 c=64 v=72
399185 Par ch=1 c=64 v=40
399190 On ch=1 n=a6 v=87
399195 On ch=1 n=f#6 v=72
399205 On ch=1 n=a5 v=72
399205 Par ch=1 c=64 v=0
399225 On ch=1 n=d5 v=58
399230 On ch=1 n=f#4 v=50
399255 On ch=1 n=d5 v=0
399275 On ch=1 n=f#4 v=0
399450 On ch=1 n=a5 v=0
399520 On ch=1 n=c#3 v=57
399525 Par ch=1 c=64 v=40
399540 Par ch=1 c=64 v=72
399555 Par ch=1 c=64 v=104
399575 Par ch=1 c=64 v=127
399605 On ch=1 n=a6 v=0
399630 On ch=1 n=f#6 v=0
399655 On ch=1 n=c#4 v=59
399670 On ch=1 n=c#3 v=0
399675 On ch=1 n=g#6 v=76
399685 On ch=1 n=e6 v=81
399705 On ch=1 n=c#4 v=0
399750 On ch=1 n=e6 v=0
399755 On ch=1 n=g#6 v=0
399765 Par ch=1 c=64 v=104
399780 Par ch=1 c=64 v=88
399810 Par ch=1 c=64 v=72
399825 On ch=1 n=f#6 v=77
399835 On ch=1 n=d6 v=63
399850 On ch=1 n=f#4 v=47
399850 On ch=1 n=d5 v=55
399880 On ch=1 n=d5 v=0
399890 On ch=1 n=d6 v=0
399910 On ch=1 n=f#4 v=0
399915 On ch=1 n=f#6 v=0
399980 On ch=1 n=g#6 v=79
399990 On ch=1 n=e6 v=72
400050 Par ch=1 c=64 v=24
400065 On ch=1 n=e6 v=0
400065 Par ch=1 c=64 v=0
400085 On ch=1 n=g#6 v=0
400140 On ch=1 n=f#6 v=67
400140 On ch=1 n=a6 v=85
400145 On ch=1 n=c#3 v=51
400165 Par ch=1 c=64 v=56
400180 Par ch=1 c=64 v=104
400195 Par ch=1 c=64 v=127
400235 On ch=1 n=a6 v=0
400235 On ch=1 n=f#6 v=0
400280 On ch=1 n=c#3 v=0
400280 On ch=1 n=c#4 v=59
400330 On ch=1 n=c#4 v=0
400365 On ch=1 n=b6 v=78
400365 On ch=1 n=g#6 v=63
400415 On ch=1 n=g#6 v=0
400420 Par ch=1 c=64 v=104
400425 On ch=1 n=b6 v=0
400435 Par ch=1 c=64 v=88
400445 On ch=1 n=f#6 v=65
400445 On ch=1 n=a6 v=88
400450 Par ch=1 c=64 v=56
400460 Par ch=1 c=64 v=40
400480 On ch=1 n=f#4 v=46
400480 Par ch=1 c=64 v=0
400480 On ch=1 n=d5 v=57
400520 On ch=1 n=d5 v=0
400525 On ch=1 n=a6 v=0
400530 On ch=1 n=f#6 v=0
400560 On ch=1 n=f#4 v=0
400725 On ch=1 n=f#6 v=58
400725 On ch=1 n=a6 v=75
400770 On ch=1 n=f#6 v=0
400785 On ch=1 n=a6 v=0
400795 On ch=1 n=f5 v=62
400805 On ch=1 n=g#6 v=69
400815 On ch=1 n=b6 v=80
400875 On ch=1 n=f5 v=0
400895 On ch=1 n=b6 v=0
400945 On ch=1 n=b5 v=64
400975 On ch=1 n=g#6 v=0
401040 On ch=1 n=a6 v=77
401040 On ch=1 n=f#6 v=65
401060 On ch=1 n=b5 v=0
401105 On ch=1 n=a6 v=0
401115 On ch=1 n=d6 v=56
401130 On ch=1 n=b6 v=81
401130 On ch=1 n=g#6 v=60
401130 Par ch=1 c=64 v=24
401145 On ch=1 n=d6 v=0
401145 Par ch=1 c=64 v=56
401160 On ch=1 n=f#6 v=0
401160 Par ch=1 c=64 v=88
401175 Par ch=1 c=64 v=104
401195 On ch=1 n=g#6 v=0
401200 On ch=1 n=b6 v=0
401280 Par ch=1 c=64 v=88
401310 Par ch=1 c=64 v=72
401325 Par ch=1 c=64 v=56
401355 On ch=1 n=c#7 v=72
401355 On ch=1 n=f6 v=70
401355 Par ch=1 c=64 v=40
401370 Par ch=1 c=64 v=24
401385 Par ch=1 c=64 v=0
401395 On ch=1 n=f6 v=0
401415 On ch=1 n=c#7 v=0
401440 On ch=1 n=d7 v=84
401440 On ch=1 n=f#6 v=61
401440 On ch=1 n=c#5 v=56
401495 On ch=1 n=f#6 v=0
401505 On ch=1 n=d7 v=0
401575 On ch=1 n=c#5 v=0
401600 On ch=1 n=f#5 v=55
401695 On ch=1 n=a6 v=80
401695 On ch=1 n=f#6 v=71
401720 On ch=1 n=f#5 v=0
401745 On ch=1 n=a5 v=42
401760 On ch=1 n=f#6 v=0
401760 On ch=1 n=a6 v=0
401770 On ch=1 n=g#6 v=81
401770 On ch=1 n=f6 v=83
401795 On ch=1 n=a5 v=0
401820 On ch=1 n=f6 v=0
401845 On ch=1 n=g#6 v=0
402005 On ch=1 n=a6 v=69
402005 On ch=1 n=f#6 v=76
402040 On ch=1 n=a6 v=0
402055 On ch=1 n=f#6 v=0
402065 On ch=1 n=g#6 v=54
402085 On ch=1 n=b6 v=80
402090 On ch=1 n=f5 v=54
402120 On ch=1 n=g#6 v=0
402155 On ch=1 n=f5 v=0
402155 On ch=1 n=b6 v=0
402215 On ch=1 n=b5 v=55
402280 On ch=1 n=b5 v=0
402295 On ch=1 n=f#6 v=64
402295 On ch=1 n=a6 v=75
402365 On ch=1 n=a6 v=0
402375 On ch=1 n=g#6 v=55
402375 On ch=1 n=b6 v=83
402375 On ch=1 n=d6 v=57
402405 On ch=1 n=d6 v=0
402415 On ch=1 n=f#6 v=0
402435 On ch=1 n=b6 v=0
402440 On ch=1 n=g#6 v=0
402610 On ch=1 n=c#7 v=74
402610 On ch=1 n=f6 v=57
402640 On ch=1 n=f6 v=0
402665 On ch=1 n=c#7 v=0
402690 On ch=1 n=f#6 v=73
402690 On ch=1 n=d7 v=84
402715 On ch=1 n=c#5 v=51
402740 On ch=1 n=f#6 v=0
402750 Par ch=1 c=64 v=24
402765 Par ch=1 c=64 v=56
402770 On ch=1 n=d7 v=0
402780 Par ch=1 c=64 v=88
402840 On ch=1 n=f#5 v=52
402855 On ch=1 n=c#5 v=0
402885 Par ch=1 c=64 v=72
402900 Par ch=1 c=64 v=56
402915 Par ch=1 c=64 v=40
402930 Par ch=1 c=64 v=24
402940 Par ch=1 c=64 v=0
402970 On ch=1 n=f#5 v=0
403000 On ch=1 n=g#7 v=89
403010 On ch=1 n=a5 v=57
403035 Par ch=1 c=64 v=24
403040 On ch=1 n=a5 v=0
403050 Par ch=1 c=64 v=72
403065 Par ch=1 c=64 v=104
403080 Par ch=1 c=64 v=127
403085 On ch=1 n=g#7 v=0
403095 On ch=1 n=a7 v=80
403145 On ch=1 n=a7 v=0
403170 On ch=1 n=b7 v=80
403240 On ch=1 n=a7 v=77
403245 On ch=1 n=b7 v=0
403295 On ch=1 n=a7 v=0
403340 On ch=1 n=g#5 v=50
403360 On ch=1 n=f#7 v=80
403360 Par ch=1 c=64 v=104
403370 On ch=1 n=d#7 v=68
403375 Par ch=1 c=64 v=88
403395 On ch=1 n=d#7 v=0
403405 Par ch=1 c=64 v=72
403420 Par ch=1 c=64 v=56
403435 Par ch=1 c=64 v=40
403440 On ch=1 n=f#7 v=0
403465 Par ch=1 c=64 v=24
403520 Par ch=1 c=64 v=0
403525 On ch=1 n=d#6 v=57
403525 On ch=1 n=f7 v=75
403530 On ch=1 n=c#7 v=65
403600 On ch=1 n=c#7 v=0
403635 On ch=1 n=f7 v=0
403675 On ch=1 n=g#5 v=0
403680 On ch=1 n=d#7 v=76
403690 On ch=1 n=f#6 v=51
403695 On ch=1 n=d#6 v=0
403695 On ch=1 n=c7 v=53
403715 On ch=1 n=f#6 v=0
403725 On ch=1 n=c7 v=0
403770 On ch=1 n=d#7 v=0
403845 On ch=1 n=g#7 v=80
403850 On ch=1 n=g#6 v=73
403895 On ch=1 n=g#7 v=0
403910 On ch=1 n=g#6 v=0
404010 On ch=1 n=f#7 v=73
404010 On ch=1 n=c#5 v=50
404015 On ch=1 n=d#7 v=58
404075 On ch=1 n=f#7 v=0
404090 On ch=1 n=d#7 v=0
404175 On ch=1 n=f7 v=77
404175 On ch=1 n=g#5 v=48
404180 On ch=1 n=c#7 v=64
404245 On ch=1 n=c#7 v=0
404280 On ch=1 n=f7 v=0
404285 On ch=1 n=c#5 v=0
404325 Par ch=1 c=64 v=24
404330 On ch=1 n=d#7 v=70
404340 Par ch=1 c=64 v=56
404345 On ch=1 n=c6 v=60
404355 Par ch=1 c=64 v=104
404365 On ch=1 n=c6 v=0
404370 Par ch=1 c=64 v=127
404375 On ch=1 n=g#5 v=0
404390 On ch=1 n=d#7 v=0
404500 On ch=1 n=g#6 v=77
404500 Par ch=1 c=64 v=104
404505 On ch=1 n=g#5 v=61
404520 Par ch=1 c=64 v=88
404530 On ch=1 n=g#5 v=0
404545 Par ch=1 c=64 v=72
404550 On ch=1 n=g#6 v=0
404560 Par ch=1 c=64 v=40
404575 Par ch=1 c=64 v=24
404590 Par ch=1 c=64 v=0
404650 On ch=1 n=f#6 v=82
404650 On ch=1 n=d#6 v=60
404665 On ch=1 n=c#4 v=55
404730 On ch=1 n=d#6 v=0
404730 On ch=1 n=f#6 v=0
404765 On ch=1 n=c#4 v=0
404805 On ch=1 n=f6 v=77
404815 On ch=1 n=c#6 v=61
404815 On ch=1 n=g#4 v=54
404860 On ch=1 n=c#6 v=0
404910 On ch=1 n=f6 v=0
404955 On ch=1 n=g#4 v=0
404975 On ch=1 n=d#6 v=70
404975 On ch=1 n=c6 v=71
404995 On ch=1 n=c5 v=59
405020 On ch=1 n=c5 v=0
405050 On ch=1 n=c6 v=0
405050 On ch=1 n=d#6 v=0
405140 On ch=1 n=g#6 v=89
405140 On ch=1 n=g#5 v=67
405220 On ch=1 n=g#5 v=0
405240 On ch=1 n=g#6 v=0
405320 On ch=1 n=f6 v=83
405320 On ch=1 n=c#6 v=65
405325 On ch=1 n=c#3 v=51
405375 Par ch=1 c=64 v=56
405395 Par ch=1 c=64 v=88
405405 On ch=1 n=c#3 v=0
405410 Par ch=1 c=64 v=127
405445 On ch=1 n=c#6 v=0
405480 On ch=1 n=g#3 v=56
405570 On ch=1 n=f6 v=0
405595 On ch=1 n=g#3 v=0
405645 Par ch=1 c=64 v=88
405660 Par ch=1 c=64 v=40
405665 On ch=1 n=g#6 v=90
405665 On ch=1 n=f6 v=89
405665 On ch=1 n=g#5 v=77
405675 Par ch=1 c=64 v=0
405690 On ch=1 n=c#4 v=50
405690 On ch=1 n=g#4 v=52
405755 On ch=1 n=c#4 v=0
405780 Par ch=1 c=64 v=40
405795 On ch=1 n=g#4 v=0
405795 Par ch=1 c=64 v=88
405810 Par ch=1 c=64 v=127
405855 Par ch=1 c=64 v=88
405865 Par ch=1 c=64 v=24
405880 Par ch=1 c=64 v=0
405955 Par ch=1 c=64 v=40
405970 Par ch=1 c=64 v=88
405985 Par ch=1 c=64 v=127
406005 On ch=1 n=f6 v=0
406010 On ch=1 n=c#4 v=63
406015 On ch=1 n=g#6 v=0
406025 On ch=1 n=g#5 v=0
406090 On ch=1 n=c#4 v=0
406140 On ch=1 n=f#6 v=78
406150 On ch=1 n=f#5 v=57
406155 Par ch=1 c=64 v=104
406160 On ch=1 n=d#6 v=66
406170 On ch=1 n=g#4 v=43
406170 Par ch=1 c=64 v=88
406200 Par ch=1 c=64 v=72
406205 On ch=1 n=f#5 v=0
406215 Par ch=1 c=64 v=56
406220 On ch=1 n=f#6 v=0
406230 Par ch=1 c=64 v=40
406240 On ch=1 n=d#6 v=0
406245 Par ch=1 c=64 v=24
406260 Par ch=1 c=64 v=0
406280 On ch=1 n=g#4 v=0
406300 On ch=1 n=f6 v=84
406300 On ch=1 n=c#6 v=69
406310 On ch=1 n=f5 v=62
406310 On ch=1 n=c#5 v=35
406335 On ch=1 n=c#5 v=0
406335 On ch=1 n=f5 v=0
406360 On ch=1 n=f6 v=0
406365 On ch=1 n=c#6 v=0
406455 On ch=1 n=f#6 v=79
406465 On ch=1 n=d#6 v=64
406465 On ch=1 n=f#5 v=62
406500 On ch=1 n=f#5 v=0
406520 On ch=1 n=d#6 v=0
406520 On ch=1 n=f#6 v=0
406620 On ch=1 n=f6 v=74
406620 On ch=1 n=g#6 v=77
406620 On ch=1 n=g#5 v=66
406625 On ch=1 n=c#3 v=57
406645 Par ch=1 c=64 v=56
406660 Par ch=1 c=64 v=104
406675 Par ch=1 c=64 v=127
406680 On ch=1 n=g#5 v=0
406700 On ch=1 n=f6 v=0
406715 On ch=1 n=g#6 v=0
406760 On ch=1 n=c#3 v=0
406765 On ch=1 n=g#3 v=65
406850 On ch=1 n=g#3 v=0
406860 On ch=1 n=a#6 v=74
406860 On ch=1 n=f#6 v=72
406910 On ch=1 n=a#6 v=0
406920 On ch=1 n=f#6 v=0
406935 On ch=1 n=g#6 v=91
406935 On ch=1 n=g#5 v=77
406935 On ch=1 n=f6 v=75
406940 Par ch=1 c=64 v=88
406960 Par ch=1 c=64 v=72
406965 On ch=1 n=g#4 v=62
406965 On ch=1 n=c#4 v=59
406970 Par ch=1 c=64 v=40
406985 Par ch=1 c=64 v=24
407000 Par ch=1 c=64 v=0
407090 On ch=1 n=c#4 v=0
407090 On ch=1 n=g#4 v=0
407270 Par ch=1 c=64 v=40
407280 On ch=1 n=c#4 v=66
407285 On ch=1 n=f6 v=0
407285 Par ch=1 c=64 v=88
407300 Par ch=1 c=64 v=127
407310 On ch=1 n=g#5 v=0
407310 On ch=1 n=g#6 v=0
407395 On ch=1 n=c#4 v=0
407410 On ch=1 n=f#6 v=82
407420 On ch=1 n=f#5 v=64
407425 On ch=1 n=d#6 v=62
407430 Par ch=1 c=64 v=104
407445 On ch=1 n=g#4 v=62
407445 Par ch=1 c=64 v=88
407465 Par ch=1 c=64 v=72
407475 On ch=1 n=d#6 v=0
407475 On ch=1 n=f#5 v=0
407480 On ch=1 n=f#6 v=0
407480 Par ch=1 c=64 v=56
407495 Par ch=1 c=64 v=40
407510 Par ch=1 c=64 v=24
407525 Par ch=1 c=64 v=0
407545 On ch=1 n=g#4 v=0
407575 On ch=1 n=f6 v=89
407580 On ch=1 n=f5 v=72
407585 On ch=1 n=c#6 v=65
407595 On ch=1 n=c#5 v=64
407615 On ch=1 n=f5 v=0
407625 On ch=1 n=c#6 v=0
407630 On ch=1 n=f6 v=0
407655 On ch=1 n=c#5 v=0
407725 On ch=1 n=d#6 v=69
407730 On ch=1 n=f#6 v=81
407730 On ch=1 n=f#5 v=74
407780 On ch=1 n=f#5 v=0
407780 On ch=1 n=d#6 v=0
407785 On ch=1 n=f#6 v=0
407895 On ch=1 n=g#5 v=77
407895 On ch=1 n=g#6 v=87
407895 On ch=1 n=c#3 v=56
407915 On ch=1 n=f6 v=69
407920 Par ch=1 c=64 v=40
407940 Par ch=1 c=64 v=88
407955 Par ch=1 c=64 v=127
407960 On ch=1 n=g#6 v=0
407965 On ch=1 n=g#5 v=0
407980 On ch=1 n=f6 v=0
408025 On ch=1 n=g#3 v=60
408040 On ch=1 n=c#3 v=0
408065 On ch=1 n=g#3 v=0
408135 On ch=1 n=a#6 v=76
408140 On ch=1 n=f#6 v=58
408140 On ch=1 n=a#5 v=50
408170 On ch=1 n=a#5 v=0
408175 On ch=1 n=f#6 v=0
408180 On ch=1 n=a#6 v=0
408215 On ch=1 n=g#6 v=86
408220 On ch=1 n=f6 v=77
408220 On ch=1 n=g#5 v=76
408220 On ch=1 n=g#4 v=56
408220 On ch=1 n=c#4 v=59
408250 Par ch=1 c=64 v=88
408265 Par ch=1 c=64 v=72
408275 Par ch=1 c=64 v=40
408295 Par ch=1 c=64 v=0
408365 On ch=1 n=c#4 v=0
408380 On ch=1 n=g#4 v=0
408570 On ch=1 n=c#3 v=58
408575 Par ch=1 c=64 v=40
408590 Par ch=1 c=64 v=72
408605 On ch=1 n=g#5 v=0
408605 Par ch=1 c=64 v=88
408620 On ch=1 n=c#3 v=0
408620 On ch=1 n=f6 v=0
408620 Par ch=1 c=64 v=127
408645 On ch=1 n=g#6 v=0
408725 On ch=1 n=a3 v=56
408760 On ch=1 n=a3 v=0
408885 Par ch=1 c=64 v=104
408905 Par ch=1 c=64 v=40
408910 On ch=1 n=e7 v=92
408915 On ch=1 n=c#7 v=71
408915 On ch=1 n=e6 v=79
408915 Par ch=1 c=64 v=0
408935 On ch=1 n=c#4 v=55
408935 On ch=1 n=a4 v=54
408975 On ch=1 n=c#4 v=0
408980 On ch=1 n=a4 v=0
409005 Par ch=1 c=64 v=24
409020 Par ch=1 c=64 v=72
409035 Par ch=1 c=64 v=127
409115 On ch=1 n=c#7 v=0
409170 Par ch=1 c=64 v=72
409185 Par ch=1 c=64 v=0
409215 On ch=1 n=e7 v=0
409230 On ch=1 n=c#4 v=58
409230 Par ch=1 c=64 v=24
409245 Par ch=1 c=64 v=72
409260 Par ch=1 c=64 v=127
409275 On ch=1 n=e6 v=0
409305 On ch=1 n=c#4 v=0
409365 Par ch=1 c=64 v=104
409380 Par ch=1 c=64 v=88
409385 On ch=1 n=d7 v=77
409395 On ch=1 n=d6 v=67
409395 Par ch=1 c=64 v=56
409400 On ch=1 n=b6 v=71
409405 On ch=1 n=a4 v=61
409405 Par ch=1 c=64 v=40
409420 Par ch=1 c=64 v=24
409450 On ch=1 n=d6 v=0
409465 On ch=1 n=d7 v=0
409470 Par ch=1 c=64 v=0
409485 On ch=1 n=a4 v=0
409495 On ch=1 n=b6 v=0
409550 On ch=1 n=c#7 v=76
409555 On ch=1 n=e5 v=64
409560 On ch=1 n=c#6 v=69
409570 On ch=1 n=a6 v=66
409600 On ch=1 n=a6 v=0
409610 On ch=1 n=c#6 v=0
409615 On ch=1 n=e5 v=0
409645 On ch=1 n=c#7 v=0
409700 On ch=1 n=d7 v=89
409700 On ch=1 n=b6 v=67
409705 On ch=1 n=d6 v=80
409760 On ch=1 n=d6 v=0
409770 On ch=1 n=d7 v=0
409780 On ch=1 n=b6 v=0
409850 On ch=1 n=e7 v=87
409850 On ch=1 n=c#7 v=71
409860 On ch=1 n=e6 v=82
409900 On ch=1 n=c#3 v=25
409900 Par ch=1 c=64 v=40
409915 On ch=1 n=e6 v=0
409915 Par ch=1 c=64 v=88
409930 Par ch=1 c=64 v=127
409945 On ch=1 n=e7 v=0
409955 On ch=1 n=c#7 v=0
410000 On ch=1 n=a3 v=58
410005 On ch=1 n=c#3 v=0
410030 On ch=1 n=a3 v=0
410100 On ch=1 n=f#7 v=77
410100 On ch=1 n=f#6 v=64
410100 On ch=1 n=d7 v=61
410150 On ch=1 n=d7 v=0
410155 On ch=1 n=f#6 v=0
410155 On ch=1 n=f#7 v=0
410175 On ch=1 n=e7 v=92
410175 On ch=1 n=c#7 v=74
410175 On ch=1 n=e6 v=83
410200 On ch=1 n=c#4 v=56
410200 Par ch=1 c=64 v=88
410210 On ch=1 n=a4 v=45
410215 Par ch=1 c=64 v=56
410230 Par ch=1 c=64 v=40
410270 On ch=1 n=c#4 v=0
410285 Par ch=1 c=64 v=24
410300 On ch=1 n=a4 v=0
410365 Par ch=1 c=64 v=0
410485 On ch=1 n=c#7 v=0
410490 On ch=1 n=c#4 v=63
410495 On ch=1 n=e7 v=0
410500 Par ch=1 c=64 v=56
410515 Par ch=1 c=64 v=104
410530 Par ch=1 c=64 v=127
410540 On ch=1 n=e6 v=0
410570 On ch=1 n=c#4 v=0
410645 On ch=1 n=d7 v=82
410645 Par ch=1 c=64 v=88
410650 On ch=1 n=b6 v=78
410655 On ch=1 n=d6 v=70
410660 Par ch=1 c=64 v=72
410665 On ch=1 n=a4 v=59
410675 Par ch=1 c=64 v=56
410690 Par ch=1 c=64 v=40
410705 On ch=1 n=d6 v=0
410705 Par ch=1 c=64 v=24
410720 On ch=1 n=d7 v=0
410720 Par ch=1 c=64 v=0
410745 On ch=1 n=a4 v=0
410745 On ch=1 n=b6 v=0
410815 On ch=1 n=c#7 v=78
410815 On ch=1 n=c#6 v=83
410820 On ch=1 n=e5 v=47
410830 On ch=1 n=a6 v=65
410850 On ch=1 n=e5 v=0
410860 On ch=1 n=a6 v=0
410865 On ch=1 n=c#6 v=0
410900 On ch=1 n=c#7 v=0
410955 On ch=1 n=d7 v=89
410960 On ch=1 n=d6 v=80
411005 On ch=1 n=d6 v=0
411030 On ch=1 n=d7 v=0
411110 On ch=1 n=e7 v=89
411115 On ch=1 n=e6 v=84
411115 On ch=1 n=c#7 v=76
411120 On ch=1 n=c#3 v=48
411120 Par ch=1 c=64 v=56
411135 Par ch=1 c=64 v=104
411150 Par ch=1 c=64 v=127
411165 On ch=1 n=e6 v=0
411190 On ch=1 n=e7 v=0
411205 On ch=1 n=c#7 v=0
411250 On ch=1 n=c#3 v=0
411250 On ch=1 n=a3 v=67
411275 On ch=1 n=a3 v=0
411355 On ch=1 n=f#7 v=80
411355 On ch=1 n=f#6 v=60
411355 On ch=1 n=d7 v=58
411395 On ch=1 n=f#7 v=0
411400 On ch=1 n=d7 v=0
411400 On ch=1 n=f#6 v=0
411440 On ch=1 n=c#4 v=53
411440 On ch=1 n=a4 v=51
411440 On ch=1 n=e7 v=96
411440 On ch=1 n=c#7 v=73
411440 On ch=1 n=e6 v=83
411450 Par ch=1 c=64 v=88
411455 Par ch=1 c=64 v=72
411470 Par ch=1 c=64 v=40
411495 Par ch=1 c=64 v=24
411550 Par ch=1 c=64 v=0
411555 On ch=1 n=c#4 v=0
411560 On ch=1 n=a4 v=0
411775 On ch=1 n=c#3 v=56
411815 Par ch=1 c=64 v=40
411830 Par ch=1 c=64 v=72
411845 Par ch=1 c=64 v=104
411865 On ch=1 n=e6 v=0
411865 Par ch=1 c=64 v=127
411870 On ch=1 n=c#7 v=0
411910 On ch=1 n=e7 v=0
411925 On ch=1 n=a3 v=68
411955 On ch=1 n=c#3 v=0
411970 On ch=1 n=a3 v=0
412115 Par ch=1 c=64 v=72
412120 On ch=1 n=a7 v=99
412125 On ch=1 n=a6 v=80
412125 On ch=1 n=f#7 v=71
412135 On ch=1 n=c#4 v=69
412135 Par ch=1 c=64 v=0
412145 On ch=1 n=a4 v=59
412180 On ch=1 n=a4 v=0
412195 On ch=1 n=c#4 v=0
412205 Par ch=1 c=64 v=24
412220 Par ch=1 c=64 v=72
412235 Par ch=1 c=64 v=127
412395 Par ch=1 c=64 v=88
412410 Par ch=1 c=64 v=24
412425 Par ch=1 c=64 v=0
412440 On ch=1 n=a7 v=0
412445 On ch=1 n=c#4 v=65
412450 On ch=1 n=a6 v=0
412455 On ch=1 n=f#7 v=0
412485 Par ch=1 c=64 v=56
412500 Par ch=1 c=64 v=88
412515 Par ch=1 c=64 v=127
412525 On ch=1 n=c#4 v=0
412590 Par ch=1 c=64 v=104
412600 On ch=1 n=g#7 v=88
412605 On ch=1 n=g#6 v=77
412605 Par ch=1 c=64 v=88
412610 On ch=1 n=e7 v=77
412610 On ch=1 n=f#4 v=62
412665 On ch=1 n=g#6 v=0
412665 Par ch=1 c=64 v=72
412690 On ch=1 n=g#7 v=0
412695 Par ch=1 c=64 v=56
412700 On ch=1 n=e7 v=0
412710 Par ch=1 c=64 v=40
412715 On ch=1 n=f#4 v=0
412740 Par ch=1 c=64 v=24
412765 On ch=1 n=a4 v=53
412765 On ch=1 n=d5 v=62
412765 On ch=1 n=f#6 v=61
412765 On ch=1 n=d7 v=71
412765 On ch=1 n=f#7 v=77
412800 On ch=1 n=f#6 v=0
412820 On ch=1 n=d5 v=0
412820 On ch=1 n=a4 v=0
412825 Par ch=1 c=64 v=0
412835 On ch=1 n=d7 v=0
412875 On ch=1 n=f#7 v=0
412915 On ch=1 n=g#7 v=88
412920 On ch=1 n=g#6 v=75
412920 On ch=1 n=e7 v=77
412965 On ch=1 n=g#6 v=0
412985 On ch=1 n=e7 v=0
413000 On ch=1 n=g#7 v=0
413075 On ch=1 n=a7 v=96
413075 On ch=1 n=f#7 v=69
413080 On ch=1 n=a6 v=78
413090 On ch=1 n=c#3 v=58
413095 Par ch=1 c=64 v=24
413110 Par ch=1 c=64 v=72
413125 On ch=1 n=a6 v=0
413125 Par ch=1 c=64 v=127
413155 On ch=1 n=f#7 v=0
413165 On ch=1 n=a7 v=0
413210 On ch=1 n=c#3 v=0
413210 On ch=1 n=a3 v=63
413250 On ch=1 n=a3 v=0
413315 On ch=1 n=b7 v=78
413325 On ch=1 n=g#7 v=62
413325 On ch=1 n=b6 v=60
413350 On ch=1 n=b7 v=0
413360 On ch=1 n=b6 v=0
413360 On ch=1 n=g#7 v=0
413380 Par ch=1 c=64 v=72
413395 On ch=1 n=a7 v=102
413395 Par ch=1 c=64 v=0
413400 On ch=1 n=a6 v=85
413400 On ch=1 n=a4 v=63
413400 On ch=1 n=c#4 v=63
413405 On ch=1 n=f#7 v=83
413465 Par ch=1 c=64 v=24
413475 On ch=1 n=c#4 v=0
413480 Par ch=1 c=64 v=56
413490 On ch=1 n=a4 v=0
413495 Par ch=1 c=64 v=88
413510 Par ch=1 c=64 v=127
413645 Par ch=1 c=64 v=104
413660 On ch=1 n=f#7 v=0
413660 Par ch=1 c=64 v=56
413670 Par ch=1 c=64 v=0
413710 On ch=1 n=a7 v=0
413725 On ch=1 n=c#4 v=69
413735 Par ch=1 c=64 v=40
413745 On ch=1 n=a6 v=0
413750 Par ch=1 c=64 v=88
413765 Par ch=1 c=64 v=127
413810 On ch=1 n=c#4 v=0
413880 On ch=1 n=g#7 v=88
413885 On ch=1 n=g#6 v=78
413885 On ch=1 n=e7 v=82
413900 On ch=1 n=f#4 v=55
413945 On ch=1 n=g#6 v=0
413965 On ch=1 n=g#7 v=0
413990 On ch=1 n=e7 v=0
414000 Par ch=1 c=64 v=72
414015 Par ch=1 c=64 v=40
414025 On ch=1 n=f#4 v=0
414045 On ch=1 n=f#7 v=77
414050 On ch=1 n=f#6 v=73
414055 On ch=1 n=d7 v=74
414060 Par ch=1 c=64 v=88
414065 On ch=1 n=d5 v=57
414065 On ch=1 n=a4 v=56
414075 Par ch=1 c=64 v=127
414095 On ch=1 n=d5 v=0
414100 On ch=1 n=a4 v=0
414100 On ch=1 n=f#6 v=0
414135 On ch=1 n=d7 v=0
414150 On ch=1 n=f#7 v=0
414200 On ch=1 n=g#7 v=87
414210 On ch=1 n=g#6 v=73
414220 On ch=1 n=f7 v=63
414250 On ch=1 n=f7 v=0
414250 On ch=1 n=g#6 v=0
414290 On ch=1 n=g#7 v=0
414340 Par ch=1 c=64 v=72
414355 Par ch=1 c=64 v=24
414365 On ch=1 n=a7 v=91
414365 On ch=1 n=f#7 v=70
414370 On ch=1 n=a6 v=83
414375 On ch=1 n=c#3 v=52
414405 Par ch=1 c=64 v=88
414415 Par ch=1 c=64 v=127
414420 On ch=1 n=a6 v=0
414450 On ch=1 n=f#7 v=0
414455 On ch=1 n=a7 v=0
414500 On ch=1 n=a3 v=63
414510 On ch=1 n=c#3 v=0
414525 On ch=1 n=a3 v=0
414600 On ch=1 n=b7 v=76
414600 On ch=1 n=b6 v=63
414600 On ch=1 n=g#7 v=58
414630 On ch=1 n=b6 v=0
414635 On ch=1 n=b7 v=0
414645 On ch=1 n=g#7 v=0
414685 Par ch=1 c=64 v=88
414690 On ch=1 n=f#7 v=77
414690 On ch=1 n=a6 v=70
414690 On ch=1 n=a7 v=93
414690 Par ch=1 c=64 v=24
414700 On ch=1 n=a4 v=49
414700 On ch=1 n=c#4 v=62
414710 Par ch=1 c=64 v=0
414730 On ch=1 n=c#4 v=0
414735 On ch=1 n=a4 v=0
414760 Par ch=1 c=64 v=40
414775 Par ch=1 c=64 v=88
414790 Par ch=1 c=64 v=127
414840 On ch=1 n=a6 v=0
414840 On ch=1 n=f#7 v=0
414845 On ch=1 n=a7 v=0
414960 On ch=1 n=a6 v=71
414985 On ch=1 n=f#6 v=58
414985 Par ch=1 c=64 v=104
414990 On ch=1 n=a6 v=0
414995 Par ch=1 c=64 v=72
415010 On ch=1 n=f#6 v=0
415010 Par ch=1 c=64 v=56
415025 Par ch=1 c=64 v=24
415040 Par ch=1 c=64 v=0
415045 On ch=1 n=b6 v=88
415045 On ch=1 n=f5 v=66
415050 On ch=1 n=g#6 v=79
415105 On ch=1 n=g#6 v=0
415125 On ch=1 n=b6 v=0
415135 On ch=1 n=f5 v=0
415205 On ch=1 n=b5 v=58
415275 On ch=1 n=a6 v=77
415280 On ch=1 n=f#6 v=69
415325 On ch=1 n=b5 v=0
415330 On ch=1 n=a6 v=0
415340 On ch=1 n=f#6 v=0
415375 On ch=1 n=b6 v=92
415375 On ch=1 n=g#6 v=82
415375 On ch=1 n=d6 v=56
415410 On ch=1 n=d6 v=0
415415 On ch=1 n=g#6 v=0
415440 On ch=1 n=b6 v=0
415595 On ch=1 n=f6 v=78
415595 On ch=1 n=c#7 v=79
415645 On ch=1 n=f6 v=0
415655 On ch=1 n=c#7 v=0
415675 On ch=1 n=d7 v=90
415690 On ch=1 n=f#6 v=68
415690 On ch=1 n=c#5 v=55
415735 On ch=1 n=f#6 v=0
415755 On ch=1 n=d7 v=0
415840 On ch=1 n=c#5 v=0
415840 On ch=1 n=f#5 v=48
415920 On ch=1 n=a6 v=79
415925 On ch=1 n=f#6 v=69
415955 On ch=1 n=f#5 v=0
416005 On ch=1 n=g#6 v=73
416005 On ch=1 n=a5 v=56
416005 On ch=1 n=f6 v=80
416010 On ch=1 n=f#6 v=0
416010 On ch=1 n=a6 v=0
416050 On ch=1 n=a5 v=0
416065 On ch=1 n=f6 v=0
416080 On ch=1 n=g#6 v=0
416235 On ch=1 n=a6 v=78
416235 On ch=1 n=f#6 v=78
416300 On ch=1 n=a6 v=0
416315 On ch=1 n=f5 v=54
416320 On ch=1 n=g#6 v=50
416320 On ch=1 n=b6 v=89
416335 On ch=1 n=f#6 v=0
416350 On ch=1 n=b6 v=0
416360 On ch=1 n=g#6 v=0
416445 On ch=1 n=f5 v=0
416480 On ch=1 n=b5 v=52
416540 On ch=1 n=f#6 v=70
416540 On ch=1 n=a6 v=68
416590 On ch=1 n=b5 v=0
416610 On ch=1 n=a6 v=0
416635 On ch=1 n=b6 v=88
416635 On ch=1 n=f6 v=63
416635 On ch=1 n=d6 v=59
416650 On ch=1 n=f#6 v=0
416665 On ch=1 n=d6 v=0
416665 On ch=1 n=f6 v=0
416710 On ch=1 n=b6 v=0
416860 On ch=1 n=f6 v=76
416860 On ch=1 n=c#7 v=74
416885 On ch=1 n=f6 v=0
416920 On ch=1 n=c#7 v=0
416950 On ch=1 n=d7 v=82
416950 On ch=1 n=f#6 v=71
416985 On ch=1 n=c#5 v=48
417000 On ch=1 n=f#6 v=0
417000 Par ch=1 c=64 v=40
417015 Par ch=1 c=64 v=72
417020 On ch=1 n=d7 v=0
417025 Par ch=1 c=64 v=104
417115 On ch=1 n=f#5 v=53
417115 Par ch=1 c=64 v=88
417130 Par ch=1 c=64 v=72
417145 Par ch=1 c=64 v=56
417160 Par ch=1 c=64 v=40
417175 Par ch=1 c=64 v=0
417265 On ch=1 n=f#5 v=0
417265 Par ch=1 c=64 v=56
417270 On ch=1 n=g#7 v=79
417280 On ch=1 n=c#5 v=0
417280 On ch=1 n=a5 v=54
417280 Par ch=1 c=64 v=104
417290 Par ch=1 c=64 v=127
417330 On ch=1 n=a7 v=74
417340 On ch=1 n=a5 v=0
417360 On ch=1 n=g#7 v=0
417385 On ch=1 n=a7 v=0
417410 On ch=1 n=b7 v=76
417480 On ch=1 n=b7 v=0
417490 On ch=1 n=a7 v=72
417520 On ch=1 n=a7 v=0
417575 Par ch=1 c=64 v=88
417580 On ch=1 n=d#7 v=81
417580 On ch=1 n=g#5 v=48
417580 On ch=1 n=f#7 v=77
417585 Par ch=1 c=64 v=72
417605 On ch=1 n=f#7 v=0
417605 Par ch=1 c=64 v=56
417620 Par ch=1 c=64 v=40
417635 Par ch=1 c=64 v=24
417650 Par ch=1 c=64 v=0
417665 On ch=1 n=d#7 v=0
417735 On ch=1 n=f7 v=79
417745 On ch=1 n=c#7 v=70
417750 On ch=1 n=d#6 v=55
417805 On ch=1 n=c#7 v=0
417835 On ch=1 n=f7 v=0
417890 On ch=1 n=d#7 v=76
417910 On ch=1 n=f#6 v=61
417935 On ch=1 n=g#5 v=0
417940 On ch=1 n=d#6 v=0
417950 On ch=1 n=f#6 v=0
417985 On ch=1 n=d#7 v=0
418060 On ch=1 n=g#7 v=83
418070 On ch=1 n=g#6 v=61
418100 On ch=1 n=g#6 v=0
418100 On ch=1 n=g#7 v=0
418215 On ch=1 n=c#5 v=58
418215 On ch=1 n=d#7 v=73
418225 On ch=1 n=f#7 v=77
418280 On ch=1 n=f#7 v=0
418300 On ch=1 n=d#7 v=0
418350 On ch=1 n=c#5 v=0
418375 On ch=1 n=f7 v=73
418375 On ch=1 n=g#5 v=56
418380 On ch=1 n=c#7 v=64
418450 On ch=1 n=c#7 v=0
418475 On ch=1 n=f7 v=0
418545 On ch=1 n=d#7 v=71
418550 On ch=1 n=c6 v=67
418575 On ch=1 n=c6 v=0
418590 On ch=1 n=d#7 v=0
418595 On ch=1 n=g#5 v=0
418615 Par ch=1 c=64 v=24
418675 Par ch=1 c=64 v=0
418705 On ch=1 n=g#6 v=77
418710 On ch=1 n=g#5 v=71
418735 On ch=1 n=g#5 v=0
418765 On ch=1 n=g#6 v=0
418865 On ch=1 n=g#4 v=64
418875 On ch=1 n=f#6 v=68
418880 On ch=1 n=d#6 v=55
418905 On ch=1 n=f#6 v=0
418930 On ch=1 n=d#6 v=0
418985 On ch=1 n=g#4 v=0
419025 On ch=1 n=f6 v=75
419025 On ch=1 n=d#5 v=60
419040 On ch=1 n=c#6 v=63
419080 On ch=1 n=c#6 v=0
419105 On ch=1 n=f6 v=0
419180 On ch=1 n=d#6 v=79
419190 On ch=1 n=c6 v=61
419195 On ch=1 n=f#5 v=62
419220 On ch=1 n=d#5 v=0
419225 On ch=1 n=f#5 v=0
419230 On ch=1 n=c6 v=0
419285 On ch=1 n=d#6 v=0
419340 On ch=1 n=g#6 v=85
419340 On ch=1 n=g#5 v=60
419440 On ch=1 n=g#5 v=0
419440 On ch=1 n=g#6 v=0
419515 On ch=1 n=f6 v=79
419525 On ch=1 n=c#6 v=61
419530 On ch=1 n=c#4 v=49
419535 Par ch=1 c=64 v=56
419550 Par ch=1 c=64 v=88
419565 Par ch=1 c=64 v=127
419575 On ch=1 n=c#6 v=0
419590 On ch=1 n=f6 v=0
419595 On ch=1 n=c#4 v=0
419670 On ch=1 n=g#4 v=57
419785 On ch=1 n=g#4 v=0
419855 On ch=1 n=g#7 v=77
419855 On ch=1 n=f7 v=69
419880 On ch=1 n=g#5 v=46
419885 On ch=1 n=c#5 v=40
419890 Par ch=1 c=64 v=104
419920 Par ch=1 c=64 v=88
419930 On ch=1 n=c#5 v=0
419935 On ch=1 n=f7 v=0
419935 Par ch=1 c=64 v=72
419945 On ch=1 n=g#5 v=0
419965 Par ch=1 c=64 v=56
419970 On ch=1 n=g#7 v=0
420035 On ch=1 n=g#4 v=51
420175 On ch=1 n=g#4 v=0
420185 On ch=1 n=c#4 v=62
420205 Par ch=1 c=64 v=56
420220 Par ch=1 c=64 v=88
420235 Par ch=1 c=64 v=104
420240 On ch=1 n=c#4 v=0
420320 Par ch=1 c=64 v=88
420340 On ch=1 n=g#4 v=51
420340 Par ch=1 c=64 v=56
420345 On ch=1 n=c#8 v=68
420350 On ch=1 n=a#7 v=63
420350 Par ch=1 c=64 v=24
420365 Par ch=1 c=64 v=0
420420 On ch=1 n=g#4 v=0
420430 On ch=1 n=c#8 v=0
420450 On ch=1 n=a#7 v=0
420500 On ch=1 n=g#5 v=46
420505 On ch=1 n=g#7 v=67
420510 On ch=1 n=c8 v=72
420510 On ch=1 n=c#5 v=46
420540 On ch=1 n=c#5 v=0
420550 On ch=1 n=g#5 v=0
420565 On ch=1 n=g#7 v=0
420585 On ch=1 n=c8 v=0
420660 On ch=1 n=a#7 v=68
420660 On ch=1 n=f#7 v=61
420665 On ch=1 n=g#4 v=53
420735 On ch=1 n=f#7 v=0
420750 On ch=1 n=g#4 v=0
420770 On ch=1 n=a#7 v=0
420815 On ch=1 n=g#7 v=77
420820 On ch=1 n=c#4 v=52
420825 On ch=1 n=f7 v=62
420860 On ch=1 n=c#4 v=0
420895 On ch=1 n=g#7 v=0
420905 On ch=1 n=f7 v=0
420960 On ch=1 n=g#4 v=51
421055 On ch=1 n=g#4 v=0
421145 On ch=1 n=g#5 v=56
421150 On ch=1 n=g#6 v=81
421160 On ch=1 n=f6 v=78
421165 On ch=1 n=c#5 v=47
421200 Par ch=1 c=64 v=24
421210 Par ch=1 c=64 v=56
421215 On ch=1 n=g#5 v=0
421225 On ch=1 n=c#5 v=0
421225 Par ch=1 c=64 v=88
421255 Par ch=1 c=64 v=104
421300 On ch=1 n=g#4 v=49
421300 Par ch=1 c=64 v=127
421415 On ch=1 n=g#6 v=0
421430 On ch=1 n=f6 v=0
421435 On ch=1 n=g#4 v=0
421455 Par ch=1 c=64 v=104
421480 On ch=1 n=c#4 v=49
421500 Par ch=1 c=64 v=88
421510 On ch=1 n=c#4 v=0
421510 Par ch=1 c=64 v=72
421530 Par ch=1 c=64 v=56
421545 Par ch=1 c=64 v=40
421555 Par ch=1 c=64 v=24
421570 Par ch=1 c=64 v=0
421610 On ch=1 n=f#6 v=71
421615 On ch=1 n=g#4 v=47
421625 On ch=1 n=d#6 v=67
421690 On ch=1 n=f#6 v=0
421710 On ch=1 n=d#6 v=0
421715 On ch=1 n=g#4 v=0
421780 On ch=1 n=f6 v=73
421785 On ch=1 n=c#6 v=58
421790 On ch=1 n=g#5 v=50
421790 On ch=1 n=c5 v=59
421820 On ch=1 n=c5 v=0
421820 On ch=1 n=g#5 v=0
421850 On ch=1 n=f6 v=0
421855 On ch=1 n=c#6 v=0
421920 On ch=1 n=g#5 v=61
421930 On ch=1 n=d#6 v=69
421935 On ch=1 n=g#4 v=55
421980 On ch=1 n=g#4 v=0
421995 On ch=1 n=g#5 v=0
422015 On ch=1 n=d#6 v=0
422100 On ch=1 n=f6 v=80
422105 On ch=1 n=c#6 v=58
422110 On ch=1 n=c#4 v=50
422130 Par ch=1 c=64 v=24
422145 Par ch=1 c=64 v=56
422160 Par ch=1 c=64 v=88
422165 On ch=1 n=c#4 v=0
422180 On ch=1 n=f6 v=0
422185 On ch=1 n=c#6 v=0
422220 Par ch=1 c=64 v=104
422245 On ch=1 n=g#4 v=54
422290 Par ch=1 c=64 v=88
422305 Par ch=1 c=64 v=72
422320 On ch=1 n=g#4 v=0
422345 Par ch=1 c=64 v=56
422365 Par ch=1 c=64 v=40
422380 Par ch=1 c=64 v=0
422420 On ch=1 n=g#7 v=85
422425 On ch=1 n=f7 v=71
422425 On ch=1 n=g#5 v=50
422440 On ch=1 n=c#5 v=44
422490 On ch=1 n=g#5 v=0
422505 Par ch=1 c=64 v=56
422520 Par ch=1 c=64 v=72
422530 On ch=1 n=c#5 v=0
422535 Par ch=1 c=64 v=88
422585 On ch=1 n=g#4 v=51
422735 On ch=1 n=g#4 v=0
422735 Par ch=1 c=64 v=72
422745 On ch=1 n=c#4 v=54
422750 Par ch=1 c=64 v=56
422765 On ch=1 n=f7 v=0
422765 Par ch=1 c=64 v=40
422780 Par ch=1 c=64 v=24
422795 Par ch=1 c=64 v=0
422800 On ch=1 n=c#4 v=0
422855 On ch=1 n=g#7 v=0
422880 On ch=1 n=g#4 v=53
422880 On ch=1 n=c#8 v=74
422890 On ch=1 n=a#7 v=64
422960 On ch=1 n=g#4 v=0
422965 On ch=1 n=c#8 v=0
422985 On ch=1 n=a#7 v=0
423040 On ch=1 n=g#5 v=55
423045 On ch=1 n=g#7 v=70
423055 On ch=1 n=c8 v=71
423055 On ch=1 n=c#5 v=51
423090 On ch=1 n=c#5 v=0
423100 On ch=1 n=g#5 v=0
423105 On ch=1 n=g#7 v=0
423130 On ch=1 n=c8 v=0
423200 On ch=1 n=f#7 v=56
423200 On ch=1 n=a#7 v=69
423205 On ch=1 n=g#4 v=51
423255 On ch=1 n=f#7 v=0
423315 On ch=1 n=a#7 v=0
423340 On ch=1 n=g#4 v=0
423365 On ch=1 n=g#7 v=77
423370 On ch=1 n=f7 v=64
423375 On ch=1 n=c#4 v=55
423405 On ch=1 n=c#4 v=0
423420 On ch=1 n=g#7 v=0
423430 On ch=1 n=f7 v=0
423510 On ch=1 n=g#4 v=53
423595 On ch=1 n=g#4 v=0
423690 On ch=1 n=a#6 v=85
423690 On ch=1 n=f#6 v=76
423695 On ch=1 n=g#5 v=53
423715 On ch=1 n=c#5 v=44
423715 Par ch=1 c=64 v=24
423730 Par ch=1 c=64 v=72
423745 Par ch=1 c=64 v=127
423765 On ch=1 n=g#5 v=0
423780 On ch=1 n=c#5 v=0
423850 On ch=1 n=g#4 v=56
423870 On ch=1 n=a#6 v=0
423880 On ch=1 n=f#6 v=0
423975 On ch=1 n=g#4 v=0
424015 Par ch=1 c=64 v=104
424025 On ch=1 n=c#4 v=51
424025 On ch=1 n=g#6 v=69
424030 Par ch=1 c=64 v=88
424035 On ch=1 n=f6 v=68
424045 Par ch=1 c=64 v=72
424060 On ch=1 n=c#4 v=0
424060 Par ch=1 c=64 v=56
424075 Par ch=1 c=64 v=40
424085 Par ch=1 c=64 v=24
424100 On ch=1 n=f6 v=0
424100 Par ch=1 c=64 v=0
424105 On ch=1 n=g#6 v=0
424160 On ch=1 n=g#4 v=53
424170 On ch=1 n=f#6 v=73
424180 On ch=1 n=d#6 v=65
424240 On ch=1 n=d#6 v=0
424245 On ch=1 n=f#6 v=0
424270 On ch=1 n=g#4 v=0
424335 On ch=1 n=f6 v=70
424335 On ch=1 n=c#6 v=59
424335 On ch=1 n=g#5 v=54
424350 On ch=1 n=c5 v=58
424380 On ch=1 n=c5 v=0
424385 On ch=1 n=g#5 v=0
424395 On ch=1 n=c#6 v=0
424405 On ch=1 n=f6 v=0
424490 On ch=1 n=g#4 v=51
424490 On ch=1 n=d#6 v=73
424495 On ch=1 n=g#5 v=56
424535 On ch=1 n=g#5 v=0
424565 On ch=1 n=d#6 v=0
424590 On ch=1 n=g#4 v=0
424655 On ch=1 n=f6 v=78
424655 On ch=1 n=c#6 v=58
424665 Par ch=1 c=64 v=24
424670 On ch=1 n=c#4 v=48
424675 Par ch=1 c=64 v=72
424680 On ch=1 n=c#6 v=0
424690 Par ch=1 c=64 v=88
424705 On ch=1 n=c#4 v=0
424705 Par ch=1 c=64 v=104
424715 On ch=1 n=f6 v=0
424790 On ch=1 n=g#4 v=54
424875 On ch=1 n=g#4 v=0
424890 Par ch=1 c=64 v=88
424935 Par ch=1 c=64 v=72
424950 Par ch=1 c=64 v=56
424960 Par ch=1 c=64 v=24
424970 On ch=1 n=g#7 v=85
424975 Par ch=1 c=64 v=0
424980 On ch=1 n=f7 v=66
424995 On ch=1 n=g#5 v=40
425010 On ch=1 n=c#5 v=36
425055 On ch=1 n=g#5 v=0
425080 Par ch=1 c=64 v=24
425085 On ch=1 n=c#5 v=0
425095 Par ch=1 c=64 v=72
425105 Par ch=1 c=64 v=104
425120 Par ch=1 c=64 v=127
425135 On ch=1 n=g#4 v=49
425240 On ch=1 n=g#4 v=0
425250 Par ch=1 c=64 v=104
425280 Par ch=1 c=64 v=88
425295 Par ch=1 c=64 v=72
425305 Par ch=1 c=64 v=40
425310 On ch=1 n=c#4 v=42
425320 Par ch=1 c=64 v=24
425335 Par ch=1 c=64 v=0
425375 On ch=1 n=c#4 v=0
425395 On ch=1 n=f7 v=0
425425 On ch=1 n=g#7 v=0
425450 On ch=1 n=g#4 v=45
425455 On ch=1 n=c#8 v=71
425460 On ch=1 n=a#7 v=62
425525 On ch=1 n=c#8 v=0
425525 On ch=1 n=g#4 v=0
425540 On ch=1 n=a#7 v=0
425615 On ch=1 n=g#5 v=43
425615 On ch=1 n=g#7 v=60
425620 On ch=1 n=c8 v=66
425630 On ch=1 n=c#5 v=46
425655 On ch=1 n=c#5 v=0
425655 On ch=1 n=g#5 v=0
425685 On ch=1 n=g#7 v=0
425690 On ch=1 n=c8 v=0
425775 On ch=1 n=f#7 v=52
425775 On ch=1 n=a#7 v=68
425780 On ch=1 n=g#4 v=47
425820 On ch=1 n=g#4 v=0
425835 On ch=1 n=f#7 v=0
425865 On ch=1 n=a#7 v=0
425930 On ch=1 n=g#7 v=71
425935 On ch=1 n=f7 v=57
425935 On ch=1 n=c#4 v=54
425970 On ch=1 n=c#4 v=0
425975 On ch=1 n=f7 v=0
425990 On ch=1 n=g#7 v=0
426075 On ch=1 n=g#4 v=50
426155 On ch=1 n=g#4 v=0
426255 On ch=1 n=g#6 v=70
426260 On ch=1 n=g#5 v=38
426265 On ch=1 n=f6 v=63
426270 Par ch=1 c=64 v=40
426275 On ch=1 n=c#5 v=38
426285 Par ch=1 c=64 v=72
426300 Par ch=1 c=64 v=104
426310 On ch=1 n=c#5 v=0
426310 On ch=1 n=g#5 v=0
426315 Par ch=1 c=64 v=127
426400 On ch=1 n=g#4 v=46
426520 On ch=1 n=g#4 v=0
426565 On ch=1 n=g#6 v=0
426565 On ch=1 n=c#4 v=51
426570 On ch=1 n=f6 v=0
426625 On ch=1 n=c#4 v=0
426645 Par ch=1 c=64 v=104
426655 Par ch=1 c=64 v=88
426690 Par ch=1 c=64 v=72
426705 On ch=1 n=g#4 v=48
426705 Par ch=1 c=64 v=56
426710 On ch=1 n=f#6 v=65
426715 On ch=1 n=d#6 v=61
426715 Par ch=1 c=64 v=24
426730 Par ch=1 c=64 v=0
426780 On ch=1 n=f#6 v=0
426790 On ch=1 n=d#6 v=0
426805 On ch=1 n=g#4 v=0
426870 On ch=1 n=g#5 v=44
426875 On ch=1 n=f6 v=67
426875 On ch=1 n=c#6 v=55
426880 On ch=1 n=c5 v=49
426915 On ch=1 n=g#5 v=0
426920 On ch=1 n=c5 v=0
426930 On ch=1 n=c#6 v=0
426945 On ch=1 n=f6 v=0
427015 On ch=1 n=g#5 v=62
427015 On ch=1 n=g#4 v=54
427015 On ch=1 n=d#6 v=70
427075 On ch=1 n=g#5 v=0
427110 On ch=1 n=d#6 v=0
427140 On ch=1 n=g#4 v=0
427185 On ch=1 n=c#4 v=43
427185 On ch=1 n=c#6 v=56
427185 On ch=1 n=f6 v=73
427205 Par ch=1 c=64 v=40
427220 Par ch=1 c=64 v=56
427235 Par ch=1 c=64 v=72
427250 On ch=1 n=f6 v=0
427250 On ch=1 n=c#6 v=0
427270 On ch=1 n=c#4 v=0
427325 On ch=1 n=g#4 v=48
427425 On ch=1 n=g#4 v=0
427450 Par ch=1 c=64 v=40
427460 Par ch=1 c=64 v=24
427480 Par ch=1 c=64 v=0
427520 On ch=1 n=g#7 v=85
427525 On ch=1 n=f7 v=76
427540 On ch=1 n=g#5 v=35
427540 On ch=1 n=c#5 v=46
427590 Par ch=1 c=64 v=40
427600 On ch=1 n=g#5 v=0
427605 Par ch=1 c=64 v=88
427620 Par ch=1 c=64 v=127
427630 On ch=1 n=c#5 v=0
427685 On ch=1 n=g#4 v=42
427810 Par ch=1 c=64 v=104
427820 On ch=1 n=g#4 v=0
427850 Par ch=1 c=64 v=88
427860 On ch=1 n=c#4 v=42
427895 On ch=1 n=f7 v=0
427895 Par ch=1 c=64 v=72
427910 On ch=1 n=c#4 v=0
427910 Par ch=1 c=64 v=56
427935 Par ch=1 c=64 v=40
427965 On ch=1 n=g#7 v=0
427965 Par ch=1 c=64 v=24
427980 Par ch=1 c=64 v=0
427995 On ch=1 n=g#4 v=47
428000 On ch=1 n=c#8 v=74
428010 On ch=1 n=a#7 v=64
428080 On ch=1 n=g#4 v=0
428085 On ch=1 n=c#8 v=0
428090 On ch=1 n=a#7 v=0
428165 On ch=1 n=g#5 v=46
428170 On ch=1 n=g#7 v=60
428170 On ch=1 n=c8 v=66
428175 On ch=1 n=c#5 v=46
428205 On ch=1 n=c#5 v=0
428215 On ch=1 n=g#5 v=0
428235 On ch=1 n=g#7 v=0
428240 On ch=1 n=c8 v=0
428310 On ch=1 n=f#7 v=60
428315 On ch=1 n=a#7 v=65
428325 On ch=1 n=g#4 v=50
428375 On ch=1 n=f#7 v=0
428425 On ch=1 n=g#4 v=0
428425 On ch=1 n=a#7 v=0
428485 On ch=1 n=g#7 v=73
428490 On ch=1 n=f7 v=56
428505 On ch=1 n=c#4 v=34
428510 Par ch=1 c=64 v=24
428535 On ch=1 n=c#4 v=0
428550 On ch=1 n=f7 v=0
428560 On ch=1 n=g#7 v=0
428570 Par ch=1 c=64 v=0
428620 On ch=1 n=g#4 v=51
428735 On ch=1 n=g#4 v=0
428800 On ch=1 n=a#6 v=85
428805 On ch=1 n=f#6 v=77
428815 On ch=1 n=g#5 v=50
428825 On ch=1 n=c#5 v=48
428830 Par ch=1 c=64 v=56
428845 Par ch=1 c=64 v=104
428855 Par ch=1 c=64 v=127
428890 On ch=1 n=g#5 v=0
428895 On ch=1 n=c#5 v=0
428910 On ch=1 n=f#6 v=0
428945 On ch=1 n=a#6 v=0
428970 On ch=1 n=g#4 v=48
429085 On ch=1 n=g#4 v=0
429115 Par ch=1 c=64 v=104
429125 On ch=1 n=g#6 v=70
429130 Par ch=1 c=64 v=88
429145 On ch=1 n=c#4 v=52
429145 On ch=1 n=f6 v=67
429145 Par ch=1 c=64 v=72
429160 Par ch=1 c=64 v=40
429175 Par ch=1 c=64 v=24
429185 On ch=1 n=c#4 v=0
429185 Par ch=1 c=64 v=0
429200 On ch=1 n=f6 v=0
429205 On ch=1 n=g#6 v=0
429280 On ch=1 n=g#4 v=54
429280 On ch=1 n=f#6 v=75
429285 On ch=1 n=d#6 v=73
429350 On ch=1 n=d#6 v=0
429360 On ch=1 n=f#6 v=0
429385 On ch=1 n=g#4 v=0
429440 On ch=1 n=c#6 v=60
429445 On ch=1 n=f6 v=68
429445 On ch=1 n=g#5 v=51
429460 On ch=1 n=c5 v=56
429490 On ch=1 n=c5 v=0
429490 On ch=1 n=g#5 v=0
429505 On ch=1 n=c#6 v=0
429515 On ch=1 n=f6 v=0
429590 On ch=1 n=g#4 v=48
429600 On ch=1 n=d#6 v=71
429600 On ch=1 n=g#5 v=61
429650 On ch=1 n=g#5 v=0
429675 On ch=1 n=d#6 v=0
429705 On ch=1 n=g#4 v=0
429770 On ch=1 n=f6 v=68
429775 On ch=1 n=c#4 v=43
429775 Par ch=1 c=64 v=56
429785 On ch=1 n=c#6 v=38
429790 Par ch=1 c=64 v=88
429805 Par ch=1 c=64 v=104
429835 On ch=1 n=c#4 v=0
429845 On ch=1 n=f6 v=0
429865 On ch=1 n=c#6 v=0
429920 On ch=1 n=g#4 v=39
429950 Par ch=1 c=64 v=88
430005 Par ch=1 c=64 v=72
430010 On ch=1 n=g#4 v=0
430020 Par ch=1 c=64 v=56
430035 Par ch=1 c=64 v=40
430050 Par ch=1 c=64 v=0
430095 On ch=1 n=c#6 v=69
430110 On ch=1 n=g#5 v=40
430115 On ch=1 n=c#5 v=45
430120 On ch=1 n=f5 v=33
430135 Par ch=1 c=64 v=24
430150 Par ch=1 c=64 v=40
430155 On ch=1 n=f5 v=0
430160 Par ch=1 c=64 v=56
430175 Par ch=1 c=64 v=72
430180 On ch=1 n=c#5 v=0
430190 On ch=1 n=g#5 v=0
430195 Par ch=1 c=64 v=88
430200 On ch=1 n=c#6 v=0
430255 On ch=1 n=d6 v=76
430260 On ch=1 n=g#4 v=49
430325 On ch=1 n=d6 v=0
430375 On ch=1 n=g#4 v=0
430395 Par ch=1 c=64 v=40
430410 Par ch=1 c=64 v=0
430420 On ch=1 n=d#6 v=73
430425 On ch=1 n=g#5 v=44
430445 On ch=1 n=c#4 v=43
430520 On ch=1 n=c#4 v=0
430525 Par ch=1 c=64 v=24
430540 Par ch=1 c=64 v=72
430550 Par ch=1 c=64 v=104
430565 Par ch=1 c=64 v=127
430580 On ch=1 n=g#4 v=44
430665 On ch=1 n=g#5 v=0
430680 On ch=1 n=g#4 v=0
430725 On ch=1 n=d#6 v=0
430755 On ch=1 n=c5 v=41
430765 On ch=1 n=f#5 v=23
430810 On ch=1 n=c5 v=0
430815 On ch=1 n=f#5 v=0
430855 Par ch=1 c=64 v=104
430895 Par ch=1 c=64 v=88
430915 On ch=1 n=g#4 v=43
430925 On ch=1 n=f#6 v=65
430925 Par ch=1 c=64 v=72
430930 On ch=1 n=d#6 v=55
430940 Par ch=1 c=64 v=56
430955 Par ch=1 c=64 v=40
430970 Par ch=1 c=64 v=24
430980 On ch=1 n=d#6 v=0
430980 Par ch=1 c=64 v=0
431010 On ch=1 n=f#6 v=0
431025 On ch=1 n=g#4 v=0
431080 On ch=1 n=c#6 v=51
431080 On ch=1 n=f6 v=81
431090 On ch=1 n=c#4 v=54
431155 On ch=1 n=c#4 v=0
431175 On ch=1 n=f6 v=0
431185 On ch=1 n=c#6 v=0
431230 On ch=1 n=g#6 v=71
431240 On ch=1 n=g#4 v=45
431320 On ch=1 n=g#4 v=0
431335 On ch=1 n=g#6 v=0
431355 Par ch=1 c=64 v=40
431370 Par ch=1 c=64 v=72
431385 Par ch=1 c=64 v=88
431400 On ch=1 n=g#5 v=42
431400 On ch=1 n=c#6 v=64
431400 Par ch=1 c=64 v=104
431415 On ch=1 n=c#5 v=34
431420 On ch=1 n=f5 v=28
431435 On ch=1 n=g#5 v=0
431450 On ch=1 n=c#5 v=0
431455 On ch=1 n=f5 v=0
431465 On ch=1 n=c#6 v=0
431525 Par ch=1 c=64 v=88
431550 On ch=1 n=g#4 v=34
431560 Par ch=1 c=64 v=72
431570 Par ch=1 c=64 v=56
431585 Par ch=1 c=64 v=40
431600 Par ch=1 c=64 v=24
431615 Par ch=1 c=64 v=0
431710 On ch=1 n=g#4 v=0
431720 On ch=1 n=d#7 v=87
431725 On ch=1 n=g#6 v=60
431740 On ch=1 n=c#4 v=55
431775 Par ch=1 c=64 v=40
431790 Par ch=1 c=64 v=88
431805 On ch=1 n=c#4 v=0
431805 Par ch=1 c=64 v=127
431825 On ch=1 n=g#6 v=0
431890 On ch=1 n=g#4 v=42
432000 On ch=1 n=g#4 v=0
432040 On ch=1 n=d#7 v=0
432050 On ch=1 n=f#5 v=30
432070 On ch=1 n=c5 v=32
432110 On ch=1 n=c5 v=0
432115 On ch=1 n=f#5 v=0
432200 On ch=1 n=g#4 v=37
432220 Par ch=1 c=64 v=104
432235 On ch=1 n=f#7 v=67
432240 On ch=1 n=d#7 v=51
432275 Par ch=1 c=64 v=88
432290 On ch=1 n=d#7 v=0
432290 Par ch=1 c=64 v=72
432320 Par ch=1 c=64 v=56
432325 On ch=1 n=f#7 v=0
432335 Par ch=1 c=64 v=40
432345 On ch=1 n=g#4 v=0
432345 Par ch=1 c=64 v=24
432360 Par ch=1 c=64 v=0
432375 On ch=1 n=c#7 v=54
432380 On ch=1 n=f7 v=79
432400 On ch=1 n=c#4 v=52
432465 On ch=1 n=c#4 v=0
432490 On ch=1 n=c#7 v=0
432490 Par ch=1 c=64 v=24
432495 On ch=1 n=f7 v=0
432505 Par ch=1 c=64 v=72
432520 Par ch=1 c=64 v=104
432530 On ch=1 n=g#7 v=74
432535 Par ch=1 c=64 v=127
432540 On ch=1 n=g#4 v=46
432625 On ch=1 n=g#4 v=0
432645 On ch=1 n=g#7 v=0
432705 On ch=1 n=c#7 v=69
432715 On ch=1 n=f5 v=36
432715 On ch=1 n=c#5 v=37
432720 On ch=1 n=g#6 v=23
432755 On ch=1 n=c#5 v=0
432755 On ch=1 n=f5 v=0
432765 On ch=1 n=g#6 v=0
432775 On ch=1 n=c#7 v=0
432810 Par ch=1 c=64 v=104
432825 Par ch=1 c=64 v=88
432835 Par ch=1 c=64 v=72
432850 On ch=1 n=g#4 v=51
432865 Par ch=1 c=64 v=56
432895 Par ch=1 c=64 v=40
432910 Par ch=1 c=64 v=0
433010 On ch=1 n=g#4 v=0
433030 On ch=1 n=d#6 v=85
433035 On ch=1 n=g#5 v=56
433065 On ch=1 n=c#4 v=23
433080 Par ch=1 c=64 v=56
433090 On ch=1 n=g#5 v=0
433095 Par ch=1 c=64 v=104
433110 Par ch=1 c=64 v=127
433115 On ch=1 n=c#4 v=0
433190 On ch=1 n=g#4 v=56
433280 On ch=1 n=g#4 v=0
433285 On ch=1 n=d#6 v=0
433345 On ch=1 n=c5 v=47
433350 On ch=1 n=f#5 v=36
433405 On ch=1 n=c5 v=0
433415 On ch=1 n=f#5 v=0
433425 Par ch=1 c=64 v=104
433455 Par ch=1 c=64 v=88
433470 Par ch=1 c=64 v=72
433475 On ch=1 n=f#6 v=68
433475 On ch=1 n=d#6 v=46
433485 Par ch=1 c=64 v=56
433500 On ch=1 n=g#4 v=59
433500 Par ch=1 c=64 v=24
433510 Par ch=1 c=64 v=0
433525 On ch=1 n=f#6 v=0
433530 On ch=1 n=d#6 v=0
433540 On ch=1 n=g#6 v=70
433595 On ch=1 n=f#6 v=68
433605 On ch=1 n=g#6 v=0
433630 On ch=1 n=g#4 v=0
433660 On ch=1 n=c#6 v=52
433660 On ch=1 n=f6 v=81
433670 On ch=1 n=c#4 v=53
433710 On ch=1 n=f#6 v=0
433710 Par ch=1 c=64 v=56
433725 Par ch=1 c=64 v=88
433735 On ch=1 n=c#4 v=0
433745 Par ch=1 c=64 v=104
433750 On ch=1 n=c#6 v=0
433755 Par ch=1 c=64 v=127
433785 On ch=1 n=f6 v=0
433815 On ch=1 n=g#6 v=77
433815 Par ch=1 c=64 v=88
433830 On ch=1 n=g#4 v=54
433830 Par ch=1 c=64 v=72
433845 Par ch=1 c=64 v=56
433870 Par ch=1 c=64 v=40
433885 Par ch=1 c=64 v=0
433905 On ch=1 n=g#4 v=0
433930 On ch=1 n=g#6 v=0
433970 Par ch=1 c=64 v=24
433985 Par ch=1 c=64 v=56
433990 On ch=1 n=c#6 v=76
433995 On ch=1 n=g#5 v=47
434000 On ch=1 n=f5 v=35
434000 On ch=1 n=c#5 v=40
434000 Par ch=1 c=64 v=88
434015 Par ch=1 c=64 v=104
434020 On ch=1 n=g#5 v=0
434055 On ch=1 n=f5 v=0
434060 On ch=1 n=c#6 v=0
434070 On ch=1 n=c#5 v=0
434145 On ch=1 n=g#4 v=47
434145 Par ch=1 c=64 v=88
434160 Par ch=1 c=64 v=72
434190 Par ch=1 c=64 v=56
434200 Par ch=1 c=64 v=40
434215 Par ch=1 c=64 v=24
434230 Par ch=1 c=64 v=0
434275 On ch=1 n=g#4 v=0
434300 On ch=1 n=d#7 v=87
434300 On ch=1 n=c#4 v=56
434305 On ch=1 n=g#6 v=58
434345 Par ch=1 c=64 v=40
434360 Par ch=1 c=64 v=88
434370 On ch=1 n=g#6 v=0
434375 On ch=1 n=c#4 v=0
434375 Par ch=1 c=64 v=127
434450 On ch=1 n=g#4 v=46
434555 On ch=1 n=g#4 v=0
434595 On ch=1 n=d#7 v=0
434605 On ch=1 n=f#5 v=45
434610 On ch=1 n=c5 v=53
434675 On ch=1 n=c5 v=0
434675 Par ch=1 c=64 v=104
434680 On ch=1 n=f#5 v=0
434705 Par ch=1 c=64 v=88
434730 Par ch=1 c=64 v=72
434745 Par ch=1 c=64 v=56
434755 On ch=1 n=f#7 v=61
434755 On ch=1 n=g#4 v=48
434755 On ch=1 n=d#7 v=57
434765 Par ch=1 c=64 v=40
434775 Par ch=1 c=64 v=24
434790 Par ch=1 c=64 v=0
434795 On ch=1 n=f#7 v=0
434820 On ch=1 n=d#7 v=0
434825 On ch=1 n=g#7 v=75
434875 On ch=1 n=f#7 v=77
434905 On ch=1 n=g#7 v=0
434940 On ch=1 n=c#7 v=44
434950 On ch=1 n=g#4 v=0
434950 On ch=1 n=f7 v=83
434955 On ch=1 n=c#4 v=57
434965 On ch=1 n=f#7 v=0
434990 Par ch=1 c=64 v=24
435005 Par ch=1 c=64 v=56
435015 On ch=1 n=c#4 v=0
435020 Par ch=1 c=64 v=72
435035 Par ch=1 c=64 v=88
435060 On ch=1 n=c#7 v=0
435075 On ch=1 n=f7 v=0
435095 On ch=1 n=g#7 v=83
435100 On ch=1 n=g#4 v=54
435180 Par ch=1 c=64 v=40
435195 On ch=1 n=g#4 v=0
435195 Par ch=1 c=64 v=0
435215 On ch=1 n=g#7 v=0
435250 Par ch=1 c=64 v=56
435255 On ch=1 n=c#7 v=71
435260 On ch=1 n=g#6 v=53
435265 Par ch=1 c=64 v=88
435270 On ch=1 n=f5 v=44
435280 On ch=1 n=c#5 v=37
435280 Par ch=1 c=64 v=127
435315 On ch=1 n=f5 v=0
435325 On ch=1 n=c#7 v=0
435335 On ch=1 n=c#5 v=0
435335 On ch=1 n=g#6 v=0
435365 Par ch=1 c=64 v=104
435410 Par ch=1 c=64 v=88
435415 On ch=1 n=g#4 v=43
435425 Par ch=1 c=64 v=72
435440 Par ch=1 c=64 v=56
435455 Par ch=1 c=64 v=24
435465 Par ch=1 c=64 v=0
435555 On ch=1 n=g#4 v=0
435580 On ch=1 n=c6 v=64
435580 On ch=1 n=c#4 v=51
435600 Par ch=1 c=64 v=56
435610 Par ch=1 c=64 v=88
435645 On ch=1 n=c#4 v=0
435650 On ch=1 n=c6 v=0
435650 On ch=1 n=c#6 v=60
435720 On ch=1 n=d#6 v=69
435725 On ch=1 n=c#6 v=0
435725 On ch=1 n=g#4 v=33
435730 Par ch=1 c=64 v=72
435760 On ch=1 n=d#6 v=0
435780 Par ch=1 c=64 v=40
435785 On ch=1 n=f6 v=74
435795 Par ch=1 c=64 v=24
435805 Par ch=1 c=64 v=0
435825 On ch=1 n=g#4 v=0
435860 On ch=1 n=f#6 v=74
435865 On ch=1 n=f6 v=0
435865 On ch=1 n=f#5 v=40
435880 On ch=1 n=c5 v=42
435930 Par ch=1 c=64 v=24
435935 On ch=1 n=g#6 v=71
435940 Par ch=1 c=64 v=40
435955 Par ch=1 c=64 v=56
435965 Par ch=1 c=64 v=72
435975 On ch=1 n=f#6 v=0
435980 On ch=1 n=f#5 v=0
435985 On ch=1 n=c5 v=0
436005 On ch=1 n=g#4 v=36
436010 On ch=1 n=a#6 v=73
436030 On ch=1 n=g#6 v=0
436045 On ch=1 n=a#6 v=0
436050 Par ch=1 c=64 v=88
436080 On ch=1 n=c7 v=78
436125 Par ch=1 c=64 v=24
436140 Par ch=1 c=64 v=0
436150 On ch=1 n=c#7 v=80
436155 On ch=1 n=c7 v=0
436170 On ch=1 n=g#4 v=0
436170 On ch=1 n=c#4 v=53
436210 Par ch=1 c=64 v=24
436225 On ch=1 n=d#7 v=73
436225 Par ch=1 c=64 v=72
436235 Par ch=1 c=64 v=88
436250 On ch=1 n=c#7 v=0
436250 Par ch=1 c=64 v=127
436260 On ch=1 n=c#4 v=0
436280 On ch=1 n=d#7 v=0
436305 On ch=1 n=g#4 v=40
436305 On ch=1 n=f7 v=68
436375 On ch=1 n=f7 v=0
436380 On ch=1 n=f#7 v=73
436410 Par ch=1 c=64 v=72
436420 Par ch=1 c=64 v=24
436435 Par ch=1 c=64 v=0
436450 On ch=1 n=f#7 v=0
436460 On ch=1 n=g#4 v=0
436460 On ch=1 n=c#5 v=49
436460 On ch=1 n=g7 v=82
436465 On ch=1 n=f5 v=51
436490 Par ch=1 c=64 v=56
436505 Par ch=1 c=64 v=88
436515 Par ch=1 c=64 v=104
436525 On ch=1 n=f5 v=0
436525 Par ch=1 c=64 v=127
436540 On ch=1 n=g7 v=0
436545 On ch=1 n=a#7 v=74
436595 On ch=1 n=c#5 v=0
436605 On ch=1 n=g#4 v=38
436620 On ch=1 n=a#7 v=0
436625 On ch=1 n=g#7 v=75
436700 On ch=1 n=g#7 v=0
436700 On ch=1 n=a#7 v=76
436750 Par ch=1 c=64 v=88
436760 Par ch=1 c=64 v=56
436770 On ch=1 n=a#7 v=0
436770 Par ch=1 c=64 v=0
436780 On ch=1 n=g#4 v=0
436780 On ch=1 n=g#7 v=81
436785 On ch=1 n=d#7 v=70
436800 On ch=1 n=c#4 v=53
436845 Par ch=1 c=64 v=56
436855 On ch=1 n=c#4 v=0
436860 Par ch=1 c=64 v=104
436865 On ch=1 n=g#7 v=0
436865 On ch=1 n=a#7 v=71
436870 Par ch=1 c=64 v=127
436875 On ch=1 n=d#7 v=0
436925 On ch=1 n=g#4 v=42
436945 On ch=1 n=a#7 v=0
436945 On ch=1 n=g#7 v=79
437030 On ch=1 n=g#7 v=0
437035 On ch=1 n=a#7 v=71
437045 On ch=1 n=g#4 v=0
437085 On ch=1 n=f#5 v=37
437095 On ch=1 n=c5 v=45
437115 On ch=1 n=a#7 v=0
437115 On ch=1 n=g#7 v=73
437200 On ch=1 n=g#7 v=0
437205 On ch=1 n=a#7 v=71
437245 On ch=1 n=c5 v=0
437245 On ch=1 n=g#4 v=43
437260 On ch=1 n=f#7 v=73
437265 On ch=1 n=g#7 v=80
437270 On ch=1 n=a#7 v=0
437285 On ch=1 n=f#5 v=0
437320 On ch=1 n=f#7 v=0
437345 On ch=1 n=g#7 v=0
437345 On ch=1 n=a#7 v=85
437415 On ch=1 n=a#7 v=0
437420 On ch=1 n=g#7 v=87
437420 Par ch=1 c=64 v=56
437425 On ch=1 n=f7 v=73
437435 Par ch=1 c=64 v=0
437450 On ch=1 n=g#4 v=0
437455 On ch=1 n=f7 v=0
437460 On ch=1 n=c#4 v=55
437495 Par ch=1 c=64 v=24
437500 On ch=1 n=a#7 v=73
437505 On ch=1 n=g#7 v=0
437510 Par ch=1 c=64 v=72
437520 On ch=1 n=c#4 v=0
437520 Par ch=1 c=64 v=127
437575 On ch=1 n=a#7 v=0
437585 On ch=1 n=g#7 v=86
437585 On ch=1 n=g#4 v=45
437655 On ch=1 n=g#7 v=0
437660 On ch=1 n=a#7 v=67
437710 On ch=1 n=g#4 v=0
437730 On ch=1 n=a#7 v=0
437745 On ch=1 n=g#7 v=72
437760 On ch=1 n=c#7 v=67
437765 On ch=1 n=c#5 v=48
437765 On ch=1 n=f5 v=48
437820 On ch=1 n=f5 v=0
437825 On ch=1 n=g#7 v=0
437845 On ch=1 n=c#7 v=0
437855 On ch=1 n=c#5 v=0
437910 On ch=1 n=g#4 v=49
438000 Par ch=1 c=64 v=88
438010 Par ch=1 c=64 v=56
438025 Par ch=1 c=64 v=0
438060 On ch=1 n=g#4 v=0
438060 On ch=1 n=c6 v=76
438075 On ch=1 n=c#4 v=52
438125 On ch=1 n=c#6 v=68
438125 Par ch=1 c=64 v=40
438135 Par ch=1 c=64 v=72
438140 On ch=1 n=c#4 v=0
438140 On ch=1 n=c6 v=0
438145 Par ch=1 c=64 v=104
438160 Par ch=1 c=64 v=127
438200 On ch=1 n=d#6 v=72
438200 On ch=1 n=g#4 v=47
438205 On ch=1 n=c#6 v=0
438240 On ch=1 n=d#6 v=0
438270 On ch=1 n=f6 v=74
438330 On ch=1 n=g#4 v=0
438330 Par ch=1 c=64 v=88
438340 On ch=1 n=f6 v=0
438340 On ch=1 n=f#6 v=75
438345 Par ch=1 c=64 v=56
438355 Par ch=1 c=64 v=0
438360 On ch=1 n=f#5 v=50
438365 On ch=1 n=c5 v=56
438425 Par ch=1 c=64 v=24
438430 On ch=1 n=g#6 v=74
438440 Par ch=1 c=64 v=56
438445 On ch=1 n=f#5 v=0
438455 Par ch=1 c=64 v=88
438465 Par ch=1 c=64 v=104
438470 On ch=1 n=f#6 v=0
438485 On ch=1 n=c5 v=0
438505 On ch=1 n=g#4 v=40
438510 On ch=1 n=a#6 v=75
438545 On ch=1 n=g#6 v=0
438555 On ch=1 n=a#6 v=0
438580 On ch=1 n=c7 v=74
438610 Par ch=1 c=64 v=88
438625 Par ch=1 c=64 v=72
438640 Par ch=1 c=64 v=24
438650 On ch=1 n=c#7 v=76
438650 Par ch=1 c=64 v=0
438655 On ch=1 n=c7 v=0
438675 On ch=1 n=c#4 v=54
438680 On ch=1 n=g#4 v=0
438725 Par ch=1 c=64 v=40
438735 On ch=1 n=d#7 v=72
438745 On ch=1 n=c#4 v=0
438755 On ch=1 n=c#7 v=0
438780 On ch=1 n=d#7 v=0
438795 On ch=1 n=g#4 v=46
438810 On ch=1 n=f7 v=77
438880 On ch=1 n=f7 v=0
438890 On ch=1 n=f#7 v=73
438945 On ch=1 n=g#4 v=0
438945 Par ch=1 c=64 v=88
438955 On ch=1 n=f#7 v=0
438955 Par ch=1 c=64 v=56
438970 On ch=1 n=c#5 v=44
438970 On ch=1 n=g7 v=86
438970 Par ch=1 c=64 v=24
438980 On ch=1 n=f5 v=51
438980 Par ch=1 c=64 v=0
439005 Par ch=1 c=64 v=40
439015 Par ch=1 c=64 v=72
439030 Par ch=1 c=64 v=88
439040 On ch=1 n=f5 v=0
439040 Par ch=1 c=64 v=127
439050 On ch=1 n=a#7 v=76
439060 On ch=1 n=g7 v=0
439090 On ch=1 n=c#5 v=0
439115 On ch=1 n=g#4 v=45
439125 On ch=1 n=a#7 v=0
439130 On ch=1 n=g#7 v=78
439205 On ch=1 n=g#7 v=0
439205 On ch=1 n=a#7 v=77
439275 On ch=1 n=a#7 v=0
439275 Par ch=1 c=64 v=104
439290 On ch=1 n=g#7 v=77
439290 Par ch=1 c=64 v=72
439300 On ch=1 n=d#7 v=69
439300 Par ch=1 c=64 v=24
439305 On ch=1 n=g#4 v=0
439310 Par ch=1 c=64 v=0
439315 On ch=1 n=c#4 v=52
439360 Par ch=1 c=64 v=40
439370 On ch=1 n=c#4 v=0
439370 On ch=1 n=g#7 v=0
439370 On ch=1 n=a#7 v=71
439370 Par ch=1 c=64 v=72
439380 On ch=1 n=d#7 v=0
439385 Par ch=1 c=64 v=104
439395 Par ch=1 c=64 v=127
439445 On ch=1 n=a#7 v=0
439445 On ch=1 n=g#4 v=49
439450 On ch=1 n=g#7 v=79
439530 On ch=1 n=g#7 v=0
439530 On ch=1 n=a#7 v=69
439555 On ch=1 n=g#4 v=0
439605 On ch=1 n=f#5 v=53
439610 On ch=1 n=a#7 v=0
439615 On ch=1 n=g#7 v=80
439625 On ch=1 n=c5 v=46
439670 On ch=1 n=c5 v=0
439690 On ch=1 n=g#7 v=0
439690 On ch=1 n=f#5 v=0
439695 On ch=1 n=a#7 v=68
439755 On ch=1 n=g#4 v=47
439755 On ch=1 n=f#7 v=67
439760 On ch=1 n=g#7 v=84
439765 On ch=1 n=a#7 v=0
439815 On ch=1 n=f#7 v=0
439840 On ch=1 n=g#7 v=0
439840 On ch=1 n=a#7 v=80
439900 Par ch=1 c=64 v=88
439910 On ch=1 n=a#7 v=0
439910 Par ch=1 c=64 v=56
439915 On ch=1 n=g#7 v=85
439925 Par ch=1 c=64 v=0
439930 On ch=1 n=f7 v=61
439940 On ch=1 n=g#4 v=0
439950 On ch=1 n=c#4 v=60
439965 On ch=1 n=f7 v=0
439995 On ch=1 n=a#7 v=70
439995 Par ch=1 c=64 v=40
440000 On ch=1 n=g#7 v=0
440010 On ch=1 n=c#4 v=0
440010 Par ch=1 c=64 v=88
440025 Par ch=1 c=64 v=127
440075 On ch=1 n=a#7 v=0
440080 On ch=1 n=g#7 v=87
440085 On ch=1 n=g#4 v=47
440155 On ch=1 n=g#7 v=0
440165 On ch=1 n=a#7 v=68
440205 On ch=1 n=g#4 v=0
440220 Par ch=1 c=64 v=104
440230 On ch=1 n=a#7 v=0
440230 Par ch=1 c=64 v=72
440245 On ch=1 n=g#7 v=73
440245 Par ch=1 c=64 v=40
440250 On ch=1 n=c#7 v=62
440255 Par ch=1 c=64 v=24
440260 On ch=1 n=c#5 v=43
440265 On ch=1 n=f5 v=53
440290 Par ch=1 c=64 v=56
440305 On ch=1 n=f5 v=0
440305 On ch=1 n=c#7 v=0
440305 Par ch=1 c=64 v=88
440320 Par ch=1 c=64 v=104
440325 On ch=1 n=g#7 v=0
440325 On ch=1 n=a#7 v=68
440330 Par ch=1 c=64 v=127
440340 On ch=1 n=c#5 v=0
440405 On ch=1 n=a#7 v=0
440405 On ch=1 n=g#7 v=73
440410 On ch=1 n=g#4 v=46
440480 On ch=1 n=g#7 v=0
440485 On ch=1 n=a#7 v=73
440500 Par ch=1 c=64 v=72
440515 Par ch=1 c=64 v=24
440525 Par ch=1 c=64 v=0
440535 On ch=1 n=g#4 v=0
440550 On ch=1 n=a#7 v=0
440555 On ch=1 n=g#7 v=81
440560 On ch=1 n=d#7 v=82
440565 On ch=1 n=c#4 v=55
440600 Par ch=1 c=64 v=24
440615 Par ch=1 c=64 v=72
440625 On ch=1 n=c#4 v=0
440625 Par ch=1 c=64 v=127
440635 On ch=1 n=a#7 v=70
440640 On ch=1 n=g#7 v=0
440645 On ch=1 n=d#7 v=0
440695 On ch=1 n=g#4 v=48
440720 On ch=1 n=a#7 v=0
440720 On ch=1 n=g#7 v=80
440795 On ch=1 n=g#7 v=0
440800 On ch=1 n=a#7 v=70
440810 On ch=1 n=g#4 v=0
440870 On ch=1 n=f#5 v=53
440875 On ch=1 n=a#7 v=0
440880 On ch=1 n=g#7 v=77
440885 On ch=1 n=c5 v=46
440925 On ch=1 n=c5 v=0
440930 On ch=1 n=f#5 v=0
440940 On ch=1 n=g#7 v=0
440960 On ch=1 n=a#7 v=55
441005 Par ch=1 c=64 v=104
441010 On ch=1 n=g#7 v=74
441010 On ch=1 n=g#4 v=49
441020 On ch=1 n=f#7 v=77
441030 On ch=1 n=a#7 v=0
441090 On ch=1 n=f#7 v=0
441090 On ch=1 n=g#7 v=0
441100 On ch=1 n=a#7 v=77
441100 Par ch=1 c=64 v=127
441170 On ch=1 n=a#7 v=0
441175 On ch=1 n=g#7 v=81
441175 Par ch=1 c=64 v=56
441180 On ch=1 n=f7 v=82
441190 Par ch=1 c=64 v=0
441195 On ch=1 n=g#4 v=0
441215 On ch=1 n=c#4 v=58
441235 On ch=1 n=f7 v=0
441260 On ch=1 n=a#7 v=73
441260 Par ch=1 c=64 v=56
441265 On ch=1 n=g#7 v=0
441270 On ch=1 n=c#4 v=0
441275 Par ch=1 c=64 v=104
441285 Par ch=1 c=64 v=127
441335 On ch=1 n=a#7 v=0
441340 On ch=1 n=g#7 v=86
441340 On ch=1 n=g#4 v=45
441415 On ch=1 n=g#7 v=0
441420 On ch=1 n=a#7 v=69
441480 On ch=1 n=g#4 v=0
441490 On ch=1 n=a#7 v=0
441510 On ch=1 n=g#7 v=74
441510 On ch=1 n=c#7 v=73
441515 On ch=1 n=c#5 v=49
441525 On ch=1 n=f5 v=51
441560 On ch=1 n=f5 v=0
441565 On ch=1 n=c#7 v=0
441570 On ch=1 n=a#7 v=71
441575 On ch=1 n=g#7 v=0
441605 On ch=1 n=c#5 v=0
441650 On ch=1 n=a#7 v=0
441655 On ch=1 n=g#7 v=73
441660 On ch=1 n=g#4 v=46
441675 On ch=1 n=c#7 v=39
441715 On ch=1 n=c#7 v=0
441725 On ch=1 n=g#7 v=0
441730 On ch=1 n=a#7 v=74
441800 On ch=1 n=a#7 v=0
441800 Par ch=1 c=64 v=104
441815 Par ch=1 c=64 v=56
441820 On ch=1 n=g#4 v=0
441820 On ch=1 n=c7 v=77
441825 Par ch=1 c=64 v=0
441830 On ch=1 n=g#7 v=76
441835 On ch=1 n=c#4 v=56
441880 On ch=1 n=c7 v=0
441895 On ch=1 n=c#4 v=0
441900 Par ch=1 c=64 v=40
441910 On ch=1 n=a#7 v=68
441910 Par ch=1 c=64 v=72
441925 On ch=1 n=g#7 v=0
441925 Par ch=1 c=64 v=104
441935 Par ch=1 c=64 v=127
441965 On ch=1 n=g#4 v=46
441985 On ch=1 n=c#7 v=78
441995 On ch=1 n=a#7 v=0
442000 On ch=1 n=d#7 v=40
442005 On ch=1 n=g#7 v=71
442040 On ch=1 n=c#7 v=0
442050 On ch=1 n=d#7 v=0
442070 On ch=1 n=a#7 v=72
442075 On ch=1 n=g#7 v=0
442095 On ch=1 n=g#4 v=0
442095 Par ch=1 c=64 v=104
442110 Par ch=1 c=64 v=72
442120 Par ch=1 c=64 v=40
442135 On ch=1 n=d#7 v=78
442135 Par ch=1 c=64 v=24
442140 On ch=1 n=a#7 v=0
442140 On ch=1 n=g#7 v=74
442145 On ch=1 n=f#5 v=52
442155 On ch=1 n=c5 v=54
442155 Par ch=1 c=64 v=56
442170 Par ch=1 c=64 v=72
442180 Par ch=1 c=64 v=104
442195 Par ch=1 c=64 v=127
442200 On ch=1 n=d#7 v=0
442220 On ch=1 n=a#7 v=73
442225 On ch=1 n=f#5 v=0
442225 On ch=1 n=g#7 v=0
442245 On ch=1 n=c5 v=0
442285 On ch=1 n=e7 v=78
442295 On ch=1 n=a#7 v=0
442295 On ch=1 n=g#4 v=48
442300 On ch=1 n=g#7 v=71
442345 On ch=1 n=e7 v=0
442375 On ch=1 n=a#7 v=73
442385 On ch=1 n=g#7 v=0
442390 Par ch=1 c=64 v=88
442405 Par ch=1 c=64 v=40
442415 Par ch=1 c=64 v=0
442445 On ch=1 n=a#7 v=0
442445 On ch=1 n=f7 v=83
442460 On ch=1 n=g#4 v=0
442465 On ch=1 n=g#7 v=60
442470 On ch=1 n=c#4 v=52
442505 On ch=1 n=f7 v=0
442510 Par ch=1 c=64 v=40
442525 Par ch=1 c=64 v=72
442540 Par ch=1 c=64 v=88
442550 On ch=1 n=c#4 v=0
442550 On ch=1 n=a#7 v=69
442555 On ch=1 n=g#7 v=0
442600 On ch=1 n=f#7 v=84
442615 On ch=1 n=g#7 v=76
442625 On ch=1 n=a#7 v=0
442630 Par ch=1 c=64 v=127
442660 On ch=1 n=f#7 v=0
442685 On ch=1 n=a#7 v=71
442690 On ch=1 n=g#7 v=0
442700 Par ch=1 c=64 v=88
442715 Par ch=1 c=64 v=40
442725 Par ch=1 c=64 v=0
442760 On ch=1 n=a#7 v=0
442760 On ch=1 n=g7 v=84
442765 On ch=1 n=g#7 v=79
442775 On ch=1 n=c#5 v=51
442780 On ch=1 n=f5 v=50
442810 On ch=1 n=g7 v=0
442815 Par ch=1 c=64 v=56
442825 Par ch=1 c=64 v=88
442835 On ch=1 n=f5 v=0
442840 On ch=1 n=a#7 v=73
442840 Par ch=1 c=64 v=127
442845 On ch=1 n=c#5 v=0
442845 On ch=1 n=g#7 v=0
442920 On ch=1 n=a#7 v=0
442925 On ch=1 n=g#7 v=83
442930 On ch=1 n=g#4 v=46
442995 On ch=1 n=g#7 v=0
442995 On ch=1 n=a#7 v=73
443060 Par ch=1 c=64 v=104
443070 Par ch=1 c=64 v=40
443080 On ch=1 n=a#7 v=0
443085 On ch=1 n=g#4 v=0
443085 Par ch=1 c=64 v=0
443090 On ch=1 n=g#7 v=86
443100 On ch=1 n=f#7 v=67
443105 On ch=1 n=c#4 v=54
443120 Par ch=1 c=64 v=24
443130 Par ch=1 c=64 v=72
443145 Par ch=1 c=64 v=127
443165 On ch=1 n=c#4 v=0
443165 On ch=1 n=f#7 v=0
443165 On ch=1 n=a#7 v=72
443170 On ch=1 n=g#7 v=0
443235 On ch=1 n=g#4 v=47
443245 On ch=1 n=a#7 v=0
443250 On ch=1 n=f7 v=78
443250 On ch=1 n=g#7 v=77
443305 On ch=1 n=f7 v=0
443325 On ch=1 n=a#7 v=71
443330 On ch=1 n=g#7 v=0
443355 On ch=1 n=g#4 v=0
443405 On ch=1 n=a#7 v=0
443410 On ch=1 n=d#7 v=80
443415 On ch=1 n=g#7 v=79
443415 On ch=1 n=f#5 v=52
443425 On ch=1 n=c5 v=48
443460 On ch=1 n=c5 v=0
443470 On ch=1 n=f#5 v=0
443470 On ch=1 n=d#7 v=0
443485 On ch=1 n=g#7 v=0
443485 On ch=1 n=a#7 v=74
443555 On ch=1 n=g#4 v=47
443560 On ch=1 n=g#7 v=85
443565 On ch=1 n=a#7 v=0
443565 On ch=1 n=f#7 v=64
443630 On ch=1 n=f#7 v=0
443640 On ch=1 n=g#7 v=0
443640 On ch=1 n=a#7 v=79
443660 Par ch=1 c=64 v=104
443670 Par ch=1 c=64 v=72
443685 Par ch=1 c=64 v=24
443690 On ch=1 n=g#4 v=0
443695 Par ch=1 c=64 v=0
443700 On ch=1 n=a#7 v=0
443715 On ch=1 n=g#7 v=91
443720 On ch=1 n=f7 v=82
443730 On ch=1 n=c#4 v=51
443770 Par ch=1 c=64 v=72
443780 On ch=1 n=f7 v=0
443780 Par ch=1 c=64 v=127
443790 On ch=1 n=a#7 v=73
443795 On ch=1 n=c#4 v=0
443795 On ch=1 n=g#7 v=0
443870 On ch=1 n=a#7 v=0
443870 On ch=1 n=g#4 v=48
443870 On ch=1 n=g#7 v=77
443945 On ch=1 n=g#7 v=0
443950 On ch=1 n=a#7 v=69
443965 On ch=1 n=g#4 v=0
444040 On ch=1 n=a#7 v=0
444040 On ch=1 n=g#7 v=75
444055 On ch=1 n=f5 v=54
444055 On ch=1 n=c#7 v=58
444060 On ch=1 n=c#5 v=47
444095 On ch=1 n=f5 v=0
444115 On ch=1 n=c#5 v=0
444115 On ch=1 n=c#7 v=0
444115 On ch=1 n=g#7 v=0
444125 On ch=1 n=a#7 v=68
444200 On ch=1 n=a#7 v=0
444200 On ch=1 n=g#7 v=65
444205 On ch=1 n=g#4 v=47
444280 On ch=1 n=g#7 v=0
444280 On ch=1 n=a#7 v=75
444300 Par ch=1 c=64 v=104
444305 Par ch=1 c=64 v=56
444320 Par ch=1 c=64 v=0
444325 On ch=1 n=g#4 v=0
444345 On ch=1 n=a#7 v=0
444350 On ch=1 n=c7 v=82
444355 On ch=1 n=c#4 v=55
444360 On ch=1 n=g#7 v=69
444395 Par ch=1 c=64 v=56
444405 On ch=1 n=c7 v=0
444405 Par ch=1 c=64 v=104
444410 On ch=1 n=c#4 v=0
444420 Par ch=1 c=64 v=127
444435 On ch=1 n=a#7 v=72
444450 On ch=1 n=g#7 v=0
444490 On ch=1 n=g#4 v=47
444505 On ch=1 n=c#7 v=82
444515 On ch=1 n=a#7 v=0
444535 On ch=1 n=g#7 v=58
444565 On ch=1 n=c#7 v=0
444595 On ch=1 n=a#7 v=67
444610 On ch=1 n=g#7 v=0
444610 On ch=1 n=g#4 v=0
444615 Par ch=1 c=64 v=72
444630 Par ch=1 c=64 v=24
444640 Par ch=1 c=64 v=0
444655 On ch=1 n=f#5 v=53
444665 On ch=1 n=d#7 v=76
444665 Par ch=1 c=64 v=24
444675 On ch=1 n=a#7 v=0
444675 On ch=1 n=c5 v=48
444675 Par ch=1 c=64 v=56
444685 On ch=1 n=g#7 v=69
444690 Par ch=1 c=64 v=88
444700 Par ch=1 c=64 v=127
444715 Par ch=1 c=64 v=127
444725 On ch=1 n=c5 v=0
444725 On ch=1 n=f#5 v=0
444735 On ch=1 n=d#7 v=0
444750 On ch=1 n=a#7 v=75
444760 On ch=1 n=g#7 v=0
444815 On ch=1 n=g#4 v=47
444820 On ch=1 n=e7 v=76
444830 On ch=1 n=a#7 v=0
444835 On ch=1 n=g#7 v=68
444885 On ch=1 n=e7 v=0
444910 On ch=1 n=a#7 v=72
444910 Par ch=1 c=64 v=88
444915 On ch=1 n=g#7 v=0
444920 Par ch=1 c=64 v=56
444935 Par ch=1 c=64 v=0
444940 On ch=1 n=g#4 v=0
444975 On ch=1 n=f7 v=82
444980 On ch=1 n=c#4 v=53
444990 On ch=1 n=a#7 v=0
444995 Par ch=1 c=64 v=40
445005 Par ch=1 c=64 v=72
445010 On ch=1 n=g#7 v=38
445020 Par ch=1 c=64 v=127
445045 On ch=1 n=f7 v=0
445050 On ch=1 n=c#4 v=0
445065 On ch=1 n=a#7 v=71
445080 On ch=1 n=g#7 v=0
445130 On ch=1 n=g#4 v=51
445140 On ch=1 n=f#7 v=76
445155 On ch=1 n=a#7 v=0
445165 On ch=1 n=g#7 v=58
445205 On ch=1 n=f#7 v=0
445235 On ch=1 n=a#7 v=73
445240 On ch=1 n=g#7 v=0
445240 Par ch=1 c=64 v=104
445250 On ch=1 n=g#4 v=0
445255 Par ch=1 c=64 v=56
445265 Par ch=1 c=64 v=0
445300 On ch=1 n=g7 v=75
445305 On ch=1 n=c#5 v=51
445310 On ch=1 n=a#7 v=0
445310 On ch=1 n=f5 v=54
445315 On ch=1 n=g#7 v=85
445315 Par ch=1 c=64 v=24
445330 Par ch=1 c=64 v=56
445340 Par ch=1 c=64 v=88
445355 On ch=1 n=g7 v=0
445355 Par ch=1 c=64 v=104
445360 On ch=1 n=f5 v=0
445365 Par ch=1 c=64 v=127
445380 On ch=1 n=g#7 v=0
445390 On ch=1 n=c#5 v=0
445390 On ch=1 n=a#7 v=77
445450 On ch=1 n=g#4 v=47
445455 On ch=1 n=g#7 v=87
445460 On ch=1 n=a#7 v=0
445530 On ch=1 n=g#7 v=0
445530 On ch=1 n=a#7 v=73
445575 Par ch=1 c=64 v=88
445585 Par ch=1 c=64 v=56
445600 Par ch=1 c=64 v=0
445605 On ch=1 n=g#4 v=0
445610 On ch=1 n=a#7 v=0
445620 On ch=1 n=g#7 v=84
445620 On ch=1 n=f#7 v=81
445635 On ch=1 n=c#4 v=55
445670 Par ch=1 c=64 v=24
445685 Par ch=1 c=64 v=56
445695 On ch=1 n=c#4 v=0
445695 On ch=1 n=f#7 v=0
445695 On ch=1 n=g#7 v=0
445695 On ch=1 n=a#7 v=71
445695 Par ch=1 c=64 v=104
445710 Par ch=1 c=64 v=127
445770 On ch=1 n=a#7 v=0
445770 On ch=1 n=f7 v=79
445775 On ch=1 n=g#4 v=47
445775 On ch=1 n=g#7 v=69
445830 Par ch=1 c=64 v=104
445840 On ch=1 n=f7 v=0
445845 Par ch=1 c=64 v=72
445850 On ch=1 n=g#7 v=0
445850 On ch=1 n=a#7 v=74
445855 Par ch=1 c=64 v=24
445870 Par ch=1 c=64 v=0
445895 On ch=1 n=g#4 v=0
445905 Par ch=1 c=64 v=40
445915 Par ch=1 c=64 v=88
445930 On ch=1 n=a#7 v=0
445930 On ch=1 n=d#7 v=83
445930 On ch=1 n=g#7 v=74
445930 Par ch=1 c=64 v=127
445935 On ch=1 n=f#5 v=52
445950 On ch=1 n=c5 v=48
445990 On ch=1 n=d#7 v=0
446005 On ch=1 n=f#5 v=0
446005 On ch=1 n=a#7 v=78
446010 On ch=1 n=g#7 v=0
446020 On ch=1 n=c5 v=0
446080 On ch=1 n=a#7 v=0
446085 On ch=1 n=f#7 v=63
446085 On ch=1 n=g#7 v=75
446085 On ch=1 n=g#4 v=47
446150 Par ch=1 c=64 v=72
446155 On ch=1 n=f#7 v=0
446160 On ch=1 n=g#7 v=0
446160 On ch=1 n=a#7 v=76
446165 Par ch=1 c=64 v=24
446175 Par ch=1 c=64 v=0
446185 On ch=1 n=c#4 v=48
446210 On ch=1 n=c#4 v=0
446230 On ch=1 n=a#7 v=0
446235 Par ch=1 c=64 v=24
446245 Par ch=1 c=64 v=88
446250 On ch=1 n=g#7 v=85
446260 Par ch=1 c=64 v=127
446275 On ch=1 n=f5 v=64
446300 On ch=1 n=g#4 v=0
446325 On ch=1 n=a#7 v=60
446335 On ch=1 n=g#7 v=0
446350 On ch=1 n=f5 v=0
446385 On ch=1 n=a#7 v=0
446405 On ch=1 n=g#7 v=60
446465 On ch=1 n=g#7 v=0
446490 On ch=1 n=a#7 v=60
446550 On ch=1 n=a#7 v=0
446555 Par ch=1 c=64 v=88
446565 Par ch=1 c=64 v=56
446580 Par ch=1 c=64 v=24
446590 Par ch=1 c=64 v=0
446655 On ch=1 n=g#6 v=64
446670 On ch=1 n=f6 v=64
446675 On ch=1 n=g#7 v=64
446740 On ch=1 n=g#7 v=0
446745 On ch=1 n=a#7 v=48
446815 On ch=1 n=a#7 v=0
446820 On ch=1 n=g#7 v=59
446885 On ch=1 n=g#7 v=0
446900 On ch=1 n=a#7 v=46
446940 On ch=1 n=f6 v=0
446960 On ch=1 n=a#7 v=0
446975 On ch=1 n=g#7 v=55
446980 On ch=1 n=g#6 v=0
447045 On ch=1 n=g#7 v=0
447055 On ch=1 n=a#7 v=51
447115 On ch=1 n=a#7 v=0
447125 On ch=1 n=g#7 v=62
447185 On ch=1 n=g#7 v=0
447190 On ch=1 n=a#7 v=51
447260 On ch=1 n=a#7 v=0
447270 On ch=1 n=g#7 v=55
447320 On ch=1 n=c#7 v=67
447320 On ch=1 n=a#6 v=61
447330 On ch=1 n=g#7 v=0
447330 On ch=1 n=a#7 v=45
447390 On ch=1 n=c#7 v=0
447405 On ch=1 n=a#7 v=0
447410 On ch=1 n=a#6 v=0
447415 On ch=1 n=g#7 v=62
447485 On ch=1 n=g#7 v=0
447495 On ch=1 n=a#7 v=53
447525 On ch=1 n=c7 v=72
447530 On ch=1 n=g#6 v=59
447560 On ch=1 n=a#7 v=0
447565 On ch=1 n=g#7 v=58
447610 On ch=1 n=g#6 v=0
447620 On ch=1 n=c7 v=0
447630 On ch=1 n=g#7 v=0
447640 On ch=1 n=a#7 v=47
447705 On ch=1 n=a#7 v=0
447715 On ch=1 n=g#7 v=63
447720 On ch=1 n=a#6 v=71
447730 On ch=1 n=f#6 v=47
447810 On ch=1 n=a#6 v=0
447810 On ch=1 n=g#7 v=0
447815 On ch=1 n=f#6 v=0
447920 On ch=1 n=g#6 v=68
447925 On ch=1 n=g#7 v=64
447930 On ch=1 n=f6 v=75
448010 On ch=1 n=g#7 v=0
448015 On ch=1 n=a#7 v=51
448085 On ch=1 n=a#7 v=0
448085 On ch=1 n=g#7 v=55
448110 On ch=1 n=f6 v=0
448125 On ch=1 n=g#6 v=0
448145 On ch=1 n=g#7 v=0
448155 On ch=1 n=a#7 v=45
448215 On ch=1 n=a#7 v=0
448225 On ch=1 n=g#7 v=56
448280 On ch=1 n=g#7 v=0
448285 On ch=1 n=a#7 v=51
448350 On ch=1 n=a#7 v=0
448365 On ch=1 n=g#7 v=65
448420 On ch=1 n=g#7 v=0
448425 On ch=1 n=a#7 v=49
448495 On ch=1 n=a#7 v=0
448510 On ch=1 n=g#7 v=55
448545 On ch=1 n=a#6 v=64
448550 On ch=1 n=f#6 v=60
448560 On ch=1 n=g#7 v=0
448560 On ch=1 n=a#7 v=51
448611 On ch=1 n=c7 v=65
448615 On ch=1 n=f#6 v=0
448615 On ch=1 n=a#6 v=0
448625 On ch=1 n=a#7 v=0
448645 On ch=1 n=g#7 v=62
448667 On ch=1 n=c7 v=0
448677 On ch=1 n=a#6 v=63
448700 On ch=1 n=g#7 v=0
448705 On ch=1 n=a#7 v=48
448733 On ch=1 n=a#6 v=0
448745 On ch=1 n=g#6 v=64
448745 On ch=1 n=f6 v=74
448770 On ch=1 n=f6 v=0
448775 On ch=1 n=a#7 v=0
448775 On ch=1 n=g#7 v=61
448805 On ch=1 n=g#6 v=0
448840 On ch=1 n=g#7 v=0
448850 On ch=1 n=a#7 v=46
448925 On ch=1 n=a#7 v=0
448930 On ch=1 n=g#7 v=62
448935 On ch=1 n=f#6 v=69
448940 On ch=1 n=d#6 v=69
448995 On ch=1 n=g#7 v=0
449000 On ch=1 n=a#7 v=48
449005 On ch=1 n=d#6 v=0
449010 On ch=1 n=f#6 v=0
449085 On ch=1 n=a#7 v=0
449100 On ch=1 n=g#7 v=54
449130 On ch=1 n=f6 v=73
449130 On ch=1 n=c#6 v=59
449180 On ch=1 n=g#7 v=0
449185 On ch=1 n=a#7 v=48
449195 On ch=1 n=c#6 v=0
449200 On ch=1 n=f6 v=0
449280 On ch=1 n=a#7 v=0
449300 On ch=1 n=g#7 v=60
449320 On ch=1 n=d#6 v=65
449320 On ch=1 n=g#5 v=55
449350 On ch=1 n=d#6 v=0
449365 On ch=1 n=g#5 v=0
449380 On ch=1 n=g#7 v=0
449390 On ch=1 n=a#7 v=50
449475 On ch=1 n=a#7 v=0
449490 On ch=1 n=g#7 v=64
449515 On ch=1 n=c#6 v=73
449525 On ch=1 n=f5 v=65
449545 Par ch=1 c=64 v=56
449560 Par ch=1 c=64 v=0
449570 On ch=1 n=g#7 v=0
449575 On ch=1 n=a#7 v=43
449620 Par ch=1 c=64 v=56
449635 Par ch=1 c=64 v=127
449650 On ch=1 n=a#7 v=0
449655 On ch=1 n=g#7 v=62
449735 On ch=1 n=g#7 v=0
449740 On ch=1 n=f5 v=0
449740 On ch=1 n=a#7 v=55
449805 On ch=1 n=c#6 v=0
449825 On ch=1 n=a#7 v=0
449825 On ch=1 n=g#7 v=54
449900 On ch=1 n=g#7 v=0
449905 On ch=1 n=g#5 v=58
449910 On ch=1 n=a#7 v=60
449925 On ch=1 n=f5 v=51
449985 On ch=1 n=a#7 v=0
449985 On ch=1 n=g#7 v=63
450055 On ch=1 n=g#7 v=0
450065 On ch=1 n=a#7 v=64
450135 On ch=1 n=a#7 v=0
450135 On ch=1 n=g#7 v=71
450205 On ch=1 n=g#7 v=0
450225 On ch=1 n=a#7 v=58
450300 On ch=1 n=g#7 v=60
450330 On ch=1 n=a#7 v=0
450385 On ch=1 n=g#7 v=0
450400 On ch=1 n=f7 v=70
450415 On ch=1 n=f5 v=0
450445 On ch=1 n=g#5 v=0
450465 On ch=1 n=f7 v=0
450495 On ch=1 n=c#6 v=55
450495 On ch=1 n=f#7 v=64
450495 On ch=1 n=a#5 v=55
450500 Par ch=1 c=64 v=72
450515 Par ch=1 c=64 v=56
450550 Par ch=1 c=64 v=88
450565 Par ch=1 c=64 v=127
450575 On ch=1 n=a#5 v=0
450575 On ch=1 n=c#6 v=0
450580 On ch=1 n=f#7 v=0
450585 On ch=1 n=d#7 v=65
450625 Par ch=1 c=64 v=104
450640 Par ch=1 c=64 v=88
450655 Par ch=1 c=64 v=56
450670 On ch=1 n=d#7 v=0
450685 On ch=1 n=g#5 v=47
450690 On ch=1 n=f7 v=74
450690 On ch=1 n=c6 v=65
450705 Par ch=1 c=64 v=88
450720 Par ch=1 c=64 v=104
450730 Par ch=1 c=64 v=127
450775 On ch=1 n=f7 v=0
450775 On ch=1 n=c#7 v=62
450800 On ch=1 n=c6 v=0
450805 On ch=1 n=g#5 v=0
450830 Par ch=1 c=64 v=72
450845 Par ch=1 c=64 v=56
450860 Par ch=1 c=64 v=40
450865 On ch=1 n=a#5 v=63
450865 On ch=1 n=f#7 v=63
450870 On ch=1 n=f#5 v=56
450870 Par ch=1 c=64 v=56
450885 Par ch=1 c=64 v=72
450890 On ch=1 n=c#7 v=0
450895 Par ch=1 c=64 v=88
450910 Par ch=1 c=64 v=104
450920 Par ch=1 c=64 v=127
450925 On ch=1 n=a#5 v=0
450945 On ch=1 n=f#5 v=0
450960 On ch=1 n=f#7 v=0
450960 On ch=1 n=d#7 v=65
451025 On ch=1 n=d#7 v=0
451050 On ch=1 n=g#7 v=73
451050 Par ch=1 c=64 v=72
451060 Par ch=1 c=64 v=40
451070 On ch=1 n=g#5 v=48
451075 On ch=1 n=f5 v=61
451075 Par ch=1 c=64 v=0
451125 Par ch=1 c=64 v=24
451140 On ch=1 n=g#7 v=0
451140 Par ch=1 c=64 v=56
451145 On ch=1 n=f7 v=67
451150 Par ch=1 c=64 v=88
451165 Par ch=1 c=64 v=104
451175 On ch=1 n=f5 v=0
451175 Par ch=1 c=64 v=127
451200 On ch=1 n=g#5 v=0
451220 On ch=1 n=f7 v=0
451250 On ch=1 n=a#7 v=72
451330 On ch=1 n=a#7 v=0
451335 On ch=1 n=f#7 v=71
451415 On ch=1 n=f#7 v=0
451435 On ch=1 n=g#7 v=82
451445 Par ch=1 c=64 v=88
451450 On ch=1 n=g#5 v=56
451455 Par ch=1 c=64 v=24
451460 On ch=1 n=f5 v=59
451470 Par ch=1 c=64 v=0
451525 On ch=1 n=g#7 v=0
451535 Par ch=1 c=64 v=40
451540 On ch=1 n=f7 v=81
451545 Par ch=1 c=64 v=88
451560 Par ch=1 c=64 v=127
451610 On ch=1 n=f7 v=0
451625 On ch=1 n=g#7 v=79
451715 On ch=1 n=g#7 v=0
451725 On ch=1 n=f7 v=78
451795 On ch=1 n=f7 v=0
451810 On ch=1 n=g#7 v=69
451890 On ch=1 n=f7 v=73
451905 On ch=1 n=g#5 v=0
451910 On ch=1 n=g#7 v=0
451950 On ch=1 n=f5 v=0
451990 On ch=1 n=f7 v=0
451990 On ch=1 n=f#7 v=70
452010 On ch=1 n=f#5 v=50
452015 On ch=1 n=d#5 v=56
452075 On ch=1 n=f#7 v=0
452075 On ch=1 n=d#7 v=73
452105 On ch=1 n=d#5 v=0
452135 On ch=1 n=f#5 v=0
452155 On ch=1 n=d#7 v=0
452170 Par ch=1 c=64 v=88
452185 On ch=1 n=f5 v=72
452185 Par ch=1 c=64 v=40
452195 On ch=1 n=c#5 v=49
452200 On ch=1 n=f7 v=71
452200 Par ch=1 c=64 v=0
452235 Par ch=1 c=64 v=56
452250 On ch=1 n=f5 v=0
452250 Par ch=1 c=64 v=72
452260 On ch=1 n=c#7 v=61
452260 Par ch=1 c=64 v=104
452275 On ch=1 n=f7 v=0
452275 On ch=1 n=c#5 v=0
452275 Par ch=1 c=64 v=127
452355 On ch=1 n=d#5 v=71
452375 On ch=1 n=f#7 v=73
452375 On ch=1 n=g#4 v=46
452415 On ch=1 n=c#7 v=0
452420 On ch=1 n=g#4 v=0
452420 On ch=1 n=d#5 v=0
452470 On ch=1 n=f#7 v=0
452470 On ch=1 n=d#7 v=71
452530 On ch=1 n=d#7 v=0
452550 Par ch=1 c=64 v=56
452555 On ch=1 n=c#5 v=58
452560 On ch=1 n=g#7 v=81
452565 On ch=1 n=f4 v=51
452565 Par ch=1 c=64 v=0
452650 On ch=1 n=g#7 v=0
452655 On ch=1 n=f7 v=76
452655 Par ch=1 c=64 v=56
452670 Par ch=1 c=64 v=104
452680 Par ch=1 c=64 v=127
452760 On ch=1 n=f7 v=0
452760 On ch=1 n=e7 v=71
452850 On ch=1 n=e7 v=0
452860 On ch=1 n=g7 v=64
452910 Par ch=1 c=64 v=88
452925 Par ch=1 c=64 v=56
452940 On ch=1 n=f7 v=70
452955 On ch=1 n=g7 v=0
452975 Par ch=1 c=64 v=104
452985 Par ch=1 c=64 v=127
453020 On ch=1 n=f7 v=0
453025 On ch=1 n=g#7 v=72
453040 On ch=1 n=f4 v=0
453090 On ch=1 n=g#7 v=0
453100 On ch=1 n=c#5 v=0
453115 On ch=1 n=f7 v=68
453185 On ch=1 n=f7 v=0
453220 On ch=1 n=a7 v=76
453280 On ch=1 n=a7 v=0
453305 Par ch=1 c=64 v=56
453310 On ch=1 n=f#7 v=74
453315 On ch=1 n=d#5 v=67
453320 On ch=1 n=g#4 v=57
453320 Par ch=1 c=64 v=0
453395 On ch=1 n=f#7 v=0
453395 Par ch=1 c=64 v=40
453400 On ch=1 n=a#7 v=65
453410 Par ch=1 c=64 v=88
453420 Par ch=1 c=64 v=127
453485 On ch=1 n=a#7 v=0
453490 On ch=1 n=f7 v=70
453570 On ch=1 n=f7 v=0
453580 On ch=1 n=a7 v=53
453635 On ch=1 n=a7 v=0
453655 On ch=1 n=f#7 v=60
453735 On ch=1 n=f#7 v=0
453735 On ch=1 n=a#7 v=60
453765 Par ch=1 c=64 v=88
453775 Par ch=1 c=64 v=56
453790 Par ch=1 c=64 v=24
453805 Par ch=1 c=64 v=0
453835 On ch=1 n=d#7 v=71
453840 Par ch=1 c=64 v=40
453845 On ch=1 n=g#4 v=0
453850 On ch=1 n=f#5 v=53
453855 On ch=1 n=a#7 v=0
453855 Par ch=1 c=64 v=56
453865 Par ch=1 c=64 v=72
453870 On ch=1 n=d#5 v=0
453880 Par ch=1 c=64 v=88
453925 On ch=1 n=d#7 v=0
453940 On ch=1 n=c8 v=74
453945 On ch=1 n=f#5 v=0
453955 Par ch=1 c=64 v=72
453970 Par ch=1 c=64 v=56
454000 On ch=1 n=c8 v=0
454025 On ch=1 n=c#7 v=67
454035 Par ch=1 c=64 v=88
454040 On ch=1 n=f5 v=64
454055 Par ch=1 c=64 v=104
454065 On ch=1 n=c#5 v=35
454110 Par ch=1 c=64 v=127
454120 On ch=1 n=c#8 v=71
454125 On ch=1 n=c#5 v=0
454130 On ch=1 n=f5 v=0
454130 On ch=1 n=c#7 v=0
454200 On ch=1 n=c#8 v=0
454200 Par ch=1 c=64 v=104
454210 Par ch=1 c=64 v=72
454215 On ch=1 n=f7 v=80
454225 Par ch=1 c=64 v=40
454230 On ch=1 n=g#5 v=54
454240 Par ch=1 c=64 v=24
454275 Par ch=1 c=64 v=56
454290 Par ch=1 c=64 v=72
454300 On ch=1 n=f7 v=0
454300 Par ch=1 c=64 v=88
454315 On ch=1 n=g#7 v=74
454315 Par ch=1 c=64 v=104
454360 On ch=1 n=g#5 v=0
454405 On ch=1 n=g#7 v=0
454415 On ch=1 n=e7 v=68
454430 On ch=1 n=c#5 v=69
454430 Par ch=1 c=64 v=40
454440 Par ch=1 c=64 v=0
454490 Par ch=1 c=64 v=40
454505 Par ch=1 c=64 v=56
454510 On ch=1 n=g7 v=52
454520 On ch=1 n=c#5 v=0
454520 Par ch=1 c=64 v=88
454530 On ch=1 n=e7 v=0
454530 Par ch=1 c=64 v=104
454555 Par ch=1 c=64 v=127
454610 On ch=1 n=g7 v=0
454610 On ch=1 n=f7 v=59
454675 On ch=1 n=f7 v=0
454690 On ch=1 n=g#7 v=65
454760 On ch=1 n=g#7 v=0
454785 Par ch=1 c=64 v=88
454790 On ch=1 n=d#7 v=77
454790 On ch=1 n=d#5 v=65
454795 On ch=1 n=g#4 v=58
454800 Par ch=1 c=64 v=40
454810 Par ch=1 c=64 v=0
454875 Par ch=1 c=64 v=40
454880 On ch=1 n=d#7 v=0
454890 Par ch=1 c=64 v=88
454895 On ch=1 n=f#7 v=69
454900 Par ch=1 c=64 v=127
454985 On ch=1 n=f#7 v=0
454985 On ch=1 n=c#7 v=70
455065 Par ch=1 c=64 v=88
455075 Par ch=1 c=64 v=40
455080 On ch=1 n=f7 v=66
455085 On ch=1 n=c#7 v=0
455090 Par ch=1 c=64 v=0
455145 Par ch=1 c=64 v=56
455155 Par ch=1 c=64 v=72
455160 On ch=1 n=c7 v=61
455170 Par ch=1 c=64 v=88
455180 On ch=1 n=f7 v=0
455180 Par ch=1 c=64 v=104
455235 On ch=1 n=c7 v=0
455245 On ch=1 n=d#7 v=59
455255 Par ch=1 c=64 v=56
455265 Par ch=1 c=64 v=40
455280 Par ch=1 c=64 v=24
455310 On ch=1 n=d#7 v=0
455320 Par ch=1 c=64 v=56
455330 On ch=1 n=g#4 v=0
455330 On ch=1 n=g#6 v=67
455335 Par ch=1 c=64 v=72
455340 On ch=1 n=f#5 v=48
455345 Par ch=1 c=64 v=88
455350 On ch=1 n=d#5 v=0
455360 Par ch=1 c=64 v=104
455385 Par ch=1 c=64 v=127
455415 On ch=1 n=g#6 v=0
455420 On ch=1 n=g#7 v=71
455435 On ch=1 n=f#5 v=0
455450 Par ch=1 c=64 v=88
455460 Par ch=1 c=64 v=72
455475 Par ch=1 c=64 v=24
455485 Par ch=1 c=64 v=0
455510 On ch=1 n=c#7 v=71
455520 On ch=1 n=g#7 v=0
455535 On ch=1 n=f5 v=64
455540 Par ch=1 c=64 v=24
455545 On ch=1 n=c#5 v=44
455550 Par ch=1 c=64 v=56
455560 Par ch=1 c=64 v=72
455575 Par ch=1 c=64 v=88
455615 On ch=1 n=c#5 v=0
455615 On ch=1 n=f5 v=0
455615 On ch=1 n=f7 v=66
455620 On ch=1 n=c#7 v=0
455650 Par ch=1 c=64 v=56
455665 Par ch=1 c=64 v=24
455675 Par ch=1 c=64 v=0
455705 On ch=1 n=g#6 v=65
455710 On ch=1 n=g#5 v=62
455715 On ch=1 n=f7 v=0
455715 Par ch=1 c=64 v=24
455725 Par ch=1 c=64 v=40
455740 Par ch=1 c=64 v=72
455755 Par ch=1 c=64 v=88
455770 Par ch=1 c=64 v=104
455780 Par ch=1 c=64 v=127
455800 On ch=1 n=g#5 v=0
455810 On ch=1 n=g#6 v=0
455810 On ch=1 n=d#7 v=56
455885 On ch=1 n=d#7 v=0
455895 On ch=1 n=f6 v=60
455895 Par ch=1 c=64 v=104
455905 Par ch=1 c=64 v=56
455915 On ch=1 n=c#5 v=61
455920 On ch=1 n=g6 v=30
455920 Par ch=1 c=64 v=24
455945 On ch=1 n=g6 v=0
455955 Par ch=1 c=64 v=72
455965 On ch=1 n=f6 v=0
455970 Par ch=1 c=64 v=127
455990 On ch=1 n=c#5 v=0
456000 On ch=1 n=c#7 v=62
456075 On ch=1 n=f7 v=64
456095 On ch=1 n=c#7 v=0
456160 On ch=1 n=g#7 v=67
456165 On ch=1 n=f7 v=0
456220 On ch=1 n=g#7 v=0
456270 On ch=1 n=f#7 v=83
456275 On ch=1 n=d#5 v=69
456280 On ch=1 n=g#4 v=60
456290 Par ch=1 c=64 v=72
456300 Par ch=1 c=64 v=0
456355 On ch=1 n=f#7 v=0
456365 Par ch=1 c=64 v=56
456375 On ch=1 n=a#7 v=73
456380 Par ch=1 c=64 v=104
456390 Par ch=1 c=64 v=127
456455 On ch=1 n=a#7 v=0
456465 On ch=1 n=f7 v=76
456550 On ch=1 n=a7 v=63
456590 On ch=1 n=f7 v=0
456620 On ch=1 n=a7 v=0
456630 On ch=1 n=f#7 v=73
456650 Par ch=1 c=64 v=88
456660 Par ch=1 c=64 v=24
456675 Par ch=1 c=64 v=0
456720 On ch=1 n=a#7 v=65
456725 On ch=1 n=f#7 v=0
456735 Par ch=1 c=64 v=56
456750 Par ch=1 c=64 v=88
456760 Par ch=1 c=64 v=104
456775 Par ch=1 c=64 v=127
456800 On ch=1 n=g#4 v=0
456805 On ch=1 n=d#7 v=75
456815 On ch=1 n=d#5 v=0
456820 On ch=1 n=f#5 v=62
456835 On ch=1 n=a#7 v=0
456905 On ch=1 n=d#7 v=0
456910 On ch=1 n=c8 v=82
456920 On ch=1 n=f#5 v=0
456925 Par ch=1 c=64 v=56
456940 Par ch=1 c=64 v=0
456975 On ch=1 n=c8 v=0
456995 On ch=1 n=c#7 v=77
457005 On ch=1 n=f5 v=64
457010 On ch=1 n=c#5 v=49
457015 Par ch=1 c=64 v=24
457030 Par ch=1 c=64 v=56
457040 Par ch=1 c=64 v=72
457050 Par ch=1 c=64 v=88
457065 Par ch=1 c=64 v=104
457080 On ch=1 n=c#7 v=0
457080 Par ch=1 c=64 v=127
457090 On ch=1 n=c#8 v=76
457095 On ch=1 n=f5 v=0
457100 On ch=1 n=c#5 v=0
457170 On ch=1 n=c#8 v=0
457170 Par ch=1 c=64 v=104
457180 On ch=1 n=f7 v=71
457190 On ch=1 n=g#5 v=58
457205 Par ch=1 c=64 v=127
457265 On ch=1 n=f7 v=0
457270 On ch=1 n=g#7 v=73
457300 On ch=1 n=g#5 v=0
457360 On ch=1 n=g#7 v=0
457365 On ch=1 n=e7 v=69
457375 On ch=1 n=c#5 v=65
457375 Par ch=1 c=64 v=72
457385 Par ch=1 c=64 v=24
457400 Par ch=1 c=64 v=0
457435 Par ch=1 c=64 v=40
457450 Par ch=1 c=64 v=72
457460 Par ch=1 c=64 v=104
457465 On ch=1 n=g7 v=64
457470 On ch=1 n=c#5 v=0
457475 Par ch=1 c=64 v=127
457480 On ch=1 n=e7 v=0
457565 On ch=1 n=g7 v=0
457565 On ch=1 n=f7 v=64
457630 On ch=1 n=f7 v=0
457645 On ch=1 n=g#7 v=65
457705 Par ch=1 c=64 v=88
457710 On ch=1 n=g#7 v=0
457715 Par ch=1 c=64 v=56
457730 Par ch=1 c=64 v=0
457745 On ch=1 n=c4 v=79
457750 On ch=1 n=d#7 v=71
457825 On ch=1 n=d#7 v=0
457835 On ch=1 n=c4 v=0
457835 On ch=1 n=c#4 v=69
457850 On ch=1 n=f#7 v=68
457915 On ch=1 n=f#7 v=0
457915 On ch=1 n=c#4 v=0
457940 On ch=1 n=d#4 v=69
457940 On ch=1 n=c#7 v=70
457945 Par ch=1 c=64 v=24
458000 Par ch=1 c=64 v=56
458020 On ch=1 n=d#4 v=0
458030 On ch=1 n=c#7 v=0
458040 On ch=1 n=f4 v=66
458040 On ch=1 n=f7 v=66
458085 Par ch=1 c=64 v=40
458100 Par ch=1 c=64 v=24
458115 On ch=1 n=c7 v=65
458130 On ch=1 n=f7 v=0
458140 On ch=1 n=f#4 v=60
458145 On ch=1 n=f4 v=0
458205 On ch=1 n=c7 v=0
458230 On ch=1 n=g#4 v=67
458230 On ch=1 n=d#7 v=54
458240 On ch=1 n=f#4 v=0
458250 Par ch=1 c=64 v=40
458300 On ch=1 n=d#7 v=0
458305 On ch=1 n=g#4 v=0
458315 On ch=1 n=g#6 v=71
458315 Par ch=1 c=64 v=56
458325 On ch=1 n=a#4 v=60
458390 Par ch=1 c=64 v=72
458395 On ch=1 n=a#4 v=0
458395 On ch=1 n=g#6 v=0
458410 On ch=1 n=g#7 v=77
458415 On ch=1 n=c5 v=66
458470 Par ch=1 c=64 v=56
458485 Par ch=1 c=64 v=40
458490 On ch=1 n=g#7 v=0
458500 On ch=1 n=c#7 v=76
458500 On ch=1 n=c#5 v=68
458510 On ch=1 n=c5 v=0
458575 On ch=1 n=c#5 v=0
458585 On ch=1 n=c#7 v=0
458590 On ch=1 n=f7 v=73
458595 On ch=1 n=d#5 v=67
458635 Par ch=1 c=64 v=56
458670 On ch=1 n=d#5 v=0
458680 On ch=1 n=f7 v=0
458680 On ch=1 n=g#6 v=71
458685 On ch=1 n=f5 v=66
458765 On ch=1 n=g#6 v=0
458775 On ch=1 n=d#7 v=65
458775 On ch=1 n=f#5 v=63
458795 On ch=1 n=f5 v=0
458840 On ch=1 n=d#7 v=0
458850 On ch=1 n=f#5 v=0
458850 Par ch=1 c=64 v=40
458865 On ch=1 n=f6 v=82
458865 On ch=1 n=g#5 v=73
458865 Par ch=1 c=64 v=0
458925 On ch=1 n=f6 v=0
458930 Par ch=1 c=64 v=40
458940 Par ch=1 c=64 v=88
458950 On ch=1 n=g#5 v=0
458955 Par ch=1 c=64 v=127
458975 On ch=1 n=c#7 v=64
459045 On ch=1 n=f7 v=68
459060 On ch=1 n=c#7 v=0
459150 On ch=1 n=g#7 v=63
459175 On ch=1 n=f7 v=0
459205 On ch=1 n=g#7 v=0
459220 Par ch=1 c=64 v=88
459235 On ch=1 n=c5 v=78
459235 Par ch=1 c=64 v=56
459240 On ch=1 n=d#7 v=77
459245 Par ch=1 c=64 v=0
459295 Par ch=1 c=64 v=40
459305 On ch=1 n=c5 v=0
459310 Par ch=1 c=64 v=56
459320 On ch=1 n=d#7 v=0
459325 Par ch=1 c=64 v=88
459330 On ch=1 n=c#5 v=64
459335 On ch=1 n=f#7 v=68
459350 Par ch=1 c=64 v=104
459405 On ch=1 n=f#7 v=0
459405 On ch=1 n=c#5 v=0
459430 On ch=1 n=c#7 v=71
459430 On ch=1 n=d#5 v=62
459490 Par ch=1 c=64 v=72
459500 Par ch=1 c=64 v=40
459505 On ch=1 n=d#5 v=0
459510 On ch=1 n=c#7 v=0
459515 On ch=1 n=f7 v=73
459515 Par ch=1 c=64 v=0
459530 On ch=1 n=f5 v=70
459590 Par ch=1 c=64 v=40
459610 On ch=1 n=c7 v=62
459615 On ch=1 n=f7 v=0
459615 Par ch=1 c=64 v=56
459625 On ch=1 n=f#5 v=61
459630 On ch=1 n=f5 v=0
459630 Par ch=1 c=64 v=72
459685 On ch=1 n=d#7 v=68
459690 On ch=1 n=c7 v=0
459695 Par ch=1 c=64 v=56
459710 On ch=1 n=f#5 v=0
459715 On ch=1 n=g#5 v=60
459765 On ch=1 n=d#7 v=0
459770 Par ch=1 c=64 v=72
459785 On ch=1 n=g#6 v=77
459795 On ch=1 n=g#5 v=0
459810 On ch=1 n=a#5 v=62
459810 Par ch=1 c=64 v=88
459845 Par ch=1 c=64 v=104
459860 On ch=1 n=g#6 v=0
459880 On ch=1 n=a#5 v=0
459885 On ch=1 n=g#7 v=75
459885 Par ch=1 c=64 v=127
459895 On ch=1 n=c6 v=69
459970 On ch=1 n=c#7 v=74
459975 On ch=1 n=g#7 v=0
459975 Par ch=1 c=64 v=104
459990 Par ch=1 c=64 v=72
459995 On ch=1 n=c#6 v=71
460000 On ch=1 n=c6 v=0
460000 Par ch=1 c=64 v=24
460015 Par ch=1 c=64 v=0
460050 Par ch=1 c=64 v=56
460065 On ch=1 n=c#7 v=0
460065 On ch=1 n=f7 v=72
460065 Par ch=1 c=64 v=72
460075 Par ch=1 c=64 v=104
460080 On ch=1 n=c#6 v=0
460085 On ch=1 n=d#6 v=71
460090 Par ch=1 c=64 v=127
460145 On ch=1 n=f7 v=0
460150 On ch=1 n=c7 v=73
460160 On ch=1 n=d#6 v=0
460180 On ch=1 n=f6 v=68
460235 On ch=1 n=c7 v=0
460245 On ch=1 n=d#7 v=69
460265 On ch=1 n=f#6 v=67
460280 On ch=1 n=f6 v=0
460330 Par ch=1 c=64 v=72
460335 On ch=1 n=f#6 v=0
460345 Par ch=1 c=64 v=40
460350 On ch=1 n=c#7 v=75
460350 On ch=1 n=g#6 v=80
460355 Par ch=1 c=64 v=0
460380 On ch=1 n=d#7 v=0
460395 Par ch=1 c=64 v=40
460405 Par ch=1 c=64 v=88
460420 Par ch=1 c=64 v=127
460430 On ch=1 n=g#6 v=0
460445 On ch=1 n=c#7 v=0
460445 On ch=1 n=f7 v=74
460510 On ch=1 n=f7 v=0
460535 On ch=1 n=g#6 v=82
460590 On ch=1 n=g#6 v=0
460635 On ch=1 n=g#7 v=78
460685 On ch=1 n=g#7 v=0
460715 Par ch=1 c=64 v=104
460725 On ch=1 n=g#7 v=78
460725 Par ch=1 c=64 v=56
460730 On ch=1 n=f4 v=78
460740 Par ch=1 c=64 v=0
460790 Par ch=1 c=64 v=40
460800 Par ch=1 c=64 v=88
460810 On ch=1 n=f4 v=0
460810 On ch=1 n=g#7 v=0
460815 Par ch=1 c=64 v=127
460820 On ch=1 n=f#4 v=63
460825 On ch=1 n=b7 v=82
460895 On ch=1 n=b7 v=0
460920 On ch=1 n=f#7 v=74
460920 On ch=1 n=g#4 v=65
460925 On ch=1 n=f#4 v=0
460995 On ch=1 n=f#7 v=0
460995 Par ch=1 c=64 v=88
461000 On ch=1 n=a#7 v=70
461005 Par ch=1 c=64 v=56
461020 On ch=1 n=a#4 v=55
461020 Par ch=1 c=64 v=24
461035 On ch=1 n=g#4 v=0
461070 Par ch=1 c=64 v=0
461085 On ch=1 n=a#4 v=0
461085 On ch=1 n=a#7 v=0
461095 On ch=1 n=f7 v=69
461105 On ch=1 n=b4 v=64
461110 Par ch=1 c=64 v=56
461125 Par ch=1 c=64 v=72
461135 Par ch=1 c=64 v=104
461150 Par ch=1 c=64 v=127
461185 On ch=1 n=b4 v=0
461185 On ch=1 n=f7 v=0
461185 On ch=1 n=g#7 v=73
461190 On ch=1 n=c#5 v=67
461255 On ch=1 n=g#7 v=0
461270 On ch=1 n=c#5 v=0
461280 On ch=1 n=c#7 v=73
461285 On ch=1 n=d#5 v=68
461340 On ch=1 n=c#7 v=0
461355 On ch=1 n=d#5 v=0
461370 On ch=1 n=c#8 v=75
461370 On ch=1 n=f5 v=64
461390 Par ch=1 c=64 v=72
461405 Par ch=1 c=64 v=24
461415 Par ch=1 c=64 v=0
461440 On ch=1 n=c#8 v=0
461455 On ch=1 n=f#5 v=74
461460 On ch=1 n=f#7 v=71
461465 Par ch=1 c=64 v=40
461475 On ch=1 n=f5 v=0
461480 Par ch=1 c=64 v=72
461490 Par ch=1 c=64 v=88
461505 Par ch=1 c=64 v=104
461515 Par ch=1 c=64 v=127
461540 On ch=1 n=f#7 v=0
461540 On ch=1 n=f#5 v=0
461545 On ch=1 n=g#5 v=74
461555 On ch=1 n=a#7 v=68
461620 On ch=1 n=g#5 v=0
461635 On ch=1 n=a#7 v=0
461640 On ch=1 n=a#5 v=77
461645 On ch=1 n=f7 v=72
461725 On ch=1 n=a#5 v=0
461735 On ch=1 n=f7 v=0
461735 On ch=1 n=g#7 v=65
461740 On ch=1 n=b5 v=71
461800 Par ch=1 c=64 v=88
461810 Par ch=1 c=64 v=56
461815 On ch=1 n=g#7 v=0
461825 Par ch=1 c=64 v=0
461840 On ch=1 n=c#6 v=85
461850 On ch=1 n=f#7 v=71
461860 On ch=1 n=b5 v=0
461900 On ch=1 n=c#6 v=0
461900 Par ch=1 c=64 v=56
461910 Par ch=1 c=64 v=104
461925 Par ch=1 c=64 v=127
461930 On ch=1 n=f#7 v=0
461935 On ch=1 n=a#7 v=64
462040 On ch=1 n=a#7 v=0
462040 On ch=1 n=c#7 v=65
462115 On ch=1 n=c#7 v=0
462135 On ch=1 n=c#8 v=77
462200 On ch=1 n=c#8 v=0
462230 On ch=1 n=f5 v=72
462235 On ch=1 n=g#7 v=76
462235 Par ch=1 c=64 v=104
462245 Par ch=1 c=64 v=56
462255 Par ch=1 c=64 v=0
462295 Par ch=1 c=64 v=24
462310 On ch=1 n=g#7 v=0
462310 Par ch=1 c=64 v=56
462315 On ch=1 n=f5 v=0
462320 On ch=1 n=f#5 v=67
462320 Par ch=1 c=64 v=104
462325 On ch=1 n=b7 v=84
462335 Par ch=1 c=64 v=127
462395 On ch=1 n=b7 v=0
462420 On ch=1 n=g#5 v=68
462425 On ch=1 n=f#5 v=0
462425 On ch=1 n=f#7 v=76
462500 On ch=1 n=f#7 v=0
462500 On ch=1 n=g#5 v=0
462505 On ch=1 n=a#5 v=76
462515 On ch=1 n=a#7 v=73
462535 Par ch=1 c=64 v=88
462550 Par ch=1 c=64 v=40
462560 Par ch=1 c=64 v=24
462575 Par ch=1 c=64 v=40
462585 On ch=1 n=a#5 v=0
462590 On ch=1 n=a#7 v=0
462590 Par ch=1 c=64 v=88
462600 On ch=1 n=b5 v=77
462600 On ch=1 n=f7 v=73
462600 Par ch=1 c=64 v=127
462675 On ch=1 n=f7 v=0
462675 On ch=1 n=b5 v=0
462690 On ch=1 n=c#6 v=74
462695 On ch=1 n=g#7 v=77
462750 On ch=1 n=c#6 v=0
462770 On ch=1 n=g#7 v=0
462775 On ch=1 n=d#6 v=77
462780 Par ch=1 c=64 v=104
462785 On ch=1 n=c#7 v=74
462790 Par ch=1 c=64 v=72
462805 Par ch=1 c=64 v=56
462815 Par ch=1 c=64 v=72
462830 Par ch=1 c=64 v=88
462840 Par ch=1 c=64 v=127
462845 On ch=1 n=c#7 v=0
462845 On ch=1 n=d#6 v=0
462870 On ch=1 n=f6 v=81
462870 On ch=1 n=c#8 v=78
462920 Par ch=1 c=64 v=56
462935 On ch=1 n=c#8 v=0
462935 Par ch=1 c=64 v=0
462960 On ch=1 n=f#7 v=71
462965 On ch=1 n=f#6 v=78
462970 Par ch=1 c=64 v=24
462985 Par ch=1 c=64 v=56
462995 On ch=1 n=f6 v=0
462995 Par ch=1 c=64 v=88
463010 Par ch=1 c=64 v=127
463030 On ch=1 n=f#6 v=0
463030 On ch=1 n=f#7 v=0
463045 On ch=1 n=a#7 v=69
463050 On ch=1 n=g#6 v=84
463115 On ch=1 n=g#6 v=0
463125 On ch=1 n=a#7 v=0
463135 On ch=1 n=a#6 v=82
463140 On ch=1 n=f7 v=72
463215 On ch=1 n=f7 v=0
463220 On ch=1 n=a#6 v=0
463220 On ch=1 n=g#7 v=71
463225 On ch=1 n=b6 v=88
463300 On ch=1 n=g#7 v=0
463315 Par ch=1 c=64 v=72
463325 On ch=1 n=f#7 v=72
463330 On ch=1 n=c#7 v=92
463330 Par ch=1 c=64 v=24
463340 Par ch=1 c=64 v=0
463350 On ch=1 n=b6 v=0
463365 Par ch=1 c=64 v=56
463375 On ch=1 n=c#7 v=0
463380 Par ch=1 c=64 v=104
463390 Par ch=1 c=64 v=127
463405 On ch=1 n=f#7 v=0
463415 On ch=1 n=a#7 v=70
463510 On ch=1 n=a#7 v=0
463515 On ch=1 n=c#7 v=75
463595 On ch=1 n=c#7 v=0
463615 On ch=1 n=c#8 v=73
463660 On ch=1 n=c#8 v=0
463761 On ch=1 n=g#3 v=78
463766 On ch=1 n=f#3 v=75
463771 On ch=1 n=c4 v=84
463771 On ch=1 n=c3 v=71
463771 Par ch=1 c=64 v=40
463786 Par ch=1 c=64 v=127
463881 On ch=1 n=c3 v=0
463881 On ch=1 n=c#4 v=67
463951 On ch=1 n=d#4 v=76
463956 On ch=1 n=c#4 v=0
463956 On ch=1 n=c4 v=0
463971 On ch=1 n=g#3 v=0
463976 On ch=1 n=f#3 v=0
464026 On ch=1 n=d#4 v=0
464056 On ch=1 n=f4 v=85
464141 On ch=1 n=f4 v=0
464186 On ch=1 n=f#4 v=69
464191 On ch=1 n=d#4 v=91
464191 Par ch=1 c=64 v=88
464201 On ch=1 n=g#3 v=71
464201 On ch=1 n=d#3 v=61
464206 On ch=1 n=f#3 v=60
464206 Par ch=1 c=64 v=0
464251 Par ch=1 c=64 v=24
464266 Par ch=1 c=64 v=88
464271 On ch=1 n=d#3 v=0
464281 Par ch=1 c=64 v=127
464286 On ch=1 n=f#3 v=0
464291 On ch=1 n=g#3 v=0
464291 On ch=1 n=f#4 v=0
464301 On ch=1 n=d#4 v=0
464311 On ch=1 n=g#4 v=61
464371 On ch=1 n=a#4 v=50
464486 On ch=1 n=c5 v=62
464511 On ch=1 n=c5 v=0
464511 On ch=1 n=g#4 v=0
464526 On ch=1 n=a#4 v=0
464611 On ch=1 n=c#5 v=80
464616 Par ch=1 c=64 v=24
464631 On ch=1 n=d#3 v=62
464631 On ch=1 n=d#4 v=94
464631 Par ch=1 c=64 v=0
464636 On ch=1 n=g#3 v=68
464641 On ch=1 n=f3 v=62
464686 Par ch=1 c=64 v=24
464701 Par ch=1 c=64 v=104
464716 Par ch=1 c=64 v=127
464731 On ch=1 n=f5 v=68
464791 On ch=1 n=d#3 v=0
464811 On ch=1 n=c#5 v=0
464811 On ch=1 n=g#5 v=67
464846 On ch=1 n=f5 v=0
464861 On ch=1 n=d#4 v=0
464896 On ch=1 n=c#6 v=73
464931 On ch=1 n=g#5 v=0
464951 On ch=1 n=c#6 v=0
464951 On ch=1 n=g#3 v=0
464956 On ch=1 n=f3 v=0
465011 On ch=1 n=g#3 v=68
465016 On ch=1 n=f3 v=66
465016 On ch=1 n=c#4 v=87
465016 On ch=1 n=c#3 v=61
465026 On ch=1 n=f6 v=87
465091 On ch=1 n=f6 v=0
465126 On ch=1 n=g#3 v=0
465126 On ch=1 n=g#6 v=77
465131 On ch=1 n=f3 v=0
465161 On ch=1 n=c#3 v=0
465161 On ch=1 n=c#4 v=0
465221 On ch=1 n=c#7 v=81
465256 On ch=1 n=g#6 v=0
465306 On ch=1 n=f7 v=84
465316 On ch=1 n=c#7 v=0
465356 On ch=1 n=f7 v=0
465386 Par ch=1 c=64 v=88
465396 Par ch=1 c=64 v=0
465426 On ch=1 n=c#4 v=83
465426 On ch=1 n=f4 v=87
465426 On ch=1 n=b3 v=76
465431 On ch=1 n=f3 v=65
465471 Par ch=1 c=64 v=56
465486 On ch=1 n=f3 v=0
465486 Par ch=1 c=64 v=127
465551 On ch=1 n=f#4 v=65
465556 On ch=1 n=f4 v=0
465606 On ch=1 n=c#4 v=0
465631 On ch=1 n=g#4 v=65
465651 On ch=1 n=f#4 v=0
465676 On ch=1 n=b3 v=0
465726 On ch=1 n=a#4 v=71
465766 On ch=1 n=g#4 v=0
465791 On ch=1 n=a#4 v=0
465851 Par ch=1 c=64 v=104
465856 On ch=1 n=b4 v=87
465861 On ch=1 n=g#4 v=86
465866 On ch=1 n=c#4 v=71
465866 On ch=1 n=g#3 v=61
465866 Par ch=1 c=64 v=24
465871 On ch=1 n=b3 v=68
465881 Par ch=1 c=64 v=0
465891 On ch=1 n=b3 v=0
465891 Par ch=1 c=64 v=24
465906 Par ch=1 c=64 v=72
465916 On ch=1 n=g#3 v=0
465921 Par ch=1 c=64 v=127
465926 On ch=1 n=g#4 v=0
465931 On ch=1 n=b4 v=0
465936 On ch=1 n=c#4 v=0
465971 On ch=1 n=c#5 v=75
466071 On ch=1 n=d#5 v=69
466106 On ch=1 n=c#5 v=0
466151 On ch=1 n=f5 v=68
466191 On ch=1 n=d#5 v=0
466196 On ch=1 n=f5 v=0
466256 Par ch=1 c=64 v=40
466266 On ch=1 n=f#5 v=87
466271 Par ch=1 c=64 v=0
466281 On ch=1 n=g#4 v=88
466286 On ch=1 n=c#4 v=79
466286 On ch=1 n=a#3 v=65
466296 On ch=1 n=g#3 v=53
466316 Par ch=1 c=64 v=56
466331 Par ch=1 c=64 v=127
466376 On ch=1 n=a#5 v=77
466406 On ch=1 n=f#5 v=0
466451 On ch=1 n=g#3 v=0
466471 On ch=1 n=c#6 v=73
466476 On ch=1 n=c#4 v=0
466491 On ch=1 n=g#4 v=0
466531 On ch=1 n=a#5 v=0
466561 On ch=1 n=f#6 v=73
466601 On ch=1 n=c#6 v=0
466616 On ch=1 n=f#6 v=0
466621 On ch=1 n=a#3 v=0
466671 On ch=1 n=f#4 v=87
466671 On ch=1 n=d#4 v=79
466671 On ch=1 n=a#3 v=61
466681 On ch=1 n=a#6 v=78
466681 On ch=1 n=f#3 v=47
466726 On ch=1 n=d#4 v=0
466731 On ch=1 n=f#4 v=0
466756 On ch=1 n=a#6 v=0
466766 On ch=1 n=a#3 v=0
466771 On ch=1 n=c#7 v=77
466776 On ch=1 n=f#3 v=0
466871 On ch=1 n=f#7 v=75
466896 On ch=1 n=c#7 v=0
466941 On ch=1 n=g#7 v=81
466991 On ch=1 n=f#7 v=0
466996 Par ch=1 c=64 v=104
467011 Par ch=1 c=64 v=24
467026 On ch=1 n=g#7 v=0
467026 Par ch=1 c=64 v=0
467061 On ch=1 n=a#7 v=95
467066 On ch=1 n=a#6 v=87
467071 On ch=1 n=f#2 v=80
467076 On ch=1 n=f#3 v=88
467116 On ch=1 n=f#3 v=0
467116 Par ch=1 c=64 v=88
467126 On ch=1 n=f#2 v=0
467131 Par ch=1 c=64 v=127
467226 On ch=1 n=a#6 v=0
467226 On ch=1 n=a#7 v=0
467276 On ch=1 n=f#7 v=81
467346 On ch=1 n=g#7 v=79
467396 On ch=1 n=f#7 v=0
467436 On ch=1 n=g#7 v=0
467441 On ch=1 n=a#6 v=78
467446 On ch=1 n=a#7 v=92
467456 On ch=1 n=f#5 v=74
467456 On ch=1 n=a#4 v=59
467461 On ch=1 n=a#5 v=71
467466 On ch=1 n=c#5 v=55
467466 Par ch=1 c=64 v=40
467476 Par ch=1 c=64 v=0
467491 On ch=1 n=c#5 v=0
467501 On ch=1 n=a#4 v=0
467501 On ch=1 n=a#6 v=0
467506 On ch=1 n=a#5 v=0
467506 On ch=1 n=f#5 v=0
467546 Par ch=1 c=64 v=40
467551 On ch=1 n=a#7 v=0
467566 Par ch=1 c=64 v=88
467581 Par ch=1 c=64 v=127
467646 On ch=1 n=f#7 v=89
467646 On ch=1 n=a#5 v=85
467651 On ch=1 n=c#5 v=57
467651 On ch=1 n=a#4 v=60
467656 On ch=1 n=a#6 v=71
467656 On ch=1 n=f#5 v=59
467681 On ch=1 n=f#5 v=0
467691 On ch=1 n=a#6 v=0
467691 On ch=1 n=a#5 v=0
467701 On ch=1 n=a#4 v=0
467701 On ch=1 n=c#5 v=0
467741 On ch=1 n=f#7 v=0
467796 Par ch=1 c=64 v=104
467811 Par ch=1 c=64 v=24
467826 Par ch=1 c=64 v=0
467836 On ch=1 n=a#7 v=97
467841 On ch=1 n=a#5 v=91
467841 On ch=1 n=c#5 v=65
467846 On ch=1 n=a#4 v=65
467846 On ch=1 n=a#6 v=85
467846 On ch=1 n=f#5 v=70
467866 Par ch=1 c=64 v=24
467881 Par ch=1 c=64 v=88
467901 Par ch=1 c=64 v=127
467916 On ch=1 n=f#5 v=0
467916 On ch=1 n=a#5 v=0
467941 On ch=1 n=c#5 v=0
467946 On ch=1 n=g#7 v=75
467966 On ch=1 n=a#4 v=0
467996 On ch=1 n=a#7 v=0
468021 On ch=1 n=f#7 v=83
468056 On ch=1 n=g#7 v=0
468086 On ch=1 n=f#7 v=0
468091 On ch=1 n=a#6 v=0
468246 On ch=1 n=f#5 v=95
468246 On ch=1 n=f#4 v=85
468246 On ch=1 n=c#4 v=82
468246 On ch=1 n=c#5 v=90
468246 On ch=1 n=f#3 v=84
468246 Par ch=1 c=64 v=88
468261 Par ch=1 c=64 v=40
468276 On ch=1 n=c#4 v=0
468276 Par ch=1 c=64 v=0
468286 On ch=1 n=f#3 v=0
468286 On ch=1 n=f#4 v=0
468296 On ch=1 n=c#5 v=0
468316 On ch=1 n=f#5 v=0
468436 On ch=1 n=c#5 v=73
468436 On ch=1 n=f5 v=93
468441 On ch=1 n=f4 v=81
468446 On ch=1 n=c#4 v=85
468451 On ch=1 n=f3 v=81
468476 On ch=1 n=f3 v=0
468481 On ch=1 n=c#4 v=0
468496 On ch=1 n=f4 v=0
468511 On ch=1 n=c#5 v=0
468536 On ch=1 n=f5 v=0
468641 On ch=1 n=f5 v=103
468656 On ch=1 n=c#5 v=83
468671 On ch=1 n=f4 v=82
468671 On ch=1 n=c#4 v=84
468676 On ch=1 n=f3 v=79
468681 Par ch=1 c=64 v=56
468696 Par ch=1 c=64 v=104
468711 Par ch=1 c=64 v=127
468716 On ch=1 n=c#5 v=0
468731 On ch=1 n=f3 v=0
468741 On ch=1 n=c#4 v=0
468746 On ch=1 n=f4 v=0
468761 On ch=1 n=f5 v=0
469091 Par ch=1 c=64 v=56
469106 Par ch=1 c=64 v=0
469246 On ch=1 n=d#7 v=80
469321 On ch=1 n=f7 v=78
469356 On ch=1 n=d#7 v=0
469401 On ch=1 n=d#2 v=81
469411 On ch=1 n=d#3 v=85
469411 On ch=1 n=f#7 v=92
469416 On ch=1 n=f#6 v=88
469436 On ch=1 n=f7 v=0
469436 Par ch=1 c=64 v=127
469451 On ch=1 n=d#3 v=0
469451 On ch=1 n=d#2 v=0
469546 On ch=1 n=f#6 v=0
469556 On ch=1 n=f#7 v=0
469621 On ch=1 n=d#7 v=76
469681 On ch=1 n=f#7 v=69
469701 On ch=1 n=f7 v=88
469711 On ch=1 n=f#7 v=0
469751 On ch=1 n=d#7 v=0
469786 On ch=1 n=d#5 v=74
469791 On ch=1 n=f#5 v=82
469791 Par ch=1 c=64 v=104
469796 On ch=1 n=f#4 v=67
469796 On ch=1 n=a#4 v=56
469796 On ch=1 n=f#6 v=82
469801 On ch=1 n=f#7 v=88
469806 On ch=1 n=f7 v=0
469806 Par ch=1 c=64 v=24
469816 Par ch=1 c=64 v=0
469821 On ch=1 n=a#4 v=0
469836 On ch=1 n=f#4 v=0
469836 On ch=1 n=f#5 v=0
469836 On ch=1 n=d#5 v=0
469851 On ch=1 n=f#6 v=0
469876 Par ch=1 c=64 v=72
469886 On ch=1 n=f#7 v=0
469891 Par ch=1 c=64 v=127
469986 On ch=1 n=d#7 v=85
469991 On ch=1 n=f#6 v=80
469991 On ch=1 n=f#5 v=88
469996 On ch=1 n=a#4 v=61
469996 On ch=1 n=d#5 v=67
470001 On ch=1 n=f#4 v=54
470021 On ch=1 n=d#5 v=0
470026 On ch=1 n=f#4 v=0
470036 On ch=1 n=a#4 v=0
470036 On ch=1 n=f#5 v=0
470041 On ch=1 n=f#6 v=0
470086 On ch=1 n=d#7 v=0
470151 Par ch=1 c=64 v=88
470166 On ch=1 n=f#7 v=87
470166 On ch=1 n=f#6 v=77
470166 Par ch=1 c=64 v=40
470181 On ch=1 n=f#5 v=84
470186 On ch=1 n=d#5 v=64
470186 On ch=1 n=a#4 v=57
470191 On ch=1 n=f#4 v=53
470211 Par ch=1 c=64 v=88
470221 Par ch=1 c=64 v=127
470246 On ch=1 n=f7 v=80
470251 On ch=1 n=f#7 v=0
470336 On ch=1 n=d#7 v=83
470356 On ch=1 n=f7 v=0
470426 On ch=1 n=d7 v=88
470431 On ch=1 n=d#7 v=0
470486 Par ch=1 c=64 v=40
470501 Par ch=1 c=64 v=0
470526 On ch=1 n=d#7 v=96
470546 On ch=1 n=d7 v=0
470556 On ch=1 n=f#6 v=0
470586 Par ch=1 c=64 v=104
470591 On ch=1 n=d#7 v=0
470601 On ch=1 n=f#5 v=0
470601 Par ch=1 c=64 v=127
470606 On ch=1 n=f#4 v=0
470611 On ch=1 n=a#4 v=0
470611 On ch=1 n=d#5 v=0
470936 Par ch=1 c=64 v=88
470951 Par ch=1 c=64 v=56
470966 Par ch=1 c=64 v=24
470981 Par ch=1 c=64 v=0
471111 On ch=1 n=a#5 v=86
471116 On ch=1 n=a#4 v=73
471121 On ch=1 n=f#5 v=75
471121 On ch=1 n=f#3 v=69
471136 On ch=1 n=f#4 v=73
471176 On ch=1 n=a#4 v=0
471186 On ch=1 n=f#4 v=0
471206 On ch=1 n=f#5 v=0
471211 On ch=1 n=f#3 v=0
471216 On ch=1 n=a#5 v=0
471291 On ch=1 n=b5 v=94
471296 On ch=1 n=f#5 v=75
471296 On ch=1 n=b4 v=82
471301 On ch=1 n=b3 v=74
471301 On ch=1 n=f#4 v=71
471346 On ch=1 n=b4 v=0
471356 On ch=1 n=f#4 v=0
471361 On ch=1 n=b3 v=0
471376 On ch=1 n=f#5 v=0
471376 On ch=1 n=b5 v=0
471471 On ch=1 n=c6 v=99
471476 On ch=1 n=c5 v=90
471476 On ch=1 n=g#4 v=79
471476 On ch=1 n=g#5 v=79
471476 On ch=1 n=g#3 v=77
471531 On ch=1 n=g#3 v=0
471531 On ch=1 n=g#4 v=0
471531 On ch=1 n=c5 v=0
471546 On ch=1 n=c6 v=0
471571 On ch=1 n=g#5 v=0
471671 On ch=1 n=c#6 v=102
471676 On ch=1 n=g#5 v=78
471676 On ch=1 n=c#5 v=91
471681 On ch=1 n=g#4 v=77
471686 On ch=1 n=c#4 v=72
471736 Par ch=1 c=64 v=72
471746 Par ch=1 c=64 v=127
471781 On ch=1 n=g#4 v=0
471796 On ch=1 n=c#4 v=0
471826 On ch=1 n=c#5 v=0
471831 On ch=1 n=c#6 v=0
472021 On ch=1 n=g#5 v=0
472046 On ch=1 n=c6 v=92
472056 On ch=1 n=c5 v=80
472056 Par ch=1 c=64 v=56
472066 On ch=1 n=c3 v=66
472066 Par ch=1 c=64 v=0
472126 Par ch=1 c=64 v=24
472141 Par ch=1 c=64 v=72
472146 On ch=1 n=c#3 v=64
472156 On ch=1 n=c3 v=0
472156 Par ch=1 c=64 v=127
472236 On ch=1 n=c5 v=0
472246 On ch=1 n=d#3 v=63
472251 On ch=1 n=c#3 v=0
472256 On ch=1 n=c6 v=0
472276 On ch=1 n=g#5 v=65
472301 On ch=1 n=f#5 v=54
472341 On ch=1 n=d#3 v=0
472346 On ch=1 n=f#5 v=0
472346 On ch=1 n=f3 v=61
472401 On ch=1 n=g#5 v=0
472436 On ch=1 n=d#6 v=91
472446 On ch=1 n=d#5 v=83
472446 Par ch=1 c=64 v=88
472451 On ch=1 n=f#3 v=62
472461 Par ch=1 c=64 v=40
472476 On ch=1 n=f3 v=0
472476 Par ch=1 c=64 v=24
472491 Par ch=1 c=64 v=40
472506 Par ch=1 c=64 v=72
472521 Par ch=1 c=64 v=127
472541 On ch=1 n=f#3 v=0
472541 On ch=1 n=g#3 v=64
472606 On ch=1 n=d#5 v=0
472606 On ch=1 n=d#6 v=0
472631 On ch=1 n=g#3 v=0
472631 On ch=1 n=a#3 v=69
472646 On ch=1 n=g#5 v=65
472661 On ch=1 n=f#5 v=56
472716 On ch=1 n=a#3 v=0
472726 On ch=1 n=f#5 v=0
472726 On ch=1 n=c4 v=74
472776 On ch=1 n=g#5 v=0
472811 Par ch=1 c=64 v=72
472816 On ch=1 n=d#6 v=91
472826 On ch=1 n=d#5 v=83
472826 Par ch=1 c=64 v=0
472836 On ch=1 n=c#4 v=77
472856 On ch=1 n=c4 v=0
472886 Par ch=1 c=64 v=56
472896 Par ch=1 c=64 v=127
472926 On ch=1 n=c#4 v=0
472931 On ch=1 n=d#4 v=78
472981 On ch=1 n=d#6 v=0
472991 On ch=1 n=d#5 v=0
472996 On ch=1 n=f5 v=57
473001 On ch=1 n=g#5 v=69
473011 On ch=1 n=d#4 v=0
473026 On ch=1 n=f4 v=66
473096 On ch=1 n=f5 v=0
473106 On ch=1 n=f#4 v=71
473126 On ch=1 n=f4 v=0
473171 On ch=1 n=g#5 v=0
473186 On ch=1 n=f#4 v=0
473191 On ch=1 n=g#4 v=80
473191 Par ch=1 c=64 v=56
473206 On ch=1 n=c#6 v=92
473206 Par ch=1 c=64 v=0
473211 On ch=1 n=c#5 v=87
473246 Par ch=1 c=64 v=24
473256 Par ch=1 c=64 v=72
473261 On ch=1 n=g#4 v=0
473276 Par ch=1 c=64 v=127
473371 On ch=1 n=c#6 v=0
473391 On ch=1 n=g#5 v=73
473391 On ch=1 n=f5 v=66
473401 On ch=1 n=c#5 v=0
473451 On ch=1 n=f5 v=0
473456 On ch=1 n=g#5 v=0
473581 Par ch=1 c=64 v=88
473591 On ch=1 n=f3 v=78
473596 On ch=1 n=f6 v=97
473596 Par ch=1 c=64 v=24
473601 On ch=1 n=f5 v=86
473606 Par ch=1 c=64 v=0
473681 Par ch=1 c=64 v=88
473686 On ch=1 n=f3 v=0
473696 On ch=1 n=f#3 v=54
473696 Par ch=1 c=64 v=127
473741 On ch=1 n=f5 v=0
473776 On ch=1 n=f6 v=0
473786 On ch=1 n=g#3 v=57
473801 On ch=1 n=f#3 v=0
473816 On ch=1 n=c#6 v=65
473841 On ch=1 n=b5 v=50
473866 On ch=1 n=a#3 v=64
473881 On ch=1 n=b5 v=0
473891 On ch=1 n=g#3 v=0
473936 On ch=1 n=c#6 v=0
473941 On ch=1 n=a#3 v=0
473956 On ch=1 n=b3 v=62
473976 On ch=1 n=g#6 v=96
473981 On ch=1 n=g#5 v=87
474026 On ch=1 n=b3 v=0
474071 On ch=1 n=c#4 v=51
474121 On ch=1 n=g#5 v=0
474141 On ch=1 n=d#4 v=69
474151 On ch=1 n=g#6 v=0
474161 On ch=1 n=c#4 v=0
474176 On ch=1 n=c#6 v=70
474191 On ch=1 n=b5 v=59
474236 On ch=1 n=d#4 v=0
474256 On ch=1 n=b5 v=0
474256 On ch=1 n=f4 v=67
474321 On ch=1 n=c#6 v=0
474321 Par ch=1 c=64 v=56
474336 Par ch=1 c=64 v=0
474346 On ch=1 n=g#6 v=97
474351 On ch=1 n=g#5 v=91
474371 On ch=1 n=f#4 v=71
474386 On ch=1 n=f4 v=0
474406 Par ch=1 c=64 v=56
474421 Par ch=1 c=64 v=127
474461 On ch=1 n=f#4 v=0
474461 On ch=1 n=g#4 v=67
474516 On ch=1 n=g#6 v=0
474541 On ch=1 n=g#4 v=0
474546 On ch=1 n=a#4 v=57
474561 On ch=1 n=c#6 v=67
474566 On ch=1 n=a#5 v=56
474591 On ch=1 n=g#5 v=0
474606 On ch=1 n=a#4 v=0
474606 On ch=1 n=b4 v=57
474686 On ch=1 n=a#5 v=0
474716 On ch=1 n=c#5 v=74
474721 On ch=1 n=b4 v=0
474721 On ch=1 n=c#6 v=0
474726 Par ch=1 c=64 v=88
474741 On ch=1 n=f#6 v=89
474741 On ch=1 n=f#5 v=82
474741 Par ch=1 c=64 v=40
474781 On ch=1 n=c#5 v=0
474786 Par ch=1 c=64 v=127
474896 On ch=1 n=f#6 v=0
474926 On ch=1 n=a#5 v=60
474931 On ch=1 n=c#6 v=84
474936 On ch=1 n=f#5 v=0
474976 On ch=1 n=a#5 v=0
474991 On ch=1 n=c#6 v=0
475031 Par ch=1 c=64 v=88
475046 Par ch=1 c=64 v=40
475061 Par ch=1 c=64 v=0
475116 On ch=1 n=a#6 v=99
475121 On ch=1 n=a#5 v=93
475126 On ch=1 n=f#2 v=83
475131 On ch=1 n=f#3 v=90
475151 Par ch=1 c=64 v=88
475166 Par ch=1 c=64 v=127
475181 On ch=1 n=f#3 v=0
475186 On ch=1 n=f#2 v=0
475261 On ch=1 n=a#5 v=0
475271 On ch=1 n=a#6 v=0
475311 On ch=1 n=f#6 v=77
475391 On ch=1 n=g#6 v=77
475446 On ch=1 n=f#6 v=0
475496 On ch=1 n=a#6 v=91
475496 On ch=1 n=a#5 v=82
475501 On ch=1 n=f#5 v=74
475506 On ch=1 n=a#4 v=57
475506 On ch=1 n=f#4 v=62
475511 On ch=1 n=g#6 v=0
475516 Par ch=1 c=64 v=88
475521 On ch=1 n=d#5 v=28
475531 Par ch=1 c=64 v=72
475541 Par ch=1 c=64 v=40
475551 On ch=1 n=d#5 v=0
475551 On ch=1 n=f#4 v=0
475556 On ch=1 n=f#5 v=0
475556 Par ch=1 c=64 v=24
475566 On ch=1 n=a#4 v=0
475586 On ch=1 n=a#5 v=0
475611 On ch=1 n=a#6 v=0
475616 Par ch=1 c=64 v=0
475671 On ch=1 n=f#6 v=89
475676 On ch=1 n=f#5 v=83
475681 On ch=1 n=a#4 v=58
475686 On ch=1 n=c#5 v=58
475686 On ch=1 n=f#4 v=52
475691 On ch=1 n=a#5 v=63
475711 On ch=1 n=f#4 v=0
475711 On ch=1 n=c#5 v=0
475726 On ch=1 n=f#5 v=0
475736 On ch=1 n=a#5 v=0
475741 On ch=1 n=a#4 v=0
475786 On ch=1 n=f#6 v=0
475861 On ch=1 n=a#6 v=96
475861 On ch=1 n=a#5 v=85
475861 On ch=1 n=f#5 v=85
475871 On ch=1 n=a#4 v=58
475871 On ch=1 n=c#5 v=57
475876 On ch=1 n=f#4 v=58
475876 Par ch=1 c=64 v=24
475891 Par ch=1 c=64 v=72
475901 Par ch=1 c=64 v=127
475966 On ch=1 n=g#6 v=79
475976 On ch=1 n=f#5 v=0
475996 On ch=1 n=c#5 v=0
476011 On ch=1 n=f#4 v=0
476021 On ch=1 n=a#4 v=0
476026 On ch=1 n=a#6 v=0
476056 On ch=1 n=f#6 v=85
476101 On ch=1 n=g#6 v=0
476136 On ch=1 n=f#6 v=0
476141 On ch=1 n=a#5 v=0
476226 Par ch=1 c=64 v=104
476236 Par ch=1 c=64 v=88
476251 On ch=1 n=f#5 v=93
476251 On ch=1 n=c#4 v=83
476251 On ch=1 n=f#4 v=82
476251 On ch=1 n=c#5 v=89
476256 On ch=1 n=a#3 v=77
476256 Par ch=1 c=64 v=56
476261 On ch=1 n=a#4 v=63
476271 Par ch=1 c=64 v=40
476286 Par ch=1 c=64 v=24
476291 On ch=1 n=a#4 v=0
476291 On ch=1 n=f#4 v=0
476296 On ch=1 n=c#4 v=0
476301 On ch=1 n=a#3 v=0
476306 On ch=1 n=c#5 v=0
476311 Par ch=1 c=64 v=0
476321 On ch=1 n=f#5 v=0
476441 On ch=1 n=f5 v=92
476446 On ch=1 n=f4 v=84
476451 On ch=1 n=c4 v=86
476451 On ch=1 n=a4 v=72
476456 On ch=1 n=c5 v=73
476456 On ch=1 n=a3 v=79
476501 On ch=1 n=f4 v=0
476506 On ch=1 n=a3 v=0
476506 On ch=1 n=c4 v=0
476511 On ch=1 n=c5 v=0
476516 On ch=1 n=a4 v=0
476551 On ch=1 n=f5 v=0
476666 On ch=1 n=f5 v=99
476671 On ch=1 n=a4 v=82
476676 On ch=1 n=c4 v=88
476676 On ch=1 n=f4 v=83
476676 On ch=1 n=c5 v=85
476681 On ch=1 n=a3 v=79
476721 Par ch=1 c=64 v=24
476731 Par ch=1 c=64 v=88
476746 Par ch=1 c=64 v=127
476786 On ch=1 n=a4 v=0
476806 On ch=1 n=c5 v=0
476836 On ch=1 n=a3 v=0
476851 On ch=1 n=f4 v=0
476856 On ch=1 n=f5 v=0
476866 On ch=1 n=c4 v=0
477156 Par ch=1 c=64 v=88
477171 Par ch=1 c=64 v=0
477281 On ch=1 n=d#6 v=75
477351 On ch=1 n=f6 v=84
477411 On ch=1 n=d#6 v=0
477451 On ch=1 n=f#6 v=96
477461 On ch=1 n=f#5 v=86
477466 On ch=1 n=d#2 v=82
477466 On ch=1 n=d#3 v=93
477486 On ch=1 n=f6 v=0
477506 Par ch=1 c=64 v=127
477541 On ch=1 n=d#3 v=0
477541 On ch=1 n=d#2 v=0
477621 On ch=1 n=f#6 v=0
477626 On ch=1 n=f#5 v=0
477671 On ch=1 n=d#6 v=72
477751 On ch=1 n=f6 v=76
477821 On ch=1 n=d#6 v=0
477841 On ch=1 n=f6 v=0
477846 On ch=1 n=f#6 v=92
477846 On ch=1 n=a#4 v=79
477851 On ch=1 n=f#5 v=81
477851 On ch=1 n=f#4 v=77
477851 On ch=1 n=d#4 v=71
477851 Par ch=1 c=64 v=88
477856 On ch=1 n=a#3 v=67
477866 Par ch=1 c=64 v=56
477881 On ch=1 n=a#3 v=0
477881 On ch=1 n=d#4 v=0
477881 Par ch=1 c=64 v=24
477896 On ch=1 n=f#4 v=0
477896 On ch=1 n=a#4 v=0
477896 Par ch=1 c=64 v=0
477956 On ch=1 n=f#5 v=0
477976 On ch=1 n=f#6 v=0
478036 On ch=1 n=d#6 v=85
478041 On ch=1 n=a#4 v=86
478051 On ch=1 n=a#3 v=64
478051 On ch=1 n=f#4 v=63
478051 On ch=1 n=d#4 v=70
478071 On ch=1 n=d#4 v=0
478071 On ch=1 n=a#3 v=0
478076 On ch=1 n=f#4 v=0
478086 On ch=1 n=a#4 v=0
478156 On ch=1 n=d#6 v=0
478201 Par ch=1 c=64 v=56
478216 On ch=1 n=f#6 v=88
478216 On ch=1 n=f#5 v=76
478216 Par ch=1 c=64 v=127
478226 On ch=1 n=a#4 v=86
478231 On ch=1 n=d#4 v=71
478236 On ch=1 n=f#4 v=61
478236 On ch=1 n=a#3 v=61
478261 On ch=1 n=a#3 v=0
478261 On ch=1 n=f#4 v=0
478311 On ch=1 n=f#6 v=0
478316 On ch=1 n=f6 v=87
478391 On ch=1 n=d#6 v=83
478411 On ch=1 n=f6 v=0
478441 On ch=1 n=a#3 v=1
478486 On ch=1 n=d#6 v=0
478486 On ch=1 n=d6 v=88
478581 On ch=1 n=d6 v=0
478581 Par ch=1 c=64 v=88
478591 On ch=1 n=d#6 v=95
478591 Par ch=1 c=64 v=0
478726 On ch=1 n=d#6 v=0
478726 Par ch=1 c=64 v=127
478731 On ch=1 n=a#3 v=0
478736 On ch=1 n=a#4 v=0
478746 On ch=1 n=d#4 v=0
478746 On ch=1 n=f#5 v=0
478956 Par ch=1 c=64 v=104
478971 Par ch=1 c=64 v=72
478986 Par ch=1 c=64 v=40
479001 Par ch=1 c=64 v=0
479161 On ch=1 n=f#5 v=75
479166 On ch=1 n=f#4 v=65
479171 On ch=1 n=a#4 v=58
479171 On ch=1 n=f#3 v=73
479181 On ch=1 n=f#2 v=50
479206 On ch=1 n=f#2 v=0
479221 On ch=1 n=f#3 v=0
479221 On ch=1 n=f#4 v=0
479241 On ch=1 n=a#4 v=0
479246 On ch=1 n=f#5 v=0
479341 On ch=1 n=f#5 v=72
479351 On ch=1 n=b3 v=79
479351 On ch=1 n=b4 v=69
479351 On ch=1 n=f#4 v=57
479376 On ch=1 n=b3 v=0
479376 On ch=1 n=b2 v=45
479401 On ch=1 n=f#4 v=0
479406 On ch=1 n=b2 v=0
479406 On ch=1 n=b4 v=0
479436 On ch=1 n=f#5 v=0
479526 On ch=1 n=g#5 v=71
479526 On ch=1 n=c5 v=78
479531 On ch=1 n=g#2 v=70
479531 On ch=1 n=g#4 v=51
479536 On ch=1 n=g#3 v=71
479576 On ch=1 n=g#3 v=0
479576 On ch=1 n=g#4 v=0
479576 On ch=1 n=g#2 v=0
479596 On ch=1 n=c5 v=0
479616 On ch=1 n=g#5 v=0
479701 On ch=1 n=g#5 v=79
479706 On ch=1 n=c#5 v=77
479711 On ch=1 n=g#4 v=60
479716 On ch=1 n=c#3 v=73
479716 On ch=1 n=c#4 v=83
479741 On ch=1 n=g#4 v=0
479756 On ch=1 n=c#4 v=0
479761 On ch=1 n=c#3 v=0
479781 On ch=1 n=c#5 v=0
479791 On ch=1 n=g#5 v=0
479876 On ch=1 n=a#4 v=82
479881 On ch=1 n=a#5 v=88
479886 On ch=1 n=f#2 v=67
479886 On ch=1 n=f#3 v=82
479896 On ch=1 n=d5 v=71
479916 On ch=1 n=d5 v=0
479931 On ch=1 n=a#4 v=0
479936 On ch=1 n=f#3 v=0
479936 On ch=1 n=f#2 v=0
479976 On ch=1 n=a#5 v=0
480061 On ch=1 n=b5 v=89
480071 On ch=1 n=b4 v=77
480071 On ch=1 n=f#5 v=63
480076 On ch=1 n=b3 v=80
480091 On ch=1 n=b2 v=66
480111 On ch=1 n=b3 v=0
480121 On ch=1 n=b2 v=0
480121 On ch=1 n=b4 v=0
480131 On ch=1 n=f#5 v=0
480146 On ch=1 n=b5 v=0
480236 On ch=1 n=c6 v=90
480241 On ch=1 n=c5 v=79
480246 On ch=1 n=g#5 v=71
480246 On ch=1 n=g#2 v=71
480256 On ch=1 n=g#3 v=77
480286 On ch=1 n=c5 v=0
480296 On ch=1 n=g#3 v=0
480301 On ch=1 n=g#2 v=0
480311 On ch=1 n=c6 v=0
480336 On ch=1 n=g#5 v=0
480416 On ch=1 n=c#6 v=88
480426 On ch=1 n=c#5 v=81
480426 On ch=1 n=g#5 v=74
480431 On ch=1 n=c#3 v=74
480436 On ch=1 n=c#4 v=86
480466 On ch=1 n=c#5 v=0
480471 On ch=1 n=c#4 v=0
480481 On ch=1 n=c#3 v=0
480501 On ch=1 n=g#5 v=0
480501 On ch=1 n=c#6 v=0
480601 On ch=1 n=f#6 v=91
480601 On ch=1 n=f#5 v=90
480611 On ch=1 n=a#5 v=77
480611 On ch=1 n=f#2 v=69
480616 On ch=1 n=f#3 v=81
480651 On ch=1 n=f#3 v=0
480651 On ch=1 n=f#5 v=0
480661 On ch=1 n=f#2 v=0
480671 On ch=1 n=a#5 v=0
480691 On ch=1 n=f#6 v=0
480776 On ch=1 n=f#6 v=91
480786 On ch=1 n=f#5 v=77
480786 On ch=1 n=b3 v=82
480791 On ch=1 n=b5 v=72
480801 On ch=1 n=b2 v=69
480816 On ch=1 n=b5 v=0
480831 On ch=1 n=b2 v=0
480831 On ch=1 n=f#5 v=0
480836 On ch=1 n=b3 v=0
480871 On ch=1 n=f#6 v=0
480946 On ch=1 n=g#6 v=77
480946 On ch=1 n=g#5 v=74
480951 On ch=1 n=c6 v=88
480961 On ch=1 n=g#2 v=75
480966 On ch=1 n=g#3 v=86
481006 On ch=1 n=g#3 v=0
481011 On ch=1 n=g#2 v=0
481011 On ch=1 n=c6 v=0
481011 On ch=1 n=g#5 v=0
481041 On ch=1 n=g#6 v=0
481126 On ch=1 n=g#6 v=96
481131 On ch=1 n=g#5 v=87
481131 On ch=1 n=c#6 v=85
481146 On ch=1 n=c#4 v=90
481146 On ch=1 n=c#3 v=82
481181 On ch=1 n=g#5 v=0
481186 On ch=1 n=c#4 v=0
481191 On ch=1 n=c#3 v=0
481221 On ch=1 n=c#6 v=0
481226 On ch=1 n=g#6 v=0
481311 On ch=1 n=a#6 v=88
481316 On ch=1 n=a#5 v=86
481316 On ch=1 n=f#6 v=78
481316 On ch=1 n=f#2 v=74
481321 On ch=1 n=f#3 v=89
481361 On ch=1 n=f#3 v=0
481361 On ch=1 n=f#2 v=0
481371 On ch=1 n=a#5 v=0
481411 On ch=1 n=f#6 v=0
481416 On ch=1 n=a#6 v=0
481486 On ch=1 n=b6 v=97
481491 On ch=1 n=b5 v=86
481491 On ch=1 n=f#6 v=81
481491 On ch=1 n=b3 v=85
481511 On ch=1 n=b2 v=56
481541 On ch=1 n=b2 v=0
481546 On ch=1 n=b3 v=0
481546 On ch=1 n=b5 v=0
481566 On ch=1 n=f#6 v=0
481571 On ch=1 n=b6 v=0
481656 On ch=1 n=g#2 v=81
481661 On ch=1 n=c7 v=99
481661 On ch=1 n=g#3 v=87
481661 On ch=1 n=g#6 v=85
481661 On ch=1 n=c6 v=97
481706 On ch=1 n=g#3 v=0
481711 On ch=1 n=c6 v=0
481711 On ch=1 n=g#2 v=0
481746 On ch=1 n=c7 v=0
481751 On ch=1 n=g#6 v=0
481846 On ch=1 n=c#7 v=97
481851 On ch=1 n=c#4 v=90
481851 On ch=1 n=g#6 v=82
481851 On ch=1 n=c#3 v=69
481856 On ch=1 n=c#6 v=86
481881 On ch=1 n=c#6 v=0
481891 On ch=1 n=g#6 v=0
481891 On ch=1 n=c#4 v=0
481901 On ch=1 n=c#3 v=0
481921 On ch=1 n=c#7 v=0
482016 On ch=1 n=f#3 v=96
482016 On ch=1 n=f#6 v=96
482016 On ch=1 n=f#7 v=100
482016 On ch=1 n=f#2 v=84
482021 On ch=1 n=c#7 v=90
482051 On ch=1 n=f#3 v=0
482056 On ch=1 n=f#6 v=0
482061 On ch=1 n=c#7 v=0
482071 On ch=1 n=f#2 v=0
482096 On ch=1 n=f#7 v=0
482191 On ch=1 n=f#6 v=85
482191 On ch=1 n=b3 v=93
482191 On ch=1 n=b6 v=93
482191 On ch=1 n=f#7 v=91
482196 On ch=1 n=b2 v=81
482226 On ch=1 n=f#6 v=0
482231 On ch=1 n=b3 v=0
482241 On ch=1 n=b2 v=0
482246 On ch=1 n=b6 v=0
482281 On ch=1 n=f#7 v=0
482361 On ch=1 n=c7 v=76
482361 On ch=1 n=g#2 v=77
482361 On ch=1 n=g#6 v=81
482361 On ch=1 n=g#7 v=97
482366 On ch=1 n=g#3 v=90
482406 On ch=1 n=g#3 v=0
482406 On ch=1 n=g#2 v=0
482421 On ch=1 n=c7 v=0
482426 On ch=1 n=g#6 v=0
482466 On ch=1 n=g#7 v=0
482536 On ch=1 n=g#7 v=99
482536 On ch=1 n=g#6 v=96
482536 On ch=1 n=c#7 v=91
482546 On ch=1 n=c#4 v=99
482546 On ch=1 n=c#3 v=86
482556 Par ch=1 c=64 v=40
482581 On ch=1 n=c#4 v=0
482586 On ch=1 n=c#3 v=0
482586 On ch=1 n=g#6 v=0
482621 On ch=1 n=g#7 v=0
482621 Par ch=1 c=64 v=0
482636 On ch=1 n=c#7 v=0
482706 On ch=1 n=g#7 v=105
482711 On ch=1 n=g#2 v=85
482711 On ch=1 n=g#6 v=93
482711 On ch=1 n=c7 v=99
482716 On ch=1 n=g#3 v=95
482756 On ch=1 n=g#3 v=0
482761 On ch=1 n=g#2 v=0
482771 On ch=1 n=g#6 v=0
482781 On ch=1 n=c7 v=0
482801 On ch=1 n=g#7 v=0
482871 On ch=1 n=g#7 v=96
482876 On ch=1 n=g#6 v=102
482881 On ch=1 n=c#7 v=92
482881 On ch=1 n=c#4 v=99
482881 Par ch=1 c=64 v=24
482886 On ch=1 n=c#3 v=85
482926 On ch=1 n=c#4 v=0
482926 On ch=1 n=g#6 v=0
482931 On ch=1 n=c#3 v=0
482941 Par ch=1 c=64 v=0
482961 On ch=1 n=g#7 v=0
482971 On ch=1 n=c#7 v=0
483011 Par ch=1 c=64 v=24
483026 Par ch=1 c=64 v=72
483036 On ch=1 n=g#7 v=102
483041 On ch=1 n=g#6 v=99
483041 On ch=1 n=g#2 v=85
483041 Par ch=1 c=64 v=104
483046 On ch=1 n=g#3 v=89
483046 On ch=1 n=c7 v=96
483056 Par ch=1 c=64 v=127
483066 Par ch=1 c=64 v=104
483086 On ch=1 n=g#3 v=0
483086 Par ch=1 c=64 v=72
483091 On ch=1 n=g#2 v=0
483101 On ch=1 n=c7 v=0
483101 Par ch=1 c=64 v=40
483111 On ch=1 n=g#6 v=0
483116 Par ch=1 c=64 v=0
483136 On ch=1 n=g#7 v=0
483171 Par ch=1 c=64 v=40
483186 Par ch=1 c=64 v=56
483201 Par ch=1 c=64 v=72
483206 On ch=1 n=g#7 v=95
483211 On ch=1 n=c#7 v=95
483211 On ch=1 n=c#4 v=99
483211 On ch=1 n=c#3 v=85
483211 On ch=1 n=g#6 v=100
483246 Par ch=1 c=64 v=24
483251 On ch=1 n=c#4 v=0
483261 On ch=1 n=g#6 v=0
483261 On ch=1 n=c#3 v=0
483261 Par ch=1 c=64 v=0
483296 On ch=1 n=g#7 v=0
483301 On ch=1 n=c#7 v=0
483346 Par ch=1 c=64 v=40
483361 Par ch=1 c=64 v=56
483376 On ch=1 n=g#7 v=103
483376 On ch=1 n=g#6 v=97
483376 Par ch=1 c=64 v=72
483381 On ch=1 n=g#3 v=87
483381 On ch=1 n=g#2 v=86
483386 On ch=1 n=c7 v=99
483421 On ch=1 n=g#3 v=0
483421 Par ch=1 c=64 v=40
483431 On ch=1 n=g#2 v=0
483436 Par ch=1 c=64 v=0
483441 On ch=1 n=g#6 v=0
483451 On ch=1 n=c7 v=0
483476 On ch=1 n=g#7 v=0
483506 Par ch=1 c=64 v=24
483521 Par ch=1 c=64 v=72
483536 Par ch=1 c=64 v=104
483541 On ch=1 n=g#7 v=93
483546 On ch=1 n=g#6 v=99
483546 On ch=1 n=c#4 v=97
483546 On ch=1 n=c#7 v=93
483551 On ch=1 n=c#3 v=85
483551 Par ch=1 c=64 v=127
483591 On ch=1 n=c#4 v=0
483596 On ch=1 n=c#3 v=0
483601 On ch=1 n=g#6 v=0
483631 On ch=1 n=g#7 v=0
483636 On ch=1 n=c#7 v=0
483706 On ch=1 n=g#7 v=100
483706 On ch=1 n=g#3 v=90
483706 On ch=1 n=g#6 v=93
483706 On ch=1 n=g#2 v=85
483716 On ch=1 n=c7 v=96
483741 On ch=1 n=c7 v=0
483746 On ch=1 n=g#3 v=0
483756 On ch=1 n=g#2 v=0
483756 Par ch=1 c=64 v=88
483761 On ch=1 n=g#6 v=0
483771 Par ch=1 c=64 v=72
483781 Par ch=1 c=64 v=40
483796 Par ch=1 c=64 v=0
483801 On ch=1 n=g#7 v=0
483871 On ch=1 n=g#7 v=95
483876 On ch=1 n=g#6 v=103
483881 On ch=1 n=c#7 v=95
483886 On ch=1 n=c#4 v=102
483891 On ch=1 n=c#3 v=85
483896 Par ch=1 c=64 v=24
483911 Par ch=1 c=64 v=104
483926 On ch=1 n=c#4 v=0
483926 Par ch=1 c=64 v=127
483931 On ch=1 n=c#3 v=0
483931 On ch=1 n=g#6 v=0
483931 On ch=1 n=g#7 v=0
483951 On ch=1 n=c#7 v=0
484091 On ch=1 n=c#6 v=67
484096 On ch=1 n=g#5 v=71
484111 On ch=1 n=g#6 v=84
484131 Par ch=1 c=64 v=88
484136 On ch=1 n=c#6 v=0
484141 On ch=1 n=g#5 v=0
484146 Par ch=1 c=64 v=40
484161 On ch=1 n=g#6 v=0
484161 On ch=1 n=g5 v=78
484161 On ch=1 n=f5 v=81
484161 Par ch=1 c=64 v=24
484206 Par ch=1 c=64 v=72
484211 On ch=1 n=g5 v=0
484216 On ch=1 n=f5 v=0
484216 Par ch=1 c=64 v=127
484236 On ch=1 n=a#6 v=83
484251 On ch=1 n=a#5 v=77
484251 On ch=1 n=c#6 v=76
484296 On ch=1 n=a#5 v=0
484301 On ch=1 n=c#6 v=0
484321 On ch=1 n=a#6 v=0
484321 On ch=1 n=c#5 v=65
484321 On ch=1 n=f5 v=62
484321 Par ch=1 c=64 v=72
484336 Par ch=1 c=64 v=0
484356 On ch=1 n=f5 v=0
484386 On ch=1 n=c#5 v=0
484401 On ch=1 n=g#6 v=87
484401 On ch=1 n=g#5 v=84
484401 On ch=1 n=c#6 v=69
484406 Par ch=1 c=64 v=56
484421 Par ch=1 c=64 v=104
484436 Par ch=1 c=64 v=127
484446 On ch=1 n=c#6 v=0
484456 On ch=1 n=g#5 v=0
484466 Par ch=1 c=64 v=104
484481 Par ch=1 c=64 v=56
484486 On ch=1 n=f5 v=84
484486 On ch=1 n=g5 v=70
484491 Par ch=1 c=64 v=40
484506 On ch=1 n=g#6 v=0
484506 Par ch=1 c=64 v=56
484521 Par ch=1 c=64 v=72
484526 On ch=1 n=g5 v=0
484536 On ch=1 n=f5 v=0
484536 Par ch=1 c=64 v=104
484551 Par ch=1 c=64 v=127
484571 On ch=1 n=a#6 v=88
484571 On ch=1 n=a#5 v=79
484571 On ch=1 n=c#6 v=69
484626 On ch=1 n=c#6 v=0
484631 On ch=1 n=a#5 v=0
484641 Par ch=1 c=64 v=88
484651 Par ch=1 c=64 v=0
484656 On ch=1 n=f5 v=68
484656 On ch=1 n=c#5 v=65
484661 On ch=1 n=a#6 v=0
484711 On ch=1 n=c#5 v=0
484716 On ch=1 n=f5 v=0
484716 Par ch=1 c=64 v=24
484726 Par ch=1 c=64 v=88
484741 On ch=1 n=g#6 v=89
484741 On ch=1 n=c#6 v=75
484741 On ch=1 n=g#5 v=89
484741 Par ch=1 c=64 v=127
484786 Par ch=1 c=64 v=72
484791 On ch=1 n=g#5 v=0
484796 On ch=1 n=c#6 v=0
484801 Par ch=1 c=64 v=0
484821 On ch=1 n=g5 v=78
484821 On ch=1 n=f5 v=85
484836 On ch=1 n=g#6 v=0
484856 Par ch=1 c=64 v=40
484871 Par ch=1 c=64 v=88
484876 On ch=1 n=f5 v=0
484876 On ch=1 n=g5 v=0
484886 Par ch=1 c=64 v=127
484906 On ch=1 n=a#6 v=91
484906 On ch=1 n=c#6 v=80
484906 On ch=1 n=a#5 v=92
484966 On ch=1 n=a#5 v=0
484971 On ch=1 n=c#6 v=0
484986 Par ch=1 c=64 v=88
484991 On ch=1 n=a#6 v=0
484991 On ch=1 n=c#5 v=72
484991 On ch=1 n=f5 v=66
485001 Par ch=1 c=64 v=24
485021 Par ch=1 c=64 v=0
485031 Par ch=1 c=64 v=40
485046 Par ch=1 c=64 v=72
485051 On ch=1 n=f5 v=0
485061 On ch=1 n=c#5 v=0
485061 Par ch=1 c=64 v=127
485076 On ch=1 n=g#5 v=86
485076 On ch=1 n=g#6 v=90
485076 On ch=1 n=c#6 v=75
485131 On ch=1 n=g#5 v=0
485141 On ch=1 n=c#6 v=0
485146 Par ch=1 c=64 v=104
485156 On ch=1 n=g5 v=77
485156 On ch=1 n=f5 v=86
485161 Par ch=1 c=64 v=40
485171 On ch=1 n=g#6 v=0
485176 Par ch=1 c=64 v=0
485206 On ch=1 n=f5 v=0
485211 On ch=1 n=g5 v=0
485221 Par ch=1 c=64 v=72
485236 Par ch=1 c=64 v=127
485241 On ch=1 n=a#6 v=93
485241 On ch=1 n=a#5 v=88
485241 On ch=1 n=c#6 v=76
485301 On ch=1 n=c#6 v=0
485311 On ch=1 n=a#5 v=0
485321 On ch=1 n=f5 v=66
485321 On ch=1 n=c#5 v=72
485321 Par ch=1 c=64 v=72
485336 On ch=1 n=a#6 v=0
485336 Par ch=1 c=64 v=24
485381 On ch=1 n=f5 v=0
485381 Par ch=1 c=64 v=72
485391 On ch=1 n=c#5 v=0
485396 Par ch=1 c=64 v=104
485401 On ch=1 n=g#6 v=90
485401 On ch=1 n=c#6 v=73
485401 On ch=1 n=g#5 v=86
485411 Par ch=1 c=64 v=127
485456 On ch=1 n=g#5 v=0
485461 On ch=1 n=c#6 v=0
485466 Par ch=1 c=64 v=104
485481 On ch=1 n=g5 v=78
485481 On ch=1 n=f5 v=82
485481 Par ch=1 c=64 v=56
485496 Par ch=1 c=64 v=0
485501 On ch=1 n=g#6 v=0
485536 On ch=1 n=f5 v=0
485536 On ch=1 n=g5 v=0
485541 Par ch=1 c=64 v=56
485556 Par ch=1 c=64 v=104
485566 On ch=1 n=a#6 v=94
485566 On ch=1 n=a#5 v=88
485566 On ch=1 n=c#6 v=77
485571 Par ch=1 c=64 v=127
485611 Par ch=1 c=64 v=72
485626 Par ch=1 c=64 v=24
485636 On ch=1 n=c#6 v=0
485636 On ch=1 n=a#5 v=0
485641 Par ch=1 c=64 v=0
485651 On ch=1 n=c#5 v=73
485651 On ch=1 n=f5 v=66
485661 On ch=1 n=a#6 v=0
485671 Par ch=1 c=64 v=24
485686 Par ch=1 c=64 v=56
485701 Par ch=1 c=64 v=104
485711 On ch=1 n=f5 v=0
485716 Par ch=1 c=64 v=127
485726 On ch=1 n=c#5 v=0
485731 On ch=1 n=g#6 v=90
485731 On ch=1 n=g#5 v=85
485741 On ch=1 n=c#6 v=75
485761 Par ch=1 c=64 v=72
485776 Par ch=1 c=64 v=24
485786 Par ch=1 c=64 v=0
485791 On ch=1 n=g#5 v=0
485806 On ch=1 n=c#6 v=0
485811 On ch=1 n=g5 v=77
485811 On ch=1 n=f5 v=81
485816 Par ch=1 c=64 v=40
485831 On ch=1 n=g#6 v=0
485831 Par ch=1 c=64 v=72
485846 Par ch=1 c=64 v=104
485861 Par ch=1 c=64 v=127
485866 On ch=1 n=f5 v=0
485866 On ch=1 n=g5 v=0
485891 On ch=1 n=a#6 v=97
485891 On ch=1 n=c#6 v=77
485891 On ch=1 n=a#5 v=84
485931 Par ch=1 c=64 v=72
485946 Par ch=1 c=64 v=24
485961 On ch=1 n=a#5 v=0
485961 Par ch=1 c=64 v=0
485971 On ch=1 n=c#6 v=0
485971 On ch=1 n=c#5 v=72
485971 On ch=1 n=f5 v=66
485976 Par ch=1 c=64 v=24
485991 On ch=1 n=a#6 v=0
485991 Par ch=1 c=64 v=40
486006 Par ch=1 c=64 v=88
486021 Par ch=1 c=64 v=127
486031 On ch=1 n=f5 v=0
486041 On ch=1 n=c#5 v=0
486051 On ch=1 n=g#6 v=94
486051 On ch=1 n=g#5 v=85
486051 On ch=1 n=c#6 v=75
486111 On ch=1 n=g#5 v=0
486111 Par ch=1 c=64 v=88
486116 On ch=1 n=c#6 v=0
486121 Par ch=1 c=64 v=40
486131 On ch=1 n=g5 v=73
486131 On ch=1 n=f5 v=80
486141 Par ch=1 c=64 v=0
486151 On ch=1 n=g#6 v=0
486181 On ch=1 n=g5 v=0
486186 On ch=1 n=f5 v=0
486186 Par ch=1 c=64 v=72
486196 Par ch=1 c=64 v=127
486216 On ch=1 n=a#6 v=98
486216 On ch=1 n=a#5 v=85
486216 On ch=1 n=c#6 v=67
486286 On ch=1 n=c#6 v=0
486286 Par ch=1 c=64 v=104
486296 On ch=1 n=a#5 v=0
486296 On ch=1 n=c#5 v=77
486296 On ch=1 n=f5 v=66
486301 Par ch=1 c=64 v=56
486316 Par ch=1 c=64 v=0
486326 On ch=1 n=a#6 v=0
486356 On ch=1 n=f5 v=0
486361 Par ch=1 c=64 v=72
486376 On ch=1 n=g#5 v=91
486376 On ch=1 n=c#6 v=77
486376 Par ch=1 c=64 v=127
486376 On ch=1 n=g#6 v=95
486381 On ch=1 n=c#5 v=0
486396 On ch=1 n=c#6 v=0
486416 On ch=1 n=g#5 v=0
486456 On ch=1 n=g#6 v=0
486556 On ch=1 n=c#7 v=65
486556 On ch=1 n=f7 v=85
486556 On ch=1 n=a#3 v=64
486576 Par ch=1 c=64 v=72
486586 Par ch=1 c=64 v=127
486606 On ch=1 n=c#7 v=0
486626 On ch=1 n=f7 v=0
486641 On ch=1 n=d#7 v=84
486651 On ch=1 n=d#4 v=58
486666 On ch=1 n=a#3 v=0
486721 On ch=1 n=c#7 v=82
486726 On ch=1 n=d#4 v=0
486751 On ch=1 n=g4 v=54
486761 On ch=1 n=d#7 v=0
486796 On ch=1 n=c#7 v=0
486796 On ch=1 n=g6 v=80
486821 On ch=1 n=g4 v=0
486831 On ch=1 n=g6 v=0
486836 On ch=1 n=c#5 v=51
486876 On ch=1 n=c#5 v=0
486891 On ch=1 n=f6 v=79
486901 On ch=1 n=c#6 v=62
486926 On ch=1 n=c#6 v=0
486936 On ch=1 n=f6 v=0
486971 On ch=1 n=d#6 v=75
487056 On ch=1 n=d#6 v=0
487061 On ch=1 n=c#6 v=73
487116 On ch=1 n=c#6 v=0
487126 On ch=1 n=g5 v=71
487156 On ch=1 n=g5 v=0
487221 Par ch=1 c=64 v=56
487231 Par ch=1 c=64 v=0
487241 On ch=1 n=a#3 v=60
487251 On ch=1 n=f7 v=81
487251 On ch=1 n=c#7 v=61
487276 Par ch=1 c=64 v=24
487286 On ch=1 n=c#7 v=0
487286 On ch=1 n=f7 v=0
487291 Par ch=1 c=64 v=88
487301 Par ch=1 c=64 v=127
487331 On ch=1 n=d#7 v=84
487336 On ch=1 n=d#4 v=62
487366 On ch=1 n=a#3 v=0
487411 On ch=1 n=c#7 v=80
487421 On ch=1 n=d#4 v=0
487441 On ch=1 n=g4 v=60
487451 On ch=1 n=d#7 v=0
487486 On ch=1 n=c#7 v=0
487486 On ch=1 n=g6 v=81
487526 On ch=1 n=g6 v=0
487531 On ch=1 n=g4 v=0
487546 On ch=1 n=c#5 v=62
487571 On ch=1 n=c#5 v=0
487581 On ch=1 n=f6 v=82
487586 On ch=1 n=c#6 v=65
487621 On ch=1 n=f6 v=0
487626 On ch=1 n=c#6 v=0
487656 On ch=1 n=d#6 v=81
487731 On ch=1 n=c#6 v=71
487751 On ch=1 n=d#6 v=0
487796 On ch=1 n=c#6 v=0
487806 On ch=1 n=g5 v=72
487831 On ch=1 n=g5 v=0
487866 Par ch=1 c=64 v=104
487881 Par ch=1 c=64 v=40
487886 Par ch=1 c=64 v=0
487921 On ch=1 n=g#3 v=71
487926 On ch=1 n=a#7 v=89
487936 On ch=1 n=f#7 v=75
487966 On ch=1 n=f#7 v=0
487966 Par ch=1 c=64 v=88
487976 On ch=1 n=a#7 v=0
487976 Par ch=1 c=64 v=127
488011 On ch=1 n=g#3 v=0
488011 On ch=1 n=d#4 v=71
488011 On ch=1 n=g#7 v=85
488071 On ch=1 n=g#7 v=0
488086 On ch=1 n=d#4 v=0
488096 On ch=1 n=f#7 v=83
488096 On ch=1 n=f#4 v=66
488166 On ch=1 n=f#4 v=0
488171 On ch=1 n=c7 v=83
488181 On ch=1 n=f#7 v=0
488186 On ch=1 n=c5 v=65
488216 On ch=1 n=c7 v=0
488246 On ch=1 n=c5 v=0
488271 On ch=1 n=a#6 v=72
488276 On ch=1 n=f#5 v=67
488276 On ch=1 n=f#6 v=80
488321 On ch=1 n=f#6 v=0
488326 On ch=1 n=a#6 v=0
488336 On ch=1 n=f#5 v=0
488361 On ch=1 n=g#6 v=80
488446 On ch=1 n=f#6 v=69
488451 On ch=1 n=g#6 v=0
488506 On ch=1 n=f#6 v=0
488526 On ch=1 n=c6 v=77
488561 Par ch=1 c=64 v=104
488571 Par ch=1 c=64 v=56
488581 On ch=1 n=c6 v=0
488581 Par ch=1 c=64 v=0
488611 On ch=1 n=g#3 v=66
488636 On ch=1 n=a#7 v=84
488636 On ch=1 n=f#7 v=63
488646 Par ch=1 c=64 v=88
488661 On ch=1 n=f#7 v=0
488661 Par ch=1 c=64 v=127
488666 On ch=1 n=a#7 v=0
488696 On ch=1 n=g#3 v=0
488696 On ch=1 n=d#4 v=64
488711 On ch=1 n=g#7 v=87
488766 On ch=1 n=d#4 v=0
488776 On ch=1 n=f#4 v=63
488786 On ch=1 n=f#7 v=81
488811 On ch=1 n=g#7 v=0
488851 On ch=1 n=f#4 v=0
488866 On ch=1 n=c7 v=76
488871 On ch=1 n=f#7 v=0
488881 On ch=1 n=c5 v=65
488906 On ch=1 n=c7 v=0
488941 On ch=1 n=c5 v=0
488956 On ch=1 n=a#6 v=79
488961 On ch=1 n=f#5 v=71
488961 On ch=1 n=f#6 v=85
489006 On ch=1 n=f#6 v=0
489016 On ch=1 n=a#6 v=0
489031 On ch=1 n=f#5 v=0
489041 On ch=1 n=g#6 v=77
489121 On ch=1 n=g#6 v=0
489121 On ch=1 n=f#6 v=75
489181 On ch=1 n=f#6 v=0
489191 Par ch=1 c=64 v=104
489206 On ch=1 n=c6 v=81
489206 Par ch=1 c=64 v=56
489216 Par ch=1 c=64 v=0
489241 On ch=1 n=c#4 v=62
489276 On ch=1 n=c6 v=0
489286 On ch=1 n=c#4 v=0
489291 On ch=1 n=c#6 v=90
489316 Par ch=1 c=64 v=88
489326 On ch=1 n=f5 v=61
489326 Par ch=1 c=64 v=127
489336 On ch=1 n=c#6 v=0
489376 On ch=1 n=f5 v=0
489476 On ch=1 n=c#7 v=73
489476 On ch=1 n=g#7 v=84
489476 On ch=1 n=g#6 v=67
489486 On ch=1 n=f#7 v=57
489496 Par ch=1 c=64 v=24
489506 Par ch=1 c=64 v=0
489521 On ch=1 n=g#6 v=0
489531 On ch=1 n=f#7 v=0
489546 On ch=1 n=c#7 v=0
489556 On ch=1 n=g#7 v=0
489561 Par ch=1 c=64 v=104
489566 On ch=1 n=f6 v=64
489571 On ch=1 n=g6 v=54
489571 Par ch=1 c=64 v=127
489596 On ch=1 n=g6 v=0
489601 On ch=1 n=f6 v=0
489646 On ch=1 n=a#7 v=92
489651 On ch=1 n=a#6 v=85
489701 On ch=1 n=a#6 v=0
489736 On ch=1 n=a#7 v=0
489736 On ch=1 n=f6 v=79
489741 On ch=1 n=c#6 v=48
489776 On ch=1 n=c#6 v=0
489781 On ch=1 n=f6 v=0
489821 On ch=1 n=g#6 v=81
489821 On ch=1 n=g#7 v=88
489826 On ch=1 n=c#7 v=72
489871 On ch=1 n=g#6 v=0
489876 On ch=1 n=c#7 v=0
489911 On ch=1 n=g#7 v=0
489911 On ch=1 n=f6 v=79
489921 On ch=1 n=g6 v=56
489946 On ch=1 n=g6 v=0
489961 On ch=1 n=f6 v=0
489991 On ch=1 n=a#7 v=87
489991 On ch=1 n=a#6 v=82
490001 On ch=1 n=c#7 v=69
490021 On ch=1 n=c#7 v=0
490056 On ch=1 n=a#6 v=0
490076 On ch=1 n=a#7 v=0
490081 On ch=1 n=c#6 v=61
490086 On ch=1 n=f6 v=72
490106 On ch=1 n=f6 v=0
490131 On ch=1 n=c#6 v=0
490156 On ch=1 n=g#7 v=90
490161 On ch=1 n=g#6 v=86
490166 On ch=1 n=c#7 v=73
490206 On ch=1 n=g#6 v=0
490216 On ch=1 n=c#7 v=0
490236 On ch=1 n=f6 v=80
490241 On ch=1 n=g6 v=62
490246 On ch=1 n=g#7 v=0
490271 On ch=1 n=g6 v=0
490286 On ch=1 n=f6 v=0
490321 On ch=1 n=a#7 v=85
490326 On ch=1 n=a#6 v=80
490331 On ch=1 n=c#7 v=71
490386 On ch=1 n=c#7 v=0
490391 On ch=1 n=a#6 v=0
490406 On ch=1 n=a#7 v=0
490406 On ch=1 n=f6 v=79
490406 On ch=1 n=c#6 v=58
490451 On ch=1 n=c#6 v=0
490451 On ch=1 n=f6 v=0
490486 On ch=1 n=g#7 v=89
490486 On ch=1 n=g#6 v=87
490491 On ch=1 n=c#7 v=74
490521 Par ch=1 c=64 v=104
490541 On ch=1 n=g#6 v=0
490551 Par ch=1 c=64 v=127
490556 On ch=1 n=c#7 v=0
490576 On ch=1 n=g#7 v=0
490576 On ch=1 n=f6 v=81
490576 On ch=1 n=g6 v=64
490611 On ch=1 n=g6 v=0
490621 On ch=1 n=f6 v=0
490646 On ch=1 n=a#7 v=87
490651 On ch=1 n=a#6 v=83
490656 On ch=1 n=c#7 v=74
490711 On ch=1 n=c#7 v=0
490716 On ch=1 n=a#6 v=0
490726 On ch=1 n=f6 v=85
490731 On ch=1 n=a#7 v=0
490731 On ch=1 n=c#6 v=61
490771 On ch=1 n=f6 v=0
490781 On ch=1 n=c#6 v=0
490806 On ch=1 n=g#6 v=88
490806 On ch=1 n=g#7 v=91
490806 On ch=1 n=c#7 v=78
490856 On ch=1 n=g#6 v=0
490866 On ch=1 n=c#7 v=0
490891 On ch=1 n=g#7 v=0
490896 On ch=1 n=f6 v=80
490896 On ch=1 n=g6 v=66
490941 On ch=1 n=g6 v=0
490941 On ch=1 n=f6 v=0
490971 On ch=1 n=a#7 v=89
490971 On ch=1 n=a#6 v=88
490976 On ch=1 n=c#7 v=81
491036 On ch=1 n=c#7 v=0
491041 On ch=1 n=a#6 v=0
491051 On ch=1 n=a#7 v=0
491061 On ch=1 n=f6 v=86
491061 On ch=1 n=c#6 v=60
491106 On ch=1 n=c#6 v=0
491106 On ch=1 n=f6 v=0
491146 On ch=1 n=g#6 v=93
491146 On ch=1 n=g#7 v=96
491146 On ch=1 n=c#7 v=83
491196 On ch=1 n=g#6 v=0
491216 On ch=1 n=c#7 v=0
491236 On ch=1 n=g#7 v=0
491236 On ch=1 n=f6 v=83
491236 On ch=1 n=g6 v=68
491276 On ch=1 n=f6 v=0
491281 On ch=1 n=g6 v=0
491306 On ch=1 n=a#7 v=90
491311 On ch=1 n=a#6 v=89
491316 On ch=1 n=c#7 v=77
491381 On ch=1 n=c#7 v=0
491381 On ch=1 n=a#6 v=0
491391 On ch=1 n=a#7 v=0
491401 On ch=1 n=c#6 v=65
491421 On ch=1 n=f6 v=52
491446 On ch=1 n=f6 v=0
491456 On ch=1 n=c#6 v=0
491466 On ch=1 n=g#6 v=90
491466 On ch=1 n=g#7 v=95
491471 On ch=1 n=c#7 v=81
491526 On ch=1 n=g#6 v=0
491541 On ch=1 n=c#7 v=0
491556 On ch=1 n=f6 v=86
491556 On ch=1 n=g6 v=71
491561 On ch=1 n=g#7 v=0
491601 On ch=1 n=g6 v=0
491601 On ch=1 n=f6 v=0
491621 On ch=1 n=a#7 v=93
491626 On ch=1 n=a#6 v=92
491636 On ch=1 n=c#7 v=76
491656 On ch=1 n=c#7 v=0
491711 On ch=1 n=a#6 v=0
491716 On ch=1 n=a#7 v=0
491721 On ch=1 n=f6 v=87
491726 On ch=1 n=g6 v=81
491726 On ch=1 n=c#6 v=64
491741 On ch=1 n=f6 v=0
491746 On ch=1 n=g6 v=0
491756 On ch=1 n=c#6 v=0
491796 On ch=1 n=g#6 v=91
491796 On ch=1 n=g#7 v=96
491801 On ch=1 n=c#7 v=79
491816 On ch=1 n=c#7 v=0
491821 On ch=1 n=g#6 v=0
491846 On ch=1 n=g#7 v=0
491991 Par ch=1 c=64 v=56
492001 Par ch=1 c=64 v=0
492006 On ch=1 n=f8 v=93
492011 On ch=1 n=c#8 v=86
492021 On ch=1 n=a#3 v=67
492066 On ch=1 n=c#8 v=0
492066 Par ch=1 c=64 v=104
492076 On ch=1 n=f8 v=0
492076 Par ch=1 c=64 v=127
492101 On ch=1 n=a#3 v=0
492106 On ch=1 n=d#4 v=61
492106 On ch=1 n=d#8 v=86
492176 On ch=1 n=c#8 v=84
492191 On ch=1 n=d#4 v=0
492221 On ch=1 n=d#8 v=0
492221 On ch=1 n=g4 v=63
492251 On ch=1 n=g7 v=82
492261 On ch=1 n=c#8 v=0
492296 On ch=1 n=g7 v=0
492306 On ch=1 n=g4 v=0
492331 On ch=1 n=c#5 v=65
492341 On ch=1 n=f7 v=85
492341 On ch=1 n=c#7 v=82
492381 On ch=1 n=f7 v=0
492391 On ch=1 n=c#7 v=0
492391 On ch=1 n=c#5 v=0
492421 On ch=1 n=d#7 v=82
492506 On ch=1 n=d#7 v=0
492506 On ch=1 n=c#7 v=80
492571 On ch=1 n=g6 v=77
492586 On ch=1 n=c#7 v=0
492626 On ch=1 n=g6 v=0
492671 Par ch=1 c=64 v=88
492676 On ch=1 n=a#3 v=69
492676 On ch=1 n=f7 v=87
492681 On ch=1 n=c#7 v=78
492681 Par ch=1 c=64 v=0
492726 Par ch=1 c=64 v=40
492731 On ch=1 n=f7 v=0
492731 On ch=1 n=a#3 v=0
492736 On ch=1 n=c#7 v=0
492736 Par ch=1 c=64 v=104
492746 Par ch=1 c=64 v=127
492766 On ch=1 n=d#7 v=83
492771 On ch=1 n=d#4 v=65
492836 On ch=1 n=c#7 v=79
492856 On ch=1 n=d#4 v=0
492871 On ch=1 n=g4 v=66
492881 On ch=1 n=d#7 v=0
492911 On ch=1 n=g6 v=76
492916 On ch=1 n=c#7 v=0
492946 On ch=1 n=g6 v=0
492956 On ch=1 n=g4 v=0
493001 On ch=1 n=f6 v=84
493001 On ch=1 n=c#6 v=77
493001 On ch=1 n=c#5 v=73
493041 On ch=1 n=c#6 v=0
493041 On ch=1 n=f6 v=0
493086 On ch=1 n=c#5 v=0
493091 On ch=1 n=d#6 v=82
493161 On ch=1 n=d#6 v=0
493161 On ch=1 n=c#6 v=80
493226 On ch=1 n=c#6 v=0
493231 On ch=1 n=g5 v=76
493291 On ch=1 n=g5 v=0
493291 Par ch=1 c=64 v=88
493306 Par ch=1 c=64 v=0
493341 On ch=1 n=g#3 v=70
493346 On ch=1 n=a#7 v=85
493361 On ch=1 n=f#7 v=56
493361 Par ch=1 c=64 v=40
493371 Par ch=1 c=64 v=127
493376 On ch=1 n=f#7 v=0
493391 On ch=1 n=a#7 v=0
493401 On ch=1 n=g#3 v=0
493431 On ch=1 n=d#4 v=65
493431 On ch=1 n=g#7 v=91
493491 On ch=1 n=d#4 v=0
493506 On ch=1 n=f#4 v=54
493511 On ch=1 n=f#7 v=77
493531 On ch=1 n=g#7 v=0
493581 On ch=1 n=f#4 v=0
493586 On ch=1 n=f#7 v=0
493586 On ch=1 n=c7 v=78
493601 On ch=1 n=c5 v=50
493626 On ch=1 n=c7 v=0
493671 On ch=1 n=c5 v=0
493671 On ch=1 n=a#6 v=75
493676 On ch=1 n=f#6 v=77
493686 On ch=1 n=f#5 v=76
493716 On ch=1 n=f#6 v=0
493726 On ch=1 n=a#6 v=0
493741 On ch=1 n=f#5 v=0
493766 On ch=1 n=g#6 v=78
493836 On ch=1 n=g#6 v=0
493846 On ch=1 n=f#6 v=68
493906 On ch=1 n=f#6 v=0
493911 On ch=1 n=c6 v=74
493956 On ch=1 n=c6 v=0
493986 Par ch=1 c=64 v=72
493996 Par ch=1 c=64 v=0
494001 On ch=1 n=a#6 v=82
494006 On ch=1 n=f#6 v=75
494006 On ch=1 n=g#3 v=71
494046 Par ch=1 c=64 v=56
494051 On ch=1 n=f#6 v=0
494061 On ch=1 n=g#3 v=0
494061 On ch=1 n=a#6 v=0
494061 Par ch=1 c=64 v=127
494091 On ch=1 n=d#4 v=66
494101 On ch=1 n=g#6 v=83
494161 On ch=1 n=d#4 v=0
494171 On ch=1 n=f#6 v=74
494176 On ch=1 n=g#6 v=0
494206 On ch=1 n=f#4 v=66
494236 On ch=1 n=f#6 v=0
494246 On ch=1 n=c6 v=74
494276 On ch=1 n=c6 v=0
494281 On ch=1 n=f#4 v=0
494326 On ch=1 n=c5 v=67
494331 On ch=1 n=a#5 v=75
494351 On ch=1 n=f#5 v=64
494366 On ch=1 n=f#5 v=0
494386 On ch=1 n=a#5 v=0
494396 On ch=1 n=c5 v=0
494426 On ch=1 n=g#5 v=77
494491 On ch=1 n=g#5 v=0
494501 On ch=1 n=f#5 v=68
494566 On ch=1 n=f#5 v=0
494586 On ch=1 n=c5 v=68
494626 On ch=1 n=c5 v=0
494671 Par ch=1 c=64 v=56
494700 On ch=1 n=c#5 v=99
494700 On ch=1 n=c#4 v=79
494780 On ch=1 n=c#4 v=0
494780 On ch=1 n=c#5 v=0
494895 On ch=1 n=g#5 v=81
494895 On ch=1 n=c5 v=93
494900 On ch=1 n=c#6 v=89
494900 On ch=1 n=f5 v=83
494900 On ch=1 n=c4 v=88
494955 On ch=1 n=c4 v=0
494955 On ch=1 n=f5 v=0
494960 On ch=1 n=g#5 v=0
494965 On ch=1 n=c5 v=0
494985 On ch=1 n=c#6 v=0
495075 On ch=1 n=b4 v=89
495085 On ch=1 n=b3 v=85
495145 On ch=1 n=b3 v=0
495145 On ch=1 n=b4 v=0
495245 On ch=1 n=c#7 v=90
495250 On ch=1 n=c#6 v=95
495255 On ch=1 n=a#4 v=83
495255 On ch=1 n=g#6 v=80
495255 On ch=1 n=a#3 v=86
495265 On ch=1 n=f6 v=79
495295 On ch=1 n=f6 v=0
495310 On ch=1 n=g#6 v=0
495310 On ch=1 n=a#4 v=0
495315 On ch=1 n=a#3 v=0
495315 On ch=1 n=c#7 v=0
495325 On ch=1 n=c#6 v=0
495430 On ch=1 n=a4 v=86
495435 On ch=1 n=a3 v=90
495490 On ch=1 n=a4 v=0
495495 On ch=1 n=a3 v=0
495595 On ch=1 n=e6 v=96
495595 On ch=1 n=e5 v=87
495595 On ch=1 n=a5 v=83
495600 On ch=1 n=c#6 v=71
495600 On ch=1 n=g#4 v=87
495610 On ch=1 n=g#3 v=83
495640 On ch=1 n=e5 v=0
495655 On ch=1 n=a5 v=0
495660 On ch=1 n=g#3 v=0
495660 On ch=1 n=g#4 v=0
495685 On ch=1 n=c#6 v=0
495695 On ch=1 n=e6 v=0
495785 On ch=1 n=g4 v=89
495790 On ch=1 n=g3 v=89
495820 On ch=1 n=g3 v=0
495840 On ch=1 n=g4 v=0
495955 On ch=1 n=e7 v=97
495955 On ch=1 n=f#4 v=88
495955 On ch=1 n=c#7 v=83
495960 On ch=1 n=e6 v=87
495965 On ch=1 n=f#3 v=84
495965 On ch=1 n=a6 v=78
496015 On ch=1 n=f#3 v=0
496015 On ch=1 n=f#4 v=0
496030 On ch=1 n=a6 v=0
496030 On ch=1 n=e6 v=0
496030 On ch=1 n=e7 v=0
496045 On ch=1 n=c#7 v=0
496130 On ch=1 n=f4 v=96
496135 On ch=1 n=f3 v=90
496185 On ch=1 n=f4 v=0
496195 On ch=1 n=f3 v=0
496300 On ch=1 n=f5 v=88
496305 On ch=1 n=f6 v=93
496310 On ch=1 n=c6 v=84
496310 On ch=1 n=a5 v=81
496310 On ch=1 n=e4 v=92
496315 On ch=1 n=e3 v=80
496355 On ch=1 n=f5 v=0
496365 On ch=1 n=e4 v=0
496365 On ch=1 n=a5 v=0
496380 On ch=1 n=e3 v=0
496390 On ch=1 n=c6 v=0
496410 On ch=1 n=f6 v=0
496485 On ch=1 n=d#4 v=110
496485 On ch=1 n=d#3 v=93
496520 Par ch=1 c=64 v=24
496530 On ch=1 n=d#3 v=0
496535 On ch=1 n=d#4 v=0
496540 Par ch=1 c=64 v=88
496555 Par ch=1 c=64 v=127
496650 On ch=1 n=f7 v=99
496650 On ch=1 n=c7 v=88
496650 Par ch=1 c=64 v=88
496655 On ch=1 n=f6 v=87
496660 On ch=1 n=a6 v=77
496665 Par ch=1 c=64 v=56
496680 Par ch=1 c=64 v=40
496695 Par ch=1 c=64 v=0
496710 On ch=1 n=f7 v=0
496725 On ch=1 n=a6 v=0
496725 On ch=1 n=c7 v=0
496740 On ch=1 n=f6 v=0
496830 On ch=1 n=d4 v=96
496845 On ch=1 n=d3 v=84
496900 On ch=1 n=d3 v=0
496900 On ch=1 n=d4 v=0
496995 On ch=1 n=f#5 v=87
496995 On ch=1 n=f#6 v=86
496995 On ch=1 n=a5 v=82
497000 On ch=1 n=d6 v=80
497010 On ch=1 n=c#4 v=90
497015 On ch=1 n=c#3 v=80
497025 On ch=1 n=a5 v=0
497040 On ch=1 n=f#5 v=0
497065 On ch=1 n=c#4 v=0
497070 On ch=1 n=d6 v=0
497080 On ch=1 n=c#3 v=0
497085 On ch=1 n=f#6 v=0
497185 On ch=1 n=c4 v=107
497185 On ch=1 n=c3 v=84
497235 On ch=1 n=c3 v=0
497240 Par ch=1 c=64 v=56
497245 On ch=1 n=c4 v=0
497255 Par ch=1 c=64 v=104
497270 Par ch=1 c=64 v=127
497350 On ch=1 n=f#7 v=88
497360 On ch=1 n=d7 v=83
497360 On ch=1 n=f#6 v=87
497365 On ch=1 n=a6 v=78
497385 Par ch=1 c=64 v=104
497400 On ch=1 n=a6 v=0
497400 Par ch=1 c=64 v=88
497410 On ch=1 n=f#6 v=0
497410 On ch=1 n=f#7 v=0
497415 Par ch=1 c=64 v=56
497430 On ch=1 n=d7 v=0
497435 Par ch=1 c=64 v=40
497445 Par ch=1 c=64 v=0
497530 On ch=1 n=c#5 v=102
497530 On ch=1 n=c#4 v=86
497605 On ch=1 n=c#4 v=0
497625 On ch=1 n=c#5 v=0
497695 On ch=1 n=f5 v=93
497695 On ch=1 n=c#6 v=80
497695 On ch=1 n=g#5 v=80
497700 On ch=1 n=f6 v=96
497705 On ch=1 n=c5 v=90
497715 On ch=1 n=c4 v=89
497745 On ch=1 n=f5 v=0
497755 On ch=1 n=g#5 v=0
497760 On ch=1 n=c4 v=0
497760 On ch=1 n=c5 v=0
497780 On ch=1 n=c#6 v=0
497790 On ch=1 n=f6 v=0
497875 On ch=1 n=b4 v=89
497885 On ch=1 n=b3 v=85
497930 On ch=1 n=b3 v=0
497935 On ch=1 n=b4 v=0
498045 On ch=1 n=f7 v=102
498045 On ch=1 n=f6 v=99
498050 On ch=1 n=c#7 v=83
498050 On ch=1 n=g#6 v=83
498050 On ch=1 n=a#4 v=85
498060 On ch=1 n=a#3 v=85
498105 On ch=1 n=a#4 v=0
498115 On ch=1 n=a#3 v=0
498115 On ch=1 n=g#6 v=0
498115 On ch=1 n=f7 v=0
498125 On ch=1 n=f6 v=0
498130 On ch=1 n=c#7 v=0
498220 On ch=1 n=a4 v=90
498230 On ch=1 n=a3 v=85
498260 On ch=1 n=a3 v=0
498275 On ch=1 n=a4 v=0
498385 On ch=1 n=a6 v=92
498385 On ch=1 n=a5 v=86
498385 On ch=1 n=c#6 v=76
498385 On ch=1 n=e6 v=84
498395 On ch=1 n=g#4 v=91
498400 On ch=1 n=g#3 v=84
498420 Par ch=1 c=64 v=24
498430 On ch=1 n=a5 v=0
498440 On ch=1 n=c#6 v=0
498445 On ch=1 n=g#4 v=0
498455 On ch=1 n=g#3 v=0
498455 On ch=1 n=e6 v=0
498480 On ch=1 n=a6 v=0
498490 Par ch=1 c=64 v=0
498560 On ch=1 n=g4 v=94
498570 On ch=1 n=g3 v=84
498610 On ch=1 n=g3 v=0
498610 On ch=1 n=g4 v=0
498715 On ch=1 n=a7 v=100
498715 On ch=1 n=e7 v=87
498715 On ch=1 n=c#7 v=75
498725 On ch=1 n=a6 v=81
498730 On ch=1 n=f#4 v=93
498730 On ch=1 n=f#3 v=81
498780 On ch=1 n=a7 v=0
498785 On ch=1 n=f#3 v=0
498785 On ch=1 n=f#4 v=0
498795 On ch=1 n=c#7 v=0
498795 On ch=1 n=e7 v=0
498815 On ch=1 n=a6 v=0
498890 On ch=1 n=f4 v=97
498895 On ch=1 n=f3 v=85
498950 On ch=1 n=f4 v=0
498955 On ch=1 n=f3 v=0
499050 On ch=1 n=a6 v=92
499050 On ch=1 n=a5 v=90
499050 On ch=1 n=c6 v=80
499050 On ch=1 n=f6 v=83
499060 On ch=1 n=e4 v=100
499075 On ch=1 n=e3 v=76
499095 On ch=1 n=c6 v=0
499095 On ch=1 n=a5 v=0
499125 On ch=1 n=e3 v=0
499125 On ch=1 n=f6 v=0
499130 On ch=1 n=e4 v=0
499155 On ch=1 n=a6 v=0
499225 On ch=1 n=d#4 v=101
499230 On ch=1 n=d#3 v=91
499255 Par ch=1 c=64 v=56
499270 On ch=1 n=d#3 v=0
499270 Par ch=1 c=64 v=104
499275 On ch=1 n=d#4 v=0
499285 Par ch=1 c=64 v=127
499380 On ch=1 n=a7 v=100
499390 On ch=1 n=f7 v=85
499390 On ch=1 n=a6 v=85
499395 On ch=1 n=c7 v=70
499440 On ch=1 n=a7 v=0
499445 On ch=1 n=f7 v=0
499455 On ch=1 n=c7 v=0
499460 Par ch=1 c=64 v=72
499465 On ch=1 n=a6 v=0
499475 Par ch=1 c=64 v=24
499495 Par ch=1 c=64 v=0
499560 On ch=1 n=d4 v=100
499570 On ch=1 n=d3 v=86
499625 On ch=1 n=d4 v=0
499635 On ch=1 n=d3 v=0
499720 On ch=1 n=a5 v=85
499720 On ch=1 n=f#6 v=78
499720 On ch=1 n=a6 v=88
499730 On ch=1 n=d6 v=75
499735 On ch=1 n=c#4 v=97
499735 On ch=1 n=c#3 v=81
499755 On ch=1 n=d6 v=0
499770 On ch=1 n=a5 v=0
499785 On ch=1 n=c#4 v=0
499805 On ch=1 n=c#3 v=0
499805 On ch=1 n=f#6 v=0
499815 On ch=1 n=a6 v=0
499895 On ch=1 n=c4 v=105
499905 On ch=1 n=c3 v=93
499935 On ch=1 n=c3 v=0
499945 Par ch=1 c=64 v=56
499950 On ch=1 n=c4 v=0
499960 Par ch=1 c=64 v=88
499975 Par ch=1 c=64 v=127
500055 On ch=1 n=a7 v=100
500055 On ch=1 n=f#7 v=81
500060 On ch=1 n=a6 v=83
500065 On ch=1 n=d7 v=75
500085 Par ch=1 c=64 v=88
500095 On ch=1 n=d7 v=0
500100 Par ch=1 c=64 v=72
500115 On ch=1 n=a6 v=0
500115 On ch=1 n=a7 v=0
500120 Par ch=1 c=64 v=56
500125 On ch=1 n=f#7 v=0
500135 Par ch=1 c=64 v=24
500150 Par ch=1 c=64 v=0
500240 On ch=1 n=c#5 v=105
500245 On ch=1 n=c#4 v=83
500300 On ch=1 n=c#4 v=0
500305 On ch=1 n=c#5 v=0
500400 On ch=1 n=c#7 v=89
500400 On ch=1 n=c#6 v=92
500400 On ch=1 n=g#6 v=85
500405 Par ch=1 c=64 v=56
500410 On ch=1 n=c5 v=100
500410 On ch=1 n=f6 v=74
500410 On ch=1 n=c4 v=96
500420 Par ch=1 c=64 v=88
500435 Par ch=1 c=64 v=127
500440 On ch=1 n=f6 v=0
500445 On ch=1 n=c#6 v=0
500465 On ch=1 n=c4 v=0
500465 On ch=1 n=c5 v=0
500480 On ch=1 n=g#6 v=0
500485 Par ch=1 c=64 v=88
500490 On ch=1 n=c#7 v=0
500500 Par ch=1 c=64 v=56
500515 Par ch=1 c=64 v=40
500530 Par ch=1 c=64 v=0
500575 On ch=1 n=b4 v=97
500585 On ch=1 n=b3 v=84
500625 On ch=1 n=b3 v=0
500635 On ch=1 n=b4 v=0
500730 On ch=1 n=c#8 v=97
500740 On ch=1 n=c#7 v=86
500740 On ch=1 n=g#7 v=88
500745 On ch=1 n=f7 v=80
500745 On ch=1 n=a#4 v=90
500750 On ch=1 n=a#3 v=86
500755 Par ch=1 c=64 v=56
500775 On ch=1 n=f7 v=0
500775 Par ch=1 c=64 v=127
500790 On ch=1 n=c#8 v=0
500800 On ch=1 n=a#4 v=0
500810 On ch=1 n=a#3 v=0
500810 On ch=1 n=g#7 v=0
500815 On ch=1 n=c#7 v=0
500870 Par ch=1 c=64 v=104
500885 Par ch=1 c=64 v=88
500900 Par ch=1 c=64 v=56
500905 On ch=1 n=a4 v=97
500910 On ch=1 n=a3 v=94
500920 Par ch=1 c=64 v=40
500935 Par ch=1 c=64 v=0
500960 On ch=1 n=a3 v=0
500960 On ch=1 n=a4 v=0
501065 On ch=1 n=e7 v=100
501065 On ch=1 n=e6 v=92
501065 On ch=1 n=c#7 v=81
501065 On ch=1 n=a6 v=85
501075 On ch=1 n=g#4 v=90
501075 Par ch=1 c=64 v=24
501080 On ch=1 n=g#3 v=87
501090 Par ch=1 c=64 v=72
501110 Par ch=1 c=64 v=88
501115 On ch=1 n=e6 v=0
501120 On ch=1 n=a6 v=0
501130 On ch=1 n=g#4 v=0
501135 On ch=1 n=g#3 v=0
501150 On ch=1 n=c#7 v=0
501160 On ch=1 n=e7 v=0
501235 On ch=1 n=g4 v=102
501235 Par ch=1 c=64 v=72
501240 On ch=1 n=g3 v=90
501250 Par ch=1 c=64 v=56
501265 On ch=1 n=g#3 v=39
501265 Par ch=1 c=64 v=40
501285 Par ch=1 c=64 v=0
501290 On ch=1 n=g#3 v=0
501295 On ch=1 n=g3 v=0
501295 On ch=1 n=g4 v=0
501390 On ch=1 n=e8 v=96
501395 On ch=1 n=c#8 v=84
501395 Par ch=1 c=64 v=40
501400 On ch=1 n=a7 v=81
501400 On ch=1 n=f#4 v=92
501405 On ch=1 n=f#3 v=85
501405 On ch=1 n=e7 v=78
501415 Par ch=1 c=64 v=88
501430 Par ch=1 c=64 v=127
501455 On ch=1 n=f#3 v=0
501455 On ch=1 n=f#4 v=0
501455 On ch=1 n=e8 v=0
501465 On ch=1 n=a7 v=0
501475 On ch=1 n=c#8 v=0
501495 On ch=1 n=e7 v=0
501525 Par ch=1 c=64 v=104
501560 On ch=1 n=f4 v=99
501570 On ch=1 n=f3 v=90
501570 Par ch=1 c=64 v=127
501620 On ch=1 n=f3 v=0
501625 On ch=1 n=f4 v=0
501635 Par ch=1 c=64 v=40
501650 Par ch=1 c=64 v=0
501715 On ch=1 n=f6 v=89
501715 On ch=1 n=f7 v=97
501720 On ch=1 n=c7 v=81
501725 On ch=1 n=a6 v=74
501730 On ch=1 n=e4 v=99
501730 On ch=1 n=e3 v=84
501750 Par ch=1 c=64 v=24
501765 Par ch=1 c=64 v=72
501770 On ch=1 n=a6 v=0
501770 On ch=1 n=f6 v=0
501780 Par ch=1 c=64 v=127
501785 On ch=1 n=e3 v=0
501795 On ch=1 n=e4 v=0
501800 On ch=1 n=c7 v=0
501820 On ch=1 n=f7 v=0
501830 Par ch=1 c=64 v=0
501895 On ch=1 n=d#4 v=107
501895 On ch=1 n=d#3 v=95
501905 Par ch=1 c=64 v=40
501925 Par ch=1 c=64 v=104
501940 On ch=1 n=d#4 v=0
501940 Par ch=1 c=64 v=127
501950 On ch=1 n=d#3 v=0
502060 On ch=1 n=f8 v=97
502065 On ch=1 n=c8 v=92
502070 On ch=1 n=f7 v=85
502070 On ch=1 n=a7 v=76
502105 On ch=1 n=a7 v=0
502110 On ch=1 n=f8 v=0
502130 On ch=1 n=c8 v=0
502150 On ch=1 n=f7 v=0
502160 Par ch=1 c=64 v=104
502180 Par ch=1 c=64 v=24
502195 Par ch=1 c=64 v=0
502235 On ch=1 n=d4 v=100
502245 On ch=1 n=d3 v=92
502275 Par ch=1 c=64 v=56
502290 Par ch=1 c=64 v=127
502305 On ch=1 n=d3 v=0
502305 On ch=1 n=d4 v=0
502340 Par ch=1 c=64 v=0
502395 On ch=1 n=f#7 v=92
502400 On ch=1 n=f#6 v=92
502405 On ch=1 n=a6 v=81
502405 On ch=1 n=d7 v=83
502410 On ch=1 n=c#4 v=108
502415 On ch=1 n=c#3 v=81
502420 Par ch=1 c=64 v=40
502430 On ch=1 n=a6 v=0
502435 Par ch=1 c=64 v=104
502440 On ch=1 n=f#6 v=0
502450 Par ch=1 c=64 v=127
502465 On ch=1 n=c#4 v=0
502470 On ch=1 n=c#3 v=0
502470 On ch=1 n=d7 v=0
502485 On ch=1 n=f#7 v=0
502530 Par ch=1 c=64 v=56
502545 Par ch=1 c=64 v=0
502585 On ch=1 n=c4 v=116
502590 On ch=1 n=c3 v=99
502610 Par ch=1 c=64 v=88
502625 Par ch=1 c=64 v=127
502635 On ch=1 n=c3 v=0
502640 On ch=1 n=c4 v=0
502740 On ch=1 n=f#8 v=95
502750 On ch=1 n=d8 v=84
502755 On ch=1 n=f#7 v=81
502760 On ch=1 n=a7 v=73
502790 On ch=1 n=a7 v=0
502805 On ch=1 n=f#8 v=0
502815 On ch=1 n=d8 v=0
502835 On ch=1 n=f#7 v=0
502915 Par ch=1 c=64 v=56
502930 On ch=1 n=b3 v=110
502930 Par ch=1 c=64 v=0
502940 On ch=1 n=b2 v=99
502985 On ch=1 n=b2 v=0
503000 On ch=1 n=b3 v=0
503010 Par ch=1 c=64 v=127
503100 On ch=1 n=f#6 v=87
503110 On ch=1 n=f#7 v=91
503110 On ch=1 n=d#7 v=81
503115 On ch=1 n=a#3 v=103
503115 On ch=1 n=b6 v=82
503125 On ch=1 n=a#2 v=87
503145 On ch=1 n=b6 v=0
503155 On ch=1 n=f#6 v=0
503170 On ch=1 n=a#3 v=0
503185 On ch=1 n=a#2 v=0
503200 On ch=1 n=d#7 v=0
503200 On ch=1 n=f#7 v=0
503300 On ch=1 n=a3 v=114
503300 Par ch=1 c=64 v=24
503305 On ch=1 n=a2 v=85
503315 Par ch=1 c=64 v=0
503345 Par ch=1 c=64 v=24
503355 On ch=1 n=a3 v=0
503360 On ch=1 n=a2 v=0
503360 Par ch=1 c=64 v=104
503375 Par ch=1 c=64 v=127
503475 On ch=1 n=f#8 v=102
503485 On ch=1 n=f#7 v=90
503485 On ch=1 n=d#8 v=86
503490 On ch=1 n=g#3 v=105
503490 On ch=1 n=b7 v=86
503495 On ch=1 n=g#2 v=87
503520 On ch=1 n=b7 v=0
503555 On ch=1 n=f#8 v=0
503560 On ch=1 n=g#3 v=0
503565 On ch=1 n=g#2 v=0
503565 On ch=1 n=d#8 v=0
503585 On ch=1 n=f#7 v=0
503665 Par ch=1 c=64 v=72
503680 On ch=1 n=g3 v=105
503680 Par ch=1 c=64 v=0
503690 On ch=1 n=g2 v=82
503730 Par ch=1 c=64 v=88
503745 Par ch=1 c=64 v=127
503755 On ch=1 n=g3 v=0
503760 On ch=1 n=g2 v=0
503860 Par ch=1 c=64 v=72
503870 On ch=1 n=g7 v=102
503870 On ch=1 n=g6 v=92
503875 On ch=1 n=d7 v=89
503875 Par ch=1 c=64 v=0
503880 On ch=1 n=b6 v=88
503880 On ch=1 n=f#3 v=100
503890 On ch=1 n=f#2 v=76
503905 Par ch=1 c=64 v=24
503915 On ch=1 n=b6 v=0
503915 On ch=1 n=g6 v=0
503915 On ch=1 n=a#2 v=34
503920 Par ch=1 c=64 v=104
503940 Par ch=1 c=64 v=127
503945 On ch=1 n=a#2 v=0
503950 On ch=1 n=d7 v=0
503975 On ch=1 n=f#2 v=0
503975 On ch=1 n=f#3 v=0
503975 On ch=1 n=g7 v=0
504080 On ch=1 n=f2 v=86
504080 On ch=1 n=f3 v=107
504145 On ch=1 n=f2 v=0
504155 On ch=1 n=f3 v=0
504275 On ch=1 n=g8 v=103
504285 On ch=1 n=g7 v=86
504290 On ch=1 n=d8 v=86
504295 On ch=1 n=b7 v=82
504300 On ch=1 n=d#8 v=69
504330 On ch=1 n=d#8 v=0
504335 On ch=1 n=g8 v=0
504350 On ch=1 n=b7 v=0
504355 On ch=1 n=d8 v=0
504370 On ch=1 n=g7 v=0
504580 Par ch=1 c=64 v=72
504595 Par ch=1 c=64 v=0
504640 On ch=1 n=g#6 v=95
504645 On ch=1 n=g#7 v=110
504650 On ch=1 n=e7 v=103
504650 On ch=1 n=e2 v=77
504655 On ch=1 n=e3 v=99
504685 Par ch=1 c=64 v=127
504700 On ch=1 n=e2 v=0
504730 On ch=1 n=e3 v=0
504760 On ch=1 n=g#7 v=0
504760 On ch=1 n=g#6 v=0
504770 On ch=1 n=e7 v=0
505020 On ch=1 n=g#7 v=113
505020 On ch=1 n=g#6 v=106
505025 On ch=1 n=b4 v=89
505030 On ch=1 n=e7 v=103
505030 On ch=1 n=b3 v=79
505080 On ch=1 n=b4 v=0
505100 On ch=1 n=b3 v=0
505140 On ch=1 n=g#6 v=0
505145 On ch=1 n=g#7 v=0
505150 On ch=1 n=e7 v=0
505360 Par ch=1 c=64 v=88
505375 Par ch=1 c=64 v=0
505385 On ch=1 n=g#7 v=108
505385 On ch=1 n=e4 v=96
505390 On ch=1 n=g#6 v=105
505390 On ch=1 n=e3 v=79
505395 On ch=1 n=e7 v=100
505440 Par ch=1 c=64 v=72
505445 On ch=1 n=e3 v=0
505455 Par ch=1 c=64 v=127
505460 On ch=1 n=e4 v=0
505495 On ch=1 n=e7 v=0
505500 On ch=1 n=g#6 v=0
505500 On ch=1 n=g#7 v=0
505735 On ch=1 n=f#7 v=96
505745 On ch=1 n=f#6 v=99
505745 On ch=1 n=d#7 v=79
505745 On ch=1 n=b5 v=83
505755 On ch=1 n=b4 v=67
505790 On ch=1 n=b5 v=0
505800 On ch=1 n=f#6 v=0
505820 On ch=1 n=b4 v=0
505825 On ch=1 n=f#7 v=0
505840 On ch=1 n=d#7 v=0
505905 On ch=1 n=e7 v=97
505910 On ch=1 n=e6 v=92
505915 On ch=1 n=c#7 v=78
505970 On ch=1 n=e6 v=0
505990 On ch=1 n=e7 v=0
506025 On ch=1 n=c#7 v=0
506080 Par ch=1 c=64 v=40
506090 On ch=1 n=d#6 v=97
506090 On ch=1 n=d#7 v=92
506095 On ch=1 n=b6 v=87
506095 On ch=1 n=e2 v=72
506095 Par ch=1 c=64 v=0
506100 On ch=1 n=e3 v=85
506125 On ch=1 n=e2 v=0
506145 Par ch=1 c=64 v=72
506155 Par ch=1 c=64 v=127
506160 On ch=1 n=e3 v=0
506180 On ch=1 n=b6 v=0
506180 On ch=1 n=d#6 v=0
506205 On ch=1 n=d#7 v=0
506255 On ch=1 n=e7 v=100
506260 On ch=1 n=c#7 v=86
506265 On ch=1 n=e6 v=93
506315 On ch=1 n=e6 v=0
506350 On ch=1 n=e7 v=0
506365 On ch=1 n=c#7 v=0
506435 On ch=1 n=f#6 v=112
506440 On ch=1 n=f#7 v=103
506440 On ch=1 n=d#7 v=85
506445 On ch=1 n=b4 v=85
506445 Par ch=1 c=64 v=104
506455 On ch=1 n=b3 v=79
506460 Par ch=1 c=64 v=56
506480 Par ch=1 c=64 v=88
506495 On ch=1 n=f#6 v=0
506495 Par ch=1 c=64 v=127
506505 On ch=1 n=b4 v=0
506515 On ch=1 n=b3 v=0
506550 On ch=1 n=d#7 v=0
506550 On ch=1 n=f#7 v=0
506765 Par ch=1 c=64 v=72
506785 Par ch=1 c=64 v=0
506795 On ch=1 n=g#7 v=102
506800 On ch=1 n=g#6 v=100
506805 On ch=1 n=e7 v=97
506810 On ch=1 n=e4 v=97
506810 On ch=1 n=e3 v=77
506830 On ch=1 n=a#3 v=43
506860 On ch=1 n=a#3 v=0
506860 On ch=1 n=e3 v=0
506860 Par ch=1 c=64 v=127
506880 On ch=1 n=e4 v=0
506910 On ch=1 n=g#6 v=0
506915 On ch=1 n=e7 v=0
506920 On ch=1 n=g#7 v=0
507140 On ch=1 n=f#7 v=91
507145 On ch=1 n=f#6 v=97
507150 On ch=1 n=d#7 v=79
507155 On ch=1 n=b5 v=92
507155 On ch=1 n=b4 v=72
507200 On ch=1 n=f#6 v=0
507205 On ch=1 n=b5 v=0
507225 On ch=1 n=f#7 v=0
507240 On ch=1 n=b4 v=0
507240 On ch=1 n=d#7 v=0
507310 On ch=1 n=e7 v=100
507320 On ch=1 n=e6 v=96
507325 On ch=1 n=c#7 v=75
507370 On ch=1 n=e6 v=0
507400 On ch=1 n=e7 v=0
507435 On ch=1 n=c#7 v=0
507485 Par ch=1 c=64 v=24
507490 On ch=1 n=d#7 v=90
507495 On ch=1 n=d#6 v=97
507495 On ch=1 n=b6 v=90
507495 On ch=1 n=e2 v=66
507500 On ch=1 n=e3 v=77
507500 Par ch=1 c=64 v=0
507535 On ch=1 n=e2 v=0
507550 Par ch=1 c=64 v=72
507560 On ch=1 n=e3 v=0
507565 Par ch=1 c=64 v=127
507580 On ch=1 n=d#6 v=0
507590 On ch=1 n=b6 v=0
507605 On ch=1 n=d#7 v=0
507650 On ch=1 n=e7 v=97
507655 On ch=1 n=c#7 v=86
507655 On ch=1 n=e6 v=89
507710 On ch=1 n=e6 v=0
507735 On ch=1 n=e7 v=0
507755 On ch=1 n=c#7 v=0
507830 On ch=1 n=f#6 v=108
507830 On ch=1 n=d#7 v=88
507830 On ch=1 n=f#7 v=99
507840 On ch=1 n=b4 v=81
507850 On ch=1 n=b3 v=75
507875 On ch=1 n=b3 v=0
507880 On ch=1 n=f#6 v=0
507895 On ch=1 n=b4 v=0
507925 On ch=1 n=f#7 v=0
507935 On ch=1 n=d#7 v=0
508155 Par ch=1 c=64 v=72
508170 Par ch=1 c=64 v=0
508195 On ch=1 n=g#7 v=100
508200 On ch=1 n=g#6 v=102
508200 On ch=1 n=e4 v=99
508200 On ch=1 n=e3 v=81
508205 On ch=1 n=e7 v=97
508255 On ch=1 n=e3 v=0
508255 Par ch=1 c=64 v=127
508270 On ch=1 n=e4 v=0
508300 On ch=1 n=g#6 v=0
508305 On ch=1 n=e7 v=0
508325 On ch=1 n=g#7 v=0
508550 On ch=1 n=f#7 v=92
508555 On ch=1 n=f#6 v=95
508555 On ch=1 n=b5 v=87
508555 On ch=1 n=b4 v=79
508560 On ch=1 n=d#7 v=75
508605 On ch=1 n=b5 v=0
508615 On ch=1 n=f#6 v=0
508635 On ch=1 n=b4 v=0
508645 On ch=1 n=f#7 v=0
508655 On ch=1 n=d#7 v=0
508740 On ch=1 n=e7 v=102
508745 On ch=1 n=e6 v=96
508765 On ch=1 n=c#7 v=44
508795 On ch=1 n=c#7 v=0
508805 On ch=1 n=e6 v=0
508835 On ch=1 n=e7 v=0
508920 Par ch=1 c=64 v=88
508935 Par ch=1 c=64 v=0
508945 On ch=1 n=d#7 v=92
508950 On ch=1 n=d#6 v=103
508950 On ch=1 n=b6 v=94
508955 On ch=1 n=b3 v=88
508955 On ch=1 n=b2 v=85
509005 On ch=1 n=b2 v=0
509005 Par ch=1 c=64 v=88
509020 Par ch=1 c=64 v=127
509025 On ch=1 n=b3 v=0
509060 On ch=1 n=d#6 v=0
509065 On ch=1 n=b6 v=0
509080 On ch=1 n=d#7 v=0
509145 On ch=1 n=e7 v=102
509155 On ch=1 n=e6 v=92
509215 On ch=1 n=e6 v=0
509255 On ch=1 n=e7 v=0
509350 On ch=1 n=f#5 v=96
509350 On ch=1 n=f#6 v=103
509350 On ch=1 n=f#7 v=96
509360 On ch=1 n=f#4 v=76
509405 On ch=1 n=f#5 v=0
509420 On ch=1 n=f#6 v=0
509430 On ch=1 n=f#4 v=0
509480 On ch=1 n=f#7 v=0
509545 On ch=1 n=g#7 v=105
509550 On ch=1 n=g#6 v=102
509670 On ch=1 n=g#6 v=0
509675 On ch=1 n=g#7 v=0
509770 Par ch=1 c=64 v=0
509780 On ch=1 n=f#7 v=96
509785 On ch=1 n=f#6 v=108
509785 On ch=1 n=c#7 v=95
509785 On ch=1 n=a3 v=103
509790 On ch=1 n=a2 v=91
509835 Par ch=1 c=64 v=88
509840 On ch=1 n=a2 v=0
509850 Par ch=1 c=64 v=127
509860 On ch=1 n=a3 v=0
509885 On ch=1 n=c#7 v=0
509890 On ch=1 n=f#6 v=0
509895 On ch=1 n=f#7 v=0
510015 On ch=1 n=e7 v=103
510020 On ch=1 n=e6 v=97
510060 On ch=1 n=e6 v=0
510105 On ch=1 n=e7 v=0
510285 On ch=1 n=d#7 v=99
510285 On ch=1 n=d#5 v=83
510285 On ch=1 n=d#6 v=112
510290 On ch=1 n=g4 v=82
510290 On ch=1 n=g5 v=90
510290 On ch=1 n=c#5 v=76
510350 On ch=1 n=g5 v=0
510355 On ch=1 n=d#5 v=0
510375 On ch=1 n=c#5 v=0
510375 On ch=1 n=g4 v=0
510390 On ch=1 n=d#6 v=0
510415 On ch=1 n=d#7 v=0
510545 On ch=1 n=c#6 v=110
510545 On ch=1 n=c#7 v=96
510625 On ch=1 n=c#6 v=0
510645 On ch=1 n=c#7 v=0
510855 Par ch=1 c=64 v=24
510875 Par ch=1 c=64 v=0
510895 On ch=1 n=g#6 v=97
510895 On ch=1 n=g#3 v=105
510895 On ch=1 n=f7 v=107
510900 On ch=1 n=f6 v=110
510900 On ch=1 n=c#7 v=96
510905 On ch=1 n=g#2 v=95
510935 Par ch=1 c=64 v=127
510955 On ch=1 n=g#2 v=0
510955 On ch=1 n=g#3 v=0
511185 On ch=1 n=g4 v=85
511185 On ch=1 n=g3 v=88
511250 On ch=1 n=g4 v=0
511255 On ch=1 n=g3 v=0
511375 On ch=1 n=f7 v=0
511390 On ch=1 n=g#4 v=89
511395 On ch=1 n=g#3 v=85
511425 On ch=1 n=f6 v=0
511435 On ch=1 n=g#3 v=0
511435 On ch=1 n=g#4 v=0
511470 On ch=1 n=c#7 v=0
511525 On ch=1 n=g#6 v=0
511590 On ch=1 n=g5 v=82
511620 On ch=1 n=g4 v=81
511645 On ch=1 n=g4 v=0
511650 On ch=1 n=g5 v=0
511715 On ch=1 n=d#6 v=103
511715 On ch=1 n=d#7 v=87
511775 On ch=1 n=d#6 v=0
511825 On ch=1 n=d#7 v=0
511845 On ch=1 n=d#5 v=75
511850 On ch=1 n=f#5 v=79
511850 Par ch=1 c=64 v=24
511855 On ch=1 n=g#4 v=80
511860 On ch=1 n=g#5 v=83
511860 On ch=1 n=f#6 v=89
511865 Par ch=1 c=64 v=0
511870 On ch=1 n=f#7 v=110
511870 On ch=1 n=c5 v=72
511870 On ch=1 n=c7 v=90
511870 On ch=1 n=g#6 v=84
511880 On ch=1 n=d#7 v=48
511900 On ch=1 n=c5 v=0
511920 On ch=1 n=f#5 v=0
511930 On ch=1 n=g#5 v=0
511930 Par ch=1 c=64 v=88
511940 On ch=1 n=d#5 v=0
511945 On ch=1 n=d#7 v=0
511945 Par ch=1 c=64 v=127
511955 On ch=1 n=g#4 v=0
512105 On ch=1 n=g4 v=86
512120 On ch=1 n=g3 v=80
512145 On ch=1 n=g4 v=0
512155 On ch=1 n=g3 v=0
512210 On ch=1 n=f#7 v=0
512260 On ch=1 n=g#6 v=0
512265 On ch=1 n=c7 v=0
512280 On ch=1 n=f#6 v=0
512325 On ch=1 n=g#4 v=93
512330 On ch=1 n=g#3 v=84
512350 On ch=1 n=d#4 v=67
512370 On ch=1 n=g#4 v=0
512380 On ch=1 n=g#3 v=0
512415 On ch=1 n=d#4 v=0
512650 On ch=1 n=c6 v=93
512650 On ch=1 n=c7 v=96
512700 On ch=1 n=c6 v=0
512720 On ch=1 n=c7 v=0
512745 Par ch=1 c=64 v=72
512760 Par ch=1 c=64 v=0
512770 On ch=1 n=g#6 v=89
512775 On ch=1 n=g#6 v=99
512775 On ch=1 n=g#3 v=103
512775 On ch=1 n=d#7 v=103
512775 On ch=1 n=d#6 v=91
512780 On ch=1 n=g#2 v=79
512785 On ch=1 n=f6 v=92
512810 On ch=1 n=f6 v=0
512820 On ch=1 n=g#2 v=0
512820 Par ch=1 c=64 v=127
512825 On ch=1 n=g#3 v=0
512925 On ch=1 n=d#7 v=0
512970 On ch=1 n=d#6 v=0
512970 On ch=1 n=g#6 v=0
512980 On ch=1 n=g#6 v=0
513020 On ch=1 n=g4 v=75
513020 On ch=1 n=g3 v=74
513080 On ch=1 n=g4 v=0
513090 On ch=1 n=g3 v=0
513190 Par ch=1 c=64 v=88
513195 On ch=1 n=f6 v=97
513205 On ch=1 n=g#3 v=76
513205 On ch=1 n=g#4 v=85
513205 On ch=1 n=c#7 v=99
513205 On ch=1 n=c#6 v=94
513205 On ch=1 n=g#6 v=92
513205 Par ch=1 c=64 v=0
513235 Par ch=1 c=64 v=40
513255 On ch=1 n=g#3 v=0
513255 Par ch=1 c=64 v=127
513260 On ch=1 n=g#4 v=0
513400 On ch=1 n=g5 v=82
513470 On ch=1 n=g5 v=0
513605 Par ch=1 c=64 v=72
513615 On ch=1 n=g#4 v=81
513615 On ch=1 n=g#5 v=93
513615 On ch=1 n=c#5 v=76
513620 On ch=1 n=f5 v=90
513620 Par ch=1 c=64 v=127
513650 On ch=1 n=f5 v=0
513670 On ch=1 n=c#5 v=0
513670 On ch=1 n=g#5 v=0
513690 On ch=1 n=c#6 v=0
513695 On ch=1 n=f6 v=0
513700 On ch=1 n=g#4 v=0
513710 On ch=1 n=c#7 v=0
513735 On ch=1 n=g#6 v=0
513830 On ch=1 n=g4 v=88
513840 On ch=1 n=g3 v=79
513885 On ch=1 n=g4 v=0
513890 On ch=1 n=g3 v=0
514015 On ch=1 n=c#6 v=96
514020 On ch=1 n=c#7 v=100
514025 On ch=1 n=g#6 v=86
514030 On ch=1 n=g#4 v=95
514035 On ch=1 n=g#3 v=77
514040 On ch=1 n=f6 v=73
514065 On ch=1 n=f6 v=0
514080 On ch=1 n=c#6 v=0
514090 On ch=1 n=g#4 v=0
514110 On ch=1 n=g#3 v=0
514120 On ch=1 n=g#6 v=0
514135 On ch=1 n=c#7 v=0
514405 Par ch=1 c=64 v=56
514420 Par ch=1 c=64 v=0
514425 On ch=1 n=f#2 v=71
514435 On ch=1 n=f#3 v=105
514440 On ch=1 n=a#7 v=102
514440 On ch=1 n=a#6 v=99
514440 On ch=1 n=f#7 v=87
514440 On ch=1 n=c#7 v=89
514480 On ch=1 n=f#2 v=0
514485 Par ch=1 c=64 v=127
514490 On ch=1 n=f#3 v=0
514670 On ch=1 n=c5 v=88
514685 On ch=1 n=c4 v=83
514695 On ch=1 n=a#7 v=0
514705 On ch=1 n=a#6 v=0
514710 On ch=1 n=c4 v=0
514715 On ch=1 n=f#7 v=0
514725 On ch=1 n=c5 v=0
514750 On ch=1 n=c#7 v=0
514880 On ch=1 n=a#7 v=100
514885 On ch=1 n=a#6 v=110
514885 On ch=1 n=c#5 v=96
514895 On ch=1 n=c#4 v=90
514935 On ch=1 n=c#5 v=0
514945 On ch=1 n=c#4 v=0
515000 On ch=1 n=a#7 v=0
515010 On ch=1 n=a#6 v=0
515265 Par ch=1 c=64 v=0
515285 On ch=1 n=f2 v=79
515290 On ch=1 n=d3 v=83
515295 On ch=1 n=b2 v=80
515295 On ch=1 n=g#7 v=106
515295 On ch=1 n=f3 v=82
515300 On ch=1 n=g#6 v=105
515305 On ch=1 n=f7 v=92
515305 On ch=1 n=b6 v=94
515310 On ch=1 n=d7 v=87
515340 On ch=1 n=f2 v=0
515345 Par ch=1 c=64 v=127
515370 On ch=1 n=b2 v=0
515370 On ch=1 n=d3 v=0
515375 On ch=1 n=f3 v=0
515535 On ch=1 n=c#5 v=86
515605 On ch=1 n=c#5 v=0
515695 On ch=1 n=g#6 v=0
515725 On ch=1 n=d7 v=0
515745 On ch=1 n=f7 v=0
515775 On ch=1 n=d5 v=89
515775 On ch=1 n=d4 v=79
515775 On ch=1 n=g#4 v=59
515775 On ch=1 n=b4 v=87
515790 On ch=1 n=f4 v=75
515830 On ch=1 n=d5 v=0
515855 On ch=1 n=b4 v=0
515865 On ch=1 n=d4 v=0
515875 On ch=1 n=g#4 v=0
515880 On ch=1 n=f4 v=0
515890 On ch=1 n=b6 v=0
515900 On ch=1 n=g#7 v=0
515995 On ch=1 n=g#7 v=108
516005 On ch=1 n=g#6 v=110
516130 On ch=1 n=g#6 v=0
516140 On ch=1 n=g#7 v=0
516255 Par ch=1 c=64 v=104
516270 On ch=1 n=d#2 v=72
516270 On ch=1 n=a#2 v=88
516270 Par ch=1 c=64 v=0
516275 On ch=1 n=d#3 v=89
516280 On ch=1 n=f#7 v=108
516280 On ch=1 n=f#6 v=112
516285 On ch=1 n=a#6 v=93
516285 On ch=1 n=d#7 v=90
516325 On ch=1 n=d#2 v=0
516335 On ch=1 n=a#2 v=0
516340 On ch=1 n=d#3 v=0
516340 Par ch=1 c=64 v=127
516540 On ch=1 n=a4 v=71
516540 On ch=1 n=a3 v=78
516550 On ch=1 n=f#6 v=0
516565 On ch=1 n=f#7 v=0
516590 On ch=1 n=d#7 v=0
516600 On ch=1 n=a4 v=0
516600 On ch=1 n=a#6 v=0
516610 On ch=1 n=a3 v=0
516730 On ch=1 n=f#6 v=119
516730 On ch=1 n=f#7 v=101
516735 On ch=1 n=a#6 v=91
516735 On ch=1 n=a#3 v=83
516735 On ch=1 n=d#7 v=89
516735 On ch=1 n=a#4 v=85
516785 On ch=1 n=a#4 v=0
516785 On ch=1 n=a#3 v=0
516940 On ch=1 n=a5 v=87
516940 On ch=1 n=a4 v=79
516990 On ch=1 n=a4 v=0
517000 On ch=1 n=a5 v=0
517125 On ch=1 n=a#5 v=92
517135 On ch=1 n=a#4 v=77
517175 On ch=1 n=a#5 v=0
517185 On ch=1 n=a#4 v=0
517305 On ch=1 n=f#6 v=0
517330 On ch=1 n=a4 v=88
517335 On ch=1 n=f#7 v=0
517340 On ch=1 n=a3 v=80
517350 On ch=1 n=a#6 v=0
517365 On ch=1 n=d#7 v=0
517370 On ch=1 n=a3 v=0
517385 On ch=1 n=a4 v=0
517540 On ch=1 n=f#7 v=103
517540 On ch=1 n=f#6 v=115
517545 On ch=1 n=d#7 v=92
517545 On ch=1 n=a#4 v=89
517545 On ch=1 n=a#3 v=82
517545 On ch=1 n=a#6 v=88
517595 On ch=1 n=a#4 v=0
517610 On ch=1 n=a#3 v=0
517630 On ch=1 n=a#6 v=0
517630 On ch=1 n=f#6 v=0
517670 On ch=1 n=d#7 v=0
517675 On ch=1 n=f#7 v=0
517815 On ch=1 n=f#2 v=45
517820 On ch=1 n=f#3 v=51
517845 On ch=1 n=f#2 v=0
517850 On ch=1 n=f#3 v=0
517910 Par ch=1 c=64 v=56
517925 Par ch=1 c=64 v=0
517955 On ch=1 n=c#7 v=117
517955 On ch=1 n=c#8 v=108
517960 On ch=1 n=f#2 v=86
517965 On ch=1 n=f#3 v=106
517965 On ch=1 n=a#7 v=89
517965 On ch=1 n=f#7 v=86
518005 Par ch=1 c=64 v=127
518010 On ch=1 n=f#3 v=0
518015 On ch=1 n=f#2 v=0
518175 On ch=1 n=c5 v=85
518185 On ch=1 n=c4 v=76
518215 On ch=1 n=c4 v=0
518215 On ch=1 n=c#7 v=0
518235 On ch=1 n=c5 v=0
518235 On ch=1 n=a#7 v=0
518235 On ch=1 n=c#8 v=0
518245 On ch=1 n=f#7 v=0
518365 On ch=1 n=c#5 v=85
518365 On ch=1 n=c#4 v=76
518375 On ch=1 n=c#7 v=119
518375 On ch=1 n=c#8 v=106
518375 On ch=1 n=a#7 v=92
518385 On ch=1 n=f#7 v=88
518410 On ch=1 n=c#4 v=0
518425 On ch=1 n=c#5 v=0
518580 On ch=1 n=c6 v=89
518600 On ch=1 n=c#7 v=0
518610 On ch=1 n=a#7 v=0
518615 On ch=1 n=c#8 v=0
518635 On ch=1 n=c6 v=0
518790 On ch=1 n=f#7 v=0
518810 On ch=1 n=a#5 v=84
518810 On ch=1 n=c#5 v=73
518815 On ch=1 n=c#6 v=85
518815 On ch=1 n=f#5 v=72
518830 On ch=1 n=c8 v=109
518830 On ch=1 n=c7 v=107
518845 On ch=1 n=f#7 v=71
518870 On ch=1 n=f#7 v=0
518870 On ch=1 n=f#5 v=0
518870 On ch=1 n=c#6 v=0
518870 On ch=1 n=a#5 v=0
518900 On ch=1 n=c#5 v=0
518965 On ch=1 n=c8 v=0
518975 On ch=1 n=c7 v=0
519030 On ch=1 n=c5 v=92
519050 On ch=1 n=c4 v=82
519075 On ch=1 n=c4 v=0
519085 On ch=1 n=c5 v=0
519240 On ch=1 n=a#7 v=105
519250 On ch=1 n=a#6 v=100
519250 On ch=1 n=c#7 v=90
519250 On ch=1 n=f#7 v=92
519260 On ch=1 n=a#4 v=73
519260 On ch=1 n=c#4 v=74
519265 On ch=1 n=c#5 v=77
519265 On ch=1 n=f#4 v=69
519310 On ch=1 n=a#4 v=0
519325 On ch=1 n=c#5 v=0
519335 On ch=1 n=f#4 v=0
519350 On ch=1 n=c#4 v=0
519440 On ch=1 n=f#7 v=0
519450 On ch=1 n=a#7 v=0
519500 On ch=1 n=a#6 v=0
519545 On ch=1 n=c#7 v=0
519645 Par ch=1 c=64 v=24
519655 On ch=1 n=g#2 v=90
519655 On ch=1 n=g#3 v=110
519665 On ch=1 n=g#7 v=108
519665 Par ch=1 c=64 v=0
519670 On ch=1 n=g#6 v=106
519675 On ch=1 n=f7 v=97
519675 On ch=1 n=c#7 v=91
519710 On ch=1 n=g#2 v=0
519715 On ch=1 n=g#3 v=0
519730 Par ch=1 c=64 v=127
519930 On ch=1 n=g4 v=87
519950 On ch=1 n=g3 v=31
519960 On ch=1 n=a3 v=56
519985 On ch=1 n=a3 v=0
519985 On ch=1 n=g#7 v=0
519990 On ch=1 n=g3 v=0
519990 On ch=1 n=g#6 v=0
520000 On ch=1 n=f7 v=0
520010 On ch=1 n=g4 v=0
520030 On ch=1 n=c#7 v=0
520125 On ch=1 n=g#3 v=79
520135 On ch=1 n=g#4 v=83
520140 On ch=1 n=g#7 v=108
520140 On ch=1 n=f4 v=79
520140 On ch=1 n=c#7 v=93
520140 On ch=1 n=f7 v=97
520145 On ch=1 n=g#6 v=110
520160 On ch=1 n=c#4 v=60
520185 On ch=1 n=c#4 v=0
520190 On ch=1 n=g#3 v=0
520200 On ch=1 n=f4 v=0
520215 On ch=1 n=g#4 v=0
520390 On ch=1 n=g5 v=88
520400 On ch=1 n=g4 v=75
520430 On ch=1 n=g4 v=0
520460 On ch=1 n=g5 v=0
520675 On ch=1 n=f5 v=83
520675 On ch=1 n=g#4 v=74
520680 On ch=1 n=c#5 v=73
520685 On ch=1 n=g#5 v=100
520685 Par ch=1 c=64 v=88
520700 Par ch=1 c=64 v=0
520750 Par ch=1 c=64 v=127
520755 On ch=1 n=g#4 v=0
520765 On ch=1 n=c#5 v=0
520770 On ch=1 n=g#5 v=0
520770 On ch=1 n=f5 v=0
520790 On ch=1 n=g#6 v=0
520805 On ch=1 n=c#7 v=0
520810 On ch=1 n=f7 v=0
520810 On ch=1 n=g#7 v=0
521455 Par ch=1 c=64 v=24
521470 Par ch=1 c=64 v=0
521520 On ch=1 n=a7 v=114
521525 On ch=1 n=f6 v=94
521525 On ch=1 n=a6 v=99
521525 On ch=1 n=f5 v=88
521550 Par ch=1 c=64 v=127
521575 On ch=1 n=f5 v=0
521585 On ch=1 n=a6 v=0
521585 On ch=1 n=f6 v=0
521615 On ch=1 n=a7 v=0
521715 On ch=1 n=a#6 v=108
521715 On ch=1 n=a#7 v=106
521730 On ch=1 n=f#6 v=99
521730 On ch=1 n=f#5 v=89
521900 Par ch=1 c=64 v=104
521915 Par ch=1 c=64 v=0
522030 Par ch=1 c=64 v=88
522045 Par ch=1 c=64 v=127
522115 On ch=1 n=f#5 v=0
522120 On ch=1 n=f#6 v=0
522160 On ch=1 n=a#7 v=0
522165 On ch=1 n=a#6 v=0
522515 On ch=1 n=f6 v=116
522520 On ch=1 n=f7 v=109
522520 On ch=1 n=d5 v=84
522520 On ch=1 n=d6 v=94
522525 Par ch=1 c=64 v=88
522540 Par ch=1 c=64 v=0
522605 On ch=1 n=d5 v=0
522620 Par ch=1 c=64 v=127
522635 On ch=1 n=f6 v=0
522645 On ch=1 n=d6 v=0
522645 On ch=1 n=f7 v=0
522840 On ch=1 n=f#6 v=110
522840 On ch=1 n=f#7 v=102
522850 On ch=1 n=d#6 v=96
522850 On ch=1 n=d#5 v=78
522905 On ch=1 n=d#6 v=0
522905 On ch=1 n=f#6 v=0
522910 On ch=1 n=f#7 v=0
522915 On ch=1 n=d#5 v=0
523100 Par ch=1 c=64 v=72
523110 On ch=1 n=d7 v=103
523115 On ch=1 n=d6 v=100
523115 On ch=1 n=b5 v=82
523115 On ch=1 n=b4 v=76
523115 Par ch=1 c=64 v=0
523130 Par ch=1 c=64 v=24
523150 Par ch=1 c=64 v=72
523165 Par ch=1 c=64 v=127
523175 On ch=1 n=b4 v=0
523180 On ch=1 n=d6 v=0
523190 On ch=1 n=b5 v=0
523215 On ch=1 n=d7 v=0
523320 On ch=1 n=d#7 v=91
523325 On ch=1 n=d#6 v=99
523325 On ch=1 n=c6 v=84
523335 On ch=1 n=c5 v=77
523375 On ch=1 n=c5 v=0
523380 On ch=1 n=c6 v=0
523380 On ch=1 n=d#6 v=0
523410 On ch=1 n=d#7 v=0
523515 Par ch=1 c=64 v=104
523520 On ch=1 n=b6 v=99
523520 On ch=1 n=b5 v=89
523520 On ch=1 n=g5 v=76
523530 Par ch=1 c=64 v=127
523555 On ch=1 n=g4 v=76
523570 On ch=1 n=b5 v=0
523575 On ch=1 n=g5 v=0
523580 On ch=1 n=b6 v=0
523585 On ch=1 n=g4 v=0
523710 On ch=1 n=c7 v=99
523710 On ch=1 n=g#5 v=79
523715 On ch=1 n=c6 v=99
523720 On ch=1 n=g#4 v=64
523745 On ch=1 n=g#4 v=0
523765 On ch=1 n=c6 v=0
523765 On ch=1 n=g#5 v=0
523765 On ch=1 n=c7 v=0
523895 On ch=1 n=f5 v=70
523900 On ch=1 n=a6 v=90
523900 On ch=1 n=a5 v=97
523900 On ch=1 n=f4 v=68
523900 Par ch=1 c=64 v=104
523915 Par ch=1 c=64 v=127
523945 On ch=1 n=a5 v=0
523955 On ch=1 n=f4 v=0
523955 On ch=1 n=f5 v=0
523965 On ch=1 n=a6 v=0
524025 Par ch=1 c=64 v=104
524040 Par ch=1 c=64 v=72
524075 On ch=1 n=a#6 v=98
524075 On ch=1 n=a#5 v=95
524075 Par ch=1 c=64 v=127
524085 On ch=1 n=f#5 v=74
524095 On ch=1 n=f#4 v=64
524120 On ch=1 n=f#4 v=0
524130 On ch=1 n=f#5 v=0
524130 On ch=1 n=a#5 v=0
524135 On ch=1 n=a#6 v=0
524235 Par ch=1 c=64 v=104
524250 Par ch=1 c=64 v=72
524255 On ch=1 n=f6 v=100
524255 On ch=1 n=f5 v=99
524255 On ch=1 n=d5 v=81
524260 On ch=1 n=d4 v=81
524265 Par ch=1 c=64 v=104
524285 Par ch=1 c=64 v=127
524310 On ch=1 n=f5 v=0
524315 On ch=1 n=d4 v=0
524315 On ch=1 n=d5 v=0
524320 On ch=1 n=f6 v=0
524395 Par ch=1 c=64 v=104
524410 Par ch=1 c=64 v=72
524425 Par ch=1 c=64 v=88
524435 On ch=1 n=d#5 v=73
524440 On ch=1 n=f#5 v=93
524440 On ch=1 n=f#6 v=100
524440 Par ch=1 c=64 v=127
524445 On ch=1 n=d#4 v=71
524475 On ch=1 n=d#4 v=0
524480 On ch=1 n=d#5 v=0
524490 On ch=1 n=f#5 v=0
524500 On ch=1 n=f#6 v=0
524585 Par ch=1 c=64 v=88
524605 On ch=1 n=d6 v=97
524605 On ch=1 n=b4 v=75
524610 On ch=1 n=d5 v=89
524610 On ch=1 n=b3 v=81
524620 Par ch=1 c=64 v=127
524660 On ch=1 n=d5 v=0
524665 On ch=1 n=b3 v=0
524670 On ch=1 n=b4 v=0
524670 On ch=1 n=d6 v=0
524745 Par ch=1 c=64 v=104
524760 Par ch=1 c=64 v=88
524775 On ch=1 n=d#6 v=96
524775 Par ch=1 c=64 v=127
524780 On ch=1 n=d#5 v=93
524780 On ch=1 n=c5 v=79
524780 On ch=1 n=c4 v=87
524815 On ch=1 n=c5 v=0
524835 On ch=1 n=c4 v=0
524835 On ch=1 n=d#5 v=0
524855 On ch=1 n=d#6 v=0
524940 Par ch=1 c=64 v=72
524950 On ch=1 n=b5 v=97
524950 On ch=1 n=b4 v=88
524955 On ch=1 n=g4 v=75
524970 Par ch=1 c=64 v=127
524975 On ch=1 n=g3 v=59
525000 On ch=1 n=g3 v=0
525000 On ch=1 n=b4 v=0
525010 On ch=1 n=g4 v=0
525010 On ch=1 n=b5 v=0
525095 Par ch=1 c=64 v=72
525115 On ch=1 n=c5 v=94
525115 On ch=1 n=c6 v=100
525115 On ch=1 n=g#4 v=78
525115 Par ch=1 c=64 v=104
525120 On ch=1 n=g#3 v=71
525130 Par ch=1 c=64 v=127
525165 On ch=1 n=g#3 v=0
525165 On ch=1 n=c6 v=0
525165 On ch=1 n=c5 v=0
525175 On ch=1 n=g#4 v=0
525255 Par ch=1 c=64 v=104
525270 Par ch=1 c=64 v=40
525275 On ch=1 n=a5 v=102
525275 On ch=1 n=a4 v=97
525280 On ch=1 n=f4 v=82
525285 On ch=1 n=f3 v=79
525290 Par ch=1 c=64 v=56
525305 Par ch=1 c=64 v=127
525325 On ch=1 n=a4 v=0
525335 On ch=1 n=f4 v=0
525345 On ch=1 n=f3 v=0
525345 On ch=1 n=a5 v=0
525435 On ch=1 n=a#5 v=95
525435 Par ch=1 c=64 v=88
525440 On ch=1 n=f#4 v=86
525440 On ch=1 n=a#4 v=96
525440 On ch=1 n=f#3 v=75
525450 Par ch=1 c=64 v=104
525465 Par ch=1 c=64 v=127
525490 On ch=1 n=a#4 v=0
525490 On ch=1 n=f#4 v=0
525495 On ch=1 n=f#3 v=0
525500 On ch=1 n=a#5 v=0
525590 Par ch=1 c=64 v=72
525595 On ch=1 n=f5 v=97
525600 On ch=1 n=f4 v=99
525605 On ch=1 n=d4 v=87
525610 On ch=1 n=d3 v=76
525610 Par ch=1 c=64 v=24
525625 Par ch=1 c=64 v=72
525640 Par ch=1 c=64 v=127
525650 On ch=1 n=d3 v=0
525650 On ch=1 n=f4 v=0
525660 On ch=1 n=d4 v=0
525665 On ch=1 n=f5 v=0
525735 Par ch=1 c=64 v=104
525755 Par ch=1 c=64 v=72
525760 On ch=1 n=f#5 v=93
525765 On ch=1 n=f#4 v=96
525765 On ch=1 n=d#4 v=87
525770 On ch=1 n=d#3 v=75
525770 Par ch=1 c=64 v=104
525780 Par ch=1 c=64 v=127
525805 On ch=1 n=d#3 v=0
525815 On ch=1 n=d#4 v=0
525815 On ch=1 n=f#4 v=0
525840 On ch=1 n=f#5 v=0
525920 On ch=1 n=d5 v=96
525925 On ch=1 n=d4 v=97
525930 On ch=1 n=b3 v=86
525930 Par ch=1 c=64 v=56
525935 On ch=1 n=b2 v=82
525975 Par ch=1 c=64 v=127
525980 On ch=1 n=d4 v=0
525985 On ch=1 n=b3 v=0
525995 On ch=1 n=b2 v=0
525995 On ch=1 n=d5 v=0
526085 Par ch=1 c=64 v=40
526090 On ch=1 n=d#5 v=92
526090 On ch=1 n=d#4 v=95
526090 On ch=1 n=c4 v=89
526090 On ch=1 n=c3 v=81
526120 Par ch=1 c=64 v=88
526135 Par ch=1 c=64 v=127
526140 On ch=1 n=c3 v=0
526140 On ch=1 n=c4 v=0
526150 On ch=1 n=d#4 v=0
526170 On ch=1 n=d#5 v=0
526280 On ch=1 n=c5 v=90
526280 On ch=1 n=c4 v=89
526295 Par ch=1 c=64 v=40
526300 On ch=1 n=g#3 v=87
526300 On ch=1 n=g#2 v=77
526300 Par ch=1 c=64 v=0
526340 On ch=1 n=c4 v=0
526340 Par ch=1 c=64 v=56
526345 On ch=1 n=c5 v=0
526355 On ch=1 n=g#2 v=0
526355 On ch=1 n=g#3 v=0
526360 Par ch=1 c=64 v=127
526550 On ch=1 n=c#5 v=103
526550 On ch=1 n=c#4 v=110
526560 On ch=1 n=f#4 v=91
526565 Par ch=1 c=64 v=0
526580 On ch=1 n=f#3 v=76
526580 On ch=1 n=a2 v=74
526585 On ch=1 n=a3 v=70
526585 On ch=1 n=c#3 v=53
526610 On ch=1 n=a3 v=0
526650 On ch=1 n=f#3 v=0
526655 On ch=1 n=c#3 v=0
526655 On ch=1 n=a2 v=0
526660 Par ch=1 c=64 v=127
526680 On ch=1 n=a3 v=69
526745 On ch=1 n=a3 v=0
526770 On ch=1 n=a2 v=66
526770 On ch=1 n=c#3 v=51
526775 On ch=1 n=f#3 v=39
526810 On ch=1 n=f#3 v=0
526810 On ch=1 n=c#3 v=0
526825 On ch=1 n=a2 v=0
526855 On ch=1 n=a3 v=55
526855 On ch=1 n=b3 v=48
526885 On ch=1 n=b3 v=0
526885 On ch=1 n=a3 v=0
526920 On ch=1 n=c#3 v=51
526940 On ch=1 n=f#3 v=26
526945 On ch=1 n=a2 v=28
526965 On ch=1 n=c#3 v=0
526975 On ch=1 n=a2 v=0
526985 On ch=1 n=f#3 v=0
526985 On ch=1 n=a3 v=77
527025 On ch=1 n=a3 v=0
527065 On ch=1 n=f#3 v=50
527070 On ch=1 n=c#3 v=61
527090 On ch=1 n=a2 v=38
527110 On ch=1 n=c#3 v=0
527120 On ch=1 n=f#3 v=0
527125 On ch=1 n=a2 v=0
527135 On ch=1 n=a3 v=71
527155 On ch=1 n=c#4 v=0
527175 On ch=1 n=a3 v=0
527180 On ch=1 n=f#4 v=0
527200 On ch=1 n=c#5 v=0
527205 On ch=1 n=c#3 v=73
527210 On ch=1 n=f#3 v=55
527230 On ch=1 n=a2 v=58
527240 On ch=1 n=f#3 v=0
527260 On ch=1 n=a2 v=0
527260 On ch=1 n=c#3 v=0
527295 On ch=1 n=a3 v=84
527345 On ch=1 n=f#3 v=47
527350 On ch=1 n=a3 v=0
527360 On ch=1 n=c#3 v=65
527370 On ch=1 n=f#3 v=0
527375 On ch=1 n=a2 v=63
527410 On ch=1 n=a2 v=0
527415 On ch=1 n=c#3 v=0
527440 On ch=1 n=a3 v=88
527495 On ch=1 n=a3 v=0
527515 On ch=1 n=f#5 v=89
527515 On ch=1 n=f#4 v=95
527525 On ch=1 n=c#5 v=77
527550 On ch=1 n=c#3 v=50
527560 On ch=1 n=a2 v=51
527570 On ch=1 n=f#4 v=0
527585 On ch=1 n=c#5 v=0
527595 On ch=1 n=a2 v=0
527595 On ch=1 n=f#5 v=0
527605 On ch=1 n=c#3 v=0
527610 On ch=1 n=a3 v=77
527640 On ch=1 n=f#5 v=107
527645 On ch=1 n=f#4 v=102
527645 On ch=1 n=c#5 v=77
527685 On ch=1 n=f#3 v=68
527695 On ch=1 n=a3 v=0
527695 On ch=1 n=c#3 v=76
527700 On ch=1 n=a2 v=63
527740 On ch=1 n=f#3 v=0
527750 On ch=1 n=a2 v=0
527750 On ch=1 n=c#3 v=0
527775 On ch=1 n=a3 v=82
527845 On ch=1 n=f#3 v=46
527850 On ch=1 n=a3 v=0
527855 On ch=1 n=c#3 v=68
527870 On ch=1 n=a2 v=63
527880 On ch=1 n=f#3 v=0
527905 On ch=1 n=a2 v=0
527910 On ch=1 n=c#3 v=0
527935 On ch=1 n=a3 v=86
527985 On ch=1 n=a3 v=0
528025 On ch=1 n=c#3 v=71
528040 On ch=1 n=f#3 v=40
528045 On ch=1 n=a2 v=54
528075 On ch=1 n=a2 v=0
528080 On ch=1 n=c#3 v=0
528090 On ch=1 n=f#3 v=0
528090 On ch=1 n=a3 v=74
528130 On ch=1 n=a3 v=0
528175 On ch=1 n=f#3 v=61
528175 On ch=1 n=c#3 v=73
528185 On ch=1 n=a2 v=59
528210 On ch=1 n=f#3 v=0
528220 On ch=1 n=a2 v=0
528235 On ch=1 n=c#3 v=0
528270 On ch=1 n=a3 v=87
528295 On ch=1 n=f#3 v=53
528315 On ch=1 n=f#5 v=0
528320 On ch=1 n=f#4 v=0
528335 On ch=1 n=a3 v=0
528345 On ch=1 n=c#5 v=0
528360 On ch=1 n=a2 v=75
528370 On ch=1 n=c#3 v=62
528440 On ch=1 n=f#3 v=0
528445 On ch=1 n=a2 v=0
528450 On ch=1 n=c#3 v=0
528530 On ch=1 n=e4 v=99
528535 On ch=1 n=e5 v=100
528540 On ch=1 n=f#3 v=39
528565 On ch=1 n=a4 v=39
528575 On ch=1 n=f#3 v=0
528595 On ch=1 n=e4 v=0
528600 On ch=1 n=a4 v=0
528600 On ch=1 n=e5 v=0
528650 On ch=1 n=e5 v=93
528655 On ch=1 n=e4 v=102
528660 On ch=1 n=a4 v=89
528660 On ch=1 n=f#2 v=77
528660 On ch=1 n=c#3 v=80
528675 Par ch=1 c=64 v=0
528730 On ch=1 n=c#3 v=0
528735 On ch=1 n=f#3 v=65
528740 On ch=1 n=f#2 v=0
528755 Par ch=1 c=64 v=127
528840 On ch=1 n=f#3 v=0
528845 On ch=1 n=c#3 v=64
528850 On ch=1 n=e5 v=0
528850 On ch=1 n=f#2 v=64
528865 On ch=1 n=a4 v=0
528895 On ch=1 n=c#3 v=0
528900 On ch=1 n=e4 v=0
528910 On ch=1 n=f#2 v=0
528915 On ch=1 n=f#3 v=67
528980 On ch=1 n=f#3 v=0
529020 On ch=1 n=c#3 v=57
529020 On ch=1 n=f#2 v=51
529055 On ch=1 n=c#3 v=0
529085 On ch=1 n=f#2 v=0
529085 On ch=1 n=f#3 v=57
529095 On ch=1 n=a4 v=84
529110 On ch=1 n=d5 v=93
529110 On ch=1 n=d4 v=97
529115 On ch=1 n=a4 v=86
529130 On ch=1 n=a4 v=0
529145 On ch=1 n=f#3 v=0
529155 On ch=1 n=d4 v=0
529155 On ch=1 n=d5 v=0
529180 On ch=1 n=c#3 v=73
529180 On ch=1 n=f#2 v=63
529185 On ch=1 n=a4 v=0
529200 On ch=1 n=d5 v=94
529200 On ch=1 n=d4 v=99
529205 On ch=1 n=a4 v=93
529230 On ch=1 n=f#3 v=55
529235 On ch=1 n=c#3 v=0
529245 On ch=1 n=f#2 v=0
529310 On ch=1 n=f#3 v=0
529330 On ch=1 n=c#3 v=77
529340 On ch=1 n=f#2 v=58
529375 On ch=1 n=d5 v=0
529385 On ch=1 n=c#3 v=0
529400 On ch=1 n=f#3 v=57
529405 On ch=1 n=f#2 v=0
529410 On ch=1 n=d4 v=0
529480 On ch=1 n=c#3 v=79
529500 On ch=1 n=f#3 v=0
529500 On ch=1 n=f#2 v=54
529530 On ch=1 n=a4 v=0
529540 On ch=1 n=c#3 v=0
529560 On ch=1 n=f#2 v=0
529570 On ch=1 n=f#3 v=64
529625 On ch=1 n=c#4 v=102
529630 On ch=1 n=a4 v=82
529630 On ch=1 n=c#5 v=88
529645 On ch=1 n=c#3 v=62
529660 On ch=1 n=f#3 v=0
529670 On ch=1 n=f#2 v=39
529675 On ch=1 n=c#4 v=0
529680 On ch=1 n=c#5 v=0
529680 On ch=1 n=a4 v=0
529705 On ch=1 n=c#3 v=0
529715 On ch=1 n=c#5 v=95
529720 On ch=1 n=f#2 v=0
529720 On ch=1 n=c#4 v=100
529725 On ch=1 n=a4 v=93
529730 On ch=1 n=f#3 v=71
529810 On ch=1 n=f#3 v=0
529850 On ch=1 n=c#3 v=31
529855 On ch=1 n=f#2 v=58
529885 On ch=1 n=a4 v=0
529890 On ch=1 n=f#2 v=0
529900 On ch=1 n=f#3 v=67
529925 On ch=1 n=c#3 v=0
529940 On ch=1 n=c#4 v=0
529955 On ch=1 n=c#5 v=0
529965 On ch=1 n=f#3 v=0
529990 On ch=1 n=c#3 v=65
530005 On ch=1 n=f#2 v=70
530060 On ch=1 n=c#3 v=0
530065 On ch=1 n=f#2 v=0
530075 On ch=1 n=f#3 v=76
530165 On ch=1 n=f#4 v=85
530165 On ch=1 n=c4 v=105
530165 On ch=1 n=d#4 v=88
530170 On ch=1 n=a4 v=80
530175 On ch=1 n=c5 v=85
530185 On ch=1 n=d#3 v=45
530190 On ch=1 n=f#3 v=0
530205 On ch=1 n=c5 v=0
530210 On ch=1 n=d#3 v=0
530215 On ch=1 n=d#4 v=0
530215 On ch=1 n=c4 v=0
530215 On ch=1 n=f#4 v=0
530235 On ch=1 n=a4 v=0
530265 On ch=1 n=c4 v=112
530265 On ch=1 n=c5 v=99
530270 On ch=1 n=f#4 v=75
530270 On ch=1 n=d#4 v=86
530275 On ch=1 n=a4 v=90
530285 On ch=1 n=f#3 v=69
530285 On ch=1 n=d#3 v=65
530295 Par ch=1 c=64 v=56
530310 On ch=1 n=f#2 v=52
530310 Par ch=1 c=64 v=0
530315 On ch=1 n=f#3 v=0
530355 On ch=1 n=d#3 v=0
530375 On ch=1 n=f#2 v=0
530390 Par ch=1 c=64 v=127
530400 On ch=1 n=f#3 v=83
530485 On ch=1 n=f#3 v=0
530495 On ch=1 n=a4 v=0
530525 On ch=1 n=d#4 v=0
530530 On ch=1 n=f#4 v=0
530530 On ch=1 n=c4 v=0
530535 On ch=1 n=f#2 v=56
530550 On ch=1 n=c5 v=0
530615 On ch=1 n=f#3 v=71
530625 On ch=1 n=f#2 v=0
530650 On ch=1 n=d#3 v=70
530690 On ch=1 n=f#3 v=0
530700 On ch=1 n=d#3 v=0
530785 On ch=1 n=g#4 v=85
530785 On ch=1 n=c#4 v=95
530790 On ch=1 n=c#5 v=85
530795 On ch=1 n=f4 v=82
530820 On ch=1 n=f4 v=0
530830 On ch=1 n=c#4 v=0
530850 On ch=1 n=c#5 v=0
530855 On ch=1 n=g#4 v=0
530905 On ch=1 n=c#5 v=89
530905 On ch=1 n=g#4 v=85
530910 On ch=1 n=c#4 v=115
530915 On ch=1 n=f4 v=96
530935 On ch=1 n=c#3 v=105
530940 On ch=1 n=c#2 v=90
530950 Par ch=1 c=64 v=56
530965 Par ch=1 c=64 v=0
531070 Par ch=1 c=64 v=104
531075 On ch=1 n=c#2 v=0
531090 Par ch=1 c=64 v=127
531120 On ch=1 n=c#3 v=0
531165 On ch=1 n=c#4 v=0
531175 On ch=1 n=f4 v=0
531210 On ch=1 n=g#4 v=0
531230 On ch=1 n=c#5 v=0
531955 Par ch=1 c=64 v=72
531970 Par ch=1 c=64 v=0
532050 On ch=1 n=a6 v=105
532050 On ch=1 n=a5 v=109
532050 On ch=1 n=c#6 v=90
532050 On ch=1 n=f#6 v=90
532065 On ch=1 n=f#4 v=86
532065 On ch=1 n=f#5 v=93
532065 On ch=1 n=c#5 v=85
532080 On ch=1 n=a4 v=73
532115 Par ch=1 c=64 v=127
532170 On ch=1 n=f#4 v=0
532175 On ch=1 n=a4 v=0
532180 On ch=1 n=c#5 v=0
532180 On ch=1 n=f#5 v=0
532215 On ch=1 n=a5 v=0
532240 On ch=1 n=c#6 v=0
532290 On ch=1 n=f#6 v=0
532290 On ch=1 n=a6 v=0
532845 Par ch=1 c=64 v=40
532865 Par ch=1 c=64 v=0
533005 Par ch=1 c=64 v=56
533015 On ch=1 n=c#6 v=97
533020 On ch=1 n=g#6 v=95
533020 On ch=1 n=c#7 v=99
533020 On ch=1 n=c#5 v=92
533025 On ch=1 n=g#4 v=79
533025 On ch=1 n=f6 v=90
533025 Par ch=1 c=64 v=127
533030 On ch=1 n=f4 v=74
533030 On ch=1 n=c#4 v=80
533055 On ch=1 n=f4 v=0
533055 On ch=1 n=f6 v=0
533070 On ch=1 n=g#4 v=0
533070 On ch=1 n=c#5 v=0
533075 On ch=1 n=c#6 v=0
533085 On ch=1 n=c#4 v=0
533090 On ch=1 n=g#6 v=0
533105 On ch=1 n=c#7 v=0
533265 Par ch=1 c=64 v=56
533280 Par ch=1 c=64 v=0
533285 On ch=1 n=d#7 v=98
533290 On ch=1 n=d#4 v=86
533290 On ch=1 n=d#6 v=103
533290 On ch=1 n=g#4 v=85
533295 On ch=1 n=c7 v=88
533295 On ch=1 n=g#6 v=85
533300 On ch=1 n=c4 v=82
533305 On ch=1 n=g#3 v=83
533310 Par ch=1 c=64 v=24
533330 On ch=1 n=c4 v=0
533330 Par ch=1 c=64 v=104
533340 On ch=1 n=d#4 v=0
533345 On ch=1 n=g#6 v=0
533345 On ch=1 n=g#4 v=0
533345 Par ch=1 c=64 v=127
533355 On ch=1 n=c7 v=0
533355 On ch=1 n=d#6 v=0
533365 On ch=1 n=g#3 v=0
533400 On ch=1 n=d#7 v=0
533520 Par ch=1 c=64 v=24
533535 Par ch=1 c=64 v=0
533545 On ch=1 n=c#7 v=90
533545 On ch=1 n=f7 v=105
533545 On ch=1 n=f6 v=112
533550 On ch=1 n=g#6 v=93
533555 On ch=1 n=g#3 v=79
533555 On ch=1 n=c#4 v=87
533555 On ch=1 n=f3 v=75
533555 Par ch=1 c=64 v=40
533560 On ch=1 n=c#3 v=88
533570 Par ch=1 c=64 v=104
533580 On ch=1 n=f3 v=0
533585 Par ch=1 c=64 v=127
533605 On ch=1 n=c#3 v=0
533605 On ch=1 n=f6 v=0
533610 On ch=1 n=c#4 v=0
533610 On ch=1 n=g#3 v=0
533620 On ch=1 n=g#6 v=0
533635 On ch=1 n=f7 v=0
533640 On ch=1 n=c#7 v=0
533820 Par ch=1 c=64 v=72
533830 On ch=1 n=g#6 v=102
533830 On ch=1 n=g#7 v=109
533835 On ch=1 n=d#7 v=89
533840 On ch=1 n=c7 v=85
533840 On ch=1 n=g#3 v=81
533840 On ch=1 n=d#4 v=87
533840 On ch=1 n=g#4 v=93
533840 Par ch=1 c=64 v=0
533850 On ch=1 n=c4 v=83
533870 Par ch=1 c=64 v=56
533875 On ch=1 n=c4 v=0
533885 Par ch=1 c=64 v=127
533895 On ch=1 n=g#4 v=0
533895 On ch=1 n=d#4 v=0
533895 On ch=1 n=g#3 v=0
533900 On ch=1 n=c7 v=0
533910 On ch=1 n=g#6 v=0
533935 On ch=1 n=d#7 v=0
533940 On ch=1 n=g#7 v=0
534185 On ch=1 n=c#8 v=110
534185 On ch=1 n=c#7 v=102
534195 On ch=1 n=g#7 v=97
534195 On ch=1 n=f7 v=97
534205 On ch=1 n=c#5 v=97
534205 On ch=1 n=g#4 v=84
534205 On ch=1 n=c#4 v=85
534215 On ch=1 n=f4 v=78
534235 Par ch=1 c=64 v=56
534255 Par ch=1 c=64 v=0
534365 Par ch=1 c=64 v=127
534430 On ch=1 n=c#4 v=0
534440 On ch=1 n=f4 v=0
534445 On ch=1 n=g#4 v=0
534455 On ch=1 n=c#5 v=0
534465 On ch=1 n=c#8 v=0
534480 On ch=1 n=f7 v=0
534480 On ch=1 n=c#7 v=0
534495 On ch=1 n=g#7 v=0
535195 Par ch=1 c=64 v=88
535215 Par ch=1 c=64 v=0
535370 Par ch=1 c=64 v=72
535375 On ch=1 n=c#7 v=99
535380 On ch=1 n=c#6 v=110
535380 On ch=1 n=f#4 v=91
535380 On ch=1 n=f#6 v=97
535385 On ch=1 n=c#5 v=83
535390 On ch=1 n=a#6 v=92
535390 On ch=1 n=f#5 v=95
535390 On ch=1 n=a#4 v=73
535390 Par ch=1 c=64 v=127
535450 On ch=1 n=f#5 v=0
535450 On ch=1 n=f#4 v=0
535455 On ch=1 n=a#4 v=0
535455 On ch=1 n=c#5 v=0
535475 On ch=1 n=c#6 v=0
535490 On ch=1 n=f#6 v=0
535500 On ch=1 n=c#7 v=0
535510 On ch=1 n=a#6 v=0
537110 On ch=1 n=c#5 v=96
537110 On ch=1 n=f4 v=100
537110 On ch=1 n=f2 v=81
537110 On ch=1 n=c#3 v=103
537110 On ch=1 n=g#2 v=89
537110 On ch=1 n=c#2 v=96
537110 On ch=1 n=g#4 v=85
537110 On ch=1 n=c#4 v=108
537120 Par ch=1 c=64 v=0
537165 On ch=1 n=f2 v=0
537170 On ch=1 n=c#3 v=0
537170 Par ch=1 c=64 v=104
537180 On ch=1 n=c#2 v=0
537180 On ch=1 n=g#2 v=0
537185 Par ch=1 c=64 v=127
537190 On ch=1 n=c#4 v=0
537195 On ch=1 n=f4 v=0
537210 On ch=1 n=c#5 v=0
537215 On ch=1 n=g#4 v=0
538015 Par ch=1 c=64 v=104
538035 Par ch=1 c=64 v=72
538050 Par ch=1 c=64 v=40
538065 Par ch=1 c=64 v=0
538081 PrCh ch=1 p=126
538205 On ch=1 n=c5 v=100
547200 Par ch=1 c=7 v=127
547230 Par ch=1 c=7 v=126
547261 Par ch=1 c=7 v=125
547292 Par ch=1 c=7 v=124
547323 Par ch=1 c=7 v=123
547355 Par ch=1 c=7 v=122
547386 Par ch=1 c=7 v=121
547417 Par ch=1 c=7 v=120
547448 Par ch=1 c=7 v=119
547480 Par ch=1 c=7 v=118
547511 Par ch=1 c=7 v=117
547542 Par ch=1 c=7 v=116
547573 Par ch=1 c=7 v=115
547605 Par ch=1 c=7 v=114
547636 Par ch=1 c=7 v=113
547667 Par ch=1 c=7 v=112
547697 Par ch=1 c=7 v=111
547728 Par ch=1 c=7 v=110
547760 Par ch=1 c=7 v=109
547791 Par ch=1 c=7 v=108
547822 Par ch=1 c=7 v=107
547853 Par ch=1 c=7 v=106
547885 Par ch=1 c=7 v=105
547916 Par ch=1 c=7 v=104
547947 Par ch=1 c=7 v=103
547978 Par ch=1 c=7 v=102
548010 Par ch=1 c=7 v=101
548041 Par ch=1 c=7 v=100
548072 Par ch=1 c=7 v=99
548103 Par ch=1 c=7 v=98
548135 Par ch=1 c=7 v=97
548165 Par ch=1 c=7 v=96
548196 Par ch=1 c=7 v=95
548227 Par ch=1 c=7 v=94
548258 Par ch=1 c=7 v=93
548290 Par ch=1 c=7 v=92
548321 Par ch=1 c=7 v=91
548352 Par ch=1 c=7 v=90
548383 Par ch=1 c=7 v=89
548415 Par ch=1 c=7 v=88
548446 Par ch=1 c=7 v=87
548477 Par ch=1 c=7 v=86
548508 Par ch=1 c=7 v=85
548540 Par ch=1 c=7 v=84
548571 Par ch=1 c=7 v=83
548602 Par ch=1 c=7 v=82
548633 Par ch=1 c=7 v=81
548663 Par ch=1 c=7 v=80
548695 Par ch=1 c=7 v=79
548726 Par ch=1 c=7 v=78
548757 Par ch=1 c=7 v=77
548788 Par ch=1 c=7 v=76
548820 Par ch=1 c=7 v=75
548851 Par ch=1 c=7 v=74
548882 Par ch=1 c=7 v=73
548913 Par ch=1 c=7 v=72
548945 Par ch=1 c=7 v=71
548976 Par ch=1 c=7 v=70
549007 Par ch=1 c=7 v=69
549038 Par ch=1 c=7 v=68
549070 Par ch=1 c=7 v=67
549101 Par ch=1 c=7 v=66
549131 Par ch=1 c=7 v=65
549162 Par ch=1 c=7 v=64
549193 Par ch=1 c=7 v=63
549225 Par ch=1 c=7 v=62
549256 Par ch=1 c=7 v=61
549287 Par ch=1 c=7 v=60
549318 Par ch=1 c=7 v=59
549350 Par ch=1 c=7 v=58
549381 Par ch=1 c=7 v=57
549412 Par ch=1 c=7 v=56
549443 Par ch=1 c=7 v=55
549475 Par ch=1 c=7 v=54
549506 Par ch=1 c=7 v=53
549537 Par ch=1 c=7 v=52
549568 Par ch=1 c=7 v=51
549600 Par ch=1 c=7 v=50
549725 On ch=1 n=c5 v=0
549725 Meta TrkEnd
TrkEnd
MTrk
0 SeqSpec 43 00 01 00
0 Meta TrkName "Franz Liszt"
0 Meta 0x21 00
0 Meta TrkEnd
TrkEnd
