MFile 1 5 120
MTrk
0 Meta SeqName "untitled"
0 Meta Copyright "Copyright \xffffffa9 2000 by XMAN98"
0 Meta Text "XMAN98"
0 TimeSig 4/4 24 8
0 KeySig 3 major
0 Tempo 1224490
960 TimeSig 3/4 24 8
1320 TimeSig 4/4 24 8
2280 TimeSig 3/4 24 8
2640 TimeSig 2/4 24 8
3120 TimeSig 9/16 6 8
3150 Tempo 1304348
3180 Tempo 1395349
3210 Tempo 1500000
3240 Tempo 1666667
3270 Tempo 1818182
3300 Tempo 2000000
3330 Tempo 2222222
3360 Tempo 2608696
3390 TimeSig 10/16 6 8
3390 Tempo 1224490
3690 TimeSig 2/4 24 8
3930 TimeSig 3/4 24 8
4290 TimeSig 2/4 24 8
4530 TimeSig 4/4 24 8
5010 TimeSig 9/8 12 8
5550 TimeSig 2/4 24 8
5790 TimeSig 3/4 24 8
6150 TimeSig 2/4 24 8
6390 TimeSig 3/4 24 8
6750 TimeSig 2/8 12 8
6870 TimeSig 2/4 24 8
7110 TimeSig 9/16 6 8
7380 TimeSig 3/4 24 8
7740 TimeSig 2/4 24 8
8700 TimeSig 9/16 6 8
9240 TimeSig 3/4 24 8
9270 Tempo 1304348
9300 Tempo 1395349
9330 Tempo 1500000
9360 Tempo 1666667
9390 Tempo 1818182
9420 Tempo 2000000
9450 Tempo 2222222
9480 Tempo 2608696
9600 TimeSig 5/8 12 8
9600 Tempo 1224490
9900 TimeSig 1/8 12 8
9960 TimeSig 2/4 24 8
10200 TimeSig 7/8 12 8
10620 TimeSig 2/4 24 8
10860 TimeSig 4/4 24 8
11340 TimeSig 2/4 24 8
12300 TimeSig 9/16 6 8
12330 Tempo 1304348
12360 Tempo 1395349
12390 Tempo 1500000
12420 Tempo 1666667
12450 Tempo 1818182
12480 Tempo 2000000
12510 Tempo 2222222
12540 Tempo 2608696
12570 TimeSig 2/4 24 8
12570 Tempo 1224490
13770 TimeSig 3/16 6 8
13860 TimeSig 3/8 12 8
14040 TimeSig 2/4 24 8
14280 TimeSig 3/16 6 8
14370 TimeSig 1/32 3 8
14385 TimeSig 2/4 24 8
14865 TimeSig 1/4 24 8
14985 TimeSig 2/4 24 8
15165 Tempo 1304348
15195 Tempo 1395349
15225 TimeSig 5/8 12 8
15225 Tempo 1500000
15255 Tempo 1666667
15285 Tempo 1818182
15315 Tempo 2000000
15345 Tempo 2222222
15375 Tempo 2608696
15525 TimeSig 2/4 24 8
15525 KeySig 6 major
15525 Tempo 594059
20805 KeySig -2 major
20805 Tempo 517241
21765 Tempo 517241
22725 KeySig 6 major
25845 Tempo 594059
26085 Tempo 594059
26325 Tempo 594059
26565 TimeSig 9/16 6 8
26835 TimeSig 2/4 24 8
27075 TimeSig 9/16 6 8
27345 TimeSig 2/4 24 8
28785 Tempo 517241
29745 Tempo 517241
36945 Tempo 458015
38625 Tempo 594059
38865 TimeSig 1/4 24 8
38985 TimeSig 2/4 24 8
39225 Tempo 326087
39945 Tempo 326087
40665 Tempo 326087
41385 Tempo 326087
45945 Tempo 326087
46665 Tempo 326087
47385 Tempo 326087
48105 Tempo 326087
48765 Tempo 355030
52350 Tempo 458015
52485 Tempo 517241
52650 Tempo 594059
52695 Tempo 612245
52725 Tempo 631579
52755 Tempo 652174
52785 Tempo 681818
52815 Tempo 705882
52845 Tempo 731707
52875 Tempo 759494
52905 Tempo 333333
53145 Tempo 326087
53865 Tempo 326087
54585 Tempo 326087
55305 Tempo 326087
58905 Tempo 594059
59145 TimeSig 3/4 24 8
59145 Meta TrkEnd
TrkEnd
MTrk
0 Meta 0x21 00
0 Meta TrkName "Grand Piano"
0 PrCh ch=1 p=0
0 Par ch=1 c=7 v=127
0 Par ch=1 c=10 v=97
1800 On ch=1 n=a5 v=64
1860 On ch=1 n=a5 v=0
2280 On ch=1 n=c6 v=82
2280 On ch=1 n=f#6 v=90
2370 On ch=1 n=f#6 v=0
2370 On ch=1 n=c6 v=0
2370 On ch=1 n=f6 v=90
2400 On ch=1 n=f6 v=0
2640 On ch=1 n=d5 v=88
2655 On ch=1 n=d5 v=0
2655 On ch=1 n=d5 v=127
2780 On ch=1 n=d5 v=0
2780 On ch=1 n=c#5 v=88
2799 On ch=1 n=c5 v=88
2800 On ch=1 n=c#5 v=0
2819 On ch=1 n=c5 v=0
2820 On ch=1 n=c#5 v=88
2840 On ch=1 n=c#5 v=0
2840 On ch=1 n=f5 v=88
2859 On ch=1 n=f#5 v=88
2860 On ch=1 n=f5 v=0
2879 On ch=1 n=f#5 v=0
2880 On ch=1 n=g5 v=114
3020 On ch=1 n=g5 v=0
3020 On ch=1 n=f#5 v=88
3039 On ch=1 n=f5 v=88
3040 On ch=1 n=f#5 v=0
3059 On ch=1 n=f5 v=0
3060 On ch=1 n=f#5 v=88
3080 On ch=1 n=f#5 v=0
3080 On ch=1 n=a#5 v=88
3099 On ch=1 n=b5 v=88
3100 On ch=1 n=a#5 v=0
3119 On ch=1 n=b5 v=0
3126 On ch=1 n=e3 v=88
3132 On ch=1 n=a4 v=88
3138 On ch=1 n=c5 v=88
3144 On ch=1 n=e5 v=88
3150 Par ch=1 c=64 v=127
3150 On ch=1 n=c6 v=88
3255 On ch=1 n=c6 v=0
3255 On ch=1 n=c5 v=0
3255 On ch=1 n=e3 v=0
3255 On ch=1 n=a4 v=0
3255 On ch=1 n=e5 v=0
3255 On ch=1 n=b5 v=88
3270 On ch=1 n=b5 v=0
3270 On ch=1 n=c6 v=88
3277 On ch=1 n=b5 v=88
3278 On ch=1 n=c6 v=0
3307 On ch=1 n=b5 v=0
3307 On ch=1 n=a5 v=88
3322 On ch=1 n=a5 v=0
3322 On ch=1 n=a5 v=88
3375 On ch=1 n=a5 v=0
3375 Par ch=1 c=64 v=0
3375 On ch=1 n=e6 v=88
3390 On ch=1 n=e6 v=0
3395 On ch=1 n=f3 v=104
3400 On ch=1 n=c4 v=106
3405 On ch=1 n=a4 v=108
3410 On ch=1 n=d#5 v=110
3415 On ch=1 n=a5 v=112
3420 Par ch=1 c=64 v=127
3420 On ch=1 n=e6 v=114
3540 On ch=1 n=a5 v=0
3540 On ch=1 n=d#5 v=0
3540 On ch=1 n=a4 v=0
3540 On ch=1 n=f3 v=0
3540 On ch=1 n=c4 v=0
3562 On ch=1 n=d#6 v=88
3563 On ch=1 n=e6 v=0
3577 On ch=1 n=d#6 v=0
3577 On ch=1 n=d#6 v=88
3600 On ch=1 n=d#6 v=0
3600 On ch=1 n=c6 v=88
3607 On ch=1 n=c6 v=88
3608 On ch=1 n=c6 v=0
3630 On ch=1 n=c6 v=0
3630 On ch=1 n=b5 v=88
3637 On ch=1 n=b5 v=88
3638 On ch=1 n=b5 v=0
3652 On ch=1 n=b5 v=0
3652 On ch=1 n=a5 v=88
3660 On ch=1 n=a5 v=0
3660 On ch=1 n=a5 v=88
3682 Par ch=1 c=64 v=0
3682 On ch=1 n=g#5 v=88
3683 On ch=1 n=a5 v=0
3690 On ch=1 n=g#5 v=0
3690 Par ch=1 c=64 v=127
3690 On ch=1 n=a5 v=88
3705 On ch=1 n=a5 v=0
3705 On ch=1 n=g#5 v=88
3720 On ch=1 n=g#5 v=0
3720 On ch=1 n=a5 v=88
3735 On ch=1 n=a5 v=0
3735 On ch=1 n=g#5 v=88
3742 On ch=1 n=a5 v=88
3743 On ch=1 n=g#5 v=0
3750 On ch=1 n=a5 v=0
3750 On ch=1 n=g#5 v=88
3757 On ch=1 n=a5 v=88
3758 On ch=1 n=g#5 v=0
3765 On ch=1 n=a5 v=0
3765 On ch=1 n=g#5 v=88
3772 On ch=1 n=a5 v=88
3773 On ch=1 n=g#5 v=0
3780 On ch=1 n=a5 v=0
3780 On ch=1 n=g#5 v=88
3787 On ch=1 n=a5 v=88
3788 On ch=1 n=g#5 v=0
3795 On ch=1 n=a5 v=0
3795 On ch=1 n=g#5 v=88
3802 On ch=1 n=a5 v=88
3803 On ch=1 n=g#5 v=0
3810 On ch=1 n=a5 v=0
3810 On ch=1 n=g#5 v=88
3817 On ch=1 n=a5 v=88
3818 On ch=1 n=g#5 v=0
3825 On ch=1 n=a5 v=0
3825 On ch=1 n=g#5 v=88
3832 On ch=1 n=a5 v=88
3833 On ch=1 n=g#5 v=0
3840 On ch=1 n=a5 v=0
3840 On ch=1 n=g#5 v=88
3847 On ch=1 n=a5 v=88
3848 On ch=1 n=g#5 v=0
3855 On ch=1 n=a5 v=0
3855 On ch=1 n=g#5 v=88
3862 On ch=1 n=a5 v=88
3863 On ch=1 n=g#5 v=0
3870 On ch=1 n=a5 v=0
3870 On ch=1 n=g#5 v=88
3877 On ch=1 n=a5 v=88
3878 On ch=1 n=g#5 v=0
3885 On ch=1 n=a5 v=0
3885 On ch=1 n=g#5 v=88
3892 On ch=1 n=a5 v=88
3893 On ch=1 n=g#5 v=0
3900 On ch=1 n=a5 v=0
3900 On ch=1 n=g#5 v=88
3907 On ch=1 n=a5 v=88
3908 On ch=1 n=g#5 v=0
3915 On ch=1 n=a5 v=0
3915 On ch=1 n=g#5 v=88
3922 On ch=1 n=a5 v=88
3923 On ch=1 n=g#5 v=0
3930 On ch=1 n=a5 v=0
3930 On ch=1 n=g#5 v=88
3937 On ch=1 n=a5 v=88
3938 On ch=1 n=g#5 v=0
3945 On ch=1 n=a5 v=0
3945 On ch=1 n=g#5 v=88
3952 On ch=1 n=a5 v=88
3953 On ch=1 n=g#5 v=0
3960 On ch=1 n=a5 v=0
3960 On ch=1 n=g#5 v=88
3967 On ch=1 n=a5 v=88
3968 On ch=1 n=g#5 v=0
3975 On ch=1 n=a5 v=0
3975 On ch=1 n=g#5 v=88
3982 On ch=1 n=a5 v=88
3983 On ch=1 n=g#5 v=0
3990 On ch=1 n=a5 v=0
3990 On ch=1 n=g#5 v=88
3997 On ch=1 n=a5 v=88
3998 On ch=1 n=g#5 v=0
4005 On ch=1 n=a5 v=0
4005 On ch=1 n=g#5 v=88
4012 On ch=1 n=a5 v=88
4013 On ch=1 n=g#5 v=0
4020 On ch=1 n=a5 v=0
4020 On ch=1 n=g#5 v=88
4027 On ch=1 n=a5 v=88
4028 On ch=1 n=g#5 v=0
4035 On ch=1 n=a5 v=0
4035 On ch=1 n=g#5 v=88
4042 Par ch=1 c=64 v=0
4042 On ch=1 n=a5 v=88
4043 On ch=1 n=g#5 v=0
4050 On ch=1 n=a5 v=0
4050 On ch=1 n=f#5 v=88
4080 On ch=1 n=f#5 v=0
4080 On ch=1 n=g#5 v=88
4110 On ch=1 n=g#5 v=0
4110 On ch=1 n=b5 v=88
4170 On ch=1 n=b5 v=0
4170 On ch=1 n=a5 v=88
4260 On ch=1 n=a5 v=0
4260 On ch=1 n=g#5 v=88
4290 On ch=1 n=g#5 v=0
5550 On ch=1 n=c#5 v=88
5565 On ch=1 n=c#5 v=0
5565 On ch=1 n=c#5 v=88
5655 On ch=1 n=c#5 v=0
5655 On ch=1 n=c#5 v=88
5670 On ch=1 n=c#5 v=0
5670 On ch=1 n=f#5 v=88
5775 On ch=1 n=f#5 v=0
5775 On ch=1 n=e5 v=88
5790 On ch=1 n=e5 v=0
5790 On ch=1 n=e5 v=88
5850 On ch=1 n=e5 v=0
5850 On ch=1 n=d5 v=88
5910 On ch=1 n=d5 v=0
5910 On ch=1 n=c#5 v=88
5970 On ch=1 n=c#5 v=0
6150 On ch=1 n=c#5 v=88
6240 On ch=1 n=c#5 v=0
6240 On ch=1 n=c#5 v=88
6270 On ch=1 n=c#5 v=0
6270 On ch=1 n=f#5 v=88
6315 On ch=1 n=f#5 v=0
6315 On ch=1 n=f5 v=88
6330 On ch=1 n=f5 v=0
6330 On ch=1 n=f#5 v=88
6330 On ch=1 n=a5 v=88
6330 On ch=1 n=d6 v=88
6330 On ch=1 n=f#6 v=88
6375 On ch=1 n=d#5 v=88
6390 On ch=1 n=d#5 v=0
6390 On ch=1 n=d6 v=0
6390 On ch=1 n=f#5 v=0
6390 On ch=1 n=a5 v=0
6390 On ch=1 n=f#6 v=0
6390 On ch=1 n=e5 v=88
6465 On ch=1 n=c#5 v=88
6480 On ch=1 n=c#5 v=0
6480 On ch=1 n=e5 v=0
6480 On ch=1 n=d5 v=88
6555 On ch=1 n=c5 v=88
6570 On ch=1 n=c5 v=0
6570 On ch=1 n=d5 v=0
6570 On ch=1 n=c#5 v=88
6645 On ch=1 n=a#4 v=88
6660 On ch=1 n=a#4 v=0
6660 On ch=1 n=c#5 v=0
6660 On ch=1 n=b4 v=88
6750 On ch=1 n=b4 v=0
6810 On ch=1 n=a4 v=88
6845 On ch=1 n=f#3 v=88
6850 On ch=1 n=c#4 v=88
6855 On ch=1 n=f#4 v=88
6860 On ch=1 n=a4 v=88
6865 On ch=1 n=c#5 v=88
6870 On ch=1 n=a4 v=0
6870 Par ch=1 c=64 v=127
6870 On ch=1 n=a5 v=88
6975 On ch=1 n=a5 v=0
6975 On ch=1 n=c#5 v=0
6975 On ch=1 n=f#4 v=0
6975 On ch=1 n=f#3 v=0
6975 On ch=1 n=c#4 v=0
6975 On ch=1 n=a4 v=0
6975 On ch=1 n=g#5 v=88
6982 On ch=1 n=a5 v=88
6983 On ch=1 n=g#5 v=0
6990 On ch=1 n=a5 v=0
6990 On ch=1 n=g#5 v=88
7035 On ch=1 n=g#5 v=0
7035 On ch=1 n=f#5 v=88
7042 On ch=1 n=g#5 v=88
7043 On ch=1 n=f#5 v=0
7050 On ch=1 n=g#5 v=0
7050 On ch=1 n=f#5 v=88
7095 On ch=1 n=f#5 v=0
7095 Par ch=1 c=64 v=0
7095 On ch=1 n=c#6 v=88
7103 On ch=1 n=c#6 v=0
7113 On ch=1 n=d3 v=88
7119 On ch=1 n=f#4 v=88
7125 On ch=1 n=a4 v=88
7131 On ch=1 n=f#5 v=88
7137 Par ch=1 c=64 v=127
7137 On ch=1 n=c#6 v=88
7242 On ch=1 n=c#6 v=0
7242 On ch=1 n=a4 v=0
7242 On ch=1 n=d3 v=0
7242 On ch=1 n=f#4 v=0
7242 On ch=1 n=f#5 v=0
7242 On ch=1 n=c6 v=88
7257 On ch=1 n=c6 v=0
7257 On ch=1 n=c6 v=88
7279 On ch=1 n=a5 v=88
7280 On ch=1 n=c6 v=0
7287 On ch=1 n=a5 v=0
7287 On ch=1 n=a5 v=88
7309 On ch=1 n=g#5 v=88
7310 On ch=1 n=a5 v=0
7317 On ch=1 n=g#5 v=0
7317 On ch=1 n=g#5 v=88
7339 On ch=1 n=f#5 v=88
7340 On ch=1 n=g#5 v=0
7347 On ch=1 n=f#5 v=0
7347 On ch=1 n=f#5 v=88
7369 Par ch=1 c=64 v=0
7369 On ch=1 n=f5 v=88
7370 On ch=1 n=f#5 v=0
7377 On ch=1 n=f5 v=0
8442 Par ch=1 c=64 v=127
8442 On ch=1 n=a4 v=88
8442 On ch=1 n=c#5 v=88
8442 On ch=1 n=a5 v=88
8457 On ch=1 n=a5 v=0
8457 On ch=1 n=c#5 v=0
8457 On ch=1 n=a4 v=0
8457 Par ch=1 c=64 v=127
8457 On ch=1 n=a4 v=104
8457 On ch=1 n=c#5 v=109
8457 On ch=1 n=a5 v=114
8577 On ch=1 n=c#5 v=0
8577 On ch=1 n=a4 v=0
8584 On ch=1 n=g#5 v=88
8585 On ch=1 n=a5 v=0
8592 On ch=1 n=g#5 v=0
8592 On ch=1 n=f#5 v=88
8599 On ch=1 n=c#5 v=88
8600 On ch=1 n=f#5 v=0
8607 On ch=1 n=c#5 v=0
8727 On ch=1 n=f#5 v=88
8734 On ch=1 n=g#5 v=88
8735 On ch=1 n=f#5 v=0
8742 On ch=1 n=g#5 v=0
8742 On ch=1 n=a5 v=88
8749 On ch=1 n=c#6 v=88
8750 On ch=1 n=a5 v=0
8757 On ch=1 n=c#6 v=0
8757 On ch=1 n=f#6 v=88
8764 On ch=1 n=g#6 v=88
8765 On ch=1 n=f#6 v=0
8772 On ch=1 n=g#6 v=0
8772 On ch=1 n=a6 v=88
8817 On ch=1 n=a6 v=0
8817 On ch=1 n=g#6 v=88
8832 On ch=1 n=g#6 v=0
8832 On ch=1 n=g#6 v=88
8839 On ch=1 n=a6 v=88
8840 On ch=1 n=g#6 v=0
8847 On ch=1 n=a6 v=0
8847 On ch=1 n=g#6 v=88
8892 On ch=1 n=g#6 v=0
8892 On ch=1 n=f#6 v=88
8907 On ch=1 n=f#6 v=0
8907 On ch=1 n=f#6 v=88
8952 On ch=1 n=f#6 v=0
8952 Par ch=1 c=64 v=0
8952 On ch=1 n=c#7 v=88
8967 On ch=1 n=c#7 v=0
8977 On ch=1 n=a5 v=104
8987 On ch=1 n=f#6 v=109
8997 Par ch=1 c=64 v=127
8997 On ch=1 n=c#7 v=114
9087 On ch=1 n=c#7 v=0
9087 On ch=1 n=f#6 v=0
9087 On ch=1 n=a5 v=0
9087 On ch=1 n=c7 v=88
9117 On ch=1 n=c7 v=0
9117 On ch=1 n=c7 v=88
9139 On ch=1 n=a6 v=88
9140 On ch=1 n=c7 v=0
9147 On ch=1 n=a6 v=0
9147 On ch=1 n=a6 v=88
9169 On ch=1 n=g#6 v=88
9170 On ch=1 n=a6 v=0
9177 On ch=1 n=g#6 v=0
9177 On ch=1 n=g#6 v=88
9199 On ch=1 n=f#6 v=88
9200 On ch=1 n=g#6 v=0
9207 On ch=1 n=f#6 v=0
9207 On ch=1 n=f#6 v=88
9229 Par ch=1 c=64 v=0
9229 On ch=1 n=f6 v=88
9230 On ch=1 n=f#6 v=0
9237 On ch=1 n=f6 v=0
13272 On ch=1 n=a5 v=88
13272 On ch=1 n=c#6 v=88
13272 On ch=1 n=a6 v=88
13287 On ch=1 n=a6 v=0
13287 On ch=1 n=c#6 v=0
13287 On ch=1 n=a5 v=0
13287 Par ch=1 c=64 v=127
13287 On ch=1 n=a5 v=104
13287 On ch=1 n=c#6 v=109
13287 On ch=1 n=a6 v=114
13407 On ch=1 n=c#6 v=0
13407 On ch=1 n=a5 v=0
13414 On ch=1 n=g#6 v=88
13415 On ch=1 n=a6 v=0
13422 On ch=1 n=g#6 v=0
13422 On ch=1 n=f#6 v=88
13429 On ch=1 n=c#6 v=88
13430 On ch=1 n=f#6 v=0
13437 On ch=1 n=c#6 v=0
13437 On ch=1 n=a5 v=88
13444 On ch=1 n=g#5 v=88
13445 On ch=1 n=a5 v=0
13452 On ch=1 n=g#5 v=0
13452 On ch=1 n=f#5 v=88
13459 On ch=1 n=c#5 v=88
13460 On ch=1 n=f#5 v=0
13467 On ch=1 n=c#5 v=0
13467 On ch=1 n=a4 v=88
13474 On ch=1 n=g#4 v=88
13475 On ch=1 n=a4 v=0
13482 On ch=1 n=g#4 v=0
13482 On ch=1 n=f#4 v=88
13489 On ch=1 n=f4 v=88
13490 On ch=1 n=f#4 v=0
13497 On ch=1 n=f4 v=0
13497 On ch=1 n=f#4 v=88
13504 On ch=1 n=g#4 v=88
13505 On ch=1 n=f#4 v=0
13512 On ch=1 n=g#4 v=0
13512 On ch=1 n=a4 v=88
13519 On ch=1 n=c#5 v=88
13520 On ch=1 n=a4 v=0
13527 On ch=1 n=c#5 v=0
13527 On ch=1 n=f#5 v=88
13534 On ch=1 n=g#5 v=88
13535 On ch=1 n=f#5 v=0
13542 On ch=1 n=g#5 v=0
13542 On ch=1 n=a5 v=88
13549 On ch=1 n=c#6 v=88
13550 On ch=1 n=a5 v=0
13557 On ch=1 n=c#6 v=0
13557 On ch=1 n=f#6 v=88
13564 On ch=1 n=g#6 v=88
13565 On ch=1 n=f#6 v=0
13572 On ch=1 n=g#6 v=0
13572 On ch=1 n=a6 v=88
13579 On ch=1 n=c#7 v=88
13580 On ch=1 n=a6 v=0
13587 On ch=1 n=c#7 v=0
13587 On ch=1 n=f#7 v=88
13594 On ch=1 n=g#7 v=88
13595 On ch=1 n=f#7 v=0
13602 On ch=1 n=g#7 v=0
13602 On ch=1 n=a7 v=88
13609 On ch=1 n=g#7 v=88
13610 On ch=1 n=a7 v=0
13617 On ch=1 n=g#7 v=0
13617 On ch=1 n=f#7 v=88
13624 On ch=1 n=f7 v=88
13625 On ch=1 n=f#7 v=0
13632 On ch=1 n=f7 v=0
13632 On ch=1 n=a7 v=88
13639 On ch=1 n=g#7 v=88
13640 On ch=1 n=a7 v=0
13647 On ch=1 n=g#7 v=0
13647 On ch=1 n=f#7 v=88
13654 On ch=1 n=f7 v=88
13655 On ch=1 n=f#7 v=0
13662 On ch=1 n=f7 v=0
13662 On ch=1 n=a7 v=88
13669 On ch=1 n=g#7 v=88
13670 On ch=1 n=a7 v=0
13677 On ch=1 n=g#7 v=0
13677 On ch=1 n=f#7 v=88
13684 On ch=1 n=f7 v=88
13685 On ch=1 n=f#7 v=0
13692 On ch=1 n=f7 v=0
13692 On ch=1 n=a7 v=88
13699 On ch=1 n=g#7 v=88
13700 On ch=1 n=a7 v=0
13707 On ch=1 n=g#7 v=0
13707 On ch=1 n=f#7 v=88
13714 On ch=1 n=f7 v=88
13715 On ch=1 n=f#7 v=0
13722 On ch=1 n=f7 v=0
13722 On ch=1 n=a7 v=88
13729 On ch=1 n=g#7 v=88
13730 On ch=1 n=a7 v=0
13737 On ch=1 n=g#7 v=0
13737 On ch=1 n=f#7 v=88
13744 On ch=1 n=f7 v=88
13745 On ch=1 n=f#7 v=0
13752 On ch=1 n=f7 v=0
13752 On ch=1 n=a7 v=114
13759 On ch=1 n=g#7 v=114
13760 On ch=1 n=a7 v=0
13767 On ch=1 n=g#7 v=0
13767 On ch=1 n=f#7 v=114
13774 On ch=1 n=f7 v=114
13775 On ch=1 n=f#7 v=0
13782 On ch=1 n=f7 v=0
13782 On ch=1 n=a7 v=114
13789 On ch=1 n=g#7 v=114
13790 On ch=1 n=a7 v=0
13797 On ch=1 n=g#7 v=0
13797 On ch=1 n=f#7 v=114
13804 On ch=1 n=f7 v=114
13805 On ch=1 n=f#7 v=0
13812 On ch=1 n=f7 v=0
13812 On ch=1 n=a7 v=114
13819 On ch=1 n=g#7 v=114
13820 On ch=1 n=a7 v=0
13827 On ch=1 n=g#7 v=0
13827 On ch=1 n=f#7 v=114
13834 On ch=1 n=f7 v=114
13835 On ch=1 n=f#7 v=0
13842 On ch=1 n=f7 v=0
13842 On ch=1 n=a7 v=114
13849 On ch=1 n=g#7 v=114
13850 On ch=1 n=a7 v=0
13857 On ch=1 n=g#7 v=0
13857 On ch=1 n=f#7 v=114
13864 On ch=1 n=f7 v=114
13865 On ch=1 n=f#7 v=0
13872 On ch=1 n=f7 v=0
13872 On ch=1 n=a7 v=114
13879 On ch=1 n=g#7 v=114
13880 On ch=1 n=a7 v=0
13887 On ch=1 n=g#7 v=0
13887 On ch=1 n=f#7 v=114
13894 On ch=1 n=f7 v=114
13895 On ch=1 n=f#7 v=0
13902 On ch=1 n=f7 v=0
13902 On ch=1 n=a7 v=114
13909 On ch=1 n=g#7 v=114
13910 On ch=1 n=a7 v=0
13917 On ch=1 n=g#7 v=0
13917 On ch=1 n=f#7 v=114
13924 On ch=1 n=f7 v=114
13925 On ch=1 n=f#7 v=0
13932 On ch=1 n=f7 v=0
13932 On ch=1 n=f#7 v=127
13932 On ch=1 n=a7 v=127
13955 On ch=1 n=a7 v=0
13955 On ch=1 n=f#7 v=0
13969 On ch=1 n=c#7 v=114
13969 On ch=1 n=g#7 v=114
13977 On ch=1 n=g#7 v=0
13977 On ch=1 n=c#7 v=0
13977 On ch=1 n=c#7 v=114
13977 On ch=1 n=g#7 v=114
13999 On ch=1 n=a6 v=114
13999 On ch=1 n=f#7 v=114
14000 On ch=1 n=g#7 v=0
14000 On ch=1 n=c#7 v=0
14007 On ch=1 n=a6 v=0
14007 On ch=1 n=f#7 v=0
14007 On ch=1 n=a6 v=114
14007 On ch=1 n=f#7 v=114
14029 Par ch=1 c=64 v=0
14029 On ch=1 n=c#8 v=114
14030 On ch=1 n=f#7 v=0
14030 On ch=1 n=a6 v=0
14037 On ch=1 n=c#8 v=0
14067 Par ch=1 c=64 v=127
14067 On ch=1 n=c#8 v=127
14164 On ch=1 n=c8 v=101
14165 On ch=1 n=c#8 v=0
14172 On ch=1 n=c8 v=0
14172 On ch=1 n=c8 v=101
14179 On ch=1 n=a7 v=101
14180 On ch=1 n=c8 v=0
14187 On ch=1 n=a7 v=0
14187 On ch=1 n=a7 v=101
14194 On ch=1 n=g#7 v=101
14195 On ch=1 n=a7 v=0
14202 On ch=1 n=g#7 v=0
14202 On ch=1 n=g#7 v=101
14209 On ch=1 n=f#7 v=101
14210 On ch=1 n=g#7 v=0
14217 On ch=1 n=f#7 v=0
14217 On ch=1 n=f#7 v=101
14224 On ch=1 n=c#7 v=101
14225 On ch=1 n=f#7 v=0
14232 On ch=1 n=c#7 v=0
14232 On ch=1 n=c#7 v=101
14239 On ch=1 n=c7 v=101
14240 On ch=1 n=c#7 v=0
14247 On ch=1 n=c7 v=0
14247 On ch=1 n=c7 v=101
14254 On ch=1 n=a6 v=101
14255 On ch=1 n=c7 v=0
14262 On ch=1 n=a6 v=0
14262 On ch=1 n=a6 v=101
14269 On ch=1 n=g#6 v=101
14270 On ch=1 n=a6 v=0
14277 On ch=1 n=g#6 v=0
14277 On ch=1 n=g#6 v=101
14284 On ch=1 n=f#6 v=101
14285 On ch=1 n=g#6 v=0
14292 On ch=1 n=f#6 v=0
14292 On ch=1 n=f#6 v=101
14299 On ch=1 n=c#6 v=101
14300 On ch=1 n=f#6 v=0
14307 On ch=1 n=c#6 v=0
14307 Par ch=1 c=64 v=0
14307 On ch=1 n=c#6 v=101
14314 On ch=1 n=c6 v=101
14315 On ch=1 n=c#6 v=0
14322 On ch=1 n=c6 v=0
14322 On ch=1 n=c6 v=101
14329 On ch=1 n=b5 v=101
14330 On ch=1 n=c6 v=0
14337 On ch=1 n=b5 v=0
14337 On ch=1 n=b5 v=101
14344 On ch=1 n=a#5 v=101
14345 On ch=1 n=b5 v=0
14352 On ch=1 n=a#5 v=0
14352 On ch=1 n=a#5 v=101
14359 On ch=1 n=a5 v=101
14360 On ch=1 n=a#5 v=0
14367 On ch=1 n=a5 v=0
14367 On ch=1 n=a5 v=101
14374 On ch=1 n=g#5 v=101
14375 On ch=1 n=a5 v=0
14382 On ch=1 n=g#5 v=0
14382 Par ch=1 c=64 v=127
14382 On ch=1 n=a5 v=101
14397 On ch=1 n=a5 v=0
14397 On ch=1 n=g#5 v=101
14412 On ch=1 n=g#5 v=0
14412 On ch=1 n=a5 v=101
14419 On ch=1 n=g#5 v=101
14420 On ch=1 n=a5 v=0
14427 On ch=1 n=g#5 v=0
14427 On ch=1 n=a5 v=101
14434 On ch=1 n=g#5 v=101
14435 On ch=1 n=a5 v=0
14442 On ch=1 n=g#5 v=0
14442 On ch=1 n=a5 v=101
14449 On ch=1 n=g#5 v=101
14450 On ch=1 n=a5 v=0
14457 On ch=1 n=g#5 v=0
14457 On ch=1 n=a5 v=101
14464 On ch=1 n=g#5 v=101
14465 On ch=1 n=a5 v=0
14472 On ch=1 n=g#5 v=0
14472 On ch=1 n=a5 v=101
14479 On ch=1 n=g#5 v=101
14480 On ch=1 n=a5 v=0
14487 On ch=1 n=g#5 v=0
14487 On ch=1 n=a5 v=101
14494 On ch=1 n=g#5 v=101
14495 On ch=1 n=a5 v=0
14502 On ch=1 n=g#5 v=0
14502 On ch=1 n=a5 v=101
14509 On ch=1 n=g#5 v=101
14510 On ch=1 n=a5 v=0
14517 On ch=1 n=g#5 v=0
14517 On ch=1 n=a5 v=101
14524 On ch=1 n=g#5 v=101
14525 On ch=1 n=a5 v=0
14532 On ch=1 n=g#5 v=0
14532 On ch=1 n=a5 v=101
14539 On ch=1 n=g#5 v=101
14540 On ch=1 n=a5 v=0
14547 On ch=1 n=g#5 v=0
14547 On ch=1 n=a5 v=101
14554 On ch=1 n=g#5 v=101
14555 On ch=1 n=a5 v=0
14562 On ch=1 n=g#5 v=0
14562 On ch=1 n=a5 v=101
14569 On ch=1 n=g#5 v=101
14570 On ch=1 n=a5 v=0
14577 On ch=1 n=g#5 v=0
14577 On ch=1 n=a5 v=101
14584 On ch=1 n=g#5 v=101
14585 On ch=1 n=a5 v=0
14592 On ch=1 n=g#5 v=0
14592 On ch=1 n=a5 v=101
14599 On ch=1 n=g#5 v=101
14600 On ch=1 n=a5 v=0
14607 On ch=1 n=g#5 v=0
14607 Par ch=1 c=64 v=0
14607 On ch=1 n=a5 v=101
14614 On ch=1 n=g#5 v=101
14615 On ch=1 n=a5 v=0
14622 On ch=1 n=g#5 v=0
14622 On ch=1 n=a5 v=101
14629 On ch=1 n=g#5 v=101
14630 On ch=1 n=a5 v=0
14637 On ch=1 n=g#5 v=0
14637 On ch=1 n=f#5 v=101
14644 On ch=1 n=f5 v=101
14645 On ch=1 n=f#5 v=0
14652 On ch=1 n=f5 v=0
14652 On ch=1 n=f#5 v=101
14659 On ch=1 n=g#5 v=101
14660 On ch=1 n=f#5 v=0
14667 On ch=1 n=g#5 v=0
14667 On ch=1 n=a5 v=101
14674 On ch=1 n=a#5 v=101
14675 On ch=1 n=a5 v=0
14682 On ch=1 n=a#5 v=0
14682 On ch=1 n=b5 v=101
14689 On ch=1 n=c#6 v=101
14690 On ch=1 n=b5 v=0
14697 On ch=1 n=c#6 v=0
14697 On ch=1 n=d6 v=101
14704 On ch=1 n=c#6 v=101
14705 On ch=1 n=d6 v=0
14712 On ch=1 n=c#6 v=0
14712 On ch=1 n=e6 v=101
14719 On ch=1 n=d6 v=101
14720 On ch=1 n=e6 v=0
14727 On ch=1 n=d6 v=0
14727 On ch=1 n=c#6 v=101
14734 On ch=1 n=b5 v=101
14735 On ch=1 n=c#6 v=0
14742 On ch=1 n=b5 v=0
14742 On ch=1 n=a5 v=101
14749 On ch=1 n=g#5 v=101
14750 On ch=1 n=a5 v=0
14757 On ch=1 n=g#5 v=0
14757 On ch=1 n=f#5 v=101
14764 On ch=1 n=f5 v=101
14765 On ch=1 n=f#5 v=0
14772 On ch=1 n=f5 v=0
14772 On ch=1 n=f#5 v=101
14779 On ch=1 n=g#5 v=101
14780 On ch=1 n=f#5 v=0
14787 On ch=1 n=g#5 v=0
14787 On ch=1 n=a5 v=101
14794 On ch=1 n=a#5 v=101
14795 On ch=1 n=a5 v=0
14802 On ch=1 n=a#5 v=0
14802 On ch=1 n=b5 v=101
14809 On ch=1 n=c#6 v=101
14810 On ch=1 n=b5 v=0
14817 On ch=1 n=c#6 v=0
14817 On ch=1 n=d6 v=101
14824 On ch=1 n=c#6 v=101
14825 On ch=1 n=d6 v=0
14832 On ch=1 n=c#6 v=0
14832 On ch=1 n=e6 v=101
14839 On ch=1 n=d6 v=101
14840 On ch=1 n=e6 v=0
14847 On ch=1 n=d6 v=0
14847 On ch=1 n=f#6 v=101
14854 On ch=1 n=f6 v=101
14855 On ch=1 n=f#6 v=0
14862 On ch=1 n=f6 v=0
14862 Par ch=1 c=64 v=127
14862 On ch=1 n=a6 v=101
14869 On ch=1 n=g#6 v=101
14870 On ch=1 n=a6 v=0
14877 On ch=1 n=g#6 v=0
14877 On ch=1 n=f#6 v=101
14884 On ch=1 n=f6 v=101
14885 On ch=1 n=f#6 v=0
14892 On ch=1 n=f6 v=0
14892 On ch=1 n=f#6 v=101
14899 On ch=1 n=g#6 v=101
14900 On ch=1 n=f#6 v=0
14907 On ch=1 n=g#6 v=0
14907 On ch=1 n=a6 v=101
14914 On ch=1 n=a#6 v=101
14915 On ch=1 n=a6 v=0
14922 On ch=1 n=a#6 v=0
14922 On ch=1 n=b6 v=101
14929 On ch=1 n=c#7 v=101
14930 On ch=1 n=b6 v=0
14937 On ch=1 n=c#7 v=0
14937 On ch=1 n=d7 v=101
14944 On ch=1 n=c#7 v=101
14945 On ch=1 n=d7 v=0
14952 On ch=1 n=c#7 v=0
14952 On ch=1 n=e7 v=101
14959 On ch=1 n=d7 v=101
14960 On ch=1 n=e7 v=0
14967 On ch=1 n=d7 v=0
14967 On ch=1 n=f#7 v=101
14974 On ch=1 n=f7 v=101
14975 On ch=1 n=f#7 v=0
14982 On ch=1 n=f7 v=0
14982 On ch=1 n=a7 v=101
14989 On ch=1 n=g#7 v=101
14990 On ch=1 n=a7 v=0
14997 On ch=1 n=g#7 v=0
14997 On ch=1 n=f#7 v=101
15004 On ch=1 n=f7 v=101
15005 On ch=1 n=f#7 v=0
15012 On ch=1 n=f7 v=0
15012 On ch=1 n=f#7 v=101
15019 On ch=1 n=g#7 v=101
15020 On ch=1 n=f#7 v=0
15027 On ch=1 n=g#7 v=0
15027 On ch=1 n=a7 v=101
15034 On ch=1 n=a#7 v=101
15035 On ch=1 n=a7 v=0
15042 On ch=1 n=a#7 v=0
15042 On ch=1 n=b7 v=101
15049 On ch=1 n=c#8 v=101
15050 On ch=1 n=b7 v=0
15057 On ch=1 n=c#8 v=0
15057 On ch=1 n=d8 v=101
15064 On ch=1 n=c#8 v=101
15065 On ch=1 n=d8 v=0
15072 On ch=1 n=c#8 v=0
15072 On ch=1 n=e8 v=101
15079 On ch=1 n=d8 v=101
15080 On ch=1 n=e8 v=0
15087 On ch=1 n=d8 v=0
15087 On ch=1 n=c#8 v=101
15094 On ch=1 n=b7 v=101
15095 On ch=1 n=c#8 v=0
15102 On ch=1 n=b7 v=0
15102 On ch=1 n=a7 v=101
15109 On ch=1 n=g#7 v=101
15110 On ch=1 n=a7 v=0
15117 On ch=1 n=g#7 v=0
15117 On ch=1 n=f#7 v=101
15124 On ch=1 n=f7 v=101
15125 On ch=1 n=f#7 v=0
15132 On ch=1 n=f7 v=0
15132 On ch=1 n=a7 v=101
15139 On ch=1 n=g#7 v=101
15140 On ch=1 n=a7 v=0
15147 On ch=1 n=g#7 v=0
15147 On ch=1 n=f#7 v=101
15154 On ch=1 n=f7 v=101
15155 On ch=1 n=f#7 v=0
15162 On ch=1 n=f7 v=0
15162 On ch=1 n=e7 v=101
15169 On ch=1 n=d7 v=101
15170 On ch=1 n=e7 v=0
15177 On ch=1 n=d7 v=0
15177 On ch=1 n=c#7 v=101
15184 On ch=1 n=b6 v=101
15185 On ch=1 n=c#7 v=0
15192 On ch=1 n=b6 v=0
15192 On ch=1 n=e7 v=101
15199 On ch=1 n=d7 v=101
15200 On ch=1 n=e7 v=0
15207 On ch=1 n=d7 v=0
15207 On ch=1 n=c#7 v=101
15214 On ch=1 n=b6 v=101
15215 On ch=1 n=c#7 v=0
15222 On ch=1 n=b6 v=0
15222 On ch=1 n=a6 v=101
15229 On ch=1 n=g#6 v=101
15230 On ch=1 n=a6 v=0
15237 On ch=1 n=g#6 v=0
15237 On ch=1 n=f#6 v=101
15244 On ch=1 n=f6 v=101
15245 On ch=1 n=f#6 v=0
15252 On ch=1 n=f6 v=0
15252 Par ch=1 c=64 v=0
15252 On ch=1 n=e6 v=101
15259 On ch=1 n=d6 v=101
15260 On ch=1 n=e6 v=0
15267 On ch=1 n=d6 v=0
15267 On ch=1 n=c#6 v=101
15274 On ch=1 n=b5 v=101
15275 On ch=1 n=c#6 v=0
15282 On ch=1 n=b5 v=0
15282 On ch=1 n=e6 v=101
15289 On ch=1 n=d6 v=101
15290 On ch=1 n=e6 v=0
15297 On ch=1 n=d6 v=0
15297 On ch=1 n=c#6 v=101
15304 On ch=1 n=b5 v=101
15305 On ch=1 n=c#6 v=0
15312 On ch=1 n=b5 v=0
15312 On ch=1 n=a5 v=101
15319 On ch=1 n=g#5 v=101
15320 On ch=1 n=a5 v=0
15327 On ch=1 n=g#5 v=0
15327 On ch=1 n=f#5 v=101
15334 On ch=1 n=f5 v=101
15335 On ch=1 n=f#5 v=0
15342 On ch=1 n=f5 v=0
15342 On ch=1 n=a5 v=101
15349 On ch=1 n=a5 v=101
15350 On ch=1 n=a5 v=0
15385 On ch=1 n=c#4 v=115
15391 On ch=1 n=b4 v=118
15397 On ch=1 n=d5 v=121
15403 On ch=1 n=f5 v=124
15409 On ch=1 n=a5 v=0
15409 On ch=1 n=a5 v=127
15469 On ch=1 n=d5 v=0
15469 On ch=1 n=f5 v=0
15469 On ch=1 n=c#4 v=0
15469 On ch=1 n=b4 v=0
15484 On ch=1 n=a5 v=0
15484 On ch=1 n=g#5 v=101
15514 On ch=1 n=g#5 v=0
15522 On ch=1 n=a#4 v=75
15522 On ch=1 n=f#5 v=75
15528 On ch=1 n=f#5 v=0
15528 On ch=1 n=a#4 v=0
16482 Par ch=1 c=64 v=127
16482 On ch=1 n=f#5 v=75
16482 On ch=1 n=a#5 v=75
16572 On ch=1 n=a#5 v=0
16572 On ch=1 n=f#5 v=0
16572 On ch=1 n=g#5 v=75
16572 On ch=1 n=b5 v=75
16602 On ch=1 n=b5 v=0
16602 On ch=1 n=g#5 v=0
16602 On ch=1 n=b5 v=75
16602 On ch=1 n=d#6 v=75
16608 On ch=1 n=d#6 v=0
16608 On ch=1 n=b5 v=0
16662 Par ch=1 c=64 v=0
16662 On ch=1 n=c#6 v=75
16682 On ch=1 n=c#6 v=0
16682 On ch=1 n=d#6 v=75
16701 On ch=1 n=c#6 v=75
16702 On ch=1 n=d#6 v=0
16721 On ch=1 n=c#6 v=0
16722 On ch=1 n=a5 v=75
16722 On ch=1 n=c6 v=75
16728 On ch=1 n=c6 v=0
16728 On ch=1 n=a5 v=0
16782 On ch=1 n=c#6 v=75
16802 On ch=1 n=c#6 v=0
16802 On ch=1 n=d#6 v=75
16821 On ch=1 n=c#6 v=75
16822 On ch=1 n=d#6 v=0
16841 On ch=1 n=c#6 v=0
16842 On ch=1 n=a#5 v=75
16962 On ch=1 n=a#5 v=0
16962 Par ch=1 c=64 v=127
16962 On ch=1 n=f5 v=75
16962 On ch=1 n=g#5 v=75
17052 On ch=1 n=g#5 v=0
17052 On ch=1 n=f5 v=0
17052 On ch=1 n=f#5 v=75
17052 On ch=1 n=a#5 v=75
17082 On ch=1 n=a#5 v=0
17082 On ch=1 n=f#5 v=0
17082 On ch=1 n=a#5 v=75
17082 On ch=1 n=c#6 v=75
17088 On ch=1 n=c#6 v=0
17088 On ch=1 n=a#5 v=0
17142 Par ch=1 c=64 v=0
17142 On ch=1 n=b5 v=75
17162 On ch=1 n=b5 v=0
17162 On ch=1 n=c#6 v=75
17181 On ch=1 n=b5 v=75
17182 On ch=1 n=c#6 v=0
17201 On ch=1 n=b5 v=0
17202 On ch=1 n=g5 v=75
17202 On ch=1 n=a#5 v=75
17208 On ch=1 n=a#5 v=0
17208 On ch=1 n=g5 v=0
17262 On ch=1 n=b5 v=75
17282 On ch=1 n=b5 v=0
17282 On ch=1 n=c#6 v=75
17301 On ch=1 n=b5 v=75
17302 On ch=1 n=c#6 v=0
17321 On ch=1 n=b5 v=0
17322 On ch=1 n=g#5 v=75
17442 On ch=1 n=g#5 v=0
17442 Par ch=1 c=64 v=127
17442 On ch=1 n=f#5 v=75
17532 On ch=1 n=f#5 v=0
17532 On ch=1 n=g#5 v=75
17562 On ch=1 n=g#5 v=0
17562 On ch=1 n=b5 v=75
17592 On ch=1 n=b5 v=0
17592 On ch=1 n=a#5 v=75
17622 On ch=1 n=a#5 v=0
17622 On ch=1 n=d#6 v=75
17652 On ch=1 n=d#6 v=0
17652 Par ch=1 c=64 v=0
17652 On ch=1 n=c#6 v=75
17682 On ch=1 n=c#6 v=0
17682 Par ch=1 c=64 v=127
17682 On ch=1 n=g#6 v=75
17712 On ch=1 n=g#6 v=0
17712 On ch=1 n=f#6 v=75
17742 On ch=1 n=f#6 v=0
17742 On ch=1 n=b6 v=75
17772 On ch=1 n=b6 v=0
17772 On ch=1 n=a#6 v=75
17802 On ch=1 n=a#6 v=0
17802 On ch=1 n=g#6 v=75
17832 On ch=1 n=g#6 v=0
17832 On ch=1 n=f#6 v=75
17862 On ch=1 n=f#6 v=0
17862 On ch=1 n=d6 v=75
17892 On ch=1 n=d6 v=0
17892 Par ch=1 c=64 v=0
17892 On ch=1 n=d#6 v=75
17922 On ch=1 n=d#6 v=0
17922 Par ch=1 c=64 v=127
17922 On ch=1 n=f6 v=75
17952 On ch=1 n=f6 v=0
17952 On ch=1 n=g#6 v=75
17982 On ch=1 n=g#6 v=0
17982 On ch=1 n=c#6 v=75
18012 On ch=1 n=c#6 v=0
18012 Par ch=1 c=64 v=0
18012 On ch=1 n=f6 v=75
18042 On ch=1 n=f6 v=0
18042 Par ch=1 c=64 v=127
18042 On ch=1 n=d#6 v=75
18072 On ch=1 n=d#6 v=0
18072 On ch=1 n=f#6 v=75
18102 On ch=1 n=f#6 v=0
18102 On ch=1 n=c6 v=75
18132 On ch=1 n=c6 v=0
18132 Par ch=1 c=64 v=0
18132 On ch=1 n=d#6 v=75
18162 On ch=1 n=d#6 v=0
18162 Par ch=1 c=64 v=127
18162 On ch=1 n=c#6 v=75
18192 On ch=1 n=c#6 v=0
18192 On ch=1 n=f6 v=75
18222 On ch=1 n=f6 v=0
18222 On ch=1 n=g#6 v=75
18252 On ch=1 n=g#6 v=0
18252 On ch=1 n=f6 v=75
18282 On ch=1 n=f6 v=0
18282 On ch=1 n=c#6 v=75
18312 On ch=1 n=c#6 v=0
18312 On ch=1 n=g#5 v=75
18342 On ch=1 n=g#5 v=0
18342 Par ch=1 c=64 v=0
18342 On ch=1 n=f6 v=75
18372 On ch=1 n=f6 v=0
18372 On ch=1 n=c6 v=75
18376 On ch=1 n=c6 v=0
18402 On ch=1 n=d#6 v=101
18522 On ch=1 n=d#6 v=0
18522 On ch=1 n=c#6 v=75
18582 On ch=1 n=c#6 v=0
18642 Par ch=1 c=64 v=127
18642 On ch=1 n=f#6 v=88
18642 On ch=1 n=a#6 v=88
18732 On ch=1 n=a#6 v=0
18732 On ch=1 n=f#6 v=0
18732 On ch=1 n=g#6 v=88
18732 On ch=1 n=b6 v=88
18762 On ch=1 n=b6 v=0
18762 On ch=1 n=g#6 v=0
18762 On ch=1 n=b6 v=88
18762 On ch=1 n=d#7 v=88
18768 On ch=1 n=d#7 v=0
18768 On ch=1 n=b6 v=0
18822 Par ch=1 c=64 v=0
18822 On ch=1 n=c#7 v=88
18842 On ch=1 n=c#7 v=0
18842 On ch=1 n=d#7 v=88
18861 On ch=1 n=c#7 v=88
18862 On ch=1 n=d#7 v=0
18881 On ch=1 n=c#7 v=0
18882 On ch=1 n=a6 v=88
18882 On ch=1 n=c7 v=88
18888 On ch=1 n=c7 v=0
18888 On ch=1 n=a6 v=0
18942 On ch=1 n=c#7 v=88
18962 On ch=1 n=c#7 v=0
18962 On ch=1 n=d#7 v=88
18981 On ch=1 n=c#7 v=88
18982 On ch=1 n=d#7 v=0
19001 On ch=1 n=c#7 v=0
19002 On ch=1 n=a#6 v=88
19122 On ch=1 n=a#6 v=0
19122 Par ch=1 c=64 v=127
19122 On ch=1 n=f6 v=88
19122 On ch=1 n=g#6 v=88
19212 On ch=1 n=g#6 v=0
19212 On ch=1 n=f6 v=0
19212 On ch=1 n=f#6 v=88
19212 On ch=1 n=a#6 v=88
19242 On ch=1 n=a#6 v=0
19242 On ch=1 n=f#6 v=0
19242 On ch=1 n=a#6 v=88
19242 On ch=1 n=c#7 v=88
19248 On ch=1 n=c#7 v=0
19248 On ch=1 n=a#6 v=0
19302 Par ch=1 c=64 v=0
19302 On ch=1 n=b6 v=88
19322 On ch=1 n=b6 v=0
19322 On ch=1 n=c#7 v=88
19341 On ch=1 n=b6 v=88
19342 On ch=1 n=c#7 v=0
19361 On ch=1 n=b6 v=0
19362 On ch=1 n=g6 v=88
19362 On ch=1 n=a#6 v=88
19368 On ch=1 n=a#6 v=0
19368 On ch=1 n=g6 v=0
19422 On ch=1 n=b6 v=88
19442 On ch=1 n=b6 v=0
19442 On ch=1 n=c#7 v=88
19461 On ch=1 n=b6 v=88
19462 On ch=1 n=c#7 v=0
19481 On ch=1 n=b6 v=0
19482 On ch=1 n=g#6 v=88
19602 On ch=1 n=g#6 v=0
19602 Par ch=1 c=64 v=127
19602 On ch=1 n=f#6 v=88
19692 On ch=1 n=f#6 v=0
19692 On ch=1 n=g#6 v=88
19722 On ch=1 n=g#6 v=0
19722 On ch=1 n=b6 v=88
19752 On ch=1 n=b6 v=0
19752 On ch=1 n=a#6 v=88
19782 On ch=1 n=a#6 v=0
19782 On ch=1 n=d#7 v=88
19812 On ch=1 n=d#7 v=0
19812 Par ch=1 c=64 v=0
19812 On ch=1 n=c#7 v=88
19842 On ch=1 n=c#7 v=0
19842 Par ch=1 c=64 v=127
19842 On ch=1 n=g#7 v=88
19872 On ch=1 n=g#7 v=0
19872 On ch=1 n=f#7 v=88
19902 On ch=1 n=f#7 v=0
19902 On ch=1 n=b7 v=88
19932 On ch=1 n=b7 v=0
19932 On ch=1 n=a#7 v=88
19962 On ch=1 n=a#7 v=0
19962 On ch=1 n=g#7 v=88
19992 On ch=1 n=g#7 v=0
19992 On ch=1 n=f#7 v=88
20022 On ch=1 n=f#7 v=0
20022 On ch=1 n=d7 v=88
20052 On ch=1 n=d7 v=0
20052 Par ch=1 c=64 v=0
20052 On ch=1 n=d#7 v=88
20082 On ch=1 n=d#7 v=0
20082 Par ch=1 c=64 v=127
20082 On ch=1 n=f7 v=88
20112 On ch=1 n=f7 v=0
20112 On ch=1 n=g#7 v=88
20142 On ch=1 n=g#7 v=0
20142 On ch=1 n=c#7 v=88
20172 On ch=1 n=c#7 v=0
20172 Par ch=1 c=64 v=0
20172 On ch=1 n=f7 v=88
20202 On ch=1 n=f7 v=0
20202 Par ch=1 c=64 v=127
20202 On ch=1 n=d#7 v=88
20232 On ch=1 n=d#7 v=0
20232 On ch=1 n=f#7 v=88
20262 On ch=1 n=f#7 v=0
20262 On ch=1 n=c7 v=88
20292 On ch=1 n=c7 v=0
20292 Par ch=1 c=64 v=0
20292 On ch=1 n=d#7 v=88
20322 On ch=1 n=d#7 v=0
20322 Par ch=1 c=64 v=127
20322 On ch=1 n=c#7 v=88
20352 On ch=1 n=c#7 v=0
20352 On ch=1 n=f7 v=88
20382 On ch=1 n=f7 v=0
20382 On ch=1 n=g#7 v=88
20412 On ch=1 n=g#7 v=0
20412 On ch=1 n=f7 v=88
20442 On ch=1 n=f7 v=0
20442 On ch=1 n=c#7 v=88
20472 On ch=1 n=c#7 v=0
20472 On ch=1 n=g#6 v=88
20502 On ch=1 n=g#6 v=0
20502 Par ch=1 c=64 v=0
20502 On ch=1 n=f7 v=88
20532 On ch=1 n=f7 v=0
20532 On ch=1 n=c7 v=88
20536 On ch=1 n=c7 v=0
20562 On ch=1 n=d#7 v=114
20682 On ch=1 n=d#7 v=0
20682 On ch=1 n=c#7 v=88
20686 On ch=1 n=c#7 v=0
20802 On ch=1 n=a#6 v=106
20802 On ch=1 n=d7 v=114
20862 On ch=1 n=d7 v=0
20862 On ch=1 n=a#6 v=0
20862 On ch=1 n=f6 v=88
20862 On ch=1 n=f7 v=88
20866 On ch=1 n=f7 v=0
20866 On ch=1 n=f6 v=0
20922 On ch=1 n=g6 v=106
20922 On ch=1 n=a#6 v=114
20982 On ch=1 n=a#6 v=0
20982 On ch=1 n=g6 v=0
20982 On ch=1 n=d6 v=88
20982 On ch=1 n=d7 v=88
20986 On ch=1 n=d7 v=0
20986 On ch=1 n=d6 v=0
21042 On ch=1 n=d#6 v=106
21042 On ch=1 n=g6 v=114
21102 On ch=1 n=g6 v=0
21102 On ch=1 n=d#6 v=0
21102 On ch=1 n=a#5 v=88
21102 On ch=1 n=a#6 v=88
21106 On ch=1 n=a#6 v=0
21106 On ch=1 n=a#5 v=0
21162 On ch=1 n=c6 v=106
21162 On ch=1 n=d#6 v=114
21222 On ch=1 n=d#6 v=0
21222 On ch=1 n=c6 v=0
21222 On ch=1 n=g5 v=88
21222 On ch=1 n=g6 v=88
21226 On ch=1 n=g6 v=0
21226 On ch=1 n=g5 v=0
21282 Par ch=1 c=64 v=127
21282 On ch=1 n=f4 v=88
21302 On ch=1 n=f4 v=0
21302 On ch=1 n=d#5 v=88
21321 On ch=1 n=a5 v=88
21322 On ch=1 n=d#5 v=0
21341 On ch=1 n=a5 v=0
21342 On ch=1 n=c6 v=88
21362 On ch=1 n=c6 v=0
21362 On ch=1 n=f6 v=88
21381 On ch=1 n=a6 v=88
21382 On ch=1 n=f6 v=0
21401 On ch=1 n=a6 v=0
21402 On ch=1 n=d#7 v=88
21408 On ch=1 n=d#7 v=0
21462 Par ch=1 c=64 v=0
21462 On ch=1 n=a5 v=88
21468 On ch=1 n=a5 v=0
21522 Par ch=1 c=64 v=127
21522 On ch=1 n=a#4 v=88
21537 On ch=1 n=a#4 v=0
21537 On ch=1 n=f5 v=88
21552 On ch=1 n=f5 v=0
21552 On ch=1 n=a#5 v=88
21567 On ch=1 n=a#5 v=0
21567 On ch=1 n=d6 v=88
21582 On ch=1 n=d6 v=0
21582 On ch=1 n=f6 v=88
21602 On ch=1 n=f6 v=0
21602 On ch=1 n=a#6 v=88
21621 On ch=1 n=d7 v=88
21622 On ch=1 n=a#6 v=0
21641 On ch=1 n=d7 v=0
21642 On ch=1 n=a#7 v=88
21648 On ch=1 n=a#7 v=0
21702 Par ch=1 c=64 v=0
21702 On ch=1 n=a#5 v=88
21708 On ch=1 n=a#5 v=0
21762 On ch=1 n=a#6 v=106
21762 On ch=1 n=d7 v=114
21822 On ch=1 n=d7 v=0
21822 On ch=1 n=a#6 v=0
21822 On ch=1 n=f6 v=88
21822 On ch=1 n=f7 v=88
21826 On ch=1 n=f7 v=0
21826 On ch=1 n=f6 v=0
21882 On ch=1 n=g6 v=106
21882 On ch=1 n=a#6 v=114
21942 On ch=1 n=a#6 v=0
21942 On ch=1 n=g6 v=0
21942 On ch=1 n=d6 v=88
21942 On ch=1 n=d7 v=88
21946 On ch=1 n=d7 v=0
21946 On ch=1 n=d6 v=0
22002 On ch=1 n=d#6 v=106
22002 On ch=1 n=g6 v=114
22062 On ch=1 n=g6 v=0
22062 On ch=1 n=d#6 v=0
22062 On ch=1 n=a#5 v=88
22062 On ch=1 n=a#6 v=88
22066 On ch=1 n=a#6 v=0
22066 On ch=1 n=a#5 v=0
22122 On ch=1 n=c6 v=106
22122 On ch=1 n=d#6 v=114
22182 On ch=1 n=d#6 v=0
22182 On ch=1 n=c6 v=0
22182 On ch=1 n=g5 v=88
22182 On ch=1 n=g6 v=88
22186 On ch=1 n=g6 v=0
22186 On ch=1 n=g5 v=0
22242 Par ch=1 c=64 v=127
22242 On ch=1 n=f4 v=88
22262 On ch=1 n=f4 v=0
22262 On ch=1 n=d#5 v=88
22281 On ch=1 n=a5 v=88
22282 On ch=1 n=d#5 v=0
22301 On ch=1 n=a5 v=0
22302 On ch=1 n=c6 v=88
22322 On ch=1 n=c6 v=0
22322 On ch=1 n=f6 v=88
22341 On ch=1 n=a6 v=88
22342 On ch=1 n=f6 v=0
22361 On ch=1 n=a6 v=0
22362 On ch=1 n=d#7 v=88
22368 On ch=1 n=d#7 v=0
22422 Par ch=1 c=64 v=0
22422 On ch=1 n=a5 v=88
22428 On ch=1 n=a5 v=0
22482 Par ch=1 c=64 v=127
22482 On ch=1 n=a#4 v=88
22497 On ch=1 n=a#4 v=0
22497 On ch=1 n=f5 v=88
22512 On ch=1 n=f5 v=0
22512 On ch=1 n=a#5 v=88
22527 On ch=1 n=a#5 v=0
22527 On ch=1 n=d6 v=88
22542 On ch=1 n=d6 v=0
22542 On ch=1 n=f6 v=88
22562 On ch=1 n=f6 v=0
22562 On ch=1 n=a#6 v=88
22581 On ch=1 n=d7 v=88
22582 On ch=1 n=a#6 v=0
22601 On ch=1 n=d7 v=0
22602 On ch=1 n=a#7 v=88
22608 On ch=1 n=a#7 v=0
22662 Par ch=1 c=64 v=0
22662 On ch=1 n=a#5 v=88
22668 On ch=1 n=a#5 v=0
22722 On ch=1 n=f#7 v=106
22722 On ch=1 n=a#7 v=114
22782 On ch=1 n=a#7 v=0
22782 On ch=1 n=f#7 v=0
22782 On ch=1 n=c#7 v=88
22782 On ch=1 n=c#8 v=88
22786 On ch=1 n=c#8 v=0
22786 On ch=1 n=c#7 v=0
22842 On ch=1 n=d#7 v=106
22842 On ch=1 n=f#7 v=114
22902 On ch=1 n=f#7 v=0
22902 On ch=1 n=d#7 v=0
22902 On ch=1 n=a#6 v=88
22902 On ch=1 n=a#7 v=88
22906 On ch=1 n=a#7 v=0
22906 On ch=1 n=a#6 v=0
22962 On ch=1 n=b6 v=106
22962 On ch=1 n=d#7 v=114
23022 On ch=1 n=d#7 v=0
23022 On ch=1 n=b6 v=0
23022 On ch=1 n=f#6 v=88
23022 On ch=1 n=f#7 v=88
23026 On ch=1 n=f#7 v=0
23026 On ch=1 n=f#6 v=0
23082 On ch=1 n=g#6 v=106
23082 On ch=1 n=b6 v=114
23142 On ch=1 n=b6 v=0
23142 On ch=1 n=g#6 v=0
23142 On ch=1 n=d#6 v=88
23142 On ch=1 n=d#7 v=88
23146 On ch=1 n=d#7 v=0
23146 On ch=1 n=d#6 v=0
23202 Par ch=1 c=64 v=127
23202 On ch=1 n=c#5 v=88
23217 On ch=1 n=c#5 v=0
23217 On ch=1 n=g#5 v=88
23232 On ch=1 n=g#5 v=0
23232 On ch=1 n=b5 v=88
23247 On ch=1 n=b5 v=0
23247 On ch=1 n=f6 v=88
23262 On ch=1 n=f6 v=0
23262 On ch=1 n=g#6 v=88
23282 On ch=1 n=g#6 v=0
23282 On ch=1 n=c#7 v=88
23301 On ch=1 n=f7 v=88
23302 On ch=1 n=c#7 v=0
23321 On ch=1 n=f7 v=0
23322 On ch=1 n=b7 v=88
23328 On ch=1 n=b7 v=0
23382 Par ch=1 c=64 v=0
23382 On ch=1 n=f6 v=88
23388 On ch=1 n=f6 v=0
23442 Par ch=1 c=64 v=127
23442 On ch=1 n=f#5 v=88
23457 On ch=1 n=f#5 v=0
23457 On ch=1 n=c#6 v=88
23472 On ch=1 n=c#6 v=0
23472 On ch=1 n=f#6 v=88
23487 On ch=1 n=f#6 v=0
23487 On ch=1 n=a#6 v=88
23502 On ch=1 n=a#6 v=0
23502 On ch=1 n=c#7 v=88
23522 On ch=1 n=c#7 v=0
23522 On ch=1 n=f#7 v=88
23541 On ch=1 n=a#7 v=88
23542 On ch=1 n=f#7 v=0
23561 On ch=1 n=a#7 v=0
23562 On ch=1 n=f#8 v=88
23568 On ch=1 n=f#8 v=0
23622 Par ch=1 c=64 v=0
23622 On ch=1 n=f#6 v=88
23628 On ch=1 n=f#6 v=0
23682 On ch=1 n=f#6 v=106
23682 On ch=1 n=a#6 v=114
23742 On ch=1 n=a#6 v=0
23742 On ch=1 n=f#6 v=0
23742 On ch=1 n=c#6 v=88
23742 On ch=1 n=c#7 v=88
23746 On ch=1 n=c#7 v=0
23746 On ch=1 n=c#6 v=0
23802 On ch=1 n=d#6 v=106
23802 On ch=1 n=f#6 v=114
23862 On ch=1 n=f#6 v=0
23862 On ch=1 n=d#6 v=0
23862 On ch=1 n=a#5 v=88
23862 On ch=1 n=a#6 v=88
23866 On ch=1 n=a#6 v=0
23866 On ch=1 n=a#5 v=0
23922 On ch=1 n=b5 v=106
23922 On ch=1 n=d#6 v=114
23982 On ch=1 n=d#6 v=0
23982 On ch=1 n=b5 v=0
23982 On ch=1 n=f#5 v=88
23982 On ch=1 n=f#6 v=88
23986 On ch=1 n=f#6 v=0
23986 On ch=1 n=f#5 v=0
24042 On ch=1 n=g#5 v=106
24042 On ch=1 n=b5 v=114
24102 On ch=1 n=b5 v=0
24102 On ch=1 n=g#5 v=0
24102 On ch=1 n=d#5 v=88
24102 On ch=1 n=d#6 v=88
24106 On ch=1 n=d#6 v=0
24106 On ch=1 n=d#5 v=0
24162 On ch=1 n=c#4 v=88
24177 On ch=1 n=c#4 v=0
24177 On ch=1 n=g#4 v=88
24192 On ch=1 n=g#4 v=0
24192 On ch=1 n=b4 v=88
24207 On ch=1 n=b4 v=0
24207 On ch=1 n=f5 v=88
24222 On ch=1 n=f5 v=0
24222 On ch=1 n=g#5 v=88
24242 On ch=1 n=g#5 v=0
24242 On ch=1 n=c#6 v=88
24261 On ch=1 n=f6 v=88
24262 On ch=1 n=c#6 v=0
24281 On ch=1 n=f6 v=0
24282 On ch=1 n=b6 v=88
24288 On ch=1 n=b6 v=0
24342 Par ch=1 c=64 v=0
24342 On ch=1 n=b5 v=88
24342 On ch=1 n=f#6 v=88
24348 On ch=1 n=f#6 v=0
24348 On ch=1 n=b5 v=0
24402 Par ch=1 c=64 v=127
24402 On ch=1 n=c#5 v=88
24417 On ch=1 n=c#5 v=0
24417 On ch=1 n=g#5 v=88
24432 On ch=1 n=g#5 v=0
24432 On ch=1 n=b5 v=88
24447 On ch=1 n=b5 v=0
24447 On ch=1 n=f6 v=88
24462 On ch=1 n=f6 v=0
24462 On ch=1 n=g#6 v=88
24482 On ch=1 n=g#6 v=0
24482 On ch=1 n=c#7 v=88
24501 On ch=1 n=f7 v=88
24502 On ch=1 n=c#7 v=0
24521 On ch=1 n=f7 v=0
24522 On ch=1 n=b7 v=88
24528 On ch=1 n=b7 v=0
24582 Par ch=1 c=64 v=0
24612 On ch=1 n=b6 v=88
24612 On ch=1 n=f#7 v=88
24616 On ch=1 n=f#7 v=0
24616 On ch=1 n=b6 v=0
24642 On ch=1 n=c#6 v=88
24642 On ch=1 n=g#6 v=88
24646 On ch=1 n=g#6 v=0
24646 On ch=1 n=c#6 v=0
24672 On ch=1 n=b6 v=88
24672 On ch=1 n=f7 v=88
24676 On ch=1 n=f7 v=0
24676 On ch=1 n=b6 v=0
24702 On ch=1 n=d6 v=88
24702 On ch=1 n=g#6 v=88
24706 On ch=1 n=g#6 v=0
24706 On ch=1 n=d6 v=0
24732 On ch=1 n=f#7 v=88
24732 On ch=1 n=b7 v=88
24736 On ch=1 n=b7 v=0
24736 On ch=1 n=f#7 v=0
24762 On ch=1 n=c#6 v=88
24762 On ch=1 n=g#6 v=88
24766 On ch=1 n=g#6 v=0
24766 On ch=1 n=c#6 v=0
24792 On ch=1 n=b6 v=88
24792 On ch=1 n=f7 v=88
24796 On ch=1 n=f7 v=0
24796 On ch=1 n=b6 v=0
24822 On ch=1 n=d6 v=88
24822 On ch=1 n=g#6 v=88
24826 On ch=1 n=g#6 v=0
24826 On ch=1 n=d6 v=0
24852 On ch=1 n=f#7 v=88
24852 On ch=1 n=b7 v=88
24856 On ch=1 n=b7 v=0
24856 On ch=1 n=f#7 v=0
24882 On ch=1 n=c#6 v=88
24882 On ch=1 n=g#6 v=88
24886 On ch=1 n=g#6 v=0
24886 On ch=1 n=c#6 v=0
24912 On ch=1 n=b6 v=88
24912 On ch=1 n=f7 v=88
24916 On ch=1 n=f7 v=0
24916 On ch=1 n=b6 v=0
24942 On ch=1 n=d6 v=88
24942 On ch=1 n=g#6 v=88
24946 On ch=1 n=g#6 v=0
24946 On ch=1 n=d6 v=0
24972 On ch=1 n=f#7 v=88
24972 On ch=1 n=b7 v=88
24976 On ch=1 n=b7 v=0
24976 On ch=1 n=f#7 v=0
25002 On ch=1 n=c#6 v=88
25002 On ch=1 n=g#6 v=88
25006 On ch=1 n=g#6 v=0
25006 On ch=1 n=c#6 v=0
25032 On ch=1 n=b6 v=88
25032 On ch=1 n=f7 v=88
25036 On ch=1 n=f7 v=0
25036 On ch=1 n=b6 v=0
25062 On ch=1 n=d6 v=88
25062 On ch=1 n=g#6 v=88
25066 On ch=1 n=g#6 v=0
25066 On ch=1 n=d6 v=0
25092 On ch=1 n=f#7 v=88
25092 On ch=1 n=b7 v=88
25096 On ch=1 n=b7 v=0
25096 On ch=1 n=f#7 v=0
25122 Par ch=1 c=64 v=127
25122 On ch=1 n=f7 v=88
25142 On ch=1 n=f7 v=0
25142 On ch=1 n=b6 v=88
25161 On ch=1 n=f7 v=88
25162 On ch=1 n=b6 v=0
25181 On ch=1 n=f7 v=0
25182 On ch=1 n=g#7 v=88
25202 On ch=1 n=g#7 v=0
25202 On ch=1 n=b7 v=88
25221 On ch=1 n=g#7 v=88
25222 On ch=1 n=b7 v=0
25241 On ch=1 n=g#7 v=0
25242 On ch=1 n=f7 v=88
25262 On ch=1 n=f7 v=0
25262 On ch=1 n=b6 v=88
25281 On ch=1 n=f7 v=88
25282 On ch=1 n=b6 v=0
25301 On ch=1 n=f7 v=0
25302 On ch=1 n=g#7 v=88
25322 On ch=1 n=g#7 v=0
25322 On ch=1 n=b7 v=88
25341 On ch=1 n=g#7 v=88
25342 On ch=1 n=b7 v=0
25361 On ch=1 n=g#7 v=0
25362 On ch=1 n=f7 v=88
25382 On ch=1 n=f7 v=0
25382 On ch=1 n=b6 v=88
25401 On ch=1 n=f7 v=88
25402 On ch=1 n=b6 v=0
25421 On ch=1 n=f7 v=0
25422 On ch=1 n=g#7 v=88
25442 On ch=1 n=g#7 v=0
25442 On ch=1 n=b7 v=88
25461 On ch=1 n=g#7 v=88
25462 On ch=1 n=b7 v=0
25481 On ch=1 n=g#7 v=0
25482 On ch=1 n=f7 v=88
25502 On ch=1 n=f7 v=0
25502 On ch=1 n=b6 v=88
25521 On ch=1 n=f7 v=88
25522 On ch=1 n=b6 v=0
25541 On ch=1 n=f7 v=0
25542 On ch=1 n=g#7 v=88
25562 On ch=1 n=g#7 v=0
25562 On ch=1 n=c8 v=88
25581 Par ch=1 c=64 v=0
25581 On ch=1 n=g#7 v=88
25582 On ch=1 n=c8 v=0
25601 On ch=1 n=g#7 v=0
25602 Par ch=1 c=64 v=127
25602 On ch=1 n=f7 v=88
25622 On ch=1 n=f7 v=0
25622 On ch=1 n=b6 v=88
25641 On ch=1 n=f7 v=88
25642 On ch=1 n=b6 v=0
25661 On ch=1 n=f7 v=0
25662 On ch=1 n=g#7 v=88
25682 On ch=1 n=g#7 v=0
25682 On ch=1 n=c#8 v=88
25701 On ch=1 n=g#7 v=88
25702 On ch=1 n=c#8 v=0
25721 On ch=1 n=g#7 v=0
25722 On ch=1 n=f7 v=88
25742 On ch=1 n=f7 v=0
25742 On ch=1 n=b6 v=88
25761 On ch=1 n=f7 v=88
25762 On ch=1 n=b6 v=0
25781 On ch=1 n=f7 v=0
25782 On ch=1 n=g#7 v=88
25802 On ch=1 n=g#7 v=0
25802 On ch=1 n=c#8 v=88
25821 On ch=1 n=g#7 v=88
25822 On ch=1 n=c#8 v=0
25841 On ch=1 n=g#7 v=0
25842 On ch=1 n=f7 v=75
25862 On ch=1 n=f7 v=0
25862 On ch=1 n=b6 v=75
25881 On ch=1 n=f7 v=75
25882 On ch=1 n=b6 v=0
25901 On ch=1 n=f7 v=0
25902 On ch=1 n=g#7 v=75
25922 On ch=1 n=g#7 v=0
25922 On ch=1 n=c#8 v=75
25941 On ch=1 n=g#7 v=75
25942 On ch=1 n=c#8 v=0
25961 On ch=1 n=g#7 v=0
25962 On ch=1 n=f7 v=75
25982 On ch=1 n=f7 v=0
25982 On ch=1 n=b6 v=75
26001 On ch=1 n=f7 v=75
26002 On ch=1 n=b6 v=0
26021 On ch=1 n=f7 v=0
26022 On ch=1 n=g#7 v=75
26042 On ch=1 n=g#7 v=0
26042 On ch=1 n=c#8 v=75
26061 On ch=1 n=g#7 v=75
26062 On ch=1 n=c#8 v=0
26081 On ch=1 n=g#7 v=0
26082 On ch=1 n=f7 v=75
26102 On ch=1 n=f7 v=0
26102 On ch=1 n=b6 v=75
26121 On ch=1 n=f7 v=75
26122 On ch=1 n=b6 v=0
26141 On ch=1 n=f7 v=0
26142 On ch=1 n=g#7 v=75
26162 On ch=1 n=g#7 v=0
26162 On ch=1 n=c#8 v=75
26181 On ch=1 n=g#7 v=75
26182 On ch=1 n=c#8 v=0
26201 On ch=1 n=g#7 v=0
26202 On ch=1 n=f7 v=75
26222 On ch=1 n=f7 v=0
26222 On ch=1 n=b6 v=75
26241 On ch=1 n=f7 v=75
26242 On ch=1 n=b6 v=0
26261 On ch=1 n=f7 v=0
26262 On ch=1 n=g#7 v=75
26282 On ch=1 n=g#7 v=0
26282 On ch=1 n=c#8 v=75
26301 On ch=1 n=g#7 v=75
26302 On ch=1 n=c#8 v=0
26321 On ch=1 n=g#7 v=0
26322 On ch=1 n=f7 v=49
26342 On ch=1 n=f7 v=0
26342 On ch=1 n=b6 v=49
26361 On ch=1 n=f7 v=49
26362 On ch=1 n=b6 v=0
26381 On ch=1 n=f7 v=0
26382 On ch=1 n=g#7 v=49
26402 On ch=1 n=g#7 v=0
26402 On ch=1 n=c#8 v=49
26421 On ch=1 n=g#7 v=49
26422 On ch=1 n=c#8 v=0
26441 On ch=1 n=g#7 v=0
26442 Par ch=1 c=64 v=0
26442 On ch=1 n=f7 v=49
26462 On ch=1 n=f7 v=0
26462 On ch=1 n=b6 v=49
26481 On ch=1 n=f7 v=49
26482 On ch=1 n=b6 v=0
26501 On ch=1 n=f7 v=0
26502 On ch=1 n=g#7 v=49
26522 On ch=1 n=g#7 v=0
26522 On ch=1 n=c#8 v=49
26541 On ch=1 n=g#7 v=49
26542 On ch=1 n=c#8 v=0
26561 On ch=1 n=g#7 v=0
26592 Par ch=1 c=64 v=127
26592 On ch=1 n=f#7 v=49
26612 On ch=1 n=f#7 v=0
26612 On ch=1 n=a#6 v=49
26631 On ch=1 n=f#7 v=49
26632 On ch=1 n=a#6 v=0
26651 On ch=1 n=f#7 v=0
26652 On ch=1 n=a#7 v=49
26672 On ch=1 n=a#7 v=0
26672 On ch=1 n=c#8 v=49
26691 On ch=1 n=a#7 v=49
26692 On ch=1 n=c#8 v=0
26711 On ch=1 n=a#7 v=0
26712 On ch=1 n=f#7 v=49
26732 On ch=1 n=f#7 v=0
26732 On ch=1 n=a#6 v=49
26751 On ch=1 n=f#7 v=49
26752 On ch=1 n=a#6 v=0
26771 On ch=1 n=f#7 v=0
26772 Par ch=1 c=64 v=0
26772 On ch=1 n=a#7 v=49
26792 On ch=1 n=a#7 v=0
26792 On ch=1 n=c#8 v=49
26811 On ch=1 n=a#7 v=49
26812 On ch=1 n=c#8 v=0
26831 On ch=1 n=a#7 v=0
26832 On ch=1 n=f#7 v=49
26852 On ch=1 n=f#7 v=0
26852 On ch=1 n=a#6 v=49
26871 On ch=1 n=f#7 v=49
26872 On ch=1 n=a#6 v=0
26891 On ch=1 n=f#7 v=0
26892 On ch=1 n=a#7 v=49
26912 On ch=1 n=a#7 v=0
26912 On ch=1 n=c#8 v=49
26931 On ch=1 n=a#7 v=49
26932 On ch=1 n=c#8 v=0
26951 On ch=1 n=a#7 v=0
26952 On ch=1 n=f#7 v=49
26972 On ch=1 n=f#7 v=0
26972 On ch=1 n=a#6 v=49
26991 On ch=1 n=f#7 v=49
26992 On ch=1 n=a#6 v=0
27011 On ch=1 n=f#7 v=0
27012 On ch=1 n=a#7 v=49
27032 On ch=1 n=a#7 v=0
27032 On ch=1 n=c#8 v=49
27051 On ch=1 n=a#7 v=49
27052 On ch=1 n=c#8 v=0
27071 On ch=1 n=a#7 v=0
27102 Par ch=1 c=64 v=127
27102 On ch=1 n=f7 v=49
27122 On ch=1 n=f7 v=0
27122 On ch=1 n=b6 v=49
27141 On ch=1 n=f7 v=49
27142 On ch=1 n=b6 v=0
27161 On ch=1 n=f7 v=0
27162 On ch=1 n=g#7 v=49
27182 On ch=1 n=g#7 v=0
27182 On ch=1 n=b7 v=49
27201 On ch=1 n=g#7 v=49
27202 On ch=1 n=b7 v=0
27221 On ch=1 n=g#7 v=0
27222 On ch=1 n=f7 v=49
27242 On ch=1 n=f7 v=0
27242 On ch=1 n=b6 v=49
27261 On ch=1 n=f7 v=49
27262 On ch=1 n=b6 v=0
27281 On ch=1 n=f7 v=0
27282 Par ch=1 c=64 v=0
27282 On ch=1 n=g#7 v=49
27302 On ch=1 n=g#7 v=0
27302 On ch=1 n=b7 v=49
27321 On ch=1 n=g#7 v=49
27322 On ch=1 n=b7 v=0
27341 On ch=1 n=g#7 v=0
27342 On ch=1 n=f7 v=49
27362 On ch=1 n=f7 v=0
27362 On ch=1 n=b6 v=49
27381 On ch=1 n=f7 v=49
27382 On ch=1 n=b6 v=0
27401 On ch=1 n=f7 v=0
27402 On ch=1 n=g#7 v=49
27422 On ch=1 n=g#7 v=0
27422 On ch=1 n=b7 v=49
27441 On ch=1 n=g#7 v=49
27442 On ch=1 n=b7 v=0
27461 On ch=1 n=g#7 v=0
27462 On ch=1 n=f7 v=49
27482 On ch=1 n=f7 v=0
27482 On ch=1 n=b6 v=49
27501 On ch=1 n=f7 v=49
27502 On ch=1 n=b6 v=0
27521 On ch=1 n=f7 v=0
27522 On ch=1 n=g#7 v=49
27542 On ch=1 n=g#7 v=0
27542 On ch=1 n=b7 v=49
27561 On ch=1 n=g#7 v=49
27562 On ch=1 n=b7 v=0
27581 On ch=1 n=g#7 v=0
27582 Par ch=1 c=64 v=127
27582 On ch=1 n=f#7 v=49
27602 On ch=1 n=f#7 v=0
27602 On ch=1 n=a#6 v=49
27621 On ch=1 n=f#7 v=49
27622 On ch=1 n=a#6 v=0
27641 On ch=1 n=f#7 v=0
27642 On ch=1 n=a#7 v=49
27662 On ch=1 n=a#7 v=0
27662 On ch=1 n=c#8 v=49
27681 Par ch=1 c=64 v=0
27681 On ch=1 n=a#7 v=49
27682 On ch=1 n=c#8 v=0
27701 On ch=1 n=a#7 v=0
27702 On ch=1 n=f#7 v=49
27722 On ch=1 n=f#7 v=0
27722 On ch=1 n=c#7 v=49
27741 On ch=1 n=f#7 v=49
27742 On ch=1 n=c#7 v=0
27761 On ch=1 n=f#7 v=0
27762 On ch=1 n=a#7 v=49
27782 On ch=1 n=a#7 v=0
27782 On ch=1 n=c#8 v=49
27801 On ch=1 n=a#7 v=49
27802 On ch=1 n=c#8 v=0
27821 On ch=1 n=a#7 v=0
27822 Par ch=1 c=64 v=127
27822 On ch=1 n=c#7 v=49
27842 On ch=1 n=c#7 v=0
27842 On ch=1 n=a#6 v=49
27861 On ch=1 n=c#7 v=49
27862 On ch=1 n=a#6 v=0
27881 On ch=1 n=c#7 v=0
27882 On ch=1 n=f#7 v=49
27902 On ch=1 n=f#7 v=0
27902 On ch=1 n=a#7 v=49
27921 Par ch=1 c=64 v=0
27921 On ch=1 n=f#7 v=49
27922 On ch=1 n=a#7 v=0
27941 On ch=1 n=f#7 v=0
27942 Par ch=1 c=64 v=127
27942 On ch=1 n=a#6 v=49
27962 On ch=1 n=a#6 v=0
27962 On ch=1 n=f#6 v=49
27981 On ch=1 n=a#6 v=49
27982 On ch=1 n=f#6 v=0
28001 On ch=1 n=a#6 v=0
28002 On ch=1 n=d#7 v=49
28022 On ch=1 n=d#7 v=0
28022 On ch=1 n=f#7 v=49
28041 Par ch=1 c=64 v=0
28041 On ch=1 n=d#7 v=49
28042 On ch=1 n=f#7 v=0
28061 On ch=1 n=d#7 v=0
28062 Par ch=1 c=64 v=127
28062 On ch=1 n=g#6 v=49
28082 On ch=1 n=g#6 v=0
28082 On ch=1 n=f6 v=49
28101 On ch=1 n=g#6 v=49
28102 On ch=1 n=f6 v=0
28121 On ch=1 n=g#6 v=0
28122 On ch=1 n=c#7 v=49
28142 On ch=1 n=c#7 v=0
28142 On ch=1 n=f7 v=49
28161 Par ch=1 c=64 v=0
28161 On ch=1 n=c#7 v=49
28162 On ch=1 n=f7 v=0
28181 On ch=1 n=c#7 v=0
28182 Par ch=1 c=64 v=127
28182 On ch=1 n=g#6 v=49
28202 On ch=1 n=g#6 v=0
28202 On ch=1 n=d#6 v=49
28221 On ch=1 n=g#6 v=49
28222 On ch=1 n=d#6 v=0
28241 On ch=1 n=g#6 v=0
28242 On ch=1 n=c7 v=49
28262 On ch=1 n=c7 v=0
28262 On ch=1 n=d#7 v=49
28281 Par ch=1 c=64 v=0
28281 On ch=1 n=c7 v=49
28282 On ch=1 n=d#7 v=0
28301 On ch=1 n=c7 v=0
28302 Par ch=1 c=64 v=127
28302 On ch=1 n=c#5 v=49
28322 On ch=1 n=c#5 v=0
28322 On ch=1 n=g#5 v=49
28341 On ch=1 n=c#6 v=49
28342 On ch=1 n=g#5 v=0
28361 On ch=1 n=c#6 v=0
28362 On ch=1 n=f6 v=49
28382 On ch=1 n=f6 v=0
28382 On ch=1 n=g#6 v=49
28401 On ch=1 n=c#7 v=49
28402 On ch=1 n=g#6 v=0
28421 On ch=1 n=c#7 v=0
28422 On ch=1 n=g#7 v=49
28442 On ch=1 n=g#7 v=0
28442 On ch=1 n=f7 v=49
28461 On ch=1 n=c#7 v=49
28462 On ch=1 n=f7 v=0
28481 On ch=1 n=c#7 v=0
28482 Par ch=1 c=64 v=0
28482 On ch=1 n=g#6 v=49
28502 On ch=1 n=g#6 v=0
28502 On ch=1 n=f7 v=49
28521 On ch=1 n=c7 v=49
28522 On ch=1 n=f7 v=0
28541 On ch=1 n=c7 v=0
28542 On ch=1 n=g#6 v=67
28542 On ch=1 n=d#7 v=75
28662 On ch=1 n=d#7 v=0
28662 On ch=1 n=g#6 v=0
28662 On ch=1 n=g#6 v=49
28662 On ch=1 n=c#7 v=49
28668 On ch=1 n=c#7 v=0
28668 On ch=1 n=g#6 v=0
28782 On ch=1 n=a6 v=67
28782 On ch=1 n=c#7 v=75
28842 On ch=1 n=c#7 v=0
28842 On ch=1 n=a6 v=0
28842 On ch=1 n=e6 v=49
28842 On ch=1 n=e7 v=49
28846 On ch=1 n=e7 v=0
28846 On ch=1 n=e6 v=0
28902 On ch=1 n=f#6 v=67
28902 On ch=1 n=a6 v=75
28962 On ch=1 n=a6 v=0
28962 On ch=1 n=f#6 v=0
28962 On ch=1 n=c#6 v=49
28962 On ch=1 n=c#7 v=49
28966 On ch=1 n=c#7 v=0
28966 On ch=1 n=c#6 v=0
29022 On ch=1 n=d6 v=67
29022 On ch=1 n=f#6 v=75
29082 On ch=1 n=f#6 v=0
29082 On ch=1 n=d6 v=0
29082 On ch=1 n=a5 v=49
29082 On ch=1 n=a6 v=49
29086 On ch=1 n=a6 v=0
29086 On ch=1 n=a5 v=0
29142 On ch=1 n=b5 v=67
29142 On ch=1 n=d6 v=75
29202 On ch=1 n=d6 v=0
29202 On ch=1 n=b5 v=0
29202 On ch=1 n=f#5 v=49
29202 On ch=1 n=f#6 v=49
29206 On ch=1 n=f#6 v=0
29206 On ch=1 n=f#5 v=0
29262 Par ch=1 c=64 v=127
29262 On ch=1 n=e4 v=49
29277 On ch=1 n=e4 v=0
29277 On ch=1 n=b4 v=49
29292 On ch=1 n=b4 v=0
29292 On ch=1 n=d5 v=49
29307 On ch=1 n=d5 v=0
29307 On ch=1 n=g#5 v=49
29322 On ch=1 n=g#5 v=0
29322 On ch=1 n=b5 v=49
29342 On ch=1 n=b5 v=0
29342 On ch=1 n=e6 v=49
29361 On ch=1 n=g#6 v=49
29362 On ch=1 n=e6 v=0
29381 On ch=1 n=g#6 v=0
29382 On ch=1 n=d7 v=49
29388 On ch=1 n=d7 v=0
29442 Par ch=1 c=64 v=0
29442 On ch=1 n=g#5 v=49
29448 On ch=1 n=g#5 v=0
29502 Par ch=1 c=64 v=127
29502 On ch=1 n=a4 v=49
29517 On ch=1 n=a4 v=0
29517 On ch=1 n=e5 v=49
29532 On ch=1 n=e5 v=0
29532 On ch=1 n=a5 v=49
29547 On ch=1 n=a5 v=0
29547 On ch=1 n=c#6 v=49
29562 On ch=1 n=c#6 v=0
29562 On ch=1 n=e6 v=49
29582 On ch=1 n=e6 v=0
29582 On ch=1 n=a6 v=49
29601 On ch=1 n=c#7 v=49
29602 On ch=1 n=a6 v=0
29621 On ch=1 n=c#7 v=0
29622 On ch=1 n=a7 v=49
29628 On ch=1 n=a7 v=0
29682 Par ch=1 c=64 v=0
29682 On ch=1 n=a5 v=49
29688 On ch=1 n=a5 v=0
29742 On ch=1 n=a6 v=67
29742 On ch=1 n=c#7 v=75
29802 On ch=1 n=c#7 v=0
29802 On ch=1 n=a6 v=0
29802 On ch=1 n=e6 v=49
29802 On ch=1 n=e7 v=49
29806 On ch=1 n=e7 v=0
29806 On ch=1 n=e6 v=0
29862 On ch=1 n=f#6 v=67
29862 On ch=1 n=a6 v=75
29922 On ch=1 n=a6 v=0
29922 On ch=1 n=f#6 v=0
29922 On ch=1 n=c#6 v=49
29922 On ch=1 n=c#7 v=49
29926 On ch=1 n=c#7 v=0
29926 On ch=1 n=c#6 v=0
29982 On ch=1 n=d6 v=67
29982 On ch=1 n=f#6 v=75
30042 On ch=1 n=f#6 v=0
30042 On ch=1 n=d6 v=0
30042 On ch=1 n=a5 v=49
30042 On ch=1 n=a6 v=49
30046 On ch=1 n=a6 v=0
30046 On ch=1 n=a5 v=0
30102 On ch=1 n=b5 v=67
30102 On ch=1 n=d6 v=75
30162 On ch=1 n=d6 v=0
30162 On ch=1 n=b5 v=0
30162 On ch=1 n=f#5 v=49
30162 On ch=1 n=f#6 v=49
30166 On ch=1 n=f#6 v=0
30166 On ch=1 n=f#5 v=0
30222 Par ch=1 c=64 v=127
30222 On ch=1 n=e5 v=49
30237 On ch=1 n=e5 v=0
30237 On ch=1 n=b5 v=49
30252 On ch=1 n=b5 v=0
30252 On ch=1 n=d6 v=49
30267 On ch=1 n=d6 v=0
30267 On ch=1 n=g#6 v=49
30282 On ch=1 n=g#6 v=0
30282 On ch=1 n=b6 v=49
30302 On ch=1 n=b6 v=0
30302 On ch=1 n=e7 v=49
30321 On ch=1 n=g#7 v=49
30322 On ch=1 n=e7 v=0
30341 On ch=1 n=g#7 v=0
30342 On ch=1 n=d8 v=49
30348 On ch=1 n=d8 v=0
30402 Par ch=1 c=64 v=0
30402 On ch=1 n=g#6 v=49
30408 On ch=1 n=g#6 v=0
30462 Par ch=1 c=64 v=127
30462 On ch=1 n=a5 v=49
30477 On ch=1 n=a5 v=0
30477 On ch=1 n=e6 v=49
30492 On ch=1 n=e6 v=0
30492 On ch=1 n=a6 v=49
30507 On ch=1 n=a6 v=0
30507 On ch=1 n=c#7 v=49
30522 On ch=1 n=c#7 v=0
30522 On ch=1 n=e7 v=49
30542 On ch=1 n=e7 v=0
30542 On ch=1 n=a7 v=49
30561 On ch=1 n=c#8 v=49
30562 On ch=1 n=a7 v=0
30581 On ch=1 n=c#8 v=0
30582 On ch=1 n=a8 v=49
30588 On ch=1 n=a8 v=0
30642 Par ch=1 c=64 v=0
30642 On ch=1 n=a6 v=49
30648 On ch=1 n=a6 v=0
30702 On ch=1 n=f#6 v=85
30702 On ch=1 n=a#6 v=101
30762 On ch=1 n=a#6 v=0
30762 On ch=1 n=f#6 v=0
30762 On ch=1 n=c#6 v=49
30762 On ch=1 n=c#7 v=49
30766 On ch=1 n=c#7 v=0
30766 On ch=1 n=c#6 v=0
30822 On ch=1 n=d#6 v=67
30822 On ch=1 n=f#6 v=75
30882 On ch=1 n=f#6 v=0
30882 On ch=1 n=d#6 v=0
30882 On ch=1 n=a#5 v=49
30882 On ch=1 n=a#6 v=49
30886 On ch=1 n=a#6 v=0
30886 On ch=1 n=a#5 v=0
30942 On ch=1 n=b5 v=67
30942 On ch=1 n=d#6 v=75
31002 On ch=1 n=d#6 v=0
31002 On ch=1 n=b5 v=0
31002 On ch=1 n=f#5 v=49
31002 On ch=1 n=f#6 v=49
31006 On ch=1 n=f#6 v=0
31006 On ch=1 n=f#5 v=0
31062 On ch=1 n=g#5 v=67
31062 On ch=1 n=b5 v=75
31122 On ch=1 n=b5 v=0
31122 On ch=1 n=g#5 v=0
31122 On ch=1 n=d#5 v=49
31122 On ch=1 n=d#6 v=49
31126 On ch=1 n=d#6 v=0
31126 On ch=1 n=d#5 v=0
31182 Par ch=1 c=64 v=127
31182 On ch=1 n=c#5 v=49
31197 On ch=1 n=c#5 v=0
31197 On ch=1 n=g#5 v=49
31212 On ch=1 n=g#5 v=0
31212 On ch=1 n=b5 v=49
31227 On ch=1 n=b5 v=0
31227 On ch=1 n=f6 v=49
31242 On ch=1 n=f6 v=0
31242 On ch=1 n=g#6 v=49
31262 On ch=1 n=g#6 v=0
31262 On ch=1 n=c#7 v=49
31281 On ch=1 n=f7 v=49
31282 On ch=1 n=c#7 v=0
31301 On ch=1 n=f7 v=0
31302 On ch=1 n=b7 v=49
31308 On ch=1 n=b7 v=0
31362 Par ch=1 c=64 v=0
31362 On ch=1 n=f6 v=49
31368 On ch=1 n=f6 v=0
31422 Par ch=1 c=64 v=127
31422 On ch=1 n=f#5 v=49
31437 On ch=1 n=f#5 v=0
31437 On ch=1 n=c#6 v=49
31452 On ch=1 n=c#6 v=0
31452 On ch=1 n=f#6 v=49
31467 On ch=1 n=f#6 v=0
31467 On ch=1 n=a#6 v=49
31482 On ch=1 n=a#6 v=0
31482 On ch=1 n=c#7 v=49
31502 On ch=1 n=c#7 v=0
31502 On ch=1 n=f#7 v=49
31521 On ch=1 n=a#7 v=49
31522 On ch=1 n=f#7 v=0
31541 On ch=1 n=a#7 v=0
31542 On ch=1 n=f#8 v=49
31548 On ch=1 n=f#8 v=0
31602 Par ch=1 c=64 v=0
31602 On ch=1 n=f#6 v=49
31608 On ch=1 n=f#6 v=0
31662 On ch=1 n=f#7 v=67
31662 On ch=1 n=a#7 v=75
31722 On ch=1 n=a#7 v=0
31722 On ch=1 n=f#7 v=0
31722 On ch=1 n=c#7 v=49
31722 On ch=1 n=c#8 v=49
31726 On ch=1 n=c#8 v=0
31726 On ch=1 n=c#7 v=0
31782 On ch=1 n=d#7 v=67
31782 On ch=1 n=f#7 v=75
31842 On ch=1 n=f#7 v=0
31842 On ch=1 n=d#7 v=0
31842 On ch=1 n=a#6 v=49
31842 On ch=1 n=a#7 v=49
31846 On ch=1 n=a#7 v=0
31846 On ch=1 n=a#6 v=0
31902 On ch=1 n=b6 v=67
31902 On ch=1 n=d#7 v=75
31962 On ch=1 n=d#7 v=0
31962 On ch=1 n=b6 v=0
31962 On ch=1 n=f#6 v=49
31962 On ch=1 n=f#7 v=49
31966 On ch=1 n=f#7 v=0
31966 On ch=1 n=f#6 v=0
32022 On ch=1 n=g#6 v=67
32022 On ch=1 n=b6 v=75
32082 On ch=1 n=b6 v=0
32082 On ch=1 n=g#6 v=0
32082 On ch=1 n=d#6 v=49
32082 On ch=1 n=d#7 v=49
32086 On ch=1 n=d#7 v=0
32086 On ch=1 n=d#6 v=0
32142 Par ch=1 c=64 v=127
32142 On ch=1 n=g#6 v=75
32172 On ch=1 n=g#6 v=0
32172 On ch=1 n=b6 v=49
32202 On ch=1 n=b6 v=0
32202 On ch=1 n=f6 v=49
32232 On ch=1 n=f6 v=0
32232 Par ch=1 c=64 v=0
32232 On ch=1 n=g#6 v=49
32262 On ch=1 n=g#6 v=0
32262 Par ch=1 c=64 v=127
32262 On ch=1 n=c#6 v=75
32292 On ch=1 n=c#6 v=0
32292 On ch=1 n=f6 v=49
32322 On ch=1 n=f6 v=0
32322 On ch=1 n=a#5 v=49
32352 On ch=1 n=a#5 v=0
32352 Par ch=1 c=64 v=0
32352 On ch=1 n=c#6 v=49
32382 On ch=1 n=c#6 v=0
32382 Par ch=1 c=64 v=127
32382 On ch=1 n=f#5 v=75
32412 On ch=1 n=f#5 v=0
32412 On ch=1 n=a#5 v=49
32442 On ch=1 n=a#5 v=0
32442 On ch=1 n=d#5 v=49
32472 On ch=1 n=d#5 v=0
32472 Par ch=1 c=64 v=0
32472 On ch=1 n=f#5 v=49
32502 On ch=1 n=f#5 v=0
32502 Par ch=1 c=64 v=127
32502 On ch=1 n=b4 v=101
32532 On ch=1 n=b4 v=0
32532 On ch=1 n=d#5 v=49
32562 On ch=1 n=d#5 v=0
32562 On ch=1 n=g#4 v=49
32592 On ch=1 n=g#4 v=0
32592 Par ch=1 c=64 v=0
32592 On ch=1 n=b4 v=49
32622 On ch=1 n=b4 v=0
32622 Par ch=1 c=64 v=127
32622 On ch=1 n=c#4 v=49
32637 On ch=1 n=c#4 v=0
32637 On ch=1 n=g#4 v=49
32652 On ch=1 n=g#4 v=0
32652 On ch=1 n=b4 v=49
32667 On ch=1 n=b4 v=0
32667 On ch=1 n=f5 v=49
32682 On ch=1 n=f5 v=0
32682 On ch=1 n=g#5 v=49
32702 On ch=1 n=g#5 v=0
32702 On ch=1 n=c#6 v=49
32721 On ch=1 n=f6 v=49
32722 On ch=1 n=c#6 v=0
32741 On ch=1 n=f6 v=0
32742 On ch=1 n=b6 v=49
32748 On ch=1 n=b6 v=0
32802 Par ch=1 c=64 v=0
32802 On ch=1 n=f5 v=49
32808 On ch=1 n=f5 v=0
32862 Par ch=1 c=64 v=127
32862 On ch=1 n=f#4 v=49
32877 On ch=1 n=f#4 v=0
32877 On ch=1 n=c#5 v=49
32892 On ch=1 n=c#5 v=0
32892 On ch=1 n=f#5 v=49
32907 On ch=1 n=f#5 v=0
32907 On ch=1 n=a#5 v=49
32922 On ch=1 n=a#5 v=0
32922 On ch=1 n=c#6 v=49
32942 On ch=1 n=c#6 v=0
32942 On ch=1 n=f#6 v=49
32961 On ch=1 n=a#6 v=49
32962 On ch=1 n=f#6 v=0
32981 On ch=1 n=a#6 v=0
32982 On ch=1 n=f#7 v=49
32988 On ch=1 n=f#7 v=0
33042 Par ch=1 c=64 v=0
33042 On ch=1 n=f#5 v=49
33048 On ch=1 n=f#5 v=0
33102 Par ch=1 c=64 v=127
33102 On ch=1 n=d#4 v=49
33117 On ch=1 n=d#4 v=0
33117 On ch=1 n=a#4 v=49
33132 On ch=1 n=a#4 v=0
33132 On ch=1 n=c#5 v=49
33147 On ch=1 n=c#5 v=0
33147 On ch=1 n=g5 v=49
33162 On ch=1 n=g5 v=0
33162 On ch=1 n=a#5 v=49
33182 On ch=1 n=a#5 v=0
33182 On ch=1 n=d#6 v=49
33201 On ch=1 n=g6 v=49
33202 On ch=1 n=d#6 v=0
33221 On ch=1 n=g6 v=0
33222 On ch=1 n=c#7 v=49
33228 On ch=1 n=c#7 v=0
33282 Par ch=1 c=64 v=0
33282 On ch=1 n=g5 v=49
33288 On ch=1 n=g5 v=0
33342 Par ch=1 c=64 v=127
33342 On ch=1 n=g#4 v=49
33357 On ch=1 n=g#4 v=0
33357 On ch=1 n=d#5 v=49
33372 On ch=1 n=d#5 v=0
33372 On ch=1 n=g#5 v=49
33387 On ch=1 n=g#5 v=0
33387 On ch=1 n=b5 v=49
33402 On ch=1 n=b5 v=0
33402 On ch=1 n=d#6 v=49
33422 On ch=1 n=d#6 v=0
33422 On ch=1 n=g#6 v=49
33441 On ch=1 n=b6 v=49
33442 On ch=1 n=g#6 v=0
33461 On ch=1 n=b6 v=0
33462 On ch=1 n=g#7 v=49
33468 On ch=1 n=g#7 v=0
33522 Par ch=1 c=64 v=0
33522 On ch=1 n=g#5 v=49
33528 On ch=1 n=g#5 v=0
33582 Par ch=1 c=64 v=127
33582 On ch=1 n=f#4 v=49
33597 On ch=1 n=f#4 v=0
33597 On ch=1 n=c#5 v=49
33612 On ch=1 n=c#5 v=0
33612 On ch=1 n=e5 v=49
33627 On ch=1 n=e5 v=0
33627 On ch=1 n=a#5 v=49
33642 On ch=1 n=a#5 v=0
33642 On ch=1 n=c#6 v=49
33662 On ch=1 n=c#6 v=0
33662 On ch=1 n=f#6 v=49
33681 On ch=1 n=a#6 v=49
33682 On ch=1 n=f#6 v=0
33701 On ch=1 n=a#6 v=0
33702 On ch=1 n=e7 v=49
33708 On ch=1 n=e7 v=0
33762 Par ch=1 c=64 v=0
33762 On ch=1 n=a#5 v=49
33768 On ch=1 n=a#5 v=0
33822 Par ch=1 c=64 v=127
33822 On ch=1 n=b4 v=49
33837 On ch=1 n=b4 v=0
33837 On ch=1 n=f#5 v=49
33852 On ch=1 n=f#5 v=0
33852 On ch=1 n=b5 v=49
33867 On ch=1 n=b5 v=0
33867 On ch=1 n=d#6 v=49
33882 On ch=1 n=d#6 v=0
33882 On ch=1 n=f#6 v=49
33902 On ch=1 n=f#6 v=0
33902 On ch=1 n=b6 v=49
33921 On ch=1 n=d#7 v=49
33922 On ch=1 n=b6 v=0
33941 On ch=1 n=d#7 v=0
33942 On ch=1 n=b7 v=49
33948 On ch=1 n=b7 v=0
34002 Par ch=1 c=64 v=0
34002 On ch=1 n=a6 v=67
34002 On ch=1 n=a7 v=75
34008 On ch=1 n=a7 v=0
34008 On ch=1 n=a6 v=0
34062 Par ch=1 c=64 v=127
34062 On ch=1 n=a#6 v=88
34092 On ch=1 n=a#6 v=0
34092 On ch=1 n=c#8 v=88
34122 On ch=1 n=c#8 v=0
34122 On ch=1 n=f#7 v=88
34152 On ch=1 n=f#7 v=0
34152 On ch=1 n=c#8 v=88
34182 On ch=1 n=c#8 v=0
34182 On ch=1 n=f#6 v=88
34212 On ch=1 n=f#6 v=0
34212 On ch=1 n=a#7 v=88
34242 On ch=1 n=a#7 v=0
34242 On ch=1 n=c#7 v=88
34272 On ch=1 n=c#7 v=0
34272 Par ch=1 c=64 v=0
34272 On ch=1 n=a#7 v=88
34302 On ch=1 n=a#7 v=0
34302 Par ch=1 c=64 v=127
34302 On ch=1 n=d#6 v=88
34332 On ch=1 n=d#6 v=0
34332 On ch=1 n=f#7 v=88
34362 On ch=1 n=f#7 v=0
34362 On ch=1 n=a#6 v=88
34392 On ch=1 n=a#6 v=0
34392 On ch=1 n=f#7 v=88
34422 On ch=1 n=f#7 v=0
34422 Par ch=1 c=64 v=0
34422 On ch=1 n=b5 v=88
34452 On ch=1 n=b5 v=0
34452 On ch=1 n=d#7 v=88
34482 On ch=1 n=d#7 v=0
34482 On ch=1 n=f#6 v=88
34512 On ch=1 n=f#6 v=0
34512 On ch=1 n=d#7 v=88
34542 On ch=1 n=d#7 v=0
34542 Par ch=1 c=64 v=127
34542 On ch=1 n=g#5 v=88
34572 On ch=1 n=g#5 v=0
34572 On ch=1 n=b6 v=88
34602 On ch=1 n=b6 v=0
34602 On ch=1 n=d#6 v=88
34632 On ch=1 n=d#6 v=0
34632 On ch=1 n=b6 v=88
34662 On ch=1 n=b6 v=0
34662 Par ch=1 c=64 v=0
34662 On ch=1 n=f5 v=88
34692 On ch=1 n=f5 v=0
34692 On ch=1 n=g#6 v=88
34722 On ch=1 n=g#6 v=0
34722 On ch=1 n=b5 v=88
34752 On ch=1 n=b5 v=0
34752 On ch=1 n=g#6 v=88
34782 On ch=1 n=g#6 v=0
34782 Par ch=1 c=64 v=127
34782 On ch=1 n=c#4 v=88
34797 On ch=1 n=c#4 v=0
34797 On ch=1 n=g#4 v=88
34812 On ch=1 n=g#4 v=0
34812 On ch=1 n=b4 v=88
34827 On ch=1 n=b4 v=0
34827 On ch=1 n=f5 v=88
34842 On ch=1 n=f5 v=0
34842 On ch=1 n=g#5 v=88
34862 On ch=1 n=g#5 v=0
34862 On ch=1 n=c#6 v=88
34881 On ch=1 n=f6 v=88
34882 On ch=1 n=c#6 v=0
34901 On ch=1 n=f6 v=0
34902 On ch=1 n=b6 v=88
34908 On ch=1 n=b6 v=0
34962 Par ch=1 c=64 v=0
34962 On ch=1 n=f5 v=88
34968 On ch=1 n=f5 v=0
35022 Par ch=1 c=64 v=127
35022 On ch=1 n=f#4 v=88
35037 On ch=1 n=f#4 v=0
35037 On ch=1 n=c#5 v=88
35052 On ch=1 n=c#5 v=0
35052 On ch=1 n=f#5 v=88
35067 On ch=1 n=f#5 v=0
35067 On ch=1 n=a#5 v=88
35082 On ch=1 n=a#5 v=0
35082 On ch=1 n=c#6 v=88
35102 On ch=1 n=c#6 v=0
35102 On ch=1 n=f#6 v=88
35121 On ch=1 n=a#6 v=88
35122 On ch=1 n=f#6 v=0
35141 On ch=1 n=a#6 v=0
35142 On ch=1 n=f#7 v=88
35148 On ch=1 n=f#7 v=0
35202 Par ch=1 c=64 v=0
35202 On ch=1 n=f#5 v=88
35208 On ch=1 n=f#5 v=0
35262 Par ch=1 c=64 v=127
35262 On ch=1 n=d#4 v=88
35277 On ch=1 n=d#4 v=0
35277 On ch=1 n=a#4 v=88
35292 On ch=1 n=a#4 v=0
35292 On ch=1 n=c#5 v=88
35307 On ch=1 n=c#5 v=0
35307 On ch=1 n=g5 v=88
35322 On ch=1 n=g5 v=0
35322 On ch=1 n=a#5 v=88
35342 On ch=1 n=a#5 v=0
35342 On ch=1 n=d#6 v=88
35361 On ch=1 n=g6 v=88
35362 On ch=1 n=d#6 v=0
35381 On ch=1 n=g6 v=0
35382 On ch=1 n=c#7 v=88
35388 On ch=1 n=c#7 v=0
35442 Par ch=1 c=64 v=0
35442 On ch=1 n=g5 v=88
35446 On ch=1 n=g5 v=0
35502 Par ch=1 c=64 v=127
35502 On ch=1 n=g#4 v=88
35517 On ch=1 n=g#4 v=0
35517 On ch=1 n=d#5 v=88
35532 On ch=1 n=d#5 v=0
35532 On ch=1 n=g#5 v=88
35547 On ch=1 n=g#5 v=0
35547 On ch=1 n=b5 v=88
35562 On ch=1 n=b5 v=0
35562 On ch=1 n=d#6 v=88
35582 On ch=1 n=d#6 v=0
35582 On ch=1 n=g#6 v=88
35601 On ch=1 n=b6 v=88
35602 On ch=1 n=g#6 v=0
35621 On ch=1 n=b6 v=0
35622 On ch=1 n=g#7 v=88
35628 On ch=1 n=g#7 v=0
35682 Par ch=1 c=64 v=0
35682 On ch=1 n=g#5 v=88
35688 On ch=1 n=g#5 v=0
35742 Par ch=1 c=64 v=127
35742 On ch=1 n=f#4 v=88
35757 On ch=1 n=f#4 v=0
35757 On ch=1 n=c#5 v=88
35772 On ch=1 n=c#5 v=0
35772 On ch=1 n=e5 v=88
35787 On ch=1 n=e5 v=0
35787 On ch=1 n=a#5 v=88
35802 On ch=1 n=a#5 v=0
35802 On ch=1 n=c#6 v=88
35822 On ch=1 n=c#6 v=0
35822 On ch=1 n=f#6 v=88
35841 On ch=1 n=a#6 v=88
35842 On ch=1 n=f#6 v=0
35861 On ch=1 n=a#6 v=0
35862 On ch=1 n=e7 v=88
35868 On ch=1 n=e7 v=0
35922 Par ch=1 c=64 v=0
35922 On ch=1 n=a#5 v=88
35926 On ch=1 n=a#5 v=0
35982 Par ch=1 c=64 v=127
35982 On ch=1 n=b4 v=88
35997 On ch=1 n=b4 v=0
35997 On ch=1 n=f#5 v=88
36012 On ch=1 n=f#5 v=0
36012 On ch=1 n=b5 v=88
36027 On ch=1 n=b5 v=0
36027 On ch=1 n=d#6 v=88
36042 On ch=1 n=d#6 v=0
36042 On ch=1 n=f#6 v=88
36062 On ch=1 n=f#6 v=0
36062 On ch=1 n=b6 v=88
36081 On ch=1 n=d#7 v=88
36082 On ch=1 n=b6 v=0
36101 On ch=1 n=d#7 v=0
36102 On ch=1 n=b7 v=88
36108 On ch=1 n=b7 v=0
36162 Par ch=1 c=64 v=0
36162 On ch=1 n=a6 v=106
36162 On ch=1 n=a7 v=114
36166 On ch=1 n=a7 v=0
36166 On ch=1 n=a6 v=0
36222 Par ch=1 c=64 v=127
36222 On ch=1 n=a#6 v=88
36252 On ch=1 n=a#6 v=0
36252 On ch=1 n=c#8 v=88
36282 On ch=1 n=c#8 v=0
36282 On ch=1 n=f#7 v=88
36312 On ch=1 n=f#7 v=0
36312 On ch=1 n=c#8 v=88
36342 On ch=1 n=c#8 v=0
36342 On ch=1 n=f#6 v=88
36372 On ch=1 n=f#6 v=0
36372 On ch=1 n=a#7 v=88
36402 On ch=1 n=a#7 v=0
36402 On ch=1 n=c#7 v=88
36432 On ch=1 n=c#7 v=0
36432 Par ch=1 c=64 v=0
36432 On ch=1 n=a#7 v=88
36462 On ch=1 n=a#7 v=0
36462 Par ch=1 c=64 v=127
36462 On ch=1 n=d#6 v=88
36492 On ch=1 n=d#6 v=0
36492 On ch=1 n=f#7 v=88
36522 On ch=1 n=f#7 v=0
36522 On ch=1 n=a#6 v=88
36552 On ch=1 n=a#6 v=0
36552 On ch=1 n=f#7 v=88
36582 On ch=1 n=f#7 v=0
36582 Par ch=1 c=64 v=0
36582 On ch=1 n=b5 v=88
36612 On ch=1 n=b5 v=0
36612 On ch=1 n=d#7 v=88
36642 On ch=1 n=d#7 v=0
36642 On ch=1 n=f#6 v=88
36672 On ch=1 n=f#6 v=0
36672 On ch=1 n=d#7 v=88
36702 On ch=1 n=d#7 v=0
36702 Par ch=1 c=64 v=127
36702 On ch=1 n=g#5 v=88
36732 On ch=1 n=g#5 v=0
36732 On ch=1 n=b6 v=88
36762 On ch=1 n=b6 v=0
36762 On ch=1 n=d#6 v=88
36792 On ch=1 n=d#6 v=0
36792 On ch=1 n=b6 v=88
36822 On ch=1 n=b6 v=0
36822 Par ch=1 c=64 v=0
36822 On ch=1 n=f5 v=88
36852 On ch=1 n=f5 v=0
36852 On ch=1 n=g#6 v=88
36882 On ch=1 n=g#6 v=0
36882 On ch=1 n=b5 v=88
36912 On ch=1 n=b5 v=0
36912 On ch=1 n=g#6 v=88
36942 On ch=1 n=g#6 v=0
36942 Par ch=1 c=64 v=127
36942 On ch=1 n=a#5 v=88
36972 On ch=1 n=a#5 v=0
36972 On ch=1 n=c#7 v=88
37002 On ch=1 n=c#7 v=0
37002 On ch=1 n=f#6 v=88
37032 On ch=1 n=f#6 v=0
37032 On ch=1 n=c#7 v=88
37062 On ch=1 n=c#7 v=0
37062 On ch=1 n=f#5 v=88
37092 On ch=1 n=f#5 v=0
37092 On ch=1 n=a#6 v=88
37122 On ch=1 n=a#6 v=0
37122 On ch=1 n=c#6 v=88
37152 On ch=1 n=c#6 v=0
37152 Par ch=1 c=64 v=0
37152 On ch=1 n=a#6 v=88
37182 On ch=1 n=a#6 v=0
37182 Par ch=1 c=64 v=127
37182 On ch=1 n=d#5 v=101
37212 On ch=1 n=d#5 v=0
37212 On ch=1 n=f#6 v=101
37242 On ch=1 n=f#6 v=0
37242 On ch=1 n=a#5 v=101
37272 On ch=1 n=a#5 v=0
37272 On ch=1 n=f#6 v=101
37302 On ch=1 n=f#6 v=0
37302 Par ch=1 c=64 v=0
37302 On ch=1 n=b4 v=101
37332 On ch=1 n=b4 v=0
37332 On ch=1 n=d#6 v=101
37362 On ch=1 n=d#6 v=0
37362 On ch=1 n=f#5 v=101
37392 On ch=1 n=f#5 v=0
37392 On ch=1 n=d#6 v=101
37422 On ch=1 n=d#6 v=0
37422 Par ch=1 c=64 v=127
37422 On ch=1 n=g#4 v=101
37452 On ch=1 n=g#4 v=0
37452 On ch=1 n=b5 v=101
37482 On ch=1 n=b5 v=0
37482 On ch=1 n=d#5 v=101
37512 On ch=1 n=d#5 v=0
37512 On ch=1 n=b5 v=101
37542 On ch=1 n=b5 v=0
37542 Par ch=1 c=64 v=0
37542 On ch=1 n=f4 v=101
37572 On ch=1 n=f4 v=0
37572 On ch=1 n=g#5 v=101
37602 On ch=1 n=g#5 v=0
37602 On ch=1 n=b4 v=101
37632 On ch=1 n=b4 v=0
37632 On ch=1 n=g#5 v=101
37662 On ch=1 n=g#5 v=0
37662 Par ch=1 c=64 v=127
37692 On ch=1 n=a#4 v=114
37692 On ch=1 n=a#5 v=114
37722 On ch=1 n=a#5 v=0
37722 On ch=1 n=a#4 v=0
37752 On ch=1 n=c#5 v=114
37752 On ch=1 n=c#6 v=114
37782 On ch=1 n=c#6 v=0
37782 On ch=1 n=c#5 v=0
37812 On ch=1 n=f#5 v=114
37842 On ch=1 n=f#5 v=0
37872 Par ch=1 c=64 v=0
37872 On ch=1 n=a#5 v=114
37902 On ch=1 n=a#5 v=0
37902 Par ch=1 c=64 v=127
37932 On ch=1 n=d#5 v=114
37962 On ch=1 n=d#5 v=0
37992 On ch=1 n=f#5 v=114
38022 On ch=1 n=f#5 v=0
38052 On ch=1 n=b4 v=114
38082 On ch=1 n=b4 v=0
38112 Par ch=1 c=64 v=0
38112 On ch=1 n=d#5 v=114
38142 On ch=1 n=d#5 v=0
38622 Par ch=1 c=64 v=127
38622 On ch=1 n=d4 v=127
38757 On ch=1 n=d4 v=0
38757 On ch=1 n=f4 v=114
38772 On ch=1 n=f4 v=0
38772 On ch=1 n=g#4 v=114
38787 On ch=1 n=g#4 v=0
38787 On ch=1 n=b4 v=114
38802 On ch=1 n=b4 v=0
38802 On ch=1 n=d5 v=114
38817 On ch=1 n=d5 v=0
38817 On ch=1 n=f5 v=114
38832 On ch=1 n=f5 v=0
38832 On ch=1 n=g#5 v=114
38847 On ch=1 n=g#5 v=0
38847 On ch=1 n=b5 v=114
38862 On ch=1 n=b5 v=0
38862 On ch=1 n=d6 v=114
38877 On ch=1 n=d6 v=0
38877 On ch=1 n=f6 v=114
38892 On ch=1 n=f6 v=0
38892 On ch=1 n=g#6 v=114
38907 On ch=1 n=g#6 v=0
38907 On ch=1 n=b6 v=114
38922 On ch=1 n=b6 v=0
38922 On ch=1 n=d7 v=114
38937 On ch=1 n=d7 v=0
38937 On ch=1 n=f7 v=114
38952 On ch=1 n=f7 v=0
38952 On ch=1 n=g#7 v=114
38967 On ch=1 n=g#7 v=0
38967 On ch=1 n=b7 v=114
38982 On ch=1 n=b7 v=0
38982 On ch=1 n=d7 v=127
38982 On ch=1 n=d8 v=127
38988 On ch=1 n=d8 v=0
38988 On ch=1 n=d7 v=0
39042 Par ch=1 c=64 v=0
39102 Par ch=1 c=64 v=127
39102 On ch=1 n=f7 v=127
39102 On ch=1 n=b7 v=127
39102 On ch=1 n=f8 v=127
39108 On ch=1 n=f8 v=0
39108 On ch=1 n=b7 v=0
39108 On ch=1 n=f7 v=0
39162 Par ch=1 c=64 v=0
39177 On ch=1 n=c#8 v=114
39192 On ch=1 n=c#8 v=0
39192 On ch=1 n=d#8 v=114
39207 On ch=1 n=d#8 v=0
39207 On ch=1 n=f8 v=114
39222 On ch=1 n=f8 v=0
39222 Par ch=1 c=64 v=127
39222 On ch=1 n=f#7 v=114
39222 On ch=1 n=f#8 v=114
39282 On ch=1 n=f#8 v=0
39282 On ch=1 n=f#7 v=0
39282 On ch=1 n=c#6 v=127
39282 On ch=1 n=a#6 v=127
39282 On ch=1 n=c#7 v=127
39402 On ch=1 n=c#7 v=0
39402 On ch=1 n=a#6 v=0
39402 On ch=1 n=c#6 v=0
39402 Par ch=1 c=64 v=0
39402 On ch=1 n=d#6 v=114
39402 On ch=1 n=b6 v=114
39402 On ch=1 n=d#7 v=114
39462 On ch=1 n=d#7 v=0
39462 On ch=1 n=b6 v=0
39462 On ch=1 n=d#6 v=0
39462 On ch=1 n=c#6 v=114
39462 On ch=1 n=a#6 v=114
39462 On ch=1 n=c#7 v=114
39582 On ch=1 n=c#7 v=0
39582 On ch=1 n=a#6 v=0
39582 On ch=1 n=c#6 v=0
39582 On ch=1 n=d#6 v=114
39582 On ch=1 n=b6 v=114
39582 On ch=1 n=d#7 v=114
39702 On ch=1 n=d#7 v=0
39702 On ch=1 n=b6 v=0
39702 On ch=1 n=d#6 v=0
39702 On ch=1 n=c#6 v=114
39702 On ch=1 n=a#6 v=114
39702 On ch=1 n=c#7 v=114
39822 On ch=1 n=c#7 v=0
39822 On ch=1 n=a#6 v=0
39822 On ch=1 n=c#6 v=0
39897 On ch=1 n=c#8 v=114
39912 On ch=1 n=c#8 v=0
39912 On ch=1 n=d#8 v=114
39927 On ch=1 n=d#8 v=0
39927 On ch=1 n=f8 v=114
39942 On ch=1 n=f8 v=0
39942 Par ch=1 c=64 v=127
39942 On ch=1 n=f#7 v=114
39942 On ch=1 n=f#8 v=114
40002 On ch=1 n=f#8 v=0
40002 On ch=1 n=f#7 v=0
40002 On ch=1 n=c#6 v=127
40002 On ch=1 n=a#6 v=127
40002 On ch=1 n=c#7 v=127
40122 On ch=1 n=c#7 v=0
40122 On ch=1 n=a#6 v=0
40122 On ch=1 n=c#6 v=0
40122 Par ch=1 c=64 v=0
40122 On ch=1 n=d#6 v=114
40122 On ch=1 n=b6 v=114
40122 On ch=1 n=d#7 v=114
40182 On ch=1 n=d#7 v=0
40182 On ch=1 n=b6 v=0
40182 On ch=1 n=d#6 v=0
40182 On ch=1 n=c#6 v=114
40182 On ch=1 n=a#6 v=114
40182 On ch=1 n=c#7 v=114
40302 On ch=1 n=c#7 v=0
40302 On ch=1 n=a#6 v=0
40302 On ch=1 n=c#6 v=0
40302 On ch=1 n=f6 v=114
40302 On ch=1 n=g#6 v=114
40302 On ch=1 n=f7 v=114
40422 On ch=1 n=f7 v=0
40422 On ch=1 n=g#6 v=0
40422 On ch=1 n=f6 v=0
40422 On ch=1 n=f#6 v=114
40422 On ch=1 n=a#6 v=114
40422 On ch=1 n=f#7 v=114
40542 On ch=1 n=f#7 v=0
40542 On ch=1 n=a#6 v=0
40542 On ch=1 n=f#6 v=0
40617 On ch=1 n=c#8 v=114
40632 On ch=1 n=c#8 v=0
40632 On ch=1 n=d#8 v=114
40647 On ch=1 n=d#8 v=0
40647 On ch=1 n=f8 v=114
40662 On ch=1 n=f8 v=0
40662 Par ch=1 c=64 v=127
40662 On ch=1 n=f#7 v=114
40662 On ch=1 n=f#8 v=114
40722 On ch=1 n=f#8 v=0
40722 On ch=1 n=f#7 v=0
40722 On ch=1 n=c#6 v=127
40722 On ch=1 n=a#6 v=127
40722 On ch=1 n=c#7 v=127
40842 On ch=1 n=c#7 v=0
40842 On ch=1 n=a#6 v=0
40842 On ch=1 n=c#6 v=0
40842 Par ch=1 c=64 v=0
40842 On ch=1 n=d#6 v=114
40842 On ch=1 n=b6 v=114
40842 On ch=1 n=d#7 v=114
40902 On ch=1 n=d#7 v=0
40902 On ch=1 n=b6 v=0
40902 On ch=1 n=d#6 v=0
40902 On ch=1 n=c#6 v=114
40902 On ch=1 n=a#6 v=114
40902 On ch=1 n=c#7 v=114
41022 On ch=1 n=c#7 v=0
41022 On ch=1 n=a#6 v=0
41022 On ch=1 n=c#6 v=0
41022 On ch=1 n=d#6 v=114
41022 On ch=1 n=b6 v=114
41022 On ch=1 n=d#7 v=114
41142 On ch=1 n=d#7 v=0
41142 On ch=1 n=b6 v=0
41142 On ch=1 n=d#6 v=0
41142 On ch=1 n=c#6 v=114
41142 On ch=1 n=a#6 v=114
41142 On ch=1 n=c#7 v=114
41262 On ch=1 n=c#7 v=0
41262 On ch=1 n=a#6 v=0
41262 On ch=1 n=c#6 v=0
41337 On ch=1 n=c#8 v=114
41352 On ch=1 n=c#8 v=0
41352 On ch=1 n=d#8 v=114
41367 On ch=1 n=d#8 v=0
41367 On ch=1 n=f8 v=114
41382 On ch=1 n=f8 v=0
41382 Par ch=1 c=64 v=127
41382 On ch=1 n=f#7 v=114
41382 On ch=1 n=f#8 v=114
41442 On ch=1 n=f#8 v=0
41442 On ch=1 n=f#7 v=0
41442 On ch=1 n=c#6 v=127
41442 On ch=1 n=a#6 v=127
41442 On ch=1 n=c#7 v=127
41562 On ch=1 n=c#7 v=0
41562 On ch=1 n=a#6 v=0
41562 On ch=1 n=c#6 v=0
41562 Par ch=1 c=64 v=0
41562 On ch=1 n=d#6 v=114
41562 On ch=1 n=b6 v=114
41562 On ch=1 n=d#7 v=114
41622 On ch=1 n=d#7 v=0
41622 On ch=1 n=b6 v=0
41622 On ch=1 n=d#6 v=0
41622 On ch=1 n=c#6 v=114
41622 On ch=1 n=a#6 v=114
41622 On ch=1 n=c#7 v=114
41742 On ch=1 n=c#7 v=0
41742 On ch=1 n=a#6 v=0
41742 On ch=1 n=c#6 v=0
41742 On ch=1 n=f6 v=114
41742 On ch=1 n=g#6 v=114
41742 On ch=1 n=f7 v=114
41862 On ch=1 n=f7 v=0
41862 On ch=1 n=g#6 v=0
41862 On ch=1 n=f6 v=0
41862 On ch=1 n=f#6 v=114
41862 On ch=1 n=a#6 v=114
41862 On ch=1 n=f#7 v=114
41982 On ch=1 n=f#7 v=0
41982 On ch=1 n=a#6 v=0
41982 On ch=1 n=f#6 v=0
42057 On ch=1 n=c#5 v=114
42072 On ch=1 n=c#5 v=0
42072 On ch=1 n=d#5 v=114
42087 On ch=1 n=d#5 v=0
42087 On ch=1 n=f5 v=114
42102 On ch=1 n=f5 v=0
42102 On ch=1 n=f#4 v=114
42102 On ch=1 n=f#5 v=114
42108 On ch=1 n=f#5 v=0
42108 On ch=1 n=f#4 v=0
42162 On ch=1 n=g#4 v=114
42162 On ch=1 n=g#5 v=114
42168 On ch=1 n=g#5 v=0
42168 On ch=1 n=g#4 v=0
42222 On ch=1 n=a4 v=127
42222 On ch=1 n=c#5 v=127
42222 On ch=1 n=a5 v=127
42342 On ch=1 n=a5 v=0
42342 On ch=1 n=c#5 v=0
42342 On ch=1 n=a4 v=0
42342 On ch=1 n=b4 v=127
42342 On ch=1 n=d5 v=127
42342 On ch=1 n=f#5 v=127
42342 On ch=1 n=b5 v=127
42348 On ch=1 n=b5 v=0
42348 On ch=1 n=b4 v=0
42348 On ch=1 n=d5 v=0
42348 On ch=1 n=f#5 v=0
42402 On ch=1 n=a4 v=114
42408 On ch=1 n=a4 v=0
42462 On ch=1 n=a4 v=127
42462 On ch=1 n=c#5 v=127
42462 On ch=1 n=e5 v=127
42462 On ch=1 n=a5 v=127
42468 On ch=1 n=a5 v=0
42468 On ch=1 n=a4 v=0
42468 On ch=1 n=c#5 v=0
42468 On ch=1 n=e5 v=0
42522 On ch=1 n=g#4 v=114
42528 On ch=1 n=g#4 v=0
42582 Par ch=1 c=64 v=127
42582 On ch=1 n=g#4 v=114
42582 On ch=1 n=c5 v=114
42582 On ch=1 n=d#5 v=114
42582 On ch=1 n=g#5 v=114
42588 On ch=1 n=g#5 v=0
42588 On ch=1 n=g#4 v=0
42588 On ch=1 n=c5 v=0
42588 On ch=1 n=d#5 v=0
42642 On ch=1 n=g#4 v=114
42642 On ch=1 n=c5 v=114
42642 On ch=1 n=d#5 v=114
42642 On ch=1 n=g#5 v=114
42648 On ch=1 n=g#5 v=0
42648 On ch=1 n=g#4 v=0
42648 On ch=1 n=c5 v=0
42648 On ch=1 n=d#5 v=0
42702 On ch=1 n=g#4 v=114
42702 On ch=1 n=c5 v=114
42702 On ch=1 n=d#5 v=114
42702 On ch=1 n=g#5 v=114
42708 On ch=1 n=g#5 v=0
42708 On ch=1 n=g#4 v=0
42708 On ch=1 n=c5 v=0
42708 On ch=1 n=d#5 v=0
42762 Par ch=1 c=64 v=0
42822 Par ch=1 c=64 v=127
42822 On ch=1 n=g#6 v=62
42822 On ch=1 n=c7 v=62
42822 On ch=1 n=g#7 v=62
42828 On ch=1 n=g#7 v=0
42828 On ch=1 n=c7 v=0
42828 On ch=1 n=g#6 v=0
42882 On ch=1 n=g#6 v=62
42882 On ch=1 n=c7 v=62
42882 On ch=1 n=g#7 v=62
42888 On ch=1 n=g#7 v=0
42888 On ch=1 n=c7 v=0
42888 On ch=1 n=g#6 v=0
42942 On ch=1 n=g#6 v=62
42942 On ch=1 n=c7 v=62
42942 On ch=1 n=g#7 v=62
42948 On ch=1 n=g#7 v=0
42948 On ch=1 n=c7 v=0
42948 On ch=1 n=g#6 v=0
43002 Par ch=1 c=64 v=0
43017 On ch=1 n=c#5 v=62
43032 On ch=1 n=c#5 v=0
43032 On ch=1 n=d#5 v=62
43047 On ch=1 n=d#5 v=0
43047 On ch=1 n=f5 v=62
43062 On ch=1 n=f5 v=0
43062 On ch=1 n=f#4 v=101
43062 On ch=1 n=f#5 v=101
43068 On ch=1 n=f#5 v=0
43068 On ch=1 n=f#4 v=0
43122 On ch=1 n=g#4 v=101
43122 On ch=1 n=g#5 v=101
43128 On ch=1 n=g#5 v=0
43128 On ch=1 n=g#4 v=0
43182 On ch=1 n=a4 v=117
43182 On ch=1 n=c#5 v=122
43182 On ch=1 n=a5 v=127
43302 On ch=1 n=a5 v=0
43302 On ch=1 n=c#5 v=0
43302 On ch=1 n=a4 v=0
43302 On ch=1 n=b4 v=127
43302 On ch=1 n=d5 v=127
43302 On ch=1 n=f#5 v=127
43302 On ch=1 n=b5 v=127
43308 On ch=1 n=b5 v=0
43308 On ch=1 n=b4 v=0
43308 On ch=1 n=d5 v=0
43308 On ch=1 n=f#5 v=0
43362 On ch=1 n=a4 v=101
43368 On ch=1 n=a4 v=0
43422 On ch=1 n=a4 v=115
43422 On ch=1 n=c#5 v=119
43422 On ch=1 n=e5 v=123
43422 On ch=1 n=a5 v=127
43428 On ch=1 n=a5 v=0
43428 On ch=1 n=a4 v=0
43428 On ch=1 n=c#5 v=0
43428 On ch=1 n=e5 v=0
43482 On ch=1 n=g#4 v=101
43488 On ch=1 n=g#4 v=0
43542 Par ch=1 c=64 v=127
43542 On ch=1 n=f#4 v=114
43542 On ch=1 n=a#4 v=114
43542 On ch=1 n=f#5 v=114
43602 On ch=1 n=f#5 v=0
43602 On ch=1 n=a#4 v=0
43602 On ch=1 n=f#4 v=0
43602 On ch=1 n=f#4 v=114
43602 On ch=1 n=a#4 v=114
43602 On ch=1 n=f#5 v=114
43662 On ch=1 n=f#5 v=0
43662 On ch=1 n=a#4 v=0
43662 On ch=1 n=f#4 v=0
43662 On ch=1 n=f#4 v=114
43662 On ch=1 n=a#4 v=114
43662 On ch=1 n=f#5 v=114
43722 On ch=1 n=f#5 v=0
43722 On ch=1 n=a#4 v=0
43722 On ch=1 n=f#4 v=0
43722 Par ch=1 c=64 v=0
43782 Par ch=1 c=64 v=127
43782 On ch=1 n=f#6 v=62
43782 On ch=1 n=a#6 v=62
43782 On ch=1 n=c#7 v=62
43782 On ch=1 n=f#7 v=62
43788 On ch=1 n=f#7 v=0
43788 On ch=1 n=f#6 v=0
43788 On ch=1 n=a#6 v=0
43788 On ch=1 n=c#7 v=0
43842 On ch=1 n=f#6 v=62
43842 On ch=1 n=a#6 v=62
43842 On ch=1 n=c#7 v=62
43842 On ch=1 n=f#7 v=62
43848 On ch=1 n=f#7 v=0
43848 On ch=1 n=f#6 v=0
43848 On ch=1 n=a#6 v=0
43848 On ch=1 n=c#7 v=0
43902 On ch=1 n=f#6 v=62
43902 On ch=1 n=a#6 v=62
43902 On ch=1 n=c#7 v=62
43902 On ch=1 n=f#7 v=62
43908 On ch=1 n=f#7 v=0
43908 On ch=1 n=f#6 v=0
43908 On ch=1 n=a#6 v=0
43908 On ch=1 n=c#7 v=0
43962 Par ch=1 c=64 v=0
43977 On ch=1 n=c#6 v=62
43992 On ch=1 n=c#6 v=0
43992 On ch=1 n=d#6 v=62
44007 On ch=1 n=d#6 v=0
44007 On ch=1 n=f6 v=62
44022 On ch=1 n=f6 v=0
44022 On ch=1 n=f#5 v=101
44022 On ch=1 n=f#6 v=101
44028 On ch=1 n=f#6 v=0
44028 On ch=1 n=f#5 v=0
44082 On ch=1 n=g#5 v=101
44082 On ch=1 n=g#6 v=101
44088 On ch=1 n=g#6 v=0
44088 On ch=1 n=g#5 v=0
44142 On ch=1 n=a5 v=117
44142 On ch=1 n=c#6 v=122
44142 On ch=1 n=a6 v=127
44262 On ch=1 n=a6 v=0
44262 On ch=1 n=c#6 v=0
44262 On ch=1 n=a5 v=0
44262 On ch=1 n=b5 v=115
44262 On ch=1 n=d6 v=119
44262 On ch=1 n=f#6 v=123
44262 On ch=1 n=b6 v=127
44268 On ch=1 n=b6 v=0
44268 On ch=1 n=b5 v=0
44268 On ch=1 n=d6 v=0
44268 On ch=1 n=f#6 v=0
44322 On ch=1 n=a5 v=101
44326 On ch=1 n=a5 v=0
44382 On ch=1 n=a5 v=115
44382 On ch=1 n=c#6 v=119
44382 On ch=1 n=e6 v=123
44382 On ch=1 n=a6 v=127
44388 On ch=1 n=a6 v=0
44388 On ch=1 n=a5 v=0
44388 On ch=1 n=c#6 v=0
44388 On ch=1 n=e6 v=0
44442 On ch=1 n=g#5 v=101
44448 On ch=1 n=g#5 v=0
44502 Par ch=1 c=64 v=127
44502 On ch=1 n=g#5 v=114
44502 On ch=1 n=c6 v=114
44502 On ch=1 n=d#6 v=114
44502 On ch=1 n=g#6 v=114
44508 On ch=1 n=g#6 v=0
44508 On ch=1 n=g#5 v=0
44508 On ch=1 n=c6 v=0
44508 On ch=1 n=d#6 v=0
44562 On ch=1 n=g#5 v=114
44562 On ch=1 n=c6 v=114
44562 On ch=1 n=d#6 v=114
44562 On ch=1 n=g#6 v=114
44568 On ch=1 n=g#6 v=0
44568 On ch=1 n=g#5 v=0
44568 On ch=1 n=c6 v=0
44568 On ch=1 n=d#6 v=0
44622 On ch=1 n=g#5 v=114
44622 On ch=1 n=c6 v=114
44622 On ch=1 n=d#6 v=114
44622 On ch=1 n=g#6 v=114
44628 On ch=1 n=g#6 v=0
44628 On ch=1 n=g#5 v=0
44628 On ch=1 n=c6 v=0
44628 On ch=1 n=d#6 v=0
44682 Par ch=1 c=64 v=0
44742 Par ch=1 c=64 v=127
44742 On ch=1 n=d#7 v=62
44742 On ch=1 n=g#7 v=62
44742 On ch=1 n=d#8 v=62
44748 On ch=1 n=d#8 v=0
44748 On ch=1 n=g#7 v=0
44748 On ch=1 n=d#7 v=0
44802 On ch=1 n=d#7 v=62
44802 On ch=1 n=g#7 v=62
44802 On ch=1 n=d#8 v=62
44808 On ch=1 n=d#8 v=0
44808 On ch=1 n=g#7 v=0
44808 On ch=1 n=d#7 v=0
44862 On ch=1 n=d#7 v=62
44862 On ch=1 n=g#7 v=62
44862 On ch=1 n=d#8 v=62
44868 On ch=1 n=d#8 v=0
44868 On ch=1 n=g#7 v=0
44868 On ch=1 n=d#7 v=0
44922 Par ch=1 c=64 v=0
44937 On ch=1 n=c#6 v=101
44952 On ch=1 n=c#6 v=0
44952 On ch=1 n=d#6 v=101
44967 On ch=1 n=d#6 v=0
44967 On ch=1 n=f6 v=101
44982 On ch=1 n=f6 v=0
44982 On ch=1 n=f#5 v=101
44982 On ch=1 n=f#6 v=101
44988 On ch=1 n=f#6 v=0
44988 On ch=1 n=f#5 v=0
45042 On ch=1 n=g#5 v=101
45042 On ch=1 n=g#6 v=101
45046 On ch=1 n=g#6 v=0
45046 On ch=1 n=g#5 v=0
45102 On ch=1 n=a5 v=117
45102 On ch=1 n=c#6 v=122
45102 On ch=1 n=a6 v=127
45222 On ch=1 n=a6 v=0
45222 On ch=1 n=c#6 v=0
45222 On ch=1 n=a5 v=0
45222 On ch=1 n=b5 v=115
45222 On ch=1 n=d6 v=119
45222 On ch=1 n=f#6 v=123
45222 On ch=1 n=b6 v=127
45228 On ch=1 n=b6 v=0
45228 On ch=1 n=b5 v=0
45228 On ch=1 n=d6 v=0
45228 On ch=1 n=f#6 v=0
45282 On ch=1 n=a5 v=101
45288 On ch=1 n=a5 v=0
45342 On ch=1 n=a5 v=115
45342 On ch=1 n=c#6 v=119
45342 On ch=1 n=e6 v=123
45342 On ch=1 n=a6 v=127
45348 On ch=1 n=a6 v=0
45348 On ch=1 n=a5 v=0
45348 On ch=1 n=c#6 v=0
45348 On ch=1 n=e6 v=0
45402 On ch=1 n=g#5 v=101
45408 On ch=1 n=g#5 v=0
45462 Par ch=1 c=64 v=127
45462 On ch=1 n=f#5 v=114
45462 On ch=1 n=a#5 v=114
45462 On ch=1 n=f#6 v=114
45468 On ch=1 n=f#6 v=0
45468 On ch=1 n=a#5 v=0
45468 On ch=1 n=f#5 v=0
45522 On ch=1 n=f#5 v=114
45522 On ch=1 n=a#5 v=114
45522 On ch=1 n=f#6 v=114
45528 On ch=1 n=f#6 v=0
45528 On ch=1 n=a#5 v=0
45528 On ch=1 n=f#5 v=0
45582 On ch=1 n=f#5 v=114
45582 On ch=1 n=a#5 v=114
45582 On ch=1 n=f#6 v=114
45588 On ch=1 n=f#6 v=0
45588 On ch=1 n=a#5 v=0
45588 On ch=1 n=f#5 v=0
45642 Par ch=1 c=64 v=0
45702 Par ch=1 c=64 v=127
45702 On ch=1 n=c#7 v=62
45702 On ch=1 n=f#7 v=62
45702 On ch=1 n=c#8 v=62
45708 On ch=1 n=c#8 v=0
45708 On ch=1 n=f#7 v=0
45708 On ch=1 n=c#7 v=0
45762 On ch=1 n=c#7 v=62
45762 On ch=1 n=f#7 v=62
45762 On ch=1 n=c#8 v=62
45768 On ch=1 n=c#8 v=0
45768 On ch=1 n=f#7 v=0
45768 On ch=1 n=c#7 v=0
45822 On ch=1 n=c#7 v=62
45822 On ch=1 n=f#7 v=62
45822 On ch=1 n=c#8 v=62
45828 On ch=1 n=c#8 v=0
45828 On ch=1 n=f#7 v=0
45828 On ch=1 n=c#7 v=0
45882 Par ch=1 c=64 v=0
45897 On ch=1 n=c#8 v=114
45912 On ch=1 n=c#8 v=0
45912 On ch=1 n=d#8 v=114
45927 On ch=1 n=d#8 v=0
45927 On ch=1 n=f8 v=114
45942 On ch=1 n=f8 v=0
45942 Par ch=1 c=64 v=127
45942 On ch=1 n=f#7 v=114
45942 On ch=1 n=f#8 v=114
46002 On ch=1 n=f#8 v=0
46002 On ch=1 n=f#7 v=0
46002 On ch=1 n=c#6 v=114
46002 On ch=1 n=a#6 v=114
46032 On ch=1 n=a#6 v=0
46032 On ch=1 n=c#6 v=0
46032 On ch=1 n=c#7 v=114
46062 On ch=1 n=c#7 v=0
46062 On ch=1 n=c#6 v=114
46062 On ch=1 n=a#6 v=114
46092 On ch=1 n=a#6 v=0
46092 On ch=1 n=c#6 v=0
46092 On ch=1 n=c#7 v=114
46122 On ch=1 n=c#7 v=0
46122 On ch=1 n=d#6 v=114
46122 On ch=1 n=b6 v=114
46152 On ch=1 n=b6 v=0
46152 On ch=1 n=d#6 v=0
46152 Par ch=1 c=64 v=0
46152 On ch=1 n=d#7 v=114
46182 On ch=1 n=d#7 v=0
46182 On ch=1 n=c#6 v=114
46182 On ch=1 n=a#6 v=114
46212 On ch=1 n=a#6 v=0
46212 On ch=1 n=c#6 v=0
46212 On ch=1 n=c#7 v=114
46242 On ch=1 n=c#7 v=0
46242 On ch=1 n=c#6 v=114
46242 On ch=1 n=a#6 v=114
46272 On ch=1 n=a#6 v=0
46272 On ch=1 n=c#6 v=0
46272 On ch=1 n=c#7 v=114
46302 On ch=1 n=c#7 v=0
46302 On ch=1 n=d#6 v=114
46302 On ch=1 n=b6 v=114
46332 On ch=1 n=b6 v=0
46332 On ch=1 n=d#6 v=0
46332 On ch=1 n=d#7 v=114
46362 On ch=1 n=d#7 v=0
46362 On ch=1 n=d#6 v=114
46362 On ch=1 n=b6 v=114
46392 On ch=1 n=b6 v=0
46392 On ch=1 n=d#6 v=0
46392 On ch=1 n=d#7 v=114
46422 On ch=1 n=d#7 v=0
46422 On ch=1 n=c#6 v=114
46422 On ch=1 n=a#6 v=114
46452 On ch=1 n=a#6 v=0
46452 On ch=1 n=c#6 v=0
46452 On ch=1 n=c#7 v=114
46482 On ch=1 n=c#7 v=0
46482 On ch=1 n=c#6 v=114
46482 On ch=1 n=a#6 v=114
46512 On ch=1 n=a#6 v=0
46512 On ch=1 n=c#6 v=0
46512 On ch=1 n=c#7 v=114
46542 On ch=1 n=c#7 v=0
46542 On ch=1 n=c#6 v=114
46542 On ch=1 n=a#6 v=114
46548 On ch=1 n=a#6 v=0
46548 On ch=1 n=c#6 v=0
46617 On ch=1 n=c#8 v=114
46632 On ch=1 n=c#8 v=0
46632 On ch=1 n=d#8 v=114
46647 On ch=1 n=d#8 v=0
46647 On ch=1 n=f8 v=114
46662 On ch=1 n=f8 v=0
46662 Par ch=1 c=64 v=127
46662 On ch=1 n=f#7 v=114
46662 On ch=1 n=f#8 v=114
46722 On ch=1 n=f#8 v=0
46722 On ch=1 n=f#7 v=0
46722 On ch=1 n=c#6 v=114
46722 On ch=1 n=a#6 v=114
46752 On ch=1 n=a#6 v=0
46752 On ch=1 n=c#6 v=0
46752 On ch=1 n=c#7 v=114
46782 On ch=1 n=c#7 v=0
46782 On ch=1 n=c#6 v=114
46782 On ch=1 n=a#6 v=114
46812 On ch=1 n=a#6 v=0
46812 On ch=1 n=c#6 v=0
46812 On ch=1 n=c#7 v=114
46842 On ch=1 n=c#7 v=0
46842 On ch=1 n=d#6 v=114
46842 On ch=1 n=b6 v=114
46872 On ch=1 n=b6 v=0
46872 On ch=1 n=d#6 v=0
46872 Par ch=1 c=64 v=0
46872 On ch=1 n=d#7 v=114
46902 On ch=1 n=d#7 v=0
46902 On ch=1 n=c#6 v=114
46902 On ch=1 n=a#6 v=114
46932 On ch=1 n=a#6 v=0
46932 On ch=1 n=c#6 v=0
46932 On ch=1 n=c#7 v=114
46962 On ch=1 n=c#7 v=0
46962 On ch=1 n=c#6 v=114
46962 On ch=1 n=a#6 v=114
46992 On ch=1 n=a#6 v=0
46992 On ch=1 n=c#6 v=0
46992 On ch=1 n=c#7 v=114
47022 On ch=1 n=c#7 v=0
47022 On ch=1 n=f6 v=114
47022 On ch=1 n=g#6 v=114
47052 On ch=1 n=g#6 v=0
47052 On ch=1 n=f6 v=0
47052 On ch=1 n=f7 v=114
47082 On ch=1 n=f7 v=0
47082 On ch=1 n=f6 v=114
47082 On ch=1 n=g#6 v=114
47112 On ch=1 n=g#6 v=0
47112 On ch=1 n=f6 v=0
47112 On ch=1 n=f7 v=114
47142 On ch=1 n=f7 v=0
47142 On ch=1 n=f#6 v=114
47142 On ch=1 n=a#6 v=114
47172 On ch=1 n=a#6 v=0
47172 On ch=1 n=f#6 v=0
47172 On ch=1 n=f#7 v=114
47202 On ch=1 n=f#7 v=0
47202 On ch=1 n=f#6 v=114
47202 On ch=1 n=a#6 v=114
47232 On ch=1 n=a#6 v=0
47232 On ch=1 n=f#6 v=0
47232 On ch=1 n=f#7 v=114
47262 On ch=1 n=f#7 v=0
47262 On ch=1 n=f#6 v=114
47262 On ch=1 n=a#6 v=114
47268 On ch=1 n=a#6 v=0
47268 On ch=1 n=f#6 v=0
47337 On ch=1 n=c#8 v=114
47352 On ch=1 n=c#8 v=0
47352 On ch=1 n=d#8 v=114
47367 On ch=1 n=d#8 v=0
47367 On ch=1 n=f8 v=114
47382 On ch=1 n=f8 v=0
47382 Par ch=1 c=64 v=127
47382 On ch=1 n=f#7 v=114
47382 On ch=1 n=f#8 v=114
47442 On ch=1 n=f#8 v=0
47442 On ch=1 n=f#7 v=0
47442 On ch=1 n=c#6 v=114
47442 On ch=1 n=a#6 v=114
47472 On ch=1 n=a#6 v=0
47472 On ch=1 n=c#6 v=0
47472 On ch=1 n=c#7 v=114
47502 On ch=1 n=c#7 v=0
47502 On ch=1 n=c#6 v=114
47502 On ch=1 n=a#6 v=114
47532 On ch=1 n=a#6 v=0
47532 On ch=1 n=c#6 v=0
47532 On ch=1 n=c#7 v=114
47562 On ch=1 n=c#7 v=0
47562 On ch=1 n=d#6 v=114
47562 On ch=1 n=b6 v=114
47592 On ch=1 n=b6 v=0
47592 On ch=1 n=d#6 v=0
47592 Par ch=1 c=64 v=0
47592 On ch=1 n=d#7 v=114
47622 On ch=1 n=d#7 v=0
47622 On ch=1 n=c#6 v=114
47622 On ch=1 n=a#6 v=114
47652 On ch=1 n=a#6 v=0
47652 On ch=1 n=c#6 v=0
47652 On ch=1 n=c#7 v=114
47682 On ch=1 n=c#7 v=0
47682 On ch=1 n=c#6 v=114
47682 On ch=1 n=a#6 v=114
47712 On ch=1 n=a#6 v=0
47712 On ch=1 n=c#6 v=0
47712 On ch=1 n=c#7 v=114
47742 On ch=1 n=c#7 v=0
47742 On ch=1 n=d#6 v=114
47742 On ch=1 n=b6 v=114
47772 On ch=1 n=b6 v=0
47772 On ch=1 n=d#6 v=0
47772 On ch=1 n=d#7 v=114
47802 On ch=1 n=d#7 v=0
47802 On ch=1 n=d#6 v=114
47802 On ch=1 n=b6 v=114
47832 On ch=1 n=b6 v=0
47832 On ch=1 n=d#6 v=0
47832 On ch=1 n=d#7 v=114
47862 On ch=1 n=d#7 v=0
47862 On ch=1 n=c#6 v=114
47862 On ch=1 n=a#6 v=114
47892 On ch=1 n=a#6 v=0
47892 On ch=1 n=c#6 v=0
47892 On ch=1 n=c#7 v=114
47922 On ch=1 n=c#7 v=0
47922 On ch=1 n=c#6 v=114
47922 On ch=1 n=a#6 v=114
47952 On ch=1 n=a#6 v=0
47952 On ch=1 n=c#6 v=0
47952 On ch=1 n=c#7 v=114
47982 On ch=1 n=c#7 v=0
47982 On ch=1 n=c#6 v=114
47982 On ch=1 n=a#6 v=114
48042 On ch=1 n=a#6 v=0
48042 On ch=1 n=c#6 v=0
48057 On ch=1 n=c#8 v=114
48072 On ch=1 n=c#8 v=0
48072 On ch=1 n=d#8 v=114
48087 On ch=1 n=d#8 v=0
48087 On ch=1 n=f8 v=114
48102 On ch=1 n=f8 v=0
48102 Par ch=1 c=64 v=127
48102 On ch=1 n=f#7 v=114
48102 On ch=1 n=f#8 v=114
48162 On ch=1 n=f#8 v=0
48162 On ch=1 n=f#7 v=0
48162 On ch=1 n=c#6 v=114
48162 On ch=1 n=a#6 v=114
48192 On ch=1 n=a#6 v=0
48192 On ch=1 n=c#6 v=0
48192 On ch=1 n=c#7 v=114
48222 On ch=1 n=c#7 v=0
48222 On ch=1 n=c#6 v=114
48222 On ch=1 n=a#6 v=114
48252 On ch=1 n=a#6 v=0
48252 On ch=1 n=c#6 v=0
48252 On ch=1 n=c#7 v=114
48282 On ch=1 n=c#7 v=0
48282 On ch=1 n=d#6 v=114
48282 On ch=1 n=b6 v=114
48312 On ch=1 n=b6 v=0
48312 On ch=1 n=d#6 v=0
48312 Par ch=1 c=64 v=0
48312 On ch=1 n=d#7 v=114
48342 On ch=1 n=d#7 v=0
48342 On ch=1 n=c#6 v=114
48342 On ch=1 n=a#6 v=114
48372 On ch=1 n=a#6 v=0
48372 On ch=1 n=c#6 v=0
48372 On ch=1 n=c#7 v=114
48402 On ch=1 n=c#7 v=0
48402 On ch=1 n=c#6 v=114
48402 On ch=1 n=a#6 v=114
48432 On ch=1 n=a#6 v=0
48432 On ch=1 n=c#6 v=0
48432 On ch=1 n=c#7 v=114
48462 On ch=1 n=c#7 v=0
48462 On ch=1 n=f6 v=114
48462 On ch=1 n=g#6 v=114
48492 On ch=1 n=g#6 v=0
48492 On ch=1 n=f6 v=0
48492 On ch=1 n=f7 v=114
48522 On ch=1 n=f7 v=0
48522 On ch=1 n=f6 v=114
48522 On ch=1 n=g#6 v=114
48552 On ch=1 n=g#6 v=0
48552 On ch=1 n=f6 v=0
48552 On ch=1 n=f7 v=114
48582 On ch=1 n=f7 v=0
48582 On ch=1 n=f#6 v=114
48582 On ch=1 n=a#6 v=114
48612 On ch=1 n=a#6 v=0
48612 On ch=1 n=f#6 v=0
48612 On ch=1 n=f#7 v=114
48642 On ch=1 n=f#7 v=0
48642 On ch=1 n=f#6 v=114
48642 On ch=1 n=a#6 v=114
48702 On ch=1 n=a#6 v=0
48702 On ch=1 n=f#6 v=0
48762 On ch=1 n=c#6 v=62
48782 On ch=1 n=c#6 v=0
48782 On ch=1 n=d#6 v=62
48801 On ch=1 n=f6 v=62
48802 On ch=1 n=d#6 v=0
48821 On ch=1 n=f6 v=0
48822 On ch=1 n=f#6 v=62
48842 On ch=1 n=f#6 v=0
48842 On ch=1 n=g#6 v=62
48861 On ch=1 n=f#6 v=62
48862 On ch=1 n=g#6 v=0
48881 On ch=1 n=f#6 v=0
48882 On ch=1 n=f6 v=62
48902 On ch=1 n=f6 v=0
48902 On ch=1 n=f#6 v=62
48921 On ch=1 n=g#6 v=62
48922 On ch=1 n=f#6 v=0
48941 On ch=1 n=g#6 v=0
48942 On ch=1 n=a6 v=62
48962 On ch=1 n=a6 v=0
48962 On ch=1 n=b6 v=62
48981 On ch=1 n=a6 v=62
48982 On ch=1 n=b6 v=0
49001 On ch=1 n=a6 v=0
49002 On ch=1 n=g#6 v=62
49022 On ch=1 n=g#6 v=0
49022 On ch=1 n=a6 v=62
49041 On ch=1 n=a#6 v=62
49042 On ch=1 n=a6 v=0
49061 On ch=1 n=a#6 v=0
49062 On ch=1 n=b6 v=62
49082 On ch=1 n=b6 v=0
49082 On ch=1 n=c#7 v=62
49101 On ch=1 n=b6 v=62
49102 On ch=1 n=c#7 v=0
49121 On ch=1 n=b6 v=0
49122 On ch=1 n=a6 v=62
49128 On ch=1 n=a6 v=0
49182 On ch=1 n=a6 v=62
49202 On ch=1 n=a6 v=0
49202 On ch=1 n=b6 v=62
49221 On ch=1 n=a6 v=62
49222 On ch=1 n=b6 v=0
49241 On ch=1 n=a6 v=0
49242 On ch=1 n=g#6 v=62
49248 On ch=1 n=g#6 v=0
49302 Par ch=1 c=64 v=127
49302 On ch=1 n=g#6 v=62
49322 On ch=1 n=g#6 v=0
49322 On ch=1 n=a6 v=62
49341 On ch=1 n=g#6 v=62
49342 On ch=1 n=a6 v=0
49361 On ch=1 n=g#6 v=0
49362 On ch=1 n=g6 v=62
49377 On ch=1 n=g6 v=0
49377 On ch=1 n=g#6 v=62
49392 On ch=1 n=g#6 v=0
49392 On ch=1 n=a6 v=62
49407 On ch=1 n=a6 v=0
49407 On ch=1 n=a#6 v=62
49422 On ch=1 n=a#6 v=0
49422 On ch=1 n=b6 v=62
49437 On ch=1 n=b6 v=0
49437 On ch=1 n=c7 v=62
49452 On ch=1 n=c7 v=0
49452 On ch=1 n=c#7 v=62
49467 On ch=1 n=c#7 v=0
49467 On ch=1 n=d7 v=62
49482 On ch=1 n=d7 v=0
49482 On ch=1 n=d#7 v=62
49497 On ch=1 n=d#7 v=0
49497 On ch=1 n=e7 v=62
49512 On ch=1 n=e7 v=0
49512 On ch=1 n=f7 v=62
49527 On ch=1 n=f7 v=0
49527 On ch=1 n=f#7 v=62
49542 On ch=1 n=f#7 v=0
49542 On ch=1 n=g7 v=62
49557 On ch=1 n=g7 v=0
49557 On ch=1 n=g#7 v=62
49572 On ch=1 n=g#7 v=0
49572 On ch=1 n=a7 v=62
49587 On ch=1 n=a7 v=0
49587 On ch=1 n=a#7 v=62
49602 On ch=1 n=a#7 v=0
49602 On ch=1 n=b7 v=62
49617 On ch=1 n=b7 v=0
49617 On ch=1 n=c8 v=62
49632 On ch=1 n=c8 v=0
49632 On ch=1 n=c#8 v=62
49647 On ch=1 n=c#8 v=0
49647 On ch=1 n=d8 v=62
49662 On ch=1 n=d8 v=0
49662 On ch=1 n=d#8 v=62
49722 On ch=1 n=d#8 v=0
49722 Par ch=1 c=64 v=0
49782 On ch=1 n=f#6 v=62
49802 On ch=1 n=f#6 v=0
49802 On ch=1 n=g#6 v=62
49821 On ch=1 n=f#6 v=62
49822 On ch=1 n=g#6 v=0
49841 On ch=1 n=f#6 v=0
49842 On ch=1 n=f6 v=62
49862 On ch=1 n=f6 v=0
49862 On ch=1 n=f#6 v=62
49881 On ch=1 n=g#6 v=62
49882 On ch=1 n=f#6 v=0
49901 On ch=1 n=g#6 v=0
49902 On ch=1 n=a6 v=62
49922 On ch=1 n=a6 v=0
49922 On ch=1 n=b6 v=62
49941 On ch=1 n=a6 v=62
49942 On ch=1 n=b6 v=0
49961 On ch=1 n=a6 v=0
49962 On ch=1 n=g#6 v=62
49982 On ch=1 n=g#6 v=0
49982 On ch=1 n=a6 v=62
50001 On ch=1 n=a#6 v=62
50002 On ch=1 n=a6 v=0
50021 On ch=1 n=a#6 v=0
50022 On ch=1 n=b6 v=62
50042 On ch=1 n=b6 v=0
50042 On ch=1 n=c#7 v=62
50061 On ch=1 n=b6 v=62
50062 On ch=1 n=c#7 v=0
50081 On ch=1 n=b6 v=0
50082 On ch=1 n=a6 v=62
50088 On ch=1 n=a6 v=0
50142 On ch=1 n=a6 v=62
50162 On ch=1 n=a6 v=0
50162 On ch=1 n=b6 v=62
50181 On ch=1 n=a6 v=62
50182 On ch=1 n=b6 v=0
50201 On ch=1 n=a6 v=0
50202 On ch=1 n=g#6 v=62
50208 On ch=1 n=g#6 v=0
50262 Par ch=1 c=64 v=127
50262 On ch=1 n=f#6 v=62
50277 On ch=1 n=f#6 v=0
50277 On ch=1 n=g#6 v=62
50292 On ch=1 n=g#6 v=0
50292 On ch=1 n=f#6 v=62
50307 On ch=1 n=f#6 v=0
50307 On ch=1 n=f6 v=62
50322 On ch=1 n=f6 v=0
50322 On ch=1 n=f#6 v=62
50337 On ch=1 n=f#6 v=0
50337 On ch=1 n=g6 v=62
50352 On ch=1 n=g6 v=0
50352 On ch=1 n=g#6 v=62
50367 On ch=1 n=g#6 v=0
50367 On ch=1 n=a6 v=62
50382 On ch=1 n=a6 v=0
50382 On ch=1 n=a#6 v=62
50397 On ch=1 n=a#6 v=0
50397 On ch=1 n=b6 v=62
50412 On ch=1 n=b6 v=0
50412 On ch=1 n=c7 v=62
50427 On ch=1 n=c7 v=0
50427 On ch=1 n=c#7 v=62
50442 On ch=1 n=c#7 v=0
50442 On ch=1 n=d7 v=62
50457 On ch=1 n=d7 v=0
50457 On ch=1 n=d#7 v=62
50472 On ch=1 n=d#7 v=0
50472 On ch=1 n=e7 v=62
50487 On ch=1 n=e7 v=0
50487 On ch=1 n=f7 v=62
50502 On ch=1 n=f7 v=0
50502 On ch=1 n=f#7 v=62
50517 On ch=1 n=f#7 v=0
50517 On ch=1 n=g7 v=62
50532 On ch=1 n=g7 v=0
50532 On ch=1 n=g#7 v=62
50547 On ch=1 n=g#7 v=0
50547 On ch=1 n=a7 v=62
50562 On ch=1 n=a7 v=0
50562 On ch=1 n=a#7 v=62
50577 On ch=1 n=a#7 v=0
50577 On ch=1 n=b7 v=62
50592 On ch=1 n=b7 v=0
50592 On ch=1 n=c8 v=62
50607 On ch=1 n=c8 v=0
50607 On ch=1 n=c#8 v=62
50622 On ch=1 n=c#8 v=0
50622 On ch=1 n=f#8 v=62
50682 On ch=1 n=f#8 v=0
50682 Par ch=1 c=64 v=0
50742 On ch=1 n=f#6 v=62
50762 On ch=1 n=f#6 v=0
50762 On ch=1 n=g#6 v=62
50781 On ch=1 n=f#6 v=62
50782 On ch=1 n=g#6 v=0
50801 On ch=1 n=f#6 v=0
50802 On ch=1 n=f6 v=62
50822 On ch=1 n=f6 v=0
50822 On ch=1 n=f#6 v=62
50841 On ch=1 n=g#6 v=62
50842 On ch=1 n=f#6 v=0
50861 On ch=1 n=g#6 v=0
50862 On ch=1 n=a6 v=62
50882 On ch=1 n=a6 v=0
50882 On ch=1 n=b6 v=62
50901 On ch=1 n=a6 v=62
50902 On ch=1 n=b6 v=0
50921 On ch=1 n=a6 v=0
50922 On ch=1 n=g#6 v=62
50942 On ch=1 n=g#6 v=0
50942 On ch=1 n=a6 v=62
50961 On ch=1 n=a#6 v=62
50962 On ch=1 n=a6 v=0
50981 On ch=1 n=a#6 v=0
50982 On ch=1 n=b6 v=62
51002 On ch=1 n=b6 v=0
51002 On ch=1 n=c#7 v=62
51021 On ch=1 n=b6 v=62
51022 On ch=1 n=c#7 v=0
51041 On ch=1 n=b6 v=0
51042 On ch=1 n=a6 v=62
51048 On ch=1 n=a6 v=0
51102 On ch=1 n=a6 v=62
51122 On ch=1 n=a6 v=0
51122 On ch=1 n=b6 v=62
51141 On ch=1 n=a6 v=62
51142 On ch=1 n=b6 v=0
51161 On ch=1 n=a6 v=0
51162 On ch=1 n=g#6 v=62
51168 On ch=1 n=g#6 v=0
51222 Par ch=1 c=64 v=127
51222 On ch=1 n=g#6 v=62
51242 On ch=1 n=g#6 v=0
51242 On ch=1 n=a6 v=62
51261 On ch=1 n=g#6 v=62
51262 On ch=1 n=a6 v=0
51281 On ch=1 n=g#6 v=0
51282 On ch=1 n=g6 v=62
51297 On ch=1 n=g6 v=0
51297 On ch=1 n=g#6 v=62
51312 On ch=1 n=g#6 v=0
51312 On ch=1 n=a6 v=62
51327 On ch=1 n=a6 v=0
51327 On ch=1 n=a#6 v=62
51342 On ch=1 n=a#6 v=0
51342 On ch=1 n=b6 v=62
51357 On ch=1 n=b6 v=0
51357 On ch=1 n=c7 v=62
51372 On ch=1 n=c7 v=0
51372 On ch=1 n=c#7 v=62
51387 On ch=1 n=c#7 v=0
51387 On ch=1 n=d7 v=62
51402 On ch=1 n=d7 v=0
51402 On ch=1 n=d#7 v=62
51417 On ch=1 n=d#7 v=0
51417 On ch=1 n=e7 v=62
51432 On ch=1 n=e7 v=0
51432 On ch=1 n=f7 v=62
51447 On ch=1 n=f7 v=0
51447 On ch=1 n=f#7 v=62
51462 On ch=1 n=f#7 v=0
51462 On ch=1 n=g7 v=62
51477 On ch=1 n=g7 v=0
51477 On ch=1 n=g#7 v=62
51492 On ch=1 n=g#7 v=0
51492 On ch=1 n=a7 v=62
51507 On ch=1 n=a7 v=0
51507 On ch=1 n=a#7 v=62
51522 On ch=1 n=a#7 v=0
51522 On ch=1 n=b7 v=62
51537 On ch=1 n=b7 v=0
51537 On ch=1 n=c8 v=62
51552 On ch=1 n=c8 v=0
51552 On ch=1 n=c#8 v=62
51567 On ch=1 n=c#8 v=0
51567 On ch=1 n=d8 v=62
51582 On ch=1 n=d8 v=0
51582 On ch=1 n=d#8 v=62
51642 On ch=1 n=d#8 v=0
51642 Par ch=1 c=64 v=0
51702 On ch=1 n=f#6 v=62
51722 On ch=1 n=f#6 v=0
51722 On ch=1 n=g#6 v=62
51741 On ch=1 n=f#6 v=62
51742 On ch=1 n=g#6 v=0
51761 On ch=1 n=f#6 v=0
51762 On ch=1 n=f6 v=62
51782 On ch=1 n=f6 v=0
51782 On ch=1 n=f#6 v=62
51801 On ch=1 n=g#6 v=62
51802 On ch=1 n=f#6 v=0
51821 On ch=1 n=g#6 v=0
51822 On ch=1 n=a6 v=62
51842 On ch=1 n=a6 v=0
51842 On ch=1 n=b6 v=62
51861 On ch=1 n=a6 v=62
51862 On ch=1 n=b6 v=0
51881 On ch=1 n=a6 v=0
51882 On ch=1 n=g#6 v=62
51902 On ch=1 n=g#6 v=0
51902 On ch=1 n=a6 v=62
51921 On ch=1 n=a#6 v=62
51922 On ch=1 n=a6 v=0
51941 On ch=1 n=a#6 v=0
51942 On ch=1 n=b6 v=62
51962 On ch=1 n=b6 v=0
51962 On ch=1 n=c#7 v=62
51981 On ch=1 n=b6 v=62
51982 On ch=1 n=c#7 v=0
52001 On ch=1 n=b6 v=0
52002 On ch=1 n=a6 v=62
52008 On ch=1 n=a6 v=0
52062 On ch=1 n=a6 v=62
52082 On ch=1 n=a6 v=0
52082 On ch=1 n=b6 v=62
52101 On ch=1 n=a6 v=62
52102 On ch=1 n=b6 v=0
52121 On ch=1 n=a6 v=0
52122 On ch=1 n=g#6 v=62
52128 On ch=1 n=g#6 v=0
52182 Par ch=1 c=64 v=127
52182 On ch=1 n=f#6 v=62
52197 On ch=1 n=f#6 v=0
52197 On ch=1 n=g#6 v=62
52212 On ch=1 n=g#6 v=0
52212 On ch=1 n=f#6 v=62
52227 On ch=1 n=f#6 v=0
52227 On ch=1 n=f6 v=62
52242 On ch=1 n=f6 v=0
52242 On ch=1 n=f#6 v=62
52257 On ch=1 n=f#6 v=0
52257 On ch=1 n=g6 v=62
52272 On ch=1 n=g6 v=0
52272 On ch=1 n=g#6 v=62
52287 On ch=1 n=g#6 v=0
52287 On ch=1 n=a6 v=62
52302 On ch=1 n=a6 v=0
52302 On ch=1 n=a#6 v=62
52317 On ch=1 n=a#6 v=0
52317 On ch=1 n=b6 v=62
52332 On ch=1 n=b6 v=0
52332 On ch=1 n=c7 v=62
52347 On ch=1 n=c7 v=0
52347 On ch=1 n=c#7 v=62
52362 On ch=1 n=c#7 v=0
52362 On ch=1 n=d#7 v=62
52377 On ch=1 n=d#7 v=0
52377 On ch=1 n=c#7 v=62
52392 On ch=1 n=c#7 v=0
52392 On ch=1 n=c7 v=62
52407 On ch=1 n=c7 v=0
52407 On ch=1 n=c#7 v=62
52422 On ch=1 n=c#7 v=0
52422 On ch=1 n=d7 v=62
52437 On ch=1 n=d7 v=0
52437 On ch=1 n=d#7 v=62
52452 On ch=1 n=d#7 v=0
52452 On ch=1 n=e7 v=62
52467 On ch=1 n=e7 v=0
52467 On ch=1 n=f7 v=62
52482 On ch=1 n=f7 v=0
52482 On ch=1 n=f#7 v=62
52497 On ch=1 n=f#7 v=0
52497 On ch=1 n=g#7 v=62
52512 On ch=1 n=g#7 v=0
52512 On ch=1 n=f#7 v=62
52527 On ch=1 n=f#7 v=0
52527 On ch=1 n=f7 v=62
52542 On ch=1 n=f7 v=0
52542 On ch=1 n=f#7 v=62
52557 On ch=1 n=f#7 v=0
52557 On ch=1 n=g7 v=62
52572 On ch=1 n=g7 v=0
52572 On ch=1 n=g#7 v=62
52587 On ch=1 n=g#7 v=0
52587 On ch=1 n=a7 v=62
52602 On ch=1 n=a7 v=0
52602 On ch=1 n=a#7 v=62
52617 On ch=1 n=a#7 v=0
52617 On ch=1 n=b7 v=62
52632 On ch=1 n=b7 v=0
52632 On ch=1 n=c8 v=62
52647 On ch=1 n=c8 v=0
52647 On ch=1 n=c#8 v=62
52662 On ch=1 n=c#8 v=0
52662 On ch=1 n=d#8 v=62
52677 On ch=1 n=d#8 v=0
52677 On ch=1 n=c#8 v=62
52692 On ch=1 n=c#8 v=0
52692 On ch=1 n=c8 v=62
52707 On ch=1 n=c8 v=0
52707 On ch=1 n=c#8 v=62
52722 On ch=1 n=c#8 v=0
52722 On ch=1 n=d#8 v=75
52737 On ch=1 n=d#8 v=0
52737 On ch=1 n=c#8 v=75
52752 On ch=1 n=c#8 v=0
52752 On ch=1 n=c8 v=75
52767 On ch=1 n=c8 v=0
52767 On ch=1 n=c#8 v=75
52782 On ch=1 n=c#8 v=0
52782 On ch=1 n=d#8 v=88
52797 On ch=1 n=d#8 v=0
52797 On ch=1 n=c#8 v=88
52812 On ch=1 n=c#8 v=0
52812 On ch=1 n=c8 v=88
52827 On ch=1 n=c8 v=0
52827 On ch=1 n=c#8 v=88
52842 On ch=1 n=c#8 v=0
52842 On ch=1 n=d#8 v=101
52857 On ch=1 n=d#8 v=0
52857 On ch=1 n=c#8 v=101
52872 On ch=1 n=c#8 v=0
52872 On ch=1 n=c8 v=101
52887 On ch=1 n=c8 v=0
52887 On ch=1 n=c#8 v=101
52902 On ch=1 n=c#8 v=0
52902 On ch=1 n=d8 v=114
52962 On ch=1 n=d8 v=0
52962 On ch=1 n=d#8 v=114
53022 On ch=1 n=d#8 v=0
53022 On ch=1 n=e8 v=114
53082 On ch=1 n=e8 v=0
53082 Par ch=1 c=64 v=0
53082 On ch=1 n=f8 v=114
53142 On ch=1 n=f8 v=0
53142 Par ch=1 c=64 v=127
53142 On ch=1 n=f#7 v=127
53142 On ch=1 n=f#8 v=127
53202 On ch=1 n=f#8 v=0
53202 On ch=1 n=f#7 v=0
53202 On ch=1 n=c#6 v=114
53202 On ch=1 n=a#6 v=114
53232 On ch=1 n=a#6 v=0
53232 On ch=1 n=c#6 v=0
53232 On ch=1 n=c#7 v=114
53262 On ch=1 n=c#7 v=0
53262 On ch=1 n=c#6 v=114
53262 On ch=1 n=a#6 v=114
53292 On ch=1 n=a#6 v=0
53292 On ch=1 n=c#6 v=0
53292 On ch=1 n=c#7 v=114
53322 On ch=1 n=c#7 v=0
53322 On ch=1 n=d#6 v=114
53322 On ch=1 n=b6 v=114
53352 On ch=1 n=b6 v=0
53352 On ch=1 n=d#6 v=0
53352 On ch=1 n=d#7 v=114
53382 On ch=1 n=d#7 v=0
53382 On ch=1 n=c#6 v=114
53382 On ch=1 n=a#6 v=114
53412 On ch=1 n=a#6 v=0
53412 On ch=1 n=c#6 v=0
53412 On ch=1 n=c#7 v=114
53442 On ch=1 n=c#7 v=0
53442 On ch=1 n=c#6 v=114
53442 On ch=1 n=a#6 v=114
53472 On ch=1 n=a#6 v=0
53472 On ch=1 n=c#6 v=0
53472 On ch=1 n=c#7 v=114
53502 On ch=1 n=c#7 v=0
53502 Par ch=1 c=64 v=0
53502 On ch=1 n=d#6 v=114
53502 On ch=1 n=b6 v=114
53532 On ch=1 n=b6 v=0
53532 On ch=1 n=d#6 v=0
53532 On ch=1 n=d#7 v=114
53562 On ch=1 n=d#7 v=0
53562 On ch=1 n=d#6 v=114
53562 On ch=1 n=b6 v=114
53592 On ch=1 n=b6 v=0
53592 On ch=1 n=d#6 v=0
53592 On ch=1 n=d#7 v=114
53622 On ch=1 n=d#7 v=0
53622 Par ch=1 c=64 v=127
53622 On ch=1 n=c#6 v=114
53622 On ch=1 n=a#6 v=114
53652 On ch=1 n=a#6 v=0
53652 On ch=1 n=c#6 v=0
53652 On ch=1 n=c#7 v=114
53682 On ch=1 n=c#7 v=0
53682 On ch=1 n=c#6 v=114
53682 On ch=1 n=a#6 v=114
53712 On ch=1 n=a#6 v=0
53712 On ch=1 n=c#6 v=0
53712 On ch=1 n=c#7 v=114
53742 On ch=1 n=c#7 v=0
53742 On ch=1 n=c#6 v=114
53742 On ch=1 n=a#6 v=114
53802 On ch=1 n=a#6 v=0
53802 On ch=1 n=c#6 v=0
53802 Par ch=1 c=64 v=0
53817 On ch=1 n=c#8 v=114
53832 On ch=1 n=c#8 v=0
53832 On ch=1 n=d#8 v=114
53847 On ch=1 n=d#8 v=0
53847 On ch=1 n=f8 v=114
53862 On ch=1 n=f8 v=0
53862 Par ch=1 c=64 v=127
53862 On ch=1 n=f#7 v=127
53862 On ch=1 n=f#8 v=127
53922 On ch=1 n=f#8 v=0
53922 On ch=1 n=f#7 v=0
53922 On ch=1 n=c#6 v=114
53922 On ch=1 n=a#6 v=114
53952 On ch=1 n=a#6 v=0
53952 On ch=1 n=c#6 v=0
53952 On ch=1 n=c#7 v=114
53982 On ch=1 n=c#7 v=0
53982 On ch=1 n=c#6 v=114
53982 On ch=1 n=a#6 v=114
54012 On ch=1 n=a#6 v=0
54012 On ch=1 n=c#6 v=0
54012 On ch=1 n=c#7 v=114
54042 On ch=1 n=c#7 v=0
54042 On ch=1 n=d#6 v=114
54042 On ch=1 n=b6 v=114
54072 On ch=1 n=b6 v=0
54072 On ch=1 n=d#6 v=0
54072 Par ch=1 c=64 v=0
54072 On ch=1 n=d#7 v=114
54102 On ch=1 n=d#7 v=0
54102 Par ch=1 c=64 v=127
54102 On ch=1 n=c#6 v=114
54102 On ch=1 n=a#6 v=114
54132 On ch=1 n=a#6 v=0
54132 On ch=1 n=c#6 v=0
54132 On ch=1 n=c#7 v=114
54162 On ch=1 n=c#7 v=0
54162 On ch=1 n=c#6 v=114
54162 On ch=1 n=a#6 v=114
54192 On ch=1 n=a#6 v=0
54192 On ch=1 n=c#6 v=0
54192 On ch=1 n=c#7 v=114
54222 On ch=1 n=c#7 v=0
54222 Par ch=1 c=64 v=0
54222 On ch=1 n=f6 v=114
54222 On ch=1 n=g#6 v=114
54252 On ch=1 n=g#6 v=0
54252 On ch=1 n=f6 v=0
54252 On ch=1 n=f7 v=114
54282 On ch=1 n=f7 v=0
54282 On ch=1 n=f6 v=114
54282 On ch=1 n=g#6 v=114
54312 On ch=1 n=g#6 v=0
54312 On ch=1 n=f6 v=0
54312 On ch=1 n=f7 v=114
54342 On ch=1 n=f7 v=0
54342 Par ch=1 c=64 v=127
54342 On ch=1 n=f#6 v=114
54342 On ch=1 n=a#6 v=114
54372 On ch=1 n=a#6 v=0
54372 On ch=1 n=f#6 v=0
54372 On ch=1 n=f#7 v=114
54402 On ch=1 n=f#7 v=0
54402 On ch=1 n=f#6 v=114
54402 On ch=1 n=a#6 v=114
54432 On ch=1 n=a#6 v=0
54432 On ch=1 n=f#6 v=0
54432 On ch=1 n=f#7 v=114
54462 On ch=1 n=f#7 v=0
54462 On ch=1 n=f#6 v=114
54462 On ch=1 n=a#6 v=114
54522 On ch=1 n=a#6 v=0
54522 On ch=1 n=f#6 v=0
54522 Par ch=1 c=64 v=0
54537 On ch=1 n=c#8 v=114
54552 On ch=1 n=c#8 v=0
54552 On ch=1 n=d#8 v=114
54567 On ch=1 n=d#8 v=0
54567 On ch=1 n=f8 v=114
54582 On ch=1 n=f8 v=0
54582 Par ch=1 c=64 v=127
54582 On ch=1 n=f#7 v=127
54582 On ch=1 n=f#8 v=127
54642 On ch=1 n=f#8 v=0
54642 On ch=1 n=f#7 v=0
54642 On ch=1 n=c#6 v=114
54642 On ch=1 n=a#6 v=114
54672 On ch=1 n=a#6 v=0
54672 On ch=1 n=c#6 v=0
54672 On ch=1 n=c#7 v=114
54702 On ch=1 n=c#7 v=0
54702 On ch=1 n=c#6 v=114
54702 On ch=1 n=a#6 v=114
54732 On ch=1 n=a#6 v=0
54732 On ch=1 n=c#6 v=0
54732 On ch=1 n=c#7 v=114
54762 On ch=1 n=c#7 v=0
54762 On ch=1 n=d#6 v=114
54762 On ch=1 n=b6 v=114
54792 On ch=1 n=b6 v=0
54792 On ch=1 n=d#6 v=0
54792 On ch=1 n=d#7 v=114
54822 On ch=1 n=d#7 v=0
54822 On ch=1 n=c#6 v=114
54822 On ch=1 n=a#6 v=114
54852 On ch=1 n=a#6 v=0
54852 On ch=1 n=c#6 v=0
54852 On ch=1 n=c#7 v=114
54882 On ch=1 n=c#7 v=0
54882 On ch=1 n=c#6 v=114
54882 On ch=1 n=a#6 v=114
54912 On ch=1 n=a#6 v=0
54912 On ch=1 n=c#6 v=0
54912 On ch=1 n=c#7 v=114
54942 On ch=1 n=c#7 v=0
54942 Par ch=1 c=64 v=0
54942 On ch=1 n=d#6 v=114
54942 On ch=1 n=b6 v=114
54972 On ch=1 n=b6 v=0
54972 On ch=1 n=d#6 v=0
54972 On ch=1 n=d#7 v=114
55002 On ch=1 n=d#7 v=0
55002 On ch=1 n=d#6 v=114
55002 On ch=1 n=b6 v=114
55032 On ch=1 n=b6 v=0
55032 On ch=1 n=d#6 v=0
55032 On ch=1 n=d#7 v=114
55062 On ch=1 n=d#7 v=0
55062 Par ch=1 c=64 v=127
55062 On ch=1 n=c#6 v=114
55062 On ch=1 n=a#6 v=114
55092 On ch=1 n=a#6 v=0
55092 On ch=1 n=c#6 v=0
55092 On ch=1 n=c#7 v=114
55122 On ch=1 n=c#7 v=0
55122 On ch=1 n=c#6 v=114
55122 On ch=1 n=a#6 v=114
55152 On ch=1 n=a#6 v=0
55152 On ch=1 n=c#6 v=0
55152 On ch=1 n=c#7 v=114
55182 On ch=1 n=c#7 v=0
55182 On ch=1 n=c#6 v=114
55182 On ch=1 n=a#6 v=114
55242 On ch=1 n=a#6 v=0
55242 On ch=1 n=c#6 v=0
55242 Par ch=1 c=64 v=0
55257 On ch=1 n=c#8 v=114
55272 On ch=1 n=c#8 v=0
55272 On ch=1 n=d#8 v=114
55287 On ch=1 n=d#8 v=0
55287 On ch=1 n=f8 v=114
55302 On ch=1 n=f8 v=0
55302 Par ch=1 c=64 v=127
55302 On ch=1 n=f#7 v=127
55302 On ch=1 n=f#8 v=127
55362 On ch=1 n=f#8 v=0
55362 On ch=1 n=f#7 v=0
55362 On ch=1 n=c#6 v=114
55362 On ch=1 n=a#6 v=114
55392 On ch=1 n=a#6 v=0
55392 On ch=1 n=c#6 v=0
55392 On ch=1 n=c#7 v=114
55422 On ch=1 n=c#7 v=0
55422 On ch=1 n=c#6 v=114
55422 On ch=1 n=a#6 v=114
55452 On ch=1 n=a#6 v=0
55452 On ch=1 n=c#6 v=0
55452 On ch=1 n=c#7 v=114
55482 On ch=1 n=c#7 v=0
55482 On ch=1 n=d#6 v=114
55482 On ch=1 n=b6 v=114
55512 On ch=1 n=b6 v=0
55512 On ch=1 n=d#6 v=0
55512 On ch=1 n=d#7 v=114
55542 On ch=1 n=d#7 v=0
55542 On ch=1 n=c#6 v=114
55542 On ch=1 n=a#6 v=114
55572 On ch=1 n=a#6 v=0
55572 On ch=1 n=c#6 v=0
55572 On ch=1 n=c#7 v=114
55602 On ch=1 n=c#7 v=0
55602 On ch=1 n=c#6 v=114
55602 On ch=1 n=a#6 v=114
55632 On ch=1 n=a#6 v=0
55632 On ch=1 n=c#6 v=0
55632 On ch=1 n=c#7 v=114
55662 On ch=1 n=c#7 v=0
55662 Par ch=1 c=64 v=0
55662 On ch=1 n=f6 v=114
55662 On ch=1 n=g#6 v=114
55692 On ch=1 n=g#6 v=0
55692 On ch=1 n=f6 v=0
55692 On ch=1 n=f7 v=114
55722 On ch=1 n=f7 v=0
55722 On ch=1 n=f6 v=114
55722 On ch=1 n=g#6 v=114
55752 On ch=1 n=g#6 v=0
55752 On ch=1 n=f6 v=0
55752 On ch=1 n=f7 v=114
55782 On ch=1 n=f7 v=0
55782 On ch=1 n=f#6 v=114
55782 On ch=1 n=a#6 v=114
55812 On ch=1 n=a#6 v=0
55812 On ch=1 n=f#6 v=0
55812 On ch=1 n=f#7 v=114
55842 On ch=1 n=f#7 v=0
55842 On ch=1 n=f#6 v=114
55842 On ch=1 n=a#6 v=114
55872 On ch=1 n=a#6 v=0
55872 On ch=1 n=f#6 v=0
55872 On ch=1 n=f#7 v=114
55902 On ch=1 n=f#7 v=0
55902 On ch=1 n=g#6 v=114
55902 On ch=1 n=c#7 v=114
55932 On ch=1 n=c#7 v=0
55932 On ch=1 n=g#6 v=0
55932 On ch=1 n=g#7 v=114
55962 On ch=1 n=g#7 v=0
55962 On ch=1 n=g#6 v=114
55962 On ch=1 n=c#7 v=114
55992 On ch=1 n=c#7 v=0
55992 On ch=1 n=g#6 v=0
55992 On ch=1 n=g#7 v=114
56022 On ch=1 n=g#7 v=0
56022 On ch=1 n=a#6 v=114
56022 On ch=1 n=c#7 v=114
56052 On ch=1 n=c#7 v=0
56052 On ch=1 n=a#6 v=0
56052 On ch=1 n=a#7 v=114
56082 On ch=1 n=a#7 v=0
56082 On ch=1 n=a#6 v=114
56082 On ch=1 n=c#7 v=114
56112 On ch=1 n=c#7 v=0
56112 On ch=1 n=a#6 v=0
56112 On ch=1 n=a#7 v=114
56142 On ch=1 n=a#7 v=0
56142 On ch=1 n=c#7 v=114
56142 On ch=1 n=f7 v=114
56172 On ch=1 n=f7 v=0
56172 On ch=1 n=c#7 v=0
56172 On ch=1 n=c#8 v=114
56202 On ch=1 n=c#8 v=0
56202 On ch=1 n=c#7 v=114
56202 On ch=1 n=f7 v=114
56232 On ch=1 n=f7 v=0
56232 On ch=1 n=c#7 v=0
56232 On ch=1 n=c#8 v=114
56262 On ch=1 n=c#8 v=0
56262 On ch=1 n=c#7 v=114
56262 On ch=1 n=f#7 v=114
56292 On ch=1 n=f#7 v=0
56292 On ch=1 n=c#7 v=0
56292 On ch=1 n=c#8 v=114
56322 On ch=1 n=c#8 v=0
56322 On ch=1 n=c#7 v=114
56322 On ch=1 n=f#7 v=114
56352 On ch=1 n=f#7 v=0
56352 On ch=1 n=c#7 v=0
56352 On ch=1 n=c#8 v=114
56382 On ch=1 n=c#8 v=0
56382 On ch=1 n=c#7 v=114
56382 On ch=1 n=f7 v=114
56412 On ch=1 n=f7 v=0
56412 On ch=1 n=c#7 v=0
56412 On ch=1 n=c#8 v=114
56442 On ch=1 n=c#8 v=0
56442 On ch=1 n=c#7 v=114
56442 On ch=1 n=f7 v=114
56472 On ch=1 n=f7 v=0
56472 On ch=1 n=c#7 v=0
56472 On ch=1 n=c#8 v=114
56502 On ch=1 n=c#8 v=0
56502 On ch=1 n=c#7 v=114
56502 On ch=1 n=f#7 v=114
56532 On ch=1 n=f#7 v=0
56532 On ch=1 n=c#7 v=0
56532 On ch=1 n=c#8 v=114
56562 On ch=1 n=c#8 v=0
56562 On ch=1 n=c#7 v=114
56562 On ch=1 n=f#7 v=114
56592 On ch=1 n=f#7 v=0
56592 On ch=1 n=c#7 v=0
56592 On ch=1 n=c#8 v=114
56622 On ch=1 n=c#8 v=0
56622 On ch=1 n=f7 v=114
56622 On ch=1 n=g#7 v=114
56652 On ch=1 n=g#7 v=0
56652 On ch=1 n=f7 v=0
56652 On ch=1 n=f8 v=114
56682 On ch=1 n=f8 v=0
56682 On ch=1 n=f7 v=114
56682 On ch=1 n=g#7 v=114
56712 On ch=1 n=g#7 v=0
56712 On ch=1 n=f7 v=0
56712 On ch=1 n=f8 v=114
56742 On ch=1 n=f8 v=0
56742 On ch=1 n=f#7 v=114
56742 On ch=1 n=a#7 v=114
56742 On ch=1 n=f#8 v=114
56802 On ch=1 n=f#8 v=0
56802 On ch=1 n=a#7 v=0
56802 On ch=1 n=f#7 v=0
56802 On ch=1 n=f#7 v=114
56802 On ch=1 n=b7 v=114
56802 On ch=1 n=f#8 v=114
56862 On ch=1 n=f#8 v=0
56862 On ch=1 n=b7 v=0
56862 On ch=1 n=f#7 v=0
56862 On ch=1 n=f#7 v=127
56862 On ch=1 n=c#8 v=127
56862 On ch=1 n=f#8 v=127
56982 On ch=1 n=f#8 v=0
56982 On ch=1 n=c#8 v=0
56982 On ch=1 n=f#7 v=0
56982 On ch=1 n=f#5 v=114
56982 On ch=1 n=d6 v=114
56982 On ch=1 n=f#6 v=114
56988 On ch=1 n=f#6 v=0
56988 On ch=1 n=d6 v=0
56988 On ch=1 n=f#5 v=0
57042 On ch=1 n=f#5 v=114
57042 On ch=1 n=c#6 v=114
57042 On ch=1 n=f#6 v=114
57048 On ch=1 n=f#6 v=0
57048 On ch=1 n=c#6 v=0
57048 On ch=1 n=f#5 v=0
57102 On ch=1 n=f#5 v=114
57102 On ch=1 n=c#6 v=114
57102 On ch=1 n=f#6 v=114
57108 On ch=1 n=f#6 v=0
57108 On ch=1 n=c#6 v=0
57108 On ch=1 n=f#5 v=0
57162 On ch=1 n=f#5 v=114
57162 On ch=1 n=b5 v=114
57162 On ch=1 n=f#6 v=114
57168 On ch=1 n=f#6 v=0
57168 On ch=1 n=b5 v=0
57168 On ch=1 n=f#5 v=0
57222 On ch=1 n=f#6 v=114
57222 On ch=1 n=a#6 v=114
57222 On ch=1 n=f#7 v=114
57228 On ch=1 n=f#7 v=0
57228 On ch=1 n=a#6 v=0
57228 On ch=1 n=f#6 v=0
57282 On ch=1 n=f#6 v=114
57282 On ch=1 n=b6 v=114
57282 On ch=1 n=f#7 v=114
57286 On ch=1 n=f#7 v=0
57286 On ch=1 n=b6 v=0
57286 On ch=1 n=f#6 v=0
57342 On ch=1 n=f#6 v=127
57342 On ch=1 n=c#7 v=127
57342 On ch=1 n=f#7 v=127
57462 On ch=1 n=f#7 v=0
57462 On ch=1 n=c#7 v=0
57462 On ch=1 n=f#6 v=0
57462 On ch=1 n=d5 v=114
57462 On ch=1 n=f#5 v=114
57468 On ch=1 n=f#5 v=0
57468 On ch=1 n=d5 v=0
57522 On ch=1 n=c#5 v=114
57522 On ch=1 n=f#5 v=114
57528 On ch=1 n=f#5 v=0
57528 On ch=1 n=c#5 v=0
57582 On ch=1 n=c#5 v=114
57582 On ch=1 n=f#5 v=114
57588 On ch=1 n=f#5 v=0
57588 On ch=1 n=c#5 v=0
57642 On ch=1 n=b4 v=114
57642 On ch=1 n=f#5 v=114
57646 On ch=1 n=f#5 v=0
57646 On ch=1 n=b4 v=0
57702 On ch=1 n=f#5 v=114
57702 On ch=1 n=a#5 v=114
57702 On ch=1 n=f#6 v=114
57706 On ch=1 n=f#6 v=0
57706 On ch=1 n=a#5 v=0
57706 On ch=1 n=f#5 v=0
57762 On ch=1 n=f#5 v=114
57762 On ch=1 n=b5 v=114
57762 On ch=1 n=f#6 v=114
57766 On ch=1 n=f#6 v=0
57766 On ch=1 n=b5 v=0
57766 On ch=1 n=f#5 v=0
57822 On ch=1 n=f#5 v=127
57822 On ch=1 n=c#6 v=127
57822 On ch=1 n=f#6 v=127
57942 On ch=1 n=f#6 v=0
57942 On ch=1 n=c#6 v=0
57942 On ch=1 n=f#5 v=0
57942 On ch=1 n=f#4 v=114
57942 On ch=1 n=d5 v=114
57942 On ch=1 n=f#5 v=114
57946 On ch=1 n=f#5 v=0
57946 On ch=1 n=d5 v=0
57946 On ch=1 n=f#4 v=0
58002 On ch=1 n=f#4 v=114
58002 On ch=1 n=c#5 v=114
58002 On ch=1 n=f#5 v=114
58006 On ch=1 n=f#5 v=0
58006 On ch=1 n=c#5 v=0
58006 On ch=1 n=f#4 v=0
58062 On ch=1 n=f#4 v=114
58062 On ch=1 n=c#5 v=114
58062 On ch=1 n=f#5 v=114
58068 On ch=1 n=f#5 v=0
58068 On ch=1 n=c#5 v=0
58068 On ch=1 n=f#4 v=0
58122 On ch=1 n=f#4 v=114
58122 On ch=1 n=b4 v=114
58122 On ch=1 n=f#5 v=114
58128 On ch=1 n=f#5 v=0
58128 On ch=1 n=b4 v=0
58128 On ch=1 n=f#4 v=0
58182 On ch=1 n=f#4 v=114
58182 On ch=1 n=f#5 v=114
58188 On ch=1 n=f#5 v=0
58188 On ch=1 n=f#4 v=0
58242 On ch=1 n=f#4 v=114
58242 On ch=1 n=e5 v=114
58242 On ch=1 n=f#5 v=114
58248 On ch=1 n=f#5 v=0
58248 On ch=1 n=e5 v=0
58248 On ch=1 n=f#4 v=0
58302 On ch=1 n=f#4 v=114
58302 On ch=1 n=e5 v=114
58302 On ch=1 n=f#5 v=114
58308 On ch=1 n=f#5 v=0
58308 On ch=1 n=e5 v=0
58308 On ch=1 n=f#4 v=0
58362 On ch=1 n=f#4 v=114
58362 On ch=1 n=d5 v=114
58362 On ch=1 n=f#5 v=114
58368 On ch=1 n=f#5 v=0
58368 On ch=1 n=d5 v=0
58368 On ch=1 n=f#4 v=0
58422 On ch=1 n=f#4 v=114
58422 On ch=1 n=d5 v=114
58422 On ch=1 n=f#5 v=114
58428 On ch=1 n=f#5 v=0
58428 On ch=1 n=d5 v=0
58428 On ch=1 n=f#4 v=0
58482 On ch=1 n=f#4 v=114
58482 On ch=1 n=c#5 v=114
58482 On ch=1 n=f#5 v=114
58488 On ch=1 n=f#5 v=0
58488 On ch=1 n=c#5 v=0
58488 On ch=1 n=f#4 v=0
58542 On ch=1 n=f#4 v=114
58542 On ch=1 n=c#5 v=114
58542 On ch=1 n=f#5 v=114
58548 On ch=1 n=f#5 v=0
58548 On ch=1 n=c#5 v=0
58548 On ch=1 n=f#4 v=0
58602 On ch=1 n=f#4 v=114
58602 On ch=1 n=b4 v=114
58602 On ch=1 n=f#5 v=114
58608 On ch=1 n=f#5 v=0
58608 On ch=1 n=b4 v=0
58608 On ch=1 n=f#4 v=0
58662 Par ch=1 c=64 v=127
58662 On ch=1 n=f#4 v=114
58662 On ch=1 n=a#4 v=114
58662 On ch=1 n=c#5 v=114
58662 On ch=1 n=f#5 v=114
58722 On ch=1 n=f#5 v=0
58722 On ch=1 n=f#4 v=0
58722 On ch=1 n=a#4 v=0
58722 On ch=1 n=c#5 v=0
58722 On ch=1 n=f#4 v=114
58722 On ch=1 n=a#4 v=114
58722 On ch=1 n=c#5 v=114
58722 On ch=1 n=f#5 v=114
58782 On ch=1 n=f#5 v=0
58782 On ch=1 n=f#4 v=0
58782 On ch=1 n=a#4 v=0
58782 On ch=1 n=c#5 v=0
58782 On ch=1 n=f#4 v=114
58782 On ch=1 n=a#4 v=114
58782 On ch=1 n=c#5 v=114
58782 On ch=1 n=f#5 v=114
58842 On ch=1 n=f#5 v=0
58842 On ch=1 n=f#4 v=0
58842 On ch=1 n=a#4 v=0
58842 On ch=1 n=c#5 v=0
58842 Par ch=1 c=64 v=0
58902 Par ch=1 c=64 v=127
58902 On ch=1 n=c#6 v=114
58902 On ch=1 n=f6 v=114
58902 On ch=1 n=g#6 v=114
58902 On ch=1 n=c#7 v=114
58962 On ch=1 n=c#7 v=0
58962 On ch=1 n=c#6 v=0
58962 On ch=1 n=f6 v=0
58962 On ch=1 n=g#6 v=0
58962 On ch=1 n=c#6 v=114
58962 On ch=1 n=f6 v=114
58962 On ch=1 n=g#6 v=114
58962 On ch=1 n=c#7 v=114
59022 On ch=1 n=c#7 v=0
59022 On ch=1 n=c#6 v=0
59022 On ch=1 n=f6 v=0
59022 On ch=1 n=g#6 v=0
59022 On ch=1 n=c#6 v=114
59022 On ch=1 n=f6 v=114
59022 On ch=1 n=g#6 v=114
59022 On ch=1 n=c#7 v=114
59082 On ch=1 n=c#7 v=0
59082 On ch=1 n=c#6 v=0
59082 On ch=1 n=f6 v=0
59082 On ch=1 n=g#6 v=0
59082 Par ch=1 c=64 v=0
59142 Par ch=1 c=64 v=127
59142 On ch=1 n=f#7 v=114
59142 On ch=1 n=a#7 v=114
59142 On ch=1 n=c#8 v=114
59142 On ch=1 n=f#8 v=114
59202 On ch=1 n=f#8 v=0
59202 On ch=1 n=f#7 v=0
59202 On ch=1 n=a#7 v=0
59202 On ch=1 n=c#8 v=0
59202 On ch=1 n=f#7 v=114
59202 On ch=1 n=a#7 v=114
59202 On ch=1 n=c#8 v=114
59202 On ch=1 n=f#8 v=114
59262 On ch=1 n=f#8 v=0
59262 On ch=1 n=f#7 v=0
59262 On ch=1 n=a#7 v=0
59262 On ch=1 n=c#8 v=0
59262 On ch=1 n=f#7 v=127
59262 On ch=1 n=a#7 v=127
59262 On ch=1 n=c#8 v=127
59262 On ch=1 n=f#8 v=127
59382 On ch=1 n=f#8 v=0
59382 On ch=1 n=f#7 v=0
59382 On ch=1 n=a#7 v=0
59382 On ch=1 n=c#8 v=0
59862 Par ch=1 c=64 v=0
59862 Meta TrkEnd
TrkEnd
MTrk
0 Meta 0x21 00
0 Meta TrkName "Instrument17"
0 PrCh ch=2 p=0
0 Par ch=2 c=7 v=127
0 Par ch=2 c=10 v=97
330 On ch=2 n=f5 v=64
345 On ch=2 n=f5 v=0
345 On ch=2 n=f#5 v=64
360 On ch=2 n=f#5 v=0
360 On ch=2 n=g#5 v=64
375 On ch=2 n=g#5 v=0
375 On ch=2 n=f#5 v=64
390 On ch=2 n=f#5 v=0
390 On ch=2 n=g#5 v=64
397 On ch=2 n=f#5 v=64
398 On ch=2 n=g#5 v=0
405 On ch=2 n=f#5 v=0
405 On ch=2 n=g#5 v=64
412 On ch=2 n=f#5 v=64
413 On ch=2 n=g#5 v=0
420 On ch=2 n=f#5 v=0
420 On ch=2 n=g#5 v=64
427 On ch=2 n=f#5 v=64
428 On ch=2 n=g#5 v=0
435 On ch=2 n=f#5 v=0
435 On ch=2 n=g#5 v=64
442 On ch=2 n=f#5 v=64
443 On ch=2 n=g#5 v=0
450 On ch=2 n=f#5 v=0
450 On ch=2 n=g#5 v=64
457 On ch=2 n=f#5 v=64
458 On ch=2 n=g#5 v=0
465 On ch=2 n=f#5 v=0
465 On ch=2 n=g#5 v=64
472 On ch=2 n=f#5 v=64
473 On ch=2 n=g#5 v=0
480 On ch=2 n=f#5 v=0
480 On ch=2 n=f5 v=64
484 On ch=2 n=f5 v=0
495 On ch=2 n=f#5 v=64
499 On ch=2 n=f#5 v=0
510 On ch=2 n=g#5 v=64
514 On ch=2 n=g#5 v=0
525 On ch=2 n=a5 v=64
529 On ch=2 n=a5 v=0
555 On ch=2 n=b5 v=64
561 On ch=2 n=b5 v=0
592 On ch=2 n=c#5 v=64
600 On ch=2 n=f#5 v=64
607 On ch=2 n=a5 v=64
615 Par ch=2 c=64 v=127
615 On ch=2 n=c#6 v=64
735 On ch=2 n=a5 v=0
735 On ch=2 n=c#5 v=0
735 On ch=2 n=f#5 v=0
750 On ch=2 n=c#6 v=0
750 On ch=2 n=c#6 v=64
765 On ch=2 n=c#6 v=0
765 On ch=2 n=c#6 v=64
780 On ch=2 n=c#6 v=0
780 On ch=2 n=c#6 v=64
795 On ch=2 n=c#6 v=0
795 On ch=2 n=c#6 v=64
810 On ch=2 n=c#6 v=0
810 On ch=2 n=c#6 v=114
825 On ch=2 n=c#6 v=0
825 On ch=2 n=c#6 v=114
840 On ch=2 n=c#6 v=0
840 On ch=2 n=c#6 v=114
855 On ch=2 n=c#6 v=0
855 On ch=2 n=c#6 v=114
870 On ch=2 n=c#6 v=0
870 On ch=2 n=c#6 v=114
900 On ch=2 n=c#6 v=0
900 On ch=2 n=c#6 v=114
945 On ch=2 n=c#6 v=0
945 On ch=2 n=e6 v=114
960 On ch=2 n=e6 v=0
960 Par ch=2 c=64 v=0
960 On ch=2 n=f5 v=115
960 On ch=2 n=g#5 v=119
960 On ch=2 n=b5 v=123
960 On ch=2 n=d6 v=127
1050 On ch=2 n=d6 v=0
1050 On ch=2 n=f5 v=0
1050 On ch=2 n=g#5 v=0
1050 On ch=2 n=b5 v=0
1050 On ch=2 n=f#5 v=101
1050 On ch=2 n=a5 v=101
1050 On ch=2 n=c#6 v=101
1080 On ch=2 n=c#6 v=0
1080 On ch=2 n=a5 v=0
1080 On ch=2 n=f#5 v=0
1470 On ch=2 n=f5 v=101
1485 On ch=2 n=f5 v=0
1485 On ch=2 n=c#6 v=101
1500 On ch=2 n=c#6 v=0
1500 On ch=2 n=c#6 v=127
1575 On ch=2 n=c#6 v=0
1575 Par ch=2 c=64 v=0
1575 On ch=2 n=c6 v=101
1590 On ch=2 n=c6 v=0
1590 On ch=2 n=a#5 v=101
1605 On ch=2 n=a#5 v=0
1605 On ch=2 n=a5 v=101
1620 On ch=2 n=a5 v=0
1620 On ch=2 n=a5 v=101
1635 On ch=2 n=a5 v=0
1635 On ch=2 n=a#5 v=101
1650 On ch=2 n=a#5 v=0
1650 On ch=2 n=c6 v=101
1665 On ch=2 n=c6 v=0
1665 On ch=2 n=a#5 v=101
1680 On ch=2 n=a#5 v=0
1680 On ch=2 n=c6 v=101
1687 On ch=2 n=a#5 v=101
1688 On ch=2 n=c6 v=0
1695 On ch=2 n=a#5 v=0
1695 On ch=2 n=c6 v=101
1702 On ch=2 n=a#5 v=101
1703 On ch=2 n=c6 v=0
1710 On ch=2 n=a#5 v=0
1710 On ch=2 n=c6 v=101
1717 On ch=2 n=a#5 v=101
1718 On ch=2 n=c6 v=0
1725 On ch=2 n=a#5 v=0
1725 On ch=2 n=c6 v=101
1732 On ch=2 n=a#5 v=101
1733 On ch=2 n=c6 v=0
1740 On ch=2 n=a#5 v=0
1740 On ch=2 n=c6 v=101
1747 On ch=2 n=a#5 v=101
1748 On ch=2 n=c6 v=0
1755 On ch=2 n=a#5 v=0
1755 On ch=2 n=c6 v=101
1762 On ch=2 n=a#5 v=101
1763 On ch=2 n=c6 v=0
1770 On ch=2 n=a#5 v=0
1770 On ch=2 n=c6 v=101
1777 On ch=2 n=a#5 v=101
1778 On ch=2 n=c6 v=0
1785 On ch=2 n=a#5 v=0
1785 On ch=2 n=c6 v=101
1792 On ch=2 n=a#5 v=101
1793 On ch=2 n=c6 v=0
1800 On ch=2 n=a#5 v=0
1800 On ch=2 n=a5 v=101
1804 On ch=2 n=a5 v=0
1815 On ch=2 n=a#5 v=101
1819 On ch=2 n=a#5 v=0
1830 On ch=2 n=c6 v=101
1834 On ch=2 n=c6 v=0
1845 On ch=2 n=c#6 v=101
1849 On ch=2 n=c#6 v=0
1875 On ch=2 n=d#6 v=101
1881 On ch=2 n=d#6 v=0
1915 On ch=2 n=c#5 v=101
1925 On ch=2 n=a#5 v=101
1935 Par ch=2 c=64 v=127
1935 On ch=2 n=f6 v=101
2055 On ch=2 n=a#5 v=0
2055 On ch=2 n=c#5 v=0
2070 On ch=2 n=f6 v=0
2070 On ch=2 n=f6 v=101
2085 On ch=2 n=f6 v=0
2085 On ch=2 n=f6 v=101
2100 On ch=2 n=f6 v=0
2100 On ch=2 n=f6 v=101
2115 On ch=2 n=f6 v=0
2115 On ch=2 n=f6 v=101
2130 On ch=2 n=f6 v=0
2130 On ch=2 n=f6 v=114
2145 On ch=2 n=f6 v=0
2145 On ch=2 n=f6 v=114
2160 On ch=2 n=f6 v=0
2160 On ch=2 n=f6 v=114
2175 On ch=2 n=f6 v=0
2175 On ch=2 n=f6 v=114
2190 On ch=2 n=f6 v=0
2190 On ch=2 n=f6 v=114
2220 On ch=2 n=f6 v=0
2220 On ch=2 n=f6 v=114
2265 On ch=2 n=f6 v=0
2265 On ch=2 n=g#6 v=114
2273 On ch=2 n=g#6 v=0
2280 Par ch=2 c=64 v=0
2280 On ch=2 n=d#5 v=101
2280 On ch=2 n=a5 v=101
2370 On ch=2 n=a5 v=0
2370 On ch=2 n=d#5 v=0
2370 On ch=2 n=c#5 v=88
2370 On ch=2 n=a#5 v=88
2400 On ch=2 n=a#5 v=0
2400 On ch=2 n=c#5 v=0
2700 On ch=2 n=g#4 v=75
2700 On ch=2 n=b4 v=75
2760 On ch=2 n=b4 v=0
2760 On ch=2 n=g#4 v=0
2760 On ch=2 n=a4 v=75
2790 On ch=2 n=a4 v=0
2940 On ch=2 n=c#5 v=75
2940 On ch=2 n=e5 v=75
3000 On ch=2 n=e5 v=0
3000 On ch=2 n=c#5 v=0
3000 On ch=2 n=d5 v=75
3030 On ch=2 n=d5 v=0
4620 On ch=2 n=c#5 v=62
4620 On ch=2 n=f#5 v=62
4620 On ch=2 n=a5 v=62
4680 On ch=2 n=a5 v=0
4680 On ch=2 n=f#5 v=0
4680 On ch=2 n=c#5 v=0
5070 On ch=2 n=e5 v=62
5070 On ch=2 n=a5 v=62
5070 On ch=2 n=c#6 v=62
5130 On ch=2 n=c#6 v=0
5130 On ch=2 n=a5 v=0
5130 On ch=2 n=e5 v=0
5385 On ch=2 n=f5 v=62
5385 On ch=2 n=g#5 v=62
5385 On ch=2 n=d6 v=62
5415 On ch=2 n=d6 v=0
5415 On ch=2 n=g#5 v=0
5415 On ch=2 n=f5 v=0
5445 On ch=2 n=f#5 v=62
5445 On ch=2 n=a5 v=62
5445 On ch=2 n=c#6 v=62
5475 On ch=2 n=c#6 v=0
5475 On ch=2 n=a5 v=0
5475 On ch=2 n=f#5 v=0
5610 On ch=2 n=e5 v=75
5610 On ch=2 n=a5 v=75
5610 On ch=2 n=c#6 v=75
5616 On ch=2 n=c#6 v=0
5616 On ch=2 n=a5 v=0
5616 On ch=2 n=e5 v=0
5730 On ch=2 n=a5 v=75
5730 On ch=2 n=d6 v=75
5730 On ch=2 n=f#6 v=75
5736 On ch=2 n=f#6 v=0
5736 On ch=2 n=d6 v=0
5736 On ch=2 n=a5 v=0
5820 On ch=2 n=a5 v=75
5820 On ch=2 n=c#6 v=75
5820 On ch=2 n=e6 v=75
5824 On ch=2 n=e6 v=0
5824 On ch=2 n=c#6 v=0
5824 On ch=2 n=a5 v=0
5880 On ch=2 n=g#5 v=75
5880 On ch=2 n=b5 v=75
5880 On ch=2 n=d6 v=75
5884 On ch=2 n=d6 v=0
5884 On ch=2 n=b5 v=0
5884 On ch=2 n=g#5 v=0
5940 On ch=2 n=e5 v=75
5940 On ch=2 n=a5 v=75
5940 On ch=2 n=c#6 v=75
5970 On ch=2 n=c#6 v=0
5970 On ch=2 n=a5 v=0
5970 On ch=2 n=e5 v=0
6210 On ch=2 n=e5 v=75
6210 On ch=2 n=a5 v=75
6210 On ch=2 n=c#6 v=75
6216 On ch=2 n=c#6 v=0
6216 On ch=2 n=a5 v=0
6216 On ch=2 n=e5 v=0
6420 On ch=2 n=a5 v=75
6420 On ch=2 n=c#6 v=75
6420 On ch=2 n=e6 v=75
6424 On ch=2 n=e6 v=0
6424 On ch=2 n=c#6 v=0
6424 On ch=2 n=a5 v=0
6510 On ch=2 n=g#5 v=75
6510 On ch=2 n=b5 v=75
6510 On ch=2 n=d6 v=75
6514 On ch=2 n=d6 v=0
6514 On ch=2 n=b5 v=0
6514 On ch=2 n=g#5 v=0
6600 On ch=2 n=e5 v=75
6600 On ch=2 n=a5 v=75
6600 On ch=2 n=c#6 v=75
6604 On ch=2 n=c#6 v=0
6604 On ch=2 n=a5 v=0
6604 On ch=2 n=e5 v=0
6690 On ch=2 n=d5 v=75
6690 On ch=2 n=f5 v=75
6690 On ch=2 n=b5 v=75
6720 On ch=2 n=b5 v=0
6720 On ch=2 n=f5 v=0
6720 On ch=2 n=d5 v=0
7380 Par ch=2 c=64 v=127
7380 On ch=2 n=a5 v=75
7395 On ch=2 n=a5 v=0
7395 On ch=2 n=g#5 v=75
7410 On ch=2 n=g#5 v=0
7410 On ch=2 n=a5 v=75
7425 On ch=2 n=a5 v=0
7425 On ch=2 n=g#5 v=75
7432 On ch=2 n=a5 v=75
7433 On ch=2 n=g#5 v=0
7440 On ch=2 n=a5 v=0
7440 On ch=2 n=g#5 v=75
7447 On ch=2 n=a5 v=75
7448 On ch=2 n=g#5 v=0
7455 On ch=2 n=a5 v=0
7455 On ch=2 n=g#5 v=75
7462 On ch=2 n=a5 v=75
7463 On ch=2 n=g#5 v=0
7470 On ch=2 n=a5 v=0
7470 On ch=2 n=g#5 v=75
7477 On ch=2 n=a5 v=75
7478 On ch=2 n=g#5 v=0
7485 On ch=2 n=a5 v=0
7485 On ch=2 n=g#5 v=75
7492 On ch=2 n=a5 v=75
7493 On ch=2 n=g#5 v=0
7500 On ch=2 n=a5 v=0
7500 On ch=2 n=g#5 v=75
7507 On ch=2 n=a5 v=75
7508 On ch=2 n=g#5 v=0
7515 On ch=2 n=a5 v=0
7515 On ch=2 n=g#5 v=75
7522 On ch=2 n=a5 v=75
7523 On ch=2 n=g#5 v=0
7530 On ch=2 n=a5 v=0
7530 On ch=2 n=g#5 v=75
7537 On ch=2 n=a5 v=75
7538 On ch=2 n=g#5 v=0
7545 On ch=2 n=a5 v=0
7545 On ch=2 n=g#5 v=75
7552 On ch=2 n=a5 v=75
7553 On ch=2 n=g#5 v=0
7560 On ch=2 n=a5 v=0
7560 On ch=2 n=g#5 v=75
7567 On ch=2 n=a5 v=75
7568 On ch=2 n=g#5 v=0
7575 On ch=2 n=a5 v=0
7575 On ch=2 n=g#5 v=75
7582 On ch=2 n=a5 v=75
7583 On ch=2 n=g#5 v=0
7590 On ch=2 n=a5 v=0
7590 On ch=2 n=g#5 v=75
7597 On ch=2 n=a5 v=75
7598 On ch=2 n=g#5 v=0
7605 On ch=2 n=a5 v=0
7605 Par ch=2 c=64 v=0
7605 On ch=2 n=g#5 v=75
7612 On ch=2 n=a5 v=75
7613 On ch=2 n=g#5 v=0
7620 On ch=2 n=a5 v=0
7620 On ch=2 n=f#5 v=75
7635 On ch=2 n=f#5 v=0
7635 On ch=2 n=g#5 v=75
7650 On ch=2 n=g#5 v=0
7650 On ch=2 n=b5 v=75
7665 On ch=2 n=b5 v=0
7665 On ch=2 n=a5 v=75
7680 On ch=2 n=a5 v=0
7680 On ch=2 n=g#5 v=75
7695 On ch=2 n=g#5 v=0
7695 On ch=2 n=a5 v=75
7710 On ch=2 n=a5 v=0
7710 On ch=2 n=g#5 v=75
7732 On ch=2 n=f#5 v=75
7733 On ch=2 n=g#5 v=0
7740 On ch=2 n=f#5 v=0
7740 On ch=2 n=c#5 v=75
7740 On ch=2 n=f#5 v=75
7860 On ch=2 n=f#5 v=0
7860 On ch=2 n=c#5 v=0
7965 On ch=2 n=c#5 v=75
7965 On ch=2 n=c#6 v=75
7980 On ch=2 n=c#6 v=0
7980 On ch=2 n=c#5 v=0
7980 On ch=2 n=c#5 v=101
7980 On ch=2 n=e5 v=101
7980 On ch=2 n=a5 v=101
7980 On ch=2 n=c#6 v=101
8070 On ch=2 n=c#6 v=0
8070 On ch=2 n=c#5 v=0
8070 On ch=2 n=e5 v=0
8070 On ch=2 n=a5 v=0
8070 On ch=2 n=e5 v=101
8070 On ch=2 n=a5 v=101
8070 On ch=2 n=c#6 v=101
8100 On ch=2 n=c#6 v=0
8100 On ch=2 n=a5 v=0
8100 On ch=2 n=e5 v=0
8100 Par ch=2 c=64 v=127
8100 On ch=2 n=f#5 v=115
8100 On ch=2 n=a5 v=119
8100 On ch=2 n=d6 v=123
8100 On ch=2 n=f#6 v=127
8145 On ch=2 n=f#6 v=0
8145 On ch=2 n=f#5 v=0
8145 On ch=2 n=a5 v=0
8145 On ch=2 n=d6 v=0
8145 On ch=2 n=f5 v=101
8145 On ch=2 n=c#6 v=101
8145 On ch=2 n=f6 v=101
8160 On ch=2 n=f6 v=0
8160 On ch=2 n=c#6 v=0
8160 On ch=2 n=f5 v=0
8160 Par ch=2 c=64 v=0
8160 On ch=2 n=f#5 v=101
8160 On ch=2 n=d6 v=101
8160 On ch=2 n=f#6 v=101
8205 On ch=2 n=e5 v=101
8205 On ch=2 n=a5 v=101
8205 On ch=2 n=e6 v=101
8220 On ch=2 n=e6 v=0
8220 On ch=2 n=d6 v=0
8220 On ch=2 n=f#6 v=0
8220 On ch=2 n=f#5 v=0
8220 On ch=2 n=a5 v=0
8220 On ch=2 n=e5 v=0
8220 On ch=2 n=e5 v=117
8220 On ch=2 n=c#6 v=122
8220 On ch=2 n=e6 v=127
8265 On ch=2 n=d5 v=101
8265 On ch=2 n=g#5 v=101
8265 On ch=2 n=d6 v=101
8280 On ch=2 n=d6 v=0
8280 On ch=2 n=c#6 v=0
8280 On ch=2 n=e6 v=0
8280 On ch=2 n=e5 v=0
8280 On ch=2 n=g#5 v=0
8280 On ch=2 n=d5 v=0
8280 On ch=2 n=d5 v=117
8280 On ch=2 n=b5 v=122
8280 On ch=2 n=d6 v=127
8325 On ch=2 n=c#5 v=101
8325 On ch=2 n=e5 v=101
8325 On ch=2 n=c#6 v=101
8340 On ch=2 n=c#6 v=0
8340 On ch=2 n=b5 v=0
8340 On ch=2 n=d6 v=0
8340 On ch=2 n=d5 v=0
8340 On ch=2 n=e5 v=0
8340 On ch=2 n=c#5 v=0
8340 On ch=2 n=c#5 v=117
8340 On ch=2 n=a5 v=122
8340 On ch=2 n=c#6 v=127
8385 On ch=2 n=b4 v=101
8385 On ch=2 n=d5 v=101
8385 On ch=2 n=b5 v=101
8400 On ch=2 n=b5 v=0
8400 On ch=2 n=a5 v=0
8400 On ch=2 n=c#6 v=0
8400 On ch=2 n=c#5 v=0
8400 On ch=2 n=d5 v=0
8400 On ch=2 n=b4 v=0
8400 On ch=2 n=b4 v=117
8400 On ch=2 n=f5 v=122
8400 On ch=2 n=b5 v=127
8460 On ch=2 n=b5 v=0
8460 On ch=2 n=f5 v=0
8460 On ch=2 n=b4 v=0
9240 On ch=2 n=a6 v=101
9255 On ch=2 n=a6 v=0
9255 On ch=2 n=g#6 v=101
9270 On ch=2 n=g#6 v=0
9270 On ch=2 n=a6 v=101
9285 On ch=2 n=a6 v=0
9285 On ch=2 n=g#6 v=101
9292 On ch=2 n=a6 v=101
9293 On ch=2 n=g#6 v=0
9300 On ch=2 n=a6 v=0
9300 On ch=2 n=g#6 v=101
9307 On ch=2 n=a6 v=101
9308 On ch=2 n=g#6 v=0
9315 On ch=2 n=a6 v=0
9315 On ch=2 n=g#6 v=101
9322 On ch=2 n=a6 v=101
9323 On ch=2 n=g#6 v=0
9330 On ch=2 n=a6 v=0
9330 On ch=2 n=g#6 v=101
9337 On ch=2 n=a6 v=101
9338 On ch=2 n=g#6 v=0
9345 On ch=2 n=a6 v=0
9345 On ch=2 n=g#6 v=101
9352 On ch=2 n=a6 v=101
9353 On ch=2 n=g#6 v=0
9360 On ch=2 n=a6 v=0
9360 On ch=2 n=g#6 v=101
9367 On ch=2 n=a6 v=101
9368 On ch=2 n=g#6 v=0
9375 On ch=2 n=a6 v=0
9375 On ch=2 n=g#6 v=101
9382 On ch=2 n=a6 v=101
9383 On ch=2 n=g#6 v=0
9390 On ch=2 n=a6 v=0
9390 On ch=2 n=g#6 v=101
9397 On ch=2 n=a6 v=101
9398 On ch=2 n=g#6 v=0
9405 On ch=2 n=a6 v=0
9405 On ch=2 n=g#6 v=101
9412 On ch=2 n=a6 v=101
9413 On ch=2 n=g#6 v=0
9420 On ch=2 n=a6 v=0
9420 On ch=2 n=g#6 v=101
9427 On ch=2 n=a6 v=101
9428 On ch=2 n=g#6 v=0
9435 On ch=2 n=a6 v=0
9435 On ch=2 n=g#6 v=101
9442 On ch=2 n=a6 v=101
9443 On ch=2 n=g#6 v=0
9450 On ch=2 n=a6 v=0
9450 On ch=2 n=g#6 v=101
9457 On ch=2 n=a6 v=101
9458 On ch=2 n=g#6 v=0
9465 On ch=2 n=a6 v=0
9465 On ch=2 n=g#6 v=101
9472 On ch=2 n=a6 v=101
9473 On ch=2 n=g#6 v=0
9480 On ch=2 n=a6 v=0
9480 On ch=2 n=f#6 v=101
9495 On ch=2 n=f#6 v=0
9495 On ch=2 n=g#6 v=101
9510 On ch=2 n=g#6 v=0
9510 On ch=2 n=b6 v=101
9525 On ch=2 n=b6 v=0
9525 On ch=2 n=a6 v=101
9540 On ch=2 n=a6 v=0
9540 On ch=2 n=g#6 v=101
9555 On ch=2 n=g#6 v=0
9555 On ch=2 n=a6 v=101
9570 On ch=2 n=a6 v=0
9570 On ch=2 n=g#6 v=101
9592 On ch=2 n=f#6 v=101
9593 On ch=2 n=g#6 v=0
9600 On ch=2 n=f#6 v=0
9600 On ch=2 n=c#6 v=101
9600 On ch=2 n=f#6 v=101
9660 On ch=2 n=f#6 v=0
9660 On ch=2 n=c#6 v=0
9969 Par ch=2 c=64 v=127
9969 On ch=2 n=c#4 v=62
9979 On ch=2 n=c#4 v=0
9980 On ch=2 n=f#4 v=62
9990 On ch=2 n=f#4 v=0
9990 On ch=2 n=c#5 v=62
9999 On ch=2 n=a4 v=62
10000 On ch=2 n=c#5 v=0
10009 On ch=2 n=a4 v=0
10010 On ch=2 n=f#4 v=62
10020 On ch=2 n=f#4 v=0
10020 On ch=2 n=c#4 v=62
10029 On ch=2 n=f#4 v=62
10030 On ch=2 n=c#4 v=0
10039 On ch=2 n=f#4 v=0
10040 On ch=2 n=a4 v=62
10050 On ch=2 n=a4 v=0
10050 On ch=2 n=c#5 v=62
10059 On ch=2 n=a4 v=62
10060 On ch=2 n=c#5 v=0
10069 On ch=2 n=a4 v=0
10070 Par ch=2 c=64 v=0
10070 On ch=2 n=f#4 v=62
10080 On ch=2 n=f#4 v=0
10089 Par ch=2 c=64 v=127
10089 On ch=2 n=c#4 v=62
10099 On ch=2 n=c#4 v=0
10100 On ch=2 n=f#4 v=62
10110 On ch=2 n=f#4 v=0
10110 On ch=2 n=c#5 v=62
10119 On ch=2 n=a4 v=62
10120 On ch=2 n=c#5 v=0
10129 On ch=2 n=a4 v=0
10130 On ch=2 n=f#4 v=62
10140 On ch=2 n=f#4 v=0
10140 On ch=2 n=c#4 v=62
10149 On ch=2 n=f#4 v=62
10150 On ch=2 n=c#4 v=0
10159 On ch=2 n=f#4 v=0
10160 On ch=2 n=a4 v=62
10170 On ch=2 n=a4 v=0
10170 On ch=2 n=c#5 v=62
10179 On ch=2 n=a4 v=62
10180 On ch=2 n=c#5 v=0
10189 On ch=2 n=a4 v=0
10190 Par ch=2 c=64 v=0
10190 On ch=2 n=f#4 v=62
10200 On ch=2 n=f#4 v=0
10209 Par ch=2 c=64 v=127
10209 On ch=2 n=e4 v=62
10219 On ch=2 n=e4 v=0
10220 On ch=2 n=a4 v=62
10230 On ch=2 n=a4 v=0
10230 On ch=2 n=e5 v=62
10239 On ch=2 n=c#5 v=62
10240 On ch=2 n=e5 v=0
10249 On ch=2 n=c#5 v=0
10250 On ch=2 n=a4 v=62
10260 On ch=2 n=a4 v=0
10260 On ch=2 n=e4 v=62
10269 On ch=2 n=a4 v=62
10270 On ch=2 n=e4 v=0
10279 On ch=2 n=a4 v=0
10280 On ch=2 n=c#5 v=62
10290 On ch=2 n=c#5 v=0
10290 On ch=2 n=e5 v=62
10299 Par ch=2 c=64 v=0
10299 On ch=2 n=c#5 v=62
10300 On ch=2 n=e5 v=0
10309 On ch=2 n=c#5 v=0
10310 On ch=2 n=a4 v=62
10320 On ch=2 n=a4 v=0
10320 Par ch=2 c=64 v=127
10329 On ch=2 n=f4 v=62
10339 On ch=2 n=f4 v=0
10340 On ch=2 n=g#4 v=62
10350 On ch=2 n=g#4 v=0
10350 On ch=2 n=f5 v=62
10359 On ch=2 n=b4 v=62
10360 On ch=2 n=f5 v=0
10369 On ch=2 n=b4 v=0
10370 Par ch=2 c=64 v=0
10370 On ch=2 n=g#4 v=62
10380 On ch=2 n=g#4 v=0
10389 Par ch=2 c=64 v=127
10389 On ch=2 n=f#4 v=62
10399 On ch=2 n=f#4 v=0
10400 On ch=2 n=a4 v=62
10410 On ch=2 n=a4 v=0
10410 On ch=2 n=f#5 v=62
10419 On ch=2 n=c#5 v=62
10420 On ch=2 n=f#5 v=0
10429 On ch=2 n=c#5 v=0
10430 On ch=2 n=a4 v=62
10440 On ch=2 n=a4 v=0
10440 On ch=2 n=f#4 v=62
10449 On ch=2 n=a4 v=62
10460 On ch=2 n=c#5 v=62
10470 Par ch=2 c=64 v=0
10470 On ch=2 n=f#5 v=62
10559 On ch=2 n=a4 v=0
10560 On ch=2 n=f#4 v=0
10560 On ch=2 n=c#5 v=0
10560 On ch=2 n=f#5 v=0
10629 Par ch=2 c=64 v=127
10629 On ch=2 n=e4 v=62
10639 On ch=2 n=e4 v=0
10640 On ch=2 n=a4 v=62
10650 On ch=2 n=a4 v=0
10650 On ch=2 n=e5 v=62
10659 On ch=2 n=c#5 v=62
10660 On ch=2 n=e5 v=0
10669 On ch=2 n=c#5 v=0
10670 On ch=2 n=a4 v=62
10680 On ch=2 n=a4 v=0
10680 On ch=2 n=e4 v=62
10689 On ch=2 n=a4 v=62
10690 On ch=2 n=e4 v=0
10699 On ch=2 n=a4 v=0
10700 On ch=2 n=c#5 v=62
10710 On ch=2 n=c#5 v=0
10710 On ch=2 n=e5 v=62
10719 On ch=2 n=c#5 v=62
10720 On ch=2 n=e5 v=0
10729 On ch=2 n=c#5 v=0
10730 Par ch=2 c=64 v=0
10730 On ch=2 n=a4 v=62
10740 On ch=2 n=a4 v=0
10749 Par ch=2 c=64 v=127
10749 On ch=2 n=a4 v=62
10759 On ch=2 n=a4 v=0
10760 On ch=2 n=d5 v=62
10770 On ch=2 n=d5 v=0
10770 On ch=2 n=a5 v=62
10779 On ch=2 n=f#5 v=62
10780 On ch=2 n=a5 v=0
10789 On ch=2 n=f#5 v=0
10790 On ch=2 n=d5 v=62
10800 On ch=2 n=d5 v=0
10800 On ch=2 n=a4 v=62
10809 On ch=2 n=d5 v=62
10810 On ch=2 n=a4 v=0
10819 On ch=2 n=d5 v=0
10820 On ch=2 n=f#5 v=62
10830 On ch=2 n=f#5 v=0
10830 On ch=2 n=a5 v=62
10839 On ch=2 n=f#5 v=62
10840 On ch=2 n=a5 v=0
10849 On ch=2 n=f#5 v=0
10850 Par ch=2 c=64 v=0
10850 On ch=2 n=d5 v=62
10860 On ch=2 n=d5 v=0
10869 Par ch=2 c=64 v=127
10869 On ch=2 n=a4 v=62
10879 On ch=2 n=a4 v=0
10880 On ch=2 n=c#5 v=62
10890 On ch=2 n=c#5 v=0
10890 On ch=2 n=a5 v=62
10899 On ch=2 n=e5 v=62
10900 On ch=2 n=a5 v=0
10909 On ch=2 n=e5 v=0
10910 Par ch=2 c=64 v=0
10910 On ch=2 n=c#5 v=62
10920 On ch=2 n=c#5 v=0
10929 Par ch=2 c=64 v=127
10929 On ch=2 n=g#4 v=62
10939 On ch=2 n=g#4 v=0
10940 On ch=2 n=b4 v=62
10950 On ch=2 n=b4 v=0
10950 On ch=2 n=g#5 v=62
10959 Par ch=2 c=64 v=0
10959 On ch=2 n=e5 v=62
10960 On ch=2 n=g#5 v=0
10969 On ch=2 n=e5 v=0
10970 On ch=2 n=b4 v=62
10980 On ch=2 n=b4 v=0
10989 Par ch=2 c=64 v=127
10989 On ch=2 n=a4 v=62
10999 On ch=2 n=a4 v=0
11000 On ch=2 n=c#5 v=62
11010 On ch=2 n=c#5 v=0
11010 On ch=2 n=a5 v=62
11019 On ch=2 n=e5 v=62
11020 On ch=2 n=a5 v=0
11029 On ch=2 n=e5 v=0
11030 On ch=2 n=c#5 v=62
11040 On ch=2 n=c#5 v=0
11040 On ch=2 n=a4 v=62
11049 On ch=2 n=c#5 v=62
11060 On ch=2 n=e5 v=62
11070 Par ch=2 c=64 v=0
11070 On ch=2 n=a5 v=62
11129 On ch=2 n=c#5 v=0
11130 On ch=2 n=a4 v=0
11130 On ch=2 n=e5 v=0
11130 On ch=2 n=a5 v=0
11349 Par ch=2 c=64 v=127
11349 On ch=2 n=e4 v=62
11359 On ch=2 n=e4 v=0
11360 On ch=2 n=a4 v=62
11370 On ch=2 n=a4 v=0
11370 On ch=2 n=e5 v=62
11379 On ch=2 n=c#5 v=62
11380 On ch=2 n=e5 v=0
11389 On ch=2 n=c#5 v=0
11390 On ch=2 n=a4 v=62
11400 On ch=2 n=a4 v=0
11400 On ch=2 n=e4 v=62
11409 On ch=2 n=a4 v=62
11410 On ch=2 n=e4 v=0
11419 On ch=2 n=a4 v=0
11420 On ch=2 n=c#5 v=62
11430 On ch=2 n=c#5 v=0
11430 On ch=2 n=e5 v=62
11439 On ch=2 n=c#5 v=62
11440 On ch=2 n=e5 v=0
11449 On ch=2 n=c#5 v=0
11450 Par ch=2 c=64 v=0
11450 On ch=2 n=a4 v=62
11460 On ch=2 n=a4 v=0
11469 Par ch=2 c=64 v=127
11469 On ch=2 n=a4 v=62
11479 On ch=2 n=a4 v=0
11480 On ch=2 n=d5 v=62
11490 On ch=2 n=d5 v=0
11490 On ch=2 n=a5 v=62
11499 On ch=2 n=f#5 v=62
11500 On ch=2 n=a5 v=0
11509 On ch=2 n=f#5 v=0
11510 On ch=2 n=d5 v=62
11520 On ch=2 n=d5 v=0
11520 On ch=2 n=a4 v=62
11529 On ch=2 n=d5 v=62
11530 On ch=2 n=a4 v=0
11539 On ch=2 n=d5 v=0
11540 On ch=2 n=f#5 v=62
11550 On ch=2 n=f#5 v=0
11550 On ch=2 n=a5 v=62
11559 On ch=2 n=f#5 v=62
11560 On ch=2 n=a5 v=0
11569 On ch=2 n=f#5 v=0
11570 Par ch=2 c=64 v=0
11570 On ch=2 n=d5 v=62
11580 On ch=2 n=d5 v=0
11589 Par ch=2 c=64 v=127
11589 On ch=2 n=a4 v=62
11599 On ch=2 n=a4 v=0
11600 On ch=2 n=c#5 v=62
11610 On ch=2 n=c#5 v=0
11610 On ch=2 n=a5 v=62
11619 On ch=2 n=e5 v=62
11620 On ch=2 n=a5 v=0
11629 On ch=2 n=e5 v=0
11630 Par ch=2 c=64 v=0
11630 On ch=2 n=c#5 v=62
11640 On ch=2 n=c#5 v=0
11649 Par ch=2 c=64 v=127
11649 On ch=2 n=g#4 v=75
11659 On ch=2 n=g#4 v=0
11660 On ch=2 n=e5 v=75
11670 On ch=2 n=e5 v=0
11670 On ch=2 n=b5 v=75
11679 On ch=2 n=g#5 v=75
11680 On ch=2 n=b5 v=0
11689 On ch=2 n=g#5 v=0
11690 Par ch=2 c=64 v=0
11690 On ch=2 n=e5 v=75
11700 On ch=2 n=e5 v=0
11709 Par ch=2 c=64 v=127
11709 On ch=2 n=a4 v=75
11719 On ch=2 n=a4 v=0
11720 On ch=2 n=e5 v=75
11730 On ch=2 n=e5 v=0
11730 On ch=2 n=c#6 v=75
11739 On ch=2 n=a5 v=75
11740 On ch=2 n=c#6 v=0
11749 On ch=2 n=a5 v=0
11750 Par ch=2 c=64 v=0
11750 On ch=2 n=e5 v=75
11760 On ch=2 n=e5 v=0
11769 Par ch=2 c=64 v=127
11769 On ch=2 n=b4 v=75
11779 On ch=2 n=b4 v=0
11780 On ch=2 n=f5 v=75
11790 On ch=2 n=f5 v=0
11790 On ch=2 n=d6 v=75
11799 On ch=2 n=g#5 v=75
11800 On ch=2 n=d6 v=0
11809 On ch=2 n=g#5 v=0
11810 Par ch=2 c=64 v=0
11810 On ch=2 n=f5 v=75
11820 On ch=2 n=f5 v=0
11829 Par ch=2 c=64 v=127
11829 On ch=2 n=c#5 v=75
11839 On ch=2 n=c#5 v=0
11840 On ch=2 n=f#5 v=75
11850 On ch=2 n=f#5 v=0
11850 On ch=2 n=c#6 v=75
11859 On ch=2 n=a5 v=75
11860 On ch=2 n=c#6 v=0
11869 On ch=2 n=a5 v=0
11870 On ch=2 n=f#5 v=75
11880 On ch=2 n=f#5 v=0
11880 On ch=2 n=c#5 v=75
11889 On ch=2 n=f#5 v=75
11890 On ch=2 n=c#5 v=0
11899 On ch=2 n=f#5 v=0
11900 On ch=2 n=a5 v=75
11910 On ch=2 n=a5 v=0
11910 On ch=2 n=c#6 v=75
11919 On ch=2 n=a5 v=75
11920 On ch=2 n=c#6 v=0
11929 On ch=2 n=a5 v=0
11930 Par ch=2 c=64 v=0
11930 On ch=2 n=f#5 v=75
11940 On ch=2 n=f#5 v=0
11949 Par ch=2 c=64 v=127
11949 On ch=2 n=a4 v=75
11959 On ch=2 n=a4 v=0
11960 On ch=2 n=c#5 v=75
11970 On ch=2 n=c#5 v=0
11970 On ch=2 n=a5 v=75
11979 On ch=2 n=f#5 v=75
11980 On ch=2 n=a5 v=0
11989 On ch=2 n=f#5 v=0
11990 On ch=2 n=c#5 v=75
12000 On ch=2 n=c#5 v=0
12000 On ch=2 n=a4 v=75
12009 On ch=2 n=c#5 v=75
12010 On ch=2 n=a4 v=0
12019 On ch=2 n=c#5 v=0
12020 On ch=2 n=f#5 v=75
12030 On ch=2 n=f#5 v=0
12030 On ch=2 n=a5 v=75
12039 On ch=2 n=f#5 v=75
12040 On ch=2 n=a5 v=0
12049 On ch=2 n=f#5 v=0
12050 Par ch=2 c=64 v=0
12050 On ch=2 n=c#5 v=75
12060 On ch=2 n=c#5 v=0
12069 Par ch=2 c=64 v=127
12069 On ch=2 n=f#4 v=75
12079 On ch=2 n=f#4 v=0
12080 On ch=2 n=a4 v=75
12090 On ch=2 n=a4 v=0
12090 On ch=2 n=f#5 v=75
12099 On ch=2 n=d#5 v=75
12100 On ch=2 n=f#5 v=0
12109 On ch=2 n=d#5 v=0
12110 On ch=2 n=a4 v=75
12120 On ch=2 n=a4 v=0
12120 On ch=2 n=f#4 v=75
12129 On ch=2 n=a4 v=75
12130 On ch=2 n=f#4 v=0
12139 On ch=2 n=a4 v=0
12140 On ch=2 n=d#5 v=75
12150 On ch=2 n=d#5 v=0
12150 On ch=2 n=f#5 v=75
12159 On ch=2 n=d#5 v=75
12160 On ch=2 n=f#5 v=0
12169 On ch=2 n=d#5 v=0
12170 Par ch=2 c=64 v=0
12170 On ch=2 n=a4 v=75
12180 On ch=2 n=a4 v=0
12189 Par ch=2 c=64 v=127
12189 On ch=2 n=d#4 v=62
12199 On ch=2 n=d#4 v=0
12200 On ch=2 n=f#4 v=62
12210 On ch=2 n=f#4 v=0
12210 On ch=2 n=d#5 v=62
12219 On ch=2 n=c5 v=62
12220 On ch=2 n=d#5 v=0
12229 On ch=2 n=c5 v=0
12230 On ch=2 n=f#4 v=62
12240 On ch=2 n=f#4 v=0
12240 On ch=2 n=d#4 v=62
12249 On ch=2 n=f#4 v=62
12250 On ch=2 n=d#4 v=0
12259 On ch=2 n=f#4 v=0
12260 On ch=2 n=c5 v=62
12270 On ch=2 n=c5 v=0
12270 On ch=2 n=d#5 v=62
12279 On ch=2 n=c5 v=62
12280 On ch=2 n=d#5 v=0
12289 On ch=2 n=c5 v=0
12290 Par ch=2 c=64 v=0
12290 On ch=2 n=f#4 v=62
12300 On ch=2 n=f#4 v=0
12309 Par ch=2 c=64 v=127
12309 On ch=2 n=d4 v=62
12319 On ch=2 n=d4 v=0
12320 On ch=2 n=f#4 v=62
12330 On ch=2 n=f#4 v=0
12330 On ch=2 n=d5 v=62
12339 On ch=2 n=c5 v=62
12340 On ch=2 n=d5 v=0
12349 On ch=2 n=c5 v=0
12350 On ch=2 n=g#4 v=62
12360 On ch=2 n=g#4 v=0
12360 On ch=2 n=d4 v=62
12369 On ch=2 n=f#4 v=62
12370 On ch=2 n=d4 v=0
12379 On ch=2 n=f#4 v=0
12380 On ch=2 n=c5 v=62
12390 On ch=2 n=c5 v=0
12390 On ch=2 n=d5 v=62
12399 On ch=2 n=b4 v=62
12400 On ch=2 n=d5 v=0
12409 On ch=2 n=b4 v=0
12410 Par ch=2 c=64 v=0
12410 On ch=2 n=f#4 v=62
12420 On ch=2 n=f#4 v=0
12429 Par ch=2 c=64 v=127
12429 On ch=2 n=d4 v=62
12439 On ch=2 n=d4 v=0
12440 On ch=2 n=f4 v=62
12450 On ch=2 n=f4 v=0
12450 On ch=2 n=d5 v=62
12459 On ch=2 n=b4 v=62
12460 On ch=2 n=d5 v=0
12469 On ch=2 n=b4 v=0
12470 On ch=2 n=f4 v=62
12480 On ch=2 n=f4 v=0
12480 Par ch=2 c=64 v=0
12480 On ch=2 n=c#4 v=62
12489 On ch=2 n=f4 v=62
12500 On ch=2 n=b4 v=62
12510 On ch=2 n=b4 v=0
12510 On ch=2 n=c#5 v=62
12569 On ch=2 n=f4 v=0
12570 On ch=2 n=c#5 v=0
12570 On ch=2 n=c#4 v=0
12579 Par ch=2 c=64 v=127
12579 On ch=2 n=c#4 v=62
12589 On ch=2 n=c#4 v=0
12590 On ch=2 n=f#4 v=62
12600 On ch=2 n=f#4 v=0
12600 On ch=2 n=c#5 v=62
12609 On ch=2 n=a#4 v=62
12610 On ch=2 n=c#5 v=0
12619 On ch=2 n=a#4 v=0
12620 On ch=2 n=f#4 v=62
12630 On ch=2 n=f#4 v=0
12630 On ch=2 n=c#4 v=62
12639 On ch=2 n=f#4 v=62
12640 On ch=2 n=c#4 v=0
12649 On ch=2 n=f#4 v=0
12650 On ch=2 n=a#4 v=62
12660 On ch=2 n=a#4 v=0
12660 On ch=2 n=c#5 v=62
12669 On ch=2 n=a#4 v=62
12670 On ch=2 n=c#5 v=0
12679 On ch=2 n=a#4 v=0
12680 On ch=2 n=f#4 v=62
12690 On ch=2 n=f#4 v=0
12690 On ch=2 n=f#2 v=62
12699 On ch=2 n=c#3 v=62
12700 On ch=2 n=f#2 v=0
12709 On ch=2 n=c#3 v=0
12710 On ch=2 n=f#3 v=62
12720 On ch=2 n=f#3 v=0
12720 On ch=2 n=c#4 v=62
12729 On ch=2 n=f#4 v=62
12730 On ch=2 n=c#4 v=0
12739 On ch=2 n=f#4 v=0
12740 On ch=2 n=a#4 v=62
12750 On ch=2 n=a#4 v=0
12750 On ch=2 n=c#5 v=101
12759 On ch=2 n=f#5 v=101
12760 On ch=2 n=c#5 v=0
12769 On ch=2 n=f#5 v=0
12770 On ch=2 n=a#5 v=101
12780 On ch=2 n=a#5 v=0
12780 On ch=2 n=c#6 v=101
12789 On ch=2 n=f#6 v=101
12790 On ch=2 n=c#6 v=0
12799 On ch=2 n=f#6 v=0
12800 Par ch=2 c=64 v=0
12800 On ch=2 n=a#6 v=101
12810 On ch=2 n=a#6 v=0
12810 On ch=2 n=c#6 v=101
12810 On ch=2 n=a6 v=101
12810 On ch=2 n=c#7 v=101
12900 On ch=2 n=c#7 v=0
12900 On ch=2 n=a6 v=0
12900 On ch=2 n=c#6 v=0
12900 On ch=2 n=c#6 v=101
12900 On ch=2 n=a6 v=101
12900 On ch=2 n=c#7 v=101
12930 On ch=2 n=c#7 v=0
12930 On ch=2 n=a6 v=0
12930 On ch=2 n=c#6 v=0
12930 Par ch=2 c=64 v=127
12930 On ch=2 n=f#6 v=117
12930 On ch=2 n=d7 v=122
12930 On ch=2 n=f#7 v=127
12975 On ch=2 n=f#7 v=0
12975 On ch=2 n=d7 v=0
12975 On ch=2 n=f#6 v=0
12975 On ch=2 n=f6 v=101
12975 On ch=2 n=c#7 v=101
12975 On ch=2 n=f7 v=101
12990 On ch=2 n=f7 v=0
12990 On ch=2 n=c#7 v=0
12990 On ch=2 n=f6 v=0
12990 Par ch=2 c=64 v=0
12990 On ch=2 n=f#6 v=101
12990 On ch=2 n=d7 v=101
12990 On ch=2 n=f#7 v=101
13035 On ch=2 n=e6 v=101
13035 On ch=2 n=a6 v=101
13035 On ch=2 n=e7 v=101
13050 On ch=2 n=e7 v=0
13050 On ch=2 n=d7 v=0
13050 On ch=2 n=f#7 v=0
13050 On ch=2 n=f#6 v=0
13050 On ch=2 n=a6 v=0
13050 On ch=2 n=e6 v=0
13050 On ch=2 n=e6 v=117
13050 On ch=2 n=c#7 v=122
13050 On ch=2 n=e7 v=127
13095 On ch=2 n=d6 v=101
13095 On ch=2 n=g#6 v=101
13095 On ch=2 n=d7 v=101
13110 On ch=2 n=d7 v=0
13110 On ch=2 n=c#7 v=0
13110 On ch=2 n=e7 v=0
13110 On ch=2 n=e6 v=0
13110 On ch=2 n=g#6 v=0
13110 On ch=2 n=d6 v=0
13110 On ch=2 n=d6 v=117
13110 On ch=2 n=b6 v=122
13110 On ch=2 n=d7 v=127
13155 On ch=2 n=c#6 v=101
13155 On ch=2 n=e6 v=101
13155 On ch=2 n=c#7 v=101
13170 On ch=2 n=c#7 v=0
13170 On ch=2 n=b6 v=0
13170 On ch=2 n=d7 v=0
13170 On ch=2 n=d6 v=0
13170 On ch=2 n=e6 v=0
13170 On ch=2 n=c#6 v=0
13170 On ch=2 n=c#6 v=117
13170 On ch=2 n=a6 v=122
13170 On ch=2 n=c#7 v=127
13215 On ch=2 n=b5 v=101
13215 On ch=2 n=d6 v=101
13215 On ch=2 n=f6 v=101
13215 On ch=2 n=b6 v=101
13230 On ch=2 n=b6 v=0
13230 On ch=2 n=d6 v=0
13230 On ch=2 n=a6 v=0
13230 On ch=2 n=c#7 v=0
13230 On ch=2 n=c#6 v=0
13230 On ch=2 n=f6 v=0
13230 On ch=2 n=b5 v=0
13230 On ch=2 n=b5 v=115
13230 On ch=2 n=d6 v=119
13230 On ch=2 n=f6 v=123
13230 On ch=2 n=b6 v=127
13290 On ch=2 n=b6 v=0
13290 On ch=2 n=b5 v=0
13290 On ch=2 n=d6 v=0
13290 On ch=2 n=f6 v=0
14050 On ch=2 n=d5 v=117
14060 On ch=2 n=a5 v=122
14070 On ch=2 n=f#6 v=127
14190 On ch=2 n=f#6 v=0
14190 On ch=2 n=a5 v=0
14190 On ch=2 n=d5 v=0
16665 On ch=2 n=a#5 v=62
16725 On ch=2 n=a#5 v=0
16785 On ch=2 n=a#5 v=62
16845 On ch=2 n=a#5 v=0
16845 On ch=2 n=f#5 v=62
16965 On ch=2 n=f#5 v=0
17145 On ch=2 n=g#5 v=62
17205 On ch=2 n=g#5 v=0
17325 On ch=2 n=f5 v=62
17445 On ch=2 n=f5 v=0
17445 On ch=2 n=a#4 v=62
17565 On ch=2 n=a#4 v=0
17985 On ch=2 n=g#5 v=62
18045 On ch=2 n=g#5 v=0
18105 On ch=2 n=g#5 v=62
18165 On ch=2 n=g#5 v=0
18225 On ch=2 n=g#5 v=62
18285 On ch=2 n=g#5 v=0
18405 On ch=2 n=g#5 v=62
18585 On ch=2 n=g#5 v=0
18825 On ch=2 n=a#6 v=75
18885 On ch=2 n=a#6 v=0
18945 On ch=2 n=a#6 v=75
19005 On ch=2 n=a#6 v=0
19005 On ch=2 n=f#6 v=75
19125 On ch=2 n=f#6 v=0
19305 On ch=2 n=g#6 v=75
19365 On ch=2 n=g#6 v=0
19485 On ch=2 n=f6 v=75
19605 On ch=2 n=f6 v=0
19605 On ch=2 n=a#5 v=75
19725 On ch=2 n=a#5 v=0
20145 On ch=2 n=g#6 v=75
20205 On ch=2 n=g#6 v=0
20265 On ch=2 n=g#6 v=75
20325 On ch=2 n=g#6 v=0
20385 On ch=2 n=g#6 v=75
20445 On ch=2 n=g#6 v=0
20565 On ch=2 n=g#6 v=101
20745 On ch=2 n=g#6 v=0
22725 On ch=2 n=f#6 v=75
22755 On ch=2 n=f#6 v=0
22755 On ch=2 n=c#7 v=75
22785 On ch=2 n=c#7 v=0
22785 On ch=2 n=a#6 v=75
22815 On ch=2 n=a#6 v=0
22815 On ch=2 n=f#6 v=75
22845 On ch=2 n=f#6 v=0
22845 On ch=2 n=d#6 v=75
22875 On ch=2 n=d#6 v=0
22875 On ch=2 n=a#6 v=75
22905 On ch=2 n=a#6 v=0
22905 On ch=2 n=f#6 v=75
22935 On ch=2 n=f#6 v=0
22935 On ch=2 n=d#6 v=75
22965 On ch=2 n=d#6 v=0
22965 On ch=2 n=b5 v=75
22995 On ch=2 n=b5 v=0
22995 On ch=2 n=f#6 v=75
23025 On ch=2 n=f#6 v=0
23025 On ch=2 n=d#6 v=75
23055 On ch=2 n=d#6 v=0
23055 On ch=2 n=b5 v=75
23085 On ch=2 n=b5 v=0
23085 On ch=2 n=g#5 v=75
23115 On ch=2 n=g#5 v=0
23115 On ch=2 n=d#6 v=75
23145 On ch=2 n=d#6 v=0
23145 On ch=2 n=b5 v=75
23175 On ch=2 n=b5 v=0
23175 On ch=2 n=g#5 v=75
23205 On ch=2 n=g#5 v=0
23685 On ch=2 n=f#5 v=75
23715 On ch=2 n=f#5 v=0
23715 On ch=2 n=c#6 v=75
23745 On ch=2 n=c#6 v=0
23745 On ch=2 n=a#5 v=75
23775 On ch=2 n=a#5 v=0
23775 On ch=2 n=f#5 v=75
23805 On ch=2 n=f#5 v=0
23805 On ch=2 n=d#5 v=75
23835 On ch=2 n=d#5 v=0
23835 On ch=2 n=a#5 v=75
23865 On ch=2 n=a#5 v=0
23865 On ch=2 n=f#5 v=75
23895 On ch=2 n=f#5 v=0
23895 On ch=2 n=d#5 v=75
23925 On ch=2 n=d#5 v=0
23925 On ch=2 n=b4 v=75
23955 On ch=2 n=b4 v=0
23955 On ch=2 n=f#5 v=75
23985 On ch=2 n=f#5 v=0
23985 On ch=2 n=d#5 v=75
24015 On ch=2 n=d#5 v=0
24015 On ch=2 n=b4 v=75
24045 On ch=2 n=b4 v=0
24045 On ch=2 n=g#4 v=75
24075 On ch=2 n=g#4 v=0
24075 On ch=2 n=d#5 v=75
24105 On ch=2 n=d#5 v=0
24105 On ch=2 n=b4 v=75
24135 On ch=2 n=b4 v=0
24135 On ch=2 n=g#4 v=75
24165 On ch=2 n=g#4 v=0
24165 Par ch=2 c=64 v=127
24345 On ch=2 n=d5 v=75
24345 On ch=2 n=g#5 v=75
24351 On ch=2 n=g#5 v=0
24351 On ch=2 n=d5 v=0
24585 On ch=2 n=d6 v=75
24585 On ch=2 n=g#6 v=75
24589 On ch=2 n=g#6 v=0
24589 On ch=2 n=d6 v=0
26415 On ch=2 n=c#5 v=75
26419 On ch=2 n=c#5 v=0
26445 On ch=2 n=d#5 v=75
26449 On ch=2 n=d#5 v=0
26475 On ch=2 n=f5 v=75
26479 On ch=2 n=f5 v=0
26505 On ch=2 n=f#5 v=75
26509 On ch=2 n=f#5 v=0
26535 On ch=2 n=g#5 v=75
26539 On ch=2 n=g#5 v=0
26565 Par ch=2 c=64 v=127
26580 On ch=2 n=f#4 v=75
26595 On ch=2 n=a#5 v=75
26685 On ch=2 n=a#5 v=0
26685 On ch=2 n=f#4 v=0
26685 On ch=2 n=b5 v=75
26715 On ch=2 n=b5 v=0
26715 On ch=2 n=d#6 v=75
26721 On ch=2 n=d#6 v=0
26775 Par ch=2 c=64 v=0
26775 On ch=2 n=c#6 v=75
26795 On ch=2 n=c#6 v=0
26795 On ch=2 n=d#6 v=75
26814 On ch=2 n=c#6 v=75
26815 On ch=2 n=d#6 v=0
26834 On ch=2 n=c#6 v=0
26835 On ch=2 n=c6 v=75
26841 On ch=2 n=c6 v=0
26895 On ch=2 n=c#6 v=75
26915 On ch=2 n=c#6 v=0
26915 On ch=2 n=d#6 v=75
26934 On ch=2 n=c#6 v=75
26935 On ch=2 n=d#6 v=0
26954 On ch=2 n=c#6 v=0
26955 On ch=2 n=a#5 v=75
27075 On ch=2 n=a#5 v=0
30705 On ch=2 n=f#5 v=75
30735 On ch=2 n=f#5 v=0
30735 On ch=2 n=c#6 v=75
30765 On ch=2 n=c#6 v=0
30765 On ch=2 n=a#5 v=75
30795 On ch=2 n=a#5 v=0
30795 On ch=2 n=f#5 v=75
30825 On ch=2 n=f#5 v=0
30825 On ch=2 n=d#5 v=75
30855 On ch=2 n=d#5 v=0
30855 On ch=2 n=a#5 v=75
30885 On ch=2 n=a#5 v=0
30885 On ch=2 n=f#5 v=75
30915 On ch=2 n=f#5 v=0
30915 On ch=2 n=d#5 v=75
30945 On ch=2 n=d#5 v=0
30945 On ch=2 n=b4 v=75
30975 On ch=2 n=b4 v=0
30975 On ch=2 n=f#5 v=75
31005 On ch=2 n=f#5 v=0
31005 On ch=2 n=d#5 v=75
31035 On ch=2 n=d#5 v=0
31035 On ch=2 n=b4 v=75
31065 On ch=2 n=b4 v=0
31065 On ch=2 n=g#4 v=75
31095 On ch=2 n=g#4 v=0
31095 On ch=2 n=d#5 v=75
31125 On ch=2 n=d#5 v=0
31125 On ch=2 n=b4 v=75
31155 On ch=2 n=b4 v=0
31155 On ch=2 n=g#4 v=75
31185 On ch=2 n=g#4 v=0
31665 On ch=2 n=f#6 v=75
31695 On ch=2 n=f#6 v=0
31695 On ch=2 n=c#7 v=75
31725 On ch=2 n=c#7 v=0
31725 On ch=2 n=a#6 v=75
31755 On ch=2 n=a#6 v=0
31755 On ch=2 n=f#6 v=75
31785 On ch=2 n=f#6 v=0
31785 On ch=2 n=d#6 v=75
31815 On ch=2 n=d#6 v=0
31815 On ch=2 n=a#6 v=75
31845 On ch=2 n=a#6 v=0
31845 On ch=2 n=f#6 v=75
31875 On ch=2 n=f#6 v=0
31875 On ch=2 n=d#6 v=75
31905 On ch=2 n=d#6 v=0
31905 On ch=2 n=b5 v=75
31935 On ch=2 n=b5 v=0
31935 On ch=2 n=f#6 v=75
31965 On ch=2 n=f#6 v=0
31965 On ch=2 n=d#6 v=75
31995 On ch=2 n=d#6 v=0
31995 On ch=2 n=b5 v=75
32025 On ch=2 n=b5 v=0
32025 On ch=2 n=g#5 v=75
32055 On ch=2 n=g#5 v=0
32055 On ch=2 n=d#6 v=75
32085 On ch=2 n=d#6 v=0
32085 On ch=2 n=b5 v=75
32115 On ch=2 n=b5 v=0
32115 On ch=2 n=g#5 v=75
32145 On ch=2 n=g#5 v=0
49065 On ch=2 n=f#6 v=75
49125 On ch=2 n=f#6 v=0
49185 On ch=2 n=e6 v=75
49245 On ch=2 n=e6 v=0
50025 On ch=2 n=f#6 v=62
50085 On ch=2 n=f#6 v=0
50145 On ch=2 n=f6 v=62
50205 On ch=2 n=f6 v=0
50985 On ch=2 n=f#6 v=62
51045 On ch=2 n=f#6 v=0
51105 On ch=2 n=e6 v=62
51165 On ch=2 n=e6 v=0
51945 On ch=2 n=f#6 v=62
52005 On ch=2 n=f#6 v=0
52065 On ch=2 n=f6 v=62
52125 On ch=2 n=f6 v=0
59865 Par ch=2 c=64 v=0
59865 Meta TrkEnd
TrkEnd
MTrk
0 Meta 0x21 00
0 Meta TrkName "Instrument18"
0 PrCh ch=3 p=0
0 Par ch=3 c=7 v=127
0 Par ch=3 c=10 v=30
0 Par ch=3 c=64 v=127
0 On ch=3 n=c#3 v=127
90 On ch=3 n=c#3 v=0
90 On ch=3 n=a3 v=101
120 On ch=3 n=a3 v=0
120 On ch=3 n=f#4 v=101
150 On ch=3 n=f#4 v=0
150 On ch=3 n=c#5 v=101
180 On ch=3 n=c#5 v=0
180 On ch=3 n=a5 v=101
210 On ch=3 n=a5 v=0
210 On ch=3 n=a5 v=127
285 On ch=3 n=a5 v=0
285 Par ch=3 c=64 v=0
285 On ch=3 n=g#5 v=101
300 On ch=3 n=g#5 v=0
300 On ch=3 n=f#5 v=101
315 On ch=3 n=f#5 v=0
315 On ch=3 n=f5 v=101
330 On ch=3 n=f5 v=0
1320 Par ch=3 c=64 v=127
1320 On ch=3 n=c#3 v=127
1410 On ch=3 n=c#3 v=0
1410 On ch=3 n=a#3 v=101
1440 On ch=3 n=a#3 v=0
1440 On ch=3 n=f4 v=101
1455 On ch=3 n=f4 v=0
1455 On ch=3 n=a#4 v=101
1470 On ch=3 n=a#4 v=0
2700 On ch=3 n=f3 v=75
2700 On ch=3 n=d4 v=75
2760 On ch=3 n=d4 v=0
2760 On ch=3 n=f3 v=0
2760 On ch=3 n=f#3 v=75
2790 On ch=3 n=f#3 v=0
2940 On ch=3 n=a#3 v=75
2940 On ch=3 n=g4 v=75
3000 On ch=3 n=g4 v=0
3000 On ch=3 n=a#3 v=0
3000 On ch=3 n=b3 v=75
3030 On ch=3 n=b3 v=0
3690 Par ch=3 c=64 v=127
3730 On ch=3 n=b3 v=75
3740 On ch=3 n=f4 v=75
3750 On ch=3 n=d5 v=75
3756 On ch=3 n=d5 v=0
3756 On ch=3 n=f4 v=0
3756 On ch=3 n=b3 v=0
3850 On ch=3 n=d4 v=75
3860 On ch=3 n=b4 v=75
3870 On ch=3 n=f5 v=75
3876 On ch=3 n=f5 v=0
3876 On ch=3 n=b4 v=0
3876 On ch=3 n=d4 v=0
4050 Par ch=3 c=64 v=0
4470 On ch=3 n=c#4 v=75
4515 On ch=3 n=c#4 v=0
4515 On ch=3 n=a4 v=75
4530 On ch=3 n=a4 v=0
4540 On ch=3 n=f#3 v=91
4550 On ch=3 n=c#4 v=96
4560 On ch=3 n=a4 v=114
4620 On ch=3 n=c#4 v=0
4620 On ch=3 n=f#3 v=0
4635 On ch=3 n=a4 v=0
4635 On ch=3 n=g#4 v=88
4650 On ch=3 n=g#4 v=0
4650 On ch=3 n=f#4 v=88
4665 On ch=3 n=f#4 v=0
4665 On ch=3 n=f4 v=88
4680 On ch=3 n=f4 v=0
4680 On ch=3 n=f4 v=88
4695 On ch=3 n=f4 v=0
4695 On ch=3 n=f#4 v=88
4710 On ch=3 n=f#4 v=0
4710 On ch=3 n=g#4 v=88
4725 On ch=3 n=g#4 v=0
4725 On ch=3 n=f#4 v=88
4740 On ch=3 n=f#4 v=0
4740 On ch=3 n=g#4 v=88
4747 On ch=3 n=f#4 v=88
4748 On ch=3 n=g#4 v=0
4755 On ch=3 n=f#4 v=0
4755 On ch=3 n=g#4 v=88
4762 On ch=3 n=f#4 v=88
4763 On ch=3 n=g#4 v=0
4770 On ch=3 n=f#4 v=0
4770 On ch=3 n=g#4 v=88
4777 On ch=3 n=f#4 v=88
4778 On ch=3 n=g#4 v=0
4785 On ch=3 n=f#4 v=0
4785 On ch=3 n=g#4 v=88
4792 On ch=3 n=f#4 v=88
4793 On ch=3 n=g#4 v=0
4800 On ch=3 n=f#4 v=0
4800 On ch=3 n=g#4 v=88
4807 On ch=3 n=f#4 v=88
4808 On ch=3 n=g#4 v=0
4815 On ch=3 n=f#4 v=0
4815 On ch=3 n=g#4 v=88
4822 On ch=3 n=f#4 v=88
4823 On ch=3 n=g#4 v=0
4830 On ch=3 n=f#4 v=0
4830 On ch=3 n=g#4 v=88
4837 On ch=3 n=f#4 v=88
4838 On ch=3 n=g#4 v=0
4845 On ch=3 n=f#4 v=0
4845 On ch=3 n=g#4 v=88
4852 On ch=3 n=f#4 v=88
4853 On ch=3 n=g#4 v=0
4860 On ch=3 n=f#4 v=0
4860 On ch=3 n=g#4 v=88
4867 On ch=3 n=f#4 v=88
4868 On ch=3 n=g#4 v=0
4875 On ch=3 n=f#4 v=0
4875 On ch=3 n=g#4 v=88
4882 On ch=3 n=f#4 v=88
4883 On ch=3 n=g#4 v=0
4886 On ch=3 n=f#4 v=0
4890 On ch=3 n=f4 v=88
4905 On ch=3 n=f4 v=0
4905 On ch=3 n=f#4 v=88
4909 On ch=3 n=f#4 v=0
4920 On ch=3 n=g#4 v=88
4924 On ch=3 n=g#4 v=0
4935 On ch=3 n=a4 v=88
4939 On ch=3 n=a4 v=0
4965 On ch=3 n=b4 v=88
4969 On ch=3 n=b4 v=0
4990 On ch=3 n=a3 v=88
5000 On ch=3 n=e4 v=88
5010 Par ch=3 c=64 v=127
5010 On ch=3 n=c#5 v=88
5130 On ch=3 n=e4 v=0
5130 On ch=3 n=a3 v=0
5145 On ch=3 n=c#5 v=0
5145 On ch=3 n=c#5 v=88
5160 On ch=3 n=c#5 v=0
5160 On ch=3 n=c#5 v=88
5175 On ch=3 n=c#5 v=0
5175 On ch=3 n=c#5 v=88
5190 On ch=3 n=c#5 v=0
5190 On ch=3 n=c#5 v=101
5205 On ch=3 n=c#5 v=0
5205 On ch=3 n=c#5 v=101
5220 On ch=3 n=c#5 v=0
5220 On ch=3 n=c#5 v=101
5235 On ch=3 n=c#5 v=0
5235 On ch=3 n=c#5 v=101
5250 On ch=3 n=c#5 v=0
5250 On ch=3 n=c#5 v=101
5280 On ch=3 n=c#5 v=0
5280 On ch=3 n=c#5 v=101
5325 On ch=3 n=c#5 v=0
5325 Par ch=3 c=64 v=0
5325 On ch=3 n=e5 v=101
5355 On ch=3 n=e5 v=0
5355 On ch=3 n=d5 v=88
5415 On ch=3 n=d5 v=0
5415 On ch=3 n=c#5 v=88
5475 On ch=3 n=c#5 v=0
5610 On ch=3 n=a3 v=75
5610 On ch=3 n=e4 v=75
5610 On ch=3 n=a4 v=75
5670 On ch=3 n=a4 v=0
5670 On ch=3 n=e4 v=0
5670 On ch=3 n=a3 v=0
5730 On ch=3 n=d4 v=75
5730 On ch=3 n=a4 v=75
5730 On ch=3 n=d5 v=75
5790 On ch=3 n=d5 v=0
5790 On ch=3 n=a4 v=0
5790 On ch=3 n=d4 v=0
5820 On ch=3 n=c#4 v=75
5820 On ch=3 n=a4 v=75
5820 On ch=3 n=c#5 v=75
5824 On ch=3 n=c#5 v=0
5824 On ch=3 n=a4 v=0
5824 On ch=3 n=c#4 v=0
5880 On ch=3 n=b3 v=75
5880 On ch=3 n=e4 v=75
5880 On ch=3 n=g#4 v=75
5880 On ch=3 n=b4 v=75
5884 On ch=3 n=b4 v=0
5884 On ch=3 n=b3 v=0
5884 On ch=3 n=e4 v=0
5884 On ch=3 n=g#4 v=0
5940 On ch=3 n=a3 v=75
5940 On ch=3 n=e4 v=75
5940 On ch=3 n=a4 v=75
5970 On ch=3 n=a4 v=0
5970 On ch=3 n=e4 v=0
5970 On ch=3 n=a3 v=0
6060 On ch=3 n=d#4 v=75
6075 On ch=3 n=d#4 v=0
6075 On ch=3 n=e4 v=75
6090 On ch=3 n=e4 v=0
6090 On ch=3 n=f#4 v=75
6105 On ch=3 n=f#4 v=0
6105 On ch=3 n=g#4 v=75
6120 On ch=3 n=g#4 v=0
6120 On ch=3 n=a4 v=75
6135 On ch=3 n=a4 v=0
6135 On ch=3 n=b4 v=75
6150 On ch=3 n=b4 v=0
6210 On ch=3 n=a3 v=75
6210 On ch=3 n=e4 v=75
6210 On ch=3 n=a4 v=75
6216 On ch=3 n=a4 v=0
6216 On ch=3 n=e4 v=0
6216 On ch=3 n=a3 v=0
6330 On ch=3 n=d4 v=75
6330 On ch=3 n=a4 v=75
6330 On ch=3 n=d5 v=75
6334 On ch=3 n=d5 v=0
6334 On ch=3 n=a4 v=0
6334 On ch=3 n=d4 v=0
6420 On ch=3 n=c#4 v=75
6420 On ch=3 n=a4 v=75
6420 On ch=3 n=c#5 v=75
6424 On ch=3 n=c#5 v=0
6424 On ch=3 n=a4 v=0
6424 On ch=3 n=c#4 v=0
6510 On ch=3 n=b3 v=75
6510 On ch=3 n=g#4 v=75
6510 On ch=3 n=b4 v=75
6514 On ch=3 n=b4 v=0
6514 On ch=3 n=g#4 v=0
6514 On ch=3 n=b3 v=0
6600 On ch=3 n=a3 v=75
6600 On ch=3 n=e4 v=75
6600 On ch=3 n=a4 v=75
6604 On ch=3 n=a4 v=0
6604 On ch=3 n=e4 v=0
6604 On ch=3 n=a3 v=0
6690 On ch=3 n=g#3 v=75
6690 On ch=3 n=d4 v=75
6690 On ch=3 n=f4 v=75
6690 On ch=3 n=g#4 v=75
6720 On ch=3 n=g#4 v=0
6720 On ch=3 n=g#3 v=0
6720 On ch=3 n=d4 v=0
6720 On ch=3 n=f4 v=0
7380 Par ch=3 c=64 v=127
7420 On ch=3 n=b3 v=75
7430 On ch=3 n=f4 v=75
7440 On ch=3 n=d5 v=75
7446 On ch=3 n=d5 v=0
7446 On ch=3 n=f4 v=0
7446 On ch=3 n=b3 v=0
7540 On ch=3 n=c#4 v=75
7550 On ch=3 n=f4 v=75
7560 On ch=3 n=b4 v=75
7566 On ch=3 n=b4 v=0
7566 On ch=3 n=f4 v=0
7566 On ch=3 n=c#4 v=0
7620 Par ch=3 c=64 v=0
7740 On ch=3 n=f#4 v=75
7740 On ch=3 n=a#4 v=75
7785 On ch=3 n=c4 v=75
7800 On ch=3 n=c4 v=0
7800 On ch=3 n=a#4 v=0
7800 On ch=3 n=f#4 v=0
7800 On ch=3 n=c#4 v=75
7860 On ch=3 n=c#4 v=0
7860 On ch=3 n=f#3 v=75
7920 On ch=3 n=f#3 v=0
7980 On ch=3 n=a2 v=88
7980 On ch=3 n=a3 v=88
8025 On ch=3 n=e4 v=88
8025 On ch=3 n=a4 v=88
8025 On ch=3 n=c#5 v=88
8040 On ch=3 n=c#5 v=0
8040 On ch=3 n=e4 v=0
8040 On ch=3 n=a2 v=0
8040 On ch=3 n=a3 v=0
8040 On ch=3 n=a4 v=0
8040 On ch=3 n=e4 v=88
8040 On ch=3 n=a4 v=88
8040 On ch=3 n=c#5 v=88
8100 On ch=3 n=c#5 v=0
8100 On ch=3 n=a4 v=0
8100 On ch=3 n=e4 v=0
8100 Par ch=3 c=64 v=127
8100 On ch=3 n=d3 v=88
8100 On ch=3 n=d4 v=88
8145 On ch=3 n=d4 v=0
8145 On ch=3 n=d3 v=0
8145 On ch=3 n=a4 v=88
8145 On ch=3 n=c#5 v=88
8160 On ch=3 n=c#5 v=0
8160 On ch=3 n=a4 v=0
8160 Par ch=3 c=64 v=0
8160 On ch=3 n=a4 v=88
8160 On ch=3 n=d5 v=88
8190 On ch=3 n=c#3 v=88
8205 On ch=3 n=c#3 v=0
8205 On ch=3 n=c#4 v=88
8220 On ch=3 n=c#4 v=0
8220 On ch=3 n=d5 v=0
8220 On ch=3 n=a4 v=0
8220 On ch=3 n=a4 v=88
8220 On ch=3 n=c#5 v=88
8250 On ch=3 n=b2 v=88
8265 On ch=3 n=b2 v=0
8265 On ch=3 n=b3 v=88
8280 On ch=3 n=b3 v=0
8280 On ch=3 n=c#5 v=0
8280 On ch=3 n=a4 v=0
8280 On ch=3 n=g#4 v=88
8280 On ch=3 n=b4 v=88
8310 On ch=3 n=a2 v=88
8325 On ch=3 n=a2 v=0
8325 On ch=3 n=a3 v=88
8340 On ch=3 n=a3 v=0
8340 On ch=3 n=b4 v=0
8340 On ch=3 n=g#4 v=0
8340 On ch=3 n=e4 v=88
8340 On ch=3 n=a4 v=88
8370 On ch=3 n=g#2 v=88
8385 On ch=3 n=g#2 v=0
8385 On ch=3 n=g#3 v=88
8400 On ch=3 n=g#3 v=0
8400 On ch=3 n=a4 v=0
8400 On ch=3 n=e4 v=0
8400 On ch=3 n=d4 v=88
8400 On ch=3 n=f4 v=88
8400 On ch=3 n=g#4 v=88
8430 Par ch=3 c=64 v=127
8430 On ch=3 n=f#2 v=88
8445 On ch=3 n=f#2 v=0
8445 On ch=3 n=f#3 v=88
8460 On ch=3 n=f#3 v=0
8460 On ch=3 n=g#4 v=0
8460 On ch=3 n=f4 v=0
8460 On ch=3 n=d4 v=0
8460 Par ch=3 c=64 v=127
8460 On ch=3 n=c#4 v=106
8460 On ch=3 n=f#4 v=114
8580 On ch=3 n=f#4 v=0
8580 On ch=3 n=c#4 v=0
8610 On ch=3 n=a4 v=88
8617 On ch=3 n=g#4 v=88
8618 On ch=3 n=a4 v=0
8625 On ch=3 n=g#4 v=0
8625 On ch=3 n=f#4 v=88
8632 On ch=3 n=c#4 v=88
8633 On ch=3 n=f#4 v=0
8640 On ch=3 n=c#4 v=0
8640 On ch=3 n=a3 v=88
8647 On ch=3 n=g#3 v=88
8648 On ch=3 n=a3 v=0
8655 On ch=3 n=g#3 v=0
8655 On ch=3 n=f#3 v=88
8662 On ch=3 n=f3 v=88
8663 On ch=3 n=f#3 v=0
8670 On ch=3 n=f3 v=0
8670 On ch=3 n=f#3 v=88
8677 On ch=3 n=g#3 v=88
8678 On ch=3 n=f#3 v=0
8685 On ch=3 n=g#3 v=0
8685 On ch=3 n=a3 v=88
8692 On ch=3 n=c#4 v=88
8693 On ch=3 n=a3 v=0
8700 On ch=3 n=c#4 v=0
8700 On ch=3 n=f#4 v=88
8707 On ch=3 n=g#4 v=88
8708 On ch=3 n=f#4 v=0
8715 On ch=3 n=g#4 v=0
8715 On ch=3 n=a4 v=88
8722 On ch=3 n=c#5 v=88
8723 On ch=3 n=a4 v=0
8730 On ch=3 n=c#5 v=0
8910 Par ch=3 c=64 v=0
9000 Par ch=3 c=64 v=127
9000 On ch=3 n=d3 v=88
9015 On ch=3 n=d3 v=0
9015 On ch=3 n=a3 v=88
9030 On ch=3 n=a3 v=0
9030 On ch=3 n=f#4 v=88
9045 On ch=3 n=f#4 v=0
9045 On ch=3 n=a4 v=88
9060 On ch=3 n=f#5 v=88
9120 On ch=3 n=f#5 v=0
9120 On ch=3 n=a4 v=0
9180 Par ch=3 c=64 v=0
9300 On ch=3 n=b4 v=88
9300 On ch=3 n=f5 v=88
9300 On ch=3 n=d6 v=88
9360 On ch=3 n=d6 v=0
9360 On ch=3 n=f5 v=0
9360 On ch=3 n=b4 v=0
9420 On ch=3 n=c#5 v=88
9420 On ch=3 n=f5 v=88
9420 On ch=3 n=b5 v=88
9480 On ch=3 n=b5 v=0
9480 On ch=3 n=f5 v=0
9480 On ch=3 n=c#5 v=0
9600 On ch=3 n=f#5 v=88
9600 On ch=3 n=a#5 v=88
9645 On ch=3 n=c5 v=88
9660 On ch=3 n=c5 v=0
9660 On ch=3 n=a#5 v=0
9660 On ch=3 n=f#5 v=0
9660 On ch=3 n=c#5 v=88
9720 On ch=3 n=c#5 v=0
9720 On ch=3 n=f#4 v=88
9750 On ch=3 n=f#4 v=0
9900 On ch=3 n=c#3 v=88
9945 On ch=3 n=c#3 v=0
9945 On ch=3 n=a2 v=88
9945 On ch=3 n=a3 v=88
9960 On ch=3 n=a3 v=0
9960 On ch=3 n=a2 v=0
9960 On ch=3 n=a2 v=88
9960 On ch=3 n=a3 v=88
10035 On ch=3 n=a3 v=0
10035 On ch=3 n=a2 v=0
10035 On ch=3 n=g#2 v=88
10035 On ch=3 n=g#3 v=88
10050 On ch=3 n=g#3 v=0
10050 On ch=3 n=g#2 v=0
10050 On ch=3 n=f#2 v=88
10050 On ch=3 n=f#3 v=88
10065 On ch=3 n=f#3 v=0
10065 On ch=3 n=f#2 v=0
10065 On ch=3 n=f2 v=88
10065 On ch=3 n=f3 v=88
10080 On ch=3 n=f3 v=0
10080 On ch=3 n=f2 v=0
10080 Par ch=3 c=64 v=127
10080 On ch=3 n=f#2 v=88
10080 On ch=3 n=f#3 v=88
10095 On ch=3 n=f#3 v=0
10095 On ch=3 n=f#2 v=0
10095 On ch=3 n=g#3 v=88
10110 On ch=3 n=g#3 v=0
10110 On ch=3 n=f#3 v=88
10117 On ch=3 n=g#3 v=88
10118 On ch=3 n=f#3 v=0
10125 On ch=3 n=g#3 v=0
10125 On ch=3 n=f#3 v=88
10132 On ch=3 n=g#3 v=88
10133 On ch=3 n=f#3 v=0
10140 On ch=3 n=g#3 v=0
10140 On ch=3 n=f#3 v=88
10149 On ch=3 n=f3 v=88
10150 On ch=3 n=f#3 v=0
10159 On ch=3 n=f3 v=0
10160 On ch=3 n=f#3 v=88
10170 On ch=3 n=f#3 v=0
10170 On ch=3 n=g#3 v=88
10179 On ch=3 n=a3 v=88
10180 On ch=3 n=g#3 v=0
10189 On ch=3 n=a3 v=0
10190 Par ch=3 c=64 v=0
10190 On ch=3 n=b3 v=88
10200 On ch=3 n=b3 v=0
10200 Par ch=3 c=64 v=127
10200 On ch=3 n=c#3 v=88
10200 On ch=3 n=c#4 v=88
10260 On ch=3 n=c#4 v=0
10260 On ch=3 n=c#3 v=0
10260 On ch=3 n=c#3 v=88
10260 On ch=3 n=c#4 v=88
10275 On ch=3 n=c#4 v=0
10275 On ch=3 n=c#3 v=0
10275 On ch=3 n=c#3 v=88
10275 On ch=3 n=c#4 v=88
10290 On ch=3 n=c#4 v=0
10290 On ch=3 n=c#3 v=0
10290 On ch=3 n=c#3 v=88
10290 On ch=3 n=c#4 v=88
10312 Par ch=3 c=64 v=0
10312 On ch=3 n=e3 v=88
10312 On ch=3 n=e4 v=88
10313 On ch=3 n=c#4 v=0
10313 On ch=3 n=c#3 v=0
10320 On ch=3 n=e3 v=0
10320 On ch=3 n=e4 v=0
10320 On ch=3 n=d3 v=88
10320 On ch=3 n=d4 v=88
10380 On ch=3 n=d4 v=0
10380 On ch=3 n=d3 v=0
10380 Par ch=3 c=64 v=127
10380 On ch=3 n=c#3 v=88
10380 On ch=3 n=c#4 v=88
10440 On ch=3 n=c#4 v=0
10440 On ch=3 n=c#3 v=0
10590 Par ch=3 c=64 v=0
10605 On ch=3 n=c#3 v=88
10605 On ch=3 n=c#4 v=88
10620 On ch=3 n=c#4 v=0
10620 On ch=3 n=c#3 v=0
10620 On ch=3 n=c#3 v=88
10620 On ch=3 n=c#4 v=88
10710 On ch=3 n=c#4 v=0
10710 On ch=3 n=c#3 v=0
10710 On ch=3 n=c#3 v=88
10710 On ch=3 n=c#4 v=88
10740 On ch=3 n=c#4 v=0
10740 On ch=3 n=c#3 v=0
10740 On ch=3 n=f#3 v=88
10740 On ch=3 n=f#4 v=88
10845 On ch=3 n=e3 v=88
10845 On ch=3 n=e4 v=88
10860 On ch=3 n=e4 v=0
10860 On ch=3 n=f#3 v=0
10860 On ch=3 n=f#4 v=0
10860 On ch=3 n=e3 v=0
10860 On ch=3 n=e3 v=88
10860 On ch=3 n=e4 v=88
10905 On ch=3 n=d3 v=88
10905 On ch=3 n=d4 v=88
10920 On ch=3 n=d4 v=0
10920 On ch=3 n=e3 v=0
10920 On ch=3 n=e4 v=0
10920 On ch=3 n=d3 v=0
10920 On ch=3 n=d3 v=88
10920 On ch=3 n=d4 v=88
10965 On ch=3 n=c#3 v=88
10965 On ch=3 n=c#4 v=88
10980 On ch=3 n=c#4 v=0
10980 On ch=3 n=d3 v=0
10980 On ch=3 n=d4 v=0
10980 On ch=3 n=c#3 v=0
10980 Par ch=3 c=64 v=127
10980 On ch=3 n=c#3 v=88
10980 On ch=3 n=c#4 v=88
11220 Par ch=3 c=64 v=0
11229 On ch=3 n=b2 v=88
11229 On ch=3 n=b3 v=88
11230 On ch=3 n=c#4 v=0
11230 On ch=3 n=c#3 v=0
11239 On ch=3 n=b2 v=0
11239 On ch=3 n=b3 v=0
11240 On ch=3 n=a2 v=88
11240 On ch=3 n=a3 v=88
11250 On ch=3 n=a3 v=0
11250 On ch=3 n=a2 v=0
11250 On ch=3 n=g#2 v=88
11250 On ch=3 n=g#3 v=88
11259 On ch=3 n=f#2 v=88
11259 On ch=3 n=f#3 v=88
11260 On ch=3 n=g#3 v=0
11260 On ch=3 n=g#2 v=0
11269 On ch=3 n=f#2 v=0
11269 On ch=3 n=f#3 v=0
11270 On ch=3 n=e2 v=88
11270 On ch=3 n=e3 v=88
11280 On ch=3 n=e3 v=0
11280 On ch=3 n=e2 v=0
11280 On ch=3 n=d#2 v=88
11280 On ch=3 n=d#3 v=88
11289 On ch=3 n=e2 v=88
11289 On ch=3 n=e3 v=88
11290 On ch=3 n=d#3 v=0
11290 On ch=3 n=d#2 v=0
11299 On ch=3 n=e2 v=0
11299 On ch=3 n=e3 v=0
11300 On ch=3 n=f#2 v=88
11300 On ch=3 n=f#3 v=88
11310 On ch=3 n=f#3 v=0
11310 On ch=3 n=f#2 v=0
11310 On ch=3 n=g#2 v=88
11310 On ch=3 n=g#3 v=88
11319 On ch=3 n=a2 v=88
11319 On ch=3 n=a3 v=88
11320 On ch=3 n=g#3 v=0
11320 On ch=3 n=g#2 v=0
11329 On ch=3 n=a2 v=0
11329 On ch=3 n=a3 v=0
11330 Par ch=3 c=64 v=0
11330 On ch=3 n=b2 v=88
11330 On ch=3 n=b3 v=88
11340 On ch=3 n=b3 v=0
11340 On ch=3 n=b2 v=0
11340 On ch=3 n=c#3 v=88
11340 On ch=3 n=c#4 v=88
11430 On ch=3 n=c#4 v=0
11430 On ch=3 n=c#3 v=0
11430 On ch=3 n=c#3 v=88
11430 On ch=3 n=c#4 v=88
11460 On ch=3 n=c#4 v=0
11460 On ch=3 n=c#3 v=0
11460 Par ch=3 c=64 v=127
11460 On ch=3 n=f#3 v=88
11460 On ch=3 n=f#4 v=88
11505 On ch=3 n=f#4 v=0
11505 On ch=3 n=f#3 v=0
11505 On ch=3 n=f3 v=88
11505 On ch=3 n=f4 v=88
11520 On ch=3 n=f4 v=0
11520 On ch=3 n=f3 v=0
11520 Par ch=3 c=64 v=0
11520 On ch=3 n=f#3 v=88
11520 On ch=3 n=f#4 v=88
11565 On ch=3 n=d#3 v=88
11565 On ch=3 n=d#4 v=88
11580 On ch=3 n=d#4 v=0
11580 On ch=3 n=f#3 v=0
11580 On ch=3 n=f#4 v=0
11580 On ch=3 n=d#3 v=0
11580 On ch=3 n=e3 v=88
11580 On ch=3 n=e4 v=88
11632 On ch=3 n=c#3 v=101
11632 On ch=3 n=c#4 v=101
11633 On ch=3 n=e4 v=0
11633 On ch=3 n=e3 v=0
11640 On ch=3 n=c#3 v=0
11640 On ch=3 n=c#4 v=0
11640 On ch=3 n=d3 v=101
11640 On ch=3 n=d4 v=101
11692 On ch=3 n=c3 v=101
11692 On ch=3 n=c4 v=101
11693 On ch=3 n=d4 v=0
11693 On ch=3 n=d3 v=0
11700 On ch=3 n=c3 v=0
11700 On ch=3 n=c4 v=0
11700 On ch=3 n=c#3 v=101
11700 On ch=3 n=c#4 v=101
11752 On ch=3 n=a#2 v=101
11752 On ch=3 n=a#3 v=101
11753 On ch=3 n=c#4 v=0
11753 On ch=3 n=c#3 v=0
11760 On ch=3 n=a#2 v=0
11760 On ch=3 n=a#3 v=0
11760 On ch=3 n=b2 v=101
11760 On ch=3 n=b3 v=101
11812 On ch=3 n=g#2 v=101
11812 On ch=3 n=g#3 v=101
11813 On ch=3 n=b3 v=0
11813 On ch=3 n=b2 v=0
11820 On ch=3 n=g#2 v=0
11820 On ch=3 n=g#3 v=0
11820 On ch=3 n=a2 v=101
11820 On ch=3 n=a3 v=101
11910 On ch=3 n=a3 v=0
11910 On ch=3 n=a2 v=0
11910 On ch=3 n=g#2 v=101
11910 On ch=3 n=g#3 v=101
11940 On ch=3 n=g#3 v=0
11940 On ch=3 n=g#2 v=0
11940 On ch=3 n=g#2 v=101
11940 On ch=3 n=g#3 v=101
11992 On ch=3 n=f#2 v=101
11992 On ch=3 n=f#3 v=101
11993 On ch=3 n=g#3 v=0
11993 On ch=3 n=g#2 v=0
12000 On ch=3 n=f#2 v=0
12000 On ch=3 n=f#3 v=0
12000 On ch=3 n=f#2 v=101
12000 On ch=3 n=f#3 v=101
12052 On ch=3 n=c#3 v=101
12052 On ch=3 n=c#4 v=101
12053 On ch=3 n=f#3 v=0
12053 On ch=3 n=f#2 v=0
12060 On ch=3 n=c#3 v=0
12060 On ch=3 n=c#4 v=0
12060 Par ch=3 c=64 v=127
12060 On ch=3 n=c#3 v=101
12060 On ch=3 n=c#4 v=101
12150 On ch=3 n=c#4 v=0
12150 On ch=3 n=c#3 v=0
12150 On ch=3 n=c3 v=101
12150 On ch=3 n=c4 v=101
12180 On ch=3 n=c4 v=0
12180 On ch=3 n=c3 v=0
12180 On ch=3 n=c3 v=88
12180 On ch=3 n=c4 v=88
12210 On ch=3 n=c4 v=0
12210 On ch=3 n=c3 v=0
12210 On ch=3 n=a2 v=88
12210 On ch=3 n=a3 v=88
12240 On ch=3 n=a3 v=0
12240 On ch=3 n=a2 v=0
12240 Par ch=3 c=64 v=0
12240 On ch=3 n=g#2 v=88
12240 On ch=3 n=g#3 v=88
12270 On ch=3 n=g#3 v=0
12270 On ch=3 n=g#2 v=0
12270 On ch=3 n=f#2 v=88
12270 On ch=3 n=f#3 v=88
12300 On ch=3 n=f#3 v=0
12300 On ch=3 n=f#2 v=0
12300 Par ch=3 c=64 v=127
12300 On ch=3 n=a3 v=88
12309 On ch=3 n=g#3 v=88
12310 On ch=3 n=a3 v=0
12319 On ch=3 n=g#3 v=0
12320 On ch=3 n=a3 v=88
12330 On ch=3 n=a3 v=0
12330 On ch=3 n=g#3 v=88
12339 On ch=3 n=a3 v=88
12340 On ch=3 n=g#3 v=0
12349 On ch=3 n=a3 v=0
12350 On ch=3 n=g#3 v=88
12360 On ch=3 n=g#3 v=0
12360 On ch=3 n=a3 v=88
12367 On ch=3 n=g#3 v=88
12368 On ch=3 n=a3 v=0
12375 On ch=3 n=g#3 v=0
12375 On ch=3 n=a3 v=88
12382 On ch=3 n=g#3 v=88
12383 On ch=3 n=a3 v=0
12390 On ch=3 n=g#3 v=0
12390 On ch=3 n=a3 v=88
12397 On ch=3 n=g#3 v=88
12398 On ch=3 n=a3 v=0
12405 On ch=3 n=g#3 v=0
12405 On ch=3 n=a3 v=88
12412 On ch=3 n=g#3 v=88
12413 On ch=3 n=a3 v=0
12420 On ch=3 n=g#3 v=0
12420 On ch=3 n=a3 v=88
12427 On ch=3 n=g#3 v=88
12428 On ch=3 n=a3 v=0
12435 On ch=3 n=g#3 v=0
12435 On ch=3 n=a3 v=88
12442 On ch=3 n=g#3 v=88
12443 On ch=3 n=a3 v=0
12450 On ch=3 n=g#3 v=0
12450 On ch=3 n=a3 v=88
12457 On ch=3 n=g#3 v=88
12458 On ch=3 n=a3 v=0
12465 On ch=3 n=g#3 v=0
12465 On ch=3 n=a3 v=88
12472 On ch=3 n=g#3 v=88
12473 On ch=3 n=a3 v=0
12480 On ch=3 n=g#3 v=0
12480 Par ch=3 c=64 v=0
12480 On ch=3 n=f#3 v=88
12495 On ch=3 n=f#3 v=0
12495 On ch=3 n=g#3 v=88
12510 On ch=3 n=g#3 v=0
12510 On ch=3 n=b3 v=88
12530 On ch=3 n=b3 v=0
12530 On ch=3 n=a3 v=88
12549 On ch=3 n=g#3 v=88
12550 On ch=3 n=a3 v=0
12569 On ch=3 n=g#3 v=0
12570 On ch=3 n=f#3 v=88
12630 On ch=3 n=f#3 v=0
12630 On ch=3 n=c#3 v=88
12690 On ch=3 n=c#3 v=0
12810 Par ch=3 c=64 v=127
12810 On ch=3 n=a2 v=88
12810 On ch=3 n=a3 v=88
12855 On ch=3 n=a3 v=0
12855 On ch=3 n=a2 v=0
12855 On ch=3 n=e4 v=88
12855 On ch=3 n=a4 v=88
12855 On ch=3 n=c#5 v=88
12855 On ch=3 n=e5 v=88
12870 On ch=3 n=e5 v=0
12870 On ch=3 n=e4 v=0
12870 On ch=3 n=a4 v=0
12870 On ch=3 n=c#5 v=0
12870 Par ch=3 c=64 v=0
12870 On ch=3 n=e4 v=88
12870 On ch=3 n=a4 v=88
12870 On ch=3 n=c#5 v=88
12870 On ch=3 n=e5 v=88
12930 On ch=3 n=e5 v=0
12930 On ch=3 n=e4 v=0
12930 On ch=3 n=a4 v=0
12930 On ch=3 n=c#5 v=0
12930 Par ch=3 c=64 v=127
12930 On ch=3 n=d3 v=88
12930 On ch=3 n=d4 v=88
12975 On ch=3 n=d4 v=0
12975 On ch=3 n=d3 v=0
12975 On ch=3 n=a4 v=88
12975 On ch=3 n=d5 v=88
12975 On ch=3 n=f#5 v=88
12975 On ch=3 n=a5 v=88
12990 On ch=3 n=a5 v=0
12990 On ch=3 n=a4 v=0
12990 On ch=3 n=d5 v=0
12990 On ch=3 n=f#5 v=0
12990 Par ch=3 c=64 v=0
12990 On ch=3 n=a4 v=88
12990 On ch=3 n=d5 v=88
12990 On ch=3 n=f#5 v=88
12990 On ch=3 n=a5 v=88
13020 On ch=3 n=c#3 v=88
13035 On ch=3 n=c#3 v=0
13035 On ch=3 n=c#4 v=88
13050 On ch=3 n=c#4 v=0
13050 On ch=3 n=a5 v=0
13050 On ch=3 n=a4 v=0
13050 On ch=3 n=d5 v=0
13050 On ch=3 n=f#5 v=0
13050 On ch=3 n=a4 v=102
13050 On ch=3 n=c#5 v=106
13050 On ch=3 n=e5 v=110
13050 On ch=3 n=a5 v=114
13080 On ch=3 n=b2 v=88
13095 On ch=3 n=b2 v=0
13095 On ch=3 n=b3 v=88
13110 On ch=3 n=b3 v=0
13110 On ch=3 n=a5 v=0
13110 On ch=3 n=a4 v=0
13110 On ch=3 n=c#5 v=0
13110 On ch=3 n=e5 v=0
13110 On ch=3 n=g#4 v=102
13110 On ch=3 n=b4 v=106
13110 On ch=3 n=e5 v=110
13110 On ch=3 n=g#5 v=114
13140 On ch=3 n=a2 v=88
13155 On ch=3 n=a2 v=0
13155 On ch=3 n=a3 v=88
13170 On ch=3 n=a3 v=0
13170 On ch=3 n=g#5 v=0
13170 On ch=3 n=g#4 v=0
13170 On ch=3 n=b4 v=0
13170 On ch=3 n=e5 v=0
13170 On ch=3 n=e4 v=102
13170 On ch=3 n=a4 v=106
13170 On ch=3 n=c#5 v=110
13170 On ch=3 n=e5 v=114
13200 On ch=3 n=g#2 v=88
13215 On ch=3 n=g#2 v=0
13215 On ch=3 n=g#3 v=88
13230 On ch=3 n=g#3 v=0
13230 On ch=3 n=e5 v=0
13230 On ch=3 n=e4 v=0
13230 On ch=3 n=a4 v=0
13230 On ch=3 n=c#5 v=0
13230 On ch=3 n=f4 v=102
13230 On ch=3 n=b4 v=106
13230 On ch=3 n=d5 v=110
13230 On ch=3 n=f5 v=114
13260 On ch=3 n=f#2 v=88
13275 On ch=3 n=f#2 v=0
13275 On ch=3 n=f#3 v=88
13290 On ch=3 n=f#3 v=0
13290 On ch=3 n=f5 v=0
13290 On ch=3 n=f4 v=0
13290 On ch=3 n=b4 v=0
13290 On ch=3 n=d5 v=0
13290 On ch=3 n=f#4 v=102
13290 On ch=3 n=a4 v=106
13290 On ch=3 n=c#5 v=110
13290 On ch=3 n=f#5 v=114
13410 On ch=3 n=f#5 v=0
13410 On ch=3 n=f#4 v=0
13410 On ch=3 n=a4 v=0
13410 On ch=3 n=c#5 v=0
14385 Par ch=3 c=64 v=127
14425 On ch=3 n=b4 v=88
14435 On ch=3 n=d5 v=88
14445 On ch=3 n=f#5 v=88
14451 On ch=3 n=f#5 v=0
14451 On ch=3 n=d5 v=0
14451 On ch=3 n=b4 v=0
14545 On ch=3 n=c#4 v=88
14555 On ch=3 n=b4 v=88
14565 Par ch=3 c=64 v=0
14565 On ch=3 n=f5 v=88
14571 On ch=3 n=f5 v=0
14571 On ch=3 n=b4 v=0
14571 On ch=3 n=c#4 v=0
15525 On ch=3 n=f#3 v=88
15531 On ch=3 n=f#3 v=0
15585 On ch=3 n=f#4 v=67
15585 On ch=3 n=c#5 v=75
15645 On ch=3 n=c#5 v=0
15645 On ch=3 n=f#4 v=0
15645 On ch=3 n=c#4 v=49
15651 On ch=3 n=c#4 v=0
15705 On ch=3 n=f#4 v=49
15705 On ch=3 n=c#5 v=49
15711 On ch=3 n=c#5 v=0
15711 On ch=3 n=f#4 v=0
15765 On ch=3 n=f#3 v=49
15771 On ch=3 n=f#3 v=0
15825 On ch=3 n=f#4 v=67
15825 On ch=3 n=c#5 v=75
15885 On ch=3 n=c#5 v=0
15885 On ch=3 n=f#4 v=0
15885 On ch=3 n=c#4 v=49
15891 On ch=3 n=c#4 v=0
15945 On ch=3 n=f#4 v=49
15945 On ch=3 n=c#5 v=49
15951 On ch=3 n=c#5 v=0
15951 On ch=3 n=f#4 v=0
16005 On ch=3 n=f#3 v=49
16011 On ch=3 n=f#3 v=0
16065 On ch=3 n=f#4 v=85
16065 On ch=3 n=c#5 v=101
16125 On ch=3 n=c#5 v=0
16125 On ch=3 n=f#4 v=0
16125 On ch=3 n=c#4 v=49
16131 On ch=3 n=c#4 v=0
16185 On ch=3 n=f#4 v=49
16185 On ch=3 n=c#5 v=49
16191 On ch=3 n=c#5 v=0
16191 On ch=3 n=f#4 v=0
16245 On ch=3 n=f#3 v=49
16251 On ch=3 n=f#3 v=0
16305 On ch=3 n=f#4 v=67
16305 On ch=3 n=c#5 v=75
16365 On ch=3 n=c#5 v=0
16365 On ch=3 n=f#4 v=0
16365 On ch=3 n=c#4 v=49
16371 On ch=3 n=c#4 v=0
16425 On ch=3 n=f#4 v=49
16425 On ch=3 n=c#5 v=49
16431 On ch=3 n=c#5 v=0
16431 On ch=3 n=f#4 v=0
16485 Par ch=3 c=64 v=127
16485 On ch=3 n=f#3 v=49
16491 On ch=3 n=f#3 v=0
16545 On ch=3 n=f#4 v=49
16545 On ch=3 n=c#5 v=49
16605 On ch=3 n=c#5 v=0
16605 On ch=3 n=f#4 v=0
16605 On ch=3 n=c#4 v=49
16611 On ch=3 n=c#4 v=0
16665 Par ch=3 c=64 v=0
16665 On ch=3 n=f#4 v=49
16665 On ch=3 n=c#5 v=49
16671 On ch=3 n=c#5 v=0
16671 On ch=3 n=f#4 v=0
16725 On ch=3 n=f#3 v=49
16731 On ch=3 n=f#3 v=0
16785 On ch=3 n=f#4 v=49
16785 On ch=3 n=c#5 v=49
16845 On ch=3 n=c#5 v=0
16845 On ch=3 n=f#4 v=0
16845 On ch=3 n=c#4 v=49
16851 On ch=3 n=c#4 v=0
16905 On ch=3 n=f#4 v=49
16905 On ch=3 n=c#5 v=49
16911 On ch=3 n=c#5 v=0
16911 On ch=3 n=f#4 v=0
16965 Par ch=3 c=64 v=127
16965 On ch=3 n=f#3 v=49
16971 On ch=3 n=f#3 v=0
17025 On ch=3 n=f4 v=49
17025 On ch=3 n=c#5 v=49
17085 On ch=3 n=c#5 v=0
17085 On ch=3 n=f4 v=0
17085 On ch=3 n=c#4 v=49
17091 On ch=3 n=c#4 v=0
17145 Par ch=3 c=64 v=0
17145 On ch=3 n=f4 v=49
17145 On ch=3 n=c#5 v=49
17151 On ch=3 n=c#5 v=0
17151 On ch=3 n=f4 v=0
17205 On ch=3 n=f#3 v=49
17211 On ch=3 n=f#3 v=0
17265 On ch=3 n=f4 v=49
17265 On ch=3 n=c#5 v=49
17325 On ch=3 n=c#5 v=0
17325 On ch=3 n=f4 v=0
17325 On ch=3 n=c#4 v=49
17331 On ch=3 n=c#4 v=0
17385 On ch=3 n=f4 v=49
17385 On ch=3 n=c#5 v=49
17391 On ch=3 n=c#5 v=0
17391 On ch=3 n=f4 v=0
17445 Par ch=3 c=64 v=127
17445 On ch=3 n=f#3 v=49
17451 On ch=3 n=f#3 v=0
17505 On ch=3 n=f#4 v=49
17505 On ch=3 n=c#5 v=49
17565 On ch=3 n=c#5 v=0
17565 On ch=3 n=f#4 v=0
17565 On ch=3 n=c#4 v=49
17571 On ch=3 n=c#4 v=0
17625 Par ch=3 c=64 v=0
17625 On ch=3 n=f#4 v=49
17625 On ch=3 n=c#5 v=49
17631 On ch=3 n=c#5 v=0
17631 On ch=3 n=f#4 v=0
17685 Par ch=3 c=64 v=127
17685 On ch=3 n=f#3 v=49
17689 On ch=3 n=f#3 v=0
17745 On ch=3 n=a#4 v=49
17745 On ch=3 n=d#5 v=49
17805 On ch=3 n=d#5 v=0
17805 On ch=3 n=a#4 v=0
17805 On ch=3 n=f#4 v=49
17811 On ch=3 n=f#4 v=0
17865 Par ch=3 c=64 v=0
17865 On ch=3 n=a#4 v=49
17865 On ch=3 n=d#5 v=49
17871 On ch=3 n=d#5 v=0
17871 On ch=3 n=a#4 v=0
17925 Par ch=3 c=64 v=127
17925 On ch=3 n=g#3 v=49
17929 On ch=3 n=g#3 v=0
17985 Par ch=3 c=64 v=0
17985 On ch=3 n=c#5 v=49
17985 On ch=3 n=f5 v=49
17991 On ch=3 n=f5 v=0
17991 On ch=3 n=c#5 v=0
18045 Par ch=3 c=64 v=127
18045 On ch=3 n=g#4 v=49
18051 On ch=3 n=g#4 v=0
18105 Par ch=3 c=64 v=0
18105 On ch=3 n=d#5 v=49
18105 On ch=3 n=f#5 v=49
18111 On ch=3 n=f#5 v=0
18111 On ch=3 n=d#5 v=0
18165 Par ch=3 c=64 v=127
18165 On ch=3 n=c#4 v=49
18171 On ch=3 n=c#4 v=0
18225 On ch=3 n=c#5 v=49
18225 On ch=3 n=f5 v=49
18231 On ch=3 n=f5 v=0
18231 On ch=3 n=c#5 v=0
18345 Par ch=3 c=64 v=0
18345 On ch=3 n=g#4 v=49
18345 On ch=3 n=d#5 v=49
18345 On ch=3 n=f#5 v=49
18351 On ch=3 n=f#5 v=0
18351 On ch=3 n=d#5 v=0
18351 On ch=3 n=g#4 v=0
18405 On ch=3 n=g#4 v=49
18405 On ch=3 n=c5 v=49
18405 On ch=3 n=f#5 v=49
18525 On ch=3 n=f#5 v=0
18525 On ch=3 n=c5 v=0
18525 On ch=3 n=g#4 v=0
18525 On ch=3 n=c#5 v=49
18525 On ch=3 n=f5 v=49
18531 On ch=3 n=f5 v=0
18531 On ch=3 n=c#5 v=0
18645 Par ch=3 c=64 v=127
18645 On ch=3 n=f#4 v=75
18651 On ch=3 n=f#4 v=0
18705 On ch=3 n=f#5 v=75
18705 On ch=3 n=c#6 v=75
18765 On ch=3 n=c#6 v=0
18765 On ch=3 n=f#5 v=0
18765 On ch=3 n=c#5 v=75
18769 On ch=3 n=c#5 v=0
18825 Par ch=3 c=64 v=0
18825 On ch=3 n=f#5 v=75
18825 On ch=3 n=c#6 v=75
18831 On ch=3 n=c#6 v=0
18831 On ch=3 n=f#5 v=0
18885 On ch=3 n=f#4 v=75
18891 On ch=3 n=f#4 v=0
18945 On ch=3 n=f#5 v=75
18945 On ch=3 n=c#6 v=75
19005 On ch=3 n=c#6 v=0
19005 On ch=3 n=f#5 v=0
19005 On ch=3 n=c#5 v=75
19011 On ch=3 n=c#5 v=0
19065 On ch=3 n=f#5 v=75
19065 On ch=3 n=c#6 v=75
19071 On ch=3 n=c#6 v=0
19071 On ch=3 n=f#5 v=0
19125 Par ch=3 c=64 v=127
19125 On ch=3 n=f#4 v=75
19131 On ch=3 n=f#4 v=0
19185 On ch=3 n=f5 v=75
19185 On ch=3 n=c#6 v=75
19245 On ch=3 n=c#6 v=0
19245 On ch=3 n=f5 v=0
19245 On ch=3 n=c#5 v=75
19251 On ch=3 n=c#5 v=0
19305 Par ch=3 c=64 v=0
19305 On ch=3 n=f5 v=75
19305 On ch=3 n=c#6 v=75
19311 On ch=3 n=c#6 v=0
19311 On ch=3 n=f5 v=0
19365 On ch=3 n=f#4 v=75
19371 On ch=3 n=f#4 v=0
19425 On ch=3 n=f5 v=75
19425 On ch=3 n=c#6 v=75
19485 On ch=3 n=c#6 v=0
19485 On ch=3 n=f5 v=0
19485 On ch=3 n=c#5 v=75
19491 On ch=3 n=c#5 v=0
19545 On ch=3 n=f5 v=75
19545 On ch=3 n=c#6 v=75
19551 On ch=3 n=c#6 v=0
19551 On ch=3 n=f5 v=0
19605 Par ch=3 c=64 v=127
19605 On ch=3 n=f#4 v=75
19611 On ch=3 n=f#4 v=0
19665 On ch=3 n=f#5 v=75
19665 On ch=3 n=c#6 v=75
19725 On ch=3 n=c#6 v=0
19725 On ch=3 n=f#5 v=0
19725 On ch=3 n=c#5 v=75
19731 On ch=3 n=c#5 v=0
19785 Par ch=3 c=64 v=0
19785 On ch=3 n=f#5 v=75
19785 On ch=3 n=c#6 v=75
19791 On ch=3 n=c#6 v=0
19791 On ch=3 n=f#5 v=0
19845 Par ch=3 c=64 v=127
19845 On ch=3 n=f#4 v=75
19851 On ch=3 n=f#4 v=0
19905 On ch=3 n=a#5 v=75
19905 On ch=3 n=d#6 v=75
19965 On ch=3 n=d#6 v=0
19965 On ch=3 n=a#5 v=0
19965 On ch=3 n=f#5 v=75
19971 On ch=3 n=f#5 v=0
20025 Par ch=3 c=64 v=0
20025 On ch=3 n=a#5 v=75
20025 On ch=3 n=d#6 v=75
20031 On ch=3 n=d#6 v=0
20031 On ch=3 n=a#5 v=0
20085 Par ch=3 c=64 v=127
20085 On ch=3 n=g#4 v=75
20091 On ch=3 n=g#4 v=0
20145 Par ch=3 c=64 v=0
20145 On ch=3 n=c#6 v=75
20145 On ch=3 n=f6 v=75
20151 On ch=3 n=f6 v=0
20151 On ch=3 n=c#6 v=0
20205 Par ch=3 c=64 v=127
20205 On ch=3 n=g#5 v=75
20211 On ch=3 n=g#5 v=0
20265 Par ch=3 c=64 v=0
20265 On ch=3 n=d#6 v=75
20265 On ch=3 n=f#6 v=75
20271 On ch=3 n=f#6 v=0
20271 On ch=3 n=d#6 v=0
20325 Par ch=3 c=64 v=127
20325 On ch=3 n=c#5 v=75
20331 On ch=3 n=c#5 v=0
20385 On ch=3 n=c#6 v=75
20385 On ch=3 n=f6 v=75
20391 On ch=3 n=f6 v=0
20391 On ch=3 n=c#6 v=0
20505 Par ch=3 c=64 v=0
20505 On ch=3 n=g#5 v=75
20505 On ch=3 n=d#6 v=75
20505 On ch=3 n=f#6 v=75
20511 On ch=3 n=f#6 v=0
20511 On ch=3 n=d#6 v=0
20511 On ch=3 n=g#5 v=0
20565 On ch=3 n=g#5 v=75
20565 On ch=3 n=c6 v=75
20565 On ch=3 n=f#6 v=75
20685 On ch=3 n=f#6 v=0
20685 On ch=3 n=c6 v=0
20685 On ch=3 n=g#5 v=0
20685 On ch=3 n=c#6 v=75
20685 On ch=3 n=f6 v=75
20691 On ch=3 n=f6 v=0
20691 On ch=3 n=c#6 v=0
20805 On ch=3 n=a#5 v=75
20835 On ch=3 n=a#5 v=0
20835 On ch=3 n=f6 v=75
20865 On ch=3 n=f6 v=0
20865 On ch=3 n=d6 v=75
20895 On ch=3 n=d6 v=0
20895 On ch=3 n=a#5 v=75
20925 On ch=3 n=a#5 v=0
20925 On ch=3 n=g5 v=75
20955 On ch=3 n=g5 v=0
20955 On ch=3 n=d6 v=75
20985 On ch=3 n=d6 v=0
20985 On ch=3 n=a#5 v=75
21015 On ch=3 n=a#5 v=0
21015 On ch=3 n=g5 v=75
21045 On ch=3 n=g5 v=0
21045 On ch=3 n=d#5 v=75
21075 On ch=3 n=d#5 v=0
21075 On ch=3 n=a#5 v=75
21105 On ch=3 n=a#5 v=0
21105 On ch=3 n=g5 v=75
21135 On ch=3 n=g5 v=0
21135 On ch=3 n=d#5 v=75
21165 On ch=3 n=d#5 v=0
21165 On ch=3 n=c5 v=75
21195 On ch=3 n=c5 v=0
21195 On ch=3 n=g5 v=75
21225 On ch=3 n=g5 v=0
21225 On ch=3 n=d#5 v=75
21255 On ch=3 n=d#5 v=0
21255 On ch=3 n=c5 v=75
21285 On ch=3 n=c5 v=0
21765 On ch=3 n=a#5 v=75
21795 On ch=3 n=a#5 v=0
21795 On ch=3 n=f6 v=75
21825 On ch=3 n=f6 v=0
21825 On ch=3 n=d6 v=75
21855 On ch=3 n=d6 v=0
21855 On ch=3 n=a#5 v=75
21885 On ch=3 n=a#5 v=0
21885 On ch=3 n=g5 v=75
21915 On ch=3 n=g5 v=0
21915 On ch=3 n=d6 v=75
21945 On ch=3 n=d6 v=0
21945 On ch=3 n=a#5 v=75
21975 On ch=3 n=a#5 v=0
21975 On ch=3 n=g5 v=75
22005 On ch=3 n=g5 v=0
22005 On ch=3 n=d#5 v=75
22035 On ch=3 n=d#5 v=0
22035 On ch=3 n=a#5 v=75
22065 On ch=3 n=a#5 v=0
22065 On ch=3 n=g5 v=75
22095 On ch=3 n=g5 v=0
22095 On ch=3 n=d#5 v=75
22125 On ch=3 n=d#5 v=0
22125 On ch=3 n=c5 v=75
22155 On ch=3 n=c5 v=0
22155 On ch=3 n=g5 v=75
22185 On ch=3 n=g5 v=0
22185 On ch=3 n=d#5 v=75
22215 On ch=3 n=d#5 v=0
22215 On ch=3 n=c5 v=75
22245 On ch=3 n=c5 v=0
25125 On ch=3 n=c#6 v=75
25125 On ch=3 n=g#6 v=75
25185 On ch=3 n=g#6 v=0
25185 On ch=3 n=c#6 v=0
27075 Par ch=3 c=64 v=127
27090 On ch=3 n=f#4 v=75
27105 On ch=3 n=g#5 v=75
27195 On ch=3 n=g#5 v=0
27195 On ch=3 n=f#4 v=0
27195 On ch=3 n=a#5 v=75
27225 On ch=3 n=a#5 v=0
27225 On ch=3 n=c#6 v=75
27231 On ch=3 n=c#6 v=0
27285 Par ch=3 c=64 v=0
27285 On ch=3 n=b5 v=75
27305 On ch=3 n=b5 v=0
27305 On ch=3 n=c#6 v=75
27324 On ch=3 n=b5 v=75
27325 On ch=3 n=c#6 v=0
27344 On ch=3 n=b5 v=0
27345 On ch=3 n=a#5 v=75
27351 On ch=3 n=a#5 v=0
27405 On ch=3 n=b5 v=75
27425 On ch=3 n=b5 v=0
27425 On ch=3 n=c#6 v=75
27444 On ch=3 n=b5 v=75
27445 On ch=3 n=c#6 v=0
27464 On ch=3 n=b5 v=0
27465 On ch=3 n=g#5 v=75
27585 On ch=3 n=g#5 v=0
27585 On ch=3 n=f#4 v=75
27675 On ch=3 n=f#4 v=0
27675 On ch=3 n=g#4 v=75
27705 On ch=3 n=g#4 v=0
27705 On ch=3 n=b4 v=75
27735 On ch=3 n=b4 v=0
27735 On ch=3 n=a#4 v=75
27765 On ch=3 n=a#4 v=0
27765 On ch=3 n=d#5 v=75
27795 On ch=3 n=d#5 v=0
27795 On ch=3 n=c#5 v=75
27825 On ch=3 n=c#5 v=0
27825 Par ch=3 c=64 v=127
27825 On ch=3 n=g#5 v=75
27855 On ch=3 n=g#5 v=0
27855 On ch=3 n=f#5 v=75
27885 On ch=3 n=f#5 v=0
27885 On ch=3 n=b5 v=75
27915 On ch=3 n=b5 v=0
27915 Par ch=3 c=64 v=0
27915 On ch=3 n=a#5 v=75
27945 On ch=3 n=a#5 v=0
27945 Par ch=3 c=64 v=127
27945 On ch=3 n=g#5 v=75
27975 On ch=3 n=g#5 v=0
27975 On ch=3 n=f#5 v=75
28005 On ch=3 n=f#5 v=0
28005 On ch=3 n=d5 v=75
28035 On ch=3 n=d5 v=0
28035 Par ch=3 c=64 v=0
28035 On ch=3 n=d#5 v=75
28065 On ch=3 n=d#5 v=0
28065 Par ch=3 c=64 v=127
28065 On ch=3 n=f5 v=75
28071 On ch=3 n=f5 v=0
28125 Par ch=3 c=64 v=0
28125 On ch=3 n=g#5 v=75
28131 On ch=3 n=g#5 v=0
28185 Par ch=3 c=64 v=127
28185 On ch=3 n=f#5 v=75
28191 On ch=3 n=f#5 v=0
28245 Par ch=3 c=64 v=0
28245 On ch=3 n=g#5 v=75
28251 On ch=3 n=g#5 v=0
28485 On ch=3 n=g#5 v=75
28485 On ch=3 n=d#6 v=75
28485 On ch=3 n=f#6 v=75
28545 On ch=3 n=f#6 v=0
28545 On ch=3 n=d#6 v=0
28545 On ch=3 n=g#5 v=0
28545 On ch=3 n=g#5 v=91
28545 On ch=3 n=c6 v=96
28545 On ch=3 n=f#6 v=101
28665 On ch=3 n=f#6 v=0
28665 On ch=3 n=c6 v=0
28665 On ch=3 n=g#5 v=0
28665 On ch=3 n=c#6 v=75
28665 On ch=3 n=f6 v=75
28671 On ch=3 n=f6 v=0
28671 On ch=3 n=c#6 v=0
28785 On ch=3 n=a5 v=75
28815 On ch=3 n=a5 v=0
28815 On ch=3 n=e6 v=75
28845 On ch=3 n=e6 v=0
28845 On ch=3 n=c#6 v=75
28875 On ch=3 n=c#6 v=0
28875 On ch=3 n=a5 v=75
28905 On ch=3 n=a5 v=0
28905 On ch=3 n=f#5 v=75
28935 On ch=3 n=f#5 v=0
28935 On ch=3 n=c#6 v=75
28965 On ch=3 n=c#6 v=0
28965 On ch=3 n=a5 v=75
28995 On ch=3 n=a5 v=0
28995 On ch=3 n=f#5 v=75
29025 On ch=3 n=f#5 v=0
29025 On ch=3 n=d5 v=75
29055 On ch=3 n=d5 v=0
29055 On ch=3 n=a5 v=75
29085 On ch=3 n=a5 v=0
29085 On ch=3 n=f#5 v=75
29115 On ch=3 n=f#5 v=0
29115 On ch=3 n=d5 v=75
29145 On ch=3 n=d5 v=0
29145 On ch=3 n=b4 v=75
29175 On ch=3 n=b4 v=0
29175 On ch=3 n=f#5 v=75
29205 On ch=3 n=f#5 v=0
29205 On ch=3 n=d5 v=75
29235 On ch=3 n=d5 v=0
29235 On ch=3 n=b4 v=75
29265 On ch=3 n=b4 v=0
29745 On ch=3 n=a5 v=75
29775 On ch=3 n=a5 v=0
29775 On ch=3 n=e6 v=75
29805 On ch=3 n=e6 v=0
29805 On ch=3 n=c#6 v=75
29835 On ch=3 n=c#6 v=0
29835 On ch=3 n=a5 v=75
29865 On ch=3 n=a5 v=0
29865 On ch=3 n=f#5 v=75
29895 On ch=3 n=f#5 v=0
29895 On ch=3 n=c#6 v=75
29925 On ch=3 n=c#6 v=0
29925 On ch=3 n=a5 v=75
29955 On ch=3 n=a5 v=0
29955 On ch=3 n=f#5 v=75
29985 On ch=3 n=f#5 v=0
29985 On ch=3 n=d5 v=75
30015 On ch=3 n=d5 v=0
30015 On ch=3 n=a5 v=75
30045 On ch=3 n=a5 v=0
30045 On ch=3 n=f#5 v=75
30075 On ch=3 n=f#5 v=0
30075 On ch=3 n=d5 v=75
30105 On ch=3 n=d5 v=0
30105 On ch=3 n=b4 v=75
30135 On ch=3 n=b4 v=0
30135 On ch=3 n=f#5 v=75
30165 On ch=3 n=f#5 v=0
30165 On ch=3 n=d5 v=75
30195 On ch=3 n=d5 v=0
30195 On ch=3 n=b4 v=75
30225 On ch=3 n=b4 v=0
34005 On ch=3 n=c5 v=75
34005 On ch=3 n=f#5 v=75
34005 On ch=3 n=a5 v=75
34011 On ch=3 n=a5 v=0
34011 On ch=3 n=f#5 v=0
34011 On ch=3 n=c5 v=0
34065 Par ch=3 c=64 v=127
34065 On ch=3 n=c#5 v=75
34125 On ch=3 n=c#5 v=0
34125 On ch=3 n=a#5 v=75
34125 On ch=3 n=f#6 v=75
34185 On ch=3 n=f#6 v=0
34185 On ch=3 n=a#5 v=0
34185 On ch=3 n=c#5 v=75
34245 On ch=3 n=c#5 v=0
34245 Par ch=3 c=64 v=0
34245 On ch=3 n=a#5 v=75
34245 On ch=3 n=f#6 v=75
34305 On ch=3 n=f#6 v=0
34305 On ch=3 n=a#5 v=0
34305 Par ch=3 c=64 v=127
34305 On ch=3 n=c#5 v=75
34365 On ch=3 n=c#5 v=0
34365 On ch=3 n=a#5 v=75
34365 On ch=3 n=d#6 v=75
34425 On ch=3 n=d#6 v=0
34425 On ch=3 n=a#5 v=0
34425 Par ch=3 c=64 v=0
34425 On ch=3 n=c#5 v=75
34485 On ch=3 n=c#5 v=0
34485 On ch=3 n=f#5 v=75
34485 On ch=3 n=b5 v=75
34545 On ch=3 n=b5 v=0
34545 On ch=3 n=f#5 v=0
36165 On ch=3 n=c5 v=75
36165 On ch=3 n=f#5 v=75
36165 On ch=3 n=a5 v=75
36171 On ch=3 n=a5 v=0
36171 On ch=3 n=f#5 v=0
36171 On ch=3 n=c5 v=0
36225 Par ch=3 c=64 v=127
36225 On ch=3 n=c#5 v=75
36285 On ch=3 n=c#5 v=0
36285 On ch=3 n=a#5 v=75
36285 On ch=3 n=f#6 v=75
36345 On ch=3 n=f#6 v=0
36345 On ch=3 n=a#5 v=0
36345 On ch=3 n=c#5 v=75
36405 On ch=3 n=c#5 v=0
36405 Par ch=3 c=64 v=0
36405 On ch=3 n=a#5 v=75
36405 On ch=3 n=f#6 v=75
36465 On ch=3 n=f#6 v=0
36465 On ch=3 n=a#5 v=0
36465 Par ch=3 c=64 v=127
36465 On ch=3 n=c#5 v=75
36525 On ch=3 n=c#5 v=0
36525 On ch=3 n=a#5 v=75
36525 On ch=3 n=d#6 v=75
36585 On ch=3 n=d#6 v=0
36585 On ch=3 n=a#5 v=0
36585 Par ch=3 c=64 v=0
36585 On ch=3 n=c#5 v=75
36645 On ch=3 n=c#5 v=0
36645 On ch=3 n=f#5 v=75
36645 On ch=3 n=b5 v=75
36705 On ch=3 n=b5 v=0
36705 On ch=3 n=f#5 v=0
42825 Par ch=3 c=64 v=127
42825 On ch=3 n=d#5 v=49
42825 On ch=3 n=c6 v=49
42825 On ch=3 n=d#6 v=49
42831 On ch=3 n=d#6 v=0
42831 On ch=3 n=c6 v=0
42831 On ch=3 n=d#5 v=0
42885 On ch=3 n=d#5 v=49
42885 On ch=3 n=c6 v=49
42885 On ch=3 n=d#6 v=49
42891 On ch=3 n=d#6 v=0
42891 On ch=3 n=c6 v=0
42891 On ch=3 n=d#5 v=0
42945 On ch=3 n=d#5 v=49
42945 On ch=3 n=c6 v=49
42945 On ch=3 n=d#6 v=49
42951 On ch=3 n=d#6 v=0
42951 On ch=3 n=c6 v=0
42951 On ch=3 n=d#5 v=0
43005 Par ch=3 c=64 v=0
43785 Par ch=3 c=64 v=127
43785 On ch=3 n=c#5 v=49
43785 On ch=3 n=a#5 v=49
43785 On ch=3 n=c#6 v=49
43791 On ch=3 n=c#6 v=0
43791 On ch=3 n=a#5 v=0
43791 On ch=3 n=c#5 v=0
43845 On ch=3 n=c#5 v=49
43845 On ch=3 n=a#5 v=49
43845 On ch=3 n=c#6 v=49
43851 On ch=3 n=c#6 v=0
43851 On ch=3 n=a#5 v=0
43851 On ch=3 n=c#5 v=0
43905 On ch=3 n=c#5 v=49
43905 On ch=3 n=a#5 v=49
43905 On ch=3 n=c#6 v=49
43911 On ch=3 n=c#6 v=0
43911 On ch=3 n=a#5 v=0
43911 On ch=3 n=c#5 v=0
43965 Par ch=3 c=64 v=0
44745 Par ch=3 c=64 v=127
44745 On ch=3 n=g#5 v=49
44745 On ch=3 n=d#6 v=49
44745 On ch=3 n=g#6 v=49
44751 On ch=3 n=g#6 v=0
44751 On ch=3 n=d#6 v=0
44751 On ch=3 n=g#5 v=0
44805 On ch=3 n=g#5 v=49
44805 On ch=3 n=d#6 v=49
44805 On ch=3 n=g#6 v=49
44811 On ch=3 n=g#6 v=0
44811 On ch=3 n=d#6 v=0
44811 On ch=3 n=g#5 v=0
44865 On ch=3 n=g#5 v=49
44865 On ch=3 n=d#6 v=49
44865 On ch=3 n=g#6 v=49
44871 On ch=3 n=g#6 v=0
44871 On ch=3 n=d#6 v=0
44871 On ch=3 n=g#5 v=0
44925 Par ch=3 c=64 v=0
45705 Par ch=3 c=64 v=127
45705 On ch=3 n=f#5 v=49
45705 On ch=3 n=a#5 v=49
45705 On ch=3 n=f#6 v=49
45711 On ch=3 n=f#6 v=0
45711 On ch=3 n=a#5 v=0
45711 On ch=3 n=f#5 v=0
45765 On ch=3 n=f#5 v=49
45765 On ch=3 n=a#5 v=49
45765 On ch=3 n=f#6 v=49
45771 On ch=3 n=f#6 v=0
45771 On ch=3 n=a#5 v=0
45771 On ch=3 n=f#5 v=0
45825 On ch=3 n=f#5 v=49
45825 On ch=3 n=a#5 v=49
45825 On ch=3 n=f#6 v=49
45831 On ch=3 n=f#6 v=0
45831 On ch=3 n=a#5 v=0
45831 On ch=3 n=f#5 v=0
45885 Par ch=3 c=64 v=0
48825 On ch=3 n=f#4 v=62
48885 On ch=3 n=f#4 v=0
48885 On ch=3 n=f#5 v=62
48885 On ch=3 n=a5 v=62
48891 On ch=3 n=a5 v=0
48891 On ch=3 n=f#5 v=0
48945 On ch=3 n=c#5 v=62
48951 On ch=3 n=c#5 v=0
49005 On ch=3 n=f#5 v=62
49005 On ch=3 n=a5 v=62
49011 On ch=3 n=a5 v=0
49011 On ch=3 n=f#5 v=0
49065 On ch=3 n=d5 v=62
49071 On ch=3 n=d5 v=0
49125 On ch=3 n=f#5 v=62
49125 On ch=3 n=b5 v=62
49131 On ch=3 n=b5 v=0
49131 On ch=3 n=f#5 v=0
49185 On ch=3 n=c#5 v=62
49191 On ch=3 n=c#5 v=0
49245 On ch=3 n=e5 v=62
49245 On ch=3 n=a5 v=62
49251 On ch=3 n=a5 v=0
49251 On ch=3 n=e5 v=0
49305 Par ch=3 c=64 v=127
49305 On ch=3 n=c5 v=62
49305 On ch=3 n=d#5 v=62
49305 On ch=3 n=g#5 v=62
49311 On ch=3 n=g#5 v=0
49311 On ch=3 n=d#5 v=0
49311 On ch=3 n=c5 v=0
49365 On ch=3 n=c5 v=62
49365 On ch=3 n=d#5 v=62
49365 On ch=3 n=g#5 v=62
49371 On ch=3 n=g#5 v=0
49371 On ch=3 n=d#5 v=0
49371 On ch=3 n=c5 v=0
49425 On ch=3 n=c5 v=62
49425 On ch=3 n=d#5 v=62
49425 On ch=3 n=g#5 v=62
49431 On ch=3 n=g#5 v=0
49431 On ch=3 n=d#5 v=0
49431 On ch=3 n=c5 v=0
49545 On ch=3 n=c6 v=62
49545 On ch=3 n=d#6 v=62
49545 On ch=3 n=g#6 v=62
49551 On ch=3 n=g#6 v=0
49551 On ch=3 n=d#6 v=0
49551 On ch=3 n=c6 v=0
49605 On ch=3 n=c6 v=62
49605 On ch=3 n=d#6 v=62
49605 On ch=3 n=g#6 v=62
49611 On ch=3 n=g#6 v=0
49611 On ch=3 n=d#6 v=0
49611 On ch=3 n=c6 v=0
49665 On ch=3 n=c6 v=62
49665 On ch=3 n=d#6 v=62
49665 On ch=3 n=g#6 v=62
49671 On ch=3 n=g#6 v=0
49671 On ch=3 n=d#6 v=0
49671 On ch=3 n=c6 v=0
49725 Par ch=3 c=64 v=0
49785 On ch=3 n=f#4 v=62
49791 On ch=3 n=f#4 v=0
49845 On ch=3 n=f#5 v=62
49845 On ch=3 n=a5 v=62
49851 On ch=3 n=a5 v=0
49851 On ch=3 n=f#5 v=0
49905 On ch=3 n=c#5 v=62
49911 On ch=3 n=c#5 v=0
49965 On ch=3 n=f#5 v=62
49965 On ch=3 n=a5 v=62
49971 On ch=3 n=a5 v=0
49971 On ch=3 n=f#5 v=0
50025 On ch=3 n=d5 v=62
50031 On ch=3 n=d5 v=0
50085 On ch=3 n=f#5 v=62
50085 On ch=3 n=b5 v=62
50089 On ch=3 n=b5 v=0
50089 On ch=3 n=f#5 v=0
50145 On ch=3 n=c#5 v=62
50151 On ch=3 n=c#5 v=0
50205 On ch=3 n=f5 v=62
50205 On ch=3 n=b5 v=62
50211 On ch=3 n=b5 v=0
50211 On ch=3 n=f5 v=0
50265 Par ch=3 c=64 v=127
50265 On ch=3 n=f#5 v=62
50265 On ch=3 n=a#5 v=62
50271 On ch=3 n=a#5 v=0
50271 On ch=3 n=f#5 v=0
50325 On ch=3 n=f#5 v=62
50325 On ch=3 n=a#5 v=62
50331 On ch=3 n=a#5 v=0
50331 On ch=3 n=f#5 v=0
50385 On ch=3 n=f#5 v=62
50385 On ch=3 n=a#5 v=62
50391 On ch=3 n=a#5 v=0
50391 On ch=3 n=f#5 v=0
50505 On ch=3 n=c#6 v=62
50505 On ch=3 n=f#6 v=62
50505 On ch=3 n=a#6 v=62
50511 On ch=3 n=a#6 v=0
50511 On ch=3 n=f#6 v=0
50511 On ch=3 n=c#6 v=0
50565 On ch=3 n=c#6 v=62
50565 On ch=3 n=f#6 v=62
50565 On ch=3 n=a#6 v=62
50571 On ch=3 n=a#6 v=0
50571 On ch=3 n=f#6 v=0
50571 On ch=3 n=c#6 v=0
50625 On ch=3 n=c#6 v=62
50625 On ch=3 n=f#6 v=62
50625 On ch=3 n=a#6 v=62
50631 On ch=3 n=a#6 v=0
50631 On ch=3 n=f#6 v=0
50631 On ch=3 n=c#6 v=0
50685 Par ch=3 c=64 v=0
50745 On ch=3 n=f#4 v=62
50805 On ch=3 n=f#4 v=0
50805 On ch=3 n=f#5 v=62
50805 On ch=3 n=a5 v=62
50811 On ch=3 n=a5 v=0
50811 On ch=3 n=f#5 v=0
50865 On ch=3 n=c#5 v=62
50871 On ch=3 n=c#5 v=0
50925 On ch=3 n=f#5 v=62
50925 On ch=3 n=a5 v=62
50931 On ch=3 n=a5 v=0
50931 On ch=3 n=f#5 v=0
50985 On ch=3 n=d5 v=62
50991 On ch=3 n=d5 v=0
51045 On ch=3 n=f#5 v=62
51045 On ch=3 n=b5 v=62
51051 On ch=3 n=b5 v=0
51051 On ch=3 n=f#5 v=0
51105 On ch=3 n=c#5 v=62
51111 On ch=3 n=c#5 v=0
51165 On ch=3 n=e5 v=62
51165 On ch=3 n=a5 v=62
51171 On ch=3 n=a5 v=0
51171 On ch=3 n=e5 v=0
51225 Par ch=3 c=64 v=127
51225 On ch=3 n=c5 v=62
51225 On ch=3 n=d#5 v=62
51225 On ch=3 n=g#5 v=62
51231 On ch=3 n=g#5 v=0
51231 On ch=3 n=d#5 v=0
51231 On ch=3 n=c5 v=0
51285 On ch=3 n=c5 v=62
51285 On ch=3 n=d#5 v=62
51285 On ch=3 n=g#5 v=62
51291 On ch=3 n=g#5 v=0
51291 On ch=3 n=d#5 v=0
51291 On ch=3 n=c5 v=0
51345 On ch=3 n=c5 v=62
51345 On ch=3 n=d#5 v=62
51345 On ch=3 n=g#5 v=62
51351 On ch=3 n=g#5 v=0
51351 On ch=3 n=d#5 v=0
51351 On ch=3 n=c5 v=0
51465 On ch=3 n=c6 v=62
51465 On ch=3 n=d#6 v=62
51465 On ch=3 n=g#6 v=62
51471 On ch=3 n=g#6 v=0
51471 On ch=3 n=d#6 v=0
51471 On ch=3 n=c6 v=0
51525 On ch=3 n=c6 v=62
51525 On ch=3 n=d#6 v=62
51525 On ch=3 n=g#6 v=62
51531 On ch=3 n=g#6 v=0
51531 On ch=3 n=d#6 v=0
51531 On ch=3 n=c6 v=0
51585 On ch=3 n=c6 v=62
51585 On ch=3 n=d#6 v=62
51585 On ch=3 n=g#6 v=62
51591 On ch=3 n=g#6 v=0
51591 On ch=3 n=d#6 v=0
51591 On ch=3 n=c6 v=0
51645 Par ch=3 c=64 v=0
51705 On ch=3 n=f#4 v=62
51711 On ch=3 n=f#4 v=0
51765 On ch=3 n=f#5 v=62
51765 On ch=3 n=a5 v=62
51771 On ch=3 n=a5 v=0
51771 On ch=3 n=f#5 v=0
51825 On ch=3 n=c#5 v=62
51831 On ch=3 n=c#5 v=0
51885 On ch=3 n=f#5 v=62
51885 On ch=3 n=a5 v=62
51891 On ch=3 n=a5 v=0
51891 On ch=3 n=f#5 v=0
51945 On ch=3 n=d5 v=62
51951 On ch=3 n=d5 v=0
52005 On ch=3 n=f#5 v=62
52005 On ch=3 n=b5 v=62
52009 On ch=3 n=b5 v=0
52009 On ch=3 n=f#5 v=0
52065 On ch=3 n=c#5 v=62
52071 On ch=3 n=c#5 v=0
52125 On ch=3 n=f5 v=62
52125 On ch=3 n=b5 v=62
52131 On ch=3 n=b5 v=0
52131 On ch=3 n=f5 v=0
52185 On ch=3 n=f#5 v=62
52185 On ch=3 n=a#5 v=62
52245 On ch=3 n=a#5 v=0
52245 On ch=3 n=f#5 v=0
59865 Par ch=3 c=64 v=0
59865 Meta TrkEnd
TrkEnd
MTrk
0 Meta 0x21 00
0 Meta TrkName "Instrument19"
0 PrCh ch=4 p=0
0 Par ch=4 c=7 v=127
0 Par ch=4 c=10 v=30
12300 On ch=4 n=c3 v=64
12360 On ch=4 n=c3 v=0
12420 On ch=4 n=c#3 v=64
12480 On ch=4 n=c#3 v=0
28065 On ch=4 n=g#4 v=64
28071 On ch=4 n=g#4 v=0
28185 On ch=4 n=g#4 v=64
28191 On ch=4 n=g#4 v=0
34545 Par ch=4 c=64 v=127
34545 On ch=4 n=c#4 v=75
34605 On ch=4 n=c#4 v=0
34605 On ch=4 n=d#5 v=75
34605 On ch=4 n=g#5 v=75
34665 On ch=4 n=g#5 v=0
34665 On ch=4 n=d#5 v=0
34665 Par ch=4 c=64 v=0
34665 On ch=4 n=c#4 v=75
34725 On ch=4 n=c#4 v=0
34725 On ch=4 n=b4 v=75
34725 On ch=4 n=f5 v=75
34785 On ch=4 n=f5 v=0
34785 On ch=4 n=b4 v=0
36705 Par ch=4 c=64 v=127
36705 On ch=4 n=c#4 v=75
36765 On ch=4 n=c#4 v=0
36765 On ch=4 n=d#5 v=75
36765 On ch=4 n=g#5 v=75
36825 On ch=4 n=g#5 v=0
36825 On ch=4 n=d#5 v=0
36825 On ch=4 n=c#4 v=75
36885 On ch=4 n=c#4 v=0
36885 Par ch=4 c=64 v=0
36885 On ch=4 n=b4 v=75
36885 On ch=4 n=f5 v=75
36945 On ch=4 n=f5 v=0
36945 On ch=4 n=b4 v=0
36945 Par ch=4 c=64 v=127
36945 On ch=4 n=c#4 v=75
37005 On ch=4 n=c#4 v=0
37005 On ch=4 n=a#4 v=75
37005 On ch=4 n=f#5 v=75
37065 On ch=4 n=f#5 v=0
37065 On ch=4 n=a#4 v=0
37065 On ch=4 n=c#4 v=75
37125 On ch=4 n=c#4 v=0
37125 Par ch=4 c=64 v=0
37125 On ch=4 n=a#4 v=75
37125 On ch=4 n=f#5 v=75
37185 On ch=4 n=f#5 v=0
37185 On ch=4 n=a#4 v=0
37185 Par ch=4 c=64 v=127
37185 On ch=4 n=c#4 v=88
37245 On ch=4 n=c#4 v=0
37245 On ch=4 n=a#4 v=88
37245 On ch=4 n=d#5 v=88
37305 On ch=4 n=d#5 v=0
37305 On ch=4 n=a#4 v=0
37305 Par ch=4 c=64 v=0
37305 On ch=4 n=c#4 v=88
37365 On ch=4 n=c#4 v=0
37365 On ch=4 n=f#4 v=88
37365 On ch=4 n=b4 v=88
37425 On ch=4 n=b4 v=0
37425 On ch=4 n=f#4 v=0
37425 Par ch=4 c=64 v=127
37425 On ch=4 n=c#3 v=88
37485 On ch=4 n=c#3 v=0
37485 On ch=4 n=d#4 v=88
37485 On ch=4 n=g#4 v=88
37545 On ch=4 n=g#4 v=0
37545 On ch=4 n=d#4 v=0
37545 Par ch=4 c=64 v=0
37545 On ch=4 n=c#3 v=88
37605 On ch=4 n=c#3 v=0
37605 On ch=4 n=b3 v=88
37605 On ch=4 n=f4 v=88
37665 On ch=4 n=f4 v=0
37665 On ch=4 n=b3 v=0
37665 Par ch=4 c=64 v=127
37665 On ch=4 n=a#3 v=127
37695 On ch=4 n=a#3 v=0
37725 On ch=4 n=c#4 v=114
37755 On ch=4 n=c#4 v=0
37785 On ch=4 n=f#3 v=127
37785 On ch=4 n=f#4 v=127
37815 On ch=4 n=f#4 v=0
37815 On ch=4 n=f#3 v=0
37845 Par ch=4 c=64 v=0
37845 On ch=4 n=a#3 v=114
37845 On ch=4 n=a#4 v=114
37875 On ch=4 n=a#4 v=0
37875 On ch=4 n=a#3 v=0
37905 Par ch=4 c=64 v=127
37905 On ch=4 n=d#3 v=127
37905 On ch=4 n=d#4 v=127
37935 On ch=4 n=d#4 v=0
37935 On ch=4 n=d#3 v=0
37965 On ch=4 n=f#3 v=114
37965 On ch=4 n=f#4 v=114
37995 On ch=4 n=f#4 v=0
37995 On ch=4 n=f#3 v=0
38025 On ch=4 n=b2 v=127
38025 On ch=4 n=b3 v=127
38055 On ch=4 n=b3 v=0
38055 On ch=4 n=b2 v=0
38085 Par ch=4 c=64 v=0
38085 On ch=4 n=d#3 v=114
38085 On ch=4 n=d#4 v=114
38115 On ch=4 n=d#4 v=0
38115 On ch=4 n=d#3 v=0
38145 Par ch=4 c=64 v=127
38145 On ch=4 n=g#2 v=127
38145 On ch=4 n=g#3 v=127
38175 On ch=4 n=g#3 v=0
38175 On ch=4 n=g#2 v=0
38175 On ch=4 n=g#4 v=114
38205 On ch=4 n=g#4 v=0
38205 On ch=4 n=b2 v=114
38205 On ch=4 n=b3 v=114
38235 On ch=4 n=b3 v=0
38235 On ch=4 n=b2 v=0
38235 On ch=4 n=b4 v=114
38265 On ch=4 n=b4 v=0
38265 On ch=4 n=f2 v=127
38265 On ch=4 n=f3 v=127
38295 On ch=4 n=f3 v=0
38295 On ch=4 n=f2 v=0
38295 On ch=4 n=f4 v=114
38325 On ch=4 n=f4 v=0
38325 On ch=4 n=g#2 v=114
38325 On ch=4 n=g#3 v=114
38355 On ch=4 n=g#3 v=0
38355 On ch=4 n=g#2 v=0
38355 On ch=4 n=g#4 v=114
38385 On ch=4 n=g#4 v=0
38385 On ch=4 n=b2 v=127
38385 On ch=4 n=b3 v=127
38415 On ch=4 n=b3 v=0
38415 On ch=4 n=b2 v=0
38415 On ch=4 n=b4 v=114
38445 On ch=4 n=b4 v=0
38445 On ch=4 n=d3 v=114
38445 On ch=4 n=d4 v=114
38475 On ch=4 n=d4 v=0
38475 On ch=4 n=d3 v=0
38475 On ch=4 n=d5 v=114
38505 On ch=4 n=d5 v=0
38505 On ch=4 n=f2 v=127
38505 On ch=4 n=f3 v=127
38535 On ch=4 n=f3 v=0
38535 On ch=4 n=f2 v=0
38535 On ch=4 n=f4 v=114
38565 On ch=4 n=f4 v=0
38565 On ch=4 n=g#2 v=114
38565 On ch=4 n=g#3 v=114
38595 On ch=4 n=g#3 v=0
38595 On ch=4 n=g#2 v=0
38595 Par ch=4 c=64 v=0
38595 On ch=4 n=g#4 v=114
38625 On ch=4 n=g#4 v=0
38625 Par ch=4 c=64 v=127
38625 On ch=4 n=d2 v=127
38625 On ch=4 n=d3 v=127
38745 On ch=4 n=d2 v=0
38760 On ch=4 n=d3 v=0
38760 On ch=4 n=f3 v=114
38775 On ch=4 n=f3 v=0
38775 On ch=4 n=g#3 v=114
38790 On ch=4 n=g#3 v=0
38790 On ch=4 n=b3 v=114
38805 On ch=4 n=b3 v=0
38805 On ch=4 n=d4 v=114
38820 On ch=4 n=d4 v=0
38820 On ch=4 n=f4 v=114
38835 On ch=4 n=f4 v=0
38835 On ch=4 n=g#4 v=114
38850 On ch=4 n=g#4 v=0
38850 On ch=4 n=b4 v=114
38865 On ch=4 n=b4 v=0
38865 On ch=4 n=d5 v=114
38880 On ch=4 n=d5 v=0
38880 On ch=4 n=b4 v=114
38895 On ch=4 n=b4 v=0
38895 On ch=4 n=g#4 v=114
38910 On ch=4 n=g#4 v=0
38910 On ch=4 n=f4 v=114
38925 On ch=4 n=f4 v=0
38925 On ch=4 n=d4 v=114
38940 On ch=4 n=d4 v=0
38940 On ch=4 n=b3 v=114
38955 On ch=4 n=b3 v=0
38955 On ch=4 n=g#3 v=114
38970 On ch=4 n=g#3 v=0
38970 On ch=4 n=f3 v=114
38985 On ch=4 n=f3 v=0
38985 On ch=4 n=d3 v=127
38985 On ch=4 n=d4 v=127
38991 On ch=4 n=d4 v=0
38991 On ch=4 n=d3 v=0
39045 Par ch=4 c=64 v=0
39105 Par ch=4 c=64 v=127
39105 On ch=4 n=c#3 v=127
39105 On ch=4 n=g#3 v=127
39105 On ch=4 n=c#4 v=127
39111 On ch=4 n=c#4 v=0
39111 On ch=4 n=g#3 v=0
39111 On ch=4 n=c#3 v=0
39165 Par ch=4 c=64 v=0
39225 Par ch=4 c=64 v=127
39225 On ch=4 n=f#2 v=101
39225 On ch=4 n=f#3 v=101
39231 On ch=4 n=f#3 v=0
39231 On ch=4 n=f#2 v=0
39285 On ch=4 n=c#4 v=101
39285 On ch=4 n=f#4 v=101
39285 On ch=4 n=c#5 v=101
39345 On ch=4 n=c#5 v=0
39345 On ch=4 n=f#4 v=0
39345 On ch=4 n=c#4 v=0
39345 On ch=4 n=c#4 v=101
39345 On ch=4 n=f#4 v=101
39345 On ch=4 n=c#5 v=101
39405 On ch=4 n=c#5 v=0
39405 On ch=4 n=f#4 v=0
39405 On ch=4 n=c#4 v=0
39405 Par ch=4 c=64 v=0
39405 On ch=4 n=d#4 v=101
39405 On ch=4 n=f#4 v=101
39405 On ch=4 n=d#5 v=101
39465 On ch=4 n=d#5 v=0
39465 On ch=4 n=f#4 v=0
39465 On ch=4 n=d#4 v=0
39465 On ch=4 n=f#3 v=101
39525 On ch=4 n=f#3 v=0
39525 On ch=4 n=c#4 v=101
39525 On ch=4 n=f#4 v=101
39525 On ch=4 n=c#5 v=101
39585 On ch=4 n=c#5 v=0
39585 On ch=4 n=f#4 v=0
39585 On ch=4 n=c#4 v=0
39585 On ch=4 n=f#3 v=101
39645 On ch=4 n=f#3 v=0
39645 On ch=4 n=d#4 v=101
39645 On ch=4 n=f#4 v=101
39645 On ch=4 n=d#5 v=101
39705 On ch=4 n=d#5 v=0
39705 On ch=4 n=f#4 v=0
39705 On ch=4 n=d#4 v=0
39705 On ch=4 n=f#3 v=101
39765 On ch=4 n=f#3 v=0
39765 On ch=4 n=c#4 v=101
39765 On ch=4 n=f#4 v=101
39765 On ch=4 n=c#5 v=101
39825 On ch=4 n=c#5 v=0
39825 On ch=4 n=f#4 v=0
39825 On ch=4 n=c#4 v=0
39825 On ch=4 n=c#4 v=101
39825 On ch=4 n=f#4 v=101
39825 On ch=4 n=c#5 v=101
39885 On ch=4 n=c#5 v=0
39885 On ch=4 n=f#4 v=0
39885 On ch=4 n=c#4 v=0
39945 Par ch=4 c=64 v=127
39945 On ch=4 n=f#2 v=101
39945 On ch=4 n=f#3 v=101
39951 On ch=4 n=f#3 v=0
39951 On ch=4 n=f#2 v=0
40005 On ch=4 n=c#4 v=101
40005 On ch=4 n=f#4 v=101
40005 On ch=4 n=c#5 v=101
40065 On ch=4 n=c#5 v=0
40065 On ch=4 n=f#4 v=0
40065 On ch=4 n=c#4 v=0
40065 On ch=4 n=c#4 v=101
40065 On ch=4 n=f#4 v=101
40065 On ch=4 n=c#5 v=101
40125 On ch=4 n=c#5 v=0
40125 On ch=4 n=f#4 v=0
40125 On ch=4 n=c#4 v=0
40125 Par ch=4 c=64 v=0
40125 On ch=4 n=d#4 v=101
40125 On ch=4 n=f#4 v=101
40125 On ch=4 n=d#5 v=101
40185 On ch=4 n=d#5 v=0
40185 On ch=4 n=f#4 v=0
40185 On ch=4 n=d#4 v=0
40185 On ch=4 n=f#3 v=101
40245 On ch=4 n=f#3 v=0
40245 On ch=4 n=c#4 v=101
40245 On ch=4 n=f#4 v=101
40245 On ch=4 n=c#5 v=101
40305 On ch=4 n=c#5 v=0
40305 On ch=4 n=f#4 v=0
40305 On ch=4 n=c#4 v=0
40305 On ch=4 n=c#3 v=101
40365 On ch=4 n=c#3 v=0
40365 On ch=4 n=c#4 v=101
40365 On ch=4 n=g#4 v=101
40365 On ch=4 n=c#5 v=101
40425 On ch=4 n=c#5 v=0
40425 On ch=4 n=g#4 v=0
40425 On ch=4 n=c#4 v=0
40425 On ch=4 n=f#3 v=101
40485 On ch=4 n=f#3 v=0
40485 On ch=4 n=c#4 v=101
40485 On ch=4 n=f#4 v=101
40485 On ch=4 n=c#5 v=101
40545 On ch=4 n=c#5 v=0
40545 On ch=4 n=f#4 v=0
40545 On ch=4 n=c#4 v=0
40545 On ch=4 n=c#4 v=101
40545 On ch=4 n=f#4 v=101
40545 On ch=4 n=c#5 v=101
40605 On ch=4 n=c#5 v=0
40605 On ch=4 n=f#4 v=0
40605 On ch=4 n=c#4 v=0
40665 Par ch=4 c=64 v=127
40665 On ch=4 n=f#2 v=101
40665 On ch=4 n=f#3 v=101
40671 On ch=4 n=f#3 v=0
40671 On ch=4 n=f#2 v=0
40725 On ch=4 n=c#4 v=101
40725 On ch=4 n=f#4 v=101
40725 On ch=4 n=c#5 v=101
40785 On ch=4 n=c#5 v=0
40785 On ch=4 n=f#4 v=0
40785 On ch=4 n=c#4 v=0
40785 On ch=4 n=c#4 v=101
40785 On ch=4 n=f#4 v=101
40785 On ch=4 n=c#5 v=101
40845 On ch=4 n=c#5 v=0
40845 On ch=4 n=f#4 v=0
40845 On ch=4 n=c#4 v=0
40845 Par ch=4 c=64 v=0
40845 On ch=4 n=d#4 v=101
40845 On ch=4 n=f#4 v=101
40845 On ch=4 n=d#5 v=101
40905 On ch=4 n=d#5 v=0
40905 On ch=4 n=f#4 v=0
40905 On ch=4 n=d#4 v=0
40905 On ch=4 n=f#3 v=101
40965 On ch=4 n=f#3 v=0
40965 On ch=4 n=c#4 v=101
40965 On ch=4 n=f#4 v=101
40965 On ch=4 n=c#5 v=101
41025 On ch=4 n=c#5 v=0
41025 On ch=4 n=f#4 v=0
41025 On ch=4 n=c#4 v=0
41025 On ch=4 n=f#3 v=101
41085 On ch=4 n=f#3 v=0
41085 On ch=4 n=d#4 v=101
41085 On ch=4 n=f#4 v=101
41085 On ch=4 n=d#5 v=101
41145 On ch=4 n=d#5 v=0
41145 On ch=4 n=f#4 v=0
41145 On ch=4 n=d#4 v=0
41145 On ch=4 n=f#3 v=101
41205 On ch=4 n=f#3 v=0
41205 On ch=4 n=c#4 v=101
41205 On ch=4 n=f#4 v=101
41205 On ch=4 n=c#5 v=101
41265 On ch=4 n=c#5 v=0
41265 On ch=4 n=f#4 v=0
41265 On ch=4 n=c#4 v=0
41265 On ch=4 n=c#4 v=101
41265 On ch=4 n=f#4 v=101
41265 On ch=4 n=c#5 v=101
41325 On ch=4 n=c#5 v=0
41325 On ch=4 n=f#4 v=0
41325 On ch=4 n=c#4 v=0
41385 Par ch=4 c=64 v=127
41385 On ch=4 n=f#2 v=101
41385 On ch=4 n=f#3 v=101
41391 On ch=4 n=f#3 v=0
41391 On ch=4 n=f#2 v=0
41445 On ch=4 n=c#4 v=101
41445 On ch=4 n=f#4 v=101
41445 On ch=4 n=c#5 v=101
41505 On ch=4 n=c#5 v=0
41505 On ch=4 n=f#4 v=0
41505 On ch=4 n=c#4 v=0
41505 On ch=4 n=c#4 v=101
41505 On ch=4 n=f#4 v=101
41505 On ch=4 n=c#5 v=101
41565 On ch=4 n=c#5 v=0
41565 On ch=4 n=f#4 v=0
41565 On ch=4 n=c#4 v=0
41565 Par ch=4 c=64 v=0
41565 On ch=4 n=d#4 v=101
41565 On ch=4 n=f#4 v=101
41565 On ch=4 n=d#5 v=101
41625 On ch=4 n=d#5 v=0
41625 On ch=4 n=f#4 v=0
41625 On ch=4 n=d#4 v=0
41625 On ch=4 n=f#3 v=101
41685 On ch=4 n=f#3 v=0
41685 On ch=4 n=c#4 v=101
41685 On ch=4 n=f#4 v=101
41685 On ch=4 n=c#5 v=101
41745 On ch=4 n=c#5 v=0
41745 On ch=4 n=f#4 v=0
41745 On ch=4 n=c#4 v=0
41745 On ch=4 n=c#3 v=101
41805 On ch=4 n=c#3 v=0
41805 On ch=4 n=c#4 v=101
41805 On ch=4 n=g#4 v=101
41805 On ch=4 n=c#5 v=101
41865 On ch=4 n=c#5 v=0
41865 On ch=4 n=g#4 v=0
41865 On ch=4 n=c#4 v=0
41865 On ch=4 n=f#3 v=101
41925 On ch=4 n=f#3 v=0
41925 On ch=4 n=c#4 v=101
41925 On ch=4 n=f#4 v=101
41925 On ch=4 n=c#5 v=101
41985 On ch=4 n=c#5 v=0
41985 On ch=4 n=f#4 v=0
41985 On ch=4 n=c#4 v=0
41985 On ch=4 n=c#4 v=101
41985 On ch=4 n=f#4 v=101
41985 On ch=4 n=c#5 v=101
42045 On ch=4 n=c#5 v=0
42045 On ch=4 n=f#4 v=0
42045 On ch=4 n=c#4 v=0
42060 On ch=4 n=c#3 v=101
42075 On ch=4 n=c#3 v=0
42075 On ch=4 n=d#3 v=101
42090 On ch=4 n=d#3 v=0
42090 On ch=4 n=f3 v=101
42105 On ch=4 n=f3 v=0
42105 On ch=4 n=f#3 v=101
42165 On ch=4 n=f#3 v=0
42225 On ch=4 n=f#3 v=101
42225 On ch=4 n=f#4 v=101
42231 On ch=4 n=f#4 v=0
42231 On ch=4 n=f#3 v=0
42285 On ch=4 n=e3 v=101
42285 On ch=4 n=e4 v=101
42291 On ch=4 n=e4 v=0
42291 On ch=4 n=e3 v=0
42345 On ch=4 n=d3 v=101
42345 On ch=4 n=b3 v=101
42345 On ch=4 n=d4 v=101
42351 On ch=4 n=d4 v=0
42351 On ch=4 n=b3 v=0
42351 On ch=4 n=d3 v=0
42405 On ch=4 n=a3 v=101
42411 On ch=4 n=a3 v=0
42465 On ch=4 n=c#3 v=101
42465 On ch=4 n=a3 v=101
42465 On ch=4 n=c#4 v=101
42471 On ch=4 n=c#4 v=0
42471 On ch=4 n=a3 v=0
42471 On ch=4 n=c#3 v=0
42525 On ch=4 n=g#3 v=101
42531 On ch=4 n=g#3 v=0
42585 Par ch=4 c=64 v=127
42585 On ch=4 n=c3 v=101
42585 On ch=4 n=g#3 v=101
42585 On ch=4 n=c4 v=101
42591 On ch=4 n=c4 v=0
42591 On ch=4 n=g#3 v=0
42591 On ch=4 n=c3 v=0
42645 On ch=4 n=c3 v=101
42645 On ch=4 n=g#3 v=101
42645 On ch=4 n=c4 v=101
42651 On ch=4 n=c4 v=0
42651 On ch=4 n=g#3 v=0
42651 On ch=4 n=c3 v=0
42705 On ch=4 n=c3 v=101
42705 On ch=4 n=g#3 v=101
42705 On ch=4 n=c4 v=101
42711 On ch=4 n=c4 v=0
42711 On ch=4 n=g#3 v=0
42711 On ch=4 n=c3 v=0
42765 Par ch=4 c=64 v=0
43020 On ch=4 n=c#3 v=101
43035 On ch=4 n=c#3 v=0
43035 On ch=4 n=d#3 v=101
43050 On ch=4 n=d#3 v=0
43050 On ch=4 n=f3 v=101
43065 On ch=4 n=f3 v=0
43065 On ch=4 n=f#3 v=88
43125 On ch=4 n=f#3 v=0
43185 On ch=4 n=f#3 v=88
43185 On ch=4 n=f#4 v=88
43191 On ch=4 n=f#4 v=0
43191 On ch=4 n=f#3 v=0
43245 On ch=4 n=e3 v=88
43245 On ch=4 n=e4 v=88
43251 On ch=4 n=e4 v=0
43251 On ch=4 n=e3 v=0
43305 On ch=4 n=d3 v=88
43305 On ch=4 n=b3 v=88
43305 On ch=4 n=d4 v=88
43311 On ch=4 n=d4 v=0
43311 On ch=4 n=b3 v=0
43311 On ch=4 n=d3 v=0
43365 On ch=4 n=a3 v=88
43371 On ch=4 n=a3 v=0
43425 On ch=4 n=c#3 v=88
43425 On ch=4 n=a3 v=88
43425 On ch=4 n=c#4 v=88
43431 On ch=4 n=c#4 v=0
43431 On ch=4 n=a3 v=0
43431 On ch=4 n=c#3 v=0
43485 On ch=4 n=g#3 v=88
43491 On ch=4 n=g#3 v=0
43545 Par ch=4 c=64 v=127
43545 On ch=4 n=f#3 v=101
43545 On ch=4 n=a#3 v=101
43545 On ch=4 n=c#4 v=101
43605 On ch=4 n=c#4 v=0
43605 On ch=4 n=a#3 v=0
43605 On ch=4 n=f#3 v=0
43605 On ch=4 n=f#3 v=101
43605 On ch=4 n=a#3 v=101
43605 On ch=4 n=c#4 v=101
43665 On ch=4 n=c#4 v=0
43665 On ch=4 n=a#3 v=0
43665 On ch=4 n=f#3 v=0
43665 On ch=4 n=f#3 v=101
43665 On ch=4 n=a#3 v=101
43665 On ch=4 n=c#4 v=101
43725 On ch=4 n=c#4 v=0
43725 On ch=4 n=a#3 v=0
43725 On ch=4 n=f#3 v=0
43725 Par ch=4 c=64 v=0
43980 On ch=4 n=c#4 v=101
43995 On ch=4 n=c#4 v=0
43995 On ch=4 n=d#4 v=101
44010 On ch=4 n=d#4 v=0
44010 On ch=4 n=f4 v=101
44025 On ch=4 n=f4 v=0
44025 On ch=4 n=f#3 v=88
44025 On ch=4 n=f#4 v=88
44031 On ch=4 n=f#4 v=0
44031 On ch=4 n=f#3 v=0
44145 On ch=4 n=f#4 v=88
44145 On ch=4 n=f#5 v=88
44151 On ch=4 n=f#5 v=0
44151 On ch=4 n=f#4 v=0
44205 On ch=4 n=e4 v=88
44205 On ch=4 n=e5 v=88
44211 On ch=4 n=e5 v=0
44211 On ch=4 n=e4 v=0
44265 On ch=4 n=d4 v=88
44265 On ch=4 n=b4 v=88
44265 On ch=4 n=d5 v=88
44271 On ch=4 n=d5 v=0
44271 On ch=4 n=b4 v=0
44271 On ch=4 n=d4 v=0
44325 On ch=4 n=a4 v=88
44331 On ch=4 n=a4 v=0
44385 On ch=4 n=c#4 v=88
44385 On ch=4 n=a4 v=88
44385 On ch=4 n=c#5 v=88
44391 On ch=4 n=c#5 v=0
44391 On ch=4 n=a4 v=0
44391 On ch=4 n=c#4 v=0
44445 On ch=4 n=g#4 v=88
44451 On ch=4 n=g#4 v=0
44505 Par ch=4 c=64 v=127
44505 On ch=4 n=c4 v=101
44505 On ch=4 n=g#4 v=101
44505 On ch=4 n=c5 v=101
44511 On ch=4 n=c5 v=0
44511 On ch=4 n=g#4 v=0
44511 On ch=4 n=c4 v=0
44565 On ch=4 n=c4 v=101
44565 On ch=4 n=g#4 v=101
44565 On ch=4 n=c5 v=101
44571 On ch=4 n=c5 v=0
44571 On ch=4 n=g#4 v=0
44571 On ch=4 n=c4 v=0
44625 On ch=4 n=c4 v=101
44625 On ch=4 n=g#4 v=101
44625 On ch=4 n=c5 v=101
44631 On ch=4 n=c5 v=0
44631 On ch=4 n=g#4 v=0
44631 On ch=4 n=c4 v=0
44685 Par ch=4 c=64 v=0
44940 On ch=4 n=c#4 v=101
44955 On ch=4 n=c#4 v=0
44955 On ch=4 n=d#4 v=101
44970 On ch=4 n=d#4 v=0
44970 On ch=4 n=f4 v=101
44985 On ch=4 n=f4 v=0
44985 On ch=4 n=f#3 v=88
44985 On ch=4 n=f#4 v=88
44991 On ch=4 n=f#4 v=0
44991 On ch=4 n=f#3 v=0
45105 On ch=4 n=f#4 v=88
45105 On ch=4 n=f#5 v=88
45111 On ch=4 n=f#5 v=0
45111 On ch=4 n=f#4 v=0
45165 On ch=4 n=e4 v=88
45165 On ch=4 n=e5 v=88
45171 On ch=4 n=e5 v=0
45171 On ch=4 n=e4 v=0
45225 On ch=4 n=d4 v=88
45225 On ch=4 n=b4 v=88
45225 On ch=4 n=d5 v=88
45231 On ch=4 n=d5 v=0
45231 On ch=4 n=b4 v=0
45231 On ch=4 n=d4 v=0
45285 On ch=4 n=a4 v=88
45291 On ch=4 n=a4 v=0
45345 On ch=4 n=c#4 v=88
45345 On ch=4 n=a4 v=88
45345 On ch=4 n=c#5 v=88
45351 On ch=4 n=c#5 v=0
45351 On ch=4 n=a4 v=0
45351 On ch=4 n=c#4 v=0
45405 On ch=4 n=g#4 v=88
45411 On ch=4 n=g#4 v=0
45465 Par ch=4 c=64 v=127
45465 On ch=4 n=f#4 v=101
45465 On ch=4 n=a#4 v=101
45465 On ch=4 n=c#5 v=101
45471 On ch=4 n=c#5 v=0
45471 On ch=4 n=a#4 v=0
45471 On ch=4 n=f#4 v=0
45525 On ch=4 n=f#4 v=101
45525 On ch=4 n=a#4 v=101
45525 On ch=4 n=c#5 v=101
45531 On ch=4 n=c#5 v=0
45531 On ch=4 n=a#4 v=0
45531 On ch=4 n=f#4 v=0
45585 On ch=4 n=f#4 v=101
45585 On ch=4 n=a#4 v=101
45585 On ch=4 n=c#5 v=101
45591 On ch=4 n=c#5 v=0
45591 On ch=4 n=a#4 v=0
45591 On ch=4 n=f#4 v=0
45645 Par ch=4 c=64 v=0
45945 Par ch=4 c=64 v=127
45945 On ch=4 n=f#2 v=101
45945 On ch=4 n=f#3 v=101
46005 On ch=4 n=f#3 v=0
46005 On ch=4 n=f#2 v=0
46005 On ch=4 n=c#4 v=101
46005 On ch=4 n=f#4 v=101
46005 On ch=4 n=c#5 v=101
46065 On ch=4 n=c#5 v=0
46065 On ch=4 n=f#4 v=0
46065 On ch=4 n=c#4 v=0
46065 On ch=4 n=c#4 v=101
46065 On ch=4 n=f#4 v=101
46065 On ch=4 n=c#5 v=101
46125 On ch=4 n=c#5 v=0
46125 On ch=4 n=f#4 v=0
46125 On ch=4 n=c#4 v=0
46125 Par ch=4 c=64 v=0
46125 On ch=4 n=d#4 v=101
46125 On ch=4 n=f#4 v=101
46125 On ch=4 n=d#5 v=101
46185 On ch=4 n=d#5 v=0
46185 On ch=4 n=f#4 v=0
46185 On ch=4 n=d#4 v=0
46185 On ch=4 n=f#3 v=101
46245 On ch=4 n=f#3 v=0
46245 On ch=4 n=c#4 v=101
46245 On ch=4 n=f#4 v=101
46245 On ch=4 n=c#5 v=101
46305 On ch=4 n=c#5 v=0
46305 On ch=4 n=f#4 v=0
46305 On ch=4 n=c#4 v=0
46305 On ch=4 n=f#3 v=101
46365 On ch=4 n=f#3 v=0
46365 On ch=4 n=d#4 v=101
46365 On ch=4 n=f#4 v=101
46365 On ch=4 n=d#5 v=101
46425 On ch=4 n=d#5 v=0
46425 On ch=4 n=f#4 v=0
46425 On ch=4 n=d#4 v=0
46425 On ch=4 n=f#3 v=101
46485 On ch=4 n=f#3 v=0
46485 On ch=4 n=c#4 v=101
46485 On ch=4 n=f#4 v=101
46485 On ch=4 n=c#5 v=101
46545 On ch=4 n=c#5 v=0
46545 On ch=4 n=f#4 v=0
46545 On ch=4 n=c#4 v=0
46545 On ch=4 n=c#4 v=101
46545 On ch=4 n=f#4 v=101
46545 On ch=4 n=c#5 v=101
46605 On ch=4 n=c#5 v=0
46605 On ch=4 n=f#4 v=0
46605 On ch=4 n=c#4 v=0
46665 Par ch=4 c=64 v=127
46665 On ch=4 n=f#2 v=101
46665 On ch=4 n=f#3 v=101
46725 On ch=4 n=f#3 v=0
46725 On ch=4 n=f#2 v=0
46725 On ch=4 n=c#4 v=101
46725 On ch=4 n=f#4 v=101
46725 On ch=4 n=c#5 v=101
46785 On ch=4 n=c#5 v=0
46785 On ch=4 n=f#4 v=0
46785 On ch=4 n=c#4 v=0
46785 On ch=4 n=c#4 v=101
46785 On ch=4 n=f#4 v=101
46785 On ch=4 n=c#5 v=101
46845 On ch=4 n=c#5 v=0
46845 On ch=4 n=f#4 v=0
46845 On ch=4 n=c#4 v=0
46845 Par ch=4 c=64 v=0
46845 On ch=4 n=d#4 v=101
46845 On ch=4 n=f#4 v=101
46845 On ch=4 n=d#5 v=101
46905 On ch=4 n=d#5 v=0
46905 On ch=4 n=f#4 v=0
46905 On ch=4 n=d#4 v=0
46905 On ch=4 n=f#3 v=101
46965 On ch=4 n=f#3 v=0
46965 On ch=4 n=c#4 v=101
46965 On ch=4 n=f#4 v=101
46965 On ch=4 n=c#5 v=101
47025 On ch=4 n=c#5 v=0
47025 On ch=4 n=f#4 v=0
47025 On ch=4 n=c#4 v=0
47025 On ch=4 n=c#3 v=101
47085 On ch=4 n=c#3 v=0
47085 On ch=4 n=c#4 v=101
47085 On ch=4 n=g#4 v=101
47085 On ch=4 n=c#5 v=101
47145 On ch=4 n=c#5 v=0
47145 On ch=4 n=g#4 v=0
47145 On ch=4 n=c#4 v=0
47145 On ch=4 n=f#3 v=101
47205 On ch=4 n=f#3 v=0
47205 On ch=4 n=c#4 v=101
47205 On ch=4 n=f#4 v=101
47205 On ch=4 n=c#5 v=101
47265 On ch=4 n=c#5 v=0
47265 On ch=4 n=f#4 v=0
47265 On ch=4 n=c#4 v=0
47265 On ch=4 n=c#4 v=101
47265 On ch=4 n=f#4 v=101
47265 On ch=4 n=c#5 v=101
47325 On ch=4 n=c#5 v=0
47325 On ch=4 n=f#4 v=0
47325 On ch=4 n=c#4 v=0
47385 Par ch=4 c=64 v=127
47385 On ch=4 n=f#2 v=101
47385 On ch=4 n=f#3 v=101
47445 On ch=4 n=f#3 v=0
47445 On ch=4 n=f#2 v=0
47445 On ch=4 n=c#4 v=101
47445 On ch=4 n=f#4 v=101
47445 On ch=4 n=c#5 v=101
47505 On ch=4 n=c#5 v=0
47505 On ch=4 n=f#4 v=0
47505 On ch=4 n=c#4 v=0
47505 On ch=4 n=c#4 v=101
47505 On ch=4 n=f#4 v=101
47505 On ch=4 n=c#5 v=101
47565 On ch=4 n=c#5 v=0
47565 On ch=4 n=f#4 v=0
47565 On ch=4 n=c#4 v=0
47565 Par ch=4 c=64 v=0
47565 On ch=4 n=d#4 v=101
47565 On ch=4 n=f#4 v=101
47565 On ch=4 n=d#5 v=101
47625 On ch=4 n=d#5 v=0
47625 On ch=4 n=f#4 v=0
47625 On ch=4 n=d#4 v=0
47625 On ch=4 n=f#3 v=101
47685 On ch=4 n=f#3 v=0
47685 On ch=4 n=c#4 v=101
47685 On ch=4 n=f#4 v=101
47685 On ch=4 n=c#5 v=101
47745 On ch=4 n=c#5 v=0
47745 On ch=4 n=f#4 v=0
47745 On ch=4 n=c#4 v=0
47745 On ch=4 n=f#3 v=101
47805 On ch=4 n=f#3 v=0
47805 On ch=4 n=d#4 v=101
47805 On ch=4 n=f#4 v=101
47805 On ch=4 n=d#5 v=101
47865 On ch=4 n=d#5 v=0
47865 On ch=4 n=f#4 v=0
47865 On ch=4 n=d#4 v=0
47865 On ch=4 n=f#3 v=101
47925 On ch=4 n=f#3 v=0
47925 On ch=4 n=c#4 v=101
47925 On ch=4 n=f#4 v=101
47925 On ch=4 n=c#5 v=101
47985 On ch=4 n=c#5 v=0
47985 On ch=4 n=f#4 v=0
47985 On ch=4 n=c#4 v=0
47985 On ch=4 n=c#4 v=101
47985 On ch=4 n=f#4 v=101
47985 On ch=4 n=c#5 v=101
48045 On ch=4 n=c#5 v=0
48045 On ch=4 n=f#4 v=0
48045 On ch=4 n=c#4 v=0
48105 Par ch=4 c=64 v=127
48105 On ch=4 n=f#2 v=101
48105 On ch=4 n=f#3 v=101
48165 On ch=4 n=f#3 v=0
48165 On ch=4 n=f#2 v=0
48165 On ch=4 n=c#4 v=101
48165 On ch=4 n=f#4 v=101
48165 On ch=4 n=c#5 v=101
48225 On ch=4 n=c#5 v=0
48225 On ch=4 n=f#4 v=0
48225 On ch=4 n=c#4 v=0
48225 On ch=4 n=c#4 v=101
48225 On ch=4 n=f#4 v=101
48225 On ch=4 n=c#5 v=101
48285 On ch=4 n=c#5 v=0
48285 On ch=4 n=f#4 v=0
48285 On ch=4 n=c#4 v=0
48285 Par ch=4 c=64 v=0
48285 On ch=4 n=d#4 v=101
48285 On ch=4 n=f#4 v=101
48285 On ch=4 n=d#5 v=101
48345 On ch=4 n=d#5 v=0
48345 On ch=4 n=f#4 v=0
48345 On ch=4 n=d#4 v=0
48345 On ch=4 n=f#3 v=101
48405 On ch=4 n=f#3 v=0
48405 On ch=4 n=c#4 v=101
48405 On ch=4 n=f#4 v=101
48405 On ch=4 n=c#5 v=101
48465 On ch=4 n=c#5 v=0
48465 On ch=4 n=f#4 v=0
48465 On ch=4 n=c#4 v=0
48465 On ch=4 n=c#3 v=101
48525 On ch=4 n=c#3 v=0
48525 On ch=4 n=c#4 v=101
48525 On ch=4 n=g#4 v=101
48525 On ch=4 n=c#5 v=101
48585 On ch=4 n=c#5 v=0
48585 On ch=4 n=g#4 v=0
48585 On ch=4 n=c#4 v=0
48585 On ch=4 n=f#3 v=101
48645 On ch=4 n=f#3 v=0
48645 On ch=4 n=c#4 v=101
48645 On ch=4 n=f#4 v=101
48645 On ch=4 n=c#5 v=101
48705 On ch=4 n=c#5 v=0
48705 On ch=4 n=f#4 v=0
48705 On ch=4 n=c#4 v=0
48705 On ch=4 n=c#4 v=101
48705 On ch=4 n=f#4 v=101
48705 On ch=4 n=c#5 v=101
48765 On ch=4 n=c#5 v=0
48765 On ch=4 n=f#4 v=0
48765 On ch=4 n=c#4 v=0
53145 Par ch=4 c=64 v=127
53145 On ch=4 n=f#2 v=119
53145 On ch=4 n=f#3 v=127
53151 On ch=4 n=f#3 v=0
53151 On ch=4 n=f#2 v=0
53205 On ch=4 n=a#4 v=101
53205 On ch=4 n=a#5 v=101
53211 On ch=4 n=a#5 v=0
53211 On ch=4 n=a#4 v=0
53265 On ch=4 n=f#4 v=101
53265 On ch=4 n=f#5 v=101
53269 On ch=4 n=f#5 v=0
53269 On ch=4 n=f#4 v=0
53325 On ch=4 n=d#4 v=101
53325 On ch=4 n=d#5 v=101
53331 On ch=4 n=d#5 v=0
53331 On ch=4 n=d#4 v=0
53385 On ch=4 n=c#4 v=101
53385 On ch=4 n=c#5 v=101
53391 On ch=4 n=c#5 v=0
53391 On ch=4 n=c#4 v=0
53445 On ch=4 n=a#3 v=101
53445 On ch=4 n=a#4 v=101
53451 On ch=4 n=a#4 v=0
53451 On ch=4 n=a#3 v=0
53505 Par ch=4 c=64 v=0
53505 On ch=4 n=f#3 v=101
53505 On ch=4 n=f#4 v=101
53511 On ch=4 n=f#4 v=0
53511 On ch=4 n=f#3 v=0
53565 On ch=4 n=d#4 v=101
53565 On ch=4 n=d#5 v=101
53571 On ch=4 n=d#5 v=0
53571 On ch=4 n=d#4 v=0
53625 Par ch=4 c=64 v=127
53625 On ch=4 n=c#4 v=101
53625 On ch=4 n=c#5 v=101
53631 On ch=4 n=c#5 v=0
53631 On ch=4 n=c#4 v=0
53685 On ch=4 n=a#3 v=101
53685 On ch=4 n=a#4 v=101
53691 On ch=4 n=a#4 v=0
53691 On ch=4 n=a#3 v=0
53745 On ch=4 n=f#3 v=101
53745 On ch=4 n=f#4 v=101
53751 On ch=4 n=f#4 v=0
53751 On ch=4 n=f#3 v=0
53805 Par ch=4 c=64 v=0
53865 Par ch=4 c=64 v=127
53865 On ch=4 n=f#2 v=119
53865 On ch=4 n=f#3 v=127
53871 On ch=4 n=f#3 v=0
53871 On ch=4 n=f#2 v=0
53925 On ch=4 n=a#4 v=101
53925 On ch=4 n=a#5 v=101
53931 On ch=4 n=a#5 v=0
53931 On ch=4 n=a#4 v=0
53985 On ch=4 n=f#4 v=101
53985 On ch=4 n=f#5 v=101
53991 On ch=4 n=f#5 v=0
53991 On ch=4 n=f#4 v=0
54045 Par ch=4 c=64 v=0
54045 On ch=4 n=d#4 v=101
54045 On ch=4 n=d#5 v=101
54051 On ch=4 n=d#5 v=0
54051 On ch=4 n=d#4 v=0
54105 Par ch=4 c=64 v=127
54105 On ch=4 n=c#4 v=101
54105 On ch=4 n=c#5 v=101
54111 On ch=4 n=c#5 v=0
54111 On ch=4 n=c#4 v=0
54165 On ch=4 n=a#3 v=101
54165 On ch=4 n=a#4 v=101
54171 On ch=4 n=a#4 v=0
54171 On ch=4 n=a#3 v=0
54225 Par ch=4 c=64 v=0
54225 On ch=4 n=g#3 v=101
54225 On ch=4 n=g#4 v=101
54231 On ch=4 n=g#4 v=0
54231 On ch=4 n=g#3 v=0
54285 On ch=4 n=c#3 v=101
54285 On ch=4 n=c#4 v=101
54291 On ch=4 n=c#4 v=0
54291 On ch=4 n=c#3 v=0
54345 Par ch=4 c=64 v=127
54345 On ch=4 n=f#3 v=101
54345 On ch=4 n=f#4 v=101
54351 On ch=4 n=f#4 v=0
54351 On ch=4 n=f#3 v=0
54405 On ch=4 n=c#3 v=101
54405 On ch=4 n=c#4 v=101
54411 On ch=4 n=c#4 v=0
54411 On ch=4 n=c#3 v=0
54465 On ch=4 n=f#3 v=101
54465 On ch=4 n=f#4 v=101
54471 On ch=4 n=f#4 v=0
54471 On ch=4 n=f#3 v=0
54525 Par ch=4 c=64 v=0
54585 Par ch=4 c=64 v=127
54585 On ch=4 n=f#2 v=119
54585 On ch=4 n=f#3 v=127
54591 On ch=4 n=f#3 v=0
54591 On ch=4 n=f#2 v=0
54645 On ch=4 n=a#4 v=101
54645 On ch=4 n=a#5 v=101
54651 On ch=4 n=a#5 v=0
54651 On ch=4 n=a#4 v=0
54705 On ch=4 n=f#4 v=101
54705 On ch=4 n=f#5 v=101
54711 On ch=4 n=f#5 v=0
54711 On ch=4 n=f#4 v=0
54765 On ch=4 n=d#4 v=101
54765 On ch=4 n=d#5 v=101
54771 On ch=4 n=d#5 v=0
54771 On ch=4 n=d#4 v=0
54825 On ch=4 n=c#4 v=101
54825 On ch=4 n=c#5 v=101
54831 On ch=4 n=c#5 v=0
54831 On ch=4 n=c#4 v=0
54885 On ch=4 n=a#3 v=101
54885 On ch=4 n=a#4 v=101
54891 On ch=4 n=a#4 v=0
54891 On ch=4 n=a#3 v=0
54945 Par ch=4 c=64 v=0
54945 On ch=4 n=f#3 v=101
54945 On ch=4 n=f#4 v=101
54951 On ch=4 n=f#4 v=0
54951 On ch=4 n=f#3 v=0
55005 On ch=4 n=d#4 v=101
55005 On ch=4 n=d#5 v=101
55011 On ch=4 n=d#5 v=0
55011 On ch=4 n=d#4 v=0
55065 Par ch=4 c=64 v=127
55065 On ch=4 n=c#4 v=101
55065 On ch=4 n=c#5 v=101
55071 On ch=4 n=c#5 v=0
55071 On ch=4 n=c#4 v=0
55125 On ch=4 n=a#3 v=101
55125 On ch=4 n=a#4 v=101
55131 On ch=4 n=a#4 v=0
55131 On ch=4 n=a#3 v=0
55185 On ch=4 n=f#3 v=101
55185 On ch=4 n=f#4 v=101
55191 On ch=4 n=f#4 v=0
55191 On ch=4 n=f#3 v=0
55245 Par ch=4 c=64 v=0
55305 Par ch=4 c=64 v=127
55305 On ch=4 n=f#2 v=119
55305 On ch=4 n=f#3 v=127
55311 On ch=4 n=f#3 v=0
55311 On ch=4 n=f#2 v=0
55365 On ch=4 n=a#4 v=101
55365 On ch=4 n=a#5 v=101
55371 On ch=4 n=a#5 v=0
55371 On ch=4 n=a#4 v=0
55425 On ch=4 n=f#4 v=101
55425 On ch=4 n=f#5 v=101
55431 On ch=4 n=f#5 v=0
55431 On ch=4 n=f#4 v=0
55485 On ch=4 n=d#4 v=101
55485 On ch=4 n=d#5 v=101
55491 On ch=4 n=d#5 v=0
55491 On ch=4 n=d#4 v=0
55545 On ch=4 n=c#4 v=101
55545 On ch=4 n=c#5 v=101
55551 On ch=4 n=c#5 v=0
55551 On ch=4 n=c#4 v=0
55605 On ch=4 n=a#3 v=101
55605 On ch=4 n=a#4 v=101
55611 On ch=4 n=a#4 v=0
55611 On ch=4 n=a#3 v=0
55665 Par ch=4 c=64 v=0
55665 On ch=4 n=g#3 v=101
55665 On ch=4 n=g#4 v=101
55671 On ch=4 n=g#4 v=0
55671 On ch=4 n=g#3 v=0
55725 On ch=4 n=c#3 v=101
55725 On ch=4 n=c#4 v=101
55731 On ch=4 n=c#4 v=0
55731 On ch=4 n=c#3 v=0
55785 On ch=4 n=f#3 v=101
55785 On ch=4 n=f#4 v=101
55845 On ch=4 n=f#4 v=0
55845 On ch=4 n=f#3 v=0
55905 On ch=4 n=c#3 v=101
55905 On ch=4 n=f3 v=101
55905 On ch=4 n=g#3 v=101
55905 On ch=4 n=c#4 v=101
55965 On ch=4 n=c#4 v=0
55965 On ch=4 n=c#3 v=0
55965 On ch=4 n=f3 v=0
55965 On ch=4 n=g#3 v=0
56025 On ch=4 n=f#3 v=101
56025 On ch=4 n=a#3 v=101
56025 On ch=4 n=c#4 v=101
56025 On ch=4 n=f#4 v=101
56085 On ch=4 n=f#4 v=0
56085 On ch=4 n=f#3 v=0
56085 On ch=4 n=a#3 v=0
56085 On ch=4 n=c#4 v=0
56145 On ch=4 n=c#4 v=101
56145 On ch=4 n=f4 v=101
56145 On ch=4 n=g#4 v=101
56145 On ch=4 n=c#5 v=101
56205 On ch=4 n=c#5 v=0
56205 On ch=4 n=c#4 v=0
56205 On ch=4 n=f4 v=0
56205 On ch=4 n=g#4 v=0
56265 On ch=4 n=f#3 v=101
56265 On ch=4 n=a#3 v=101
56265 On ch=4 n=c#4 v=101
56265 On ch=4 n=f#4 v=101
56325 On ch=4 n=f#4 v=0
56325 On ch=4 n=f#3 v=0
56325 On ch=4 n=a#3 v=0
56325 On ch=4 n=c#4 v=0
56385 On ch=4 n=c#3 v=101
56385 On ch=4 n=f3 v=101
56385 On ch=4 n=g#3 v=101
56385 On ch=4 n=c#4 v=101
56445 On ch=4 n=c#4 v=0
56445 On ch=4 n=c#3 v=0
56445 On ch=4 n=f3 v=0
56445 On ch=4 n=g#3 v=0
56505 On ch=4 n=f#3 v=101
56505 On ch=4 n=a#3 v=101
56505 On ch=4 n=c#4 v=101
56505 On ch=4 n=f#4 v=101
56565 On ch=4 n=f#4 v=0
56565 On ch=4 n=f#3 v=0
56565 On ch=4 n=a#3 v=0
56565 On ch=4 n=c#4 v=0
56625 On ch=4 n=c#4 v=101
56625 On ch=4 n=f4 v=101
56625 On ch=4 n=g#4 v=101
56625 On ch=4 n=c#5 v=101
56685 On ch=4 n=c#5 v=0
56685 On ch=4 n=c#4 v=0
56685 On ch=4 n=f4 v=0
56685 On ch=4 n=g#4 v=0
56745 On ch=4 n=f#3 v=101
56745 On ch=4 n=f#4 v=101
56751 On ch=4 n=f#4 v=0
56751 On ch=4 n=f#3 v=0
56805 On ch=4 n=g#3 v=101
56805 On ch=4 n=g#4 v=101
56811 On ch=4 n=g#4 v=0
56811 On ch=4 n=g#3 v=0
56865 On ch=4 n=a3 v=119
56865 On ch=4 n=a4 v=127
56985 On ch=4 n=a4 v=0
56985 On ch=4 n=a3 v=0
56985 On ch=4 n=b3 v=101
56985 On ch=4 n=b4 v=101
56989 On ch=4 n=b4 v=0
56989 On ch=4 n=b3 v=0
57045 On ch=4 n=a3 v=101
57045 On ch=4 n=a4 v=101
57049 On ch=4 n=a4 v=0
57049 On ch=4 n=a3 v=0
57105 On ch=4 n=a3 v=101
57105 On ch=4 n=a4 v=101
57109 On ch=4 n=a4 v=0
57109 On ch=4 n=a3 v=0
57165 On ch=4 n=g3 v=101
57165 On ch=4 n=g4 v=101
57171 On ch=4 n=g4 v=0
57171 On ch=4 n=g3 v=0
57225 On ch=4 n=f#3 v=101
57225 On ch=4 n=f#4 v=101
57229 On ch=4 n=f#4 v=0
57229 On ch=4 n=f#3 v=0
57285 On ch=4 n=g#3 v=101
57285 On ch=4 n=g#4 v=101
57291 On ch=4 n=g#4 v=0
57291 On ch=4 n=g#3 v=0
57345 On ch=4 n=a3 v=127
57345 On ch=4 n=a4 v=127
57465 On ch=4 n=a4 v=0
57465 On ch=4 n=a3 v=0
57465 On ch=4 n=b3 v=101
57465 On ch=4 n=b4 v=101
57469 On ch=4 n=b4 v=0
57469 On ch=4 n=b3 v=0
57525 On ch=4 n=a3 v=101
57525 On ch=4 n=a4 v=101
57529 On ch=4 n=a4 v=0
57529 On ch=4 n=a3 v=0
57585 On ch=4 n=a3 v=101
57585 On ch=4 n=a4 v=101
57589 On ch=4 n=a4 v=0
57589 On ch=4 n=a3 v=0
57645 On ch=4 n=g3 v=101
57645 On ch=4 n=g4 v=101
57649 On ch=4 n=g4 v=0
57649 On ch=4 n=g3 v=0
57705 On ch=4 n=f#2 v=101
57705 On ch=4 n=f#3 v=101
57709 On ch=4 n=f#3 v=0
57709 On ch=4 n=f#2 v=0
57765 On ch=4 n=g#2 v=101
57765 On ch=4 n=g#3 v=101
57771 On ch=4 n=g#3 v=0
57771 On ch=4 n=g#2 v=0
57825 On ch=4 n=a2 v=119
57825 On ch=4 n=a3 v=127
57945 On ch=4 n=a3 v=0
57945 On ch=4 n=a2 v=0
57945 On ch=4 n=b2 v=101
57945 On ch=4 n=b3 v=101
57951 On ch=4 n=b3 v=0
57951 On ch=4 n=b2 v=0
58005 On ch=4 n=a2 v=101
58005 On ch=4 n=a3 v=101
58011 On ch=4 n=a3 v=0
58011 On ch=4 n=a2 v=0
58065 On ch=4 n=a2 v=101
58065 On ch=4 n=a3 v=101
58069 On ch=4 n=a3 v=0
58069 On ch=4 n=a2 v=0
58125 On ch=4 n=g2 v=101
58125 On ch=4 n=g3 v=101
58129 On ch=4 n=g3 v=0
58129 On ch=4 n=g2 v=0
58185 On ch=4 n=d3 v=101
58185 On ch=4 n=d4 v=101
58191 On ch=4 n=d4 v=0
58191 On ch=4 n=d3 v=0
58245 On ch=4 n=c#3 v=101
58245 On ch=4 n=c#4 v=101
58251 On ch=4 n=c#4 v=0
58251 On ch=4 n=c#3 v=0
58305 On ch=4 n=c#3 v=101
58305 On ch=4 n=c#4 v=101
58311 On ch=4 n=c#4 v=0
58311 On ch=4 n=c#3 v=0
58365 On ch=4 n=b2 v=101
58365 On ch=4 n=b3 v=101
58371 On ch=4 n=b3 v=0
58371 On ch=4 n=b2 v=0
58425 On ch=4 n=b2 v=101
58425 On ch=4 n=b3 v=101
58431 On ch=4 n=b3 v=0
58431 On ch=4 n=b2 v=0
58485 On ch=4 n=a2 v=101
58485 On ch=4 n=a3 v=101
58491 On ch=4 n=a3 v=0
58491 On ch=4 n=a2 v=0
58545 On ch=4 n=a2 v=101
58545 On ch=4 n=a3 v=101
58551 On ch=4 n=a3 v=0
58551 On ch=4 n=a2 v=0
58605 On ch=4 n=g2 v=101
58605 On ch=4 n=g3 v=101
58611 On ch=4 n=g3 v=0
58611 On ch=4 n=g2 v=0
58665 Par ch=4 c=64 v=127
58665 On ch=4 n=f#2 v=101
58665 On ch=4 n=a#2 v=101
58665 On ch=4 n=c#3 v=101
58665 On ch=4 n=f#3 v=101
58725 On ch=4 n=f#3 v=0
58725 On ch=4 n=f#2 v=0
58725 On ch=4 n=a#2 v=0
58725 On ch=4 n=c#3 v=0
58725 On ch=4 n=f#2 v=101
58725 On ch=4 n=a#2 v=101
58725 On ch=4 n=c#3 v=101
58725 On ch=4 n=f#3 v=101
58785 On ch=4 n=f#3 v=0
58785 On ch=4 n=f#2 v=0
58785 On ch=4 n=a#2 v=0
58785 On ch=4 n=c#3 v=0
58785 On ch=4 n=f#2 v=101
58785 On ch=4 n=a#2 v=101
58785 On ch=4 n=c#3 v=101
58785 On ch=4 n=f#3 v=101
58845 On ch=4 n=f#3 v=0
58845 On ch=4 n=f#2 v=0
58845 On ch=4 n=a#2 v=0
58845 On ch=4 n=c#3 v=0
58845 Par ch=4 c=64 v=0
58905 Par ch=4 c=64 v=127
58905 On ch=4 n=c#4 v=101
58905 On ch=4 n=f4 v=101
58905 On ch=4 n=g#4 v=101
58905 On ch=4 n=c#5 v=101
58965 On ch=4 n=c#5 v=0
58965 On ch=4 n=c#4 v=0
58965 On ch=4 n=f4 v=0
58965 On ch=4 n=g#4 v=0
58965 On ch=4 n=c#4 v=101
58965 On ch=4 n=f4 v=101
58965 On ch=4 n=g#4 v=101
58965 On ch=4 n=c#5 v=101
59025 On ch=4 n=c#5 v=0
59025 On ch=4 n=c#4 v=0
59025 On ch=4 n=f4 v=0
59025 On ch=4 n=g#4 v=0
59025 On ch=4 n=c#4 v=101
59025 On ch=4 n=f4 v=101
59025 On ch=4 n=g#4 v=101
59025 On ch=4 n=c#5 v=101
59085 On ch=4 n=c#5 v=0
59085 On ch=4 n=c#4 v=0
59085 On ch=4 n=f4 v=0
59085 On ch=4 n=g#4 v=0
59085 Par ch=4 c=64 v=0
59145 Par ch=4 c=64 v=127
59145 On ch=4 n=f#2 v=101
59145 On ch=4 n=a#2 v=101
59145 On ch=4 n=c#3 v=101
59145 On ch=4 n=f#3 v=101
59205 On ch=4 n=f#3 v=0
59205 On ch=4 n=f#2 v=0
59205 On ch=4 n=a#2 v=0
59205 On ch=4 n=c#3 v=0
59205 On ch=4 n=f#3 v=101
59205 On ch=4 n=a#3 v=101
59205 On ch=4 n=c#4 v=101
59205 On ch=4 n=f#4 v=101
59265 On ch=4 n=f#4 v=0
59265 On ch=4 n=f#3 v=0
59265 On ch=4 n=a#3 v=0
59265 On ch=4 n=c#4 v=0
59265 On ch=4 n=f#4 v=115
59265 On ch=4 n=a#4 v=119
59265 On ch=4 n=c#5 v=123
59265 On ch=4 n=f#5 v=127
59385 On ch=4 n=f#5 v=0
59385 On ch=4 n=f#4 v=0
59385 On ch=4 n=a#4 v=0
59385 On ch=4 n=c#5 v=0
59865 Par ch=4 c=64 v=0
59865 Meta TrkEnd
TrkEnd
