MFile 1 8 96
MTrk
0 TimeSig 2/4 96 8
0 Tempo 500000
3264 TimeSig 3/4 96 8
3552 TimeSig 1/4 96 8
3552 Tempo 600000
3564 Tempo 594059
3576 Tempo 588235
3588 Tempo 582524
3600 Tempo 576923
3612 Tempo 571428
3624 Tempo 566037
3636 Tempo 560747
3648 Tempo 555555
3660 Tempo 550458
3672 Tempo 545454
3684 Tempo 540540
3696 Tempo 535714
3708 Tempo 530973
3720 Tempo 526315
3732 Tempo 521739
3744 Tempo 517241
3756 Tempo 512820
3768 Tempo 508474
3780 Tempo 504201
3792 Tempo 500000
3804 Tempo 495867
3816 Tempo 491803
3828 Tempo 487804
3840 Tempo 483870
3852 Tempo 480000
3864 Tempo 476190
3876 Tempo 472440
3888 Tempo 468750
3900 Tempo 465116
3912 Tempo 461538
3924 Tempo 458015
3936 Tempo 454545
3948 Tempo 451127
3960 Tempo 447761
3972 Tempo 444444
3984 Tempo 441176
3996 Tempo 437956
4008 Tempo 434782
4020 Tempo 431654
4032 Tempo 428571
4044 Tempo 425531
4056 Tempo 422535
4068 Tempo 419580
4080 Tempo 416666
4092 Tempo 413793
4104 Tempo 410958
4116 Tempo 408163
4128 Tempo 405405
4140 Tempo 402684
4152 Tempo 400000
4164 Tempo 397350
4176 Tempo 394736
4188 Tempo 392156
4200 Tempo 389610
4212 Tempo 387096
4224 Tempo 384615
4236 Tempo 382165
4248 Tempo 379746
4260 Tempo 377358
4272 Tempo 375000
4284 Tempo 372670
4296 Tempo 370370
4308 Tempo 368098
4320 Tempo 365853
4332 Tempo 363636
4344 Tempo 361445
4356 Tempo 359281
4368 Tempo 357142
4380 Tempo 355029
4392 Tempo 352941
4404 Tempo 350877
4416 Tempo 348837
4428 Tempo 346820
4440 Tempo 344827
4452 Tempo 342857
4464 Tempo 340909
4476 Tempo 338983
4488 Tempo 337078
4500 Tempo 335195
4512 Tempo 333333
4524 Tempo 331491
4536 Tempo 329670
4548 Tempo 327868
4560 Tempo 326086
4572 Tempo 324324
4584 Tempo 322580
4596 Tempo 320855
4608 Tempo 319148
4620 Tempo 317460
4632 Tempo 315789
4800 TimeSig 2/4 96 8
5184 Tempo 315789
5187 Tempo 317460
5190 Tempo 319148
5193 Tempo 320855
5196 Tempo 322580
5199 Tempo 324324
5202 Tempo 326086
5205 Tempo 327868
5208 Tempo 329670
5211 Tempo 331491
5214 Tempo 333333
5217 Tempo 335195
5220 Tempo 337078
5223 Tempo 338983
5226 Tempo 340909
5229 Tempo 342857
5232 Tempo 344827
5235 Tempo 346820
5238 Tempo 348837
5241 Tempo 350877
5244 Tempo 352941
5247 Tempo 355029
5250 Tempo 357142
5253 Tempo 359281
5256 Tempo 361445
5259 Tempo 363636
5262 Tempo 365853
5265 Tempo 368098
5268 Tempo 370370
5271 Tempo 372670
5274 Tempo 375000
5277 Tempo 377358
5280 Tempo 379746
5283 Tempo 382165
5286 Tempo 384615
5289 Tempo 387096
5292 Tempo 389610
5295 Tempo 392156
5298 Tempo 394736
5301 Tempo 397350
5304 Tempo 400000
5307 Tempo 402684
5310 Tempo 405405
5313 Tempo 408163
5316 Tempo 410958
5319 Tempo 413793
5322 Tempo 416666
5325 Tempo 419580
5328 Tempo 422535
5331 Tempo 425531
5334 Tempo 428571
5337 Tempo 431654
5340 Tempo 434782
5343 Tempo 437956
5346 Tempo 441176
5349 Tempo 444444
5352 Tempo 447761
5355 Tempo 451127
5358 Tempo 454545
5361 Tempo 458015
5364 Tempo 461538
5367 Tempo 465116
5370 Tempo 468750
5373 Tempo 472440
5376 Tempo 476190
5379 Tempo 480000
5382 Tempo 483870
5385 Tempo 487804
5388 Tempo 491803
5391 Tempo 495867
5394 Tempo 500000
5397 Tempo 504201
5400 Tempo 508474
5403 Tempo 512820
5406 Tempo 517241
5409 Tempo 521739
5412 Tempo 526315
5415 Tempo 530973
5418 Tempo 535714
5421 Tempo 540540
5424 Tempo 545454
5427 Tempo 550458
5430 Tempo 555555
5433 Tempo 560747
5436 Tempo 566037
5439 Tempo 571428
5442 Tempo 576923
5445 Tempo 582524
5448 Tempo 588235
5451 Tempo 594059
5454 Tempo 600000
5457 Tempo 606060
5460 Tempo 612244
5463 Tempo 618556
5466 Tempo 625000
5469 Tempo 631578
5472 Tempo 638297
5475 Tempo 645161
5478 Tempo 652173
5481 Tempo 659340
5484 Tempo 666666
5487 Tempo 674157
5490 Tempo 681818
5493 Tempo 689655
5496 Tempo 697674
5499 Tempo 705882
5502 Tempo 714285
5505 Tempo 722891
5508 Tempo 731707
5511 Tempo 740740
5514 Tempo 750000
5568 Tempo 461538
11712 TimeSig 1/4 96 8
12480 TimeSig 2/4 96 8
12480 Tempo 300000
18816 Tempo 300000
18821 Tempo 301507
18826 Tempo 303030
18831 Tempo 304568
18836 Tempo 306122
18841 Tempo 307692
18846 Tempo 309278
18851 Tempo 310880
18856 Tempo 312500
18861 Tempo 314136
18866 Tempo 315789
18871 Tempo 317460
18876 Tempo 319148
18881 Tempo 320855
18886 Tempo 322580
18891 Tempo 324324
18896 Tempo 326086
18901 Tempo 327868
18906 Tempo 329670
18911 Tempo 331491
18916 Tempo 333333
18921 Tempo 335195
18926 Tempo 337078
18931 Tempo 338983
18936 Tempo 340909
18941 Tempo 342857
18946 Tempo 344827
18951 Tempo 346820
18956 Tempo 348837
18961 Tempo 350877
18966 Tempo 352941
18971 Tempo 355029
18976 Tempo 357142
18981 Tempo 359281
18986 Tempo 361445
18991 Tempo 363636
18996 Tempo 365853
19001 Tempo 368098
19006 Tempo 370370
19011 Tempo 372670
19016 Tempo 375000
19021 Tempo 377358
19026 Tempo 379746
19031 Tempo 382165
19036 Tempo 384615
19041 Tempo 387096
19046 Tempo 389610
19051 Tempo 392156
19056 Tempo 394736
19061 Tempo 397350
19066 Tempo 400000
19071 Tempo 402684
19076 Tempo 405405
19081 Tempo 408163
19086 Tempo 410958
19091 Tempo 413793
19096 Tempo 416666
19101 Tempo 419580
19106 Tempo 422535
19111 Tempo 425531
19116 Tempo 428571
19121 Tempo 431654
19126 Tempo 434782
19131 Tempo 437956
19136 Tempo 441176
19141 Tempo 444444
19146 Tempo 447761
19151 Tempo 451127
19156 Tempo 454545
19161 Tempo 458015
19166 Tempo 461538
26112 Tempo 300000
32064 Tempo 1500000
32448 TimeSig 1/4 96 8
32544 TimeSig 2/4 96 8
32544 Tempo 500000
34272 Tempo 500000
34329 Tempo 495867
34386 Tempo 491803
34443 Tempo 487804
34500 Tempo 483870
34557 Tempo 480000
34614 Tempo 476190
34671 Tempo 472440
34728 Tempo 468750
34785 Tempo 465116
34842 Tempo 461538
34899 Tempo 458015
34956 Tempo 454545
35013 Tempo 451127
35070 Tempo 447761
35127 Tempo 444444
35184 Tempo 441176
35241 Tempo 437956
35298 Tempo 434782
35355 Tempo 431654
35412 Tempo 428571
35469 Tempo 425531
35526 Tempo 422535
35583 Tempo 419580
35640 Tempo 416666
35697 Tempo 413793
35754 Tempo 410958
35811 Tempo 408163
35868 Tempo 405405
35925 Tempo 402684
35982 Tempo 400000
56352 Tempo 400000
56371 Tempo 397350
56390 Tempo 394736
56409 Tempo 392156
56428 Tempo 389610
56447 Tempo 387096
56466 Tempo 384615
56485 Tempo 382165
56504 Tempo 379746
56523 Tempo 377358
56542 Tempo 375000
56561 Tempo 372670
56580 Tempo 370370
56599 Tempo 368098
56618 Tempo 365853
56637 Tempo 363636
56656 Tempo 361445
56675 Tempo 359281
56694 Tempo 357142
56713 Tempo 355029
56732 Tempo 352941
56751 Tempo 350877
56770 Tempo 348837
56789 Tempo 346820
56808 Tempo 344827
56827 Tempo 342857
56846 Tempo 340909
56865 Tempo 338983
56884 Tempo 337078
56903 Tempo 335195
56922 Tempo 333333
56941 Tempo 331491
56960 Tempo 329670
56979 Tempo 327868
56998 Tempo 326086
57017 Tempo 324324
57036 Tempo 322580
57055 Tempo 320855
57074 Tempo 319148
57093 Tempo 317460
57112 Tempo 315789
60192 Tempo 315789
60218 Tempo 314136
60244 Tempo 312500
60270 Tempo 310880
60296 Tempo 309278
60322 Tempo 307692
60348 Tempo 306122
60374 Tempo 304568
60400 Tempo 303030
60426 Tempo 301507
60452 Tempo 300000
60478 Tempo 298507
60504 Tempo 297029
60530 Tempo 295566
60556 Tempo 294117
60582 Tempo 292682
60608 Tempo 291262
60634 Tempo 289855
60660 Tempo 288461
60686 Tempo 287081
60712 Tempo 285714
60738 Tempo 284360
60764 Tempo 283018
60790 Tempo 281690
60816 Tempo 280373
60842 Tempo 279069
60868 Tempo 277777
60894 Tempo 276497
60920 Tempo 275229
60946 Tempo 273972
60972 Tempo 272727
60998 Tempo 271493
61024 Tempo 270270
61050 Tempo 269058
61076 Tempo 267857
61102 Tempo 266666
61128 Tempo 264718
61154 Tempo 264317
61180 Tempo 263157
61206 Tempo 262008
61232 Tempo 260869
61258 Tempo 259740
61284 Tempo 258620
61310 Tempo 257510
61336 Tempo 256410
61362 Tempo 255319
61388 Tempo 254237
61414 Tempo 253164
61440 Tempo 252100
61466 Tempo 251046
61492 Tempo 250000
61578 Tempo 269058
61620 Tempo 267857
61662 Tempo 266666
61704 Tempo 264718
61746 Tempo 264317
61788 Tempo 263157
61830 Tempo 262008
61872 Tempo 260869
61914 Tempo 259740
61956 Tempo 258620
61998 Tempo 257510
62040 Tempo 256410
62082 Tempo 255319
62124 Tempo 254237
62166 Tempo 253164
62208 Tempo 252100
62250 Tempo 251046
62292 Tempo 250000
62292 Meta TrkEnd
TrkEnd
MTrk
0 Par ch=1 c=0 v=0
0 PrCh ch=1 p=0
0 TimeSig 2/4 96 8
0 Tempo 500000
0 On ch=1 n=d#5 v=81
32 Off ch=1 n=d#5 v=64
48 On ch=1 n=d#5 v=81
112 Off ch=1 n=d#5 v=64
144 On ch=1 n=c5 v=81
160 Off ch=1 n=c5 v=64
168 On ch=1 n=d#5 v=81
184 Off ch=1 n=d#5 v=64
192 On ch=1 n=b4 v=81
208 Off ch=1 n=b4 v=64
240 On ch=1 n=b4 v=81
304 Off ch=1 n=b4 v=64
336 On ch=1 n=a4 v=81
352 Off ch=1 n=a4 v=64
360 On ch=1 n=b4 v=81
376 Off ch=1 n=b4 v=64
384 On ch=1 n=c5 v=81
400 Off ch=1 n=c5 v=64
432 On ch=1 n=c5 v=81
496 Off ch=1 n=c5 v=64
528 On ch=1 n=d5 v=81
544 Off ch=1 n=d5 v=64
552 On ch=1 n=c5 v=81
568 Off ch=1 n=c5 v=64
576 On ch=1 n=b4 v=81
592 Off ch=1 n=b4 v=64
600 On ch=1 n=c5 v=81
616 Off ch=1 n=c5 v=64
624 On ch=1 n=a4 v=81
640 Off ch=1 n=a4 v=64
648 On ch=1 n=c5 v=81
664 Off ch=1 n=c5 v=64
672 On ch=1 n=f5 v=81
688 Off ch=1 n=f5 v=64
720 On ch=1 n=e5 v=81
736 Off ch=1 n=e5 v=64
768 On ch=1 n=d#5 v=81
800 Off ch=1 n=d#5 v=64
816 On ch=1 n=d#5 v=81
880 Off ch=1 n=d#5 v=64
912 On ch=1 n=c5 v=81
928 Off ch=1 n=c5 v=64
936 On ch=1 n=d#5 v=81
952 Off ch=1 n=d#5 v=64
960 On ch=1 n=b4 v=81
976 Off ch=1 n=b4 v=64
1008 On ch=1 n=b4 v=81
1072 Off ch=1 n=b4 v=64
1104 On ch=1 n=a4 v=81
1120 Off ch=1 n=a4 v=64
1128 On ch=1 n=b4 v=81
1144 Off ch=1 n=b4 v=64
1152 On ch=1 n=c5 v=81
1168 Off ch=1 n=c5 v=64
1200 On ch=1 n=c5 v=81
1264 Off ch=1 n=c5 v=64
1296 On ch=1 n=d5 v=81
1312 Off ch=1 n=d5 v=64
1320 On ch=1 n=c5 v=81
1336 Off ch=1 n=c5 v=64
1344 On ch=1 n=b4 v=81
1360 Off ch=1 n=b4 v=64
1368 On ch=1 n=c5 v=81
1384 Off ch=1 n=c5 v=64
1392 On ch=1 n=a4 v=81
1408 Off ch=1 n=a4 v=64
1416 On ch=1 n=c5 v=81
1432 Off ch=1 n=c5 v=64
1440 On ch=1 n=f5 v=81
1456 Off ch=1 n=f5 v=64
1488 On ch=1 n=e5 v=81
1504 Off ch=1 n=e5 v=64
1536 On ch=1 n=d#5 v=81
1552 Off ch=1 n=d#5 v=64
1584 On ch=1 n=b4 v=81
1600 Off ch=1 n=b4 v=64
1608 On ch=1 n=c5 v=81
1624 Off ch=1 n=c5 v=64
1632 On ch=1 n=f5 v=81
1648 Off ch=1 n=f5 v=64
1680 On ch=1 n=e5 v=81
1696 Off ch=1 n=e5 v=64
1728 On ch=1 n=d#5 v=81
1744 Off ch=1 n=d#5 v=64
1776 On ch=1 n=b4 v=81
1792 Off ch=1 n=b4 v=64
1800 On ch=1 n=c5 v=81
1816 Off ch=1 n=c5 v=64
1824 On ch=1 n=f5 v=81
1840 Off ch=1 n=f5 v=64
1872 On ch=1 n=e5 v=81
1888 Off ch=1 n=e5 v=64
1920 On ch=1 n=d#5 v=81
1936 Off ch=1 n=d#5 v=64
1968 On ch=1 n=b4 v=81
1984 Off ch=1 n=b4 v=64
1992 On ch=1 n=c5 v=81
2008 Off ch=1 n=c5 v=64
2016 On ch=1 n=d#5 v=81
2032 Off ch=1 n=d#5 v=64
2064 On ch=1 n=b4 v=81
2080 Off ch=1 n=b4 v=64
2088 On ch=1 n=c5 v=81
2104 Off ch=1 n=c5 v=64
2112 On ch=1 n=d#5 v=81
2128 Off ch=1 n=d#5 v=64
2160 On ch=1 n=b4 v=81
2176 Off ch=1 n=b4 v=64
2184 On ch=1 n=c5 v=81
2200 Off ch=1 n=c5 v=64
2208 On ch=1 n=d#5 v=81
2224 Off ch=1 n=d#5 v=64
2256 On ch=1 n=f#5 v=81
2272 Off ch=1 n=f#5 v=64
2304 On ch=1 n=d#5 v=81
2320 Off ch=1 n=d#5 v=64
2352 On ch=1 n=b4 v=81
2368 Off ch=1 n=b4 v=64
2376 On ch=1 n=c5 v=81
2392 Off ch=1 n=c5 v=64
2400 On ch=1 n=d#5 v=81
2416 Off ch=1 n=d#5 v=64
2448 On ch=1 n=b4 v=81
2464 Off ch=1 n=b4 v=64
2472 On ch=1 n=c5 v=81
2488 Off ch=1 n=c5 v=64
2496 On ch=1 n=d#5 v=81
2512 Off ch=1 n=d#5 v=64
2544 On ch=1 n=b4 v=81
2560 Off ch=1 n=b4 v=64
2568 On ch=1 n=c5 v=81
2584 Off ch=1 n=c5 v=64
2592 On ch=1 n=d#5 v=81
2608 Off ch=1 n=d#5 v=64
2640 On ch=1 n=f#5 v=81
2656 Off ch=1 n=f#5 v=64
2688 On ch=1 n=d#5 v=81
2704 Off ch=1 n=d#5 v=64
2736 On ch=1 n=f#5 v=81
2752 Off ch=1 n=f#5 v=64
2784 On ch=1 n=d#5 v=81
2800 Off ch=1 n=d#5 v=64
2832 On ch=1 n=f#5 v=81
2848 Off ch=1 n=f#5 v=64
2880 On ch=1 n=d#5 v=81
2896 Off ch=1 n=d#5 v=64
2976 On ch=1 n=d#5 v=81
2992 Off ch=1 n=d#5 v=64
3264 TimeSig 3/4 96 8
3552 TimeSig 1/4 96 8
3552 Tempo 600000
3564 Tempo 594059
3576 Tempo 588235
3588 Tempo 582524
3600 Tempo 576923
3600 On ch=1 n=f#5 v=81
3612 Tempo 571428
3615 Off ch=1 n=f#5 v=64
3616 On ch=1 n=d#5 v=81
3624 Tempo 566037
3631 Off ch=1 n=d#5 v=64
3632 On ch=1 n=b4 v=81
3636 Tempo 560747
3647 Off ch=1 n=b4 v=64
3648 Tempo 555555
3660 Tempo 550458
3672 Tempo 545454
3684 Tempo 540540
3696 Tempo 535714
3696 On ch=1 n=g5 v=81
3708 Tempo 530973
3711 Off ch=1 n=g5 v=64
3712 On ch=1 n=d#5 v=81
3720 Tempo 526315
3727 Off ch=1 n=d#5 v=64
3728 On ch=1 n=b4 v=81
3732 Tempo 521739
3743 Off ch=1 n=b4 v=64
3744 Tempo 517241
3756 Tempo 512820
3760 On ch=1 n=b4 v=81
3768 Tempo 508474
3775 Off ch=1 n=b4 v=64
3776 On ch=1 n=d#5 v=81
3780 Tempo 504201
3791 Off ch=1 n=d#5 v=64
3792 Tempo 500000
3792 On ch=1 n=b5 v=81
3804 Tempo 495867
3807 Off ch=1 n=b5 v=64
3808 On ch=1 n=g5 v=81
3816 Tempo 491803
3823 Off ch=1 n=g5 v=64
3824 On ch=1 n=d#5 v=81
3828 Tempo 487804
3839 Off ch=1 n=d#5 v=64
3840 Tempo 483870
3852 Tempo 480000
3856 On ch=1 n=d#5 v=81
3864 Tempo 476190
3871 Off ch=1 n=d#5 v=64
3872 On ch=1 n=f#5 v=81
3876 Tempo 472440
3887 Off ch=1 n=f#5 v=64
3888 Tempo 468750
3888 On ch=1 n=d#6 v=81
3900 Tempo 465116
3903 Off ch=1 n=d#6 v=64
3904 On ch=1 n=b5 v=81
3912 Tempo 461538
3919 Off ch=1 n=b5 v=64
3920 On ch=1 n=f#5 v=81
3924 Tempo 458015
3935 Off ch=1 n=f#5 v=64
3936 Tempo 454545
3948 Tempo 451127
3952 On ch=1 n=f#5 v=81
3960 Tempo 447761
3967 Off ch=1 n=f#5 v=64
3968 On ch=1 n=b5 v=81
3972 Tempo 444444
3983 Off ch=1 n=b5 v=64
3984 Tempo 441176
3984 On ch=1 n=f#6 v=81
3996 Tempo 437956
3999 Off ch=1 n=f#6 v=64
4000 On ch=1 n=d#6 v=81
4008 Tempo 434782
4015 Off ch=1 n=d#6 v=64
4016 On ch=1 n=b5 v=81
4020 Tempo 431654
4031 Off ch=1 n=b5 v=64
4032 Tempo 428571
4044 Tempo 425531
4048 On ch=1 n=g5 v=81
4056 Tempo 422535
4063 Off ch=1 n=g5 v=64
4064 On ch=1 n=b5 v=81
4068 Tempo 419580
4079 Off ch=1 n=b5 v=64
4080 Tempo 416666
4080 On ch=1 n=g6 v=81
4092 Tempo 413793
4095 Off ch=1 n=g6 v=64
4096 On ch=1 n=d#6 v=81
4104 Tempo 410958
4111 Off ch=1 n=d#6 v=64
4112 On ch=1 n=b5 v=81
4116 Tempo 408163
4127 Off ch=1 n=b5 v=64
4128 Tempo 405405
4140 Tempo 402684
4144 On ch=1 n=b5 v=81
4152 Tempo 400000
4159 Off ch=1 n=b5 v=64
4160 On ch=1 n=g5 v=81
4160 On ch=1 n=d#6 v=81
4164 Tempo 397350
4175 Off ch=1 n=g5 v=64
4175 Off ch=1 n=d#6 v=64
4176 Tempo 394736
4176 On ch=1 n=b6 v=81
4188 Tempo 392156
4191 Off ch=1 n=b6 v=64
4192 On ch=1 n=g6 v=81
4200 Tempo 389610
4207 Off ch=1 n=g6 v=64
4208 On ch=1 n=d#6 v=81
4212 Tempo 387096
4223 Off ch=1 n=d#6 v=64
4224 Tempo 384615
4224 On ch=1 n=b4 v=81
4236 Tempo 382165
4239 Off ch=1 n=b4 v=64
4240 On ch=1 n=f#5 v=81
4248 Tempo 379746
4255 Off ch=1 n=f#5 v=64
4256 On ch=1 n=b5 v=81
4260 Tempo 377358
4271 Off ch=1 n=b5 v=64
4272 Tempo 375000
4284 Tempo 372670
4296 Tempo 370370
4308 Tempo 368098
4320 Tempo 365853
4320 On ch=1 n=d#5 v=81
4332 Tempo 363636
4335 Off ch=1 n=d#5 v=64
4336 On ch=1 n=b5 v=81
4344 Tempo 361445
4351 Off ch=1 n=b5 v=64
4352 On ch=1 n=d#6 v=81
4356 Tempo 359281
4367 Off ch=1 n=d#6 v=64
4368 Tempo 357142
4380 Tempo 355029
4392 Tempo 352941
4404 Tempo 350877
4416 Tempo 348837
4416 On ch=1 n=d#5 v=81
4428 Tempo 346820
4431 Off ch=1 n=d#5 v=64
4432 On ch=1 n=b5 v=81
4440 Tempo 344827
4447 Off ch=1 n=b5 v=64
4448 On ch=1 n=d#6 v=81
4452 Tempo 342857
4463 Off ch=1 n=d#6 v=64
4464 Tempo 340909
4476 Tempo 338983
4488 Tempo 337078
4500 Tempo 335195
4512 Tempo 333333
4512 On ch=1 n=g5 v=81
4524 Tempo 331491
4527 Off ch=1 n=g5 v=64
4528 On ch=1 n=d#6 v=81
4536 Tempo 329670
4543 Off ch=1 n=d#6 v=64
4544 On ch=1 n=g6 v=81
4548 Tempo 327868
4559 Off ch=1 n=g6 v=64
4560 Tempo 326086
4572 Tempo 324324
4584 Tempo 322580
4596 Tempo 320855
4608 Tempo 319148
4608 On ch=1 n=g5 v=81
4620 Tempo 317460
4623 Off ch=1 n=g5 v=64
4624 On ch=1 n=d#6 v=81
4632 Tempo 315789
4639 Off ch=1 n=d#6 v=64
4640 On ch=1 n=g6 v=81
4655 Off ch=1 n=g6 v=64
4704 On ch=1 n=g5 v=81
4712 On ch=1 n=d#6 v=81
4720 On ch=1 n=g6 v=81
4799 Off ch=1 n=g5 v=64
4799 Off ch=1 n=d#6 v=64
4799 Off ch=1 n=g6 v=64
4800 TimeSig 2/4 96 8
5184 Tempo 315789
5187 Tempo 317460
5190 Tempo 319148
5193 Tempo 320855
5196 Tempo 322580
5199 Tempo 324324
5202 Tempo 326086
5205 Tempo 327868
5208 Tempo 329670
5211 Tempo 331491
5214 Tempo 333333
5217 Tempo 335195
5220 Tempo 337078
5223 Tempo 338983
5226 Tempo 340909
5229 Tempo 342857
5232 Tempo 344827
5235 Tempo 346820
5238 Tempo 348837
5241 Tempo 350877
5244 Tempo 352941
5247 Tempo 355029
5250 Tempo 357142
5253 Tempo 359281
5256 Tempo 361445
5259 Tempo 363636
5262 Tempo 365853
5265 Tempo 368098
5268 Tempo 370370
5271 Tempo 372670
5274 Tempo 375000
5277 Tempo 377358
5280 Tempo 379746
5280 On ch=1 n=b4 v=81
5283 Tempo 382165
5286 Tempo 384615
5289 Tempo 387096
5292 Tempo 389610
5295 Tempo 392156
5298 Tempo 394736
5301 Tempo 397350
5304 Tempo 400000
5307 Tempo 402684
5310 Tempo 405405
5313 Tempo 408163
5316 Tempo 410958
5319 Tempo 413793
5322 Tempo 416666
5325 Tempo 419580
5328 Tempo 422535
5331 Tempo 425531
5334 Tempo 428571
5337 Tempo 431654
5340 Tempo 434782
5343 Tempo 437956
5346 Tempo 441176
5349 Tempo 444444
5352 Tempo 447761
5355 Tempo 451127
5358 Tempo 454545
5361 Tempo 458015
5364 Tempo 461538
5367 Tempo 465116
5370 Tempo 468750
5373 Tempo 472440
5375 Off ch=1 n=b4 v=64
5376 Tempo 476190
5376 On ch=1 n=c5 v=81
5379 Tempo 480000
5382 Tempo 483870
5385 Tempo 487804
5388 Tempo 491803
5391 Tempo 495867
5394 Tempo 500000
5397 Tempo 504201
5400 Tempo 508474
5403 Tempo 512820
5406 Tempo 517241
5409 Tempo 521739
5412 Tempo 526315
5415 Tempo 530973
5418 Tempo 535714
5421 Tempo 540540
5424 Tempo 545454
5427 Tempo 550458
5430 Tempo 555555
5433 Tempo 560747
5436 Tempo 566037
5439 Tempo 571428
5442 Tempo 576923
5445 Tempo 582524
5448 Tempo 588235
5451 Tempo 594059
5454 Tempo 600000
5457 Tempo 606060
5460 Tempo 612244
5463 Tempo 618556
5466 Tempo 625000
5469 Tempo 631578
5471 Off ch=1 n=c5 v=64
5472 Tempo 638297
5472 On ch=1 n=d#5 v=81
5475 Tempo 645161
5478 Tempo 652173
5481 Tempo 659340
5484 Tempo 666666
5487 Tempo 674157
5490 Tempo 681818
5493 Tempo 689655
5496 Tempo 697674
5499 Tempo 705882
5502 Tempo 714285
5505 Tempo 722891
5508 Tempo 731707
5511 Tempo 740740
5514 Tempo 750000
5567 Off ch=1 n=d#5 v=64
5568 Tempo 461538
5568 On ch=1 n=e5 v=81
5568 On ch=1 n=b4 v=81
5759 Off ch=1 n=e5 v=64
5760 On ch=1 n=f5 v=81
5903 Off ch=1 n=f5 v=64
5904 On ch=1 n=d#5 v=81
5951 Off ch=1 n=b4 v=64
5951 Off ch=1 n=d#5 v=64
5952 On ch=1 n=b4 v=81
5952 On ch=1 n=e5 v=81
6095 Off ch=1 n=e5 v=64
6120 On ch=1 n=g5 v=81
6143 Off ch=1 n=g5 v=64
6144 On ch=1 n=f5 v=81
6239 Off ch=1 n=f5 v=64
6240 On ch=1 n=d5 v=81
6335 Off ch=1 n=b4 v=64
6335 Off ch=1 n=d5 v=64
6336 On ch=1 n=e5 v=81
6336 On ch=1 n=b4 v=81
6527 Off ch=1 n=e5 v=64
6528 On ch=1 n=f5 v=81
6671 Off ch=1 n=f5 v=64
6672 On ch=1 n=d#5 v=81
6719 Off ch=1 n=b4 v=64
6719 Off ch=1 n=d#5 v=64
6720 On ch=1 n=b4 v=81
6720 On ch=1 n=e5 v=81
6863 Off ch=1 n=e5 v=64
6888 On ch=1 n=g5 v=81
6911 Off ch=1 n=g5 v=64
6912 On ch=1 n=f5 v=81
7007 Off ch=1 n=f5 v=64
7008 On ch=1 n=d5 v=81
7103 Off ch=1 n=b4 v=64
7103 Off ch=1 n=d5 v=64
7104 On ch=1 n=c5 v=81
7200 On ch=1 n=e5 v=81
7295 Off ch=1 n=c5 v=64
7295 Off ch=1 n=e5 v=64
7296 On ch=1 n=c5 v=81
7296 On ch=1 n=f#5 v=81
7439 Off ch=1 n=f#5 v=64
7440 On ch=1 n=g#5 v=81
7487 Off ch=1 n=g#5 v=64
7488 On ch=1 n=a5 v=81
7679 Off ch=1 n=c5 v=64
7679 Off ch=1 n=a5 v=64
7680 On ch=1 n=b5 v=81
7680 On ch=1 n=e5 v=81
7775 Off ch=1 n=e5 v=64
7776 On ch=1 n=d5 v=81
7871 Off ch=1 n=b5 v=64
7871 Off ch=1 n=d5 v=64
7872 On ch=1 n=c5 v=81
7872 On ch=1 n=c6 v=81
7967 Off ch=1 n=c6 v=64
7968 On ch=1 n=e5 v=81
8063 Off ch=1 n=c5 v=64
8063 Off ch=1 n=e5 v=64
8064 On ch=1 n=c5 v=81
8064 On ch=1 n=f#5 v=81
8207 Off ch=1 n=f#5 v=64
8208 On ch=1 n=g#5 v=81
8255 Off ch=1 n=c5 v=64
8255 Off ch=1 n=g#5 v=64
8256 On ch=1 n=a5 v=81
8256 On ch=1 n=c5 v=81
8447 Off ch=1 n=a5 v=64
8447 Off ch=1 n=c5 v=64
8472 On ch=1 n=b4 v=81
8496 On ch=1 n=e5 v=81
8520 On ch=1 n=b5 v=81
8639 Off ch=1 n=b4 v=64
8664 On ch=1 n=c5 v=81
8688 On ch=1 n=e5 v=81
8712 On ch=1 n=c6 v=81
8735 Off ch=1 n=e5 v=64
8735 Off ch=1 n=b5 v=64
8831 Off ch=1 n=c5 v=64
8927 Off ch=1 n=e5 v=64
8927 Off ch=1 n=c6 v=64
8928 On ch=1 n=b5 v=81
8975 Off ch=1 n=b5 v=64
8976 On ch=1 n=c6 v=81
9023 Off ch=1 n=c6 v=64
9024 On ch=1 n=d6 v=81
9071 Off ch=1 n=d6 v=64
9072 On ch=1 n=c6 v=81
9119 Off ch=1 n=c6 v=64
9120 On ch=1 n=b5 v=81
9167 Off ch=1 n=b5 v=64
9168 On ch=1 n=a5 v=81
9215 Off ch=1 n=a5 v=64
9216 On ch=1 n=g#5 v=81
9263 Off ch=1 n=g#5 v=64
9264 On ch=1 n=a5 v=81
9311 Off ch=1 n=a5 v=64
9312 On ch=1 n=b5 v=81
9359 Off ch=1 n=b5 v=64
9360 On ch=1 n=a5 v=81
9407 Off ch=1 n=a5 v=64
9408 On ch=1 n=g5 v=81
9455 Off ch=1 n=g5 v=64
9456 On ch=1 n=f#5 v=81
9503 Off ch=1 n=f#5 v=64
9504 On ch=1 n=e5 v=81
9551 Off ch=1 n=e5 v=64
9552 On ch=1 n=f#5 v=81
9599 Off ch=1 n=f#5 v=64
9600 On ch=1 n=g5 v=81
9647 Off ch=1 n=g5 v=64
9648 On ch=1 n=f#5 v=81
9695 Off ch=1 n=f#5 v=64
9696 On ch=1 n=e5 v=81
9743 Off ch=1 n=e5 v=64
9744 On ch=1 n=d#5 v=81
9791 Off ch=1 n=d#5 v=64
9792 On ch=1 n=e5 v=81
9839 Off ch=1 n=e5 v=64
9840 On ch=1 n=d5 v=81
9887 Off ch=1 n=d5 v=64
9888 On ch=1 n=c5 v=81
9935 Off ch=1 n=c5 v=64
9936 On ch=1 n=d5 v=81
9983 Off ch=1 n=d5 v=64
9984 On ch=1 n=e5 v=81
10031 Off ch=1 n=e5 v=64
10032 On ch=1 n=d5 v=81
10079 Off ch=1 n=d5 v=64
10080 On ch=1 n=c5 v=81
10127 Off ch=1 n=c5 v=64
10128 On ch=1 n=b4 v=81
10175 Off ch=1 n=b4 v=64
10176 On ch=1 n=c5 v=81
10367 Off ch=1 n=c5 v=64
10368 On ch=1 n=c#5 v=81
10511 Off ch=1 n=c#5 v=64
10512 On ch=1 n=b4 v=81
10559 Off ch=1 n=b4 v=64
10560 On ch=1 n=c5 v=81
10703 Off ch=1 n=c5 v=64
10728 On ch=1 n=d#5 v=81
10751 Off ch=1 n=d#5 v=64
10752 On ch=1 n=d5 v=81
10895 Off ch=1 n=d5 v=64
10896 On ch=1 n=a#4 v=81
10943 Off ch=1 n=a#4 v=64
10944 On ch=1 n=c5 v=81
11135 Off ch=1 n=c5 v=64
11136 On ch=1 n=c#5 v=81
11279 Off ch=1 n=c#5 v=64
11280 On ch=1 n=b4 v=81
11327 Off ch=1 n=b4 v=64
11328 On ch=1 n=c5 v=81
11471 Off ch=1 n=c5 v=64
11496 On ch=1 n=d#5 v=81
11519 Off ch=1 n=d#5 v=64
11520 On ch=1 n=d5 v=81
11663 Off ch=1 n=d5 v=64
11664 On ch=1 n=b4 v=81
11711 Off ch=1 n=b4 v=64
11712 TimeSig 1/4 96 8
11712 On ch=1 n=c5 v=81
11723 Off ch=1 n=c5 v=64
11724 On ch=1 n=d5 v=81
11735 Off ch=1 n=d5 v=64
11736 On ch=1 n=c5 v=81
11747 Off ch=1 n=c5 v=64
11748 On ch=1 n=d5 v=81
11759 Off ch=1 n=d5 v=64
11760 On ch=1 n=c5 v=81
11771 Off ch=1 n=c5 v=64
11772 On ch=1 n=d5 v=81
11783 Off ch=1 n=d5 v=64
11784 On ch=1 n=c5 v=81
11795 Off ch=1 n=c5 v=64
11796 On ch=1 n=d5 v=81
11807 Off ch=1 n=d5 v=64
11808 On ch=1 n=c5 v=81
11819 Off ch=1 n=c5 v=64
11820 On ch=1 n=d5 v=81
11831 Off ch=1 n=d5 v=64
11832 On ch=1 n=c5 v=81
11843 Off ch=1 n=c5 v=64
11844 On ch=1 n=d5 v=81
11855 Off ch=1 n=d5 v=64
11856 On ch=1 n=c5 v=81
11867 Off ch=1 n=c5 v=64
11868 On ch=1 n=d5 v=81
11879 Off ch=1 n=d5 v=64
11880 On ch=1 n=c5 v=81
11891 Off ch=1 n=c5 v=64
11892 On ch=1 n=d5 v=81
11903 Off ch=1 n=d5 v=64
11904 On ch=1 n=c5 v=81
11915 Off ch=1 n=c5 v=64
11916 On ch=1 n=d5 v=81
11927 Off ch=1 n=d5 v=64
11928 On ch=1 n=c5 v=81
11939 Off ch=1 n=c5 v=64
11940 On ch=1 n=d5 v=81
11951 Off ch=1 n=d5 v=64
11952 On ch=1 n=c5 v=81
11963 Off ch=1 n=c5 v=64
11964 On ch=1 n=d5 v=81
11975 Off ch=1 n=d5 v=64
11976 On ch=1 n=c5 v=81
11987 Off ch=1 n=c5 v=64
11988 On ch=1 n=d5 v=81
11999 Off ch=1 n=d5 v=64
12000 On ch=1 n=c5 v=81
12011 Off ch=1 n=c5 v=64
12012 On ch=1 n=d5 v=81
12023 Off ch=1 n=d5 v=64
12024 On ch=1 n=c5 v=81
12035 Off ch=1 n=c5 v=64
12036 On ch=1 n=d5 v=81
12047 Off ch=1 n=d5 v=64
12048 On ch=1 n=c5 v=81
12059 Off ch=1 n=c5 v=64
12060 On ch=1 n=d5 v=81
12071 Off ch=1 n=d5 v=64
12072 On ch=1 n=c5 v=81
12083 Off ch=1 n=c5 v=64
12084 On ch=1 n=d5 v=81
12095 Off ch=1 n=d5 v=64
12096 On ch=1 n=c5 v=81
12107 Off ch=1 n=c5 v=64
12108 On ch=1 n=d5 v=81
12119 Off ch=1 n=d5 v=64
12120 On ch=1 n=c5 v=81
12131 Off ch=1 n=c5 v=64
12132 On ch=1 n=d5 v=81
12143 Off ch=1 n=d5 v=64
12144 On ch=1 n=c5 v=81
12155 Off ch=1 n=c5 v=64
12156 On ch=1 n=d5 v=81
12167 Off ch=1 n=d5 v=64
12168 On ch=1 n=c5 v=81
12179 Off ch=1 n=c5 v=64
12180 On ch=1 n=d5 v=81
12191 Off ch=1 n=d5 v=64
12192 On ch=1 n=c5 v=81
12203 Off ch=1 n=c5 v=64
12204 On ch=1 n=d5 v=81
12215 Off ch=1 n=d5 v=64
12216 On ch=1 n=c5 v=81
12227 Off ch=1 n=c5 v=64
12228 On ch=1 n=d5 v=81
12239 Off ch=1 n=d5 v=64
12240 On ch=1 n=c5 v=81
12251 Off ch=1 n=c5 v=64
12252 On ch=1 n=d5 v=81
12263 Off ch=1 n=d5 v=64
12264 On ch=1 n=c5 v=81
12275 Off ch=1 n=c5 v=64
12276 On ch=1 n=d5 v=81
12287 Off ch=1 n=d5 v=64
12288 On ch=1 n=c5 v=81
12299 Off ch=1 n=c5 v=64
12300 On ch=1 n=d5 v=81
12311 Off ch=1 n=d5 v=64
12312 On ch=1 n=c5 v=81
12323 Off ch=1 n=c5 v=64
12324 On ch=1 n=d5 v=81
12335 Off ch=1 n=d5 v=64
12336 On ch=1 n=c5 v=81
12347 Off ch=1 n=c5 v=64
12348 On ch=1 n=d5 v=81
12359 Off ch=1 n=d5 v=64
12360 On ch=1 n=c5 v=81
12371 Off ch=1 n=c5 v=64
12372 On ch=1 n=d5 v=81
12383 Off ch=1 n=d5 v=64
12384 On ch=1 n=c5 v=81
12395 Off ch=1 n=c5 v=64
12396 On ch=1 n=d5 v=81
12407 Off ch=1 n=d5 v=64
12408 On ch=1 n=c5 v=81
12419 Off ch=1 n=c5 v=64
12420 On ch=1 n=d5 v=81
12431 Off ch=1 n=d5 v=64
12432 On ch=1 n=c5 v=81
12443 Off ch=1 n=c5 v=64
12444 On ch=1 n=d5 v=81
12455 Off ch=1 n=d5 v=64
12456 On ch=1 n=c5 v=81
12467 Off ch=1 n=c5 v=64
12468 On ch=1 n=d5 v=81
12479 Off ch=1 n=d5 v=64
12480 TimeSig 2/4 96 8
12480 Tempo 300000
12480 On ch=1 n=c5 v=81
12503 Off ch=1 n=c5 v=64
12504 On ch=1 n=d#5 v=81
12527 Off ch=1 n=d#5 v=64
12528 On ch=1 n=c5 v=81
12551 Off ch=1 n=c5 v=64
12552 On ch=1 n=b4 v=81
12575 Off ch=1 n=b4 v=64
12576 On ch=1 n=c5 v=81
12599 Off ch=1 n=c5 v=64
12600 On ch=1 n=d#5 v=81
12623 Off ch=1 n=d#5 v=64
12624 On ch=1 n=c5 v=81
12647 Off ch=1 n=c5 v=64
12648 On ch=1 n=b4 v=81
12671 Off ch=1 n=b4 v=64
12672 On ch=1 n=c5 v=81
12695 Off ch=1 n=c5 v=64
12696 On ch=1 n=d#5 v=81
12719 Off ch=1 n=d#5 v=64
12720 On ch=1 n=c5 v=81
12743 Off ch=1 n=c5 v=64
12744 On ch=1 n=b4 v=81
12767 Off ch=1 n=b4 v=64
12768 On ch=1 n=c5 v=81
12791 Off ch=1 n=c5 v=64
12792 On ch=1 n=d#5 v=81
12815 Off ch=1 n=d#5 v=64
12816 On ch=1 n=c5 v=81
12839 Off ch=1 n=c5 v=64
12840 On ch=1 n=b4 v=81
12863 Off ch=1 n=b4 v=64
12864 On ch=1 n=c5 v=81
12887 Off ch=1 n=c5 v=64
12888 On ch=1 n=d#5 v=81
12911 Off ch=1 n=d#5 v=64
12912 On ch=1 n=f#5 v=81
12935 Off ch=1 n=f#5 v=64
12936 On ch=1 n=b4 v=81
12959 Off ch=1 n=b4 v=64
12960 On ch=1 n=c5 v=81
12983 Off ch=1 n=c5 v=64
12984 On ch=1 n=d#5 v=81
13007 Off ch=1 n=d#5 v=64
13008 On ch=1 n=f#5 v=81
13031 Off ch=1 n=f#5 v=64
13032 On ch=1 n=b4 v=81
13055 Off ch=1 n=b4 v=64
13056 On ch=1 n=c5 v=81
13079 Off ch=1 n=c5 v=64
13080 On ch=1 n=d#5 v=81
13103 Off ch=1 n=d#5 v=64
13104 On ch=1 n=f#5 v=81
13127 Off ch=1 n=f#5 v=64
13128 On ch=1 n=b4 v=81
13151 Off ch=1 n=b4 v=64
13152 On ch=1 n=c5 v=81
13175 Off ch=1 n=c5 v=64
13176 On ch=1 n=d#5 v=81
13199 Off ch=1 n=d#5 v=64
13200 On ch=1 n=f#5 v=81
13223 Off ch=1 n=f#5 v=64
13224 On ch=1 n=b4 v=81
13247 Off ch=1 n=b4 v=64
13248 On ch=1 n=c5 v=81
13271 Off ch=1 n=c5 v=64
13272 On ch=1 n=d#5 v=81
13295 Off ch=1 n=d#5 v=64
13296 On ch=1 n=f#5 v=81
13319 Off ch=1 n=f#5 v=64
13320 On ch=1 n=a5 v=81
13343 Off ch=1 n=a5 v=64
13344 On ch=1 n=f#5 v=81
13367 Off ch=1 n=f#5 v=64
13368 On ch=1 n=d#5 v=81
13391 Off ch=1 n=d#5 v=64
13392 On ch=1 n=c5 v=81
13415 Off ch=1 n=c5 v=64
13416 On ch=1 n=b4 v=81
13439 Off ch=1 n=b4 v=64
13440 On ch=1 n=c5 v=81
13463 Off ch=1 n=c5 v=64
13464 On ch=1 n=d#5 v=81
13487 Off ch=1 n=d#5 v=64
13488 On ch=1 n=f#5 v=81
13511 Off ch=1 n=f#5 v=64
13512 On ch=1 n=a5 v=81
13535 Off ch=1 n=a5 v=64
13536 On ch=1 n=f#5 v=81
13559 Off ch=1 n=f#5 v=64
13560 On ch=1 n=d#5 v=81
13583 Off ch=1 n=d#5 v=64
13584 On ch=1 n=c5 v=81
13607 Off ch=1 n=c5 v=64
13608 On ch=1 n=b4 v=81
13631 Off ch=1 n=b4 v=64
13632 On ch=1 n=c5 v=81
13655 Off ch=1 n=c5 v=64
13656 On ch=1 n=d#5 v=81
13679 Off ch=1 n=d#5 v=64
13680 On ch=1 n=f#5 v=81
13703 Off ch=1 n=f#5 v=64
13704 On ch=1 n=a5 v=81
13727 Off ch=1 n=a5 v=64
13728 On ch=1 n=f#5 v=81
13751 Off ch=1 n=f#5 v=64
13752 On ch=1 n=d#5 v=81
13775 Off ch=1 n=d#5 v=64
13776 On ch=1 n=c5 v=81
13799 Off ch=1 n=c5 v=64
13800 On ch=1 n=b4 v=81
13823 Off ch=1 n=b4 v=64
13824 On ch=1 n=c5 v=81
13847 Off ch=1 n=c5 v=64
13848 On ch=1 n=d#5 v=81
13871 Off ch=1 n=d#5 v=64
13872 On ch=1 n=f#5 v=81
13895 Off ch=1 n=f#5 v=64
13896 On ch=1 n=a5 v=81
13919 Off ch=1 n=a5 v=64
13920 On ch=1 n=f#5 v=81
13943 Off ch=1 n=f#5 v=64
13944 On ch=1 n=d#5 v=81
13967 Off ch=1 n=d#5 v=64
13968 On ch=1 n=c5 v=81
13991 Off ch=1 n=c5 v=64
13992 On ch=1 n=b4 v=81
14015 Off ch=1 n=b4 v=64
14016 On ch=1 n=c5 v=81
14039 Off ch=1 n=c5 v=64
14040 On ch=1 n=d#5 v=81
14063 Off ch=1 n=d#5 v=64
14064 On ch=1 n=f#5 v=81
14087 Off ch=1 n=f#5 v=64
14088 On ch=1 n=a5 v=81
14111 Off ch=1 n=a5 v=64
14112 On ch=1 n=b5 v=81
14135 Off ch=1 n=b5 v=64
14136 On ch=1 n=c6 v=81
14159 Off ch=1 n=c6 v=64
14160 On ch=1 n=d#6 v=81
14183 Off ch=1 n=d#6 v=64
14184 On ch=1 n=f#6 v=81
14207 Off ch=1 n=f#6 v=64
14208 On ch=1 n=a6 v=81
14231 Off ch=1 n=a6 v=64
14232 On ch=1 n=f#6 v=81
14255 Off ch=1 n=f#6 v=64
14256 On ch=1 n=d#6 v=81
14279 Off ch=1 n=d#6 v=64
14280 On ch=1 n=c6 v=81
14303 Off ch=1 n=c6 v=64
14304 On ch=1 n=b5 v=81
14327 Off ch=1 n=b5 v=64
14328 On ch=1 n=a5 v=81
14351 Off ch=1 n=a5 v=64
14352 On ch=1 n=f#5 v=81
14375 Off ch=1 n=f#5 v=64
14376 On ch=1 n=d#5 v=81
14399 Off ch=1 n=d#5 v=64
14400 On ch=1 n=c5 v=81
14423 Off ch=1 n=c5 v=64
14424 On ch=1 n=d#5 v=81
14447 Off ch=1 n=d#5 v=64
14448 On ch=1 n=f#5 v=81
14471 Off ch=1 n=f#5 v=64
14472 On ch=1 n=a5 v=81
14495 Off ch=1 n=a5 v=64
14496 On ch=1 n=b5 v=81
14519 Off ch=1 n=b5 v=64
14520 On ch=1 n=c6 v=81
14543 Off ch=1 n=c6 v=64
14544 On ch=1 n=d#6 v=81
14567 Off ch=1 n=d#6 v=64
14568 On ch=1 n=f#6 v=81
14591 Off ch=1 n=f#6 v=64
14592 On ch=1 n=a6 v=81
14615 Off ch=1 n=a6 v=64
14616 On ch=1 n=f#6 v=81
14639 Off ch=1 n=f#6 v=64
14640 On ch=1 n=d#6 v=81
14663 Off ch=1 n=d#6 v=64
14664 On ch=1 n=c6 v=81
14687 Off ch=1 n=c6 v=64
14688 On ch=1 n=b5 v=81
14711 Off ch=1 n=b5 v=64
14712 On ch=1 n=a5 v=81
14735 Off ch=1 n=a5 v=64
14736 On ch=1 n=f#5 v=81
14759 Off ch=1 n=f#5 v=64
14760 On ch=1 n=d#5 v=81
14783 Off ch=1 n=d#5 v=64
14784 On ch=1 n=c5 v=81
14831 Off ch=1 n=c5 v=64
14832 On ch=1 n=d#5 v=81
14879 Off ch=1 n=d#5 v=64
14880 On ch=1 n=f#5 v=81
14927 Off ch=1 n=f#5 v=64
14928 On ch=1 n=a5 v=81
14975 Off ch=1 n=a5 v=64
14976 On ch=1 n=b5 v=81
15023 Off ch=1 n=b5 v=64
15024 On ch=1 n=c6 v=81
15071 Off ch=1 n=c6 v=64
15072 On ch=1 n=d#6 v=81
15119 Off ch=1 n=d#6 v=64
15120 On ch=1 n=f#6 v=81
15167 Off ch=1 n=f#6 v=64
15168 On ch=1 n=a6 v=81
15263 Off ch=1 n=a6 v=64
15264 On ch=1 n=b6 v=81
15359 Off ch=1 n=b6 v=64
15360 On ch=1 n=c7 v=81
15455 Off ch=1 n=c7 v=64
15456 On ch=1 n=d#7 v=81
15551 Off ch=1 n=d#7 v=64
15744 On ch=1 n=a6 v=81
15768 On ch=1 n=c7 v=81
15792 On ch=1 n=d#7 v=81
15935 Off ch=1 n=a6 v=64
15935 Off ch=1 n=c7 v=64
15935 Off ch=1 n=d#7 v=64
16128 On ch=1 n=g6 v=81
16152 On ch=1 n=c7 v=81
16176 On ch=1 n=d#7 v=81
16319 Off ch=1 n=g6 v=64
16319 Off ch=1 n=c7 v=64
16319 Off ch=1 n=d#7 v=64
16320 On ch=1 n=f#6 v=81
16343 Off ch=1 n=f#6 v=64
16344 On ch=1 n=c7 v=81
16367 Off ch=1 n=c7 v=64
16368 On ch=1 n=f#6 v=81
16391 Off ch=1 n=f#6 v=64
16392 On ch=1 n=c7 v=81
16415 Off ch=1 n=c7 v=64
16416 On ch=1 n=f#6 v=81
16439 Off ch=1 n=f#6 v=64
16440 On ch=1 n=c7 v=81
16463 Off ch=1 n=c7 v=64
16464 On ch=1 n=f#6 v=81
16487 Off ch=1 n=f#6 v=64
16488 On ch=1 n=c7 v=81
16511 Off ch=1 n=c7 v=64
16512 On ch=1 n=f#6 v=81
16535 Off ch=1 n=f#6 v=64
16536 On ch=1 n=c7 v=81
16559 Off ch=1 n=c7 v=64
16560 On ch=1 n=f#6 v=81
16583 Off ch=1 n=f#6 v=64
16584 On ch=1 n=c7 v=81
16607 Off ch=1 n=c7 v=64
16608 On ch=1 n=f#6 v=81
16631 Off ch=1 n=f#6 v=64
16632 On ch=1 n=c7 v=81
16655 Off ch=1 n=c7 v=64
16656 On ch=1 n=f#6 v=81
16679 Off ch=1 n=f#6 v=64
16680 On ch=1 n=c7 v=81
16703 Off ch=1 n=c7 v=64
16704 On ch=1 n=f#6 v=81
16727 Off ch=1 n=f#6 v=64
16728 On ch=1 n=c7 v=81
16751 Off ch=1 n=c7 v=64
16752 On ch=1 n=f#6 v=81
16775 Off ch=1 n=f#6 v=64
16776 On ch=1 n=c7 v=81
16799 Off ch=1 n=c7 v=64
16800 On ch=1 n=f6 v=81
16823 Off ch=1 n=f6 v=64
16824 On ch=1 n=b6 v=81
16847 Off ch=1 n=b6 v=64
16848 On ch=1 n=f6 v=81
16871 Off ch=1 n=f6 v=64
16872 On ch=1 n=b6 v=81
16895 Off ch=1 n=b6 v=64
16896 On ch=1 n=f#6 v=81
16919 Off ch=1 n=f#6 v=64
16920 On ch=1 n=c7 v=81
16943 Off ch=1 n=c7 v=64
16944 On ch=1 n=f#6 v=81
16967 Off ch=1 n=f#6 v=64
16968 On ch=1 n=c7 v=81
16991 Off ch=1 n=c7 v=64
16992 On ch=1 n=f6 v=81
17015 Off ch=1 n=f6 v=64
17016 On ch=1 n=b6 v=81
17039 Off ch=1 n=b6 v=64
17040 On ch=1 n=f6 v=81
17063 Off ch=1 n=f6 v=64
17064 On ch=1 n=b6 v=81
17087 Off ch=1 n=b6 v=64
17088 On ch=1 n=f#6 v=81
17111 Off ch=1 n=f#6 v=64
17112 On ch=1 n=c7 v=81
17135 Off ch=1 n=c7 v=64
17136 On ch=1 n=f#6 v=81
17159 Off ch=1 n=f#6 v=64
17160 On ch=1 n=c7 v=81
17183 Off ch=1 n=c7 v=64
17184 On ch=1 n=f#6 v=81
17207 Off ch=1 n=f#6 v=64
17208 On ch=1 n=c7 v=81
17231 Off ch=1 n=c7 v=64
17232 On ch=1 n=f#6 v=81
17255 Off ch=1 n=f#6 v=64
17256 On ch=1 n=c7 v=81
17279 Off ch=1 n=c7 v=64
17280 On ch=1 n=f#6 v=81
17303 Off ch=1 n=f#6 v=64
17304 On ch=1 n=c7 v=81
17327 Off ch=1 n=c7 v=64
17328 On ch=1 n=f#6 v=81
17351 Off ch=1 n=f#6 v=64
17352 On ch=1 n=c7 v=81
17375 Off ch=1 n=c7 v=64
17376 On ch=1 n=f#6 v=81
17399 Off ch=1 n=f#6 v=64
17400 On ch=1 n=c7 v=81
17423 Off ch=1 n=c7 v=64
17424 On ch=1 n=f#6 v=81
17447 Off ch=1 n=f#6 v=64
17448 On ch=1 n=c7 v=81
17471 Off ch=1 n=c7 v=64
17472 On ch=1 n=f#6 v=81
17495 Off ch=1 n=f#6 v=64
17496 On ch=1 n=c7 v=81
17519 Off ch=1 n=c7 v=64
17520 On ch=1 n=f#6 v=81
17543 Off ch=1 n=f#6 v=64
17544 On ch=1 n=c7 v=81
17567 Off ch=1 n=c7 v=64
17568 On ch=1 n=f6 v=81
17591 Off ch=1 n=f6 v=64
17592 On ch=1 n=b6 v=81
17615 Off ch=1 n=b6 v=64
17616 On ch=1 n=f6 v=81
17639 Off ch=1 n=f6 v=64
17640 On ch=1 n=b6 v=81
17663 Off ch=1 n=b6 v=64
17664 On ch=1 n=f#6 v=81
17687 Off ch=1 n=f#6 v=64
17688 On ch=1 n=c7 v=81
17711 Off ch=1 n=c7 v=64
17712 On ch=1 n=f#6 v=81
17735 Off ch=1 n=f#6 v=64
17736 On ch=1 n=c7 v=81
17759 Off ch=1 n=c7 v=64
17760 On ch=1 n=f6 v=81
17783 Off ch=1 n=f6 v=64
17784 On ch=1 n=b6 v=81
17807 Off ch=1 n=b6 v=64
17808 On ch=1 n=f6 v=81
17831 Off ch=1 n=f6 v=64
17832 On ch=1 n=b6 v=81
17855 Off ch=1 n=b6 v=64
17856 On ch=1 n=f#6 v=81
17879 Off ch=1 n=f#6 v=64
17880 On ch=1 n=c7 v=81
17903 Off ch=1 n=c7 v=64
17904 On ch=1 n=f#6 v=81
17927 Off ch=1 n=f#6 v=64
17928 On ch=1 n=c7 v=81
17951 Off ch=1 n=c7 v=64
17952 On ch=1 n=f6 v=81
17975 Off ch=1 n=f6 v=64
17976 On ch=1 n=b6 v=81
17999 Off ch=1 n=b6 v=64
18000 On ch=1 n=f6 v=81
18023 Off ch=1 n=f6 v=64
18024 On ch=1 n=b6 v=81
18047 Off ch=1 n=b6 v=64
18048 On ch=1 n=f#6 v=81
18071 Off ch=1 n=f#6 v=64
18072 On ch=1 n=c7 v=81
18095 Off ch=1 n=c7 v=64
18096 On ch=1 n=f#6 v=81
18119 Off ch=1 n=f#6 v=64
18120 On ch=1 n=c7 v=81
18143 Off ch=1 n=c7 v=64
18144 On ch=1 n=f#6 v=81
18167 Off ch=1 n=f#6 v=64
18168 On ch=1 n=c7 v=81
18191 Off ch=1 n=c7 v=64
18192 On ch=1 n=f#6 v=81
18215 Off ch=1 n=f#6 v=64
18216 On ch=1 n=c7 v=81
18239 Off ch=1 n=c7 v=64
18240 On ch=1 n=f#6 v=81
18264 On ch=1 n=c7 v=81
18431 Off ch=1 n=f#6 v=64
18431 Off ch=1 n=c7 v=64
18816 Tempo 300000
18821 Tempo 301507
18826 Tempo 303030
18831 Tempo 304568
18836 Tempo 306122
18841 Tempo 307692
18846 Tempo 309278
18851 Tempo 310880
18856 Tempo 312500
18861 Tempo 314136
18866 Tempo 315789
18871 Tempo 317460
18876 Tempo 319148
18881 Tempo 320855
18886 Tempo 322580
18891 Tempo 324324
18896 Tempo 326086
18901 Tempo 327868
18906 Tempo 329670
18911 Tempo 331491
18912 On ch=1 n=c5 v=81
18916 Tempo 333333
18921 Tempo 335195
18926 Tempo 337078
18931 Tempo 338983
18936 Tempo 340909
18941 Tempo 342857
18946 Tempo 344827
18951 Tempo 346820
18956 Tempo 348837
18961 Tempo 350877
18966 Tempo 352941
18971 Tempo 355029
18976 Tempo 357142
18981 Tempo 359281
18986 Tempo 361445
18991 Tempo 363636
18996 Tempo 365853
19001 Tempo 368098
19006 Tempo 370370
19007 Off ch=1 n=c5 v=64
19008 On ch=1 n=c#5 v=81
19011 Tempo 372670
19016 Tempo 375000
19021 Tempo 377358
19026 Tempo 379746
19031 Tempo 382165
19036 Tempo 384615
19041 Tempo 387096
19046 Tempo 389610
19051 Tempo 392156
19056 Tempo 394736
19061 Tempo 397350
19066 Tempo 400000
19071 Tempo 402684
19076 Tempo 405405
19081 Tempo 408163
19086 Tempo 410958
19091 Tempo 413793
19096 Tempo 416666
19101 Tempo 419580
19103 Off ch=1 n=c#5 v=64
19104 On ch=1 n=e5 v=81
19106 Tempo 422535
19111 Tempo 425531
19116 Tempo 428571
19121 Tempo 431654
19126 Tempo 434782
19131 Tempo 437956
19136 Tempo 441176
19141 Tempo 444444
19146 Tempo 447761
19151 Tempo 451127
19156 Tempo 454545
19161 Tempo 458015
19166 Tempo 461538
19199 Off ch=1 n=e5 v=64
19200 On ch=1 n=f5 v=81
19200 On ch=1 n=c5 v=81
19391 Off ch=1 n=f5 v=64
19392 On ch=1 n=f#5 v=81
19535 Off ch=1 n=f#5 v=64
19536 On ch=1 n=e5 v=81
19583 Off ch=1 n=c5 v=64
19583 Off ch=1 n=e5 v=64
19584 On ch=1 n=c5 v=81
19584 On ch=1 n=f5 v=81
19727 Off ch=1 n=f5 v=64
19752 On ch=1 n=g#5 v=81
19775 Off ch=1 n=g#5 v=64
19776 On ch=1 n=f#5 v=81
19871 Off ch=1 n=f#5 v=64
19872 On ch=1 n=d#5 v=81
19967 Off ch=1 n=c5 v=64
19967 Off ch=1 n=d#5 v=64
19968 On ch=1 n=f5 v=81
19968 On ch=1 n=c5 v=81
20159 Off ch=1 n=f5 v=64
20160 On ch=1 n=f#5 v=81
20303 Off ch=1 n=f#5 v=64
20304 On ch=1 n=e5 v=81
20351 Off ch=1 n=c5 v=64
20351 Off ch=1 n=e5 v=64
20352 On ch=1 n=c5 v=81
20352 On ch=1 n=f5 v=81
20495 Off ch=1 n=f5 v=64
20520 On ch=1 n=g#5 v=81
20543 Off ch=1 n=g#5 v=64
20544 On ch=1 n=f#5 v=81
20639 Off ch=1 n=f#5 v=64
20640 On ch=1 n=d#5 v=81
20735 Off ch=1 n=c5 v=64
20735 Off ch=1 n=d#5 v=64
20736 On ch=1 n=c#5 v=81
20832 On ch=1 n=f5 v=81
20927 Off ch=1 n=c#5 v=64
20927 Off ch=1 n=f5 v=64
20928 On ch=1 n=c#5 v=81
20928 On ch=1 n=g5 v=81
21071 Off ch=1 n=g5 v=64
21072 On ch=1 n=a5 v=81
21119 Off ch=1 n=a5 v=64
21120 On ch=1 n=a#5 v=81
21311 Off ch=1 n=c#5 v=64
21311 Off ch=1 n=a#5 v=64
21312 On ch=1 n=c6 v=81
21312 On ch=1 n=f5 v=81
21407 Off ch=1 n=f5 v=64
21408 On ch=1 n=d#5 v=81
21503 Off ch=1 n=c6 v=64
21503 Off ch=1 n=d#5 v=64
21504 On ch=1 n=c#5 v=81
21504 On ch=1 n=c#6 v=81
21599 Off ch=1 n=c#6 v=64
21600 On ch=1 n=f5 v=81
21695 Off ch=1 n=c#5 v=64
21695 Off ch=1 n=f5 v=64
21696 On ch=1 n=c#5 v=81
21696 On ch=1 n=g5 v=81
21839 Off ch=1 n=g5 v=64
21840 On ch=1 n=a5 v=81
21887 Off ch=1 n=c#5 v=64
21887 Off ch=1 n=a5 v=64
21888 On ch=1 n=a#5 v=81
21888 On ch=1 n=c#5 v=81
22079 Off ch=1 n=a#5 v=64
22079 Off ch=1 n=c#5 v=64
22104 On ch=1 n=c5 v=81
22128 On ch=1 n=f5 v=81
22152 On ch=1 n=c6 v=81
22271 Off ch=1 n=c5 v=64
22296 On ch=1 n=c#5 v=81
22320 On ch=1 n=f5 v=81
22344 On ch=1 n=c#6 v=81
22367 Off ch=1 n=f5 v=64
22367 Off ch=1 n=c6 v=64
22463 Off ch=1 n=c#5 v=64
22559 Off ch=1 n=f5 v=64
22559 Off ch=1 n=c#6 v=64
22560 On ch=1 n=c6 v=81
22607 Off ch=1 n=c6 v=64
22608 On ch=1 n=c#6 v=81
22655 Off ch=1 n=c#6 v=64
22656 On ch=1 n=d#6 v=81
22703 Off ch=1 n=d#6 v=64
22704 On ch=1 n=c#6 v=81
22751 Off ch=1 n=c#6 v=64
22752 On ch=1 n=c6 v=81
22799 Off ch=1 n=c6 v=64
22800 On ch=1 n=a#5 v=81
22847 Off ch=1 n=a#5 v=64
22848 On ch=1 n=a5 v=81
22895 Off ch=1 n=a5 v=64
22896 On ch=1 n=a#5 v=81
22943 Off ch=1 n=a#5 v=64
22944 On ch=1 n=c6 v=81
22991 Off ch=1 n=c6 v=64
22992 On ch=1 n=a#5 v=81
23039 Off ch=1 n=a#5 v=64
23040 On ch=1 n=g#5 v=81
23087 Off ch=1 n=g#5 v=64
23088 On ch=1 n=g5 v=81
23135 Off ch=1 n=g5 v=64
23136 On ch=1 n=f5 v=81
23183 Off ch=1 n=f5 v=64
23184 On ch=1 n=g5 v=81
23231 Off ch=1 n=g5 v=64
23232 On ch=1 n=g#5 v=81
23279 Off ch=1 n=g#5 v=64
23280 On ch=1 n=g5 v=81
23327 Off ch=1 n=g5 v=64
23328 On ch=1 n=f5 v=81
23375 Off ch=1 n=f5 v=64
23376 On ch=1 n=e5 v=81
23423 Off ch=1 n=e5 v=64
23424 On ch=1 n=f5 v=81
23471 Off ch=1 n=f5 v=64
23472 On ch=1 n=d#5 v=81
23519 Off ch=1 n=d#5 v=64
23520 On ch=1 n=c#5 v=81
23567 Off ch=1 n=c#5 v=64
23568 On ch=1 n=d#5 v=81
23615 Off ch=1 n=d#5 v=64
23616 On ch=1 n=f5 v=81
23663 Off ch=1 n=f5 v=64
23664 On ch=1 n=d#5 v=81
23711 Off ch=1 n=d#5 v=64
23712 On ch=1 n=c#5 v=81
23759 Off ch=1 n=c#5 v=64
23760 On ch=1 n=c5 v=81
23807 Off ch=1 n=c5 v=64
23808 On ch=1 n=c#5 v=81
23999 Off ch=1 n=c#5 v=64
24000 On ch=1 n=d5 v=81
24143 Off ch=1 n=d5 v=64
24144 On ch=1 n=c5 v=81
24191 Off ch=1 n=c5 v=64
24192 On ch=1 n=c#5 v=81
24335 Off ch=1 n=c#5 v=64
24360 On ch=1 n=e5 v=81
24383 Off ch=1 n=e5 v=64
24384 On ch=1 n=d#5 v=81
24527 Off ch=1 n=d#5 v=64
24528 On ch=1 n=b4 v=81
24575 Off ch=1 n=b4 v=64
24576 On ch=1 n=c#5 v=81
24767 Off ch=1 n=c#5 v=64
24768 On ch=1 n=d5 v=81
24911 Off ch=1 n=d5 v=64
24912 On ch=1 n=c5 v=81
24959 Off ch=1 n=c5 v=64
24960 On ch=1 n=c#5 v=81
25103 Off ch=1 n=c#5 v=64
25128 On ch=1 n=e5 v=81
25151 Off ch=1 n=e5 v=64
25152 On ch=1 n=d#5 v=81
25295 Off ch=1 n=d#5 v=64
25296 On ch=1 n=c5 v=81
25343 Off ch=1 n=c5 v=64
25344 On ch=1 n=c#5 v=81
25355 Off ch=1 n=c#5 v=64
25356 On ch=1 n=d#5 v=81
25367 Off ch=1 n=d#5 v=64
25368 On ch=1 n=c#5 v=81
25379 Off ch=1 n=c#5 v=64
25380 On ch=1 n=d#5 v=81
25391 Off ch=1 n=d#5 v=64
25392 On ch=1 n=c#5 v=81
25403 Off ch=1 n=c#5 v=64
25404 On ch=1 n=d#5 v=81
25415 Off ch=1 n=d#5 v=64
25416 On ch=1 n=c#5 v=81
25427 Off ch=1 n=c#5 v=64
25428 On ch=1 n=d#5 v=81
25439 Off ch=1 n=d#5 v=64
25440 On ch=1 n=c#5 v=81
25451 Off ch=1 n=c#5 v=64
25452 On ch=1 n=d#5 v=81
25463 Off ch=1 n=d#5 v=64
25464 On ch=1 n=c#5 v=81
25475 Off ch=1 n=c#5 v=64
25476 On ch=1 n=d#5 v=81
25487 Off ch=1 n=d#5 v=64
25488 On ch=1 n=c#5 v=81
25499 Off ch=1 n=c#5 v=64
25500 On ch=1 n=d#5 v=81
25511 Off ch=1 n=d#5 v=64
25512 On ch=1 n=c#5 v=81
25523 Off ch=1 n=c#5 v=64
25524 On ch=1 n=d#5 v=81
25535 Off ch=1 n=d#5 v=64
25536 On ch=1 n=c#5 v=81
25547 Off ch=1 n=c#5 v=64
25548 On ch=1 n=d#5 v=81
25559 Off ch=1 n=d#5 v=64
25560 On ch=1 n=c#5 v=81
25571 Off ch=1 n=c#5 v=64
25572 On ch=1 n=d#5 v=81
25583 Off ch=1 n=d#5 v=64
25584 On ch=1 n=c#5 v=81
25595 Off ch=1 n=c#5 v=64
25596 On ch=1 n=d#5 v=81
25607 Off ch=1 n=d#5 v=64
25608 On ch=1 n=c#5 v=81
25619 Off ch=1 n=c#5 v=64
25620 On ch=1 n=d#5 v=81
25631 Off ch=1 n=d#5 v=64
25632 On ch=1 n=c#5 v=81
25643 Off ch=1 n=c#5 v=64
25644 On ch=1 n=d#5 v=81
25655 Off ch=1 n=d#5 v=64
25656 On ch=1 n=c#5 v=81
25667 Off ch=1 n=c#5 v=64
25668 On ch=1 n=d#5 v=81
25679 Off ch=1 n=d#5 v=64
25680 On ch=1 n=c#5 v=81
25691 Off ch=1 n=c#5 v=64
25692 On ch=1 n=d#5 v=81
25703 Off ch=1 n=d#5 v=64
25704 On ch=1 n=c#5 v=81
25715 Off ch=1 n=c#5 v=64
25716 On ch=1 n=d#5 v=81
25727 Off ch=1 n=d#5 v=64
25728 On ch=1 n=c#5 v=81
25739 Off ch=1 n=c#5 v=64
25740 On ch=1 n=d#5 v=81
25751 Off ch=1 n=d#5 v=64
25752 On ch=1 n=c#5 v=81
25763 Off ch=1 n=c#5 v=64
25764 On ch=1 n=d#5 v=81
25775 Off ch=1 n=d#5 v=64
25776 On ch=1 n=c#5 v=81
25787 Off ch=1 n=c#5 v=64
25788 On ch=1 n=d#5 v=81
25799 Off ch=1 n=d#5 v=64
25800 On ch=1 n=c#5 v=81
25811 Off ch=1 n=c#5 v=64
25812 On ch=1 n=d#5 v=81
25823 Off ch=1 n=d#5 v=64
25824 On ch=1 n=c#5 v=81
25835 Off ch=1 n=c#5 v=64
25836 On ch=1 n=d#5 v=81
25847 Off ch=1 n=d#5 v=64
25848 On ch=1 n=c#5 v=81
25859 Off ch=1 n=c#5 v=64
25860 On ch=1 n=d#5 v=81
25871 Off ch=1 n=d#5 v=64
25872 On ch=1 n=c#5 v=81
25883 Off ch=1 n=c#5 v=64
25884 On ch=1 n=d#5 v=81
25895 Off ch=1 n=d#5 v=64
25896 On ch=1 n=c#5 v=81
25907 Off ch=1 n=c#5 v=64
25908 On ch=1 n=d#5 v=81
25919 Off ch=1 n=d#5 v=64
25920 On ch=1 n=c#5 v=81
25931 Off ch=1 n=c#5 v=64
25932 On ch=1 n=d#5 v=81
25943 Off ch=1 n=d#5 v=64
25944 On ch=1 n=c#5 v=81
25955 Off ch=1 n=c#5 v=64
25956 On ch=1 n=d#5 v=81
25967 Off ch=1 n=d#5 v=64
25968 On ch=1 n=c#5 v=81
25979 Off ch=1 n=c#5 v=64
25980 On ch=1 n=d#5 v=81
25991 Off ch=1 n=d#5 v=64
25992 On ch=1 n=c#5 v=81
26003 Off ch=1 n=c#5 v=64
26004 On ch=1 n=d#5 v=81
26015 Off ch=1 n=d#5 v=64
26016 On ch=1 n=c#5 v=81
26027 Off ch=1 n=c#5 v=64
26028 On ch=1 n=d#5 v=81
26039 Off ch=1 n=d#5 v=64
26040 On ch=1 n=c#5 v=81
26051 Off ch=1 n=c#5 v=64
26052 On ch=1 n=d#5 v=81
26063 Off ch=1 n=d#5 v=64
26064 On ch=1 n=c#5 v=81
26075 Off ch=1 n=c#5 v=64
26076 On ch=1 n=d#5 v=81
26087 Off ch=1 n=d#5 v=64
26088 On ch=1 n=c#5 v=81
26099 Off ch=1 n=c#5 v=64
26100 On ch=1 n=d#5 v=81
26111 Off ch=1 n=d#5 v=64
26112 Tempo 300000
26112 On ch=1 n=c#5 v=81
26135 Off ch=1 n=c#5 v=64
26136 On ch=1 n=e5 v=81
26159 Off ch=1 n=e5 v=64
26160 On ch=1 n=c#5 v=81
26183 Off ch=1 n=c#5 v=64
26184 On ch=1 n=c5 v=81
26207 Off ch=1 n=c5 v=64
26208 On ch=1 n=c#5 v=81
26231 Off ch=1 n=c#5 v=64
26232 On ch=1 n=e5 v=81
26255 Off ch=1 n=e5 v=64
26256 On ch=1 n=c#5 v=81
26279 Off ch=1 n=c#5 v=64
26280 On ch=1 n=c5 v=81
26303 Off ch=1 n=c5 v=64
26304 On ch=1 n=c#5 v=81
26327 Off ch=1 n=c#5 v=64
26328 On ch=1 n=e5 v=81
26351 Off ch=1 n=e5 v=64
26352 On ch=1 n=c#5 v=81
26375 Off ch=1 n=c#5 v=64
26376 On ch=1 n=c5 v=81
26399 Off ch=1 n=c5 v=64
26400 On ch=1 n=c#5 v=81
26423 Off ch=1 n=c#5 v=64
26424 On ch=1 n=e5 v=81
26447 Off ch=1 n=e5 v=64
26448 On ch=1 n=c#5 v=81
26471 Off ch=1 n=c#5 v=64
26472 On ch=1 n=c5 v=81
26495 Off ch=1 n=c5 v=64
26496 On ch=1 n=c#5 v=81
26519 Off ch=1 n=c#5 v=64
26520 On ch=1 n=e5 v=81
26543 Off ch=1 n=e5 v=64
26544 On ch=1 n=g5 v=81
26567 Off ch=1 n=g5 v=64
26568 On ch=1 n=c5 v=81
26591 Off ch=1 n=c5 v=64
26592 On ch=1 n=c#5 v=81
26615 Off ch=1 n=c#5 v=64
26616 On ch=1 n=e5 v=81
26639 Off ch=1 n=e5 v=64
26640 On ch=1 n=g5 v=81
26663 Off ch=1 n=g5 v=64
26664 On ch=1 n=c5 v=81
26687 Off ch=1 n=c5 v=64
26688 On ch=1 n=c#5 v=81
26711 Off ch=1 n=c#5 v=64
26712 On ch=1 n=e5 v=81
26735 Off ch=1 n=e5 v=64
26736 On ch=1 n=g5 v=81
26759 Off ch=1 n=g5 v=64
26760 On ch=1 n=c5 v=81
26783 Off ch=1 n=c5 v=64
26784 On ch=1 n=c#5 v=81
26807 Off ch=1 n=c#5 v=64
26808 On ch=1 n=e5 v=81
26831 Off ch=1 n=e5 v=64
26832 On ch=1 n=g5 v=81
26855 Off ch=1 n=g5 v=64
26856 On ch=1 n=c5 v=81
26879 Off ch=1 n=c5 v=64
26880 On ch=1 n=c#5 v=81
26903 Off ch=1 n=c#5 v=64
26904 On ch=1 n=e5 v=81
26927 Off ch=1 n=e5 v=64
26928 On ch=1 n=g5 v=81
26951 Off ch=1 n=g5 v=64
26952 On ch=1 n=a#5 v=81
26975 Off ch=1 n=a#5 v=64
26976 On ch=1 n=g5 v=81
26999 Off ch=1 n=g5 v=64
27000 On ch=1 n=e5 v=81
27023 Off ch=1 n=e5 v=64
27024 On ch=1 n=c#5 v=81
27047 Off ch=1 n=c#5 v=64
27048 On ch=1 n=c5 v=81
27071 Off ch=1 n=c5 v=64
27072 On ch=1 n=c#5 v=81
27095 Off ch=1 n=c#5 v=64
27096 On ch=1 n=e5 v=81
27119 Off ch=1 n=e5 v=64
27120 On ch=1 n=g5 v=81
27143 Off ch=1 n=g5 v=64
27144 On ch=1 n=a#5 v=81
27167 Off ch=1 n=a#5 v=64
27168 On ch=1 n=g5 v=81
27191 Off ch=1 n=g5 v=64
27192 On ch=1 n=e5 v=81
27215 Off ch=1 n=e5 v=64
27216 On ch=1 n=c#5 v=81
27239 Off ch=1 n=c#5 v=64
27240 On ch=1 n=c5 v=81
27263 Off ch=1 n=c5 v=64
27264 On ch=1 n=c#5 v=81
27287 Off ch=1 n=c#5 v=64
27288 On ch=1 n=e5 v=81
27311 Off ch=1 n=e5 v=64
27312 On ch=1 n=g5 v=81
27335 Off ch=1 n=g5 v=64
27336 On ch=1 n=a#5 v=81
27359 Off ch=1 n=a#5 v=64
27360 On ch=1 n=g5 v=81
27383 Off ch=1 n=g5 v=64
27384 On ch=1 n=e5 v=81
27407 Off ch=1 n=e5 v=64
27408 On ch=1 n=c#5 v=81
27431 Off ch=1 n=c#5 v=64
27432 On ch=1 n=c5 v=81
27455 Off ch=1 n=c5 v=64
27456 On ch=1 n=c#5 v=81
27479 Off ch=1 n=c#5 v=64
27480 On ch=1 n=e5 v=81
27503 Off ch=1 n=e5 v=64
27504 On ch=1 n=g5 v=81
27527 Off ch=1 n=g5 v=64
27528 On ch=1 n=a#5 v=81
27551 Off ch=1 n=a#5 v=64
27552 On ch=1 n=g5 v=81
27575 Off ch=1 n=g5 v=64
27576 On ch=1 n=e5 v=81
27599 Off ch=1 n=e5 v=64
27600 On ch=1 n=c#5 v=81
27623 Off ch=1 n=c#5 v=64
27624 On ch=1 n=c5 v=81
27647 Off ch=1 n=c5 v=64
27648 On ch=1 n=c#5 v=81
27671 Off ch=1 n=c#5 v=64
27672 On ch=1 n=e5 v=81
27695 Off ch=1 n=e5 v=64
27696 On ch=1 n=g5 v=81
27719 Off ch=1 n=g5 v=64
27720 On ch=1 n=a#5 v=81
27743 Off ch=1 n=a#5 v=64
27744 On ch=1 n=c6 v=81
27767 Off ch=1 n=c6 v=64
27768 On ch=1 n=c#6 v=81
27791 Off ch=1 n=c#6 v=64
27792 On ch=1 n=e6 v=81
27815 Off ch=1 n=e6 v=64
27816 On ch=1 n=g6 v=81
27839 Off ch=1 n=g6 v=64
27840 On ch=1 n=a#6 v=81
27863 Off ch=1 n=a#6 v=64
27864 On ch=1 n=g6 v=81
27887 Off ch=1 n=g6 v=64
27888 On ch=1 n=e6 v=81
27911 Off ch=1 n=e6 v=64
27912 On ch=1 n=c#6 v=81
27935 Off ch=1 n=c#6 v=64
27936 On ch=1 n=c6 v=81
27959 Off ch=1 n=c6 v=64
27960 On ch=1 n=a#5 v=81
27983 Off ch=1 n=a#5 v=64
27984 On ch=1 n=g5 v=81
28007 Off ch=1 n=g5 v=64
28008 On ch=1 n=e5 v=81
28031 Off ch=1 n=e5 v=64
28032 On ch=1 n=c#5 v=81
28055 Off ch=1 n=c#5 v=64
28056 On ch=1 n=e5 v=81
28079 Off ch=1 n=e5 v=64
28080 On ch=1 n=g5 v=81
28103 Off ch=1 n=g5 v=64
28104 On ch=1 n=a#5 v=81
28127 Off ch=1 n=a#5 v=64
28128 On ch=1 n=c6 v=81
28151 Off ch=1 n=c6 v=64
28152 On ch=1 n=c#6 v=81
28175 Off ch=1 n=c#6 v=64
28176 On ch=1 n=e6 v=81
28199 Off ch=1 n=e6 v=64
28200 On ch=1 n=g6 v=81
28223 Off ch=1 n=g6 v=64
28224 On ch=1 n=a#6 v=81
28247 Off ch=1 n=a#6 v=64
28248 On ch=1 n=g6 v=81
28271 Off ch=1 n=g6 v=64
28272 On ch=1 n=e6 v=81
28295 Off ch=1 n=e6 v=64
28296 On ch=1 n=c#6 v=81
28319 Off ch=1 n=c#6 v=64
28320 On ch=1 n=c6 v=81
28343 Off ch=1 n=c6 v=64
28344 On ch=1 n=a#5 v=81
28367 Off ch=1 n=a#5 v=64
28368 On ch=1 n=g5 v=81
28391 Off ch=1 n=g5 v=64
28392 On ch=1 n=e5 v=81
28415 Off ch=1 n=e5 v=64
28416 On ch=1 n=c#5 v=81
28463 Off ch=1 n=c#5 v=64
28464 On ch=1 n=e5 v=81
28511 Off ch=1 n=e5 v=64
28512 On ch=1 n=g5 v=81
28559 Off ch=1 n=g5 v=64
28560 On ch=1 n=a#5 v=81
28607 Off ch=1 n=a#5 v=64
28608 On ch=1 n=c6 v=81
28655 Off ch=1 n=c6 v=64
28656 On ch=1 n=c#6 v=81
28703 Off ch=1 n=c#6 v=64
28704 On ch=1 n=e6 v=81
28751 Off ch=1 n=e6 v=64
28752 On ch=1 n=g6 v=81
28799 Off ch=1 n=g6 v=64
28800 On ch=1 n=a#6 v=81
28895 Off ch=1 n=a#6 v=64
28896 On ch=1 n=c7 v=81
28991 Off ch=1 n=c7 v=64
28992 On ch=1 n=c#7 v=81
29087 Off ch=1 n=c#7 v=64
29088 On ch=1 n=e7 v=81
29183 Off ch=1 n=e7 v=64
29376 On ch=1 n=a#6 v=81
29400 On ch=1 n=c#7 v=81
29424 On ch=1 n=e7 v=81
29567 Off ch=1 n=a#6 v=64
29567 Off ch=1 n=c#7 v=64
29567 Off ch=1 n=e7 v=64
29760 On ch=1 n=g#6 v=81
29784 On ch=1 n=c#7 v=81
29808 On ch=1 n=e7 v=81
29951 Off ch=1 n=g#6 v=64
29951 Off ch=1 n=c#7 v=64
29951 Off ch=1 n=e7 v=64
29952 On ch=1 n=g6 v=81
29975 Off ch=1 n=g6 v=64
29976 On ch=1 n=c#7 v=81
29999 Off ch=1 n=c#7 v=64
30000 On ch=1 n=g6 v=81
30023 Off ch=1 n=g6 v=64
30024 On ch=1 n=c#7 v=81
30047 Off ch=1 n=c#7 v=64
30048 On ch=1 n=g6 v=81
30071 Off ch=1 n=g6 v=64
30072 On ch=1 n=c#7 v=81
30095 Off ch=1 n=c#7 v=64
30096 On ch=1 n=g6 v=81
30119 Off ch=1 n=g6 v=64
30120 On ch=1 n=c#7 v=81
30143 Off ch=1 n=c#7 v=64
30144 On ch=1 n=g6 v=81
30167 Off ch=1 n=g6 v=64
30168 On ch=1 n=c#7 v=81
30191 Off ch=1 n=c#7 v=64
30192 On ch=1 n=g6 v=81
30215 Off ch=1 n=g6 v=64
30216 On ch=1 n=c#7 v=81
30239 Off ch=1 n=c#7 v=64
30240 On ch=1 n=g6 v=81
30263 Off ch=1 n=g6 v=64
30264 On ch=1 n=c#7 v=81
30287 Off ch=1 n=c#7 v=64
30288 On ch=1 n=g6 v=81
30311 Off ch=1 n=g6 v=64
30312 On ch=1 n=c#7 v=81
30335 Off ch=1 n=c#7 v=64
30336 On ch=1 n=g6 v=81
30359 Off ch=1 n=g6 v=64
30360 On ch=1 n=c#7 v=81
30383 Off ch=1 n=c#7 v=64
30384 On ch=1 n=g6 v=81
30407 Off ch=1 n=g6 v=64
30408 On ch=1 n=c#7 v=81
30431 Off ch=1 n=c#7 v=64
30432 On ch=1 n=f#6 v=81
30455 Off ch=1 n=f#6 v=64
30456 On ch=1 n=c#7 v=81
30479 Off ch=1 n=c#7 v=64
30480 On ch=1 n=f#6 v=81
30503 Off ch=1 n=f#6 v=64
30504 On ch=1 n=c#7 v=81
30527 Off ch=1 n=c#7 v=64
30528 On ch=1 n=g6 v=81
30551 Off ch=1 n=g6 v=64
30552 On ch=1 n=c#7 v=81
30575 Off ch=1 n=c#7 v=64
30576 On ch=1 n=g6 v=81
30599 Off ch=1 n=g6 v=64
30600 On ch=1 n=c#7 v=81
30623 Off ch=1 n=c#7 v=64
30624 On ch=1 n=f#6 v=81
30647 Off ch=1 n=f#6 v=64
30648 On ch=1 n=c#7 v=81
30671 Off ch=1 n=c#7 v=64
30672 On ch=1 n=f#6 v=81
30695 Off ch=1 n=f#6 v=64
30696 On ch=1 n=c#7 v=81
30719 Off ch=1 n=c#7 v=64
30720 On ch=1 n=g6 v=81
30743 Off ch=1 n=g6 v=64
30744 On ch=1 n=c#7 v=81
30767 Off ch=1 n=c#7 v=64
30768 On ch=1 n=g6 v=81
30791 Off ch=1 n=g6 v=64
30792 On ch=1 n=c#7 v=81
30815 Off ch=1 n=c#7 v=64
30816 On ch=1 n=g6 v=81
30839 Off ch=1 n=g6 v=64
30840 On ch=1 n=c#7 v=81
30863 Off ch=1 n=c#7 v=64
30864 On ch=1 n=g6 v=81
30887 Off ch=1 n=g6 v=64
30888 On ch=1 n=c#7 v=81
30911 Off ch=1 n=c#7 v=64
30912 On ch=1 n=g6 v=81
30935 Off ch=1 n=g6 v=64
30936 On ch=1 n=c#7 v=81
30959 Off ch=1 n=c#7 v=64
30960 On ch=1 n=g6 v=81
30983 Off ch=1 n=g6 v=64
30984 On ch=1 n=c#7 v=81
31007 Off ch=1 n=c#7 v=64
31008 On ch=1 n=g6 v=81
31031 Off ch=1 n=g6 v=64
31032 On ch=1 n=c#7 v=81
31055 Off ch=1 n=c#7 v=64
31056 On ch=1 n=g6 v=81
31079 Off ch=1 n=g6 v=64
31080 On ch=1 n=c#7 v=81
31103 Off ch=1 n=c#7 v=64
31104 On ch=1 n=g6 v=81
31127 Off ch=1 n=g6 v=64
31128 On ch=1 n=c#7 v=81
31151 Off ch=1 n=c#7 v=64
31152 On ch=1 n=g6 v=81
31175 Off ch=1 n=g6 v=64
31176 On ch=1 n=c#7 v=81
31199 Off ch=1 n=c#7 v=64
31200 On ch=1 n=f#6 v=81
31223 Off ch=1 n=f#6 v=64
31224 On ch=1 n=c#7 v=81
31247 Off ch=1 n=c#7 v=64
31248 On ch=1 n=f#6 v=81
31271 Off ch=1 n=f#6 v=64
31272 On ch=1 n=c#7 v=81
31295 Off ch=1 n=c#7 v=64
31296 On ch=1 n=g6 v=81
31319 Off ch=1 n=g6 v=64
31320 On ch=1 n=c#7 v=81
31343 Off ch=1 n=c#7 v=64
31344 On ch=1 n=g6 v=81
31367 Off ch=1 n=g6 v=64
31368 On ch=1 n=c#7 v=81
31391 Off ch=1 n=c#7 v=64
31392 On ch=1 n=f#6 v=81
31415 Off ch=1 n=f#6 v=64
31416 On ch=1 n=c#7 v=81
31439 Off ch=1 n=c#7 v=64
31440 On ch=1 n=f#6 v=81
31463 Off ch=1 n=f#6 v=64
31464 On ch=1 n=c#7 v=81
31487 Off ch=1 n=c#7 v=64
31488 On ch=1 n=g6 v=81
31511 Off ch=1 n=g6 v=64
31512 On ch=1 n=c#7 v=81
31535 Off ch=1 n=c#7 v=64
31536 On ch=1 n=g6 v=81
31559 Off ch=1 n=g6 v=64
31560 On ch=1 n=c#7 v=81
31583 Off ch=1 n=c#7 v=64
31584 On ch=1 n=f#6 v=81
31607 Off ch=1 n=f#6 v=64
31608 On ch=1 n=c#7 v=81
31631 Off ch=1 n=c#7 v=64
31632 On ch=1 n=f#6 v=81
31655 Off ch=1 n=f#6 v=64
31656 On ch=1 n=c#7 v=81
31679 Off ch=1 n=c#7 v=64
31680 On ch=1 n=g6 v=81
31703 Off ch=1 n=g6 v=64
31704 On ch=1 n=c#7 v=81
31727 Off ch=1 n=c#7 v=64
31728 On ch=1 n=g6 v=81
31751 Off ch=1 n=g6 v=64
31752 On ch=1 n=c#7 v=81
31775 Off ch=1 n=c#7 v=64
31776 On ch=1 n=g6 v=81
31799 Off ch=1 n=g6 v=64
31800 On ch=1 n=c#7 v=81
31823 Off ch=1 n=c#7 v=64
31824 On ch=1 n=g6 v=81
31847 Off ch=1 n=g6 v=64
31848 On ch=1 n=c#7 v=81
31871 Off ch=1 n=c#7 v=64
31872 On ch=1 n=g6 v=81
31896 On ch=1 n=c#7 v=81
32063 Off ch=1 n=g6 v=64
32063 Off ch=1 n=c#7 v=64
32064 Tempo 1500000
32400 On ch=1 n=c#5 v=81
32447 Off ch=1 n=c#5 v=64
32448 TimeSig 1/4 96 8
32448 On ch=1 n=e5 v=81
32495 Off ch=1 n=e5 v=64
32496 On ch=1 n=f#5 v=81
32519 Off ch=1 n=f#5 v=64
32520 On ch=1 n=e5 v=81
32543 Off ch=1 n=e5 v=64
32544 TimeSig 2/4 96 8
32544 Tempo 500000
32544 On ch=1 n=d#5 v=81
32567 Off ch=1 n=d#5 v=64
32592 On ch=1 n=d#5 v=81
32687 Off ch=1 n=d#5 v=64
32688 On ch=1 n=c5 v=81
32711 Off ch=1 n=c5 v=64
32712 On ch=1 n=d#5 v=81
32735 Off ch=1 n=d#5 v=64
32736 On ch=1 n=b4 v=81
32759 Off ch=1 n=b4 v=64
32784 On ch=1 n=b4 v=81
32879 Off ch=1 n=b4 v=64
32880 On ch=1 n=a4 v=81
32903 Off ch=1 n=a4 v=64
32904 On ch=1 n=b4 v=81
32927 Off ch=1 n=b4 v=64
32928 On ch=1 n=c5 v=81
32951 Off ch=1 n=c5 v=64
32976 On ch=1 n=c5 v=81
33071 Off ch=1 n=c5 v=64
33072 On ch=1 n=d5 v=81
33095 Off ch=1 n=d5 v=64
33096 On ch=1 n=c5 v=81
33119 Off ch=1 n=c5 v=64
33120 On ch=1 n=b4 v=81
33143 Off ch=1 n=b4 v=64
33144 On ch=1 n=c5 v=81
33167 Off ch=1 n=c5 v=64
33168 On ch=1 n=a4 v=81
33191 Off ch=1 n=a4 v=64
33192 On ch=1 n=c5 v=81
33215 Off ch=1 n=c5 v=64
33216 On ch=1 n=f5 v=81
33239 Off ch=1 n=f5 v=64
33264 On ch=1 n=e5 v=81
33287 Off ch=1 n=e5 v=64
33312 On ch=1 n=d#5 v=81
33335 Off ch=1 n=d#5 v=64
33360 On ch=1 n=d#5 v=81
33455 Off ch=1 n=d#5 v=64
33456 On ch=1 n=c5 v=81
33479 Off ch=1 n=c5 v=64
33480 On ch=1 n=d#5 v=81
33503 Off ch=1 n=d#5 v=64
33504 On ch=1 n=b4 v=81
33527 Off ch=1 n=b4 v=64
33552 On ch=1 n=b4 v=81
33647 Off ch=1 n=b4 v=64
33648 On ch=1 n=a4 v=81
33671 Off ch=1 n=a4 v=64
33672 On ch=1 n=b4 v=81
33695 Off ch=1 n=b4 v=64
33696 On ch=1 n=c5 v=81
33719 Off ch=1 n=c5 v=64
33744 On ch=1 n=c5 v=81
33839 Off ch=1 n=c5 v=64
33840 On ch=1 n=d5 v=81
33863 Off ch=1 n=d5 v=64
33864 On ch=1 n=c5 v=81
33887 Off ch=1 n=c5 v=64
33888 On ch=1 n=b4 v=81
33911 Off ch=1 n=b4 v=64
33912 On ch=1 n=c5 v=81
33935 Off ch=1 n=c5 v=64
33936 On ch=1 n=a4 v=81
33959 Off ch=1 n=a4 v=64
33960 On ch=1 n=c5 v=81
33983 Off ch=1 n=c5 v=64
33984 On ch=1 n=f5 v=81
34007 Off ch=1 n=f5 v=64
34032 On ch=1 n=e5 v=81
34055 Off ch=1 n=e5 v=64
34080 On ch=1 n=d#5 v=81
34103 Off ch=1 n=d#5 v=64
34128 On ch=1 n=b4 v=81
34151 Off ch=1 n=b4 v=64
34152 On ch=1 n=c5 v=81
34175 Off ch=1 n=c5 v=64
34176 On ch=1 n=f5 v=81
34199 Off ch=1 n=f5 v=64
34224 On ch=1 n=e5 v=81
34247 Off ch=1 n=e5 v=64
34272 Tempo 500000
34272 On ch=1 n=d#5 v=81
34295 Off ch=1 n=d#5 v=64
34320 On ch=1 n=b4 v=81
34329 Tempo 495867
34343 Off ch=1 n=b4 v=64
34344 On ch=1 n=c5 v=81
34367 Off ch=1 n=c5 v=64
34368 On ch=1 n=f5 v=81
34386 Tempo 491803
34391 Off ch=1 n=f5 v=64
34416 On ch=1 n=e5 v=81
34439 Off ch=1 n=e5 v=64
34443 Tempo 487804
34464 On ch=1 n=d#5 v=81
34487 Off ch=1 n=d#5 v=64
34497 Tempo 483870
34509 On ch=1 n=b4 v=81
34532 Off ch=1 n=b4 v=64
34533 On ch=1 n=c5 v=81
34554 Tempo 480000
34556 Off ch=1 n=c5 v=64
34557 On ch=1 n=f#5 v=81
34580 Off ch=1 n=f#5 v=64
34605 On ch=1 n=e5 v=81
34611 Tempo 476190
34628 Off ch=1 n=e5 v=64
34653 On ch=1 n=d#5 v=81
34668 Tempo 472440
34676 Off ch=1 n=d#5 v=64
34701 On ch=1 n=b4 v=81
34724 Off ch=1 n=b4 v=64
34725 Tempo 468750
34725 On ch=1 n=c5 v=81
34748 Off ch=1 n=c5 v=64
34749 On ch=1 n=f#5 v=81
34772 Off ch=1 n=f#5 v=64
34782 Tempo 465116
34797 On ch=1 n=e5 v=81
34820 Off ch=1 n=e5 v=64
34839 Tempo 461538
34845 On ch=1 n=d#5 v=81
34868 Off ch=1 n=d#5 v=64
34893 On ch=1 n=b4 v=81
34896 Tempo 458015
34916 Off ch=1 n=b4 v=64
34917 On ch=1 n=c5 v=81
34940 Off ch=1 n=c5 v=64
34941 On ch=1 n=d#5 v=81
34953 Tempo 454545
34964 Off ch=1 n=d#5 v=64
34989 On ch=1 n=d#5 v=81
35010 Tempo 451127
35012 Off ch=1 n=d#5 v=64
35013 On ch=1 n=f#5 v=81
35036 Off ch=1 n=f#5 v=64
35037 On ch=1 n=a5 v=81
35060 Off ch=1 n=a5 v=64
35067 Tempo 447761
35085 On ch=1 n=b5 v=81
35085 On ch=1 n=b4 v=81
35108 Off ch=1 n=b5 v=64
35108 Off ch=1 n=b4 v=64
35109 On ch=1 n=c6 v=81
35109 On ch=1 n=c5 v=81
35124 Tempo 444444
35132 Off ch=1 n=c6 v=64
35132 Off ch=1 n=c5 v=64
35133 On ch=1 n=d#5 v=81
35133 On ch=1 n=d#6 v=81
35156 Off ch=1 n=d#5 v=64
35156 Off ch=1 n=d#6 v=64
35181 Tempo 441176
35181 On ch=1 n=d#6 v=81
35181 On ch=1 n=d#5 v=81
35204 Off ch=1 n=d#6 v=64
35204 Off ch=1 n=d#5 v=64
35205 On ch=1 n=f#6 v=81
35205 On ch=1 n=f#5 v=81
35228 Off ch=1 n=f#6 v=64
35228 Off ch=1 n=f#5 v=64
35229 On ch=1 n=a6 v=81
35229 On ch=1 n=a5 v=81
35238 Tempo 437956
35252 Off ch=1 n=a6 v=64
35252 Off ch=1 n=a5 v=64
35277 On ch=1 n=b6 v=81
35277 On ch=1 n=b5 v=81
35295 Tempo 434782
35300 Off ch=1 n=b6 v=64
35300 Off ch=1 n=b5 v=64
35301 On ch=1 n=c7 v=81
35301 On ch=1 n=c6 v=81
35324 Off ch=1 n=c7 v=64
35324 Off ch=1 n=c6 v=64
35325 On ch=1 n=d#7 v=81
35325 On ch=1 n=d#6 v=81
35325 On ch=1 n=d#5 v=81
35348 Off ch=1 n=d#7 v=64
35348 Off ch=1 n=d#6 v=64
35348 Off ch=1 n=d#5 v=64
35352 Tempo 431654
35373 On ch=1 n=b6 v=81
35373 On ch=1 n=b5 v=81
35396 Off ch=1 n=b6 v=64
35396 Off ch=1 n=b5 v=64
35397 On ch=1 n=c7 v=81
35397 On ch=1 n=c6 v=81
35409 Tempo 428571
35420 Off ch=1 n=c7 v=64
35420 Off ch=1 n=c6 v=64
35421 On ch=1 n=d#7 v=81
35421 On ch=1 n=d#6 v=81
35421 On ch=1 n=d#5 v=81
35444 Off ch=1 n=d#7 v=64
35444 Off ch=1 n=d#6 v=64
35444 Off ch=1 n=d#5 v=64
35466 Tempo 425531
35469 On ch=1 n=b6 v=81
35469 On ch=1 n=b5 v=81
35492 Off ch=1 n=b6 v=64
35492 Off ch=1 n=b5 v=64
35493 On ch=1 n=c7 v=81
35493 On ch=1 n=c6 v=81
35516 Off ch=1 n=c7 v=64
35516 Off ch=1 n=c6 v=64
35517 On ch=1 n=d#7 v=81
35517 On ch=1 n=d#6 v=81
35517 On ch=1 n=d#5 v=81
35523 Tempo 422535
35540 Off ch=1 n=d#7 v=64
35540 Off ch=1 n=d#6 v=64
35540 Off ch=1 n=d#5 v=64
35565 On ch=1 n=b6 v=81
35565 On ch=1 n=b5 v=81
35580 Tempo 419580
35588 Off ch=1 n=b6 v=64
35588 Off ch=1 n=b5 v=64
35589 On ch=1 n=c7 v=81
35589 On ch=1 n=c6 v=81
35612 Off ch=1 n=c7 v=64
35612 Off ch=1 n=c6 v=64
35613 On ch=1 n=d#7 v=81
35613 On ch=1 n=d#6 v=81
35613 On ch=1 n=d#5 v=81
35636 Off ch=1 n=d#7 v=64
35636 Off ch=1 n=d#6 v=64
35636 Off ch=1 n=d#5 v=64
35637 Tempo 416666
35661 On ch=1 n=b4 v=81
35661 On ch=1 n=b6 v=81
35661 On ch=1 n=b5 v=81
35684 Off ch=1 n=b4 v=64
35684 Off ch=1 n=b6 v=64
35684 Off ch=1 n=b5 v=64
35694 Tempo 413793
35709 On ch=1 n=c5 v=81
35709 On ch=1 n=c6 v=81
35709 On ch=1 n=c7 v=81
35732 Off ch=1 n=c5 v=64
35732 Off ch=1 n=c6 v=64
35732 Off ch=1 n=c7 v=64
35751 Tempo 410958
35757 On ch=1 n=d#5 v=81
35757 On ch=1 n=d#7 v=81
35757 On ch=1 n=d#6 v=81
35780 Off ch=1 n=d#5 v=64
35780 Off ch=1 n=d#7 v=64
35780 Off ch=1 n=d#6 v=64
35805 On ch=1 n=b4 v=81
35805 On ch=1 n=b5 v=81
35805 On ch=1 n=b6 v=81
35808 Tempo 408163
35828 Off ch=1 n=b4 v=64
35828 Off ch=1 n=b5 v=64
35828 Off ch=1 n=b6 v=64
35853 On ch=1 n=c5 v=81
35853 On ch=1 n=c6 v=81
35853 On ch=1 n=c7 v=81
35865 Tempo 405405
35876 Off ch=1 n=c5 v=64
35876 Off ch=1 n=c6 v=64
35876 Off ch=1 n=c7 v=64
35901 On ch=1 n=d#5 v=81
35901 On ch=1 n=d#7 v=81
35901 On ch=1 n=d#6 v=81
35922 Tempo 402684
35924 Off ch=1 n=d#5 v=64
35924 Off ch=1 n=d#7 v=64
35924 Off ch=1 n=d#6 v=64
35979 Tempo 400000
41469 On ch=1 n=f#6 v=81
41492 Off ch=1 n=f#6 v=64
41493 On ch=1 n=d#6 v=81
41516 Off ch=1 n=d#6 v=64
41517 On ch=1 n=c#6 v=81
41540 Off ch=1 n=c#6 v=64
41541 On ch=1 n=b5 v=81
41564 Off ch=1 n=b5 v=64
41565 On ch=1 n=f#5 v=81
41588 Off ch=1 n=f#5 v=64
41589 On ch=1 n=b5 v=81
41612 Off ch=1 n=b5 v=64
41613 On ch=1 n=c#6 v=81
41636 Off ch=1 n=c#6 v=64
41637 On ch=1 n=d#6 v=81
41660 Off ch=1 n=d#6 v=64
42237 On ch=1 n=f#6 v=81
42260 Off ch=1 n=f#6 v=64
42261 On ch=1 n=d#6 v=81
42284 Off ch=1 n=d#6 v=64
42285 On ch=1 n=c#6 v=81
42308 Off ch=1 n=c#6 v=64
42309 On ch=1 n=b5 v=81
42332 Off ch=1 n=b5 v=64
42333 On ch=1 n=f#5 v=81
42356 Off ch=1 n=f#5 v=64
42357 On ch=1 n=b5 v=81
42380 Off ch=1 n=b5 v=64
42381 On ch=1 n=c#6 v=81
42404 Off ch=1 n=c#6 v=64
42405 On ch=1 n=d#6 v=81
42428 Off ch=1 n=d#6 v=64
42765 On ch=1 n=g#5 v=81
42788 Off ch=1 n=g#5 v=64
42957 On ch=1 n=g#5 v=81
42980 Off ch=1 n=g#5 v=64
43005 On ch=1 n=g#6 v=81
43028 Off ch=1 n=g#6 v=64
43029 On ch=1 n=f6 v=81
43052 Off ch=1 n=f6 v=64
43053 On ch=1 n=d#6 v=81
43076 Off ch=1 n=d#6 v=64
43077 On ch=1 n=c#6 v=81
43100 Off ch=1 n=c#6 v=64
43101 On ch=1 n=g#5 v=81
43124 Off ch=1 n=g#5 v=64
43125 On ch=1 n=c#6 v=81
43148 Off ch=1 n=c#6 v=64
43149 On ch=1 n=d#6 v=81
43172 Off ch=1 n=d#6 v=64
43173 On ch=1 n=f6 v=81
43196 Off ch=1 n=f6 v=64
43533 On ch=1 n=g#5 v=81
43556 Off ch=1 n=g#5 v=64
43725 On ch=1 n=g#5 v=81
43748 Off ch=1 n=g#5 v=64
43773 On ch=1 n=g#6 v=81
43796 Off ch=1 n=g#6 v=64
43797 On ch=1 n=f6 v=81
43820 Off ch=1 n=f6 v=64
43821 On ch=1 n=d#6 v=81
43844 Off ch=1 n=d#6 v=64
43845 On ch=1 n=c#6 v=81
43868 Off ch=1 n=c#6 v=64
43869 On ch=1 n=g#5 v=81
43892 Off ch=1 n=g#5 v=64
43893 On ch=1 n=c#6 v=81
43916 Off ch=1 n=c#6 v=64
43917 On ch=1 n=d#6 v=81
43940 Off ch=1 n=d#6 v=64
43941 On ch=1 n=f6 v=81
43964 Off ch=1 n=f6 v=64
44109 On ch=1 n=f#5 v=81
44204 Off ch=1 n=f#5 v=64
44205 On ch=1 n=g#5 v=81
44252 Off ch=1 n=g#5 v=64
44253 On ch=1 n=a#5 v=81
44253 On ch=1 n=f#5 v=81
44300 Off ch=1 n=a#5 v=64
44300 Off ch=1 n=f#5 v=64
44301 On ch=1 n=f#5 v=81
44301 On ch=1 n=a#5 v=81
44396 Off ch=1 n=f#5 v=64
44396 Off ch=1 n=a#5 v=64
44493 On ch=1 n=f#5 v=81
44493 On ch=1 n=b5 v=81
44588 Off ch=1 n=f#5 v=64
44588 Off ch=1 n=b5 v=64
44589 On ch=1 n=a#5 v=81
44589 On ch=1 n=f#5 v=81
44636 Off ch=1 n=a#5 v=64
44636 Off ch=1 n=f#5 v=64
44637 On ch=1 n=f#5 v=81
44637 On ch=1 n=b5 v=81
44732 Off ch=1 n=f#5 v=64
44732 Off ch=1 n=b5 v=64
44733 On ch=1 n=b5 v=81
44828 Off ch=1 n=b5 v=64
44877 On ch=1 n=f#5 v=81
44972 Off ch=1 n=f#5 v=64
44973 On ch=1 n=g#5 v=81
45020 Off ch=1 n=g#5 v=64
45021 On ch=1 n=a#5 v=81
45021 On ch=1 n=f#5 v=81
45068 Off ch=1 n=a#5 v=64
45068 Off ch=1 n=f#5 v=64
45069 On ch=1 n=f#5 v=81
45069 On ch=1 n=a#5 v=81
45164 Off ch=1 n=f#5 v=64
45164 Off ch=1 n=a#5 v=64
45261 On ch=1 n=f#5 v=81
45261 On ch=1 n=b5 v=81
45356 Off ch=1 n=f#5 v=64
45356 Off ch=1 n=b5 v=64
45357 On ch=1 n=a#5 v=81
45357 On ch=1 n=f#5 v=81
45404 Off ch=1 n=a#5 v=64
45404 Off ch=1 n=f#5 v=64
45405 On ch=1 n=f#5 v=81
45405 On ch=1 n=b5 v=81
45500 Off ch=1 n=f#5 v=64
45500 Off ch=1 n=b5 v=64
45501 On ch=1 n=b5 v=81
45596 Off ch=1 n=b5 v=64
45645 On ch=1 n=f#5 v=81
45645 On ch=1 n=d#5 v=81
45740 Off ch=1 n=f#5 v=64
45740 Off ch=1 n=d#5 v=64
45741 On ch=1 n=a#5 v=81
45741 On ch=1 n=f#5 v=81
45788 Off ch=1 n=a#5 v=64
45788 Off ch=1 n=f#5 v=64
45789 On ch=1 n=b5 v=81
45789 On ch=1 n=g#5 v=81
45836 Off ch=1 n=b5 v=64
45836 Off ch=1 n=g#5 v=64
45837 On ch=1 n=b5 v=81
45837 On ch=1 n=g#5 v=81
45932 Off ch=1 n=b5 v=64
45932 Off ch=1 n=g#5 v=64
46029 On ch=1 n=f#5 v=81
46029 On ch=1 n=b5 v=81
46124 Off ch=1 n=f#5 v=64
46124 Off ch=1 n=b5 v=64
46125 On ch=1 n=a#5 v=81
46125 On ch=1 n=f#5 v=81
46172 Off ch=1 n=a#5 v=64
46172 Off ch=1 n=f#5 v=64
46173 On ch=1 n=f#5 v=81
46173 On ch=1 n=b5 v=81
46268 Off ch=1 n=f#5 v=64
46268 Off ch=1 n=b5 v=64
46269 On ch=1 n=b5 v=81
46364 Off ch=1 n=b5 v=64
46413 On ch=1 n=f#5 v=81
46413 On ch=1 n=d#5 v=81
46508 Off ch=1 n=f#5 v=64
46508 Off ch=1 n=d#5 v=64
46509 On ch=1 n=a#5 v=81
46509 On ch=1 n=f#5 v=81
46556 Off ch=1 n=a#5 v=64
46556 Off ch=1 n=f#5 v=64
46557 On ch=1 n=b5 v=81
46557 On ch=1 n=g#5 v=81
46604 Off ch=1 n=b5 v=64
46604 Off ch=1 n=g#5 v=64
46605 On ch=1 n=b5 v=81
46605 On ch=1 n=g#5 v=81
46700 Off ch=1 n=b5 v=64
46700 Off ch=1 n=g#5 v=64
46797 On ch=1 n=f#5 v=81
46797 On ch=1 n=b5 v=81
46892 Off ch=1 n=f#5 v=64
46892 Off ch=1 n=b5 v=64
46893 On ch=1 n=a#5 v=81
46893 On ch=1 n=f#5 v=81
46940 Off ch=1 n=a#5 v=64
46940 Off ch=1 n=f#5 v=64
46941 On ch=1 n=f#5 v=81
46941 On ch=1 n=b5 v=81
47036 Off ch=1 n=f#5 v=64
47036 Off ch=1 n=b5 v=64
47037 On ch=1 n=b5 v=81
47132 Off ch=1 n=b5 v=64
47181 On ch=1 n=f#5 v=81
47181 On ch=1 n=d#5 v=81
47181 On ch=1 n=b5 v=81
47228 Off ch=1 n=f#5 v=64
47228 Off ch=1 n=d#5 v=64
47228 Off ch=1 n=b5 v=64
47229 On ch=1 n=c6 v=81
47229 On ch=1 n=f#5 v=81
47229 On ch=1 n=d#5 v=81
47324 Off ch=1 n=c6 v=64
47324 Off ch=1 n=f#5 v=64
47324 Off ch=1 n=d#5 v=64
47373 On ch=1 n=f#5 v=81
47373 On ch=1 n=d#5 v=81
47373 On ch=1 n=b5 v=81
47420 Off ch=1 n=f#5 v=64
47420 Off ch=1 n=d#5 v=64
47420 Off ch=1 n=b5 v=64
47469 On ch=1 n=e5 v=81
47469 On ch=1 n=g5 v=81
47469 On ch=1 n=a#5 v=81
47516 Off ch=1 n=e5 v=64
47516 Off ch=1 n=g5 v=64
47516 Off ch=1 n=a#5 v=64
47565 On ch=1 n=f#5 v=81
47565 On ch=1 n=d#5 v=81
47565 On ch=1 n=b5 v=81
47612 Off ch=1 n=f#5 v=64
47612 Off ch=1 n=d#5 v=64
47612 Off ch=1 n=b5 v=64
47613 On ch=1 n=c6 v=81
47613 On ch=1 n=f#5 v=81
47613 On ch=1 n=d#5 v=81
47708 Off ch=1 n=c6 v=64
47708 Off ch=1 n=f#5 v=64
47708 Off ch=1 n=d#5 v=64
47757 On ch=1 n=f#5 v=81
47757 On ch=1 n=d#5 v=81
47757 On ch=1 n=b5 v=81
47804 Off ch=1 n=f#5 v=64
47804 Off ch=1 n=d#5 v=64
47804 Off ch=1 n=b5 v=64
47853 On ch=1 n=e5 v=81
47853 On ch=1 n=g5 v=81
47853 On ch=1 n=a#5 v=81
47900 Off ch=1 n=e5 v=64
47900 Off ch=1 n=g5 v=64
47900 Off ch=1 n=a#5 v=64
47949 On ch=1 n=f#5 v=81
47949 On ch=1 n=d#5 v=81
47949 On ch=1 n=b5 v=81
47996 Off ch=1 n=f#5 v=64
47996 Off ch=1 n=d#5 v=64
47996 Off ch=1 n=b5 v=64
48045 On ch=1 n=e5 v=81
48045 On ch=1 n=g5 v=81
48045 On ch=1 n=a#5 v=81
48092 Off ch=1 n=e5 v=64
48092 Off ch=1 n=g5 v=64
48092 Off ch=1 n=a#5 v=64
48141 On ch=1 n=f#5 v=81
48141 On ch=1 n=d#5 v=81
48141 On ch=1 n=b5 v=81
48188 Off ch=1 n=f#5 v=64
48188 Off ch=1 n=d#5 v=64
48188 Off ch=1 n=b5 v=64
48237 On ch=1 n=e5 v=81
48237 On ch=1 n=g5 v=81
48237 On ch=1 n=a#5 v=81
48284 Off ch=1 n=e5 v=64
48284 Off ch=1 n=g5 v=64
48284 Off ch=1 n=a#5 v=64
48333 On ch=1 n=d#5 v=81
48333 On ch=1 n=f#5 v=81
48333 On ch=1 n=b5 v=81
48380 Off ch=1 n=d#5 v=64
48380 Off ch=1 n=f#5 v=64
48380 Off ch=1 n=b5 v=64
48429 On ch=1 n=f#5 v=81
48429 On ch=1 n=d5 v=81
48429 On ch=1 n=b5 v=81
48476 Off ch=1 n=f#5 v=64
48476 Off ch=1 n=d5 v=64
48476 Off ch=1 n=b5 v=64
48525 On ch=1 n=d#5 v=81
48525 On ch=1 n=f#5 v=81
48525 On ch=1 n=b5 v=81
48572 Off ch=1 n=d#5 v=64
48572 Off ch=1 n=f#5 v=64
48572 Off ch=1 n=b5 v=64
48621 On ch=1 n=f#5 v=81
48621 On ch=1 n=d5 v=81
48621 On ch=1 n=b5 v=81
48668 Off ch=1 n=f#5 v=64
48668 Off ch=1 n=d5 v=64
48668 Off ch=1 n=b5 v=64
48717 On ch=1 n=d#5 v=81
48717 On ch=1 n=f#5 v=81
48717 On ch=1 n=b5 v=81
48764 Off ch=1 n=d#5 v=64
48764 Off ch=1 n=f#5 v=64
48764 Off ch=1 n=b5 v=64
48813 On ch=1 n=f#5 v=81
48813 On ch=1 n=d5 v=81
48813 On ch=1 n=b5 v=81
48860 Off ch=1 n=f#5 v=64
48860 Off ch=1 n=d5 v=64
48860 Off ch=1 n=b5 v=64
48909 On ch=1 n=d#5 v=81
48909 On ch=1 n=f#5 v=81
48909 On ch=1 n=b5 v=81
48956 Off ch=1 n=d#5 v=64
48956 Off ch=1 n=f#5 v=64
48956 Off ch=1 n=b5 v=64
54525 On ch=1 n=f#6 v=81
54548 Off ch=1 n=f#6 v=64
54549 On ch=1 n=d#6 v=81
54572 Off ch=1 n=d#6 v=64
54573 On ch=1 n=c#6 v=81
54596 Off ch=1 n=c#6 v=64
54597 On ch=1 n=b5 v=81
54620 Off ch=1 n=b5 v=64
54621 On ch=1 n=f#5 v=81
54644 Off ch=1 n=f#5 v=64
54645 On ch=1 n=b5 v=81
54668 Off ch=1 n=b5 v=64
54669 On ch=1 n=c#6 v=81
54692 Off ch=1 n=c#6 v=64
54693 On ch=1 n=d#6 v=81
54716 Off ch=1 n=d#6 v=64
55293 On ch=1 n=f#6 v=81
55316 Off ch=1 n=f#6 v=64
55317 On ch=1 n=d#6 v=81
55340 Off ch=1 n=d#6 v=64
55341 On ch=1 n=c#6 v=81
55364 Off ch=1 n=c#6 v=64
55365 On ch=1 n=b5 v=81
55388 Off ch=1 n=b5 v=64
55389 On ch=1 n=f#5 v=81
55412 Off ch=1 n=f#5 v=64
55413 On ch=1 n=b5 v=81
55436 Off ch=1 n=b5 v=64
55437 On ch=1 n=c#6 v=81
55460 Off ch=1 n=c#6 v=64
55461 On ch=1 n=d#6 v=81
55484 Off ch=1 n=d#6 v=64
55821 On ch=1 n=g#5 v=81
55844 Off ch=1 n=g#5 v=64
56013 On ch=1 n=g#5 v=81
56036 Off ch=1 n=g#5 v=64
56061 On ch=1 n=g#6 v=81
56084 Off ch=1 n=g#6 v=64
56085 On ch=1 n=f6 v=81
56108 Off ch=1 n=f6 v=64
56109 On ch=1 n=d#6 v=81
56132 Off ch=1 n=d#6 v=64
56133 On ch=1 n=c#6 v=81
56156 Off ch=1 n=c#6 v=64
56157 On ch=1 n=g#5 v=81
56180 Off ch=1 n=g#5 v=64
56181 On ch=1 n=c#6 v=81
56204 Off ch=1 n=c#6 v=64
56205 On ch=1 n=d#6 v=81
56228 Off ch=1 n=d#6 v=64
56229 On ch=1 n=f6 v=81
56252 Off ch=1 n=f6 v=64
56349 Tempo 400000
56368 Tempo 397350
56387 Tempo 394736
56406 Tempo 392156
56425 Tempo 389610
56444 Tempo 387096
56463 Tempo 384615
56482 Tempo 382165
56501 Tempo 379746
56520 Tempo 377358
56539 Tempo 375000
56558 Tempo 372670
56577 Tempo 370370
56589 On ch=1 n=g#5 v=81
56596 Tempo 368098
56612 Off ch=1 n=g#5 v=64
56615 Tempo 365853
56634 Tempo 363636
56653 Tempo 361445
56672 Tempo 359281
56691 Tempo 357142
56710 Tempo 355029
56729 Tempo 352941
56748 Tempo 350877
56767 Tempo 348837
56781 On ch=1 n=g#5 v=81
56786 Tempo 346820
56804 Off ch=1 n=g#5 v=64
56805 Tempo 344827
56824 Tempo 342857
56829 On ch=1 n=g#6 v=81
56843 Tempo 340909
56852 Off ch=1 n=g#6 v=64
56853 On ch=1 n=f6 v=81
56862 Tempo 338983
56876 Off ch=1 n=f6 v=64
56877 On ch=1 n=d#6 v=81
56881 Tempo 337078
56900 Tempo 335195
56900 Off ch=1 n=d#6 v=64
56901 On ch=1 n=c#6 v=81
56919 Tempo 333333
56924 Off ch=1 n=c#6 v=64
56925 On ch=1 n=g#5 v=81
56935 Tempo 331491
56945 Off ch=1 n=g#5 v=64
56946 On ch=1 n=c#6 v=81
56954 Tempo 329670
56969 Off ch=1 n=c#6 v=64
56970 On ch=1 n=d#6 v=81
56973 Tempo 327868
56992 Tempo 326086
56993 Off ch=1 n=d#6 v=64
56994 On ch=1 n=f6 v=81
57011 Tempo 324324
57017 Off ch=1 n=f6 v=64
57027 Tempo 322580
57046 Tempo 320855
57065 Tempo 319148
57084 Tempo 317460
57103 Tempo 315789
57159 On ch=1 n=g#5 v=81
57254 Off ch=1 n=g#5 v=64
57303 On ch=1 n=g#5 v=81
57350 Off ch=1 n=g#5 v=64
57351 On ch=1 n=g#5 v=81
57446 Off ch=1 n=g#5 v=64
57447 On ch=1 n=c#5 v=81
57494 Off ch=1 n=c#5 v=64
57495 On ch=1 n=g#5 v=81
57542 Off ch=1 n=g#5 v=64
57543 On ch=1 n=g#5 v=81
57638 Off ch=1 n=g#5 v=64
57687 On ch=1 n=g#5 v=81
57734 Off ch=1 n=g#5 v=64
57735 On ch=1 n=a5 v=81
57782 Off ch=1 n=a5 v=64
57783 On ch=1 n=b5 v=81
57830 Off ch=1 n=b5 v=64
57831 On ch=1 n=c#6 v=81
57878 Off ch=1 n=c#6 v=64
57927 On ch=1 n=e5 v=81
57927 On ch=1 n=a5 v=81
58022 Off ch=1 n=e5 v=64
58022 Off ch=1 n=a5 v=64
58023 On ch=1 n=g#5 v=81
58070 Off ch=1 n=g#5 v=64
58071 On ch=1 n=f#5 v=81
58118 Off ch=1 n=f#5 v=64
58119 On ch=1 n=f#5 v=81
58214 Off ch=1 n=f#5 v=64
58215 On ch=1 n=e5 v=81
58262 Off ch=1 n=e5 v=64
58263 On ch=1 n=d#5 v=81
58310 Off ch=1 n=d#5 v=64
58311 On ch=1 n=d#5 v=81
58406 Off ch=1 n=d#5 v=64
58407 On ch=1 n=f#5 v=81
58454 Off ch=1 n=f#5 v=64
58455 On ch=1 n=d#5 v=81
58478 Off ch=1 n=d#5 v=64
58503 On ch=1 n=f#5 v=81
58526 Off ch=1 n=f#5 v=64
58551 On ch=1 n=e5 v=81
58574 Off ch=1 n=e5 v=64
58599 On ch=1 n=c#5 v=81
58622 Off ch=1 n=c#5 v=64
58647 On ch=1 n=a5 v=81
58647 On ch=1 n=a6 v=81
58670 Off ch=1 n=a5 v=64
58670 Off ch=1 n=a6 v=64
58695 On ch=1 n=a6 v=81
58695 On ch=1 n=e6 v=81
58695 On ch=1 n=c#6 v=81
58695 On ch=1 n=a5 v=81
58790 Off ch=1 n=a6 v=64
58790 Off ch=1 n=e6 v=64
58790 Off ch=1 n=c#6 v=64
58790 Off ch=1 n=a5 v=64
58791 On ch=1 n=g#6 v=81
58791 On ch=1 n=g#5 v=81
58838 Off ch=1 n=g#6 v=64
58838 Off ch=1 n=g#5 v=64
58839 On ch=1 n=f#5 v=81
58839 On ch=1 n=f#6 v=81
58886 Off ch=1 n=f#5 v=64
58886 Off ch=1 n=f#6 v=64
58887 On ch=1 n=f#6 v=81
58887 On ch=1 n=c#6 v=81
58887 On ch=1 n=a5 v=81
58887 On ch=1 n=f#5 v=81
58982 Off ch=1 n=f#6 v=64
58982 Off ch=1 n=c#6 v=64
58982 Off ch=1 n=a5 v=64
58982 Off ch=1 n=f#5 v=64
58983 On ch=1 n=e6 v=81
58983 On ch=1 n=e5 v=81
59030 Off ch=1 n=e6 v=64
59030 Off ch=1 n=e5 v=64
59031 On ch=1 n=d#5 v=81
59031 On ch=1 n=d#6 v=81
59078 Off ch=1 n=d#5 v=64
59078 Off ch=1 n=d#6 v=64
59079 On ch=1 n=d#5 v=81
59079 On ch=1 n=d#6 v=81
59079 On ch=1 n=a5 v=81
59079 On ch=1 n=f#5 v=81
59174 Off ch=1 n=d#5 v=64
59174 Off ch=1 n=d#6 v=64
59174 Off ch=1 n=a5 v=64
59174 Off ch=1 n=f#5 v=64
59175 On ch=1 n=f#6 v=81
59175 On ch=1 n=f#5 v=81
59222 Off ch=1 n=f#6 v=64
59222 Off ch=1 n=f#5 v=64
59223 On ch=1 n=d#6 v=81
59223 On ch=1 n=d#5 v=81
59246 Off ch=1 n=d#6 v=64
59246 Off ch=1 n=d#5 v=64
59271 On ch=1 n=f#6 v=81
59271 On ch=1 n=f#5 v=81
59294 Off ch=1 n=f#6 v=64
59294 Off ch=1 n=f#5 v=64
59319 On ch=1 n=e6 v=81
59319 On ch=1 n=e5 v=81
59342 Off ch=1 n=e6 v=64
59342 Off ch=1 n=e5 v=64
59367 On ch=1 n=c#6 v=81
59367 On ch=1 n=c#5 v=81
59390 Off ch=1 n=c#6 v=64
59390 Off ch=1 n=c#5 v=64
59415 On ch=1 n=a4 v=81
59415 On ch=1 n=a5 v=81
59438 Off ch=1 n=a4 v=64
59438 Off ch=1 n=a5 v=64
59463 On ch=1 n=c#5 v=81
59486 Off ch=1 n=c#5 v=64
59511 On ch=1 n=e5 v=81
59534 Off ch=1 n=e5 v=64
59559 On ch=1 n=f#5 v=81
59582 Off ch=1 n=f#5 v=64
59607 On ch=1 n=d#5 v=81
59630 Off ch=1 n=d#5 v=64
59655 On ch=1 n=f#5 v=81
59678 Off ch=1 n=f#5 v=64
59703 On ch=1 n=e5 v=81
59726 Off ch=1 n=e5 v=64
59751 On ch=1 n=c#5 v=81
59774 Off ch=1 n=c#5 v=64
59799 On ch=1 n=a4 v=81
59799 On ch=1 n=a5 v=81
59822 Off ch=1 n=a4 v=64
59822 Off ch=1 n=a5 v=64
59847 On ch=1 n=c#5 v=81
59870 Off ch=1 n=c#5 v=64
59895 On ch=1 n=e5 v=81
59918 Off ch=1 n=e5 v=64
59943 On ch=1 n=f#5 v=81
59966 Off ch=1 n=f#5 v=64
59991 On ch=1 n=d#5 v=81
60014 Off ch=1 n=d#5 v=64
60039 On ch=1 n=f#5 v=81
60062 Off ch=1 n=f#5 v=64
60087 On ch=1 n=e5 v=81
60110 Off ch=1 n=e5 v=64
60135 On ch=1 n=c#5 v=81
60158 Off ch=1 n=c#5 v=64
60183 Tempo 315789
60183 On ch=1 n=a5 v=81
60183 On ch=1 n=a4 v=81
60209 Tempo 314136
60230 Off ch=1 n=a5 v=64
60230 Off ch=1 n=a4 v=64
60235 Tempo 312500
60261 Tempo 310880
60279 On ch=1 n=c#5 v=81
60279 On ch=1 n=c#6 v=81
60287 Tempo 309278
60313 Tempo 307692
60323 Off ch=1 n=c#5 v=64
60323 Off ch=1 n=c#6 v=64
60324 On ch=1 n=e6 v=81
60324 On ch=1 n=e5 v=81
60336 Tempo 306122
60362 Tempo 304568
60371 Off ch=1 n=e6 v=64
60371 Off ch=1 n=e5 v=64
60372 On ch=1 n=a5 v=81
60372 On ch=1 n=a4 v=81
60388 Tempo 303030
60414 Tempo 301507
60419 Off ch=1 n=a5 v=64
60419 Off ch=1 n=a4 v=64
60440 Tempo 300000
60466 Tempo 298507
60468 On ch=1 n=c#5 v=81
60468 On ch=1 n=c#6 v=81
60492 Tempo 297029
60515 Off ch=1 n=c#5 v=64
60515 Off ch=1 n=c#6 v=64
60516 On ch=1 n=e6 v=81
60516 On ch=1 n=e5 v=81
60518 Tempo 295566
60544 Tempo 294117
60563 Off ch=1 n=e6 v=64
60563 Off ch=1 n=e5 v=64
60564 On ch=1 n=a5 v=81
60564 On ch=1 n=a4 v=81
60570 Tempo 292682
60596 Tempo 291262
60611 Off ch=1 n=a5 v=64
60611 Off ch=1 n=a4 v=64
60622 Tempo 289855
60648 Tempo 288461
60660 On ch=1 n=c#5 v=81
60660 On ch=1 n=c#6 v=81
60674 Tempo 287081
60700 Tempo 285714
60707 Off ch=1 n=c#5 v=64
60707 Off ch=1 n=c#6 v=64
60708 On ch=1 n=e6 v=81
60708 On ch=1 n=e5 v=81
60726 Tempo 284360
60752 Tempo 283018
60755 Off ch=1 n=e6 v=64
60755 Off ch=1 n=e5 v=64
60756 On ch=1 n=a6 v=81
60756 On ch=1 n=a5 v=81
60778 Tempo 281690
60803 Off ch=1 n=a6 v=64
60803 Off ch=1 n=a5 v=64
60804 Tempo 280373
60830 Tempo 279069
60852 On ch=1 n=e5 v=81
60852 On ch=1 n=e6 v=81
60856 Tempo 277777
60882 Tempo 276497
60899 Off ch=1 n=e5 v=64
60899 Off ch=1 n=e6 v=64
60908 Tempo 275229
60934 Tempo 273972
60960 Tempo 272727
60986 Tempo 271493
61012 Tempo 270270
61038 Tempo 269058
61064 Tempo 267857
61090 Tempo 266666
61116 Tempo 264718
61142 Tempo 264317
61168 Tempo 263157
61194 Tempo 262008
61220 Tempo 260869
61246 Tempo 259740
61272 Tempo 258620
61298 Tempo 257510
61324 Tempo 256410
61350 Tempo 255319
61376 Tempo 254237
61402 Tempo 253164
61428 Tempo 252100
61454 Tempo 251046
61480 Tempo 250000
61524 On ch=1 n=a5 v=81
61566 Tempo 269058
61571 Off ch=1 n=a5 v=64
61608 Tempo 267857
61620 On ch=1 n=e5 v=81
61650 Tempo 266666
61667 Off ch=1 n=e5 v=64
61692 Tempo 264718
61716 On ch=1 n=a5 v=81
61734 Tempo 264317
61763 Off ch=1 n=a5 v=64
61773 Tempo 263157
61809 On ch=1 n=e5 v=81
61815 Tempo 262008
61856 Off ch=1 n=e5 v=64
61857 Tempo 260869
61899 Tempo 259740
61905 On ch=1 n=a5 v=81
61941 Tempo 258620
61952 Off ch=1 n=a5 v=64
61983 Tempo 257510
62001 On ch=1 n=e5 v=81
62025 Tempo 256410
62048 Off ch=1 n=e5 v=64
62067 Tempo 255319
62097 On ch=1 n=a5 v=81
62109 Tempo 254237
62144 Off ch=1 n=a5 v=64
62151 Tempo 253164
62193 Tempo 252100
62235 Tempo 251046
62277 Tempo 250000
62289 On ch=1 n=a5 v=81
62289 On ch=1 n=c#6 v=81
62289 On ch=1 n=e6 v=81
62289 On ch=1 n=a6 v=81
62384 Off ch=1 n=a5 v=64
62384 Off ch=1 n=c#6 v=64
62384 Off ch=1 n=e6 v=64
62384 Off ch=1 n=a6 v=64
62481 On ch=1 n=a6 v=81
62481 On ch=1 n=c#6 v=81
62481 On ch=1 n=e6 v=81
62481 On ch=1 n=a5 v=81
62576 Off ch=1 n=a6 v=64
62576 Off ch=1 n=c#6 v=64
62576 Off ch=1 n=e6 v=64
62576 Off ch=1 n=a5 v=64
62673 On ch=1 n=a5 v=81
62673 On ch=1 n=e5 v=81
62673 On ch=1 n=c#5 v=81
62673 On ch=1 n=a4 v=81
62768 Off ch=1 n=a5 v=64
62768 Off ch=1 n=e5 v=64
62768 Off ch=1 n=c#5 v=64
62768 Off ch=1 n=a4 v=64
62865 On ch=1 n=a4 v=81
62865 On ch=1 n=c#5 v=81
62865 On ch=1 n=e5 v=81
62865 On ch=1 n=a5 v=81
62960 Off ch=1 n=a4 v=64
62960 Off ch=1 n=c#5 v=64
62960 Off ch=1 n=e5 v=64
62960 Off ch=1 n=a5 v=64
62960 Meta TrkEnd
TrkEnd
MTrk
0 Par ch=2 c=0 v=0
0 PrCh ch=2 p=0
0 TimeSig 2/4 96 8
0 Tempo 500000
0 On ch=2 n=d#4 v=73
0 On ch=2 n=d#3 v=73
32 Off ch=2 n=d#4 v=64
32 Off ch=2 n=d#3 v=64
48 On ch=2 n=d#4 v=73
48 On ch=2 n=d#3 v=73
112 Off ch=2 n=d#4 v=64
112 Off ch=2 n=d#3 v=64
144 On ch=2 n=c3 v=73
144 On ch=2 n=c4 v=73
160 Off ch=2 n=c3 v=64
160 Off ch=2 n=c4 v=64
168 On ch=2 n=d#3 v=73
168 On ch=2 n=d#4 v=73
184 Off ch=2 n=d#3 v=64
184 Off ch=2 n=d#4 v=64
192 On ch=2 n=b3 v=73
192 On ch=2 n=b2 v=73
208 Off ch=2 n=b3 v=64
208 Off ch=2 n=b2 v=64
240 On ch=2 n=b3 v=73
240 On ch=2 n=b2 v=73
304 Off ch=2 n=b3 v=64
304 Off ch=2 n=b2 v=64
336 On ch=2 n=a2 v=73
336 On ch=2 n=a3 v=73
352 Off ch=2 n=a2 v=64
352 Off ch=2 n=a3 v=64
360 On ch=2 n=b2 v=73
360 On ch=2 n=b3 v=73
376 Off ch=2 n=b2 v=64
376 Off ch=2 n=b3 v=64
384 On ch=2 n=c4 v=73
384 On ch=2 n=c3 v=73
400 Off ch=2 n=c4 v=64
400 Off ch=2 n=c3 v=64
432 On ch=2 n=c4 v=73
432 On ch=2 n=c3 v=73
496 Off ch=2 n=c4 v=64
496 Off ch=2 n=c3 v=64
528 On ch=2 n=d4 v=73
528 On ch=2 n=d3 v=73
544 Off ch=2 n=d4 v=64
544 Off ch=2 n=d3 v=64
552 On ch=2 n=c4 v=73
552 On ch=2 n=c3 v=73
568 Off ch=2 n=c4 v=64
568 Off ch=2 n=c3 v=64
576 On ch=2 n=b3 v=73
576 On ch=2 n=b2 v=73
592 Off ch=2 n=b3 v=64
592 Off ch=2 n=b2 v=64
600 On ch=2 n=c4 v=73
600 On ch=2 n=c3 v=73
616 Off ch=2 n=c4 v=64
616 Off ch=2 n=c3 v=64
624 On ch=2 n=a3 v=73
624 On ch=2 n=a2 v=73
640 Off ch=2 n=a3 v=64
640 Off ch=2 n=a2 v=64
648 On ch=2 n=c4 v=73
648 On ch=2 n=c3 v=73
664 Off ch=2 n=c4 v=64
664 Off ch=2 n=c3 v=64
672 On ch=2 n=f4 v=73
672 On ch=2 n=f3 v=73
688 Off ch=2 n=f4 v=64
688 Off ch=2 n=f3 v=64
720 On ch=2 n=e4 v=73
720 On ch=2 n=e3 v=73
736 Off ch=2 n=e4 v=64
736 Off ch=2 n=e3 v=64
768 On ch=2 n=d#4 v=73
768 On ch=2 n=d#3 v=73
800 Off ch=2 n=d#4 v=64
800 Off ch=2 n=d#3 v=64
816 On ch=2 n=d#4 v=73
816 On ch=2 n=d#3 v=73
880 Off ch=2 n=d#4 v=64
880 Off ch=2 n=d#3 v=64
912 On ch=2 n=c3 v=73
912 On ch=2 n=c4 v=73
928 Off ch=2 n=c3 v=64
928 Off ch=2 n=c4 v=64
936 On ch=2 n=d#3 v=73
936 On ch=2 n=d#4 v=73
952 Off ch=2 n=d#3 v=64
952 Off ch=2 n=d#4 v=64
960 On ch=2 n=b3 v=73
960 On ch=2 n=b2 v=73
976 Off ch=2 n=b3 v=64
976 Off ch=2 n=b2 v=64
1008 On ch=2 n=b3 v=73
1008 On ch=2 n=b2 v=73
1072 Off ch=2 n=b3 v=64
1072 Off ch=2 n=b2 v=64
1104 On ch=2 n=a2 v=73
1104 On ch=2 n=a3 v=73
1120 Off ch=2 n=a2 v=64
1120 Off ch=2 n=a3 v=64
1128 On ch=2 n=b2 v=73
1128 On ch=2 n=b3 v=73
1144 Off ch=2 n=b2 v=64
1144 Off ch=2 n=b3 v=64
1152 On ch=2 n=c4 v=73
1152 On ch=2 n=c3 v=73
1168 Off ch=2 n=c4 v=64
1168 Off ch=2 n=c3 v=64
1200 On ch=2 n=c4 v=73
1200 On ch=2 n=c3 v=73
1264 Off ch=2 n=c4 v=64
1264 Off ch=2 n=c3 v=64
1296 On ch=2 n=d4 v=73
1296 On ch=2 n=d3 v=73
1312 Off ch=2 n=d4 v=64
1312 Off ch=2 n=d3 v=64
1320 On ch=2 n=c4 v=73
1320 On ch=2 n=c3 v=73
1336 Off ch=2 n=c4 v=64
1336 Off ch=2 n=c3 v=64
1344 On ch=2 n=b3 v=73
1344 On ch=2 n=b2 v=73
1360 Off ch=2 n=b3 v=64
1360 Off ch=2 n=b2 v=64
1368 On ch=2 n=c4 v=73
1368 On ch=2 n=c3 v=73
1384 Off ch=2 n=c4 v=64
1384 Off ch=2 n=c3 v=64
1392 On ch=2 n=a3 v=73
1392 On ch=2 n=a2 v=73
1408 Off ch=2 n=a3 v=64
1408 Off ch=2 n=a2 v=64
1416 On ch=2 n=c4 v=73
1416 On ch=2 n=c3 v=73
1432 Off ch=2 n=c4 v=64
1432 Off ch=2 n=c3 v=64
1440 On ch=2 n=f4 v=73
1440 On ch=2 n=f3 v=73
1456 Off ch=2 n=f4 v=64
1456 Off ch=2 n=f3 v=64
1488 On ch=2 n=e4 v=73
1488 On ch=2 n=e3 v=73
1504 Off ch=2 n=e4 v=64
1504 Off ch=2 n=e3 v=64
1536 On ch=2 n=d#4 v=73
1536 On ch=2 n=d#3 v=73
1552 Off ch=2 n=d#4 v=64
1552 Off ch=2 n=d#3 v=64
1584 On ch=2 n=b3 v=73
1584 On ch=2 n=b2 v=73
1600 Off ch=2 n=b3 v=64
1600 Off ch=2 n=b2 v=64
1608 On ch=2 n=c4 v=73
1608 On ch=2 n=c3 v=73
1624 Off ch=2 n=c4 v=64
1624 Off ch=2 n=c3 v=64
1632 On ch=2 n=f4 v=73
1632 On ch=2 n=f3 v=73
1648 Off ch=2 n=f4 v=64
1648 Off ch=2 n=f3 v=64
1680 On ch=2 n=e4 v=73
1680 On ch=2 n=e3 v=73
1696 Off ch=2 n=e4 v=64
1696 Off ch=2 n=e3 v=64
1728 On ch=2 n=d#4 v=73
1728 On ch=2 n=d#3 v=73
1744 Off ch=2 n=d#4 v=64
1744 Off ch=2 n=d#3 v=64
1776 On ch=2 n=b3 v=73
1776 On ch=2 n=b2 v=73
1792 Off ch=2 n=b3 v=64
1792 Off ch=2 n=b2 v=64
1800 On ch=2 n=c4 v=73
1800 On ch=2 n=c3 v=73
1816 Off ch=2 n=c4 v=64
1816 Off ch=2 n=c3 v=64
1824 On ch=2 n=f4 v=73
1824 On ch=2 n=f3 v=73
1840 Off ch=2 n=f4 v=64
1840 Off ch=2 n=f3 v=64
1872 On ch=2 n=e4 v=73
1872 On ch=2 n=e3 v=73
1888 Off ch=2 n=e4 v=64
1888 Off ch=2 n=e3 v=64
1920 On ch=2 n=d#4 v=73
1920 On ch=2 n=d#3 v=73
1936 Off ch=2 n=d#4 v=64
1936 Off ch=2 n=d#3 v=64
1968 On ch=2 n=b3 v=73
1968 On ch=2 n=b2 v=73
1984 Off ch=2 n=b3 v=64
1984 Off ch=2 n=b2 v=64
1992 On ch=2 n=c4 v=73
1992 On ch=2 n=c3 v=73
2008 Off ch=2 n=c4 v=64
2008 Off ch=2 n=c3 v=64
2016 On ch=2 n=d#4 v=73
2016 On ch=2 n=d#3 v=73
2032 Off ch=2 n=d#4 v=64
2032 Off ch=2 n=d#3 v=64
2064 On ch=2 n=b3 v=73
2064 On ch=2 n=b2 v=73
2080 Off ch=2 n=b3 v=64
2080 Off ch=2 n=b2 v=64
2088 On ch=2 n=c4 v=73
2088 On ch=2 n=c3 v=73
2104 Off ch=2 n=c4 v=64
2104 Off ch=2 n=c3 v=64
2112 On ch=2 n=d#4 v=73
2112 On ch=2 n=d#3 v=73
2128 Off ch=2 n=d#4 v=64
2128 Off ch=2 n=d#3 v=64
2160 On ch=2 n=b3 v=73
2160 On ch=2 n=b2 v=73
2176 Off ch=2 n=b3 v=64
2176 Off ch=2 n=b2 v=64
2184 On ch=2 n=c4 v=73
2184 On ch=2 n=c3 v=73
2200 Off ch=2 n=c4 v=64
2200 Off ch=2 n=c3 v=64
2208 On ch=2 n=d#4 v=73
2208 On ch=2 n=d#3 v=73
2224 Off ch=2 n=d#4 v=64
2224 Off ch=2 n=d#3 v=64
2256 On ch=2 n=f#4 v=73
2256 On ch=2 n=f#3 v=73
2272 Off ch=2 n=f#4 v=64
2272 Off ch=2 n=f#3 v=64
2304 On ch=2 n=d#4 v=73
2304 On ch=2 n=d#3 v=73
2320 Off ch=2 n=d#4 v=64
2320 Off ch=2 n=d#3 v=64
2352 On ch=2 n=b3 v=73
2352 On ch=2 n=b2 v=73
2368 Off ch=2 n=b3 v=64
2368 Off ch=2 n=b2 v=64
2376 On ch=2 n=c4 v=73
2376 On ch=2 n=c3 v=73
2392 Off ch=2 n=c4 v=64
2392 Off ch=2 n=c3 v=64
2400 On ch=2 n=d#4 v=73
2400 On ch=2 n=d#3 v=73
2416 Off ch=2 n=d#4 v=64
2416 Off ch=2 n=d#3 v=64
2448 On ch=2 n=b3 v=73
2448 On ch=2 n=b2 v=73
2464 Off ch=2 n=b3 v=64
2464 Off ch=2 n=b2 v=64
2472 On ch=2 n=c4 v=73
2472 On ch=2 n=c3 v=73
2488 Off ch=2 n=c4 v=64
2488 Off ch=2 n=c3 v=64
2496 On ch=2 n=d#4 v=73
2496 On ch=2 n=d#3 v=73
2512 Off ch=2 n=d#4 v=64
2512 Off ch=2 n=d#3 v=64
2544 On ch=2 n=b3 v=73
2544 On ch=2 n=b2 v=73
2560 Off ch=2 n=b3 v=64
2560 Off ch=2 n=b2 v=64
2568 On ch=2 n=c4 v=73
2568 On ch=2 n=c3 v=73
2584 Off ch=2 n=c4 v=64
2584 Off ch=2 n=c3 v=64
2592 On ch=2 n=d#4 v=73
2592 On ch=2 n=d#3 v=73
2608 Off ch=2 n=d#4 v=64
2608 Off ch=2 n=d#3 v=64
2640 On ch=2 n=f#4 v=73
2640 On ch=2 n=f#3 v=73
2656 Off ch=2 n=f#4 v=64
2656 Off ch=2 n=f#3 v=64
2688 On ch=2 n=d#4 v=73
2688 On ch=2 n=d#3 v=73
2704 Off ch=2 n=d#4 v=64
2704 Off ch=2 n=d#3 v=64
2736 On ch=2 n=f#4 v=73
2736 On ch=2 n=f#3 v=73
2752 Off ch=2 n=f#4 v=64
2752 Off ch=2 n=f#3 v=64
2784 On ch=2 n=d#4 v=73
2784 On ch=2 n=d#3 v=73
2800 Off ch=2 n=d#4 v=64
2800 Off ch=2 n=d#3 v=64
2832 On ch=2 n=f#4 v=73
2832 On ch=2 n=f#3 v=73
2848 Off ch=2 n=f#4 v=64
2848 Off ch=2 n=f#3 v=64
2880 On ch=2 n=d#4 v=73
2880 On ch=2 n=d#3 v=73
2896 Off ch=2 n=d#4 v=64
2896 Off ch=2 n=d#3 v=64
2976 On ch=2 n=d#4 v=73
2976 On ch=2 n=d#3 v=73
2992 Off ch=2 n=d#4 v=64
2992 Off ch=2 n=d#3 v=64
3264 TimeSig 3/4 96 8
3552 TimeSig 1/4 96 8
3552 Tempo 600000
3552 On ch=2 n=d#3 v=73
3564 Tempo 594059
3567 Off ch=2 n=d#3 v=64
3568 On ch=2 n=b3 v=73
3568 On ch=2 n=f#4 v=73
3576 Tempo 588235
3583 Off ch=2 n=b3 v=64
3583 Off ch=2 n=f#4 v=64
3584 On ch=2 n=d#4 v=73
3584 On ch=2 n=b4 v=73
3588 Tempo 582524
3599 Off ch=2 n=d#4 v=64
3599 Off ch=2 n=b4 v=64
3600 Tempo 576923
3612 Tempo 571428
3624 Tempo 566037
3636 Tempo 560747
3648 Tempo 555555
3648 On ch=2 n=d#3 v=73
3660 Tempo 550458
3663 Off ch=2 n=d#3 v=64
3664 On ch=2 n=b3 v=73
3664 On ch=2 n=g4 v=73
3672 Tempo 545454
3679 Off ch=2 n=b3 v=64
3679 Off ch=2 n=g4 v=64
3680 On ch=2 n=d#4 v=73
3680 On ch=2 n=b4 v=73
3684 Tempo 540540
3695 Off ch=2 n=d#4 v=64
3695 Off ch=2 n=b4 v=64
3696 Tempo 535714
3708 Tempo 530973
3720 Tempo 526315
3732 Tempo 521739
3744 Tempo 517241
3744 On ch=2 n=g3 v=73
3756 Tempo 512820
3759 Off ch=2 n=g3 v=64
3760 On ch=2 n=d#4 v=73
3768 Tempo 508474
3775 Off ch=2 n=d#4 v=64
3776 On ch=2 n=g4 v=73
3780 Tempo 504201
3791 Off ch=2 n=g4 v=64
3792 Tempo 500000
3804 Tempo 495867
3816 Tempo 491803
3828 Tempo 487804
3840 Tempo 483870
3840 On ch=2 n=b3 v=73
3852 Tempo 480000
3855 Off ch=2 n=b3 v=64
3856 On ch=2 n=f#4 v=73
3864 Tempo 476190
3871 Off ch=2 n=f#4 v=64
3872 On ch=2 n=b4 v=73
3876 Tempo 472440
3887 Off ch=2 n=b4 v=64
3888 Tempo 468750
3900 Tempo 465116
3912 Tempo 461538
3924 Tempo 458015
3936 Tempo 454545
3936 On ch=2 n=d#4 v=73
3948 Tempo 451127
3951 Off ch=2 n=d#4 v=64
3952 On ch=2 n=b4 v=73
3960 Tempo 447761
3967 Off ch=2 n=b4 v=64
3968 On ch=2 n=d#5 v=73
3972 Tempo 444444
3983 Off ch=2 n=d#5 v=64
3984 Tempo 441176
3996 Tempo 437956
4008 Tempo 434782
4020 Tempo 431654
4032 Tempo 428571
4032 On ch=2 n=d#4 v=73
4044 Tempo 425531
4047 Off ch=2 n=d#4 v=64
4048 On ch=2 n=b4 v=73
4056 Tempo 422535
4063 Off ch=2 n=b4 v=64
4064 On ch=2 n=d#5 v=73
4068 Tempo 419580
4079 Off ch=2 n=d#5 v=64
4080 Tempo 416666
4092 Tempo 413793
4104 Tempo 410958
4116 Tempo 408163
4128 Tempo 405405
4128 On ch=2 n=g4 v=73
4140 Tempo 402684
4143 Off ch=2 n=g4 v=64
4144 On ch=2 n=d#5 v=73
4152 Tempo 400000
4159 Off ch=2 n=d#5 v=64
4164 Tempo 397350
4176 Tempo 394736
4188 Tempo 392156
4200 Tempo 389610
4212 Tempo 387096
4224 Tempo 384615
4236 Tempo 382165
4248 Tempo 379746
4260 Tempo 377358
4272 Tempo 375000
4284 Tempo 372670
4296 Tempo 370370
4308 Tempo 368098
4320 Tempo 365853
4332 Tempo 363636
4344 Tempo 361445
4356 Tempo 359281
4368 Tempo 357142
4380 Tempo 355029
4392 Tempo 352941
4404 Tempo 350877
4416 Tempo 348837
4428 Tempo 346820
4440 Tempo 344827
4452 Tempo 342857
4464 Tempo 340909
4476 Tempo 338983
4488 Tempo 337078
4500 Tempo 335195
4512 Tempo 333333
4524 Tempo 331491
4536 Tempo 329670
4548 Tempo 327868
4560 Tempo 326086
4572 Tempo 324324
4584 Tempo 322580
4596 Tempo 320855
4608 Tempo 319148
4620 Tempo 317460
4632 Tempo 315789
4800 TimeSig 2/4 96 8
5184 Tempo 315789
5187 Tempo 317460
5190 Tempo 319148
5193 Tempo 320855
5196 Tempo 322580
5199 Tempo 324324
5202 Tempo 326086
5205 Tempo 327868
5208 Tempo 329670
5211 Tempo 331491
5214 Tempo 333333
5217 Tempo 335195
5220 Tempo 337078
5223 Tempo 338983
5226 Tempo 340909
5229 Tempo 342857
5232 Tempo 344827
5235 Tempo 346820
5238 Tempo 348837
5241 Tempo 350877
5244 Tempo 352941
5247 Tempo 355029
5250 Tempo 357142
5253 Tempo 359281
5256 Tempo 361445
5259 Tempo 363636
5262 Tempo 365853
5265 Tempo 368098
5268 Tempo 370370
5271 Tempo 372670
5274 Tempo 375000
5277 Tempo 377358
5280 Tempo 379746
5283 Tempo 382165
5286 Tempo 384615
5289 Tempo 387096
5292 Tempo 389610
5295 Tempo 392156
5298 Tempo 394736
5301 Tempo 397350
5304 Tempo 400000
5307 Tempo 402684
5310 Tempo 405405
5313 Tempo 408163
5316 Tempo 410958
5319 Tempo 413793
5322 Tempo 416666
5325 Tempo 419580
5328 Tempo 422535
5331 Tempo 425531
5334 Tempo 428571
5337 Tempo 431654
5340 Tempo 434782
5343 Tempo 437956
5346 Tempo 441176
5349 Tempo 444444
5352 Tempo 447761
5355 Tempo 451127
5358 Tempo 454545
5361 Tempo 458015
5364 Tempo 461538
5367 Tempo 465116
5370 Tempo 468750
5373 Tempo 472440
5376 Tempo 476190
5379 Tempo 480000
5382 Tempo 483870
5385 Tempo 487804
5388 Tempo 491803
5391 Tempo 495867
5394 Tempo 500000
5397 Tempo 504201
5400 Tempo 508474
5403 Tempo 512820
5406 Tempo 517241
5409 Tempo 521739
5412 Tempo 526315
5415 Tempo 530973
5418 Tempo 535714
5421 Tempo 540540
5424 Tempo 545454
5427 Tempo 550458
5430 Tempo 555555
5433 Tempo 560747
5436 Tempo 566037
5439 Tempo 571428
5442 Tempo 576923
5445 Tempo 582524
5448 Tempo 588235
5451 Tempo 594059
5454 Tempo 600000
5457 Tempo 606060
5460 Tempo 612244
5463 Tempo 618556
5466 Tempo 625000
5469 Tempo 631578
5472 Tempo 638297
5475 Tempo 645161
5478 Tempo 652173
5481 Tempo 659340
5484 Tempo 666666
5487 Tempo 674157
5490 Tempo 681818
5493 Tempo 689655
5496 Tempo 697674
5499 Tempo 705882
5502 Tempo 714285
5505 Tempo 722891
5508 Tempo 731707
5511 Tempo 740740
5514 Tempo 750000
5568 Tempo 461538
5568 On ch=2 n=g#3 v=73
5568 On ch=2 n=e4 v=73
5855 Off ch=2 n=e4 v=64
5856 On ch=2 n=f4 v=73
5951 Off ch=2 n=g#3 v=64
5951 Off ch=2 n=f4 v=64
5952 On ch=2 n=g#3 v=73
5952 On ch=2 n=e4 v=73
6047 Off ch=2 n=e4 v=64
6048 On ch=2 n=d4 v=73
6239 Off ch=2 n=d4 v=64
6240 On ch=2 n=f4 v=73
6335 Off ch=2 n=g#3 v=64
6335 Off ch=2 n=f4 v=64
6336 On ch=2 n=g#3 v=73
6336 On ch=2 n=e4 v=73
6623 Off ch=2 n=e4 v=64
6624 On ch=2 n=f4 v=73
6719 Off ch=2 n=g#3 v=64
6719 Off ch=2 n=f4 v=64
6720 On ch=2 n=g#3 v=73
6720 On ch=2 n=e4 v=73
6815 Off ch=2 n=e4 v=64
6816 On ch=2 n=d4 v=73
7007 Off ch=2 n=d4 v=64
7008 On ch=2 n=f4 v=73
7103 Off ch=2 n=g#3 v=64
7103 Off ch=2 n=f4 v=64
7104 On ch=2 n=e4 v=73
7104 On ch=2 n=a3 v=73
7295 Off ch=2 n=e4 v=64
7295 Off ch=2 n=a3 v=64
7296 On ch=2 n=e4 v=73
7296 On ch=2 n=a3 v=73
7679 Off ch=2 n=a3 v=64
7679 Off ch=2 n=e4 v=64
7680 On ch=2 n=g#3 v=73
7680 On ch=2 n=e4 v=73
7775 Off ch=2 n=e4 v=64
7776 On ch=2 n=f4 v=73
7871 Off ch=2 n=g#3 v=64
7871 Off ch=2 n=f4 v=64
7872 On ch=2 n=e4 v=73
7872 On ch=2 n=a3 v=73
8063 Off ch=2 n=e4 v=64
8063 Off ch=2 n=a3 v=64
8064 On ch=2 n=a3 v=73
8064 On ch=2 n=d#4 v=73
8255 Off ch=2 n=a3 v=64
8255 Off ch=2 n=d#4 v=64
8256 On ch=2 n=a3 v=73
8256 On ch=2 n=e4 v=73
8351 Off ch=2 n=e4 v=64
8352 On ch=2 n=f#4 v=73
8400 On ch=2 n=g3 v=73
8424 On ch=2 n=e4 v=73
8447 Off ch=2 n=a3 v=64
8447 Off ch=2 n=f#4 v=64
8448 On ch=2 n=g4 v=73
8592 On ch=2 n=f#3 v=73
8616 On ch=2 n=e4 v=73
8639 Off ch=2 n=g3 v=64
8639 Off ch=2 n=e4 v=64
8639 Off ch=2 n=g4 v=64
8639 Off ch=2 n=f#3 v=64
8639 Off ch=2 n=e4 v=64
8640 On ch=2 n=e4 v=73
8640 On ch=2 n=a4 v=73
8927 Off ch=2 n=e4 v=64
8927 Off ch=2 n=a4 v=64
10272 On ch=2 n=f#4 v=73
10272 On ch=2 n=a4 v=73
10559 Off ch=2 n=f#4 v=64
10559 Off ch=2 n=a4 v=64
10656 On ch=2 n=f4 v=73
10656 On ch=2 n=g#4 v=73
10943 Off ch=2 n=f4 v=64
10943 Off ch=2 n=g#4 v=64
11040 On ch=2 n=f#4 v=73
11040 On ch=2 n=a4 v=73
11327 Off ch=2 n=f#4 v=64
11327 Off ch=2 n=a4 v=64
11424 On ch=2 n=f4 v=73
11424 On ch=2 n=g#4 v=73
11711 Off ch=2 n=f4 v=64
11711 Off ch=2 n=g#4 v=64
11712 TimeSig 1/4 96 8
11808 On ch=2 n=a4 v=73
11808 On ch=2 n=f#4 v=73
12095 Off ch=2 n=f#4 v=64
12095 Off ch=2 n=a4 v=64
12480 TimeSig 2/4 96 8
12480 Tempo 300000
18816 Tempo 300000
18821 Tempo 301507
18826 Tempo 303030
18831 Tempo 304568
18836 Tempo 306122
18841 Tempo 307692
18846 Tempo 309278
18851 Tempo 310880
18856 Tempo 312500
18861 Tempo 314136
18866 Tempo 315789
18871 Tempo 317460
18876 Tempo 319148
18881 Tempo 320855
18886 Tempo 322580
18891 Tempo 324324
18896 Tempo 326086
18901 Tempo 327868
18906 Tempo 329670
18911 Tempo 331491
18916 Tempo 333333
18921 Tempo 335195
18926 Tempo 337078
18931 Tempo 338983
18936 Tempo 340909
18941 Tempo 342857
18946 Tempo 344827
18951 Tempo 346820
18956 Tempo 348837
18961 Tempo 350877
18966 Tempo 352941
18971 Tempo 355029
18976 Tempo 357142
18981 Tempo 359281
18986 Tempo 361445
18991 Tempo 363636
18996 Tempo 365853
19001 Tempo 368098
19006 Tempo 370370
19011 Tempo 372670
19016 Tempo 375000
19021 Tempo 377358
19026 Tempo 379746
19031 Tempo 382165
19036 Tempo 384615
19041 Tempo 387096
19046 Tempo 389610
19051 Tempo 392156
19056 Tempo 394736
19061 Tempo 397350
19066 Tempo 400000
19071 Tempo 402684
19076 Tempo 405405
19081 Tempo 408163
19086 Tempo 410958
19091 Tempo 413793
19096 Tempo 416666
19101 Tempo 419580
19106 Tempo 422535
19111 Tempo 425531
19116 Tempo 428571
19121 Tempo 431654
19126 Tempo 434782
19131 Tempo 437956
19136 Tempo 441176
19141 Tempo 444444
19146 Tempo 447761
19151 Tempo 451127
19156 Tempo 454545
19161 Tempo 458015
19166 Tempo 461538
19200 On ch=2 n=a3 v=73
19200 On ch=2 n=f4 v=73
19487 Off ch=2 n=f4 v=64
19488 On ch=2 n=f#4 v=73
19583 Off ch=2 n=a3 v=64
19583 Off ch=2 n=f#4 v=64
19584 On ch=2 n=a3 v=73
19584 On ch=2 n=f4 v=73
19679 Off ch=2 n=f4 v=64
19680 On ch=2 n=d#4 v=73
19871 Off ch=2 n=d#4 v=64
19872 On ch=2 n=f#4 v=73
19967 Off ch=2 n=a3 v=64
19967 Off ch=2 n=f#4 v=64
19968 On ch=2 n=a3 v=73
19968 On ch=2 n=f4 v=73
20255 Off ch=2 n=f4 v=64
20256 On ch=2 n=f#4 v=73
20351 Off ch=2 n=a3 v=64
20351 Off ch=2 n=f#4 v=64
20352 On ch=2 n=a3 v=73
20352 On ch=2 n=f4 v=73
20447 Off ch=2 n=f4 v=64
20448 On ch=2 n=d#4 v=73
20639 Off ch=2 n=d#4 v=64
20640 On ch=2 n=f#4 v=73
20735 Off ch=2 n=a3 v=64
20735 Off ch=2 n=f#4 v=64
20736 On ch=2 n=f4 v=73
20736 On ch=2 n=a#3 v=73
20927 Off ch=2 n=f4 v=64
20927 Off ch=2 n=a#3 v=64
20928 On ch=2 n=f4 v=73
20928 On ch=2 n=a#3 v=73
21311 Off ch=2 n=a#3 v=64
21311 Off ch=2 n=f4 v=64
21312 On ch=2 n=a3 v=73
21312 On ch=2 n=f4 v=73
21407 Off ch=2 n=f4 v=64
21408 On ch=2 n=f#4 v=73
21503 Off ch=2 n=a3 v=64
21503 Off ch=2 n=f#4 v=64
21504 On ch=2 n=f4 v=73
21504 On ch=2 n=a#3 v=73
21695 Off ch=2 n=f4 v=64
21695 Off ch=2 n=a#3 v=64
21696 On ch=2 n=a#3 v=73
21696 On ch=2 n=e4 v=73
21887 Off ch=2 n=a#3 v=64
21887 Off ch=2 n=e4 v=64
21888 On ch=2 n=a#3 v=73
21888 On ch=2 n=f4 v=73
21983 Off ch=2 n=f4 v=64
21984 On ch=2 n=g4 v=73
22032 On ch=2 n=g#3 v=73
22056 On ch=2 n=f4 v=73
22079 Off ch=2 n=a#3 v=64
22079 Off ch=2 n=g4 v=64
22080 On ch=2 n=g#4 v=73
22224 On ch=2 n=g3 v=73
22248 On ch=2 n=f4 v=73
22271 Off ch=2 n=g#3 v=64
22271 Off ch=2 n=f4 v=64
22271 Off ch=2 n=g#4 v=64
22271 Off ch=2 n=g3 v=64
22271 Off ch=2 n=f4 v=64
22272 On ch=2 n=f4 v=73
22272 On ch=2 n=a#4 v=73
22559 Off ch=2 n=f4 v=64
22559 Off ch=2 n=a#4 v=64
23904 On ch=2 n=g4 v=73
23904 On ch=2 n=a#4 v=73
24191 Off ch=2 n=g4 v=64
24191 Off ch=2 n=a#4 v=64
24288 On ch=2 n=f#4 v=73
24288 On ch=2 n=a4 v=73
24575 Off ch=2 n=f#4 v=64
24575 Off ch=2 n=a4 v=64
24672 On ch=2 n=g4 v=73
24672 On ch=2 n=a#4 v=73
24959 Off ch=2 n=g4 v=64
24959 Off ch=2 n=a#4 v=64
25056 On ch=2 n=f#4 v=73
25056 On ch=2 n=a4 v=73
25343 Off ch=2 n=f#4 v=64
25343 Off ch=2 n=a4 v=64
25440 On ch=2 n=a#4 v=73
25440 On ch=2 n=g4 v=73
25727 Off ch=2 n=g4 v=64
25727 Off ch=2 n=a#4 v=64
26112 Tempo 300000
32064 Tempo 1500000
32448 TimeSig 1/4 96 8
32544 TimeSig 2/4 96 8
32544 Tempo 500000
32592 On ch=2 n=a4 v=73
32592 On ch=2 n=f#4 v=73
32615 Off ch=2 n=a4 v=64
32615 Off ch=2 n=f#4 v=64
32640 On ch=2 n=f#4 v=73
32640 On ch=2 n=a4 v=73
32663 Off ch=2 n=f#4 v=64
32663 Off ch=2 n=a4 v=64
32784 On ch=2 n=f#4 v=73
32784 On ch=2 n=d#4 v=73
32807 Off ch=2 n=f#4 v=64
32807 Off ch=2 n=d#4 v=64
32832 On ch=2 n=f#4 v=73
32832 On ch=2 n=d#4 v=73
32855 Off ch=2 n=f#4 v=64
32855 Off ch=2 n=d#4 v=64
32976 On ch=2 n=f4 v=73
32976 On ch=2 n=a3 v=73
32999 Off ch=2 n=f4 v=64
32999 Off ch=2 n=a3 v=64
33024 On ch=2 n=f4 v=73
33024 On ch=2 n=a3 v=73
33047 Off ch=2 n=f4 v=64
33047 Off ch=2 n=a3 v=64
33216 On ch=2 n=a4 v=73
33216 On ch=2 n=c4 v=73
33239 Off ch=2 n=a4 v=64
33239 Off ch=2 n=c4 v=64
33360 On ch=2 n=a4 v=73
33360 On ch=2 n=f#4 v=73
33383 Off ch=2 n=a4 v=64
33383 Off ch=2 n=f#4 v=64
33408 On ch=2 n=f#4 v=73
33408 On ch=2 n=a4 v=73
33431 Off ch=2 n=f#4 v=64
33431 Off ch=2 n=a4 v=64
33552 On ch=2 n=f#4 v=73
33552 On ch=2 n=d#4 v=73
33575 Off ch=2 n=f#4 v=64
33575 Off ch=2 n=d#4 v=64
33600 On ch=2 n=f#4 v=73
33600 On ch=2 n=d#4 v=73
33623 Off ch=2 n=f#4 v=64
33623 Off ch=2 n=d#4 v=64
33744 On ch=2 n=f4 v=73
33744 On ch=2 n=a3 v=73
33767 Off ch=2 n=f4 v=64
33767 Off ch=2 n=a3 v=64
33792 On ch=2 n=f4 v=73
33792 On ch=2 n=a3 v=73
33815 Off ch=2 n=f4 v=64
33815 Off ch=2 n=a3 v=64
33984 On ch=2 n=a4 v=73
33984 On ch=2 n=c4 v=73
34007 Off ch=2 n=a4 v=64
34007 Off ch=2 n=c4 v=64
34128 On ch=2 n=b3 v=73
34151 Off ch=2 n=b3 v=64
34152 On ch=2 n=c4 v=73
34175 Off ch=2 n=c4 v=64
34176 On ch=2 n=f4 v=73
34199 Off ch=2 n=f4 v=64
34224 On ch=2 n=e4 v=73
34247 Off ch=2 n=e4 v=64
34272 Tempo 500000
34272 On ch=2 n=d#4 v=73
34295 Off ch=2 n=d#4 v=64
34320 On ch=2 n=b3 v=73
34329 Tempo 495867
34343 Off ch=2 n=b3 v=64
34344 On ch=2 n=c4 v=73
34367 Off ch=2 n=c4 v=64
34368 On ch=2 n=f4 v=73
34386 Tempo 491803
34391 Off ch=2 n=f4 v=64
34416 On ch=2 n=e4 v=73
34439 Off ch=2 n=e4 v=64
34443 Tempo 487804
34464 On ch=2 n=d#4 v=73
34487 Off ch=2 n=d#4 v=64
34497 Tempo 483870
34509 On ch=2 n=b3 v=73
34532 Off ch=2 n=b3 v=64
34533 On ch=2 n=c4 v=73
34554 Tempo 480000
34556 Off ch=2 n=c4 v=64
34557 On ch=2 n=f#4 v=73
34580 Off ch=2 n=f#4 v=64
34605 On ch=2 n=e4 v=73
34611 Tempo 476190
34628 Off ch=2 n=e4 v=64
34653 On ch=2 n=d#4 v=73
34668 Tempo 472440
34676 Off ch=2 n=d#4 v=64
34701 On ch=2 n=b3 v=73
34724 Off ch=2 n=b3 v=64
34725 Tempo 468750
34725 On ch=2 n=c4 v=73
34748 Off ch=2 n=c4 v=64
34749 On ch=2 n=f#4 v=73
34772 Off ch=2 n=f#4 v=64
34782 Tempo 465116
34797 On ch=2 n=e4 v=73
34820 Off ch=2 n=e4 v=64
34839 Tempo 461538
34845 On ch=2 n=d#4 v=73
34868 Off ch=2 n=d#4 v=64
34893 On ch=2 n=b3 v=73
34896 Tempo 458015
34916 Off ch=2 n=b3 v=64
34917 On ch=2 n=c4 v=73
34940 Off ch=2 n=c4 v=64
34941 On ch=2 n=d#4 v=73
34953 Tempo 454545
34964 Off ch=2 n=d#4 v=64
34989 On ch=2 n=d#4 v=73
35010 Tempo 451127
35012 Off ch=2 n=d#4 v=64
35013 On ch=2 n=f#4 v=73
35036 Off ch=2 n=f#4 v=64
35037 On ch=2 n=a4 v=73
35060 Off ch=2 n=a4 v=64
35067 Tempo 447761
35124 Tempo 444444
35181 Tempo 441176
35238 Tempo 437956
35295 Tempo 434782
35352 Tempo 431654
35409 Tempo 428571
35466 Tempo 425531
35523 Tempo 422535
35580 Tempo 419580
35637 Tempo 416666
35694 Tempo 413793
35751 Tempo 410958
35808 Tempo 408163
35865 Tempo 405405
35922 Tempo 402684
35979 Tempo 400000
35997 On ch=2 n=g#4 v=73
35997 On ch=2 n=g#3 v=73
36044 Off ch=2 n=g#4 v=64
36044 Off ch=2 n=g#3 v=64
36045 On ch=2 n=g#4 v=73
36045 On ch=2 n=b4 v=73
36045 On ch=2 n=e5 v=73
36092 Off ch=2 n=g#4 v=64
36092 Off ch=2 n=b4 v=64
36092 Off ch=2 n=e5 v=64
36093 On ch=2 n=f5 v=73
36093 On ch=2 n=b4 v=73
36093 On ch=2 n=g#4 v=73
36188 Off ch=2 n=f5 v=64
36188 Off ch=2 n=b4 v=64
36188 Off ch=2 n=g#4 v=64
36189 On ch=2 n=g#4 v=73
36189 On ch=2 n=g#3 v=73
36236 Off ch=2 n=g#4 v=64
36236 Off ch=2 n=g#3 v=64
36237 On ch=2 n=g#4 v=73
36237 On ch=2 n=b4 v=73
36237 On ch=2 n=e5 v=73
36284 Off ch=2 n=g#4 v=64
36284 Off ch=2 n=b4 v=64
36284 Off ch=2 n=e5 v=64
36285 On ch=2 n=a4 v=73
36285 On ch=2 n=a3 v=73
36332 Off ch=2 n=a4 v=64
36332 Off ch=2 n=a3 v=64
36333 On ch=2 n=a4 v=73
36333 On ch=2 n=c5 v=73
36333 On ch=2 n=f#5 v=73
36380 Off ch=2 n=a4 v=64
36380 Off ch=2 n=c5 v=64
36380 Off ch=2 n=f#5 v=64
36381 On ch=2 n=g#4 v=73
36381 On ch=2 n=g#3 v=73
36428 Off ch=2 n=g#4 v=64
36428 Off ch=2 n=g#3 v=64
36429 On ch=2 n=g#4 v=73
36429 On ch=2 n=b4 v=73
36429 On ch=2 n=e5 v=73
36476 Off ch=2 n=g#4 v=64
36476 Off ch=2 n=b4 v=64
36476 Off ch=2 n=e5 v=64
36477 On ch=2 n=f5 v=73
36477 On ch=2 n=b4 v=73
36477 On ch=2 n=g#4 v=73
36572 Off ch=2 n=f5 v=64
36572 Off ch=2 n=b4 v=64
36572 Off ch=2 n=g#4 v=64
36573 On ch=2 n=g#4 v=73
36573 On ch=2 n=g#3 v=73
36620 Off ch=2 n=g#4 v=64
36620 Off ch=2 n=g#3 v=64
36621 On ch=2 n=g#4 v=73
36621 On ch=2 n=b4 v=73
36621 On ch=2 n=e5 v=73
36668 Off ch=2 n=g#4 v=64
36668 Off ch=2 n=b4 v=64
36668 Off ch=2 n=e5 v=64
36669 On ch=2 n=a4 v=73
36669 On ch=2 n=a3 v=73
36716 Off ch=2 n=a4 v=64
36716 Off ch=2 n=a3 v=64
36717 On ch=2 n=a4 v=73
36717 On ch=2 n=c5 v=73
36717 On ch=2 n=f#5 v=73
36764 Off ch=2 n=a4 v=64
36764 Off ch=2 n=c5 v=64
36764 Off ch=2 n=f#5 v=64
36765 On ch=2 n=g#4 v=73
36765 On ch=2 n=g#3 v=73
36812 Off ch=2 n=g#4 v=64
36812 Off ch=2 n=g#3 v=64
36813 On ch=2 n=g#4 v=73
36813 On ch=2 n=b4 v=73
36813 On ch=2 n=e5 v=73
36860 Off ch=2 n=g#4 v=64
36860 Off ch=2 n=b4 v=64
36860 Off ch=2 n=e5 v=64
36861 On ch=2 n=a4 v=73
36861 On ch=2 n=a3 v=73
36908 Off ch=2 n=a4 v=64
36908 Off ch=2 n=a3 v=64
36909 On ch=2 n=a4 v=73
36909 On ch=2 n=c5 v=73
36909 On ch=2 n=f#5 v=73
36956 Off ch=2 n=a4 v=64
36956 Off ch=2 n=c5 v=64
36956 Off ch=2 n=f#5 v=64
36957 On ch=2 n=g#4 v=73
36957 On ch=2 n=g#3 v=73
37004 Off ch=2 n=g#4 v=64
37004 Off ch=2 n=g#3 v=64
37005 On ch=2 n=g#4 v=73
37005 On ch=2 n=b4 v=73
37005 On ch=2 n=e5 v=73
37052 Off ch=2 n=g#4 v=64
37052 Off ch=2 n=b4 v=64
37052 Off ch=2 n=e5 v=64
37053 On ch=2 n=a4 v=73
37053 On ch=2 n=a3 v=73
37100 Off ch=2 n=a4 v=64
37100 Off ch=2 n=a3 v=64
37101 On ch=2 n=a4 v=73
37101 On ch=2 n=c5 v=73
37101 On ch=2 n=f#5 v=73
37148 Off ch=2 n=a4 v=64
37148 Off ch=2 n=c5 v=64
37148 Off ch=2 n=f#5 v=64
37149 On ch=2 n=g#4 v=73
37149 On ch=2 n=g#3 v=73
37196 Off ch=2 n=g#4 v=64
37196 Off ch=2 n=g#3 v=64
37197 On ch=2 n=g#4 v=73
37197 On ch=2 n=b4 v=73
37197 On ch=2 n=e5 v=73
37244 Off ch=2 n=g#4 v=64
37244 Off ch=2 n=b4 v=64
37244 Off ch=2 n=e5 v=64
37245 On ch=2 n=g4 v=73
37245 On ch=2 n=g3 v=73
37292 Off ch=2 n=g4 v=64
37292 Off ch=2 n=g3 v=64
37293 On ch=2 n=g4 v=73
37293 On ch=2 n=b4 v=73
37293 On ch=2 n=e5 v=73
37340 Off ch=2 n=g4 v=64
37340 Off ch=2 n=b4 v=64
37340 Off ch=2 n=e5 v=64
37341 On ch=2 n=g#4 v=73
37341 On ch=2 n=g#3 v=73
37388 Off ch=2 n=g#4 v=64
37388 Off ch=2 n=g#3 v=64
37389 On ch=2 n=g#4 v=73
37389 On ch=2 n=b4 v=73
37389 On ch=2 n=e5 v=73
37436 Off ch=2 n=g#4 v=64
37436 Off ch=2 n=b4 v=64
37436 Off ch=2 n=e5 v=64
37437 On ch=2 n=g4 v=73
37437 On ch=2 n=g3 v=73
37484 Off ch=2 n=g4 v=64
37484 Off ch=2 n=g3 v=64
37485 On ch=2 n=g4 v=73
37485 On ch=2 n=b4 v=73
37485 On ch=2 n=e5 v=73
37532 Off ch=2 n=g4 v=64
37532 Off ch=2 n=b4 v=64
37532 Off ch=2 n=e5 v=64
37533 On ch=2 n=g#4 v=73
37533 On ch=2 n=g#3 v=73
37580 Off ch=2 n=g#4 v=64
37580 Off ch=2 n=g#3 v=64
37581 On ch=2 n=g#4 v=73
37581 On ch=2 n=b4 v=73
37581 On ch=2 n=e5 v=73
37628 Off ch=2 n=g#4 v=64
37628 Off ch=2 n=b4 v=64
37628 Off ch=2 n=e5 v=64
37629 On ch=2 n=g4 v=73
37629 On ch=2 n=g3 v=73
37676 Off ch=2 n=g4 v=64
37676 Off ch=2 n=g3 v=64
37677 On ch=2 n=g4 v=73
37677 On ch=2 n=b4 v=73
37677 On ch=2 n=e5 v=73
37724 Off ch=2 n=g4 v=64
37724 Off ch=2 n=b4 v=64
37724 Off ch=2 n=e5 v=64
37725 On ch=2 n=g#4 v=73
37725 On ch=2 n=g#3 v=73
37772 Off ch=2 n=g#4 v=64
37772 Off ch=2 n=g#3 v=64
37773 On ch=2 n=g#4 v=73
37773 On ch=2 n=b4 v=73
37773 On ch=2 n=e5 v=73
37820 Off ch=2 n=g#4 v=64
37820 Off ch=2 n=b4 v=64
37820 Off ch=2 n=e5 v=64
37821 On ch=2 n=g4 v=73
37821 On ch=2 n=g3 v=73
37868 Off ch=2 n=g4 v=64
37868 Off ch=2 n=g3 v=64
37869 On ch=2 n=g4 v=73
37869 On ch=2 n=b4 v=73
37869 On ch=2 n=e5 v=73
37916 Off ch=2 n=g4 v=64
37916 Off ch=2 n=b4 v=64
37916 Off ch=2 n=e5 v=64
37917 On ch=2 n=a4 v=73
37917 On ch=2 n=a3 v=73
37964 Off ch=2 n=a4 v=64
37964 Off ch=2 n=a3 v=64
37965 On ch=2 n=c#5 v=73
37965 On ch=2 n=e5 v=73
38012 Off ch=2 n=c#5 v=64
38012 Off ch=2 n=e5 v=64
38013 On ch=2 n=g#4 v=73
38013 On ch=2 n=g#3 v=73
38060 Off ch=2 n=g#4 v=64
38060 Off ch=2 n=g#3 v=64
38061 On ch=2 n=c#5 v=73
38061 On ch=2 n=e5 v=73
38108 Off ch=2 n=c#5 v=64
38108 Off ch=2 n=e5 v=64
38109 On ch=2 n=f#4 v=73
38109 On ch=2 n=f#3 v=73
38156 Off ch=2 n=f#4 v=64
38156 Off ch=2 n=f#3 v=64
38157 On ch=2 n=c#5 v=73
38157 On ch=2 n=e5 v=73
38204 Off ch=2 n=c#5 v=64
38204 Off ch=2 n=e5 v=64
38205 On ch=2 n=g#4 v=73
38205 On ch=2 n=g#3 v=73
38252 Off ch=2 n=g#4 v=64
38252 Off ch=2 n=g#3 v=64
38253 On ch=2 n=c#5 v=73
38253 On ch=2 n=e5 v=73
38300 Off ch=2 n=c#5 v=64
38300 Off ch=2 n=e5 v=64
38301 On ch=2 n=a4 v=73
38301 On ch=2 n=a3 v=73
38348 Off ch=2 n=a4 v=64
38348 Off ch=2 n=a3 v=64
38349 On ch=2 n=c#5 v=73
38349 On ch=2 n=e5 v=73
38396 Off ch=2 n=c#5 v=64
38396 Off ch=2 n=e5 v=64
38397 On ch=2 n=g#4 v=73
38397 On ch=2 n=g#3 v=73
38444 Off ch=2 n=g#4 v=64
38444 Off ch=2 n=g#3 v=64
38445 On ch=2 n=c#5 v=73
38445 On ch=2 n=e5 v=73
38492 Off ch=2 n=c#5 v=64
38492 Off ch=2 n=e5 v=64
38493 On ch=2 n=f#4 v=73
38493 On ch=2 n=f#3 v=73
38540 Off ch=2 n=f#4 v=64
38540 Off ch=2 n=f#3 v=64
38541 On ch=2 n=c#5 v=73
38541 On ch=2 n=e5 v=73
38588 Off ch=2 n=c#5 v=64
38588 Off ch=2 n=e5 v=64
38589 On ch=2 n=g#4 v=73
38589 On ch=2 n=g#3 v=73
38636 Off ch=2 n=g#4 v=64
38636 Off ch=2 n=g#3 v=64
38637 On ch=2 n=c#5 v=73
38637 On ch=2 n=e5 v=73
38684 Off ch=2 n=c#5 v=64
38684 Off ch=2 n=e5 v=64
38685 On ch=2 n=a4 v=73
38685 On ch=2 n=a3 v=73
38732 Off ch=2 n=a4 v=64
38732 Off ch=2 n=a3 v=64
38733 On ch=2 n=c#5 v=73
38733 On ch=2 n=e5 v=73
38780 Off ch=2 n=c#5 v=64
38780 Off ch=2 n=e5 v=64
38781 On ch=2 n=a#4 v=73
38781 On ch=2 n=a#3 v=73
38828 Off ch=2 n=a#4 v=64
38828 Off ch=2 n=a#3 v=64
38829 On ch=2 n=c#5 v=73
38829 On ch=2 n=e5 v=73
38876 Off ch=2 n=c#5 v=64
38876 Off ch=2 n=e5 v=64
38877 On ch=2 n=a#4 v=73
38877 On ch=2 n=a#3 v=73
38924 Off ch=2 n=a#4 v=64
38924 Off ch=2 n=a#3 v=64
38925 On ch=2 n=c#5 v=73
38925 On ch=2 n=e5 v=73
38972 Off ch=2 n=c#5 v=64
38972 Off ch=2 n=e5 v=64
38973 On ch=2 n=c#5 v=73
38973 On ch=2 n=c#4 v=73
39020 Off ch=2 n=c#5 v=64
39020 Off ch=2 n=c#4 v=64
39021 On ch=2 n=b4 v=73
39021 On ch=2 n=b3 v=73
39068 Off ch=2 n=b4 v=64
39068 Off ch=2 n=b3 v=64
39069 On ch=2 n=a4 v=73
39069 On ch=2 n=a3 v=73
39116 Off ch=2 n=a4 v=64
39116 Off ch=2 n=a3 v=64
39117 On ch=2 n=c#5 v=73
39117 On ch=2 n=e5 v=73
39164 Off ch=2 n=c#5 v=64
39164 Off ch=2 n=e5 v=64
39165 On ch=2 n=a#4 v=73
39165 On ch=2 n=a#3 v=73
39212 Off ch=2 n=a#4 v=64
39212 Off ch=2 n=a#3 v=64
39213 On ch=2 n=c#5 v=73
39213 On ch=2 n=e5 v=73
39260 Off ch=2 n=c#5 v=64
39260 Off ch=2 n=e5 v=64
39261 On ch=2 n=a#4 v=73
39261 On ch=2 n=a#3 v=73
39308 Off ch=2 n=a#4 v=64
39308 Off ch=2 n=a#3 v=64
39309 On ch=2 n=c#5 v=73
39309 On ch=2 n=e5 v=73
39356 Off ch=2 n=c#5 v=64
39356 Off ch=2 n=e5 v=64
39357 On ch=2 n=c#5 v=73
39357 On ch=2 n=c#4 v=73
39404 Off ch=2 n=c#5 v=64
39404 Off ch=2 n=c#4 v=64
39405 On ch=2 n=b4 v=73
39405 On ch=2 n=b3 v=73
39452 Off ch=2 n=b4 v=64
39452 Off ch=2 n=b3 v=64
39453 On ch=2 n=a3 v=73
39453 On ch=2 n=a4 v=73
39476 Off ch=2 n=a3 v=64
39476 Off ch=2 n=a4 v=64
39501 On ch=2 n=c#5 v=73
39501 On ch=2 n=c#4 v=73
39524 Off ch=2 n=c#5 v=64
39524 Off ch=2 n=c#4 v=64
39549 On ch=2 n=e5 v=73
39549 On ch=2 n=e4 v=73
39572 Off ch=2 n=e5 v=64
39572 Off ch=2 n=e4 v=64
39597 On ch=2 n=c#5 v=73
39597 On ch=2 n=c#4 v=73
39620 Off ch=2 n=c#5 v=64
39620 Off ch=2 n=c#4 v=64
39645 On ch=2 n=a3 v=73
39645 On ch=2 n=a4 v=73
39668 Off ch=2 n=a3 v=64
39668 Off ch=2 n=a4 v=64
39693 On ch=2 n=g#4 v=73
39693 On ch=2 n=g#3 v=73
39716 Off ch=2 n=g#4 v=64
39716 Off ch=2 n=g#3 v=64
39741 On ch=2 n=f#4 v=73
39741 On ch=2 n=f#3 v=73
39764 Off ch=2 n=f#4 v=64
39764 Off ch=2 n=f#3 v=64
39789 On ch=2 n=e3 v=73
39789 On ch=2 n=e4 v=73
39812 Off ch=2 n=e3 v=64
39812 Off ch=2 n=e4 v=64
39837 On ch=2 n=d4 v=73
39837 On ch=2 n=d3 v=73
39884 Off ch=2 n=d4 v=64
39884 Off ch=2 n=d3 v=64
39933 On ch=2 n=d5 v=73
39933 On ch=2 n=f#5 v=73
39933 On ch=2 n=a4 v=73
39980 Off ch=2 n=d5 v=64
39980 Off ch=2 n=f#5 v=64
39980 Off ch=2 n=a4 v=64
39981 On ch=2 n=a4 v=73
39981 On ch=2 n=d5 v=73
39981 On ch=2 n=f#5 v=73
40028 Off ch=2 n=a4 v=64
40028 Off ch=2 n=d5 v=64
40028 Off ch=2 n=f#5 v=64
40029 On ch=2 n=a4 v=73
40029 On ch=2 n=d5 v=73
40029 On ch=2 n=f#5 v=73
40076 Off ch=2 n=a4 v=64
40076 Off ch=2 n=d5 v=64
40076 Off ch=2 n=f#5 v=64
40125 On ch=2 n=d4 v=73
40125 On ch=2 n=d3 v=73
40148 Off ch=2 n=d4 v=64
40148 Off ch=2 n=d3 v=64
40173 On ch=2 n=f#4 v=73
40173 On ch=2 n=f#3 v=73
40196 Off ch=2 n=f#4 v=64
40196 Off ch=2 n=f#3 v=64
40221 On ch=2 n=a3 v=73
40221 On ch=2 n=a4 v=73
40244 Off ch=2 n=a3 v=64
40244 Off ch=2 n=a4 v=64
40269 On ch=2 n=c#5 v=73
40269 On ch=2 n=c#4 v=73
40292 Off ch=2 n=c#5 v=64
40292 Off ch=2 n=c#4 v=64
40317 On ch=2 n=e5 v=73
40317 On ch=2 n=e4 v=73
40340 Off ch=2 n=e5 v=64
40340 Off ch=2 n=e4 v=64
40365 On ch=2 n=c#5 v=73
40365 On ch=2 n=c#4 v=73
40388 Off ch=2 n=c#5 v=64
40388 Off ch=2 n=c#4 v=64
40413 On ch=2 n=a3 v=73
40413 On ch=2 n=a4 v=73
40436 Off ch=2 n=a3 v=64
40436 Off ch=2 n=a4 v=64
40461 On ch=2 n=g#4 v=73
40461 On ch=2 n=g#3 v=73
40484 Off ch=2 n=g#4 v=64
40484 Off ch=2 n=g#3 v=64
40509 On ch=2 n=f#4 v=73
40509 On ch=2 n=f#3 v=73
40532 Off ch=2 n=f#4 v=64
40532 Off ch=2 n=f#3 v=64
40557 On ch=2 n=e3 v=73
40557 On ch=2 n=e4 v=73
40580 Off ch=2 n=e3 v=64
40580 Off ch=2 n=e4 v=64
40605 On ch=2 n=d4 v=73
40605 On ch=2 n=d3 v=73
40652 Off ch=2 n=d4 v=64
40652 Off ch=2 n=d3 v=64
40701 On ch=2 n=d5 v=73
40701 On ch=2 n=f#5 v=73
40701 On ch=2 n=a4 v=73
40748 Off ch=2 n=d5 v=64
40748 Off ch=2 n=f#5 v=64
40748 Off ch=2 n=a4 v=64
40749 On ch=2 n=a4 v=73
40749 On ch=2 n=d5 v=73
40749 On ch=2 n=f#5 v=73
40796 Off ch=2 n=a4 v=64
40796 Off ch=2 n=d5 v=64
40796 Off ch=2 n=f#5 v=64
40797 On ch=2 n=a4 v=73
40797 On ch=2 n=d5 v=73
40797 On ch=2 n=f#5 v=73
40844 Off ch=2 n=a4 v=64
40844 Off ch=2 n=d5 v=64
40844 Off ch=2 n=f#5 v=64
40893 On ch=2 n=a4 v=73
40893 On ch=2 n=a3 v=73
40916 Off ch=2 n=a4 v=64
40916 Off ch=2 n=a3 v=64
40941 On ch=2 n=f#3 v=73
40941 On ch=2 n=f#4 v=73
40964 Off ch=2 n=f#3 v=64
40964 Off ch=2 n=f#4 v=64
40989 On ch=2 n=d#4 v=73
40989 On ch=2 n=d#3 v=73
41012 Off ch=2 n=d#4 v=64
41012 Off ch=2 n=d#3 v=64
41037 On ch=2 n=f#3 v=73
41037 On ch=2 n=f#4 v=73
41060 Off ch=2 n=f#3 v=64
41060 Off ch=2 n=f#4 v=64
41085 On ch=2 n=b3 v=73
41085 On ch=2 n=b4 v=73
41108 Off ch=2 n=b3 v=64
41108 Off ch=2 n=b4 v=64
41133 On ch=2 n=c#5 v=73
41133 On ch=2 n=c#4 v=73
41156 Off ch=2 n=c#5 v=64
41156 Off ch=2 n=c#4 v=64
41181 On ch=2 n=d#4 v=73
41181 On ch=2 n=d#5 v=73
41204 Off ch=2 n=d#4 v=64
41204 Off ch=2 n=d#5 v=64
41229 On ch=2 n=f#5 v=73
41229 On ch=2 n=f#4 v=73
41252 Off ch=2 n=f#5 v=64
41252 Off ch=2 n=f#4 v=64
41277 On ch=2 n=d#5 v=73
41277 On ch=2 n=d#4 v=73
41300 Off ch=2 n=d#5 v=64
41300 Off ch=2 n=d#4 v=64
41325 On ch=2 n=c#5 v=73
41325 On ch=2 n=c#4 v=73
41348 Off ch=2 n=c#5 v=64
41348 Off ch=2 n=c#4 v=64
41373 On ch=2 n=d#4 v=73
41373 On ch=2 n=d#5 v=73
41396 Off ch=2 n=d#4 v=64
41396 Off ch=2 n=d#5 v=64
41421 On ch=2 n=f#5 v=73
41421 On ch=2 n=f#4 v=73
41444 Off ch=2 n=f#5 v=64
41444 Off ch=2 n=f#4 v=64
41469 On ch=2 n=b4 v=73
41469 On ch=2 n=b3 v=73
41492 Off ch=2 n=b4 v=64
41492 Off ch=2 n=b3 v=64
41517 On ch=2 n=c#4 v=73
41517 On ch=2 n=c#5 v=73
41540 Off ch=2 n=c#4 v=64
41540 Off ch=2 n=c#5 v=64
41565 On ch=2 n=d#4 v=73
41565 On ch=2 n=d#5 v=73
41588 Off ch=2 n=d#4 v=64
41588 Off ch=2 n=d#5 v=64
41613 On ch=2 n=c#5 v=73
41613 On ch=2 n=c#4 v=73
41636 Off ch=2 n=c#5 v=64
41636 Off ch=2 n=c#4 v=64
41661 On ch=2 n=b4 v=73
41661 On ch=2 n=b3 v=73
41684 Off ch=2 n=b4 v=64
41684 Off ch=2 n=b3 v=64
41709 On ch=2 n=f#3 v=73
41709 On ch=2 n=f#4 v=73
41732 Off ch=2 n=f#3 v=64
41732 Off ch=2 n=f#4 v=64
41757 On ch=2 n=d#4 v=73
41757 On ch=2 n=d#3 v=73
41780 Off ch=2 n=d#4 v=64
41780 Off ch=2 n=d#3 v=64
41805 On ch=2 n=f#3 v=73
41805 On ch=2 n=f#4 v=73
41828 Off ch=2 n=f#3 v=64
41828 Off ch=2 n=f#4 v=64
41853 On ch=2 n=b3 v=73
41853 On ch=2 n=b4 v=73
41876 Off ch=2 n=b3 v=64
41876 Off ch=2 n=b4 v=64
41901 On ch=2 n=c#5 v=73
41901 On ch=2 n=c#4 v=73
41924 Off ch=2 n=c#5 v=64
41924 Off ch=2 n=c#4 v=64
41949 On ch=2 n=d#4 v=73
41949 On ch=2 n=d#5 v=73
41972 Off ch=2 n=d#4 v=64
41972 Off ch=2 n=d#5 v=64
41997 On ch=2 n=f#5 v=73
41997 On ch=2 n=f#4 v=73
42020 Off ch=2 n=f#5 v=64
42020 Off ch=2 n=f#4 v=64
42045 On ch=2 n=d#5 v=73
42045 On ch=2 n=d#4 v=73
42068 Off ch=2 n=d#5 v=64
42068 Off ch=2 n=d#4 v=64
42093 On ch=2 n=c#5 v=73
42093 On ch=2 n=c#4 v=73
42116 Off ch=2 n=c#5 v=64
42116 Off ch=2 n=c#4 v=64
42141 On ch=2 n=d#4 v=73
42141 On ch=2 n=d#5 v=73
42164 Off ch=2 n=d#4 v=64
42164 Off ch=2 n=d#5 v=64
42189 On ch=2 n=f#5 v=73
42189 On ch=2 n=f#4 v=73
42212 Off ch=2 n=f#5 v=64
42212 Off ch=2 n=f#4 v=64
42237 On ch=2 n=b4 v=73
42237 On ch=2 n=b3 v=73
42260 Off ch=2 n=b4 v=64
42260 Off ch=2 n=b3 v=64
42285 On ch=2 n=c#4 v=73
42285 On ch=2 n=c#5 v=73
42308 Off ch=2 n=c#4 v=64
42308 Off ch=2 n=c#5 v=64
42333 On ch=2 n=d#4 v=73
42333 On ch=2 n=d#5 v=73
42356 Off ch=2 n=d#4 v=64
42356 Off ch=2 n=d#5 v=64
42381 On ch=2 n=c#5 v=73
42381 On ch=2 n=c#4 v=73
42404 Off ch=2 n=c#5 v=64
42404 Off ch=2 n=c#4 v=64
42429 On ch=2 n=b4 v=73
42429 On ch=2 n=b3 v=73
42452 Off ch=2 n=b4 v=64
42452 Off ch=2 n=b3 v=64
42477 On ch=2 n=f#3 v=73
42477 On ch=2 n=f#4 v=73
42500 Off ch=2 n=f#3 v=64
42500 Off ch=2 n=f#4 v=64
42525 On ch=2 n=f3 v=73
42525 On ch=2 n=f4 v=73
42548 Off ch=2 n=f3 v=64
42548 Off ch=2 n=f4 v=64
42573 On ch=2 n=g#4 v=73
42573 On ch=2 n=g#3 v=73
42596 Off ch=2 n=g#4 v=64
42596 Off ch=2 n=g#3 v=64
42621 On ch=2 n=c#5 v=73
42621 On ch=2 n=c#4 v=73
42644 Off ch=2 n=c#5 v=64
42644 Off ch=2 n=c#4 v=64
42669 On ch=2 n=d#5 v=73
42669 On ch=2 n=d#4 v=73
42692 Off ch=2 n=d#5 v=64
42692 Off ch=2 n=d#4 v=64
42717 On ch=2 n=f4 v=73
42717 On ch=2 n=f5 v=73
42740 Off ch=2 n=f4 v=64
42740 Off ch=2 n=f5 v=64
42765 On ch=2 n=g#4 v=73
42788 Off ch=2 n=g#4 v=64
42813 On ch=2 n=f4 v=73
42813 On ch=2 n=f5 v=73
42836 Off ch=2 n=f4 v=64
42836 Off ch=2 n=f5 v=64
42861 On ch=2 n=d#4 v=73
42861 On ch=2 n=d#5 v=73
42884 Off ch=2 n=d#4 v=64
42884 Off ch=2 n=d#5 v=64
42909 On ch=2 n=f5 v=73
42909 On ch=2 n=f4 v=73
42932 Off ch=2 n=f5 v=64
42932 Off ch=2 n=f4 v=64
42957 On ch=2 n=g#4 v=73
42980 Off ch=2 n=g#4 v=64
43005 On ch=2 n=c#4 v=73
43005 On ch=2 n=c#5 v=73
43028 Off ch=2 n=c#4 v=64
43028 Off ch=2 n=c#5 v=64
43053 On ch=2 n=d#4 v=73
43053 On ch=2 n=d#5 v=73
43076 Off ch=2 n=d#4 v=64
43076 Off ch=2 n=d#5 v=64
43101 On ch=2 n=f4 v=73
43101 On ch=2 n=f5 v=73
43124 Off ch=2 n=f4 v=64
43124 Off ch=2 n=f5 v=64
43149 On ch=2 n=d#5 v=73
43149 On ch=2 n=d#4 v=73
43172 Off ch=2 n=d#5 v=64
43172 Off ch=2 n=d#4 v=64
43197 On ch=2 n=c#5 v=73
43197 On ch=2 n=c#4 v=73
43220 Off ch=2 n=c#5 v=64
43220 Off ch=2 n=c#4 v=64
43245 On ch=2 n=g#3 v=73
43245 On ch=2 n=g#4 v=73
43268 Off ch=2 n=g#3 v=64
43268 Off ch=2 n=g#4 v=64
43293 On ch=2 n=f3 v=73
43293 On ch=2 n=f4 v=73
43316 Off ch=2 n=f3 v=64
43316 Off ch=2 n=f4 v=64
43341 On ch=2 n=g#4 v=73
43341 On ch=2 n=g#3 v=73
43364 Off ch=2 n=g#4 v=64
43364 Off ch=2 n=g#3 v=64
43389 On ch=2 n=c#5 v=73
43389 On ch=2 n=c#4 v=73
43412 Off ch=2 n=c#5 v=64
43412 Off ch=2 n=c#4 v=64
43437 On ch=2 n=d#5 v=73
43437 On ch=2 n=d#4 v=73
43460 Off ch=2 n=d#5 v=64
43460 Off ch=2 n=d#4 v=64
43485 On ch=2 n=f4 v=73
43485 On ch=2 n=f5 v=73
43508 Off ch=2 n=f4 v=64
43508 Off ch=2 n=f5 v=64
43533 On ch=2 n=g#4 v=73
43556 Off ch=2 n=g#4 v=64
43581 On ch=2 n=f4 v=73
43581 On ch=2 n=f5 v=73
43604 Off ch=2 n=f4 v=64
43604 Off ch=2 n=f5 v=64
43629 On ch=2 n=d#4 v=73
43629 On ch=2 n=d#5 v=73
43652 Off ch=2 n=d#4 v=64
43652 Off ch=2 n=d#5 v=64
43677 On ch=2 n=f5 v=73
43677 On ch=2 n=f4 v=73
43700 Off ch=2 n=f5 v=64
43700 Off ch=2 n=f4 v=64
43725 On ch=2 n=g#4 v=73
43748 Off ch=2 n=g#4 v=64
43773 On ch=2 n=c#4 v=73
43773 On ch=2 n=c#5 v=73
43796 Off ch=2 n=c#4 v=64
43796 Off ch=2 n=c#5 v=64
43821 On ch=2 n=d#4 v=73
43821 On ch=2 n=d#5 v=73
43844 Off ch=2 n=d#4 v=64
43844 Off ch=2 n=d#5 v=64
43869 On ch=2 n=f4 v=73
43869 On ch=2 n=f5 v=73
43892 Off ch=2 n=f4 v=64
43892 Off ch=2 n=f5 v=64
43917 On ch=2 n=d#5 v=73
43917 On ch=2 n=d#4 v=73
43940 Off ch=2 n=d#5 v=64
43940 Off ch=2 n=d#4 v=64
43965 On ch=2 n=c#5 v=73
43965 On ch=2 n=c#4 v=73
43988 Off ch=2 n=c#5 v=64
43988 Off ch=2 n=c#4 v=64
44013 On ch=2 n=g#3 v=73
44013 On ch=2 n=g#4 v=73
44036 Off ch=2 n=g#3 v=64
44036 Off ch=2 n=g#4 v=64
44061 On ch=2 n=f#4 v=73
44061 On ch=2 n=f#3 v=73
44108 Off ch=2 n=f#4 v=64
44108 Off ch=2 n=f#3 v=64
44109 On ch=2 n=c#5 v=73
44109 On ch=2 n=f#4 v=73
44204 Off ch=2 n=c#5 v=64
44204 Off ch=2 n=f#4 v=64
44205 On ch=2 n=c#5 v=73
44205 On ch=2 n=g#4 v=73
44252 Off ch=2 n=c#5 v=64
44252 Off ch=2 n=g#4 v=64
44253 On ch=2 n=a#4 v=73
44300 Off ch=2 n=a#4 v=64
44301 On ch=2 n=a#4 v=73
44396 Off ch=2 n=a#4 v=64
44445 On ch=2 n=f#4 v=73
44445 On ch=2 n=f#3 v=73
44492 Off ch=2 n=f#4 v=64
44492 Off ch=2 n=f#3 v=64
44493 On ch=2 n=b4 v=73
44588 Off ch=2 n=b4 v=64
44589 On ch=2 n=a#4 v=73
44636 Off ch=2 n=a#4 v=64
44637 On ch=2 n=b4 v=73
44732 Off ch=2 n=b4 v=64
44733 On ch=2 n=b4 v=73
44733 On ch=2 n=d#5 v=73
44828 Off ch=2 n=b4 v=64
44828 Off ch=2 n=d#5 v=64
44829 On ch=2 n=f#4 v=73
44829 On ch=2 n=f#3 v=73
44876 Off ch=2 n=f#4 v=64
44876 Off ch=2 n=f#3 v=64
44877 On ch=2 n=c#5 v=73
44877 On ch=2 n=f#4 v=73
44972 Off ch=2 n=c#5 v=64
44972 Off ch=2 n=f#4 v=64
44973 On ch=2 n=c#5 v=73
44973 On ch=2 n=g#4 v=73
45020 Off ch=2 n=c#5 v=64
45020 Off ch=2 n=g#4 v=64
45021 On ch=2 n=a#4 v=73
45068 Off ch=2 n=a#4 v=64
45069 On ch=2 n=a#4 v=73
45164 Off ch=2 n=a#4 v=64
45213 On ch=2 n=f#4 v=73
45213 On ch=2 n=f#3 v=73
45260 Off ch=2 n=f#4 v=64
45260 Off ch=2 n=f#3 v=64
45261 On ch=2 n=b4 v=73
45356 Off ch=2 n=b4 v=64
45357 On ch=2 n=a#4 v=73
45404 Off ch=2 n=a#4 v=64
45405 On ch=2 n=b4 v=73
45500 Off ch=2 n=b4 v=64
45501 On ch=2 n=b4 v=73
45501 On ch=2 n=d#5 v=73
45596 Off ch=2 n=b4 v=64
45596 Off ch=2 n=d#5 v=64
45597 On ch=2 n=d#4 v=73
45597 On ch=2 n=d#3 v=73
45644 Off ch=2 n=d#4 v=64
45644 Off ch=2 n=d#3 v=64
45645 On ch=2 n=f#4 v=73
45740 Off ch=2 n=f#4 v=64
45741 On ch=2 n=a#4 v=73
45788 Off ch=2 n=a#4 v=64
45789 On ch=2 n=b4 v=73
45836 Off ch=2 n=b4 v=64
45837 On ch=2 n=b4 v=73
45932 Off ch=2 n=b4 v=64
45981 On ch=2 n=f#4 v=73
45981 On ch=2 n=f#3 v=73
46028 Off ch=2 n=f#4 v=64
46028 Off ch=2 n=f#3 v=64
46029 On ch=2 n=b4 v=73
46124 Off ch=2 n=b4 v=64
46125 On ch=2 n=a#4 v=73
46172 Off ch=2 n=a#4 v=64
46173 On ch=2 n=b4 v=73
46268 Off ch=2 n=b4 v=64
46269 On ch=2 n=b4 v=73
46269 On ch=2 n=d#5 v=73
46364 Off ch=2 n=b4 v=64
46364 Off ch=2 n=d#5 v=64
46365 On ch=2 n=d#4 v=73
46365 On ch=2 n=d#3 v=73
46412 Off ch=2 n=d#4 v=64
46412 Off ch=2 n=d#3 v=64
46413 On ch=2 n=f#4 v=73
46508 Off ch=2 n=f#4 v=64
46509 On ch=2 n=a#4 v=73
46556 Off ch=2 n=a#4 v=64
46557 On ch=2 n=b4 v=73
46604 Off ch=2 n=b4 v=64
46605 On ch=2 n=b4 v=73
46700 Off ch=2 n=b4 v=64
46749 On ch=2 n=f#4 v=73
46749 On ch=2 n=f#3 v=73
46796 Off ch=2 n=f#4 v=64
46796 Off ch=2 n=f#3 v=64
46797 On ch=2 n=b4 v=73
46892 Off ch=2 n=b4 v=64
46893 On ch=2 n=a#4 v=73
46940 Off ch=2 n=a#4 v=64
46941 On ch=2 n=b4 v=73
47036 Off ch=2 n=b4 v=64
47037 On ch=2 n=b4 v=73
47037 On ch=2 n=d#5 v=73
47132 Off ch=2 n=b4 v=64
47132 Off ch=2 n=d#5 v=64
47133 On ch=2 n=d#5 v=73
47133 On ch=2 n=d#4 v=73
47180 Off ch=2 n=d#5 v=64
47180 Off ch=2 n=d#4 v=64
47325 On ch=2 n=d#5 v=73
47325 On ch=2 n=d#4 v=73
47372 Off ch=2 n=d#5 v=64
47372 Off ch=2 n=d#4 v=64
47421 On ch=2 n=e5 v=73
47421 On ch=2 n=e4 v=73
47468 Off ch=2 n=e5 v=64
47468 Off ch=2 n=e4 v=64
47517 On ch=2 n=d#5 v=73
47517 On ch=2 n=d#4 v=73
47564 Off ch=2 n=d#5 v=64
47564 Off ch=2 n=d#4 v=64
47709 On ch=2 n=d#5 v=73
47709 On ch=2 n=d#4 v=73
47756 Off ch=2 n=d#5 v=64
47756 Off ch=2 n=d#4 v=64
47805 On ch=2 n=e5 v=73
47805 On ch=2 n=e4 v=73
47852 Off ch=2 n=e5 v=64
47852 Off ch=2 n=e4 v=64
47901 On ch=2 n=d#5 v=73
47901 On ch=2 n=d#4 v=73
47948 Off ch=2 n=d#5 v=64
47948 Off ch=2 n=d#4 v=64
47997 On ch=2 n=e5 v=73
47997 On ch=2 n=e4 v=73
48044 Off ch=2 n=e5 v=64
48044 Off ch=2 n=e4 v=64
48093 On ch=2 n=d#5 v=73
48093 On ch=2 n=d#4 v=73
48140 Off ch=2 n=d#5 v=64
48140 Off ch=2 n=d#4 v=64
48189 On ch=2 n=e5 v=73
48189 On ch=2 n=e4 v=73
48236 Off ch=2 n=e5 v=64
48236 Off ch=2 n=e4 v=64
48285 On ch=2 n=d#5 v=73
48285 On ch=2 n=d#4 v=73
48332 Off ch=2 n=d#5 v=64
48332 Off ch=2 n=d#4 v=64
48381 On ch=2 n=d5 v=73
48381 On ch=2 n=d4 v=73
48428 Off ch=2 n=d5 v=64
48428 Off ch=2 n=d4 v=64
48477 On ch=2 n=d#5 v=73
48477 On ch=2 n=d#4 v=73
48524 Off ch=2 n=d#5 v=64
48524 Off ch=2 n=d#4 v=64
48573 On ch=2 n=d5 v=73
48573 On ch=2 n=d4 v=73
48620 Off ch=2 n=d5 v=64
48620 Off ch=2 n=d4 v=64
48669 On ch=2 n=d#5 v=73
48669 On ch=2 n=d#4 v=73
48716 Off ch=2 n=d#5 v=64
48716 Off ch=2 n=d#4 v=64
48765 On ch=2 n=d5 v=73
48765 On ch=2 n=d4 v=73
48812 Off ch=2 n=d5 v=64
48812 Off ch=2 n=d4 v=64
48861 On ch=2 n=d#5 v=73
48861 On ch=2 n=d#4 v=73
48908 Off ch=2 n=d#5 v=64
48908 Off ch=2 n=d#4 v=64
48957 On ch=2 n=d#5 v=73
48957 On ch=2 n=d#4 v=73
49004 Off ch=2 n=d#5 v=64
49004 Off ch=2 n=d#4 v=64
49005 On ch=2 n=b4 v=73
49005 On ch=2 n=b3 v=73
49052 Off ch=2 n=b4 v=64
49052 Off ch=2 n=b3 v=64
49053 On ch=2 n=g#4 v=73
49053 On ch=2 n=g#3 v=73
49100 Off ch=2 n=g#4 v=64
49100 Off ch=2 n=g#3 v=64
49101 On ch=2 n=g#4 v=73
49101 On ch=2 n=b4 v=73
49101 On ch=2 n=e5 v=73
49148 Off ch=2 n=g#4 v=64
49148 Off ch=2 n=b4 v=64
49148 Off ch=2 n=e5 v=64
49149 On ch=2 n=f5 v=73
49149 On ch=2 n=b4 v=73
49149 On ch=2 n=g#4 v=73
49244 Off ch=2 n=f5 v=64
49244 Off ch=2 n=b4 v=64
49244 Off ch=2 n=g#4 v=64
49245 On ch=2 n=g#4 v=73
49245 On ch=2 n=g#3 v=73
49292 Off ch=2 n=g#4 v=64
49292 Off ch=2 n=g#3 v=64
49293 On ch=2 n=g#4 v=73
49293 On ch=2 n=b4 v=73
49293 On ch=2 n=e5 v=73
49340 Off ch=2 n=g#4 v=64
49340 Off ch=2 n=b4 v=64
49340 Off ch=2 n=e5 v=64
49341 On ch=2 n=a4 v=73
49341 On ch=2 n=a3 v=73
49388 Off ch=2 n=a4 v=64
49388 Off ch=2 n=a3 v=64
49389 On ch=2 n=a4 v=73
49389 On ch=2 n=c5 v=73
49389 On ch=2 n=f#5 v=73
49436 Off ch=2 n=a4 v=64
49436 Off ch=2 n=c5 v=64
49436 Off ch=2 n=f#5 v=64
49437 On ch=2 n=g#4 v=73
49437 On ch=2 n=g#3 v=73
49484 Off ch=2 n=g#4 v=64
49484 Off ch=2 n=g#3 v=64
49485 On ch=2 n=g#4 v=73
49485 On ch=2 n=b4 v=73
49485 On ch=2 n=e5 v=73
49532 Off ch=2 n=g#4 v=64
49532 Off ch=2 n=b4 v=64
49532 Off ch=2 n=e5 v=64
49533 On ch=2 n=f5 v=73
49533 On ch=2 n=b4 v=73
49533 On ch=2 n=g#4 v=73
49628 Off ch=2 n=f5 v=64
49628 Off ch=2 n=b4 v=64
49628 Off ch=2 n=g#4 v=64
49629 On ch=2 n=g#4 v=73
49629 On ch=2 n=g#3 v=73
49676 Off ch=2 n=g#4 v=64
49676 Off ch=2 n=g#3 v=64
49677 On ch=2 n=g#4 v=73
49677 On ch=2 n=b4 v=73
49677 On ch=2 n=e5 v=73
49724 Off ch=2 n=g#4 v=64
49724 Off ch=2 n=b4 v=64
49724 Off ch=2 n=e5 v=64
49725 On ch=2 n=a4 v=73
49725 On ch=2 n=a3 v=73
49772 Off ch=2 n=a4 v=64
49772 Off ch=2 n=a3 v=64
49773 On ch=2 n=a4 v=73
49773 On ch=2 n=c5 v=73
49773 On ch=2 n=f#5 v=73
49820 Off ch=2 n=a4 v=64
49820 Off ch=2 n=c5 v=64
49820 Off ch=2 n=f#5 v=64
49821 On ch=2 n=g#4 v=73
49821 On ch=2 n=g#3 v=73
49868 Off ch=2 n=g#4 v=64
49868 Off ch=2 n=g#3 v=64
49869 On ch=2 n=g#4 v=73
49869 On ch=2 n=b4 v=73
49869 On ch=2 n=e5 v=73
49916 Off ch=2 n=g#4 v=64
49916 Off ch=2 n=b4 v=64
49916 Off ch=2 n=e5 v=64
49917 On ch=2 n=a4 v=73
49917 On ch=2 n=a3 v=73
49964 Off ch=2 n=a4 v=64
49964 Off ch=2 n=a3 v=64
49965 On ch=2 n=a4 v=73
49965 On ch=2 n=c5 v=73
49965 On ch=2 n=f#5 v=73
50012 Off ch=2 n=a4 v=64
50012 Off ch=2 n=c5 v=64
50012 Off ch=2 n=f#5 v=64
50013 On ch=2 n=g#4 v=73
50013 On ch=2 n=g#3 v=73
50060 Off ch=2 n=g#4 v=64
50060 Off ch=2 n=g#3 v=64
50061 On ch=2 n=g#4 v=73
50061 On ch=2 n=b4 v=73
50061 On ch=2 n=e5 v=73
50108 Off ch=2 n=g#4 v=64
50108 Off ch=2 n=b4 v=64
50108 Off ch=2 n=e5 v=64
50109 On ch=2 n=a4 v=73
50109 On ch=2 n=a3 v=73
50156 Off ch=2 n=a4 v=64
50156 Off ch=2 n=a3 v=64
50157 On ch=2 n=a4 v=73
50157 On ch=2 n=c5 v=73
50157 On ch=2 n=f#5 v=73
50204 Off ch=2 n=a4 v=64
50204 Off ch=2 n=c5 v=64
50204 Off ch=2 n=f#5 v=64
50205 On ch=2 n=g#4 v=73
50205 On ch=2 n=g#3 v=73
50252 Off ch=2 n=g#4 v=64
50252 Off ch=2 n=g#3 v=64
50253 On ch=2 n=g#4 v=73
50253 On ch=2 n=b4 v=73
50253 On ch=2 n=e5 v=73
50300 Off ch=2 n=g#4 v=64
50300 Off ch=2 n=b4 v=64
50300 Off ch=2 n=e5 v=64
50301 On ch=2 n=g4 v=73
50301 On ch=2 n=g3 v=73
50348 Off ch=2 n=g4 v=64
50348 Off ch=2 n=g3 v=64
50349 On ch=2 n=g4 v=73
50349 On ch=2 n=b4 v=73
50349 On ch=2 n=e5 v=73
50396 Off ch=2 n=g4 v=64
50396 Off ch=2 n=b4 v=64
50396 Off ch=2 n=e5 v=64
50397 On ch=2 n=g#4 v=73
50397 On ch=2 n=g#3 v=73
50444 Off ch=2 n=g#4 v=64
50444 Off ch=2 n=g#3 v=64
50445 On ch=2 n=g#4 v=73
50445 On ch=2 n=b4 v=73
50445 On ch=2 n=e5 v=73
50492 Off ch=2 n=g#4 v=64
50492 Off ch=2 n=b4 v=64
50492 Off ch=2 n=e5 v=64
50493 On ch=2 n=g4 v=73
50493 On ch=2 n=g3 v=73
50540 Off ch=2 n=g4 v=64
50540 Off ch=2 n=g3 v=64
50541 On ch=2 n=g4 v=73
50541 On ch=2 n=b4 v=73
50541 On ch=2 n=e5 v=73
50588 Off ch=2 n=g4 v=64
50588 Off ch=2 n=b4 v=64
50588 Off ch=2 n=e5 v=64
50589 On ch=2 n=g#4 v=73
50589 On ch=2 n=g#3 v=73
50636 Off ch=2 n=g#4 v=64
50636 Off ch=2 n=g#3 v=64
50637 On ch=2 n=g#4 v=73
50637 On ch=2 n=b4 v=73
50637 On ch=2 n=e5 v=73
50684 Off ch=2 n=g#4 v=64
50684 Off ch=2 n=b4 v=64
50684 Off ch=2 n=e5 v=64
50685 On ch=2 n=g4 v=73
50685 On ch=2 n=g3 v=73
50732 Off ch=2 n=g4 v=64
50732 Off ch=2 n=g3 v=64
50733 On ch=2 n=g4 v=73
50733 On ch=2 n=b4 v=73
50733 On ch=2 n=e5 v=73
50780 Off ch=2 n=g4 v=64
50780 Off ch=2 n=b4 v=64
50780 Off ch=2 n=e5 v=64
50781 On ch=2 n=g#4 v=73
50781 On ch=2 n=g#3 v=73
50828 Off ch=2 n=g#4 v=64
50828 Off ch=2 n=g#3 v=64
50829 On ch=2 n=g#4 v=73
50829 On ch=2 n=b4 v=73
50829 On ch=2 n=e5 v=73
50876 Off ch=2 n=g#4 v=64
50876 Off ch=2 n=b4 v=64
50876 Off ch=2 n=e5 v=64
50877 On ch=2 n=g4 v=73
50877 On ch=2 n=g3 v=73
50924 Off ch=2 n=g4 v=64
50924 Off ch=2 n=g3 v=64
50925 On ch=2 n=g4 v=73
50925 On ch=2 n=b4 v=73
50925 On ch=2 n=e5 v=73
50972 Off ch=2 n=g4 v=64
50972 Off ch=2 n=b4 v=64
50972 Off ch=2 n=e5 v=64
50973 On ch=2 n=a4 v=73
50973 On ch=2 n=a3 v=73
51020 Off ch=2 n=a4 v=64
51020 Off ch=2 n=a3 v=64
51021 On ch=2 n=c#5 v=73
51021 On ch=2 n=e5 v=73
51068 Off ch=2 n=c#5 v=64
51068 Off ch=2 n=e5 v=64
51069 On ch=2 n=g#4 v=73
51069 On ch=2 n=g#3 v=73
51116 Off ch=2 n=g#4 v=64
51116 Off ch=2 n=g#3 v=64
51117 On ch=2 n=c#5 v=73
51117 On ch=2 n=e5 v=73
51164 Off ch=2 n=c#5 v=64
51164 Off ch=2 n=e5 v=64
51165 On ch=2 n=f#4 v=73
51165 On ch=2 n=f#3 v=73
51212 Off ch=2 n=f#4 v=64
51212 Off ch=2 n=f#3 v=64
51213 On ch=2 n=c#5 v=73
51213 On ch=2 n=e5 v=73
51260 Off ch=2 n=c#5 v=64
51260 Off ch=2 n=e5 v=64
51261 On ch=2 n=g#4 v=73
51261 On ch=2 n=g#3 v=73
51308 Off ch=2 n=g#4 v=64
51308 Off ch=2 n=g#3 v=64
51309 On ch=2 n=c#5 v=73
51309 On ch=2 n=e5 v=73
51356 Off ch=2 n=c#5 v=64
51356 Off ch=2 n=e5 v=64
51357 On ch=2 n=a4 v=73
51357 On ch=2 n=a3 v=73
51404 Off ch=2 n=a4 v=64
51404 Off ch=2 n=a3 v=64
51405 On ch=2 n=c#5 v=73
51405 On ch=2 n=e5 v=73
51452 Off ch=2 n=c#5 v=64
51452 Off ch=2 n=e5 v=64
51453 On ch=2 n=g#4 v=73
51453 On ch=2 n=g#3 v=73
51500 Off ch=2 n=g#4 v=64
51500 Off ch=2 n=g#3 v=64
51501 On ch=2 n=c#5 v=73
51501 On ch=2 n=e5 v=73
51548 Off ch=2 n=c#5 v=64
51548 Off ch=2 n=e5 v=64
51549 On ch=2 n=f#4 v=73
51549 On ch=2 n=f#3 v=73
51596 Off ch=2 n=f#4 v=64
51596 Off ch=2 n=f#3 v=64
51597 On ch=2 n=c#5 v=73
51597 On ch=2 n=e5 v=73
51644 Off ch=2 n=c#5 v=64
51644 Off ch=2 n=e5 v=64
51645 On ch=2 n=g#4 v=73
51645 On ch=2 n=g#3 v=73
51692 Off ch=2 n=g#4 v=64
51692 Off ch=2 n=g#3 v=64
51693 On ch=2 n=c#5 v=73
51693 On ch=2 n=e5 v=73
51740 Off ch=2 n=c#5 v=64
51740 Off ch=2 n=e5 v=64
51741 On ch=2 n=a4 v=73
51741 On ch=2 n=a3 v=73
51788 Off ch=2 n=a4 v=64
51788 Off ch=2 n=a3 v=64
51789 On ch=2 n=c#5 v=73
51789 On ch=2 n=e5 v=73
51836 Off ch=2 n=c#5 v=64
51836 Off ch=2 n=e5 v=64
51837 On ch=2 n=a#4 v=73
51837 On ch=2 n=a#3 v=73
51884 Off ch=2 n=a#4 v=64
51884 Off ch=2 n=a#3 v=64
51885 On ch=2 n=c#5 v=73
51885 On ch=2 n=e5 v=73
51932 Off ch=2 n=c#5 v=64
51932 Off ch=2 n=e5 v=64
51933 On ch=2 n=a#4 v=73
51933 On ch=2 n=a#3 v=73
51980 Off ch=2 n=a#4 v=64
51980 Off ch=2 n=a#3 v=64
51981 On ch=2 n=c#5 v=73
51981 On ch=2 n=e5 v=73
52028 Off ch=2 n=c#5 v=64
52028 Off ch=2 n=e5 v=64
52029 On ch=2 n=c#5 v=73
52029 On ch=2 n=c#4 v=73
52076 Off ch=2 n=c#5 v=64
52076 Off ch=2 n=c#4 v=64
52077 On ch=2 n=b4 v=73
52077 On ch=2 n=b3 v=73
52124 Off ch=2 n=b4 v=64
52124 Off ch=2 n=b3 v=64
52125 On ch=2 n=a4 v=73
52125 On ch=2 n=a3 v=73
52172 Off ch=2 n=a4 v=64
52172 Off ch=2 n=a3 v=64
52173 On ch=2 n=c#5 v=73
52173 On ch=2 n=e5 v=73
52220 Off ch=2 n=c#5 v=64
52220 Off ch=2 n=e5 v=64
52221 On ch=2 n=a#4 v=73
52221 On ch=2 n=a#3 v=73
52268 Off ch=2 n=a#4 v=64
52268 Off ch=2 n=a#3 v=64
52269 On ch=2 n=c#5 v=73
52269 On ch=2 n=e5 v=73
52316 Off ch=2 n=c#5 v=64
52316 Off ch=2 n=e5 v=64
52317 On ch=2 n=a#4 v=73
52317 On ch=2 n=a#3 v=73
52364 Off ch=2 n=a#4 v=64
52364 Off ch=2 n=a#3 v=64
52365 On ch=2 n=c#5 v=73
52365 On ch=2 n=e5 v=73
52412 Off ch=2 n=c#5 v=64
52412 Off ch=2 n=e5 v=64
52413 On ch=2 n=c#5 v=73
52413 On ch=2 n=c#4 v=73
52460 Off ch=2 n=c#5 v=64
52460 Off ch=2 n=c#4 v=64
52461 On ch=2 n=b4 v=73
52461 On ch=2 n=b3 v=73
52508 Off ch=2 n=b4 v=64
52508 Off ch=2 n=b3 v=64
52509 On ch=2 n=a3 v=73
52509 On ch=2 n=a4 v=73
52532 Off ch=2 n=a3 v=64
52532 Off ch=2 n=a4 v=64
52557 On ch=2 n=c#5 v=73
52557 On ch=2 n=c#4 v=73
52580 Off ch=2 n=c#5 v=64
52580 Off ch=2 n=c#4 v=64
52605 On ch=2 n=e5 v=73
52605 On ch=2 n=e4 v=73
52628 Off ch=2 n=e5 v=64
52628 Off ch=2 n=e4 v=64
52653 On ch=2 n=c#5 v=73
52653 On ch=2 n=c#4 v=73
52676 Off ch=2 n=c#5 v=64
52676 Off ch=2 n=c#4 v=64
52701 On ch=2 n=a3 v=73
52701 On ch=2 n=a4 v=73
52724 Off ch=2 n=a3 v=64
52724 Off ch=2 n=a4 v=64
52749 On ch=2 n=g#4 v=73
52749 On ch=2 n=g#3 v=73
52772 Off ch=2 n=g#4 v=64
52772 Off ch=2 n=g#3 v=64
52797 On ch=2 n=f#4 v=73
52797 On ch=2 n=f#3 v=73
52820 Off ch=2 n=f#4 v=64
52820 Off ch=2 n=f#3 v=64
52845 On ch=2 n=e3 v=73
52845 On ch=2 n=e4 v=73
52868 Off ch=2 n=e3 v=64
52868 Off ch=2 n=e4 v=64
52893 On ch=2 n=d4 v=73
52893 On ch=2 n=d3 v=73
52940 Off ch=2 n=d4 v=64
52940 Off ch=2 n=d3 v=64
52989 On ch=2 n=d5 v=73
52989 On ch=2 n=f#5 v=73
52989 On ch=2 n=a4 v=73
53036 Off ch=2 n=d5 v=64
53036 Off ch=2 n=f#5 v=64
53036 Off ch=2 n=a4 v=64
53037 On ch=2 n=a4 v=73
53037 On ch=2 n=d5 v=73
53037 On ch=2 n=f#5 v=73
53084 Off ch=2 n=a4 v=64
53084 Off ch=2 n=d5 v=64
53084 Off ch=2 n=f#5 v=64
53085 On ch=2 n=a4 v=73
53085 On ch=2 n=d5 v=73
53085 On ch=2 n=f#5 v=73
53132 Off ch=2 n=a4 v=64
53132 Off ch=2 n=d5 v=64
53132 Off ch=2 n=f#5 v=64
53181 On ch=2 n=d4 v=73
53181 On ch=2 n=d3 v=73
53204 Off ch=2 n=d4 v=64
53204 Off ch=2 n=d3 v=64
53229 On ch=2 n=f#4 v=73
53229 On ch=2 n=f#3 v=73
53252 Off ch=2 n=f#4 v=64
53252 Off ch=2 n=f#3 v=64
53277 On ch=2 n=a3 v=73
53277 On ch=2 n=a4 v=73
53300 Off ch=2 n=a3 v=64
53300 Off ch=2 n=a4 v=64
53325 On ch=2 n=c#5 v=73
53325 On ch=2 n=c#4 v=73
53348 Off ch=2 n=c#5 v=64
53348 Off ch=2 n=c#4 v=64
53373 On ch=2 n=e5 v=73
53373 On ch=2 n=e4 v=73
53396 Off ch=2 n=e5 v=64
53396 Off ch=2 n=e4 v=64
53421 On ch=2 n=c#5 v=73
53421 On ch=2 n=c#4 v=73
53444 Off ch=2 n=c#5 v=64
53444 Off ch=2 n=c#4 v=64
53469 On ch=2 n=a3 v=73
53469 On ch=2 n=a4 v=73
53492 Off ch=2 n=a3 v=64
53492 Off ch=2 n=a4 v=64
53517 On ch=2 n=g#4 v=73
53517 On ch=2 n=g#3 v=73
53540 Off ch=2 n=g#4 v=64
53540 Off ch=2 n=g#3 v=64
53565 On ch=2 n=f#4 v=73
53565 On ch=2 n=f#3 v=73
53588 Off ch=2 n=f#4 v=64
53588 Off ch=2 n=f#3 v=64
53613 On ch=2 n=e3 v=73
53613 On ch=2 n=e4 v=73
53636 Off ch=2 n=e3 v=64
53636 Off ch=2 n=e4 v=64
53661 On ch=2 n=d4 v=73
53661 On ch=2 n=d3 v=73
53708 Off ch=2 n=d4 v=64
53708 Off ch=2 n=d3 v=64
53757 On ch=2 n=d5 v=73
53757 On ch=2 n=f#5 v=73
53757 On ch=2 n=a4 v=73
53804 Off ch=2 n=d5 v=64
53804 Off ch=2 n=f#5 v=64
53804 Off ch=2 n=a4 v=64
53805 On ch=2 n=a4 v=73
53805 On ch=2 n=d5 v=73
53805 On ch=2 n=f#5 v=73
53852 Off ch=2 n=a4 v=64
53852 Off ch=2 n=d5 v=64
53852 Off ch=2 n=f#5 v=64
53853 On ch=2 n=a4 v=73
53853 On ch=2 n=d5 v=73
53853 On ch=2 n=f#5 v=73
53900 Off ch=2 n=a4 v=64
53900 Off ch=2 n=d5 v=64
53900 Off ch=2 n=f#5 v=64
53949 On ch=2 n=a4 v=73
53949 On ch=2 n=a3 v=73
53972 Off ch=2 n=a4 v=64
53972 Off ch=2 n=a3 v=64
53997 On ch=2 n=f#3 v=73
53997 On ch=2 n=f#4 v=73
54020 Off ch=2 n=f#3 v=64
54020 Off ch=2 n=f#4 v=64
54045 On ch=2 n=d#4 v=73
54045 On ch=2 n=d#3 v=73
54068 Off ch=2 n=d#4 v=64
54068 Off ch=2 n=d#3 v=64
54093 On ch=2 n=f#3 v=73
54093 On ch=2 n=f#4 v=73
54116 Off ch=2 n=f#3 v=64
54116 Off ch=2 n=f#4 v=64
54141 On ch=2 n=b3 v=73
54141 On ch=2 n=b4 v=73
54164 Off ch=2 n=b3 v=64
54164 Off ch=2 n=b4 v=64
54189 On ch=2 n=c#5 v=73
54189 On ch=2 n=c#4 v=73
54212 Off ch=2 n=c#5 v=64
54212 Off ch=2 n=c#4 v=64
54237 On ch=2 n=d#4 v=73
54237 On ch=2 n=d#5 v=73
54260 Off ch=2 n=d#4 v=64
54260 Off ch=2 n=d#5 v=64
54285 On ch=2 n=f#5 v=73
54285 On ch=2 n=f#4 v=73
54308 Off ch=2 n=f#5 v=64
54308 Off ch=2 n=f#4 v=64
54333 On ch=2 n=d#5 v=73
54333 On ch=2 n=d#4 v=73
54356 Off ch=2 n=d#5 v=64
54356 Off ch=2 n=d#4 v=64
54381 On ch=2 n=c#5 v=73
54381 On ch=2 n=c#4 v=73
54404 Off ch=2 n=c#5 v=64
54404 Off ch=2 n=c#4 v=64
54429 On ch=2 n=d#4 v=73
54429 On ch=2 n=d#5 v=73
54452 Off ch=2 n=d#4 v=64
54452 Off ch=2 n=d#5 v=64
54477 On ch=2 n=f#5 v=73
54477 On ch=2 n=f#4 v=73
54500 Off ch=2 n=f#5 v=64
54500 Off ch=2 n=f#4 v=64
54525 On ch=2 n=b4 v=73
54525 On ch=2 n=b3 v=73
54548 Off ch=2 n=b4 v=64
54548 Off ch=2 n=b3 v=64
54573 On ch=2 n=c#4 v=73
54573 On ch=2 n=c#5 v=73
54596 Off ch=2 n=c#4 v=64
54596 Off ch=2 n=c#5 v=64
54621 On ch=2 n=d#4 v=73
54621 On ch=2 n=d#5 v=73
54644 Off ch=2 n=d#4 v=64
54644 Off ch=2 n=d#5 v=64
54669 On ch=2 n=c#5 v=73
54669 On ch=2 n=c#4 v=73
54692 Off ch=2 n=c#5 v=64
54692 Off ch=2 n=c#4 v=64
54717 On ch=2 n=b4 v=73
54717 On ch=2 n=b3 v=73
54740 Off ch=2 n=b4 v=64
54740 Off ch=2 n=b3 v=64
54765 On ch=2 n=f#3 v=73
54765 On ch=2 n=f#4 v=73
54788 Off ch=2 n=f#3 v=64
54788 Off ch=2 n=f#4 v=64
54813 On ch=2 n=d#4 v=73
54813 On ch=2 n=d#3 v=73
54836 Off ch=2 n=d#4 v=64
54836 Off ch=2 n=d#3 v=64
54861 On ch=2 n=f#3 v=73
54861 On ch=2 n=f#4 v=73
54884 Off ch=2 n=f#3 v=64
54884 Off ch=2 n=f#4 v=64
54909 On ch=2 n=b3 v=73
54909 On ch=2 n=b4 v=73
54932 Off ch=2 n=b3 v=64
54932 Off ch=2 n=b4 v=64
54957 On ch=2 n=c#5 v=73
54957 On ch=2 n=c#4 v=73
54980 Off ch=2 n=c#5 v=64
54980 Off ch=2 n=c#4 v=64
55005 On ch=2 n=d#4 v=73
55005 On ch=2 n=d#5 v=73
55028 Off ch=2 n=d#4 v=64
55028 Off ch=2 n=d#5 v=64
55053 On ch=2 n=f#5 v=73
55053 On ch=2 n=f#4 v=73
55076 Off ch=2 n=f#5 v=64
55076 Off ch=2 n=f#4 v=64
55101 On ch=2 n=d#5 v=73
55101 On ch=2 n=d#4 v=73
55124 Off ch=2 n=d#5 v=64
55124 Off ch=2 n=d#4 v=64
55149 On ch=2 n=c#5 v=73
55149 On ch=2 n=c#4 v=73
55172 Off ch=2 n=c#5 v=64
55172 Off ch=2 n=c#4 v=64
55197 On ch=2 n=d#4 v=73
55197 On ch=2 n=d#5 v=73
55220 Off ch=2 n=d#4 v=64
55220 Off ch=2 n=d#5 v=64
55245 On ch=2 n=f#5 v=73
55245 On ch=2 n=f#4 v=73
55268 Off ch=2 n=f#5 v=64
55268 Off ch=2 n=f#4 v=64
55293 On ch=2 n=b4 v=73
55293 On ch=2 n=b3 v=73
55316 Off ch=2 n=b4 v=64
55316 Off ch=2 n=b3 v=64
55341 On ch=2 n=c#4 v=73
55341 On ch=2 n=c#5 v=73
55364 Off ch=2 n=c#4 v=64
55364 Off ch=2 n=c#5 v=64
55389 On ch=2 n=d#4 v=73
55389 On ch=2 n=d#5 v=73
55412 Off ch=2 n=d#4 v=64
55412 Off ch=2 n=d#5 v=64
55437 On ch=2 n=c#5 v=73
55437 On ch=2 n=c#4 v=73
55460 Off ch=2 n=c#5 v=64
55460 Off ch=2 n=c#4 v=64
55485 On ch=2 n=b4 v=73
55485 On ch=2 n=b3 v=73
55508 Off ch=2 n=b4 v=64
55508 Off ch=2 n=b3 v=64
55533 On ch=2 n=f#3 v=73
55533 On ch=2 n=f#4 v=73
55556 Off ch=2 n=f#3 v=64
55556 Off ch=2 n=f#4 v=64
55581 On ch=2 n=f3 v=73
55581 On ch=2 n=f4 v=73
55604 Off ch=2 n=f3 v=64
55604 Off ch=2 n=f4 v=64
55629 On ch=2 n=g#4 v=73
55629 On ch=2 n=g#3 v=73
55652 Off ch=2 n=g#4 v=64
55652 Off ch=2 n=g#3 v=64
55677 On ch=2 n=c#5 v=73
55677 On ch=2 n=c#4 v=73
55700 Off ch=2 n=c#5 v=64
55700 Off ch=2 n=c#4 v=64
55725 On ch=2 n=d#5 v=73
55725 On ch=2 n=d#4 v=73
55748 Off ch=2 n=d#5 v=64
55748 Off ch=2 n=d#4 v=64
55773 On ch=2 n=f4 v=73
55773 On ch=2 n=f5 v=73
55796 Off ch=2 n=f4 v=64
55796 Off ch=2 n=f5 v=64
55821 On ch=2 n=g#4 v=73
55844 Off ch=2 n=g#4 v=64
55869 On ch=2 n=f4 v=73
55869 On ch=2 n=f5 v=73
55892 Off ch=2 n=f4 v=64
55892 Off ch=2 n=f5 v=64
55917 On ch=2 n=d#4 v=73
55917 On ch=2 n=d#5 v=73
55940 Off ch=2 n=d#4 v=64
55940 Off ch=2 n=d#5 v=64
55965 On ch=2 n=f5 v=73
55965 On ch=2 n=f4 v=73
55988 Off ch=2 n=f5 v=64
55988 Off ch=2 n=f4 v=64
56013 On ch=2 n=g#4 v=73
56036 Off ch=2 n=g#4 v=64
56061 On ch=2 n=c#4 v=73
56061 On ch=2 n=c#5 v=73
56084 Off ch=2 n=c#4 v=64
56084 Off ch=2 n=c#5 v=64
56109 On ch=2 n=d#4 v=73
56109 On ch=2 n=d#5 v=73
56132 Off ch=2 n=d#4 v=64
56132 Off ch=2 n=d#5 v=64
56157 On ch=2 n=f4 v=73
56157 On ch=2 n=f5 v=73
56180 Off ch=2 n=f4 v=64
56180 Off ch=2 n=f5 v=64
56205 On ch=2 n=d#5 v=73
56205 On ch=2 n=d#4 v=73
56228 Off ch=2 n=d#5 v=64
56228 Off ch=2 n=d#4 v=64
56253 On ch=2 n=c#5 v=73
56253 On ch=2 n=c#4 v=73
56276 Off ch=2 n=c#5 v=64
56276 Off ch=2 n=c#4 v=64
56301 On ch=2 n=g#3 v=73
56301 On ch=2 n=g#4 v=73
56324 Off ch=2 n=g#3 v=64
56324 Off ch=2 n=g#4 v=64
56349 Tempo 400000
56349 On ch=2 n=f3 v=73
56349 On ch=2 n=f4 v=73
56368 Tempo 397350
56372 Off ch=2 n=f3 v=64
56372 Off ch=2 n=f4 v=64
56387 Tempo 394736
56397 On ch=2 n=g#4 v=73
56397 On ch=2 n=g#3 v=73
56406 Tempo 392156
56420 Off ch=2 n=g#4 v=64
56420 Off ch=2 n=g#3 v=64
56425 Tempo 389610
56444 Tempo 387096
56445 On ch=2 n=c#5 v=73
56445 On ch=2 n=c#4 v=73
56463 Tempo 384615
56468 Off ch=2 n=c#5 v=64
56468 Off ch=2 n=c#4 v=64
56482 Tempo 382165
56493 On ch=2 n=d#5 v=73
56493 On ch=2 n=d#4 v=73
56501 Tempo 379746
56516 Off ch=2 n=d#5 v=64
56516 Off ch=2 n=d#4 v=64
56520 Tempo 377358
56539 Tempo 375000
56541 On ch=2 n=f4 v=73
56541 On ch=2 n=f5 v=73
56558 Tempo 372670
56564 Off ch=2 n=f4 v=64
56564 Off ch=2 n=f5 v=64
56574 Tempo 370370
56586 On ch=2 n=g#4 v=73
56593 Tempo 368098
56609 Off ch=2 n=g#4 v=64
56612 Tempo 365853
56631 Tempo 363636
56634 On ch=2 n=f4 v=73
56634 On ch=2 n=f5 v=73
56650 Tempo 361445
56657 Off ch=2 n=f4 v=64
56657 Off ch=2 n=f5 v=64
56669 Tempo 359281
56679 On ch=2 n=d#4 v=73
56679 On ch=2 n=d#5 v=73
56685 Tempo 357142
56702 Off ch=2 n=d#4 v=64
56702 Off ch=2 n=d#5 v=64
56704 Tempo 355029
56723 Tempo 352941
56727 On ch=2 n=f5 v=73
56727 On ch=2 n=f4 v=73
56742 Tempo 350877
56750 Off ch=2 n=f5 v=64
56750 Off ch=2 n=f4 v=64
56761 Tempo 348837
56775 On ch=2 n=g#4 v=73
56780 Tempo 346820
56798 Off ch=2 n=g#4 v=64
56799 Tempo 344827
56818 Tempo 342857
56823 On ch=2 n=c#4 v=73
56823 On ch=2 n=c#5 v=73
56837 Tempo 340909
56846 Off ch=2 n=c#4 v=64
56846 Off ch=2 n=c#5 v=64
56856 Tempo 338983
56871 On ch=2 n=d#4 v=73
56871 On ch=2 n=d#5 v=73
56875 Tempo 337078
56894 Tempo 335195
56894 Off ch=2 n=d#4 v=64
56894 Off ch=2 n=d#5 v=64
56913 Tempo 333333
56919 On ch=2 n=f4 v=73
56919 On ch=2 n=f5 v=73
56929 Tempo 331491
56939 Off ch=2 n=f4 v=64
56939 Off ch=2 n=f5 v=64
56948 Tempo 329670
56964 On ch=2 n=d#5 v=73
56964 On ch=2 n=d#4 v=73
56967 Tempo 327868
56986 Tempo 326086
56987 Off ch=2 n=d#5 v=64
56987 Off ch=2 n=d#4 v=64
57005 Tempo 324324
57012 On ch=2 n=c#5 v=73
57012 On ch=2 n=c#4 v=73
57024 Tempo 322580
57035 Off ch=2 n=c#5 v=64
57035 Off ch=2 n=c#4 v=64
57043 Tempo 320855
57060 On ch=2 n=g#3 v=73
57060 On ch=2 n=g#4 v=73
57062 Tempo 319148
57081 Tempo 317460
57083 Off ch=2 n=g#3 v=64
57083 Off ch=2 n=g#4 v=64
57100 Tempo 315789
57108 On ch=2 n=f3 v=73
57108 On ch=2 n=f4 v=73
57155 Off ch=2 n=f3 v=64
57155 Off ch=2 n=f4 v=64
57156 On ch=2 n=g#4 v=73
57251 Off ch=2 n=g#4 v=64
57252 On ch=2 n=f4 v=73
57252 On ch=2 n=f5 v=73
57299 Off ch=2 n=f4 v=64
57299 Off ch=2 n=f5 v=64
57300 On ch=2 n=g#4 v=73
57347 Off ch=2 n=g#4 v=64
57348 On ch=2 n=g#4 v=73
57443 Off ch=2 n=g#4 v=64
57444 On ch=2 n=c#4 v=73
57491 Off ch=2 n=c#4 v=64
57492 On ch=2 n=g#4 v=73
57539 Off ch=2 n=g#4 v=64
57540 On ch=2 n=g#4 v=73
57635 Off ch=2 n=g#4 v=64
57636 On ch=2 n=f4 v=73
57636 On ch=2 n=f5 v=73
57683 Off ch=2 n=f4 v=64
57683 Off ch=2 n=f5 v=64
57684 On ch=2 n=g#4 v=73
57731 Off ch=2 n=g#4 v=64
57732 On ch=2 n=a4 v=73
57779 Off ch=2 n=a4 v=64
57780 On ch=2 n=b4 v=73
57827 Off ch=2 n=b4 v=64
57828 On ch=2 n=c#5 v=73
57875 Off ch=2 n=c#5 v=64
57876 On ch=2 n=a4 v=73
57876 On ch=2 n=a3 v=73
57899 Off ch=2 n=a4 v=64
57899 Off ch=2 n=a3 v=64
57924 On ch=2 n=a4 v=73
57924 On ch=2 n=c#5 v=73
58019 Off ch=2 n=a4 v=64
58019 Off ch=2 n=c#5 v=64
58020 On ch=2 n=g#4 v=73
58067 Off ch=2 n=g#4 v=64
58068 On ch=2 n=f#4 v=73
58115 Off ch=2 n=f#4 v=64
58116 On ch=2 n=c#5 v=73
58116 On ch=2 n=a4 v=73
58116 On ch=2 n=f#4 v=73
58211 Off ch=2 n=c#5 v=64
58211 Off ch=2 n=a4 v=64
58211 Off ch=2 n=f#4 v=64
58212 On ch=2 n=e4 v=73
58259 Off ch=2 n=e4 v=64
58260 On ch=2 n=d#4 v=73
58307 Off ch=2 n=d#4 v=64
58308 On ch=2 n=d#4 v=73
58308 On ch=2 n=f#4 v=73
58308 On ch=2 n=a4 v=73
58403 Off ch=2 n=d#4 v=64
58403 Off ch=2 n=f#4 v=64
58403 Off ch=2 n=a4 v=64
58404 On ch=2 n=f#4 v=73
58451 Off ch=2 n=f#4 v=64
58452 On ch=2 n=d#4 v=73
58475 Off ch=2 n=d#4 v=64
58500 On ch=2 n=f#4 v=73
58523 Off ch=2 n=f#4 v=64
58548 On ch=2 n=e4 v=73
58571 Off ch=2 n=e4 v=64
58596 On ch=2 n=c#4 v=73
58619 Off ch=2 n=c#4 v=64
58644 On ch=2 n=a4 v=73
58644 On ch=2 n=a3 v=73
58667 Off ch=2 n=a4 v=64
58667 Off ch=2 n=a3 v=64
58692 On ch=2 n=a4 v=73
58692 On ch=2 n=e4 v=73
58692 On ch=2 n=c#4 v=73
58692 On ch=2 n=a3 v=73
58787 Off ch=2 n=a4 v=64
58787 Off ch=2 n=e4 v=64
58787 Off ch=2 n=c#4 v=64
58787 Off ch=2 n=a3 v=64
58788 On ch=2 n=g#4 v=73
58788 On ch=2 n=g#3 v=73
58835 Off ch=2 n=g#4 v=64
58835 Off ch=2 n=g#3 v=64
58836 On ch=2 n=f#4 v=73
58836 On ch=2 n=f#3 v=73
58883 Off ch=2 n=f#4 v=64
58883 Off ch=2 n=f#3 v=64
58884 On ch=2 n=f#4 v=73
58884 On ch=2 n=c#4 v=73
58884 On ch=2 n=a3 v=73
58884 On ch=2 n=f#3 v=73
58979 Off ch=2 n=f#4 v=64
58979 Off ch=2 n=c#4 v=64
58979 Off ch=2 n=a3 v=64
58979 Off ch=2 n=f#3 v=64
58980 On ch=2 n=e4 v=73
58980 On ch=2 n=e3 v=73
59027 Off ch=2 n=e4 v=64
59027 Off ch=2 n=e3 v=64
59028 On ch=2 n=d#4 v=73
59028 On ch=2 n=d#3 v=73
59075 Off ch=2 n=d#4 v=64
59075 Off ch=2 n=d#3 v=64
59076 On ch=2 n=d#4 v=73
59076 On ch=2 n=a3 v=73
59076 On ch=2 n=f#3 v=73
59076 On ch=2 n=d#3 v=73
59171 Off ch=2 n=d#4 v=64
59171 Off ch=2 n=a3 v=64
59171 Off ch=2 n=f#3 v=64
59171 Off ch=2 n=d#3 v=64
59172 On ch=2 n=f#4 v=73
59172 On ch=2 n=f#3 v=73
59219 Off ch=2 n=f#4 v=64
59219 Off ch=2 n=f#3 v=64
59220 On ch=2 n=d#4 v=73
59220 On ch=2 n=d#3 v=73
59243 Off ch=2 n=d#4 v=64
59243 Off ch=2 n=d#3 v=64
59268 On ch=2 n=f#4 v=73
59268 On ch=2 n=f#3 v=73
59291 Off ch=2 n=f#4 v=64
59291 Off ch=2 n=f#3 v=64
59316 On ch=2 n=e4 v=73
59316 On ch=2 n=e3 v=73
59339 Off ch=2 n=e4 v=64
59339 Off ch=2 n=e3 v=64
59364 On ch=2 n=c#4 v=73
59364 On ch=2 n=c#3 v=73
59387 Off ch=2 n=c#4 v=64
59387 Off ch=2 n=c#3 v=64
59412 On ch=2 n=a3 v=73
59435 Off ch=2 n=a3 v=64
59460 On ch=2 n=c#4 v=73
59460 On ch=2 n=c#3 v=73
59483 Off ch=2 n=c#4 v=64
59483 Off ch=2 n=c#3 v=64
59508 On ch=2 n=e4 v=73
59508 On ch=2 n=e3 v=73
59531 Off ch=2 n=e4 v=64
59531 Off ch=2 n=e3 v=64
59556 On ch=2 n=f#4 v=73
59556 On ch=2 n=f#3 v=73
59579 Off ch=2 n=f#4 v=64
59579 Off ch=2 n=f#3 v=64
59604 On ch=2 n=d#4 v=73
59604 On ch=2 n=d#3 v=73
59627 Off ch=2 n=d#4 v=64
59627 Off ch=2 n=d#3 v=64
59652 On ch=2 n=f#4 v=73
59652 On ch=2 n=f#3 v=73
59675 Off ch=2 n=f#4 v=64
59675 Off ch=2 n=f#3 v=64
59700 On ch=2 n=e4 v=73
59700 On ch=2 n=e3 v=73
59723 Off ch=2 n=e4 v=64
59723 Off ch=2 n=e3 v=64
59748 On ch=2 n=c#4 v=73
59748 On ch=2 n=c#3 v=73
59771 Off ch=2 n=c#4 v=64
59771 Off ch=2 n=c#3 v=64
59796 On ch=2 n=a3 v=73
59819 Off ch=2 n=a3 v=64
59844 On ch=2 n=c#4 v=73
59844 On ch=2 n=c#3 v=73
59867 Off ch=2 n=c#4 v=64
59867 Off ch=2 n=c#3 v=64
59892 On ch=2 n=e4 v=73
59892 On ch=2 n=e3 v=73
59915 Off ch=2 n=e4 v=64
59915 Off ch=2 n=e3 v=64
59940 On ch=2 n=f#4 v=73
59940 On ch=2 n=f#3 v=73
59963 Off ch=2 n=f#4 v=64
59963 Off ch=2 n=f#3 v=64
59988 On ch=2 n=d#4 v=73
59988 On ch=2 n=d#3 v=73
60011 Off ch=2 n=d#4 v=64
60011 Off ch=2 n=d#3 v=64
60036 On ch=2 n=f#4 v=73
60036 On ch=2 n=f#3 v=73
60059 Off ch=2 n=f#4 v=64
60059 Off ch=2 n=f#3 v=64
60084 On ch=2 n=e4 v=73
60084 On ch=2 n=e3 v=73
60107 Off ch=2 n=e4 v=64
60107 Off ch=2 n=e3 v=64
60132 On ch=2 n=c#4 v=73
60132 On ch=2 n=c#3 v=73
60155 Off ch=2 n=c#4 v=64
60155 Off ch=2 n=c#3 v=64
60180 Tempo 315789
60180 On ch=2 n=a3 v=73
60206 Tempo 314136
60227 Off ch=2 n=a3 v=64
60232 Tempo 312500
60258 Tempo 310880
60276 On ch=2 n=c#4 v=73
60276 On ch=2 n=c#3 v=73
60284 Tempo 309278
60310 Tempo 307692
60320 Off ch=2 n=c#4 v=64
60320 Off ch=2 n=c#3 v=64
60321 On ch=2 n=e4 v=73
60321 On ch=2 n=e3 v=73
60333 Tempo 306122
60359 Tempo 304568
60368 Off ch=2 n=e4 v=64
60368 Off ch=2 n=e3 v=64
60369 On ch=2 n=a3 v=73
60385 Tempo 303030
60411 Tempo 301507
60416 Off ch=2 n=a3 v=64
60437 Tempo 300000
60463 Tempo 298507
60465 On ch=2 n=c#4 v=73
60465 On ch=2 n=c#3 v=73
60489 Tempo 297029
60512 Off ch=2 n=c#4 v=64
60512 Off ch=2 n=c#3 v=64
60513 On ch=2 n=e4 v=73
60513 On ch=2 n=e3 v=73
60515 Tempo 295566
60541 Tempo 294117
60560 Off ch=2 n=e4 v=64
60560 Off ch=2 n=e3 v=64
60561 On ch=2 n=a3 v=73
60567 Tempo 292682
60593 Tempo 291262
60608 Off ch=2 n=a3 v=64
60619 Tempo 289855
60645 Tempo 288461
60657 On ch=2 n=c#4 v=73
60657 On ch=2 n=c#3 v=73
60671 Tempo 287081
60697 Tempo 285714
60704 Off ch=2 n=c#4 v=64
60704 Off ch=2 n=c#3 v=64
60705 On ch=2 n=e4 v=73
60705 On ch=2 n=e3 v=73
60723 Tempo 284360
60749 Tempo 283018
60752 Off ch=2 n=e4 v=64
60752 Off ch=2 n=e3 v=64
60753 On ch=2 n=a4 v=73
60753 On ch=2 n=a3 v=73
60775 Tempo 281690
60800 Off ch=2 n=a4 v=64
60800 Off ch=2 n=a3 v=64
60801 Tempo 280373
60827 Tempo 279069
60849 On ch=2 n=e3 v=73
60849 On ch=2 n=e4 v=73
60853 Tempo 277777
60879 Tempo 276497
60896 Off ch=2 n=e3 v=64
60896 Off ch=2 n=e4 v=64
60905 Tempo 275229
60931 Tempo 273972
60945 On ch=2 n=a3 v=73
60945 On ch=2 n=a4 v=73
60957 Tempo 272727
60983 Tempo 271493
60992 Off ch=2 n=a3 v=64
60992 Off ch=2 n=a4 v=64
61009 Tempo 270270
61035 Tempo 269058
61041 On ch=2 n=c#4 v=73
61041 On ch=2 n=c#5 v=73
61061 Tempo 267857
61087 Tempo 266666
61088 Off ch=2 n=c#4 v=64
61088 Off ch=2 n=c#5 v=64
61089 On ch=2 n=e5 v=73
61089 On ch=2 n=e4 v=73
61113 Tempo 264718
61136 Off ch=2 n=e5 v=64
61136 Off ch=2 n=e4 v=64
61137 On ch=2 n=a3 v=73
61137 On ch=2 n=a4 v=73
61139 Tempo 264317
61165 Tempo 263157
61184 Off ch=2 n=a3 v=64
61184 Off ch=2 n=a4 v=64
61191 Tempo 262008
61217 Tempo 260869
61233 On ch=2 n=c#4 v=73
61233 On ch=2 n=c#5 v=73
61243 Tempo 259740
61269 Tempo 258620
61280 Off ch=2 n=c#4 v=64
61280 Off ch=2 n=c#5 v=64
61281 On ch=2 n=e5 v=73
61281 On ch=2 n=e4 v=73
61295 Tempo 257510
61321 Tempo 256410
61328 Off ch=2 n=e5 v=64
61328 Off ch=2 n=e4 v=64
61329 On ch=2 n=a3 v=73
61329 On ch=2 n=a4 v=73
61347 Tempo 255319
61373 Tempo 254237
61376 Off ch=2 n=a3 v=64
61376 Off ch=2 n=a4 v=64
61399 Tempo 253164
61425 Tempo 252100
61425 On ch=2 n=c#4 v=73
61425 On ch=2 n=c#5 v=73
61451 Tempo 251046
61472 Off ch=2 n=c#4 v=64
61472 Off ch=2 n=c#5 v=64
61473 On ch=2 n=e5 v=73
61473 On ch=2 n=e4 v=73
61477 Tempo 250000
61520 Off ch=2 n=e5 v=64
61520 Off ch=2 n=e4 v=64
61521 On ch=2 n=a4 v=73
61563 Tempo 269058
61568 Off ch=2 n=a4 v=64
61605 Tempo 267857
61617 On ch=2 n=e4 v=73
61647 Tempo 266666
61664 Off ch=2 n=e4 v=64
61689 Tempo 264718
61713 On ch=2 n=a4 v=73
61731 Tempo 264317
61760 Off ch=2 n=a4 v=64
61770 Tempo 263157
61806 On ch=2 n=e4 v=73
61812 Tempo 262008
61853 Off ch=2 n=e4 v=64
61854 Tempo 260869
61896 Tempo 259740
61902 On ch=2 n=a4 v=73
61938 Tempo 258620
61949 Off ch=2 n=a4 v=64
61980 Tempo 257510
61998 On ch=2 n=e4 v=73
62022 Tempo 256410
62045 Off ch=2 n=e4 v=64
62064 Tempo 255319
62094 On ch=2 n=a4 v=73
62106 Tempo 254237
62141 Off ch=2 n=a4 v=64
62148 Tempo 253164
62190 Tempo 252100
62232 Tempo 251046
62274 Tempo 250000
62286 On ch=2 n=a4 v=73
62286 On ch=2 n=e4 v=73
62286 On ch=2 n=c#4 v=73
62286 On ch=2 n=a3 v=73
62381 Off ch=2 n=a4 v=64
62381 Off ch=2 n=e4 v=64
62381 Off ch=2 n=c#4 v=64
62381 Off ch=2 n=a3 v=64
62478 On ch=2 n=a3 v=73
62478 On ch=2 n=c#4 v=73
62478 On ch=2 n=e4 v=73
62478 On ch=2 n=a4 v=73
62573 Off ch=2 n=a3 v=64
62573 Off ch=2 n=c#4 v=64
62573 Off ch=2 n=e4 v=64
62573 Off ch=2 n=a4 v=64
62573 Meta TrkEnd
TrkEnd
MTrk
0 Par ch=3 c=0 v=0
0 PrCh ch=3 p=0
0 TimeSig 2/4 96 8
0 Tempo 500000
3264 TimeSig 3/4 96 8
3552 TimeSig 1/4 96 8
3552 Tempo 600000
3564 Tempo 594059
3576 Tempo 588235
3588 Tempo 582524
3600 Tempo 576923
3612 Tempo 571428
3624 Tempo 566037
3636 Tempo 560747
3648 Tempo 555555
3660 Tempo 550458
3672 Tempo 545454
3684 Tempo 540540
3696 Tempo 535714
3708 Tempo 530973
3720 Tempo 526315
3732 Tempo 521739
3744 Tempo 517241
3756 Tempo 512820
3768 Tempo 508474
3780 Tempo 504201
3792 Tempo 500000
3804 Tempo 495867
3816 Tempo 491803
3828 Tempo 487804
3840 Tempo 483870
3852 Tempo 480000
3864 Tempo 476190
3876 Tempo 472440
3888 Tempo 468750
3900 Tempo 465116
3912 Tempo 461538
3924 Tempo 458015
3936 Tempo 454545
3948 Tempo 451127
3960 Tempo 447761
3972 Tempo 444444
3984 Tempo 441176
3996 Tempo 437956
4008 Tempo 434782
4020 Tempo 431654
4032 Tempo 428571
4044 Tempo 425531
4056 Tempo 422535
4068 Tempo 419580
4080 Tempo 416666
4092 Tempo 413793
4104 Tempo 410958
4116 Tempo 408163
4128 Tempo 405405
4140 Tempo 402684
4152 Tempo 400000
4164 Tempo 397350
4176 Tempo 394736
4188 Tempo 392156
4200 Tempo 389610
4212 Tempo 387096
4224 Tempo 384615
4236 Tempo 382165
4240 On ch=3 n=d#6 v=75
4248 Tempo 379746
4255 Off ch=3 n=d#6 v=64
4256 On ch=3 n=f#6 v=75
4260 Tempo 377358
4271 Off ch=3 n=f#6 v=64
4272 Tempo 375000
4272 On ch=3 n=d#7 v=75
4284 Tempo 372670
4287 Off ch=3 n=d#7 v=64
4288 On ch=3 n=b6 v=75
4296 Tempo 370370
4303 Off ch=3 n=b6 v=64
4304 On ch=3 n=f#6 v=75
4308 Tempo 368098
4319 Off ch=3 n=f#6 v=64
4320 Tempo 365853
4332 Tempo 363636
4336 On ch=3 n=f#6 v=75
4344 Tempo 361445
4351 Off ch=3 n=f#6 v=64
4352 On ch=3 n=b6 v=75
4356 Tempo 359281
4367 Off ch=3 n=b6 v=64
4368 Tempo 357142
4368 On ch=3 n=f#7 v=75
4380 Tempo 355029
4383 Off ch=3 n=f#7 v=64
4384 On ch=3 n=d#7 v=75
4392 Tempo 352941
4399 Off ch=3 n=d#7 v=64
4400 On ch=3 n=b6 v=75
4404 Tempo 350877
4415 Off ch=3 n=b6 v=64
4416 Tempo 348837
4428 Tempo 346820
4432 On ch=3 n=g6 v=75
4440 Tempo 344827
4447 Off ch=3 n=g6 v=64
4448 On ch=3 n=b6 v=75
4452 Tempo 342857
4463 Off ch=3 n=b6 v=64
4464 Tempo 340909
4464 On ch=3 n=g7 v=75
4476 Tempo 338983
4479 Off ch=3 n=g7 v=64
4480 On ch=3 n=d#7 v=75
4488 Tempo 337078
4495 Off ch=3 n=d#7 v=64
4496 On ch=3 n=b6 v=75
4500 Tempo 335195
4511 Off ch=3 n=b6 v=64
4512 Tempo 333333
4524 Tempo 331491
4528 On ch=3 n=b6 v=75
4536 Tempo 329670
4543 Off ch=3 n=b6 v=64
4544 On ch=3 n=d#7 v=75
4548 Tempo 327868
4559 Off ch=3 n=d#7 v=64
4560 Tempo 326086
4560 On ch=3 n=b7 v=75
4572 Tempo 324324
4575 Off ch=3 n=b7 v=64
4576 On ch=3 n=g7 v=75
4584 Tempo 322580
4591 Off ch=3 n=g7 v=64
4592 On ch=3 n=d#7 v=75
4596 Tempo 320855
4607 Off ch=3 n=d#7 v=64
4608 Tempo 319148
4620 Tempo 317460
4624 On ch=3 n=b6 v=75
4632 Tempo 315789
4639 Off ch=3 n=b6 v=64
4640 On ch=3 n=d#7 v=75
4655 Off ch=3 n=d#7 v=64
4656 On ch=3 n=b7 v=75
4671 Off ch=3 n=b7 v=64
4672 On ch=3 n=g7 v=75
4687 Off ch=3 n=g7 v=64
4688 On ch=3 n=d#7 v=75
4703 Off ch=3 n=d#7 v=64
4704 On ch=3 n=b6 v=75
4712 On ch=3 n=d#7 v=75
4720 On ch=3 n=b7 v=75
4799 Off ch=3 n=b6 v=64
4799 Off ch=3 n=d#7 v=64
4799 Off ch=3 n=b7 v=64
4800 TimeSig 2/4 96 8
5184 Tempo 315789
5187 Tempo 317460
5190 Tempo 319148
5193 Tempo 320855
5196 Tempo 322580
5199 Tempo 324324
5202 Tempo 326086
5205 Tempo 327868
5208 Tempo 329670
5211 Tempo 331491
5214 Tempo 333333
5217 Tempo 335195
5220 Tempo 337078
5223 Tempo 338983
5226 Tempo 340909
5229 Tempo 342857
5232 Tempo 344827
5235 Tempo 346820
5238 Tempo 348837
5241 Tempo 350877
5244 Tempo 352941
5247 Tempo 355029
5250 Tempo 357142
5253 Tempo 359281
5256 Tempo 361445
5259 Tempo 363636
5262 Tempo 365853
5265 Tempo 368098
5268 Tempo 370370
5271 Tempo 372670
5274 Tempo 375000
5277 Tempo 377358
5280 Tempo 379746
5283 Tempo 382165
5286 Tempo 384615
5289 Tempo 387096
5292 Tempo 389610
5295 Tempo 392156
5298 Tempo 394736
5301 Tempo 397350
5304 Tempo 400000
5307 Tempo 402684
5310 Tempo 405405
5313 Tempo 408163
5316 Tempo 410958
5319 Tempo 413793
5322 Tempo 416666
5325 Tempo 419580
5328 Tempo 422535
5331 Tempo 425531
5334 Tempo 428571
5337 Tempo 431654
5340 Tempo 434782
5343 Tempo 437956
5346 Tempo 441176
5349 Tempo 444444
5352 Tempo 447761
5355 Tempo 451127
5358 Tempo 454545
5361 Tempo 458015
5364 Tempo 461538
5367 Tempo 465116
5370 Tempo 468750
5373 Tempo 472440
5376 Tempo 476190
5379 Tempo 480000
5382 Tempo 483870
5385 Tempo 487804
5388 Tempo 491803
5391 Tempo 495867
5394 Tempo 500000
5397 Tempo 504201
5400 Tempo 508474
5403 Tempo 512820
5406 Tempo 517241
5409 Tempo 521739
5412 Tempo 526315
5415 Tempo 530973
5418 Tempo 535714
5421 Tempo 540540
5424 Tempo 545454
5427 Tempo 550458
5430 Tempo 555555
5433 Tempo 560747
5436 Tempo 566037
5439 Tempo 571428
5442 Tempo 576923
5445 Tempo 582524
5448 Tempo 588235
5451 Tempo 594059
5454 Tempo 600000
5457 Tempo 606060
5460 Tempo 612244
5463 Tempo 618556
5466 Tempo 625000
5469 Tempo 631578
5472 Tempo 638297
5475 Tempo 645161
5478 Tempo 652173
5481 Tempo 659340
5484 Tempo 666666
5487 Tempo 674157
5490 Tempo 681818
5493 Tempo 689655
5496 Tempo 697674
5499 Tempo 705882
5502 Tempo 714285
5505 Tempo 722891
5508 Tempo 731707
5511 Tempo 740740
5514 Tempo 750000
5568 Tempo 461538
11712 TimeSig 1/4 96 8
12480 TimeSig 2/4 96 8
12480 Tempo 300000
15552 On ch=3 n=f#7 v=75
15575 Off ch=3 n=f#7 v=64
15576 On ch=3 n=g7 v=75
15599 Off ch=3 n=g7 v=64
15600 On ch=3 n=f#7 v=75
15623 Off ch=3 n=f#7 v=64
15624 On ch=3 n=g7 v=75
15647 Off ch=3 n=g7 v=64
15648 On ch=3 n=f#7 v=75
15671 Off ch=3 n=f#7 v=64
15672 On ch=3 n=g7 v=75
15695 Off ch=3 n=g7 v=64
15696 On ch=3 n=f#7 v=75
15719 Off ch=3 n=f#7 v=64
15720 On ch=3 n=g7 v=75
15743 Off ch=3 n=g7 v=64
15744 On ch=3 n=f#7 v=75
15767 Off ch=3 n=f#7 v=64
15768 On ch=3 n=g7 v=75
15791 Off ch=3 n=g7 v=64
15792 On ch=3 n=f#7 v=75
15815 Off ch=3 n=f#7 v=64
15816 On ch=3 n=g7 v=75
15839 Off ch=3 n=g7 v=64
15840 On ch=3 n=f#7 v=75
15863 Off ch=3 n=f#7 v=64
15864 On ch=3 n=g7 v=75
15887 Off ch=3 n=g7 v=64
15888 On ch=3 n=f#7 v=75
15911 Off ch=3 n=f#7 v=64
15912 On ch=3 n=g7 v=75
15935 Off ch=3 n=g7 v=64
15936 On ch=3 n=f#7 v=75
15959 Off ch=3 n=f#7 v=64
15960 On ch=3 n=g7 v=75
15983 Off ch=3 n=g7 v=64
15984 On ch=3 n=f#7 v=75
16007 Off ch=3 n=f#7 v=64
16008 On ch=3 n=g7 v=75
16031 Off ch=3 n=g7 v=64
16032 On ch=3 n=f#7 v=75
16055 Off ch=3 n=f#7 v=64
16056 On ch=3 n=g7 v=75
16079 Off ch=3 n=g7 v=64
16080 On ch=3 n=f#7 v=75
16103 Off ch=3 n=f#7 v=64
16104 On ch=3 n=g7 v=75
16127 Off ch=3 n=g7 v=64
16128 On ch=3 n=f#7 v=75
16151 Off ch=3 n=f#7 v=64
16152 On ch=3 n=g7 v=75
16175 Off ch=3 n=g7 v=64
16176 On ch=3 n=f#7 v=75
16199 Off ch=3 n=f#7 v=64
16200 On ch=3 n=g7 v=75
16223 Off ch=3 n=g7 v=64
16224 On ch=3 n=f7 v=75
16247 Off ch=3 n=f7 v=64
16248 On ch=3 n=f#7 v=75
16271 Off ch=3 n=f#7 v=64
16272 On ch=3 n=g7 v=75
16295 Off ch=3 n=g7 v=64
16296 On ch=3 n=g#7 v=75
16319 Off ch=3 n=g#7 v=64
16320 On ch=3 n=a7 v=75
16320 On ch=3 n=d#7 v=75
16343 Off ch=3 n=a7 v=64
16343 Off ch=3 n=d#7 v=64
16344 On ch=3 n=b7 v=75
16367 Off ch=3 n=b7 v=64
16368 On ch=3 n=a7 v=75
16368 On ch=3 n=d#7 v=75
16391 Off ch=3 n=a7 v=64
16391 Off ch=3 n=d#7 v=64
16392 On ch=3 n=b7 v=75
16415 Off ch=3 n=b7 v=64
16416 On ch=3 n=a7 v=75
16416 On ch=3 n=d#7 v=75
16439 Off ch=3 n=a7 v=64
16439 Off ch=3 n=d#7 v=64
16440 On ch=3 n=b7 v=75
16463 Off ch=3 n=b7 v=64
16464 On ch=3 n=a7 v=75
16464 On ch=3 n=d#7 v=75
16487 Off ch=3 n=a7 v=64
16487 Off ch=3 n=d#7 v=64
16488 On ch=3 n=b7 v=75
16511 Off ch=3 n=b7 v=64
16512 On ch=3 n=a7 v=75
16512 On ch=3 n=d#7 v=75
16535 Off ch=3 n=a7 v=64
16535 Off ch=3 n=d#7 v=64
16536 On ch=3 n=b7 v=75
16559 Off ch=3 n=b7 v=64
16560 On ch=3 n=a7 v=75
16560 On ch=3 n=d#7 v=75
16583 Off ch=3 n=a7 v=64
16583 Off ch=3 n=d#7 v=64
16584 On ch=3 n=b7 v=75
16607 Off ch=3 n=b7 v=64
16608 On ch=3 n=a7 v=75
16608 On ch=3 n=d#7 v=75
16631 Off ch=3 n=a7 v=64
16631 Off ch=3 n=d#7 v=64
16632 On ch=3 n=b7 v=75
16655 Off ch=3 n=b7 v=64
16656 On ch=3 n=a7 v=75
16656 On ch=3 n=d#7 v=75
16679 Off ch=3 n=a7 v=64
16679 Off ch=3 n=d#7 v=64
16680 On ch=3 n=b7 v=75
16703 Off ch=3 n=b7 v=64
16704 On ch=3 n=a7 v=75
16704 On ch=3 n=d#7 v=75
16727 Off ch=3 n=a7 v=64
16727 Off ch=3 n=d#7 v=64
16728 On ch=3 n=b7 v=75
16751 Off ch=3 n=b7 v=64
16752 On ch=3 n=a7 v=75
16752 On ch=3 n=d#7 v=75
16775 Off ch=3 n=a7 v=64
16775 Off ch=3 n=d#7 v=64
16776 On ch=3 n=b7 v=75
16799 Off ch=3 n=b7 v=64
16800 On ch=3 n=g#7 v=75
16800 On ch=3 n=d#7 v=75
16823 Off ch=3 n=g#7 v=64
16823 Off ch=3 n=d#7 v=64
16824 On ch=3 n=b7 v=75
16847 Off ch=3 n=b7 v=64
16848 On ch=3 n=g#7 v=75
16848 On ch=3 n=d#7 v=75
16871 Off ch=3 n=g#7 v=64
16871 Off ch=3 n=d#7 v=64
16872 On ch=3 n=b7 v=75
16895 Off ch=3 n=b7 v=64
16896 On ch=3 n=a7 v=75
16896 On ch=3 n=d#7 v=75
16919 Off ch=3 n=a7 v=64
16919 Off ch=3 n=d#7 v=64
16920 On ch=3 n=b7 v=75
16943 Off ch=3 n=b7 v=64
16944 On ch=3 n=a7 v=75
16944 On ch=3 n=d#7 v=75
16967 Off ch=3 n=a7 v=64
16967 Off ch=3 n=d#7 v=64
16968 On ch=3 n=b7 v=75
16991 Off ch=3 n=b7 v=64
16992 On ch=3 n=g#7 v=75
16992 On ch=3 n=d#7 v=75
17015 Off ch=3 n=g#7 v=64
17015 Off ch=3 n=d#7 v=64
17016 On ch=3 n=b7 v=75
17039 Off ch=3 n=b7 v=64
17040 On ch=3 n=g#7 v=75
17040 On ch=3 n=d#7 v=75
17063 Off ch=3 n=g#7 v=64
17063 Off ch=3 n=d#7 v=64
17064 On ch=3 n=b7 v=75
17087 Off ch=3 n=b7 v=64
17088 On ch=3 n=a7 v=75
17088 On ch=3 n=d#7 v=75
17111 Off ch=3 n=a7 v=64
17111 Off ch=3 n=d#7 v=64
17112 On ch=3 n=b7 v=75
17135 Off ch=3 n=b7 v=64
17136 On ch=3 n=a7 v=75
17136 On ch=3 n=d#7 v=75
17159 Off ch=3 n=a7 v=64
17159 Off ch=3 n=d#7 v=64
17160 On ch=3 n=b7 v=75
17183 Off ch=3 n=b7 v=64
17184 On ch=3 n=a7 v=75
17184 On ch=3 n=d#7 v=75
17207 Off ch=3 n=a7 v=64
17207 Off ch=3 n=d#7 v=64
17208 On ch=3 n=b7 v=75
17231 Off ch=3 n=b7 v=64
17232 On ch=3 n=a7 v=75
17232 On ch=3 n=d#7 v=75
17255 Off ch=3 n=a7 v=64
17255 Off ch=3 n=d#7 v=64
17256 On ch=3 n=b7 v=75
17279 Off ch=3 n=b7 v=64
17280 On ch=3 n=a7 v=75
17280 On ch=3 n=d#7 v=75
17303 Off ch=3 n=a7 v=64
17303 Off ch=3 n=d#7 v=64
17304 On ch=3 n=b7 v=75
17327 Off ch=3 n=b7 v=64
17328 On ch=3 n=a7 v=75
17328 On ch=3 n=d#7 v=75
17351 Off ch=3 n=a7 v=64
17351 Off ch=3 n=d#7 v=64
17352 On ch=3 n=b7 v=75
17375 Off ch=3 n=b7 v=64
17376 On ch=3 n=a7 v=75
17376 On ch=3 n=d#7 v=75
17399 Off ch=3 n=a7 v=64
17399 Off ch=3 n=d#7 v=64
17400 On ch=3 n=b7 v=75
17423 Off ch=3 n=b7 v=64
17424 On ch=3 n=a7 v=75
17424 On ch=3 n=d#7 v=75
17447 Off ch=3 n=a7 v=64
17447 Off ch=3 n=d#7 v=64
17448 On ch=3 n=b7 v=75
17471 Off ch=3 n=b7 v=64
17472 On ch=3 n=a7 v=75
17472 On ch=3 n=d#7 v=75
17495 Off ch=3 n=a7 v=64
17495 Off ch=3 n=d#7 v=64
17496 On ch=3 n=b7 v=75
17519 Off ch=3 n=b7 v=64
17520 On ch=3 n=a7 v=75
17520 On ch=3 n=d#7 v=75
17543 Off ch=3 n=a7 v=64
17543 Off ch=3 n=d#7 v=64
17544 On ch=3 n=b7 v=75
17567 Off ch=3 n=b7 v=64
17568 On ch=3 n=g#7 v=75
17568 On ch=3 n=d#7 v=75
17591 Off ch=3 n=g#7 v=64
17591 Off ch=3 n=d#7 v=64
17592 On ch=3 n=b7 v=75
17615 Off ch=3 n=b7 v=64
17616 On ch=3 n=g#7 v=75
17616 On ch=3 n=d#7 v=75
17639 Off ch=3 n=g#7 v=64
17639 Off ch=3 n=d#7 v=64
17640 On ch=3 n=b7 v=75
17663 Off ch=3 n=b7 v=64
17664 On ch=3 n=a7 v=75
17664 On ch=3 n=d#7 v=75
17687 Off ch=3 n=a7 v=64
17687 Off ch=3 n=d#7 v=64
17688 On ch=3 n=b7 v=75
17711 Off ch=3 n=b7 v=64
17712 On ch=3 n=a7 v=75
17712 On ch=3 n=d#7 v=75
17735 Off ch=3 n=a7 v=64
17735 Off ch=3 n=d#7 v=64
17736 On ch=3 n=b7 v=75
17759 Off ch=3 n=b7 v=64
17760 On ch=3 n=g#7 v=75
17760 On ch=3 n=d#7 v=75
17783 Off ch=3 n=g#7 v=64
17783 Off ch=3 n=d#7 v=64
17784 On ch=3 n=b7 v=75
17807 Off ch=3 n=b7 v=64
17808 On ch=3 n=g#7 v=75
17808 On ch=3 n=d#7 v=75
17831 Off ch=3 n=g#7 v=64
17831 Off ch=3 n=d#7 v=64
17832 On ch=3 n=b7 v=75
17855 Off ch=3 n=b7 v=64
17856 On ch=3 n=a7 v=75
17856 On ch=3 n=d#7 v=75
17879 Off ch=3 n=a7 v=64
17879 Off ch=3 n=d#7 v=64
17880 On ch=3 n=b7 v=75
17903 Off ch=3 n=b7 v=64
17904 On ch=3 n=a7 v=75
17904 On ch=3 n=d#7 v=75
17927 Off ch=3 n=a7 v=64
17927 Off ch=3 n=d#7 v=64
17928 On ch=3 n=b7 v=75
17951 Off ch=3 n=b7 v=64
17952 On ch=3 n=g#7 v=75
17952 On ch=3 n=d#7 v=75
17975 Off ch=3 n=g#7 v=64
17975 Off ch=3 n=d#7 v=64
17976 On ch=3 n=b7 v=75
17999 Off ch=3 n=b7 v=64
18000 On ch=3 n=g#7 v=75
18000 On ch=3 n=d#7 v=75
18023 Off ch=3 n=g#7 v=64
18023 Off ch=3 n=d#7 v=64
18024 On ch=3 n=b7 v=75
18047 Off ch=3 n=b7 v=64
18048 On ch=3 n=a7 v=75
18048 On ch=3 n=d#7 v=75
18071 Off ch=3 n=a7 v=64
18071 Off ch=3 n=d#7 v=64
18072 On ch=3 n=b7 v=75
18095 Off ch=3 n=b7 v=64
18096 On ch=3 n=a7 v=75
18096 On ch=3 n=d#7 v=75
18119 Off ch=3 n=a7 v=64
18119 Off ch=3 n=d#7 v=64
18120 On ch=3 n=b7 v=75
18143 Off ch=3 n=b7 v=64
18144 On ch=3 n=a7 v=75
18144 On ch=3 n=d#7 v=75
18167 Off ch=3 n=a7 v=64
18167 Off ch=3 n=d#7 v=64
18168 On ch=3 n=b7 v=75
18191 Off ch=3 n=b7 v=64
18192 On ch=3 n=a7 v=75
18192 On ch=3 n=d#7 v=75
18215 Off ch=3 n=a7 v=64
18215 Off ch=3 n=d#7 v=64
18216 On ch=3 n=b7 v=75
18239 Off ch=3 n=b7 v=64
18288 On ch=3 n=d#7 v=75
18312 On ch=3 n=a7 v=75
18431 Off ch=3 n=d#7 v=64
18431 Off ch=3 n=a7 v=64
18816 Tempo 300000
18821 Tempo 301507
18826 Tempo 303030
18831 Tempo 304568
18836 Tempo 306122
18841 Tempo 307692
18846 Tempo 309278
18851 Tempo 310880
18856 Tempo 312500
18861 Tempo 314136
18866 Tempo 315789
18871 Tempo 317460
18876 Tempo 319148
18881 Tempo 320855
18886 Tempo 322580
18891 Tempo 324324
18896 Tempo 326086
18901 Tempo 327868
18906 Tempo 329670
18911 Tempo 331491
18916 Tempo 333333
18921 Tempo 335195
18926 Tempo 337078
18931 Tempo 338983
18936 Tempo 340909
18941 Tempo 342857
18946 Tempo 344827
18951 Tempo 346820
18956 Tempo 348837
18961 Tempo 350877
18966 Tempo 352941
18971 Tempo 355029
18976 Tempo 357142
18981 Tempo 359281
18986 Tempo 361445
18991 Tempo 363636
18996 Tempo 365853
19001 Tempo 368098
19006 Tempo 370370
19011 Tempo 372670
19016 Tempo 375000
19021 Tempo 377358
19026 Tempo 379746
19031 Tempo 382165
19036 Tempo 384615
19041 Tempo 387096
19046 Tempo 389610
19051 Tempo 392156
19056 Tempo 394736
19061 Tempo 397350
19066 Tempo 400000
19071 Tempo 402684
19076 Tempo 405405
19081 Tempo 408163
19086 Tempo 410958
19091 Tempo 413793
19096 Tempo 416666
19101 Tempo 419580
19106 Tempo 422535
19111 Tempo 425531
19116 Tempo 428571
19121 Tempo 431654
19126 Tempo 434782
19131 Tempo 437956
19136 Tempo 441176
19141 Tempo 444444
19146 Tempo 447761
19151 Tempo 451127
19156 Tempo 454545
19161 Tempo 458015
19166 Tempo 461538
26112 Tempo 300000
29184 On ch=3 n=g7 v=75
29207 Off ch=3 n=g7 v=64
29208 On ch=3 n=g#7 v=75
29231 Off ch=3 n=g#7 v=64
29232 On ch=3 n=g7 v=75
29255 Off ch=3 n=g7 v=64
29256 On ch=3 n=g#7 v=75
29279 Off ch=3 n=g#7 v=64
29280 On ch=3 n=g7 v=75
29303 Off ch=3 n=g7 v=64
29304 On ch=3 n=g#7 v=75
29327 Off ch=3 n=g#7 v=64
29328 On ch=3 n=g7 v=75
29351 Off ch=3 n=g7 v=64
29352 On ch=3 n=g#7 v=75
29375 Off ch=3 n=g#7 v=64
29376 On ch=3 n=g7 v=75
29399 Off ch=3 n=g7 v=64
29400 On ch=3 n=g#7 v=75
29423 Off ch=3 n=g#7 v=64
29424 On ch=3 n=g7 v=75
29447 Off ch=3 n=g7 v=64
29448 On ch=3 n=g#7 v=75
29471 Off ch=3 n=g#7 v=64
29472 On ch=3 n=g7 v=75
29495 Off ch=3 n=g7 v=64
29496 On ch=3 n=g#7 v=75
29519 Off ch=3 n=g#7 v=64
29520 On ch=3 n=g7 v=75
29543 Off ch=3 n=g7 v=64
29544 On ch=3 n=g#7 v=75
29567 Off ch=3 n=g#7 v=64
29568 On ch=3 n=g7 v=75
29591 Off ch=3 n=g7 v=64
29592 On ch=3 n=g#7 v=75
29615 Off ch=3 n=g#7 v=64
29616 On ch=3 n=g7 v=75
29639 Off ch=3 n=g7 v=64
29640 On ch=3 n=g#7 v=75
29663 Off ch=3 n=g#7 v=64
29664 On ch=3 n=g7 v=75
29687 Off ch=3 n=g7 v=64
29688 On ch=3 n=g#7 v=75
29711 Off ch=3 n=g#7 v=64
29712 On ch=3 n=g7 v=75
29735 Off ch=3 n=g7 v=64
29736 On ch=3 n=g#7 v=75
29759 Off ch=3 n=g#7 v=64
29760 On ch=3 n=g7 v=75
29783 Off ch=3 n=g7 v=64
29784 On ch=3 n=g#7 v=75
29807 Off ch=3 n=g#7 v=64
29808 On ch=3 n=g7 v=75
29831 Off ch=3 n=g7 v=64
29832 On ch=3 n=g#7 v=75
29855 Off ch=3 n=g#7 v=64
29856 On ch=3 n=f#7 v=75
29879 Off ch=3 n=f#7 v=64
29880 On ch=3 n=g7 v=75
29903 Off ch=3 n=g7 v=64
29904 On ch=3 n=g#7 v=75
29927 Off ch=3 n=g#7 v=64
29928 On ch=3 n=a7 v=75
29951 Off ch=3 n=a7 v=64
29952 On ch=3 n=a#7 v=75
29952 On ch=3 n=e7 v=75
29975 Off ch=3 n=a#7 v=64
29975 Off ch=3 n=e7 v=64
29976 On ch=3 n=c8 v=75
29999 Off ch=3 n=c8 v=64
30000 On ch=3 n=a#7 v=75
30000 On ch=3 n=e7 v=75
30023 Off ch=3 n=a#7 v=64
30023 Off ch=3 n=e7 v=64
30024 On ch=3 n=c8 v=75
30047 Off ch=3 n=c8 v=64
30048 On ch=3 n=a#7 v=75
30048 On ch=3 n=e7 v=75
30071 Off ch=3 n=a#7 v=64
30071 Off ch=3 n=e7 v=64
30072 On ch=3 n=c8 v=75
30095 Off ch=3 n=c8 v=64
30096 On ch=3 n=a#7 v=75
30096 On ch=3 n=e7 v=75
30119 Off ch=3 n=a#7 v=64
30119 Off ch=3 n=e7 v=64
30120 On ch=3 n=c8 v=75
30143 Off ch=3 n=c8 v=64
30144 On ch=3 n=a#7 v=75
30144 On ch=3 n=e7 v=75
30167 Off ch=3 n=a#7 v=64
30167 Off ch=3 n=e7 v=64
30168 On ch=3 n=c8 v=75
30191 Off ch=3 n=c8 v=64
30192 On ch=3 n=a#7 v=75
30192 On ch=3 n=e7 v=75
30215 Off ch=3 n=a#7 v=64
30215 Off ch=3 n=e7 v=64
30216 On ch=3 n=c8 v=75
30239 Off ch=3 n=c8 v=64
30240 On ch=3 n=a#7 v=75
30240 On ch=3 n=e7 v=75
30263 Off ch=3 n=a#7 v=64
30263 Off ch=3 n=e7 v=64
30264 On ch=3 n=c8 v=75
30287 Off ch=3 n=c8 v=64
30288 On ch=3 n=a#7 v=75
30288 On ch=3 n=e7 v=75
30311 Off ch=3 n=a#7 v=64
30311 Off ch=3 n=e7 v=64
30312 On ch=3 n=c8 v=75
30335 Off ch=3 n=c8 v=64
30336 On ch=3 n=a#7 v=75
30336 On ch=3 n=e7 v=75
30359 Off ch=3 n=a#7 v=64
30359 Off ch=3 n=e7 v=64
30360 On ch=3 n=c8 v=75
30383 Off ch=3 n=c8 v=64
30384 On ch=3 n=a#7 v=75
30384 On ch=3 n=e7 v=75
30407 Off ch=3 n=a#7 v=64
30407 Off ch=3 n=e7 v=64
30408 On ch=3 n=c8 v=75
30431 Off ch=3 n=c8 v=64
30432 On ch=3 n=a7 v=75
30432 On ch=3 n=e7 v=75
30455 Off ch=3 n=a7 v=64
30455 Off ch=3 n=e7 v=64
30456 On ch=3 n=c8 v=75
30479 Off ch=3 n=c8 v=64
30480 On ch=3 n=a7 v=75
30480 On ch=3 n=e7 v=75
30503 Off ch=3 n=a7 v=64
30503 Off ch=3 n=e7 v=64
30504 On ch=3 n=c8 v=75
30527 Off ch=3 n=c8 v=64
30528 On ch=3 n=a#7 v=75
30528 On ch=3 n=e7 v=75
30551 Off ch=3 n=a#7 v=64
30551 Off ch=3 n=e7 v=64
30552 On ch=3 n=c8 v=75
30575 Off ch=3 n=c8 v=64
30576 On ch=3 n=a#7 v=75
30576 On ch=3 n=e7 v=75
30599 Off ch=3 n=a#7 v=64
30599 Off ch=3 n=e7 v=64
30600 On ch=3 n=c8 v=75
30623 Off ch=3 n=c8 v=64
30624 On ch=3 n=a7 v=75
30624 On ch=3 n=e7 v=75
30647 Off ch=3 n=a7 v=64
30647 Off ch=3 n=e7 v=64
30648 On ch=3 n=c8 v=75
30671 Off ch=3 n=c8 v=64
30672 On ch=3 n=a7 v=75
30672 On ch=3 n=e7 v=75
30695 Off ch=3 n=a7 v=64
30695 Off ch=3 n=e7 v=64
30696 On ch=3 n=c8 v=75
30719 Off ch=3 n=c8 v=64
30720 On ch=3 n=a#7 v=75
30720 On ch=3 n=e7 v=75
30743 Off ch=3 n=a#7 v=64
30743 Off ch=3 n=e7 v=64
30744 On ch=3 n=c8 v=75
30767 Off ch=3 n=c8 v=64
30768 On ch=3 n=a#7 v=75
30768 On ch=3 n=e7 v=75
30791 Off ch=3 n=a#7 v=64
30791 Off ch=3 n=e7 v=64
30792 On ch=3 n=c8 v=75
30815 Off ch=3 n=c8 v=64
30816 On ch=3 n=a#7 v=75
30816 On ch=3 n=e7 v=75
30839 Off ch=3 n=a#7 v=64
30839 Off ch=3 n=e7 v=64
30840 On ch=3 n=c8 v=75
30863 Off ch=3 n=c8 v=64
30864 On ch=3 n=a#7 v=75
30864 On ch=3 n=e7 v=75
30887 Off ch=3 n=a#7 v=64
30887 Off ch=3 n=e7 v=64
30888 On ch=3 n=c8 v=75
30911 Off ch=3 n=c8 v=64
30912 On ch=3 n=a#7 v=75
30912 On ch=3 n=e7 v=75
30935 Off ch=3 n=a#7 v=64
30935 Off ch=3 n=e7 v=64
30936 On ch=3 n=c8 v=75
30959 Off ch=3 n=c8 v=64
30960 On ch=3 n=a#7 v=75
30960 On ch=3 n=e7 v=75
30983 Off ch=3 n=a#7 v=64
30983 Off ch=3 n=e7 v=64
30984 On ch=3 n=c8 v=75
31007 Off ch=3 n=c8 v=64
31008 On ch=3 n=a#7 v=75
31008 On ch=3 n=e7 v=75
31031 Off ch=3 n=a#7 v=64
31031 Off ch=3 n=e7 v=64
31032 On ch=3 n=c8 v=75
31055 Off ch=3 n=c8 v=64
31056 On ch=3 n=a#7 v=75
31056 On ch=3 n=e7 v=75
31079 Off ch=3 n=a#7 v=64
31079 Off ch=3 n=e7 v=64
31080 On ch=3 n=c8 v=75
31103 Off ch=3 n=c8 v=64
31104 On ch=3 n=a#7 v=75
31104 On ch=3 n=e7 v=75
31127 Off ch=3 n=a#7 v=64
31127 Off ch=3 n=e7 v=64
31128 On ch=3 n=c8 v=75
31151 Off ch=3 n=c8 v=64
31152 On ch=3 n=a#7 v=75
31152 On ch=3 n=e7 v=75
31175 Off ch=3 n=a#7 v=64
31175 Off ch=3 n=e7 v=64
31176 On ch=3 n=c8 v=75
31199 Off ch=3 n=c8 v=64
31200 On ch=3 n=a7 v=75
31200 On ch=3 n=e7 v=75
31223 Off ch=3 n=a7 v=64
31223 Off ch=3 n=e7 v=64
31224 On ch=3 n=c8 v=75
31247 Off ch=3 n=c8 v=64
31248 On ch=3 n=a7 v=75
31248 On ch=3 n=e7 v=75
31271 Off ch=3 n=a7 v=64
31271 Off ch=3 n=e7 v=64
31272 On ch=3 n=c8 v=75
31295 Off ch=3 n=c8 v=64
31296 On ch=3 n=a#7 v=75
31296 On ch=3 n=e7 v=75
31319 Off ch=3 n=a#7 v=64
31319 Off ch=3 n=e7 v=64
31320 On ch=3 n=c8 v=75
31343 Off ch=3 n=c8 v=64
31344 On ch=3 n=a#7 v=75
31344 On ch=3 n=e7 v=75
31367 Off ch=3 n=a#7 v=64
31367 Off ch=3 n=e7 v=64
31368 On ch=3 n=c8 v=75
31391 Off ch=3 n=c8 v=64
31392 On ch=3 n=a7 v=75
31392 On ch=3 n=e7 v=75
31415 Off ch=3 n=a7 v=64
31415 Off ch=3 n=e7 v=64
31416 On ch=3 n=c8 v=75
31439 Off ch=3 n=c8 v=64
31440 On ch=3 n=a7 v=75
31440 On ch=3 n=e7 v=75
31463 Off ch=3 n=a7 v=64
31463 Off ch=3 n=e7 v=64
31464 On ch=3 n=c8 v=75
31487 Off ch=3 n=c8 v=64
31488 On ch=3 n=a#7 v=75
31488 On ch=3 n=e7 v=75
31511 Off ch=3 n=a#7 v=64
31511 Off ch=3 n=e7 v=64
31512 On ch=3 n=c8 v=75
31535 Off ch=3 n=c8 v=64
31536 On ch=3 n=a#7 v=75
31536 On ch=3 n=e7 v=75
31559 Off ch=3 n=a#7 v=64
31559 Off ch=3 n=e7 v=64
31560 On ch=3 n=c8 v=75
31583 Off ch=3 n=c8 v=64
31584 On ch=3 n=a7 v=75
31584 On ch=3 n=e7 v=75
31607 Off ch=3 n=a7 v=64
31607 Off ch=3 n=e7 v=64
31608 On ch=3 n=c8 v=75
31631 Off ch=3 n=c8 v=64
31632 On ch=3 n=a7 v=75
31632 On ch=3 n=e7 v=75
31655 Off ch=3 n=a7 v=64
31655 Off ch=3 n=e7 v=64
31656 On ch=3 n=c8 v=75
31679 Off ch=3 n=c8 v=64
31680 On ch=3 n=a#7 v=75
31680 On ch=3 n=e7 v=75
31703 Off ch=3 n=a#7 v=64
31703 Off ch=3 n=e7 v=64
31704 On ch=3 n=c8 v=75
31727 Off ch=3 n=c8 v=64
31728 On ch=3 n=a#7 v=75
31728 On ch=3 n=e7 v=75
31751 Off ch=3 n=a#7 v=64
31751 Off ch=3 n=e7 v=64
31752 On ch=3 n=c8 v=75
31775 Off ch=3 n=c8 v=64
31776 On ch=3 n=a#7 v=75
31776 On ch=3 n=e7 v=75
31799 Off ch=3 n=a#7 v=64
31799 Off ch=3 n=e7 v=64
31800 On ch=3 n=c8 v=75
31823 Off ch=3 n=c8 v=64
31824 On ch=3 n=a#7 v=75
31824 On ch=3 n=e7 v=75
31847 Off ch=3 n=a#7 v=64
31847 Off ch=3 n=e7 v=64
31848 On ch=3 n=c8 v=75
31871 Off ch=3 n=c8 v=64
31920 On ch=3 n=e7 v=75
31944 On ch=3 n=a#7 v=75
32063 Off ch=3 n=e7 v=64
32063 Off ch=3 n=a#7 v=64
32064 Tempo 1500000
32448 TimeSig 1/4 96 8
32544 TimeSig 2/4 96 8
32544 Tempo 500000
34272 Tempo 500000
34329 Tempo 495867
34386 Tempo 491803
34443 Tempo 487804
34500 Tempo 483870
34557 Tempo 480000
34614 Tempo 476190
34671 Tempo 472440
34728 Tempo 468750
34785 Tempo 465116
34842 Tempo 461538
34899 Tempo 458015
34956 Tempo 454545
35013 Tempo 451127
35070 Tempo 447761
35127 Tempo 444444
35184 Tempo 441176
35241 Tempo 437956
35298 Tempo 434782
35355 Tempo 431654
35412 Tempo 428571
35469 Tempo 425531
35526 Tempo 422535
35583 Tempo 419580
35640 Tempo 416666
35697 Tempo 413793
35754 Tempo 410958
35811 Tempo 408163
35868 Tempo 405405
35925 Tempo 402684
35982 Tempo 400000
36000 On ch=3 n=e6 v=75
36000 On ch=3 n=b6 v=75
36000 On ch=3 n=e7 v=75
36095 Off ch=3 n=e6 v=64
36095 Off ch=3 n=b6 v=64
36095 Off ch=3 n=e7 v=64
36096 On ch=3 n=f7 v=75
36096 On ch=3 n=f6 v=75
36167 Off ch=3 n=f7 v=64
36167 Off ch=3 n=f6 v=64
36168 On ch=3 n=d#6 v=75
36168 On ch=3 n=d#7 v=75
36191 Off ch=3 n=d#6 v=64
36191 Off ch=3 n=d#7 v=64
36192 On ch=3 n=e7 v=75
36192 On ch=3 n=e6 v=75
36263 Off ch=3 n=e7 v=64
36263 Off ch=3 n=e6 v=64
36264 On ch=3 n=g#7 v=75
36264 On ch=3 n=g#6 v=75
36287 Off ch=3 n=g#7 v=64
36287 Off ch=3 n=g#6 v=64
36288 On ch=3 n=f#7 v=75
36288 On ch=3 n=f#6 v=75
36335 Off ch=3 n=f#7 v=64
36335 Off ch=3 n=f#6 v=64
36336 On ch=3 n=d#6 v=75
36336 On ch=3 n=d#7 v=75
36383 Off ch=3 n=d#6 v=64
36383 Off ch=3 n=d#7 v=64
36384 On ch=3 n=e6 v=75
36384 On ch=3 n=b6 v=75
36384 On ch=3 n=e7 v=75
36479 Off ch=3 n=e6 v=64
36479 Off ch=3 n=b6 v=64
36479 Off ch=3 n=e7 v=64
36480 On ch=3 n=f7 v=75
36480 On ch=3 n=f6 v=75
36551 Off ch=3 n=f7 v=64
36551 Off ch=3 n=f6 v=64
36552 On ch=3 n=d#6 v=75
36552 On ch=3 n=d#7 v=75
36575 Off ch=3 n=d#6 v=64
36575 Off ch=3 n=d#7 v=64
36576 On ch=3 n=e7 v=75
36576 On ch=3 n=e6 v=75
36647 Off ch=3 n=e7 v=64
36647 Off ch=3 n=e6 v=64
36648 On ch=3 n=g#7 v=75
36648 On ch=3 n=g#6 v=75
36671 Off ch=3 n=g#7 v=64
36671 Off ch=3 n=g#6 v=64
36672 On ch=3 n=f#7 v=75
36672 On ch=3 n=f#6 v=75
36719 Off ch=3 n=f#7 v=64
36719 Off ch=3 n=f#6 v=64
36720 On ch=3 n=d#6 v=75
36720 On ch=3 n=d#7 v=75
36767 Off ch=3 n=d#6 v=64
36767 Off ch=3 n=d#7 v=64
36768 On ch=3 n=e6 v=75
36768 On ch=3 n=e7 v=75
36791 Off ch=3 n=e6 v=64
36791 Off ch=3 n=e7 v=64
36816 On ch=3 n=g#6 v=75
36816 On ch=3 n=g#7 v=75
36839 Off ch=3 n=g#6 v=64
36839 Off ch=3 n=g#7 v=64
36864 On ch=3 n=f#6 v=75
36864 On ch=3 n=f#7 v=75
36887 Off ch=3 n=f#6 v=64
36887 Off ch=3 n=f#7 v=64
36912 On ch=3 n=d#6 v=75
36912 On ch=3 n=d#7 v=75
36935 Off ch=3 n=d#6 v=64
36935 Off ch=3 n=d#7 v=64
36960 On ch=3 n=e6 v=75
36960 On ch=3 n=e7 v=75
36983 Off ch=3 n=e6 v=64
36983 Off ch=3 n=e7 v=64
37008 On ch=3 n=g#6 v=75
37008 On ch=3 n=g#7 v=75
37031 Off ch=3 n=g#6 v=64
37031 Off ch=3 n=g#7 v=64
37056 On ch=3 n=f#6 v=75
37056 On ch=3 n=f#7 v=75
37079 Off ch=3 n=f#6 v=64
37079 Off ch=3 n=f#7 v=64
37104 On ch=3 n=d#6 v=75
37104 On ch=3 n=d#7 v=75
37127 Off ch=3 n=d#6 v=64
37127 Off ch=3 n=d#7 v=64
37152 On ch=3 n=e7 v=75
37152 On ch=3 n=e6 v=75
37175 Off ch=3 n=e7 v=64
37175 Off ch=3 n=e6 v=64
37224 On ch=3 n=a#7 v=75
37224 On ch=3 n=a#6 v=75
37247 Off ch=3 n=a#7 v=64
37247 Off ch=3 n=a#6 v=64
37248 On ch=3 n=b7 v=75
37248 On ch=3 n=b6 v=75
37271 Off ch=3 n=b7 v=64
37271 Off ch=3 n=b6 v=64
37320 On ch=3 n=d#7 v=75
37320 On ch=3 n=d#6 v=75
37343 Off ch=3 n=d#7 v=64
37343 Off ch=3 n=d#6 v=64
37344 On ch=3 n=e7 v=75
37344 On ch=3 n=e6 v=75
37367 Off ch=3 n=e7 v=64
37367 Off ch=3 n=e6 v=64
37416 On ch=3 n=a#7 v=75
37416 On ch=3 n=a#6 v=75
37439 Off ch=3 n=a#7 v=64
37439 Off ch=3 n=a#6 v=64
37440 On ch=3 n=b7 v=75
37440 On ch=3 n=b6 v=75
37463 Off ch=3 n=b7 v=64
37463 Off ch=3 n=b6 v=64
37512 On ch=3 n=d#7 v=75
37512 On ch=3 n=d#6 v=75
37535 Off ch=3 n=d#7 v=64
37535 Off ch=3 n=d#6 v=64
37536 On ch=3 n=e7 v=75
37536 On ch=3 n=e6 v=75
37559 Off ch=3 n=e7 v=64
37559 Off ch=3 n=e6 v=64
37608 On ch=3 n=a#7 v=75
37608 On ch=3 n=a#6 v=75
37631 Off ch=3 n=a#7 v=64
37631 Off ch=3 n=a#6 v=64
37632 On ch=3 n=b7 v=75
37632 On ch=3 n=b6 v=75
37655 Off ch=3 n=b7 v=64
37655 Off ch=3 n=b6 v=64
37704 On ch=3 n=d#7 v=75
37704 On ch=3 n=d#6 v=75
37727 Off ch=3 n=d#7 v=64
37727 Off ch=3 n=d#6 v=64
37728 On ch=3 n=e7 v=75
37728 On ch=3 n=e6 v=75
37751 Off ch=3 n=e7 v=64
37751 Off ch=3 n=e6 v=64
37800 On ch=3 n=a#7 v=75
37800 On ch=3 n=a#6 v=75
37823 Off ch=3 n=a#7 v=64
37823 Off ch=3 n=a#6 v=64
37824 On ch=3 n=b7 v=75
37824 On ch=3 n=b6 v=75
37847 Off ch=3 n=b7 v=64
37847 Off ch=3 n=b6 v=64
37920 On ch=3 n=c#6 v=75
37920 On ch=3 n=c#7 v=75
37943 Off ch=3 n=c#6 v=64
37943 Off ch=3 n=c#7 v=64
37968 On ch=3 n=e6 v=75
37968 On ch=3 n=e7 v=75
37991 Off ch=3 n=e6 v=64
37991 Off ch=3 n=e7 v=64
38016 On ch=3 n=f#7 v=75
38016 On ch=3 n=f#6 v=75
38039 Off ch=3 n=f#7 v=64
38039 Off ch=3 n=f#6 v=64
38064 On ch=3 n=g#6 v=75
38064 On ch=3 n=g#7 v=75
38087 Off ch=3 n=g#6 v=64
38087 Off ch=3 n=g#7 v=64
38112 On ch=3 n=a7 v=75
38112 On ch=3 n=a6 v=75
38135 Off ch=3 n=a7 v=64
38135 Off ch=3 n=a6 v=64
38160 On ch=3 n=a#7 v=75
38160 On ch=3 n=a#6 v=75
38160 On ch=3 n=a#7 v=75
38160 On ch=3 n=a#6 v=75
38160 On ch=3 n=a#7 v=75
38160 On ch=3 n=a#6 v=75
38255 Off ch=3 n=a#7 v=64
38255 Off ch=3 n=a#6 v=64
38255 Off ch=3 n=a#7 v=64
38255 Off ch=3 n=a#6 v=64
38255 Off ch=3 n=a#7 v=64
38255 Off ch=3 n=a#6 v=64
38256 On ch=3 n=b7 v=75
38256 On ch=3 n=b6 v=75
38303 Off ch=3 n=b7 v=64
38303 Off ch=3 n=b6 v=64
38304 On ch=3 n=c#8 v=75
38304 On ch=3 n=c#7 v=75
38327 Off ch=3 n=c#8 v=64
38327 Off ch=3 n=c#7 v=64
38352 On ch=3 n=e6 v=75
38352 On ch=3 n=e7 v=75
38375 Off ch=3 n=e6 v=64
38375 Off ch=3 n=e7 v=64
38400 On ch=3 n=f#7 v=75
38400 On ch=3 n=f#6 v=75
38423 Off ch=3 n=f#7 v=64
38423 Off ch=3 n=f#6 v=64
38448 On ch=3 n=g#6 v=75
38448 On ch=3 n=g#7 v=75
38471 Off ch=3 n=g#6 v=64
38471 Off ch=3 n=g#7 v=64
38496 On ch=3 n=a7 v=75
38496 On ch=3 n=a6 v=75
38519 Off ch=3 n=a7 v=64
38519 Off ch=3 n=a6 v=64
38544 On ch=3 n=a#7 v=75
38544 On ch=3 n=a#6 v=75
38544 On ch=3 n=a#7 v=75
38544 On ch=3 n=a#6 v=75
38639 Off ch=3 n=a#7 v=64
38639 Off ch=3 n=a#6 v=64
38639 Off ch=3 n=a#7 v=64
38639 Off ch=3 n=a#6 v=64
38640 On ch=3 n=b7 v=75
38640 On ch=3 n=b6 v=75
38687 Off ch=3 n=b7 v=64
38687 Off ch=3 n=b6 v=64
38688 On ch=3 n=c#8 v=75
38688 On ch=3 n=c#7 v=75
38711 Off ch=3 n=c#8 v=64
38711 Off ch=3 n=c#7 v=64
38736 On ch=3 n=e7 v=75
38736 On ch=3 n=e6 v=75
38759 Off ch=3 n=e7 v=64
38759 Off ch=3 n=e6 v=64
38784 On ch=3 n=f#7 v=75
38784 On ch=3 n=f#6 v=75
38807 Off ch=3 n=f#7 v=64
38807 Off ch=3 n=f#6 v=64
38832 On ch=3 n=g7 v=75
38832 On ch=3 n=g6 v=75
38855 Off ch=3 n=g7 v=64
38855 Off ch=3 n=g6 v=64
38880 On ch=3 n=f#6 v=75
38880 On ch=3 n=f#7 v=75
38903 Off ch=3 n=f#6 v=64
38903 Off ch=3 n=f#7 v=64
38928 On ch=3 n=g#7 v=75
38928 On ch=3 n=g#6 v=75
38951 Off ch=3 n=g#7 v=64
38951 Off ch=3 n=g#6 v=64
38976 On ch=3 n=e6 v=75
38976 On ch=3 n=e7 v=75
38999 Off ch=3 n=e6 v=64
38999 Off ch=3 n=e7 v=64
39024 On ch=3 n=g#7 v=75
39024 On ch=3 n=g#6 v=75
39047 Off ch=3 n=g#7 v=64
39047 Off ch=3 n=g#6 v=64
39072 On ch=3 n=c#8 v=75
39072 On ch=3 n=c#7 v=75
39095 Off ch=3 n=c#8 v=64
39095 Off ch=3 n=c#7 v=64
39120 On ch=3 n=e7 v=75
39120 On ch=3 n=e6 v=75
39143 Off ch=3 n=e7 v=64
39143 Off ch=3 n=e6 v=64
39168 On ch=3 n=f#7 v=75
39168 On ch=3 n=f#6 v=75
39191 Off ch=3 n=f#7 v=64
39191 Off ch=3 n=f#6 v=64
39216 On ch=3 n=g7 v=75
39216 On ch=3 n=g6 v=75
39239 Off ch=3 n=g7 v=64
39239 Off ch=3 n=g6 v=64
39264 On ch=3 n=f#6 v=75
39264 On ch=3 n=f#7 v=75
39287 Off ch=3 n=f#6 v=64
39287 Off ch=3 n=f#7 v=64
39312 On ch=3 n=g#7 v=75
39312 On ch=3 n=g#6 v=75
39335 Off ch=3 n=g#7 v=64
39335 Off ch=3 n=g#6 v=64
39360 On ch=3 n=e6 v=75
39360 On ch=3 n=e7 v=75
39383 Off ch=3 n=e6 v=64
39383 Off ch=3 n=e7 v=64
39408 On ch=3 n=g#7 v=75
39408 On ch=3 n=g#6 v=75
39431 Off ch=3 n=g#7 v=64
39431 Off ch=3 n=g#6 v=64
39456 On ch=3 n=c#8 v=75
39456 On ch=3 n=c#7 v=75
39503 Off ch=3 n=c#8 v=64
39503 Off ch=3 n=c#7 v=64
39552 On ch=3 n=c#7 v=75
39552 On ch=3 n=c#6 v=75
39575 Off ch=3 n=c#7 v=64
39575 Off ch=3 n=c#6 v=64
39576 On ch=3 n=b6 v=75
39599 Off ch=3 n=b6 v=64
39600 On ch=3 n=a6 v=75
39623 Off ch=3 n=a6 v=64
39624 On ch=3 n=b6 v=75
39647 Off ch=3 n=b6 v=64
39648 On ch=3 n=c#7 v=75
39648 On ch=3 n=c#6 v=75
39671 Off ch=3 n=c#7 v=64
39671 Off ch=3 n=c#6 v=64
39672 On ch=3 n=b6 v=75
39695 Off ch=3 n=b6 v=64
39696 On ch=3 n=a6 v=75
39719 Off ch=3 n=a6 v=64
39720 On ch=3 n=b6 v=75
39743 Off ch=3 n=b6 v=64
39744 On ch=3 n=c#7 v=75
39744 On ch=3 n=c#6 v=75
39767 Off ch=3 n=c#7 v=64
39767 Off ch=3 n=c#6 v=64
39768 On ch=3 n=b6 v=75
39791 Off ch=3 n=b6 v=64
39792 On ch=3 n=a6 v=75
39815 Off ch=3 n=a6 v=64
39816 On ch=3 n=c#7 v=75
39839 Off ch=3 n=c#7 v=64
39840 On ch=3 n=f#7 v=75
39840 On ch=3 n=f#6 v=75
39863 Off ch=3 n=f#7 v=64
39863 Off ch=3 n=f#6 v=64
39864 On ch=3 n=e7 v=75
39887 Off ch=3 n=e7 v=64
39888 On ch=3 n=d7 v=75
39911 Off ch=3 n=d7 v=64
39912 On ch=3 n=e7 v=75
39935 Off ch=3 n=e7 v=64
39936 On ch=3 n=f#7 v=75
39936 On ch=3 n=f#6 v=75
39959 Off ch=3 n=f#7 v=64
39959 Off ch=3 n=f#6 v=64
39960 On ch=3 n=e7 v=75
39983 Off ch=3 n=e7 v=64
39984 On ch=3 n=d7 v=75
40007 Off ch=3 n=d7 v=64
40008 On ch=3 n=e7 v=75
40031 Off ch=3 n=e7 v=64
40032 On ch=3 n=f#7 v=75
40032 On ch=3 n=f#6 v=75
40055 Off ch=3 n=f#7 v=64
40055 Off ch=3 n=f#6 v=64
40056 On ch=3 n=e7 v=75
40079 Off ch=3 n=e7 v=64
40080 On ch=3 n=d7 v=75
40103 Off ch=3 n=d7 v=64
40104 On ch=3 n=e7 v=75
40127 Off ch=3 n=e7 v=64
40128 On ch=3 n=f#7 v=75
40128 On ch=3 n=f#6 v=75
40151 Off ch=3 n=f#7 v=64
40151 Off ch=3 n=f#6 v=64
40152 On ch=3 n=e7 v=75
40175 Off ch=3 n=e7 v=64
40176 On ch=3 n=d7 v=75
40199 Off ch=3 n=d7 v=64
40200 On ch=3 n=c#7 v=75
40223 Off ch=3 n=c#7 v=64
40224 On ch=3 n=c#7 v=75
40224 On ch=3 n=c#6 v=75
40247 Off ch=3 n=c#7 v=64
40247 Off ch=3 n=c#6 v=64
40248 On ch=3 n=b6 v=75
40271 Off ch=3 n=b6 v=64
40272 On ch=3 n=a6 v=75
40295 Off ch=3 n=a6 v=64
40296 On ch=3 n=b6 v=75
40319 Off ch=3 n=b6 v=64
40320 On ch=3 n=c#7 v=75
40320 On ch=3 n=c#6 v=75
40343 Off ch=3 n=c#7 v=64
40343 Off ch=3 n=c#6 v=64
40344 On ch=3 n=b6 v=75
40367 Off ch=3 n=b6 v=64
40368 On ch=3 n=a6 v=75
40391 Off ch=3 n=a6 v=64
40392 On ch=3 n=b6 v=75
40415 Off ch=3 n=b6 v=64
40416 On ch=3 n=c#7 v=75
40416 On ch=3 n=c#6 v=75
40439 Off ch=3 n=c#7 v=64
40439 Off ch=3 n=c#6 v=64
40440 On ch=3 n=b6 v=75
40463 Off ch=3 n=b6 v=64
40464 On ch=3 n=a6 v=75
40487 Off ch=3 n=a6 v=64
40488 On ch=3 n=b6 v=75
40511 Off ch=3 n=b6 v=64
40512 On ch=3 n=c#7 v=75
40512 On ch=3 n=c#6 v=75
40535 Off ch=3 n=c#7 v=64
40535 Off ch=3 n=c#6 v=64
40536 On ch=3 n=b6 v=75
40559 Off ch=3 n=b6 v=64
40560 On ch=3 n=a6 v=75
40583 Off ch=3 n=a6 v=64
40584 On ch=3 n=c#7 v=75
40607 Off ch=3 n=c#7 v=64
40608 On ch=3 n=f#7 v=75
40608 On ch=3 n=f#6 v=75
40631 Off ch=3 n=f#7 v=64
40631 Off ch=3 n=f#6 v=64
40632 On ch=3 n=e7 v=75
40655 Off ch=3 n=e7 v=64
40656 On ch=3 n=d7 v=75
40679 Off ch=3 n=d7 v=64
40680 On ch=3 n=e7 v=75
40703 Off ch=3 n=e7 v=64
40704 On ch=3 n=f#7 v=75
40704 On ch=3 n=f#6 v=75
40727 Off ch=3 n=f#7 v=64
40727 Off ch=3 n=f#6 v=64
40728 On ch=3 n=e7 v=75
40751 Off ch=3 n=e7 v=64
40752 On ch=3 n=d7 v=75
40775 Off ch=3 n=d7 v=64
40776 On ch=3 n=e7 v=75
40799 Off ch=3 n=e7 v=64
40800 On ch=3 n=f#7 v=75
40800 On ch=3 n=f#6 v=75
40823 Off ch=3 n=f#7 v=64
40823 Off ch=3 n=f#6 v=64
40824 On ch=3 n=e7 v=75
40847 Off ch=3 n=e7 v=64
40848 On ch=3 n=d7 v=75
40871 Off ch=3 n=d7 v=64
40872 On ch=3 n=e7 v=75
40895 Off ch=3 n=e7 v=64
40896 On ch=3 n=f#7 v=75
40896 On ch=3 n=f#6 v=75
40919 Off ch=3 n=f#7 v=64
40919 Off ch=3 n=f#6 v=64
40920 On ch=3 n=e7 v=75
40943 Off ch=3 n=e7 v=64
40944 On ch=3 n=d7 v=75
40967 Off ch=3 n=d7 v=64
40968 On ch=3 n=c#7 v=75
40991 Off ch=3 n=c#7 v=64
40992 On ch=3 n=b6 v=75
40992 On ch=3 n=f#6 v=75
40992 On ch=3 n=f#7 v=75
41015 Off ch=3 n=b6 v=64
41015 Off ch=3 n=f#6 v=64
41015 Off ch=3 n=f#7 v=64
41016 On ch=3 n=d#7 v=75
41039 Off ch=3 n=d#7 v=64
41040 On ch=3 n=c#7 v=75
41063 Off ch=3 n=c#7 v=64
41064 On ch=3 n=d#7 v=75
41087 Off ch=3 n=d#7 v=64
41088 On ch=3 n=b6 v=75
41088 On ch=3 n=f#6 v=75
41088 On ch=3 n=f#7 v=75
41111 Off ch=3 n=b6 v=64
41111 Off ch=3 n=f#6 v=64
41111 Off ch=3 n=f#7 v=64
41112 On ch=3 n=d#7 v=75
41135 Off ch=3 n=d#7 v=64
41136 On ch=3 n=c#7 v=75
41159 Off ch=3 n=c#7 v=64
41160 On ch=3 n=d#7 v=75
41183 Off ch=3 n=d#7 v=64
41184 On ch=3 n=b6 v=75
41184 On ch=3 n=f#6 v=75
41184 On ch=3 n=f#7 v=75
41207 Off ch=3 n=b6 v=64
41207 Off ch=3 n=f#6 v=64
41207 Off ch=3 n=f#7 v=64
41208 On ch=3 n=d#7 v=75
41231 Off ch=3 n=d#7 v=64
41232 On ch=3 n=c#7 v=75
41255 Off ch=3 n=c#7 v=64
41256 On ch=3 n=d#7 v=75
41279 Off ch=3 n=d#7 v=64
41280 On ch=3 n=b6 v=75
41280 On ch=3 n=f#6 v=75
41280 On ch=3 n=f#7 v=75
41303 Off ch=3 n=b6 v=64
41303 Off ch=3 n=f#6 v=64
41303 Off ch=3 n=f#7 v=64
41304 On ch=3 n=d#7 v=75
41327 Off ch=3 n=d#7 v=64
41328 On ch=3 n=c#7 v=75
41351 Off ch=3 n=c#7 v=64
41352 On ch=3 n=d#7 v=75
41375 Off ch=3 n=d#7 v=64
41376 On ch=3 n=b6 v=75
41376 On ch=3 n=f#6 v=75
41376 On ch=3 n=f#7 v=75
41399 Off ch=3 n=b6 v=64
41399 Off ch=3 n=f#6 v=64
41399 Off ch=3 n=f#7 v=64
41400 On ch=3 n=d#7 v=75
41423 Off ch=3 n=d#7 v=64
41424 On ch=3 n=c#7 v=75
41447 Off ch=3 n=c#7 v=64
41448 On ch=3 n=b6 v=75
41471 Off ch=3 n=b6 v=64
41664 On ch=3 n=f#6 v=75
41687 Off ch=3 n=f#6 v=64
41688 On ch=3 n=b6 v=75
41711 Off ch=3 n=b6 v=64
41712 On ch=3 n=c#7 v=75
41735 Off ch=3 n=c#7 v=64
41736 On ch=3 n=d#7 v=75
41759 Off ch=3 n=d#7 v=64
41760 On ch=3 n=b6 v=75
41760 On ch=3 n=f#6 v=75
41760 On ch=3 n=f#7 v=75
41783 Off ch=3 n=b6 v=64
41783 Off ch=3 n=f#6 v=64
41783 Off ch=3 n=f#7 v=64
41784 On ch=3 n=d#7 v=75
41807 Off ch=3 n=d#7 v=64
41808 On ch=3 n=c#7 v=75
41831 Off ch=3 n=c#7 v=64
41832 On ch=3 n=d#7 v=75
41855 Off ch=3 n=d#7 v=64
41856 On ch=3 n=b6 v=75
41856 On ch=3 n=f#6 v=75
41856 On ch=3 n=f#7 v=75
41879 Off ch=3 n=b6 v=64
41879 Off ch=3 n=f#6 v=64
41879 Off ch=3 n=f#7 v=64
41880 On ch=3 n=d#7 v=75
41903 Off ch=3 n=d#7 v=64
41904 On ch=3 n=c#7 v=75
41927 Off ch=3 n=c#7 v=64
41928 On ch=3 n=d#7 v=75
41951 Off ch=3 n=d#7 v=64
41952 On ch=3 n=b6 v=75
41952 On ch=3 n=f#6 v=75
41952 On ch=3 n=f#7 v=75
41975 Off ch=3 n=b6 v=64
41975 Off ch=3 n=f#6 v=64
41975 Off ch=3 n=f#7 v=64
41976 On ch=3 n=d#7 v=75
41999 Off ch=3 n=d#7 v=64
42000 On ch=3 n=c#7 v=75
42023 Off ch=3 n=c#7 v=64
42024 On ch=3 n=d#7 v=75
42047 Off ch=3 n=d#7 v=64
42048 On ch=3 n=b6 v=75
42048 On ch=3 n=f#6 v=75
42048 On ch=3 n=f#7 v=75
42071 Off ch=3 n=b6 v=64
42071 Off ch=3 n=f#6 v=64
42071 Off ch=3 n=f#7 v=64
42072 On ch=3 n=d#7 v=75
42095 Off ch=3 n=d#7 v=64
42096 On ch=3 n=c#7 v=75
42119 Off ch=3 n=c#7 v=64
42120 On ch=3 n=d#7 v=75
42143 Off ch=3 n=d#7 v=64
42144 On ch=3 n=b6 v=75
42144 On ch=3 n=f#6 v=75
42144 On ch=3 n=f#7 v=75
42167 Off ch=3 n=b6 v=64
42167 Off ch=3 n=f#6 v=64
42167 Off ch=3 n=f#7 v=64
42168 On ch=3 n=d#7 v=75
42191 Off ch=3 n=d#7 v=64
42192 On ch=3 n=c#7 v=75
42215 Off ch=3 n=c#7 v=64
42216 On ch=3 n=b6 v=75
42239 Off ch=3 n=b6 v=64
42432 On ch=3 n=f#6 v=75
42455 Off ch=3 n=f#6 v=64
42456 On ch=3 n=b6 v=75
42479 Off ch=3 n=b6 v=64
42480 On ch=3 n=c#7 v=75
42503 Off ch=3 n=c#7 v=64
42504 On ch=3 n=d#7 v=75
42527 Off ch=3 n=d#7 v=64
42528 On ch=3 n=g#7 v=75
42528 On ch=3 n=c#7 v=75
42528 On ch=3 n=g#6 v=75
42551 Off ch=3 n=g#7 v=64
42551 Off ch=3 n=c#7 v=64
42551 Off ch=3 n=g#6 v=64
42552 On ch=3 n=f7 v=75
42575 Off ch=3 n=f7 v=64
42576 On ch=3 n=d#7 v=75
42599 Off ch=3 n=d#7 v=64
42600 On ch=3 n=f7 v=75
42623 Off ch=3 n=f7 v=64
42624 On ch=3 n=g#7 v=75
42624 On ch=3 n=c#7 v=75
42624 On ch=3 n=g#6 v=75
42647 Off ch=3 n=g#7 v=64
42647 Off ch=3 n=c#7 v=64
42647 Off ch=3 n=g#6 v=64
42648 On ch=3 n=f7 v=75
42671 Off ch=3 n=f7 v=64
42672 On ch=3 n=d#7 v=75
42695 Off ch=3 n=d#7 v=64
42696 On ch=3 n=f7 v=75
42719 Off ch=3 n=f7 v=64
42720 On ch=3 n=g#7 v=75
42720 On ch=3 n=c#7 v=75
42720 On ch=3 n=g#6 v=75
42743 Off ch=3 n=g#7 v=64
42743 Off ch=3 n=c#7 v=64
42743 Off ch=3 n=g#6 v=64
42744 On ch=3 n=f7 v=75
42767 Off ch=3 n=f7 v=64
42768 On ch=3 n=d#7 v=75
42791 Off ch=3 n=d#7 v=64
42792 On ch=3 n=f7 v=75
42815 Off ch=3 n=f7 v=64
42816 On ch=3 n=g#7 v=75
42816 On ch=3 n=c#7 v=75
42816 On ch=3 n=g#6 v=75
42839 Off ch=3 n=g#7 v=64
42839 Off ch=3 n=c#7 v=64
42839 Off ch=3 n=g#6 v=64
42840 On ch=3 n=f7 v=75
42863 Off ch=3 n=f7 v=64
42864 On ch=3 n=d#7 v=75
42887 Off ch=3 n=d#7 v=64
42888 On ch=3 n=f7 v=75
42911 Off ch=3 n=f7 v=64
42912 On ch=3 n=g#7 v=75
42912 On ch=3 n=c#7 v=75
42912 On ch=3 n=g#6 v=75
42935 Off ch=3 n=g#7 v=64
42935 Off ch=3 n=c#7 v=64
42935 Off ch=3 n=g#6 v=64
42936 On ch=3 n=f7 v=75
42959 Off ch=3 n=f7 v=64
42960 On ch=3 n=d#7 v=75
42983 Off ch=3 n=d#7 v=64
42984 On ch=3 n=c#7 v=75
43007 Off ch=3 n=c#7 v=64
43200 On ch=3 n=g#6 v=75
43223 Off ch=3 n=g#6 v=64
43224 On ch=3 n=c#7 v=75
43247 Off ch=3 n=c#7 v=64
43248 On ch=3 n=d#7 v=75
43271 Off ch=3 n=d#7 v=64
43272 On ch=3 n=f7 v=75
43295 Off ch=3 n=f7 v=64
43296 On ch=3 n=g#7 v=75
43296 On ch=3 n=c#7 v=75
43296 On ch=3 n=g#6 v=75
43319 Off ch=3 n=g#7 v=64
43319 Off ch=3 n=c#7 v=64
43319 Off ch=3 n=g#6 v=64
43320 On ch=3 n=f7 v=75
43343 Off ch=3 n=f7 v=64
43344 On ch=3 n=d#7 v=75
43367 Off ch=3 n=d#7 v=64
43368 On ch=3 n=f7 v=75
43391 Off ch=3 n=f7 v=64
43392 On ch=3 n=g#7 v=75
43392 On ch=3 n=c#7 v=75
43392 On ch=3 n=g#6 v=75
43415 Off ch=3 n=g#7 v=64
43415 Off ch=3 n=c#7 v=64
43415 Off ch=3 n=g#6 v=64
43416 On ch=3 n=f7 v=75
43439 Off ch=3 n=f7 v=64
43440 On ch=3 n=d#7 v=75
43463 Off ch=3 n=d#7 v=64
43464 On ch=3 n=f7 v=75
43487 Off ch=3 n=f7 v=64
43488 On ch=3 n=g#7 v=75
43488 On ch=3 n=c#7 v=75
43488 On ch=3 n=g#6 v=75
43511 Off ch=3 n=g#7 v=64
43511 Off ch=3 n=c#7 v=64
43511 Off ch=3 n=g#6 v=64
43512 On ch=3 n=f7 v=75
43535 Off ch=3 n=f7 v=64
43536 On ch=3 n=d#7 v=75
43559 Off ch=3 n=d#7 v=64
43560 On ch=3 n=f7 v=75
43583 Off ch=3 n=f7 v=64
43584 On ch=3 n=g#7 v=75
43584 On ch=3 n=c#7 v=75
43584 On ch=3 n=g#6 v=75
43607 Off ch=3 n=g#7 v=64
43607 Off ch=3 n=c#7 v=64
43607 Off ch=3 n=g#6 v=64
43608 On ch=3 n=f7 v=75
43631 Off ch=3 n=f7 v=64
43632 On ch=3 n=d#7 v=75
43655 Off ch=3 n=d#7 v=64
43656 On ch=3 n=f7 v=75
43679 Off ch=3 n=f7 v=64
43680 On ch=3 n=g#7 v=75
43680 On ch=3 n=c#7 v=75
43680 On ch=3 n=g#6 v=75
43703 Off ch=3 n=g#7 v=64
43703 Off ch=3 n=c#7 v=64
43703 Off ch=3 n=g#6 v=64
43704 On ch=3 n=f7 v=75
43727 Off ch=3 n=f7 v=64
43728 On ch=3 n=d#7 v=75
43751 Off ch=3 n=d#7 v=64
43752 On ch=3 n=c#7 v=75
43775 Off ch=3 n=c#7 v=64
43968 On ch=3 n=g#6 v=75
43991 Off ch=3 n=g#6 v=64
43992 On ch=3 n=c#7 v=75
44015 Off ch=3 n=c#7 v=64
44016 On ch=3 n=d#7 v=75
44039 Off ch=3 n=d#7 v=64
44040 On ch=3 n=f7 v=75
44063 Off ch=3 n=f7 v=64
44064 On ch=3 n=a#7 v=75
44064 On ch=3 n=a#6 v=75
44087 Off ch=3 n=a#7 v=64
44087 Off ch=3 n=a#6 v=64
44112 On ch=3 n=a#7 v=75
44112 On ch=3 n=a#6 v=75
44112 On ch=3 n=c#7 v=75
44207 Off ch=3 n=a#7 v=64
44207 Off ch=3 n=a#6 v=64
44207 Off ch=3 n=c#7 v=64
44208 On ch=3 n=g#7 v=75
44208 On ch=3 n=c#7 v=75
44208 On ch=3 n=g#6 v=75
44255 Off ch=3 n=g#7 v=64
44255 Off ch=3 n=c#7 v=64
44255 Off ch=3 n=g#6 v=64
44256 On ch=3 n=f#7 v=75
44256 On ch=3 n=c#7 v=75
44256 On ch=3 n=f#6 v=75
44303 Off ch=3 n=f#7 v=64
44303 Off ch=3 n=c#7 v=64
44303 Off ch=3 n=f#6 v=64
44304 On ch=3 n=f#7 v=75
44304 On ch=3 n=c#7 v=75
44304 On ch=3 n=f#6 v=75
44399 Off ch=3 n=f#7 v=64
44399 Off ch=3 n=c#7 v=64
44399 Off ch=3 n=f#6 v=64
44400 On ch=3 n=f7 v=75
44400 On ch=3 n=f6 v=75
44447 Off ch=3 n=f7 v=64
44447 Off ch=3 n=f6 v=64
44448 On ch=3 n=d#7 v=75
44448 On ch=3 n=b6 v=75
44448 On ch=3 n=d#6 v=75
44495 Off ch=3 n=d#7 v=64
44495 Off ch=3 n=b6 v=64
44495 Off ch=3 n=d#6 v=64
44496 On ch=3 n=d#7 v=75
44496 On ch=3 n=f#6 v=75
44496 On ch=3 n=d#6 v=75
44591 Off ch=3 n=d#7 v=64
44591 Off ch=3 n=f#6 v=64
44591 Off ch=3 n=d#6 v=64
44592 On ch=3 n=c#7 v=75
44592 On ch=3 n=f#6 v=75
44592 On ch=3 n=c#6 v=75
44639 Off ch=3 n=c#7 v=64
44639 Off ch=3 n=f#6 v=64
44639 Off ch=3 n=c#6 v=64
44640 On ch=3 n=d#6 v=75
44640 On ch=3 n=f#6 v=75
44640 On ch=3 n=d#7 v=75
44663 Off ch=3 n=d#6 v=64
44663 Off ch=3 n=f#6 v=64
44663 Off ch=3 n=d#7 v=64
44688 On ch=3 n=f7 v=75
44688 On ch=3 n=f6 v=75
44711 Off ch=3 n=f7 v=64
44711 Off ch=3 n=f6 v=64
44736 On ch=3 n=f#7 v=75
44736 On ch=3 n=f#6 v=75
44759 Off ch=3 n=f#7 v=64
44759 Off ch=3 n=f#6 v=64
44784 On ch=3 n=g#7 v=75
44784 On ch=3 n=g#6 v=75
44807 Off ch=3 n=g#7 v=64
44807 Off ch=3 n=g#6 v=64
44832 On ch=3 n=a#7 v=75
44832 On ch=3 n=a#6 v=75
44855 Off ch=3 n=a#7 v=64
44855 Off ch=3 n=a#6 v=64
44880 On ch=3 n=a#7 v=75
44880 On ch=3 n=a#6 v=75
44880 On ch=3 n=c#7 v=75
44975 Off ch=3 n=a#7 v=64
44975 Off ch=3 n=a#6 v=64
44975 Off ch=3 n=c#7 v=64
44976 On ch=3 n=g#7 v=75
44976 On ch=3 n=c#7 v=75
44976 On ch=3 n=g#6 v=75
45023 Off ch=3 n=g#7 v=64
45023 Off ch=3 n=c#7 v=64
45023 Off ch=3 n=g#6 v=64
45024 On ch=3 n=f#7 v=75
45024 On ch=3 n=c#7 v=75
45024 On ch=3 n=f#6 v=75
45071 Off ch=3 n=f#7 v=64
45071 Off ch=3 n=c#7 v=64
45071 Off ch=3 n=f#6 v=64
45072 On ch=3 n=f#7 v=75
45072 On ch=3 n=c#7 v=75
45072 On ch=3 n=f#6 v=75
45167 Off ch=3 n=f#7 v=64
45167 Off ch=3 n=c#7 v=64
45167 Off ch=3 n=f#6 v=64
45168 On ch=3 n=f7 v=75
45168 On ch=3 n=f6 v=75
45215 Off ch=3 n=f7 v=64
45215 Off ch=3 n=f6 v=64
45216 On ch=3 n=d#7 v=75
45216 On ch=3 n=b6 v=75
45216 On ch=3 n=d#6 v=75
45263 Off ch=3 n=d#7 v=64
45263 Off ch=3 n=b6 v=64
45263 Off ch=3 n=d#6 v=64
45264 On ch=3 n=d#7 v=75
45264 On ch=3 n=f#6 v=75
45264 On ch=3 n=d#6 v=75
45359 Off ch=3 n=d#7 v=64
45359 Off ch=3 n=f#6 v=64
45359 Off ch=3 n=d#6 v=64
45360 On ch=3 n=c#7 v=75
45360 On ch=3 n=f#6 v=75
45360 On ch=3 n=c#6 v=75
45407 Off ch=3 n=c#7 v=64
45407 Off ch=3 n=f#6 v=64
45407 Off ch=3 n=c#6 v=64
45408 On ch=3 n=d#6 v=75
45408 On ch=3 n=f#6 v=75
45408 On ch=3 n=d#7 v=75
45431 Off ch=3 n=d#6 v=64
45431 Off ch=3 n=f#6 v=64
45431 Off ch=3 n=d#7 v=64
45456 On ch=3 n=f7 v=75
45456 On ch=3 n=f6 v=75
45479 Off ch=3 n=f7 v=64
45479 Off ch=3 n=f6 v=64
45504 On ch=3 n=f#7 v=75
45504 On ch=3 n=f#6 v=75
45527 Off ch=3 n=f#7 v=64
45527 Off ch=3 n=f#6 v=64
45552 On ch=3 n=g#7 v=75
45552 On ch=3 n=g#6 v=75
45575 Off ch=3 n=g#7 v=64
45575 Off ch=3 n=g#6 v=64
45600 On ch=3 n=b6 v=75
45600 On ch=3 n=b7 v=75
45623 Off ch=3 n=b6 v=64
45623 Off ch=3 n=b7 v=64
45648 On ch=3 n=b7 v=75
45648 On ch=3 n=d#7 v=75
45648 On ch=3 n=b6 v=75
45743 Off ch=3 n=b7 v=64
45743 Off ch=3 n=d#7 v=64
45743 Off ch=3 n=b6 v=64
45744 On ch=3 n=a#7 v=75
45744 On ch=3 n=d#7 v=75
45744 On ch=3 n=a#6 v=75
45791 Off ch=3 n=a#7 v=64
45791 Off ch=3 n=d#7 v=64
45791 Off ch=3 n=a#6 v=64
45792 On ch=3 n=g#7 v=75
45792 On ch=3 n=d#7 v=75
45792 On ch=3 n=g#6 v=75
45839 Off ch=3 n=g#7 v=64
45839 Off ch=3 n=d#7 v=64
45839 Off ch=3 n=g#6 v=64
45840 On ch=3 n=g#7 v=75
45840 On ch=3 n=d#7 v=75
45840 On ch=3 n=g#6 v=75
45935 Off ch=3 n=g#7 v=64
45935 Off ch=3 n=d#7 v=64
45935 Off ch=3 n=g#6 v=64
45936 On ch=3 n=f#7 v=75
45936 On ch=3 n=f#6 v=75
45983 Off ch=3 n=f#7 v=64
45983 Off ch=3 n=f#6 v=64
45984 On ch=3 n=d#6 v=75
45984 On ch=3 n=d#7 v=75
46031 Off ch=3 n=d#6 v=64
46031 Off ch=3 n=d#7 v=64
46032 On ch=3 n=d#7 v=75
46032 On ch=3 n=f#6 v=75
46032 On ch=3 n=d#6 v=75
46127 Off ch=3 n=d#7 v=64
46127 Off ch=3 n=f#6 v=64
46127 Off ch=3 n=d#6 v=64
46128 On ch=3 n=c#7 v=75
46128 On ch=3 n=c#6 v=75
46128 On ch=3 n=f#6 v=75
46175 Off ch=3 n=c#7 v=64
46175 Off ch=3 n=c#6 v=64
46175 Off ch=3 n=f#6 v=64
46176 On ch=3 n=d#6 v=75
46176 On ch=3 n=f#6 v=75
46176 On ch=3 n=d#7 v=75
46199 Off ch=3 n=d#6 v=64
46199 Off ch=3 n=f#6 v=64
46199 Off ch=3 n=d#7 v=64
46224 On ch=3 n=f#7 v=75
46224 On ch=3 n=f#6 v=75
46247 Off ch=3 n=f#7 v=64
46247 Off ch=3 n=f#6 v=64
46272 On ch=3 n=g#7 v=75
46272 On ch=3 n=g#6 v=75
46295 Off ch=3 n=g#7 v=64
46295 Off ch=3 n=g#6 v=64
46320 On ch=3 n=a#7 v=75
46320 On ch=3 n=a#6 v=75
46343 Off ch=3 n=a#7 v=64
46343 Off ch=3 n=a#6 v=64
46368 On ch=3 n=b6 v=75
46368 On ch=3 n=b7 v=75
46391 Off ch=3 n=b6 v=64
46391 Off ch=3 n=b7 v=64
46416 On ch=3 n=b7 v=75
46416 On ch=3 n=d#7 v=75
46416 On ch=3 n=b6 v=75
46511 Off ch=3 n=b7 v=64
46511 Off ch=3 n=d#7 v=64
46511 Off ch=3 n=b6 v=64
46512 On ch=3 n=a#7 v=75
46512 On ch=3 n=d#7 v=75
46512 On ch=3 n=a#6 v=75
46559 Off ch=3 n=a#7 v=64
46559 Off ch=3 n=d#7 v=64
46559 Off ch=3 n=a#6 v=64
46560 On ch=3 n=g#7 v=75
46560 On ch=3 n=d#7 v=75
46560 On ch=3 n=g#6 v=75
46607 Off ch=3 n=g#7 v=64
46607 Off ch=3 n=d#7 v=64
46607 Off ch=3 n=g#6 v=64
46608 On ch=3 n=g#7 v=75
46608 On ch=3 n=d#7 v=75
46608 On ch=3 n=g#6 v=75
46703 Off ch=3 n=g#7 v=64
46703 Off ch=3 n=d#7 v=64
46703 Off ch=3 n=g#6 v=64
46704 On ch=3 n=f#7 v=75
46704 On ch=3 n=f#6 v=75
46751 Off ch=3 n=f#7 v=64
46751 Off ch=3 n=f#6 v=64
46752 On ch=3 n=d#6 v=75
46752 On ch=3 n=d#7 v=75
46799 Off ch=3 n=d#6 v=64
46799 Off ch=3 n=d#7 v=64
46800 On ch=3 n=d#7 v=75
46800 On ch=3 n=f#6 v=75
46800 On ch=3 n=d#6 v=75
46895 Off ch=3 n=d#7 v=64
46895 Off ch=3 n=f#6 v=64
46895 Off ch=3 n=d#6 v=64
46896 On ch=3 n=c#7 v=75
46896 On ch=3 n=c#6 v=75
46896 On ch=3 n=f#6 v=75
46943 Off ch=3 n=c#7 v=64
46943 Off ch=3 n=c#6 v=64
46943 Off ch=3 n=f#6 v=64
46944 On ch=3 n=d#6 v=75
46944 On ch=3 n=f#6 v=75
46944 On ch=3 n=d#7 v=75
46967 Off ch=3 n=d#6 v=64
46967 Off ch=3 n=f#6 v=64
46967 Off ch=3 n=d#7 v=64
46992 On ch=3 n=f#7 v=75
46992 On ch=3 n=f#6 v=75
47015 Off ch=3 n=f#7 v=64
47015 Off ch=3 n=f#6 v=64
47040 On ch=3 n=g#7 v=75
47040 On ch=3 n=g#6 v=75
47063 Off ch=3 n=g#7 v=64
47063 Off ch=3 n=g#6 v=64
47088 On ch=3 n=a#7 v=75
47088 On ch=3 n=a#6 v=75
47111 Off ch=3 n=a#7 v=64
47111 Off ch=3 n=a#6 v=64
47136 On ch=3 n=b7 v=75
47136 On ch=3 n=b6 v=75
47231 Off ch=3 n=b7 v=64
47231 Off ch=3 n=b6 v=64
47232 On ch=3 n=c8 v=75
47232 On ch=3 n=c7 v=75
47303 Off ch=3 n=c8 v=64
47303 Off ch=3 n=c7 v=64
47304 On ch=3 n=a#7 v=75
47304 On ch=3 n=a#6 v=75
47327 Off ch=3 n=a#7 v=64
47327 Off ch=3 n=a#6 v=64
47328 On ch=3 n=b7 v=75
47328 On ch=3 n=b6 v=75
47399 Off ch=3 n=b7 v=64
47399 Off ch=3 n=b6 v=64
47400 On ch=3 n=d#8 v=75
47400 On ch=3 n=d#7 v=75
47423 Off ch=3 n=d#8 v=64
47423 Off ch=3 n=d#7 v=64
47424 On ch=3 n=c#8 v=75
47424 On ch=3 n=c#7 v=75
47447 Off ch=3 n=c#8 v=64
47447 Off ch=3 n=c#7 v=64
47472 On ch=3 n=a#7 v=75
47472 On ch=3 n=a#6 v=75
47495 Off ch=3 n=a#7 v=64
47495 Off ch=3 n=a#6 v=64
47520 On ch=3 n=b7 v=75
47520 On ch=3 n=b6 v=75
47615 Off ch=3 n=b7 v=64
47615 Off ch=3 n=b6 v=64
47616 On ch=3 n=c8 v=75
47616 On ch=3 n=c7 v=75
47687 Off ch=3 n=c8 v=64
47687 Off ch=3 n=c7 v=64
47688 On ch=3 n=a#7 v=75
47688 On ch=3 n=a#6 v=75
47711 Off ch=3 n=a#7 v=64
47711 Off ch=3 n=a#6 v=64
47712 On ch=3 n=b7 v=75
47712 On ch=3 n=b6 v=75
47783 Off ch=3 n=b7 v=64
47783 Off ch=3 n=b6 v=64
47784 On ch=3 n=d#8 v=75
47784 On ch=3 n=d#7 v=75
47807 Off ch=3 n=d#8 v=64
47807 Off ch=3 n=d#7 v=64
47808 On ch=3 n=c#8 v=75
47808 On ch=3 n=c#7 v=75
47831 Off ch=3 n=c#8 v=64
47831 Off ch=3 n=c#7 v=64
47856 On ch=3 n=a#7 v=75
47856 On ch=3 n=a#6 v=75
47879 Off ch=3 n=a#7 v=64
47879 Off ch=3 n=a#6 v=64
47904 On ch=3 n=b6 v=75
47904 On ch=3 n=b7 v=75
47927 Off ch=3 n=b6 v=64
47927 Off ch=3 n=b7 v=64
47952 On ch=3 n=d#8 v=75
47952 On ch=3 n=d#7 v=75
47975 Off ch=3 n=d#8 v=64
47975 Off ch=3 n=d#7 v=64
48000 On ch=3 n=c#8 v=75
48000 On ch=3 n=c#7 v=75
48023 Off ch=3 n=c#8 v=64
48023 Off ch=3 n=c#7 v=64
48048 On ch=3 n=a#7 v=75
48048 On ch=3 n=a#6 v=75
48071 Off ch=3 n=a#7 v=64
48071 Off ch=3 n=a#6 v=64
48096 On ch=3 n=b6 v=75
48096 On ch=3 n=b7 v=75
48119 Off ch=3 n=b6 v=64
48119 Off ch=3 n=b7 v=64
48144 On ch=3 n=d#8 v=75
48144 On ch=3 n=d#7 v=75
48167 Off ch=3 n=d#8 v=64
48167 Off ch=3 n=d#7 v=64
48192 On ch=3 n=c#8 v=75
48192 On ch=3 n=c#7 v=75
48215 Off ch=3 n=c#8 v=64
48215 Off ch=3 n=c#7 v=64
48240 On ch=3 n=a#7 v=75
48240 On ch=3 n=a#6 v=75
48263 Off ch=3 n=a#7 v=64
48263 Off ch=3 n=a#6 v=64
48288 On ch=3 n=b7 v=75
48288 On ch=3 n=b6 v=75
48311 Off ch=3 n=b7 v=64
48311 Off ch=3 n=b6 v=64
48360 On ch=3 n=f8 v=75
48360 On ch=3 n=f7 v=75
48383 Off ch=3 n=f8 v=64
48383 Off ch=3 n=f7 v=64
48384 On ch=3 n=f#7 v=75
48384 On ch=3 n=f#8 v=75
48407 Off ch=3 n=f#7 v=64
48407 Off ch=3 n=f#8 v=64
48456 On ch=3 n=a#7 v=75
48456 On ch=3 n=a#6 v=75
48479 Off ch=3 n=a#7 v=64
48479 Off ch=3 n=a#6 v=64
48480 On ch=3 n=b7 v=75
48480 On ch=3 n=b6 v=75
48503 Off ch=3 n=b7 v=64
48503 Off ch=3 n=b6 v=64
48552 On ch=3 n=f8 v=75
48552 On ch=3 n=f7 v=75
48575 Off ch=3 n=f8 v=64
48575 Off ch=3 n=f7 v=64
48576 On ch=3 n=f#7 v=75
48576 On ch=3 n=f#8 v=75
48599 Off ch=3 n=f#7 v=64
48599 Off ch=3 n=f#8 v=64
48648 On ch=3 n=a#7 v=75
48648 On ch=3 n=a#6 v=75
48671 Off ch=3 n=a#7 v=64
48671 Off ch=3 n=a#6 v=64
48672 On ch=3 n=b7 v=75
48672 On ch=3 n=b6 v=75
48695 Off ch=3 n=b7 v=64
48695 Off ch=3 n=b6 v=64
48744 On ch=3 n=f8 v=75
48744 On ch=3 n=f7 v=75
48767 Off ch=3 n=f8 v=64
48767 Off ch=3 n=f7 v=64
48768 On ch=3 n=f#7 v=75
48768 On ch=3 n=f#8 v=75
48791 Off ch=3 n=f#7 v=64
48791 Off ch=3 n=f#8 v=64
48840 On ch=3 n=a#7 v=75
48840 On ch=3 n=a#6 v=75
48863 Off ch=3 n=a#7 v=64
48863 Off ch=3 n=a#6 v=64
48864 On ch=3 n=b7 v=75
48864 On ch=3 n=b6 v=75
48887 Off ch=3 n=b7 v=64
48887 Off ch=3 n=b6 v=64
48936 On ch=3 n=a#7 v=75
48936 On ch=3 n=a#6 v=75
48959 Off ch=3 n=a#7 v=64
48959 Off ch=3 n=a#6 v=64
48960 On ch=3 n=b7 v=75
48960 On ch=3 n=b6 v=75
49007 Off ch=3 n=b7 v=64
49007 Off ch=3 n=b6 v=64
49008 On ch=3 n=d#7 v=75
49008 On ch=3 n=d#6 v=75
49055 Off ch=3 n=d#7 v=64
49055 Off ch=3 n=d#6 v=64
49056 On ch=3 n=e6 v=75
49056 On ch=3 n=b6 v=75
49056 On ch=3 n=e7 v=75
49151 Off ch=3 n=e6 v=64
49151 Off ch=3 n=b6 v=64
49151 Off ch=3 n=e7 v=64
49152 On ch=3 n=f7 v=75
49152 On ch=3 n=f6 v=75
49223 Off ch=3 n=f7 v=64
49223 Off ch=3 n=f6 v=64
49224 On ch=3 n=d#6 v=75
49224 On ch=3 n=d#7 v=75
49247 Off ch=3 n=d#6 v=64
49247 Off ch=3 n=d#7 v=64
49248 On ch=3 n=e7 v=75
49248 On ch=3 n=e6 v=75
49319 Off ch=3 n=e7 v=64
49319 Off ch=3 n=e6 v=64
49320 On ch=3 n=g#7 v=75
49320 On ch=3 n=g#6 v=75
49343 Off ch=3 n=g#7 v=64
49343 Off ch=3 n=g#6 v=64
49344 On ch=3 n=f#7 v=75
49344 On ch=3 n=f#6 v=75
49391 Off ch=3 n=f#7 v=64
49391 Off ch=3 n=f#6 v=64
49392 On ch=3 n=d#6 v=75
49392 On ch=3 n=d#7 v=75
49439 Off ch=3 n=d#6 v=64
49439 Off ch=3 n=d#7 v=64
49440 On ch=3 n=e6 v=75
49440 On ch=3 n=b6 v=75
49440 On ch=3 n=e7 v=75
49535 Off ch=3 n=e6 v=64
49535 Off ch=3 n=b6 v=64
49535 Off ch=3 n=e7 v=64
49536 On ch=3 n=f7 v=75
49536 On ch=3 n=f6 v=75
49607 Off ch=3 n=f7 v=64
49607 Off ch=3 n=f6 v=64
49608 On ch=3 n=d#6 v=75
49608 On ch=3 n=d#7 v=75
49631 Off ch=3 n=d#6 v=64
49631 Off ch=3 n=d#7 v=64
49632 On ch=3 n=e7 v=75
49632 On ch=3 n=e6 v=75
49703 Off ch=3 n=e7 v=64
49703 Off ch=3 n=e6 v=64
49704 On ch=3 n=g#7 v=75
49704 On ch=3 n=g#6 v=75
49727 Off ch=3 n=g#7 v=64
49727 Off ch=3 n=g#6 v=64
49728 On ch=3 n=f#7 v=75
49728 On ch=3 n=f#6 v=75
49775 Off ch=3 n=f#7 v=64
49775 Off ch=3 n=f#6 v=64
49776 On ch=3 n=d#6 v=75
49776 On ch=3 n=d#7 v=75
49823 Off ch=3 n=d#6 v=64
49823 Off ch=3 n=d#7 v=64
49824 On ch=3 n=e6 v=75
49824 On ch=3 n=e7 v=75
49847 Off ch=3 n=e6 v=64
49847 Off ch=3 n=e7 v=64
49872 On ch=3 n=g#6 v=75
49872 On ch=3 n=g#7 v=75
49895 Off ch=3 n=g#6 v=64
49895 Off ch=3 n=g#7 v=64
49920 On ch=3 n=f#6 v=75
49920 On ch=3 n=f#7 v=75
49943 Off ch=3 n=f#6 v=64
49943 Off ch=3 n=f#7 v=64
49968 On ch=3 n=d#6 v=75
49968 On ch=3 n=d#7 v=75
49991 Off ch=3 n=d#6 v=64
49991 Off ch=3 n=d#7 v=64
50016 On ch=3 n=e6 v=75
50016 On ch=3 n=e7 v=75
50039 Off ch=3 n=e6 v=64
50039 Off ch=3 n=e7 v=64
50064 On ch=3 n=g#6 v=75
50064 On ch=3 n=g#7 v=75
50087 Off ch=3 n=g#6 v=64
50087 Off ch=3 n=g#7 v=64
50112 On ch=3 n=f#6 v=75
50112 On ch=3 n=f#7 v=75
50135 Off ch=3 n=f#6 v=64
50135 Off ch=3 n=f#7 v=64
50160 On ch=3 n=d#6 v=75
50160 On ch=3 n=d#7 v=75
50183 Off ch=3 n=d#6 v=64
50183 Off ch=3 n=d#7 v=64
50208 On ch=3 n=e7 v=75
50208 On ch=3 n=e6 v=75
50231 Off ch=3 n=e7 v=64
50231 Off ch=3 n=e6 v=64
50280 On ch=3 n=a#7 v=75
50280 On ch=3 n=a#6 v=75
50303 Off ch=3 n=a#7 v=64
50303 Off ch=3 n=a#6 v=64
50304 On ch=3 n=b7 v=75
50304 On ch=3 n=b6 v=75
50327 Off ch=3 n=b7 v=64
50327 Off ch=3 n=b6 v=64
50376 On ch=3 n=d#7 v=75
50376 On ch=3 n=d#6 v=75
50399 Off ch=3 n=d#7 v=64
50399 Off ch=3 n=d#6 v=64
50400 On ch=3 n=e7 v=75
50400 On ch=3 n=e6 v=75
50423 Off ch=3 n=e7 v=64
50423 Off ch=3 n=e6 v=64
50472 On ch=3 n=a#7 v=75
50472 On ch=3 n=a#6 v=75
50495 Off ch=3 n=a#7 v=64
50495 Off ch=3 n=a#6 v=64
50496 On ch=3 n=b7 v=75
50496 On ch=3 n=b6 v=75
50519 Off ch=3 n=b7 v=64
50519 Off ch=3 n=b6 v=64
50568 On ch=3 n=d#7 v=75
50568 On ch=3 n=d#6 v=75
50591 Off ch=3 n=d#7 v=64
50591 Off ch=3 n=d#6 v=64
50592 On ch=3 n=e7 v=75
50592 On ch=3 n=e6 v=75
50615 Off ch=3 n=e7 v=64
50615 Off ch=3 n=e6 v=64
50664 On ch=3 n=a#7 v=75
50664 On ch=3 n=a#6 v=75
50687 Off ch=3 n=a#7 v=64
50687 Off ch=3 n=a#6 v=64
50688 On ch=3 n=b7 v=75
50688 On ch=3 n=b6 v=75
50711 Off ch=3 n=b7 v=64
50711 Off ch=3 n=b6 v=64
50760 On ch=3 n=d#7 v=75
50760 On ch=3 n=d#6 v=75
50783 Off ch=3 n=d#7 v=64
50783 Off ch=3 n=d#6 v=64
50784 On ch=3 n=e7 v=75
50784 On ch=3 n=e6 v=75
50807 Off ch=3 n=e7 v=64
50807 Off ch=3 n=e6 v=64
50856 On ch=3 n=a#7 v=75
50856 On ch=3 n=a#6 v=75
50879 Off ch=3 n=a#7 v=64
50879 Off ch=3 n=a#6 v=64
50880 On ch=3 n=b7 v=75
50880 On ch=3 n=b6 v=75
50903 Off ch=3 n=b7 v=64
50903 Off ch=3 n=b6 v=64
50976 On ch=3 n=c#6 v=75
50976 On ch=3 n=c#7 v=75
50999 Off ch=3 n=c#6 v=64
50999 Off ch=3 n=c#7 v=64
51024 On ch=3 n=e6 v=75
51024 On ch=3 n=e7 v=75
51047 Off ch=3 n=e6 v=64
51047 Off ch=3 n=e7 v=64
51072 On ch=3 n=f#7 v=75
51072 On ch=3 n=f#6 v=75
51095 Off ch=3 n=f#7 v=64
51095 Off ch=3 n=f#6 v=64
51120 On ch=3 n=g#6 v=75
51120 On ch=3 n=g#7 v=75
51143 Off ch=3 n=g#6 v=64
51143 Off ch=3 n=g#7 v=64
51168 On ch=3 n=a7 v=75
51168 On ch=3 n=a6 v=75
51191 Off ch=3 n=a7 v=64
51191 Off ch=3 n=a6 v=64
51216 On ch=3 n=a#7 v=75
51216 On ch=3 n=a#6 v=75
51216 On ch=3 n=a#7 v=75
51216 On ch=3 n=a#6 v=75
51216 On ch=3 n=a#7 v=75
51216 On ch=3 n=a#6 v=75
51311 Off ch=3 n=a#7 v=64
51311 Off ch=3 n=a#6 v=64
51311 Off ch=3 n=a#7 v=64
51311 Off ch=3 n=a#6 v=64
51311 Off ch=3 n=a#7 v=64
51311 Off ch=3 n=a#6 v=64
51312 On ch=3 n=b7 v=75
51312 On ch=3 n=b6 v=75
51359 Off ch=3 n=b7 v=64
51359 Off ch=3 n=b6 v=64
51360 On ch=3 n=c#8 v=75
51360 On ch=3 n=c#7 v=75
51383 Off ch=3 n=c#8 v=64
51383 Off ch=3 n=c#7 v=64
51408 On ch=3 n=e6 v=75
51408 On ch=3 n=e7 v=75
51431 Off ch=3 n=e6 v=64
51431 Off ch=3 n=e7 v=64
51456 On ch=3 n=f#7 v=75
51456 On ch=3 n=f#6 v=75
51479 Off ch=3 n=f#7 v=64
51479 Off ch=3 n=f#6 v=64
51504 On ch=3 n=g#6 v=75
51504 On ch=3 n=g#7 v=75
51527 Off ch=3 n=g#6 v=64
51527 Off ch=3 n=g#7 v=64
51552 On ch=3 n=a7 v=75
51552 On ch=3 n=a6 v=75
51575 Off ch=3 n=a7 v=64
51575 Off ch=3 n=a6 v=64
51600 On ch=3 n=a#7 v=75
51600 On ch=3 n=a#6 v=75
51600 On ch=3 n=a#7 v=75
51600 On ch=3 n=a#6 v=75
51695 Off ch=3 n=a#7 v=64
51695 Off ch=3 n=a#6 v=64
51695 Off ch=3 n=a#7 v=64
51695 Off ch=3 n=a#6 v=64
51696 On ch=3 n=b7 v=75
51696 On ch=3 n=b6 v=75
51743 Off ch=3 n=b7 v=64
51743 Off ch=3 n=b6 v=64
51744 On ch=3 n=c#8 v=75
51744 On ch=3 n=c#7 v=75
51767 Off ch=3 n=c#8 v=64
51767 Off ch=3 n=c#7 v=64
51792 On ch=3 n=e7 v=75
51792 On ch=3 n=e6 v=75
51815 Off ch=3 n=e7 v=64
51815 Off ch=3 n=e6 v=64
51840 On ch=3 n=f#7 v=75
51840 On ch=3 n=f#6 v=75
51863 Off ch=3 n=f#7 v=64
51863 Off ch=3 n=f#6 v=64
51888 On ch=3 n=g7 v=75
51888 On ch=3 n=g6 v=75
51911 Off ch=3 n=g7 v=64
51911 Off ch=3 n=g6 v=64
51936 On ch=3 n=f#6 v=75
51936 On ch=3 n=f#7 v=75
51959 Off ch=3 n=f#6 v=64
51959 Off ch=3 n=f#7 v=64
51984 On ch=3 n=g#7 v=75
51984 On ch=3 n=g#6 v=75
52007 Off ch=3 n=g#7 v=64
52007 Off ch=3 n=g#6 v=64
52032 On ch=3 n=e6 v=75
52032 On ch=3 n=e7 v=75
52055 Off ch=3 n=e6 v=64
52055 Off ch=3 n=e7 v=64
52080 On ch=3 n=g#7 v=75
52080 On ch=3 n=g#6 v=75
52103 Off ch=3 n=g#7 v=64
52103 Off ch=3 n=g#6 v=64
52128 On ch=3 n=c#8 v=75
52128 On ch=3 n=c#7 v=75
52151 Off ch=3 n=c#8 v=64
52151 Off ch=3 n=c#7 v=64
52176 On ch=3 n=e7 v=75
52176 On ch=3 n=e6 v=75
52199 Off ch=3 n=e7 v=64
52199 Off ch=3 n=e6 v=64
52224 On ch=3 n=f#7 v=75
52224 On ch=3 n=f#6 v=75
52247 Off ch=3 n=f#7 v=64
52247 Off ch=3 n=f#6 v=64
52272 On ch=3 n=g7 v=75
52272 On ch=3 n=g6 v=75
52295 Off ch=3 n=g7 v=64
52295 Off ch=3 n=g6 v=64
52320 On ch=3 n=f#6 v=75
52320 On ch=3 n=f#7 v=75
52343 Off ch=3 n=f#6 v=64
52343 Off ch=3 n=f#7 v=64
52368 On ch=3 n=g#7 v=75
52368 On ch=3 n=g#6 v=75
52391 Off ch=3 n=g#7 v=64
52391 Off ch=3 n=g#6 v=64
52416 On ch=3 n=e6 v=75
52416 On ch=3 n=e7 v=75
52439 Off ch=3 n=e6 v=64
52439 Off ch=3 n=e7 v=64
52464 On ch=3 n=g#7 v=75
52464 On ch=3 n=g#6 v=75
52487 Off ch=3 n=g#7 v=64
52487 Off ch=3 n=g#6 v=64
52512 On ch=3 n=c#8 v=75
52512 On ch=3 n=c#7 v=75
52559 Off ch=3 n=c#8 v=64
52559 Off ch=3 n=c#7 v=64
52608 On ch=3 n=c#7 v=75
52608 On ch=3 n=c#6 v=75
52631 Off ch=3 n=c#7 v=64
52631 Off ch=3 n=c#6 v=64
52632 On ch=3 n=b6 v=75
52655 Off ch=3 n=b6 v=64
52656 On ch=3 n=a6 v=75
52679 Off ch=3 n=a6 v=64
52680 On ch=3 n=b6 v=75
52703 Off ch=3 n=b6 v=64
52704 On ch=3 n=c#7 v=75
52704 On ch=3 n=c#6 v=75
52727 Off ch=3 n=c#7 v=64
52727 Off ch=3 n=c#6 v=64
52728 On ch=3 n=b6 v=75
52751 Off ch=3 n=b6 v=64
52752 On ch=3 n=a6 v=75
52775 Off ch=3 n=a6 v=64
52776 On ch=3 n=b6 v=75
52799 Off ch=3 n=b6 v=64
52800 On ch=3 n=c#7 v=75
52800 On ch=3 n=c#6 v=75
52823 Off ch=3 n=c#7 v=64
52823 Off ch=3 n=c#6 v=64
52824 On ch=3 n=b6 v=75
52847 Off ch=3 n=b6 v=64
52848 On ch=3 n=a6 v=75
52871 Off ch=3 n=a6 v=64
52872 On ch=3 n=c#7 v=75
52895 Off ch=3 n=c#7 v=64
52896 On ch=3 n=f#7 v=75
52896 On ch=3 n=f#6 v=75
52919 Off ch=3 n=f#7 v=64
52919 Off ch=3 n=f#6 v=64
52920 On ch=3 n=e7 v=75
52943 Off ch=3 n=e7 v=64
52944 On ch=3 n=d7 v=75
52967 Off ch=3 n=d7 v=64
52968 On ch=3 n=e7 v=75
52991 Off ch=3 n=e7 v=64
52992 On ch=3 n=f#7 v=75
52992 On ch=3 n=f#6 v=75
53015 Off ch=3 n=f#7 v=64
53015 Off ch=3 n=f#6 v=64
53016 On ch=3 n=e7 v=75
53039 Off ch=3 n=e7 v=64
53040 On ch=3 n=d7 v=75
53063 Off ch=3 n=d7 v=64
53064 On ch=3 n=e7 v=75
53087 Off ch=3 n=e7 v=64
53088 On ch=3 n=f#7 v=75
53088 On ch=3 n=f#6 v=75
53111 Off ch=3 n=f#7 v=64
53111 Off ch=3 n=f#6 v=64
53112 On ch=3 n=e7 v=75
53135 Off ch=3 n=e7 v=64
53136 On ch=3 n=d7 v=75
53159 Off ch=3 n=d7 v=64
53160 On ch=3 n=e7 v=75
53183 Off ch=3 n=e7 v=64
53184 On ch=3 n=f#7 v=75
53184 On ch=3 n=f#6 v=75
53207 Off ch=3 n=f#7 v=64
53207 Off ch=3 n=f#6 v=64
53208 On ch=3 n=e7 v=75
53231 Off ch=3 n=e7 v=64
53232 On ch=3 n=d7 v=75
53255 Off ch=3 n=d7 v=64
53256 On ch=3 n=c#7 v=75
53279 Off ch=3 n=c#7 v=64
53280 On ch=3 n=c#7 v=75
53280 On ch=3 n=c#6 v=75
53303 Off ch=3 n=c#7 v=64
53303 Off ch=3 n=c#6 v=64
53304 On ch=3 n=b6 v=75
53327 Off ch=3 n=b6 v=64
53328 On ch=3 n=a6 v=75
53351 Off ch=3 n=a6 v=64
53352 On ch=3 n=b6 v=75
53375 Off ch=3 n=b6 v=64
53376 On ch=3 n=c#7 v=75
53376 On ch=3 n=c#6 v=75
53399 Off ch=3 n=c#7 v=64
53399 Off ch=3 n=c#6 v=64
53400 On ch=3 n=b6 v=75
53423 Off ch=3 n=b6 v=64
53424 On ch=3 n=a6 v=75
53447 Off ch=3 n=a6 v=64
53448 On ch=3 n=b6 v=75
53471 Off ch=3 n=b6 v=64
53472 On ch=3 n=c#7 v=75
53472 On ch=3 n=c#6 v=75
53495 Off ch=3 n=c#7 v=64
53495 Off ch=3 n=c#6 v=64
53496 On ch=3 n=b6 v=75
53519 Off ch=3 n=b6 v=64
53520 On ch=3 n=a6 v=75
53543 Off ch=3 n=a6 v=64
53544 On ch=3 n=b6 v=75
53567 Off ch=3 n=b6 v=64
53568 On ch=3 n=c#7 v=75
53568 On ch=3 n=c#6 v=75
53591 Off ch=3 n=c#7 v=64
53591 Off ch=3 n=c#6 v=64
53592 On ch=3 n=b6 v=75
53615 Off ch=3 n=b6 v=64
53616 On ch=3 n=a6 v=75
53639 Off ch=3 n=a6 v=64
53640 On ch=3 n=c#7 v=75
53663 Off ch=3 n=c#7 v=64
53664 On ch=3 n=f#7 v=75
53664 On ch=3 n=f#6 v=75
53687 Off ch=3 n=f#7 v=64
53687 Off ch=3 n=f#6 v=64
53688 On ch=3 n=e7 v=75
53711 Off ch=3 n=e7 v=64
53712 On ch=3 n=d7 v=75
53735 Off ch=3 n=d7 v=64
53736 On ch=3 n=e7 v=75
53759 Off ch=3 n=e7 v=64
53760 On ch=3 n=f#7 v=75
53760 On ch=3 n=f#6 v=75
53783 Off ch=3 n=f#7 v=64
53783 Off ch=3 n=f#6 v=64
53784 On ch=3 n=e7 v=75
53807 Off ch=3 n=e7 v=64
53808 On ch=3 n=d7 v=75
53831 Off ch=3 n=d7 v=64
53832 On ch=3 n=e7 v=75
53855 Off ch=3 n=e7 v=64
53856 On ch=3 n=f#7 v=75
53856 On ch=3 n=f#6 v=75
53879 Off ch=3 n=f#7 v=64
53879 Off ch=3 n=f#6 v=64
53880 On ch=3 n=e7 v=75
53903 Off ch=3 n=e7 v=64
53904 On ch=3 n=d7 v=75
53927 Off ch=3 n=d7 v=64
53928 On ch=3 n=e7 v=75
53951 Off ch=3 n=e7 v=64
53952 On ch=3 n=f#7 v=75
53952 On ch=3 n=f#6 v=75
53975 Off ch=3 n=f#7 v=64
53975 Off ch=3 n=f#6 v=64
53976 On ch=3 n=e7 v=75
53999 Off ch=3 n=e7 v=64
54000 On ch=3 n=d7 v=75
54023 Off ch=3 n=d7 v=64
54024 On ch=3 n=c#7 v=75
54047 Off ch=3 n=c#7 v=64
54048 On ch=3 n=b6 v=75
54048 On ch=3 n=f#6 v=75
54048 On ch=3 n=f#7 v=75
54071 Off ch=3 n=b6 v=64
54071 Off ch=3 n=f#6 v=64
54071 Off ch=3 n=f#7 v=64
54072 On ch=3 n=d#7 v=75
54095 Off ch=3 n=d#7 v=64
54096 On ch=3 n=c#7 v=75
54119 Off ch=3 n=c#7 v=64
54120 On ch=3 n=d#7 v=75
54143 Off ch=3 n=d#7 v=64
54144 On ch=3 n=b6 v=75
54144 On ch=3 n=f#6 v=75
54144 On ch=3 n=f#7 v=75
54167 Off ch=3 n=b6 v=64
54167 Off ch=3 n=f#6 v=64
54167 Off ch=3 n=f#7 v=64
54168 On ch=3 n=d#7 v=75
54191 Off ch=3 n=d#7 v=64
54192 On ch=3 n=c#7 v=75
54215 Off ch=3 n=c#7 v=64
54216 On ch=3 n=d#7 v=75
54239 Off ch=3 n=d#7 v=64
54240 On ch=3 n=b6 v=75
54240 On ch=3 n=f#6 v=75
54240 On ch=3 n=f#7 v=75
54263 Off ch=3 n=b6 v=64
54263 Off ch=3 n=f#6 v=64
54263 Off ch=3 n=f#7 v=64
54264 On ch=3 n=d#7 v=75
54287 Off ch=3 n=d#7 v=64
54288 On ch=3 n=c#7 v=75
54311 Off ch=3 n=c#7 v=64
54312 On ch=3 n=d#7 v=75
54335 Off ch=3 n=d#7 v=64
54336 On ch=3 n=b6 v=75
54336 On ch=3 n=f#6 v=75
54336 On ch=3 n=f#7 v=75
54359 Off ch=3 n=b6 v=64
54359 Off ch=3 n=f#6 v=64
54359 Off ch=3 n=f#7 v=64
54360 On ch=3 n=d#7 v=75
54383 Off ch=3 n=d#7 v=64
54384 On ch=3 n=c#7 v=75
54407 Off ch=3 n=c#7 v=64
54408 On ch=3 n=d#7 v=75
54431 Off ch=3 n=d#7 v=64
54432 On ch=3 n=b6 v=75
54432 On ch=3 n=f#6 v=75
54432 On ch=3 n=f#7 v=75
54455 Off ch=3 n=b6 v=64
54455 Off ch=3 n=f#6 v=64
54455 Off ch=3 n=f#7 v=64
54456 On ch=3 n=d#7 v=75
54479 Off ch=3 n=d#7 v=64
54480 On ch=3 n=c#7 v=75
54503 Off ch=3 n=c#7 v=64
54504 On ch=3 n=b6 v=75
54527 Off ch=3 n=b6 v=64
54720 On ch=3 n=f#6 v=75
54743 Off ch=3 n=f#6 v=64
54744 On ch=3 n=b6 v=75
54767 Off ch=3 n=b6 v=64
54768 On ch=3 n=c#7 v=75
54791 Off ch=3 n=c#7 v=64
54792 On ch=3 n=d#7 v=75
54815 Off ch=3 n=d#7 v=64
54816 On ch=3 n=b6 v=75
54816 On ch=3 n=f#6 v=75
54816 On ch=3 n=f#7 v=75
54839 Off ch=3 n=b6 v=64
54839 Off ch=3 n=f#6 v=64
54839 Off ch=3 n=f#7 v=64
54840 On ch=3 n=d#7 v=75
54863 Off ch=3 n=d#7 v=64
54864 On ch=3 n=c#7 v=75
54887 Off ch=3 n=c#7 v=64
54888 On ch=3 n=d#7 v=75
54911 Off ch=3 n=d#7 v=64
54912 On ch=3 n=b6 v=75
54912 On ch=3 n=f#6 v=75
54912 On ch=3 n=f#7 v=75
54935 Off ch=3 n=b6 v=64
54935 Off ch=3 n=f#6 v=64
54935 Off ch=3 n=f#7 v=64
54936 On ch=3 n=d#7 v=75
54959 Off ch=3 n=d#7 v=64
54960 On ch=3 n=c#7 v=75
54983 Off ch=3 n=c#7 v=64
54984 On ch=3 n=d#7 v=75
55007 Off ch=3 n=d#7 v=64
55008 On ch=3 n=b6 v=75
55008 On ch=3 n=f#6 v=75
55008 On ch=3 n=f#7 v=75
55031 Off ch=3 n=b6 v=64
55031 Off ch=3 n=f#6 v=64
55031 Off ch=3 n=f#7 v=64
55032 On ch=3 n=d#7 v=75
55055 Off ch=3 n=d#7 v=64
55056 On ch=3 n=c#7 v=75
55079 Off ch=3 n=c#7 v=64
55080 On ch=3 n=d#7 v=75
55103 Off ch=3 n=d#7 v=64
55104 On ch=3 n=b6 v=75
55104 On ch=3 n=f#6 v=75
55104 On ch=3 n=f#7 v=75
55127 Off ch=3 n=b6 v=64
55127 Off ch=3 n=f#6 v=64
55127 Off ch=3 n=f#7 v=64
55128 On ch=3 n=d#7 v=75
55151 Off ch=3 n=d#7 v=64
55152 On ch=3 n=c#7 v=75
55175 Off ch=3 n=c#7 v=64
55176 On ch=3 n=d#7 v=75
55199 Off ch=3 n=d#7 v=64
55200 On ch=3 n=b6 v=75
55200 On ch=3 n=f#6 v=75
55200 On ch=3 n=f#7 v=75
55223 Off ch=3 n=b6 v=64
55223 Off ch=3 n=f#6 v=64
55223 Off ch=3 n=f#7 v=64
55224 On ch=3 n=d#7 v=75
55247 Off ch=3 n=d#7 v=64
55248 On ch=3 n=c#7 v=75
55271 Off ch=3 n=c#7 v=64
55272 On ch=3 n=b6 v=75
55295 Off ch=3 n=b6 v=64
55488 On ch=3 n=f#6 v=75
55511 Off ch=3 n=f#6 v=64
55512 On ch=3 n=b6 v=75
55535 Off ch=3 n=b6 v=64
55536 On ch=3 n=c#7 v=75
55559 Off ch=3 n=c#7 v=64
55560 On ch=3 n=d#7 v=75
55583 Off ch=3 n=d#7 v=64
55584 On ch=3 n=g#7 v=75
55584 On ch=3 n=c#7 v=75
55584 On ch=3 n=g#6 v=75
55607 Off ch=3 n=g#7 v=64
55607 Off ch=3 n=c#7 v=64
55607 Off ch=3 n=g#6 v=64
55608 On ch=3 n=f7 v=75
55631 Off ch=3 n=f7 v=64
55632 On ch=3 n=d#7 v=75
55655 Off ch=3 n=d#7 v=64
55656 On ch=3 n=f7 v=75
55679 Off ch=3 n=f7 v=64
55680 On ch=3 n=g#7 v=75
55680 On ch=3 n=c#7 v=75
55680 On ch=3 n=g#6 v=75
55703 Off ch=3 n=g#7 v=64
55703 Off ch=3 n=c#7 v=64
55703 Off ch=3 n=g#6 v=64
55704 On ch=3 n=f7 v=75
55727 Off ch=3 n=f7 v=64
55728 On ch=3 n=d#7 v=75
55751 Off ch=3 n=d#7 v=64
55752 On ch=3 n=f7 v=75
55775 Off ch=3 n=f7 v=64
55776 On ch=3 n=g#7 v=75
55776 On ch=3 n=c#7 v=75
55776 On ch=3 n=g#6 v=75
55799 Off ch=3 n=g#7 v=64
55799 Off ch=3 n=c#7 v=64
55799 Off ch=3 n=g#6 v=64
55800 On ch=3 n=f7 v=75
55823 Off ch=3 n=f7 v=64
55824 On ch=3 n=d#7 v=75
55847 Off ch=3 n=d#7 v=64
55848 On ch=3 n=f7 v=75
55871 Off ch=3 n=f7 v=64
55872 On ch=3 n=g#7 v=75
55872 On ch=3 n=c#7 v=75
55872 On ch=3 n=g#6 v=75
55895 Off ch=3 n=g#7 v=64
55895 Off ch=3 n=c#7 v=64
55895 Off ch=3 n=g#6 v=64
55896 On ch=3 n=f7 v=75
55919 Off ch=3 n=f7 v=64
55920 On ch=3 n=d#7 v=75
55943 Off ch=3 n=d#7 v=64
55944 On ch=3 n=f7 v=75
55967 Off ch=3 n=f7 v=64
55968 On ch=3 n=g#7 v=75
55968 On ch=3 n=c#7 v=75
55968 On ch=3 n=g#6 v=75
55991 Off ch=3 n=g#7 v=64
55991 Off ch=3 n=c#7 v=64
55991 Off ch=3 n=g#6 v=64
55992 On ch=3 n=f7 v=75
56015 Off ch=3 n=f7 v=64
56016 On ch=3 n=d#7 v=75
56039 Off ch=3 n=d#7 v=64
56040 On ch=3 n=c#7 v=75
56063 Off ch=3 n=c#7 v=64
56256 On ch=3 n=g#6 v=75
56279 Off ch=3 n=g#6 v=64
56280 On ch=3 n=c#7 v=75
56303 Off ch=3 n=c#7 v=64
56304 On ch=3 n=d#7 v=75
56327 Off ch=3 n=d#7 v=64
56328 On ch=3 n=f7 v=75
56351 Off ch=3 n=f7 v=64
56352 Tempo 400000
56352 On ch=3 n=g#7 v=75
56352 On ch=3 n=c#7 v=75
56352 On ch=3 n=g#6 v=75
56371 Tempo 397350
56375 Off ch=3 n=g#7 v=64
56375 Off ch=3 n=c#7 v=64
56375 Off ch=3 n=g#6 v=64
56376 On ch=3 n=f7 v=75
56390 Tempo 394736
56399 Off ch=3 n=f7 v=64
56400 On ch=3 n=d#7 v=75
56409 Tempo 392156
56423 Off ch=3 n=d#7 v=64
56424 On ch=3 n=f7 v=75
56428 Tempo 389610
56447 Tempo 387096
56447 Off ch=3 n=f7 v=64
56448 On ch=3 n=g#7 v=75
56448 On ch=3 n=c#7 v=75
56448 On ch=3 n=g#6 v=75
56466 Tempo 384615
56471 Off ch=3 n=g#7 v=64
56471 Off ch=3 n=c#7 v=64
56471 Off ch=3 n=g#6 v=64
56472 On ch=3 n=f7 v=75
56482 Tempo 382165
56492 Off ch=3 n=f7 v=64
56493 On ch=3 n=d#7 v=75
56501 Tempo 379746
56516 Off ch=3 n=d#7 v=64
56517 On ch=3 n=f7 v=75
56520 Tempo 377358
56539 Tempo 375000
56540 Off ch=3 n=f7 v=64
56541 On ch=3 n=g#7 v=75
56541 On ch=3 n=c#7 v=75
56541 On ch=3 n=g#6 v=75
56558 Tempo 372670
56564 Off ch=3 n=g#7 v=64
56564 Off ch=3 n=c#7 v=64
56564 Off ch=3 n=g#6 v=64
56565 On ch=3 n=f7 v=75
56577 Tempo 370370
56588 Off ch=3 n=f7 v=64
56589 On ch=3 n=d#7 v=75
56596 Tempo 368098
56612 Off ch=3 n=d#7 v=64
56613 On ch=3 n=f7 v=75
56615 Tempo 365853
56634 Tempo 363636
56636 Off ch=3 n=f7 v=64
56637 On ch=3 n=g#7 v=75
56637 On ch=3 n=c#7 v=75
56637 On ch=3 n=g#6 v=75
56653 Tempo 361445
56660 Off ch=3 n=g#7 v=64
56660 Off ch=3 n=c#7 v=64
56660 Off ch=3 n=g#6 v=64
56661 On ch=3 n=f7 v=75
56672 Tempo 359281
56684 Off ch=3 n=f7 v=64
56685 On ch=3 n=d#7 v=75
56691 Tempo 357142
56708 Off ch=3 n=d#7 v=64
56709 On ch=3 n=f7 v=75
56710 Tempo 355029
56729 Tempo 352941
56732 Off ch=3 n=f7 v=64
56733 On ch=3 n=g#7 v=75
56733 On ch=3 n=c#7 v=75
56733 On ch=3 n=g#6 v=75
56748 Tempo 350877
56756 Off ch=3 n=g#7 v=64
56756 Off ch=3 n=c#7 v=64
56756 Off ch=3 n=g#6 v=64
56757 On ch=3 n=f7 v=75
56767 Tempo 348837
56777 Off ch=3 n=f7 v=64
56778 On ch=3 n=d#7 v=75
56783 Tempo 346820
56801 Off ch=3 n=d#7 v=64
56802 Tempo 344827
56802 On ch=3 n=c#7 v=75
56821 Tempo 342857
56825 Off ch=3 n=c#7 v=64
56840 Tempo 340909
56859 Tempo 338983
56878 Tempo 337078
56897 Tempo 335195
56916 Tempo 333333
56935 Tempo 331491
56954 Tempo 329670
56973 Tempo 327868
56992 Tempo 326086
57011 Tempo 324324
57018 On ch=3 n=g#6 v=75
57030 Tempo 322580
57041 Off ch=3 n=g#6 v=64
57042 On ch=3 n=c#7 v=75
57049 Tempo 320855
57065 Off ch=3 n=c#7 v=64
57066 On ch=3 n=d#7 v=75
57068 Tempo 319148
57087 Tempo 317460
57089 Off ch=3 n=d#7 v=64
57090 On ch=3 n=f7 v=75
57106 Tempo 315789
57113 Off ch=3 n=f7 v=64
57114 On ch=3 n=g#6 v=75
57114 On ch=3 n=g#7 v=75
57161 Off ch=3 n=g#6 v=64
57161 Off ch=3 n=g#7 v=64
57162 On ch=3 n=g#7 v=75
57162 On ch=3 n=g#6 v=75
57257 Off ch=3 n=g#7 v=64
57257 Off ch=3 n=g#6 v=64
57258 On ch=3 n=f7 v=75
57258 On ch=3 n=f6 v=75
57305 Off ch=3 n=f7 v=64
57305 Off ch=3 n=f6 v=64
57306 On ch=3 n=g#7 v=75
57306 On ch=3 n=g#6 v=75
57353 Off ch=3 n=g#7 v=64
57353 Off ch=3 n=g#6 v=64
57354 On ch=3 n=g#7 v=75
57354 On ch=3 n=g#6 v=75
57449 Off ch=3 n=g#7 v=64
57449 Off ch=3 n=g#6 v=64
57450 On ch=3 n=c#7 v=75
57450 On ch=3 n=c#6 v=75
57497 Off ch=3 n=c#7 v=64
57497 Off ch=3 n=c#6 v=64
57498 On ch=3 n=g#6 v=75
57498 On ch=3 n=g#7 v=75
57545 Off ch=3 n=g#6 v=64
57545 Off ch=3 n=g#7 v=64
57546 On ch=3 n=g#7 v=75
57546 On ch=3 n=g#6 v=75
57641 Off ch=3 n=g#7 v=64
57641 Off ch=3 n=g#6 v=64
57642 On ch=3 n=f7 v=75
57642 On ch=3 n=f6 v=75
57689 Off ch=3 n=f7 v=64
57689 Off ch=3 n=f6 v=64
57690 On ch=3 n=g#6 v=75
57690 On ch=3 n=g#7 v=75
57737 Off ch=3 n=g#6 v=64
57737 Off ch=3 n=g#7 v=64
57738 On ch=3 n=a6 v=75
57738 On ch=3 n=a7 v=75
57785 Off ch=3 n=a6 v=64
57785 Off ch=3 n=a7 v=64
57786 On ch=3 n=b7 v=75
57786 On ch=3 n=b6 v=75
57833 Off ch=3 n=b7 v=64
57833 Off ch=3 n=b6 v=64
57834 On ch=3 n=c#8 v=75
57834 On ch=3 n=c#7 v=75
57881 Off ch=3 n=c#8 v=64
57881 Off ch=3 n=c#7 v=64
57882 On ch=3 n=c#7 v=75
57882 On ch=3 n=c#8 v=75
57905 Off ch=3 n=c#7 v=64
57905 Off ch=3 n=c#8 v=64
57930 On ch=3 n=a6 v=75
57930 On ch=3 n=c#7 v=75
57930 On ch=3 n=e7 v=75
57930 On ch=3 n=a7 v=75
58025 Off ch=3 n=a6 v=64
58025 Off ch=3 n=c#7 v=64
58025 Off ch=3 n=e7 v=64
58025 Off ch=3 n=a7 v=64
58026 On ch=3 n=g#6 v=75
58026 On ch=3 n=g#7 v=75
58073 Off ch=3 n=g#6 v=64
58073 Off ch=3 n=g#7 v=64
58074 On ch=3 n=f#6 v=75
58074 On ch=3 n=f#7 v=75
58121 Off ch=3 n=f#6 v=64
58121 Off ch=3 n=f#7 v=64
58122 On ch=3 n=f#6 v=75
58122 On ch=3 n=a6 v=75
58122 On ch=3 n=c#7 v=75
58122 On ch=3 n=f#7 v=75
58217 Off ch=3 n=f#6 v=64
58217 Off ch=3 n=a6 v=64
58217 Off ch=3 n=c#7 v=64
58217 Off ch=3 n=f#7 v=64
58218 On ch=3 n=e6 v=75
58218 On ch=3 n=e7 v=75
58265 Off ch=3 n=e6 v=64
58265 Off ch=3 n=e7 v=64
58266 On ch=3 n=d#7 v=75
58266 On ch=3 n=d#6 v=75
58313 Off ch=3 n=d#7 v=64
58313 Off ch=3 n=d#6 v=64
58314 On ch=3 n=d#7 v=75
58314 On ch=3 n=a6 v=75
58314 On ch=3 n=f#6 v=75
58314 On ch=3 n=d#6 v=75
58409 Off ch=3 n=d#7 v=64
58409 Off ch=3 n=a6 v=64
58409 Off ch=3 n=f#6 v=64
58409 Off ch=3 n=d#6 v=64
58410 On ch=3 n=f#7 v=75
58410 On ch=3 n=f#6 v=75
58457 Off ch=3 n=f#7 v=64
58457 Off ch=3 n=f#6 v=64
58458 On ch=3 n=d#7 v=75
58458 On ch=3 n=d#6 v=75
58481 Off ch=3 n=d#7 v=64
58481 Off ch=3 n=d#6 v=64
58506 On ch=3 n=f#7 v=75
58506 On ch=3 n=f#6 v=75
58529 Off ch=3 n=f#7 v=64
58529 Off ch=3 n=f#6 v=64
58554 On ch=3 n=e7 v=75
58554 On ch=3 n=e6 v=75
58577 Off ch=3 n=e7 v=64
58577 Off ch=3 n=e6 v=64
58602 On ch=3 n=c#7 v=75
58602 On ch=3 n=c#6 v=75
58625 Off ch=3 n=c#7 v=64
58625 Off ch=3 n=c#6 v=64
60186 Tempo 315789
60212 Tempo 314136
60238 Tempo 312500
60264 Tempo 310880
60290 Tempo 309278
60316 Tempo 307692
60342 Tempo 306122
60368 Tempo 304568
60394 Tempo 303030
60420 Tempo 301507
60446 Tempo 300000
60472 Tempo 298507
60498 Tempo 297029
60524 Tempo 295566
60550 Tempo 294117
60576 Tempo 292682
60602 Tempo 291262
60628 Tempo 289855
60654 Tempo 288461
60680 Tempo 287081
60706 Tempo 285714
60732 Tempo 284360
60758 Tempo 283018
60784 Tempo 281690
60810 Tempo 280373
60836 Tempo 279069
60862 Tempo 277777
60888 Tempo 276497
60914 Tempo 275229
60940 Tempo 273972
60954 On ch=3 n=a6 v=75
60954 On ch=3 n=a5 v=75
60966 Tempo 272727
60992 Tempo 271493
61001 Off ch=3 n=a6 v=64
61001 Off ch=3 n=a5 v=64
61018 Tempo 270270
61044 Tempo 269058
61050 On ch=3 n=c#7 v=75
61050 On ch=3 n=c#6 v=75
61070 Tempo 267857
61096 Tempo 266666
61097 Off ch=3 n=c#7 v=64
61097 Off ch=3 n=c#6 v=64
61098 On ch=3 n=e7 v=75
61098 On ch=3 n=e6 v=75
61122 Tempo 264718
61145 Off ch=3 n=e7 v=64
61145 Off ch=3 n=e6 v=64
61146 On ch=3 n=a6 v=75
61146 On ch=3 n=a5 v=75
61148 Tempo 264317
61174 Tempo 263157
61193 Off ch=3 n=a6 v=64
61193 Off ch=3 n=a5 v=64
61200 Tempo 262008
61226 Tempo 260869
61242 On ch=3 n=c#7 v=75
61242 On ch=3 n=c#6 v=75
61252 Tempo 259740
61278 Tempo 258620
61289 Off ch=3 n=c#7 v=64
61289 Off ch=3 n=c#6 v=64
61290 On ch=3 n=e7 v=75
61290 On ch=3 n=e6 v=75
61304 Tempo 257510
61330 Tempo 256410
61337 Off ch=3 n=e7 v=64
61337 Off ch=3 n=e6 v=64
61338 On ch=3 n=a6 v=75
61338 On ch=3 n=a5 v=75
61356 Tempo 255319
61382 Tempo 254237
61385 Off ch=3 n=a6 v=64
61385 Off ch=3 n=a5 v=64
61408 Tempo 253164
61434 Tempo 252100
61434 On ch=3 n=c#7 v=75
61434 On ch=3 n=c#6 v=75
61460 Tempo 251046
61481 Off ch=3 n=c#7 v=64
61481 Off ch=3 n=c#6 v=64
61482 On ch=3 n=e7 v=75
61482 On ch=3 n=e6 v=75
61486 Tempo 250000
61529 Off ch=3 n=e7 v=64
61529 Off ch=3 n=e6 v=64
61530 On ch=3 n=a7 v=75
61530 On ch=3 n=a6 v=75
61572 Tempo 269058
61577 Off ch=3 n=a7 v=64
61577 Off ch=3 n=a6 v=64
61614 Tempo 267857
61626 On ch=3 n=e6 v=75
61626 On ch=3 n=e7 v=75
61656 Tempo 266666
61673 Off ch=3 n=e6 v=64
61673 Off ch=3 n=e7 v=64
61698 Tempo 264718
61722 On ch=3 n=a7 v=75
61722 On ch=3 n=a6 v=75
61740 Tempo 264317
61769 Off ch=3 n=a7 v=64
61769 Off ch=3 n=a6 v=64
61779 Tempo 263157
61815 On ch=3 n=e6 v=75
61815 On ch=3 n=e7 v=75
61821 Tempo 262008
61862 Off ch=3 n=e6 v=64
61862 Off ch=3 n=e7 v=64
61863 Tempo 260869
61905 Tempo 259740
61911 On ch=3 n=a7 v=75
61911 On ch=3 n=a6 v=75
61947 Tempo 258620
61958 Off ch=3 n=a7 v=64
61958 Off ch=3 n=a6 v=64
61989 Tempo 257510
62007 On ch=3 n=e6 v=75
62007 On ch=3 n=e7 v=75
62031 Tempo 256410
62054 Off ch=3 n=e6 v=64
62054 Off ch=3 n=e7 v=64
62073 Tempo 255319
62103 On ch=3 n=a7 v=75
62103 On ch=3 n=a6 v=75
62115 Tempo 254237
62150 Off ch=3 n=a7 v=64
62150 Off ch=3 n=a6 v=64
62157 Tempo 253164
62199 Tempo 252100
62241 Tempo 251046
62283 Tempo 250000
62283 Meta TrkEnd
TrkEnd
MTrk
0 Par ch=4 c=0 v=0
0 PrCh ch=4 p=0
0 TimeSig 2/4 96 8
0 Tempo 500000
3264 TimeSig 3/4 96 8
3552 TimeSig 1/4 96 8
3552 Tempo 600000
3564 Tempo 594059
3576 Tempo 588235
3588 Tempo 582524
3600 Tempo 576923
3612 Tempo 571428
3624 Tempo 566037
3636 Tempo 560747
3648 Tempo 555555
3660 Tempo 550458
3672 Tempo 545454
3684 Tempo 540540
3696 Tempo 535714
3708 Tempo 530973
3720 Tempo 526315
3732 Tempo 521739
3744 Tempo 517241
3756 Tempo 512820
3768 Tempo 508474
3780 Tempo 504201
3792 Tempo 500000
3804 Tempo 495867
3816 Tempo 491803
3828 Tempo 487804
3840 Tempo 483870
3852 Tempo 480000
3864 Tempo 476190
3876 Tempo 472440
3888 Tempo 468750
3900 Tempo 465116
3912 Tempo 461538
3924 Tempo 458015
3936 Tempo 454545
3948 Tempo 451127
3960 Tempo 447761
3972 Tempo 444444
3984 Tempo 441176
3996 Tempo 437956
4008 Tempo 434782
4020 Tempo 431654
4032 Tempo 428571
4044 Tempo 425531
4056 Tempo 422535
4068 Tempo 419580
4080 Tempo 416666
4092 Tempo 413793
4104 Tempo 410958
4116 Tempo 408163
4128 Tempo 405405
4140 Tempo 402684
4152 Tempo 400000
4164 Tempo 397350
4176 Tempo 394736
4188 Tempo 392156
4200 Tempo 389610
4212 Tempo 387096
4224 Tempo 384615
4236 Tempo 382165
4248 Tempo 379746
4260 Tempo 377358
4272 Tempo 375000
4284 Tempo 372670
4296 Tempo 370370
4308 Tempo 368098
4320 Tempo 365853
4332 Tempo 363636
4344 Tempo 361445
4356 Tempo 359281
4368 Tempo 357142
4380 Tempo 355029
4392 Tempo 352941
4404 Tempo 350877
4416 Tempo 348837
4428 Tempo 346820
4440 Tempo 344827
4452 Tempo 342857
4464 Tempo 340909
4476 Tempo 338983
4488 Tempo 337078
4500 Tempo 335195
4512 Tempo 333333
4524 Tempo 331491
4536 Tempo 329670
4548 Tempo 327868
4560 Tempo 326086
4572 Tempo 324324
4584 Tempo 322580
4596 Tempo 320855
4608 Tempo 319148
4620 Tempo 317460
4632 Tempo 315789
4800 TimeSig 2/4 96 8
5184 Tempo 315789
5187 Tempo 317460
5190 Tempo 319148
5193 Tempo 320855
5196 Tempo 322580
5199 Tempo 324324
5202 Tempo 326086
5205 Tempo 327868
5208 Tempo 329670
5211 Tempo 331491
5214 Tempo 333333
5217 Tempo 335195
5220 Tempo 337078
5223 Tempo 338983
5226 Tempo 340909
5229 Tempo 342857
5232 Tempo 344827
5235 Tempo 346820
5238 Tempo 348837
5241 Tempo 350877
5244 Tempo 352941
5247 Tempo 355029
5250 Tempo 357142
5253 Tempo 359281
5256 Tempo 361445
5259 Tempo 363636
5262 Tempo 365853
5265 Tempo 368098
5268 Tempo 370370
5271 Tempo 372670
5274 Tempo 375000
5277 Tempo 377358
5280 Tempo 379746
5283 Tempo 382165
5286 Tempo 384615
5289 Tempo 387096
5292 Tempo 389610
5295 Tempo 392156
5298 Tempo 394736
5301 Tempo 397350
5304 Tempo 400000
5307 Tempo 402684
5310 Tempo 405405
5313 Tempo 408163
5316 Tempo 410958
5319 Tempo 413793
5322 Tempo 416666
5325 Tempo 419580
5328 Tempo 422535
5331 Tempo 425531
5334 Tempo 428571
5337 Tempo 431654
5340 Tempo 434782
5343 Tempo 437956
5346 Tempo 441176
5349 Tempo 444444
5352 Tempo 447761
5355 Tempo 451127
5358 Tempo 454545
5361 Tempo 458015
5364 Tempo 461538
5367 Tempo 465116
5370 Tempo 468750
5373 Tempo 472440
5376 Tempo 476190
5379 Tempo 480000
5382 Tempo 483870
5385 Tempo 487804
5388 Tempo 491803
5391 Tempo 495867
5394 Tempo 500000
5397 Tempo 504201
5400 Tempo 508474
5403 Tempo 512820
5406 Tempo 517241
5409 Tempo 521739
5412 Tempo 526315
5415 Tempo 530973
5418 Tempo 535714
5421 Tempo 540540
5424 Tempo 545454
5427 Tempo 550458
5430 Tempo 555555
5433 Tempo 560747
5436 Tempo 566037
5439 Tempo 571428
5442 Tempo 576923
5445 Tempo 582524
5448 Tempo 588235
5451 Tempo 594059
5454 Tempo 600000
5457 Tempo 606060
5460 Tempo 612244
5463 Tempo 618556
5466 Tempo 625000
5469 Tempo 631578
5472 Tempo 638297
5475 Tempo 645161
5478 Tempo 652173
5481 Tempo 659340
5484 Tempo 666666
5487 Tempo 674157
5490 Tempo 681818
5493 Tempo 689655
5496 Tempo 697674
5499 Tempo 705882
5502 Tempo 714285
5505 Tempo 722891
5508 Tempo 731707
5511 Tempo 740740
5514 Tempo 750000
5568 Tempo 461538
11712 TimeSig 1/4 96 8
12480 TimeSig 2/4 96 8
12480 Tempo 300000
18816 Tempo 300000
18821 Tempo 301507
18826 Tempo 303030
18831 Tempo 304568
18836 Tempo 306122
18841 Tempo 307692
18846 Tempo 309278
18851 Tempo 310880
18856 Tempo 312500
18861 Tempo 314136
18866 Tempo 315789
18871 Tempo 317460
18876 Tempo 319148
18881 Tempo 320855
18886 Tempo 322580
18891 Tempo 324324
18896 Tempo 326086
18901 Tempo 327868
18906 Tempo 329670
18911 Tempo 331491
18916 Tempo 333333
18921 Tempo 335195
18926 Tempo 337078
18931 Tempo 338983
18936 Tempo 340909
18941 Tempo 342857
18946 Tempo 344827
18951 Tempo 346820
18956 Tempo 348837
18961 Tempo 350877
18966 Tempo 352941
18971 Tempo 355029
18976 Tempo 357142
18981 Tempo 359281
18986 Tempo 361445
18991 Tempo 363636
18996 Tempo 365853
19001 Tempo 368098
19006 Tempo 370370
19011 Tempo 372670
19016 Tempo 375000
19021 Tempo 377358
19026 Tempo 379746
19031 Tempo 382165
19036 Tempo 384615
19041 Tempo 387096
19046 Tempo 389610
19051 Tempo 392156
19056 Tempo 394736
19061 Tempo 397350
19066 Tempo 400000
19071 Tempo 402684
19076 Tempo 405405
19081 Tempo 408163
19086 Tempo 410958
19091 Tempo 413793
19096 Tempo 416666
19101 Tempo 419580
19106 Tempo 422535
19111 Tempo 425531
19116 Tempo 428571
19121 Tempo 431654
19126 Tempo 434782
19131 Tempo 437956
19136 Tempo 441176
19141 Tempo 444444
19146 Tempo 447761
19151 Tempo 451127
19156 Tempo 454545
19161 Tempo 458015
19166 Tempo 461538
26112 Tempo 300000
32064 Tempo 1500000
32448 TimeSig 1/4 96 8
32544 TimeSig 2/4 96 8
32544 Tempo 500000
34272 Tempo 500000
34329 Tempo 495867
34386 Tempo 491803
34443 Tempo 487804
34500 Tempo 483870
34557 Tempo 480000
34614 Tempo 476190
34671 Tempo 472440
34728 Tempo 468750
34785 Tempo 465116
34842 Tempo 461538
34899 Tempo 458015
34956 Tempo 454545
35013 Tempo 451127
35070 Tempo 447761
35127 Tempo 444444
35184 Tempo 441176
35241 Tempo 437956
35298 Tempo 434782
35355 Tempo 431654
35412 Tempo 428571
35469 Tempo 425531
35526 Tempo 422535
35583 Tempo 419580
35640 Tempo 416666
35697 Tempo 413793
35754 Tempo 410958
35811 Tempo 408163
35868 Tempo 405405
35925 Tempo 402684
35982 Tempo 400000
56352 Tempo 400000
56371 Tempo 397350
56390 Tempo 394736
56409 Tempo 392156
56428 Tempo 389610
56447 Tempo 387096
56466 Tempo 384615
56485 Tempo 382165
56504 Tempo 379746
56523 Tempo 377358
56542 Tempo 375000
56561 Tempo 372670
56580 Tempo 370370
56599 Tempo 368098
56618 Tempo 365853
56637 Tempo 363636
56656 Tempo 361445
56675 Tempo 359281
56694 Tempo 357142
56713 Tempo 355029
56732 Tempo 352941
56751 Tempo 350877
56770 Tempo 348837
56789 Tempo 346820
56808 Tempo 344827
56827 Tempo 342857
56846 Tempo 340909
56865 Tempo 338983
56884 Tempo 337078
56903 Tempo 335195
56922 Tempo 333333
56941 Tempo 331491
56960 Tempo 329670
56979 Tempo 327868
56998 Tempo 326086
57017 Tempo 324324
57036 Tempo 322580
57055 Tempo 320855
57074 Tempo 319148
57093 Tempo 317460
57112 Tempo 315789
59424 On ch=4 n=a2 v=73
59447 Off ch=4 n=a2 v=64
59808 On ch=4 n=a2 v=73
59831 Off ch=4 n=a2 v=64
60192 Tempo 315789
60192 On ch=4 n=a2 v=73
60218 Tempo 314136
60239 Off ch=4 n=a2 v=64
60244 Tempo 312500
60270 Tempo 310880
60296 Tempo 309278
60322 Tempo 307692
60348 Tempo 306122
60374 Tempo 304568
60384 On ch=4 n=a2 v=73
60400 Tempo 303030
60426 Tempo 301507
60431 Off ch=4 n=a2 v=64
60452 Tempo 300000
60478 Tempo 298507
60504 Tempo 297029
60530 Tempo 295566
60556 Tempo 294117
60576 On ch=4 n=a2 v=73
60582 Tempo 292682
60608 Tempo 291262
60623 Off ch=4 n=a2 v=64
60634 Tempo 289855
60660 Tempo 288461
60686 Tempo 287081
60712 Tempo 285714
60738 Tempo 284360
60764 Tempo 283018
60790 Tempo 281690
60816 Tempo 280373
60842 Tempo 279069
60868 Tempo 277777
60894 Tempo 276497
60920 Tempo 275229
60946 Tempo 273972
60972 Tempo 272727
60998 Tempo 271493
61024 Tempo 270270
61050 Tempo 269058
61076 Tempo 267857
61102 Tempo 266666
61128 Tempo 264718
61154 Tempo 264317
61180 Tempo 263157
61206 Tempo 262008
61232 Tempo 260869
61258 Tempo 259740
61284 Tempo 258620
61310 Tempo 257510
61336 Tempo 256410
61362 Tempo 255319
61388 Tempo 254237
61414 Tempo 253164
61440 Tempo 252100
61466 Tempo 251046
61492 Tempo 250000
61578 Tempo 269058
61620 Tempo 267857
61662 Tempo 266666
61704 Tempo 264718
61746 Tempo 264317
61788 Tempo 263157
61830 Tempo 262008
61872 Tempo 260869
61914 Tempo 259740
61956 Tempo 258620
61998 Tempo 257510
62040 Tempo 256410
62082 Tempo 255319
62124 Tempo 254237
62166 Tempo 253164
62208 Tempo 252100
62250 Tempo 251046
62292 Tempo 250000
62688 On ch=4 n=a2 v=73
62688 On ch=4 n=c#3 v=73
62688 On ch=4 n=e3 v=73
62688 On ch=4 n=a3 v=73
62783 Off ch=4 n=a2 v=64
62783 Off ch=4 n=c#3 v=64
62783 Off ch=4 n=e3 v=64
62783 Off ch=4 n=a3 v=64
62880 On ch=4 n=a3 v=73
62880 On ch=4 n=e3 v=73
62880 On ch=4 n=c#3 v=73
62880 On ch=4 n=a2 v=73
62975 Off ch=4 n=a3 v=64
62975 Off ch=4 n=e3 v=64
62975 Off ch=4 n=c#3 v=64
62975 Off ch=4 n=a2 v=64
62975 Meta TrkEnd
TrkEnd
MTrk
0 Par ch=5 c=0 v=0
0 TimeSig 2/4 96 8
0 Tempo 500000
3264 TimeSig 3/4 96 8
3552 TimeSig 1/4 96 8
3552 Tempo 600000
3564 Tempo 594059
3576 Tempo 588235
3588 Tempo 582524
3600 Tempo 576923
3612 Tempo 571428
3624 Tempo 566037
3636 Tempo 560747
3648 Tempo 555555
3660 Tempo 550458
3672 Tempo 545454
3684 Tempo 540540
3696 Tempo 535714
3708 Tempo 530973
3720 Tempo 526315
3732 Tempo 521739
3744 Tempo 517241
3756 Tempo 512820
3768 Tempo 508474
3780 Tempo 504201
3792 Tempo 500000
3804 Tempo 495867
3816 Tempo 491803
3828 Tempo 487804
3840 Tempo 483870
3852 Tempo 480000
3864 Tempo 476190
3876 Tempo 472440
3888 Tempo 468750
3900 Tempo 465116
3912 Tempo 461538
3924 Tempo 458015
3936 Tempo 454545
3948 Tempo 451127
3960 Tempo 447761
3972 Tempo 444444
3984 Tempo 441176
3996 Tempo 437956
4008 Tempo 434782
4020 Tempo 431654
4032 Tempo 428571
4044 Tempo 425531
4056 Tempo 422535
4068 Tempo 419580
4080 Tempo 416666
4092 Tempo 413793
4104 Tempo 410958
4116 Tempo 408163
4128 Tempo 405405
4140 Tempo 402684
4152 Tempo 400000
4164 Tempo 397350
4176 Tempo 394736
4188 Tempo 392156
4200 Tempo 389610
4212 Tempo 387096
4224 Tempo 384615
4236 Tempo 382165
4248 Tempo 379746
4260 Tempo 377358
4272 Tempo 375000
4284 Tempo 372670
4296 Tempo 370370
4308 Tempo 368098
4320 Tempo 365853
4332 Tempo 363636
4344 Tempo 361445
4356 Tempo 359281
4368 Tempo 357142
4380 Tempo 355029
4392 Tempo 352941
4404 Tempo 350877
4416 Tempo 348837
4428 Tempo 346820
4440 Tempo 344827
4452 Tempo 342857
4464 Tempo 340909
4476 Tempo 338983
4488 Tempo 337078
4500 Tempo 335195
4512 Tempo 333333
4524 Tempo 331491
4536 Tempo 329670
4548 Tempo 327868
4560 Tempo 326086
4572 Tempo 324324
4584 Tempo 322580
4596 Tempo 320855
4608 Tempo 319148
4620 Tempo 317460
4632 Tempo 315789
4800 TimeSig 2/4 96 8
5184 Tempo 315789
5187 Tempo 317460
5190 Tempo 319148
5193 Tempo 320855
5196 Tempo 322580
5199 Tempo 324324
5202 Tempo 326086
5205 Tempo 327868
5208 Tempo 329670
5211 Tempo 331491
5214 Tempo 333333
5217 Tempo 335195
5220 Tempo 337078
5223 Tempo 338983
5226 Tempo 340909
5229 Tempo 342857
5232 Tempo 344827
5235 Tempo 346820
5238 Tempo 348837
5241 Tempo 350877
5244 Tempo 352941
5247 Tempo 355029
5250 Tempo 357142
5253 Tempo 359281
5256 Tempo 361445
5259 Tempo 363636
5262 Tempo 365853
5265 Tempo 368098
5268 Tempo 370370
5271 Tempo 372670
5274 Tempo 375000
5277 Tempo 377358
5280 Tempo 379746
5283 Tempo 382165
5286 Tempo 384615
5289 Tempo 387096
5292 Tempo 389610
5295 Tempo 392156
5298 Tempo 394736
5301 Tempo 397350
5304 Tempo 400000
5307 Tempo 402684
5310 Tempo 405405
5313 Tempo 408163
5316 Tempo 410958
5319 Tempo 413793
5322 Tempo 416666
5325 Tempo 419580
5328 Tempo 422535
5331 Tempo 425531
5334 Tempo 428571
5337 Tempo 431654
5340 Tempo 434782
5343 Tempo 437956
5346 Tempo 441176
5349 Tempo 444444
5352 Tempo 447761
5355 Tempo 451127
5358 Tempo 454545
5361 Tempo 458015
5364 Tempo 461538
5367 Tempo 465116
5370 Tempo 468750
5373 Tempo 472440
5376 Tempo 476190
5379 Tempo 480000
5382 Tempo 483870
5385 Tempo 487804
5388 Tempo 491803
5391 Tempo 495867
5394 Tempo 500000
5397 Tempo 504201
5400 Tempo 508474
5403 Tempo 512820
5406 Tempo 517241
5409 Tempo 521739
5412 Tempo 526315
5415 Tempo 530973
5418 Tempo 535714
5421 Tempo 540540
5424 Tempo 545454
5427 Tempo 550458
5430 Tempo 555555
5433 Tempo 560747
5436 Tempo 566037
5439 Tempo 571428
5442 Tempo 576923
5445 Tempo 582524
5448 Tempo 588235
5451 Tempo 594059
5454 Tempo 600000
5457 Tempo 606060
5460 Tempo 612244
5463 Tempo 618556
5466 Tempo 625000
5469 Tempo 631578
5472 Tempo 638297
5475 Tempo 645161
5478 Tempo 652173
5481 Tempo 659340
5484 Tempo 666666
5487 Tempo 674157
5490 Tempo 681818
5493 Tempo 689655
5496 Tempo 697674
5499 Tempo 705882
5502 Tempo 714285
5505 Tempo 722891
5508 Tempo 731707
5511 Tempo 740740
5514 Tempo 750000
5568 Tempo 461538
11712 TimeSig 1/4 96 8
12480 TimeSig 2/4 96 8
12480 Tempo 300000
18816 Tempo 300000
18821 Tempo 301507
18826 Tempo 303030
18831 Tempo 304568
18836 Tempo 306122
18841 Tempo 307692
18846 Tempo 309278
18851 Tempo 310880
18856 Tempo 312500
18861 Tempo 314136
18866 Tempo 315789
18871 Tempo 317460
18876 Tempo 319148
18881 Tempo 320855
18886 Tempo 322580
18891 Tempo 324324
18896 Tempo 326086
18901 Tempo 327868
18906 Tempo 329670
18911 Tempo 331491
18916 Tempo 333333
18921 Tempo 335195
18926 Tempo 337078
18931 Tempo 338983
18936 Tempo 340909
18941 Tempo 342857
18946 Tempo 344827
18951 Tempo 346820
18956 Tempo 348837
18961 Tempo 350877
18966 Tempo 352941
18971 Tempo 355029
18976 Tempo 357142
18981 Tempo 359281
18986 Tempo 361445
18991 Tempo 363636
18996 Tempo 365853
19001 Tempo 368098
19006 Tempo 370370
19011 Tempo 372670
19016 Tempo 375000
19021 Tempo 377358
19026 Tempo 379746
19031 Tempo 382165
19036 Tempo 384615
19041 Tempo 387096
19046 Tempo 389610
19051 Tempo 392156
19056 Tempo 394736
19061 Tempo 397350
19066 Tempo 400000
19071 Tempo 402684
19076 Tempo 405405
19081 Tempo 408163
19086 Tempo 410958
19091 Tempo 413793
19096 Tempo 416666
19101 Tempo 419580
19106 Tempo 422535
19111 Tempo 425531
19116 Tempo 428571
19121 Tempo 431654
19126 Tempo 434782
19131 Tempo 437956
19136 Tempo 441176
19141 Tempo 444444
19146 Tempo 447761
19151 Tempo 451127
19156 Tempo 454545
19161 Tempo 458015
19166 Tempo 461538
26112 Tempo 300000
32064 Tempo 1500000
32448 TimeSig 1/4 96 8
32544 TimeSig 2/4 96 8
32544 Tempo 500000
34272 Tempo 500000
34329 Tempo 495867
34386 Tempo 491803
34443 Tempo 487804
34500 Tempo 483870
34557 Tempo 480000
34614 Tempo 476190
34671 Tempo 472440
34728 Tempo 468750
34785 Tempo 465116
34842 Tempo 461538
34899 Tempo 458015
34956 Tempo 454545
35013 Tempo 451127
35070 Tempo 447761
35127 Tempo 444444
35184 Tempo 441176
35241 Tempo 437956
35298 Tempo 434782
35355 Tempo 431654
35412 Tempo 428571
35469 Tempo 425531
35526 Tempo 422535
35583 Tempo 419580
35640 Tempo 416666
35697 Tempo 413793
35754 Tempo 410958
35811 Tempo 408163
35868 Tempo 405405
35925 Tempo 402684
35982 Tempo 400000
56352 Tempo 400000
56371 Tempo 397350
56390 Tempo 394736
56409 Tempo 392156
56428 Tempo 389610
56447 Tempo 387096
56466 Tempo 384615
56485 Tempo 382165
56504 Tempo 379746
56523 Tempo 377358
56542 Tempo 375000
56561 Tempo 372670
56580 Tempo 370370
56599 Tempo 368098
56618 Tempo 365853
56637 Tempo 363636
56656 Tempo 361445
56675 Tempo 359281
56694 Tempo 357142
56713 Tempo 355029
56732 Tempo 352941
56751 Tempo 350877
56770 Tempo 348837
56789 Tempo 346820
56808 Tempo 344827
56827 Tempo 342857
56846 Tempo 340909
56865 Tempo 338983
56884 Tempo 337078
56903 Tempo 335195
56922 Tempo 333333
56941 Tempo 331491
56960 Tempo 329670
56979 Tempo 327868
56998 Tempo 326086
57017 Tempo 324324
57036 Tempo 322580
57055 Tempo 320855
57074 Tempo 319148
57093 Tempo 317460
57112 Tempo 315789
60192 Tempo 315789
60218 Tempo 314136
60244 Tempo 312500
60270 Tempo 310880
60296 Tempo 309278
60322 Tempo 307692
60348 Tempo 306122
60374 Tempo 304568
60400 Tempo 303030
60426 Tempo 301507
60452 Tempo 300000
60478 Tempo 298507
60504 Tempo 297029
60530 Tempo 295566
60556 Tempo 294117
60582 Tempo 292682
60608 Tempo 291262
60634 Tempo 289855
60660 Tempo 288461
60686 Tempo 287081
60712 Tempo 285714
60738 Tempo 284360
60764 Tempo 283018
60790 Tempo 281690
60816 Tempo 280373
60842 Tempo 279069
60868 Tempo 277777
60894 Tempo 276497
60920 Tempo 275229
60946 Tempo 273972
60972 Tempo 272727
60998 Tempo 271493
61024 Tempo 270270
61050 Tempo 269058
61076 Tempo 267857
61102 Tempo 266666
61128 Tempo 264718
61128 Meta TrkEnd
TrkEnd
MTrk
0 Par ch=6 c=0 v=0
0 TimeSig 2/4 96 8
0 Tempo 500000
3264 TimeSig 3/4 96 8
3552 TimeSig 1/4 96 8
3552 Tempo 600000
3564 Tempo 594059
3576 Tempo 588235
3588 Tempo 582524
3600 Tempo 576923
3612 Tempo 571428
3624 Tempo 566037
3636 Tempo 560747
3648 Tempo 555555
3660 Tempo 550458
3672 Tempo 545454
3684 Tempo 540540
3696 Tempo 535714
3708 Tempo 530973
3720 Tempo 526315
3732 Tempo 521739
3744 Tempo 517241
3756 Tempo 512820
3768 Tempo 508474
3780 Tempo 504201
3792 Tempo 500000
3804 Tempo 495867
3816 Tempo 491803
3828 Tempo 487804
3840 Tempo 483870
3852 Tempo 480000
3864 Tempo 476190
3876 Tempo 472440
3888 Tempo 468750
3900 Tempo 465116
3912 Tempo 461538
3924 Tempo 458015
3936 Tempo 454545
3948 Tempo 451127
3960 Tempo 447761
3972 Tempo 444444
3984 Tempo 441176
3996 Tempo 437956
4008 Tempo 434782
4020 Tempo 431654
4032 Tempo 428571
4044 Tempo 425531
4056 Tempo 422535
4068 Tempo 419580
4080 Tempo 416666
4092 Tempo 413793
4104 Tempo 410958
4116 Tempo 408163
4128 Tempo 405405
4140 Tempo 402684
4152 Tempo 400000
4164 Tempo 397350
4176 Tempo 394736
4188 Tempo 392156
4200 Tempo 389610
4212 Tempo 387096
4224 Tempo 384615
4236 Tempo 382165
4248 Tempo 379746
4260 Tempo 377358
4272 Tempo 375000
4284 Tempo 372670
4296 Tempo 370370
4308 Tempo 368098
4320 Tempo 365853
4332 Tempo 363636
4344 Tempo 361445
4356 Tempo 359281
4368 Tempo 357142
4380 Tempo 355029
4392 Tempo 352941
4404 Tempo 350877
4416 Tempo 348837
4428 Tempo 346820
4440 Tempo 344827
4452 Tempo 342857
4464 Tempo 340909
4476 Tempo 338983
4488 Tempo 337078
4500 Tempo 335195
4512 Tempo 333333
4524 Tempo 331491
4536 Tempo 329670
4548 Tempo 327868
4560 Tempo 326086
4572 Tempo 324324
4584 Tempo 322580
4596 Tempo 320855
4608 Tempo 319148
4620 Tempo 317460
4632 Tempo 315789
4800 TimeSig 2/4 96 8
5184 Tempo 315789
5187 Tempo 317460
5190 Tempo 319148
5193 Tempo 320855
5196 Tempo 322580
5199 Tempo 324324
5202 Tempo 326086
5205 Tempo 327868
5208 Tempo 329670
5211 Tempo 331491
5214 Tempo 333333
5217 Tempo 335195
5220 Tempo 337078
5223 Tempo 338983
5226 Tempo 340909
5229 Tempo 342857
5232 Tempo 344827
5235 Tempo 346820
5238 Tempo 348837
5241 Tempo 350877
5244 Tempo 352941
5247 Tempo 355029
5250 Tempo 357142
5253 Tempo 359281
5256 Tempo 361445
5259 Tempo 363636
5262 Tempo 365853
5265 Tempo 368098
5268 Tempo 370370
5271 Tempo 372670
5274 Tempo 375000
5277 Tempo 377358
5280 Tempo 379746
5283 Tempo 382165
5286 Tempo 384615
5289 Tempo 387096
5292 Tempo 389610
5295 Tempo 392156
5298 Tempo 394736
5301 Tempo 397350
5304 Tempo 400000
5307 Tempo 402684
5310 Tempo 405405
5313 Tempo 408163
5316 Tempo 410958
5319 Tempo 413793
5322 Tempo 416666
5325 Tempo 419580
5328 Tempo 422535
5331 Tempo 425531
5334 Tempo 428571
5337 Tempo 431654
5340 Tempo 434782
5343 Tempo 437956
5346 Tempo 441176
5349 Tempo 444444
5352 Tempo 447761
5355 Tempo 451127
5358 Tempo 454545
5361 Tempo 458015
5364 Tempo 461538
5367 Tempo 465116
5370 Tempo 468750
5373 Tempo 472440
5376 Tempo 476190
5379 Tempo 480000
5382 Tempo 483870
5385 Tempo 487804
5388 Tempo 491803
5391 Tempo 495867
5394 Tempo 500000
5397 Tempo 504201
5400 Tempo 508474
5403 Tempo 512820
5406 Tempo 517241
5409 Tempo 521739
5412 Tempo 526315
5415 Tempo 530973
5418 Tempo 535714
5421 Tempo 540540
5424 Tempo 545454
5427 Tempo 550458
5430 Tempo 555555
5433 Tempo 560747
5436 Tempo 566037
5439 Tempo 571428
5442 Tempo 576923
5445 Tempo 582524
5448 Tempo 588235
5451 Tempo 594059
5454 Tempo 600000
5457 Tempo 606060
5460 Tempo 612244
5463 Tempo 618556
5466 Tempo 625000
5469 Tempo 631578
5472 Tempo 638297
5475 Tempo 645161
5478 Tempo 652173
5481 Tempo 659340
5484 Tempo 666666
5487 Tempo 674157
5490 Tempo 681818
5493 Tempo 689655
5496 Tempo 697674
5499 Tempo 705882
5502 Tempo 714285
5505 Tempo 722891
5508 Tempo 731707
5511 Tempo 740740
5514 Tempo 750000
5568 Tempo 461538
11712 TimeSig 1/4 96 8
12480 TimeSig 2/4 96 8
12480 Tempo 300000
18816 Tempo 300000
18821 Tempo 301507
18826 Tempo 303030
18831 Tempo 304568
18836 Tempo 306122
18841 Tempo 307692
18846 Tempo 309278
18851 Tempo 310880
18856 Tempo 312500
18861 Tempo 314136
18866 Tempo 315789
18871 Tempo 317460
18876 Tempo 319148
18881 Tempo 320855
18886 Tempo 322580
18891 Tempo 324324
18896 Tempo 326086
18901 Tempo 327868
18906 Tempo 329670
18911 Tempo 331491
18916 Tempo 333333
18921 Tempo 335195
18926 Tempo 337078
18931 Tempo 338983
18936 Tempo 340909
18941 Tempo 342857
18946 Tempo 344827
18951 Tempo 346820
18956 Tempo 348837
18961 Tempo 350877
18966 Tempo 352941
18971 Tempo 355029
18976 Tempo 357142
18981 Tempo 359281
18986 Tempo 361445
18991 Tempo 363636
18996 Tempo 365853
19001 Tempo 368098
19006 Tempo 370370
19011 Tempo 372670
19016 Tempo 375000
19021 Tempo 377358
19026 Tempo 379746
19031 Tempo 382165
19036 Tempo 384615
19041 Tempo 387096
19046 Tempo 389610
19051 Tempo 392156
19056 Tempo 394736
19061 Tempo 397350
19066 Tempo 400000
19071 Tempo 402684
19076 Tempo 405405
19081 Tempo 408163
19086 Tempo 410958
19091 Tempo 413793
19096 Tempo 416666
19101 Tempo 419580
19106 Tempo 422535
19111 Tempo 425531
19116 Tempo 428571
19121 Tempo 431654
19126 Tempo 434782
19131 Tempo 437956
19136 Tempo 441176
19141 Tempo 444444
19146 Tempo 447761
19151 Tempo 451127
19156 Tempo 454545
19161 Tempo 458015
19166 Tempo 461538
26112 Tempo 300000
32064 Tempo 1500000
32448 TimeSig 1/4 96 8
32544 TimeSig 2/4 96 8
32544 Tempo 500000
34272 Tempo 500000
34329 Tempo 495867
34386 Tempo 491803
34443 Tempo 487804
34500 Tempo 483870
34557 Tempo 480000
34614 Tempo 476190
34671 Tempo 472440
34728 Tempo 468750
34785 Tempo 465116
34842 Tempo 461538
34899 Tempo 458015
34956 Tempo 454545
35013 Tempo 451127
35070 Tempo 447761
35127 Tempo 444444
35184 Tempo 441176
35241 Tempo 437956
35298 Tempo 434782
35355 Tempo 431654
35412 Tempo 428571
35469 Tempo 425531
35526 Tempo 422535
35583 Tempo 419580
35640 Tempo 416666
35697 Tempo 413793
35754 Tempo 410958
35811 Tempo 408163
35868 Tempo 405405
35925 Tempo 402684
35982 Tempo 400000
56352 Tempo 400000
56371 Tempo 397350
56390 Tempo 394736
56409 Tempo 392156
56428 Tempo 389610
56447 Tempo 387096
56466 Tempo 384615
56485 Tempo 382165
56504 Tempo 379746
56523 Tempo 377358
56542 Tempo 375000
56561 Tempo 372670
56580 Tempo 370370
56599 Tempo 368098
56618 Tempo 365853
56637 Tempo 363636
56656 Tempo 361445
56675 Tempo 359281
56694 Tempo 357142
56713 Tempo 355029
56732 Tempo 352941
56751 Tempo 350877
56770 Tempo 348837
56789 Tempo 346820
56808 Tempo 344827
56827 Tempo 342857
56846 Tempo 340909
56865 Tempo 338983
56884 Tempo 337078
56903 Tempo 335195
56922 Tempo 333333
56941 Tempo 331491
56960 Tempo 329670
56979 Tempo 327868
56998 Tempo 326086
57017 Tempo 324324
57036 Tempo 322580
57055 Tempo 320855
57074 Tempo 319148
57093 Tempo 317460
57112 Tempo 315789
60192 Tempo 315789
60218 Tempo 314136
60244 Tempo 312500
60270 Tempo 310880
60296 Tempo 309278
60322 Tempo 307692
60348 Tempo 306122
60374 Tempo 304568
60400 Tempo 303030
60426 Tempo 301507
60452 Tempo 300000
60478 Tempo 298507
60504 Tempo 297029
60530 Tempo 295566
60556 Tempo 294117
60582 Tempo 292682
60608 Tempo 291262
60634 Tempo 289855
60660 Tempo 288461
60686 Tempo 287081
60712 Tempo 285714
60738 Tempo 284360
60764 Tempo 283018
60790 Tempo 281690
60816 Tempo 280373
60842 Tempo 279069
60868 Tempo 277777
60894 Tempo 276497
60920 Tempo 275229
60946 Tempo 273972
60972 Tempo 272727
60998 Tempo 271493
61024 Tempo 270270
61050 Tempo 269058
61076 Tempo 267857
61102 Tempo 266666
61128 Tempo 264718
61128 Meta TrkEnd
TrkEnd
MTrk
0 Par ch=7 c=0 v=0
0 TimeSig 2/4 96 8
0 Tempo 500000
3264 TimeSig 3/4 96 8
3552 TimeSig 1/4 96 8
3552 Tempo 600000
3564 Tempo 594059
3576 Tempo 588235
3588 Tempo 582524
3600 Tempo 576923
3612 Tempo 571428
3624 Tempo 566037
3636 Tempo 560747
3648 Tempo 555555
3660 Tempo 550458
3672 Tempo 545454
3684 Tempo 540540
3696 Tempo 535714
3708 Tempo 530973
3720 Tempo 526315
3732 Tempo 521739
3744 Tempo 517241
3756 Tempo 512820
3768 Tempo 508474
3780 Tempo 504201
3792 Tempo 500000
3804 Tempo 495867
3816 Tempo 491803
3828 Tempo 487804
3840 Tempo 483870
3852 Tempo 480000
3864 Tempo 476190
3876 Tempo 472440
3888 Tempo 468750
3900 Tempo 465116
3912 Tempo 461538
3924 Tempo 458015
3936 Tempo 454545
3948 Tempo 451127
3960 Tempo 447761
3972 Tempo 444444
3984 Tempo 441176
3996 Tempo 437956
4008 Tempo 434782
4020 Tempo 431654
4032 Tempo 428571
4044 Tempo 425531
4056 Tempo 422535
4068 Tempo 419580
4080 Tempo 416666
4092 Tempo 413793
4104 Tempo 410958
4116 Tempo 408163
4128 Tempo 405405
4140 Tempo 402684
4152 Tempo 400000
4164 Tempo 397350
4176 Tempo 394736
4188 Tempo 392156
4200 Tempo 389610
4212 Tempo 387096
4224 Tempo 384615
4236 Tempo 382165
4248 Tempo 379746
4260 Tempo 377358
4272 Tempo 375000
4284 Tempo 372670
4296 Tempo 370370
4308 Tempo 368098
4320 Tempo 365853
4332 Tempo 363636
4344 Tempo 361445
4356 Tempo 359281
4368 Tempo 357142
4380 Tempo 355029
4392 Tempo 352941
4404 Tempo 350877
4416 Tempo 348837
4428 Tempo 346820
4440 Tempo 344827
4452 Tempo 342857
4464 Tempo 340909
4476 Tempo 338983
4488 Tempo 337078
4500 Tempo 335195
4512 Tempo 333333
4524 Tempo 331491
4536 Tempo 329670
4548 Tempo 327868
4560 Tempo 326086
4572 Tempo 324324
4584 Tempo 322580
4596 Tempo 320855
4608 Tempo 319148
4620 Tempo 317460
4632 Tempo 315789
4800 TimeSig 2/4 96 8
5184 Tempo 315789
5187 Tempo 317460
5190 Tempo 319148
5193 Tempo 320855
5196 Tempo 322580
5199 Tempo 324324
5202 Tempo 326086
5205 Tempo 327868
5208 Tempo 329670
5211 Tempo 331491
5214 Tempo 333333
5217 Tempo 335195
5220 Tempo 337078
5223 Tempo 338983
5226 Tempo 340909
5229 Tempo 342857
5232 Tempo 344827
5235 Tempo 346820
5238 Tempo 348837
5241 Tempo 350877
5244 Tempo 352941
5247 Tempo 355029
5250 Tempo 357142
5253 Tempo 359281
5256 Tempo 361445
5259 Tempo 363636
5262 Tempo 365853
5265 Tempo 368098
5268 Tempo 370370
5271 Tempo 372670
5274 Tempo 375000
5277 Tempo 377358
5280 Tempo 379746
5283 Tempo 382165
5286 Tempo 384615
5289 Tempo 387096
5292 Tempo 389610
5295 Tempo 392156
5298 Tempo 394736
5301 Tempo 397350
5304 Tempo 400000
5307 Tempo 402684
5310 Tempo 405405
5313 Tempo 408163
5316 Tempo 410958
5319 Tempo 413793
5322 Tempo 416666
5325 Tempo 419580
5328 Tempo 422535
5331 Tempo 425531
5334 Tempo 428571
5337 Tempo 431654
5340 Tempo 434782
5343 Tempo 437956
5346 Tempo 441176
5349 Tempo 444444
5352 Tempo 447761
5355 Tempo 451127
5358 Tempo 454545
5361 Tempo 458015
5364 Tempo 461538
5367 Tempo 465116
5370 Tempo 468750
5373 Tempo 472440
5376 Tempo 476190
5379 Tempo 480000
5382 Tempo 483870
5385 Tempo 487804
5388 Tempo 491803
5391 Tempo 495867
5394 Tempo 500000
5397 Tempo 504201
5400 Tempo 508474
5403 Tempo 512820
5406 Tempo 517241
5409 Tempo 521739
5412 Tempo 526315
5415 Tempo 530973
5418 Tempo 535714
5421 Tempo 540540
5424 Tempo 545454
5427 Tempo 550458
5430 Tempo 555555
5433 Tempo 560747
5436 Tempo 566037
5439 Tempo 571428
5442 Tempo 576923
5445 Tempo 582524
5448 Tempo 588235
5451 Tempo 594059
5454 Tempo 600000
5457 Tempo 606060
5460 Tempo 612244
5463 Tempo 618556
5466 Tempo 625000
5469 Tempo 631578
5472 Tempo 638297
5475 Tempo 645161
5478 Tempo 652173
5481 Tempo 659340
5484 Tempo 666666
5487 Tempo 674157
5490 Tempo 681818
5493 Tempo 689655
5496 Tempo 697674
5499 Tempo 705882
5502 Tempo 714285
5505 Tempo 722891
5508 Tempo 731707
5511 Tempo 740740
5514 Tempo 750000
5568 Tempo 461538
11712 TimeSig 1/4 96 8
12480 TimeSig 2/4 96 8
12480 Tempo 300000
18816 Tempo 300000
18821 Tempo 301507
18826 Tempo 303030
18831 Tempo 304568
18836 Tempo 306122
18841 Tempo 307692
18846 Tempo 309278
18851 Tempo 310880
18856 Tempo 312500
18861 Tempo 314136
18866 Tempo 315789
18871 Tempo 317460
18876 Tempo 319148
18881 Tempo 320855
18886 Tempo 322580
18891 Tempo 324324
18896 Tempo 326086
18901 Tempo 327868
18906 Tempo 329670
18911 Tempo 331491
18916 Tempo 333333
18921 Tempo 335195
18926 Tempo 337078
18931 Tempo 338983
18936 Tempo 340909
18941 Tempo 342857
18946 Tempo 344827
18951 Tempo 346820
18956 Tempo 348837
18961 Tempo 350877
18966 Tempo 352941
18971 Tempo 355029
18976 Tempo 357142
18981 Tempo 359281
18986 Tempo 361445
18991 Tempo 363636
18996 Tempo 365853
19001 Tempo 368098
19006 Tempo 370370
19011 Tempo 372670
19016 Tempo 375000
19021 Tempo 377358
19026 Tempo 379746
19031 Tempo 382165
19036 Tempo 384615
19041 Tempo 387096
19046 Tempo 389610
19051 Tempo 392156
19056 Tempo 394736
19061 Tempo 397350
19066 Tempo 400000
19071 Tempo 402684
19076 Tempo 405405
19081 Tempo 408163
19086 Tempo 410958
19091 Tempo 413793
19096 Tempo 416666
19101 Tempo 419580
19106 Tempo 422535
19111 Tempo 425531
19116 Tempo 428571
19121 Tempo 431654
19126 Tempo 434782
19131 Tempo 437956
19136 Tempo 441176
19141 Tempo 444444
19146 Tempo 447761
19151 Tempo 451127
19156 Tempo 454545
19161 Tempo 458015
19166 Tempo 461538
26112 Tempo 300000
32064 Tempo 1500000
32448 TimeSig 1/4 96 8
32544 TimeSig 2/4 96 8
32544 Tempo 500000
34272 Tempo 500000
34329 Tempo 495867
34386 Tempo 491803
34443 Tempo 487804
34500 Tempo 483870
34557 Tempo 480000
34614 Tempo 476190
34671 Tempo 472440
34728 Tempo 468750
34785 Tempo 465116
34842 Tempo 461538
34899 Tempo 458015
34956 Tempo 454545
35013 Tempo 451127
35070 Tempo 447761
35127 Tempo 444444
35184 Tempo 441176
35241 Tempo 437956
35298 Tempo 434782
35355 Tempo 431654
35412 Tempo 428571
35469 Tempo 425531
35526 Tempo 422535
35583 Tempo 419580
35640 Tempo 416666
35697 Tempo 413793
35754 Tempo 410958
35811 Tempo 408163
35868 Tempo 405405
35925 Tempo 402684
35982 Tempo 400000
56352 Tempo 400000
56371 Tempo 397350
56390 Tempo 394736
56409 Tempo 392156
56428 Tempo 389610
56447 Tempo 387096
56466 Tempo 384615
56485 Tempo 382165
56504 Tempo 379746
56523 Tempo 377358
56542 Tempo 375000
56561 Tempo 372670
56580 Tempo 370370
56599 Tempo 368098
56618 Tempo 365853
56637 Tempo 363636
56656 Tempo 361445
56675 Tempo 359281
56694 Tempo 357142
56713 Tempo 355029
56732 Tempo 352941
56751 Tempo 350877
56770 Tempo 348837
56789 Tempo 346820
56808 Tempo 344827
56827 Tempo 342857
56846 Tempo 340909
56865 Tempo 338983
56884 Tempo 337078
56903 Tempo 335195
56922 Tempo 333333
56941 Tempo 331491
56960 Tempo 329670
56979 Tempo 327868
56998 Tempo 326086
57017 Tempo 324324
57036 Tempo 322580
57055 Tempo 320855
57074 Tempo 319148
57093 Tempo 317460
57112 Tempo 315789
60192 Tempo 315789
60218 Tempo 314136
60244 Tempo 312500
60270 Tempo 310880
60296 Tempo 309278
60322 Tempo 307692
60348 Tempo 306122
60374 Tempo 304568
60400 Tempo 303030
60426 Tempo 301507
60452 Tempo 300000
60478 Tempo 298507
60504 Tempo 297029
60530 Tempo 295566
60556 Tempo 294117
60582 Tempo 292682
60608 Tempo 291262
60634 Tempo 289855
60660 Tempo 288461
60686 Tempo 287081
60712 Tempo 285714
60738 Tempo 284360
60764 Tempo 283018
60790 Tempo 281690
60816 Tempo 280373
60842 Tempo 279069
60868 Tempo 277777
60894 Tempo 276497
60920 Tempo 275229
60946 Tempo 273972
60972 Tempo 272727
60998 Tempo 271493
61024 Tempo 270270
61050 Tempo 269058
61076 Tempo 267857
61102 Tempo 266666
61128 Tempo 264718
61128 Meta TrkEnd
TrkEnd
