MFile 0 1 480
MTrk
0 TimeSig 4/4 24 8
0 KeySig 0 major
0 Tempo 500000
0 SysEx f0 7e 7f 09 01 f7
0 PrCh ch=1 p=0
0 PrCh ch=2 p=0
2005 On ch=1 n=e4 v=125
2047 On ch=1 n=e4 v=0
2167 On ch=1 n=e4 v=127
2772 Par ch=1 c=64 v=127
2772 Par ch=2 c=64 v=127
3555 Par ch=1 c=64 v=0
3555 Par ch=2 c=64 v=0
4277 On ch=1 n=d#4 v=125
4332 On ch=1 n=e4 v=0
4670 On ch=1 n=c4 v=125
4752 On ch=1 n=d#4 v=0
4952 On ch=1 n=b3 v=127
5015 On ch=1 n=c4 v=0
5175 On ch=1 n=e4 v=127
5227 On ch=1 n=b3 v=0
5322 On ch=1 n=d#4 v=127
5407 On ch=1 n=e4 v=0
5482 On ch=1 n=f4 v=127
5537 On ch=1 n=d#4 v=0
5617 On ch=1 n=f4 v=0
5625 On ch=1 n=e4 v=127
5795 On ch=1 n=a4 v=126
5845 On ch=1 n=e4 v=0
5902 On ch=1 n=g#4 v=124
5985 On ch=1 n=a4 v=0
6050 On ch=1 n=f4 v=122
6102 On ch=1 n=g#4 v=0
6150 On ch=1 n=e4 v=123
6192 On ch=1 n=f4 v=0
6297 On ch=1 n=a4 v=126
6352 On ch=1 n=e4 v=0
6400 On ch=1 n=g#4 v=127
6452 On ch=1 n=a4 v=0
6540 On ch=1 n=g#4 v=0
6540 On ch=1 n=c5 v=127
6660 On ch=1 n=b4 v=127
6702 On ch=1 n=c5 v=0
6770 On ch=1 n=e5 v=127
6805 On ch=1 n=b4 v=0
8860 On ch=1 n=e5 v=0
8870 On ch=1 n=d#5 v=126
9232 On ch=1 n=c5 v=124
9292 On ch=1 n=d#5 v=0
9520 On ch=1 n=b4 v=127
9554 On ch=1 n=c5 v=0
9752 On ch=1 n=e5 v=127
9762 On ch=1 n=b4 v=0
11902 On ch=1 n=d#5 v=106
11959 On ch=1 n=e5 v=0
12359 On ch=1 n=c5 v=99
12487 On ch=1 n=d#5 v=0
12737 On ch=1 n=b4 v=98
12811 On ch=1 n=c5 v=0
13069 On ch=1 n=e5 v=103
13119 On ch=1 n=b4 v=0
13392 On ch=1 n=d#5 v=98
13471 On ch=1 n=e5 v=0
13699 On ch=1 n=f5 v=95
13702 On ch=1 n=d#5 v=0
14019 On ch=1 n=f5 v=0
14029 On ch=1 n=e5 v=98
14347 On ch=2 n=a5 v=56
14444 On ch=1 n=e5 v=0
14854 On ch=2 n=g#5 v=52
14977 On ch=2 n=a5 v=0
15389 On ch=2 n=c6 v=55
15549 On ch=2 n=g#5 v=0
16157 Par ch=1 c=67 v=127
16157 Par ch=2 c=67 v=127
16367 On ch=2 n=b5 v=52
16426 On ch=2 n=c6 v=0
17089 Par ch=1 c=64 v=127
17089 Par ch=2 c=64 v=127
17597 On ch=1 n=a3 v=64
17689 On ch=1 n=e4 v=63
17857 On ch=1 n=c5 v=60
17919 Par ch=1 c=64 v=0
17919 Par ch=2 c=64 v=0
17999 On ch=1 n=e5 v=58
18144 On ch=2 n=a5 v=57
18222 On ch=2 n=b5 v=0
18262 On ch=2 n=e6 v=64
18542 Par ch=1 c=64 v=127
18542 Par ch=2 c=64 v=127
18757 On ch=1 n=a3 v=0
18821 On ch=1 n=e4 v=0
18939 On ch=1 n=e5 v=0
18944 On ch=1 n=c5 v=0
19422 On ch=1 n=c5 v=52
19422 On ch=1 n=e5 v=52
19811 On ch=2 n=a5 v=0
20607 On ch=2 n=d#6 v=55
20659 On ch=2 n=e6 v=0
21044 On ch=2 n=c6 v=52
21067 On ch=2 n=d#6 v=0
21327 On ch=1 n=c5 v=0
21417 On ch=2 n=b5 v=52
21469 On ch=2 n=c6 v=0
21707 On ch=1 n=c5 v=55
21714 On ch=1 n=e4 v=55
21732 Par ch=1 c=64 v=0
21732 Par ch=2 c=64 v=0
21779 On ch=2 n=c6 v=56
21872 On ch=2 n=b5 v=0
22174 On ch=2 n=b5 v=52
22216 On ch=2 n=c6 v=0
22409 Par ch=1 c=67 v=0
22409 Par ch=2 c=67 v=0
22456 On ch=2 n=b5 v=0
22472 On ch=2 n=a5 v=52
22567 On ch=1 n=e5 v=0
22569 On ch=1 n=c5 v=0
22692 On ch=1 n=c5 v=52
22704 On ch=1 n=e5 v=52
22842 Par ch=1 c=64 v=127
22842 Par ch=2 c=64 v=127
23176 On ch=1 n=e5 v=0
23366 On ch=1 n=e4 v=0
23449 On ch=1 n=c5 v=0
23837 On ch=1 n=a3 v=93
23977 On ch=1 n=e4 v=91
24059 On ch=1 n=a3 v=0
24084 On ch=1 n=c5 v=89
24109 On ch=1 n=e4 v=0
24239 On ch=2 n=a5 v=0
24249 On ch=1 n=c5 v=0
24257 On ch=1 n=e5 v=87
24344 On ch=2 n=a5 v=91
24479 On ch=2 n=e6 v=123
25124 On ch=1 n=e5 v=0
25419 On ch=1 n=e5 v=90
25429 On ch=1 n=c5 v=90
26272 On ch=2 n=d#6 v=127
26319 On ch=2 n=e6 v=0
26682 Par ch=1 c=67 v=127
26682 Par ch=2 c=67 v=127
26797 On ch=2 n=c6 v=124
26827 On ch=2 n=d#6 v=0
27187 On ch=2 n=b5 v=127
27226 On ch=2 n=a5 v=0
27247 On ch=2 n=c6 v=0
27319 On ch=2 n=b5 v=0
27366 On ch=1 n=c5 v=0
27424 On ch=2 n=b5 v=92
27519 On ch=2 n=d#6 v=93
27536 On ch=2 n=b5 v=0
27569 Par ch=1 c=64 v=0
27569 Par ch=2 c=64 v=0
27599 On ch=2 n=c6 v=112
27604 On ch=1 n=c5 v=95
27607 On ch=1 n=e4 v=95
27609 On ch=2 n=d#6 v=0
27879 On ch=2 n=c6 v=0
27899 On ch=2 n=b5 v=111
28099 On ch=2 n=b5 v=0
28117 On ch=2 n=a5 v=113
28224 On ch=1 n=e5 v=0
28226 On ch=1 n=c5 v=0
28357 On ch=1 n=e5 v=83
28357 On ch=1 n=c5 v=83
28394 Par ch=1 c=67 v=0
28394 Par ch=2 c=67 v=0
28409 Par ch=1 c=64 v=127
28409 Par ch=2 c=64 v=127
28774 On ch=1 n=e5 v=0
28779 On ch=1 n=c5 v=0
28857 On ch=1 n=e4 v=0
28932 On ch=2 n=a5 v=0
29134 On ch=1 n=a3 v=125
29237 On ch=1 n=e4 v=127
29306 On ch=1 n=a3 v=0
29324 On ch=1 n=c5 v=127
29324 On ch=1 n=e5 v=127
29324 On ch=2 n=a5 v=127
29324 On ch=2 n=e6 v=127
29359 On ch=2 n=e6 v=0
29359 On ch=1 n=c5 v=0
29364 On ch=1 n=e5 v=0
29366 On ch=2 n=a5 v=0
29377 On ch=1 n=e4 v=0
29474 On ch=1 n=e5 v=127
29474 On ch=2 n=a5 v=127
29484 On ch=2 n=e6 v=127
30194 On ch=1 n=e4 v=90
30266 On ch=1 n=e5 v=0
30269 On ch=2 n=e6 v=0
30276 On ch=2 n=a5 v=0
30294 On ch=1 n=c5 v=92
30329 On ch=1 n=e4 v=0
30391 On ch=2 n=a5 v=127
30401 On ch=2 n=e6 v=127
30408 On ch=1 n=e5 v=117
30413 On ch=1 n=c5 v=0
30771 Par ch=1 c=64 v=0
30771 Par ch=2 c=64 v=0
30848 On ch=1 n=a3 v=115
30938 On ch=2 n=a5 v=0
31086 On ch=1 n=d#4 v=112
31091 Par ch=1 c=64 v=127
31091 Par ch=2 c=64 v=127
31138 On ch=1 n=e5 v=0
31140 On ch=1 n=a3 v=0
31161 On ch=2 n=e6 v=0
31198 On ch=1 n=c5 v=113
31243 On ch=1 n=d#4 v=0
31283 On ch=1 n=c5 v=0
31318 On ch=2 n=a5 v=127
31321 On ch=1 n=f#5 v=127
31321 On ch=2 n=c6 v=127
31321 On ch=2 n=f#6 v=127
32188 On ch=2 n=f#6 v=0
32196 On ch=1 n=f#5 v=0
32506 Par ch=1 c=64 v=0
32506 Par ch=2 c=64 v=0
32533 On ch=1 n=e4 v=98
32583 On ch=1 n=c5 v=98
32643 On ch=1 n=e5 v=100
32661 On ch=2 n=e6 v=127
32713 On ch=1 n=c5 v=0
32768 On ch=1 n=a3 v=102
32778 Par ch=1 c=64 v=127
32778 Par ch=2 c=64 v=127
32800 On ch=1 n=e4 v=0
32875 On ch=1 n=e4 v=103
32918 On ch=2 n=e6 v=0
32935 On ch=1 n=e5 v=0
32937 On ch=2 n=a5 v=0
32975 On ch=2 n=c6 v=0
32985 On ch=1 n=c5 v=124
33037 On ch=1 n=a3 v=0
33053 On ch=2 n=a5 v=127
33055 On ch=1 n=e5 v=127
33055 On ch=2 n=e6 v=127
33127 On ch=1 n=e4 v=0
33177 On ch=1 n=c5 v=0
33533 Par ch=1 c=64 v=0
33533 Par ch=2 c=64 v=0
33598 On ch=1 n=f3 v=118
33788 On ch=1 n=c4 v=115
33820 Par ch=1 c=64 v=127
33820 Par ch=2 c=64 v=127
33880 On ch=1 n=f3 v=0
33908 On ch=1 n=a4 v=118
33910 On ch=2 n=e6 v=0
33918 On ch=2 n=a5 v=0
33927 On ch=1 n=e5 v=0
33937 On ch=1 n=c4 v=0
33990 On ch=1 n=a4 v=0
34045 On ch=2 n=a5 v=127
34057 On ch=2 n=d#6 v=127
34065 On ch=1 n=d#5 v=127
34565 Par ch=1 c=64 v=0
34565 Par ch=2 c=64 v=0
34670 On ch=1 n=d#3 v=127
34892 Par ch=1 c=64 v=127
34892 Par ch=2 c=64 v=127
35100 On ch=1 n=d#3 v=0
35122 On ch=1 n=a3 v=89
35250 On ch=1 n=c4 v=90
35402 On ch=1 n=f#4 v=89
35452 On ch=1 n=d#5 v=0
35457 On ch=2 n=d#6 v=0
35465 On ch=2 n=a5 v=0
35565 On ch=1 n=c5 v=90
35695 On ch=1 n=f#5 v=89
35837 On ch=2 n=c6 v=127
36885 On ch=1 n=c5 v=0
36982 On ch=1 n=f#5 v=0
37472 On ch=2 n=b5 v=101
37524 On ch=2 n=c6 v=0
37634 On ch=1 n=f#4 v=0
37772 On ch=2 n=a5 v=100
37844 On ch=2 n=b5 v=0
37957 On ch=2 n=g#5 v=103
38037 On ch=2 n=a5 v=0
38080 On ch=1 n=c4 v=0
38089 On ch=1 n=a3 v=0
38167 On ch=2 n=a5 v=106
38249 On ch=2 n=g#5 v=0
38290 On ch=2 n=b5 v=108
38379 On ch=2 n=a5 v=0
38490 On ch=2 n=c6 v=110
38522 On ch=2 n=b5 v=0
38597 On ch=1 n=e3 v=93
38700 Par ch=1 c=64 v=0
38700 Par ch=2 c=64 v=0
38835 On ch=2 n=g#5 v=122
38837 On ch=1 n=e5 v=97
38877 On ch=2 n=c6 v=0
39075 Par ch=1 c=64 v=127
39075 Par ch=2 c=64 v=127
39092 On ch=1 n=b3 v=93
39154 On ch=1 n=e3 v=0
39252 On ch=1 n=b3 v=0
39310 On ch=1 n=g#4 v=90
39487 On ch=1 n=b4 v=115
39545 On ch=1 n=g#4 v=0
39822 Par ch=1 c=67 v=127
39822 Par ch=2 c=67 v=127
39840 Par ch=1 c=64 v=0
39840 Par ch=2 c=64 v=0
40080 Par ch=1 c=64 v=127
40080 Par ch=2 c=64 v=127
41270 On ch=1 n=a4 v=110
41299 On ch=1 n=b4 v=0
41540 On ch=1 n=g#4 v=106
41575 On ch=1 n=a4 v=0
41595 Par ch=1 c=64 v=0
41595 Par ch=2 c=64 v=0
41735 On ch=1 n=g#4 v=0
41740 On ch=1 n=f#4 v=103
41902 On ch=1 n=g#4 v=100
41957 On ch=1 n=f#4 v=0
42055 On ch=1 n=a4 v=103
42117 On ch=1 n=g#4 v=0
42195 On ch=1 n=b4 v=105
42217 On ch=1 n=a4 v=0
42267 On ch=2 n=g#5 v=0
42315 On ch=1 n=e4 v=105
42370 On ch=1 n=b4 v=0
42395 On ch=2 n=g#5 v=78
42397 On ch=2 n=b5 v=78
42464 On ch=1 n=e5 v=0
42677 On ch=1 n=g#4 v=99
42799 On ch=1 n=g#4 v=0
42907 Par ch=1 c=64 v=127
42907 Par ch=2 c=64 v=127
42935 On ch=1 n=b4 v=95
43155 On ch=1 n=b4 v=0
43312 On ch=1 n=e5 v=88
43874 On ch=1 n=e5 v=0
43932 Par ch=1 c=67 v=0
43932 Par ch=2 c=67 v=0
44047 On ch=1 n=e4 v=0
44197 On ch=2 n=g#5 v=0
44982 Par ch=1 c=64 v=0
44982 Par ch=2 c=64 v=0
45065 On ch=1 n=g#3 v=127
45117 On ch=2 n=b5 v=0
45227 On ch=2 n=d6 v=127
45235 On ch=1 n=f5 v=127
45275 On ch=1 n=f5 v=0
45277 On ch=2 n=d6 v=0
45280 Par ch=1 c=64 v=127
45280 Par ch=2 c=64 v=127
45335 On ch=1 n=g#3 v=0
45345 On ch=1 n=b4 v=127
45365 On ch=1 n=f5 v=127
45367 On ch=2 n=d6 v=127
45387 On ch=1 n=b4 v=0
45930 Par ch=1 c=64 v=0
45930 Par ch=2 c=64 v=0
46047 On ch=1 n=a3 v=116
46242 Par ch=1 c=64 v=127
46242 Par ch=2 c=64 v=127
46272 On ch=1 n=a3 v=0
46300 On ch=1 n=c5 v=112
46455 On ch=1 n=c5 v=0
46630 On ch=1 n=f5 v=0
46632 On ch=2 n=d6 v=0
46810 On ch=1 n=e5 v=115
46810 On ch=2 n=c6 v=117
46930 On ch=2 n=c6 v=0
46940 On ch=1 n=e5 v=0
47045 On ch=1 n=d5 v=119
47050 Par ch=1 c=64 v=0
47050 Par ch=2 c=64 v=0
47055 On ch=2 n=b5 v=121
47117 On ch=2 n=b5 v=0
47117 On ch=1 n=d5 v=0
47155 On ch=1 n=e3 v=121
47197 On ch=2 n=a5 v=123
47215 On ch=1 n=c5 v=122
47274 On ch=2 n=a5 v=0
47275 On ch=1 n=e3 v=0
47287 On ch=1 n=c5 v=0
47322 On ch=1 n=g#4 v=123
47352 On ch=2 n=c6 v=126
47370 On ch=1 n=e5 v=124
47402 On ch=1 n=g#4 v=0
47422 On ch=2 n=c6 v=0
47430 On ch=1 n=e5 v=0
47442 On ch=2 n=b5 v=127
47460 On ch=1 n=d5 v=127
47477 On ch=1 n=f3 v=127
47522 On ch=1 n=d5 v=0
47522 On ch=2 n=b5 v=0
47522 Par ch=1 c=64 v=127
47522 Par ch=2 c=64 v=127
47570 On ch=1 n=a4 v=127
47590 On ch=1 n=c5 v=127
47600 On ch=2 n=a5 v=127
47662 On ch=1 n=a4 v=0
47712 On ch=1 n=f3 v=0
47892 Par ch=1 c=64 v=0
47892 Par ch=2 c=64 v=0
48020 On ch=2 n=a5 v=0
48030 On ch=1 n=c5 v=0
48067 On ch=1 n=c#4 v=119
48075 On ch=1 n=c#3 v=118
48105 Par ch=1 c=64 v=127
48105 Par ch=2 c=64 v=127
48224 On ch=1 n=c#4 v=0
48225 On ch=1 n=c#3 v=0
48280 On ch=2 n=g6 v=127
48287 On ch=2 n=g5 v=127
48290 On ch=2 n=a#5 v=127
48320 On ch=2 n=g6 v=0
48329 On ch=2 n=g5 v=0
48332 On ch=2 n=a#5 v=0
48387 On ch=1 n=e5 v=127
48397 On ch=2 n=a#5 v=127
48404 On ch=2 n=g6 v=127
48414 On ch=2 n=g5 v=127
48566 On ch=1 n=e5 v=0
48879 Par ch=1 c=64 v=0
48879 Par ch=2 c=64 v=0
49117 On ch=1 n=d3 v=115
49127 On ch=1 n=d4 v=115
49167 Par ch=1 c=64 v=127
49167 Par ch=2 c=64 v=127
49279 On ch=1 n=d3 v=0
49289 On ch=1 n=d4 v=0
49424 On ch=1 n=f4 v=115
49434 On ch=1 n=f5 v=115
49544 On ch=2 n=g5 v=0
49556 On ch=2 n=g6 v=0
49559 On ch=2 n=a#5 v=0
49711 On ch=1 n=f5 v=0
49799 On ch=2 n=a5 v=119
49809 On ch=2 n=f6 v=119
49814 On ch=1 n=f4 v=0
49954 On ch=2 n=a5 v=0
49964 On ch=2 n=f6 v=0
49974 Par ch=1 c=64 v=0
49974 Par ch=2 c=64 v=0
50089 On ch=2 n=g5 v=123
50114 On ch=2 n=e6 v=124
50186 On ch=2 n=e6 v=0
50204 On ch=2 n=g5 v=0
50232 On ch=1 n=a#3 v=127
50244 On ch=1 n=a#2 v=127
50302 Par ch=1 c=64 v=127
50302 Par ch=2 c=64 v=127
50312 On ch=1 n=f5 v=127
50312 On ch=2 n=d6 v=127
50384 On ch=1 n=f5 v=0
50394 On ch=2 n=d6 v=0
50394 On ch=1 n=a#3 v=0
50416 On ch=1 n=a#2 v=0
50466 On ch=1 n=c#4 v=127
50466 On ch=1 n=c#5 v=127
50484 On ch=2 n=a5 v=127
50496 On ch=2 n=f6 v=127
50566 On ch=2 n=a5 v=0
50568 On ch=2 n=f6 v=0
50656 On ch=2 n=g5 v=127
50666 On ch=2 n=e6 v=127
50678 On ch=1 n=c#4 v=0
50696 On ch=1 n=c#5 v=0
50733 On ch=2 n=g5 v=0
50736 On ch=2 n=e6 v=0
50754 On ch=1 n=d4 v=127
50774 On ch=1 n=f5 v=127
50786 On ch=1 n=d5 v=127
50789 On ch=2 n=d6 v=127
50881 On ch=1 n=d4 v=0
50888 On ch=1 n=d5 v=0
50986 On ch=1 n=f5 v=0
51136 Par ch=1 c=64 v=0
51136 Par ch=2 c=64 v=0
51221 On ch=1 n=f2 v=127
51251 On ch=1 n=f3 v=126
51346 On ch=2 n=d6 v=0
51384 Par ch=1 c=64 v=127
51384 Par ch=2 c=64 v=127
51403 On ch=1 n=f3 v=0
51403 On ch=1 n=f2 v=0
51441 On ch=2 n=a5 v=127
51441 On ch=2 n=a6 v=127
51444 On ch=2 n=d6 v=127
51483 On ch=2 n=a6 v=0
51483 On ch=2 n=a5 v=0
51484 On ch=2 n=d6 v=0
51551 On ch=1 n=f5 v=127
51561 On ch=1 n=f4 v=126
51564 On ch=2 n=a6 v=127
51574 On ch=2 n=d6 v=127
51579 On ch=2 n=a5 v=127
52044 On ch=2 n=a6 v=0
52051 On ch=2 n=a5 v=0
52061 On ch=2 n=d6 v=0
52171 On ch=1 n=f5 v=0
52193 On ch=1 n=f4 v=0
52201 On ch=2 n=a6 v=127
52204 On ch=2 n=d6 v=127
52221 On ch=2 n=a5 v=127
52361 On ch=1 n=e4 v=124
52384 On ch=1 n=e5 v=123
52406 On ch=1 n=e4 v=0
52424 On ch=1 n=e5 v=0
52496 On ch=2 n=a5 v=0
52516 On ch=1 n=d5 v=122
52516 On ch=1 n=d4 v=122
52548 On ch=1 n=d5 v=0
52558 On ch=1 n=d4 v=0
52566 On ch=2 n=d6 v=0
52626 On ch=1 n=c#4 v=127
52626 On ch=1 n=c#5 v=127
52646 On ch=2 n=g#5 v=127
52668 On ch=1 n=c#5 v=0
52668 On ch=1 n=c#4 v=0
52668 On ch=2 n=a6 v=0
52676 On ch=2 n=d6 v=127
52693 On ch=1 n=d4 v=127
52703 On ch=1 n=d5 v=127
52703 On ch=2 n=f6 v=127
52705 Par ch=1 c=64 v=0
52705 Par ch=2 c=64 v=0
52753 On ch=2 n=b6 v=127
52780 On ch=2 n=g#5 v=0
52812 On ch=1 n=d4 v=0
52822 On ch=1 n=d5 v=0
52890 On ch=1 n=c4 v=123
52900 On ch=1 n=c5 v=123
52942 On ch=1 n=c5 v=0
52952 On ch=1 n=c4 v=0
53027 On ch=1 n=b3 v=127
53037 On ch=1 n=b4 v=127
53127 On ch=2 n=d6 v=0
53130 On ch=2 n=b6 v=0
53130 On ch=2 n=f6 v=0
53255 On ch=2 n=a5 v=127
53257 On ch=2 n=d6 v=127
53267 On ch=2 n=f6 v=127
53267 On ch=2 n=a6 v=127
53347 Par ch=1 c=64 v=127
53347 Par ch=2 c=64 v=127
53384 On ch=1 n=b4 v=0
53402 On ch=1 n=b3 v=0
53500 On ch=1 n=a3 v=120
53502 On ch=1 n=a4 v=120
53592 On ch=1 n=a3 v=0
53602 On ch=1 n=a4 v=0
53642 On ch=2 n=f6 v=0
53642 On ch=2 n=d6 v=0
53644 On ch=2 n=a6 v=0
53652 On ch=2 n=a5 v=0
53740 On ch=1 n=g#4 v=116
53757 On ch=1 n=g#3 v=115
53829 On ch=1 n=g#3 v=0
53830 On ch=1 n=g#4 v=0
53927 On ch=1 n=e3 v=113
53935 On ch=1 n=e4 v=113
54027 On ch=1 n=e3 v=0
54050 Par ch=1 c=64 v=0
54050 Par ch=2 c=64 v=0
54070 On ch=1 n=e4 v=0
54145 On ch=1 n=f3 v=127
54145 On ch=1 n=d5 v=127
54147 On ch=1 n=f4 v=127
54147 On ch=1 n=a4 v=127
54147 On ch=2 n=a5 v=127
54347 On ch=1 n=f3 v=0
54349 On ch=1 n=f4 v=0
54445 On ch=1 n=e3 v=122
54455 On ch=1 n=e4 v=122
54627 On ch=1 n=e3 v=0
54642 On ch=1 n=e4 v=0
54735 On ch=1 n=d4 v=117
54735 On ch=1 n=d3 v=117
54820 Par ch=1 c=64 v=127
54820 Par ch=2 c=64 v=127
54902 On ch=1 n=d3 v=0
54902 On ch=1 n=d4 v=0
55017 On ch=1 n=c#3 v=113
55020 On ch=1 n=c#4 v=113
55052 On ch=1 n=d5 v=0
55067 On ch=1 n=a4 v=0
55217 On ch=1 n=c#4 v=0
55332 On ch=1 n=c#3 v=0
55372 Par ch=1 c=64 v=0
55372 Par ch=2 c=64 v=0
55400 On ch=1 n=a#2 v=127
55400 On ch=1 n=a#3 v=127
55402 On ch=1 n=g#4 v=126
55402 On ch=1 n=d5 v=126
55865 On ch=2 n=g#5 v=99
55897 On ch=2 n=a5 v=0
56045 Par ch=1 c=64 v=127
56045 Par ch=2 c=64 v=127
56297 On ch=2 n=g#5 v=0
56299 On ch=1 n=g#4 v=0
56314 On ch=1 n=d5 v=0
56317 On ch=1 n=f5 v=117
56762 On ch=1 n=e5 v=124
56789 On ch=1 n=f5 v=0
56792 On ch=1 n=a#2 v=0
56862 On ch=1 n=a#3 v=0
56865 On ch=1 n=g#2 v=126
56902 Par ch=1 c=64 v=0
56902 Par ch=2 c=64 v=0
57117 On ch=1 n=f4 v=97
57132 On ch=1 n=d3 v=97
57214 On ch=1 n=f4 v=0
57217 Par ch=1 c=64 v=127
57217 Par ch=2 c=64 v=127
57227 On ch=1 n=b3 v=116
57227 On ch=1 n=b4 v=116
57262 On ch=2 n=g5 v=90
57291 On ch=1 n=e5 v=0
57292 On ch=1 n=g#2 v=0
57344 On ch=1 n=b4 v=0
57359 On ch=1 n=d3 v=0
57394 On ch=1 n=b3 v=0
57824 On ch=1 n=f5 v=117
57887 On ch=2 n=g5 v=0
58154 On ch=1 n=e5 v=114
58236 On ch=1 n=f5 v=0
58439 On ch=1 n=d5 v=118
58454 On ch=1 n=e5 v=0
58624 On ch=1 n=d5 v=0
58627 On ch=1 n=e5 v=122
58832 On ch=1 n=d5 v=125
58839 On ch=1 n=e5 v=0
58962 On ch=1 n=d5 v=0
58994 On ch=1 n=e5 v=127
59111 On ch=1 n=e5 v=0
59149 On ch=1 n=d5 v=127
59246 On ch=1 n=d5 v=0
59282 On ch=1 n=e5 v=127
59374 On ch=1 n=e5 v=0
59412 On ch=1 n=d5 v=126
59509 On ch=1 n=d5 v=0
59529 On ch=1 n=e5 v=125
59589 On ch=1 n=e5 v=0
59624 On ch=1 n=d5 v=123
59689 On ch=1 n=d5 v=0
59712 On ch=1 n=e5 v=122
59739 On ch=1 n=e5 v=0
59807 On ch=1 n=d5 v=120
59842 On ch=1 n=d5 v=0
59857 On ch=1 n=e5 v=119
59887 On ch=1 n=e5 v=0
59922 On ch=1 n=d5 v=118
59954 On ch=1 n=d5 v=0
59989 On ch=1 n=e5 v=117
60034 On ch=1 n=e5 v=0
60054 On ch=1 n=d5 v=116
60086 On ch=1 n=d5 v=0
60137 On ch=1 n=e5 v=115
60169 On ch=1 n=e5 v=0
60169 On ch=1 n=d5 v=114
60216 On ch=1 n=d5 v=0
60252 On ch=1 n=e5 v=113
60282 On ch=1 n=e5 v=0
60339 On ch=1 n=d5 v=112
60371 On ch=1 n=d5 v=0
60387 On ch=1 n=e5 v=111
60419 On ch=1 n=e5 v=0
60454 On ch=1 n=d5 v=110
60489 On ch=1 n=d5 v=0
60504 On ch=1 n=e5 v=109
60536 On ch=1 n=e5 v=0
60587 On ch=1 n=d5 v=108
60622 On ch=1 n=d5 v=0
60637 On ch=1 n=e5 v=107
60672 On ch=1 n=e5 v=0
60739 On ch=1 n=d5 v=105
60774 On ch=1 n=d5 v=0
60784 On ch=1 n=e5 v=105
60816 On ch=1 n=e5 v=0
60894 On ch=1 n=d5 v=103
60921 On ch=1 n=d5 v=0
60931 On ch=1 n=e5 v=102
60963 On ch=1 n=e5 v=0
61076 On ch=1 n=d5 v=100
61108 On ch=1 n=d5 v=0
61141 On ch=1 n=e5 v=98
61186 On ch=1 n=e5 v=0
61189 On ch=1 n=d5 v=98
61239 On ch=1 n=d5 v=0
61291 On ch=1 n=c#5 v=97
61356 On ch=1 n=d5 v=95
61436 On ch=1 n=d5 v=0
61453 On ch=1 n=c#5 v=0
61474 On ch=1 n=d#5 v=93
61536 On ch=1 n=d#5 v=0
61539 On ch=1 n=e5 v=105
61594 Par ch=1 c=64 v=0
61594 Par ch=2 c=64 v=0
61601 On ch=1 n=e5 v=0
61606 On ch=1 n=f5 v=118
62654 On ch=1 n=e5 v=127
62711 On ch=1 n=f5 v=0
62894 On ch=2 n=g5 v=95
62934 On ch=1 n=e5 v=0
63111 On ch=1 n=f5 v=125
63149 On ch=2 n=g5 v=0
63351 Par ch=1 c=64 v=127
63351 Par ch=2 c=64 v=127
63626 On ch=1 n=f5 v=0
63749 On ch=1 n=e5 v=127
63776 On ch=1 n=e5 v=0
63831 Par ch=1 c=64 v=0
63831 Par ch=2 c=64 v=0
63896 On ch=1 n=e5 v=127
64196 Par ch=1 c=64 v=127
64196 Par ch=2 c=64 v=127
64328 On ch=1 n=e5 v=0
64684 On ch=1 n=a3 v=127
64686 On ch=1 n=e4 v=127
64694 On ch=1 n=a2 v=127
64696 On ch=1 n=e3 v=127
64696 On ch=1 n=a4 v=127
64696 On ch=1 n=c#4 v=127
64706 On ch=1 n=c#5 v=127
65081 On ch=1 n=c#4 v=0
65153 On ch=1 n=a4 v=0
65161 On ch=1 n=c#5 v=0
65273 On ch=1 n=e4 v=0
65789 On ch=1 n=e5 v=127
66404 On ch=1 n=e5 v=0
66481 On ch=1 n=a2 v=0
66628 On ch=1 n=e3 v=0
66646 On ch=1 n=a3 v=0
66666 Par ch=1 c=64 v=0
66666 Par ch=2 c=64 v=0
66734 On ch=1 n=c4 v=125
66734 On ch=1 n=a2 v=125
66736 On ch=1 n=e3 v=125
66736 On ch=1 n=e4 v=125
66744 On ch=1 n=a4 v=125
66754 On ch=1 n=a3 v=126
66756 On ch=1 n=c5 v=126
67049 Par ch=1 c=64 v=127
67049 Par ch=2 c=64 v=127
67216 On ch=1 n=a2 v=0
67218 On ch=1 n=e3 v=0
67279 On ch=1 n=a3 v=0
67279 On ch=1 n=c4 v=0
67393 On ch=1 n=e4 v=0
67411 On ch=1 n=c5 v=0
67421 On ch=1 n=a4 v=0
68178 On ch=1 n=e5 v=127
68981 On ch=1 n=b3 v=127
68998 On ch=1 n=e3 v=127
68998 On ch=1 n=e4 v=127
69013 On ch=1 n=a3 v=127
69013 On ch=1 n=b4 v=127
69018 Par ch=1 c=64 v=0
69018 Par ch=2 c=64 v=0
69661 On ch=1 n=d#5 v=120
69708 On ch=1 n=e5 v=0
70118 On ch=1 n=c5 v=113
70128 On ch=1 n=d#5 v=0
70195 On ch=1 n=b4 v=0
70583 Par ch=1 c=64 v=127
70583 Par ch=2 c=64 v=127
71145 On ch=1 n=b4 v=121
71210 On ch=1 n=c5 v=0
71535 On ch=1 n=g#3 v=117
71553 Par ch=1 c=64 v=0
71553 Par ch=2 c=64 v=0
71590 On ch=1 n=a3 v=0
71688 On ch=1 n=e5 v=114
71720 On ch=1 n=b4 v=0
72315 On ch=1 n=e5 v=0
72315 On ch=1 n=d#5 v=104
72755 On ch=1 n=c5 v=97
72767 On ch=1 n=d#5 v=0
73175 Par ch=1 c=64 v=127
73175 Par ch=2 c=64 v=127
73427 On ch=1 n=e4 v=0
73427 On ch=1 n=e3 v=0
73435 On ch=1 n=g#3 v=0
73438 On ch=1 n=b3 v=0
73680 On ch=1 n=b4 v=100
73745 On ch=1 n=c5 v=0
73975 Par ch=1 c=64 v=0
73975 Par ch=2 c=64 v=0
74125 On ch=1 n=e5 v=101
74170 On ch=1 n=b4 v=0
74468 On ch=1 n=d#5 v=99
74545 On ch=1 n=e5 v=0
74763 On ch=1 n=c5 v=103
74813 On ch=1 n=d#5 v=0
75005 On ch=1 n=b4 v=107
75028 On ch=1 n=c5 v=0
75185 Par ch=1 c=67 v=127
75185 Par ch=2 c=67 v=127
75195 On ch=1 n=e5 v=110
75270 On ch=1 n=b4 v=0
75407 On ch=1 n=e5 v=0
75408 On ch=1 n=d#5 v=107
75580 On ch=1 n=c5 v=103
75640 On ch=1 n=d#5 v=0
75700 On ch=1 n=b4 v=102
75745 On ch=1 n=c5 v=0
75853 On ch=1 n=e5 v=99
75905 On ch=1 n=b4 v=0
76003 On ch=1 n=d#5 v=97
76013 On ch=1 n=e5 v=0
76110 On ch=1 n=c5 v=98
76160 On ch=1 n=d#5 v=0
76240 On ch=1 n=b4 v=101
76285 On ch=1 n=c5 v=0
76343 On ch=1 n=e5 v=102
76385 On ch=1 n=b4 v=0
76420 On ch=1 n=e5 v=0
76440 On ch=1 n=d#5 v=104
76540 On ch=1 n=d#5 v=0
76548 On ch=1 n=c5 v=106
76633 On ch=1 n=c5 v=0
76648 On ch=1 n=b4 v=107
76758 On ch=1 n=e5 v=109
76770 On ch=1 n=b4 v=0
76848 On ch=1 n=e5 v=0
76855 On ch=1 n=d#5 v=110
76940 On ch=1 n=d#5 v=0
76940 On ch=1 n=c5 v=112
76992 On ch=1 n=c5 v=0
77008 On ch=1 n=b4 v=113
77120 On ch=1 n=e5 v=113
77123 On ch=1 n=b4 v=0
77200 On ch=1 n=e5 v=0
77230 On ch=1 n=d#5 v=112
77280 On ch=1 n=c5 v=110
77290 On ch=1 n=d#5 v=0
77320 On ch=1 n=b4 v=110
77322 On ch=1 n=c5 v=0
77423 On ch=1 n=e5 v=108
77425 On ch=1 n=b4 v=0
77503 On ch=1 n=e5 v=0
77523 On ch=1 n=d#5 v=107
77593 On ch=1 n=c5 v=105
77605 On ch=1 n=d#5 v=0
77645 On ch=1 n=c5 v=0
77653 On ch=1 n=b4 v=105
77740 On ch=1 n=e5 v=103
77763 On ch=1 n=b4 v=0
77810 On ch=1 n=e5 v=0
77833 On ch=1 n=d#5 v=102
77903 On ch=1 n=d#5 v=0
77925 On ch=1 n=c5 v=100
77965 On ch=1 n=c5 v=0
77993 On ch=1 n=b4 v=99
78095 On ch=1 n=b4 v=0
78103 On ch=1 n=e5 v=97
78185 On ch=1 n=e5 v=0
78193 On ch=1 n=d#5 v=97
78275 On ch=1 n=d#5 v=0
78293 On ch=1 n=c5 v=98
78355 On ch=1 n=c5 v=0
78380 On ch=1 n=b4 v=100
78512 On ch=1 n=b4 v=0
78530 On ch=1 n=e5 v=101
78612 On ch=1 n=e5 v=0
78630 On ch=1 n=d#5 v=99
78730 On ch=1 n=c5 v=98
78810 On ch=1 n=d#5 v=0
78868 On ch=1 n=b4 v=98
78940 On ch=1 n=c5 v=0
79098 On ch=1 n=e5 v=101
79123 On ch=1 n=b4 v=0
79320 On ch=1 n=d#5 v=97
79370 On ch=1 n=e5 v=0
79570 On ch=1 n=d#5 v=0
79570 On ch=1 n=f5 v=101
79852 On ch=1 n=f5 v=0
79853 On ch=1 n=e5 v=97
80148 On ch=2 n=a5 v=52
80213 On ch=1 n=e5 v=0
80525 On ch=2 n=g#5 v=53
80613 On ch=2 n=a5 v=0
80908 On ch=2 n=c6 v=58
80970 On ch=2 n=g#5 v=0
81525 On ch=1 n=e4 v=76
81533 On ch=1 n=g#4 v=76
81533 On ch=1 n=d5 v=76
81535 On ch=1 n=e5 v=76
81625 Par ch=1 c=64 v=127
81625 Par ch=2 c=64 v=127
81805 On ch=1 n=e5 v=0
81815 On ch=1 n=d5 v=0
81817 On ch=1 n=e4 v=0
81827 On ch=1 n=g#4 v=0
83787 On ch=2 n=b5 v=52
83870 On ch=2 n=c6 v=0
83890 Par ch=1 c=64 v=0
83890 Par ch=2 c=64 v=0
84505 Par ch=1 c=64 v=127
84505 Par ch=2 c=64 v=127
84794 On ch=2 n=b5 v=0
85285 Par ch=1 c=64 v=0
85285 Par ch=2 c=64 v=0
85362 On ch=1 n=a3 v=67
85482 On ch=1 n=e4 v=65
85592 Par ch=1 c=64 v=127
85592 Par ch=2 c=64 v=127
85614 On ch=1 n=a3 v=0
85644 On ch=1 n=e4 v=0
85652 On ch=1 n=c5 v=62
85764 On ch=1 n=c5 v=0
85805 On ch=1 n=e5 v=60
85895 On ch=2 n=a5 v=67
85935 On ch=1 n=e5 v=0
86005 On ch=2 n=e6 v=79
87162 On ch=1 n=c5 v=60
87162 On ch=1 n=e5 v=60
87655 On ch=2 n=a5 v=0
87667 On ch=2 n=e6 v=0
88150 On ch=2 n=d#6 v=87
88890 On ch=2 n=d#6 v=0
88890 On ch=2 n=c6 v=90
89179 On ch=1 n=c5 v=0
89380 On ch=2 n=b5 v=98
89420 On ch=2 n=c6 v=0
89602 On ch=2 n=b5 v=0
89732 On ch=2 n=b5 v=66
89812 On ch=2 n=d#6 v=73
89872 On ch=2 n=c6 v=87
89874 On ch=2 n=d#6 v=0
89922 On ch=2 n=b5 v=0
89922 On ch=1 n=e4 v=70
89922 On ch=1 n=c5 v=70
90065 Par ch=1 c=64 v=0
90065 Par ch=2 c=64 v=0
90124 On ch=2 n=c6 v=0
90125 On ch=2 n=b5 v=92
90225 On ch=2 n=b5 v=0
90342 On ch=2 n=a5 v=88
90484 On ch=1 n=c5 v=0
90499 On ch=1 n=e5 v=0
90690 Par ch=1 c=64 v=127
90690 Par ch=2 c=64 v=127
90847 On ch=1 n=c5 v=55
90847 On ch=1 n=e5 v=55
91097 On ch=1 n=e5 v=0
91099 On ch=1 n=c5 v=0
91159 On ch=1 n=e4 v=0
92170 On ch=1 n=a3 v=58
92342 On ch=1 n=e4 v=60
92385 On ch=1 n=a3 v=0
92487 On ch=1 n=e4 v=0
92552 On ch=1 n=c5 v=62
92652 On ch=2 n=a5 v=0
92672 On ch=1 n=e5 v=60
92720 On ch=1 n=e4 v=60
92782 On ch=2 n=a5 v=64
92789 On ch=1 n=e5 v=0
92822 On ch=2 n=a5 v=0
92842 On ch=2 n=c6 v=65
92932 On ch=2 n=c6 v=0
92980 On ch=2 n=e6 v=75
93040 On ch=2 n=e6 v=0
93125 On ch=2 n=e7 v=108
93327 On ch=1 n=c5 v=0
94075 On ch=1 n=c5 v=53
94085 On ch=1 n=e5 v=53
94270 On ch=1 n=e4 v=0
94772 On ch=2 n=e7 v=0
94790 On ch=2 n=d#7 v=88
94887 On ch=2 n=c7 v=87
94897 On ch=2 n=d#7 v=0
94982 On ch=2 n=b6 v=85
95004 On ch=2 n=c7 v=0
95014 On ch=2 n=b6 v=0
95039 On ch=2 n=a6 v=85
95121 On ch=2 n=a6 v=0
95126 On ch=2 n=g#6 v=83
95239 On ch=2 n=f6 v=82
95248 On ch=2 n=g#6 v=0
95299 On ch=2 n=f6 v=0
95321 On ch=2 n=e6 v=80
95393 On ch=2 n=e6 v=0
95419 On ch=2 n=d#6 v=78
95479 On ch=2 n=c6 v=78
95539 On ch=2 n=b5 v=78
95551 On ch=2 n=d#6 v=0
95571 On ch=2 n=c6 v=0
95581 On ch=2 n=b5 v=0
95591 On ch=1 n=c5 v=0
95694 On ch=2 n=b5 v=80
95701 On ch=1 n=e4 v=55
95711 On ch=1 n=c5 v=54
95754 On ch=2 n=d#6 v=85
95764 On ch=2 n=b5 v=0
95774 Par ch=1 c=64 v=0
95774 Par ch=2 c=64 v=0
95781 On ch=2 n=c6 v=92
95791 On ch=2 n=d#6 v=0
95870 On ch=2 n=c6 v=0
96001 On ch=2 n=b5 v=98
96116 On ch=2 n=b5 v=0
96233 On ch=2 n=a5 v=94
96301 Par ch=1 c=67 v=0
96301 Par ch=2 c=67 v=0
96328 On ch=1 n=c5 v=0
96363 On ch=1 n=e5 v=0
96463 Par ch=1 c=64 v=127
96463 Par ch=2 c=64 v=127
96581 On ch=1 n=e5 v=52
96591 On ch=1 n=c5 v=52
96801 On ch=1 n=e5 v=0
96813 On ch=1 n=c5 v=0
96830 On ch=1 n=e4 v=0
97403 On ch=1 n=a3 v=102
97496 On ch=1 n=e4 v=120
97575 On ch=2 n=a5 v=0
97578 On ch=1 n=a3 v=0
97596 On ch=1 n=e4 v=0
97603 On ch=1 n=c5 v=127
97633 On ch=2 n=e6 v=127
97636 On ch=2 n=c6 v=127
97645 On ch=1 n=c5 v=0
97653 On ch=1 n=e5 v=127
97675 On ch=2 n=e6 v=0
97676 On ch=2 n=c6 v=0
97695 On ch=1 n=e5 v=0
97758 On ch=2 n=e6 v=127
97768 On ch=2 n=c6 v=127
97786 On ch=1 n=e5 v=127
97970 On ch=2 n=c6 v=0
97970 On ch=2 n=e6 v=0
98038 On ch=1 n=f#5 v=89
98078 On ch=1 n=e5 v=0
98108 On ch=2 n=g#5 v=90
98148 On ch=1 n=f#5 v=0
98178 On ch=2 n=g#5 v=0
98208 On ch=2 n=a5 v=89
98250 On ch=2 n=a5 v=0
98271 On ch=2 n=b5 v=89
98341 On ch=2 n=b5 v=0
98351 On ch=2 n=c6 v=89
98383 On ch=2 n=d6 v=90
98433 On ch=2 n=c6 v=0
98461 On ch=2 n=e6 v=89
98463 On ch=2 n=d6 v=0
98521 On ch=2 n=f#6 v=90
98543 On ch=2 n=e6 v=0
98573 On ch=2 n=f#6 v=0
98581 On ch=2 n=g#6 v=90
98598 On ch=1 n=a4 v=127
98608 On ch=1 n=e5 v=127
98608 On ch=1 n=c5 v=127
98640 On ch=2 n=g#6 v=0
98660 On ch=2 n=a6 v=90
98702 On ch=2 n=a6 v=0
98718 On ch=2 n=b6 v=90
98778 On ch=2 n=c7 v=89
98780 On ch=2 n=b6 v=0
98818 On ch=2 n=d7 v=90
98830 On ch=2 n=c7 v=0
98870 On ch=2 n=d7 v=0
98888 On ch=2 n=e7 v=90
98928 On ch=2 n=f#7 v=89
98960 On ch=2 n=e7 v=0
98980 On ch=2 n=g#7 v=89
99000 On ch=2 n=f#7 v=0
99022 On ch=2 n=g#7 v=0
99087 On ch=1 n=a4 v=0
99090 On ch=2 n=a7 v=90
99098 On ch=1 n=c5 v=0
99130 On ch=2 n=a7 v=0
99140 On ch=2 n=b7 v=90
99168 On ch=2 n=c8 v=89
99173 On ch=1 n=e5 v=0
99200 On ch=2 n=b7 v=0
99218 On ch=2 n=d8 v=89
99220 On ch=2 n=c8 v=0
99255 On ch=1 n=a4 v=127
99265 On ch=1 n=c5 v=127
99283 On ch=2 n=d8 v=0
99298 Par ch=1 c=64 v=0
99298 On ch=2 n=e8 v=97
99298 Par ch=2 c=64 v=0
99345 On ch=1 n=f#5 v=127
99363 On ch=1 n=d#5 v=127
99365 On ch=2 n=f#8 v=111
99370 On ch=2 n=e8 v=0
99582 On ch=2 n=f#8 v=0
99585 Par ch=1 c=64 v=127
99585 Par ch=2 c=64 v=127
99588 On ch=2 n=e8 v=112
99660 On ch=2 n=e8 v=0
99670 On ch=2 n=d#8 v=110
99712 On ch=2 n=d#8 v=0
99717 On ch=2 n=c8 v=110
99789 On ch=2 n=c8 v=0
99815 On ch=2 n=b7 v=108
99867 On ch=2 n=b7 v=0
99887 On ch=2 n=a7 v=107
99947 On ch=2 n=a7 v=0
99965 On ch=2 n=f#7 v=106
100017 On ch=2 n=f#7 v=0
100065 On ch=2 n=e7 v=104
100107 On ch=2 n=e7 v=0
100145 On ch=2 n=d#7 v=103
100195 On ch=2 n=d#7 v=0
100205 On ch=2 n=c7 v=102
100255 On ch=2 n=c7 v=0
100275 On ch=2 n=b6 v=101
100337 On ch=2 n=b6 v=0
100367 On ch=2 n=a6 v=99
100407 On ch=2 n=a6 v=0
100457 On ch=2 n=f#6 v=98
100497 On ch=2 n=f#6 v=0
100507 On ch=2 n=e6 v=97
100544 On ch=1 n=f#5 v=0
100567 On ch=2 n=e6 v=0
100597 On ch=2 n=d#6 v=95
100629 On ch=1 n=c5 v=0
100659 On ch=2 n=d#6 v=0
100677 On ch=2 n=c6 v=94
100709 On ch=1 n=a4 v=0
100727 On ch=1 n=d#5 v=0
100737 On ch=2 n=b5 v=93
100769 On ch=2 n=c6 v=0
100807 On ch=2 n=b5 v=0
100825 On ch=2 n=a5 v=92
100867 On ch=2 n=a5 v=0
100907 On ch=1 n=f#5 v=90
100937 Par ch=1 c=64 v=0
100937 Par ch=2 c=64 v=0
100964 On ch=1 n=f#5 v=0
100995 On ch=1 n=a4 v=107
101005 On ch=1 n=c5 v=108
101005 On ch=1 n=e5 v=108
101045 On ch=1 n=e5 v=0
101155 On ch=1 n=e5 v=126
101225 Par ch=1 c=64 v=127
101225 Par ch=2 c=64 v=127
101245 On ch=1 n=e5 v=0
101362 On ch=1 n=e5 v=123
101512 On ch=1 n=a4 v=0
101602 On ch=1 n=e5 v=0
101622 On ch=1 n=d#5 v=118
101662 On ch=1 n=d#5 v=0
101752 On ch=1 n=f4 v=117
101760 On ch=1 n=a4 v=117
101820 Par ch=1 c=64 v=0
101820 Par ch=2 c=64 v=0
101827 On ch=1 n=d#5 v=127
102027 On ch=2 n=c6 v=110
102130 Par ch=1 c=64 v=127
102130 Par ch=2 c=64 v=127
102177 On ch=1 n=d#4 v=127
102212 On ch=1 n=f4 v=0
102262 On ch=1 n=a4 v=0
102350 On ch=1 n=f#4 v=90
102395 On ch=1 n=c5 v=0
102429 On ch=1 n=d#5 v=0
102460 On ch=1 n=a4 v=90
102552 On ch=1 n=c5 v=90
102652 On ch=2 n=c6 v=0
102670 On ch=1 n=d#5 v=90
102802 On ch=1 n=f#5 v=90
102855 Par ch=1 c=64 v=0
102855 Par ch=2 c=64 v=0
102902 On ch=2 n=c6 v=127
103455 Par ch=1 c=64 v=127
103455 Par ch=2 c=64 v=127
103734 On ch=1 n=d#4 v=0
103784 On ch=1 n=c5 v=0
103795 On ch=1 n=f#4 v=0
103802 On ch=1 n=f#5 v=0
103802 On ch=1 n=d#5 v=0
103805 On ch=1 n=a4 v=0
104402 On ch=2 n=b5 v=110
104459 On ch=2 n=c6 v=0
104687 On ch=2 n=a5 v=115
104739 On ch=2 n=b5 v=0
104837 On ch=2 n=a5 v=0
104857 On ch=2 n=g#5 v=118
104977 On ch=2 n=a5 v=120
105037 On ch=2 n=g#5 v=0
105077 On ch=2 n=a#5 v=121
105154 On ch=2 n=a5 v=0
105207 On ch=2 n=a#5 v=0
105227 On ch=2 n=b5 v=123
105334 On ch=2 n=b5 v=0
105355 On ch=2 n=c6 v=126
105440 Par ch=1 c=67 v=127
105440 Par ch=2 c=67 v=127
105792 On ch=2 n=c6 v=0
105800 On ch=2 n=b5 v=119
106042 On ch=2 n=d6 v=117
106092 On ch=2 n=b5 v=0
106265 On ch=2 n=c6 v=121
106324 On ch=2 n=d6 v=0
106397 Par ch=1 c=64 v=0
106397 Par ch=2 c=64 v=0
106445 On ch=2 n=c6 v=0
106455 On ch=2 n=b5 v=124
106652 On ch=1 n=e3 v=56
106845 On ch=1 n=e5 v=57
106845 On ch=2 n=g#5 v=120
106877 On ch=2 n=b5 v=0
107087 Par ch=1 c=64 v=127
107087 Par ch=2 c=64 v=127
107105 On ch=1 n=b3 v=53
107127 On ch=1 n=e3 v=0
107215 On ch=1 n=b3 v=0
107310 On ch=1 n=g#4 v=52
107415 On ch=1 n=g#4 v=0
107500 On ch=1 n=b4 v=83
109192 On ch=1 n=a4 v=63
109225 On ch=1 n=b4 v=0
109372 On ch=1 n=g#4 v=66
109404 On ch=1 n=a4 v=0
109482 On ch=1 n=g#4 v=0
109497 On ch=1 n=f#4 v=68
109612 Par ch=1 c=64 v=0
109612 Par ch=2 c=64 v=0
109617 On ch=1 n=g#4 v=70
109629 On ch=1 n=f#4 v=0
109685 On ch=1 n=a4 v=71
109687 On ch=1 n=g#4 v=0
109775 On ch=1 n=a#4 v=72
109827 On ch=1 n=a4 v=0
109857 On ch=1 n=a#4 v=0
109882 On ch=1 n=b4 v=74
109974 On ch=1 n=b4 v=0
109982 On ch=1 n=a#4 v=76
110062 On ch=1 n=a#4 v=0
110100 On ch=1 n=c5 v=77
110207 On ch=1 n=c5 v=0
110315 On ch=1 n=b4 v=73
110357 On ch=1 n=b4 v=0
110495 On ch=1 n=g#4 v=71
110570 On ch=2 n=g#5 v=0
110630 On ch=1 n=g#4 v=0
110707 On ch=1 n=e4 v=75
110737 On ch=2 n=b5 v=70
110737 On ch=2 n=g#5 v=70
110757 On ch=1 n=e5 v=0
110977 On ch=1 n=g#4 v=70
110992 Par ch=1 c=64 v=127
110992 Par ch=2 c=64 v=127
111205 On ch=1 n=b4 v=67
111457 On ch=1 n=b4 v=0
111512 On ch=1 n=e5 v=62
111547 On ch=1 n=g#4 v=0
111564 On ch=2 n=g#5 v=0
111584 On ch=1 n=e4 v=0
112535 Par ch=1 c=67 v=0
112535 Par ch=2 c=67 v=0
112877 On ch=1 n=e5 v=0
113297 Par ch=1 c=64 v=0
113297 Par ch=2 c=64 v=0
113360 On ch=1 n=g#3 v=102
113404 On ch=2 n=b5 v=0
113522 On ch=1 n=f5 v=127
113532 On ch=2 n=d6 v=127
113569 On ch=1 n=f5 v=0
113579 On ch=2 n=d6 v=0
113621 Par ch=1 c=64 v=127
113621 Par ch=2 c=64 v=127
113631 On ch=1 n=b4 v=127
113663 On ch=2 n=d6 v=127
113671 On ch=1 n=f5 v=127
113771 On ch=1 n=g#3 v=0
113781 On ch=1 n=b4 v=0
114151 Par ch=1 c=64 v=0
114151 Par ch=2 c=64 v=0
114223 On ch=1 n=a3 v=118
114403 Par ch=1 c=64 v=127
114403 Par ch=2 c=64 v=127
114428 On ch=1 n=c5 v=115
114583 On ch=1 n=a3 v=0
114653 On ch=1 n=f5 v=0
114668 On ch=2 n=d6 v=0
114700 On ch=1 n=c5 v=0
114863 On ch=2 n=c6 v=123
114873 On ch=1 n=e5 v=127
115025 On ch=1 n=e5 v=0
115035 On ch=2 n=c6 v=0
115143 On ch=1 n=d5 v=122
115143 On ch=2 n=b5 v=90
115148 Par ch=1 c=64 v=0
115148 Par ch=2 c=64 v=0
115205 On ch=1 n=d5 v=0
115215 On ch=2 n=b5 v=0
115223 On ch=1 n=e3 v=121
115303 On ch=2 n=a5 v=89
115313 On ch=1 n=c5 v=120
115323 On ch=1 n=b3 v=119
115365 On ch=2 n=a5 v=0
115375 On ch=1 n=c5 v=0
115375 Par ch=1 c=64 v=127
115375 Par ch=2 c=64 v=127
115420 On ch=2 n=c6 v=90
115430 On ch=1 n=e5 v=118
115430 On ch=1 n=g#4 v=118
115463 On ch=1 n=e3 v=0
115480 On ch=1 n=b3 v=0
115520 On ch=2 n=c6 v=0
115527 On ch=1 n=e5 v=0
115537 On ch=1 n=d5 v=117
115537 On ch=2 n=b5 v=92
115552 On ch=1 n=f3 v=120
115559 On ch=1 n=g#4 v=0
115632 Par ch=1 c=64 v=0
115632 Par ch=2 c=64 v=0
115665 On ch=1 n=a4 v=127
115665 On ch=2 n=a5 v=118
115667 On ch=1 n=c5 v=126
115677 On ch=1 n=d5 v=0
115687 On ch=2 n=b5 v=0
116092 On ch=1 n=a4 v=0
116095 On ch=1 n=c#3 v=127
116097 On ch=1 n=c#4 v=127
116102 On ch=2 n=a5 v=0
116119 On ch=1 n=f3 v=0
116122 On ch=1 n=c5 v=0
116132 Par ch=1 c=64 v=127
116132 Par ch=2 c=64 v=127
116154 On ch=1 n=c#3 v=0
116156 On ch=1 n=c#4 v=0
116192 On ch=2 n=g5 v=127
116194 On ch=2 n=a#5 v=127
116204 On ch=2 n=g6 v=127
116244 On ch=2 n=g5 v=0
116246 On ch=2 n=g6 v=0
116246 On ch=2 n=a#5 v=0
116324 On ch=1 n=e4 v=126
116334 On ch=1 n=e5 v=126
116344 On ch=2 n=g5 v=127
116347 On ch=2 n=a#5 v=126
116347 On ch=2 n=g6 v=126
116469 On ch=1 n=e4 v=0
116486 On ch=1 n=e5 v=0
116894 Par ch=1 c=64 v=0
116894 Par ch=2 c=64 v=0
116917 On ch=1 n=d3 v=127
116927 On ch=1 n=d4 v=127
117002 On ch=1 n=d3 v=0
117042 On ch=1 n=d4 v=0
117152 On ch=1 n=f5 v=127
117169 On ch=1 n=f4 v=127
117184 Par ch=1 c=64 v=127
117184 Par ch=2 c=64 v=127
117294 On ch=2 n=g6 v=0
117301 On ch=2 n=g5 v=0
117324 On ch=2 n=a#5 v=0
117412 On ch=1 n=f5 v=0
117452 On ch=2 n=a5 v=123
117461 On ch=1 n=f4 v=0
117462 On ch=2 n=f6 v=125
117509 On ch=2 n=a5 v=0
117552 On ch=2 n=f6 v=0
117582 Par ch=1 c=64 v=0
117582 Par ch=2 c=64 v=0
117639 On ch=2 n=g5 v=124
117649 On ch=2 n=e6 v=124
117691 On ch=2 n=e6 v=0
117699 On ch=2 n=g5 v=0
117754 On ch=1 n=a#3 v=117
117754 On ch=1 n=a#2 v=117
117769 On ch=2 n=d6 v=122
117777 On ch=1 n=f5 v=117
117834 On ch=1 n=f5 v=0
117836 On ch=2 n=d6 v=0
117846 Par ch=1 c=64 v=127
117846 Par ch=2 c=64 v=127
117921 On ch=2 n=f6 v=120
117931 On ch=1 n=c#4 v=115
117931 On ch=2 n=a5 v=119
117941 On ch=1 n=a#3 v=0
117941 On ch=1 n=c#5 v=114
117951 On ch=1 n=a#2 v=0
117963 On ch=2 n=f6 v=0
117971 On ch=2 n=a5 v=0
118049 On ch=2 n=g5 v=118
118051 On ch=2 n=e6 v=119
118061 On ch=1 n=c#5 v=0
118073 On ch=1 n=c#4 v=0
118109 On ch=2 n=g5 v=0
118121 On ch=2 n=e6 v=0
118166 On ch=1 n=d4 v=127
118171 On ch=2 n=d6 v=127
118176 On ch=1 n=d5 v=127
118179 On ch=1 n=f5 v=127
118258 On ch=1 n=d4 v=0
118279 On ch=1 n=f5 v=0
118301 On ch=2 n=d6 v=0
118308 On ch=1 n=d5 v=0
118349 Par ch=1 c=64 v=0
118349 Par ch=2 c=64 v=0
118514 On ch=1 n=f2 v=127
118536 On ch=1 n=f3 v=127
118611 Par ch=1 c=64 v=127
118611 Par ch=2 c=64 v=127
118618 On ch=1 n=f3 v=0
118619 On ch=1 n=f2 v=0
118646 On ch=2 n=a5 v=127
118649 On ch=2 n=d6 v=127
118659 On ch=2 n=a6 v=127
118688 On ch=2 n=a5 v=0
118698 On ch=2 n=a6 v=0
118698 On ch=2 n=d6 v=0
118778 On ch=1 n=f5 v=123
118781 On ch=1 n=f4 v=123
118791 On ch=2 n=a5 v=127
118791 On ch=2 n=a6 v=127
118801 On ch=2 n=d6 v=127
119131 On ch=2 n=a5 v=0
119133 On ch=2 n=d6 v=0
119133 On ch=2 n=a6 v=0
119210 On ch=1 n=f5 v=0
119231 On ch=1 n=f4 v=0
119261 On ch=2 n=d6 v=127
119268 On ch=2 n=a5 v=127
119278 On ch=2 n=a6 v=127
119348 On ch=1 n=e4 v=115
119358 On ch=1 n=e5 v=114
119388 On ch=1 n=e4 v=0
119408 On ch=1 n=e5 v=0
119493 On ch=1 n=d4 v=112
119513 On ch=1 n=d5 v=112
119528 On ch=2 n=d6 v=0
119537 On ch=2 n=a5 v=0
119538 On ch=1 n=d4 v=0
119558 On ch=1 n=d5 v=0
119623 On ch=1 n=c#4 v=110
119623 On ch=2 n=g#5 v=121
119633 On ch=1 n=c#5 v=110
119648 On ch=2 n=a6 v=0
119648 Par ch=1 c=64 v=0
119648 Par ch=2 c=64 v=0
119675 On ch=1 n=c#5 v=0
119685 On ch=1 n=c#4 v=0
119743 On ch=2 n=f6 v=127
119755 On ch=2 n=d6 v=127
119765 On ch=2 n=b6 v=127
119770 On ch=1 n=d4 v=108
119770 On ch=1 n=d5 v=108
119795 On ch=2 n=g#5 v=0
119815 On ch=1 n=d5 v=0
119815 On ch=1 n=d4 v=0
119910 On ch=1 n=c5 v=119
119920 On ch=1 n=c4 v=122
119935 Par ch=1 c=64 v=127
119935 Par ch=2 c=64 v=127
119955 On ch=1 n=c5 v=0
119965 On ch=1 n=c4 v=0
120060 On ch=1 n=b3 v=127
120060 On ch=1 n=b4 v=127
120105 On ch=2 n=b6 v=0
120122 On ch=2 n=d6 v=0
120123 On ch=2 n=f6 v=0
120233 Par ch=1 c=64 v=0
120233 Par ch=2 c=64 v=0
120270 On ch=2 n=d6 v=127
120270 On ch=2 n=f6 v=127
120278 On ch=2 n=a5 v=127
120300 On ch=2 n=a6 v=127
120397 On ch=1 n=b4 v=0
120400 On ch=1 n=b3 v=0
120493 Par ch=1 c=64 v=127
120493 Par ch=2 c=64 v=127
120540 On ch=1 n=a4 v=119
120542 On ch=2 n=f6 v=0
120542 On ch=2 n=d6 v=0
120543 On ch=2 n=a5 v=0
120545 On ch=2 n=a6 v=0
120550 On ch=1 n=a3 v=118
120582 On ch=1 n=a4 v=0
120592 On ch=1 n=a3 v=0
120738 On ch=1 n=g#3 v=116
120740 On ch=1 n=g#4 v=116
120800 On ch=1 n=g#3 v=0
120802 On ch=1 n=g#4 v=0
120903 On ch=1 n=e3 v=121
120913 On ch=1 n=e4 v=123
120975 On ch=1 n=e4 v=0
120975 On ch=1 n=e3 v=0
121063 Par ch=1 c=64 v=0
121063 Par ch=2 c=64 v=0
121103 On ch=1 n=f4 v=127
121110 On ch=1 n=f3 v=127
121125 On ch=1 n=a4 v=127
121125 On ch=1 n=d5 v=127
121125 On ch=2 n=a5 v=127
121307 On ch=1 n=f3 v=0
121317 On ch=1 n=f4 v=0
121392 On ch=1 n=e3 v=122
121402 On ch=1 n=e4 v=122
121564 On ch=1 n=e4 v=0
121564 On ch=1 n=e3 v=0
121665 Par ch=1 c=64 v=127
121665 Par ch=2 c=64 v=127
121677 On ch=1 n=d3 v=118
121680 On ch=1 n=d4 v=118
121784 On ch=1 n=d3 v=0
121785 On ch=1 n=d4 v=0
121890 On ch=1 n=c#4 v=122
121897 On ch=1 n=c#3 v=123
121902 On ch=1 n=a4 v=0
121912 On ch=1 n=d5 v=0
121972 On ch=1 n=c#4 v=0
121979 On ch=1 n=c#3 v=0
122052 Par ch=1 c=64 v=0
122052 Par ch=2 c=64 v=0
122125 On ch=1 n=a#3 v=127
122125 On ch=1 n=g#4 v=127
122127 On ch=1 n=d5 v=127
122135 On ch=1 n=a#2 v=127
122401 On ch=2 n=a5 v=0
122452 Par ch=1 c=64 v=127
122452 Par ch=2 c=64 v=127
122507 On ch=2 n=g#5 v=104
122792 On ch=2 n=g#5 v=0
122794 On ch=1 n=d5 v=0
122794 On ch=1 n=g#4 v=0
122882 On ch=1 n=f5 v=127
123102 On ch=1 n=a#2 v=0
123127 Par ch=1 c=64 v=0
123127 Par ch=2 c=64 v=0
123142 On ch=1 n=f5 v=0
123152 On ch=1 n=e5 v=127
123154 On ch=1 n=a#3 v=0
123189 On ch=1 n=g#2 v=127
123302 On ch=1 n=d3 v=91
123304 On ch=1 n=f4 v=91
123364 On ch=1 n=b4 v=90
123374 On ch=1 n=b3 v=90
123397 Par ch=1 c=64 v=127
123397 Par ch=2 c=64 v=127
123416 On ch=1 n=g#2 v=0
123467 On ch=1 n=e5 v=0
123469 On ch=1 n=f4 v=0
123486 On ch=1 n=b4 v=0
123497 On ch=2 n=g5 v=126
123626 On ch=1 n=b3 v=0
123697 On ch=1 n=d3 v=0
123852 On ch=1 n=f5 v=90
123894 On ch=2 n=g5 v=0
124069 On ch=1 n=e5 v=89
124122 On ch=1 n=f5 v=0
124249 On ch=1 n=e5 v=0
124257 On ch=1 n=d5 v=89
124387 On ch=1 n=d5 v=0
124402 On ch=1 n=e5 v=89
124487 On ch=1 n=e5 v=0
124492 On ch=1 n=d5 v=89
124594 On ch=1 n=d5 v=0
124614 On ch=1 n=e5 v=90
124666 On ch=1 n=e5 v=0
124694 On ch=1 n=d5 v=90
124756 On ch=1 n=d5 v=0
124782 On ch=1 n=e5 v=89
124827 On ch=1 n=e5 v=0
124864 On ch=1 n=d5 v=90
124916 On ch=1 n=d5 v=0
124944 On ch=1 n=e5 v=90
124986 On ch=1 n=e5 v=0
125014 On ch=1 n=d5 v=89
125059 On ch=1 n=d5 v=0
125084 On ch=1 n=e5 v=90
125126 On ch=1 n=e5 v=0
125162 On ch=1 n=d5 v=89
125202 On ch=1 n=d5 v=0
125232 On ch=1 n=e5 v=90
125272 On ch=1 n=e5 v=0
125307 On ch=1 n=d5 v=89
125352 On ch=1 n=d5 v=0
125357 On ch=1 n=e5 v=89
125407 On ch=1 n=e5 v=0
125432 On ch=1 n=d5 v=90
125474 On ch=1 n=d5 v=0
125489 On ch=1 n=e5 v=89
125531 On ch=1 n=e5 v=0
125559 On ch=1 n=d5 v=90
125594 On ch=1 n=d5 v=0
125629 On ch=1 n=e5 v=89
125671 On ch=1 n=e5 v=0
125689 On ch=1 n=d5 v=89
125731 On ch=1 n=d5 v=0
125749 On ch=1 n=e5 v=90
125789 On ch=1 n=e5 v=0
125817 On ch=1 n=d5 v=89
125859 On ch=1 n=d5 v=0
125874 On ch=1 n=e5 v=89
125916 On ch=1 n=e5 v=0
125957 On ch=1 n=d5 v=90
125989 On ch=1 n=d5 v=0
126024 On ch=1 n=e5 v=90
126064 On ch=1 n=e5 v=0
126084 On ch=1 n=d5 v=90
126126 On ch=1 n=d5 v=0
126164 On ch=1 n=e5 v=89
126204 On ch=1 n=e5 v=0
126234 On ch=1 n=d5 v=90
126276 On ch=1 n=d5 v=0
126292 On ch=1 n=e5 v=89
126334 On ch=1 n=e5 v=0
126382 On ch=1 n=d5 v=90
126427 On ch=1 n=d5 v=0
126452 On ch=1 n=e5 v=90
126494 On ch=1 n=e5 v=0
126529 On ch=1 n=d5 v=89
126564 On ch=1 n=d5 v=0
126589 On ch=1 n=e5 v=89
126639 On ch=1 n=d5 v=89
126641 On ch=1 n=e5 v=0
126684 On ch=1 n=d5 v=0
126774 On ch=1 n=d5 v=89
126816 On ch=1 n=d5 v=0
126844 On ch=1 n=c#5 v=90
126886 On ch=1 n=c#5 v=0
126897 On ch=1 n=d5 v=90
126977 On ch=1 n=d5 v=0
126994 On ch=1 n=d#5 v=90
127056 On ch=1 n=d#5 v=0
127072 Par ch=1 c=64 v=0
127072 Par ch=2 c=64 v=0
127087 On ch=1 n=e5 v=90
127129 On ch=1 n=e5 v=0
127157 On ch=1 n=f5 v=89
127267 On ch=1 n=e5 v=90
127299 On ch=1 n=f5 v=0
127392 On ch=1 n=e5 v=0
127409 On ch=2 n=g5 v=101
127497 Par ch=1 c=64 v=127
127497 Par ch=2 c=64 v=127
127514 On ch=1 n=f5 v=90
127546 On ch=2 n=g5 v=0
127621 On ch=1 n=f5 v=0
127639 On ch=1 n=e5 v=90
127722 On ch=1 n=d#5 v=89
127731 On ch=1 n=e5 v=0
127782 On ch=1 n=d#5 v=0
127797 On ch=1 n=d5 v=90
127862 On ch=1 n=d5 v=0
127879 On ch=1 n=c#5 v=90
127969 On ch=1 n=c#5 v=0
127969 On ch=1 n=c5 v=89
128037 On ch=1 n=b4 v=90
128099 On ch=1 n=c5 v=0
128109 On ch=1 n=b4 v=0
128117 On ch=1 n=a#4 v=90
128199 On ch=1 n=a#4 v=0
128207 On ch=1 n=b4 v=89
128274 On ch=1 n=c5 v=90
128337 On ch=1 n=b4 v=0
128339 Par ch=1 c=64 v=0
128339 Par ch=2 c=64 v=0
128344 On ch=1 n=d5 v=90
128376 On ch=1 n=c5 v=0
128442 On ch=1 n=c#5 v=92
128464 On ch=1 n=d5 v=0
128562 On ch=1 n=e5 v=93
128564 On ch=1 n=c#5 v=0
128719 On ch=1 n=d5 v=96
128742 On ch=1 n=e5 v=0
128862 On ch=1 n=c5 v=98
128904 On ch=1 n=d5 v=0
128972 On ch=1 n=b4 v=100
129017 On ch=1 n=c5 v=0
129114 On ch=1 n=b4 v=0
129119 On ch=1 n=a4 v=102
129422 On ch=1 n=g#4 v=119
129474 On ch=1 n=a4 v=0
129744 On ch=1 n=b4 v=127
129777 On ch=1 n=g#4 v=0
130172 On ch=1 n=f4 v=127
130174 On ch=1 n=b4 v=0
130637 On ch=1 n=b4 v=127
130659 On ch=1 n=f4 v=0
130817 Par ch=1 c=64 v=127
130817 Par ch=2 c=64 v=127
131222 On ch=1 n=d4 v=122
131287 On ch=1 n=b4 v=0
131349 Par ch=1 c=64 v=0
131349 Par ch=2 c=64 v=0
132037 On ch=1 n=d#4 v=127
132099 On ch=1 n=d4 v=0
133209 Par ch=1 c=64 v=127
133209 Par ch=2 c=64 v=127
134369 Par ch=1 c=67 v=127
134369 Par ch=2 c=67 v=127
134749 On ch=1 n=e4 v=126
134772 On ch=1 n=d#4 v=0
135014 On ch=1 n=e4 v=0
135202 On ch=1 n=e4 v=126
135424 Par ch=1 c=64 v=0
135424 Par ch=2 c=64 v=0
135647 Par ch=1 c=64 v=127
135647 Par ch=2 c=64 v=127
135692 On ch=1 n=e3 v=118
135849 On ch=1 n=b3 v=116
135874 On ch=1 n=e3 v=0
135974 On ch=1 n=b3 v=0
136014 On ch=1 n=g#4 v=119
136114 On ch=1 n=g#4 v=0
136242 On ch=1 n=d5 v=127
136274 On ch=1 n=e4 v=0
137142 On ch=1 n=c#5 v=127
137184 On ch=1 n=d5 v=0
137187 Par ch=1 c=64 v=0
137187 Par ch=2 c=64 v=0
137544 On ch=1 n=b4 v=94
137607 On ch=1 n=c#5 v=0
137637 Par ch=1 c=64 v=127
137637 Par ch=2 c=64 v=127
137674 On ch=1 n=b4 v=0
137762 On ch=1 n=e3 v=53
137902 On ch=1 n=d4 v=55
137927 On ch=1 n=e3 v=0
138034 On ch=1 n=d4 v=0
138044 On ch=1 n=b4 v=81
138161 On ch=1 n=g#4 v=52
138203 On ch=1 n=g#4 v=0
138791 Par ch=1 c=64 v=0
138791 Par ch=2 c=64 v=0
138799 On ch=1 n=b4 v=0
138816 On ch=1 n=c#5 v=84
139429 Par ch=1 c=64 v=127
139429 Par ch=2 c=64 v=127
139466 On ch=1 n=a3 v=58
139476 On ch=1 n=e4 v=58
139579 On ch=1 n=a4 v=56
139641 On ch=1 n=e5 v=55
139669 On ch=2 n=a5 v=60
139691 On ch=2 n=c#6 v=61
139693 On ch=1 n=c#5 v=0
139751 On ch=2 n=a5 v=0
139751 On ch=1 n=e4 v=0
139761 On ch=1 n=e5 v=0
139763 On ch=2 n=c#6 v=0
139763 On ch=1 n=a3 v=0
139764 On ch=1 n=a4 v=0
140069 On ch=1 n=b4 v=60
140121 On ch=1 n=b4 v=0
140129 On ch=1 n=a4 v=61
140194 On ch=1 n=a4 v=0
140219 On ch=1 n=g#4 v=63
140281 On ch=1 n=g#4 v=0
140291 On ch=1 n=a4 v=64
140316 Par ch=1 c=64 v=0
140316 Par ch=2 c=64 v=0
140341 On ch=1 n=b4 v=65
140353 On ch=1 n=a4 v=0
140376 On ch=1 n=b4 v=0
140399 On ch=1 n=c#5 v=67
140461 On ch=1 n=c#5 v=0
140499 On ch=1 n=b4 v=90
140559 On ch=1 n=b4 v=0
140804 On ch=1 n=b4 v=89
140816 Par ch=1 c=64 v=127
140816 Par ch=2 c=64 v=127
140904 On ch=1 n=e3 v=60
140966 On ch=1 n=b4 v=0
141026 On ch=1 n=e3 v=0
141031 On ch=1 n=b3 v=53
141103 On ch=1 n=b3 v=0
141131 On ch=1 n=e5 v=55
141154 On ch=1 n=g#4 v=55
141171 On ch=2 n=g#5 v=66
141204 On ch=2 n=e6 v=66
141216 On ch=1 n=g#4 v=0
141233 On ch=1 n=e5 v=0
141256 On ch=2 n=g#5 v=0
141276 On ch=2 n=e6 v=0
141311 Par ch=1 c=67 v=0
141311 Par ch=2 c=67 v=0
141516 On ch=1 n=g#4 v=60
141754 On ch=1 n=b4 v=63
141798 On ch=1 n=g#4 v=0
141839 Par ch=1 c=64 v=0
141839 Par ch=2 c=64 v=0
141854 Par ch=1 c=67 v=127
141854 Par ch=2 c=67 v=127
142179 Par ch=1 c=64 v=127
142179 Par ch=2 c=64 v=127
142209 On ch=1 n=b4 v=0
142234 On ch=1 n=a4 v=55
142279 On ch=1 n=a4 v=0
142314 On ch=1 n=a3 v=55
142374 On ch=1 n=e4 v=62
142464 On ch=1 n=a4 v=83
142476 On ch=1 n=e4 v=0
142476 On ch=1 n=a3 v=0
142524 On ch=1 n=c#5 v=83
142574 On ch=1 n=e5 v=60
142594 On ch=2 n=a5 v=58
142606 On ch=2 n=e6 v=58
142626 On ch=1 n=a4 v=0
142646 On ch=1 n=c#5 v=0
142696 On ch=1 n=e5 v=0
142856 On ch=2 n=a5 v=0
142876 On ch=2 n=e6 v=0
143021 On ch=1 n=g#4 v=70
143134 Par ch=1 c=64 v=0
143134 Par ch=2 c=64 v=0
143141 On ch=1 n=g#4 v=0
143166 On ch=1 n=a3 v=52
143196 On ch=1 n=e4 v=52
143329 On ch=1 n=a4 v=75
143359 On ch=1 n=e5 v=82
143399 On ch=2 n=a5 v=60
143449 On ch=2 n=c#6 v=60
143454 Par ch=1 c=64 v=127
143454 Par ch=2 c=64 v=127
143479 On ch=2 n=a5 v=0
143489 On ch=1 n=e5 v=0
143511 On ch=2 n=e6 v=61
143521 On ch=2 n=a6 v=62
143531 On ch=2 n=c#6 v=0
143598 On ch=2 n=e6 v=0
143621 On ch=2 n=a6 v=0
143821 On ch=1 n=e4 v=0
143954 Par ch=1 c=67 v=0
143954 Par ch=2 c=67 v=0
144031 On ch=1 n=a3 v=0
144099 On ch=1 n=a4 v=0
144334 On ch=1 n=a#4 v=65
144381 Par ch=1 c=64 v=0
144381 Par ch=2 c=64 v=0
144524 On ch=1 n=a#4 v=0
144539 On ch=1 n=b4 v=80
144851 Par ch=1 c=64 v=127
144851 Par ch=2 c=64 v=127
145049 On ch=1 n=b4 v=0
145074 On ch=1 n=d#4 v=57
145184 On ch=1 n=b4 v=59
145246 On ch=1 n=d#4 v=0
145294 On ch=1 n=b4 v=0
145304 On ch=1 n=f#5 v=61
145376 On ch=1 n=f#5 v=0
145404 On ch=2 n=a5 v=74
145501 Par ch=1 c=67 v=127
145501 Par ch=2 c=67 v=127
146111 On ch=2 n=a5 v=0
146119 On ch=2 n=g#5 v=73
146324 Par ch=1 c=64 v=0
146324 Par ch=2 c=64 v=0
146536 On ch=1 n=f#5 v=59
146539 On ch=2 n=g#5 v=0
146666 On ch=1 n=b3 v=53
146731 Par ch=1 c=64 v=127
146731 Par ch=2 c=64 v=127
146771 On ch=1 n=f#5 v=0
146813 On ch=1 n=b3 v=0
146856 On ch=1 n=a4 v=56
146948 On ch=1 n=a4 v=0
147006 On ch=1 n=d#5 v=58
147086 On ch=1 n=d#5 v=0
147151 On ch=1 n=f#5 v=87
147886 On ch=1 n=f#5 v=0
147894 On ch=2 n=g#5 v=70
147939 On ch=2 n=g#5 v=0
147981 Par ch=1 c=64 v=0
147981 Par ch=2 c=64 v=0
148059 On ch=2 n=g#5 v=73
148419 Par ch=1 c=64 v=127
148419 Par ch=2 c=64 v=127
148574 On ch=1 n=e4 v=63
148624 On ch=1 n=b4 v=64
148704 On ch=1 n=e5 v=65
148724 On ch=2 n=b5 v=62
148786 On ch=2 n=g#5 v=0
148814 On ch=2 n=g#6 v=61
148816 On ch=2 n=e6 v=61
148866 On ch=2 n=b5 v=0
148896 On ch=2 n=g#6 v=0
148906 On ch=2 n=e6 v=0
148996 On ch=1 n=e5 v=0
149194 On ch=1 n=b4 v=0
149254 On ch=1 n=f#5 v=74
149321 On ch=1 n=f#5 v=0
149339 On ch=1 n=e5 v=75
149414 On ch=1 n=e5 v=0
149419 On ch=1 n=d#5 v=77
149461 On ch=1 n=e4 v=0
149514 On ch=1 n=d#5 v=0
149529 On ch=1 n=e5 v=78
149564 Par ch=1 c=64 v=0
149564 Par ch=2 c=64 v=0
149571 On ch=1 n=e5 v=0
149571 On ch=1 n=f#5 v=78
149611 On ch=1 n=f#5 v=0
149619 On ch=2 n=g#5 v=73
149699 On ch=2 n=g#5 v=0
149699 On ch=1 n=f#5 v=77
149761 On ch=1 n=f#5 v=0
150089 On ch=1 n=f#5 v=90
150104 Par ch=1 c=64 v=127
150104 Par ch=2 c=64 v=127
150156 On ch=1 n=b3 v=80
150229 On ch=1 n=f#5 v=0
150256 On ch=1 n=f#4 v=52
150319 On ch=2 n=a5 v=65
150366 On ch=1 n=d#5 v=53
150371 On ch=1 n=b3 v=0
150391 On ch=2 n=d#6 v=64
150401 On ch=1 n=f#4 v=0
150441 On ch=2 n=b6 v=63
150451 On ch=1 n=d#5 v=0
150451 On ch=2 n=a5 v=0
150463 On ch=2 n=d#6 v=0
150533 On ch=2 n=b6 v=0
150861 On ch=1 n=d#5 v=61
151123 On ch=1 n=d#5 v=0
151149 On ch=1 n=f#5 v=98
151174 Par ch=1 c=64 v=0
151174 Par ch=2 c=64 v=0
151736 On ch=1 n=f#5 v=0
151746 On ch=1 n=e5 v=59
151858 On ch=1 n=e5 v=0
151866 On ch=1 n=e4 v=61
151986 On ch=1 n=b4 v=63
152111 On ch=2 n=g#5 v=56
152119 On ch=1 n=e5 v=91
152211 On ch=2 n=e6 v=58
152271 On ch=2 n=g#5 v=0
152291 Par ch=1 c=64 v=127
152291 Par ch=2 c=64 v=127
152301 On ch=2 n=b6 v=58
152348 On ch=2 n=e6 v=0
152381 On ch=2 n=b6 v=0
152626 On ch=1 n=e5 v=0
152628 On ch=1 n=e4 v=0
152715 On ch=1 n=b4 v=0
153013 On ch=1 n=d#5 v=70
153123 On ch=1 n=d#5 v=0
153176 On ch=1 n=e4 v=52
153233 Par ch=1 c=64 v=0
153233 Par ch=2 c=64 v=0
153258 On ch=1 n=b4 v=53
153378 On ch=1 n=e5 v=75
153491 On ch=2 n=b5 v=56
153528 On ch=2 n=e6 v=57
153538 Par ch=1 c=64 v=127
153538 Par ch=2 c=64 v=127
153615 On ch=2 n=g#6 v=58
153618 On ch=2 n=b5 v=0
153627 On ch=2 n=e6 v=0
153668 On ch=2 n=b6 v=59
153670 On ch=2 n=g#6 v=0
153730 On ch=2 n=e7 v=59
153740 On ch=2 n=b6 v=0
153809 On ch=2 n=e7 v=0
154409 On ch=1 n=b4 v=0
154469 On ch=1 n=e5 v=0
154662 On ch=1 n=e4 v=0
155077 On ch=2 n=d#6 v=57
155085 On ch=1 n=d#5 v=62
155550 On ch=1 n=e3 v=70
155642 Par ch=1 c=64 v=0
155642 Par ch=2 c=64 v=0
155650 On ch=1 n=d#5 v=0
155730 On ch=1 n=e5 v=68
155842 On ch=2 n=e6 v=69
155944 On ch=2 n=d#6 v=0
155965 Par ch=1 c=64 v=127
155965 Par ch=2 c=64 v=127
156055 On ch=1 n=e3 v=0
156232 On ch=1 n=e5 v=0
156430 On ch=1 n=g#4 v=57
156440 On ch=1 n=d5 v=57
156840 On ch=2 n=g#5 v=85
156847 On ch=1 n=e5 v=52
156979 On ch=2 n=e6 v=0
156990 On ch=1 n=d5 v=0
157000 On ch=2 n=d6 v=87
157157 On ch=2 n=d7 v=90
157200 On ch=1 n=g#4 v=0
157485 On ch=2 n=d6 v=0
157490 On ch=1 n=d5 v=57
157492 On ch=1 n=e5 v=0
157492 On ch=2 n=g#5 v=0
157500 On ch=1 n=g#4 v=57
157725 On ch=2 n=g#5 v=81
157735 On ch=1 n=e5 v=53
157819 On ch=2 n=d7 v=0
157910 On ch=1 n=d5 v=0
157920 On ch=2 n=c#7 v=78
157920 On ch=2 n=c#6 v=78
157980 On ch=1 n=g#4 v=0
158112 On ch=2 n=c#7 v=0
158310 On ch=1 n=g#4 v=54
158330 On ch=1 n=d5 v=54
158360 On ch=2 n=g#5 v=0
158390 On ch=1 n=e5 v=0
158580 On ch=2 n=c#6 v=0
158670 On ch=2 n=b5 v=89
158680 On ch=2 n=b6 v=89
158722 On ch=2 n=b5 v=0
158725 On ch=2 n=b6 v=0
158762 Par ch=1 c=64 v=0
158762 Par ch=2 c=64 v=0
158790 On ch=1 n=e5 v=52
158790 On ch=2 n=g#5 v=91
158830 On ch=2 n=b5 v=90
158830 On ch=2 n=b6 v=90
158980 On ch=1 n=d5 v=0
159097 On ch=1 n=g#4 v=0
159097 Par ch=1 c=64 v=127
159097 Par ch=2 c=64 v=127
159285 On ch=1 n=d5 v=52
159292 On ch=1 n=g#4 v=52
159325 On ch=2 n=b5 v=0
159335 On ch=2 n=g#5 v=0
159415 On ch=1 n=e5 v=0
159534 On ch=1 n=g#4 v=0
159545 On ch=1 n=d5 v=0
159972 On ch=1 n=a3 v=58
159987 Par ch=1 c=64 v=0
159987 Par ch=2 c=64 v=0
160070 On ch=2 n=b6 v=0
160157 On ch=2 n=c#6 v=78
160255 On ch=2 n=e6 v=80
160320 On ch=2 n=c#7 v=80
160347 On ch=1 n=a3 v=0
160350 Par ch=1 c=64 v=127
160350 Par ch=2 c=64 v=127
160467 On ch=2 n=c#6 v=0
160540 On ch=2 n=e6 v=0
160617 On ch=1 n=a4 v=52
160617 On ch=1 n=c#5 v=52
160635 Par ch=1 c=67 v=0
160635 Par ch=2 c=67 v=0
160947 On ch=1 n=e5 v=52
160947 On ch=2 n=a5 v=71
161077 On ch=1 n=a4 v=0
161110 On ch=2 n=c#7 v=0
161137 On ch=2 n=b6 v=73
161197 On ch=1 n=c#5 v=0
161229 On ch=2 n=b6 v=0
161235 On ch=2 n=a6 v=75
161264 On ch=2 n=a5 v=0
161272 On ch=1 n=a4 v=53
161284 On ch=1 n=e5 v=0
161294 On ch=2 n=a6 v=0
161312 On ch=2 n=g#6 v=77
161322 On ch=1 n=c#5 v=55
161392 On ch=2 n=g#6 v=0
161401 On ch=1 n=a4 v=0
161402 On ch=1 n=c#5 v=0
161412 On ch=2 n=a6 v=78
161414 Par ch=1 c=64 v=0
161414 Par ch=2 c=64 v=0
161472 On ch=2 n=a6 v=0
161479 On ch=2 n=b6 v=79
161521 On ch=2 n=b6 v=0
161544 On ch=2 n=c#7 v=80
161567 On ch=1 n=e4 v=58
161581 On ch=2 n=c#7 v=0
161597 On ch=2 n=b5 v=81
161629 On ch=2 n=b6 v=82
161639 On ch=2 n=b5 v=0
161691 On ch=2 n=b6 v=0
161692 Par ch=1 c=64 v=127
161692 Par ch=2 c=64 v=127
161789 On ch=1 n=e4 v=0
161877 On ch=2 n=b6 v=85
161884 On ch=1 n=g#4 v=63
161884 On ch=1 n=d5 v=63
161887 On ch=2 n=e6 v=85
161897 On ch=2 n=b5 v=85
162119 On ch=1 n=f#5 v=67
162192 On ch=2 n=b5 v=0
162196 On ch=1 n=f#5 v=0
162282 On ch=2 n=b6 v=0
162289 On ch=1 n=g#4 v=0
162317 On ch=1 n=e5 v=70
162317 On ch=1 n=b4 v=70
162369 On ch=1 n=d5 v=0
162387 On ch=1 n=e5 v=0
162389 On ch=1 n=b4 v=0
162389 On ch=2 n=g#6 v=85
162399 On ch=2 n=g#5 v=85
162409 Par ch=1 c=64 v=0
162409 Par ch=2 c=64 v=0
162483 On ch=2 n=g#5 v=0
162554 On ch=1 n=a3 v=100
162586 On ch=2 n=b6 v=100
162606 On ch=2 n=b5 v=105
162638 On ch=2 n=g#6 v=0
162716 Par ch=1 c=64 v=127
162716 Par ch=2 c=64 v=127
162796 On ch=1 n=a3 v=0
162868 On ch=2 n=b6 v=0
162876 On ch=2 n=b5 v=0
162876 On ch=2 n=e6 v=0
162904 On ch=1 n=a4 v=106
162906 On ch=1 n=c#5 v=106
162961 On ch=2 n=a5 v=100
162964 On ch=2 n=a6 v=100
163004 On ch=2 n=b6 v=105
163006 On ch=2 n=a5 v=0
163009 On ch=2 n=a6 v=0
163079 On ch=1 n=e5 v=108
163084 On ch=2 n=a6 v=123
163096 On ch=2 n=b6 v=0
163101 On ch=2 n=a5 v=127
163134 On ch=2 n=a6 v=0
163143 On ch=2 n=a5 v=0
163254 On ch=1 n=a4 v=0
163261 On ch=1 n=c#5 v=0
163349 On ch=1 n=a4 v=113
163369 On ch=1 n=c#5 v=113
163421 On ch=1 n=e5 v=0
163439 On ch=2 n=g#6 v=85
163446 On ch=2 n=g#5 v=85
163461 On ch=1 n=c#5 v=0
163471 On ch=1 n=a4 v=0
163481 On ch=2 n=g#6 v=0
163488 On ch=2 n=g#5 v=0
163549 On ch=2 n=a5 v=103
163556 On ch=1 n=e5 v=116
163559 On ch=2 n=a6 v=106
163704 On ch=1 n=a4 v=118
163706 On ch=1 n=e5 v=0
163711 On ch=1 n=c#5 v=118
163811 On ch=1 n=c#5 v=0
163814 On ch=1 n=a4 v=0
163881 On ch=2 n=a6 v=0
163899 On ch=2 n=a5 v=0
164026 Par ch=1 c=64 v=0
164026 Par ch=2 c=64 v=0
164054 On ch=2 n=a#6 v=118
164054 On ch=2 n=a#5 v=118
164184 On ch=1 n=d#3 v=127
164194 On ch=1 n=d#4 v=127
164279 On ch=2 n=a#6 v=0
164286 On ch=2 n=a#5 v=0
164364 On ch=2 n=b5 v=127
164374 On ch=2 n=b6 v=127
164384 Par ch=1 c=64 v=127
164384 Par ch=2 c=64 v=127
164506 On ch=1 n=d#3 v=0
164516 On ch=1 n=d#4 v=0
164626 On ch=2 n=b5 v=0
164734 On ch=1 n=b4 v=118
164746 On ch=1 n=f#5 v=118
164954 On ch=2 n=a5 v=97
164966 On ch=2 n=b5 v=97
165069 On ch=2 n=b6 v=0
165091 On ch=2 n=a6 v=108
165214 On ch=2 n=a7 v=127
165351 On ch=1 n=b4 v=0
165371 On ch=1 n=f#5 v=0
165489 On ch=1 n=b4 v=106
165489 On ch=1 n=f#5 v=106
165569 On ch=2 n=a5 v=0
165571 On ch=2 n=b5 v=0
165661 On ch=2 n=a6 v=0
165696 On ch=2 n=a5 v=88
165696 On ch=2 n=b5 v=88
165871 On ch=2 n=a7 v=0
165876 On ch=2 n=g#6 v=110
165879 On ch=2 n=g#7 v=110
166016 On ch=1 n=f#5 v=0
166026 On ch=1 n=b4 v=0
166158 On ch=1 n=f#5 v=95
166163 On ch=1 n=b4 v=95
166258 On ch=2 n=g#6 v=0
166338 On ch=2 n=f#7 v=124
166346 On ch=2 n=f#6 v=124
166370 On ch=2 n=f#7 v=0
166388 On ch=2 n=f#6 v=0
166391 On ch=2 n=g#7 v=0
166418 On ch=2 n=b5 v=0
166418 On ch=2 n=a5 v=0
166488 On ch=2 n=f#7 v=125
166506 On ch=2 n=a5 v=125
166508 On ch=2 n=b5 v=125
166508 On ch=2 n=f#6 v=125
166728 On ch=1 n=f#5 v=0
166760 On ch=1 n=b4 v=0
166958 On ch=1 n=b4 v=95
166958 On ch=1 n=f#5 v=95
166968 On ch=2 n=a5 v=0
166977 On ch=2 n=b5 v=0
167057 On ch=1 n=f#5 v=0
167060 On ch=1 n=b4 v=0
167553 On ch=1 n=e3 v=103
167638 Par ch=1 c=64 v=0
167638 Par ch=2 c=64 v=0
167677 On ch=2 n=f#6 v=0
167708 Par ch=1 c=67 v=127
167708 Par ch=2 c=67 v=127
167780 On ch=1 n=e4 v=100
167890 On ch=2 n=g#6 v=115
168010 On ch=2 n=b6 v=117
168110 On ch=2 n=g#7 v=118
168152 On ch=2 n=f#7 v=0
168153 Par ch=1 c=64 v=127
168153 Par ch=2 c=64 v=127
168190 On ch=1 n=e3 v=0
168200 On ch=1 n=e4 v=0
168488 On ch=1 n=e5 v=88
168488 On ch=1 n=b4 v=88
168545 On ch=2 n=g#6 v=0
168565 On ch=2 n=b6 v=0
168843 On ch=2 n=b5 v=106
168850 On ch=2 n=g#5 v=106
168960 On ch=1 n=e5 v=0
169073 On ch=2 n=f#7 v=102
169093 On ch=1 n=b4 v=0
169127 On ch=2 n=g#7 v=0
169235 On ch=2 n=f#7 v=0
169240 On ch=2 n=g#5 v=0
169243 On ch=2 n=e7 v=100
169263 On ch=2 n=b5 v=0
169305 On ch=1 n=b4 v=79
169305 On ch=1 n=e5 v=79
169350 On ch=2 n=d#7 v=101
169353 On ch=2 n=e7 v=0
169397 On ch=1 n=b4 v=0
169462 On ch=2 n=d#7 v=0
169470 On ch=2 n=e7 v=103
169487 On ch=1 n=e5 v=0
169538 Par ch=1 c=64 v=0
169538 Par ch=2 c=64 v=0
169548 On ch=2 n=f#7 v=104
169590 On ch=2 n=e7 v=0
169610 On ch=2 n=f#7 v=0
169618 On ch=2 n=g#7 v=105
169700 On ch=2 n=g#7 v=0
169725 On ch=2 n=f#7 v=105
169733 On ch=2 n=f#6 v=105
169743 On ch=1 n=b3 v=85
169908 Par ch=1 c=64 v=127
169908 Par ch=2 c=64 v=127
169983 On ch=1 n=b3 v=0
170085 On ch=2 n=f#7 v=0
170103 On ch=2 n=f#6 v=0
170185 On ch=1 n=d#5 v=78
170195 On ch=2 n=a5 v=101
170238 On ch=2 n=f#7 v=110
170238 On ch=2 n=f#6 v=110
170238 On ch=2 n=b6 v=110
170432 On ch=2 n=a5 v=0
170450 On ch=2 n=c#6 v=113
170612 On ch=2 n=c#6 v=0
170643 On ch=2 n=f#6 v=0
170740 On ch=1 n=f#5 v=69
170750 On ch=2 n=b5 v=108
170862 On ch=1 n=d#5 v=0
170882 On ch=1 n=f#5 v=0
170892 On ch=2 n=b5 v=0
170952 On ch=2 n=f#7 v=0
170987 On ch=2 n=d#6 v=107
170997 On ch=2 n=d#7 v=107
171304 On ch=2 n=d#6 v=0
171312 On ch=1 n=e3 v=75
171314 Par ch=1 c=64 v=0
171314 Par ch=2 c=64 v=0
171394 On ch=2 n=b6 v=0
171514 On ch=2 n=d#7 v=0
171539 On ch=2 n=f#6 v=115
171569 On ch=2 n=f#7 v=115
171702 On ch=1 n=e3 v=0
171707 Par ch=1 c=64 v=127
171707 Par ch=2 c=64 v=127
172072 On ch=1 n=b4 v=63
172082 On ch=1 n=e5 v=63
172156 On ch=2 n=f#7 v=0
172176 On ch=2 n=f#6 v=0
172257 On ch=2 n=e6 v=110
172267 On ch=2 n=e7 v=110
172362 On ch=2 n=e7 v=0
172379 On ch=2 n=e6 v=0
172609 On ch=2 n=g#5 v=104
172682 On ch=2 n=b5 v=103
172742 On ch=2 n=f#7 v=104
172772 On ch=2 n=f#6 v=105
172814 On ch=2 n=f#6 v=0
172824 On ch=2 n=f#7 v=0
172872 On ch=1 n=e5 v=0
172892 On ch=2 n=e7 v=107
172902 On ch=2 n=e6 v=107
172964 Par ch=1 c=64 v=0
172964 Par ch=2 c=64 v=0
173004 On ch=1 n=b4 v=0
173272 Par ch=1 c=64 v=127
173272 Par ch=2 c=64 v=127
173342 On ch=1 n=e5 v=56
173362 On ch=1 n=b4 v=55
173452 On ch=2 n=e6 v=0
173457 On ch=2 n=e7 v=0
173869 On ch=2 n=g#5 v=0
173872 On ch=2 n=d#7 v=97
173882 On ch=2 n=b5 v=0
173889 On ch=2 n=d#6 v=97
174079 On ch=2 n=d#6 v=0
174112 On ch=2 n=g#5 v=100
174117 Par ch=1 c=64 v=0
174117 Par ch=2 c=64 v=0
174139 On ch=2 n=d#7 v=0
174144 On ch=2 n=e7 v=100
174152 On ch=2 n=e6 v=100
174154 On ch=2 n=b5 v=100
174474 Par ch=1 c=64 v=127
174474 Par ch=2 c=64 v=127
174514 On ch=1 n=e5 v=0
174667 On ch=1 n=b4 v=0
174854 On ch=1 n=e5 v=52
174864 On ch=1 n=b4 v=52
174887 On ch=2 n=e6 v=0
174899 On ch=2 n=e7 v=0
174906 On ch=2 n=b5 v=0
174977 On ch=2 n=g#5 v=0
175129 On ch=1 n=b4 v=0
175136 On ch=1 n=e5 v=0
175164 Par ch=1 c=67 v=0
175164 Par ch=2 c=67 v=0
176369 Par ch=1 c=64 v=0
176369 Par ch=2 c=64 v=0
176857 On ch=1 n=d3 v=127
176907 Par ch=1 c=64 v=127
176907 Par ch=2 c=64 v=127
177427 On ch=1 n=d3 v=0
177434 On ch=1 n=d4 v=118
177671 On ch=1 n=d4 v=0
177729 On ch=1 n=f4 v=113
177859 On ch=1 n=a#4 v=112
177927 On ch=1 n=d5 v=110
177969 On ch=1 n=f5 v=110
178059 On ch=2 n=a#5 v=127
178089 On ch=2 n=f6 v=127
178249 On ch=1 n=a#4 v=0
178762 On ch=1 n=d5 v=0
178871 On ch=1 n=f5 v=0
179082 On ch=1 n=a#4 v=123
179084 On ch=1 n=f5 v=123
179094 On ch=1 n=d5 v=123
179874 On ch=2 n=f6 v=0
179879 On ch=2 n=e6 v=122
180134 On ch=2 n=a#5 v=0
180319 On ch=2 n=d6 v=127
180399 On ch=2 n=e6 v=0
180507 Par ch=1 c=64 v=0
180507 Par ch=2 c=64 v=0
180666 On ch=2 n=d6 v=0
180674 On ch=2 n=c#6 v=127
180766 On ch=1 n=d5 v=0
180774 On ch=1 n=f5 v=0
180784 Par ch=1 c=67 v=127
180784 Par ch=2 c=67 v=127
180796 On ch=1 n=f4 v=0
180927 On ch=1 n=d5 v=110
180927 On ch=1 n=f5 v=110
180934 On ch=1 n=f4 v=110
181019 On ch=2 n=d6 v=127
181071 On ch=2 n=c#6 v=0
181491 On ch=2 n=d6 v=0
181612 On ch=2 n=c#6 v=117
181862 On ch=2 n=c#6 v=0
181954 On ch=2 n=a#5 v=122
182064 On ch=1 n=f5 v=0
182074 On ch=1 n=a#4 v=0
182084 On ch=1 n=d5 v=0
182199 On ch=1 n=d5 v=97
182201 On ch=1 n=f5 v=97
182211 On ch=1 n=a#4 v=97
182748 On ch=1 n=f5 v=0
182751 On ch=1 n=d5 v=0
182768 On ch=1 n=a#4 v=0
182881 On ch=1 n=f4 v=0
183576 On ch=1 n=d3 v=90
183656 On ch=2 n=a#5 v=0
183931 On ch=1 n=d4 v=87
183943 On ch=1 n=d3 v=0
184199 On ch=1 n=f4 v=82
184306 On ch=1 n=a#4 v=81
184406 On ch=1 n=d5 v=79
184569 On ch=1 n=f5 v=77
184626 On ch=2 n=a#5 v=103
184731 On ch=2 n=f6 v=103
185094 Par ch=1 c=64 v=127
185094 Par ch=2 c=64 v=127
185123 On ch=1 n=d4 v=0
185134 On ch=1 n=f4 v=0
185183 On ch=1 n=a#4 v=0
185244 On ch=1 n=f5 v=0
185256 On ch=1 n=d5 v=0
185383 On ch=2 n=a#5 v=0
185754 On ch=1 n=f5 v=63
185764 On ch=1 n=d5 v=63
185774 On ch=1 n=a#4 v=63
185858 On ch=2 n=f6 v=0
186581 On ch=2 n=e6 v=98
186828 On ch=2 n=e6 v=0
187019 On ch=2 n=d6 v=91
187219 On ch=2 n=d6 v=0
187346 On ch=2 n=c#6 v=87
187366 On ch=1 n=f5 v=0
187376 On ch=1 n=d5 v=0
187435 On ch=2 n=c#6 v=0
187568 On ch=2 n=c#6 v=90
187668 On ch=2 n=e6 v=92
187670 On ch=2 n=c#6 v=0
187696 On ch=1 n=d5 v=56
187698 On ch=1 n=f5 v=56
187708 On ch=1 n=f4 v=56
187753 On ch=2 n=d6 v=93
187780 On ch=2 n=e6 v=0
187850 On ch=2 n=d6 v=0
187873 Par ch=1 c=64 v=0
187873 Par ch=2 c=64 v=0
187878 On ch=2 n=c#6 v=95
188028 On ch=2 n=c#6 v=0
188098 On ch=1 n=a#4 v=0
188108 On ch=1 n=d5 v=0
188115 On ch=1 n=f5 v=0
188116 On ch=2 n=a#5 v=99
188373 On ch=1 n=d5 v=52
188381 On ch=1 n=a#4 v=52
188383 On ch=1 n=f5 v=52
188393 Par ch=1 c=64 v=127
188393 Par ch=2 c=64 v=127
188513 On ch=1 n=d5 v=0
188528 On ch=1 n=f5 v=0
188530 On ch=1 n=f4 v=0
188531 On ch=1 n=a#4 v=0
188961 Par ch=1 c=64 v=0
188961 Par ch=2 c=64 v=0
188998 On ch=2 n=a5 v=113
189061 On ch=2 n=a#5 v=0
189236 Par ch=1 c=67 v=0
189236 Par ch=2 c=67 v=0
189456 On ch=2 n=c6 v=120
189485 On ch=2 n=a5 v=0
189556 Par ch=1 c=64 v=127
189556 Par ch=2 c=64 v=127
189601 On ch=1 n=e4 v=71
189601 On ch=1 n=e5 v=71
189608 On ch=2 n=a5 v=117
189618 On ch=1 n=c5 v=71
189735 On ch=2 n=a5 v=0
189738 On ch=1 n=c5 v=0
189746 On ch=1 n=e5 v=0
189748 On ch=1 n=e4 v=0
189758 On ch=2 n=c6 v=0
189968 Par ch=1 c=64 v=0
189968 Par ch=2 c=64 v=0
190091 On ch=2 n=a5 v=117
190193 On ch=2 n=a5 v=0
190211 On ch=2 n=g#5 v=118
190368 On ch=1 n=e3 v=68
190441 Par ch=1 c=64 v=127
190441 Par ch=2 c=64 v=127
190501 On ch=2 n=b5 v=113
190538 On ch=2 n=g#5 v=0
190550 On ch=1 n=e3 v=0
190578 On ch=1 n=b4 v=65
190638 On ch=1 n=d5 v=64
190656 On ch=2 n=g#5 v=111
190661 On ch=2 n=b5 v=0
190688 On ch=2 n=e6 v=110
190708 On ch=1 n=b4 v=0
190748 On ch=1 n=d5 v=0
190825 On ch=2 n=e6 v=0
190836 On ch=2 n=g#5 v=0
191048 On ch=2 n=g#5 v=114
191053 Par ch=1 c=64 v=0
191053 Par ch=2 c=64 v=0
191078 On ch=1 n=e4 v=68
191128 On ch=1 n=c5 v=68
191160 On ch=2 n=g#5 v=0
191188 On ch=1 n=a3 v=68
191208 On ch=2 n=b5 v=116
191563 On ch=2 n=b5 v=0
191581 On ch=2 n=a5 v=110
191615 On ch=1 n=e4 v=0
191623 On ch=2 n=a5 v=0
191651 Par ch=1 c=67 v=127
191651 Par ch=2 c=67 v=127
191653 On ch=1 n=c5 v=0
191736 On ch=2 n=a5 v=108
191738 On ch=1 n=e4 v=59
191758 On ch=1 n=e5 v=58
191778 On ch=2 n=a5 v=0
191803 On ch=2 n=b5 v=113
191813 On ch=1 n=c5 v=58
191853 On ch=1 n=e5 v=0
191875 On ch=2 n=b5 v=0
191883 On ch=2 n=a5 v=127
191936 Par ch=1 c=64 v=127
191936 Par ch=2 c=64 v=127
192110 On ch=2 n=a5 v=0
192220 On ch=1 n=c5 v=0
192290 On ch=1 n=a3 v=0
192293 On ch=1 n=e4 v=0
192348 On ch=2 n=g#5 v=122
192393 Par ch=1 c=64 v=0
192393 Par ch=2 c=64 v=0
192450 On ch=2 n=g#5 v=0
192518 On ch=2 n=a5 v=125
192526 On ch=1 n=a3 v=59
192538 On ch=1 n=e4 v=58
192538 On ch=1 n=c5 v=58
192548 On ch=1 n=a4 v=58
192613 Par ch=1 c=67 v=0
192613 Par ch=2 c=67 v=0
192756 Par ch=1 c=64 v=127
192756 Par ch=2 c=64 v=127
192916 On ch=1 n=a3 v=0
192938 On ch=1 n=e4 v=0
192965 On ch=1 n=a4 v=0
192965 On ch=1 n=c5 v=0
193005 On ch=2 n=a5 v=0
193651 Par ch=1 c=64 v=0
193651 Par ch=2 c=64 v=0
193696 On ch=1 n=d3 v=127
193971 Par ch=1 c=64 v=127
193971 Par ch=2 c=64 v=127
194008 On ch=1 n=d4 v=122
194053 On ch=1 n=d3 v=0
194176 On ch=1 n=f4 v=119
194278 On ch=1 n=d4 v=0
194316 On ch=1 n=a#4 v=117
194356 On ch=1 n=d5 v=116
194396 On ch=1 n=f5 v=115
194426 On ch=2 n=a#5 v=127
194466 On ch=2 n=f6 v=127
194476 On ch=1 n=a#4 v=0
194833 On ch=1 n=d5 v=0
194921 On ch=1 n=f5 v=0
195006 On ch=1 n=a#4 v=106
195006 On ch=1 n=d5 v=106
195016 On ch=1 n=f5 v=106
195078 On ch=2 n=f6 v=0
195088 On ch=2 n=a#5 v=0
195565 On ch=2 n=e6 v=118
195867 On ch=2 n=e6 v=0
195923 On ch=2 n=d6 v=113
196100 On ch=2 n=d6 v=0
196193 On ch=2 n=c#6 v=117
196235 On ch=2 n=c#6 v=0
196280 On ch=1 n=f5 v=0
196283 On ch=1 n=d5 v=0
196320 On ch=2 n=c#6 v=119
196343 On ch=1 n=f4 v=0
196353 On ch=2 n=e6 v=120
196362 On ch=2 n=c#6 v=0
196420 On ch=1 n=d5 v=106
196420 On ch=1 n=f5 v=106
196423 On ch=2 n=d6 v=120
196430 On ch=1 n=f4 v=105
196433 On ch=2 n=e6 v=0
196503 On ch=2 n=d6 v=0
196650 On ch=2 n=c#6 v=124
196720 On ch=2 n=c#6 v=0
196785 On ch=2 n=a#5 v=125
196815 On ch=1 n=f5 v=0
196817 On ch=1 n=d5 v=0
196818 On ch=1 n=a#4 v=0
196963 On ch=1 n=a#4 v=98
196973 On ch=1 n=d5 v=98
196975 On ch=1 n=f5 v=98
197055 On ch=1 n=d5 v=0
197055 On ch=1 n=a#4 v=0
197065 On ch=1 n=f5 v=0
197087 On ch=1 n=f4 v=0
197358 Par ch=1 c=64 v=0
197358 Par ch=2 c=64 v=0
197383 On ch=1 n=d3 v=105
197658 Par ch=1 c=64 v=127
197658 On ch=1 n=d4 v=101
197658 Par ch=2 c=64 v=127
197750 On ch=1 n=d3 v=0
197798 On ch=1 n=f4 v=99
197833 On ch=1 n=d4 v=0
197948 On ch=1 n=a#4 v=102
197968 On ch=1 n=d5 v=102
197998 On ch=1 n=f5 v=102
198012 On ch=2 n=a#5 v=0
198040 On ch=1 n=f4 v=0
198070 On ch=1 n=d5 v=0
198100 On ch=2 n=a#5 v=127
198110 On ch=1 n=f5 v=0
198133 On ch=1 n=a#4 v=0
198142 On ch=2 n=a#5 v=0
198175 On ch=1 n=f4 v=104
198175 On ch=2 n=d6 v=127
198280 On ch=2 n=f7 v=127
198282 On ch=2 n=d6 v=0
198585 On ch=1 n=a#4 v=97
198585 On ch=1 n=f5 v=97
198595 On ch=1 n=d5 v=97
198707 On ch=2 n=f7 v=0
198718 On ch=2 n=e7 v=120
198843 On ch=2 n=e7 v=0
198858 On ch=2 n=d7 v=118
198947 On ch=1 n=f5 v=0
198967 On ch=1 n=d5 v=0
198968 On ch=2 n=c#7 v=116
198970 On ch=2 n=d7 v=0
198987 On ch=1 n=f4 v=0
199073 On ch=1 n=f5 v=104
199083 On ch=1 n=d5 v=104
199085 On ch=2 n=a#6 v=114
199088 On ch=2 n=c#7 v=0
199103 On ch=1 n=f4 v=104
199185 On ch=2 n=a#6 v=0
199205 On ch=2 n=a6 v=112
199305 On ch=2 n=g#6 v=111
199307 On ch=2 n=a6 v=0
199347 On ch=1 n=a#4 v=0
199355 On ch=1 n=f5 v=0
199358 On ch=1 n=d5 v=0
199395 On ch=2 n=g6 v=109
199400 On ch=2 n=g#6 v=0
199460 On ch=2 n=g6 v=0
199460 On ch=2 n=f#6 v=110
199468 On ch=1 n=a#4 v=107
199478 On ch=1 n=d5 v=107
199478 On ch=1 n=f5 v=107
199538 On ch=2 n=e6 v=112
199540 On ch=2 n=f#6 v=0
199620 On ch=2 n=e6 v=0
199628 On ch=2 n=d6 v=113
199720 On ch=2 n=d6 v=0
199723 Par ch=1 c=64 v=0
199723 Par ch=2 c=64 v=0
199730 On ch=2 n=c#6 v=115
199827 On ch=2 n=c#6 v=0
199837 On ch=2 n=e6 v=116
199857 On ch=1 n=f4 v=0
199915 On ch=2 n=d6 v=117
199937 On ch=2 n=e6 v=0
199995 Par ch=1 c=64 v=127
199995 Par ch=2 c=64 v=127
200047 On ch=2 n=d6 v=0
200297 Par ch=1 c=64 v=0
200297 Par ch=2 c=64 v=0
200365 On ch=2 n=c#6 v=109
200585 Par ch=1 c=64 v=127
200585 Par ch=2 c=64 v=127
200625 On ch=2 n=c#6 v=0
200922 Par ch=1 c=64 v=0
200922 Par ch=2 c=64 v=0
200947 On ch=2 n=a#5 v=112
201587 Par ch=1 c=64 v=127
201587 Par ch=2 c=64 v=127
201929 On ch=2 n=a#5 v=0
202420 On ch=2 n=a#5 v=106
202427 On ch=1 n=f5 v=0
202430 On ch=1 n=d5 v=0
202442 On ch=1 n=a#4 v=0
202687 On ch=2 n=a#5 v=0
202877 On ch=2 n=a#5 v=113
203047 On ch=2 n=a#5 v=0
203175 On ch=2 n=a#5 v=118
203335 On ch=2 n=a#5 v=0
203457 On ch=2 n=a#5 v=122
203507 On ch=2 n=a#5 v=0
203685 On ch=2 n=a#5 v=126
203727 On ch=2 n=a#5 v=0
203897 On ch=2 n=a#5 v=127
203947 On ch=2 n=a#5 v=0
204077 On ch=2 n=a#5 v=127
204129 On ch=2 n=a#5 v=0
204257 On ch=2 n=a#5 v=125
204309 On ch=2 n=a#5 v=0
204410 On ch=2 n=a#5 v=122
204487 On ch=2 n=a#5 v=0
204592 On ch=2 n=a#5 v=120
204654 On ch=2 n=a#5 v=0
204767 On ch=2 n=a#5 v=117
204839 On ch=2 n=a#5 v=0
204957 On ch=2 n=a#5 v=114
205029 On ch=2 n=a#5 v=0
205155 On ch=2 n=a#5 v=110
205227 On ch=2 n=a#5 v=0
205382 On ch=2 n=a#5 v=107
205509 On ch=2 n=a#5 v=0
205655 On ch=2 n=a#5 v=103
205790 On ch=2 n=a#5 v=0
205920 On ch=2 n=a#5 v=98
206080 On ch=2 n=a#5 v=0
206262 On ch=2 n=a#5 v=93
206409 On ch=2 n=a#5 v=0
206595 On ch=2 n=a#5 v=88
206825 On ch=2 n=a#5 v=0
207105 On ch=2 n=a#5 v=80
207320 On ch=2 n=a#5 v=0
208887 On ch=2 n=a#5 v=62
209597 On ch=1 n=c#5 v=62
209650 Par ch=1 c=64 v=0
209650 Par ch=2 c=64 v=0
209677 On ch=1 n=f#5 v=60
209865 On ch=2 n=c#6 v=79
210100 Par ch=1 c=64 v=127
210100 Par ch=2 c=64 v=127
210314 On ch=1 n=c#5 v=0
210529 On ch=1 n=f#5 v=0
211087 On ch=1 n=f#4 v=55
211097 On ch=1 n=c#4 v=56
211097 On ch=1 n=a#4 v=56
211337 On ch=1 n=a#4 v=0
211337 On ch=1 n=f#4 v=0
211337 On ch=2 n=c#6 v=0
211359 On ch=1 n=c#4 v=0
211675 On ch=2 n=g#5 v=67
211715 On ch=1 n=f#5 v=65
211737 On ch=2 n=a#5 v=0
211755 On ch=1 n=f#5 v=0
211765 On ch=2 n=g#5 v=0
211785 On ch=1 n=f5 v=67
211865 On ch=1 n=f5 v=0
211867 On ch=1 n=f#5 v=65
211907 On ch=2 n=g#5 v=70
211930 Par ch=1 c=64 v=0
211930 Par ch=2 c=64 v=0
211967 On ch=2 n=a#5 v=71
211994 On ch=1 n=f#5 v=0
212004 On ch=2 n=c#6 v=72
212011 On ch=2 n=g#5 v=0
212056 On ch=2 n=a#5 v=0
212084 On ch=2 n=c#6 v=0
212264 On ch=1 n=c#3 v=58
212329 On ch=2 n=c#6 v=77
212334 On ch=2 n=g#5 v=76
212337 On ch=1 n=c#5 v=58
212359 Par ch=1 c=64 v=127
212359 Par ch=2 c=64 v=127
212426 On ch=1 n=c#3 v=0
212564 On ch=1 n=c#4 v=54
212574 On ch=1 n=b4 v=53
212574 On ch=1 n=g#4 v=53
212654 On ch=1 n=c#5 v=0
212656 On ch=1 n=g#4 v=0
212656 On ch=1 n=b4 v=0
212666 On ch=1 n=c#4 v=0
212804 On ch=2 n=c#6 v=0
212822 On ch=1 n=f5 v=52
212824 On ch=2 n=g#5 v=0
212902 On ch=1 n=f5 v=0
213034 Par ch=1 c=64 v=0
213034 Par ch=2 c=64 v=0
213079 On ch=2 n=c#6 v=75
213082 On ch=2 n=c#7 v=75
213082 On ch=2 n=a#6 v=75
213119 On ch=2 n=c#6 v=0
213122 On ch=2 n=c#7 v=0
213132 On ch=2 n=a#6 v=0
213199 On ch=2 n=a#6 v=77
213209 On ch=2 n=c#7 v=77
213226 On ch=2 n=c#6 v=76
213286 On ch=1 n=c#4 v=58
213309 Par ch=1 c=64 v=127
213309 Par ch=2 c=64 v=127
213346 On ch=2 n=c#6 v=0
213578 On ch=1 n=c#4 v=0
213634 On ch=1 n=a#4 v=53
213641 On ch=1 n=f#5 v=53
213644 On ch=1 n=c#5 v=53
213723 On ch=1 n=f#5 v=0
213734 On ch=1 n=a#4 v=0
213746 On ch=1 n=c#5 v=0
213758 On ch=2 n=a#6 v=0
213879 On ch=2 n=c#7 v=0
213906 On ch=2 n=g#6 v=67
213991 On ch=2 n=g#6 v=0
213999 On ch=2 n=f#6 v=68
214041 On ch=2 n=f#6 v=0
214056 On ch=2 n=f6 v=69
214101 On ch=2 n=f6 v=0
214116 On ch=2 n=f#6 v=70
214126 Par ch=1 c=64 v=0
214126 Par ch=2 c=64 v=0
214143 On ch=2 n=g#6 v=70
214158 On ch=2 n=f#6 v=0
214196 On ch=2 n=a#6 v=71
214236 On ch=2 n=c#7 v=72
214238 On ch=2 n=g#6 v=0
214268 On ch=2 n=a#6 v=0
214318 On ch=2 n=c#7 v=0
214426 On ch=1 n=c#4 v=55
214498 On ch=1 n=c#4 v=0
214516 On ch=2 n=c#6 v=89
214516 On ch=2 n=g#6 v=89
214518 On ch=2 n=c#7 v=90
214548 Par ch=1 c=64 v=127
214548 Par ch=2 c=64 v=127
214706 On ch=2 n=c#6 v=0
214733 On ch=2 n=b5 v=88
214736 On ch=1 n=c#5 v=52
214736 On ch=1 n=f5 v=52
214736 On ch=2 n=g#5 v=88
214813 On ch=2 n=g#5 v=0
214823 On ch=1 n=f5 v=0
214823 On ch=1 n=c#5 v=0
214825 On ch=2 n=b5 v=0
214845 On ch=2 n=c#7 v=0
214926 On ch=2 n=g#6 v=0
215061 Par ch=1 c=64 v=0
215061 Par ch=2 c=64 v=0
215163 On ch=1 n=e5 v=59
215166 On ch=2 n=e6 v=89
215173 On ch=2 n=c#6 v=89
215288 On ch=1 n=e3 v=58
215396 Par ch=1 c=64 v=127
215396 Par ch=2 c=64 v=127
215408 On ch=1 n=e3 v=0
215493 On ch=1 n=e5 v=0
215621 On ch=1 n=a4 v=53
215631 On ch=1 n=e4 v=53
215641 On ch=1 n=c#5 v=53
215760 On ch=2 n=c#6 v=0
215783 On ch=2 n=e6 v=0
215791 On ch=1 n=e4 v=0
215791 On ch=2 n=b5 v=80
215801 On ch=1 n=a4 v=0
215811 On ch=1 n=c#5 v=0
215863 On ch=2 n=b5 v=0
215878 On ch=2 n=a5 v=82
215938 On ch=2 n=g#5 v=83
215940 On ch=2 n=a5 v=0
216008 On ch=2 n=g#5 v=0
216018 On ch=2 n=a5 v=84
216088 On ch=2 n=a5 v=0
216088 On ch=2 n=b5 v=85
216120 Par ch=1 c=64 v=0
216120 Par ch=2 c=64 v=0
216138 On ch=2 n=c#6 v=86
216170 On ch=2 n=b5 v=0
216210 On ch=2 n=c#6 v=0
216210 On ch=2 n=e6 v=87
216292 On ch=2 n=e6 v=0
216370 On ch=1 n=e3 v=59
216440 On ch=1 n=e5 v=58
216440 On ch=2 n=e6 v=89
216440 On ch=2 n=b5 v=89
216533 Par ch=1 c=64 v=127
216533 Par ch=2 c=64 v=127
216590 On ch=1 n=e3 v=0
216630 On ch=1 n=e4 v=55
216640 On ch=1 n=b4 v=55
216660 On ch=1 n=d5 v=54
216755 On ch=1 n=e4 v=0
216775 On ch=1 n=d5 v=0
216785 On ch=1 n=b4 v=0
216860 On ch=2 n=g#5 v=85
216862 On ch=2 n=b5 v=0
216882 On ch=2 n=e6 v=0
216890 On ch=1 n=e5 v=0
216970 On ch=2 n=g#5 v=0
217135 Par ch=1 c=64 v=0
217135 Par ch=2 c=64 v=0
217153 On ch=2 n=e6 v=90
217153 On ch=2 n=c#7 v=90
217163 On ch=2 n=e7 v=90
217193 On ch=2 n=e6 v=0
217195 On ch=2 n=c#7 v=0
217205 On ch=2 n=e7 v=0
217293 On ch=2 n=e7 v=91
217303 On ch=2 n=e6 v=91
217305 On ch=2 n=c#7 v=91
217373 On ch=1 n=e4 v=55
217470 Par ch=1 c=64 v=127
217470 Par ch=2 c=64 v=127
217500 On ch=1 n=e4 v=0
217613 On ch=2 n=e6 v=0
217745 On ch=1 n=e5 v=52
217748 On ch=2 n=c#6 v=84
217768 On ch=2 n=a5 v=83
217840 On ch=2 n=c#7 v=0
217878 On ch=2 n=a5 v=0
217878 On ch=2 n=c#6 v=0
217887 On ch=1 n=e5 v=0
217910 On ch=2 n=b6 v=86
217920 On ch=2 n=e7 v=0
217949 On ch=2 n=b6 v=0
218000 On ch=2 n=a6 v=87
218040 On ch=2 n=a6 v=0
218067 On ch=2 n=g#6 v=88
218132 On ch=2 n=g#6 v=0
218150 On ch=2 n=a6 v=90
218192 On ch=2 n=a6 v=0
218200 On ch=2 n=b6 v=90
218242 On ch=2 n=b6 v=0
218250 On ch=2 n=c#7 v=91
218320 On ch=2 n=c#7 v=0
218330 On ch=2 n=e7 v=92
218340 On ch=2 n=b6 v=93
218372 Par ch=1 c=64 v=0
218372 Par ch=2 c=64 v=0
218402 On ch=2 n=e7 v=0
218412 On ch=2 n=b6 v=0
218700 On ch=1 n=e4 v=55
218762 On ch=2 n=b6 v=106
218765 On ch=2 n=e7 v=107
218772 On ch=2 n=e6 v=108
218825 Par ch=1 c=64 v=127
218825 Par ch=2 c=64 v=127
218842 On ch=1 n=e4 v=0
219147 On ch=1 n=d5 v=52
219147 On ch=2 n=b5 v=110
219157 On ch=2 n=g#5 v=109
219339 On ch=2 n=g#5 v=0
219342 On ch=2 n=b5 v=0
219357 On ch=1 n=d5 v=0
219772 On ch=2 n=g#6 v=100
219854 On ch=2 n=e6 v=0
219857 On ch=2 n=e7 v=0
219872 On ch=2 n=g#6 v=0
219874 On ch=2 n=b6 v=0
219927 Par ch=1 c=67 v=0
219927 Par ch=2 c=67 v=0
221037 Par ch=1 c=64 v=0
221037 Par ch=2 c=64 v=0
221945 Par ch=1 c=67 v=0
221945 Par ch=2 c=67 v=0
221967 On ch=1 n=d#3 v=70
221990 On ch=1 n=d#4 v=71
222084 On ch=1 n=d#3 v=0
222092 On ch=1 n=e3 v=80
222092 On ch=1 n=e4 v=80
222095 On ch=1 n=d#4 v=0
222337 Par ch=1 c=64 v=127
222337 Par ch=2 c=64 v=127
222494 On ch=1 n=e3 v=0
222554 On ch=1 n=e4 v=0
222662 On ch=1 n=g#4 v=85
222662 On ch=1 n=e5 v=85
222824 On ch=1 n=g#4 v=0
223030 On ch=1 n=b4 v=78
223032 On ch=1 n=f5 v=78
223055 On ch=2 n=d6 v=107
223094 On ch=1 n=e5 v=0
223295 On ch=1 n=b4 v=0
223390 On ch=1 n=g#4 v=80
223505 On ch=1 n=g#4 v=0
223679 On ch=1 n=f5 v=0
223689 On ch=1 n=a4 v=83
223709 On ch=1 n=f#5 v=83
223769 On ch=2 n=c#6 v=103
223772 On ch=2 n=d6 v=0
223847 Par ch=1 c=64 v=0
223847 Par ch=2 c=64 v=0
224017 On ch=2 n=b5 v=70
224024 On ch=2 n=g5 v=71
224034 On ch=1 n=a#4 v=78
224057 On ch=2 n=b5 v=0
224116 On ch=1 n=f#5 v=0
224169 On ch=2 n=c#6 v=0
224169 On ch=1 n=a4 v=0
224177 On ch=2 n=b5 v=99
224296 On ch=1 n=a#4 v=0
224457 On ch=1 n=d5 v=71
224507 On ch=2 n=g#5 v=54
224519 On ch=2 n=g5 v=0
224552 Par ch=1 c=64 v=127
224552 Par ch=2 c=64 v=127
224592 On ch=2 n=b5 v=0
224899 On ch=1 n=e5 v=78
224924 On ch=1 n=d5 v=0
225122 Par ch=1 c=67 v=127
225122 On ch=1 n=a3 v=82
225122 Par ch=2 c=67 v=127
225162 On ch=1 n=e4 v=82
225302 On ch=1 n=c#5 v=79
225314 Par ch=1 c=64 v=0
225314 Par ch=2 c=64 v=0
225402 On ch=2 n=c#6 v=73
225432 On ch=2 n=g#5 v=0
225626 On ch=1 n=e5 v=0
225904 On ch=1 n=a4 v=70
225944 On ch=1 n=e5 v=69
225947 On ch=1 n=e4 v=0
225957 Par ch=1 c=64 v=127
225957 Par ch=2 c=64 v=127
226064 On ch=1 n=c#5 v=0
226276 On ch=1 n=e5 v=0
226287 On ch=1 n=e4 v=63
226307 On ch=1 n=c#5 v=63
226359 On ch=1 n=a4 v=0
226429 On ch=1 n=c#5 v=0
226652 On ch=2 n=c#6 v=0
226672 On ch=2 n=b5 v=80
226874 On ch=2 n=b5 v=0
226882 On ch=2 n=a5 v=78
227042 On ch=2 n=a5 v=0
227042 On ch=1 n=a3 v=0
227052 On ch=2 n=g#5 v=75
227079 On ch=1 n=a4 v=59
227107 Par ch=1 c=67 v=0
227107 Par ch=2 c=67 v=0
227149 On ch=2 n=g#5 v=0
227154 On ch=1 n=e4 v=0
227161 On ch=1 n=a4 v=0
227169 On ch=2 n=a5 v=73
227222 Par ch=1 c=64 v=0
227222 Par ch=2 c=64 v=0
227269 On ch=2 n=a5 v=0
227287 On ch=2 n=b5 v=71
227329 On ch=2 n=b5 v=0
227347 On ch=2 n=c#6 v=70
227382 On ch=1 n=e3 v=64
227397 On ch=2 n=c#6 v=0
227444 On ch=2 n=b5 v=85
227486 On ch=2 n=b5 v=0
227534 Par ch=1 c=64 v=127
227534 Par ch=2 c=64 v=127
227542 On ch=1 n=f#4 v=63
227657 On ch=1 n=e3 v=0
227667 On ch=1 n=f#4 v=0
227672 On ch=1 n=f#5 v=61
227692 On ch=1 n=a4 v=61
227692 On ch=2 n=b5 v=94
227854 On ch=1 n=a4 v=0
227937 On ch=1 n=g#4 v=57
227937 On ch=1 n=d5 v=57
227949 On ch=1 n=f#5 v=0
228077 On ch=1 n=g#4 v=0
228139 On ch=1 n=b4 v=58
228139 On ch=1 n=e5 v=58
228139 On ch=2 n=g#5 v=62
228172 On ch=1 n=d5 v=0
228182 On ch=2 n=b5 v=0
228219 Par ch=1 c=64 v=0
228219 Par ch=2 c=64 v=0
228239 On ch=1 n=b4 v=0
228264 On ch=1 n=a3 v=60
228274 On ch=1 n=e4 v=61
228373 On ch=2 n=g#5 v=0
228374 On ch=2 n=b5 v=80
228384 On ch=1 n=c#5 v=62
228396 On ch=1 n=e5 v=0
228496 Par ch=1 c=64 v=127
228496 Par ch=2 c=64 v=127
228556 On ch=1 n=e4 v=0
228556 On ch=1 n=a3 v=0
228566 On ch=1 n=c#5 v=0
228574 On ch=1 n=a4 v=65
228654 On ch=1 n=e5 v=67
228656 On ch=2 n=b5 v=0
228664 On ch=2 n=a5 v=89
228676 On ch=1 n=a4 v=0
228696 On ch=1 n=e5 v=0
228706 On ch=2 n=a5 v=0
228764 On ch=2 n=b5 v=103
228784 On ch=1 n=c#5 v=69
228794 On ch=2 n=a5 v=110
228804 On ch=1 n=e5 v=69
228819 On ch=2 n=b5 v=0
228936 On ch=2 n=a5 v=0
228956 On ch=1 n=e5 v=0
229129 Par ch=1 c=64 v=0
229129 Par ch=2 c=64 v=0
229134 On ch=1 n=d5 v=75
229136 On ch=1 n=f5 v=75
229146 On ch=1 n=c#5 v=0
229154 On ch=2 n=g#5 v=109
229176 On ch=1 n=f5 v=0
229199 On ch=2 n=g#5 v=0
229236 On ch=1 n=e5 v=76
229236 On ch=2 n=a5 v=127
229254 On ch=1 n=c#5 v=77
229269 On ch=1 n=d5 v=0
229386 Par ch=1 c=64 v=127
229386 Par ch=2 c=64 v=127
229426 On ch=1 n=c#5 v=0
229496 On ch=2 n=a5 v=0
229496 On ch=1 n=e5 v=0
229731 On ch=1 n=a#3 v=100
229751 On ch=1 n=a#4 v=105
229813 On ch=1 n=a#3 v=0
229814 Par ch=1 c=64 v=0
229814 Par ch=2 c=64 v=0
229826 On ch=1 n=a#4 v=0
229871 On ch=1 n=b3 v=127
230021 On ch=1 n=b4 v=127
230144 Par ch=1 c=64 v=127
230144 Par ch=2 c=64 v=127
230213 On ch=1 n=b3 v=0
230223 On ch=1 n=b4 v=0
230294 On ch=2 n=b5 v=81
230306 On ch=1 n=d#5 v=82
230494 On ch=1 n=f#5 v=85
230511 On ch=2 n=c6 v=95
230523 On ch=1 n=d#5 v=0
230544 On ch=2 n=b5 v=0
230556 On ch=2 n=a6 v=105
230864 On ch=1 n=d#5 v=86
230876 On ch=1 n=f#5 v=0
230969 On ch=1 n=d#5 v=0
231006 On ch=1 n=e5 v=83
231049 On ch=2 n=c#6 v=95
231059 Par ch=1 c=64 v=0
231059 Par ch=2 c=64 v=0
231071 On ch=2 n=a6 v=0
231071 On ch=2 n=c6 v=0
231096 On ch=2 n=g#6 v=107
231278 On ch=1 n=e5 v=0
231299 Par ch=1 c=64 v=127
231299 Par ch=2 c=64 v=127
231339 On ch=1 n=f5 v=78
231341 On ch=2 n=d6 v=75
231411 On ch=2 n=c#6 v=0
231419 On ch=2 n=f#6 v=94
231469 On ch=2 n=f#6 v=0
231471 On ch=2 n=g#6 v=0
231559 Par ch=1 c=64 v=0
231559 Par ch=2 c=64 v=0
231589 On ch=2 n=f#6 v=106
231626 On ch=2 n=a5 v=103
231646 On ch=1 n=f5 v=0
231678 On ch=2 n=d6 v=0
231699 On ch=2 n=d#6 v=68
231759 On ch=2 n=f#6 v=0
231776 Par ch=1 c=64 v=127
231776 Par ch=2 c=64 v=127
231924 On ch=2 n=b5 v=65
231953 On ch=2 n=a5 v=0
232101 On ch=2 n=g#5 v=66
232141 On ch=1 n=e4 v=77
232149 On ch=1 n=b4 v=77
232211 Par ch=1 c=64 v=0
232211 Par ch=2 c=64 v=0
232271 On ch=2 n=d#6 v=0
232289 On ch=2 n=g#6 v=90
232566 On ch=2 n=b5 v=0
232644 Par ch=1 c=64 v=127
232644 Par ch=2 c=64 v=127
232711 On ch=1 n=e5 v=69
232721 On ch=2 n=b5 v=90
232754 On ch=1 n=b4 v=0
232793 On ch=2 n=g#5 v=0
233054 On ch=1 n=b4 v=73
233076 On ch=1 n=e5 v=0
233084 On ch=2 n=g#5 v=85
233088 On ch=2 n=b5 v=0
233246 On ch=2 n=g#5 v=0
233336 On ch=2 n=f#6 v=87
233439 On ch=2 n=g#6 v=0
233484 On ch=2 n=e6 v=90
233486 On ch=2 n=f#6 v=0
233624 On ch=2 n=e6 v=0
233631 On ch=1 n=e5 v=64
233636 On ch=2 n=d#6 v=92
233716 On ch=2 n=d#6 v=0
233716 On ch=1 n=b4 v=0
233734 On ch=2 n=e6 v=93
233821 On ch=2 n=f#6 v=95
233831 Par ch=1 c=64 v=0
233831 Par ch=2 c=64 v=0
233841 On ch=1 n=e5 v=0
233843 On ch=1 n=e4 v=0
233871 On ch=2 n=e6 v=0
233881 On ch=2 n=f#6 v=0
233889 On ch=2 n=g#6 v=96
233959 On ch=1 n=b3 v=68
233969 On ch=2 n=a#5 v=97
233996 On ch=2 n=f#6 v=98
234011 On ch=2 n=g#6 v=0
234029 On ch=2 n=a#5 v=0
234038 On ch=2 n=f#6 v=0
234069 On ch=1 n=c#5 v=68
234116 On ch=2 n=a#5 v=100
234149 On ch=1 n=b3 v=0
234208 On ch=2 n=a#5 v=0
234239 On ch=1 n=c#5 v=0
234276 On ch=1 n=e5 v=65
234286 On ch=2 n=c#6 v=101
234306 On ch=2 n=f#6 v=100
234471 On ch=1 n=e5 v=0
234471 On ch=1 n=d#5 v=62
234491 Par ch=1 c=64 v=127
234491 Par ch=2 c=64 v=127
234501 On ch=2 n=a5 v=97
234503 On ch=2 n=c#6 v=0
234698 On ch=2 n=a5 v=0
234706 On ch=1 n=f#5 v=66
234706 On ch=2 n=d#6 v=94
234708 On ch=1 n=d#5 v=0
234716 On ch=2 n=b5 v=94
234786 On ch=2 n=f#6 v=0
234816 On ch=1 n=f#5 v=0
234886 Par ch=1 c=64 v=0
234886 Par ch=2 c=64 v=0
234896 On ch=1 n=e4 v=68
234916 On ch=1 n=b4 v=68
234998 On ch=2 n=b5 v=0
235016 On ch=2 n=g#5 v=98
235036 On ch=2 n=f#6 v=98
235068 On ch=2 n=d#6 v=0
235178 On ch=1 n=e4 v=0
235179 Par ch=1 c=64 v=127
235179 Par ch=2 c=64 v=127
235198 On ch=1 n=b4 v=0
235224 On ch=1 n=e5 v=63
235238 On ch=2 n=g#5 v=0
235316 On ch=2 n=b5 v=103
235316 On ch=2 n=e6 v=103
235368 On ch=2 n=f#6 v=0
235396 On ch=2 n=b5 v=0
235408 On ch=2 n=e6 v=0
235416 On ch=1 n=e5 v=0
235456 On ch=2 n=f#6 v=105
235484 On ch=2 n=g#5 v=105
235506 On ch=2 n=e6 v=105
235538 On ch=2 n=f#6 v=0
235636 On ch=2 n=e6 v=0
235824 On ch=2 n=a5 v=100
235881 On ch=2 n=g#5 v=0
235901 On ch=2 n=c6 v=98
236001 On ch=2 n=d#6 v=97
236139 On ch=2 n=g#5 v=95
236211 On ch=2 n=a5 v=0
236229 On ch=2 n=b5 v=93
236253 On ch=2 n=c6 v=0
236291 Par ch=1 c=64 v=0
236291 Par ch=2 c=64 v=0
236293 On ch=2 n=d#6 v=0
236303 On ch=2 n=e6 v=108
236570 On ch=2 n=e6 v=0
236601 Par ch=1 c=64 v=127
236601 On ch=2 n=f#6 v=105
236601 Par ch=2 c=64 v=127
236671 On ch=2 n=e6 v=103
236673 On ch=2 n=f#6 v=0
236746 On ch=2 n=e6 v=0
236768 On ch=2 n=f#6 v=102
236810 On ch=2 n=f#6 v=0
236833 On ch=2 n=e6 v=101
236885 On ch=2 n=e6 v=0
236903 On ch=2 n=f#6 v=100
236945 On ch=2 n=f#6 v=0
236961 On ch=2 n=e6 v=100
237013 On ch=2 n=e6 v=0
237023 On ch=2 n=f#6 v=102
237065 On ch=2 n=f#6 v=0
237093 On ch=2 n=e6 v=103
237143 On ch=2 n=e6 v=0
237163 On ch=2 n=f#6 v=103
237193 On ch=2 n=g#5 v=0
237205 On ch=2 n=f#6 v=0
237206 On ch=2 n=b5 v=0
237233 On ch=2 n=e6 v=105
237275 On ch=2 n=e6 v=0
237306 On ch=2 n=f#6 v=106
237348 On ch=2 n=f#6 v=0
237376 On ch=2 n=e6 v=107
237413 Par ch=1 c=67 v=127
237413 Par ch=2 c=67 v=127
237448 On ch=2 n=e6 v=0
237448 On ch=2 n=f#6 v=108
237488 On ch=2 n=f#6 v=0
237516 On ch=2 n=e6 v=109
237551 On ch=2 n=e6 v=0
237578 On ch=2 n=f#6 v=110
237618 On ch=2 n=f#6 v=0
237646 On ch=2 n=e6 v=112
237688 On ch=2 n=e6 v=0
237716 On ch=2 n=f#6 v=112
237758 On ch=2 n=f#6 v=0
237783 On ch=2 n=e6 v=113
237828 On ch=2 n=e6 v=0
237856 On ch=2 n=f#6 v=115
237896 On ch=2 n=f#6 v=0
237926 On ch=2 n=e6 v=116
237968 On ch=2 n=e6 v=0
237996 On ch=2 n=f#6 v=117
238048 On ch=2 n=f#6 v=0
238086 On ch=2 n=e6 v=118
238126 On ch=2 n=e6 v=0
238133 On ch=2 n=f#6 v=119
238175 On ch=2 n=f#6 v=0
238191 On ch=2 n=e6 v=120
238236 On ch=2 n=e6 v=0
238251 On ch=2 n=f#6 v=121
238293 On ch=2 n=f#6 v=0
238331 On ch=2 n=e6 v=122
238371 On ch=2 n=e6 v=0
238388 On ch=2 n=f#6 v=123
238430 On ch=2 n=f#6 v=0
238448 On ch=2 n=e6 v=124
238490 On ch=2 n=e6 v=0
238528 On ch=2 n=f#6 v=125
238568 On ch=2 n=f#6 v=0
238596 On ch=2 n=e6 v=127
238638 On ch=2 n=e6 v=0
238668 On ch=2 n=f#6 v=127
238710 On ch=2 n=f#6 v=0
238738 On ch=2 n=e6 v=127
238780 On ch=2 n=e6 v=0
238808 On ch=2 n=f#6 v=127
238850 On ch=2 n=f#6 v=0
238908 On ch=2 n=e6 v=125
238953 On ch=2 n=e6 v=0
238961 On ch=2 n=f#6 v=124
239003 On ch=2 n=f#6 v=0
239063 On ch=2 n=e6 v=122
239115 On ch=2 n=e6 v=0
239123 On ch=2 n=f#6 v=122
239175 On ch=2 n=f#6 v=0
239203 On ch=2 n=e6 v=120
239245 On ch=2 n=e6 v=0
239273 On ch=2 n=f#6 v=119
239318 On ch=2 n=f#6 v=0
239333 On ch=2 n=e6 v=118
239375 On ch=2 n=e6 v=0
239416 On ch=2 n=f#6 v=117
239456 On ch=2 n=f#6 v=0
239483 On ch=2 n=e6 v=115
239525 On ch=2 n=e6 v=0
239536 Par ch=1 c=64 v=0
239536 Par ch=2 c=64 v=0
239556 On ch=2 n=f#6 v=115
239598 On ch=2 n=f#6 v=0
239636 On ch=2 n=e6 v=113
239678 On ch=2 n=e6 v=0
239706 On ch=2 n=f#6 v=112
239713 On ch=1 n=e3 v=57
239748 On ch=2 n=f#6 v=0
239773 On ch=2 n=e6 v=111
239825 On ch=2 n=e6 v=0
239841 On ch=2 n=f#6 v=110
239853 Par ch=1 c=64 v=127
239853 Par ch=2 c=64 v=127
239883 On ch=2 n=f#6 v=0
239913 On ch=2 n=e6 v=109
239953 On ch=2 n=e6 v=0
239981 On ch=2 n=f#6 v=108
240023 On ch=2 n=f#6 v=0
240051 On ch=2 n=e6 v=107
240073 On ch=1 n=e3 v=0
240093 On ch=2 n=e6 v=0
240121 On ch=2 n=f#6 v=105
240163 On ch=2 n=f#6 v=0
240181 On ch=2 n=e6 v=105
240231 On ch=2 n=e6 v=0
240248 On ch=2 n=f#6 v=103
240293 On ch=2 n=f#6 v=0
240308 On ch=2 n=e6 v=102
240360 On ch=2 n=e6 v=0
240388 On ch=2 n=f#6 v=102
240440 On ch=2 n=f#6 v=0
240476 On ch=2 n=e6 v=103
240556 On ch=1 n=d5 v=52
240558 On ch=2 n=e6 v=0
240558 On ch=2 n=d7 v=120
240566 On ch=2 n=f#6 v=121
240593 On ch=1 n=e5 v=52
240623 On ch=2 n=g#5 v=122
240630 On ch=2 n=d7 v=0
240638 On ch=2 n=f#6 v=0
240666 On ch=2 n=e6 v=121
240715 On ch=2 n=g#5 v=0
240718 On ch=1 n=e5 v=0
240718 On ch=1 n=d5 v=0
240741 On ch=2 n=e6 v=0
240768 On ch=2 n=f#6 v=83
240808 On ch=2 n=f#6 v=0
240853 On ch=2 n=e6 v=82
240898 On ch=2 n=e6 v=0
240913 On ch=2 n=f#6 v=82
240955 On ch=2 n=f#6 v=0
240981 On ch=2 n=e6 v=82
241023 On ch=2 n=e6 v=0
241058 On ch=2 n=f#6 v=83
241103 On ch=2 n=f#6 v=0
241128 On ch=2 n=e6 v=85
241168 On ch=2 n=e6 v=0
241186 On ch=2 n=f#6 v=86
241228 On ch=2 n=f#6 v=0
241256 On ch=2 n=e6 v=87
241298 On ch=2 n=e6 v=0
241338 On ch=2 n=f#6 v=89
241378 On ch=2 n=f#6 v=0
241396 On ch=2 n=e6 v=103
241416 On ch=1 n=e4 v=58
241438 On ch=2 n=e6 v=0
241458 On ch=2 n=f#6 v=118
241468 On ch=2 n=c#7 v=120
241528 On ch=2 n=f#6 v=0
241538 On ch=2 n=e6 v=118
241578 On ch=2 n=e6 v=0
241580 On ch=2 n=c#7 v=0
241618 On ch=1 n=e4 v=0
241628 On ch=2 n=f#6 v=77
241668 On ch=2 n=f#6 v=0
241678 On ch=2 n=e6 v=74
241718 On ch=2 n=e6 v=0
241776 On ch=2 n=f#6 v=85
241816 On ch=2 n=f#6 v=0
241833 On ch=2 n=e6 v=99
241866 On ch=2 n=b6 v=107
241875 On ch=2 n=e6 v=0
241903 On ch=2 n=f#6 v=114
241955 On ch=2 n=f#6 v=0
241958 On ch=2 n=b6 v=0
241976 On ch=2 n=e6 v=102
242016 On ch=2 n=e6 v=0
242046 On ch=2 n=f#6 v=79
242086 On ch=2 n=f#6 v=0
242123 On ch=2 n=e6 v=80
242155 On ch=2 n=e6 v=0
242183 On ch=2 n=f#6 v=85
242225 On ch=2 n=f#6 v=0
242243 On ch=2 n=e6 v=99
242285 On ch=2 n=e6 v=0
242303 On ch=2 n=b6 v=113
242313 On ch=2 n=d6 v=115
242318 On ch=1 n=e5 v=52
242321 On ch=2 n=g#5 v=117
242321 On ch=2 n=f#6 v=117
242366 On ch=2 n=f#6 v=0
242390 On ch=1 n=e5 v=0
242393 On ch=2 n=d6 v=0
242401 On ch=2 n=g#5 v=0
242413 On ch=2 n=e6 v=83
242415 On ch=2 n=b6 v=0
242453 On ch=2 n=e6 v=0
242501 On ch=2 n=f#6 v=65
242543 On ch=2 n=f#6 v=0
242563 On ch=2 n=e6 v=66
242613 On ch=2 n=e6 v=0
242641 On ch=2 n=f#6 v=67
242683 On ch=2 n=f#6 v=0
242701 On ch=2 n=e6 v=68
242741 On ch=2 n=e6 v=0
242773 On ch=2 n=f#6 v=69
242815 On ch=2 n=f#6 v=0
242853 On ch=2 n=e6 v=70
242895 On ch=2 n=e6 v=0
242946 On ch=2 n=f#6 v=72
242948 Par ch=1 c=64 v=0
242948 Par ch=2 c=64 v=0
242986 On ch=2 n=f#6 v=0
243016 On ch=2 n=e6 v=73
243098 On ch=2 n=e6 v=0
243103 On ch=1 n=a4 v=58
243141 On ch=2 n=c#7 v=95
243193 On ch=2 n=e6 v=102
243203 Par ch=1 c=64 v=127
243203 Par ch=2 c=64 v=127
243232 On ch=1 n=a4 v=0
243278 On ch=2 n=c#7 v=0
243287 On ch=2 n=e6 v=0
243320 On ch=2 n=d#6 v=56
243388 On ch=2 n=e6 v=57
243390 On ch=2 n=d#6 v=0
243448 On ch=2 n=e6 v=0
243475 On ch=2 n=f#6 v=58
243520 On ch=2 n=f#6 v=0
243595 On ch=2 n=a6 v=60
243647 On ch=2 n=a6 v=0
243675 On ch=2 n=b6 v=62
243693 On ch=2 n=a5 v=62
243695 On ch=1 n=e5 v=52
243695 On ch=2 n=e6 v=62
243695 On ch=2 n=c#6 v=62
243730 On ch=2 n=b6 v=0
243748 On ch=2 n=a5 v=0
243748 On ch=2 n=c#7 v=63
243767 On ch=2 n=c#6 v=0
243767 On ch=2 n=e6 v=0
243767 On ch=1 n=e5 v=0
243818 On ch=2 n=c#7 v=0
243838 On ch=2 n=d7 v=64
243883 On ch=2 n=d7 v=0
243888 On ch=2 n=e7 v=65
243930 On ch=2 n=e7 v=0
243938 On ch=2 n=f#7 v=66
243980 On ch=2 n=f#7 v=0
243988 On ch=2 n=g#7 v=67
244030 On ch=2 n=g#7 v=0
244058 On ch=2 n=a7 v=68
244100 On ch=2 n=a7 v=0
244115 On ch=2 n=b7 v=68
244150 On ch=2 n=b7 v=0
244155 On ch=2 n=c#8 v=70
244200 On ch=2 n=c#8 v=0
244215 Par ch=1 c=64 v=0
244215 On ch=2 n=b7 v=70
244215 Par ch=2 c=64 v=0
244257 On ch=2 n=b7 v=0
244285 On ch=2 n=c#8 v=68
244310 On ch=1 n=e4 v=56
244327 On ch=2 n=c#8 v=0
244335 On ch=2 n=b7 v=68
244377 On ch=2 n=b7 v=0
244395 On ch=2 n=a7 v=67
244447 On ch=2 n=a7 v=0
244473 On ch=2 n=g#7 v=65
244483 Par ch=1 c=64 v=127
244483 Par ch=2 c=64 v=127
244525 On ch=2 n=f#7 v=65
244545 On ch=2 n=g#7 v=0
244573 On ch=2 n=e7 v=64
244597 On ch=2 n=f#7 v=0
244612 On ch=1 n=e4 v=0
244645 On ch=2 n=e7 v=0
244673 On ch=2 n=d7 v=62
244713 On ch=2 n=d7 v=0
244740 On ch=2 n=c#7 v=62
244807 On ch=2 n=c#7 v=0
244828 On ch=2 n=b6 v=60
244893 On ch=2 n=b6 v=0
244910 On ch=2 n=a6 v=58
244972 On ch=2 n=a6 v=0
244990 On ch=2 n=g#6 v=60
245052 On ch=2 n=g#6 v=0
245055 Par ch=1 c=64 v=0
245055 Par ch=2 c=64 v=0
245060 On ch=2 n=f#6 v=61
245130 On ch=2 n=e6 v=74
245145 On ch=2 n=f#6 v=0
245160 On ch=1 n=d5 v=52
245170 On ch=2 n=g#5 v=82
245170 On ch=2 n=b5 v=82
245187 On ch=2 n=d6 v=80
245189 On ch=2 n=e6 v=0
245279 On ch=2 n=d6 v=0
245290 On ch=2 n=b5 v=0
245290 Par ch=1 c=64 v=127
245290 Par ch=2 c=64 v=127
245310 On ch=2 n=c#6 v=52
245377 On ch=2 n=g#5 v=0
245379 On ch=1 n=d5 v=0
245402 On ch=2 n=c#6 v=0
245410 On ch=2 n=b5 v=53
245452 On ch=2 n=b5 v=0
245685 On ch=1 n=f#5 v=54
245765 On ch=1 n=f#5 v=0
245770 Par ch=1 c=64 v=0
245770 Par ch=2 c=64 v=0
245845 On ch=2 n=g#5 v=60
245962 On ch=2 n=g#5 v=0
245970 On ch=1 n=a3 v=59
246075 Par ch=1 c=64 v=127
246075 Par ch=2 c=64 v=127
246082 On ch=1 n=c#5 v=57
246212 On ch=2 n=b5 v=66
246272 On ch=1 n=c#5 v=0
246275 On ch=1 n=a3 v=0
246360 On ch=2 n=a5 v=66
246362 On ch=2 n=b5 v=0
246437 On ch=1 n=e5 v=52
246510 On ch=2 n=a5 v=0
246519 On ch=1 n=e5 v=0
246537 On ch=1 n=d5 v=52
246570 Par ch=1 c=64 v=0
246570 Par ch=2 c=64 v=0
246575 On ch=1 n=f5 v=52
246652 On ch=2 n=g#5 v=61
246704 On ch=1 n=d5 v=0
246732 On ch=1 n=c#5 v=52
246734 On ch=2 n=g#5 v=0
246742 On ch=1 n=e5 v=52
246745 On ch=1 n=f5 v=0
246822 On ch=2 n=a5 v=58
246824 On ch=1 n=e5 v=0
246824 On ch=1 n=c#5 v=0
246895 Par ch=1 c=64 v=127
246895 Par ch=2 c=64 v=127
246912 On ch=2 n=a5 v=0
246915 On ch=2 n=b6 v=57
246987 On ch=2 n=b6 v=0
247007 On ch=2 n=a6 v=55
247075 On ch=2 n=e6 v=56
247117 On ch=2 n=a6 v=0
247127 On ch=2 n=e6 v=0
247165 On ch=2 n=d6 v=57
247215 On ch=2 n=f6 v=58
247232 On ch=2 n=g#6 v=58
247255 Par ch=1 c=64 v=0
247255 Par ch=2 c=64 v=0
247265 On ch=2 n=d6 v=0
247314 On ch=2 n=g#6 v=0
247315 On ch=2 n=f6 v=0
247360 On ch=2 n=c#6 v=60
247360 On ch=2 n=e6 v=60
247432 On ch=2 n=e6 v=0
247440 On ch=2 n=a6 v=62
247442 On ch=2 n=c#6 v=0
247487 On ch=2 n=b7 v=62
247510 On ch=2 n=a6 v=0
247559 On ch=2 n=b7 v=0
247567 On ch=2 n=a7 v=63
247632 On ch=2 n=e7 v=65
247637 On ch=2 n=a7 v=0
247677 On ch=2 n=e7 v=0
247725 On ch=2 n=d7 v=66
247745 On ch=2 n=f7 v=67
247805 On ch=2 n=g#7 v=68
247807 On ch=2 n=d7 v=0
247837 On ch=2 n=f7 v=0
247877 On ch=2 n=g#7 v=0
247917 On ch=2 n=c#7 v=69
247927 On ch=2 n=e7 v=70
247927 On ch=2 n=a7 v=70
247957 On ch=2 n=c#8 v=70
247987 On ch=2 n=c#7 v=0
247997 Par ch=1 c=64 v=127
247997 Par ch=2 c=64 v=127
247997 On ch=2 n=e8 v=69
248007 On ch=2 n=e7 v=0
248009 On ch=2 n=a7 v=0
248039 On ch=2 n=c#8 v=0
248079 On ch=2 n=e8 v=0
248400 Par ch=1 c=67 v=0
248400 Par ch=2 c=67 v=0
248780 Par ch=1 c=64 v=0
248780 Par ch=2 c=64 v=0
248897 On ch=2 n=a#6 v=75
249250 Par ch=1 c=67 v=127
249250 Par ch=2 c=67 v=127
249432 On ch=1 n=d#4 v=70
249664 On ch=2 n=a#6 v=0
249665 On ch=2 n=b6 v=88
249867 Par ch=1 c=64 v=127
249867 Par ch=2 c=64 v=127
250000 On ch=2 n=b6 v=0
250057 On ch=2 n=c#7 v=55
250069 On ch=1 n=d#4 v=0
250097 On ch=2 n=c#7 v=0
250115 On ch=2 n=b6 v=56
250157 On ch=2 n=b6 v=0
250195 On ch=2 n=c#7 v=57
250237 On ch=2 n=c#7 v=0
250265 On ch=2 n=b6 v=58
250310 On ch=2 n=b6 v=0
250325 On ch=2 n=c#7 v=59
250367 On ch=2 n=c#7 v=0
250397 On ch=2 n=b6 v=60
250439 On ch=2 n=b6 v=0
250475 On ch=2 n=c#7 v=62
250545 On ch=2 n=b6 v=63
250567 On ch=2 n=c#7 v=0
250645 On ch=2 n=b6 v=0
250682 On ch=2 n=c#7 v=88
250687 On ch=2 n=a7 v=90
250690 On ch=2 n=a5 v=90
250700 On ch=1 n=f#5 v=56
250710 On ch=1 n=b4 v=56
250742 On ch=2 n=c#7 v=0
250762 On ch=2 n=b6 v=94
250794 On ch=2 n=a7 v=0
250820 On ch=1 n=f#5 v=0
250832 On ch=1 n=b4 v=0
250832 On ch=2 n=a5 v=0
250834 On ch=2 n=b6 v=0
250872 On ch=2 n=c#7 v=60
250914 On ch=2 n=c#7 v=0
250942 On ch=2 n=b6 v=61
250984 On ch=2 n=b6 v=0
251022 On ch=2 n=c#7 v=62
251084 On ch=2 n=c#7 v=0
251095 On ch=2 n=b6 v=63
251130 On ch=2 n=b6 v=0
251185 On ch=2 n=c#7 v=65
251227 On ch=2 n=c#7 v=0
251245 On ch=2 n=b6 v=66
251285 On ch=2 n=b6 v=0
251312 On ch=2 n=c#7 v=67
251357 On ch=2 n=c#7 v=0
251395 On ch=2 n=b6 v=68
251437 On ch=2 n=b6 v=0
251445 On ch=2 n=c#7 v=69
251487 On ch=2 n=c#7 v=0
251505 On ch=2 n=b6 v=70
251550 On ch=2 n=b6 v=0
251587 On ch=2 n=c#7 v=71
251629 On ch=2 n=c#7 v=0
251650 On ch=2 n=b6 v=77
251707 On ch=1 n=b3 v=57
251710 On ch=2 n=b6 v=0
251730 On ch=2 n=c#7 v=95
251740 On ch=2 n=g#7 v=98
251772 On ch=2 n=c#7 v=0
251810 On ch=2 n=b6 v=78
251822 On ch=2 n=g#7 v=0
251852 On ch=2 n=b6 v=0
251900 On ch=2 n=c#7 v=57
251940 On ch=2 n=c#7 v=0
251979 On ch=1 n=b3 v=0
251987 On ch=2 n=b6 v=58
252029 On ch=2 n=b6 v=0
252060 On ch=2 n=c#7 v=59
252102 On ch=2 n=c#7 v=0
252130 On ch=2 n=b6 v=60
252172 On ch=2 n=b6 v=0
252200 On ch=2 n=f#7 v=77
252207 On ch=2 n=c#7 v=78
252252 On ch=2 n=c#7 v=0
252262 On ch=2 n=f#7 v=0
252267 On ch=2 n=b6 v=78
252312 On ch=2 n=b6 v=0
252337 On ch=2 n=c#7 v=52
252379 On ch=2 n=c#7 v=0
252425 On ch=2 n=b6 v=52
252467 On ch=2 n=b6 v=0
252495 On ch=2 n=c#7 v=53
252557 On ch=2 n=c#7 v=0
252565 On ch=2 n=b6 v=55
252627 On ch=2 n=b6 v=0
252665 On ch=2 n=f#7 v=75
252672 On ch=2 n=c#7 v=77
252714 On ch=2 n=c#7 v=0
252730 On ch=2 n=a5 v=76
252732 On ch=1 n=b4 v=55
252742 On ch=1 n=d#5 v=55
252757 On ch=2 n=f#7 v=0
252762 On ch=2 n=b6 v=61
252814 On ch=2 n=b6 v=0
252835 On ch=2 n=c#7 v=52
252872 On ch=2 n=c#7 v=0
252879 On ch=1 n=b4 v=0
252889 On ch=1 n=d#5 v=0
252890 On ch=2 n=a5 v=0
252920 On ch=2 n=b6 v=53
252962 On ch=2 n=b6 v=0
253000 On ch=2 n=c#7 v=54
253042 On ch=2 n=c#7 v=0
253067 On ch=2 n=b6 v=55
253119 On ch=2 n=b6 v=0
253137 On ch=2 n=c#7 v=57
253179 On ch=2 n=c#7 v=0
253210 On ch=2 n=b6 v=57
253252 On ch=2 n=b6 v=0
253282 On ch=2 n=c#7 v=58
253322 On ch=2 n=c#7 v=0
253350 On ch=2 n=b6 v=60
253395 On ch=2 n=b6 v=0
253432 On ch=2 n=c#7 v=61
253474 On ch=2 n=c#7 v=0
253500 On ch=2 n=b6 v=62
253562 Par ch=1 c=64 v=0
253562 Par ch=2 c=64 v=0
253565 On ch=2 n=b6 v=0
253582 On ch=2 n=c#7 v=67
253624 On ch=2 n=c#7 v=0
253642 On ch=2 n=g#7 v=82
253677 On ch=1 n=e4 v=57
253680 On ch=2 n=b6 v=90
253762 On ch=2 n=g#7 v=0
253812 On ch=2 n=b6 v=0
253840 On ch=2 n=c#7 v=52
253847 Par ch=1 c=64 v=127
253847 Par ch=2 c=64 v=127
253937 On ch=2 n=c#7 v=0
253939 On ch=1 n=e4 v=0
253955 On ch=2 n=a#6 v=53
254022 On ch=2 n=b6 v=55
254045 On ch=2 n=a#6 v=0
254104 On ch=2 n=b6 v=0
254115 On ch=2 n=c#7 v=57
254182 On ch=2 n=d#7 v=57
254192 On ch=2 n=c#7 v=0
254221 On ch=2 n=d#7 v=0
254249 On ch=2 n=e7 v=58
254291 On ch=2 n=e7 v=0
254307 On ch=2 n=f#7 v=59
254367 On ch=2 n=g#7 v=60
254372 On ch=2 n=f#7 v=0
254432 On ch=2 n=g#7 v=0
254434 On ch=2 n=g#5 v=62
254444 On ch=1 n=e5 v=53
254447 On ch=2 n=b5 v=62
254449 On ch=2 n=a7 v=62
254454 On ch=1 n=b4 v=53
254511 On ch=2 n=a7 v=0
254519 On ch=2 n=b7 v=63
254577 On ch=2 n=c#8 v=63
254581 On ch=2 n=b7 v=0
254591 On ch=2 n=g#5 v=0
254594 On ch=2 n=b5 v=0
254601 On ch=1 n=e5 v=0
254623 On ch=1 n=b4 v=0
254633 On ch=2 n=d#8 v=65
254643 On ch=2 n=c#8 v=0
254690 On ch=2 n=e8 v=65
254702 On ch=2 n=d#8 v=0
254728 On ch=2 n=f#8 v=66
254752 On ch=2 n=e8 v=0
254773 On ch=2 n=f#8 v=0
254848 On ch=2 n=f#8 v=67
254890 On ch=2 n=f#8 v=0
254908 Par ch=1 c=64 v=0
254908 Par ch=2 c=64 v=0
254965 On ch=2 n=f#8 v=65
255010 On ch=2 n=f#8 v=0
255035 On ch=2 n=e8 v=65
255087 On ch=2 n=e8 v=0
255090 On ch=1 n=b3 v=53
255113 On ch=2 n=d#8 v=63
255183 On ch=2 n=c#8 v=62
255203 Par ch=1 c=64 v=127
255203 Par ch=2 c=64 v=127
255225 On ch=2 n=b7 v=62
255235 On ch=2 n=d#8 v=0
255245 On ch=2 n=c#8 v=0
255284 On ch=2 n=b7 v=0
255302 On ch=2 n=a7 v=60
255374 On ch=2 n=a7 v=0
255382 On ch=1 n=b3 v=0
255400 On ch=2 n=g#7 v=58
255445 On ch=2 n=g#7 v=0
255472 On ch=2 n=f#7 v=57
255517 On ch=2 n=f#7 v=0
255532 On ch=2 n=e7 v=57
255604 On ch=2 n=e7 v=0
255625 On ch=2 n=d#7 v=55
255665 On ch=2 n=d#7 v=0
255695 On ch=2 n=c#7 v=54
255735 On ch=2 n=b6 v=53
255767 On ch=2 n=c#7 v=0
255817 On ch=2 n=b6 v=0
255847 On ch=2 n=a6 v=52
255909 On ch=2 n=a6 v=0
255915 On ch=2 n=g#6 v=52
255970 On ch=2 n=g#6 v=0
255997 On ch=2 n=f#6 v=52
256042 On ch=2 n=f#6 v=0
256065 On ch=2 n=e6 v=52
256117 On ch=2 n=e6 v=0
256117 On ch=1 n=a4 v=55
256117 On ch=1 n=d#5 v=55
256127 On ch=1 n=f#5 v=54
256137 On ch=2 n=d#6 v=52
256209 On ch=2 n=d#6 v=0
256217 On ch=2 n=c#6 v=52
256271 On ch=1 n=a4 v=0
256276 On ch=1 n=f#5 v=0
256286 On ch=1 n=d#5 v=0
256287 On ch=2 n=b5 v=52
256297 On ch=2 n=c#6 v=0
256347 On ch=2 n=b5 v=0
256374 On ch=2 n=a5 v=52
256436 On ch=2 n=a5 v=0
256454 On ch=2 n=g#5 v=52
256534 On ch=2 n=g#5 v=0
256552 On ch=1 n=f#5 v=52
256624 On ch=1 n=f#5 v=0
256842 On ch=1 n=c#5 v=54
256924 On ch=1 n=c#5 v=0
257132 On ch=1 n=d#5 v=57
257184 Par ch=1 c=64 v=0
257184 Par ch=2 c=64 v=0
257259 On ch=1 n=e3 v=55
257434 On ch=1 n=d#5 v=0
257434 On ch=1 n=g#4 v=57
257617 On ch=1 n=f#5 v=60
257679 Par ch=1 c=64 v=127
257679 Par ch=2 c=64 v=127
257716 On ch=1 n=e3 v=0
257854 On ch=1 n=e5 v=62
257911 On ch=1 n=f#5 v=0
257913 On ch=1 n=g#4 v=0
258021 On ch=1 n=b4 v=59
258123 On ch=1 n=b4 v=0
258131 On ch=1 n=a4 v=58
258214 On ch=1 n=e5 v=0
258214 On ch=1 n=c5 v=56
258229 Par ch=1 c=64 v=0
258229 Par ch=2 c=64 v=0
258284 On ch=1 n=d#5 v=55
258361 On ch=1 n=g#4 v=54
258361 On ch=1 n=b4 v=54
258396 On ch=1 n=c5 v=0
258403 On ch=1 n=a4 v=0
258404 On ch=1 n=d#5 v=0
258451 On ch=1 n=e5 v=52
258501 On ch=2 n=f#6 v=59
258524 Par ch=1 c=64 v=127
258524 Par ch=2 c=64 v=127
258563 On ch=1 n=b4 v=0
258571 On ch=1 n=e5 v=0
258573 On ch=1 n=g#4 v=0
258616 On ch=2 n=f#6 v=0
258641 On ch=2 n=e6 v=60
258744 On ch=2 n=b5 v=59
258784 On ch=2 n=b5 v=0
258801 On ch=2 n=e6 v=0
258861 On ch=2 n=a5 v=57
258871 On ch=2 n=c6 v=57
258918 Par ch=1 c=64 v=0
258918 Par ch=2 c=64 v=0
258998 On ch=2 n=d#6 v=55
259018 On ch=2 n=b5 v=55
259058 On ch=2 n=c6 v=0
259065 On ch=2 n=a5 v=0
259096 On ch=2 n=g#5 v=56
259098 On ch=2 n=d#6 v=0
259136 On ch=2 n=e6 v=57
259216 On ch=2 n=f#7 v=58
259226 Par ch=1 c=64 v=127
259226 Par ch=2 c=64 v=127
259255 On ch=2 n=b5 v=0
259266 On ch=2 n=g#5 v=0
259286 On ch=2 n=e6 v=0
259298 On ch=2 n=f#7 v=0
259366 On ch=2 n=e7 v=60
259458 On ch=2 n=b6 v=59
259538 On ch=2 n=b6 v=0
259541 On ch=2 n=e7 v=0
259646 On ch=2 n=a6 v=56
259686 On ch=2 n=c7 v=55
259748 Par ch=1 c=64 v=0
259748 Par ch=2 c=64 v=0
259788 On ch=2 n=d#7 v=54
259831 On ch=2 n=a6 v=0
259891 On ch=2 n=c7 v=0
259928 On ch=2 n=b6 v=54
259928 On ch=2 n=g#6 v=54
259958 On ch=2 n=e7 v=55
259963 On ch=2 n=d#7 v=0
259971 On ch=2 n=g#7 v=55
260011 On ch=2 n=b7 v=55
260073 On ch=2 n=g#7 v=0
260073 On ch=2 n=b6 v=0
260083 On ch=2 n=e7 v=0
260093 On ch=2 n=e8 v=57
260098 Par ch=1 c=64 v=127
260098 Par ch=2 c=64 v=127
260103 On ch=2 n=b7 v=0
260113 Par ch=1 c=67 v=0
260113 Par ch=2 c=67 v=0
260175 On ch=2 n=g#6 v=0
260190 On ch=2 n=e8 v=0
261408 Par ch=1 c=64 v=0
261408 Par ch=2 c=64 v=0
262325 On ch=1 n=d3 v=127
262463 Par ch=1 c=64 v=127
262463 Par ch=2 c=64 v=127
262685 On ch=1 n=d4 v=121
262777 On ch=1 n=d3 v=0
262863 On ch=1 n=f4 v=118
262887 On ch=1 n=d4 v=0
262993 On ch=1 n=a#4 v=116
263043 On ch=1 n=d5 v=115
263085 On ch=1 n=f5 v=115
263105 On ch=2 n=a#5 v=102
263145 On ch=2 n=f6 v=112
263275 On ch=1 n=a#4 v=0
263523 On ch=1 n=d5 v=0
263595 On ch=1 n=f5 v=0
263703 On ch=1 n=d5 v=122
263713 On ch=1 n=a#4 v=122
263715 On ch=1 n=f5 v=122
263807 On ch=2 n=f6 v=0
263817 On ch=2 n=a#5 v=0
264368 On ch=2 n=e6 v=127
264790 On ch=2 n=e6 v=0
264808 On ch=2 n=d6 v=120
265140 On ch=2 n=d6 v=0
265155 On ch=2 n=c#6 v=124
265230 On ch=1 n=d5 v=0
265240 On ch=1 n=f4 v=0
265250 On ch=1 n=f5 v=0
265365 On ch=1 n=f5 v=115
265365 On ch=1 n=d5 v=115
265368 On ch=1 n=f4 v=115
265450 On ch=2 n=c#6 v=0
265478 On ch=2 n=d6 v=127
265668 On ch=2 n=d6 v=0
265685 On ch=2 n=c#6 v=127
265787 On ch=2 n=c#6 v=0
265868 On ch=2 n=a#5 v=127
265910 On ch=1 n=a#4 v=0
265920 On ch=1 n=d5 v=0
265927 On ch=1 n=f5 v=0
265928 Par ch=1 c=64 v=0
265928 Par ch=2 c=64 v=0
266068 On ch=1 n=a#4 v=105
266078 On ch=1 n=d5 v=104
266078 On ch=1 n=f5 v=104
266218 Par ch=1 c=67 v=127
266218 Par ch=2 c=67 v=127
266258 Par ch=1 c=64 v=127
266258 Par ch=2 c=64 v=127
266328 On ch=1 n=f5 v=0
266330 On ch=1 n=d5 v=0
266330 On ch=1 n=a#4 v=0
266333 On ch=1 n=f4 v=0
267048 On ch=2 n=a#5 v=0
267530 Par ch=1 c=64 v=0
267530 Par ch=2 c=64 v=0
267650 On ch=1 n=d3 v=100
267853 Par ch=1 c=64 v=127
267853 Par ch=2 c=64 v=127
267985 On ch=1 n=d4 v=95
267987 On ch=1 n=d3 v=0
268155 On ch=1 n=f4 v=92
268187 On ch=1 n=d4 v=0
268263 On ch=1 n=a#4 v=93
268382 On ch=1 n=f4 v=0
268385 On ch=1 n=d5 v=95
268418 On ch=1 n=f5 v=95
268420 On ch=1 n=a#4 v=0
268428 On ch=2 n=a#5 v=90
268510 On ch=2 n=d6 v=91
268578 On ch=1 n=f5 v=0
268580 On ch=2 n=a#5 v=0
268628 On ch=1 n=f4 v=97
268648 On ch=2 n=f6 v=93
268680 On ch=1 n=d5 v=0
268682 On ch=2 n=d6 v=0
268750 On ch=2 n=f7 v=105
268760 On ch=2 n=f6 v=0
269692 On ch=1 n=d5 v=80
269702 On ch=1 n=a#4 v=80
269702 On ch=1 n=f5 v=80
269829 On ch=2 n=f7 v=0
269845 On ch=2 n=e7 v=95
269930 On ch=2 n=e7 v=0
269957 On ch=2 n=d7 v=93
270039 On ch=2 n=d7 v=0
270050 On ch=2 n=c#7 v=92
270130 On ch=1 n=f4 v=0
270132 On ch=2 n=c#7 v=0
270150 On ch=2 n=a#6 v=90
270190 On ch=2 n=a#6 v=0
270212 On ch=2 n=a6 v=88
270252 On ch=2 n=a6 v=0
270292 On ch=2 n=g#6 v=87
270362 On ch=2 n=f6 v=87
270364 On ch=2 n=g#6 v=0
270404 On ch=2 n=f6 v=0
270425 On ch=2 n=e6 v=85
270465 On ch=2 n=e6 v=0
270475 On ch=2 n=d6 v=85
270504 On ch=1 n=d5 v=0
270522 On ch=2 n=d6 v=0
270522 On ch=2 n=c#6 v=84
270592 On ch=2 n=c#6 v=0
270612 On ch=2 n=d6 v=82
270630 On ch=1 n=f4 v=77
270642 On ch=1 n=d5 v=77
270694 On ch=2 n=d6 v=0
270717 Par ch=1 c=64 v=0
270717 Par ch=2 c=64 v=0
270845 On ch=2 n=c#6 v=86
270917 Par ch=1 c=67 v=0
270917 Par ch=2 c=67 v=0
270932 On ch=2 n=c#6 v=0
271039 On ch=1 n=d5 v=0
271039 On ch=1 n=a#4 v=0
271049 On ch=1 n=f5 v=0
271070 On ch=2 n=a#5 v=89
271292 Par ch=1 c=64 v=127
271292 Par ch=2 c=64 v=127
271360 On ch=1 n=a#4 v=81
271370 On ch=1 n=d5 v=82
271370 On ch=1 n=f5 v=82
271472 On ch=1 n=d5 v=0
271480 On ch=1 n=f5 v=0
271482 On ch=1 n=f4 v=0
271492 On ch=1 n=a#4 v=0
271860 Par ch=1 c=64 v=0
271860 Par ch=2 c=64 v=0
271877 On ch=2 n=a5 v=99
271880 On ch=2 n=a#5 v=0
272027 On ch=1 n=e3 v=92
272107 On ch=1 n=c4 v=90
272129 On ch=1 n=e3 v=0
272140 Par ch=1 c=64 v=127
272140 Par ch=2 c=64 v=127
272189 On ch=1 n=c4 v=0
272207 On ch=1 n=a4 v=89
272257 On ch=1 n=c5 v=88
272289 On ch=1 n=a4 v=0
272347 On ch=1 n=e5 v=87
272349 On ch=1 n=c5 v=0
272407 On ch=2 n=c6 v=72
272439 On ch=2 n=a5 v=0
272447 On ch=1 n=e5 v=0
272510 On ch=2 n=e6 v=73
272592 On ch=2 n=c6 v=0
272625 On ch=2 n=e6 v=0
272900 On ch=2 n=a5 v=96
272935 Par ch=1 c=64 v=0
272935 Par ch=2 c=64 v=0
273017 On ch=2 n=g#5 v=124
273057 On ch=2 n=a5 v=0
273075 On ch=1 n=e3 v=114
273172 On ch=1 n=b3 v=125
273197 On ch=1 n=e3 v=0
273244 On ch=1 n=b3 v=0
273260 On ch=1 n=g#4 v=123
273262 Par ch=1 c=64 v=127
273262 Par ch=2 c=64 v=127
273375 On ch=1 n=b4 v=122
273404 On ch=2 n=g#5 v=0
273475 On ch=1 n=d5 v=120
273497 On ch=1 n=b4 v=0
273505 On ch=2 n=g#5 v=95
273510 On ch=1 n=g#4 v=0
273537 On ch=2 n=b5 v=96
273577 On ch=1 n=d5 v=0
273595 On ch=2 n=g#5 v=0
273617 On ch=2 n=e6 v=97
273627 On ch=2 n=b5 v=0
273687 On ch=2 n=e6 v=0
273995 On ch=2 n=g#5 v=103
274047 Par ch=1 c=64 v=0
274047 Par ch=2 c=64 v=0
274132 On ch=1 n=a3 v=127
274165 On ch=1 n=c5 v=127
274175 On ch=2 n=g#5 v=0
274195 On ch=1 n=e5 v=126
274257 On ch=2 n=b5 v=107
274285 On ch=1 n=e5 v=0
274297 On ch=1 n=c5 v=0
274307 Par ch=1 c=64 v=127
274307 Par ch=2 c=64 v=127
274317 On ch=1 n=a3 v=0
274325 On ch=2 n=a5 v=108
274327 On ch=2 n=b5 v=0
274397 On ch=2 n=a5 v=0
274430 On ch=2 n=g#5 v=110
274497 On ch=2 n=g#5 v=0
274505 On ch=2 n=a5 v=112
274567 On ch=2 n=a5 v=0
274567 On ch=2 n=a#5 v=112
274639 On ch=2 n=a#5 v=0
274647 On ch=2 n=b5 v=113
274715 On ch=2 n=c6 v=115
274747 On ch=2 n=b5 v=0
274770 Par ch=1 c=64 v=0
274770 Par ch=2 c=64 v=0
274797 On ch=2 n=c6 v=0
274797 On ch=2 n=c#6 v=119
274867 On ch=1 n=c5 v=115
274879 On ch=2 n=c#6 v=0
274880 On ch=2 n=d6 v=127
274887 On ch=1 n=e5 v=115
274897 On ch=2 n=a5 v=127
274927 On ch=2 n=d6 v=0
274939 On ch=2 n=d#6 v=127
275009 On ch=2 n=d#6 v=0
275027 On ch=2 n=e6 v=109
275069 Par ch=1 c=64 v=127
275069 Par ch=2 c=64 v=127
275099 On ch=2 n=e6 v=0
275107 On ch=2 n=f6 v=77
275157 On ch=2 n=f6 v=0
275167 On ch=2 n=a5 v=0
275177 On ch=2 n=f#6 v=78
275227 On ch=2 n=f#6 v=0
275254 On ch=2 n=g6 v=79
275306 On ch=2 n=g6 v=0
275327 On ch=2 n=g#6 v=83
275337 On ch=2 n=g#5 v=86
275392 On ch=2 n=g#6 v=0
275399 On ch=2 n=g#5 v=0
275417 Par ch=1 c=64 v=0
275417 Par ch=2 c=64 v=0
275424 On ch=2 n=a6 v=107
275466 On ch=2 n=a6 v=0
275469 On ch=2 n=a#6 v=118
275507 On ch=2 n=a5 v=127
275514 On ch=1 n=a4 v=118
275541 On ch=2 n=a#6 v=0
275549 On ch=2 n=b6 v=127
275601 On ch=2 n=b6 v=0
275637 On ch=2 n=c7 v=95
275679 Par ch=1 c=64 v=127
275679 Par ch=2 c=64 v=127
275709 On ch=2 n=c7 v=0
275717 On ch=2 n=c#7 v=73
275764 On ch=2 n=d7 v=73
275779 On ch=2 n=c#7 v=0
275809 On ch=2 n=d7 v=0
275827 On ch=2 n=d#7 v=74
275899 On ch=2 n=d#7 v=0
275914 On ch=2 n=e7 v=76
275959 On ch=2 n=e7 v=0
275974 On ch=2 n=f7 v=77
276029 On ch=2 n=f7 v=0
276052 On ch=2 n=f#7 v=78
276084 On ch=2 n=f#7 v=0
276109 On ch=2 n=g7 v=78
276152 On ch=2 n=g#7 v=80
276174 On ch=2 n=g7 v=0
276224 On ch=2 n=g#7 v=0
276254 On ch=2 n=a7 v=81
276314 On ch=2 n=a7 v=0
276319 On ch=2 n=a5 v=0
276369 On ch=1 n=e5 v=0
276391 On ch=1 n=c5 v=0
276409 On ch=1 n=a4 v=0
276682 Par ch=1 c=64 v=0
276682 Par ch=2 c=64 v=0
276764 On ch=1 n=d3 v=127
276987 Par ch=1 c=64 v=127
276987 Par ch=2 c=64 v=127
277022 On ch=1 n=d4 v=90
277152 On ch=1 n=f4 v=90
277184 On ch=1 n=d3 v=0
277254 On ch=1 n=d4 v=0
277269 On ch=1 n=a#4 v=89
277342 On ch=1 n=d5 v=90
277352 On ch=1 n=f5 v=90
277392 On ch=2 n=a#5 v=112
277394 On ch=2 n=f6 v=112
277469 On ch=1 n=a#4 v=0
277679 On ch=1 n=d5 v=0
277707 On ch=1 n=f5 v=0
277827 On ch=1 n=a#4 v=90
277847 On ch=1 n=d5 v=89
277847 On ch=1 n=f5 v=89
277909 On ch=2 n=f6 v=0
277932 On ch=2 n=a#5 v=0
278322 On ch=2 n=e6 v=127
278564 On ch=2 n=e6 v=0
278572 On ch=2 n=d6 v=90
278724 On ch=2 n=d6 v=0
278744 On ch=2 n=c#6 v=89
278784 On ch=1 n=f4 v=0
278802 On ch=1 n=f5 v=0
278804 On ch=1 n=d5 v=0
278834 On ch=2 n=c#6 v=0
278874 On ch=2 n=e6 v=90
278914 On ch=1 n=f4 v=90
278924 On ch=1 n=f5 v=90
278932 On ch=1 n=d5 v=89
278946 On ch=2 n=e6 v=0
278947 On ch=2 n=d6 v=104
279107 On ch=2 n=d6 v=0
279117 On ch=2 n=c#6 v=110
279247 On ch=2 n=c#6 v=0
279267 On ch=2 n=a#5 v=114
279281 On ch=1 n=f5 v=0
279297 On ch=1 n=d5 v=0
279324 On ch=1 n=a#4 v=0
279422 On ch=1 n=f5 v=90
279439 On ch=1 n=d5 v=90
279442 On ch=1 n=a#4 v=90
279499 On ch=1 n=f5 v=0
279501 On ch=1 n=d5 v=0
279521 On ch=1 n=f4 v=0
279522 On ch=1 n=a#4 v=0
279817 On ch=1 n=d3 v=126
280052 On ch=1 n=d4 v=89
280104 On ch=1 n=d3 v=0
280214 On ch=1 n=f4 v=90
280237 On ch=1 n=d4 v=0
280354 On ch=1 n=a#4 v=90
280417 On ch=2 n=a#5 v=0
280434 On ch=1 n=d5 v=89
280527 On ch=1 n=f5 v=89
280536 On ch=1 n=a#4 v=0
280546 On ch=1 n=d5 v=0
280577 On ch=2 n=a#5 v=89
280614 On ch=1 n=f5 v=0
280707 On ch=2 n=d6 v=90
280764 On ch=1 n=a#4 v=89
280764 On ch=2 n=f6 v=97
280774 On ch=1 n=d5 v=90
280774 On ch=1 n=f5 v=90
280806 On ch=2 n=d6 v=0
280806 On ch=2 n=a#5 v=0
280836 On ch=2 n=a#6 v=112
280856 On ch=2 n=f6 v=0
280906 On ch=2 n=a#6 v=0
280936 On ch=2 n=d7 v=127
280998 On ch=2 n=d7 v=0
281009 On ch=2 n=f8 v=127
281129 On ch=1 n=d5 v=0
281136 On ch=1 n=f5 v=0
281148 On ch=1 n=f4 v=0
281236 On ch=1 n=f5 v=89
281246 On ch=1 n=f4 v=89
281246 On ch=1 n=d5 v=89
281251 On ch=2 n=f8 v=0
281259 On ch=2 n=e8 v=90
281361 On ch=2 n=e8 v=0
281389 On ch=2 n=d8 v=89
281471 On ch=2 n=d8 v=0
281499 On ch=2 n=c#8 v=90
281601 On ch=2 n=a#7 v=90
281611 On ch=2 n=c#8 v=0
281636 On ch=1 n=f5 v=0
281638 On ch=1 n=d5 v=0
281658 On ch=1 n=a#4 v=0
281693 On ch=2 n=a#7 v=0
281711 On ch=2 n=a7 v=89
281776 On ch=1 n=a#4 v=90
281776 On ch=1 n=f5 v=90
281781 On ch=2 n=a7 v=0
281786 On ch=1 n=d5 v=90
281801 On ch=2 n=g#7 v=90
281886 On ch=2 n=g#7 v=0
281886 On ch=2 n=f7 v=90
281971 On ch=2 n=f7 v=0
281989 On ch=2 n=e7 v=90
282061 On ch=2 n=e7 v=0
282069 On ch=2 n=d7 v=90
282149 On ch=2 n=d7 v=0
282196 On ch=2 n=c#7 v=89
282256 On ch=2 n=a#6 v=90
282288 On ch=2 n=c#7 v=0
282326 On ch=2 n=a6 v=90
282348 On ch=2 n=a#6 v=0
282418 On ch=2 n=a6 v=0
282446 On ch=2 n=g#6 v=90
282529 On ch=2 n=f6 v=89
282531 On ch=2 n=g#6 v=0
282601 On ch=2 n=f6 v=0
282619 On ch=2 n=e6 v=89
282684 On ch=2 n=e6 v=0
282704 On ch=2 n=d6 v=90
282774 On ch=2 n=d6 v=0
282774 On ch=2 n=c#6 v=90
282796 On ch=1 n=f4 v=0
282831 On ch=2 n=e6 v=99
282836 Par ch=1 c=64 v=0
282836 Par ch=2 c=64 v=0
282846 On ch=2 n=c#6 v=0
282874 On ch=2 n=d6 v=108
282916 On ch=2 n=e6 v=0
283024 On ch=2 n=d6 v=0
283106 Par ch=1 c=64 v=127
283106 Par ch=2 c=64 v=127
283186 On ch=2 n=c#6 v=109
283348 On ch=2 n=c#6 v=0
283426 On ch=2 n=a#5 v=105
283436 Par ch=1 c=64 v=0
283436 Par ch=2 c=64 v=0
283586 On ch=2 n=a#5 v=0
283641 On ch=2 n=a5 v=102
283801 Par ch=1 c=64 v=127
283801 Par ch=2 c=64 v=127
283891 On ch=2 n=a5 v=0
283908 On ch=1 n=f5 v=0
283931 On ch=1 n=d5 v=0
283933 On ch=1 n=a#4 v=0
284041 On ch=2 n=g#5 v=95
284291 Par ch=1 c=64 v=0
284291 Par ch=2 c=64 v=0
284406 On ch=1 n=f5 v=116
284473 On ch=2 n=g#5 v=0
284624 Par ch=1 c=64 v=127
284624 Par ch=2 c=64 v=127
284776 On ch=1 n=f5 v=0
284794 On ch=1 n=e5 v=122
285276 On ch=1 n=d5 v=127
285306 On ch=1 n=e5 v=0
285349 Par ch=1 c=64 v=0
285349 Par ch=2 c=64 v=0
286366 On ch=1 n=c#5 v=110
286388 On ch=1 n=d5 v=0
286721 Par ch=1 c=64 v=127
286721 Par ch=2 c=64 v=127
286851 On ch=1 n=a#4 v=102
287096 On ch=2 n=a#5 v=110
287341 On ch=1 n=a#3 v=95
287466 On ch=1 n=a#4 v=0
287526 On ch=1 n=c#5 v=0
287544 On ch=1 n=c#4 v=92
287706 On ch=1 n=c#4 v=0
287761 On ch=1 n=f#4 v=90
287971 On ch=1 n=c#4 v=90
288051 On ch=1 n=a#3 v=0
288111 On ch=2 n=g#5 v=89
288153 On ch=1 n=f#4 v=0
288204 On ch=1 n=f#5 v=89
288223 On ch=2 n=a#5 v=0
288233 On ch=2 n=g#5 v=0
288243 Par ch=1 c=64 v=0
288243 Par ch=2 c=64 v=0
288261 On ch=1 n=f#5 v=0
288283 On ch=1 n=f5 v=89
288291 On ch=1 n=a#3 v=89
288315 On ch=1 n=c#4 v=0
288365 On ch=1 n=f5 v=0
288368 On ch=2 n=g#5 v=90
288371 On ch=1 n=f#5 v=90
288388 On ch=1 n=a#3 v=0
288408 On ch=1 n=f#5 v=0
288408 On ch=2 n=g#5 v=0
288426 On ch=1 n=c#3 v=89
288446 On ch=2 n=a#5 v=98
288518 On ch=2 n=g#5 v=113
288528 On ch=2 n=a#5 v=0
288540 Par ch=1 c=64 v=127
288540 Par ch=2 c=64 v=127
288577 On ch=2 n=g#5 v=0
288628 On ch=1 n=c#3 v=0
288628 On ch=1 n=b3 v=89
288758 On ch=1 n=b4 v=89
288760 On ch=2 n=g#5 v=127
288768 On ch=1 n=c#4 v=89
288770 On ch=1 n=c#5 v=89
288890 On ch=1 n=f4 v=90
289053 On ch=1 n=g#4 v=89
289065 On ch=1 n=f4 v=0
289075 On ch=1 n=b3 v=0
289078 On ch=1 n=c#4 v=0
289115 On ch=1 n=b4 v=0
289122 On ch=1 n=c#5 v=0
289132 On ch=2 n=g#5 v=0
289135 On ch=1 n=g#4 v=0
289185 On ch=1 n=f5 v=89
289275 On ch=1 n=f5 v=0
289418 On ch=2 n=a#5 v=90
289530 On ch=2 n=c#6 v=113
289533 Par ch=1 c=64 v=0
289533 Par ch=2 c=64 v=0
289560 On ch=2 n=a#6 v=120
289775 On ch=1 n=a#4 v=90
289848 Par ch=1 c=64 v=127
289848 Par ch=2 c=64 v=127
289908 On ch=2 n=a#5 v=0
289965 On ch=2 n=c#6 v=0
289973 On ch=1 n=c#5 v=90
290135 On ch=1 n=f#5 v=89
290193 On ch=1 n=c#5 v=0
290290 On ch=2 n=g#6 v=89
290302 On ch=2 n=a#6 v=0
290410 On ch=2 n=f#6 v=90
290442 On ch=2 n=g#6 v=0
290480 On ch=2 n=f6 v=89
290482 On ch=2 n=f#6 v=0
290500 On ch=1 n=c#5 v=90
290540 On ch=1 n=a#4 v=0
290543 Par ch=1 c=64 v=0
290543 Par ch=2 c=64 v=0
290560 On ch=2 n=f6 v=0
290583 On ch=2 n=f#6 v=90
290600 On ch=1 n=f#5 v=0
290615 On ch=2 n=f#6 v=0
290633 On ch=2 n=g#6 v=90
290642 On ch=1 n=c#5 v=0
290653 On ch=1 n=a#4 v=90
290675 On ch=2 n=g#6 v=0
290703 On ch=2 n=a#6 v=101
290715 On ch=1 n=a#4 v=0
290743 On ch=1 n=c#4 v=90
290763 On ch=2 n=g#6 v=113
290768 On ch=2 n=a#6 v=0
290818 Par ch=1 c=64 v=127
290818 Par ch=2 c=64 v=127
290828 On ch=2 n=g#6 v=0
290923 On ch=1 n=b4 v=90
290948 On ch=1 n=c#4 v=0
290993 On ch=2 n=b5 v=125
290995 On ch=2 n=c#6 v=125
291013 On ch=2 n=g#6 v=124
291045 On ch=1 n=c#5 v=89
291135 On ch=1 n=f5 v=89
291283 On ch=2 n=g#5 v=120
291330 On ch=2 n=g#6 v=0
291347 On ch=1 n=f5 v=0
291347 On ch=2 n=c#6 v=0
291348 On ch=2 n=b5 v=0
291355 On ch=2 n=g#5 v=0
291367 On ch=1 n=c#5 v=0
291368 On ch=1 n=b4 v=0
291408 On ch=2 n=f6 v=118
291500 On ch=2 n=f6 v=0
291695 On ch=1 n=c#5 v=90
291705 Par ch=1 c=64 v=0
291705 Par ch=2 c=64 v=0
291720 On ch=1 n=e5 v=90
291755 On ch=2 n=c#6 v=127
291920 On ch=1 n=c#4 v=90
292045 Par ch=1 c=64 v=127
292045 Par ch=2 c=64 v=127
292160 On ch=1 n=e4 v=90
292262 On ch=1 n=c#5 v=0
292347 On ch=1 n=a4 v=90
292350 On ch=1 n=e5 v=0
292352 On ch=1 n=e4 v=0
292352 On ch=2 n=c#6 v=0
292475 On ch=2 n=b5 v=115
292592 On ch=2 n=b5 v=0
292617 On ch=1 n=e4 v=90
292617 On ch=2 n=a5 v=113
292680 On ch=1 n=c#4 v=0
292699 On ch=2 n=a5 v=0
292715 On ch=2 n=g#5 v=112
292807 On ch=2 n=g#5 v=0
292810 Par ch=1 c=64 v=0
292810 Par ch=2 c=64 v=0
292815 On ch=1 n=c#4 v=90
292825 On ch=2 n=a5 v=110
292877 On ch=1 n=e4 v=0
292877 On ch=2 n=b5 v=109
292907 On ch=2 n=a5 v=0
292909 On ch=1 n=a4 v=0
292919 On ch=2 n=b5 v=0
292920 On ch=1 n=c#4 v=0
292937 On ch=2 n=c#6 v=108
292987 On ch=1 n=e3 v=89
293017 On ch=2 n=b5 v=123
293019 On ch=2 n=c#6 v=0
293059 On ch=2 n=b5 v=0
293102 Par ch=1 c=64 v=127
293102 Par ch=2 c=64 v=127
293197 On ch=1 n=d4 v=90
293199 On ch=1 n=e3 v=0
293260 On ch=1 n=d5 v=90
293260 On ch=2 n=b5 v=126
293277 On ch=1 n=e5 v=89
293307 On ch=1 n=e4 v=90
293447 On ch=1 n=g#4 v=90
293580 On ch=1 n=b4 v=90
293589 On ch=1 n=g#4 v=0
293612 On ch=1 n=e5 v=0
293612 On ch=1 n=d5 v=0
293632 On ch=2 n=b5 v=0
293662 On ch=1 n=d4 v=0
293680 On ch=1 n=b4 v=0
293687 On ch=2 n=g#5 v=90
293719 On ch=1 n=e4 v=0
293767 On ch=2 n=g#5 v=0
293847 On ch=2 n=c#6 v=95
293857 Par ch=1 c=64 v=0
293857 Par ch=2 c=64 v=0
293924 On ch=2 n=e6 v=112
293974 On ch=2 n=c#7 v=122
294084 On ch=1 n=c#5 v=89
294179 Par ch=1 c=64 v=127
294179 Par ch=2 c=64 v=127
294252 On ch=1 n=e5 v=90
294334 On ch=2 n=c#6 v=0
294366 On ch=2 n=c#7 v=0
294391 On ch=2 n=e6 v=0
294402 On ch=2 n=a5 v=90
294432 On ch=1 n=e5 v=0
294534 On ch=2 n=b6 v=89
294584 On ch=1 n=c#5 v=0
294636 On ch=2 n=b6 v=0
294657 On ch=2 n=a6 v=90
294707 On ch=1 n=e5 v=90
294732 On ch=2 n=a6 v=0
294754 On ch=2 n=g#6 v=90
294851 On ch=2 n=g#6 v=0
294869 On ch=2 n=a6 v=89
294879 Par ch=1 c=64 v=0
294879 Par ch=2 c=64 v=0
294906 On ch=1 n=c#5 v=90
294909 On ch=2 n=a5 v=0
294926 On ch=1 n=e5 v=0
294938 On ch=2 n=a6 v=0
294946 On ch=2 n=b6 v=90
294991 On ch=2 n=b6 v=0
294996 On ch=1 n=c#5 v=0
295006 On ch=2 n=c#7 v=89
295054 On ch=1 n=e4 v=90
295078 On ch=2 n=c#7 v=0
295086 On ch=2 n=b6 v=103
295131 On ch=2 n=b6 v=0
295169 Par ch=1 c=64 v=127
295169 Par ch=2 c=64 v=127
295226 On ch=1 n=d5 v=90
295251 On ch=1 n=e4 v=0
295281 On ch=2 n=e6 v=126
295291 On ch=2 n=b6 v=125
295361 On ch=1 n=e5 v=89
295471 On ch=2 n=g#5 v=90
295524 On ch=2 n=b5 v=90
295566 On ch=2 n=e6 v=0
295581 On ch=2 n=g#5 v=0
295593 On ch=1 n=e5 v=0
295593 On ch=1 n=d5 v=0
295596 On ch=2 n=b6 v=0
295644 On ch=2 n=b5 v=0
295681 On ch=2 n=g#6 v=89
295726 Par ch=1 c=64 v=0
295726 Par ch=2 c=64 v=0
295841 On ch=1 n=d#3 v=127
295851 On ch=1 n=d#4 v=126
295863 On ch=2 n=g#6 v=0
295939 On ch=2 n=b5 v=109
295941 On ch=2 n=b6 v=110
295951 On ch=2 n=f#6 v=112
296013 On ch=1 n=d#4 v=0
296013 On ch=1 n=d#3 v=0
296014 Par ch=1 c=64 v=127
296014 Par ch=2 c=64 v=127
296159 On ch=1 n=a4 v=90
296203 On ch=2 n=b6 v=0
296213 On ch=2 n=f#6 v=0
296224 On ch=2 n=b5 v=0
296299 On ch=2 n=a6 v=95
296306 On ch=1 n=b4 v=90
296409 On ch=1 n=a4 v=0
296416 On ch=1 n=f#5 v=89
296416 On ch=2 n=b5 v=119
296419 On ch=2 n=b6 v=120
296426 On ch=2 n=a5 v=121
296426 On ch=2 n=f#6 v=121
296448 On ch=1 n=b4 v=0
296526 On ch=2 n=a5 v=0
296526 On ch=1 n=f#5 v=0
296554 On ch=1 n=b4 v=89
296569 On ch=2 n=a6 v=0
296594 On ch=1 n=a4 v=90
296599 On ch=2 n=b6 v=0
296616 Par ch=1 c=64 v=0
296616 Par ch=2 c=64 v=0
296626 On ch=1 n=b4 v=0
296636 On ch=2 n=f#6 v=0
296653 On ch=2 n=b5 v=0
296674 On ch=2 n=g#6 v=89
296694 On ch=1 n=a4 v=0
296764 On ch=2 n=g#6 v=0
296804 On ch=1 n=d4 v=90
296886 On ch=2 n=c6 v=116
296889 Par ch=1 c=64 v=127
296889 On ch=2 n=b6 v=117
296889 Par ch=2 c=64 v=127
296906 On ch=2 n=f#6 v=120
296979 On ch=1 n=d4 v=0
297009 On ch=1 n=a4 v=90
297058 On ch=2 n=c6 v=0
297061 On ch=2 n=b6 v=0
297081 On ch=2 n=f#6 v=0
297139 On ch=1 n=c5 v=90
297171 On ch=2 n=a6 v=91
297213 On ch=2 n=a6 v=0
297221 On ch=2 n=b6 v=101
297239 On ch=1 n=f#5 v=90
297254 On ch=1 n=c5 v=0
297259 On ch=2 n=a5 v=109
297261 On ch=1 n=a4 v=0
297281 On ch=2 n=c6 v=113
297301 On ch=2 n=f#6 v=118
297334 On ch=2 n=a6 v=124
297364 On ch=2 n=a5 v=0
297374 On ch=1 n=f#5 v=0
297381 On ch=1 n=c5 v=90
297406 On ch=2 n=a6 v=0
297406 On ch=2 n=b6 v=0
297471 On ch=1 n=a4 v=107
297493 On ch=1 n=c5 v=0
297493 On ch=2 n=c6 v=0
297496 Par ch=1 c=64 v=0
297496 Par ch=2 c=64 v=0
297503 On ch=2 n=f#6 v=0
297551 On ch=2 n=g#6 v=90
297586 On ch=1 n=a4 v=0
297651 On ch=1 n=c#3 v=126
297654 On ch=1 n=c#4 v=126
297686 On ch=2 n=g#6 v=0
297726 On ch=2 n=b6 v=108
297734 On ch=2 n=c#6 v=110
297736 On ch=2 n=f#6 v=110
297796 Par ch=1 c=64 v=127
297796 Par ch=2 c=64 v=127
297836 On ch=1 n=c#3 v=0
297859 On ch=1 n=c#4 v=0
297896 On ch=2 n=c#6 v=0
297934 On ch=1 n=a4 v=90
297936 On ch=2 n=f#6 v=0
297948 On ch=2 n=b6 v=0
298041 On ch=2 n=a6 v=90
298071 On ch=1 n=c#5 v=89
298083 On ch=2 n=a6 v=0
298121 On ch=2 n=b6 v=100
298131 On ch=1 n=f#5 v=90
298133 On ch=1 n=c#5 v=0
298139 On ch=2 n=a5 v=104
298151 On ch=2 n=c#6 v=107
298161 On ch=2 n=f#6 v=109
298164 On ch=1 n=a4 v=0
298181 On ch=2 n=a6 v=113
298248 On ch=1 n=f#5 v=0
298259 On ch=2 n=a5 v=0
298269 On ch=1 n=c#5 v=90
298341 On ch=1 n=c#5 v=0
298349 On ch=1 n=a4 v=89
298351 On ch=2 n=a6 v=0
298351 On ch=2 n=f#6 v=0
298351 On ch=2 n=c#6 v=0
298353 On ch=2 n=b6 v=0
298469 On ch=2 n=g#6 v=90
298481 Par ch=1 c=64 v=0
298481 Par ch=2 c=64 v=0
298491 On ch=1 n=a4 v=0
298614 On ch=1 n=b2 v=127
298616 On ch=1 n=b3 v=127
298679 On ch=2 n=g#6 v=0
298764 On ch=2 n=d#6 v=111
298781 On ch=2 n=a5 v=115
298784 On ch=2 n=b6 v=115
298794 Par ch=1 c=64 v=127
298794 Par ch=2 c=64 v=127
298816 On ch=1 n=b3 v=0
298826 On ch=1 n=f#4 v=89
298908 On ch=1 n=b2 v=0
298946 On ch=1 n=a4 v=90
298951 On ch=1 n=f#4 v=0
299011 On ch=2 n=b6 v=0
299048 On ch=2 n=d#6 v=0
299055 On ch=2 n=a5 v=0
299103 On ch=2 n=a6 v=123
299181 On ch=1 n=d#5 v=90
299183 On ch=1 n=a4 v=0
299201 On ch=1 n=f#5 v=89
299218 On ch=2 n=a5 v=127
299221 On ch=2 n=b6 v=127
299231 On ch=2 n=d#6 v=127
299316 On ch=2 n=b6 v=0
299363 On ch=1 n=f#5 v=0
299365 On ch=2 n=a6 v=0
299371 On ch=1 n=d#5 v=0
299373 On ch=2 n=a5 v=0
299416 On ch=2 n=d#6 v=0
299423 On ch=1 n=a4 v=90
299503 On ch=1 n=a4 v=0
299523 On ch=1 n=f#4 v=90
299593 On ch=2 n=g#6 v=124
299613 On ch=2 n=g#5 v=125
299625 On ch=1 n=f#4 v=0
299736 Par ch=1 c=64 v=0
299736 Par ch=2 c=64 v=0
299833 On ch=1 n=a#3 v=127
299843 On ch=1 n=a#2 v=127
299925 On ch=2 n=g#5 v=0
299975 On ch=2 n=g#6 v=0
300016 On ch=2 n=a6 v=127
300043 On ch=2 n=a5 v=127
300058 On ch=1 n=a#2 v=0
300078 On ch=1 n=a#3 v=0
300086 Par ch=1 c=64 v=127
300086 Par ch=2 c=64 v=127
300343 On ch=1 n=g4 v=89
300386 On ch=2 n=a6 v=0
300403 On ch=2 n=a5 v=0
300503 On ch=2 n=a#6 v=127
300513 On ch=2 n=a#5 v=127
300523 On ch=1 n=a#4 v=89
300661 On ch=2 n=g5 v=127
300673 On ch=1 n=d#5 v=89
300723 On ch=1 n=a#4 v=0
300725 On ch=1 n=g4 v=0
300745 On ch=2 n=a#5 v=0
300841 On ch=1 n=a#4 v=90
300873 On ch=2 n=a#6 v=0
300963 On ch=1 n=g4 v=90
301023 On ch=2 n=g#6 v=126
301026 On ch=2 n=g#7 v=126
301095 On ch=1 n=d#5 v=0
301203 On ch=1 n=a#4 v=0
301235 On ch=2 n=g#6 v=0
301245 On ch=2 n=g#7 v=0
301275 On ch=2 n=g5 v=0
301285 On ch=2 n=g7 v=122
301312 On ch=2 n=g6 v=122
301334 On ch=1 n=g4 v=0
301442 On ch=1 n=g#4 v=90
301495 Par ch=1 c=64 v=0
301495 Par ch=2 c=64 v=0
301534 On ch=2 n=g6 v=0
301537 On ch=2 n=g7 v=0
301625 On ch=1 n=a#4 v=90
301645 On ch=2 n=f7 v=116
301647 On ch=2 n=f6 v=116
301697 On ch=2 n=f6 v=0
301700 On ch=2 n=f7 v=0
301745 Par ch=1 c=64 v=127
301745 Par ch=2 c=64 v=127
301755 On ch=1 n=f5 v=89
301775 On ch=2 n=f7 v=114
301777 On ch=1 n=d5 v=90
301779 On ch=1 n=g#4 v=0
301787 On ch=2 n=f6 v=113
301827 On ch=1 n=a#4 v=0
301830 On ch=2 n=f7 v=0
301839 On ch=2 n=f6 v=0
301957 On ch=1 n=a#4 v=90
301989 On ch=1 n=d5 v=0
302027 On ch=1 n=g#4 v=90
302155 On ch=1 n=a3 v=100
302167 Par ch=1 c=64 v=0
302167 Par ch=2 c=64 v=0
302215 On ch=1 n=a#3 v=112
302245 On ch=1 n=f5 v=0
302270 On ch=1 n=a3 v=0
302329 On ch=1 n=a#4 v=0
302407 On ch=1 n=g4 v=90
302477 Par ch=1 c=64 v=127
302477 Par ch=2 c=64 v=127
302559 On ch=1 n=g#4 v=0
302615 On ch=1 n=a#4 v=98
302650 On ch=1 n=a#3 v=0
302727 On ch=1 n=g4 v=0
302765 On ch=2 n=g5 v=98
302895 Par ch=1 c=64 v=0
302895 Par ch=2 c=64 v=0
302902 On ch=1 n=g#4 v=125
302975 On ch=1 n=a#4 v=0
303065 On ch=1 n=a#4 v=127
303085 On ch=2 n=g5 v=0
303195 On ch=2 n=g5 v=92
303297 On ch=1 n=g4 v=123
303389 On ch=1 n=g#4 v=0
303430 Par ch=1 c=64 v=127
303430 Par ch=2 c=64 v=127
303460 On ch=2 n=g5 v=0
303477 On ch=1 n=g#4 v=89
303532 On ch=1 n=g4 v=0
303542 On ch=1 n=a#4 v=0
303612 On ch=1 n=f4 v=117
303630 On ch=1 n=a#4 v=121
303652 On ch=1 n=f4 v=0
303714 On ch=1 n=g#4 v=0
303742 On ch=1 n=a#4 v=0
303742 On ch=1 n=f5 v=127
303750 On ch=1 n=d5 v=126
303762 On ch=1 n=f4 v=126
303824 On ch=1 n=f5 v=0
303825 On ch=1 n=d5 v=0
303834 On ch=1 n=f4 v=0
303840 On ch=1 n=a#4 v=97
303915 On ch=1 n=a#4 v=0
303942 On ch=1 n=f5 v=93
303942 On ch=1 n=d5 v=93
303982 On ch=1 n=f5 v=0
303985 Par ch=1 c=64 v=0
303985 Par ch=2 c=64 v=0
304004 On ch=1 n=d5 v=0
304100 On ch=1 n=a#2 v=126
304122 On ch=1 n=a#3 v=127
304252 On ch=2 n=a6 v=97
304260 On ch=2 n=a5 v=97
304272 Par ch=1 c=64 v=127
304272 Par ch=2 c=64 v=127
304315 On ch=1 n=a#2 v=0
304332 On ch=1 n=a#3 v=0
304420 On ch=2 n=a5 v=0
304434 On ch=2 n=a6 v=0
304450 On ch=1 n=g4 v=89
304570 On ch=2 n=a#6 v=102
304580 On ch=2 n=a#5 v=102
304597 On ch=1 n=a#4 v=89
304720 On ch=2 n=a#5 v=0
304737 On ch=2 n=g5 v=105
304739 On ch=1 n=a#4 v=0
304740 On ch=1 n=g4 v=0
304747 On ch=1 n=d#5 v=89
304860 On ch=2 n=a#6 v=0
304865 On ch=1 n=a#4 v=90
304894 On ch=2 n=g5 v=0
304897 On ch=1 n=d#5 v=0
304935 On ch=1 n=g4 v=89
304957 On ch=1 n=a#4 v=0
305020 On ch=1 n=g4 v=0
305020 Par ch=1 c=64 v=0
305020 Par ch=2 c=64 v=0
305037 On ch=2 n=g#6 v=110
305037 On ch=2 n=g#7 v=110
305225 On ch=1 n=b3 v=127
305235 On ch=1 n=b2 v=127
305247 On ch=2 n=g#6 v=0
305249 On ch=2 n=g#7 v=0
305345 Par ch=1 c=64 v=127
305345 Par ch=2 c=64 v=127
305382 On ch=2 n=g6 v=105
305397 On ch=2 n=g7 v=104
305417 On ch=1 n=b2 v=0
305427 On ch=1 n=b3 v=0
305520 On ch=1 n=g#4 v=90
305544 On ch=2 n=g7 v=0
305552 On ch=2 n=g6 v=0
305642 On ch=1 n=g#4 v=0
305650 On ch=1 n=d5 v=89
305650 On ch=2 n=f7 v=113
305670 On ch=2 n=f6 v=117
305695 On ch=2 n=f7 v=0
305712 On ch=2 n=f6 v=0
305712 On ch=1 n=d5 v=0
305730 On ch=2 n=g#5 v=127
305742 On ch=1 n=f5 v=89
305800 On ch=2 n=g#5 v=0
305800 On ch=2 n=f6 v=126
305802 On ch=2 n=f7 v=126
305809 On ch=1 n=f5 v=0
305820 On ch=1 n=d5 v=98
305870 On ch=1 n=g#4 v=108
305892 On ch=1 n=d5 v=0
305922 Par ch=1 c=64 v=0
305922 Par ch=2 c=64 v=0
305952 On ch=1 n=g#4 v=0
306004 On ch=2 n=f7 v=0
306012 On ch=2 n=f6 v=0
306027 On ch=1 n=c#3 v=127
306050 On ch=1 n=c#4 v=126
306162 On ch=2 n=d#7 v=125
306172 On ch=2 n=d#6 v=125
306192 Par ch=1 c=64 v=127
306192 Par ch=2 c=64 v=127
306262 On ch=1 n=c#3 v=0
306282 On ch=1 n=c#4 v=0
306327 On ch=1 n=a4 v=90
306332 On ch=2 n=d#6 v=0
306342 On ch=2 n=d#7 v=0
306400 On ch=2 n=e7 v=127
306407 On ch=2 n=e6 v=127
306477 On ch=1 n=c#5 v=89
306507 On ch=1 n=a4 v=0
306549 On ch=1 n=c#5 v=0
306569 On ch=2 n=e6 v=0
306575 On ch=2 n=a5 v=127
306585 On ch=1 n=e5 v=89
306620 On ch=2 n=e7 v=0
306647 On ch=1 n=e5 v=0
306647 On ch=2 n=a5 v=0
306655 On ch=1 n=c#5 v=90
306705 On ch=1 n=a4 v=90
306737 On ch=1 n=c#5 v=0
306780 On ch=2 n=d7 v=127
306800 On ch=1 n=a4 v=0
306810 On ch=2 n=d8 v=127
306887 Par ch=1 c=64 v=0
306887 Par ch=2 c=64 v=0
306992 On ch=1 n=d#4 v=127
307002 On ch=1 n=d#3 v=127
307057 On ch=2 n=d7 v=0
307060 On ch=2 n=d8 v=0
307164 On ch=1 n=d#4 v=0
307184 On ch=1 n=d#3 v=0
307185 Par ch=1 c=64 v=127
307185 Par ch=2 c=64 v=127
307197 On ch=2 n=c#7 v=120
307197 On ch=2 n=c#8 v=120
307325 On ch=1 n=a4 v=90
307369 On ch=2 n=c#7 v=0
307372 On ch=2 n=c#8 v=0
307460 On ch=1 n=b4 v=90
307472 On ch=2 n=b6 v=118
307472 On ch=2 n=b7 v=118
307517 On ch=2 n=b7 v=0
307520 On ch=2 n=a5 v=127
307522 On ch=2 n=b6 v=0
307522 On ch=1 n=f#5 v=90
307532 On ch=1 n=b4 v=0
307532 On ch=1 n=a4 v=0
307620 On ch=2 n=b7 v=127
307620 On ch=2 n=b6 v=127
307627 On ch=2 n=a5 v=0
307647 On ch=1 n=f#5 v=0
307647 On ch=1 n=b4 v=97
307665 Par ch=1 c=64 v=0
307665 Par ch=2 c=64 v=0
307685 On ch=1 n=a4 v=105
307727 On ch=1 n=b4 v=0
307757 On ch=1 n=a4 v=0
307857 On ch=1 n=e3 v=127
307867 On ch=1 n=e4 v=127
307960 Par ch=1 c=64 v=127
307960 Par ch=2 c=64 v=127
308057 On ch=1 n=a4 v=90
308089 On ch=1 n=e4 v=0
308089 On ch=1 n=e3 v=0
308110 On ch=2 n=b7 v=0
308122 On ch=2 n=b6 v=0
308195 On ch=2 n=a7 v=117
308200 On ch=1 n=c#5 v=89
308212 On ch=2 n=a6 v=117
308302 On ch=2 n=a7 v=0
308312 On ch=2 n=a6 v=0
308312 On ch=1 n=c#5 v=0
308312 On ch=1 n=a4 v=0
308317 On ch=1 n=e5 v=90
308317 On ch=2 n=a5 v=115
308390 On ch=2 n=g#6 v=114
308402 On ch=2 n=g#7 v=114
308430 On ch=1 n=c#5 v=90
308459 On ch=2 n=a5 v=0
308469 On ch=1 n=e5 v=0
308487 On ch=1 n=a4 v=89
308512 On ch=2 n=g#7 v=0
308520 On ch=2 n=g#6 v=0
308607 On ch=2 n=f#6 v=111
308617 On ch=2 n=f#7 v=110
308656 On ch=1 n=a4 v=0
308679 On ch=2 n=f#7 v=0
308687 On ch=1 n=c#5 v=0
308706 On ch=2 n=f#6 v=0
308774 On ch=2 n=e7 v=108
308797 On ch=2 n=e6 v=108
308874 On ch=1 n=a4 v=89
308876 On ch=2 n=e7 v=0
308887 On ch=2 n=e6 v=0
308984 On ch=1 n=c#5 v=90
309014 On ch=2 n=d#6 v=104
309017 On ch=2 n=d#7 v=104
309054 On ch=1 n=c#5 v=0
309054 On ch=1 n=a4 v=0
309082 On ch=2 n=a5 v=103
309092 On ch=1 n=e5 v=90
309094 On ch=2 n=d#7 v=0
309104 On ch=2 n=d#6 v=0
309152 On ch=1 n=c#5 v=89
309192 On ch=2 n=a5 v=0
309202 On ch=1 n=c#5 v=0
309202 On ch=2 n=d7 v=101
309209 On ch=1 n=a4 v=90
309212 On ch=1 n=e5 v=0
309212 On ch=2 n=d6 v=101
309302 On ch=2 n=d7 v=0
309311 On ch=1 n=a4 v=0
309312 On ch=2 n=d6 v=0
309324 Par ch=1 c=64 v=0
309324 Par ch=2 c=64 v=0
309384 On ch=2 n=c#7 v=100
309392 On ch=2 n=c#6 v=102
309474 On ch=2 n=c#6 v=0
309479 On ch=1 n=f3 v=127
309484 On ch=2 n=c#7 v=0
309489 On ch=1 n=f4 v=127
309592 On ch=2 n=g#6 v=127
309592 On ch=2 n=c#6 v=127
309592 On ch=2 n=c#7 v=127
309654 Par ch=1 c=64 v=127
309654 Par ch=2 c=64 v=127
309702 On ch=1 n=b4 v=90
309704 On ch=1 n=f4 v=0
309704 On ch=1 n=f3 v=0
309844 On ch=1 n=c#5 v=90
309887 On ch=1 n=b4 v=0
309917 On ch=2 n=b5 v=122
309917 On ch=2 n=g#5 v=122
309919 On ch=2 n=c#7 v=0
309959 On ch=1 n=c#5 v=0
309997 On ch=2 n=b6 v=121
310027 On ch=2 n=g#5 v=0
310029 On ch=2 n=b5 v=0
310047 On ch=1 n=c#5 v=95
310094 On ch=1 n=b4 v=105
310129 On ch=1 n=c#5 v=0
310139 Par ch=1 c=64 v=0
310139 Par ch=2 c=64 v=0
310186 On ch=1 n=b4 v=0
310209 On ch=2 n=c#6 v=0
310264 On ch=1 n=f#3 v=127
310281 On ch=2 n=b6 v=0
310286 On ch=1 n=f#4 v=127
310291 On ch=2 n=g#6 v=0
310356 On ch=2 n=c#7 v=127
310366 On ch=2 n=c#6 v=127
310369 On ch=2 n=a6 v=127
310411 Par ch=1 c=64 v=127
310411 Par ch=2 c=64 v=127
310446 On ch=1 n=f#3 v=0
310448 On ch=1 n=f#4 v=0
310454 On ch=1 n=a4 v=90
310499 On ch=2 n=a6 v=0
310501 On ch=2 n=c#7 v=0
310528 On ch=2 n=c#6 v=0
310576 On ch=2 n=g#6 v=124
310606 On ch=1 n=c#5 v=89
310618 On ch=2 n=g#6 v=0
310666 On ch=1 n=f#5 v=89
310676 On ch=2 n=a5 v=122
310679 On ch=1 n=a4 v=0
310688 On ch=1 n=c#5 v=0
310706 On ch=2 n=c#6 v=122
310716 On ch=2 n=g#6 v=122
310726 On ch=2 n=c#7 v=122
310753 On ch=2 n=a5 v=0
310773 On ch=1 n=f#5 v=0
310781 On ch=1 n=c#5 v=90
310815 On ch=2 n=g#6 v=0
310821 On ch=1 n=a4 v=96
310833 On ch=2 n=c#6 v=0
310853 On ch=1 n=c#5 v=0
310856 Par ch=1 c=64 v=0
310856 Par ch=2 c=64 v=0
310911 On ch=2 n=f#6 v=118
310923 On ch=1 n=a4 v=0
310943 On ch=2 n=c#7 v=0
310983 On ch=2 n=f#6 v=0
311026 On ch=1 n=g3 v=127
311038 On ch=1 n=g4 v=127
311091 On ch=2 n=e7 v=127
311091 On ch=2 n=e6 v=127
311108 On ch=2 n=g#6 v=127
311151 Par ch=1 c=64 v=127
311151 Par ch=2 c=64 v=127
311226 On ch=1 n=g3 v=0
311236 On ch=1 n=d5 v=90
311238 On ch=1 n=g4 v=0
311366 On ch=1 n=e5 v=89
311411 On ch=1 n=d5 v=0
311423 On ch=2 n=e7 v=0
311428 On ch=2 n=g#5 v=122
311431 On ch=1 n=e5 v=0
311438 On ch=2 n=b5 v=122
311443 On ch=2 n=g#6 v=0
311503 On ch=2 n=d7 v=121
311528 On ch=1 n=e5 v=90
311550 On ch=2 n=g#5 v=0
311553 On ch=2 n=b5 v=0
311608 On ch=1 n=d5 v=93
311630 On ch=1 n=e5 v=0
311640 Par ch=1 c=64 v=0
311640 Par ch=2 c=64 v=0
311687 On ch=1 n=d5 v=0
311737 On ch=2 n=d7 v=0
311745 On ch=2 n=e6 v=0
311808 On ch=1 n=a3 v=127
311810 On ch=1 n=a4 v=127
311833 On ch=2 n=c#7 v=127
311850 On ch=2 n=e6 v=127
311853 On ch=2 n=e7 v=127
311923 Par ch=1 c=64 v=127
311923 Par ch=2 c=64 v=127
311942 On ch=1 n=a4 v=0
311950 On ch=1 n=a3 v=0
312025 On ch=1 n=c#5 v=90
312047 On ch=2 n=e6 v=0
312070 On ch=2 n=c#7 v=0
312073 On ch=2 n=e7 v=0
312145 On ch=1 n=e5 v=89
312155 On ch=2 n=b6 v=107
312197 On ch=2 n=b6 v=0
312214 On ch=1 n=e5 v=0
312222 On ch=2 n=a5 v=121
312222 On ch=2 n=c#6 v=121
312234 On ch=1 n=c#5 v=0
312235 On ch=2 n=e7 v=123
312245 On ch=2 n=e6 v=126
312285 On ch=2 n=b6 v=126
312322 On ch=1 n=e5 v=90
312344 On ch=2 n=a5 v=0
312352 On ch=1 n=c#5 v=90
312364 On ch=2 n=c#6 v=0
312392 On ch=1 n=e5 v=0
312435 On ch=2 n=e6 v=0
312462 On ch=1 n=c#5 v=0
312472 On ch=2 n=b6 v=0
312529 On ch=2 n=a6 v=122
312599 On ch=2 n=a6 v=0
312602 On ch=2 n=e7 v=0
312644 Par ch=1 c=64 v=0
312644 Par ch=2 c=64 v=0
312839 On ch=2 n=g7 v=127
312849 On ch=2 n=e7 v=127
312854 On ch=1 n=a#2 v=127
312854 On ch=1 n=a#3 v=127
312859 On ch=2 n=g6 v=127
312859 On ch=2 n=c#7 v=127
312969 Par ch=1 c=64 v=127
312969 Par ch=2 c=64 v=127
313056 On ch=1 n=a#2 v=0
313066 On ch=1 n=a#3 v=0
313154 On ch=1 n=g4 v=89
313344 On ch=1 n=c#5 v=89
313464 On ch=2 n=g5 v=117
313474 On ch=1 n=e5 v=90
313526 On ch=1 n=c#5 v=0
313526 On ch=1 n=g4 v=0
313628 On ch=2 n=g6 v=0
313636 On ch=1 n=c#5 v=89
313651 On ch=2 n=e7 v=0
313651 On ch=2 n=g7 v=0
313658 On ch=2 n=c#7 v=0
313678 On ch=2 n=g5 v=0
313689 On ch=1 n=e5 v=0
313759 On ch=1 n=g4 v=90
313778 On ch=1 n=c#5 v=0
313821 On ch=2 n=g7 v=127
313829 On ch=2 n=g6 v=127
313831 On ch=1 n=g4 v=0
313831 On ch=2 n=e7 v=127
313841 On ch=2 n=c#7 v=127
314016 Par ch=1 c=64 v=0
314016 Par ch=2 c=64 v=0
314111 On ch=1 n=b2 v=123
314121 On ch=1 n=b3 v=123
314336 On ch=1 n=b3 v=0
314336 Par ch=1 c=64 v=127
314336 Par ch=2 c=64 v=127
314343 On ch=1 n=b2 v=0
314474 On ch=1 n=d4 v=117
314484 On ch=1 n=d3 v=117
314616 On ch=2 n=g7 v=0
314626 On ch=1 n=d3 v=0
314626 On ch=2 n=c#7 v=0
314626 On ch=2 n=e7 v=0
314634 On ch=1 n=d4 v=0
314634 On ch=2 n=g6 v=0
314784 On ch=2 n=f#7 v=112
314789 On ch=1 n=f#3 v=112
314794 On ch=2 n=f#6 v=112
314796 On ch=2 n=d7 v=112
314804 On ch=1 n=f#4 v=112
314921 On ch=1 n=f#3 v=0
314926 On ch=2 n=f#7 v=0
314936 On ch=2 n=d7 v=0
314944 On ch=1 n=f#4 v=0
314944 On ch=2 n=f#6 v=0
315034 On ch=2 n=e7 v=127
315041 On ch=2 n=e6 v=127
315044 On ch=2 n=c#7 v=127
315051 On ch=1 n=b3 v=127
315061 On ch=1 n=b4 v=127
315121 On ch=1 n=b3 v=0
315141 On ch=1 n=b4 v=0
315241 On ch=1 n=d5 v=124
315241 On ch=1 n=d4 v=124
315334 On ch=2 n=e7 v=0
315344 On ch=2 n=c#7 v=0
315353 On ch=1 n=d4 v=0
315353 On ch=1 n=d5 v=0
315353 On ch=2 n=e6 v=0
315421 On ch=1 n=f#4 v=121
315421 On ch=1 n=f#5 v=121
315441 On ch=2 n=b6 v=127
315461 On ch=2 n=d7 v=127
315461 On ch=2 n=f#6 v=127
315461 On ch=2 n=d6 v=127
315508 On ch=1 n=f#5 v=0
315518 On ch=1 n=f#4 v=0
315663 On ch=2 n=d7 v=0
315670 On ch=2 n=d6 v=0
315680 On ch=2 n=f#6 v=0
315680 On ch=2 n=b6 v=0
315738 Par ch=1 c=64 v=0
315738 Par ch=2 c=64 v=0
315858 On ch=1 n=e3 v=127
315868 On ch=1 n=e2 v=127
315878 On ch=2 n=f#6 v=127
315878 On ch=2 n=c#6 v=127
315888 On ch=2 n=a6 v=127
315910 On ch=2 n=c#7 v=127
316133 On ch=1 n=e2 v=0
316140 Par ch=1 c=64 v=127
316140 Par ch=2 c=64 v=127
316193 On ch=1 n=e3 v=0
316463 On ch=1 n=a4 v=127
316595 On ch=2 n=c#6 v=0
316643 On ch=1 n=b4 v=125
316750 On ch=1 n=d#5 v=124
316773 On ch=1 n=f#5 v=123
316892 On ch=2 n=c#7 v=0
316902 On ch=2 n=a6 v=0
316992 On ch=2 n=f#6 v=0
317060 On ch=2 n=b6 v=89
317187 On ch=2 n=a6 v=90
317220 On ch=2 n=b6 v=0
317307 On ch=2 n=a6 v=0
317315 On ch=2 n=g#6 v=90
317377 On ch=2 n=g#6 v=0
317385 On ch=2 n=f6 v=89
317445 On ch=2 n=f#6 v=90
317477 On ch=2 n=f6 v=0
317492 On ch=2 n=g#6 v=90
317502 On ch=2 n=f#6 v=0
317529 On ch=2 n=a6 v=89
317604 On ch=2 n=g#6 v=0
317624 On ch=2 n=a6 v=0
317642 On ch=2 n=a#6 v=90
317684 On ch=2 n=a#6 v=0
317712 On ch=2 n=c#7 v=92
317774 On ch=2 n=c#7 v=0
317779 On ch=2 n=b6 v=93
317834 On ch=2 n=b6 v=0
317852 On ch=2 n=a#6 v=93
317934 On ch=2 n=a#6 v=0
317934 On ch=2 n=b6 v=95
318004 On ch=2 n=c7 v=96
318006 On ch=2 n=b6 v=0
318054 On ch=2 n=c#7 v=97
318086 On ch=2 n=c7 v=0
318129 On ch=2 n=c#7 v=0
318154 On ch=2 n=d7 v=98
318196 On ch=2 n=d7 v=0
318214 On ch=2 n=d#7 v=100
318266 On ch=2 n=d#7 v=0
318292 On ch=2 n=e7 v=101
318342 On ch=2 n=f7 v=102
318364 On ch=2 n=e7 v=0
318397 On ch=2 n=g#7 v=102
318412 On ch=2 n=f7 v=0
318447 On ch=2 n=f#7 v=103
318469 On ch=2 n=g#7 v=0
318539 On ch=2 n=f#7 v=0
318567 On ch=2 n=f7 v=105
318607 On ch=2 n=f#7 v=106
318609 On ch=2 n=f7 v=0
318677 On ch=2 n=g#7 v=107
318679 On ch=2 n=f#7 v=0
318752 On ch=2 n=g#7 v=0
318767 On ch=2 n=a7 v=108
318824 On ch=2 n=a#7 v=109
318849 On ch=2 n=a7 v=0
318884 On ch=2 n=c#8 v=110
318906 On ch=2 n=a#7 v=0
318914 On ch=2 n=b7 v=110
318946 On ch=2 n=c#8 v=0
318956 On ch=2 n=b7 v=0
318984 On ch=2 n=a#7 v=112
319026 On ch=2 n=a#7 v=0
319042 On ch=2 n=b7 v=113
319084 On ch=2 n=b7 v=0
319102 On ch=2 n=c8 v=113
319147 On ch=2 n=c8 v=0
319162 On ch=2 n=c#8 v=115
319204 On ch=2 n=c#8 v=0
319219 On ch=2 n=c8 v=115
319296 On ch=2 n=c8 v=0
319306 On ch=2 n=d#8 v=116
319426 On ch=2 n=c#8 v=114
319486 On ch=2 n=b7 v=113
319511 On ch=2 n=c#8 v=0
319511 On ch=2 n=d#8 v=0
319568 On ch=2 n=b7 v=0
319586 On ch=2 n=a7 v=112
319656 On ch=2 n=a7 v=0
319664 On ch=2 n=g#7 v=110
319741 On ch=2 n=g#7 v=0
319769 On ch=2 n=b7 v=109
319881 On ch=2 n=a7 v=107
319991 On ch=2 n=g#7 v=105
320014 On ch=2 n=b7 v=0
320023 On ch=2 n=a7 v=0
320051 On ch=2 n=f#7 v=105
320083 On ch=2 n=g#7 v=0
320123 On ch=2 n=f#7 v=0
320146 On ch=2 n=f7 v=105
320196 On ch=2 n=f7 v=0
320204 On ch=2 n=f#7 v=106
320276 On ch=2 n=f#7 v=0
320306 On ch=2 n=f7 v=108
320361 On ch=2 n=f7 v=0
320361 On ch=2 n=g#7 v=108
320431 On ch=2 n=g#7 v=0
320431 On ch=2 n=f#7 v=110
320493 On ch=2 n=f#7 v=0
320516 On ch=2 n=e7 v=110
320591 On ch=2 n=e7 v=0
320601 On ch=2 n=d#7 v=109
320663 On ch=2 n=d#7 v=0
320691 On ch=2 n=d7 v=107
320763 On ch=2 n=d7 v=0
320809 On ch=2 n=d#7 v=105
320891 On ch=2 n=c#7 v=104
320931 On ch=2 n=d#7 v=0
320961 On ch=2 n=c#7 v=0
320979 On ch=2 n=b6 v=103
321031 On ch=2 n=b6 v=0
321051 On ch=2 n=a#6 v=102
321069 Par ch=1 c=67 v=127
321069 Par ch=2 c=67 v=127
321111 On ch=2 n=c#7 v=101
321113 On ch=2 n=a#6 v=0
321171 On ch=2 n=c#7 v=0
321191 On ch=2 n=b6 v=101
321286 On ch=2 n=b6 v=0
321291 On ch=2 n=a6 v=103
321363 On ch=2 n=a6 v=0
321379 On ch=2 n=g#6 v=104
321471 On ch=2 n=g#6 v=0
321479 On ch=2 n=b6 v=105
321569 On ch=2 n=a6 v=103
321601 On ch=2 n=b6 v=0
321626 On ch=2 n=g#6 v=102
321661 On ch=2 n=a6 v=0
321718 On ch=2 n=g#6 v=0
321739 On ch=2 n=f#6 v=100
321781 On ch=2 n=f#6 v=0
321801 On ch=2 n=f6 v=99
321873 On ch=2 n=f6 v=0
321891 On ch=2 n=f#6 v=98
321936 On ch=2 n=f#6 v=0
321951 On ch=2 n=f6 v=97
322016 On ch=2 n=f6 v=0
322031 On ch=2 n=g#6 v=96
322121 On ch=2 n=f#6 v=94
322143 On ch=2 n=g#6 v=0
322161 On ch=2 n=f#6 v=0
322191 On ch=2 n=e6 v=93
322271 On ch=2 n=d#6 v=92
322273 On ch=2 n=e6 v=0
322333 On ch=2 n=d#6 v=0
322354 On ch=2 n=d6 v=90
322424 On ch=2 n=d6 v=0
322474 On ch=2 n=e6 v=88
322544 On ch=2 n=d#6 v=88
322614 On ch=2 n=e6 v=0
322614 On ch=2 n=c#6 v=87
322626 On ch=2 n=d#6 v=0
322696 On ch=2 n=c#6 v=0
322706 On ch=2 n=c6 v=85
322779 On ch=2 n=d#6 v=84
322798 On ch=2 n=c6 v=0
322876 On ch=2 n=c#6 v=82
322966 On ch=2 n=c6 v=81
322969 On ch=2 n=d#6 v=0
323018 On ch=2 n=c#6 v=0
323038 On ch=2 n=c6 v=0
323056 On ch=2 n=b5 v=81
323138 On ch=2 n=b5 v=0
323166 On ch=2 n=c#6 v=83
323169 Par ch=1 c=64 v=0
323169 Par ch=2 c=64 v=0
323236 On ch=2 n=c#6 v=0
323256 On ch=2 n=b5 v=84
323346 On ch=2 n=b5 v=0
323366 On ch=2 n=a#5 v=86
323468 On ch=2 n=a#5 v=0
323479 On ch=2 n=b5 v=88
323639 On ch=2 n=d#6 v=90
323656 On ch=2 n=b5 v=0
323736 On ch=2 n=d#6 v=0
323771 On ch=2 n=g#6 v=92
323956 Par ch=1 c=64 v=127
323956 Par ch=2 c=64 v=127
324138 On ch=2 n=g#6 v=0
324376 On ch=1 n=f#5 v=0
324496 On ch=2 n=g#6 v=102
324659 On ch=1 n=b4 v=0
324666 On ch=1 n=d#5 v=0
324919 On ch=1 n=a4 v=0
326146 On ch=2 n=g#6 v=0
326154 On ch=2 n=f#6 v=83
326681 On ch=1 n=e3 v=60
326719 Par ch=1 c=64 v=0
326719 Par ch=2 c=64 v=0
327164 Par ch=1 c=64 v=127
327164 Par ch=2 c=64 v=127
327208 On ch=1 n=e3 v=0
327209 On ch=1 n=b3 v=53
327439 On ch=1 n=d4 v=52
327471 On ch=1 n=b3 v=0
327606 On ch=1 n=e4 v=52
327621 On ch=1 n=d4 v=0
327773 On ch=1 n=e4 v=0
327789 On ch=1 n=g#4 v=52
327989 On ch=1 n=b4 v=52
328031 On ch=2 n=f#6 v=0
328074 On ch=1 n=g#4 v=0
328109 On ch=1 n=d5 v=52
328194 On ch=1 n=b4 v=0
328231 On ch=1 n=e5 v=52
328276 On ch=1 n=d5 v=0
328311 On ch=2 n=g#5 v=57
328384 On ch=2 n=b5 v=58
328466 On ch=2 n=g#5 v=0
328466 On ch=2 n=d6 v=60
328473 On ch=1 n=e5 v=0
328644 On ch=2 n=f#6 v=62
328686 On ch=2 n=b5 v=0
328726 On ch=2 n=d6 v=0
328816 On ch=1 n=e4 v=60
329066 On ch=1 n=b4 v=55
329091 On ch=1 n=e4 v=0
329248 On ch=1 n=b4 v=0
329254 On ch=1 n=d5 v=52
329449 On ch=1 n=d5 v=0
329476 On ch=1 n=e5 v=52
329676 On ch=1 n=e5 v=0
329676 On ch=2 n=g#5 v=52
330013 On ch=2 n=g#5 v=0
330846 On ch=2 n=e6 v=60
330851 On ch=2 n=f#6 v=0
331144 On ch=2 n=d6 v=57
331176 On ch=2 n=e6 v=0
331344 On ch=2 n=b5 v=53
331389 On ch=2 n=d6 v=0
331526 On ch=2 n=b5 v=0
331541 On ch=2 n=g#5 v=55
331613 On ch=2 n=g#5 v=0
331631 On ch=1 n=e5 v=62
331741 On ch=1 n=e5 v=0
331741 On ch=1 n=d#5 v=63
331829 On ch=1 n=e5 v=62
331899 On ch=2 n=g#5 v=57
331938 On ch=1 n=d#5 v=0
331939 On ch=1 n=e5 v=0
331991 On ch=2 n=g#5 v=0
331999 On ch=2 n=a5 v=55
332039 On ch=2 n=a5 v=0
332039 On ch=2 n=a#5 v=54
332089 On ch=2 n=a#5 v=0
332126 On ch=2 n=c#6 v=53
332169 On ch=2 n=a#5 v=52
332221 On ch=2 n=a#5 v=0
332221 On ch=2 n=c#6 v=0
332239 On ch=2 n=b5 v=52
332341 On ch=2 n=d6 v=52
332411 On ch=2 n=b5 v=0
332421 On ch=2 n=d#6 v=52
332423 On ch=2 n=d6 v=0
332483 On ch=2 n=d#6 v=0
332511 On ch=2 n=f#6 v=52
332564 On ch=2 n=d#6 v=52
332583 On ch=2 n=f#6 v=0
332614 On ch=2 n=d#6 v=0
332631 On ch=2 n=e6 v=52
332714 On ch=2 n=g#6 v=53
332796 On ch=2 n=g#6 v=0
332796 On ch=2 n=e6 v=0
332804 On ch=2 n=a6 v=55
332849 On ch=2 n=a6 v=0
332866 On ch=2 n=a#6 v=55
332908 On ch=2 n=a#6 v=0
332926 On ch=2 n=c#7 v=54
332986 On ch=2 n=c#7 v=0
332986 On ch=2 n=a#6 v=53
333028 On ch=2 n=a#6 v=0
333046 On ch=2 n=b6 v=52
333119 On ch=2 n=d7 v=52
333131 On ch=2 n=b6 v=0
333181 On ch=2 n=d7 v=0
333231 On ch=2 n=d#7 v=52
333303 On ch=2 n=d#7 v=0
333309 On ch=2 n=f#7 v=52
333381 On ch=2 n=d#7 v=52
333384 On ch=2 n=f#7 v=0
333446 On ch=2 n=d#7 v=0
333456 On ch=2 n=e7 v=52
333491 On ch=2 n=g#7 v=52
333533 On ch=2 n=e7 v=0
333613 On ch=2 n=g#7 v=0
333621 On ch=2 n=a7 v=52
333689 On ch=2 n=a#7 v=52
333693 On ch=2 n=a7 v=0
333741 On ch=2 n=a#7 v=0
333769 On ch=2 n=c#8 v=53
333819 On ch=2 n=a#7 v=55
333844 On ch=2 n=c#8 v=0
333914 On ch=2 n=a#7 v=0
333919 On ch=2 n=b7 v=56
334001 On ch=2 n=d8 v=57
334081 On ch=2 n=d8 v=0
334104 On ch=2 n=b7 v=0
334129 On ch=2 n=d#8 v=59
334189 On ch=2 n=f#8 v=60
334194 On ch=2 n=d#8 v=0
334281 On ch=2 n=f#8 v=0
334281 On ch=2 n=d#8 v=59
334333 On ch=2 n=d#8 v=0
334364 On ch=2 n=e8 v=58
334424 On ch=2 n=c#8 v=57
334446 On ch=2 n=e8 v=0
334481 On ch=2 n=g#7 v=56
334484 On ch=2 n=d8 v=56
334506 On ch=2 n=c#8 v=0
334521 On ch=2 n=d#7 v=55
334526 On ch=2 n=g#7 v=0
334546 On ch=2 n=d8 v=0
334564 On ch=2 n=e7 v=55
334606 On ch=2 n=d#7 v=0
334644 On ch=2 n=e7 v=0
334654 On ch=2 n=f7 v=53
334716 On ch=2 n=f#7 v=52
334769 On ch=2 n=f7 v=0
334798 On ch=2 n=f#7 v=0
334826 On ch=2 n=c#7 v=52
334858 On ch=2 n=c#7 v=0
334886 On ch=2 n=d7 v=52
334958 On ch=2 n=d7 v=0
334986 On ch=2 n=a#6 v=53
335046 On ch=2 n=a#6 v=0
335064 On ch=2 n=b6 v=54
335104 On ch=2 n=g6 v=55
335139 On ch=2 n=b6 v=0
335161 On ch=2 n=g#6 v=56
335166 On ch=2 n=g6 v=0
335236 On ch=2 n=g#6 v=0
335256 On ch=2 n=d#6 v=57
335301 On ch=2 n=e6 v=58
335326 On ch=2 n=d#6 v=0
335404 On ch=2 n=f6 v=57
335413 On ch=2 n=e6 v=0
335481 On ch=2 n=f#6 v=56
335556 On ch=2 n=f6 v=0
335566 On ch=2 n=f#6 v=0
335574 On ch=2 n=c#6 v=55
335679 On ch=2 n=c#6 v=0
335684 On ch=2 n=d6 v=53
335756 On ch=2 n=d6 v=0
335756 Par ch=1 c=64 v=0
335756 Par ch=2 c=64 v=0
335774 On ch=2 n=a#5 v=52
335866 On ch=2 n=a#5 v=0
335874 On ch=2 n=b5 v=52
335956 On ch=2 n=b5 v=0
335974 On ch=2 n=g5 v=53
336056 On ch=2 n=g5 v=0
336061 On ch=2 n=g#5 v=55
336136 On ch=2 n=g#5 v=0
336194 On ch=1 n=d#5 v=62
336274 On ch=1 n=e5 v=60
336306 On ch=1 n=d#5 v=0
336346 On ch=1 n=e5 v=0
336356 On ch=1 n=f5 v=59
336486 On ch=1 n=f#5 v=57
336528 On ch=1 n=f5 v=0
336576 On ch=1 n=f#5 v=0
336626 On ch=2 n=g5 v=52
336706 On ch=2 n=g5 v=0
336716 On ch=2 n=g#5 v=52
336838 On ch=2 n=g#5 v=0
336869 On ch=2 n=a5 v=52
336959 On ch=2 n=a5 v=0
336989 On ch=2 n=a#5 v=53
337071 On ch=2 n=a#5 v=0
337081 On ch=2 n=b5 v=55
337181 On ch=2 n=b5 v=0
337211 On ch=2 n=c6 v=57
337301 On ch=1 n=e3 v=58
337321 On ch=2 n=c6 v=0
337341 On ch=2 n=c#6 v=59
337451 Par ch=1 c=64 v=127
337451 Par ch=2 c=64 v=127
337641 On ch=1 n=d5 v=52
337651 On ch=1 n=e5 v=52
337656 On ch=1 n=e3 v=0
337661 On ch=1 n=e4 v=52
337763 On ch=1 n=e4 v=0
337796 On ch=2 n=g#5 v=53
337836 On ch=1 n=d5 v=0
337846 On ch=1 n=e5 v=0
337934 On ch=1 n=g#4 v=52
337934 On ch=2 n=e6 v=52
337953 On ch=2 n=g#5 v=0
338026 On ch=2 n=c#6 v=0
338044 On ch=2 n=e6 v=0
338104 On ch=1 n=d5 v=52
338181 On ch=2 n=c#6 v=55
338184 On ch=1 n=g#4 v=0
338291 On ch=1 n=e5 v=52
338311 On ch=2 n=c#6 v=0
338311 On ch=1 n=d5 v=0
338388 On ch=1 n=e5 v=0
338444 On ch=2 n=c#6 v=54
338511 On ch=1 n=e5 v=55
338553 On ch=1 n=e5 v=0
338576 On ch=2 n=c#6 v=0
338689 On ch=2 n=c#6 v=52
338726 On ch=1 n=e5 v=55
338799 On ch=2 n=c#6 v=0
338919 On ch=2 n=c#6 v=55
339034 On ch=2 n=c#6 v=0
339144 On ch=2 n=e6 v=58
339174 On ch=2 n=c#6 v=58
339273 On ch=1 n=e5 v=0
339284 On ch=2 n=c#6 v=0
339426 On ch=2 n=c#6 v=53
339536 On ch=2 n=c#6 v=0
339661 On ch=2 n=c#6 v=52
339834 On ch=1 n=e5 v=55
339836 On ch=2 n=c#6 v=0
339976 On ch=2 n=e6 v=0
340006 On ch=2 n=c#6 v=52
340173 On ch=2 n=c#6 v=0
340351 On ch=2 n=c#6 v=52
340523 On ch=2 n=c#6 v=0
340756 On ch=2 n=c#6 v=52
341011 On ch=2 n=c#6 v=0
341111 On ch=2 n=e6 v=57
341496 On ch=2 n=e6 v=0
341554 On ch=2 n=c#6 v=62
341881 On ch=1 n=e5 v=0
343756 On ch=1 n=e4 v=55
345259 On ch=2 n=c#6 v=0
345266 On ch=2 n=b5 v=52
346536 On ch=1 n=a3 v=54
346709 Par ch=1 c=64 v=0
346709 Par ch=2 c=64 v=0
346821 On ch=1 n=e4 v=0
347286 Par ch=1 c=64 v=127
347286 Par ch=2 c=64 v=127
347301 On ch=1 n=a4 v=55
347343 On ch=2 n=b5 v=0
347616 On ch=1 n=c#5 v=60
347904 On ch=1 n=g4 v=88
347986 Par ch=1 c=64 v=0
347986 Par ch=2 c=64 v=0
348041 On ch=2 n=a5 v=52
348331 On ch=1 n=e5 v=52
348376 On ch=1 n=c#5 v=0
348446 Par ch=1 c=64 v=127
348446 Par ch=2 c=64 v=127
348561 On ch=1 n=c#5 v=52
348764 On ch=1 n=f#4 v=83
348826 On ch=1 n=g4 v=0
348836 Par ch=1 c=64 v=0
348836 Par ch=2 c=64 v=0
348866 On ch=1 n=a4 v=0
349086 On ch=2 n=a5 v=0
349086 On ch=1 n=a4 v=55
349179 Par ch=1 c=64 v=127
349179 Par ch=2 c=64 v=127
349188 On ch=1 n=c#5 v=0
349326 On ch=1 n=c#5 v=68
349396 On ch=1 n=e4 v=84
349438 On ch=1 n=e4 v=0
349438 On ch=1 n=f#4 v=0
349546 On ch=1 n=e4 v=86
349578 Par ch=1 c=64 v=0
349578 Par ch=2 c=64 v=0
349696 On ch=2 n=a5 v=52
349698 On ch=1 n=e5 v=0
349953 On ch=2 n=g5 v=52
349978 Par ch=1 c=64 v=127
349978 Par ch=2 c=64 v=127
350018 On ch=1 n=c#5 v=0
350028 On ch=1 n=e4 v=0
350175 On ch=1 n=a3 v=0
350251 On ch=1 n=c#5 v=55
350486 On ch=1 n=a2 v=52
350568 On ch=2 n=a5 v=0
350575 On ch=2 n=g5 v=0
350603 On ch=1 n=a3 v=70
350656 Par ch=1 c=64 v=0
350656 Par ch=2 c=64 v=0
350703 On ch=1 n=a4 v=0
350936 On ch=1 n=a4 v=53
351011 On ch=1 n=c#5 v=0
351121 Par ch=1 c=64 v=127
351121 Par ch=2 c=64 v=127
351243 On ch=1 n=c5 v=58
351396 On ch=1 n=d#5 v=81
351405 On ch=1 n=c5 v=0
351413 On ch=1 n=f#3 v=85
351458 On ch=1 n=a2 v=0
351516 On ch=1 n=d#5 v=0
351518 Par ch=1 c=64 v=0
351518 Par ch=2 c=64 v=0
351523 On ch=2 n=a5 v=52
351776 On ch=1 n=d#5 v=52
352046 On ch=1 n=c5 v=55
352065 On ch=2 n=a5 v=0
352106 On ch=1 n=d#5 v=0
352276 On ch=1 n=e3 v=80
352355 On ch=1 n=f#3 v=0
352448 On ch=1 n=a4 v=0
352703 On ch=1 n=a4 v=53
352768 On ch=1 n=c5 v=0
352788 Par ch=1 c=64 v=127
352788 Par ch=2 c=64 v=127
352986 On ch=1 n=c5 v=57
353088 On ch=1 n=d#3 v=73
353110 On ch=1 n=a4 v=0
353161 On ch=1 n=e3 v=0
353210 On ch=1 n=d#3 v=0
353321 Par ch=1 c=64 v=0
353321 Par ch=2 c=64 v=0
353338 On ch=1 n=d#3 v=78
353481 On ch=2 n=a5 v=52
353718 Par ch=1 c=64 v=127
353718 Par ch=2 c=64 v=127
353831 On ch=1 n=c5 v=0
353838 On ch=2 n=a5 v=0
353868 On ch=1 n=f#5 v=52
354123 On ch=1 n=a3 v=0
354141 On ch=1 n=c5 v=52
354200 On ch=1 n=f#5 v=0
354271 On ch=1 n=c5 v=0
354556 On ch=1 n=a2 v=58
354621 Par ch=1 c=64 v=0
354621 Par ch=2 c=64 v=0
354670 On ch=1 n=d#3 v=0
354766 On ch=1 n=a3 v=60
354876 On ch=2 n=d6 v=63
354886 On ch=2 n=e6 v=63
354906 On ch=2 n=e7 v=64
354913 On ch=2 n=g#6 v=64
355043 Par ch=1 c=64 v=127
355043 Par ch=2 c=64 v=127
355148 On ch=1 n=a2 v=0
355211 On ch=1 n=a3 v=0
355468 On ch=2 n=g#6 v=0
355471 On ch=2 n=e6 v=0
355471 On ch=2 n=d6 v=0
355538 On ch=1 n=e4 v=52
355795 On ch=1 n=e4 v=0
355913 On ch=1 n=b4 v=52
356253 On ch=2 n=g#5 v=57
356283 On ch=1 n=d5 v=52
356416 On ch=2 n=e7 v=0
356433 On ch=2 n=d7 v=60
356545 On ch=1 n=b4 v=0
356553 On ch=2 n=g#5 v=0
356576 On ch=2 n=d8 v=62
356926 On ch=1 n=b4 v=52
356930 On ch=1 n=d5 v=0
356950 On ch=2 n=d7 v=0
357168 On ch=1 n=e4 v=52
357321 On ch=1 n=b4 v=0
357433 On ch=1 n=e4 v=0
357461 On ch=2 n=c#8 v=54
357463 On ch=2 n=d8 v=0
357471 On ch=2 n=c#7 v=55
357688 On ch=1 n=e4 v=52
357816 On ch=2 n=c#8 v=0
357823 On ch=2 n=c#7 v=0
357915 On ch=1 n=e4 v=0
357981 On ch=1 n=b4 v=52
358136 On ch=2 n=b6 v=65
358138 On ch=2 n=b7 v=65
358190 On ch=2 n=b7 v=0
358198 On ch=2 n=b6 v=0
358286 On ch=2 n=b7 v=67
358296 On ch=1 n=b4 v=0
358303 On ch=1 n=d5 v=52
358303 On ch=2 n=g#5 v=67
358303 On ch=2 n=b6 v=67
358423 On ch=2 n=g#5 v=0
358648 On ch=2 n=b6 v=0
358658 On ch=1 n=b4 v=52
358690 On ch=1 n=d5 v=0
358903 On ch=1 n=b4 v=0
358930 On ch=1 n=e4 v=52
359052 On ch=1 n=e4 v=0
359553 On ch=1 n=a2 v=59
359560 On ch=2 n=b7 v=0
359698 Par ch=1 c=64 v=0
359698 Par ch=2 c=64 v=0
359755 On ch=1 n=a3 v=61
359860 On ch=2 n=c#7 v=57
359973 On ch=2 n=e7 v=58
360083 On ch=2 n=c#8 v=60
360113 On ch=1 n=a2 v=0
360115 Par ch=1 c=64 v=127
360115 Par ch=2 c=64 v=127
360132 On ch=1 n=a3 v=0
360315 On ch=2 n=c#7 v=0
360425 On ch=2 n=e7 v=0
360510 On ch=1 n=e4 v=52
360812 On ch=1 n=e4 v=0
360820 On ch=1 n=a4 v=52
361092 On ch=1 n=a4 v=0
361120 On ch=2 n=a5 v=52
361130 On ch=1 n=c#5 v=52
361425 On ch=2 n=a5 v=0
361453 On ch=1 n=a4 v=52
361475 On ch=1 n=c#5 v=0
361643 On ch=2 n=c#8 v=0
361648 On ch=2 n=b7 v=53
361803 On ch=2 n=a7 v=55
361855 On ch=2 n=b7 v=0
361888 On ch=1 n=e4 v=52
361915 On ch=2 n=a7 v=0
361933 On ch=2 n=g#7 v=57
362035 On ch=2 n=g#7 v=0
362043 On ch=2 n=a7 v=58
362053 On ch=1 n=a4 v=0
362125 On ch=2 n=b7 v=57
362145 On ch=2 n=a7 v=0
362177 On ch=2 n=b7 v=0
362183 On ch=1 n=e4 v=0
362203 On ch=2 n=c#8 v=55
362245 Par ch=1 c=64 v=0
362245 Par ch=2 c=64 v=0
362278 On ch=2 n=c#8 v=0
362283 On ch=2 n=b7 v=62
362420 On ch=1 n=e4 v=52
362573 Par ch=1 c=64 v=127
362573 Par ch=2 c=64 v=127
362643 On ch=2 n=b7 v=0
362670 On ch=1 n=e4 v=0
362690 On ch=2 n=b6 v=72
362765 On ch=1 n=b4 v=52
362790 On ch=2 n=e7 v=73
362830 On ch=2 n=b7 v=82
363075 On ch=2 n=g#5 v=52
363085 On ch=1 n=d5 v=52
363127 On ch=2 n=b6 v=0
363177 On ch=1 n=b4 v=0
363217 On ch=2 n=g#5 v=0
363410 On ch=1 n=b4 v=52
363472 On ch=1 n=d5 v=0
363610 On ch=1 n=e4 v=52
363680 On ch=1 n=b4 v=0
363802 On ch=2 n=b7 v=0
363853 On ch=2 n=g#7 v=62
363860 On ch=2 n=g#6 v=62
363922 On ch=1 n=e4 v=0
363925 On ch=2 n=e7 v=0
364045 On ch=2 n=g#7 v=0
364062 On ch=2 n=g#6 v=0
364300 On ch=1 n=a3 v=59
364405 Par ch=1 c=64 v=0
364405 Par ch=2 c=64 v=0
364718 On ch=1 n=a4 v=52
365028 On ch=1 n=c#5 v=54
365268 On ch=1 n=g4 v=78
365475 On ch=2 n=a5 v=52
365753 Par ch=1 c=64 v=127
365753 Par ch=2 c=64 v=127
365780 On ch=1 n=e5 v=52
365815 On ch=1 n=c#5 v=0
365995 On ch=1 n=c#5 v=53
366140 On ch=1 n=g4 v=0
366168 On ch=1 n=f#4 v=81
366223 Par ch=1 c=64 v=0
366223 Par ch=2 c=64 v=0
366233 On ch=1 n=a4 v=0
366450 On ch=1 n=a4 v=53
366635 Par ch=1 c=64 v=127
366635 Par ch=2 c=64 v=127
366800 On ch=1 n=e4 v=83
366812 On ch=1 n=c#5 v=0
366822 On ch=1 n=f#4 v=0
366842 On ch=1 n=e4 v=0
366910 On ch=1 n=c#5 v=88
366932 On ch=2 n=a5 v=0
366957 On ch=1 n=e4 v=87
366989 On ch=1 n=e5 v=0
367042 Par ch=1 c=64 v=0
367042 Par ch=2 c=64 v=0
367117 On ch=2 n=a5 v=52
367505 Par ch=1 c=64 v=127
367505 Par ch=2 c=64 v=127
367522 On ch=2 n=g5 v=52
367532 On ch=1 n=c#5 v=0
367561 On ch=1 n=e4 v=0
367684 On ch=1 n=a3 v=0
367832 On ch=1 n=c#5 v=53
368127 On ch=1 n=a2 v=57
368242 Par ch=1 c=64 v=0
368242 Par ch=2 c=64 v=0
368281 On ch=2 n=g5 v=0
368281 On ch=2 n=a5 v=0
368289 On ch=1 n=a3 v=71
368324 On ch=1 n=a4 v=0
368664 On ch=1 n=a4 v=54
368707 On ch=1 n=c#5 v=0
369012 On ch=1 n=c5 v=55
369307 On ch=1 n=f#3 v=77
369412 On ch=1 n=a2 v=0
369497 On ch=2 n=a5 v=52
369817 On ch=1 n=d#5 v=52
369822 On ch=1 n=c5 v=0
370079 On ch=1 n=c5 v=52
370122 On ch=1 n=d#5 v=0
370272 On ch=1 n=e3 v=70
370332 On ch=1 n=f#3 v=0
370524 On ch=1 n=a4 v=0
370662 On ch=1 n=a4 v=55
370762 Par ch=1 c=64 v=127
370762 Par ch=2 c=64 v=127
370986 On ch=1 n=c5 v=0
371004 On ch=1 n=d#3 v=76
371049 On ch=1 n=e3 v=0
371074 On ch=1 n=c5 v=78
371109 On ch=1 n=d#3 v=0
371154 On ch=2 n=a5 v=0
371177 On ch=1 n=a4 v=0
371252 On ch=1 n=d#3 v=81
371272 Par ch=1 c=64 v=0
371272 Par ch=2 c=64 v=0
371329 On ch=2 n=a5 v=52
371729 On ch=1 n=f#5 v=52
371731 On ch=1 n=c5 v=0
371812 Par ch=1 c=64 v=127
371812 Par ch=2 c=64 v=127
372054 On ch=1 n=c5 v=52
372056 On ch=2 n=a5 v=0
372114 On ch=1 n=f#5 v=0
372201 On ch=1 n=c5 v=0
372201 On ch=1 n=a3 v=0
372499 On ch=1 n=a2 v=56
372622 Par ch=1 c=64 v=0
372622 Par ch=2 c=64 v=0
372644 On ch=1 n=d#3 v=0
372722 On ch=1 n=a3 v=58
372907 On ch=2 n=d6 v=58
372914 On ch=2 n=e6 v=58
373062 On ch=2 n=g#6 v=60
373104 Par ch=1 c=64 v=127
373104 Par ch=2 c=64 v=127
373184 On ch=2 n=e7 v=62
373236 On ch=1 n=a2 v=0
373297 On ch=1 n=a3 v=0
373397 On ch=2 n=d6 v=0
373406 On ch=2 n=e6 v=0
373487 On ch=2 n=g#6 v=0
373702 On ch=1 n=e4 v=52
373947 On ch=1 n=e4 v=0
374144 On ch=1 n=b4 v=52
374559 On ch=1 n=d5 v=52
374587 On ch=2 n=g#5 v=55
374684 On ch=2 n=e7 v=0
374761 On ch=1 n=b4 v=0
374844 On ch=2 n=d8 v=59
374862 On ch=2 n=d7 v=60
374922 On ch=2 n=g#5 v=0
375259 On ch=1 n=d5 v=0
375267 On ch=1 n=b4 v=52
375412 On ch=2 n=d7 v=0
375574 On ch=1 n=e4 v=52
375649 On ch=1 n=b4 v=0
375859 On ch=1 n=e4 v=0
375927 On ch=2 n=c#7 v=57
375927 On ch=2 n=c#8 v=57
375941 On ch=2 n=d8 v=0
376147 On ch=1 n=e4 v=52
376344 On ch=2 n=c#8 v=0
376527 On ch=1 n=e4 v=0
376609 On ch=1 n=b4 v=52
376722 On ch=2 n=c#7 v=0
376782 On ch=2 n=b7 v=71
376802 On ch=2 n=b6 v=71
376969 On ch=2 n=g#5 v=69
376981 On ch=1 n=b4 v=0
376989 On ch=1 n=d5 v=52
377196 On ch=2 n=g#5 v=0
377332 On ch=2 n=b6 v=0
377364 On ch=1 n=b4 v=52
377416 On ch=1 n=d5 v=0
377714 On ch=1 n=e4 v=52
377719 On ch=1 n=b4 v=0
377929 On ch=1 n=e4 v=0
378492 On ch=1 n=a2 v=57
378507 Par ch=1 c=64 v=0
378507 Par ch=2 c=64 v=0
378559 On ch=2 n=b7 v=0
378672 On ch=1 n=a3 v=60
378732 On ch=2 n=c#7 v=56
378802 On ch=2 n=e7 v=57
378902 On ch=1 n=a2 v=0
378932 On ch=2 n=c#8 v=59
378942 Par ch=1 c=64 v=127
378942 Par ch=2 c=64 v=127
379012 On ch=1 n=a3 v=0
379182 On ch=2 n=c#7 v=0
379194 On ch=2 n=e7 v=0
379247 On ch=1 n=e4 v=52
379464 On ch=1 n=e4 v=0
379529 On ch=1 n=a4 v=52
379807 On ch=1 n=c#5 v=52
379817 On ch=2 n=a5 v=52
379879 On ch=1 n=a4 v=0
379969 On ch=2 n=a5 v=0
380117 On ch=1 n=c#5 v=0
380117 On ch=1 n=a4 v=52
380247 On ch=2 n=c#8 v=0
380272 On ch=2 n=b7 v=55
380364 On ch=2 n=b7 v=0
380374 On ch=2 n=a7 v=57
380459 On ch=1 n=e4 v=52
380474 On ch=2 n=a7 v=0
380492 On ch=2 n=g#7 v=56
380564 On ch=1 n=a4 v=0
380587 On ch=2 n=g#7 v=0
380607 On ch=2 n=a7 v=54
380627 Par ch=1 c=64 v=0
380627 Par ch=2 c=64 v=0
380687 On ch=2 n=b7 v=53
380699 On ch=2 n=a7 v=0
380732 On ch=2 n=b7 v=0
380769 On ch=2 n=c#8 v=53
380824 On ch=2 n=c#8 v=0
380839 On ch=1 n=e4 v=0
380839 On ch=2 n=b7 v=68
380964 On ch=1 n=e4 v=52
380999 Par ch=1 c=64 v=127
380999 Par ch=2 c=64 v=127
381151 On ch=1 n=e4 v=0
381161 On ch=2 n=b7 v=0
381169 On ch=2 n=b6 v=65
381214 On ch=1 n=b4 v=52
381269 On ch=2 n=e7 v=74
381329 On ch=2 n=b7 v=87
381521 On ch=2 n=g#5 v=52
381541 On ch=1 n=d5 v=52
381574 On ch=1 n=b4 v=0
381691 On ch=2 n=g#5 v=0
381819 On ch=1 n=b4 v=52
381861 On ch=1 n=d5 v=0
381894 On ch=2 n=b6 v=0
382036 On ch=1 n=e4 v=52
382089 On ch=1 n=b4 v=0
382198 On ch=1 n=e4 v=0
382244 On ch=2 n=b7 v=0
382251 On ch=2 n=g#7 v=62
382259 On ch=2 n=g#6 v=62
382264 On ch=2 n=e7 v=0
382476 On ch=2 n=g#7 v=0
382496 On ch=2 n=g#6 v=0
382631 On ch=1 n=a2 v=57
382796 Par ch=1 c=64 v=0
382796 Par ch=2 c=64 v=0
382821 On ch=2 n=c#6 v=72
382829 On ch=1 n=a3 v=59
382951 On ch=2 n=e6 v=73
383029 On ch=2 n=c#7 v=80
383138 On ch=1 n=a2 v=0
383199 On ch=1 n=a3 v=0
383199 Par ch=1 c=64 v=127
383199 Par ch=2 c=64 v=127
383401 On ch=1 n=e4 v=52
383493 On ch=2 n=c#6 v=0
383523 On ch=2 n=e6 v=0
383711 On ch=1 n=a4 v=52
383723 On ch=1 n=e4 v=0
384009 On ch=1 n=c#5 v=52
384019 On ch=2 n=a5 v=76
384101 On ch=1 n=a4 v=0
384149 On ch=2 n=a5 v=0
384361 On ch=1 n=a4 v=52
384421 On ch=1 n=c#5 v=0
384484 On ch=2 n=c#7 v=0
384491 On ch=2 n=b6 v=72
384664 On ch=2 n=a6 v=75
384726 On ch=2 n=b6 v=0
384774 On ch=1 n=e4 v=52
384849 On ch=2 n=a6 v=0
384864 On ch=2 n=g#6 v=73
384866 On ch=1 n=a4 v=0
384969 On ch=2 n=g#6 v=0
384979 On ch=2 n=a6 v=71
385114 On ch=2 n=a6 v=0
385114 On ch=1 n=e4 v=0
385126 On ch=2 n=b6 v=68
385161 On ch=2 n=b6 v=0
385214 On ch=2 n=c#7 v=67
385296 On ch=2 n=c#7 v=0
385304 On ch=2 n=b6 v=83
385334 Par ch=1 c=64 v=0
385334 Par ch=2 c=64 v=0
385454 On ch=1 n=e4 v=52
385634 Par ch=1 c=64 v=127
385634 Par ch=2 c=64 v=127
385696 On ch=2 n=b6 v=0
385774 On ch=2 n=b5 v=83
385806 On ch=1 n=e4 v=0
385811 On ch=2 n=e6 v=85
385814 On ch=1 n=b4 v=52
385844 On ch=2 n=b6 v=92
385934 Par ch=1 c=64 v=0
385934 Par ch=2 c=64 v=0
386171 On ch=1 n=d5 v=52
386171 On ch=2 n=g#5 v=52
386231 Par ch=1 c=64 v=127
386231 Par ch=2 c=64 v=127
386369 On ch=1 n=b4 v=0
386411 On ch=2 n=g#5 v=0
386511 On ch=2 n=b5 v=0
386631 On ch=1 n=b4 v=52
386753 On ch=1 n=d5 v=0
386896 On ch=2 n=b6 v=0
387004 On ch=1 n=e4 v=52
387026 On ch=1 n=b4 v=0
387156 On ch=2 n=g#5 v=59
387218 On ch=2 n=e6 v=0
387226 On ch=2 n=g#6 v=58
387281 On ch=1 n=e4 v=0
387371 On ch=2 n=g#6 v=0
387741 On ch=1 n=a2 v=58
387901 Par ch=1 c=64 v=0
387901 Par ch=2 c=64 v=0
387939 On ch=1 n=e5 v=59
387939 On ch=1 n=a3 v=59
388008 On ch=2 n=g#5 v=0
388089 On ch=2 n=c#6 v=55
388216 On ch=2 n=e6 v=70
388256 Par ch=1 c=64 v=127
388256 Par ch=2 c=64 v=127
388268 On ch=1 n=a2 v=0
388349 On ch=1 n=a3 v=0
388596 On ch=1 n=e4 v=52
388606 On ch=1 n=e5 v=0
388936 On ch=1 n=a4 v=52
389238 On ch=1 n=c#5 v=52
389466 On ch=1 n=a4 v=0
389616 On ch=2 n=b5 v=54
389718 On ch=2 n=c#6 v=0
389916 On ch=1 n=a4 v=52
389936 On ch=2 n=a5 v=54
389938 On ch=2 n=b5 v=0
390028 On ch=1 n=e4 v=0
390156 On ch=2 n=a5 v=0
390166 On ch=2 n=g#5 v=58
390313 On ch=2 n=g#5 v=0
390323 On ch=2 n=a5 v=60
390353 On ch=1 n=e4 v=52
390453 On ch=2 n=a5 v=0
390460 On ch=2 n=b5 v=60
390605 On ch=2 n=b5 v=0
390605 On ch=2 n=c#6 v=57
390705 On ch=2 n=c#6 v=0
390705 On ch=1 n=c#5 v=0
390708 On ch=1 n=a4 v=0
390725 On ch=2 n=b5 v=55
390735 On ch=1 n=e4 v=0
390842 On ch=1 n=e4 v=52
390944 On ch=2 n=b5 v=0
390945 On ch=2 n=d6 v=52
391012 On ch=1 n=e5 v=52
391115 Par ch=1 c=64 v=0
391115 Par ch=2 c=64 v=0
391127 On ch=2 n=d6 v=0
391134 On ch=2 n=e6 v=0
391175 On ch=2 n=b5 v=70
391245 On ch=1 n=g#4 v=52
391285 On ch=2 n=e6 v=70
391585 On ch=1 n=d5 v=52
391682 On ch=1 n=g#4 v=0
391962 Par ch=1 c=64 v=127
391962 Par ch=2 c=64 v=127
391967 On ch=1 n=g#4 v=52
392084 On ch=1 n=e4 v=0
392322 On ch=1 n=e4 v=52
392405 On ch=2 n=b5 v=0
392422 On ch=2 n=g#5 v=55
392494 On ch=1 n=g#4 v=0
392529 On ch=1 n=e5 v=0
392532 On ch=1 n=d5 v=0
392642 On ch=1 n=e4 v=0
392665 On ch=2 n=e6 v=0
392715 On ch=1 n=e5 v=52
392884 On ch=2 n=g#5 v=0
392887 On ch=2 n=b5 v=62
392977 On ch=2 n=e6 v=63
392987 Par ch=1 c=64 v=0
392987 Par ch=2 c=64 v=0
393219 On ch=1 n=a3 v=57
393337 Par ch=1 c=64 v=127
393337 Par ch=2 c=64 v=127
393474 On ch=1 n=a3 v=0
393512 On ch=1 n=e4 v=53
393552 On ch=2 n=a5 v=61
393574 On ch=1 n=e5 v=0
393676 On ch=2 n=e6 v=0
393686 On ch=2 n=b5 v=0
393754 On ch=2 n=a5 v=0
393797 On ch=1 n=e5 v=52
393797 On ch=2 n=b5 v=65
393797 On ch=2 n=e6 v=65
393799 On ch=1 n=e4 v=0
393874 On ch=1 n=c#5 v=52
393904 On ch=2 n=a5 v=67
393947 On ch=1 n=e5 v=0
394039 On ch=2 n=b5 v=0
394069 On ch=1 n=c#5 v=0
394117 On ch=1 n=e4 v=52
394146 On ch=2 n=a5 v=0
394224 On ch=2 n=g#5 v=62
394384 On ch=2 n=g#5 v=0
394437 On ch=1 n=e4 v=0
394442 On ch=1 n=a3 v=52
394447 On ch=2 n=e6 v=0
394454 On ch=2 n=a5 v=63
394579 Par ch=1 c=64 v=0
394579 Par ch=2 c=64 v=0
394587 On ch=2 n=d6 v=65
394617 On ch=1 n=a3 v=0
394664 On ch=2 n=a6 v=65
394857 On ch=1 n=a3 v=57
394959 Par ch=1 c=64 v=127
394959 Par ch=2 c=64 v=127
395059 On ch=2 n=c#6 v=63
395079 On ch=1 n=a3 v=0
395079 On ch=2 n=a5 v=0
395109 On ch=2 n=d6 v=0
395117 On ch=1 n=e4 v=53
395221 On ch=2 n=a6 v=0
395231 On ch=2 n=c#6 v=0
395252 On ch=2 n=a5 v=67
395312 On ch=2 n=d6 v=68
395342 On ch=2 n=a6 v=68
395352 On ch=1 n=e4 v=0
395362 On ch=2 n=a5 v=0
395372 On ch=1 n=c#5 v=52
395392 On ch=2 n=c#6 v=69
395504 On ch=1 n=c#5 v=0
395514 On ch=2 n=d6 v=0
395572 On ch=1 n=e4 v=52
395702 On ch=2 n=c#6 v=0
395709 On ch=2 n=c6 v=74
395792 On ch=1 n=a3 v=52
395796 On ch=2 n=c6 v=0
395819 On ch=1 n=e4 v=0
395847 On ch=2 n=a6 v=0
395932 On ch=2 n=c#6 v=77
395952 On ch=1 n=a3 v=0
396039 Par ch=1 c=64 v=0
396039 Par ch=2 c=64 v=0
396067 On ch=2 n=f#6 v=80
396147 On ch=2 n=c#7 v=81
396332 On ch=1 n=e3 v=57
396467 Par ch=1 c=64 v=127
396467 Par ch=2 c=64 v=127
396564 On ch=1 n=e3 v=0
396599 On ch=1 n=c#4 v=52
396614 On ch=2 n=e6 v=78
396624 On ch=2 n=c#6 v=0
396677 On ch=2 n=f#6 v=0
396684 On ch=2 n=c#7 v=0
396774 On ch=2 n=e6 v=0
396784 On ch=2 n=c#6 v=81
396791 On ch=1 n=c#4 v=0
396844 On ch=2 n=f#6 v=82
396861 On ch=1 n=a4 v=52
396916 On ch=2 n=e6 v=83
396919 On ch=2 n=c#7 v=83
396949 On ch=2 n=c#6 v=0
396996 On ch=1 n=a4 v=0
397068 On ch=2 n=e6 v=0
397084 On ch=1 n=c#4 v=52
397099 On ch=2 n=c#7 v=0
397189 On ch=2 n=d#6 v=87
397236 On ch=1 n=e3 v=52
397239 On ch=1 n=c#4 v=0
397331 On ch=2 n=d#6 v=0
397341 On ch=1 n=e3 v=0
397341 On ch=2 n=f#6 v=0
397359 On ch=2 n=e6 v=90
397484 On ch=2 n=b6 v=92
397524 Par ch=1 c=64 v=0
397524 Par ch=2 c=64 v=0
397594 On ch=2 n=e7 v=93
397759 On ch=1 n=c#3 v=57
397906 Par ch=1 c=64 v=127
397906 Par ch=2 c=64 v=127
397974 On ch=1 n=c#3 v=0
398014 On ch=1 n=a3 v=52
398049 On ch=2 n=a6 v=86
398124 On ch=2 n=b6 v=0
398124 On ch=2 n=e6 v=0
398159 On ch=2 n=e7 v=0
398286 On ch=2 n=a6 v=0
398296 On ch=2 n=e6 v=89
398336 On ch=1 n=a3 v=0
398344 On ch=1 n=e4 v=52
398346 On ch=2 n=b6 v=90
398346 On ch=2 n=e7 v=90
398454 On ch=2 n=a6 v=90
398554 On ch=1 n=e4 v=0
398579 On ch=1 n=a3 v=52
398699 On ch=2 n=a6 v=0
398831 On ch=1 n=c#3 v=52
398834 On ch=2 n=g#6 v=84
398844 On ch=1 n=a3 v=0
398846 On ch=2 n=e6 v=0
398908 On ch=2 n=b6 v=0
398999 On ch=2 n=g#6 v=0
399076 On ch=1 n=c#3 v=0
399121 On ch=2 n=e7 v=0
399139 On ch=2 n=a6 v=84
399271 Par ch=1 c=64 v=0
399271 On ch=2 n=d7 v=87
399271 Par ch=2 c=64 v=0
399416 On ch=2 n=a7 v=88
399641 On ch=1 n=a2 v=61
399756 Par ch=1 c=64 v=127
399756 Par ch=2 c=64 v=127
399996 On ch=2 n=c#7 v=80
399998 On ch=2 n=d7 v=0
400003 On ch=1 n=a2 v=0
400004 On ch=1 n=e3 v=55
400096 On ch=2 n=a7 v=0
400116 On ch=2 n=a6 v=0
400233 On ch=2 n=c#7 v=0
400314 On ch=2 n=a7 v=75
400316 On ch=1 n=e3 v=0
400316 On ch=2 n=d7 v=75
400321 On ch=2 n=a6 v=75
400329 On ch=1 n=c#4 v=52
400394 On ch=2 n=c#7 v=74
400446 On ch=1 n=c#4 v=0
400541 On ch=1 n=e3 v=52
400604 On ch=2 n=c#7 v=0
400693 On ch=1 n=e3 v=0
400694 On ch=2 n=a7 v=0
400703 On ch=2 n=d7 v=0
400726 On ch=1 n=a2 v=52
400731 On ch=2 n=c7 v=68
400771 On ch=2 n=a6 v=0
400811 On ch=2 n=c7 v=0
400929 On ch=2 n=a7 v=71
400939 On ch=2 n=f#7 v=71
400949 On ch=2 n=a6 v=72
400949 On ch=2 n=c#7 v=72
400961 Par ch=1 c=64 v=0
400961 Par ch=2 c=64 v=0
400978 On ch=1 n=a2 v=0
401099 On ch=1 n=a2 v=54
401384 Par ch=1 c=64 v=127
401384 Par ch=2 c=64 v=127
401394 On ch=2 n=e7 v=64
401404 On ch=1 n=e3 v=52
401419 On ch=1 n=a2 v=0
401446 On ch=2 n=a7 v=0
401449 On ch=2 n=f#7 v=0
401529 On ch=2 n=a6 v=0
401601 On ch=2 n=e7 v=0
401619 On ch=2 n=c#7 v=0
401631 On ch=1 n=e3 v=0
401659 On ch=2 n=f#7 v=68
401671 On ch=2 n=a7 v=68
401699 On ch=2 n=a6 v=68
401709 On ch=1 n=c#4 v=52
401719 On ch=2 n=e7 v=68
401774 On ch=2 n=f#7 v=0
401844 On ch=1 n=c#4 v=0
401931 On ch=1 n=e3 v=52
402044 On ch=2 n=e7 v=0
402044 On ch=2 n=a6 v=0
402051 On ch=2 n=d#7 v=62
402093 On ch=2 n=a7 v=0
402156 On ch=1 n=a2 v=52
402178 On ch=2 n=d#7 v=0
402188 On ch=1 n=e3 v=0
402288 On ch=2 n=f#7 v=66
402291 On ch=2 n=a7 v=66
402298 On ch=2 n=a6 v=66
402298 On ch=2 n=c#7 v=66
402333 On ch=1 n=a2 v=0
402348 Par ch=1 c=64 v=0
402348 Par ch=2 c=64 v=0
402431 On ch=1 n=a2 v=55
402686 Par ch=1 c=64 v=127
402686 On ch=2 n=e7 v=60
402686 Par ch=2 c=64 v=127
402700 On ch=2 n=f#7 v=0
402716 On ch=1 n=e3 v=52
402738 On ch=1 n=a2 v=0
402748 On ch=2 n=a7 v=0
402828 On ch=2 n=a6 v=0
402901 On ch=2 n=e7 v=0
402988 On ch=1 n=e3 v=0
403005 On ch=2 n=c#7 v=0
403046 On ch=2 n=f#7 v=63
403068 On ch=2 n=a7 v=63
403076 On ch=1 n=c#4 v=52
403076 On ch=2 n=a6 v=63
403088 On ch=2 n=e7 v=63
403161 On ch=2 n=f#7 v=0
403241 On ch=1 n=c#4 v=0
403321 On ch=1 n=e3 v=52
403545 On ch=2 n=e7 v=0
403553 On ch=2 n=d#7 v=56
403555 On ch=2 n=a7 v=0
403563 On ch=1 n=a2 v=52
403568 On ch=1 n=e3 v=0
403586 On ch=2 n=a6 v=0
403675 On ch=2 n=d#7 v=0
403788 On ch=1 n=a2 v=0
403833 On ch=2 n=c#7 v=58
403836 On ch=2 n=f#7 v=58
403846 On ch=2 n=a6 v=58
403846 On ch=2 n=a7 v=58
403926 Par ch=1 c=64 v=0
403926 Par ch=2 c=64 v=0
404018 On ch=1 n=a2 v=55
404266 Par ch=1 c=64 v=127
404266 Par ch=2 c=64 v=127
404333 On ch=2 n=a7 v=0
404340 On ch=1 n=a2 v=0
404351 On ch=2 n=f#7 v=0
404358 On ch=2 n=e7 v=52
404391 On ch=1 n=e3 v=52
404621 On ch=2 n=a6 v=0
404633 On ch=2 n=e7 v=0
404746 On ch=1 n=e3 v=0
404818 On ch=2 n=f#7 v=53
404840 On ch=2 n=c#7 v=0
404848 On ch=2 n=a6 v=53
404858 On ch=2 n=a7 v=54
404888 On ch=1 n=c#4 v=52
404928 On ch=2 n=e7 v=53
405000 On ch=2 n=f#7 v=0
405090 On ch=1 n=c#4 v=0
405251 On ch=1 n=e3 v=52
405656 On ch=1 n=e3 v=0
405673 On ch=1 n=a2 v=52
405850 On ch=2 n=e7 v=0
405868 On ch=2 n=d#7 v=52
406050 On ch=1 n=a2 v=0
406120 On ch=2 n=a6 v=0
406520 On ch=2 n=a7 v=0
406530 On ch=2 n=d#7 v=0
406548 On ch=2 n=a6 v=52
406841 On ch=2 n=c#7 v=52
406988 Par ch=1 c=64 v=0
406988 Par ch=2 c=64 v=0
407068 On ch=2 n=e7 v=52
407208 On ch=1 n=a2 v=57
407311 On ch=2 n=a7 v=57
407608 Par ch=1 c=64 v=127
407608 Par ch=2 c=64 v=127
407711 On ch=1 n=e3 v=52
407865 On ch=1 n=a2 v=0
408028 On ch=1 n=e3 v=0
408123 On ch=1 n=a3 v=52
408310 On ch=1 n=a3 v=0
408406 On ch=1 n=c#4 v=52
408718 On ch=1 n=e4 v=52
408823 On ch=1 n=c#4 v=0
408975 On ch=1 n=e4 v=0
409068 On ch=1 n=a4 v=52
409448 On ch=1 n=c#5 v=52
409815 On ch=1 n=a4 v=0
409881 On ch=1 n=e5 v=52
410248 On ch=1 n=c#5 v=0
410288 On ch=1 n=e5 v=0
410288 On ch=2 n=a5 v=52
410771 On ch=2 n=c#6 v=52
411293 On ch=2 n=e6 v=52
411505 On ch=2 n=a6 v=0
411855 On ch=2 n=a5 v=0
411911 On ch=2 n=a6 v=52
412343 On ch=2 n=c#6 v=0
412773 On ch=2 n=c#7 v=0
413173 On ch=2 n=c#7 v=52
413313 On ch=2 n=e6 v=0
413878 On ch=2 n=a6 v=0
414203 On ch=2 n=e7 v=0
414430 On ch=2 n=c#7 v=0
414891 On ch=2 n=e7 v=52
414893 On ch=2 n=a7 v=0
415923 On ch=2 n=a5 v=52
417443 On ch=2 n=a5 v=0
417708 On ch=2 n=a7 v=52
418153 On ch=2 n=e7 v=0
421368 On ch=2 n=a7 v=0
422318 On ch=2 n=a7 v=58
422378 On ch=2 n=a#7 v=59
422386 Par ch=1 c=64 v=0
422386 Par ch=2 c=64 v=0
422448 On ch=2 n=c#8 v=60
422460 On ch=2 n=a7 v=0
422490 On ch=2 n=a#7 v=0
422508 On ch=2 n=d8 v=62
422520 On ch=2 n=c#8 v=0
422528 On ch=2 n=d7 v=62
422546 On ch=1 n=d5 v=60
422573 On ch=2 n=d8 v=0
422613 On ch=2 n=d7 v=0
422681 On ch=1 n=d5 v=0
423588 On ch=2 n=d6 v=61
423591 On ch=2 n=d8 v=60
423618 On ch=2 n=d7 v=60
423638 On ch=2 n=d6 v=0
423660 On ch=2 n=d7 v=0
423671 On ch=2 n=d8 v=0
424148 On ch=2 n=a7 v=58
424153 On ch=1 n=a4 v=65
424163 On ch=2 n=a6 v=57
424215 On ch=2 n=a7 v=0
424235 On ch=2 n=a6 v=0
424235 On ch=1 n=a4 v=0
424505 On ch=2 n=a6 v=57
424510 On ch=2 n=a7 v=57
424515 On ch=2 n=a5 v=57
424550 On ch=2 n=a7 v=0
424557 On ch=2 n=a5 v=0
424560 On ch=2 n=a6 v=0
424823 On ch=2 n=d8 v=60
424840 On ch=1 n=d5 v=63
424840 On ch=2 n=d7 v=60
424865 On ch=2 n=d8 v=0
424882 On ch=1 n=d5 v=0
424885 On ch=2 n=d7 v=0
425150 On ch=2 n=d6 v=58
425150 On ch=2 n=d7 v=58
425160 On ch=2 n=d8 v=58
425182 On ch=2 n=d7 v=0
425190 On ch=2 n=d6 v=0
425202 On ch=2 n=d8 v=0
425490 On ch=2 n=e8 v=74
425498 On ch=2 n=e7 v=76
425505 On ch=1 n=e5 v=60
425525 Par ch=1 c=64 v=127
425525 Par ch=2 c=64 v=127
425567 On ch=1 n=e5 v=0
425572 On ch=2 n=e8 v=0
425735 On ch=2 n=e6 v=52
425777 On ch=2 n=e6 v=0
425915 Par ch=1 c=64 v=0
425915 Par ch=2 c=64 v=0
425958 On ch=2 n=e7 v=0
425985 On ch=2 n=c8 v=56
425995 On ch=2 n=c7 v=57
426005 On ch=2 n=a7 v=57
426012 On ch=1 n=a4 v=57
426027 On ch=2 n=c8 v=0
426034 On ch=2 n=c7 v=0
426044 On ch=2 n=a7 v=0
426064 On ch=1 n=a4 v=0
426299 On ch=2 n=c8 v=70
426307 On ch=2 n=c6 v=72
426307 On ch=2 n=a7 v=72
426319 On ch=2 n=c7 v=75
426319 On ch=2 n=e6 v=75
426339 Par ch=1 c=64 v=127
426339 Par ch=2 c=64 v=127
426379 On ch=2 n=c7 v=0
426379 On ch=2 n=c6 v=0
426381 On ch=2 n=e6 v=0
426382 On ch=2 n=a7 v=0
426552 On ch=2 n=a5 v=77
426632 On ch=2 n=a5 v=0
426656 On ch=2 n=c8 v=0
426724 On ch=2 n=b7 v=75
426732 On ch=2 n=c6 v=75
426734 On ch=2 n=e6 v=76
426814 On ch=2 n=e6 v=0
426814 On ch=2 n=c6 v=0
426822 On ch=2 n=c8 v=77
426856 On ch=2 n=b7 v=0
426914 On ch=2 n=d8 v=78
426969 On ch=2 n=c8 v=0
426984 On ch=1 n=a4 v=56
426994 Par ch=1 c=64 v=0
426994 Par ch=2 c=64 v=0
427009 On ch=2 n=d8 v=0
427047 On ch=2 n=e8 v=80
427122 On ch=2 n=d8 v=80
427124 On ch=1 n=a4 v=0
427157 On ch=2 n=e8 v=0
427222 On ch=2 n=c8 v=78
427229 On ch=2 n=c6 v=78
427239 On ch=2 n=e6 v=78
427274 On ch=2 n=d8 v=0
427301 On ch=2 n=c6 v=0
427311 On ch=2 n=e6 v=0
427321 On ch=2 n=e8 v=77
427324 On ch=2 n=c8 v=0
427416 On ch=1 n=d5 v=52
427419 On ch=2 n=d8 v=75
427491 On ch=2 n=e8 v=0
427509 On ch=2 n=c8 v=75
427526 On ch=1 n=d5 v=0
427571 On ch=2 n=d8 v=0
427596 On ch=2 n=d6 v=76
427606 On ch=2 n=b5 v=76
427616 On ch=2 n=b7 v=76
427634 On ch=2 n=c8 v=0
427676 On ch=2 n=b5 v=0
427676 On ch=2 n=d6 v=0
427729 On ch=2 n=d8 v=78
427751 On ch=2 n=b7 v=0
427784 On ch=1 n=e5 v=57
427856 On ch=2 n=c8 v=76
427924 On ch=2 n=b7 v=75
427929 On ch=2 n=d8 v=0
427934 Par ch=1 c=64 v=127
427934 Par ch=2 c=64 v=127
427964 On ch=1 n=e5 v=0
427971 On ch=2 n=c6 v=74
427979 On ch=2 n=a5 v=73
428008 On ch=2 n=c8 v=0
428074 On ch=2 n=b7 v=0
428079 On ch=2 n=a5 v=0
428081 On ch=2 n=c6 v=0
428081 On ch=2 n=a7 v=72
428154 On ch=2 n=c8 v=72
428169 On ch=1 n=e5 v=52
428186 On ch=2 n=a7 v=0
428201 On ch=2 n=b7 v=73
428266 On ch=2 n=b5 v=73
428266 On ch=2 n=d6 v=73
428276 On ch=2 n=a7 v=74
428281 On ch=2 n=c8 v=0
428318 On ch=2 n=a7 v=0
428318 On ch=2 n=b7 v=0
428343 On ch=2 n=g#7 v=75
428365 On ch=2 n=d6 v=0
428385 On ch=2 n=g#7 v=0
428393 On ch=2 n=b7 v=76
428403 On ch=2 n=b5 v=0
428438 On ch=2 n=b7 v=0
428441 On ch=2 n=c6 v=75
428443 On ch=2 n=a7 v=75
428451 On ch=2 n=a5 v=75
428483 On ch=2 n=e7 v=75
428488 On ch=2 n=a7 v=0
428503 Par ch=1 c=64 v=0
428503 Par ch=2 c=64 v=0
428513 On ch=2 n=f#7 v=75
428525 On ch=2 n=e7 v=0
428556 On ch=2 n=g#7 v=74
428558 On ch=2 n=f#7 v=0
428563 On ch=2 n=a5 v=0
428563 On ch=1 n=e5 v=0
428566 On ch=2 n=c6 v=0
428588 On ch=2 n=a7 v=73
428598 On ch=2 n=g#7 v=0
428658 On ch=2 n=a7 v=0
428811 On ch=2 n=d8 v=74
428828 On ch=2 n=d7 v=74
428848 On ch=1 n=d5 v=57
428870 On ch=2 n=d7 v=0
428880 On ch=2 n=d8 v=0
428915 On ch=1 n=d5 v=0
429025 On ch=2 n=d6 v=75
429035 On ch=2 n=d8 v=75
429065 On ch=2 n=d7 v=74
429080 On ch=2 n=d8 v=0
429094 On ch=2 n=d6 v=0
429104 On ch=2 n=d7 v=0
429264 On ch=2 n=a7 v=71
429279 On ch=1 n=a4 v=53
429282 On ch=2 n=a6 v=71
429306 On ch=2 n=a7 v=0
429324 On ch=2 n=a6 v=0
429351 On ch=1 n=a4 v=0
429422 On ch=2 n=a6 v=70
429422 On ch=2 n=a7 v=70
429452 On ch=2 n=a5 v=70
429484 On ch=2 n=a7 v=0
429499 On ch=2 n=a5 v=0
429504 On ch=2 n=a6 v=0
429612 On ch=2 n=d8 v=73
429629 On ch=2 n=d7 v=73
429649 On ch=1 n=d5 v=52
429661 On ch=2 n=d7 v=0
429664 On ch=2 n=d8 v=0
429689 On ch=1 n=d5 v=0
429799 On ch=2 n=d6 v=76
429802 On ch=2 n=d8 v=76
429812 On ch=2 n=d7 v=77
429844 On ch=2 n=d7 v=0
429844 On ch=2 n=d8 v=0
429861 On ch=2 n=d6 v=0
429967 On ch=1 n=e5 v=52
429969 On ch=2 n=e7 v=77
429974 On ch=2 n=e8 v=77
430054 On ch=2 n=e8 v=0
430064 On ch=1 n=e5 v=0
430068 On ch=2 n=e7 v=0
430144 On ch=2 n=e6 v=74
430199 On ch=2 n=e6 v=0
430311 On ch=2 n=c8 v=75
430314 On ch=2 n=a7 v=75
430319 On ch=1 n=a4 v=58
430321 On ch=2 n=c7 v=75
430356 On ch=2 n=a7 v=0
430356 On ch=2 n=c8 v=0
430363 On ch=2 n=c7 v=0
430384 On ch=1 n=a4 v=0
430476 Par ch=1 c=64 v=127
430476 On ch=2 n=c8 v=77
430476 Par ch=2 c=64 v=127
430494 On ch=2 n=c7 v=77
430496 On ch=2 n=a7 v=77
430504 On ch=2 n=c6 v=77
430504 On ch=2 n=e6 v=77
430554 On ch=2 n=e6 v=0
430556 On ch=2 n=c6 v=0
430566 On ch=2 n=c7 v=0
430568 On ch=2 n=a7 v=0
430671 On ch=2 n=c8 v=0
430694 On ch=2 n=a5 v=74
430769 On ch=2 n=b7 v=73
430796 On ch=2 n=a5 v=0
430799 On ch=2 n=c6 v=73
430799 On ch=2 n=e6 v=73
430834 On ch=2 n=b7 v=0
430841 On ch=2 n=c6 v=0
430851 On ch=2 n=e6 v=0
430851 On ch=2 n=c8 v=73
430914 On ch=2 n=d8 v=75
430933 On ch=2 n=c8 v=0
430964 Par ch=1 c=64 v=0
430964 Par ch=2 c=64 v=0
430986 On ch=2 n=d8 v=0
430996 On ch=2 n=e8 v=76
430999 On ch=1 n=a4 v=57
431076 On ch=2 n=d8 v=75
431088 On ch=2 n=e8 v=0
431134 On ch=1 n=a4 v=0
431136 On ch=2 n=e6 v=73
431144 On ch=2 n=c6 v=73
431149 On ch=2 n=c8 v=73
431158 On ch=2 n=d8 v=0
431176 On ch=2 n=e6 v=0
431186 On ch=2 n=c6 v=0
431229 On ch=2 n=e8 v=72
431231 On ch=2 n=c8 v=0
431301 On ch=1 n=d5 v=53
431306 On ch=2 n=d8 v=71
431339 On ch=2 n=e8 v=0
431343 On ch=1 n=d5 v=0
431364 On ch=2 n=c8 v=70
431388 On ch=2 n=d8 v=0
431431 On ch=2 n=d6 v=71
431439 On ch=2 n=c8 v=0
431444 On ch=2 n=b5 v=71
431454 On ch=2 n=b7 v=71
431506 On ch=2 n=d8 v=72
431513 On ch=2 n=d6 v=0
431514 On ch=2 n=b5 v=0
431529 On ch=2 n=b7 v=0
431594 On ch=2 n=c8 v=73
431598 On ch=2 n=d8 v=0
431609 On ch=1 n=e5 v=57
431634 Par ch=1 c=64 v=127
431634 Par ch=2 c=64 v=127
431664 On ch=2 n=b7 v=75
431691 On ch=1 n=e5 v=0
431699 On ch=2 n=a5 v=74
431701 On ch=2 n=c6 v=74
431706 On ch=2 n=b7 v=0
431709 On ch=2 n=c8 v=0
431716 On ch=2 n=a7 v=74
431753 On ch=2 n=a7 v=0
431781 On ch=2 n=c6 v=0
431781 On ch=2 n=a5 v=0
431806 On ch=1 n=e5 v=58
431811 On ch=2 n=c8 v=72
431841 On ch=2 n=b7 v=72
431876 On ch=2 n=b5 v=72
431879 On ch=2 n=d6 v=72
431881 On ch=2 n=a7 v=72
431883 On ch=2 n=b7 v=0
431893 On ch=2 n=c8 v=0
431920 On ch=2 n=a7 v=0
431926 On ch=2 n=g#7 v=70
431958 On ch=2 n=b7 v=70
431965 On ch=2 n=b5 v=0
431966 On ch=2 n=d6 v=0
431968 On ch=2 n=g#7 v=0
431978 Par ch=1 c=64 v=0
431978 Par ch=2 c=64 v=0
431993 On ch=2 n=c6 v=70
432001 On ch=2 n=a5 v=70
432003 On ch=1 n=e5 v=0
432006 On ch=2 n=a7 v=69
432006 On ch=2 n=e7 v=69
432010 On ch=2 n=b7 v=0
432038 On ch=2 n=e7 v=0
432048 On ch=2 n=a7 v=0
432053 On ch=2 n=c6 v=0
432063 On ch=2 n=a5 v=0
432286 On ch=2 n=a5 v=74
432291 On ch=2 n=c8 v=74
432293 On ch=2 n=a7 v=74
432298 On ch=2 n=c7 v=74
432330 On ch=2 n=a7 v=0
432333 On ch=2 n=c8 v=0
432338 On ch=2 n=c7 v=0
432356 On ch=2 n=a5 v=0
432471 On ch=2 n=c6 v=77
432473 On ch=2 n=c8 v=77
432481 On ch=2 n=a6 v=77
432483 On ch=2 n=a7 v=77
432491 On ch=2 n=c7 v=77
432515 On ch=2 n=a7 v=0
432518 On ch=2 n=c8 v=0
432523 On ch=2 n=a6 v=0
432533 On ch=2 n=c7 v=0
432541 On ch=2 n=c6 v=0
432651 On ch=2 n=g5 v=80
432653 On ch=2 n=g7 v=80
432653 On ch=2 n=b7 v=80
432663 On ch=2 n=b6 v=80
432695 On ch=2 n=g7 v=0
432698 On ch=2 n=b7 v=0
432705 On ch=2 n=b6 v=0
432711 On ch=2 n=g5 v=0
432808 On ch=2 n=g7 v=82
432818 On ch=2 n=b7 v=82
432826 On ch=2 n=b6 v=82
432833 On ch=2 n=g6 v=82
432836 On ch=2 n=b5 v=83
432848 On ch=2 n=g7 v=0
432860 On ch=2 n=b7 v=0
432868 On ch=2 n=b6 v=0
432878 On ch=2 n=b5 v=0
432878 On ch=2 n=g6 v=0
432991 On ch=2 n=f7 v=85
432993 On ch=2 n=a7 v=85
433001 On ch=2 n=a6 v=85
433018 On ch=1 n=f5 v=57
433033 On ch=2 n=f7 v=0
433035 On ch=2 n=a7 v=0
433043 On ch=2 n=a6 v=0
433088 On ch=1 n=f5 v=0
433128 On ch=2 n=a6 v=85
433131 On ch=2 n=f6 v=85
433131 On ch=2 n=f7 v=85
433131 On ch=2 n=a7 v=85
433138 On ch=2 n=a5 v=84
433173 On ch=2 n=a7 v=0
433178 On ch=2 n=a5 v=0
433181 On ch=2 n=f7 v=0
433181 On ch=2 n=f6 v=0
433183 On ch=2 n=a6 v=0
433278 On ch=1 n=c#5 v=53
433296 On ch=2 n=a5 v=96
433308 On ch=2 n=g7 v=98
433311 On ch=2 n=e7 v=99
433318 On ch=2 n=g6 v=100
433358 On ch=1 n=c#5 v=0
433368 On ch=2 n=e6 v=108
433370 On ch=2 n=g6 v=0
433371 On ch=2 n=e7 v=0
433373 On ch=2 n=g7 v=0
433498 On ch=2 n=e6 v=0
433516 On ch=2 n=a5 v=0
433656 On ch=1 n=d5 v=56
433668 On ch=2 n=d7 v=62
433678 On ch=2 n=f7 v=62
433678 On ch=2 n=f6 v=62
433710 On ch=2 n=d7 v=0
433720 On ch=2 n=f7 v=0
433728 On ch=2 n=f6 v=0
433748 On ch=1 n=d5 v=0
433866 Par ch=1 c=64 v=127
433866 Par ch=2 c=64 v=127
433883 On ch=2 n=f7 v=65
433886 On ch=2 n=d7 v=65
433903 On ch=2 n=f6 v=65
433906 On ch=2 n=d6 v=65
433968 On ch=2 n=d7 v=0
433975 On ch=2 n=f6 v=0
433986 On ch=2 n=d6 v=0
434093 On ch=2 n=a5 v=68
434098 On ch=2 n=f7 v=0
434163 On ch=2 n=a5 v=0
434166 On ch=2 n=e7 v=70
434203 On ch=2 n=f6 v=70
434213 On ch=2 n=d6 v=70
434236 On ch=2 n=f7 v=71
434238 On ch=2 n=e7 v=0
434255 On ch=2 n=f6 v=0
434265 On ch=2 n=d6 v=0
434308 On ch=2 n=f7 v=0
434316 On ch=2 n=g7 v=72
434326 Par ch=1 c=64 v=0
434326 Par ch=2 c=64 v=0
434388 On ch=2 n=g7 v=0
434406 On ch=2 n=a7 v=73
434421 On ch=1 n=d5 v=55
434483 On ch=2 n=g7 v=73
434498 On ch=2 n=a7 v=0
434513 On ch=1 n=d5 v=0
434553 On ch=2 n=g7 v=0
434553 On ch=2 n=d6 v=72
434561 On ch=2 n=f6 v=72
434571 On ch=2 n=f7 v=72
434623 On ch=2 n=f6 v=0
434623 On ch=2 n=d6 v=0
434623 On ch=2 n=a7 v=71
434626 On ch=2 n=f7 v=0
434681 On ch=2 n=g7 v=70
434703 On ch=2 n=a7 v=0
434713 On ch=2 n=g5 v=69
434753 On ch=2 n=f7 v=68
434793 On ch=2 n=g5 v=0
434798 On ch=2 n=g7 v=0
434828 On ch=2 n=f7 v=0
434863 On ch=2 n=a#5 v=67
434873 On ch=2 n=e7 v=67
434883 On ch=2 n=e6 v=67
434915 On ch=2 n=a#5 v=0
434923 On ch=2 n=e6 v=0
434948 On ch=2 n=e7 v=0
434953 On ch=2 n=g7 v=67
435013 On ch=2 n=f7 v=68
435033 On ch=2 n=a5 v=68
435068 On ch=2 n=g7 v=0
435103 On ch=2 n=e7 v=69
435108 On ch=2 n=f7 v=0
435113 Par ch=1 c=64 v=127
435113 Par ch=2 c=64 v=127
435145 On ch=2 n=a5 v=0
435153 On ch=2 n=d6 v=70
435153 On ch=2 n=f6 v=70
435168 On ch=2 n=e7 v=0
435185 On ch=2 n=d7 v=70
435208 On ch=2 n=d6 v=0
435218 On ch=2 n=f6 v=0
435235 On ch=2 n=f7 v=72
435237 On ch=2 n=d7 v=0
435288 On ch=2 n=e7 v=70
435305 On ch=2 n=a5 v=70
435330 On ch=2 n=f7 v=0
435338 On ch=2 n=d7 v=70
435363 On ch=2 n=e7 v=0
435368 On ch=2 n=e6 v=69
435368 On ch=2 n=g6 v=69
435383 On ch=2 n=d7 v=0
435408 On ch=2 n=g6 v=0
435410 On ch=2 n=e6 v=0
435428 On ch=2 n=c#7 v=68
435470 On ch=2 n=e7 v=68
435480 On ch=2 n=c#7 v=0
435525 On ch=2 n=f6 v=67
435528 On ch=2 n=d6 v=67
435530 On ch=2 n=e7 v=0
435538 On ch=2 n=d7 v=67
435577 On ch=2 n=a5 v=0
435580 On ch=2 n=d7 v=0
435588 On ch=2 n=a6 v=66
435608 On ch=2 n=b6 v=65
435618 On ch=2 n=c#7 v=65
435630 On ch=2 n=a6 v=0
435638 On ch=2 n=d6 v=0
435647 On ch=2 n=f6 v=0
435650 On ch=2 n=b6 v=0
435660 On ch=2 n=c#7 v=0
435688 On ch=2 n=d7 v=64
435723 On ch=2 n=d7 v=0
435978 Par ch=1 c=64 v=0
435978 Par ch=2 c=64 v=0
436008 On ch=2 n=a6 v=69
436018 On ch=2 n=c6 v=69
436018 On ch=2 n=c7 v=69
436048 On ch=1 n=a4 v=58
436060 On ch=2 n=c7 v=0
436068 On ch=2 n=c6 v=0
436080 On ch=2 n=a6 v=0
436118 On ch=1 n=a4 v=0
436195 On ch=2 n=c7 v=72
436198 On ch=2 n=a6 v=72
436205 On ch=2 n=c6 v=72
436223 On ch=2 n=a5 v=72
436235 On ch=1 n=c5 v=55
436237 On ch=2 n=c7 v=0
436245 On ch=2 n=c6 v=0
436265 On ch=2 n=a5 v=0
436265 On ch=2 n=a6 v=0
436275 On ch=1 n=c5 v=0
436385 On ch=2 n=b5 v=75
436385 On ch=2 n=b6 v=75
436390 On ch=2 n=g6 v=75
436400 On ch=1 n=g4 v=52
436422 On ch=2 n=b5 v=0
436424 On ch=2 n=b6 v=0
436432 On ch=2 n=g6 v=0
436465 On ch=1 n=g4 v=0
436565 On ch=2 n=g6 v=78
436565 On ch=2 n=b6 v=78
436580 On ch=2 n=g5 v=78
436582 On ch=2 n=b5 v=78
436592 On ch=1 n=b4 v=54
436602 On ch=2 n=b6 v=0
436602 On ch=2 n=g6 v=0
436621 On ch=2 n=b5 v=0
436629 On ch=2 n=g5 v=0
436631 On ch=1 n=b4 v=0
436742 On ch=2 n=f6 v=81
436744 On ch=2 n=a6 v=81
436752 On ch=1 n=f4 v=57
436752 On ch=2 n=a5 v=81
436786 On ch=2 n=a6 v=0
436794 On ch=2 n=a5 v=0
436794 On ch=2 n=f6 v=0
436862 On ch=1 n=f4 v=0
436884 On ch=1 n=a4 v=59
436884 On ch=1 n=f5 v=59
436894 On ch=2 n=a5 v=80
436897 On ch=2 n=f6 v=80
436897 On ch=2 n=a6 v=80
436924 On ch=1 n=f5 v=0
436926 On ch=2 n=a5 v=0
436929 On ch=1 n=a4 v=0
436939 On ch=2 n=a6 v=0
436949 On ch=2 n=f6 v=0
437079 On ch=1 n=c#4 v=62
437109 On ch=1 n=a4 v=62
437127 On ch=2 n=g5 v=77
437151 On ch=1 n=c#4 v=0
437152 On ch=2 n=e6 v=77
437152 On ch=2 n=g6 v=77
437179 On ch=1 n=e5 v=63
437222 On ch=2 n=g6 v=0
437222 On ch=2 n=g5 v=0
437224 On ch=2 n=e6 v=0
437264 On ch=1 n=a4 v=0
437271 On ch=1 n=e5 v=0
437547 On ch=1 n=d4 v=69
437577 Par ch=1 c=64 v=127
437577 On ch=2 n=d6 v=79
437577 On ch=2 n=f6 v=79
437577 Par ch=2 c=64 v=127
437587 On ch=1 n=f5 v=68
437634 On ch=1 n=f5 v=0
437644 On ch=2 n=f6 v=0
437644 On ch=2 n=d6 v=0
437704 On ch=1 n=d4 v=0
437811 On ch=2 n=d6 v=83
437821 On ch=1 n=d5 v=65
437821 On ch=2 n=f6 v=83
437831 On ch=1 n=f5 v=65
437891 On ch=1 n=f5 v=0
437893 On ch=1 n=d5 v=0
437903 On ch=2 n=f6 v=0
437913 On ch=2 n=d6 v=0
438009 On ch=1 n=a4 v=62
438121 On ch=1 n=a4 v=0
438136 On ch=2 n=e6 v=88
438191 On ch=2 n=e6 v=0
438199 On ch=1 n=d5 v=62
438219 On ch=1 n=f5 v=63
438221 On ch=2 n=f6 v=89
438256 On ch=1 n=f5 v=0
438258 On ch=2 n=f6 v=0
438259 On ch=1 n=d5 v=0
438286 On ch=2 n=g6 v=90
438339 Par ch=1 c=64 v=0
438339 Par ch=2 c=64 v=0
438351 On ch=2 n=g6 v=0
438384 On ch=1 n=d4 v=65
438396 On ch=2 n=a6 v=91
438448 On ch=2 n=a6 v=0
438454 On ch=2 n=g6 v=90
438499 On ch=1 n=d4 v=0
438526 On ch=2 n=g6 v=0
438566 On ch=1 n=d5 v=63
438566 On ch=2 n=f6 v=88
438576 On ch=1 n=f5 v=63
438605 On ch=1 n=d5 v=0
438615 On ch=2 n=f6 v=0
438616 On ch=1 n=f5 v=0
438626 On ch=2 n=a6 v=87
438708 On ch=2 n=a6 v=0
438726 On ch=1 n=g4 v=61
438726 On ch=2 n=g6 v=85
438798 On ch=2 n=g6 v=0
438798 On ch=1 n=g4 v=0
438828 On ch=2 n=f6 v=84
438878 On ch=2 n=f6 v=0
438898 On ch=1 n=a#4 v=58
438901 On ch=2 n=e6 v=83
438906 On ch=1 n=e5 v=58
438933 On ch=1 n=a#4 v=0
438951 On ch=1 n=e5 v=0
438971 On ch=2 n=e6 v=0
439001 On ch=2 n=g6 v=84
439096 On ch=2 n=g6 v=0
439103 On ch=1 n=a4 v=62
439103 On ch=2 n=f6 v=86
439175 On ch=2 n=f6 v=0
439196 On ch=2 n=e6 v=87
439208 On ch=1 n=a4 v=0
439256 On ch=2 n=e6 v=0
439266 On ch=2 n=d6 v=88
439286 On ch=1 n=f5 v=63
439293 On ch=1 n=d5 v=63
439346 On ch=2 n=f6 v=88
439348 On ch=1 n=d5 v=0
439366 On ch=1 n=f5 v=0
439368 On ch=2 n=d6 v=0
439416 On ch=2 n=e6 v=87
439426 On ch=1 n=a4 v=61
439458 Par ch=1 c=64 v=127
439458 Par ch=2 c=64 v=127
439481 On ch=2 n=f6 v=0
439488 On ch=2 n=d6 v=86
439491 On ch=2 n=e6 v=0
439540 On ch=2 n=d6 v=0
439546 On ch=2 n=g5 v=85
439558 On ch=1 n=e5 v=59
439566 On ch=2 n=c#6 v=85
439590 On ch=1 n=e5 v=0
439601 On ch=1 n=a4 v=0
439608 On ch=2 n=g5 v=0
439611 On ch=2 n=c#6 v=0
439638 On ch=2 n=e6 v=85
439688 On ch=2 n=e6 v=0
439688 On ch=2 n=d6 v=86
439726 On ch=1 n=f5 v=58
439726 On ch=1 n=d5 v=58
439738 On ch=2 n=d6 v=0
439753 On ch=2 n=a5 v=87
439758 On ch=1 n=d5 v=0
439766 On ch=1 n=f5 v=0
439798 On ch=2 n=b5 v=88
439816 On ch=2 n=c#6 v=88
439818 On ch=2 n=a5 v=0
439836 On ch=1 n=a4 v=60
439840 On ch=2 n=b5 v=0
439843 On ch=2 n=g5 v=88
439846 On ch=1 n=e5 v=60
439848 On ch=2 n=d6 v=88
439858 On ch=2 n=c#6 v=0
439858 Par ch=1 c=64 v=0
439858 Par ch=2 c=64 v=0
439878 On ch=1 n=a4 v=0
439885 On ch=2 n=g5 v=0
439886 On ch=1 n=e5 v=0
439903 On ch=1 n=f5 v=58
439913 On ch=1 n=d5 v=58
439915 On ch=2 n=d6 v=0
439943 On ch=1 n=f5 v=0
439945 On ch=1 n=d5 v=0
440296 On ch=2 n=a7 v=86
440338 On ch=2 n=a7 v=0
440343 On ch=2 n=a#7 v=87
440363 On ch=2 n=c#8 v=87
440388 On ch=2 n=a#7 v=0
440398 On ch=2 n=c#8 v=0
440433 On ch=2 n=d8 v=88
440443 On ch=2 n=d7 v=88
440461 On ch=1 n=d5 v=59
440478 On ch=2 n=d8 v=0
440485 On ch=2 n=d7 v=0
440503 On ch=1 n=d5 v=0
440896 On ch=2 n=d8 v=87
440906 On ch=2 n=d6 v=87
440916 On ch=2 n=d7 v=87
440938 On ch=2 n=d8 v=0
440956 On ch=2 n=d6 v=0
440958 On ch=2 n=d7 v=0
441336 On ch=2 n=a6 v=83
441338 On ch=2 n=a7 v=83
441366 On ch=1 n=a4 v=55
441410 On ch=2 n=a7 v=0
441428 On ch=1 n=a4 v=0
441428 On ch=2 n=a6 v=0
441688 On ch=2 n=a7 v=82
441696 On ch=2 n=a5 v=82
441698 On ch=2 n=a6 v=82
441738 On ch=2 n=a6 v=0
441738 On ch=2 n=a5 v=0
441750 On ch=2 n=a7 v=0
441981 On ch=2 n=d8 v=84
442001 On ch=2 n=d7 v=85
442008 On ch=1 n=d5 v=56
442033 On ch=2 n=d8 v=0
442043 On ch=2 n=d7 v=0
442073 On ch=1 n=d5 v=0
442241 On ch=2 n=d8 v=81
442248 On ch=2 n=d6 v=81
442251 On ch=2 n=d7 v=81
442283 On ch=2 n=d8 v=0
442293 On ch=2 n=d7 v=0
442310 On ch=2 n=d6 v=0
442526 On ch=1 n=e5 v=52
442528 On ch=2 n=e7 v=99
442528 On ch=2 n=e8 v=99
442608 On ch=1 n=e5 v=0
442626 Par ch=1 c=64 v=127
442626 Par ch=2 c=64 v=127
442713 On ch=2 n=e8 v=0
442761 On ch=2 n=e6 v=100
442821 On ch=2 n=e6 v=0
442900 On ch=2 n=e7 v=0
442941 Par ch=1 c=64 v=0
442941 Par ch=2 c=64 v=0
442991 On ch=1 n=a4 v=57
442991 On ch=2 n=c8 v=97
443001 On ch=2 n=c7 v=97
443003 On ch=2 n=a7 v=97
443056 On ch=2 n=c8 v=0
443063 On ch=2 n=a7 v=0
443073 On ch=2 n=c7 v=0
443103 On ch=1 n=a4 v=0
443246 Par ch=1 c=64 v=127
443246 Par ch=2 c=64 v=127
443258 On ch=2 n=c6 v=100
443258 On ch=2 n=c7 v=100
443258 On ch=2 n=c8 v=100
443268 On ch=2 n=e6 v=100
443273 On ch=2 n=a7 v=100
443300 On ch=2 n=c6 v=0
443310 On ch=2 n=e6 v=0
443320 On ch=2 n=a7 v=0
443320 On ch=2 n=c7 v=0
443445 On ch=2 n=a5 v=103
443500 On ch=2 n=c8 v=0
443517 On ch=2 n=a5 v=0
443578 On ch=2 n=b7 v=105
443608 On ch=2 n=c6 v=105
443608 On ch=2 n=e6 v=105
443643 On ch=2 n=b7 v=0
443660 On ch=2 n=c8 v=106
443680 On ch=2 n=e6 v=0
443680 On ch=2 n=c6 v=0
443702 On ch=2 n=c8 v=0
443720 On ch=2 n=d8 v=107
443792 On ch=2 n=d8 v=0
443803 On ch=2 n=e8 v=108
443820 Par ch=1 c=64 v=0
443820 Par ch=2 c=64 v=0
443830 On ch=1 n=a4 v=55
443865 On ch=2 n=e8 v=0
443900 On ch=2 n=d8 v=107
443952 On ch=1 n=a4 v=0
443975 On ch=2 n=d8 v=0
443993 On ch=2 n=c8 v=106
444000 On ch=2 n=c6 v=105
444020 On ch=2 n=e6 v=105
444052 On ch=2 n=c6 v=0
444055 On ch=2 n=e8 v=105
444062 On ch=2 n=e6 v=0
444078 On ch=2 n=c8 v=0
444153 On ch=2 n=d8 v=103
444160 On ch=1 n=d5 v=52
444187 On ch=2 n=e8 v=0
444223 On ch=2 n=c8 v=103
444238 On ch=2 n=d8 v=0
444252 On ch=1 n=d5 v=0
444262 On ch=2 n=c8 v=0
444287 On ch=2 n=b7 v=105
444307 On ch=2 n=d6 v=105
444317 On ch=2 n=b5 v=105
444360 On ch=2 n=d8 v=106
444372 On ch=2 n=b7 v=0
444379 On ch=2 n=d6 v=0
444389 On ch=2 n=b5 v=0
444460 On ch=2 n=c8 v=105
444465 On ch=1 n=e5 v=55
444477 Par ch=1 c=64 v=127
444477 Par ch=2 c=64 v=127
444492 On ch=2 n=d8 v=0
444527 On ch=2 n=b7 v=103
444537 On ch=1 n=e5 v=0
444552 On ch=2 n=c8 v=0
444575 On ch=2 n=a5 v=103
444577 On ch=2 n=c6 v=103
444582 On ch=2 n=b7 v=0
444597 On ch=2 n=a7 v=102
444627 On ch=2 n=c6 v=0
444637 On ch=2 n=a5 v=0
444639 On ch=2 n=a7 v=0
444657 On ch=2 n=c8 v=102
444682 On ch=1 n=e5 v=56
444705 On ch=2 n=b7 v=100
444727 On ch=2 n=a7 v=100
444745 On ch=2 n=b5 v=100
444745 On ch=2 n=d6 v=100
444747 On ch=2 n=b7 v=0
444749 On ch=2 n=c8 v=0
444777 On ch=2 n=g#7 v=100
444789 On ch=2 n=a7 v=0
444825 On ch=2 n=d6 v=0
444825 On ch=2 n=c6 v=100
444837 On ch=2 n=b5 v=0
444837 On ch=2 n=b7 v=101
444839 On ch=2 n=g#7 v=0
444844 On ch=1 n=e5 v=0
444845 On ch=2 n=a5 v=101
444875 On ch=2 n=e7 v=102
444879 On ch=2 n=b7 v=0
444907 On ch=2 n=a7 v=102
444947 On ch=2 n=a5 v=0
444947 On ch=2 n=c6 v=0
444949 On ch=2 n=a7 v=0
444957 On ch=2 n=e7 v=0
445060 Par ch=1 c=64 v=0
445060 Par ch=2 c=64 v=0
445090 On ch=2 n=d8 v=105
445110 On ch=2 n=d7 v=105
445120 On ch=1 n=d5 v=52
445132 On ch=2 n=d8 v=0
445152 On ch=2 n=d7 v=0
445192 On ch=1 n=d5 v=0
445282 On ch=2 n=d8 v=103
445292 On ch=2 n=d6 v=103
445302 On ch=2 n=d7 v=103
445327 On ch=2 n=d8 v=0
445332 On ch=2 n=d6 v=0
445344 On ch=2 n=d7 v=0
445487 On ch=2 n=a7 v=101
445492 On ch=1 n=a4 v=55
445495 On ch=2 n=a6 v=101
445529 On ch=2 n=a7 v=0
445537 On ch=2 n=a6 v=0
445537 On ch=1 n=a4 v=0
445637 On ch=2 n=a7 v=103
445645 On ch=2 n=a5 v=103
445647 On ch=2 n=a6 v=103
445677 On ch=2 n=a7 v=0
445687 On ch=2 n=a5 v=0
445689 On ch=2 n=a6 v=0
445812 On ch=2 n=d8 v=106
445830 On ch=1 n=d5 v=52
445830 On ch=2 n=d7 v=107
445854 On ch=2 n=d8 v=0
445872 On ch=2 n=d7 v=0
445900 On ch=1 n=d5 v=0
445977 On ch=2 n=d6 v=104
445987 On ch=2 n=d7 v=104
445990 On ch=2 n=d8 v=104
446029 On ch=2 n=d7 v=0
446032 On ch=2 n=d8 v=0
446037 On ch=2 n=d6 v=0
446130 On ch=2 n=e7 v=102
446130 On ch=2 n=e8 v=102
446147 On ch=1 n=e5 v=53
446202 On ch=2 n=e7 v=0
446205 On ch=2 n=e8 v=0
446237 On ch=1 n=e5 v=0
446307 On ch=2 n=e6 v=101
446349 On ch=2 n=e6 v=0
446465 On ch=2 n=c7 v=103
446465 On ch=2 n=c8 v=103
446467 On ch=2 n=a7 v=103
446472 On ch=1 n=a4 v=58
446510 On ch=2 n=c8 v=0
446525 On ch=2 n=c7 v=0
446527 On ch=2 n=a7 v=0
446584 On ch=1 n=a4 v=0
446595 Par ch=1 c=64 v=127
446595 Par ch=2 c=64 v=127
446665 On ch=2 n=e6 v=105
446665 On ch=2 n=c7 v=105
446665 On ch=2 n=c8 v=105
446667 On ch=2 n=c6 v=105
446667 On ch=2 n=a7 v=105
446724 On ch=2 n=c6 v=0
446727 On ch=2 n=c7 v=0
446735 On ch=2 n=e6 v=0
446767 On ch=2 n=a7 v=0
446830 On ch=2 n=a5 v=103
446837 On ch=2 n=c8 v=0
446917 On ch=2 n=b7 v=101
446925 On ch=2 n=a5 v=0
446935 On ch=2 n=c6 v=101
446945 On ch=2 n=e6 v=101
446959 On ch=2 n=b7 v=0
446977 On ch=2 n=c8 v=100
447017 On ch=2 n=e6 v=0
447017 On ch=2 n=c6 v=0
447052 On ch=2 n=c8 v=0
447060 On ch=2 n=d8 v=102
447102 On ch=2 n=d8 v=0
447120 Par ch=1 c=64 v=0
447120 Par ch=2 c=64 v=0
447125 On ch=1 n=a4 v=55
447130 On ch=2 n=e8 v=103
447172 On ch=2 n=e8 v=0
447200 On ch=2 n=d8 v=104
447220 On ch=1 n=a4 v=0
447242 On ch=2 n=d8 v=0
447245 On ch=2 n=c6 v=104
447267 On ch=2 n=e6 v=104
447277 On ch=2 n=c8 v=104
447294 On ch=2 n=c6 v=0
447304 On ch=2 n=e6 v=0
447307 On ch=2 n=e8 v=103
447322 On ch=2 n=c8 v=0
447377 On ch=2 n=d8 v=102
447392 On ch=1 n=e5 v=52
447412 On ch=2 n=e8 v=0
447444 On ch=2 n=c8 v=101
447467 On ch=2 n=d8 v=0
447482 On ch=1 n=e5 v=0
447506 On ch=2 n=c8 v=0
447522 On ch=2 n=d6 v=100
447529 On ch=2 n=b5 v=100
447532 On ch=2 n=b7 v=100
447571 On ch=2 n=b5 v=0
447572 On ch=2 n=d6 v=0
447582 On ch=2 n=d8 v=99
447614 On ch=2 n=b7 v=0
447647 On ch=1 n=e5 v=55
447659 On ch=2 n=c8 v=98
447707 Par ch=1 c=64 v=127
447707 Par ch=2 c=64 v=127
447712 On ch=2 n=d8 v=0
447717 On ch=2 n=b7 v=97
447724 On ch=1 n=e5 v=0
447724 On ch=2 n=c6 v=97
447734 On ch=2 n=a5 v=97
447741 On ch=2 n=c8 v=0
447766 On ch=2 n=c6 v=0
447769 On ch=2 n=b7 v=0
447774 On ch=2 n=a5 v=0
447779 On ch=2 n=a7 v=98
447817 On ch=2 n=c8 v=98
447819 On ch=2 n=a7 v=0
447837 On ch=1 n=e5 v=58
447862 On ch=2 n=c8 v=0
447867 On ch=2 n=b7 v=99
447897 On ch=2 n=b5 v=100
447897 On ch=2 n=d6 v=100
447912 On ch=2 n=b7 v=0
447937 On ch=2 n=d6 v=0
447937 On ch=2 n=b5 v=0
447949 On ch=2 n=a7 v=100
447977 On ch=2 n=g#7 v=101
447981 On ch=2 n=a7 v=0
447997 On ch=2 n=b7 v=101
448014 On ch=2 n=a5 v=102
448024 On ch=2 n=g#7 v=0
448024 On ch=2 n=c6 v=102
448031 On ch=1 n=e5 v=0
448036 On ch=2 n=b7 v=0
448074 On ch=2 n=e7 v=103
448086 On ch=2 n=a7 v=103
448121 On ch=2 n=a5 v=0
448126 On ch=2 n=a7 v=0
448134 On ch=2 n=c6 v=0
448144 On ch=2 n=e7 v=0
448194 Par ch=1 c=64 v=0
448194 Par ch=2 c=64 v=0
448254 On ch=2 n=c8 v=105
448261 On ch=2 n=a5 v=105
448264 On ch=2 n=c7 v=105
448264 On ch=2 n=a7 v=105
448299 On ch=2 n=c8 v=0
448306 On ch=2 n=a7 v=0
448314 On ch=2 n=c7 v=0
448343 On ch=2 n=a5 v=0
448434 On ch=2 n=c6 v=108
448436 On ch=2 n=a7 v=108
448436 On ch=2 n=c8 v=108
448444 On ch=2 n=c7 v=108
448444 On ch=2 n=a6 v=108
448468 On ch=2 n=c8 v=0
448476 On ch=2 n=a7 v=0
448476 On ch=2 n=c6 v=0
448486 On ch=2 n=a6 v=0
448486 On ch=2 n=c7 v=0
448584 On ch=2 n=b7 v=110
448586 On ch=2 n=g7 v=111
448604 On ch=2 n=b6 v=111
448611 On ch=2 n=g5 v=111
448629 On ch=2 n=b7 v=0
448636 On ch=2 n=g7 v=0
448646 On ch=2 n=b6 v=0
448681 On ch=2 n=g5 v=0
448754 On ch=2 n=b7 v=113
448764 On ch=2 n=g7 v=113
448771 On ch=2 n=g6 v=113
448774 On ch=2 n=b6 v=113
448781 On ch=2 n=b5 v=114
448806 On ch=2 n=g7 v=0
448806 On ch=2 n=b7 v=0
448813 On ch=2 n=g6 v=0
448824 On ch=2 n=b6 v=0
448833 On ch=2 n=b5 v=0
448924 On ch=2 n=f7 v=116
448936 On ch=2 n=a7 v=116
448944 On ch=1 n=f5 v=75
448946 On ch=2 n=a6 v=117
448969 On ch=2 n=f7 v=0
448978 On ch=2 n=a7 v=0
448984 On ch=1 n=f5 v=0
448988 On ch=2 n=a6 v=0
449064 On ch=2 n=a5 v=115
449071 On ch=2 n=f7 v=115
449076 On ch=2 n=f6 v=114
449076 On ch=2 n=a6 v=114
449079 On ch=2 n=a7 v=114
449096 On ch=2 n=a5 v=0
449116 On ch=2 n=a6 v=0
449116 On ch=2 n=f6 v=0
449118 On ch=2 n=f7 v=0
449119 On ch=2 n=a7 v=0
449224 On ch=1 n=c#5 v=78
449236 On ch=2 n=g7 v=112
449246 On ch=2 n=e7 v=112
449254 On ch=2 n=a5 v=112
449254 On ch=2 n=g6 v=112
449288 On ch=2 n=e7 v=0
449288 On ch=2 n=g7 v=0
449289 On ch=2 n=g6 v=0
449294 On ch=1 n=c#5 v=0
449306 On ch=2 n=e6 v=111
449346 On ch=2 n=a5 v=0
449406 On ch=2 n=e6 v=0
449536 On ch=1 n=d5 v=73
449571 On ch=2 n=f6 v=114
449591 On ch=2 n=d7 v=115
449601 On ch=2 n=f7 v=115
449628 On ch=2 n=f6 v=0
449628 On ch=1 n=d5 v=0
449630 On ch=2 n=d7 v=0
449641 On ch=2 n=f7 v=0
449711 Par ch=1 c=64 v=127
449711 Par ch=2 c=64 v=127
449753 On ch=2 n=f6 v=117
449763 On ch=2 n=d6 v=117
449763 On ch=2 n=d7 v=117
449765 On ch=2 n=f7 v=117
449835 On ch=2 n=d6 v=0
449835 On ch=2 n=f6 v=0
449838 On ch=2 n=d7 v=0
449965 On ch=2 n=f7 v=0
449970 On ch=2 n=a5 v=113
450060 On ch=2 n=a5 v=0
450060 On ch=2 n=e7 v=112
450102 On ch=2 n=e7 v=0
450120 On ch=2 n=f7 v=113
450130 On ch=2 n=d6 v=113
450130 On ch=2 n=f6 v=113
450190 On ch=2 n=f6 v=0
450190 On ch=2 n=g7 v=114
450192 On ch=2 n=f7 v=0
450200 On ch=2 n=d6 v=0
450242 On ch=2 n=g7 v=0
450270 Par ch=1 c=64 v=0
450270 Par ch=2 c=64 v=0
450303 On ch=2 n=a7 v=116
450320 On ch=1 n=d5 v=68
450338 On ch=2 n=a7 v=0
450363 On ch=2 n=g7 v=117
450402 On ch=1 n=d5 v=0
450423 On ch=2 n=f7 v=115
450425 On ch=2 n=g7 v=0
450453 On ch=2 n=d6 v=115
450473 On ch=2 n=f6 v=115
450475 On ch=2 n=f7 v=0
450493 On ch=2 n=a7 v=114
450533 On ch=2 n=f6 v=0
450543 On ch=2 n=d6 v=0
450573 On ch=2 n=g7 v=113
450595 On ch=2 n=a7 v=0
450610 On ch=2 n=g5 v=112
450635 On ch=2 n=g7 v=0
450640 On ch=2 n=f7 v=112
450697 On ch=2 n=g5 v=0
450715 On ch=2 n=f7 v=0
450738 On ch=2 n=e7 v=113
450748 On ch=2 n=e6 v=113
450758 On ch=2 n=a#5 v=113
450783 On ch=2 n=e7 v=0
450800 On ch=2 n=a#5 v=0
450800 On ch=2 n=e6 v=0
450800 On ch=2 n=g7 v=114
450880 On ch=2 n=f7 v=115
450898 On ch=2 n=a5 v=115
450910 On ch=2 n=g7 v=0
450958 On ch=2 n=e7 v=117
450962 On ch=2 n=f7 v=0
450968 On ch=2 n=f6 v=117
450970 Par ch=1 c=64 v=127
450970 Par ch=2 c=64 v=127
450978 On ch=2 n=d6 v=117
450988 On ch=2 n=a5 v=0
450993 On ch=2 n=e7 v=0
451010 On ch=2 n=f6 v=0
451020 On ch=2 n=d6 v=0
451023 On ch=2 n=d7 v=117
451065 On ch=2 n=d7 v=0
451080 On ch=2 n=a5 v=117
451083 On ch=2 n=f7 v=117
451133 On ch=2 n=e7 v=115
451155 On ch=2 n=f7 v=0
451165 On ch=2 n=d7 v=115
451175 On ch=2 n=e7 v=0
451180 On ch=2 n=g6 v=115
451183 On ch=2 n=e6 v=115
451205 On ch=2 n=d7 v=0
451213 On ch=2 n=c#7 v=114
451223 On ch=2 n=e6 v=0
451225 On ch=2 n=g6 v=0
451255 On ch=2 n=c#7 v=0
451273 On ch=2 n=e7 v=113
451310 On ch=2 n=f6 v=113
451310 On ch=2 n=a6 v=113
451313 On ch=2 n=d6 v=113
451315 On ch=2 n=e7 v=0
451322 On ch=2 n=a5 v=0
451340 On ch=2 n=d7 v=112
451382 On ch=2 n=a6 v=0
451393 On ch=2 n=d6 v=0
451395 On ch=2 n=d7 v=0
451402 On ch=2 n=f6 v=0
451535 Par ch=1 c=64 v=0
451535 Par ch=2 c=64 v=0
451685 On ch=1 n=a4 v=59
451688 On ch=2 n=c6 v=113
451688 On ch=2 n=a6 v=113
451688 On ch=2 n=c7 v=113
451728 On ch=2 n=c6 v=0
451730 On ch=2 n=c7 v=0
451730 On ch=2 n=a6 v=0
451777 On ch=1 n=a4 v=0
451868 On ch=2 n=c6 v=112
451878 On ch=2 n=a6 v=112
451878 On ch=2 n=c7 v=112
451885 On ch=2 n=a5 v=112
451888 On ch=1 n=c5 v=56
451920 On ch=2 n=a6 v=0
451927 On ch=2 n=a5 v=0
451930 On ch=2 n=c7 v=0
451940 On ch=1 n=c5 v=0
451940 On ch=2 n=c6 v=0
452058 On ch=2 n=b5 v=109
452070 On ch=2 n=b6 v=108
452078 On ch=2 n=g6 v=108
452088 On ch=1 n=g4 v=53
452112 On ch=2 n=b6 v=0
452120 On ch=2 n=g6 v=0
452130 On ch=2 n=b5 v=0
452170 On ch=1 n=g4 v=0
452240 On ch=2 n=g6 v=107
452250 On ch=2 n=b5 v=107
452250 On ch=2 n=b6 v=107
452258 On ch=1 n=b4 v=53
452268 On ch=2 n=g5 v=108
452280 On ch=2 n=g6 v=0
452292 On ch=2 n=b6 v=0
452310 On ch=2 n=g5 v=0
452310 On ch=2 n=b5 v=0
452320 On ch=1 n=b4 v=0
452445 On ch=1 n=f4 v=56
452445 On ch=2 n=a5 v=110
452445 On ch=2 n=f6 v=110
452445 On ch=2 n=a6 v=110
452487 On ch=2 n=a5 v=0
452490 On ch=2 n=a6 v=0
452497 On ch=2 n=f6 v=0
452507 On ch=1 n=f4 v=0
452535 On ch=1 n=a4 v=56
452535 On ch=1 n=f5 v=56
452615 On ch=2 n=a5 v=109
452615 On ch=2 n=a6 v=109
452625 On ch=1 n=f5 v=0
452625 On ch=2 n=f6 v=109
452627 On ch=1 n=a4 v=0
452655 On ch=2 n=a5 v=0
452657 On ch=2 n=a6 v=0
452667 On ch=2 n=f6 v=0
452725 On ch=1 n=c#4 v=53
452742 On ch=1 n=a4 v=53
452792 On ch=2 n=g5 v=106
452797 On ch=1 n=c#4 v=0
452802 On ch=2 n=g6 v=106
452805 On ch=2 n=e6 v=106
452820 On ch=1 n=e5 v=52
452842 On ch=2 n=g5 v=0
452844 On ch=2 n=g6 v=0
452845 On ch=2 n=e6 v=0
452902 On ch=1 n=e5 v=0
452974 On ch=1 n=a4 v=0
453132 On ch=1 n=d4 v=56
453195 On ch=1 n=f5 v=55
453205 On ch=2 n=d6 v=108
453215 On ch=2 n=f6 v=108
453245 On ch=2 n=d6 v=0
453255 On ch=1 n=f5 v=0
453267 On ch=2 n=f6 v=0
453297 On ch=1 n=d4 v=0
453405 On ch=1 n=f5 v=52
453405 Par ch=1 c=64 v=127
453405 On ch=2 n=d6 v=110
453405 Par ch=2 c=64 v=127
453415 On ch=1 n=d5 v=52
453415 On ch=2 n=f6 v=110
453517 On ch=1 n=f5 v=0
453520 On ch=2 n=d6 v=0
453527 On ch=1 n=d5 v=0
453587 On ch=1 n=a4 v=52
453610 On ch=2 n=f6 v=0
453687 On ch=2 n=e6 v=105
453707 On ch=1 n=a4 v=0
453749 On ch=2 n=e6 v=0
453767 On ch=2 n=f6 v=104
453777 On ch=1 n=d5 v=53
453787 On ch=1 n=f5 v=53
453839 On ch=2 n=f6 v=0
453857 On ch=1 n=f5 v=0
453857 On ch=1 n=d5 v=0
453857 On ch=2 n=g6 v=105
453877 Par ch=1 c=64 v=0
453877 Par ch=2 c=64 v=0
453889 On ch=2 n=g6 v=0
453952 On ch=1 n=d4 v=55
453952 On ch=2 n=a6 v=107
454017 On ch=2 n=a6 v=0
454020 On ch=2 n=g6 v=107
454084 On ch=1 n=d4 v=0
454095 On ch=2 n=g6 v=0
454112 On ch=2 n=f6 v=105
454127 On ch=1 n=f5 v=53
454130 On ch=1 n=d5 v=53
454179 On ch=2 n=f6 v=0
454197 On ch=2 n=a6 v=103
454217 On ch=1 n=d5 v=0
454224 On ch=1 n=f5 v=0
454265 On ch=1 n=g4 v=52
454285 On ch=2 n=g6 v=102
454297 On ch=2 n=a6 v=0
454355 On ch=2 n=f6 v=103
454387 On ch=2 n=g6 v=0
454417 On ch=1 n=g4 v=0
454435 On ch=1 n=a#4 v=52
454435 On ch=1 n=e5 v=52
454447 On ch=2 n=f6 v=0
454477 On ch=2 n=e6 v=105
454497 On ch=1 n=a#4 v=0
454517 On ch=1 n=e5 v=0
454557 On ch=2 n=e6 v=0
454557 On ch=2 n=g6 v=105
454625 On ch=1 n=a4 v=55
454647 On ch=2 n=f6 v=103
454667 On ch=2 n=g6 v=0
454727 On ch=2 n=f6 v=0
454757 On ch=2 n=e6 v=102
454760 On ch=1 n=a4 v=0
454785 On ch=1 n=d5 v=58
454785 On ch=1 n=f5 v=58
454829 On ch=2 n=e6 v=0
454847 On ch=2 n=d6 v=101
454867 On ch=1 n=d5 v=0
454875 On ch=1 n=f5 v=0
454925 On ch=2 n=f6 v=102
454935 On ch=1 n=a4 v=57
454937 On ch=2 n=d6 v=0
454937 Par ch=1 c=64 v=127
454937 Par ch=2 c=64 v=127
454995 On ch=2 n=e6 v=103
455007 On ch=2 n=f6 v=0
455035 On ch=2 n=d6 v=104
455055 On ch=1 n=e5 v=55
455055 On ch=2 n=g5 v=105
455077 On ch=2 n=d6 v=0
455077 On ch=2 n=e6 v=0
455105 On ch=2 n=c#6 v=105
455125 On ch=2 n=g5 v=0
455125 On ch=1 n=e5 v=0
455157 On ch=2 n=c#6 v=0
455157 On ch=2 n=e6 v=106
455199 On ch=2 n=e6 v=0
455217 On ch=1 n=d5 v=52
455227 On ch=2 n=d6 v=107
455257 On ch=1 n=f5 v=52
455257 On ch=2 n=a5 v=108
455269 On ch=2 n=d6 v=0
455280 On ch=1 n=a4 v=0
455297 On ch=2 n=a5 v=0
455307 On ch=2 n=b5 v=108
455327 On ch=2 n=c#6 v=108
455347 On ch=1 n=f5 v=0
455349 On ch=2 n=b5 v=0
455349 On ch=1 n=d5 v=0
455360 Par ch=1 c=64 v=0
455360 Par ch=2 c=64 v=0
455379 On ch=2 n=c#6 v=0
455387 On ch=2 n=d6 v=108
455439 On ch=2 n=d6 v=0
456497 On ch=2 n=a5 v=98
456507 On ch=1 n=a3 v=58
456510 Par ch=1 c=64 v=127
456510 Par ch=2 c=64 v=127
456639 On ch=1 n=a3 v=0
456639 On ch=2 n=a5 v=0
456817 Par ch=1 c=67 v=0
456817 Par ch=2 c=67 v=0
457037 On ch=1 n=a4 v=52
457047 On ch=1 n=c5 v=52
457064 On ch=2 n=a5 v=107
457244 On ch=1 n=c5 v=0
457244 On ch=1 n=a4 v=0
457264 On ch=1 n=e4 v=55
457417 Par ch=1 c=67 v=127
457417 Par ch=2 c=67 v=127
457419 On ch=1 n=e4 v=0
457499 On ch=2 n=b5 v=102
457507 On ch=1 n=a4 v=53
457519 On ch=1 n=c5 v=53
457569 On ch=1 n=a4 v=0
457571 On ch=1 n=c5 v=0
457579 Par ch=1 c=64 v=0
457579 Par ch=2 c=64 v=0
457589 On ch=2 n=a5 v=0
457601 On ch=2 n=b5 v=0
457609 On ch=2 n=d6 v=104
457661 On ch=2 n=d6 v=0
457669 On ch=2 n=c6 v=118
457679 On ch=1 n=a3 v=55
457841 On ch=1 n=a3 v=0
457859 On ch=1 n=a4 v=53
457859 On ch=1 n=c5 v=53
457941 On ch=1 n=a4 v=0
457951 On ch=1 n=c5 v=0
458052 On ch=1 n=e4 v=52
458062 On ch=2 n=b5 v=116
458124 On ch=2 n=c6 v=0
458174 On ch=1 n=e4 v=0
458252 On ch=1 n=g#4 v=55
458254 On ch=1 n=d5 v=55
458357 On ch=1 n=g#4 v=0
458366 On ch=1 n=d5 v=0
458487 On ch=2 n=b5 v=0
458502 On ch=1 n=a3 v=57
458504 On ch=2 n=e6 v=115
458534 On ch=2 n=e6 v=0
458627 On ch=1 n=a3 v=0
458774 On ch=2 n=e6 v=120
458784 On ch=1 n=a4 v=52
458784 On ch=1 n=c5 v=52
458856 On ch=1 n=a4 v=0
458863 On ch=2 n=e6 v=0
458866 On ch=1 n=c5 v=0
459061 On ch=1 n=e4 v=52
459061 On ch=2 n=d#6 v=122
459081 Par ch=1 c=64 v=127
459081 Par ch=2 c=64 v=127
459191 On ch=1 n=e4 v=0
459259 On ch=1 n=a4 v=55
459269 On ch=1 n=c5 v=55
459351 On ch=1 n=c5 v=0
459351 On ch=1 n=a4 v=0
459444 Par ch=1 c=64 v=0
459444 Par ch=2 c=64 v=0
459461 On ch=1 n=a4 v=57
459461 On ch=1 n=a3 v=57
459461 On ch=2 n=a5 v=118
459466 On ch=2 n=d#6 v=0
459503 On ch=2 n=a5 v=0
459563 On ch=1 n=a4 v=0
459573 On ch=1 n=a3 v=0
459699 On ch=2 n=a5 v=122
459711 On ch=1 n=a4 v=53
459711 On ch=1 n=c5 v=53
459743 On ch=1 n=a4 v=0
459763 On ch=1 n=c5 v=0
459844 On ch=1 n=e4 v=52
459966 On ch=1 n=e4 v=0
460014 On ch=1 n=a4 v=54
460016 On ch=2 n=a5 v=0
460016 On ch=1 n=c5 v=54
460024 On ch=2 n=b5 v=121
460089 On ch=1 n=a4 v=0
460098 On ch=1 n=c5 v=0
460109 On ch=2 n=b5 v=0
460146 On ch=2 n=d6 v=125
460176 On ch=2 n=c6 v=127
460196 On ch=1 n=f#4 v=55
460218 On ch=2 n=d6 v=0
460308 On ch=1 n=f#4 v=0
460334 On ch=1 n=a4 v=53
460344 On ch=1 n=d5 v=53
460396 On ch=1 n=a4 v=0
460404 On ch=1 n=d5 v=0
460499 On ch=2 n=b5 v=122
460516 On ch=1 n=g4 v=52
460588 On ch=2 n=c6 v=0
460628 On ch=1 n=g4 v=0
460674 On ch=1 n=d5 v=54
460684 On ch=1 n=b4 v=55
460716 On ch=1 n=b4 v=0
460716 On ch=1 n=d5 v=0
460734 Par ch=1 c=67 v=0
460734 Par ch=2 c=67 v=0
460761 On ch=2 n=a5 v=121
460766 On ch=2 n=b5 v=0
460794 On ch=1 n=d4 v=56
460806 On ch=2 n=a5 v=0
460844 On ch=2 n=g5 v=123
460894 On ch=1 n=d5 v=54
460904 On ch=1 n=c5 v=54
460914 On ch=2 n=g5 v=0
460934 On ch=1 n=f#5 v=53
460971 On ch=2 n=a5 v=125
460974 On ch=1 n=f#5 v=0
460976 On ch=1 n=d4 v=0
461016 On ch=1 n=d5 v=0
461033 On ch=2 n=a5 v=0
461051 On ch=1 n=g4 v=52
461051 On ch=1 n=b4 v=52
461061 On ch=2 n=g5 v=127
461123 On ch=1 n=b4 v=0
461123 On ch=1 n=c5 v=0
461130 On ch=1 n=g4 v=0
461218 On ch=2 n=g5 v=0
461368 On ch=2 n=d6 v=88
461378 On ch=1 n=d4 v=55
461453 On ch=2 n=d6 v=0
461515 On ch=1 n=d4 v=0
461541 Par ch=1 c=67 v=127
461541 Par ch=2 c=67 v=127
461573 Par ch=1 c=64 v=127
461573 Par ch=2 c=64 v=127
461623 On ch=1 n=f5 v=52
461633 On ch=2 n=d6 v=91
461643 On ch=1 n=d5 v=52
461670 On ch=1 n=f5 v=0
461675 On ch=1 n=d5 v=0
461781 On ch=1 n=a4 v=52
461856 On ch=1 n=a4 v=0
461926 On ch=1 n=f5 v=54
461933 On ch=1 n=d5 v=54
461936 On ch=2 n=e6 v=87
461976 On ch=1 n=f5 v=0
461978 On ch=1 n=d5 v=0
461978 On ch=2 n=d6 v=0
462038 On ch=2 n=e6 v=0
462046 On ch=2 n=g6 v=88
462078 Par ch=1 c=64 v=0
462078 Par ch=2 c=64 v=0
462086 On ch=1 n=d4 v=55
462086 On ch=2 n=f6 v=97
462118 On ch=2 n=g6 v=0
462208 On ch=1 n=d4 v=0
462253 On ch=1 n=f5 v=53
462276 On ch=1 n=d5 v=52
462325 On ch=1 n=f5 v=0
462335 On ch=1 n=d5 v=0
462425 On ch=1 n=a4 v=52
462448 On ch=2 n=e6 v=103
462468 On ch=2 n=f6 v=0
462510 On ch=1 n=a4 v=0
462618 On ch=1 n=c#5 v=55
462618 On ch=2 n=g5 v=100
462660 On ch=2 n=g5 v=0
462660 On ch=1 n=c#5 v=0
462758 On ch=2 n=e6 v=0
462800 On ch=1 n=d4 v=57
462803 On ch=2 n=a6 v=100
462843 On ch=2 n=a6 v=0
462942 On ch=1 n=d4 v=0
463033 On ch=2 n=a6 v=103
463060 On ch=1 n=d5 v=53
463060 On ch=1 n=f5 v=53
463103 On ch=2 n=a6 v=0
463122 On ch=1 n=f5 v=0
463125 On ch=1 n=d5 v=0
463330 On ch=1 n=a#4 v=53
463355 Par ch=1 c=64 v=127
463355 Par ch=2 c=64 v=127
463360 On ch=2 n=g#6 v=106
463392 On ch=1 n=a#4 v=0
463523 On ch=1 n=d5 v=56
463533 On ch=1 n=f5 v=56
463583 On ch=1 n=f5 v=0
463585 On ch=1 n=d5 v=0
463685 On ch=2 n=d6 v=102
463695 On ch=1 n=d4 v=57
463707 On ch=2 n=g#6 v=0
463708 Par ch=1 c=64 v=0
463708 Par ch=2 c=64 v=0
463727 On ch=2 n=d6 v=0
463817 On ch=1 n=d4 v=0
463908 On ch=1 n=f5 v=53
463915 On ch=1 n=d5 v=53
463915 On ch=2 n=d6 v=106
463965 On ch=1 n=f5 v=0
463967 On ch=1 n=d5 v=0
464078 On ch=1 n=a4 v=52
464130 On ch=1 n=a4 v=0
464240 On ch=2 n=d6 v=0
464250 On ch=2 n=e6 v=104
464258 On ch=1 n=d5 v=53
464258 On ch=1 n=f5 v=53
464308 On ch=1 n=f5 v=0
464310 On ch=1 n=d5 v=0
464310 On ch=2 n=e6 v=0
464348 On ch=2 n=g6 v=107
464388 On ch=2 n=f6 v=116
464398 On ch=1 n=b4 v=55
464440 On ch=2 n=g6 v=0
464523 On ch=1 n=b4 v=0
464560 On ch=2 n=g5 v=123
464580 On ch=1 n=d5 v=53
464610 On ch=2 n=g5 v=0
464612 On ch=1 n=d5 v=0
464723 On ch=2 n=e6 v=120
464750 On ch=1 n=c5 v=52
464760 On ch=2 n=f6 v=0
464832 Par ch=1 c=64 v=127
464832 Par ch=2 c=64 v=127
464880 On ch=2 n=g5 v=120
464890 On ch=1 n=e5 v=55
464890 Par ch=1 c=67 v=0
464890 Par ch=2 c=67 v=0
464904 On ch=1 n=c5 v=0
464920 On ch=2 n=g5 v=0
464922 On ch=1 n=e5 v=0
464932 On ch=2 n=e6 v=0
464962 On ch=2 n=d6 v=121
464990 On ch=1 n=g4 v=56
465030 On ch=2 n=c6 v=122
465032 On ch=2 n=d6 v=0
465072 On ch=1 n=f5 v=54
465072 On ch=1 n=d5 v=54
465109 On ch=1 n=f5 v=0
465119 On ch=2 n=c6 v=0
465127 On ch=2 n=b5 v=123
465139 On ch=1 n=d5 v=0
465179 On ch=2 n=b5 v=0
465189 On ch=2 n=d6 v=123
465199 Par ch=1 c=64 v=0
465199 Par ch=2 c=64 v=0
465209 On ch=1 n=g4 v=0
465227 On ch=1 n=c5 v=52
465237 On ch=1 n=e5 v=52
465237 On ch=2 n=c6 v=123
465239 On ch=2 n=d6 v=0
465269 On ch=1 n=c5 v=0
465279 On ch=1 n=e5 v=0
465329 On ch=2 n=c6 v=0
465584 On ch=1 n=a3 v=56
465584 On ch=2 n=a5 v=120
465587 On ch=2 n=a6 v=120
465609 Par ch=1 c=64 v=127
465609 Par ch=2 c=64 v=127
465624 On ch=2 n=a5 v=0
465627 On ch=2 n=a6 v=0
465699 On ch=1 n=a3 v=0
465817 On ch=2 n=a5 v=127
465837 On ch=1 n=e5 v=60
465839 On ch=2 n=a6 v=127
465847 On ch=1 n=c5 v=60
465887 On ch=1 n=e5 v=0
465909 On ch=1 n=c5 v=0
465989 On ch=1 n=e4 v=62
465999 On ch=2 n=a5 v=0
466019 On ch=2 n=a6 v=0
466111 On ch=1 n=e4 v=0
466152 On ch=2 n=b6 v=89
466159 On ch=1 n=e5 v=65
466162 On ch=1 n=c5 v=65
466162 On ch=2 n=b5 v=89
466192 On ch=1 n=c5 v=0
466194 On ch=2 n=b6 v=0
466197 Par ch=1 c=67 v=127
466197 Par ch=2 c=67 v=127
466202 On ch=2 n=b5 v=0
466209 On ch=1 n=e5 v=0
466212 Par ch=1 c=64 v=0
466212 Par ch=2 c=64 v=0
466304 On ch=2 n=d7 v=103
466322 On ch=2 n=c6 v=107
466332 On ch=2 n=c7 v=109
466336 On ch=2 n=d7 v=0
466359 On ch=1 n=a3 v=68
466484 On ch=1 n=a3 v=0
466512 On ch=1 n=e5 v=65
466512 On ch=1 n=c5 v=65
466574 On ch=1 n=c5 v=0
466574 On ch=2 n=c7 v=0
466584 On ch=2 n=c6 v=0
466594 On ch=1 n=e5 v=0
466674 On ch=2 n=b6 v=112
466684 On ch=1 n=e4 v=62
466694 On ch=2 n=b5 v=111
466834 On ch=1 n=e4 v=0
466861 On ch=2 n=b5 v=0
466869 On ch=1 n=g#4 v=63
466879 On ch=1 n=d5 v=63
466949 On ch=1 n=d5 v=0
466949 On ch=1 n=g#4 v=0
467066 On ch=2 n=b6 v=0
467112 On ch=2 n=e7 v=109
467119 On ch=1 n=a3 v=66
467129 On ch=2 n=e6 v=110
467141 On ch=2 n=e7 v=0
467166 On ch=2 n=e6 v=0
467248 On ch=1 n=a3 v=0
467416 On ch=2 n=e7 v=114
467424 On ch=1 n=e5 v=61
467434 On ch=1 n=c5 v=61
467436 On ch=2 n=e6 v=114
467501 On ch=2 n=e7 v=0
467506 On ch=1 n=e5 v=0
467509 On ch=1 n=c5 v=0
467518 On ch=2 n=e6 v=0
467736 On ch=1 n=e4 v=58
467789 On ch=2 n=d#6 v=127
467789 On ch=2 n=d#7 v=127
467839 Par ch=1 c=64 v=127
467839 Par ch=2 c=64 v=127
467961 On ch=1 n=e4 v=0
467969 On ch=1 n=e5 v=62
467979 On ch=1 n=c5 v=62
468004 On ch=2 n=d#7 v=0
468021 On ch=1 n=e5 v=0
468114 On ch=1 n=c5 v=0
468154 On ch=2 n=d#6 v=0
468181 On ch=2 n=a6 v=76
468184 Par ch=1 c=64 v=0
468184 Par ch=2 c=64 v=0
468189 On ch=2 n=a5 v=76
468199 On ch=1 n=a3 v=66
468243 On ch=2 n=a6 v=0
468251 On ch=2 n=a5 v=0
468321 On ch=1 n=a3 v=0
468404 On ch=2 n=a6 v=79
468411 On ch=1 n=c5 v=69
468421 On ch=1 n=e5 v=69
468421 On ch=2 n=a5 v=80
468463 On ch=1 n=e5 v=0
468463 On ch=1 n=c5 v=0
468583 On ch=2 n=a5 v=0
468594 On ch=1 n=e4 v=72
468606 On ch=2 n=a6 v=0
468661 Par ch=1 c=67 v=0
468661 Par ch=2 c=67 v=0
468676 On ch=1 n=e4 v=0
468734 On ch=2 n=b5 v=75
468736 On ch=2 n=b6 v=75
468741 On ch=1 n=e5 v=74
468751 On ch=1 n=c5 v=75
468785 On ch=2 n=b6 v=0
468793 On ch=2 n=b5 v=0
468810 On ch=1 n=e5 v=0
468813 On ch=1 n=c5 v=0
468901 On ch=2 n=c7 v=91
468931 On ch=2 n=c6 v=97
468941 On ch=1 n=f#4 v=78
468943 On ch=2 n=b6 v=100
469016 On ch=2 n=c7 v=0
469026 On ch=1 n=f#4 v=0
469078 On ch=2 n=b6 v=0
469096 On ch=2 n=c6 v=0
469106 On ch=1 n=a4 v=80
469106 On ch=1 n=d5 v=80
469138 On ch=1 n=a4 v=0
469158 On ch=1 n=d5 v=0
469243 On ch=1 n=g4 v=78
469268 On ch=2 n=b5 v=99
469268 On ch=2 n=b6 v=99
469388 On ch=2 n=b5 v=0
469398 On ch=2 n=b6 v=0
469413 On ch=1 n=b4 v=75
469413 On ch=1 n=d5 v=75
469435 On ch=1 n=g4 v=0
469445 On ch=1 n=d5 v=0
469455 On ch=1 n=b4 v=0
469563 On ch=1 n=d4 v=78
469563 On ch=2 n=a5 v=100
469573 On ch=2 n=a6 v=100
469620 On ch=2 n=g6 v=100
469655 On ch=2 n=a6 v=0
469662 On ch=2 n=g6 v=0
469672 On ch=2 n=a5 v=0
469683 On ch=1 n=c5 v=77
469690 On ch=1 n=d5 v=77
469700 On ch=2 n=f#6 v=102
469722 On ch=1 n=d4 v=0
469740 On ch=2 n=f#6 v=0
469750 On ch=2 n=a6 v=103
469792 On ch=2 n=a6 v=0
469792 On ch=1 n=c5 v=0
469800 On ch=1 n=g4 v=75
469800 On ch=1 n=b4 v=75
469802 On ch=1 n=d5 v=0
469810 On ch=2 n=g5 v=103
469812 On ch=2 n=g6 v=103
469852 On ch=2 n=g5 v=0
469864 On ch=2 n=g6 v=0
469885 On ch=1 n=g4 v=0
469895 On ch=1 n=b4 v=0
470142 On ch=1 n=d4 v=78
470147 On ch=2 n=d7 v=109
470152 On ch=2 n=d6 v=109
470187 On ch=2 n=d7 v=0
470194 On ch=2 n=d6 v=0
470257 Par ch=1 c=64 v=127
470257 Par ch=2 c=64 v=127
470277 On ch=1 n=d4 v=0
470330 On ch=2 n=d7 v=112
470355 On ch=1 n=f5 v=75
470365 On ch=1 n=d5 v=75
470367 On ch=2 n=d6 v=112
470415 On ch=1 n=f5 v=0
470417 On ch=1 n=d5 v=0
470509 On ch=2 n=d6 v=0
470527 On ch=1 n=a4 v=72
470532 On ch=2 n=d7 v=0
470639 On ch=1 n=a4 v=0
470680 On ch=1 n=d5 v=74
470680 On ch=1 n=f5 v=74
470680 On ch=2 n=e7 v=107
470690 On ch=2 n=e6 v=107
470710 On ch=1 n=f5 v=0
470715 On ch=2 n=e7 v=0
470720 On ch=1 n=d5 v=0
470730 On ch=2 n=e6 v=0
470820 On ch=2 n=g7 v=110
470850 On ch=1 n=d4 v=77
470867 On ch=2 n=f6 v=120
470870 On ch=2 n=f7 v=121
470927 Par ch=1 c=67 v=127
470927 Par ch=2 c=67 v=127
471002 On ch=1 n=d4 v=0
471012 On ch=2 n=g7 v=0
471017 On ch=1 n=f5 v=75
471047 On ch=1 n=d5 v=74
471082 On ch=2 n=f7 v=0
471089 On ch=1 n=d5 v=0
471099 On ch=1 n=f5 v=0
471102 On ch=2 n=f6 v=0
471102 Par ch=1 c=64 v=0
471102 Par ch=2 c=64 v=0
471220 On ch=1 n=a4 v=72
471220 On ch=2 n=e6 v=122
471222 On ch=2 n=e7 v=122
471380 On ch=2 n=g5 v=119
471390 On ch=1 n=c#5 v=75
471412 On ch=2 n=e6 v=0
471420 On ch=2 n=g5 v=0
471422 On ch=1 n=a4 v=0
471432 On ch=1 n=c#5 v=0
471484 On ch=2 n=e7 v=0
471572 On ch=2 n=a6 v=121
471572 On ch=2 n=a7 v=121
471582 On ch=1 n=d4 v=76
471614 On ch=2 n=a7 v=0
471634 On ch=2 n=a6 v=0
471762 On ch=1 n=d4 v=0
471817 On ch=1 n=f5 v=72
471817 On ch=1 n=d5 v=72
471842 On ch=2 n=a7 v=125
471850 On ch=2 n=a6 v=125
471857 On ch=1 n=f5 v=0
471859 On ch=1 n=d5 v=0
471902 On ch=2 n=a6 v=0
471904 On ch=2 n=a7 v=0
472150 On ch=1 n=a#4 v=67
472160 On ch=2 n=g#6 v=127
472162 On ch=2 n=g#7 v=127
472192 Par ch=1 c=64 v=127
472192 Par ch=2 c=64 v=127
472222 On ch=1 n=a#4 v=0
472352 On ch=1 n=d5 v=70
472352 On ch=1 n=f5 v=70
472374 On ch=2 n=g#7 v=0
472422 On ch=1 n=d5 v=0
472432 On ch=1 n=f5 v=0
472535 On ch=2 n=g#6 v=0
472555 On ch=2 n=d7 v=94
472562 On ch=1 n=d4 v=73
472562 On ch=2 n=d6 v=95
472572 Par ch=1 c=64 v=0
472572 Par ch=2 c=64 v=0
472614 On ch=2 n=d7 v=0
472644 On ch=2 n=d6 v=0
472664 On ch=1 n=d4 v=0
472782 On ch=1 n=f5 v=70
472782 On ch=2 n=d6 v=98
472784 On ch=2 n=d7 v=98
472792 On ch=1 n=d5 v=70
472832 On ch=1 n=f5 v=0
472834 On ch=1 n=d5 v=0
472964 On ch=1 n=a4 v=67
472966 On ch=2 n=d7 v=0
472967 On ch=2 n=d6 v=0
473054 On ch=1 n=a4 v=0
473132 On ch=2 n=e6 v=93
473134 On ch=2 n=e7 v=93
473142 On ch=1 n=d5 v=69
473142 On ch=1 n=f5 v=69
473176 On ch=2 n=e7 v=0
473184 On ch=2 n=e6 v=0
473194 On ch=1 n=d5 v=0
473212 On ch=1 n=f5 v=0
473252 On ch=2 n=g7 v=99
473279 Par ch=1 c=64 v=127
473279 Par ch=2 c=64 v=127
473294 On ch=2 n=g7 v=0
473309 On ch=2 n=f7 v=111
473327 On ch=1 n=b4 v=71
473329 On ch=2 n=f6 v=115
473419 On ch=1 n=b4 v=0
473439 On ch=2 n=f6 v=0
473439 On ch=2 n=f7 v=0
473472 On ch=2 n=g5 v=115
473484 On ch=1 n=d5 v=68
473516 On ch=1 n=d5 v=0
473522 On ch=2 n=g5 v=0
473599 Par ch=1 c=64 v=0
473599 Par ch=2 c=64 v=0
473629 On ch=2 n=e6 v=113
473639 On ch=2 n=e7 v=113
473657 On ch=1 n=c5 v=67
473769 On ch=1 n=c5 v=0
473819 On ch=2 n=e7 v=0
473827 On ch=1 n=e5 v=70
473827 On ch=2 n=g5 v=110
473849 On ch=2 n=e6 v=0
473867 On ch=2 n=g5 v=0
473867 On ch=1 n=e5 v=0
473977 On ch=1 n=g4 v=72
473979 Par ch=1 c=64 v=127
473979 On ch=2 n=d7 v=112
473979 Par ch=2 c=64 v=127
473987 On ch=2 n=d6 v=112
474059 On ch=2 n=d7 v=0
474059 On ch=1 n=f5 v=70
474079 On ch=1 n=d5 v=70
474097 On ch=2 n=g6 v=113
474109 On ch=2 n=d6 v=0
474139 On ch=1 n=f5 v=0
474159 On ch=2 n=a6 v=114
474199 On ch=2 n=g6 v=0
474219 On ch=2 n=b6 v=115
474252 On ch=1 n=g4 v=0
474259 On ch=1 n=c5 v=67
474259 On ch=1 n=e5 v=67
474261 On ch=2 n=b6 v=0
474269 On ch=2 n=c6 v=115
474281 On ch=1 n=d5 v=0
474289 On ch=2 n=c7 v=115
474291 On ch=2 n=a6 v=0
474299 Par ch=1 c=64 v=0
474299 Par ch=2 c=64 v=0
474319 On ch=2 n=c6 v=0
474331 On ch=2 n=c7 v=0
474339 On ch=1 n=e5 v=0
474364 On ch=1 n=c5 v=0
474834 On ch=2 n=c6 v=110
474834 On ch=2 n=c7 v=110
474837 On ch=2 n=a6 v=110
474844 On ch=1 n=a3 v=69
474909 On ch=2 n=a6 v=0
474909 On ch=2 n=c7 v=0
474916 On ch=2 n=c6 v=0
474989 On ch=1 n=a3 v=0
475117 On ch=2 n=b6 v=114
475124 On ch=2 n=g#6 v=115
475134 On ch=1 n=a4 v=74
475134 On ch=2 n=b5 v=115
475159 On ch=2 n=b6 v=0
475166 On ch=2 n=g#6 v=0
475176 On ch=2 n=b5 v=0
475176 On ch=1 n=a4 v=0
475364 On ch=2 n=c6 v=127
475371 Par ch=1 c=64 v=127
475371 Par ch=2 c=64 v=127
475381 On ch=1 n=f5 v=78
475381 On ch=2 n=a6 v=127
475384 On ch=2 n=c7 v=127
475493 On ch=1 n=f5 v=0
475546 On ch=1 n=c5 v=80
475556 On ch=2 n=c7 v=0
475556 On ch=2 n=a6 v=0
475556 On ch=2 n=c6 v=0
475621 On ch=1 n=c5 v=0
475719 Par ch=1 c=64 v=0
475719 Par ch=2 c=64 v=0
475756 On ch=1 n=a#3 v=83
475766 On ch=2 n=a#6 v=122
475769 On ch=2 n=d6 v=122
475776 On ch=2 n=d7 v=122
475809 On ch=2 n=d6 v=0
475811 On ch=2 n=d7 v=0
475821 On ch=2 n=a#6 v=0
475938 On ch=1 n=a#3 v=0
475974 On ch=1 n=g4 v=80
475984 On ch=2 n=a6 v=125
475984 On ch=2 n=c#7 v=125
476006 On ch=2 n=c#6 v=126
476029 On ch=2 n=c#7 v=0
476046 On ch=2 n=c#6 v=0
476046 On ch=2 n=a6 v=0
476056 On ch=1 n=g4 v=0
476196 On ch=2 n=a#6 v=127
476206 On ch=1 n=f5 v=78
476206 On ch=2 n=d7 v=127
476216 On ch=2 n=d6 v=127
476236 Par ch=1 c=64 v=127
476236 Par ch=2 c=64 v=127
476308 On ch=1 n=f5 v=0
476331 On ch=2 n=a#6 v=0
476333 On ch=2 n=d7 v=0
476361 On ch=2 n=d6 v=0
476398 On ch=1 n=d5 v=82
476440 On ch=1 n=d5 v=0
476561 On ch=1 n=c4 v=82
476653 Par ch=1 c=64 v=0
476653 Par ch=2 c=64 v=0
476723 On ch=2 n=a#6 v=122
476743 On ch=2 n=a#5 v=122
476743 On ch=2 n=f#6 v=122
476753 On ch=1 n=g4 v=79
476756 On ch=1 n=c4 v=0
476765 On ch=2 n=a#6 v=0
476785 On ch=2 n=f#6 v=0
476795 On ch=2 n=a#5 v=0
476825 On ch=1 n=g4 v=0
476916 On ch=2 n=a6 v=124
476916 On ch=2 n=f#6 v=124
476923 On ch=2 n=a5 v=125
476943 On ch=1 n=e5 v=79
476953 On ch=2 n=f#6 v=0
476953 On ch=2 n=a6 v=0
476962 On ch=2 n=a5 v=0
477040 Par ch=1 c=67 v=0
477040 Par ch=2 c=67 v=0
477063 On ch=1 n=c5 v=81
477070 On ch=2 n=g6 v=127
477072 On ch=1 n=e5 v=0
477073 On ch=2 n=a#5 v=127
477083 On ch=2 n=a#6 v=127
477105 On ch=2 n=g6 v=0
477125 On ch=2 n=a#5 v=0
477125 On ch=1 n=c5 v=0
477135 On ch=2 n=a#6 v=0
477230 On ch=1 n=f3 v=84
477230 Par ch=1 c=64 v=127
477230 Par ch=2 c=64 v=127
477260 On ch=2 n=a6 v=127
477260 On ch=2 n=c7 v=127
477280 On ch=2 n=c6 v=127
477332 On ch=2 n=a6 v=0
477342 On ch=2 n=c7 v=0
477352 On ch=2 n=c6 v=0
477372 On ch=1 n=f3 v=0
477460 On ch=1 n=a4 v=87
477480 On ch=2 n=b6 v=127
477490 On ch=2 n=b5 v=127
477490 On ch=2 n=g#6 v=127
477525 On ch=2 n=b6 v=0
477532 On ch=2 n=g#6 v=0
477532 On ch=2 n=b5 v=0
477590 On ch=1 n=f5 v=90
477600 On ch=2 n=c6 v=127
477610 On ch=2 n=a6 v=126
477610 On ch=2 n=c7 v=126
477680 On ch=1 n=f5 v=0
477750 On ch=1 n=c5 v=92
477752 On ch=1 n=a4 v=0
477782 On ch=2 n=c7 v=0
477782 On ch=2 n=a6 v=0
477790 On ch=2 n=c6 v=0
477822 On ch=1 n=c5 v=0
477880 Par ch=1 c=64 v=0
477880 Par ch=2 c=64 v=0
477920 On ch=1 n=a3 v=95
477940 On ch=2 n=f6 v=121
477950 On ch=2 n=a5 v=121
477950 On ch=2 n=a6 v=121
478022 On ch=2 n=a6 v=0
478022 On ch=2 n=f6 v=0
478050 On ch=2 n=a5 v=0
478050 On ch=1 n=a3 v=0
478122 On ch=2 n=e6 v=121
478130 On ch=1 n=a4 v=93
478130 On ch=2 n=g#5 v=121
478130 On ch=2 n=g#6 v=121
478162 On ch=2 n=e6 v=0
478172 On ch=2 n=g#5 v=0
478182 On ch=2 n=g#6 v=0
478205 On ch=1 n=a4 v=0
478232 Par ch=1 c=64 v=127
478232 Par ch=2 c=64 v=127
478300 On ch=1 n=f5 v=92
478300 On ch=2 n=f6 v=127
478310 On ch=2 n=a6 v=127
478310 On ch=2 n=a5 v=127
478420 On ch=1 n=f5 v=0
478440 On ch=1 n=c5 v=95
478490 On ch=2 n=a5 v=0
478492 On ch=2 n=f6 v=0
478502 On ch=2 n=a6 v=0
478532 On ch=1 n=c5 v=0
478572 Par ch=1 c=64 v=0
478572 Par ch=2 c=64 v=0
478642 On ch=1 n=b3 v=98
478652 On ch=2 n=g6 v=123
478660 On ch=2 n=g5 v=123
478662 On ch=2 n=e6 v=123
478752 On ch=2 n=g5 v=0
478754 On ch=2 n=e6 v=0
478754 On ch=2 n=g6 v=0
478827 On ch=1 n=b3 v=0
478827 Par ch=1 c=64 v=127
478827 Par ch=2 c=64 v=127
478845 On ch=1 n=g4 v=95
478855 On ch=1 n=f#5 v=94
478855 On ch=2 n=d#6 v=127
478865 On ch=2 n=f#6 v=127
478927 On ch=2 n=f#6 v=0
478927 On ch=2 n=d#6 v=0
478945 On ch=1 n=f#5 v=0
479065 On ch=1 n=e5 v=95
479065 On ch=2 n=g5 v=127
479080 On ch=2 n=e6 v=127
479087 On ch=2 n=g6 v=127
479187 On ch=1 n=e5 v=0
479217 On ch=1 n=b4 v=97
479220 On ch=1 n=g4 v=0
479250 Par ch=1 c=64 v=0
479250 Par ch=2 c=64 v=0
479259 On ch=2 n=g6 v=0
479267 On ch=2 n=g5 v=0
479270 On ch=2 n=e6 v=0
479319 On ch=1 n=b4 v=0
479360 On ch=1 n=b3 v=127
479410 On ch=2 n=d#6 v=123
479420 On ch=2 n=f#6 v=124
479440 On ch=1 n=f#5 v=125
479510 Par ch=1 c=64 v=127
479510 Par ch=2 c=64 v=127
479520 On ch=1 n=f#5 v=0
479522 On ch=2 n=f#6 v=0
479522 On ch=2 n=d#6 v=0
479607 On ch=1 n=f#4 v=123
479637 On ch=2 n=b5 v=127
479637 On ch=2 n=b6 v=127
479680 On ch=1 n=b3 v=0
479737 On ch=2 n=b6 v=0
479737 On ch=1 n=f#4 v=0
479745 Par ch=1 c=64 v=0
479745 Par ch=2 c=64 v=0
479752 On ch=1 n=d#5 v=120
479757 On ch=2 n=b5 v=0
479834 On ch=1 n=d#5 v=0
479890 On ch=2 n=b5 v=127
479915 On ch=2 n=a5 v=127
479917 On ch=1 n=f#5 v=118
479925 On ch=1 n=b4 v=118
479955 On ch=2 n=c#6 v=127
479957 On ch=2 n=a5 v=0
479997 On ch=1 n=b4 v=0
480005 On ch=2 n=d#6 v=127
480017 On ch=2 n=b5 v=0
480025 On ch=2 n=c#6 v=0
480042 On ch=1 n=f#5 v=0
480045 On ch=2 n=d#6 v=0
480050 On ch=1 n=e5 v=116
480057 On ch=2 n=g5 v=127
480067 On ch=2 n=e6 v=127
480109 On ch=2 n=e6 v=0
480127 On ch=1 n=e5 v=0
480136 On ch=2 n=g5 v=0
480197 Par ch=1 c=67 v=127
480197 Par ch=2 c=67 v=127
480219 On ch=2 n=b6 v=127
480247 On ch=2 n=b5 v=127
480257 On ch=2 n=f#6 v=127
480259 On ch=2 n=a6 v=127
480279 On ch=2 n=c#7 v=127
480289 On ch=2 n=b6 v=0
480312 On ch=2 n=d#7 v=127
480319 On ch=2 n=c#7 v=0
480329 On ch=2 n=a6 v=0
480339 On ch=2 n=f#6 v=0
480349 On ch=2 n=c7 v=126
480352 On ch=2 n=d#7 v=0
480379 On ch=2 n=e6 v=125
480399 On ch=2 n=g6 v=125
480411 On ch=2 n=c7 v=0
480422 On ch=2 n=b5 v=0
480431 On ch=2 n=e6 v=0
480441 On ch=2 n=g6 v=0
481212 On ch=2 n=a6 v=67
481222 On ch=2 n=c7 v=68
481222 On ch=2 n=c6 v=68
481229 On ch=1 n=a3 v=105
481264 On ch=2 n=c7 v=0
481274 On ch=2 n=c6 v=0
481294 On ch=2 n=a6 v=0
481374 On ch=1 n=a3 v=0
481549 On ch=1 n=a4 v=100
481549 On ch=2 n=b6 v=73
481549 On ch=2 n=b5 v=73
481559 On ch=2 n=g#6 v=73
481621 On ch=2 n=g#6 v=0
481621 On ch=2 n=b5 v=0
481631 On ch=1 n=a4 v=0
481634 On ch=2 n=b6 v=0
481852 Par ch=1 c=64 v=127
481852 Par ch=2 c=64 v=127
481872 On ch=2 n=c7 v=77
481879 On ch=2 n=a6 v=77
481889 On ch=1 n=f5 v=98
481899 On ch=2 n=c6 v=77
481969 On ch=1 n=f5 v=0
482067 On ch=1 n=c5 v=101
482086 On ch=2 n=a6 v=0
482119 On ch=2 n=c7 v=0
482129 On ch=2 n=c6 v=0
482139 On ch=1 n=c5 v=0
482229 On ch=1 n=a#3 v=102
482244 Par ch=1 c=64 v=0
482244 Par ch=2 c=64 v=0
482307 On ch=2 n=a#6 v=70
482314 On ch=2 n=d6 v=70
482324 On ch=2 n=d7 v=70
482356 On ch=2 n=a#6 v=0
482366 On ch=2 n=d7 v=0
482373 On ch=2 n=d6 v=0
482373 On ch=1 n=a#3 v=0
482504 On ch=1 n=g4 v=97
482514 On ch=2 n=c#6 v=67
482524 On ch=2 n=a6 v=67
482526 On ch=2 n=c#7 v=67
482564 On ch=2 n=c#6 v=0
482566 On ch=2 n=c#7 v=0
482566 On ch=2 n=a6 v=0
482574 On ch=1 n=g4 v=0
482696 On ch=1 n=f5 v=95
482706 On ch=2 n=a#6 v=70
482706 On ch=2 n=d7 v=70
482716 On ch=2 n=d6 v=70
482719 Par ch=1 c=64 v=127
482719 Par ch=2 c=64 v=127
482781 On ch=2 n=d7 v=0
482781 On ch=2 n=a#6 v=0
482786 On ch=1 n=f5 v=0
482801 On ch=2 n=d6 v=0
482891 On ch=1 n=d5 v=97
482951 On ch=1 n=d5 v=0
483026 Par ch=1 c=67 v=0
483026 Par ch=2 c=67 v=0
483049 On ch=1 n=c4 v=99
483134 Par ch=1 c=64 v=0
483134 Par ch=2 c=64 v=0
483191 On ch=2 n=g6 v=67
483201 On ch=2 n=a#5 v=67
483201 On ch=2 n=a#6 v=67
483218 On ch=1 n=g4 v=97
483230 On ch=2 n=g6 v=0
483240 On ch=2 n=a#6 v=0
483250 On ch=2 n=a#5 v=0
483250 On ch=1 n=c4 v=0
483300 On ch=1 n=g4 v=0
483368 On ch=1 n=e5 v=94
483368 On ch=2 n=a5 v=69
483378 On ch=2 n=f#6 v=70
483378 On ch=2 n=a6 v=70
483420 On ch=2 n=a6 v=0
483420 On ch=2 n=f#6 v=0
483438 On ch=2 n=a5 v=0
483438 On ch=1 n=e5 v=0
483488 On ch=1 n=c5 v=93
483510 On ch=2 n=a#6 v=72
483518 On ch=2 n=a#5 v=72
483518 On ch=2 n=g6 v=72
483550 On ch=2 n=a#6 v=0
483558 On ch=2 n=g6 v=0
483558 On ch=1 n=c5 v=0
483560 On ch=2 n=a#5 v=0
483683 On ch=1 n=f3 v=96
483688 On ch=2 n=a6 v=75
483698 On ch=2 n=c6 v=75
483698 On ch=2 n=c7 v=75
483700 Par ch=1 c=64 v=127
483700 Par ch=2 c=64 v=127
483758 On ch=2 n=c6 v=0
483780 On ch=2 n=a6 v=0
483790 On ch=2 n=c7 v=0
483858 On ch=1 n=f3 v=0
483868 On ch=1 n=a4 v=94
483898 On ch=2 n=b5 v=78
483908 On ch=2 n=g#6 v=78
483908 On ch=2 n=b6 v=78
483938 On ch=2 n=b5 v=0
483948 On ch=2 n=g#6 v=0
483950 On ch=2 n=b6 v=0
484018 On ch=2 n=a6 v=90
484025 On ch=2 n=c7 v=91
484035 On ch=1 n=f5 v=92
484038 On ch=2 n=c6 v=94
484135 On ch=1 n=f5 v=0
484145 On ch=1 n=c5 v=94
484197 On ch=2 n=c7 v=0
484198 On ch=2 n=c6 v=0
484200 On ch=2 n=a6 v=0
484207 On ch=1 n=c5 v=0
484208 On ch=1 n=a4 v=0
484278 Par ch=1 c=64 v=0
484278 Par ch=2 c=64 v=0
484335 On ch=2 n=a6 v=93
484343 On ch=1 n=a3 v=97
484348 On ch=2 n=f6 v=93
484355 On ch=2 n=a5 v=93
484407 On ch=2 n=a5 v=0
484408 On ch=2 n=f6 v=0
484410 On ch=2 n=a6 v=0
484480 On ch=1 n=a3 v=0
484538 On ch=2 n=g#6 v=96
484548 On ch=2 n=g#5 v=96
484558 On ch=1 n=a4 v=101
484558 On ch=2 n=e6 v=97
484620 On ch=2 n=g#5 v=0
484623 On ch=2 n=e6 v=0
484623 On ch=2 n=g#6 v=0
484633 Par ch=1 c=64 v=127
484633 Par ch=2 c=64 v=127
484730 On ch=1 n=f5 v=103
484733 On ch=2 n=f6 v=112
484748 On ch=2 n=a5 v=115
484750 On ch=2 n=a6 v=115
484820 On ch=1 n=f5 v=0
484890 On ch=1 n=c5 v=106
484905 On ch=2 n=a6 v=0
484905 On ch=2 n=f6 v=0
484923 On ch=2 n=a5 v=0
484925 On ch=1 n=a4 v=0
484925 Par ch=1 c=64 v=0
484925 Par ch=2 c=64 v=0
484985 On ch=1 n=c5 v=0
485053 On ch=1 n=b3 v=108
485073 On ch=2 n=g5 v=111
485075 On ch=2 n=e6 v=111
485095 On ch=2 n=g6 v=111
485133 On ch=2 n=g5 v=0
485135 On ch=2 n=g6 v=0
485137 On ch=2 n=e6 v=0
485155 Par ch=1 c=64 v=127
485155 Par ch=2 c=64 v=127
485175 On ch=1 n=b3 v=0
485275 On ch=2 n=f#6 v=113
485283 On ch=1 n=g4 v=112
485288 On ch=2 n=d#6 v=113
485295 On ch=1 n=f#5 v=113
485335 On ch=1 n=f#5 v=0
485337 On ch=2 n=f#6 v=0
485347 On ch=2 n=d#6 v=0
485487 On ch=2 n=e6 v=127
485495 On ch=1 n=e5 v=116
485505 On ch=2 n=g6 v=127
485505 On ch=2 n=g5 v=127
485607 On ch=1 n=e5 v=0
485645 On ch=1 n=b4 v=118
485647 Par ch=1 c=64 v=0
485647 Par ch=2 c=64 v=0
485677 On ch=2 n=g6 v=0
485677 On ch=2 n=e6 v=0
485685 On ch=2 n=g5 v=0
485687 On ch=1 n=g4 v=0
485717 On ch=1 n=b4 v=0
485815 On ch=1 n=b3 v=127
485837 On ch=2 n=f#6 v=124
485847 On ch=1 n=f#5 v=126
485857 On ch=2 n=d#6 v=124
485907 Par ch=1 c=64 v=127
485907 Par ch=2 c=64 v=127
485966 On ch=2 n=f#6 v=0
485974 On ch=1 n=f#5 v=0
485977 On ch=2 n=d#6 v=0
486042 On ch=1 n=f#4 v=123
486064 On ch=2 n=b6 v=86
486064 On ch=2 n=b5 v=86
486112 On ch=1 n=b3 v=0
486191 On ch=2 n=b6 v=0
486199 On ch=1 n=d#5 v=120
486209 On ch=1 n=f#4 v=0
486219 On ch=2 n=b5 v=0
486239 Par ch=1 c=64 v=0
486239 Par ch=2 c=64 v=0
486301 On ch=1 n=d#5 v=0
486362 On ch=2 n=b5 v=90
486394 On ch=1 n=b4 v=117
486397 On ch=2 n=a5 v=91
486399 On ch=1 n=f#5 v=117
486419 On ch=2 n=c#6 v=92
486452 On ch=2 n=d#6 v=92
486456 On ch=2 n=c#6 v=0
486466 On ch=1 n=b4 v=0
486466 On ch=2 n=b5 v=0
486476 On ch=2 n=a5 v=0
486486 On ch=2 n=d#6 v=0
486496 Par ch=1 c=64 v=127
486496 Par ch=2 c=64 v=127
486513 On ch=1 n=f#5 v=0
486514 On ch=2 n=e6 v=93
486521 On ch=1 n=e5 v=115
486524 On ch=2 n=g#5 v=93
486554 On ch=2 n=e6 v=0
486564 On ch=2 n=g#5 v=0
486593 On ch=1 n=e5 v=0
486644 On ch=2 n=b6 v=95
486651 On ch=2 n=b5 v=95
486684 On ch=2 n=a6 v=95
486686 On ch=2 n=f#6 v=95
486696 On ch=2 n=c#7 v=96
486733 On ch=2 n=d#7 v=97
486736 On ch=2 n=c#7 v=0
486736 On ch=2 n=b6 v=0
486753 On ch=2 n=a6 v=0
486771 On ch=2 n=e7 v=97
486773 On ch=2 n=f#6 v=0
486775 On ch=2 n=d#7 v=0
486791 On ch=2 n=g#6 v=97
486801 On ch=2 n=e6 v=97
486836 On ch=2 n=e7 v=0
486876 On ch=2 n=g#6 v=0
486886 On ch=2 n=e6 v=0
486886 On ch=2 n=b7 v=99
486926 On ch=2 n=a6 v=100
486926 On ch=2 n=c#8 v=100
486928 On ch=2 n=b7 v=0
486956 On ch=2 n=f#6 v=100
486958 On ch=2 n=d#8 v=100
486968 On ch=2 n=c#8 v=0
486995 On ch=2 n=f#6 v=0
486995 On ch=2 n=a6 v=0
487000 On ch=2 n=d#8 v=0
487043 On ch=2 n=e6 v=117
487048 On ch=2 n=e8 v=118
487053 On ch=2 n=g#6 v=118
487055 On ch=2 n=e7 v=119
487085 On ch=2 n=b5 v=0
487128 On ch=2 n=g#6 v=0
487138 On ch=2 n=e6 v=0
487143 On ch=2 n=e8 v=0
487160 On ch=2 n=e7 v=0
487160 Par ch=1 c=64 v=0
487160 Par ch=2 c=64 v=0
487788 On ch=1 n=e5 v=127
487998 Par ch=1 c=64 v=127
487998 Par ch=2 c=64 v=127
488085 On ch=2 n=a5 v=82
488095 On ch=1 n=e5 v=0
488125 On ch=2 n=a5 v=0
488205 On ch=2 n=a5 v=84
488245 On ch=2 n=a5 v=0
488335 On ch=2 n=a5 v=87
488365 On ch=1 n=a4 v=88
488375 On ch=1 n=e5 v=88
488377 On ch=2 n=a5 v=0
488378 On ch=1 n=c5 v=88
488455 On ch=2 n=a5 v=88
488460 Par ch=1 c=64 v=0
488460 Par ch=2 c=64 v=0
488477 On ch=1 n=a4 v=0
488488 On ch=1 n=c5 v=0
488495 On ch=1 n=e5 v=0
488497 On ch=2 n=a5 v=0
488568 On ch=2 n=a5 v=90
488608 On ch=2 n=a5 v=0
488693 On ch=2 n=a5 v=92
488733 On ch=2 n=a5 v=0
488765 On ch=2 n=b5 v=93
488785 On ch=1 n=e5 v=67
488788 On ch=2 n=g#5 v=93
488795 On ch=1 n=a4 v=62
488807 On ch=2 n=b5 v=0
488855 On ch=2 n=g#5 v=0
488895 On ch=2 n=b5 v=95
488915 On ch=1 n=e5 v=0
488937 On ch=2 n=b5 v=0
488958 On ch=2 n=c6 v=95
489000 On ch=2 n=c6 v=0
489000 On ch=1 n=a4 v=0
489080 On ch=2 n=c6 v=93
489122 On ch=2 n=c6 v=0
489203 On ch=2 n=c6 v=92
489210 On ch=2 n=a5 v=91
489213 On ch=1 n=a4 v=52
489220 On ch=1 n=e5 v=52
489245 On ch=2 n=a5 v=0
489255 On ch=2 n=c6 v=0
489315 On ch=1 n=e5 v=0
489333 On ch=2 n=c6 v=93
489345 On ch=1 n=a4 v=0
489375 On ch=2 n=c6 v=0
489393 On ch=2 n=b5 v=93
489435 On ch=2 n=b5 v=0
489535 On ch=2 n=b5 v=96
489577 On ch=2 n=b5 v=0
489643 On ch=1 n=e5 v=53
489653 On ch=2 n=g#5 v=98
489655 On ch=1 n=a4 v=53
489663 On ch=2 n=b5 v=98
489705 On ch=2 n=b5 v=0
489715 On ch=1 n=a4 v=0
489715 On ch=2 n=g#5 v=0
489715 On ch=1 n=e5 v=0
489833 On ch=2 n=e6 v=101
489875 On ch=2 n=e6 v=0
489945 On ch=2 n=e6 v=100
489995 On ch=2 n=e6 v=0
490073 On ch=1 n=a4 v=58
490073 On ch=2 n=e6 v=98
490115 On ch=2 n=e6 v=0
490123 Par ch=1 c=67 v=0
490123 Par ch=2 c=67 v=0
490130 On ch=1 n=e5 v=57
490175 On ch=1 n=a4 v=0
490180 On ch=2 n=c6 v=98
490203 On ch=2 n=e6 v=99
490245 On ch=2 n=e6 v=0
490255 On ch=2 n=c6 v=0
490283 On ch=2 n=d#6 v=100
490302 On ch=1 n=e5 v=0
490325 On ch=2 n=d#6 v=0
490403 On ch=2 n=d#6 v=98
490445 On ch=2 n=d#6 v=0
490513 On ch=2 n=d#6 v=97
490518 On ch=1 n=a4 v=57
490553 On ch=2 n=d#6 v=0
490588 On ch=1 n=e5 v=58
490590 On ch=2 n=b5 v=96
490632 On ch=2 n=b5 v=0
490633 On ch=1 n=e5 v=0
490643 On ch=1 n=a4 v=0
490743 On ch=2 n=a5 v=98
490785 On ch=2 n=a5 v=0
490855 On ch=2 n=a5 v=100
490897 On ch=2 n=a5 v=0
490975 On ch=2 n=a5 v=102
491017 On ch=2 n=a5 v=0
491058 On ch=1 n=a4 v=53
491060 On ch=1 n=c5 v=53
491068 On ch=1 n=e5 v=53
491110 On ch=1 n=e5 v=0
491112 On ch=1 n=c5 v=0
491120 On ch=1 n=a4 v=0
491120 On ch=2 n=a5 v=105
491152 On ch=2 n=a5 v=0
491278 On ch=2 n=a5 v=107
491320 On ch=2 n=a5 v=0
491340 On ch=2 n=b5 v=108
491382 On ch=2 n=b5 v=0
491393 On ch=1 n=g4 v=58
491393 On ch=1 n=c5 v=58
491400 On ch=1 n=e5 v=58
491453 On ch=1 n=g4 v=0
491455 On ch=1 n=c5 v=0
491462 On ch=1 n=e5 v=0
491483 On ch=2 n=b5 v=110
491535 On ch=2 n=b5 v=0
491553 On ch=2 n=c6 v=112
491595 On ch=2 n=c6 v=0
491713 On ch=2 n=c6 v=110
491763 On ch=2 n=c6 v=0
491773 On ch=1 n=f#4 v=55
491803 On ch=1 n=a4 v=55
491813 On ch=1 n=d5 v=55
491853 On ch=2 n=c6 v=108
491863 Par ch=1 c=64 v=127
491863 Par ch=2 c=64 v=127
491885 On ch=1 n=f#4 v=0
491895 On ch=2 n=c6 v=0
491895 On ch=1 n=d5 v=0
491895 On ch=1 n=a4 v=0
491943 On ch=2 n=b5 v=110
491968 On ch=1 n=e3 v=58
491985 On ch=2 n=b5 v=0
491988 On ch=1 n=e3 v=0
492073 On ch=2 n=b5 v=109
492115 On ch=2 n=b5 v=0
492133 On ch=1 n=g4 v=60
492143 On ch=1 n=d5 v=60
492153 On ch=1 n=b4 v=59
492183 On ch=2 n=b5 v=107
492205 On ch=1 n=d5 v=0
492205 On ch=1 n=g4 v=0
492225 On ch=1 n=b4 v=0
492233 On ch=2 n=b5 v=0
492313 Par ch=1 c=64 v=0
492313 On ch=2 n=b5 v=108
492313 Par ch=2 c=64 v=0
492350 On ch=2 n=a5 v=109
492360 On ch=2 n=b5 v=0
492389 On ch=2 n=a5 v=0
492407 On ch=2 n=g5 v=110
492450 On ch=1 n=c5 v=55
492457 On ch=2 n=g5 v=0
492467 On ch=1 n=d4 v=54
492467 On ch=1 n=f#5 v=54
492474 On ch=2 n=a5 v=111
492507 On ch=1 n=f#5 v=0
492516 On ch=2 n=a5 v=0
492519 On ch=1 n=d4 v=0
492519 On ch=1 n=c5 v=0
492562 On ch=2 n=g5 v=113
492612 On ch=2 n=a5 v=113
492614 On ch=2 n=g5 v=0
492629 On ch=2 n=b5 v=113
492632 On ch=1 n=b4 v=52
492639 On ch=1 n=g4 v=52
492649 On ch=2 n=a5 v=0
492671 On ch=1 n=b4 v=0
492678 On ch=1 n=g4 v=0
492678 On ch=2 n=b5 v=0
492696 On ch=2 n=c6 v=115
492736 On ch=2 n=d6 v=115
492738 On ch=2 n=c6 v=0
492776 On ch=2 n=d6 v=0
492864 On ch=2 n=d6 v=113
492914 On ch=2 n=d6 v=0
492981 On ch=2 n=d6 v=112
493011 On ch=1 n=f5 v=57
493011 On ch=2 n=a5 v=111
493021 On ch=1 n=d5 v=57
493031 On ch=2 n=d6 v=0
493071 On ch=1 n=f5 v=0
493083 On ch=1 n=d5 v=0
493114 On ch=2 n=d6 v=110
493154 On ch=2 n=d6 v=0
493234 On ch=2 n=d6 v=112
493286 On ch=2 n=d6 v=0
493336 On ch=2 n=a5 v=0
493379 On ch=2 n=e6 v=114
493421 On ch=2 n=e6 v=0
493426 On ch=2 n=a5 v=115
493429 On ch=2 n=c#6 v=115
493439 On ch=1 n=d5 v=52
493509 On ch=2 n=e6 v=117
493511 On ch=1 n=d5 v=0
493518 On ch=2 n=a5 v=0
493521 On ch=2 n=c#6 v=0
493551 On ch=2 n=e6 v=0
493601 On ch=2 n=f6 v=117
493643 On ch=2 n=f6 v=0
493704 On ch=2 n=f6 v=115
493754 On ch=2 n=f6 v=0
493821 On ch=2 n=f6 v=113
493873 On ch=2 n=f6 v=0
493891 On ch=2 n=a5 v=112
493901 On ch=1 n=f5 v=57
493911 On ch=1 n=d5 v=57
493939 On ch=2 n=f6 v=112
493981 On ch=1 n=d5 v=0
493991 On ch=2 n=f6 v=0
493991 On ch=1 n=f5 v=0
494001 On ch=2 n=e6 v=113
494041 On ch=2 n=e6 v=0
494139 On ch=2 n=e6 v=115
494178 On ch=2 n=a5 v=0
494181 On ch=2 n=e6 v=0
494266 On ch=1 n=d5 v=52
494269 On ch=2 n=a5 v=117
494269 On ch=2 n=c#6 v=117
494279 On ch=2 n=e6 v=117
494326 On ch=2 n=e6 v=0
494336 On ch=2 n=a5 v=0
494338 On ch=1 n=d5 v=0
494339 On ch=2 n=c#6 v=0
494389 On ch=2 n=a6 v=118
494429 On ch=2 n=a6 v=0
494506 On ch=2 n=a6 v=117
494558 On ch=2 n=a6 v=0
494656 On ch=1 n=f5 v=57
494664 On ch=1 n=d5 v=57
494664 On ch=2 n=a5 v=114
494674 On ch=2 n=a6 v=114
494704 Par ch=1 c=64 v=127
494704 Par ch=2 c=64 v=127
494706 On ch=1 n=d5 v=0
494713 On ch=1 n=f5 v=0
494719 On ch=2 n=a6 v=0
494796 On ch=2 n=g#6 v=116
494841 On ch=2 n=g#6 v=0
494966 On ch=2 n=g#6 v=118
494996 On ch=2 n=a5 v=0
495011 On ch=2 n=g#6 v=0
495086 On ch=2 n=a5 v=120
495096 On ch=2 n=g#6 v=120
495099 On ch=1 n=d5 v=52
495109 On ch=2 n=e6 v=121
495139 Par ch=1 c=64 v=0
495139 Par ch=2 c=64 v=0
495141 On ch=2 n=g#6 v=0
495148 On ch=2 n=a5 v=0
495151 On ch=2 n=e6 v=0
495161 On ch=1 n=d5 v=0
495224 On ch=2 n=d6 v=123
495274 On ch=2 n=d6 v=0
495354 On ch=2 n=d6 v=120
495396 On ch=2 n=d6 v=0
495509 On ch=2 n=d6 v=118
495524 On ch=2 n=a5 v=118
495526 On ch=1 n=d5 v=57
495526 On ch=1 n=f5 v=57
495556 On ch=2 n=d6 v=0
495566 On ch=1 n=f5 v=0
495578 On ch=1 n=d5 v=0
495626 On ch=2 n=d6 v=117
495668 On ch=2 n=d6 v=0
495771 On ch=2 n=d6 v=120
495811 On ch=2 n=d6 v=0
495819 On ch=2 n=a5 v=0
495829 On ch=2 n=e6 v=120
495871 On ch=2 n=e6 v=0
495896 On ch=2 n=a5 v=122
495906 On ch=1 n=c5 v=52
495909 On ch=1 n=f5 v=52
495949 On ch=2 n=e6 v=122
495956 On ch=2 n=a5 v=0
495966 On ch=1 n=f5 v=0
495978 On ch=1 n=c5 v=0
495986 On ch=2 n=e6 v=0
496026 On ch=2 n=f6 v=123
496066 On ch=2 n=f6 v=0
496186 On ch=2 n=f6 v=121
496228 On ch=2 n=f6 v=0
496284 On ch=1 n=b4 v=55
496286 On ch=1 n=d5 v=55
496286 On ch=2 n=g5 v=119
496329 On ch=2 n=f6 v=118
496356 On ch=1 n=d5 v=0
496359 On ch=1 n=b4 v=0
496366 On ch=2 n=g5 v=0
496369 On ch=2 n=f6 v=0
496384 Par ch=1 c=64 v=127
496384 Par ch=2 c=64 v=127
496396 On ch=2 n=e6 v=118
496436 On ch=2 n=e6 v=0
496541 On ch=2 n=e6 v=120
496551 On ch=1 n=e5 v=59
496561 On ch=2 n=g5 v=120
496564 On ch=1 n=c5 v=60
496583 On ch=2 n=e6 v=0
496631 On ch=2 n=g5 v=0
496633 On ch=1 n=e5 v=0
496636 On ch=1 n=c5 v=0
496664 On ch=2 n=e6 v=122
496704 On ch=2 n=e6 v=0
496714 On ch=2 n=d6 v=123
496754 On ch=2 n=c6 v=123
496766 On ch=2 n=d6 v=0
496784 On ch=1 n=g4 v=56
496784 Par ch=1 c=64 v=0
496784 Par ch=2 c=64 v=0
496786 On ch=1 n=f5 v=56
496806 On ch=2 n=c6 v=0
496814 On ch=2 n=b5 v=124
496853 On ch=1 n=f5 v=0
496863 On ch=1 n=g4 v=0
496863 On ch=2 n=d6 v=125
496883 On ch=2 n=b5 v=0
496903 On ch=1 n=c5 v=54
496915 On ch=2 n=d6 v=0
496926 On ch=2 n=c6 v=126
496936 On ch=1 n=e5 v=53
496986 On ch=1 n=e5 v=0
496988 On ch=1 n=c5 v=0
496998 On ch=2 n=c6 v=0
497008 On ch=2 n=d6 v=127
497038 On ch=2 n=d#6 v=127
497058 On ch=2 n=d6 v=0
497078 On ch=2 n=d#6 v=0
497108 On ch=2 n=e6 v=127
497168 On ch=2 n=e6 v=0
497241 On ch=2 n=a6 v=126
497281 On ch=2 n=a6 v=0
497351 On ch=2 n=a6 v=124
497396 On ch=2 n=a6 v=0
497433 On ch=2 n=c6 v=123
497453 On ch=2 n=e6 v=123
497453 On ch=2 n=a5 v=123
497473 On ch=2 n=a6 v=122
497513 On ch=2 n=a5 v=0
497513 On ch=2 n=e6 v=0
497513 On ch=2 n=c6 v=0
497515 On ch=2 n=a6 v=0
497636 On ch=2 n=a6 v=122
497678 On ch=2 n=a6 v=0
497776 On ch=2 n=a6 v=124
497803 On ch=2 n=b6 v=124
497826 On ch=2 n=a6 v=0
497845 On ch=2 n=b6 v=0
497893 On ch=2 n=a5 v=126
497896 On ch=2 n=d6 v=126
497896 On ch=2 n=f6 v=126
497906 On ch=2 n=b6 v=126
497958 On ch=2 n=b6 v=0
497965 On ch=2 n=a5 v=0
497976 On ch=2 n=f6 v=0
497976 On ch=2 n=d6 v=0
498006 On ch=2 n=c7 v=126
498046 On ch=2 n=c7 v=0
498143 On ch=2 n=c7 v=123
498188 On ch=2 n=c7 v=0
498273 On ch=2 n=a5 v=123
498283 On ch=2 n=c6 v=123
498283 On ch=2 n=c7 v=123
498293 On ch=2 n=e6 v=123
498323 On ch=2 n=b6 v=123
498325 On ch=2 n=c7 v=0
498343 On ch=2 n=a5 v=0
498355 On ch=2 n=e6 v=0
498355 On ch=2 n=c6 v=0
498365 On ch=2 n=b6 v=0
498466 On ch=2 n=b6 v=126
498508 On ch=2 n=b6 v=0
498576 On ch=2 n=b6 v=127
498618 On ch=2 n=b6 v=0
498626 On ch=2 n=d6 v=127
498633 On ch=2 n=g#6 v=127
498643 On ch=2 n=a5 v=127
498696 On ch=2 n=b6 v=127
498703 On ch=2 n=a5 v=0
498713 On ch=2 n=d6 v=0
498722 On ch=2 n=g#6 v=0
498733 On ch=2 n=b6 v=0
498800 On ch=2 n=e7 v=127
498842 On ch=2 n=e7 v=0
498908 On ch=2 n=e7 v=125
498953 On ch=2 n=e7 v=0
499023 On ch=2 n=c6 v=123
499023 On ch=2 n=e7 v=123
499043 On ch=2 n=e6 v=123
499043 On ch=2 n=a5 v=123
499065 On ch=2 n=e7 v=0
499105 On ch=2 n=e6 v=0
499113 On ch=2 n=c6 v=0
499123 On ch=2 n=a5 v=0
499140 On ch=2 n=e7 v=125
499175 On ch=2 n=e7 v=0
499223 On ch=2 n=d#7 v=126
499263 On ch=2 n=d#7 v=0
499288 Par ch=1 c=64 v=127
499288 Par ch=2 c=64 v=127
499360 On ch=2 n=d#7 v=127
499400 On ch=2 n=d#7 v=0
499455 On ch=2 n=c6 v=127
499463 On ch=2 n=a5 v=127
499473 On ch=2 n=f#6 v=127
499495 On ch=2 n=d#7 v=127
499535 On ch=2 n=f#6 v=0
499535 On ch=2 n=c6 v=0
499537 On ch=2 n=d#7 v=0
499545 On ch=2 n=a5 v=0
499645 On ch=2 n=a6 v=127
499655 Par ch=1 c=64 v=0
499655 Par ch=2 c=64 v=0
499694 On ch=2 n=a6 v=0
499785 On ch=2 n=a6 v=124
499827 On ch=2 n=a6 v=0
499885 On ch=2 n=c6 v=122
499885 On ch=2 n=e6 v=122
499895 On ch=2 n=a5 v=122
499905 On ch=2 n=a6 v=122
499935 On ch=2 n=a5 v=0
499937 On ch=2 n=e6 v=0
499947 On ch=2 n=a6 v=0
499947 On ch=2 n=c6 v=0
500055 On ch=2 n=a6 v=122
500097 On ch=2 n=a6 v=0
500167 On ch=2 n=a6 v=123
500217 On ch=2 n=a6 v=0
500227 On ch=2 n=b6 v=124
500257 On ch=2 n=c6 v=125
500265 On ch=2 n=g5 v=125
500267 On ch=2 n=b6 v=0
500285 On ch=2 n=e6 v=125
500325 On ch=2 n=g5 v=0
500327 On ch=2 n=e6 v=0
500327 On ch=2 n=c6 v=0
500355 On ch=2 n=b6 v=127
500407 On ch=2 n=b6 v=0
500445 On ch=2 n=c7 v=126
500485 On ch=2 n=c7 v=0
500592 On ch=2 n=c7 v=123
500637 On ch=2 n=c7 v=0
500655 Par ch=1 c=64 v=127
500655 Par ch=2 c=64 v=127
500672 On ch=1 n=f#5 v=59
500680 On ch=2 n=a5 v=122
500695 On ch=2 n=d6 v=122
500722 On ch=1 n=f#5 v=0
500725 On ch=2 n=a5 v=0
500735 On ch=2 n=c7 v=123
500745 On ch=2 n=d6 v=0
500775 On ch=2 n=b6 v=123
500777 On ch=2 n=c7 v=0
500817 On ch=2 n=b6 v=0
500925 On ch=2 n=b6 v=126
500952 On ch=2 n=b5 v=126
500955 On ch=2 n=d6 v=126
500962 On ch=2 n=g5 v=127
500967 On ch=2 n=b6 v=0
501022 On ch=2 n=g5 v=0
501024 On ch=2 n=b5 v=0
501025 On ch=2 n=d6 v=0
501047 On ch=2 n=b6 v=126
501089 On ch=2 n=b6 v=0
501107 On ch=2 n=a6 v=125
501147 On ch=1 n=d5 v=65
501147 On ch=2 n=c6 v=125
501147 On ch=2 n=g6 v=125
501149 On ch=2 n=a6 v=0
501189 On ch=2 n=g6 v=0
501189 On ch=2 n=c6 v=0
501200 On ch=2 n=f#6 v=124
501209 On ch=1 n=d5 v=0
501210 Par ch=1 c=64 v=0
501210 Par ch=2 c=64 v=0
501217 On ch=2 n=g5 v=123
501220 On ch=2 n=b5 v=123
501230 On ch=2 n=a6 v=123
501242 On ch=2 n=f#6 v=0
501272 On ch=2 n=a6 v=0
501312 On ch=2 n=g6 v=123
501322 On ch=2 n=b5 v=0
501322 On ch=2 n=g5 v=0
501354 On ch=2 n=g6 v=0
501385 On ch=2 n=a6 v=125
501427 On ch=2 n=a6 v=0
501437 On ch=2 n=b6 v=125
501482 On ch=2 n=b6 v=0
501527 On ch=2 n=c7 v=127
501569 On ch=2 n=c7 v=0
501645 On ch=2 n=d7 v=126
501677 On ch=2 n=d7 v=0
501755 On ch=2 n=d7 v=125
501795 On ch=2 n=d7 v=0
501862 On ch=2 n=d6 v=123
501862 On ch=2 n=a6 v=123
501862 On ch=2 n=d7 v=123
501862 On ch=2 n=f6 v=123
501904 On ch=2 n=d7 v=0
501942 On ch=2 n=f6 v=0
501954 On ch=2 n=a6 v=0
501962 On ch=2 n=d6 v=0
501995 On ch=2 n=d7 v=122
502037 On ch=2 n=d7 v=0
502165 On ch=2 n=d7 v=125
502200 On ch=2 n=d7 v=0
502235 On ch=2 n=e7 v=126
502265 On ch=2 n=a#6 v=127
502265 On ch=2 n=d6 v=127
502272 On ch=2 n=g6 v=127
502280 On ch=2 n=e7 v=0
502335 On ch=2 n=d6 v=0
502335 On ch=2 n=a#6 v=0
502342 On ch=2 n=g6 v=0
502352 On ch=2 n=e7 v=127
502394 On ch=2 n=e7 v=0
502422 On ch=2 n=f7 v=127
502464 On ch=2 n=f7 v=0
502572 On ch=2 n=f7 v=124
502624 On ch=2 n=f7 v=0
502669 On ch=2 n=f6 v=122
502672 On ch=2 n=d6 v=122
502682 On ch=2 n=a6 v=123
502722 On ch=2 n=f7 v=123
502741 On ch=2 n=f6 v=0
502762 On ch=2 n=a6 v=0
502762 On ch=2 n=d6 v=0
502774 On ch=2 n=f7 v=0
502832 On ch=2 n=e7 v=125
502874 On ch=2 n=e7 v=0
502984 On ch=2 n=e7 v=127
503024 On ch=2 n=e7 v=0
503062 On ch=2 n=d6 v=127
503072 On ch=2 n=g6 v=127
503092 On ch=2 n=c#7 v=127
503102 On ch=2 n=e7 v=127
503142 On ch=2 n=e7 v=0
503152 On ch=2 n=g6 v=0
503162 On ch=2 n=d6 v=0
503164 On ch=2 n=c#7 v=0
503207 On ch=2 n=a7 v=127
503249 On ch=2 n=a7 v=0
503319 On ch=2 n=a7 v=125
503361 On ch=2 n=a7 v=0
503432 On ch=2 n=a7 v=123
503449 Par ch=1 c=64 v=127
503449 Par ch=2 c=64 v=127
503457 On ch=2 n=a6 v=123
503459 On ch=2 n=d6 v=123
503467 On ch=2 n=f6 v=123
503472 On ch=2 n=a7 v=0
503519 On ch=2 n=f6 v=0
503529 On ch=2 n=a6 v=0
503539 On ch=2 n=d6 v=0
503549 On ch=2 n=a7 v=125
503591 On ch=2 n=a7 v=0
503639 On ch=2 n=g#7 v=126
503681 On ch=2 n=g#7 v=0
503779 On ch=2 n=g#7 v=123
503821 On ch=2 n=g#7 v=0
503839 On ch=2 n=f6 v=123
503841 On ch=2 n=d6 v=123
503849 On ch=2 n=a#6 v=123
503901 On ch=2 n=g#7 v=123
503921 On ch=2 n=d6 v=0
503924 On ch=2 n=a#6 v=0
503931 On ch=2 n=f6 v=0
503943 On ch=2 n=g#7 v=0
504079 On ch=2 n=d7 v=125
504081 Par ch=1 c=64 v=0
504081 Par ch=2 c=64 v=0
504124 On ch=2 n=d7 v=0
504191 On ch=2 n=d7 v=123
504233 On ch=2 n=d7 v=0
504289 On ch=2 n=d6 v=122
504296 On ch=2 n=f6 v=122
504299 On ch=2 n=a6 v=122
504309 On ch=2 n=d7 v=122
504351 On ch=2 n=d7 v=0
504361 On ch=2 n=a6 v=0
504369 On ch=2 n=d6 v=0
504371 On ch=2 n=f6 v=0
504441 On ch=2 n=d7 v=122
504483 On ch=2 n=d7 v=0
504614 On ch=2 n=d7 v=125
504656 On ch=2 n=d7 v=0
504671 On ch=2 n=c6 v=126
504671 On ch=2 n=f6 v=126
504671 On ch=2 n=e7 v=126
504681 On ch=2 n=a6 v=126
504716 On ch=2 n=e7 v=0
504751 On ch=2 n=f6 v=0
504751 On ch=2 n=c6 v=0
504753 On ch=2 n=a6 v=0
504801 On ch=2 n=e7 v=127
504846 On ch=2 n=e7 v=0
504861 On ch=2 n=f7 v=127
504906 On ch=2 n=f7 v=0
504984 On ch=2 n=f7 v=125
505026 On ch=2 n=f7 v=0
505044 On ch=2 n=d6 v=123
505059 On ch=2 n=g6 v=123
505061 On ch=2 n=b5 v=123
505094 Par ch=1 c=64 v=127
505094 Par ch=2 c=64 v=127
505104 On ch=2 n=f7 v=123
505133 On ch=2 n=b5 v=0
505134 On ch=2 n=g6 v=0
505134 On ch=2 n=d6 v=0
505156 On ch=2 n=f7 v=0
505231 On ch=2 n=f7 v=123
505276 On ch=2 n=f7 v=0
505286 On ch=2 n=e7 v=124
505301 Par ch=1 c=67 v=127
505301 Par ch=2 c=67 v=127
505328 On ch=2 n=e7 v=0
505338 On ch=2 n=c6 v=125
505363 On ch=2 n=e6 v=125
505381 On ch=2 n=g6 v=126
505413 On ch=2 n=e7 v=126
505423 On ch=2 n=c6 v=0
505443 On ch=2 n=g6 v=0
505443 On ch=2 n=e6 v=0
505453 On ch=2 n=e7 v=0
505543 On ch=2 n=e7 v=127
505548 On ch=2 n=g5 v=127
505558 On ch=2 n=d7 v=127
505575 On ch=2 n=f6 v=127
505580 On ch=2 n=e7 v=0
505600 On ch=2 n=d7 v=0
505615 On ch=2 n=c7 v=127
505627 On ch=2 n=f6 v=0
505628 Par ch=1 c=64 v=0
505628 Par ch=2 c=64 v=0
505667 On ch=2 n=c7 v=0
505670 On ch=2 n=c6 v=127
505680 On ch=2 n=b6 v=127
505687 On ch=2 n=g5 v=0
505690 On ch=2 n=e6 v=127
505720 On ch=2 n=d7 v=127
505732 On ch=2 n=b6 v=0
505742 On ch=2 n=c6 v=0
505762 On ch=2 n=d7 v=0
505762 On ch=2 n=e6 v=0
505797 On ch=2 n=c7 v=127
505839 On ch=2 n=c7 v=0
505847 On ch=2 n=b6 v=127
505889 On ch=2 n=b6 v=0
505925 On ch=2 n=c7 v=127
505967 On ch=2 n=c7 v=0
505995 On ch=2 n=b6 v=127
506030 On ch=2 n=b6 v=0
506032 On ch=2 n=a5 v=127
506042 On ch=2 n=c7 v=127
506084 On ch=2 n=c7 v=0
506141 On ch=2 n=a5 v=0
506164 On ch=2 n=c7 v=126
506174 On ch=2 n=c8 v=126
506184 On ch=2 n=a7 v=126
506194 On ch=2 n=a6 v=125
506204 On ch=2 n=c7 v=0
506204 On ch=2 n=c6 v=125
506219 On ch=2 n=c8 v=0
506229 On ch=2 n=a7 v=0
506269 On ch=2 n=a6 v=0
506276 On ch=2 n=c6 v=0
506294 On ch=2 n=c7 v=124
506336 On ch=2 n=c7 v=0
506354 On ch=2 n=b6 v=123
506362 Par ch=1 c=67 v=0
506362 Par ch=2 c=67 v=0
506396 On ch=2 n=b6 v=0
506412 On ch=2 n=g5 v=122
506484 On ch=2 n=g5 v=0
506494 On ch=2 n=b6 v=123
506539 On ch=2 n=b6 v=0
506587 On ch=2 n=b7 v=125
506594 On ch=2 n=g7 v=124
506614 On ch=2 n=b5 v=124
506624 On ch=2 n=g6 v=124
506629 On ch=2 n=b7 v=0
506639 On ch=2 n=g7 v=0
506677 On ch=2 n=b6 v=123
506686 On ch=2 n=g6 v=0
506696 On ch=2 n=b5 v=0
506719 On ch=2 n=b6 v=0
506797 On ch=2 n=a6 v=121
506827 On ch=1 n=f5 v=65
506839 On ch=2 n=a6 v=0
506927 On ch=1 n=f5 v=0
506947 On ch=2 n=a6 v=121
506989 On ch=2 n=a6 v=0
507027 On ch=2 n=f7 v=122
507047 On ch=2 n=f6 v=123
507049 On ch=2 n=a7 v=123
507072 On ch=2 n=f7 v=0
507074 On ch=2 n=a5 v=123
507089 On ch=2 n=a7 v=0
507106 On ch=2 n=a5 v=0
507127 On ch=2 n=f6 v=0
507134 On ch=2 n=a6 v=124
507176 On ch=2 n=a6 v=0
507232 On ch=1 n=c#5 v=59
507252 On ch=2 n=g6 v=123
507284 On ch=2 n=g6 v=0
507304 On ch=1 n=c#5 v=0
507314 Par ch=1 c=64 v=127
507314 Par ch=2 c=64 v=127
507377 On ch=2 n=g6 v=121
507407 On ch=2 n=g6 v=0
507437 On ch=2 n=a5 v=120
507437 On ch=2 n=g7 v=120
507447 On ch=2 n=e6 v=120
507457 On ch=2 n=e7 v=120
507477 On ch=2 n=a5 v=0
507487 On ch=2 n=e6 v=0
507499 On ch=2 n=e7 v=0
507519 On ch=2 n=g7 v=0
507577 On ch=2 n=g6 v=119
507597 On ch=1 n=d5 v=63
507612 On ch=2 n=g6 v=0
507639 On ch=2 n=f6 v=120
507691 On ch=2 n=f6 v=0
507732 On ch=1 n=d5 v=0
507784 On ch=2 n=d7 v=123
507784 On ch=2 n=f6 v=123
507794 On ch=2 n=f7 v=123
507822 On ch=2 n=a5 v=123
507824 On ch=2 n=f6 v=0
507856 On ch=2 n=d7 v=0
507864 On ch=2 n=a5 v=0
507899 On ch=2 n=f7 v=0
507939 On ch=2 n=c#7 v=125
507949 On ch=2 n=f6 v=125
507959 On ch=2 n=d6 v=125
507968 On ch=2 n=c#7 v=0
507994 On ch=2 n=d7 v=126
508001 On ch=2 n=f6 v=0
508026 On ch=2 n=d7 v=0
508036 On ch=2 n=d6 v=0
508056 On ch=2 n=e7 v=127
508098 On ch=2 n=e7 v=0
508106 On ch=2 n=f7 v=127
508114 On ch=2 n=a5 v=127
508156 On ch=2 n=a5 v=0
508176 On ch=2 n=g7 v=127
508188 On ch=2 n=f7 v=0
508199 Par ch=1 c=64 v=0
508199 Par ch=2 c=64 v=0
508218 On ch=2 n=g7 v=0
508241 On ch=2 n=a7 v=127
508246 On ch=1 n=d5 v=64
508321 On ch=1 n=d5 v=0
508349 On ch=2 n=g7 v=125
508393 On ch=2 n=a7 v=0
508419 On ch=2 n=f7 v=123
508429 On ch=2 n=d6 v=123
508446 On ch=2 n=f6 v=123
508454 On ch=2 n=g7 v=0
508519 On ch=2 n=d6 v=0
508521 On ch=2 n=f6 v=0
508521 On ch=2 n=f7 v=0
508539 On ch=2 n=a7 v=122
508576 On ch=2 n=g5 v=121
508631 On ch=2 n=g7 v=122
508641 On ch=2 n=a7 v=0
508665 On ch=2 n=g5 v=0
508696 On ch=2 n=f7 v=123
508780 On ch=2 n=g7 v=0
508788 On ch=2 n=a#5 v=124
508791 On ch=2 n=f7 v=0
508798 On ch=2 n=e6 v=124
508806 On ch=2 n=e7 v=124
508838 On ch=2 n=e6 v=0
508838 On ch=2 n=a#5 v=0
508896 On ch=2 n=g7 v=126
508918 On ch=2 n=e7 v=0
508986 On ch=2 n=a5 v=124
509013 On ch=2 n=f7 v=124
509058 On ch=2 n=g7 v=0
509093 On ch=2 n=e7 v=123
509138 On ch=2 n=f7 v=0
509143 On ch=2 n=f6 v=122
509146 On ch=2 n=d6 v=122
509153 On ch=2 n=a5 v=0
509178 On ch=2 n=e7 v=0
509196 On ch=2 n=d7 v=121
509205 On ch=2 n=f6 v=0
509226 On ch=2 n=d6 v=0
509246 On ch=2 n=f7 v=121
509253 Par ch=1 c=64 v=127
509253 Par ch=2 c=64 v=127
509258 On ch=2 n=d7 v=0
509293 On ch=2 n=a5 v=122
509313 On ch=2 n=e7 v=122
509355 On ch=2 n=e7 v=0
509363 On ch=2 n=e6 v=123
509363 On ch=2 n=d7 v=123
509371 On ch=2 n=g6 v=123
509386 On ch=2 n=f7 v=0
509418 On ch=2 n=d7 v=0
509428 On ch=2 n=c#7 v=124
509436 On ch=2 n=g6 v=0
509446 On ch=2 n=e7 v=124
509458 On ch=2 n=e6 v=0
509478 On ch=2 n=c#7 v=0
509488 On ch=2 n=e7 v=0
509505 On ch=2 n=d7 v=125
509515 On ch=2 n=f6 v=125
509525 On ch=2 n=d6 v=125
509547 On ch=2 n=d7 v=0
509565 On ch=2 n=a6 v=126
509583 On ch=2 n=b6 v=126
509595 On ch=2 n=d6 v=0
509595 On ch=2 n=f6 v=0
509602 On ch=2 n=a5 v=0
509605 On ch=2 n=a6 v=0
509625 On ch=2 n=c7 v=125
509628 On ch=2 n=b6 v=0
509633 On ch=2 n=g6 v=125
509645 On ch=2 n=e6 v=125
509667 On ch=2 n=c7 v=0
509695 On ch=2 n=g6 v=0
509695 On ch=2 n=d7 v=124
509702 On ch=2 n=e6 v=0
509735 On ch=2 n=d6 v=123
509745 On ch=2 n=f6 v=123
509755 On ch=2 n=a6 v=123
509767 On ch=2 n=d7 v=0
509785 On ch=2 n=f6 v=0
509805 On ch=2 n=d6 v=0
509837 On ch=2 n=a6 v=0
509888 On ch=2 n=f6 v=121
509910 On ch=2 n=d6 v=121
509930 On ch=2 n=f6 v=0
509970 Par ch=1 c=64 v=0
509970 Par ch=2 c=64 v=0
509982 On ch=2 n=d6 v=0
509990 On ch=2 n=c6 v=119
510010 On ch=1 n=a4 v=82
510042 On ch=2 n=c6 v=0
510112 On ch=1 n=a4 v=0
510123 On ch=2 n=c6 v=121
510165 On ch=2 n=c6 v=0
510223 On ch=2 n=a6 v=122
510223 On ch=2 n=c7 v=122
510243 On ch=2 n=a5 v=123
510255 On ch=1 n=c5 v=86
510265 On ch=2 n=a6 v=0
510275 On ch=2 n=c7 v=0
510285 On ch=2 n=a5 v=0
510295 On ch=1 n=c5 v=0
510303 On ch=2 n=c6 v=123
510355 On ch=2 n=c6 v=0
510425 On ch=2 n=b5 v=123
510448 On ch=1 n=g4 v=89
510467 On ch=2 n=b5 v=0
510508 On ch=1 n=g4 v=0
510558 On ch=2 n=b5 v=121
510598 On ch=2 n=b5 v=0
510665 On ch=2 n=g5 v=119
510668 On ch=1 n=b4 v=93
510668 On ch=2 n=b6 v=119
510685 On ch=2 n=g6 v=119
510710 On ch=2 n=b6 v=0
510710 On ch=1 n=b4 v=0
510717 On ch=2 n=g6 v=0
510717 On ch=2 n=g5 v=0
510748 On ch=2 n=b5 v=118
510798 On ch=2 n=b5 v=0
510858 On ch=1 n=f4 v=95
510868 On ch=2 n=a5 v=120
510905 On ch=2 n=a5 v=0
510938 On ch=1 n=f4 v=0
510998 On ch=2 n=a5 v=122
511038 On ch=2 n=a5 v=0
511100 On ch=1 n=f5 v=92
511108 On ch=2 n=a6 v=123
511110 On ch=1 n=a4 v=92
511110 On ch=2 n=f6 v=123
511147 On ch=1 n=f5 v=0
511157 On ch=2 n=f6 v=0
511157 On ch=2 n=a6 v=0
511177 On ch=1 n=a4 v=0
511195 On ch=2 n=a5 v=122
511235 On ch=2 n=a5 v=0
511255 On ch=1 n=c#4 v=95
511305 On ch=2 n=g5 v=120
511345 On ch=2 n=g5 v=0
511360 On ch=1 n=c#4 v=0
511442 Par ch=1 c=64 v=127
511442 Par ch=2 c=64 v=127
511442 On ch=2 n=g5 v=118
511472 On ch=1 n=e5 v=98
511475 On ch=1 n=a4 v=98
511484 On ch=2 n=g5 v=0
511525 On ch=2 n=g6 v=120
511525 On ch=2 n=e6 v=120
511544 On ch=1 n=e5 v=0
511547 On ch=1 n=a4 v=0
511567 On ch=2 n=e6 v=0
511567 On ch=2 n=g6 v=0
511645 On ch=2 n=g5 v=122
511647 On ch=1 n=d4 v=101
511687 On ch=2 n=g5 v=0
511717 On ch=1 n=f5 v=100
511759 On ch=1 n=f5 v=0
511759 On ch=1 n=d4 v=0
511850 On ch=1 n=f5 v=99
511870 On ch=1 n=a4 v=99
511880 On ch=2 n=f6 v=125
511882 On ch=2 n=d6 v=125
511890 On ch=1 n=f5 v=0
511930 On ch=2 n=f6 v=0
511932 On ch=2 n=d6 v=0
511952 On ch=1 n=a4 v=0
511967 On ch=2 n=c#6 v=127
512020 On ch=1 n=f5 v=102
512022 On ch=2 n=c#6 v=0
512027 On ch=1 n=d5 v=102
512077 On ch=2 n=d6 v=127
512117 On ch=2 n=d6 v=0
512167 On ch=1 n=d5 v=0
512175 On ch=1 n=f5 v=0
512177 On ch=2 n=e6 v=127
512187 On ch=1 n=a4 v=104
512217 On ch=2 n=e6 v=0
512235 On ch=2 n=f6 v=127
512267 On ch=1 n=a4 v=0
512277 On ch=2 n=f6 v=0
512282 On ch=2 n=g6 v=127
512312 Par ch=1 c=64 v=0
512312 Par ch=2 c=64 v=0
512315 On ch=1 n=d4 v=106
512324 On ch=2 n=g6 v=0
512362 On ch=2 n=a6 v=126
512450 On ch=2 n=g6 v=125
512475 On ch=1 n=d4 v=0
512484 On ch=2 n=a6 v=0
512552 On ch=2 n=f6 v=123
512562 On ch=2 n=g6 v=0
512562 On ch=1 n=f5 v=110
512572 On ch=1 n=d5 v=110
512634 On ch=2 n=f6 v=0
512642 On ch=1 n=f5 v=0
512644 On ch=1 n=d5 v=0
512655 On ch=2 n=a6 v=122
512742 On ch=2 n=g6 v=121
512752 On ch=1 n=g4 v=113
512795 On ch=2 n=a6 v=0
512844 On ch=1 n=g4 v=0
512852 On ch=2 n=g6 v=0
512855 On ch=2 n=f6 v=123
512905 On ch=2 n=f6 v=0
512925 On ch=1 n=a#4 v=116
512935 On ch=2 n=e6 v=124
512945 On ch=1 n=e5 v=116
512995 On ch=1 n=e5 v=0
512997 On ch=1 n=a#4 v=0
513005 On ch=2 n=e6 v=0
513015 On ch=2 n=g6 v=125
513087 On ch=2 n=g6 v=0
513125 On ch=1 n=a4 v=119
513125 On ch=2 n=f6 v=127
513207 On ch=2 n=f6 v=0
513235 On ch=2 n=e6 v=127
513305 On ch=1 n=d5 v=122
513315 On ch=2 n=e6 v=0
513315 On ch=1 n=f5 v=122
513325 On ch=2 n=d6 v=127
513327 On ch=1 n=a4 v=0
513355 On ch=2 n=f6 v=127
513365 On ch=2 n=d6 v=0
513385 On ch=1 n=d5 v=0
513392 On ch=1 n=f5 v=0
513402 On ch=2 n=f6 v=0
513439 On ch=2 n=e6 v=127
513469 On ch=1 n=a4 v=125
513499 On ch=2 n=d6 v=127
513507 Par ch=1 c=64 v=127
513507 Par ch=2 c=64 v=127
513509 On ch=2 n=e6 v=0
513569 On ch=2 n=d6 v=0
513592 On ch=2 n=c#6 v=127
513634 On ch=2 n=c#6 v=0
513636 On ch=1 n=a4 v=0
513644 On ch=2 n=e6 v=127
513664 On ch=1 n=e5 v=127
513672 On ch=2 n=g5 v=127
513684 On ch=2 n=e6 v=0
513731 On ch=1 n=e5 v=0
513742 On ch=2 n=g5 v=0
513824 On ch=1 n=d3 v=127
513834 On ch=1 n=d4 v=127
513876 On ch=1 n=d4 v=0
513914 Par ch=1 c=64 v=0
513914 Par ch=2 c=64 v=0
513934 On ch=1 n=d5 v=127
513964 On ch=1 n=d4 v=127
513974 On ch=1 n=d5 v=0
514027 On ch=2 n=d6 v=126
514059 On ch=1 n=d4 v=0
514061 On ch=1 n=d3 v=0
514079 On ch=2 n=d6 v=0
514109 On ch=1 n=d5 v=127
514151 On ch=1 n=d5 v=0
514234 On ch=1 n=a2 v=127
514244 On ch=1 n=a3 v=127
514289 On ch=1 n=a3 v=0
514337 On ch=1 n=a4 v=127
514402 On ch=1 n=a4 v=0
514424 On ch=1 n=a3 v=127
514424 On ch=2 n=a5 v=126
514444 On ch=1 n=a2 v=0
514459 On ch=1 n=a3 v=0
514484 On ch=2 n=a5 v=0
514499 On ch=1 n=a4 v=127
514564 On ch=1 n=a4 v=0
514612 On ch=1 n=d3 v=127
514622 On ch=1 n=d4 v=127
514664 On ch=1 n=d4 v=0
514702 On ch=1 n=d5 v=127
514742 On ch=1 n=d5 v=0
514774 On ch=2 n=d6 v=127
514782 On ch=1 n=d4 v=127
514824 On ch=1 n=d4 v=0
514824 On ch=1 n=d3 v=0
514841 On ch=2 n=d6 v=0
514862 On ch=1 n=d5 v=127
514904 On ch=1 n=d5 v=0
514944 On ch=1 n=e3 v=127
514954 On ch=1 n=e4 v=127
514964 Par ch=1 c=64 v=127
514964 Par ch=2 c=64 v=127
515052 On ch=1 n=e5 v=125
515102 On ch=1 n=e5 v=0
515152 On ch=2 n=e6 v=127
515206 On ch=1 n=e3 v=0
515214 On ch=1 n=e4 v=0
515224 On ch=2 n=e6 v=0
515229 On ch=1 n=e5 v=90
515269 On ch=1 n=e5 v=0
515279 Par ch=1 c=64 v=0
515279 Par ch=2 c=64 v=0
515326 On ch=1 n=f4 v=90
515366 On ch=1 n=f3 v=90
515368 On ch=1 n=f4 v=0
515436 On ch=1 n=f5 v=89
515473 On ch=1 n=f5 v=0
515506 On ch=1 n=f4 v=90
515556 On ch=2 n=f6 v=126
515576 On ch=1 n=f4 v=0
515576 On ch=1 n=f3 v=0
515576 Par ch=1 c=64 v=127
515576 Par ch=2 c=64 v=127
515596 On ch=2 n=f6 v=0
515626 On ch=1 n=f5 v=89
515673 On ch=1 n=f5 v=0
515709 On ch=1 n=c3 v=90
515729 On ch=1 n=c4 v=89
515789 On ch=1 n=c5 v=90
515804 On ch=1 n=c4 v=0
515851 On ch=1 n=c5 v=0
515881 On ch=2 n=c6 v=122
515914 On ch=1 n=c4 v=89
515954 On ch=1 n=c5 v=90
515956 On ch=1 n=c4 v=0
515956 On ch=1 n=c3 v=0
516003 On ch=2 n=c6 v=0
516013 On ch=1 n=c5 v=0
516061 Par ch=1 c=64 v=0
516061 Par ch=2 c=64 v=0
516091 On ch=1 n=f3 v=90
516103 On ch=1 n=f4 v=89
516145 On ch=1 n=f4 v=0
516206 On ch=1 n=f5 v=89
516246 On ch=1 n=f5 v=0
516263 On ch=2 n=f6 v=127
516296 On ch=1 n=f4 v=90
516308 On ch=2 n=f6 v=0
516336 On ch=1 n=f5 v=98
516351 On ch=1 n=f3 v=0
516361 On ch=1 n=f4 v=0
516386 On ch=1 n=f5 v=0
516466 On ch=1 n=g3 v=125
516478 On ch=1 n=g4 v=127
516498 Par ch=1 c=64 v=127
516498 Par ch=2 c=64 v=127
516571 On ch=2 n=g5 v=127
516611 On ch=2 n=g5 v=0
516691 On ch=2 n=g6 v=127
516726 On ch=2 n=g6 v=0
516733 On ch=1 n=g3 v=0
516735 On ch=1 n=g4 v=0
516741 On ch=2 n=g5 v=127
516793 On ch=2 n=g5 v=0
516803 Par ch=1 c=64 v=0
516803 Par ch=2 c=64 v=0
516861 On ch=1 n=g#3 v=120
516871 On ch=1 n=g#4 v=120
516913 On ch=1 n=g#4 v=0
516931 On ch=1 n=g#3 v=0
516961 On ch=2 n=g#5 v=127
516991 On ch=2 n=g#5 v=0
517058 On ch=1 n=g#3 v=117
517061 On ch=1 n=g#4 v=117
517061 On ch=2 n=g#6 v=126
517103 On ch=1 n=g#4 v=0
517108 On ch=2 n=g#5 v=125
517123 On ch=2 n=g#6 v=0
517130 On ch=1 n=g#3 v=0
517131 Par ch=1 c=64 v=127
517131 Par ch=2 c=64 v=127
517168 On ch=2 n=g#5 v=0
517238 On ch=1 n=d#4 v=115
517248 On ch=1 n=d#3 v=115
517293 On ch=1 n=d#3 v=0
517293 On ch=1 n=d#4 v=0
517328 On ch=1 n=d#5 v=113
517378 On ch=1 n=d#5 v=0
517408 On ch=1 n=d#4 v=112
517418 On ch=1 n=d#3 v=112
517428 On ch=2 n=d#6 v=120
517450 On ch=1 n=d#3 v=0
517450 On ch=1 n=d#4 v=0
517485 On ch=1 n=d#5 v=110
517495 On ch=2 n=d#6 v=0
517524 On ch=1 n=d#5 v=0
517525 Par ch=1 c=64 v=0
517525 Par ch=2 c=64 v=0
517590 On ch=1 n=g#3 v=109
517602 On ch=1 n=g#4 v=108
517632 On ch=1 n=g#3 v=0
517644 On ch=1 n=g#4 v=0
517672 On ch=2 n=g#5 v=125
517714 On ch=2 n=g#5 v=0
517772 On ch=1 n=g#3 v=108
517775 On ch=1 n=g#4 v=108
517777 On ch=2 n=g#6 v=126
517807 On ch=1 n=g#3 v=0
517819 On ch=2 n=g#6 v=0
517820 On ch=1 n=g#4 v=0
517827 On ch=2 n=g#5 v=127
517867 On ch=2 n=g#5 v=0
517912 Par ch=1 c=64 v=127
517912 Par ch=2 c=64 v=127
517947 On ch=1 n=a#3 v=127
517950 On ch=1 n=a#4 v=127
518042 On ch=2 n=a#5 v=127
518084 On ch=2 n=a#5 v=0
518165 On ch=2 n=a#6 v=127
518205 On ch=1 n=a#4 v=0
518217 On ch=1 n=a#3 v=0
518227 On ch=2 n=a#5 v=127
518237 On ch=2 n=a#6 v=0
518277 On ch=2 n=a#5 v=0
518320 Par ch=1 c=64 v=0
518320 Par ch=2 c=64 v=0
518325 On ch=1 n=b4 v=121
518335 On ch=1 n=b3 v=121
518367 On ch=1 n=b4 v=0
518377 On ch=1 n=b3 v=0
518427 On ch=2 n=b5 v=127
518467 On ch=2 n=b5 v=0
518515 On ch=1 n=b3 v=118
518522 On ch=1 n=b4 v=118
518525 On ch=2 n=b6 v=127
518564 On ch=1 n=b4 v=0
518565 On ch=1 n=b3 v=0
518582 On ch=2 n=b5 v=126
518605 On ch=2 n=b6 v=0
518605 Par ch=1 c=64 v=127
518605 Par ch=2 c=64 v=127
518622 On ch=2 n=b5 v=0
518697 On ch=1 n=f#3 v=115
518707 On ch=1 n=f#4 v=115
518749 On ch=1 n=f#4 v=0
518756 On ch=1 n=f#3 v=0
518797 On ch=1 n=f#5 v=113
518832 On ch=1 n=f#5 v=0
518877 On ch=1 n=f#3 v=112
518889 On ch=1 n=f#4 v=112
518931 On ch=1 n=f#4 v=0
518932 On ch=2 n=f#6 v=120
518949 On ch=1 n=f#5 v=111
518959 On ch=1 n=f#3 v=0
518974 On ch=2 n=f#6 v=0
519019 On ch=1 n=f#5 v=0
519069 On ch=1 n=b3 v=109
519069 On ch=1 n=b4 v=109
519111 On ch=1 n=b4 v=0
519111 On ch=1 n=b3 v=0
519119 On ch=2 n=b5 v=123
519159 On ch=2 n=b5 v=0
519239 On ch=1 n=b4 v=110
519242 On ch=2 n=b6 v=125
519249 On ch=1 n=b3 v=112
519279 On ch=1 n=b4 v=0
519289 On ch=2 n=b5 v=126
519291 On ch=1 n=b3 v=0
519302 Par ch=1 c=64 v=0
519302 Par ch=2 c=64 v=0
519314 On ch=2 n=b6 v=0
519339 On ch=2 n=b5 v=0
519399 On ch=1 n=c#4 v=127
519419 On ch=1 n=c#5 v=127
519492 On ch=2 n=c#6 v=127
519532 On ch=2 n=c#6 v=0
519624 On ch=2 n=c#7 v=127
519661 On ch=1 n=c#5 v=0
519664 On ch=1 n=c#4 v=0
519664 On ch=2 n=c#6 v=127
519714 On ch=2 n=c#7 v=0
519731 On ch=2 n=c#6 v=0
519772 On ch=1 n=d#4 v=121
519772 On ch=1 n=d#5 v=121
519827 Par ch=1 c=64 v=127
519827 Par ch=2 c=64 v=127
519852 On ch=1 n=d#5 v=0
519857 On ch=1 n=d#4 v=0
519857 On ch=2 n=d#7 v=127
519859 On ch=2 n=d#6 v=127
519896 On ch=2 n=d#6 v=0
519899 On ch=2 n=d#7 v=0
519954 On ch=1 n=c5 v=118
519964 On ch=1 n=c4 v=118
519996 On ch=1 n=c5 v=0
520006 On ch=1 n=c4 v=0
520059 On ch=2 n=d#6 v=125
520069 On ch=2 n=d#7 v=125
520096 On ch=2 n=d#6 v=0
520106 On ch=2 n=d#7 v=0
520151 On ch=1 n=a4 v=115
520161 On ch=1 n=a3 v=115
520223 On ch=2 n=a6 v=123
520233 On ch=1 n=a3 v=0
520236 On ch=1 n=a4 v=0
520243 On ch=2 n=a5 v=123
520275 On ch=2 n=a6 v=0
520283 On ch=2 n=a5 v=0
520343 On ch=1 n=f#4 v=119
520363 On ch=1 n=f#3 v=123
520388 On ch=1 n=f#4 v=0
520405 On ch=1 n=f#3 v=0
520415 On ch=2 n=a5 v=126
520425 On ch=2 n=a6 v=126
520452 On ch=2 n=a5 v=0
520467 On ch=2 n=a6 v=0
520525 On ch=1 n=d#3 v=127
520533 On ch=1 n=d#4 v=127
520608 On ch=2 n=d#6 v=127
520610 On ch=2 n=d#7 v=127
520618 On ch=1 n=d#4 v=0
520625 On ch=1 n=d#3 v=0
520647 On ch=2 n=d#7 v=0
520648 On ch=2 n=d#6 v=0
520685 On ch=1 n=c4 v=124
520705 On ch=1 n=c3 v=123
520757 On ch=1 n=c4 v=0
520777 On ch=1 n=c3 v=0
520780 On ch=2 n=d#6 v=127
520783 Par ch=1 c=64 v=0
520783 Par ch=2 c=64 v=0
520793 On ch=2 n=d#7 v=127
520820 On ch=2 n=d#6 v=0
520823 On ch=2 n=d#7 v=0
520925 On ch=1 n=a2 v=120
520935 On ch=1 n=a3 v=120
520957 On ch=2 n=e6 v=127
520960 On ch=2 n=e7 v=127
520967 On ch=2 n=c7 v=127
520967 On ch=2 n=a6 v=127
521017 On ch=1 n=a2 v=0
521020 On ch=1 n=a3 v=0
521100 Par ch=1 c=64 v=127
521100 Par ch=2 c=64 v=127
521105 On ch=1 n=f#2 v=127
521115 On ch=1 n=f#3 v=127
521180 On ch=1 n=f#3 v=0
521199 On ch=2 n=e6 v=0
521200 On ch=1 n=f#2 v=0
521209 On ch=2 n=a6 v=0
521219 On ch=2 n=e7 v=0
521229 On ch=2 n=c7 v=0
521294 On ch=1 n=d#5 v=127
521314 On ch=1 n=d#4 v=127
521364 On ch=1 n=d#5 v=0
521379 On ch=1 n=d#4 v=0
521389 On ch=2 n=d#7 v=120
521399 On ch=2 n=d#6 v=120
521429 On ch=2 n=d#7 v=0
521446 On ch=2 n=d#6 v=0
521494 On ch=1 n=c4 v=123
521494 On ch=1 n=c5 v=123
521539 On ch=1 n=c5 v=0
521549 On ch=1 n=c4 v=0
521559 On ch=2 n=d#7 v=117
521567 On ch=2 n=d#6 v=117
521599 On ch=2 n=d#7 v=0
521609 On ch=2 n=d#6 v=0
521684 On ch=1 n=a3 v=120
521684 On ch=1 n=a4 v=120
521746 On ch=1 n=a3 v=0
521756 On ch=1 n=a4 v=0
521757 On ch=2 n=a6 v=117
521764 On ch=2 n=a5 v=118
521799 On ch=2 n=a6 v=0
521806 On ch=2 n=a5 v=0
521864 On ch=1 n=f#3 v=118
521874 On ch=1 n=f#4 v=117
521923 On ch=1 n=f#3 v=0
521926 On ch=1 n=f#4 v=0
521934 On ch=2 n=a5 v=120
521946 On ch=2 n=a6 v=120
521976 On ch=2 n=a5 v=0
521988 On ch=2 n=a6 v=0
522039 On ch=1 n=d#4 v=127
522059 On ch=1 n=d#3 v=127
522101 On ch=1 n=d#3 v=0
522111 On ch=1 n=d#4 v=0
522119 On ch=2 n=d#7 v=123
522131 On ch=2 n=d#6 v=123
522161 On ch=2 n=d#7 v=0
522171 On ch=2 n=d#6 v=0
522239 On ch=1 n=c4 v=124
522239 On ch=1 n=c3 v=124
522274 On ch=1 n=c3 v=0
522274 On ch=1 n=c4 v=0
522301 On ch=2 n=d#6 v=126
522301 On ch=2 n=d#7 v=126
522334 Par ch=1 c=64 v=0
522334 Par ch=2 c=64 v=0
522343 On ch=2 n=d#6 v=0
522346 On ch=2 n=d#7 v=0
522441 On ch=1 n=a2 v=120
522451 On ch=1 n=a3 v=120
522483 On ch=1 n=a2 v=0
522484 On ch=2 n=a6 v=127
522486 On ch=2 n=c7 v=127
522486 On ch=2 n=e7 v=127
522493 On ch=1 n=a3 v=0
522494 On ch=2 n=e6 v=127
522624 On ch=1 n=f#2 v=127
522624 On ch=1 n=f#3 v=127
522706 On ch=1 n=f#3 v=0
522709 On ch=1 n=f#2 v=0
522719 On ch=2 n=e6 v=0
522719 On ch=2 n=a6 v=0
522731 On ch=2 n=e7 v=0
522738 On ch=2 n=c7 v=0
522826 On ch=1 n=g#4 v=127
522826 On ch=2 n=g#5 v=122
522836 Par ch=1 c=64 v=127
522836 Par ch=2 c=64 v=127
522866 On ch=2 n=g#5 v=0
522868 On ch=1 n=g#4 v=0
522909 On ch=2 n=g#7 v=120
522916 On ch=2 n=g#6 v=120
522951 On ch=2 n=g#7 v=0
522958 On ch=2 n=g#6 v=0
522999 On ch=1 n=f5 v=124
523016 On ch=1 n=f4 v=124
523039 On ch=1 n=f5 v=0
523061 On ch=1 n=f4 v=0
523076 On ch=2 n=g#6 v=117
523079 On ch=2 n=g#7 v=117
523121 On ch=2 n=g#7 v=0
523121 On ch=2 n=g#6 v=0
523199 On ch=1 n=d4 v=121
523206 On ch=1 n=d5 v=121
523271 On ch=2 n=d7 v=119
523278 On ch=1 n=d5 v=0
523281 On ch=2 n=d6 v=119
523291 On ch=1 n=d4 v=0
523311 On ch=2 n=d7 v=0
523321 On ch=2 n=d6 v=0
523389 On ch=1 n=b3 v=125
523389 On ch=1 n=b4 v=125
523461 On ch=1 n=b4 v=0
523461 On ch=2 n=d6 v=122
523461 On ch=2 n=d7 v=122
523464 On ch=1 n=b3 v=0
523496 On ch=2 n=d7 v=0
523511 On ch=2 n=d6 v=0
523556 On ch=1 n=g#3 v=127
523581 On ch=1 n=g#4 v=126
523601 On ch=1 n=g#3 v=0
523621 On ch=1 n=g#4 v=0
523629 On ch=2 n=g#6 v=125
523631 On ch=2 n=g#7 v=125
523673 On ch=2 n=g#7 v=0
523681 On ch=2 n=g#6 v=0
523749 On ch=1 n=f4 v=123
523756 On ch=1 n=f3 v=123
523811 Par ch=1 c=64 v=0
523811 On ch=2 n=g#7 v=127
523811 Par ch=2 c=64 v=0
523819 On ch=2 n=g#6 v=127
523824 On ch=1 n=f4 v=0
523833 On ch=1 n=f3 v=0
523863 On ch=2 n=g#7 v=0
523864 On ch=2 n=g#6 v=0
523951 On ch=1 n=d3 v=120
523951 On ch=1 n=d4 v=120
523981 On ch=2 n=f7 v=127
523991 On ch=2 n=d7 v=127
524001 On ch=2 n=a6 v=127
524004 On ch=2 n=a7 v=127
524023 On ch=1 n=d4 v=0
524043 On ch=1 n=d3 v=0
524096 Par ch=1 c=64 v=127
524096 Par ch=2 c=64 v=127
524156 On ch=1 n=b3 v=120
524164 On ch=1 n=b2 v=122
524189 On ch=2 n=a7 v=0
524198 On ch=2 n=a6 v=0
524208 On ch=2 n=d7 v=0
524228 On ch=1 n=b3 v=0
524228 On ch=2 n=f7 v=0
524236 On ch=1 n=b2 v=0
524366 On ch=2 n=g#5 v=121
524386 On ch=1 n=g#4 v=127
524416 On ch=2 n=g#5 v=0
524431 On ch=1 n=g#4 v=0
524446 On ch=2 n=g#6 v=120
524449 On ch=2 n=g#7 v=120
524488 On ch=2 n=g#6 v=0
524489 On ch=2 n=g#7 v=0
524549 On ch=1 n=f4 v=124
524549 On ch=1 n=f5 v=124
524594 On ch=1 n=f4 v=0
524601 On ch=1 n=f5 v=0
524601 On ch=2 n=g#7 v=117
524619 On ch=2 n=g#6 v=117
524653 On ch=2 n=g#7 v=0
524661 On ch=2 n=g#6 v=0
524721 On ch=1 n=d4 v=121
524739 On ch=1 n=d5 v=121
524781 On ch=2 n=d7 v=116
524791 On ch=1 n=d5 v=0
524791 On ch=1 n=d4 v=0
524791 On ch=2 n=d6 v=117
524823 On ch=2 n=d7 v=0
524833 On ch=2 n=d6 v=0
524911 On ch=1 n=b3 v=118
524919 On ch=1 n=b4 v=118
524939 On ch=2 n=d6 v=118
524953 On ch=1 n=b3 v=0
524959 On ch=2 n=d7 v=119
524961 On ch=1 n=b4 v=0
524991 On ch=2 n=d6 v=0
525001 On ch=2 n=d7 v=0
525101 On ch=1 n=g#3 v=127
525103 On ch=1 n=g#4 v=127
525145 On ch=1 n=g#4 v=0
525153 On ch=2 n=g#7 v=122
525161 On ch=2 n=g#6 v=122
525173 On ch=1 n=g#3 v=0
525193 On ch=2 n=g#6 v=0
525195 On ch=2 n=g#7 v=0
525296 On ch=1 n=f4 v=124
525313 On ch=1 n=f3 v=124
525323 On ch=2 n=g#6 v=125
525323 On ch=2 n=g#7 v=125
525348 On ch=1 n=f3 v=0
525358 On ch=1 n=f4 v=0
525368 On ch=2 n=g#7 v=0
525375 On ch=2 n=g#6 v=0
525393 Par ch=1 c=64 v=0
525393 Par ch=2 c=64 v=0
525493 On ch=2 n=d7 v=127
525496 On ch=1 n=d4 v=121
525506 On ch=1 n=d3 v=121
525506 On ch=2 n=f7 v=127
525508 On ch=2 n=a7 v=127
525516 On ch=2 n=a6 v=127
525578 On ch=1 n=d4 v=0
525588 On ch=1 n=d3 v=0
525698 On ch=2 n=a6 v=0
525705 On ch=1 n=a3 v=127
525715 On ch=1 n=a2 v=127
525740 On ch=2 n=a7 v=0
525740 On ch=2 n=f7 v=0
525747 On ch=2 n=d7 v=0
525787 On ch=1 n=a3 v=0
525797 On ch=1 n=a2 v=0
525863 On ch=2 n=b7 v=121
525873 On ch=2 n=b6 v=121
525875 On ch=2 n=d7 v=121
525895 On ch=1 n=g#2 v=127
525913 On ch=1 n=g#3 v=127
525917 On ch=2 n=d7 v=0
525918 On ch=2 n=b6 v=0
525918 On ch=2 n=b7 v=0
525945 On ch=1 n=g#3 v=0
525947 On ch=1 n=g#2 v=0
525953 Par ch=1 c=64 v=127
525953 Par ch=2 c=64 v=127
526043 On ch=2 n=b7 v=118
526050 On ch=2 n=d7 v=118
526053 On ch=2 n=b6 v=118
526063 On ch=1 n=g2 v=124
526073 On ch=1 n=g3 v=124
526095 On ch=2 n=b6 v=0
526095 On ch=2 n=b7 v=0
526097 On ch=2 n=d7 v=0
526128 On ch=1 n=g2 v=0
526148 On ch=1 n=g3 v=0
526240 On ch=1 n=g#2 v=122
526248 On ch=2 n=f7 v=119
526250 On ch=2 n=f6 v=119
526258 On ch=1 n=g#3 v=121
526260 On ch=2 n=d7 v=119
526293 On ch=2 n=f7 v=0
526300 On ch=2 n=f6 v=0
526302 On ch=2 n=d7 v=0
526320 On ch=1 n=g#3 v=0
526322 On ch=1 n=g#2 v=0
526420 On ch=2 n=f7 v=122
526440 On ch=1 n=g2 v=119
526440 On ch=2 n=d7 v=122
526448 On ch=1 n=g3 v=120
526448 On ch=2 n=f6 v=122
526462 On ch=2 n=f7 v=0
526482 On ch=2 n=d7 v=0
526482 On ch=1 n=g2 v=0
526490 On ch=1 n=g3 v=0
526500 On ch=2 n=f6 v=0
526590 On ch=2 n=b7 v=125
526600 On ch=2 n=b6 v=125
526600 On ch=2 n=d7 v=125
526610 On ch=1 n=f#2 v=127
526618 On ch=1 n=f#3 v=127
526635 On ch=2 n=b7 v=0
526642 On ch=2 n=d7 v=0
526642 On ch=2 n=b6 v=0
526683 On ch=1 n=f#3 v=0
526690 Par ch=1 c=64 v=0
526690 Par ch=2 c=64 v=0
526692 On ch=1 n=f#2 v=0
526763 On ch=2 n=b7 v=127
526783 On ch=2 n=b6 v=127
526793 On ch=1 n=f3 v=124
526793 On ch=2 n=d7 v=127
526795 On ch=1 n=f2 v=124
526815 On ch=2 n=b7 v=0
526825 On ch=2 n=b6 v=0
526835 On ch=2 n=d7 v=0
526835 On ch=1 n=f3 v=0
526837 On ch=1 n=f2 v=0
526963 On ch=2 n=g#7 v=127
526968 On ch=1 n=e3 v=122
526975 On ch=1 n=e2 v=122
526975 On ch=2 n=d7 v=127
526978 On ch=2 n=e8 v=127
526983 Par ch=1 c=64 v=127
526983 On ch=2 n=e7 v=127
526983 Par ch=2 c=64 v=127
527058 On ch=2 n=e7 v=0
527060 On ch=2 n=e8 v=0
527070 On ch=2 n=d7 v=0
527070 On ch=2 n=g#7 v=0
527080 On ch=1 n=e2 v=0
527090 On ch=1 n=e3 v=0
527365 On ch=2 n=b5 v=120
527365 On ch=2 n=b6 v=120
527375 On ch=1 n=g#3 v=127
527378 On ch=1 n=g#4 v=127
527378 On ch=2 n=d6 v=120
527407 On ch=2 n=b5 v=0
527410 On ch=2 n=b6 v=0
527420 On ch=2 n=d6 v=0
527440 On ch=1 n=g#3 v=0
527443 On ch=1 n=g#4 v=0
527545 On ch=2 n=b6 v=118
527555 On ch=2 n=b5 v=117
527555 On ch=2 n=d6 v=117
527593 On ch=1 n=g3 v=123
527595 On ch=1 n=g4 v=123
527597 On ch=2 n=d6 v=0
527597 On ch=2 n=b6 v=0
527607 On ch=2 n=b5 v=0
527657 On ch=1 n=g4 v=0
527735 On ch=1 n=g3 v=0
527745 On ch=1 n=f5 v=121
527755 On ch=2 n=d6 v=114
527755 On ch=2 n=f6 v=114
527773 On ch=1 n=a#3 v=120
527785 On ch=1 n=g#4 v=120
527795 On ch=2 n=d6 v=0
527812 On ch=1 n=f5 v=0
527817 On ch=2 n=f6 v=0
527827 On ch=1 n=g#4 v=0
527828 On ch=1 n=a#3 v=0
527923 On ch=1 n=g3 v=118
527935 On ch=2 n=d6 v=112
527945 On ch=2 n=f6 v=112
527953 On ch=1 n=g4 v=118
527955 On ch=1 n=f5 v=118
527975 On ch=2 n=d6 v=0
527995 On ch=1 n=f5 v=0
527995 On ch=2 n=f6 v=0
527995 On ch=1 n=g3 v=0
527998 On ch=1 n=g4 v=0
528083 On ch=1 n=f#3 v=127
528095 On ch=1 n=f#4 v=127
528103 On ch=2 n=b6 v=127
528105 On ch=2 n=d6 v=127
528113 On ch=2 n=b5 v=127
528148 On ch=2 n=b6 v=0
528155 On ch=1 n=f#3 v=0
528165 On ch=2 n=b5 v=0
528175 On ch=2 n=d6 v=0
528175 On ch=1 n=f#4 v=0
528265 On ch=2 n=d6 v=124
528265 On ch=2 n=b6 v=124
528275 On ch=2 n=b5 v=124
528293 On ch=1 n=f3 v=123
528293 On ch=1 n=f4 v=123
528307 On ch=2 n=b6 v=0
528315 On ch=2 n=d6 v=0
528325 On ch=2 n=b5 v=0
528348 On ch=1 n=f4 v=0
528348 On ch=1 n=f3 v=0
528445 On ch=2 n=g#6 v=127
528448 On ch=2 n=e7 v=127
528455 On ch=2 n=d6 v=127
528458 On ch=1 n=e3 v=121
528458 On ch=2 n=e6 v=127
528475 On ch=1 n=e4 v=121
528487 On ch=2 n=g#6 v=0
528498 On ch=2 n=e6 v=0
528500 On ch=2 n=d6 v=0
528500 On ch=2 n=e7 v=0
528550 On ch=1 n=e3 v=0
528557 On ch=1 n=e4 v=0
528558 Par ch=1 c=64 v=0
528558 Par ch=2 c=64 v=0
528853 On ch=2 n=b6 v=120
528855 On ch=2 n=b7 v=120
528863 On ch=2 n=d7 v=120
528873 On ch=1 n=g#2 v=127
528880 On ch=1 n=g#3 v=126
528898 On ch=2 n=b6 v=0
528905 Par ch=1 c=64 v=127
528905 Par ch=2 c=64 v=127
528908 On ch=2 n=d7 v=0
528910 On ch=2 n=b7 v=0
528945 On ch=1 n=g#3 v=0
528948 On ch=1 n=g#2 v=0
529045 On ch=1 n=g2 v=123
529053 On ch=1 n=g3 v=123
529058 On ch=2 n=d7 v=117
529058 On ch=2 n=b7 v=117
529068 On ch=2 n=b6 v=117
529090 On ch=2 n=d7 v=0
529113 On ch=2 n=b7 v=0
529115 On ch=1 n=g3 v=0
529117 On ch=1 n=g2 v=0
529120 On ch=2 n=b6 v=0
529245 On ch=1 n=g#3 v=120
529248 On ch=1 n=g#2 v=120
529260 On ch=2 n=f7 v=114
529263 On ch=2 n=d7 v=114
529268 On ch=2 n=f6 v=114
529305 On ch=2 n=d7 v=0
529305 On ch=2 n=f7 v=0
529323 On ch=2 n=f6 v=0
529323 On ch=1 n=g#2 v=0
529330 On ch=1 n=g#3 v=0
529438 On ch=1 n=g3 v=117
529443 On ch=2 n=f7 v=111
529450 On ch=1 n=g2 v=117
529453 On ch=2 n=f6 v=111
529453 On ch=2 n=d7 v=111
529488 On ch=2 n=f7 v=0
529495 On ch=2 n=d7 v=0
529503 On ch=2 n=f6 v=0
529523 On ch=1 n=g3 v=0
529525 On ch=1 n=g2 v=0
529630 On ch=1 n=f#3 v=127
529633 On ch=2 n=b6 v=127
529633 On ch=2 n=b7 v=127
529640 On ch=1 n=f#2 v=127
529645 On ch=2 n=d7 v=127
529685 On ch=2 n=d7 v=0
529685 On ch=2 n=b7 v=0
529695 On ch=2 n=b6 v=0
529712 On ch=1 n=f#3 v=0
529715 On ch=1 n=f#2 v=0
529773 Par ch=1 c=64 v=0
529773 Par ch=2 c=64 v=0
529813 On ch=2 n=b7 v=124
529820 On ch=1 n=f2 v=124
529820 On ch=1 n=f3 v=124
529830 On ch=2 n=b6 v=124
529840 On ch=2 n=d7 v=124
529865 On ch=2 n=b7 v=0
529882 On ch=2 n=d7 v=0
529882 On ch=2 n=b6 v=0
529889 On ch=1 n=f3 v=0
529899 On ch=1 n=f2 v=0
530027 On ch=1 n=e2 v=121
530027 On ch=2 n=e7 v=127
530030 On ch=1 n=e3 v=121
530030 On ch=2 n=g#7 v=127
530030 On ch=2 n=e8 v=127
530047 On ch=2 n=d7 v=127
530057 Par ch=1 c=64 v=127
530057 Par ch=2 c=64 v=127
530102 On ch=2 n=e8 v=0
530102 On ch=2 n=g#7 v=0
530109 On ch=2 n=e7 v=0
530109 On ch=1 n=e2 v=0
530112 On ch=2 n=d7 v=0
530120 On ch=1 n=e3 v=0
530592 On ch=2 n=b6 v=118
530595 On ch=2 n=d6 v=118
530600 On ch=1 n=g#3 v=127
530602 On ch=1 n=g#4 v=127
530612 On ch=2 n=b5 v=118
530657 On ch=2 n=b6 v=0
530674 On ch=2 n=b5 v=0
530685 On ch=1 n=g#3 v=0
530685 On ch=2 n=d6 v=0
530697 On ch=1 n=g#4 v=0
530807 On ch=2 n=d6 v=115
530817 On ch=2 n=b5 v=114
530817 On ch=2 n=b6 v=114
530825 On ch=1 n=g3 v=123
530827 On ch=1 n=g4 v=123
530862 On ch=2 n=b6 v=0
530892 On ch=2 n=b5 v=0
530892 On ch=2 n=d6 v=0
530927 On ch=1 n=g3 v=0
530939 On ch=1 n=g4 v=0
531037 On ch=1 n=g#3 v=120
531042 On ch=1 n=g#4 v=120
531072 On ch=2 n=d6 v=110
531072 On ch=2 n=f6 v=110
531082 On ch=1 n=f5 v=119
531117 On ch=2 n=f6 v=0
531117 On ch=2 n=d6 v=0
531127 On ch=1 n=g#4 v=0
531134 On ch=1 n=f5 v=0
531174 On ch=1 n=g#3 v=0
531262 On ch=1 n=g3 v=116
531265 On ch=1 n=g4 v=116
531267 On ch=2 n=d6 v=107
531277 On ch=2 n=f6 v=107
531285 On ch=1 n=f5 v=118
531319 On ch=2 n=d6 v=0
531327 On ch=1 n=f5 v=0
531329 On ch=2 n=f6 v=0
531357 On ch=1 n=g4 v=0
531364 On ch=1 n=g3 v=0
531490 On ch=2 n=b5 v=127
531490 On ch=2 n=d6 v=127
531497 On ch=1 n=f#3 v=127
531500 On ch=1 n=f#4 v=127
531510 On ch=2 n=b6 v=127
531562 On ch=2 n=b6 v=0
531570 On ch=2 n=b5 v=0
531572 On ch=2 n=d6 v=0
531627 On ch=1 n=f#3 v=0
531630 On ch=1 n=f#4 v=0
531675 On ch=1 n=f4 v=124
531692 On ch=1 n=f3 v=124
531702 On ch=2 n=b6 v=123
531712 On ch=2 n=d6 v=123
531712 On ch=2 n=b5 v=123
531744 On ch=2 n=b6 v=0
531752 On ch=2 n=d6 v=0
531762 On ch=2 n=b5 v=0
531772 Par ch=1 c=64 v=0
531772 Par ch=2 c=64 v=0
531781 On ch=1 n=f3 v=0
531789 On ch=1 n=f4 v=0
531924 On ch=2 n=d6 v=127
531924 On ch=2 n=e7 v=127
531932 On ch=2 n=e6 v=127
531934 On ch=2 n=g#6 v=127
531954 On ch=1 n=e3 v=125
531964 On ch=1 n=e4 v=127
531997 On ch=2 n=e6 v=0
532004 On ch=2 n=d6 v=0
532006 On ch=2 n=g#6 v=0
532006 On ch=2 n=e7 v=0
532012 Par ch=1 c=64 v=127
532012 Par ch=2 c=64 v=127
532086 On ch=1 n=e4 v=0
532086 On ch=1 n=e3 v=0
532334 On ch=1 n=a2 v=127
532354 On ch=1 n=a3 v=127
532389 Par ch=1 c=64 v=0
532389 Par ch=2 c=64 v=0
532614 On ch=1 n=a2 v=0
532696 On ch=1 n=a3 v=0
532707 On ch=2 n=e7 v=115
532719 On ch=2 n=e8 v=115
532727 Par ch=1 c=64 v=127
532727 Par ch=2 c=64 v=127
532739 On ch=2 n=c#8 v=114
532837 On ch=1 n=e5 v=94
532837 On ch=1 n=a4 v=94
532847 On ch=1 n=c#5 v=96
532862 On ch=2 n=e7 v=0
532886 On ch=2 n=e8 v=0
532906 On ch=2 n=c#8 v=0
532979 On ch=1 n=e4 v=123
532989 On ch=1 n=e3 v=125
532999 On ch=1 n=e5 v=0
533002 On ch=1 n=a4 v=0
533022 On ch=1 n=c#5 v=0
533034 On ch=2 n=d#7 v=110
533034 On ch=2 n=c8 v=110
533044 On ch=2 n=d#8 v=110
533146 On ch=2 n=c8 v=0
533149 On ch=2 n=d#8 v=0
533166 On ch=2 n=d#7 v=0
533224 On ch=2 n=c#8 v=127
533232 On ch=1 n=c#5 v=89
533234 On ch=2 n=e7 v=127
533237 On ch=2 n=a7 v=127
533237 On ch=2 n=e8 v=127
533242 On ch=1 n=a4 v=90
533242 On ch=1 n=e5 v=90
533244 On ch=1 n=e3 v=0
533244 On ch=1 n=e4 v=0
533394 On ch=1 n=e5 v=0
533404 On ch=1 n=a4 v=0
533411 On ch=1 n=c#5 v=0
533414 Par ch=1 c=64 v=0
533414 Par ch=2 c=64 v=0
533506 On ch=2 n=e7 v=0
533516 On ch=2 n=e8 v=0
533540 On ch=2 n=c#8 v=0
533563 On ch=2 n=a7 v=0
533591 On ch=2 n=d8 v=121
533608 On ch=2 n=f#8 v=121
533618 On ch=2 n=f#7 v=121
533636 On ch=1 n=d3 v=127
533636 On ch=1 n=d4 v=127
533673 On ch=2 n=f#8 v=0
533691 Par ch=1 c=64 v=127
533691 Par ch=2 c=64 v=127
533716 On ch=2 n=d8 v=0
533723 On ch=2 n=f#7 v=0
533783 On ch=1 n=d4 v=0
533793 On ch=1 n=d3 v=0
533813 On ch=2 n=c#8 v=118
533821 On ch=1 n=d5 v=90
533823 On ch=2 n=f8 v=117
533823 On ch=2 n=g#5 v=117
533831 On ch=1 n=b4 v=90
533833 On ch=2 n=f7 v=117
533880 On ch=2 n=f8 v=0
533900 On ch=2 n=c#8 v=0
533908 On ch=1 n=d5 v=0
533910 On ch=2 n=f7 v=0
533918 On ch=1 n=b4 v=0
533918 On ch=2 n=g#5 v=0
534013 On ch=1 n=f#4 v=121
534023 On ch=2 n=f#7 v=127
534033 On ch=2 n=d8 v=127
534033 On ch=2 n=f#8 v=127
534138 On ch=2 n=d8 v=0
534148 On ch=1 n=d5 v=90
534150 On ch=2 n=g#5 v=125
534158 On ch=1 n=b4 v=90
534168 On ch=2 n=f#8 v=0
534190 On ch=1 n=f#4 v=0
534192 On ch=2 n=f#7 v=0
534213 Par ch=1 c=64 v=0
534213 Par ch=2 c=64 v=0
534240 On ch=2 n=g#5 v=0
534250 On ch=1 n=d5 v=0
534260 On ch=1 n=b4 v=0
534368 On ch=1 n=e4 v=117
534370 On ch=1 n=e3 v=118
534485 Par ch=1 c=64 v=127
534485 Par ch=2 c=64 v=127
534522 On ch=1 n=e3 v=0
534523 On ch=1 n=e4 v=0
534555 On ch=2 n=d6 v=118
534558 On ch=2 n=d7 v=118
534568 On ch=2 n=b6 v=118
534585 On ch=2 n=g#5 v=118
534595 On ch=1 n=d5 v=97
534605 On ch=1 n=b4 v=98
534633 On ch=2 n=d7 v=0
534637 On ch=2 n=d6 v=0
534640 On ch=2 n=b6 v=0
534657 On ch=2 n=g#5 v=0
534680 On ch=1 n=d5 v=0
534697 On ch=1 n=b4 v=0
534758 On ch=1 n=g#4 v=127
534770 On ch=2 n=c#6 v=115
534770 On ch=2 n=a#6 v=115
534770 On ch=2 n=c#7 v=115
534822 On ch=2 n=c#7 v=0
534840 On ch=2 n=a#6 v=0
534840 On ch=2 n=c#6 v=0
534900 On ch=1 n=g#4 v=0
534908 On ch=2 n=g#5 v=112
534925 Par ch=1 c=64 v=0
534925 Par ch=2 c=64 v=0
534928 On ch=1 n=d5 v=90
534938 On ch=1 n=b4 v=90
534963 On ch=2 n=d7 v=112
534963 On ch=2 n=b6 v=112
534993 On ch=2 n=d6 v=111
535000 On ch=1 n=d5 v=0
535000 On ch=2 n=g#5 v=0
535010 On ch=1 n=b4 v=0
535042 On ch=2 n=b6 v=0
535045 On ch=2 n=d7 v=0
535070 On ch=2 n=d6 v=0
535107 On ch=1 n=a3 v=126
535107 On ch=1 n=a4 v=126
535122 On ch=2 n=e7 v=127
535130 On ch=2 n=e6 v=127
535132 On ch=2 n=c#7 v=127
535182 On ch=1 n=a4 v=0
535185 Par ch=1 c=64 v=127
535185 Par ch=2 c=64 v=127
535214 On ch=2 n=c#7 v=0
535217 On ch=2 n=e7 v=0
535232 On ch=2 n=e6 v=0
535252 On ch=1 n=a3 v=0
535305 On ch=2 n=c7 v=127
535305 On ch=2 n=d#7 v=127
535310 On ch=1 n=e5 v=93
535312 On ch=2 n=d#6 v=127
535322 On ch=1 n=c#5 v=95
535322 On ch=2 n=a5 v=127
535347 On ch=2 n=c7 v=0
535354 On ch=2 n=d#6 v=0
535372 On ch=1 n=e5 v=0
535384 On ch=2 n=a5 v=0
535392 On ch=1 n=c#5 v=0
535415 On ch=2 n=e7 v=127
535432 On ch=1 n=a4 v=118
535435 On ch=2 n=e6 v=127
535437 On ch=2 n=d#7 v=0
535455 On ch=2 n=c7 v=127
535560 Par ch=1 c=64 v=0
535560 Par ch=2 c=64 v=0
535572 On ch=1 n=e5 v=90
535580 On ch=2 n=c7 v=0
535580 On ch=2 n=e7 v=0
535582 On ch=1 n=c#5 v=90
535582 On ch=2 n=a5 v=125
535617 On ch=2 n=e6 v=0
535644 On ch=1 n=a4 v=0
535652 On ch=2 n=a5 v=0
535652 On ch=1 n=e5 v=0
535654 On ch=1 n=c#5 v=0
535815 On ch=2 n=c#6 v=121
535817 On ch=2 n=c#7 v=121
535820 On ch=1 n=g3 v=127
535822 On ch=1 n=g4 v=127
535832 On ch=2 n=e6 v=121
535854 Par ch=1 c=64 v=127
535854 Par ch=2 c=64 v=127
535896 On ch=2 n=c#7 v=0
535904 On ch=2 n=e6 v=0
535904 On ch=2 n=c#6 v=0
535952 On ch=1 n=g3 v=0
535954 On ch=1 n=g4 v=0
536002 On ch=1 n=e5 v=91
536002 On ch=2 n=a5 v=118
536004 On ch=2 n=d#6 v=118
536004 On ch=2 n=c7 v=118
536012 On ch=1 n=c#5 v=93
536014 On ch=2 n=c6 v=118
536064 On ch=2 n=a5 v=0
536082 On ch=1 n=c#5 v=0
536082 On ch=1 n=e5 v=0
536084 On ch=2 n=c6 v=0
536086 On ch=2 n=c7 v=0
536086 On ch=2 n=d#6 v=0
536132 On ch=1 n=a4 v=116
536204 On ch=2 n=c#6 v=127
536214 On ch=2 n=e6 v=127
536217 On ch=2 n=c#7 v=127
536287 On ch=1 n=a4 v=0
536294 On ch=1 n=e5 v=90
536304 On ch=2 n=a5 v=125
536314 On ch=1 n=c#5 v=90
536329 Par ch=1 c=64 v=0
536329 Par ch=2 c=64 v=0
536371 On ch=1 n=e5 v=0
536374 On ch=2 n=a5 v=0
536406 On ch=2 n=e6 v=0
536406 On ch=2 n=c#6 v=0
536459 On ch=2 n=c#7 v=0
536506 On ch=1 n=c#5 v=0
536514 On ch=1 n=f#4 v=125
536519 On ch=1 n=f#3 v=125
536547 On ch=2 n=f#6 v=122
536549 On ch=2 n=d7 v=122
536557 On ch=2 n=d6 v=122
536596 On ch=1 n=f#4 v=0
536611 On ch=2 n=d7 v=0
536612 Par ch=1 c=64 v=127
536612 Par ch=2 c=64 v=127
536629 On ch=2 n=d6 v=0
536632 On ch=2 n=f#6 v=0
536676 On ch=1 n=f#3 v=0
536686 On ch=1 n=d5 v=95
536686 On ch=1 n=f#5 v=95
536696 On ch=2 n=c#7 v=119
536703 On ch=2 n=a5 v=119
536726 On ch=2 n=f6 v=118
536743 On ch=2 n=a5 v=0
536746 On ch=2 n=c#6 v=118
536753 On ch=1 n=f#5 v=0
536753 On ch=1 n=d5 v=0
536788 On ch=2 n=c#7 v=0
536791 On ch=1 n=a4 v=117
536796 On ch=2 n=f6 v=0
536806 On ch=2 n=c#6 v=0
536896 On ch=2 n=a5 v=127
536916 On ch=1 n=f#5 v=90
536923 On ch=1 n=d5 v=90
536926 On ch=2 n=d6 v=127
536926 On ch=2 n=f#6 v=127
536926 On ch=2 n=d7 v=127
536986 On ch=2 n=a5 v=0
536988 On ch=1 n=a4 v=0
537006 On ch=1 n=f#5 v=0
537008 On ch=1 n=d5 v=0
537048 On ch=2 n=d6 v=0
537051 On ch=2 n=d7 v=0
537058 On ch=2 n=f#6 v=0
537126 Par ch=1 c=64 v=0
537126 Par ch=2 c=64 v=0
537298 On ch=1 n=b3 v=124
537298 On ch=1 n=f4 v=124
537303 On ch=2 n=b6 v=127
537306 On ch=1 n=f3 v=124
537313 On ch=2 n=d6 v=127
537331 On ch=2 n=a5 v=127
537406 Par ch=1 c=64 v=127
537406 Par ch=2 c=64 v=127
537445 On ch=2 n=b6 v=0
537450 On ch=2 n=d6 v=0
537461 On ch=2 n=a5 v=0
537593 On ch=1 n=b3 v=0
537601 On ch=1 n=f3 v=0
537603 On ch=1 n=f4 v=0
537638 Par ch=1 c=64 v=0
537638 Par ch=2 c=64 v=0
537776 On ch=2 n=g#6 v=127
537781 On ch=1 n=b3 v=127
537781 On ch=1 n=e3 v=127
537781 On ch=1 n=e4 v=127
537786 On ch=2 n=d6 v=127
537786 On ch=2 n=e7 v=127
537893 On ch=1 n=e4 v=0
537903 On ch=1 n=e3 v=0
537906 On ch=2 n=e7 v=0
537913 On ch=1 n=b3 v=0
537916 On ch=2 n=g#6 v=0
537931 On ch=2 n=d6 v=0
538236 Par ch=1 c=64 v=127
538236 Par ch=2 c=64 v=127
538256 On ch=2 n=c#8 v=127
538256 On ch=2 n=e7 v=127
538258 On ch=1 n=a2 v=127
538258 On ch=2 n=e8 v=127
538278 On ch=1 n=a3 v=127
538346 On ch=2 n=e7 v=0
538348 On ch=2 n=c#8 v=0
538350 On ch=2 n=e8 v=0
538380 On ch=1 n=a3 v=0
538450 On ch=1 n=a2 v=0
538476 On ch=2 n=d#7 v=123
538481 On ch=1 n=a4 v=90
538488 On ch=2 n=c8 v=123
538488 On ch=2 n=d#8 v=123
538491 On ch=1 n=c#5 v=90
538491 On ch=1 n=e5 v=90
538560 On ch=2 n=d#8 v=0
538561 On ch=1 n=e5 v=0
538566 On ch=2 n=d#7 v=0
538568 On ch=2 n=c8 v=0
538571 On ch=1 n=c#5 v=0
538583 On ch=1 n=a4 v=0
538608 On ch=1 n=e4 v=89
538708 On ch=2 n=e7 v=127
538708 On ch=2 n=c#8 v=127
538711 On ch=2 n=e8 v=127
538793 On ch=1 n=a4 v=90
538795 On ch=1 n=e4 v=0
538796 On ch=1 n=e5 v=89
538801 Par ch=1 c=64 v=0
538801 Par ch=2 c=64 v=0
538816 On ch=1 n=c#5 v=90
538898 On ch=1 n=a4 v=0
538916 On ch=2 n=e8 v=0
538926 On ch=1 n=e5 v=0
538930 On ch=2 n=e7 v=0
538933 On ch=2 n=c#8 v=0
538936 On ch=1 n=c#5 v=0
539023 On ch=2 n=f#8 v=122
539033 On ch=2 n=f#7 v=122
539043 On ch=2 n=d8 v=122
539046 On ch=1 n=d3 v=127
539046 On ch=1 n=d4 v=127
539083 Par ch=1 c=64 v=127
539083 Par ch=2 c=64 v=127
539103 On ch=2 n=f#7 v=0
539105 On ch=2 n=d8 v=0
539108 On ch=2 n=f#8 v=0
539171 On ch=1 n=d4 v=0
539171 On ch=1 n=d3 v=0
539216 On ch=2 n=c#8 v=119
539216 On ch=2 n=f8 v=119
539226 On ch=2 n=f7 v=119
539253 On ch=1 n=f#5 v=123
539271 On ch=1 n=a4 v=123
539273 On ch=1 n=d5 v=123
539291 On ch=2 n=f8 v=0
539298 On ch=2 n=c#8 v=0
539300 On ch=1 n=f#5 v=0
539310 On ch=1 n=a4 v=0
539313 On ch=2 n=f7 v=0
539320 On ch=1 n=d5 v=0
539370 On ch=1 n=f#4 v=122
539403 On ch=2 n=f#7 v=127
539403 On ch=2 n=f#8 v=127
539415 On ch=2 n=d8 v=127
539480 On ch=1 n=f#5 v=120
539488 On ch=1 n=a4 v=120
539500 On ch=1 n=d5 v=119
539510 On ch=1 n=f#4 v=0
539530 On ch=1 n=f#5 v=0
539550 On ch=1 n=a4 v=0
539557 On ch=2 n=d8 v=0
539560 On ch=1 n=d5 v=0
539568 On ch=2 n=f#8 v=0
539605 On ch=2 n=f#7 v=0
539605 Par ch=1 c=64 v=0
539605 Par ch=2 c=64 v=0
539760 On ch=1 n=e3 v=127
539780 On ch=1 n=e4 v=126
539865 Par ch=1 c=64 v=127
539865 Par ch=2 c=64 v=127
539905 On ch=1 n=e4 v=0
539945 On ch=1 n=e3 v=0
539955 On ch=2 n=d6 v=118
539965 On ch=2 n=d7 v=118
539965 On ch=2 n=b6 v=118
540000 On ch=1 n=b4 v=123
540002 On ch=1 n=d5 v=123
540012 On ch=2 n=g#5 v=117
540014 On ch=2 n=d6 v=0
540024 On ch=2 n=b6 v=0
540024 On ch=2 n=d7 v=0
540081 On ch=2 n=g#5 v=0
540081 On ch=1 n=d5 v=0
540082 On ch=1 n=b4 v=0
540114 On ch=2 n=c#7 v=115
540122 On ch=2 n=c#6 v=115
540124 On ch=2 n=a#6 v=115
540169 On ch=1 n=g#4 v=120
540174 On ch=2 n=c#6 v=0
540186 On ch=2 n=c#7 v=0
540196 On ch=2 n=a#6 v=0
540236 Par ch=1 c=64 v=0
540236 Par ch=2 c=64 v=0
540273 On ch=1 n=g#4 v=0
540284 On ch=2 n=d7 v=113
540291 On ch=2 n=d6 v=112
540294 On ch=2 n=b6 v=112
540311 On ch=1 n=b4 v=123
540311 On ch=2 n=g#5 v=112
540321 On ch=1 n=d5 v=126
540368 On ch=2 n=b6 v=0
540375 On ch=2 n=g#5 v=0
540375 On ch=2 n=d6 v=0
540378 On ch=2 n=d7 v=0
540385 On ch=1 n=b4 v=0
540395 On ch=1 n=d5 v=0
540445 On ch=1 n=a3 v=127
540455 On ch=2 n=e6 v=127
540465 On ch=1 n=a4 v=127
540467 On ch=2 n=e7 v=127
540477 On ch=2 n=c#7 v=127
540507 Par ch=1 c=64 v=127
540507 Par ch=2 c=64 v=127
540517 On ch=1 n=a4 v=0
540547 On ch=2 n=c#7 v=0
540549 On ch=2 n=e7 v=0
540577 On ch=2 n=e6 v=0
540602 On ch=1 n=e5 v=125
540612 On ch=2 n=a5 v=124
540622 On ch=1 n=c#5 v=124
540632 On ch=1 n=a3 v=0
540647 On ch=2 n=d#7 v=127
540654 On ch=2 n=a5 v=0
540665 On ch=2 n=c7 v=127
540674 On ch=1 n=c#5 v=0
540684 On ch=1 n=e5 v=0
540695 On ch=2 n=d#6 v=127
540727 On ch=2 n=c7 v=0
540735 On ch=2 n=d#6 v=0
540742 On ch=1 n=a4 v=122
540757 On ch=2 n=e7 v=127
540767 On ch=2 n=d#7 v=0
540767 On ch=2 n=c#7 v=127
540777 On ch=2 n=e6 v=127
540872 On ch=2 n=c#7 v=0
540882 On ch=2 n=e7 v=0
540889 On ch=2 n=e6 v=0
540895 On ch=2 n=a5 v=125
540897 On ch=1 n=c#5 v=120
540905 On ch=1 n=e5 v=120
540930 Par ch=1 c=64 v=0
540930 Par ch=2 c=64 v=0
540967 On ch=1 n=c#5 v=0
540967 On ch=2 n=a5 v=0
540977 On ch=1 n=e5 v=0
540989 On ch=1 n=a4 v=0
541110 On ch=2 n=c#7 v=127
541120 On ch=2 n=e7 v=127
541122 On ch=2 n=c#8 v=127
541132 On ch=1 n=g3 v=127
541137 On ch=1 n=g4 v=127
541180 Par ch=1 c=64 v=127
541180 Par ch=2 c=64 v=127
541194 On ch=2 n=c#8 v=0
541202 On ch=2 n=e7 v=0
541202 On ch=2 n=c#7 v=0
541249 On ch=1 n=g4 v=0
541257 On ch=1 n=g3 v=0
541302 On ch=2 n=c8 v=124
541312 On ch=2 n=c7 v=124
541312 On ch=2 n=d#7 v=124
541342 On ch=2 n=a#5 v=123
541350 On ch=1 n=c#5 v=123
541350 On ch=1 n=e5 v=123
541384 On ch=2 n=a#5 v=0
541392 On ch=1 n=c#5 v=0
541394 On ch=2 n=d#7 v=0
541399 On ch=2 n=c8 v=0
541402 On ch=1 n=e5 v=0
541424 On ch=2 n=c7 v=0
541462 On ch=1 n=a#4 v=121
541510 On ch=2 n=c#8 v=127
541520 On ch=2 n=c#7 v=127
541520 On ch=2 n=e7 v=127
541587 On ch=2 n=a#5 v=126
541602 Par ch=1 c=64 v=0
541602 Par ch=2 c=64 v=0
541607 On ch=1 n=e5 v=119
541607 On ch=1 n=c#5 v=119
541672 On ch=2 n=a#5 v=0
541672 On ch=2 n=c#7 v=0
541672 On ch=1 n=a#4 v=0
541677 On ch=1 n=c#5 v=0
541682 On ch=2 n=e7 v=0
541687 On ch=1 n=e5 v=0
541717 On ch=2 n=c#8 v=0
541802 On ch=1 n=f#4 v=127
541807 On ch=1 n=f#3 v=127
541812 On ch=2 n=f#7 v=123
541827 On ch=2 n=d8 v=122
541835 On ch=2 n=d7 v=122
541865 Par ch=1 c=64 v=127
541865 Par ch=2 c=64 v=127
541889 On ch=2 n=d8 v=0
541899 On ch=2 n=f#7 v=0
541917 On ch=2 n=d7 v=0
541944 On ch=1 n=f#4 v=0
541992 On ch=1 n=d5 v=123
541992 On ch=2 n=b5 v=120
541995 On ch=2 n=f7 v=120
541995 On ch=2 n=c#8 v=120
542002 On ch=1 n=f#5 v=123
542012 On ch=2 n=c#7 v=119
542039 On ch=1 n=f#3 v=0
542041 On ch=1 n=f#5 v=0
542051 On ch=2 n=b5 v=0
542051 On ch=1 n=d5 v=0
542067 On ch=2 n=f7 v=0
542069 On ch=2 n=c#8 v=0
542094 On ch=2 n=c#7 v=0
542119 On ch=1 n=b4 v=122
542164 On ch=2 n=f#7 v=127
542164 On ch=2 n=d8 v=127
542174 On ch=2 n=d7 v=127
542272 On ch=1 n=d5 v=119
542282 On ch=1 n=f#5 v=119
542284 On ch=2 n=b5 v=125
542304 On ch=1 n=b4 v=0
542316 On ch=2 n=f#7 v=0
542326 On ch=2 n=d8 v=0
542333 On ch=2 n=d7 v=0
542339 On ch=1 n=f#5 v=0
542351 On ch=2 n=b5 v=0
542351 On ch=1 n=d5 v=0
542411 Par ch=1 c=64 v=0
542411 Par ch=2 c=64 v=0
542509 On ch=2 n=d6 v=127
542526 On ch=1 n=f3 v=127
542529 On ch=1 n=b3 v=127
542529 On ch=2 n=b6 v=127
542536 On ch=2 n=a5 v=127
542546 On ch=1 n=f4 v=127
542661 On ch=2 n=b6 v=0
542669 On ch=2 n=d6 v=0
542698 On ch=2 n=a5 v=0
542728 On ch=1 n=f4 v=0
542729 On ch=1 n=b3 v=0
542748 On ch=1 n=f3 v=0
542919 On ch=1 n=b3 v=120
542929 On ch=1 n=e3 v=120
542929 On ch=1 n=e4 v=120
542929 On ch=2 n=g#6 v=127
542939 On ch=2 n=e7 v=127
542941 On ch=2 n=d6 v=127
543061 On ch=2 n=g#6 v=0
543071 On ch=2 n=d6 v=0
543071 On ch=1 n=e4 v=0
543074 On ch=2 n=e7 v=0
543094 On ch=1 n=e3 v=0
543094 On ch=1 n=b3 v=0
543294 On ch=2 n=a6 v=127
543306 Par ch=1 c=64 v=127
543306 Par ch=2 c=64 v=127
543314 On ch=1 n=a3 v=127
543314 On ch=2 n=a5 v=127
543324 On ch=1 n=a4 v=127
543356 On ch=2 n=a5 v=0
543366 On ch=1 n=a4 v=0
543366 On ch=2 n=a6 v=0
543376 On ch=1 n=a3 v=0
543476 On ch=1 n=a3 v=124
543496 On ch=1 n=a4 v=124
543498 On ch=2 n=a5 v=123
543498 On ch=2 n=a6 v=123
543518 On ch=1 n=a3 v=0
543538 On ch=2 n=a5 v=0
543540 On ch=2 n=a6 v=0
543541 On ch=1 n=a4 v=0
543681 On ch=2 n=e6 v=127
543691 On ch=1 n=e3 v=127
543691 On ch=1 n=e4 v=127
543701 On ch=1 n=e5 v=127
543723 On ch=2 n=e6 v=0
543733 On ch=1 n=e4 v=0
543733 On ch=1 n=e3 v=0
543740 On ch=1 n=e5 v=0
543840 On ch=1 n=e4 v=125
543840 On ch=2 n=e6 v=124
543850 On ch=1 n=e3 v=124
543850 On ch=1 n=e5 v=124
543875 On ch=2 n=e6 v=0
543882 On ch=1 n=e4 v=0
543892 On ch=1 n=e5 v=0
543895 On ch=1 n=e3 v=0
544008 On ch=2 n=a5 v=127
544010 On ch=1 n=a3 v=127
544020 On ch=2 n=a6 v=127
544028 On ch=1 n=a4 v=127
544050 On ch=2 n=a5 v=0
544052 On ch=1 n=a3 v=0
544062 On ch=2 n=a6 v=0
544083 On ch=1 n=a4 v=0
544153 Par ch=1 c=64 v=0
544153 Par ch=2 c=64 v=0
544168 On ch=2 n=a5 v=125
544170 On ch=2 n=a6 v=124
544178 On ch=1 n=a3 v=124
544188 On ch=1 n=a4 v=124
544208 On ch=2 n=a5 v=0
544212 On ch=2 n=a6 v=0
544220 On ch=1 n=a3 v=0
544230 On ch=1 n=a4 v=0
544360 On ch=2 n=a#7 v=127
544370 On ch=2 n=d7 v=127
544375 On ch=1 n=f3 v=127
544378 On ch=1 n=d3 v=127
544378 On ch=2 n=a#6 v=127
544385 On ch=1 n=a#3 v=127
544388 On ch=1 n=d4 v=127
544535 On ch=1 n=d3 v=0
544535 On ch=2 n=a#7 v=0
544545 On ch=2 n=a#6 v=0
544552 On ch=2 n=d7 v=0
544560 On ch=1 n=f3 v=0
544562 On ch=1 n=a#3 v=0
544563 On ch=1 n=d4 v=0
544725 On ch=2 n=a6 v=127
544743 On ch=1 n=a3 v=127
544743 On ch=1 n=a4 v=127
544750 On ch=2 n=a5 v=127
544765 On ch=2 n=a6 v=0
544785 On ch=1 n=a4 v=0
544785 On ch=1 n=a3 v=0
544792 On ch=2 n=a5 v=0
544853 Par ch=1 c=64 v=127
544853 Par ch=2 c=64 v=127
544893 On ch=2 n=a6 v=125
544900 On ch=1 n=a3 v=124
544903 On ch=2 n=a5 v=125
544923 On ch=1 n=a4 v=124
544938 On ch=2 n=a6 v=0
544943 On ch=2 n=a5 v=0
544945 On ch=1 n=a3 v=0
544955 On ch=1 n=a4 v=0
545085 On ch=1 n=e3 v=122
545085 On ch=2 n=e6 v=122
545095 On ch=1 n=e4 v=121
545105 On ch=1 n=e5 v=121
545122 On ch=1 n=e3 v=0
545127 On ch=2 n=e6 v=0
545137 On ch=1 n=e4 v=0
545145 On ch=1 n=e5 v=0
545237 On ch=1 n=e3 v=119
545247 On ch=1 n=e4 v=119
545250 On ch=2 n=e6 v=119
545257 On ch=1 n=e5 v=118
545282 On ch=1 n=e3 v=0
545292 On ch=1 n=e5 v=0
545292 On ch=2 n=e6 v=0
545292 On ch=1 n=e4 v=0
545412 On ch=1 n=a3 v=127
545415 On ch=2 n=a6 v=127
545422 On ch=2 n=a5 v=127
545425 On ch=1 n=a4 v=127
545457 On ch=2 n=a6 v=0
545457 On ch=1 n=a3 v=0
545464 On ch=2 n=a5 v=0
545467 On ch=1 n=a4 v=0
545570 Par ch=1 c=64 v=0
545570 Par ch=2 c=64 v=0
545597 On ch=1 n=a4 v=124
545600 On ch=2 n=a6 v=124
545607 On ch=1 n=a3 v=124
545607 On ch=2 n=a5 v=124
545642 On ch=2 n=a6 v=0
545642 On ch=1 n=a4 v=0
545649 On ch=2 n=a5 v=0
545649 On ch=1 n=a3 v=0
545800 On ch=2 n=b6 v=127
545807 On ch=2 n=b7 v=127
545817 On ch=1 n=b3 v=127
545817 On ch=2 n=f#7 v=127
545825 On ch=1 n=f#3 v=127
545827 On ch=1 n=d4 v=127
545827 On ch=2 n=d7 v=127
545837 On ch=1 n=d3 v=127
545847 Par ch=1 c=64 v=127
545847 Par ch=2 c=64 v=127
545952 On ch=2 n=b6 v=0
545979 On ch=1 n=d3 v=0
545982 On ch=2 n=b7 v=0
545987 On ch=1 n=f#3 v=0
545989 On ch=2 n=d7 v=0
545989 On ch=1 n=b3 v=0
545992 On ch=2 n=f#7 v=0
545999 On ch=1 n=d4 v=0
546100 Par ch=1 c=64 v=0
546100 Par ch=2 c=64 v=0
546175 On ch=1 n=a3 v=127
546175 On ch=2 n=a6 v=127
546185 On ch=1 n=a4 v=127
546197 On ch=2 n=a5 v=127
546217 On ch=1 n=a3 v=0
546220 On ch=2 n=a6 v=0
546227 On ch=2 n=a5 v=0
546237 On ch=1 n=a4 v=0
546355 On ch=1 n=a3 v=124
546355 On ch=2 n=a6 v=124
546357 Par ch=1 c=64 v=127
546357 Par ch=2 c=64 v=127
546365 On ch=1 n=a4 v=124
546375 On ch=2 n=a5 v=123
546397 On ch=1 n=a3 v=0
546400 On ch=2 n=a6 v=0
546407 On ch=1 n=a4 v=0
546417 On ch=2 n=a5 v=0
546545 On ch=1 n=e4 v=121
546547 On ch=1 n=e3 v=121
546547 On ch=1 n=e5 v=121
546557 On ch=2 n=e6 v=121
546579 On ch=1 n=e3 v=0
546589 On ch=2 n=e6 v=0
546590 On ch=1 n=e4 v=0
546597 On ch=1 n=e5 v=0
546712 On ch=1 n=e3 v=118
546722 On ch=1 n=e4 v=118
546722 On ch=2 n=e6 v=118
546732 On ch=1 n=e5 v=121
546754 On ch=1 n=e3 v=0
546764 On ch=2 n=e6 v=0
546764 On ch=1 n=e4 v=0
546772 On ch=1 n=e5 v=0
546905 On ch=2 n=a5 v=127
546915 On ch=1 n=a3 v=127
546915 On ch=2 n=a6 v=127
546925 On ch=1 n=a4 v=127
546947 On ch=2 n=a5 v=0
546957 On ch=1 n=a3 v=0
546960 On ch=1 n=a4 v=0
546960 On ch=2 n=a6 v=0
547060 On ch=2 n=a6 v=124
547067 On ch=2 n=a5 v=124
547087 On ch=1 n=a3 v=123
547090 On ch=1 n=a4 v=123
547102 On ch=2 n=a6 v=0
547102 Par ch=1 c=64 v=0
547102 Par ch=2 c=64 v=0
547112 On ch=2 n=a5 v=0
547132 On ch=1 n=a4 v=0
547132 On ch=1 n=a3 v=0
547307 On ch=2 n=c8 v=127
547312 On ch=1 n=c3 v=127
547312 On ch=1 n=c4 v=127
547322 On ch=1 n=g3 v=127
547325 On ch=1 n=e3 v=127
547325 On ch=2 n=c7 v=127
547325 On ch=2 n=g7 v=127
547327 On ch=2 n=e7 v=127
547477 Par ch=1 c=64 v=127
547477 Par ch=2 c=64 v=127
547519 On ch=2 n=e7 v=0
547522 On ch=2 n=c8 v=0
547540 On ch=2 n=c7 v=0
547542 On ch=2 n=g7 v=0
547549 On ch=1 n=c3 v=0
547550 On ch=1 n=e3 v=0
547557 On ch=1 n=g3 v=0
547559 On ch=1 n=c4 v=0
547785 On ch=1 n=a3 v=127
547795 On ch=1 n=a4 v=127
547795 On ch=2 n=a5 v=127
547797 On ch=2 n=a6 v=127
547837 On ch=2 n=a5 v=0
547837 On ch=1 n=a4 v=0
547837 On ch=1 n=a3 v=0
547839 On ch=2 n=a6 v=0
548020 On ch=1 n=a4 v=123
548020 On ch=1 n=a3 v=123
548020 On ch=2 n=a5 v=123
548022 On ch=2 n=a6 v=123
548084 On ch=2 n=a6 v=0
548092 On ch=2 n=a5 v=0
548095 On ch=1 n=a4 v=0
548105 On ch=1 n=a3 v=0
548280 On ch=1 n=e4 v=127
548282 On ch=2 n=e6 v=127
548290 On ch=1 n=e3 v=127
548302 On ch=1 n=e5 v=127
548325 On ch=1 n=e3 v=0
548325 On ch=1 n=e4 v=0
548342 On ch=1 n=e5 v=0
548344 On ch=2 n=e6 v=0
548495 On ch=2 n=e6 v=124
548505 On ch=1 n=e5 v=123
548505 On ch=1 n=e3 v=123
548505 On ch=1 n=e4 v=123
548540 On ch=2 n=e6 v=0
548555 On ch=1 n=e5 v=0
548567 On ch=1 n=e3 v=0
548570 On ch=1 n=e4 v=0
548767 On ch=1 n=a4 v=127
548767 On ch=2 n=a5 v=127
548770 On ch=2 n=a6 v=127
548777 On ch=1 n=a3 v=127
548829 On ch=2 n=a5 v=0
548839 On ch=2 n=a6 v=0
548839 On ch=1 n=a4 v=0
548859 On ch=1 n=a3 v=0
548974 On ch=1 n=a3 v=123
548984 On ch=2 n=a5 v=123
548986 On ch=2 n=a6 v=123
548991 On ch=1 n=a4 v=123
549023 On ch=1 n=a3 v=0
549026 On ch=2 n=a6 v=0
549036 On ch=1 n=a4 v=0
549054 On ch=2 n=a5 v=0
549319 Par ch=1 c=64 v=0
549319 Par ch=2 c=64 v=0
549386 On ch=1 n=e3 v=127
549396 On ch=1 n=b3 v=127
549399 On ch=2 n=g#7 v=127
549406 On ch=1 n=b2 v=127
549421 On ch=2 n=e7 v=127
549421 On ch=2 n=e8 v=127
549429 On ch=2 n=d7 v=127
549644 Par ch=1 c=64 v=127
549644 Par ch=2 c=64 v=127
549813 On ch=1 n=e3 v=0
549833 On ch=1 n=b2 v=0
549833 On ch=1 n=b3 v=0
549859 On ch=2 n=d7 v=0
549868 On ch=2 n=e7 v=0
549873 On ch=2 n=e8 v=0
549989 On ch=2 n=g#7 v=0
549999 Par ch=1 c=64 v=0
549999 Par ch=2 c=64 v=0
550111 On ch=2 n=e8 v=127
550116 On ch=1 n=e3 v=127
550116 On ch=1 n=a2 v=127
550116 On ch=1 n=a3 v=127
550131 On ch=2 n=e7 v=127
550131 On ch=2 n=a7 v=127
550254 Par ch=1 c=64 v=127
550254 Par ch=2 c=64 v=127
550321 On ch=1 n=a2 v=0
550321 On ch=1 n=e3 v=0
550331 On ch=1 n=a3 v=0
550346 On ch=2 n=e7 v=0
550356 On ch=2 n=a7 v=0
550361 On ch=2 n=e8 v=0
550471 On ch=1 n=e3 v=121
550479 On ch=1 n=a2 v=121
550506 On ch=2 n=a7 v=121
550506 On ch=2 n=e8 v=121
550511 On ch=1 n=a3 v=120
550516 On ch=2 n=e7 v=121
550543 On ch=2 n=e8 v=0
550551 On ch=2 n=a7 v=0
550558 On ch=2 n=e7 v=0
550566 On ch=1 n=e3 v=0
550576 On ch=1 n=a3 v=0
550576 On ch=1 n=a2 v=0
550691 On ch=1 n=e3 v=117
550699 On ch=1 n=a#2 v=117
550709 On ch=1 n=a#3 v=117
550726 On ch=2 n=a#7 v=117
550734 On ch=2 n=a#6 v=117
550754 On ch=2 n=e7 v=117
550771 On ch=2 n=a#7 v=0
550773 On ch=1 n=e3 v=0
550774 On ch=1 n=a#2 v=0
550784 On ch=1 n=a#3 v=0
550796 On ch=2 n=e7 v=0
550806 On ch=2 n=a#6 v=0
550894 On ch=2 n=a#7 v=115
550896 On ch=1 n=a#2 v=114
550899 On ch=1 n=e3 v=114
550899 On ch=1 n=a#3 v=114
550901 On ch=2 n=a#6 v=115
550904 On ch=2 n=e7 v=115
550968 On ch=1 n=a#2 v=0
550969 On ch=1 n=a#3 v=0
550971 On ch=1 n=e3 v=0
550973 On ch=2 n=a#6 v=0
550974 On ch=2 n=e7 v=0
550974 On ch=2 n=a#7 v=0
551079 On ch=2 n=a7 v=127
551081 On ch=1 n=e3 v=127
551084 On ch=2 n=a6 v=127
551089 On ch=1 n=a2 v=126
551091 On ch=1 n=a3 v=126
551096 On ch=2 n=e7 v=127
551119 On ch=2 n=a7 v=0
551124 On ch=1 n=a2 v=0
551126 On ch=2 n=a6 v=0
551138 On ch=2 n=e7 v=0
551143 On ch=1 n=e3 v=0
551153 On ch=1 n=a3 v=0
551236 On ch=1 n=a2 v=124
551236 On ch=1 n=a3 v=124
551239 On ch=1 n=e3 v=124
551241 On ch=2 n=a6 v=124
551246 On ch=2 n=a7 v=124
551254 On ch=2 n=e7 v=124
551271 On ch=1 n=a2 v=0
551274 On ch=1 n=e3 v=0
551278 On ch=2 n=a7 v=0
551283 On ch=2 n=a6 v=0
551293 On ch=2 n=e7 v=0
551298 On ch=1 n=a3 v=0
551386 On ch=1 n=e3 v=122
551393 On ch=1 n=b2 v=122
551403 On ch=1 n=b3 v=121
551415 On ch=2 n=e6 v=122
551418 On ch=2 n=b6 v=122
551425 On ch=1 n=b2 v=0
551428 On ch=2 n=e7 v=121
551445 On ch=1 n=b3 v=0
551447 On ch=2 n=e6 v=0
551455 On ch=1 n=e3 v=0
551458 On ch=2 n=e7 v=0
551460 On ch=2 n=b6 v=0
551490 Par ch=1 c=64 v=0
551490 Par ch=2 c=64 v=0
551533 On ch=1 n=e3 v=119
551545 On ch=1 n=b3 v=120
551548 On ch=2 n=e7 v=125
551553 On ch=1 n=b2 v=122
551558 On ch=2 n=e6 v=127
551558 On ch=2 n=b6 v=127
551585 On ch=1 n=b2 v=0
551587 On ch=1 n=b3 v=0
551588 On ch=1 n=e3 v=0
551593 On ch=2 n=e7 v=0
551600 On ch=2 n=e6 v=0
551603 On ch=2 n=b6 v=0
551703 On ch=2 n=a6 v=127
551708 On ch=1 n=a2 v=127
551710 On ch=1 n=e3 v=127
551713 On ch=2 n=e6 v=127
551715 On ch=2 n=e7 v=127
551718 On ch=1 n=a3 v=127
551745 On ch=2 n=a6 v=0
551750 On ch=1 n=a2 v=0
551752 On ch=1 n=e3 v=0
551753 On ch=2 n=e6 v=0
551755 On ch=2 n=e7 v=0
551755 Par ch=1 c=64 v=127
551755 Par ch=2 c=64 v=127
551773 On ch=1 n=a3 v=0
551840 On ch=1 n=a2 v=125
551840 On ch=1 n=e3 v=125
551850 On ch=1 n=a3 v=125
551852 On ch=2 n=e7 v=125
551862 On ch=2 n=e6 v=125
551862 On ch=2 n=a6 v=125
551882 On ch=1 n=e3 v=0
551882 On ch=1 n=a2 v=0
551892 On ch=1 n=a3 v=0
551897 On ch=2 n=e7 v=0
551902 On ch=2 n=e6 v=0
551904 On ch=2 n=a6 v=0
552010 On ch=1 n=a#2 v=122
552012 On ch=1 n=a#3 v=122
552015 On ch=2 n=a#5 v=122
552017 On ch=2 n=a#6 v=122
552022 On ch=1 n=e3 v=122
552032 On ch=2 n=e6 v=122
552054 On ch=2 n=a#6 v=0
552061 On ch=1 n=a#3 v=0
552064 On ch=1 n=e3 v=0
552064 On ch=2 n=a#5 v=0
552074 On ch=1 n=a#2 v=0
552077 On ch=2 n=e6 v=0
552172 On ch=1 n=a#2 v=119
552174 On ch=1 n=e3 v=119
552177 On ch=2 n=a#5 v=120
552179 On ch=2 n=a#6 v=120
552194 On ch=1 n=a#3 v=120
552197 On ch=2 n=e6 v=123
552216 On ch=1 n=e3 v=0
552217 On ch=1 n=a#2 v=0
552219 On ch=2 n=a#6 v=0
552229 On ch=1 n=a#3 v=0
552229 On ch=2 n=a#5 v=0
552239 On ch=2 n=e6 v=0
552324 On ch=1 n=e3 v=127
552332 On ch=1 n=a2 v=127
552332 On ch=1 n=a3 v=127
552334 On ch=2 n=a5 v=127
552337 On ch=2 n=a6 v=127
552344 On ch=2 n=e6 v=127
552366 On ch=1 n=e3 v=0
552374 On ch=2 n=a5 v=0
552374 On ch=1 n=a2 v=0
552377 On ch=1 n=a3 v=0
552386 On ch=2 n=e6 v=0
552389 On ch=2 n=a6 v=0
552462 On ch=1 n=e3 v=125
552472 On ch=1 n=a2 v=125
552482 On ch=1 n=a3 v=125
552482 On ch=2 n=a5 v=125
552497 On ch=2 n=e6 v=125
552497 On ch=2 n=a6 v=125
552507 On ch=1 n=e3 v=0
552514 On ch=1 n=a2 v=0
552524 On ch=2 n=a5 v=0
552524 On ch=1 n=a3 v=0
552529 On ch=2 n=a6 v=0
552547 On ch=2 n=e6 v=0
552619 On ch=1 n=b2 v=122
552629 On ch=1 n=e3 v=122
552631 On ch=1 n=e5 v=122
552631 On ch=2 n=b5 v=122
552639 On ch=1 n=b3 v=122
552651 On ch=1 n=b2 v=0
552654 On ch=2 n=e6 v=122
552666 Par ch=1 c=64 v=0
552666 Par ch=2 c=64 v=0
552673 On ch=2 n=b5 v=0
552674 On ch=1 n=b3 v=0
552674 On ch=1 n=e3 v=0
552678 On ch=1 n=e5 v=0
552694 On ch=2 n=e6 v=0
552766 On ch=1 n=b2 v=127
552769 On ch=1 n=e3 v=127
552779 On ch=1 n=b3 v=127
552781 On ch=1 n=e5 v=127
552781 On ch=2 n=b5 v=120
552781 On ch=2 n=e6 v=120
552808 On ch=1 n=b2 v=0
552811 On ch=1 n=e3 v=0
552821 On ch=1 n=e5 v=0
552821 On ch=1 n=b3 v=0
552823 On ch=2 n=e6 v=0
552823 On ch=2 n=b5 v=0
552919 On ch=1 n=e3 v=127
552926 On ch=1 n=a3 v=127
552936 On ch=1 n=a2 v=127
552946 On ch=2 n=a5 v=127
552948 On ch=2 n=e6 v=127
552956 On ch=1 n=e5 v=126
552961 Par ch=1 c=64 v=127
552961 Par ch=2 c=64 v=127
552968 On ch=1 n=a3 v=0
552968 On ch=1 n=e3 v=0
552975 On ch=1 n=a2 v=0
552985 On ch=2 n=a5 v=0
552987 On ch=2 n=e6 v=0
552993 On ch=1 n=e5 v=0
553070 On ch=1 n=a2 v=124
553073 On ch=1 n=e3 v=124
553085 On ch=2 n=a5 v=125
553085 On ch=2 n=e6 v=125
553093 On ch=1 n=a3 v=123
553095 On ch=1 n=e5 v=123
553115 On ch=1 n=e3 v=0
553115 On ch=1 n=a2 v=0
553125 On ch=2 n=a5 v=0
553127 On ch=2 n=e6 v=0
553135 On ch=1 n=e5 v=0
553135 On ch=1 n=a3 v=0
553233 On ch=1 n=a#3 v=122
553243 On ch=1 n=a#2 v=122
553248 On ch=2 n=a#5 v=122
553255 On ch=1 n=e3 v=121
553258 On ch=1 n=e5 v=121
553258 On ch=1 n=a#4 v=121
553278 On ch=1 n=a#2 v=0
553278 On ch=1 n=a#3 v=0
553300 On ch=1 n=a#4 v=0
553300 On ch=1 n=e5 v=0
553300 On ch=1 n=e3 v=0
553303 On ch=2 n=a#5 v=0
553380 On ch=1 n=e3 v=119
553390 On ch=1 n=a#3 v=120
553390 On ch=1 n=a#2 v=120
553395 On ch=2 n=a#5 v=120
553403 On ch=1 n=a#4 v=121
553405 On ch=1 n=e5 v=122
553410 Par ch=1 c=64 v=0
553410 Par ch=2 c=64 v=0
553425 On ch=1 n=e3 v=0
553442 On ch=1 n=e5 v=0
553445 On ch=1 n=a#4 v=0
553445 On ch=1 n=a#2 v=0
553447 On ch=2 n=a#5 v=0
553465 On ch=1 n=a#3 v=0
553568 On ch=1 n=e3 v=127
553573 On ch=1 n=a2 v=127
553575 On ch=1 n=a3 v=127
553578 On ch=2 n=a5 v=127
553585 On ch=1 n=a4 v=127
553588 On ch=1 n=e5 v=127
553617 On ch=1 n=a3 v=0
553618 On ch=2 n=a5 v=0
553618 On ch=1 n=a2 v=0
553625 On ch=1 n=e5 v=0
553627 On ch=1 n=a4 v=0
553630 On ch=1 n=e3 v=0
553695 Par ch=1 c=64 v=127
553695 Par ch=2 c=64 v=127
553735 On ch=1 n=a2 v=127
553738 On ch=1 n=a3 v=127
553738 On ch=1 n=a4 v=127
553738 On ch=1 n=e3 v=127
553743 On ch=1 n=e5 v=127
553750 On ch=2 n=a5 v=124
553778 On ch=1 n=e5 v=0
553780 On ch=1 n=e3 v=0
553780 On ch=1 n=a4 v=0
553780 On ch=1 n=a3 v=0
553780 On ch=1 n=a2 v=0
553790 On ch=2 n=a5 v=0
553890 On ch=1 n=b2 v=127
553900 On ch=1 n=e3 v=127
553900 On ch=1 n=b3 v=127
553903 On ch=1 n=e5 v=127
553903 On ch=1 n=b4 v=127
553913 On ch=1 n=e4 v=127
553940 On ch=1 n=e5 v=0
553942 On ch=1 n=b2 v=0
553945 On ch=1 n=b4 v=0
553945 On ch=1 n=b3 v=0
553945 On ch=1 n=e3 v=0
553955 On ch=1 n=e4 v=0
554003 Par ch=1 c=64 v=0
554003 Par ch=2 c=64 v=0
554065 On ch=1 n=b2 v=127
554065 On ch=1 n=e4 v=127
554068 On ch=1 n=e3 v=127
554078 On ch=1 n=b3 v=127
554088 On ch=1 n=b4 v=127
554090 On ch=1 n=e5 v=127
554120 On ch=1 n=b3 v=0
554120 On ch=1 n=e3 v=0
554120 On ch=1 n=e4 v=0
554127 On ch=1 n=e5 v=0
554127 On ch=1 n=b2 v=0
554130 On ch=1 n=b4 v=0
554233 On ch=1 n=a2 v=127
554233 Par ch=1 c=64 v=127
554233 Par ch=2 c=64 v=127
554245 On ch=1 n=e3 v=127
554248 On ch=1 n=e5 v=127
554255 On ch=1 n=a4 v=127
554255 On ch=1 n=a3 v=127
554255 On ch=1 n=e4 v=127
554278 On ch=1 n=a2 v=0
554290 On ch=1 n=e3 v=0
554297 On ch=1 n=a3 v=0
554300 On ch=1 n=e4 v=0
554320 On ch=1 n=a4 v=0
554335 On ch=1 n=e5 v=0
554385 On ch=1 n=e3 v=127
554385 On ch=1 n=a2 v=127
554405 On ch=1 n=a3 v=127
554415 On ch=1 n=e4 v=127
554424 On ch=1 n=a2 v=0
554425 On ch=1 n=a4 v=127
554427 On ch=1 n=e3 v=0
554437 On ch=1 n=e5 v=127
554457 On ch=1 n=e4 v=0
554457 On ch=1 n=a3 v=0
554467 On ch=1 n=a4 v=0
554484 On ch=1 n=e5 v=0
554565 Par ch=1 c=64 v=0
554565 Par ch=2 c=64 v=0
554575 On ch=1 n=e3 v=127
554582 On ch=1 n=a#2 v=127
554592 On ch=1 n=a#4 v=127
554599 On ch=1 n=a#3 v=127
554602 On ch=1 n=e4 v=127
554604 On ch=1 n=e5 v=127
554624 On ch=1 n=a#2 v=0
554624 On ch=1 n=e3 v=0
554644 On ch=1 n=e5 v=0
554644 On ch=1 n=a#3 v=0
554644 On ch=1 n=a#4 v=0
554647 On ch=1 n=e4 v=0
554742 On ch=1 n=a#2 v=127
554742 On ch=1 n=e3 v=127
554752 On ch=1 n=e4 v=127
554762 On ch=1 n=a#3 v=127
554772 On ch=1 n=a#4 v=127
554774 On ch=1 n=e5 v=127
554797 On ch=1 n=e3 v=0
554804 On ch=1 n=a#3 v=0
554804 On ch=1 n=a#2 v=0
554807 On ch=1 n=e4 v=0
554819 Par ch=1 c=64 v=127
554819 Par ch=2 c=64 v=127
554824 On ch=1 n=e5 v=0
554827 On ch=1 n=a#4 v=0
554929 On ch=1 n=a2 v=127
554939 On ch=1 n=e3 v=127
554949 On ch=1 n=a3 v=127
554959 On ch=1 n=e4 v=127
554969 On ch=1 n=a4 v=127
554981 On ch=1 n=e5 v=127
555001 On ch=1 n=a3 v=0
555001 On ch=1 n=a2 v=0
555011 On ch=1 n=e3 v=0
555014 On ch=1 n=a4 v=0
555014 On ch=1 n=e4 v=0
555021 On ch=1 n=e5 v=0
555079 Par ch=1 c=64 v=0
555079 Par ch=2 c=64 v=0
555129 On ch=1 n=a3 v=127
555129 On ch=1 n=a2 v=127
555131 On ch=1 n=e3 v=127
555141 On ch=1 n=e4 v=127
555144 On ch=1 n=a4 v=127
555154 On ch=1 n=e5 v=127
555173 On ch=1 n=e3 v=0
555174 On ch=1 n=a3 v=0
555184 On ch=1 n=a4 v=0
555186 On ch=1 n=e4 v=0
555194 On ch=1 n=a2 v=0
555204 On ch=1 n=e5 v=0
555309 Par ch=1 c=64 v=127
555309 Par ch=2 c=64 v=127
555311 On ch=1 n=b3 v=127
555321 On ch=1 n=e3 v=127
555321 On ch=1 n=a#4 v=127
555324 On ch=1 n=e5 v=127
555324 On ch=1 n=e4 v=127
555329 On ch=1 n=b2 v=127
555361 On ch=1 n=e5 v=0
555363 On ch=1 n=a#4 v=0
555363 On ch=1 n=e3 v=0
555363 On ch=1 n=b3 v=0
555364 On ch=1 n=b2 v=0
555364 On ch=1 n=e4 v=0
555476 On ch=1 n=e4 v=127
555484 On ch=1 n=b2 v=127
555486 On ch=1 n=a#4 v=127
555486 On ch=1 n=e3 v=127
555486 On ch=1 n=b3 v=127
555486 On ch=1 n=e5 v=127
555526 On ch=1 n=e5 v=0
555526 On ch=1 n=b2 v=0
555528 On ch=1 n=b3 v=0
555528 On ch=1 n=e3 v=0
555528 On ch=1 n=a#4 v=0
555528 On ch=1 n=e4 v=0
555639 On ch=1 n=e3 v=127
555646 Par ch=1 c=64 v=127
555646 Par ch=2 c=64 v=127
555649 On ch=1 n=a2 v=127
555649 On ch=1 n=a3 v=127
555661 On ch=1 n=e4 v=127
555669 On ch=1 n=a4 v=127
555681 On ch=1 n=e5 v=127
555791 On ch=1 n=e5 v=0
555791 On ch=1 n=a2 v=0
555793 On ch=1 n=e4 v=0
555794 On ch=1 n=a4 v=0
555814 On ch=1 n=e3 v=0
555834 On ch=1 n=a3 v=0
556244 Par ch=1 c=64 v=0
556244 Par ch=2 c=64 v=0
556399 On ch=1 n=e3 v=127
556401 On ch=2 n=b5 v=127
556406 On ch=1 n=g#3 v=127
556416 On ch=1 n=b3 v=127
556416 On ch=2 n=g#5 v=127
556426 On ch=1 n=e4 v=127
556428 On ch=1 n=e5 v=127
556431 On ch=2 n=e6 v=127
556593 Par ch=1 c=64 v=127
556593 Par ch=2 c=64 v=127
556646 On ch=2 n=g#5 v=0
556655 On ch=1 n=e5 v=0
556665 On ch=1 n=g#3 v=0
556668 On ch=2 n=e6 v=0
556668 On ch=1 n=e4 v=0
556668 On ch=1 n=b3 v=0
556668 On ch=1 n=e3 v=0
556678 On ch=2 n=b5 v=0
557036 Par ch=1 c=64 v=0
557036 Par ch=2 c=64 v=0
557178 On ch=1 n=c#4 v=127
557188 On ch=1 n=e4 v=127
557188 On ch=1 n=a4 v=127
557191 On ch=2 n=c#6 v=127
557196 On ch=1 n=a3 v=127
557198 On ch=2 n=a5 v=127
557201 On ch=2 n=a6 v=127
557201 On ch=2 n=e6 v=127
557366 Par ch=1 c=64 v=127
557366 Par ch=2 c=64 v=127
557408 On ch=2 n=a5 v=0
557411 On ch=2 n=e6 v=0
557413 On ch=2 n=a6 v=0
557423 On ch=1 n=a3 v=0
557425 On ch=2 n=c#6 v=0
557425 On ch=1 n=e4 v=0
557425 On ch=1 n=c#4 v=0
557440 On ch=1 n=a4 v=0
557905 Par ch=1 c=64 v=0
557905 Par ch=2 c=64 v=0
557983 On ch=1 n=e3 v=127
558005 On ch=2 n=e7 v=127
558005 On ch=2 n=b6 v=127
558010 On ch=1 n=b3 v=127
558013 On ch=1 n=e4 v=127
558013 On ch=2 n=g#6 v=127
558018 On ch=1 n=g#3 v=127
558023 On ch=2 n=e6 v=127
558253 Par ch=1 c=64 v=127
558253 Par ch=2 c=64 v=127
558327 On ch=1 n=b3 v=0
558337 On ch=1 n=e4 v=0
558345 On ch=1 n=e3 v=0
558347 On ch=2 n=e6 v=0
558349 On ch=2 n=e7 v=0
558355 On ch=1 n=g#3 v=0
558357 On ch=2 n=g#6 v=0
558359 On ch=2 n=b6 v=0
558922 Par ch=1 c=64 v=0
558922 Par ch=2 c=64 v=0
558995 On ch=1 n=c#3 v=127
558995 On ch=1 n=a2 v=127
558997 On ch=1 n=a3 v=127
558997 On ch=1 n=e3 v=127
559007 On ch=2 n=c#7 v=127
559007 On ch=2 n=a6 v=127
559009 On ch=2 n=a7 v=127
559017 On ch=2 n=e7 v=127
559027 On ch=1 n=a2 v=0
559027 On ch=1 n=c#3 v=0
559036 On ch=1 n=e3 v=0
559036 On ch=1 n=a3 v=0
559046 On ch=2 n=a6 v=0
559046 On ch=2 n=c#7 v=0
559048 On ch=2 n=a7 v=0
559056 On ch=2 n=e7 v=0
559124 On ch=2 n=a6 v=127
559126 On ch=2 n=a7 v=127
559134 On ch=2 n=c#7 v=127
559134 On ch=2 n=e7 v=127
559139 On ch=1 n=a2 v=127
559139 On ch=1 n=a3 v=127
559141 On ch=1 n=e3 v=127
559149 On ch=1 n=c#3 v=127
559326 Par ch=1 c=64 v=127
559326 Par ch=2 c=64 v=127
559439 On ch=1 n=c#3 v=0
559439 On ch=1 n=a2 v=0
559458 On ch=1 n=e3 v=0
559474 On ch=1 n=a3 v=0
559476 On ch=2 n=e7 v=0
559476 On ch=2 n=c#7 v=0
559476 On ch=2 n=a7 v=0
559476 On ch=2 n=a6 v=0
560424 Par ch=1 c=64 v=0
560424 Par ch=2 c=64 v=0
570661 Par ch=1 c=64 v=0
570661 Par ch=2 c=64 v=0
570661 Meta TrkEnd
TrkEnd
