MFile 1 3 480
MTrk
0 TimeSig 4/4 24 8
0 KeySig 0 major
0 Tempo 428571
18721 Tempo 483871
35336 Tempo 468750
38801 Tempo 472441
40902 Tempo 428571
48457 Tempo 400000
52002 Tempo 408163
58412 Tempo 444444
73912 Tempo 447761
81507 Tempo 483871
82277 Tempo 461538
84645 Tempo 428571
92200 Tempo 400000
102155 Tempo 444444
117655 Tempo 447761
119260 Tempo 472441
120010 Tempo 444444
125250 Tempo 483871
126020 Tempo 437956
144457 Tempo 419580
157960 Tempo 441176
166705 Tempo 428571
196625 Tempo 434783
200535 Tempo 472441
206030 Tempo 437956
208870 Tempo 451128
214390 Tempo 451128
218465 Tempo 451128
228525 Tempo 454545
235865 Tempo 480000
237665 Tempo 512821
239525 Tempo 444444
245630 Tempo 454545
248190 Tempo 437956
255500 Tempo 437956
255618 Tempo 441176
255738 Tempo 444444
255857 Tempo 447761
255977 Tempo 451128
256096 Tempo 454545
256216 Tempo 458015
256335 Tempo 461538
256455 Tempo 465116
256573 Tempo 468750
256693 Tempo 472441
256812 Tempo 476190
256932 Tempo 480000
257051 Tempo 483871
257171 Tempo 487805
257290 Tempo 491803
257410 Tempo 495868
257530 Tempo 500000
257531 Tempo 437956
257880 Tempo 472441
264160 Tempo 461538
270405 Tempo 451128
271855 Tempo 441176
273245 Tempo 413793
277116 Tempo 363636
290525 Tempo 461538
313315 Tempo 480000
315765 Tempo 472441
320080 Tempo 638298
321815 Tempo 652174
325335 Tempo 375000
329205 Tempo 400000
329378 Tempo 402685
329553 Tempo 405405
329728 Tempo 408163
329902 Tempo 410959
330077 Tempo 413793
330252 Tempo 416667
330426 Tempo 419580
330601 Tempo 422535
330776 Tempo 425532
330950 Tempo 428571
331125 Tempo 431655
331300 Tempo 434783
331475 Tempo 437956
331476 Tempo 400000
332545 Tempo 451128
333335 Tempo 461538
335925 Tempo 472441
347015 Tempo 483871
349895 Tempo 472441
355470 Tempo 483871
383080 Tempo 491803
383080 Meta TrkEnd
TrkEnd
MTrk
0 SeqSpec 43 00 01 00
0 Meta TrkName "15th Hungarian Rhapsody"
0 Meta 0x21 00
245 Par ch=1 c=7 v=127
480 Par ch=1 c=91 v=127
1220 Par ch=1 c=64 v=40
1235 Par ch=1 c=64 v=72
1250 Par ch=1 c=64 v=104
1265 Par ch=1 c=64 v=127
1335 On ch=1 n=e2 v=36
1405 On ch=1 n=e3 v=40
1440 On ch=1 n=e3 v=0
1455 On ch=1 n=e2 v=0
1925 On ch=1 n=d#3 v=53
1990 On ch=1 n=d#3 v=0
2065 On ch=1 n=e3 v=46
2090 On ch=1 n=e4 v=40
2130 On ch=1 n=e4 v=0
2150 On ch=1 n=e3 v=0
2175 On ch=1 n=d#3 v=39
2215 On ch=1 n=d#3 v=0
2305 On ch=1 n=e3 v=49
2315 On ch=1 n=e4 v=47
2375 On ch=1 n=e4 v=0
2385 On ch=1 n=e3 v=0
2415 On ch=1 n=d#3 v=61
2495 On ch=1 n=d#3 v=0
2530 On ch=1 n=e3 v=53
2535 On ch=1 n=e4 v=57
2610 On ch=1 n=e4 v=0
2615 On ch=1 n=e3 v=0
2665 On ch=1 n=d#3 v=58
2725 On ch=1 n=d#3 v=0
2775 On ch=1 n=e3 v=51
2785 On ch=1 n=e4 v=56
2860 On ch=1 n=e4 v=0
2860 On ch=1 n=e3 v=0
2920 On ch=1 n=d#3 v=64
2985 On ch=1 n=d#3 v=0
3015 On ch=1 n=e4 v=56
3020 On ch=1 n=e3 v=49
3100 On ch=1 n=e3 v=0
3100 On ch=1 n=e4 v=0
3150 On ch=1 n=d#3 v=61
3215 On ch=1 n=d#3 v=0
3265 On ch=1 n=e3 v=52
3265 On ch=1 n=e4 v=58
3345 On ch=1 n=e4 v=0
3345 On ch=1 n=e3 v=0
3390 On ch=1 n=d#3 v=69
3465 On ch=1 n=d#3 v=0
3500 On ch=1 n=e3 v=54
3505 On ch=1 n=e4 v=62
3585 On ch=1 n=e3 v=0
3590 On ch=1 n=e4 v=0
3640 On ch=1 n=d#3 v=61
3725 On ch=1 n=d#3 v=0
3740 On ch=1 n=e3 v=54
3740 On ch=1 n=e4 v=59
3805 On ch=1 n=e3 v=0
3820 On ch=1 n=e4 v=0
3865 On ch=1 n=e3 v=72
3865 Par ch=1 c=64 v=72
3880 Par ch=1 c=64 v=24
3895 Par ch=1 c=64 v=0
3945 On ch=1 n=e3 v=0
3945 Par ch=1 c=64 v=72
3960 On ch=1 n=f3 v=61
3960 Par ch=1 c=64 v=127
3970 On ch=1 n=f4 v=66
4040 On ch=1 n=f4 v=0
4040 On ch=1 n=f3 v=0
4115 On ch=1 n=e3 v=70
4170 On ch=1 n=e3 v=0
4235 On ch=1 n=f3 v=51
4240 On ch=1 n=f4 v=58
4305 On ch=1 n=f4 v=0
4305 On ch=1 n=f3 v=0
4350 On ch=1 n=e3 v=68
4420 On ch=1 n=e3 v=0
4470 On ch=1 n=f3 v=60
4475 On ch=1 n=f4 v=66
4545 On ch=1 n=f3 v=0
4550 On ch=1 n=f4 v=0
4595 On ch=1 n=e3 v=63
4665 On ch=1 n=e3 v=0
4725 On ch=1 n=f3 v=55
4730 On ch=1 n=f4 v=61
4795 On ch=1 n=f3 v=0
4805 On ch=1 n=f4 v=0
4845 On ch=1 n=e3 v=69
4915 On ch=1 n=e3 v=0
4960 On ch=1 n=f4 v=64
4960 On ch=1 n=f3 v=58
5035 On ch=1 n=f3 v=0
5040 On ch=1 n=f4 v=0
5080 On ch=1 n=e3 v=66
5155 On ch=1 n=e3 v=0
5205 On ch=1 n=f3 v=60
5215 On ch=1 n=f4 v=58
5280 On ch=1 n=f3 v=0
5285 On ch=1 n=f4 v=0
5305 Par ch=1 c=64 v=56
5320 On ch=1 n=e3 v=73
5325 Par ch=1 c=64 v=24
5370 Par ch=1 c=64 v=56
5385 Par ch=1 c=64 v=88
5395 On ch=1 n=e3 v=0
5400 Par ch=1 c=64 v=127
5435 On ch=1 n=f3 v=55
5440 On ch=1 n=f4 v=61
5515 On ch=1 n=f3 v=0
5520 On ch=1 n=f4 v=0
5560 On ch=1 n=e3 v=64
5640 On ch=1 n=e3 v=0
5670 On ch=1 n=f3 v=58
5680 On ch=1 n=f4 v=66
5715 On ch=1 n=f3 v=0
5770 On ch=1 n=f4 v=0
5775 Par ch=1 c=64 v=104
5795 Par ch=1 c=64 v=72
5805 On ch=1 n=g3 v=77
5805 Par ch=1 c=64 v=40
5855 Par ch=1 c=64 v=88
5870 Par ch=1 c=64 v=127
5880 On ch=1 n=g3 v=0
5910 On ch=1 n=g#4 v=69
5920 On ch=1 n=g#3 v=64
5985 On ch=1 n=g#3 v=0
5990 On ch=1 n=g#4 v=0
6045 On ch=1 n=g3 v=66
6080 On ch=1 n=g3 v=0
6145 On ch=1 n=g#4 v=64
6145 On ch=1 n=g#3 v=57
6225 On ch=1 n=g#4 v=0
6230 On ch=1 n=g#3 v=0
6280 On ch=1 n=g3 v=74
6335 On ch=1 n=g3 v=0
6360 On ch=1 n=g#4 v=64
6360 On ch=1 n=g#3 v=57
6455 On ch=1 n=g#3 v=0
6470 On ch=1 n=g#4 v=0
6500 On ch=1 n=g3 v=68
6570 On ch=1 n=g3 v=0
6605 On ch=1 n=g#4 v=67
6605 On ch=1 n=g#3 v=61
6690 On ch=1 n=g#3 v=0
6690 On ch=1 n=g#4 v=0
6725 On ch=1 n=g#3 v=69
6750 Par ch=1 c=64 v=72
6765 Par ch=1 c=64 v=40
6790 On ch=1 n=g#3 v=0
6810 Par ch=1 c=64 v=72
6825 On ch=1 n=a3 v=73
6825 On ch=1 n=a4 v=72
6825 Par ch=1 c=64 v=104
6840 Par ch=1 c=64 v=127
6885 On ch=1 n=a3 v=0
6900 On ch=1 n=a4 v=0
6935 On ch=1 n=g#3 v=69
7005 On ch=1 n=g#3 v=0
7050 On ch=1 n=a3 v=67
7050 On ch=1 n=a4 v=66
7105 On ch=1 n=a3 v=0
7120 On ch=1 n=a4 v=0
7155 On ch=1 n=g#3 v=74
7155 Par ch=1 c=64 v=88
7170 Par ch=1 c=64 v=72
7220 Par ch=1 c=64 v=127
7225 On ch=1 n=g#3 v=0
7260 On ch=1 n=a3 v=79
7260 On ch=1 n=a4 v=74
7320 On ch=1 n=a3 v=0
7335 On ch=1 n=a4 v=0
7375 On ch=1 n=g#3 v=72
7450 On ch=1 n=g#3 v=0
7475 On ch=1 n=a4 v=74
7475 On ch=1 n=a3 v=72
7530 On ch=1 n=a3 v=0
7545 On ch=1 n=a4 v=0
7565 Par ch=1 c=64 v=104
7580 On ch=1 n=a3 v=92
7580 Par ch=1 c=64 v=56
7625 Par ch=1 c=64 v=88
7640 Par ch=1 c=64 v=127
7650 On ch=1 n=a3 v=0
7695 On ch=1 n=a#3 v=69
7695 On ch=1 n=a#4 v=63
7760 On ch=1 n=a#3 v=0
7765 On ch=1 n=a#4 v=0
7810 On ch=1 n=a3 v=85
7870 On ch=1 n=a3 v=0
7910 On ch=1 n=a#3 v=64
7910 On ch=1 n=a#4 v=62
7985 On ch=1 n=a#3 v=0
7990 On ch=1 n=a#4 v=0
8025 On ch=1 n=a3 v=86
8090 On ch=1 n=a3 v=0
8135 On ch=1 n=a#4 v=64
8135 On ch=1 n=a#3 v=67
8210 On ch=1 n=a#3 v=0
8220 On ch=1 n=a#4 v=0
8240 On ch=1 n=a3 v=84
8300 On ch=1 n=a3 v=0
8345 On ch=1 n=a#4 v=72
8350 On ch=1 n=a#3 v=61
8410 On ch=1 n=a#3 v=0
8430 On ch=1 n=a#4 v=0
8440 Par ch=1 c=64 v=88
8455 Par ch=1 c=64 v=72
8460 On ch=1 n=c4 v=82
8505 Par ch=1 c=64 v=104
8520 On ch=1 n=c4 v=0
8520 Par ch=1 c=64 v=127
8565 On ch=1 n=c#4 v=73
8565 On ch=1 n=c#5 v=68
8630 On ch=1 n=c#5 v=0
8630 On ch=1 n=c#4 v=0
8680 On ch=1 n=c4 v=82
8740 On ch=1 n=c4 v=0
8775 On ch=1 n=c#4 v=67
8775 On ch=1 n=c#5 v=71
8840 On ch=1 n=c#4 v=0
8870 On ch=1 n=c#5 v=0
8880 On ch=1 n=c#4 v=87
8890 Par ch=1 c=64 v=88
8910 Par ch=1 c=64 v=72
8945 On ch=1 n=c#4 v=0
8955 Par ch=1 c=64 v=104
8975 Par ch=1 c=64 v=127
8985 On ch=1 n=d5 v=78
8990 On ch=1 n=d4 v=75
9050 On ch=1 n=d4 v=0
9055 On ch=1 n=d5 v=0
9095 On ch=1 n=c#4 v=81
9160 On ch=1 n=c#4 v=0
9195 On ch=1 n=d4 v=73
9195 On ch=1 n=d5 v=74
9250 On ch=1 n=d4 v=0
9260 On ch=1 n=d5 v=0
9300 Par ch=1 c=64 v=88
9305 On ch=1 n=d#4 v=86
9350 Par ch=1 c=64 v=127
9380 On ch=1 n=d#4 v=0
9405 On ch=1 n=e5 v=72
9410 On ch=1 n=e4 v=70
9475 On ch=1 n=e4 v=0
9480 On ch=1 n=e5 v=0
9520 On ch=1 n=d#4 v=82
9595 On ch=1 n=d#4 v=0
9615 On ch=1 n=e5 v=76
9615 On ch=1 n=e4 v=73
9675 On ch=1 n=e4 v=0
9695 On ch=1 n=e5 v=0
9725 On ch=1 n=e4 v=93
9740 Par ch=1 c=64 v=72
9790 Par ch=1 c=64 v=127
9805 On ch=1 n=e4 v=0
9835 On ch=1 n=f4 v=75
9835 On ch=1 n=f5 v=78
9900 On ch=1 n=f4 v=0
9910 On ch=1 n=f5 v=0
9930 On ch=1 n=e4 v=85
10015 On ch=1 n=e4 v=0
10030 On ch=1 n=f5 v=81
10030 On ch=1 n=f4 v=71
10060 On ch=1 n=f4 v=0
10115 On ch=1 n=f5 v=0
10150 On ch=1 n=g4 v=79
10150 Par ch=1 c=64 v=104
10165 Par ch=1 c=64 v=88
10180 Par ch=1 c=64 v=104
10195 Par ch=1 c=64 v=127
10200 On ch=1 n=g4 v=0
10255 On ch=1 n=g#5 v=80
10255 On ch=1 n=g#4 v=80
10310 On ch=1 n=g#4 v=0
10320 On ch=1 n=g#5 v=0
10360 On ch=1 n=g4 v=87
10415 On ch=1 n=g4 v=0
10450 On ch=1 n=g#4 v=74
10450 On ch=1 n=g#5 v=77
10520 On ch=1 n=g#4 v=0
10555 On ch=1 n=g#5 v=0
10560 On ch=1 n=g#4 v=89
10585 Par ch=1 c=64 v=72
10635 On ch=1 n=g#4 v=0
10635 Par ch=1 c=64 v=127
10660 On ch=1 n=a5 v=81
10660 On ch=1 n=a4 v=70
10720 On ch=1 n=a4 v=0
10720 On ch=1 n=a5 v=0
10765 On ch=1 n=g#4 v=82
10855 On ch=1 n=g#4 v=0
10865 On ch=1 n=a5 v=86
10875 On ch=1 n=a4 v=57
10910 On ch=1 n=a4 v=0
10945 On ch=1 n=a5 v=0
10970 On ch=1 n=a4 v=82
10995 Par ch=1 c=64 v=88
11010 Par ch=1 c=64 v=56
11025 Par ch=1 c=64 v=72
11040 Par ch=1 c=64 v=127
11045 On ch=1 n=a4 v=0
11075 On ch=1 n=a#5 v=77
11080 On ch=1 n=a#4 v=80
11135 On ch=1 n=a#4 v=0
11140 On ch=1 n=a#5 v=0
11175 On ch=1 n=a4 v=85
11250 On ch=1 n=a4 v=0
11265 On ch=1 n=a#5 v=83
11265 On ch=1 n=a#4 v=73
11320 On ch=1 n=a#4 v=0
11350 On ch=1 n=a#5 v=0
11380 On ch=1 n=c5 v=88
11400 Par ch=1 c=64 v=88
11445 On ch=1 n=c5 v=0
11445 Par ch=1 c=64 v=127
11470 On ch=1 n=c#5 v=81
11475 On ch=1 n=c#6 v=79
11530 On ch=1 n=c#5 v=0
11550 On ch=1 n=c#6 v=0
11585 On ch=1 n=c5 v=88
11645 On ch=1 n=c5 v=0
11655 On ch=1 n=c#6 v=80
11660 On ch=1 n=c#5 v=77
11735 On ch=1 n=c#5 v=0
11770 On ch=1 n=c#6 v=0
11785 On ch=1 n=c#5 v=83
11860 On ch=1 n=c#5 v=0
11875 On ch=1 n=d6 v=89
11875 On ch=1 n=d5 v=83
11935 On ch=1 n=d5 v=0
11955 On ch=1 n=d6 v=0
11990 On ch=1 n=c#5 v=83
12070 On ch=1 n=c#5 v=0
12070 On ch=1 n=d6 v=87
12075 On ch=1 n=d5 v=77
12130 On ch=1 n=d5 v=0
12160 On ch=1 n=d6 v=0
12190 On ch=1 n=d5 v=88
12215 Par ch=1 c=64 v=104
12235 Par ch=1 c=64 v=127
12265 On ch=1 n=d5 v=0
12285 On ch=1 n=d#6 v=82
12285 On ch=1 n=d#5 v=82
12350 On ch=1 n=d#5 v=0
12355 On ch=1 n=d#6 v=0
12400 On ch=1 n=d5 v=93
12465 On ch=1 n=d5 v=0
12485 On ch=1 n=d#6 v=83
12490 On ch=1 n=d#5 v=80
12560 On ch=1 n=d#5 v=0
12585 On ch=1 n=d#6 v=0
12595 On ch=1 n=d#5 v=91
12670 On ch=1 n=d#5 v=0
12695 On ch=1 n=e6 v=90
12700 On ch=1 n=e5 v=82
12750 On ch=1 n=e5 v=0
12755 On ch=1 n=e6 v=0
12800 On ch=1 n=d#5 v=87
12880 On ch=1 n=d#5 v=0
12885 On ch=1 n=e5 v=85
12890 On ch=1 n=e6 v=90
12940 On ch=1 n=e5 v=0
12960 On ch=1 n=e6 v=0
13055 On ch=1 n=f4 v=78
13055 On ch=1 n=f5 v=82
13105 On ch=1 n=f4 v=0
13145 On ch=1 n=f6 v=99
13145 On ch=1 n=f5 v=86
13155 On ch=1 n=f5 v=0
13200 On ch=1 n=f5 v=0
13215 On ch=1 n=f6 v=0
13255 On ch=1 n=g#4 v=90
13255 On ch=1 n=g#3 v=81
13305 On ch=1 n=g#4 v=0
13315 On ch=1 n=g#3 v=0
13345 On ch=1 n=g#5 v=79
13345 On ch=1 n=g#6 v=82
13415 On ch=1 n=g#5 v=0
13440 On ch=1 n=g#6 v=0
13455 On ch=1 n=a4 v=85
13470 On ch=1 n=a3 v=78
13485 Par ch=1 c=64 v=104
13495 On ch=1 n=a3 v=0
13500 Par ch=1 c=64 v=127
13510 On ch=1 n=a4 v=0
13560 On ch=1 n=a6 v=88
13565 On ch=1 n=a5 v=82
13620 On ch=1 n=a5 v=0
13620 On ch=1 n=a6 v=0
13665 On ch=1 n=a#4 v=88
13670 On ch=1 n=a#3 v=84
13690 Par ch=1 c=64 v=88
13700 Par ch=1 c=64 v=127
13715 On ch=1 n=a#4 v=0
13725 On ch=1 n=a#3 v=0
13765 On ch=1 n=a#5 v=85
13765 On ch=1 n=a#6 v=85
13825 On ch=1 n=a#5 v=0
13840 On ch=1 n=a#6 v=0
13875 On ch=1 n=c#5 v=91
13885 On ch=1 n=c#4 v=85
13930 On ch=1 n=c#5 v=0
13945 On ch=1 n=c#4 v=0
13970 On ch=1 n=c#7 v=85
13980 On ch=1 n=c#6 v=85
14045 On ch=1 n=c#6 v=0
14075 On ch=1 n=c#7 v=0
14075 On ch=1 n=d5 v=88
14085 On ch=1 n=d4 v=86
14095 Par ch=1 c=64 v=88
14110 Par ch=1 c=64 v=127
14145 On ch=1 n=d5 v=0
14150 On ch=1 n=d4 v=0
14185 On ch=1 n=d7 v=97
14185 On ch=1 n=d6 v=90
14240 On ch=1 n=d6 v=0
14255 On ch=1 n=d7 v=0
14290 On ch=1 n=d#5 v=90
14300 On ch=1 n=d#4 v=84
14370 On ch=1 n=d#5 v=0
14375 On ch=1 n=d#4 v=0
14380 On ch=1 n=d#7 v=88
14385 On ch=1 n=d#6 v=93
14455 On ch=1 n=d#6 v=0
14480 On ch=1 n=d#7 v=0
14485 Par ch=1 c=64 v=104
14495 On ch=1 n=e5 v=94
14500 On ch=1 n=e4 v=85
14520 Par ch=1 c=64 v=127
14560 On ch=1 n=e5 v=0
14565 On ch=1 n=e4 v=0
14595 On ch=1 n=e7 v=97
14600 On ch=1 n=e6 v=90
14650 On ch=1 n=e6 v=0
14665 On ch=1 n=e7 v=0
14700 On ch=1 n=f5 v=87
14705 On ch=1 n=f4 v=84
14705 Par ch=1 c=64 v=72
14755 Par ch=1 c=64 v=127
14765 On ch=1 n=f4 v=0
14775 On ch=1 n=f5 v=0
14815 On ch=1 n=f7 v=96
14815 On ch=1 n=f6 v=96
14870 On ch=1 n=f6 v=0
14880 On ch=1 n=f7 v=0
14915 On ch=1 n=g#5 v=99
14920 On ch=1 n=g#4 v=86
14930 Par ch=1 c=64 v=104
14945 Par ch=1 c=64 v=127
14985 On ch=1 n=g#5 v=0
14995 On ch=1 n=g#4 v=0
15020 On ch=1 n=g#7 v=88
15025 On ch=1 n=g#6 v=92
15090 On ch=1 n=g#6 v=0
15115 On ch=1 n=g#7 v=0
15125 On ch=1 n=a5 v=93
15130 Par ch=1 c=64 v=72
15135 On ch=1 n=a4 v=73
15145 Par ch=1 c=64 v=88
15160 Par ch=1 c=64 v=127
15170 On ch=1 n=a4 v=0
15190 On ch=1 n=a5 v=0
15225 On ch=1 n=a7 v=102
15230 On ch=1 n=a6 v=84
15280 On ch=1 n=a6 v=0
15295 On ch=1 n=a7 v=0
15320 On ch=1 n=a#5 v=99
15320 On ch=1 n=a#4 v=85
15380 On ch=1 n=a#5 v=0
15385 On ch=1 n=a#4 v=0
15425 On ch=1 n=a#7 v=89
15430 On ch=1 n=a#6 v=89
15485 On ch=1 n=a#6 v=0
15490 On ch=1 n=a#7 v=0
15525 On ch=1 n=c#6 v=100
15535 On ch=1 n=c#5 v=88
15535 Par ch=1 c=64 v=104
15585 Par ch=1 c=64 v=127
15605 On ch=1 n=c#5 v=0
15605 On ch=1 n=c#6 v=0
15615 On ch=1 n=c#8 v=93
15625 On ch=1 n=c#7 v=95
15685 On ch=1 n=c#7 v=0
15715 On ch=1 n=c#8 v=0
15730 On ch=1 n=d6 v=92
15740 On ch=1 n=d5 v=82
15795 On ch=1 n=d6 v=0
15800 On ch=1 n=d5 v=0
15830 On ch=1 n=d7 v=93
15835 On ch=1 n=d8 v=99
15885 On ch=1 n=d8 v=0
15885 On ch=1 n=d7 v=0
15915 Par ch=1 c=64 v=88
15930 On ch=1 n=d#6 v=97
15935 On ch=1 n=d#5 v=86
15945 Par ch=1 c=64 v=127
16000 On ch=1 n=d#6 v=0
16005 On ch=1 n=d#5 v=0
16025 On ch=1 n=d#7 v=97
16025 On ch=1 n=d#8 v=92
16110 On ch=1 n=d#7 v=0
16115 Par ch=1 c=64 v=72
16120 On ch=1 n=d#8 v=0
16135 On ch=1 n=e6 v=100
16140 On ch=1 n=e5 v=82
16165 Par ch=1 c=64 v=127
16210 On ch=1 n=e5 v=0
16225 On ch=1 n=e6 v=0
16240 On ch=1 n=e8 v=105
16240 On ch=1 n=e7 v=97
16300 On ch=1 n=e7 v=0
16320 On ch=1 n=e8 v=0
16320 Par ch=1 c=64 v=72
16335 Par ch=1 c=64 v=0
16350 On ch=1 n=f6 v=105
16355 On ch=1 n=f5 v=94
16400 Par ch=1 c=64 v=88
16415 Par ch=1 c=64 v=127
16420 On ch=1 n=f5 v=0
16430 On ch=1 n=f6 v=0
16465 On ch=1 n=f8 v=108
16470 On ch=1 n=f7 v=109
16510 On ch=1 n=f7 v=0
16520 On ch=1 n=f8 v=0
16900 Par ch=1 c=64 v=104
16915 Par ch=1 c=64 v=88
16935 Par ch=1 c=64 v=72
16950 Par ch=1 c=64 v=56
16965 Par ch=1 c=64 v=40
16980 Par ch=1 c=64 v=0
18721 On ch=1 n=g#5 v=95
18726 On ch=1 n=g#4 v=71
18736 On ch=1 n=f4 v=64
18736 Par ch=1 c=64 v=40
18741 On ch=1 n=d5 v=71
18741 On ch=1 n=f3 v=58
18746 On ch=1 n=b4 v=61
18746 On ch=1 n=b3 v=58
18751 On ch=1 n=d4 v=60
18751 Par ch=1 c=64 v=104
18771 Par ch=1 c=64 v=127
18776 On ch=1 n=d4 v=0
18776 On ch=1 n=b4 v=0
18776 On ch=1 n=d5 v=0
18781 On ch=1 n=b3 v=0
18786 On ch=1 n=f3 v=0
18786 On ch=1 n=g#4 v=0
18796 On ch=1 n=f4 v=0
18831 On ch=1 n=g#5 v=0
18996 Par ch=1 c=64 v=104
19011 Par ch=1 c=64 v=56
19026 Par ch=1 c=64 v=0
19091 On ch=1 n=a5 v=97
19096 On ch=1 n=c5 v=84
19096 On ch=1 n=a4 v=81
19106 On ch=1 n=d#4 v=77
19106 On ch=1 n=c4 v=80
19111 On ch=1 n=d#3 v=53
19116 On ch=1 n=a3 v=66
19136 Par ch=1 c=64 v=40
19146 On ch=1 n=a3 v=0
19146 On ch=1 n=d#3 v=0
19146 On ch=1 n=c4 v=0
19151 Par ch=1 c=64 v=127
19156 On ch=1 n=d#4 v=0
19156 On ch=1 n=a4 v=0
19166 On ch=1 n=c5 v=0
19196 On ch=1 n=a5 v=0
19296 Par ch=1 c=64 v=72
19316 Par ch=1 c=64 v=40
19331 Par ch=1 c=64 v=24
19346 Par ch=1 c=64 v=0
19426 On ch=1 n=g#4 v=80
19426 On ch=1 n=g#5 v=85
19486 On ch=1 n=g#4 v=0
19506 On ch=1 n=g#5 v=0
19581 On ch=1 n=b5 v=96
19586 On ch=1 n=b4 v=85
19641 On ch=1 n=b4 v=0
19641 On ch=1 n=b5 v=0
19761 Par ch=1 c=64 v=24
19766 On ch=1 n=a5 v=99
19766 On ch=1 n=a4 v=87
19776 On ch=1 n=c#5 v=77
19776 Par ch=1 c=64 v=104
19791 On ch=1 n=f#3 v=58
19791 Par ch=1 c=64 v=127
19796 On ch=1 n=a3 v=71
19796 On ch=1 n=c#4 v=65
19796 On ch=1 n=c#3 v=53
19826 On ch=1 n=a4 v=0
19831 On ch=1 n=a3 v=0
19836 On ch=1 n=c#3 v=0
19841 On ch=1 n=c#4 v=0
19841 On ch=1 n=f#3 v=0
19851 On ch=1 n=c#5 v=0
19861 On ch=1 n=a5 v=0
19951 Par ch=1 c=64 v=72
19966 Par ch=1 c=64 v=40
19981 Par ch=1 c=64 v=24
19996 Par ch=1 c=64 v=0
20106 On ch=1 n=g#4 v=85
20106 On ch=1 n=g#5 v=86
20166 On ch=1 n=g#4 v=0
20191 On ch=1 n=g#5 v=0
20256 On ch=1 n=b5 v=97
20261 On ch=1 n=b4 v=86
20316 On ch=1 n=b4 v=0
20321 On ch=1 n=b5 v=0
20431 On ch=1 n=a5 v=94
20431 Par ch=1 c=64 v=56
20436 On ch=1 n=a4 v=85
20446 On ch=1 n=a3 v=72
20446 On ch=1 n=c4 v=71
20446 On ch=1 n=d#5 v=74
20446 On ch=1 n=f#3 v=55
20446 Par ch=1 c=64 v=127
20456 On ch=1 n=c3 v=47
20491 On ch=1 n=c3 v=0
20491 On ch=1 n=a4 v=0
20496 On ch=1 n=d#5 v=0
20496 On ch=1 n=c4 v=0
20506 On ch=1 n=f#3 v=0
20506 On ch=1 n=a3 v=0
20526 On ch=1 n=a5 v=0
20586 Par ch=1 c=64 v=88
20606 Par ch=1 c=64 v=40
20621 Par ch=1 c=64 v=0
20791 On ch=1 n=g#5 v=90
20796 On ch=1 n=g#4 v=92
20856 On ch=1 n=g#4 v=0
20916 On ch=1 n=g#5 v=0
21186 On ch=1 n=a5 v=103
21186 On ch=1 n=d#5 v=90
21191 On ch=1 n=a4 v=89
21201 On ch=1 n=f#3 v=68
21206 On ch=1 n=d#3 v=64
21211 On ch=1 n=b3 v=78
21216 On ch=1 n=b2 v=62
21246 Par ch=1 c=64 v=56
21256 On ch=1 n=b2 v=0
21261 Par ch=1 c=64 v=127
21276 On ch=1 n=b3 v=0
21276 On ch=1 n=d#3 v=0
21276 On ch=1 n=f#3 v=0
21611 On ch=1 n=d#5 v=0
21711 On ch=1 n=a4 v=0
21711 Par ch=1 c=64 v=104
21721 Par ch=1 c=64 v=72
21736 Par ch=1 c=64 v=56
21751 Par ch=1 c=64 v=24
21771 On ch=1 n=a5 v=0
21771 Par ch=1 c=64 v=0
21876 On ch=1 n=a5 v=87
21881 On ch=1 n=a4 v=78
21881 On ch=1 n=f#5 v=65
21881 On ch=1 n=f#3 v=63
21886 On ch=1 n=c#5 v=65
21886 On ch=1 n=c#3 v=58
21891 On ch=1 n=a3 v=75
21901 On ch=1 n=a2 v=56
21901 Par ch=1 c=64 v=56
21916 Par ch=1 c=64 v=104
21926 On ch=1 n=a2 v=0
21926 On ch=1 n=a3 v=0
21931 Par ch=1 c=64 v=127
21941 On ch=1 n=c#3 v=0
21941 On ch=1 n=f#3 v=0
21941 On ch=1 n=a4 v=0
21956 On ch=1 n=c#5 v=0
21956 On ch=1 n=a5 v=0
21971 On ch=1 n=f#5 v=0
22031 Par ch=1 c=64 v=88
22036 On ch=1 n=g#5 v=86
22036 On ch=1 n=g#4 v=80
22046 Par ch=1 c=64 v=56
22061 Par ch=1 c=64 v=24
22076 Par ch=1 c=64 v=0
22091 On ch=1 n=g#4 v=0
22106 On ch=1 n=g#5 v=0
22181 On ch=1 n=a5 v=97
22186 On ch=1 n=a4 v=85
22236 On ch=1 n=a4 v=0
22236 On ch=1 n=a5 v=0
22321 On ch=1 n=b5 v=94
22326 On ch=1 n=b4 v=86
22376 On ch=1 n=b4 v=0
22391 On ch=1 n=b5 v=0
22506 On ch=1 n=c6 v=105
22511 On ch=1 n=c5 v=107
22511 On ch=1 n=f#5 v=86
22521 On ch=1 n=d#5 v=71
22531 On ch=1 n=g#3 v=69
22531 On ch=1 n=g#2 v=61
22541 On ch=1 n=d#3 v=57
22541 On ch=1 n=c3 v=61
22551 On ch=1 n=d#5 v=0
22556 Par ch=1 c=64 v=40
22571 Par ch=1 c=64 v=88
22586 Par ch=1 c=64 v=127
22911 On ch=1 n=d#3 v=0
22916 On ch=1 n=c3 v=0
22926 On ch=1 n=c6 v=0
22931 On ch=1 n=g#2 v=0
22941 On ch=1 n=g#3 v=0
22956 On ch=1 n=c5 v=0
22966 On ch=1 n=f#5 v=0
23066 Par ch=1 c=64 v=104
23081 Par ch=1 c=64 v=72
23101 Par ch=1 c=64 v=40
23116 Par ch=1 c=64 v=0
23201 On ch=1 n=c6 v=97
23206 On ch=1 n=c5 v=93
23206 On ch=1 n=d#5 v=81
23211 On ch=1 n=d#3 v=65
23216 On ch=1 n=g3 v=76
23221 On ch=1 n=c3 v=62
23226 On ch=1 n=g2 v=60
23226 Par ch=1 c=64 v=56
23241 Par ch=1 c=64 v=127
23266 On ch=1 n=g2 v=0
23266 On ch=1 n=c3 v=0
23266 On ch=1 n=d#5 v=0
23276 On ch=1 n=g3 v=0
23276 On ch=1 n=d#3 v=0
23276 On ch=1 n=c5 v=0
23286 On ch=1 n=c6 v=0
23371 On ch=1 n=b5 v=90
23381 On ch=1 n=b4 v=76
23416 Par ch=1 c=64 v=88
23431 On ch=1 n=b4 v=0
23431 Par ch=1 c=64 v=72
23436 On ch=1 n=b5 v=0
23451 Par ch=1 c=64 v=56
23466 Par ch=1 c=64 v=40
23481 Par ch=1 c=64 v=24
23501 Par ch=1 c=64 v=0
23526 On ch=1 n=a5 v=102
23531 On ch=1 n=a4 v=83
23586 On ch=1 n=a4 v=0
23601 On ch=1 n=a5 v=0
23681 On ch=1 n=g#4 v=90
23681 On ch=1 n=g#5 v=96
23751 On ch=1 n=g#4 v=0
23776 On ch=1 n=g#5 v=0
23856 On ch=1 n=a5 v=103
23861 On ch=1 n=a4 v=94
23871 On ch=1 n=d#3 v=71
23871 On ch=1 n=f#3 v=75
23876 On ch=1 n=f#2 v=64
23881 On ch=1 n=c3 v=71
23896 On ch=1 n=d#5 v=63
23916 Par ch=1 c=64 v=88
23931 Par ch=1 c=64 v=127
23996 On ch=1 n=f#2 v=0
24001 On ch=1 n=c3 v=0
24006 On ch=1 n=f#3 v=0
24021 On ch=1 n=d#5 v=0
24021 On ch=1 n=d#3 v=0
24036 On ch=1 n=a4 v=0
24091 On ch=1 n=a5 v=0
24296 Par ch=1 c=64 v=88
24311 Par ch=1 c=64 v=56
24331 Par ch=1 c=64 v=40
24341 Par ch=1 c=64 v=0
24396 On ch=1 n=c6 v=94
24396 On ch=1 n=c5 v=89
24401 On ch=1 n=c3 v=69
24406 On ch=1 n=c4 v=72
24461 On ch=1 n=c4 v=0
24461 On ch=1 n=c3 v=0
24461 On ch=1 n=c5 v=0
24466 On ch=1 n=c6 v=0
24566 On ch=1 n=b5 v=92
24566 On ch=1 n=b4 v=84
24576 On ch=1 n=b3 v=82
24606 On ch=1 n=b2 v=35
24621 On ch=1 n=b4 v=0
24631 On ch=1 n=b3 v=0
24631 On ch=1 n=b5 v=0
24641 On ch=1 n=b2 v=0
24716 On ch=1 n=a5 v=89
24726 On ch=1 n=a3 v=82
24726 On ch=1 n=a4 v=74
24756 On ch=1 n=a2 v=29
24781 On ch=1 n=a4 v=0
24781 On ch=1 n=a3 v=0
24786 On ch=1 n=a5 v=0
24791 On ch=1 n=a2 v=0
24876 On ch=1 n=g5 v=86
24876 On ch=1 n=g4 v=83
24886 On ch=1 n=g3 v=77
24891 On ch=1 n=g2 v=70
24916 On ch=1 n=g2 v=0
24931 On ch=1 n=g4 v=0
24941 On ch=1 n=g3 v=0
24946 On ch=1 n=g5 v=0
25036 On ch=1 n=b5 v=90
25046 On ch=1 n=b4 v=81
25051 On ch=1 n=b3 v=82
25056 On ch=1 n=b2 v=70
25081 On ch=1 n=b3 v=0
25086 On ch=1 n=b2 v=0
25086 On ch=1 n=b4 v=0
25101 On ch=1 n=b5 v=0
25206 On ch=1 n=a5 v=97
25211 On ch=1 n=a4 v=94
25211 On ch=1 n=a3 v=99
25211 Par ch=1 c=64 v=56
25221 On ch=1 n=a2 v=84
25221 Par ch=1 c=64 v=104
25236 Par ch=1 c=64 v=127
25261 On ch=1 n=a3 v=0
25266 On ch=1 n=a4 v=0
25271 On ch=1 n=a2 v=0
25276 On ch=1 n=a5 v=0
25291 Par ch=1 c=64 v=104
25301 Par ch=1 c=64 v=88
25321 Par ch=1 c=64 v=56
25336 Par ch=1 c=64 v=24
25351 Par ch=1 c=64 v=0
25361 On ch=1 n=g5 v=88
25361 On ch=1 n=g4 v=84
25361 On ch=1 n=g3 v=73
25386 On ch=1 n=g3 v=0
25391 On ch=1 n=g2 v=32
25416 On ch=1 n=g4 v=0
25421 On ch=1 n=g5 v=0
25426 On ch=1 n=g2 v=0
25521 On ch=1 n=f3 v=75
25526 On ch=1 n=f5 v=88
25526 On ch=1 n=f4 v=82
25526 On ch=1 n=f2 v=66
25551 On ch=1 n=f4 v=0
25556 On ch=1 n=f2 v=0
25576 On ch=1 n=f5 v=0
25576 On ch=1 n=f3 v=0
25676 On ch=1 n=a5 v=92
25681 On ch=1 n=a3 v=80
25681 On ch=1 n=a4 v=79
25691 On ch=1 n=a2 v=66
25711 On ch=1 n=a3 v=0
25721 On ch=1 n=a2 v=0
25726 On ch=1 n=a4 v=0
25726 On ch=1 n=a5 v=0
25811 Par ch=1 c=64 v=24
25831 Par ch=1 c=64 v=104
25841 On ch=1 n=g5 v=93
25846 On ch=1 n=g4 v=92
25846 On ch=1 n=g3 v=86
25846 Par ch=1 c=64 v=127
25856 On ch=1 n=g2 v=72
25886 On ch=1 n=g4 v=0
25896 On ch=1 n=g2 v=0
25896 On ch=1 n=g3 v=0
25906 On ch=1 n=g5 v=0
25941 Par ch=1 c=64 v=104
25956 Par ch=1 c=64 v=56
25976 Par ch=1 c=64 v=24
25991 On ch=1 n=f5 v=90
25991 Par ch=1 c=64 v=0
25996 On ch=1 n=f4 v=84
26006 On ch=1 n=f3 v=76
26016 On ch=1 n=f2 v=64
26041 On ch=1 n=f2 v=0
26051 On ch=1 n=f4 v=0
26056 On ch=1 n=f3 v=0
26056 On ch=1 n=f5 v=0
26146 On ch=1 n=e5 v=92
26151 On ch=1 n=e4 v=82
26161 On ch=1 n=e3 v=74
26171 On ch=1 n=e2 v=70
26186 On ch=1 n=e4 v=0
26196 On ch=1 n=e2 v=0
26201 On ch=1 n=e3 v=0
26211 On ch=1 n=e5 v=0
26296 On ch=1 n=g5 v=90
26301 On ch=1 n=g4 v=82
26311 On ch=1 n=g3 v=80
26316 On ch=1 n=g2 v=73
26336 On ch=1 n=g3 v=0
26346 On ch=1 n=g2 v=0
26346 On ch=1 n=g4 v=0
26356 On ch=1 n=g5 v=0
26456 Par ch=1 c=64 v=72
26466 On ch=1 n=f5 v=94
26466 On ch=1 n=f3 v=86
26471 On ch=1 n=f4 v=94
26471 Par ch=1 c=64 v=127
26476 On ch=1 n=f2 v=79
26521 On ch=1 n=f4 v=0
26521 On ch=1 n=f3 v=0
26526 On ch=1 n=f2 v=0
26531 On ch=1 n=f5 v=0
26616 Par ch=1 c=64 v=88
26621 On ch=1 n=e5 v=93
26621 On ch=1 n=e3 v=81
26631 On ch=1 n=e4 v=80
26631 Par ch=1 c=64 v=56
26641 On ch=1 n=e2 v=63
26646 Par ch=1 c=64 v=24
26661 Par ch=1 c=64 v=0
26666 On ch=1 n=e2 v=0
26676 On ch=1 n=e4 v=0
26681 On ch=1 n=e3 v=0
26691 On ch=1 n=e5 v=0
26771 On ch=1 n=d#4 v=85
26771 On ch=1 n=d#5 v=85
26786 On ch=1 n=d#3 v=68
26786 On ch=1 n=d#2 v=64
26811 On ch=1 n=d#2 v=0
26811 On ch=1 n=d#3 v=0
26826 On ch=1 n=d#4 v=0
26856 On ch=1 n=d#5 v=0
26931 On ch=1 n=f5 v=93
26931 On ch=1 n=f3 v=74
26936 On ch=1 n=f4 v=84
26941 On ch=1 n=f2 v=56
26966 On ch=1 n=f3 v=0
26971 On ch=1 n=f2 v=0
26981 On ch=1 n=f4 v=0
26996 On ch=1 n=f5 v=0
27096 On ch=1 n=f5 v=100
27096 On ch=1 n=f4 v=99
27096 Par ch=1 c=64 v=104
27101 On ch=1 n=f3 v=87
27111 On ch=1 n=f2 v=82
27111 Par ch=1 c=64 v=127
27151 On ch=1 n=f4 v=0
27166 On ch=1 n=f2 v=0
27166 On ch=1 n=f3 v=0
27171 On ch=1 n=f5 v=0
27251 On ch=1 n=e5 v=96
27256 On ch=1 n=e3 v=82
27256 On ch=1 n=e4 v=87
27261 On ch=1 n=e2 v=67
27271 Par ch=1 c=64 v=72
27286 Par ch=1 c=64 v=24
27296 On ch=1 n=e2 v=0
27301 Par ch=1 c=64 v=0
27311 On ch=1 n=e4 v=0
27311 On ch=1 n=e3 v=0
27316 On ch=1 n=e5 v=0
27411 On ch=1 n=e3 v=82
27416 On ch=1 n=e5 v=97
27416 On ch=1 n=e4 v=86
27426 On ch=1 n=e2 v=74
27451 On ch=1 n=e2 v=0
27466 On ch=1 n=e4 v=0
27471 On ch=1 n=e5 v=0
27476 On ch=1 n=e3 v=0
27571 On ch=1 n=d#4 v=85
27576 On ch=1 n=d#5 v=84
27581 On ch=1 n=d#3 v=67
27586 On ch=1 n=d#2 v=48
27606 On ch=1 n=d#3 v=0
27616 On ch=1 n=d#2 v=0
27616 On ch=1 n=d#4 v=0
27636 On ch=1 n=d#5 v=0
27756 On ch=1 n=f5 v=96
27756 On ch=1 n=f4 v=94
27761 On ch=1 n=f3 v=81
27766 Par ch=1 c=64 v=56
27781 On ch=1 n=f2 v=53
27781 Par ch=1 c=64 v=127
27806 On ch=1 n=f2 v=0
27811 On ch=1 n=f4 v=0
27821 On ch=1 n=f3 v=0
27826 On ch=1 n=f5 v=0
27901 On ch=1 n=e5 v=94
27911 On ch=1 n=e4 v=84
27911 On ch=1 n=e3 v=72
27951 On ch=1 n=e3 v=0
27961 On ch=1 n=e4 v=0
27971 On ch=1 n=e5 v=0
27971 Par ch=1 c=64 v=104
27991 Par ch=1 c=64 v=72
28006 Par ch=1 c=64 v=24
28021 Par ch=1 c=64 v=0
28066 On ch=1 n=e5 v=97
28066 On ch=1 n=e3 v=79
28076 On ch=1 n=e4 v=85
28081 On ch=1 n=e2 v=70
28111 On ch=1 n=e2 v=0
28126 On ch=1 n=e4 v=0
28126 On ch=1 n=e3 v=0
28136 On ch=1 n=e5 v=0
28221 On ch=1 n=d#5 v=88
28221 On ch=1 n=d#4 v=86
28231 On ch=1 n=d#3 v=71
28236 On ch=1 n=d#2 v=64
28276 On ch=1 n=d#2 v=0
28276 On ch=1 n=d#4 v=0
28281 On ch=1 n=d#3 v=0
28306 On ch=1 n=d#5 v=0
28406 On ch=1 n=e5 v=107
28411 On ch=1 n=e4 v=100
28421 On ch=1 n=e3 v=83
28431 On ch=1 n=e2 v=82
28536 Par ch=1 c=64 v=104
28551 Par ch=1 c=64 v=127
28726 On ch=1 n=e2 v=0
28726 On ch=1 n=e4 v=0
28756 On ch=1 n=e3 v=0
28791 On ch=1 n=e5 v=0
29086 On ch=1 n=e6 v=100
29091 On ch=1 n=e5 v=94
29091 Par ch=1 c=64 v=88
29096 On ch=1 n=g#5 v=72
29101 On ch=1 n=b5 v=84
29106 On ch=1 n=e4 v=88
29106 Par ch=1 c=64 v=0
29111 On ch=1 n=e3 v=74
29111 On ch=1 n=b3 v=82
29111 On ch=1 n=g#3 v=71
29156 On ch=1 n=g#5 v=0
29166 On ch=1 n=e5 v=0
29171 On ch=1 n=b3 v=0
29171 On ch=1 n=e4 v=0
29176 On ch=1 n=g#3 v=0
29176 On ch=1 n=e3 v=0
29186 On ch=1 n=b5 v=0
29201 Par ch=1 c=64 v=127
29226 On ch=1 n=e6 v=0
29446 On ch=1 n=e6 v=86
29451 On ch=1 n=e4 v=75
29476 Par ch=1 c=64 v=88
29491 Par ch=1 c=64 v=56
29506 Par ch=1 c=64 v=40
29546 On ch=1 n=e4 v=0
29561 On ch=1 n=f#6 v=73
29561 On ch=1 n=f#4 v=71
29571 Par ch=1 c=64 v=56
29581 On ch=1 n=e6 v=0
29586 Par ch=1 c=64 v=72
29601 Par ch=1 c=64 v=88
29616 Par ch=1 c=64 v=104
29621 On ch=1 n=g#6 v=72
29631 Par ch=1 c=64 v=127
29641 On ch=1 n=f#4 v=0
29656 On ch=1 n=g#4 v=65
29696 On ch=1 n=f#6 v=0
29711 On ch=1 n=g#6 v=0
29716 On ch=1 n=g#4 v=0
29716 Par ch=1 c=64 v=0
29741 On ch=1 n=a6 v=94
29746 On ch=1 n=c6 v=107
29771 On ch=1 n=a4 v=89
29776 On ch=1 n=a3 v=86
29801 On ch=1 n=c6 v=0
29811 Par ch=1 c=64 v=104
29816 On ch=1 n=a3 v=0
29816 On ch=1 n=a4 v=0
29821 On ch=1 n=a6 v=0
29826 Par ch=1 c=64 v=127
29921 Par ch=1 c=64 v=72
29936 Par ch=1 c=64 v=40
29951 Par ch=1 c=64 v=0
30106 On ch=1 n=g#6 v=91
30106 On ch=1 n=g#5 v=90
30121 On ch=1 n=f3 v=69
30126 On ch=1 n=f4 v=70
30126 On ch=1 n=b5 v=68
30146 On ch=1 n=f3 v=0
30151 On ch=1 n=b5 v=0
30161 On ch=1 n=f4 v=0
30161 On ch=1 n=g#5 v=0
30176 On ch=1 n=g#6 v=0
30261 On ch=1 n=b5 v=88
30261 On ch=1 n=b6 v=89
30266 On ch=1 n=d6 v=85
30296 On ch=1 n=d6 v=0
30306 On ch=1 n=b5 v=0
30316 On ch=1 n=b6 v=0
30421 On ch=1 n=a6 v=97
30421 Par ch=1 c=64 v=88
30426 On ch=1 n=a5 v=93
30436 On ch=1 n=c6 v=89
30436 Par ch=1 c=64 v=127
30456 On ch=1 n=a4 v=79
30461 On ch=1 n=c6 v=0
30461 On ch=1 n=a3 v=81
30471 On ch=1 n=a5 v=0
30481 On ch=1 n=a6 v=0
30506 On ch=1 n=a4 v=0
30511 On ch=1 n=a3 v=0
30546 Par ch=1 c=64 v=88
30561 Par ch=1 c=64 v=40
30576 Par ch=1 c=64 v=0
30761 On ch=1 n=g#6 v=93
30761 On ch=1 n=g#5 v=88
30776 On ch=1 n=e4 v=80
30781 On ch=1 n=b5 v=69
30781 On ch=1 n=e3 v=70
30806 On ch=1 n=e3 v=0
30806 On ch=1 n=b5 v=0
30806 On ch=1 n=e4 v=0
30811 On ch=1 n=g#5 v=0
30826 On ch=1 n=g#6 v=0
30911 On ch=1 n=b5 v=92
30911 On ch=1 n=b6 v=96
30921 On ch=1 n=d6 v=88
30946 On ch=1 n=d6 v=0
30956 On ch=1 n=b5 v=0
30966 On ch=1 n=b6 v=0
31056 Par ch=1 c=64 v=40
31071 Par ch=1 c=64 v=104
31076 On ch=1 n=a6 v=96
31076 On ch=1 n=a5 v=90
31086 On ch=1 n=c6 v=90
31086 Par ch=1 c=64 v=127
31096 On ch=1 n=a4 v=79
31111 On ch=1 n=c6 v=0
31111 On ch=1 n=a3 v=68
31121 On ch=1 n=a6 v=0
31126 On ch=1 n=a5 v=0
31141 On ch=1 n=a3 v=0
31156 On ch=1 n=a4 v=0
31186 Par ch=1 c=64 v=104
31201 Par ch=1 c=64 v=72
31216 Par ch=1 c=64 v=40
31231 Par ch=1 c=64 v=0
31436 On ch=1 n=g#6 v=93
31441 On ch=1 n=g#5 v=93
31441 Par ch=1 c=64 v=40
31446 On ch=1 n=d4 v=82
31446 On ch=1 n=f3 v=73
31446 On ch=1 n=b5 v=89
31446 On ch=1 n=d3 v=66
31456 Par ch=1 c=64 v=88
31471 Par ch=1 c=64 v=127
31476 On ch=1 n=d3 v=0
31491 On ch=1 n=b5 v=0
31506 On ch=1 n=f3 v=0
31506 On ch=1 n=d4 v=0
31511 On ch=1 n=g#5 v=0
31551 On ch=1 n=g#6 v=0
31551 Par ch=1 c=64 v=88
31571 Par ch=1 c=64 v=56
31586 Par ch=1 c=64 v=40
31601 Par ch=1 c=64 v=24
31611 Par ch=1 c=64 v=0
31816 On ch=1 n=a6 v=105
31821 On ch=1 n=a5 v=92
31826 On ch=1 n=c6 v=94
31826 On ch=1 n=a4 v=78
31831 On ch=1 n=e4 v=83
31831 On ch=1 n=a3 v=84
31871 Par ch=1 c=64 v=40
31891 Par ch=1 c=64 v=127
31951 On ch=1 n=a4 v=0
31956 On ch=1 n=a3 v=0
31966 On ch=1 n=e4 v=0
31976 On ch=1 n=a5 v=0
32021 On ch=1 n=c6 v=0
32086 On ch=1 n=a6 v=0
32306 Par ch=1 c=64 v=104
32321 On ch=1 n=c3 v=74
32321 Par ch=1 c=64 v=24
32336 Par ch=1 c=64 v=0
32401 Par ch=1 c=64 v=56
32406 On ch=1 n=c3 v=0
32416 On ch=1 n=c4 v=82
32416 Par ch=1 c=64 v=127
32446 On ch=1 n=c4 v=0
32571 Par ch=1 c=64 v=56
32591 Par ch=1 c=64 v=40
32596 On ch=1 n=a7 v=99
32606 On ch=1 n=c7 v=84
32606 On ch=1 n=a6 v=82
32616 On ch=1 n=f5 v=74
32621 On ch=1 n=a5 v=84
32626 On ch=1 n=c5 v=48
32626 On ch=1 n=a4 v=71
32626 Par ch=1 c=64 v=104
32641 Par ch=1 c=64 v=127
32661 On ch=1 n=a6 v=0
32661 On ch=1 n=c7 v=0
32681 On ch=1 n=a5 v=0
32681 On ch=1 n=f5 v=0
32686 On ch=1 n=a7 v=0
32696 On ch=1 n=c5 v=0
32701 On ch=1 n=a4 v=0
32761 On ch=1 n=g#6 v=92
32761 On ch=1 n=g#7 v=92
32826 On ch=1 n=g#6 v=0
32851 On ch=1 n=g#7 v=0
32916 On ch=1 n=a7 v=97
32926 On ch=1 n=a6 v=81
32981 On ch=1 n=a6 v=0
32986 On ch=1 n=a7 v=0
32991 Par ch=1 c=64 v=104
33006 Par ch=1 c=64 v=56
33021 Par ch=1 c=64 v=40
33041 On ch=1 n=c3 v=70
33056 Par ch=1 c=64 v=72
33066 On ch=1 n=c3 v=0
33071 Par ch=1 c=64 v=127
33076 On ch=1 n=c4 v=84
33076 On ch=1 n=b6 v=90
33081 On ch=1 n=b7 v=100
33101 On ch=1 n=c4 v=0
33131 On ch=1 n=b6 v=0
33161 On ch=1 n=b7 v=0
33276 Par ch=1 c=64 v=104
33281 On ch=1 n=c8 v=96
33286 On ch=1 n=c7 v=89
33286 On ch=1 n=g7 v=80
33291 On ch=1 n=e7 v=84
33296 Par ch=1 c=64 v=0
33306 On ch=1 n=g5 v=78
33306 On ch=1 n=e5 v=68
33311 On ch=1 n=c6 v=87
33311 On ch=1 n=c5 v=73
33391 On ch=1 n=c6 v=0
33391 Par ch=1 c=64 v=88
33406 Par ch=1 c=64 v=127
33411 On ch=1 n=g5 v=0
33456 On ch=1 n=e5 v=0
33466 On ch=1 n=c5 v=0
33726 Par ch=1 c=64 v=104
33741 Par ch=1 c=64 v=24
33756 Par ch=1 c=64 v=0
33776 On ch=1 n=a2 v=79
33791 On ch=1 n=e7 v=0
33821 Par ch=1 c=64 v=56
33836 Par ch=1 c=64 v=127
33846 On ch=1 n=a3 v=81
33851 On ch=1 n=a2 v=0
33851 On ch=1 n=c7 v=0
33851 On ch=1 n=c8 v=0
33861 On ch=1 n=g7 v=0
33876 On ch=1 n=a3 v=0
34026 Par ch=1 c=64 v=72
34041 Par ch=1 c=64 v=24
34051 On ch=1 n=c8 v=102
34056 On ch=1 n=c7 v=90
34056 On ch=1 n=f7 v=89
34066 On ch=1 n=d5 v=82
34071 On ch=1 n=f5 v=84
34081 On ch=1 n=a4 v=63
34081 On ch=1 n=f4 v=69
34096 Par ch=1 c=64 v=127
34131 On ch=1 n=f5 v=0
34131 On ch=1 n=c7 v=0
34141 On ch=1 n=d5 v=0
34146 On ch=1 n=f7 v=0
34146 On ch=1 n=c8 v=0
34166 On ch=1 n=a4 v=0
34181 On ch=1 n=f4 v=0
34226 On ch=1 n=b7 v=94
34231 On ch=1 n=b6 v=83
34286 On ch=1 n=b6 v=0
34296 On ch=1 n=b7 v=0
34381 On ch=1 n=a7 v=97
34391 On ch=1 n=a6 v=76
34451 On ch=1 n=a6 v=0
34466 On ch=1 n=a7 v=0
34496 On ch=1 n=a2 v=67
34516 On ch=1 n=a3 v=82
34526 On ch=1 n=a2 v=0
34546 On ch=1 n=g#7 v=91
34546 On ch=1 n=g#6 v=87
34561 On ch=1 n=a3 v=0
34616 On ch=1 n=g#6 v=0
34621 On ch=1 n=g#7 v=0
34756 On ch=1 n=a7 v=109
34761 On ch=1 n=a6 v=89
34761 On ch=1 n=c7 v=80
34766 On ch=1 n=e7 v=84
34786 On ch=1 n=e5 v=74
34791 On ch=1 n=c5 v=58
34796 On ch=1 n=a4 v=74
34796 On ch=1 n=a5 v=78
34796 Par ch=1 c=64 v=72
34811 Par ch=1 c=64 v=0
34926 Par ch=1 c=64 v=88
34941 Par ch=1 c=64 v=127
35006 On ch=1 n=a5 v=0
35011 On ch=1 n=a4 v=0
35031 On ch=1 n=c7 v=0
35036 On ch=1 n=c5 v=0
35036 On ch=1 n=e5 v=0
35051 On ch=1 n=a6 v=0
35066 On ch=1 n=e7 v=0
35096 On ch=1 n=a7 v=0
35211 Par ch=1 c=64 v=104
35226 Par ch=1 c=64 v=72
35246 Par ch=1 c=64 v=56
35261 Par ch=1 c=64 v=24
35276 Par ch=1 c=64 v=0
35336 On ch=1 n=c8 v=88
35346 On ch=1 n=c7 v=83
35406 On ch=1 n=c7 v=0
35416 On ch=1 n=c8 v=0
35496 Par ch=1 c=64 v=88
35511 On ch=1 n=b7 v=94
35511 Par ch=1 c=64 v=127
35516 On ch=1 n=b2 v=62
35521 On ch=1 n=b6 v=85
35521 On ch=1 n=b3 v=78
35546 On ch=1 n=b2 v=0
35576 On ch=1 n=b3 v=0
35576 On ch=1 n=b6 v=0
35576 On ch=1 n=b7 v=0
35611 Par ch=1 c=64 v=104
35626 Par ch=1 c=64 v=88
35641 Par ch=1 c=64 v=56
35661 Par ch=1 c=64 v=40
35676 Par ch=1 c=64 v=24
35686 On ch=1 n=a7 v=93
35691 Par ch=1 c=64 v=0
35696 On ch=1 n=a6 v=74
35736 On ch=1 n=a6 v=0
35751 On ch=1 n=a7 v=0
35851 On ch=1 n=g#6 v=83
35851 On ch=1 n=g#7 v=89
35861 On ch=1 n=g#5 v=67
35866 On ch=1 n=b4 v=63
35881 On ch=1 n=e5 v=62
35911 On ch=1 n=e5 v=0
35911 On ch=1 n=g#6 v=0
35921 On ch=1 n=g#5 v=0
35921 On ch=1 n=g#7 v=0
35936 On ch=1 n=b4 v=0
36011 On ch=1 n=b7 v=90
36016 On ch=1 n=b6 v=83
36056 On ch=1 n=b6 v=0
36061 On ch=1 n=b7 v=0
36151 Par ch=1 c=64 v=40
36171 Par ch=1 c=64 v=127
36186 On ch=1 n=a7 v=93
36186 On ch=1 n=b3 v=74
36196 On ch=1 n=a6 v=75
36221 On ch=1 n=a6 v=0
36221 On ch=1 n=b3 v=0
36226 On ch=1 n=a7 v=0
36331 Par ch=1 c=64 v=104
36346 On ch=1 n=c#7 v=83
36346 Par ch=1 c=64 v=72
36351 On ch=1 n=c#6 v=85
36361 Par ch=1 c=64 v=40
36376 On ch=1 n=c#6 v=0
36376 Par ch=1 c=64 v=24
36396 On ch=1 n=c#7 v=0
36396 Par ch=1 c=64 v=0
36521 On ch=1 n=f#6 v=88
36521 On ch=1 n=f#7 v=85
36536 On ch=1 n=a5 v=71
36536 On ch=1 n=f#5 v=62
36546 On ch=1 n=c#5 v=48
36566 On ch=1 n=f#6 v=0
36571 On ch=1 n=a5 v=0
36576 On ch=1 n=f#5 v=0
36586 On ch=1 n=f#7 v=0
36596 On ch=1 n=c#5 v=0
36686 On ch=1 n=a7 v=97
36691 On ch=1 n=a6 v=84
36716 On ch=1 n=a6 v=0
36746 On ch=1 n=a7 v=0
36826 Par ch=1 c=64 v=56
36841 Par ch=1 c=64 v=127
36851 On ch=1 n=g#7 v=87
36856 On ch=1 n=g#6 v=83
36856 On ch=1 n=b3 v=69
36901 On ch=1 n=g#6 v=0
36906 On ch=1 n=b3 v=0
36906 On ch=1 n=g#7 v=0
36906 Par ch=1 c=64 v=104
36921 Par ch=1 c=64 v=88
36936 Par ch=1 c=64 v=56
36951 Par ch=1 c=64 v=24
36966 Par ch=1 c=64 v=0
37011 On ch=1 n=f#7 v=80
37016 On ch=1 n=f#6 v=85
37061 On ch=1 n=f#6 v=0
37076 On ch=1 n=f#7 v=0
37176 On ch=1 n=e7 v=89
37176 On ch=1 n=e6 v=81
37191 On ch=1 n=g#5 v=60
37206 On ch=1 n=e6 v=0
37206 On ch=1 n=b4 v=46
37216 On ch=1 n=e5 v=49
37231 On ch=1 n=g#5 v=0
37236 On ch=1 n=e7 v=0
37251 On ch=1 n=e5 v=0
37266 On ch=1 n=b4 v=0
37331 On ch=1 n=g#7 v=89
37331 On ch=1 n=g#6 v=85
37381 On ch=1 n=g#6 v=0
37396 On ch=1 n=g#7 v=0
37481 Par ch=1 c=64 v=88
37496 On ch=1 n=b3 v=66
37496 Par ch=1 c=64 v=127
37501 On ch=1 n=f#7 v=82
37501 On ch=1 n=f#6 v=86
37536 On ch=1 n=b3 v=0
37546 On ch=1 n=f#6 v=0
37556 On ch=1 n=f#7 v=0
37641 Par ch=1 c=64 v=88
37656 Par ch=1 c=64 v=72
37661 On ch=1 n=e7 v=90
37666 On ch=1 n=e6 v=90
37671 Par ch=1 c=64 v=56
37686 Par ch=1 c=64 v=40
37701 Par ch=1 c=64 v=0
37716 On ch=1 n=e6 v=0
37716 On ch=1 n=e7 v=0
37821 On ch=1 n=d#7 v=89
37821 On ch=1 n=d#6 v=92
37831 On ch=1 n=f#5 v=46
37831 On ch=1 n=d#5 v=56
37836 On ch=1 n=a4 v=41
37871 On ch=1 n=d#6 v=0
37881 On ch=1 n=f#5 v=0
37886 On ch=1 n=a4 v=0
37891 On ch=1 n=d#5 v=0
37891 On ch=1 n=d#7 v=0
37986 On ch=1 n=f#7 v=87
37986 On ch=1 n=f#6 v=90
38036 On ch=1 n=f#6 v=0
38051 On ch=1 n=f#7 v=0
38136 Par ch=1 c=64 v=88
38151 On ch=1 n=f#7 v=86
38151 Par ch=1 c=64 v=127
38156 On ch=1 n=f#6 v=89
38161 On ch=1 n=e5 v=64
38166 On ch=1 n=e4 v=53
38166 On ch=1 n=b4 v=53
38171 On ch=1 n=g#4 v=43
38206 On ch=1 n=f#6 v=0
38226 On ch=1 n=f#7 v=0
38246 On ch=1 n=e4 v=0
38256 On ch=1 n=b4 v=0
38261 On ch=1 n=g#4 v=0
38291 On ch=1 n=e5 v=0
38316 On ch=1 n=e7 v=92
38326 On ch=1 n=e6 v=84
38351 On ch=1 n=e6 v=0
38366 On ch=1 n=e7 v=0
38376 Par ch=1 c=64 v=88
38391 Par ch=1 c=64 v=56
38406 Par ch=1 c=64 v=24
38421 Par ch=1 c=64 v=0
38476 On ch=1 n=e7 v=92
38481 On ch=1 n=e6 v=87
38491 On ch=1 n=c5 v=70
38506 On ch=1 n=a4 v=44
38511 On ch=1 n=f#5 v=28
38516 On ch=1 n=c5 v=0
38521 On ch=1 n=e6 v=0
38531 On ch=1 n=e7 v=0
38541 On ch=1 n=f#5 v=0
38541 On ch=1 n=a4 v=0
38631 On ch=1 n=d#7 v=89
38636 On ch=1 n=d#6 v=95
38686 On ch=1 n=d#6 v=0
38711 On ch=1 n=d#7 v=0
38801 On ch=1 n=f#7 v=92
38801 On ch=1 n=f#6 v=96
38806 Par ch=1 c=64 v=127
38816 On ch=1 n=e5 v=66
38821 On ch=1 n=b4 v=56
38826 On ch=1 n=e4 v=58
38826 On ch=1 n=g#4 v=47
38851 On ch=1 n=f#6 v=0
38861 On ch=1 n=f#7 v=0
38901 On ch=1 n=b4 v=0
38911 On ch=1 n=g#4 v=0
38916 On ch=1 n=e4 v=0
38941 On ch=1 n=e5 v=0
38951 On ch=1 n=e7 v=93
38961 On ch=1 n=e6 v=85
38996 On ch=1 n=e6 v=0
39001 On ch=1 n=e7 v=0
39031 Par ch=1 c=64 v=88
39046 Par ch=1 c=64 v=56
39061 Par ch=1 c=64 v=24
39076 Par ch=1 c=64 v=0
39116 On ch=1 n=e7 v=90
39126 On ch=1 n=e6 v=86
39126 On ch=1 n=f#5 v=63
39136 On ch=1 n=c5 v=60
39151 On ch=1 n=a4 v=33
39161 On ch=1 n=c5 v=0
39171 On ch=1 n=e6 v=0
39171 On ch=1 n=e7 v=0
39176 On ch=1 n=f#5 v=0
39186 On ch=1 n=a4 v=0
39271 On ch=1 n=d#6 v=96
39276 On ch=1 n=d#7 v=93
39336 On ch=1 n=d#6 v=0
39356 On ch=1 n=d#7 v=0
39456 On ch=1 n=e7 v=99
39461 On ch=1 n=e6 v=97
39466 On ch=1 n=b6 v=90
39466 On ch=1 n=g#6 v=78
39476 On ch=1 n=e5 v=85
39476 On ch=1 n=g#4 v=69
39481 On ch=1 n=b4 v=77
39481 On ch=1 n=e4 v=70
39511 Par ch=1 c=64 v=72
39526 Par ch=1 c=64 v=127
39541 On ch=1 n=e4 v=0
39541 On ch=1 n=b4 v=0
39546 On ch=1 n=e5 v=0
39546 On ch=1 n=e6 v=0
39551 On ch=1 n=g#6 v=0
39561 On ch=1 n=g#4 v=0
39571 On ch=1 n=b6 v=0
39596 On ch=1 n=e7 v=0
40181 Par ch=1 c=64 v=72
40196 Par ch=1 c=64 v=0
40211 On ch=1 n=e8 v=110
40211 On ch=1 n=e7 v=97
40216 On ch=1 n=b7 v=99
40216 On ch=1 n=g#7 v=88
40221 On ch=1 n=e4 v=93
40221 On ch=1 n=b3 v=88
40221 On ch=1 n=e3 v=76
40221 On ch=1 n=g#3 v=76
40276 Par ch=1 c=64 v=88
40291 Par ch=1 c=64 v=127
40311 On ch=1 n=e8 v=0
40331 On ch=1 n=b3 v=0
40331 On ch=1 n=b7 v=0
40331 On ch=1 n=e7 v=0
40336 On ch=1 n=e3 v=0
40341 On ch=1 n=e4 v=0
40341 On ch=1 n=g#7 v=0
40351 On ch=1 n=g#3 v=0
40771 Par ch=1 c=64 v=104
40791 Par ch=1 c=64 v=72
40806 Par ch=1 c=64 v=0
40862 Par ch=1 c=64 v=127
40902 On ch=1 n=e5 v=83
40957 On ch=1 n=e5 v=0
40957 Par ch=1 c=64 v=72
40972 Par ch=1 c=64 v=24
40992 Par ch=1 c=64 v=0
41017 On ch=1 n=e5 v=85
41087 Par ch=1 c=64 v=104
41102 Par ch=1 c=64 v=127
41352 On ch=1 n=e5 v=0
41827 On ch=1 n=g#5 v=88
41837 Par ch=1 c=64 v=56
41842 On ch=1 n=c#5 v=77
41847 On ch=1 n=e5 v=70
41852 Par ch=1 c=64 v=0
41917 On ch=1 n=e5 v=0
41917 Par ch=1 c=64 v=40
41932 Par ch=1 c=64 v=127
41952 On ch=1 n=c#5 v=0
42002 On ch=1 n=g#5 v=0
42687 On ch=1 n=b5 v=93
42697 On ch=1 n=g#5 v=69
42697 On ch=1 n=g#4 v=73
42702 On ch=1 n=d#5 v=62
42797 Par ch=1 c=64 v=104
42812 Par ch=1 c=64 v=56
42827 Par ch=1 c=64 v=0
42987 Par ch=1 c=64 v=24
43002 Par ch=1 c=64 v=88
43017 Par ch=1 c=64 v=127
43127 Par ch=1 c=64 v=104
43142 Par ch=1 c=64 v=56
43162 Par ch=1 c=64 v=0
43257 Par ch=1 c=64 v=72
43272 Par ch=1 c=64 v=127
43792 On ch=1 n=d#5 v=0
43807 On ch=1 n=g#5 v=0
43817 On ch=1 n=b5 v=0
43857 On ch=1 n=g#4 v=0
44102 On ch=1 n=e6 v=88
44112 On ch=1 n=e5 v=68
44122 On ch=1 n=c#5 v=62
44122 On ch=1 n=c#4 v=62
44147 On ch=1 n=e5 v=0
44172 On ch=1 n=c#5 v=0
44177 On ch=1 n=e6 v=0
44187 On ch=1 n=c#4 v=0
44217 Par ch=1 c=64 v=72
44232 On ch=1 n=b5 v=90
44232 Par ch=1 c=64 v=0
44237 On ch=1 n=g#5 v=62
44237 On ch=1 n=g#4 v=67
44237 On ch=1 n=d#5 v=69
44347 Par ch=1 c=64 v=104
44362 On ch=1 n=d#5 v=0
44362 Par ch=1 c=64 v=127
44367 On ch=1 n=g#4 v=0
44387 On ch=1 n=g#5 v=0
44442 On ch=1 n=b5 v=0
44852 On ch=1 n=e6 v=84
44862 On ch=1 n=c#5 v=62
44862 On ch=1 n=e5 v=70
44867 On ch=1 n=c#4 v=67
44902 On ch=1 n=e5 v=0
44927 On ch=1 n=c#5 v=0
44927 On ch=1 n=e6 v=0
44932 On ch=1 n=c#4 v=0
44967 Par ch=1 c=64 v=56
44982 Par ch=1 c=64 v=0
44987 On ch=1 n=b5 v=89
44987 On ch=1 n=g#4 v=79
44987 On ch=1 n=d#5 v=60
44992 On ch=1 n=g#5 v=57
45077 Par ch=1 c=64 v=104
45082 On ch=1 n=g#4 v=0
45097 Par ch=1 c=64 v=127
45107 On ch=1 n=d#5 v=0
45132 On ch=1 n=g#5 v=0
45212 On ch=1 n=b5 v=0
45557 On ch=1 n=c#4 v=68
45557 On ch=1 n=e6 v=85
45557 On ch=1 n=c#5 v=67
45567 On ch=1 n=e5 v=72
45592 On ch=1 n=g#5 v=37
45607 On ch=1 n=e5 v=0
45607 On ch=1 n=c#5 v=0
45612 On ch=1 n=c#4 v=0
45622 On ch=1 n=g#5 v=0
45642 On ch=1 n=e6 v=0
45667 Par ch=1 c=64 v=40
45687 Par ch=1 c=64 v=0
45702 On ch=1 n=b5 v=88
45702 On ch=1 n=d#5 v=70
45702 On ch=1 n=g#5 v=69
45717 On ch=1 n=g#4 v=76
45727 On ch=1 n=g#3 v=69
45772 On ch=1 n=g#4 v=0
45782 On ch=1 n=g#3 v=0
45782 Par ch=1 c=64 v=88
45797 Par ch=1 c=64 v=127
46092 On ch=1 n=g4 v=86
46102 On ch=1 n=g3 v=77
46102 Par ch=1 c=64 v=56
46117 Par ch=1 c=64 v=0
46147 Par ch=1 c=64 v=24
46162 On ch=1 n=g3 v=0
46167 Par ch=1 c=64 v=56
46177 On ch=1 n=g4 v=0
46177 Par ch=1 c=64 v=104
46197 Par ch=1 c=64 v=127
46437 Par ch=1 c=64 v=88
46452 Par ch=1 c=64 v=24
46467 On ch=1 n=f#4 v=85
46467 Par ch=1 c=64 v=0
46472 On ch=1 n=f#3 v=78
46532 Par ch=1 c=64 v=56
46537 On ch=1 n=f#3 v=0
46537 On ch=1 n=f#4 v=0
46547 Par ch=1 c=64 v=127
46757 Par ch=1 c=64 v=104
46772 Par ch=1 c=64 v=40
46787 Par ch=1 c=64 v=0
46852 Par ch=1 c=64 v=24
46867 On ch=1 n=f4 v=94
46867 Par ch=1 c=64 v=88
46872 On ch=1 n=f3 v=78
46882 Par ch=1 c=64 v=127
46932 On ch=1 n=f3 v=0
46942 On ch=1 n=f4 v=0
46952 On ch=1 n=g#5 v=0
46967 On ch=1 n=d#5 v=0
46982 On ch=1 n=b5 v=0
47202 Par ch=1 c=64 v=40
47217 Par ch=1 c=64 v=0
47267 On ch=1 n=e6 v=97
47277 On ch=1 n=d5 v=68
47282 On ch=1 n=b5 v=77
47282 On ch=1 n=g#5 v=61
47287 On ch=1 n=e4 v=93
47287 On ch=1 n=e5 v=77
47287 On ch=1 n=e3 v=81
47312 Par ch=1 c=64 v=56
47327 Par ch=1 c=64 v=127
47337 On ch=1 n=e3 v=0
47337 On ch=1 n=e5 v=0
47337 On ch=1 n=d5 v=0
47352 On ch=1 n=e4 v=0
47352 On ch=1 n=g#5 v=0
47362 On ch=1 n=b5 v=0
47397 On ch=1 n=e6 v=0
48302 Par ch=1 c=64 v=104
48432 Par ch=1 c=64 v=88
48447 Par ch=1 c=64 v=72
48457 On ch=1 n=e6 v=80
48462 Par ch=1 c=64 v=24
48477 Par ch=1 c=64 v=0
48627 Par ch=1 c=64 v=72
48642 Par ch=1 c=64 v=127
48687 Par ch=1 c=64 v=88
48702 Par ch=1 c=64 v=24
48722 Par ch=1 c=64 v=0
48797 On ch=1 n=c7 v=80
48807 On ch=1 n=a4 v=46
48817 Par ch=1 c=64 v=72
48832 Par ch=1 c=64 v=127
48842 On ch=1 n=a4 v=0
48972 On ch=1 n=a5 v=61
49007 On ch=1 n=e7 v=77
49012 On ch=1 n=c7 v=0
49062 On ch=1 n=a5 v=0
49092 On ch=1 n=b5 v=62
49097 On ch=1 n=e6 v=0
49142 On ch=1 n=e7 v=0
49162 On ch=1 n=b5 v=0
49207 On ch=1 n=c6 v=63
49207 On ch=1 n=c7 v=81
49222 On ch=1 n=e6 v=62
49282 On ch=1 n=c6 v=0
49312 On ch=1 n=b5 v=60
49352 On ch=1 n=e6 v=0
49392 On ch=1 n=f6 v=55
49397 On ch=1 n=b5 v=0
49457 On ch=1 n=a5 v=60
49507 On ch=1 n=a5 v=0
49542 On ch=1 n=c7 v=0
49567 On ch=1 n=f6 v=0
49582 Par ch=1 c=64 v=72
49592 On ch=1 n=g4 v=52
49597 Par ch=1 c=64 v=0
49602 On ch=1 n=b6 v=78
49612 On ch=1 n=e6 v=61
49667 On ch=1 n=g4 v=0
49677 Par ch=1 c=64 v=56
49692 Par ch=1 c=64 v=127
49737 On ch=1 n=g5 v=59
49757 On ch=1 n=b6 v=0
49787 On ch=1 n=d7 v=77
49807 On ch=1 n=g5 v=0
49857 On ch=1 n=e6 v=0
49892 On ch=1 n=d7 v=0
49907 On ch=1 n=a5 v=53
49977 On ch=1 n=a5 v=0
49992 On ch=1 n=b6 v=76
50002 On ch=1 n=b5 v=58
50012 On ch=1 n=d6 v=60
50097 On ch=1 n=b5 v=0
50107 On ch=1 n=a5 v=52
50127 On ch=1 n=d6 v=0
50182 On ch=1 n=b6 v=0
50182 On ch=1 n=e6 v=71
50202 On ch=1 n=a5 v=0
50252 On ch=1 n=g5 v=57
50297 On ch=1 n=e6 v=0
50307 On ch=1 n=g5 v=0
50367 Par ch=1 c=64 v=40
50382 On ch=1 n=f4 v=67
50382 Par ch=1 c=64 v=0
50392 On ch=1 n=a6 v=75
50412 On ch=1 n=f4 v=0
50412 On ch=1 n=d6 v=54
50447 Par ch=1 c=64 v=56
50462 Par ch=1 c=64 v=127
50512 On ch=1 n=f5 v=59
50562 On ch=1 n=a6 v=0
50592 On ch=1 n=c7 v=76
50597 On ch=1 n=f5 v=0
50627 On ch=1 n=d6 v=0
50682 On ch=1 n=c7 v=0
50692 On ch=1 n=g5 v=58
50762 On ch=1 n=g5 v=0
50787 On ch=1 n=a6 v=74
50797 On ch=1 n=c6 v=63
50812 On ch=1 n=a5 v=61
50892 On ch=1 n=c6 v=0
50907 On ch=1 n=a6 v=0
50912 On ch=1 n=a5 v=0
50917 On ch=1 n=g5 v=57
50977 On ch=1 n=d6 v=66
51032 On ch=1 n=g5 v=0
51047 On ch=1 n=f5 v=56
51092 On ch=1 n=f5 v=0
51152 On ch=1 n=d6 v=0
51182 Par ch=1 c=64 v=88
51192 On ch=1 n=e4 v=68
51197 Par ch=1 c=64 v=0
51202 On ch=1 n=g#6 v=73
51202 On ch=1 n=b5 v=62
51227 On ch=1 n=e4 v=0
51247 Par ch=1 c=64 v=24
51262 Par ch=1 c=64 v=72
51277 Par ch=1 c=64 v=127
51337 On ch=1 n=e5 v=55
51377 On ch=1 n=b5 v=0
51377 On ch=1 n=g#6 v=0
51407 On ch=1 n=b6 v=76
51427 On ch=1 n=e5 v=0
51502 On ch=1 n=f5 v=58
51517 On ch=1 n=b6 v=0
51567 On ch=1 n=f5 v=0
51612 On ch=1 n=g#6 v=73
51617 On ch=1 n=g5 v=60
51627 On ch=1 n=b5 v=62
51712 On ch=1 n=g#6 v=0
51722 On ch=1 n=g5 v=0
51732 On ch=1 n=f5 v=58
51757 On ch=1 n=b5 v=0
51807 On ch=1 n=c6 v=63
51827 On ch=1 n=f5 v=0
51867 On ch=1 n=e5 v=60
51917 On ch=1 n=e5 v=0
51937 On ch=1 n=c6 v=0
51982 Par ch=1 c=64 v=88
51987 On ch=1 n=d4 v=73
51997 Par ch=1 c=64 v=24
52002 On ch=1 n=f6 v=80
52012 Par ch=1 c=64 v=0
52027 On ch=1 n=b5 v=51
52042 On ch=1 n=d4 v=0
52057 Par ch=1 c=64 v=56
52077 Par ch=1 c=64 v=127
52187 On ch=1 n=f6 v=0
52197 On ch=1 n=a6 v=72
52227 On ch=1 n=d5 v=19
52257 On ch=1 n=b5 v=0
52282 On ch=1 n=d5 v=0
52312 On ch=1 n=a6 v=0
52317 On ch=1 n=e5 v=62
52407 On ch=1 n=e5 v=0
52407 On ch=1 n=f6 v=82
52417 On ch=1 n=b5 v=55
52442 On ch=1 n=f5 v=54
52527 On ch=1 n=b5 v=0
52542 On ch=1 n=f5 v=0
52547 On ch=1 n=e5 v=55
52562 On ch=1 n=f6 v=0
52622 On ch=1 n=e5 v=0
52622 On ch=1 n=c6 v=63
52717 On ch=1 n=c6 v=0
52717 On ch=1 n=d5 v=55
52747 On ch=1 n=d5 v=0
52827 Par ch=1 c=64 v=88
52837 On ch=1 n=e6 v=82
52842 On ch=1 n=g#5 v=58
52842 Par ch=1 c=64 v=0
52852 On ch=1 n=e4 v=60
52862 On ch=1 n=b4 v=43
52907 On ch=1 n=b4 v=0
52952 Par ch=1 c=64 v=88
52957 On ch=1 n=g#5 v=0
52967 Par ch=1 c=64 v=127
53047 On ch=1 n=e5 v=64
53052 On ch=1 n=b5 v=67
53067 On ch=1 n=e6 v=0
53187 On ch=1 n=b5 v=0
53222 On ch=1 n=e5 v=0
53252 On ch=1 n=g#5 v=59
53267 On ch=1 n=b4 v=49
53327 On ch=1 n=b4 v=0
53347 On ch=1 n=g#5 v=0
53427 On ch=1 n=e4 v=0
53442 On ch=1 n=g#6 v=73
53442 On ch=1 n=e5 v=57
53462 On ch=1 n=b5 v=70
53522 On ch=1 n=e5 v=0
53532 On ch=1 n=b5 v=0
53557 On ch=1 n=g#6 v=0
53667 On ch=1 n=e6 v=84
53667 On ch=1 n=b4 v=52
53667 On ch=1 n=g#5 v=58
53672 Par ch=1 c=64 v=104
53687 On ch=1 n=e4 v=63
53687 Par ch=1 c=64 v=40
53702 Par ch=1 c=64 v=0
53792 On ch=1 n=g#5 v=0
53802 Par ch=1 c=64 v=56
53817 Par ch=1 c=64 v=127
53862 On ch=1 n=b4 v=0
53877 On ch=1 n=e6 v=0
53877 On ch=1 n=e5 v=53
53882 On ch=1 n=b5 v=69
53987 On ch=1 n=e5 v=0
53997 On ch=1 n=b5 v=0
54062 On ch=1 n=g#5 v=61
54067 On ch=1 n=b4 v=54
54162 On ch=1 n=g#5 v=0
54212 On ch=1 n=b4 v=0
54252 On ch=1 n=g#6 v=77
54257 On ch=1 n=e4 v=0
54267 On ch=1 n=b5 v=70
54272 On ch=1 n=e5 v=48
54317 On ch=1 n=e5 v=0
54347 On ch=1 n=b5 v=0
54362 On ch=1 n=g#6 v=0
54407 Par ch=1 c=64 v=56
54422 Par ch=1 c=64 v=0
54462 On ch=1 n=e6 v=85
54462 On ch=1 n=g#5 v=61
54477 On ch=1 n=b4 v=62
54497 On ch=1 n=e4 v=51
54502 Par ch=1 c=64 v=24
54522 Par ch=1 c=64 v=88
54537 Par ch=1 c=64 v=127
54557 On ch=1 n=g#5 v=0
54617 On ch=1 n=e6 v=0
54627 On ch=1 n=b4 v=0
54647 On ch=1 n=g#6 v=73
54662 On ch=1 n=b5 v=67
54662 On ch=1 n=e5 v=53
54667 On ch=1 n=e4 v=0
54717 On ch=1 n=e5 v=0
54732 On ch=1 n=b5 v=0
54752 On ch=1 n=g#6 v=0
54757 Par ch=1 c=64 v=88
54777 Par ch=1 c=64 v=40
54792 Par ch=1 c=64 v=0
54862 On ch=1 n=g#5 v=67
54862 On ch=1 n=e6 v=82
54867 On ch=1 n=b4 v=67
54872 Par ch=1 c=64 v=56
54882 On ch=1 n=e4 v=53
54887 Par ch=1 c=64 v=104
54907 Par ch=1 c=64 v=127
54952 On ch=1 n=g#5 v=0
54982 On ch=1 n=e4 v=0
54997 On ch=1 n=b4 v=0
55002 On ch=1 n=e6 v=0
55052 On ch=1 n=g#6 v=76
55067 On ch=1 n=e5 v=56
55072 On ch=1 n=b5 v=66
55127 Par ch=1 c=64 v=104
55137 On ch=1 n=e5 v=0
55142 Par ch=1 c=64 v=72
55147 On ch=1 n=b5 v=0
55157 On ch=1 n=g#6 v=0
55157 Par ch=1 c=64 v=24
55172 Par ch=1 c=64 v=0
55247 On ch=1 n=b4 v=62
55262 On ch=1 n=g#5 v=68
55262 On ch=1 n=e6 v=84
55287 Par ch=1 c=64 v=88
55302 Par ch=1 c=64 v=127
55312 On ch=1 n=e4 v=24
55347 On ch=1 n=e4 v=0
55352 On ch=1 n=g#5 v=0
55367 On ch=1 n=b4 v=0
55402 On ch=1 n=e6 v=0
55457 On ch=1 n=b5 v=81
55572 Par ch=1 c=64 v=104
55587 Par ch=1 c=64 v=40
55607 Par ch=1 c=64 v=0
55622 On ch=1 n=b5 v=0
55642 On ch=1 n=g#5 v=77
55647 On ch=1 n=e5 v=79
55647 On ch=1 n=b4 v=70
55657 On ch=1 n=e4 v=63
55657 On ch=1 n=g#4 v=55
55672 Par ch=1 c=64 v=56
55687 Par ch=1 c=64 v=127
55702 On ch=1 n=e4 v=0
55712 On ch=1 n=b4 v=0
55712 On ch=1 n=e5 v=0
55732 On ch=1 n=g#4 v=0
55802 On ch=1 n=g#5 v=0
55847 On ch=1 n=b5 v=84
55937 On ch=1 n=b5 v=0
56022 Par ch=1 c=64 v=88
56037 Par ch=1 c=64 v=24
56047 On ch=1 n=e6 v=93
56047 On ch=1 n=b4 v=74
56047 On ch=1 n=g#4 v=65
56052 On ch=1 n=e5 v=81
56057 On ch=1 n=e4 v=68
56057 On ch=1 n=b3 v=63
56057 Par ch=1 c=64 v=0
56082 Par ch=1 c=64 v=56
56087 On ch=1 n=e4 v=0
56092 On ch=1 n=b3 v=0
56102 On ch=1 n=g#4 v=0
56102 Par ch=1 c=64 v=104
56117 On ch=1 n=b4 v=0
56117 Par ch=1 c=64 v=127
56147 On ch=1 n=e5 v=0
56177 On ch=1 n=e6 v=0
56247 On ch=1 n=b5 v=88
56407 On ch=1 n=b5 v=0
56407 Par ch=1 c=64 v=72
56422 Par ch=1 c=64 v=24
56437 Par ch=1 c=64 v=0
56442 On ch=1 n=e6 v=97
56447 On ch=1 n=e5 v=82
56447 On ch=1 n=g#4 v=77
56452 On ch=1 n=g#3 v=65
56452 On ch=1 n=e4 v=73
56452 Par ch=1 c=64 v=56
56462 On ch=1 n=b3 v=60
56467 Par ch=1 c=64 v=104
56482 On ch=1 n=e4 v=0
56487 Par ch=1 c=64 v=127
56492 On ch=1 n=b3 v=0
56497 On ch=1 n=e5 v=0
56507 On ch=1 n=g#4 v=0
56522 On ch=1 n=g#3 v=0
56522 On ch=1 n=e6 v=0
56637 On ch=1 n=g#5 v=89
56642 On ch=1 n=g#6 v=92
56692 On ch=1 n=g#5 v=0
56732 On ch=1 n=g#6 v=0
56852 Par ch=1 c=64 v=40
56867 Par ch=1 c=64 v=0
56892 On ch=1 n=b6 v=109
56897 On ch=1 n=b5 v=96
56897 On ch=1 n=g#6 v=82
56902 On ch=1 n=g#3 v=68
56902 On ch=1 n=e6 v=85
56902 On ch=1 n=e4 v=89
56907 On ch=1 n=e3 v=76
56907 On ch=1 n=b3 v=84
56932 Par ch=1 c=64 v=88
56947 Par ch=1 c=64 v=127
56972 On ch=1 n=e3 v=0
56992 On ch=1 n=b3 v=0
56992 On ch=1 n=e4 v=0
56992 On ch=1 n=g#3 v=0
57042 On ch=1 n=e6 v=0
57187 On ch=1 n=b5 v=0
57212 On ch=1 n=g#6 v=0
57352 On ch=1 n=b6 v=0
57792 On ch=1 n=e7 v=107
57792 Par ch=1 c=64 v=72
57802 On ch=1 n=e6 v=97
57802 On ch=1 n=e5 v=87
57802 On ch=1 n=g#6 v=85
57802 On ch=1 n=b6 v=94
57802 On ch=1 n=e4 v=82
57807 On ch=1 n=b4 v=82
57807 On ch=1 n=g#4 v=68
57812 Par ch=1 c=64 v=0
57862 On ch=1 n=e4 v=0
57862 Par ch=1 c=64 v=88
57872 On ch=1 n=g#4 v=0
57877 On ch=1 n=e5 v=0
57877 Par ch=1 c=64 v=127
57882 On ch=1 n=b4 v=0
57887 On ch=1 n=g#6 v=0
57897 On ch=1 n=b6 v=0
57897 On ch=1 n=e6 v=0
57932 On ch=1 n=e7 v=0
58412 On ch=1 n=e4 v=60
58422 On ch=1 n=e6 v=73
58492 On ch=1 n=e4 v=0
58492 On ch=1 n=f#4 v=68
58522 On ch=1 n=f#6 v=62
58532 On ch=1 n=e6 v=0
58567 On ch=1 n=g#6 v=64
58577 On ch=1 n=f#4 v=0
58597 On ch=1 n=g#4 v=33
58642 On ch=1 n=f#6 v=0
58647 On ch=1 n=g#6 v=0
58652 On ch=1 n=g#4 v=0
58682 On ch=1 n=a6 v=93
58682 On ch=1 n=a5 v=82
58687 On ch=1 n=c6 v=90
58702 On ch=1 n=a4 v=75
58702 On ch=1 n=a3 v=81
58727 Par ch=1 c=64 v=24
58732 On ch=1 n=c6 v=0
58742 On ch=1 n=a5 v=0
58742 Par ch=1 c=64 v=72
58752 On ch=1 n=a4 v=0
58757 On ch=1 n=a6 v=0
58762 Par ch=1 c=64 v=88
58767 On ch=1 n=a3 v=0
58812 Par ch=1 c=64 v=56
58827 Par ch=1 c=64 v=40
58842 Par ch=1 c=64 v=24
58857 Par ch=1 c=64 v=0
59102 On ch=1 n=g#5 v=77
59107 On ch=1 n=g#6 v=91
59112 On ch=1 n=b5 v=83
59117 On ch=1 n=f4 v=77
59117 On ch=1 n=f3 v=72
59142 On ch=1 n=b5 v=0
59147 On ch=1 n=f3 v=0
59157 On ch=1 n=g#5 v=0
59167 On ch=1 n=f4 v=0
59192 On ch=1 n=g#6 v=0
59277 On ch=1 n=b6 v=97
59287 On ch=1 n=d6 v=92
59287 On ch=1 n=b5 v=71
59317 On ch=1 n=b5 v=0
59332 On ch=1 n=d6 v=0
59332 On ch=1 n=b6 v=0
59472 On ch=1 n=a6 v=94
59477 On ch=1 n=a5 v=83
59477 On ch=1 n=c6 v=87
59482 Par ch=1 c=64 v=24
59492 On ch=1 n=a4 v=79
59512 On ch=1 n=c6 v=0
59512 On ch=1 n=a3 v=63
59532 On ch=1 n=a5 v=0
59532 On ch=1 n=a6 v=0
59542 Par ch=1 c=64 v=0
59547 On ch=1 n=a3 v=0
59552 On ch=1 n=a4 v=0
59857 On ch=1 n=g#6 v=91
59862 On ch=1 n=g#5 v=77
59867 On ch=1 n=b5 v=80
59872 On ch=1 n=e4 v=81
59877 On ch=1 n=e3 v=68
59912 On ch=1 n=b5 v=0
59917 On ch=1 n=g#5 v=0
59922 On ch=1 n=e3 v=0
59937 On ch=1 n=e4 v=0
59952 On ch=1 n=g#6 v=0
60047 On ch=1 n=b6 v=90
60047 On ch=1 n=d6 v=84
60057 On ch=1 n=b5 v=63
60077 On ch=1 n=b6 v=0
60082 On ch=1 n=b5 v=0
60082 On ch=1 n=d6 v=0
60232 On ch=1 n=a5 v=77
60232 On ch=1 n=a6 v=92
60237 On ch=1 n=c6 v=81
60247 Par ch=1 c=64 v=24
60257 On ch=1 n=a4 v=82
60262 On ch=1 n=a3 v=71
60267 On ch=1 n=c6 v=0
60267 Par ch=1 c=64 v=40
60277 On ch=1 n=a5 v=0
60292 On ch=1 n=a6 v=0
60317 On ch=1 n=a3 v=0
60317 On ch=1 n=a4 v=0
60342 Par ch=1 c=64 v=24
60362 Par ch=1 c=64 v=0
60627 On ch=1 n=g#6 v=93
60627 On ch=1 n=g#5 v=82
60637 On ch=1 n=b5 v=85
60637 On ch=1 n=f3 v=73
60642 On ch=1 n=d4 v=77
60647 On ch=1 n=d3 v=70
60647 Par ch=1 c=64 v=40
60662 Par ch=1 c=64 v=56
60682 Par ch=1 c=64 v=88
60687 On ch=1 n=d3 v=0
60702 On ch=1 n=b5 v=0
60707 On ch=1 n=f3 v=0
60707 On ch=1 n=g#5 v=0
60712 On ch=1 n=d4 v=0
60742 On ch=1 n=g#6 v=0
60757 Par ch=1 c=64 v=56
60777 Par ch=1 c=64 v=40
60787 Par ch=1 c=64 v=0
61037 On ch=1 n=a6 v=97
61042 On ch=1 n=c6 v=88
61042 On ch=1 n=a5 v=85
61057 On ch=1 n=a4 v=76
61057 On ch=1 n=e4 v=76
61062 On ch=1 n=a3 v=76
61102 On ch=1 n=a5 v=0
61112 Par ch=1 c=64 v=88
61122 On ch=1 n=a3 v=0
61122 On ch=1 n=e4 v=0
61122 On ch=1 n=a4 v=0
61122 On ch=1 n=c6 v=0
61127 Par ch=1 c=64 v=127
61167 On ch=1 n=a6 v=0
61572 Par ch=1 c=64 v=104
61622 Par ch=1 c=64 v=40
61637 Par ch=1 c=64 v=0
61777 Par ch=1 c=64 v=40
61797 Par ch=1 c=64 v=88
61812 Par ch=1 c=64 v=127
61832 On ch=1 n=a7 v=105
61837 On ch=1 n=a6 v=89
61902 On ch=1 n=a6 v=0
61907 On ch=1 n=a7 v=0
62012 On ch=1 n=b7 v=100
62017 On ch=1 n=b6 v=93
62072 On ch=1 n=b6 v=0
62087 On ch=1 n=b7 v=0
62187 On ch=1 n=a5 v=69
62192 On ch=1 n=c8 v=107
62197 On ch=1 n=c7 v=105
62202 On ch=1 n=a4 v=36
62237 On ch=1 n=a4 v=0
62257 On ch=1 n=a5 v=0
62377 On ch=1 n=b5 v=76
62402 On ch=1 n=b4 v=44
62432 On ch=1 n=b4 v=0
62447 On ch=1 n=b5 v=0
62567 Par ch=1 c=64 v=56
62582 On ch=1 n=c6 v=96
62582 On ch=1 n=c5 v=87
62582 Par ch=1 c=64 v=0
62652 On ch=1 n=c8 v=0
62657 On ch=1 n=c7 v=0
62692 Par ch=1 c=64 v=40
62702 Par ch=1 c=64 v=88
62722 Par ch=1 c=64 v=104
62737 Par ch=1 c=64 v=127
62757 On ch=1 n=b7 v=97
62767 On ch=1 n=b6 v=89
62822 On ch=1 n=c5 v=0
62827 On ch=1 n=b6 v=0
62837 On ch=1 n=b7 v=0
62852 On ch=1 n=c6 v=0
62927 Par ch=1 c=64 v=104
62942 On ch=1 n=a7 v=100
62947 On ch=1 n=a6 v=84
63137 On ch=1 n=b5 v=81
63147 On ch=1 n=b4 v=64
63207 On ch=1 n=b5 v=0
63212 On ch=1 n=b4 v=0
63267 Par ch=1 c=64 v=72
63282 Par ch=1 c=64 v=0
63322 On ch=1 n=a5 v=92
63332 On ch=1 n=a4 v=80
63367 On ch=1 n=a7 v=0
63387 On ch=1 n=a6 v=0
63397 Par ch=1 c=64 v=24
63412 Par ch=1 c=64 v=56
63427 Par ch=1 c=64 v=88
63492 Par ch=1 c=64 v=104
63497 On ch=1 n=g7 v=94
63502 On ch=1 n=g6 v=87
63547 On ch=1 n=a4 v=0
63567 On ch=1 n=g6 v=0
63577 On ch=1 n=g7 v=0
63587 On ch=1 n=a5 v=0
63677 On ch=1 n=f7 v=90
63687 On ch=1 n=f6 v=85
63762 Par ch=1 c=64 v=24
63777 Par ch=1 c=64 v=0
63862 On ch=1 n=g5 v=77
63867 On ch=1 n=g4 v=70
63872 Par ch=1 c=64 v=24
63887 Par ch=1 c=64 v=56
63907 Par ch=1 c=64 v=88
63922 On ch=1 n=g5 v=0
63937 On ch=1 n=g4 v=0
63967 Par ch=1 c=64 v=104
64032 Par ch=1 c=64 v=40
64047 Par ch=1 c=64 v=0
64062 On ch=1 n=f5 v=88
64072 On ch=1 n=f4 v=81
64112 On ch=1 n=f7 v=0
64122 On ch=1 n=f6 v=0
64132 Par ch=1 c=64 v=40
64147 Par ch=1 c=64 v=72
64162 Par ch=1 c=64 v=88
64227 On ch=1 n=e7 v=87
64227 Par ch=1 c=64 v=104
64237 On ch=1 n=e6 v=82
64282 On ch=1 n=f4 v=0
64292 On ch=1 n=e6 v=0
64302 On ch=1 n=e7 v=0
64322 On ch=1 n=f5 v=0
64407 On ch=1 n=d7 v=90
64417 On ch=1 n=d6 v=81
64482 On ch=1 n=d6 v=0
64492 On ch=1 n=d7 v=0
64512 Par ch=1 c=64 v=88
64527 Par ch=1 c=64 v=72
64547 Par ch=1 c=64 v=56
64577 Par ch=1 c=64 v=40
64592 On ch=1 n=c#6 v=82
64597 On ch=1 n=c#7 v=88
64597 On ch=1 n=e5 v=69
64622 On ch=1 n=e4 v=61
64622 Par ch=1 c=64 v=24
64642 Par ch=1 c=64 v=0
64657 On ch=1 n=e4 v=0
64667 On ch=1 n=e5 v=0
64667 On ch=1 n=c#6 v=0
64712 On ch=1 n=c#7 v=0
64787 On ch=1 n=d7 v=102
64787 On ch=1 n=f6 v=70
64792 On ch=1 n=d6 v=96
64807 On ch=1 n=d5 v=88
64812 On ch=1 n=d4 v=81
64832 Par ch=1 c=64 v=40
64847 Par ch=1 c=64 v=88
64857 On ch=1 n=f6 v=0
64867 On ch=1 n=d6 v=0
64867 Par ch=1 c=64 v=127
64872 On ch=1 n=d4 v=0
64877 On ch=1 n=d5 v=0
64877 On ch=1 n=d7 v=0
64942 Par ch=1 c=64 v=104
64957 Par ch=1 c=64 v=88
64972 Par ch=1 c=64 v=56
64992 Par ch=1 c=64 v=24
65007 Par ch=1 c=64 v=0
65172 On ch=1 n=c#7 v=87
65172 On ch=1 n=c#6 v=82
65187 On ch=1 n=e6 v=80
65192 On ch=1 n=a#4 v=74
65192 On ch=1 n=a#3 v=67
65217 On ch=1 n=e6 v=0
65217 Par ch=1 c=64 v=72
65232 Par ch=1 c=64 v=104
65242 On ch=1 n=c#6 v=0
65247 On ch=1 n=a#3 v=0
65247 On ch=1 n=a#4 v=0
65272 On ch=1 n=c#7 v=0
65297 Par ch=1 c=64 v=88
65312 Par ch=1 c=64 v=72
65327 Par ch=1 c=64 v=40
65342 Par ch=1 c=64 v=24
65362 On ch=1 n=e7 v=86
65362 On ch=1 n=e6 v=81
65362 Par ch=1 c=64 v=0
65367 On ch=1 n=g6 v=77
65422 On ch=1 n=g6 v=0
65422 On ch=1 n=e6 v=0
65427 On ch=1 n=e7 v=0
65547 On ch=1 n=d7 v=97
65552 On ch=1 n=d6 v=88
65552 Par ch=1 c=64 v=56
65557 On ch=1 n=f6 v=89
65567 On ch=1 n=d5 v=82
65567 Par ch=1 c=64 v=127
65577 On ch=1 n=d4 v=72
65612 On ch=1 n=f6 v=0
65612 On ch=1 n=d6 v=0
65627 On ch=1 n=d5 v=0
65637 On ch=1 n=d7 v=0
65647 On ch=1 n=d4 v=0
65677 Par ch=1 c=64 v=88
65692 Par ch=1 c=64 v=56
65712 Par ch=1 c=64 v=24
65727 Par ch=1 c=64 v=0
65932 On ch=1 n=c#7 v=95
65932 On ch=1 n=c#6 v=92
65937 Par ch=1 c=64 v=56
65947 On ch=1 n=e6 v=79
65947 On ch=1 n=a4 v=74
65952 On ch=1 n=a3 v=75
65952 Par ch=1 c=64 v=72
65972 On ch=1 n=e6 v=0
65977 On ch=1 n=a3 v=0
65982 On ch=1 n=c#6 v=0
66007 On ch=1 n=c#7 v=0
66017 On ch=1 n=a4 v=0
66017 Par ch=1 c=64 v=40
66032 Par ch=1 c=64 v=24
66047 Par ch=1 c=64 v=0
66112 On ch=1 n=e7 v=100
66112 On ch=1 n=e6 v=96
66122 On ch=1 n=g6 v=93
66152 On ch=1 n=g6 v=0
66157 On ch=1 n=e7 v=0
66167 On ch=1 n=e6 v=0
66297 On ch=1 n=d7 v=100
66302 On ch=1 n=d6 v=97
66302 On ch=1 n=f6 v=96
66327 On ch=1 n=d5 v=85
66327 On ch=1 n=d4 v=79
66337 Par ch=1 c=64 v=56
66352 On ch=1 n=f6 v=0
66352 On ch=1 n=d6 v=0
66352 Par ch=1 c=64 v=127
66377 On ch=1 n=d7 v=0
66382 On ch=1 n=d5 v=0
66402 On ch=1 n=d4 v=0
66457 Par ch=1 c=64 v=88
66477 Par ch=1 c=64 v=40
66492 Par ch=1 c=64 v=0
66687 Par ch=1 c=64 v=40
66697 On ch=1 n=c#7 v=96
66697 On ch=1 n=c#6 v=90
66702 On ch=1 n=e6 v=90
66702 On ch=1 n=g4 v=82
66702 Par ch=1 c=64 v=104
66707 On ch=1 n=a#3 v=71
66707 On ch=1 n=g3 v=69
66717 Par ch=1 c=64 v=127
66757 On ch=1 n=g3 v=0
66762 On ch=1 n=a#3 v=0
66767 On ch=1 n=g4 v=0
66772 On ch=1 n=e6 v=0
66797 On ch=1 n=c#6 v=0
66827 On ch=1 n=c#7 v=0
66847 Par ch=1 c=64 v=104
66862 Par ch=1 c=64 v=72
66877 Par ch=1 c=64 v=40
66892 Par ch=1 c=64 v=0
67102 On ch=1 n=d7 v=102
67107 On ch=1 n=d6 v=89
67107 On ch=1 n=f6 v=93
67117 On ch=1 n=d5 v=86
67122 On ch=1 n=a4 v=80
67122 On ch=1 n=d4 v=89
67167 Par ch=1 c=64 v=88
67177 On ch=1 n=a4 v=0
67177 On ch=1 n=d5 v=0
67182 On ch=1 n=d4 v=0
67182 On ch=1 n=d6 v=0
67182 Par ch=1 c=64 v=127
67202 On ch=1 n=f6 v=0
67242 On ch=1 n=d7 v=0
67722 Par ch=1 c=64 v=88
67737 Par ch=1 c=64 v=24
67757 Par ch=1 c=64 v=0
67887 Par ch=1 c=64 v=56
67902 Par ch=1 c=64 v=88
67907 On ch=1 n=d8 v=102
67907 On ch=1 n=d7 v=96
67917 Par ch=1 c=64 v=127
67972 On ch=1 n=d7 v=0
67982 On ch=1 n=d8 v=0
68077 On ch=1 n=e8 v=97
68082 On ch=1 n=e7 v=93
68142 On ch=1 n=e7 v=0
68157 On ch=1 n=e8 v=0
68252 On ch=1 n=d6 v=77
68257 On ch=1 n=d5 v=70
68262 On ch=1 n=f8 v=102
68267 On ch=1 n=f7 v=109
68307 On ch=1 n=d5 v=0
68317 On ch=1 n=d6 v=0
68442 On ch=1 n=e6 v=81
68452 On ch=1 n=e5 v=64
68487 On ch=1 n=e5 v=0
68507 On ch=1 n=e6 v=0
68602 Par ch=1 c=64 v=72
68622 Par ch=1 c=64 v=24
68637 On ch=1 n=f6 v=95
68637 Par ch=1 c=64 v=0
68647 On ch=1 n=f5 v=84
68712 On ch=1 n=f8 v=0
68717 On ch=1 n=f7 v=0
68732 Par ch=1 c=64 v=40
68747 Par ch=1 c=64 v=72
68762 Par ch=1 c=64 v=104
68777 Par ch=1 c=64 v=127
68812 On ch=1 n=e8 v=97
68817 On ch=1 n=e7 v=93
68862 On ch=1 n=f5 v=0
68882 On ch=1 n=e7 v=0
68887 On ch=1 n=e8 v=0
68897 On ch=1 n=f6 v=0
68987 On ch=1 n=d8 v=93
68992 On ch=1 n=d7 v=90
69132 Par ch=1 c=64 v=88
69147 Par ch=1 c=64 v=56
69162 Par ch=1 c=64 v=40
69172 On ch=1 n=e6 v=82
69182 On ch=1 n=e5 v=78
69207 Par ch=1 c=64 v=56
69227 Par ch=1 c=64 v=72
69237 On ch=1 n=e6 v=0
69242 On ch=1 n=e5 v=0
69242 Par ch=1 c=64 v=88
69257 Par ch=1 c=64 v=104
69322 Par ch=1 c=64 v=24
69337 Par ch=1 c=64 v=0
69362 On ch=1 n=d6 v=94
69372 On ch=1 n=d5 v=83
69417 Par ch=1 c=64 v=24
69422 On ch=1 n=d7 v=0
69422 On ch=1 n=d8 v=0
69432 Par ch=1 c=64 v=72
69452 Par ch=1 c=64 v=104
69462 Par ch=1 c=64 v=127
69542 On ch=1 n=c8 v=89
69547 On ch=1 n=c7 v=90
69607 On ch=1 n=c7 v=0
69607 On ch=1 n=c8 v=0
69612 On ch=1 n=d5 v=0
69662 On ch=1 n=d6 v=0
69727 On ch=1 n=b7 v=90
69732 On ch=1 n=b6 v=87
69817 Par ch=1 c=64 v=88
69897 Par ch=1 c=64 v=104
69907 On ch=1 n=c6 v=86
69912 Par ch=1 c=64 v=127
69917 On ch=1 n=c5 v=66
69962 On ch=1 n=c5 v=0
69967 On ch=1 n=c6 v=0
70007 Par ch=1 c=64 v=56
70022 Par ch=1 c=64 v=24
70037 Par ch=1 c=64 v=0
70097 On ch=1 n=b4 v=68
70097 On ch=1 n=b5 v=95
70107 Par ch=1 c=64 v=40
70122 Par ch=1 c=64 v=72
70127 On ch=1 n=b7 v=0
70132 On ch=1 n=b6 v=0
70137 Par ch=1 c=64 v=88
70152 Par ch=1 c=64 v=104
70167 Par ch=1 c=64 v=127
70252 On ch=1 n=a7 v=93
70252 On ch=1 n=a6 v=82
70322 On ch=1 n=a6 v=0
70332 On ch=1 n=a7 v=0
70352 On ch=1 n=b4 v=0
70412 On ch=1 n=b5 v=0
70447 On ch=1 n=g#7 v=88
70447 On ch=1 n=g#6 v=87
70487 Par ch=1 c=64 v=88
70507 Par ch=1 c=64 v=72
70522 On ch=1 n=g#6 v=0
70522 Par ch=1 c=64 v=56
70537 Par ch=1 c=64 v=40
70542 On ch=1 n=g#7 v=0
70567 Par ch=1 c=64 v=24
70582 Par ch=1 c=64 v=0
70607 On ch=1 n=a5 v=72
70612 On ch=1 n=a4 v=68
70617 On ch=1 n=a7 v=100
70627 On ch=1 n=a6 v=82
70672 On ch=1 n=a5 v=0
70677 On ch=1 n=a6 v=0
70682 On ch=1 n=a4 v=0
70697 On ch=1 n=a7 v=0
70792 On ch=1 n=g#5 v=74
70792 Par ch=1 c=64 v=56
70797 On ch=1 n=g#4 v=75
70797 On ch=1 n=g#7 v=91
70802 On ch=1 n=g#6 v=88
70807 Par ch=1 c=64 v=104
70822 Par ch=1 c=64 v=127
70842 On ch=1 n=g#5 v=0
70847 On ch=1 n=g#4 v=0
70862 On ch=1 n=g#6 v=0
70877 On ch=1 n=g#7 v=0
70922 Par ch=1 c=64 v=104
70937 Par ch=1 c=64 v=88
70967 Par ch=1 c=64 v=72
70982 On ch=1 n=b7 v=102
70982 Par ch=1 c=64 v=56
70987 On ch=1 n=b5 v=76
70987 On ch=1 n=b6 v=87
70997 On ch=1 n=b4 v=66
70997 Par ch=1 c=64 v=40
71022 On ch=1 n=b4 v=0
71027 On ch=1 n=b6 v=0
71027 Par ch=1 c=64 v=24
71032 On ch=1 n=b5 v=0
71032 On ch=1 n=b7 v=0
71047 Par ch=1 c=64 v=0
71167 On ch=1 n=e8 v=100
71172 On ch=1 n=e7 v=93
71182 On ch=1 n=e6 v=82
71187 On ch=1 n=e5 v=74
71192 Par ch=1 c=64 v=104
71197 On ch=1 n=e7 v=0
71202 On ch=1 n=e6 v=0
71207 Par ch=1 c=64 v=127
71212 On ch=1 n=e5 v=0
71222 On ch=1 n=e8 v=0
71332 Par ch=1 c=64 v=88
71347 Par ch=1 c=64 v=72
71367 Par ch=1 c=64 v=56
71382 Par ch=1 c=64 v=40
71397 Par ch=1 c=64 v=24
71412 Par ch=1 c=64 v=0
71577 On ch=1 n=e5 v=97
71587 On ch=1 n=g#4 v=75
71592 On ch=1 n=b4 v=82
71597 On ch=1 n=g#3 v=65
71602 On ch=1 n=b3 v=76
71602 On ch=1 n=e4 v=82
71602 On ch=1 n=e3 v=64
71637 On ch=1 n=e3 v=0
71637 Par ch=1 c=64 v=127
71647 On ch=1 n=b3 v=0
71647 On ch=1 n=b4 v=0
71647 On ch=1 n=g#4 v=0
71657 On ch=1 n=e4 v=0
71657 On ch=1 n=g#3 v=0
71682 On ch=1 n=e5 v=0
72037 Par ch=1 c=64 v=104
72052 Par ch=1 c=64 v=72
72072 Par ch=1 c=64 v=56
72087 Par ch=1 c=64 v=40
72102 Par ch=1 c=64 v=24
72112 Par ch=1 c=64 v=0
72337 On ch=1 n=a6 v=83
72342 On ch=1 n=a7 v=102
72342 Par ch=1 c=64 v=40
72352 On ch=1 n=a5 v=76
72352 On ch=1 n=a4 v=66
72357 Par ch=1 c=64 v=72
72372 Par ch=1 c=64 v=88
72377 On ch=1 n=a4 v=0
72392 Par ch=1 c=64 v=104
72397 On ch=1 n=a5 v=0
72397 On ch=1 n=a6 v=0
72407 On ch=1 n=a7 v=0
72452 Par ch=1 c=64 v=72
72467 Par ch=1 c=64 v=56
72487 Par ch=1 c=64 v=40
72502 Par ch=1 c=64 v=24
72517 Par ch=1 c=64 v=0
72527 On ch=1 n=c7 v=93
72527 On ch=1 n=c8 v=97
72527 On ch=1 n=c6 v=79
72537 On ch=1 n=c5 v=73
72562 On ch=1 n=c5 v=0
72567 On ch=1 n=c6 v=0
72577 On ch=1 n=c7 v=0
72592 On ch=1 n=c8 v=0
72717 On ch=1 n=e8 v=97
72722 On ch=1 n=e7 v=92
72727 On ch=1 n=e6 v=87
72742 On ch=1 n=e5 v=64
72742 Par ch=1 c=64 v=72
72757 Par ch=1 c=64 v=127
72762 On ch=1 n=e8 v=0
72767 On ch=1 n=e7 v=0
72772 On ch=1 n=e5 v=0
72782 On ch=1 n=e6 v=0
72902 Par ch=1 c=64 v=88
72917 Par ch=1 c=64 v=72
72932 Par ch=1 c=64 v=56
72947 Par ch=1 c=64 v=24
72962 Par ch=1 c=64 v=0
73157 On ch=1 n=e5 v=96
73157 On ch=1 n=e3 v=73
73157 On ch=1 n=a4 v=77
73157 On ch=1 n=c4 v=81
73157 On ch=1 n=a3 v=71
73157 On ch=1 n=e4 v=79
73157 On ch=1 n=c5 v=65
73222 Par ch=1 c=64 v=56
73237 Par ch=1 c=64 v=127
73277 On ch=1 n=c5 v=0
73282 On ch=1 n=a3 v=0
73287 On ch=1 n=c4 v=0
73287 On ch=1 n=e3 v=0
73292 On ch=1 n=a4 v=0
73297 On ch=1 n=e4 v=0
73297 On ch=1 n=e5 v=0
73877 Par ch=1 c=64 v=72
73892 Par ch=1 c=64 v=0
73912 On ch=1 n=f5 v=88
73932 On ch=1 n=g#6 v=70
73932 On ch=1 n=b5 v=70
74002 Par ch=1 c=64 v=40
74017 On ch=1 n=b5 v=0
74017 Par ch=1 c=64 v=88
74032 Par ch=1 c=64 v=127
74052 On ch=1 n=g#6 v=0
74112 On ch=1 n=b6 v=69
74132 On ch=1 n=d6 v=68
74197 On ch=1 n=d6 v=0
74197 On ch=1 n=b6 v=0
74242 Par ch=1 c=64 v=88
74257 Par ch=1 c=64 v=24
74277 Par ch=1 c=64 v=0
74302 On ch=1 n=g#6 v=70
74307 On ch=1 n=b5 v=69
74312 On ch=1 n=e5 v=81
74337 On ch=1 n=f5 v=0
74352 Par ch=1 c=64 v=56
74372 On ch=1 n=e5 v=0
74372 Par ch=1 c=64 v=104
74382 Par ch=1 c=64 v=127
74412 On ch=1 n=b5 v=0
74452 On ch=1 n=g#6 v=0
74487 On ch=1 n=b6 v=73
74517 On ch=1 n=b6 v=0
74692 Par ch=1 c=64 v=104
74707 On ch=1 n=f4 v=92
74707 Par ch=1 c=64 v=40
74722 Par ch=1 c=64 v=0
74727 On ch=1 n=g#3 v=50
74732 On ch=1 n=b3 v=53
74812 Par ch=1 c=64 v=40
74832 On ch=1 n=b3 v=0
74832 Par ch=1 c=64 v=104
74837 On ch=1 n=g#3 v=0
74847 Par ch=1 c=64 v=127
74892 On ch=1 n=d4 v=53
74987 On ch=1 n=d4 v=0
75062 On ch=1 n=b3 v=51
75097 On ch=1 n=e4 v=89
75122 Par ch=1 c=64 v=88
75132 On ch=1 n=f4 v=0
75132 Par ch=1 c=64 v=0
75212 On ch=1 n=e4 v=0
75217 On ch=1 n=b3 v=0
75232 Par ch=1 c=64 v=56
75247 On ch=1 n=d4 v=60
75247 Par ch=1 c=64 v=127
75317 On ch=1 n=d4 v=0
75517 On ch=1 n=f5 v=89
75517 On ch=1 n=a6 v=76
75522 On ch=1 n=c6 v=66
75522 Par ch=1 c=64 v=40
75532 Par ch=1 c=64 v=0
75617 On ch=1 n=c6 v=0
75642 On ch=1 n=a6 v=0
75647 Par ch=1 c=64 v=24
75662 Par ch=1 c=64 v=72
75677 Par ch=1 c=64 v=104
75682 On ch=1 n=c7 v=74
75692 Par ch=1 c=64 v=127
75717 On ch=1 n=e6 v=45
75762 On ch=1 n=e6 v=0
75782 On ch=1 n=c7 v=0
75842 Par ch=1 c=64 v=56
75857 Par ch=1 c=64 v=0
75867 On ch=1 n=a6 v=74
75882 On ch=1 n=c6 v=74
75882 On ch=1 n=e5 v=76
75897 On ch=1 n=f5 v=0
75917 Par ch=1 c=64 v=56
75937 On ch=1 n=e5 v=0
75937 Par ch=1 c=64 v=104
75952 Par ch=1 c=64 v=127
75992 On ch=1 n=c6 v=0
75997 On ch=1 n=a6 v=0
76042 On ch=1 n=c7 v=74
76072 On ch=1 n=e6 v=44
76102 On ch=1 n=c7 v=0
76107 On ch=1 n=e6 v=0
76207 Par ch=1 c=64 v=104
76222 Par ch=1 c=64 v=24
76237 Par ch=1 c=64 v=0
76267 On ch=1 n=f4 v=86
76287 On ch=1 n=a3 v=73
76332 Par ch=1 c=64 v=40
76352 Par ch=1 c=64 v=104
76367 Par ch=1 c=64 v=127
76397 On ch=1 n=a3 v=0
76467 On ch=1 n=c4 v=62
76602 On ch=1 n=c4 v=0
76607 Par ch=1 c=64 v=104
76622 Par ch=1 c=64 v=24
76637 Par ch=1 c=64 v=0
76652 On ch=1 n=e4 v=84
76652 On ch=1 n=a3 v=71
76672 On ch=1 n=f4 v=0
76717 On ch=1 n=e4 v=0
76752 Par ch=1 c=64 v=40
76767 Par ch=1 c=64 v=104
76782 Par ch=1 c=64 v=127
76802 On ch=1 n=a3 v=0
76827 On ch=1 n=c4 v=64
76882 On ch=1 n=c4 v=0
77022 Par ch=1 c=64 v=104
77037 Par ch=1 c=64 v=0
77087 On ch=1 n=f8 v=97
77092 On ch=1 n=g#7 v=85
77097 On ch=1 n=f7 v=93
77097 On ch=1 n=b7 v=83
77102 On ch=1 n=f6 v=84
77107 On ch=1 n=g#5 v=62
77112 On ch=1 n=f5 v=68
77112 On ch=1 n=b5 v=70
77147 Par ch=1 c=64 v=40
77157 On ch=1 n=f5 v=0
77167 On ch=1 n=b5 v=0
77167 On ch=1 n=f6 v=0
77167 Par ch=1 c=64 v=72
77182 On ch=1 n=g#5 v=0
77182 On ch=1 n=b7 v=0
77187 On ch=1 n=f7 v=0
77192 On ch=1 n=g#7 v=0
77192 On ch=1 n=f8 v=0
77227 Par ch=1 c=64 v=24
77242 Par ch=1 c=64 v=0
77272 On ch=1 n=e8 v=96
77282 On ch=1 n=e7 v=94
77287 On ch=1 n=e6 v=77
77297 On ch=1 n=e5 v=67
77327 On ch=1 n=e5 v=0
77337 On ch=1 n=e7 v=0
77347 On ch=1 n=e6 v=0
77362 On ch=1 n=e8 v=0
77457 On ch=1 n=d8 v=93
77457 On ch=1 n=d6 v=81
77462 On ch=1 n=d7 v=93
77467 On ch=1 n=d5 v=74
77512 On ch=1 n=d5 v=0
77512 On ch=1 n=d7 v=0
77517 On ch=1 n=d6 v=0
77527 On ch=1 n=d8 v=0
77632 On ch=1 n=c8 v=89
77642 On ch=1 n=c7 v=87
77642 On ch=1 n=c6 v=77
77652 On ch=1 n=c5 v=67
77682 On ch=1 n=c5 v=0
77692 On ch=1 n=c6 v=0
77692 On ch=1 n=c7 v=0
77712 On ch=1 n=c8 v=0
77812 On ch=1 n=b5 v=76
77812 On ch=1 n=b7 v=88
77822 On ch=1 n=b6 v=82
77822 On ch=1 n=b4 v=68
77852 On ch=1 n=b4 v=0
77872 On ch=1 n=b5 v=0
77877 On ch=1 n=b6 v=0
77882 On ch=1 n=b7 v=0
77987 On ch=1 n=a7 v=90
77987 On ch=1 n=a5 v=75
78002 On ch=1 n=a6 v=61
78022 On ch=1 n=a4 v=41
78047 On ch=1 n=a6 v=0
78047 On ch=1 n=a5 v=0
78052 On ch=1 n=a4 v=0
78062 On ch=1 n=a7 v=0
78167 On ch=1 n=g#7 v=85
78177 On ch=1 n=g#6 v=79
78177 On ch=1 n=g#5 v=63
78187 On ch=1 n=g#4 v=65
78217 On ch=1 n=g#4 v=0
78222 On ch=1 n=g#5 v=0
78222 On ch=1 n=g#6 v=0
78237 On ch=1 n=g#7 v=0
78352 On ch=1 n=e5 v=47
78352 On ch=1 n=e7 v=90
78352 On ch=1 n=e6 v=86
78392 On ch=1 n=e6 v=0
78392 On ch=1 n=e5 v=0
78417 On ch=1 n=e7 v=0
78542 Par ch=1 c=64 v=24
78547 On ch=1 n=f7 v=100
78547 On ch=1 n=g#6 v=82
78547 On ch=1 n=f6 v=94
78547 On ch=1 n=b6 v=88
78547 On ch=1 n=f5 v=82
78547 On ch=1 n=f4 v=67
78547 On ch=1 n=b4 v=68
78547 On ch=1 n=g#4 v=65
78552 Par ch=1 c=64 v=104
78572 Par ch=1 c=64 v=127
78602 On ch=1 n=b4 v=0
78607 On ch=1 n=f4 v=0
78607 On ch=1 n=f5 v=0
78622 On ch=1 n=g#4 v=0
78637 On ch=1 n=f6 v=0
78647 On ch=1 n=f7 v=0
78652 On ch=1 n=b6 v=0
78652 On ch=1 n=g#6 v=0
78742 On ch=1 n=e7 v=89
78742 On ch=1 n=e6 v=88
78747 Par ch=1 c=64 v=104
78757 On ch=1 n=e5 v=77
78767 On ch=1 n=e4 v=74
78767 Par ch=1 c=64 v=72
78782 Par ch=1 c=64 v=56
78797 Par ch=1 c=64 v=40
78807 On ch=1 n=e6 v=0
78812 On ch=1 n=e4 v=0
78812 On ch=1 n=e5 v=0
78812 On ch=1 n=e7 v=0
78812 Par ch=1 c=64 v=0
78922 On ch=1 n=d7 v=88
78927 On ch=1 n=d6 v=83
78927 On ch=1 n=d5 v=74
78937 On ch=1 n=d4 v=68
78982 On ch=1 n=d4 v=0
78982 On ch=1 n=d6 v=0
78992 On ch=1 n=d5 v=0
78997 On ch=1 n=d7 v=0
79092 On ch=1 n=c7 v=86
79102 On ch=1 n=c6 v=82
79112 On ch=1 n=c5 v=74
79117 On ch=1 n=c4 v=71
79147 On ch=1 n=c4 v=0
79147 On ch=1 n=c5 v=0
79157 On ch=1 n=c6 v=0
79172 On ch=1 n=c7 v=0
79282 On ch=1 n=b6 v=85
79282 On ch=1 n=b5 v=74
79282 On ch=1 n=b4 v=71
79282 On ch=1 n=b3 v=71
79327 On ch=1 n=b3 v=0
79342 On ch=1 n=b4 v=0
79342 On ch=1 n=b5 v=0
79342 On ch=1 n=b6 v=0
79447 On ch=1 n=a6 v=85
79457 On ch=1 n=a4 v=74
79457 On ch=1 n=a5 v=66
79472 On ch=1 n=a3 v=59
79502 On ch=1 n=a3 v=0
79507 On ch=1 n=a5 v=0
79517 On ch=1 n=a4 v=0
79522 On ch=1 n=a6 v=0
79622 On ch=1 n=g#5 v=73
79622 On ch=1 n=g#6 v=79
79632 On ch=1 n=g#4 v=63
79652 On ch=1 n=g#3 v=46
79677 On ch=1 n=g#3 v=0
79677 On ch=1 n=g#4 v=0
79677 On ch=1 n=g#5 v=0
79682 On ch=1 n=g#6 v=0
79807 On ch=1 n=e5 v=84
79807 On ch=1 n=e4 v=70
79817 On ch=1 n=e6 v=73
79837 On ch=1 n=e4 v=0
79837 On ch=1 n=e3 v=68
79852 On ch=1 n=e6 v=0
79867 On ch=1 n=e3 v=0
79867 On ch=1 n=e5 v=0
79977 Par ch=1 c=64 v=40
79992 On ch=1 n=e6 v=94
79992 Par ch=1 c=64 v=88
79997 On ch=1 n=e5 v=86
80007 On ch=1 n=a5 v=81
80012 On ch=1 n=a4 v=70
80012 Par ch=1 c=64 v=127
80027 On ch=1 n=a3 v=62
80037 On ch=1 n=a4 v=0
80052 On ch=1 n=a3 v=0
80067 On ch=1 n=a5 v=0
80107 On ch=1 n=e5 v=0
80107 On ch=1 n=e6 v=0
80182 On ch=1 n=c6 v=85
80182 On ch=1 n=c5 v=67
80187 Par ch=1 c=64 v=88
80192 On ch=1 n=c4 v=60
80202 Par ch=1 c=64 v=56
80217 Par ch=1 c=64 v=24
80227 On ch=1 n=c5 v=0
80237 On ch=1 n=c4 v=0
80237 Par ch=1 c=64 v=0
80277 On ch=1 n=c6 v=0
80362 Par ch=1 c=64 v=24
80367 On ch=1 n=e6 v=90
80372 On ch=1 n=g#5 v=72
80372 On ch=1 n=g#4 v=71
80377 On ch=1 n=e5 v=80
80377 Par ch=1 c=64 v=72
80382 On ch=1 n=g#3 v=71
80392 Par ch=1 c=64 v=104
80407 Par ch=1 c=64 v=127
80427 On ch=1 n=g#4 v=0
80432 On ch=1 n=g#3 v=0
80487 On ch=1 n=e5 v=0
80487 On ch=1 n=g#5 v=0
80492 On ch=1 n=e6 v=0
80492 Par ch=1 c=64 v=104
80502 Par ch=1 c=64 v=88
80522 Par ch=1 c=64 v=72
80557 On ch=1 n=b5 v=81
80557 Par ch=1 c=64 v=56
80562 On ch=1 n=b4 v=67
80587 Par ch=1 c=64 v=40
80602 Par ch=1 c=64 v=24
80612 On ch=1 n=b5 v=0
80617 Par ch=1 c=64 v=0
80622 On ch=1 n=b4 v=0
80742 On ch=1 n=a5 v=96
80742 On ch=1 n=a6 v=100
80747 On ch=1 n=c6 v=96
80757 On ch=1 n=e4 v=73
80757 On ch=1 n=a4 v=71
80762 On ch=1 n=a3 v=59
80762 Par ch=1 c=64 v=24
80767 On ch=1 n=c4 v=67
80777 Par ch=1 c=64 v=72
80787 On ch=1 n=a5 v=0
80792 On ch=1 n=c6 v=0
80792 Par ch=1 c=64 v=127
80802 On ch=1 n=c4 v=0
80817 On ch=1 n=a4 v=0
80817 On ch=1 n=e4 v=0
80817 On ch=1 n=a6 v=0
80842 On ch=1 n=a3 v=0
80907 Par ch=1 c=64 v=104
80922 Par ch=1 c=64 v=88
80927 On ch=1 n=c7 v=99
80932 On ch=1 n=c6 v=94
80937 Par ch=1 c=64 v=72
80942 On ch=1 n=e6 v=81
80952 Par ch=1 c=64 v=56
80972 On ch=1 n=e6 v=0
80972 Par ch=1 c=64 v=40
80977 On ch=1 n=c6 v=0
80977 On ch=1 n=c7 v=0
80987 Par ch=1 c=64 v=0
81117 On ch=1 n=g#6 v=99
81117 On ch=1 n=g#5 v=89
81127 Par ch=1 c=64 v=56
81132 On ch=1 n=b5 v=64
81137 On ch=1 n=e4 v=81
81142 On ch=1 n=e3 v=67
81142 On ch=1 n=g#3 v=56
81142 Par ch=1 c=64 v=104
81152 On ch=1 n=b3 v=65
81162 On ch=1 n=b5 v=0
81162 Par ch=1 c=64 v=127
81167 On ch=1 n=g#5 v=0
81177 On ch=1 n=b3 v=0
81187 On ch=1 n=e3 v=0
81192 On ch=1 n=g#6 v=0
81202 On ch=1 n=e4 v=0
81207 On ch=1 n=g#3 v=0
81237 Par ch=1 c=64 v=104
81257 Par ch=1 c=64 v=88
81272 Par ch=1 c=64 v=72
81292 Par ch=1 c=64 v=56
81307 On ch=1 n=b6 v=105
81307 On ch=1 n=b5 v=97
81307 Par ch=1 c=64 v=40
81312 On ch=1 n=d6 v=88
81322 Par ch=1 c=64 v=24
81337 On ch=1 n=d6 v=0
81337 Par ch=1 c=64 v=0
81352 On ch=1 n=b5 v=0
81367 On ch=1 n=b6 v=0
81507 On ch=1 n=a6 v=103
81507 On ch=1 n=a5 v=102
81517 On ch=1 n=c6 v=99
81527 On ch=1 n=a3 v=78
81527 On ch=1 n=a4 v=74
81532 On ch=1 n=e4 v=74
81532 On ch=1 n=c4 v=70
81542 Par ch=1 c=64 v=56
81557 Par ch=1 c=64 v=127
81607 On ch=1 n=a5 v=0
81607 On ch=1 n=a6 v=0
81617 On ch=1 n=c6 v=0
81627 On ch=1 n=a4 v=0
81627 On ch=1 n=a3 v=0
81637 On ch=1 n=c4 v=0
81637 On ch=1 n=e4 v=0
81912 Par ch=1 c=64 v=88
81927 Par ch=1 c=64 v=56
81942 Par ch=1 c=64 v=40
81957 Par ch=1 c=64 v=0
82277 On ch=1 n=f7 v=110
82282 On ch=1 n=f6 v=110
82287 On ch=1 n=d7 v=94
82287 On ch=1 n=a6 v=96
82292 On ch=1 n=d4 v=102
82292 On ch=1 n=d3 v=83
82292 On ch=1 n=a3 v=94
82297 On ch=1 n=f3 v=84
82312 Par ch=1 c=64 v=104
82327 Par ch=1 c=64 v=127
82337 On ch=1 n=d3 v=0
82342 On ch=1 n=a6 v=0
82347 On ch=1 n=f3 v=0
82347 On ch=1 n=a3 v=0
82352 On ch=1 n=d4 v=0
82357 On ch=1 n=f6 v=0
82382 On ch=1 n=d7 v=0
82382 On ch=1 n=f7 v=0
82787 Par ch=1 c=64 v=88
82807 Par ch=1 c=64 v=56
82822 Par ch=1 c=64 v=24
82837 Par ch=1 c=64 v=0
83137 On ch=1 n=a7 v=116
83142 On ch=1 n=a6 v=107
83142 On ch=1 n=e7 v=100
83142 On ch=1 n=a2 v=81
83147 On ch=1 n=c7 v=96
83147 On ch=1 n=e3 v=90
83147 On ch=1 n=a3 v=107
83152 On ch=1 n=c3 v=83
83157 Par ch=1 c=64 v=56
83172 Par ch=1 c=64 v=127
83212 On ch=1 n=c3 v=0
83212 On ch=1 n=a2 v=0
83217 On ch=1 n=a3 v=0
83222 On ch=1 n=e3 v=0
83227 On ch=1 n=c7 v=0
83237 On ch=1 n=a6 v=0
83247 On ch=1 n=e7 v=0
83252 On ch=1 n=a7 v=0
83972 Par ch=1 c=64 v=104
83987 Par ch=1 c=64 v=56
84007 Par ch=1 c=64 v=0
84605 Par ch=1 c=64 v=127
84645 On ch=1 n=e5 v=83
84700 On ch=1 n=e5 v=0
84700 Par ch=1 c=64 v=72
84715 Par ch=1 c=64 v=24
84735 Par ch=1 c=64 v=0
84760 On ch=1 n=e5 v=85
84830 Par ch=1 c=64 v=104
84845 Par ch=1 c=64 v=127
85095 On ch=1 n=e5 v=0
85570 On ch=1 n=g#5 v=88
85580 Par ch=1 c=64 v=56
85585 On ch=1 n=c#5 v=77
85590 On ch=1 n=e5 v=70
85595 Par ch=1 c=64 v=0
85660 On ch=1 n=e5 v=0
85660 Par ch=1 c=64 v=40
85675 Par ch=1 c=64 v=127
85695 On ch=1 n=c#5 v=0
85745 On ch=1 n=g#5 v=0
86430 On ch=1 n=b5 v=93
86440 On ch=1 n=g#5 v=69
86440 On ch=1 n=g#4 v=73
86445 On ch=1 n=d#5 v=62
86540 Par ch=1 c=64 v=104
86555 Par ch=1 c=64 v=56
86570 Par ch=1 c=64 v=0
86730 Par ch=1 c=64 v=24
86745 Par ch=1 c=64 v=88
86760 Par ch=1 c=64 v=127
86870 Par ch=1 c=64 v=104
86885 Par ch=1 c=64 v=56
86905 Par ch=1 c=64 v=0
87000 Par ch=1 c=64 v=72
87015 Par ch=1 c=64 v=127
87535 On ch=1 n=d#5 v=0
87550 On ch=1 n=g#5 v=0
87560 On ch=1 n=b5 v=0
87600 On ch=1 n=g#4 v=0
87845 On ch=1 n=e6 v=88
87855 On ch=1 n=e5 v=68
87865 On ch=1 n=c#5 v=62
87865 On ch=1 n=c#4 v=62
87890 On ch=1 n=e5 v=0
87915 On ch=1 n=c#5 v=0
87920 On ch=1 n=e6 v=0
87930 On ch=1 n=c#4 v=0
87960 Par ch=1 c=64 v=72
87975 On ch=1 n=b5 v=90
87975 Par ch=1 c=64 v=0
87980 On ch=1 n=g#5 v=62
87980 On ch=1 n=g#4 v=67
87980 On ch=1 n=d#5 v=69
88090 Par ch=1 c=64 v=104
88105 On ch=1 n=d#5 v=0
88105 Par ch=1 c=64 v=127
88110 On ch=1 n=g#4 v=0
88130 On ch=1 n=g#5 v=0
88185 On ch=1 n=b5 v=0
88595 On ch=1 n=e6 v=84
88605 On ch=1 n=c#5 v=62
88605 On ch=1 n=e5 v=70
88610 On ch=1 n=c#4 v=67
88645 On ch=1 n=e5 v=0
88670 On ch=1 n=c#5 v=0
88670 On ch=1 n=e6 v=0
88675 On ch=1 n=c#4 v=0
88710 Par ch=1 c=64 v=56
88725 Par ch=1 c=64 v=0
88730 On ch=1 n=b5 v=89
88730 On ch=1 n=g#4 v=79
88730 On ch=1 n=d#5 v=60
88735 On ch=1 n=g#5 v=57
88820 Par ch=1 c=64 v=104
88825 On ch=1 n=g#4 v=0
88840 Par ch=1 c=64 v=127
88850 On ch=1 n=d#5 v=0
88875 On ch=1 n=g#5 v=0
88955 On ch=1 n=b5 v=0
89300 On ch=1 n=c#4 v=68
89300 On ch=1 n=e6 v=85
89300 On ch=1 n=c#5 v=67
89310 On ch=1 n=e5 v=72
89335 On ch=1 n=g#5 v=37
89350 On ch=1 n=e5 v=0
89350 On ch=1 n=c#5 v=0
89355 On ch=1 n=c#4 v=0
89365 On ch=1 n=g#5 v=0
89385 On ch=1 n=e6 v=0
89410 Par ch=1 c=64 v=40
89430 Par ch=1 c=64 v=0
89445 On ch=1 n=b5 v=88
89445 On ch=1 n=d#5 v=70
89445 On ch=1 n=g#5 v=69
89460 On ch=1 n=g#4 v=76
89470 On ch=1 n=g#3 v=69
89515 On ch=1 n=g#4 v=0
89525 On ch=1 n=g#3 v=0
89525 Par ch=1 c=64 v=88
89540 Par ch=1 c=64 v=127
89835 On ch=1 n=g4 v=86
89845 On ch=1 n=g3 v=77
89845 Par ch=1 c=64 v=56
89860 Par ch=1 c=64 v=0
89890 Par ch=1 c=64 v=24
89905 On ch=1 n=g3 v=0
89910 Par ch=1 c=64 v=56
89920 On ch=1 n=g4 v=0
89920 Par ch=1 c=64 v=104
89940 Par ch=1 c=64 v=127
90180 Par ch=1 c=64 v=88
90195 Par ch=1 c=64 v=24
90210 On ch=1 n=f#4 v=85
90210 Par ch=1 c=64 v=0
90215 On ch=1 n=f#3 v=78
90275 Par ch=1 c=64 v=56
90290 Par ch=1 c=64 v=127
90291 On ch=1 n=f#4 v=0
90296 On ch=1 n=f#3 v=0
90500 Par ch=1 c=64 v=104
90515 Par ch=1 c=64 v=40
90530 Par ch=1 c=64 v=0
90595 Par ch=1 c=64 v=24
90610 On ch=1 n=f4 v=94
90610 Par ch=1 c=64 v=88
90615 On ch=1 n=f3 v=78
90625 Par ch=1 c=64 v=127
90685 On ch=1 n=f4 v=0
90690 On ch=1 n=f3 v=0
90695 On ch=1 n=g#5 v=0
90710 On ch=1 n=d#5 v=0
90725 On ch=1 n=b5 v=0
90945 Par ch=1 c=64 v=40
90960 Par ch=1 c=64 v=0
91010 On ch=1 n=e6 v=97
91020 On ch=1 n=d5 v=68
91025 On ch=1 n=b5 v=77
91025 On ch=1 n=g#5 v=61
91030 On ch=1 n=e4 v=93
91030 On ch=1 n=e5 v=77
91030 On ch=1 n=e3 v=81
91055 Par ch=1 c=64 v=56
91070 Par ch=1 c=64 v=127
91080 On ch=1 n=e3 v=0
91080 On ch=1 n=e5 v=0
91080 On ch=1 n=d5 v=0
91095 On ch=1 n=e4 v=0
91095 On ch=1 n=g#5 v=0
91105 On ch=1 n=b5 v=0
91140 On ch=1 n=e6 v=0
92045 Par ch=1 c=64 v=104
92175 Par ch=1 c=64 v=88
92190 Par ch=1 c=64 v=72
92200 On ch=1 n=e6 v=80
92205 Par ch=1 c=64 v=24
92220 Par ch=1 c=64 v=0
92370 Par ch=1 c=64 v=72
92385 Par ch=1 c=64 v=127
92430 Par ch=1 c=64 v=88
92445 Par ch=1 c=64 v=24
92465 Par ch=1 c=64 v=0
92540 On ch=1 n=c7 v=80
92550 On ch=1 n=a4 v=46
92560 Par ch=1 c=64 v=72
92575 Par ch=1 c=64 v=127
92585 On ch=1 n=a4 v=0
92715 On ch=1 n=a5 v=61
92750 On ch=1 n=e7 v=77
92755 On ch=1 n=c7 v=0
92805 On ch=1 n=a5 v=0
92835 On ch=1 n=b5 v=62
92840 On ch=1 n=e6 v=0
92885 On ch=1 n=e7 v=0
92905 On ch=1 n=b5 v=0
92950 On ch=1 n=c6 v=63
92950 On ch=1 n=c7 v=81
92965 On ch=1 n=e6 v=62
93025 On ch=1 n=c6 v=0
93055 On ch=1 n=b5 v=60
93095 On ch=1 n=e6 v=0
93135 On ch=1 n=f6 v=55
93140 On ch=1 n=b5 v=0
93200 On ch=1 n=a5 v=60
93250 On ch=1 n=a5 v=0
93285 On ch=1 n=c7 v=0
93310 On ch=1 n=f6 v=0
93325 Par ch=1 c=64 v=72
93335 On ch=1 n=g4 v=52
93340 Par ch=1 c=64 v=0
93345 On ch=1 n=b6 v=78
93355 On ch=1 n=e6 v=61
93410 On ch=1 n=g4 v=0
93420 Par ch=1 c=64 v=56
93435 Par ch=1 c=64 v=127
93480 On ch=1 n=g5 v=59
93500 On ch=1 n=b6 v=0
93530 On ch=1 n=d7 v=77
93550 On ch=1 n=g5 v=0
93600 On ch=1 n=e6 v=0
93635 On ch=1 n=d7 v=0
93650 On ch=1 n=a5 v=53
93720 On ch=1 n=a5 v=0
93735 On ch=1 n=b6 v=76
93745 On ch=1 n=b5 v=58
93755 On ch=1 n=d6 v=60
93840 On ch=1 n=b5 v=0
93850 On ch=1 n=a5 v=52
93870 On ch=1 n=d6 v=0
93925 On ch=1 n=b6 v=0
93925 On ch=1 n=e6 v=71
93945 On ch=1 n=a5 v=0
93995 On ch=1 n=g5 v=57
94040 On ch=1 n=e6 v=0
94050 On ch=1 n=g5 v=0
94110 Par ch=1 c=64 v=40
94125 On ch=1 n=f4 v=67
94125 Par ch=1 c=64 v=0
94135 On ch=1 n=a6 v=75
94155 On ch=1 n=f4 v=0
94155 On ch=1 n=d6 v=54
94190 Par ch=1 c=64 v=56
94205 Par ch=1 c=64 v=127
94255 On ch=1 n=f5 v=59
94305 On ch=1 n=a6 v=0
94335 On ch=1 n=c7 v=76
94340 On ch=1 n=f5 v=0
94370 On ch=1 n=d6 v=0
94425 On ch=1 n=c7 v=0
94435 On ch=1 n=g5 v=58
94505 On ch=1 n=g5 v=0
94530 On ch=1 n=a6 v=74
94540 On ch=1 n=c6 v=63
94555 On ch=1 n=a5 v=61
94635 On ch=1 n=c6 v=0
94650 On ch=1 n=a6 v=0
94655 On ch=1 n=a5 v=0
94660 On ch=1 n=g5 v=57
94720 On ch=1 n=d6 v=66
94775 On ch=1 n=g5 v=0
94790 On ch=1 n=f5 v=56
94835 On ch=1 n=f5 v=0
94895 On ch=1 n=d6 v=0
94925 Par ch=1 c=64 v=88
94935 On ch=1 n=e4 v=68
94940 Par ch=1 c=64 v=0
94945 On ch=1 n=g#6 v=73
94945 On ch=1 n=b5 v=62
94970 On ch=1 n=e4 v=0
94990 Par ch=1 c=64 v=24
95005 Par ch=1 c=64 v=72
95020 Par ch=1 c=64 v=127
95080 On ch=1 n=e5 v=55
95120 On ch=1 n=b5 v=0
95120 On ch=1 n=g#6 v=0
95150 On ch=1 n=b6 v=76
95170 On ch=1 n=e5 v=0
95245 On ch=1 n=f5 v=58
95260 On ch=1 n=b6 v=0
95310 On ch=1 n=f5 v=0
95355 On ch=1 n=g#6 v=73
95360 On ch=1 n=g5 v=60
95370 On ch=1 n=b5 v=62
95455 On ch=1 n=g#6 v=0
95465 On ch=1 n=g5 v=0
95475 On ch=1 n=f5 v=58
95500 On ch=1 n=b5 v=0
95550 On ch=1 n=c6 v=63
95570 On ch=1 n=f5 v=0
95610 On ch=1 n=e5 v=60
95660 On ch=1 n=e5 v=0
95680 On ch=1 n=c6 v=0
95725 Par ch=1 c=64 v=88
95730 On ch=1 n=d4 v=73
95740 Par ch=1 c=64 v=24
95745 On ch=1 n=f6 v=80
95755 Par ch=1 c=64 v=0
95770 On ch=1 n=b5 v=51
95785 On ch=1 n=d4 v=0
95800 Par ch=1 c=64 v=56
95820 Par ch=1 c=64 v=127
95930 On ch=1 n=f6 v=0
95940 On ch=1 n=a6 v=72
95970 On ch=1 n=d5 v=19
96000 On ch=1 n=b5 v=0
96025 On ch=1 n=d5 v=0
96055 On ch=1 n=a6 v=0
96060 On ch=1 n=e5 v=62
96150 On ch=1 n=e5 v=0
96150 On ch=1 n=f6 v=82
96160 On ch=1 n=b5 v=55
96185 On ch=1 n=f5 v=54
96270 On ch=1 n=b5 v=0
96285 On ch=1 n=f5 v=0
96290 On ch=1 n=e5 v=55
96305 On ch=1 n=f6 v=0
96365 On ch=1 n=e5 v=0
96365 On ch=1 n=c6 v=63
96460 On ch=1 n=c6 v=0
96460 On ch=1 n=d5 v=55
96490 On ch=1 n=d5 v=0
96570 Par ch=1 c=64 v=88
96580 On ch=1 n=e6 v=82
96585 On ch=1 n=g#5 v=58
96585 Par ch=1 c=64 v=0
96595 On ch=1 n=e4 v=60
96605 On ch=1 n=b4 v=43
96650 On ch=1 n=b4 v=0
96695 Par ch=1 c=64 v=88
96700 On ch=1 n=g#5 v=0
96710 Par ch=1 c=64 v=127
96790 On ch=1 n=e5 v=64
96795 On ch=1 n=b5 v=67
96810 On ch=1 n=e6 v=0
96930 On ch=1 n=b5 v=0
96965 On ch=1 n=e5 v=0
96995 On ch=1 n=g#5 v=59
97010 On ch=1 n=b4 v=49
97070 On ch=1 n=b4 v=0
97090 On ch=1 n=g#5 v=0
97170 On ch=1 n=e4 v=0
97185 On ch=1 n=g#6 v=73
97185 On ch=1 n=e5 v=57
97205 On ch=1 n=b5 v=70
97265 On ch=1 n=e5 v=0
97275 On ch=1 n=b5 v=0
97300 On ch=1 n=g#6 v=0
97410 On ch=1 n=e6 v=84
97410 On ch=1 n=b4 v=52
97410 On ch=1 n=g#5 v=58
97415 Par ch=1 c=64 v=104
97430 On ch=1 n=e4 v=63
97430 Par ch=1 c=64 v=40
97445 Par ch=1 c=64 v=0
97535 On ch=1 n=g#5 v=0
97545 Par ch=1 c=64 v=56
97560 Par ch=1 c=64 v=127
97605 On ch=1 n=b4 v=0
97620 On ch=1 n=e6 v=0
97620 On ch=1 n=e5 v=53
97625 On ch=1 n=b5 v=69
97730 On ch=1 n=e5 v=0
97740 On ch=1 n=b5 v=0
97805 On ch=1 n=g#5 v=61
97810 On ch=1 n=b4 v=54
97905 On ch=1 n=g#5 v=0
97955 On ch=1 n=b4 v=0
97995 On ch=1 n=g#6 v=77
98000 On ch=1 n=e4 v=0
98010 On ch=1 n=b5 v=70
98015 On ch=1 n=e5 v=48
98060 On ch=1 n=e5 v=0
98090 On ch=1 n=b5 v=0
98105 On ch=1 n=g#6 v=0
98150 Par ch=1 c=64 v=56
98165 Par ch=1 c=64 v=0
98205 On ch=1 n=e6 v=85
98205 On ch=1 n=g#5 v=61
98220 On ch=1 n=b4 v=62
98240 On ch=1 n=e4 v=51
98245 Par ch=1 c=64 v=24
98265 Par ch=1 c=64 v=88
98280 Par ch=1 c=64 v=127
98300 On ch=1 n=g#5 v=0
98360 On ch=1 n=e6 v=0
98370 On ch=1 n=b4 v=0
98390 On ch=1 n=g#6 v=73
98405 On ch=1 n=b5 v=67
98405 On ch=1 n=e5 v=53
98410 On ch=1 n=e4 v=0
98460 On ch=1 n=e5 v=0
98475 On ch=1 n=b5 v=0
98495 On ch=1 n=g#6 v=0
98500 Par ch=1 c=64 v=88
98520 Par ch=1 c=64 v=40
98535 Par ch=1 c=64 v=0
98605 On ch=1 n=g#5 v=67
98605 On ch=1 n=e6 v=82
98610 On ch=1 n=b4 v=67
98615 Par ch=1 c=64 v=56
98625 On ch=1 n=e4 v=53
98630 Par ch=1 c=64 v=104
98650 Par ch=1 c=64 v=127
98695 On ch=1 n=g#5 v=0
98725 On ch=1 n=e4 v=0
98740 On ch=1 n=b4 v=0
98745 On ch=1 n=e6 v=0
98795 On ch=1 n=g#6 v=76
98810 On ch=1 n=e5 v=56
98815 On ch=1 n=b5 v=66
98870 Par ch=1 c=64 v=104
98880 On ch=1 n=e5 v=0
98885 Par ch=1 c=64 v=72
98890 On ch=1 n=b5 v=0
98900 On ch=1 n=g#6 v=0
98900 Par ch=1 c=64 v=24
98915 Par ch=1 c=64 v=0
98990 On ch=1 n=b4 v=62
99005 On ch=1 n=g#5 v=68
99005 On ch=1 n=e6 v=84
99030 Par ch=1 c=64 v=88
99045 Par ch=1 c=64 v=127
99055 On ch=1 n=e4 v=24
99090 On ch=1 n=e4 v=0
99095 On ch=1 n=g#5 v=0
99110 On ch=1 n=b4 v=0
99145 On ch=1 n=e6 v=0
99200 On ch=1 n=b5 v=81
99315 Par ch=1 c=64 v=104
99330 Par ch=1 c=64 v=40
99350 Par ch=1 c=64 v=0
99365 On ch=1 n=b5 v=0
99385 On ch=1 n=g#5 v=77
99390 On ch=1 n=e5 v=79
99390 On ch=1 n=b4 v=70
99400 On ch=1 n=e4 v=63
99400 On ch=1 n=g#4 v=55
99415 Par ch=1 c=64 v=56
99430 Par ch=1 c=64 v=127
99445 On ch=1 n=e4 v=0
99455 On ch=1 n=b4 v=0
99455 On ch=1 n=e5 v=0
99475 On ch=1 n=g#4 v=0
99545 On ch=1 n=g#5 v=0
99590 On ch=1 n=b5 v=84
99680 On ch=1 n=b5 v=0
99765 Par ch=1 c=64 v=88
99780 Par ch=1 c=64 v=24
99790 On ch=1 n=e6 v=93
99790 On ch=1 n=b4 v=74
99790 On ch=1 n=g#4 v=65
99795 On ch=1 n=e5 v=81
99800 On ch=1 n=e4 v=68
99800 On ch=1 n=b3 v=63
99800 Par ch=1 c=64 v=0
99825 Par ch=1 c=64 v=56
99830 On ch=1 n=e4 v=0
99835 On ch=1 n=b3 v=0
99845 On ch=1 n=g#4 v=0
99845 Par ch=1 c=64 v=104
99860 On ch=1 n=b4 v=0
99860 Par ch=1 c=64 v=127
99890 On ch=1 n=e5 v=0
99920 On ch=1 n=e6 v=0
99990 On ch=1 n=b5 v=88
100150 On ch=1 n=b5 v=0
100150 Par ch=1 c=64 v=72
100165 Par ch=1 c=64 v=24
100180 Par ch=1 c=64 v=0
100185 On ch=1 n=e6 v=97
100190 On ch=1 n=e5 v=82
100190 On ch=1 n=g#4 v=77
100195 On ch=1 n=g#3 v=65
100195 On ch=1 n=e4 v=73
100195 Par ch=1 c=64 v=56
100205 On ch=1 n=b3 v=60
100210 Par ch=1 c=64 v=104
100225 On ch=1 n=e4 v=0
100230 Par ch=1 c=64 v=127
100235 On ch=1 n=b3 v=0
100240 On ch=1 n=e5 v=0
100250 On ch=1 n=g#4 v=0
100265 On ch=1 n=g#3 v=0
100265 On ch=1 n=e6 v=0
100380 On ch=1 n=g#5 v=89
100385 On ch=1 n=g#6 v=92
100435 On ch=1 n=g#5 v=0
100475 On ch=1 n=g#6 v=0
100595 Par ch=1 c=64 v=40
100610 Par ch=1 c=64 v=0
100635 On ch=1 n=b6 v=109
100640 On ch=1 n=b5 v=96
100640 On ch=1 n=g#6 v=82
100645 On ch=1 n=g#3 v=68
100645 On ch=1 n=e6 v=85
100645 On ch=1 n=e4 v=89
100650 On ch=1 n=e3 v=76
100650 On ch=1 n=b3 v=84
100675 Par ch=1 c=64 v=88
100690 Par ch=1 c=64 v=127
100715 On ch=1 n=e3 v=0
100735 On ch=1 n=b3 v=0
100735 On ch=1 n=e4 v=0
100735 On ch=1 n=g#3 v=0
100785 On ch=1 n=e6 v=0
100930 On ch=1 n=b5 v=0
100955 On ch=1 n=g#6 v=0
101095 On ch=1 n=b6 v=0
101535 On ch=1 n=e7 v=107
101535 Par ch=1 c=64 v=72
101545 On ch=1 n=e6 v=97
101545 On ch=1 n=e5 v=87
101545 On ch=1 n=g#6 v=85
101545 On ch=1 n=b6 v=94
101545 On ch=1 n=e4 v=82
101550 On ch=1 n=b4 v=82
101550 On ch=1 n=g#4 v=68
101555 Par ch=1 c=64 v=0
101605 On ch=1 n=e4 v=0
101605 Par ch=1 c=64 v=88
101615 On ch=1 n=g#4 v=0
101620 On ch=1 n=e5 v=0
101620 Par ch=1 c=64 v=127
101625 On ch=1 n=b4 v=0
101630 On ch=1 n=g#6 v=0
101640 On ch=1 n=b6 v=0
101640 On ch=1 n=e6 v=0
101675 On ch=1 n=e7 v=0
102155 On ch=1 n=e4 v=60
102165 On ch=1 n=e6 v=73
102235 On ch=1 n=e4 v=0
102235 On ch=1 n=f#4 v=68
102265 On ch=1 n=f#6 v=62
102275 On ch=1 n=e6 v=0
102310 On ch=1 n=g#6 v=64
102320 On ch=1 n=f#4 v=0
102340 On ch=1 n=g#4 v=33
102385 On ch=1 n=f#6 v=0
102390 On ch=1 n=g#6 v=0
102395 On ch=1 n=g#4 v=0
102425 On ch=1 n=a6 v=93
102425 On ch=1 n=a5 v=82
102430 On ch=1 n=c6 v=90
102445 On ch=1 n=a4 v=75
102445 On ch=1 n=a3 v=81
102470 Par ch=1 c=64 v=24
102475 On ch=1 n=c6 v=0
102485 On ch=1 n=a5 v=0
102485 Par ch=1 c=64 v=72
102495 On ch=1 n=a4 v=0
102500 On ch=1 n=a6 v=0
102505 Par ch=1 c=64 v=88
102510 On ch=1 n=a3 v=0
102555 Par ch=1 c=64 v=56
102570 Par ch=1 c=64 v=40
102585 Par ch=1 c=64 v=24
102600 Par ch=1 c=64 v=0
102845 On ch=1 n=g#5 v=77
102850 On ch=1 n=g#6 v=91
102855 On ch=1 n=b5 v=83
102860 On ch=1 n=f4 v=77
102860 On ch=1 n=f3 v=72
102885 On ch=1 n=b5 v=0
102890 On ch=1 n=f3 v=0
102900 On ch=1 n=g#5 v=0
102910 On ch=1 n=f4 v=0
102935 On ch=1 n=g#6 v=0
103020 On ch=1 n=b6 v=97
103030 On ch=1 n=d6 v=92
103030 On ch=1 n=b5 v=71
103060 On ch=1 n=b5 v=0
103075 On ch=1 n=d6 v=0
103075 On ch=1 n=b6 v=0
103215 On ch=1 n=a6 v=94
103220 On ch=1 n=a5 v=83
103220 On ch=1 n=c6 v=87
103225 Par ch=1 c=64 v=24
103235 On ch=1 n=a4 v=79
103255 On ch=1 n=c6 v=0
103255 On ch=1 n=a3 v=63
103275 On ch=1 n=a5 v=0
103275 On ch=1 n=a6 v=0
103285 Par ch=1 c=64 v=0
103290 On ch=1 n=a3 v=0
103295 On ch=1 n=a4 v=0
103600 On ch=1 n=g#6 v=91
103605 On ch=1 n=g#5 v=77
103610 On ch=1 n=b5 v=80
103615 On ch=1 n=e4 v=81
103620 On ch=1 n=e3 v=68
103655 On ch=1 n=b5 v=0
103660 On ch=1 n=g#5 v=0
103665 On ch=1 n=e3 v=0
103680 On ch=1 n=e4 v=0
103695 On ch=1 n=g#6 v=0
103790 On ch=1 n=b6 v=90
103790 On ch=1 n=d6 v=84
103800 On ch=1 n=b5 v=63
103820 On ch=1 n=b6 v=0
103825 On ch=1 n=b5 v=0
103825 On ch=1 n=d6 v=0
103975 On ch=1 n=a5 v=77
103975 On ch=1 n=a6 v=92
103980 On ch=1 n=c6 v=81
103990 Par ch=1 c=64 v=24
104000 On ch=1 n=a4 v=82
104005 On ch=1 n=a3 v=71
104010 On ch=1 n=c6 v=0
104010 Par ch=1 c=64 v=40
104020 On ch=1 n=a5 v=0
104035 On ch=1 n=a6 v=0
104060 On ch=1 n=a3 v=0
104060 On ch=1 n=a4 v=0
104085 Par ch=1 c=64 v=24
104105 Par ch=1 c=64 v=0
104370 On ch=1 n=g#6 v=93
104370 On ch=1 n=g#5 v=82
104380 On ch=1 n=b5 v=85
104380 On ch=1 n=f3 v=73
104385 On ch=1 n=d4 v=77
104390 On ch=1 n=d3 v=70
104390 Par ch=1 c=64 v=40
104405 Par ch=1 c=64 v=56
104425 Par ch=1 c=64 v=88
104430 On ch=1 n=d3 v=0
104445 On ch=1 n=b5 v=0
104450 On ch=1 n=f3 v=0
104450 On ch=1 n=g#5 v=0
104455 On ch=1 n=d4 v=0
104485 On ch=1 n=g#6 v=0
104500 Par ch=1 c=64 v=56
104520 Par ch=1 c=64 v=40
104530 Par ch=1 c=64 v=0
104780 On ch=1 n=a6 v=97
104785 On ch=1 n=c6 v=88
104785 On ch=1 n=a5 v=85
104800 On ch=1 n=a4 v=76
104800 On ch=1 n=e4 v=76
104805 On ch=1 n=a3 v=76
104845 On ch=1 n=a5 v=0
104855 Par ch=1 c=64 v=88
104865 On ch=1 n=a3 v=0
104865 On ch=1 n=e4 v=0
104865 On ch=1 n=a4 v=0
104865 On ch=1 n=c6 v=0
104870 Par ch=1 c=64 v=127
104910 On ch=1 n=a6 v=0
105315 Par ch=1 c=64 v=104
105365 Par ch=1 c=64 v=40
105380 Par ch=1 c=64 v=0
105520 Par ch=1 c=64 v=40
105540 Par ch=1 c=64 v=88
105555 Par ch=1 c=64 v=127
105575 On ch=1 n=a7 v=105
105580 On ch=1 n=a6 v=89
105645 On ch=1 n=a6 v=0
105650 On ch=1 n=a7 v=0
105755 On ch=1 n=b7 v=100
105760 On ch=1 n=b6 v=93
105815 On ch=1 n=b6 v=0
105830 On ch=1 n=b7 v=0
105930 On ch=1 n=a5 v=69
105935 On ch=1 n=c8 v=107
105940 On ch=1 n=c7 v=105
105945 On ch=1 n=a4 v=36
105980 On ch=1 n=a4 v=0
106000 On ch=1 n=a5 v=0
106120 On ch=1 n=b5 v=76
106145 On ch=1 n=b4 v=44
106175 On ch=1 n=b4 v=0
106190 On ch=1 n=b5 v=0
106310 Par ch=1 c=64 v=56
106325 On ch=1 n=c6 v=96
106325 On ch=1 n=c5 v=87
106325 Par ch=1 c=64 v=0
106395 On ch=1 n=c8 v=0
106400 On ch=1 n=c7 v=0
106435 Par ch=1 c=64 v=40
106445 Par ch=1 c=64 v=88
106465 Par ch=1 c=64 v=104
106480 Par ch=1 c=64 v=127
106500 On ch=1 n=b7 v=97
106510 On ch=1 n=b6 v=89
106565 On ch=1 n=c5 v=0
106570 On ch=1 n=b6 v=0
106580 On ch=1 n=b7 v=0
106595 On ch=1 n=c6 v=0
106670 Par ch=1 c=64 v=104
106685 On ch=1 n=a7 v=100
106690 On ch=1 n=a6 v=84
106880 On ch=1 n=b5 v=81
106890 On ch=1 n=b4 v=64
106950 On ch=1 n=b5 v=0
106955 On ch=1 n=b4 v=0
107010 Par ch=1 c=64 v=72
107025 Par ch=1 c=64 v=0
107065 On ch=1 n=a5 v=92
107075 On ch=1 n=a4 v=80
107110 On ch=1 n=a7 v=0
107130 On ch=1 n=a6 v=0
107140 Par ch=1 c=64 v=24
107155 Par ch=1 c=64 v=56
107170 Par ch=1 c=64 v=88
107235 Par ch=1 c=64 v=104
107240 On ch=1 n=g7 v=94
107245 On ch=1 n=g6 v=87
107290 On ch=1 n=a4 v=0
107310 On ch=1 n=g6 v=0
107320 On ch=1 n=g7 v=0
107330 On ch=1 n=a5 v=0
107420 On ch=1 n=f7 v=90
107430 On ch=1 n=f6 v=85
107505 Par ch=1 c=64 v=24
107520 Par ch=1 c=64 v=0
107605 On ch=1 n=g5 v=77
107610 On ch=1 n=g4 v=70
107615 Par ch=1 c=64 v=24
107630 Par ch=1 c=64 v=56
107650 Par ch=1 c=64 v=88
107665 On ch=1 n=g5 v=0
107680 On ch=1 n=g4 v=0
107710 Par ch=1 c=64 v=104
107775 Par ch=1 c=64 v=40
107790 Par ch=1 c=64 v=0
107805 On ch=1 n=f5 v=88
107815 On ch=1 n=f4 v=81
107855 On ch=1 n=f7 v=0
107865 On ch=1 n=f6 v=0
107875 Par ch=1 c=64 v=40
107890 Par ch=1 c=64 v=72
107905 Par ch=1 c=64 v=88
107970 On ch=1 n=e7 v=87
107970 Par ch=1 c=64 v=104
107980 On ch=1 n=e6 v=82
108025 On ch=1 n=f4 v=0
108035 On ch=1 n=e6 v=0
108045 On ch=1 n=e7 v=0
108065 On ch=1 n=f5 v=0
108150 On ch=1 n=d7 v=90
108160 On ch=1 n=d6 v=81
108225 On ch=1 n=d6 v=0
108235 On ch=1 n=d7 v=0
108255 Par ch=1 c=64 v=88
108270 Par ch=1 c=64 v=72
108290 Par ch=1 c=64 v=56
108320 Par ch=1 c=64 v=40
108335 On ch=1 n=c#6 v=82
108340 On ch=1 n=c#7 v=88
108340 On ch=1 n=e5 v=69
108365 On ch=1 n=e4 v=61
108365 Par ch=1 c=64 v=24
108385 Par ch=1 c=64 v=0
108400 On ch=1 n=e4 v=0
108410 On ch=1 n=e5 v=0
108410 On ch=1 n=c#6 v=0
108455 On ch=1 n=c#7 v=0
108530 On ch=1 n=d7 v=102
108530 On ch=1 n=f6 v=70
108535 On ch=1 n=d6 v=96
108550 On ch=1 n=d5 v=88
108555 On ch=1 n=d4 v=81
108575 Par ch=1 c=64 v=40
108590 Par ch=1 c=64 v=88
108600 On ch=1 n=f6 v=0
108610 On ch=1 n=d6 v=0
108610 Par ch=1 c=64 v=127
108615 On ch=1 n=d4 v=0
108620 On ch=1 n=d5 v=0
108620 On ch=1 n=d7 v=0
108685 Par ch=1 c=64 v=104
108700 Par ch=1 c=64 v=88
108715 Par ch=1 c=64 v=56
108735 Par ch=1 c=64 v=24
108750 Par ch=1 c=64 v=0
108915 On ch=1 n=c#7 v=87
108915 On ch=1 n=c#6 v=82
108930 On ch=1 n=e6 v=80
108935 On ch=1 n=a#4 v=74
108935 On ch=1 n=a#3 v=67
108960 On ch=1 n=e6 v=0
108960 Par ch=1 c=64 v=72
108975 Par ch=1 c=64 v=104
108985 On ch=1 n=c#6 v=0
108990 On ch=1 n=a#3 v=0
108990 On ch=1 n=a#4 v=0
109015 On ch=1 n=c#7 v=0
109040 Par ch=1 c=64 v=88
109055 Par ch=1 c=64 v=72
109070 Par ch=1 c=64 v=40
109085 Par ch=1 c=64 v=24
109105 On ch=1 n=e7 v=86
109105 On ch=1 n=e6 v=81
109105 Par ch=1 c=64 v=0
109110 On ch=1 n=g6 v=77
109165 On ch=1 n=g6 v=0
109165 On ch=1 n=e6 v=0
109170 On ch=1 n=e7 v=0
109290 On ch=1 n=d7 v=97
109295 On ch=1 n=d6 v=88
109295 Par ch=1 c=64 v=56
109300 On ch=1 n=f6 v=89
109310 On ch=1 n=d5 v=82
109310 Par ch=1 c=64 v=127
109320 On ch=1 n=d4 v=72
109355 On ch=1 n=f6 v=0
109355 On ch=1 n=d6 v=0
109370 On ch=1 n=d5 v=0
109380 On ch=1 n=d7 v=0
109390 On ch=1 n=d4 v=0
109420 Par ch=1 c=64 v=88
109435 Par ch=1 c=64 v=56
109455 Par ch=1 c=64 v=24
109470 Par ch=1 c=64 v=0
109675 On ch=1 n=c#7 v=95
109675 On ch=1 n=c#6 v=92
109680 Par ch=1 c=64 v=56
109690 On ch=1 n=e6 v=79
109690 On ch=1 n=a4 v=74
109695 On ch=1 n=a3 v=75
109695 Par ch=1 c=64 v=72
109715 On ch=1 n=e6 v=0
109720 On ch=1 n=a3 v=0
109725 On ch=1 n=c#6 v=0
109750 On ch=1 n=c#7 v=0
109760 On ch=1 n=a4 v=0
109760 Par ch=1 c=64 v=40
109775 Par ch=1 c=64 v=24
109790 Par ch=1 c=64 v=0
109855 On ch=1 n=e7 v=100
109855 On ch=1 n=e6 v=96
109865 On ch=1 n=g6 v=93
109895 On ch=1 n=g6 v=0
109900 On ch=1 n=e7 v=0
109910 On ch=1 n=e6 v=0
110040 On ch=1 n=d7 v=100
110045 On ch=1 n=d6 v=97
110045 On ch=1 n=f6 v=96
110070 On ch=1 n=d5 v=85
110070 On ch=1 n=d4 v=79
110080 Par ch=1 c=64 v=56
110095 On ch=1 n=f6 v=0
110095 On ch=1 n=d6 v=0
110095 Par ch=1 c=64 v=127
110120 On ch=1 n=d7 v=0
110125 On ch=1 n=d5 v=0
110145 On ch=1 n=d4 v=0
110200 Par ch=1 c=64 v=88
110220 Par ch=1 c=64 v=40
110235 Par ch=1 c=64 v=0
110430 Par ch=1 c=64 v=40
110440 On ch=1 n=c#7 v=96
110440 On ch=1 n=c#6 v=90
110445 On ch=1 n=e6 v=90
110445 On ch=1 n=g4 v=82
110445 Par ch=1 c=64 v=104
110450 On ch=1 n=a#3 v=71
110450 On ch=1 n=g3 v=69
110460 Par ch=1 c=64 v=127
110500 On ch=1 n=g3 v=0
110505 On ch=1 n=a#3 v=0
110510 On ch=1 n=g4 v=0
110515 On ch=1 n=e6 v=0
110540 On ch=1 n=c#6 v=0
110570 On ch=1 n=c#7 v=0
110590 Par ch=1 c=64 v=104
110605 Par ch=1 c=64 v=72
110620 Par ch=1 c=64 v=40
110635 Par ch=1 c=64 v=0
110845 On ch=1 n=d7 v=102
110850 On ch=1 n=d6 v=89
110850 On ch=1 n=f6 v=93
110860 On ch=1 n=d5 v=86
110865 On ch=1 n=a4 v=80
110865 On ch=1 n=d4 v=89
110910 Par ch=1 c=64 v=88
110920 On ch=1 n=a4 v=0
110920 On ch=1 n=d5 v=0
110925 On ch=1 n=d4 v=0
110925 On ch=1 n=d6 v=0
110925 Par ch=1 c=64 v=127
110945 On ch=1 n=f6 v=0
110985 On ch=1 n=d7 v=0
111465 Par ch=1 c=64 v=88
111480 Par ch=1 c=64 v=24
111500 Par ch=1 c=64 v=0
111630 Par ch=1 c=64 v=56
111645 Par ch=1 c=64 v=88
111650 On ch=1 n=d8 v=102
111650 On ch=1 n=d7 v=96
111660 Par ch=1 c=64 v=127
111715 On ch=1 n=d7 v=0
111725 On ch=1 n=d8 v=0
111820 On ch=1 n=e8 v=97
111825 On ch=1 n=e7 v=93
111885 On ch=1 n=e7 v=0
111900 On ch=1 n=e8 v=0
111995 On ch=1 n=d6 v=77
112000 On ch=1 n=d5 v=70
112005 On ch=1 n=f8 v=102
112010 On ch=1 n=f7 v=109
112050 On ch=1 n=d5 v=0
112060 On ch=1 n=d6 v=0
112185 On ch=1 n=e6 v=81
112195 On ch=1 n=e5 v=64
112230 On ch=1 n=e5 v=0
112250 On ch=1 n=e6 v=0
112345 Par ch=1 c=64 v=72
112365 Par ch=1 c=64 v=24
112380 On ch=1 n=f6 v=95
112380 Par ch=1 c=64 v=0
112390 On ch=1 n=f5 v=84
112455 On ch=1 n=f8 v=0
112460 On ch=1 n=f7 v=0
112475 Par ch=1 c=64 v=40
112490 Par ch=1 c=64 v=72
112505 Par ch=1 c=64 v=104
112520 Par ch=1 c=64 v=127
112555 On ch=1 n=e8 v=97
112560 On ch=1 n=e7 v=93
112605 On ch=1 n=f5 v=0
112625 On ch=1 n=e7 v=0
112630 On ch=1 n=e8 v=0
112640 On ch=1 n=f6 v=0
112730 On ch=1 n=d8 v=93
112735 On ch=1 n=d7 v=90
112875 Par ch=1 c=64 v=88
112890 Par ch=1 c=64 v=56
112905 Par ch=1 c=64 v=40
112915 On ch=1 n=e6 v=82
112925 On ch=1 n=e5 v=78
112950 Par ch=1 c=64 v=56
112970 Par ch=1 c=64 v=72
112980 On ch=1 n=e6 v=0
112985 On ch=1 n=e5 v=0
112985 Par ch=1 c=64 v=88
113000 Par ch=1 c=64 v=104
113065 Par ch=1 c=64 v=24
113080 Par ch=1 c=64 v=0
113105 On ch=1 n=d6 v=94
113115 On ch=1 n=d5 v=83
113160 Par ch=1 c=64 v=24
113165 On ch=1 n=d7 v=0
113165 On ch=1 n=d8 v=0
113175 Par ch=1 c=64 v=72
113195 Par ch=1 c=64 v=104
113205 Par ch=1 c=64 v=127
113285 On ch=1 n=c8 v=89
113290 On ch=1 n=c7 v=90
113350 On ch=1 n=c7 v=0
113350 On ch=1 n=c8 v=0
113355 On ch=1 n=d5 v=0
113405 On ch=1 n=d6 v=0
113470 On ch=1 n=b7 v=90
113475 On ch=1 n=b6 v=87
113560 Par ch=1 c=64 v=88
113640 Par ch=1 c=64 v=104
113650 On ch=1 n=c6 v=86
113655 Par ch=1 c=64 v=127
113660 On ch=1 n=c5 v=66
113705 On ch=1 n=c5 v=0
113710 On ch=1 n=c6 v=0
113750 Par ch=1 c=64 v=56
113765 Par ch=1 c=64 v=24
113780 Par ch=1 c=64 v=0
113840 On ch=1 n=b4 v=68
113840 On ch=1 n=b5 v=95
113850 Par ch=1 c=64 v=40
113865 Par ch=1 c=64 v=72
113870 On ch=1 n=b7 v=0
113875 On ch=1 n=b6 v=0
113880 Par ch=1 c=64 v=88
113895 Par ch=1 c=64 v=104
113910 Par ch=1 c=64 v=127
113995 On ch=1 n=a7 v=93
113995 On ch=1 n=a6 v=82
114065 On ch=1 n=a6 v=0
114075 On ch=1 n=a7 v=0
114095 On ch=1 n=b4 v=0
114155 On ch=1 n=b5 v=0
114190 On ch=1 n=g#7 v=88
114190 On ch=1 n=g#6 v=87
114230 Par ch=1 c=64 v=88
114250 Par ch=1 c=64 v=72
114265 On ch=1 n=g#6 v=0
114265 Par ch=1 c=64 v=56
114280 Par ch=1 c=64 v=40
114285 On ch=1 n=g#7 v=0
114310 Par ch=1 c=64 v=24
114325 Par ch=1 c=64 v=0
114350 On ch=1 n=a5 v=72
114355 On ch=1 n=a4 v=68
114360 On ch=1 n=a7 v=100
114370 On ch=1 n=a6 v=82
114415 On ch=1 n=a5 v=0
114420 On ch=1 n=a6 v=0
114425 On ch=1 n=a4 v=0
114440 On ch=1 n=a7 v=0
114535 On ch=1 n=g#5 v=74
114535 Par ch=1 c=64 v=56
114540 On ch=1 n=g#4 v=75
114540 On ch=1 n=g#7 v=91
114545 On ch=1 n=g#6 v=88
114550 Par ch=1 c=64 v=104
114565 Par ch=1 c=64 v=127
114585 On ch=1 n=g#5 v=0
114590 On ch=1 n=g#4 v=0
114605 On ch=1 n=g#6 v=0
114620 On ch=1 n=g#7 v=0
114665 Par ch=1 c=64 v=104
114680 Par ch=1 c=64 v=88
114710 Par ch=1 c=64 v=72
114725 On ch=1 n=b7 v=102
114725 Par ch=1 c=64 v=56
114730 On ch=1 n=b5 v=76
114730 On ch=1 n=b6 v=87
114740 On ch=1 n=b4 v=66
114740 Par ch=1 c=64 v=40
114765 On ch=1 n=b4 v=0
114770 On ch=1 n=b6 v=0
114770 Par ch=1 c=64 v=24
114775 On ch=1 n=b5 v=0
114775 On ch=1 n=b7 v=0
114790 Par ch=1 c=64 v=0
114910 On ch=1 n=e8 v=100
114915 On ch=1 n=e7 v=93
114925 On ch=1 n=e6 v=82
114930 On ch=1 n=e5 v=74
114935 Par ch=1 c=64 v=104
114940 On ch=1 n=e7 v=0
114945 On ch=1 n=e6 v=0
114950 Par ch=1 c=64 v=127
114955 On ch=1 n=e5 v=0
114965 On ch=1 n=e8 v=0
115075 Par ch=1 c=64 v=88
115090 Par ch=1 c=64 v=72
115110 Par ch=1 c=64 v=56
115125 Par ch=1 c=64 v=40
115140 Par ch=1 c=64 v=24
115155 Par ch=1 c=64 v=0
115320 On ch=1 n=e5 v=97
115330 On ch=1 n=g#4 v=75
115335 On ch=1 n=b4 v=82
115340 On ch=1 n=g#3 v=65
115345 On ch=1 n=b3 v=76
115345 On ch=1 n=e4 v=82
115345 On ch=1 n=e3 v=64
115380 On ch=1 n=e3 v=0
115380 Par ch=1 c=64 v=127
115390 On ch=1 n=b3 v=0
115390 On ch=1 n=b4 v=0
115390 On ch=1 n=g#4 v=0
115400 On ch=1 n=e4 v=0
115400 On ch=1 n=g#3 v=0
115425 On ch=1 n=e5 v=0
115780 Par ch=1 c=64 v=104
115795 Par ch=1 c=64 v=72
115815 Par ch=1 c=64 v=56
115830 Par ch=1 c=64 v=40
115845 Par ch=1 c=64 v=24
115855 Par ch=1 c=64 v=0
116080 On ch=1 n=a6 v=83
116085 On ch=1 n=a7 v=102
116085 Par ch=1 c=64 v=40
116095 On ch=1 n=a5 v=76
116095 On ch=1 n=a4 v=66
116100 Par ch=1 c=64 v=72
116115 Par ch=1 c=64 v=88
116120 On ch=1 n=a4 v=0
116135 Par ch=1 c=64 v=104
116140 On ch=1 n=a5 v=0
116140 On ch=1 n=a6 v=0
116150 On ch=1 n=a7 v=0
116195 Par ch=1 c=64 v=72
116210 Par ch=1 c=64 v=56
116230 Par ch=1 c=64 v=40
116245 Par ch=1 c=64 v=24
116260 Par ch=1 c=64 v=0
116270 On ch=1 n=c7 v=93
116270 On ch=1 n=c8 v=97
116270 On ch=1 n=c6 v=79
116280 On ch=1 n=c5 v=73
116305 On ch=1 n=c5 v=0
116310 On ch=1 n=c6 v=0
116320 On ch=1 n=c7 v=0
116335 On ch=1 n=c8 v=0
116460 On ch=1 n=e8 v=97
116465 On ch=1 n=e7 v=92
116470 On ch=1 n=e6 v=87
116485 On ch=1 n=e5 v=64
116485 Par ch=1 c=64 v=72
116500 Par ch=1 c=64 v=127
116505 On ch=1 n=e8 v=0
116510 On ch=1 n=e7 v=0
116515 On ch=1 n=e5 v=0
116525 On ch=1 n=e6 v=0
116645 Par ch=1 c=64 v=88
116660 Par ch=1 c=64 v=72
116675 Par ch=1 c=64 v=56
116690 Par ch=1 c=64 v=24
116705 Par ch=1 c=64 v=0
116900 On ch=1 n=e5 v=96
116900 On ch=1 n=e3 v=73
116900 On ch=1 n=a4 v=77
116900 On ch=1 n=c4 v=81
116900 On ch=1 n=a3 v=71
116900 On ch=1 n=e4 v=79
116900 On ch=1 n=c5 v=65
116965 Par ch=1 c=64 v=56
116980 Par ch=1 c=64 v=127
117020 On ch=1 n=c5 v=0
117025 On ch=1 n=a3 v=0
117030 On ch=1 n=c4 v=0
117030 On ch=1 n=e3 v=0
117035 On ch=1 n=a4 v=0
117040 On ch=1 n=e4 v=0
117040 On ch=1 n=e5 v=0
117620 Par ch=1 c=64 v=72
117635 Par ch=1 c=64 v=0
117655 On ch=1 n=f5 v=88
117675 On ch=1 n=g#6 v=70
117675 On ch=1 n=b5 v=70
117745 Par ch=1 c=64 v=40
117760 On ch=1 n=b5 v=0
117760 Par ch=1 c=64 v=88
117775 Par ch=1 c=64 v=127
117795 On ch=1 n=g#6 v=0
117855 On ch=1 n=b6 v=69
117875 On ch=1 n=d6 v=68
117940 On ch=1 n=d6 v=0
117940 On ch=1 n=b6 v=0
117985 Par ch=1 c=64 v=88
118000 Par ch=1 c=64 v=24
118020 Par ch=1 c=64 v=0
118045 On ch=1 n=g#6 v=70
118050 On ch=1 n=b5 v=69
118055 On ch=1 n=e5 v=81
118080 On ch=1 n=f5 v=0
118095 Par ch=1 c=64 v=56
118115 On ch=1 n=e5 v=0
118115 Par ch=1 c=64 v=104
118125 Par ch=1 c=64 v=127
118155 On ch=1 n=b5 v=0
118195 On ch=1 n=g#6 v=0
118230 On ch=1 n=b6 v=73
118260 On ch=1 n=b6 v=0
118435 Par ch=1 c=64 v=104
118450 On ch=1 n=f4 v=92
118450 Par ch=1 c=64 v=40
118465 Par ch=1 c=64 v=0
118470 On ch=1 n=g#3 v=50
118475 On ch=1 n=b3 v=53
118555 Par ch=1 c=64 v=40
118575 On ch=1 n=b3 v=0
118575 Par ch=1 c=64 v=104
118580 On ch=1 n=g#3 v=0
118590 Par ch=1 c=64 v=127
118635 On ch=1 n=d4 v=53
118730 On ch=1 n=d4 v=0
118805 On ch=1 n=b3 v=51
118840 On ch=1 n=e4 v=89
118865 Par ch=1 c=64 v=88
118875 On ch=1 n=f4 v=0
118875 Par ch=1 c=64 v=0
118955 On ch=1 n=e4 v=0
118960 On ch=1 n=b3 v=0
118975 Par ch=1 c=64 v=56
118990 On ch=1 n=d4 v=60
118990 Par ch=1 c=64 v=127
119060 On ch=1 n=d4 v=0
119260 On ch=1 n=f5 v=89
119260 On ch=1 n=a6 v=76
119265 On ch=1 n=c6 v=66
119265 Par ch=1 c=64 v=40
119275 Par ch=1 c=64 v=0
119360 On ch=1 n=c6 v=0
119385 On ch=1 n=a6 v=0
119390 Par ch=1 c=64 v=24
119405 Par ch=1 c=64 v=72
119420 Par ch=1 c=64 v=104
119425 On ch=1 n=c7 v=74
119435 Par ch=1 c=64 v=127
119460 On ch=1 n=e6 v=45
119505 On ch=1 n=e6 v=0
119525 On ch=1 n=c7 v=0
119585 Par ch=1 c=64 v=56
119600 Par ch=1 c=64 v=0
119610 On ch=1 n=a6 v=74
119625 On ch=1 n=c6 v=74
119625 On ch=1 n=e5 v=76
119640 On ch=1 n=f5 v=0
119660 Par ch=1 c=64 v=56
119680 On ch=1 n=e5 v=0
119680 Par ch=1 c=64 v=104
119695 Par ch=1 c=64 v=127
119735 On ch=1 n=c6 v=0
119740 On ch=1 n=a6 v=0
119785 On ch=1 n=c7 v=74
119815 On ch=1 n=e6 v=44
119845 On ch=1 n=c7 v=0
119850 On ch=1 n=e6 v=0
119950 Par ch=1 c=64 v=104
119965 Par ch=1 c=64 v=24
119980 Par ch=1 c=64 v=0
120010 On ch=1 n=f4 v=86
120030 On ch=1 n=a3 v=73
120075 Par ch=1 c=64 v=40
120095 Par ch=1 c=64 v=104
120110 Par ch=1 c=64 v=127
120140 On ch=1 n=a3 v=0
120210 On ch=1 n=c4 v=62
120345 On ch=1 n=c4 v=0
120350 Par ch=1 c=64 v=104
120365 Par ch=1 c=64 v=24
120380 Par ch=1 c=64 v=0
120395 On ch=1 n=e4 v=84
120395 On ch=1 n=a3 v=71
120415 On ch=1 n=f4 v=0
120460 On ch=1 n=e4 v=0
120495 Par ch=1 c=64 v=40
120510 Par ch=1 c=64 v=104
120525 Par ch=1 c=64 v=127
120545 On ch=1 n=a3 v=0
120570 On ch=1 n=c4 v=64
120625 On ch=1 n=c4 v=0
120765 Par ch=1 c=64 v=104
120780 Par ch=1 c=64 v=0
120830 On ch=1 n=f8 v=97
120835 On ch=1 n=g#7 v=85
120840 On ch=1 n=f7 v=93
120840 On ch=1 n=b7 v=83
120845 On ch=1 n=f6 v=84
120850 On ch=1 n=g#5 v=62
120855 On ch=1 n=f5 v=68
120855 On ch=1 n=b5 v=70
120890 Par ch=1 c=64 v=40
120900 On ch=1 n=f5 v=0
120910 On ch=1 n=b5 v=0
120910 On ch=1 n=f6 v=0
120910 Par ch=1 c=64 v=72
120925 On ch=1 n=g#5 v=0
120925 On ch=1 n=b7 v=0
120930 On ch=1 n=f7 v=0
120935 On ch=1 n=g#7 v=0
120935 On ch=1 n=f8 v=0
120970 Par ch=1 c=64 v=24
120985 Par ch=1 c=64 v=0
121015 On ch=1 n=e8 v=96
121025 On ch=1 n=e7 v=94
121030 On ch=1 n=e6 v=77
121040 On ch=1 n=e5 v=67
121070 On ch=1 n=e5 v=0
121080 On ch=1 n=e7 v=0
121090 On ch=1 n=e6 v=0
121105 On ch=1 n=e8 v=0
121200 On ch=1 n=d8 v=93
121200 On ch=1 n=d6 v=81
121205 On ch=1 n=d7 v=93
121210 On ch=1 n=d5 v=74
121255 On ch=1 n=d5 v=0
121255 On ch=1 n=d7 v=0
121260 On ch=1 n=d6 v=0
121270 On ch=1 n=d8 v=0
121375 On ch=1 n=c8 v=89
121385 On ch=1 n=c7 v=87
121385 On ch=1 n=c6 v=77
121395 On ch=1 n=c5 v=67
121425 On ch=1 n=c5 v=0
121435 On ch=1 n=c6 v=0
121435 On ch=1 n=c7 v=0
121455 On ch=1 n=c8 v=0
121555 On ch=1 n=b5 v=76
121555 On ch=1 n=b7 v=88
121565 On ch=1 n=b6 v=82
121565 On ch=1 n=b4 v=68
121595 On ch=1 n=b4 v=0
121615 On ch=1 n=b5 v=0
121620 On ch=1 n=b6 v=0
121625 On ch=1 n=b7 v=0
121730 On ch=1 n=a7 v=90
121730 On ch=1 n=a5 v=75
121745 On ch=1 n=a6 v=61
121765 On ch=1 n=a4 v=41
121790 On ch=1 n=a6 v=0
121790 On ch=1 n=a5 v=0
121795 On ch=1 n=a4 v=0
121805 On ch=1 n=a7 v=0
121910 On ch=1 n=g#7 v=85
121920 On ch=1 n=g#6 v=79
121920 On ch=1 n=g#5 v=63
121930 On ch=1 n=g#4 v=65
121960 On ch=1 n=g#4 v=0
121965 On ch=1 n=g#5 v=0
121965 On ch=1 n=g#6 v=0
121980 On ch=1 n=g#7 v=0
122095 On ch=1 n=e5 v=47
122095 On ch=1 n=e7 v=90
122095 On ch=1 n=e6 v=86
122135 On ch=1 n=e6 v=0
122135 On ch=1 n=e5 v=0
122160 On ch=1 n=e7 v=0
122285 Par ch=1 c=64 v=24
122290 On ch=1 n=f7 v=100
122290 On ch=1 n=g#6 v=82
122290 On ch=1 n=f6 v=94
122290 On ch=1 n=b6 v=88
122290 On ch=1 n=f5 v=82
122290 On ch=1 n=f4 v=67
122290 On ch=1 n=b4 v=68
122290 On ch=1 n=g#4 v=65
122295 Par ch=1 c=64 v=104
122315 Par ch=1 c=64 v=127
122345 On ch=1 n=b4 v=0
122350 On ch=1 n=f4 v=0
122350 On ch=1 n=f5 v=0
122365 On ch=1 n=g#4 v=0
122380 On ch=1 n=f6 v=0
122390 On ch=1 n=f7 v=0
122395 On ch=1 n=b6 v=0
122395 On ch=1 n=g#6 v=0
122485 On ch=1 n=e7 v=89
122485 On ch=1 n=e6 v=88
122490 Par ch=1 c=64 v=104
122500 On ch=1 n=e5 v=77
122510 On ch=1 n=e4 v=74
122510 Par ch=1 c=64 v=72
122525 Par ch=1 c=64 v=56
122540 Par ch=1 c=64 v=40
122550 On ch=1 n=e6 v=0
122555 On ch=1 n=e4 v=0
122555 On ch=1 n=e5 v=0
122555 On ch=1 n=e7 v=0
122555 Par ch=1 c=64 v=0
122665 On ch=1 n=d7 v=88
122670 On ch=1 n=d6 v=83
122670 On ch=1 n=d5 v=74
122680 On ch=1 n=d4 v=68
122725 On ch=1 n=d4 v=0
122725 On ch=1 n=d6 v=0
122735 On ch=1 n=d5 v=0
122740 On ch=1 n=d7 v=0
122835 On ch=1 n=c7 v=86
122845 On ch=1 n=c6 v=82
122855 On ch=1 n=c5 v=74
122860 On ch=1 n=c4 v=71
122890 On ch=1 n=c4 v=0
122890 On ch=1 n=c5 v=0
122900 On ch=1 n=c6 v=0
122915 On ch=1 n=c7 v=0
123025 On ch=1 n=b6 v=85
123025 On ch=1 n=b5 v=74
123025 On ch=1 n=b4 v=71
123025 On ch=1 n=b3 v=71
123070 On ch=1 n=b3 v=0
123085 On ch=1 n=b4 v=0
123085 On ch=1 n=b5 v=0
123085 On ch=1 n=b6 v=0
123190 On ch=1 n=a6 v=85
123200 On ch=1 n=a4 v=74
123200 On ch=1 n=a5 v=66
123215 On ch=1 n=a3 v=59
123245 On ch=1 n=a3 v=0
123250 On ch=1 n=a5 v=0
123260 On ch=1 n=a4 v=0
123265 On ch=1 n=a6 v=0
123365 On ch=1 n=g#5 v=73
123365 On ch=1 n=g#6 v=79
123375 On ch=1 n=g#4 v=63
123395 On ch=1 n=g#3 v=46
123420 On ch=1 n=g#3 v=0
123420 On ch=1 n=g#4 v=0
123420 On ch=1 n=g#5 v=0
123425 On ch=1 n=g#6 v=0
123550 On ch=1 n=e5 v=84
123550 On ch=1 n=e4 v=70
123560 On ch=1 n=e6 v=73
123580 On ch=1 n=e4 v=0
123580 On ch=1 n=e3 v=68
123595 On ch=1 n=e6 v=0
123610 On ch=1 n=e3 v=0
123610 On ch=1 n=e5 v=0
123720 Par ch=1 c=64 v=40
123735 On ch=1 n=e6 v=94
123735 Par ch=1 c=64 v=88
123740 On ch=1 n=e5 v=86
123750 On ch=1 n=a5 v=81
123755 On ch=1 n=a4 v=70
123755 Par ch=1 c=64 v=127
123770 On ch=1 n=a3 v=62
123780 On ch=1 n=a4 v=0
123795 On ch=1 n=a3 v=0
123810 On ch=1 n=a5 v=0
123850 On ch=1 n=e5 v=0
123850 On ch=1 n=e6 v=0
123925 On ch=1 n=c6 v=85
123925 On ch=1 n=c5 v=67
123930 Par ch=1 c=64 v=88
123935 On ch=1 n=c4 v=60
123945 Par ch=1 c=64 v=56
123960 Par ch=1 c=64 v=24
123970 On ch=1 n=c5 v=0
123980 On ch=1 n=c4 v=0
123980 Par ch=1 c=64 v=0
124020 On ch=1 n=c6 v=0
124105 Par ch=1 c=64 v=24
124110 On ch=1 n=e6 v=90
124115 On ch=1 n=g#5 v=72
124115 On ch=1 n=g#4 v=71
124120 On ch=1 n=e5 v=80
124120 Par ch=1 c=64 v=72
124125 On ch=1 n=g#3 v=71
124135 Par ch=1 c=64 v=104
124150 Par ch=1 c=64 v=127
124170 On ch=1 n=g#4 v=0
124175 On ch=1 n=g#3 v=0
124230 On ch=1 n=e5 v=0
124230 On ch=1 n=g#5 v=0
124235 On ch=1 n=e6 v=0
124235 Par ch=1 c=64 v=104
124245 Par ch=1 c=64 v=88
124265 Par ch=1 c=64 v=72
124300 On ch=1 n=b5 v=81
124300 Par ch=1 c=64 v=56
124305 On ch=1 n=b4 v=67
124330 Par ch=1 c=64 v=40
124345 Par ch=1 c=64 v=24
124355 On ch=1 n=b5 v=0
124360 Par ch=1 c=64 v=0
124365 On ch=1 n=b4 v=0
124485 On ch=1 n=a5 v=96
124485 On ch=1 n=a6 v=100
124490 On ch=1 n=c6 v=96
124500 On ch=1 n=e4 v=73
124500 On ch=1 n=a4 v=71
124505 On ch=1 n=a3 v=59
124505 Par ch=1 c=64 v=24
124510 On ch=1 n=c4 v=67
124520 Par ch=1 c=64 v=72
124530 On ch=1 n=a5 v=0
124535 On ch=1 n=c6 v=0
124535 Par ch=1 c=64 v=127
124545 On ch=1 n=c4 v=0
124560 On ch=1 n=a4 v=0
124560 On ch=1 n=e4 v=0
124560 On ch=1 n=a6 v=0
124585 On ch=1 n=a3 v=0
124650 Par ch=1 c=64 v=104
124665 Par ch=1 c=64 v=88
124670 On ch=1 n=c7 v=99
124675 On ch=1 n=c6 v=94
124680 Par ch=1 c=64 v=72
124685 On ch=1 n=e6 v=81
124695 Par ch=1 c=64 v=56
124715 On ch=1 n=e6 v=0
124715 Par ch=1 c=64 v=40
124720 On ch=1 n=c6 v=0
124720 On ch=1 n=c7 v=0
124730 Par ch=1 c=64 v=0
124860 On ch=1 n=g#6 v=99
124860 On ch=1 n=g#5 v=89
124870 Par ch=1 c=64 v=56
124875 On ch=1 n=b5 v=64
124880 On ch=1 n=e4 v=81
124885 On ch=1 n=e3 v=67
124885 On ch=1 n=g#3 v=56
124885 Par ch=1 c=64 v=104
124895 On ch=1 n=b3 v=65
124905 On ch=1 n=b5 v=0
124905 Par ch=1 c=64 v=127
124910 On ch=1 n=g#5 v=0
124920 On ch=1 n=b3 v=0
124930 On ch=1 n=e3 v=0
124935 On ch=1 n=g#6 v=0
124945 On ch=1 n=e4 v=0
124950 On ch=1 n=g#3 v=0
124980 Par ch=1 c=64 v=104
125000 Par ch=1 c=64 v=88
125015 Par ch=1 c=64 v=72
125035 Par ch=1 c=64 v=56
125050 On ch=1 n=b6 v=105
125050 On ch=1 n=b5 v=97
125050 Par ch=1 c=64 v=40
125055 On ch=1 n=d6 v=88
125065 Par ch=1 c=64 v=24
125080 On ch=1 n=d6 v=0
125080 Par ch=1 c=64 v=0
125095 On ch=1 n=b5 v=0
125110 On ch=1 n=b6 v=0
125250 On ch=1 n=a6 v=103
125250 On ch=1 n=a5 v=102
125260 On ch=1 n=c6 v=99
125270 On ch=1 n=a3 v=78
125270 On ch=1 n=a4 v=74
125275 On ch=1 n=e4 v=74
125275 On ch=1 n=c4 v=70
125285 Par ch=1 c=64 v=56
125300 Par ch=1 c=64 v=127
125350 On ch=1 n=a5 v=0
125350 On ch=1 n=a6 v=0
125360 On ch=1 n=c6 v=0
125370 On ch=1 n=a4 v=0
125370 On ch=1 n=a3 v=0
125380 On ch=1 n=c4 v=0
125380 On ch=1 n=e4 v=0
125655 Par ch=1 c=64 v=88
125670 Par ch=1 c=64 v=56
125685 Par ch=1 c=64 v=40
125700 Par ch=1 c=64 v=0
126020 On ch=1 n=f7 v=110
126025 On ch=1 n=f6 v=110
126030 On ch=1 n=d7 v=94
126030 On ch=1 n=a6 v=96
126035 On ch=1 n=d4 v=102
126035 On ch=1 n=d3 v=83
126035 On ch=1 n=a3 v=94
126040 On ch=1 n=f3 v=84
126055 Par ch=1 c=64 v=104
126070 Par ch=1 c=64 v=127
126080 On ch=1 n=d3 v=0
126085 On ch=1 n=a6 v=0
126090 On ch=1 n=f3 v=0
126090 On ch=1 n=a3 v=0
126095 On ch=1 n=d4 v=0
126100 On ch=1 n=f6 v=0
126125 On ch=1 n=d7 v=0
126125 On ch=1 n=f7 v=0
126530 Par ch=1 c=64 v=88
126550 Par ch=1 c=64 v=56
126565 Par ch=1 c=64 v=24
126580 Par ch=1 c=64 v=0
126880 On ch=1 n=a7 v=116
126885 On ch=1 n=a6 v=107
126885 On ch=1 n=e7 v=100
126885 On ch=1 n=a2 v=81
126890 On ch=1 n=c7 v=96
126890 On ch=1 n=e3 v=90
126890 On ch=1 n=a3 v=107
126895 On ch=1 n=c3 v=83
126900 Par ch=1 c=64 v=56
126915 Par ch=1 c=64 v=127
126955 On ch=1 n=c3 v=0
126955 On ch=1 n=a2 v=0
126960 On ch=1 n=a3 v=0
126965 On ch=1 n=e3 v=0
126970 On ch=1 n=c7 v=0
126980 On ch=1 n=a6 v=0
126990 On ch=1 n=e7 v=0
126995 On ch=1 n=a7 v=0
127715 Par ch=1 c=64 v=104
127730 Par ch=1 c=64 v=56
127750 Par ch=1 c=64 v=0
128347 On ch=1 n=c#6 v=67
128427 Par ch=1 c=64 v=24
128447 Par ch=1 c=64 v=40
128482 Par ch=1 c=64 v=56
128502 Par ch=1 c=64 v=72
128517 On ch=1 n=c#6 v=0
128517 Par ch=1 c=64 v=88
128532 Par ch=1 c=64 v=127
128542 On ch=1 n=e6 v=80
128707 On ch=1 n=e6 v=0
128767 On ch=1 n=a5 v=78
128907 Par ch=1 c=64 v=72
128922 Par ch=1 c=64 v=0
129062 Par ch=1 c=64 v=56
129077 Par ch=1 c=64 v=127
129187 On ch=1 n=c#5 v=50
129187 On ch=1 n=e4 v=55
129312 On ch=1 n=c#5 v=0
129317 On ch=1 n=e4 v=0
129387 On ch=1 n=e5 v=57
129457 On ch=1 n=e5 v=0
129622 On ch=1 n=a3 v=60
129637 Par ch=1 c=64 v=104
129652 Par ch=1 c=64 v=72
129672 Par ch=1 c=64 v=88
129687 Par ch=1 c=64 v=127
129727 On ch=1 n=a3 v=0
129997 On ch=1 n=a5 v=0
129997 On ch=1 n=c#6 v=73
130152 On ch=1 n=c#6 v=0
130202 On ch=1 n=e6 v=82
130352 On ch=1 n=e6 v=0
130412 On ch=1 n=a5 v=78
130532 Par ch=1 c=64 v=88
130552 Par ch=1 c=64 v=24
130567 Par ch=1 c=64 v=0
130652 Par ch=1 c=64 v=40
130667 Par ch=1 c=64 v=127
130792 On ch=1 n=e4 v=43
130792 On ch=1 n=c#5 v=50
130902 On ch=1 n=c#5 v=0
130917 On ch=1 n=e4 v=0
130977 On ch=1 n=e5 v=60
131027 On ch=1 n=e5 v=0
131202 Par ch=1 c=64 v=88
131212 Par ch=1 c=64 v=40
131217 On ch=1 n=a3 v=58
131232 On ch=1 n=a5 v=0
131262 Par ch=1 c=64 v=127
131312 On ch=1 n=a3 v=0
131612 On ch=1 n=a6 v=84
131637 Par ch=1 c=64 v=56
131642 On ch=1 n=c#6 v=49
131652 On ch=1 n=c#5 v=34
131652 On ch=1 n=f5 v=44
131652 Par ch=1 c=64 v=0
131657 On ch=1 n=b5 v=42
131687 Par ch=1 c=64 v=24
131702 Par ch=1 c=64 v=56
131722 Par ch=1 c=64 v=127
131752 On ch=1 n=b5 v=0
131752 On ch=1 n=a6 v=0
131757 On ch=1 n=f5 v=0
131762 On ch=1 n=c#5 v=0
131772 On ch=1 n=c#6 v=0
131812 On ch=1 n=g#6 v=87
131927 On ch=1 n=g#6 v=0
132002 On ch=1 n=g#6 v=82
132022 On ch=1 n=c#6 v=60
132027 Par ch=1 c=64 v=88
132032 On ch=1 n=a5 v=46
132042 On ch=1 n=f#5 v=38
132042 Par ch=1 c=64 v=40
132057 Par ch=1 c=64 v=24
132077 Par ch=1 c=64 v=56
132092 Par ch=1 c=64 v=88
132097 On ch=1 n=c#6 v=0
132112 Par ch=1 c=64 v=127
132122 On ch=1 n=a5 v=0
132127 On ch=1 n=f#5 v=0
132142 On ch=1 n=g#6 v=0
132192 On ch=1 n=f#6 v=88
132292 On ch=1 n=f#6 v=0
132397 On ch=1 n=f#6 v=83
132407 On ch=1 n=c#6 v=60
132417 On ch=1 n=c#5 v=40
132417 Par ch=1 c=64 v=56
132432 On ch=1 n=b5 v=38
132432 Par ch=1 c=64 v=24
132442 On ch=1 n=g#5 v=31
132452 Par ch=1 c=64 v=40
132467 Par ch=1 c=64 v=72
132482 Par ch=1 c=64 v=127
132502 On ch=1 n=b5 v=0
132512 On ch=1 n=c#5 v=0
132522 On ch=1 n=g#5 v=0
132527 On ch=1 n=c#6 v=0
132537 On ch=1 n=f#6 v=0
132592 On ch=1 n=f6 v=90
132707 On ch=1 n=f6 v=0
132787 Par ch=1 c=64 v=104
132792 On ch=1 n=g#6 v=83
132807 On ch=1 n=c#6 v=53
132807 Par ch=1 c=64 v=40
132822 Par ch=1 c=64 v=0
132832 On ch=1 n=a5 v=50
132832 On ch=1 n=f#5 v=44
132842 Par ch=1 c=64 v=40
132857 Par ch=1 c=64 v=72
132872 Par ch=1 c=64 v=127
132892 On ch=1 n=c#6 v=0
132902 On ch=1 n=f#5 v=0
132907 On ch=1 n=a5 v=0
132927 On ch=1 n=g#6 v=0
132977 On ch=1 n=f#6 v=83
133082 On ch=1 n=f#6 v=0
133162 Par ch=1 c=64 v=104
133177 On ch=1 n=c#6 v=69
133177 On ch=1 n=f#6 v=82
133177 Par ch=1 c=64 v=56
133197 On ch=1 n=c#5 v=45
133197 Par ch=1 c=64 v=0
133202 On ch=1 n=b5 v=48
133207 On ch=1 n=g#5 v=30
133242 Par ch=1 c=64 v=88
133262 Par ch=1 c=64 v=127
133277 On ch=1 n=b5 v=0
133277 On ch=1 n=c#5 v=0
133277 On ch=1 n=c#6 v=0
133292 On ch=1 n=g#5 v=0
133312 On ch=1 n=f#6 v=0
133362 On ch=1 n=f6 v=92
133477 On ch=1 n=f6 v=0
133582 On ch=1 n=f#6 v=85
133587 Par ch=1 c=64 v=72
133602 Par ch=1 c=64 v=0
133612 On ch=1 n=c#6 v=38
133617 On ch=1 n=f#5 v=46
133622 On ch=1 n=a5 v=54
133687 Par ch=1 c=64 v=24
133692 On ch=1 n=a5 v=0
133692 On ch=1 n=f#5 v=0
133702 Par ch=1 c=64 v=88
133722 Par ch=1 c=64 v=127
134022 On ch=1 n=a4 v=54
134022 Par ch=1 c=64 v=56
134042 Par ch=1 c=64 v=40
134062 Par ch=1 c=64 v=56
134077 Par ch=1 c=64 v=88
134092 Par ch=1 c=64 v=127
134132 On ch=1 n=a4 v=0
134202 On ch=1 n=c#5 v=54
134227 Par ch=1 c=64 v=72
134247 Par ch=1 c=64 v=0
134332 Par ch=1 c=64 v=40
134347 Par ch=1 c=64 v=104
134367 Par ch=1 c=64 v=127
134372 On ch=1 n=c#5 v=0
134452 On ch=1 n=c#6 v=0
134457 On ch=1 n=f#4 v=53
134482 On ch=1 n=f#6 v=0
134552 On ch=1 n=f#4 v=0
134792 Par ch=1 c=64 v=104
134807 Par ch=1 c=64 v=40
134817 On ch=1 n=f#7 v=74
134822 Par ch=1 c=64 v=0
134837 On ch=1 n=c#6 v=44
134842 On ch=1 n=a6 v=61
134847 On ch=1 n=a5 v=53
134857 On ch=1 n=g6 v=32
134872 Par ch=1 c=64 v=24
134887 On ch=1 n=a6 v=0
134892 Par ch=1 c=64 v=88
134907 Par ch=1 c=64 v=127
134932 On ch=1 n=c#6 v=0
134937 On ch=1 n=f#7 v=0
134942 On ch=1 n=g6 v=0
134942 On ch=1 n=a5 v=0
135012 On ch=1 n=e7 v=89
135117 On ch=1 n=e7 v=0
135212 On ch=1 n=e7 v=88
135212 Par ch=1 c=64 v=88
135222 On ch=1 n=f#6 v=46
135227 Par ch=1 c=64 v=56
135232 On ch=1 n=a6 v=60
135237 On ch=1 n=d6 v=52
135247 Par ch=1 c=64 v=24
135262 Par ch=1 c=64 v=40
135277 On ch=1 n=a6 v=0
135282 Par ch=1 c=64 v=72
135292 On ch=1 n=d6 v=0
135297 Par ch=1 c=64 v=127
135312 On ch=1 n=f#6 v=0
135332 On ch=1 n=e7 v=0
135407 On ch=1 n=d7 v=84
135507 On ch=1 n=d7 v=0
135602 On ch=1 n=d7 v=80
135602 Par ch=1 c=64 v=72
135612 On ch=1 n=a6 v=55
135622 On ch=1 n=a5 v=53
135622 Par ch=1 c=64 v=40
135632 On ch=1 n=g6 v=49
135632 On ch=1 n=e6 v=45
135672 Par ch=1 c=64 v=88
135687 Par ch=1 c=64 v=127
135692 On ch=1 n=e6 v=0
135692 On ch=1 n=a6 v=0
135712 On ch=1 n=a5 v=0
135717 On ch=1 n=g6 v=0
135732 On ch=1 n=d7 v=0
135782 On ch=1 n=c#7 v=83
135902 On ch=1 n=c#7 v=0
135977 Par ch=1 c=64 v=104
135992 On ch=1 n=e7 v=79
135992 On ch=1 n=f#6 v=52
135992 Par ch=1 c=64 v=56
136002 On ch=1 n=a6 v=64
136012 Par ch=1 c=64 v=24
136022 On ch=1 n=d6 v=48
136027 Par ch=1 c=64 v=40
136042 Par ch=1 c=64 v=72
136057 Par ch=1 c=64 v=104
136067 On ch=1 n=d6 v=0
136077 Par ch=1 c=64 v=127
136082 On ch=1 n=f#6 v=0
136102 On ch=1 n=a6 v=0
136122 On ch=1 n=e7 v=0
136182 On ch=1 n=d7 v=78
136277 On ch=1 n=d7 v=0
136367 Par ch=1 c=64 v=104
136377 On ch=1 n=d7 v=78
136382 On ch=1 n=a6 v=59
136382 Par ch=1 c=64 v=56
136392 On ch=1 n=e6 v=52
136392 On ch=1 n=g6 v=45
136397 On ch=1 n=a5 v=42
136402 Par ch=1 c=64 v=24
136452 Par ch=1 c=64 v=88
136462 On ch=1 n=a6 v=0
136462 Par ch=1 c=64 v=127
136482 On ch=1 n=e6 v=0
136497 On ch=1 n=d7 v=0
136527 On ch=1 n=a5 v=0
136527 On ch=1 n=g6 v=0
136562 On ch=1 n=c#7 v=82
136677 On ch=1 n=c#7 v=0
136737 Par ch=1 c=64 v=72
136757 Par ch=1 c=64 v=0
136782 On ch=1 n=d7 v=83
136792 On ch=1 n=f#6 v=61
136812 On ch=1 n=a6 v=41
136817 On ch=1 n=d6 v=51
136822 Par ch=1 c=64 v=56
136842 Par ch=1 c=64 v=127
136852 On ch=1 n=d6 v=0
136872 On ch=1 n=f#6 v=0
137192 On ch=1 n=f#5 v=49
137212 Par ch=1 c=64 v=72
137232 Par ch=1 c=64 v=40
137247 Par ch=1 c=64 v=24
137262 Par ch=1 c=64 v=40
137282 Par ch=1 c=64 v=72
137292 Par ch=1 c=64 v=127
137322 On ch=1 n=f#5 v=0
137377 On ch=1 n=a5 v=53
137467 On ch=1 n=a6 v=0
137497 On ch=1 n=a5 v=0
137527 On ch=1 n=d7 v=0
137592 On ch=1 n=d5 v=56
137602 Par ch=1 c=64 v=56
137622 Par ch=1 c=64 v=24
137667 Par ch=1 c=64 v=104
137682 Par ch=1 c=64 v=127
137692 On ch=1 n=d5 v=0
137992 On ch=1 n=d6 v=73
138027 Par ch=1 c=64 v=104
138042 Par ch=1 c=64 v=56
138092 Par ch=1 c=64 v=104
138112 Par ch=1 c=64 v=127
138147 On ch=1 n=d6 v=0
138187 On ch=1 n=f#6 v=69
138337 On ch=1 n=f#6 v=0
138422 On ch=1 n=b5 v=64
138452 Par ch=1 c=64 v=40
138462 Par ch=1 c=64 v=0
138552 Par ch=1 c=64 v=88
138567 Par ch=1 c=64 v=127
138832 On ch=1 n=d5 v=48
138832 On ch=1 n=f#4 v=39
138947 On ch=1 n=d5 v=0
138987 On ch=1 n=f#4 v=0
139032 On ch=1 n=f#5 v=50
139077 On ch=1 n=f#5 v=0
139257 On ch=1 n=b3 v=49
139282 Par ch=1 c=64 v=72
139297 Par ch=1 c=64 v=24
139312 On ch=1 n=b3 v=0
139327 Par ch=1 c=64 v=40
139347 Par ch=1 c=64 v=88
139367 Par ch=1 c=64 v=127
139582 On ch=1 n=b5 v=0
139662 On ch=1 n=d6 v=69
139817 On ch=1 n=d6 v=0
139847 On ch=1 n=f#6 v=73
140012 On ch=1 n=f#6 v=0
140072 On ch=1 n=b5 v=76
140127 Par ch=1 c=64 v=104
140147 Par ch=1 c=64 v=56
140157 Par ch=1 c=64 v=0
140247 Par ch=1 c=64 v=72
140262 Par ch=1 c=64 v=127
140472 On ch=1 n=d5 v=39
140472 On ch=1 n=f#4 v=37
140547 On ch=1 n=d5 v=0
140607 On ch=1 n=f#4 v=0
140657 On ch=1 n=f#5 v=54
140687 On ch=1 n=f#5 v=0
140857 Par ch=1 c=64 v=104
140872 Par ch=1 c=64 v=72
140877 On ch=1 n=b5 v=0
140902 On ch=1 n=b3 v=51
140927 Par ch=1 c=64 v=127
140987 On ch=1 n=b3 v=0
141297 Par ch=1 c=64 v=72
141317 Par ch=1 c=64 v=0
141337 On ch=1 n=b7 v=82
141347 On ch=1 n=d7 v=66
141397 Par ch=1 c=64 v=56
141417 On ch=1 n=d7 v=0
141417 Par ch=1 c=64 v=104
141432 Par ch=1 c=64 v=127
141457 On ch=1 n=b7 v=0
141527 On ch=1 n=f#7 v=71
141532 On ch=1 n=d8 v=81
141602 Par ch=1 c=64 v=104
141617 Par ch=1 c=64 v=56
141622 On ch=1 n=f#7 v=0
141632 On ch=1 n=d8 v=0
141637 Par ch=1 c=64 v=24
141652 Par ch=1 c=64 v=0
141687 Par ch=1 c=64 v=40
141707 Par ch=1 c=64 v=104
141722 Par ch=1 c=64 v=127
141732 On ch=1 n=c#8 v=72
141747 On ch=1 n=e7 v=61
141752 On ch=1 n=e4 v=43
141782 On ch=1 n=e7 v=0
141787 On ch=1 n=e4 v=0
141817 On ch=1 n=c#8 v=0
141917 On ch=1 n=b7 v=78
141922 On ch=1 n=d7 v=60
141972 On ch=1 n=d7 v=0
142037 On ch=1 n=b7 v=0
142122 On ch=1 n=c#7 v=65
142127 On ch=1 n=a7 v=79
142132 On ch=1 n=c#5 v=37
142137 On ch=1 n=a5 v=43
142157 On ch=1 n=e5 v=27
142172 On ch=1 n=c#5 v=0
142187 On ch=1 n=a5 v=0
142187 On ch=1 n=c#7 v=0
142192 On ch=1 n=e5 v=0
142212 On ch=1 n=a7 v=0
142302 On ch=1 n=c#8 v=84
142317 On ch=1 n=e7 v=81
142387 On ch=1 n=e7 v=0
142402 On ch=1 n=c#8 v=0
142452 Par ch=1 c=64 v=88
142467 Par ch=1 c=64 v=24
142487 Par ch=1 c=64 v=0
142507 On ch=1 n=b7 v=86
142517 On ch=1 n=d7 v=68
142527 On ch=1 n=e5 v=59
142537 Par ch=1 c=64 v=40
142547 Par ch=1 c=64 v=72
142567 On ch=1 n=e5 v=0
142567 Par ch=1 c=64 v=127
142582 On ch=1 n=d7 v=0
142597 On ch=1 n=b7 v=0
142702 On ch=1 n=a7 v=70
142702 On ch=1 n=c#7 v=61
142762 On ch=1 n=c#7 v=0
142772 On ch=1 n=a7 v=0
142842 Par ch=1 c=64 v=88
142857 Par ch=1 c=64 v=40
142877 Par ch=1 c=64 v=24
142887 On ch=1 n=g#7 v=76
142892 On ch=1 n=b6 v=65
142892 Par ch=1 c=64 v=40
142907 On ch=1 n=b5 v=40
142907 Par ch=1 c=64 v=72
142922 On ch=1 n=g#6 v=38
142927 Par ch=1 c=64 v=104
142942 On ch=1 n=e6 v=41
142942 Par ch=1 c=64 v=127
142947 On ch=1 n=b6 v=0
142987 On ch=1 n=e6 v=0
142992 On ch=1 n=b5 v=0
142997 On ch=1 n=g#6 v=0
142997 On ch=1 n=g#7 v=0
143077 On ch=1 n=b7 v=84
143077 On ch=1 n=d7 v=74
143137 On ch=1 n=d7 v=0
143172 On ch=1 n=b7 v=0
143212 Par ch=1 c=64 v=104
143232 Par ch=1 c=64 v=56
143247 Par ch=1 c=64 v=0
143287 On ch=1 n=a7 v=77
143297 On ch=1 n=c#7 v=67
143312 On ch=1 n=e6 v=45
143317 On ch=1 n=a5 v=50
143327 On ch=1 n=a6 v=37
143332 Par ch=1 c=64 v=24
143347 Par ch=1 c=64 v=72
143357 On ch=1 n=a5 v=0
143362 On ch=1 n=a6 v=0
143362 On ch=1 n=e6 v=0
143362 On ch=1 n=c#7 v=0
143367 Par ch=1 c=64 v=127
143387 On ch=1 n=a7 v=0
143487 On ch=1 n=c#8 v=76
143502 On ch=1 n=e7 v=70
143542 On ch=1 n=e7 v=0
143542 On ch=1 n=c#8 v=0
143602 Par ch=1 c=64 v=104
143622 Par ch=1 c=64 v=56
143637 Par ch=1 c=64 v=24
143687 Par ch=1 c=64 v=72
143697 On ch=1 n=g#7 v=72
143702 On ch=1 n=b6 v=65
143702 On ch=1 n=g#6 v=48
143707 Par ch=1 c=64 v=104
143717 On ch=1 n=e6 v=52
143722 Par ch=1 c=64 v=127
143752 On ch=1 n=e6 v=0
143757 On ch=1 n=b6 v=0
143767 On ch=1 n=g#6 v=0
143797 On ch=1 n=g#7 v=0
143882 On ch=1 n=b7 v=83
143892 On ch=1 n=d7 v=66
143942 On ch=1 n=d7 v=0
143982 On ch=1 n=b7 v=0
144047 Par ch=1 c=64 v=72
144062 Par ch=1 c=64 v=0
144102 On ch=1 n=c#7 v=67
144107 On ch=1 n=a7 v=82
144127 On ch=1 n=a6 v=44
144132 On ch=1 n=e6 v=47
144137 On ch=1 n=a5 v=42
144142 Par ch=1 c=64 v=24
144162 Par ch=1 c=64 v=88
144167 On ch=1 n=a6 v=0
144172 On ch=1 n=e6 v=0
144177 Par ch=1 c=64 v=127
144197 On ch=1 n=a5 v=0
144227 On ch=1 n=c#7 v=0
144257 On ch=1 n=a7 v=0
144527 On ch=1 n=c#5 v=46
144687 On ch=1 n=c#5 v=0
144712 On ch=1 n=e5 v=63
144917 On ch=1 n=e5 v=0
144947 On ch=1 n=a4 v=55
145027 Par ch=1 c=64 v=56
145037 Par ch=1 c=64 v=127
145062 On ch=1 n=a4 v=0
145342 On ch=1 n=c#6 v=62
145357 On ch=1 n=e4 v=46
145367 On ch=1 n=a3 v=42
145452 On ch=1 n=c#6 v=0
145452 On ch=1 n=e6 v=68
145517 On ch=1 n=e4 v=0
145542 On ch=1 n=a3 v=0
145572 On ch=1 n=a5 v=65
145622 On ch=1 n=a5 v=0
145662 On ch=1 n=e6 v=0
145787 On ch=1 n=e6 v=61
145792 On ch=1 n=a3 v=37
145792 On ch=1 n=e4 v=34
145797 On ch=1 n=c#7 v=53
145852 On ch=1 n=e4 v=0
145852 On ch=1 n=a3 v=0
145872 On ch=1 n=c#7 v=0
145907 On ch=1 n=e7 v=72
145967 On ch=1 n=e6 v=0
146007 On ch=1 n=a6 v=73
146012 On ch=1 n=e7 v=0
146057 On ch=1 n=a6 v=0
146217 On ch=1 n=c#5 v=59
146337 On ch=1 n=c#5 v=0
146412 On ch=1 n=e5 v=62
146577 On ch=1 n=e5 v=0
146622 On ch=1 n=a4 v=62
146692 On ch=1 n=a4 v=0
146967 On ch=1 n=c#7 v=82
146982 On ch=1 n=e4 v=52
146992 On ch=1 n=e6 v=58
146992 On ch=1 n=a3 v=45
147032 On ch=1 n=e6 v=0
147087 On ch=1 n=e7 v=73
147092 On ch=1 n=c#7 v=0
147137 On ch=1 n=a3 v=0
147152 On ch=1 n=e4 v=0
147192 On ch=1 n=a6 v=68
147232 On ch=1 n=a6 v=0
147272 On ch=1 n=e7 v=0
147382 On ch=1 n=e7 v=73
147392 On ch=1 n=c#8 v=71
147397 On ch=1 n=e4 v=39
147397 On ch=1 n=a3 v=42
147447 On ch=1 n=a3 v=0
147462 On ch=1 n=c#8 v=0
147487 On ch=1 n=e4 v=0
147502 On ch=1 n=e8 v=79
147577 On ch=1 n=e7 v=0
147602 On ch=1 n=a7 v=83
147622 On ch=1 n=e8 v=0
147662 On ch=1 n=a7 v=0
147837 On ch=1 n=a7 v=83
147852 On ch=1 n=c#7 v=57
147857 Par ch=1 c=64 v=56
147867 On ch=1 n=b5 v=60
147872 On ch=1 n=f5 v=49
147872 On ch=1 n=c#5 v=50
147877 Par ch=1 c=64 v=0
147932 On ch=1 n=a7 v=0
147937 Par ch=1 c=64 v=40
147952 Par ch=1 c=64 v=104
147967 Par ch=1 c=64 v=127
147977 On ch=1 n=g#7 v=74
147982 On ch=1 n=b5 v=0
147992 On ch=1 n=c#7 v=0
148022 On ch=1 n=c#5 v=0
148027 On ch=1 n=f5 v=0
148092 On ch=1 n=g#7 v=0
148112 On ch=1 n=g#6 v=69
148207 On ch=1 n=g#6 v=0
148272 On ch=1 n=g#7 v=79
148277 On ch=1 n=c#7 v=64
148282 On ch=1 n=f#5 v=45
148282 Par ch=1 c=64 v=88
148292 On ch=1 n=a5 v=54
148297 Par ch=1 c=64 v=40
148312 Par ch=1 c=64 v=0
148327 Par ch=1 c=64 v=24
148342 Par ch=1 c=64 v=40
148357 Par ch=1 c=64 v=88
148362 On ch=1 n=c#7 v=0
148362 On ch=1 n=g#7 v=0
148372 Par ch=1 c=64 v=127
148402 On ch=1 n=f#7 v=69
148497 On ch=1 n=f#5 v=0
148502 On ch=1 n=f#7 v=0
148502 On ch=1 n=a5 v=0
148522 On ch=1 n=f#6 v=55
148617 On ch=1 n=f#6 v=0
148672 Par ch=1 c=64 v=88
148677 On ch=1 n=f#7 v=72
148687 On ch=1 n=c#7 v=64
148687 Par ch=1 c=64 v=40
148692 On ch=1 n=g#5 v=36
148692 On ch=1 n=c#5 v=37
148697 On ch=1 n=b5 v=39
148702 Par ch=1 c=64 v=24
148732 Par ch=1 c=64 v=56
148747 Par ch=1 c=64 v=88
148752 On ch=1 n=f#7 v=0
148762 Par ch=1 c=64 v=127
148782 On ch=1 n=c#7 v=0
148817 On ch=1 n=f7 v=76
148862 On ch=1 n=b5 v=0
148897 On ch=1 n=f7 v=0
148912 On ch=1 n=f6 v=62
148947 On ch=1 n=c#5 v=0
148972 On ch=1 n=g#5 v=0
148982 On ch=1 n=f6 v=0
149057 On ch=1 n=g#7 v=82
149062 Par ch=1 c=64 v=104
149077 Par ch=1 c=64 v=56
149082 On ch=1 n=a5 v=47
149082 On ch=1 n=f#5 v=40
149082 On ch=1 n=c#7 v=47
149092 Par ch=1 c=64 v=24
149107 On ch=1 n=c#7 v=0
149112 Par ch=1 c=64 v=40
149127 On ch=1 n=g#7 v=0
149127 Par ch=1 c=64 v=56
149137 Par ch=1 c=64 v=88
149152 Par ch=1 c=64 v=127
149192 On ch=1 n=f#7 v=71
149257 On ch=1 n=a5 v=0
149287 On ch=1 n=f#7 v=0
149317 On ch=1 n=f#6 v=67
149357 On ch=1 n=f#5 v=0
149402 On ch=1 n=f#6 v=0
149422 Par ch=1 c=64 v=88
149437 Par ch=1 c=64 v=40
149447 On ch=1 n=f#7 v=71
149447 On ch=1 n=g#5 v=37
149457 Par ch=1 c=64 v=24
149462 On ch=1 n=c#7 v=58
149467 On ch=1 n=b5 v=32
149467 On ch=1 n=c#5 v=27
149472 Par ch=1 c=64 v=40
149487 Par ch=1 c=64 v=56
149502 Par ch=1 c=64 v=88
149512 Par ch=1 c=64 v=127
149522 On ch=1 n=f#7 v=0
149552 On ch=1 n=c#7 v=0
149577 On ch=1 n=c#5 v=0
149582 On ch=1 n=f7 v=75
149587 On ch=1 n=b5 v=0
149602 On ch=1 n=g#5 v=0
149672 On ch=1 n=f7 v=0
149692 On ch=1 n=f6 v=69
149752 On ch=1 n=f6 v=0
149902 On ch=1 n=g#7 v=78
149902 On ch=1 n=c#7 v=60
149902 On ch=1 n=f#5 v=45
149902 On ch=1 n=a5 v=45
149902 Par ch=1 c=64 v=72
149917 Par ch=1 c=64 v=24
149932 Par ch=1 c=64 v=0
149977 Par ch=1 c=64 v=24
149982 On ch=1 n=c#7 v=0
149992 On ch=1 n=g#7 v=0
149992 Par ch=1 c=64 v=72
150002 On ch=1 n=f#5 v=0
150007 Par ch=1 c=64 v=127
150017 On ch=1 n=f#7 v=69
150052 On ch=1 n=a5 v=0
150112 On ch=1 n=c#7 v=68
150172 On ch=1 n=f#7 v=0
150217 On ch=1 n=c#7 v=0
150217 On ch=1 n=a6 v=64
150292 On ch=1 n=a6 v=0
150327 On ch=1 n=g#6 v=64
150412 On ch=1 n=f#6 v=50
150422 On ch=1 n=g#6 v=0
150487 On ch=1 n=f#6 v=0
150512 On ch=1 n=c#6 v=52
150632 On ch=1 n=a5 v=56
150647 On ch=1 n=c#6 v=0
150717 On ch=1 n=a5 v=0
150757 On ch=1 n=f#5 v=58
150792 On ch=1 n=f#5 v=0
151192 Par ch=1 c=64 v=88
151197 On ch=1 n=a7 v=85
151202 On ch=1 n=f#7 v=67
151212 Par ch=1 c=64 v=56
151222 On ch=1 n=c#6 v=44
151222 Par ch=1 c=64 v=0
151237 On ch=1 n=a5 v=42
151242 On ch=1 n=g6 v=29
151302 Par ch=1 c=64 v=56
151307 On ch=1 n=f#7 v=0
151317 Par ch=1 c=64 v=104
151332 Par ch=1 c=64 v=127
151367 On ch=1 n=e7 v=78
151397 On ch=1 n=c#6 v=0
151447 On ch=1 n=a5 v=0
151452 On ch=1 n=a7 v=0
151467 On ch=1 n=e7 v=0
151472 On ch=1 n=g6 v=0
151492 On ch=1 n=a6 v=68
151582 On ch=1 n=a6 v=0
151627 On ch=1 n=f#6 v=54
151632 On ch=1 n=a7 v=80
151632 On ch=1 n=e7 v=78
151632 Par ch=1 c=64 v=104
151647 Par ch=1 c=64 v=56
151662 Par ch=1 c=64 v=0
151667 On ch=1 n=d6 v=34
151692 Par ch=1 c=64 v=24
151707 Par ch=1 c=64 v=56
151722 Par ch=1 c=64 v=88
151727 On ch=1 n=d6 v=0
151732 On ch=1 n=f#6 v=0
151737 Par ch=1 c=64 v=127
151742 On ch=1 n=e7 v=0
151782 On ch=1 n=a7 v=0
151782 On ch=1 n=d7 v=74
151882 On ch=1 n=d7 v=0
151907 On ch=1 n=a6 v=70
151992 On ch=1 n=a6 v=0
152032 On ch=1 n=d7 v=80
152037 On ch=1 n=a7 v=79
152037 Par ch=1 c=64 v=88
152052 Par ch=1 c=64 v=24
152062 On ch=1 n=e6 v=43
152062 On ch=1 n=g6 v=38
152067 Par ch=1 c=64 v=0
152072 On ch=1 n=a5 v=38
152112 Par ch=1 c=64 v=56
152127 Par ch=1 c=64 v=88
152137 On ch=1 n=d7 v=0
152142 Par ch=1 c=64 v=127
152187 On ch=1 n=e6 v=0
152187 On ch=1 n=c#7 v=71
152212 On ch=1 n=a7 v=0
152282 On ch=1 n=a5 v=0
152282 On ch=1 n=g6 v=0
152292 On ch=1 n=c#7 v=0
152327 On ch=1 n=a6 v=65
152412 On ch=1 n=a6 v=0
152427 Par ch=1 c=64 v=88
152437 Par ch=1 c=64 v=40
152447 On ch=1 n=a7 v=82
152452 On ch=1 n=e7 v=75
152457 On ch=1 n=f#6 v=57
152457 Par ch=1 c=64 v=0
152477 On ch=1 n=d6 v=45
152502 Par ch=1 c=64 v=56
152517 Par ch=1 c=64 v=88
152532 Par ch=1 c=64 v=127
152537 On ch=1 n=d6 v=0
152552 On ch=1 n=e7 v=0
152557 On ch=1 n=a7 v=0
152572 On ch=1 n=f#6 v=0
152597 On ch=1 n=d7 v=66
152697 On ch=1 n=d7 v=0
152727 On ch=1 n=a6 v=69
152807 On ch=1 n=a6 v=0
152847 Par ch=1 c=64 v=72
152852 On ch=1 n=d7 v=79
152857 On ch=1 n=a7 v=76
152862 Par ch=1 c=64 v=24
152877 Par ch=1 c=64 v=0
152882 On ch=1 n=g6 v=29
152882 On ch=1 n=a5 v=42
152892 On ch=1 n=e6 v=40
152922 Par ch=1 c=64 v=40
152937 Par ch=1 c=64 v=72
152952 Par ch=1 c=64 v=127
152967 On ch=1 n=d7 v=0
152987 On ch=1 n=a7 v=0
153002 On ch=1 n=c#7 v=69
153032 On ch=1 n=a5 v=0
153042 On ch=1 n=e6 v=0
153057 On ch=1 n=g6 v=0
153102 On ch=1 n=c#7 v=0
153132 On ch=1 n=a6 v=68
153227 On ch=1 n=a6 v=0
153252 Par ch=1 c=64 v=72
153267 Par ch=1 c=64 v=24
153282 On ch=1 n=a7 v=76
153282 Par ch=1 c=64 v=0
153287 On ch=1 n=e7 v=67
153287 On ch=1 n=f#6 v=43
153312 On ch=1 n=d6 v=41
153327 Par ch=1 c=64 v=40
153342 Par ch=1 c=64 v=88
153357 Par ch=1 c=64 v=127
153377 On ch=1 n=e7 v=0
153382 On ch=1 n=d6 v=0
153412 On ch=1 n=d7 v=72
153422 On ch=1 n=f#6 v=0
153537 On ch=1 n=d7 v=0
153547 On ch=1 n=a6 v=68
153562 On ch=1 n=a7 v=0
153617 On ch=1 n=a6 v=0
153692 On ch=1 n=f#6 v=53
153787 On ch=1 n=f#6 v=0
153797 On ch=1 n=d6 v=49
153877 On ch=1 n=d6 v=0
153892 On ch=1 n=a5 v=58
153987 On ch=1 n=f#5 v=51
154007 On ch=1 n=a5 v=0
154062 On ch=1 n=f#5 v=0
154122 On ch=1 n=d5 v=55
154157 On ch=1 n=d5 v=0
154532 On ch=1 n=d5 v=60
154707 On ch=1 n=d5 v=0
154732 On ch=1 n=f#5 v=55
154967 On ch=1 n=b4 v=58
155002 On ch=1 n=f#5 v=0
155052 Par ch=1 c=64 v=24
155067 Par ch=1 c=64 v=72
155082 Par ch=1 c=64 v=127
155102 On ch=1 n=b4 v=0
155377 On ch=1 n=d6 v=72
155387 On ch=1 n=f#4 v=39
155392 On ch=1 n=b3 v=51
155392 On ch=1 n=f#5 v=39
155432 On ch=1 n=f#5 v=0
155487 On ch=1 n=f#4 v=0
155492 On ch=1 n=f#6 v=64
155502 On ch=1 n=d6 v=0
155512 On ch=1 n=b3 v=0
155582 On ch=1 n=b5 v=59
155607 On ch=1 n=b5 v=0
155637 On ch=1 n=f#6 v=0
155817 On ch=1 n=f#4 v=45
155822 On ch=1 n=f#6 v=54
155827 On ch=1 n=d7 v=78
155842 On ch=1 n=b3 v=53
155892 On ch=1 n=f#6 v=0
155902 On ch=1 n=f#4 v=0
155907 On ch=1 n=b3 v=0
155917 On ch=1 n=d7 v=0
155922 On ch=1 n=f#7 v=69
156017 On ch=1 n=b6 v=72
156027 On ch=1 n=f#7 v=0
156047 On ch=1 n=b6 v=0
156282 On ch=1 n=d5 v=62
156417 On ch=1 n=d5 v=0
156497 On ch=1 n=f#5 v=57
156722 On ch=1 n=f#5 v=0
156722 On ch=1 n=b4 v=64
156857 On ch=1 n=b4 v=0
157032 Par ch=1 c=64 v=56
157047 Par ch=1 c=64 v=0
157105 On ch=1 n=d7 v=82
157120 On ch=1 n=f#6 v=53
157125 On ch=1 n=f#4 v=46
157125 On ch=1 n=b3 v=45
157170 Par ch=1 c=64 v=40
157185 Par ch=1 c=64 v=88
157190 On ch=1 n=f#6 v=0
157200 Par ch=1 c=64 v=127
157230 On ch=1 n=f#7 v=73
157245 On ch=1 n=f#4 v=0
157245 On ch=1 n=d7 v=0
157265 On ch=1 n=b3 v=0
157345 On ch=1 n=f#7 v=0
157355 On ch=1 n=b6 v=60
157455 On ch=1 n=b6 v=0
157525 On ch=1 n=f#4 v=46
157535 On ch=1 n=f#7 v=53
157540 On ch=1 n=d8 v=80
157540 On ch=1 n=b3 v=48
157610 On ch=1 n=b3 v=0
157620 On ch=1 n=f#4 v=0
157635 On ch=1 n=f#8 v=79
157650 On ch=1 n=d8 v=0
157725 On ch=1 n=f#7 v=0
157730 On ch=1 n=b7 v=67
157750 On ch=1 n=f#8 v=0
157760 On ch=1 n=b7 v=0
157960 On ch=1 n=b7 v=83
157965 On ch=1 n=b6 v=73
157985 On ch=1 n=d7 v=27
157990 On ch=1 n=b6 v=0
158010 On ch=1 n=d7 v=0
158025 On ch=1 n=b7 v=0
158170 On ch=1 n=d8 v=83
158170 On ch=1 n=d7 v=74
158180 On ch=1 n=f#7 v=55
158195 On ch=1 n=d8 v=0
158200 On ch=1 n=f#7 v=0
158210 On ch=1 n=d7 v=0
158340 Par ch=1 c=64 v=40
158355 Par ch=1 c=64 v=0
158375 On ch=1 n=c#8 v=80
158390 On ch=1 n=e7 v=66
158390 On ch=1 n=c#7 v=60
158405 On ch=1 n=e3 v=55
158405 On ch=1 n=e4 v=48
158430 Par ch=1 c=64 v=24
158435 On ch=1 n=e7 v=0
158445 On ch=1 n=e3 v=0
158445 Par ch=1 c=64 v=88
158460 Par ch=1 c=64 v=127
158465 On ch=1 n=c#7 v=0
158475 On ch=1 n=e4 v=0
158475 On ch=1 n=c#8 v=0
158575 On ch=1 n=b7 v=81
158580 On ch=1 n=d7 v=68
158585 On ch=1 n=b6 v=51
158625 On ch=1 n=b6 v=0
158635 On ch=1 n=d7 v=0
158635 On ch=1 n=b7 v=0
158780 On ch=1 n=c#7 v=71
158780 On ch=1 n=a7 v=80
158785 On ch=1 n=e5 v=54
158790 On ch=1 n=a6 v=38
158805 On ch=1 n=c#5 v=26
158820 On ch=1 n=a6 v=0
158820 On ch=1 n=e5 v=0
158830 On ch=1 n=c#5 v=0
158835 On ch=1 n=c#7 v=0
158850 On ch=1 n=a7 v=0
158960 On ch=1 n=c#8 v=82
158965 On ch=1 n=c#7 v=70
158975 On ch=1 n=e7 v=65
159000 On ch=1 n=e7 v=0
159015 On ch=1 n=c#7 v=0
159050 On ch=1 n=c#8 v=0
159120 Par ch=1 c=64 v=104
159135 Par ch=1 c=64 v=56
159150 Par ch=1 c=64 v=0
159170 On ch=1 n=b7 v=86
159170 On ch=1 n=d7 v=75
159175 On ch=1 n=b6 v=72
159185 On ch=1 n=e4 v=55
159215 On ch=1 n=d7 v=0
159220 On ch=1 n=e4 v=0
159220 On ch=1 n=b6 v=0
159225 On ch=1 n=b7 v=0
159240 Par ch=1 c=64 v=40
159255 Par ch=1 c=64 v=88
159270 Par ch=1 c=64 v=127
159370 On ch=1 n=a6 v=66
159370 On ch=1 n=a7 v=83
159380 On ch=1 n=c#7 v=62
159420 On ch=1 n=a6 v=0
159430 On ch=1 n=a7 v=0
159440 On ch=1 n=c#7 v=0
159495 Par ch=1 c=64 v=72
159510 Par ch=1 c=64 v=40
159525 Par ch=1 c=64 v=24
159565 On ch=1 n=g#7 v=74
159565 On ch=1 n=g#6 v=58
159570 Par ch=1 c=64 v=56
159575 On ch=1 n=b6 v=66
159585 On ch=1 n=b4 v=45
159585 On ch=1 n=g#5 v=38
159585 Par ch=1 c=64 v=88
159595 On ch=1 n=e5 v=36
159600 Par ch=1 c=64 v=127
159605 On ch=1 n=b6 v=0
159615 On ch=1 n=g#6 v=0
159640 On ch=1 n=e5 v=0
159650 On ch=1 n=g#7 v=0
159655 On ch=1 n=g#5 v=0
159655 On ch=1 n=b4 v=0
159770 On ch=1 n=b7 v=86
159775 On ch=1 n=d7 v=68
159775 On ch=1 n=b6 v=60
159805 On ch=1 n=d7 v=0
159810 On ch=1 n=b6 v=0
159825 On ch=1 n=b7 v=0
159930 Par ch=1 c=64 v=88
159945 Par ch=1 c=64 v=56
159960 Par ch=1 c=64 v=0
159980 On ch=1 n=c#7 v=69
159985 On ch=1 n=a7 v=82
159990 On ch=1 n=a6 v=59
159995 On ch=1 n=e5 v=47
160005 On ch=1 n=a4 v=34
160010 On ch=1 n=a6 v=0
160010 On ch=1 n=a5 v=31
160010 On ch=1 n=c#5 v=31
160035 Par ch=1 c=64 v=24
160040 On ch=1 n=c#7 v=0
160045 On ch=1 n=a7 v=0
160045 Par ch=1 c=64 v=72
160060 On ch=1 n=c#5 v=0
160065 Par ch=1 c=64 v=104
160075 On ch=1 n=e5 v=0
160080 Par ch=1 c=64 v=127
160085 On ch=1 n=a5 v=0
160085 On ch=1 n=a4 v=0
160180 On ch=1 n=c#7 v=62
160180 On ch=1 n=c#8 v=80
160195 On ch=1 n=e7 v=48
160220 On ch=1 n=c#7 v=0
160225 On ch=1 n=e7 v=0
160250 On ch=1 n=c#8 v=0
160320 Par ch=1 c=64 v=72
160335 Par ch=1 c=64 v=40
160350 Par ch=1 c=64 v=0
160370 On ch=1 n=g#7 v=73
160370 On ch=1 n=g#6 v=61
160380 On ch=1 n=b6 v=71
160390 On ch=1 n=g#5 v=36
160395 On ch=1 n=e5 v=51
160395 Par ch=1 c=64 v=40
160410 On ch=1 n=b6 v=0
160410 On ch=1 n=g#6 v=0
160410 Par ch=1 c=64 v=56
160425 Par ch=1 c=64 v=88
160440 On ch=1 n=e5 v=0
160440 Par ch=1 c=64 v=127
160450 On ch=1 n=g#7 v=0
160465 On ch=1 n=g#5 v=0
160580 On ch=1 n=b7 v=87
160590 On ch=1 n=d7 v=56
160590 On ch=1 n=b6 v=51
160605 On ch=1 n=b7 v=0
160620 On ch=1 n=d7 v=0
160625 On ch=1 n=b6 v=0
160740 Par ch=1 c=64 v=104
160755 Par ch=1 c=64 v=56
160770 Par ch=1 c=64 v=0
160790 On ch=1 n=a7 v=82
160790 On ch=1 n=c#7 v=60
160800 On ch=1 n=a6 v=57
160825 On ch=1 n=a4 v=43
160825 On ch=1 n=a5 v=34
160825 On ch=1 n=c#5 v=33
160830 On ch=1 n=e5 v=42
160860 On ch=1 n=a7 v=0
160860 Par ch=1 c=64 v=56
160870 On ch=1 n=a6 v=0
160875 Par ch=1 c=64 v=127
160880 On ch=1 n=c#7 v=0
160895 On ch=1 n=a5 v=0
160910 On ch=1 n=e5 v=0
160910 On ch=1 n=c#5 v=0
160910 On ch=1 n=a4 v=0
161210 On ch=1 n=a5 v=87
161220 On ch=1 n=a4 v=72
161230 Par ch=1 c=64 v=56
161235 On ch=1 n=a3 v=73
161245 On ch=1 n=a2 v=46
161245 Par ch=1 c=64 v=88
161260 Par ch=1 c=64 v=127
161270 On ch=1 n=a3 v=0
161285 On ch=1 n=a2 v=0
161290 On ch=1 n=a4 v=0
161310 On ch=1 n=a5 v=0
161590 Par ch=1 c=64 v=104
161605 Par ch=1 c=64 v=40
161620 Par ch=1 c=64 v=0
161630 On ch=1 n=g#5 v=81
161640 On ch=1 n=g#4 v=80
161645 On ch=1 n=g#2 v=61
161645 On ch=1 n=g#3 v=71
161695 Par ch=1 c=64 v=40
161710 Par ch=1 c=64 v=88
161720 On ch=1 n=g#3 v=0
161730 On ch=1 n=g#2 v=0
161730 On ch=1 n=g#4 v=0
161730 Par ch=1 c=64 v=127
161745 On ch=1 n=g#5 v=0
162030 Par ch=1 c=64 v=72
162045 Par ch=1 c=64 v=0
162055 On ch=1 n=f5 v=84
162065 On ch=1 n=f4 v=82
162065 On ch=1 n=f3 v=71
162070 On ch=1 n=f2 v=62
162105 Par ch=1 c=64 v=40
162120 Par ch=1 c=64 v=104
162135 On ch=1 n=f3 v=0
162140 On ch=1 n=f2 v=0
162140 Par ch=1 c=64 v=127
162150 On ch=1 n=f4 v=0
162160 On ch=1 n=f5 v=0
162455 On ch=1 n=e5 v=90
162465 On ch=1 n=e4 v=82
162465 Par ch=1 c=64 v=88
162475 On ch=1 n=e3 v=70
162475 On ch=1 n=e2 v=66
162480 Par ch=1 c=64 v=40
162500 Par ch=1 c=64 v=24
162515 Par ch=1 c=64 v=40
162525 Par ch=1 c=64 v=72
162540 On ch=1 n=e3 v=0
162545 On ch=1 n=e2 v=0
162545 Par ch=1 c=64 v=104
162560 On ch=1 n=e4 v=0
162560 Par ch=1 c=64 v=127
162575 On ch=1 n=e5 v=0
162860 Par ch=1 c=64 v=40
162865 On ch=1 n=d5 v=86
162870 On ch=1 n=d4 v=87
162875 Par ch=1 c=64 v=0
162880 On ch=1 n=d3 v=80
162885 On ch=1 n=d2 v=75
162920 Par ch=1 c=64 v=24
162925 On ch=1 n=d2 v=0
162935 On ch=1 n=d3 v=0
162935 Par ch=1 c=64 v=72
162950 On ch=1 n=d4 v=0
162950 On ch=1 n=d5 v=0
162955 Par ch=1 c=64 v=127
163310 On ch=1 n=c#5 v=92
163315 On ch=1 n=c#4 v=89
163330 On ch=1 n=c#3 v=78
163335 On ch=1 n=c#2 v=74
163405 Par ch=1 c=64 v=104
163420 Par ch=1 c=64 v=40
163440 Par ch=1 c=64 v=0
163545 Par ch=1 c=64 v=104
163560 Par ch=1 c=64 v=127
163700 On ch=1 n=c#4 v=0
163710 On ch=1 n=c#2 v=0
163725 On ch=1 n=c#3 v=0
163750 On ch=1 n=c#5 v=0
163975 On ch=1 n=d5 v=89
163980 On ch=1 n=d4 v=83
163990 On ch=1 n=d3 v=70
163990 On ch=1 n=d2 v=63
164045 On ch=1 n=d2 v=0
164045 On ch=1 n=d4 v=0
164050 On ch=1 n=d3 v=0
164065 On ch=1 n=d5 v=0
164125 Par ch=1 c=64 v=104
164140 Par ch=1 c=64 v=88
164155 Par ch=1 c=64 v=56
164175 Par ch=1 c=64 v=0
164190 On ch=1 n=e4 v=84
164190 On ch=1 n=e5 v=96
164200 On ch=1 n=e3 v=70
164200 On ch=1 n=e2 v=67
164285 Par ch=1 c=64 v=24
164295 Par ch=1 c=64 v=104
164300 On ch=1 n=e2 v=0
164310 Par ch=1 c=64 v=127
164315 On ch=1 n=e3 v=0
164335 On ch=1 n=e4 v=0
164415 On ch=1 n=e5 v=0
164805 On ch=1 n=a5 v=90
164810 On ch=1 n=a4 v=82
164815 On ch=1 n=a3 v=80
164830 On ch=1 n=a2 v=60
164840 On ch=1 n=a3 v=0
164865 On ch=1 n=a4 v=0
164875 On ch=1 n=a2 v=0
164875 On ch=1 n=a5 v=0
164925 Par ch=1 c=64 v=88
164940 Par ch=1 c=64 v=56
164955 Par ch=1 c=64 v=0
165015 On ch=1 n=e4 v=88
165015 On ch=1 n=e5 v=93
165025 On ch=1 n=e2 v=64
165030 On ch=1 n=e3 v=56
165045 Par ch=1 c=64 v=40
165065 Par ch=1 c=64 v=127
165095 On ch=1 n=e4 v=0
165105 On ch=1 n=e3 v=0
165105 On ch=1 n=e2 v=0
165145 On ch=1 n=e5 v=0
165520 Par ch=1 c=64 v=88
165535 Par ch=1 c=64 v=56
165550 Par ch=1 c=64 v=0
165640 On ch=1 n=a5 v=92
165645 Par ch=1 c=64 v=24
165650 On ch=1 n=a4 v=82
165655 On ch=1 n=a3 v=74
165660 On ch=1 n=a2 v=66
165660 Par ch=1 c=64 v=88
165675 Par ch=1 c=64 v=127
165695 On ch=1 n=a3 v=0
165710 On ch=1 n=a4 v=0
165715 On ch=1 n=a5 v=0
165720 On ch=1 n=a2 v=0
165815 Par ch=1 c=64 v=104
165830 Par ch=1 c=64 v=72
165850 Par ch=1 c=64 v=56
165860 On ch=1 n=e5 v=93
165865 On ch=1 n=e4 v=87
165865 Par ch=1 c=64 v=72
165875 On ch=1 n=e3 v=70
165875 On ch=1 n=e2 v=70
165880 Par ch=1 c=64 v=127
165920 On ch=1 n=e4 v=0
165940 On ch=1 n=e2 v=0
165940 On ch=1 n=e3 v=0
165950 On ch=1 n=e5 v=0
166472 Par ch=1 c=64 v=104
166487 Par ch=1 c=64 v=88
166502 On ch=1 n=a5 v=86
166512 On ch=1 n=a4 v=75
166522 On ch=1 n=a3 v=77
166532 On ch=1 n=a2 v=61
166552 On ch=1 n=a3 v=0
166562 Par ch=1 c=64 v=72
166572 On ch=1 n=a2 v=0
166577 On ch=1 n=a4 v=0
166577 On ch=1 n=a5 v=0
166582 Par ch=1 c=64 v=40
166597 Par ch=1 c=64 v=24
166612 Par ch=1 c=64 v=0
166687 Par ch=1 c=64 v=40
166702 On ch=1 n=e5 v=92
166707 Par ch=1 c=64 v=88
166712 On ch=1 n=e4 v=61
166722 On ch=1 n=e3 v=70
166722 Par ch=1 c=64 v=127
166732 On ch=1 n=e2 v=61
166757 On ch=1 n=e4 v=0
166772 On ch=1 n=e2 v=0
166777 On ch=1 n=e3 v=0
166777 On ch=1 n=e5 v=0
166907 On ch=1 n=c#5 v=78
166907 On ch=1 n=c#4 v=87
166907 On ch=1 n=c#3 v=73
166957 On ch=1 n=c#4 v=0
166967 On ch=1 n=c#5 v=0
167007 On ch=1 n=c#3 v=0
167032 Par ch=1 c=64 v=104
167052 Par ch=1 c=64 v=88
167067 Par ch=1 c=64 v=56
167082 Par ch=1 c=64 v=40
167097 On ch=1 n=a4 v=86
167102 On ch=1 n=a3 v=84
167117 On ch=1 n=a2 v=64
167117 Par ch=1 c=64 v=24
167132 Par ch=1 c=64 v=0
167157 On ch=1 n=a3 v=0
167157 On ch=1 n=a4 v=0
167197 On ch=1 n=a2 v=0
167302 On ch=1 n=c#4 v=81
167302 On ch=1 n=c#5 v=83
167312 On ch=1 n=c#3 v=67
167367 On ch=1 n=c#4 v=0
167412 On ch=1 n=c#3 v=0
167412 On ch=1 n=c#5 v=0
167477 Par ch=1 c=64 v=24
167492 Par ch=1 c=64 v=40
167497 On ch=1 n=e5 v=92
167502 On ch=1 n=e4 v=82
167507 On ch=1 n=e3 v=64
167507 Par ch=1 c=64 v=72
167522 Par ch=1 c=64 v=88
167567 On ch=1 n=e4 v=0
167582 On ch=1 n=e5 v=0
167597 On ch=1 n=e3 v=0
167692 Par ch=1 c=64 v=104
167702 On ch=1 n=c#3 v=64
167707 On ch=1 n=c#4 v=86
167707 On ch=1 n=c#5 v=83
167737 Par ch=1 c=64 v=127
167777 On ch=1 n=c#4 v=0
167832 On ch=1 n=c#3 v=0
167837 Par ch=1 c=64 v=104
167852 On ch=1 n=c#5 v=0
167897 Par ch=1 c=64 v=127
167917 On ch=1 n=e5 v=92
167917 On ch=1 n=e4 v=83
167917 On ch=1 n=a2 v=50
167957 On ch=1 n=a2 v=0
167977 On ch=1 n=e4 v=0
167997 On ch=1 n=e5 v=0
168122 On ch=1 n=a5 v=98
168122 On ch=1 n=a2 v=54
168122 On ch=1 n=a4 v=83
168122 On ch=1 n=a3 v=82
168157 On ch=1 n=a2 v=0
168172 On ch=1 n=a3 v=0
168182 On ch=1 n=a4 v=0
168192 On ch=1 n=a5 v=0
168332 Par ch=1 c=64 v=104
168352 Par ch=1 c=64 v=88
168362 On ch=1 n=e3 v=74
168367 On ch=1 n=e5 v=92
168367 Par ch=1 c=64 v=56
168372 On ch=1 n=e4 v=80
168377 On ch=1 n=e2 v=73
168382 Par ch=1 c=64 v=0
168557 Par ch=1 c=64 v=24
168572 Par ch=1 c=64 v=40
168632 Par ch=1 c=64 v=72
168647 Par ch=1 c=64 v=104
168662 Par ch=1 c=64 v=127
168762 On ch=1 n=e2 v=0
168782 On ch=1 n=e3 v=0
168797 On ch=1 n=e4 v=0
168852 On ch=1 n=e5 v=0
169147 Par ch=1 c=64 v=72
169162 Par ch=1 c=64 v=0
169192 On ch=1 n=a5 v=89
169197 On ch=1 n=a4 v=81
169212 On ch=1 n=a3 v=77
169212 On ch=1 n=a2 v=64
169227 Par ch=1 c=64 v=24
169242 Par ch=1 c=64 v=56
169257 On ch=1 n=a4 v=0
169257 Par ch=1 c=64 v=104
169272 On ch=1 n=a2 v=0
169272 Par ch=1 c=64 v=127
169277 On ch=1 n=a3 v=0
169302 On ch=1 n=a5 v=0
169462 Par ch=1 c=64 v=88
169477 Par ch=1 c=64 v=56
169492 Par ch=1 c=64 v=24
169507 Par ch=1 c=64 v=0
169542 On ch=1 n=f3 v=60
169567 On ch=1 n=c4 v=80
169612 On ch=1 n=f3 v=0
169617 Par ch=1 c=64 v=56
169627 On ch=1 n=a6 v=90
169632 On ch=1 n=a5 v=74
169637 On ch=1 n=c4 v=0
169637 On ch=1 n=c6 v=78
169637 Par ch=1 c=64 v=104
169647 Par ch=1 c=64 v=127
169657 On ch=1 n=a4 v=66
169682 On ch=1 n=c6 v=0
169692 On ch=1 n=a5 v=0
169702 On ch=1 n=a4 v=0
169712 On ch=1 n=a6 v=0
169917 On ch=1 n=e3 v=62
169932 Par ch=1 c=64 v=104
169947 Par ch=1 c=64 v=40
169962 On ch=1 n=c4 v=69
169962 Par ch=1 c=64 v=0
169987 On ch=1 n=e3 v=0
170032 On ch=1 n=g4 v=69
170037 On ch=1 n=c4 v=0
170037 On ch=1 n=g6 v=82
170042 Par ch=1 c=64 v=56
170052 On ch=1 n=g5 v=69
170057 Par ch=1 c=64 v=127
170062 On ch=1 n=g4 v=0
170062 On ch=1 n=c6 v=66
170097 On ch=1 n=c6 v=0
170127 On ch=1 n=g5 v=0
170157 On ch=1 n=g6 v=0
170212 On ch=1 n=e6 v=90
170312 On ch=1 n=f3 v=63
170322 Par ch=1 c=64 v=72
170327 On ch=1 n=e6 v=0
170337 Par ch=1 c=64 v=0
170352 On ch=1 n=c4 v=63
170382 On ch=1 n=f3 v=0
170387 On ch=1 n=c4 v=0
170407 On ch=1 n=f6 v=90
170417 On ch=1 n=f5 v=70
170417 On ch=1 n=a5 v=74
170432 On ch=1 n=a4 v=51
170432 Par ch=1 c=64 v=72
170447 Par ch=1 c=64 v=127
170467 On ch=1 n=a4 v=0
170482 On ch=1 n=a5 v=0
170492 On ch=1 n=f5 v=0
170522 On ch=1 n=f6 v=0
170587 On ch=1 n=d6 v=86
170667 Par ch=1 c=64 v=88
170677 On ch=1 n=g3 v=63
170682 Par ch=1 c=64 v=24
170692 On ch=1 n=d6 v=0
170697 Par ch=1 c=64 v=0
170712 On ch=1 n=e4 v=62
170737 On ch=1 n=g3 v=0
170762 Par ch=1 c=64 v=24
170777 Par ch=1 c=64 v=72
170787 On ch=1 n=e6 v=88
170792 On ch=1 n=e4 v=0
170792 On ch=1 n=e5 v=71
170792 Par ch=1 c=64 v=127
170797 On ch=1 n=c5 v=66
170797 On ch=1 n=g5 v=72
170842 On ch=1 n=c5 v=0
170867 On ch=1 n=g5 v=0
170877 On ch=1 n=e5 v=0
170902 On ch=1 n=e6 v=0
170977 On ch=1 n=c6 v=85
171057 Par ch=1 c=64 v=104
171072 On ch=1 n=g3 v=64
171077 Par ch=1 c=64 v=40
171087 On ch=1 n=c6 v=0
171087 Par ch=1 c=64 v=0
171112 On ch=1 n=f4 v=60
171137 On ch=1 n=g3 v=0
171172 On ch=1 n=d6 v=84
171172 Par ch=1 c=64 v=40
171187 On ch=1 n=d5 v=62
171187 On ch=1 n=b4 v=59
171187 Par ch=1 c=64 v=88
171192 On ch=1 n=f5 v=63
171197 On ch=1 n=f4 v=0
171202 Par ch=1 c=64 v=127
171222 On ch=1 n=b4 v=0
171242 On ch=1 n=d5 v=0
171262 On ch=1 n=f5 v=0
171272 On ch=1 n=d6 v=0
171342 On ch=1 n=b5 v=83
171442 On ch=1 n=b5 v=0
171497 Par ch=1 c=64 v=72
171507 On ch=1 n=c4 v=63
171512 Par ch=1 c=64 v=0
171527 On ch=1 n=g4 v=59
171562 On ch=1 n=e5 v=69
171562 On ch=1 n=c6 v=79
171572 On ch=1 n=c4 v=0
171582 On ch=1 n=c5 v=66
171607 On ch=1 n=g4 v=0
171622 On ch=1 n=e5 v=0
171622 Par ch=1 c=64 v=24
171637 Par ch=1 c=64 v=72
171642 On ch=1 n=c5 v=0
171652 Par ch=1 c=64 v=127
171657 On ch=1 n=c6 v=0
171672 On ch=1 n=d6 v=78
171767 On ch=1 n=c6 v=85
171797 On ch=1 n=d6 v=0
171872 On ch=1 n=b5 v=80
171877 On ch=1 n=c6 v=0
171937 On ch=1 n=b5 v=0
171952 Par ch=1 c=64 v=104
171967 Par ch=1 c=64 v=40
171982 On ch=1 n=e5 v=56
171982 Par ch=1 c=64 v=0
171992 On ch=1 n=c6 v=86
172047 Par ch=1 c=64 v=40
172062 On ch=1 n=e5 v=0
172062 Par ch=1 c=64 v=88
172072 On ch=1 n=g5 v=55
172077 Par ch=1 c=64 v=127
172087 On ch=1 n=e6 v=77
172097 On ch=1 n=c6 v=0
172152 On ch=1 n=g5 v=0
172187 On ch=1 n=g6 v=76
172187 On ch=1 n=c6 v=51
172202 On ch=1 n=e6 v=0
172252 On ch=1 n=c6 v=0
172272 On ch=1 n=d6 v=62
172272 On ch=1 n=b6 v=78
172287 On ch=1 n=g6 v=0
172327 On ch=1 n=b6 v=0
172377 On ch=1 n=d6 v=0
172377 On ch=1 n=d7 v=74
172377 On ch=1 n=e6 v=63
172377 Par ch=1 c=64 v=72
172392 Par ch=1 c=64 v=24
172407 Par ch=1 c=64 v=0
172412 On ch=1 n=c7 v=78
172437 On ch=1 n=e6 v=0
172447 On ch=1 n=d7 v=0
172452 Par ch=1 c=64 v=40
172467 Par ch=1 c=64 v=88
172482 Par ch=1 c=64 v=127
172507 On ch=1 n=b6 v=88
172512 On ch=1 n=c7 v=0
172602 On ch=1 n=c7 v=82
172627 On ch=1 n=b6 v=0
172712 On ch=1 n=d7 v=83
172727 On ch=1 n=c7 v=0
172757 On ch=1 n=g4 v=50
172767 Par ch=1 c=64 v=104
172772 On ch=1 n=d7 v=0
172777 On ch=1 n=f5 v=58
172782 Par ch=1 c=64 v=40
172797 Par ch=1 c=64 v=0
172817 On ch=1 n=g4 v=0
172847 On ch=1 n=e7 v=89
172857 On ch=1 n=f6 v=77
172862 On ch=1 n=b5 v=66
172872 On ch=1 n=f5 v=0
172872 Par ch=1 c=64 v=72
172892 Par ch=1 c=64 v=127
172907 On ch=1 n=b5 v=0
173132 On ch=1 n=e7 v=0
173147 On ch=1 n=f6 v=0
173187 On ch=1 n=d7 v=77
173277 On ch=1 n=c7 v=86
173277 On ch=1 n=e6 v=69
173279 Par ch=1 c=64 v=72
173287 On ch=1 n=d7 v=0
173287 On ch=1 n=g5 v=58
173287 On ch=1 n=c6 v=61
173297 On ch=1 n=c5 v=62
173332 On ch=1 n=c5 v=0
173337 Par ch=1 c=64 v=24
173342 On ch=1 n=e6 v=0
173352 On ch=1 n=c6 v=0
173352 On ch=1 n=g5 v=0
173352 Par ch=1 c=64 v=88
173367 Par ch=1 c=64 v=127
173377 On ch=1 n=c7 v=0
173377 On ch=1 n=d7 v=71
173492 On ch=1 n=c7 v=76
173507 On ch=1 n=d7 v=0
173592 On ch=1 n=b6 v=77
173602 On ch=1 n=c7 v=0
173647 On ch=1 n=b6 v=0
173702 On ch=1 n=c7 v=86
173702 On ch=1 n=e6 v=62
173777 On ch=1 n=e6 v=0
173802 On ch=1 n=c7 v=0
173807 On ch=1 n=e7 v=74
173807 On ch=1 n=g6 v=59
173902 On ch=1 n=g7 v=75
173902 On ch=1 n=c7 v=50
173927 On ch=1 n=g6 v=0
173932 On ch=1 n=e7 v=0
173987 On ch=1 n=c7 v=0
174012 On ch=1 n=b7 v=64
174012 On ch=1 n=d7 v=70
174022 On ch=1 n=g7 v=0
174087 On ch=1 n=b7 v=0
174112 On ch=1 n=d7 v=0
174127 On ch=1 n=e7 v=76
174132 On ch=1 n=d8 v=80
174177 On ch=1 n=e7 v=0
174177 On ch=1 n=c8 v=92
174207 On ch=1 n=d8 v=0
174267 On ch=1 n=b7 v=85
174292 On ch=1 n=c8 v=0
174377 On ch=1 n=c8 v=82
174397 On ch=1 n=b7 v=0
174492 On ch=1 n=d8 v=89
174512 On ch=1 n=c8 v=0
174522 Par ch=1 c=64 v=72
174537 On ch=1 n=g5 v=61
174537 Par ch=1 c=64 v=0
174557 On ch=1 n=f6 v=56
174562 On ch=1 n=d8 v=0
174587 On ch=1 n=g5 v=0
174622 On ch=1 n=e8 v=96
174627 On ch=1 n=f7 v=79
174637 Par ch=1 c=64 v=40
174647 On ch=1 n=b6 v=63
174652 Par ch=1 c=64 v=104
174667 Par ch=1 c=64 v=127
174672 On ch=1 n=f6 v=0
174742 On ch=1 n=b6 v=0
174912 On ch=1 n=e8 v=0
174952 On ch=1 n=f7 v=0
174967 On ch=1 n=d8 v=82
175057 Par ch=1 c=64 v=88
175062 On ch=1 n=c8 v=82
175062 Par ch=1 c=64 v=0
175072 Par ch=1 c=64 v=40
175072 On ch=1 n=c7 v=65
175077 On ch=1 n=d8 v=0
175087 On ch=1 n=c6 v=52
175087 On ch=1 n=e6 v=56
175127 Par ch=1 c=64 v=40
175142 Par ch=1 c=64 v=72
175152 On ch=1 n=c7 v=0
175157 On ch=1 n=c8 v=0
175162 On ch=1 n=e7 v=70
175162 Par ch=1 c=64 v=127
175177 On ch=1 n=e6 v=0
175197 On ch=1 n=c6 v=0
175277 On ch=1 n=c8 v=77
175282 On ch=1 n=e7 v=0
175367 On ch=1 n=c8 v=0
175382 On ch=1 n=e8 v=74
175457 Par ch=1 c=64 v=72
175462 On ch=1 n=e8 v=0
175472 Par ch=1 c=64 v=0
175492 On ch=1 n=g8 v=82
175502 On ch=1 n=g5 v=63
175552 Par ch=1 c=64 v=24
175567 On ch=1 n=g5 v=0
175567 Par ch=1 c=64 v=72
175582 On ch=1 n=g8 v=0
175582 Par ch=1 c=64 v=104
175597 Par ch=1 c=64 v=127
175602 On ch=1 n=g7 v=62
175692 On ch=1 n=g7 v=0
175692 Par ch=1 c=64 v=88
175707 Par ch=1 c=64 v=56
175722 Par ch=1 c=64 v=24
175727 On ch=1 n=b7 v=75
175747 On ch=1 n=f6 v=53
175752 On ch=1 n=b6 v=57
175767 Par ch=1 c=64 v=88
175777 On ch=1 n=d6 v=39
175782 Par ch=1 c=64 v=104
175797 On ch=1 n=b6 v=0
175797 Par ch=1 c=64 v=127
175807 On ch=1 n=d6 v=0
175817 On ch=1 n=f6 v=0
175817 On ch=1 n=b7 v=0
175832 On ch=1 n=g7 v=70
175847 Par ch=1 c=64 v=88
175867 Par ch=1 c=64 v=40
175882 Par ch=1 c=64 v=0
175922 On ch=1 n=g7 v=0
175947 On ch=1 n=c8 v=75
175972 On ch=1 n=c6 v=64
175972 Par ch=1 c=64 v=40
175987 Par ch=1 c=64 v=72
176002 Par ch=1 c=64 v=88
176022 Par ch=1 c=64 v=104
176032 On ch=1 n=c6 v=0
176032 On ch=1 n=c8 v=0
176052 On ch=1 n=e7 v=68
176067 Par ch=1 c=64 v=72
176082 Par ch=1 c=64 v=56
176127 Par ch=1 c=64 v=88
176142 Par ch=1 c=64 v=104
176152 On ch=1 n=e7 v=0
176162 Par ch=1 c=64 v=127
176167 On ch=1 n=c8 v=79
176172 On ch=1 n=c7 v=54
176177 On ch=1 n=e6 v=59
176202 On ch=1 n=c7 v=0
176227 On ch=1 n=e6 v=0
176252 On ch=1 n=c8 v=0
176282 On ch=1 n=e8 v=68
176317 Par ch=1 c=64 v=88
176332 Par ch=1 c=64 v=40
176347 Par ch=1 c=64 v=0
176362 On ch=1 n=e8 v=0
176372 On ch=1 n=g8 v=72
176387 On ch=1 n=g5 v=62
176412 Par ch=1 c=64 v=24
176427 Par ch=1 c=64 v=56
176442 Par ch=1 c=64 v=104
176447 On ch=1 n=g5 v=0
176457 On ch=1 n=g8 v=0
176457 Par ch=1 c=64 v=127
176482 On ch=1 n=g7 v=71
176577 On ch=1 n=g7 v=0
176612 On ch=1 n=f6 v=58
176612 On ch=1 n=b7 v=79
176622 On ch=1 n=b6 v=40
176637 On ch=1 n=d6 v=45
176662 On ch=1 n=b6 v=0
176662 On ch=1 n=f6 v=0
176667 On ch=1 n=d6 v=0
176702 On ch=1 n=b7 v=0
176717 On ch=1 n=g7 v=71
176757 Par ch=1 c=64 v=88
176772 Par ch=1 c=64 v=40
176787 Par ch=1 c=64 v=0
176797 On ch=1 n=g7 v=0
176817 On ch=1 n=c8 v=82
176842 On ch=1 n=c6 v=62
176847 Par ch=1 c=64 v=40
176862 Par ch=1 c=64 v=72
176882 Par ch=1 c=64 v=104
176897 Par ch=1 c=64 v=127
176907 On ch=1 n=c8 v=0
176912 On ch=1 n=c6 v=0
176927 On ch=1 n=e7 v=74
177022 On ch=1 n=e7 v=0
177037 On ch=1 n=c7 v=48
177042 On ch=1 n=e6 v=56
177047 On ch=1 n=c8 v=83
177067 On ch=1 n=c7 v=0
177097 On ch=1 n=e6 v=0
177137 On ch=1 n=c8 v=0
177152 On ch=1 n=e8 v=77
177227 Par ch=1 c=64 v=88
177242 Par ch=1 c=64 v=40
177252 On ch=1 n=g8 v=75
177257 Par ch=1 c=64 v=0
177262 On ch=1 n=e8 v=0
177267 On ch=1 n=g5 v=60
177317 On ch=1 n=g5 v=0
177332 On ch=1 n=g8 v=0
177337 Par ch=1 c=64 v=40
177352 Par ch=1 c=64 v=72
177357 On ch=1 n=g7 v=74
177367 Par ch=1 c=64 v=88
177382 Par ch=1 c=64 v=127
177457 On ch=1 n=g7 v=0
177487 On ch=1 n=b7 v=76
177492 Par ch=1 c=64 v=104
177497 On ch=1 n=f6 v=55
177512 On ch=1 n=b6 v=43
177517 On ch=1 n=d6 v=53
177537 Par ch=1 c=64 v=127
177552 On ch=1 n=d6 v=0
177557 On ch=1 n=b6 v=0
177567 On ch=1 n=f6 v=0
177592 On ch=1 n=g7 v=70
177597 On ch=1 n=b7 v=0
177632 Par ch=1 c=64 v=88
177652 Par ch=1 c=64 v=40
177667 Par ch=1 c=64 v=0
177682 On ch=1 n=g7 v=0
177702 On ch=1 n=c8 v=82
177732 On ch=1 n=c6 v=59
177742 Par ch=1 c=64 v=24
177757 Par ch=1 c=64 v=56
177772 Par ch=1 c=64 v=72
177792 On ch=1 n=c8 v=0
177792 Par ch=1 c=64 v=88
177807 Par ch=1 c=64 v=104
177817 On ch=1 n=c6 v=0
177817 On ch=1 n=e7 v=68
177907 On ch=1 n=e7 v=0
177927 On ch=1 n=c8 v=74
177927 On ch=1 n=e6 v=63
177927 On ch=1 n=c7 v=36
177947 Par ch=1 c=64 v=127
177962 On ch=1 n=c7 v=0
177987 On ch=1 n=e6 v=0
178012 On ch=1 n=c8 v=0
178037 On ch=1 n=e8 v=72
178102 Par ch=1 c=64 v=72
178117 Par ch=1 c=64 v=40
178127 On ch=1 n=e8 v=0
178132 Par ch=1 c=64 v=24
178142 On ch=1 n=g8 v=80
178147 On ch=1 n=g5 v=62
178152 Par ch=1 c=64 v=0
178167 Par ch=1 c=64 v=24
178182 Par ch=1 c=64 v=40
178197 Par ch=1 c=64 v=56
178212 Par ch=1 c=64 v=88
178217 On ch=1 n=g5 v=0
178222 On ch=1 n=g8 v=0
178227 Par ch=1 c=64 v=104
178242 Par ch=1 c=64 v=127
178257 On ch=1 n=g7 v=73
178357 On ch=1 n=g7 v=0
178362 On ch=1 n=b7 v=74
178372 On ch=1 n=b6 v=44
178377 On ch=1 n=f6 v=42
178382 On ch=1 n=d6 v=37
178412 On ch=1 n=f6 v=0
178417 On ch=1 n=d6 v=0
178427 On ch=1 n=b6 v=0
178462 On ch=1 n=b7 v=0
178462 On ch=1 n=g7 v=83
178557 Par ch=1 c=64 v=88
178567 On ch=1 n=g7 v=0
178572 Par ch=1 c=64 v=56
178587 Par ch=1 c=64 v=0
178602 On ch=1 n=c6 v=66
178627 On ch=1 n=e6 v=66
178642 On ch=1 n=c8 v=88
178642 On ch=1 n=g6 v=58
178662 On ch=1 n=c6 v=0
178677 On ch=1 n=c7 v=69
178682 Par ch=1 c=64 v=24
178697 On ch=1 n=e6 v=0
178697 Par ch=1 c=64 v=72
178717 On ch=1 n=c7 v=0
178717 On ch=1 n=c8 v=0
178717 Par ch=1 c=64 v=127
178722 On ch=1 n=g6 v=0
179137 On ch=1 n=c6 v=57
179157 On ch=1 n=e5 v=43
179167 Par ch=1 c=64 v=40
179182 Par ch=1 c=64 v=72
179232 On ch=1 n=e5 v=0
179232 On ch=1 n=c6 v=0
179252 On ch=1 n=c#6 v=56
179252 Par ch=1 c=64 v=88
179272 On ch=1 n=f5 v=36
179297 Par ch=1 c=64 v=104
179322 On ch=1 n=f5 v=0
179347 On ch=1 n=c#6 v=0
179362 On ch=1 n=d6 v=68
179367 Par ch=1 c=64 v=127
179372 On ch=1 n=f#5 v=43
179447 On ch=1 n=f#5 v=0
179447 On ch=1 n=d6 v=0
179457 On ch=1 n=d#6 v=74
179512 Par ch=1 c=64 v=88
179522 Par ch=1 c=64 v=40
179527 On ch=1 n=d#6 v=0
179537 Par ch=1 c=64 v=0
179562 On ch=1 n=e6 v=76
179572 On ch=1 n=g#5 v=46
179597 Par ch=1 c=64 v=24
179612 Par ch=1 c=64 v=56
179627 Par ch=1 c=64 v=72
179642 Par ch=1 c=64 v=88
179647 On ch=1 n=e6 v=0
179652 On ch=1 n=g#5 v=0
179652 Par ch=1 c=64 v=104
179677 On ch=1 n=f6 v=77
179687 On ch=1 n=a5 v=56
179762 On ch=1 n=f6 v=0
179772 On ch=1 n=a5 v=0
179782 On ch=1 n=f#6 v=70
179782 On ch=1 n=a#5 v=54
179812 Par ch=1 c=64 v=88
179857 On ch=1 n=a#5 v=0
179862 On ch=1 n=f#6 v=0
179892 On ch=1 n=g6 v=70
179892 On ch=1 n=b5 v=49
179942 Par ch=1 c=64 v=56
179957 On ch=1 n=b5 v=0
179957 Par ch=1 c=64 v=40
179972 Par ch=1 c=64 v=24
179987 Par ch=1 c=64 v=0
179992 On ch=1 n=g6 v=0
180007 On ch=1 n=g#6 v=73
180012 On ch=1 n=c6 v=60
180087 Par ch=1 c=64 v=24
180097 On ch=1 n=g#6 v=0
180102 On ch=1 n=c6 v=0
180102 Par ch=1 c=64 v=40
180117 On ch=1 n=c#6 v=55
180117 Par ch=1 c=64 v=56
180122 On ch=1 n=a6 v=74
180202 On ch=1 n=c#6 v=0
180222 On ch=1 n=a6 v=0
180232 On ch=1 n=a#6 v=69
180247 On ch=1 n=d6 v=56
180307 On ch=1 n=a#6 v=0
180342 On ch=1 n=d6 v=0
180342 On ch=1 n=b6 v=73
180347 On ch=1 n=d#6 v=57
180402 Par ch=1 c=64 v=40
180417 Par ch=1 c=64 v=24
180427 On ch=1 n=b6 v=0
180432 Par ch=1 c=64 v=0
180442 On ch=1 n=d#6 v=0
180457 On ch=1 n=c7 v=81
180477 On ch=1 n=e6 v=60
180532 Par ch=1 c=64 v=24
180547 On ch=1 n=e6 v=0
180547 Par ch=1 c=64 v=56
180557 On ch=1 n=c7 v=0
180557 Par ch=1 c=64 v=72
180572 On ch=1 n=c#7 v=73
180592 On ch=1 n=f6 v=51
180642 On ch=1 n=f6 v=0
180652 On ch=1 n=c#7 v=0
180672 Par ch=1 c=64 v=88
180682 On ch=1 n=d7 v=73
180692 On ch=1 n=f#6 v=50
180777 On ch=1 n=f#6 v=0
180787 On ch=1 n=d7 v=0
180792 On ch=1 n=d#7 v=79
180822 On ch=1 n=g6 v=59
180872 On ch=1 n=d#7 v=0
180897 On ch=1 n=g6 v=0
180907 On ch=1 n=e7 v=77
180927 On ch=1 n=g#6 v=55
180997 On ch=1 n=e7 v=0
181007 On ch=1 n=g#6 v=0
181017 Par ch=1 c=64 v=72
181027 On ch=1 n=f7 v=83
181037 On ch=1 n=a6 v=59
181107 Par ch=1 c=64 v=88
181112 On ch=1 n=f7 v=0
181132 On ch=1 n=a6 v=0
181137 On ch=1 n=a#6 v=57
181137 On ch=1 n=f#7 v=71
181152 Par ch=1 c=64 v=104
181162 Par ch=1 c=64 v=127
181217 On ch=1 n=a#6 v=0
181227 On ch=1 n=f#7 v=0
181247 On ch=1 n=g7 v=75
181252 On ch=1 n=b6 v=57
181332 On ch=1 n=b6 v=0
181362 On ch=1 n=g7 v=0
181362 On ch=1 n=g#7 v=82
181367 On ch=1 n=c7 v=56
181462 On ch=1 n=c#7 v=64
181467 On ch=1 n=c7 v=0
181467 On ch=1 n=g#7 v=0
181472 On ch=1 n=a7 v=84
181547 On ch=1 n=c#7 v=0
181572 On ch=1 n=d7 v=58
181577 On ch=1 n=a7 v=0
181577 On ch=1 n=a#7 v=69
181662 On ch=1 n=d7 v=0
181667 On ch=1 n=a#7 v=0
181672 On ch=1 n=d#7 v=63
181687 On ch=1 n=b7 v=82
181742 On ch=1 n=d#7 v=0
181772 On ch=1 n=b7 v=0
181777 On ch=1 n=c8 v=83
181867 On ch=1 n=c8 v=0
181897 On ch=1 n=c#8 v=88
181897 Par ch=1 c=64 v=72
181912 Par ch=1 c=64 v=24
181927 Par ch=1 c=64 v=0
181997 On ch=1 n=c#8 v=0
181997 Par ch=1 c=64 v=40
182012 Par ch=1 c=64 v=104
182017 On ch=1 n=e8 v=81
182027 Par ch=1 c=64 v=127
182112 On ch=1 n=e8 v=0
182127 On ch=1 n=c#8 v=80
182217 On ch=1 n=c#8 v=0
182222 On ch=1 n=e7 v=76
182277 On ch=1 n=e7 v=0
182347 On ch=1 n=a6 v=74
182402 On ch=1 n=a6 v=0
182457 On ch=1 n=c#7 v=64
182532 On ch=1 n=c#7 v=0
182577 On ch=1 n=a6 v=65
182657 On ch=1 n=a6 v=0
182687 On ch=1 n=c#7 v=64
182767 On ch=1 n=c#7 v=0
182807 On ch=1 n=a6 v=68
182827 On ch=1 n=c#6 v=46
182887 On ch=1 n=a6 v=0
182922 On ch=1 n=c#7 v=65
182977 On ch=1 n=c#6 v=0
183012 On ch=1 n=c#7 v=0
183017 On ch=1 n=e6 v=61
183047 On ch=1 n=a6 v=71
183052 On ch=1 n=e6 v=0
183122 On ch=1 n=a6 v=0
183152 On ch=1 n=c#7 v=58
183252 On ch=1 n=c#7 v=0
183257 On ch=1 n=a5 v=63
183262 On ch=1 n=e5 v=54
183277 On ch=1 n=a6 v=69
183277 Par ch=1 c=64 v=72
183282 On ch=1 n=a4 v=40
183292 Par ch=1 c=64 v=24
183302 Par ch=1 c=64 v=0
183362 Par ch=1 c=64 v=40
183377 Par ch=1 c=64 v=88
183387 Par ch=1 c=64 v=127
183392 On ch=1 n=a6 v=0
183392 On ch=1 n=c#7 v=57
183442 On ch=1 n=c#7 v=0
183492 On ch=1 n=a4 v=0
183502 On ch=1 n=e5 v=0
183502 On ch=1 n=e7 v=72
183537 On ch=1 n=a5 v=0
183562 On ch=1 n=e7 v=0
183617 On ch=1 n=a7 v=75
183697 On ch=1 n=a7 v=0
183732 On ch=1 n=c#8 v=82
183817 On ch=1 n=c#8 v=0
183862 On ch=1 n=e8 v=69
183942 On ch=1 n=c#8 v=73
183977 On ch=1 n=e8 v=0
184052 On ch=1 n=c#8 v=0
184067 On ch=1 n=e7 v=63
184097 On ch=1 n=e7 v=0
184172 On ch=1 n=a6 v=71
184237 On ch=1 n=a6 v=0
184237 Par ch=1 c=64 v=88
184252 Par ch=1 c=64 v=40
184267 Par ch=1 c=64 v=24
184282 Par ch=1 c=64 v=56
184287 On ch=1 n=c#7 v=64
184297 Par ch=1 c=64 v=88
184312 Par ch=1 c=64 v=127
184367 On ch=1 n=c#7 v=0
184402 On ch=1 n=a6 v=65
184477 On ch=1 n=a6 v=0
184512 On ch=1 n=c#7 v=58
184587 On ch=1 n=c#7 v=0
184632 On ch=1 n=a6 v=66
184657 On ch=1 n=c#6 v=46
184707 On ch=1 n=a6 v=0
184732 On ch=1 n=c#7 v=61
184842 On ch=1 n=c#7 v=0
184852 On ch=1 n=c#6 v=0
184857 On ch=1 n=a6 v=74
184872 On ch=1 n=e6 v=62
184897 On ch=1 n=e6 v=0
184952 On ch=1 n=a6 v=0
184962 On ch=1 n=c#7 v=71
185072 On ch=1 n=c#7 v=0
185077 On ch=1 n=a6 v=72
185087 Par ch=1 c=64 v=72
185092 On ch=1 n=a5 v=51
185097 On ch=1 n=e5 v=46
185102 Par ch=1 c=64 v=24
185112 Par ch=1 c=64 v=0
185117 On ch=1 n=a4 v=44
185157 Par ch=1 c=64 v=40
185172 Par ch=1 c=64 v=88
185187 On ch=1 n=c#7 v=64
185187 Par ch=1 c=64 v=127
185192 On ch=1 n=a6 v=0
185237 On ch=1 n=c#7 v=0
185272 On ch=1 n=a4 v=0
185292 On ch=1 n=e5 v=0
185292 On ch=1 n=e7 v=71
185322 On ch=1 n=a5 v=0
185362 On ch=1 n=e7 v=0
185412 On ch=1 n=a7 v=74
185502 On ch=1 n=a7 v=0
185502 Par ch=1 c=64 v=72
185517 Par ch=1 c=64 v=0
185542 On ch=1 n=c#8 v=77
185547 On ch=1 n=c#6 v=46
185587 Par ch=1 c=64 v=40
185602 Par ch=1 c=64 v=72
185617 Par ch=1 c=64 v=104
185622 On ch=1 n=c#8 v=0
185657 On ch=1 n=a7 v=74
185697 On ch=1 n=c#6 v=0
185747 On ch=1 n=a7 v=0
185762 Par ch=1 c=64 v=127
185772 On ch=1 n=g#7 v=77
185777 On ch=1 n=f6 v=59
185787 On ch=1 n=b6 v=44
185807 On ch=1 n=f6 v=0
185822 On ch=1 n=b6 v=0
185862 On ch=1 n=g#7 v=0
185892 On ch=1 n=c#7 v=73
185932 Par ch=1 c=64 v=88
185947 Par ch=1 c=64 v=40
185962 Par ch=1 c=64 v=0
185992 On ch=1 n=c#7 v=0
186002 On ch=1 n=f#6 v=53
186007 On ch=1 n=c#8 v=77
186017 Par ch=1 c=64 v=40
186032 Par ch=1 c=64 v=88
186047 Par ch=1 c=64 v=127
186092 On ch=1 n=c#8 v=0
186107 On ch=1 n=f#6 v=0
186117 On ch=1 n=g#7 v=70
186207 On ch=1 n=g#7 v=0
186232 On ch=1 n=f#7 v=67
186242 On ch=1 n=a6 v=56
186277 On ch=1 n=a6 v=0
186317 On ch=1 n=f#7 v=0
186337 On ch=1 n=c#7 v=72
186377 Par ch=1 c=64 v=104
186392 Par ch=1 c=64 v=56
186407 Par ch=1 c=64 v=0
186432 On ch=1 n=c#7 v=0
186447 On ch=1 n=c#8 v=76
186452 On ch=1 n=c#6 v=59
186477 Par ch=1 c=64 v=40
186497 Par ch=1 c=64 v=88
186507 Par ch=1 c=64 v=127
186517 On ch=1 n=c#6 v=0
186537 On ch=1 n=c#8 v=0
186562 On ch=1 n=f#7 v=64
186682 On ch=1 n=f7 v=67
186687 On ch=1 n=g#6 v=55
186692 On ch=1 n=b6 v=55
186702 On ch=1 n=f#7 v=0
186732 On ch=1 n=b6 v=0
186732 On ch=1 n=g#6 v=0
186762 On ch=1 n=f7 v=0
186787 On ch=1 n=c#7 v=71
186882 Par ch=1 c=64 v=88
186897 On ch=1 n=c#8 v=75
186897 Par ch=1 c=64 v=40
186902 On ch=1 n=c#7 v=0
186902 On ch=1 n=f#6 v=61
186912 Par ch=1 c=64 v=0
186942 Par ch=1 c=64 v=24
186952 Par ch=1 c=64 v=72
186967 Par ch=1 c=64 v=104
186972 On ch=1 n=f#6 v=0
186982 Par ch=1 c=64 v=127
186992 On ch=1 n=c#8 v=0
187022 On ch=1 n=g#7 v=65
187112 On ch=1 n=g#7 v=0
187132 On ch=1 n=a6 v=59
187137 On ch=1 n=f#7 v=61
187202 On ch=1 n=a6 v=0
187227 On ch=1 n=f#7 v=0
187247 On ch=1 n=c#7 v=67
187297 Par ch=1 c=64 v=104
187312 Par ch=1 c=64 v=56
187327 Par ch=1 c=64 v=0
187332 On ch=1 n=c#7 v=0
187337 On ch=1 n=c#6 v=64
187347 On ch=1 n=c#8 v=77
187357 Par ch=1 c=64 v=24
187372 Par ch=1 c=64 v=56
187382 Par ch=1 c=64 v=88
187397 Par ch=1 c=64 v=127
187422 On ch=1 n=c#6 v=0
187442 On ch=1 n=c#8 v=0
187467 On ch=1 n=f#7 v=60
187552 On ch=1 n=b6 v=58
187552 On ch=1 n=g#6 v=51
187567 On ch=1 n=f7 v=70
187582 On ch=1 n=f#7 v=0
187592 On ch=1 n=b6 v=0
187612 On ch=1 n=g#6 v=0
187647 On ch=1 n=f7 v=0
187672 On ch=1 n=c#7 v=74
187727 Par ch=1 c=64 v=104
187742 Par ch=1 c=64 v=56
187757 Par ch=1 c=64 v=0
187772 On ch=1 n=c#7 v=0
187792 On ch=1 n=c#8 v=81
187792 On ch=1 n=a6 v=66
187797 On ch=1 n=f#6 v=53
187817 Par ch=1 c=64 v=24
187832 Par ch=1 c=64 v=88
187847 Par ch=1 c=64 v=127
187862 On ch=1 n=f#6 v=0
187872 On ch=1 n=a6 v=0
187912 On ch=1 n=g#7 v=73
187932 On ch=1 n=c#8 v=0
188017 On ch=1 n=f#7 v=67
188027 On ch=1 n=g#7 v=0
188117 On ch=1 n=c#7 v=73
188122 On ch=1 n=f#7 v=0
188187 On ch=1 n=c#7 v=0
188227 On ch=1 n=a6 v=66
188292 On ch=1 n=a6 v=0
188342 On ch=1 n=f#6 v=67
188412 On ch=1 n=f#6 v=0
188452 On ch=1 n=c#6 v=64
188567 On ch=1 n=c#6 v=0
188577 On ch=1 n=a5 v=62
188647 On ch=1 n=a5 v=0
188697 On ch=1 n=f#5 v=70
188722 Par ch=1 c=64 v=104
188737 Par ch=1 c=64 v=56
188747 Par ch=1 c=64 v=24
188762 On ch=1 n=f#5 v=0
188777 Par ch=1 c=64 v=56
188792 Par ch=1 c=64 v=88
188807 Par ch=1 c=64 v=127
189137 Par ch=1 c=64 v=56
189152 Par ch=1 c=64 v=0
189197 On ch=1 n=f#8 v=85
189222 On ch=1 n=a5 v=56
189227 Par ch=1 c=64 v=40
189237 Par ch=1 c=64 v=127
189292 On ch=1 n=f#8 v=0
189332 On ch=1 n=a7 v=67
189357 On ch=1 n=a5 v=0
189397 On ch=1 n=a7 v=0
189412 On ch=1 n=e7 v=56
189412 On ch=1 n=e6 v=47
189417 On ch=1 n=g6 v=35
189462 On ch=1 n=e6 v=0
189472 On ch=1 n=g6 v=0
189537 On ch=1 n=c#8 v=79
189577 On ch=1 n=e7 v=0
189627 Par ch=1 c=64 v=88
189637 On ch=1 n=c#8 v=0
189642 Par ch=1 c=64 v=24
189657 Par ch=1 c=64 v=0
189662 On ch=1 n=e8 v=84
189677 On ch=1 n=d6 v=47
189697 Par ch=1 c=64 v=24
189712 Par ch=1 c=64 v=88
189727 Par ch=1 c=64 v=127
189747 On ch=1 n=e8 v=0
189772 On ch=1 n=a7 v=73
189822 On ch=1 n=d6 v=0
189852 On ch=1 n=a7 v=0
189882 On ch=1 n=d7 v=64
189902 On ch=1 n=f#6 v=43
189902 On ch=1 n=a6 v=38
189947 On ch=1 n=a6 v=0
189947 On ch=1 n=f#6 v=0
189967 On ch=1 n=d7 v=0
189992 On ch=1 n=d8 v=83
190077 On ch=1 n=d8 v=0
190097 Par ch=1 c=64 v=72
190112 On ch=1 n=a7 v=79
190112 Par ch=1 c=64 v=0
190132 On ch=1 n=a5 v=51
190157 Par ch=1 c=64 v=24
190172 Par ch=1 c=64 v=72
190187 Par ch=1 c=64 v=127
190192 On ch=1 n=a7 v=0
190227 On ch=1 n=c#7 v=71
190272 On ch=1 n=a5 v=0
190297 On ch=1 n=c#7 v=0
190352 On ch=1 n=a7 v=74
190362 On ch=1 n=g6 v=42
190372 On ch=1 n=e6 v=44
190412 On ch=1 n=e6 v=0
190437 On ch=1 n=g6 v=0
190437 On ch=1 n=a7 v=0
190462 On ch=1 n=c#8 v=76
190547 Par ch=1 c=64 v=88
190562 On ch=1 n=c#8 v=0
190562 Par ch=1 c=64 v=24
190577 Par ch=1 c=64 v=0
190587 On ch=1 n=e8 v=83
190612 On ch=1 n=d6 v=53
190617 Par ch=1 c=64 v=40
190632 Par ch=1 c=64 v=88
190647 Par ch=1 c=64 v=127
190672 On ch=1 n=e8 v=0
190717 On ch=1 n=a7 v=80
190762 On ch=1 n=d6 v=0
190812 On ch=1 n=a7 v=0
190817 On ch=1 n=d7 v=67
190822 On ch=1 n=f#6 v=46
190827 On ch=1 n=a6 v=46
190867 On ch=1 n=a6 v=0
190887 On ch=1 n=f#6 v=0
190892 On ch=1 n=d7 v=0
190922 On ch=1 n=d8 v=82
191022 Par ch=1 c=64 v=104
191032 Par ch=1 c=64 v=40
191037 On ch=1 n=d8 v=0
191042 On ch=1 n=a7 v=75
191047 Par ch=1 c=64 v=0
191072 On ch=1 n=a5 v=54
191092 Par ch=1 c=64 v=24
191107 On ch=1 n=a5 v=0
191107 Par ch=1 c=64 v=56
191117 Par ch=1 c=64 v=104
191127 On ch=1 n=a7 v=0
191132 Par ch=1 c=64 v=127
191167 On ch=1 n=c#7 v=51
191227 On ch=1 n=c#7 v=0
191272 On ch=1 n=a7 v=67
191272 On ch=1 n=g6 v=40
191277 On ch=1 n=e6 v=40
191317 On ch=1 n=e6 v=0
191322 On ch=1 n=g6 v=0
191362 On ch=1 n=a7 v=0
191382 On ch=1 n=c#8 v=74
191452 Par ch=1 c=64 v=104
191462 Par ch=1 c=64 v=56
191477 Par ch=1 c=64 v=0
191482 On ch=1 n=c#8 v=0
191512 On ch=1 n=e8 v=82
191512 On ch=1 n=f#6 v=54
191532 On ch=1 n=d6 v=51
191552 Par ch=1 c=64 v=56
191567 Par ch=1 c=64 v=127
191587 On ch=1 n=e8 v=0
191627 On ch=1 n=d8 v=76
191672 On ch=1 n=d6 v=0
191682 On ch=1 n=f#6 v=0
191732 On ch=1 n=d8 v=0
191732 On ch=1 n=a7 v=80
191827 On ch=1 n=a7 v=0
191842 On ch=1 n=d7 v=59
191892 On ch=1 n=d7 v=0
191972 On ch=1 n=a6 v=69
192042 On ch=1 n=a6 v=0
192087 On ch=1 n=f#6 v=61
192157 On ch=1 n=f#6 v=0
192207 On ch=1 n=d6 v=53
192292 On ch=1 n=d6 v=0
192317 On ch=1 n=a5 v=58
192392 On ch=1 n=a5 v=0
192467 On ch=1 n=d5 v=48
192552 On ch=1 n=d5 v=0
192912 Par ch=1 c=64 v=104
192932 Par ch=1 c=64 v=40
192947 On ch=1 n=d8 v=79
192947 Par ch=1 c=64 v=0
193027 Par ch=1 c=64 v=88
193047 On ch=1 n=d8 v=0
193047 Par ch=1 c=64 v=127
193052 On ch=1 n=f#8 v=77
193167 On ch=1 n=d8 v=66
193212 On ch=1 n=f#8 v=0
193252 On ch=1 n=d8 v=0
193267 On ch=1 n=f#7 v=54
193292 On ch=1 n=f#7 v=0
193387 On ch=1 n=b6 v=53
193402 Par ch=1 c=64 v=72
193417 On ch=1 n=b6 v=0
193417 Par ch=1 c=64 v=0
193462 Par ch=1 c=64 v=40
193477 Par ch=1 c=64 v=104
193482 On ch=1 n=d7 v=70
193492 Par ch=1 c=64 v=127
193557 On ch=1 n=d7 v=0
193602 On ch=1 n=b6 v=73
193677 On ch=1 n=b6 v=0
193712 On ch=1 n=d7 v=75
193797 On ch=1 n=d7 v=0
193837 On ch=1 n=b6 v=75
193877 On ch=1 n=d6 v=52
193912 On ch=1 n=b6 v=0
193947 On ch=1 n=d7 v=71
193977 On ch=1 n=d6 v=0
194032 On ch=1 n=d7 v=0
194072 On ch=1 n=b6 v=78
194077 On ch=1 n=f#6 v=58
194112 On ch=1 n=f#6 v=0
194147 On ch=1 n=b6 v=0
194177 On ch=1 n=d7 v=77
194277 On ch=1 n=d7 v=0
194312 On ch=1 n=b6 v=67
194317 On ch=1 n=b5 v=63
194322 On ch=1 n=f#5 v=58
194327 On ch=1 n=b4 v=51
194327 Par ch=1 c=64 v=72
194337 Par ch=1 c=64 v=0
194407 Par ch=1 c=64 v=40
194422 On ch=1 n=d7 v=59
194422 Par ch=1 c=64 v=104
194432 On ch=1 n=b6 v=0
194437 Par ch=1 c=64 v=127
194462 On ch=1 n=d7 v=0
194542 On ch=1 n=f#7 v=63
194607 On ch=1 n=f#7 v=0
194662 On ch=1 n=b7 v=66
194722 On ch=1 n=b7 v=0
194767 Par ch=1 c=64 v=104
194782 Par ch=1 c=64 v=72
194787 On ch=1 n=d8 v=80
194827 Par ch=1 c=64 v=127
194887 On ch=1 n=d8 v=0
194897 On ch=1 n=b4 v=0
194912 On ch=1 n=f#8 v=77
194927 On ch=1 n=f#5 v=0
194932 On ch=1 n=b5 v=0
195002 On ch=1 n=f#8 v=0
195002 On ch=1 n=d8 v=72
195097 On ch=1 n=d8 v=0
195117 On ch=1 n=f#7 v=64
195147 On ch=1 n=f#7 v=0
195232 On ch=1 n=b6 v=78
195287 On ch=1 n=b6 v=0
195337 On ch=1 n=d7 v=70
195402 On ch=1 n=d7 v=0
195457 On ch=1 n=b6 v=72
195527 On ch=1 n=b6 v=0
195562 On ch=1 n=d7 v=71
195642 On ch=1 n=d7 v=0
195682 On ch=1 n=b6 v=74
195687 On ch=1 n=d6 v=53
195762 On ch=1 n=b6 v=0
195797 On ch=1 n=d7 v=70
195822 On ch=1 n=d6 v=0
195892 On ch=1 n=d7 v=0
195907 On ch=1 n=f#6 v=58
195922 On ch=1 n=b6 v=81
195942 On ch=1 n=f#6 v=0
196007 On ch=1 n=b6 v=0
196032 On ch=1 n=d7 v=74
196142 On ch=1 n=d7 v=0
196147 On ch=1 n=b6 v=74
196147 Par ch=1 c=64 v=104
196162 On ch=1 n=b5 v=62
196162 On ch=1 n=f#5 v=48
196162 Par ch=1 c=64 v=56
196167 On ch=1 n=b4 v=51
196177 Par ch=1 c=64 v=0
196232 Par ch=1 c=64 v=40
196247 Par ch=1 c=64 v=104
196257 On ch=1 n=d7 v=70
196262 Par ch=1 c=64 v=127
196277 On ch=1 n=b6 v=0
196307 On ch=1 n=d7 v=0
196372 On ch=1 n=b4 v=0
196372 On ch=1 n=f#7 v=71
196407 On ch=1 n=f#5 v=0
196432 On ch=1 n=b5 v=0
196437 On ch=1 n=f#7 v=0
196482 On ch=1 n=b7 v=85
196582 On ch=1 n=b7 v=0
196592 Par ch=1 c=64 v=104
196607 Par ch=1 c=64 v=56
196622 On ch=1 n=d8 v=92
196622 Par ch=1 c=64 v=0
196662 On ch=1 n=d7 v=66
196667 On ch=1 n=f#6 v=57
196697 Par ch=1 c=64 v=40
196707 Par ch=1 c=64 v=104
196717 On ch=1 n=d8 v=0
196722 Par ch=1 c=64 v=127
196742 On ch=1 n=f#7 v=73
196757 On ch=1 n=f#6 v=0
196782 On ch=1 n=d7 v=0
196847 On ch=1 n=f#7 v=0
196862 On ch=1 n=b7 v=80
196957 On ch=1 n=b7 v=0
196977 On ch=1 n=d8 v=77
197052 Par ch=1 c=64 v=104
197062 On ch=1 n=d8 v=0
197067 Par ch=1 c=64 v=56
197082 On ch=1 n=c#7 v=64
197082 Par ch=1 c=64 v=24
197097 On ch=1 n=c#8 v=78
197097 Par ch=1 c=64 v=0
197102 On ch=1 n=e6 v=59
197127 On ch=1 n=e6 v=0
197132 On ch=1 n=c#7 v=0
197182 On ch=1 n=c#8 v=0
197207 On ch=1 n=e7 v=66
197312 On ch=1 n=e7 v=0
197327 On ch=1 n=b7 v=83
197342 On ch=1 n=b6 v=72
197347 On ch=1 n=d6 v=65
197377 On ch=1 n=d6 v=0
197397 On ch=1 n=b6 v=0
197417 On ch=1 n=b7 v=0
197437 On ch=1 n=e8 v=76
197537 On ch=1 n=e8 v=0
197562 On ch=1 n=a7 v=81
197587 On ch=1 n=a6 v=64
197592 On ch=1 n=c#6 v=64
197597 Par ch=1 c=64 v=72
197612 Par ch=1 c=64 v=127
197657 On ch=1 n=a7 v=0
197682 On ch=1 n=e7 v=63
197807 On ch=1 n=a7 v=69
197882 On ch=1 n=a7 v=0
197897 On ch=1 n=a6 v=0
197917 On ch=1 n=e8 v=70
197927 On ch=1 n=c#6 v=0
197972 On ch=1 n=e7 v=0
198002 On ch=1 n=e8 v=0
198002 Par ch=1 c=64 v=88
198017 Par ch=1 c=64 v=56
198032 Par ch=1 c=64 v=0
198037 On ch=1 n=b7 v=75
198042 On ch=1 n=b6 v=59
198047 On ch=1 n=d6 v=60
198097 On ch=1 n=d6 v=0
198097 On ch=1 n=b6 v=0
198122 On ch=1 n=b7 v=0
198147 On ch=1 n=e7 v=66
198272 On ch=1 n=a7 v=79
198272 On ch=1 n=c#6 v=62
198272 On ch=1 n=a6 v=59
198332 On ch=1 n=a6 v=0
198337 On ch=1 n=c#6 v=0
198362 On ch=1 n=a7 v=0
198397 On ch=1 n=e8 v=72
198422 On ch=1 n=e7 v=0
198492 On ch=1 n=e8 v=0
198517 Par ch=1 c=64 v=40
198522 On ch=1 n=g#7 v=78
198527 On ch=1 n=g#6 v=68
198532 On ch=1 n=b5 v=63
198532 Par ch=1 c=64 v=88
198547 Par ch=1 c=64 v=127
198617 On ch=1 n=g#7 v=0
198622 On ch=1 n=b5 v=0
198632 On ch=1 n=e7 v=66
198657 On ch=1 n=g#6 v=0
198757 On ch=1 n=g#7 v=69
198832 On ch=1 n=g#7 v=0
198862 On ch=1 n=e7 v=0
198872 On ch=1 n=e8 v=70
198942 On ch=1 n=e8 v=0
198962 Par ch=1 c=64 v=88
198977 Par ch=1 c=64 v=56
198992 On ch=1 n=a7 v=77
198992 Par ch=1 c=64 v=0
199007 On ch=1 n=a6 v=63
199012 On ch=1 n=c#6 v=51
199017 On ch=1 n=a5 v=55
199052 Par ch=1 c=64 v=40
199067 On ch=1 n=a7 v=0
199067 Par ch=1 c=64 v=72
199072 On ch=1 n=a6 v=0
199082 Par ch=1 c=64 v=127
199092 On ch=1 n=a5 v=0
199102 On ch=1 n=e7 v=63
199112 On ch=1 n=c#6 v=0
199232 On ch=1 n=a7 v=73
199312 On ch=1 n=a7 v=0
199322 On ch=1 n=e7 v=0
199347 On ch=1 n=e8 v=72
199412 Par ch=1 c=64 v=104
199427 Par ch=1 c=64 v=72
199437 On ch=1 n=e8 v=0
199437 Par ch=1 c=64 v=40
199452 Par ch=1 c=64 v=0
199477 On ch=1 n=e6 v=59
199477 On ch=1 n=g#7 v=79
199477 On ch=1 n=g#5 v=55
199477 On ch=1 n=b5 v=54
199487 On ch=1 n=e5 v=53
199512 Par ch=1 c=64 v=24
199522 Par ch=1 c=64 v=72
199532 On ch=1 n=e5 v=0
199537 On ch=1 n=e6 v=0
199537 Par ch=1 c=64 v=127
199542 On ch=1 n=b5 v=0
199577 On ch=1 n=g#5 v=0
199577 On ch=1 n=g#7 v=0
199587 On ch=1 n=e7 v=65
199717 On ch=1 n=g#7 v=72
199802 On ch=1 n=g#7 v=0
199832 On ch=1 n=e8 v=74
199857 On ch=1 n=e7 v=0
199917 On ch=1 n=e8 v=0
199927 Par ch=1 c=64 v=104
199942 Par ch=1 c=64 v=72
199957 Par ch=1 c=64 v=0
199967 On ch=1 n=a7 v=84
199967 On ch=1 n=c#5 v=53
199977 On ch=1 n=a5 v=59
199977 On ch=1 n=a4 v=46
199977 On ch=1 n=e5 v=50
200012 Par ch=1 c=64 v=40
200027 Par ch=1 c=64 v=88
200042 Par ch=1 c=64 v=127
200047 On ch=1 n=a4 v=0
200052 On ch=1 n=e5 v=0
200052 On ch=1 n=a5 v=0
200052 On ch=1 n=c#5 v=0
200067 On ch=1 n=a7 v=0
200387 Par ch=1 c=64 v=104
200402 Par ch=1 c=64 v=88
200417 Par ch=1 c=64 v=72
200432 Par ch=1 c=64 v=56
200447 Par ch=1 c=64 v=40
200457 Par ch=1 c=64 v=0
200532 On ch=1 n=a5 v=87
200542 On ch=1 n=a4 v=72
200552 Par ch=1 c=64 v=56
200557 On ch=1 n=a3 v=73
200567 On ch=1 n=a2 v=46
200567 Par ch=1 c=64 v=88
200582 Par ch=1 c=64 v=127
200592 On ch=1 n=a3 v=0
200607 On ch=1 n=a2 v=0
200612 On ch=1 n=a4 v=0
200632 On ch=1 n=a5 v=0
200912 Par ch=1 c=64 v=104
200927 Par ch=1 c=64 v=40
200942 Par ch=1 c=64 v=0
200952 On ch=1 n=g#5 v=81
200962 On ch=1 n=g#4 v=80
200967 On ch=1 n=g#2 v=61
200967 On ch=1 n=g#3 v=71
201017 Par ch=1 c=64 v=40
201032 Par ch=1 c=64 v=88
201042 On ch=1 n=g#3 v=0
201052 On ch=1 n=g#2 v=0
201052 On ch=1 n=g#4 v=0
201052 Par ch=1 c=64 v=127
201067 On ch=1 n=g#5 v=0
201352 Par ch=1 c=64 v=72
201367 Par ch=1 c=64 v=0
201377 On ch=1 n=f5 v=84
201387 On ch=1 n=f4 v=82
201387 On ch=1 n=f3 v=71
201392 On ch=1 n=f2 v=62
201427 Par ch=1 c=64 v=40
201442 Par ch=1 c=64 v=104
201457 On ch=1 n=f3 v=0
201462 On ch=1 n=f2 v=0
201462 Par ch=1 c=64 v=127
201472 On ch=1 n=f4 v=0
201482 On ch=1 n=f5 v=0
201777 On ch=1 n=e5 v=90
201787 On ch=1 n=e4 v=82
201787 Par ch=1 c=64 v=88
201797 On ch=1 n=e3 v=70
201797 On ch=1 n=e2 v=66
201802 Par ch=1 c=64 v=40
201822 Par ch=1 c=64 v=24
201837 Par ch=1 c=64 v=40
201847 Par ch=1 c=64 v=72
201862 On ch=1 n=e3 v=0
201867 On ch=1 n=e2 v=0
201867 Par ch=1 c=64 v=104
201882 On ch=1 n=e4 v=0
201882 Par ch=1 c=64 v=127
201897 On ch=1 n=e5 v=0
202182 Par ch=1 c=64 v=40
202187 On ch=1 n=d5 v=86
202192 On ch=1 n=d4 v=87
202197 Par ch=1 c=64 v=0
202202 On ch=1 n=d3 v=80
202207 On ch=1 n=d2 v=75
202242 Par ch=1 c=64 v=24
202247 On ch=1 n=d2 v=0
202257 On ch=1 n=d3 v=0
202257 Par ch=1 c=64 v=72
202272 On ch=1 n=d4 v=0
202272 On ch=1 n=d5 v=0
202277 Par ch=1 c=64 v=127
202632 On ch=1 n=c#5 v=92
202637 On ch=1 n=c#4 v=89
202652 On ch=1 n=c#3 v=78
202657 On ch=1 n=c#2 v=74
202727 Par ch=1 c=64 v=104
202742 Par ch=1 c=64 v=40
202762 Par ch=1 c=64 v=0
202867 Par ch=1 c=64 v=104
202882 Par ch=1 c=64 v=127
203022 On ch=1 n=c#4 v=0
203032 On ch=1 n=c#2 v=0
203047 On ch=1 n=c#3 v=0
203072 On ch=1 n=c#5 v=0
203297 On ch=1 n=d5 v=89
203302 On ch=1 n=d4 v=83
203312 On ch=1 n=d3 v=70
203312 On ch=1 n=d2 v=63
203367 On ch=1 n=d2 v=0
203367 On ch=1 n=d4 v=0
203372 On ch=1 n=d3 v=0
203387 On ch=1 n=d5 v=0
203447 Par ch=1 c=64 v=104
203462 Par ch=1 c=64 v=88
203477 Par ch=1 c=64 v=56
203497 Par ch=1 c=64 v=0
203512 On ch=1 n=e4 v=84
203512 On ch=1 n=e5 v=96
203522 On ch=1 n=e3 v=70
203522 On ch=1 n=e2 v=67
203607 Par ch=1 c=64 v=24
203617 Par ch=1 c=64 v=104
203622 On ch=1 n=e2 v=0
203632 Par ch=1 c=64 v=127
203637 On ch=1 n=e3 v=0
203657 On ch=1 n=e4 v=0
203737 On ch=1 n=e5 v=0
204127 On ch=1 n=a5 v=90
204132 On ch=1 n=a4 v=82
204137 On ch=1 n=a3 v=80
204152 On ch=1 n=a2 v=60
204162 On ch=1 n=a3 v=0
204187 On ch=1 n=a4 v=0
204197 On ch=1 n=a2 v=0
204197 On ch=1 n=a5 v=0
204247 Par ch=1 c=64 v=88
204262 Par ch=1 c=64 v=56
204277 Par ch=1 c=64 v=0
204337 On ch=1 n=e4 v=88
204337 On ch=1 n=e5 v=93
204347 On ch=1 n=e2 v=64
204352 On ch=1 n=e3 v=56
204367 Par ch=1 c=64 v=40
204387 Par ch=1 c=64 v=127
204417 On ch=1 n=e4 v=0
204427 On ch=1 n=e3 v=0
204427 On ch=1 n=e2 v=0
204467 On ch=1 n=e5 v=0
204842 Par ch=1 c=64 v=88
204857 Par ch=1 c=64 v=56
204872 Par ch=1 c=64 v=0
204962 On ch=1 n=a5 v=92
204967 Par ch=1 c=64 v=24
204972 On ch=1 n=a4 v=82
204977 On ch=1 n=a3 v=74
204982 On ch=1 n=a2 v=66
204982 Par ch=1 c=64 v=88
204997 Par ch=1 c=64 v=127
205017 On ch=1 n=a3 v=0
205032 On ch=1 n=a4 v=0
205037 On ch=1 n=a5 v=0
205042 On ch=1 n=a2 v=0
205137 Par ch=1 c=64 v=104
205152 Par ch=1 c=64 v=72
205172 Par ch=1 c=64 v=56
205182 On ch=1 n=e5 v=93
205187 On ch=1 n=e4 v=87
205187 Par ch=1 c=64 v=72
205197 On ch=1 n=e3 v=70
205197 On ch=1 n=e2 v=70
205202 Par ch=1 c=64 v=127
205242 On ch=1 n=e4 v=0
205262 On ch=1 n=e2 v=0
205262 On ch=1 n=e3 v=0
205272 On ch=1 n=e5 v=0
205794 Par ch=1 c=64 v=104
205809 Par ch=1 c=64 v=88
205824 On ch=1 n=a5 v=86
205834 On ch=1 n=a4 v=75
205844 On ch=1 n=a3 v=77
205854 On ch=1 n=a2 v=61
205874 On ch=1 n=a3 v=0
205884 Par ch=1 c=64 v=72
205894 On ch=1 n=a2 v=0
205899 On ch=1 n=a4 v=0
205899 On ch=1 n=a5 v=0
205904 Par ch=1 c=64 v=40
205919 Par ch=1 c=64 v=24
205934 Par ch=1 c=64 v=0
206009 Par ch=1 c=64 v=40
206024 On ch=1 n=e5 v=92
206029 Par ch=1 c=64 v=88
206034 On ch=1 n=e4 v=61
206044 On ch=1 n=e3 v=70
206044 Par ch=1 c=64 v=127
206054 On ch=1 n=e2 v=61
206079 On ch=1 n=e4 v=0
206094 On ch=1 n=e2 v=0
206099 On ch=1 n=e3 v=0
206099 On ch=1 n=e5 v=0
206229 On ch=1 n=c#5 v=78
206229 On ch=1 n=c#4 v=87
206229 On ch=1 n=c#3 v=73
206279 On ch=1 n=c#4 v=0
206289 On ch=1 n=c#5 v=0
206329 On ch=1 n=c#3 v=0
206354 Par ch=1 c=64 v=104
206374 Par ch=1 c=64 v=88
206389 Par ch=1 c=64 v=56
206404 Par ch=1 c=64 v=40
206419 On ch=1 n=a4 v=86
206424 On ch=1 n=a3 v=84
206439 On ch=1 n=a2 v=64
206439 Par ch=1 c=64 v=24
206454 Par ch=1 c=64 v=0
206479 On ch=1 n=a3 v=0
206479 On ch=1 n=a4 v=0
206519 On ch=1 n=a2 v=0
206624 On ch=1 n=c#4 v=81
206624 On ch=1 n=c#5 v=83
206634 On ch=1 n=c#3 v=67
206689 On ch=1 n=c#4 v=0
206734 On ch=1 n=c#3 v=0
206734 On ch=1 n=c#5 v=0
206799 Par ch=1 c=64 v=24
206814 Par ch=1 c=64 v=40
206819 On ch=1 n=e5 v=92
206824 On ch=1 n=e4 v=82
206829 On ch=1 n=e3 v=64
206829 Par ch=1 c=64 v=72
206844 Par ch=1 c=64 v=88
206889 On ch=1 n=e4 v=0
206904 On ch=1 n=e5 v=0
206919 On ch=1 n=e3 v=0
207014 Par ch=1 c=64 v=104
207024 On ch=1 n=c#3 v=64
207029 On ch=1 n=c#4 v=86
207029 On ch=1 n=c#5 v=83
207059 Par ch=1 c=64 v=127
207099 On ch=1 n=c#4 v=0
207154 On ch=1 n=c#3 v=0
207159 Par ch=1 c=64 v=104
207174 On ch=1 n=c#5 v=0
207219 Par ch=1 c=64 v=127
207239 On ch=1 n=e5 v=92
207239 On ch=1 n=e4 v=83
207239 On ch=1 n=a2 v=50
207279 On ch=1 n=a2 v=0
207299 On ch=1 n=e4 v=0
207319 On ch=1 n=e5 v=0
207444 On ch=1 n=a5 v=98
207444 On ch=1 n=a2 v=54
207444 On ch=1 n=a4 v=83
207444 On ch=1 n=a3 v=82
207479 On ch=1 n=a2 v=0
207494 On ch=1 n=a3 v=0
207504 On ch=1 n=a4 v=0
207514 On ch=1 n=a5 v=0
207654 Par ch=1 c=64 v=104
207674 Par ch=1 c=64 v=88
207684 On ch=1 n=e3 v=74
207689 On ch=1 n=e5 v=92
207689 Par ch=1 c=64 v=56
207694 On ch=1 n=e4 v=80
207699 On ch=1 n=e2 v=73
207704 Par ch=1 c=64 v=0
207879 Par ch=1 c=64 v=24
207894 Par ch=1 c=64 v=40
207954 Par ch=1 c=64 v=72
207969 Par ch=1 c=64 v=104
207984 Par ch=1 c=64 v=127
208084 On ch=1 n=e2 v=0
208104 On ch=1 n=e3 v=0
208119 On ch=1 n=e4 v=0
208174 On ch=1 n=e5 v=0
208469 Par ch=1 c=64 v=72
208484 Par ch=1 c=64 v=0
208514 On ch=1 n=a5 v=89
208519 On ch=1 n=a4 v=81
208534 On ch=1 n=a3 v=77
208534 On ch=1 n=a2 v=64
208549 Par ch=1 c=64 v=24
208564 Par ch=1 c=64 v=56
208579 On ch=1 n=a4 v=0
208579 Par ch=1 c=64 v=104
208594 On ch=1 n=a2 v=0
208594 Par ch=1 c=64 v=127
208599 On ch=1 n=a3 v=0
208624 On ch=1 n=a5 v=0
208784 Par ch=1 c=64 v=88
208799 Par ch=1 c=64 v=56
208814 Par ch=1 c=64 v=24
208829 Par ch=1 c=64 v=0
208864 On ch=1 n=f3 v=60
208889 On ch=1 n=c4 v=80
208934 On ch=1 n=f3 v=0
208939 Par ch=1 c=64 v=56
208949 On ch=1 n=a6 v=90
208954 On ch=1 n=a5 v=74
208959 On ch=1 n=c4 v=0
208959 On ch=1 n=c6 v=78
208959 Par ch=1 c=64 v=104
208969 Par ch=1 c=64 v=127
208979 On ch=1 n=a4 v=66
209004 On ch=1 n=c6 v=0
209014 On ch=1 n=a5 v=0
209024 On ch=1 n=a4 v=0
209034 On ch=1 n=a6 v=0
209239 On ch=1 n=e3 v=62
209254 Par ch=1 c=64 v=104
209269 Par ch=1 c=64 v=40
209284 On ch=1 n=c4 v=69
209284 Par ch=1 c=64 v=0
209309 On ch=1 n=e3 v=0
209354 On ch=1 n=g4 v=69
209359 On ch=1 n=c4 v=0
209359 On ch=1 n=g6 v=82
209364 Par ch=1 c=64 v=56
209374 On ch=1 n=g5 v=69
209379 Par ch=1 c=64 v=127
209384 On ch=1 n=g4 v=0
209384 On ch=1 n=c6 v=66
209419 On ch=1 n=c6 v=0
209449 On ch=1 n=g5 v=0
209479 On ch=1 n=g6 v=0
209534 On ch=1 n=e6 v=90
209634 On ch=1 n=f3 v=63
209644 Par ch=1 c=64 v=72
209649 On ch=1 n=e6 v=0
209659 Par ch=1 c=64 v=0
209674 On ch=1 n=c4 v=63
209704 On ch=1 n=f3 v=0
209709 On ch=1 n=c4 v=0
209729 On ch=1 n=f6 v=90
209739 On ch=1 n=f5 v=70
209739 On ch=1 n=a5 v=74
209754 On ch=1 n=a4 v=51
209754 Par ch=1 c=64 v=72
209769 Par ch=1 c=64 v=127
209789 On ch=1 n=a4 v=0
209804 On ch=1 n=a5 v=0
209814 On ch=1 n=f5 v=0
209844 On ch=1 n=f6 v=0
209909 On ch=1 n=d6 v=86
209989 Par ch=1 c=64 v=88
209999 On ch=1 n=g3 v=63
210004 Par ch=1 c=64 v=24
210014 On ch=1 n=d6 v=0
210019 Par ch=1 c=64 v=0
210034 On ch=1 n=e4 v=62
210059 On ch=1 n=g3 v=0
210084 Par ch=1 c=64 v=24
210099 Par ch=1 c=64 v=72
210109 On ch=1 n=e6 v=88
210114 On ch=1 n=e4 v=0
210114 On ch=1 n=e5 v=71
210114 Par ch=1 c=64 v=127
210119 On ch=1 n=c5 v=66
210119 On ch=1 n=g5 v=72
210164 On ch=1 n=c5 v=0
210189 On ch=1 n=g5 v=0
210199 On ch=1 n=e5 v=0
210224 On ch=1 n=e6 v=0
210299 On ch=1 n=c6 v=85
210379 Par ch=1 c=64 v=104
210394 On ch=1 n=g3 v=64
210399 Par ch=1 c=64 v=40
210409 On ch=1 n=c6 v=0
210409 Par ch=1 c=64 v=0
210434 On ch=1 n=f4 v=60
210459 On ch=1 n=g3 v=0
210494 On ch=1 n=d6 v=84
210494 Par ch=1 c=64 v=40
210509 On ch=1 n=d5 v=62
210509 On ch=1 n=b4 v=59
210509 Par ch=1 c=64 v=88
210514 On ch=1 n=f5 v=63
210519 On ch=1 n=f4 v=0
210524 Par ch=1 c=64 v=127
210544 On ch=1 n=b4 v=0
210564 On ch=1 n=d5 v=0
210584 On ch=1 n=f5 v=0
210594 On ch=1 n=d6 v=0
210664 On ch=1 n=b5 v=83
210764 On ch=1 n=b5 v=0
210819 Par ch=1 c=64 v=72
210829 On ch=1 n=c4 v=63
210834 Par ch=1 c=64 v=0
210849 On ch=1 n=g4 v=59
210884 On ch=1 n=e5 v=69
210884 On ch=1 n=c6 v=79
210894 On ch=1 n=c4 v=0
210904 On ch=1 n=c5 v=66
210929 On ch=1 n=g4 v=0
210944 On ch=1 n=e5 v=0
210944 Par ch=1 c=64 v=24
210959 Par ch=1 c=64 v=72
210964 On ch=1 n=c5 v=0
210974 Par ch=1 c=64 v=127
210979 On ch=1 n=c6 v=0
210994 On ch=1 n=d6 v=78
211089 On ch=1 n=c6 v=85
211119 On ch=1 n=d6 v=0
211194 On ch=1 n=b5 v=80
211199 On ch=1 n=c6 v=0
211259 On ch=1 n=b5 v=0
211274 Par ch=1 c=64 v=104
211289 Par ch=1 c=64 v=40
211304 On ch=1 n=e5 v=56
211304 Par ch=1 c=64 v=0
211314 On ch=1 n=c6 v=86
211369 Par ch=1 c=64 v=40
211384 On ch=1 n=e5 v=0
211384 Par ch=1 c=64 v=88
211394 On ch=1 n=g5 v=55
211399 Par ch=1 c=64 v=127
211409 On ch=1 n=e6 v=77
211419 On ch=1 n=c6 v=0
211474 On ch=1 n=g5 v=0
211509 On ch=1 n=g6 v=76
211509 On ch=1 n=c6 v=51
211524 On ch=1 n=e6 v=0
211574 On ch=1 n=c6 v=0
211594 On ch=1 n=d6 v=62
211594 On ch=1 n=b6 v=78
211609 On ch=1 n=g6 v=0
211649 On ch=1 n=b6 v=0
211699 On ch=1 n=d6 v=0
211699 On ch=1 n=d7 v=74
211699 On ch=1 n=e6 v=63
211699 Par ch=1 c=64 v=72
211714 Par ch=1 c=64 v=24
211729 Par ch=1 c=64 v=0
211734 On ch=1 n=c7 v=78
211759 On ch=1 n=e6 v=0
211769 On ch=1 n=d7 v=0
211774 Par ch=1 c=64 v=40
211789 Par ch=1 c=64 v=88
211804 Par ch=1 c=64 v=127
211829 On ch=1 n=b6 v=88
211834 On ch=1 n=c7 v=0
211924 On ch=1 n=c7 v=82
211949 On ch=1 n=b6 v=0
212034 On ch=1 n=d7 v=83
212049 On ch=1 n=c7 v=0
212079 On ch=1 n=g4 v=50
212089 Par ch=1 c=64 v=104
212094 On ch=1 n=d7 v=0
212099 On ch=1 n=f5 v=58
212104 Par ch=1 c=64 v=40
212119 Par ch=1 c=64 v=0
212139 On ch=1 n=g4 v=0
212169 On ch=1 n=e7 v=89
212179 On ch=1 n=f6 v=77
212184 On ch=1 n=b5 v=66
212194 On ch=1 n=f5 v=0
212194 Par ch=1 c=64 v=72
212214 Par ch=1 c=64 v=127
212229 On ch=1 n=b5 v=0
212454 On ch=1 n=e7 v=0
212469 On ch=1 n=f6 v=0
212509 On ch=1 n=d7 v=77
212599 On ch=1 n=c7 v=86
212599 On ch=1 n=e6 v=69
212601 Par ch=1 c=64 v=72
212609 On ch=1 n=d7 v=0
212609 On ch=1 n=g5 v=58
212609 On ch=1 n=c6 v=61
212619 On ch=1 n=c5 v=62
212654 On ch=1 n=c5 v=0
212659 Par ch=1 c=64 v=24
212664 On ch=1 n=e6 v=0
212674 On ch=1 n=c6 v=0
212674 On ch=1 n=g5 v=0
212674 Par ch=1 c=64 v=88
212689 Par ch=1 c=64 v=127
212699 On ch=1 n=c7 v=0
212699 On ch=1 n=d7 v=71
212814 On ch=1 n=c7 v=76
212829 On ch=1 n=d7 v=0
212914 On ch=1 n=b6 v=77
212924 On ch=1 n=c7 v=0
212969 On ch=1 n=b6 v=0
213024 On ch=1 n=c7 v=86
213024 On ch=1 n=e6 v=62
213099 On ch=1 n=e6 v=0
213124 On ch=1 n=c7 v=0
213129 On ch=1 n=e7 v=74
213129 On ch=1 n=g6 v=59
213224 On ch=1 n=g7 v=75
213224 On ch=1 n=c7 v=50
213249 On ch=1 n=g6 v=0
213254 On ch=1 n=e7 v=0
213309 On ch=1 n=c7 v=0
213334 On ch=1 n=b7 v=64
213334 On ch=1 n=d7 v=70
213344 On ch=1 n=g7 v=0
213409 On ch=1 n=b7 v=0
213434 On ch=1 n=d7 v=0
213449 On ch=1 n=e7 v=76
213454 On ch=1 n=d8 v=85
213499 On ch=1 n=e7 v=0
213499 On ch=1 n=c8 v=92
213529 On ch=1 n=d8 v=0
213589 On ch=1 n=b7 v=94
213614 On ch=1 n=c8 v=0
213699 On ch=1 n=c8 v=82
213719 On ch=1 n=b7 v=0
213814 On ch=1 n=d8 v=89
213834 On ch=1 n=c8 v=0
213844 Par ch=1 c=64 v=72
213859 On ch=1 n=g5 v=61
213859 Par ch=1 c=64 v=0
213879 On ch=1 n=f6 v=56
213884 On ch=1 n=d8 v=0
213909 On ch=1 n=g5 v=0
213944 On ch=1 n=e8 v=96
213949 On ch=1 n=f7 v=79
213959 Par ch=1 c=64 v=40
213969 On ch=1 n=b6 v=63
213974 Par ch=1 c=64 v=104
213989 Par ch=1 c=64 v=127
213994 On ch=1 n=f6 v=0
214064 On ch=1 n=b6 v=0
214234 On ch=1 n=e8 v=0
214274 On ch=1 n=f7 v=0
214289 On ch=1 n=d8 v=82
214379 Par ch=1 c=64 v=88
214384 On ch=1 n=c8 v=82
214384 Par ch=1 c=64 v=0
214394 Par ch=1 c=64 v=40
214394 On ch=1 n=c7 v=65
214399 On ch=1 n=d8 v=0
214409 On ch=1 n=c6 v=52
214409 On ch=1 n=e6 v=56
214449 Par ch=1 c=64 v=40
214464 Par ch=1 c=64 v=72
214474 On ch=1 n=c7 v=0
214479 On ch=1 n=c8 v=0
214484 On ch=1 n=e7 v=70
214484 Par ch=1 c=64 v=127
214499 On ch=1 n=e6 v=0
214519 On ch=1 n=c6 v=0
214599 On ch=1 n=c8 v=77
214604 On ch=1 n=e7 v=0
214689 On ch=1 n=c8 v=0
214704 On ch=1 n=e8 v=74
214779 Par ch=1 c=64 v=72
214784 On ch=1 n=e8 v=0
214794 Par ch=1 c=64 v=0
214814 On ch=1 n=g8 v=82
214824 On ch=1 n=g5 v=63
214874 Par ch=1 c=64 v=24
214889 On ch=1 n=g5 v=0
214889 Par ch=1 c=64 v=72
214904 On ch=1 n=g8 v=0
214904 Par ch=1 c=64 v=104
214919 Par ch=1 c=64 v=127
214924 On ch=1 n=g7 v=62
215014 On ch=1 n=g7 v=0
215014 Par ch=1 c=64 v=88
215029 Par ch=1 c=64 v=56
215044 Par ch=1 c=64 v=24
215049 On ch=1 n=b7 v=75
215069 On ch=1 n=f6 v=53
215074 On ch=1 n=b6 v=57
215089 Par ch=1 c=64 v=88
215099 On ch=1 n=d6 v=39
215104 Par ch=1 c=64 v=104
215119 On ch=1 n=b6 v=0
215119 Par ch=1 c=64 v=127
215129 On ch=1 n=d6 v=0
215139 On ch=1 n=f6 v=0
215139 On ch=1 n=b7 v=0
215154 On ch=1 n=g7 v=70
215169 Par ch=1 c=64 v=88
215189 Par ch=1 c=64 v=40
215204 Par ch=1 c=64 v=0
215244 On ch=1 n=g7 v=0
215269 On ch=1 n=c8 v=75
215294 On ch=1 n=c6 v=64
215294 Par ch=1 c=64 v=40
215309 Par ch=1 c=64 v=72
215324 Par ch=1 c=64 v=88
215344 Par ch=1 c=64 v=104
215354 On ch=1 n=c6 v=0
215354 On ch=1 n=c8 v=0
215374 On ch=1 n=e7 v=68
215389 Par ch=1 c=64 v=72
215404 Par ch=1 c=64 v=56
215449 Par ch=1 c=64 v=88
215464 Par ch=1 c=64 v=104
215474 On ch=1 n=e7 v=0
215484 Par ch=1 c=64 v=127
215489 On ch=1 n=c8 v=79
215494 On ch=1 n=c7 v=54
215499 On ch=1 n=e6 v=59
215524 On ch=1 n=c7 v=0
215549 On ch=1 n=e6 v=0
215574 On ch=1 n=c8 v=0
215604 On ch=1 n=e8 v=68
215639 Par ch=1 c=64 v=88
215654 Par ch=1 c=64 v=40
215669 Par ch=1 c=64 v=0
215684 On ch=1 n=e8 v=0
215694 On ch=1 n=g8 v=72
215709 On ch=1 n=g5 v=62
215734 Par ch=1 c=64 v=24
215749 Par ch=1 c=64 v=56
215764 Par ch=1 c=64 v=104
215769 On ch=1 n=g5 v=0
215779 On ch=1 n=g8 v=0
215779 Par ch=1 c=64 v=127
215804 On ch=1 n=g7 v=71
215899 On ch=1 n=g7 v=0
215934 On ch=1 n=f6 v=58
215934 On ch=1 n=b7 v=79
215944 On ch=1 n=b6 v=40
215959 On ch=1 n=d6 v=45
215984 On ch=1 n=b6 v=0
215984 On ch=1 n=f6 v=0
215989 On ch=1 n=d6 v=0
216024 On ch=1 n=b7 v=0
216039 On ch=1 n=g7 v=71
216079 Par ch=1 c=64 v=88
216094 Par ch=1 c=64 v=40
216109 Par ch=1 c=64 v=0
216119 On ch=1 n=g7 v=0
216139 On ch=1 n=c8 v=82
216164 On ch=1 n=c6 v=62
216169 Par ch=1 c=64 v=40
216184 Par ch=1 c=64 v=72
216204 Par ch=1 c=64 v=104
216219 Par ch=1 c=64 v=127
216229 On ch=1 n=c8 v=0
216234 On ch=1 n=c6 v=0
216249 On ch=1 n=e7 v=74
216344 On ch=1 n=e7 v=0
216359 On ch=1 n=c7 v=48
216364 On ch=1 n=e6 v=56
216369 On ch=1 n=c8 v=83
216389 On ch=1 n=c7 v=0
216419 On ch=1 n=e6 v=0
216459 On ch=1 n=c8 v=0
216474 On ch=1 n=e8 v=77
216549 Par ch=1 c=64 v=88
216564 Par ch=1 c=64 v=40
216574 On ch=1 n=g8 v=75
216579 Par ch=1 c=64 v=0
216584 On ch=1 n=e8 v=0
216589 On ch=1 n=g5 v=60
216639 On ch=1 n=g5 v=0
216654 On ch=1 n=g8 v=0
216659 Par ch=1 c=64 v=40
216674 Par ch=1 c=64 v=72
216679 On ch=1 n=g7 v=74
216689 Par ch=1 c=64 v=88
216704 Par ch=1 c=64 v=127
216779 On ch=1 n=g7 v=0
216809 On ch=1 n=b7 v=76
216814 Par ch=1 c=64 v=104
216819 On ch=1 n=f6 v=55
216834 On ch=1 n=b6 v=43
216839 On ch=1 n=d6 v=53
216859 Par ch=1 c=64 v=127
216874 On ch=1 n=d6 v=0
216879 On ch=1 n=b6 v=0
216889 On ch=1 n=f6 v=0
216914 On ch=1 n=g7 v=70
216919 On ch=1 n=b7 v=0
216954 Par ch=1 c=64 v=88
216974 Par ch=1 c=64 v=40
216989 Par ch=1 c=64 v=0
217004 On ch=1 n=g7 v=0
217024 On ch=1 n=c8 v=82
217054 On ch=1 n=c6 v=59
217064 Par ch=1 c=64 v=24
217079 Par ch=1 c=64 v=56
217094 Par ch=1 c=64 v=72
217114 On ch=1 n=c8 v=0
217114 Par ch=1 c=64 v=88
217129 Par ch=1 c=64 v=104
217139 On ch=1 n=c6 v=0
217139 On ch=1 n=e7 v=68
217229 On ch=1 n=e7 v=0
217249 On ch=1 n=c8 v=74
217249 On ch=1 n=e6 v=63
217249 On ch=1 n=c7 v=36
217269 Par ch=1 c=64 v=127
217284 On ch=1 n=c7 v=0
217309 On ch=1 n=e6 v=0
217334 On ch=1 n=c8 v=0
217359 On ch=1 n=e8 v=72
217424 Par ch=1 c=64 v=72
217439 Par ch=1 c=64 v=40
217449 On ch=1 n=e8 v=0
217454 Par ch=1 c=64 v=24
217464 On ch=1 n=g8 v=80
217469 On ch=1 n=g5 v=62
217474 Par ch=1 c=64 v=0
217489 Par ch=1 c=64 v=24
217504 Par ch=1 c=64 v=40
217519 Par ch=1 c=64 v=56
217534 Par ch=1 c=64 v=88
217539 On ch=1 n=g5 v=0
217544 On ch=1 n=g8 v=0
217549 Par ch=1 c=64 v=104
217564 Par ch=1 c=64 v=127
217579 On ch=1 n=g7 v=73
217679 On ch=1 n=g7 v=0
217684 On ch=1 n=b7 v=74
217694 On ch=1 n=b6 v=44
217699 On ch=1 n=f6 v=42
217704 On ch=1 n=d6 v=37
217734 On ch=1 n=f6 v=0
217739 On ch=1 n=d6 v=0
217749 On ch=1 n=b6 v=0
217784 On ch=1 n=b7 v=0
217784 On ch=1 n=g7 v=83
217879 Par ch=1 c=64 v=88
217889 On ch=1 n=g7 v=0
217894 Par ch=1 c=64 v=56
217909 Par ch=1 c=64 v=0
217924 On ch=1 n=c6 v=66
217949 On ch=1 n=e6 v=66
217964 On ch=1 n=c8 v=88
217964 On ch=1 n=g6 v=58
217984 On ch=1 n=c6 v=0
217999 On ch=1 n=c7 v=69
218004 Par ch=1 c=64 v=24
218019 On ch=1 n=e6 v=0
218019 Par ch=1 c=64 v=72
218039 On ch=1 n=c7 v=0
218039 On ch=1 n=c8 v=0
218039 Par ch=1 c=64 v=127
218044 On ch=1 n=g6 v=0
218459 On ch=1 n=c6 v=57
218479 On ch=1 n=e5 v=43
218489 Par ch=1 c=64 v=40
218504 Par ch=1 c=64 v=72
218554 On ch=1 n=e5 v=0
218554 On ch=1 n=c6 v=0
218574 On ch=1 n=c#6 v=56
218574 Par ch=1 c=64 v=88
218594 On ch=1 n=f5 v=36
218619 Par ch=1 c=64 v=104
218644 On ch=1 n=f5 v=0
218669 On ch=1 n=c#6 v=0
218684 On ch=1 n=d6 v=68
218689 Par ch=1 c=64 v=127
218694 On ch=1 n=f#5 v=43
218769 On ch=1 n=f#5 v=0
218769 On ch=1 n=d6 v=0
218779 On ch=1 n=d#6 v=74
218834 Par ch=1 c=64 v=88
218844 Par ch=1 c=64 v=40
218849 On ch=1 n=d#6 v=0
218859 Par ch=1 c=64 v=0
218884 On ch=1 n=e6 v=76
218894 On ch=1 n=g#5 v=46
218919 Par ch=1 c=64 v=24
218934 Par ch=1 c=64 v=56
218949 Par ch=1 c=64 v=72
218964 Par ch=1 c=64 v=88
218969 On ch=1 n=e6 v=0
218974 On ch=1 n=g#5 v=0
218974 Par ch=1 c=64 v=104
218999 On ch=1 n=f6 v=77
219009 On ch=1 n=a5 v=56
219084 On ch=1 n=f6 v=0
219094 On ch=1 n=a5 v=0
219104 On ch=1 n=f#6 v=70
219104 On ch=1 n=a#5 v=54
219134 Par ch=1 c=64 v=88
219179 On ch=1 n=a#5 v=0
219184 On ch=1 n=f#6 v=0
219214 On ch=1 n=g6 v=70
219214 On ch=1 n=b5 v=49
219264 Par ch=1 c=64 v=56
219279 On ch=1 n=b5 v=0
219279 Par ch=1 c=64 v=40
219294 Par ch=1 c=64 v=24
219309 Par ch=1 c=64 v=0
219314 On ch=1 n=g6 v=0
219329 On ch=1 n=g#6 v=73
219334 On ch=1 n=c6 v=60
219409 Par ch=1 c=64 v=24
219419 On ch=1 n=g#6 v=0
219424 On ch=1 n=c6 v=0
219424 Par ch=1 c=64 v=40
219439 On ch=1 n=c#6 v=55
219439 Par ch=1 c=64 v=56
219444 On ch=1 n=a6 v=74
219524 On ch=1 n=c#6 v=0
219544 On ch=1 n=a6 v=0
219554 On ch=1 n=a#6 v=69
219569 On ch=1 n=d6 v=56
219629 On ch=1 n=a#6 v=0
219664 On ch=1 n=d6 v=0
219664 On ch=1 n=b6 v=73
219669 On ch=1 n=d#6 v=57
219724 Par ch=1 c=64 v=40
219739 Par ch=1 c=64 v=24
219749 On ch=1 n=b6 v=0
219754 Par ch=1 c=64 v=0
219764 On ch=1 n=d#6 v=0
219779 On ch=1 n=c7 v=81
219799 On ch=1 n=e6 v=60
219854 Par ch=1 c=64 v=24
219869 On ch=1 n=e6 v=0
219869 Par ch=1 c=64 v=56
219879 On ch=1 n=c7 v=0
219879 Par ch=1 c=64 v=72
219894 On ch=1 n=c#7 v=73
219914 On ch=1 n=f6 v=51
219964 On ch=1 n=f6 v=0
219974 On ch=1 n=c#7 v=0
219994 Par ch=1 c=64 v=88
220004 On ch=1 n=d7 v=73
220014 On ch=1 n=f#6 v=50
220099 On ch=1 n=f#6 v=0
220109 On ch=1 n=d7 v=0
220114 On ch=1 n=d#7 v=79
220144 On ch=1 n=g6 v=59
220194 On ch=1 n=d#7 v=0
220219 On ch=1 n=g6 v=0
220229 On ch=1 n=e7 v=77
220249 On ch=1 n=g#6 v=55
220319 On ch=1 n=e7 v=0
220329 On ch=1 n=g#6 v=0
220339 Par ch=1 c=64 v=72
220349 On ch=1 n=f7 v=83
220359 On ch=1 n=a6 v=59
220429 Par ch=1 c=64 v=88
220434 On ch=1 n=f7 v=0
220454 On ch=1 n=a6 v=0
220459 On ch=1 n=a#6 v=57
220459 On ch=1 n=f#7 v=71
220474 Par ch=1 c=64 v=104
220484 Par ch=1 c=64 v=127
220539 On ch=1 n=a#6 v=0
220549 On ch=1 n=f#7 v=0
220569 On ch=1 n=g7 v=75
220574 On ch=1 n=b6 v=57
220654 On ch=1 n=b6 v=0
220684 On ch=1 n=g7 v=0
220684 On ch=1 n=g#7 v=82
220689 On ch=1 n=c7 v=56
220784 On ch=1 n=c#7 v=64
220789 On ch=1 n=c7 v=0
220789 On ch=1 n=g#7 v=0
220794 On ch=1 n=a7 v=84
220869 On ch=1 n=c#7 v=0
220894 On ch=1 n=d7 v=58
220899 On ch=1 n=a7 v=0
220899 On ch=1 n=a#7 v=69
220984 On ch=1 n=d7 v=0
220989 On ch=1 n=a#7 v=0
220994 On ch=1 n=d#7 v=63
221009 On ch=1 n=b7 v=82
221064 On ch=1 n=d#7 v=0
221094 On ch=1 n=b7 v=0
221099 On ch=1 n=c8 v=83
221189 On ch=1 n=c8 v=0
221219 On ch=1 n=c#8 v=83
221219 Par ch=1 c=64 v=72
221234 Par ch=1 c=64 v=24
221249 Par ch=1 c=64 v=0
221319 On ch=1 n=c#8 v=0
221319 Par ch=1 c=64 v=40
221334 Par ch=1 c=64 v=104
221339 On ch=1 n=e8 v=81
221349 Par ch=1 c=64 v=127
221434 On ch=1 n=e8 v=0
221449 On ch=1 n=c#8 v=80
221539 On ch=1 n=c#8 v=0
221544 On ch=1 n=e7 v=76
221599 On ch=1 n=e7 v=0
221669 On ch=1 n=a6 v=74
221724 On ch=1 n=a6 v=0
221779 On ch=1 n=c#7 v=64
221854 On ch=1 n=c#7 v=0
221899 On ch=1 n=a6 v=65
221979 On ch=1 n=a6 v=0
222009 On ch=1 n=c#7 v=64
222089 On ch=1 n=c#7 v=0
222129 On ch=1 n=a6 v=68
222149 On ch=1 n=c#6 v=46
222209 On ch=1 n=a6 v=0
222244 On ch=1 n=c#7 v=65
222299 On ch=1 n=c#6 v=0
222334 On ch=1 n=c#7 v=0
222339 On ch=1 n=e6 v=61
222369 On ch=1 n=a6 v=71
222374 On ch=1 n=e6 v=0
222444 On ch=1 n=a6 v=0
222474 On ch=1 n=c#7 v=58
222574 On ch=1 n=c#7 v=0
222579 On ch=1 n=a5 v=63
222584 On ch=1 n=e5 v=54
222599 On ch=1 n=a6 v=69
222599 Par ch=1 c=64 v=72
222604 On ch=1 n=a4 v=40
222614 Par ch=1 c=64 v=24
222624 Par ch=1 c=64 v=0
222684 Par ch=1 c=64 v=40
222699 Par ch=1 c=64 v=88
222709 Par ch=1 c=64 v=127
222714 On ch=1 n=a6 v=0
222714 On ch=1 n=c#7 v=57
222764 On ch=1 n=c#7 v=0
222814 On ch=1 n=a4 v=0
222824 On ch=1 n=e5 v=0
222824 On ch=1 n=e7 v=72
222859 On ch=1 n=a5 v=0
222884 On ch=1 n=e7 v=0
222939 On ch=1 n=a7 v=75
223019 On ch=1 n=a7 v=0
223054 On ch=1 n=c#8 v=82
223139 On ch=1 n=c#8 v=0
223184 On ch=1 n=e8 v=69
223264 On ch=1 n=c#8 v=73
223299 On ch=1 n=e8 v=0
223374 On ch=1 n=c#8 v=0
223389 On ch=1 n=e7 v=63
223419 On ch=1 n=e7 v=0
223494 On ch=1 n=a6 v=71
223559 On ch=1 n=a6 v=0
223559 Par ch=1 c=64 v=88
223574 Par ch=1 c=64 v=40
223589 Par ch=1 c=64 v=24
223604 Par ch=1 c=64 v=56
223609 On ch=1 n=c#7 v=64
223619 Par ch=1 c=64 v=88
223634 Par ch=1 c=64 v=127
223689 On ch=1 n=c#7 v=0
223724 On ch=1 n=a6 v=65
223799 On ch=1 n=a6 v=0
223834 On ch=1 n=c#7 v=58
223909 On ch=1 n=c#7 v=0
223954 On ch=1 n=a6 v=66
223979 On ch=1 n=c#6 v=46
224029 On ch=1 n=a6 v=0
224054 On ch=1 n=c#7 v=61
224164 On ch=1 n=c#7 v=0
224174 On ch=1 n=c#6 v=0
224179 On ch=1 n=a6 v=74
224194 On ch=1 n=e6 v=62
224219 On ch=1 n=e6 v=0
224274 On ch=1 n=a6 v=0
224284 On ch=1 n=c#7 v=71
224394 On ch=1 n=c#7 v=0
224399 On ch=1 n=a6 v=72
224409 Par ch=1 c=64 v=72
224414 On ch=1 n=a5 v=51
224419 On ch=1 n=e5 v=46
224424 Par ch=1 c=64 v=24
224434 Par ch=1 c=64 v=0
224439 On ch=1 n=a4 v=44
224501 On ch=1 n=a4 v=0
224505 Par ch=1 c=64 v=0
224509 On ch=1 n=c#7 v=64
224509 Par ch=1 c=64 v=127
224514 On ch=1 n=a6 v=0
224559 On ch=1 n=c#7 v=0
224614 On ch=1 n=e5 v=0
224614 On ch=1 n=e7 v=71
224644 On ch=1 n=a5 v=0
224684 On ch=1 n=e7 v=0
224734 On ch=1 n=a7 v=74
224824 On ch=1 n=a7 v=0
224824 Par ch=1 c=64 v=72
224844 On ch=1 n=c#8 v=65
224849 On ch=1 n=c#6 v=55
224849 On ch=1 n=a7 v=66
224934 On ch=1 n=a7 v=0
224949 On ch=1 n=c#8 v=0
224959 On ch=1 n=d8 v=76
224974 On ch=1 n=c#6 v=0
225049 On ch=1 n=d8 v=0
225079 On ch=1 n=c#8 v=73
225084 On ch=1 n=g#7 v=69
225094 On ch=1 n=b6 v=52
225124 On ch=1 n=f6 v=34
225149 On ch=1 n=b6 v=0
225154 On ch=1 n=f6 v=0
225159 On ch=1 n=g#7 v=0
225179 On ch=1 n=c#8 v=0
225194 On ch=1 n=d8 v=66
225284 On ch=1 n=d8 v=0
225309 On ch=1 n=c#8 v=72
225314 On ch=1 n=g#7 v=65
225329 On ch=1 n=f#6 v=50
225399 On ch=1 n=g#7 v=0
225409 On ch=1 n=f#6 v=0
225414 On ch=1 n=c#8 v=0
225424 On ch=1 n=d8 v=68
225514 On ch=1 n=d8 v=0
225534 On ch=1 n=c#8 v=73
225544 On ch=1 n=f#7 v=58
225554 On ch=1 n=a6 v=54
225609 On ch=1 n=f#7 v=0
225639 On ch=1 n=a6 v=0
225644 On ch=1 n=c#8 v=0
225654 On ch=1 n=d8 v=70
225734 On ch=1 n=d8 v=0
225764 On ch=1 n=c#8 v=77
225764 On ch=1 n=f#7 v=64
225779 On ch=1 n=c#6 v=53
225834 On ch=1 n=c#6 v=0
225839 On ch=1 n=f#7 v=0
225859 On ch=1 n=c#8 v=0
225869 On ch=1 n=d8 v=74
225964 On ch=1 n=d8 v=0
225984 On ch=1 n=c#8 v=74
225989 On ch=1 n=f7 v=63
225999 On ch=1 n=b6 v=43
226004 On ch=1 n=g#6 v=44
226049 On ch=1 n=g#6 v=0
226049 On ch=1 n=b6 v=0
226069 On ch=1 n=f7 v=0
226084 On ch=1 n=c#8 v=0
226104 On ch=1 n=d8 v=75
226189 On ch=1 n=d8 v=0
226219 On ch=1 n=c#8 v=83
226219 On ch=1 n=g#7 v=81
226219 On ch=1 n=f#6 v=56
226294 On ch=1 n=f#6 v=0
226294 On ch=1 n=g#7 v=0
226314 On ch=1 n=c#8 v=0
226329 On ch=1 n=d8 v=72
226419 On ch=1 n=d8 v=0
226439 On ch=1 n=f#7 v=65
226449 On ch=1 n=c#8 v=75
226469 On ch=1 n=a6 v=52
226519 On ch=1 n=f#7 v=0
226529 On ch=1 n=a6 v=0
226534 On ch=1 n=c#8 v=0
226554 On ch=1 n=d8 v=74
226649 On ch=1 n=d8 v=0
226669 On ch=1 n=c#8 v=80
226674 On ch=1 n=f#7 v=69
226684 On ch=1 n=c#6 v=32
226749 On ch=1 n=f#7 v=0
226759 On ch=1 n=c#8 v=0
226774 On ch=1 n=c#6 v=0
226774 On ch=1 n=d8 v=76
226879 On ch=1 n=d8 v=0
226894 On ch=1 n=c#8 v=78
226894 On ch=1 n=f7 v=75
226909 On ch=1 n=b6 v=50
226914 On ch=1 n=g#6 v=43
226954 On ch=1 n=b6 v=0
226959 On ch=1 n=g#6 v=0
226984 On ch=1 n=c#8 v=0
226999 On ch=1 n=f7 v=0
227004 On ch=1 n=d8 v=83
227054 On ch=1 n=d8 v=0
227124 On ch=1 n=f#6 v=46
227129 On ch=1 n=c#8 v=90
227134 On ch=1 n=a6 v=51
227194 Par ch=1 c=64 v=24
227209 Par ch=1 c=64 v=40
227224 Par ch=1 c=64 v=56
227249 On ch=1 n=g#7 v=76
227264 On ch=1 n=a6 v=0
227279 On ch=1 n=c#8 v=0
227289 Par ch=1 c=64 v=24
227319 On ch=1 n=f#6 v=0
227354 On ch=1 n=g#7 v=0
227354 On ch=1 n=f#7 v=71
227394 Par ch=1 c=64 v=40
227459 On ch=1 n=f#7 v=0
227474 On ch=1 n=c#7 v=74
227529 On ch=1 n=c#7 v=0
227579 On ch=1 n=a6 v=64
227664 On ch=1 n=a6 v=0
227689 On ch=1 n=f#6 v=60
227789 On ch=1 n=f#6 v=0
227794 Par ch=1 c=64 v=24
227809 On ch=1 n=c#6 v=51
227914 On ch=1 n=c#6 v=0
227919 On ch=1 n=a5 v=57
227989 On ch=1 n=a5 v=0
227999 Par ch=1 c=64 v=0
228039 On ch=1 n=f#5 v=64
228099 On ch=1 n=f#5 v=0
228099 Par ch=1 c=64 v=40
228114 Par ch=1 c=64 v=56
228129 Par ch=1 c=64 v=88
228144 Par ch=1 c=64 v=104
228174 Par ch=1 c=64 v=127
228339 Par ch=1 c=64 v=104
228349 Par ch=1 c=64 v=88
228364 Par ch=1 c=64 v=72
228379 Par ch=1 c=64 v=40
228394 Par ch=1 c=64 v=24
228409 Par ch=1 c=64 v=0
228519 On ch=1 n=f#8 v=76
228524 Par ch=1 c=64 v=24
228539 Par ch=1 c=64 v=56
228549 On ch=1 n=a5 v=45
228554 Par ch=1 c=64 v=72
228574 Par ch=1 c=64 v=88
228589 On ch=1 n=a5 v=0
228624 On ch=1 n=f#8 v=0
228629 On ch=1 n=a7 v=72
228689 Par ch=1 c=64 v=56
228699 Par ch=1 c=64 v=24
228719 On ch=1 n=a7 v=0
228719 Par ch=1 c=64 v=0
228749 On ch=1 n=e8 v=82
228754 On ch=1 n=c#6 v=36
228754 On ch=1 n=g6 v=49
228799 On ch=1 n=c#6 v=0
228829 On ch=1 n=g6 v=0
228854 On ch=1 n=e8 v=0
228869 On ch=1 n=a7 v=74
228954 On ch=1 n=a7 v=0
228984 On ch=1 n=e8 v=78
228994 On ch=1 n=d6 v=47
229049 On ch=1 n=d6 v=0
229084 On ch=1 n=e8 v=0
229094 On ch=1 n=a7 v=70
229184 On ch=1 n=a7 v=0
229209 On ch=1 n=d8 v=73
229224 On ch=1 n=f#6 v=49
229229 On ch=1 n=a6 v=37
229294 On ch=1 n=a6 v=0
229294 On ch=1 n=f#6 v=0
229294 On ch=1 n=d8 v=0
229294 On ch=1 n=a7 v=64
229384 On ch=1 n=a7 v=0
229419 On ch=1 n=d8 v=73
229449 On ch=1 n=a5 v=55
229484 On ch=1 n=a5 v=0
229519 On ch=1 n=d8 v=0
229524 On ch=1 n=a7 v=73
229614 On ch=1 n=a7 v=0
229634 On ch=1 n=c#8 v=69
229654 On ch=1 n=g6 v=44
229659 On ch=1 n=e6 v=51
229709 On ch=1 n=e6 v=0
229719 On ch=1 n=g6 v=0
229729 On ch=1 n=c#8 v=0
229749 On ch=1 n=a7 v=77
229839 On ch=1 n=a7 v=0
229859 On ch=1 n=e8 v=87
229879 On ch=1 n=d6 v=59
229949 On ch=1 n=d6 v=0
229969 On ch=1 n=a7 v=73
229984 On ch=1 n=e8 v=0
230049 On ch=1 n=a7 v=0
230079 On ch=1 n=d8 v=78
230094 On ch=1 n=f#6 v=46
230094 On ch=1 n=a6 v=38
230159 On ch=1 n=f#6 v=0
230174 On ch=1 n=a6 v=0
230179 On ch=1 n=d8 v=0
230189 On ch=1 n=a7 v=70
230284 On ch=1 n=a7 v=0
230309 On ch=1 n=d8 v=86
230319 On ch=1 n=a5 v=40
230369 On ch=1 n=a5 v=0
230409 On ch=1 n=a7 v=73
230419 On ch=1 n=d8 v=0
230499 On ch=1 n=a7 v=0
230514 On ch=1 n=c#8 v=74
230529 On ch=1 n=e6 v=52
230529 On ch=1 n=g6 v=39
230594 On ch=1 n=e6 v=0
230599 On ch=1 n=g6 v=0
230619 On ch=1 n=c#8 v=0
230619 On ch=1 n=a7 v=72
230704 On ch=1 n=a7 v=0
230744 On ch=1 n=e8 v=86
230749 On ch=1 n=f#6 v=51
230779 On ch=1 n=d6 v=38
230804 Par ch=1 c=64 v=40
230819 Par ch=1 c=64 v=72
230829 On ch=1 n=d6 v=0
230834 On ch=1 n=e8 v=0
230834 Par ch=1 c=64 v=88
230839 On ch=1 n=f#6 v=0
230849 Par ch=1 c=64 v=104
230854 On ch=1 n=d8 v=81
230954 On ch=1 n=a7 v=79
230994 On ch=1 n=d8 v=0
231044 On ch=1 n=a7 v=0
231064 On ch=1 n=d7 v=67
231069 Par ch=1 c=64 v=127
231119 On ch=1 n=d7 v=0
231189 On ch=1 n=a6 v=61
231269 On ch=1 n=a6 v=0
231279 On ch=1 n=f#6 v=48
231374 On ch=1 n=f#6 v=0
231404 On ch=1 n=d6 v=42
231489 On ch=1 n=d6 v=0
231499 On ch=1 n=a5 v=54
231534 On ch=1 n=a5 v=0
231649 On ch=1 n=d5 v=40
231684 On ch=1 n=d5 v=0
231904 Par ch=1 c=64 v=104
231949 Par ch=1 c=64 v=88
231994 Par ch=1 c=64 v=72
232009 Par ch=1 c=64 v=56
232039 Par ch=1 c=64 v=40
232054 Par ch=1 c=64 v=24
232084 Par ch=1 c=64 v=0
232159 On ch=1 n=d8 v=83
232229 Par ch=1 c=64 v=56
232244 On ch=1 n=d8 v=0
232244 Par ch=1 c=64 v=88
232259 Par ch=1 c=64 v=127
232274 On ch=1 n=f#8 v=78
232389 On ch=1 n=d8 v=66
232404 On ch=1 n=f#8 v=0
232474 On ch=1 n=d8 v=0
232484 On ch=1 n=f#7 v=53
232514 On ch=1 n=f#7 v=0
232614 On ch=1 n=b6 v=63
232639 Par ch=1 c=64 v=104
232649 On ch=1 n=b6 v=0
232654 Par ch=1 c=64 v=88
232669 Par ch=1 c=64 v=72
232684 Par ch=1 c=64 v=56
232709 Par ch=1 c=64 v=88
232724 On ch=1 n=d7 v=66
232729 Par ch=1 c=64 v=104
232744 Par ch=1 c=64 v=127
232789 On ch=1 n=d7 v=0
232844 On ch=1 n=b6 v=66
232914 On ch=1 n=b6 v=0
232949 On ch=1 n=d7 v=64
233024 On ch=1 n=d7 v=0
233064 On ch=1 n=b6 v=64
233104 On ch=1 n=d6 v=60
233149 On ch=1 n=b6 v=0
233174 On ch=1 n=d7 v=66
233234 On ch=1 n=d6 v=0
233259 On ch=1 n=d7 v=0
233289 On ch=1 n=b6 v=74
233289 On ch=1 n=f#6 v=60
233339 On ch=1 n=f#6 v=0
233379 On ch=1 n=b6 v=0
233404 On ch=1 n=d7 v=71
233499 On ch=1 n=d7 v=0
233519 Par ch=1 c=64 v=104
233524 On ch=1 n=f#5 v=48
233529 On ch=1 n=b5 v=54
233534 On ch=1 n=b6 v=74
233534 Par ch=1 c=64 v=56
233539 On ch=1 n=d5 v=50
233549 Par ch=1 c=64 v=0
233624 Par ch=1 c=64 v=40
233639 Par ch=1 c=64 v=72
233644 On ch=1 n=d7 v=67
233649 Par ch=1 c=64 v=127
233654 On ch=1 n=b6 v=0
233674 On ch=1 n=d7 v=0
233694 On ch=1 n=d5 v=0
233704 On ch=1 n=f#5 v=0
233714 On ch=1 n=b5 v=0
233749 On ch=1 n=f#7 v=58
233814 On ch=1 n=f#7 v=0
233874 On ch=1 n=b7 v=69
233954 On ch=1 n=b7 v=0
233994 On ch=1 n=d8 v=86
234004 Par ch=1 c=64 v=72
234019 Par ch=1 c=64 v=24
234034 Par ch=1 c=64 v=0
234064 Par ch=1 c=64 v=40
234079 On ch=1 n=d8 v=0
234079 Par ch=1 c=64 v=88
234094 Par ch=1 c=64 v=127
234104 On ch=1 n=f#8 v=71
234209 On ch=1 n=d8 v=66
234219 On ch=1 n=f#8 v=0
234299 On ch=1 n=d8 v=0
234314 On ch=1 n=f#7 v=55
234344 On ch=1 n=f#7 v=0
234439 On ch=1 n=b6 v=66
234484 On ch=1 n=b6 v=0
234549 On ch=1 n=d7 v=64
234614 On ch=1 n=d7 v=0
234664 On ch=1 n=b6 v=67
234739 On ch=1 n=b6 v=0
234774 On ch=1 n=d7 v=66
234784 Par ch=1 c=64 v=88
234799 Par ch=1 c=64 v=24
234814 Par ch=1 c=64 v=0
234864 On ch=1 n=d7 v=0
234874 Par ch=1 c=64 v=56
234889 Par ch=1 c=64 v=104
234899 On ch=1 n=b6 v=64
234904 Par ch=1 c=64 v=127
234914 On ch=1 n=d6 v=62
234994 On ch=1 n=b6 v=0
235014 On ch=1 n=d6 v=0
235014 On ch=1 n=d7 v=64
235099 On ch=1 n=d7 v=0
235139 On ch=1 n=b6 v=62
235144 On ch=1 n=f#6 v=65
235189 On ch=1 n=f#6 v=0
235229 On ch=1 n=b6 v=0
235279 On ch=1 n=d7 v=46
235369 On ch=1 n=d7 v=0
235399 On ch=1 n=b6 v=55
235399 On ch=1 n=d5 v=48
235399 On ch=1 n=f#5 v=36
235399 On ch=1 n=b5 v=51
235429 Par ch=1 c=64 v=72
235444 Par ch=1 c=64 v=24
235459 Par ch=1 c=64 v=0
235489 On ch=1 n=b6 v=0
235489 Par ch=1 c=64 v=24
235504 Par ch=1 c=64 v=72
235509 On ch=1 n=d5 v=0
235519 Par ch=1 c=64 v=127
235529 On ch=1 n=f#5 v=0
235534 On ch=1 n=b5 v=0
235854 Par ch=1 c=64 v=88
235859 On ch=1 n=d8 v=76
235869 Par ch=1 c=64 v=0
235949 On ch=1 n=d8 v=0
235959 Par ch=1 c=64 v=40
235974 Par ch=1 c=64 v=104
235989 Par ch=1 c=64 v=127
235999 On ch=1 n=f8 v=66
236089 On ch=1 n=f8 v=0
236089 On ch=1 n=d8 v=66
236184 On ch=1 n=d8 v=0
236204 On ch=1 n=f7 v=66
236229 On ch=1 n=f7 v=0
236324 On ch=1 n=a#6 v=47
236394 On ch=1 n=a#6 v=0
236414 Par ch=1 c=64 v=72
236424 On ch=1 n=d7 v=60
236429 Par ch=1 c=64 v=24
236459 Par ch=1 c=64 v=72
236469 Par ch=1 c=64 v=127
236499 On ch=1 n=d7 v=0
236529 On ch=1 n=a#6 v=57
236614 On ch=1 n=a#6 v=0
236634 On ch=1 n=d7 v=65
236729 On ch=1 n=d7 v=0
236744 On ch=1 n=a#6 v=65
236794 On ch=1 n=d6 v=50
236839 On ch=1 n=a#6 v=0
236864 On ch=1 n=d7 v=70
236944 On ch=1 n=d6 v=0
236959 On ch=1 n=d7 v=0
236979 On ch=1 n=f6 v=60
236989 On ch=1 n=a#6 v=67
237019 On ch=1 n=f6 v=0
237069 On ch=1 n=a#6 v=0
237099 On ch=1 n=d7 v=65
237199 On ch=1 n=d7 v=0
237219 Par ch=1 c=64 v=72
237229 On ch=1 n=d5 v=44
237229 On ch=1 n=a#6 v=64
237229 On ch=1 n=a#5 v=51
237229 On ch=1 n=f5 v=45
237234 Par ch=1 c=64 v=0
237264 Par ch=1 c=64 v=24
237279 Par ch=1 c=64 v=72
237294 Par ch=1 c=64 v=127
237319 On ch=1 n=d7 v=66
237334 On ch=1 n=a#6 v=0
237379 On ch=1 n=d7 v=0
237429 On ch=1 n=f7 v=72
237449 On ch=1 n=f5 v=0
237499 On ch=1 n=d5 v=0
237509 On ch=1 n=f7 v=0
237544 On ch=1 n=a#7 v=70
237549 On ch=1 n=a#5 v=0
237624 On ch=1 n=a#7 v=0
237659 On ch=1 n=d8 v=82
237749 On ch=1 n=d8 v=0
237789 On ch=1 n=f8 v=65
237879 On ch=1 n=f8 v=0
237879 On ch=1 n=d8 v=62
237984 On ch=1 n=d8 v=0
237999 On ch=1 n=f7 v=56
238029 On ch=1 n=f7 v=0
238129 On ch=1 n=a#6 v=50
238164 On ch=1 n=a#6 v=0
238229 On ch=1 n=d7 v=62
238304 On ch=1 n=d7 v=0
238339 On ch=1 n=a#6 v=58
238424 On ch=1 n=a#6 v=0
238459 On ch=1 n=d7 v=62
238549 On ch=1 n=d6 v=44
238554 On ch=1 n=d7 v=0
238569 On ch=1 n=a#6 v=67
238669 On ch=1 n=a#6 v=0
238684 On ch=1 n=d7 v=64
238749 On ch=1 n=d6 v=0
238779 On ch=1 n=d7 v=0
238789 On ch=1 n=f6 v=55
238804 On ch=1 n=a#6 v=64
238824 On ch=1 n=f6 v=0
238894 On ch=1 n=a#6 v=0
238904 On ch=1 n=d7 v=59
239004 On ch=1 n=d7 v=0
239064 On ch=1 n=a#5 v=49
239064 On ch=1 n=a#6 v=52
239079 On ch=1 n=d5 v=22
239079 On ch=1 n=f5 v=38
239099 Par ch=1 c=64 v=88
239114 Par ch=1 c=64 v=0
239229 On ch=1 n=d5 v=0
239239 On ch=1 n=f5 v=0
239259 On ch=1 n=a#6 v=0
239264 On ch=1 n=a#5 v=0
239484 Par ch=1 c=64 v=24
239499 Par ch=1 c=64 v=72
239514 Par ch=1 c=64 v=127
239519 On ch=1 n=a#6 v=46
239569 On ch=1 n=a#6 v=0
239639 On ch=1 n=a#6 v=56
239724 On ch=1 n=a#6 v=0
239764 On ch=1 n=a#7 v=57
239859 On ch=1 n=a#7 v=0
239889 On ch=1 n=a#6 v=50
239959 On ch=1 n=a#6 v=0
240009 On ch=1 n=a6 v=61
240044 On ch=1 n=a6 v=0
240129 On ch=1 n=a6 v=68
240199 On ch=1 n=a6 v=0
240259 On ch=1 n=a7 v=63
240299 On ch=1 n=a7 v=0
240369 On ch=1 n=a6 v=59
240414 On ch=1 n=a6 v=0
240499 On ch=1 n=f#6 v=57
240534 On ch=1 n=f#6 v=0
240619 On ch=1 n=f#6 v=64
240694 On ch=1 n=f#6 v=0
240739 On ch=1 n=f#7 v=60
240819 On ch=1 n=f#7 v=0
240849 On ch=1 n=f#6 v=64
240909 On ch=1 n=f#6 v=0
240974 On ch=1 n=f6 v=63
241004 On ch=1 n=f6 v=0
241094 On ch=1 n=f6 v=52
241164 On ch=1 n=f6 v=0
241209 On ch=1 n=f7 v=58
241269 On ch=1 n=f7 v=0
241329 On ch=1 n=f6 v=69
241384 On ch=1 n=f6 v=0
241439 On ch=1 n=d#6 v=63
241499 On ch=1 n=d#6 v=0
241569 On ch=1 n=d#6 v=61
241659 On ch=1 n=d#6 v=0
241684 On ch=1 n=d#7 v=61
241759 On ch=1 n=d#7 v=0
241804 On ch=1 n=d#6 v=51
241829 On ch=1 n=d#6 v=0
241914 On ch=1 n=d6 v=30
241954 Par ch=1 c=64 v=72
241959 On ch=1 n=d6 v=0
241969 Par ch=1 c=64 v=40
241984 Par ch=1 c=64 v=24
242019 On ch=1 n=d6 v=61
242034 Par ch=1 c=64 v=88
242049 Par ch=1 c=64 v=127
242114 On ch=1 n=d6 v=0
242164 On ch=1 n=d7 v=60
242214 On ch=1 n=d7 v=0
242279 On ch=1 n=d6 v=63
242399 On ch=1 n=d6 v=0
242419 On ch=1 n=d7 v=63
242479 On ch=1 n=d7 v=0
242559 On ch=1 n=d#6 v=69
242659 On ch=1 n=d#6 v=0
242689 On ch=1 n=d#7 v=48
242729 On ch=1 n=d#7 v=0
242829 On ch=1 n=f6 v=74
242854 Par ch=1 c=64 v=88
242869 Par ch=1 c=64 v=40
242879 On ch=1 n=f6 v=0
242919 Par ch=1 c=64 v=72
242934 Par ch=1 c=64 v=127
242954 On ch=1 n=f6 v=73
243049 On ch=1 n=f6 v=0
243094 On ch=1 n=f7 v=64
243144 On ch=1 n=f7 v=0
243209 On ch=1 n=f6 v=68
243309 On ch=1 n=f6 v=0
243339 On ch=1 n=f7 v=68
243429 On ch=1 n=f7 v=0
243469 On ch=1 n=a#6 v=64
243544 On ch=1 n=a#6 v=0
243594 On ch=1 n=a#5 v=51
243674 On ch=1 n=a#7 v=71
243789 On ch=1 n=a#7 v=0
243819 On ch=1 n=a#5 v=0
243829 On ch=1 n=f6 v=54
243849 On ch=1 n=f7 v=64
243859 On ch=1 n=f5 v=33
243904 On ch=1 n=f6 v=0
243914 On ch=1 n=f5 v=0
243924 On ch=1 n=f7 v=0
244034 On ch=1 n=f6 v=62
244094 On ch=1 n=f6 v=0
244184 On ch=1 n=a#6 v=46
244289 On ch=1 n=a#6 v=0
244339 On ch=1 n=f7 v=68
244414 On ch=1 n=f7 v=0
244514 On ch=1 n=a#6 v=45
244579 On ch=1 n=a#5 v=27
244599 On ch=1 n=a#6 v=0
244659 On ch=1 n=a#7 v=62
244754 On ch=1 n=a#5 v=0
244779 On ch=1 n=a#7 v=0
244824 On ch=1 n=f6 v=28
244834 On ch=1 n=f5 v=30
244839 On ch=1 n=f7 v=59
244874 On ch=1 n=f6 v=0
244889 On ch=1 n=f5 v=0
244909 On ch=1 n=f7 v=0
245009 On ch=1 n=f6 v=49
245079 On ch=1 n=f6 v=0
245149 On ch=1 n=a#6 v=44
245254 On ch=1 n=a#6 v=0
245309 On ch=1 n=f7 v=56
245349 On ch=1 n=f7 v=0
245469 On ch=1 n=a#6 v=33
245544 On ch=1 n=a#6 v=0
245559 On ch=1 n=a#5 v=45
245624 On ch=1 n=a#7 v=45
245669 On ch=1 n=a#5 v=0
245749 On ch=1 n=a#7 v=0
245784 On ch=1 n=f7 v=63
245789 On ch=1 n=f6 v=39
245794 On ch=1 n=f5 v=36
245844 On ch=1 n=f5 v=0
245854 On ch=1 n=f6 v=0
245884 On ch=1 n=f7 v=0
245944 On ch=1 n=a#6 v=50
246044 On ch=1 n=a#5 v=39
246074 On ch=1 n=a#6 v=0
246114 On ch=1 n=a#7 v=59
246124 On ch=1 n=a#5 v=0
246214 On ch=1 n=a#7 v=0
246259 On ch=1 n=f6 v=43
246264 On ch=1 n=f5 v=34
246279 On ch=1 n=f7 v=55
246314 On ch=1 n=f5 v=0
246334 On ch=1 n=f6 v=0
246389 On ch=1 n=f7 v=0
246434 On ch=1 n=a#6 v=40
246514 On ch=1 n=a#5 v=53
246554 On ch=1 n=a#6 v=0
246584 On ch=1 n=a#7 v=62
246594 On ch=1 n=a#5 v=0
246699 On ch=1 n=a#7 v=0
246734 On ch=1 n=f6 v=47
246744 On ch=1 n=f5 v=33
246749 On ch=1 n=f7 v=64
246794 On ch=1 n=f5 v=0
246824 On ch=1 n=f6 v=0
246869 On ch=1 n=f7 v=0
246914 On ch=1 n=a#6 v=44
247009 On ch=1 n=a#5 v=42
247029 On ch=1 n=a#6 v=0
247059 On ch=1 n=a#7 v=60
247109 On ch=1 n=a#5 v=0
247174 On ch=1 n=a#7 v=0
247219 On ch=1 n=f6 v=44
247229 On ch=1 n=f7 v=56
247239 On ch=1 n=f5 v=26
247284 On ch=1 n=f5 v=0
247294 On ch=1 n=f6 v=0
247334 On ch=1 n=f7 v=0
247379 On ch=1 n=a#6 v=44
247494 On ch=1 n=a#5 v=42
247524 On ch=1 n=a#6 v=0
247564 On ch=1 n=a#7 v=59
247579 On ch=1 n=a#5 v=0
247669 On ch=1 n=a#7 v=0
247714 Par ch=1 c=64 v=72
247724 On ch=1 n=f6 v=34
247724 On ch=1 n=f7 v=62
247724 On ch=1 n=f5 v=44
247729 Par ch=1 c=64 v=56
247789 Par ch=1 c=64 v=127
247819 On ch=1 n=f5 v=0
247854 On ch=1 n=f7 v=0
247864 On ch=1 n=f6 v=0
248184 On ch=1 n=a#6 v=45
248194 On ch=1 n=d7 v=42
248204 Par ch=1 c=64 v=88
248214 Par ch=1 c=64 v=72
248254 On ch=1 n=d7 v=0
248259 Par ch=1 c=64 v=127
248279 On ch=1 n=a#6 v=0
248319 On ch=1 n=d#7 v=45
248324 On ch=1 n=b6 v=47
248389 On ch=1 n=b6 v=0
248394 On ch=1 n=d#7 v=0
248434 On ch=1 n=e7 v=57
248454 On ch=1 n=c7 v=40
248499 On ch=1 n=c7 v=0
248519 On ch=1 n=e7 v=0
248554 On ch=1 n=f7 v=62
248579 On ch=1 n=c#7 v=40
248629 On ch=1 n=f7 v=0
248639 On ch=1 n=c#7 v=0
248674 On ch=1 n=f#7 v=55
248699 On ch=1 n=d7 v=48
248749 On ch=1 n=d7 v=0
248764 On ch=1 n=f#7 v=0
248789 On ch=1 n=g7 v=64
248799 On ch=1 n=d#7 v=45
248889 On ch=1 n=d#7 v=0
248894 On ch=1 n=g7 v=0
248914 On ch=1 n=g#7 v=63
248944 On ch=1 n=e7 v=46
248989 On ch=1 n=e7 v=0
248994 On ch=1 n=g#7 v=0
249029 On ch=1 n=a7 v=80
249054 On ch=1 n=f7 v=52
249114 On ch=1 n=f7 v=0
249119 On ch=1 n=a7 v=0
249139 On ch=1 n=a#7 v=64
249164 On ch=1 n=f#7 v=42
249229 On ch=1 n=a#7 v=0
249239 On ch=1 n=f#7 v=0
249259 On ch=1 n=b7 v=76
249279 On ch=1 n=g7 v=55
249354 On ch=1 n=g7 v=0
249354 On ch=1 n=b7 v=0
249374 On ch=1 n=c8 v=79
249379 On ch=1 n=g#7 v=60
249459 On ch=1 n=c8 v=0
249479 On ch=1 n=g#7 v=0
249489 On ch=1 n=c#8 v=79
249509 On ch=1 n=a7 v=64
249589 On ch=1 n=a7 v=0
249589 On ch=1 n=c#8 v=0
249624 On ch=1 n=d8 v=78
249624 On ch=1 n=a#7 v=57
249644 Par ch=1 c=64 v=88
249659 Par ch=1 c=64 v=56
249674 Par ch=1 c=64 v=24
249709 On ch=1 n=a#7 v=0
249719 Par ch=1 c=64 v=72
249734 Par ch=1 c=64 v=127
249744 On ch=1 n=c#8 v=74
249749 On ch=1 n=a7 v=68
249754 On ch=1 n=d8 v=0
249829 On ch=1 n=a7 v=0
249859 On ch=1 n=c#8 v=0
249869 On ch=1 n=c8 v=78
249869 On ch=1 n=g#7 v=54
249944 On ch=1 n=g#7 v=0
249974 On ch=1 n=c8 v=0
249984 On ch=1 n=b7 v=78
249989 On ch=1 n=g7 v=59
250064 On ch=1 n=g7 v=0
250089 On ch=1 n=b7 v=0
250099 On ch=1 n=f#7 v=51
250104 On ch=1 n=a#7 v=62
250174 On ch=1 n=f#7 v=0
250209 On ch=1 n=a#7 v=0
250224 On ch=1 n=f7 v=60
250229 On ch=1 n=a7 v=77
250324 On ch=1 n=a7 v=0
250324 On ch=1 n=f7 v=0
250344 On ch=1 n=e7 v=60
250359 On ch=1 n=g#7 v=63
250434 On ch=1 n=e7 v=0
250439 On ch=1 n=g#7 v=0
250469 On ch=1 n=g7 v=71
250494 On ch=1 n=d#7 v=46
250569 On ch=1 n=g7 v=0
250574 On ch=1 n=d#7 v=0
250589 On ch=1 n=f#7 v=63
250609 On ch=1 n=d7 v=60
250684 On ch=1 n=d7 v=0
250684 On ch=1 n=f#7 v=0
250709 On ch=1 n=f7 v=70
250714 On ch=1 n=c#7 v=55
250794 On ch=1 n=c#7 v=0
250809 On ch=1 n=f7 v=0
250834 On ch=1 n=c7 v=60
250839 On ch=1 n=e7 v=69
250934 On ch=1 n=c7 v=0
250939 On ch=1 n=e7 v=0
250954 On ch=1 n=d#7 v=67
250959 On ch=1 n=b6 v=56
251054 On ch=1 n=d#7 v=0
251059 On ch=1 n=b6 v=0
251084 On ch=1 n=d7 v=69
251104 On ch=1 n=a#6 v=43
251179 On ch=1 n=a#6 v=0
251184 On ch=1 n=d7 v=0
251194 On ch=1 n=c#7 v=65
251209 On ch=1 n=a6 v=54
251289 On ch=1 n=a6 v=0
251289 On ch=1 n=c#7 v=0
251319 On ch=1 n=g#6 v=48
251319 On ch=1 n=c7 v=69
251399 On ch=1 n=g#6 v=0
251419 On ch=1 n=c7 v=0
251434 On ch=1 n=g6 v=57
251444 On ch=1 n=b6 v=74
251529 On ch=1 n=g6 v=0
251554 On ch=1 n=b6 v=0
251554 Par ch=1 c=64 v=88
251564 On ch=1 n=a#6 v=61
251564 On ch=1 n=f#6 v=56
251569 Par ch=1 c=64 v=56
251589 Par ch=1 c=64 v=40
251644 On ch=1 n=f#6 v=0
251649 Par ch=1 c=64 v=88
251669 On ch=1 n=a#6 v=0
251679 Par ch=1 c=64 v=104
251689 On ch=1 n=f6 v=59
251689 On ch=1 n=a6 v=69
251699 Par ch=1 c=64 v=127
251779 On ch=1 n=f6 v=0
251794 On ch=1 n=a6 v=0
251819 On ch=1 n=g#6 v=62
251819 On ch=1 n=e6 v=44
251909 On ch=1 n=g#6 v=0
251924 On ch=1 n=e6 v=0
251924 On ch=1 n=g6 v=70
251964 On ch=1 n=d#6 v=49
252039 On ch=1 n=g6 v=0
252039 On ch=1 n=f#6 v=62
252049 On ch=1 n=d#6 v=0
252079 On ch=1 n=d6 v=65
252109 Par ch=1 c=64 v=104
252134 On ch=1 n=f#6 v=0
252159 On ch=1 n=d6 v=0
252159 On ch=1 n=f6 v=73
252159 Par ch=1 c=64 v=88
252189 On ch=1 n=c#6 v=50
252189 Par ch=1 c=64 v=72
252219 Par ch=1 c=64 v=56
252259 On ch=1 n=f6 v=0
252264 On ch=1 n=c#6 v=0
252284 Par ch=1 c=64 v=40
252294 On ch=1 n=e6 v=69
252294 On ch=1 n=c6 v=66
252389 On ch=1 n=c6 v=0
252394 On ch=1 n=e6 v=0
252414 On ch=1 n=d#6 v=61
252419 On ch=1 n=b5 v=47
252489 Par ch=1 c=64 v=24
252504 On ch=1 n=d#6 v=0
252514 On ch=1 n=b5 v=0
252539 On ch=1 n=d6 v=64
252564 On ch=1 n=a#5 v=38
252639 On ch=1 n=d6 v=0
252644 On ch=1 n=a#5 v=0
252659 On ch=1 n=c#6 v=58
252674 On ch=1 n=a5 v=59
252679 Par ch=1 c=64 v=40
252744 On ch=1 n=a5 v=0
252749 On ch=1 n=c#6 v=0
252789 On ch=1 n=c6 v=65
252789 On ch=1 n=g#5 v=46
252864 On ch=1 n=g#5 v=0
252884 On ch=1 n=c6 v=0
252899 On ch=1 n=g5 v=59
252899 Par ch=1 c=64 v=56
252914 On ch=1 n=b5 v=65
252984 On ch=1 n=g5 v=0
253009 On ch=1 n=b5 v=0
253024 On ch=1 n=f#5 v=46
253029 On ch=1 n=a#5 v=57
253094 On ch=1 n=f#5 v=0
253124 On ch=1 n=a#5 v=0
253139 On ch=1 n=f5 v=56
253154 On ch=1 n=a5 v=70
253199 Par ch=1 c=64 v=72
253239 On ch=1 n=f5 v=0
253254 On ch=1 n=a5 v=0
253269 On ch=1 n=e5 v=44
253284 On ch=1 n=g#5 v=56
253364 On ch=1 n=e5 v=0
253374 On ch=1 n=g#5 v=0
253399 On ch=1 n=g5 v=67
253449 On ch=1 n=d#5 v=26
253509 On ch=1 n=g5 v=0
253514 On ch=1 n=f#5 v=59
253519 On ch=1 n=d#5 v=0
253549 On ch=1 n=d5 v=59
253624 On ch=1 n=f#5 v=0
253639 On ch=1 n=d5 v=0
253644 On ch=1 n=f5 v=67
253669 On ch=1 n=c#5 v=57
253744 On ch=1 n=f5 v=0
253749 On ch=1 n=c#5 v=0
253779 On ch=1 n=e5 v=69
253784 On ch=1 n=c5 v=68
253879 On ch=1 n=c5 v=0
253889 On ch=1 n=e5 v=0
253894 On ch=1 n=d#5 v=70
253904 On ch=1 n=b4 v=55
253909 Par ch=1 c=64 v=56
253964 Par ch=1 c=64 v=40
253994 On ch=1 n=b4 v=0
253994 Par ch=1 c=64 v=24
253999 On ch=1 n=d#5 v=0
254024 On ch=1 n=d5 v=68
254039 On ch=1 n=a#4 v=35
254054 Par ch=1 c=64 v=0
254124 On ch=1 n=a#4 v=0
254124 On ch=1 n=d5 v=0
254139 On ch=1 n=c#5 v=60
254154 On ch=1 n=a4 v=51
254224 On ch=1 n=a4 v=0
254239 On ch=1 n=c#5 v=0
254259 On ch=1 n=g#4 v=46
254264 On ch=1 n=c5 v=68
254334 On ch=1 n=g#4 v=0
254359 On ch=1 n=c5 v=0
254369 On ch=1 n=g4 v=56
254389 On ch=1 n=b4 v=63
254449 On ch=1 n=g4 v=0
254484 On ch=1 n=f#4 v=47
254494 On ch=1 n=b4 v=0
254509 On ch=1 n=a#4 v=56
254564 On ch=1 n=f#4 v=0
254604 On ch=1 n=f4 v=60
254609 On ch=1 n=a#4 v=0
254639 On ch=1 n=a4 v=60
254654 Par ch=1 c=64 v=24
254714 On ch=1 n=f4 v=0
254724 On ch=1 n=e4 v=54
254729 On ch=1 n=a4 v=0
254754 On ch=1 n=g#4 v=54
254829 On ch=1 n=g#4 v=0
254839 On ch=1 n=e4 v=0
254864 On ch=1 n=g4 v=69
254879 On ch=1 n=d#4 v=49
254959 On ch=1 n=g4 v=0
254964 On ch=1 n=d#4 v=0
254979 On ch=1 n=f#4 v=62
255004 On ch=1 n=d4 v=58
255079 On ch=1 n=f#4 v=0
255094 On ch=1 n=d4 v=0
255109 On ch=1 n=f4 v=69
255124 On ch=1 n=c#4 v=58
255194 On ch=1 n=c#4 v=0
255209 On ch=1 n=f4 v=0
255239 On ch=1 n=c4 v=68
255249 On ch=1 n=e4 v=70
255349 On ch=1 n=c4 v=0
255354 On ch=1 n=e4 v=0
255369 On ch=1 n=d#4 v=65
255384 On ch=1 n=b3 v=52
255399 Par ch=1 c=64 v=40
255464 On ch=1 n=d#4 v=0
255479 On ch=1 n=b3 v=0
255494 On ch=1 n=d4 v=72
255519 On ch=1 n=a#3 v=40
255594 On ch=1 n=a#3 v=0
255594 On ch=1 n=d4 v=0
255619 On ch=1 n=c#4 v=67
255624 On ch=1 n=a3 v=64
255704 On ch=1 n=a3 v=0
255724 On ch=1 n=c#4 v=0
255754 On ch=1 n=g#3 v=46
255764 On ch=1 n=c4 v=74
255829 On ch=1 n=g#3 v=0
255854 On ch=1 n=c4 v=0
255879 On ch=1 n=g3 v=35
255899 On ch=1 n=b3 v=70
255959 On ch=1 n=g3 v=0
255999 On ch=1 n=b3 v=0
255999 On ch=1 n=f#3 v=45
256019 On ch=1 n=a#3 v=54
256034 Par ch=1 c=64 v=56
256079 On ch=1 n=f#3 v=0
256124 On ch=1 n=a#3 v=0
256144 On ch=1 n=f3 v=53
256149 On ch=1 n=a3 v=54
256254 Par ch=1 c=64 v=72
256284 On ch=1 n=a3 v=0
256284 On ch=1 n=g#3 v=63
256284 On ch=1 n=e3 v=46
256289 On ch=1 n=f3 v=0
256379 Par ch=1 c=64 v=56
256394 On ch=1 n=g#3 v=0
256394 Par ch=1 c=64 v=24
256414 Par ch=1 c=64 v=0
256419 On ch=1 n=a3 v=61
256419 On ch=1 n=d#3 v=48
256489 Par ch=1 c=64 v=24
256509 Par ch=1 c=64 v=40
256524 On ch=1 n=e3 v=0
256524 Par ch=1 c=64 v=72
256529 On ch=1 n=d#3 v=0
256539 On ch=1 n=a3 v=0
256564 On ch=1 n=a#3 v=63
256564 On ch=1 n=d3 v=46
256664 On ch=1 n=a#3 v=0
256664 Par ch=1 c=64 v=40
256684 On ch=1 n=b3 v=72
256729 Par ch=1 c=64 v=56
256754 On ch=1 n=d3 v=0
256784 On ch=1 n=b3 v=0
256829 On ch=1 n=c4 v=74
256829 On ch=1 n=c#3 v=42
256874 Par ch=1 c=64 v=72
256919 Par ch=1 c=64 v=40
256934 On ch=1 n=c4 v=0
256934 Par ch=1 c=64 v=24
256949 Par ch=1 c=64 v=0
256979 On ch=1 n=c#4 v=60
256979 On ch=1 n=c3 v=45
256999 Par ch=1 c=64 v=40
257014 On ch=1 n=c#3 v=0
257014 Par ch=1 c=64 v=56
257029 Par ch=1 c=64 v=72
257044 Par ch=1 c=64 v=88
257094 On ch=1 n=c#4 v=0
257094 Par ch=1 c=64 v=40
257109 Par ch=1 c=64 v=24
257124 Par ch=1 c=64 v=0
257144 On ch=1 n=d4 v=70
257169 Par ch=1 c=64 v=56
257184 On ch=1 n=c3 v=0
257189 Par ch=1 c=64 v=72
257214 On ch=1 n=b2 v=35
257234 Par ch=1 c=64 v=24
257254 Par ch=1 c=64 v=0
257299 On ch=1 n=d4 v=0
257299 Par ch=1 c=64 v=56
257314 Par ch=1 c=64 v=72
257324 On ch=1 n=d#4 v=67
257324 On ch=1 n=a#2 v=48
257329 Par ch=1 c=64 v=88
257349 Par ch=1 c=64 v=104
257389 Par ch=1 c=64 v=72
257409 Par ch=1 c=64 v=40
257414 On ch=1 n=b2 v=0
257434 On ch=1 n=a#2 v=0
257449 On ch=1 n=d#4 v=0
257474 Par ch=1 c=64 v=72
257489 Par ch=1 c=64 v=88
257504 Par ch=1 c=64 v=104
257524 On ch=1 n=e4 v=62
257524 On ch=1 n=a2 v=31
257549 Par ch=1 c=64 v=72
257564 Par ch=1 c=64 v=40
257584 Par ch=1 c=64 v=0
257634 Par ch=1 c=64 v=56
257649 Par ch=1 c=64 v=88
257664 Par ch=1 c=64 v=104
257679 Par ch=1 c=64 v=127
257749 On ch=1 n=e4 v=0
257824 On ch=1 n=a2 v=0
257864 Par ch=1 c=64 v=56
257874 On ch=1 n=f4 v=58
257879 Par ch=1 c=64 v=72
257889 On ch=1 n=d4 v=35
257889 On ch=1 n=g#2 v=32
257894 Par ch=1 c=64 v=88
257904 On ch=1 n=b3 v=33
257909 Par ch=1 c=64 v=127
257969 On ch=1 n=b3 v=0
257984 On ch=1 n=g#2 v=0
257994 On ch=1 n=f4 v=0
258004 On ch=1 n=d4 v=0
258019 On ch=1 n=d3 v=39
258114 On ch=1 n=d3 v=0
258174 On ch=1 n=f3 v=33
258219 On ch=1 n=f3 v=0
258279 On ch=1 n=e4 v=62
258289 On ch=1 n=c#4 v=43
258289 On ch=1 n=a#3 v=33
258289 On ch=1 n=g#2 v=32
258289 Par ch=1 c=64 v=72
258304 Par ch=1 c=64 v=0
258359 On ch=1 n=a#3 v=0
258364 On ch=1 n=c#4 v=0
258364 Par ch=1 c=64 v=24
258379 Par ch=1 c=64 v=72
258384 On ch=1 n=g#2 v=0
258384 On ch=1 n=e4 v=0
258389 On ch=1 n=c#3 v=36
258394 Par ch=1 c=64 v=104
258409 Par ch=1 c=64 v=127
258459 On ch=1 n=c#3 v=0
258464 On ch=1 n=g4 v=63
258514 On ch=1 n=e3 v=34
258534 On ch=1 n=g4 v=0
258559 On ch=1 n=e3 v=0
258634 Par ch=1 c=64 v=104
258649 On ch=1 n=f4 v=74
258654 Par ch=1 c=64 v=40
258664 On ch=1 n=g#2 v=34
258669 Par ch=1 c=64 v=0
258679 On ch=1 n=d4 v=50
258689 On ch=1 n=b3 v=35
258724 On ch=1 n=b3 v=0
258729 Par ch=1 c=64 v=56
258744 Par ch=1 c=64 v=88
258749 On ch=1 n=g#2 v=0
258759 On ch=1 n=d4 v=0
258759 Par ch=1 c=64 v=127
258769 On ch=1 n=d3 v=39
258779 On ch=1 n=f4 v=0
258839 On ch=1 n=d3 v=0
258884 On ch=1 n=f3 v=35
258939 On ch=1 n=f3 v=0
259019 Par ch=1 c=64 v=104
259029 On ch=1 n=e4 v=67
259034 On ch=1 n=g#2 v=31
259034 Par ch=1 c=64 v=40
259044 On ch=1 n=a#3 v=34
259044 On ch=1 n=c#4 v=43
259049 Par ch=1 c=64 v=0
259094 Par ch=1 c=64 v=24
259109 On ch=1 n=c#3 v=42
259109 Par ch=1 c=64 v=72
259119 On ch=1 n=c#4 v=0
259119 On ch=1 n=a#3 v=0
259124 On ch=1 n=g#2 v=0
259124 Par ch=1 c=64 v=127
259154 On ch=1 n=e4 v=0
259179 On ch=1 n=c#3 v=0
259209 On ch=1 n=g4 v=67
259229 On ch=1 n=e3 v=39
259284 On ch=1 n=g4 v=0
259299 On ch=1 n=e3 v=0
259384 Par ch=1 c=64 v=104
259399 Par ch=1 c=64 v=40
259409 On ch=1 n=g#2 v=34
259409 On ch=1 n=f4 v=71
259414 Par ch=1 c=64 v=0
259434 On ch=1 n=d4 v=41
259444 On ch=1 n=b3 v=41
259474 Par ch=1 c=64 v=40
259484 On ch=1 n=b3 v=0
259489 Par ch=1 c=64 v=88
259494 On ch=1 n=g#2 v=0
259504 On ch=1 n=d3 v=42
259504 Par ch=1 c=64 v=127
259539 On ch=1 n=d4 v=0
259589 On ch=1 n=d3 v=0
259629 On ch=1 n=f4 v=0
259639 On ch=1 n=f3 v=37
259699 On ch=1 n=f3 v=0
259784 On ch=1 n=g#2 v=36
259789 Par ch=1 c=64 v=56
259794 On ch=1 n=e4 v=64
259799 On ch=1 n=c#4 v=48
259804 On ch=1 n=a#3 v=32
259804 Par ch=1 c=64 v=24
259819 Par ch=1 c=64 v=0
259849 Par ch=1 c=64 v=40
259864 On ch=1 n=c#3 v=47
259869 Par ch=1 c=64 v=72
259879 Par ch=1 c=64 v=104
259899 Par ch=1 c=64 v=127
259919 On ch=1 n=g#2 v=0
259969 On ch=1 n=c#3 v=0
259969 On ch=1 n=c#4 v=0
259999 On ch=1 n=e3 v=44
260004 On ch=1 n=a#3 v=0
260064 On ch=1 n=e4 v=0
260099 On ch=1 n=e3 v=0
260169 On ch=1 n=f4 v=73
260169 Par ch=1 c=64 v=72
260174 On ch=1 n=g#2 v=54
260184 Par ch=1 c=64 v=0
260194 On ch=1 n=d4 v=50
260199 On ch=1 n=b3 v=41
260264 Par ch=1 c=64 v=24
260279 Par ch=1 c=64 v=72
260284 On ch=1 n=g#2 v=0
260294 Par ch=1 c=64 v=127
260304 On ch=1 n=d3 v=54
260394 On ch=1 n=d3 v=0
260419 On ch=1 n=f3 v=52
260444 On ch=1 n=b3 v=0
260514 On ch=1 n=f3 v=0
260529 On ch=1 n=d3 v=51
260619 On ch=1 n=d3 v=0
260629 On ch=1 n=b2 v=51
260734 On ch=1 n=b2 v=0
260734 On ch=1 n=g#2 v=48
260784 On ch=1 n=g#2 v=0
260789 On ch=1 n=d4 v=0
260884 Par ch=1 c=64 v=72
260899 On ch=1 n=f2 v=55
260899 Par ch=1 c=64 v=24
260909 On ch=1 n=f4 v=0
260914 Par ch=1 c=64 v=0
260954 On ch=1 n=f2 v=0
260959 Par ch=1 c=64 v=72
260974 Par ch=1 c=64 v=104
260989 On ch=1 n=e2 v=55
260989 Par ch=1 c=64 v=127
261074 On ch=1 n=e2 v=0
261074 On ch=1 n=f2 v=66
261169 On ch=1 n=f2 v=0
261169 On ch=1 n=f#2 v=61
261239 On ch=1 n=f#2 v=0
261269 On ch=1 n=g2 v=56
261314 On ch=1 n=g2 v=0
261354 On ch=1 n=g#2 v=59
261419 On ch=1 n=g#2 v=0
261444 On ch=1 n=a2 v=62
261534 On ch=1 n=a#2 v=71
261539 On ch=1 n=a2 v=0
261634 On ch=1 n=b2 v=75
261639 On ch=1 n=a#2 v=0
261709 On ch=1 n=b2 v=0
261714 On ch=1 n=c3 v=77
261804 On ch=1 n=c3 v=0
261804 On ch=1 n=c#3 v=82
261904 On ch=1 n=c#3 v=0
261909 On ch=1 n=d3 v=93
261959 Par ch=1 c=64 v=88
261974 Par ch=1 c=64 v=0
262019 On ch=1 n=c#3 v=81
262024 On ch=1 n=d3 v=0
262054 Par ch=1 c=64 v=56
262069 Par ch=1 c=64 v=127
262099 On ch=1 n=c#3 v=0
262124 On ch=1 n=c3 v=78
262219 On ch=1 n=c3 v=0
262224 On ch=1 n=b2 v=72
262289 On ch=1 n=b2 v=0
262304 On ch=1 n=a#2 v=70
262374 On ch=1 n=a#2 v=0
262399 On ch=1 n=a2 v=64
262469 On ch=1 n=a2 v=0
262489 On ch=1 n=g#2 v=60
262559 On ch=1 n=g#2 v=0
262574 On ch=1 n=a2 v=66
262669 On ch=1 n=a#2 v=65
262684 On ch=1 n=a2 v=0
262769 On ch=1 n=b2 v=71
262779 Par ch=1 c=64 v=88
262794 On ch=1 n=a#2 v=0
262794 Par ch=1 c=64 v=40
262809 Par ch=1 c=64 v=0
262824 Par ch=1 c=64 v=24
262834 On ch=1 n=b2 v=0
262839 Par ch=1 c=64 v=56
262849 On ch=1 n=c3 v=68
262854 Par ch=1 c=64 v=88
262869 Par ch=1 c=64 v=127
262929 On ch=1 n=c3 v=0
262939 On ch=1 n=c#3 v=77
263009 On ch=1 n=c#3 v=0
263024 On ch=1 n=d3 v=71
263114 On ch=1 n=d#3 v=85
263134 On ch=1 n=d3 v=0
263204 On ch=1 n=d#3 v=0
263209 On ch=1 n=e3 v=99
263304 On ch=1 n=f3 v=94
263324 Par ch=1 c=64 v=40
263334 On ch=1 n=e3 v=0
263339 Par ch=1 c=64 v=0
263429 Par ch=1 c=64 v=40
263444 On ch=1 n=e3 v=86
263444 Par ch=1 c=64 v=127
263459 On ch=1 n=f3 v=0
263539 On ch=1 n=e3 v=0
263554 On ch=1 n=d#3 v=82
263634 On ch=1 n=d#3 v=0
263664 On ch=1 n=d3 v=78
263724 On ch=1 n=d3 v=0
263744 On ch=1 n=c#3 v=72
263809 On ch=1 n=c#3 v=0
263829 On ch=1 n=c3 v=69
263939 On ch=1 n=c3 v=0
263939 On ch=1 n=b2 v=61
264009 On ch=1 n=b2 v=0
264009 On ch=1 n=a#2 v=68
264094 On ch=1 n=a#2 v=0
264154 On ch=1 n=f#4 v=74
264174 On ch=1 n=d#4 v=44
264179 Par ch=1 c=64 v=104
264184 On ch=1 n=a2 v=48
264194 On ch=1 n=c4 v=39
264194 Par ch=1 c=64 v=40
264209 Par ch=1 c=64 v=0
264284 On ch=1 n=a2 v=0
264289 On ch=1 n=d#3 v=49
264299 Par ch=1 c=64 v=40
264314 Par ch=1 c=64 v=104
264324 On ch=1 n=c4 v=0
264324 Par ch=1 c=64 v=127
264334 On ch=1 n=d#4 v=0
264374 On ch=1 n=d#3 v=0
264399 On ch=1 n=f#3 v=39
264439 On ch=1 n=f#4 v=0
264484 On ch=1 n=f#3 v=0
264539 On ch=1 n=f4 v=71
264559 On ch=1 n=d4 v=47
264559 On ch=1 n=b3 v=34
264564 On ch=1 n=a2 v=40
264569 Par ch=1 c=64 v=56
264584 Par ch=1 c=64 v=0
264609 On ch=1 n=a2 v=0
264639 On ch=1 n=d3 v=54
264644 Par ch=1 c=64 v=24
264649 On ch=1 n=b3 v=0
264659 On ch=1 n=d4 v=0
264659 Par ch=1 c=64 v=72
264674 Par ch=1 c=64 v=127
264714 On ch=1 n=g#4 v=73
264719 On ch=1 n=d3 v=0
264744 On ch=1 n=f4 v=0
264744 On ch=1 n=f3 v=45
264829 On ch=1 n=g#4 v=0
264859 On ch=1 n=f3 v=0
264904 On ch=1 n=f#4 v=72
264919 Par ch=1 c=64 v=56
264924 On ch=1 n=d#4 v=51
264924 On ch=1 n=a2 v=32
264934 On ch=1 n=c4 v=51
264934 Par ch=1 c=64 v=0
264969 On ch=1 n=a2 v=0
264974 On ch=1 n=c4 v=0
264984 On ch=1 n=d#3 v=47
264994 Par ch=1 c=64 v=40
265009 Par ch=1 c=64 v=88
265014 On ch=1 n=d#4 v=0
265024 Par ch=1 c=64 v=127
265084 On ch=1 n=d#3 v=0
265114 On ch=1 n=f#3 v=35
265169 On ch=1 n=f#4 v=0
265224 On ch=1 n=f#3 v=0
265269 On ch=1 n=f4 v=76
265284 Par ch=1 c=64 v=104
265289 On ch=1 n=d4 v=51
265294 On ch=1 n=b3 v=38
265294 On ch=1 n=a2 v=36
265299 Par ch=1 c=64 v=40
265314 Par ch=1 c=64 v=0
265339 On ch=1 n=b3 v=0
265344 On ch=1 n=a2 v=0
265359 Par ch=1 c=64 v=24
265364 On ch=1 n=d4 v=0
265364 On ch=1 n=d3 v=44
265369 Par ch=1 c=64 v=56
265389 Par ch=1 c=64 v=104
265404 Par ch=1 c=64 v=127
265424 On ch=1 n=d3 v=0
265444 On ch=1 n=g#4 v=71
265469 On ch=1 n=f4 v=0
265469 On ch=1 n=f3 v=33
265554 On ch=1 n=f3 v=0
265554 On ch=1 n=g#4 v=0
265619 Par ch=1 c=64 v=56
265634 Par ch=1 c=64 v=0
265644 On ch=1 n=f#4 v=74
265654 On ch=1 n=d#4 v=56
265654 On ch=1 n=a2 v=40
265669 On ch=1 n=c4 v=55
265694 Par ch=1 c=64 v=56
265704 Par ch=1 c=64 v=104
265724 On ch=1 n=a2 v=0
265724 Par ch=1 c=64 v=127
265734 On ch=1 n=d#4 v=0
265734 On ch=1 n=d#3 v=50
265749 On ch=1 n=c4 v=0
265834 On ch=1 n=d#3 v=0
265859 On ch=1 n=f#3 v=45
265879 On ch=1 n=f#4 v=0
265969 On ch=1 n=f#3 v=0
266014 On ch=1 n=f4 v=82
266014 Par ch=1 c=64 v=72
266029 On ch=1 n=d4 v=58
266029 Par ch=1 c=64 v=0
266034 On ch=1 n=b3 v=47
266044 On ch=1 n=a2 v=41
266069 On ch=1 n=b3 v=0
266104 Par ch=1 c=64 v=40
266109 On ch=1 n=d4 v=0
266119 On ch=1 n=a2 v=0
266119 Par ch=1 c=64 v=88
266124 On ch=1 n=d3 v=54
266134 Par ch=1 c=64 v=127
266184 On ch=1 n=d3 v=0
266224 On ch=1 n=f3 v=43
266279 On ch=1 n=f3 v=0
266279 On ch=1 n=f4 v=0
266374 On ch=1 n=f#4 v=85
266389 Par ch=1 c=64 v=56
266399 On ch=1 n=d#4 v=45
266404 On ch=1 n=c4 v=53
266404 Par ch=1 c=64 v=0
266414 On ch=1 n=a2 v=42
266494 Par ch=1 c=64 v=56
266504 On ch=1 n=a2 v=0
266509 On ch=1 n=d#3 v=56
266509 Par ch=1 c=64 v=127
266604 On ch=1 n=d#3 v=0
266629 On ch=1 n=f#3 v=49
266719 On ch=1 n=d#3 v=35
266724 On ch=1 n=f#3 v=0
266804 On ch=1 n=d#3 v=0
266814 On ch=1 n=c3 v=44
266929 On ch=1 n=c3 v=0
266934 On ch=1 n=a2 v=55
267009 On ch=1 n=a2 v=0
267104 On ch=1 n=f#2 v=62
267119 Par ch=1 c=64 v=104
267124 On ch=1 n=c4 v=0
267129 Par ch=1 c=64 v=56
267144 On ch=1 n=d#4 v=0
267149 Par ch=1 c=64 v=40
267164 Par ch=1 c=64 v=56
267179 Par ch=1 c=64 v=72
267189 On ch=1 n=f#2 v=0
267189 Par ch=1 c=64 v=127
267204 On ch=1 n=f#4 v=0
267214 On ch=1 n=f2 v=55
267299 On ch=1 n=f#2 v=71
267319 On ch=1 n=f2 v=0
267374 On ch=1 n=f#2 v=0
267389 On ch=1 n=f2 v=34
267454 On ch=1 n=f2 v=0
267469 On ch=1 n=g2 v=63
267559 On ch=1 n=g2 v=0
267569 On ch=1 n=g#2 v=73
267649 On ch=1 n=g#2 v=0
267669 On ch=1 n=a2 v=71
267749 On ch=1 n=a2 v=0
267749 On ch=1 n=a#2 v=70
267839 On ch=1 n=b2 v=84
267849 On ch=1 n=a#2 v=0
267919 On ch=1 n=b2 v=0
267929 On ch=1 n=c3 v=71
268019 On ch=1 n=c3 v=0
268019 On ch=1 n=c#3 v=80
268109 On ch=1 n=c#3 v=0
268114 On ch=1 n=d3 v=85
268224 On ch=1 n=d#3 v=90
268249 On ch=1 n=d3 v=0
268299 Par ch=1 c=64 v=88
268314 Par ch=1 c=64 v=0
268344 On ch=1 n=d#3 v=0
268354 On ch=1 n=d3 v=85
268374 Par ch=1 c=64 v=24
268389 Par ch=1 c=64 v=72
268404 Par ch=1 c=64 v=127
268429 On ch=1 n=d3 v=0
268459 On ch=1 n=c#3 v=54
268524 On ch=1 n=c#3 v=0
268549 On ch=1 n=c3 v=61
268639 On ch=1 n=b2 v=58
268644 On ch=1 n=c3 v=0
268719 On ch=1 n=b2 v=0
268724 On ch=1 n=a#2 v=54
268729 Par ch=1 c=64 v=56
268739 Par ch=1 c=64 v=0
268799 On ch=1 n=a#2 v=0
268799 Par ch=1 c=64 v=24
268819 On ch=1 n=a2 v=61
268819 Par ch=1 c=64 v=72
268834 Par ch=1 c=64 v=127
268899 On ch=1 n=a#2 v=64
268914 On ch=1 n=a2 v=0
268994 On ch=1 n=b2 v=65
269004 On ch=1 n=a#2 v=0
269049 On ch=1 n=b2 v=0
269069 On ch=1 n=c3 v=62
269139 On ch=1 n=c3 v=0
269154 On ch=1 n=c#3 v=73
269229 On ch=1 n=c#3 v=0
269244 On ch=1 n=d3 v=80
269329 On ch=1 n=d#3 v=83
269354 On ch=1 n=d3 v=0
269419 On ch=1 n=e3 v=92
269434 On ch=1 n=d#3 v=0
269504 On ch=1 n=f3 v=86
269514 On ch=1 n=e3 v=0
269609 On ch=1 n=f#3 v=91
269609 Par ch=1 c=64 v=56
269624 Par ch=1 c=64 v=0
269644 On ch=1 n=f3 v=0
269714 Par ch=1 c=64 v=88
269729 On ch=1 n=f#3 v=0
269729 Par ch=1 c=64 v=127
269754 On ch=1 n=f3 v=70
269864 On ch=1 n=e3 v=61
269869 On ch=1 n=f3 v=0
269934 On ch=1 n=e3 v=0
269949 On ch=1 n=d#3 v=55
270014 On ch=1 n=d#3 v=0
270044 On ch=1 n=d3 v=64
270124 On ch=1 n=c#3 v=46
270129 On ch=1 n=d3 v=0
270154 On ch=1 n=c#3 v=0
270174 On ch=1 n=c3 v=52
270234 On ch=1 n=a#2 v=51
270249 On ch=1 n=c3 v=0
270264 On ch=1 n=b2 v=54
270284 On ch=1 n=a#2 v=0
270324 On ch=1 n=b2 v=0
270399 On ch=1 n=g4 v=77
270409 On ch=1 n=c#4 v=44
270424 Par ch=1 c=64 v=104
270429 On ch=1 n=e4 v=44
270434 On ch=1 n=a#2 v=50
270439 Par ch=1 c=64 v=40
270454 Par ch=1 c=64 v=0
270529 Par ch=1 c=64 v=56
270544 On ch=1 n=a#2 v=0
270544 On ch=1 n=e3 v=56
270549 Par ch=1 c=64 v=127
270564 On ch=1 n=e4 v=0
270609 On ch=1 n=e3 v=0
270644 On ch=1 n=c#4 v=0
270644 On ch=1 n=g3 v=58
270724 On ch=1 n=g4 v=0
270754 On ch=1 n=g3 v=0
270754 On ch=1 n=f#4 v=74
270784 On ch=1 n=d#4 v=44
270789 Par ch=1 c=64 v=72
270804 Par ch=1 c=64 v=0
270809 On ch=1 n=c4 v=37
270809 On ch=1 n=a#2 v=60
270839 On ch=1 n=a#2 v=0
270844 On ch=1 n=c4 v=0
270864 Par ch=1 c=64 v=24
270879 Par ch=1 c=64 v=72
270884 On ch=1 n=d#3 v=47
270894 Par ch=1 c=64 v=127
270904 On ch=1 n=d#4 v=0
270939 On ch=1 n=a4 v=77
270954 On ch=1 n=d#3 v=0
270964 On ch=1 n=f#4 v=0
270999 On ch=1 n=f#3 v=44
271049 On ch=1 n=a4 v=0
271104 On ch=1 n=f#3 v=0
271129 On ch=1 n=g4 v=83
271144 On ch=1 n=c#4 v=47
271149 On ch=1 n=e4 v=61
271154 On ch=1 n=a#2 v=42
271154 Par ch=1 c=64 v=88
271169 Par ch=1 c=64 v=0
271244 Par ch=1 c=64 v=24
271259 On ch=1 n=e3 v=54
271259 Par ch=1 c=64 v=88
271264 On ch=1 n=a#2 v=0
271274 Par ch=1 c=64 v=127
271354 On ch=1 n=e3 v=0
271374 On ch=1 n=g3 v=59
271479 On ch=1 n=g3 v=0
271484 On ch=1 n=e3 v=52
271584 On ch=1 n=c#3 v=59
271599 On ch=1 n=e3 v=0
271664 On ch=1 n=e4 v=0
271674 On ch=1 n=a#2 v=56
271704 On ch=1 n=c#3 v=0
271764 On ch=1 n=g4 v=0
271789 On ch=1 n=c#4 v=0
271804 On ch=1 n=a#2 v=0
271849 On ch=1 n=g#4 v=86
271864 On ch=1 n=f4 v=65
271874 On ch=1 n=d4 v=56
271879 Par ch=1 c=64 v=56
271884 On ch=1 n=b2 v=59
271894 Par ch=1 c=64 v=0
271904 On ch=1 n=d4 v=0
271969 Par ch=1 c=64 v=56
271979 On ch=1 n=b2 v=0
271984 Par ch=1 c=64 v=104
271999 Par ch=1 c=64 v=127
272004 On ch=1 n=f3 v=59
272059 On ch=1 n=f4 v=0
272089 On ch=1 n=f3 v=0
272124 On ch=1 n=g#3 v=36
272174 On ch=1 n=g#4 v=0
272214 On ch=1 n=g#3 v=0
272214 On ch=1 n=g4 v=86
272229 On ch=1 n=c#4 v=55
272229 On ch=1 n=e4 v=70
272244 On ch=1 n=b2 v=55
272244 Par ch=1 c=64 v=40
272259 Par ch=1 c=64 v=0
272309 On ch=1 n=c#4 v=0
272314 On ch=1 n=e4 v=0
272319 Par ch=1 c=64 v=56
272324 On ch=1 n=e3 v=53
272329 On ch=1 n=b2 v=0
272334 Par ch=1 c=64 v=127
272384 On ch=1 n=a#4 v=84
272399 On ch=1 n=e3 v=0
272419 On ch=1 n=c#4 v=23
272424 On ch=1 n=g3 v=53
272439 On ch=1 n=g4 v=0
272449 On ch=1 n=c#4 v=0
272494 On ch=1 n=a#4 v=0
272514 On ch=1 n=g3 v=0
272574 On ch=1 n=g#4 v=89
272579 Par ch=1 c=64 v=56
272594 On ch=1 n=b2 v=53
272594 Par ch=1 c=64 v=0
272599 On ch=1 n=f4 v=56
272609 On ch=1 n=d4 v=53
272649 On ch=1 n=d4 v=0
272669 Par ch=1 c=64 v=72
272674 On ch=1 n=f3 v=53
272679 On ch=1 n=b2 v=0
272684 Par ch=1 c=64 v=127
272779 On ch=1 n=f3 v=0
272794 On ch=1 n=g#3 v=50
272894 On ch=1 n=g#3 v=0
272894 On ch=1 n=f3 v=55
272999 On ch=1 n=f3 v=0
273004 On ch=1 n=d3 v=60
273119 On ch=1 n=f4 v=0
273124 On ch=1 n=d3 v=0
273134 On ch=1 n=b2 v=62
273184 On ch=1 n=g#4 v=0
273224 On ch=1 n=b2 v=0
273239 On ch=1 n=g#2 v=40
273249 On ch=1 n=g#3 v=39
273279 Par ch=1 c=64 v=24
273289 Par ch=1 c=64 v=72
273304 Par ch=1 c=64 v=127
273334 On ch=1 n=g#2 v=0
273339 On ch=1 n=g#3 v=0
273379 On ch=1 n=g3 v=45
273384 On ch=1 n=g2 v=42
273484 On ch=1 n=g3 v=0
273489 On ch=1 n=g#2 v=56
273499 On ch=1 n=g#3 v=52
273504 On ch=1 n=g2 v=0
273584 On ch=1 n=g#2 v=0
273594 On ch=1 n=g#3 v=0
273619 On ch=1 n=a3 v=64
273619 On ch=1 n=a2 v=52
273704 On ch=1 n=a3 v=0
273734 On ch=1 n=a#3 v=65
273734 On ch=1 n=a#2 v=48
273739 On ch=1 n=a2 v=0
273819 On ch=1 n=a#3 v=0
273849 On ch=1 n=b3 v=75
273864 On ch=1 n=b2 v=67
273869 On ch=1 n=a#2 v=0
273939 On ch=1 n=b2 v=0
273949 On ch=1 n=b3 v=0
273964 On ch=1 n=c4 v=87
273969 On ch=1 n=c3 v=68
274059 On ch=1 n=c3 v=0
274059 On ch=1 n=c4 v=0
274079 On ch=1 n=c#4 v=82
274079 On ch=1 n=c#3 v=69
274164 On ch=1 n=c#3 v=0
274179 On ch=1 n=c#4 v=0
274189 On ch=1 n=d3 v=74
274194 On ch=1 n=d4 v=90
274299 On ch=1 n=d#3 v=85
274304 On ch=1 n=d#4 v=91
274309 On ch=1 n=d4 v=0
274319 On ch=1 n=d3 v=0
274399 On ch=1 n=d#3 v=0
274414 On ch=1 n=d#4 v=0
274414 On ch=1 n=e4 v=97
274414 On ch=1 n=e3 v=96
274514 On ch=1 n=e4 v=0
274549 On ch=1 n=f4 v=99
274549 On ch=1 n=f3 v=94
274554 On ch=1 n=e3 v=0
274564 Par ch=1 c=64 v=88
274579 On ch=1 n=e4 v=40
274579 On ch=1 n=g4 v=44
274584 Par ch=1 c=64 v=0
274609 On ch=1 n=e4 v=0
274614 On ch=1 n=g4 v=0
274674 Par ch=1 c=64 v=56
274679 On ch=1 n=e4 v=92
274689 On ch=1 n=f3 v=0
274689 On ch=1 n=e3 v=78
274689 Par ch=1 c=64 v=127
274714 On ch=1 n=f4 v=0
274794 On ch=1 n=e3 v=0
274804 On ch=1 n=d#4 v=77
274814 On ch=1 n=d#3 v=58
274829 On ch=1 n=e4 v=0
274899 On ch=1 n=d#3 v=0
274904 On ch=1 n=d#4 v=0
274929 On ch=1 n=d4 v=79
274934 On ch=1 n=d3 v=64
275004 On ch=1 n=d3 v=0
275024 On ch=1 n=d4 v=0
275044 On ch=1 n=c#3 v=47
275054 On ch=1 n=c#4 v=69
275114 On ch=1 n=c#3 v=0
275149 On ch=1 n=c#4 v=0
275159 On ch=1 n=c3 v=54
275179 On ch=1 n=c4 v=74
275269 On ch=1 n=c3 v=0
275289 On ch=1 n=c4 v=0
275294 Par ch=1 c=64 v=72
275299 On ch=1 n=b3 v=70
275309 On ch=1 n=b2 v=59
275309 Par ch=1 c=64 v=24
275324 Par ch=1 c=64 v=0
275394 On ch=1 n=b3 v=0
275399 On ch=1 n=b2 v=0
275399 Par ch=1 c=64 v=56
275414 Par ch=1 c=64 v=88
275419 On ch=1 n=c4 v=71
275424 Par ch=1 c=64 v=127
275439 On ch=1 n=c3 v=51
275514 On ch=1 n=c4 v=0
275519 On ch=1 n=c3 v=0
275539 On ch=1 n=c#4 v=67
275549 On ch=1 n=c#3 v=50
275619 On ch=1 n=c#3 v=0
275624 On ch=1 n=c#4 v=0
275649 On ch=1 n=d4 v=81
275654 On ch=1 n=d3 v=63
275754 On ch=1 n=d3 v=0
275764 On ch=1 n=d#3 v=67
275769 On ch=1 n=d4 v=0
275769 On ch=1 n=d#4 v=85
275864 On ch=1 n=d#4 v=0
275869 On ch=1 n=d#3 v=0
275884 On ch=1 n=e3 v=79
275884 On ch=1 n=e4 v=83
275969 On ch=1 n=e3 v=0
275989 On ch=1 n=f3 v=70
275994 On ch=1 n=f4 v=93
276014 On ch=1 n=e4 v=0
276089 On ch=1 n=f3 v=0
276099 On ch=1 n=f4 v=0
276099 On ch=1 n=f#3 v=77
276109 On ch=1 n=f#4 v=85
276194 On ch=1 n=f#3 v=0
276204 On ch=1 n=g3 v=88
276214 On ch=1 n=f#4 v=0
276214 On ch=1 n=g4 v=102
276339 On ch=1 n=g#3 v=97
276344 On ch=1 n=g#4 v=97
276349 Par ch=1 c=64 v=104
276364 Par ch=1 c=64 v=24
276369 On ch=1 n=g4 v=0
276374 On ch=1 n=g3 v=0
276379 Par ch=1 c=64 v=0
276464 On ch=1 n=g4 v=92
276479 On ch=1 n=g#4 v=0
276479 Par ch=1 c=64 v=104
276489 On ch=1 n=g#3 v=0
276499 On ch=1 n=g3 v=78
276499 Par ch=1 c=64 v=127
276584 On ch=1 n=g3 v=0
276594 On ch=1 n=f#4 v=85
276599 On ch=1 n=f#3 v=59
276614 On ch=1 n=g4 v=0
276684 On ch=1 n=f#3 v=0
276709 On ch=1 n=f#4 v=0
276714 On ch=1 n=f4 v=84
276719 On ch=1 n=f3 v=66
276819 On ch=1 n=f3 v=0
276829 On ch=1 n=f4 v=0
276844 On ch=1 n=e3 v=63
276849 On ch=1 n=e4 v=75
276944 On ch=1 n=e3 v=0
276964 On ch=1 n=e4 v=0
276969 On ch=1 n=d#4 v=68
276974 On ch=1 n=d#3 v=56
277059 On ch=1 n=d#4 v=0
277069 On ch=1 n=d#3 v=0
277110 On ch=1 n=d4 v=76
277115 On ch=1 n=d3 v=62
277150 On ch=1 n=d3 v=0
277175 On ch=1 n=d4 v=0
277250 On ch=1 n=d#4 v=80
277250 On ch=1 n=d#5 v=75
277305 On ch=1 n=d#4 v=0
277325 On ch=1 n=d#5 v=0
277390 On ch=1 n=e4 v=85
277395 On ch=1 n=e3 v=68
277395 Par ch=1 c=64 v=72
277410 Par ch=1 c=64 v=40
277430 Par ch=1 c=64 v=72
277440 On ch=1 n=e3 v=0
277440 On ch=1 n=e4 v=0
277445 Par ch=1 c=64 v=104
277455 Par ch=1 c=64 v=127
277525 On ch=1 n=f5 v=74
277530 On ch=1 n=f4 v=76
277570 On ch=1 n=f4 v=0
277585 On ch=1 n=f5 v=0
277655 Par ch=1 c=64 v=88
277660 On ch=1 n=f#4 v=87
277660 On ch=1 n=f#3 v=72
277670 Par ch=1 c=64 v=40
277705 Par ch=1 c=64 v=88
277710 On ch=1 n=f#3 v=0
277710 On ch=1 n=f#4 v=0
277715 Par ch=1 c=64 v=127
277800 On ch=1 n=g5 v=84
277800 On ch=1 n=g4 v=80
277845 On ch=1 n=g4 v=0
277865 On ch=1 n=g5 v=0
277930 Par ch=1 c=64 v=104
277935 On ch=1 n=g#4 v=88
277935 On ch=1 n=g#3 v=77
277935 Par ch=1 c=64 v=40
277950 Par ch=1 c=64 v=24
277965 Par ch=1 c=64 v=40
277975 Par ch=1 c=64 v=56
277985 Par ch=1 c=64 v=104
278000 Par ch=1 c=64 v=127
278005 On ch=1 n=g#3 v=0
278020 On ch=1 n=g#4 v=0
278070 On ch=1 n=a5 v=92
278070 On ch=1 n=a4 v=79
278125 On ch=1 n=a4 v=0
278140 On ch=1 n=a5 v=0
278185 Par ch=1 c=64 v=72
278200 Par ch=1 c=64 v=0
278205 On ch=1 n=a#4 v=96
278205 On ch=1 n=a#3 v=87
278235 Par ch=1 c=64 v=40
278245 Par ch=1 c=64 v=88
278255 Par ch=1 c=64 v=127
278285 On ch=1 n=a#3 v=0
278320 On ch=1 n=a#4 v=0
278340 On ch=1 n=b5 v=90
278340 On ch=1 n=b4 v=81
278385 On ch=1 n=b4 v=0
278405 On ch=1 n=b5 v=0
278475 On ch=1 n=b3 v=84
278480 On ch=1 n=b4 v=103
278480 Par ch=1 c=64 v=88
278495 Par ch=1 c=64 v=24
278500 Par ch=1 c=64 v=0
278530 Par ch=1 c=64 v=24
278540 Par ch=1 c=64 v=72
278550 Par ch=1 c=64 v=127
278565 On ch=1 n=b3 v=0
278590 On ch=1 n=b4 v=0
278610 On ch=1 n=a#5 v=77
278615 On ch=1 n=a#4 v=70
278680 On ch=1 n=a#5 v=0
278700 On ch=1 n=a#4 v=0
278740 On ch=1 n=a4 v=80
278750 On ch=1 n=a3 v=74
278750 Par ch=1 c=64 v=72
278785 Par ch=1 c=64 v=127
278800 On ch=1 n=a3 v=0
278820 On ch=1 n=a4 v=0
278865 On ch=1 n=g#5 v=64
278870 On ch=1 n=g#4 v=55
278955 On ch=1 n=g#5 v=0
278960 On ch=1 n=g#4 v=0
278990 Par ch=1 c=64 v=72
279005 On ch=1 n=g4 v=80
279010 On ch=1 n=g3 v=67
279025 Par ch=1 c=64 v=127
279075 On ch=1 n=g3 v=0
279080 On ch=1 n=g4 v=0
279130 On ch=1 n=f#5 v=63
279130 On ch=1 n=f#4 v=56
279210 On ch=1 n=f#4 v=0
279215 On ch=1 n=f#5 v=0
279270 On ch=1 n=f3 v=73
279270 On ch=1 n=f4 v=82
279270 Par ch=1 c=64 v=104
279285 Par ch=1 c=64 v=56
279295 Par ch=1 c=64 v=0
279315 Par ch=1 c=64 v=24
279325 Par ch=1 c=64 v=56
279340 Par ch=1 c=64 v=104
279355 On ch=1 n=f3 v=0
279355 Par ch=1 c=64 v=127
279390 On ch=1 n=f#5 v=73
279390 On ch=1 n=f#4 v=71
279410 On ch=1 n=f4 v=0
279445 On ch=1 n=f#4 v=0
279460 On ch=1 n=f#5 v=0
279520 On ch=1 n=g4 v=89
279520 Par ch=1 c=64 v=104
279525 On ch=1 n=g3 v=76
279530 Par ch=1 c=64 v=72
279565 Par ch=1 c=64 v=104
279575 Par ch=1 c=64 v=127
279585 On ch=1 n=g3 v=0
279635 On ch=1 n=g4 v=0
279645 On ch=1 n=g#4 v=69
279645 On ch=1 n=g#5 v=76
279700 On ch=1 n=g#4 v=0
279715 On ch=1 n=g#5 v=0
279770 On ch=1 n=a4 v=87
279775 On ch=1 n=a3 v=85
279780 Par ch=1 c=64 v=88
279790 Par ch=1 c=64 v=56
279800 Par ch=1 c=64 v=40
279815 Par ch=1 c=64 v=56
279825 Par ch=1 c=64 v=88
279835 On ch=1 n=a3 v=0
279835 Par ch=1 c=64 v=127
279890 On ch=1 n=a4 v=0
279890 On ch=1 n=a#4 v=81
279895 On ch=1 n=a#5 v=78
279950 On ch=1 n=a#4 v=0
279960 On ch=1 n=a#5 v=0
280000 Par ch=1 c=64 v=72
280005 On ch=1 n=b4 v=93
280010 On ch=1 n=b3 v=84
280010 Par ch=1 c=64 v=24
280050 Par ch=1 c=64 v=72
280055 On ch=1 n=b3 v=0
280060 Par ch=1 c=64 v=104
280075 On ch=1 n=b4 v=0
280075 Par ch=1 c=64 v=127
280130 On ch=1 n=c6 v=93
280130 On ch=1 n=c5 v=87
280185 On ch=1 n=c5 v=0
280205 On ch=1 n=c6 v=0
280225 Par ch=1 c=64 v=88
280235 Par ch=1 c=64 v=40
280250 On ch=1 n=c#5 v=97
280250 Par ch=1 c=64 v=0
280255 On ch=1 n=c#4 v=80
280270 Par ch=1 c=64 v=40
280285 Par ch=1 c=64 v=88
280295 Par ch=1 c=64 v=127
280330 On ch=1 n=c#4 v=0
280355 On ch=1 n=c#5 v=0
280380 On ch=1 n=d5 v=85
280380 On ch=1 n=d6 v=93
280405 On ch=1 n=f#5 v=25
280425 On ch=1 n=f#5 v=0
280425 On ch=1 n=d5 v=0
280445 On ch=1 n=d6 v=0
280505 On ch=1 n=d5 v=105
280505 On ch=1 n=d4 v=90
280520 Par ch=1 c=64 v=56
280530 Par ch=1 c=64 v=0
280565 Par ch=1 c=64 v=88
280580 On ch=1 n=d4 v=0
280580 Par ch=1 c=64 v=127
280605 On ch=1 n=d5 v=0
280640 On ch=1 n=c#6 v=77
280645 On ch=1 n=c#5 v=75
280700 On ch=1 n=c#6 v=0
280720 On ch=1 n=c#5 v=0
280750 On ch=1 n=c5 v=83
280765 On ch=1 n=c4 v=57
280815 On ch=1 n=c5 v=0
280825 On ch=1 n=c4 v=0
280900 On ch=1 n=b5 v=74
280910 On ch=1 n=b4 v=63
280965 On ch=1 n=b4 v=0
280970 On ch=1 n=b5 v=0
281015 On ch=1 n=a#4 v=77
281025 On ch=1 n=a#3 v=68
281075 On ch=1 n=a#3 v=0
281075 On ch=1 n=a#4 v=0
281145 On ch=1 n=a5 v=71
281150 On ch=1 n=a4 v=58
281220 On ch=1 n=a5 v=0
281230 On ch=1 n=a4 v=0
281260 Par ch=1 c=64 v=104
281270 Par ch=1 c=64 v=40
281275 On ch=1 n=g#4 v=78
281280 On ch=1 n=g#3 v=64
281285 Par ch=1 c=64 v=0
281330 Par ch=1 c=64 v=24
281345 Par ch=1 c=64 v=72
281355 Par ch=1 c=64 v=127
281375 On ch=1 n=g#3 v=0
281395 On ch=1 n=g#4 v=0
281395 On ch=1 n=a4 v=68
281395 On ch=1 n=a5 v=72
281445 On ch=1 n=a4 v=0
281465 On ch=1 n=a5 v=0
281500 Par ch=1 c=64 v=88
281510 Par ch=1 c=64 v=56
281515 On ch=1 n=a#4 v=77
281520 On ch=1 n=a#3 v=76
281545 Par ch=1 c=64 v=127
281570 On ch=1 n=a#3 v=0
281600 On ch=1 n=a#4 v=0
281635 On ch=1 n=b5 v=84
281635 On ch=1 n=b4 v=72
281680 On ch=1 n=b4 v=0
281705 On ch=1 n=b5 v=0
281760 On ch=1 n=c5 v=93
281760 On ch=1 n=c4 v=89
281770 Par ch=1 c=64 v=104
281780 Par ch=1 c=64 v=40
281795 Par ch=1 c=64 v=0
281820 On ch=1 n=c4 v=0
281830 Par ch=1 c=64 v=72
281840 Par ch=1 c=64 v=127
281860 On ch=1 n=c5 v=0
281875 On ch=1 n=c#6 v=91
281875 On ch=1 n=c#5 v=79
281930 On ch=1 n=c#5 v=0
281950 On ch=1 n=c#6 v=0
281995 Par ch=1 c=64 v=104
282000 On ch=1 n=d5 v=92
282005 On ch=1 n=d4 v=88
282005 Par ch=1 c=64 v=40
282015 Par ch=1 c=64 v=0
282040 Par ch=1 c=64 v=40
282050 Par ch=1 c=64 v=72
282060 On ch=1 n=d4 v=0
282060 Par ch=1 c=64 v=127
282095 On ch=1 n=d5 v=0
282130 On ch=1 n=d#5 v=90
282130 On ch=1 n=d#6 v=97
282190 On ch=1 n=d#5 v=0
282210 On ch=1 n=d#6 v=0
282250 On ch=1 n=e5 v=112
282250 On ch=1 n=e4 v=86
282260 Par ch=1 c=64 v=72
282275 Par ch=1 c=64 v=0
282310 Par ch=1 c=64 v=40
282325 Par ch=1 c=64 v=88
282335 Par ch=1 c=64 v=127
282345 On ch=1 n=e4 v=0
282365 On ch=1 n=e5 v=0
282370 On ch=1 n=f6 v=100
282375 On ch=1 n=f5 v=97
282425 On ch=1 n=f5 v=0
282450 On ch=1 n=f6 v=0
282500 On ch=1 n=e5 v=100
282505 On ch=1 n=e4 v=88
282510 Par ch=1 c=64 v=56
282520 On ch=1 n=f#4 v=50
282520 Par ch=1 c=64 v=0
282540 On ch=1 n=f#4 v=0
282570 Par ch=1 c=64 v=72
282585 Par ch=1 c=64 v=127
282595 On ch=1 n=e4 v=0
282620 On ch=1 n=e5 v=0
282620 On ch=1 n=d#6 v=85
282630 On ch=1 n=d#5 v=84
282710 On ch=1 n=d#5 v=0
282710 On ch=1 n=d#6 v=0
282745 On ch=1 n=d5 v=82
282745 Par ch=1 c=64 v=104
282755 On ch=1 n=d4 v=71
282760 Par ch=1 c=64 v=88
282795 Par ch=1 c=64 v=127
282800 On ch=1 n=d4 v=0
282835 On ch=1 n=d5 v=0
282870 On ch=1 n=c#6 v=72
282870 On ch=1 n=c#5 v=69
282935 On ch=1 n=c#6 v=0
282940 On ch=1 n=c#5 v=0
282980 On ch=1 n=c5 v=78
282995 On ch=1 n=c4 v=61
283035 On ch=1 n=c5 v=0
283040 On ch=1 n=c4 v=0
283110 On ch=1 n=b5 v=75
283115 On ch=1 n=b4 v=63
283170 On ch=1 n=b4 v=0
283175 On ch=1 n=b5 v=0
283225 On ch=1 n=a#4 v=80
283225 On ch=1 n=a#3 v=73
283230 Par ch=1 c=64 v=72
283240 Par ch=1 c=64 v=24
283275 On ch=1 n=a#4 v=0
283275 Par ch=1 c=64 v=56
283280 On ch=1 n=a#3 v=0
283290 Par ch=1 c=64 v=88
283300 Par ch=1 c=64 v=127
283350 On ch=1 n=a5 v=75
283355 On ch=1 n=a4 v=55
283415 On ch=1 n=a4 v=0
283435 On ch=1 n=a5 v=0
283465 Par ch=1 c=64 v=104
283480 On ch=1 n=g#4 v=79
283480 Par ch=1 c=64 v=40
283485 On ch=1 n=g#3 v=65
283490 Par ch=1 c=64 v=0
283525 Par ch=1 c=64 v=40
283535 Par ch=1 c=64 v=72
283550 Par ch=1 c=64 v=127
283555 On ch=1 n=g#3 v=0
283575 On ch=1 n=g#4 v=0
283595 On ch=1 n=a5 v=78
283595 On ch=1 n=a4 v=67
283640 On ch=1 n=a4 v=0
283655 On ch=1 n=a5 v=0
283680 Par ch=1 c=64 v=88
283690 Par ch=1 c=64 v=40
283710 On ch=1 n=a#4 v=83
283715 On ch=1 n=a#3 v=81
283715 Par ch=1 c=64 v=56
283725 Par ch=1 c=64 v=72
283735 Par ch=1 c=64 v=127
283770 On ch=1 n=a#3 v=0
283775 On ch=1 n=a#4 v=0
283830 On ch=1 n=b4 v=74
283830 On ch=1 n=b5 v=86
283870 On ch=1 n=b4 v=0
283900 On ch=1 n=b5 v=0
283950 On ch=1 n=c5 v=94
283950 On ch=1 n=c4 v=89
283950 Par ch=1 c=64 v=56
283960 Par ch=1 c=64 v=0
283995 Par ch=1 c=64 v=40
284005 Par ch=1 c=64 v=88
284010 On ch=1 n=c4 v=0
284020 Par ch=1 c=64 v=127
284035 On ch=1 n=c5 v=0
284070 On ch=1 n=c#6 v=91
284070 On ch=1 n=c#5 v=85
284125 On ch=1 n=c#5 v=0
284150 On ch=1 n=c#6 v=0
284185 Par ch=1 c=64 v=88
284195 On ch=1 n=d5 v=92
284195 On ch=1 n=d4 v=92
284195 Par ch=1 c=64 v=24
284220 Par ch=1 c=64 v=40
284230 Par ch=1 c=64 v=72
284245 Par ch=1 c=64 v=127
284260 On ch=1 n=d4 v=0
284300 On ch=1 n=d5 v=0
284315 On ch=1 n=d#6 v=97
284320 On ch=1 n=d#5 v=88
284380 On ch=1 n=d#5 v=0
284405 On ch=1 n=d#6 v=0
284435 On ch=1 n=e5 v=109
284435 On ch=1 n=e4 v=85
284445 Par ch=1 c=64 v=72
284455 Par ch=1 c=64 v=0
284460 On ch=1 n=f#4 v=36
284480 On ch=1 n=f#4 v=0
284490 Par ch=1 c=64 v=40
284505 Par ch=1 c=64 v=104
284515 Par ch=1 c=64 v=127
284535 On ch=1 n=e4 v=0
284555 On ch=1 n=f6 v=99
284560 On ch=1 n=f5 v=96
284570 On ch=1 n=e5 v=0
284625 On ch=1 n=f5 v=0
284640 On ch=1 n=f6 v=0
284685 On ch=1 n=e5 v=110
284685 On ch=1 n=e4 v=83
284690 Par ch=1 c=64 v=56
284700 Par ch=1 c=64 v=0
284740 Par ch=1 c=64 v=56
284750 Par ch=1 c=64 v=127
284775 On ch=1 n=e4 v=0
284805 On ch=1 n=e5 v=0
284805 On ch=1 n=d#6 v=80
284810 On ch=1 n=d#5 v=73
284890 On ch=1 n=d#6 v=0
284900 On ch=1 n=d#5 v=0
284915 Par ch=1 c=64 v=104
284925 On ch=1 n=d5 v=83
284930 Par ch=1 c=64 v=56
284935 On ch=1 n=d4 v=70
284960 Par ch=1 c=64 v=88
284975 Par ch=1 c=64 v=127
284980 On ch=1 n=d4 v=0
285025 On ch=1 n=d5 v=0
285040 On ch=1 n=c#6 v=73
285045 On ch=1 n=c#5 v=68
285110 On ch=1 n=c#5 v=0
285110 On ch=1 n=c#6 v=0
285150 On ch=1 n=c5 v=85
285150 Par ch=1 c=64 v=88
285160 On ch=1 n=c4 v=76
285160 Par ch=1 c=64 v=40
285195 Par ch=1 c=64 v=72
285210 On ch=1 n=c4 v=0
285210 On ch=1 n=c5 v=0
285210 Par ch=1 c=64 v=104
285220 Par ch=1 c=64 v=127
285270 On ch=1 n=b5 v=80
285275 On ch=1 n=b4 v=62
285330 On ch=1 n=b4 v=0
285345 On ch=1 n=b5 v=0
285390 On ch=1 n=a#4 v=80
285395 On ch=1 n=a#3 v=71
285400 Par ch=1 c=64 v=72
285410 Par ch=1 c=64 v=40
285445 On ch=1 n=a#3 v=0
285445 On ch=1 n=a#4 v=0
285445 Par ch=1 c=64 v=72
285455 Par ch=1 c=64 v=104
285470 Par ch=1 c=64 v=127
285505 On ch=1 n=a5 v=78
285510 On ch=1 n=a4 v=65
285570 On ch=1 n=a4 v=0
285590 On ch=1 n=a5 v=0
285630 On ch=1 n=g#4 v=84
285630 On ch=1 n=g#3 v=70
285635 Par ch=1 c=64 v=56
285645 Par ch=1 c=64 v=0
285680 Par ch=1 c=64 v=40
285695 Par ch=1 c=64 v=88
285700 On ch=1 n=g#3 v=0
285700 Par ch=1 c=64 v=127
285710 On ch=1 n=g#4 v=0
285745 On ch=1 n=a5 v=81
285750 On ch=1 n=a4 v=63
285785 On ch=1 n=a4 v=0
285805 On ch=1 n=a5 v=0
285835 Par ch=1 c=64 v=104
285845 Par ch=1 c=64 v=40
285860 On ch=1 n=a#4 v=84
285860 On ch=1 n=a#3 v=78
285860 Par ch=1 c=64 v=24
285870 Par ch=1 c=64 v=40
285880 Par ch=1 c=64 v=72
285895 Par ch=1 c=64 v=104
285905 Par ch=1 c=64 v=127
285915 On ch=1 n=a#3 v=0
285920 On ch=1 n=a#4 v=0
285970 On ch=1 n=b5 v=82
285970 On ch=1 n=b4 v=68
286000 On ch=1 n=b4 v=0
286035 On ch=1 n=b5 v=0
286090 On ch=1 n=c5 v=92
286095 On ch=1 n=c4 v=86
286105 Par ch=1 c=64 v=56
286120 Par ch=1 c=64 v=0
286145 On ch=1 n=c4 v=0
286155 Par ch=1 c=64 v=72
286165 On ch=1 n=c5 v=0
286165 Par ch=1 c=64 v=127
286200 On ch=1 n=c#5 v=77
286205 On ch=1 n=c#6 v=86
286255 On ch=1 n=c#5 v=0
286275 On ch=1 n=c#6 v=0
286315 Par ch=1 c=64 v=88
286330 On ch=1 n=d5 v=86
286330 Par ch=1 c=64 v=40
286335 On ch=1 n=d4 v=84
286365 Par ch=1 c=64 v=88
286380 Par ch=1 c=64 v=127
286390 On ch=1 n=d4 v=0
286425 On ch=1 n=d5 v=0
286450 On ch=1 n=d#6 v=87
286450 On ch=1 n=d#5 v=74
286500 On ch=1 n=d#5 v=0
286525 On ch=1 n=d#6 v=0
286565 On ch=1 n=e5 v=89
286565 On ch=1 n=e4 v=79
286565 Par ch=1 c=64 v=72
286575 Par ch=1 c=64 v=24
286590 Par ch=1 c=64 v=0
286600 Par ch=1 c=64 v=24
286610 Par ch=1 c=64 v=56
286625 Par ch=1 c=64 v=104
286635 Par ch=1 c=64 v=127
286645 On ch=1 n=e4 v=0
286670 On ch=1 n=f6 v=89
286675 On ch=1 n=e5 v=0
286675 On ch=1 n=f5 v=83
286720 On ch=1 n=f5 v=0
286740 On ch=1 n=f6 v=0
286790 Par ch=1 c=64 v=104
286800 On ch=1 n=f5 v=94
286800 Par ch=1 c=64 v=24
286805 On ch=1 n=f4 v=79
286810 Par ch=1 c=64 v=0
286835 Par ch=1 c=64 v=40
286845 Par ch=1 c=64 v=104
286860 On ch=1 n=f4 v=0
286860 Par ch=1 c=64 v=127
286870 On ch=1 n=f5 v=0
286910 On ch=1 n=g#6 v=90
286910 On ch=1 n=g#5 v=87
286960 On ch=1 n=g#5 v=0
286980 On ch=1 n=g#6 v=0
287025 On ch=1 n=d5 v=97
287025 On ch=1 n=d4 v=80
287045 Par ch=1 c=64 v=56
287060 Par ch=1 c=64 v=40
287070 Par ch=1 c=64 v=88
287085 On ch=1 n=d4 v=0
287085 Par ch=1 c=64 v=127
287090 On ch=1 n=d5 v=0
287140 On ch=1 n=b6 v=96
287140 On ch=1 n=b5 v=88
287185 On ch=1 n=b5 v=0
287210 On ch=1 n=b6 v=0
287255 On ch=1 n=b4 v=97
287255 On ch=1 n=b3 v=83
287260 Par ch=1 c=64 v=104
287275 Par ch=1 c=64 v=56
287285 Par ch=1 c=64 v=72
287295 Par ch=1 c=64 v=127
287305 On ch=1 n=b3 v=0
287305 On ch=1 n=b4 v=0
287365 On ch=1 n=d7 v=94
287365 On ch=1 n=d6 v=93
287415 On ch=1 n=d6 v=0
287440 On ch=1 n=d7 v=0
287480 On ch=1 n=g#4 v=100
287480 On ch=1 n=g#3 v=81
287540 On ch=1 n=g#3 v=0
287540 On ch=1 n=g#4 v=0
287595 On ch=1 n=f7 v=100
287595 On ch=1 n=f6 v=97
287645 On ch=1 n=f6 v=0
287660 On ch=1 n=f7 v=0
287705 On ch=1 n=f4 v=97
287705 On ch=1 n=f3 v=76
287750 On ch=1 n=f4 v=0
287760 On ch=1 n=f3 v=0
287820 On ch=1 n=g#6 v=96
287820 On ch=1 n=g#7 v=103
287865 On ch=1 n=g#6 v=0
287885 On ch=1 n=g#7 v=0
287935 On ch=1 n=d4 v=107
287935 On ch=1 n=d3 v=82
287985 On ch=1 n=d3 v=0
287985 On ch=1 n=d4 v=0
288045 On ch=1 n=b6 v=94
288045 On ch=1 n=b7 v=109
288090 On ch=1 n=b6 v=0
288115 On ch=1 n=b7 v=0
288160 On ch=1 n=b3 v=107
288160 On ch=1 n=b2 v=82
288215 On ch=1 n=b2 v=0
288215 On ch=1 n=b3 v=0
288280 On ch=1 n=d8 v=109
288280 On ch=1 n=d7 v=97
288335 On ch=1 n=d7 v=0
288355 On ch=1 n=d8 v=0
288395 On ch=1 n=g#3 v=108
288395 On ch=1 n=g#2 v=93
288445 On ch=1 n=g#2 v=0
288445 On ch=1 n=g#3 v=0
288535 On ch=1 n=f7 v=112
288535 On ch=1 n=f8 v=112
288595 On ch=1 n=f7 v=0
288615 On ch=1 n=f8 v=0
288980 Par ch=1 c=64 v=88
288990 Par ch=1 c=64 v=72
289000 Par ch=1 c=64 v=56
289015 Par ch=1 c=64 v=24
289025 Par ch=1 c=64 v=0
290519 On ch=1 n=g#5 v=96
290519 Par ch=1 c=64 v=40
290524 On ch=1 n=d5 v=88
290524 On ch=1 n=b4 v=86
290534 On ch=1 n=f4 v=76
290534 Par ch=1 c=64 v=88
290544 On ch=1 n=f3 v=63
290554 Par ch=1 c=64 v=127
290574 On ch=1 n=f3 v=0
290574 On ch=1 n=f4 v=0
290584 On ch=1 n=b4 v=0
290584 On ch=1 n=d5 v=0
290639 On ch=1 n=g#5 v=0
290654 Par ch=1 c=64 v=104
290669 Par ch=1 c=64 v=56
290689 Par ch=1 c=64 v=0
290884 On ch=1 n=a5 v=103
290889 On ch=1 n=f#5 v=83
290894 On ch=1 n=c5 v=93
290894 On ch=1 n=d#3 v=79
290899 On ch=1 n=d#4 v=92
290919 Par ch=1 c=64 v=72
290934 Par ch=1 c=64 v=127
290939 On ch=1 n=c5 v=0
290944 On ch=1 n=d#3 v=0
290949 On ch=1 n=d#4 v=0
290969 On ch=1 n=f#5 v=0
290974 On ch=1 n=a5 v=0
291059 On ch=1 n=f#4 v=81
291069 On ch=1 n=f#3 v=83
291094 On ch=1 n=f#3 v=0
291109 On ch=1 n=f#4 v=0
291169 Par ch=1 c=64 v=104
291184 Par ch=1 c=64 v=72
291204 Par ch=1 c=64 v=40
291219 Par ch=1 c=64 v=24
291234 Par ch=1 c=64 v=0
291244 On ch=1 n=a4 v=79
291244 On ch=1 n=g#5 v=80
291249 On ch=1 n=g#6 v=96
291254 On ch=1 n=a3 v=80
291279 On ch=1 n=a4 v=0
291289 On ch=1 n=a3 v=0
291299 On ch=1 n=g#5 v=0
291324 On ch=1 n=g#6 v=0
291414 On ch=1 n=b6 v=105
291419 On ch=1 n=b5 v=97
291469 On ch=1 n=b5 v=0
291484 On ch=1 n=b6 v=0
291599 On ch=1 n=a6 v=102
291609 On ch=1 n=a5 v=100
291609 On ch=1 n=c#3 v=74
291614 On ch=1 n=c#6 v=84
291619 On ch=1 n=c#4 v=85
291619 Par ch=1 c=64 v=72
291634 Par ch=1 c=64 v=127
291659 On ch=1 n=a5 v=0
291664 On ch=1 n=c#4 v=0
291669 On ch=1 n=c#3 v=0
291774 On ch=1 n=c#6 v=0
291784 On ch=1 n=f#4 v=82
291784 On ch=1 n=f#3 v=70
291814 On ch=1 n=f#3 v=0
291814 On ch=1 n=f#4 v=0
291819 Par ch=1 c=64 v=88
291834 On ch=1 n=a6 v=0
291834 Par ch=1 c=64 v=56
291854 Par ch=1 c=64 v=24
291869 Par ch=1 c=64 v=0
291949 On ch=1 n=g#5 v=95
291954 On ch=1 n=g#6 v=96
291969 On ch=1 n=a4 v=74
291979 On ch=1 n=a3 v=86
291999 On ch=1 n=a4 v=0
292009 On ch=1 n=a3 v=0
292014 On ch=1 n=g#5 v=0
292039 On ch=1 n=g#6 v=0
292124 On ch=1 n=b6 v=107
292129 On ch=1 n=b5 v=96
292179 On ch=1 n=b5 v=0
292184 On ch=1 n=b6 v=0
292309 On ch=1 n=a6 v=102
292309 On ch=1 n=a5 v=107
292314 On ch=1 n=d#6 v=96
292324 On ch=1 n=c4 v=88
292324 On ch=1 n=c3 v=80
292334 Par ch=1 c=64 v=56
292349 Par ch=1 c=64 v=127
292384 On ch=1 n=c3 v=0
292384 On ch=1 n=c4 v=0
292454 On ch=1 n=a5 v=0
292499 On ch=1 n=f#3 v=73
292504 On ch=1 n=f#4 v=81
292539 On ch=1 n=f#4 v=0
292539 On ch=1 n=f#3 v=0
292549 Par ch=1 c=64 v=88
292559 On ch=1 n=a6 v=0
292569 Par ch=1 c=64 v=56
292584 Par ch=1 c=64 v=0
292609 On ch=1 n=d#6 v=0
292679 On ch=1 n=g#6 v=99
292679 On ch=1 n=g#5 v=99
292684 On ch=1 n=a4 v=79
292699 On ch=1 n=a3 v=81
292699 Par ch=1 c=64 v=24
292714 Par ch=1 c=64 v=88
292729 On ch=1 n=a3 v=0
292734 On ch=1 n=a4 v=0
292734 Par ch=1 c=64 v=127
292764 On ch=1 n=g#5 v=0
292799 On ch=1 n=g#6 v=0
292814 Par ch=1 c=64 v=88
292829 Par ch=1 c=64 v=56
292849 Par ch=1 c=64 v=40
292869 Par ch=1 c=64 v=0
293049 On ch=1 n=d#6 v=99
293049 On ch=1 n=a6 v=105
293054 On ch=1 n=a5 v=107
293069 On ch=1 n=b2 v=70
293069 On ch=1 n=b3 v=82
293079 Par ch=1 c=64 v=56
293099 On ch=1 n=b3 v=0
293099 On ch=1 n=b2 v=0
293099 Par ch=1 c=64 v=127
293229 On ch=1 n=d#3 v=77
293234 On ch=1 n=d#4 v=86
293274 On ch=1 n=d#4 v=0
293284 On ch=1 n=d#3 v=0
293289 On ch=1 n=a6 v=0
293324 On ch=1 n=a5 v=0
293339 On ch=1 n=d#6 v=0
293424 On ch=1 n=f#4 v=86
293434 On ch=1 n=f#3 v=57
293454 On ch=1 n=f#4 v=0
293464 On ch=1 n=f#3 v=0
293514 Par ch=1 c=64 v=104
293529 Par ch=1 c=64 v=88
293544 Par ch=1 c=64 v=56
293564 Par ch=1 c=64 v=40
293579 Par ch=1 c=64 v=24
293594 Par ch=1 c=64 v=0
293779 On ch=1 n=a5 v=97
293784 On ch=1 n=a4 v=89
293784 On ch=1 n=f#5 v=77
293789 On ch=1 n=c#5 v=71
293794 On ch=1 n=a3 v=85
293794 On ch=1 n=a2 v=72
293799 Par ch=1 c=64 v=56
293814 Par ch=1 c=64 v=127
293844 On ch=1 n=a3 v=0
293849 On ch=1 n=a2 v=0
293854 On ch=1 n=c#5 v=0
293854 On ch=1 n=a4 v=0
293864 On ch=1 n=a5 v=0
293889 On ch=1 n=f#5 v=0
293954 On ch=1 n=g#5 v=85
293954 On ch=1 n=c#3 v=78
293954 On ch=1 n=g#4 v=84
293954 On ch=1 n=c#4 v=86
293999 On ch=1 n=c#4 v=0
294009 On ch=1 n=c#3 v=0
294024 On ch=1 n=g#4 v=0
294029 Par ch=1 c=64 v=104
294039 On ch=1 n=g#5 v=0
294049 Par ch=1 c=64 v=72
294064 Par ch=1 c=64 v=56
294079 Par ch=1 c=64 v=24
294099 Par ch=1 c=64 v=0
294124 On ch=1 n=a5 v=103
294124 On ch=1 n=a4 v=93
294129 On ch=1 n=f#4 v=85
294129 On ch=1 n=f#3 v=80
294159 On ch=1 n=f#3 v=0
294159 On ch=1 n=f#4 v=0
294174 On ch=1 n=a4 v=0
294189 On ch=1 n=a5 v=0
294279 On ch=1 n=b5 v=100
294284 On ch=1 n=b4 v=92
294339 On ch=1 n=b4 v=0
294339 On ch=1 n=g#3 v=48
294354 On ch=1 n=b5 v=0
294369 On ch=1 n=g#3 v=0
294479 On ch=1 n=c5 v=116
294479 On ch=1 n=f#5 v=97
294479 On ch=1 n=c6 v=112
294479 On ch=1 n=d#5 v=91
294484 On ch=1 n=g#2 v=85
294489 On ch=1 n=g#3 v=88
294514 Par ch=1 c=64 v=88
294529 Par ch=1 c=64 v=127
294534 On ch=1 n=g#3 v=0
294544 On ch=1 n=g#2 v=0
294624 On ch=1 n=c5 v=0
294639 On ch=1 n=d#5 v=0
294654 On ch=1 n=c4 v=85
294669 On ch=1 n=c3 v=62
294689 On ch=1 n=c4 v=0
294689 On ch=1 n=f#5 v=0
294699 On ch=1 n=c3 v=0
294734 On ch=1 n=c6 v=0
294834 On ch=1 n=d#3 v=71
294834 On ch=1 n=d#4 v=81
294864 On ch=1 n=d#4 v=0
294884 On ch=1 n=d#3 v=0
294959 Par ch=1 c=64 v=104
294979 Par ch=1 c=64 v=88
294994 Par ch=1 c=64 v=72
295009 Par ch=1 c=64 v=56
295024 Par ch=1 c=64 v=40
295044 Par ch=1 c=64 v=0
295199 On ch=1 n=c7 v=105
295199 On ch=1 n=c6 v=103
295199 On ch=1 n=d#6 v=95
295204 On ch=1 n=g2 v=76
295209 On ch=1 n=g3 v=86
295209 Par ch=1 c=64 v=88
295229 Par ch=1 c=64 v=127
295249 On ch=1 n=g2 v=0
295254 On ch=1 n=g3 v=0
295259 On ch=1 n=c6 v=0
295269 On ch=1 n=c7 v=0
295284 On ch=1 n=d#6 v=0
295364 On ch=1 n=b6 v=100
295374 On ch=1 n=b5 v=90
295374 On ch=1 n=c4 v=87
295384 On ch=1 n=c3 v=72
295414 On ch=1 n=c3 v=0
295419 On ch=1 n=c4 v=0
295424 On ch=1 n=b5 v=0
295434 On ch=1 n=b6 v=0
295534 On ch=1 n=a6 v=102
295539 On ch=1 n=d#4 v=95
295539 On ch=1 n=d#3 v=84
295544 On ch=1 n=a5 v=93
295559 Par ch=1 c=64 v=88
295579 Par ch=1 c=64 v=72
295589 On ch=1 n=d#4 v=0
295594 On ch=1 n=a5 v=0
295594 On ch=1 n=d#3 v=0
295594 Par ch=1 c=64 v=56
295599 On ch=1 n=a6 v=0
295609 Par ch=1 c=64 v=40
295629 Par ch=1 c=64 v=24
295644 Par ch=1 c=64 v=0
295704 On ch=1 n=g#6 v=96
295709 On ch=1 n=g#5 v=99
295779 On ch=1 n=g#5 v=0
295799 On ch=1 n=g#6 v=0
295889 On ch=1 n=a6 v=105
295889 On ch=1 n=a5 v=105
295894 On ch=1 n=d#6 v=88
295899 On ch=1 n=f#2 v=81
295899 On ch=1 n=f#3 v=89
295909 Par ch=1 c=64 v=127
295944 On ch=1 n=f#3 v=0
295944 On ch=1 n=f#2 v=0
295989 On ch=1 n=a5 v=0
296014 On ch=1 n=d#6 v=0
296019 On ch=1 n=a6 v=0
296059 On ch=1 n=a3 v=86
296064 On ch=1 n=a2 v=74
296094 On ch=1 n=a2 v=0
296104 On ch=1 n=a3 v=0
296239 On ch=1 n=c4 v=83
296244 On ch=1 n=c3 v=71
296269 On ch=1 n=c4 v=0
296274 On ch=1 n=c3 v=0
296274 Par ch=1 c=64 v=72
296289 Par ch=1 c=64 v=40
296309 Par ch=1 c=64 v=0
296389 Par ch=1 c=64 v=24
296409 On ch=1 n=c6 v=90
296409 On ch=1 n=c5 v=83
296409 Par ch=1 c=64 v=104
296424 On ch=1 n=c4 v=97
296424 Par ch=1 c=64 v=127
296429 On ch=1 n=c3 v=85
296444 On ch=1 n=c5 v=0
296444 On ch=1 n=c6 v=0
296469 On ch=1 n=c4 v=0
296489 On ch=1 n=c3 v=0
296539 Par ch=1 c=64 v=88
296554 Par ch=1 c=64 v=40
296574 Par ch=1 c=64 v=24
296589 Par ch=1 c=64 v=0
296594 On ch=1 n=b5 v=105
296594 On ch=1 n=b4 v=94
296599 On ch=1 n=b3 v=89
296609 On ch=1 n=b2 v=79
296629 On ch=1 n=c5 v=34
296644 On ch=1 n=b4 v=0
296649 On ch=1 n=b2 v=0
296654 On ch=1 n=b3 v=0
296659 On ch=1 n=c5 v=0
296664 On ch=1 n=b5 v=0
296759 On ch=1 n=a3 v=82
296759 On ch=1 n=a5 v=93
296764 On ch=1 n=a4 v=78
296764 On ch=1 n=a2 v=64
296789 On ch=1 n=a3 v=0
296799 On ch=1 n=a2 v=0
296804 On ch=1 n=a4 v=0
296809 On ch=1 n=a5 v=0
296924 On ch=1 n=g4 v=87
296924 On ch=1 n=g5 v=92
296934 On ch=1 n=g3 v=76
296934 On ch=1 n=g2 v=77
296964 On ch=1 n=g2 v=0
296964 On ch=1 n=g3 v=0
296969 On ch=1 n=g4 v=0
296974 On ch=1 n=g5 v=0
297099 On ch=1 n=b4 v=89
297099 On ch=1 n=b5 v=97
297109 On ch=1 n=b3 v=71
297124 On ch=1 n=b2 v=49
297134 On ch=1 n=b3 v=0
297139 On ch=1 n=b5 v=0
297144 On ch=1 n=b4 v=0
297154 On ch=1 n=b2 v=0
297269 On ch=1 n=a5 v=109
297274 On ch=1 n=a4 v=109
297274 On ch=1 n=a3 v=96
297274 Par ch=1 c=64 v=127
297284 On ch=1 n=a2 v=78
297324 On ch=1 n=a3 v=0
297334 On ch=1 n=a4 v=0
297339 On ch=1 n=a2 v=0
297344 On ch=1 n=a5 v=0
297444 On ch=1 n=g5 v=96
297444 On ch=1 n=g3 v=70
297444 On ch=1 n=g4 v=92
297454 Par ch=1 c=64 v=104
297474 On ch=1 n=g3 v=0
297474 On ch=1 n=g2 v=25
297474 Par ch=1 c=64 v=72
297489 On ch=1 n=g5 v=0
297489 Par ch=1 c=64 v=40
297494 On ch=1 n=g4 v=0
297504 On ch=1 n=g2 v=0
297504 Par ch=1 c=64 v=24
297524 Par ch=1 c=64 v=0
297609 On ch=1 n=f4 v=92
297609 On ch=1 n=f5 v=96
297619 On ch=1 n=f3 v=74
297619 On ch=1 n=f2 v=65
297649 On ch=1 n=f2 v=0
297649 On ch=1 n=f3 v=0
297664 On ch=1 n=f5 v=0
297664 On ch=1 n=f4 v=0
297779 On ch=1 n=a5 v=100
297779 On ch=1 n=a4 v=87
297784 On ch=1 n=a3 v=79
297789 On ch=1 n=a2 v=69
297809 On ch=1 n=a3 v=0
297814 On ch=1 n=a2 v=0
297829 On ch=1 n=a5 v=0
297834 On ch=1 n=a4 v=0
297919 Par ch=1 c=64 v=56
297939 Par ch=1 c=64 v=127
297949 On ch=1 n=g5 v=102
297954 On ch=1 n=g4 v=107
297959 On ch=1 n=g3 v=85
297964 On ch=1 n=g2 v=81
298009 On ch=1 n=g3 v=0
298019 On ch=1 n=g4 v=0
298024 On ch=1 n=g2 v=0
298029 On ch=1 n=g5 v=0
298134 On ch=1 n=f5 v=93
298134 On ch=1 n=f3 v=67
298134 On ch=1 n=f4 v=86
298139 Par ch=1 c=64 v=88
298154 Par ch=1 c=64 v=72
298159 On ch=1 n=f3 v=0
298174 Par ch=1 c=64 v=56
298189 On ch=1 n=f4 v=0
298189 On ch=1 n=f5 v=0
298189 Par ch=1 c=64 v=40
298204 Par ch=1 c=64 v=24
298239 Par ch=1 c=64 v=0
298294 On ch=1 n=e5 v=96
298299 On ch=1 n=e4 v=87
298309 On ch=1 n=e3 v=64
298309 On ch=1 n=e2 v=64
298339 On ch=1 n=e2 v=0
298339 On ch=1 n=e3 v=0
298349 On ch=1 n=e4 v=0
298364 On ch=1 n=e5 v=0
298459 On ch=1 n=g5 v=99
298464 On ch=1 n=g4 v=96
298469 On ch=1 n=g3 v=76
298474 On ch=1 n=g2 v=75
298499 On ch=1 n=g3 v=0
298504 On ch=1 n=g2 v=0
298509 On ch=1 n=g4 v=0
298524 On ch=1 n=g5 v=0
298604 Par ch=1 c=64 v=40
298619 Par ch=1 c=64 v=127
298629 On ch=1 n=f5 v=102
298634 On ch=1 n=f3 v=93
298639 On ch=1 n=f4 v=105
298644 On ch=1 n=f2 v=82
298684 On ch=1 n=f3 v=0
298689 On ch=1 n=f4 v=0
298699 On ch=1 n=f2 v=0
298699 On ch=1 n=f5 v=0
298794 On ch=1 n=e5 v=105
298794 On ch=1 n=e3 v=84
298799 On ch=1 n=e4 v=100
298814 On ch=1 n=e2 v=63
298844 On ch=1 n=e2 v=0
298849 On ch=1 n=e4 v=0
298854 On ch=1 n=e3 v=0
298859 On ch=1 n=e5 v=0
298869 Par ch=1 c=64 v=104
298884 Par ch=1 c=64 v=72
298904 Par ch=1 c=64 v=56
298919 Par ch=1 c=64 v=40
298939 Par ch=1 c=64 v=24
298964 On ch=1 n=d#4 v=95
298964 On ch=1 n=d#5 v=83
298974 On ch=1 n=d#3 v=70
298984 On ch=1 n=d#2 v=56
299004 On ch=1 n=d#3 v=0
299004 Par ch=1 c=64 v=0
299009 On ch=1 n=d#2 v=0
299014 On ch=1 n=d#4 v=0
299054 On ch=1 n=d#5 v=0
299124 On ch=1 n=f3 v=82
299129 On ch=1 n=f5 v=99
299134 On ch=1 n=f4 v=90
299134 On ch=1 n=f2 v=58
299154 On ch=1 n=f3 v=0
299169 On ch=1 n=f2 v=0
299184 On ch=1 n=f4 v=0
299194 On ch=1 n=f5 v=0
299284 Par ch=1 c=64 v=56
299304 On ch=1 n=f5 v=102
299304 On ch=1 n=f4 v=105
299304 Par ch=1 c=64 v=127
299314 On ch=1 n=f3 v=87
299314 On ch=1 n=f2 v=82
299359 On ch=1 n=f4 v=0
299369 On ch=1 n=f3 v=0
299379 On ch=1 n=f2 v=0
299379 On ch=1 n=f5 v=0
299474 On ch=1 n=e5 v=100
299479 On ch=1 n=e4 v=90
299479 On ch=1 n=e3 v=77
299494 On ch=1 n=e2 v=68
299524 On ch=1 n=e2 v=0
299534 On ch=1 n=e3 v=0
299534 On ch=1 n=e4 v=0
299539 On ch=1 n=e5 v=0
299564 Par ch=1 c=64 v=72
299584 Par ch=1 c=64 v=40
299599 Par ch=1 c=64 v=24
299614 Par ch=1 c=64 v=0
299644 On ch=1 n=e5 v=102
299644 On ch=1 n=e4 v=88
299649 On ch=1 n=e3 v=76
299664 On ch=1 n=e2 v=74
299694 On ch=1 n=e2 v=0
299699 On ch=1 n=e4 v=0
299709 On ch=1 n=e3 v=0
299709 On ch=1 n=e5 v=0
299804 On ch=1 n=d#4 v=92
299809 On ch=1 n=d#5 v=88
299819 On ch=1 n=d#3 v=79
299819 On ch=1 n=d#2 v=77
299859 On ch=1 n=d#3 v=0
299864 On ch=1 n=d#4 v=0
299869 On ch=1 n=d#2 v=0
299894 On ch=1 n=d#5 v=0
299964 Par ch=1 c=64 v=24
299984 Par ch=1 c=64 v=127
299994 On ch=1 n=f5 v=99
299994 On ch=1 n=f4 v=99
299999 On ch=1 n=f3 v=79
300009 On ch=1 n=f2 v=80
300029 On ch=1 n=f3 v=0
300039 On ch=1 n=f2 v=0
300044 On ch=1 n=f4 v=0
300059 On ch=1 n=f5 v=0
300149 On ch=1 n=e5 v=97
300149 On ch=1 n=e4 v=94
300164 On ch=1 n=e3 v=72
300169 On ch=1 n=e2 v=76
300199 Par ch=1 c=64 v=104
300204 On ch=1 n=e3 v=0
300204 On ch=1 n=e4 v=0
300214 Par ch=1 c=64 v=88
300219 On ch=1 n=e2 v=0
300219 On ch=1 n=e5 v=0
300234 Par ch=1 c=64 v=56
300249 Par ch=1 c=64 v=40
300264 Par ch=1 c=64 v=24
300299 Par ch=1 c=64 v=0
300314 On ch=1 n=e5 v=97
300319 On ch=1 n=e4 v=93
300329 On ch=1 n=e3 v=78
300339 On ch=1 n=e2 v=76
300379 On ch=1 n=e2 v=0
300379 On ch=1 n=e4 v=0
300389 On ch=1 n=e3 v=0
300394 On ch=1 n=e5 v=0
300484 On ch=1 n=d#4 v=90
300489 On ch=1 n=d#5 v=86
300494 On ch=1 n=d#3 v=74
300499 On ch=1 n=d#2 v=77
300549 On ch=1 n=d#3 v=0
300554 On ch=1 n=d#2 v=0
300554 On ch=1 n=d#4 v=0
300579 On ch=1 n=d#5 v=0
300689 On ch=1 n=e5 v=114
300689 On ch=1 n=e4 v=110
300694 On ch=1 n=e2 v=87
300694 On ch=1 n=e3 v=86
300729 Par ch=1 c=64 v=40
300749 Par ch=1 c=64 v=127
300899 On ch=1 n=e2 v=0
300909 On ch=1 n=e4 v=0
300939 On ch=1 n=e3 v=0
300994 On ch=1 n=e5 v=0
301379 Par ch=1 c=64 v=104
301394 On ch=1 n=e6 v=102
301394 On ch=1 n=e5 v=102
301399 Par ch=1 c=64 v=0
301404 On ch=1 n=g#5 v=80
301404 On ch=1 n=b5 v=90
301419 On ch=1 n=e3 v=76
301424 On ch=1 n=b3 v=85
301424 On ch=1 n=g#3 v=71
301424 On ch=1 n=e4 v=90
301494 On ch=1 n=e5 v=0
301494 Par ch=1 c=64 v=104
301499 On ch=1 n=e4 v=0
301499 On ch=1 n=g#5 v=0
301509 On ch=1 n=b3 v=0
301509 On ch=1 n=e3 v=0
301509 Par ch=1 c=64 v=127
301514 On ch=1 n=g#3 v=0
301524 On ch=1 n=b5 v=0
301559 On ch=1 n=e6 v=0
301824 On ch=1 n=e6 v=74
301824 On ch=1 n=e4 v=70
301904 On ch=1 n=e4 v=0
301929 On ch=1 n=f#4 v=78
301934 On ch=1 n=f#6 v=68
301939 On ch=1 n=e6 v=0
301964 On ch=1 n=g#6 v=69
301994 On ch=1 n=g#4 v=70
302004 On ch=1 n=f#4 v=0
302034 On ch=1 n=f#6 v=0
302044 On ch=1 n=g#6 v=0
302044 Par ch=1 c=64 v=40
302059 On ch=1 n=g#4 v=0
302059 Par ch=1 c=64 v=0
302084 On ch=1 n=a5 v=92
302084 On ch=1 n=a6 v=102
302094 On ch=1 n=c6 v=92
302109 On ch=1 n=a3 v=86
302109 On ch=1 n=a4 v=82
302129 On ch=1 n=c6 v=0
302144 Par ch=1 c=64 v=104
302149 On ch=1 n=a5 v=0
302159 Par ch=1 c=64 v=127
302164 On ch=1 n=a3 v=0
302169 On ch=1 n=a4 v=0
302174 On ch=1 n=a6 v=0
302274 Par ch=1 c=64 v=104
302294 Par ch=1 c=64 v=72
302314 Par ch=1 c=64 v=40
302329 Par ch=1 c=64 v=24
302344 Par ch=1 c=64 v=0
302429 On ch=1 n=g#5 v=82
302439 On ch=1 n=g#6 v=95
302444 On ch=1 n=b5 v=77
302449 On ch=1 n=f3 v=73
302459 On ch=1 n=f4 v=75
302474 On ch=1 n=b5 v=0
302489 On ch=1 n=g#5 v=0
302499 On ch=1 n=f4 v=0
302499 On ch=1 n=f3 v=0
302519 On ch=1 n=g#6 v=0
302609 On ch=1 n=b6 v=100
302614 On ch=1 n=b5 v=77
302614 On ch=1 n=d6 v=77
302639 On ch=1 n=b6 v=0
302649 On ch=1 n=d6 v=0
302654 On ch=1 n=b5 v=0
302779 Par ch=1 c=64 v=104
302789 On ch=1 n=a6 v=94
302789 On ch=1 n=a5 v=92
302789 Par ch=1 c=64 v=127
302799 On ch=1 n=c6 v=87
302799 On ch=1 n=a4 v=74
302819 On ch=1 n=a3 v=73
302824 On ch=1 n=c6 v=0
302839 On ch=1 n=a5 v=0
302839 On ch=1 n=a6 v=0
302854 On ch=1 n=a4 v=0
302874 On ch=1 n=a3 v=0
302909 Par ch=1 c=64 v=104
302924 Par ch=1 c=64 v=72
302944 Par ch=1 c=64 v=56
302959 Par ch=1 c=64 v=24
302974 Par ch=1 c=64 v=0
303129 On ch=1 n=g#5 v=85
303129 On ch=1 n=g#6 v=95
303139 On ch=1 n=e3 v=70
303144 On ch=1 n=e4 v=76
303144 On ch=1 n=b5 v=79
303144 Par ch=1 c=64 v=72
303159 Par ch=1 c=64 v=88
303169 On ch=1 n=b5 v=0
303174 On ch=1 n=e3 v=0
303179 On ch=1 n=g#5 v=0
303184 On ch=1 n=e4 v=0
303199 On ch=1 n=g#6 v=0
303209 Par ch=1 c=64 v=72
303224 Par ch=1 c=64 v=56
303239 Par ch=1 c=64 v=24
303259 Par ch=1 c=64 v=0
303289 On ch=1 n=b6 v=102
303294 On ch=1 n=b5 v=79
303294 On ch=1 n=d6 v=89
303319 On ch=1 n=d6 v=0
303334 On ch=1 n=b5 v=0
303349 On ch=1 n=b6 v=0
303439 Par ch=1 c=64 v=56
303459 Par ch=1 c=64 v=127
303464 On ch=1 n=a5 v=100
303464 On ch=1 n=a6 v=96
303474 On ch=1 n=c6 v=96
303474 On ch=1 n=a4 v=79
303479 On ch=1 n=a3 v=78
303499 On ch=1 n=c6 v=0
303509 On ch=1 n=a6 v=0
303509 On ch=1 n=a5 v=0
303534 On ch=1 n=a4 v=0
303539 On ch=1 n=a3 v=0
303574 Par ch=1 c=64 v=88
303589 Par ch=1 c=64 v=72
303609 Par ch=1 c=64 v=40
303624 Par ch=1 c=64 v=24
303639 Par ch=1 c=64 v=0
303804 Par ch=1 c=64 v=56
303819 On ch=1 n=g#6 v=99
303819 On ch=1 n=g#5 v=97
303824 On ch=1 n=f3 v=77
303824 On ch=1 n=b5 v=93
303824 Par ch=1 c=64 v=127
303829 On ch=1 n=d4 v=82
303834 On ch=1 n=d3 v=58
303854 On ch=1 n=b5 v=0
303859 On ch=1 n=d3 v=0
303869 On ch=1 n=d4 v=0
303879 On ch=1 n=g#5 v=0
303884 On ch=1 n=f3 v=0
303929 On ch=1 n=g#6 v=0
303959 Par ch=1 c=64 v=88
303974 Par ch=1 c=64 v=72
303989 Par ch=1 c=64 v=40
304009 Par ch=1 c=64 v=24
304024 Par ch=1 c=64 v=0
304189 On ch=1 n=a6 v=107
304189 On ch=1 n=a5 v=102
304189 On ch=1 n=c6 v=103
304199 On ch=1 n=a4 v=82
304204 On ch=1 n=e4 v=86
304209 On ch=1 n=a3 v=83
304209 Par ch=1 c=64 v=56
304219 Par ch=1 c=64 v=127
304274 On ch=1 n=a4 v=0
304279 On ch=1 n=e4 v=0
304289 On ch=1 n=a3 v=0
304339 On ch=1 n=a5 v=0
304359 On ch=1 n=c6 v=0
304454 On ch=1 n=a6 v=0
304674 Par ch=1 c=64 v=72
304684 On ch=1 n=c3 v=83
304689 Par ch=1 c=64 v=0
304754 Par ch=1 c=64 v=40
304764 On ch=1 n=c3 v=0
304774 Par ch=1 c=64 v=127
304789 On ch=1 n=c4 v=78
304864 On ch=1 n=c4 v=0
304954 Par ch=1 c=64 v=88
304959 On ch=1 n=a7 v=103
304959 On ch=1 n=f7 v=90
304964 On ch=1 n=a6 v=85
304969 On ch=1 n=c7 v=86
304969 Par ch=1 c=64 v=24
304984 Par ch=1 c=64 v=0
305004 Par ch=1 c=64 v=56
305009 On ch=1 n=a4 v=77
305009 On ch=1 n=c5 v=44
305014 On ch=1 n=a5 v=83
305014 On ch=1 n=f5 v=76
305024 Par ch=1 c=64 v=127
305039 On ch=1 n=a6 v=0
305044 On ch=1 n=f7 v=0
305044 On ch=1 n=a7 v=0
305054 On ch=1 n=f5 v=0
305059 On ch=1 n=c7 v=0
305064 On ch=1 n=a5 v=0
305079 On ch=1 n=c5 v=0
305094 On ch=1 n=a4 v=0
305139 On ch=1 n=g#6 v=91
305144 On ch=1 n=g#7 v=83
305209 On ch=1 n=g#6 v=0
305234 On ch=1 n=g#7 v=0
305309 On ch=1 n=a7 v=107
305314 On ch=1 n=a6 v=94
305364 On ch=1 n=a6 v=0
305374 On ch=1 n=a7 v=0
305384 Par ch=1 c=64 v=104
305404 Par ch=1 c=64 v=40
305414 On ch=1 n=c3 v=80
305419 Par ch=1 c=64 v=0
305449 On ch=1 n=c4 v=84
305454 On ch=1 n=c3 v=0
305454 Par ch=1 c=64 v=56
305469 On ch=1 n=b6 v=94
305469 On ch=1 n=b7 v=105
305469 Par ch=1 c=64 v=127
305479 On ch=1 n=c4 v=0
305534 On ch=1 n=b6 v=0
305574 On ch=1 n=b7 v=0
305679 On ch=1 n=c8 v=110
305684 On ch=1 n=c7 v=105
305684 On ch=1 n=g7 v=100
305684 On ch=1 n=e7 v=92
305689 Par ch=1 c=64 v=56
305699 On ch=1 n=c5 v=81
305704 On ch=1 n=c6 v=84
305704 On ch=1 n=g5 v=81
305704 Par ch=1 c=64 v=0
305714 On ch=1 n=e5 v=77
305759 On ch=1 n=c6 v=0
305769 Par ch=1 c=64 v=88
305779 On ch=1 n=g5 v=0
305789 Par ch=1 c=64 v=127
305809 On ch=1 n=e5 v=0
305809 On ch=1 n=c5 v=0
306019 On ch=1 n=e7 v=0
306119 Par ch=1 c=64 v=40
306134 Par ch=1 c=64 v=0
306159 On ch=1 n=a2 v=82
306169 On ch=1 n=c8 v=0
306199 On ch=1 n=c7 v=0
306219 Par ch=1 c=64 v=104
306224 On ch=1 n=g7 v=0
306229 On ch=1 n=a2 v=0
306229 On ch=1 n=a3 v=84
306234 Par ch=1 c=64 v=127
306259 On ch=1 n=a3 v=0
306399 Par ch=1 c=64 v=88
306419 Par ch=1 c=64 v=40
306429 On ch=1 n=c8 v=102
306434 On ch=1 n=f7 v=92
306434 Par ch=1 c=64 v=24
306439 On ch=1 n=c7 v=93
306449 Par ch=1 c=64 v=72
306454 On ch=1 n=d5 v=75
306459 On ch=1 n=f5 v=80
306459 On ch=1 n=a4 v=72
306464 On ch=1 n=f4 v=73
306469 Par ch=1 c=64 v=127
306504 On ch=1 n=c7 v=0
306514 On ch=1 n=f7 v=0
306514 On ch=1 n=c8 v=0
306519 On ch=1 n=f5 v=0
306519 On ch=1 n=d5 v=0
306534 On ch=1 n=a4 v=0
306554 On ch=1 n=f4 v=0
306604 On ch=1 n=b7 v=93
306609 On ch=1 n=b6 v=90
306659 On ch=1 n=b6 v=0
306669 On ch=1 n=b7 v=0
306769 On ch=1 n=a7 v=102
306774 On ch=1 n=a6 v=84
306829 On ch=1 n=a6 v=0
306839 On ch=1 n=a7 v=0
306849 Par ch=1 c=64 v=88
306864 Par ch=1 c=64 v=0
306884 On ch=1 n=a2 v=80
306899 On ch=1 n=a3 v=83
306914 On ch=1 n=a2 v=0
306914 Par ch=1 c=64 v=56
306919 On ch=1 n=g#6 v=92
306929 On ch=1 n=g#7 v=95
306934 Par ch=1 c=64 v=127
306944 On ch=1 n=a3 v=0
307009 On ch=1 n=g#6 v=0
307024 On ch=1 n=g#7 v=0
307129 On ch=1 n=a6 v=99
307134 On ch=1 n=a7 v=110
307134 On ch=1 n=e7 v=93
307134 On ch=1 n=c7 v=86
307159 On ch=1 n=a4 v=74
307159 On ch=1 n=c5 v=78
307164 On ch=1 n=a5 v=78
307164 Par ch=1 c=64 v=104
307169 On ch=1 n=e5 v=77
307184 Par ch=1 c=64 v=0
307284 Par ch=1 c=64 v=127
307349 On ch=1 n=a5 v=0
307364 On ch=1 n=e5 v=0
307374 On ch=1 n=c7 v=0
307379 On ch=1 n=a4 v=0
307384 On ch=1 n=c5 v=0
307384 On ch=1 n=a6 v=0
307404 On ch=1 n=e7 v=0
307439 On ch=1 n=a7 v=0
307564 Par ch=1 c=64 v=88
307579 Par ch=1 c=64 v=40
307599 Par ch=1 c=64 v=0
307674 On ch=1 n=c8 v=99
307679 On ch=1 n=c7 v=92
307734 On ch=1 n=c7 v=0
307744 On ch=1 n=c8 v=0
307829 On ch=1 n=b2 v=70
307829 Par ch=1 c=64 v=88
307844 On ch=1 n=b3 v=89
307844 Par ch=1 c=64 v=127
307849 On ch=1 n=b7 v=105
307849 On ch=1 n=b6 v=102
307859 On ch=1 n=b2 v=0
307889 On ch=1 n=b3 v=0
307899 On ch=1 n=b6 v=0
307909 On ch=1 n=b7 v=0
308014 Par ch=1 c=64 v=104
308024 On ch=1 n=a7 v=107
308024 On ch=1 n=a6 v=93
308029 Par ch=1 c=64 v=72
308044 Par ch=1 c=64 v=56
308064 Par ch=1 c=64 v=24
308069 On ch=1 n=a7 v=0
308084 On ch=1 n=a6 v=0
308084 Par ch=1 c=64 v=0
308189 On ch=1 n=b4 v=68
308194 On ch=1 n=g#6 v=92
308194 On ch=1 n=g#7 v=95
308194 On ch=1 n=g#5 v=74
308204 On ch=1 n=e5 v=68
308229 On ch=1 n=g#5 v=0
308234 On ch=1 n=e5 v=0
308244 On ch=1 n=g#6 v=0
308254 On ch=1 n=g#7 v=0
308259 On ch=1 n=b4 v=0
308354 On ch=1 n=b7 v=100
308354 On ch=1 n=b6 v=96
308399 On ch=1 n=b7 v=0
308409 On ch=1 n=b6 v=0
308514 On ch=1 n=b3 v=93
308514 Par ch=1 c=64 v=72
308529 On ch=1 n=a7 v=99
308529 Par ch=1 c=64 v=127
308539 On ch=1 n=a6 v=85
308569 On ch=1 n=a6 v=0
308569 On ch=1 n=b3 v=0
308584 On ch=1 n=a7 v=0
308644 Par ch=1 c=64 v=104
308664 Par ch=1 c=64 v=72
308679 Par ch=1 c=64 v=56
308684 On ch=1 n=c#7 v=96
308689 On ch=1 n=c#6 v=86
308694 Par ch=1 c=64 v=40
308714 Par ch=1 c=64 v=24
308729 On ch=1 n=c#6 v=0
308729 Par ch=1 c=64 v=0
308739 On ch=1 n=c#7 v=0
308864 On ch=1 n=f#6 v=97
308864 On ch=1 n=f#7 v=93
308869 On ch=1 n=a5 v=80
308869 On ch=1 n=f#5 v=69
308869 On ch=1 n=c#5 v=69
308914 On ch=1 n=f#5 v=0
308914 On ch=1 n=a5 v=0
308914 On ch=1 n=f#6 v=0
308929 On ch=1 n=c#5 v=0
308929 On ch=1 n=f#7 v=0
309034 On ch=1 n=a7 v=105
309039 On ch=1 n=a6 v=93
309084 On ch=1 n=a7 v=0
309089 On ch=1 n=a6 v=0
309179 Par ch=1 c=64 v=40
309189 On ch=1 n=b3 v=85
309194 Par ch=1 c=64 v=127
309199 On ch=1 n=g#7 v=97
309204 On ch=1 n=g#6 v=97
309214 On ch=1 n=b3 v=0
309254 On ch=1 n=g#6 v=0
309264 On ch=1 n=g#7 v=0
309364 On ch=1 n=f#7 v=88
309369 On ch=1 n=f#6 v=93
309374 Par ch=1 c=64 v=104
309394 Par ch=1 c=64 v=72
309409 Par ch=1 c=64 v=56
309419 On ch=1 n=f#6 v=0
309429 Par ch=1 c=64 v=24
309434 On ch=1 n=f#7 v=0
309444 Par ch=1 c=64 v=0
309524 On ch=1 n=g#5 v=73
309534 On ch=1 n=b4 v=68
309534 On ch=1 n=e7 v=100
309534 On ch=1 n=e6 v=94
309544 On ch=1 n=e5 v=70
309574 On ch=1 n=e5 v=0
309579 On ch=1 n=e7 v=0
309579 On ch=1 n=g#5 v=0
309589 On ch=1 n=e6 v=0
309614 On ch=1 n=b4 v=0
309694 On ch=1 n=g#7 v=93
309699 On ch=1 n=g#6 v=96
309744 On ch=1 n=g#6 v=0
309754 On ch=1 n=g#7 v=0
309844 Par ch=1 c=64 v=72
309854 On ch=1 n=b3 v=83
309859 Par ch=1 c=64 v=127
309864 On ch=1 n=f#6 v=89
309864 On ch=1 n=f#7 v=85
309914 On ch=1 n=b3 v=0
309924 On ch=1 n=f#6 v=0
309934 On ch=1 n=f#7 v=0
310029 On ch=1 n=e7 v=97
310029 Par ch=1 c=64 v=104
310034 On ch=1 n=e6 v=94
310044 Par ch=1 c=64 v=88
310059 Par ch=1 c=64 v=56
310079 On ch=1 n=e6 v=0
310079 On ch=1 n=e7 v=0
310079 Par ch=1 c=64 v=40
310094 Par ch=1 c=64 v=24
310109 Par ch=1 c=64 v=0
310189 On ch=1 n=a4 v=76
310194 On ch=1 n=d#7 v=90
310194 On ch=1 n=f#5 v=73
310199 On ch=1 n=d#6 v=96
310199 On ch=1 n=d#5 v=74
310234 On ch=1 n=f#5 v=0
310239 On ch=1 n=d#5 v=0
310249 On ch=1 n=d#6 v=0
310259 On ch=1 n=a4 v=0
310274 On ch=1 n=d#7 v=0
310369 On ch=1 n=f#7 v=91
310369 On ch=1 n=f#6 v=95
310419 On ch=1 n=f#6 v=0
310424 On ch=1 n=f#7 v=0
310524 Par ch=1 c=64 v=56
310529 On ch=1 n=e4 v=74
310534 On ch=1 n=f#7 v=92
310534 On ch=1 n=b4 v=70
310534 On ch=1 n=f#6 v=99
310534 On ch=1 n=e5 v=72
310539 On ch=1 n=g#4 v=49
310539 Par ch=1 c=64 v=127
310569 On ch=1 n=g#4 v=0
310589 On ch=1 n=f#6 v=0
310599 On ch=1 n=b4 v=0
310599 On ch=1 n=f#7 v=0
310599 On ch=1 n=e4 v=0
310619 On ch=1 n=e5 v=0
310694 On ch=1 n=e7 v=99
310699 On ch=1 n=e6 v=96
310754 On ch=1 n=e6 v=0
310754 On ch=1 n=e7 v=0
310794 Par ch=1 c=64 v=104
310809 Par ch=1 c=64 v=72
310824 Par ch=1 c=64 v=56
310839 Par ch=1 c=64 v=24
310859 On ch=1 n=e7 v=97
310859 Par ch=1 c=64 v=0
310864 On ch=1 n=f#5 v=69
310869 On ch=1 n=e6 v=96
310869 On ch=1 n=c5 v=66
310879 On ch=1 n=a4 v=51
310899 On ch=1 n=c5 v=0
310904 On ch=1 n=f#5 v=0
310914 On ch=1 n=a4 v=0
310919 On ch=1 n=e6 v=0
310924 On ch=1 n=e7 v=0
311024 On ch=1 n=d#7 v=92
311029 On ch=1 n=d#6 v=96
311084 On ch=1 n=d#6 v=0
311114 On ch=1 n=d#7 v=0
311189 Par ch=1 c=64 v=88
311199 On ch=1 n=f#7 v=99
311199 On ch=1 n=f#6 v=100
311204 Par ch=1 c=64 v=127
311209 On ch=1 n=e4 v=65
311209 On ch=1 n=b4 v=69
311214 On ch=1 n=e5 v=74
311214 On ch=1 n=g#4 v=60
311254 On ch=1 n=f#6 v=0
311269 On ch=1 n=f#7 v=0
311289 On ch=1 n=e5 v=0
311289 On ch=1 n=b4 v=0
311289 On ch=1 n=e4 v=0
311304 On ch=1 n=g#4 v=0
311364 On ch=1 n=e7 v=96
311374 On ch=1 n=e6 v=90
311414 On ch=1 n=e7 v=0
311419 On ch=1 n=e6 v=0
311474 Par ch=1 c=64 v=88
311489 Par ch=1 c=64 v=56
311509 Par ch=1 c=64 v=40
311524 Par ch=1 c=64 v=24
311529 On ch=1 n=e7 v=96
311534 On ch=1 n=f#5 v=62
311539 On ch=1 n=e6 v=93
311539 On ch=1 n=c5 v=61
311539 Par ch=1 c=64 v=0
311559 On ch=1 n=a4 v=37
311569 On ch=1 n=c5 v=0
311574 On ch=1 n=f#5 v=0
311594 On ch=1 n=a4 v=0
311594 On ch=1 n=e6 v=0
311594 On ch=1 n=e7 v=0
311694 On ch=1 n=d#6 v=95
311699 On ch=1 n=d#7 v=92
311769 On ch=1 n=d#7 v=0
311774 On ch=1 n=d#6 v=0
311894 On ch=1 n=e7 v=109
311899 On ch=1 n=e6 v=110
311899 On ch=1 n=g#6 v=88
311904 On ch=1 n=b6 v=99
311904 On ch=1 n=g#4 v=76
311909 On ch=1 n=e5 v=93
311914 On ch=1 n=b4 v=84
311914 On ch=1 n=e4 v=82
311924 Par ch=1 c=64 v=56
311939 Par ch=1 c=64 v=127
311964 On ch=1 n=e6 v=0
311969 On ch=1 n=e5 v=0
311974 On ch=1 n=e4 v=0
311974 On ch=1 n=b4 v=0
311979 On ch=1 n=g#6 v=0
311984 On ch=1 n=g#4 v=0
311999 On ch=1 n=b6 v=0
312014 On ch=1 n=e7 v=0
312619 Par ch=1 c=64 v=104
312634 Par ch=1 c=64 v=0
312644 On ch=1 n=e8 v=109
312649 On ch=1 n=e7 v=97
312649 On ch=1 n=g#7 v=90
312654 On ch=1 n=b7 v=99
312659 On ch=1 n=e3 v=79
312659 On ch=1 n=e4 v=102
312659 On ch=1 n=b3 v=93
312664 On ch=1 n=g#3 v=79
312714 On ch=1 n=e3 v=0
312719 Par ch=1 c=64 v=72
312729 On ch=1 n=b3 v=0
312729 On ch=1 n=e4 v=0
312734 On ch=1 n=g#3 v=0
312734 On ch=1 n=e8 v=0
312739 On ch=1 n=e7 v=0
312739 Par ch=1 c=64 v=127
312749 On ch=1 n=b7 v=0
312754 On ch=1 n=g#7 v=0
313089 Par ch=1 c=64 v=88
313104 Par ch=1 c=64 v=40
313119 Par ch=1 c=64 v=0
313249 Par ch=1 c=64 v=24
313269 Par ch=1 c=64 v=72
313284 Par ch=1 c=64 v=127
313309 On ch=1 n=e5 v=87
313309 On ch=1 n=e6 v=84
313314 On ch=1 n=b5 v=80
313314 On ch=1 n=g#4 v=65
313319 On ch=1 n=g#5 v=64
313319 On ch=1 n=e4 v=70
313329 On ch=1 n=b4 v=68
313344 On ch=1 n=g#5 v=0
313344 On ch=1 n=g#4 v=0
313344 On ch=1 n=b5 v=0
313344 On ch=1 n=e6 v=0
313349 On ch=1 n=e4 v=0
313349 On ch=1 n=e5 v=0
313359 On ch=1 n=b4 v=0
313399 On ch=1 n=e6 v=100
313399 On ch=1 n=e5 v=103
313404 On ch=1 n=g#5 v=75
313404 On ch=1 n=b5 v=90
313404 Par ch=1 c=64 v=104
313414 On ch=1 n=e4 v=74
313414 On ch=1 n=g#4 v=74
313419 On ch=1 n=b4 v=75
313419 Par ch=1 c=64 v=0
313569 Par ch=1 c=64 v=88
313584 Par ch=1 c=64 v=127
313599 On ch=1 n=e4 v=0
313609 On ch=1 n=b4 v=0
313614 On ch=1 n=e5 v=0
313624 On ch=1 n=g#4 v=0
313649 On ch=1 n=g#5 v=0
313659 On ch=1 n=b5 v=0
313684 On ch=1 n=e6 v=0
313849 Par ch=1 c=64 v=88
313869 Par ch=1 c=64 v=56
313884 Par ch=1 c=64 v=24
313899 Par ch=1 c=64 v=0
314054 On ch=1 n=g#6 v=100
314054 On ch=1 n=g#5 v=96
314059 On ch=1 n=c#6 v=86
314064 On ch=1 n=e6 v=90
314064 On ch=1 n=c#4 v=76
314064 Par ch=1 c=64 v=72
314069 On ch=1 n=c#5 v=85
314074 On ch=1 n=g#4 v=76
314079 On ch=1 n=e4 v=74
314084 Par ch=1 c=64 v=127
314109 On ch=1 n=e4 v=0
314134 On ch=1 n=g#4 v=0
314134 On ch=1 n=c#4 v=0
314134 On ch=1 n=g#5 v=0
314139 On ch=1 n=c#5 v=0
314139 On ch=1 n=e6 v=0
314144 On ch=1 n=c#6 v=0
314164 On ch=1 n=g#6 v=0
314599 Par ch=1 c=64 v=104
314614 Par ch=1 c=64 v=88
314634 Par ch=1 c=64 v=56
314649 Par ch=1 c=64 v=40
314664 Par ch=1 c=64 v=24
314684 Par ch=1 c=64 v=0
314779 On ch=1 n=b5 v=110
314779 On ch=1 n=d#6 v=100
314779 On ch=1 n=b6 v=110
314779 On ch=1 n=g#6 v=96
314789 On ch=1 n=g#3 v=72
314789 On ch=1 n=d#4 v=86
314794 On ch=1 n=g#4 v=85
314829 Par ch=1 c=64 v=56
314849 Par ch=1 c=64 v=127
315139 On ch=1 n=g#3 v=0
315144 On ch=1 n=g#4 v=0
315159 On ch=1 n=d#4 v=0
315399 On ch=1 n=d#6 v=0
315499 On ch=1 n=b5 v=0
315504 On ch=1 n=b6 v=0
315564 Par ch=1 c=64 v=104
315579 Par ch=1 c=64 v=72
315594 On ch=1 n=g#6 v=0
315594 Par ch=1 c=64 v=56
315614 Par ch=1 c=64 v=24
315629 Par ch=1 c=64 v=0
315744 Par ch=1 c=64 v=40
315759 On ch=1 n=b5 v=96
315759 On ch=1 n=g#6 v=91
315764 On ch=1 n=b6 v=102
315764 On ch=1 n=c#4 v=83
315764 Par ch=1 c=64 v=127
315769 On ch=1 n=c#3 v=61
315774 On ch=1 n=e6 v=82
315799 On ch=1 n=e6 v=0
315799 On ch=1 n=c#3 v=0
315814 On ch=1 n=c#4 v=0
315824 On ch=1 n=b5 v=0
315854 On ch=1 n=b6 v=0
315869 On ch=1 n=g#6 v=0
315989 On ch=1 n=e6 v=79
315989 On ch=1 n=e7 v=83
316024 On ch=1 n=e6 v=0
316029 On ch=1 n=e7 v=0
316029 Par ch=1 c=64 v=104
316044 Par ch=1 c=64 v=40
316059 Par ch=1 c=64 v=0
316099 On ch=1 n=g#3 v=65
316104 On ch=1 n=g#4 v=78
316109 On ch=1 n=b6 v=105
316109 On ch=1 n=b5 v=107
316109 Par ch=1 c=64 v=56
316114 On ch=1 n=d#6 v=87
316114 On ch=1 n=g#6 v=85
316124 Par ch=1 c=64 v=127
316144 On ch=1 n=g#6 v=0
316149 On ch=1 n=b5 v=0
316154 On ch=1 n=d#6 v=0
316154 On ch=1 n=b6 v=0
316154 On ch=1 n=g#4 v=0
316154 On ch=1 n=g#3 v=0
316294 Par ch=1 c=64 v=104
316309 Par ch=1 c=64 v=72
316324 Par ch=1 c=64 v=24
316344 Par ch=1 c=64 v=0
316459 Par ch=1 c=64 v=72
316464 On ch=1 n=e6 v=95
316464 On ch=1 n=b5 v=97
316464 On ch=1 n=g#6 v=90
316464 On ch=1 n=c#5 v=81
316464 On ch=1 n=b6 v=94
316464 On ch=1 n=c#4 v=69
316474 Par ch=1 c=64 v=127
316514 On ch=1 n=c#4 v=0
316514 On ch=1 n=c#5 v=0
316514 On ch=1 n=b5 v=0
316539 On ch=1 n=e6 v=0
316559 On ch=1 n=b6 v=0
316569 On ch=1 n=g#6 v=0
316684 On ch=1 n=e7 v=97
316689 On ch=1 n=e6 v=86
316719 On ch=1 n=e6 v=0
316744 On ch=1 n=e7 v=0
316744 Par ch=1 c=64 v=88
316759 Par ch=1 c=64 v=24
316774 Par ch=1 c=64 v=0
316804 On ch=1 n=g#5 v=84
316809 Par ch=1 c=64 v=40
316814 On ch=1 n=g#4 v=69
316819 On ch=1 n=b6 v=105
316824 On ch=1 n=b5 v=102
316824 Par ch=1 c=64 v=104
316834 On ch=1 n=d#6 v=74
316834 On ch=1 n=g#6 v=67
316844 Par ch=1 c=64 v=127
316859 On ch=1 n=d#6 v=0
316864 On ch=1 n=g#6 v=0
316864 On ch=1 n=g#5 v=0
316869 On ch=1 n=b5 v=0
316884 On ch=1 n=g#4 v=0
316919 On ch=1 n=b6 v=0
317044 Par ch=1 c=64 v=104
317059 Par ch=1 c=64 v=56
317074 Par ch=1 c=64 v=0
317159 On ch=1 n=b5 v=99
317159 On ch=1 n=g#6 v=95
317159 On ch=1 n=b6 v=99
317159 On ch=1 n=c#5 v=84
317159 On ch=1 n=c#4 v=73
317159 Par ch=1 c=64 v=56
317164 On ch=1 n=e6 v=88
317174 Par ch=1 c=64 v=127
317209 On ch=1 n=b5 v=0
317219 On ch=1 n=c#5 v=0
317224 On ch=1 n=e6 v=0
317234 On ch=1 n=c#4 v=0
317249 On ch=1 n=b6 v=0
317264 On ch=1 n=g#6 v=0
317384 On ch=1 n=e7 v=96
317394 On ch=1 n=e6 v=89
317424 On ch=1 n=e6 v=0
317439 Par ch=1 c=64 v=88
317444 On ch=1 n=e7 v=0
317454 Par ch=1 c=64 v=24
317474 Par ch=1 c=64 v=0
317504 On ch=1 n=g#3 v=71
317504 On ch=1 n=g#4 v=86
317514 On ch=1 n=b6 v=107
317519 On ch=1 n=g#6 v=92
317519 On ch=1 n=b5 v=112
317524 On ch=1 n=d#6 v=90
317524 Par ch=1 c=64 v=24
317544 Par ch=1 c=64 v=127
317569 On ch=1 n=g#4 v=0
317584 On ch=1 n=g#3 v=0
317759 Par ch=1 c=64 v=88
317774 Par ch=1 c=64 v=0
317849 On ch=1 n=g4 v=88
317854 On ch=1 n=g3 v=78
317859 Par ch=1 c=64 v=40
317874 Par ch=1 c=64 v=127
317909 On ch=1 n=g4 v=0
317914 On ch=1 n=g3 v=0
318124 Par ch=1 c=64 v=40
318144 Par ch=1 c=64 v=0
318194 On ch=1 n=f#4 v=91
318194 On ch=1 n=f#3 v=85
318219 Par ch=1 c=64 v=88
318239 Par ch=1 c=64 v=127
318249 On ch=1 n=f#4 v=0
318254 On ch=1 n=b5 v=0
318259 On ch=1 n=f#3 v=0
318279 On ch=1 n=d#6 v=0
318319 On ch=1 n=g#6 v=0
318329 On ch=1 n=b6 v=0
318459 Par ch=1 c=64 v=88
318474 Par ch=1 c=64 v=24
318494 Par ch=1 c=64 v=0
318544 On ch=1 n=f3 v=82
318549 On ch=1 n=f4 v=102
318559 Par ch=1 c=64 v=56
318574 Par ch=1 c=64 v=127
318614 On ch=1 n=f3 v=0
318619 On ch=1 n=f4 v=0
318754 Par ch=1 c=64 v=88
318774 Par ch=1 c=64 v=56
318789 Par ch=1 c=64 v=24
318804 Par ch=1 c=64 v=0
318934 On ch=1 n=e7 v=103
318939 On ch=1 n=d6 v=93
318939 On ch=1 n=b6 v=96
318944 On ch=1 n=e6 v=94
318944 On ch=1 n=g#6 v=85
318949 On ch=1 n=e3 v=87
318949 On ch=1 n=e4 v=102
318974 Par ch=1 c=64 v=72
318989 Par ch=1 c=64 v=127
319009 On ch=1 n=e4 v=0
319009 On ch=1 n=e3 v=0
319054 On ch=1 n=e6 v=0
319059 On ch=1 n=g#6 v=0
319059 On ch=1 n=d6 v=0
319074 On ch=1 n=b6 v=0
319084 On ch=1 n=e7 v=0
319674 Par ch=1 c=64 v=104
319689 Par ch=1 c=64 v=72
319704 Par ch=1 c=64 v=40
319719 Par ch=1 c=64 v=0
320074 On ch=1 n=e5 v=82
320074 On ch=1 n=e6 v=85
320099 Par ch=1 c=64 v=40
320109 Par ch=1 c=64 v=72
320119 Par ch=1 c=64 v=127
320254 On ch=1 n=e6 v=0
320254 On ch=1 n=e5 v=0
320294 Par ch=1 c=64 v=104
320294 On ch=1 n=c8 v=97
320294 On ch=1 n=a7 v=70
320299 Par ch=1 c=64 v=56
320309 Par ch=1 c=64 v=0
320319 On ch=1 n=c6 v=88
320319 On ch=1 n=a5 v=74
320339 Par ch=1 c=64 v=56
320349 Par ch=1 c=64 v=72
320359 Par ch=1 c=64 v=104
320369 Par ch=1 c=64 v=127
320384 On ch=1 n=a5 v=0
320394 On ch=1 n=b7 v=89
320394 On ch=1 n=g7 v=66
320409 On ch=1 n=c6 v=0
320414 On ch=1 n=a7 v=0
320414 On ch=1 n=c8 v=0
320434 On ch=1 n=e6 v=77
320449 On ch=1 n=a7 v=86
320449 On ch=1 n=f7 v=64
320464 On ch=1 n=g7 v=0
320464 On ch=1 n=b7 v=0
320499 On ch=1 n=g7 v=86
320499 On ch=1 n=e7 v=64
320509 On ch=1 n=f7 v=0
320509 On ch=1 n=a7 v=0
320514 On ch=1 n=e6 v=0
320534 Par ch=1 c=64 v=104
320539 Par ch=1 c=64 v=72
320549 Par ch=1 c=64 v=40
320559 On ch=1 n=f7 v=85
320559 On ch=1 n=d7 v=63
320564 On ch=1 n=e7 v=0
320564 On ch=1 n=g7 v=0
320564 On ch=1 n=c6 v=89
320574 On ch=1 n=a5 v=64
320584 Par ch=1 c=64 v=72
320589 Par ch=1 c=64 v=104
320599 On ch=1 n=a5 v=0
320599 Par ch=1 c=64 v=127
320609 On ch=1 n=c6 v=0
320624 On ch=1 n=e7 v=84
320624 On ch=1 n=c7 v=62
320634 On ch=1 n=d7 v=0
320634 On ch=1 n=f7 v=0
320674 On ch=1 n=d7 v=88
320674 On ch=1 n=b6 v=66
320679 On ch=1 n=c7 v=0
320679 On ch=1 n=e7 v=0
320734 On ch=1 n=b6 v=0
320734 On ch=1 n=d7 v=0
320734 On ch=1 n=c7 v=83
320734 On ch=1 n=a6 v=62
320774 Par ch=1 c=64 v=104
320784 Par ch=1 c=64 v=56
320794 Par ch=1 c=64 v=0
320799 On ch=1 n=b6 v=90
320799 On ch=1 n=g6 v=67
320804 On ch=1 n=a6 v=0
320804 On ch=1 n=c7 v=0
320809 On ch=1 n=d5 v=81
320819 On ch=1 n=b4 v=67
320844 Par ch=1 c=64 v=24
320854 Par ch=1 c=64 v=56
320854 On ch=1 n=a6 v=83
320854 On ch=1 n=f6 v=62
320859 On ch=1 n=g6 v=0
320859 On ch=1 n=b6 v=0
320864 Par ch=1 c=64 v=88
320874 Par ch=1 c=64 v=127
320914 On ch=1 n=f6 v=0
320914 On ch=1 n=a6 v=0
320914 On ch=1 n=g6 v=83
320914 On ch=1 n=e6 v=62
320924 On ch=1 n=b4 v=0
320939 On ch=1 n=g5 v=86
320944 On ch=1 n=d5 v=0
320969 On ch=1 n=f6 v=83
320969 On ch=1 n=d6 v=62
320974 On ch=1 n=e6 v=0
320974 On ch=1 n=g6 v=0
321014 On ch=1 n=d6 v=0
321014 On ch=1 n=f6 v=0
321014 Par ch=1 c=64 v=104
321014 On ch=1 n=e6 v=88
321014 On ch=1 n=c6 v=66
321029 Par ch=1 c=64 v=72
321034 Par ch=1 c=64 v=24
321049 On ch=1 n=g5 v=0
321049 Par ch=1 c=64 v=0
321054 On ch=1 n=c6 v=0
321054 On ch=1 n=e6 v=0
321059 On ch=1 n=d6 v=78
321059 On ch=1 n=b5 v=58
321064 On ch=1 n=d5 v=86
321069 On ch=1 n=b4 v=75
321084 Par ch=1 c=64 v=72
321094 On ch=1 n=b4 v=0
321094 Par ch=1 c=64 v=104
321104 Par ch=1 c=64 v=127
321109 On ch=1 n=c6 v=81
321109 On ch=1 n=a5 v=60
321114 On ch=1 n=d5 v=0
321114 On ch=1 n=b5 v=0
321114 On ch=1 n=d6 v=0
321154 On ch=1 n=a5 v=0
321154 On ch=1 n=c6 v=0
321164 On ch=1 n=b5 v=69
321164 On ch=1 n=g5 v=51
321219 On ch=1 n=g5 v=0
321219 On ch=1 n=b5 v=0
321259 Par ch=1 c=64 v=88
321269 Par ch=1 c=64 v=40
321279 Par ch=1 c=64 v=0
321304 On ch=1 n=a5 v=98
321314 On ch=1 n=f5 v=70
321324 On ch=1 n=a7 v=88
321324 On ch=1 n=f7 v=66
321344 Par ch=1 c=64 v=56
321354 Par ch=1 c=64 v=104
321364 Par ch=1 c=64 v=127
321379 On ch=1 n=g7 v=90
321379 On ch=1 n=e7 v=67
321384 On ch=1 n=f7 v=0
321384 On ch=1 n=a7 v=0
321424 On ch=1 n=a5 v=0
321429 On ch=1 n=f5 v=0
321429 On ch=1 n=c6 v=93
321434 On ch=1 n=f7 v=95
321434 On ch=1 n=d7 v=71
321449 On ch=1 n=e7 v=0
321449 On ch=1 n=g7 v=0
321479 On ch=1 n=e7 v=92
321479 On ch=1 n=c7 v=69
321494 On ch=1 n=d7 v=0
321494 On ch=1 n=f7 v=0
321539 On ch=1 n=c7 v=0
321539 On ch=1 n=e7 v=0
321539 On ch=1 n=c6 v=0
321539 On ch=1 n=d7 v=84
321539 On ch=1 n=b6 v=62
321559 On ch=1 n=a5 v=90
321564 On ch=1 n=f5 v=66
321589 On ch=1 n=c7 v=86
321589 On ch=1 n=a6 v=64
321594 On ch=1 n=f5 v=0
321594 On ch=1 n=b6 v=0
321594 On ch=1 n=d7 v=0
321609 On ch=1 n=a5 v=0
321639 On ch=1 n=b6 v=85
321639 On ch=1 n=g6 v=63
321644 On ch=1 n=a6 v=0
321644 On ch=1 n=c7 v=0
321694 On ch=1 n=g6 v=0
321694 On ch=1 n=b6 v=0
321699 On ch=1 n=a6 v=82
321699 On ch=1 n=f6 v=61
321744 Par ch=1 c=64 v=88
321754 Par ch=1 c=64 v=40
321759 On ch=1 n=g6 v=86
321759 On ch=1 n=e6 v=64
321764 Par ch=1 c=64 v=0
321769 On ch=1 n=f6 v=0
321769 On ch=1 n=a6 v=0
321809 On ch=1 n=b4 v=79
321814 On ch=1 n=e6 v=0
321814 On ch=1 n=g6 v=0
321814 On ch=1 n=g4 v=63
321814 On ch=1 n=f6 v=83
321814 On ch=1 n=d6 v=62
321829 Par ch=1 c=64 v=40
321839 Par ch=1 c=64 v=88
321849 Par ch=1 c=64 v=127
321864 On ch=1 n=d6 v=0
321864 On ch=1 n=f6 v=0
321869 On ch=1 n=e6 v=79
321869 On ch=1 n=c6 v=59
321914 On ch=1 n=g4 v=0
321914 On ch=1 n=b4 v=0
321929 On ch=1 n=d6 v=77
321929 On ch=1 n=b5 v=57
321934 On ch=1 n=c6 v=0
321934 On ch=1 n=e6 v=0
321934 On ch=1 n=e5 v=77
321974 On ch=1 n=b5 v=0
321974 On ch=1 n=d6 v=0
321979 On ch=1 n=c6 v=79
321979 On ch=1 n=a5 v=59
322014 On ch=1 n=a5 v=0
322014 On ch=1 n=c6 v=0
322024 On ch=1 n=e5 v=0
322024 On ch=1 n=b5 v=73
322024 On ch=1 n=g5 v=55
322059 On ch=1 n=b4 v=74
322064 On ch=1 n=g4 v=61
322064 On ch=1 n=a5 v=68
322064 On ch=1 n=f5 v=50
322074 On ch=1 n=g5 v=0
322074 On ch=1 n=b5 v=0
322084 On ch=1 n=g4 v=0
322109 On ch=1 n=b4 v=0
322114 On ch=1 n=f5 v=0
322114 On ch=1 n=a5 v=0
322119 On ch=1 n=g5 v=64
322119 On ch=1 n=e5 v=48
322169 On ch=1 n=e5 v=0
322169 On ch=1 n=g5 v=0
322274 Par ch=1 c=64 v=72
322284 Par ch=1 c=64 v=0
322309 On ch=1 n=f7 v=98
322309 On ch=1 n=d7 v=75
322324 On ch=1 n=f5 v=81
322324 On ch=1 n=d5 v=68
322364 Par ch=1 c=64 v=24
322374 On ch=1 n=d7 v=0
322374 On ch=1 n=f7 v=0
322374 Par ch=1 c=64 v=72
322374 On ch=1 n=e7 v=84
322374 On ch=1 n=c7 v=62
322384 Par ch=1 c=64 v=127
322419 On ch=1 n=d5 v=0
322419 On ch=1 n=f5 v=0
322429 On ch=1 n=d7 v=83
322429 On ch=1 n=b6 v=62
322439 On ch=1 n=a5 v=81
322444 On ch=1 n=c7 v=0
322444 On ch=1 n=e7 v=0
322479 On ch=1 n=c7 v=82
322479 On ch=1 n=a6 v=61
322484 On ch=1 n=b6 v=0
322484 On ch=1 n=d7 v=0
322529 On ch=1 n=a6 v=0
322529 On ch=1 n=c7 v=0
322534 On ch=1 n=b6 v=82
322534 On ch=1 n=g6 v=61
322539 On ch=1 n=a5 v=0
322574 On ch=1 n=f5 v=81
322579 On ch=1 n=d5 v=69
322584 On ch=1 n=a6 v=79
322584 On ch=1 n=f6 v=59
322589 On ch=1 n=g6 v=0
322589 On ch=1 n=b6 v=0
322614 On ch=1 n=d5 v=0
322614 On ch=1 n=f5 v=0
322629 On ch=1 n=g6 v=81
322629 On ch=1 n=e6 v=60
322634 On ch=1 n=f6 v=0
322634 On ch=1 n=a6 v=0
322679 On ch=1 n=e6 v=0
322679 On ch=1 n=g6 v=0
322684 On ch=1 n=f6 v=80
322684 On ch=1 n=d6 v=59
322739 On ch=1 n=e6 v=74
322739 On ch=1 n=c6 v=56
322744 On ch=1 n=d6 v=0
322744 On ch=1 n=f6 v=0
322759 Par ch=1 c=64 v=72
322769 Par ch=1 c=64 v=24
322779 Par ch=1 c=64 v=0
322794 On ch=1 n=c6 v=0
322794 On ch=1 n=e6 v=0
322794 On ch=1 n=d6 v=77
322794 On ch=1 n=b5 v=57
322819 On ch=1 n=g4 v=82
322819 On ch=1 n=e4 v=68
322844 On ch=1 n=b5 v=0
322844 On ch=1 n=d6 v=0
322849 Par ch=1 c=64 v=40
322849 On ch=1 n=c6 v=78
322849 On ch=1 n=a5 v=58
322859 Par ch=1 c=64 v=88
322869 Par ch=1 c=64 v=127
322914 On ch=1 n=a5 v=0
322914 On ch=1 n=c6 v=0
322914 On ch=1 n=b5 v=74
322914 On ch=1 n=g5 v=56
322924 On ch=1 n=e4 v=0
322924 On ch=1 n=g4 v=0
322944 On ch=1 n=c5 v=84
322964 On ch=1 n=a5 v=71
322964 On ch=1 n=f5 v=52
322969 On ch=1 n=g5 v=0
322969 On ch=1 n=b5 v=0
323004 On ch=1 n=f5 v=0
323004 On ch=1 n=a5 v=0
323009 On ch=1 n=g5 v=70
323009 On ch=1 n=e5 v=52
323019 On ch=1 n=c5 v=0
323059 On ch=1 n=f5 v=72
323059 On ch=1 n=d5 v=53
323069 On ch=1 n=g4 v=84
323069 On ch=1 n=e4 v=69
323079 On ch=1 n=e5 v=0
323079 On ch=1 n=g5 v=0
323089 On ch=1 n=e4 v=0
323104 On ch=1 n=d5 v=0
323104 On ch=1 n=f5 v=0
323109 On ch=1 n=g4 v=0
323109 On ch=1 n=e5 v=68
323109 On ch=1 n=c5 v=50
323164 On ch=1 n=c5 v=0
323164 On ch=1 n=e5 v=0
323274 Par ch=1 c=64 v=104
323284 Par ch=1 c=64 v=88
323294 Par ch=1 c=64 v=72
323294 On ch=1 n=d7 v=99
323294 On ch=1 n=b6 v=75
323304 Par ch=1 c=64 v=40
323314 Par ch=1 c=64 v=0
323324 On ch=1 n=d5 v=86
323324 On ch=1 n=b4 v=69
323359 On ch=1 n=b6 v=0
323359 On ch=1 n=d7 v=0
323359 On ch=1 n=c7 v=83
323359 On ch=1 n=a6 v=62
323389 Par ch=1 c=64 v=56
323399 Par ch=1 c=64 v=88
323409 Par ch=1 c=64 v=127
323419 On ch=1 n=b6 v=85
323419 On ch=1 n=g6 v=63
323434 On ch=1 n=a6 v=0
323434 On ch=1 n=c7 v=0
323434 On ch=1 n=d5 v=0
323439 On ch=1 n=b4 v=0
323449 On ch=1 n=f5 v=86
323469 On ch=1 n=g6 v=0
323469 On ch=1 n=b6 v=0
323469 On ch=1 n=a6 v=81
323469 On ch=1 n=f6 v=60
323524 On ch=1 n=f6 v=0
323524 On ch=1 n=a6 v=0
323524 On ch=1 n=g6 v=83
323524 On ch=1 n=e6 v=62
323549 On ch=1 n=f5 v=0
323574 On ch=1 n=f6 v=89
323574 On ch=1 n=d6 v=66
323579 On ch=1 n=d5 v=89
323584 On ch=1 n=b4 v=67
323589 On ch=1 n=e6 v=0
323589 On ch=1 n=g6 v=0
323609 On ch=1 n=b4 v=0
323614 On ch=1 n=d5 v=0
323629 On ch=1 n=d6 v=0
323629 On ch=1 n=f6 v=0
323629 On ch=1 n=e6 v=84
323629 On ch=1 n=c6 v=62
323679 On ch=1 n=c6 v=0
323679 On ch=1 n=e6 v=0
323679 On ch=1 n=d6 v=77
323679 On ch=1 n=b5 v=57
323734 On ch=1 n=c6 v=83
323734 On ch=1 n=a5 v=62
323739 On ch=1 n=b5 v=0
323739 On ch=1 n=d6 v=0
323779 Par ch=1 c=64 v=88
323789 On ch=1 n=a5 v=0
323789 On ch=1 n=c6 v=0
323789 Par ch=1 c=64 v=40
323789 On ch=1 n=b5 v=74
323789 On ch=1 n=g5 v=56
323794 Par ch=1 c=64 v=0
323834 On ch=1 n=e4 v=85
323834 On ch=1 n=c4 v=79
323839 On ch=1 n=g5 v=0
323839 On ch=1 n=b5 v=0
323839 On ch=1 n=a5 v=77
323839 On ch=1 n=f5 v=57
323864 Par ch=1 c=64 v=24
323874 Par ch=1 c=64 v=72
323884 Par ch=1 c=64 v=104
323894 Par ch=1 c=64 v=127
323899 On ch=1 n=f5 v=0
323899 On ch=1 n=a5 v=0
323899 On ch=1 n=g5 v=71
323899 On ch=1 n=e5 v=52
323914 On ch=1 n=c4 v=0
323939 On ch=1 n=e4 v=0
323944 On ch=1 n=a4 v=77
323954 On ch=1 n=e5 v=0
323954 On ch=1 n=g5 v=0
323954 On ch=1 n=f5 v=70
323954 On ch=1 n=d5 v=52
323989 On ch=1 n=d5 v=0
323989 On ch=1 n=f5 v=0
323999 On ch=1 n=e5 v=71
323999 On ch=1 n=c5 v=52
324039 On ch=1 n=a4 v=0
324049 On ch=1 n=d5 v=75
324049 On ch=1 n=b4 v=56
324064 On ch=1 n=c5 v=0
324064 On ch=1 n=e5 v=0
324064 On ch=1 n=e4 v=80
324069 On ch=1 n=c4 v=67
324084 On ch=1 n=c4 v=0
324104 On ch=1 n=b4 v=0
324104 On ch=1 n=d5 v=0
324109 On ch=1 n=e4 v=0
324109 On ch=1 n=c5 v=68
324109 On ch=1 n=a4 v=50
324174 On ch=1 n=a4 v=0
324174 On ch=1 n=c5 v=0
324209 Par ch=1 c=64 v=88
324224 Par ch=1 c=64 v=72
324234 Par ch=1 c=64 v=40
324244 Par ch=1 c=64 v=0
324319 On ch=1 n=b4 v=79
324319 On ch=1 n=b6 v=99
324319 On ch=1 n=g6 v=75
324324 On ch=1 n=g4 v=68
324349 Par ch=1 c=64 v=40
324359 Par ch=1 c=64 v=88
324369 Par ch=1 c=64 v=127
324374 On ch=1 n=g6 v=0
324374 On ch=1 n=b6 v=0
324374 On ch=1 n=a6 v=79
324374 On ch=1 n=f6 v=59
324414 On ch=1 n=b4 v=0
324429 On ch=1 n=g6 v=84
324429 On ch=1 n=e6 v=62
324434 On ch=1 n=d5 v=84
324444 On ch=1 n=f6 v=0
324444 On ch=1 n=a6 v=0
324454 On ch=1 n=g4 v=0
324474 On ch=1 n=f6 v=86
324474 On ch=1 n=d6 v=64
324489 On ch=1 n=e6 v=0
324489 On ch=1 n=g6 v=0
324529 On ch=1 n=d6 v=0
324529 On ch=1 n=f6 v=0
324529 On ch=1 n=e6 v=84
324529 On ch=1 n=c6 v=62
324539 On ch=1 n=d5 v=0
324569 On ch=1 n=b4 v=77
324574 On ch=1 n=g4 v=63
324584 On ch=1 n=d6 v=77
324584 On ch=1 n=b5 v=57
324594 On ch=1 n=c6 v=0
324594 On ch=1 n=e6 v=0
324599 On ch=1 n=g4 v=0
324604 On ch=1 n=b4 v=0
324634 On ch=1 n=c6 v=81
324634 On ch=1 n=a5 v=60
324639 On ch=1 n=b5 v=0
324639 On ch=1 n=d6 v=0
324689 On ch=1 n=a5 v=0
324689 On ch=1 n=c6 v=0
324689 On ch=1 n=b5 v=77
324689 On ch=1 n=g5 v=57
324734 Par ch=1 c=64 v=104
324744 Par ch=1 c=64 v=88
324754 Par ch=1 c=64 v=56
324764 Par ch=1 c=64 v=24
324764 On ch=1 n=a5 v=81
324764 On ch=1 n=f5 v=60
324774 Par ch=1 c=64 v=0
324779 On ch=1 n=g5 v=0
324779 On ch=1 n=b5 v=0
324804 On ch=1 n=c4 v=88
324804 On ch=1 n=a3 v=77
324819 On ch=1 n=g5 v=71
324819 On ch=1 n=e5 v=52
324829 On ch=1 n=f5 v=0
324829 On ch=1 n=a5 v=0
324859 Par ch=1 c=64 v=40
324869 Par ch=1 c=64 v=72
324874 On ch=1 n=e5 v=0
324874 On ch=1 n=g5 v=0
324879 Par ch=1 c=64 v=104
324879 On ch=1 n=f5 v=77
324879 On ch=1 n=d5 v=57
324889 Par ch=1 c=64 v=127
324919 On ch=1 n=a3 v=0
324919 On ch=1 n=c4 v=0
324924 On ch=1 n=f4 v=84
324944 On ch=1 n=e5 v=78
324944 On ch=1 n=c5 v=58
324949 On ch=1 n=d5 v=0
324949 On ch=1 n=f5 v=0
324989 On ch=1 n=d5 v=70
324989 On ch=1 n=b4 v=52
324994 On ch=1 n=c5 v=0
324994 On ch=1 n=e5 v=0
324994 Par ch=1 c=64 v=88
325004 Par ch=1 c=64 v=40
325014 Par ch=1 c=64 v=0
325034 On ch=1 n=b4 v=0
325034 On ch=1 n=d5 v=0
325034 On ch=1 n=f4 v=0
325039 On ch=1 n=c5 v=73
325039 On ch=1 n=a4 v=55
325049 On ch=1 n=c4 v=88
325054 Par ch=1 c=64 v=24
325059 On ch=1 n=a3 v=64
325064 Par ch=1 c=64 v=56
325074 Par ch=1 c=64 v=104
325084 Par ch=1 c=64 v=127
325089 On ch=1 n=a3 v=0
325089 On ch=1 n=b4 v=74
325089 On ch=1 n=g4 v=56
325104 On ch=1 n=a4 v=0
325104 On ch=1 n=c5 v=0
325109 On ch=1 n=c4 v=0
325144 On ch=1 n=g4 v=0
325144 On ch=1 n=b4 v=0
325144 On ch=1 n=a4 v=72
325144 On ch=1 n=f4 v=53
325264 On ch=1 n=f4 v=0
325264 On ch=1 n=a4 v=0
325329 Par ch=1 c=64 v=127
325339 On ch=1 n=e3 v=80
325344 On ch=1 n=b3 v=90
325344 On ch=1 n=g#3 v=73
325349 On ch=1 n=e4 v=94
325394 On ch=1 n=e3 v=0
325414 On ch=1 n=e4 v=0
325419 On ch=1 n=g#3 v=0
325424 On ch=1 n=b3 v=0
325509 On ch=1 n=e4 v=87
325599 On ch=1 n=e4 v=0
325654 On ch=1 n=g#4 v=73
325774 On ch=1 n=g#4 v=0
325819 On ch=1 n=e5 v=71
325869 On ch=1 n=e5 v=0
325974 On ch=1 n=d5 v=66
325974 On ch=1 n=e5 v=68
326004 On ch=1 n=d5 v=0
326049 On ch=1 n=e5 v=0
326074 On ch=1 n=b4 v=87
326079 On ch=1 n=e4 v=69
326079 On ch=1 n=d4 v=63
326149 On ch=1 n=d4 v=0
326149 On ch=1 n=e4 v=0
326149 On ch=1 n=g#5 v=74
326154 On ch=1 n=b4 v=0
326249 On ch=1 n=g#5 v=0
326304 On ch=1 n=c#4 v=77
326304 On ch=1 n=a#4 v=85
326304 On ch=1 n=e5 v=80
326309 Par ch=1 c=64 v=104
326314 On ch=1 n=e4 v=70
326324 Par ch=1 c=64 v=40
326339 Par ch=1 c=64 v=24
326364 Par ch=1 c=64 v=56
326379 On ch=1 n=e5 v=0
326384 Par ch=1 c=64 v=127
326464 On ch=1 n=e5 v=81
326499 On ch=1 n=c#4 v=0
326514 On ch=1 n=e4 v=0
326534 On ch=1 n=a#4 v=0
326544 On ch=1 n=e5 v=0
326614 On ch=1 n=g#5 v=75
326734 Par ch=1 c=64 v=104
326754 Par ch=1 c=64 v=72
326769 On ch=1 n=g#5 v=0
326769 On ch=1 n=e6 v=82
326769 Par ch=1 c=64 v=88
326779 On ch=1 n=e4 v=77
326779 On ch=1 n=c4 v=82
326779 On ch=1 n=a4 v=85
326784 Par ch=1 c=64 v=127
326834 On ch=1 n=e6 v=0
326914 On ch=1 n=e6 v=90
326929 On ch=1 n=e4 v=0
326944 On ch=1 n=a4 v=0
326949 On ch=1 n=c4 v=0
327029 On ch=1 n=e6 v=0
327064 On ch=1 n=g#6 v=77
327184 On ch=1 n=g#6 v=0
327224 On ch=1 n=g#4 v=84
327224 On ch=1 n=e6 v=84
327224 On ch=1 n=b3 v=85
327229 Par ch=1 c=64 v=40
327234 On ch=1 n=e4 v=77
327244 Par ch=1 c=64 v=0
327304 On ch=1 n=e6 v=0
327319 Par ch=1 c=64 v=40
327334 Par ch=1 c=64 v=127
327379 On ch=1 n=e6 v=87
327399 On ch=1 n=b3 v=0
327439 On ch=1 n=e4 v=0
327454 On ch=1 n=g#4 v=0
327504 On ch=1 n=e6 v=0
327529 On ch=1 n=g#6 v=85
327679 On ch=1 n=g#6 v=0
327679 On ch=1 n=e7 v=77
327739 On ch=1 n=e7 v=0
327819 On ch=1 n=e7 v=84
327899 On ch=1 n=e7 v=0
327909 On ch=1 n=d5 v=74
327909 On ch=1 n=b5 v=92
327919 On ch=1 n=e5 v=80
327979 On ch=1 n=d5 v=0
327979 On ch=1 n=g#7 v=78
327989 On ch=1 n=e5 v=0
328004 On ch=1 n=b5 v=0
328089 On ch=1 n=g#7 v=0
328139 On ch=1 n=a#5 v=90
328139 On ch=1 n=c#5 v=79
328144 On ch=1 n=e5 v=75
328144 On ch=1 n=e7 v=80
328149 Par ch=1 c=64 v=72
328194 Par ch=1 c=64 v=127
328219 On ch=1 n=e7 v=0
328294 On ch=1 n=e7 v=81
328339 On ch=1 n=c#5 v=0
328349 On ch=1 n=e5 v=0
328389 On ch=1 n=e7 v=0
328409 On ch=1 n=a#5 v=0
328434 On ch=1 n=g#7 v=86
328564 Par ch=1 c=64 v=104
328579 Par ch=1 c=64 v=56
328584 On ch=1 n=e8 v=79
328589 On ch=1 n=a5 v=89
328589 On ch=1 n=e5 v=78
328594 On ch=1 n=c5 v=76
328594 Par ch=1 c=64 v=40
328609 Par ch=1 c=64 v=72
328619 On ch=1 n=g#7 v=0
328624 Par ch=1 c=64 v=104
328639 Par ch=1 c=64 v=127
328664 On ch=1 n=e8 v=0
328739 On ch=1 n=g#7 v=81
328789 On ch=1 n=e5 v=0
328804 On ch=1 n=c5 v=0
328804 On ch=1 n=a5 v=0
328854 On ch=1 n=g#7 v=0
328889 On ch=1 n=g#8 v=90
328949 On ch=1 n=g#8 v=0
329039 On ch=1 n=e7 v=79
329039 On ch=1 n=b4 v=77
329039 Par ch=1 c=64 v=104
329044 On ch=1 n=g#5 v=89
329049 On ch=1 n=e5 v=80
329054 Par ch=1 c=64 v=88
329069 Par ch=1 c=64 v=104
329084 Par ch=1 c=64 v=127
329134 On ch=1 n=b4 v=0
329154 On ch=1 n=e5 v=0
329154 On ch=1 n=g#5 v=0
329154 On ch=1 n=e7 v=0
329199 On ch=1 n=e8 v=68
329269 On ch=1 n=e8 v=0
329344 On ch=1 n=g#7 v=87
329469 Par ch=1 c=64 v=72
329484 On ch=1 n=e5 v=83
329484 On ch=1 n=b5 v=85
329484 On ch=1 n=e6 v=94
329484 Par ch=1 c=64 v=40
329489 On ch=1 n=d6 v=83
329499 On ch=1 n=g#7 v=0
329504 On ch=1 n=g#8 v=85
329529 Par ch=1 c=64 v=127
329584 On ch=1 n=g#8 v=0
329654 On ch=1 n=e7 v=75
329659 On ch=1 n=b5 v=0
329689 On ch=1 n=d6 v=0
329689 On ch=1 n=e6 v=0
329694 On ch=1 n=e5 v=0
329734 On ch=1 n=e7 v=0
329784 On ch=1 n=e8 v=89
329869 On ch=1 n=e8 v=0
329929 Par ch=1 c=64 v=88
329944 Par ch=1 c=64 v=40
329954 On ch=1 n=c#6 v=85
329954 On ch=1 n=a#5 v=75
329959 On ch=1 n=e6 v=90
329959 On ch=1 n=e5 v=78
329959 Par ch=1 c=64 v=56
329964 On ch=1 n=g#7 v=91
329974 Par ch=1 c=64 v=104
329989 Par ch=1 c=64 v=127
330049 On ch=1 n=e5 v=0
330069 On ch=1 n=g#7 v=0
330079 On ch=1 n=e6 v=0
330079 On ch=1 n=c#6 v=0
330084 On ch=1 n=a#5 v=0
330124 On ch=1 n=g#8 v=83
330194 On ch=1 n=g#8 v=0
330259 On ch=1 n=e7 v=83
330384 On ch=1 n=e7 v=0
330424 Par ch=1 c=64 v=72
330434 On ch=1 n=e6 v=90
330439 On ch=1 n=e8 v=85
330439 On ch=1 n=c6 v=87
330439 On ch=1 n=a5 v=77
330439 On ch=1 n=e5 v=74
330439 Par ch=1 c=64 v=24
330479 Par ch=1 c=64 v=127
330514 On ch=1 n=e8 v=0
330529 On ch=1 n=e5 v=0
330544 On ch=1 n=c6 v=0
330544 On ch=1 n=e6 v=0
330554 On ch=1 n=a5 v=0
330609 On ch=1 n=g#7 v=95
330724 On ch=1 n=g#7 v=0
330749 On ch=1 n=g#8 v=91
330819 On ch=1 n=g#8 v=0
330924 Par ch=1 c=64 v=104
330939 Par ch=1 c=64 v=40
330954 Par ch=1 c=64 v=0
330959 On ch=1 n=e7 v=93
330969 On ch=1 n=e5 v=82
330969 On ch=1 n=g#5 v=73
330974 On ch=1 n=e6 v=97
330974 On ch=1 n=b5 v=85
330999 Par ch=1 c=64 v=72
331014 Par ch=1 c=64 v=127
331039 On ch=1 n=e5 v=0
331064 On ch=1 n=b5 v=0
331069 On ch=1 n=e6 v=0
331079 On ch=1 n=g#5 v=0
331079 On ch=1 n=e7 v=0
331469 On ch=1 n=e8 v=103
331474 On ch=1 n=g#6 v=77
331474 On ch=1 n=b6 v=88
331474 On ch=1 n=g#7 v=84
331479 On ch=1 n=b5 v=74
331479 On ch=1 n=b7 v=90
331484 On ch=1 n=e6 v=77
331494 On ch=1 n=e7 v=82
331519 On ch=1 n=e7 v=0
331529 On ch=1 n=b5 v=0
331534 On ch=1 n=b7 v=0
331534 On ch=1 n=g#7 v=0
331539 On ch=1 n=e6 v=0
331539 On ch=1 n=b6 v=0
331544 On ch=1 n=g#6 v=0
331564 On ch=1 n=e8 v=0
332484 Par ch=1 c=64 v=88
332499 Par ch=1 c=64 v=56
332504 Par ch=1 c=64 v=0
332529 Par ch=1 c=64 v=127
332539 On ch=1 n=e6 v=93
332539 On ch=1 n=e5 v=83
332549 On ch=1 n=e3 v=69
332554 On ch=1 n=e4 v=67
332579 On ch=1 n=e3 v=0
332584 On ch=1 n=e4 v=0
332584 On ch=1 n=e5 v=0
332594 On ch=1 n=e6 v=0
332669 On ch=1 n=f#5 v=83
332674 On ch=1 n=f#4 v=82
332674 On ch=1 n=f#6 v=86
332679 On ch=1 n=f#3 v=69
332709 On ch=1 n=f#3 v=0
332719 On ch=1 n=f#6 v=0
332719 On ch=1 n=f#4 v=0
332724 On ch=1 n=f#5 v=0
332794 On ch=1 n=g#6 v=91
332794 On ch=1 n=g#5 v=86
332794 On ch=1 n=f#4 v=67
332804 On ch=1 n=f#3 v=56
332824 On ch=1 n=f#4 v=0
332829 On ch=1 n=f#3 v=0
332849 Par ch=1 c=64 v=72
332864 Par ch=1 c=64 v=0
332874 On ch=1 n=g#5 v=0
332889 On ch=1 n=g#6 v=0
332934 On ch=1 n=a6 v=99
332934 On ch=1 n=a5 v=96
332934 On ch=1 n=c6 v=80
332944 On ch=1 n=a4 v=87
332949 On ch=1 n=a3 v=96
332959 Par ch=1 c=64 v=40
332979 Par ch=1 c=64 v=127
332989 On ch=1 n=a4 v=0
332989 On ch=1 n=a5 v=0
332994 On ch=1 n=a3 v=0
332994 On ch=1 n=c6 v=0
332994 On ch=1 n=a6 v=0
333109 Par ch=1 c=64 v=88
333124 Par ch=1 c=64 v=40
333139 Par ch=1 c=64 v=0
333329 On ch=1 n=g#6 v=91
333329 On ch=1 n=g#5 v=88
333334 Par ch=1 c=64 v=40
333339 On ch=1 n=f3 v=79
333339 On ch=1 n=f4 v=81
333349 On ch=1 n=b5 v=80
333349 Par ch=1 c=64 v=72
333364 Par ch=1 c=64 v=104
333374 On ch=1 n=b5 v=0
333389 On ch=1 n=f3 v=0
333394 On ch=1 n=g#5 v=0
333404 On ch=1 n=f4 v=0
333409 Par ch=1 c=64 v=72
333414 On ch=1 n=g#6 v=0
333429 Par ch=1 c=64 v=40
333444 Par ch=1 c=64 v=24
333459 Par ch=1 c=64 v=0
333509 On ch=1 n=b6 v=96
333514 On ch=1 n=b5 v=89
333514 On ch=1 n=d6 v=86
333539 On ch=1 n=d6 v=0
333554 On ch=1 n=b5 v=0
333554 On ch=1 n=b6 v=0
333694 On ch=1 n=a6 v=102
333694 On ch=1 n=a5 v=97
333694 Par ch=1 c=64 v=56
333704 On ch=1 n=c6 v=94
333714 On ch=1 n=a4 v=81
333714 Par ch=1 c=64 v=127
333719 On ch=1 n=a3 v=79
333749 On ch=1 n=c6 v=0
333754 On ch=1 n=a5 v=0
333774 On ch=1 n=a4 v=0
333779 On ch=1 n=a3 v=0
333779 On ch=1 n=a6 v=0
333824 Par ch=1 c=64 v=104
333844 Par ch=1 c=64 v=72
333859 Par ch=1 c=64 v=40
333869 Par ch=1 c=64 v=0
334049 On ch=1 n=g#6 v=92
334049 On ch=1 n=g#5 v=81
334049 Par ch=1 c=64 v=56
334059 On ch=1 n=e4 v=82
334064 On ch=1 n=e3 v=77
334069 Par ch=1 c=64 v=104
334074 On ch=1 n=b5 v=70
334084 Par ch=1 c=64 v=127
334094 On ch=1 n=e3 v=0
334109 On ch=1 n=g#5 v=0
334119 On ch=1 n=b5 v=0
334129 On ch=1 n=e4 v=0
334129 On ch=1 n=g#6 v=0
334144 Par ch=1 c=64 v=72
334164 Par ch=1 c=64 v=56
334179 Par ch=1 c=64 v=40
334194 Par ch=1 c=64 v=0
334214 On ch=1 n=b6 v=102
334224 On ch=1 n=b5 v=85
334224 On ch=1 n=d6 v=94
334269 On ch=1 n=b5 v=0
334269 On ch=1 n=b6 v=0
334274 On ch=1 n=d6 v=0
334394 Par ch=1 c=64 v=56
334404 On ch=1 n=a6 v=99
334404 On ch=1 n=a4 v=82
334404 On ch=1 n=a5 v=77
334414 On ch=1 n=c6 v=82
334419 On ch=1 n=a3 v=76
334419 Par ch=1 c=64 v=127
334439 On ch=1 n=c6 v=0
334454 On ch=1 n=a5 v=0
334464 On ch=1 n=a4 v=0
334464 On ch=1 n=a6 v=0
334484 On ch=1 n=a3 v=0
334529 Par ch=1 c=64 v=104
334544 Par ch=1 c=64 v=72
334559 Par ch=1 c=64 v=40
334579 Par ch=1 c=64 v=24
334594 Par ch=1 c=64 v=0
334774 On ch=1 n=g#6 v=95
334784 On ch=1 n=f3 v=70
334784 On ch=1 n=g#5 v=85
334784 Par ch=1 c=64 v=72
334789 On ch=1 n=d4 v=79
334789 On ch=1 n=b5 v=88
334794 On ch=1 n=d3 v=63
334799 Par ch=1 c=64 v=127
334824 On ch=1 n=d3 v=0
334844 On ch=1 n=f3 v=0
334854 On ch=1 n=b5 v=0
334854 On ch=1 n=d4 v=0
334879 On ch=1 n=g#5 v=0
334899 Par ch=1 c=64 v=88
334904 On ch=1 n=g#6 v=0
334914 Par ch=1 c=64 v=56
334929 Par ch=1 c=64 v=40
334944 Par ch=1 c=64 v=0
335169 On ch=1 n=a6 v=93
335174 On ch=1 n=a5 v=90
335179 On ch=1 n=c6 v=84
335189 On ch=1 n=e4 v=85
335189 On ch=1 n=a4 v=79
335189 On ch=1 n=a3 v=84
335194 On ch=1 n=e6 v=69
335219 On ch=1 n=e6 v=0
335219 Par ch=1 c=64 v=72
335234 Par ch=1 c=64 v=127
335249 On ch=1 n=a3 v=0
335249 On ch=1 n=e4 v=0
335259 On ch=1 n=a4 v=0
335264 On ch=1 n=a5 v=0
335274 On ch=1 n=c6 v=0
335324 On ch=1 n=a6 v=0
335759 Par ch=1 c=64 v=104
335774 Par ch=1 c=64 v=56
335789 Par ch=1 c=64 v=0
335899 Par ch=1 c=64 v=40
335919 On ch=1 n=a7 v=109
335919 On ch=1 n=a6 v=88
335919 Par ch=1 c=64 v=88
335934 Par ch=1 c=64 v=127
335989 On ch=1 n=a6 v=0
336009 On ch=1 n=a7 v=0
336089 On ch=1 n=b7 v=109
336094 On ch=1 n=b6 v=99
336159 On ch=1 n=b6 v=0
336179 On ch=1 n=b7 v=0
336264 On ch=1 n=c8 v=110
336269 On ch=1 n=c7 v=105
336274 On ch=1 n=a4 v=70
336279 On ch=1 n=a5 v=81
336324 On ch=1 n=a4 v=0
336334 On ch=1 n=a5 v=0
336434 On ch=1 n=b5 v=81
336449 On ch=1 n=b4 v=73
336479 On ch=1 n=b4 v=0
336504 On ch=1 n=b5 v=0
336609 On ch=1 n=c6 v=94
336614 On ch=1 n=c5 v=90
336634 Par ch=1 c=64 v=72
336644 On ch=1 n=c8 v=0
336654 Par ch=1 c=64 v=24
336669 Par ch=1 c=64 v=0
336674 On ch=1 n=c7 v=0
336764 Par ch=1 c=64 v=40
336784 On ch=1 n=b7 v=102
336784 Par ch=1 c=64 v=72
336789 On ch=1 n=b6 v=92
336799 Par ch=1 c=64 v=127
336859 On ch=1 n=b6 v=0
336859 On ch=1 n=b7 v=0
336894 On ch=1 n=c5 v=0
336894 On ch=1 n=c6 v=0
336949 On ch=1 n=a7 v=102
336954 On ch=1 n=a6 v=85
337094 On ch=1 n=b5 v=75
337104 On ch=1 n=b4 v=67
337144 On ch=1 n=b4 v=0
337154 On ch=1 n=b5 v=0
337224 Par ch=1 c=64 v=72
337239 Par ch=1 c=64 v=0
337284 On ch=1 n=a5 v=89
337294 On ch=1 n=a4 v=81
337309 On ch=1 n=a7 v=0
337339 On ch=1 n=a6 v=0
337339 Par ch=1 c=64 v=56
337354 Par ch=1 c=64 v=88
337369 Par ch=1 c=64 v=127
337439 On ch=1 n=g7 v=93
337449 On ch=1 n=g6 v=89
337509 On ch=1 n=g6 v=0
337519 On ch=1 n=g7 v=0
337614 On ch=1 n=a4 v=0
337614 On ch=1 n=a5 v=0
337614 On ch=1 n=f7 v=97
337614 On ch=1 n=f6 v=97
337774 On ch=1 n=g5 v=79
337779 On ch=1 n=g4 v=77
337819 On ch=1 n=g4 v=0
337839 On ch=1 n=g5 v=0
337934 Par ch=1 c=64 v=56
337944 On ch=1 n=f5 v=83
337949 Par ch=1 c=64 v=0
337954 On ch=1 n=f4 v=83
337989 On ch=1 n=f7 v=0
337994 On ch=1 n=f6 v=0
338009 Par ch=1 c=64 v=24
338024 Par ch=1 c=64 v=56
338044 Par ch=1 c=64 v=88
338059 Par ch=1 c=64 v=127
338099 On ch=1 n=e7 v=90
338109 On ch=1 n=e6 v=81
338164 On ch=1 n=e6 v=0
338174 On ch=1 n=e7 v=0
338229 On ch=1 n=f4 v=0
338269 On ch=1 n=d7 v=93
338274 On ch=1 n=f5 v=0
338279 On ch=1 n=d6 v=84
338329 On ch=1 n=d6 v=0
338354 On ch=1 n=d7 v=0
338394 Par ch=1 c=64 v=104
338409 Par ch=1 c=64 v=88
338414 On ch=1 n=e5 v=81
338424 On ch=1 n=c#6 v=85
338424 On ch=1 n=e4 v=77
338424 On ch=1 n=c#7 v=89
338424 Par ch=1 c=64 v=72
338444 Par ch=1 c=64 v=56
338459 Par ch=1 c=64 v=40
338474 On ch=1 n=e5 v=0
338474 Par ch=1 c=64 v=24
338484 On ch=1 n=e4 v=0
338489 Par ch=1 c=64 v=0
338504 On ch=1 n=c#6 v=0
338539 On ch=1 n=c#7 v=0
338594 On ch=1 n=d7 v=96
338599 On ch=1 n=d6 v=93
338614 On ch=1 n=d5 v=85
338619 On ch=1 n=d4 v=87
338634 Par ch=1 c=64 v=72
338649 Par ch=1 c=64 v=127
338664 On ch=1 n=d6 v=0
338674 On ch=1 n=d7 v=0
338679 On ch=1 n=d5 v=0
338684 On ch=1 n=d4 v=0
338729 Par ch=1 c=64 v=104
338744 Par ch=1 c=64 v=88
338764 Par ch=1 c=64 v=40
338779 Par ch=1 c=64 v=24
338794 Par ch=1 c=64 v=0
338954 Par ch=1 c=64 v=40
338964 On ch=1 n=c#7 v=89
338969 On ch=1 n=c#6 v=91
338969 Par ch=1 c=64 v=104
338979 On ch=1 n=a#4 v=73
338989 On ch=1 n=a#3 v=73
338989 On ch=1 n=e6 v=70
338989 Par ch=1 c=64 v=127
339014 On ch=1 n=e6 v=0
339029 On ch=1 n=c#6 v=0
339039 On ch=1 n=a#3 v=0
339044 On ch=1 n=a#4 v=0
339049 On ch=1 n=c#7 v=0
339064 Par ch=1 c=64 v=88
339079 Par ch=1 c=64 v=72
339099 Par ch=1 c=64 v=56
339114 Par ch=1 c=64 v=40
339129 Par ch=1 c=64 v=0
339139 On ch=1 n=e6 v=96
339139 On ch=1 n=e7 v=97
339144 On ch=1 n=g6 v=93
339169 On ch=1 n=g6 v=0
339184 On ch=1 n=e7 v=0
339194 On ch=1 n=e6 v=0
339309 On ch=1 n=d7 v=100
339314 On ch=1 n=d6 v=97
339319 On ch=1 n=f6 v=92
339324 Par ch=1 c=64 v=40
339339 Par ch=1 c=64 v=127
339344 On ch=1 n=d5 v=83
339344 On ch=1 n=d4 v=79
339349 On ch=1 n=f6 v=0
339364 On ch=1 n=d6 v=0
339394 On ch=1 n=d7 v=0
339404 On ch=1 n=d5 v=0
339409 On ch=1 n=d4 v=0
339464 Par ch=1 c=64 v=104
339479 Par ch=1 c=64 v=72
339499 Par ch=1 c=64 v=40
339514 Par ch=1 c=64 v=0
339654 On ch=1 n=c#7 v=90
339659 Par ch=1 c=64 v=72
339664 On ch=1 n=c#6 v=86
339669 On ch=1 n=a4 v=74
339669 On ch=1 n=a3 v=77
339674 Par ch=1 c=64 v=127
339694 On ch=1 n=f6 v=50
339699 On ch=1 n=c#6 v=0
339724 On ch=1 n=f6 v=0
339724 On ch=1 n=a3 v=0
339729 On ch=1 n=c#7 v=0
339734 On ch=1 n=a4 v=0
339754 Par ch=1 c=64 v=104
339769 Par ch=1 c=64 v=88
339784 Par ch=1 c=64 v=72
339799 Par ch=1 c=64 v=56
339814 On ch=1 n=e7 v=96
339814 Par ch=1 c=64 v=40
339819 On ch=1 n=e6 v=92
339819 On ch=1 n=g6 v=90
339849 On ch=1 n=g6 v=0
339849 Par ch=1 c=64 v=24
339859 On ch=1 n=e7 v=0
339864 Par ch=1 c=64 v=0
339874 On ch=1 n=e6 v=0
339989 On ch=1 n=d7 v=97
339989 On ch=1 n=d6 v=97
339989 Par ch=1 c=64 v=24
339999 On ch=1 n=f6 v=94
340009 On ch=1 n=d5 v=86
340009 Par ch=1 c=64 v=88
340019 On ch=1 n=d4 v=77
340024 Par ch=1 c=64 v=127
340034 On ch=1 n=f6 v=0
340044 On ch=1 n=d6 v=0
340059 On ch=1 n=d7 v=0
340064 On ch=1 n=d5 v=0
340084 On ch=1 n=d4 v=0
340139 Par ch=1 c=64 v=88
340154 Par ch=1 c=64 v=56
340164 Par ch=1 c=64 v=24
340184 Par ch=1 c=64 v=0
340344 Par ch=1 c=64 v=40
340359 On ch=1 n=c#7 v=93
340364 On ch=1 n=c#6 v=86
340364 On ch=1 n=a#3 v=74
340364 Par ch=1 c=64 v=104
340369 On ch=1 n=e6 v=85
340374 On ch=1 n=g4 v=83
340379 On ch=1 n=g3 v=73
340379 Par ch=1 c=64 v=127
340414 On ch=1 n=e6 v=0
340414 On ch=1 n=a#3 v=0
340419 On ch=1 n=g3 v=0
340429 On ch=1 n=g4 v=0
340449 On ch=1 n=c#6 v=0
340494 On ch=1 n=c#7 v=0
340504 Par ch=1 c=64 v=104
340519 Par ch=1 c=64 v=72
340534 Par ch=1 c=64 v=56
340549 Par ch=1 c=64 v=24
340569 Par ch=1 c=64 v=0
340754 On ch=1 n=d7 v=103
340759 On ch=1 n=d6 v=96
340759 On ch=1 n=f6 v=90
340774 On ch=1 n=a4 v=86
340774 On ch=1 n=d5 v=87
340774 On ch=1 n=d4 v=87
340794 Par ch=1 c=64 v=40
340809 Par ch=1 c=64 v=127
340824 On ch=1 n=a4 v=0
340824 On ch=1 n=d6 v=0
340829 On ch=1 n=d4 v=0
340829 On ch=1 n=d5 v=0
340849 On ch=1 n=f6 v=0
340874 On ch=1 n=d7 v=0
341304 Par ch=1 c=64 v=56
341319 Par ch=1 c=64 v=0
341429 Par ch=1 c=64 v=40
341444 Par ch=1 c=64 v=88
341459 Par ch=1 c=64 v=127
341479 On ch=1 n=d8 v=105
341479 On ch=1 n=d7 v=96
341539 On ch=1 n=d7 v=0
341539 On ch=1 n=d8 v=0
341644 On ch=1 n=e8 v=107
341644 On ch=1 n=e7 v=103
341704 On ch=1 n=e7 v=0
341714 On ch=1 n=e8 v=0
341809 On ch=1 n=f7 v=109
341814 On ch=1 n=f8 v=110
341824 On ch=1 n=d5 v=71
341824 On ch=1 n=d6 v=83
341869 On ch=1 n=d5 v=0
341884 On ch=1 n=d6 v=0
341984 On ch=1 n=e6 v=83
341989 On ch=1 n=e5 v=76
342029 On ch=1 n=e5 v=0
342044 On ch=1 n=e6 v=0
342134 Par ch=1 c=64 v=88
342149 Par ch=1 c=64 v=24
342154 On ch=1 n=f6 v=97
342159 On ch=1 n=f5 v=83
342164 Par ch=1 c=64 v=0
342214 On ch=1 n=f8 v=0
342229 On ch=1 n=f7 v=0
342244 Par ch=1 c=64 v=24
342259 Par ch=1 c=64 v=88
342274 Par ch=1 c=64 v=127
342329 On ch=1 n=e8 v=103
342334 On ch=1 n=e7 v=94
342394 On ch=1 n=e7 v=0
342404 On ch=1 n=e8 v=0
342429 On ch=1 n=f6 v=0
342434 On ch=1 n=f5 v=0
342494 On ch=1 n=d8 v=99
342499 On ch=1 n=d7 v=93
342664 On ch=1 n=e6 v=84
342664 On ch=1 n=e5 v=74
342709 On ch=1 n=e5 v=0
342724 On ch=1 n=e6 v=0
342799 On ch=1 n=d8 v=0
342829 On ch=1 n=d6 v=87
342829 On ch=1 n=d5 v=93
342854 On ch=1 n=d7 v=0
342854 Par ch=1 c=64 v=72
342869 Par ch=1 c=64 v=0
342964 Par ch=1 c=64 v=56
342979 Par ch=1 c=64 v=104
342989 On ch=1 n=c8 v=96
342994 On ch=1 n=c7 v=89
342999 Par ch=1 c=64 v=127
343054 On ch=1 n=c8 v=0
343059 On ch=1 n=c7 v=0
343139 On ch=1 n=d5 v=0
343154 On ch=1 n=d6 v=0
343154 On ch=1 n=b7 v=102
343159 On ch=1 n=b6 v=90
343254 Par ch=1 c=64 v=104
343269 Par ch=1 c=64 v=72
343284 Par ch=1 c=64 v=56
343314 On ch=1 n=c6 v=83
343319 On ch=1 n=c5 v=80
343329 Par ch=1 c=64 v=127
343369 On ch=1 n=c6 v=0
343379 On ch=1 n=c5 v=0
343444 Par ch=1 c=64 v=56
343459 Par ch=1 c=64 v=0
343474 On ch=1 n=b5 v=87
343484 On ch=1 n=b4 v=80
343504 On ch=1 n=b7 v=0
343509 On ch=1 n=b6 v=0
343524 Par ch=1 c=64 v=24
343539 Par ch=1 c=64 v=56
343554 Par ch=1 c=64 v=88
343574 Par ch=1 c=64 v=127
343634 On ch=1 n=a7 v=97
343639 On ch=1 n=a6 v=83
343704 On ch=1 n=a6 v=0
343709 On ch=1 n=a7 v=0
343734 On ch=1 n=b4 v=0
343764 On ch=1 n=b5 v=0
343804 On ch=1 n=g#6 v=83
343804 On ch=1 n=g#7 v=89
343884 On ch=1 n=g#6 v=0
343894 Par ch=1 c=64 v=104
343899 On ch=1 n=g#7 v=0
343904 Par ch=1 c=64 v=88
343919 Par ch=1 c=64 v=56
343934 Par ch=1 c=64 v=40
343969 On ch=1 n=a7 v=100
343969 On ch=1 n=a5 v=68
343969 Par ch=1 c=64 v=24
343974 On ch=1 n=a6 v=85
343979 On ch=1 n=a4 v=67
343989 Par ch=1 c=64 v=0
344014 On ch=1 n=a4 v=0
344034 On ch=1 n=a6 v=0
344034 On ch=1 n=a5 v=0
344039 On ch=1 n=a7 v=0
344134 On ch=1 n=g#6 v=86
344134 On ch=1 n=g#5 v=78
344134 On ch=1 n=g#7 v=105
344139 On ch=1 n=g#4 v=84
344149 Par ch=1 c=64 v=40
344169 On ch=1 n=g#4 v=0
344184 On ch=1 n=g#5 v=0
344194 On ch=1 n=g#6 v=0
344204 On ch=1 n=g#7 v=0
344244 Par ch=1 c=64 v=24
344274 Par ch=1 c=64 v=0
344299 On ch=1 n=b6 v=92
344299 On ch=1 n=b7 v=105
344304 On ch=1 n=b5 v=80
344314 On ch=1 n=b4 v=74
344339 On ch=1 n=b4 v=0
344344 On ch=1 n=b7 v=0
344349 On ch=1 n=b6 v=0
344359 On ch=1 n=b5 v=0
344479 On ch=1 n=e8 v=99
344479 On ch=1 n=e7 v=92
344484 Par ch=1 c=64 v=72
344499 Par ch=1 c=64 v=127
344504 On ch=1 n=e6 v=62
344509 On ch=1 n=e7 v=0
344509 On ch=1 n=e8 v=0
344514 On ch=1 n=e5 v=49
344534 On ch=1 n=e6 v=0
344549 On ch=1 n=e5 v=0
344654 Par ch=1 c=64 v=104
344674 Par ch=1 c=64 v=88
344689 Par ch=1 c=64 v=72
344704 Par ch=1 c=64 v=40
344724 Par ch=1 c=64 v=0
344854 On ch=1 n=e5 v=88
344859 On ch=1 n=g#4 v=73
344864 On ch=1 n=b4 v=84
344869 On ch=1 n=e3 v=86
344869 On ch=1 n=e4 v=86
344869 On ch=1 n=b3 v=83
344869 On ch=1 n=g#3 v=75
344879 Par ch=1 c=64 v=40
344899 Par ch=1 c=64 v=127
344924 On ch=1 n=e4 v=0
344929 On ch=1 n=b3 v=0
344929 On ch=1 n=e3 v=0
344929 On ch=1 n=g#4 v=0
344939 On ch=1 n=g#3 v=0
344949 On ch=1 n=b4 v=0
344964 On ch=1 n=e5 v=0
345329 Par ch=1 c=64 v=88
345344 Par ch=1 c=64 v=56
345359 Par ch=1 c=64 v=24
345379 Par ch=1 c=64 v=0
345519 Par ch=1 c=64 v=72
345534 Par ch=1 c=64 v=127
345539 On ch=1 n=a7 v=107
345544 On ch=1 n=a6 v=92
345549 On ch=1 n=a5 v=74
345554 On ch=1 n=a4 v=64
345584 On ch=1 n=a4 v=0
345594 On ch=1 n=a6 v=0
345599 On ch=1 n=a7 v=0
345604 On ch=1 n=a5 v=0
345709 On ch=1 n=c7 v=96
345709 On ch=1 n=c8 v=102
345719 On ch=1 n=c6 v=80
345724 On ch=1 n=c5 v=77
345749 On ch=1 n=c5 v=0
345749 On ch=1 n=c6 v=0
345754 On ch=1 n=c7 v=0
345764 On ch=1 n=c8 v=0
345809 Par ch=1 c=64 v=104
345824 Par ch=1 c=64 v=72
345839 Par ch=1 c=64 v=0
345879 On ch=1 n=e8 v=103
345889 On ch=1 n=e7 v=96
345899 On ch=1 n=e6 v=85
345899 On ch=1 n=e5 v=82
345924 On ch=1 n=e6 v=0
345924 On ch=1 n=e8 v=0
345929 On ch=1 n=e7 v=0
345934 Par ch=1 c=64 v=88
345939 On ch=1 n=e5 v=0
345949 Par ch=1 c=64 v=127
346109 Par ch=1 c=64 v=88
346129 Par ch=1 c=64 v=72
346139 Par ch=1 c=64 v=40
346159 Par ch=1 c=64 v=24
346174 Par ch=1 c=64 v=0
346274 On ch=1 n=e5 v=93
346289 On ch=1 n=e3 v=75
346294 On ch=1 n=c4 v=90
346294 On ch=1 n=c5 v=68
346294 On ch=1 n=a4 v=80
346294 On ch=1 n=e4 v=92
346299 On ch=1 n=a3 v=82
346334 Par ch=1 c=64 v=104
346349 Par ch=1 c=64 v=127
346359 On ch=1 n=a4 v=0
346364 On ch=1 n=c5 v=0
346364 On ch=1 n=e3 v=0
346379 On ch=1 n=e4 v=0
346379 On ch=1 n=c4 v=0
346384 On ch=1 n=a3 v=0
346404 On ch=1 n=e5 v=0
346834 Par ch=1 c=64 v=104
346849 Par ch=1 c=64 v=88
346864 Par ch=1 c=64 v=56
346879 Par ch=1 c=64 v=24
346894 Par ch=1 c=64 v=0
347004 Par ch=1 c=64 v=72
347009 On ch=1 n=f5 v=92
347014 On ch=1 n=g#6 v=75
347024 On ch=1 n=b5 v=74
347024 Par ch=1 c=64 v=127
347094 On ch=1 n=b5 v=0
347134 On ch=1 n=g#6 v=0
347189 On ch=1 n=b6 v=74
347209 On ch=1 n=d6 v=62
347239 On ch=1 n=d6 v=0
347279 On ch=1 n=b6 v=0
347324 Par ch=1 c=64 v=88
347344 Par ch=1 c=64 v=24
347354 On ch=1 n=e5 v=80
347359 On ch=1 n=f5 v=0
347359 On ch=1 n=b5 v=68
347359 On ch=1 n=g#6 v=74
347359 Par ch=1 c=64 v=0
347419 Par ch=1 c=64 v=40
347439 Par ch=1 c=64 v=104
347454 On ch=1 n=b5 v=0
347454 Par ch=1 c=64 v=127
347464 On ch=1 n=e5 v=0
347474 On ch=1 n=g#6 v=0
347524 On ch=1 n=b6 v=82
347534 On ch=1 n=b5 v=66
347549 On ch=1 n=d6 v=57
347569 On ch=1 n=b6 v=0
347574 On ch=1 n=d6 v=0
347594 On ch=1 n=b5 v=0
347694 Par ch=1 c=64 v=40
347709 Par ch=1 c=64 v=0
347714 On ch=1 n=f4 v=97
347734 On ch=1 n=b3 v=70
347744 On ch=1 n=g#3 v=46
347759 Par ch=1 c=64 v=24
347774 Par ch=1 c=64 v=72
347789 Par ch=1 c=64 v=127
347844 On ch=1 n=g#3 v=0
347844 On ch=1 n=b3 v=0
347904 On ch=1 n=d4 v=56
347999 On ch=1 n=d4 v=0
348014 Par ch=1 c=64 v=104
348029 Par ch=1 c=64 v=24
348044 On ch=1 n=e4 v=94
348044 Par ch=1 c=64 v=0
348059 On ch=1 n=b3 v=67
348069 On ch=1 n=f4 v=0
348069 On ch=1 n=g#3 v=43
348094 Par ch=1 c=64 v=56
348104 On ch=1 n=e4 v=0
348109 Par ch=1 c=64 v=104
348124 Par ch=1 c=64 v=127
348199 On ch=1 n=b3 v=0
348199 On ch=1 n=d4 v=66
348204 On ch=1 n=g#3 v=0
348234 On ch=1 n=d4 v=0
348399 Par ch=1 c=64 v=88
348409 Par ch=1 c=64 v=40
348424 On ch=1 n=f5 v=90
348429 Par ch=1 c=64 v=0
348434 On ch=1 n=c6 v=75
348434 On ch=1 n=a6 v=74
348509 On ch=1 n=c6 v=0
348524 Par ch=1 c=64 v=72
348539 Par ch=1 c=64 v=127
348554 On ch=1 n=a6 v=0
348599 On ch=1 n=c7 v=75
348624 On ch=1 n=e6 v=56
348659 On ch=1 n=e6 v=0
348699 On ch=1 n=c7 v=0
348734 Par ch=1 c=64 v=72
348749 Par ch=1 c=64 v=24
348759 Par ch=1 c=64 v=0
348769 On ch=1 n=e5 v=82
348779 On ch=1 n=a6 v=73
348784 On ch=1 n=c6 v=74
348794 Par ch=1 c=64 v=40
348809 On ch=1 n=f5 v=0
348814 Par ch=1 c=64 v=104
348824 On ch=1 n=e5 v=0
348829 Par ch=1 c=64 v=127
348879 On ch=1 n=c6 v=0
348899 On ch=1 n=a6 v=0
348934 On ch=1 n=c7 v=71
348959 On ch=1 n=e6 v=54
348964 On ch=1 n=c7 v=0
348989 On ch=1 n=e6 v=0
349069 Par ch=1 c=64 v=104
349084 Par ch=1 c=64 v=24
349099 Par ch=1 c=64 v=0
349124 On ch=1 n=f4 v=99
349144 On ch=1 n=a3 v=74
349179 Par ch=1 c=64 v=56
349194 Par ch=1 c=64 v=104
349209 Par ch=1 c=64 v=127
349274 On ch=1 n=a3 v=0
349314 On ch=1 n=c4 v=59
349394 On ch=1 n=c4 v=0
349454 Par ch=1 c=64 v=88
349469 On ch=1 n=a3 v=59
349469 On ch=1 n=e4 v=92
349469 Par ch=1 c=64 v=24
349484 Par ch=1 c=64 v=0
349499 On ch=1 n=f4 v=0
349529 On ch=1 n=e4 v=0
349549 Par ch=1 c=64 v=24
349564 Par ch=1 c=64 v=88
349579 Par ch=1 c=64 v=127
349589 On ch=1 n=a3 v=0
349599 On ch=1 n=c4 v=52
349629 On ch=1 n=c4 v=0
349849 Par ch=1 c=64 v=40
349869 Par ch=1 c=64 v=0
349889 On ch=1 n=f8 v=102
349894 On ch=1 n=g#7 v=89
349894 On ch=1 n=f7 v=103
349894 On ch=1 n=b7 v=96
349899 On ch=1 n=g#5 v=68
349904 On ch=1 n=f6 v=88
349904 On ch=1 n=f5 v=70
349904 On ch=1 n=b5 v=82
349914 Par ch=1 c=64 v=56
349929 Par ch=1 c=64 v=127
349939 On ch=1 n=f5 v=0
349944 On ch=1 n=b5 v=0
349949 On ch=1 n=f6 v=0
349964 On ch=1 n=f7 v=0
349974 On ch=1 n=g#5 v=0
349974 On ch=1 n=g#7 v=0
349979 On ch=1 n=b7 v=0
349979 On ch=1 n=f8 v=0
350039 Par ch=1 c=64 v=104
350059 On ch=1 n=e8 v=96
350059 Par ch=1 c=64 v=56
350064 On ch=1 n=e7 v=99
350064 On ch=1 n=e6 v=77
350074 On ch=1 n=f5 v=74
350074 Par ch=1 c=64 v=24
350089 Par ch=1 c=64 v=0
350109 On ch=1 n=f5 v=0
350109 On ch=1 n=e6 v=0
350119 On ch=1 n=e7 v=0
350134 On ch=1 n=e8 v=0
350229 On ch=1 n=d8 v=92
350229 On ch=1 n=d6 v=72
350229 On ch=1 n=d7 v=81
350229 On ch=1 n=d5 v=77
350264 On ch=1 n=d5 v=0
350284 On ch=1 n=d7 v=0
350284 On ch=1 n=d6 v=0
350299 On ch=1 n=d8 v=0
350389 On ch=1 n=c8 v=88
350394 On ch=1 n=c7 v=85
350404 On ch=1 n=c6 v=75
350414 On ch=1 n=c5 v=72
350449 On ch=1 n=c5 v=0
350449 On ch=1 n=c6 v=0
350454 On ch=1 n=c7 v=0
350459 On ch=1 n=c8 v=0
350564 On ch=1 n=b7 v=93
350569 On ch=1 n=b6 v=84
350579 On ch=1 n=b5 v=70
350584 On ch=1 n=b4 v=72
350609 On ch=1 n=b5 v=0
350614 On ch=1 n=b4 v=0
350619 On ch=1 n=b6 v=0
350629 On ch=1 n=b7 v=0
350729 On ch=1 n=a6 v=87
350729 On ch=1 n=a7 v=103
350729 On ch=1 n=a5 v=81
350729 On ch=1 n=a4 v=70
350759 On ch=1 n=a4 v=0
350784 On ch=1 n=a5 v=0
350784 On ch=1 n=a6 v=0
350799 On ch=1 n=a7 v=0
350889 On ch=1 n=g#7 v=89
350889 On ch=1 n=g#6 v=82
350889 On ch=1 n=g#5 v=72
350889 On ch=1 n=g#4 v=73
350914 On ch=1 n=g#5 v=0
350919 On ch=1 n=g#4 v=0
350944 On ch=1 n=g#6 v=0
350949 On ch=1 n=g#7 v=0
351054 On ch=1 n=e5 v=76
351054 On ch=1 n=e7 v=94
351059 On ch=1 n=e6 v=93
351059 On ch=1 n=e4 v=75
351089 On ch=1 n=e4 v=0
351104 On ch=1 n=e5 v=0
351109 On ch=1 n=e6 v=0
351124 On ch=1 n=e7 v=0
351209 Par ch=1 c=64 v=24
351224 Par ch=1 c=64 v=88
351229 On ch=1 n=f7 v=103
351229 On ch=1 n=f5 v=72
351229 On ch=1 n=b4 v=80
351229 On ch=1 n=f6 v=99
351229 On ch=1 n=g#6 v=85
351234 On ch=1 n=b6 v=83
351244 Par ch=1 c=64 v=127
351254 On ch=1 n=g#4 v=78
351259 On ch=1 n=f4 v=79
351279 On ch=1 n=b4 v=0
351284 On ch=1 n=f4 v=0
351294 On ch=1 n=f5 v=0
351309 On ch=1 n=g#4 v=0
351309 On ch=1 n=f6 v=0
351324 On ch=1 n=g#6 v=0
351324 On ch=1 n=f7 v=0
351334 On ch=1 n=b6 v=0
351399 Par ch=1 c=64 v=104
351409 On ch=1 n=e7 v=93
351409 On ch=1 n=e6 v=89
351414 On ch=1 n=e5 v=68
351414 Par ch=1 c=64 v=88
351434 On ch=1 n=e4 v=68
351434 Par ch=1 c=64 v=56
351449 Par ch=1 c=64 v=40
351454 On ch=1 n=e5 v=0
351459 On ch=1 n=e4 v=0
351464 On ch=1 n=e6 v=0
351464 Par ch=1 c=64 v=24
351474 On ch=1 n=e7 v=0
351494 Par ch=1 c=64 v=0
351569 On ch=1 n=d7 v=92
351574 On ch=1 n=d6 v=89
351579 On ch=1 n=d5 v=70
351584 On ch=1 n=d4 v=75
351619 On ch=1 n=d4 v=0
351624 On ch=1 n=d5 v=0
351634 On ch=1 n=d6 v=0
351644 On ch=1 n=d7 v=0
351734 On ch=1 n=c7 v=88
351734 On ch=1 n=c6 v=90
351744 On ch=1 n=c5 v=72
351754 On ch=1 n=c4 v=78
351784 On ch=1 n=c4 v=0
351784 On ch=1 n=c5 v=0
351794 On ch=1 n=c6 v=0
351804 On ch=1 n=c7 v=0
351899 On ch=1 n=b6 v=94
351899 On ch=1 n=b5 v=83
351909 On ch=1 n=b4 v=66
351924 On ch=1 n=b3 v=66
351944 On ch=1 n=b4 v=0
351949 On ch=1 n=b3 v=0
351959 On ch=1 n=b5 v=0
351969 On ch=1 n=b6 v=0
352064 On ch=1 n=a6 v=88
352069 On ch=1 n=a5 v=81
352074 On ch=1 n=a4 v=68
352089 On ch=1 n=a3 v=68
352114 On ch=1 n=a3 v=0
352124 On ch=1 n=a5 v=0
352134 On ch=1 n=a4 v=0
352134 On ch=1 n=a6 v=0
352239 On ch=1 n=g#6 v=84
352239 On ch=1 n=g#3 v=80
352244 On ch=1 n=g#5 v=71
352259 On ch=1 n=g#4 v=72
352284 On ch=1 n=g#3 v=0
352289 On ch=1 n=g#5 v=0
352309 On ch=1 n=g#4 v=0
352309 On ch=1 n=g#6 v=0
352374 Par ch=1 c=64 v=24
352399 On ch=1 n=e6 v=96
352404 On ch=1 n=e5 v=88
352429 On ch=1 n=e3 v=72
352429 On ch=1 n=e4 v=75
352454 On ch=1 n=e3 v=0
352454 On ch=1 n=e5 v=0
352454 On ch=1 n=e6 v=0
352459 On ch=1 n=e4 v=0
352489 Par ch=1 c=64 v=0
352534 Par ch=1 c=64 v=56
352549 Par ch=1 c=64 v=104
352559 On ch=1 n=f6 v=96
352564 Par ch=1 c=64 v=127
352569 On ch=1 n=f5 v=79
352574 On ch=1 n=f4 v=77
352589 On ch=1 n=f3 v=76
352614 On ch=1 n=f3 v=0
352629 On ch=1 n=f4 v=0
352629 On ch=1 n=f5 v=0
352634 On ch=1 n=f6 v=0
352719 On ch=1 n=d#5 v=80
352724 On ch=1 n=d#6 v=87
352734 On ch=1 n=d#4 v=79
352739 On ch=1 n=d#3 v=70
352754 Par ch=1 c=64 v=104
352764 On ch=1 n=d#3 v=0
352774 Par ch=1 c=64 v=72
352779 On ch=1 n=d#4 v=0
352789 On ch=1 n=d#5 v=0
352789 Par ch=1 c=64 v=56
352809 On ch=1 n=d#6 v=0
352809 Par ch=1 c=64 v=40
352819 Par ch=1 c=64 v=24
352869 Par ch=1 c=64 v=0
352884 On ch=1 n=e4 v=79
352894 On ch=1 n=e6 v=96
352894 On ch=1 n=e5 v=86
352899 On ch=1 n=e3 v=74
352939 On ch=1 n=e3 v=0
352949 On ch=1 n=e4 v=0
352954 On ch=1 n=e5 v=0
352964 On ch=1 n=e6 v=0
353034 Par ch=1 c=64 v=40
353044 On ch=1 n=d4 v=84
353049 On ch=1 n=d3 v=83
353049 Par ch=1 c=64 v=56
353054 On ch=1 n=d6 v=93
353054 On ch=1 n=d5 v=86
353064 Par ch=1 c=64 v=88
353099 On ch=1 n=d4 v=0
353104 On ch=1 n=d3 v=0
353109 On ch=1 n=d5 v=0
353124 On ch=1 n=d6 v=0
353124 Par ch=1 c=64 v=24
353144 Par ch=1 c=64 v=0
353209 On ch=1 n=d#4 v=90
353209 On ch=1 n=d#6 v=89
353219 On ch=1 n=d#5 v=79
353219 On ch=1 n=d#3 v=76
353224 Par ch=1 c=64 v=40
353239 Par ch=1 c=64 v=88
353264 On ch=1 n=d#3 v=0
353269 On ch=1 n=d#4 v=0
353274 On ch=1 n=d#5 v=0
353299 On ch=1 n=d#6 v=0
353319 Par ch=1 c=64 v=72
353354 Par ch=1 c=64 v=56
353379 On ch=1 n=c#6 v=88
353379 On ch=1 n=c#4 v=86
353379 On ch=1 n=c#5 v=90
353384 On ch=1 n=c#3 v=76
353414 Par ch=1 c=64 v=24
353424 On ch=1 n=c#4 v=0
353429 On ch=1 n=c#3 v=0
353429 Par ch=1 c=64 v=0
353464 On ch=1 n=c#5 v=0
353484 On ch=1 n=c#6 v=0
353524 Par ch=1 c=64 v=56
353539 On ch=1 n=d4 v=86
353544 On ch=1 n=d6 v=100
353544 On ch=1 n=d5 v=90
353544 Par ch=1 c=64 v=104
353554 On ch=1 n=d3 v=82
353559 Par ch=1 c=64 v=127
353604 On ch=1 n=d5 v=0
353604 On ch=1 n=d4 v=0
353614 On ch=1 n=d3 v=0
353619 On ch=1 n=d6 v=0
353674 Par ch=1 c=64 v=104
353689 Par ch=1 c=64 v=88
353704 On ch=1 n=c5 v=94
353704 On ch=1 n=c3 v=77
353704 On ch=1 n=c4 v=86
353704 On ch=1 n=c6 v=94
353704 Par ch=1 c=64 v=72
353719 Par ch=1 c=64 v=56
353749 On ch=1 n=c4 v=0
353749 Par ch=1 c=64 v=24
353754 On ch=1 n=c3 v=0
353769 On ch=1 n=c5 v=0
353769 Par ch=1 c=64 v=0
353774 On ch=1 n=c6 v=0
353859 On ch=1 n=c#3 v=78
353859 On ch=1 n=c#5 v=89
353859 On ch=1 n=c#6 v=92
353859 On ch=1 n=c#4 v=88
353879 Par ch=1 c=64 v=56
353884 On ch=1 n=c#3 v=0
353894 Par ch=1 c=64 v=127
353909 On ch=1 n=c#4 v=0
353919 On ch=1 n=c#5 v=0
353944 On ch=1 n=c#6 v=0
354029 On ch=1 n=b5 v=100
354029 On ch=1 n=b2 v=85
354029 On ch=1 n=b3 v=90
354029 On ch=1 n=b4 v=93
354054 Par ch=1 c=64 v=104
354069 Par ch=1 c=64 v=88
354079 On ch=1 n=b3 v=0
354079 On ch=1 n=b2 v=0
354089 On ch=1 n=b4 v=0
354089 Par ch=1 c=64 v=72
354104 On ch=1 n=b5 v=0
354104 Par ch=1 c=64 v=40
354119 Par ch=1 c=64 v=0
354194 Par ch=1 c=64 v=24
354199 On ch=1 n=c5 v=100
354199 On ch=1 n=c4 v=94
354199 On ch=1 n=c6 v=96
354209 On ch=1 n=c3 v=85
354214 Par ch=1 c=64 v=72
354229 Par ch=1 c=64 v=127
354249 On ch=1 n=c4 v=0
354259 On ch=1 n=c3 v=0
354264 On ch=1 n=c6 v=0
354264 On ch=1 n=c5 v=0
354294 Par ch=1 c=64 v=88
354309 Par ch=1 c=64 v=56
354324 Par ch=1 c=64 v=24
354369 On ch=1 n=a#3 v=95
354369 On ch=1 n=a#4 v=93
354374 On ch=1 n=a#5 v=91
354374 On ch=1 n=a#2 v=85
354374 Par ch=1 c=64 v=72
354389 Par ch=1 c=64 v=104
354409 Par ch=1 c=64 v=127
354419 On ch=1 n=a#3 v=0
354424 On ch=1 n=a#2 v=0
354444 On ch=1 n=a#4 v=0
354469 On ch=1 n=a#5 v=0
354469 Par ch=1 c=64 v=88
354484 Par ch=1 c=64 v=56
354504 Par ch=1 c=64 v=24
354539 On ch=1 n=b5 v=103
354544 On ch=1 n=b3 v=94
354544 On ch=1 n=b4 v=88
354549 Par ch=1 c=64 v=88
354554 On ch=1 n=b2 v=80
354564 Par ch=1 c=64 v=127
354599 On ch=1 n=b2 v=0
354599 On ch=1 n=b4 v=0
354599 On ch=1 n=b3 v=0
354609 On ch=1 n=b5 v=0
354644 Par ch=1 c=64 v=104
354659 Par ch=1 c=64 v=56
354674 Par ch=1 c=64 v=40
354714 On ch=1 n=a4 v=93
354719 On ch=1 n=a5 v=96
354724 On ch=1 n=a3 v=97
354729 On ch=1 n=a2 v=86
354729 Par ch=1 c=64 v=88
354739 Par ch=1 c=64 v=127
354774 On ch=1 n=a3 v=0
354779 On ch=1 n=a4 v=0
354784 On ch=1 n=a2 v=0
354784 On ch=1 n=a5 v=0
354824 Par ch=1 c=64 v=104
354839 Par ch=1 c=64 v=56
354854 Par ch=1 c=64 v=0
354909 On ch=1 n=a#5 v=89
354909 On ch=1 n=a#3 v=102
354909 On ch=1 n=a#2 v=89
354909 On ch=1 n=a#4 v=93
354914 Par ch=1 c=64 v=72
354934 Par ch=1 c=64 v=127
354954 On ch=1 n=a#2 v=0
354959 On ch=1 n=a#3 v=0
354969 On ch=1 n=a#4 v=0
354989 On ch=1 n=a#5 v=0
355044 Par ch=1 c=64 v=72
355059 Par ch=1 c=64 v=24
355074 Par ch=1 c=64 v=0
355094 Par ch=1 c=64 v=24
355099 On ch=1 n=g#5 v=92
355104 On ch=1 n=g#4 v=96
355109 Par ch=1 c=64 v=56
355114 On ch=1 n=g#3 v=95
355119 On ch=1 n=g#2 v=88
355124 Par ch=1 c=64 v=104
355144 Par ch=1 c=64 v=127
355159 On ch=1 n=g#4 v=0
355164 On ch=1 n=g#3 v=0
355169 On ch=1 n=g#2 v=0
355199 On ch=1 n=g#5 v=0
355414 Par ch=1 c=64 v=104
355429 Par ch=1 c=64 v=56
355444 Par ch=1 c=64 v=0
355464 On ch=1 n=e3 v=88
355464 On ch=1 n=a2 v=84
355469 On ch=1 n=a7 v=110
355469 On ch=1 n=a6 v=92
355469 On ch=1 n=a3 v=99
355469 On ch=1 n=c#7 v=89
355514 On ch=1 n=e3 v=0
355514 Par ch=1 c=64 v=127
355519 On ch=1 n=a7 v=0
355519 On ch=1 n=a2 v=0
355534 On ch=1 n=a3 v=0
355534 On ch=1 n=a6 v=0
355539 On ch=1 n=c#7 v=0
355829 On ch=1 n=c#4 v=62
355834 On ch=1 n=a4 v=70
355834 On ch=1 n=a5 v=82
355839 On ch=1 n=c#5 v=65
355844 On ch=1 n=e4 v=59
355844 On ch=1 n=e5 v=70
355874 On ch=1 n=e4 v=0
355894 On ch=1 n=c#5 v=0
355894 On ch=1 n=c#4 v=0
355899 On ch=1 n=e5 v=0
355899 On ch=1 n=a5 v=0
355899 On ch=1 n=a4 v=0
355964 On ch=1 n=e5 v=77
355969 On ch=1 n=a5 v=72
355969 On ch=1 n=c#5 v=57
355969 On ch=1 n=c#4 v=50
355969 On ch=1 n=e4 v=65
355969 On ch=1 n=a4 v=63
355999 On ch=1 n=e4 v=0
356029 On ch=1 n=c#4 v=0
356029 On ch=1 n=c#5 v=0
356034 On ch=1 n=a4 v=0
356039 On ch=1 n=a5 v=0
356049 On ch=1 n=e5 v=0
356109 On ch=1 n=a5 v=72
356109 On ch=1 n=e5 v=65
356124 On ch=1 n=c#4 v=58
356124 On ch=1 n=c#5 v=54
356129 On ch=1 n=a4 v=68
356129 On ch=1 n=e4 v=68
356149 On ch=1 n=c#5 v=0
356159 On ch=1 n=e4 v=0
356164 On ch=1 n=c#4 v=0
356169 On ch=1 n=e5 v=0
356184 On ch=1 n=a4 v=0
356184 On ch=1 n=a5 v=0
356229 Par ch=1 c=64 v=88
356249 Par ch=1 c=64 v=56
356264 Par ch=1 c=64 v=24
356279 Par ch=1 c=64 v=0
356444 On ch=1 n=g#7 v=99
356444 On ch=1 n=g#6 v=80
356449 On ch=1 n=b6 v=88
356454 On ch=1 n=f4 v=76
356454 On ch=1 n=d5 v=80
356454 Par ch=1 c=64 v=88
356464 On ch=1 n=d4 v=66
356474 Par ch=1 c=64 v=127
356489 On ch=1 n=g#6 v=0
356499 On ch=1 n=d5 v=0
356499 On ch=1 n=b6 v=0
356504 On ch=1 n=f4 v=0
356519 On ch=1 n=g#7 v=0
356524 On ch=1 n=d4 v=0
356589 On ch=1 n=d7 v=91
356594 On ch=1 n=b6 v=90
356594 On ch=1 n=b7 v=100
356629 On ch=1 n=b6 v=0
356634 On ch=1 n=b7 v=0
356634 On ch=1 n=d7 v=0
356634 Par ch=1 c=64 v=72
356644 Par ch=1 c=64 v=40
356664 Par ch=1 c=64 v=0
356749 On ch=1 n=a7 v=93
356749 On ch=1 n=c#7 v=88
356749 On ch=1 n=a6 v=96
356759 On ch=1 n=a4 v=80
356759 On ch=1 n=c#4 v=76
356759 Par ch=1 c=64 v=72
356764 On ch=1 n=a3 v=77
356774 Par ch=1 c=64 v=127
356799 On ch=1 n=a6 v=0
356799 On ch=1 n=a7 v=0
356804 On ch=1 n=c#4 v=0
356804 On ch=1 n=c#7 v=0
356809 On ch=1 n=a4 v=0
356814 On ch=1 n=a3 v=0
356949 Par ch=1 c=64 v=72
356964 Par ch=1 c=64 v=40
356984 Par ch=1 c=64 v=0
357034 Par ch=1 c=64 v=40
357049 Par ch=1 c=64 v=88
357064 On ch=1 n=g#7 v=100
357064 Par ch=1 c=64 v=127
357069 On ch=1 n=g#6 v=86
357069 On ch=1 n=b6 v=88
357074 On ch=1 n=d4 v=79
357079 On ch=1 n=f3 v=68
357084 On ch=1 n=d3 v=45
357114 On ch=1 n=b6 v=0
357119 On ch=1 n=g#6 v=0
357129 On ch=1 n=f3 v=0
357139 On ch=1 n=d4 v=0
357139 On ch=1 n=g#7 v=0
357144 On ch=1 n=d3 v=0
357174 Par ch=1 c=64 v=88
357189 Par ch=1 c=64 v=72
357209 Par ch=1 c=64 v=40
357214 On ch=1 n=b7 v=103
357214 On ch=1 n=b6 v=94
357219 On ch=1 n=c#7 v=90
357224 Par ch=1 c=64 v=24
357239 Par ch=1 c=64 v=0
357259 On ch=1 n=c#7 v=0
357259 On ch=1 n=b7 v=0
357274 On ch=1 n=b6 v=0
357374 On ch=1 n=c#3 v=73
357379 On ch=1 n=a7 v=110
357379 On ch=1 n=a6 v=102
357379 On ch=1 n=e3 v=73
357379 On ch=1 n=c#7 v=85
357384 On ch=1 n=a3 v=72
357384 Par ch=1 c=64 v=104
357389 On ch=1 n=a2 v=73
357399 Par ch=1 c=64 v=127
357414 On ch=1 n=a2 v=0
357434 On ch=1 n=c#7 v=0
357434 On ch=1 n=a6 v=0
357439 On ch=1 n=e3 v=0
357439 On ch=1 n=a7 v=0
357439 On ch=1 n=c#3 v=0
357459 On ch=1 n=a3 v=0
357559 Par ch=1 c=64 v=104
357574 Par ch=1 c=64 v=72
357589 Par ch=1 c=64 v=40
357604 Par ch=1 c=64 v=0
357719 Par ch=1 c=64 v=40
357724 On ch=1 n=a7 v=107
357724 On ch=1 n=c#7 v=88
357729 On ch=1 n=a6 v=92
357729 On ch=1 n=f#4 v=93
357734 On ch=1 n=f#3 v=72
357734 Par ch=1 c=64 v=127
357779 On ch=1 n=a6 v=0
357789 On ch=1 n=f#4 v=0
357799 On ch=1 n=f#3 v=0
357799 On ch=1 n=c#7 v=0
357819 On ch=1 n=a7 v=0
357909 Par ch=1 c=64 v=104
357924 Par ch=1 c=64 v=56
357944 Par ch=1 c=64 v=24
357959 Par ch=1 c=64 v=0
358084 On ch=1 n=c#8 v=103
358084 On ch=1 n=c#3 v=71
358089 On ch=1 n=c#4 v=97
358089 On ch=1 n=c#7 v=89
358089 On ch=1 n=g#3 v=82
358094 On ch=1 n=g#7 v=89
358099 On ch=1 n=f7 v=90
358119 Par ch=1 c=64 v=72
358134 Par ch=1 c=64 v=127
358139 On ch=1 n=c#3 v=0
358139 On ch=1 n=c#8 v=0
358144 On ch=1 n=c#4 v=0
358149 On ch=1 n=g#3 v=0
358154 On ch=1 n=f7 v=0
358159 On ch=1 n=g#7 v=0
358169 On ch=1 n=c#7 v=0
358429 On ch=1 n=c#5 v=68
358439 On ch=1 n=g#5 v=71
358444 On ch=1 n=c#6 v=73
358444 On ch=1 n=g#4 v=56
358444 On ch=1 n=f5 v=73
358449 On ch=1 n=f4 v=52
358469 On ch=1 n=g#4 v=0
358479 On ch=1 n=f4 v=0
358489 On ch=1 n=c#5 v=0
358494 On ch=1 n=f5 v=0
358494 On ch=1 n=g#5 v=0
358504 On ch=1 n=c#6 v=0
358574 On ch=1 n=c#6 v=73
358574 On ch=1 n=c#5 v=71
358579 On ch=1 n=f5 v=71
358579 On ch=1 n=f4 v=58
358584 On ch=1 n=g#4 v=53
358584 On ch=1 n=g#5 v=68
358619 On ch=1 n=g#4 v=0
358619 On ch=1 n=f4 v=0
358624 On ch=1 n=c#5 v=0
358634 On ch=1 n=g#5 v=0
358644 On ch=1 n=f5 v=0
358649 On ch=1 n=c#6 v=0
358724 On ch=1 n=c#6 v=83
358729 On ch=1 n=c#5 v=70
358729 On ch=1 n=g#5 v=67
358734 On ch=1 n=f5 v=58
358739 On ch=1 n=f4 v=67
358744 On ch=1 n=g#4 v=53
358759 On ch=1 n=g#5 v=0
358764 On ch=1 n=f4 v=0
358764 On ch=1 n=f5 v=0
358774 On ch=1 n=g#4 v=0
358789 On ch=1 n=c#5 v=0
358789 On ch=1 n=c#6 v=0
358919 Par ch=1 c=64 v=88
358934 Par ch=1 c=64 v=56
358949 Par ch=1 c=64 v=40
358964 Par ch=1 c=64 v=0
359064 On ch=1 n=c8 v=103
359069 On ch=1 n=c7 v=85
359069 On ch=1 n=d#7 v=85
359074 Par ch=1 c=64 v=40
359079 On ch=1 n=f#5 v=76
359079 On ch=1 n=f#4 v=65
359084 On ch=1 n=a4 v=68
359094 Par ch=1 c=64 v=104
359109 Par ch=1 c=64 v=127
359114 On ch=1 n=a4 v=0
359119 On ch=1 n=c7 v=0
359129 On ch=1 n=f#5 v=0
359129 On ch=1 n=d#7 v=0
359139 On ch=1 n=c8 v=0
359144 On ch=1 n=f#4 v=0
359224 On ch=1 n=d#8 v=103
359224 On ch=1 n=d#7 v=95
359284 On ch=1 n=d#7 v=0
359284 Par ch=1 c=64 v=88
359299 Par ch=1 c=64 v=40
359309 On ch=1 n=d#8 v=0
359314 Par ch=1 c=64 v=0
359379 Par ch=1 c=64 v=56
359384 On ch=1 n=c#8 v=103
359384 On ch=1 n=c#7 v=105
359384 On ch=1 n=c#5 v=86
359394 On ch=1 n=c#4 v=70
359394 Par ch=1 c=64 v=127
359399 On ch=1 n=f4 v=72
359414 On ch=1 n=f7 v=38
359429 On ch=1 n=f4 v=0
359444 On ch=1 n=c#5 v=0
359449 On ch=1 n=f7 v=0
359464 On ch=1 n=c#4 v=0
359479 On ch=1 n=c#7 v=0
359484 On ch=1 n=c#8 v=0
359604 Par ch=1 c=64 v=104
359619 Par ch=1 c=64 v=56
359639 Par ch=1 c=64 v=0
359699 Par ch=1 c=64 v=24
359704 On ch=1 n=f#4 v=79
359709 On ch=1 n=c8 v=103
359709 On ch=1 n=d#7 v=86
359709 On ch=1 n=a3 v=84
359714 On ch=1 n=c7 v=85
359714 Par ch=1 c=64 v=88
359719 On ch=1 n=f#3 v=65
359734 Par ch=1 c=64 v=127
359754 On ch=1 n=a3 v=0
359759 On ch=1 n=f#4 v=0
359769 On ch=1 n=c7 v=0
359774 On ch=1 n=d#7 v=0
359779 On ch=1 n=c8 v=0
359784 On ch=1 n=f#3 v=0
359864 On ch=1 n=d#8 v=100
359864 On ch=1 n=d#7 v=96
359869 On ch=1 n=f#7 v=80
359894 On ch=1 n=f#7 v=0
359904 On ch=1 n=d#7 v=0
359904 Par ch=1 c=64 v=88
359924 Par ch=1 c=64 v=40
359929 On ch=1 n=d#8 v=0
359939 Par ch=1 c=64 v=0
360004 Par ch=1 c=64 v=40
360009 On ch=1 n=c#3 v=64
360009 On ch=1 n=c#4 v=83
360019 On ch=1 n=c#8 v=102
360019 On ch=1 n=c#7 v=102
360019 On ch=1 n=f3 v=74
360019 Par ch=1 c=64 v=127
360024 On ch=1 n=g#3 v=62
360044 On ch=1 n=f3 v=0
360049 On ch=1 n=g#3 v=0
360064 On ch=1 n=c#3 v=0
360074 On ch=1 n=c#4 v=0
360094 On ch=1 n=c#7 v=0
360109 On ch=1 n=c#8 v=0
360209 Par ch=1 c=64 v=88
360224 Par ch=1 c=64 v=40
360244 Par ch=1 c=64 v=0
360339 Par ch=1 c=64 v=24
360349 On ch=1 n=c#7 v=91
360349 On ch=1 n=c#8 v=103
360349 On ch=1 n=a#4 v=84
360354 Par ch=1 c=64 v=104
360359 On ch=1 n=f7 v=92
360364 On ch=1 n=a#3 v=79
360369 Par ch=1 c=64 v=127
360384 On ch=1 n=f7 v=0
360424 On ch=1 n=a#4 v=0
360424 On ch=1 n=c#7 v=0
360429 On ch=1 n=a#3 v=0
360449 On ch=1 n=c#8 v=0
360564 Par ch=1 c=64 v=88
360579 Par ch=1 c=64 v=56
360594 Par ch=1 c=64 v=24
360609 Par ch=1 c=64 v=0
360714 On ch=1 n=f8 v=106
360724 On ch=1 n=f7 v=86
360729 On ch=1 n=f3 v=85
360729 On ch=1 n=f4 v=88
360729 On ch=1 n=c8 v=84
360729 On ch=1 n=c4 v=87
360729 On ch=1 n=a7 v=84
360734 On ch=1 n=a3 v=76
360739 Par ch=1 c=64 v=24
360754 Par ch=1 c=64 v=127
360774 On ch=1 n=f8 v=0
360779 On ch=1 n=f3 v=0
360784 On ch=1 n=a3 v=0
360784 On ch=1 n=a7 v=0
360784 On ch=1 n=c4 v=0
360784 On ch=1 n=c8 v=0
360799 On ch=1 n=f7 v=0
360804 On ch=1 n=f4 v=0
361074 On ch=1 n=f6 v=89
361079 On ch=1 n=a5 v=74
361084 On ch=1 n=c6 v=78
361084 On ch=1 n=c5 v=63
361084 On ch=1 n=f5 v=62
361089 On ch=1 n=a4 v=56
361119 On ch=1 n=c6 v=0
361124 On ch=1 n=a4 v=0
361124 On ch=1 n=c5 v=0
361129 On ch=1 n=f5 v=0
361134 On ch=1 n=a5 v=0
361134 On ch=1 n=f6 v=0
361214 On ch=1 n=f6 v=89
361219 On ch=1 n=c6 v=87
361224 On ch=1 n=a5 v=72
361229 On ch=1 n=c5 v=62
361229 On ch=1 n=f5 v=66
361234 On ch=1 n=a4 v=61
361264 On ch=1 n=a4 v=0
361264 On ch=1 n=c5 v=0
361269 On ch=1 n=f5 v=0
361279 On ch=1 n=a5 v=0
361279 On ch=1 n=c6 v=0
361289 On ch=1 n=f6 v=0
361374 On ch=1 n=a5 v=82
361374 On ch=1 n=f6 v=89
361379 On ch=1 n=f5 v=77
361384 On ch=1 n=c5 v=72
361384 On ch=1 n=c6 v=74
361384 On ch=1 n=a4 v=52
361399 On ch=1 n=a5 v=0
361409 On ch=1 n=c6 v=0
361409 On ch=1 n=c5 v=0
361419 On ch=1 n=a4 v=0
361434 On ch=1 n=f5 v=0
361444 On ch=1 n=f6 v=0
361719 On ch=1 n=e7 v=76
361719 On ch=1 n=e8 v=94
361719 On ch=1 n=a#5 v=78
361719 Par ch=1 c=64 v=40
361724 On ch=1 n=g7 v=75
361724 On ch=1 n=c#5 v=71
361729 On ch=1 n=a#4 v=68
361734 Par ch=1 c=64 v=88
361749 On ch=1 n=c#5 v=0
361754 On ch=1 n=a#5 v=0
361754 Par ch=1 c=64 v=127
361764 On ch=1 n=g7 v=0
361769 On ch=1 n=a#4 v=0
361769 On ch=1 n=e7 v=0
361794 On ch=1 n=e8 v=0
361849 Par ch=1 c=64 v=104
361864 Par ch=1 c=64 v=88
361869 On ch=1 n=g7 v=93
361869 On ch=1 n=g8 v=102
361874 On ch=1 n=a#7 v=85
361879 Par ch=1 c=64 v=56
361894 Par ch=1 c=64 v=40
361914 Par ch=1 c=64 v=0
361924 On ch=1 n=a#7 v=0
361924 On ch=1 n=g7 v=0
361934 On ch=1 n=g8 v=0
362024 Par ch=1 c=64 v=56
362029 On ch=1 n=f5 v=75
362029 On ch=1 n=a4 v=70
362029 On ch=1 n=c5 v=82
362039 On ch=1 n=f8 v=102
362039 On ch=1 n=f7 v=93
362039 Par ch=1 c=64 v=127
362044 On ch=1 n=a7 v=88
362049 On ch=1 n=f4 v=76
362069 On ch=1 n=a7 v=0
362079 On ch=1 n=f7 v=0
362079 On ch=1 n=f5 v=0
362089 On ch=1 n=c5 v=0
362089 On ch=1 n=a4 v=0
362099 On ch=1 n=f4 v=0
362099 On ch=1 n=f8 v=0
362214 Par ch=1 c=64 v=88
362229 Par ch=1 c=64 v=56
362244 Par ch=1 c=64 v=0
362344 Par ch=1 c=64 v=40
362349 On ch=1 n=e7 v=83
362349 On ch=1 n=a#4 v=71
362354 On ch=1 n=e8 v=99
362359 On ch=1 n=a#3 v=72
362359 On ch=1 n=g7 v=83
362359 On ch=1 n=c#4 v=67
362359 Par ch=1 c=64 v=104
362374 Par ch=1 c=64 v=127
362389 On ch=1 n=c#4 v=0
362399 On ch=1 n=g7 v=0
362399 On ch=1 n=a#4 v=0
362409 On ch=1 n=e7 v=0
362419 On ch=1 n=a#3 v=0
362434 On ch=1 n=e8 v=0
362489 Par ch=1 c=64 v=88
362504 On ch=1 n=g7 v=99
362504 On ch=1 n=g8 v=102
362504 On ch=1 n=a#7 v=84
362504 Par ch=1 c=64 v=72
362519 Par ch=1 c=64 v=56
362534 Par ch=1 c=64 v=24
362549 On ch=1 n=a#7 v=0
362549 On ch=1 n=g7 v=0
362549 Par ch=1 c=64 v=0
362574 On ch=1 n=g8 v=0
362664 Par ch=1 c=64 v=72
362669 On ch=1 n=f8 v=97
362669 On ch=1 n=a3 v=79
362674 On ch=1 n=f7 v=97
362674 On ch=1 n=f4 v=78
362674 On ch=1 n=c4 v=82
362679 On ch=1 n=f3 v=76
362679 On ch=1 n=a7 v=86
362679 Par ch=1 c=64 v=127
362704 On ch=1 n=a3 v=0
362709 On ch=1 n=a7 v=0
362709 On ch=1 n=f4 v=0
362714 On ch=1 n=f8 v=0
362719 On ch=1 n=f7 v=0
362734 On ch=1 n=c4 v=0
362744 On ch=1 n=f3 v=0
362804 Par ch=1 c=64 v=88
362824 Par ch=1 c=64 v=72
362839 Par ch=1 c=64 v=40
362854 Par ch=1 c=64 v=24
362869 Par ch=1 c=64 v=0
363024 On ch=1 n=f7 v=105
363024 On ch=1 n=f6 v=99
363024 On ch=1 n=a6 v=92
363029 On ch=1 n=d3 v=78
363034 On ch=1 n=d4 v=87
363044 Par ch=1 c=64 v=88
363059 Par ch=1 c=64 v=127
363074 On ch=1 n=a6 v=0
363079 On ch=1 n=f6 v=0
363084 On ch=1 n=d4 v=0
363084 On ch=1 n=d3 v=0
363119 On ch=1 n=f7 v=0
363204 Par ch=1 c=64 v=88
363224 Par ch=1 c=64 v=56
363239 Par ch=1 c=64 v=24
363254 Par ch=1 c=64 v=0
363354 On ch=1 n=a7 v=103
363364 On ch=1 n=c#7 v=80
363364 On ch=1 n=a6 v=86
363364 On ch=1 n=a2 v=82
363369 On ch=1 n=a3 v=80
363379 Par ch=1 c=64 v=40
363399 Par ch=1 c=64 v=127
363414 On ch=1 n=a6 v=0
363429 On ch=1 n=a2 v=0
363434 On ch=1 n=a3 v=0
363439 On ch=1 n=c#7 v=0
363449 On ch=1 n=a7 v=0
363524 On ch=1 n=g#7 v=88
363529 On ch=1 n=g#6 v=87
363594 On ch=1 n=g#6 v=0
363614 On ch=1 n=g#7 v=0
363689 On ch=1 n=a7 v=102
363699 On ch=1 n=a6 v=87
363699 On ch=1 n=e5 v=71
363699 On ch=1 n=a4 v=66
363699 Par ch=1 c=64 v=104
363704 On ch=1 n=c#5 v=68
363714 On ch=1 n=e4 v=73
363714 Par ch=1 c=64 v=88
363729 On ch=1 n=c#5 v=0
363734 Par ch=1 c=64 v=56
363744 On ch=1 n=a4 v=0
363744 On ch=1 n=e5 v=0
363749 On ch=1 n=a6 v=0
363749 Par ch=1 c=64 v=40
363754 On ch=1 n=a7 v=0
363764 Par ch=1 c=64 v=24
363779 On ch=1 n=e4 v=0
363779 Par ch=1 c=64 v=0
363839 On ch=1 n=b7 v=105
363849 On ch=1 n=b6 v=96
363899 On ch=1 n=b6 v=0
363914 On ch=1 n=b7 v=0
364004 On ch=1 n=c#7 v=105
364004 On ch=1 n=c#8 v=105
364004 Par ch=1 c=64 v=56
364019 On ch=1 n=a3 v=80
364019 On ch=1 n=a2 v=83
364019 Par ch=1 c=64 v=127
364069 On ch=1 n=a3 v=0
364074 On ch=1 n=a2 v=0
364229 On ch=1 n=c#8 v=0
364329 On ch=1 n=c#7 v=0
364344 On ch=1 n=f5 v=71
364344 On ch=1 n=c#5 v=67
364349 On ch=1 n=a4 v=67
364349 On ch=1 n=f4 v=69
364374 On ch=1 n=f5 v=0
364389 On ch=1 n=a4 v=0
364389 On ch=1 n=c#5 v=0
364419 On ch=1 n=f4 v=0
364489 On ch=1 n=c#8 v=101
364489 On ch=1 n=c#7 v=91
364499 Par ch=1 c=64 v=104
364514 Par ch=1 c=64 v=72
364529 Par ch=1 c=64 v=24
364549 Par ch=1 c=64 v=0
364554 On ch=1 n=c#7 v=0
364574 On ch=1 n=c#8 v=0
364624 Par ch=1 c=64 v=24
364644 Par ch=1 c=64 v=88
364649 On ch=1 n=c#8 v=100
364659 On ch=1 n=c#7 v=90
364659 On ch=1 n=a2 v=55
364659 Par ch=1 c=64 v=127
364669 On ch=1 n=a3 v=73
364684 On ch=1 n=a2 v=0
364704 On ch=1 n=a3 v=0
364719 On ch=1 n=c#7 v=0
364734 On ch=1 n=c#8 v=0
364809 On ch=1 n=b7 v=97
364814 On ch=1 n=b6 v=85
364874 On ch=1 n=b6 v=0
364874 On ch=1 n=b7 v=0
364964 On ch=1 n=a7 v=100
364969 On ch=1 n=a6 v=87
364979 On ch=1 n=d5 v=78
364979 On ch=1 n=f#5 v=69
364989 On ch=1 n=f#4 v=71
365009 On ch=1 n=d5 v=0
365014 Par ch=1 c=64 v=104
365024 On ch=1 n=f#5 v=0
365024 On ch=1 n=a6 v=0
365029 Par ch=1 c=64 v=72
365034 On ch=1 n=a7 v=0
365039 Par ch=1 c=64 v=56
365059 On ch=1 n=f#4 v=0
365059 Par ch=1 c=64 v=40
365074 Par ch=1 c=64 v=24
365109 Par ch=1 c=64 v=0
365114 On ch=1 n=g#7 v=97
365119 On ch=1 n=g#6 v=97
365189 On ch=1 n=g#6 v=0
365224 On ch=1 n=g#7 v=0
365289 On ch=1 n=a7 v=116
365289 On ch=1 n=a6 v=102
365299 Par ch=1 c=64 v=88
365309 On ch=1 n=a2 v=72
365314 On ch=1 n=a3 v=82
365314 Par ch=1 c=64 v=127
365334 On ch=1 n=a2 v=0
365359 On ch=1 n=a3 v=0
365414 On ch=1 n=a6 v=0
365464 On ch=1 n=a7 v=0
365624 On ch=1 n=d#5 v=69
365634 On ch=1 n=c5 v=66
365639 On ch=1 n=f#4 v=65
365679 On ch=1 n=d#5 v=0
365684 On ch=1 n=c5 v=0
365689 On ch=1 n=f#4 v=0
365729 Par ch=1 c=64 v=88
365744 Par ch=1 c=64 v=72
365759 Par ch=1 c=64 v=40
365774 Par ch=1 c=64 v=24
365779 On ch=1 n=f#8 v=97
365789 On ch=1 n=f#7 v=88
365794 Par ch=1 c=64 v=0
365854 On ch=1 n=f#7 v=0
365869 On ch=1 n=f#8 v=0
365904 Par ch=1 c=64 v=40
365924 Par ch=1 c=64 v=127
365939 On ch=1 n=e8 v=94
365939 On ch=1 n=a2 v=64
365949 On ch=1 n=e7 v=86
365949 On ch=1 n=a3 v=79
365964 On ch=1 n=a2 v=0
365999 On ch=1 n=e7 v=0
366004 On ch=1 n=a3 v=0
366004 On ch=1 n=e8 v=0
366089 On ch=1 n=d8 v=97
366094 On ch=1 n=d7 v=88
366149 On ch=1 n=d7 v=0
366159 On ch=1 n=d8 v=0
366244 On ch=1 n=g#4 v=70
366249 On ch=1 n=c#7 v=86
366249 On ch=1 n=e5 v=73
366249 On ch=1 n=e4 v=66
366254 On ch=1 n=c#8 v=89
366274 On ch=1 n=e5 v=0
366274 Par ch=1 c=64 v=104
366289 Par ch=1 c=64 v=88
366304 On ch=1 n=c#7 v=0
366304 On ch=1 n=g#4 v=0
366304 Par ch=1 c=64 v=72
366314 On ch=1 n=e4 v=0
366319 Par ch=1 c=64 v=56
366329 On ch=1 n=c#8 v=0
366339 Par ch=1 c=64 v=40
366369 Par ch=1 c=64 v=24
366384 Par ch=1 c=64 v=0
366394 On ch=1 n=e8 v=102
366399 On ch=1 n=e7 v=93
366449 On ch=1 n=e7 v=0
366464 On ch=1 n=e8 v=0
366529 Par ch=1 c=64 v=40
366544 Par ch=1 c=64 v=104
366554 On ch=1 n=a2 v=68
366554 On ch=1 n=d8 v=97
366554 On ch=1 n=d7 v=81
366564 Par ch=1 c=64 v=127
366569 On ch=1 n=a3 v=69
366594 On ch=1 n=a2 v=0
366599 On ch=1 n=d7 v=0
366614 On ch=1 n=d8 v=0
366624 On ch=1 n=a3 v=0
366704 On ch=1 n=c#8 v=88
366709 On ch=1 n=c#7 v=89
366769 On ch=1 n=c#7 v=0
366789 On ch=1 n=c#8 v=0
366864 On ch=1 n=b7 v=94
366864 On ch=1 n=e5 v=64
366869 On ch=1 n=b6 v=89
366869 On ch=1 n=g#4 v=58
366874 On ch=1 n=b4 v=59
366884 On ch=1 n=e4 v=26
366899 On ch=1 n=b4 v=0
366899 On ch=1 n=e5 v=0
366914 Par ch=1 c=64 v=88
366919 On ch=1 n=b6 v=0
366924 On ch=1 n=b7 v=0
366929 On ch=1 n=g#4 v=0
366929 Par ch=1 c=64 v=72
366939 On ch=1 n=e4 v=0
366944 Par ch=1 c=64 v=56
366959 Par ch=1 c=64 v=40
366994 Par ch=1 c=64 v=24
367009 Par ch=1 c=64 v=0
367019 On ch=1 n=d8 v=94
367024 On ch=1 n=d7 v=92
367074 On ch=1 n=d7 v=0
367084 On ch=1 n=d8 v=0
367149 Par ch=1 c=64 v=72
367169 Par ch=1 c=64 v=127
367174 On ch=1 n=a2 v=69
367179 On ch=1 n=c#8 v=95
367184 On ch=1 n=c#7 v=96
367184 On ch=1 n=a3 v=75
367199 On ch=1 n=a2 v=0
367239 On ch=1 n=c#7 v=0
367244 On ch=1 n=a3 v=0
367249 On ch=1 n=c#8 v=0
367324 On ch=1 n=b7 v=100
367334 On ch=1 n=b6 v=93
367384 On ch=1 n=b6 v=0
367384 On ch=1 n=b7 v=0
367479 On ch=1 n=a7 v=103
367479 On ch=1 n=e5 v=67
367479 On ch=1 n=a6 v=93
367484 On ch=1 n=c#5 v=54
367489 On ch=1 n=a4 v=53
367514 On ch=1 n=e5 v=0
367514 On ch=1 n=e4 v=44
367519 Par ch=1 c=64 v=104
367524 On ch=1 n=a4 v=0
367534 On ch=1 n=c#5 v=0
367534 On ch=1 n=a6 v=0
367534 Par ch=1 c=64 v=88
367544 On ch=1 n=a7 v=0
367549 Par ch=1 c=64 v=56
367559 On ch=1 n=e4 v=0
367584 Par ch=1 c=64 v=40
367599 Par ch=1 c=64 v=24
367634 On ch=1 n=c#8 v=92
367634 On ch=1 n=c#7 v=96
367634 Par ch=1 c=64 v=0
367679 On ch=1 n=c#7 v=0
367694 On ch=1 n=c#8 v=0
367759 Par ch=1 c=64 v=56
367774 Par ch=1 c=64 v=127
367789 On ch=1 n=b7 v=100
367789 On ch=1 n=a2 v=56
367794 On ch=1 n=b6 v=97
367814 On ch=1 n=a3 v=64
367829 On ch=1 n=a2 v=0
367844 On ch=1 n=b6 v=0
367849 On ch=1 n=b7 v=0
367859 On ch=1 n=a3 v=0
367939 On ch=1 n=a7 v=100
367949 On ch=1 n=a6 v=87
368004 On ch=1 n=a6 v=0
368009 On ch=1 n=a7 v=0
368109 On ch=1 n=g#7 v=99
368109 On ch=1 n=g#6 v=97
368114 On ch=1 n=e5 v=62
368124 On ch=1 n=b4 v=63
368134 On ch=1 n=e4 v=65
368159 On ch=1 n=e5 v=0
368169 On ch=1 n=b4 v=0
368189 On ch=1 n=g#6 v=0
368194 On ch=1 n=e4 v=0
368244 On ch=1 n=g#7 v=0
368254 Par ch=1 c=64 v=104
368269 Par ch=1 c=64 v=88
368284 Par ch=1 c=64 v=56
368299 Par ch=1 c=64 v=24
368319 Par ch=1 c=64 v=0
368429 Par ch=1 c=64 v=56
368444 On ch=1 n=a2 v=79
368449 On ch=1 n=a7 v=103
368449 Par ch=1 c=64 v=127
368454 On ch=1 n=a6 v=86
368454 On ch=1 n=a3 v=75
368514 On ch=1 n=a3 v=0
368514 On ch=1 n=a6 v=0
368519 On ch=1 n=a7 v=0
368519 On ch=1 n=a2 v=0
368604 On ch=1 n=g#7 v=90
368609 On ch=1 n=g#6 v=91
368674 On ch=1 n=g#6 v=0
368689 On ch=1 n=g#7 v=0
368764 On ch=1 n=c#5 v=54
368769 On ch=1 n=a7 v=103
368769 On ch=1 n=e5 v=62
368769 On ch=1 n=a6 v=93
368774 On ch=1 n=a4 v=52
368779 On ch=1 n=e4 v=55
368794 On ch=1 n=e5 v=0
368804 On ch=1 n=a4 v=0
368804 On ch=1 n=c#5 v=0
368819 On ch=1 n=a6 v=0
368829 On ch=1 n=a7 v=0
368844 On ch=1 n=e4 v=0
368914 On ch=1 n=b7 v=107
368919 On ch=1 n=b6 v=100
368974 Par ch=1 c=64 v=88
368979 On ch=1 n=b6 v=0
368989 Par ch=1 c=64 v=0
368994 On ch=1 n=b7 v=0
369074 On ch=1 n=a2 v=75
369084 On ch=1 n=c#7 v=100
369089 On ch=1 n=c#8 v=110
369089 On ch=1 n=a3 v=81
369104 On ch=1 n=a2 v=0
369119 Par ch=1 c=64 v=104
369134 Par ch=1 c=64 v=127
369144 On ch=1 n=a3 v=0
369399 On ch=1 n=c#5 v=65
369399 On ch=1 n=f5 v=73
369409 On ch=1 n=a4 v=61
369409 On ch=1 n=f4 v=61
369424 On ch=1 n=c#8 v=0
369439 On ch=1 n=f5 v=0
369444 On ch=1 n=a4 v=0
369444 On ch=1 n=c#7 v=0
369454 On ch=1 n=c#5 v=0
369479 On ch=1 n=f4 v=0
369484 Par ch=1 c=64 v=104
369504 Par ch=1 c=64 v=88
369519 Par ch=1 c=64 v=72
369534 Par ch=1 c=64 v=56
369549 Par ch=1 c=64 v=40
369554 On ch=1 n=c#8 v=96
369554 On ch=1 n=c#7 v=92
369564 Par ch=1 c=64 v=24
369579 Par ch=1 c=64 v=0
369619 On ch=1 n=c#7 v=0
369634 On ch=1 n=c#8 v=0
369709 On ch=1 n=a2 v=70
369709 Par ch=1 c=64 v=72
369719 On ch=1 n=c#8 v=97
369719 On ch=1 n=c#7 v=93
369724 On ch=1 n=a3 v=66
369729 Par ch=1 c=64 v=127
369734 On ch=1 n=a2 v=0
369779 On ch=1 n=a3 v=0
369784 On ch=1 n=c#7 v=0
369799 On ch=1 n=c#8 v=0
369869 On ch=1 n=b7 v=99
369874 On ch=1 n=b6 v=84
369929 On ch=1 n=b6 v=0
369934 On ch=1 n=b7 v=0
370024 On ch=1 n=a7 v=100
370024 On ch=1 n=a6 v=85
370029 On ch=1 n=f#5 v=73
370029 On ch=1 n=d5 v=67
370034 On ch=1 n=f#4 v=69
370074 On ch=1 n=d5 v=0
370074 On ch=1 n=f#5 v=0
370074 On ch=1 n=a6 v=0
370084 On ch=1 n=a7 v=0
370089 Par ch=1 c=64 v=104
370099 On ch=1 n=f#4 v=0
370109 Par ch=1 c=64 v=72
370124 Par ch=1 c=64 v=56
370139 Par ch=1 c=64 v=40
370154 Par ch=1 c=64 v=24
370169 On ch=1 n=g#7 v=96
370169 On ch=1 n=g#6 v=93
370189 Par ch=1 c=64 v=0
370244 On ch=1 n=g#6 v=0
370274 On ch=1 n=g#7 v=0
370344 On ch=1 n=a6 v=96
370344 On ch=1 n=a7 v=110
370349 On ch=1 n=a2 v=67
370349 Par ch=1 c=64 v=56
370359 On ch=1 n=a3 v=78
370364 Par ch=1 c=64 v=127
370374 On ch=1 n=a2 v=0
370414 On ch=1 n=a3 v=0
370469 On ch=1 n=a6 v=0
370539 On ch=1 n=a7 v=0
370679 On ch=1 n=c5 v=80
370679 On ch=1 n=d#5 v=73
370689 On ch=1 n=f#4 v=60
370714 On ch=1 n=c5 v=0
370734 On ch=1 n=d#5 v=0
370749 On ch=1 n=f#4 v=0
370779 Par ch=1 c=64 v=88
370794 Par ch=1 c=64 v=72
370809 Par ch=1 c=64 v=56
370824 Par ch=1 c=64 v=40
370839 On ch=1 n=f#8 v=90
370844 On ch=1 n=f#7 v=90
370844 Par ch=1 c=64 v=24
370859 Par ch=1 c=64 v=0
370904 On ch=1 n=f#7 v=0
370929 On ch=1 n=f#8 v=0
370954 Par ch=1 c=64 v=24
370974 Par ch=1 c=64 v=88
370989 On ch=1 n=a2 v=68
370989 Par ch=1 c=64 v=127
370994 On ch=1 n=e8 v=96
371004 On ch=1 n=e7 v=87
371004 On ch=1 n=a3 v=68
371049 On ch=1 n=a2 v=0
371054 On ch=1 n=e7 v=0
371059 On ch=1 n=e8 v=0
371064 On ch=1 n=a3 v=0
371144 On ch=1 n=d8 v=99
371149 On ch=1 n=d7 v=89
371204 On ch=1 n=d7 v=0
371209 On ch=1 n=d8 v=0
371294 On ch=1 n=e5 v=74
371294 On ch=1 n=b4 v=73
371304 On ch=1 n=c#7 v=88
371309 On ch=1 n=c#8 v=88
371309 On ch=1 n=e4 v=71
371329 On ch=1 n=e5 v=0
371354 On ch=1 n=b4 v=0
371354 Par ch=1 c=64 v=104
371364 On ch=1 n=c#7 v=0
371369 Par ch=1 c=64 v=88
371379 On ch=1 n=c#8 v=0
371384 On ch=1 n=e4 v=0
371389 Par ch=1 c=64 v=72
371404 Par ch=1 c=64 v=56
371434 Par ch=1 c=64 v=40
371449 On ch=1 n=e8 v=102
371449 Par ch=1 c=64 v=24
371454 On ch=1 n=e7 v=93
371464 Par ch=1 c=64 v=0
371504 On ch=1 n=e7 v=0
371509 On ch=1 n=e8 v=0
371594 Par ch=1 c=64 v=72
371604 On ch=1 n=d8 v=97
371609 On ch=1 n=d7 v=93
371614 On ch=1 n=a2 v=64
371614 Par ch=1 c=64 v=127
371624 On ch=1 n=a3 v=71
371639 On ch=1 n=a2 v=0
371664 On ch=1 n=d7 v=0
371669 On ch=1 n=d8 v=0
371684 On ch=1 n=a3 v=0
371754 On ch=1 n=c#8 v=88
371754 On ch=1 n=c#7 v=88
371814 On ch=1 n=c#7 v=0
371829 On ch=1 n=c#8 v=0
371914 On ch=1 n=b6 v=90
371914 On ch=1 n=b7 v=99
371914 On ch=1 n=e5 v=67
371919 On ch=1 n=g#4 v=62
371924 On ch=1 n=e4 v=65
371924 On ch=1 n=b4 v=62
371944 On ch=1 n=e5 v=0
371959 On ch=1 n=b7 v=0
371964 On ch=1 n=b6 v=0
371974 Par ch=1 c=64 v=104
371979 On ch=1 n=g#4 v=0
371984 On ch=1 n=b4 v=0
371994 On ch=1 n=e4 v=0
371994 Par ch=1 c=64 v=72
372029 Par ch=1 c=64 v=56
372044 Par ch=1 c=64 v=40
372059 On ch=1 n=d8 v=100
372059 Par ch=1 c=64 v=24
372069 On ch=1 n=d7 v=93
372089 Par ch=1 c=64 v=0
372119 On ch=1 n=d7 v=0
372129 On ch=1 n=d8 v=0
372199 Par ch=1 c=64 v=40
372219 On ch=1 n=c#8 v=93
372219 Par ch=1 c=64 v=127
372229 On ch=1 n=a2 v=71
372229 On ch=1 n=c#7 v=90
372229 On ch=1 n=a3 v=71
372284 On ch=1 n=c#7 v=0
372289 On ch=1 n=a3 v=0
372289 On ch=1 n=a2 v=0
372304 On ch=1 n=c#8 v=0
372374 On ch=1 n=b7 v=99
372379 On ch=1 n=b6 v=90
372424 On ch=1 n=b7 v=0
372434 On ch=1 n=b6 v=0
372519 On ch=1 n=c#5 v=58
372529 On ch=1 n=a7 v=100
372529 On ch=1 n=e5 v=65
372534 On ch=1 n=a6 v=88
372539 On ch=1 n=e4 v=61
372539 On ch=1 n=a4 v=50
372554 On ch=1 n=e5 v=0
372574 On ch=1 n=a4 v=0
372574 On ch=1 n=c#5 v=0
372584 On ch=1 n=a6 v=0
372584 Par ch=1 c=64 v=104
372589 On ch=1 n=a7 v=0
372599 Par ch=1 c=64 v=88
372604 On ch=1 n=e4 v=0
372614 Par ch=1 c=64 v=72
372634 Par ch=1 c=64 v=56
372649 Par ch=1 c=64 v=40
372674 On ch=1 n=c#8 v=92
372679 On ch=1 n=c#7 v=93
372684 Par ch=1 c=64 v=24
372714 Par ch=1 c=64 v=0
372729 On ch=1 n=c#7 v=0
372744 On ch=1 n=c#8 v=0
372824 Par ch=1 c=64 v=56
372834 On ch=1 n=b7 v=103
372839 On ch=1 n=b6 v=97
372839 On ch=1 n=a2 v=69
372839 Par ch=1 c=64 v=127
372869 On ch=1 n=a3 v=66
372889 On ch=1 n=b6 v=0
372894 On ch=1 n=a2 v=0
372894 On ch=1 n=b7 v=0
372904 On ch=1 n=a3 v=0
372979 On ch=1 n=a7 v=103
372984 On ch=1 n=a6 v=92
373039 On ch=1 n=a6 v=0
373049 On ch=1 n=a7 v=0
373099 Par ch=1 c=64 v=72
373114 Par ch=1 c=64 v=24
373144 On ch=1 n=g#7 v=92
373149 On ch=1 n=g#6 v=95
373149 On ch=1 n=e4 v=68
373154 On ch=1 n=b4 v=65
373154 On ch=1 n=e5 v=65
373159 Par ch=1 c=64 v=127
373184 On ch=1 n=e5 v=0
373184 On ch=1 n=b4 v=0
373199 On ch=1 n=g#6 v=0
373199 On ch=1 n=g#7 v=0
373224 On ch=1 n=e4 v=0
373319 Par ch=1 c=64 v=104
373334 Par ch=1 c=64 v=72
373354 Par ch=1 c=64 v=24
373369 Par ch=1 c=64 v=0
373464 On ch=1 n=a6 v=97
373469 On ch=1 n=a5 v=92
373474 On ch=1 n=a3 v=85
373474 On ch=1 n=a4 v=86
373479 Par ch=1 c=64 v=104
373499 Par ch=1 c=64 v=127
373524 On ch=1 n=a4 v=0
373529 On ch=1 n=a3 v=0
373529 On ch=1 n=a5 v=0
373534 On ch=1 n=a6 v=0
373619 On ch=1 n=g#6 v=88
373624 On ch=1 n=g#4 v=78
373629 On ch=1 n=g#5 v=88
373629 On ch=1 n=g#3 v=77
373654 Par ch=1 c=64 v=104
373659 On ch=1 n=g#3 v=0
373669 On ch=1 n=g#4 v=0
373674 On ch=1 n=g#5 v=0
373674 Par ch=1 c=64 v=72
373689 On ch=1 n=g#6 v=0
373689 Par ch=1 c=64 v=40
373704 Par ch=1 c=64 v=0
373769 On ch=1 n=f5 v=96
373769 On ch=1 n=f6 v=102
373774 On ch=1 n=f4 v=78
373784 On ch=1 n=f3 v=48
373809 On ch=1 n=f4 v=0
373809 On ch=1 n=f5 v=0
373814 On ch=1 n=f3 v=0
373829 On ch=1 n=f6 v=0
373919 On ch=1 n=a6 v=100
373924 On ch=1 n=a5 v=100
373924 On ch=1 n=a4 v=83
373929 On ch=1 n=a3 v=86
373959 On ch=1 n=a3 v=0
373969 On ch=1 n=a5 v=0
373974 On ch=1 n=a4 v=0
373984 On ch=1 n=a6 v=0
374069 Par ch=1 c=64 v=104
374074 On ch=1 n=g#6 v=93
374079 On ch=1 n=g#5 v=102
374079 On ch=1 n=g#4 v=91
374089 On ch=1 n=g#3 v=83
374089 Par ch=1 c=64 v=127
374124 On ch=1 n=g#4 v=0
374129 On ch=1 n=g#3 v=0
374129 On ch=1 n=g#5 v=0
374149 On ch=1 n=g#6 v=0
374199 Par ch=1 c=64 v=88
374214 Par ch=1 c=64 v=56
374224 On ch=1 n=f6 v=99
374224 On ch=1 n=f4 v=82
374229 On ch=1 n=f5 v=93
374234 On ch=1 n=f3 v=76
374234 Par ch=1 c=64 v=24
374249 Par ch=1 c=64 v=0
374254 On ch=1 n=f4 v=0
374259 On ch=1 n=f3 v=0
374269 On ch=1 n=f5 v=0
374269 On ch=1 n=f6 v=0
374374 On ch=1 n=e5 v=96
374374 On ch=1 n=e6 v=102
374374 On ch=1 n=e4 v=87
374379 On ch=1 n=e3 v=83
374414 On ch=1 n=e3 v=0
374414 On ch=1 n=e5 v=0
374434 On ch=1 n=e4 v=0
374439 On ch=1 n=e6 v=0
374519 On ch=1 n=g#5 v=90
374519 On ch=1 n=g#6 v=86
374529 On ch=1 n=g#4 v=83
374529 On ch=1 n=g#3 v=74
374564 On ch=1 n=g#4 v=0
374569 On ch=1 n=g#3 v=0
374569 On ch=1 n=g#5 v=0
374584 On ch=1 n=g#6 v=0
374674 On ch=1 n=f6 v=102
374679 On ch=1 n=f5 v=103
374684 On ch=1 n=f4 v=85
374689 On ch=1 n=f3 v=71
374724 On ch=1 n=f3 v=0
374729 On ch=1 n=f5 v=0
374734 On ch=1 n=f4 v=0
374734 On ch=1 n=f6 v=0
374824 On ch=1 n=e6 v=102
374824 On ch=1 n=e3 v=82
374829 On ch=1 n=e5 v=83
374829 On ch=1 n=e4 v=81
374884 On ch=1 n=e4 v=0
374884 On ch=1 n=e5 v=0
374884 On ch=1 n=e3 v=0
374884 On ch=1 n=e6 v=0
374974 On ch=1 n=d6 v=97
374974 On ch=1 n=d5 v=96
374984 On ch=1 n=d4 v=85
374994 On ch=1 n=d3 v=80
375019 On ch=1 n=d3 v=0
375019 On ch=1 n=d5 v=0
375039 On ch=1 n=d4 v=0
375039 On ch=1 n=d6 v=0
375119 On ch=1 n=f5 v=99
375119 On ch=1 n=f6 v=103
375129 On ch=1 n=f4 v=81
375134 On ch=1 n=f3 v=67
375169 On ch=1 n=f3 v=0
375169 On ch=1 n=f4 v=0
375169 On ch=1 n=f5 v=0
375174 On ch=1 n=f6 v=0
375274 On ch=1 n=d4 v=94
375279 On ch=1 n=d6 v=95
375279 On ch=1 n=d5 v=88
375289 On ch=1 n=d3 v=72
375319 On ch=1 n=d3 v=0
375324 On ch=1 n=d4 v=0
375334 On ch=1 n=d5 v=0
375334 On ch=1 n=d6 v=0
375419 On ch=1 n=c#5 v=97
375419 On ch=1 n=c#6 v=92
375419 On ch=1 n=c#4 v=102
375429 On ch=1 n=c#3 v=90
375464 On ch=1 n=c#3 v=0
375464 On ch=1 n=c#4 v=0
375469 On ch=1 n=c#5 v=0
375484 On ch=1 n=c#6 v=0
375594 On ch=1 n=a#4 v=110
375594 On ch=1 n=a#3 v=110
375594 On ch=1 n=a#5 v=92
375594 On ch=1 n=a#2 v=97
375624 Par ch=1 c=64 v=104
375634 On ch=1 n=a#2 v=0
375634 On ch=1 n=a#3 v=0
375639 Par ch=1 c=64 v=127
375649 On ch=1 n=a#4 v=0
375694 On ch=1 n=a#5 v=0
375909 Par ch=1 c=64 v=104
375924 On ch=1 n=a4 v=79
375929 On ch=1 n=a3 v=80
375929 On ch=1 n=a6 v=95
375929 Par ch=1 c=64 v=72
375934 On ch=1 n=a5 v=84
375939 Par ch=1 c=64 v=40
375954 Par ch=1 c=64 v=24
375974 Par ch=1 c=64 v=0
375984 On ch=1 n=a6 v=0
375984 On ch=1 n=a3 v=0
375984 On ch=1 n=a4 v=0
375989 On ch=1 n=a5 v=0
376074 On ch=1 n=g#6 v=87
376074 On ch=1 n=g#4 v=79
376079 On ch=1 n=g#5 v=88
376084 On ch=1 n=g#3 v=72
376114 On ch=1 n=g#3 v=0
376124 On ch=1 n=g#4 v=0
376129 On ch=1 n=g#5 v=0
376144 On ch=1 n=g#6 v=0
376224 On ch=1 n=f6 v=97
376224 On ch=1 n=f5 v=89
376234 On ch=1 n=f4 v=78
376239 On ch=1 n=f3 v=74
376264 On ch=1 n=f3 v=0
376264 On ch=1 n=f4 v=0
376269 On ch=1 n=f5 v=0
376269 On ch=1 n=f6 v=0
376374 On ch=1 n=a6 v=100
376379 On ch=1 n=a5 v=96
376379 On ch=1 n=a4 v=82
376389 On ch=1 n=a3 v=78
376419 On ch=1 n=a3 v=0
376429 On ch=1 n=a4 v=0
376429 On ch=1 n=a5 v=0
376434 On ch=1 n=a6 v=0
376499 Par ch=1 c=64 v=72
376519 On ch=1 n=g#6 v=90
376519 Par ch=1 c=64 v=127
376524 On ch=1 n=g#4 v=87
376524 On ch=1 n=g#5 v=93
376534 On ch=1 n=g#3 v=71
376564 On ch=1 n=g#3 v=0
376574 On ch=1 n=g#5 v=0
376574 On ch=1 n=g#4 v=0
376594 On ch=1 n=g#6 v=0
376674 On ch=1 n=f6 v=99
376674 On ch=1 n=f4 v=80
376674 On ch=1 n=f5 v=93
376679 On ch=1 n=f3 v=63
376699 On ch=1 n=f4 v=0
376709 On ch=1 n=f3 v=0
376709 Par ch=1 c=64 v=104
376714 On ch=1 n=f6 v=0
376724 On ch=1 n=f5 v=0
376774 Par ch=1 c=64 v=127
376819 On ch=1 n=e6 v=97
376819 On ch=1 n=e5 v=89
376829 On ch=1 n=e4 v=79
376834 On ch=1 n=e3 v=74
376854 On ch=1 n=e4 v=0
376854 Par ch=1 c=64 v=104
376859 On ch=1 n=e3 v=0
376864 On ch=1 n=e5 v=0
376864 On ch=1 n=e6 v=0
376864 Par ch=1 c=64 v=72
376884 Par ch=1 c=64 v=56
376974 On ch=1 n=g#6 v=91
376974 On ch=1 n=g#4 v=85
376974 On ch=1 n=g#5 v=89
376974 On ch=1 n=g#3 v=76
376974 Par ch=1 c=64 v=104
377004 On ch=1 n=g#3 v=0
377009 On ch=1 n=g#4 v=0
377014 On ch=1 n=g#5 v=0
377014 On ch=1 n=g#6 v=0
377059 Par ch=1 c=64 v=88
377074 Par ch=1 c=64 v=72
377089 Par ch=1 c=64 v=56
377119 On ch=1 n=f5 v=99
377119 On ch=1 n=f6 v=102
377119 On ch=1 n=f4 v=83
377129 On ch=1 n=f3 v=54
377144 On ch=1 n=f4 v=0
377154 On ch=1 n=f3 v=0
377159 On ch=1 n=f6 v=0
377164 On ch=1 n=f5 v=0
377214 Par ch=1 c=64 v=40
377259 On ch=1 n=e6 v=103
377259 On ch=1 n=e5 v=96
377264 Par ch=1 c=64 v=24
377269 On ch=1 n=e4 v=78
377274 On ch=1 n=e3 v=69
377279 Par ch=1 c=64 v=0
377294 On ch=1 n=e4 v=0
377299 On ch=1 n=e6 v=0
377304 On ch=1 n=e3 v=0
377304 On ch=1 n=e5 v=0
377404 On ch=1 n=d5 v=90
377404 On ch=1 n=d6 v=99
377414 On ch=1 n=d4 v=83
377419 On ch=1 n=d3 v=81
377444 On ch=1 n=d3 v=0
377449 On ch=1 n=d4 v=0
377449 On ch=1 n=d6 v=0
377459 On ch=1 n=d5 v=0
377554 On ch=1 n=f6 v=99
377554 On ch=1 n=f5 v=93
377564 On ch=1 n=f4 v=80
377569 On ch=1 n=f3 v=80
377594 On ch=1 n=f3 v=0
377594 On ch=1 n=f4 v=0
377594 On ch=1 n=f6 v=0
377604 On ch=1 n=f5 v=0
377714 On ch=1 n=d6 v=99
377714 On ch=1 n=d4 v=90
377714 On ch=1 n=d5 v=92
377734 On ch=1 n=d3 v=78
377759 On ch=1 n=d6 v=0
377769 On ch=1 n=d5 v=0
377769 On ch=1 n=d4 v=0
377784 On ch=1 n=d3 v=0
377859 On ch=1 n=c#6 v=95
377864 On ch=1 n=c#4 v=84
377864 On ch=1 n=c#5 v=83
377879 On ch=1 n=c#3 v=54
377909 On ch=1 n=c#3 v=0
377909 On ch=1 n=c#5 v=0
377909 On ch=1 n=c#4 v=0
377929 On ch=1 n=c#6 v=0
378014 On ch=1 n=a#5 v=95
378019 On ch=1 n=a#4 v=99
378019 On ch=1 n=a#3 v=99
378024 On ch=1 n=a#2 v=91
378029 Par ch=1 c=64 v=72
378044 Par ch=1 c=64 v=127
378064 On ch=1 n=a#2 v=0
378069 On ch=1 n=a#3 v=0
378079 On ch=1 n=a#4 v=0
378099 On ch=1 n=a#5 v=0
378224 Par ch=1 c=64 v=104
378239 Par ch=1 c=64 v=72
378254 Par ch=1 c=64 v=24
378269 Par ch=1 c=64 v=0
378334 Par ch=1 c=64 v=24
378344 On ch=1 n=a4 v=82
378344 On ch=1 n=a5 v=92
378344 On ch=1 n=a3 v=84
378344 On ch=1 n=a2 v=72
378349 Par ch=1 c=64 v=72
378364 Par ch=1 c=64 v=127
378389 On ch=1 n=a3 v=0
378389 On ch=1 n=a5 v=0
378394 On ch=1 n=a4 v=0
378399 On ch=1 n=a2 v=0
378494 On ch=1 n=a#5 v=85
378494 On ch=1 n=a#4 v=80
378494 On ch=1 n=a#3 v=82
378494 On ch=1 n=a#2 v=82
378514 Par ch=1 c=64 v=104
378529 Par ch=1 c=64 v=72
378534 On ch=1 n=a#4 v=0
378544 On ch=1 n=a#2 v=0
378544 On ch=1 n=a#3 v=0
378544 On ch=1 n=a#5 v=0
378544 Par ch=1 c=64 v=56
378559 Par ch=1 c=64 v=40
378639 Par ch=1 c=64 v=56
378649 On ch=1 n=c#5 v=87
378649 On ch=1 n=c#6 v=86
378649 On ch=1 n=c#4 v=85
378649 On ch=1 n=c#3 v=71
378684 On ch=1 n=c#3 v=0
378694 On ch=1 n=c#4 v=0
378704 On ch=1 n=c#5 v=0
378729 On ch=1 n=c#6 v=0
378799 On ch=1 n=d6 v=94
378799 On ch=1 n=d5 v=85
378799 On ch=1 n=d4 v=82
378799 On ch=1 n=d3 v=79
378814 Par ch=1 c=64 v=40
378829 On ch=1 n=d3 v=0
378829 On ch=1 n=d4 v=0
378834 Par ch=1 c=64 v=0
378849 On ch=1 n=d5 v=0
378849 On ch=1 n=d6 v=0
378944 On ch=1 n=e5 v=89
378944 On ch=1 n=e6 v=94
378949 On ch=1 n=e4 v=80
378954 On ch=1 n=e3 v=69
378989 On ch=1 n=e3 v=0
378989 On ch=1 n=e4 v=0
378994 On ch=1 n=e5 v=0
379004 On ch=1 n=e6 v=0
379094 On ch=1 n=f6 v=94
379099 On ch=1 n=f4 v=84
379099 On ch=1 n=f5 v=89
379104 On ch=1 n=f3 v=78
379134 On ch=1 n=f3 v=0
379149 On ch=1 n=f4 v=0
379154 On ch=1 n=f5 v=0
379159 On ch=1 n=f6 v=0
379184 Par ch=1 c=64 v=24
379199 Par ch=1 c=64 v=56
379214 Par ch=1 c=64 v=104
379229 Par ch=1 c=64 v=127
379239 On ch=1 n=g#5 v=84
379244 On ch=1 n=g#4 v=77
379244 On ch=1 n=g#6 v=91
379244 On ch=1 n=g#3 v=84
379274 On ch=1 n=g#3 v=0
379289 On ch=1 n=g#4 v=0
379294 On ch=1 n=g#5 v=0
379314 On ch=1 n=g#6 v=0
379394 On ch=1 n=a5 v=92
379394 On ch=1 n=a6 v=96
379399 On ch=1 n=a4 v=75
379399 On ch=1 n=a3 v=80
379429 On ch=1 n=a3 v=0
379429 On ch=1 n=a4 v=0
379439 On ch=1 n=a6 v=0
379439 On ch=1 n=a5 v=0
379454 Par ch=1 c=64 v=104
379469 Par ch=1 c=64 v=72
379484 Par ch=1 c=64 v=24
379499 Par ch=1 c=64 v=0
379539 On ch=1 n=a#6 v=89
379539 On ch=1 n=a#5 v=88
379539 On ch=1 n=a#3 v=79
379544 On ch=1 n=a#4 v=67
379549 Par ch=1 c=64 v=24
379569 Par ch=1 c=64 v=56
379574 On ch=1 n=a#4 v=0
379584 Par ch=1 c=64 v=127
379589 On ch=1 n=a#3 v=0
379594 On ch=1 n=a#5 v=0
379599 On ch=1 n=a#6 v=0
379684 On ch=1 n=c#7 v=86
379689 On ch=1 n=c#6 v=91
379689 On ch=1 n=c#5 v=80
379699 On ch=1 n=c#4 v=70
379719 On ch=1 n=c#5 v=0
379729 On ch=1 n=c#4 v=0
379749 On ch=1 n=c#6 v=0
379764 On ch=1 n=c#7 v=0
379774 Par ch=1 c=64 v=72
379789 Par ch=1 c=64 v=24
379804 Par ch=1 c=64 v=0
379834 On ch=1 n=d5 v=84
379834 On ch=1 n=d7 v=100
379834 On ch=1 n=d6 v=100
379844 On ch=1 n=d4 v=82
379854 Par ch=1 c=64 v=24
379869 Par ch=1 c=64 v=88
379874 On ch=1 n=d4 v=0
379884 On ch=1 n=d6 v=0
379889 On ch=1 n=d5 v=0
379889 Par ch=1 c=64 v=127
379899 On ch=1 n=d7 v=0
379984 On ch=1 n=e5 v=87
379984 On ch=1 n=e7 v=99
379984 On ch=1 n=e6 v=99
379989 On ch=1 n=e4 v=81
380019 On ch=1 n=e4 v=0
380034 On ch=1 n=e6 v=0
380034 On ch=1 n=e5 v=0
380044 On ch=1 n=e7 v=0
380079 Par ch=1 c=64 v=104
380094 Par ch=1 c=64 v=24
380109 Par ch=1 c=64 v=0
380134 On ch=1 n=f7 v=100
380134 On ch=1 n=f6 v=107
380139 On ch=1 n=f5 v=81
380154 On ch=1 n=f4 v=76
380174 Par ch=1 c=64 v=72
380189 On ch=1 n=f5 v=0
380189 On ch=1 n=f6 v=0
380189 Par ch=1 c=64 v=127
380194 On ch=1 n=f7 v=0
380204 On ch=1 n=f4 v=0
380279 On ch=1 n=g#7 v=90
380284 On ch=1 n=g#6 v=92
380284 On ch=1 n=g#5 v=85
380294 On ch=1 n=g#4 v=69
380319 On ch=1 n=g#4 v=0
380319 On ch=1 n=g#5 v=0
380334 On ch=1 n=g#6 v=0
380354 On ch=1 n=g#7 v=0
380434 On ch=1 n=a7 v=105
380434 On ch=1 n=a5 v=83
380434 On ch=1 n=a6 v=90
380439 On ch=1 n=a4 v=77
380459 On ch=1 n=a5 v=0
380469 On ch=1 n=a4 v=0
380479 On ch=1 n=a7 v=0
380484 On ch=1 n=a6 v=0
380494 Par ch=1 c=64 v=88
380509 Par ch=1 c=64 v=40
380524 Par ch=1 c=64 v=0
380569 On ch=1 n=a#7 v=95
380569 On ch=1 n=a#5 v=91
380569 Par ch=1 c=64 v=72
380574 On ch=1 n=a#6 v=95
380579 On ch=1 n=a#4 v=69
380589 Par ch=1 c=64 v=127
380604 On ch=1 n=a#4 v=0
380609 On ch=1 n=a#5 v=0
380624 On ch=1 n=a#6 v=0
380629 On ch=1 n=a#7 v=0
380654 Par ch=1 c=64 v=104
380669 Par ch=1 c=64 v=40
380684 Par ch=1 c=64 v=0
380724 On ch=1 n=c#8 v=105
380729 On ch=1 n=c#7 v=103
380734 On ch=1 n=c#6 v=88
380734 Par ch=1 c=64 v=72
380739 On ch=1 n=c#5 v=75
380744 Par ch=1 c=64 v=127
380764 On ch=1 n=c#6 v=0
380769 On ch=1 n=c#5 v=0
380779 On ch=1 n=c#7 v=0
380794 On ch=1 n=c#8 v=0
380874 On ch=1 n=a#7 v=85
380884 On ch=1 n=a#5 v=88
380884 On ch=1 n=a#6 v=93
380884 On ch=1 n=a#4 v=79
380909 On ch=1 n=a#4 v=0
380914 On ch=1 n=a#5 v=0
380929 On ch=1 n=a#6 v=0
380944 On ch=1 n=a#7 v=0
381024 On ch=1 n=a7 v=99
381029 On ch=1 n=a5 v=83
381034 On ch=1 n=a6 v=88
381039 On ch=1 n=a4 v=65
381054 Par ch=1 c=64 v=72
381069 On ch=1 n=a4 v=0
381069 On ch=1 n=a5 v=0
381069 Par ch=1 c=64 v=24
381074 On ch=1 n=a6 v=0
381074 On ch=1 n=a7 v=0
381079 Par ch=1 c=64 v=0
381149 Par ch=1 c=64 v=40
381164 Par ch=1 c=64 v=104
381169 On ch=1 n=g#7 v=89
381169 On ch=1 n=g#6 v=91
381174 On ch=1 n=g#5 v=77
381179 Par ch=1 c=64 v=127
381184 On ch=1 n=g#4 v=70
381209 On ch=1 n=g#4 v=0
381214 On ch=1 n=g#5 v=0
381214 On ch=1 n=g#6 v=0
381229 On ch=1 n=g#7 v=0
381314 On ch=1 n=f7 v=94
381314 On ch=1 n=f5 v=82
381319 On ch=1 n=f6 v=97
381324 On ch=1 n=f4 v=81
381349 On ch=1 n=f4 v=0
381349 On ch=1 n=f5 v=0
381364 On ch=1 n=f6 v=0
381374 On ch=1 n=f7 v=0
381454 On ch=1 n=e7 v=94
381459 On ch=1 n=e5 v=86
381459 On ch=1 n=e6 v=93
381469 On ch=1 n=e4 v=74
381494 On ch=1 n=e4 v=0
381494 On ch=1 n=e5 v=0
381514 On ch=1 n=e6 v=0
381519 On ch=1 n=e7 v=0
381604 On ch=1 n=d5 v=86
381614 On ch=1 n=d6 v=82
381614 On ch=1 n=d4 v=83
381614 On ch=1 n=d7 v=88
381654 On ch=1 n=d4 v=0
381659 On ch=1 n=d5 v=0
381659 Par ch=1 c=64 v=56
381664 On ch=1 n=d6 v=0
381679 On ch=1 n=d7 v=0
381679 Par ch=1 c=64 v=24
381694 Par ch=1 c=64 v=0
381739 Par ch=1 c=64 v=56
381749 On ch=1 n=c#7 v=85
381754 On ch=1 n=c#5 v=77
381754 On ch=1 n=c#6 v=86
381754 Par ch=1 c=64 v=104
381764 On ch=1 n=c#4 v=67
381774 Par ch=1 c=64 v=127
381784 On ch=1 n=c#5 v=0
381789 On ch=1 n=c#4 v=0
381799 On ch=1 n=c#6 v=0
381814 On ch=1 n=c#7 v=0
381899 On ch=1 n=a#4 v=85
381899 On ch=1 n=a#6 v=85
381904 On ch=1 n=a#3 v=78
381904 On ch=1 n=a#5 v=89
381929 On ch=1 n=a#3 v=0
381929 Par ch=1 c=64 v=104
381944 On ch=1 n=a#4 v=0
381944 Par ch=1 c=64 v=56
381954 On ch=1 n=a#5 v=0
381964 Par ch=1 c=64 v=40
381969 On ch=1 n=a#6 v=0
382014 Par ch=1 c=64 v=88
382029 Par ch=1 c=64 v=127
382039 On ch=1 n=a6 v=92
382039 On ch=1 n=a4 v=85
382044 On ch=1 n=a5 v=88
382049 On ch=1 n=a3 v=84
382074 On ch=1 n=a3 v=0
382094 On ch=1 n=a4 v=0
382099 On ch=1 n=a5 v=0
382104 On ch=1 n=a6 v=0
382184 On ch=1 n=g#6 v=84
382189 On ch=1 n=g#5 v=83
382189 On ch=1 n=g#4 v=77
382199 On ch=1 n=g#3 v=65
382229 On ch=1 n=g#3 v=0
382234 On ch=1 n=g#5 v=0
382239 On ch=1 n=g#4 v=0
382249 On ch=1 n=g#6 v=0
382324 On ch=1 n=f6 v=96
382324 On ch=1 n=f5 v=92
382334 On ch=1 n=f4 v=76
382344 On ch=1 n=f3 v=65
382359 On ch=1 n=f4 v=0
382369 On ch=1 n=f3 v=0
382379 On ch=1 n=f5 v=0
382389 On ch=1 n=f6 v=0
382474 On ch=1 n=e6 v=99
382479 On ch=1 n=e5 v=93
382484 On ch=1 n=e4 v=83
382489 On ch=1 n=e3 v=76
382489 Par ch=1 c=64 v=104
382504 Par ch=1 c=64 v=72
382514 On ch=1 n=e3 v=0
382524 On ch=1 n=e4 v=0
382524 Par ch=1 c=64 v=24
382529 On ch=1 n=e5 v=0
382529 On ch=1 n=e6 v=0
382539 Par ch=1 c=64 v=0
382604 Par ch=1 c=64 v=24
382619 Par ch=1 c=64 v=72
382629 On ch=1 n=d6 v=92
382629 On ch=1 n=d4 v=86
382629 On ch=1 n=d5 v=84
382634 Par ch=1 c=64 v=127
382639 On ch=1 n=d3 v=74
382669 On ch=1 n=d3 v=0
382674 On ch=1 n=d4 v=0
382674 On ch=1 n=d6 v=0
382679 On ch=1 n=d5 v=0
382774 On ch=1 n=c#6 v=92
382774 On ch=1 n=c#5 v=77
382779 On ch=1 n=c#4 v=73
382804 On ch=1 n=c#4 v=0
382809 On ch=1 n=c#5 v=0
382829 On ch=1 n=c#6 v=0
382909 On ch=1 n=a#3 v=76
382914 On ch=1 n=a#5 v=89
382919 On ch=1 n=a#4 v=71
382929 On ch=1 n=a#2 v=50
382959 On ch=1 n=a#2 v=0
382959 On ch=1 n=a#3 v=0
382964 On ch=1 n=a#4 v=0
382969 Par ch=1 c=64 v=72
382979 On ch=1 n=a#5 v=0
382984 Par ch=1 c=64 v=0
383064 On ch=1 n=a3 v=90
383064 Par ch=1 c=64 v=56
383069 On ch=1 n=a4 v=75
383074 On ch=1 n=a5 v=91
383074 On ch=1 n=a2 v=75
383084 Par ch=1 c=64 v=104
383099 On ch=1 n=a2 v=0
383099 Par ch=1 c=64 v=127
383104 On ch=1 n=a4 v=0
383114 On ch=1 n=a3 v=0
383119 On ch=1 n=a5 v=0
383214 On ch=1 n=a#4 v=75
383219 On ch=1 n=a#3 v=83
383219 On ch=1 n=a#5 v=86
383224 On ch=1 n=a#2 v=67
383244 On ch=1 n=a#3 v=0
383249 On ch=1 n=a#2 v=0
383264 On ch=1 n=a#5 v=0
383269 On ch=1 n=a#4 v=0
383354 On ch=1 n=c#4 v=83
383359 On ch=1 n=c#6 v=84
383359 On ch=1 n=c#5 v=78
383364 On ch=1 n=c#3 v=69
383384 On ch=1 n=c#4 v=0
383389 On ch=1 n=c#3 v=0
383409 On ch=1 n=c#5 v=0
383434 On ch=1 n=c#6 v=0
383449 Par ch=1 c=64 v=88
383469 Par ch=1 c=64 v=40
383484 Par ch=1 c=64 v=0
383499 On ch=1 n=d4 v=87
383499 On ch=1 n=d5 v=90
383499 On ch=1 n=d6 v=96
383504 On ch=1 n=d3 v=81
383529 On ch=1 n=d3 v=0
383529 On ch=1 n=d4 v=0
383529 Par ch=1 c=64 v=56
383544 Par ch=1 c=64 v=88
383554 On ch=1 n=d6 v=0
383554 On ch=1 n=d5 v=0
383564 Par ch=1 c=64 v=127
383644 On ch=1 n=e5 v=89
383644 On ch=1 n=e6 v=100
383649 On ch=1 n=e4 v=84
383649 On ch=1 n=e3 v=78
383674 On ch=1 n=e3 v=0
383684 On ch=1 n=e4 v=0
383689 On ch=1 n=e6 v=0
383689 On ch=1 n=e5 v=0
383734 Par ch=1 c=64 v=104
383789 On ch=1 n=f5 v=88
383789 On ch=1 n=f6 v=99
383794 On ch=1 n=f4 v=82
383794 On ch=1 n=f3 v=82
383799 Par ch=1 c=64 v=127
383819 Par ch=1 c=64 v=104
383824 On ch=1 n=f3 v=0
383829 On ch=1 n=f4 v=0
383834 On ch=1 n=f6 v=0
383834 Par ch=1 c=64 v=72
383839 On ch=1 n=f5 v=0
383849 Par ch=1 c=64 v=40
383864 Par ch=1 c=64 v=24
383899 Par ch=1 c=64 v=56
383914 Par ch=1 c=64 v=104
383919 On ch=1 n=g#5 v=86
383924 On ch=1 n=g#6 v=96
383929 On ch=1 n=g#4 v=79
383929 Par ch=1 c=64 v=127
383934 On ch=1 n=g#3 v=80
383959 On ch=1 n=g#4 v=0
383964 On ch=1 n=g#3 v=0
383974 On ch=1 n=g#5 v=0
383984 On ch=1 n=g#6 v=0
384069 On ch=1 n=a6 v=99
384074 On ch=1 n=a5 v=92
384074 On ch=1 n=a4 v=77
384084 On ch=1 n=a3 v=70
384089 Par ch=1 c=64 v=104
384104 Par ch=1 c=64 v=72
384109 On ch=1 n=a3 v=0
384109 On ch=1 n=a4 v=0
384119 On ch=1 n=a5 v=0
384119 On ch=1 n=a6 v=0
384124 Par ch=1 c=64 v=56
384169 Par ch=1 c=64 v=104
384184 Par ch=1 c=64 v=127
384204 On ch=1 n=a#4 v=85
384214 On ch=1 n=a#6 v=96
384214 On ch=1 n=a#5 v=89
384214 On ch=1 n=a#3 v=77
384239 On ch=1 n=a#3 v=0
384254 On ch=1 n=a#4 v=0
384264 On ch=1 n=a#5 v=0
384274 On ch=1 n=a#6 v=0
384354 On ch=1 n=c#7 v=95
384354 On ch=1 n=c#6 v=93
384359 On ch=1 n=c#5 v=79
384364 On ch=1 n=c#4 v=73
384384 On ch=1 n=c#5 v=0
384394 On ch=1 n=c#4 v=0
384404 On ch=1 n=c#6 v=0
384409 Par ch=1 c=64 v=104
384424 On ch=1 n=c#7 v=0
384424 Par ch=1 c=64 v=56
384439 Par ch=1 c=64 v=24
384489 Par ch=1 c=64 v=72
384494 On ch=1 n=d5 v=86
384494 On ch=1 n=d7 v=97
384499 On ch=1 n=d6 v=90
384499 On ch=1 n=d4 v=81
384504 Par ch=1 c=64 v=127
384529 On ch=1 n=d4 v=0
384534 On ch=1 n=d5 v=0
384539 On ch=1 n=d7 v=0
384549 On ch=1 n=d6 v=0
384634 On ch=1 n=e7 v=99
384634 On ch=1 n=e6 v=96
384634 On ch=1 n=e5 v=85
384644 On ch=1 n=e4 v=67
384674 On ch=1 n=e4 v=0
384679 On ch=1 n=e5 v=0
384684 On ch=1 n=e6 v=0
384684 On ch=1 n=e7 v=0
384694 Par ch=1 c=64 v=88
384714 Par ch=1 c=64 v=56
384759 Par ch=1 c=64 v=88
384774 On ch=1 n=f5 v=85
384774 Par ch=1 c=64 v=127
384779 On ch=1 n=f7 v=96
384779 On ch=1 n=f6 v=99
384784 On ch=1 n=f4 v=82
384809 On ch=1 n=f4 v=0
384824 On ch=1 n=f7 v=0
384824 On ch=1 n=f5 v=0
384829 On ch=1 n=f6 v=0
384914 On ch=1 n=g#7 v=96
384914 On ch=1 n=g#6 v=92
384914 On ch=1 n=g#5 v=81
384919 On ch=1 n=g#4 v=73
384944 On ch=1 n=g#5 v=0
384949 On ch=1 n=g#4 v=0
384964 On ch=1 n=g#6 v=0
384979 On ch=1 n=g#7 v=0
385059 On ch=1 n=a7 v=100
385059 On ch=1 n=a5 v=84
385059 On ch=1 n=a6 v=88
385064 On ch=1 n=a4 v=78
385089 On ch=1 n=a5 v=0
385094 On ch=1 n=a4 v=0
385104 On ch=1 n=a7 v=0
385109 Par ch=1 c=64 v=104
385114 On ch=1 n=a6 v=0
385129 Par ch=1 c=64 v=72
385144 Par ch=1 c=64 v=40
385159 Par ch=1 c=64 v=0
385189 On ch=1 n=a#7 v=101
385189 On ch=1 n=a#5 v=86
385189 On ch=1 n=a#6 v=88
385199 On ch=1 n=a#4 v=61
385219 On ch=1 n=a#5 v=0
385229 On ch=1 n=a#4 v=0
385239 On ch=1 n=a#6 v=0
385244 On ch=1 n=a#7 v=0
385344 On ch=1 n=c#8 v=102
385349 On ch=1 n=c#7 v=105
385354 On ch=1 n=c#6 v=96
385354 On ch=1 n=c#5 v=92
385354 Par ch=1 c=64 v=88
385369 Par ch=1 c=64 v=127
385394 On ch=1 n=c#5 v=0
385399 On ch=1 n=c#6 v=0
385409 On ch=1 n=c#7 v=0
385434 On ch=1 n=c#8 v=0
385719 Par ch=1 c=64 v=88
385734 Par ch=1 c=64 v=56
385749 Par ch=1 c=64 v=0
385969 On ch=1 n=d8 v=109
385969 On ch=1 n=d7 v=103
385969 On ch=1 n=a#7 v=87
385979 On ch=1 n=f7 v=93
385979 On ch=1 n=d5 v=100
385979 On ch=1 n=a#4 v=85
385984 On ch=1 n=d4 v=86
385984 On ch=1 n=f4 v=84
386009 Par ch=1 c=64 v=127
386029 On ch=1 n=d4 v=0
386044 On ch=1 n=f4 v=0
386044 On ch=1 n=d5 v=0
386049 On ch=1 n=a#4 v=0
386064 On ch=1 n=f7 v=0
386064 On ch=1 n=d7 v=0
386084 On ch=1 n=d8 v=0
386094 On ch=1 n=a#7 v=0
386344 Par ch=1 c=64 v=104
386359 Par ch=1 c=64 v=72
386374 Par ch=1 c=64 v=40
386389 Par ch=1 c=64 v=24
386409 Par ch=1 c=64 v=0
386619 On ch=1 n=e8 v=107
386624 On ch=1 n=e7 v=99
386624 On ch=1 n=c#8 v=92
386629 On ch=1 n=e4 v=96
386629 On ch=1 n=a7 v=102
386629 On ch=1 n=a4 v=96
386629 On ch=1 n=a3 v=96
386634 On ch=1 n=c#4 v=88
386644 Par ch=1 c=64 v=40
386659 Par ch=1 c=64 v=127
386674 On ch=1 n=a3 v=0
386694 On ch=1 n=c#4 v=0
386694 On ch=1 n=a4 v=0
386699 On ch=1 n=e4 v=0
386704 On ch=1 n=e7 v=0
386709 On ch=1 n=a7 v=0
386734 On ch=1 n=c#8 v=0
386734 On ch=1 n=e8 v=0
386964 Par ch=1 c=64 v=104
386979 Par ch=1 c=64 v=88
386994 Par ch=1 c=64 v=56
387014 Par ch=1 c=64 v=40
387029 Par ch=1 c=64 v=24
387059 Par ch=1 c=64 v=0
387279 On ch=1 n=f8 v=102
387284 On ch=1 n=f7 v=103
387284 On ch=1 n=a#7 v=88
387289 On ch=1 n=a#3 v=85
387289 On ch=1 n=d8 v=102
387289 On ch=1 n=d4 v=97
387289 On ch=1 n=d3 v=90
387294 On ch=1 n=f3 v=86
387314 Par ch=1 c=64 v=24
387334 Par ch=1 c=64 v=104
387344 On ch=1 n=d3 v=0
387349 On ch=1 n=f3 v=0
387349 Par ch=1 c=64 v=127
387354 On ch=1 n=a#3 v=0
387359 On ch=1 n=d4 v=0
387359 On ch=1 n=f7 v=0
387359 On ch=1 n=f8 v=0
387369 On ch=1 n=d8 v=0
387379 On ch=1 n=a#7 v=0
387699 Par ch=1 c=64 v=104
387714 Par ch=1 c=64 v=72
387734 Par ch=1 c=64 v=24
387749 Par ch=1 c=64 v=0
387909 Par ch=1 c=64 v=127
387934 On ch=1 n=e3 v=87
387939 On ch=1 n=a2 v=88
387949 On ch=1 n=e4 v=105
387954 On ch=1 n=a4 v=87
387959 On ch=1 n=c#5 v=78
387999 On ch=1 n=a2 v=0
388009 On ch=1 n=a3 v=70
388019 On ch=1 n=e3 v=0
388039 On ch=1 n=a4 v=0
388039 On ch=1 n=e4 v=0
388069 On ch=1 n=a3 v=0
388069 On ch=1 n=e5 v=81
388114 On ch=1 n=c#5 v=0
388124 On ch=1 n=e3 v=30
388134 On ch=1 n=e4 v=67
388139 On ch=1 n=e5 v=0
388144 On ch=1 n=a4 v=32
388149 On ch=1 n=a2 v=27
388174 On ch=1 n=a3 v=70
388179 On ch=1 n=a2 v=0
388184 On ch=1 n=e3 v=0
388214 On ch=1 n=e4 v=0
388224 On ch=1 n=c#5 v=37
388229 On ch=1 n=a3 v=0
388229 On ch=1 n=e5 v=34
388259 On ch=1 n=e3 v=53
388269 On ch=1 n=e5 v=0
388274 On ch=1 n=a2 v=49
388284 On ch=1 n=e4 v=70
388289 On ch=1 n=c#5 v=0
388304 On ch=1 n=a2 v=0
388314 On ch=1 n=a3 v=73
388324 On ch=1 n=e3 v=0
388369 On ch=1 n=e4 v=0
388369 On ch=1 n=c#5 v=37
388374 On ch=1 n=a3 v=0
388374 On ch=1 n=e5 v=76
388394 On ch=1 n=a4 v=0
388414 On ch=1 n=e3 v=59
388429 On ch=1 n=a2 v=43
388434 On ch=1 n=c#5 v=0
388439 On ch=1 n=e5 v=0
388444 On ch=1 n=e4 v=69
388459 On ch=1 n=a2 v=0
388464 On ch=1 n=e3 v=0
388469 On ch=1 n=a3 v=78
388514 On ch=1 n=c#5 v=55
388519 On ch=1 n=e4 v=0
388524 On ch=1 n=a3 v=0
388529 On ch=1 n=e5 v=71
388564 On ch=1 n=e3 v=74
388564 On ch=1 n=a2 v=72
388579 On ch=1 n=e5 v=0
388579 On ch=1 n=c#5 v=0
388589 On ch=1 n=e4 v=81
388594 On ch=1 n=a2 v=0
388624 On ch=1 n=a3 v=85
388629 On ch=1 n=e3 v=0
388664 On ch=1 n=e4 v=0
388674 On ch=1 n=e5 v=82
388674 On ch=1 n=c#5 v=55
388679 On ch=1 n=a3 v=0
388709 On ch=1 n=e3 v=77
388724 On ch=1 n=c#5 v=0
388729 On ch=1 n=a2 v=55
388749 On ch=1 n=e5 v=0
388754 On ch=1 n=e4 v=70
388759 On ch=1 n=a2 v=0
388774 On ch=1 n=e3 v=0
388789 On ch=1 n=a3 v=76
388829 On ch=1 n=a3 v=0
388829 On ch=1 n=e4 v=0
388829 On ch=1 n=e5 v=77
388834 On ch=1 n=c#5 v=48
388864 On ch=1 n=e3 v=74
388874 On ch=1 n=a2 v=65
388889 On ch=1 n=c#5 v=0
388909 On ch=1 n=a2 v=0
388909 On ch=1 n=e5 v=0
388914 On ch=1 n=e3 v=0
388914 On ch=1 n=e4 v=70
388944 On ch=1 n=a3 v=85
388999 On ch=1 n=e4 v=0
388999 On ch=1 n=c#5 v=62
389004 On ch=1 n=a3 v=0
389009 On ch=1 n=a4 v=25
389014 On ch=1 n=e5 v=82
389024 On ch=1 n=e3 v=74
389044 On ch=1 n=a4 v=0
389089 On ch=1 n=c#5 v=0
389094 On ch=1 n=e3 v=0
389099 On ch=1 n=e5 v=0
389124 On ch=1 n=e4 v=38
389129 On ch=1 n=a3 v=59
389159 On ch=1 n=a3 v=0
389159 On ch=1 n=e4 v=0
389164 On ch=1 n=e3 v=44
389219 Par ch=1 c=64 v=72
389229 On ch=1 n=e4 v=97
389229 On ch=1 n=a2 v=84
389234 On ch=1 n=c#5 v=100
389234 On ch=1 n=a4 v=97
389234 Par ch=1 c=64 v=0
389254 On ch=1 n=a3 v=102
389284 On ch=1 n=a2 v=0
389284 Par ch=1 c=64 v=72
389294 On ch=1 n=e4 v=0
389299 On ch=1 n=a4 v=0
389299 Par ch=1 c=64 v=127
389304 On ch=1 n=e3 v=0
389314 On ch=1 n=a3 v=0
389339 On ch=1 n=c#5 v=0
389714 Par ch=1 c=64 v=104
389729 Par ch=1 c=64 v=40
389744 Par ch=1 c=64 v=0
389879 On ch=1 n=a5 v=103
389879 On ch=1 n=c#5 v=71
389884 On ch=1 n=a6 v=97
389884 On ch=1 n=e6 v=96
389884 On ch=1 n=c#6 v=86
389884 On ch=1 n=e5 v=79
389884 On ch=1 n=e4 v=74
389889 On ch=1 n=a4 v=64
389914 On ch=1 n=e6 v=0
389919 On ch=1 n=a4 v=0
389929 On ch=1 n=c#6 v=0
389929 On ch=1 n=a6 v=0
389929 On ch=1 n=c#5 v=0
389929 On ch=1 n=a5 v=0
389939 On ch=1 n=e4 v=0
389939 Par ch=1 c=64 v=127
389944 On ch=1 n=e5 v=0
389979 On ch=1 n=a5 v=105
389979 On ch=1 n=a6 v=94
389979 On ch=1 n=c#6 v=85
389989 On ch=1 n=e6 v=99
389989 On ch=1 n=c#5 v=74
389994 On ch=1 n=e5 v=96
389994 On ch=1 n=e4 v=84
389999 On ch=1 n=a4 v=76
390034 On ch=1 n=e4 v=0
390034 On ch=1 n=c#6 v=0
390039 On ch=1 n=e5 v=0
390039 On ch=1 n=a5 v=0
390044 On ch=1 n=e6 v=0
390049 On ch=1 n=a4 v=0
390049 On ch=1 n=c#5 v=0
390084 On ch=1 n=a6 v=0
390479 Par ch=1 c=64 v=56
390494 Par ch=1 c=64 v=0
390674 On ch=1 n=a7 v=112
390674 On ch=1 n=a6 v=102
390674 On ch=1 n=e7 v=99
390674 On ch=1 n=c#7 v=86
390679 On ch=1 n=a3 v=93
390679 On ch=1 n=e3 v=81
390679 On ch=1 n=c#3 v=70
390679 On ch=1 n=a2 v=84
390689 Par ch=1 c=64 v=127
390739 On ch=1 n=a2 v=0
390739 On ch=1 n=c#3 v=0
390739 On ch=1 n=e3 v=0
390739 On ch=1 n=a3 v=0
390744 On ch=1 n=c#7 v=0
390749 On ch=1 n=e7 v=0
390754 On ch=1 n=a6 v=0
390754 On ch=1 n=a7 v=0
390809 On ch=1 n=a7 v=99
390809 On ch=1 n=a6 v=103
390814 On ch=1 n=c#7 v=83
390814 On ch=1 n=e7 v=92
390824 On ch=1 n=a3 v=97
390824 On ch=1 n=e3 v=81
390829 On ch=1 n=c#3 v=81
390834 On ch=1 n=a2 v=89
390864 On ch=1 n=a2 v=0
390874 On ch=1 n=c#3 v=0
390874 On ch=1 n=a3 v=0
390879 On ch=1 n=e3 v=0
390894 On ch=1 n=e7 v=0
390894 On ch=1 n=a6 v=0
390899 On ch=1 n=c#7 v=0
390899 On ch=1 n=a7 v=0
391579 Par ch=1 c=64 v=40
391599 Par ch=1 c=64 v=0
391675 Par ch=1 c=121 v=0
391675 Meta TrkEnd
TrkEnd
MTrk
0 SeqSpec 43 00 01 00
0 Meta TrkName "Rakoczy March: Liszt"
0 Meta 0x21 00
0 Meta TrkEnd
TrkEnd
