MFile 1 2 120
MTrk
0 TimeSig 4/4 24 8
0 Tempo 952380
0 KeySig 0 major
0 Meta TrkEnd
TrkEnd
MTrk
0 PrCh ch=1 p=0
50 Par ch=1 c=1 v=15
51 On ch=1 n=f2 v=127
66 On ch=1 n=a#2 v=127
72 On ch=1 n=f2 v=0
77 On ch=1 n=a#2 v=0
88 On ch=1 n=a#2 v=127
230 On ch=1 n=f3 v=127
230 On ch=1 n=c#4 v=127
232 On ch=1 n=f4 v=127
298 On ch=1 n=a#2 v=0
299 On ch=1 n=a2 v=127
363 On ch=1 n=a2 v=0
364 On ch=1 n=c3 v=127
433 On ch=1 n=f4 v=0
433 On ch=1 n=a#2 v=127
438 On ch=1 n=c3 v=0
467 On ch=1 n=f3 v=0
470 On ch=1 n=c#4 v=0
485 On ch=1 n=a#2 v=0
487 On ch=1 n=c3 v=127
497 On ch=1 n=a#2 v=127
507 On ch=1 n=c3 v=0
561 On ch=1 n=a#2 v=0
564 On ch=1 n=a2 v=127
629 On ch=1 n=a#2 v=127
635 On ch=1 n=a2 v=0
665 On ch=1 n=a#2 v=0
666 On ch=1 n=a2 v=127
696 On ch=1 n=a#2 v=127
702 On ch=1 n=a2 v=0
728 On ch=1 n=a#2 v=0
728 On ch=1 n=c3 v=127
758 On ch=1 n=c#3 v=127
758 On ch=1 n=c#4 v=127
759 On ch=1 n=c3 v=0
760 On ch=1 n=f3 v=127
760 On ch=1 n=f4 v=127
793 On ch=1 n=c#3 v=0
794 On ch=1 n=c3 v=127
828 On ch=1 n=a#2 v=127
830 On ch=1 n=c3 v=0
858 On ch=1 n=a#2 v=0
861 On ch=1 n=a2 v=127
875 On ch=1 n=f4 v=0
890 On ch=1 n=c#4 v=0
895 On ch=1 n=f3 v=0
895 On ch=1 n=a#2 v=127
896 On ch=1 n=a2 v=0
1020 On ch=1 n=g3 v=127
1020 On ch=1 n=d4 v=127
1021 On ch=1 n=d3 v=127
1021 On ch=1 n=b3 v=127
1021 On ch=1 n=g4 v=127
1022 On ch=1 n=f4 v=127
1074 On ch=1 n=a#2 v=0
1171 On ch=1 n=d#3 v=127
1175 On ch=1 n=d3 v=0
1184 On ch=1 n=g4 v=0
1187 On ch=1 n=b3 v=0
1187 On ch=1 n=d4 v=0
1189 On ch=1 n=g3 v=0
1190 On ch=1 n=f4 v=0
1299 On ch=1 n=d#4 v=127
1299 On ch=1 n=g4 v=127
1301 On ch=1 n=g3 v=127
1301 On ch=1 n=c4 v=127
1340 On ch=1 n=d#3 v=0
1371 On ch=1 n=e3 v=127
1383 On ch=1 n=e3 v=0
1408 On ch=1 n=g4 v=0
1435 On ch=1 n=g3 v=0
1435 On ch=1 n=d#4 v=0
1437 On ch=1 n=f3 v=127
1438 On ch=1 n=c4 v=0
1446 On ch=1 n=f3 v=0
1498 On ch=1 n=g#3 v=127
1510 On ch=1 n=g#3 v=0
1558 On ch=1 n=g4 v=127
1560 On ch=1 n=d4 v=127
1560 On ch=1 n=b3 v=127
1560 On ch=1 n=g3 v=127
1560 On ch=1 n=f4 v=127
1560 On ch=1 n=d3 v=127
1577 On ch=1 n=d3 v=0
1627 On ch=1 n=f3 v=127
1639 On ch=1 n=f3 v=0
1692 On ch=1 n=f3 v=127
1696 On ch=1 n=g4 v=0
1697 On ch=1 n=b3 v=0
1698 On ch=1 n=f4 v=0
1699 On ch=1 n=g3 v=0
1699 On ch=1 n=d4 v=0
1754 On ch=1 n=d#3 v=127
1756 On ch=1 n=f3 v=0
1767 On ch=1 n=d#3 v=0
1819 On ch=1 n=d#4 v=127
1819 On ch=1 n=g3 v=127
1819 On ch=1 n=g4 v=127
1819 On ch=1 n=c4 v=127
1820 On ch=1 n=d#3 v=127
1913 On ch=1 n=g4 v=0
1913 On ch=1 n=d3 v=127
1915 On ch=1 n=d#3 v=0
1915 On ch=1 n=g3 v=0
1917 On ch=1 n=c4 v=0
1918 On ch=1 n=d#4 v=0
1944 On ch=1 n=g3 v=127
1944 On ch=1 n=g4 v=127
1945 On ch=1 n=c4 v=127
1945 On ch=1 n=d#4 v=127
1945 On ch=1 n=d#3 v=127
1949 On ch=1 n=d3 v=0
2079 On ch=1 n=g4 v=0
2082 On ch=1 n=d#3 v=0
2082 On ch=1 n=e3 v=127
2084 On ch=1 n=d#4 v=0
2084 On ch=1 n=c4 v=0
2084 On ch=1 n=g3 v=0
2207 On ch=1 n=f3 v=127
2210 On ch=1 n=e3 v=0
2337 On ch=1 n=c#5 v=127
2337 On ch=1 n=c#4 v=127
2340 On ch=1 n=f4 v=127
2340 On ch=1 n=a#4 v=127
2406 On ch=1 n=e3 v=127
2414 On ch=1 n=f3 v=0
2472 On ch=1 n=e3 v=0
2474 On ch=1 n=f3 v=127
2537 On ch=1 n=f3 v=0
2537 On ch=1 n=g3 v=127
2604 On ch=1 n=g#3 v=127
2607 On ch=1 n=g3 v=0
2616 On ch=1 n=c#5 v=0
2617 On ch=1 n=a#4 v=0
2617 On ch=1 n=f4 v=0
2617 On ch=1 n=c#4 v=0
2694 On ch=1 n=g#3 v=0
2696 On ch=1 n=g3 v=127
2743 On ch=1 n=f3 v=127
2749 On ch=1 n=g3 v=0
2788 On ch=1 n=e3 v=127
2792 On ch=1 n=f3 v=0
2830 On ch=1 n=f3 v=127
2833 On ch=1 n=e3 v=0
2874 On ch=1 n=f#3 v=127
2877 On ch=1 n=f3 v=0
2920 On ch=1 n=f3 v=127
2922 On ch=1 n=f#3 v=0
2961 On ch=1 n=d#3 v=127
2964 On ch=1 n=f3 v=0
3004 On ch=1 n=c#3 v=127
3013 On ch=1 n=d#3 v=0
3052 On ch=1 n=c3 v=127
3060 On ch=1 n=c#3 v=0
3095 On ch=1 n=c#3 v=127
3102 On ch=1 n=c3 v=0
3138 On ch=1 n=d#3 v=127
3142 On ch=1 n=c#3 v=0
3182 On ch=1 n=c#3 v=127
3188 On ch=1 n=d#3 v=0
3227 On ch=1 n=c3 v=127
3229 On ch=1 n=c#3 v=0
3273 On ch=1 n=a#2 v=127
3285 On ch=1 n=c3 v=0
3394 On ch=1 n=a2 v=127
3396 On ch=1 n=a#2 v=0
3410 On ch=1 n=a#2 v=127
3413 On ch=1 n=f4 v=127
3414 On ch=1 n=c#4 v=127
3414 On ch=1 n=f3 v=127
3417 On ch=1 n=a2 v=0
3489 On ch=1 n=f3 v=0
3501 On ch=1 n=c#4 v=0
3503 On ch=1 n=f4 v=0
3565 On ch=1 n=c3 v=127
3567 On ch=1 n=d#4 v=127
3567 On ch=1 n=a3 v=127
3569 On ch=1 n=f4 v=127
3571 On ch=1 n=a#2 v=0
3638 On ch=1 n=d#3 v=127
3641 On ch=1 n=c3 v=0
3650 On ch=1 n=a3 v=0
3652 On ch=1 n=f4 v=0
3656 On ch=1 n=d#4 v=0
3712 On ch=1 n=c4 v=127
3713 On ch=1 n=d#4 v=127
3713 On ch=1 n=f4 v=127
3714 On ch=1 n=a2 v=127
3715 On ch=1 n=d#3 v=0
3781 On ch=1 n=c3 v=127
3783 On ch=1 n=a2 v=0
3801 On ch=1 n=c4 v=0
3805 On ch=1 n=d#4 v=0
3812 On ch=1 n=f4 v=0
3851 On ch=1 n=d4 v=127
3851 On ch=1 n=a#2 v=127
3852 On ch=1 n=f3 v=127
3853 On ch=1 n=f4 v=127
3877 On ch=1 n=c3 v=0
3960 On ch=1 n=f4 v=0
3963 On ch=1 n=f3 v=0
3964 On ch=1 n=e2 v=127
3966 On ch=1 n=d4 v=0
3968 On ch=1 n=a#2 v=0
3988 On ch=1 n=e2 v=0
3988 On ch=1 n=f2 v=127
3989 On ch=1 n=a#3 v=127
3991 On ch=1 n=f4 v=127
3991 On ch=1 n=d4 v=127
4065 On ch=1 n=a#3 v=0
4068 On ch=1 n=d4 v=0
4068 On ch=1 n=a3 v=127
4070 On ch=1 n=b3 v=127
4080 On ch=1 n=b3 v=0
4142 On ch=1 n=a#2 v=127
4143 On ch=1 n=a#3 v=127
4147 On ch=1 n=f2 v=0
4150 On ch=1 n=f4 v=0
4151 On ch=1 n=a3 v=0
4294 On ch=1 n=a#3 v=0
4298 On ch=1 n=a#2 v=0
4391 On ch=1 n=a#4 v=127
4391 On ch=1 n=a#5 v=127
4397 On ch=1 n=a#5 v=0
4397 On ch=1 n=a#4 v=0
4407 On ch=1 n=a#4 v=127
4408 On ch=1 n=a#5 v=127
4408 On ch=1 n=a#2 v=127
4410 Par ch=1 c=64 v=127
4410 On ch=1 n=a#3 v=127
4446 On ch=1 n=a#2 v=0
4453 On ch=1 n=a#3 v=0
4553 On ch=1 n=c#4 v=127
4553 On ch=1 n=c#5 v=127
4554 On ch=1 n=f4 v=127
4562 On ch=1 n=a#5 v=0
4562 On ch=1 n=a#4 v=0
4624 On ch=1 n=a4 v=127
4625 On ch=1 n=a5 v=127
4653 On ch=1 n=a4 v=0
4657 On ch=1 n=a5 v=0
4689 On ch=1 n=c6 v=127
4690 On ch=1 n=c5 v=127
4717 On ch=1 n=c6 v=0
4720 On ch=1 n=c5 v=0
4739 On ch=1 n=c#5 v=0
4761 On ch=1 n=a#4 v=127
4762 On ch=1 n=a#5 v=127
4776 On ch=1 n=a#4 v=0
4777 On ch=1 n=a#5 v=0
4811 On ch=1 n=c6 v=127
4825 On ch=1 n=a#4 v=127
4826 On ch=1 n=a#5 v=127
4834 On ch=1 n=c6 v=0
4853 On ch=1 n=a#5 v=0
4856 On ch=1 n=a#4 v=0
4895 On ch=1 n=a4 v=127
4895 On ch=1 n=a5 v=127
4900 On ch=1 n=f4 v=0
4907 On ch=1 n=c#4 v=0
4919 On ch=1 n=a4 v=0
4920 On ch=1 n=a5 v=0
4965 On ch=1 n=a#2 v=127
4965 On ch=1 n=a#3 v=127
4965 On ch=1 n=a#4 v=127
4966 On ch=1 n=a#5 v=127
4982 On ch=1 n=a#5 v=0
4982 On ch=1 n=a#4 v=0
5001 On ch=1 n=a5 v=127
5001 On ch=1 n=a4 v=127
5008 On ch=1 n=a4 v=0
5009 On ch=1 n=a5 v=0
5035 On ch=1 n=a#4 v=127
5036 On ch=1 n=a#5 v=127
5043 On ch=1 n=a#4 v=0
5043 On ch=1 n=a#2 v=0
5046 On ch=1 n=a#5 v=0
5049 On ch=1 n=a#3 v=0
5068 On ch=1 n=c5 v=127
5068 On ch=1 n=c6 v=127
5076 On ch=1 n=c5 v=0
5079 On ch=1 n=c6 v=0
5102 On ch=1 n=c#5 v=127
5104 On ch=1 n=f4 v=127
5106 On ch=1 n=c#6 v=127
5106 On ch=1 n=c#4 v=127
5116 On ch=1 n=c#6 v=0
5139 On ch=1 n=c6 v=127
5139 On ch=1 n=c5 v=127
5148 On ch=1 n=c5 v=0
5148 On ch=1 n=c6 v=0
5162 On ch=1 n=c#5 v=0
5170 On ch=1 n=a#5 v=127
5172 On ch=1 n=a#4 v=127
5181 On ch=1 n=a#4 v=0
5183 On ch=1 n=a#5 v=0
5205 On ch=1 n=a4 v=127
5205 On ch=1 n=a5 v=127
5211 On ch=1 n=a5 v=0
5212 On ch=1 n=a4 v=0
5240 On ch=1 n=a#4 v=127
5240 On ch=1 n=a#5 v=127
5247 Par ch=1 c=64 v=0
5270 On ch=1 n=a#5 v=0
5357 On ch=1 n=c#4 v=0
5363 On ch=1 n=f4 v=0
5369 On ch=1 n=a#4 v=0
5369 On ch=1 n=g#5 v=127
5370 On ch=1 n=a#3 v=127
5370 On ch=1 n=g#4 v=127
5372 Par ch=1 c=64 v=127
5372 On ch=1 n=d6 v=127
5372 On ch=1 n=a#4 v=127
5373 On ch=1 n=d5 v=127
5373 On ch=1 n=f4 v=127
5374 On ch=1 n=f5 v=127
5376 On ch=1 n=a#5 v=127
5378 On ch=1 n=a#5 v=0
5414 On ch=1 n=a#3 v=0
5415 On ch=1 n=a#4 v=0
5416 On ch=1 n=g#4 v=0
5417 On ch=1 n=f4 v=0
5422 On ch=1 n=f5 v=0
5422 On ch=1 n=d6 v=0
5423 On ch=1 n=d5 v=0
5423 On ch=1 n=g#5 v=0
5513 On ch=1 n=d#6 v=127
5515 On ch=1 n=d#5 v=127
5515 On ch=1 n=d#4 v=127
5515 On ch=1 n=d#3 v=127
5534 On ch=1 n=d#5 v=0
5535 On ch=1 n=d#6 v=0
5540 On ch=1 n=d#3 v=0
5540 On ch=1 n=d#4 v=0
5654 On ch=1 n=g5 v=127
5655 On ch=1 n=a#4 v=127
5655 On ch=1 n=g4 v=127
5709 On ch=1 n=g5 v=0
5716 On ch=1 n=a#4 v=0
5720 On ch=1 n=g4 v=0
5750 On ch=1 n=e5 v=127
5750 On ch=1 n=e6 v=127
5757 On ch=1 n=e5 v=0
5759 On ch=1 n=e6 v=0
5784 On ch=1 n=f5 v=127
5785 On ch=1 n=f6 v=127
5786 On ch=1 n=a#3 v=127
5786 On ch=1 n=a#2 v=127
5791 On ch=1 n=f5 v=0
5795 On ch=1 n=f6 v=0
5857 On ch=1 n=g#5 v=127
5857 On ch=1 n=g#6 v=127
5865 On ch=1 n=g#6 v=0
5865 On ch=1 n=g#5 v=0
5873 On ch=1 n=a#3 v=0
5874 On ch=1 n=a#2 v=0
5918 On ch=1 n=d5 v=127
5918 On ch=1 n=f4 v=127
5919 On ch=1 n=g#4 v=127
5920 On ch=1 n=d6 v=127
5949 On ch=1 n=f4 v=0
5952 On ch=1 n=d5 v=0
5958 On ch=1 n=g#4 v=0
5987 On ch=1 n=d6 v=0
5988 On ch=1 n=f6 v=127
5988 On ch=1 n=f5 v=127
5998 On ch=1 n=f5 v=0
6003 On ch=1 n=f6 v=0
6054 On ch=1 n=d#4 v=127
6054 On ch=1 n=d#3 v=127
6055 On ch=1 n=f6 v=127
6055 On ch=1 n=f5 v=127
6065 On ch=1 n=f5 v=0
6069 On ch=1 n=f6 v=0
6123 On ch=1 n=d#6 v=127
6123 On ch=1 n=d#5 v=127
6132 On ch=1 n=d#5 v=0
6136 On ch=1 n=d#6 v=0
6136 On ch=1 n=d#3 v=0
6141 On ch=1 n=d#4 v=0
6171 On ch=1 n=f6 v=127
6188 On ch=1 n=f6 v=0
6191 On ch=1 n=d#6 v=127
6192 On ch=1 n=a#4 v=127
6192 On ch=1 n=g4 v=127
6194 On ch=1 n=d#5 v=127
6206 On ch=1 n=g4 v=0
6207 On ch=1 n=a#4 v=0
6221 On ch=1 n=d#5 v=0
6221 On ch=1 n=d#6 v=0
6285 On ch=1 n=d6 v=127
6285 On ch=1 n=d5 v=127
6297 On ch=1 n=d5 v=0
6299 On ch=1 n=d6 v=0
6320 On ch=1 n=g4 v=127
6320 On ch=1 n=d#5 v=127
6321 On ch=1 n=d#6 v=127
6321 On ch=1 n=a#4 v=127
6328 On ch=1 n=g4 v=0
6329 On ch=1 n=a#4 v=0
6334 On ch=1 n=d#5 v=0
6335 On ch=1 n=d#6 v=0
6449 On ch=1 n=e6 v=127
6450 On ch=1 n=e5 v=127
6454 Par ch=1 c=64 v=0
6534 On ch=1 n=e5 v=0
6535 On ch=1 n=e6 v=0
6552 On ch=1 n=f5 v=127
6559 On ch=1 n=a#5 v=127
6564 On ch=1 n=c#6 v=127
6568 Par ch=1 c=64 v=127
6571 On ch=1 n=a#2 v=127
6571 On ch=1 n=f6 v=127
6572 On ch=1 n=a#3 v=127
6583 On ch=1 n=a#2 v=0
6589 On ch=1 n=a#3 v=0
6633 On ch=1 n=f5 v=0
6649 On ch=1 n=c#6 v=0
6649 On ch=1 n=a#5 v=0
6703 On ch=1 n=f4 v=127
6703 On ch=1 n=f5 v=127
6704 On ch=1 n=c#5 v=127
6704 On ch=1 n=a#4 v=127
6712 On ch=1 n=f4 v=0
6715 On ch=1 n=a#4 v=0
6715 On ch=1 n=c#5 v=0
6716 On ch=1 n=f5 v=0
6733 On ch=1 n=e6 v=127
6750 On ch=1 n=f6 v=0
6765 On ch=1 n=f6 v=127
6772 On ch=1 n=e6 v=0
6792 On ch=1 n=g6 v=127
6797 On ch=1 n=f6 v=0
6825 On ch=1 n=g#6 v=127
6826 On ch=1 n=c#5 v=127
6827 On ch=1 n=f5 v=127
6827 On ch=1 n=f4 v=127
6828 On ch=1 n=a#4 v=127
6839 On ch=1 n=g6 v=0
6953 On ch=1 n=f4 v=0
6957 On ch=1 n=a#4 v=0
6958 On ch=1 n=f5 v=0
6958 On ch=1 n=c#5 v=0
7010 On ch=1 n=g6 v=127
7019 On ch=1 n=g#6 v=0
7072 On ch=1 n=f6 v=127
7077 On ch=1 n=g6 v=0
7085 Par ch=1 c=64 v=0
7116 On ch=1 n=e6 v=127
7125 On ch=1 n=f6 v=0
7155 On ch=1 n=f6 v=127
7161 On ch=1 n=e6 v=0
7195 On ch=1 n=f#6 v=127
7199 On ch=1 n=f6 v=0
7199 Par ch=1 c=64 v=127
7235 On ch=1 n=f6 v=127
7243 On ch=1 n=f#6 v=0
7273 On ch=1 n=d#6 v=127
7278 On ch=1 n=f6 v=0
7314 On ch=1 n=c#6 v=127
7319 On ch=1 n=d#6 v=0
7356 On ch=1 n=c6 v=127
7363 On ch=1 n=c#6 v=0
7396 On ch=1 n=c#6 v=127
7404 On ch=1 n=c6 v=0
7440 On ch=1 n=d#6 v=127
7446 On ch=1 n=c#6 v=0
7485 On ch=1 n=c#6 v=127
7492 On ch=1 n=d#6 v=0
7523 On ch=1 n=c6 v=127
7527 On ch=1 n=c#6 v=0
7554 On ch=1 n=a#5 v=127
7560 On ch=1 n=a#5 v=0
7562 On ch=1 n=c6 v=0
7562 On ch=1 n=c6 v=127
7567 On ch=1 n=f3 v=127
7570 On ch=1 n=a#5 v=127
7578 On ch=1 n=c6 v=0
7595 On ch=1 n=f3 v=0
7665 On ch=1 n=a#5 v=0
7666 On ch=1 n=a5 v=127
7705 On ch=1 n=c#5 v=127
7706 On ch=1 n=a#5 v=127
7706 On ch=1 n=f5 v=127
7706 On ch=1 n=f4 v=127
7710 On ch=1 n=a5 v=0
7716 On ch=1 n=c#5 v=0
7720 On ch=1 n=f4 v=0
7834 Par ch=1 c=64 v=0
7840 On ch=1 n=f3 v=127
7845 On ch=1 n=c6 v=127
7855 On ch=1 n=a#5 v=0
7860 On ch=1 n=f5 v=0
7865 Par ch=1 c=64 v=127
7901 On ch=1 n=f3 v=0
7909 On ch=1 n=d#6 v=127
7913 On ch=1 n=c6 v=0
7973 On ch=1 n=f5 v=127
7974 On ch=1 n=d#5 v=127
7974 On ch=1 n=a5 v=127
7978 On ch=1 n=f4 v=127
7980 On ch=1 n=d#6 v=0
8045 On ch=1 n=c6 v=127
8048 On ch=1 n=a5 v=0
8055 On ch=1 n=f5 v=0
8120 On ch=1 n=f4 v=0
8121 On ch=1 n=a#5 v=127
8122 On ch=1 n=d5 v=127
8125 On ch=1 n=c6 v=0
8126 On ch=1 n=d#5 v=0
8128 Par ch=1 c=64 v=0
8151 On ch=1 n=a#5 v=0
8152 On ch=1 n=d5 v=0
8217 Par ch=1 c=64 v=127
8218 On ch=1 n=e3 v=127
8218 On ch=1 n=e4 v=127
8235 On ch=1 n=e3 v=0
8238 On ch=1 n=e4 v=0
8258 On ch=1 n=a#5 v=127
8260 On ch=1 n=f4 v=127
8260 On ch=1 n=a#4 v=127
8260 On ch=1 n=d5 v=127
8261 On ch=1 n=f3 v=127
8268 Par ch=1 c=64 v=0
8291 Par ch=1 c=64 v=127
8299 On ch=1 n=d5 v=0
8311 On ch=1 n=a#5 v=0
8327 On ch=1 n=f4 v=0
8330 On ch=1 n=f3 v=0
8360 On ch=1 n=a#4 v=0
8362 On ch=1 n=a5 v=127
8410 On ch=1 n=a5 v=0
8413 On ch=1 n=a#5 v=127
8413 On ch=1 n=d5 v=127
8413 On ch=1 n=a#2 v=127
8414 On ch=1 n=a#3 v=127
8418 Par ch=1 c=64 v=0
8418 On ch=1 n=a#4 v=127
8623 On ch=1 n=d5 v=0
8625 On ch=1 n=a#4 v=0
8627 On ch=1 n=a#3 v=0
8628 On ch=1 n=a#2 v=0
8632 On ch=1 n=a#5 v=0
8775 On ch=1 n=g6 v=127
8775 On ch=1 n=a#5 v=127
8779 On ch=1 n=g6 v=0
8786 On ch=1 n=a#5 v=0
8786 On ch=1 n=d6 v=127
8797 On ch=1 n=d6 v=0
8798 On ch=1 n=g5 v=127
8798 On ch=1 n=d7 v=127
8802 On ch=1 n=d7 v=0
8806 On ch=1 n=g5 v=0
8809 On ch=1 n=d6 v=127
8818 On ch=1 n=d7 v=127
8819 On ch=1 n=a#5 v=127
8820 On ch=1 n=d6 v=0
8823 On ch=1 n=d7 v=0
8828 On ch=1 n=a#5 v=0
8829 On ch=1 n=d6 v=127
8840 On ch=1 n=d6 v=0
8840 On ch=1 n=c#7 v=127
8840 On ch=1 n=g5 v=127
8845 On ch=1 n=c#7 v=0
8849 On ch=1 n=d6 v=127
8850 On ch=1 n=g5 v=0
8860 On ch=1 n=c#7 v=127
8862 On ch=1 n=d6 v=0
8862 On ch=1 n=a#5 v=127
8866 On ch=1 n=c#7 v=0
8872 On ch=1 n=a#5 v=0
8872 On ch=1 n=d6 v=127
8881 On ch=1 n=d6 v=0
8882 On ch=1 n=g5 v=127
8882 On ch=1 n=a#6 v=127
8887 On ch=1 n=a#6 v=0
8892 On ch=1 n=d6 v=127
8893 On ch=1 n=g5 v=0
8903 On ch=1 n=a#6 v=127
8904 On ch=1 n=d6 v=0
8907 On ch=1 n=a#6 v=0
8925 On ch=1 n=a6 v=127
8930 On ch=1 n=a6 v=0
8945 On ch=1 n=a#5 v=127
8946 On ch=1 n=g6 v=127
8950 On ch=1 n=g6 v=0
8954 On ch=1 n=a#5 v=0
8954 On ch=1 n=d6 v=127
8966 On ch=1 n=d6 v=0
8966 On ch=1 n=g5 v=127
8967 On ch=1 n=d7 v=127
8970 On ch=1 n=d7 v=0
8976 On ch=1 n=g5 v=0
8976 On ch=1 n=d6 v=127
8986 On ch=1 n=d7 v=127
8988 On ch=1 n=d6 v=0
8989 On ch=1 n=a#5 v=127
8992 On ch=1 n=d7 v=0
8997 On ch=1 n=a#5 v=0
8997 On ch=1 n=d6 v=127
9008 On ch=1 n=d6 v=0
9008 On ch=1 n=c#7 v=127
9008 On ch=1 n=g5 v=127
9014 On ch=1 n=c#7 v=0
9017 On ch=1 n=g5 v=0
9018 On ch=1 n=d6 v=127
9028 On ch=1 n=c#7 v=127
9028 On ch=1 n=a#5 v=127
9030 On ch=1 n=d6 v=0
9035 On ch=1 n=c#7 v=0
9038 On ch=1 n=d6 v=127
9040 On ch=1 n=a#5 v=0
9049 On ch=1 n=d6 v=0
9049 On ch=1 n=a#6 v=127
9049 On ch=1 n=g5 v=127
9055 On ch=1 n=a#6 v=0
9059 On ch=1 n=d6 v=127
9061 On ch=1 n=g5 v=0
9069 On ch=1 n=a#6 v=127
9074 On ch=1 n=a#6 v=0
9074 On ch=1 n=d6 v=0
9090 On ch=1 n=a6 v=127
9096 On ch=1 n=a6 v=0
9111 On ch=1 n=a#5 v=127
9113 On ch=1 n=g6 v=127
9117 On ch=1 n=g6 v=0
9121 On ch=1 n=a#5 v=0
9121 On ch=1 n=d6 v=127
9131 On ch=1 n=d7 v=127
9131 On ch=1 n=g5 v=127
9132 On ch=1 n=d6 v=0
9137 On ch=1 n=d7 v=0
9142 On ch=1 n=g5 v=0
9142 On ch=1 n=d6 v=127
9152 On ch=1 n=d7 v=127
9153 On ch=1 n=a#5 v=127
9156 On ch=1 n=d6 v=0
9157 On ch=1 n=d7 v=0
9162 On ch=1 n=d6 v=127
9163 On ch=1 n=a#5 v=0
9173 On ch=1 n=c#7 v=127
9174 On ch=1 n=g5 v=127
9175 On ch=1 n=d6 v=0
9177 On ch=1 n=c#7 v=0
9183 On ch=1 n=g5 v=0
9184 On ch=1 n=d6 v=127
9194 On ch=1 n=a#5 v=127
9195 On ch=1 n=c#7 v=127
9196 On ch=1 n=d6 v=0
9201 On ch=1 n=c#7 v=0
9204 On ch=1 n=a#5 v=0
9204 On ch=1 n=d6 v=127
9214 On ch=1 n=d6 v=0
9215 On ch=1 n=a#6 v=127
9215 On ch=1 n=g5 v=127
9221 On ch=1 n=a#6 v=0
9225 On ch=1 n=d6 v=127
9227 On ch=1 n=g5 v=0
9234 On ch=1 n=a#6 v=127
9236 On ch=1 n=d6 v=0
9243 On ch=1 n=a#6 v=0
9253 On ch=1 n=a6 v=127
9258 On ch=1 n=a6 v=0
9273 On ch=1 n=a6 v=127
9280 On ch=1 n=a6 v=0
9295 On ch=1 n=g6 v=127
9299 On ch=1 n=g6 v=0
9315 On ch=1 n=g6 v=127
9322 On ch=1 n=g6 v=0
9336 On ch=1 n=f#6 v=127
9340 On ch=1 n=f#6 v=0
9354 On ch=1 n=a#5 v=127
9354 On ch=1 n=f#6 v=127
9356 On ch=1 n=g4 v=127
9356 On ch=1 n=c#5 v=127
9377 On ch=1 n=d#6 v=127
9378 On ch=1 n=f#6 v=0
9379 On ch=1 n=a#5 v=0
9381 On ch=1 n=g4 v=0
9382 On ch=1 n=d#6 v=0
9382 On ch=1 n=c#5 v=0
9400 On ch=1 n=d#6 v=127
9405 On ch=1 n=d#6 v=0
9420 On ch=1 n=d6 v=127
9424 On ch=1 n=d6 v=0
9439 On ch=1 n=f#4 v=127
9439 On ch=1 n=a5 v=127
9440 On ch=1 n=d5 v=127
9440 On ch=1 n=d6 v=127
9480 On ch=1 n=f#4 v=0
9483 On ch=1 n=d5 v=0
9493 On ch=1 n=f#6 v=127
9501 On ch=1 n=a6 v=127
9504 On ch=1 n=f#6 v=0
9506 On ch=1 n=d6 v=0
9506 On ch=1 n=a5 v=0
9510 On ch=1 n=a6 v=0
9513 On ch=1 n=a#6 v=127
9522 On ch=1 n=a6 v=127
9524 On ch=1 n=a#6 v=0
9530 On ch=1 n=f#6 v=127
9534 On ch=1 n=a6 v=0
9541 On ch=1 n=d#6 v=127
9543 On ch=1 n=f#6 v=0
9550 On ch=1 n=d6 v=127
9551 On ch=1 n=d#6 v=0
9561 On ch=1 n=d#6 v=127
9563 On ch=1 n=d6 v=0
9570 On ch=1 n=f#6 v=127
9572 On ch=1 n=d#6 v=0
9581 On ch=1 n=a6 v=127
9582 On ch=1 n=f#6 v=0
9588 On ch=1 n=a6 v=0
9589 On ch=1 n=a#6 v=127
9599 On ch=1 n=a#6 v=0
9600 On ch=1 n=c#7 v=127
9609 On ch=1 n=c#7 v=0
9610 On ch=1 n=d7 v=127
9617 On ch=1 n=d#7 v=127
9619 On ch=1 n=d7 v=0
9628 On ch=1 n=d#7 v=0
9628 On ch=1 n=d7 v=127
9638 On ch=1 n=f#7 v=127
9639 On ch=1 n=d7 v=0
9647 On ch=1 n=d7 v=127
9648 On ch=1 n=f#7 v=0
9657 On ch=1 n=d7 v=0
9657 On ch=1 n=a7 v=127
9664 On ch=1 n=d7 v=127
9666 On ch=1 n=a7 v=0
9676 On ch=1 n=a#7 v=127
9677 On ch=1 n=d7 v=0
9686 On ch=1 n=a#7 v=0
9687 On ch=1 n=d7 v=127
9696 On ch=1 n=a7 v=127
9698 On ch=1 n=d7 v=0
9701 On ch=1 n=a7 v=0
9802 On ch=1 n=g6 v=127
9803 On ch=1 n=a#5 v=127
9813 On ch=1 n=a#5 v=0
9814 On ch=1 n=d6 v=127
9823 On ch=1 n=g6 v=0
9823 On ch=1 n=g5 v=127
9824 On ch=1 n=d7 v=127
9826 On ch=1 n=d6 v=0
9829 On ch=1 n=d7 v=0
9832 On ch=1 n=g5 v=0
9833 On ch=1 n=d6 v=127
9843 On ch=1 n=d6 v=0
9843 On ch=1 n=a#5 v=127
9844 On ch=1 n=d7 v=127
9849 On ch=1 n=d7 v=0
9851 On ch=1 n=a#5 v=0
9853 On ch=1 n=d6 v=127
9864 On ch=1 n=d6 v=0
9865 On ch=1 n=g5 v=127
9865 On ch=1 n=c#7 v=127
9868 On ch=1 n=c#7 v=0
9875 On ch=1 n=g5 v=0
9875 On ch=1 n=d6 v=127
9885 On ch=1 n=a#5 v=127
9886 On ch=1 n=c#7 v=127
9887 On ch=1 n=d6 v=0
9891 On ch=1 n=c#7 v=0
9898 On ch=1 n=a#5 v=0
9898 On ch=1 n=d6 v=127
9907 On ch=1 n=g5 v=127
9908 On ch=1 n=d6 v=0
9909 On ch=1 n=a#6 v=127
9913 On ch=1 n=a#6 v=0
9917 On ch=1 n=g5 v=0
9919 On ch=1 n=d6 v=127
9930 On ch=1 n=d6 v=0
9931 On ch=1 n=a#6 v=127
9933 On ch=1 n=a#6 v=0
9952 On ch=1 n=a6 v=127
9956 On ch=1 n=a6 v=0
9973 On ch=1 n=a#5 v=127
9974 On ch=1 n=g6 v=127
9979 On ch=1 n=g6 v=0
9982 On ch=1 n=a#5 v=0
9984 On ch=1 n=d6 v=127
9995 On ch=1 n=d7 v=127
9996 On ch=1 n=d6 v=0
9996 On ch=1 n=g5 v=127
9999 On ch=1 n=d7 v=0
10005 On ch=1 n=g5 v=0
10005 On ch=1 n=d6 v=127
10015 On ch=1 n=d6 v=0
10016 On ch=1 n=a#5 v=127
10016 On ch=1 n=d7 v=127
10020 On ch=1 n=d7 v=0
10023 On ch=1 n=a#5 v=0
10025 On ch=1 n=d6 v=127
10036 On ch=1 n=d6 v=0
10036 On ch=1 n=c#7 v=127
10036 On ch=1 n=g5 v=127
10040 On ch=1 n=c#7 v=0
10044 On ch=1 n=g5 v=0
10046 On ch=1 n=d6 v=127
10056 On ch=1 n=a#5 v=127
10057 On ch=1 n=d6 v=0
10058 On ch=1 n=c#7 v=127
10062 On ch=1 n=c#7 v=0
10065 On ch=1 n=a#5 v=0
10066 On ch=1 n=d6 v=127
10078 On ch=1 n=d6 v=0
10079 On ch=1 n=g5 v=127
10079 On ch=1 n=a#6 v=127
10084 On ch=1 n=a#6 v=0
10088 On ch=1 n=d6 v=127
10089 On ch=1 n=g5 v=0
10098 On ch=1 n=d6 v=0
10100 On ch=1 n=a#6 v=127
10104 On ch=1 n=a#6 v=0
10121 On ch=1 n=a6 v=127
10125 On ch=1 n=a6 v=0
10139 On ch=1 n=a#5 v=127
10142 On ch=1 n=g6 v=127
10147 On ch=1 n=g6 v=0
10151 On ch=1 n=a#5 v=0
10151 On ch=1 n=d6 v=127
10162 On ch=1 n=d6 v=0
10162 On ch=1 n=d7 v=127
10163 On ch=1 n=g5 v=127
10166 On ch=1 n=d7 v=0
10172 On ch=1 n=g5 v=0
10173 On ch=1 n=d6 v=127
10184 On ch=1 n=d7 v=127
10185 On ch=1 n=a#5 v=127
10186 On ch=1 n=d6 v=0
10188 On ch=1 n=d7 v=0
10195 On ch=1 n=a#5 v=0
10195 On ch=1 n=d6 v=127
10206 On ch=1 n=c#7 v=127
10206 On ch=1 n=g5 v=127
10208 On ch=1 n=d6 v=0
10211 On ch=1 n=c#7 v=0
10215 On ch=1 n=g5 v=0
10216 On ch=1 n=d6 v=127
10228 On ch=1 n=d6 v=0
10228 On ch=1 n=c#7 v=127
10229 On ch=1 n=a#5 v=127
10233 On ch=1 n=c#7 v=0
10236 On ch=1 n=a#5 v=0
10237 On ch=1 n=d6 v=127
10247 On ch=1 n=a#6 v=127
10249 On ch=1 n=d6 v=0
10249 On ch=1 n=g5 v=127
10253 On ch=1 n=a#6 v=0
10258 On ch=1 n=d6 v=127
10260 On ch=1 n=g5 v=0
10269 On ch=1 n=d6 v=0
10269 On ch=1 n=a#6 v=127
10274 On ch=1 n=a#6 v=0
10292 On ch=1 n=a6 v=127
10296 On ch=1 n=a6 v=0
10314 On ch=1 n=a6 v=127
10320 On ch=1 n=a6 v=0
10338 On ch=1 n=g6 v=127
10342 On ch=1 n=g6 v=0
10358 On ch=1 n=g6 v=127
10365 On ch=1 n=g6 v=0
10382 On ch=1 n=f#6 v=127
10386 On ch=1 n=f#6 v=0
10404 On ch=1 n=g4 v=127
10404 On ch=1 n=a#5 v=127
10405 On ch=1 n=f#6 v=127
10405 On ch=1 n=c#5 v=127
10407 Par ch=1 c=64 v=127
10412 On ch=1 n=a#5 v=0
10413 On ch=1 n=f#6 v=0
10428 On ch=1 n=d#6 v=127
10433 On ch=1 n=d#6 v=0
10452 On ch=1 n=d#6 v=127
10455 On ch=1 n=d#6 v=0
10455 On ch=1 n=g4 v=0
10459 On ch=1 n=c#5 v=0
10473 On ch=1 n=d6 v=127
10477 On ch=1 n=d6 v=0
10498 On ch=1 n=a5 v=127
10498 On ch=1 n=d5 v=127
10498 On ch=1 n=d6 v=127
10499 Par ch=1 c=64 v=0
10500 On ch=1 n=f#4 v=127
10566 On ch=1 n=a5 v=0
10567 On ch=1 n=f#4 v=0
10567 On ch=1 n=d5 v=0
10568 On ch=1 n=d6 v=0
10643 On ch=1 n=f#5 v=127
10660 On ch=1 n=f#5 v=0
10664 On ch=1 n=a5 v=127
10683 On ch=1 n=a5 v=0
10684 On ch=1 n=a#5 v=127
10699 On ch=1 n=c#6 v=127
10701 On ch=1 n=a#5 v=0
10716 On ch=1 n=c#6 v=0
10717 On ch=1 n=d6 v=127
10736 On ch=1 n=c#6 v=127
10740 On ch=1 n=d6 v=0
10751 On ch=1 n=a#5 v=127
10758 On ch=1 n=c#6 v=0
10766 On ch=1 n=a5 v=127
10769 On ch=1 n=a#5 v=0
10784 On ch=1 n=a5 v=0
10785 On ch=1 n=f#5 v=127
10801 On ch=1 n=d#5 v=127
10806 On ch=1 n=f#5 v=0
10814 On ch=1 n=d5 v=127
10815 On ch=1 n=d#5 v=0
10830 On ch=1 n=d5 v=0
10832 On ch=1 n=c#5 v=127
10846 On ch=1 n=a#4 v=127
10853 On ch=1 n=c#5 v=0
10861 On ch=1 n=a4 v=127
10866 On ch=1 n=a#4 v=0
10883 On ch=1 n=a4 v=0
10883 On ch=1 n=f#4 v=127
10962 On ch=1 n=f#4 v=0
11110 On ch=1 n=f#5 v=127
11139 On ch=1 n=g5 v=127
11141 On ch=1 n=f#5 v=0
11168 On ch=1 n=g5 v=0
11170 On ch=1 n=a5 v=127
11234 On ch=1 n=c5 v=127
11234 On ch=1 n=f#4 v=127
11235 Par ch=1 c=64 v=127
11235 On ch=1 n=d4 v=127
11269 On ch=1 n=c#6 v=127
11299 On ch=1 n=d6 v=127
11303 On ch=1 n=a5 v=0
11305 On ch=1 n=c#6 v=0
11326 On ch=1 n=c#6 v=127
11330 On ch=1 n=d6 v=0
11348 On ch=1 n=d4 v=0
11353 On ch=1 n=f#4 v=0
11357 On ch=1 n=e6 v=127
11358 On ch=1 n=c5 v=0
11360 On ch=1 n=c#6 v=0
11388 On ch=1 n=d6 v=127
11390 On ch=1 n=e6 v=0
11402 On ch=1 n=d6 v=0
11419 On ch=1 n=d6 v=127
11445 On ch=1 n=c#6 v=127
11452 On ch=1 n=d6 v=0
11458 On ch=1 n=c#6 v=0
11473 Par ch=1 c=64 v=0
11475 On ch=1 n=g5 v=127
11477 On ch=1 n=a#4 v=127
11479 On ch=1 n=d5 v=127
11480 On ch=1 n=c#6 v=127
11492 Par ch=1 c=64 v=127
11508 On ch=1 n=a#5 v=127
11516 On ch=1 n=c#6 v=0
11518 On ch=1 n=a#5 v=0
11537 On ch=1 n=a#5 v=127
11564 On ch=1 n=a#5 v=0
11567 On ch=1 n=g5 v=0
11568 On ch=1 n=a5 v=127
11572 On ch=1 n=d5 v=0
11573 On ch=1 n=a5 v=0
11577 On ch=1 n=a#4 v=0
11597 On ch=1 n=a5 v=127
11624 On ch=1 n=a5 v=0
11631 On ch=1 n=g5 v=127
11660 On ch=1 n=g5 v=0
11660 On ch=1 n=f#5 v=127
11669 Par ch=1 c=64 v=0
11689 On ch=1 n=f#5 v=0
11689 On ch=1 n=g5 v=127
11714 Par ch=1 c=64 v=127
11715 On ch=1 n=g5 v=0
11719 On ch=1 n=c5 v=127
11720 On ch=1 n=f#4 v=127
11720 On ch=1 n=d4 v=127
11721 On ch=1 n=a5 v=127
11750 On ch=1 n=c#6 v=127
11764 On ch=1 n=a5 v=0
11781 On ch=1 n=d6 v=127
11787 On ch=1 n=c#6 v=0
11809 On ch=1 n=c#6 v=127
11814 On ch=1 n=d6 v=0
11840 On ch=1 n=e6 v=127
11841 On ch=1 n=c#6 v=0
11844 On ch=1 n=d4 v=0
11848 On ch=1 n=f#4 v=0
11852 On ch=1 n=c5 v=0
11857 On ch=1 n=d6 v=127
11863 On ch=1 n=e6 v=0
11880 On ch=1 n=c#6 v=127
11884 On ch=1 n=d6 v=0
11902 On ch=1 n=e6 v=127
11903 On ch=1 n=c#6 v=0
11922 On ch=1 n=d6 v=127
11926 On ch=1 n=e6 v=0
11941 On ch=1 n=c#6 v=127
11944 On ch=1 n=d6 v=0
11947 Par ch=1 c=64 v=0
11962 On ch=1 n=g5 v=127
11963 On ch=1 n=c#6 v=0
11963 On ch=1 n=a#4 v=127
11965 On ch=1 n=d5 v=127
11965 On ch=1 n=e6 v=127
11972 Par ch=1 c=64 v=127
11982 On ch=1 n=d6 v=127
11989 On ch=1 n=e6 v=0
11999 On ch=1 n=c#6 v=127
12004 On ch=1 n=d6 v=0
12022 On ch=1 n=a#5 v=127
12031 On ch=1 n=c#6 v=0
12038 On ch=1 n=g5 v=0
12040 On ch=1 n=a#5 v=0
12041 On ch=1 n=a5 v=127
12042 On ch=1 n=d5 v=0
12047 On ch=1 n=a#4 v=0
12061 On ch=1 n=g5 v=127
12062 On ch=1 n=a5 v=0
12087 On ch=1 n=g5 v=0
12088 On ch=1 n=f#5 v=127
12113 Par ch=1 c=64 v=0
12115 On ch=1 n=g5 v=127
12118 On ch=1 n=f#5 v=0
12146 On ch=1 n=g5 v=0
12147 On ch=1 n=a5 v=127
12207 Par ch=1 c=64 v=127
12212 On ch=1 n=c5 v=127
12213 On ch=1 n=f#4 v=127
12214 On ch=1 n=d4 v=127
12242 On ch=1 n=c#6 v=127
12257 On ch=1 n=a5 v=0
12271 On ch=1 n=d6 v=127
12277 On ch=1 n=c#6 v=0
12298 On ch=1 n=c#6 v=127
12302 On ch=1 n=d6 v=0
12331 On ch=1 n=e6 v=127
12333 On ch=1 n=c#6 v=0
12337 On ch=1 n=d4 v=0
12341 On ch=1 n=f#4 v=0
12345 On ch=1 n=c5 v=0
12364 On ch=1 n=d6 v=127
12365 On ch=1 n=e6 v=0
12375 On ch=1 n=d6 v=0
12395 On ch=1 n=d6 v=127
12425 On ch=1 n=c#6 v=127
12431 On ch=1 n=d6 v=0
12437 On ch=1 n=c#6 v=0
12453 On ch=1 n=g5 v=127
12455 On ch=1 n=c#6 v=127
12457 On ch=1 n=d5 v=127
12458 On ch=1 n=a#4 v=127
12485 On ch=1 n=a#5 v=127
12488 On ch=1 n=c#6 v=0
12490 On ch=1 n=a#5 v=0
12513 On ch=1 n=a#4 v=0
12513 On ch=1 n=a#5 v=127
12515 On ch=1 n=d5 v=0
12519 On ch=1 n=g5 v=0
12538 On ch=1 n=a#5 v=0
12540 On ch=1 n=a5 v=127
12548 On ch=1 n=a5 v=0
12572 On ch=1 n=a5 v=127
12603 On ch=1 n=g5 v=127
12611 On ch=1 n=a5 v=0
12631 On ch=1 n=g4 v=127
12632 On ch=1 n=a#3 v=127
12632 On ch=1 n=f#5 v=127
12632 On ch=1 n=d5 v=127
12638 On ch=1 n=g5 v=0
12656 On ch=1 n=d5 v=0
12656 On ch=1 n=g4 v=0
12664 On ch=1 n=a#3 v=0
12665 On ch=1 n=g5 v=127
12683 On ch=1 n=f#5 v=0
12690 On ch=1 n=a5 v=127
12719 On ch=1 n=a#5 v=127
12724 On ch=1 n=g5 v=0
12743 On ch=1 n=a5 v=0
12745 On ch=1 n=a#5 v=0
12750 On ch=1 n=d4 v=127
12750 On ch=1 n=a4 v=127
12750 On ch=1 n=f#5 v=127
12750 On ch=1 n=d5 v=127
12756 Par ch=1 c=64 v=0
12791 On ch=1 n=a5 v=127
12796 On ch=1 n=d5 v=0
12796 On ch=1 n=f#5 v=0
12811 On ch=1 n=a4 v=0
12815 On ch=1 n=d4 v=0
12838 On ch=1 n=g5 v=127
12838 On ch=1 n=g4 v=127
12838 On ch=1 n=b4 v=127
12839 Par ch=1 c=64 v=127
12840 On ch=1 n=d5 v=127
12851 On ch=1 n=a5 v=0
12891 On ch=1 n=g4 v=0
12892 On ch=1 n=d5 v=0
12899 On ch=1 n=b4 v=0
12899 On ch=1 n=b5 v=127
12903 On ch=1 n=g5 v=0
12957 On ch=1 n=b5 v=0
12957 On ch=1 n=g5 v=127
12958 On ch=1 n=d#4 v=127
12959 On ch=1 n=b4 v=127
12970 On ch=1 n=d#4 v=0
13020 On ch=1 n=b4 v=0
13021 On ch=1 n=b5 v=127
13026 On ch=1 n=g5 v=0
13090 On ch=1 n=g5 v=127
13092 On ch=1 n=b5 v=0
13092 On ch=1 n=b4 v=127
13094 On ch=1 n=d4 v=127
13096 On ch=1 n=g3 v=127
13106 Par ch=1 c=64 v=0
13383 On ch=1 n=d4 v=0
13384 On ch=1 n=b4 v=0
13386 On ch=1 n=g3 v=0
13388 On ch=1 n=g5 v=0
13539 On ch=1 n=a#5 v=127
13539 On ch=1 n=g6 v=127
13540 On ch=1 n=g7 v=127
13545 On ch=1 n=g7 v=0
13545 On ch=1 n=g6 v=0
13549 On ch=1 n=a#5 v=0
13549 On ch=1 n=d6 v=127
13559 On ch=1 n=d6 v=0
13559 On ch=1 n=g5 v=127
13560 On ch=1 n=d7 v=127
13560 On ch=1 n=d8 v=127
13564 On ch=1 n=d8 v=0
13564 On ch=1 n=d7 v=0
13569 On ch=1 n=g5 v=0
13570 On ch=1 n=d6 v=127
13581 On ch=1 n=a#5 v=127
13581 On ch=1 n=d7 v=127
13582 On ch=1 n=d8 v=127
13583 On ch=1 n=d6 v=0
13586 On ch=1 n=d8 v=0
13586 On ch=1 n=d7 v=0
13591 On ch=1 n=a#5 v=0
13591 On ch=1 n=d6 v=127
13601 On ch=1 n=g5 v=127
13602 On ch=1 n=d6 v=0
13603 On ch=1 n=c#7 v=127
13603 On ch=1 n=c#8 v=127
13605 On ch=1 n=c#7 v=0
13606 On ch=1 n=c#8 v=0
13611 On ch=1 n=g5 v=0
13612 On ch=1 n=d6 v=127
13622 On ch=1 n=c#7 v=127
13622 On ch=1 n=a#5 v=127
13622 On ch=1 n=c#8 v=127
13623 On ch=1 n=d6 v=0
13625 On ch=1 n=c#7 v=0
13628 On ch=1 n=c#8 v=0
13631 On ch=1 n=a#5 v=0
13631 On ch=1 n=d6 v=127
13641 On ch=1 n=d6 v=0
13642 On ch=1 n=g5 v=127
13642 On ch=1 n=a#6 v=127
13642 On ch=1 n=a#7 v=127
13647 On ch=1 n=a#7 v=0
13647 On ch=1 n=a#6 v=0
13652 On ch=1 n=g5 v=0
13652 On ch=1 n=d6 v=127
13661 On ch=1 n=d6 v=0
13662 On ch=1 n=a#6 v=127
13664 On ch=1 n=a#7 v=127
13667 On ch=1 n=a#6 v=0
13668 On ch=1 n=a#7 v=0
13686 On ch=1 n=a7 v=127
13686 On ch=1 n=a6 v=127
13689 On ch=1 n=a6 v=0
13691 On ch=1 n=a7 v=0
13710 On ch=1 n=g6 v=127
13711 On ch=1 n=a#5 v=127
13711 On ch=1 n=g7 v=127
13716 On ch=1 n=g7 v=0
13716 On ch=1 n=g6 v=0
13719 On ch=1 n=a#5 v=0
13720 On ch=1 n=d6 v=127
13731 On ch=1 n=g5 v=127
13732 On ch=1 n=d6 v=0
13733 On ch=1 n=d7 v=127
13733 On ch=1 n=d8 v=127
13736 On ch=1 n=d7 v=0
13737 On ch=1 n=d8 v=0
13744 On ch=1 n=g5 v=0
13745 On ch=1 n=d6 v=127
13755 On ch=1 n=d7 v=127
13756 On ch=1 n=d8 v=127
13756 On ch=1 n=a#5 v=127
13758 On ch=1 n=d6 v=0
13762 On ch=1 n=d8 v=0
13762 On ch=1 n=d7 v=0
13767 On ch=1 n=a#5 v=0
13767 On ch=1 n=d6 v=127
13778 On ch=1 n=d6 v=0
13779 On ch=1 n=g5 v=127
13779 On ch=1 n=c#7 v=127
13779 On ch=1 n=c#8 v=127
13781 On ch=1 n=c#8 v=0
13781 On ch=1 n=c#7 v=0
13789 On ch=1 n=g5 v=0
13789 On ch=1 n=d6 v=127
13800 On ch=1 n=c#8 v=127
13800 On ch=1 n=c#7 v=127
13800 On ch=1 n=a#5 v=127
13806 On ch=1 n=c#7 v=0
13806 On ch=1 n=c#8 v=0
13806 On ch=1 n=d6 v=0
13812 On ch=1 n=a#5 v=0
13812 On ch=1 n=d6 v=127
13821 On ch=1 n=g5 v=127
13823 On ch=1 n=a#7 v=127
13823 On ch=1 n=a#6 v=127
13825 On ch=1 n=d6 v=0
13827 On ch=1 n=a#6 v=0
13827 On ch=1 n=a#7 v=0
13833 On ch=1 n=d6 v=127
13834 On ch=1 n=g5 v=0
13843 On ch=1 n=d6 v=0
13844 On ch=1 n=a#6 v=127
13844 On ch=1 n=a#7 v=127
13850 On ch=1 n=a#7 v=0
13850 On ch=1 n=a#6 v=0
13869 On ch=1 n=a6 v=127
13869 On ch=1 n=a7 v=127
13875 On ch=1 n=a7 v=0
13875 On ch=1 n=a6 v=0
13892 On ch=1 n=a#5 v=127
13892 On ch=1 n=g6 v=127
13893 On ch=1 n=g7 v=127
13898 On ch=1 n=g7 v=0
13898 On ch=1 n=g6 v=0
13901 On ch=1 n=a#5 v=0
13902 On ch=1 n=d6 v=127
13913 On ch=1 n=g5 v=127
13914 On ch=1 n=d6 v=0
13914 On ch=1 n=d7 v=127
13917 On ch=1 n=d8 v=127
13919 On ch=1 n=d8 v=0
13919 On ch=1 n=d7 v=0
13924 On ch=1 n=g5 v=0
13926 On ch=1 n=d6 v=127
13935 On ch=1 n=a#5 v=127
13936 On ch=1 n=d8 v=127
13936 On ch=1 n=d7 v=127
13939 On ch=1 n=d6 v=0
13941 On ch=1 n=d7 v=0
13941 On ch=1 n=d8 v=0
13947 On ch=1 n=a#5 v=0
13947 On ch=1 n=d6 v=127
13957 On ch=1 n=g5 v=127
13958 On ch=1 n=c#8 v=127
13959 On ch=1 n=c#7 v=127
13960 On ch=1 n=c#7 v=0
13960 On ch=1 n=d6 v=0
13962 On ch=1 n=c#8 v=0
13970 On ch=1 n=g5 v=0
13970 On ch=1 n=d6 v=127
13981 On ch=1 n=c#7 v=127
13981 On ch=1 n=c#8 v=127
13982 On ch=1 n=d6 v=0
13982 On ch=1 n=a#5 v=127
13983 On ch=1 n=c#8 v=0
13983 On ch=1 n=c#7 v=0
13990 On ch=1 n=a#5 v=0
13990 On ch=1 n=d6 v=127
14002 On ch=1 n=g5 v=127
14003 On ch=1 n=a#7 v=127
14004 On ch=1 n=d6 v=0
14005 On ch=1 n=a#6 v=127
14007 On ch=1 n=a#6 v=0
14008 On ch=1 n=a#7 v=0
14014 On ch=1 n=d6 v=127
14015 On ch=1 n=g5 v=0
14025 On ch=1 n=d6 v=0
14025 On ch=1 n=a#6 v=127
14026 On ch=1 n=a#7 v=127
14028 On ch=1 n=a#7 v=0
14029 On ch=1 n=a#6 v=0
14047 On ch=1 n=a6 v=127
14048 On ch=1 n=a7 v=127
14051 On ch=1 n=a6 v=0
14053 On ch=1 n=a7 v=0
14071 On ch=1 n=a6 v=127
14072 On ch=1 n=a7 v=127
14077 On ch=1 n=a7 v=0
14077 On ch=1 n=a6 v=0
14093 On ch=1 n=g6 v=127
14094 On ch=1 n=g7 v=127
14098 On ch=1 n=g6 v=0
14100 On ch=1 n=g7 v=0
14118 On ch=1 n=g6 v=127
14118 On ch=1 n=g7 v=127
14120 On ch=1 n=g6 v=0
14122 On ch=1 n=g7 v=0
14139 On ch=1 n=f#7 v=127
14140 On ch=1 n=f#6 v=127
14142 On ch=1 n=f#6 v=0
14144 On ch=1 n=f#7 v=0
14162 On ch=1 n=a#5 v=127
14162 On ch=1 n=c#5 v=127
14164 On ch=1 n=g5 v=127
14165 On ch=1 n=f#6 v=127
14165 On ch=1 n=f#7 v=127
14169 On ch=1 n=f#7 v=0
14169 On ch=1 n=f#6 v=0
14186 On ch=1 n=d#7 v=127
14187 On ch=1 n=d#6 v=127
14191 On ch=1 n=d#6 v=0
14192 On ch=1 n=d#7 v=0
14210 On ch=1 n=d#7 v=127
14210 On ch=1 n=d#6 v=127
14215 On ch=1 n=d#6 v=0
14215 On ch=1 n=d#7 v=0
14233 On ch=1 n=d7 v=127
14233 On ch=1 n=d6 v=127
14238 On ch=1 n=d6 v=0
14239 On ch=1 n=d7 v=0
14242 On ch=1 n=c#5 v=0
14243 On ch=1 n=g5 v=0
14244 On ch=1 n=a#5 v=0
14256 On ch=1 n=f#5 v=127
14256 On ch=1 n=d6 v=127
14256 On ch=1 n=a5 v=127
14322 On ch=1 n=a5 v=0
14322 On ch=1 n=f#5 v=0
14326 On ch=1 n=f#6 v=127
14328 On ch=1 n=d6 v=0
14338 On ch=1 n=a6 v=127
14344 On ch=1 n=f#6 v=0
14350 On ch=1 n=a#6 v=127
14351 On ch=1 n=a6 v=0
14359 On ch=1 n=a6 v=127
14371 On ch=1 n=a#6 v=0
14372 On ch=1 n=f#6 v=127
14379 On ch=1 n=a6 v=0
14383 On ch=1 n=d#6 v=127
14387 On ch=1 n=f#6 v=0
14392 On ch=1 n=d6 v=127
14395 On ch=1 n=d#6 v=0
14405 On ch=1 n=d6 v=0
14405 On ch=1 n=f#6 v=127
14416 On ch=1 n=f#6 v=0
14417 On ch=1 n=a6 v=127
14428 On ch=1 n=a#6 v=127
14431 On ch=1 n=a6 v=0
14438 On ch=1 n=c#7 v=127
14440 On ch=1 n=a#6 v=0
14448 On ch=1 n=c#7 v=0
14450 On ch=1 n=d7 v=127
14460 On ch=1 n=d#7 v=127
14461 On ch=1 n=d7 v=0
14470 On ch=1 n=d7 v=127
14471 On ch=1 n=d#7 v=0
14481 On ch=1 n=f#7 v=127
14482 On ch=1 n=d7 v=0
14491 On ch=1 n=d7 v=127
14493 On ch=1 n=f#7 v=0
14503 On ch=1 n=d7 v=0
14504 On ch=1 n=a7 v=127
14515 On ch=1 n=a7 v=0
14515 On ch=1 n=d7 v=127
14527 On ch=1 n=a#7 v=127
14529 On ch=1 n=d7 v=0
14538 On ch=1 n=d7 v=127
14540 On ch=1 n=a#7 v=0
14551 On ch=1 n=a7 v=127
14559 On ch=1 n=d7 v=0
14569 On ch=1 n=a7 v=0
14699 On ch=1 n=g6 v=127
14699 On ch=1 n=a#5 v=127
14700 On ch=1 n=g7 v=127
14704 On ch=1 n=g7 v=0
14704 On ch=1 n=g6 v=0
14710 On ch=1 n=d6 v=127
14712 On ch=1 n=a#5 v=0
14720 On ch=1 n=g5 v=127
14722 On ch=1 n=d6 v=0
14722 On ch=1 n=d7 v=127
14723 On ch=1 n=d8 v=127
14725 On ch=1 n=d7 v=0
14727 On ch=1 n=d8 v=0
14731 On ch=1 n=g5 v=0
14733 On ch=1 n=d6 v=127
14743 On ch=1 n=d6 v=0
14744 On ch=1 n=d7 v=127
14744 On ch=1 n=d8 v=127
14744 On ch=1 n=a#5 v=127
14745 On ch=1 n=d7 v=0
14746 On ch=1 n=d8 v=0
14752 On ch=1 n=a#5 v=0
14753 On ch=1 n=d6 v=127
14764 On ch=1 n=g5 v=127
14765 On ch=1 n=d6 v=0
14766 On ch=1 n=c#8 v=127
14766 On ch=1 n=c#7 v=127
14768 On ch=1 n=c#7 v=0
14770 On ch=1 n=c#8 v=0
14775 On ch=1 n=g5 v=0
14776 On ch=1 n=d6 v=127
14786 On ch=1 n=c#7 v=127
14787 On ch=1 n=a#5 v=127
14787 On ch=1 n=c#8 v=127
14788 On ch=1 n=d6 v=0
14789 On ch=1 n=c#8 v=0
14789 On ch=1 n=c#7 v=0
14795 On ch=1 n=d6 v=127
14797 On ch=1 n=a#5 v=0
14808 On ch=1 n=g5 v=127
14809 On ch=1 n=d6 v=0
14810 On ch=1 n=a#6 v=127
14810 On ch=1 n=a#7 v=127
14812 On ch=1 n=a#6 v=0
14814 On ch=1 n=a#7 v=0
14818 On ch=1 n=g5 v=0
14819 On ch=1 n=d6 v=127
14829 On ch=1 n=d6 v=0
14831 On ch=1 n=a#6 v=127
14831 On ch=1 n=a#7 v=127
14834 On ch=1 n=a#6 v=0
14836 On ch=1 n=a#7 v=0
14853 On ch=1 n=a6 v=127
14853 On ch=1 n=a7 v=127
14855 On ch=1 n=a6 v=0
14857 On ch=1 n=a7 v=0
14876 On ch=1 n=g6 v=127
14876 On ch=1 n=a#5 v=127
14876 On ch=1 n=g7 v=127
14881 On ch=1 n=g7 v=0
14881 On ch=1 n=g6 v=0
14887 On ch=1 n=a#5 v=0
14887 On ch=1 n=d6 v=127
14897 On ch=1 n=g5 v=127
14897 On ch=1 n=d7 v=127
14898 On ch=1 n=d6 v=0
14899 On ch=1 n=d8 v=127
14901 On ch=1 n=d8 v=0
14901 On ch=1 n=d7 v=0
14909 On ch=1 n=g5 v=0
14910 On ch=1 n=d6 v=127
14919 On ch=1 n=d7 v=127
14919 On ch=1 n=d8 v=127
14919 On ch=1 n=a#5 v=127
14921 On ch=1 n=d6 v=0
14922 On ch=1 n=d8 v=0
14922 On ch=1 n=d7 v=0
14929 On ch=1 n=d6 v=127
14931 On ch=1 n=a#5 v=0
14941 On ch=1 n=d6 v=0
14941 On ch=1 n=g5 v=127
14941 On ch=1 n=c#8 v=127
14942 On ch=1 n=c#7 v=127
14947 On ch=1 n=c#7 v=0
14947 On ch=1 n=c#8 v=0
14949 On ch=1 n=g5 v=0
14953 On ch=1 n=d6 v=127
14961 On ch=1 n=c#7 v=127
14963 On ch=1 n=c#8 v=127
14965 On ch=1 n=a#5 v=127
14967 On ch=1 n=c#8 v=0
14967 On ch=1 n=c#7 v=0
14967 On ch=1 n=d6 v=0
14974 On ch=1 n=a#5 v=0
14974 On ch=1 n=d6 v=127
14985 On ch=1 n=a#6 v=127
14985 On ch=1 n=a#7 v=127
14985 On ch=1 n=g5 v=127
14986 On ch=1 n=d6 v=0
14988 On ch=1 n=a#6 v=0
14990 On ch=1 n=a#7 v=0
14996 On ch=1 n=g5 v=0
14996 On ch=1 n=d6 v=127
15006 On ch=1 n=a#6 v=127
15007 On ch=1 n=a#7 v=127
15008 On ch=1 n=d6 v=0
15010 On ch=1 n=a#6 v=0
15011 On ch=1 n=a#7 v=0
15029 On ch=1 n=a7 v=127
15030 On ch=1 n=a6 v=127
15033 On ch=1 n=a6 v=0
15034 On ch=1 n=a7 v=0
15051 On ch=1 n=g6 v=127
15052 On ch=1 n=g7 v=127
15053 On ch=1 n=a#5 v=127
15055 On ch=1 n=g6 v=0
15058 On ch=1 n=g7 v=0
15061 On ch=1 n=a#5 v=0
15063 On ch=1 n=d6 v=127
15072 On ch=1 n=g5 v=127
15073 On ch=1 n=d6 v=0
15074 On ch=1 n=d8 v=127
15074 On ch=1 n=d7 v=127
15078 On ch=1 n=d7 v=0
15079 On ch=1 n=d8 v=0
15083 On ch=1 n=g5 v=0
15084 On ch=1 n=d6 v=127
15095 On ch=1 n=d8 v=127
15095 On ch=1 n=d7 v=127
15095 On ch=1 n=a#5 v=127
15096 On ch=1 n=d6 v=0
15098 On ch=1 n=d7 v=0
15101 On ch=1 n=d8 v=0
15105 On ch=1 n=a#5 v=0
15105 On ch=1 n=d6 v=127
15116 On ch=1 n=g5 v=127
15117 On ch=1 n=c#8 v=127
15117 On ch=1 n=c#7 v=127
15120 On ch=1 n=d6 v=0
15122 On ch=1 n=c#7 v=0
15123 On ch=1 n=c#8 v=0
15127 On ch=1 n=g5 v=0
15129 On ch=1 n=d6 v=127
15138 On ch=1 n=c#8 v=127
15139 On ch=1 n=c#7 v=127
15139 On ch=1 n=a#5 v=127
15141 On ch=1 n=d6 v=0
15145 On ch=1 n=c#7 v=0
15145 On ch=1 n=c#8 v=0
15149 On ch=1 n=d6 v=127
15150 On ch=1 n=a#5 v=0
15160 On ch=1 n=g5 v=127
15160 On ch=1 n=a#6 v=127
15161 On ch=1 n=a#7 v=127
15162 On ch=1 n=d6 v=0
15166 On ch=1 n=a#7 v=0
15166 On ch=1 n=a#6 v=0
15171 On ch=1 n=g5 v=0
15172 On ch=1 n=d6 v=127
15182 On ch=1 n=d6 v=0
15183 On ch=1 n=a#6 v=127
15183 On ch=1 n=a#7 v=127
15186 On ch=1 n=a#6 v=0
15188 On ch=1 n=a#7 v=0
15204 On ch=1 n=a6 v=127
15204 On ch=1 n=a7 v=127
15209 On ch=1 n=a7 v=0
15209 On ch=1 n=a6 v=0
15225 On ch=1 n=a6 v=127
15225 On ch=1 n=a7 v=127
15231 On ch=1 n=a7 v=0
15231 On ch=1 n=a6 v=0
15247 On ch=1 n=g6 v=127
15248 On ch=1 n=g7 v=127
15251 On ch=1 n=g7 v=0
15251 On ch=1 n=g6 v=0
15269 On ch=1 n=g6 v=127
15270 On ch=1 n=g7 v=127
15274 On ch=1 n=g7 v=0
15274 On ch=1 n=g6 v=0
15292 On ch=1 n=f#6 v=127
15292 On ch=1 n=f#7 v=127
15294 On ch=1 n=f#6 v=0
15296 On ch=1 n=f#7 v=0
15314 On ch=1 n=c#5 v=127
15314 On ch=1 n=a#5 v=127
15314 On ch=1 n=f#6 v=127
15315 On ch=1 n=f#7 v=127
15315 On ch=1 n=g5 v=127
15320 On ch=1 n=f#6 v=0
15321 On ch=1 n=f#7 v=0
15338 On ch=1 n=d#7 v=127
15338 On ch=1 n=d#6 v=127
15344 On ch=1 n=d#6 v=0
15344 On ch=1 n=d#7 v=0
15360 On ch=1 n=d#7 v=127
15361 On ch=1 n=d#6 v=127
15366 On ch=1 n=d#6 v=0
15366 On ch=1 n=d#7 v=0
15383 On ch=1 n=d6 v=127
15384 On ch=1 n=d7 v=127
15386 On ch=1 n=d6 v=0
15388 On ch=1 n=d7 v=0
15388 On ch=1 n=g5 v=0
15388 On ch=1 n=a#5 v=0
15389 On ch=1 n=c#5 v=0
15397 On ch=1 n=f#4 v=127
15402 On ch=1 n=f#4 v=0
15411 On ch=1 n=a5 v=127
15413 On ch=1 n=d6 v=127
15414 On ch=1 n=d7 v=127
15492 On ch=1 n=d7 v=0
15556 On ch=1 n=d6 v=0
15559 On ch=1 n=a#5 v=127
15565 On ch=1 n=a#5 v=0
15577 On ch=1 n=c#6 v=127
15584 On ch=1 n=c#6 v=0
15594 On ch=1 n=d6 v=127
15595 On ch=1 n=a5 v=0
15602 On ch=1 n=d6 v=0
15610 On ch=1 n=c#6 v=127
15617 On ch=1 n=c#6 v=0
15629 On ch=1 n=a#5 v=127
15637 On ch=1 n=a#5 v=0
15649 On ch=1 n=a5 v=127
15658 On ch=1 n=a5 v=0
15668 On ch=1 n=f#5 v=127
15675 On ch=1 n=f#5 v=0
15690 On ch=1 n=d#5 v=127
15696 On ch=1 n=d#5 v=0
15712 On ch=1 n=d5 v=127
15721 On ch=1 n=d5 v=0
15737 On ch=1 n=c#5 v=127
15746 On ch=1 n=c#5 v=0
15778 On ch=1 n=a#4 v=127
15787 On ch=1 n=a#4 v=0
15816 On ch=1 n=a4 v=127
15825 On ch=1 n=a4 v=0
15868 On ch=1 n=f#4 v=127
16051 On ch=1 n=f#4 v=0
16189 On ch=1 n=f#5 v=127
16231 On ch=1 n=g5 v=127
16234 On ch=1 n=f#5 v=0
16272 On ch=1 n=c5 v=127
16273 On ch=1 n=f#4 v=127
16273 On ch=1 n=a5 v=127
16277 On ch=1 n=d4 v=127
16279 On ch=1 n=g5 v=0
16280 Par ch=1 c=64 v=127
16292 On ch=1 n=f#4 v=0
16294 On ch=1 n=d4 v=0
16295 On ch=1 n=c5 v=0
16351 Par ch=1 c=64 v=0
16353 On ch=1 n=c5 v=127
16354 On ch=1 n=f#4 v=127
16354 On ch=1 n=d4 v=127
16395 On ch=1 n=c#6 v=127
16411 On ch=1 n=a5 v=0
16427 On ch=1 n=d4 v=0
16431 On ch=1 n=c5 v=0
16433 On ch=1 n=f#4 v=0
16436 On ch=1 n=d6 v=127
16442 On ch=1 n=c#6 v=0
16473 On ch=1 n=d6 v=0
16473 On ch=1 n=c#6 v=127
16510 On ch=1 n=e6 v=127
16513 On ch=1 n=c#6 v=0
16549 On ch=1 n=d6 v=127
16556 On ch=1 n=e6 v=0
16570 On ch=1 n=d6 v=0
16590 On ch=1 n=g5 v=127
16590 On ch=1 n=d6 v=127
16592 On ch=1 n=a#4 v=127
16593 On ch=1 n=d5 v=127
16609 Par ch=1 c=64 v=127
16630 On ch=1 n=d6 v=0
16631 On ch=1 n=c#6 v=127
16633 On ch=1 n=a#4 v=0
16634 On ch=1 n=d5 v=0
16638 On ch=1 n=g5 v=0
16645 On ch=1 n=c#6 v=0
16669 On ch=1 n=c#6 v=127
16670 On ch=1 n=g5 v=127
16673 On ch=1 n=a#4 v=127
16675 On ch=1 n=d5 v=127
16694 On ch=1 n=a#4 v=0
16696 On ch=1 n=d5 v=0
16701 On ch=1 n=g5 v=0
16710 On ch=1 n=a#5 v=127
16712 On ch=1 n=c#6 v=0
16722 On ch=1 n=a#5 v=0
16750 On ch=1 n=a#5 v=127
16782 On ch=1 n=a#5 v=0
16787 On ch=1 n=a5 v=127
16797 On ch=1 n=a5 v=0
16828 On ch=1 n=a5 v=127
16830 Par ch=1 c=64 v=0
16866 On ch=1 n=g5 v=127
16868 On ch=1 n=a5 v=0
16903 On ch=1 n=c5 v=127
16905 On ch=1 n=d4 v=127
16905 On ch=1 n=f#5 v=127
16908 On ch=1 n=f#4 v=127
16910 On ch=1 n=g5 v=0
16912 Par ch=1 c=64 v=127
16933 On ch=1 n=f#4 v=0
16935 On ch=1 n=d4 v=0
16937 On ch=1 n=c5 v=0
16945 On ch=1 n=g5 v=127
16949 On ch=1 n=f#5 v=0
16981 On ch=1 n=a5 v=127
16982 On ch=1 n=g5 v=0
16983 On ch=1 n=f#4 v=127
16985 On ch=1 n=c5 v=127
16985 On ch=1 n=d4 v=127
16995 Par ch=1 c=64 v=0
17025 On ch=1 n=c#6 v=127
17033 On ch=1 n=a5 v=0
17053 On ch=1 n=d4 v=0
17059 On ch=1 n=f#4 v=0
17061 On ch=1 n=d6 v=127
17062 On ch=1 n=c#6 v=0
17063 On ch=1 n=c5 v=0
17097 On ch=1 n=d6 v=0
17097 On ch=1 n=c#6 v=127
17142 On ch=1 n=c#6 v=0
17142 On ch=1 n=e6 v=127
17164 On ch=1 n=d6 v=127
17166 On ch=1 n=e6 v=0
17189 On ch=1 n=c#6 v=127
17190 On ch=1 n=d6 v=0
17216 On ch=1 n=a#4 v=127
17216 On ch=1 n=g5 v=127
17218 Par ch=1 c=64 v=127
17218 On ch=1 n=e6 v=127
17220 On ch=1 n=c#6 v=0
17220 On ch=1 n=d5 v=127
17239 On ch=1 n=d5 v=0
17239 On ch=1 n=a#4 v=0
17244 On ch=1 n=g5 v=0
17245 On ch=1 n=d6 v=127
17250 On ch=1 n=e6 v=0
17267 On ch=1 n=c#6 v=127
17270 On ch=1 n=d6 v=0
17294 On ch=1 n=g5 v=127
17294 On ch=1 n=a#4 v=127
17295 On ch=1 n=d5 v=127
17297 On ch=1 n=e6 v=127
17301 On ch=1 n=c#6 v=0
17313 On ch=1 n=a#4 v=0
17315 On ch=1 n=d5 v=0
17317 On ch=1 n=g5 v=0
17321 On ch=1 n=d6 v=127
17332 On ch=1 n=e6 v=0
17344 On ch=1 n=c#6 v=127
17349 On ch=1 n=d6 v=0
17371 On ch=1 n=a#5 v=127
17381 On ch=1 n=c#6 v=0
17393 On ch=1 n=a5 v=127
17396 On ch=1 n=a#5 v=0
17418 On ch=1 n=g5 v=127
17423 On ch=1 n=a5 v=0
17445 Par ch=1 c=64 v=0
17452 On ch=1 n=g5 v=0
17453 On ch=1 n=f#5 v=127
17486 On ch=1 n=g5 v=127
17487 On ch=1 n=f#5 v=0
17528 On ch=1 n=a5 v=127
17528 On ch=1 n=c5 v=127
17530 On ch=1 n=f#4 v=127
17530 On ch=1 n=d4 v=127
17534 On ch=1 n=g5 v=0
17535 Par ch=1 c=64 v=127
17550 On ch=1 n=f#4 v=0
17551 On ch=1 n=d4 v=0
17555 On ch=1 n=c5 v=0
17613 On ch=1 n=c5 v=127
17615 On ch=1 n=f#4 v=127
17616 On ch=1 n=d4 v=127
17618 Par ch=1 c=64 v=0
17650 On ch=1 n=c#6 v=127
17658 On ch=1 n=a5 v=0
17692 On ch=1 n=d6 v=127
17693 On ch=1 n=d4 v=0
17696 On ch=1 n=c#6 v=0
17698 On ch=1 n=f#4 v=0
17702 On ch=1 n=c5 v=0
17726 On ch=1 n=c#6 v=127
17730 On ch=1 n=d6 v=0
17766 On ch=1 n=c#6 v=0
17766 On ch=1 n=e6 v=127
17800 On ch=1 n=d6 v=127
17806 On ch=1 n=e6 v=0
17815 On ch=1 n=d6 v=0
17825 Par ch=1 c=64 v=127
17835 On ch=1 n=g5 v=127
17837 On ch=1 n=a#4 v=127
17838 On ch=1 n=d6 v=127
17841 On ch=1 n=d5 v=127
17856 On ch=1 n=a#4 v=0
17860 On ch=1 n=d5 v=0
17863 On ch=1 n=g5 v=0
17873 On ch=1 n=d6 v=0
17874 On ch=1 n=c#6 v=127
17884 On ch=1 n=c#6 v=0
17908 On ch=1 n=c#6 v=127
17909 On ch=1 n=g5 v=127
17909 On ch=1 n=a#4 v=127
17911 On ch=1 n=d5 v=127
17921 On ch=1 n=d5 v=0
17923 On ch=1 n=a#4 v=0
17924 On ch=1 n=g5 v=0
17946 On ch=1 n=a#5 v=127
17950 On ch=1 n=c#6 v=0
17957 On ch=1 n=a#5 v=0
17981 On ch=1 n=a#5 v=127
18013 Par ch=1 c=64 v=0
18018 On ch=1 n=a#5 v=0
18022 On ch=1 n=a5 v=127
18062 On ch=1 n=a5 v=0
18063 On ch=1 n=a5 v=127
18103 On ch=1 n=a5 v=0
18103 On ch=1 n=g5 v=127
18149 On ch=1 n=g4 v=127
18151 On ch=1 n=d5 v=127
18151 On ch=1 n=a#3 v=127
18153 On ch=1 n=f#5 v=127
18157 On ch=1 n=g5 v=0
18158 Par ch=1 c=64 v=127
18182 On ch=1 n=d5 v=0
18184 On ch=1 n=g5 v=127
18194 On ch=1 n=f#5 v=0
18201 On ch=1 n=a#3 v=0
18203 On ch=1 n=g4 v=0
18213 On ch=1 n=a5 v=127
18237 On ch=1 n=a#5 v=127
18241 On ch=1 n=g5 v=0
18245 On ch=1 n=a5 v=0
18265 On ch=1 n=a4 v=127
18265 On ch=1 n=f#5 v=127
18268 On ch=1 n=a#5 v=0
18268 On ch=1 n=d4 v=127
18269 On ch=1 n=c5 v=127
18271 Par ch=1 c=64 v=0
18297 Par ch=1 c=64 v=127
18331 On ch=1 n=a5 v=127
18332 On ch=1 n=c5 v=0
18335 On ch=1 n=f#5 v=0
18340 On ch=1 n=d4 v=0
18340 On ch=1 n=a4 v=0
18395 On ch=1 n=g5 v=127
18395 On ch=1 n=d5 v=127
18396 On ch=1 n=b4 v=127
18396 On ch=1 n=g4 v=127
18435 On ch=1 n=a5 v=0
18455 On ch=1 n=d5 v=0
18461 On ch=1 n=g4 v=0
18468 On ch=1 n=b4 v=0
18471 On ch=1 n=b5 v=127
18478 On ch=1 n=g5 v=0
18533 On ch=1 n=g4 v=127
18533 On ch=1 n=c4 v=127
18533 On ch=1 n=e5 v=127
18535 On ch=1 n=g5 v=127
18600 On ch=1 n=b5 v=0
18602 On ch=1 n=b5 v=127
18604 On ch=1 n=e5 v=0
18605 On ch=1 n=g5 v=0
18688 On ch=1 n=b5 v=0
18691 On ch=1 n=g5 v=127
18691 On ch=1 n=b4 v=127
18692 On ch=1 n=g4 v=0
18693 On ch=1 n=g3 v=127
18693 On ch=1 n=d4 v=127
18695 On ch=1 n=c4 v=0
18700 Par ch=1 c=64 v=0
18966 On ch=1 n=b4 v=0
18970 On ch=1 n=d4 v=0
18974 On ch=1 n=g3 v=0
18974 On ch=1 n=g5 v=0
19148 On ch=1 n=a#2 v=127
19286 On ch=1 n=f3 v=127
19286 On ch=1 n=c#4 v=127
19287 On ch=1 n=f4 v=127
19346 On ch=1 n=a2 v=127
19352 On ch=1 n=a#2 v=0
19409 On ch=1 n=c3 v=127
19410 On ch=1 n=a2 v=0
19466 On ch=1 n=a#2 v=127
19484 On ch=1 n=a#2 v=0
19525 On ch=1 n=c3 v=0
19527 On ch=1 n=a#2 v=127
19584 On ch=1 n=a2 v=127
19588 On ch=1 n=a#2 v=0
19594 On ch=1 n=f4 v=0
19595 On ch=1 n=c#4 v=0
19596 On ch=1 n=f3 v=0
19646 On ch=1 n=a#2 v=127
19649 On ch=1 n=a2 v=0
19674 On ch=1 n=a2 v=127
19678 On ch=1 n=a#2 v=0
19704 On ch=1 n=a#2 v=127
19707 On ch=1 n=a2 v=0
19731 On ch=1 n=a#2 v=0
19731 On ch=1 n=c3 v=127
19760 On ch=1 n=c3 v=0
19760 On ch=1 n=c#3 v=127
19761 On ch=1 n=f3 v=127
19761 On ch=1 n=c#4 v=127
19763 On ch=1 n=f4 v=127
19790 On ch=1 n=c#3 v=0
19792 On ch=1 n=c3 v=127
19816 On ch=1 n=a#2 v=127
19819 On ch=1 n=c3 v=0
19843 On ch=1 n=a#2 v=0
19844 On ch=1 n=a2 v=127
19875 On ch=1 n=a2 v=0
19875 On ch=1 n=a#2 v=127
19994 On ch=1 n=c#4 v=0
19994 On ch=1 n=f3 v=0
19997 On ch=1 n=a#3 v=127
19999 On ch=1 n=f4 v=0
19999 On ch=1 n=d3 v=127
20000 On ch=1 n=d4 v=127
20000 On ch=1 n=g#4 v=127
20000 On ch=1 n=a#4 v=127
20001 On ch=1 n=f4 v=127
20008 On ch=1 n=a#2 v=0
20127 On ch=1 n=d#3 v=127
20129 On ch=1 n=d3 v=0
20136 On ch=1 n=a#4 v=0
20137 On ch=1 n=g#4 v=0
20138 On ch=1 n=f4 v=0
20138 On ch=1 n=d4 v=0
20139 On ch=1 n=a#3 v=0
20249 On ch=1 n=a#3 v=127
20250 On ch=1 n=a#4 v=127
20251 On ch=1 n=g4 v=127
20251 On ch=1 n=d#4 v=127
20277 On ch=1 n=d#3 v=0
20304 On ch=1 n=e3 v=127
20311 On ch=1 n=e3 v=0
20364 On ch=1 n=f3 v=127
20373 On ch=1 n=f3 v=0
20420 On ch=1 n=g#3 v=127
20430 On ch=1 n=g#3 v=0
20433 On ch=1 n=g4 v=0
20436 On ch=1 n=d#4 v=0
20445 On ch=1 n=a#3 v=0
20450 On ch=1 n=a#4 v=0
20472 On ch=1 n=a#3 v=127
20474 On ch=1 n=a#4 v=127
20474 On ch=1 n=d3 v=127
20476 On ch=1 n=d4 v=127
20476 On ch=1 n=f4 v=127
20478 On ch=1 n=g#4 v=127
20486 Par ch=1 c=64 v=127
20489 On ch=1 n=d3 v=0
20528 Par ch=1 c=64 v=0
20534 On ch=1 n=f3 v=127
20542 On ch=1 n=f3 v=0
20589 On ch=1 n=f3 v=127
20590 On ch=1 n=g#4 v=0
20590 On ch=1 n=a#4 v=0
20596 On ch=1 n=f4 v=0
20607 On ch=1 n=d4 v=0
20613 On ch=1 n=a#3 v=0
20643 On ch=1 n=d#3 v=127
20649 On ch=1 n=f3 v=0
20652 On ch=1 n=d#3 v=0
20682 On ch=1 n=d#3 v=127
20692 On ch=1 n=d#3 v=0
20698 On ch=1 n=d#3 v=127
20699 On ch=1 n=a#3 v=127
20701 On ch=1 n=d#4 v=127
20703 On ch=1 n=a#4 v=127
20704 On ch=1 n=g4 v=127
20721 Par ch=1 c=64 v=127
20791 On ch=1 n=a#4 v=0
20791 On ch=1 n=d#3 v=0
20792 On ch=1 n=d3 v=127
20793 On ch=1 n=g4 v=0
20794 On ch=1 n=d#4 v=0
20795 On ch=1 n=a#3 v=0
20819 Par ch=1 c=64 v=0
20819 On ch=1 n=a#3 v=127
20821 On ch=1 n=d#4 v=127
20821 On ch=1 n=d#3 v=127
20821 On ch=1 n=a#4 v=127
20822 On ch=1 n=g4 v=127
20825 On ch=1 n=d3 v=0
20938 On ch=1 n=d#3 v=0
20939 On ch=1 n=e3 v=127
20944 On ch=1 n=d#4 v=0
20945 On ch=1 n=g4 v=0
20946 On ch=1 n=a#4 v=0
20947 On ch=1 n=a#3 v=0
21056 On ch=1 n=f3 v=127
21058 On ch=1 n=e3 v=0
21175 On ch=1 n=c#5 v=127
21175 On ch=1 n=c#4 v=127
21177 On ch=1 n=a#4 v=127
21177 On ch=1 n=f4 v=127
21186 On ch=1 n=f3 v=0
21200 Par ch=1 c=64 v=127
21235 On ch=1 n=e3 v=127
21290 On ch=1 n=e3 v=0
21295 On ch=1 n=f3 v=127
21298 Par ch=1 c=64 v=0
21350 On ch=1 n=f3 v=0
21350 On ch=1 n=g3 v=127
21353 On ch=1 n=f4 v=0
21353 On ch=1 n=c#5 v=0
21355 On ch=1 n=a#4 v=0
21358 On ch=1 n=c#4 v=0
21409 On ch=1 n=c#4 v=127
21409 On ch=1 n=g#3 v=127
21410 On ch=1 n=f4 v=127
21410 On ch=1 n=c#5 v=127
21410 On ch=1 n=a#4 v=127
21418 On ch=1 n=g3 v=0
21501 On ch=1 n=g3 v=127
21502 On ch=1 n=g#3 v=0
21539 On ch=1 n=g3 v=0
21539 On ch=1 n=c#5 v=0
21540 On ch=1 n=f3 v=127
21543 On ch=1 n=c#4 v=0
21544 On ch=1 n=f4 v=0
21546 On ch=1 n=a#4 v=0
21583 On ch=1 n=f3 v=0
21583 On ch=1 n=e3 v=127
21618 On ch=1 n=e3 v=0
21619 On ch=1 n=f3 v=127
21657 On ch=1 n=f3 v=0
21658 On ch=1 n=f#3 v=127
21693 On ch=1 n=f#3 v=0
21696 On ch=1 n=f3 v=127
21734 On ch=1 n=d#3 v=127
21736 On ch=1 n=f3 v=0
21772 On ch=1 n=c#3 v=127
21776 On ch=1 n=d#3 v=0
21810 On ch=1 n=c#3 v=0
21811 On ch=1 n=c3 v=127
21847 On ch=1 n=c3 v=0
21849 On ch=1 n=c#3 v=127
21892 On ch=1 n=d#3 v=127
21895 On ch=1 n=c#3 v=0
21928 On ch=1 n=c#3 v=127
21930 On ch=1 n=d#3 v=0
21963 On ch=1 n=c#3 v=0
21965 On ch=1 n=c3 v=127
22006 On ch=1 n=a#2 v=127
22013 On ch=1 n=c3 v=0
22109 On ch=1 n=a2 v=127
22112 On ch=1 n=a#2 v=0
22134 On ch=1 n=c#4 v=127
22135 On ch=1 n=a#2 v=127
22135 On ch=1 n=f3 v=127
22139 On ch=1 n=f4 v=127
22141 On ch=1 n=a2 v=0
22250 On ch=1 n=c#4 v=0
22260 On ch=1 n=f3 v=0
22260 On ch=1 n=a#2 v=0
22265 On ch=1 n=f4 v=0
22268 On ch=1 n=f3 v=127
22268 On ch=1 n=d#4 v=127
22269 On ch=1 n=c3 v=127
22270 On ch=1 n=f4 v=127
22274 On ch=1 n=a3 v=127
22336 On ch=1 n=c3 v=0
22337 On ch=1 n=d#3 v=127
22362 On ch=1 n=a3 v=0
22362 On ch=1 n=f4 v=0
22363 On ch=1 n=f3 v=0
22365 On ch=1 n=d#4 v=0
22405 On ch=1 n=f3 v=127
22406 On ch=1 n=c4 v=127
22409 On ch=1 n=d#3 v=0
22409 On ch=1 n=d#4 v=127
22410 On ch=1 n=f4 v=127
22410 On ch=1 n=a2 v=127
22435 On ch=1 n=f3 v=0
22440 On ch=1 n=f4 v=0
22473 On ch=1 n=a2 v=0
22477 On ch=1 n=c3 v=127
22545 On ch=1 n=a#2 v=127
22545 On ch=1 n=d4 v=127
22546 On ch=1 n=f3 v=127
22546 On ch=1 n=f4 v=127
22557 On ch=1 n=f3 v=0
22560 On ch=1 n=d#4 v=0
22560 On ch=1 n=c4 v=0
22566 On ch=1 n=c3 v=0
22567 On ch=1 n=f4 v=0
22623 On ch=1 n=d4 v=0
22639 On ch=1 n=a#2 v=0
22645 On ch=1 n=e2 v=127
22672 On ch=1 n=e2 v=0
22677 On ch=1 n=f2 v=127
22678 On ch=1 n=f3 v=127
22678 On ch=1 n=d4 v=127
22680 On ch=1 n=f4 v=127
22681 On ch=1 n=a#3 v=127
22733 On ch=1 n=f4 v=0
22750 On ch=1 n=a#3 v=0
22756 On ch=1 n=d4 v=0
22760 On ch=1 n=f3 v=0
22774 On ch=1 n=a3 v=127
22814 On ch=1 n=d4 v=127
22814 On ch=1 n=f3 v=127
22814 On ch=1 n=a#3 v=127
22816 On ch=1 n=f2 v=0
22816 On ch=1 n=f4 v=127
22818 On ch=1 n=a#2 v=127
22848 On ch=1 n=a3 v=0
23023 On ch=1 n=a#2 v=0
23032 On ch=1 n=f3 v=0
23032 On ch=1 n=d4 v=0
23033 On ch=1 n=a#3 v=0
23037 On ch=1 n=f4 v=0
23061 On ch=1 n=a#4 v=127
23062 On ch=1 n=a#5 v=127
23069 On ch=1 n=a#5 v=0
23070 On ch=1 n=a#4 v=0
23086 On ch=1 n=a#2 v=127
23087 On ch=1 n=a#3 v=127
23087 On ch=1 n=a#5 v=127
23087 On ch=1 n=a#4 v=127
23096 Par ch=1 c=64 v=127
23101 On ch=1 n=a#2 v=0
23104 On ch=1 n=a#3 v=0
23156 On ch=1 n=c#5 v=127
23156 On ch=1 n=c#4 v=127
23157 On ch=1 n=f4 v=127
23161 On ch=1 n=a#4 v=0
23161 On ch=1 n=a#5 v=0
23169 On ch=1 n=c#4 v=0
23179 On ch=1 n=f4 v=0
23179 On ch=1 n=c#5 v=0
23277 On ch=1 n=c#5 v=127
23278 On ch=1 n=a4 v=127
23278 On ch=1 n=a5 v=127
23280 On ch=1 n=c#4 v=127
23282 On ch=1 n=f4 v=127
23284 On ch=1 n=c#4 v=0
23286 On ch=1 n=f4 v=0
23286 On ch=1 n=a4 v=0
23287 On ch=1 n=c#5 v=0
23288 On ch=1 n=a5 v=0
23342 On ch=1 n=c6 v=127
23342 On ch=1 n=c5 v=127
23349 On ch=1 n=c5 v=0
23353 On ch=1 n=c6 v=0
23400 On ch=1 n=a#4 v=127
23400 On ch=1 n=a#5 v=127
23401 On ch=1 n=c#5 v=127
23401 On ch=1 n=c#4 v=127
23404 On ch=1 n=f4 v=127
23409 On ch=1 n=c#4 v=0
23409 On ch=1 n=a#4 v=0
23412 On ch=1 n=c#5 v=0
23413 On ch=1 n=a#5 v=0
23414 On ch=1 n=f4 v=0
23465 On ch=1 n=a#4 v=127
23465 On ch=1 n=a#5 v=127
23475 On ch=1 n=a#4 v=0
23480 On ch=1 n=a#5 v=0
23525 On ch=1 n=c#5 v=127
23526 On ch=1 n=c#4 v=127
23527 On ch=1 n=a5 v=127
23527 On ch=1 n=a4 v=127
23529 On ch=1 n=f4 v=127
23535 On ch=1 n=c#4 v=0
23537 On ch=1 n=c#5 v=0
23538 On ch=1 n=f4 v=0
23538 On ch=1 n=a4 v=0
23541 On ch=1 n=a5 v=0
23587 On ch=1 n=a#2 v=127
23589 On ch=1 n=a#3 v=127
23589 On ch=1 n=a#4 v=127
23589 On ch=1 n=a#5 v=127
23595 On ch=1 n=a#2 v=0
23598 On ch=1 n=a#4 v=0
23599 On ch=1 n=a#5 v=0
23600 On ch=1 n=a#3 v=0
23616 On ch=1 n=a4 v=127
23618 On ch=1 n=a5 v=127
23623 On ch=1 n=a5 v=0
23624 On ch=1 n=a4 v=0
23648 On ch=1 n=a#4 v=127
23649 On ch=1 n=c#5 v=127
23650 On ch=1 n=a#5 v=127
23652 On ch=1 n=f4 v=127
23656 On ch=1 n=a#4 v=0
23658 On ch=1 n=a#5 v=0
23663 On ch=1 n=c#5 v=0
23664 On ch=1 n=f4 v=0
23674 On ch=1 n=c5 v=127
23679 On ch=1 n=c5 v=0
23706 On ch=1 n=c#6 v=127
23706 On ch=1 n=c#5 v=127
23712 On ch=1 n=c#5 v=0
23715 On ch=1 n=c#6 v=0
23735 On ch=1 n=c5 v=127
23737 On ch=1 n=c6 v=127
23742 On ch=1 n=c6 v=0
23742 On ch=1 n=c5 v=0
23767 On ch=1 n=c#4 v=127
23767 On ch=1 n=c#5 v=127
23769 On ch=1 n=f4 v=127
23769 On ch=1 n=a#4 v=127
23770 On ch=1 n=a#5 v=127
23777 On ch=1 n=a#4 v=0
23777 On ch=1 n=c#4 v=0
23778 On ch=1 n=a#5 v=0
23778 On ch=1 n=c#5 v=0
23781 On ch=1 n=f4 v=0
23800 On ch=1 n=a4 v=127
23802 On ch=1 n=a5 v=127
23807 On ch=1 n=a5 v=0
23809 On ch=1 n=a4 v=0
23833 On ch=1 n=a#4 v=127
23835 On ch=1 n=a#5 v=127
23858 On ch=1 n=a#4 v=0
23869 On ch=1 n=a#5 v=0
23891 On ch=1 n=c#5 v=127
23891 On ch=1 n=c#4 v=127
23893 Par ch=1 c=64 v=0
23894 On ch=1 n=f4 v=127
23938 On ch=1 n=f4 v=0
23942 On ch=1 n=c#5 v=0
23944 On ch=1 n=c#4 v=0
23949 On ch=1 n=g#5 v=127
23949 On ch=1 n=d6 v=127
23950 On ch=1 n=d5 v=127
23950 On ch=1 n=a#3 v=127
23951 Par ch=1 c=64 v=127
23951 On ch=1 n=a#5 v=127
23952 On ch=1 n=f5 v=127
23969 On ch=1 n=a#3 v=0
23984 On ch=1 n=f5 v=0
23984 On ch=1 n=d5 v=0
23986 On ch=1 n=g#5 v=0
23988 On ch=1 n=a#5 v=0
23990 On ch=1 n=d6 v=0
24011 On ch=1 n=d5 v=127
24011 On ch=1 n=g#4 v=127
24012 On ch=1 n=f4 v=127
24030 Par ch=1 c=64 v=0
24046 Par ch=1 c=64 v=127
24063 On ch=1 n=d5 v=0
24063 Par ch=1 c=64 v=0
24064 On ch=1 n=f4 v=0
24064 On ch=1 n=g#4 v=0
24067 On ch=1 n=a#5 v=127
24067 On ch=1 n=d#5 v=127
24067 On ch=1 n=d#6 v=127
24068 On ch=1 n=d#3 v=127
24069 On ch=1 n=g5 v=127
24069 On ch=1 n=d#4 v=127
24073 Par ch=1 c=64 v=127
24089 On ch=1 n=d#3 v=0
24093 On ch=1 n=d#4 v=0
24108 On ch=1 n=d#5 v=0
24111 On ch=1 n=g5 v=0
24112 On ch=1 n=a#5 v=0
24118 On ch=1 n=d#6 v=0
24127 On ch=1 n=d#5 v=127
24128 On ch=1 n=g4 v=127
24130 On ch=1 n=a#4 v=127
24146 On ch=1 n=a#4 v=0
24146 On ch=1 n=g4 v=0
24147 On ch=1 n=d#5 v=0
24183 On ch=1 n=a#4 v=127
24185 On ch=1 n=g4 v=127
24207 On ch=1 n=a#4 v=0
24212 On ch=1 n=g4 v=0
24236 On ch=1 n=e6 v=127
24236 On ch=1 n=e5 v=127
24256 On ch=1 n=e5 v=0
24260 On ch=1 n=e6 v=0
24276 Par ch=1 c=64 v=0
24295 On ch=1 n=a#2 v=127
24295 On ch=1 n=f5 v=127
24295 On ch=1 n=f6 v=127
24296 On ch=1 n=a#3 v=127
24301 Par ch=1 c=64 v=127
24305 On ch=1 n=a#2 v=0
24307 On ch=1 n=a#3 v=0
24312 On ch=1 n=f5 v=0
24315 On ch=1 n=f6 v=0
24351 On ch=1 n=g#5 v=127
24351 On ch=1 n=g#6 v=127
24352 On ch=1 n=f4 v=127
24357 On ch=1 n=a#4 v=127
24358 On ch=1 n=d5 v=127
24363 On ch=1 n=g#5 v=0
24364 On ch=1 n=a#4 v=0
24367 On ch=1 n=g#6 v=0
24369 On ch=1 n=d5 v=0
24369 On ch=1 n=f4 v=0
24407 On ch=1 n=d6 v=127
24407 On ch=1 n=d5 v=127
24418 On ch=1 n=d5 v=0
24422 On ch=1 n=d6 v=0
24459 On ch=1 n=d5 v=127
24460 On ch=1 n=f5 v=127
24460 On ch=1 n=f6 v=127
24461 On ch=1 n=f4 v=127
24461 On ch=1 n=g#4 v=127
24469 On ch=1 n=g#4 v=0
24470 On ch=1 n=f4 v=0
24470 On ch=1 n=f5 v=0
24471 On ch=1 n=f6 v=0
24471 On ch=1 n=d5 v=0
24518 On ch=1 n=f6 v=127
24518 On ch=1 n=d#3 v=127
24518 On ch=1 n=f5 v=127
24519 On ch=1 n=d#4 v=127
24530 On ch=1 n=d#3 v=0
24535 On ch=1 n=d#4 v=0
24538 On ch=1 n=f5 v=0
24538 On ch=1 n=f6 v=0
24573 On ch=1 n=d#5 v=127
24573 On ch=1 n=a#4 v=127
24573 On ch=1 n=g4 v=127
24574 On ch=1 n=d#6 v=127
24580 On ch=1 n=d#5 v=0
24586 On ch=1 n=d#6 v=0
24608 On ch=1 n=f6 v=127
24617 On ch=1 n=f6 v=0
24624 On ch=1 n=d#6 v=127
24628 On ch=1 n=d#5 v=127
24636 On ch=1 n=g4 v=0
24637 On ch=1 n=a#4 v=0
24653 On ch=1 n=d#5 v=0
24656 On ch=1 n=d#6 v=0
24682 On ch=1 n=d5 v=127
24683 On ch=1 n=d6 v=127
24683 On ch=1 n=a#4 v=127
24685 On ch=1 n=g4 v=127
24700 On ch=1 n=d6 v=0
24701 On ch=1 n=d5 v=0
24706 On ch=1 n=g4 v=0
24706 On ch=1 n=a#4 v=0
24741 On ch=1 n=d#5 v=127
24741 On ch=1 n=d#6 v=127
24749 Par ch=1 c=64 v=0
24815 On ch=1 n=d#5 v=0
24817 On ch=1 n=d#6 v=0
24855 On ch=1 n=e6 v=127
24855 On ch=1 n=e5 v=127
24871 Par ch=1 c=64 v=127
24908 On ch=1 n=e5 v=0
24919 On ch=1 n=e6 v=0
24946 On ch=1 n=f5 v=127
24957 On ch=1 n=a#5 v=127
24966 On ch=1 n=c#6 v=127
24976 On ch=1 n=f6 v=127
24978 On ch=1 n=a#2 v=127
24984 On ch=1 n=a#5 v=0
24990 On ch=1 n=a#2 v=0
25008 On ch=1 n=f5 v=0
25035 On ch=1 n=c#6 v=0
25045 On ch=1 n=f4 v=127
25047 On ch=1 n=f5 v=127
25047 On ch=1 n=a#4 v=127
25049 On ch=1 n=c#5 v=127
25127 Par ch=1 c=64 v=0
25137 On ch=1 n=e6 v=127
25143 On ch=1 n=f6 v=0
25167 On ch=1 n=f6 v=127
25176 On ch=1 n=e6 v=0
25184 On ch=1 n=c#5 v=0
25184 On ch=1 n=a#4 v=0
25186 On ch=1 n=f4 v=0
25188 On ch=1 n=f5 v=0
25197 On ch=1 n=g6 v=127
25212 On ch=1 n=f6 v=0
25240 On ch=1 n=f4 v=127
25240 On ch=1 n=f5 v=127
25242 On ch=1 n=g#6 v=127
25245 Par ch=1 c=64 v=127
25245 On ch=1 n=c#5 v=127
25246 On ch=1 n=a#4 v=127
25248 On ch=1 n=g6 v=0
25390 On ch=1 n=g#6 v=0
25391 On ch=1 n=g6 v=127
25398 On ch=1 n=c#5 v=0
25400 On ch=1 n=a#4 v=0
25400 On ch=1 n=f5 v=0
25401 On ch=1 n=f4 v=0
25444 On ch=1 n=f6 v=127
25453 On ch=1 n=g6 v=0
25479 On ch=1 n=e6 v=127
25484 On ch=1 n=f6 v=0
25514 On ch=1 n=f6 v=127
25520 On ch=1 n=e6 v=0
25550 On ch=1 n=f#6 v=127
25554 On ch=1 n=f6 v=0
25587 On ch=1 n=f6 v=127
25593 On ch=1 n=f#6 v=0
25618 On ch=1 n=d#6 v=127
25622 On ch=1 n=f6 v=0
25653 On ch=1 n=c#6 v=127
25659 On ch=1 n=d#6 v=0
25689 On ch=1 n=c6 v=127
25694 On ch=1 n=c#6 v=0
25721 On ch=1 n=c#6 v=127
25729 On ch=1 n=c6 v=0
25757 On ch=1 n=d#6 v=127
25759 On ch=1 n=c#6 v=0
25789 On ch=1 n=c#6 v=127
25795 On ch=1 n=d#6 v=0
25823 On ch=1 n=c6 v=127
25829 On ch=1 n=c#6 v=0
25840 On ch=1 n=a#5 v=127
25852 On ch=1 n=a#5 v=0
25853 On ch=1 n=c6 v=0
25853 On ch=1 n=c6 v=127
25856 On ch=1 n=c6 v=0
25860 On ch=1 n=a#5 v=127
25863 On ch=1 n=f3 v=127
25882 On ch=1 n=f3 v=0
25951 On ch=1 n=a5 v=127
25953 On ch=1 n=a#5 v=0
25985 On ch=1 n=a5 v=0
25985 On ch=1 n=f5 v=127
25986 On ch=1 n=a#4 v=127
25986 On ch=1 n=a#5 v=127
25986 On ch=1 n=c#5 v=127
25989 On ch=1 n=f4 v=127
25998 Par ch=1 c=64 v=0
26026 Par ch=1 c=64 v=127
26053 On ch=1 n=a#4 v=0
26057 On ch=1 n=f4 v=0
26103 On ch=1 n=c#5 v=0
26110 On ch=1 n=c6 v=127
26110 On ch=1 n=f3 v=127
26129 On ch=1 n=a#5 v=0
26135 On ch=1 n=f5 v=0
26137 On ch=1 n=f3 v=0
26171 On ch=1 n=c6 v=0
26175 On ch=1 n=d#6 v=127
26233 On ch=1 n=d#6 v=0
26236 On ch=1 n=c5 v=127
26237 On ch=1 n=a5 v=127
26237 On ch=1 n=f4 v=127
26239 On ch=1 n=f5 v=127
26239 On ch=1 n=d#5 v=127
26248 Par ch=1 c=64 v=0
26304 On ch=1 n=c6 v=127
26308 On ch=1 n=d#5 v=0
26325 On ch=1 n=a5 v=0
26331 On ch=1 n=f5 v=0
26341 On ch=1 n=a#4 v=127
26346 On ch=1 n=c#5 v=127
26348 On ch=1 n=f5 v=127
26353 On ch=1 n=a#5 v=127
26356 On ch=1 n=a#4 v=0
26358 On ch=1 n=c#5 v=0
26361 On ch=1 n=f5 v=0
26365 On ch=1 n=a#5 v=0
26372 On ch=1 n=c5 v=0
26374 On ch=1 n=f4 v=0
26381 On ch=1 n=f7 v=127
26387 On ch=1 n=f7 v=0
26388 On ch=1 n=c6 v=0
26400 On ch=1 n=f7 v=127
26410 On ch=1 n=f7 v=0
26425 On ch=1 n=e7 v=127
26431 On ch=1 n=e7 v=0
26445 On ch=1 n=e7 v=127
26446 On ch=1 n=f5 v=127
26448 On ch=1 n=a#5 v=127
26456 On ch=1 n=f5 v=0
26457 On ch=1 n=e7 v=0
26460 On ch=1 n=a#5 v=0
26471 On ch=1 n=c#7 v=127
26477 On ch=1 n=c#7 v=0
26491 On ch=1 n=c#7 v=127
26500 On ch=1 n=c#7 v=0
26511 On ch=1 n=a5 v=127
26512 On ch=1 n=c7 v=127
26532 On ch=1 n=a#5 v=127
26533 On ch=1 n=c#5 v=127
26533 On ch=1 n=f5 v=127
26535 On ch=1 n=a5 v=0
26539 On ch=1 n=c7 v=0
26556 On ch=1 n=a#6 v=127
26561 On ch=1 n=a#6 v=0
26577 On ch=1 n=a#6 v=127
26581 On ch=1 n=a#6 v=0
26597 On ch=1 n=a6 v=127
26603 On ch=1 n=a6 v=0
26619 On ch=1 n=a6 v=127
26624 On ch=1 n=a6 v=0
26638 On ch=1 n=f#6 v=127
26644 On ch=1 n=f#6 v=0
26659 On ch=1 n=f#6 v=127
26664 On ch=1 n=f#6 v=0
26680 On ch=1 n=f6 v=127
26686 On ch=1 n=f6 v=0
26689 On ch=1 n=c#5 v=0
26690 On ch=1 n=a#5 v=0
26692 On ch=1 n=f5 v=0
26699 On ch=1 n=a#4 v=127
26700 On ch=1 n=f#5 v=127
26700 On ch=1 n=d#5 v=127
26712 On ch=1 n=d#5 v=0
26712 On ch=1 n=f#5 v=0
26712 On ch=1 n=a#4 v=0
26721 On ch=1 n=f#7 v=127
26721 On ch=1 n=a#7 v=127
26726 On ch=1 n=a#7 v=0
26726 On ch=1 n=f#7 v=0
26742 On ch=1 n=f#7 v=127
26743 On ch=1 n=a#7 v=127
26747 On ch=1 n=f#7 v=0
26749 On ch=1 n=a#7 v=0
26761 On ch=1 n=a7 v=127
26763 On ch=1 n=f7 v=127
26767 On ch=1 n=f7 v=0
26769 On ch=1 n=a7 v=0
26783 On ch=1 n=f7 v=127
26783 On ch=1 n=f#5 v=127
26784 On ch=1 n=d#5 v=127
26784 On ch=1 n=a7 v=127
26789 On ch=1 n=f7 v=0
26790 On ch=1 n=a7 v=0
26793 On ch=1 n=d#5 v=0
26795 On ch=1 n=f#5 v=0
26804 On ch=1 n=d#7 v=127
26804 On ch=1 n=f#7 v=127
26810 On ch=1 n=f#7 v=0
26810 On ch=1 n=d#7 v=0
26820 On ch=1 n=d#7 v=127
26821 On ch=1 n=f#7 v=127
26826 On ch=1 n=f#7 v=0
26826 On ch=1 n=d#7 v=0
26841 On ch=1 n=f5 v=127
26841 On ch=1 n=f7 v=127
26841 On ch=1 n=d5 v=127
26843 On ch=1 n=d7 v=127
26846 On ch=1 n=d7 v=0
26846 On ch=1 n=d5 v=0
26848 On ch=1 n=f7 v=0
26849 On ch=1 n=f5 v=0
26860 On ch=1 n=d#5 v=127
26862 On ch=1 n=f#5 v=127
26880 On ch=1 n=d#7 v=127
26881 On ch=1 n=f#7 v=127
26886 On ch=1 n=f#7 v=0
26886 On ch=1 n=d#7 v=0
26896 On ch=1 n=d#7 v=127
26898 On ch=1 n=f#7 v=127
26902 On ch=1 n=f#7 v=0
26902 On ch=1 n=d#7 v=0
26916 On ch=1 n=c#7 v=127
26916 On ch=1 n=f7 v=127
26921 On ch=1 n=c#7 v=0
26923 On ch=1 n=f7 v=0
26935 On ch=1 n=c#7 v=127
26937 On ch=1 n=f7 v=127
26943 On ch=1 n=f7 v=0
26944 On ch=1 n=c#7 v=0
26958 On ch=1 n=c7 v=127
26958 On ch=1 n=e7 v=127
26963 On ch=1 n=e7 v=0
26963 On ch=1 n=c7 v=0
26977 On ch=1 n=e7 v=127
26978 On ch=1 n=c7 v=127
26982 On ch=1 n=c7 v=0
26982 On ch=1 n=e7 v=0
26998 On ch=1 n=b6 v=127
26999 On ch=1 n=d#7 v=127
27004 On ch=1 n=d#7 v=0
27006 On ch=1 n=b6 v=0
27020 On ch=1 n=a#2 v=127
27023 On ch=1 n=f#5 v=0
27023 On ch=1 n=d#5 v=0
27037 On ch=1 n=a#2 v=0
27042 On ch=1 n=f#7 v=127
27044 On ch=1 n=d#8 v=127
27054 On ch=1 n=d#8 v=0
27054 On ch=1 n=f#7 v=0
27065 On ch=1 n=f#7 v=127
27065 On ch=1 n=d#8 v=127
27072 On ch=1 n=d#8 v=0
27072 On ch=1 n=f#7 v=0
27087 On ch=1 n=c#8 v=127
27087 On ch=1 n=e7 v=127
27093 On ch=1 n=e7 v=0
27095 On ch=1 n=c#8 v=0
27105 On ch=1 n=a#4 v=127
27105 On ch=1 n=c#8 v=127
27105 On ch=1 n=f#5 v=127
27106 On ch=1 n=b5 v=127
27106 On ch=1 n=d#5 v=127
27107 On ch=1 n=a5 v=127
27107 On ch=1 n=e7 v=127
27111 On ch=1 n=e7 v=0
27113 On ch=1 n=c#8 v=0
27127 On ch=1 n=d#7 v=127
27127 On ch=1 n=b7 v=127
27133 On ch=1 n=b7 v=0
27133 On ch=1 n=d#7 v=0
27147 On ch=1 n=b7 v=127
27147 On ch=1 n=d#7 v=127
27153 On ch=1 n=d#7 v=0
27154 On ch=1 n=b7 v=0
27168 On ch=1 n=c#7 v=127
27169 On ch=1 n=a7 v=127
27175 On ch=1 n=c#7 v=0
27176 On ch=1 n=a7 v=0
27190 On ch=1 n=a7 v=127
27190 On ch=1 n=c#7 v=127
27198 On ch=1 n=c#7 v=0
27198 On ch=1 n=a7 v=0
27212 On ch=1 n=g#7 v=127
27213 On ch=1 n=b6 v=127
27218 On ch=1 n=b6 v=0
27218 On ch=1 n=g#7 v=0
27233 On ch=1 n=g#7 v=127
27234 On ch=1 n=b6 v=127
27238 On ch=1 n=b6 v=0
27239 On ch=1 n=g#7 v=0
27242 On ch=1 n=d#5 v=0
27243 On ch=1 n=a5 v=0
27243 On ch=1 n=b5 v=0
27243 On ch=1 n=f#5 v=0
27243 On ch=1 n=a#4 v=0
27257 On ch=1 n=a6 v=127
27257 On ch=1 n=f#7 v=127
27262 On ch=1 n=f#7 v=0
27263 On ch=1 n=a6 v=0
27278 On ch=1 n=a6 v=127
27278 On ch=1 n=f#7 v=127
27279 On ch=1 n=a#4 v=127
27279 On ch=1 n=f#5 v=127
27280 On ch=1 n=d#5 v=127
27280 On ch=1 n=b5 v=127
27282 On ch=1 n=a5 v=127
27284 On ch=1 n=f#7 v=0
27284 On ch=1 n=a6 v=0
27300 On ch=1 n=g#6 v=127
27300 On ch=1 n=e7 v=127
27305 On ch=1 n=g#6 v=0
27306 On ch=1 n=e7 v=0
27321 On ch=1 n=g#6 v=127
27323 On ch=1 n=e7 v=127
27327 On ch=1 n=g#6 v=0
27329 On ch=1 n=e7 v=0
27344 On ch=1 n=d#7 v=127
27344 On ch=1 n=f#6 v=127
27350 On ch=1 n=f#6 v=0
27350 On ch=1 n=d#7 v=0
27364 On ch=1 n=f#6 v=127
27366 On ch=1 n=d#7 v=127
27370 On ch=1 n=d#7 v=0
27370 On ch=1 n=f#6 v=0
27386 On ch=1 n=c#7 v=127
27387 On ch=1 n=e6 v=127
27391 On ch=1 n=e6 v=0
27391 On ch=1 n=c#7 v=0
27407 On ch=1 n=c#7 v=127
27408 On ch=1 n=e6 v=127
27412 On ch=1 n=e6 v=0
27413 On ch=1 n=c#7 v=0
27422 On ch=1 n=d#5 v=0
27423 On ch=1 n=a5 v=0
27424 On ch=1 n=b5 v=0
27424 On ch=1 n=f#5 v=0
27427 On ch=1 n=a#4 v=0
27430 On ch=1 n=d#6 v=127
27430 On ch=1 n=b6 v=127
27436 On ch=1 n=d#6 v=0
27438 On ch=1 n=b6 v=0
27452 On ch=1 n=b6 v=127
27453 On ch=1 n=d#6 v=127
27454 On ch=1 n=f#5 v=127
27454 On ch=1 n=a#4 v=127
27454 On ch=1 n=d#5 v=127
27456 On ch=1 n=b5 v=127
27456 On ch=1 n=a5 v=127
27459 On ch=1 n=d#6 v=0
27462 On ch=1 n=b6 v=0
27474 On ch=1 n=c#6 v=127
27476 On ch=1 n=a6 v=127
27482 On ch=1 n=c#6 v=0
27483 On ch=1 n=a6 v=0
27493 On ch=1 n=c#6 v=127
27493 On ch=1 n=a6 v=127
27501 On ch=1 n=a6 v=0
27501 On ch=1 n=c#6 v=0
27509 On ch=1 n=a5 v=0
27509 On ch=1 n=b5 v=0
27510 On ch=1 n=d#5 v=0
27512 On ch=1 n=f#5 v=0
27516 On ch=1 n=a#4 v=0
27516 On ch=1 n=g#6 v=127
27517 On ch=1 n=b5 v=127
27520 On ch=1 n=b5 v=0
27522 On ch=1 n=g#6 v=0
27538 On ch=1 n=a#4 v=127
27538 On ch=1 n=b5 v=127
27539 On ch=1 n=g#6 v=127
27539 On ch=1 n=d#5 v=127
27539 On ch=1 n=a5 v=127
27540 On ch=1 n=f#5 v=127
27568 On ch=1 n=f#6 v=127
27573 On ch=1 n=b5 v=0
27579 On ch=1 n=d#5 v=0
27580 On ch=1 n=f#5 v=0
27580 On ch=1 n=a#4 v=0
27582 On ch=1 n=a5 v=0
27588 On ch=1 n=d#6 v=127
27589 On ch=1 n=g#6 v=0
27593 On ch=1 n=f#6 v=0
27604 On ch=1 n=b5 v=127
27608 On ch=1 n=d#6 v=0
27622 On ch=1 n=b5 v=0
27622 On ch=1 n=a#5 v=127
27637 On ch=1 n=a#5 v=0
27637 On ch=1 n=b5 v=127
27651 On ch=1 n=c6 v=127
27654 On ch=1 n=b5 v=0
27664 On ch=1 n=c#6 v=127
27667 On ch=1 n=c6 v=0
27677 On ch=1 n=c#6 v=0
27678 On ch=1 n=d6 v=127
27688 On ch=1 n=d#6 v=127
27691 On ch=1 n=d6 v=0
27702 On ch=1 n=e6 v=127
27703 On ch=1 n=d#6 v=0
27717 On ch=1 n=f6 v=127
27719 On ch=1 n=e6 v=0
27733 On ch=1 n=f#6 v=127
27735 On ch=1 n=f6 v=0
27752 On ch=1 n=f6 v=127
27754 On ch=1 n=f#6 v=0
27769 On ch=1 n=f6 v=0
27770 On ch=1 n=g#6 v=127
27793 On ch=1 n=g6 v=127
27795 On ch=1 n=g#6 v=0
27807 On ch=1 n=f#6 v=127
27811 On ch=1 n=g6 v=0
27823 On ch=1 n=f#6 v=0
27823 On ch=1 n=f6 v=127
27835 On ch=1 n=f#6 v=127
27838 On ch=1 n=f6 v=0
27849 On ch=1 n=f6 v=127
27857 On ch=1 n=f#6 v=0
27862 On ch=1 n=e6 v=127
27864 On ch=1 n=f6 v=0
27875 On ch=1 n=d#6 v=127
27877 On ch=1 n=e6 v=0
27887 On ch=1 n=e6 v=127
27890 On ch=1 n=d#6 v=0
27900 On ch=1 n=d#6 v=127
27905 On ch=1 n=e6 v=0
27915 On ch=1 n=d6 v=127
27924 On ch=1 n=d#6 v=0
27931 On ch=1 n=c#6 v=127
27932 On ch=1 n=d6 v=0
27952 On ch=1 n=d6 v=127
27957 On ch=1 n=c#6 v=0
27978 On ch=1 n=c#6 v=127
27979 On ch=1 n=d6 v=0
28002 On ch=1 n=c6 v=127
28006 On ch=1 n=c#6 v=0
28033 On ch=1 n=b5 v=127
28034 On ch=1 n=c6 v=0
28044 On ch=1 n=a#4 v=127
28049 On ch=1 n=c#5 v=127
28057 On ch=1 n=f5 v=127
28062 On ch=1 n=a#5 v=127
28065 On ch=1 n=b5 v=0
28080 On ch=1 n=f4 v=127
28086 On ch=1 n=f4 v=0
28102 On ch=1 n=f4 v=127
28109 On ch=1 n=f4 v=0
28124 On ch=1 n=f5 v=0
28125 On ch=1 n=c#5 v=0
28125 On ch=1 n=e4 v=127
28126 On ch=1 n=a#4 v=0
28130 On ch=1 n=e4 v=0
28131 On ch=1 n=a#5 v=0
28147 On ch=1 n=c#5 v=127
28147 On ch=1 n=a#5 v=127
28149 On ch=1 n=e4 v=127
28149 On ch=1 n=f5 v=127
28152 On ch=1 n=e4 v=0
28170 On ch=1 n=c#4 v=127
28174 On ch=1 n=c#4 v=0
28177 On ch=1 n=a#5 v=0
28187 On ch=1 n=c#4 v=127
28193 On ch=1 n=c#4 v=0
28209 On ch=1 n=c4 v=127
28210 On ch=1 n=f5 v=0
28211 On ch=1 n=a5 v=127
28217 On ch=1 n=c4 v=0
28235 On ch=1 n=f5 v=127
28254 On ch=1 n=a#3 v=127
28259 On ch=1 n=a#3 v=0
28276 On ch=1 n=a#3 v=127
28281 On ch=1 n=a#3 v=0
28297 On ch=1 n=a3 v=127
28302 On ch=1 n=a3 v=0
28318 On ch=1 n=a3 v=127
28324 On ch=1 n=a3 v=0
28341 On ch=1 n=f#3 v=127
28343 On ch=1 n=f#3 v=0
28361 On ch=1 n=f#3 v=127
28366 On ch=1 n=f#3 v=0
28384 On ch=1 n=f3 v=127
28388 On ch=1 n=f3 v=0
28398 On ch=1 n=d#5 v=127
28401 On ch=1 n=a#5 v=127
28405 On ch=1 n=d#6 v=127
28407 On ch=1 n=d#5 v=0
28407 On ch=1 n=a#2 v=127
28409 On ch=1 n=f#6 v=127
28411 On ch=1 n=a5 v=0
28413 On ch=1 n=a#2 v=0
28413 On ch=1 n=f5 v=0
28414 On ch=1 n=a#5 v=0
28415 On ch=1 n=c#5 v=0
28433 On ch=1 n=a#4 v=127
28435 On ch=1 n=a#4 v=0
28456 On ch=1 n=a#4 v=127
28460 On ch=1 n=a#4 v=0
28479 On ch=1 n=a4 v=127
28480 On ch=1 n=f#6 v=0
28481 On ch=1 n=d#6 v=0
28482 On ch=1 n=a4 v=0
28494 On ch=1 n=d#5 v=127
28496 On ch=1 n=a#5 v=127
28502 On ch=1 n=d#6 v=127
28503 On ch=1 n=a4 v=127
28504 On ch=1 n=d#5 v=0
28505 On ch=1 n=f#6 v=127
28509 On ch=1 n=a4 v=0
28525 On ch=1 n=f#4 v=127
28528 On ch=1 n=f#4 v=0
28545 On ch=1 n=f#4 v=127
28550 On ch=1 n=f#4 v=0
28550 On ch=1 n=a#5 v=0
28552 On ch=1 n=d#6 v=0
28556 On ch=1 n=f#6 v=0
28568 On ch=1 n=d6 v=127
28569 On ch=1 n=f4 v=127
28569 On ch=1 n=f6 v=127
28575 On ch=1 n=f4 v=0
28577 On ch=1 n=d6 v=0
28579 On ch=1 n=f6 v=0
28581 On ch=1 n=d#5 v=127
28585 On ch=1 n=a#5 v=127
28590 On ch=1 n=d#6 v=127
28592 On ch=1 n=d#5 v=0
28596 On ch=1 n=f#6 v=127
28614 On ch=1 n=d#4 v=127
28618 On ch=1 n=d#4 v=0
28635 On ch=1 n=d#4 v=127
28639 On ch=1 n=d#4 v=0
28657 On ch=1 n=d4 v=127
28662 On ch=1 n=d4 v=0
28681 On ch=1 n=d4 v=127
28686 On ch=1 n=d4 v=0
28703 On ch=1 n=b3 v=127
28707 On ch=1 n=b3 v=0
28724 On ch=1 n=b3 v=127
28729 On ch=1 n=b3 v=0
28749 On ch=1 n=a#3 v=127
28753 On ch=1 n=a#3 v=0
28762 On ch=1 n=a#5 v=0
28766 On ch=1 n=f#6 v=0
28766 On ch=1 n=d#6 v=0
28770 On ch=1 n=a#2 v=127
28777 On ch=1 n=a#2 v=0
28793 On ch=1 n=f#7 v=127
28794 On ch=1 n=f#8 v=127
28799 On ch=1 n=f#8 v=0
28799 On ch=1 n=f#7 v=0
28815 On ch=1 n=f#7 v=127
28815 On ch=1 n=f#8 v=127
28820 On ch=1 n=f#8 v=0
28820 On ch=1 n=f#7 v=0
28837 On ch=1 n=e7 v=127
28837 On ch=1 n=e8 v=127
28841 On ch=1 n=e8 v=0
28841 On ch=1 n=e7 v=0
28859 On ch=1 n=a#4 v=127
28861 On ch=1 n=f#5 v=127
28861 On ch=1 n=d#5 v=127
28861 On ch=1 n=e7 v=127
28861 On ch=1 n=e8 v=127
28863 On ch=1 n=b5 v=127
28863 On ch=1 n=a5 v=127
28865 On ch=1 n=e8 v=0
28865 On ch=1 n=e7 v=0
28884 On ch=1 n=d#8 v=127
28886 On ch=1 n=d#8 v=0
28905 On ch=1 n=d#7 v=127
28905 On ch=1 n=d#8 v=127
28910 On ch=1 n=d#8 v=0
28910 On ch=1 n=d#7 v=0
28926 On ch=1 n=c#8 v=127
28927 On ch=1 n=c#7 v=127
28930 On ch=1 n=c#7 v=0
28930 On ch=1 n=c#8 v=0
28948 On ch=1 n=c#7 v=127
28948 On ch=1 n=c#8 v=127
28953 On ch=1 n=c#8 v=0
28953 On ch=1 n=c#7 v=0
28968 On ch=1 n=b6 v=127
28969 On ch=1 n=b7 v=127
28974 On ch=1 n=b7 v=0
28974 On ch=1 n=b6 v=0
28991 On ch=1 n=b6 v=127
28992 On ch=1 n=b7 v=127
28993 On ch=1 n=a5 v=0
28993 On ch=1 n=b5 v=0
28993 On ch=1 n=d#5 v=0
28994 On ch=1 n=f#5 v=0
28994 On ch=1 n=a#4 v=0
28995 On ch=1 n=b7 v=0
28995 On ch=1 n=b6 v=0
29011 On ch=1 n=a6 v=127
29013 On ch=1 n=a7 v=127
29015 On ch=1 n=a7 v=0
29015 On ch=1 n=a6 v=0
29033 On ch=1 n=a#4 v=127
29033 On ch=1 n=f#5 v=127
29034 On ch=1 n=d#5 v=127
29034 On ch=1 n=b5 v=127
29035 On ch=1 n=a6 v=127
29035 On ch=1 n=a5 v=127
29037 On ch=1 n=a7 v=127
29039 On ch=1 n=a7 v=0
29039 On ch=1 n=a6 v=0
29056 On ch=1 n=g#6 v=127
29056 On ch=1 n=g#7 v=127
29059 On ch=1 n=g#7 v=0
29059 On ch=1 n=g#6 v=0
29078 On ch=1 n=g#6 v=127
29079 On ch=1 n=g#7 v=127
29080 On ch=1 n=g#6 v=0
29083 On ch=1 n=g#7 v=0
29099 On ch=1 n=f#6 v=127
29099 On ch=1 n=f#7 v=127
29102 On ch=1 n=f#6 v=0
29105 On ch=1 n=f#7 v=0
29120 On ch=1 n=f#6 v=127
29121 On ch=1 n=f#7 v=127
29125 On ch=1 n=f#7 v=0
29125 On ch=1 n=f#6 v=0
29130 On ch=1 n=d#5 v=0
29132 On ch=1 n=a5 v=0
29132 On ch=1 n=b5 v=0
29134 On ch=1 n=f#5 v=0
29135 On ch=1 n=a#4 v=0
29141 On ch=1 n=e6 v=127
29141 On ch=1 n=e7 v=127
29146 On ch=1 n=e7 v=0
29146 On ch=1 n=e6 v=0
29164 On ch=1 n=e6 v=127
29164 On ch=1 n=e7 v=127
29166 On ch=1 n=e6 v=0
29167 On ch=1 n=e7 v=0
29185 On ch=1 n=d#7 v=127
29187 On ch=1 n=d#7 v=0
29208 On ch=1 n=d#6 v=127
29208 On ch=1 n=a#3 v=127
29208 On ch=1 n=d#7 v=127
29209 On ch=1 n=f#4 v=127
29210 On ch=1 n=d#4 v=127
29210 On ch=1 n=b4 v=127
29210 On ch=1 n=a4 v=127
29213 On ch=1 n=d#7 v=0
29213 On ch=1 n=d#6 v=0
29219 On ch=1 n=d#4 v=0
29226 On ch=1 n=d#4 v=127
29230 On ch=1 n=c#6 v=127
29231 On ch=1 n=c#7 v=127
29233 On ch=1 n=c#7 v=0
29234 On ch=1 n=c#6 v=0
29251 On ch=1 n=c#6 v=127
29252 On ch=1 n=d#4 v=0
29253 On ch=1 n=a#3 v=0
29253 On ch=1 n=c#7 v=127
29254 On ch=1 n=a4 v=0
29254 On ch=1 n=b4 v=0
29255 On ch=1 n=c#6 v=0
29256 On ch=1 n=c#7 v=0
29256 On ch=1 n=f#4 v=0
29272 On ch=1 n=b6 v=127
29272 On ch=1 n=b5 v=127
29277 On ch=1 n=b5 v=0
29278 On ch=1 n=b6 v=0
29293 On ch=1 n=a#3 v=127
29295 On ch=1 n=f#4 v=127
29295 On ch=1 n=b6 v=127
29296 On ch=1 n=b5 v=127
29296 On ch=1 n=b4 v=127
29298 On ch=1 n=a4 v=127
29298 On ch=1 n=d#4 v=127
29300 On ch=1 n=b5 v=0
29300 On ch=1 n=b6 v=0
29316 On ch=1 n=a6 v=127
29316 On ch=1 n=a5 v=127
29318 On ch=1 n=a5 v=0
29321 On ch=1 n=a6 v=0
29337 On ch=1 n=a5 v=127
29338 On ch=1 n=a6 v=127
29340 On ch=1 n=d#4 v=0
29340 On ch=1 n=f#4 v=0
29342 On ch=1 n=a6 v=0
29342 On ch=1 n=a4 v=0
29343 On ch=1 n=a5 v=0
29343 On ch=1 n=b4 v=0
29343 On ch=1 n=a#3 v=0
29359 On ch=1 n=g#5 v=127
29359 On ch=1 n=g#6 v=127
29363 On ch=1 n=g#6 v=0
29364 On ch=1 n=g#5 v=0
29383 On ch=1 n=g#6 v=127
29383 On ch=1 n=g#5 v=127
29384 On ch=1 n=a#3 v=127
29384 On ch=1 n=b4 v=127
29384 On ch=1 n=d#4 v=127
29385 On ch=1 n=a4 v=127
29388 On ch=1 n=g#5 v=0
29390 On ch=1 n=g#6 v=0
29406 On ch=1 n=f#5 v=127
29406 On ch=1 n=f#6 v=127
29411 On ch=1 n=f#6 v=0
29412 On ch=1 n=f#5 v=0
29428 On ch=1 n=f#5 v=127
29428 On ch=1 n=f#6 v=127
29433 On ch=1 n=f#6 v=0
29433 On ch=1 n=f#5 v=0
29439 On ch=1 n=a4 v=0
29439 On ch=1 n=d#4 v=0
29439 On ch=1 n=b4 v=0
29440 On ch=1 n=a#3 v=0
29449 On ch=1 n=f5 v=127
29449 On ch=1 n=f6 v=127
29454 On ch=1 n=f6 v=0
29455 On ch=1 n=f5 v=0
29469 On ch=1 n=a#2 v=127
29474 On ch=1 n=a#2 v=0
29490 On ch=1 n=a#5 v=127
29490 On ch=1 n=f6 v=127
29491 On ch=1 n=d5 v=127
29493 On ch=1 n=a#5 v=0
29495 On ch=1 n=f6 v=0
29497 On ch=1 n=d5 v=0
29511 On ch=1 n=f5 v=127
29511 On ch=1 n=f6 v=127
29512 On ch=1 n=a#4 v=127
29517 On ch=1 n=f6 v=0
29517 On ch=1 n=f5 v=0
29518 On ch=1 n=a#4 v=0
29533 On ch=1 n=e6 v=127
29533 On ch=1 n=a#5 v=127
29533 On ch=1 n=d5 v=127
29535 On ch=1 n=a#5 v=0
29538 On ch=1 n=e6 v=0
29541 On ch=1 n=d5 v=0
29556 On ch=1 n=e6 v=127
29556 On ch=1 n=f4 v=127
29562 On ch=1 n=e6 v=0
29565 On ch=1 n=f4 v=0
29577 On ch=1 n=a#5 v=127
29578 On ch=1 n=d6 v=127
29578 On ch=1 n=f5 v=127
29581 On ch=1 n=d6 v=0
29581 On ch=1 n=a#5 v=0
29583 On ch=1 n=f5 v=0
29599 On ch=1 n=d6 v=127
29599 On ch=1 n=f5 v=127
29599 On ch=1 n=a#4 v=127
29605 On ch=1 n=f5 v=0
29605 On ch=1 n=d6 v=0
29606 On ch=1 n=a#4 v=0
29621 On ch=1 n=e5 v=127
29621 On ch=1 n=c#6 v=127
29622 On ch=1 n=a#5 v=127
29626 On ch=1 n=a#5 v=0
29626 On ch=1 n=c#6 v=0
29626 On ch=1 n=e5 v=0
29644 On ch=1 n=a#2 v=127
29647 On ch=1 n=a#2 v=0
29664 On ch=1 n=a#5 v=127
29665 On ch=1 n=d5 v=127
29666 On ch=1 n=f6 v=127
29670 On ch=1 n=f6 v=0
29670 On ch=1 n=a#5 v=0
29671 On ch=1 n=d5 v=0
29688 On ch=1 n=f6 v=127
29689 On ch=1 n=f5 v=127
29689 On ch=1 n=a#4 v=127
29693 On ch=1 n=f5 v=0
29694 On ch=1 n=a#4 v=0
29694 On ch=1 n=f6 v=0
29710 On ch=1 n=e6 v=127
29710 On ch=1 n=a#5 v=127
29711 On ch=1 n=d5 v=127
29715 On ch=1 n=a#5 v=0
29716 On ch=1 n=d5 v=0
29716 On ch=1 n=e6 v=0
29733 On ch=1 n=f4 v=127
29734 On ch=1 n=e6 v=127
29739 On ch=1 n=e6 v=0
29739 On ch=1 n=f4 v=0
29749 On ch=1 n=a#5 v=127
29749 On ch=1 n=f5 v=127
29749 On ch=1 n=d6 v=127
29755 On ch=1 n=a#5 v=0
29756 On ch=1 n=d6 v=0
29757 On ch=1 n=f5 v=0
29767 On ch=1 n=d6 v=127
29767 On ch=1 n=f5 v=127
29768 On ch=1 n=a#4 v=127
29774 On ch=1 n=f5 v=0
29775 On ch=1 n=d6 v=0
29776 On ch=1 n=a#4 v=0
29790 On ch=1 n=e5 v=127
29790 On ch=1 n=a#5 v=127
29791 On ch=1 n=c#6 v=127
29797 On ch=1 n=c#6 v=0
29797 On ch=1 n=a#5 v=0
29797 On ch=1 n=e5 v=0
29809 On ch=1 n=a#2 v=127
29815 On ch=1 n=a#2 v=0
29832 On ch=1 n=a#5 v=127
29832 On ch=1 n=d5 v=127
29833 On ch=1 n=f6 v=127
29837 On ch=1 n=f6 v=0
29837 On ch=1 n=a#5 v=0
29838 On ch=1 n=d5 v=0
29854 On ch=1 n=f6 v=127
29855 On ch=1 n=f5 v=127
29856 On ch=1 n=a#4 v=127
29857 On ch=1 n=f5 v=0
29860 On ch=1 n=a#4 v=0
29860 On ch=1 n=f6 v=0
29876 On ch=1 n=e6 v=127
29876 On ch=1 n=d5 v=127
29876 On ch=1 n=a#5 v=127
29878 On ch=1 n=a#5 v=0
29881 On ch=1 n=d5 v=0
29881 On ch=1 n=e6 v=0
29898 On ch=1 n=e6 v=127
29899 On ch=1 n=f4 v=127
29904 On ch=1 n=e6 v=0
29905 On ch=1 n=f4 v=0
29915 On ch=1 n=a#5 v=127
29915 On ch=1 n=f5 v=127
29915 On ch=1 n=d6 v=127
29921 On ch=1 n=d6 v=0
29921 On ch=1 n=a#5 v=0
29923 On ch=1 n=f5 v=0
29937 On ch=1 n=d6 v=127
29938 On ch=1 n=a#4 v=127
29938 On ch=1 n=f5 v=127
29943 On ch=1 n=f5 v=0
29944 On ch=1 n=a#4 v=0
29944 On ch=1 n=d6 v=0
29959 On ch=1 n=e5 v=127
29959 On ch=1 n=c#6 v=127
29960 On ch=1 n=a#5 v=127
29965 On ch=1 n=a#5 v=0
29965 On ch=1 n=c#6 v=0
29965 On ch=1 n=e5 v=0
29980 On ch=1 n=e6 v=127
29988 On ch=1 n=e6 v=0
30000 On ch=1 n=d6 v=127
30000 On ch=1 n=f5 v=127
30000 On ch=1 n=a#5 v=127
30006 On ch=1 n=a#5 v=0
30006 On ch=1 n=d6 v=0
30008 On ch=1 n=f5 v=0
30022 On ch=1 n=d6 v=127
30022 On ch=1 n=f5 v=127
30023 On ch=1 n=a#4 v=127
30028 On ch=1 n=a#4 v=0
30028 On ch=1 n=f5 v=0
30029 On ch=1 n=d6 v=0
30045 On ch=1 n=e5 v=127
30045 On ch=1 n=a#5 v=127
30046 On ch=1 n=c#6 v=127
30050 On ch=1 n=c#6 v=0
30050 On ch=1 n=a#5 v=0
30050 On ch=1 n=e5 v=0
30068 On ch=1 n=e6 v=127
30073 On ch=1 n=e6 v=0
30088 On ch=1 n=f5 v=127
30089 On ch=1 n=d6 v=127
30089 On ch=1 n=a#5 v=127
30094 On ch=1 n=a#5 v=0
30094 On ch=1 n=d6 v=0
30094 On ch=1 n=f5 v=0
30110 On ch=1 n=d6 v=127
30110 On ch=1 n=f5 v=127
30110 On ch=1 n=a#4 v=127
30116 On ch=1 n=f5 v=0
30116 On ch=1 n=d6 v=0
30117 On ch=1 n=a#4 v=0
30131 On ch=1 n=e5 v=127
30131 On ch=1 n=a#5 v=127
30132 On ch=1 n=c#6 v=127
30136 On ch=1 n=a#5 v=0
30137 On ch=1 n=c#6 v=0
30137 On ch=1 n=e5 v=0
30153 On ch=1 n=e6 v=127
30160 On ch=1 n=e6 v=0
30170 On ch=1 n=d6 v=127
30171 On ch=1 n=a#5 v=127
30171 On ch=1 n=f5 v=127
30176 On ch=1 n=f5 v=0
30176 On ch=1 n=a#5 v=0
30176 On ch=1 n=d6 v=0
30192 On ch=1 n=f5 v=127
30192 On ch=1 n=d6 v=127
30192 On ch=1 n=a#4 v=127
30197 On ch=1 n=a#4 v=0
30197 On ch=1 n=f5 v=0
30199 On ch=1 n=d6 v=0
30214 On ch=1 n=a#5 v=127
30214 On ch=1 n=c#6 v=127
30214 On ch=1 n=e5 v=127
30219 On ch=1 n=a#5 v=0
30220 On ch=1 n=e5 v=0
30220 On ch=1 n=c#6 v=0
30237 On ch=1 n=d6 v=127
30238 On ch=1 n=f5 v=127
30244 On ch=1 n=d6 v=0
30248 On ch=1 n=f5 v=0
30258 On ch=1 n=f6 v=127
30259 On ch=1 n=a#5 v=127
30264 On ch=1 n=f6 v=0
30266 On ch=1 n=a#5 v=0
30278 On ch=1 n=a#6 v=127
30279 On ch=1 n=c#6 v=127
30286 On ch=1 n=a#6 v=0
30288 On ch=1 n=c#6 v=0
30298 On ch=1 n=f6 v=127
30298 On ch=1 n=c#7 v=127
30305 On ch=1 n=c#7 v=0
30309 On ch=1 n=f6 v=0
30317 On ch=1 n=f6 v=127
30319 On ch=1 n=d7 v=127
30327 On ch=1 n=d7 v=0
30330 On ch=1 n=f6 v=0
30339 On ch=1 n=f7 v=127
30339 On ch=1 n=a#6 v=127
30346 On ch=1 n=f7 v=0
30349 On ch=1 n=a#6 v=0
30360 On ch=1 n=a#7 v=127
30361 On ch=1 n=c#7 v=127
30370 On ch=1 n=a#7 v=0
30371 On ch=1 n=c#7 v=0
30383 On ch=1 n=f7 v=127
30383 On ch=1 n=c#8 v=127
30390 On ch=1 n=c#8 v=0
30394 On ch=1 n=f7 v=0
30409 On ch=1 n=d8 v=127
30409 On ch=1 n=f7 v=127
30419 On ch=1 n=f7 v=0
30419 On ch=1 n=d8 v=0
30607 On ch=1 n=f4 v=127
30608 On ch=1 n=f5 v=127
30608 On ch=1 n=a#4 v=127
30610 On ch=1 n=a#3 v=127
30721 On ch=1 n=a3 v=127
30722 On ch=1 n=a4 v=127
30724 On ch=1 n=a#4 v=0
30734 On ch=1 n=a#3 v=0
30762 On ch=1 n=f3 v=127
30762 On ch=1 n=a#3 v=127
30763 On ch=1 n=a3 v=0
30765 On ch=1 n=a#4 v=127
30767 On ch=1 n=a4 v=0
30873 On ch=1 n=f3 v=0
30873 On ch=1 n=f5 v=0
30878 On ch=1 n=a#4 v=0
30879 On ch=1 n=f4 v=0
30883 On ch=1 n=a#3 v=0
30884 On ch=1 n=e3 v=127
30944 On ch=1 n=a#4 v=127
30945 On ch=1 n=f3 v=127
30946 On ch=1 n=f4 v=127
30946 On ch=1 n=f5 v=127
30947 On ch=1 n=a#3 v=127
30950 On ch=1 n=e3 v=0
30950 On ch=1 n=d5 v=127
31003 Par ch=1 c=64 v=127
31033 On ch=1 n=a#3 v=0
31033 On ch=1 n=f3 v=0
31045 On ch=1 n=d5 v=0
31049 On ch=1 n=a#4 v=0
31050 On ch=1 n=f4 v=0
31122 On ch=1 n=a3 v=127
31133 On ch=1 n=a3 v=0
31222 On ch=1 n=d5 v=127
31223 On ch=1 n=a#2 v=127
31223 On ch=1 n=a#4 v=127
31225 On ch=1 n=a#3 v=127
31227 On ch=1 n=f4 v=127
31229 On ch=1 n=f3 v=127
31232 Par ch=1 c=64 v=0
31239 On ch=1 n=f5 v=0
31607 On ch=1 n=a#3 v=0
31608 On ch=1 n=f3 v=0
31610 On ch=1 n=f4 v=0
31611 On ch=1 n=a#4 v=0
31611 On ch=1 n=a#2 v=0
31613 On ch=1 n=d5 v=0
32191 Par ch=1 c=1 v=0
32191 Meta TrkEnd
TrkEnd
