MFile 1 7 480
MTrk
0 SMPTE 0 0 0 0 0
0 Tempo 1333333
0 TimeSig 4/4 24 8
2911 Tempo 1333333
3238 Tempo 1538462
3801 Tempo 2000000
3868 Tempo 1333333
4182 Tempo 1538462
4724 Tempo 1333333
5158 Tempo 1538462
5721 Tempo 1333333
6102 Tempo 1538462
6644 Tempo 2000000
6751 Tempo 1333333
7641 Tempo 2000000
7708 Tempo 1333333
8022 Tempo 1538462
8564 Tempo 1333333
8998 Tempo 1538462
9628 Tempo 1333333
9942 Tempo 1538462
10484 Tempo 2000000
10591 Tempo 1333333
11548 Tempo 1333333
11862 Tempo 1538462
12511 Tempo 1333333
12838 Tempo 1538462
13401 Tempo 2000000
13468 Tempo 1333333
13782 Tempo 1538462
14324 Tempo 2000000
14431 Tempo 1333333
15321 Tempo 2000000
15702 Tempo 1538462
16244 Tempo 2000000
16351 Tempo 1333333
18271 Tempo 1333333
18598 Tempo 1538462
19228 Tempo 1333333
19542 Tempo 1538462
20084 Tempo 2000000
22004 Tempo 759494
32601 Tempo 606061
39385 Tempo 612245
39417 Tempo 618557
39652 Tempo 645161
39890 Tempo 674157
40124 Tempo 705882
40362 Tempo 740741
40597 Tempo 779221
40831 Tempo 821918
41069 Tempo 672957
41303 Tempo 923077
41542 Tempo 983607
41776 Tempo 1052632
41804 Tempo 1052632
42257 Tempo 612245
43231 Tempo 821918
44894 Tempo 705882
48521 Tempo 705882
48664 Tempo 740741
48828 Tempo 779221
48992 Tempo 821918
49155 Tempo 672957
49319 Tempo 923077
49483 Tempo 983607
49647 Tempo 1052632
49747 Tempo 1090909
49897 Tempo 666667
53290 Tempo 618557
53516 Tempo 645161
53774 Tempo 674157
54031 Tempo 705882
54289 Tempo 740741
54547 Tempo 779221
54805 Tempo 821918
55063 Tempo 672957
56530 Tempo 1578947
71946 Tempo 1500000
81066 Tempo 1500000
86960 Tempo 1463415
87183 Tempo 1621622
87436 Tempo 1818182
87689 Tempo 2068966
87942 Tempo 2400000
88035 Tempo 2500000
88270 Tempo 375000
160345 Tempo 387097
160429 Tempo 392157
160645 Tempo 402685
160864 Tempo 413793
161083 Tempo 425532
161299 Tempo 437956
161518 Tempo 451128
161734 Tempo 465116
161953 Tempo 480000
162142 Tempo 491803
162679 Tempo 476190
163283 Tempo 461538
163887 Tempo 447761
164491 Tempo 434783
165095 Tempo 422535
165699 Tempo 410959
166303 Tempo 400000
166907 Tempo 389610
167511 Tempo 379747
167885 Tempo 375000
168204 Tempo 434783
169951 Tempo 375000
180513 Tempo 375000
180751 Tempo 370370
181377 Tempo 361446
182002 Tempo 352941
182627 Tempo 344828
183253 Tempo 337079
183486 Tempo 335196
184762 Tempo 461538
185056 Tempo 447761
185392 Tempo 434783
185723 Tempo 422535
186059 Tempo 410959
186390 Tempo 400000
186725 Tempo 389610
187061 Tempo 379747
187392 Tempo 370370
187516 Tempo 368098
198751 Tempo 387097
199350 Tempo 379747
200300 Tempo 370370
201250 Tempo 361446
202191 Tempo 352941
203141 Tempo 344828
204091 Tempo 337079
204443 Tempo 335196
204443 Meta TrkEnd
TrkEnd
MTrk
0 SeqSpec 43 00 01 00
0 Meta TrkName "Piano"
0 Meta 0x21 00
0 Meta 0x20 00
0 Par ch=1 c=10 v=64
0 Par ch=1 c=0 v=0
5 PrCh ch=1 p=0
10 Par ch=1 c=7 v=127
15 Par ch=1 c=10 v=64
20 Par ch=1 c=91 v=73
25 Par ch=1 c=93 v=0
30 Par ch=1 c=94 v=0
35 Par ch=1 c=5 v=0
40 Par ch=1 c=11 v=127
960 Par ch=1 c=101 v=0
965 Par ch=1 c=100 v=0
970 Par ch=1 c=6 v=2
975 Par ch=1 c=101 v=127
980 Par ch=1 c=100 v=127
2021 Par ch=1 c=64 v=127
2880 On ch=1 n=e6 v=50
2880 On ch=1 n=c6 v=51
2908 On ch=1 n=c6 v=0
2908 On ch=1 n=e6 v=0
2910 On ch=1 n=a6 v=65
2938 On ch=1 n=a6 v=0
2940 On ch=1 n=c6 v=58
2940 On ch=1 n=e6 v=54
2968 On ch=1 n=e6 v=0
2968 On ch=1 n=c6 v=0
2970 On ch=1 n=a6 v=77
2998 On ch=1 n=a6 v=0
3000 On ch=1 n=e6 v=63
3000 On ch=1 n=c6 v=66
3028 On ch=1 n=c6 v=0
3028 On ch=1 n=e6 v=0
3030 On ch=1 n=a6 v=80
3058 On ch=1 n=a6 v=0
3060 On ch=1 n=c6 v=68
3060 On ch=1 n=e6 v=66
3088 On ch=1 n=e6 v=0
3088 On ch=1 n=c6 v=0
3090 On ch=1 n=a6 v=76
3118 On ch=1 n=a6 v=0
3120 On ch=1 n=c6 v=61
3120 On ch=1 n=e6 v=66
3148 On ch=1 n=e6 v=0
3148 On ch=1 n=c6 v=0
3150 On ch=1 n=a6 v=82
3178 On ch=1 n=a6 v=0
3180 On ch=1 n=c6 v=68
3180 On ch=1 n=e6 v=72
3208 On ch=1 n=e6 v=0
3208 On ch=1 n=c6 v=0
3210 On ch=1 n=a6 v=82
3238 On ch=1 n=a6 v=0
3240 On ch=1 n=c6 v=73
3240 On ch=1 n=e6 v=78
3268 On ch=1 n=e6 v=0
3268 On ch=1 n=c6 v=0
3270 On ch=1 n=a6 v=88
3298 On ch=1 n=a6 v=0
3300 On ch=1 n=c6 v=82
3300 On ch=1 n=e6 v=82
3328 On ch=1 n=e6 v=0
3328 On ch=1 n=c6 v=0
3330 On ch=1 n=a6 v=88
3358 On ch=1 n=a6 v=0
3360 On ch=1 n=c6 v=75
3400 On ch=1 n=e6 v=75
3440 On ch=1 n=a6 v=84
3515 Par ch=1 c=64 v=0
3838 On ch=1 n=a6 v=0
3838 On ch=1 n=e6 v=0
3838 On ch=1 n=c6 v=0
3840 On ch=1 n=d6 v=46
3840 On ch=1 n=b5 v=47
3868 On ch=1 n=b5 v=0
3868 On ch=1 n=d6 v=0
3870 On ch=1 n=g6 v=57
3898 On ch=1 n=g6 v=0
3900 On ch=1 n=b5 v=47
3900 On ch=1 n=d6 v=43
3928 On ch=1 n=d6 v=0
3928 On ch=1 n=b5 v=0
3930 On ch=1 n=g6 v=62
3941 Par ch=1 c=64 v=127
3958 On ch=1 n=g6 v=0
3960 On ch=1 n=b5 v=55
3960 On ch=1 n=d6 v=49
3988 On ch=1 n=d6 v=0
3988 On ch=1 n=b5 v=0
3990 On ch=1 n=g6 v=63
4018 On ch=1 n=g6 v=0
4020 On ch=1 n=b5 v=65
4020 On ch=1 n=d6 v=58
4048 On ch=1 n=d6 v=0
4048 On ch=1 n=b5 v=0
4050 On ch=1 n=g6 v=76
4078 On ch=1 n=g6 v=0
4080 On ch=1 n=b5 v=62
4080 On ch=1 n=d6 v=62
4108 On ch=1 n=d6 v=0
4108 On ch=1 n=b5 v=0
4110 On ch=1 n=g6 v=82
4138 On ch=1 n=g6 v=0
4140 On ch=1 n=b5 v=80
4140 On ch=1 n=d6 v=82
4168 On ch=1 n=d6 v=0
4168 On ch=1 n=b5 v=0
4170 On ch=1 n=g6 v=84
4198 On ch=1 n=g6 v=0
4200 On ch=1 n=b5 v=77
4200 On ch=1 n=d6 v=82
4228 On ch=1 n=d6 v=0
4228 On ch=1 n=b5 v=0
4230 On ch=1 n=g6 v=81
4258 On ch=1 n=g6 v=0
4260 On ch=1 n=b5 v=83
4260 On ch=1 n=d6 v=87
4288 On ch=1 n=d6 v=0
4288 On ch=1 n=b5 v=0
4290 On ch=1 n=g6 v=86
4318 On ch=1 n=g6 v=0
4320 On ch=1 n=b5 v=78
4360 On ch=1 n=d6 v=77
4400 On ch=1 n=g6 v=76
4798 On ch=1 n=g6 v=0
4798 On ch=1 n=d6 v=0
4798 On ch=1 n=b5 v=0
4800 On ch=1 n=b5 v=60
4800 On ch=1 n=g5 v=50
4828 On ch=1 n=g5 v=0
4828 On ch=1 n=b5 v=0
4830 On ch=1 n=f6 v=63
4858 On ch=1 n=f6 v=0
4860 On ch=1 n=g5 v=62
4860 On ch=1 n=b5 v=63
4888 On ch=1 n=b5 v=0
4888 On ch=1 n=g5 v=0
4890 On ch=1 n=f6 v=66
4918 On ch=1 n=f6 v=0
4920 On ch=1 n=b5 v=58
4920 On ch=1 n=g5 v=61
4948 On ch=1 n=g5 v=0
4948 On ch=1 n=b5 v=0
4950 On ch=1 n=f6 v=78
4978 On ch=1 n=f6 v=0
4980 On ch=1 n=b5 v=76
4980 On ch=1 n=g5 v=73
5008 On ch=1 n=g5 v=0
5008 On ch=1 n=b5 v=0
5010 On ch=1 n=f6 v=87
5038 On ch=1 n=f6 v=0
5040 On ch=1 n=b5 v=77
5040 On ch=1 n=g5 v=73
5068 On ch=1 n=g5 v=0
5068 On ch=1 n=b5 v=0
5070 On ch=1 n=f6 v=89
5098 On ch=1 n=f6 v=0
5100 On ch=1 n=b5 v=54
5100 On ch=1 n=g5 v=66
5128 On ch=1 n=g5 v=0
5128 On ch=1 n=b5 v=0
5130 On ch=1 n=f6 v=71
5158 On ch=1 n=f6 v=0
5160 On ch=1 n=b5 v=44
5160 On ch=1 n=g5 v=49
5188 On ch=1 n=g5 v=0
5188 On ch=1 n=b5 v=0
5190 On ch=1 n=f6 v=63
5218 On ch=1 n=f6 v=0
5220 On ch=1 n=b5 v=43
5220 On ch=1 n=g5 v=47
5248 On ch=1 n=g5 v=0
5248 On ch=1 n=b5 v=0
5250 On ch=1 n=f6 v=53
5278 On ch=1 n=f6 v=0
5280 On ch=1 n=g5 v=78
5320 On ch=1 n=b5 v=76
5360 On ch=1 n=f6 v=76
5435 Par ch=1 c=64 v=0
5435 Par ch=1 c=64 v=0
5520 On ch=1 n=f6 v=0
5520 On ch=1 n=d6 v=84
5558 On ch=1 n=g5 v=0
5598 On ch=1 n=b5 v=0
5638 On ch=1 n=d6 v=0
5640 On ch=1 n=d#6 v=78
5758 On ch=1 n=d#6 v=0
5760 On ch=1 n=c6 v=58
5760 On ch=1 n=a5 v=56
5788 On ch=1 n=a5 v=0
5788 On ch=1 n=c6 v=0
5790 On ch=1 n=e6 v=56
5818 On ch=1 n=e6 v=0
5820 On ch=1 n=c6 v=46
5820 On ch=1 n=a5 v=46
5848 On ch=1 n=a5 v=0
5848 On ch=1 n=c6 v=0
5850 On ch=1 n=e6 v=62
5861 Par ch=1 c=64 v=127
5861 Par ch=1 c=64 v=127
5878 On ch=1 n=e6 v=0
5880 On ch=1 n=c6 v=62
5880 On ch=1 n=a5 v=58
5908 On ch=1 n=a5 v=0
5908 On ch=1 n=c6 v=0
5910 On ch=1 n=e6 v=65
5938 On ch=1 n=e6 v=0
5940 On ch=1 n=c6 v=63
5940 On ch=1 n=a5 v=57
5968 On ch=1 n=a5 v=0
5968 On ch=1 n=c6 v=0
5970 On ch=1 n=e6 v=65
5998 On ch=1 n=e6 v=0
6000 On ch=1 n=c6 v=63
6000 On ch=1 n=a5 v=62
6028 On ch=1 n=a5 v=0
6028 On ch=1 n=c6 v=0
6030 On ch=1 n=e6 v=65
6058 On ch=1 n=e6 v=0
6060 On ch=1 n=c6 v=65
6060 On ch=1 n=a5 v=62
6088 On ch=1 n=a5 v=0
6088 On ch=1 n=c6 v=0
6090 On ch=1 n=e6 v=70
6118 On ch=1 n=e6 v=0
6120 On ch=1 n=c6 v=71
6120 On ch=1 n=a5 v=72
6148 On ch=1 n=a5 v=0
6148 On ch=1 n=c6 v=0
6150 On ch=1 n=e6 v=68
6178 On ch=1 n=e6 v=0
6180 On ch=1 n=c6 v=65
6180 On ch=1 n=a5 v=62
6208 On ch=1 n=a5 v=0
6208 On ch=1 n=c6 v=0
6210 On ch=1 n=e6 v=75
6238 On ch=1 n=e6 v=0
6240 On ch=1 n=c6 v=52
6240 On ch=1 n=a5 v=52
6268 On ch=1 n=a5 v=0
6268 On ch=1 n=c6 v=0
6270 On ch=1 n=e6 v=68
6298 On ch=1 n=e6 v=0
6300 On ch=1 n=c6 v=60
6300 On ch=1 n=a5 v=49
6328 On ch=1 n=a5 v=0
6328 On ch=1 n=c6 v=0
6330 On ch=1 n=e6 v=68
6358 On ch=1 n=e6 v=0
6360 On ch=1 n=c6 v=62
6360 On ch=1 n=a5 v=62
6388 On ch=1 n=a5 v=0
6388 On ch=1 n=c6 v=0
6390 On ch=1 n=e6 v=76
6418 On ch=1 n=e6 v=0
6420 On ch=1 n=c6 v=71
6420 On ch=1 n=a5 v=62
6448 On ch=1 n=a5 v=0
6448 On ch=1 n=c6 v=0
6450 On ch=1 n=e6 v=67
6478 On ch=1 n=e6 v=0
6480 On ch=1 n=c6 v=73
6480 On ch=1 n=a5 v=70
6508 On ch=1 n=a5 v=0
6508 On ch=1 n=c6 v=0
6510 On ch=1 n=e6 v=75
6538 On ch=1 n=e6 v=0
6540 On ch=1 n=c6 v=76
6540 On ch=1 n=a5 v=75
6568 On ch=1 n=a5 v=0
6568 On ch=1 n=c6 v=0
6570 On ch=1 n=e6 v=76
6598 On ch=1 n=e6 v=0
6600 On ch=1 n=c6 v=78
6600 On ch=1 n=a5 v=71
6628 On ch=1 n=a5 v=0
6628 On ch=1 n=c6 v=0
6630 On ch=1 n=e6 v=70
6658 On ch=1 n=e6 v=0
7120 On ch=1 n=f5 v=77
7160 On ch=1 n=g#5 v=80
7200 On ch=1 n=d6 v=60
7230 On ch=1 n=f5 v=54
7230 On ch=1 n=g#5 v=65
7258 On ch=1 n=g#5 v=0
7258 On ch=1 n=f5 v=0
7260 On ch=1 n=d6 v=66
7288 On ch=1 n=d6 v=0
7290 On ch=1 n=f5 v=58
7290 On ch=1 n=g#5 v=58
7318 On ch=1 n=g#5 v=0
7318 On ch=1 n=f5 v=0
7318 On ch=1 n=d6 v=0
7318 On ch=1 n=g#5 v=0
7318 On ch=1 n=f5 v=0
7320 On ch=1 n=d6 v=53
7348 On ch=1 n=d6 v=0
7350 On ch=1 n=f5 v=55
7350 On ch=1 n=g#5 v=48
7355 Par ch=1 c=64 v=0
7378 On ch=1 n=g#5 v=0
7378 On ch=1 n=f5 v=0
7380 On ch=1 n=d6 v=72
7380 On ch=1 n=e5 v=61
7380 On ch=1 n=a5 v=76
7408 On ch=1 n=d6 v=0
7440 On ch=1 n=c6 v=72
7468 On ch=1 n=a5 v=0
7468 On ch=1 n=e5 v=0
7498 On ch=1 n=c6 v=0
7500 On ch=1 n=a5 v=58
7500 On ch=1 n=e5 v=58
7528 On ch=1 n=e5 v=0
7528 On ch=1 n=a5 v=0
7530 On ch=1 n=c6 v=66
7558 On ch=1 n=c6 v=0
7560 On ch=1 n=a5 v=63
7560 On ch=1 n=e5 v=54
7588 On ch=1 n=e5 v=0
7588 On ch=1 n=a5 v=0
7590 On ch=1 n=c6 v=75
7618 On ch=1 n=c6 v=0
7620 On ch=1 n=e5 v=65
7620 On ch=1 n=a5 v=65
7648 On ch=1 n=a5 v=0
7648 On ch=1 n=e5 v=0
7650 On ch=1 n=c6 v=76
7678 On ch=1 n=c6 v=0
7680 On ch=1 n=d#5 v=66
7714 Par ch=1 c=64 v=127
7720 On ch=1 n=a5 v=56
7740 On ch=1 n=f#5 v=56
7740 On ch=1 n=d#5 v=44
7760 On ch=1 n=c6 v=75
7768 On ch=1 n=f#5 v=0
7768 On ch=1 n=d#5 v=0
7770 On ch=1 n=c6 v=62
7798 On ch=1 n=c6 v=0
7798 On ch=1 n=c6 v=0
7798 On ch=1 n=d#5 v=0
7798 On ch=1 n=a5 v=0
7800 On ch=1 n=f#5 v=44
7800 On ch=1 n=d#5 v=46
7828 On ch=1 n=d#5 v=0
7828 On ch=1 n=f#5 v=0
7830 On ch=1 n=c6 v=55
7858 On ch=1 n=c6 v=0
7860 On ch=1 n=f#5 v=46
7860 On ch=1 n=d#5 v=45
7888 On ch=1 n=d#5 v=0
7888 On ch=1 n=f#5 v=0
7890 On ch=1 n=c6 v=55
7918 On ch=1 n=c6 v=0
7920 On ch=1 n=f#5 v=47
7920 On ch=1 n=d#5 v=52
7948 On ch=1 n=d#5 v=0
7948 On ch=1 n=f#5 v=0
7950 On ch=1 n=c6 v=60
7978 On ch=1 n=c6 v=0
7980 On ch=1 n=f#5 v=56
7980 On ch=1 n=d#5 v=57
8008 On ch=1 n=d#5 v=0
8008 On ch=1 n=f#5 v=0
8010 On ch=1 n=c6 v=72
8038 On ch=1 n=c6 v=0
8040 On ch=1 n=f#5 v=68
8040 On ch=1 n=d#5 v=65
8068 On ch=1 n=d#5 v=0
8068 On ch=1 n=f#5 v=0
8070 On ch=1 n=c6 v=75
8098 On ch=1 n=c6 v=0
8100 On ch=1 n=f#5 v=60
8100 On ch=1 n=d#5 v=57
8128 On ch=1 n=d#5 v=0
8128 On ch=1 n=f#5 v=0
8130 On ch=1 n=c6 v=77
8158 On ch=1 n=c6 v=0
8160 On ch=1 n=f#5 v=47
8160 On ch=1 n=d#5 v=49
8188 On ch=1 n=d#5 v=0
8188 On ch=1 n=f#5 v=0
8190 On ch=1 n=c6 v=75
8218 On ch=1 n=c6 v=0
8220 On ch=1 n=f#5 v=47
8220 On ch=1 n=d#5 v=61
8248 On ch=1 n=d#5 v=0
8248 On ch=1 n=f#5 v=0
8250 On ch=1 n=c6 v=70
8278 On ch=1 n=c6 v=0
8280 On ch=1 n=f#5 v=56
8280 On ch=1 n=d#5 v=63
8308 On ch=1 n=d#5 v=0
8308 On ch=1 n=f#5 v=0
8310 On ch=1 n=c6 v=73
8338 On ch=1 n=c6 v=0
8340 On ch=1 n=f#5 v=70
8340 On ch=1 n=d#5 v=66
8368 On ch=1 n=d#5 v=0
8368 On ch=1 n=f#5 v=0
8370 On ch=1 n=c6 v=76
8398 On ch=1 n=c6 v=0
8400 On ch=1 n=f#5 v=75
8400 On ch=1 n=d#5 v=73
8428 On ch=1 n=d#5 v=0
8428 On ch=1 n=f#5 v=0
8430 On ch=1 n=c6 v=75
8458 On ch=1 n=c6 v=0
8460 On ch=1 n=f#5 v=75
8460 On ch=1 n=d#5 v=73
8488 On ch=1 n=d#5 v=0
8488 On ch=1 n=f#5 v=0
8490 On ch=1 n=c6 v=78
8518 On ch=1 n=c6 v=0
8520 On ch=1 n=f#5 v=83
8520 On ch=1 n=d#5 v=83
8548 On ch=1 n=d#5 v=0
8548 On ch=1 n=f#5 v=0
8550 On ch=1 n=c6 v=84
8578 On ch=1 n=c6 v=0
8580 On ch=1 n=f#5 v=84
8580 On ch=1 n=d#5 v=84
8608 On ch=1 n=d#5 v=0
8608 On ch=1 n=f#5 v=0
8610 On ch=1 n=c6 v=88
8638 On ch=1 n=c6 v=0
8640 On ch=1 n=d#5 v=76
8688 On ch=1 n=f#5 v=90
8736 On ch=1 n=a5 v=91
8784 On ch=1 n=c6 v=90
8830 On ch=1 n=c6 v=0
8830 On ch=1 n=a5 v=0
8830 On ch=1 n=f#5 v=0
8830 On ch=1 n=d#5 v=0
8832 On ch=1 n=a5 v=98
8878 On ch=1 n=a5 v=0
8880 On ch=1 n=f#5 v=83
8926 On ch=1 n=f#5 v=0
8928 On ch=1 n=d#5 v=73
8974 On ch=1 n=d#5 v=0
8976 On ch=1 n=f#5 v=83
9022 On ch=1 n=f#5 v=0
9024 On ch=1 n=a5 v=87
9070 On ch=1 n=a5 v=0
9072 On ch=1 n=b5 v=90
9074 Par ch=1 c=64 v=0
9118 On ch=1 n=b5 v=0
9120 On ch=1 n=d6 v=84
9238 On ch=1 n=d6 v=0
9240 On ch=1 n=c6 v=75
9358 On ch=1 n=c6 v=0
9360 On ch=1 n=b5 v=68
9478 On ch=1 n=b5 v=0
9480 On ch=1 n=a5 v=64
9520 On ch=1 n=e5 v=62
9560 On ch=1 n=g#5 v=65
9598 On ch=1 n=a5 v=0
9600 On ch=1 n=b5 v=77
9628 Par ch=1 c=64 v=127
9718 On ch=1 n=g#5 v=0
9718 On ch=1 n=e5 v=0
9778 On ch=1 n=b5 v=0
9792 On ch=1 n=g#5 v=60
9838 On ch=1 n=g#5 v=0
9840 On ch=1 n=e5 v=68
9886 On ch=1 n=e5 v=0
9888 On ch=1 n=g#5 v=66
9934 On ch=1 n=g#5 v=0
9936 On ch=1 n=b5 v=63
9982 On ch=1 n=b5 v=0
9984 On ch=1 n=e6 v=75
10030 On ch=1 n=e6 v=0
10032 On ch=1 n=g#6 v=72
10078 On ch=1 n=g#6 v=0
10080 On ch=1 n=b6 v=78
10258 On ch=1 n=b6 v=0
10260 On ch=1 n=e7 v=77
10318 On ch=1 n=e7 v=0
10320 On ch=1 n=b6 v=78
10498 On ch=1 n=b6 v=0
10500 On ch=1 n=e7 v=71
10558 On ch=1 n=e7 v=0
10560 On ch=1 n=b6 v=76
10738 On ch=1 n=b6 v=0
10740 On ch=1 n=e7 v=75
10798 On ch=1 n=e7 v=0
10800 On ch=1 n=b6 v=70
11038 On ch=1 n=b6 v=0
11040 On ch=1 n=e7 v=53
11098 On ch=1 n=e7 v=0
11476 Par ch=1 c=64 v=0
11621 Par ch=1 c=64 v=127
12480 On ch=1 n=c6 v=51
12480 On ch=1 n=e6 v=50
12508 On ch=1 n=e6 v=0
12508 On ch=1 n=c6 v=0
12510 On ch=1 n=a6 v=65
12538 On ch=1 n=a6 v=0
12540 On ch=1 n=e6 v=54
12540 On ch=1 n=c6 v=58
12568 On ch=1 n=c6 v=0
12568 On ch=1 n=e6 v=0
12570 On ch=1 n=a6 v=77
12598 On ch=1 n=a6 v=0
12600 On ch=1 n=c6 v=66
12600 On ch=1 n=e6 v=63
12628 On ch=1 n=e6 v=0
12628 On ch=1 n=c6 v=0
12630 On ch=1 n=a6 v=80
12658 On ch=1 n=a6 v=0
12660 On ch=1 n=e6 v=66
12660 On ch=1 n=c6 v=68
12688 On ch=1 n=c6 v=0
12688 On ch=1 n=e6 v=0
12690 On ch=1 n=a6 v=76
12718 On ch=1 n=a6 v=0
12720 On ch=1 n=e6 v=66
12720 On ch=1 n=c6 v=61
12748 On ch=1 n=c6 v=0
12748 On ch=1 n=e6 v=0
12750 On ch=1 n=a6 v=82
12778 On ch=1 n=a6 v=0
12780 On ch=1 n=e6 v=72
12780 On ch=1 n=c6 v=68
12808 On ch=1 n=c6 v=0
12808 On ch=1 n=e6 v=0
12810 On ch=1 n=a6 v=82
12838 On ch=1 n=a6 v=0
12840 On ch=1 n=e6 v=78
12840 On ch=1 n=c6 v=73
12868 On ch=1 n=c6 v=0
12868 On ch=1 n=e6 v=0
12870 On ch=1 n=a6 v=88
12898 On ch=1 n=a6 v=0
12900 On ch=1 n=e6 v=82
12900 On ch=1 n=c6 v=82
12928 On ch=1 n=c6 v=0
12928 On ch=1 n=e6 v=0
12930 On ch=1 n=a6 v=88
12958 On ch=1 n=a6 v=0
13000 On ch=1 n=g#6 v=75
13040 On ch=1 n=c6 v=51
13040 On ch=1 n=e6 v=58
13040 On ch=1 n=a6 v=84
13115 Par ch=1 c=64 v=0
13438 On ch=1 n=a6 v=0
13438 On ch=1 n=e6 v=0
13438 On ch=1 n=c6 v=0
13438 On ch=1 n=g#6 v=0
13440 On ch=1 n=b5 v=47
13440 On ch=1 n=d6 v=46
13468 On ch=1 n=d6 v=0
13468 On ch=1 n=b5 v=0
13470 On ch=1 n=g6 v=57
13498 On ch=1 n=g6 v=0
13500 On ch=1 n=d6 v=43
13500 On ch=1 n=b5 v=47
13528 On ch=1 n=b5 v=0
13528 On ch=1 n=d6 v=0
13530 On ch=1 n=g6 v=62
13541 Par ch=1 c=64 v=127
13558 On ch=1 n=g6 v=0
13560 On ch=1 n=d6 v=49
13560 On ch=1 n=b5 v=55
13588 On ch=1 n=b5 v=0
13588 On ch=1 n=d6 v=0
13590 On ch=1 n=g6 v=63
13618 On ch=1 n=g6 v=0
13620 On ch=1 n=d6 v=58
13620 On ch=1 n=b5 v=65
13648 On ch=1 n=b5 v=0
13648 On ch=1 n=d6 v=0
13650 On ch=1 n=g6 v=76
13678 On ch=1 n=g6 v=0
13680 On ch=1 n=d6 v=62
13680 On ch=1 n=b5 v=62
13708 On ch=1 n=b5 v=0
13708 On ch=1 n=d6 v=0
13710 On ch=1 n=g6 v=82
13738 On ch=1 n=g6 v=0
13740 On ch=1 n=d6 v=82
13740 On ch=1 n=b5 v=80
13768 On ch=1 n=b5 v=0
13768 On ch=1 n=d6 v=0
13770 On ch=1 n=g6 v=84
13798 On ch=1 n=g6 v=0
13800 On ch=1 n=d6 v=82
13800 On ch=1 n=b5 v=77
13828 On ch=1 n=b5 v=0
13828 On ch=1 n=d6 v=0
13830 On ch=1 n=g6 v=81
13858 On ch=1 n=g6 v=0
13860 On ch=1 n=d6 v=87
13860 On ch=1 n=b5 v=83
13888 On ch=1 n=b5 v=0
13888 On ch=1 n=d6 v=0
13890 On ch=1 n=g6 v=86
13918 On ch=1 n=g6 v=0
13960 On ch=1 n=f#6 v=77
14000 On ch=1 n=d6 v=63
14000 On ch=1 n=b5 v=61
14000 On ch=1 n=g6 v=76
14398 On ch=1 n=g6 v=0
14398 On ch=1 n=b5 v=0
14398 On ch=1 n=d6 v=0
14398 On ch=1 n=f#6 v=0
14400 On ch=1 n=g5 v=50
14400 On ch=1 n=b5 v=60
14428 On ch=1 n=b5 v=0
14428 On ch=1 n=g5 v=0
14430 On ch=1 n=f6 v=63
14458 On ch=1 n=f6 v=0
14460 On ch=1 n=b5 v=63
14460 On ch=1 n=g5 v=62
14488 On ch=1 n=g5 v=0
14488 On ch=1 n=b5 v=0
14490 On ch=1 n=f6 v=66
14518 On ch=1 n=f6 v=0
14520 On ch=1 n=g5 v=61
14520 On ch=1 n=b5 v=58
14548 On ch=1 n=b5 v=0
14548 On ch=1 n=g5 v=0
14550 On ch=1 n=f6 v=78
14578 On ch=1 n=f6 v=0
14580 On ch=1 n=g5 v=73
14580 On ch=1 n=b5 v=76
14608 On ch=1 n=b5 v=0
14608 On ch=1 n=g5 v=0
14610 On ch=1 n=f6 v=87
14638 On ch=1 n=f6 v=0
14640 On ch=1 n=g5 v=73
14640 On ch=1 n=b5 v=77
14668 On ch=1 n=b5 v=0
14668 On ch=1 n=g5 v=0
14670 On ch=1 n=f6 v=89
14698 On ch=1 n=f6 v=0
14700 On ch=1 n=g5 v=66
14700 On ch=1 n=b5 v=54
14728 On ch=1 n=b5 v=0
14728 On ch=1 n=g5 v=0
14730 On ch=1 n=f6 v=71
14758 On ch=1 n=f6 v=0
14760 On ch=1 n=g5 v=49
14760 On ch=1 n=b5 v=44
14788 On ch=1 n=b5 v=0
14788 On ch=1 n=g5 v=0
14790 On ch=1 n=f6 v=63
14818 On ch=1 n=f6 v=0
14820 On ch=1 n=g5 v=47
14820 On ch=1 n=b5 v=43
14848 On ch=1 n=b5 v=0
14848 On ch=1 n=g5 v=0
14850 On ch=1 n=f6 v=53
14878 On ch=1 n=f6 v=0
14920 On ch=1 n=e6 v=50
14920 On ch=1 n=c#6 v=46
14920 On ch=1 n=e6 v=76
14958 On ch=1 n=c#6 v=0
14958 On ch=1 n=e6 v=0
14960 On ch=1 n=g5 v=54
14960 On ch=1 n=b5 v=70
14960 On ch=1 n=d6 v=51
14960 On ch=1 n=f6 v=58
14960 On ch=1 n=f6 v=76
15035 Par ch=1 c=64 v=0
15035 Par ch=1 c=64 v=0
15120 On ch=1 n=f6 v=0
15120 On ch=1 n=d6 v=84
15158 On ch=1 n=f6 v=0
15158 On ch=1 n=d6 v=0
15158 On ch=1 n=b5 v=0
15158 On ch=1 n=g5 v=0
15198 On ch=1 n=e6 v=0
15238 On ch=1 n=d6 v=0
15240 On ch=1 n=d#6 v=78
15358 On ch=1 n=d#6 v=0
15360 On ch=1 n=a5 v=56
15360 On ch=1 n=c6 v=58
15388 On ch=1 n=c6 v=0
15388 On ch=1 n=a5 v=0
15390 On ch=1 n=e6 v=56
15418 On ch=1 n=e6 v=0
15420 On ch=1 n=a5 v=46
15420 On ch=1 n=c6 v=46
15448 On ch=1 n=c6 v=0
15448 On ch=1 n=a5 v=0
15450 On ch=1 n=e6 v=62
15461 Par ch=1 c=64 v=127
15461 Par ch=1 c=64 v=127
15461 Par ch=1 c=64 v=127
15461 Par ch=1 c=64 v=127
15478 On ch=1 n=e6 v=0
15480 On ch=1 n=a5 v=58
15480 On ch=1 n=c6 v=62
15508 On ch=1 n=c6 v=0
15508 On ch=1 n=a5 v=0
15510 On ch=1 n=e6 v=65
15538 On ch=1 n=e6 v=0
15540 On ch=1 n=a5 v=57
15540 On ch=1 n=c6 v=63
15568 On ch=1 n=c6 v=0
15568 On ch=1 n=a5 v=0
15570 On ch=1 n=e6 v=65
15598 On ch=1 n=e6 v=0
15600 On ch=1 n=a5 v=62
15600 On ch=1 n=c6 v=63
15628 On ch=1 n=c6 v=0
15628 On ch=1 n=a5 v=0
15630 On ch=1 n=e6 v=65
15658 On ch=1 n=e6 v=0
15660 On ch=1 n=a5 v=62
15660 On ch=1 n=c6 v=65
15688 On ch=1 n=c6 v=0
15688 On ch=1 n=a5 v=0
15690 On ch=1 n=e6 v=70
15718 On ch=1 n=e6 v=0
15720 On ch=1 n=a5 v=72
15720 On ch=1 n=c6 v=71
15748 On ch=1 n=c6 v=0
15748 On ch=1 n=a5 v=0
15750 On ch=1 n=e6 v=68
15778 On ch=1 n=e6 v=0
15780 On ch=1 n=a5 v=62
15780 On ch=1 n=c6 v=65
15808 On ch=1 n=c6 v=0
15808 On ch=1 n=a5 v=0
15810 On ch=1 n=e6 v=75
15838 On ch=1 n=e6 v=0
15840 On ch=1 n=a5 v=52
15840 On ch=1 n=c6 v=52
15868 On ch=1 n=c6 v=0
15868 On ch=1 n=a5 v=0
15870 On ch=1 n=e6 v=68
15898 On ch=1 n=e6 v=0
15900 On ch=1 n=a5 v=49
15900 On ch=1 n=c6 v=60
15928 On ch=1 n=c6 v=0
15928 On ch=1 n=a5 v=0
15930 On ch=1 n=e6 v=68
15958 On ch=1 n=e6 v=0
15960 On ch=1 n=a5 v=62
15960 On ch=1 n=c6 v=62
15988 On ch=1 n=c6 v=0
15988 On ch=1 n=a5 v=0
15990 On ch=1 n=e6 v=76
16018 On ch=1 n=e6 v=0
16020 On ch=1 n=a5 v=62
16020 On ch=1 n=c6 v=71
16048 On ch=1 n=c6 v=0
16048 On ch=1 n=a5 v=0
16050 On ch=1 n=e6 v=67
16078 On ch=1 n=e6 v=0
16080 On ch=1 n=a5 v=70
16080 On ch=1 n=c6 v=73
16108 On ch=1 n=c6 v=0
16108 On ch=1 n=a5 v=0
16110 On ch=1 n=e6 v=75
16138 On ch=1 n=e6 v=0
16140 On ch=1 n=a5 v=75
16140 On ch=1 n=c6 v=76
16168 On ch=1 n=c6 v=0
16168 On ch=1 n=a5 v=0
16170 On ch=1 n=e6 v=76
16198 On ch=1 n=e6 v=0
16200 On ch=1 n=a5 v=71
16200 On ch=1 n=c6 v=78
16228 On ch=1 n=c6 v=0
16228 On ch=1 n=a5 v=0
16230 On ch=1 n=e6 v=70
16258 On ch=1 n=e6 v=0
16720 On ch=1 n=f5 v=67
16760 On ch=1 n=g#5 v=67
16800 On ch=1 n=d6 v=70
16878 On ch=1 n=d6 v=0
16890 On ch=1 n=a#5 v=62
16890 On ch=1 n=c#6 v=73
16918 On ch=1 n=c#6 v=0
16918 On ch=1 n=a#5 v=0
16918 On ch=1 n=g#5 v=0
16918 On ch=1 n=f5 v=0
16920 On ch=1 n=b5 v=63
16920 On ch=1 n=d6 v=65
16955 Par ch=1 c=64 v=0
16955 Par ch=1 c=64 v=0
16960 On ch=1 n=e5 v=70
17000 On ch=1 n=a5 v=66
17008 On ch=1 n=d6 v=0
17008 On ch=1 n=b5 v=0
17040 On ch=1 n=c6 v=75
17130 On ch=1 n=g#5 v=47
17130 On ch=1 n=b5 v=77
17158 On ch=1 n=b5 v=0
17158 On ch=1 n=g#5 v=0
17160 On ch=1 n=c6 v=63
17160 On ch=1 n=a5 v=45
17198 On ch=1 n=c6 v=0
17198 On ch=1 n=a5 v=0
17198 On ch=1 n=e5 v=0
17278 On ch=1 n=a5 v=0
17278 On ch=1 n=c6 v=0
17280 On ch=1 n=a5 v=61
17280 On ch=1 n=f#5 v=44
17280 On ch=1 n=d#5 v=42
17308 On ch=1 n=d#5 v=0
17308 On ch=1 n=f#5 v=0
17308 On ch=1 n=a5 v=0
17310 On ch=1 n=c6 v=55
17338 On ch=1 n=c6 v=0
17340 On ch=1 n=a5 v=65
17340 On ch=1 n=f#5 v=48
17340 On ch=1 n=d#5 v=41
17368 On ch=1 n=d#5 v=0
17368 On ch=1 n=f#5 v=0
17368 On ch=1 n=a5 v=0
17370 On ch=1 n=c6 v=73
17381 Par ch=1 c=64 v=127
17381 Par ch=1 c=64 v=127
17381 Par ch=1 c=64 v=127
17381 Par ch=1 c=64 v=127
17398 On ch=1 n=c6 v=0
17400 On ch=1 n=a5 v=65
17400 On ch=1 n=d#5 v=49
17400 On ch=1 n=f#5 v=47
17428 On ch=1 n=f#5 v=0
17428 On ch=1 n=d#5 v=0
17428 On ch=1 n=a5 v=0
17430 On ch=1 n=c6 v=72
17458 On ch=1 n=c6 v=0
17460 On ch=1 n=a5 v=72
17460 On ch=1 n=f#5 v=65
17460 On ch=1 n=d#5 v=67
17488 On ch=1 n=d#5 v=0
17488 On ch=1 n=f#5 v=0
17488 On ch=1 n=a5 v=0
17490 On ch=1 n=c6 v=67
17518 On ch=1 n=c6 v=0
17520 On ch=1 n=a5 v=71
17520 On ch=1 n=f#5 v=65
17520 On ch=1 n=d#5 v=65
17548 On ch=1 n=d#5 v=0
17548 On ch=1 n=f#5 v=0
17548 On ch=1 n=a5 v=0
17550 On ch=1 n=c6 v=65
17578 On ch=1 n=c6 v=0
17580 On ch=1 n=a5 v=67
17580 On ch=1 n=f#5 v=61
17580 On ch=1 n=d#5 v=70
17608 On ch=1 n=d#5 v=0
17608 On ch=1 n=f#5 v=0
17608 On ch=1 n=a5 v=0
17610 On ch=1 n=c6 v=75
17638 On ch=1 n=c6 v=0
17640 On ch=1 n=a5 v=70
17640 On ch=1 n=f#5 v=75
17640 On ch=1 n=d#5 v=70
17668 On ch=1 n=d#5 v=0
17668 On ch=1 n=f#5 v=0
17668 On ch=1 n=a5 v=0
17670 On ch=1 n=c6 v=76
17698 On ch=1 n=c6 v=0
17700 On ch=1 n=f#5 v=71
17700 On ch=1 n=a5 v=75
17700 On ch=1 n=d#5 v=66
17728 On ch=1 n=d#5 v=0
17728 On ch=1 n=a5 v=0
17728 On ch=1 n=f#5 v=0
17730 On ch=1 n=c6 v=87
17758 On ch=1 n=c6 v=0
17760 On ch=1 n=a5 v=61
17760 On ch=1 n=d#5 v=38
17760 On ch=1 n=f#5 v=43
17788 On ch=1 n=f#5 v=0
17788 On ch=1 n=d#5 v=0
17788 On ch=1 n=a5 v=0
17790 On ch=1 n=c6 v=57
17818 On ch=1 n=c6 v=0
17820 On ch=1 n=a5 v=76
17820 On ch=1 n=f#5 v=68
17820 On ch=1 n=d#5 v=52
17848 On ch=1 n=d#5 v=0
17848 On ch=1 n=f#5 v=0
17848 On ch=1 n=a5 v=0
17850 On ch=1 n=c6 v=75
17878 On ch=1 n=c6 v=0
17880 On ch=1 n=f#5 v=62
17880 On ch=1 n=d#5 v=58
17880 On ch=1 n=a5 v=73
17908 On ch=1 n=a5 v=0
17908 On ch=1 n=d#5 v=0
17908 On ch=1 n=f#5 v=0
17910 On ch=1 n=c6 v=72
17938 On ch=1 n=c6 v=0
17940 On ch=1 n=a5 v=72
17940 On ch=1 n=d#5 v=60
17940 On ch=1 n=f#5 v=63
17968 On ch=1 n=f#5 v=0
17968 On ch=1 n=d#5 v=0
17968 On ch=1 n=a5 v=0
17970 On ch=1 n=c6 v=65
17998 On ch=1 n=c6 v=0
18000 On ch=1 n=a5 v=72
18000 On ch=1 n=d#5 v=62
18000 On ch=1 n=f#5 v=65
18028 On ch=1 n=f#5 v=0
18028 On ch=1 n=d#5 v=0
18028 On ch=1 n=a5 v=0
18030 On ch=1 n=c6 v=75
18058 On ch=1 n=c6 v=0
18060 On ch=1 n=f#5 v=71
18060 On ch=1 n=a5 v=76
18060 On ch=1 n=d#5 v=68
18088 On ch=1 n=d#5 v=0
18088 On ch=1 n=a5 v=0
18088 On ch=1 n=f#5 v=0
18090 On ch=1 n=c6 v=76
18118 On ch=1 n=c6 v=0
18120 On ch=1 n=f#5 v=78
18120 On ch=1 n=d#5 v=81
18120 On ch=1 n=a5 v=81
18148 On ch=1 n=a5 v=0
18148 On ch=1 n=d#5 v=0
18148 On ch=1 n=f#5 v=0
18150 On ch=1 n=c6 v=84
18178 On ch=1 n=c6 v=0
18180 On ch=1 n=f#5 v=82
18180 On ch=1 n=d#5 v=82
18180 On ch=1 n=a5 v=80
18208 On ch=1 n=a5 v=0
18208 On ch=1 n=d#5 v=0
18208 On ch=1 n=f#5 v=0
18210 On ch=1 n=c6 v=84
18238 On ch=1 n=c6 v=0
18240 On ch=1 n=d#5 v=76
18288 On ch=1 n=f#5 v=90
18336 On ch=1 n=a5 v=91
18384 On ch=1 n=c6 v=90
18430 On ch=1 n=c6 v=0
18430 On ch=1 n=a5 v=0
18430 On ch=1 n=f#5 v=0
18430 On ch=1 n=d#5 v=0
18432 On ch=1 n=a5 v=98
18478 On ch=1 n=a5 v=0
18480 On ch=1 n=f#5 v=83
18526 On ch=1 n=f#5 v=0
18528 On ch=1 n=d#5 v=73
18574 On ch=1 n=d#5 v=0
18576 On ch=1 n=f#5 v=83
18622 On ch=1 n=f#5 v=0
18624 On ch=1 n=a5 v=87
18670 On ch=1 n=a5 v=0
18672 On ch=1 n=b5 v=90
18718 On ch=1 n=b5 v=0
18720 On ch=1 n=d6 v=84
18838 On ch=1 n=d6 v=0
18840 On ch=1 n=c6 v=75
18875 Par ch=1 c=64 v=0
18875 Par ch=1 c=64 v=0
18958 On ch=1 n=c6 v=0
18960 On ch=1 n=b5 v=68
19078 On ch=1 n=b5 v=0
19080 On ch=1 n=a5 v=58
19198 On ch=1 n=a5 v=0
19360 On ch=1 n=e5 v=75
19400 On ch=1 n=g#5 v=66
19440 On ch=1 n=e6 v=77
19558 On ch=1 n=e6 v=0
19560 On ch=1 n=d#6 v=68
19598 On ch=1 n=d#6 v=0
19600 On ch=1 n=e6 v=75
19615 Par ch=1 c=64 v=127
19640 On ch=1 n=e5 v=66
19678 On ch=1 n=e5 v=0
19678 On ch=1 n=e6 v=0
19678 On ch=1 n=g#5 v=0
19678 On ch=1 n=e5 v=0
19680 On ch=1 n=a5 v=66
19718 On ch=1 n=a5 v=0
19720 Par ch=1 c=64 v=0
19720 On ch=1 n=d6 v=76
19758 On ch=1 n=d6 v=0
19760 On ch=1 n=c6 v=72
19788 Par ch=1 c=64 v=127
19878 On ch=1 n=c6 v=0
19880 On ch=1 n=b5 v=68
19916 Par ch=1 c=64 v=0
19918 On ch=1 n=b5 v=0
19920 On ch=1 n=c6 v=68
19998 On ch=1 n=c6 v=0
20000 On ch=1 n=e4 v=62
20000 On ch=1 n=d5 v=67
20040 On ch=1 n=e5 v=57
20040 On ch=1 n=g#5 v=65
20080 On ch=1 n=c6 v=70
20118 On ch=1 n=c6 v=0
20120 On ch=1 n=b5 v=63
20158 On ch=1 n=g#5 v=0
20158 On ch=1 n=d5 v=0
20238 On ch=1 n=b5 v=0
20240 On ch=1 n=a#5 v=68
20278 On ch=1 n=a#5 v=0
20280 On ch=1 n=b5 v=71
20308 Par ch=1 c=64 v=127
20318 On ch=1 n=e5 v=0
20318 On ch=1 n=e4 v=0
20350 On ch=1 n=a4 v=34
20350 On ch=1 n=e5 v=46
20350 On ch=1 n=a5 v=66
20350 On ch=1 n=c#5 v=51
20358 On ch=1 n=b5 v=0
20388 On ch=1 n=c#5 v=0
20388 On ch=1 n=a5 v=0
20388 On ch=1 n=e5 v=0
20388 On ch=1 n=a4 v=0
20400 On ch=1 n=e5 v=76
20430 On ch=1 n=c#5 v=57
20438 On ch=1 n=e5 v=0
20458 On ch=1 n=c#5 v=0
20460 On ch=1 n=a4 v=67
20488 On ch=1 n=a4 v=0
20490 On ch=1 n=c#5 v=60
20518 On ch=1 n=c#5 v=0
20520 On ch=1 n=e5 v=66
20548 On ch=1 n=e5 v=0
20550 On ch=1 n=a5 v=65
20578 On ch=1 n=a5 v=0
20580 On ch=1 n=c#6 v=75
20608 On ch=1 n=c#6 v=0
20610 On ch=1 n=e6 v=71
20638 On ch=1 n=e6 v=0
20640 On ch=1 n=a6 v=75
20668 On ch=1 n=a6 v=0
20670 On ch=1 n=c#7 v=75
20698 On ch=1 n=c#7 v=0
20700 On ch=1 n=e7 v=77
20878 On ch=1 n=e7 v=0
20880 On ch=1 n=a7 v=73
20938 On ch=1 n=a7 v=0
20940 On ch=1 n=e7 v=80
21028 On ch=1 n=e7 v=0
21030 On ch=1 n=a7 v=71
21058 On ch=1 n=a7 v=0
21060 On ch=1 n=e7 v=83
21133 On ch=1 n=e7 v=0
21135 On ch=1 n=a7 v=70
21145 On ch=1 n=a7 v=0
21147 On ch=1 n=e7 v=65
21265 On ch=1 n=e7 v=0
21267 On ch=1 n=a7 v=66
21277 Par ch=1 c=64 v=0
21325 On ch=1 n=a7 v=0
21985 Par ch=1 c=64 v=127
22024 On ch=1 n=g4 v=114
22024 On ch=1 n=g3 v=108
22024 On ch=1 n=g2 v=93
22075 On ch=1 n=g2 v=0
22075 On ch=1 n=g3 v=0
22075 On ch=1 n=g4 v=0
22077 On ch=1 n=g2 v=102
22077 On ch=1 n=g3 v=102
22077 On ch=1 n=g4 v=103
22288 On ch=1 n=g4 v=0
22288 On ch=1 n=g3 v=0
22288 On ch=1 n=g2 v=0
22290 On ch=1 n=b3 v=96
22290 On ch=1 n=b4 v=101
22342 On ch=1 n=b4 v=0
22342 On ch=1 n=b3 v=0
22344 On ch=1 n=d4 v=101
22344 On ch=1 n=d5 v=99
22395 On ch=1 n=d5 v=0
22395 On ch=1 n=d4 v=0
22397 On ch=1 n=g4 v=99
22397 On ch=1 n=g5 v=103
22448 On ch=1 n=g5 v=0
22448 On ch=1 n=g4 v=0
22450 On ch=1 n=b4 v=96
22450 On ch=1 n=b5 v=103
22502 On ch=1 n=b5 v=0
22502 On ch=1 n=b4 v=0
22504 On ch=1 n=d5 v=99
22504 On ch=1 n=d6 v=102
22555 On ch=1 n=d6 v=0
22555 On ch=1 n=d5 v=0
22557 On ch=1 n=g5 v=99
22557 On ch=1 n=g6 v=111
22795 On ch=1 n=g6 v=0
22795 On ch=1 n=g5 v=0
22797 On ch=1 n=b4 v=93
22797 On ch=1 n=g5 v=108
22797 On ch=1 n=d5 v=98
22797 On ch=1 n=g4 v=98
22797 On ch=1 n=d6 v=97
22797 On ch=1 n=b5 v=95
22797 On ch=1 n=b6 v=104
22960 Par ch=1 c=64 v=0
23035 On ch=1 n=b6 v=0
23035 On ch=1 n=b5 v=0
23035 On ch=1 n=d6 v=0
23035 On ch=1 n=g4 v=0
23035 On ch=1 n=d5 v=0
23035 On ch=1 n=g5 v=0
23035 On ch=1 n=b4 v=0
23037 On ch=1 n=g4 v=95
23037 On ch=1 n=g5 v=97
23037 On ch=1 n=d5 v=92
23037 On ch=1 n=b4 v=93
23037 On ch=1 n=f6 v=104
23037 On ch=1 n=d6 v=114
23037 On ch=1 n=d7 v=97
23357 On ch=1 n=g6 v=97
23357 On ch=1 n=e6 v=96
23357 On ch=1 n=e7 v=106
23435 On ch=1 n=e7 v=0
23435 On ch=1 n=e6 v=0
23435 On ch=1 n=g6 v=0
23437 On ch=1 n=f6 v=95
23437 On ch=1 n=d7 v=102
23437 On ch=1 n=d6 v=87
23515 On ch=1 n=d6 v=0
23515 On ch=1 n=d7 v=0
23515 On ch=1 n=f6 v=0
23515 On ch=1 n=d7 v=0
23515 On ch=1 n=d6 v=0
23515 On ch=1 n=f6 v=0
23515 On ch=1 n=b4 v=0
23515 On ch=1 n=d5 v=0
23515 On ch=1 n=g5 v=0
23515 On ch=1 n=g4 v=0
23517 On ch=1 n=g5 v=88
23517 On ch=1 n=g4 v=93
23517 On ch=1 n=e5 v=92
23517 On ch=1 n=c5 v=90
23517 On ch=1 n=e6 v=97
23517 On ch=1 n=c7 v=119
23517 On ch=1 n=c6 v=98
23635 On ch=1 n=c6 v=0
23635 On ch=1 n=c7 v=0
23635 On ch=1 n=e6 v=0
23635 On ch=1 n=c5 v=0
23635 On ch=1 n=e5 v=0
23635 On ch=1 n=g4 v=0
23635 On ch=1 n=g5 v=0
23757 On ch=1 n=b4 v=93
23757 On ch=1 n=g4 v=92
23757 On ch=1 n=g5 v=102
23757 On ch=1 n=d5 v=96
23757 On ch=1 n=b6 v=114
23757 On ch=1 n=d6 v=85
23757 On ch=1 n=b5 v=91
23875 On ch=1 n=b5 v=0
23875 On ch=1 n=d6 v=0
23875 On ch=1 n=b6 v=0
23875 On ch=1 n=d5 v=0
23875 On ch=1 n=g5 v=0
23875 On ch=1 n=g4 v=0
23875 On ch=1 n=b4 v=0
23949 Par ch=1 c=64 v=127
23997 On ch=1 n=c5 v=68
23997 On ch=1 n=g5 v=77
23997 On ch=1 n=e6 v=55
23997 On ch=1 n=c6 v=58
24055 On ch=1 n=c6 v=0
24055 On ch=1 n=e6 v=0
24057 On ch=1 n=c7 v=77
24115 On ch=1 n=c7 v=0
24117 On ch=1 n=e6 v=73
24117 On ch=1 n=c6 v=66
24175 On ch=1 n=c6 v=0
24175 On ch=1 n=e6 v=0
24177 On ch=1 n=c7 v=75
24235 On ch=1 n=c7 v=0
24237 On ch=1 n=e6 v=75
24237 On ch=1 n=c6 v=71
24295 On ch=1 n=c6 v=0
24295 On ch=1 n=e6 v=0
24297 On ch=1 n=c7 v=72
24355 On ch=1 n=c7 v=0
24355 On ch=1 n=g5 v=0
24355 On ch=1 n=c5 v=0
24357 On ch=1 n=e5 v=76
24357 On ch=1 n=c6 v=57
24357 On ch=1 n=g6 v=71
24357 On ch=1 n=e6 v=56
24415 On ch=1 n=e6 v=0
24415 On ch=1 n=g6 v=0
24417 On ch=1 n=c7 v=75
24475 On ch=1 n=c7 v=0
24475 On ch=1 n=c6 v=0
24475 On ch=1 n=e5 v=0
24477 On ch=1 n=c5 v=58
24477 On ch=1 n=g5 v=61
24477 On ch=1 n=e6 v=58
24477 On ch=1 n=c6 v=55
24535 On ch=1 n=c6 v=0
24535 On ch=1 n=e6 v=0
24537 On ch=1 n=c7 v=63
24595 On ch=1 n=c7 v=0
24595 On ch=1 n=g5 v=0
24595 On ch=1 n=c5 v=0
24597 On ch=1 n=e4 v=78
24597 On ch=1 n=c5 v=78
24597 On ch=1 n=e6 v=73
24597 On ch=1 n=c6 v=66
24655 On ch=1 n=c6 v=0
24655 On ch=1 n=e6 v=0
24657 On ch=1 n=c7 v=66
24715 On ch=1 n=c7 v=0
24715 On ch=1 n=c5 v=0
24715 On ch=1 n=e4 v=0
24717 On ch=1 n=c4 v=43
24717 On ch=1 n=g4 v=71
24717 On ch=1 n=e6 v=68
24717 On ch=1 n=c6 v=66
24775 On ch=1 n=c6 v=0
24775 On ch=1 n=e6 v=0
24777 On ch=1 n=c7 v=65
24835 On ch=1 n=c7 v=0
24835 On ch=1 n=g4 v=0
24835 On ch=1 n=c4 v=0
24837 On ch=1 n=e4 v=78
24837 On ch=1 n=c5 v=66
24837 On ch=1 n=e6 v=75
24837 On ch=1 n=c6 v=65
24895 On ch=1 n=c6 v=0
24895 On ch=1 n=e6 v=0
24897 On ch=1 n=c7 v=70
24955 On ch=1 n=c7 v=0
24955 On ch=1 n=c5 v=0
24955 On ch=1 n=e4 v=0
24957 On ch=1 n=c4 v=75
24957 On ch=1 n=g4 v=75
24957 On ch=1 n=e6 v=68
24957 On ch=1 n=c6 v=62
25015 On ch=1 n=c6 v=0
25015 On ch=1 n=e6 v=0
25017 On ch=1 n=c7 v=62
25075 On ch=1 n=c7 v=0
25075 On ch=1 n=g4 v=0
25075 On ch=1 n=c4 v=0
25077 On ch=1 n=e3 v=73
25077 On ch=1 n=c4 v=77
25077 On ch=1 n=e6 v=75
25077 On ch=1 n=c6 v=63
25135 On ch=1 n=c6 v=0
25135 On ch=1 n=e6 v=0
25137 On ch=1 n=c7 v=65
25195 On ch=1 n=c7 v=0
25195 On ch=1 n=c4 v=0
25195 On ch=1 n=e3 v=0
25197 On ch=1 n=c3 v=76
25197 On ch=1 n=g3 v=75
25197 On ch=1 n=e6 v=66
25197 On ch=1 n=c6 v=63
25255 On ch=1 n=c6 v=0
25255 On ch=1 n=e6 v=0
25257 On ch=1 n=c7 v=62
25315 On ch=1 n=c7 v=0
25315 On ch=1 n=g3 v=0
25315 On ch=1 n=c3 v=0
25317 On ch=1 n=e3 v=75
25317 On ch=1 n=c4 v=73
25317 On ch=1 n=e6 v=77
25317 On ch=1 n=c6 v=62
25375 On ch=1 n=c6 v=0
25375 On ch=1 n=e6 v=0
25377 On ch=1 n=c7 v=71
25435 On ch=1 n=c7 v=0
25435 On ch=1 n=c4 v=0
25435 On ch=1 n=e3 v=0
25437 On ch=1 n=c4 v=22
25437 On ch=1 n=g4 v=76
25437 On ch=1 n=e6 v=78
25437 On ch=1 n=c6 v=71
25495 On ch=1 n=c6 v=0
25495 On ch=1 n=e6 v=0
25497 On ch=1 n=c7 v=73
25555 On ch=1 n=c7 v=0
25557 On ch=1 n=e6 v=80
25557 On ch=1 n=c6 v=72
25615 On ch=1 n=c6 v=0
25615 On ch=1 n=e6 v=0
25617 On ch=1 n=c7 v=76
25675 On ch=1 n=c7 v=0
25675 On ch=1 n=g4 v=0
25675 On ch=1 n=c4 v=0
25677 On ch=1 n=e4 v=61
25677 On ch=1 n=c5 v=67
25677 On ch=1 n=e6 v=75
25677 On ch=1 n=c6 v=70
25735 On ch=1 n=c6 v=0
25735 On ch=1 n=e6 v=0
25737 On ch=1 n=c7 v=75
25795 On ch=1 n=c7 v=0
25795 On ch=1 n=c5 v=0
25795 On ch=1 n=e4 v=0
25797 On ch=1 n=e6 v=73
25797 On ch=1 n=c6 v=70
25855 On ch=1 n=c6 v=0
25855 On ch=1 n=e6 v=0
25857 On ch=1 n=c7 v=84
25915 On ch=1 n=c7 v=0
25917 On ch=1 n=c6 v=66
25917 On ch=1 n=e6 v=60
25975 On ch=1 n=e6 v=0
25975 On ch=1 n=c6 v=0
25977 On ch=1 n=c7 v=62
26035 On ch=1 n=c7 v=0
26037 On ch=1 n=e6 v=61
26037 On ch=1 n=c6 v=62
26095 On ch=1 n=c6 v=0
26095 On ch=1 n=e6 v=0
26097 On ch=1 n=c7 v=70
26155 On ch=1 n=c7 v=0
26157 On ch=1 n=e6 v=62
26157 On ch=1 n=c6 v=61
26215 On ch=1 n=c6 v=0
26215 On ch=1 n=e6 v=0
26217 On ch=1 n=c7 v=72
26275 On ch=1 n=c7 v=0
26283 Par ch=1 c=64 v=0
27711 Par ch=1 c=64 v=127
27777 On ch=1 n=b2 v=99
27777 On ch=1 n=b3 v=99
27777 On ch=1 n=b4 v=104
27835 On ch=1 n=b4 v=0
27835 On ch=1 n=b3 v=0
27835 On ch=1 n=b2 v=0
27837 On ch=1 n=b4 v=103
27837 On ch=1 n=b3 v=102
27837 On ch=1 n=b2 v=102
28048 On ch=1 n=b2 v=0
28048 On ch=1 n=b3 v=0
28048 On ch=1 n=b4 v=0
28050 On ch=1 n=d#5 v=101
28050 On ch=1 n=d#4 v=96
28102 On ch=1 n=d#4 v=0
28102 On ch=1 n=d#5 v=0
28104 On ch=1 n=f#5 v=99
28104 On ch=1 n=f#4 v=101
28155 On ch=1 n=f#4 v=0
28155 On ch=1 n=f#5 v=0
28157 On ch=1 n=b5 v=103
28157 On ch=1 n=b4 v=99
28208 On ch=1 n=b4 v=0
28208 On ch=1 n=b5 v=0
28210 On ch=1 n=d#6 v=103
28210 On ch=1 n=d#5 v=96
28262 On ch=1 n=d#5 v=0
28262 On ch=1 n=d#6 v=0
28264 On ch=1 n=f#6 v=102
28264 On ch=1 n=f#5 v=99
28315 On ch=1 n=f#5 v=0
28315 On ch=1 n=f#6 v=0
28317 On ch=1 n=b6 v=111
28317 On ch=1 n=b5 v=99
28555 On ch=1 n=b5 v=0
28555 On ch=1 n=b6 v=0
28557 On ch=1 n=d#7 v=104
28557 On ch=1 n=d#6 v=95
28557 On ch=1 n=f#6 v=97
28557 On ch=1 n=b4 v=98
28557 On ch=1 n=f#5 v=98
28557 On ch=1 n=b5 v=108
28557 On ch=1 n=d#5 v=93
28795 On ch=1 n=d#5 v=0
28795 On ch=1 n=b5 v=0
28795 On ch=1 n=f#5 v=0
28795 On ch=1 n=b4 v=0
28795 On ch=1 n=f#6 v=0
28795 On ch=1 n=d#6 v=0
28795 On ch=1 n=d#7 v=0
28797 On ch=1 n=f#7 v=97
28797 On ch=1 n=f#6 v=114
28797 On ch=1 n=a6 v=104
28797 On ch=1 n=d#5 v=93
28797 On ch=1 n=f#5 v=92
28797 On ch=1 n=b5 v=97
28797 On ch=1 n=b4 v=95
28853 Par ch=1 c=64 v=0
29117 On ch=1 n=g#7 v=106
29117 On ch=1 n=g#6 v=96
29117 On ch=1 n=b6 v=97
29195 On ch=1 n=b6 v=0
29195 On ch=1 n=g#6 v=0
29195 On ch=1 n=g#7 v=0
29197 On ch=1 n=f#6 v=87
29197 On ch=1 n=f#7 v=102
29197 On ch=1 n=a6 v=95
29275 On ch=1 n=a6 v=0
29275 On ch=1 n=f#7 v=0
29275 On ch=1 n=f#6 v=0
29275 On ch=1 n=b4 v=0
29275 On ch=1 n=b5 v=0
29275 On ch=1 n=f#5 v=0
29275 On ch=1 n=d#5 v=0
29275 On ch=1 n=a6 v=0
29275 On ch=1 n=f#6 v=0
29275 On ch=1 n=f#7 v=0
29277 On ch=1 n=e6 v=98
29277 On ch=1 n=e7 v=119
29277 On ch=1 n=g#6 v=97
29277 On ch=1 n=e5 v=90
29277 On ch=1 n=g#5 v=92
29277 On ch=1 n=b4 v=93
29277 On ch=1 n=b5 v=88
29395 On ch=1 n=b5 v=0
29395 On ch=1 n=b4 v=0
29395 On ch=1 n=g#5 v=0
29395 On ch=1 n=e5 v=0
29395 On ch=1 n=g#6 v=0
29395 On ch=1 n=e7 v=0
29395 On ch=1 n=e6 v=0
29517 On ch=1 n=d#6 v=91
29517 On ch=1 n=f#6 v=85
29517 On ch=1 n=d#7 v=114
29517 On ch=1 n=f#5 v=96
29517 On ch=1 n=b5 v=102
29517 On ch=1 n=b4 v=92
29517 On ch=1 n=d#5 v=93
29635 On ch=1 n=d#5 v=0
29635 On ch=1 n=b4 v=0
29635 On ch=1 n=b5 v=0
29635 On ch=1 n=f#5 v=0
29635 On ch=1 n=d#7 v=0
29635 On ch=1 n=f#6 v=0
29635 On ch=1 n=d#6 v=0
29709 Par ch=1 c=64 v=127
29757 On ch=1 n=e6 v=58
29757 On ch=1 n=g#6 v=55
29757 On ch=1 n=b5 v=77
29757 On ch=1 n=e5 v=68
29815 On ch=1 n=g#6 v=0
29815 On ch=1 n=e6 v=0
29817 On ch=1 n=e7 v=77
29875 On ch=1 n=e7 v=0
29877 On ch=1 n=e6 v=66
29877 On ch=1 n=g#6 v=73
29935 On ch=1 n=g#6 v=0
29935 On ch=1 n=e6 v=0
29937 On ch=1 n=e7 v=75
29995 On ch=1 n=e7 v=0
29997 On ch=1 n=e6 v=71
29997 On ch=1 n=g#6 v=75
30055 On ch=1 n=g#6 v=0
30055 On ch=1 n=e6 v=0
30057 On ch=1 n=e7 v=72
30115 On ch=1 n=e7 v=0
30115 On ch=1 n=e5 v=0
30115 On ch=1 n=b5 v=0
30117 On ch=1 n=g#6 v=56
30117 On ch=1 n=b6 v=71
30117 On ch=1 n=e6 v=57
30117 On ch=1 n=g#5 v=76
30175 On ch=1 n=b6 v=0
30175 On ch=1 n=g#6 v=0
30177 On ch=1 n=e7 v=75
30235 On ch=1 n=e7 v=0
30235 On ch=1 n=g#5 v=0
30235 On ch=1 n=e6 v=0
30237 On ch=1 n=e6 v=55
30237 On ch=1 n=g#6 v=58
30237 On ch=1 n=b5 v=61
30237 On ch=1 n=e5 v=58
30295 On ch=1 n=g#6 v=0
30295 On ch=1 n=e6 v=0
30297 On ch=1 n=e7 v=63
30355 On ch=1 n=e7 v=0
30355 On ch=1 n=e5 v=0
30355 On ch=1 n=b5 v=0
30357 On ch=1 n=e6 v=66
30357 On ch=1 n=g#6 v=73
30357 On ch=1 n=e5 v=78
30357 On ch=1 n=g#4 v=78
30415 On ch=1 n=g#6 v=0
30415 On ch=1 n=e6 v=0
30417 On ch=1 n=e7 v=66
30475 On ch=1 n=e7 v=0
30475 On ch=1 n=g#4 v=0
30475 On ch=1 n=e5 v=0
30477 On ch=1 n=e6 v=66
30477 On ch=1 n=g#6 v=68
30477 On ch=1 n=b4 v=71
30477 On ch=1 n=e4 v=43
30535 On ch=1 n=g#6 v=0
30535 On ch=1 n=e6 v=0
30537 On ch=1 n=e7 v=65
30595 On ch=1 n=e7 v=0
30595 On ch=1 n=e4 v=0
30595 On ch=1 n=b4 v=0
30597 On ch=1 n=e6 v=65
30597 On ch=1 n=g#6 v=75
30597 On ch=1 n=e5 v=66
30597 On ch=1 n=g#4 v=78
30655 On ch=1 n=g#6 v=0
30655 On ch=1 n=e6 v=0
30657 On ch=1 n=e7 v=70
30715 On ch=1 n=e7 v=0
30715 On ch=1 n=g#4 v=0
30715 On ch=1 n=e5 v=0
30717 On ch=1 n=e6 v=62
30717 On ch=1 n=g#6 v=68
30717 On ch=1 n=b4 v=75
30717 On ch=1 n=e4 v=75
30775 On ch=1 n=g#6 v=0
30775 On ch=1 n=e6 v=0
30777 On ch=1 n=e7 v=62
30835 On ch=1 n=e7 v=0
30835 On ch=1 n=e4 v=0
30835 On ch=1 n=b4 v=0
30837 On ch=1 n=e6 v=63
30837 On ch=1 n=g#6 v=75
30837 On ch=1 n=e4 v=77
30837 On ch=1 n=g#3 v=73
30895 On ch=1 n=g#6 v=0
30895 On ch=1 n=e6 v=0
30897 On ch=1 n=e7 v=65
30955 On ch=1 n=e7 v=0
30955 On ch=1 n=g#3 v=0
30955 On ch=1 n=e4 v=0
30957 On ch=1 n=e6 v=63
30957 On ch=1 n=g#6 v=66
30957 On ch=1 n=b3 v=75
30957 On ch=1 n=e3 v=76
31015 On ch=1 n=g#6 v=0
31015 On ch=1 n=e6 v=0
31017 On ch=1 n=e7 v=62
31075 On ch=1 n=e7 v=0
31075 On ch=1 n=e3 v=0
31075 On ch=1 n=b3 v=0
31077 On ch=1 n=e6 v=62
31077 On ch=1 n=g#6 v=77
31077 On ch=1 n=e4 v=73
31077 On ch=1 n=g#3 v=75
31135 On ch=1 n=g#6 v=0
31135 On ch=1 n=e6 v=0
31137 On ch=1 n=e7 v=71
31195 On ch=1 n=e7 v=0
31195 On ch=1 n=g#3 v=0
31195 On ch=1 n=e4 v=0
31197 On ch=1 n=e6 v=71
31197 On ch=1 n=g#6 v=78
31197 On ch=1 n=b4 v=76
31197 On ch=1 n=e4 v=22
31255 On ch=1 n=g#6 v=0
31255 On ch=1 n=e6 v=0
31257 On ch=1 n=e7 v=73
31315 On ch=1 n=e7 v=0
31317 On ch=1 n=e6 v=72
31317 On ch=1 n=g#6 v=80
31375 On ch=1 n=g#6 v=0
31375 On ch=1 n=e6 v=0
31377 On ch=1 n=e7 v=76
31435 On ch=1 n=e7 v=0
31435 On ch=1 n=e4 v=0
31435 On ch=1 n=b4 v=0
31437 On ch=1 n=e6 v=70
31437 On ch=1 n=g#6 v=75
31437 On ch=1 n=e5 v=67
31437 On ch=1 n=g#4 v=61
31495 On ch=1 n=g#6 v=0
31495 On ch=1 n=e6 v=0
31497 On ch=1 n=e7 v=75
31555 On ch=1 n=e7 v=0
31555 On ch=1 n=g#4 v=0
31555 On ch=1 n=e5 v=0
31557 On ch=1 n=e6 v=70
31557 On ch=1 n=g#6 v=73
31615 On ch=1 n=g#6 v=0
31615 On ch=1 n=e6 v=0
31617 On ch=1 n=e7 v=84
31675 On ch=1 n=e7 v=0
31677 On ch=1 n=g#6 v=60
31677 On ch=1 n=e6 v=66
31735 On ch=1 n=e6 v=0
31735 On ch=1 n=g#6 v=0
31737 On ch=1 n=e7 v=62
31795 On ch=1 n=e7 v=0
31797 On ch=1 n=e6 v=62
31797 On ch=1 n=g#6 v=61
31855 On ch=1 n=g#6 v=0
31855 On ch=1 n=e6 v=0
31857 On ch=1 n=e7 v=70
31915 On ch=1 n=e7 v=0
31917 On ch=1 n=e6 v=61
31917 On ch=1 n=g#6 v=62
31975 On ch=1 n=g#6 v=0
31975 On ch=1 n=e6 v=0
31977 On ch=1 n=e7 v=72
32035 On ch=1 n=e7 v=0
32043 Par ch=1 c=64 v=0
32581 Par ch=1 c=64 v=127
32637 On ch=1 n=e6 v=75
32637 On ch=1 n=c6 v=66
32637 On ch=1 n=a6 v=77
32715 On ch=1 n=a6 v=0
32717 On ch=1 n=b6 v=78
32717 On ch=1 n=e7 v=66
32755 On ch=1 n=c6 v=0
32755 On ch=1 n=e6 v=0
32795 On ch=1 n=e7 v=0
32795 On ch=1 n=b6 v=0
32797 On ch=1 n=c7 v=60
32875 On ch=1 n=c7 v=0
32877 On ch=1 n=c7 v=56
32955 On ch=1 n=c7 v=0
32957 On ch=1 n=d#7 v=58
32957 On ch=1 n=a7 v=70
32997 On ch=1 n=g#6 v=78
33035 On ch=1 n=a7 v=0
33035 On ch=1 n=d#7 v=0
33037 On ch=1 n=e7 v=72
33101 Par ch=1 c=64 v=0
33115 On ch=1 n=e7 v=0
33115 On ch=1 n=g#6 v=0
33117 On ch=1 n=c6 v=65
33117 On ch=1 n=e6 v=53
33117 On ch=1 n=a6 v=70
33195 On ch=1 n=a6 v=0
33197 On ch=1 n=b6 v=66
33197 On ch=1 n=e7 v=54
33275 On ch=1 n=e7 v=0
33275 On ch=1 n=b6 v=0
33277 On ch=1 n=c7 v=73
33355 On ch=1 n=c7 v=0
33355 On ch=1 n=e6 v=0
33355 On ch=1 n=c6 v=0
33357 On ch=1 n=c7 v=72
33435 On ch=1 n=c7 v=0
33437 On ch=1 n=a7 v=80
33437 On ch=1 n=d#7 v=75
33515 On ch=1 n=d#7 v=0
33515 On ch=1 n=a7 v=0
33517 On ch=1 n=e7 v=70
33595 On ch=1 n=e7 v=0
33597 On ch=1 n=b5 v=55
33597 On ch=1 n=d6 v=68
33597 On ch=1 n=g6 v=75
33639 Par ch=1 c=64 v=127
33675 On ch=1 n=g6 v=0
33677 On ch=1 n=a#6 v=72
33677 On ch=1 n=d7 v=61
33715 On ch=1 n=d6 v=0
33715 On ch=1 n=b5 v=0
33755 On ch=1 n=d7 v=0
33755 On ch=1 n=a#6 v=0
33757 On ch=1 n=b6 v=78
33835 On ch=1 n=b6 v=0
33837 On ch=1 n=b6 v=53
33915 On ch=1 n=b6 v=0
33917 On ch=1 n=c#7 v=68
33917 On ch=1 n=g7 v=73
33957 On ch=1 n=f#6 v=53
33995 On ch=1 n=g7 v=0
33995 On ch=1 n=c#7 v=0
33997 On ch=1 n=d7 v=56
34075 On ch=1 n=d7 v=0
34075 On ch=1 n=f#6 v=0
34077 On ch=1 n=d6 v=67
34077 On ch=1 n=b5 v=63
34077 On ch=1 n=g6 v=47
34155 On ch=1 n=g6 v=0
34157 On ch=1 n=a#6 v=75
34157 On ch=1 n=d7 v=70
34193 Par ch=1 c=64 v=0
34195 On ch=1 n=b5 v=0
34195 On ch=1 n=d6 v=0
34235 On ch=1 n=d7 v=0
34235 On ch=1 n=a#6 v=0
34237 On ch=1 n=b6 v=66
34315 On ch=1 n=b6 v=0
34317 On ch=1 n=b6 v=66
34395 On ch=1 n=b6 v=0
34397 On ch=1 n=g7 v=72
34397 On ch=1 n=c#7 v=65
34475 On ch=1 n=c#7 v=0
34475 On ch=1 n=g7 v=0
34477 On ch=1 n=d7 v=65
34501 Par ch=1 c=64 v=127
34555 On ch=1 n=d7 v=0
34557 On ch=1 n=g5 v=53
34557 On ch=1 n=b5 v=61
34557 On ch=1 n=f6 v=73
34635 On ch=1 n=f6 v=0
34637 On ch=1 n=d7 v=78
34637 On ch=1 n=a#6 v=76
34675 On ch=1 n=b5 v=0
34675 On ch=1 n=g5 v=0
34715 On ch=1 n=a#6 v=0
34715 On ch=1 n=d7 v=0
34717 On ch=1 n=b6 v=77
34795 On ch=1 n=b6 v=0
34797 On ch=1 n=b6 v=42
34875 On ch=1 n=b6 v=0
34877 On ch=1 n=f7 v=73
34877 On ch=1 n=c#7 v=62
34917 On ch=1 n=e6 v=46
34955 On ch=1 n=c#7 v=0
34955 On ch=1 n=f7 v=0
34957 On ch=1 n=d7 v=75
35021 Par ch=1 c=64 v=0
35035 On ch=1 n=d7 v=0
35035 On ch=1 n=e6 v=0
35037 On ch=1 n=b5 v=55
35037 On ch=1 n=g5 v=51
35037 On ch=1 n=f6 v=72
35115 On ch=1 n=f6 v=0
35117 On ch=1 n=d7 v=73
35117 On ch=1 n=a#6 v=73
35195 On ch=1 n=a#6 v=0
35195 On ch=1 n=d7 v=0
35197 On ch=1 n=b6 v=73
35275 On ch=1 n=b6 v=0
35275 On ch=1 n=g5 v=0
35275 On ch=1 n=b5 v=0
35277 On ch=1 n=b6 v=68
35355 On ch=1 n=b6 v=0
35357 On ch=1 n=f7 v=65
35357 On ch=1 n=c#7 v=71
35435 On ch=1 n=c#7 v=0
35435 On ch=1 n=f7 v=0
35437 On ch=1 n=d7 v=75
35515 On ch=1 n=d7 v=0
35517 On ch=1 n=c6 v=60
35517 On ch=1 n=a5 v=60
35517 On ch=1 n=e6 v=68
35559 Par ch=1 c=64 v=127
35595 On ch=1 n=e6 v=0
35597 On ch=1 n=g#6 v=52
35597 On ch=1 n=c7 v=71
35675 On ch=1 n=c7 v=0
35675 On ch=1 n=g#6 v=0
35677 On ch=1 n=a6 v=75
35755 On ch=1 n=a6 v=0
35757 On ch=1 n=a6 v=78
35835 On ch=1 n=a6 v=0
35837 On ch=1 n=b6 v=73
35837 On ch=1 n=e7 v=65
35875 On ch=1 n=a5 v=0
35875 On ch=1 n=c6 v=0
35877 On ch=1 n=d#6 v=72
35915 On ch=1 n=e7 v=0
35915 On ch=1 n=b6 v=0
35917 On ch=1 n=c7 v=83
35995 On ch=1 n=c7 v=0
35995 On ch=1 n=d#6 v=0
35997 On ch=1 n=a5 v=51
35997 On ch=1 n=c6 v=67
35997 On ch=1 n=e6 v=61
35997 On ch=1 n=c7 v=98
36075 On ch=1 n=c7 v=0
36077 On ch=1 n=a7 v=88
36077 On ch=1 n=d#7 v=81
36113 Par ch=1 c=64 v=0
36155 On ch=1 n=d#7 v=0
36155 On ch=1 n=a7 v=0
36157 On ch=1 n=e7 v=86
36235 On ch=1 n=e7 v=0
36235 On ch=1 n=e6 v=0
36235 On ch=1 n=c6 v=0
36235 On ch=1 n=a5 v=0
36237 On ch=1 n=e7 v=97
36315 On ch=1 n=e7 v=0
36317 On ch=1 n=g#7 v=76
36317 On ch=1 n=c8 v=83
36395 On ch=1 n=c8 v=0
36395 On ch=1 n=g#7 v=0
36397 On ch=1 n=a7 v=84
36421 Par ch=1 c=64 v=127
36475 On ch=1 n=a7 v=0
36477 On ch=1 n=a7 v=93
36555 On ch=1 n=a7 v=0
36557 On ch=1 n=b7 v=83
36557 On ch=1 n=e8 v=86
36635 On ch=1 n=e8 v=0
36635 On ch=1 n=b7 v=0
36637 On ch=1 n=c8 v=76
36715 On ch=1 n=c8 v=0
36717 On ch=1 n=a7 v=95
36795 On ch=1 n=a7 v=0
36797 On ch=1 n=g#7 v=81
36797 On ch=1 n=c8 v=88
36875 On ch=1 n=c8 v=0
36875 On ch=1 n=g#7 v=0
36877 On ch=1 n=a7 v=84
36941 Par ch=1 c=64 v=0
36955 On ch=1 n=a7 v=0
36957 On ch=1 n=e7 v=96
37035 On ch=1 n=e7 v=0
37037 On ch=1 n=g7 v=81
37037 On ch=1 n=d#7 v=77
37115 On ch=1 n=d#7 v=0
37115 On ch=1 n=g7 v=0
37117 On ch=1 n=e7 v=67
37195 On ch=1 n=e7 v=0
37197 On ch=1 n=c7 v=96
37275 On ch=1 n=c7 v=0
37277 On ch=1 n=b6 v=84
37277 On ch=1 n=e7 v=78
37355 On ch=1 n=e7 v=0
37355 On ch=1 n=b6 v=0
37357 On ch=1 n=c7 v=67
37435 On ch=1 n=c7 v=0
37437 On ch=1 n=a6 v=91
37479 Par ch=1 c=64 v=127
37515 On ch=1 n=a6 v=0
37517 On ch=1 n=g#6 v=83
37517 On ch=1 n=c7 v=83
37595 On ch=1 n=c7 v=0
37595 On ch=1 n=g#6 v=0
37597 On ch=1 n=a6 v=76
37675 On ch=1 n=a6 v=0
37677 On ch=1 n=e6 v=75
37755 On ch=1 n=e6 v=0
37757 On ch=1 n=d#6 v=54
37757 On ch=1 n=g6 v=68
37835 On ch=1 n=g6 v=0
37835 On ch=1 n=d#6 v=0
37837 On ch=1 n=e6 v=73
37915 On ch=1 n=e6 v=0
37917 On ch=1 n=c6 v=83
37995 On ch=1 n=c6 v=0
37997 On ch=1 n=e6 v=67
37997 On ch=1 n=b5 v=63
38033 Par ch=1 c=64 v=0
38075 On ch=1 n=b5 v=0
38075 On ch=1 n=e6 v=0
38077 On ch=1 n=c6 v=75
38155 On ch=1 n=c6 v=0
38157 On ch=1 n=a5 v=78
38235 On ch=1 n=a5 v=0
38341 Par ch=1 c=64 v=127
38397 On ch=1 n=f5 v=66
38455 On ch=1 n=f5 v=0
38457 On ch=1 n=g#5 v=68
38515 On ch=1 n=g#5 v=0
38517 On ch=1 n=b5 v=72
38575 On ch=1 n=b5 v=0
38577 On ch=1 n=d6 v=74
38635 On ch=1 n=d6 v=0
38637 On ch=1 n=f6 v=73
38695 On ch=1 n=f6 v=0
38697 On ch=1 n=g#6 v=74
38755 On ch=1 n=g#6 v=0
38757 On ch=1 n=b6 v=68
38815 On ch=1 n=b6 v=0
38817 On ch=1 n=d7 v=74
38861 Par ch=1 c=64 v=0
38875 On ch=1 n=d7 v=0
38877 On ch=1 n=e5 v=71
38935 On ch=1 n=e5 v=0
38937 On ch=1 n=g#5 v=67
38995 On ch=1 n=g#5 v=0
38997 On ch=1 n=a5 v=66
39055 On ch=1 n=a5 v=0
39057 On ch=1 n=c6 v=68
39115 On ch=1 n=c6 v=0
39117 On ch=1 n=e6 v=61
39175 On ch=1 n=e6 v=0
39177 On ch=1 n=g#6 v=62
39235 On ch=1 n=g#6 v=0
39237 On ch=1 n=a6 v=72
39295 On ch=1 n=a6 v=0
39297 On ch=1 n=c7 v=74
39309 Par ch=1 c=64 v=127
39355 On ch=1 n=c7 v=0
39357 On ch=1 n=d#5 v=62
39415 On ch=1 n=d#5 v=0
39417 On ch=1 n=f#5 v=73
39475 On ch=1 n=f#5 v=0
39477 On ch=1 n=a5 v=81
39535 On ch=1 n=a5 v=0
39537 On ch=1 n=b5 v=72
39595 On ch=1 n=b5 v=0
39597 On ch=1 n=c6 v=81
39655 On ch=1 n=c6 v=0
39657 On ch=1 n=d#6 v=75
39715 On ch=1 n=d#6 v=0
39717 On ch=1 n=a6 v=80
39775 On ch=1 n=a6 v=0
39777 On ch=1 n=f#6 v=75
39835 On ch=1 n=f#6 v=0
39837 On ch=1 n=c7 v=78
39895 On ch=1 n=c7 v=0
39897 On ch=1 n=a6 v=78
39955 On ch=1 n=a6 v=0
39957 On ch=1 n=d#7 v=82
40015 On ch=1 n=d#7 v=0
40017 On ch=1 n=c7 v=87
40075 On ch=1 n=c7 v=0
40077 On ch=1 n=f#7 v=88
40135 On ch=1 n=f#7 v=0
40137 On ch=1 n=d#7 v=68
40195 On ch=1 n=d#7 v=0
40197 On ch=1 n=a7 v=91
40255 On ch=1 n=a7 v=0
40257 On ch=1 n=f#7 v=84
40315 On ch=1 n=f#7 v=0
40317 On ch=1 n=c8 v=86
40375 On ch=1 n=c8 v=0
40377 On ch=1 n=a7 v=84
40435 On ch=1 n=a7 v=0
40437 On ch=1 n=f#7 v=72
40495 On ch=1 n=f#7 v=0
40497 On ch=1 n=a7 v=62
40555 On ch=1 n=a7 v=0
40557 On ch=1 n=d#7 v=60
40615 On ch=1 n=d#7 v=0
40617 On ch=1 n=f#7 v=75
40675 On ch=1 n=f#7 v=0
40677 On ch=1 n=c7 v=78
40735 On ch=1 n=c7 v=0
40737 On ch=1 n=d#7 v=65
40795 On ch=1 n=d#7 v=0
40797 On ch=1 n=a6 v=76
40855 On ch=1 n=a6 v=0
40857 On ch=1 n=c7 v=75
40915 On ch=1 n=c7 v=0
40917 On ch=1 n=f#6 v=81
40975 On ch=1 n=f#6 v=0
40977 On ch=1 n=a6 v=76
41035 On ch=1 n=a6 v=0
41037 On ch=1 n=d#6 v=67
41095 On ch=1 n=d#6 v=0
41097 On ch=1 n=f#6 v=73
41155 On ch=1 n=f#6 v=0
41157 On ch=1 n=c6 v=61
41215 On ch=1 n=c6 v=0
41217 On ch=1 n=d#6 v=58
41275 On ch=1 n=d#6 v=0
41277 On ch=1 n=d#5 v=67
41335 On ch=1 n=d#5 v=0
41337 On ch=1 n=f#5 v=72
41395 On ch=1 n=f#5 v=0
41397 On ch=1 n=a5 v=65
41455 On ch=1 n=a5 v=0
41457 On ch=1 n=b5 v=82
41515 On ch=1 n=b5 v=0
41517 On ch=1 n=a5 v=82
41575 On ch=1 n=a5 v=0
41577 On ch=1 n=g#5 v=67
41635 On ch=1 n=g#5 v=0
41637 On ch=1 n=a5 v=80
41643 Par ch=1 c=64 v=0
41695 On ch=1 n=a5 v=0
41697 On ch=1 n=b5 v=75
41755 On ch=1 n=b5 v=0
41757 On ch=1 n=d6 v=69
41875 On ch=1 n=d6 v=0
41877 On ch=1 n=c6 v=69
41995 On ch=1 n=c6 v=0
41997 On ch=1 n=b5 v=62
42115 On ch=1 n=b5 v=0
42117 On ch=1 n=a5 v=55
42181 Par ch=1 c=64 v=127
42235 On ch=1 n=a5 v=0
42701 Par ch=1 c=64 v=0
43277 On ch=1 n=e5 v=70
43357 On ch=1 n=g#5 v=62
43437 On ch=1 n=e6 v=68
43595 On ch=1 n=e6 v=0
43597 On ch=1 n=d#6 v=76
43675 On ch=1 n=d#6 v=0
43675 On ch=1 n=g#5 v=0
43675 On ch=1 n=e5 v=0
43677 On ch=1 n=e6 v=73
43915 On ch=1 n=e6 v=0
43917 On ch=1 n=a5 v=75
43917 On ch=1 n=c5 v=50
43917 On ch=1 n=e5 v=57
43917 On ch=1 n=e4 v=57
43917 On ch=1 n=c6 v=78
44035 On ch=1 n=e4 v=0
44035 On ch=1 n=e5 v=0
44035 On ch=1 n=c5 v=0
44035 On ch=1 n=a5 v=0
44075 On ch=1 n=c6 v=0
44077 On ch=1 n=b5 v=77
44155 On ch=1 n=b5 v=0
44157 On ch=1 n=c6 v=75
44395 On ch=1 n=c6 v=0
44397 On ch=1 n=d5 v=61
44397 On ch=1 n=g#4 v=45
44397 On ch=1 n=e4 v=48
44397 On ch=1 n=b5 v=75
44515 On ch=1 n=e4 v=0
44515 On ch=1 n=g#4 v=0
44515 On ch=1 n=d5 v=0
44555 On ch=1 n=b5 v=0
44557 On ch=1 n=a#5 v=51
44635 On ch=1 n=a#5 v=0
44637 On ch=1 n=b5 v=67
44790 Par ch=1 c=64 v=127
44875 On ch=1 n=b5 v=0
44877 On ch=1 n=f3 v=66
44935 On ch=1 n=f3 v=0
44937 On ch=1 n=a4 v=49
44995 On ch=1 n=a4 v=0
44997 On ch=1 n=c5 v=54
45055 On ch=1 n=c5 v=0
45057 On ch=1 n=f5 v=62
45115 On ch=1 n=f5 v=0
45117 On ch=1 n=a5 v=63
45175 On ch=1 n=a5 v=0
45177 On ch=1 n=f5 v=65
45235 On ch=1 n=f5 v=0
45237 On ch=1 n=a5 v=56
45295 On ch=1 n=a5 v=0
45297 On ch=1 n=f5 v=68
45355 On ch=1 n=f5 v=0
45357 On ch=1 n=a5 v=77
45415 On ch=1 n=a5 v=0
45417 On ch=1 n=f5 v=77
45475 On ch=1 n=f5 v=0
45477 On ch=1 n=a5 v=84
45535 On ch=1 n=a5 v=0
45537 On ch=1 n=f5 v=63
45595 On ch=1 n=f5 v=0
45597 On ch=1 n=a5 v=61
45655 On ch=1 n=a5 v=0
45657 On ch=1 n=f5 v=52
45715 On ch=1 n=f5 v=0
45717 On ch=1 n=a5 v=55
45775 On ch=1 n=a5 v=0
45777 On ch=1 n=f5 v=53
45835 On ch=1 n=f5 v=0
45837 On ch=1 n=e5 v=63
45895 On ch=1 n=e5 v=0
45897 On ch=1 n=g#5 v=43
45955 On ch=1 n=g#5 v=0
45957 On ch=1 n=f5 v=61
46015 On ch=1 n=f5 v=0
46017 On ch=1 n=a5 v=46
46075 On ch=1 n=a5 v=0
46077 On ch=1 n=g#5 v=63
46135 On ch=1 n=g#5 v=0
46137 On ch=1 n=b5 v=39
46195 On ch=1 n=b5 v=0
46197 On ch=1 n=a5 v=78
46255 On ch=1 n=a5 v=0
46257 On ch=1 n=c6 v=55
46315 On ch=1 n=c6 v=0
46317 On ch=1 n=b5 v=70
46375 On ch=1 n=b5 v=0
46377 On ch=1 n=e6 v=42
46435 On ch=1 n=e6 v=0
46437 On ch=1 n=c6 v=72
46495 On ch=1 n=c6 v=0
46497 On ch=1 n=f6 v=63
46555 On ch=1 n=f6 v=0
46557 On ch=1 n=e6 v=66
46615 On ch=1 n=e6 v=0
46617 On ch=1 n=g#6 v=52
46675 On ch=1 n=g#6 v=0
46677 On ch=1 n=f6 v=68
46735 On ch=1 n=f6 v=0
46737 On ch=1 n=a6 v=53
46795 On ch=1 n=a6 v=0
46797 On ch=1 n=g#6 v=72
46855 On ch=1 n=g#6 v=0
46857 On ch=1 n=b6 v=56
46915 On ch=1 n=b6 v=0
46917 On ch=1 n=a6 v=77
46975 On ch=1 n=a6 v=0
46977 On ch=1 n=c7 v=47
47035 On ch=1 n=c7 v=0
47037 On ch=1 n=b6 v=75
47095 On ch=1 n=b6 v=0
47097 On ch=1 n=e7 v=53
47155 On ch=1 n=e7 v=0
47157 On ch=1 n=c7 v=55
47215 On ch=1 n=c7 v=0
47217 On ch=1 n=f7 v=66
47275 On ch=1 n=f7 v=0
47277 On ch=1 n=e7 v=76
47335 On ch=1 n=e7 v=0
47337 On ch=1 n=g#7 v=48
47395 On ch=1 n=g#7 v=0
47397 On ch=1 n=f7 v=75
47455 On ch=1 n=f7 v=0
47457 On ch=1 n=a7 v=62
47515 On ch=1 n=a7 v=0
47561 Par ch=1 c=64 v=0
48357 On ch=1 n=d4 v=90
48357 On ch=1 n=a#5 v=80
48357 On ch=1 n=f5 v=73
48417 On ch=1 n=d5 v=80
48477 On ch=1 n=f6 v=91
48535 On ch=1 n=f6 v=0
48595 On ch=1 n=f5 v=0
48655 On ch=1 n=d5 v=0
48655 On ch=1 n=a#5 v=0
48655 On ch=1 n=d4 v=0
48657 On ch=1 n=e6 v=82
48715 On ch=1 n=e6 v=0
48717 On ch=1 n=f6 v=90
48835 On ch=1 n=f6 v=0
48837 On ch=1 n=e5 v=83
48877 On ch=1 n=a5 v=90
48917 On ch=1 n=d6 v=78
48955 On ch=1 n=d6 v=0
48957 On ch=1 n=a4 v=64
48957 On ch=1 n=e4 v=59
48957 On ch=1 n=c5 v=70
48957 On ch=1 n=c6 v=81
49015 On ch=1 n=c6 v=0
49075 On ch=1 n=c5 v=0
49075 On ch=1 n=e4 v=0
49075 On ch=1 n=a4 v=0
49075 On ch=1 n=a5 v=0
49075 On ch=1 n=e5 v=0
49137 On ch=1 n=b5 v=90
49195 On ch=1 n=b5 v=0
49197 On ch=1 n=c6 v=78
49315 On ch=1 n=c6 v=0
49317 On ch=1 n=d5 v=70
49357 On ch=1 n=e5 v=56
49397 On ch=1 n=e3 v=81
49397 On ch=1 n=c6 v=71
49435 On ch=1 n=c6 v=0
49437 On ch=1 n=g#4 v=71
49437 On ch=1 n=b5 v=81
49495 On ch=1 n=b5 v=0
49555 On ch=1 n=g#4 v=0
49555 On ch=1 n=e3 v=0
49555 On ch=1 n=e5 v=0
49555 On ch=1 n=d5 v=0
49617 On ch=1 n=a#5 v=82
49675 On ch=1 n=a#5 v=0
49677 On ch=1 n=b5 v=83
49793 Par ch=1 c=64 v=127
49795 On ch=1 n=b5 v=0
49917 On ch=1 n=c#5 v=58
49917 On ch=1 n=e4 v=54
49917 On ch=1 n=a3 v=65
49917 On ch=1 n=a4 v=53
49917 On ch=1 n=a5 v=68
49975 On ch=1 n=a5 v=0
49977 On ch=1 n=e5 v=43
50035 On ch=1 n=e5 v=0
50037 On ch=1 n=a5 v=49
50095 On ch=1 n=a5 v=0
50097 On ch=1 n=e5 v=40
50155 On ch=1 n=e5 v=0
50157 On ch=1 n=a5 v=50
50215 On ch=1 n=a5 v=0
50217 On ch=1 n=e5 v=44
50275 On ch=1 n=e5 v=0
50277 On ch=1 n=a5 v=67
50335 On ch=1 n=a5 v=0
50337 On ch=1 n=e5 v=44
50395 On ch=1 n=e5 v=0
50397 On ch=1 n=a5 v=73
50455 On ch=1 n=a5 v=0
50457 On ch=1 n=e5 v=48
50515 On ch=1 n=e5 v=0
50517 On ch=1 n=a5 v=65
50575 On ch=1 n=a5 v=0
50577 On ch=1 n=e5 v=48
50635 On ch=1 n=e5 v=0
50637 On ch=1 n=a5 v=71
50695 On ch=1 n=a5 v=0
50697 On ch=1 n=e5 v=44
50755 On ch=1 n=e5 v=0
50757 On ch=1 n=a5 v=52
50815 On ch=1 n=a5 v=0
50817 On ch=1 n=e5 v=47
50875 On ch=1 n=e5 v=0
50875 On ch=1 n=a4 v=0
50875 On ch=1 n=a3 v=0
50875 On ch=1 n=e4 v=0
50875 On ch=1 n=c#5 v=0
50877 On ch=1 n=g#5 v=62
50935 On ch=1 n=g#5 v=0
50937 On ch=1 n=c#5 v=31
50995 On ch=1 n=c#5 v=0
50997 On ch=1 n=a5 v=61
51055 On ch=1 n=a5 v=0
51057 On ch=1 n=e5 v=40
51115 On ch=1 n=e5 v=0
51117 On ch=1 n=c6 v=72
51175 On ch=1 n=c6 v=0
51177 On ch=1 n=e5 v=42
51235 On ch=1 n=e5 v=0
51237 On ch=1 n=c#6 v=68
51295 On ch=1 n=c#6 v=0
51297 On ch=1 n=a5 v=39
51355 On ch=1 n=a5 v=0
51357 On ch=1 n=d#6 v=72
51415 On ch=1 n=d#6 v=0
51417 On ch=1 n=a5 v=32
51475 On ch=1 n=a5 v=0
51477 On ch=1 n=e6 v=71
51535 On ch=1 n=e6 v=0
51537 On ch=1 n=c#6 v=43
51595 On ch=1 n=c#6 v=0
51597 On ch=1 n=g#6 v=78
51655 On ch=1 n=g#6 v=0
51657 On ch=1 n=c#6 v=47
51715 On ch=1 n=c#6 v=0
51717 On ch=1 n=a6 v=78
51775 On ch=1 n=a6 v=0
51777 On ch=1 n=e6 v=57
51835 On ch=1 n=e6 v=0
51837 On ch=1 n=c7 v=75
51895 On ch=1 n=c7 v=0
51897 On ch=1 n=e6 v=48
51955 On ch=1 n=e6 v=0
51957 On ch=1 n=c#7 v=72
52015 On ch=1 n=c#7 v=0
52017 On ch=1 n=a6 v=26
52075 On ch=1 n=a6 v=0
52077 On ch=1 n=d#7 v=65
52135 On ch=1 n=d#7 v=0
52137 On ch=1 n=a6 v=62
52195 On ch=1 n=a6 v=0
52197 On ch=1 n=e7 v=52
52255 On ch=1 n=e7 v=0
52257 On ch=1 n=c#7 v=42
52315 On ch=1 n=c#7 v=0
52317 On ch=1 n=g#7 v=78
52375 On ch=1 n=g#7 v=0
52377 On ch=1 n=c#7 v=47
52435 On ch=1 n=c#7 v=0
52437 On ch=1 n=a7 v=76
52495 On ch=1 n=a7 v=0
52497 On ch=1 n=e7 v=53
52555 On ch=1 n=e7 v=0
52557 On ch=1 n=g#7 v=62
52557 On ch=1 n=c8 v=71
52615 On ch=1 n=c8 v=0
52615 On ch=1 n=g#7 v=0
52617 On ch=1 n=e7 v=67
52675 On ch=1 n=e7 v=0
52677 On ch=1 n=c#8 v=75
52735 On ch=1 n=c#8 v=0
52737 On ch=1 n=a7 v=60
52795 On ch=1 n=a7 v=0
52797 On ch=1 n=d#8 v=65
52797 On ch=1 n=c8 v=50
52855 On ch=1 n=c8 v=0
52855 On ch=1 n=d#8 v=0
52857 On ch=1 n=a7 v=47
52915 On ch=1 n=a7 v=0
52917 On ch=1 n=e8 v=50
52975 On ch=1 n=e8 v=0
52977 On ch=1 n=c#8 v=60
53035 On ch=1 n=c#8 v=0
53037 On ch=1 n=g#7 v=53
53037 On ch=1 n=c8 v=57
53095 On ch=1 n=c8 v=0
53095 On ch=1 n=g#7 v=0
53097 On ch=1 n=e7 v=56
53155 On ch=1 n=e7 v=0
53157 On ch=1 n=c#8 v=67
53215 On ch=1 n=c#8 v=0
53217 On ch=1 n=a7 v=68
53275 On ch=1 n=a7 v=0
53277 On ch=1 n=d#8 v=76
53277 On ch=1 n=c8 v=72
53335 On ch=1 n=c8 v=0
53335 On ch=1 n=d#8 v=0
53337 On ch=1 n=a7 v=53
53395 On ch=1 n=a7 v=0
53397 On ch=1 n=e8 v=72
53455 On ch=1 n=e8 v=0
53457 On ch=1 n=c#8 v=57
53515 On ch=1 n=c#8 v=0
53517 On ch=1 n=g#7 v=63
53517 On ch=1 n=c8 v=63
53575 On ch=1 n=c8 v=0
53575 On ch=1 n=g#7 v=0
53577 On ch=1 n=e7 v=58
53635 On ch=1 n=e7 v=0
53637 On ch=1 n=c#8 v=61
53695 On ch=1 n=c#8 v=0
53697 On ch=1 n=a7 v=55
53755 On ch=1 n=a7 v=0
53757 On ch=1 n=d#8 v=76
53757 On ch=1 n=c8 v=75
53815 On ch=1 n=c8 v=0
53815 On ch=1 n=d#8 v=0
53817 On ch=1 n=a7 v=65
53875 On ch=1 n=a7 v=0
53877 On ch=1 n=e8 v=75
53935 On ch=1 n=e8 v=0
53937 On ch=1 n=c#8 v=68
53995 On ch=1 n=c#8 v=0
53997 On ch=1 n=g#7 v=51
53997 On ch=1 n=c8 v=65
54055 On ch=1 n=c8 v=0
54055 On ch=1 n=g#7 v=0
54057 On ch=1 n=e7 v=60
54115 On ch=1 n=e7 v=0
54117 On ch=1 n=c#8 v=65
54175 On ch=1 n=c#8 v=0
54177 On ch=1 n=a7 v=75
54235 On ch=1 n=a7 v=0
54237 On ch=1 n=d#8 v=60
54237 On ch=1 n=c8 v=55
54295 On ch=1 n=c8 v=0
54295 On ch=1 n=d#8 v=0
54297 On ch=1 n=a7 v=56
54355 On ch=1 n=a7 v=0
54357 On ch=1 n=e8 v=62
54415 On ch=1 n=e8 v=0
54417 On ch=1 n=c#8 v=47
54475 On ch=1 n=c#8 v=0
54477 On ch=1 n=c8 v=51
54477 On ch=1 n=g#7 v=53
54535 On ch=1 n=g#7 v=0
54535 On ch=1 n=c8 v=0
54537 On ch=1 n=e7 v=52
54595 On ch=1 n=e7 v=0
54597 On ch=1 n=c#8 v=63
54655 On ch=1 n=c#8 v=0
54657 On ch=1 n=a7 v=65
54715 On ch=1 n=a7 v=0
54717 On ch=1 n=d#8 v=53
54717 On ch=1 n=c8 v=45
54775 On ch=1 n=c8 v=0
54775 On ch=1 n=d#8 v=0
54777 On ch=1 n=a7 v=65
54835 On ch=1 n=a7 v=0
54837 On ch=1 n=e8 v=43
54895 On ch=1 n=e8 v=0
54897 On ch=1 n=c#8 v=56
54955 On ch=1 n=c#8 v=0
56577 On ch=1 n=e6 v=84
56577 On ch=1 n=c#6 v=85
56635 On ch=1 n=c#6 v=0
56635 On ch=1 n=e6 v=0
56637 On ch=1 n=e5 v=92
56637 On ch=1 n=e6 v=105
56637 On ch=1 n=c#6 v=96
56637 On ch=1 n=a3 v=65
56637 On ch=1 n=a2 v=68
56875 On ch=1 n=a2 v=0
56875 On ch=1 n=a3 v=0
56877 On ch=1 n=c#5 v=43
56877 On ch=1 n=e5 v=68
56995 On ch=1 n=c#6 v=0
56995 On ch=1 n=e6 v=0
56995 On ch=1 n=e5 v=0
56997 On ch=1 n=a5 v=92
56997 On ch=1 n=c#6 v=101
57057 On ch=1 n=c#6 v=63
57057 On ch=1 n=e6 v=66
57115 On ch=1 n=e6 v=0
57115 On ch=1 n=c#6 v=0
57115 On ch=1 n=c#6 v=0
57115 On ch=1 n=a5 v=0
57115 On ch=1 n=e5 v=0
57115 On ch=1 n=c#5 v=0
57117 On ch=1 n=b5 v=86
57117 On ch=1 n=d6 v=90
57117 On ch=1 n=a3 v=73
57237 On ch=1 n=g#5 v=68
57237 On ch=1 n=f5 v=62
57297 On ch=1 n=b5 v=70
57297 On ch=1 n=g#5 v=66
57355 On ch=1 n=g#5 v=0
57355 On ch=1 n=f5 v=0
57355 On ch=1 n=g#5 v=0
57355 On ch=1 n=a3 v=0
57355 On ch=1 n=b5 v=0
57357 On ch=1 n=b5 v=0
57357 On ch=1 n=d6 v=0
57357 On ch=1 n=a5 v=90
57357 On ch=1 n=f5 v=86
57357 On ch=1 n=c#5 v=80
57357 On ch=1 n=a4 v=63
57435 On ch=1 n=f5 v=0
57435 On ch=1 n=a5 v=0
57477 On ch=1 n=e5 v=77
57477 On ch=1 n=g#5 v=73
57519 Par ch=1 c=64 v=0
57595 On ch=1 n=g#5 v=0
57595 On ch=1 n=e5 v=0
57595 On ch=1 n=a4 v=0
57595 On ch=1 n=c#5 v=0
57597 On ch=1 n=e5 v=75
57597 On ch=1 n=g#5 v=69
57597 On ch=1 n=d3 v=77
57715 On ch=1 n=g#5 v=0
57715 On ch=1 n=e5 v=0
57717 On ch=1 n=d5 v=79
57717 On ch=1 n=f#5 v=68
57777 On ch=1 n=e5 v=56
57777 On ch=1 n=g#5 v=56
57835 On ch=1 n=g#5 v=0
57835 On ch=1 n=e5 v=0
57835 On ch=1 n=f#5 v=0
57835 On ch=1 n=d5 v=0
57835 On ch=1 n=d3 v=0
57837 On ch=1 n=d5 v=72
57837 On ch=1 n=f#5 v=73
57837 On ch=1 n=a4 v=57
57837 On ch=1 n=f#4 v=55
57955 On ch=1 n=f#5 v=0
57955 On ch=1 n=d5 v=0
58017 On ch=1 n=c#5 v=47
58017 On ch=1 n=f5 v=68
58075 On ch=1 n=f5 v=0
58075 On ch=1 n=c#5 v=0
58077 On ch=1 n=d5 v=84
58077 On ch=1 n=f#5 v=70
58315 On ch=1 n=f#4 v=0
58315 On ch=1 n=a4 v=0
58317 On ch=1 n=f#4 v=53
58317 On ch=1 n=d4 v=52
58497 On ch=1 n=g3 v=99
58497 On ch=1 n=g2 v=114
58555 On ch=1 n=d4 v=0
58555 On ch=1 n=f#4 v=0
58555 On ch=1 n=f#5 v=0
58555 On ch=1 n=d5 v=0
58557 On ch=1 n=b4 v=92
58557 On ch=1 n=d4 v=93
58630 Par ch=1 c=64 v=127
58675 On ch=1 n=d4 v=0
58675 On ch=1 n=b4 v=0
58677 On ch=1 n=g4 v=93
58677 On ch=1 n=d5 v=101
58735 On ch=1 n=d5 v=0
58735 On ch=1 n=g4 v=0
58737 On ch=1 n=g5 v=101
58737 On ch=1 n=b4 v=85
58795 On ch=1 n=b4 v=0
58795 On ch=1 n=g5 v=0
58795 On ch=1 n=g2 v=0
58795 On ch=1 n=g3 v=0
58797 On ch=1 n=d5 v=93
58797 On ch=1 n=b5 v=95
58855 On ch=1 n=b5 v=0
58855 On ch=1 n=d5 v=0
58857 On ch=1 n=d6 v=98
58857 On ch=1 n=g5 v=91
58915 On ch=1 n=g5 v=0
58915 On ch=1 n=d6 v=0
58917 On ch=1 n=g6 v=115
58917 On ch=1 n=b5 v=110
58955 On ch=1 n=b5 v=0
58955 On ch=1 n=g6 v=0
58957 On ch=1 n=b6 v=115
58957 On ch=1 n=d6 v=111
58986 Par ch=1 c=64 v=0
58995 On ch=1 n=d6 v=0
58995 On ch=1 n=b6 v=0
58997 On ch=1 n=d7 v=126
58997 On ch=1 n=g6 v=98
59035 On ch=1 n=g6 v=0
59035 On ch=1 n=d7 v=0
59037 On ch=1 n=f#3 v=105
59037 On ch=1 n=f#2 v=102
59037 On ch=1 n=f#7 v=116
59037 On ch=1 n=a#6 v=113
59095 On ch=1 n=a#6 v=0
59095 On ch=1 n=f#7 v=0
59197 On ch=1 n=a#6 v=85
59197 On ch=1 n=f#7 v=90
59235 On ch=1 n=f#7 v=0
59235 On ch=1 n=a#6 v=0
59237 On ch=1 n=f#7 v=93
59237 On ch=1 n=a#6 v=86
59275 On ch=1 n=a#6 v=0
59275 On ch=1 n=f#7 v=0
59277 On ch=1 n=e4 v=81
59277 On ch=1 n=c#5 v=81
59277 On ch=1 n=a#4 v=71
59277 On ch=1 n=e7 v=102
59277 On ch=1 n=g6 v=101
59335 On ch=1 n=g6 v=0
59335 On ch=1 n=e7 v=0
59397 On ch=1 n=d7 v=98
59397 On ch=1 n=f#6 v=92
59455 On ch=1 n=f#6 v=0
59455 On ch=1 n=d7 v=0
59457 On ch=1 n=c#7 v=101
59457 On ch=1 n=e6 v=86
59515 On ch=1 n=e6 v=0
59515 On ch=1 n=c#7 v=0
59515 On ch=1 n=a#4 v=0
59515 On ch=1 n=c#5 v=0
59515 On ch=1 n=e4 v=0
59515 On ch=1 n=f#2 v=0
59515 On ch=1 n=f#3 v=0
59517 On ch=1 n=b3 v=87
59517 On ch=1 n=d7 v=87
59517 On ch=1 n=f#6 v=81
59575 On ch=1 n=f#6 v=0
59575 On ch=1 n=d7 v=0
59575 On ch=1 n=b3 v=0
59637 On ch=1 n=f#4 v=63
59637 On ch=1 n=b4 v=71
59637 On ch=1 n=d5 v=76
59677 On ch=1 n=f#6 v=56
59677 On ch=1 n=d7 v=67
59695 On ch=1 n=d5 v=0
59695 On ch=1 n=b4 v=0
59695 On ch=1 n=f#4 v=0
59715 On ch=1 n=d7 v=0
59715 On ch=1 n=f#6 v=0
59717 On ch=1 n=d7 v=68
59717 On ch=1 n=f#6 v=51
59755 On ch=1 n=f#6 v=0
59755 On ch=1 n=d7 v=0
59757 On ch=1 n=f#3 v=84
59757 On ch=1 n=c#7 v=66
59757 On ch=1 n=e6 v=70
59815 On ch=1 n=e6 v=0
59815 On ch=1 n=c#7 v=0
59815 On ch=1 n=f#3 v=0
59877 On ch=1 n=f#5 v=70
59877 On ch=1 n=a#4 v=65
59917 On ch=1 n=c#7 v=63
59917 On ch=1 n=e6 v=67
59935 On ch=1 n=a#4 v=0
59935 On ch=1 n=f#5 v=0
59955 On ch=1 n=e6 v=0
59955 On ch=1 n=c#7 v=0
59957 On ch=1 n=c#7 v=61
59957 On ch=1 n=e6 v=51
59995 On ch=1 n=e6 v=0
59995 On ch=1 n=c#7 v=0
59997 On ch=1 n=b3 v=75
59997 On ch=1 n=b6 v=70
59997 On ch=1 n=d6 v=70
60055 On ch=1 n=b3 v=0
60115 On ch=1 n=d6 v=0
60115 On ch=1 n=b6 v=0
60117 On ch=1 n=d5 v=72
60117 On ch=1 n=f#5 v=62
60117 On ch=1 n=b5 v=66
60175 On ch=1 n=b5 v=0
60175 On ch=1 n=f#5 v=0
60175 On ch=1 n=d5 v=0
60237 On ch=1 n=b4 v=76
60437 On ch=1 n=f#5 v=82
60437 On ch=1 n=f#6 v=87
60437 On ch=1 n=a5 v=77
60475 On ch=1 n=a5 v=0
60475 On ch=1 n=f#6 v=0
60475 On ch=1 n=f#5 v=0
60475 On ch=1 n=b4 v=0
60477 On ch=1 n=d3 v=94
60477 On ch=1 n=d4 v=87
60477 On ch=1 n=f#5 v=87
60477 On ch=1 n=a5 v=92
60477 On ch=1 n=f#6 v=100
60677 On ch=1 n=f#4 v=67
60677 On ch=1 n=a4 v=80
60677 On ch=1 n=d5 v=73
60715 On ch=1 n=d5 v=0
60715 On ch=1 n=a4 v=0
60715 On ch=1 n=f#4 v=0
60717 On ch=1 n=a4 v=78
60717 On ch=1 n=f#4 v=75
60717 On ch=1 n=d5 v=75
60835 On ch=1 n=f#6 v=0
60835 On ch=1 n=a5 v=0
60835 On ch=1 n=f#5 v=0
60837 On ch=1 n=f#5 v=74
60837 On ch=1 n=d6 v=89
60955 On ch=1 n=d6 v=0
60955 On ch=1 n=f#5 v=0
60955 On ch=1 n=d5 v=0
60955 On ch=1 n=f#4 v=0
60955 On ch=1 n=a4 v=0
60955 On ch=1 n=d4 v=0
60955 On ch=1 n=d3 v=0
60957 On ch=1 n=d3 v=88
60957 On ch=1 n=d4 v=88
60957 On ch=1 n=f#6 v=95
60957 On ch=1 n=a5 v=89
60995 On ch=1 n=a5 v=0
60995 On ch=1 n=f#6 v=0
60997 On ch=1 n=f#6 v=90
60997 On ch=1 n=a5 v=83
61035 On ch=1 n=a5 v=0
61035 On ch=1 n=f#6 v=0
61037 On ch=1 n=b5 v=66
61037 On ch=1 n=g6 v=94
61075 On ch=1 n=g6 v=0
61075 On ch=1 n=b5 v=0
61077 On ch=1 n=f#6 v=96
61077 On ch=1 n=a5 v=87
61115 On ch=1 n=a5 v=0
61115 On ch=1 n=f#6 v=0
61117 On ch=1 n=g#5 v=94
61117 On ch=1 n=f6 v=95
61155 On ch=1 n=f6 v=0
61155 On ch=1 n=g#5 v=0
61157 On ch=1 n=a4 v=68
61157 On ch=1 n=f#4 v=67
61157 On ch=1 n=d5 v=78
61157 On ch=1 n=f#6 v=94
61157 On ch=1 n=a5 v=85
61195 On ch=1 n=a5 v=0
61195 On ch=1 n=f#6 v=0
61195 On ch=1 n=d5 v=0
61195 On ch=1 n=f#4 v=0
61195 On ch=1 n=a4 v=0
61197 On ch=1 n=f#4 v=54
61197 On ch=1 n=a4 v=60
61197 On ch=1 n=d5 v=55
61197 On ch=1 n=b6 v=100
61197 On ch=1 n=d6 v=98
61375 On ch=1 n=d6 v=0
61375 On ch=1 n=b6 v=0
61377 On ch=1 n=a6 v=88
61377 On ch=1 n=c#6 v=79
61435 On ch=1 n=c#6 v=0
61435 On ch=1 n=a6 v=0
61435 On ch=1 n=d5 v=0
61435 On ch=1 n=a4 v=0
61435 On ch=1 n=f#4 v=0
61435 On ch=1 n=d4 v=0
61435 On ch=1 n=d3 v=0
61437 On ch=1 n=g3 v=75
61437 On ch=1 n=a6 v=86
61437 On ch=1 n=c#6 v=68
61555 On ch=1 n=c#6 v=0
61555 On ch=1 n=a6 v=0
61557 On ch=1 n=g6 v=84
61557 On ch=1 n=b5 v=78
61637 On ch=1 n=b4 v=66
61637 On ch=1 n=g4 v=69
61637 On ch=1 n=e5 v=79
61675 On ch=1 n=e5 v=0
61675 On ch=1 n=g4 v=0
61675 On ch=1 n=b4 v=0
61675 On ch=1 n=b5 v=0
61675 On ch=1 n=g6 v=0
61677 On ch=1 n=e5 v=61
61677 On ch=1 n=b4 v=55
61677 On ch=1 n=g4 v=53
61677 On ch=1 n=f#7 v=83
61677 On ch=1 n=a6 v=83
61915 On ch=1 n=g4 v=0
61915 On ch=1 n=b4 v=0
61915 On ch=1 n=e5 v=0
61915 On ch=1 n=g3 v=0
61917 On ch=1 n=g3 v=77
62035 On ch=1 n=a6 v=0
62035 On ch=1 n=f#7 v=0
62037 On ch=1 n=e7 v=65
62037 On ch=1 n=g6 v=72
62080 On ch=1 n=g6 v=0
62080 On ch=1 n=e7 v=0
62117 On ch=1 n=b4 v=62
62117 On ch=1 n=e5 v=79
62117 On ch=1 n=g4 v=61
62155 On ch=1 n=g4 v=0
62155 On ch=1 n=e5 v=0
62155 On ch=1 n=b4 v=0
62157 On ch=1 n=b4 v=54
62157 On ch=1 n=g4 v=62
62157 On ch=1 n=e5 v=62
62157 On ch=1 n=g6 v=76
62157 On ch=1 n=b5 v=75
62395 On ch=1 n=b5 v=0
62395 On ch=1 n=g6 v=0
62395 On ch=1 n=e5 v=0
62395 On ch=1 n=g4 v=0
62395 On ch=1 n=b4 v=0
62395 On ch=1 n=g3 v=0
62397 On ch=1 n=f#5 v=63
62397 On ch=1 n=a4 v=65
62397 On ch=1 n=d5 v=65
62397 On ch=1 n=f#6 v=72
62397 On ch=1 n=d6 v=66
62435 On ch=1 n=f#6 v=0
62437 On ch=1 n=g6 v=76
62440 On ch=1 n=d5 v=0
62440 On ch=1 n=a4 v=0
62440 On ch=1 n=f#5 v=0
62475 On ch=1 n=g6 v=0
62477 On ch=1 n=f#6 v=68
62515 On ch=1 n=f#6 v=0
62517 On ch=1 n=a3 v=77
62517 On ch=1 n=f6 v=76
62517 On ch=1 n=c#6 v=56
62560 On ch=1 n=a3 v=0
62575 On ch=1 n=c#6 v=0
62575 On ch=1 n=f6 v=0
62577 On ch=1 n=f#6 v=75
62577 On ch=1 n=d6 v=73
62635 On ch=1 n=d6 v=0
62635 On ch=1 n=f#6 v=0
62635 On ch=1 n=d6 v=0
62637 On ch=1 n=g6 v=80
62637 On ch=1 n=b6 v=75
62680 On ch=1 n=b6 v=0
62680 On ch=1 n=g6 v=0
62757 On ch=1 n=d5 v=65
62757 On ch=1 n=f#5 v=53
62757 On ch=1 n=a4 v=65
62800 On ch=1 n=a4 v=0
62800 On ch=1 n=f#5 v=0
62800 On ch=1 n=d5 v=0
62817 On ch=1 n=a6 v=78
62817 On ch=1 n=f#6 v=68
62875 On ch=1 n=f#6 v=0
62875 On ch=1 n=a6 v=0
62877 On ch=1 n=g5 v=76
62877 On ch=1 n=c#5 v=58
62877 On ch=1 n=a4 v=46
62877 On ch=1 n=g6 v=78
62877 On ch=1 n=e6 v=77
62915 On ch=1 n=g6 v=0
62917 On ch=1 n=a6 v=81
62920 On ch=1 n=a4 v=0
62920 On ch=1 n=c#5 v=0
62920 On ch=1 n=g5 v=0
62955 On ch=1 n=a6 v=0
62957 On ch=1 n=g6 v=80
62995 On ch=1 n=g6 v=0
62997 On ch=1 n=a3 v=72
62997 On ch=1 n=f#6 v=73
63040 On ch=1 n=a3 v=0
63055 On ch=1 n=f#6 v=0
63057 On ch=1 n=g6 v=82
63077 On ch=1 n=c#7 v=68
63115 On ch=1 n=g6 v=0
63115 On ch=1 n=e6 v=0
63117 On ch=1 n=a7 v=86
63155 On ch=1 n=c#7 v=0
63235 On ch=1 n=a7 v=0
63297 On ch=1 n=e5 v=42
63297 On ch=1 n=c#6 v=56
63297 On ch=1 n=a4 v=50
63297 On ch=1 n=g5 v=65
63355 On ch=1 n=g5 v=0
63355 On ch=1 n=a4 v=0
63355 On ch=1 n=c#6 v=0
63355 On ch=1 n=e5 v=0
63357 On ch=1 n=d4 v=68
63357 On ch=1 n=a4 v=68
63357 On ch=1 n=e5 v=65
63357 On ch=1 n=e6 v=66
63430 Par ch=1 c=64 v=127
63475 On ch=1 n=e6 v=0
63475 On ch=1 n=e5 v=0
63477 On ch=1 n=d5 v=65
63477 On ch=1 n=d6 v=87
63517 On ch=1 n=c#6 v=62
63555 On ch=1 n=c#6 v=0
63557 On ch=1 n=e6 v=51
63595 On ch=1 n=e6 v=0
63595 On ch=1 n=d6 v=0
63595 On ch=1 n=d5 v=0
63595 On ch=1 n=a4 v=0
63595 On ch=1 n=d4 v=0
63597 On ch=1 n=d4 v=72
63597 On ch=1 n=a4 v=61
63597 On ch=1 n=f#5 v=55
63597 On ch=1 n=d5 v=67
63597 On ch=1 n=d6 v=78
63655 On ch=1 n=d6 v=0
63655 On ch=1 n=d5 v=0
63655 On ch=1 n=f#5 v=0
63715 On ch=1 n=a4 v=0
63715 On ch=1 n=d4 v=0
63717 On ch=1 n=a3 v=62
63717 On ch=1 n=d4 v=58
63777 On ch=1 n=c#6 v=75
63777 On ch=1 n=c#5 v=70
63835 On ch=1 n=c#5 v=0
63835 On ch=1 n=c#6 v=0
63835 On ch=1 n=d4 v=0
63835 On ch=1 n=a3 v=0
63837 On ch=1 n=d3 v=62
63837 On ch=1 n=a3 v=65
63837 On ch=1 n=d5 v=58
63837 On ch=1 n=d6 v=83
63837 On ch=1 n=f#5 v=55
64075 On ch=1 n=f#5 v=0
64075 On ch=1 n=d6 v=0
64075 On ch=1 n=d5 v=0
64075 On ch=1 n=a3 v=0
64075 On ch=1 n=d3 v=0
64236 Par ch=1 c=64 v=0
64277 On ch=1 n=e6 v=76
64277 On ch=1 n=c#6 v=83
64315 On ch=1 n=c#6 v=0
64315 On ch=1 n=e6 v=0
64317 On ch=1 n=a2 v=68
64317 On ch=1 n=a3 v=65
64317 On ch=1 n=c#6 v=96
64317 On ch=1 n=e6 v=105
64317 On ch=1 n=e5 v=92
64555 On ch=1 n=a3 v=0
64555 On ch=1 n=a2 v=0
64557 On ch=1 n=e5 v=68
64557 On ch=1 n=c#5 v=43
64675 On ch=1 n=e5 v=0
64675 On ch=1 n=e6 v=0
64675 On ch=1 n=c#6 v=0
64677 On ch=1 n=c#6 v=101
64677 On ch=1 n=a5 v=92
64737 On ch=1 n=e6 v=66
64737 On ch=1 n=c#6 v=63
64795 On ch=1 n=c#6 v=0
64795 On ch=1 n=e6 v=0
64795 On ch=1 n=a5 v=0
64795 On ch=1 n=c#6 v=0
64795 On ch=1 n=c#5 v=0
64795 On ch=1 n=e5 v=0
64797 On ch=1 n=a3 v=73
64797 On ch=1 n=d6 v=90
64797 On ch=1 n=b5 v=86
64917 On ch=1 n=f5 v=62
64917 On ch=1 n=g#5 v=68
64977 On ch=1 n=g#5 v=66
64977 On ch=1 n=b5 v=70
65035 On ch=1 n=g#5 v=0
65035 On ch=1 n=g#5 v=0
65035 On ch=1 n=f5 v=0
65035 On ch=1 n=b5 v=0
65035 On ch=1 n=a3 v=0
65037 On ch=1 n=b5 v=0
65037 On ch=1 n=d6 v=0
65037 On ch=1 n=a4 v=63
65037 On ch=1 n=c#5 v=80
65037 On ch=1 n=f5 v=86
65037 On ch=1 n=a5 v=90
65115 On ch=1 n=a5 v=0
65115 On ch=1 n=f5 v=0
65157 On ch=1 n=g#5 v=73
65157 On ch=1 n=e5 v=77
65199 Par ch=1 c=64 v=0
65275 On ch=1 n=e5 v=0
65275 On ch=1 n=g#5 v=0
65275 On ch=1 n=c#5 v=0
65275 On ch=1 n=a4 v=0
65277 On ch=1 n=d3 v=77
65277 On ch=1 n=g#5 v=69
65277 On ch=1 n=e5 v=75
65395 On ch=1 n=e5 v=0
65395 On ch=1 n=g#5 v=0
65397 On ch=1 n=f#5 v=68
65397 On ch=1 n=d5 v=79
65457 On ch=1 n=g#5 v=56
65457 On ch=1 n=e5 v=56
65515 On ch=1 n=e5 v=0
65515 On ch=1 n=g#5 v=0
65515 On ch=1 n=d5 v=0
65515 On ch=1 n=f#5 v=0
65515 On ch=1 n=d3 v=0
65517 On ch=1 n=f#4 v=55
65517 On ch=1 n=a4 v=57
65517 On ch=1 n=f#5 v=73
65517 On ch=1 n=d5 v=72
65635 On ch=1 n=d5 v=0
65635 On ch=1 n=f#5 v=0
65697 On ch=1 n=f5 v=68
65697 On ch=1 n=c#5 v=47
65755 On ch=1 n=c#5 v=0
65755 On ch=1 n=f5 v=0
65757 On ch=1 n=f#5 v=70
65757 On ch=1 n=d5 v=84
65995 On ch=1 n=a4 v=0
65995 On ch=1 n=f#4 v=0
65997 On ch=1 n=d4 v=52
65997 On ch=1 n=f#4 v=53
66177 On ch=1 n=g2 v=114
66177 On ch=1 n=g3 v=99
66235 On ch=1 n=f#4 v=0
66235 On ch=1 n=d4 v=0
66235 On ch=1 n=d5 v=0
66235 On ch=1 n=f#5 v=0
66237 On ch=1 n=d4 v=93
66237 On ch=1 n=b4 v=92
66310 Par ch=1 c=64 v=127
66355 On ch=1 n=b4 v=0
66355 On ch=1 n=d4 v=0
66357 On ch=1 n=d5 v=101
66357 On ch=1 n=g4 v=93
66415 On ch=1 n=g4 v=0
66415 On ch=1 n=d5 v=0
66417 On ch=1 n=b4 v=85
66417 On ch=1 n=g5 v=101
66475 On ch=1 n=g5 v=0
66475 On ch=1 n=b4 v=0
66475 On ch=1 n=g3 v=0
66475 On ch=1 n=g2 v=0
66477 On ch=1 n=b5 v=95
66477 On ch=1 n=d5 v=93
66535 On ch=1 n=d5 v=0
66535 On ch=1 n=b5 v=0
66537 On ch=1 n=g5 v=91
66537 On ch=1 n=d6 v=98
66595 On ch=1 n=d6 v=0
66595 On ch=1 n=g5 v=0
66597 On ch=1 n=b5 v=98
66597 On ch=1 n=g6 v=103
66635 On ch=1 n=g6 v=0
66635 On ch=1 n=b5 v=0
66637 On ch=1 n=d6 v=99
66637 On ch=1 n=b6 v=103
66666 Par ch=1 c=64 v=0
66675 On ch=1 n=b6 v=0
66675 On ch=1 n=d6 v=0
66677 On ch=1 n=g6 v=86
66677 On ch=1 n=d7 v=114
66715 On ch=1 n=d7 v=0
66715 On ch=1 n=g6 v=0
66717 On ch=1 n=a#6 v=101
66717 On ch=1 n=f#7 v=104
66717 On ch=1 n=f#2 v=90
66717 On ch=1 n=f#3 v=93
66775 On ch=1 n=f#7 v=0
66775 On ch=1 n=a#6 v=0
66877 On ch=1 n=f#7 v=90
66877 On ch=1 n=a#6 v=85
66915 On ch=1 n=a#6 v=0
66915 On ch=1 n=f#7 v=0
66917 On ch=1 n=a#6 v=86
66917 On ch=1 n=f#7 v=93
66955 On ch=1 n=f#7 v=0
66955 On ch=1 n=a#6 v=0
66957 On ch=1 n=g6 v=101
66957 On ch=1 n=e7 v=102
66957 On ch=1 n=a#4 v=71
66957 On ch=1 n=c#5 v=81
66957 On ch=1 n=e4 v=81
67015 On ch=1 n=e7 v=0
67015 On ch=1 n=g6 v=0
67077 On ch=1 n=f#6 v=92
67077 On ch=1 n=d7 v=98
67135 On ch=1 n=d7 v=0
67135 On ch=1 n=f#6 v=0
67137 On ch=1 n=e6 v=86
67137 On ch=1 n=c#7 v=101
67195 On ch=1 n=c#7 v=0
67195 On ch=1 n=e6 v=0
67195 On ch=1 n=e4 v=0
67195 On ch=1 n=c#5 v=0
67195 On ch=1 n=a#4 v=0
67195 On ch=1 n=f#3 v=0
67195 On ch=1 n=f#2 v=0
67197 On ch=1 n=f#6 v=81
67197 On ch=1 n=d7 v=87
67197 On ch=1 n=b3 v=87
67255 On ch=1 n=b3 v=0
67255 On ch=1 n=d7 v=0
67255 On ch=1 n=f#6 v=0
67317 On ch=1 n=d5 v=76
67317 On ch=1 n=b4 v=71
67317 On ch=1 n=f#4 v=63
67357 On ch=1 n=d7 v=67
67357 On ch=1 n=f#6 v=56
67375 On ch=1 n=f#4 v=0
67375 On ch=1 n=b4 v=0
67375 On ch=1 n=d5 v=0
67395 On ch=1 n=f#6 v=0
67395 On ch=1 n=d7 v=0
67397 On ch=1 n=f#6 v=51
67397 On ch=1 n=d7 v=68
67435 On ch=1 n=d7 v=0
67435 On ch=1 n=f#6 v=0
67437 On ch=1 n=e6 v=70
67437 On ch=1 n=c#7 v=66
67437 On ch=1 n=f#3 v=84
67495 On ch=1 n=f#3 v=0
67495 On ch=1 n=c#7 v=0
67495 On ch=1 n=e6 v=0
67557 On ch=1 n=a#4 v=65
67557 On ch=1 n=f#5 v=70
67597 On ch=1 n=e6 v=67
67597 On ch=1 n=c#7 v=63
67615 On ch=1 n=f#5 v=0
67615 On ch=1 n=a#4 v=0
67635 On ch=1 n=c#7 v=0
67635 On ch=1 n=e6 v=0
67637 On ch=1 n=e6 v=51
67637 On ch=1 n=c#7 v=61
67675 On ch=1 n=c#7 v=0
67675 On ch=1 n=e6 v=0
67677 On ch=1 n=d6 v=70
67677 On ch=1 n=b6 v=70
67677 On ch=1 n=b3 v=75
67735 On ch=1 n=b3 v=0
67795 On ch=1 n=b6 v=0
67795 On ch=1 n=d6 v=0
67797 On ch=1 n=b5 v=66
67797 On ch=1 n=f#5 v=62
67797 On ch=1 n=d5 v=72
67855 On ch=1 n=d5 v=0
67855 On ch=1 n=f#5 v=0
67855 On ch=1 n=b5 v=0
67917 On ch=1 n=b4 v=76
68117 On ch=1 n=a5 v=77
68117 On ch=1 n=f#6 v=87
68117 On ch=1 n=f#5 v=82
68155 On ch=1 n=f#5 v=0
68155 On ch=1 n=f#6 v=0
68155 On ch=1 n=a5 v=0
68155 On ch=1 n=b4 v=0
68157 On ch=1 n=f#6 v=100
68157 On ch=1 n=a5 v=92
68157 On ch=1 n=f#5 v=87
68157 On ch=1 n=d4 v=87
68157 On ch=1 n=d3 v=94
68357 On ch=1 n=d5 v=73
68357 On ch=1 n=a4 v=80
68357 On ch=1 n=f#4 v=67
68395 On ch=1 n=f#4 v=0
68395 On ch=1 n=a4 v=0
68395 On ch=1 n=d5 v=0
68397 On ch=1 n=d5 v=75
68397 On ch=1 n=f#4 v=75
68397 On ch=1 n=a4 v=78
68515 On ch=1 n=f#5 v=0
68515 On ch=1 n=a5 v=0
68515 On ch=1 n=f#6 v=0
68517 On ch=1 n=d6 v=89
68517 On ch=1 n=f#5 v=74
68635 On ch=1 n=f#5 v=0
68635 On ch=1 n=d6 v=0
68635 On ch=1 n=a4 v=0
68635 On ch=1 n=f#4 v=0
68635 On ch=1 n=d5 v=0
68635 On ch=1 n=d3 v=0
68635 On ch=1 n=d4 v=0
68637 On ch=1 n=a5 v=89
68637 On ch=1 n=f#6 v=95
68637 On ch=1 n=d4 v=88
68637 On ch=1 n=d3 v=88
68675 On ch=1 n=f#6 v=0
68675 On ch=1 n=a5 v=0
68677 On ch=1 n=a5 v=83
68677 On ch=1 n=f#6 v=90
68715 On ch=1 n=f#6 v=0
68715 On ch=1 n=a5 v=0
68717 On ch=1 n=g6 v=94
68717 On ch=1 n=b5 v=66
68755 On ch=1 n=b5 v=0
68755 On ch=1 n=g6 v=0
68757 On ch=1 n=a5 v=87
68757 On ch=1 n=f#6 v=96
68795 On ch=1 n=f#6 v=0
68795 On ch=1 n=a5 v=0
68797 On ch=1 n=f6 v=95
68797 On ch=1 n=g#5 v=94
68835 On ch=1 n=g#5 v=0
68835 On ch=1 n=f6 v=0
68837 On ch=1 n=a5 v=85
68837 On ch=1 n=f#6 v=94
68837 On ch=1 n=d5 v=78
68837 On ch=1 n=f#4 v=67
68837 On ch=1 n=a4 v=68
68875 On ch=1 n=a4 v=0
68875 On ch=1 n=f#4 v=0
68875 On ch=1 n=d5 v=0
68875 On ch=1 n=f#6 v=0
68875 On ch=1 n=a5 v=0
68877 On ch=1 n=d6 v=98
68877 On ch=1 n=b6 v=100
68877 On ch=1 n=d5 v=55
68877 On ch=1 n=a4 v=60
68877 On ch=1 n=f#4 v=54
69055 On ch=1 n=b6 v=0
69055 On ch=1 n=d6 v=0
69057 On ch=1 n=c#6 v=79
69057 On ch=1 n=a6 v=88
69115 On ch=1 n=a6 v=0
69115 On ch=1 n=c#6 v=0
69115 On ch=1 n=f#4 v=0
69115 On ch=1 n=a4 v=0
69115 On ch=1 n=d5 v=0
69115 On ch=1 n=d3 v=0
69115 On ch=1 n=d4 v=0
69117 On ch=1 n=c#6 v=68
69117 On ch=1 n=a6 v=86
69117 On ch=1 n=g3 v=75
69235 On ch=1 n=a6 v=0
69235 On ch=1 n=c#6 v=0
69237 On ch=1 n=b5 v=78
69237 On ch=1 n=g6 v=84
69317 On ch=1 n=e5 v=79
69317 On ch=1 n=g4 v=69
69317 On ch=1 n=b4 v=66
69355 On ch=1 n=b4 v=0
69355 On ch=1 n=g4 v=0
69355 On ch=1 n=e5 v=0
69355 On ch=1 n=g6 v=0
69355 On ch=1 n=b5 v=0
69357 On ch=1 n=a6 v=83
69357 On ch=1 n=f#7 v=83
69357 On ch=1 n=g4 v=53
69357 On ch=1 n=b4 v=55
69357 On ch=1 n=e5 v=61
69595 On ch=1 n=e5 v=0
69595 On ch=1 n=b4 v=0
69595 On ch=1 n=g4 v=0
69595 On ch=1 n=g3 v=0
69597 On ch=1 n=g3 v=77
69715 On ch=1 n=f#7 v=0
69715 On ch=1 n=a6 v=0
69717 On ch=1 n=g6 v=72
69717 On ch=1 n=e7 v=65
69760 On ch=1 n=e7 v=0
69760 On ch=1 n=g6 v=0
69797 On ch=1 n=g4 v=61
69797 On ch=1 n=e5 v=79
69797 On ch=1 n=b4 v=62
69835 On ch=1 n=b4 v=0
69835 On ch=1 n=e5 v=0
69835 On ch=1 n=g4 v=0
69837 On ch=1 n=b5 v=75
69837 On ch=1 n=g6 v=76
69837 On ch=1 n=e5 v=62
69837 On ch=1 n=g4 v=62
69837 On ch=1 n=b4 v=54
70075 On ch=1 n=b4 v=0
70075 On ch=1 n=g4 v=0
70075 On ch=1 n=e5 v=0
70075 On ch=1 n=g6 v=0
70075 On ch=1 n=b5 v=0
70075 On ch=1 n=g3 v=0
70077 On ch=1 n=f#6 v=53
70077 On ch=1 n=d6 v=66
70077 On ch=1 n=d5 v=65
70077 On ch=1 n=a4 v=65
70077 On ch=1 n=f#5 v=63
70105 On ch=1 n=f#6 v=0
70107 On ch=1 n=g6 v=52
70117 On ch=1 n=f#5 v=0
70117 On ch=1 n=a4 v=0
70117 On ch=1 n=d5 v=0
70132 On ch=1 n=g6 v=0
70134 On ch=1 n=f#6 v=53
70162 On ch=1 n=f#6 v=0
70164 On ch=1 n=g6 v=57
70192 On ch=1 n=g6 v=0
70194 On ch=1 n=f#6 v=58
70194 On ch=1 n=a3 v=77
70232 On ch=1 n=f#6 v=0
70234 On ch=1 n=f6 v=55
70234 On ch=1 n=c#6 v=45
70237 On ch=1 n=a3 v=0
70272 On ch=1 n=c#6 v=0
70272 On ch=1 n=f6 v=0
70274 On ch=1 n=f#6 v=46
70274 On ch=1 n=d6 v=46
70312 On ch=1 n=d6 v=0
70312 On ch=1 n=f#6 v=0
70312 On ch=1 n=d6 v=0
70314 On ch=1 n=b6 v=75
70314 On ch=1 n=g6 v=80
70357 On ch=1 n=g6 v=0
70357 On ch=1 n=b6 v=0
70434 On ch=1 n=a4 v=65
70434 On ch=1 n=f#5 v=53
70434 On ch=1 n=d5 v=65
70477 On ch=1 n=d5 v=0
70477 On ch=1 n=f#5 v=0
70477 On ch=1 n=a4 v=0
70494 On ch=1 n=f#6 v=68
70494 On ch=1 n=a6 v=78
70552 On ch=1 n=a6 v=0
70552 On ch=1 n=f#6 v=0
70554 On ch=1 n=g6 v=55
70554 On ch=1 n=e6 v=77
70554 On ch=1 n=a4 v=46
70554 On ch=1 n=c#5 v=58
70554 On ch=1 n=g5 v=76
70582 On ch=1 n=g6 v=0
70584 On ch=1 n=a6 v=58
70594 On ch=1 n=g5 v=0
70594 On ch=1 n=c#5 v=0
70594 On ch=1 n=a4 v=0
70609 On ch=1 n=a6 v=0
70611 On ch=1 n=g6 v=55
70639 On ch=1 n=g6 v=0
70641 On ch=1 n=a6 v=47
70669 On ch=1 n=a6 v=0
70671 On ch=1 n=g6 v=56
70671 On ch=1 n=a3 v=72
70709 On ch=1 n=g6 v=0
70711 On ch=1 n=d#6 v=46
70711 On ch=1 n=f#6 v=60
70714 On ch=1 n=a3 v=0
70749 On ch=1 n=f#6 v=0
70749 On ch=1 n=d#6 v=0
70751 On ch=1 n=g6 v=60
70751 On ch=1 n=e6 v=45
70789 On ch=1 n=e6 v=0
70789 On ch=1 n=g6 v=0
70789 On ch=1 n=e6 v=0
70791 On ch=1 n=a7 v=86
70791 On ch=1 n=c#7 v=68
70829 On ch=1 n=c#7 v=0
70909 On ch=1 n=a7 v=0
70971 On ch=1 n=g5 v=65
70971 On ch=1 n=a4 v=50
70971 On ch=1 n=c#6 v=56
70971 On ch=1 n=e5 v=42
71029 On ch=1 n=e5 v=0
71029 On ch=1 n=c#6 v=0
71029 On ch=1 n=a4 v=0
71029 On ch=1 n=g5 v=0
71031 On ch=1 n=e6 v=66
71031 On ch=1 n=e5 v=65
71031 On ch=1 n=a4 v=68
71031 On ch=1 n=d4 v=68
71149 On ch=1 n=e5 v=0
71149 On ch=1 n=e6 v=0
71151 On ch=1 n=d6 v=87
71151 On ch=1 n=d5 v=65
71191 On ch=1 n=c#6 v=62
71229 On ch=1 n=c#6 v=0
71231 On ch=1 n=e6 v=51
71269 On ch=1 n=e6 v=0
71269 On ch=1 n=d5 v=0
71269 On ch=1 n=d6 v=0
71269 On ch=1 n=d4 v=0
71269 On ch=1 n=a4 v=0
71271 On ch=1 n=d6 v=78
71271 On ch=1 n=d5 v=67
71271 On ch=1 n=f#5 v=55
71271 On ch=1 n=a4 v=61
71271 On ch=1 n=d4 v=72
71329 On ch=1 n=f#5 v=0
71329 On ch=1 n=d5 v=0
71329 On ch=1 n=d6 v=0
71389 On ch=1 n=d4 v=0
71389 On ch=1 n=a4 v=0
71391 On ch=1 n=d4 v=58
71391 On ch=1 n=a3 v=62
71451 On ch=1 n=c#5 v=70
71451 On ch=1 n=c#6 v=75
71509 On ch=1 n=c#6 v=0
71509 On ch=1 n=c#5 v=0
71509 On ch=1 n=a3 v=0
71509 On ch=1 n=d4 v=0
71511 On ch=1 n=f#5 v=55
71511 On ch=1 n=d6 v=83
71511 On ch=1 n=d5 v=58
71511 On ch=1 n=a3 v=65
71511 On ch=1 n=d3 v=62
71749 On ch=1 n=d3 v=0
71749 On ch=1 n=a3 v=0
71749 On ch=1 n=d5 v=0
71749 On ch=1 n=d6 v=0
71749 On ch=1 n=f#5 v=0
71991 On ch=1 n=f#3 v=107
72109 On ch=1 n=f#3 v=0
72111 On ch=1 n=f#5 v=53
72111 On ch=1 n=a#3 v=106
72151 On ch=1 n=a#5 v=65
72169 On ch=1 n=a#3 v=0
72171 On ch=1 n=c#4 v=108
72191 On ch=1 n=c#6 v=58
72229 On ch=1 n=c#4 v=0
72231 On ch=1 n=c#6 v=52
72231 On ch=1 n=f#6 v=63
72231 On ch=1 n=e4 v=113
72289 On ch=1 n=e4 v=0
72291 On ch=1 n=f#4 v=107
72349 On ch=1 n=f#4 v=0
72349 On ch=1 n=c#6 v=0
72349 On ch=1 n=c#6 v=0
72349 On ch=1 n=a#5 v=0
72349 On ch=1 n=f#5 v=0
72351 On ch=1 n=a#4 v=106
72409 On ch=1 n=a#4 v=0
72411 On ch=1 n=c#5 v=109
72469 On ch=1 n=c#5 v=0
72469 On ch=1 n=f#6 v=0
72471 On ch=1 n=f#3 v=80
72471 On ch=1 n=g4 v=113
72471 On ch=1 n=e5 v=103
72591 On ch=1 n=f#5 v=52
72631 On ch=1 n=a#5 v=58
72649 On ch=1 n=e5 v=0
72649 On ch=1 n=g4 v=0
72651 On ch=1 n=d5 v=93
72651 On ch=1 n=f#4 v=91
72671 On ch=1 n=c#6 v=56
72709 On ch=1 n=f#4 v=0
72709 On ch=1 n=d5 v=0
72711 On ch=1 n=f#6 v=60
72711 On ch=1 n=d5 v=90
72711 On ch=1 n=f#4 v=90
72769 On ch=1 n=f#4 v=0
72769 On ch=1 n=d5 v=0
72829 On ch=1 n=c#6 v=0
72829 On ch=1 n=a#5 v=0
72829 On ch=1 n=f#5 v=0
72831 On ch=1 n=e4 v=93
72831 On ch=1 n=c#5 v=82
72889 On ch=1 n=c#5 v=0
72889 On ch=1 n=e4 v=0
72949 On ch=1 n=f#6 v=0
72949 On ch=1 n=f#3 v=0
72951 On ch=1 n=b2 v=73
72951 On ch=1 n=e4 v=102
72951 On ch=1 n=c#5 v=82
73071 On ch=1 n=f#5 v=53
73111 On ch=1 n=b5 v=65
73129 On ch=1 n=c#5 v=0
73129 On ch=1 n=e4 v=0
73131 On ch=1 n=d4 v=91
73131 On ch=1 n=b4 v=75
73151 On ch=1 n=d6 v=58
73189 On ch=1 n=b4 v=0
73189 On ch=1 n=d4 v=0
73191 On ch=1 n=f#6 v=63
73191 On ch=1 n=c#6 v=52
73191 On ch=1 n=d4 v=93
73191 On ch=1 n=b4 v=90
73249 On ch=1 n=b4 v=0
73249 On ch=1 n=d4 v=0
73309 On ch=1 n=c#6 v=0
73309 On ch=1 n=d6 v=0
73309 On ch=1 n=b5 v=0
73309 On ch=1 n=f#5 v=0
73311 On ch=1 n=c#4 v=90
73311 On ch=1 n=a#4 v=81
73369 On ch=1 n=a#4 v=0
73369 On ch=1 n=c#4 v=0
73429 On ch=1 n=f#6 v=0
73429 On ch=1 n=b2 v=0
73431 On ch=1 n=d4 v=91
73431 On ch=1 n=b4 v=90
73551 On ch=1 n=f#5 v=52
73591 On ch=1 n=b5 v=58
73631 On ch=1 n=d6 v=56
73671 On ch=1 n=f#6 v=60
73789 On ch=1 n=d6 v=0
73789 On ch=1 n=b5 v=0
73789 On ch=1 n=f#5 v=0
73909 On ch=1 n=f#6 v=0
73909 On ch=1 n=b4 v=0
73909 On ch=1 n=d4 v=0
73911 On ch=1 n=a3 v=108
74029 On ch=1 n=a3 v=0
74031 On ch=1 n=a5 v=53
74031 On ch=1 n=c#4 v=104
74071 On ch=1 n=c#6 v=65
74089 On ch=1 n=c#4 v=0
74091 On ch=1 n=e4 v=104
74111 On ch=1 n=e6 v=58
74149 On ch=1 n=e4 v=0
74151 On ch=1 n=e6 v=52
74151 On ch=1 n=a6 v=63
74151 On ch=1 n=g4 v=110
74209 On ch=1 n=g4 v=0
74211 On ch=1 n=a4 v=100
74269 On ch=1 n=a4 v=0
74269 On ch=1 n=e6 v=0
74269 On ch=1 n=e6 v=0
74269 On ch=1 n=c#6 v=0
74269 On ch=1 n=a5 v=0
74271 On ch=1 n=c#5 v=121
74329 On ch=1 n=c#5 v=0
74331 On ch=1 n=e5 v=113
74389 On ch=1 n=e5 v=0
74389 On ch=1 n=a6 v=0
74391 On ch=1 n=a3 v=86
74391 On ch=1 n=e5 v=111
74391 On ch=1 n=g5 v=110
74511 On ch=1 n=f#5 v=73
74511 On ch=1 n=a5 v=52
74551 On ch=1 n=c#6 v=58
74569 On ch=1 n=f#5 v=0
74569 On ch=1 n=g5 v=0
74569 On ch=1 n=e5 v=0
74571 On ch=1 n=a5 v=75
74571 On ch=1 n=d5 v=88
74591 On ch=1 n=e6 v=56
74629 On ch=1 n=d5 v=0
74629 On ch=1 n=a5 v=0
74631 On ch=1 n=f#5 v=65
74631 On ch=1 n=a5 v=81
74631 On ch=1 n=a6 v=60
74631 On ch=1 n=d5 v=96
74689 On ch=1 n=d5 v=0
74689 On ch=1 n=f#5 v=0
74689 On ch=1 n=a5 v=0
74749 On ch=1 n=a5 v=0
74749 On ch=1 n=e6 v=0
74749 On ch=1 n=c#6 v=0
74751 On ch=1 n=e5 v=93
74751 On ch=1 n=c#5 v=78
74809 On ch=1 n=c#5 v=0
74809 On ch=1 n=e5 v=0
74869 On ch=1 n=a6 v=0
74869 On ch=1 n=a3 v=0
74871 On ch=1 n=d3 v=87
74871 On ch=1 n=e5 v=86
74871 On ch=1 n=g5 v=87
74991 On ch=1 n=a5 v=53
75031 On ch=1 n=d6 v=65
75049 On ch=1 n=g5 v=0
75049 On ch=1 n=e5 v=0
75051 On ch=1 n=f#5 v=72
75051 On ch=1 n=d5 v=65
75071 On ch=1 n=f#6 v=58
75071 On ch=1 n=g5 v=65
75109 On ch=1 n=g5 v=0
75109 On ch=1 n=d5 v=0
75109 On ch=1 n=f#5 v=0
75111 On ch=1 n=f#6 v=52
75111 On ch=1 n=a6 v=63
75111 On ch=1 n=d5 v=77
75111 On ch=1 n=f#5 v=80
75169 On ch=1 n=f#5 v=0
75169 On ch=1 n=d5 v=0
75229 On ch=1 n=f#6 v=0
75229 On ch=1 n=f#6 v=0
75229 On ch=1 n=d6 v=0
75229 On ch=1 n=a5 v=0
75231 On ch=1 n=c#5 v=63
75231 On ch=1 n=e5 v=80
75289 On ch=1 n=e5 v=0
75289 On ch=1 n=c#5 v=0
75349 On ch=1 n=a6 v=0
75349 On ch=1 n=d3 v=0
75351 On ch=1 n=d4 v=76
75351 On ch=1 n=d5 v=86
75351 On ch=1 n=f#5 v=86
75471 On ch=1 n=a5 v=52
75511 On ch=1 n=d6 v=58
75551 On ch=1 n=f#6 v=56
75591 On ch=1 n=a6 v=60
75709 On ch=1 n=f#6 v=0
75709 On ch=1 n=d6 v=0
75709 On ch=1 n=a5 v=0
75829 On ch=1 n=a6 v=0
75829 On ch=1 n=f#5 v=0
75829 On ch=1 n=d5 v=0
75829 On ch=1 n=d4 v=0
75831 On ch=1 n=e4 v=114
75831 On ch=1 n=g#3 v=97
75831 On ch=1 n=e3 v=98
75868 Par ch=1 c=64 v=127
75889 On ch=1 n=e3 v=0
75889 On ch=1 n=g#3 v=0
75889 On ch=1 n=e4 v=0
75891 On ch=1 n=b3 v=73
75891 On ch=1 n=g#4 v=80
75919 On ch=1 n=g#4 v=0
75919 On ch=1 n=b3 v=0
75921 On ch=1 n=d4 v=76
75921 On ch=1 n=b4 v=84
75949 On ch=1 n=b4 v=0
75949 On ch=1 n=d4 v=0
75951 On ch=1 n=f#4 v=75
75951 On ch=1 n=d5 v=76
75979 On ch=1 n=d5 v=0
75979 On ch=1 n=f#4 v=0
75981 On ch=1 n=g#4 v=67
75981 On ch=1 n=e5 v=84
76009 On ch=1 n=e5 v=0
76009 On ch=1 n=g#4 v=0
76011 On ch=1 n=b4 v=75
76011 On ch=1 n=g#5 v=78
76039 On ch=1 n=g#5 v=0
76039 On ch=1 n=b4 v=0
76041 On ch=1 n=d5 v=76
76041 On ch=1 n=b5 v=81
76069 On ch=1 n=b5 v=0
76069 On ch=1 n=d5 v=0
76071 On ch=1 n=f#5 v=75
76071 On ch=1 n=d6 v=84
76099 On ch=1 n=d6 v=0
76099 On ch=1 n=f#5 v=0
76101 On ch=1 n=g#5 v=78
76101 On ch=1 n=e6 v=84
76129 On ch=1 n=e6 v=0
76129 On ch=1 n=g#5 v=0
76131 On ch=1 n=b5 v=60
76131 On ch=1 n=g#6 v=84
76159 On ch=1 n=g#6 v=0
76159 On ch=1 n=b5 v=0
76161 On ch=1 n=d6 v=78
76161 On ch=1 n=b6 v=84
76189 On ch=1 n=b6 v=0
76189 On ch=1 n=d6 v=0
76191 On ch=1 n=f#6 v=76
76191 On ch=1 n=d7 v=91
76219 On ch=1 n=d7 v=0
76219 On ch=1 n=f#6 v=0
76221 On ch=1 n=g#6 v=84
76221 On ch=1 n=e7 v=81
76249 On ch=1 n=e7 v=0
76249 On ch=1 n=g#6 v=0
76251 On ch=1 n=b6 v=78
76251 On ch=1 n=g#7 v=76
76279 On ch=1 n=g#7 v=0
76279 On ch=1 n=b6 v=0
76281 On ch=1 n=d7 v=84
76281 On ch=1 n=b7 v=83
76309 On ch=1 n=b7 v=0
76309 On ch=1 n=d7 v=0
76311 On ch=1 n=f#7 v=87
76311 On ch=1 n=d8 v=91
76369 On ch=1 n=d8 v=0
76369 On ch=1 n=f#7 v=0
76471 On ch=1 n=d6 v=82
76471 On ch=1 n=d7 v=94
76471 On ch=1 n=f#6 v=82
76509 On ch=1 n=f#6 v=0
76509 On ch=1 n=d7 v=0
76509 On ch=1 n=d6 v=0
76511 On ch=1 n=d6 v=88
76511 On ch=1 n=f#6 v=83
76511 On ch=1 n=d7 v=93
76549 On ch=1 n=d7 v=0
76549 On ch=1 n=f#6 v=0
76549 On ch=1 n=d6 v=0
76551 On ch=1 n=g#4 v=53
76551 On ch=1 n=e5 v=77
76551 On ch=1 n=e4 v=62
76551 On ch=1 n=c#6 v=94
76551 On ch=1 n=e6 v=98
76551 On ch=1 n=c#7 v=98
76700 Par ch=1 c=64 v=0
76729 On ch=1 n=c#7 v=0
76729 On ch=1 n=e6 v=0
76729 On ch=1 n=c#6 v=0
76731 On ch=1 n=b5 v=90
76731 On ch=1 n=d6 v=94
76731 On ch=1 n=b6 v=97
76789 On ch=1 n=b6 v=0
76789 On ch=1 n=d6 v=0
76789 On ch=1 n=b5 v=0
76789 On ch=1 n=e4 v=0
76789 On ch=1 n=e5 v=0
76789 On ch=1 n=g#4 v=0
76791 On ch=1 n=a3 v=56
76791 On ch=1 n=a2 v=71
76791 On ch=1 n=d6 v=63
76791 On ch=1 n=b5 v=71
76791 On ch=1 n=b6 v=83
76909 On ch=1 n=b6 v=0
76909 On ch=1 n=b5 v=0
76909 On ch=1 n=d6 v=0
76911 On ch=1 n=c#6 v=63
76911 On ch=1 n=a6 v=86
76911 On ch=1 n=a5 v=71
77029 On ch=1 n=a5 v=0
77029 On ch=1 n=a6 v=0
77029 On ch=1 n=c#6 v=0
77031 On ch=1 n=a4 v=68
77031 On ch=1 n=e4 v=70
77031 On ch=1 n=c#5 v=66
77031 On ch=1 n=e5 v=75
77031 On ch=1 n=c#6 v=66
77031 On ch=1 n=a5 v=65
77031 On ch=1 n=a6 v=86
77089 On ch=1 n=a6 v=0
77089 On ch=1 n=a5 v=0
77089 On ch=1 n=c#6 v=0
77211 On ch=1 n=c#7 v=78
77211 On ch=1 n=c#6 v=68
77269 On ch=1 n=c#6 v=0
77269 On ch=1 n=c#7 v=0
77269 On ch=1 n=e5 v=0
77269 On ch=1 n=c#5 v=0
77269 On ch=1 n=e4 v=0
77269 On ch=1 n=a4 v=0
77269 On ch=1 n=a2 v=0
77269 On ch=1 n=a3 v=0
77271 On ch=1 n=c#3 v=63
77271 On ch=1 n=c#4 v=60
77271 On ch=1 n=e7 v=71
77271 On ch=1 n=a6 v=63
77271 On ch=1 n=e6 v=70
77511 On ch=1 n=a5 v=65
77511 On ch=1 n=a4 v=65
77511 On ch=1 n=e5 v=45
77749 On ch=1 n=e5 v=0
77749 On ch=1 n=a4 v=0
77749 On ch=1 n=a5 v=0
77749 On ch=1 n=e6 v=0
77749 On ch=1 n=a6 v=0
77749 On ch=1 n=e7 v=0
77749 On ch=1 n=c#4 v=0
77749 On ch=1 n=c#3 v=0
77751 On ch=1 n=d5 v=51
77751 On ch=1 n=f#5 v=39
77751 On ch=1 n=d3 v=57
77751 On ch=1 n=d4 v=46
77751 On ch=1 n=c#6 v=78
77809 On ch=1 n=c#6 v=0
77809 On ch=1 n=f#5 v=0
77809 On ch=1 n=d5 v=0
77811 On ch=1 n=b5 v=66
77831 On ch=1 n=b5 v=0
77833 Par ch=1 c=64 v=127
77841 On ch=1 n=b5 v=48
77841 On ch=1 n=d6 v=55
77871 On ch=1 n=g#6 v=76
77929 On ch=1 n=g#6 v=0
77929 On ch=1 n=d6 v=0
77929 On ch=1 n=b5 v=0
77931 On ch=1 n=f#6 v=70
77951 On ch=1 n=f#6 v=0
77961 On ch=1 n=d6 v=50
77961 On ch=1 n=f#6 v=57
77989 On ch=1 n=d4 v=0
77989 On ch=1 n=d3 v=0
77991 On ch=1 n=b4 v=65
77991 On ch=1 n=f#5 v=47
77991 On ch=1 n=c#7 v=88
78049 On ch=1 n=c#7 v=0
78049 On ch=1 n=f#6 v=0
78049 On ch=1 n=d6 v=0
78051 On ch=1 n=b6 v=77
78071 On ch=1 n=b6 v=0
78081 On ch=1 n=d7 v=52
78081 On ch=1 n=b6 v=50
78111 On ch=1 n=g#7 v=76
78169 On ch=1 n=g#7 v=0
78169 On ch=1 n=b6 v=0
78169 On ch=1 n=d7 v=0
78171 On ch=1 n=f#7 v=83
78191 On ch=1 n=f#7 v=0
78201 On ch=1 n=g#5 v=55
78202 Par ch=1 c=64 v=0
78229 On ch=1 n=g#5 v=0
78229 On ch=1 n=f#5 v=0
78229 On ch=1 n=b4 v=0
78231 On ch=1 n=d6 v=62
78231 On ch=1 n=e4 v=58
78231 On ch=1 n=e3 v=52
78259 On ch=1 n=d6 v=0
78261 On ch=1 n=f#6 v=71
78286 Par ch=1 c=64 v=127
78289 On ch=1 n=f#6 v=0
78291 On ch=1 n=e6 v=70
78319 On ch=1 n=e6 v=0
78321 On ch=1 n=d#6 v=71
78349 On ch=1 n=d#6 v=0
78351 On ch=1 n=e6 v=72
78379 On ch=1 n=e6 v=0
78381 On ch=1 n=f6 v=67
78409 On ch=1 n=f6 v=0
78411 On ch=1 n=f#6 v=75
78439 On ch=1 n=f#6 v=0
78441 On ch=1 n=g6 v=55
78469 On ch=1 n=g6 v=0
78469 On ch=1 n=e3 v=0
78469 On ch=1 n=e4 v=0
78471 On ch=1 n=g#6 v=73
78499 On ch=1 n=g#6 v=0
78501 On ch=1 n=a6 v=67
78529 On ch=1 n=a6 v=0
78531 On ch=1 n=a#6 v=67
78559 On ch=1 n=a#6 v=0
78561 On ch=1 n=b6 v=73
78589 On ch=1 n=b6 v=0
78591 On ch=1 n=c7 v=70
78619 On ch=1 n=c7 v=0
78621 On ch=1 n=c#7 v=63
78649 On ch=1 n=c#7 v=0
78651 On ch=1 n=d7 v=86
78672 Par ch=1 c=64 v=0
78679 On ch=1 n=d7 v=0
78681 On ch=1 n=b4 v=60
78681 On ch=1 n=g#5 v=70
78681 On ch=1 n=d5 v=66
78681 On ch=1 n=f#7 v=66
78709 On ch=1 n=f#7 v=0
78709 On ch=1 n=d5 v=0
78709 On ch=1 n=g#5 v=0
78709 On ch=1 n=b4 v=0
79131 On ch=1 n=g#5 v=66
79131 On ch=1 n=d5 v=70
79189 On ch=1 n=d5 v=0
79189 On ch=1 n=g#5 v=0
79191 On ch=1 n=a3 v=68
79191 On ch=1 n=e4 v=63
79191 On ch=1 n=b4 v=66
79191 On ch=1 n=e4 v=53
79191 On ch=1 n=a3 v=62
79191 On ch=1 n=c#5 v=50
79191 On ch=1 n=b5 v=67
79309 On ch=1 n=b5 v=0
79309 On ch=1 n=b4 v=0
79309 On ch=1 n=e4 v=0
79309 On ch=1 n=a3 v=0
79311 On ch=1 n=a4 v=67
79311 On ch=1 n=a5 v=73
79371 On ch=1 n=g#5 v=58
79399 On ch=1 n=g#5 v=0
79401 On ch=1 n=b5 v=66
79429 On ch=1 n=b5 v=0
79429 On ch=1 n=a5 v=0
79429 On ch=1 n=a4 v=0
79429 On ch=1 n=c#5 v=0
79429 On ch=1 n=a3 v=0
79429 On ch=1 n=e4 v=0
79431 On ch=1 n=a3 v=54
79431 On ch=1 n=e4 v=65
79431 On ch=1 n=a4 v=62
79431 On ch=1 n=a5 v=72
79431 On ch=1 n=c#5 v=48
79489 On ch=1 n=c#5 v=0
79489 On ch=1 n=a5 v=0
79489 On ch=1 n=a4 v=0
79549 On ch=1 n=e4 v=0
79549 On ch=1 n=a3 v=0
79551 On ch=1 n=a3 v=63
79551 On ch=1 n=e3 v=72
79611 On ch=1 n=g#5 v=77
79611 On ch=1 n=g#4 v=44
79669 On ch=1 n=g#4 v=0
79669 On ch=1 n=g#5 v=0
79669 On ch=1 n=e3 v=0
79669 On ch=1 n=a3 v=0
79671 On ch=1 n=a2 v=65
79671 On ch=1 n=e3 v=65
79671 On ch=1 n=c#5 v=57
79671 On ch=1 n=a4 v=61
79671 On ch=1 n=a5 v=71
79909 On ch=1 n=a5 v=0
79909 On ch=1 n=a4 v=0
79909 On ch=1 n=c#5 v=0
79909 On ch=1 n=e3 v=0
79909 On ch=1 n=a2 v=0
79911 On ch=1 n=f3 v=82
80149 On ch=1 n=f3 v=0
80151 On ch=1 n=f#3 v=107
80269 On ch=1 n=f#3 v=0
80271 On ch=1 n=a#3 v=106
80271 On ch=1 n=f#5 v=53
80311 On ch=1 n=a#5 v=65
80329 On ch=1 n=a#3 v=0
80331 On ch=1 n=c#4 v=108
80351 On ch=1 n=c#6 v=58
80389 On ch=1 n=c#4 v=0
80391 On ch=1 n=e4 v=113
80391 On ch=1 n=f#6 v=63
80391 On ch=1 n=c#6 v=52
80449 On ch=1 n=e4 v=0
80451 On ch=1 n=f#4 v=107
80509 On ch=1 n=f#4 v=0
80509 On ch=1 n=c#6 v=0
80509 On ch=1 n=c#6 v=0
80509 On ch=1 n=a#5 v=0
80509 On ch=1 n=f#5 v=0
80511 On ch=1 n=a#4 v=106
80569 On ch=1 n=a#4 v=0
80571 On ch=1 n=c#5 v=109
80629 On ch=1 n=c#5 v=0
80629 On ch=1 n=f#6 v=0
80631 On ch=1 n=e5 v=103
80631 On ch=1 n=g4 v=113
80631 On ch=1 n=f#3 v=80
80751 On ch=1 n=f#5 v=52
80791 On ch=1 n=a#5 v=58
80809 On ch=1 n=g4 v=0
80809 On ch=1 n=e5 v=0
80811 On ch=1 n=f#4 v=91
80811 On ch=1 n=d5 v=93
80831 On ch=1 n=c#6 v=56
80869 On ch=1 n=d5 v=0
80869 On ch=1 n=f#4 v=0
80871 On ch=1 n=f#4 v=90
80871 On ch=1 n=d5 v=90
80871 On ch=1 n=f#6 v=60
80929 On ch=1 n=d5 v=0
80929 On ch=1 n=f#4 v=0
80989 On ch=1 n=c#6 v=0
80989 On ch=1 n=a#5 v=0
80989 On ch=1 n=f#5 v=0
80991 On ch=1 n=c#5 v=82
80991 On ch=1 n=e4 v=93
81049 On ch=1 n=e4 v=0
81049 On ch=1 n=c#5 v=0
81109 On ch=1 n=f#6 v=0
81109 On ch=1 n=f#3 v=0
81111 On ch=1 n=c#5 v=82
81111 On ch=1 n=e4 v=102
81111 On ch=1 n=b2 v=73
81231 On ch=1 n=f#5 v=53
81271 On ch=1 n=b5 v=65
81289 On ch=1 n=e4 v=0
81289 On ch=1 n=c#5 v=0
81291 On ch=1 n=b4 v=75
81291 On ch=1 n=d4 v=91
81311 On ch=1 n=d6 v=58
81349 On ch=1 n=d4 v=0
81349 On ch=1 n=b4 v=0
81351 On ch=1 n=b4 v=90
81351 On ch=1 n=d4 v=93
81351 On ch=1 n=c#6 v=52
81351 On ch=1 n=f#6 v=63
81409 On ch=1 n=d4 v=0
81409 On ch=1 n=b4 v=0
81469 On ch=1 n=c#6 v=0
81469 On ch=1 n=d6 v=0
81469 On ch=1 n=b5 v=0
81469 On ch=1 n=f#5 v=0
81471 On ch=1 n=a#4 v=81
81471 On ch=1 n=c#4 v=90
81529 On ch=1 n=c#4 v=0
81529 On ch=1 n=a#4 v=0
81589 On ch=1 n=f#6 v=0
81589 On ch=1 n=b2 v=0
81591 On ch=1 n=b4 v=90
81591 On ch=1 n=d4 v=91
81711 On ch=1 n=f#5 v=52
81751 On ch=1 n=b5 v=58
81791 On ch=1 n=d6 v=56
81831 On ch=1 n=f#6 v=60
81949 On ch=1 n=d6 v=0
81949 On ch=1 n=b5 v=0
81949 On ch=1 n=f#5 v=0
82069 On ch=1 n=f#6 v=0
82069 On ch=1 n=d4 v=0
82069 On ch=1 n=b4 v=0
82071 On ch=1 n=a3 v=108
82189 On ch=1 n=a3 v=0
82191 On ch=1 n=c#4 v=104
82191 On ch=1 n=a5 v=53
82231 On ch=1 n=c#6 v=65
82249 On ch=1 n=c#4 v=0
82251 On ch=1 n=e4 v=104
82271 On ch=1 n=e6 v=58
82309 On ch=1 n=e4 v=0
82311 On ch=1 n=g4 v=110
82311 On ch=1 n=a6 v=63
82311 On ch=1 n=e6 v=52
82369 On ch=1 n=g4 v=0
82371 On ch=1 n=a4 v=100
82429 On ch=1 n=a4 v=0
82429 On ch=1 n=e6 v=0
82429 On ch=1 n=e6 v=0
82429 On ch=1 n=c#6 v=0
82429 On ch=1 n=a5 v=0
82431 On ch=1 n=c#5 v=121
82489 On ch=1 n=c#5 v=0
82491 On ch=1 n=e5 v=113
82549 On ch=1 n=e5 v=0
82549 On ch=1 n=a6 v=0
82551 On ch=1 n=g5 v=110
82551 On ch=1 n=e5 v=111
82551 On ch=1 n=a3 v=86
82671 On ch=1 n=a5 v=52
82671 On ch=1 n=f#5 v=73
82711 On ch=1 n=c#6 v=58
82729 On ch=1 n=f#5 v=0
82729 On ch=1 n=e5 v=0
82729 On ch=1 n=g5 v=0
82731 On ch=1 n=d5 v=88
82731 On ch=1 n=a5 v=75
82751 On ch=1 n=e6 v=56
82789 On ch=1 n=d5 v=0
82789 On ch=1 n=a5 v=0
82791 On ch=1 n=d5 v=96
82791 On ch=1 n=a6 v=60
82791 On ch=1 n=a5 v=81
82791 On ch=1 n=f#5 v=65
82849 On ch=1 n=f#5 v=0
82849 On ch=1 n=d5 v=0
82849 On ch=1 n=a5 v=0
82909 On ch=1 n=a5 v=0
82909 On ch=1 n=e6 v=0
82909 On ch=1 n=c#6 v=0
82911 On ch=1 n=c#5 v=78
82911 On ch=1 n=e5 v=93
82969 On ch=1 n=e5 v=0
82969 On ch=1 n=c#5 v=0
83029 On ch=1 n=a6 v=0
83029 On ch=1 n=a3 v=0
83031 On ch=1 n=g5 v=87
83031 On ch=1 n=e5 v=86
83031 On ch=1 n=d3 v=87
83151 On ch=1 n=a5 v=53
83191 On ch=1 n=d6 v=65
83209 On ch=1 n=e5 v=0
83209 On ch=1 n=g5 v=0
83211 On ch=1 n=d5 v=65
83211 On ch=1 n=f#5 v=72
83231 On ch=1 n=g5 v=65
83231 On ch=1 n=f#6 v=58
83269 On ch=1 n=g5 v=0
83269 On ch=1 n=f#5 v=0
83269 On ch=1 n=d5 v=0
83271 On ch=1 n=f#5 v=80
83271 On ch=1 n=d5 v=77
83271 On ch=1 n=a6 v=63
83271 On ch=1 n=f#6 v=52
83329 On ch=1 n=d5 v=0
83329 On ch=1 n=f#5 v=0
83389 On ch=1 n=f#6 v=0
83389 On ch=1 n=f#6 v=0
83389 On ch=1 n=d6 v=0
83389 On ch=1 n=a5 v=0
83391 On ch=1 n=e5 v=80
83391 On ch=1 n=c#5 v=63
83449 On ch=1 n=c#5 v=0
83449 On ch=1 n=e5 v=0
83509 On ch=1 n=a6 v=0
83509 On ch=1 n=d3 v=0
83511 On ch=1 n=f#5 v=86
83511 On ch=1 n=d5 v=86
83511 On ch=1 n=d4 v=76
83631 On ch=1 n=a5 v=52
83671 On ch=1 n=d6 v=58
83711 On ch=1 n=f#6 v=56
83751 On ch=1 n=a6 v=60
83869 On ch=1 n=f#6 v=0
83869 On ch=1 n=d6 v=0
83869 On ch=1 n=a5 v=0
83989 On ch=1 n=a6 v=0
83989 On ch=1 n=d4 v=0
83989 On ch=1 n=d5 v=0
83989 On ch=1 n=f#5 v=0
83991 On ch=1 n=e3 v=98
83991 On ch=1 n=g#3 v=97
83991 On ch=1 n=e4 v=114
84028 Par ch=1 c=64 v=127
84049 On ch=1 n=e4 v=0
84049 On ch=1 n=g#3 v=0
84049 On ch=1 n=e3 v=0
84051 On ch=1 n=g#4 v=80
84051 On ch=1 n=b3 v=73
84079 On ch=1 n=b3 v=0
84079 On ch=1 n=g#4 v=0
84081 On ch=1 n=b4 v=84
84081 On ch=1 n=d4 v=76
84109 On ch=1 n=d4 v=0
84109 On ch=1 n=b4 v=0
84111 On ch=1 n=d5 v=76
84111 On ch=1 n=f#4 v=75
84139 On ch=1 n=f#4 v=0
84139 On ch=1 n=d5 v=0
84141 On ch=1 n=e5 v=84
84141 On ch=1 n=g#4 v=67
84169 On ch=1 n=g#4 v=0
84169 On ch=1 n=e5 v=0
84171 On ch=1 n=g#5 v=78
84171 On ch=1 n=b4 v=75
84199 On ch=1 n=b4 v=0
84199 On ch=1 n=g#5 v=0
84201 On ch=1 n=b5 v=81
84201 On ch=1 n=d5 v=76
84229 On ch=1 n=d5 v=0
84229 On ch=1 n=b5 v=0
84231 On ch=1 n=d6 v=84
84231 On ch=1 n=f#5 v=75
84259 On ch=1 n=f#5 v=0
84259 On ch=1 n=d6 v=0
84261 On ch=1 n=e6 v=84
84261 On ch=1 n=g#5 v=78
84289 On ch=1 n=g#5 v=0
84289 On ch=1 n=e6 v=0
84291 On ch=1 n=g#6 v=84
84291 On ch=1 n=b5 v=60
84319 On ch=1 n=b5 v=0
84319 On ch=1 n=g#6 v=0
84321 On ch=1 n=b6 v=84
84321 On ch=1 n=d6 v=78
84349 On ch=1 n=d6 v=0
84349 On ch=1 n=b6 v=0
84351 On ch=1 n=d7 v=91
84351 On ch=1 n=f#6 v=76
84379 On ch=1 n=f#6 v=0
84379 On ch=1 n=d7 v=0
84381 On ch=1 n=e7 v=81
84381 On ch=1 n=g#6 v=84
84409 On ch=1 n=g#6 v=0
84409 On ch=1 n=e7 v=0
84411 On ch=1 n=g#7 v=76
84411 On ch=1 n=b6 v=78
84439 On ch=1 n=b6 v=0
84439 On ch=1 n=g#7 v=0
84441 On ch=1 n=b7 v=83
84441 On ch=1 n=d7 v=84
84469 On ch=1 n=d7 v=0
84469 On ch=1 n=b7 v=0
84471 On ch=1 n=d8 v=91
84471 On ch=1 n=f#7 v=87
84529 On ch=1 n=f#7 v=0
84529 On ch=1 n=d8 v=0
84631 On ch=1 n=f#6 v=82
84631 On ch=1 n=d7 v=94
84631 On ch=1 n=d6 v=82
84669 On ch=1 n=d6 v=0
84669 On ch=1 n=d7 v=0
84669 On ch=1 n=f#6 v=0
84671 On ch=1 n=d7 v=93
84671 On ch=1 n=f#6 v=83
84671 On ch=1 n=d6 v=88
84709 On ch=1 n=d6 v=0
84709 On ch=1 n=f#6 v=0
84709 On ch=1 n=d7 v=0
84711 On ch=1 n=c#7 v=98
84711 On ch=1 n=e6 v=98
84711 On ch=1 n=c#6 v=94
84711 On ch=1 n=e4 v=62
84711 On ch=1 n=e5 v=77
84711 On ch=1 n=g#4 v=53
84860 Par ch=1 c=64 v=0
84889 On ch=1 n=c#6 v=0
84889 On ch=1 n=e6 v=0
84889 On ch=1 n=c#7 v=0
84891 On ch=1 n=b6 v=97
84891 On ch=1 n=d6 v=94
84891 On ch=1 n=b5 v=90
84949 On ch=1 n=b5 v=0
84949 On ch=1 n=d6 v=0
84949 On ch=1 n=b6 v=0
84949 On ch=1 n=g#4 v=0
84949 On ch=1 n=e5 v=0
84949 On ch=1 n=e4 v=0
84951 On ch=1 n=b6 v=83
84951 On ch=1 n=b5 v=71
84951 On ch=1 n=d6 v=63
84951 On ch=1 n=a2 v=71
84951 On ch=1 n=a3 v=56
85069 On ch=1 n=d6 v=0
85069 On ch=1 n=b5 v=0
85069 On ch=1 n=b6 v=0
85071 On ch=1 n=a5 v=71
85071 On ch=1 n=a6 v=86
85071 On ch=1 n=c#6 v=63
85189 On ch=1 n=c#6 v=0
85189 On ch=1 n=a6 v=0
85189 On ch=1 n=a5 v=0
85191 On ch=1 n=a6 v=86
85191 On ch=1 n=a5 v=65
85191 On ch=1 n=c#6 v=66
85191 On ch=1 n=e5 v=75
85191 On ch=1 n=c#5 v=66
85191 On ch=1 n=e4 v=70
85191 On ch=1 n=a4 v=68
85249 On ch=1 n=c#6 v=0
85249 On ch=1 n=a5 v=0
85249 On ch=1 n=a6 v=0
85371 On ch=1 n=c#6 v=68
85371 On ch=1 n=c#7 v=78
85429 On ch=1 n=c#7 v=0
85429 On ch=1 n=c#6 v=0
85429 On ch=1 n=a4 v=0
85429 On ch=1 n=e4 v=0
85429 On ch=1 n=c#5 v=0
85429 On ch=1 n=e5 v=0
85429 On ch=1 n=a3 v=0
85429 On ch=1 n=a2 v=0
85431 On ch=1 n=e6 v=70
85431 On ch=1 n=a6 v=63
85431 On ch=1 n=e7 v=71
85431 On ch=1 n=c#4 v=60
85431 On ch=1 n=c#3 v=63
85671 On ch=1 n=e5 v=45
85671 On ch=1 n=a4 v=65
85671 On ch=1 n=a5 v=65
85909 On ch=1 n=a5 v=0
85909 On ch=1 n=a4 v=0
85909 On ch=1 n=e5 v=0
85909 On ch=1 n=c#3 v=0
85909 On ch=1 n=c#4 v=0
85909 On ch=1 n=e7 v=0
85909 On ch=1 n=a6 v=0
85909 On ch=1 n=e6 v=0
85911 On ch=1 n=c#6 v=78
85911 On ch=1 n=d4 v=46
85911 On ch=1 n=d3 v=57
85911 On ch=1 n=f#5 v=39
85911 On ch=1 n=d5 v=51
85969 On ch=1 n=d5 v=0
85969 On ch=1 n=f#5 v=0
85969 On ch=1 n=c#6 v=0
85971 On ch=1 n=b5 v=66
85991 On ch=1 n=b5 v=0
85993 Par ch=1 c=64 v=127
86001 On ch=1 n=d6 v=55
86001 On ch=1 n=b5 v=48
86031 On ch=1 n=g#6 v=76
86089 On ch=1 n=g#6 v=0
86089 On ch=1 n=b5 v=0
86089 On ch=1 n=d6 v=0
86091 On ch=1 n=f#6 v=70
86111 On ch=1 n=f#6 v=0
86121 On ch=1 n=f#6 v=57
86121 On ch=1 n=d6 v=50
86149 On ch=1 n=d3 v=0
86149 On ch=1 n=d4 v=0
86151 On ch=1 n=c#7 v=88
86151 On ch=1 n=f#5 v=47
86151 On ch=1 n=b4 v=65
86209 On ch=1 n=c#7 v=0
86209 On ch=1 n=d6 v=0
86209 On ch=1 n=f#6 v=0
86211 On ch=1 n=b6 v=77
86231 On ch=1 n=b6 v=0
86241 On ch=1 n=b6 v=50
86241 On ch=1 n=d7 v=52
86271 On ch=1 n=g#7 v=76
86329 On ch=1 n=g#7 v=0
86329 On ch=1 n=d7 v=0
86329 On ch=1 n=b6 v=0
86331 On ch=1 n=f#7 v=83
86351 On ch=1 n=f#7 v=0
86361 On ch=1 n=g#5 v=55
86362 Par ch=1 c=64 v=0
86389 On ch=1 n=g#5 v=0
86389 On ch=1 n=b4 v=0
86389 On ch=1 n=f#5 v=0
86391 On ch=1 n=e3 v=52
86391 On ch=1 n=e4 v=58
86391 On ch=1 n=d6 v=62
86419 On ch=1 n=d6 v=0
86421 On ch=1 n=f#6 v=71
86446 Par ch=1 c=64 v=127
86449 On ch=1 n=f#6 v=0
86451 On ch=1 n=e6 v=70
86479 On ch=1 n=e6 v=0
86481 On ch=1 n=d#6 v=71
86509 On ch=1 n=d#6 v=0
86511 On ch=1 n=e6 v=72
86539 On ch=1 n=e6 v=0
86541 On ch=1 n=f6 v=67
86569 On ch=1 n=f6 v=0
86571 On ch=1 n=f#6 v=75
86599 On ch=1 n=f#6 v=0
86601 On ch=1 n=g6 v=55
86629 On ch=1 n=g6 v=0
86629 On ch=1 n=e4 v=0
86629 On ch=1 n=e3 v=0
86631 On ch=1 n=g#6 v=73
86659 On ch=1 n=g#6 v=0
86661 On ch=1 n=a6 v=67
86689 On ch=1 n=a6 v=0
86691 On ch=1 n=a#6 v=67
86719 On ch=1 n=a#6 v=0
86721 On ch=1 n=b6 v=73
86749 On ch=1 n=b6 v=0
86751 On ch=1 n=c7 v=70
86779 On ch=1 n=c7 v=0
86781 On ch=1 n=c#7 v=63
86809 On ch=1 n=c#7 v=0
86811 On ch=1 n=d7 v=86
86832 Par ch=1 c=64 v=0
86839 On ch=1 n=d7 v=0
86841 On ch=1 n=f#7 v=66
86841 On ch=1 n=d5 v=66
86841 On ch=1 n=g#5 v=70
86841 On ch=1 n=b4 v=60
86869 On ch=1 n=b4 v=0
86869 On ch=1 n=g#5 v=0
86869 On ch=1 n=d5 v=0
86869 On ch=1 n=f#7 v=0
87291 On ch=1 n=d5 v=70
87291 On ch=1 n=g#5 v=66
87349 On ch=1 n=g#5 v=0
87349 On ch=1 n=d5 v=0
87351 On ch=1 n=b5 v=67
87351 On ch=1 n=c#5 v=50
87351 On ch=1 n=a3 v=62
87351 On ch=1 n=e4 v=53
87351 On ch=1 n=b4 v=66
87351 On ch=1 n=e4 v=63
87351 On ch=1 n=a3 v=68
87469 On ch=1 n=b4 v=0
87469 On ch=1 n=e4 v=0
87469 On ch=1 n=a3 v=0
87469 On ch=1 n=b5 v=0
87471 On ch=1 n=a5 v=73
87471 On ch=1 n=a4 v=67
87531 On ch=1 n=g#5 v=58
87559 On ch=1 n=g#5 v=0
87561 On ch=1 n=b5 v=66
87589 On ch=1 n=b5 v=0
87589 On ch=1 n=a4 v=0
87589 On ch=1 n=a5 v=0
87589 On ch=1 n=a3 v=0
87589 On ch=1 n=e4 v=0
87589 On ch=1 n=c#5 v=0
87591 On ch=1 n=c#5 v=48
87591 On ch=1 n=a5 v=72
87591 On ch=1 n=a4 v=62
87591 On ch=1 n=e4 v=65
87591 On ch=1 n=a3 v=54
87649 On ch=1 n=a4 v=0
87649 On ch=1 n=a5 v=0
87649 On ch=1 n=c#5 v=0
87709 On ch=1 n=a3 v=0
87709 On ch=1 n=e4 v=0
87711 On ch=1 n=e3 v=72
87711 On ch=1 n=a3 v=63
87771 On ch=1 n=g#4 v=44
87771 On ch=1 n=g#5 v=77
87829 On ch=1 n=g#5 v=0
87829 On ch=1 n=g#4 v=0
87829 On ch=1 n=a3 v=0
87829 On ch=1 n=e3 v=0
87831 On ch=1 n=a5 v=71
87831 On ch=1 n=a4 v=61
87831 On ch=1 n=c#5 v=57
87831 On ch=1 n=e3 v=65
87831 On ch=1 n=a2 v=65
88069 On ch=1 n=a2 v=0
88069 On ch=1 n=e3 v=0
88069 On ch=1 n=c#5 v=0
88069 On ch=1 n=a4 v=0
88069 On ch=1 n=a5 v=0
88191 On ch=1 n=c#5 v=54
88249 On ch=1 n=c#5 v=0
88311 On ch=1 n=d5 v=72
88429 On ch=1 n=d5 v=0
88431 On ch=1 n=c#5 v=50
88549 On ch=1 n=c#5 v=0
88551 On ch=1 n=c5 v=66
88669 On ch=1 n=c5 v=0
88671 On ch=1 n=c#5 v=50
88789 On ch=1 n=c#5 v=0
88791 On ch=1 n=g#5 v=78
88909 On ch=1 n=g#5 v=0
88911 On ch=1 n=f#5 v=58
89029 On ch=1 n=f#5 v=0
89031 On ch=1 n=f5 v=58
89149 On ch=1 n=f5 v=0
89151 On ch=1 n=f#5 v=55
89269 On ch=1 n=f#5 v=0
89271 On ch=1 n=c#6 v=82
89389 On ch=1 n=c#6 v=0
89453 Par ch=1 c=64 v=127
89511 On ch=1 n=f6 v=62
89629 On ch=1 n=f6 v=0
89631 On ch=1 n=f#6 v=62
89749 On ch=1 n=f#6 v=0
89751 On ch=1 n=f#4 v=62
89751 On ch=1 n=g6 v=72
89869 On ch=1 n=g6 v=0
89869 On ch=1 n=f#4 v=0
89871 On ch=1 n=g#6 v=77
89989 On ch=1 n=g#6 v=0
89991 On ch=1 n=a5 v=66
89991 On ch=1 n=f#5 v=73
89991 On ch=1 n=a6 v=82
90109 On ch=1 n=a6 v=0
90109 On ch=1 n=f#5 v=0
90109 On ch=1 n=a5 v=0
90111 On ch=1 n=a#6 v=81
90229 On ch=1 n=a#6 v=0
90231 On ch=1 n=c#5 v=62
90231 On ch=1 n=b6 v=78
90349 On ch=1 n=b6 v=0
90349 On ch=1 n=c#5 v=0
90351 On ch=1 n=c7 v=86
90469 On ch=1 n=c7 v=0
90471 On ch=1 n=a5 v=68
90471 On ch=1 n=f#5 v=63
90471 On ch=1 n=c#7 v=78
90589 On ch=1 n=c#7 v=0
90589 On ch=1 n=f#5 v=0
90589 On ch=1 n=a5 v=0
90591 On ch=1 n=d7 v=88
90709 On ch=1 n=d7 v=0
90711 On ch=1 n=f#4 v=58
90711 On ch=1 n=d#7 v=78
90829 On ch=1 n=d#7 v=0
90829 On ch=1 n=f#4 v=0
90831 On ch=1 n=e7 v=86
90949 On ch=1 n=e7 v=0
90951 On ch=1 n=f#5 v=68
90951 On ch=1 n=a5 v=66
90951 On ch=1 n=f7 v=86
91069 On ch=1 n=f7 v=0
91069 On ch=1 n=a5 v=0
91069 On ch=1 n=f#5 v=0
91071 On ch=1 n=f#7 v=82
91132 Par ch=1 c=64 v=0
91189 On ch=1 n=f#7 v=0
91191 On ch=1 n=e5 v=66
91309 On ch=1 n=e5 v=0
91311 On ch=1 n=d5 v=68
91429 On ch=1 n=d5 v=0
91431 On ch=1 n=c#5 v=75
91549 On ch=1 n=c#5 v=0
91551 On ch=1 n=d5 v=77
91669 On ch=1 n=d5 v=0
91671 On ch=1 n=a5 v=78
91789 On ch=1 n=a5 v=0
91791 On ch=1 n=g5 v=84
91909 On ch=1 n=g5 v=0
91911 On ch=1 n=f#5 v=86
92029 On ch=1 n=f#5 v=0
92031 On ch=1 n=g5 v=86
92149 On ch=1 n=g5 v=0
92151 On ch=1 n=d6 v=91
92269 On ch=1 n=d6 v=0
92333 Par ch=1 c=64 v=127
92391 On ch=1 n=f#6 v=66
92509 On ch=1 n=f#6 v=0
92511 On ch=1 n=g6 v=72
92629 On ch=1 n=g6 v=0
92631 On ch=1 n=b4 v=82
92631 On ch=1 n=g#6 v=82
92749 On ch=1 n=g#6 v=0
92749 On ch=1 n=b4 v=0
92751 On ch=1 n=a6 v=81
92869 On ch=1 n=a6 v=0
92871 On ch=1 n=g5 v=77
92871 On ch=1 n=b5 v=77
92871 On ch=1 n=a#6 v=84
92989 On ch=1 n=a#6 v=0
92989 On ch=1 n=b5 v=0
92989 On ch=1 n=g5 v=0
92991 On ch=1 n=b6 v=82
93109 On ch=1 n=b6 v=0
93111 On ch=1 n=d5 v=77
93111 On ch=1 n=c7 v=84
93229 On ch=1 n=c7 v=0
93229 On ch=1 n=d5 v=0
93231 On ch=1 n=c#7 v=84
93349 On ch=1 n=c#7 v=0
93351 On ch=1 n=g5 v=75
93351 On ch=1 n=b5 v=67
93351 On ch=1 n=d7 v=89
93469 On ch=1 n=d7 v=0
93469 On ch=1 n=b5 v=0
93469 On ch=1 n=g5 v=0
93471 On ch=1 n=d#7 v=87
93589 On ch=1 n=d#7 v=0
93591 On ch=1 n=b4 v=81
93591 On ch=1 n=e7 v=93
93709 On ch=1 n=e7 v=0
93709 On ch=1 n=b4 v=0
93711 On ch=1 n=f7 v=87
93829 On ch=1 n=f7 v=0
93831 On ch=1 n=g5 v=67
93831 On ch=1 n=b5 v=65
93831 On ch=1 n=f#7 v=88
93949 On ch=1 n=f#7 v=0
93949 On ch=1 n=b5 v=0
93949 On ch=1 n=g5 v=0
93951 On ch=1 n=g7 v=88
94012 Par ch=1 c=64 v=0
94069 On ch=1 n=g7 v=0
94071 On ch=1 n=a5 v=75
94189 On ch=1 n=a5 v=0
94191 On ch=1 n=g5 v=84
94309 On ch=1 n=g5 v=0
94311 On ch=1 n=f#5 v=77
94429 On ch=1 n=f#5 v=0
94431 On ch=1 n=g5 v=81
94549 On ch=1 n=g5 v=0
94551 On ch=1 n=e6 v=87
94669 On ch=1 n=e6 v=0
94671 On ch=1 n=d6 v=84
94789 On ch=1 n=d6 v=0
94791 On ch=1 n=c#6 v=75
94909 On ch=1 n=c#6 v=0
94911 On ch=1 n=d6 v=83
95029 On ch=1 n=d6 v=0
95031 On ch=1 n=b6 v=81
95149 On ch=1 n=b6 v=0
95213 Par ch=1 c=64 v=127
95271 On ch=1 n=a#6 v=61
95389 On ch=1 n=a#6 v=0
95391 On ch=1 n=b6 v=65
95509 On ch=1 n=b6 v=0
95511 On ch=1 n=g5 v=76
95511 On ch=1 n=c7 v=77
95629 On ch=1 n=c7 v=0
95629 On ch=1 n=g5 v=0
95631 On ch=1 n=c#7 v=84
95749 On ch=1 n=c#7 v=0
95751 On ch=1 n=f6 v=66
95751 On ch=1 n=d6 v=67
95751 On ch=1 n=d7 v=87
95869 On ch=1 n=d7 v=0
95869 On ch=1 n=d6 v=0
95869 On ch=1 n=f6 v=0
95871 On ch=1 n=d#7 v=82
95989 On ch=1 n=d#7 v=0
95991 On ch=1 n=b5 v=77
95991 On ch=1 n=e7 v=84
96109 On ch=1 n=e7 v=0
96109 On ch=1 n=b5 v=0
96111 On ch=1 n=f7 v=75
96229 On ch=1 n=f7 v=0
96231 On ch=1 n=d6 v=71
96231 On ch=1 n=f6 v=71
96231 On ch=1 n=f#7 v=93
96349 On ch=1 n=f#7 v=0
96349 On ch=1 n=f6 v=0
96349 On ch=1 n=d6 v=0
96351 On ch=1 n=g7 v=96
96469 On ch=1 n=g7 v=0
96471 On ch=1 n=g5 v=76
96471 On ch=1 n=g#7 v=89
96589 On ch=1 n=g#7 v=0
96589 On ch=1 n=g5 v=0
96591 On ch=1 n=a7 v=87
96709 On ch=1 n=a7 v=0
96711 On ch=1 n=f6 v=72
96711 On ch=1 n=d6 v=81
96711 On ch=1 n=a#7 v=87
96829 On ch=1 n=a#7 v=0
96829 On ch=1 n=d6 v=0
96829 On ch=1 n=f6 v=0
96831 On ch=1 n=b7 v=89
96892 Par ch=1 c=64 v=0
96949 On ch=1 n=b7 v=0
96951 On ch=1 n=d8 v=75
96951 On ch=1 n=c#5 v=71
97009 Par ch=1 c=64 v=127
97069 On ch=1 n=c#5 v=0
97069 On ch=1 n=d8 v=0
97071 On ch=1 n=f7 v=78
97189 On ch=1 n=f7 v=0
97191 On ch=1 n=c#8 v=75
97191 On ch=1 n=f6 v=70
97191 On ch=1 n=d6 v=72
97309 On ch=1 n=d6 v=0
97309 On ch=1 n=f6 v=0
97309 On ch=1 n=c#8 v=0
97311 On ch=1 n=e7 v=72
97429 On ch=1 n=e7 v=0
97431 On ch=1 n=c8 v=83
97431 On ch=1 n=g#5 v=68
97549 On ch=1 n=g#5 v=0
97549 On ch=1 n=c8 v=0
97551 On ch=1 n=d#7 v=66
97669 On ch=1 n=d#7 v=0
97671 On ch=1 n=b7 v=75
97671 On ch=1 n=d6 v=73
97671 On ch=1 n=f6 v=78
97789 On ch=1 n=f6 v=0
97789 On ch=1 n=d6 v=0
97789 On ch=1 n=b7 v=0
97791 On ch=1 n=d7 v=78
97909 On ch=1 n=d7 v=0
97911 On ch=1 n=a7 v=76
97911 On ch=1 n=f#5 v=78
98029 On ch=1 n=f#5 v=0
98029 On ch=1 n=a7 v=0
98031 On ch=1 n=c#7 v=65
98149 On ch=1 n=c#7 v=0
98151 On ch=1 n=g#7 v=67
98151 On ch=1 n=f#6 v=73
98151 On ch=1 n=c#6 v=67
98269 On ch=1 n=c#6 v=0
98269 On ch=1 n=f#6 v=0
98269 On ch=1 n=g#7 v=0
98271 On ch=1 n=b6 v=81
98331 On ch=1 n=f#7 v=75
98389 On ch=1 n=b6 v=0
98391 On ch=1 n=a6 v=78
98454 Par ch=1 c=64 v=0
98509 On ch=1 n=a6 v=0
98509 On ch=1 n=f#7 v=0
98751 On ch=1 n=c#5 v=73
98869 On ch=1 n=c#5 v=0
98871 On ch=1 n=d5 v=82
98989 On ch=1 n=d5 v=0
98991 On ch=1 n=c#5 v=66
99109 On ch=1 n=c#5 v=0
99111 On ch=1 n=c5 v=66
99229 On ch=1 n=c5 v=0
99231 On ch=1 n=c#5 v=56
99349 On ch=1 n=c#5 v=0
99351 On ch=1 n=g#5 v=81
99469 On ch=1 n=g#5 v=0
99471 On ch=1 n=f#5 v=65
99589 On ch=1 n=f#5 v=0
99591 On ch=1 n=f5 v=77
99709 On ch=1 n=f5 v=0
99711 On ch=1 n=f#5 v=70
99829 On ch=1 n=f#5 v=0
99831 On ch=1 n=c#6 v=88
99949 On ch=1 n=c#6 v=0
100013 Par ch=1 c=64 v=127
100071 On ch=1 n=f6 v=66
100189 On ch=1 n=f6 v=0
100191 On ch=1 n=f#6 v=71
100309 On ch=1 n=f#6 v=0
100311 On ch=1 n=f#4 v=62
100311 On ch=1 n=g6 v=78
100429 On ch=1 n=g6 v=0
100429 On ch=1 n=f#4 v=0
100431 On ch=1 n=g#6 v=84
100549 On ch=1 n=g#6 v=0
100551 On ch=1 n=f#5 v=73
100551 On ch=1 n=a5 v=66
100551 On ch=1 n=a6 v=67
100669 On ch=1 n=a6 v=0
100669 On ch=1 n=a5 v=0
100669 On ch=1 n=f#5 v=0
100671 On ch=1 n=a#6 v=77
100789 On ch=1 n=a#6 v=0
100791 On ch=1 n=c#5 v=62
100791 On ch=1 n=b6 v=67
100909 On ch=1 n=b6 v=0
100909 On ch=1 n=c#5 v=0
100911 On ch=1 n=c7 v=75
101029 On ch=1 n=c7 v=0
101031 On ch=1 n=f#5 v=63
101031 On ch=1 n=a5 v=68
101031 On ch=1 n=c#7 v=88
101149 On ch=1 n=c#7 v=0
101149 On ch=1 n=a5 v=0
101149 On ch=1 n=f#5 v=0
101151 On ch=1 n=d7 v=87
101269 On ch=1 n=d7 v=0
101271 On ch=1 n=f#4 v=58
101271 On ch=1 n=d#7 v=93
101389 On ch=1 n=d#7 v=0
101389 On ch=1 n=f#4 v=0
101391 On ch=1 n=e7 v=84
101509 On ch=1 n=e7 v=0
101511 On ch=1 n=a5 v=66
101511 On ch=1 n=f#5 v=68
101511 On ch=1 n=f7 v=82
101629 On ch=1 n=f7 v=0
101629 On ch=1 n=f#5 v=0
101629 On ch=1 n=a5 v=0
101631 On ch=1 n=f#7 v=96
101692 Par ch=1 c=64 v=0
101749 On ch=1 n=f#7 v=0
101751 On ch=1 n=e5 v=77
101869 On ch=1 n=e5 v=0
101871 On ch=1 n=d5 v=68
101989 On ch=1 n=d5 v=0
101991 On ch=1 n=c#5 v=65
102109 On ch=1 n=c#5 v=0
102111 On ch=1 n=d5 v=84
102229 On ch=1 n=d5 v=0
102231 On ch=1 n=a5 v=75
102349 On ch=1 n=a5 v=0
102351 On ch=1 n=g5 v=78
102469 On ch=1 n=g5 v=0
102471 On ch=1 n=f#5 v=76
102589 On ch=1 n=f#5 v=0
102591 On ch=1 n=g5 v=84
102709 On ch=1 n=g5 v=0
102711 On ch=1 n=d6 v=82
102829 On ch=1 n=d6 v=0
102893 Par ch=1 c=64 v=127
102951 On ch=1 n=f#6 v=58
103069 On ch=1 n=f#6 v=0
103071 On ch=1 n=g6 v=46
103189 On ch=1 n=g6 v=0
103191 On ch=1 n=b4 v=82
103191 On ch=1 n=g#6 v=70
103309 On ch=1 n=g#6 v=0
103309 On ch=1 n=b4 v=0
103311 On ch=1 n=a6 v=75
103429 On ch=1 n=a6 v=0
103431 On ch=1 n=b5 v=77
103431 On ch=1 n=g5 v=77
103431 On ch=1 n=a#6 v=83
103549 On ch=1 n=a#6 v=0
103549 On ch=1 n=g5 v=0
103549 On ch=1 n=b5 v=0
103551 On ch=1 n=b6 v=73
103669 On ch=1 n=b6 v=0
103671 On ch=1 n=d5 v=77
103671 On ch=1 n=c7 v=83
103789 On ch=1 n=c7 v=0
103789 On ch=1 n=d5 v=0
103791 On ch=1 n=c#7 v=86
103909 On ch=1 n=c#7 v=0
103911 On ch=1 n=b5 v=67
103911 On ch=1 n=g5 v=75
103911 On ch=1 n=d7 v=88
104029 On ch=1 n=d7 v=0
104029 On ch=1 n=g5 v=0
104029 On ch=1 n=b5 v=0
104031 On ch=1 n=d#7 v=88
104149 On ch=1 n=d#7 v=0
104151 On ch=1 n=b4 v=81
104151 On ch=1 n=e7 v=82
104269 On ch=1 n=e7 v=0
104269 On ch=1 n=b4 v=0
104271 On ch=1 n=f7 v=83
104389 On ch=1 n=f7 v=0
104391 On ch=1 n=b5 v=65
104391 On ch=1 n=g5 v=67
104391 On ch=1 n=f#7 v=99
104509 On ch=1 n=f#7 v=0
104509 On ch=1 n=g5 v=0
104509 On ch=1 n=b5 v=0
104511 On ch=1 n=g7 v=84
104572 Par ch=1 c=64 v=0
104629 On ch=1 n=g7 v=0
104631 On ch=1 n=a5 v=76
104749 On ch=1 n=a5 v=0
104751 On ch=1 n=g5 v=76
104869 On ch=1 n=g5 v=0
104871 On ch=1 n=f#5 v=72
104989 On ch=1 n=f#5 v=0
104991 On ch=1 n=g5 v=75
105109 On ch=1 n=g5 v=0
105111 On ch=1 n=e6 v=80
105229 On ch=1 n=e6 v=0
105231 On ch=1 n=d6 v=76
105349 On ch=1 n=d6 v=0
105351 On ch=1 n=c#6 v=65
105469 On ch=1 n=c#6 v=0
105471 On ch=1 n=d6 v=81
105589 On ch=1 n=d6 v=0
105591 On ch=1 n=b6 v=83
105709 On ch=1 n=b6 v=0
105773 Par ch=1 c=64 v=127
105831 On ch=1 n=a#6 v=67
105949 On ch=1 n=a#6 v=0
105951 On ch=1 n=b6 v=38
106069 On ch=1 n=b6 v=0
106071 On ch=1 n=g5 v=76
106071 On ch=1 n=c7 v=75
106189 On ch=1 n=c7 v=0
106189 On ch=1 n=g5 v=0
106191 On ch=1 n=c#7 v=75
106309 On ch=1 n=c#7 v=0
106311 On ch=1 n=d6 v=67
106311 On ch=1 n=f6 v=66
106311 On ch=1 n=d7 v=78
106429 On ch=1 n=d7 v=0
106429 On ch=1 n=f6 v=0
106429 On ch=1 n=d6 v=0
106431 On ch=1 n=d#7 v=81
106549 On ch=1 n=d#7 v=0
106551 On ch=1 n=b5 v=77
106551 On ch=1 n=e7 v=84
106669 On ch=1 n=e7 v=0
106669 On ch=1 n=b5 v=0
106671 On ch=1 n=f7 v=76
106789 On ch=1 n=f7 v=0
106791 On ch=1 n=f6 v=71
106791 On ch=1 n=d6 v=71
106791 On ch=1 n=f#7 v=84
106909 On ch=1 n=f#7 v=0
106909 On ch=1 n=d6 v=0
106909 On ch=1 n=f6 v=0
106911 On ch=1 n=g7 v=82
107029 On ch=1 n=g7 v=0
107031 On ch=1 n=g5 v=76
107031 On ch=1 n=g#7 v=72
107149 On ch=1 n=g#7 v=0
107149 On ch=1 n=g5 v=0
107151 On ch=1 n=a7 v=82
107269 On ch=1 n=a7 v=0
107271 On ch=1 n=d6 v=81
107271 On ch=1 n=f6 v=72
107271 On ch=1 n=a#7 v=81
107389 On ch=1 n=a#7 v=0
107389 On ch=1 n=f6 v=0
107389 On ch=1 n=d6 v=0
107391 On ch=1 n=b7 v=84
107452 Par ch=1 c=64 v=0
107509 On ch=1 n=b7 v=0
107511 On ch=1 n=c#5 v=76
107511 On ch=1 n=g#7 v=82
107511 On ch=1 n=f7 v=80
107511 On ch=1 n=d8 v=84
107569 Par ch=1 c=64 v=127
107629 On ch=1 n=d8 v=0
107629 On ch=1 n=f7 v=0
107629 On ch=1 n=g#7 v=0
107629 On ch=1 n=c#5 v=0
107631 On ch=1 n=c#8 v=88
107749 On ch=1 n=c#8 v=0
107751 On ch=1 n=c8 v=82
107869 On ch=1 n=c8 v=0
107871 On ch=1 n=b7 v=86
107989 On ch=1 n=b7 v=0
107991 On ch=1 n=d6 v=76
107991 On ch=1 n=g#5 v=65
107991 On ch=1 n=f6 v=62
107991 On ch=1 n=a#7 v=78
108109 On ch=1 n=a#7 v=0
108109 On ch=1 n=f6 v=0
108109 On ch=1 n=g#5 v=0
108109 On ch=1 n=d6 v=0
108111 On ch=1 n=a7 v=80
108229 On ch=1 n=a7 v=0
108231 On ch=1 n=g#7 v=78
108349 On ch=1 n=g#7 v=0
108351 On ch=1 n=g7 v=75
108469 On ch=1 n=g7 v=0
108471 On ch=1 n=g#6 v=66
108471 On ch=1 n=f6 v=66
108471 On ch=1 n=b5 v=51
108471 On ch=1 n=b7 v=76
108589 On ch=1 n=b7 v=0
108589 On ch=1 n=b5 v=0
108589 On ch=1 n=f6 v=0
108589 On ch=1 n=g#6 v=0
108591 On ch=1 n=a#7 v=71
108709 On ch=1 n=a#7 v=0
108711 On ch=1 n=a7 v=78
108829 On ch=1 n=a7 v=0
108831 On ch=1 n=g#7 v=77
108949 On ch=1 n=g#7 v=0
108951 On ch=1 n=b6 v=61
108951 On ch=1 n=d6 v=53
108951 On ch=1 n=g#6 v=67
108951 On ch=1 n=g7 v=84
109014 Par ch=1 c=64 v=0
109069 On ch=1 n=g7 v=0
109069 On ch=1 n=g#6 v=0
109069 On ch=1 n=d6 v=0
109069 On ch=1 n=b6 v=0
109071 On ch=1 n=f#7 v=75
109189 On ch=1 n=f#7 v=0
109191 On ch=1 n=f7 v=78
109309 On ch=1 n=f7 v=0
109311 On ch=1 n=e7 v=78
109429 On ch=1 n=e7 v=0
109431 On ch=1 n=d7 v=63
109431 On ch=1 n=b6 v=72
109431 On ch=1 n=f6 v=70
109431 On ch=1 n=g#7 v=80
109489 Par ch=1 c=64 v=127
109549 On ch=1 n=g#7 v=0
109549 On ch=1 n=f6 v=0
109549 On ch=1 n=b6 v=0
109549 On ch=1 n=d7 v=0
109551 On ch=1 n=g7 v=77
109669 On ch=1 n=g7 v=0
109671 On ch=1 n=f#7 v=68
109789 On ch=1 n=f#7 v=0
109791 On ch=1 n=f7 v=84
109909 On ch=1 n=f7 v=0
109911 On ch=1 n=e7 v=84
110029 On ch=1 n=e7 v=0
110031 On ch=1 n=d#7 v=72
110149 On ch=1 n=d#7 v=0
110151 On ch=1 n=d7 v=72
110269 On ch=1 n=d7 v=0
110271 On ch=1 n=c#7 v=68
110389 On ch=1 n=c#7 v=0
110391 On ch=1 n=f7 v=77
110509 On ch=1 n=f7 v=0
110511 On ch=1 n=e7 v=72
110629 On ch=1 n=e7 v=0
110631 On ch=1 n=d#7 v=60
110749 On ch=1 n=d#7 v=0
110751 On ch=1 n=d7 v=78
110869 On ch=1 n=d7 v=0
110871 On ch=1 n=c#7 v=67
110934 Par ch=1 c=64 v=0
110989 On ch=1 n=c#7 v=0
110991 On ch=1 n=c7 v=77
111109 On ch=1 n=c7 v=0
111111 On ch=1 n=b6 v=67
111229 On ch=1 n=b6 v=0
111231 On ch=1 n=a#6 v=58
111349 On ch=1 n=a#6 v=0
111351 On ch=1 n=d7 v=68
111469 On ch=1 n=d7 v=0
111471 On ch=1 n=c#7 v=66
111589 On ch=1 n=c#7 v=0
111591 On ch=1 n=c7 v=68
111709 On ch=1 n=c7 v=0
111711 On ch=1 n=b6 v=67
111829 On ch=1 n=b6 v=0
111831 On ch=1 n=a#6 v=57
111949 On ch=1 n=a#6 v=0
111951 On ch=1 n=a6 v=67
112069 On ch=1 n=a6 v=0
112071 On ch=1 n=g#6 v=65
112189 On ch=1 n=g#6 v=0
112191 On ch=1 n=g6 v=62
112309 On ch=1 n=g6 v=0
112311 On ch=1 n=b6 v=67
112429 On ch=1 n=b6 v=0
112431 On ch=1 n=a#6 v=67
112549 On ch=1 n=a#6 v=0
112551 On ch=1 n=a6 v=57
112669 On ch=1 n=a6 v=0
112671 On ch=1 n=g#6 v=56
112789 On ch=1 n=g#6 v=0
112791 On ch=1 n=g6 v=72
112909 On ch=1 n=g6 v=0
112911 On ch=1 n=f#6 v=73
113029 On ch=1 n=f#6 v=0
113031 On ch=1 n=f6 v=75
113149 On ch=1 n=f6 v=0
113151 On ch=1 n=e6 v=71
113269 On ch=1 n=e6 v=0
113271 On ch=1 n=g#6 v=67
113389 On ch=1 n=g#6 v=0
113391 On ch=1 n=g6 v=66
113509 On ch=1 n=g6 v=0
113511 On ch=1 n=f#6 v=62
113629 On ch=1 n=f#6 v=0
113631 On ch=1 n=f6 v=58
113749 On ch=1 n=f6 v=0
113751 On ch=1 n=e6 v=73
113869 On ch=1 n=e6 v=0
113871 On ch=1 n=d#6 v=51
113989 On ch=1 n=d#6 v=0
113991 On ch=1 n=d6 v=71
114109 On ch=1 n=d6 v=0
114111 On ch=1 n=c#6 v=65
114229 On ch=1 n=c#6 v=0
114231 On ch=1 n=f6 v=76
114349 On ch=1 n=f6 v=0
114351 On ch=1 n=e6 v=71
114469 On ch=1 n=e6 v=0
114471 On ch=1 n=d#6 v=58
114589 On ch=1 n=d#6 v=0
114591 On ch=1 n=d6 v=70
114709 On ch=1 n=d6 v=0
114711 On ch=1 n=c#6 v=60
114829 On ch=1 n=c#6 v=0
114831 On ch=1 n=c6 v=52
114949 On ch=1 n=c6 v=0
114951 On ch=1 n=b5 v=66
115069 On ch=1 n=b5 v=0
115071 On ch=1 n=a#5 v=50
115189 On ch=1 n=a#5 v=0
115191 On ch=1 n=b5 v=61
115249 On ch=1 n=b5 v=0
115351 On ch=1 n=c6 v=61
115409 On ch=1 n=c6 v=0
115511 On ch=1 n=c#6 v=67
115569 On ch=1 n=c#6 v=0
115671 On ch=1 n=d6 v=62
115729 On ch=1 n=d6 v=0
115831 On ch=1 n=d#6 v=65
115889 On ch=1 n=d#6 v=0
115991 On ch=1 n=e6 v=71
116049 On ch=1 n=e6 v=0
116151 On ch=1 n=a5 v=75
116151 On ch=1 n=f6 v=68
116269 On ch=1 n=f6 v=0
116269 On ch=1 n=a5 v=0
116271 On ch=1 n=f#6 v=75
116389 On ch=1 n=f#6 v=0
116391 On ch=1 n=c#6 v=52
116391 On ch=1 n=a6 v=62
116509 On ch=1 n=a6 v=0
116509 On ch=1 n=c#6 v=0
116511 On ch=1 n=c#7 v=71
116629 On ch=1 n=c#7 v=0
116631 On ch=1 n=a5 v=66
116631 On ch=1 n=f#7 v=80
116749 On ch=1 n=f#7 v=0
116749 On ch=1 n=a5 v=0
116751 On ch=1 n=c#7 v=66
116869 On ch=1 n=c#7 v=0
116871 On ch=1 n=c#6 v=68
116871 On ch=1 n=a6 v=62
116989 On ch=1 n=a6 v=0
116989 On ch=1 n=c#6 v=0
116991 On ch=1 n=f#6 v=50
117109 On ch=1 n=f#6 v=0
117111 On ch=1 n=g#5 v=66
117111 On ch=1 n=d#6 v=76
117229 On ch=1 n=d#6 v=0
117229 On ch=1 n=g#5 v=0
117231 On ch=1 n=e6 v=76
117349 On ch=1 n=e6 v=0
117351 On ch=1 n=b5 v=47
117351 On ch=1 n=g#6 v=81
117469 On ch=1 n=g#6 v=0
117469 On ch=1 n=b5 v=0
117471 On ch=1 n=b6 v=87
117589 On ch=1 n=b6 v=0
117591 On ch=1 n=g#5 v=75
117591 On ch=1 n=e7 v=87
117709 On ch=1 n=e7 v=0
117709 On ch=1 n=g#5 v=0
117711 On ch=1 n=b6 v=65
117829 On ch=1 n=b6 v=0
117831 On ch=1 n=b5 v=72
117831 On ch=1 n=g#6 v=65
117949 On ch=1 n=g#6 v=0
117949 On ch=1 n=b5 v=0
117951 On ch=1 n=e6 v=66
118069 On ch=1 n=e6 v=0
118071 On ch=1 n=f5 v=78
118071 On ch=1 n=c#6 v=68
118189 On ch=1 n=c#6 v=0
118189 On ch=1 n=f5 v=0
118191 On ch=1 n=d6 v=80
118309 On ch=1 n=d6 v=0
118311 On ch=1 n=g#5 v=75
118311 On ch=1 n=g#6 v=82
118429 On ch=1 n=g#6 v=0
118429 On ch=1 n=g#5 v=0
118431 On ch=1 n=b6 v=87
118549 On ch=1 n=b6 v=0
118551 On ch=1 n=e5 v=68
118551 On ch=1 n=d7 v=87
118669 On ch=1 n=d7 v=0
118669 On ch=1 n=e5 v=0
118671 On ch=1 n=b6 v=68
118789 On ch=1 n=b6 v=0
118791 On ch=1 n=g#5 v=73
118791 On ch=1 n=g#6 v=65
118909 On ch=1 n=g#6 v=0
118909 On ch=1 n=g#5 v=0
118911 On ch=1 n=d6 v=62
119029 On ch=1 n=d6 v=0
119031 On ch=1 n=a4 v=73
119031 On ch=1 n=c6 v=68
119089 Par ch=1 c=64 v=127
119149 On ch=1 n=c6 v=0
119149 On ch=1 n=a4 v=0
119151 On ch=1 n=c#6 v=56
119269 On ch=1 n=c#6 v=0
119271 On ch=1 n=a5 v=77
119271 On ch=1 n=e6 v=76
119389 On ch=1 n=e6 v=0
119389 On ch=1 n=a5 v=0
119391 On ch=1 n=a6 v=72
119509 On ch=1 n=a6 v=0
119511 On ch=1 n=e5 v=75
119511 On ch=1 n=c#7 v=82
119629 On ch=1 n=c#7 v=0
119629 On ch=1 n=e5 v=0
119631 On ch=1 n=e7 v=82
119749 On ch=1 n=e7 v=0
119751 On ch=1 n=a5 v=73
119751 On ch=1 n=a7 v=82
119869 On ch=1 n=a7 v=0
119869 On ch=1 n=a5 v=0
119871 On ch=1 n=c#8 v=72
119989 On ch=1 n=c#8 v=0
119991 On ch=1 n=a7 v=82
120109 On ch=1 n=a7 v=0
120111 On ch=1 n=e7 v=77
120229 On ch=1 n=e7 v=0
120231 On ch=1 n=c#7 v=65
120349 On ch=1 n=c#7 v=0
120351 On ch=1 n=a6 v=75
120469 On ch=1 n=a6 v=0
120471 On ch=1 n=e6 v=72
120534 Par ch=1 c=64 v=0
120589 On ch=1 n=e6 v=0
120591 On ch=1 n=d#6 v=70
120709 On ch=1 n=d#6 v=0
120711 On ch=1 n=d6 v=65
120829 On ch=1 n=d6 v=0
120831 On ch=1 n=c#6 v=60
120949 On ch=1 n=c#6 v=0
120951 On ch=1 n=d5 v=76
120951 On ch=1 n=a#5 v=65
121069 On ch=1 n=a#5 v=0
121069 On ch=1 n=d5 v=0
121071 On ch=1 n=b5 v=76
121189 On ch=1 n=b5 v=0
121191 On ch=1 n=g#5 v=75
121191 On ch=1 n=f6 v=81
121309 On ch=1 n=f6 v=0
121309 On ch=1 n=g#5 v=0
121311 On ch=1 n=g#6 v=84
121429 On ch=1 n=g#6 v=0
121431 On ch=1 n=f5 v=78
121431 On ch=1 n=b6 v=80
121549 On ch=1 n=b6 v=0
121549 On ch=1 n=f5 v=0
121551 On ch=1 n=g#6 v=72
121669 On ch=1 n=g#6 v=0
121671 On ch=1 n=g#5 v=66
121671 On ch=1 n=f6 v=68
121789 On ch=1 n=f6 v=0
121789 On ch=1 n=g#5 v=0
121791 On ch=1 n=b5 v=42
121909 On ch=1 n=b5 v=0
121911 On ch=1 n=c#5 v=62
121911 On ch=1 n=g#5 v=68
122029 On ch=1 n=g#5 v=0
122029 On ch=1 n=c#5 v=0
122031 On ch=1 n=a5 v=84
122149 On ch=1 n=a5 v=0
122151 On ch=1 n=f5 v=71
122151 On ch=1 n=c#6 v=70
122269 On ch=1 n=c#6 v=0
122269 On ch=1 n=f5 v=0
122271 On ch=1 n=f6 v=82
122389 On ch=1 n=f6 v=0
122391 On ch=1 n=c#5 v=75
122391 On ch=1 n=a6 v=78
122509 On ch=1 n=a6 v=0
122509 On ch=1 n=c#5 v=0
122511 On ch=1 n=f#6 v=73
122629 On ch=1 n=f#6 v=0
122631 On ch=1 n=f#5 v=65
122631 On ch=1 n=c#6 v=62
122749 On ch=1 n=c#6 v=0
122749 On ch=1 n=f#5 v=0
122751 On ch=1 n=a5 v=53
122869 On ch=1 n=a5 v=0
122871 On ch=1 n=c5 v=75
122871 On ch=1 n=g#5 v=76
122929 Par ch=1 c=64 v=127
122989 On ch=1 n=g#5 v=0
122989 On ch=1 n=c5 v=0
122991 On ch=1 n=a5 v=55
123109 On ch=1 n=a5 v=0
123111 On ch=1 n=f#5 v=76
123111 On ch=1 n=c6 v=75
123229 On ch=1 n=c6 v=0
123229 On ch=1 n=f#5 v=0
123231 On ch=1 n=d#6 v=78
123349 On ch=1 n=d#6 v=0
123351 On ch=1 n=d#5 v=76
123351 On ch=1 n=f#6 v=87
123469 On ch=1 n=f#6 v=0
123469 On ch=1 n=d#5 v=0
123471 On ch=1 n=a6 v=78
123589 On ch=1 n=a6 v=0
123591 On ch=1 n=f#5 v=76
123591 On ch=1 n=c7 v=84
123709 On ch=1 n=c7 v=0
123709 On ch=1 n=f#5 v=0
123711 On ch=1 n=d#7 v=91
123829 On ch=1 n=d#7 v=0
123831 On ch=1 n=a7 v=104
123949 On ch=1 n=a7 v=0
123951 On ch=1 n=d#7 v=76
124069 On ch=1 n=d#7 v=0
124071 On ch=1 n=c7 v=81
124189 On ch=1 n=c7 v=0
124191 On ch=1 n=a6 v=76
124309 On ch=1 n=a6 v=0
124311 On ch=1 n=f#6 v=61
124374 Par ch=1 c=64 v=0
124429 On ch=1 n=f#6 v=0
124431 On ch=1 n=d#6 v=70
124549 On ch=1 n=d#6 v=0
124551 On ch=1 n=c6 v=72
124669 On ch=1 n=c6 v=0
124671 On ch=1 n=a5 v=62
124789 On ch=1 n=a5 v=0
124791 On ch=1 n=f#5 v=53
124909 On ch=1 n=f#5 v=0
124911 On ch=1 n=d#5 v=65
125029 On ch=1 n=d#5 v=0
125031 On ch=1 n=d5 v=65
125149 On ch=1 n=d5 v=0
125151 On ch=1 n=d#5 v=75
125269 On ch=1 n=d#5 v=0
125271 On ch=1 n=e5 v=44
125389 On ch=1 n=e5 v=0
125391 On ch=1 n=f5 v=68
125509 On ch=1 n=f5 v=0
125511 On ch=1 n=f#5 v=75
125629 On ch=1 n=f#5 v=0
125631 On ch=1 n=g5 v=63
125749 On ch=1 n=g5 v=0
125751 On ch=1 n=g#4 v=73
125751 On ch=1 n=g#5 v=63
125809 Par ch=1 c=64 v=127
125869 On ch=1 n=g#5 v=0
125869 On ch=1 n=g#4 v=0
125871 On ch=1 n=a5 v=72
125989 On ch=1 n=a5 v=0
125991 On ch=1 n=f#5 v=55
125991 On ch=1 n=a#5 v=77
126109 On ch=1 n=a#5 v=0
126109 On ch=1 n=f#5 v=0
126111 On ch=1 n=b5 v=75
126229 On ch=1 n=b5 v=0
126231 On ch=1 n=d#5 v=80
126231 On ch=1 n=c6 v=81
126349 On ch=1 n=c6 v=0
126349 On ch=1 n=d#5 v=0
126351 On ch=1 n=c#6 v=75
126469 On ch=1 n=c#6 v=0
126471 On ch=1 n=f#5 v=62
126471 On ch=1 n=d6 v=81
126589 On ch=1 n=d6 v=0
126589 On ch=1 n=f#5 v=0
126591 On ch=1 n=d#6 v=80
126709 On ch=1 n=d#6 v=0
126711 On ch=1 n=g#4 v=77
126711 On ch=1 n=c6 v=70
126829 On ch=1 n=c6 v=0
126829 On ch=1 n=g#4 v=0
126831 On ch=1 n=c#6 v=75
126949 On ch=1 n=c#6 v=0
126951 On ch=1 n=f5 v=80
126951 On ch=1 n=d6 v=76
127069 On ch=1 n=d6 v=0
127069 On ch=1 n=f5 v=0
127071 On ch=1 n=d#6 v=75
127189 On ch=1 n=d#6 v=0
127191 On ch=1 n=c#5 v=77
127191 On ch=1 n=e6 v=83
127254 Par ch=1 c=64 v=0
127309 On ch=1 n=e6 v=0
127311 On ch=1 n=f6 v=70
127429 On ch=1 n=f6 v=0
127429 On ch=1 n=c#5 v=0
127431 On ch=1 n=f5 v=81
127431 On ch=1 n=f#6 v=78
127549 On ch=1 n=f#6 v=0
127549 On ch=1 n=f5 v=0
127551 On ch=1 n=g6 v=87
127669 On ch=1 n=g6 v=0
127671 On ch=1 n=g#4 v=82
127671 On ch=1 n=g#6 v=80
127729 Par ch=1 c=64 v=127
127789 On ch=1 n=g#6 v=0
127789 On ch=1 n=g#4 v=0
127791 On ch=1 n=a6 v=77
127909 On ch=1 n=a6 v=0
127911 On ch=1 n=f#5 v=77
127911 On ch=1 n=a#6 v=82
128029 On ch=1 n=a#6 v=0
128029 On ch=1 n=f#5 v=0
128031 On ch=1 n=b6 v=83
128149 On ch=1 n=b6 v=0
128151 On ch=1 n=d#5 v=82
128151 On ch=1 n=c7 v=76
128269 On ch=1 n=c7 v=0
128269 On ch=1 n=d#5 v=0
128271 On ch=1 n=c#7 v=82
128389 On ch=1 n=c#7 v=0
128391 On ch=1 n=f#5 v=75
128391 On ch=1 n=d7 v=87
128509 On ch=1 n=d7 v=0
128509 On ch=1 n=f#5 v=0
128511 On ch=1 n=d#7 v=76
128629 On ch=1 n=d#7 v=0
128631 On ch=1 n=g#4 v=84
128631 On ch=1 n=c7 v=73
128749 On ch=1 n=c7 v=0
128749 On ch=1 n=g#4 v=0
128751 On ch=1 n=c#7 v=72
128869 On ch=1 n=c#7 v=0
128871 On ch=1 n=f5 v=78
128871 On ch=1 n=d7 v=82
128989 On ch=1 n=d7 v=0
128989 On ch=1 n=f5 v=0
128991 On ch=1 n=d#7 v=80
129109 On ch=1 n=d#7 v=0
129111 On ch=1 n=c#5 v=76
129111 On ch=1 n=e7 v=82
129174 Par ch=1 c=64 v=0
129229 On ch=1 n=e7 v=0
129229 On ch=1 n=c#5 v=0
129231 On ch=1 n=f7 v=78
129349 On ch=1 n=f7 v=0
129351 On ch=1 n=f5 v=75
129351 On ch=1 n=f#7 v=86
129469 On ch=1 n=f#7 v=0
129469 On ch=1 n=f5 v=0
129471 On ch=1 n=g7 v=84
129589 On ch=1 n=g7 v=0
129591 On ch=1 n=g#4 v=88
129591 On ch=1 n=g#7 v=76
129709 On ch=1 n=g#7 v=0
129709 On ch=1 n=g#4 v=0
129711 On ch=1 n=a7 v=73
129829 On ch=1 n=a7 v=0
129831 On ch=1 n=f#5 v=84
129831 On ch=1 n=a#7 v=73
129949 On ch=1 n=a#7 v=0
129949 On ch=1 n=f#5 v=0
129951 On ch=1 n=b7 v=82
130069 On ch=1 n=b7 v=0
130071 On ch=1 n=d#5 v=78
130071 On ch=1 n=c8 v=86
130189 On ch=1 n=c8 v=0
130189 On ch=1 n=d#5 v=0
130191 On ch=1 n=c#8 v=84
130309 On ch=1 n=c#8 v=0
130311 On ch=1 n=f#5 v=82
130311 On ch=1 n=d8 v=84
130429 On ch=1 n=d8 v=0
130429 On ch=1 n=f#5 v=0
130431 On ch=1 n=d#8 v=84
130549 On ch=1 n=d#8 v=0
130551 On ch=1 n=c#4 v=75
130551 On ch=1 n=c8 v=72
130609 Par ch=1 c=64 v=127
130669 On ch=1 n=c8 v=0
130669 On ch=1 n=c#4 v=0
130671 On ch=1 n=c#8 v=68
130789 On ch=1 n=c#8 v=0
130791 On ch=1 n=g#4 v=77
130791 On ch=1 n=c8 v=65
130909 On ch=1 n=c8 v=0
130909 On ch=1 n=g#4 v=0
130911 On ch=1 n=c#8 v=56
131029 On ch=1 n=c#8 v=0
131031 On ch=1 n=c#5 v=81
131031 On ch=1 n=c8 v=62
131149 On ch=1 n=c8 v=0
131149 On ch=1 n=c#5 v=0
131151 On ch=1 n=c#8 v=52
131269 On ch=1 n=c#8 v=0
131271 On ch=1 n=f5 v=72
131271 On ch=1 n=c8 v=65
131389 On ch=1 n=c8 v=0
131389 On ch=1 n=f5 v=0
131391 On ch=1 n=c#8 v=56
131509 On ch=1 n=c#8 v=0
131511 On ch=1 n=g#5 v=82
131511 On ch=1 n=c8 v=55
131629 On ch=1 n=c8 v=0
131629 On ch=1 n=g#5 v=0
131631 On ch=1 n=c#8 v=56
131749 On ch=1 n=c#8 v=0
131751 On ch=1 n=c#6 v=81
131751 On ch=1 n=c8 v=66
131869 On ch=1 n=c8 v=0
131869 On ch=1 n=c#6 v=0
131871 On ch=1 n=c#8 v=51
131989 On ch=1 n=c#8 v=0
131991 On ch=1 n=f6 v=81
131991 On ch=1 n=c8 v=66
132054 Par ch=1 c=64 v=0
132109 On ch=1 n=c8 v=0
132109 On ch=1 n=f6 v=0
132111 On ch=1 n=c#8 v=65
132229 On ch=1 n=c#8 v=0
132231 On ch=1 n=g#6 v=78
132231 On ch=1 n=c8 v=73
132349 On ch=1 n=c8 v=0
132349 On ch=1 n=g#6 v=0
132351 On ch=1 n=c#8 v=68
132469 On ch=1 n=c#8 v=0
132471 On ch=1 n=c#7 v=78
132471 On ch=1 n=c8 v=80
132529 Par ch=1 c=64 v=127
132589 On ch=1 n=c8 v=0
132589 On ch=1 n=c#7 v=0
132591 On ch=1 n=c#8 v=83
132709 On ch=1 n=c#8 v=0
132711 On ch=1 n=c8 v=82
132829 On ch=1 n=c8 v=0
132831 On ch=1 n=c#8 v=82
132949 On ch=1 n=c#8 v=0
132951 On ch=1 n=c8 v=77
133069 On ch=1 n=c8 v=0
133071 On ch=1 n=c#8 v=72
133189 On ch=1 n=c#8 v=0
133191 On ch=1 n=c8 v=75
133309 On ch=1 n=c8 v=0
133311 On ch=1 n=c#8 v=67
133429 On ch=1 n=c#8 v=0
133431 On ch=1 n=c8 v=80
133549 On ch=1 n=c8 v=0
133551 On ch=1 n=c#8 v=83
133669 On ch=1 n=c#8 v=0
133671 On ch=1 n=c8 v=82
133789 On ch=1 n=c8 v=0
133791 On ch=1 n=c#8 v=82
133909 On ch=1 n=c#8 v=0
133911 On ch=1 n=c8 v=77
133974 Par ch=1 c=64 v=0
134029 On ch=1 n=c8 v=0
134031 On ch=1 n=c#8 v=72
134149 On ch=1 n=c#8 v=0
134151 On ch=1 n=c8 v=75
134269 On ch=1 n=c8 v=0
134271 On ch=1 n=c#8 v=67
134389 On ch=1 n=c#8 v=0
134391 On ch=1 n=c8 v=80
134509 On ch=1 n=c8 v=0
134511 On ch=1 n=c#8 v=83
134629 On ch=1 n=c#8 v=0
134631 On ch=1 n=e8 v=83
134749 On ch=1 n=e8 v=0
134751 On ch=1 n=d8 v=76
134869 On ch=1 n=d8 v=0
134871 On ch=1 n=b7 v=76
134989 On ch=1 n=b7 v=0
134991 On ch=1 n=g#7 v=78
135109 On ch=1 n=g#7 v=0
135111 On ch=1 n=f7 v=75
135229 On ch=1 n=f7 v=0
135231 On ch=1 n=d7 v=68
135349 On ch=1 n=d7 v=0
135351 On ch=1 n=c7 v=71
135469 On ch=1 n=c7 v=0
135471 On ch=1 n=c#7 v=71
135589 On ch=1 n=c#7 v=0
135591 On ch=1 n=e7 v=62
135709 On ch=1 n=e7 v=0
135711 On ch=1 n=d7 v=81
135829 On ch=1 n=d7 v=0
135831 On ch=1 n=a#6 v=75
135949 On ch=1 n=a#6 v=0
135951 On ch=1 n=b6 v=72
136069 On ch=1 n=b6 v=0
136071 On ch=1 n=d7 v=78
136189 On ch=1 n=d7 v=0
136191 On ch=1 n=c#7 v=62
136309 On ch=1 n=c#7 v=0
136311 On ch=1 n=a6 v=78
136429 On ch=1 n=a6 v=0
136431 On ch=1 n=a#6 v=68
136549 On ch=1 n=a#6 v=0
136551 On ch=1 n=c#7 v=73
136669 On ch=1 n=c#7 v=0
136671 On ch=1 n=b6 v=70
136789 On ch=1 n=b6 v=0
136791 On ch=1 n=g6 v=65
136909 On ch=1 n=g6 v=0
136911 On ch=1 n=g#6 v=67
137029 On ch=1 n=g#6 v=0
137031 On ch=1 n=b6 v=81
137149 On ch=1 n=b6 v=0
137151 On ch=1 n=a6 v=83
137269 On ch=1 n=a6 v=0
137271 On ch=1 n=f6 v=68
137271 On ch=1 n=a5 v=75
137389 On ch=1 n=a5 v=0
137389 On ch=1 n=f6 v=0
137391 On ch=1 n=f#6 v=75
137509 On ch=1 n=f#6 v=0
137511 On ch=1 n=a6 v=62
137511 On ch=1 n=c#6 v=52
137629 On ch=1 n=c#6 v=0
137629 On ch=1 n=a6 v=0
137631 On ch=1 n=c#7 v=71
137749 On ch=1 n=c#7 v=0
137751 On ch=1 n=f#6 v=78
137751 On ch=1 n=f#7 v=80
137751 On ch=1 n=a5 v=66
137869 On ch=1 n=a5 v=0
137869 On ch=1 n=f#7 v=0
137871 On ch=1 n=c#7 v=66
137989 On ch=1 n=c#7 v=0
137989 On ch=1 n=f#6 v=0
137991 On ch=1 n=a6 v=62
137991 On ch=1 n=c#6 v=68
138109 On ch=1 n=c#6 v=0
138109 On ch=1 n=a6 v=0
138111 On ch=1 n=f#6 v=50
138229 On ch=1 n=f#6 v=0
138231 On ch=1 n=d#6 v=76
138231 On ch=1 n=g#5 v=66
138349 On ch=1 n=g#5 v=0
138349 On ch=1 n=d#6 v=0
138351 On ch=1 n=e6 v=76
138469 On ch=1 n=e6 v=0
138471 On ch=1 n=g#6 v=81
138471 On ch=1 n=b5 v=47
138589 On ch=1 n=b5 v=0
138589 On ch=1 n=g#6 v=0
138591 On ch=1 n=b6 v=87
138709 On ch=1 n=b6 v=0
138711 On ch=1 n=e6 v=78
138711 On ch=1 n=e7 v=87
138711 On ch=1 n=g#5 v=75
138829 On ch=1 n=g#5 v=0
138829 On ch=1 n=e7 v=0
138831 On ch=1 n=b6 v=65
138949 On ch=1 n=b6 v=0
138949 On ch=1 n=e6 v=0
138951 On ch=1 n=g#6 v=65
138951 On ch=1 n=b5 v=72
139069 On ch=1 n=b5 v=0
139069 On ch=1 n=g#6 v=0
139071 On ch=1 n=e6 v=66
139189 On ch=1 n=e6 v=0
139191 On ch=1 n=c#6 v=68
139191 On ch=1 n=f5 v=78
139309 On ch=1 n=f5 v=0
139309 On ch=1 n=c#6 v=0
139311 On ch=1 n=d6 v=80
139429 On ch=1 n=d6 v=0
139431 On ch=1 n=g#6 v=82
139431 On ch=1 n=g#5 v=75
139549 On ch=1 n=g#5 v=0
139549 On ch=1 n=g#6 v=0
139551 On ch=1 n=b6 v=87
139669 On ch=1 n=b6 v=0
139671 On ch=1 n=d6 v=71
139671 On ch=1 n=g#5 v=51
139671 On ch=1 n=d7 v=87
139671 On ch=1 n=e5 v=68
139789 On ch=1 n=e5 v=0
139789 On ch=1 n=d7 v=0
139791 On ch=1 n=b6 v=68
139909 On ch=1 n=b6 v=0
139909 On ch=1 n=g#5 v=0
139909 On ch=1 n=d6 v=0
139911 On ch=1 n=g#6 v=65
139911 On ch=1 n=g#5 v=73
140029 On ch=1 n=g#5 v=0
140029 On ch=1 n=g#6 v=0
140031 On ch=1 n=d6 v=62
140149 On ch=1 n=d6 v=0
140151 On ch=1 n=c6 v=68
140151 On ch=1 n=a4 v=73
140209 Par ch=1 c=64 v=127
140269 On ch=1 n=a4 v=0
140269 On ch=1 n=c6 v=0
140271 On ch=1 n=c#6 v=56
140389 On ch=1 n=c#6 v=0
140391 On ch=1 n=e6 v=76
140391 On ch=1 n=a5 v=77
140509 On ch=1 n=a5 v=0
140509 On ch=1 n=e6 v=0
140511 On ch=1 n=a6 v=72
140629 On ch=1 n=a6 v=0
140631 On ch=1 n=c#6 v=68
140631 On ch=1 n=c#7 v=82
140631 On ch=1 n=e5 v=75
140749 On ch=1 n=e5 v=0
140749 On ch=1 n=c#7 v=0
140749 On ch=1 n=c#6 v=0
140751 On ch=1 n=e7 v=82
140869 On ch=1 n=e7 v=0
140871 On ch=1 n=a7 v=82
140871 On ch=1 n=a5 v=73
140989 On ch=1 n=a5 v=0
140989 On ch=1 n=a7 v=0
140991 On ch=1 n=c#8 v=72
141109 On ch=1 n=c#8 v=0
141111 On ch=1 n=a7 v=82
141229 On ch=1 n=a7 v=0
141231 On ch=1 n=e7 v=77
141349 On ch=1 n=e7 v=0
141351 On ch=1 n=c#7 v=65
141469 On ch=1 n=c#7 v=0
141471 On ch=1 n=a6 v=75
141589 On ch=1 n=a6 v=0
141591 On ch=1 n=e6 v=72
141654 Par ch=1 c=64 v=0
141709 On ch=1 n=e6 v=0
141711 On ch=1 n=d#6 v=70
141829 On ch=1 n=d#6 v=0
141831 On ch=1 n=d6 v=65
141949 On ch=1 n=d6 v=0
141951 On ch=1 n=c#6 v=60
142069 On ch=1 n=c#6 v=0
142071 On ch=1 n=a#5 v=65
142071 On ch=1 n=d5 v=76
142189 On ch=1 n=d5 v=0
142189 On ch=1 n=a#5 v=0
142191 On ch=1 n=b5 v=76
142309 On ch=1 n=b5 v=0
142311 On ch=1 n=f6 v=81
142311 On ch=1 n=g#5 v=75
142429 On ch=1 n=g#5 v=0
142429 On ch=1 n=f6 v=0
142431 On ch=1 n=g#6 v=84
142549 On ch=1 n=g#6 v=0
142551 On ch=1 n=b5 v=75
142551 On ch=1 n=b6 v=80
142551 On ch=1 n=f5 v=78
142669 On ch=1 n=f5 v=0
142669 On ch=1 n=b6 v=0
142671 On ch=1 n=g#6 v=72
142789 On ch=1 n=g#6 v=0
142789 On ch=1 n=b5 v=0
142791 On ch=1 n=f6 v=68
142791 On ch=1 n=g#5 v=66
142909 On ch=1 n=g#5 v=0
142909 On ch=1 n=f6 v=0
142911 On ch=1 n=b5 v=76
143029 On ch=1 n=b5 v=0
143031 On ch=1 n=g#5 v=68
143031 On ch=1 n=c#5 v=62
143149 On ch=1 n=c#5 v=0
143149 On ch=1 n=g#5 v=0
143151 On ch=1 n=a5 v=84
143269 On ch=1 n=a5 v=0
143271 On ch=1 n=c#6 v=70
143271 On ch=1 n=f5 v=71
143389 On ch=1 n=f5 v=0
143389 On ch=1 n=c#6 v=0
143391 On ch=1 n=f6 v=82
143509 On ch=1 n=f6 v=0
143511 On ch=1 n=a5 v=68
143511 On ch=1 n=a6 v=78
143511 On ch=1 n=c#5 v=75
143629 On ch=1 n=c#5 v=0
143629 On ch=1 n=a6 v=0
143631 On ch=1 n=f#6 v=73
143749 On ch=1 n=f#6 v=0
143749 On ch=1 n=a5 v=0
143751 On ch=1 n=c#6 v=62
143751 On ch=1 n=f#5 v=65
143869 On ch=1 n=f#5 v=0
143869 On ch=1 n=c#6 v=0
143871 On ch=1 n=a5 v=53
143989 On ch=1 n=a5 v=0
143991 On ch=1 n=g#5 v=76
143991 On ch=1 n=c5 v=75
144049 Par ch=1 c=64 v=127
144109 On ch=1 n=c5 v=0
144109 On ch=1 n=g#5 v=0
144111 On ch=1 n=a5 v=55
144229 On ch=1 n=a5 v=0
144231 On ch=1 n=a5 v=76
144231 On ch=1 n=d#5 v=76
144231 On ch=1 n=c6 v=75
144349 On ch=1 n=c6 v=0
144349 On ch=1 n=d#5 v=0
144351 On ch=1 n=d#6 v=78
144469 On ch=1 n=d#6 v=0
144469 On ch=1 n=a5 v=0
144471 On ch=1 n=f#6 v=75
144589 On ch=1 n=f#6 v=0
144591 On ch=1 n=a6 v=89
144709 On ch=1 n=a6 v=0
144711 On ch=1 n=c7 v=91
144829 On ch=1 n=c7 v=0
144831 On ch=1 n=d#7 v=87
144949 On ch=1 n=d#7 v=0
144951 On ch=1 n=f#7 v=84
145069 On ch=1 n=f#7 v=0
145071 On ch=1 n=a7 v=82
145189 On ch=1 n=a7 v=0
145191 On ch=1 n=c8 v=84
145309 On ch=1 n=c8 v=0
145311 On ch=1 n=d#8 v=81
145429 On ch=1 n=d#8 v=0
145431 On ch=1 n=a8 v=88
145494 Par ch=1 c=64 v=0
145549 On ch=1 n=a8 v=0
145551 On ch=1 n=d#8 v=75
145669 On ch=1 n=d#8 v=0
145671 On ch=1 n=c8 v=81
145789 On ch=1 n=c8 v=0
145791 On ch=1 n=a7 v=76
145909 On ch=1 n=a7 v=0
145911 On ch=1 n=f#7 v=75
146029 On ch=1 n=f#7 v=0
146031 On ch=1 n=d#7 v=76
146149 On ch=1 n=d#7 v=0
146151 On ch=1 n=c7 v=71
146269 On ch=1 n=c7 v=0
146271 On ch=1 n=a6 v=77
146389 On ch=1 n=a6 v=0
146391 On ch=1 n=f#6 v=72
146509 On ch=1 n=f#6 v=0
146511 On ch=1 n=d#6 v=65
146629 On ch=1 n=d#6 v=0
146631 On ch=1 n=a5 v=65
146749 On ch=1 n=a5 v=0
146751 On ch=1 n=b5 v=75
146869 On ch=1 n=b5 v=0
146871 On ch=1 n=c#6 v=80
146871 On ch=1 n=c#4 v=78
146929 Par ch=1 c=64 v=127
146989 On ch=1 n=c#6 v=0
146991 On ch=1 n=f6 v=93
147109 On ch=1 n=f6 v=0
147109 On ch=1 n=c#4 v=0
147111 On ch=1 n=c#7 v=90
147229 On ch=1 n=c#7 v=0
147231 On ch=1 n=c6 v=67
147349 On ch=1 n=c6 v=0
147351 On ch=1 n=c#6 v=78
147351 On ch=1 n=g#4 v=56
147351 On ch=1 n=b4 v=75
147351 On ch=1 n=f5 v=54
147469 On ch=1 n=c#6 v=0
147471 On ch=1 n=e6 v=75
147589 On ch=1 n=e6 v=0
147589 On ch=1 n=f5 v=0
147589 On ch=1 n=b4 v=0
147589 On ch=1 n=g#4 v=0
147591 On ch=1 n=d6 v=77
147709 On ch=1 n=d6 v=0
147711 On ch=1 n=c#6 v=79
147829 On ch=1 n=c#6 v=0
147831 On ch=1 n=a5 v=85
147831 On ch=1 n=c#4 v=81
147949 On ch=1 n=a5 v=0
147951 On ch=1 n=c#6 v=79
148069 On ch=1 n=c#6 v=0
148069 On ch=1 n=c#4 v=0
148071 On ch=1 n=a6 v=96
148189 On ch=1 n=a6 v=0
148191 On ch=1 n=g#5 v=78
148309 On ch=1 n=g#5 v=0
148311 On ch=1 n=a5 v=80
148311 On ch=1 n=c#5 v=61
148311 On ch=1 n=f#5 v=70
148311 On ch=1 n=a4 v=60
148374 Par ch=1 c=64 v=0
148429 On ch=1 n=a5 v=0
148431 On ch=1 n=c#6 v=87
148549 On ch=1 n=c#6 v=0
148549 On ch=1 n=a4 v=0
148549 On ch=1 n=f#5 v=0
148549 On ch=1 n=c#5 v=0
148551 On ch=1 n=b5 v=83
148669 On ch=1 n=b5 v=0
148671 On ch=1 n=a5 v=87
148789 On ch=1 n=a5 v=0
148791 On ch=1 n=g#5 v=75
148791 On ch=1 n=c#4 v=81
148909 On ch=1 n=g#5 v=0
148911 On ch=1 n=c#6 v=87
149029 On ch=1 n=c#6 v=0
149029 On ch=1 n=c#4 v=0
149031 On ch=1 n=g#6 v=87
149149 On ch=1 n=g#6 v=0
149151 On ch=1 n=g5 v=74
149269 On ch=1 n=g5 v=0
149271 On ch=1 n=g#5 v=75
149271 On ch=1 n=b4 v=61
149271 On ch=1 n=f5 v=77
149389 On ch=1 n=g#5 v=0
149391 On ch=1 n=b5 v=71
149509 On ch=1 n=b5 v=0
149509 On ch=1 n=f5 v=0
149509 On ch=1 n=b4 v=0
149511 On ch=1 n=a5 v=78
149629 On ch=1 n=a5 v=0
149631 On ch=1 n=g#5 v=75
149749 On ch=1 n=g#5 v=0
149751 On ch=1 n=f#5 v=77
149751 On ch=1 n=d4 v=76
149871 On ch=1 n=a5 v=66
149989 On ch=1 n=a5 v=0
149989 On ch=1 n=f#5 v=0
149991 On ch=1 n=f#6 v=83
150109 On ch=1 n=f#6 v=0
150111 On ch=1 n=f5 v=66
150111 On ch=1 n=c#5 v=51
150229 On ch=1 n=c#5 v=0
150229 On ch=1 n=f5 v=0
150229 On ch=1 n=d4 v=0
150231 On ch=1 n=f#5 v=70
150231 On ch=1 n=d5 v=55
150349 On ch=1 n=d5 v=0
150349 On ch=1 n=f#5 v=0
150351 On ch=1 n=g5 v=75
150351 On ch=1 n=d#5 v=55
150469 On ch=1 n=d#5 v=0
150469 On ch=1 n=g5 v=0
150471 On ch=1 n=g#5 v=72
150471 On ch=1 n=e5 v=66
150589 On ch=1 n=e5 v=0
150589 On ch=1 n=g#5 v=0
150591 On ch=1 n=f5 v=65
150591 On ch=1 n=a5 v=70
150709 On ch=1 n=a5 v=0
150709 On ch=1 n=f5 v=0
150711 On ch=1 n=f#5 v=63
150711 On ch=1 n=a#5 v=70
150829 On ch=1 n=a#5 v=0
150829 On ch=1 n=f#5 v=0
150831 On ch=1 n=b5 v=77
150831 On ch=1 n=g5 v=72
150949 On ch=1 n=g5 v=0
150949 On ch=1 n=b5 v=0
150951 On ch=1 n=c6 v=76
150951 On ch=1 n=g#5 v=68
151069 On ch=1 n=g#5 v=0
151069 On ch=1 n=c6 v=0
151071 On ch=1 n=c#6 v=82
151071 On ch=1 n=a5 v=68
151189 On ch=1 n=a5 v=0
151189 On ch=1 n=c#6 v=0
151191 On ch=1 n=a#5 v=56
151191 On ch=1 n=d6 v=77
151309 On ch=1 n=d6 v=0
151309 On ch=1 n=a#5 v=0
151311 On ch=1 n=d#6 v=72
151311 On ch=1 n=b5 v=77
151429 On ch=1 n=b5 v=0
151429 On ch=1 n=d#6 v=0
151431 On ch=1 n=e6 v=72
151431 On ch=1 n=c6 v=75
151549 On ch=1 n=c6 v=0
151549 On ch=1 n=e6 v=0
151551 On ch=1 n=f6 v=80
151551 On ch=1 n=c#6 v=77
151669 On ch=1 n=c#6 v=0
151669 On ch=1 n=f6 v=0
151671 On ch=1 n=f#6 v=82
151671 On ch=1 n=d6 v=57
151789 On ch=1 n=d6 v=0
151789 On ch=1 n=f#6 v=0
151791 On ch=1 n=d#6 v=76
151791 On ch=1 n=g6 v=83
151909 On ch=1 n=g6 v=0
151909 On ch=1 n=d#6 v=0
151911 On ch=1 n=g#6 v=84
151911 On ch=1 n=e6 v=71
152029 On ch=1 n=e6 v=0
152029 On ch=1 n=g#6 v=0
152031 On ch=1 n=f6 v=76
152031 On ch=1 n=a6 v=82
152149 On ch=1 n=a6 v=0
152149 On ch=1 n=f6 v=0
152151 On ch=1 n=f#6 v=80
152151 On ch=1 n=a#6 v=76
152269 On ch=1 n=a#6 v=0
152269 On ch=1 n=f#6 v=0
152271 On ch=1 n=b6 v=82
152271 On ch=1 n=g6 v=75
152389 On ch=1 n=g6 v=0
152389 On ch=1 n=b6 v=0
152391 On ch=1 n=c7 v=81
152391 On ch=1 n=g#6 v=80
152509 On ch=1 n=g#6 v=0
152509 On ch=1 n=c7 v=0
152511 On ch=1 n=a6 v=84
152511 On ch=1 n=c#7 v=88
152629 On ch=1 n=c#7 v=0
152629 On ch=1 n=a6 v=0
152631 On ch=1 n=a#6 v=84
152631 On ch=1 n=d7 v=93
152749 On ch=1 n=d7 v=0
152749 On ch=1 n=a#6 v=0
152751 On ch=1 n=b6 v=81
152751 On ch=1 n=d#7 v=87
152869 On ch=1 n=d#7 v=0
152869 On ch=1 n=b6 v=0
152871 On ch=1 n=e7 v=88
152871 On ch=1 n=c7 v=82
152989 On ch=1 n=c7 v=0
152989 On ch=1 n=e7 v=0
152991 On ch=1 n=c#7 v=77
152991 On ch=1 n=f7 v=81
153109 On ch=1 n=f7 v=0
153109 On ch=1 n=c#7 v=0
153111 On ch=1 n=d7 v=82
153111 On ch=1 n=f#7 v=78
153229 On ch=1 n=f#7 v=0
153229 On ch=1 n=d7 v=0
153591 On ch=1 n=b4 v=67
153591 On ch=1 n=d7 v=87
153649 Par ch=1 c=64 v=127
153709 On ch=1 n=d7 v=0
153711 On ch=1 n=g7 v=66
153829 On ch=1 n=g7 v=0
153829 On ch=1 n=b4 v=0
153831 On ch=1 n=d8 v=81
153949 On ch=1 n=d8 v=0
153951 On ch=1 n=c#7 v=42
154069 On ch=1 n=c#7 v=0
154071 On ch=1 n=g5 v=56
154071 On ch=1 n=b5 v=55
154071 On ch=1 n=d6 v=38
154071 On ch=1 n=d7 v=77
154189 On ch=1 n=d7 v=0
154191 On ch=1 n=f#7 v=76
154309 On ch=1 n=f#7 v=0
154309 On ch=1 n=d6 v=0
154309 On ch=1 n=b5 v=0
154309 On ch=1 n=g5 v=0
154311 On ch=1 n=e7 v=70
154429 On ch=1 n=e7 v=0
154431 On ch=1 n=d7 v=70
154549 On ch=1 n=d7 v=0
154551 On ch=1 n=c#5 v=68
154551 On ch=1 n=a6 v=75
154669 On ch=1 n=a6 v=0
154671 On ch=1 n=c#7 v=76
154789 On ch=1 n=c#7 v=0
154789 On ch=1 n=c#5 v=0
154791 On ch=1 n=a7 v=84
154909 On ch=1 n=a7 v=0
154911 On ch=1 n=g#6 v=70
155029 On ch=1 n=g#6 v=0
155031 On ch=1 n=a5 v=66
155031 On ch=1 n=c#6 v=52
155031 On ch=1 n=f#6 v=63
155031 On ch=1 n=a6 v=77
155094 Par ch=1 c=64 v=0
155149 On ch=1 n=a6 v=0
155151 On ch=1 n=c#7 v=65
155269 On ch=1 n=c#7 v=0
155269 On ch=1 n=f#6 v=0
155269 On ch=1 n=c#6 v=0
155269 On ch=1 n=a5 v=0
155271 On ch=1 n=b6 v=66
155389 On ch=1 n=b6 v=0
155391 On ch=1 n=a6 v=80
155509 On ch=1 n=a6 v=0
155511 On ch=1 n=c#5 v=62
155511 On ch=1 n=g#6 v=80
155629 On ch=1 n=g#6 v=0
155631 On ch=1 n=c#7 v=53
155749 On ch=1 n=c#7 v=0
155749 On ch=1 n=c#5 v=0
155751 On ch=1 n=g#7 v=83
155869 On ch=1 n=g#7 v=0
155871 On ch=1 n=g6 v=75
155989 On ch=1 n=g6 v=0
155991 On ch=1 n=f6 v=66
155991 On ch=1 n=b5 v=73
155991 On ch=1 n=g#6 v=56
156109 On ch=1 n=g#6 v=0
156111 On ch=1 n=b6 v=65
156229 On ch=1 n=b6 v=0
156229 On ch=1 n=b5 v=0
156229 On ch=1 n=f6 v=0
156231 On ch=1 n=a6 v=81
156349 On ch=1 n=a6 v=0
156351 On ch=1 n=g#6 v=54
156469 On ch=1 n=g#6 v=0
156471 On ch=1 n=a5 v=66
156471 On ch=1 n=d5 v=65
156471 On ch=1 n=f#6 v=66
156591 On ch=1 n=a6 v=66
156709 On ch=1 n=a6 v=0
156709 On ch=1 n=f#6 v=0
156711 On ch=1 n=f#7 v=66
156829 On ch=1 n=f#7 v=0
156831 On ch=1 n=f6 v=76
156831 On ch=1 n=c#6 v=42
156949 On ch=1 n=c#6 v=0
156949 On ch=1 n=f6 v=0
156949 On ch=1 n=d5 v=0
156949 On ch=1 n=a5 v=0
156951 On ch=1 n=d6 v=57
156951 On ch=1 n=f#6 v=73
157069 On ch=1 n=f#6 v=0
157069 On ch=1 n=d6 v=0
157071 On ch=1 n=g6 v=66
157071 On ch=1 n=d#6 v=44
157189 On ch=1 n=d#6 v=0
157189 On ch=1 n=g6 v=0
157191 On ch=1 n=g#6 v=77
157191 On ch=1 n=e6 v=72
157309 On ch=1 n=e6 v=0
157309 On ch=1 n=g#6 v=0
157311 On ch=1 n=a6 v=70
157311 On ch=1 n=f6 v=62
157429 On ch=1 n=f6 v=0
157429 On ch=1 n=a6 v=0
157431 On ch=1 n=f#6 v=72
157431 On ch=1 n=a#6 v=72
157549 On ch=1 n=a#6 v=0
157549 On ch=1 n=f#6 v=0
157551 On ch=1 n=b6 v=72
157551 On ch=1 n=g6 v=57
157669 On ch=1 n=g6 v=0
157669 On ch=1 n=b6 v=0
157671 On ch=1 n=g#6 v=68
157671 On ch=1 n=c7 v=78
157789 On ch=1 n=c7 v=0
157789 On ch=1 n=g#6 v=0
157791 On ch=1 n=a6 v=63
157791 On ch=1 n=c#7 v=78
157909 On ch=1 n=c#7 v=0
157909 On ch=1 n=a6 v=0
157911 On ch=1 n=a#6 v=73
157911 On ch=1 n=d7 v=88
158029 On ch=1 n=d7 v=0
158029 On ch=1 n=a#6 v=0
158031 On ch=1 n=d#7 v=76
158031 On ch=1 n=b6 v=75
158149 On ch=1 n=b6 v=0
158149 On ch=1 n=d#7 v=0
158151 On ch=1 n=e7 v=73
158151 On ch=1 n=c7 v=70
158269 On ch=1 n=c7 v=0
158269 On ch=1 n=e7 v=0
158271 On ch=1 n=f7 v=80
158271 On ch=1 n=c#7 v=77
158389 On ch=1 n=c#7 v=0
158389 On ch=1 n=f7 v=0
158391 On ch=1 n=d7 v=76
158391 On ch=1 n=f#7 v=89
158509 On ch=1 n=f#7 v=0
158509 On ch=1 n=d7 v=0
158511 On ch=1 n=d#7 v=82
158511 On ch=1 n=g7 v=87
158629 On ch=1 n=g7 v=0
158629 On ch=1 n=d#7 v=0
158631 On ch=1 n=e7 v=84
158631 On ch=1 n=g#7 v=89
158749 On ch=1 n=g#7 v=0
158749 On ch=1 n=e7 v=0
158751 On ch=1 n=a7 v=93
158751 On ch=1 n=f7 v=87
158869 On ch=1 n=f7 v=0
158869 On ch=1 n=a7 v=0
158871 On ch=1 n=f#7 v=84
158871 On ch=1 n=a#7 v=89
158989 On ch=1 n=a#7 v=0
158989 On ch=1 n=f#7 v=0
158991 On ch=1 n=g7 v=83
158991 On ch=1 n=b7 v=86
159109 On ch=1 n=b7 v=0
159109 On ch=1 n=g7 v=0
159111 On ch=1 n=c8 v=87
159111 On ch=1 n=g#7 v=84
159229 On ch=1 n=g#7 v=0
159229 On ch=1 n=c8 v=0
159231 On ch=1 n=c#8 v=86
159231 On ch=1 n=a7 v=80
159349 On ch=1 n=a7 v=0
159349 On ch=1 n=c#8 v=0
159351 On ch=1 n=a#7 v=72
159351 On ch=1 n=d8 v=87
159469 On ch=1 n=d8 v=0
159469 On ch=1 n=a#7 v=0
159471 On ch=1 n=d#8 v=88
159471 On ch=1 n=b7 v=76
159589 On ch=1 n=b7 v=0
159589 On ch=1 n=d#8 v=0
159591 On ch=1 n=e8 v=84
159591 On ch=1 n=c8 v=72
159709 On ch=1 n=c8 v=0
159709 On ch=1 n=e8 v=0
159711 On ch=1 n=f8 v=78
159711 On ch=1 n=c#8 v=83
159829 On ch=1 n=c#8 v=0
159829 On ch=1 n=f8 v=0
159831 On ch=1 n=f#8 v=84
159831 On ch=1 n=d8 v=87
159949 On ch=1 n=d8 v=0
159949 On ch=1 n=f#8 v=0
160235 Par ch=1 c=64 v=127
160311 On ch=1 n=b2 v=103
160311 On ch=1 n=b3 v=104
160549 On ch=1 n=b3 v=0
160549 On ch=1 n=b2 v=0
160551 On ch=1 n=d6 v=97
160551 On ch=1 n=g5 v=95
160551 On ch=1 n=d5 v=99
160789 On ch=1 n=d5 v=0
160789 On ch=1 n=g5 v=0
160789 On ch=1 n=d6 v=0
160791 On ch=1 n=b4 v=98
160791 On ch=1 n=g4 v=98
160791 On ch=1 n=d5 v=92
161029 On ch=1 n=d5 v=0
161029 On ch=1 n=g4 v=0
161029 On ch=1 n=b4 v=0
161031 On ch=1 n=d7 v=104
161031 On ch=1 n=d6 v=99
161031 On ch=1 n=g6 v=99
161193 Par ch=1 c=64 v=0
161243 Par ch=1 c=64 v=127
161269 On ch=1 n=g6 v=0
161269 On ch=1 n=d6 v=0
161269 On ch=1 n=d7 v=0
161271 On ch=1 n=c3 v=111
161271 On ch=1 n=c4 v=104
161509 On ch=1 n=c4 v=0
161509 On ch=1 n=c3 v=0
161511 On ch=1 n=a5 v=99
161511 On ch=1 n=a4 v=88
161511 On ch=1 n=f#5 v=91
161749 On ch=1 n=f#5 v=0
161749 On ch=1 n=a4 v=0
161749 On ch=1 n=a5 v=0
161751 On ch=1 n=a4 v=98
161751 On ch=1 n=f#4 v=92
161751 On ch=1 n=d#5 v=92
161989 On ch=1 n=d#5 v=0
161989 On ch=1 n=f#4 v=0
161989 On ch=1 n=a4 v=0
161991 On ch=1 n=f#6 v=102
161991 On ch=1 n=a5 v=102
161991 On ch=1 n=a6 v=101
162167 Par ch=1 c=64 v=0
162229 On ch=1 n=a6 v=0
162229 On ch=1 n=a5 v=0
162229 On ch=1 n=f#6 v=0
162231 On ch=1 n=c#3 v=99
162231 On ch=1 n=c#2 v=108
162284 Par ch=1 c=64 v=127
162471 On ch=1 n=f#3 v=66
162471 On ch=1 n=d#4 v=77
162589 On ch=1 n=d#4 v=0
162589 On ch=1 n=f#3 v=0
162591 On ch=1 n=f#4 v=78
162591 On ch=1 n=a3 v=82
162709 On ch=1 n=a3 v=0
162709 On ch=1 n=f#4 v=0
162711 On ch=1 n=c4 v=71
162711 On ch=1 n=a4 v=80
162829 On ch=1 n=a4 v=0
162829 On ch=1 n=c4 v=0
162831 On ch=1 n=d#4 v=76
162831 On ch=1 n=c5 v=84
162949 On ch=1 n=c5 v=0
162949 On ch=1 n=d#4 v=0
162951 On ch=1 n=f#4 v=78
162951 On ch=1 n=d#5 v=81
163069 On ch=1 n=d#5 v=0
163069 On ch=1 n=f#4 v=0
163071 On ch=1 n=f#5 v=82
163071 On ch=1 n=a4 v=77
163189 On ch=1 n=a4 v=0
163189 On ch=1 n=f#5 v=0
163189 On ch=1 n=c#2 v=0
163189 On ch=1 n=c#3 v=0
163191 On ch=1 n=a5 v=83
163191 On ch=1 n=c5 v=81
163309 On ch=1 n=c5 v=0
163309 On ch=1 n=a5 v=0
163311 On ch=1 n=c6 v=82
163311 On ch=1 n=d#5 v=76
163429 On ch=1 n=d#5 v=0
163429 On ch=1 n=c6 v=0
163431 On ch=1 n=d#6 v=84
163431 On ch=1 n=f#5 v=83
163549 On ch=1 n=f#5 v=0
163549 On ch=1 n=d#6 v=0
163551 On ch=1 n=f#6 v=80
163551 On ch=1 n=a5 v=80
163669 On ch=1 n=a5 v=0
163669 On ch=1 n=f#6 v=0
163671 On ch=1 n=d#6 v=75
163671 On ch=1 n=f#5 v=66
163789 On ch=1 n=f#5 v=0
163789 On ch=1 n=d#6 v=0
163791 On ch=1 n=d#5 v=67
163791 On ch=1 n=c6 v=82
163909 On ch=1 n=c6 v=0
163909 On ch=1 n=d#5 v=0
163911 On ch=1 n=a5 v=78
163911 On ch=1 n=c5 v=73
164029 On ch=1 n=c5 v=0
164029 On ch=1 n=a5 v=0
164031 On ch=1 n=a4 v=75
164031 On ch=1 n=f#5 v=75
164149 On ch=1 n=f#5 v=0
164149 On ch=1 n=a4 v=0
164151 On ch=1 n=d#5 v=81
164151 On ch=1 n=f#4 v=73
164269 On ch=1 n=f#4 v=0
164269 On ch=1 n=d#5 v=0
164271 On ch=1 n=c5 v=75
164271 On ch=1 n=d#4 v=61
164389 On ch=1 n=d#4 v=0
164389 On ch=1 n=c5 v=0
164391 On ch=1 n=a4 v=65
164391 On ch=1 n=c#4 v=66
164509 On ch=1 n=c#4 v=0
164509 On ch=1 n=a4 v=0
164511 On ch=1 n=c5 v=80
164511 On ch=1 n=d#4 v=63
164629 On ch=1 n=d#4 v=0
164629 On ch=1 n=c5 v=0
164631 On ch=1 n=f#4 v=65
164631 On ch=1 n=d#5 v=83
164749 On ch=1 n=d#5 v=0
164749 On ch=1 n=f#4 v=0
164751 On ch=1 n=f#5 v=76
164751 On ch=1 n=a4 v=68
164869 On ch=1 n=a4 v=0
164869 On ch=1 n=f#5 v=0
164871 On ch=1 n=a5 v=86
164871 On ch=1 n=c5 v=72
164989 On ch=1 n=c5 v=0
164989 On ch=1 n=a5 v=0
164991 On ch=1 n=d#5 v=66
164991 On ch=1 n=c6 v=86
165109 On ch=1 n=c6 v=0
165109 On ch=1 n=d#5 v=0
165111 On ch=1 n=f#5 v=66
165111 On ch=1 n=d#6 v=71
165229 On ch=1 n=d#6 v=0
165229 On ch=1 n=f#5 v=0
165231 On ch=1 n=f#6 v=84
165231 On ch=1 n=a5 v=82
165349 On ch=1 n=a5 v=0
165349 On ch=1 n=f#6 v=0
165351 On ch=1 n=a6 v=84
165351 On ch=1 n=c6 v=75
165469 On ch=1 n=c6 v=0
165469 On ch=1 n=a6 v=0
165471 On ch=1 n=d#6 v=65
165471 On ch=1 n=c7 v=86
165589 On ch=1 n=c7 v=0
165589 On ch=1 n=d#6 v=0
165591 On ch=1 n=d#7 v=88
165591 On ch=1 n=f#6 v=82
165709 On ch=1 n=f#6 v=0
165709 On ch=1 n=d#7 v=0
165711 On ch=1 n=f#7 v=78
165711 On ch=1 n=a6 v=78
165829 On ch=1 n=a6 v=0
165829 On ch=1 n=f#7 v=0
165831 On ch=1 n=d#7 v=77
165831 On ch=1 n=f#6 v=67
165949 On ch=1 n=f#6 v=0
165949 On ch=1 n=d#7 v=0
165951 On ch=1 n=c7 v=75
165951 On ch=1 n=d#6 v=65
166069 On ch=1 n=d#6 v=0
166069 On ch=1 n=c7 v=0
166071 On ch=1 n=a6 v=82
166071 On ch=1 n=c6 v=71
166189 On ch=1 n=c6 v=0
166189 On ch=1 n=a6 v=0
166191 On ch=1 n=f#6 v=73
166191 On ch=1 n=a5 v=73
166309 On ch=1 n=a5 v=0
166309 On ch=1 n=f#6 v=0
166311 On ch=1 n=f#5 v=73
166311 On ch=1 n=d#6 v=73
166429 On ch=1 n=d#6 v=0
166429 On ch=1 n=f#5 v=0
166431 On ch=1 n=c6 v=80
166431 On ch=1 n=d#5 v=53
166549 On ch=1 n=d#5 v=0
166549 On ch=1 n=c6 v=0
166551 On ch=1 n=c#5 v=66
166551 On ch=1 n=a5 v=80
166669 On ch=1 n=a5 v=0
166669 On ch=1 n=c#5 v=0
166671 On ch=1 n=c6 v=75
166671 On ch=1 n=d#5 v=65
166789 On ch=1 n=d#5 v=0
166789 On ch=1 n=c6 v=0
166791 On ch=1 n=d#6 v=76
166791 On ch=1 n=f#5 v=73
166909 On ch=1 n=f#5 v=0
166909 On ch=1 n=d#6 v=0
166911 On ch=1 n=f#6 v=76
166911 On ch=1 n=a5 v=67
167029 On ch=1 n=a5 v=0
167029 On ch=1 n=f#6 v=0
167031 On ch=1 n=a6 v=86
167031 On ch=1 n=c6 v=73
167149 On ch=1 n=c6 v=0
167149 On ch=1 n=a6 v=0
167151 On ch=1 n=c7 v=86
167151 On ch=1 n=d#6 v=68
167269 On ch=1 n=d#6 v=0
167269 On ch=1 n=c7 v=0
167271 On ch=1 n=d#7 v=80
167271 On ch=1 n=f#6 v=75
167389 On ch=1 n=f#6 v=0
167389 On ch=1 n=d#7 v=0
167391 On ch=1 n=f#7 v=78
167391 On ch=1 n=a6 v=75
167509 On ch=1 n=a6 v=0
167509 On ch=1 n=f#7 v=0
167511 On ch=1 n=a7 v=84
167511 On ch=1 n=c7 v=81
167629 On ch=1 n=c7 v=0
167629 On ch=1 n=a7 v=0
167631 On ch=1 n=c8 v=78
167631 On ch=1 n=d#7 v=63
167749 On ch=1 n=d#7 v=0
167749 On ch=1 n=c8 v=0
167751 On ch=1 n=d#8 v=77
167751 On ch=1 n=f#7 v=82
167869 On ch=1 n=f#7 v=0
167869 On ch=1 n=d#8 v=0
167871 On ch=1 n=f#8 v=86
167871 On ch=1 n=a7 v=76
167893 Par ch=1 c=64 v=0
167989 On ch=1 n=a7 v=0
167989 On ch=1 n=f#8 v=0
168471 On ch=1 n=a4 v=86
168471 On ch=1 n=c#4 v=84
168471 On ch=1 n=c5 v=88
168471 On ch=1 n=f#4 v=75
168471 On ch=1 n=f#6 v=84
168471 On ch=1 n=d#6 v=83
168471 On ch=1 n=a6 v=89
168471 On ch=1 n=a5 v=87
168589 On ch=1 n=a5 v=0
168589 On ch=1 n=a6 v=0
168589 On ch=1 n=d#6 v=0
168589 On ch=1 n=f#6 v=0
168589 On ch=1 n=f#4 v=0
168589 On ch=1 n=c5 v=0
168589 On ch=1 n=c#4 v=0
168589 On ch=1 n=a4 v=0
168951 On ch=1 n=f#4 v=83
168951 On ch=1 n=c#5 v=87
168951 On ch=1 n=g#4 v=78
168951 On ch=1 n=c#4 v=76
168951 On ch=1 n=c#6 v=83
168951 On ch=1 n=c#7 v=96
168951 On ch=1 n=f#6 v=86
168951 On ch=1 n=g#6 v=89
169069 On ch=1 n=g#6 v=0
169069 On ch=1 n=f#6 v=0
169069 On ch=1 n=c#7 v=0
169069 On ch=1 n=c#6 v=0
169069 On ch=1 n=c#4 v=0
169069 On ch=1 n=g#4 v=0
169069 On ch=1 n=c#5 v=0
169069 On ch=1 n=f#4 v=0
169431 On ch=1 n=c#4 v=86
169431 On ch=1 n=f4 v=87
169431 On ch=1 n=g#4 v=87
169431 On ch=1 n=c#5 v=87
169431 On ch=1 n=f6 v=86
169431 On ch=1 n=g#6 v=88
169431 On ch=1 n=c#6 v=83
169431 On ch=1 n=c#7 v=89
169909 On ch=1 n=g#6 v=0
169909 On ch=1 n=f6 v=0
169909 On ch=1 n=c#5 v=0
169909 On ch=1 n=g#4 v=0
169909 On ch=1 n=f4 v=0
169909 On ch=1 n=c#4 v=0
169911 On ch=1 n=f#3 v=78
169911 On ch=1 n=a#6 v=78
169911 On ch=1 n=f#6 v=76
169969 Par ch=1 c=64 v=127
170029 On ch=1 n=f#3 v=0
170149 On ch=1 n=f#6 v=0
170149 On ch=1 n=a#6 v=0
170149 On ch=1 n=c#7 v=0
170149 On ch=1 n=c#6 v=0
170151 On ch=1 n=c#5 v=78
170151 On ch=1 n=c#4 v=81
170269 On ch=1 n=c#4 v=0
170269 On ch=1 n=c#5 v=0
170271 On ch=1 n=a#6 v=88
170271 On ch=1 n=c#6 v=75
170271 On ch=1 n=c#7 v=65
170389 On ch=1 n=c#7 v=0
170389 On ch=1 n=c#6 v=0
170389 On ch=1 n=a#6 v=0
170391 On ch=1 n=f#4 v=82
170391 On ch=1 n=c#5 v=73
170391 On ch=1 n=a#6 v=84
170391 On ch=1 n=c#6 v=72
170391 On ch=1 n=c#7 v=60
170509 On ch=1 n=c#7 v=0
170509 On ch=1 n=c#6 v=0
170509 On ch=1 n=a#6 v=0
170509 On ch=1 n=c#5 v=0
170509 On ch=1 n=f#4 v=0
170631 On ch=1 n=c#5 v=73
170631 On ch=1 n=c#4 v=80
170631 On ch=1 n=a#6 v=82
170631 On ch=1 n=c#6 v=75
170631 On ch=1 n=c#7 v=68
170749 On ch=1 n=c#7 v=0
170749 On ch=1 n=c#6 v=0
170749 On ch=1 n=a#6 v=0
170749 On ch=1 n=c#4 v=0
170749 On ch=1 n=c#5 v=0
170871 On ch=1 n=f#3 v=76
170871 On ch=1 n=a#6 v=89
170871 On ch=1 n=c#7 v=77
170871 On ch=1 n=c#6 v=84
170989 On ch=1 n=c#6 v=0
170989 On ch=1 n=c#7 v=0
170989 On ch=1 n=a#6 v=0
171109 On ch=1 n=f#3 v=0
171111 On ch=1 n=c#5 v=76
171111 On ch=1 n=c#4 v=80
171111 On ch=1 n=b6 v=86
171111 On ch=1 n=b5 v=87
171111 On ch=1 n=g#6 v=86
171229 On ch=1 n=g#6 v=0
171229 On ch=1 n=b5 v=0
171229 On ch=1 n=b6 v=0
171229 On ch=1 n=c#4 v=0
171229 On ch=1 n=c#5 v=0
171351 On ch=1 n=f#4 v=82
171351 On ch=1 n=c#5 v=67
171351 On ch=1 n=f#6 v=89
171351 On ch=1 n=a#5 v=83
171351 On ch=1 n=a#6 v=73
171414 Par ch=1 c=64 v=0
171469 On ch=1 n=a#6 v=0
171469 On ch=1 n=a#5 v=0
171469 On ch=1 n=f#6 v=0
171469 On ch=1 n=c#5 v=0
171469 On ch=1 n=f#4 v=0
171591 On ch=1 n=c#5 v=76
171591 On ch=1 n=c#4 v=75
171591 On ch=1 n=b6 v=87
171591 On ch=1 n=b5 v=89
171591 On ch=1 n=g#6 v=88
171709 On ch=1 n=g#6 v=0
171709 On ch=1 n=b5 v=0
171709 On ch=1 n=b6 v=0
171709 On ch=1 n=c#4 v=0
171709 On ch=1 n=c#5 v=0
171831 On ch=1 n=f#3 v=78
171831 On ch=1 n=c#6 v=84
171831 On ch=1 n=a#6 v=84
171831 On ch=1 n=c#7 v=75
172069 On ch=1 n=c#7 v=0
172069 On ch=1 n=a#6 v=0
172069 On ch=1 n=c#6 v=0
172069 On ch=1 n=f#3 v=0
172071 On ch=1 n=c#5 v=76
172071 On ch=1 n=c#4 v=75
172189 On ch=1 n=c#4 v=0
172189 On ch=1 n=c#5 v=0
172191 On ch=1 n=c#6 v=80
172191 On ch=1 n=a#6 v=82
172191 On ch=1 n=c#7 v=68
172309 On ch=1 n=c#7 v=0
172309 On ch=1 n=a#6 v=0
172309 On ch=1 n=c#6 v=0
172311 On ch=1 n=f#4 v=77
172311 On ch=1 n=c#5 v=54
172311 On ch=1 n=c#7 v=83
172311 On ch=1 n=c#6 v=86
172311 On ch=1 n=a#6 v=91
172429 On ch=1 n=a#6 v=0
172429 On ch=1 n=c#6 v=0
172429 On ch=1 n=c#7 v=0
172429 On ch=1 n=c#5 v=0
172429 On ch=1 n=f#4 v=0
172551 On ch=1 n=c#5 v=75
172551 On ch=1 n=c#4 v=77
172551 On ch=1 n=c#7 v=86
172551 On ch=1 n=c#6 v=87
172551 On ch=1 n=a#6 v=88
172669 On ch=1 n=a#6 v=0
172669 On ch=1 n=c#6 v=0
172669 On ch=1 n=c#7 v=0
172669 On ch=1 n=c#4 v=0
172669 On ch=1 n=c#5 v=0
172791 On ch=1 n=f#3 v=68
172791 On ch=1 n=a#6 v=88
172791 On ch=1 n=c#6 v=86
172791 On ch=1 n=c#7 v=73
172909 On ch=1 n=c#7 v=0
172909 On ch=1 n=c#6 v=0
172909 On ch=1 n=a#6 v=0
173029 On ch=1 n=f#3 v=0
173031 On ch=1 n=c#5 v=80
173031 On ch=1 n=c#4 v=84
173031 On ch=1 n=a6 v=96
173031 On ch=1 n=c7 v=82
173031 On ch=1 n=c6 v=81
173149 On ch=1 n=c6 v=0
173149 On ch=1 n=c7 v=0
173149 On ch=1 n=a6 v=0
173149 On ch=1 n=c#4 v=0
173149 On ch=1 n=c#5 v=0
173271 On ch=1 n=f#4 v=83
173271 On ch=1 n=c#5 v=65
173271 On ch=1 n=c#6 v=86
173271 On ch=1 n=a#6 v=86
173271 On ch=1 n=c#7 v=78
173389 On ch=1 n=c#7 v=0
173389 On ch=1 n=a#6 v=0
173389 On ch=1 n=c#6 v=0
173389 On ch=1 n=c#5 v=0
173389 On ch=1 n=f#4 v=0
173511 On ch=1 n=e4 v=82
173511 On ch=1 n=e3 v=75
173511 On ch=1 n=g#6 v=96
173511 On ch=1 n=d7 v=88
173511 On ch=1 n=d6 v=89
173629 On ch=1 n=d6 v=0
173629 On ch=1 n=d7 v=0
173629 On ch=1 n=g#6 v=0
173629 On ch=1 n=e3 v=0
173629 On ch=1 n=e4 v=0
173751 On ch=1 n=d#3 v=76
173751 On ch=1 n=d#4 v=73
173751 On ch=1 n=d#6 v=80
173751 On ch=1 n=d#7 v=83
173751 On ch=1 n=g6 v=88
173809 Par ch=1 c=64 v=127
173989 On ch=1 n=g6 v=0
173989 On ch=1 n=d#7 v=0
173989 On ch=1 n=d#4 v=0
173989 On ch=1 n=d#3 v=0
173991 On ch=1 n=d#5 v=75
173991 On ch=1 n=d#4 v=84
174109 On ch=1 n=d#4 v=0
174109 On ch=1 n=d#5 v=0
174109 On ch=1 n=d#6 v=0
174111 On ch=1 n=d#6 v=78
174111 On ch=1 n=g6 v=87
174111 On ch=1 n=d#7 v=84
174229 On ch=1 n=d#7 v=0
174229 On ch=1 n=g6 v=0
174229 On ch=1 n=d#6 v=0
174231 On ch=1 n=d#6 v=84
174231 On ch=1 n=g6 v=82
174231 On ch=1 n=d#7 v=87
174231 On ch=1 n=d#5 v=67
174231 On ch=1 n=a#4 v=83
174349 On ch=1 n=a#4 v=0
174349 On ch=1 n=d#5 v=0
174349 On ch=1 n=d#7 v=0
174349 On ch=1 n=g6 v=0
174349 On ch=1 n=d#6 v=0
174471 On ch=1 n=d#6 v=84
174471 On ch=1 n=d#7 v=84
174471 On ch=1 n=g6 v=81
174471 On ch=1 n=g4 v=84
174471 On ch=1 n=d#5 v=73
174589 On ch=1 n=d#5 v=0
174589 On ch=1 n=g4 v=0
174589 On ch=1 n=g6 v=0
174589 On ch=1 n=d#7 v=0
174589 On ch=1 n=d#6 v=0
174711 On ch=1 n=d#4 v=73
174711 On ch=1 n=d#3 v=76
174711 On ch=1 n=d#6 v=80
174711 On ch=1 n=d#7 v=86
174711 On ch=1 n=g6 v=84
174829 On ch=1 n=g6 v=0
174829 On ch=1 n=d#7 v=0
174829 On ch=1 n=d#6 v=0
174949 On ch=1 n=d#3 v=0
174949 On ch=1 n=d#4 v=0
174951 On ch=1 n=d#5 v=78
174951 On ch=1 n=d#4 v=81
174951 On ch=1 n=c#6 v=84
174951 On ch=1 n=e6 v=78
174951 On ch=1 n=c#7 v=88
175069 On ch=1 n=c#7 v=0
175069 On ch=1 n=e6 v=0
175069 On ch=1 n=c#6 v=0
175069 On ch=1 n=d#4 v=0
175069 On ch=1 n=d#5 v=0
175191 On ch=1 n=a#4 v=84
175191 On ch=1 n=d#5 v=73
175191 On ch=1 n=b5 v=87
175191 On ch=1 n=b6 v=84
175191 On ch=1 n=d#6 v=75
175254 Par ch=1 c=64 v=0
175309 On ch=1 n=d#6 v=0
175309 On ch=1 n=b6 v=0
175309 On ch=1 n=b5 v=0
175309 On ch=1 n=d#5 v=0
175309 On ch=1 n=a#4 v=0
175431 On ch=1 n=g4 v=83
175431 On ch=1 n=d#5 v=52
175431 On ch=1 n=a#5 v=77
175431 On ch=1 n=a#6 v=84
175431 On ch=1 n=c#6 v=67
175549 On ch=1 n=c#6 v=0
175549 On ch=1 n=a#6 v=0
175549 On ch=1 n=a#5 v=0
175549 On ch=1 n=d#5 v=0
175549 On ch=1 n=g4 v=0
175671 On ch=1 n=g#3 v=84
175671 On ch=1 n=g#6 v=86
175671 On ch=1 n=b5 v=77
175671 On ch=1 n=g#5 v=77
175804 On ch=1 n=g#5 v=0
175804 On ch=1 n=b5 v=0
175804 On ch=1 n=g#6 v=0
175804 On ch=1 n=g#3 v=0
175911 On ch=1 n=d#5 v=75
175911 On ch=1 n=g#4 v=75
175911 On ch=1 n=a#6 v=86
175911 On ch=1 n=c#6 v=63
175911 On ch=1 n=a#5 v=76
176044 On ch=1 n=a#5 v=0
176044 On ch=1 n=c#6 v=0
176044 On ch=1 n=a#6 v=0
176044 On ch=1 n=g#4 v=0
176044 On ch=1 n=d#5 v=0
176151 On ch=1 n=d#4 v=80
176151 On ch=1 n=b6 v=88
176151 On ch=1 n=d#6 v=71
176151 On ch=1 n=b5 v=86
176284 On ch=1 n=b5 v=0
176284 On ch=1 n=d#6 v=0
176284 On ch=1 n=b6 v=0
176284 On ch=1 n=d#4 v=0
176391 On ch=1 n=d#5 v=72
176391 On ch=1 n=g4 v=73
176391 On ch=1 n=a#6 v=84
176391 On ch=1 n=a#5 v=77
176391 On ch=1 n=c#6 v=65
176524 On ch=1 n=c#6 v=0
176524 On ch=1 n=a#5 v=0
176524 On ch=1 n=a#6 v=0
176524 On ch=1 n=g4 v=0
176524 On ch=1 n=d#5 v=0
176631 On ch=1 n=g#3 v=88
176631 On ch=1 n=b5 v=78
176631 On ch=1 n=g#6 v=84
176631 On ch=1 n=g#5 v=73
176689 Par ch=1 c=64 v=127
176869 On ch=1 n=g#5 v=0
176869 On ch=1 n=g#6 v=0
176869 On ch=1 n=b5 v=0
176871 On ch=1 n=g#4 v=83
176949 On ch=1 n=g#4 v=0
176951 On ch=1 n=d#5 v=80
177029 On ch=1 n=d#5 v=0
177031 On ch=1 n=g#5 v=87
177109 On ch=1 n=g#5 v=0
177111 On ch=1 n=b5 v=84
177229 On ch=1 n=b5 v=0
177229 On ch=1 n=g#3 v=0
177231 On ch=1 n=d#6 v=77
177349 On ch=1 n=d#6 v=0
177351 On ch=1 n=g#6 v=77
177469 On ch=1 n=g#6 v=0
177471 On ch=1 n=d#7 v=88
177589 On ch=1 n=d#7 v=0
177591 On ch=1 n=c#3 v=87
177591 On ch=1 n=c#4 v=77
177591 On ch=1 n=f7 v=93
177591 On ch=1 n=g#6 v=76
177591 On ch=1 n=g#7 v=75
177724 On ch=1 n=g#7 v=0
177724 On ch=1 n=g#6 v=0
177724 On ch=1 n=f7 v=0
177829 On ch=1 n=c#4 v=0
177829 On ch=1 n=c#3 v=0
177831 On ch=1 n=f4 v=70
177831 On ch=1 n=c#5 v=65
177831 On ch=1 n=f5 v=66
177951 On ch=1 n=g#6 v=83
177951 On ch=1 n=f7 v=102
177951 On ch=1 n=g#7 v=75
177961 On ch=1 n=f5 v=0
177961 On ch=1 n=c#5 v=0
177961 On ch=1 n=f4 v=0
178013 On ch=1 n=g#7 v=0
178013 On ch=1 n=f7 v=0
178013 On ch=1 n=g#6 v=0
178068 On ch=1 n=g#4 v=77
178068 On ch=1 n=f5 v=72
178068 On ch=1 n=c#5 v=65
178068 On ch=1 n=g#6 v=81
178068 On ch=1 n=f7 v=87
178068 On ch=1 n=g#7 v=72
178131 Par ch=1 c=64 v=0
178201 On ch=1 n=g#7 v=0
178201 On ch=1 n=f7 v=0
178201 On ch=1 n=g#6 v=0
178201 On ch=1 n=c#5 v=0
178201 On ch=1 n=f5 v=0
178201 On ch=1 n=g#4 v=0
178308 On ch=1 n=c#5 v=65
178308 On ch=1 n=f4 v=77
178308 On ch=1 n=f5 v=75
178308 On ch=1 n=f7 v=93
178308 On ch=1 n=g#6 v=81
178308 On ch=1 n=g#7 v=70
178441 On ch=1 n=g#7 v=0
178441 On ch=1 n=g#6 v=0
178441 On ch=1 n=f7 v=0
178441 On ch=1 n=f5 v=0
178441 On ch=1 n=f4 v=0
178441 On ch=1 n=c#5 v=0
178548 On ch=1 n=c#4 v=77
178548 On ch=1 n=c#3 v=73
178548 On ch=1 n=g#6 v=67
178548 On ch=1 n=f7 v=86
178548 On ch=1 n=g#7 v=66
178681 On ch=1 n=g#7 v=0
178681 On ch=1 n=f7 v=0
178681 On ch=1 n=g#6 v=0
178786 On ch=1 n=c#3 v=0
178786 On ch=1 n=c#4 v=0
178788 On ch=1 n=c#5 v=63
178788 On ch=1 n=f4 v=77
178788 On ch=1 n=f5 v=73
178788 On ch=1 n=f#6 v=87
178788 On ch=1 n=f#7 v=75
178788 On ch=1 n=d#7 v=82
178921 On ch=1 n=d#7 v=0
178921 On ch=1 n=f#7 v=0
178921 On ch=1 n=f#6 v=0
178921 On ch=1 n=f5 v=0
178921 On ch=1 n=f4 v=0
178921 On ch=1 n=c#5 v=0
179028 On ch=1 n=c#5 v=60
179028 On ch=1 n=f5 v=61
179028 On ch=1 n=g#4 v=73
179028 On ch=1 n=f6 v=84
179028 On ch=1 n=c#7 v=77
179028 On ch=1 n=f7 v=80
179161 On ch=1 n=f7 v=0
179161 On ch=1 n=c#7 v=0
179161 On ch=1 n=f6 v=0
179161 On ch=1 n=g#4 v=0
179161 On ch=1 n=f5 v=0
179161 On ch=1 n=c#5 v=0
179268 On ch=1 n=f4 v=76
179268 On ch=1 n=f5 v=66
179268 On ch=1 n=c#5 v=71
179268 On ch=1 n=d#6 v=78
179268 On ch=1 n=d#7 v=80
179268 On ch=1 n=b6 v=83
179401 On ch=1 n=b6 v=0
179401 On ch=1 n=d#7 v=0
179401 On ch=1 n=d#6 v=0
179401 On ch=1 n=c#5 v=0
179401 On ch=1 n=f5 v=0
179401 On ch=1 n=f4 v=0
179508 On ch=1 n=f#4 v=75
179508 On ch=1 n=f#3 v=82
179508 On ch=1 n=c#7 v=82
179508 On ch=1 n=a#6 v=78
179508 On ch=1 n=c#6 v=76
179641 On ch=1 n=c#6 v=0
179641 On ch=1 n=a#6 v=0
179641 On ch=1 n=c#7 v=0
179746 On ch=1 n=f#3 v=0
179746 On ch=1 n=f#4 v=0
179748 On ch=1 n=a#4 v=77
179748 On ch=1 n=a#5 v=76
179748 On ch=1 n=f#5 v=68
179748 On ch=1 n=c6 v=66
179748 On ch=1 n=a6 v=81
179748 On ch=1 n=c7 v=82
179881 On ch=1 n=c7 v=0
179881 On ch=1 n=a6 v=0
179881 On ch=1 n=c6 v=0
179881 On ch=1 n=f#5 v=0
179881 On ch=1 n=a#4 v=0
179986 On ch=1 n=a#5 v=0
179988 On ch=1 n=c#5 v=72
179988 On ch=1 n=a#5 v=75
179988 On ch=1 n=f#5 v=68
179988 On ch=1 n=c#6 v=83
179988 On ch=1 n=a#6 v=75
179988 On ch=1 n=c#7 v=82
180121 On ch=1 n=c#7 v=0
180121 On ch=1 n=a#6 v=0
180121 On ch=1 n=c#6 v=0
180121 On ch=1 n=f#5 v=0
180121 On ch=1 n=a#5 v=0
180121 On ch=1 n=c#5 v=0
180228 On ch=1 n=a#5 v=78
180228 On ch=1 n=a#4 v=80
180228 On ch=1 n=f#5 v=73
180228 On ch=1 n=d6 v=72
180228 On ch=1 n=d7 v=83
180228 On ch=1 n=b6 v=83
180361 On ch=1 n=b6 v=0
180361 On ch=1 n=d7 v=0
180361 On ch=1 n=d6 v=0
180361 On ch=1 n=f#5 v=0
180361 On ch=1 n=a#4 v=0
180361 On ch=1 n=a#5 v=0
180468 On ch=1 n=b4 v=84
180468 On ch=1 n=b3 v=83
180468 On ch=1 n=d#6 v=82
180468 On ch=1 n=b6 v=84
180468 On ch=1 n=d#7 v=86
180601 On ch=1 n=d#7 v=0
180601 On ch=1 n=b6 v=0
180601 On ch=1 n=d#6 v=0
180601 On ch=1 n=b3 v=0
180601 On ch=1 n=b4 v=0
180708 On ch=1 n=b4 v=71
180708 On ch=1 n=b5 v=82
180708 On ch=1 n=f#5 v=73
180708 On ch=1 n=f6 v=72
180708 On ch=1 n=c#7 v=78
180708 On ch=1 n=f7 v=84
180841 On ch=1 n=f7 v=0
180841 On ch=1 n=c#7 v=0
180841 On ch=1 n=f6 v=0
180841 On ch=1 n=f#5 v=0
180841 On ch=1 n=b5 v=0
180841 On ch=1 n=b4 v=0
180948 On ch=1 n=b5 v=87
180948 On ch=1 n=d#5 v=68
180948 On ch=1 n=f#5 v=67
180948 On ch=1 n=f#6 v=84
180948 On ch=1 n=f#7 v=84
180948 On ch=1 n=d#7 v=82
181081 On ch=1 n=d#7 v=0
181081 On ch=1 n=f#7 v=0
181081 On ch=1 n=f#6 v=0
181081 On ch=1 n=f#5 v=0
181081 On ch=1 n=d#5 v=0
181081 On ch=1 n=b5 v=0
181188 On ch=1 n=b5 v=88
181188 On ch=1 n=f#5 v=71
181188 On ch=1 n=b4 v=67
181188 On ch=1 n=g#7 v=88
181188 On ch=1 n=f7 v=87
181188 On ch=1 n=g#6 v=83
181321 On ch=1 n=g#6 v=0
181321 On ch=1 n=f7 v=0
181321 On ch=1 n=g#7 v=0
181321 On ch=1 n=b4 v=0
181321 On ch=1 n=f#5 v=0
181321 On ch=1 n=b5 v=0
181428 On ch=1 n=c#5 v=78
181428 On ch=1 n=c#4 v=82
181428 On ch=1 n=a#7 v=86
181428 On ch=1 n=f#7 v=84
181428 On ch=1 n=a#6 v=84
181561 On ch=1 n=a#6 v=0
181561 On ch=1 n=f#7 v=0
181561 On ch=1 n=a#7 v=0
181561 On ch=1 n=c#5 v=0
181666 On ch=1 n=c#4 v=0
181668 On ch=1 n=a#4 v=77
181668 On ch=1 n=a#5 v=82
181668 On ch=1 n=f#5 v=76
181668 On ch=1 n=g#7 v=86
181668 On ch=1 n=b7 v=88
181668 On ch=1 n=b6 v=83
181801 On ch=1 n=b6 v=0
181801 On ch=1 n=b7 v=0
181801 On ch=1 n=g#7 v=0
181801 On ch=1 n=f#5 v=0
181801 On ch=1 n=a#5 v=0
181801 On ch=1 n=a#4 v=0
181908 On ch=1 n=f#5 v=76
181908 On ch=1 n=a#5 v=75
181908 On ch=1 n=c#5 v=72
181908 On ch=1 n=a7 v=83
181908 On ch=1 n=c8 v=86
181908 On ch=1 n=c7 v=84
182041 On ch=1 n=c7 v=0
182041 On ch=1 n=c8 v=0
182041 On ch=1 n=a7 v=0
182041 On ch=1 n=c#5 v=0
182041 On ch=1 n=a#5 v=0
182041 On ch=1 n=f#5 v=0
182148 On ch=1 n=a#4 v=71
182148 On ch=1 n=f#5 v=75
182148 On ch=1 n=a#5 v=76
182148 On ch=1 n=c#7 v=86
182148 On ch=1 n=c#8 v=96
182148 On ch=1 n=a#7 v=81
182281 On ch=1 n=a#7 v=0
182281 On ch=1 n=c#8 v=0
182281 On ch=1 n=c#7 v=0
182281 On ch=1 n=a#5 v=0
182281 On ch=1 n=f#5 v=0
182281 On ch=1 n=a#4 v=0
182388 On ch=1 n=c#4 v=82
182388 On ch=1 n=c#3 v=86
182388 On ch=1 n=a#7 v=86
182388 On ch=1 n=d8 v=99
182388 On ch=1 n=d7 v=86
182521 On ch=1 n=d7 v=0
182521 On ch=1 n=d8 v=0
182521 On ch=1 n=a#7 v=0
182626 On ch=1 n=c#3 v=0
182626 On ch=1 n=c#4 v=0
182628 On ch=1 n=g#5 v=82
182628 On ch=1 n=f5 v=76
182628 On ch=1 n=g#4 v=80
182628 On ch=1 n=d#7 v=77
182628 On ch=1 n=b7 v=86
182628 On ch=1 n=d#8 v=83
182761 On ch=1 n=d#8 v=0
182761 On ch=1 n=b7 v=0
182761 On ch=1 n=d#7 v=0
182761 On ch=1 n=g#4 v=0
182761 On ch=1 n=f5 v=0
182761 On ch=1 n=g#5 v=0
182868 On ch=1 n=g#5 v=76
182868 On ch=1 n=f5 v=75
182868 On ch=1 n=b4 v=81
182868 On ch=1 n=e7 v=82
182868 On ch=1 n=e8 v=84
182868 On ch=1 n=g#7 v=76
183001 On ch=1 n=g#7 v=0
183001 On ch=1 n=e8 v=0
183001 On ch=1 n=e7 v=0
183001 On ch=1 n=b4 v=0
183001 On ch=1 n=f5 v=0
183001 On ch=1 n=g#5 v=0
183108 On ch=1 n=f5 v=73
183108 On ch=1 n=g#5 v=80
183108 On ch=1 n=g#4 v=75
183108 On ch=1 n=g#7 v=86
183108 On ch=1 n=f7 v=88
183108 On ch=1 n=f8 v=102
183241 On ch=1 n=f8 v=0
183241 On ch=1 n=f7 v=0
183241 On ch=1 n=g#7 v=0
183241 On ch=1 n=g#4 v=0
183241 On ch=1 n=g#5 v=0
183241 On ch=1 n=f5 v=0
183348 On ch=1 n=f#4 v=80
183348 On ch=1 n=f#3 v=86
183348 On ch=1 n=f#7 v=78
183348 On ch=1 n=a#7 v=83
183348 On ch=1 n=f#8 v=89
183526 On ch=1 n=f#8 v=0
183526 On ch=1 n=a#7 v=0
183526 On ch=1 n=f#7 v=0
183526 On ch=1 n=f#3 v=0
183526 On ch=1 n=f#4 v=0
183588 On ch=1 n=a#4 v=76
183588 On ch=1 n=a#3 v=84
183588 On ch=1 n=c#7 v=72
183588 On ch=1 n=c#8 v=78
183766 On ch=1 n=c#8 v=0
183766 On ch=1 n=c#7 v=0
183766 On ch=1 n=a#3 v=0
183766 On ch=1 n=a#4 v=0
183828 On ch=1 n=c#5 v=82
183828 On ch=1 n=c#4 v=84
183828 On ch=1 n=f7 v=86
183828 On ch=1 n=g#7 v=88
183828 On ch=1 n=f8 v=91
184006 On ch=1 n=f8 v=0
184006 On ch=1 n=g#7 v=0
184006 On ch=1 n=f7 v=0
184006 On ch=1 n=c#4 v=0
184006 On ch=1 n=c#5 v=0
184068 On ch=1 n=f5 v=80
184068 On ch=1 n=f4 v=81
184068 On ch=1 n=c#7 v=76
184068 On ch=1 n=c#8 v=76
184246 On ch=1 n=c#8 v=0
184246 On ch=1 n=c#7 v=0
184246 On ch=1 n=f4 v=0
184246 On ch=1 n=f5 v=0
184308 On ch=1 n=f#5 v=75
184308 On ch=1 n=f#4 v=78
184308 On ch=1 n=a#7 v=83
184308 On ch=1 n=f#8 v=87
184308 On ch=1 n=f#7 v=82
184441 On ch=1 n=f#8 v=0
184486 On ch=1 n=f#7 v=0
184486 On ch=1 n=a#7 v=0
184486 On ch=1 n=f#4 v=0
184486 On ch=1 n=f#5 v=0
184548 On ch=1 n=a#5 v=78
184548 On ch=1 n=a#4 v=68
184548 On ch=1 n=c#7 v=76
184548 On ch=1 n=c#8 v=72
184726 On ch=1 n=c#8 v=0
184726 On ch=1 n=c#7 v=0
184726 On ch=1 n=a#4 v=0
184726 On ch=1 n=a#5 v=0
184788 On ch=1 n=c#6 v=84
184788 On ch=1 n=c#5 v=83
184788 On ch=1 n=f#8 v=87
184788 On ch=1 n=a#7 v=84
184788 On ch=1 n=f#7 v=82
184921 On ch=1 n=f#8 v=0
184966 On ch=1 n=f#7 v=0
184966 On ch=1 n=a#7 v=0
184966 On ch=1 n=c#5 v=0
184966 On ch=1 n=c#6 v=0
185148 On ch=1 n=c#5 v=88
185148 On ch=1 n=c#6 v=92
185236 On ch=1 n=c#6 v=0
185236 On ch=1 n=c#5 v=0
185268 On ch=1 n=f#3 v=93
185268 On ch=1 n=f#2 v=93
185268 On ch=1 n=a#5 v=93
185268 On ch=1 n=c#6 v=80
185268 On ch=1 n=c#5 v=86
185401 On ch=1 n=c#5 v=0
185401 On ch=1 n=c#6 v=0
185401 On ch=1 n=a#5 v=0
185506 On ch=1 n=f#2 v=0
185506 On ch=1 n=f#3 v=0
185508 On ch=1 n=c#3 v=88
185508 On ch=1 n=c#4 v=82
185628 On ch=1 n=c#6 v=91
185628 On ch=1 n=a#5 v=93
185628 On ch=1 n=c#5 v=91
185693 On ch=1 n=c#5 v=0
185693 On ch=1 n=a#5 v=0
185693 On ch=1 n=c#6 v=0
185746 On ch=1 n=c#4 v=0
185746 On ch=1 n=c#3 v=0
185748 On ch=1 n=f#4 v=93
185748 On ch=1 n=f#3 v=88
185748 On ch=1 n=a#5 v=91
185748 On ch=1 n=c#5 v=91
185748 On ch=1 n=c#6 v=89
185881 On ch=1 n=c#6 v=0
185881 On ch=1 n=c#5 v=0
185881 On ch=1 n=a#5 v=0
185986 On ch=1 n=f#3 v=0
185986 On ch=1 n=f#4 v=0
185988 On ch=1 n=c#4 v=87
185988 On ch=1 n=c#5 v=85
185988 On ch=1 n=c#3 v=88
185988 On ch=1 n=a#5 v=86
185988 On ch=1 n=c#6 v=92
186121 On ch=1 n=c#6 v=0
186121 On ch=1 n=a#5 v=0
186121 On ch=1 n=c#4 v=0
186226 On ch=1 n=c#3 v=0
186226 On ch=1 n=c#5 v=0
186228 On ch=1 n=f#2 v=93
186228 On ch=1 n=f#3 v=93
186228 On ch=1 n=c#6 v=89
186228 On ch=1 n=a#5 v=81
186228 On ch=1 n=c#5 v=87
186361 On ch=1 n=c#5 v=0
186361 On ch=1 n=a#5 v=0
186361 On ch=1 n=c#6 v=0
186466 On ch=1 n=f#3 v=0
186466 On ch=1 n=f#2 v=0
186468 On ch=1 n=c#4 v=82
186468 On ch=1 n=c#3 v=88
186468 On ch=1 n=b4 v=88
186468 On ch=1 n=b5 v=89
186468 On ch=1 n=g#5 v=86
186601 On ch=1 n=g#5 v=0
186601 On ch=1 n=b5 v=0
186601 On ch=1 n=b4 v=0
186706 On ch=1 n=c#3 v=0
186706 On ch=1 n=c#4 v=0
186708 On ch=1 n=f#3 v=88
186708 On ch=1 n=f#4 v=93
186708 On ch=1 n=a#4 v=85
186708 On ch=1 n=a#5 v=91
186708 On ch=1 n=f#5 v=87
186841 On ch=1 n=f#5 v=0
186841 On ch=1 n=a#5 v=0
186841 On ch=1 n=a#4 v=0
186946 On ch=1 n=f#4 v=0
186946 On ch=1 n=f#3 v=0
186948 On ch=1 n=c#3 v=88
186948 On ch=1 n=c#4 v=87
186948 On ch=1 n=b4 v=82
186948 On ch=1 n=g#5 v=82
186948 On ch=1 n=b5 v=80
187081 On ch=1 n=b5 v=0
187081 On ch=1 n=g#5 v=0
187081 On ch=1 n=b4 v=0
187081 On ch=1 n=c#4 v=0
187186 On ch=1 n=c#3 v=0
187188 On ch=1 n=f#2 v=88
187188 On ch=1 n=f#3 v=88
187188 On ch=1 n=c#6 v=84
187188 On ch=1 n=a#5 v=88
187188 On ch=1 n=c#5 v=81
187321 On ch=1 n=c#5 v=0
187321 On ch=1 n=a#5 v=0
187321 On ch=1 n=c#6 v=0
187426 On ch=1 n=f#3 v=0
187426 On ch=1 n=f#2 v=0
187428 On ch=1 n=c#4 v=77
187428 On ch=1 n=c#3 v=83
187548 On ch=1 n=a#5 v=86
187548 On ch=1 n=c#6 v=83
187548 On ch=1 n=c#5 v=86
187613 On ch=1 n=c#5 v=0
187613 On ch=1 n=c#6 v=0
187613 On ch=1 n=a#5 v=0
187666 On ch=1 n=c#3 v=0
187666 On ch=1 n=c#4 v=0
187668 On ch=1 n=f#3 v=83
187668 On ch=1 n=f#4 v=88
187668 On ch=1 n=a#5 v=83
187668 On ch=1 n=c#5 v=83
187668 On ch=1 n=c#6 v=83
187801 On ch=1 n=c#6 v=0
187801 On ch=1 n=c#5 v=0
187801 On ch=1 n=a#5 v=0
187906 On ch=1 n=f#4 v=0
187906 On ch=1 n=f#3 v=0
187908 On ch=1 n=c#3 v=83
187908 On ch=1 n=c#4 v=82
187908 On ch=1 n=a#5 v=87
187908 On ch=1 n=c#6 v=84
187908 On ch=1 n=c#5 v=83
188041 On ch=1 n=c#5 v=0
188041 On ch=1 n=c#6 v=0
188041 On ch=1 n=a#5 v=0
188041 On ch=1 n=c#4 v=0
188146 On ch=1 n=c#3 v=0
188148 On ch=1 n=f#2 v=88
188148 On ch=1 n=f#3 v=88
188148 On ch=1 n=c#5 v=78
188148 On ch=1 n=a#5 v=81
188148 On ch=1 n=c#6 v=91
188281 On ch=1 n=c#6 v=0
188281 On ch=1 n=a#5 v=0
188281 On ch=1 n=c#5 v=0
188386 On ch=1 n=f#3 v=0
188386 On ch=1 n=f#2 v=0
188388 On ch=1 n=c#4 v=77
188388 On ch=1 n=c#3 v=83
188388 On ch=1 n=c5 v=75
188388 On ch=1 n=a5 v=81
188388 On ch=1 n=c6 v=86
188521 On ch=1 n=c6 v=0
188521 On ch=1 n=a5 v=0
188521 On ch=1 n=c5 v=0
188626 On ch=1 n=c#3 v=0
188626 On ch=1 n=c#4 v=0
188628 On ch=1 n=f#3 v=83
188628 On ch=1 n=f#4 v=88
188628 On ch=1 n=c#5 v=73
188628 On ch=1 n=a#5 v=78
188628 On ch=1 n=c#6 v=73
188761 On ch=1 n=c#6 v=0
188761 On ch=1 n=a#5 v=0
188761 On ch=1 n=c#5 v=0
188866 On ch=1 n=f#4 v=0
188866 On ch=1 n=f#3 v=0
188868 On ch=1 n=e3 v=83
188868 On ch=1 n=e4 v=82
188868 On ch=1 n=g#5 v=82
188868 On ch=1 n=d6 v=91
188868 On ch=1 n=d5 v=86
189001 On ch=1 n=d5 v=0
189001 On ch=1 n=d6 v=0
189001 On ch=1 n=g#5 v=0
189001 On ch=1 n=e4 v=0
189106 On ch=1 n=e3 v=0
189108 On ch=1 n=d#4 v=72
189108 On ch=1 n=d#3 v=88
189108 On ch=1 n=d#5 v=86
189108 On ch=1 n=g5 v=84
189108 On ch=1 n=d#6 v=88
189241 On ch=1 n=d#6 v=0
189241 On ch=1 n=g5 v=0
189241 On ch=1 n=d#5 v=0
189346 On ch=1 n=d#3 v=0
189346 On ch=1 n=d#4 v=0
189348 On ch=1 n=a#4 v=72
189348 On ch=1 n=a#3 v=83
189468 On ch=1 n=d#6 v=80
189468 On ch=1 n=d#7 v=87
189468 On ch=1 n=g6 v=87
189533 On ch=1 n=g6 v=0
189533 On ch=1 n=d#7 v=0
189533 On ch=1 n=d#6 v=0
189586 On ch=1 n=a#3 v=0
189586 On ch=1 n=a#4 v=0
189588 On ch=1 n=d#5 v=76
189588 On ch=1 n=d#4 v=86
189588 On ch=1 n=d#7 v=84
189588 On ch=1 n=d#6 v=78
189588 On ch=1 n=g6 v=80
189721 On ch=1 n=g6 v=0
189721 On ch=1 n=d#6 v=0
189721 On ch=1 n=d#7 v=0
189826 On ch=1 n=d#4 v=0
189826 On ch=1 n=d#5 v=0
189828 On ch=1 n=a#3 v=84
189828 On ch=1 n=a#4 v=25
189828 On ch=1 n=d#7 v=80
189828 On ch=1 n=g6 v=63
189828 On ch=1 n=d#6 v=76
189961 On ch=1 n=d#6 v=0
189961 On ch=1 n=g6 v=0
189961 On ch=1 n=d#7 v=0
190066 On ch=1 n=a#4 v=0
190066 On ch=1 n=a#3 v=0
190068 On ch=1 n=d#4 v=71
190068 On ch=1 n=d#3 v=93
190068 On ch=1 n=d#6 v=78
190068 On ch=1 n=d#7 v=87
190068 On ch=1 n=g6 v=80
190201 On ch=1 n=g6 v=0
190201 On ch=1 n=d#7 v=0
190201 On ch=1 n=d#6 v=0
190306 On ch=1 n=d#3 v=0
190306 On ch=1 n=d#4 v=0
190308 On ch=1 n=a#3 v=89
190308 On ch=1 n=a#4 v=76
190308 On ch=1 n=c#6 v=81
190308 On ch=1 n=c#7 v=86
190308 On ch=1 n=e6 v=82
190441 On ch=1 n=e6 v=0
190441 On ch=1 n=c#7 v=0
190441 On ch=1 n=c#6 v=0
190546 On ch=1 n=a#4 v=0
190546 On ch=1 n=a#3 v=0
190548 On ch=1 n=d#4 v=82
190548 On ch=1 n=d#5 v=76
190548 On ch=1 n=b6 v=86
190548 On ch=1 n=b5 v=83
190548 On ch=1 n=d#6 v=67
190681 On ch=1 n=d#6 v=0
190681 On ch=1 n=b5 v=0
190681 On ch=1 n=b6 v=0
190786 On ch=1 n=d#5 v=0
190786 On ch=1 n=d#4 v=0
190788 On ch=1 n=g4 v=81
190788 On ch=1 n=d#5 v=58
190788 On ch=1 n=a#5 v=71
190788 On ch=1 n=a#6 v=84
190788 On ch=1 n=c#6 v=77
190921 On ch=1 n=c#6 v=0
190921 On ch=1 n=a#6 v=0
190921 On ch=1 n=a#5 v=0
191026 On ch=1 n=d#5 v=0
191026 On ch=1 n=g4 v=0
191028 On ch=1 n=g#3 v=87
191028 On ch=1 n=g#5 v=77
191028 On ch=1 n=g#6 v=88
191028 On ch=1 n=b5 v=75
191161 On ch=1 n=b5 v=0
191161 On ch=1 n=g#6 v=0
191161 On ch=1 n=g#5 v=0
191266 On ch=1 n=g#3 v=0
191268 On ch=1 n=d#5 v=76
191268 On ch=1 n=g#4 v=68
191268 On ch=1 n=a#6 v=88
191268 On ch=1 n=c#6 v=77
191268 On ch=1 n=a#5 v=66
191401 On ch=1 n=a#5 v=0
191401 On ch=1 n=c#6 v=0
191401 On ch=1 n=a#6 v=0
191506 On ch=1 n=g#4 v=0
191506 On ch=1 n=d#5 v=0
191508 On ch=1 n=d#4 v=77
191508 On ch=1 n=b6 v=86
191508 On ch=1 n=b5 v=76
191508 On ch=1 n=d#6 v=77
191641 On ch=1 n=d#6 v=0
191641 On ch=1 n=b5 v=0
191641 On ch=1 n=b6 v=0
191746 On ch=1 n=d#4 v=0
191748 On ch=1 n=g4 v=77
191748 On ch=1 n=d#5 v=67
191748 On ch=1 n=a#5 v=76
191748 On ch=1 n=a#6 v=84
191748 On ch=1 n=c#6 v=72
191881 On ch=1 n=c#6 v=0
191881 On ch=1 n=a#6 v=0
191881 On ch=1 n=a#5 v=0
191986 On ch=1 n=d#5 v=0
191986 On ch=1 n=g4 v=0
191988 On ch=1 n=g#3 v=84
191988 On ch=1 n=g#6 v=87
191988 On ch=1 n=b5 v=78
191988 On ch=1 n=g#5 v=76
192056 Par ch=1 c=64 v=127
192121 On ch=1 n=g#5 v=0
192121 On ch=1 n=b5 v=0
192121 On ch=1 n=g#6 v=0
192228 On ch=1 n=g#4 v=84
192306 On ch=1 n=g#4 v=0
192308 On ch=1 n=d#5 v=72
192386 On ch=1 n=d#5 v=0
192388 On ch=1 n=g#5 v=84
192466 On ch=1 n=g#5 v=0
192468 On ch=1 n=b5 v=84
192586 On ch=1 n=b5 v=0
192588 On ch=1 n=d#6 v=81
192706 On ch=1 n=d#6 v=0
192708 On ch=1 n=g#6 v=83
192826 On ch=1 n=g#6 v=0
192828 On ch=1 n=d#7 v=107
192946 On ch=1 n=d#7 v=0
192946 On ch=1 n=g#3 v=0
192948 On ch=1 n=c#4 v=80
192948 On ch=1 n=c#3 v=86
192948 On ch=1 n=g#7 v=83
192948 On ch=1 n=g#6 v=83
192948 On ch=1 n=f7 v=89
193186 On ch=1 n=c#3 v=0
193186 On ch=1 n=c#4 v=0
193188 On ch=1 n=g#4 v=78
193188 On ch=1 n=g#3 v=91
193306 On ch=1 n=f7 v=0
193306 On ch=1 n=g#6 v=0
193306 On ch=1 n=g#7 v=0
193308 On ch=1 n=g#7 v=76
193308 On ch=1 n=g#6 v=77
193308 On ch=1 n=f7 v=84
193426 On ch=1 n=f7 v=0
193426 On ch=1 n=g#6 v=0
193426 On ch=1 n=g#7 v=0
193426 On ch=1 n=g#3 v=0
193426 On ch=1 n=g#4 v=0
193428 On ch=1 n=c#5 v=76
193428 On ch=1 n=c#4 v=83
193428 On ch=1 n=g#6 v=73
193428 On ch=1 n=g#7 v=66
193428 On ch=1 n=f7 v=87
193666 On ch=1 n=f7 v=0
193666 On ch=1 n=g#7 v=0
193666 On ch=1 n=g#6 v=0
193666 On ch=1 n=c#4 v=0
193666 On ch=1 n=c#5 v=0
193668 On ch=1 n=f5 v=82
193668 On ch=1 n=f4 v=88
193668 On ch=1 n=g#6 v=87
193668 On ch=1 n=g#7 v=87
193668 On ch=1 n=f7 v=91
193906 On ch=1 n=f7 v=0
193906 On ch=1 n=g#7 v=0
193906 On ch=1 n=g#6 v=0
193906 On ch=1 n=f4 v=0
193906 On ch=1 n=f5 v=0
193908 On ch=1 n=c#4 v=76
193908 On ch=1 n=c#3 v=83
193908 On ch=1 n=g#6 v=66
193908 On ch=1 n=g#7 v=67
193908 On ch=1 n=f7 v=82
194146 On ch=1 n=f7 v=0
194146 On ch=1 n=g#7 v=0
194146 On ch=1 n=g#6 v=0
194146 On ch=1 n=c#3 v=0
194146 On ch=1 n=c#4 v=0
194148 On ch=1 n=g#4 v=82
194148 On ch=1 n=g#3 v=86
194148 On ch=1 n=d#7 v=84
194148 On ch=1 n=f#6 v=78
194148 On ch=1 n=f#7 v=75
194386 On ch=1 n=f#7 v=0
194386 On ch=1 n=f#6 v=0
194386 On ch=1 n=d#7 v=0
194386 On ch=1 n=g#3 v=0
194386 On ch=1 n=g#4 v=0
194388 On ch=1 n=c#5 v=75
194388 On ch=1 n=c#4 v=83
194388 On ch=1 n=f6 v=68
194388 On ch=1 n=c#7 v=73
194388 On ch=1 n=f7 v=77
194626 On ch=1 n=f7 v=0
194626 On ch=1 n=c#7 v=0
194626 On ch=1 n=f6 v=0
194626 On ch=1 n=c#4 v=0
194626 On ch=1 n=c#5 v=0
194628 On ch=1 n=f5 v=84
194628 On ch=1 n=f4 v=87
194628 On ch=1 n=b6 v=87
194628 On ch=1 n=d#7 v=83
194628 On ch=1 n=d#6 v=82
194866 On ch=1 n=d#6 v=0
194866 On ch=1 n=d#7 v=0
194866 On ch=1 n=b6 v=0
194866 On ch=1 n=f4 v=0
194866 On ch=1 n=f5 v=0
194868 On ch=1 n=f#4 v=83
194868 On ch=1 n=f#3 v=84
194868 On ch=1 n=c#6 v=63
194868 On ch=1 n=a#6 v=60
194868 On ch=1 n=c#7 v=68
194926 Par ch=1 c=64 v=127
195106 On ch=1 n=c#7 v=0
195106 On ch=1 n=a#6 v=0
195106 On ch=1 n=c#6 v=0
195106 On ch=1 n=f#3 v=0
195106 On ch=1 n=f#4 v=0
195108 On ch=1 n=c#5 v=75
195108 On ch=1 n=c#4 v=86
195108 On ch=1 n=a6 v=75
195108 On ch=1 n=c6 v=68
195108 On ch=1 n=c7 v=75
195346 On ch=1 n=c7 v=0
195346 On ch=1 n=c6 v=0
195346 On ch=1 n=a6 v=0
195346 On ch=1 n=c#4 v=0
195346 On ch=1 n=c#5 v=0
195348 On ch=1 n=f#5 v=76
195348 On ch=1 n=f#4 v=75
195348 On ch=1 n=c#7 v=76
195348 On ch=1 n=c#6 v=67
195348 On ch=1 n=a#6 v=66
195586 On ch=1 n=a#6 v=0
195586 On ch=1 n=c#6 v=0
195586 On ch=1 n=c#7 v=0
195586 On ch=1 n=f#4 v=0
195586 On ch=1 n=f#5 v=0
195588 On ch=1 n=a#4 v=86
195588 On ch=1 n=a#5 v=89
195588 On ch=1 n=a#6 v=83
195588 On ch=1 n=d7 v=87
195588 On ch=1 n=d6 v=84
195826 On ch=1 n=d6 v=0
195826 On ch=1 n=d7 v=0
195826 On ch=1 n=a#6 v=0
195826 On ch=1 n=a#5 v=0
195826 On ch=1 n=a#4 v=0
195828 On ch=1 n=b3 v=77
195828 On ch=1 n=b4 v=77
195828 On ch=1 n=d#6 v=68
195828 On ch=1 n=b6 v=76
195828 On ch=1 n=d#7 v=78
196066 On ch=1 n=d#7 v=0
196066 On ch=1 n=b6 v=0
196066 On ch=1 n=d#6 v=0
196066 On ch=1 n=b4 v=0
196066 On ch=1 n=b3 v=0
196068 On ch=1 n=d#5 v=67
196068 On ch=1 n=d#4 v=78
196068 On ch=1 n=f6 v=72
196068 On ch=1 n=c#7 v=66
196068 On ch=1 n=f7 v=77
196306 On ch=1 n=f7 v=0
196306 On ch=1 n=c#7 v=0
196306 On ch=1 n=f6 v=0
196306 On ch=1 n=d#4 v=0
196306 On ch=1 n=d#5 v=0
196308 On ch=1 n=f#4 v=78
196308 On ch=1 n=f#5 v=78
196308 On ch=1 n=f#6 v=73
196308 On ch=1 n=f#7 v=81
196308 On ch=1 n=d#7 v=75
196371 Par ch=1 c=64 v=0
196546 On ch=1 n=d#7 v=0
196546 On ch=1 n=f#7 v=0
196546 On ch=1 n=f#6 v=0
196546 On ch=1 n=f#5 v=0
196546 On ch=1 n=f#4 v=0
196548 On ch=1 n=b5 v=87
196548 On ch=1 n=b4 v=87
196548 On ch=1 n=g#6 v=73
196548 On ch=1 n=g#7 v=76
196548 On ch=1 n=f7 v=81
196786 On ch=1 n=f7 v=0
196786 On ch=1 n=g#7 v=0
196786 On ch=1 n=g#6 v=0
196786 On ch=1 n=b4 v=0
196786 On ch=1 n=b5 v=0
196788 On ch=1 n=c#5 v=72
196788 On ch=1 n=c#4 v=73
196788 On ch=1 n=a#6 v=84
196788 On ch=1 n=f#7 v=84
196788 On ch=1 n=a#7 v=86
196921 On ch=1 n=a#7 v=0
196921 On ch=1 n=f#7 v=0
196921 On ch=1 n=a#6 v=0
197026 On ch=1 n=c#4 v=0
197026 On ch=1 n=c#5 v=0
197028 On ch=1 n=f#5 v=82
197028 On ch=1 n=f#4 v=72
197028 On ch=1 n=b6 v=83
197028 On ch=1 n=b7 v=88
197028 On ch=1 n=g#7 v=86
197161 On ch=1 n=g#7 v=0
197161 On ch=1 n=b7 v=0
197161 On ch=1 n=b6 v=0
197266 On ch=1 n=f#4 v=0
197266 On ch=1 n=f#5 v=0
197268 On ch=1 n=a#5 v=73
197268 On ch=1 n=a#4 v=72
197268 On ch=1 n=c7 v=84
197268 On ch=1 n=c8 v=86
197268 On ch=1 n=a7 v=83
197401 On ch=1 n=a7 v=0
197401 On ch=1 n=c8 v=0
197401 On ch=1 n=c7 v=0
197506 On ch=1 n=a#4 v=0
197506 On ch=1 n=a#5 v=0
197508 On ch=1 n=c#6 v=104
197508 On ch=1 n=c#5 v=88
197508 On ch=1 n=a#7 v=81
197508 On ch=1 n=c#8 v=96
197508 On ch=1 n=c#7 v=86
197641 On ch=1 n=c#7 v=0
197641 On ch=1 n=c#8 v=0
197641 On ch=1 n=a#7 v=0
197746 On ch=1 n=c#5 v=0
197746 On ch=1 n=c#6 v=0
197748 On ch=1 n=c#5 v=76
197748 On ch=1 n=c#4 v=78
197748 On ch=1 n=d7 v=86
197748 On ch=1 n=d8 v=99
197748 On ch=1 n=a#7 v=86
197881 On ch=1 n=a#7 v=0
197881 On ch=1 n=d8 v=0
197881 On ch=1 n=d7 v=0
197986 On ch=1 n=c#4 v=0
197986 On ch=1 n=c#5 v=0
197988 On ch=1 n=f5 v=82
197988 On ch=1 n=f4 v=78
197988 On ch=1 n=d#8 v=83
197988 On ch=1 n=b7 v=86
197988 On ch=1 n=d#7 v=77
198121 On ch=1 n=d#7 v=0
198121 On ch=1 n=b7 v=0
198121 On ch=1 n=d#8 v=0
198226 On ch=1 n=f4 v=0
198226 On ch=1 n=f5 v=0
198228 On ch=1 n=g#5 v=78
198228 On ch=1 n=g#4 v=75
198228 On ch=1 n=g#7 v=76
198228 On ch=1 n=e8 v=84
198228 On ch=1 n=e7 v=82
198361 On ch=1 n=e7 v=0
198361 On ch=1 n=e8 v=0
198361 On ch=1 n=g#7 v=0
198466 On ch=1 n=g#4 v=0
198466 On ch=1 n=g#5 v=0
198468 On ch=1 n=c#6 v=93
198468 On ch=1 n=c#5 v=83
198468 On ch=1 n=f8 v=102
198468 On ch=1 n=f7 v=88
198468 On ch=1 n=g#7 v=86
198601 On ch=1 n=g#7 v=0
198601 On ch=1 n=f7 v=0
198601 On ch=1 n=f8 v=0
198706 On ch=1 n=c#5 v=0
198706 On ch=1 n=c#6 v=0
198708 On ch=1 n=f#4 v=93
198708 On ch=1 n=f#3 v=104
198708 On ch=1 n=f#7 v=97
198708 On ch=1 n=a#7 v=92
198708 On ch=1 n=f#8 v=101
198946 On ch=1 n=f#8 v=0
198946 On ch=1 n=a#7 v=0
198946 On ch=1 n=f#7 v=0
198946 On ch=1 n=f#3 v=0
198946 On ch=1 n=f#4 v=0
198948 On ch=1 n=a#4 v=93
198948 On ch=1 n=a#3 v=102
198948 On ch=1 n=c#8 v=87
198948 On ch=1 n=c#7 v=83
199186 On ch=1 n=c#7 v=0
199186 On ch=1 n=c#8 v=0
199186 On ch=1 n=a#3 v=0
199186 On ch=1 n=a#4 v=0
199188 On ch=1 n=c#4 v=102
199188 On ch=1 n=c#5 v=92
199188 On ch=1 n=f7 v=96
199188 On ch=1 n=f8 v=102
199188 On ch=1 n=g#7 v=92
199426 On ch=1 n=g#7 v=0
199426 On ch=1 n=f8 v=0
199426 On ch=1 n=f7 v=0
199426 On ch=1 n=c#5 v=0
199426 On ch=1 n=c#4 v=0
199428 On ch=1 n=f4 v=97
199428 On ch=1 n=f5 v=102
199428 On ch=1 n=c#7 v=68
199428 On ch=1 n=c#8 v=92
199666 On ch=1 n=c#8 v=0
199666 On ch=1 n=c#7 v=0
199666 On ch=1 n=f5 v=0
199666 On ch=1 n=f4 v=0
199668 On ch=1 n=f#5 v=117
199668 On ch=1 n=f#4 v=99
199668 On ch=1 n=f#8 v=101
199668 On ch=1 n=a#7 v=98
199668 On ch=1 n=f#7 v=92
199906 On ch=1 n=f#7 v=0
199906 On ch=1 n=a#7 v=0
199906 On ch=1 n=f#8 v=0
199906 On ch=1 n=f#4 v=0
199906 On ch=1 n=f#5 v=0
199908 On ch=1 n=a#5 v=108
199908 On ch=1 n=a#4 v=101
199908 On ch=1 n=c#8 v=90
199908 On ch=1 n=c#7 v=60
200146 On ch=1 n=c#7 v=0
200146 On ch=1 n=c#8 v=0
200146 On ch=1 n=a#4 v=0
200146 On ch=1 n=a#5 v=0
200148 On ch=1 n=c#5 v=93
200148 On ch=1 n=c#4 v=97
200148 On ch=1 n=f7 v=93
200148 On ch=1 n=f8 v=99
200148 On ch=1 n=g#7 v=87
200386 On ch=1 n=g#7 v=0
200386 On ch=1 n=f8 v=0
200386 On ch=1 n=f7 v=0
200386 On ch=1 n=c#4 v=0
200386 On ch=1 n=c#5 v=0
200388 On ch=1 n=f5 v=103
200388 On ch=1 n=f4 v=101
200388 On ch=1 n=c#7 v=83
200388 On ch=1 n=c#8 v=90
200626 On ch=1 n=c#8 v=0
200626 On ch=1 n=c#7 v=0
200626 On ch=1 n=f4 v=0
200626 On ch=1 n=f5 v=0
200628 On ch=1 n=f#3 v=98
200628 On ch=1 n=f#4 v=111
200628 On ch=1 n=f#7 v=92
200628 On ch=1 n=a#7 v=98
200628 On ch=1 n=f#8 v=101
200866 On ch=1 n=f#8 v=0
200866 On ch=1 n=a#7 v=0
200866 On ch=1 n=f#7 v=0
200866 On ch=1 n=f#4 v=0
200866 On ch=1 n=f#3 v=0
200868 On ch=1 n=a#4 v=95
200868 On ch=1 n=a#3 v=96
200868 On ch=1 n=c#7 v=60
200868 On ch=1 n=c#8 v=90
201106 On ch=1 n=c#8 v=0
201106 On ch=1 n=c#7 v=0
201106 On ch=1 n=a#3 v=0
201106 On ch=1 n=a#4 v=0
201108 On ch=1 n=c#4 v=87
201108 On ch=1 n=c#5 v=102
201108 On ch=1 n=g#7 v=87
201108 On ch=1 n=f8 v=99
201108 On ch=1 n=f7 v=93
201346 On ch=1 n=f7 v=0
201346 On ch=1 n=f8 v=0
201346 On ch=1 n=g#7 v=0
201346 On ch=1 n=c#5 v=0
201346 On ch=1 n=c#4 v=0
201348 On ch=1 n=f5 v=102
201348 On ch=1 n=f4 v=98
201348 On ch=1 n=c#8 v=90
201348 On ch=1 n=c#7 v=83
201586 On ch=1 n=c#7 v=0
201586 On ch=1 n=c#8 v=0
201586 On ch=1 n=f4 v=0
201586 On ch=1 n=f5 v=0
201588 On ch=1 n=f#5 v=98
201588 On ch=1 n=f#4 v=91
201588 On ch=1 n=f#7 v=92
201588 On ch=1 n=a#7 v=98
201588 On ch=1 n=f#8 v=101
201826 On ch=1 n=f#8 v=0
201826 On ch=1 n=a#7 v=0
201826 On ch=1 n=f#7 v=0
201826 On ch=1 n=f#4 v=0
201826 On ch=1 n=f#5 v=0
201828 On ch=1 n=a#5 v=101
201828 On ch=1 n=a#4 v=98
201828 On ch=1 n=c#7 v=60
201828 On ch=1 n=c#8 v=90
202066 On ch=1 n=c#8 v=0
202066 On ch=1 n=c#7 v=0
202066 On ch=1 n=a#4 v=0
202066 On ch=1 n=a#5 v=0
202068 On ch=1 n=c#5 v=90
202068 On ch=1 n=c#4 v=91
202068 On ch=1 n=g#7 v=87
202068 On ch=1 n=f8 v=99
202068 On ch=1 n=f7 v=93
202306 On ch=1 n=f7 v=0
202306 On ch=1 n=f8 v=0
202306 On ch=1 n=g#7 v=0
202306 On ch=1 n=c#4 v=0
202306 On ch=1 n=c#5 v=0
202308 On ch=1 n=f5 v=101
202308 On ch=1 n=f4 v=98
202308 On ch=1 n=c#8 v=90
202308 On ch=1 n=c#7 v=83
202546 On ch=1 n=c#7 v=0
202546 On ch=1 n=c#8 v=0
202546 On ch=1 n=f4 v=0
202546 On ch=1 n=f5 v=0
202548 On ch=1 n=f#8 v=101
202548 On ch=1 n=a#7 v=98
202548 On ch=1 n=f#7 v=92
202548 On ch=1 n=f#4 v=111
202548 On ch=1 n=f#3 v=98
202786 On ch=1 n=f#3 v=0
202786 On ch=1 n=f#4 v=0
202786 On ch=1 n=f#7 v=0
202786 On ch=1 n=a#7 v=0
202786 On ch=1 n=f#8 v=0
202788 On ch=1 n=c#8 v=90
202788 On ch=1 n=c#7 v=60
202788 On ch=1 n=a#3 v=96
202788 On ch=1 n=a#4 v=95
203026 On ch=1 n=a#4 v=0
203026 On ch=1 n=a#3 v=0
203026 On ch=1 n=c#7 v=0
203026 On ch=1 n=c#8 v=0
203028 On ch=1 n=f7 v=93
203028 On ch=1 n=f8 v=99
203028 On ch=1 n=g#7 v=87
203028 On ch=1 n=c#4 v=102
203028 On ch=1 n=c#3 v=87
203266 On ch=1 n=c#3 v=0
203266 On ch=1 n=c#4 v=0
203266 On ch=1 n=g#7 v=0
203266 On ch=1 n=f8 v=0
203266 On ch=1 n=f7 v=0
203268 On ch=1 n=c#7 v=83
203268 On ch=1 n=c#8 v=90
203268 On ch=1 n=f3 v=98
203268 On ch=1 n=f4 v=102
203506 On ch=1 n=f4 v=0
203506 On ch=1 n=f3 v=0
203506 On ch=1 n=c#8 v=0
203506 On ch=1 n=c#7 v=0
203508 On ch=1 n=f#2 v=98
203508 On ch=1 n=f#3 v=111
203508 On ch=1 n=f#7 v=92
203508 On ch=1 n=a#7 v=98
203508 On ch=1 n=f#8 v=101
203746 On ch=1 n=f#8 v=0
203746 On ch=1 n=a#7 v=0
203746 On ch=1 n=f#7 v=0
203746 On ch=1 n=f#3 v=0
203746 On ch=1 n=f#2 v=0
203748 On ch=1 n=a#3 v=95
203748 On ch=1 n=a#2 v=96
203748 On ch=1 n=c#7 v=60
203748 On ch=1 n=c#8 v=90
203986 On ch=1 n=c#8 v=0
203986 On ch=1 n=c#7 v=0
203986 On ch=1 n=a#2 v=0
203986 On ch=1 n=a#3 v=0
203988 On ch=1 n=c#3 v=87
203988 On ch=1 n=c#4 v=102
203988 On ch=1 n=g#7 v=87
203988 On ch=1 n=f8 v=99
203988 On ch=1 n=f7 v=93
204226 On ch=1 n=f7 v=0
204226 On ch=1 n=f8 v=0
204226 On ch=1 n=g#7 v=0
204226 On ch=1 n=c#4 v=0
204226 On ch=1 n=c#3 v=0
204228 On ch=1 n=f4 v=102
204228 On ch=1 n=f3 v=98
204228 On ch=1 n=c#8 v=90
204228 On ch=1 n=c#7 v=83
204466 On ch=1 n=c#7 v=0
204466 On ch=1 n=c#8 v=0
204466 On ch=1 n=f3 v=0
204466 On ch=1 n=f4 v=0
204468 On ch=1 n=f#4 v=101
204468 On ch=1 n=f#3 v=97
204468 On ch=1 n=f#8 v=101
204468 On ch=1 n=a#7 v=98
204468 On ch=1 n=f#7 v=92
204468 On ch=1 n=a#3 v=102
204468 On ch=1 n=c#4 v=98
204706 On ch=1 n=c#4 v=0
204706 On ch=1 n=a#3 v=0
204706 On ch=1 n=f#7 v=0
204706 On ch=1 n=a#7 v=0
204706 On ch=1 n=f#8 v=0
204706 On ch=1 n=f#3 v=0
204706 On ch=1 n=f#4 v=0
205423 Par ch=1 c=64 v=127
205428 On ch=1 n=g#7 v=98
205428 On ch=1 n=f7 v=103
205428 On ch=1 n=c#7 v=96
205428 On ch=1 n=g#6 v=102
205428 On ch=1 n=c#4 v=96
205428 On ch=1 n=g#4 v=92
205428 On ch=1 n=c#5 v=103
205428 On ch=1 n=f4 v=96
205666 On ch=1 n=f4 v=0
205666 On ch=1 n=c#5 v=0
205666 On ch=1 n=g#4 v=0
205666 On ch=1 n=c#4 v=0
205666 On ch=1 n=g#6 v=0
205666 On ch=1 n=c#7 v=0
205666 On ch=1 n=f7 v=0
205666 On ch=1 n=g#7 v=0
206094 Par ch=1 c=64 v=0
206178 Par ch=1 c=64 v=127
206228 On ch=1 n=c#5 v=98
206228 On ch=1 n=f#5 v=101
206228 On ch=1 n=a#4 v=99
206228 On ch=1 n=a#5 v=99
206228 On ch=1 n=f#2 v=93
206228 On ch=1 n=c#3 v=76
206228 On ch=1 n=f#3 v=108
206228 On ch=1 n=a#2 v=98
206386 On ch=1 n=a#2 v=0
206386 On ch=1 n=f#3 v=0
206386 On ch=1 n=c#3 v=0
206386 On ch=1 n=f#2 v=0
206386 On ch=1 n=a#5 v=0
206386 On ch=1 n=a#4 v=0
206386 On ch=1 n=f#5 v=0
206386 On ch=1 n=c#5 v=0
206388 On ch=1 n=a#4 v=99
206388 On ch=1 n=f#5 v=104
206388 On ch=1 n=c#5 v=101
206388 On ch=1 n=a#5 v=102
206388 On ch=1 n=c#3 v=91
206388 On ch=1 n=f#2 v=102
206388 On ch=1 n=a#2 v=101
206388 On ch=1 n=f#3 v=102
208306 On ch=1 n=f#3 v=0
208306 On ch=1 n=a#2 v=0
208306 On ch=1 n=f#2 v=0
208306 On ch=1 n=c#3 v=0
208308 On ch=1 n=a#5 v=0
208308 On ch=1 n=c#5 v=0
208308 On ch=1 n=f#5 v=0
208308 On ch=1 n=a#4 v=0
208479 Par ch=1 c=64 v=0
208479 Meta TrkEnd
TrkEnd
MTrk
0 SeqSpec 43 00 01 00
0 Meta TrkName "Franz Liszt"
0 Meta 0x21 00
0 Meta TrkEnd
TrkEnd
MTrk
0 SeqSpec 43 00 01 00
0 Meta TrkName "Hungarian Rhapsody #11"
0 Meta 0x21 00
0 Meta TrkEnd
TrkEnd
MTrk
0 SeqSpec 43 00 01 00
0 Meta TrkName "Sequenced by"
0 Meta 0x21 00
0 Meta TrkEnd
TrkEnd
MTrk
0 SeqSpec 43 00 01 00
0 Meta TrkName "R. Ungar - 2002"
0 Meta 0x21 00
0 Meta TrkEnd
TrkEnd
MTrk
0 SeqSpec 43 00 01 00
0 Meta TrkName "Using Roland SC8850"
0 Meta 0x21 00
0 Meta TrkEnd
TrkEnd
