MFile 1 2 480
MTrk
0 KeySig 0 major
0 SMPTE 96 0 0 0 0
0 Tempo 500000
0 TimeSig 4/4 24 8
0 Meta TrkEnd
TrkEnd
MTrk
0 Par ch=1 c=64 v=127
0 Par ch=1 c=64 v=0
0 Par ch=1 c=64 v=127
0 On ch=1 n=c#5 v=19
20 On ch=1 n=c#4 v=12
20 On ch=1 n=c#3 v=11
272 On ch=1 n=c#4 v=0
314 On ch=1 n=d#5 v=35
326 On ch=1 n=d#4 v=23
328 On ch=1 n=d#3 v=15
350 On ch=1 n=c#3 v=0
500 On ch=1 n=d#4 v=0
528 On ch=1 n=d#3 v=0
531 On ch=1 n=d#5 v=0
546 On ch=1 n=a#4 v=2
592 On ch=1 n=c#5 v=0
596 On ch=1 n=e5 v=45
602 On ch=1 n=e4 v=40
638 On ch=1 n=e3 v=31
662 Par ch=1 c=64 v=0
704 On ch=1 n=a#4 v=0
892 Par ch=1 c=64 v=127
938 On ch=1 n=e4 v=0
1040 On ch=1 n=e3 v=0
1086 On ch=1 n=d#5 v=47
1108 On ch=1 n=d#3 v=26
1114 On ch=1 n=d#4 v=25
1142 On ch=1 n=e5 v=0
1300 On ch=1 n=d#4 v=0
1310 On ch=1 n=d#3 v=0
1350 On ch=1 n=d#5 v=0
1358 On ch=1 n=e5 v=55
1360 On ch=1 n=e4 v=41
1378 On ch=1 n=e3 v=39
1630 Par ch=1 c=64 v=0
1646 On ch=1 n=d#5 v=48
1650 On ch=1 n=d#3 v=30
1660 On ch=1 n=e3 v=0
1666 On ch=1 n=e4 v=0
1682 On ch=1 n=d#4 v=22
1740 On ch=1 n=e5 v=0
1952 Par ch=1 c=64 v=127
2018 On ch=1 n=d#4 v=0
2232 On ch=1 n=d#3 v=0
2268 On ch=1 n=c#5 v=39
2286 On ch=1 n=c#4 v=28
2288 On ch=1 n=d#5 v=0
2310 On ch=1 n=c#3 v=25
2352 Par ch=1 c=64 v=0
2506 Par ch=1 c=64 v=127
2542 On ch=1 n=d#5 v=57
2548 On ch=1 n=d#3 v=44
2554 On ch=1 n=c#3 v=0
2598 On ch=1 n=c#4 v=0
2624 On ch=1 n=c#5 v=0
2786 On ch=1 n=d#5 v=0
2790 On ch=1 n=f#5 v=40
2804 On ch=1 n=d#3 v=0
2804 On ch=1 n=f#4 v=36
2816 On ch=1 n=f#3 v=32
2828 Par ch=1 c=64 v=0
2976 On ch=1 n=f#3 v=0
3014 Par ch=1 c=64 v=127
3076 On ch=1 n=e5 v=40
3090 On ch=1 n=e3 v=46
3100 On ch=1 n=f#4 v=0
3144 On ch=1 n=f#5 v=0
3254 On ch=1 n=e3 v=0
3308 On ch=1 n=d#5 v=48
3311 On ch=1 n=d#3 v=36
3314 On ch=1 n=e5 v=0
3326 On ch=1 n=d#4 v=32
3464 On ch=1 n=d#4 v=0
3500 On ch=1 n=d#3 v=0
3544 On ch=1 n=e5 v=54
3547 On ch=1 n=e3 v=59
3550 On ch=1 n=e4 v=48
3586 On ch=1 n=d#5 v=0
3624 On ch=1 n=e4 v=0
3776 On ch=1 n=e3 v=0
3804 On ch=1 n=d#3 v=31
3807 On ch=1 n=d#4 v=35
3807 On ch=1 n=d#5 v=50
3840 On ch=1 n=e5 v=0
3858 Par ch=1 c=64 v=0
4104 Par ch=1 c=64 v=127
4174 On ch=1 n=d#3 v=0
4186 On ch=1 n=d#4 v=0
4326 On ch=1 n=e5 v=54
4338 On ch=1 n=e3 v=46
4348 On ch=1 n=e4 v=25
4370 On ch=1 n=d#5 v=0
4408 On ch=1 n=e4 v=0
4460 On ch=1 n=e3 v=0
4564 On ch=1 n=f#4 v=64
4567 On ch=1 n=f#5 v=53
4577 On ch=1 n=f#3 v=46
4637 On ch=1 n=e5 v=0
4773 On ch=1 n=f#4 v=0
4813 On ch=1 n=g#5 v=63
4819 On ch=1 n=g#4 v=47
4823 On ch=1 n=f#3 v=0
4823 On ch=1 n=g#3 v=53
4869 Par ch=1 c=64 v=0
4891 On ch=1 n=f#5 v=0
5131 Par ch=1 c=64 v=127
5257 On ch=1 n=g#3 v=0
5269 On ch=1 n=g#4 v=0
5287 On ch=1 n=f#5 v=53
5295 On ch=1 n=f#3 v=44
5299 On ch=1 n=f#4 v=54
5359 On ch=1 n=g#5 v=0
5409 On ch=1 n=f#4 v=0
5523 On ch=1 n=g#4 v=52
5525 On ch=1 n=g#5 v=64
5551 On ch=1 n=g#3 v=48
5554 On ch=1 n=f#3 v=0
5709 On ch=1 n=g#4 v=0
5721 On ch=1 n=g#3 v=0
5751 On ch=1 n=a5 v=65
5754 On ch=1 n=f#5 v=0
5769 On ch=1 n=a4 v=52
5785 On ch=1 n=g#5 v=0
5788 On ch=1 n=a3 v=33
5821 Par ch=1 c=64 v=0
6053 Par ch=1 c=64 v=127
6071 On ch=1 n=a4 v=0
6163 On ch=1 n=a3 v=0
6195 On ch=1 n=g#5 v=67
6209 On ch=1 n=g#4 v=54
6215 On ch=1 n=g#3 v=57
6279 On ch=1 n=a5 v=0
6363 On ch=1 n=g#4 v=0
6373 On ch=1 n=g#3 v=0
6441 On ch=1 n=a5 v=64
6461 On ch=1 n=a3 v=40
6464 On ch=1 n=a4 v=27
6539 On ch=1 n=g#5 v=0
6567 On ch=1 n=a4 v=0
6689 On ch=1 n=a3 v=0
6719 On ch=1 n=b5 v=65
6722 On ch=1 n=b4 v=37
6732 On ch=1 n=b3 v=28
6742 Par ch=1 c=64 v=0
6794 On ch=1 n=a5 v=0
7048 Par ch=1 c=64 v=127
7084 On ch=1 n=b3 v=0
7212 On ch=1 n=g#5 v=37
7222 On ch=1 n=g#4 v=27
7254 On ch=1 n=g#3 v=40
7282 On ch=1 n=b5 v=0
7354 On ch=1 n=b4 v=0
7386 On ch=1 n=g#4 v=0
7408 On ch=1 n=g#3 v=0
7470 On ch=1 n=a5 v=37
7478 Par ch=1 c=64 v=0
7510 On ch=1 n=a3 v=23
7510 On ch=1 n=a4 v=25
7544 On ch=1 n=g#5 v=0
7584 On ch=1 n=a4 v=0
7602 Par ch=1 c=64 v=127
7694 On ch=1 n=a3 v=0
7772 On ch=1 n=f#4 v=29
7782 On ch=1 n=f#5 v=32
7796 On ch=1 n=f#3 v=17
7816 Par ch=1 c=64 v=0
7900 On ch=1 n=a5 v=0
8000 Par ch=1 c=64 v=127
8050 On ch=1 n=f#4 v=0
8068 On ch=1 n=f#3 v=0
8126 On ch=1 n=f#5 v=0
8370 On ch=1 n=g#5 v=34
8370 On ch=1 n=g#4 v=22
8396 On ch=1 n=e4 v=14
8398 On ch=1 n=e3 v=32
8402 On ch=1 n=c#4 v=10
8408 On ch=1 n=c#5 v=23
8416 Par ch=1 c=64 v=0
8600 Par ch=1 c=64 v=127
8634 On ch=1 n=e3 v=0
8650 On ch=1 n=e4 v=0
8654 On ch=1 n=g#3 v=37
8666 On ch=1 n=e5 v=53
8680 On ch=1 n=c#4 v=0
8714 On ch=1 n=g#5 v=0
8718 On ch=1 n=g#4 v=0
8762 On ch=1 n=c#5 v=0
8830 On ch=1 n=g#3 v=0
8842 On ch=1 n=e5 v=0
8982 On ch=1 n=d#5 v=37
8986 On ch=1 n=f#4 v=25
8988 On ch=1 n=b4 v=27
8996 On ch=1 n=f#3 v=24
9014 Par ch=1 c=64 v=0
9312 On ch=1 n=f#4 v=0
9322 Par ch=1 c=64 v=127
9588 On ch=1 n=f#3 v=0
9644 On ch=1 n=d#4 v=15
9650 On ch=1 n=d#3 v=14
9660 Par ch=1 c=64 v=0
9906 Par ch=1 c=64 v=127
9966 On ch=1 n=b4 v=0
9980 On ch=1 n=c#5 v=27
9994 On ch=1 n=a4 v=10
10002 On ch=1 n=d#5 v=0
10122 Par ch=1 c=64 v=0
10274 Par ch=1 c=64 v=127
10430 On ch=1 n=c#5 v=0
10460 On ch=1 n=a4 v=0
10466 On ch=1 n=g#3 v=16
10470 On ch=1 n=g#4 v=19
10486 On ch=1 n=d#4 v=0
10506 Par ch=1 c=64 v=0
10514 On ch=1 n=c5 v=11
10528 On ch=1 n=d#3 v=0
10874 Par ch=1 c=64 v=127
10938 On ch=1 n=c5 v=0
10958 On ch=1 n=g#3 v=0
11396 On ch=1 n=g#4 v=0
11396 On ch=1 n=c#5 v=25
11408 On ch=1 n=c#4 v=21
11648 On ch=1 n=c#4 v=0
11724 On ch=1 n=d#5 v=41
11784 On ch=1 n=d#4 v=18
11858 On ch=1 n=d#4 v=0
11864 On ch=1 n=c#5 v=0
12020 On ch=1 n=d#5 v=0
12088 On ch=1 n=e5 v=50
12110 On ch=1 n=e4 v=37
12138 On ch=1 n=c#3 v=21
12164 Par ch=1 c=64 v=0
12364 Par ch=1 c=64 v=127
12400 On ch=1 n=e4 v=0
12490 On ch=1 n=g#3 v=32
12520 On ch=1 n=c#3 v=0
12688 On ch=1 n=g#3 v=0
12752 On ch=1 n=e5 v=0
12766 On ch=1 n=d#5 v=54
12776 On ch=1 n=d#4 v=19
12911 On ch=1 n=d#4 v=0
13033 On ch=1 n=d#5 v=0
13051 On ch=1 n=e5 v=59
13055 On ch=1 n=e4 v=58
13173 On ch=1 n=e4 v=0
13289 On ch=1 n=g#2 v=35
13335 On ch=1 n=d#4 v=48
13335 On ch=1 n=d#5 v=55
13353 On ch=1 n=e5 v=0
13407 Par ch=1 c=64 v=0
13581 On ch=1 n=g#2 v=0
13615 On ch=1 n=g#3 v=47
13667 Par ch=1 c=64 v=127
13731 On ch=1 n=g#3 v=0
13765 On ch=1 n=d#4 v=0
13893 On ch=1 n=c#5 v=66
13907 On ch=1 n=c#4 v=40
13947 On ch=1 n=d#5 v=0
14055 On ch=1 n=c#4 v=0
14201 On ch=1 n=d#5 v=75
14209 On ch=1 n=d#4 v=49
14289 On ch=1 n=c#5 v=0
14343 On ch=1 n=d#4 v=0
14497 Par ch=1 c=64 v=0
14501 On ch=1 n=f#5 v=59
14509 On ch=1 n=f#4 v=52
14537 On ch=1 n=d#5 v=0
14539 On ch=1 n=c#3 v=34
14697 Par ch=1 c=64 v=127
14749 On ch=1 n=f#5 v=0
14763 On ch=1 n=f#4 v=0
14831 On ch=1 n=e5 v=75
14847 On ch=1 n=e4 v=66
14877 On ch=1 n=g#3 v=33
14957 On ch=1 n=e4 v=0
15079 On ch=1 n=d#4 v=60
15082 On ch=1 n=d#5 v=76
15123 On ch=1 n=e5 v=0
15265 On ch=1 n=d#4 v=0
15297 On ch=1 n=g#3 v=0
15335 On ch=1 n=d#5 v=0
15337 On ch=1 n=e5 v=79
15343 On ch=1 n=e4 v=76
15429 On ch=1 n=c#3 v=0
15445 On ch=1 n=e4 v=0
15611 On ch=1 n=g#2 v=35
15611 On ch=1 n=d#4 v=57
15613 On ch=1 n=d#5 v=70
15663 On ch=1 n=e5 v=0
15727 Par ch=1 c=64 v=0
15881 On ch=1 n=g#3 v=55
15889 On ch=1 n=g#2 v=0
15925 Par ch=1 c=64 v=127
15983 On ch=1 n=d#4 v=0
15986 On ch=1 n=g#3 v=0
16113 On ch=1 n=d#5 v=0
16147 On ch=1 n=e5 v=78
16159 On ch=1 n=e4 v=65
16211 On ch=1 n=e4 v=0
16407 On ch=1 n=f#5 v=72
16413 On ch=1 n=f#4 v=72
16431 On ch=1 n=e5 v=0
16515 On ch=1 n=f#4 v=0
16671 On ch=1 n=e3 v=69
16674 On ch=1 n=g#4 v=64
16677 On ch=1 n=g#5 v=74
16749 On ch=1 n=f#5 v=0
16801 Par ch=1 c=64 v=0
16945 On ch=1 n=c#4 v=65
16963 On ch=1 n=e3 v=0
17001 Par ch=1 c=64 v=127
17065 On ch=1 n=g#4 v=0
17065 On ch=1 n=g#5 v=0
17099 On ch=1 n=c#4 v=0
17165 On ch=1 n=f#5 v=77
17169 On ch=1 n=f#4 v=83
17267 On ch=1 n=f#4 v=0
17417 On ch=1 n=g#5 v=84
17420 On ch=1 n=g#4 v=75
17525 On ch=1 n=f#5 v=0
17551 On ch=1 n=g#4 v=0
17621 On ch=1 n=g#5 v=0
17676 On ch=1 n=c#3 v=77
17693 Par ch=1 c=64 v=0
17709 On ch=1 n=a#5 v=79
17719 On ch=1 n=a#4 v=62
17853 On ch=1 n=c#3 v=0
17877 Par ch=1 c=64 v=127
17949 On ch=1 n=e4 v=83
18055 On ch=1 n=a#5 v=0
18057 On ch=1 n=a#4 v=0
18121 On ch=1 n=e4 v=0
18197 On ch=1 n=g#5 v=81
18202 On ch=1 n=g#4 v=66
18311 On ch=1 n=g#4 v=0
18485 On ch=1 n=a#5 v=83
18490 On ch=1 n=a#4 v=68
18529 On ch=1 n=g#5 v=0
18727 On ch=1 n=a#4 v=0
18765 On ch=1 n=a#5 v=0
18783 Par ch=1 c=64 v=0
18813 On ch=1 n=b5 v=87
18813 On ch=1 n=b2 v=60
18825 On ch=1 n=b4 v=60
18997 On ch=1 n=b2 v=0
19031 Par ch=1 c=64 v=127
19117 On ch=1 n=b5 v=0
19135 On ch=1 n=d#4 v=64
19153 On ch=1 n=b4 v=0
19311 On ch=1 n=d#4 v=0
19395 On ch=1 n=g#5 v=71
19401 On ch=1 n=g#4 v=61
19491 On ch=1 n=g#4 v=0
19673 On ch=1 n=a#5 v=65
19673 On ch=1 n=a#4 v=52
19761 On ch=1 n=g#5 v=0
19791 On ch=1 n=a#5 v=0
19807 On ch=1 n=a#4 v=0
19949 On ch=1 n=f#5 v=51
19949 On ch=1 n=f#4 v=58
19949 On ch=1 n=c#3 v=29
19952 Par ch=1 c=64 v=0
20218 On ch=1 n=g#3 v=40
20272 Par ch=1 c=64 v=127
20334 On ch=1 n=c#3 v=0
20356 On ch=1 n=f#5 v=0
20364 On ch=1 n=f#4 v=0
20372 On ch=1 n=g#3 v=0
20526 On ch=1 n=e4 v=66
20532 On ch=1 n=e5 v=58
20814 On ch=1 n=c#5 v=72
20828 On ch=1 n=e4 v=0
20831 On ch=1 n=c#4 v=42
20852 On ch=1 n=e5 v=0
20924 On ch=1 n=c#4 v=0
20980 On ch=1 n=c#5 v=0
21106 On ch=1 n=b4 v=63
21116 On ch=1 n=g#4 v=43
21130 On ch=1 n=d#3 v=28
21132 Par ch=1 c=64 v=0
21372 On ch=1 n=d#4 v=45
21454 Par ch=1 c=64 v=127
21746 On ch=1 n=a#4 v=44
21746 Par ch=1 c=64 v=0
21766 On ch=1 n=g4 v=29
21770 On ch=1 n=b4 v=0
21788 On ch=1 n=g#4 v=0
22002 On ch=1 n=d#4 v=0
22022 Par ch=1 c=64 v=127
22214 On ch=1 n=d#3 v=0
22468 Par ch=1 c=64 v=0
22494 On ch=1 n=g4 v=0
22504 On ch=1 n=g#4 v=28
22516 On ch=1 n=g#2 v=21
22706 On ch=1 n=a#4 v=0
22930 Par ch=1 c=64 v=127
22960 On ch=1 n=g#3 v=25
22982 On ch=1 n=g#2 v=0
23672 On ch=1 n=g#5 v=24
23724 On ch=1 n=g#3 v=0
23730 On ch=1 n=g#4 v=0
23852 Par ch=1 c=64 v=0
24190 Par ch=1 c=64 v=127
24344 On ch=1 n=a5 v=15
24360 On ch=1 n=a3 v=16
24392 On ch=1 n=a4 v=9
24450 On ch=1 n=g#5 v=0
24620 Par ch=1 c=64 v=0
24850 Par ch=1 c=64 v=127
24954 On ch=1 n=e5 v=18
24960 On ch=1 n=e3 v=22
24972 On ch=1 n=a3 v=0
25024 On ch=1 n=a4 v=0
25042 On ch=1 n=a5 v=0
25112 Par ch=1 c=64 v=0
25296 Par ch=1 c=64 v=127
25484 On ch=1 n=e3 v=0
25548 On ch=1 n=c#5 v=40
25562 On ch=1 n=c#3 v=14
25565 On ch=1 n=e5 v=0
25568 On ch=1 n=c#4 v=18
25726 Par ch=1 c=64 v=0
25926 Par ch=1 c=64 v=127
26090 On ch=1 n=e5 v=43
26114 On ch=1 n=c#4 v=0
26116 On ch=1 n=c#5 v=0
26124 On ch=1 n=e3 v=39
26130 On ch=1 n=c#3 v=0
26310 Par ch=1 c=64 v=0
26478 Par ch=1 c=64 v=127
26630 On ch=1 n=e3 v=0
26632 On ch=1 n=g#5 v=38
26648 On ch=1 n=g#4 v=23
26652 On ch=1 n=g#3 v=31
26686 On ch=1 n=e5 v=0
26740 Par ch=1 c=64 v=0
26986 Par ch=1 c=64 v=127
27148 On ch=1 n=d#3 v=25
27166 On ch=1 n=d#5 v=32
27208 On ch=1 n=g#3 v=0
27218 On ch=1 n=g#4 v=0
27324 Par ch=1 c=64 v=0
27330 On ch=1 n=g#5 v=0
27524 Par ch=1 c=64 v=127
27658 On ch=1 n=d#3 v=0
27710 On ch=1 n=d#5 v=0
27710 On ch=1 n=b4 v=26
27734 On ch=1 n=b3 v=9
27752 On ch=1 n=b2 v=16
27846 Par ch=1 c=64 v=0
28062 Par ch=1 c=64 v=127
28206 On ch=1 n=b4 v=0
28228 On ch=1 n=b2 v=0
28240 On ch=1 n=d#3 v=15
28248 On ch=1 n=d#5 v=32
28250 On ch=1 n=b3 v=0
28306 Par ch=1 c=64 v=0
28522 Par ch=1 c=64 v=127
28680 On ch=1 n=d#3 v=0
28794 On ch=1 n=f#5 v=28
28796 On ch=1 n=f#4 v=34
28826 On ch=1 n=f#3 v=23
28830 On ch=1 n=d#5 v=0
28830 Par ch=1 c=64 v=0
29044 Par ch=1 c=64 v=127
29250 On ch=1 n=f#4 v=0
29276 On ch=1 n=f#3 v=0
29298 On ch=1 n=e5 v=46
29318 On ch=1 n=e3 v=25
29514 On ch=1 n=f#5 v=0
29526 On ch=1 n=e3 v=0
29538 On ch=1 n=d#5 v=52
29554 On ch=1 n=d#3 v=30
29554 On ch=1 n=d#4 v=33
29636 On ch=1 n=e5 v=0
29682 On ch=1 n=d#4 v=0
29798 On ch=1 n=d#3 v=0
29800 On ch=1 n=c#4 v=36
29812 On ch=1 n=c#5 v=52
29818 On ch=1 n=c#3 v=28
29918 On ch=1 n=d#5 v=0
29936 Par ch=1 c=64 v=0
30136 Par ch=1 c=64 v=127
30142 On ch=1 n=c#4 v=0
30244 On ch=1 n=c#3 v=0
30310 On ch=1 n=b4 v=39
30328 On ch=1 n=c#5 v=0
30328 On ch=1 n=b2 v=39
30340 On ch=1 n=b3 v=24
30404 On ch=1 n=b3 v=0
30521 On ch=1 n=b2 v=0
30558 On ch=1 n=a#4 v=46
30566 On ch=1 n=b4 v=0
30568 On ch=1 n=a#3 v=20
30568 On ch=1 n=a#2 v=24
30794 On ch=1 n=a#3 v=0
30846 On ch=1 n=a#4 v=0
30858 Par ch=1 c=64 v=0
30866 On ch=1 n=d#5 v=44
30872 On ch=1 n=d#4 v=30
30880 On ch=1 n=a#2 v=0
30884 On ch=1 n=d#3 v=32
31164 Par ch=1 c=64 v=127
31206 On ch=1 n=d#4 v=0
31316 On ch=1 n=d#5 v=0
31356 On ch=1 n=d#3 v=0
31406 On ch=1 n=e5 v=44
31418 On ch=1 n=e4 v=32
31440 On ch=1 n=e3 v=36
31534 Par ch=1 c=64 v=0
31750 Par ch=1 c=64 v=127
31854 On ch=1 n=e4 v=0
31930 On ch=1 n=c#5 v=50
31962 On ch=1 n=c#3 v=24
31964 On ch=1 n=e5 v=0
31974 On ch=1 n=c#4 v=15
31982 On ch=1 n=e3 v=0
32026 Par ch=1 c=64 v=0
32256 Par ch=1 c=64 v=127
32388 On ch=1 n=c#4 v=0
32460 On ch=1 n=d#5 v=32
32490 On ch=1 n=d#4 v=23
32508 On ch=1 n=d#3 v=22
32514 On ch=1 n=c#5 v=0
32517 Par ch=1 c=64 v=0
32538 On ch=1 n=c#3 v=0
32762 Par ch=1 c=64 v=127
32854 On ch=1 n=d#5 v=0
32942 On ch=1 n=d#3 v=0
32950 On ch=1 n=d#4 v=0
33122 On ch=1 n=c#5 v=28
33152 On ch=1 n=g#3 v=11
33154 On ch=1 n=g#2 v=21
33158 On ch=1 n=g4 v=16
33160 On ch=1 n=e4 v=17
33286 Par ch=1 c=64 v=0
33454 Par ch=1 c=64 v=127
33522 On ch=1 n=e4 v=0
33558 On ch=1 n=c#5 v=0
33568 On ch=1 n=g4 v=0
33806 On ch=1 n=g#4 v=14
33809 On ch=1 n=d#4 v=14
33814 On ch=1 n=b4 v=21
33900 Par ch=1 c=64 v=0
34100 Par ch=1 c=64 v=127
34160 On ch=1 n=d#4 v=0
34194 On ch=1 n=g#4 v=0
34342 On ch=1 n=b4 v=0
34364 On ch=1 n=a#4 v=26
34376 Par ch=1 c=64 v=0
34402 On ch=1 n=c#4 v=26
34410 On ch=1 n=g4 v=32
34514 On ch=1 n=g#2 v=0
34558 On ch=1 n=c#4 v=0
34566 On ch=1 n=g#3 v=0
34576 Par ch=1 c=64 v=127
34616 On ch=1 n=g4 v=0
34692 On ch=1 n=a#4 v=0
35024 On ch=1 n=g#6 v=60
35042 On ch=1 n=g#5 v=21
35052 On ch=1 n=g#4 v=18
35084 On ch=1 n=g#3 v=12
35096 On ch=1 n=b3 v=18
35222 Par ch=1 c=64 v=0
35326 On ch=1 n=b3 v=0
35360 Par ch=1 c=64 v=127
35386 On ch=1 n=g#3 v=0
35432 On ch=1 n=g#4 v=0
35504 On ch=1 n=g#5 v=0
35564 On ch=1 n=c#4 v=22
35576 On ch=1 n=e4 v=20
35582 On ch=1 n=a6 v=54
35590 Par ch=1 c=64 v=0
35614 On ch=1 n=a5 v=18
35626 On ch=1 n=g#6 v=0
35684 On ch=1 n=e4 v=0
35758 Par ch=1 c=64 v=127
35822 On ch=1 n=a6 v=0
35886 On ch=1 n=e4 v=24
35910 On ch=1 n=a5 v=0
35970 On ch=1 n=e4 v=0
36118 On ch=1 n=e6 v=52
36160 On ch=1 n=e5 v=19
36350 On ch=1 n=a4 v=26
36354 On ch=1 n=e6 v=0
36370 On ch=1 n=e5 v=0
36450 On ch=1 n=a4 v=0
36642 On ch=1 n=g#4 v=35
36664 On ch=1 n=c#6 v=42
36684 On ch=1 n=c#5 v=34
36704 On ch=1 n=e4 v=29
36772 On ch=1 n=e4 v=0
36906 On ch=1 n=e4 v=29
36920 On ch=1 n=c#4 v=0
36926 Par ch=1 c=64 v=0
37044 On ch=1 n=c#5 v=0
37080 Par ch=1 c=64 v=127
37178 On ch=1 n=e6 v=69
37188 On ch=1 n=e5 v=53
37242 On ch=1 n=c#6 v=0
37280 On ch=1 n=e4 v=0
37342 On ch=1 n=e5 v=0
37406 On ch=1 n=c#4 v=36
37436 On ch=1 n=e6 v=0
37600 On ch=1 n=c#4 v=0
37678 On ch=1 n=b3 v=19
37681 On ch=1 n=g#6 v=73
37684 On ch=1 n=g#5 v=47
37694 On ch=1 n=d#4 v=26
37724 On ch=1 n=g#4 v=0
37774 On ch=1 n=d#4 v=0
37942 Par ch=1 c=64 v=0
37972 On ch=1 n=d#4 v=39
38094 Par ch=1 c=64 v=127
38100 On ch=1 n=g#6 v=0
38116 On ch=1 n=g#5 v=0
38248 On ch=1 n=d#6 v=60
38260 On ch=1 n=d#5 v=46
38262 On ch=1 n=d#4 v=0
38414 On ch=1 n=d#6 v=0
38472 On ch=1 n=d#5 v=0
38482 On ch=1 n=g#4 v=41
38556 On ch=1 n=g#4 v=0
38678 On ch=1 n=b3 v=0
38756 On ch=1 n=b5 v=53
38758 On ch=1 n=f#4 v=38
38764 On ch=1 n=b4 v=29
38768 On ch=1 n=d#4 v=40
38786 Par ch=1 c=64 v=0
38892 On ch=1 n=d#4 v=0
38954 Par ch=1 c=64 v=127
39024 On ch=1 n=d#4 v=39
39044 On ch=1 n=b4 v=0
39104 On ch=1 n=b5 v=0
39130 On ch=1 n=d#4 v=0
39252 On ch=1 n=d#6 v=63
39258 On ch=1 n=d#5 v=52
39420 On ch=1 n=d#5 v=0
39470 On ch=1 n=b3 v=37
39566 On ch=1 n=d#6 v=0
39634 On ch=1 n=b3 v=0
39704 On ch=1 n=f#4 v=0
39734 On ch=1 n=f#6 v=69
39746 On ch=1 n=f#5 v=36
39752 On ch=1 n=a#3 v=40
39754 Par ch=1 c=64 v=0
39754 On ch=1 n=c#4 v=40
39826 On ch=1 n=c#4 v=0
39984 Par ch=1 c=64 v=127
40026 On ch=1 n=c#4 v=36
40134 On ch=1 n=f#6 v=0
40146 On ch=1 n=f#5 v=0
40212 On ch=1 n=c#4 v=0
40242 On ch=1 n=e6 v=57
40258 On ch=1 n=e5 v=41
40314 On ch=1 n=e5 v=0
40496 On ch=1 n=d#6 v=66
40502 On ch=1 n=d#5 v=53
40516 On ch=1 n=e6 v=0
40516 On ch=1 n=f#4 v=45
40596 On ch=1 n=f#4 v=0
40610 On ch=1 n=d#5 v=0
40626 On ch=1 n=d#6 v=0
40730 On ch=1 n=a3 v=33
40748 On ch=1 n=a#3 v=0
40772 On ch=1 n=c#6 v=61
40778 On ch=1 n=c#5 v=55
40802 On ch=1 n=e4 v=27
40814 Par ch=1 c=64 v=0
40868 On ch=1 n=e4 v=0
41022 On ch=1 n=e4 v=37
41028 Par ch=1 c=64 v=127
41066 On ch=1 n=c#5 v=0
41160 On ch=1 n=e4 v=0
41236 On ch=1 n=d#6 v=61
41246 On ch=1 n=d#5 v=48
41286 On ch=1 n=c#6 v=0
41334 On ch=1 n=d#5 v=0
41378 On ch=1 n=d#6 v=0
41480 On ch=1 n=a3 v=0
41483 On ch=1 n=e6 v=47
41490 On ch=1 n=c#4 v=28
41492 On ch=1 n=e5 v=56
41534 On ch=1 n=e6 v=0
41540 On ch=1 n=e5 v=0
41640 On ch=1 n=c#4 v=0
41708 On ch=1 n=g#4 v=66
41750 On ch=1 n=g#3 v=38
41812 Par ch=1 c=64 v=0
41988 On ch=1 n=c#5 v=37
42000 On ch=1 n=e5 v=47
42018 On ch=1 n=c#4 v=25
42032 On ch=1 n=e4 v=35
42044 Par ch=1 c=64 v=127
42130 On ch=1 n=e4 v=0
42148 On ch=1 n=e5 v=0
42152 On ch=1 n=c#4 v=0
42170 On ch=1 n=c#5 v=0
42228 On ch=1 n=a4 v=53
42248 On ch=1 n=a3 v=39
42272 On ch=1 n=g#3 v=0
42294 On ch=1 n=g#4 v=0
42304 Par ch=1 c=64 v=0
42530 On ch=1 n=e4 v=37
42532 On ch=1 n=c#5 v=26
42550 On ch=1 n=e5 v=28
42550 Par ch=1 c=64 v=127
42558 On ch=1 n=c#4 v=11
42624 On ch=1 n=e4 v=0
42624 On ch=1 n=c#5 v=0
42624 On ch=1 n=e5 v=0
42698 On ch=1 n=a3 v=0
42700 On ch=1 n=c#4 v=0
42750 On ch=1 n=f#4 v=57
42788 On ch=1 n=f#3 v=22
42842 Par ch=1 c=64 v=0
42847 On ch=1 n=a4 v=0
43016 On ch=1 n=d#5 v=38
43030 On ch=1 n=d#4 v=29
43033 On ch=1 n=c#5 v=29
43074 On ch=1 n=c#4 v=20
43088 Par ch=1 c=64 v=127
43146 On ch=1 n=d#4 v=0
43146 On ch=1 n=c#5 v=0
43188 On ch=1 n=c#4 v=0
43320 On ch=1 n=d#5 v=0
43326 On ch=1 n=g#4 v=44
43326 On ch=1 n=g#3 v=39
43358 On ch=1 n=f#3 v=0
43426 Par ch=1 c=64 v=0
43428 On ch=1 n=f#4 v=0
43626 Par ch=1 c=64 v=127
43644 On ch=1 n=d#4 v=20
43652 On ch=1 n=d#5 v=33
43660 On ch=1 n=c5 v=17
43680 On ch=1 n=c4 v=9
43720 On ch=1 n=d#4 v=0
43736 On ch=1 n=d#5 v=0
43744 On ch=1 n=c5 v=0
43762 On ch=1 n=c4 v=0
43782 On ch=1 n=g#4 v=0
43810 On ch=1 n=g#3 v=0
44024 On ch=1 n=c#4 v=39
44058 On ch=1 n=f#4 v=35
44058 On ch=1 n=a3 v=38
44061 On ch=1 n=c#3 v=27
44332 Par ch=1 c=64 v=0
44532 Par ch=1 c=64 v=127
44590 On ch=1 n=g#3 v=38
44606 On ch=1 n=e4 v=48
44636 On ch=1 n=a3 v=0
44778 Par ch=1 c=64 v=0
44781 On ch=1 n=f#4 v=0
45008 Par ch=1 c=64 v=127
45214 On ch=1 n=g#3 v=0
45252 On ch=1 n=d#4 v=40
45264 On ch=1 n=e4 v=0
45282 On ch=1 n=f#3 v=18
45332 Par ch=1 c=64 v=0
45534 On ch=1 n=c#4 v=0
45546 Par ch=1 c=64 v=127
45614 On ch=1 n=c#3 v=0
45644 On ch=1 n=d#4 v=0
45736 On ch=1 n=f#3 v=0
45870 On ch=1 n=c#5 v=64
45910 On ch=1 n=c#4 v=14
45950 On ch=1 n=e3 v=29
46022 On ch=1 n=c#3 v=2
46196 On ch=1 n=c#3 v=0
46216 On ch=1 n=d#5 v=73
46222 On ch=1 n=e3 v=0
46322 On ch=1 n=c#5 v=0
46342 On ch=1 n=c#4 v=0
46610 On ch=1 n=c#6 v=35
46614 On ch=1 n=f#3 v=21
46622 On ch=1 n=d#5 v=0
46628 On ch=1 n=e5 v=57
46636 On ch=1 n=a5 v=28
46714 Par ch=1 c=64 v=0
47028 On ch=1 n=c#4 v=27
47084 Par ch=1 c=64 v=127
47170 On ch=1 n=c#6 v=0
47180 On ch=1 n=a5 v=0
47270 On ch=1 n=f#3 v=0
47318 On ch=1 n=c#4 v=0
47386 On ch=1 n=c#6 v=36
47389 On ch=1 n=d#5 v=40
47394 On ch=1 n=f#4 v=26
47412 On ch=1 n=a5 v=9
47434 On ch=1 n=e5 v=0
47534 On ch=1 n=f#4 v=0
47663 On ch=1 n=a5 v=0
47667 On ch=1 n=d#5 v=0
47690 On ch=1 n=c#6 v=0
47694 On ch=1 n=e5 v=54
47706 On ch=1 n=a4 v=19
47972 On ch=1 n=d#5 v=43
47984 On ch=1 n=a5 v=25
47988 On ch=1 n=c#6 v=32
48002 On ch=1 n=f#4 v=21
48058 On ch=1 n=e5 v=0
48130 Par ch=1 c=64 v=0
48358 Par ch=1 c=64 v=127
48528 On ch=1 n=d#5 v=0
48572 On ch=1 n=c#5 v=59
48782 On ch=1 n=c#6 v=0
48808 On ch=1 n=f#4 v=0
48862 On ch=1 n=d#5 v=72
48866 On ch=1 n=c#5 v=0
48930 On ch=1 n=a5 v=0
48936 On ch=1 n=a4 v=0
49180 On ch=1 n=f#5 v=51
49196 On ch=1 n=a3 v=20
49204 Par ch=1 c=64 v=0
49214 On ch=1 n=c#6 v=33
49220 On ch=1 n=d#5 v=0
49220 On ch=1 n=a5 v=25
49448 On ch=1 n=c#4 v=37
49470 On ch=1 n=e5 v=60
49480 Par ch=1 c=64 v=127
49492 On ch=1 n=a5 v=0
49502 On ch=1 n=c#6 v=0
49552 On ch=1 n=f#5 v=0
49714 On ch=1 n=d#5 v=58
49714 On ch=1 n=f#4 v=42
49717 On ch=1 n=a3 v=0
49720 On ch=1 n=e5 v=0
49720 On ch=1 n=c#6 v=41
49736 On ch=1 n=c#4 v=0
49752 On ch=1 n=a5 v=23
49892 On ch=1 n=a5 v=0
49910 On ch=1 n=f#4 v=0
49926 On ch=1 n=d#5 v=0
49950 On ch=1 n=a4 v=31
49964 On ch=1 n=c#6 v=0
49968 On ch=1 n=e5 v=63
50260 On ch=1 n=c#6 v=30
50272 On ch=1 n=d#5 v=55
50292 On ch=1 n=e5 v=0
50298 On ch=1 n=f#4 v=23
50306 On ch=1 n=a5 v=20
50326 Par ch=1 c=64 v=0
50586 Par ch=1 c=64 v=127
50878 On ch=1 n=e5 v=50
50894 On ch=1 n=d#5 v=0
50904 On ch=1 n=a4 v=0
50980 On ch=1 n=f#4 v=0
51150 On ch=1 n=f#5 v=55
51156 On ch=1 n=e5 v=0
51172 On ch=1 n=c#6 v=0
51324 On ch=1 n=a5 v=0
51416 On ch=1 n=c#6 v=43
51418 On ch=1 n=g#5 v=54
51424 On ch=1 n=e5 v=47
51428 On ch=1 n=e3 v=41
51466 On ch=1 n=f#5 v=0
51524 Par ch=1 c=64 v=0
51676 On ch=1 n=e3 v=0
51700 On ch=1 n=e4 v=64
51708 Par ch=1 c=64 v=127
51749 On ch=1 n=c#6 v=0
51790 On ch=1 n=e5 v=0
51824 On ch=1 n=e4 v=0
51920 On ch=1 n=f#5 v=59
51920 On ch=1 n=g#4 v=29
51926 On ch=1 n=c#6 v=59
51944 On ch=1 n=e5 v=39
51956 On ch=1 n=g#5 v=0
52044 On ch=1 n=e5 v=0
52080 On ch=1 n=g#4 v=0
52144 On ch=1 n=c#6 v=0
52158 On ch=1 n=c#5 v=52
52170 On ch=1 n=g#5 v=70
52224 On ch=1 n=c#5 v=0
52368 Par ch=1 c=64 v=0
52412 On ch=1 n=f#5 v=0
52417 On ch=1 n=c#6 v=58
52420 On ch=1 n=a5 v=52
52423 On ch=1 n=c#3 v=66
52423 On ch=1 n=e5 v=60
52440 On ch=1 n=g#5 v=0
52470 On ch=1 n=c#3 v=0
52552 Par ch=1 c=64 v=127
52744 On ch=1 n=e4 v=65
52840 On ch=1 n=c#6 v=0
52848 On ch=1 n=e5 v=0
52872 On ch=1 n=a5 v=0
52888 On ch=1 n=e4 v=0
52976 On ch=1 n=g#5 v=65
52982 On ch=1 n=c#6 v=70
52990 On ch=1 n=a4 v=50
53000 On ch=1 n=e5 v=56
53050 On ch=1 n=a4 v=0
53066 On ch=1 n=e5 v=0
53204 On ch=1 n=g#5 v=0
53234 On ch=1 n=c#5 v=56
53244 On ch=1 n=a5 v=72
53260 On ch=1 n=c#6 v=0
53280 On ch=1 n=c#5 v=0
53522 Par ch=1 c=64 v=0
53536 On ch=1 n=b5 v=78
53538 On ch=1 n=d#6 v=73
53546 On ch=1 n=b2 v=71
53546 On ch=1 n=f#5 v=52
53580 On ch=1 n=a5 v=0
53726 On ch=1 n=b2 v=0
53766 Par ch=1 c=64 v=127
53838 On ch=1 n=d#6 v=0
53854 On ch=1 n=d#4 v=56
53934 On ch=1 n=f#5 v=0
53946 On ch=1 n=d#4 v=0
53974 On ch=1 n=b5 v=0
54062 On ch=1 n=c#6 v=68
54074 On ch=1 n=c#3 v=69
54080 On ch=1 n=g#5 v=64
54080 On ch=1 n=e5 v=62
54120 Par ch=1 c=64 v=0
54288 On ch=1 n=c#3 v=0
54290 Par ch=1 c=64 v=127
54296 On ch=1 n=g#5 v=0
54324 On ch=1 n=a5 v=63
54340 On ch=1 n=e4 v=76
54378 On ch=1 n=e5 v=0
54386 On ch=1 n=c#6 v=0
54428 On ch=1 n=e4 v=0
54584 On ch=1 n=d#5 v=70
54584 On ch=1 n=c6 v=67
54587 On ch=1 n=f#5 v=58
54590 On ch=1 n=d#3 v=72
54596 Par ch=1 c=64 v=0
54654 On ch=1 n=a5 v=0
54796 On ch=1 n=d#3 v=0
54828 Par ch=1 c=64 v=127
54844 On ch=1 n=f#4 v=72
54936 On ch=1 n=d#5 v=0
54942 On ch=1 n=c6 v=0
54990 On ch=1 n=f#4 v=0
55064 On ch=1 n=f#5 v=0
55084 On ch=1 n=c#6 v=66
55087 On ch=1 n=c#5 v=58
55102 On ch=1 n=g#5 v=55
55102 On ch=1 n=e3 v=70
55105 Par ch=1 c=64 v=0
55274 On ch=1 n=e3 v=0
55288 Par ch=1 c=64 v=127
55376 On ch=1 n=c#6 v=0
55380 On ch=1 n=e5 v=71
55388 On ch=1 n=g#4 v=49
55426 On ch=1 n=g#5 v=0
55438 On ch=1 n=c#5 v=0
55518 On ch=1 n=g#4 v=0
55684 On ch=1 n=f#3 v=40
55692 On ch=1 n=d#5 v=57
55698 On ch=1 n=b5 v=64
55700 On ch=1 n=f#5 v=40
55702 Par ch=1 c=64 v=0
55736 On ch=1 n=e5 v=0
55982 On ch=1 n=f#4 v=40
56026 Par ch=1 c=64 v=127
56138 On ch=1 n=f#4 v=0
56184 On ch=1 n=f#3 v=0
56292 On ch=1 n=d#3 v=29
56312 On ch=1 n=d#5 v=0
56334 Par ch=1 c=64 v=0
56518 Par ch=1 c=64 v=127
56596 On ch=1 n=a5 v=31
56602 On ch=1 n=c#5 v=21
56624 On ch=1 n=d#4 v=17
56640 Par ch=1 c=64 v=0
56686 On ch=1 n=b5 v=0
56704 On ch=1 n=f#5 v=0
56840 Par ch=1 c=64 v=127
56942 On ch=1 n=c#5 v=0
56960 On ch=1 n=d#4 v=0
57034 On ch=1 n=g#5 v=20
57040 On ch=1 n=a5 v=0
57056 On ch=1 n=d#5 v=16
57070 On ch=1 n=g#3 v=20
57070 On ch=1 n=c5 v=27
57102 Par ch=1 c=64 v=0
57128 On ch=1 n=d#3 v=0
57424 Par ch=1 c=64 v=127
57456 On ch=1 n=g#3 v=0
57482 On ch=1 n=c5 v=0
57510 On ch=1 n=d#5 v=0
57682 On ch=1 n=g#5 v=0
57718 On ch=1 n=c#6 v=27
57718 On ch=1 n=c#5 v=28
57742 On ch=1 n=f#3 v=17
57746 On ch=1 n=a5 v=5
57978 Par ch=1 c=64 v=0
58060 On ch=1 n=d#5 v=45
58090 On ch=1 n=c#4 v=26
58154 On ch=1 n=c#6 v=0
58162 Par ch=1 c=64 v=127
58170 On ch=1 n=a5 v=0
58178 On ch=1 n=c#5 v=0
58182 On ch=1 n=c#4 v=0
58376 On ch=1 n=f#4 v=34
58381 On ch=1 n=d#5 v=0
58384 On ch=1 n=e5 v=47
58388 On ch=1 n=c#6 v=42
58392 On ch=1 n=f#3 v=0
58408 On ch=1 n=a5 v=23
58456 On ch=1 n=f#4 v=0
58656 On ch=1 n=a4 v=32
58702 On ch=1 n=a5 v=0
58742 On ch=1 n=c#6 v=0
58828 On ch=1 n=a4 v=0
58968 On ch=1 n=c#6 v=41
58971 On ch=1 n=d#5 v=50
58986 On ch=1 n=a5 v=25
58992 On ch=1 n=e5 v=0
58994 On ch=1 n=f#4 v=24
59150 On ch=1 n=f#4 v=0
59186 On ch=1 n=d#5 v=0
59194 On ch=1 n=a5 v=0
59228 On ch=1 n=e5 v=74
59242 On ch=1 n=a4 v=31
59248 On ch=1 n=c#6 v=0
59478 On ch=1 n=a4 v=0
59490 On ch=1 n=c#6 v=66
59490 On ch=1 n=d#5 v=72
59492 On ch=1 n=e5 v=0
59508 On ch=1 n=f#4 v=39
59510 On ch=1 n=a5 v=39
59736 On ch=1 n=f#4 v=0
59736 On ch=1 n=c#4 v=42
59772 On ch=1 n=a5 v=0
59784 On ch=1 n=c#6 v=0
59824 On ch=1 n=d#5 v=0
59942 On ch=1 n=c#4 v=0
59992 On ch=1 n=c#5 v=75
60000 On ch=1 n=c#6 v=66
60016 On ch=1 n=a3 v=31
60032 On ch=1 n=a5 v=29
60184 On ch=1 n=c#5 v=0
60254 On ch=1 n=c#4 v=34
60272 On ch=1 n=d#5 v=76
60292 On ch=1 n=c#6 v=0
60310 On ch=1 n=a5 v=0
60496 Par ch=1 c=64 v=0
60588 On ch=1 n=c#4 v=0
60600 On ch=1 n=f#5 v=49
60606 On ch=1 n=a4 v=23
60612 On ch=1 n=c#6 v=47
60618 On ch=1 n=a5 v=25
60640 On ch=1 n=d#5 v=0
60850 Par ch=1 c=64 v=127
60868 On ch=1 n=a4 v=0
60886 On ch=1 n=a5 v=0
60914 On ch=1 n=e5 v=55
60924 On ch=1 n=f#4 v=29
60930 On ch=1 n=c#6 v=0
61034 On ch=1 n=f#5 v=0
61140 On ch=1 n=f#4 v=0
61154 On ch=1 n=e5 v=0
61160 On ch=1 n=d#5 v=49
61166 On ch=1 n=c#6 v=45
61176 On ch=1 n=a4 v=22
61182 On ch=1 n=a3 v=0
61200 On ch=1 n=a5 v=16
61342 On ch=1 n=a5 v=0
61368 On ch=1 n=d#5 v=0
61370 On ch=1 n=a4 v=0
61406 On ch=1 n=c#6 v=0
61408 On ch=1 n=f#4 v=43
61418 On ch=1 n=e5 v=59
61630 On ch=1 n=f#4 v=0
61648 On ch=1 n=e5 v=0
61668 On ch=1 n=c#4 v=24
61671 On ch=1 n=d#5 v=64
61676 On ch=1 n=c#6 v=46
61698 On ch=1 n=a5 v=19
61890 On ch=1 n=c#6 v=0
61902 On ch=1 n=a5 v=0
61904 On ch=1 n=c#4 v=0
61920 On ch=1 n=a3 v=38
61988 On ch=1 n=a3 v=0
62110 On ch=1 n=d#5 v=0
62168 On ch=1 n=c#6 v=60
62174 On ch=1 n=e5 v=63
62186 On ch=1 n=d#3 v=49
62186 On ch=1 n=a5 v=32
62398 On ch=1 n=d#3 v=0
62414 On ch=1 n=e5 v=0
62414 On ch=1 n=d#4 v=57
62417 On ch=1 n=f#5 v=68
62440 On ch=1 n=c#6 v=0
62554 On ch=1 n=d#4 v=0
62658 On ch=1 n=e3 v=67
62664 On ch=1 n=c#6 v=63
62676 On ch=1 n=g#5 v=58
62678 On ch=1 n=e5 v=55
62680 On ch=1 n=a5 v=0
62702 On ch=1 n=f#5 v=0
62740 Par ch=1 c=64 v=0
62938 On ch=1 n=e3 v=0
62938 On ch=1 n=e4 v=73
63002 Par ch=1 c=64 v=127
63005 On ch=1 n=c#6 v=0
63030 On ch=1 n=e5 v=0
63068 On ch=1 n=e4 v=0
63094 On ch=1 n=g#5 v=0
63156 On ch=1 n=c#6 v=76
63162 On ch=1 n=f#5 v=68
63164 On ch=1 n=g#4 v=68
63188 On ch=1 n=e5 v=57
63296 On ch=1 n=g#4 v=0
63296 On ch=1 n=e5 v=0
63352 On ch=1 n=f#5 v=0
63412 On ch=1 n=c#6 v=0
63412 On ch=1 n=c#5 v=66
63424 On ch=1 n=g#5 v=81
63482 On ch=1 n=c#5 v=0
63514 On ch=1 n=g#5 v=0
63646 Par ch=1 c=64 v=0
63650 On ch=1 n=c#3 v=88
63662 On ch=1 n=e6 v=91
63664 On ch=1 n=a#5 v=78
63670 On ch=1 n=e5 v=86
63688 On ch=1 n=c#3 v=0
63800 Par ch=1 c=64 v=127
63950 On ch=1 n=e4 v=85
64002 On ch=1 n=a#5 v=0
64002 On ch=1 n=e5 v=0
64010 On ch=1 n=e6 v=0
64132 On ch=1 n=e4 v=0
64186 On ch=1 n=e6 v=94
64189 On ch=1 n=g#5 v=68
64196 On ch=1 n=e5 v=78
64204 On ch=1 n=a#4 v=50
64278 On ch=1 n=a#4 v=0
64320 On ch=1 n=e5 v=0
64396 On ch=1 n=e6 v=0
64430 On ch=1 n=c#5 v=62
64450 On ch=1 n=a#5 v=71
64476 On ch=1 n=c#5 v=0
64564 On ch=1 n=g#5 v=0
64662 On ch=1 n=a#5 v=0
64738 Par ch=1 c=64 v=0
64741 On ch=1 n=b2 v=89
64746 On ch=1 n=f#5 v=70
64750 On ch=1 n=d#6 v=81
64752 On ch=1 n=b5 v=87
64946 On ch=1 n=b2 v=0
64984 Par ch=1 c=64 v=127
65062 On ch=1 n=d#4 v=64
65086 On ch=1 n=d#6 v=0
65148 On ch=1 n=f#5 v=0
65182 On ch=1 n=d#4 v=0
65310 On ch=1 n=b5 v=0
65324 On ch=1 n=g#5 v=66
65327 On ch=1 n=c#3 v=69
65330 On ch=1 n=c#6 v=69
65342 On ch=1 n=e5 v=67
65368 Par ch=1 c=64 v=0
65552 Par ch=1 c=64 v=127
65560 On ch=1 n=c#3 v=0
65616 On ch=1 n=a#5 v=70
65626 On ch=1 n=e4 v=67
65648 On ch=1 n=e5 v=0
65662 On ch=1 n=c#6 v=0
65756 On ch=1 n=e4 v=0
65898 On ch=1 n=b5 v=79
65900 On ch=1 n=d#3 v=58
65906 Par ch=1 c=64 v=0
65908 On ch=1 n=f#5 v=46
65910 On ch=1 n=g#5 v=0
65914 On ch=1 n=d#5 v=44
65928 On ch=1 n=a#5 v=0
66100 On ch=1 n=d#3 v=0
66136 On ch=1 n=b5 v=0
66136 Par ch=1 c=64 v=127
66166 On ch=1 n=f#5 v=0
66178 On ch=1 n=f#4 v=63
66186 On ch=1 n=d#5 v=0
66252 On ch=1 n=f#4 v=0
66464 On ch=1 n=g#4 v=45
66470 On ch=1 n=e5 v=66
66476 On ch=1 n=g#5 v=48
66490 On ch=1 n=a#2 v=37
66520 Par ch=1 c=64 v=0
66712 On ch=1 n=a#2 v=0
66720 Par ch=1 c=64 v=127
66732 On ch=1 n=g#5 v=0
66740 On ch=1 n=a#3 v=30
66758 On ch=1 n=c#5 v=72
66786 On ch=1 n=g#4 v=0
66804 On ch=1 n=e5 v=0
66934 On ch=1 n=a#3 v=0
66948 On ch=1 n=c#5 v=0
66974 On ch=1 n=d#3 v=37
67112 On ch=1 n=b4 v=56
67118 On ch=1 n=g#4 v=44
67118 On ch=1 n=d#5 v=46
67134 Par ch=1 c=64 v=0
67444 On ch=1 n=d#4 v=31
67456 On ch=1 n=d#5 v=0
67518 Par ch=1 c=64 v=127
67562 On ch=1 n=b4 v=0
67654 On ch=1 n=g#4 v=0
67802 On ch=1 n=a#4 v=28
67814 On ch=1 n=d#5 v=38
67826 Par ch=1 c=64 v=0
67830 On ch=1 n=g4 v=28
67976 On ch=1 n=d#4 v=0
68088 Par ch=1 c=64 v=127
68140 On ch=1 n=d#3 v=0
68420 On ch=1 n=g#4 v=32
68438 On ch=1 n=g4 v=0
68448 On ch=1 n=g#2 v=18
68470 Par ch=1 c=64 v=0
68506 On ch=1 n=d#5 v=0
68584 On ch=1 n=a#4 v=0
68786 On ch=1 n=g#3 v=21
68882 On ch=1 n=g#2 v=0
68902 Par ch=1 c=64 v=127
69066 On ch=1 n=g#4 v=0
69370 On ch=1 n=g#3 v=0
69396 On ch=1 n=g#5 v=18
69420 On ch=1 n=g#4 v=12
69500 Par ch=1 c=64 v=0
69732 Par ch=1 c=64 v=127
69768 On ch=1 n=g#4 v=0
69874 On ch=1 n=g#5 v=0
70108 On ch=1 n=a5 v=21
70134 On ch=1 n=a4 v=7
70137 On ch=1 n=a3 v=10
70192 Par ch=1 c=64 v=0
70484 Par ch=1 c=64 v=127
70684 On ch=1 n=a3 v=0
70742 On ch=1 n=e5 v=20
70778 On ch=1 n=a4 v=0
70782 On ch=1 n=e3 v=27
70792 Par ch=1 c=64 v=0
70806 On ch=1 n=e4 v=8
70812 On ch=1 n=a5 v=0
70974 On ch=1 n=e4 v=0
70976 Par ch=1 c=64 v=127
71260 On ch=1 n=e3 v=0
71352 On ch=1 n=c#5 v=31
71410 On ch=1 n=c#4 v=11
71414 On ch=1 n=c#3 v=28
71492 On ch=1 n=e5 v=0
71544 Par ch=1 c=64 v=0
71760 Par ch=1 c=64 v=127
71930 On ch=1 n=c#4 v=0
71960 On ch=1 n=c#5 v=0
71972 On ch=1 n=e3 v=33
71978 On ch=1 n=e5 v=38
72000 On ch=1 n=c#3 v=0
72174 Par ch=1 c=64 v=0
72344 Par ch=1 c=64 v=127
72370 On ch=1 n=e5 v=0
72424 On ch=1 n=e3 v=0
72538 On ch=1 n=g#3 v=33
72538 On ch=1 n=g#5 v=33
72558 On ch=1 n=g#4 v=23
72620 Par ch=1 c=64 v=0
72896 Par ch=1 c=64 v=127
73126 On ch=1 n=d#3 v=23
73132 On ch=1 n=d#5 v=38
73134 On ch=1 n=g#3 v=0
73154 On ch=1 n=g#4 v=0
73284 On ch=1 n=g#5 v=0
73356 Par ch=1 c=64 v=0
73526 Par ch=1 c=64 v=127
73658 On ch=1 n=d#3 v=0
73668 On ch=1 n=d#5 v=0
73694 On ch=1 n=b4 v=28
73724 On ch=1 n=b3 v=10
73736 On ch=1 n=b2 v=24
73818 Par ch=1 c=64 v=0
74048 Par ch=1 c=64 v=127
74216 On ch=1 n=b3 v=0
74260 On ch=1 n=b4 v=0
74272 On ch=1 n=d#3 v=17
74298 On ch=1 n=d#5 v=39
74328 On ch=1 n=b2 v=0
74464 Par ch=1 c=64 v=0
74634 Par ch=1 c=64 v=127
74852 On ch=1 n=f#5 v=26
74864 On ch=1 n=f#4 v=25
74882 On ch=1 n=f#3 v=17
74884 On ch=1 n=d#3 v=0
74886 On ch=1 n=d#5 v=0
75018 Par ch=1 c=64 v=0
75216 Par ch=1 c=64 v=127
75368 On ch=1 n=f#4 v=0
75380 On ch=1 n=f#3 v=0
75420 On ch=1 n=e5 v=31
75446 On ch=1 n=e3 v=22
75526 On ch=1 n=f#5 v=0
75680 On ch=1 n=d#5 v=49
75686 On ch=1 n=e3 v=0
75698 On ch=1 n=d#3 v=30
75704 On ch=1 n=d#4 v=18
75734 On ch=1 n=e5 v=0
75790 On ch=1 n=d#4 v=0
75936 On ch=1 n=d#3 v=0
75954 On ch=1 n=c#5 v=45
75964 On ch=1 n=c#3 v=36
75972 On ch=1 n=c#4 v=23
75980 On ch=1 n=d#5 v=0
76046 Par ch=1 c=64 v=0
76246 Par ch=1 c=64 v=127
76292 On ch=1 n=c#4 v=0
76446 On ch=1 n=c#3 v=0
76484 On ch=1 n=b4 v=41
76494 On ch=1 n=c#5 v=0
76510 On ch=1 n=b3 v=10
76526 On ch=1 n=b2 v=19
76584 On ch=1 n=b3 v=0
76756 On ch=1 n=a#3 v=22
76756 On ch=1 n=a#4 v=39
76770 On ch=1 n=a#2 v=35
76776 On ch=1 n=b2 v=0
76812 On ch=1 n=b4 v=0
76860 Par ch=1 c=64 v=0
76998 Par ch=1 c=64 v=127
77056 On ch=1 n=a#3 v=0
77076 On ch=1 n=d#5 v=39
77079 On ch=1 n=d#4 v=25
77089 On ch=1 n=d#3 v=22
77143 On ch=1 n=a#2 v=0
77149 Par ch=1 c=64 v=0
77161 On ch=1 n=a#4 v=0
77379 Par ch=1 c=64 v=127
77417 On ch=1 n=d#4 v=0
77515 On ch=1 n=d#5 v=0
77637 On ch=1 n=d#3 v=0
77653 On ch=1 n=e5 v=39
77669 On ch=1 n=e4 v=26
77683 On ch=1 n=e3 v=40
77733 Par ch=1 c=64 v=0
77979 Par ch=1 c=64 v=127
78091 On ch=1 n=e4 v=0
78227 On ch=1 n=e3 v=0
78231 On ch=1 n=c#5 v=44
78251 On ch=1 n=c#3 v=22
78257 On ch=1 n=c#4 v=15
78311 On ch=1 n=e5 v=0
78333 Par ch=1 c=64 v=0
78547 Par ch=1 c=64 v=127
78691 On ch=1 n=c#4 v=0
78815 On ch=1 n=d#5 v=36
78837 On ch=1 n=d#4 v=26
78839 Par ch=1 c=64 v=0
78841 On ch=1 n=d#3 v=19
78849 On ch=1 n=c#3 v=0
78879 On ch=1 n=c#5 v=0
79133 Par ch=1 c=64 v=127
79259 On ch=1 n=d#3 v=0
79291 On ch=1 n=d#4 v=0
79473 On ch=1 n=c#5 v=38
79493 On ch=1 n=d#5 v=0
79499 On ch=1 n=g4 v=27
79515 On ch=1 n=e4 v=30
79527 On ch=1 n=g#3 v=15
79531 Par ch=1 c=64 v=0
79541 On ch=1 n=g#2 v=19
79823 Par ch=1 c=64 v=127
79905 On ch=1 n=e4 v=0
79975 On ch=1 n=g4 v=0
80155 On ch=1 n=d#4 v=10
80179 On ch=1 n=b4 v=36
80191 Par ch=1 c=64 v=0
80197 On ch=1 n=g#4 v=20
80227 On ch=1 n=c#5 v=0
80453 Par ch=1 c=64 v=127
80541 On ch=1 n=d#4 v=0
80745 On ch=1 n=b4 v=0
80755 On ch=1 n=g#4 v=0
80759 On ch=1 n=a#4 v=22
80777 Par ch=1 c=64 v=0
80787 On ch=1 n=c#4 v=16
80809 On ch=1 n=g4 v=10
80917 On ch=1 n=g#2 v=0
80955 On ch=1 n=c#4 v=0
80961 Par ch=1 c=64 v=127
80973 On ch=1 n=g#3 v=0
81035 On ch=1 n=g4 v=0
81121 On ch=1 n=a#4 v=0
81525 On ch=1 n=g#4 v=10
81525 On ch=1 n=g#6 v=34
81545 On ch=1 n=g#3 v=16
81555 On ch=1 n=g#5 v=22
81591 On ch=1 n=b3 v=19
81683 Par ch=1 c=64 v=0
81811 On ch=1 n=b3 v=0
81851 Par ch=1 c=64 v=127
81861 On ch=1 n=g#3 v=0
81949 On ch=1 n=g#4 v=0
82019 On ch=1 n=g#5 v=0
82137 On ch=1 n=c#4 v=20
82140 On ch=1 n=a6 v=45
82159 Par ch=1 c=64 v=0
82163 On ch=1 n=a5 v=18
82173 On ch=1 n=e4 v=10
82175 On ch=1 n=g#6 v=0
82255 On ch=1 n=e4 v=0
82343 Par ch=1 c=64 v=127
82395 On ch=1 n=a6 v=0
82477 On ch=1 n=a5 v=0
82483 On ch=1 n=e4 v=32
82551 On ch=1 n=e4 v=0
82709 On ch=1 n=e6 v=43
82742 On ch=1 n=e5 v=29
82887 On ch=1 n=e5 v=0
82949 On ch=1 n=e6 v=0
82967 On ch=1 n=a4 v=27
83031 On ch=1 n=a4 v=0
83201 On ch=1 n=c#4 v=0
83225 On ch=1 n=c#6 v=35
83225 On ch=1 n=g#4 v=32
83251 On ch=1 n=c#5 v=24
83269 On ch=1 n=e4 v=32
83331 On ch=1 n=e4 v=0
83505 On ch=1 n=e4 v=37
83572 On ch=1 n=c#5 v=0
83763 On ch=1 n=e6 v=56
83779 On ch=1 n=e5 v=37
83809 On ch=1 n=c#6 v=0
83905 On ch=1 n=e4 v=0
83947 On ch=1 n=e5 v=0
84025 On ch=1 n=e6 v=0
84025 On ch=1 n=c#4 v=38
84189 On ch=1 n=c#4 v=0
84253 On ch=1 n=b3 v=36
84281 On ch=1 n=g#6 v=64
84284 On ch=1 n=d#4 v=38
84299 On ch=1 n=g#5 v=27
84329 On ch=1 n=g#4 v=0
84355 Par ch=1 c=64 v=0
84415 On ch=1 n=d#4 v=0
84525 Par ch=1 c=64 v=127
84597 On ch=1 n=d#4 v=35
84615 On ch=1 n=g#6 v=0
84649 On ch=1 n=g#5 v=0
84681 On ch=1 n=d#4 v=0
84833 On ch=1 n=d#6 v=54
84839 On ch=1 n=d#5 v=48
85005 On ch=1 n=d#6 v=0
85033 On ch=1 n=d#5 v=0
85095 On ch=1 n=g#4 v=45
85173 On ch=1 n=g#4 v=0
85365 On ch=1 n=b3 v=0
85365 On ch=1 n=b5 v=65
85377 On ch=1 n=f#4 v=48
85381 On ch=1 n=b4 v=31
85399 On ch=1 n=d#4 v=44
85459 On ch=1 n=d#4 v=0
85539 Par ch=1 c=64 v=0
85635 On ch=1 n=d#4 v=53
85693 On ch=1 n=b4 v=0
85709 Par ch=1 c=64 v=127
85747 On ch=1 n=b5 v=0
85809 On ch=1 n=d#4 v=0
85883 On ch=1 n=d#6 v=72
85883 On ch=1 n=d#5 v=67
86045 On ch=1 n=d#5 v=0
86125 On ch=1 n=d#6 v=0
86125 On ch=1 n=b3 v=43
86331 On ch=1 n=b3 v=0
86395 On ch=1 n=f#6 v=76
86403 On ch=1 n=f#4 v=0
86405 On ch=1 n=f#5 v=50
86419 On ch=1 n=a#3 v=33
86425 On ch=1 n=c#4 v=39
86477 Par ch=1 c=64 v=0
86511 On ch=1 n=c#4 v=0
86661 Par ch=1 c=64 v=127
86689 On ch=1 n=c#4 v=44
86779 On ch=1 n=f#6 v=0
86813 On ch=1 n=f#5 v=0
86841 On ch=1 n=c#4 v=0
86927 On ch=1 n=e6 v=57
86945 On ch=1 n=e5 v=43
86999 On ch=1 n=e5 v=0
87191 On ch=1 n=e6 v=0
87191 On ch=1 n=d#6 v=62
87205 On ch=1 n=d#5 v=47
87207 On ch=1 n=f#4 v=50
87285 On ch=1 n=f#4 v=0
87309 On ch=1 n=d#5 v=0
87323 On ch=1 n=d#6 v=0
87417 On ch=1 n=a#3 v=0
87463 On ch=1 n=a3 v=25
87466 On ch=1 n=c#6 v=55
87469 On ch=1 n=c#5 v=51
87477 On ch=1 n=e4 v=21
87551 On ch=1 n=e4 v=0
87721 Par ch=1 c=64 v=0
87737 On ch=1 n=e4 v=52
87845 On ch=1 n=c#5 v=0
87889 Par ch=1 c=64 v=127
87977 On ch=1 n=d#6 v=56
87980 On ch=1 n=d#5 v=49
87995 On ch=1 n=e4 v=0
88051 On ch=1 n=c#6 v=0
88059 On ch=1 n=a3 v=0
88099 On ch=1 n=d#5 v=0
88139 On ch=1 n=d#6 v=0
88227 On ch=1 n=e6 v=47
88233 On ch=1 n=c#4 v=34
88241 On ch=1 n=e5 v=39
88275 On ch=1 n=e6 v=0
88297 On ch=1 n=e5 v=0
88317 On ch=1 n=c#4 v=0
88503 On ch=1 n=g#5 v=69
88519 On ch=1 n=g#3 v=36
88787 On ch=1 n=c#4 v=27
88789 On ch=1 n=g#4 v=37
88811 On ch=1 n=e4 v=30
88811 On ch=1 n=c#5 v=31
88817 On ch=1 n=e5 v=41
88857 Par ch=1 c=64 v=0
88897 On ch=1 n=c#5 v=0
88961 On ch=1 n=g#4 v=0
88964 Par ch=1 c=64 v=127
89009 On ch=1 n=e4 v=0
89075 On ch=1 n=a5 v=59
89085 On ch=1 n=g#5 v=0
89115 On ch=1 n=c#4 v=0
89129 On ch=1 n=a3 v=34
89132 On ch=1 n=g#3 v=0
89155 On ch=1 n=e5 v=0
89257 Par ch=1 c=64 v=0
89355 On ch=1 n=c#5 v=46
89355 On ch=1 n=a4 v=41
89379 On ch=1 n=c#4 v=27
89381 Par ch=1 c=64 v=127
89383 On ch=1 n=e4 v=39
89401 On ch=1 n=a5 v=0
89481 On ch=1 n=a4 v=0
89489 On ch=1 n=e4 v=0
89497 On ch=1 n=c#5 v=0
89513 On ch=1 n=c#4 v=0
89573 On ch=1 n=a3 v=0
89609 On ch=1 n=f#5 v=61
89639 On ch=1 n=f#3 v=32
89893 On ch=1 n=f#4 v=35
89903 Par ch=1 c=64 v=0
89909 On ch=1 n=d#5 v=40
89929 On ch=1 n=d#4 v=29
89931 On ch=1 n=c#5 v=31
89951 On ch=1 n=c#4 v=21
90055 Par ch=1 c=64 v=127
90057 On ch=1 n=f#4 v=0
90063 On ch=1 n=c#4 v=0
90095 On ch=1 n=d#5 v=0
90097 On ch=1 n=f#5 v=0
90105 On ch=1 n=d#4 v=0
90113 On ch=1 n=c#5 v=0
90253 On ch=1 n=g#5 v=55
90269 On ch=1 n=g#3 v=40
90301 On ch=1 n=f#3 v=0
90409 Par ch=1 c=64 v=0
90569 On ch=1 n=g#4 v=27
90591 On ch=1 n=d#5 v=34
90609 On ch=1 n=c4 v=22
90609 Par ch=1 c=64 v=127
90609 On ch=1 n=d#4 v=24
90637 On ch=1 n=g#5 v=0
90647 On ch=1 n=c5 v=4
90659 On ch=1 n=d#5 v=0
90679 On ch=1 n=c4 v=0
90679 On ch=1 n=d#4 v=0
90695 On ch=1 n=c5 v=0
90747 On ch=1 n=g#3 v=0
90753 On ch=1 n=g#4 v=0
91089 On ch=1 n=c#5 v=52
91095 On ch=1 n=f#4 v=51
91135 On ch=1 n=a3 v=28
91153 On ch=1 n=c#3 v=28
91743 On ch=1 n=g#3 v=30
91747 On ch=1 n=e4 v=50
91775 On ch=1 n=a3 v=0
91797 On ch=1 n=f#4 v=0
91823 Par ch=1 c=64 v=0
92147 Par ch=1 c=64 v=127
92443 On ch=1 n=d#4 v=36
92465 On ch=1 n=g#3 v=0
92465 On ch=1 n=f#3 v=19
92473 On ch=1 n=e4 v=0
92499 Par ch=1 c=64 v=0
92729 Par ch=1 c=64 v=127
92779 On ch=1 n=d#4 v=0
92805 On ch=1 n=f#3 v=0
92893 On ch=1 n=c#5 v=0
93273 On ch=1 n=c#6 v=64
93285 On ch=1 n=c#4 v=22
93287 On ch=1 n=c#5 v=50
93307 On ch=1 n=e3 v=37
93567 On ch=1 n=c#5 v=0
93625 On ch=1 n=c#6 v=0
93765 On ch=1 n=d#6 v=83
93775 On ch=1 n=d#5 v=70
93949 On ch=1 n=c#3 v=0
93961 On ch=1 n=e3 v=0
94013 On ch=1 n=d#5 v=0
94097 On ch=1 n=d#6 v=0
94147 On ch=1 n=c#4 v=0
94170 On ch=1 n=e6 v=80
94174 On ch=1 n=g#5 v=46
94177 On ch=1 n=e5 v=67
94177 On ch=1 n=c#6 v=47
94209 On ch=1 n=c#3 v=39
94451 Par ch=1 c=64 v=0
94773 Par ch=1 c=64 v=127
94797 On ch=1 n=c#4 v=35
94799 On ch=1 n=g#3 v=41
94893 On ch=1 n=c#3 v=0
95123 On ch=1 n=c#4 v=0
95149 On ch=1 n=g#3 v=0
95425 On ch=1 n=g#4 v=34
95479 On ch=1 n=e4 v=26
95567 On ch=1 n=e4 v=0
95669 On ch=1 n=e6 v=0
95747 On ch=1 n=e4 v=21
95769 On ch=1 n=e5 v=0
95839 On ch=1 n=c#6 v=0
95909 On ch=1 n=g#5 v=0
96225 On ch=1 n=d#6 v=57
96239 On ch=1 n=d#5 v=42
96293 On ch=1 n=g#4 v=0
96535 On ch=1 n=d#5 v=0
96563 On ch=1 n=e4 v=0
96617 On ch=1 n=d#6 v=0
96705 On ch=1 n=e6 v=56
96725 On ch=1 n=e5 v=36
96899 On ch=1 n=e5 v=0
96925 On ch=1 n=e6 v=0
97251 On ch=1 n=d#6 v=38
97254 On ch=1 n=d#5 v=32
97254 On ch=1 n=g#5 v=31
97283 On ch=1 n=c#6 v=23
97291 On ch=1 n=c#3 v=22
97323 Par ch=1 c=64 v=0
97585 Par ch=1 c=64 v=127
97655 On ch=1 n=c#3 v=0
98019 On ch=1 n=g#3 v=22
98031 On ch=1 n=c#4 v=29
98129 On ch=1 n=c#4 v=0
98579 On ch=1 n=g#3 v=0
98727 On ch=1 n=g#4 v=25
98777 On ch=1 n=d#4 v=4
98943 On ch=1 n=c#6 v=0
99119 On ch=1 n=g#5 v=0
99149 On ch=1 n=d#6 v=0
99189 On ch=1 n=d#5 v=0
99263 On ch=1 n=g#5 v=25
99329 On ch=1 n=c#6 v=62
99339 On ch=1 n=c#5 v=48
99587 On ch=1 n=c#5 v=0
99661 On ch=1 n=g#4 v=0
99695 On ch=1 n=g#5 v=0
99741 On ch=1 n=d#4 v=0
99757 On ch=1 n=d#6 v=84
99763 On ch=1 n=d#5 v=68
99859 On ch=1 n=c#6 v=0
99971 On ch=1 n=d#5 v=0
100119 On ch=1 n=d#6 v=0
100279 On ch=1 n=f#6 v=80
100291 On ch=1 n=g#5 v=48
100291 On ch=1 n=f#5 v=50
100305 On ch=1 n=c#6 v=43
100325 On ch=1 n=c#3 v=32
100473 Par ch=1 c=64 v=0
100627 Par ch=1 c=64 v=127
100677 On ch=1 n=c#3 v=0
100971 On ch=1 n=g#3 v=36
100973 On ch=1 n=c#4 v=41
100983 On ch=1 n=g#5 v=0
101061 On ch=1 n=f#6 v=0
101133 On ch=1 n=f#5 v=0
101253 On ch=1 n=e6 v=77
101261 On ch=1 n=e5 v=74
101305 On ch=1 n=c#6 v=0
101417 On ch=1 n=e5 v=0
101621 On ch=1 n=e4 v=33
101633 On ch=1 n=d#6 v=81
101645 On ch=1 n=d#5 v=68
101657 On ch=1 n=g#4 v=32
101695 On ch=1 n=e6 v=0
101723 On ch=1 n=c#4 v=0
101911 On ch=1 n=d#5 v=0
101979 On ch=1 n=e6 v=87
101991 On ch=1 n=e5 v=77
101993 On ch=1 n=d#6 v=0
102119 On ch=1 n=e5 v=0
102191 On ch=1 n=e6 v=0
102319 On ch=1 n=f#6 v=84
102322 On ch=1 n=f#5 v=56
102326 On ch=1 n=g#4 v=0
102375 On ch=1 n=e4 v=0
102471 On ch=1 n=f#5 v=0
102481 On ch=1 n=f#6 v=0
102575 On ch=1 n=g#3 v=0
102611 On ch=1 n=e6 v=87
102617 On ch=1 n=e5 v=76
102667 On ch=1 n=e5 v=0
102735 On ch=1 n=e6 v=0
102923 On ch=1 n=d#6 v=72
102933 On ch=1 n=d#5 v=65
102945 On ch=1 n=g#5 v=42
102947 On ch=1 n=c#6 v=52
102961 On ch=1 n=c#3 v=28
102979 Par ch=1 c=64 v=0
103179 Par ch=1 c=64 v=127
103203 On ch=1 n=c#3 v=0
103235 On ch=1 n=d#5 v=0
103257 On ch=1 n=d#6 v=0
103347 On ch=1 n=e6 v=68
103351 On ch=1 n=e5 v=67
103529 On ch=1 n=e5 v=0
103545 On ch=1 n=e6 v=0
103691 On ch=1 n=g#3 v=25
103694 On ch=1 n=c#4 v=29
103779 On ch=1 n=d#6 v=61
103779 On ch=1 n=d#5 v=57
104055 Par ch=1 c=64 v=0
104175 On ch=1 n=g#5 v=0
104193 Par ch=1 c=64 v=127
104259 On ch=1 n=c#6 v=0
104415 On ch=1 n=c#4 v=0
104555 On ch=1 n=c6 v=30
104591 On ch=1 n=g#4 v=10
104591 On ch=1 n=f#5 v=20
104593 On ch=1 n=d#4 v=15
104607 Par ch=1 c=64 v=0
105021 Par ch=1 c=64 v=127
105077 On ch=1 n=g#3 v=0
105123 On ch=1 n=d#4 v=0
105215 On ch=1 n=d#5 v=0
105249 On ch=1 n=g#4 v=0
105389 On ch=1 n=d#6 v=0
105735 On ch=1 n=f#4 v=17
105739 On ch=1 n=c5 v=11
105925 On ch=1 n=c6 v=0
106285 On ch=1 n=c5 v=0
106361 On ch=1 n=c#6 v=26
106391 On ch=1 n=c#5 v=22
106503 On ch=1 n=f#4 v=0
106585 On ch=1 n=f#5 v=0
106771 On ch=1 n=c#5 v=0
106779 On ch=1 n=c#6 v=0
107207 On ch=1 n=c#6 v=24
107226 On ch=1 n=c#5 v=15
107231 On ch=1 n=g#5 v=17
107235 Par ch=1 c=64 v=0
107241 On ch=1 n=e5 v=28
107243 On ch=1 n=c#3 v=19
107495 Par ch=1 c=64 v=127
107559 On ch=1 n=c#3 v=0
107571 On ch=1 n=c#5 v=0
107637 On ch=1 n=e5 v=0
107711 On ch=1 n=g#5 v=0
107783 On ch=1 n=c#6 v=0
108157 On ch=1 n=g#3 v=20
108161 On ch=1 n=g#4 v=4
108187 On ch=1 n=e4 v=18
108357 On ch=1 n=g#4 v=0
108467 On ch=1 n=e4 v=0
109663 On ch=1 n=c#4 v=18
110009 On ch=1 n=g#3 v=0
110275 On ch=1 n=c#4 v=0
113101 On ch=1 n=e5 v=38
113151 Par ch=1 c=64 v=0
113441 Par ch=1 c=64 v=127
113449 On ch=1 n=c#5 v=27
113505 On ch=1 n=a2 v=19
113627 On ch=1 n=a2 v=0
113709 On ch=1 n=c#5 v=0
113729 On ch=1 n=e4 v=44
113815 On ch=1 n=e4 v=0
113971 On ch=1 n=c#5 v=48
114039 On ch=1 n=e5 v=0
114039 On ch=1 n=c#5 v=0
114225 On ch=1 n=f6 v=76
114249 On ch=1 n=f5 v=36
114261 On ch=1 n=d5 v=36
114317 Par ch=1 c=64 v=0
114471 On ch=1 n=b4 v=34
114533 Par ch=1 c=64 v=127
114551 On ch=1 n=d5 v=0
114621 On ch=1 n=b4 v=0
114711 On ch=1 n=e4 v=28
114779 On ch=1 n=f6 v=0
114795 On ch=1 n=e4 v=0
114889 On ch=1 n=f5 v=0
114953 On ch=1 n=b4 v=30
115031 On ch=1 n=b4 v=0
115167 On ch=1 n=e6 v=35
115205 On ch=1 n=e5 v=11
115351 Par ch=1 c=64 v=0
115383 On ch=1 n=c#6 v=36
115385 On ch=1 n=a3 v=28
115435 On ch=1 n=e5 v=0
115577 Par ch=1 c=64 v=127
115589 On ch=1 n=a3 v=0
115605 On ch=1 n=c#6 v=0
115613 On ch=1 n=e5 v=51
115683 On ch=1 n=e5 v=0
115863 On ch=1 n=c#6 v=51
115893 On ch=1 n=e6 v=0
115909 On ch=1 n=c#6 v=0
116167 On ch=1 n=f6 v=39
116177 Par ch=1 c=64 v=0
116180 On ch=1 n=b7 v=68
116187 On ch=1 n=b6 v=95
116453 Par ch=1 c=64 v=127
116471 On ch=1 n=f6 v=0
116507 On ch=1 n=d6 v=36
116589 On ch=1 n=d6 v=0
116659 On ch=1 n=b7 v=0
116663 On ch=1 n=b6 v=0
116765 On ch=1 n=e5 v=22
116839 On ch=1 n=e5 v=0
117009 On ch=1 n=d6 v=36
117073 On ch=1 n=d6 v=0
117253 On ch=1 n=g#6 v=48
117513 Par ch=1 c=64 v=0
117561 On ch=1 n=a3 v=30
117563 On ch=1 n=e6 v=34
117789 Par ch=1 c=64 v=127
117803 On ch=1 n=a3 v=0
117815 On ch=1 n=g#5 v=30
117821 On ch=1 n=e6 v=0
117963 On ch=1 n=g#5 v=0
118079 On ch=1 n=e6 v=35
118105 On ch=1 n=g#6 v=0
118309 On ch=1 n=a6 v=76
118313 On ch=1 n=f#5 v=26
118327 On ch=1 n=a5 v=22
118347 On ch=1 n=e6 v=0
118373 Par ch=1 c=64 v=0
118559 Par ch=1 c=64 v=127
118591 On ch=1 n=d5 v=24
118621 On ch=1 n=f#5 v=0
118657 On ch=1 n=a5 v=0
118669 On ch=1 n=d5 v=0
118681 On ch=1 n=a6 v=0
118803 On ch=1 n=f#4 v=36
118947 On ch=1 n=f#4 v=0
119061 On ch=1 n=d5 v=35
119115 On ch=1 n=d5 v=0
119359 On ch=1 n=c6 v=56
119387 On ch=1 n=c5 v=32
119681 On ch=1 n=a2 v=23
119733 Par ch=1 c=64 v=0
119901 On ch=1 n=f#3 v=35
119947 On ch=1 n=a2 v=0
119971 Par ch=1 c=64 v=127
120085 On ch=1 n=f#3 v=0
120163 On ch=1 n=a3 v=39
120215 On ch=1 n=d#5 v=58
120218 On ch=1 n=a3 v=0
120484 On ch=1 n=c4 v=27
120768 On ch=1 n=f#5 v=65
120790 On ch=1 n=d#4 v=38
120982 On ch=1 n=c5 v=0
120984 On ch=1 n=d#5 v=0
121024 On ch=1 n=f#4 v=49
121138 On ch=1 n=c4 v=0
121198 On ch=1 n=f#4 v=0
121208 On ch=1 n=d#4 v=0
121246 On ch=1 n=g#5 v=74
121278 On ch=1 n=b4 v=36
121348 On ch=1 n=f#5 v=0
121410 On ch=1 n=b4 v=0
121454 On ch=1 n=g#5 v=0
121500 On ch=1 n=a4 v=39
121556 On ch=1 n=a4 v=0
121754 On ch=1 n=b5 v=68
121754 On ch=1 n=f#4 v=43
121890 Par ch=1 c=64 v=0
122006 On ch=1 n=f#4 v=0
122012 On ch=1 n=d#4 v=39
122064 On ch=1 n=d#4 v=0
122074 Par ch=1 c=64 v=127
122232 On ch=1 n=c4 v=27
122234 On ch=1 n=a5 v=45
122350 On ch=1 n=c4 v=0
122362 On ch=1 n=b5 v=0
122454 On ch=1 n=a3 v=28
122564 On ch=1 n=a3 v=0
122746 On ch=1 n=f#5 v=43
122782 On ch=1 n=a3 v=4
122932 On ch=1 n=a5 v=0
122934 Par ch=1 c=64 v=0
123072 On ch=1 n=c4 v=23
123086 On ch=1 n=a3 v=0
123118 Par ch=1 c=64 v=127
123120 On ch=1 n=c6 v=0
123170 On ch=1 n=c4 v=0
123184 On ch=1 n=f#5 v=0
123450 On ch=1 n=d#4 v=10
123562 On ch=1 n=d#4 v=0
123952 On ch=1 n=e5 v=43
124224 On ch=1 n=c#5 v=35
124240 Par ch=1 c=64 v=0
124254 On ch=1 n=a2 v=24
124456 Par ch=1 c=64 v=127
124464 On ch=1 n=c#5 v=0
124470 On ch=1 n=a2 v=0
124498 On ch=1 n=e4 v=30
124584 On ch=1 n=e4 v=0
124728 On ch=1 n=c#5 v=59
124774 On ch=1 n=c#5 v=0
124778 On ch=1 n=e5 v=0
125022 On ch=1 n=f6 v=78
125046 On ch=1 n=d5 v=31
125062 On ch=1 n=f5 v=16
125178 Par ch=1 c=64 v=0
125280 On ch=1 n=b4 v=36
125362 Par ch=1 c=64 v=127
125392 On ch=1 n=d5 v=0
125414 On ch=1 n=b4 v=0
125512 On ch=1 n=e4 v=45
125578 On ch=1 n=e4 v=0
125718 On ch=1 n=f6 v=0
125748 On ch=1 n=b4 v=39
125808 On ch=1 n=f5 v=0
125848 On ch=1 n=b4 v=0
125942 On ch=1 n=e6 v=61
126176 Par ch=1 c=64 v=0
126178 On ch=1 n=c#6 v=38
126184 On ch=1 n=a3 v=37
126362 On ch=1 n=c#6 v=0
126365 On ch=1 n=a3 v=0
126376 Par ch=1 c=64 v=127
126428 On ch=1 n=e5 v=38
126502 On ch=1 n=e5 v=0
126648 On ch=1 n=c#6 v=61
126678 On ch=1 n=e6 v=0
126688 On ch=1 n=c#6 v=0
126928 On ch=1 n=d#6 v=46
126970 On ch=1 n=c#7 v=66
126974 On ch=1 n=c#8 v=84
127068 Par ch=1 c=64 v=0
127242 On ch=1 n=f#5 v=31
127252 Par ch=1 c=64 v=127
127294 On ch=1 n=d#6 v=0
127320 On ch=1 n=c#8 v=0
127358 On ch=1 n=c#7 v=0
127472 On ch=1 n=f#5 v=0
127494 On ch=1 n=d#5 v=44
127750 On ch=1 n=f#5 v=38
127764 On ch=1 n=d#5 v=0
127828 On ch=1 n=f#5 v=0
127950 On ch=1 n=f#6 v=65
128204 Par ch=1 c=64 v=0
128207 On ch=1 n=g#3 v=37
128218 On ch=1 n=d#6 v=40
128404 Par ch=1 c=64 v=127
128436 On ch=1 n=g#3 v=0
128438 On ch=1 n=d#6 v=0
128438 On ch=1 n=f#5 v=36
128498 On ch=1 n=f#5 v=0
128582 On ch=1 n=f#6 v=0
128660 On ch=1 n=d#6 v=54
128882 On ch=1 n=b6 v=105
128888 On ch=1 n=e5 v=41
128892 On ch=1 n=b5 v=58
128912 On ch=1 n=d#6 v=0
128956 Par ch=1 c=64 v=0
129096 On ch=1 n=g#4 v=44
129142 Par ch=1 c=64 v=127
129152 On ch=1 n=b5 v=0
129184 On ch=1 n=b6 v=0
129188 On ch=1 n=e5 v=0
129294 On ch=1 n=g#4 v=0
129322 On ch=1 n=e4 v=49
129408 On ch=1 n=e4 v=0
129584 On ch=1 n=g#4 v=47
129686 On ch=1 n=g#4 v=0
129812 On ch=1 n=b5 v=79
129820 On ch=1 n=b4 v=47
130048 Par ch=1 c=64 v=0
130050 On ch=1 n=f#3 v=51
130264 On ch=1 n=c#4 v=55
130294 Par ch=1 c=64 v=127
130314 On ch=1 n=f#3 v=0
130478 On ch=1 n=c#4 v=0
130484 On ch=1 n=c#5 v=74
130518 On ch=1 n=e4 v=52
130534 On ch=1 n=b5 v=0
130624 On ch=1 n=e4 v=0
130630 On ch=1 n=b4 v=0
130706 On ch=1 n=f#3 v=51
130750 On ch=1 n=f#3 v=0
130916 On ch=1 n=a5 v=54
130921 On ch=1 n=a4 v=41
130924 On ch=1 n=e5 v=73
130926 On ch=1 n=b2 v=39
130940 Par ch=1 c=64 v=0
130994 On ch=1 n=c#5 v=0
131130 On ch=1 n=b2 v=0
131154 On ch=1 n=b3 v=48
131186 Par ch=1 c=64 v=127
131200 On ch=1 n=b3 v=0
131344 On ch=1 n=a4 v=0
131412 On ch=1 n=f#4 v=58
131422 On ch=1 n=a5 v=0
131460 On ch=1 n=d#5 v=73
131524 On ch=1 n=e5 v=0
131588 On ch=1 n=f#4 v=0
131680 On ch=1 n=b3 v=49
131726 On ch=1 n=b3 v=0
131970 Par ch=1 c=64 v=0
132024 On ch=1 n=e2 v=33
132034 On ch=1 n=g#4 v=43
132040 On ch=1 n=f#5 v=47
132050 On ch=1 n=g#5 v=32
132132 On ch=1 n=d#5 v=0
132286 On ch=1 n=e2 v=0
132354 Par ch=1 c=64 v=127
132364 On ch=1 n=e3 v=46
132478 On ch=1 n=e3 v=0
132604 On ch=1 n=g#3 v=41
132640 On ch=1 n=e5 v=44
132656 On ch=1 n=e3 v=2
132768 Par ch=1 c=64 v=0
132834 On ch=1 n=f#5 v=0
132860 On ch=1 n=b3 v=41
132922 Par ch=1 c=64 v=127
132964 On ch=1 n=g#3 v=0
133004 On ch=1 n=g#4 v=0
133026 On ch=1 n=e3 v=0
133072 On ch=1 n=b3 v=0
133150 On ch=1 n=e4 v=40
133168 On ch=1 n=d5 v=43
133178 On ch=1 n=e5 v=0
133260 Par ch=1 c=64 v=0
133398 Par ch=1 c=64 v=127
133408 On ch=1 n=e4 v=0
133454 On ch=1 n=g#4 v=30
133490 On ch=1 n=g#5 v=0
133500 On ch=1 n=d5 v=0
133618 On ch=1 n=g#4 v=0
133876 On ch=1 n=b4 v=27
133972 On ch=1 n=b4 v=0
134340 On ch=1 n=e5 v=42
134672 Par ch=1 c=64 v=0
134676 On ch=1 n=c#5 v=24
134692 On ch=1 n=a2 v=24
134934 Par ch=1 c=64 v=127
134940 On ch=1 n=c#5 v=0
134972 On ch=1 n=e4 v=36
134976 On ch=1 n=a2 v=0
135048 On ch=1 n=e4 v=0
135202 On ch=1 n=c#5 v=58
135246 On ch=1 n=e5 v=0
135246 On ch=1 n=c#5 v=0
135534 On ch=1 n=f6 v=75
135554 On ch=1 n=d5 v=28
135564 On ch=1 n=f5 v=15
135688 Par ch=1 c=64 v=0
135840 On ch=1 n=b4 v=20
135910 On ch=1 n=d5 v=0
135918 Par ch=1 c=64 v=127
135944 On ch=1 n=b4 v=0
136046 On ch=1 n=e4 v=45
136112 On ch=1 n=e4 v=0
136232 On ch=1 n=f6 v=0
136308 On ch=1 n=b4 v=44
136394 On ch=1 n=b4 v=0
136510 On ch=1 n=e6 v=59
136596 On ch=1 n=f5 v=0
136732 Par ch=1 c=64 v=0
136744 On ch=1 n=c#6 v=47
136748 On ch=1 n=a3 v=34
136916 On ch=1 n=c#6 v=0
136948 On ch=1 n=a3 v=0
136948 Par ch=1 c=64 v=127
136974 On ch=1 n=e5 v=43
137040 On ch=1 n=e5 v=0
137194 On ch=1 n=c#6 v=56
137224 On ch=1 n=e6 v=0
137240 On ch=1 n=c#6 v=0
137498 On ch=1 n=f6 v=37
137501 Par ch=1 c=64 v=0
137524 On ch=1 n=b7 v=73
137538 On ch=1 n=b6 v=71
137700 Par ch=1 c=64 v=127
137732 On ch=1 n=f6 v=0
137766 On ch=1 n=b6 v=0
137792 On ch=1 n=d6 v=34
137814 On ch=1 n=b7 v=0
137884 On ch=1 n=d6 v=0
138044 On ch=1 n=e5 v=29
138108 On ch=1 n=e5 v=0
138258 On ch=1 n=d6 v=42
138314 On ch=1 n=d6 v=0
138482 On ch=1 n=g#6 v=70
138698 Par ch=1 c=64 v=0
138728 On ch=1 n=a3 v=30
138731 On ch=1 n=e6 v=29
138914 Par ch=1 c=64 v=127
138922 On ch=1 n=g#5 v=35
138938 On ch=1 n=e6 v=0
138944 On ch=1 n=a3 v=0
139062 On ch=1 n=g#5 v=0
139156 On ch=1 n=e6 v=56
139196 On ch=1 n=g#6 v=0
139404 On ch=1 n=a6 v=73
139404 On ch=1 n=f#5 v=27
139416 On ch=1 n=a5 v=27
139464 On ch=1 n=e6 v=0
139482 Par ch=1 c=64 v=0
139650 Par ch=1 c=64 v=127
139678 On ch=1 n=d5 v=25
139686 On ch=1 n=a5 v=0
139692 On ch=1 n=f#5 v=0
139756 On ch=1 n=d5 v=0
139762 On ch=1 n=a6 v=0
139870 On ch=1 n=f#4 v=43
139944 On ch=1 n=f#4 v=0
140114 On ch=1 n=d5 v=38
140168 On ch=1 n=d5 v=0
140376 On ch=1 n=c6 v=59
140390 On ch=1 n=c5 v=41
140604 Par ch=1 c=64 v=0
140622 On ch=1 n=a2 v=37
140834 Par ch=1 c=64 v=127
140838 On ch=1 n=f#3 v=44
140850 On ch=1 n=a2 v=0
140918 On ch=1 n=f#3 v=0
141062 On ch=1 n=a3 v=37
141078 On ch=1 n=d#5 v=50
141128 On ch=1 n=a3 v=0
141299 On ch=1 n=c4 v=37
141506 On ch=1 n=f#5 v=57
141516 On ch=1 n=d#4 v=40
141652 On ch=1 n=d#5 v=0
141702 On ch=1 n=c4 v=0
141724 On ch=1 n=f#4 v=59
141800 On ch=1 n=d#4 v=0
141896 On ch=1 n=f#4 v=0
141914 On ch=1 n=g#5 v=69
141928 On ch=1 n=b4 v=51
142036 On ch=1 n=f#5 v=0
142104 On ch=1 n=g#5 v=0
142106 On ch=1 n=b4 v=0
142132 On ch=1 n=a4 v=39
142332 On ch=1 n=a4 v=0
142372 On ch=1 n=b5 v=75
142380 On ch=1 n=f#4 v=35
142432 Par ch=1 c=64 v=0
142596 On ch=1 n=f#4 v=0
142604 On ch=1 n=d#4 v=38
142618 Par ch=1 c=64 v=127
142694 On ch=1 n=d#4 v=0
142846 On ch=1 n=c4 v=28
142920 On ch=1 n=a5 v=43
142980 On ch=1 n=b5 v=0
143048 On ch=1 n=c4 v=0
143120 On ch=1 n=b3 v=25
143216 On ch=1 n=b3 v=0
143330 On ch=1 n=a3 v=31
143398 On ch=1 n=f#5 v=36
143400 Par ch=1 c=64 v=0
143452 On ch=1 n=a5 v=0
143570 Par ch=1 c=64 v=127
143594 On ch=1 n=c5 v=0
143594 On ch=1 n=a3 v=0
143600 On ch=1 n=c6 v=0
143608 On ch=1 n=c4 v=25
143688 On ch=1 n=f#5 v=0
143732 On ch=1 n=c4 v=0
143850 On ch=1 n=d#4 v=27
143936 On ch=1 n=d#4 v=0
144086 On ch=1 n=e5 v=35
144322 Par ch=1 c=64 v=0
144340 On ch=1 n=c#5 v=36
144364 On ch=1 n=a2 v=25
144512 On ch=1 n=c#5 v=0
144560 On ch=1 n=e4 v=52
144563 On ch=1 n=a2 v=0
144600 Par ch=1 c=64 v=127
144628 On ch=1 n=e4 v=0
144756 On ch=1 n=c#5 v=61
144794 On ch=1 n=e5 v=0
144800 On ch=1 n=c#5 v=0
145038 On ch=1 n=d5 v=29
145060 On ch=1 n=f6 v=75
145078 On ch=1 n=f5 v=36
145244 Par ch=1 c=64 v=0
145272 On ch=1 n=b4 v=39
145452 On ch=1 n=b4 v=0
145470 On ch=1 n=d5 v=0
145488 On ch=1 n=e4 v=58
145491 Par ch=1 c=64 v=127
145566 On ch=1 n=e4 v=0
145690 On ch=1 n=f6 v=0
145710 On ch=1 n=b4 v=59
145760 On ch=1 n=b4 v=0
145810 On ch=1 n=f5 v=0
145902 On ch=1 n=e6 v=79
146120 Par ch=1 c=64 v=0
146122 On ch=1 n=c#6 v=64
146134 On ch=1 n=a3 v=39
146320 On ch=1 n=c#6 v=0
146320 Par ch=1 c=64 v=127
146323 On ch=1 n=a3 v=0
146344 On ch=1 n=e5 v=64
146428 On ch=1 n=e5 v=0
146594 On ch=1 n=c#6 v=60
146626 On ch=1 n=e6 v=0
146634 On ch=1 n=c#6 v=0
146918 Par ch=1 c=64 v=0
146924 On ch=1 n=d#6 v=37
146934 On ch=1 n=c#8 v=65
146936 On ch=1 n=c#7 v=54
147134 Par ch=1 c=64 v=127
147194 On ch=1 n=f#5 v=16
147252 On ch=1 n=d#6 v=0
147288 On ch=1 n=c#8 v=0
147308 On ch=1 n=f#5 v=0
147358 On ch=1 n=c#7 v=0
147396 On ch=1 n=d#5 v=44
147576 On ch=1 n=d#5 v=0
147628 On ch=1 n=f#5 v=33
147688 On ch=1 n=f#5 v=0
147820 On ch=1 n=f#6 v=57
148072 Par ch=1 c=64 v=0
148092 On ch=1 n=d#6 v=31
148100 On ch=1 n=g#3 v=38
148272 Par ch=1 c=64 v=127
148292 On ch=1 n=g#3 v=0
148316 On ch=1 n=d#6 v=0
148316 On ch=1 n=f#5 v=36
148380 On ch=1 n=f#5 v=0
148546 On ch=1 n=d#6 v=55
148562 On ch=1 n=f#6 v=0
148792 On ch=1 n=b6 v=97
148802 On ch=1 n=b5 v=51
148808 On ch=1 n=d#6 v=0
148810 Par ch=1 c=64 v=0
148826 On ch=1 n=e5 v=30
149010 On ch=1 n=g#4 v=41
149024 Par ch=1 c=64 v=127
149034 On ch=1 n=b5 v=0
149088 On ch=1 n=b6 v=0
149102 On ch=1 n=e5 v=0
149194 On ch=1 n=g#4 v=0
149226 On ch=1 n=e4 v=54
149314 On ch=1 n=e4 v=0
149460 On ch=1 n=g#4 v=42
149546 On ch=1 n=g#4 v=0
149748 On ch=1 n=b5 v=64
149770 On ch=1 n=b4 v=43
150008 Par ch=1 c=64 v=0
150022 On ch=1 n=f#3 v=43
150232 On ch=1 n=c#4 v=54
150314 Par ch=1 c=64 v=127
150328 On ch=1 n=c#4 v=0
150368 On ch=1 n=f#3 v=0
150452 On ch=1 n=c#5 v=68
150468 On ch=1 n=e4 v=43
150536 On ch=1 n=b5 v=0
150562 On ch=1 n=e4 v=0
150674 On ch=1 n=b4 v=0
150686 On ch=1 n=f#3 v=41
150734 On ch=1 n=f#3 v=0
150908 On ch=1 n=b2 v=42
150920 On ch=1 n=e5 v=74
150920 On ch=1 n=a5 v=57
150930 Par ch=1 c=64 v=0
150938 On ch=1 n=a4 v=36
150988 On ch=1 n=c#5 v=0
151104 On ch=1 n=b2 v=0
151136 On ch=1 n=b3 v=48
151176 Par ch=1 c=64 v=127
151186 On ch=1 n=b3 v=0
151288 On ch=1 n=a4 v=0
151336 On ch=1 n=a5 v=0
151346 On ch=1 n=d#5 v=78
151348 On ch=1 n=f#4 v=53
151416 On ch=1 n=f#4 v=0
151434 On ch=1 n=e5 v=0
151584 On ch=1 n=b3 v=41
151638 On ch=1 n=b3 v=0
151820 Par ch=1 c=64 v=0
151856 On ch=1 n=f#5 v=47
151859 On ch=1 n=g#5 v=27
151866 On ch=1 n=g#4 v=40
151886 On ch=1 n=e2 v=20
151942 On ch=1 n=d#5 v=0
152068 On ch=1 n=e2 v=0
152130 On ch=1 n=e3 v=36
152158 Par ch=1 c=64 v=127
152250 On ch=1 n=e3 v=0
152384 On ch=1 n=g#3 v=31
152394 On ch=1 n=e5 v=46
152446 On ch=1 n=e3 v=12
152580 On ch=1 n=f#5 v=0
152634 Par ch=1 c=64 v=0
152658 On ch=1 n=b3 v=19
152806 On ch=1 n=g#3 v=0
152834 Par ch=1 c=64 v=127
152839 On ch=1 n=e3 v=0
152894 On ch=1 n=b3 v=0
152914 On ch=1 n=g#4 v=0
152956 On ch=1 n=e4 v=28
152958 On ch=1 n=d5 v=35
152964 On ch=1 n=e5 v=0
153074 On ch=1 n=g#5 v=0
153110 On ch=1 n=d5 v=0
153142 On ch=1 n=e4 v=0
153198 On ch=1 n=g#4 v=26
153328 On ch=1 n=g#4 v=0
153514 On ch=1 n=b4 v=31
153606 On ch=1 n=b4 v=0
153914 On ch=1 n=c#5 v=44
154226 On ch=1 n=f3 v=50
154238 On ch=1 n=g#4 v=23
154264 Par ch=1 c=64 v=0
154472 On ch=1 n=g#4 v=0
154475 On ch=1 n=c#4 v=41
154562 On ch=1 n=c#4 v=0
154570 Par ch=1 c=64 v=127
154596 On ch=1 n=f3 v=0
154726 On ch=1 n=g#4 v=57
154730 On ch=1 n=c#5 v=0
154772 On ch=1 n=g#4 v=0
155040 On ch=1 n=d6 v=88
155056 On ch=1 n=b4 v=24
155062 On ch=1 n=d5 v=42
155250 On ch=1 n=g#4 v=50
155468 On ch=1 n=b4 v=0
155498 On ch=1 n=c#4 v=53
155501 On ch=1 n=g#4 v=0
155602 On ch=1 n=d5 v=0
155608 On ch=1 n=c#4 v=0
155666 On ch=1 n=d6 v=0
155722 On ch=1 n=g#4 v=51
155820 On ch=1 n=g#4 v=0
155926 On ch=1 n=c#6 v=57
156156 On ch=1 n=g5 v=44
156174 On ch=1 n=e3 v=60
156246 Par ch=1 c=64 v=0
156376 On ch=1 n=c#5 v=60
156414 On ch=1 n=g5 v=0
156416 On ch=1 n=e3 v=0
156430 Par ch=1 c=64 v=127
156498 On ch=1 n=c#5 v=0
156632 On ch=1 n=g5 v=63
156644 On ch=1 n=c#6 v=0
156678 On ch=1 n=g5 v=0
156920 On ch=1 n=a#5 v=43
156956 On ch=1 n=d7 v=91
156972 On ch=1 n=d6 v=64
157230 Par ch=1 c=64 v=0
157244 On ch=1 n=g5 v=44
157352 Par ch=1 c=64 v=127
157456 On ch=1 n=a#5 v=0
157466 On ch=1 n=d6 v=0
157472 On ch=1 n=d7 v=0
157474 On ch=1 n=g5 v=0
157494 On ch=1 n=a#4 v=32
157586 On ch=1 n=a#4 v=0
157774 On ch=1 n=g5 v=41
157834 On ch=1 n=g5 v=0
158012 On ch=1 n=c#6 v=50
158268 On ch=1 n=g5 v=38
158296 On ch=1 n=d3 v=33
158320 Par ch=1 c=64 v=0
158490 On ch=1 n=c#5 v=38
158512 On ch=1 n=g5 v=0
158536 Par ch=1 c=64 v=127
158590 On ch=1 n=d3 v=0
158692 On ch=1 n=c#5 v=0
158730 On ch=1 n=g5 v=37
158826 On ch=1 n=g5 v=0
159018 On ch=1 n=a#5 v=52
159021 On ch=1 n=e5 v=26
159156 On ch=1 n=c#6 v=0
159164 Par ch=1 c=64 v=0
159258 On ch=1 n=g4 v=35
159350 Par ch=1 c=64 v=127
159404 On ch=1 n=e5 v=0
159456 On ch=1 n=g4 v=0
159510 On ch=1 n=d4 v=43
159610 On ch=1 n=d4 v=0
159786 On ch=1 n=g4 v=35
159856 On ch=1 n=g4 v=0
160058 On ch=1 n=d5 v=52
160390 On ch=1 n=a#5 v=0
160494 On ch=1 n=b5 v=73
160514 On ch=1 n=d2 v=17
160532 Par ch=1 c=64 v=0
160794 Par ch=1 c=64 v=127
160816 On ch=1 n=d2 v=0
160902 On ch=1 n=c#5 v=52
160918 On ch=1 n=d3 v=37
160978 On ch=1 n=d5 v=0
161032 On ch=1 n=b5 v=0
161052 On ch=1 n=d3 v=0
161194 On ch=1 n=a5 v=63
161442 On ch=1 n=b4 v=34
161484 On ch=1 n=a5 v=0
161628 On ch=1 n=d3 v=22
161676 On ch=1 n=g5 v=68
161718 On ch=1 n=b4 v=0
161898 On ch=1 n=g#4 v=55
161924 On ch=1 n=d4 v=20
161962 Par ch=1 c=64 v=0
162090 On ch=1 n=d3 v=0
162100 Par ch=1 c=64 v=127
162102 On ch=1 n=d4 v=0
162134 On ch=1 n=f5 v=72
162248 On ch=1 n=g5 v=0
162326 On ch=1 n=g#4 v=0
162368 On ch=1 n=a4 v=53
162524 On ch=1 n=c#5 v=0
162566 On ch=1 n=a2 v=39
162598 On ch=1 n=f#5 v=68
162620 On ch=1 n=f5 v=0
162623 Par ch=1 c=64 v=0
162754 On ch=1 n=a4 v=0
162776 Par ch=1 c=64 v=127
162820 On ch=1 n=a2 v=0
162856 On ch=1 n=a3 v=32
162858 On ch=1 n=b4 v=70
163024 On ch=1 n=a3 v=0
163118 On ch=1 n=g#5 v=75
163194 On ch=1 n=f#5 v=0
163376 On ch=1 n=c5 v=59
163496 On ch=1 n=b4 v=0
163596 On ch=1 n=f#2 v=35
163674 On ch=1 n=g#5 v=0
163698 Par ch=1 c=64 v=0
163714 On ch=1 n=a5 v=55
163866 Par ch=1 c=64 v=127
163868 On ch=1 n=a5 v=0
164040 On ch=1 n=f#3 v=30
164076 On ch=1 n=f#2 v=0
164110 On ch=1 n=d#4 v=61
164184 On ch=1 n=c5 v=0
164414 On ch=1 n=d#4 v=0
164436 On ch=1 n=c5 v=65
164724 On ch=1 n=f#3 v=0
164820 On ch=1 n=c#5 v=55
164872 On ch=1 n=c5 v=0
164930 On ch=1 n=f2 v=31
165020 Par ch=1 c=64 v=0
165100 On ch=1 n=g#4 v=38
165160 On ch=1 n=f3 v=33
165322 On ch=1 n=f2 v=0
165352 On ch=1 n=c#4 v=47
165360 On ch=1 n=g#4 v=0
165388 Par ch=1 c=64 v=127
165410 On ch=1 n=f3 v=0
165476 On ch=1 n=c#4 v=0
165588 On ch=1 n=g#4 v=51
165622 On ch=1 n=c#5 v=0
165638 On ch=1 n=g#4 v=0
165896 On ch=1 n=d6 v=82
165904 On ch=1 n=b4 v=39
165922 On ch=1 n=d5 v=39
166114 On ch=1 n=g#4 v=35
166304 On ch=1 n=g#4 v=0
166328 On ch=1 n=c#4 v=46
166402 On ch=1 n=b4 v=0
166456 On ch=1 n=d5 v=0
166550 On ch=1 n=c#4 v=0
166572 On ch=1 n=g#4 v=56
166624 On ch=1 n=g#4 v=0
166782 On ch=1 n=c#6 v=70
166832 On ch=1 n=d6 v=0
166996 On ch=1 n=g#5 v=56
167022 On ch=1 n=b3 v=32
167024 On ch=1 n=b2 v=48
167032 Par ch=1 c=64 v=0
167198 On ch=1 n=b2 v=0
167220 On ch=1 n=c#5 v=65
167223 On ch=1 n=b3 v=0
167232 Par ch=1 c=64 v=127
167258 On ch=1 n=g#5 v=0
167340 On ch=1 n=c#5 v=0
167450 On ch=1 n=g#5 v=58
167474 On ch=1 n=c#6 v=0
167494 On ch=1 n=g#5 v=0
167678 On ch=1 n=f5 v=43
167738 On ch=1 n=d7 v=94
167760 On ch=1 n=d6 v=57
167970 On ch=1 n=g#4 v=49
168090 On ch=1 n=d7 v=0
168104 On ch=1 n=d6 v=0
168108 On ch=1 n=f5 v=0
168192 On ch=1 n=g#4 v=0
168200 On ch=1 n=f4 v=78
168358 On ch=1 n=f4 v=0
168426 On ch=1 n=g#4 v=61
168512 On ch=1 n=g#4 v=0
168624 On ch=1 n=c#6 v=84
168840 On ch=1 n=a#2 v=64
168844 On ch=1 n=g5 v=67
168890 Par ch=1 c=64 v=0
169022 On ch=1 n=a#2 v=0
169042 On ch=1 n=a#3 v=47
169076 Par ch=1 c=64 v=127
169080 On ch=1 n=e5 v=75
169088 On ch=1 n=g5 v=0
169160 On ch=1 n=a#3 v=0
169176 On ch=1 n=e5 v=0
169238 On ch=1 n=c#6 v=0
169288 On ch=1 n=d6 v=97
169296 On ch=1 n=d4 v=69
169300 On ch=1 n=g5 v=58
169414 On ch=1 n=g5 v=0
169434 On ch=1 n=d4 v=0
169510 On ch=1 n=d5 v=69
169520 On ch=1 n=g4 v=69
169622 On ch=1 n=d5 v=0
169638 On ch=1 n=g4 v=0
169698 On ch=1 n=c#6 v=88
169706 On ch=1 n=a#3 v=49
169709 On ch=1 n=g5 v=70
169716 On ch=1 n=e4 v=72
169766 Par ch=1 c=64 v=0
169778 On ch=1 n=d6 v=0
169922 On ch=1 n=e5 v=72
169925 On ch=1 n=g4 v=83
169952 Par ch=1 c=64 v=127
169955 On ch=1 n=g5 v=0
169972 On ch=1 n=e4 v=0
170068 On ch=1 n=e5 v=0
170071 On ch=1 n=g4 v=0
170122 On ch=1 n=a#3 v=0
170122 On ch=1 n=d6 v=102
170132 On ch=1 n=c#6 v=0
170138 On ch=1 n=g5 v=67
170148 On ch=1 n=d4 v=81
170214 On ch=1 n=d4 v=0
170344 On ch=1 n=d5 v=76
170446 On ch=1 n=d6 v=0
170452 On ch=1 n=d5 v=0
170520 On ch=1 n=a2 v=65
170524 On ch=1 n=g5 v=0
170552 On ch=1 n=d#6 v=100
170720 Par ch=1 c=64 v=0
170790 On ch=1 n=f#5 v=80
170830 On ch=1 n=a3 v=57
170862 On ch=1 n=a2 v=0
170934 Par ch=1 c=64 v=127
171026 On ch=1 n=d#6 v=0
171086 On ch=1 n=e6 v=86
171118 On ch=1 n=c#4 v=40
171158 On ch=1 n=f#5 v=0
171318 On ch=1 n=a3 v=0
171342 On ch=1 n=g5 v=70
171346 On ch=1 n=e4 v=75
171388 On ch=1 n=c#4 v=0
171400 On ch=1 n=e4 v=0
171534 On ch=1 n=c#6 v=83
171550 On ch=1 n=a3 v=52
171596 On ch=1 n=e6 v=0
171744 On ch=1 n=c#6 v=0
171744 On ch=1 n=c#4 v=55
171754 On ch=1 n=g5 v=0
171758 On ch=1 n=e5 v=78
171922 On ch=1 n=a3 v=0
171964 On ch=1 n=a5 v=76
171980 On ch=1 n=c#4 v=0
171990 On ch=1 n=e4 v=58
171994 On ch=1 n=e5 v=0
172052 On ch=1 n=e4 v=0
172206 On ch=1 n=a4 v=51
172212 On ch=1 n=c#5 v=67
172260 On ch=1 n=a4 v=0
172302 On ch=1 n=a5 v=0
172490 On ch=1 n=d3 v=45
172498 On ch=1 n=a4 v=70
172502 On ch=1 n=g5 v=67
172602 On ch=1 n=c#5 v=0
172610 Par ch=1 c=64 v=0
172788 On ch=1 n=a3 v=44
172932 Par ch=1 c=64 v=127
173034 On ch=1 n=a3 v=0
173086 On ch=1 n=d4 v=52
173182 On ch=1 n=d3 v=0
173294 On ch=1 n=d4 v=0
173334 On ch=1 n=b4 v=65
173382 On ch=1 n=a3 v=27
173422 On ch=1 n=g5 v=0
173456 On ch=1 n=a4 v=0
173514 On ch=1 n=a3 v=0
173624 Par ch=1 c=64 v=0
173654 On ch=1 n=d#3 v=30
173700 On ch=1 n=f#5 v=38
173710 On ch=1 n=c5 v=54
173772 On ch=1 n=b4 v=0
174034 On ch=1 n=a3 v=32
174162 Par ch=1 c=64 v=127
174214 On ch=1 n=d#3 v=0
174384 On ch=1 n=a3 v=0
174430 On ch=1 n=d#4 v=23
174500 On ch=1 n=f#5 v=0
174628 On ch=1 n=d#4 v=0
175082 On ch=1 n=e5 v=40
175154 On ch=1 n=c5 v=0
175406 On ch=1 n=c#5 v=39
175406 Par ch=1 c=64 v=0
175442 On ch=1 n=e3 v=38
175708 On ch=1 n=e4 v=36
175728 On ch=1 n=c#5 v=0
175806 Par ch=1 c=64 v=127
175834 On ch=1 n=e4 v=0
175846 On ch=1 n=e3 v=0
175974 On ch=1 n=c#5 v=54
176024 On ch=1 n=e5 v=0
176024 On ch=1 n=c#5 v=0
176266 On ch=1 n=f6 v=72
176278 On ch=1 n=d5 v=30
176288 On ch=1 n=f5 v=28
176420 Par ch=1 c=64 v=0
176530 On ch=1 n=b4 v=29
176626 On ch=1 n=d5 v=0
176634 Par ch=1 c=64 v=127
176698 On ch=1 n=b4 v=0
176744 On ch=1 n=e4 v=45
176806 On ch=1 n=e4 v=0
176882 On ch=1 n=f6 v=0
176992 On ch=1 n=b4 v=51
177056 On ch=1 n=b4 v=0
177180 On ch=1 n=f5 v=0
177212 On ch=1 n=e6 v=60
177418 Par ch=1 c=64 v=0
177454 On ch=1 n=c#6 v=33
177460 On ch=1 n=e3 v=54
177628 On ch=1 n=e3 v=0
177650 Par ch=1 c=64 v=127
177660 On ch=1 n=c#6 v=0
177692 On ch=1 n=e5 v=53
177750 On ch=1 n=e5 v=0
177944 On ch=1 n=c#6 v=60
177978 On ch=1 n=e6 v=0
177988 On ch=1 n=c#6 v=0
178244 On ch=1 n=f6 v=37
178248 Par ch=1 c=64 v=0
178272 On ch=1 n=b7 v=70
178290 On ch=1 n=b6 v=72
178448 Par ch=1 c=64 v=127
178508 On ch=1 n=f6 v=0
178542 On ch=1 n=d6 v=46
178642 On ch=1 n=b7 v=0
178656 On ch=1 n=d6 v=0
178710 On ch=1 n=b6 v=0
178848 On ch=1 n=e5 v=38
178908 On ch=1 n=e5 v=0
179174 On ch=1 n=d6 v=34
179230 On ch=1 n=d6 v=0
179468 On ch=1 n=g#6 v=53
179754 Par ch=1 c=64 v=0
179760 On ch=1 n=e6 v=30
179774 On ch=1 n=a2 v=29
179970 Par ch=1 c=64 v=127
179982 On ch=1 n=a2 v=0
180010 On ch=1 n=g#5 v=31
180028 On ch=1 n=e6 v=0
180170 On ch=1 n=g#5 v=0
180264 On ch=1 n=e6 v=42
180328 On ch=1 n=g#6 v=0
180498 On ch=1 n=f#5 v=21
180506 On ch=1 n=a6 v=61
180526 On ch=1 n=a5 v=15
180554 Par ch=1 c=64 v=0
180570 On ch=1 n=e6 v=0
180768 Par ch=1 c=64 v=127
180806 On ch=1 n=d5 v=8
180872 On ch=1 n=f#5 v=0
180892 On ch=1 n=a5 v=0
180910 On ch=1 n=a6 v=0
180910 On ch=1 n=d5 v=0
181020 On ch=1 n=f#4 v=20
181200 On ch=1 n=f#4 v=0
181342 On ch=1 n=d5 v=21
181416 On ch=1 n=d5 v=0
181718 On ch=1 n=c6 v=48
181742 On ch=1 n=c5 v=34
182102 On ch=1 n=a2 v=20
182198 Par ch=1 c=64 v=0
182412 Par ch=1 c=64 v=127
182428 On ch=1 n=f#3 v=25
182514 On ch=1 n=a2 v=0
182664 On ch=1 n=f#3 v=0
182730 On ch=1 n=a3 v=17
182794 On ch=1 n=d#5 v=40
182806 On ch=1 n=a3 v=0
183084 On ch=1 n=c4 v=21
183294 On ch=1 n=c4 v=0
183328 On ch=1 n=f#5 v=37
183340 On ch=1 n=d#4 v=23
183450 On ch=1 n=d#5 v=0
183598 On ch=1 n=f#4 v=30
183618 On ch=1 n=d#4 v=0
183728 On ch=1 n=f#4 v=0
183806 On ch=1 n=g#5 v=46
183814 On ch=1 n=b4 v=19
183868 On ch=1 n=f#5 v=0
183910 On ch=1 n=b4 v=0
183936 On ch=1 n=c5 v=0
184040 On ch=1 n=a4 v=27
184110 On ch=1 n=a4 v=0
184254 On ch=1 n=c5 v=32
184260 On ch=1 n=b5 v=56
184272 On ch=1 n=g#5 v=0
184426 Par ch=1 c=64 v=0
184522 On ch=1 n=a4 v=28
184594 Par ch=1 c=64 v=127
184622 On ch=1 n=a4 v=0
184736 On ch=1 n=f#4 v=25
184770 On ch=1 n=a5 v=32
184822 On ch=1 n=b5 v=0
184862 On ch=1 n=c5 v=0
185006 On ch=1 n=f#4 v=0
185040 On ch=1 n=d#4 v=26
185236 On ch=1 n=d#4 v=0
185326 On ch=1 n=c4 v=15
185344 On ch=1 n=f#5 v=24
185364 Par ch=1 c=64 v=0
185424 On ch=1 n=a5 v=0
185588 On ch=1 n=c6 v=0
185591 Par ch=1 c=64 v=127
185600 On ch=1 n=c4 v=0
185638 On ch=1 n=a4 v=22
185814 On ch=1 n=f#5 v=0
185820 On ch=1 n=a4 v=0
186056 On ch=1 n=d#5 v=18
186176 On ch=1 n=d#5 v=0
186488 On ch=1 n=e5 v=40
186802 On ch=1 n=c#5 v=26
186834 On ch=1 n=a2 v=19
186838 Par ch=1 c=64 v=0
187050 On ch=1 n=c#5 v=0
187064 On ch=1 n=a2 v=0
187064 On ch=1 n=e4 v=22
187084 Par ch=1 c=64 v=127
187188 On ch=1 n=e4 v=0
187298 On ch=1 n=c#5 v=33
187334 On ch=1 n=e5 v=0
187356 On ch=1 n=c#5 v=0
187618 On ch=1 n=f6 v=52
187634 On ch=1 n=f5 v=20
187639 On ch=1 n=d5 v=16
187714 Par ch=1 c=64 v=0
187876 On ch=1 n=b4 v=18
187944 On ch=1 n=d5 v=0
187960 Par ch=1 c=64 v=127
187972 On ch=1 n=b4 v=0
188078 On ch=1 n=e4 v=41
188092 On ch=1 n=f5 v=0
188140 On ch=1 n=e4 v=0
188262 On ch=1 n=f6 v=0
188302 On ch=1 n=b4 v=34
188402 On ch=1 n=b4 v=0
188510 On ch=1 n=e6 v=48
188712 Par ch=1 c=64 v=0
188752 On ch=1 n=c#6 v=28
188778 On ch=1 n=a3 v=30
188942 Par ch=1 c=64 v=127
188954 On ch=1 n=a3 v=0
188959 On ch=1 n=c#6 v=0
189002 On ch=1 n=e5 v=35
189072 On ch=1 n=e5 v=0
189254 On ch=1 n=c#6 v=49
189294 On ch=1 n=e6 v=0
189297 On ch=1 n=c#6 v=0
189570 On ch=1 n=g6 v=27
189596 On ch=1 n=c#8 v=50
189598 On ch=1 n=c#7 v=31
189618 Par ch=1 c=64 v=0
189850 Par ch=1 c=64 v=127
189906 On ch=1 n=g6 v=0
189940 On ch=1 n=e6 v=9
189986 On ch=1 n=c#8 v=0
190062 On ch=1 n=e6 v=0
190064 On ch=1 n=c#7 v=0
190186 On ch=1 n=g5 v=26
190288 On ch=1 n=g5 v=0
190450 On ch=1 n=e6 v=37
190510 On ch=1 n=e6 v=0
190678 On ch=1 n=a#6 v=60
190992 On ch=1 n=c#6 v=33
191018 On ch=1 n=d3 v=24
191202 Par ch=1 c=64 v=0
191238 On ch=1 n=a#5 v=34
191284 On ch=1 n=c#6 v=0
191314 On ch=1 n=d3 v=0
191340 Par ch=1 c=64 v=127
191424 On ch=1 n=a#5 v=0
191490 On ch=1 n=c#6 v=43
191552 On ch=1 n=c#6 v=0
191558 On ch=1 n=a#6 v=0
191748 On ch=1 n=b6 v=97
191764 On ch=1 n=b5 v=55
191770 Par ch=1 c=64 v=0
191784 On ch=1 n=d6 v=30
191934 On ch=1 n=d6 v=0
191940 Par ch=1 c=64 v=127
191950 On ch=1 n=b5 v=0
192042 On ch=1 n=f#5 v=12
192070 On ch=1 n=b6 v=0
192228 On ch=1 n=f#5 v=0
192266 On ch=1 n=d5 v=38
192334 On ch=1 n=d5 v=0
192530 On ch=1 n=f#5 v=33
192598 On ch=1 n=f#5 v=0
192938 On ch=1 n=f5 v=62
192960 On ch=1 n=f4 v=58
193274 On ch=1 n=e2 v=28
193290 Par ch=1 c=64 v=0
193476 On ch=1 n=e2 v=0
193506 Par ch=1 c=64 v=127
193560 On ch=1 n=e3 v=56
193748 On ch=1 n=e3 v=0
193848 On ch=1 n=a#4 v=50
193862 On ch=1 n=g#3 v=48
193962 On ch=1 n=f4 v=0
194030 On ch=1 n=g#3 v=0
194038 On ch=1 n=f5 v=0
194080 On ch=1 n=d4 v=50
194324 On ch=1 n=c#5 v=62
194328 On ch=1 n=d4 v=0
194344 On ch=1 n=g#3 v=47
194350 On ch=1 n=e5 v=58
194358 On ch=1 n=e4 v=42
194480 On ch=1 n=a#4 v=0
194590 On ch=1 n=g#3 v=0
194596 On ch=1 n=e3 v=52
194598 Par ch=1 c=64 v=0
194752 Par ch=1 c=64 v=127
194828 On ch=1 n=e3 v=0
194830 On ch=1 n=g#3 v=39
194836 On ch=1 n=b4 v=64
194938 On ch=1 n=g#3 v=0
195072 On ch=1 n=c#5 v=0
195082 On ch=1 n=e5 v=0
195104 On ch=1 n=d4 v=28
195238 On ch=1 n=d4 v=0
195254 On ch=1 n=e4 v=0
195406 On ch=1 n=b3 v=21
195426 On ch=1 n=a4 v=35
195442 On ch=1 n=d5 v=37
195488 Par ch=1 c=64 v=0
195618 On ch=1 n=b4 v=0
195724 On ch=1 n=b3 v=0
195736 On ch=1 n=e3 v=34
195856 Par ch=1 c=64 v=127
196052 On ch=1 n=b3 v=27
196396 Par ch=1 c=64 v=0
196420 On ch=1 n=d4 v=23
196624 Par ch=1 c=64 v=127
196788 On ch=1 n=a4 v=0
196874 On ch=1 n=g#4 v=26
196900 Par ch=1 c=64 v=0
197208 Par ch=1 c=64 v=127
197234 On ch=1 n=d5 v=0
197248 On ch=1 n=d4 v=0
197336 On ch=1 n=b3 v=0
197385 On ch=1 n=e3 v=0
197588 On ch=1 n=g#4 v=0
197926 On ch=1 n=c#5 v=38
198230 On ch=1 n=g#4 v=26
198252 On ch=1 n=f3 v=33
198270 Par ch=1 c=64 v=0
198512 On ch=1 n=c#4 v=38
198516 On ch=1 n=g#4 v=0
198576 Par ch=1 c=64 v=127
198602 On ch=1 n=c#4 v=0
198648 On ch=1 n=f3 v=0
198782 On ch=1 n=c#5 v=0
198788 On ch=1 n=g#4 v=50
198840 On ch=1 n=g#4 v=0
199076 On ch=1 n=b4 v=37
199092 On ch=1 n=d6 v=78
199102 On ch=1 n=d5 v=39
199296 On ch=1 n=g#4 v=44
199484 On ch=1 n=g#4 v=0
199540 On ch=1 n=b4 v=0
199543 On ch=1 n=c#4 v=42
199546 On ch=1 n=d5 v=0
199610 On ch=1 n=d6 v=0
199638 On ch=1 n=c#4 v=0
199792 On ch=1 n=g#4 v=49
199848 On ch=1 n=g#4 v=0
199990 On ch=1 n=c#6 v=63
200246 On ch=1 n=g5 v=44
200258 On ch=1 n=e3 v=62
200266 Par ch=1 c=64 v=0
200476 On ch=1 n=c#5 v=59
200481 Par ch=1 c=64 v=127
200498 On ch=1 n=e3 v=0
200500 On ch=1 n=g5 v=0
200608 On ch=1 n=c#5 v=0
200748 On ch=1 n=g5 v=61
200750 On ch=1 n=c#6 v=0
200798 On ch=1 n=g5 v=0
201028 On ch=1 n=a#5 v=39
201070 On ch=1 n=d7 v=91
201090 On ch=1 n=d6 v=62
201172 Par ch=1 c=64 v=0
201280 Par ch=1 c=64 v=127
201350 On ch=1 n=g5 v=35
201398 On ch=1 n=a#5 v=0
201404 On ch=1 n=d6 v=0
201452 On ch=1 n=d7 v=0
201498 On ch=1 n=g5 v=0
201572 On ch=1 n=a#4 v=33
201708 On ch=1 n=a#4 v=0
201820 On ch=1 n=g5 v=53
201880 On ch=1 n=g5 v=0
202042 On ch=1 n=c#6 v=67
202285 On ch=1 n=g5 v=43
202288 On ch=1 n=d3 v=41
202294 Par ch=1 c=64 v=0
202510 Par ch=1 c=64 v=127
202513 On ch=1 n=g5 v=0
202513 On ch=1 n=c#5 v=52
202524 On ch=1 n=d3 v=0
202662 On ch=1 n=c#5 v=0
202762 On ch=1 n=g5 v=64
202858 On ch=1 n=g5 v=0
202992 On ch=1 n=a#5 v=73
203002 On ch=1 n=e5 v=61
203162 On ch=1 n=c#6 v=0
203186 Par ch=1 c=64 v=0
203238 On ch=1 n=g4 v=50
203370 Par ch=1 c=64 v=127
203402 On ch=1 n=e5 v=0
203468 On ch=1 n=g4 v=0
203474 On ch=1 n=d4 v=63
203640 On ch=1 n=d4 v=0
203728 On ch=1 n=g4 v=64
203776 On ch=1 n=g4 v=0
203956 On ch=1 n=d5 v=76
204224 On ch=1 n=b5 v=87
204228 On ch=1 n=d2 v=41
204230 Par ch=1 c=64 v=0
204288 On ch=1 n=a#5 v=0
204460 Par ch=1 c=64 v=127
204480 On ch=1 n=c#5 v=62
204494 On ch=1 n=d2 v=0
204510 On ch=1 n=d3 v=41
204600 On ch=1 n=b5 v=0
204636 On ch=1 n=d5 v=0
204642 On ch=1 n=d3 v=0
204750 On ch=1 n=a5 v=61
205006 On ch=1 n=b4 v=39
205050 On ch=1 n=a5 v=0
205110 On ch=1 n=d3 v=31
205232 On ch=1 n=g5 v=71
205322 On ch=1 n=b4 v=0
205452 On ch=1 n=c#5 v=0
205476 On ch=1 n=g#4 v=51
205484 On ch=1 n=d4 v=36
205674 Par ch=1 c=64 v=0
205728 On ch=1 n=f5 v=78
205828 On ch=1 n=d4 v=0
205828 Par ch=1 c=64 v=127
205870 On ch=1 n=g5 v=0
205882 On ch=1 n=d3 v=0
205964 On ch=1 n=g#4 v=0
205970 On ch=1 n=a4 v=60
206164 On ch=1 n=a2 v=40
206194 On ch=1 n=f#5 v=75
206210 On ch=1 n=f5 v=0
206274 Par ch=1 c=64 v=0
206330 On ch=1 n=a4 v=0
206428 Par ch=1 c=64 v=127
206434 On ch=1 n=b4 v=72
206458 On ch=1 n=a3 v=41
206540 On ch=1 n=a2 v=0
206604 On ch=1 n=a3 v=0
206678 On ch=1 n=g#5 v=77
206756 On ch=1 n=f#5 v=0
206922 On ch=1 n=c5 v=54
207008 On ch=1 n=b4 v=0
207098 On ch=1 n=f#2 v=35
207164 On ch=1 n=g#5 v=0
207226 On ch=1 n=a5 v=65
207228 Par ch=1 c=64 v=0
207362 On ch=1 n=a5 v=0
207364 Par ch=1 c=64 v=127
207444 On ch=1 n=c5 v=0
207556 On ch=1 n=f#3 v=23
207578 On ch=1 n=d#4 v=53
207784 On ch=1 n=f#3 v=0
207832 On ch=1 n=f#2 v=0
207838 On ch=1 n=c5 v=59
207852 On ch=1 n=d#4 v=0
208178 On ch=1 n=f2 v=27
208180 On ch=1 n=c#5 v=51
208190 On ch=1 n=c5 v=0
208256 Par ch=1 c=64 v=0
208426 On ch=1 n=g#4 v=29
208522 On ch=1 n=f3 v=29
208668 On ch=1 n=f2 v=0
208672 On ch=1 n=c#4 v=34
208686 On ch=1 n=g#4 v=0
208702 Par ch=1 c=64 v=127
208744 On ch=1 n=f3 v=0
208808 On ch=1 n=c#4 v=0
208932 On ch=1 n=g#4 v=34
208952 On ch=1 n=c#5 v=0
209000 On ch=1 n=g#4 v=0
209236 On ch=1 n=d6 v=50
209239 On ch=1 n=b4 v=17
209256 On ch=1 n=d5 v=19
209444 On ch=1 n=g#4 v=36
209566 On ch=1 n=g#4 v=0
209588 On ch=1 n=b4 v=0
209658 On ch=1 n=c#4 v=45
209790 On ch=1 n=c#4 v=0
209886 On ch=1 n=g#4 v=50
209889 On ch=1 n=d5 v=0
209944 On ch=1 n=g#4 v=0
210110 On ch=1 n=c#6 v=59
210180 On ch=1 n=d6 v=0
210344 On ch=1 n=b3 v=27
210344 Par ch=1 c=64 v=0
210347 On ch=1 n=b2 v=39
210350 On ch=1 n=g#5 v=38
210516 On ch=1 n=b2 v=0
210530 Par ch=1 c=64 v=127
210542 On ch=1 n=b3 v=0
210542 On ch=1 n=g#5 v=0
210582 On ch=1 n=c#5 v=53
210660 On ch=1 n=c#5 v=0
210802 On ch=1 n=g#5 v=39
210822 On ch=1 n=c#6 v=0
210864 On ch=1 n=g#5 v=0
211052 On ch=1 n=f5 v=31
211084 On ch=1 n=d7 v=84
211100 On ch=1 n=d6 v=51
211322 On ch=1 n=d6 v=0
211328 On ch=1 n=f5 v=0
211360 On ch=1 n=g#4 v=36
211416 On ch=1 n=d7 v=0
211560 On ch=1 n=g#4 v=0
211600 On ch=1 n=f4 v=61
211682 On ch=1 n=f4 v=0
211842 On ch=1 n=g#4 v=43
211928 On ch=1 n=g#4 v=0
212036 On ch=1 n=c#6 v=67
212258 On ch=1 n=g5 v=55
212272 On ch=1 n=a#2 v=44
212296 Par ch=1 c=64 v=0
212432 On ch=1 n=a#2 v=0
212466 On ch=1 n=a#3 v=39
212498 Par ch=1 c=64 v=127
212501 On ch=1 n=g5 v=0
212505 On ch=1 n=e5 v=67
212636 On ch=1 n=a#3 v=0
212674 On ch=1 n=e5 v=0
212680 On ch=1 n=c#6 v=0
212760 On ch=1 n=a#3 v=10
212780 On ch=1 n=d6 v=78
212780 On ch=1 n=d4 v=34
212812 On ch=1 n=g5 v=32
212890 On ch=1 n=a#3 v=0
212892 On ch=1 n=g5 v=0
212960 On ch=1 n=d4 v=0
213018 On ch=1 n=d5 v=54
213018 On ch=1 n=g4 v=57
213100 On ch=1 n=d5 v=0
213160 On ch=1 n=g4 v=0
213206 On ch=1 n=c#6 v=78
213218 On ch=1 n=e4 v=79
213222 On ch=1 n=a#3 v=36
213228 On ch=1 n=g5 v=49
213276 On ch=1 n=d6 v=0
213342 Par ch=1 c=64 v=0
213418 On ch=1 n=g5 v=0
213432 On ch=1 n=e5 v=56
213446 On ch=1 n=g4 v=67
213496 Par ch=1 c=64 v=127
213516 On ch=1 n=e4 v=0
213564 On ch=1 n=e5 v=0
213578 On ch=1 n=g4 v=0
213626 On ch=1 n=d6 v=101
213642 On ch=1 n=d4 v=73
213658 On ch=1 n=g5 v=58
213664 On ch=1 n=c#6 v=0
213704 On ch=1 n=a#3 v=0
213768 On ch=1 n=d4 v=0
213850 On ch=1 n=d5 v=76
213930 On ch=1 n=d6 v=0
214006 On ch=1 n=d5 v=0
214018 On ch=1 n=a2 v=63
214060 On ch=1 n=g5 v=0
214106 On ch=1 n=d#6 v=88
214356 Par ch=1 c=64 v=0
214400 On ch=1 n=f#5 v=70
214410 On ch=1 n=a3 v=51
214444 On ch=1 n=a2 v=0
214540 Par ch=1 c=64 v=127
214646 On ch=1 n=d#6 v=0
214676 On ch=1 n=e6 v=87
214706 On ch=1 n=c#4 v=54
214716 On ch=1 n=f#5 v=0
214732 On ch=1 n=a3 v=0
214932 On ch=1 n=e4 v=62
214932 On ch=1 n=g5 v=70
214944 On ch=1 n=c#4 v=0
215056 On ch=1 n=e4 v=0
215148 On ch=1 n=c#6 v=87
215160 On ch=1 n=a3 v=47
215204 On ch=1 n=e6 v=0
215376 On ch=1 n=c#4 v=54
215384 On ch=1 n=c#6 v=0
215392 On ch=1 n=g5 v=0
215400 On ch=1 n=e5 v=71
215576 On ch=1 n=a3 v=0
215614 On ch=1 n=a5 v=82
215634 On ch=1 n=e4 v=63
215637 On ch=1 n=c#4 v=0
215646 On ch=1 n=e5 v=0
215702 On ch=1 n=e4 v=0
215850 On ch=1 n=c#5 v=66
215870 On ch=1 n=a4 v=50
215922 On ch=1 n=a4 v=0
215948 On ch=1 n=a5 v=0
216200 On ch=1 n=d3 v=42
216206 On ch=1 n=a4 v=55
216216 Par ch=1 c=64 v=0
216219 On ch=1 n=g5 v=67
216324 On ch=1 n=c#5 v=0
216542 On ch=1 n=a3 v=42
216706 Par ch=1 c=64 v=127
216782 On ch=1 n=a3 v=0
216820 On ch=1 n=d3 v=0
216824 On ch=1 n=d4 v=42
216992 On ch=1 n=g5 v=0
217010 On ch=1 n=d4 v=0
217060 On ch=1 n=b4 v=62
217108 On ch=1 n=a3 v=22
217278 On ch=1 n=a3 v=0
217448 On ch=1 n=d#3 v=30
217460 Par ch=1 c=64 v=0
217500 On ch=1 n=c5 v=43
217510 On ch=1 n=f#5 v=35
217513 On ch=1 n=b4 v=0
217524 On ch=1 n=a4 v=0
217862 On ch=1 n=a3 v=27
217924 On ch=1 n=d#3 v=0
217952 Par ch=1 c=64 v=127
218248 On ch=1 n=a3 v=0
218256 On ch=1 n=f#5 v=0
218328 On ch=1 n=d#4 v=14
218528 On ch=1 n=d#4 v=0
218888 On ch=1 n=e5 v=38
218918 On ch=1 n=c5 v=0
219212 On ch=1 n=c#5 v=29
219212 Par ch=1 c=64 v=0
219220 On ch=1 n=e3 v=29
219440 On ch=1 n=c#5 v=0
219470 On ch=1 n=e4 v=38
219504 On ch=1 n=e3 v=0
219504 Par ch=1 c=64 v=127
219564 On ch=1 n=e4 v=0
219708 On ch=1 n=c#5 v=35
219740 On ch=1 n=e5 v=0
219768 On ch=1 n=c#5 v=0
220054 On ch=1 n=d5 v=14
220056 On ch=1 n=f6 v=56
220072 On ch=1 n=f5 v=27
220210 Par ch=1 c=64 v=0
220318 On ch=1 n=b4 v=23
220410 Par ch=1 c=64 v=127
220426 On ch=1 n=b4 v=0
220472 On ch=1 n=d5 v=0
220578 On ch=1 n=e4 v=24
220644 On ch=1 n=e4 v=0
220722 On ch=1 n=f6 v=0
220818 On ch=1 n=b4 v=33
220874 On ch=1 n=b4 v=0
220978 On ch=1 n=f5 v=0
221036 On ch=1 n=e6 v=41
221254 Par ch=1 c=64 v=0
221266 On ch=1 n=c#6 v=28
221280 On ch=1 n=e3 v=46
221450 On ch=1 n=e3 v=0
221454 Par ch=1 c=64 v=127
221466 On ch=1 n=c#6 v=0
221494 On ch=1 n=e5 v=46
221566 On ch=1 n=e5 v=0
221730 On ch=1 n=c#6 v=52
221760 On ch=1 n=e6 v=0
221774 On ch=1 n=c#6 v=0
222008 Par ch=1 c=64 v=0
222012 On ch=1 n=f6 v=43
222022 On ch=1 n=b7 v=82
222036 On ch=1 n=b6 v=83
222208 Par ch=1 c=64 v=127
222238 On ch=1 n=b6 v=0
222246 On ch=1 n=f6 v=0
222288 On ch=1 n=d6 v=42
222320 On ch=1 n=b7 v=0
222432 On ch=1 n=d6 v=0
222574 On ch=1 n=e5 v=16
222634 On ch=1 n=e5 v=0
222804 On ch=1 n=d6 v=47
222850 On ch=1 n=d6 v=0
223084 On ch=1 n=g#6 v=69
223368 On ch=1 n=a2 v=26
223390 Par ch=1 c=64 v=0
223426 On ch=1 n=e6 v=31
223604 On ch=1 n=a2 v=0
223606 Par ch=1 c=64 v=127
223656 On ch=1 n=g#5 v=25
223672 On ch=1 n=e6 v=0
223822 On ch=1 n=g#5 v=0
223896 On ch=1 n=e6 v=43
223956 On ch=1 n=g#6 v=0
224114 On ch=1 n=f#5 v=25
224146 On ch=1 n=a6 v=59
224151 On ch=1 n=a5 v=26
224174 Par ch=1 c=64 v=0
224186 On ch=1 n=e6 v=0
224358 Par ch=1 c=64 v=127
224404 On ch=1 n=d5 v=22
224418 On ch=1 n=a5 v=0
224454 On ch=1 n=f#5 v=0
224488 On ch=1 n=d5 v=0
224494 On ch=1 n=a6 v=0
224616 On ch=1 n=f#4 v=40
224700 On ch=1 n=f#4 v=0
224876 On ch=1 n=d5 v=39
224940 On ch=1 n=d5 v=0
225118 On ch=1 n=c6 v=63
225144 On ch=1 n=c5 v=36
225526 Par ch=1 c=64 v=0
225554 On ch=1 n=a2 v=47
225870 On ch=1 n=f#3 v=38
225894 Par ch=1 c=64 v=127
225918 On ch=1 n=a2 v=0
226062 On ch=1 n=f#3 v=0
226174 On ch=1 n=a3 v=25
226248 On ch=1 n=a3 v=0
226251 On ch=1 n=d#5 v=50
226490 On ch=1 n=c4 v=34
226730 On ch=1 n=d#4 v=39
226736 On ch=1 n=f#5 v=50
226840 On ch=1 n=d#5 v=0
226966 On ch=1 n=f#4 v=46
227010 On ch=1 n=d#4 v=0
227013 On ch=1 n=c4 v=0
227104 On ch=1 n=f#4 v=0
227140 On ch=1 n=c5 v=0
227174 On ch=1 n=g#5 v=51
227194 On ch=1 n=b4 v=32
227260 On ch=1 n=f#5 v=0
227320 On ch=1 n=b4 v=0
227422 On ch=1 n=a4 v=25
227520 On ch=1 n=a4 v=0
227656 On ch=1 n=c5 v=35
227666 On ch=1 n=b5 v=46
227708 Par ch=1 c=64 v=0
227712 On ch=1 n=g#5 v=0
227938 Par ch=1 c=64 v=127
227944 On ch=1 n=a4 v=24
228060 On ch=1 n=c5 v=0
228084 On ch=1 n=a4 v=0
228150 On ch=1 n=f#4 v=41
228184 On ch=1 n=a5 v=27
228282 On ch=1 n=b5 v=0
228376 On ch=1 n=f#4 v=0
228430 On ch=1 n=d#4 v=24
228688 On ch=1 n=c4 v=18
228706 On ch=1 n=d#4 v=0
228706 Par ch=1 c=64 v=0
228742 On ch=1 n=f#5 v=34
228790 On ch=1 n=c6 v=0
228888 On ch=1 n=a5 v=0
228962 On ch=1 n=c4 v=0
228968 Par ch=1 c=64 v=127
229034 On ch=1 n=a4 v=17
229120 On ch=1 n=f#5 v=0
229156 On ch=1 n=a4 v=0
229332 On ch=1 n=d#5 v=40
229414 On ch=1 n=d#5 v=0
229738 On ch=1 n=e5 v=68
230052 On ch=1 n=c#5 v=29
230084 On ch=1 n=a2 v=17
230106 Par ch=1 c=64 v=0
230294 On ch=1 n=c#5 v=0
230324 On ch=1 n=e4 v=38
230344 On ch=1 n=a2 v=0
230366 Par ch=1 c=64 v=127
230390 On ch=1 n=e4 v=0
230546 On ch=1 n=c#5 v=43
230586 On ch=1 n=e5 v=0
230606 On ch=1 n=c#5 v=0
230836 On ch=1 n=d5 v=41
230898 On ch=1 n=f6 v=78
230922 On ch=1 n=f5 v=34
230996 Par ch=1 c=64 v=0
231114 On ch=1 n=b4 v=34
231200 On ch=1 n=b4 v=0
231212 Par ch=1 c=64 v=127
231264 On ch=1 n=d5 v=0
231356 On ch=1 n=e4 v=37
231368 On ch=1 n=f5 v=0
231430 On ch=1 n=e4 v=0
231438 On ch=1 n=f6 v=0
231616 On ch=1 n=b4 v=20
231700 On ch=1 n=b4 v=0
231828 On ch=1 n=e6 v=61
232040 Par ch=1 c=64 v=0
232060 On ch=1 n=a3 v=38
232060 On ch=1 n=c#6 v=38
232228 On ch=1 n=c#6 v=0
232256 Par ch=1 c=64 v=127
232264 On ch=1 n=a3 v=0
232294 On ch=1 n=e5 v=48
232364 On ch=1 n=e5 v=0
232536 On ch=1 n=c#6 v=53
232566 On ch=1 n=e6 v=0
232576 On ch=1 n=c#6 v=0
232866 On ch=1 n=g6 v=67
232884 On ch=1 n=c#8 v=83
232887 On ch=1 n=c#7 v=69
232948 Par ch=1 c=64 v=0
233148 Par ch=1 c=64 v=127
233204 On ch=1 n=g6 v=0
233250 On ch=1 n=e6 v=40
233288 On ch=1 n=c#8 v=0
233368 On ch=1 n=c#7 v=0
233452 On ch=1 n=e6 v=0
233512 On ch=1 n=g5 v=46
233680 On ch=1 n=g5 v=0
233802 On ch=1 n=e6 v=50
233866 On ch=1 n=e6 v=0
234058 On ch=1 n=a#6 v=69
234366 On ch=1 n=d3 v=35
234378 On ch=1 n=c#6 v=41
234408 Par ch=1 c=64 v=0
234622 Par ch=1 c=64 v=127
234624 On ch=1 n=d3 v=0
234644 On ch=1 n=a#5 v=40
234660 On ch=1 n=c#6 v=0
234778 On ch=1 n=a#5 v=0
234882 On ch=1 n=c#6 v=52
234936 On ch=1 n=a#6 v=0
234936 On ch=1 n=c#6 v=0
235124 On ch=1 n=b6 v=94
235132 On ch=1 n=b5 v=59
235144 On ch=1 n=d6 v=40
235144 Par ch=1 c=64 v=0
235298 On ch=1 n=b5 v=0
235314 On ch=1 n=d6 v=0
235328 Par ch=1 c=64 v=127
235404 On ch=1 n=f#5 v=16
235412 On ch=1 n=b6 v=0
235564 On ch=1 n=f#5 v=0
235592 On ch=1 n=d5 v=41
235668 On ch=1 n=d5 v=0
235846 On ch=1 n=f#5 v=27
235922 On ch=1 n=f#5 v=0
236246 On ch=1 n=f5 v=59
236260 On ch=1 n=f4 v=64
236630 On ch=1 n=e2 v=26
236682 Par ch=1 c=64 v=0
236896 Par ch=1 c=64 v=127
236900 On ch=1 n=e2 v=0
236956 On ch=1 n=e3 v=50
237148 On ch=1 n=e3 v=0
237320 On ch=1 n=a#4 v=52
237338 On ch=1 n=g#3 v=40
237462 On ch=1 n=f5 v=0
237516 On ch=1 n=f4 v=0
237592 On ch=1 n=g#3 v=0
237600 On ch=1 n=d4 v=40
237866 On ch=1 n=c#5 v=57
237869 On ch=1 n=d4 v=0
237876 On ch=1 n=e4 v=48
237890 On ch=1 n=g#3 v=33
237892 On ch=1 n=e5 v=59
237972 Par ch=1 c=64 v=0
238044 On ch=1 n=a#4 v=0
238130 On ch=1 n=e3 v=52
238140 On ch=1 n=g#3 v=0
238218 Par ch=1 c=64 v=127
238344 On ch=1 n=e3 v=0
238410 On ch=1 n=b4 v=70
238410 On ch=1 n=g#3 v=33
238518 On ch=1 n=g#3 v=0
238562 On ch=1 n=e5 v=0
238606 On ch=1 n=c#5 v=0
238614 On ch=1 n=e4 v=0
238700 On ch=1 n=d4 v=42
238772 On ch=1 n=b4 v=0
238772 On ch=1 n=d4 v=0
239058 On ch=1 n=a2 v=26
239160 On ch=1 n=d5 v=51
239202 On ch=1 n=e4 v=20
239205 On ch=1 n=b4 v=17
239248 Par ch=1 c=64 v=0
239562 On ch=1 n=e3 v=41
239646 Par ch=1 c=64 v=127
239956 On ch=1 n=e3 v=0
240024 On ch=1 n=g#3 v=28
240510 On ch=1 n=g#3 v=0
240558 On ch=1 n=a2 v=0
240800 On ch=1 n=a3 v=17
241018 On ch=1 n=a2 v=2
241266 On ch=1 n=b4 v=0
241562 On ch=1 n=c#5 v=27
241600 On ch=1 n=a4 v=15
241630 Par ch=1 c=64 v=0
241732 On ch=1 n=d5 v=0
241982 Par ch=1 c=64 v=127
241986 On ch=1 n=a2 v=0
242036 On ch=1 n=a3 v=0
242134 On ch=1 n=e4 v=0
243320 On ch=1 n=a4 v=0
243340 On ch=1 n=c#5 v=0
245440 On ch=1 n=g#2 v=17
245454 On ch=1 n=f#6 v=26
245470 On ch=1 n=c6 v=16
245516 Par ch=1 c=64 v=0
245758 On ch=1 n=g#2 v=0
245762 Par ch=1 c=64 v=127
245868 On ch=1 n=c6 v=0
245878 On ch=1 n=f#6 v=0
245900 On ch=1 n=c#6 v=20
246080 On ch=1 n=c#6 v=0
246308 On ch=1 n=d#6 v=30
246322 On ch=1 n=g#3 v=20
246326 On ch=1 n=f#6 v=35
246334 On ch=1 n=f#4 v=23
246350 On ch=1 n=a5 v=11
246370 On ch=1 n=d#4 v=29
246628 On ch=1 n=a5 v=0
246672 On ch=1 n=f#6 v=0
246682 On ch=1 n=d#6 v=0
246684 On ch=1 n=b5 v=42
246786 On ch=1 n=b5 v=0
247000 On ch=1 n=d#6 v=44
247006 On ch=1 n=f#5 v=23
247022 On ch=1 n=c6 v=26
247090 On ch=1 n=c6 v=0
247202 On ch=1 n=d#6 v=0
247276 On ch=1 n=g#5 v=41
247308 On ch=1 n=f#5 v=0
247378 On ch=1 n=g#5 v=0
247532 On ch=1 n=d#5 v=48
247552 On ch=1 n=c6 v=42
247568 On ch=1 n=a5 v=14
247584 On ch=1 n=f#4 v=0
247592 On ch=1 n=d#4 v=0
247648 On ch=1 n=a5 v=0
247654 On ch=1 n=g#3 v=0
247690 On ch=1 n=d#5 v=0
247704 On ch=1 n=c6 v=0
247830 On ch=1 n=e5 v=50
248086 On ch=1 n=e5 v=0
248108 On ch=1 n=c5 v=50
248108 On ch=1 n=a5 v=43
248114 Par ch=1 c=64 v=0
248117 On ch=1 n=g#2 v=27
248127 On ch=1 n=f#5 v=22
248309 Par ch=1 c=64 v=127
248321 On ch=1 n=g#2 v=0
248387 On ch=1 n=c#5 v=46
248389 On ch=1 n=f#5 v=0
248401 On ch=1 n=c5 v=0
248407 On ch=1 n=a5 v=0
248703 On ch=1 n=a5 v=34
248711 On ch=1 n=f#5 v=28
248715 On ch=1 n=d#5 v=37
248721 On ch=1 n=f#4 v=29
248743 On ch=1 n=g#3 v=26
248757 On ch=1 n=c#5 v=0
248763 On ch=1 n=d#4 v=10
248785 Par ch=1 c=64 v=0
249031 Par ch=1 c=64 v=127
249065 On ch=1 n=f#5 v=0
249111 On ch=1 n=a5 v=0
249279 On ch=1 n=f#5 v=25
249291 On ch=1 n=g#5 v=31
249307 On ch=1 n=c5 v=25
249319 On ch=1 n=d#5 v=0
249385 Par ch=1 c=64 v=0
249569 Par ch=1 c=64 v=127
249575 On ch=1 n=c#5 v=38
249641 On ch=1 n=f#5 v=0
249655 On ch=1 n=g#5 v=0
249659 On ch=1 n=c5 v=0
249923 Par ch=1 c=64 v=0
249949 On ch=1 n=g#5 v=23
249955 On ch=1 n=d#5 v=21
249963 On ch=1 n=c#5 v=0
249979 On ch=1 n=f#5 v=21
250169 Par ch=1 c=64 v=127
250261 On ch=1 n=d#4 v=0
250273 On ch=1 n=f#4 v=0
250331 On ch=1 n=g#3 v=0
250399 On ch=1 n=f#5 v=0
250481 On ch=1 n=g#5 v=0
250759 On ch=1 n=f#5 v=14
250761 On ch=1 n=a5 v=27
250763 On ch=1 n=d3 v=22
250781 On ch=1 n=b4 v=14
250784 Par ch=1 c=64 v=0
250829 On ch=1 n=d#5 v=0
251045 Par ch=1 c=64 v=127
251145 On ch=1 n=d3 v=0
251167 On ch=1 n=c#5 v=46
251179 On ch=1 n=a5 v=0
251183 On ch=1 n=b4 v=0
251195 On ch=1 n=f#5 v=0
251427 On ch=1 n=c#5 v=0
251651 On ch=1 n=a5 v=26
251679 On ch=1 n=d5 v=32
251683 On ch=1 n=f#5 v=18
251683 On ch=1 n=f#4 v=21
251705 On ch=1 n=b3 v=10
251713 On ch=1 n=d4 v=15
251889 Par ch=1 c=64 v=0
252059 Par ch=1 c=64 v=127
252131 On ch=1 n=f#5 v=0
252147 On ch=1 n=a5 v=0
252415 On ch=1 n=d5 v=0
252417 On ch=1 n=g#5 v=26
252423 On ch=1 n=f#5 v=14
252443 On ch=1 n=b4 v=11
252627 Par ch=1 c=64 v=0
252735 Par ch=1 c=64 v=127
252869 On ch=1 n=c#5 v=23
253011 Par ch=1 c=64 v=0
253087 On ch=1 n=b4 v=0
253119 Par ch=1 c=64 v=127
253169 On ch=1 n=f#5 v=0
253187 On ch=1 n=g#5 v=0
253543 On ch=1 n=c#5 v=0
253601 On ch=1 n=g#5 v=10
253635 On ch=1 n=d5 v=8
253641 On ch=1 n=f#5 v=11
253811 Par ch=1 c=64 v=0
254055 Par ch=1 c=64 v=127
254415 On ch=1 n=d4 v=0
254467 On ch=1 n=f#4 v=0
254469 On ch=1 n=d5 v=0
254591 On ch=1 n=b3 v=0
254623 On ch=1 n=f#5 v=0
254633 On ch=1 n=g#5 v=0
255329 On ch=1 n=g#6 v=40
255363 On ch=1 n=d6 v=27
255369 On ch=1 n=a#2 v=17
255563 Par ch=1 c=64 v=0
255715 Par ch=1 c=64 v=127
255737 On ch=1 n=a#2 v=0
255783 On ch=1 n=d6 v=0
255803 On ch=1 n=d#6 v=36
255853 On ch=1 n=g#6 v=0
256003 On ch=1 n=d#6 v=0
256305 On ch=1 n=g#6 v=41
256319 On ch=1 n=g#4 v=18
256325 On ch=1 n=b5 v=42
256347 On ch=1 n=f6 v=28
256349 On ch=1 n=a#3 v=11
256377 On ch=1 n=f4 v=35
256661 On ch=1 n=b5 v=0
256695 On ch=1 n=f6 v=0
256739 On ch=1 n=g#6 v=0
256773 On ch=1 n=c#6 v=44
256835 On ch=1 n=c#6 v=0
257105 On ch=1 n=g#5 v=41
257111 On ch=1 n=f6 v=56
257145 On ch=1 n=d6 v=31
257325 On ch=1 n=f6 v=0
257347 On ch=1 n=g#5 v=0
257347 On ch=1 n=d6 v=0
257419 On ch=1 n=a#5 v=45
257471 On ch=1 n=a#5 v=0
257729 On ch=1 n=d6 v=59
257729 On ch=1 n=f5 v=40
257737 On ch=1 n=b5 v=43
257765 On ch=1 n=f4 v=0
257771 On ch=1 n=g#4 v=0
257881 On ch=1 n=a#3 v=0
257903 On ch=1 n=f5 v=0
257907 On ch=1 n=d6 v=0
257971 On ch=1 n=b5 v=0
258013 On ch=1 n=f#5 v=47
258305 On ch=1 n=d5 v=55
258305 On ch=1 n=g#5 v=38
258308 On ch=1 n=a#2 v=40
258311 On ch=1 n=b5 v=55
258315 On ch=1 n=f#5 v=0
258543 On ch=1 n=g#5 v=0
258575 On ch=1 n=a#2 v=0
258577 On ch=1 n=d5 v=0
258619 On ch=1 n=d#5 v=56
258622 On ch=1 n=b5 v=0
258783 On ch=1 n=d#5 v=0
258965 On ch=1 n=b5 v=72
258983 On ch=1 n=g#5 v=35
258993 On ch=1 n=f5 v=50
258995 On ch=1 n=g#4 v=29
259007 On ch=1 n=a#3 v=15
259027 On ch=1 n=f4 v=51
259157 Par ch=1 c=64 v=0
259313 On ch=1 n=g#5 v=0
259327 Par ch=1 c=64 v=127
259575 On ch=1 n=g#5 v=40
259581 On ch=1 n=a#5 v=44
259585 On ch=1 n=d5 v=44
259607 On ch=1 n=f5 v=0
259609 On ch=1 n=b5 v=0
259835 Par ch=1 c=64 v=0
259869 On ch=1 n=d#5 v=56
259955 On ch=1 n=g#5 v=0
259955 Par ch=1 c=64 v=127
259967 On ch=1 n=a#5 v=0
260073 On ch=1 n=d#5 v=0
260201 On ch=1 n=a#5 v=41
260215 On ch=1 n=f5 v=39
260223 On ch=1 n=g#5 v=25
260227 On ch=1 n=d5 v=0
260279 Par ch=1 c=64 v=0
260405 On ch=1 n=g#5 v=0
260433 Par ch=1 c=64 v=127
260481 On ch=1 n=g#4 v=0
260481 On ch=1 n=f4 v=0
260543 On ch=1 n=a#3 v=0
260555 On ch=1 n=a#5 v=0
260795 On ch=1 n=c#5 v=38
260805 On ch=1 n=f5 v=0
260805 On ch=1 n=g#5 v=16
260813 On ch=1 n=b5 v=41
260825 On ch=1 n=e3 v=58
261171 Par ch=1 c=64 v=0
261219 On ch=1 n=d#5 v=52
261261 On ch=1 n=c#5 v=0
261291 On ch=1 n=g#5 v=0
261327 On ch=1 n=b5 v=0
261339 Par ch=1 c=64 v=127
261359 On ch=1 n=e3 v=0
261549 On ch=1 n=d#5 v=0
261721 On ch=1 n=g#5 v=30
261727 On ch=1 n=e5 v=49
261731 On ch=1 n=b5 v=54
261733 On ch=1 n=g#4 v=21
261743 On ch=1 n=e4 v=22
261769 On ch=1 n=c#4 v=23
261877 Par ch=1 c=64 v=0
262031 Par ch=1 c=64 v=127
262103 On ch=1 n=g#5 v=0
262141 On ch=1 n=b5 v=0
262481 On ch=1 n=a#5 v=29
262491 On ch=1 n=c#5 v=24
262511 On ch=1 n=g#5 v=19
262541 On ch=1 n=e5 v=0
262723 Par ch=1 c=64 v=0
262829 Par ch=1 c=64 v=127
262931 On ch=1 n=d#5 v=28
262957 On ch=1 n=c#5 v=0
263045 Par ch=1 c=64 v=0
263137 Par ch=1 c=64 v=127
263221 On ch=1 n=g#5 v=0
263245 On ch=1 n=a#5 v=0
263259 On ch=1 n=d#5 v=0
263697 On ch=1 n=a#5 v=10
263703 On ch=1 n=g#5 v=15
263731 On ch=1 n=e5 v=15
263875 Par ch=1 c=64 v=0
264059 Par ch=1 c=64 v=127
264339 On ch=1 n=e4 v=0
264345 On ch=1 n=g#4 v=0
264409 On ch=1 n=c#4 v=0
264453 On ch=1 n=e5 v=0
264651 On ch=1 n=g#5 v=0
264701 On ch=1 n=a#5 v=0
265589 On ch=1 n=c#5 v=20
265597 On ch=1 n=c#6 v=14
265605 On ch=1 n=a#5 v=6
265627 Par ch=1 c=64 v=0
265841 Par ch=1 c=64 v=127
265995 On ch=1 n=c#5 v=0
266101 On ch=1 n=d#5 v=27
266161 On ch=1 n=a#5 v=0
266163 On ch=1 n=c#6 v=0
266455 On ch=1 n=d#5 v=0
266579 On ch=1 n=e5 v=41
266587 On ch=1 n=c#6 v=22
266587 On ch=1 n=d#3 v=15
266593 On ch=1 n=a#5 v=18
266717 Par ch=1 c=64 v=0
266963 Par ch=1 c=64 v=127
266973 On ch=1 n=a#3 v=16
266983 On ch=1 n=d#3 v=0
266999 On ch=1 n=a#5 v=0
267021 On ch=1 n=c#6 v=0
267347 On ch=1 n=e5 v=0
267365 On ch=1 n=d#5 v=47
267373 On ch=1 n=a#5 v=27
267429 On ch=1 n=g4 v=20
267589 On ch=1 n=g4 v=0
267665 On ch=1 n=a#5 v=0
267689 On ch=1 n=a#3 v=0
267689 On ch=1 n=e5 v=58
267735 On ch=1 n=d#5 v=0
268007 On ch=1 n=d#5 v=55
268007 On ch=1 n=d#3 v=21
268017 On ch=1 n=a#5 v=32
268019 On ch=1 n=e5 v=0
268115 Par ch=1 c=64 v=0
268269 On ch=1 n=a#3 v=27
268301 On ch=1 n=d#3 v=0
268301 Par ch=1 c=64 v=127
268367 On ch=1 n=d#5 v=0
268372 On ch=1 n=a#5 v=0
268533 On ch=1 n=a#3 v=0
268635 On ch=1 n=c#5 v=55
268638 On ch=1 n=c#6 v=48
268665 On ch=1 n=a#5 v=29
268669 On ch=1 n=g4 v=35
268775 On ch=1 n=g4 v=0
268791 On ch=1 n=a#3 v=26
268833 On ch=1 n=c#5 v=0
268865 On ch=1 n=a#3 v=0
268897 On ch=1 n=a#5 v=0
268957 On ch=1 n=d#5 v=66
268999 On ch=1 n=c#6 v=0
269267 On ch=1 n=g#2 v=36
269355 On ch=1 n=c#6 v=44
269361 On ch=1 n=d#5 v=0
269363 On ch=1 n=f#5 v=36
269403 On ch=1 n=a5 v=17
269513 Par ch=1 c=64 v=0
269699 Par ch=1 c=64 v=127
269707 On ch=1 n=g#2 v=0
269719 On ch=1 n=a5 v=0
269729 On ch=1 n=g#3 v=42
269749 On ch=1 n=e5 v=55
269827 On ch=1 n=g#3 v=0
269881 On ch=1 n=c#6 v=0
269953 On ch=1 n=f#5 v=0
270029 On ch=1 n=d#5 v=61
270051 On ch=1 n=c6 v=45
270053 On ch=1 n=f#4 v=54
270057 On ch=1 n=e5 v=0
270059 On ch=1 n=a5 v=32
270197 On ch=1 n=f#4 v=0
270329 On ch=1 n=a5 v=0
270335 On ch=1 n=e5 v=76
270351 On ch=1 n=c6 v=0
270365 On ch=1 n=d#5 v=0
270573 On ch=1 n=g#2 v=50
270645 On ch=1 n=d#5 v=69
270661 On ch=1 n=c6 v=46
270671 On ch=1 n=a5 v=38
270673 On ch=1 n=e5 v=0
270789 Par ch=1 c=64 v=0
270881 On ch=1 n=g#3 v=47
270895 On ch=1 n=g#2 v=0
270943 On ch=1 n=c6 v=0
270973 Par ch=1 c=64 v=127
270997 On ch=1 n=g#3 v=0
271011 On ch=1 n=a5 v=0
271037 On ch=1 n=d#5 v=0
271193 On ch=1 n=c6 v=65
271196 On ch=1 n=e5 v=66
271213 On ch=1 n=a5 v=34
271235 On ch=1 n=f#4 v=39
271465 On ch=1 n=f#5 v=67
271473 On ch=1 n=f#4 v=0
271509 On ch=1 n=c6 v=0
271531 On ch=1 n=e5 v=0
271657 On ch=1 n=a5 v=0
271759 On ch=1 n=c#6 v=53
271761 On ch=1 n=e3 v=49
271764 On ch=1 n=g#5 v=54
271771 On ch=1 n=e5 v=64
271793 On ch=1 n=f#5 v=0
271833 Par ch=1 c=64 v=0
272037 On ch=1 n=e3 v=0
272049 Par ch=1 c=64 v=127
272051 On ch=1 n=e4 v=70
272117 On ch=1 n=c#6 v=0
272125 On ch=1 n=e5 v=0
272229 On ch=1 n=e4 v=0
272307 On ch=1 n=c#6 v=67
272307 On ch=1 n=f#5 v=67
272323 On ch=1 n=g#4 v=38
272331 On ch=1 n=e5 v=48
272337 On ch=1 n=g#5 v=0
272469 On ch=1 n=g#4 v=0
272533 On ch=1 n=e5 v=0
272577 On ch=1 n=g#5 v=84
272603 On ch=1 n=c#6 v=0
272737 On ch=1 n=f#5 v=0
272847 On ch=1 n=c#3 v=74
272850 On ch=1 n=a5 v=71
272860 Par ch=1 c=64 v=0
272862 On ch=1 n=c#6 v=70
272876 On ch=1 n=e5 v=61
272910 On ch=1 n=g#5 v=0
272972 On ch=1 n=c#3 v=0
273014 Par ch=1 c=64 v=127
273114 On ch=1 n=e4 v=90
273126 On ch=1 n=c#6 v=0
273158 On ch=1 n=e5 v=0
273242 On ch=1 n=e4 v=0
273300 On ch=1 n=a5 v=0
273368 On ch=1 n=g#5 v=81
273372 On ch=1 n=c#6 v=76
273384 On ch=1 n=a4 v=55
273392 On ch=1 n=e5 v=56
273498 On ch=1 n=a4 v=0
273534 On ch=1 n=e5 v=0
273624 On ch=1 n=c#6 v=0
273654 On ch=1 n=a5 v=83
273724 On ch=1 n=g#5 v=0
273948 On ch=1 n=b5 v=84
273964 On ch=1 n=d#6 v=78
273966 Par ch=1 c=64 v=0
273970 On ch=1 n=b2 v=88
273970 On ch=1 n=f#5 v=53
274024 On ch=1 n=a5 v=0
274170 On ch=1 n=b2 v=0
274182 Par ch=1 c=64 v=127
274276 On ch=1 n=d#6 v=0
274300 On ch=1 n=d#4 v=62
274370 On ch=1 n=f#5 v=0
274386 On ch=1 n=d#4 v=0
274546 On ch=1 n=c#3 v=76
274546 On ch=1 n=c#6 v=81
274549 On ch=1 n=g#5 v=60
274558 On ch=1 n=e5 v=72
274582 On ch=1 n=b5 v=0
274612 Par ch=1 c=64 v=0
274750 On ch=1 n=c#3 v=0
274750 Par ch=1 c=64 v=127
274824 On ch=1 n=e4 v=71
274838 On ch=1 n=a5 v=68
274848 On ch=1 n=e5 v=0
274888 On ch=1 n=c#6 v=0
274906 On ch=1 n=g#5 v=0
274932 On ch=1 n=e4 v=0
275080 On ch=1 n=c6 v=79
275085 On ch=1 n=d#3 v=66
275088 Par ch=1 c=64 v=0
275090 On ch=1 n=f#5 v=55
275090 On ch=1 n=d#5 v=69
275130 On ch=1 n=a5 v=0
275306 On ch=1 n=d#3 v=0
275318 Par ch=1 c=64 v=127
275356 On ch=1 n=f#4 v=70
275454 On ch=1 n=d#5 v=0
275456 On ch=1 n=c6 v=0
275494 On ch=1 n=f#4 v=0
275600 On ch=1 n=c#6 v=70
275600 On ch=1 n=c#5 v=69
275608 On ch=1 n=g#5 v=58
275618 On ch=1 n=f#5 v=0
275624 On ch=1 n=e3 v=69
275626 Par ch=1 c=64 v=0
275810 Par ch=1 c=64 v=127
275886 On ch=1 n=c#6 v=0
275891 On ch=1 n=c#4 v=48
275891 On ch=1 n=e5 v=79
275894 On ch=1 n=c#5 v=0
275900 On ch=1 n=e3 v=0
275948 On ch=1 n=g#5 v=0
276070 On ch=1 n=c#4 v=0
276228 On ch=1 n=f#3 v=38
276250 On ch=1 n=d#5 v=58
276253 On ch=1 n=b5 v=73
276260 On ch=1 n=f#5 v=43
276304 On ch=1 n=e5 v=0
276318 Par ch=1 c=64 v=0
276576 On ch=1 n=f#4 v=47
276624 Par ch=1 c=64 v=127
276722 On ch=1 n=f#4 v=0
276888 On ch=1 n=d#3 v=34
276914 On ch=1 n=f#3 v=0
277050 On ch=1 n=d#5 v=0
277240 On ch=1 n=a5 v=41
277246 On ch=1 n=c#5 v=29
277262 On ch=1 n=d#4 v=24
277328 On ch=1 n=b5 v=0
277394 On ch=1 n=f#5 v=0
277484 On ch=1 n=d#4 v=0
277542 On ch=1 n=c#5 v=0
277620 On ch=1 n=g#3 v=24
277646 On ch=1 n=g#5 v=40
277666 On ch=1 n=d#5 v=28
277670 On ch=1 n=a5 v=0
277670 Par ch=1 c=64 v=0
277678 On ch=1 n=c5 v=25
277708 On ch=1 n=d#3 v=0
277962 Par ch=1 c=64 v=127
278048 On ch=1 n=g#4 v=19
278104 On ch=1 n=c5 v=0
278112 On ch=1 n=d#5 v=0
278114 On ch=1 n=g#3 v=0
278146 On ch=1 n=g#5 v=0
278250 On ch=1 n=g#4 v=0
278454 On ch=1 n=c#5 v=39
278464 On ch=1 n=c#6 v=39
278486 On ch=1 n=a5 v=19
278492 On ch=1 n=c#4 v=23
278496 On ch=1 n=a4 v=11
278622 Par ch=1 c=64 v=0
278792 Par ch=1 c=64 v=127
278800 On ch=1 n=a4 v=0
278836 On ch=1 n=d#5 v=49
278882 On ch=1 n=c#5 v=0
278882 On ch=1 n=e4 v=34
278940 On ch=1 n=e4 v=0
278948 On ch=1 n=c#6 v=0
278950 On ch=1 n=a5 v=0
278964 On ch=1 n=c#4 v=0
279070 On ch=1 n=d#5 v=0
279142 On ch=1 n=c#4 v=37
279154 On ch=1 n=e5 v=55
279154 On ch=1 n=c#6 v=52
279166 On ch=1 n=a5 v=30
279460 On ch=1 n=a3 v=34
279480 On ch=1 n=c#4 v=0
279514 On ch=1 n=a5 v=0
279548 On ch=1 n=c#6 v=0
279662 On ch=1 n=a3 v=0
279712 On ch=1 n=d#5 v=58
279714 On ch=1 n=c#6 v=40
279736 On ch=1 n=a5 v=25
279744 On ch=1 n=c#3 v=33
279760 On ch=1 n=e5 v=0
279924 On ch=1 n=d#5 v=0
279932 On ch=1 n=c#3 v=0
279952 On ch=1 n=a5 v=0
279988 On ch=1 n=e5 v=74
279996 On ch=1 n=c#6 v=0
280008 On ch=1 n=a3 v=39
280064 On ch=1 n=a3 v=0
280260 On ch=1 n=f#3 v=42
280282 On ch=1 n=d#5 v=65
280284 On ch=1 n=c#6 v=54
280294 On ch=1 n=a5 v=34
280332 On ch=1 n=e5 v=0
280388 Par ch=1 c=64 v=0
280522 On ch=1 n=c#4 v=52
280574 Par ch=1 c=64 v=127
280590 On ch=1 n=a5 v=0
280602 On ch=1 n=f#3 v=0
280616 On ch=1 n=c#6 v=0
280708 On ch=1 n=d#5 v=0
280708 On ch=1 n=c#4 v=0
280794 On ch=1 n=c#5 v=72
280797 On ch=1 n=c#6 v=60
280812 On ch=1 n=a4 v=38
280828 On ch=1 n=a5 v=36
280924 On ch=1 n=a4 v=0
280984 On ch=1 n=c#5 v=0
281030 On ch=1 n=c#6 v=0
281072 On ch=1 n=d#5 v=76
281092 On ch=1 n=e4 v=43
281112 On ch=1 n=a5 v=0
281144 On ch=1 n=e4 v=0
281310 On ch=1 n=d#5 v=0
281370 On ch=1 n=c#6 v=55
281370 On ch=1 n=c#4 v=44
281373 On ch=1 n=f#5 v=54
281390 On ch=1 n=a5 v=32
281596 On ch=1 n=c#4 v=0
281652 On ch=1 n=a5 v=0
281684 On ch=1 n=e5 v=73
281696 On ch=1 n=a3 v=42
281698 On ch=1 n=c#6 v=0
281738 On ch=1 n=f#5 v=0
281796 On ch=1 n=a3 v=0
281912 On ch=1 n=e5 v=0
281924 On ch=1 n=c#6 v=64
281926 On ch=1 n=d#5 v=65
281940 On ch=1 n=a5 v=39
281940 On ch=1 n=c#3 v=35
282102 On ch=1 n=d#5 v=0
282112 On ch=1 n=c#3 v=0
282124 On ch=1 n=a5 v=0
282148 On ch=1 n=c#6 v=0
282170 On ch=1 n=e5 v=78
282186 On ch=1 n=a3 v=49
282240 On ch=1 n=a3 v=0
282406 On ch=1 n=f#3 v=58
282436 On ch=1 n=d#5 v=73
282438 On ch=1 n=c#6 v=66
282452 On ch=1 n=a5 v=41
282478 On ch=1 n=e5 v=0
282570 Par ch=1 c=64 v=0
282674 On ch=1 n=c#4 v=58
282732 On ch=1 n=f#3 v=0
282770 Par ch=1 c=64 v=127
282778 On ch=1 n=a5 v=0
282818 On ch=1 n=c#6 v=0
282852 On ch=1 n=d#5 v=0
282960 On ch=1 n=c#6 v=70
282960 On ch=1 n=e5 v=69
282970 On ch=1 n=a5 v=37
282970 On ch=1 n=a4 v=54
283100 On ch=1 n=a4 v=0
283184 On ch=1 n=e5 v=0
283198 On ch=1 n=c#6 v=0
283201 On ch=1 n=f#5 v=69
283208 On ch=1 n=d#4 v=68
283248 On ch=1 n=a5 v=0
283252 On ch=1 n=d#4 v=0
283254 On ch=1 n=c#4 v=0
283392 On ch=1 n=f#5 v=0
283454 On ch=1 n=g#5 v=77
283460 On ch=1 n=c#6 v=70
283466 On ch=1 n=e3 v=87
283472 On ch=1 n=e5 v=70
283524 Par ch=1 c=64 v=0
283726 On ch=1 n=e3 v=0
283734 On ch=1 n=e4 v=81
283754 Par ch=1 c=64 v=127
283782 On ch=1 n=c#6 v=0
283806 On ch=1 n=e4 v=0
283822 On ch=1 n=e5 v=0
283888 On ch=1 n=g#5 v=0
283948 On ch=1 n=f#5 v=73
283951 On ch=1 n=g#4 v=70
283954 On ch=1 n=c#6 v=80
283970 On ch=1 n=e5 v=73
284144 On ch=1 n=e5 v=0
284178 On ch=1 n=g#4 v=0
284183 On ch=1 n=f#5 v=0
284183 On ch=1 n=c#5 v=73
284204 On ch=1 n=g#5 v=81
284242 On ch=1 n=c#6 v=0
284246 On ch=1 n=c#5 v=0
284346 On ch=1 n=g#5 v=0
284414 Par ch=1 c=64 v=0
284428 On ch=1 n=c#3 v=88
284446 On ch=1 n=a#5 v=82
284458 On ch=1 n=e6 v=72
284466 On ch=1 n=c#3 v=0
284470 On ch=1 n=e5 v=67
284552 Par ch=1 c=64 v=127
284746 On ch=1 n=e4 v=82
284778 On ch=1 n=a#5 v=0
284794 On ch=1 n=e6 v=0
284798 On ch=1 n=e5 v=0
284908 On ch=1 n=e4 v=0
284980 On ch=1 n=g#5 v=76
284986 On ch=1 n=e6 v=85
284994 On ch=1 n=e5 v=82
284998 On ch=1 n=a#4 v=61
285062 On ch=1 n=a#4 v=0
285110 On ch=1 n=e5 v=0
285184 On ch=1 n=e6 v=0
285236 On ch=1 n=c#5 v=69
285246 On ch=1 n=a#5 v=78
285282 On ch=1 n=c#5 v=0
285342 On ch=1 n=g#5 v=0
285520 On ch=1 n=a#5 v=0
285556 On ch=1 n=b2 v=95
285559 On ch=1 n=b5 v=96
285564 On ch=1 n=d#6 v=81
285566 On ch=1 n=f#5 v=65
285582 Par ch=1 c=64 v=0
285746 On ch=1 n=b2 v=0
285782 Par ch=1 c=64 v=127
285856 On ch=1 n=d#4 v=71
285880 On ch=1 n=d#6 v=0
285930 On ch=1 n=f#5 v=0
285966 On ch=1 n=d#4 v=0
286076 On ch=1 n=g#5 v=68
286076 On ch=1 n=c#6 v=79
286079 On ch=1 n=c#3 v=81
286079 On ch=1 n=e5 v=82
286104 Par ch=1 c=64 v=0
286124 On ch=1 n=b5 v=0
286258 Par ch=1 c=64 v=127
286282 On ch=1 n=c#3 v=0
286344 On ch=1 n=e4 v=85
286344 On ch=1 n=a#5 v=68
286347 On ch=1 n=g#5 v=0
286374 On ch=1 n=e5 v=0
286458 On ch=1 n=e4 v=0
286580 On ch=1 n=a#5 v=0
286583 On ch=1 n=d#3 v=83
286590 On ch=1 n=b5 v=89
286590 On ch=1 n=d#5 v=73
286593 On ch=1 n=f#5 v=62
286612 Par ch=1 c=64 v=0
286660 On ch=1 n=c#6 v=0
286802 On ch=1 n=d#3 v=0
286826 Par ch=1 c=64 v=127
286838 On ch=1 n=f#4 v=84
286880 On ch=1 n=b5 v=0
286888 On ch=1 n=f#5 v=0
286964 On ch=1 n=d#5 v=0
286980 On ch=1 n=f#4 v=0
287068 On ch=1 n=c#3 v=89
287070 On ch=1 n=b5 v=98
287070 On ch=1 n=g#5 v=71
287074 On ch=1 n=e5 v=84
287088 Par ch=1 c=64 v=0
287272 Par ch=1 c=64 v=127
287322 On ch=1 n=g#5 v=0
287328 On ch=1 n=c#3 v=0
287328 On ch=1 n=b5 v=0
287342 On ch=1 n=c#6 v=83
287352 On ch=1 n=a#5 v=71
287364 On ch=1 n=e4 v=81
287414 On ch=1 n=e4 v=0
287436 On ch=1 n=e5 v=0
287496 On ch=1 n=c#6 v=0
287616 On ch=1 n=d#6 v=87
287626 On ch=1 n=f#5 v=58
287628 On ch=1 n=d#5 v=72
287628 On ch=1 n=b2 v=78
287658 On ch=1 n=a#5 v=0
287660 Par ch=1 c=64 v=0
287930 On ch=1 n=b2 v=0
287933 Par ch=1 c=64 v=127
287933 On ch=1 n=b5 v=94
287944 On ch=1 n=d#4 v=66
287998 On ch=1 n=d#6 v=0
288022 On ch=1 n=d#4 v=0
288056 On ch=1 n=d#5 v=0
288088 On ch=1 n=b5 v=0
288124 On ch=1 n=f#5 v=0
288184 On ch=1 n=g#5 v=80
288198 On ch=1 n=e5 v=71
288198 On ch=1 n=c#3 v=66
288210 Par ch=1 c=64 v=0
288332 Par ch=1 c=64 v=127
288344 On ch=1 n=c#3 v=0
288422 On ch=1 n=g#5 v=0
288436 On ch=1 n=e5 v=0
288450 On ch=1 n=a#5 v=78
288462 On ch=1 n=e4 v=57
288494 On ch=1 n=a#5 v=0
288602 On ch=1 n=e4 v=0
288722 On ch=1 n=f#5 v=60
288736 On ch=1 n=f#4 v=41
288742 On ch=1 n=d#3 v=45
288744 On ch=1 n=b4 v=47
288794 Par ch=1 c=64 v=0
289054 On ch=1 n=d#5 v=71
289062 On ch=1 n=b3 v=43
289070 Par ch=1 c=64 v=127
289106 On ch=1 n=b4 v=0
289140 On ch=1 n=f#5 v=0
289208 On ch=1 n=f#4 v=0
289211 On ch=1 n=d#3 v=0
289314 On ch=1 n=d#5 v=0
289332 On ch=1 n=b3 v=0
289340 On ch=1 n=c#5 v=65
289350 On ch=1 n=f4 v=59
289362 On ch=1 n=g#3 v=37
289370 On ch=1 n=b4 v=32
289454 Par ch=1 c=64 v=0
289640 On ch=1 n=b4 v=0
289648 On ch=1 n=d#5 v=68
289668 Par ch=1 c=64 v=127
289670 On ch=1 n=c#3 v=34
289694 On ch=1 n=c#5 v=0
289708 On ch=1 n=g#3 v=0
290036 On ch=1 n=b4 v=55
290039 On ch=1 n=g#4 v=44
290048 On ch=1 n=c#3 v=0
290052 On ch=1 n=d#3 v=26
290084 On ch=1 n=f4 v=0
290146 Par ch=1 c=64 v=0
290224 On ch=1 n=d#5 v=0
290458 On ch=1 n=d#4 v=26
290714 Par ch=1 c=64 v=127
290822 Par ch=1 c=64 v=0
290828 On ch=1 n=a#4 v=30
290854 On ch=1 n=g4 v=28
290870 On ch=1 n=b4 v=0
290878 On ch=1 n=g#4 v=0
291114 Par ch=1 c=64 v=127
291126 On ch=1 n=d#4 v=0
291224 On ch=1 n=d#3 v=0
291488 On ch=1 n=g4 v=0
291496 On ch=1 n=g#4 v=32
291528 Par ch=1 c=64 v=0
291548 On ch=1 n=g#2 v=20
291660 On ch=1 n=a#4 v=0
291910 On ch=1 n=g#3 v=21
292020 Par ch=1 c=64 v=127
292024 On ch=1 n=g#2 v=0
292606 On ch=1 n=g#5 v=27
292664 On ch=1 n=g#4 v=0
292708 On ch=1 n=g#3 v=0
292834 Par ch=1 c=64 v=0
293080 Par ch=1 c=64 v=127
293302 On ch=1 n=a5 v=23
293334 On ch=1 n=a3 v=14
293352 On ch=1 n=a4 v=9
293374 On ch=1 n=g#5 v=0
293634 Par ch=1 c=64 v=0
293818 Par ch=1 c=64 v=127
293910 Par ch=1 c=64 v=0
293926 On ch=1 n=e5 v=27
293948 On ch=1 n=e3 v=27
294030 On ch=1 n=a5 v=0
294064 On ch=1 n=a3 v=0
294078 Par ch=1 c=64 v=127
294140 Par ch=1 c=64 v=0
294176 On ch=1 n=a4 v=0
294293 Par ch=1 c=64 v=127
294402 Par ch=1 c=64 v=0
294448 Par ch=1 c=64 v=127
294468 On ch=1 n=c#5 v=33
294472 On ch=1 n=e3 v=0
294478 On ch=1 n=c#3 v=18
294498 On ch=1 n=c#4 v=14
294550 On ch=1 n=e5 v=0
294570 Par ch=1 c=64 v=0
294832 Par ch=1 c=64 v=127
295010 On ch=1 n=c#3 v=0
295036 On ch=1 n=e3 v=36
295044 On ch=1 n=e5 v=35
295070 On ch=1 n=c#4 v=0
295078 Par ch=1 c=64 v=0
295118 On ch=1 n=c#5 v=0
295370 Par ch=1 c=64 v=127
295590 On ch=1 n=g#4 v=24
295592 On ch=1 n=e3 v=0
295592 On ch=1 n=g#5 v=31
295600 On ch=1 n=g#3 v=26
295646 Par ch=1 c=64 v=0
295666 On ch=1 n=e5 v=0
295954 Par ch=1 c=64 v=127
296136 On ch=1 n=d#3 v=21
296138 On ch=1 n=d#5 v=29
296176 On ch=1 n=g#3 v=0
296230 Par ch=1 c=64 v=0
296284 On ch=1 n=g#4 v=0
296286 On ch=1 n=g#5 v=0
296492 Par ch=1 c=64 v=127
296636 On ch=1 n=d#3 v=0
296706 On ch=1 n=b4 v=22
296738 On ch=1 n=b2 v=19
296741 On ch=1 n=d#5 v=0
296752 On ch=1 n=b3 v=10
296784 Par ch=1 c=64 v=0
297074 Par ch=1 c=64 v=127
297220 On ch=1 n=b3 v=0
297276 On ch=1 n=d#3 v=16
297284 On ch=1 n=b2 v=0
297292 On ch=1 n=d#5 v=23
297308 On ch=1 n=b4 v=0
297382 Par ch=1 c=64 v=0
297628 Par ch=1 c=64 v=127
297856 On ch=1 n=d#3 v=0
297859 On ch=1 n=f#5 v=30
297878 On ch=1 n=f#4 v=24
297881 On ch=1 n=f#3 v=25
297940 On ch=1 n=d#5 v=0
297966 Par ch=1 c=64 v=0
298136 Par ch=1 c=64 v=127
298260 On ch=1 n=f#4 v=0
298264 On ch=1 n=f#3 v=0
298394 On ch=1 n=e5 v=38
298418 On ch=1 n=e3 v=29
298442 On ch=1 n=e4 v=25
298488 On ch=1 n=f#5 v=0
298506 On ch=1 n=e4 v=0
298632 On ch=1 n=e3 v=0
298644 On ch=1 n=d#5 v=47
298650 On ch=1 n=d#3 v=41
298688 On ch=1 n=d#4 v=24
298704 Par ch=1 c=64 v=0
298718 On ch=1 n=e5 v=0
298774 On ch=1 n=d#4 v=0
298812 Par ch=1 c=64 v=127
298942 On ch=1 n=c#5 v=43
298944 On ch=1 n=c#3 v=36
298946 On ch=1 n=d#3 v=0
298960 On ch=1 n=c#4 v=20
298988 On ch=1 n=d#5 v=0
299042 Par ch=1 c=64 v=0
299196 Par ch=1 c=64 v=127
299242 On ch=1 n=c#4 v=0
299424 On ch=1 n=c#3 v=0
299472 On ch=1 n=c#5 v=0
299475 On ch=1 n=b4 v=38
299500 On ch=1 n=b2 v=41
299503 Par ch=1 c=64 v=0
299512 On ch=1 n=b3 v=15
299604 On ch=1 n=b3 v=0
299656 Par ch=1 c=64 v=127
299738 On ch=1 n=a#4 v=39
299760 On ch=1 n=a#2 v=41
299768 On ch=1 n=a#3 v=24
299770 On ch=1 n=b4 v=0
299772 On ch=1 n=b2 v=0
299810 Par ch=1 c=64 v=0
299948 Par ch=1 c=64 v=127
299994 On ch=1 n=a#3 v=0
300052 On ch=1 n=d#5 v=42
300055 On ch=1 n=d#3 v=24
300060 On ch=1 n=d#4 v=23
300072 Par ch=1 c=64 v=0
300090 On ch=1 n=a#4 v=0
300092 On ch=1 n=a#2 v=0
300256 Par ch=1 c=64 v=127
300350 On ch=1 n=d#4 v=0
300486 On ch=1 n=d#5 v=0
300590 On ch=1 n=d#3 v=0
300608 On ch=1 n=e5 v=42
300644 On ch=1 n=e4 v=19
300644 On ch=1 n=e3 v=31
300702 Par ch=1 c=64 v=0
300948 Par ch=1 c=64 v=127
301046 On ch=1 n=e4 v=0
301164 On ch=1 n=e3 v=0
301178 On ch=1 n=c#5 v=57
301190 On ch=1 n=c#4 v=18
301202 On ch=1 n=c#3 v=17
301264 On ch=1 n=e5 v=0
301286 Par ch=1 c=64 v=0
301530 Par ch=1 c=64 v=127
301684 On ch=1 n=c#4 v=0
301764 On ch=1 n=d#5 v=49
301792 Par ch=1 c=64 v=0
301802 On ch=1 n=d#4 v=21
301806 On ch=1 n=d#3 v=26
301808 On ch=1 n=c#5 v=0
301838 On ch=1 n=c#3 v=0
302070 Par ch=1 c=64 v=127
302150 On ch=1 n=d#5 v=0
302200 On ch=1 n=d#3 v=0
302278 On ch=1 n=d#4 v=0
302420 On ch=1 n=c#5 v=37
302449 On ch=1 n=g#2 v=24
302458 On ch=1 n=g#3 v=20
302461 On ch=1 n=e4 v=22
302464 On ch=1 n=g4 v=21
302500 Par ch=1 c=64 v=0
302714 Par ch=1 c=64 v=127
302802 On ch=1 n=e4 v=0
302840 On ch=1 n=c#5 v=0
302874 On ch=1 n=g4 v=0
303032 On ch=1 n=b4 v=41
303040 On ch=1 n=g#4 v=17
303046 On ch=1 n=d#4 v=25
303128 Par ch=1 c=64 v=0
303330 Par ch=1 c=64 v=127
303364 On ch=1 n=d#4 v=0
303506 On ch=1 n=g#4 v=0
303568 On ch=1 n=a#4 v=35
303580 On ch=1 n=b4 v=0
303602 On ch=1 n=g4 v=25
303605 Par ch=1 c=64 v=0
303614 On ch=1 n=c#4 v=29
303722 On ch=1 n=c#4 v=0
303724 On ch=1 n=g#2 v=0
303774 Par ch=1 c=64 v=127
303776 On ch=1 n=g#3 v=0
303806 On ch=1 n=g4 v=0
303902 On ch=1 n=a#4 v=0
304156 On ch=1 n=g#4 v=14
304164 On ch=1 n=g#6 v=45
304166 On ch=1 n=g#5 v=32
304170 On ch=1 n=g#3 v=20
304244 On ch=1 n=b3 v=11
304296 Par ch=1 c=64 v=0
304436 On ch=1 n=b3 v=0
304466 Par ch=1 c=64 v=127
304472 On ch=1 n=g#3 v=0
304610 On ch=1 n=g#5 v=0
304662 On ch=1 n=g#4 v=0
304710 On ch=1 n=g#6 v=0
304713 On ch=1 n=c#4 v=27
304740 On ch=1 n=e4 v=10
304742 On ch=1 n=a6 v=36
304754 On ch=1 n=a5 v=22
304788 Par ch=1 c=64 v=0
304862 On ch=1 n=e4 v=0
304942 Par ch=1 c=64 v=127
305004 On ch=1 n=a6 v=0
305060 On ch=1 n=e4 v=14
305080 On ch=1 n=a5 v=0
305230 On ch=1 n=e4 v=0
305318 On ch=1 n=e6 v=42
305352 On ch=1 n=e5 v=21
305560 On ch=1 n=e5 v=0
305562 On ch=1 n=e6 v=0
305562 On ch=1 n=a4 v=35
305626 On ch=1 n=a4 v=0
305762 On ch=1 n=c#4 v=0
305822 On ch=1 n=g#4 v=37
305836 On ch=1 n=c#6 v=41
305850 On ch=1 n=c#5 v=32
305864 On ch=1 n=e4 v=36
305920 On ch=1 n=e4 v=0
306078 Par ch=1 c=64 v=0
306120 On ch=1 n=e4 v=70
306200 On ch=1 n=c#5 v=0
306248 Par ch=1 c=64 v=127
306398 On ch=1 n=e6 v=61
306400 On ch=1 n=e4 v=0
306414 On ch=1 n=e5 v=41
306442 On ch=1 n=c#6 v=0
306570 On ch=1 n=e5 v=0
306616 On ch=1 n=c#4 v=53
306678 On ch=1 n=e6 v=0
306846 On ch=1 n=c#4 v=0
306882 On ch=1 n=g#6 v=72
306884 On ch=1 n=g#5 v=54
306894 Par ch=1 c=64 v=0
306910 On ch=1 n=b3 v=30
306926 On ch=1 n=d#4 v=37
306928 On ch=1 n=g#4 v=0
307004 On ch=1 n=d#4 v=0
307200 Par ch=1 c=64 v=127
307222 On ch=1 n=d#4 v=46
307260 On ch=1 n=g#6 v=0
307324 On ch=1 n=g#5 v=0
307478 On ch=1 n=d#4 v=0
307514 On ch=1 n=d#6 v=57
307530 On ch=1 n=d#5 v=35
307684 On ch=1 n=d#6 v=0
307738 On ch=1 n=d#5 v=0
307738 On ch=1 n=g#4 v=53
307836 On ch=1 n=g#4 v=0
308016 On ch=1 n=b5 v=52
308020 On ch=1 n=f#4 v=52
308028 On ch=1 n=b4 v=20
308042 On ch=1 n=b3 v=0
308054 On ch=1 n=d#4 v=45
308060 Par ch=1 c=64 v=0
308228 On ch=1 n=d#4 v=0
308262 Par ch=1 c=64 v=127
308336 On ch=1 n=d#4 v=29
308368 On ch=1 n=b4 v=0
308440 On ch=1 n=b5 v=0
308600 On ch=1 n=d#4 v=0
308632 On ch=1 n=d#6 v=70
308640 On ch=1 n=d#5 v=55
308814 On ch=1 n=d#5 v=0
308864 On ch=1 n=b3 v=44
309032 On ch=1 n=b3 v=0
309114 On ch=1 n=f#4 v=0
309134 On ch=1 n=f#6 v=73
309136 On ch=1 n=c#4 v=45
309136 On ch=1 n=f#5 v=45
309150 On ch=1 n=a#3 v=40
309208 On ch=1 n=c#4 v=0
309210 On ch=1 n=d#6 v=0
309336 Par ch=1 c=64 v=0
309410 On ch=1 n=c#4 v=47
309522 Par ch=1 c=64 v=127
309548 On ch=1 n=f#6 v=0
309580 On ch=1 n=f#5 v=0
309676 On ch=1 n=e6 v=48
309694 On ch=1 n=c#4 v=0
309694 On ch=1 n=e5 v=41
309758 On ch=1 n=e5 v=0
309948 On ch=1 n=d#6 v=52
309948 On ch=1 n=f#4 v=48
309956 On ch=1 n=e6 v=0
309962 On ch=1 n=d#5 v=37
310018 On ch=1 n=f#4 v=0
310076 On ch=1 n=a#3 v=0
310079 On ch=1 n=d#5 v=0
310082 On ch=1 n=d#6 v=0
310214 On ch=1 n=a3 v=39
310220 On ch=1 n=e4 v=48
310240 On ch=1 n=c#6 v=50
310243 On ch=1 n=c#5 v=44
310298 On ch=1 n=e4 v=0
310476 Par ch=1 c=64 v=0
310518 On ch=1 n=e4 v=47
310612 On ch=1 n=c#5 v=0
310642 Par ch=1 c=64 v=127
310746 On ch=1 n=d#6 v=55
310749 On ch=1 n=d#5 v=49
310810 On ch=1 n=e4 v=0
310866 On ch=1 n=d#5 v=0
310880 On ch=1 n=d#6 v=0
310966 On ch=1 n=c#6 v=0
311008 On ch=1 n=c#4 v=37
311012 On ch=1 n=e6 v=28
311026 On ch=1 n=e5 v=40
311078 On ch=1 n=e5 v=0
311086 On ch=1 n=e6 v=0
311100 On ch=1 n=c#4 v=0
311120 On ch=1 n=a3 v=0
311302 On ch=1 n=g#3 v=52
311314 On ch=1 n=g#5 v=44
311518 Par ch=1 c=64 v=0
311590 On ch=1 n=g#4 v=34
311618 On ch=1 n=c#4 v=18
311621 On ch=1 n=e4 v=32
311624 On ch=1 n=e5 v=38
311628 On ch=1 n=c#5 v=21
311718 Par ch=1 c=64 v=127
311732 On ch=1 n=g#4 v=0
311735 On ch=1 n=c#4 v=0
311740 On ch=1 n=c#5 v=0
311744 On ch=1 n=e4 v=0
311828 On ch=1 n=g#5 v=0
311836 On ch=1 n=a5 v=49
311844 On ch=1 n=e5 v=0
311906 On ch=1 n=a3 v=30
311908 On ch=1 n=g#3 v=0
311964 Par ch=1 c=64 v=0
312118 On ch=1 n=a4 v=28
312118 On ch=1 n=e5 v=41
312128 On ch=1 n=c#5 v=25
312132 On ch=1 n=e4 v=36
312132 Par ch=1 c=64 v=127
312150 On ch=1 n=a5 v=0
312154 On ch=1 n=c#4 v=12
312200 On ch=1 n=c#5 v=0
312204 On ch=1 n=e5 v=0
312208 On ch=1 n=a4 v=0
312230 On ch=1 n=e4 v=0
312256 On ch=1 n=c#4 v=0
312332 On ch=1 n=a3 v=0
312378 On ch=1 n=f#5 v=39
312381 On ch=1 n=f#3 v=32
312548 Par ch=1 c=64 v=0
312692 On ch=1 n=f#4 v=28
312716 On ch=1 n=d#5 v=24
312720 On ch=1 n=d#4 v=26
312732 On ch=1 n=c#5 v=15
312748 Par ch=1 c=64 v=127
312766 On ch=1 n=c#4 v=3
312794 On ch=1 n=d#4 v=0
312830 On ch=1 n=f#4 v=0
312838 On ch=1 n=c#5 v=0
312840 On ch=1 n=f#5 v=0
312874 On ch=1 n=c#4 v=0
312902 On ch=1 n=d#5 v=0
312994 On ch=1 n=g#5 v=35
313024 On ch=1 n=g#3 v=30
313056 Par ch=1 c=64 v=0
313072 On ch=1 n=f#3 v=0
313286 Par ch=1 c=64 v=127
313346 On ch=1 n=g#4 v=8
313346 On ch=1 n=d#5 v=21
313349 On ch=1 n=g#5 v=0
313360 On ch=1 n=d#4 v=20
313362 On ch=1 n=c4 v=9
313442 On ch=1 n=d#4 v=0
313450 On ch=1 n=c4 v=0
313476 On ch=1 n=g#4 v=0
313500 On ch=1 n=d#5 v=0
313506 On ch=1 n=g#3 v=0
313776 On ch=1 n=c#5 v=33
313790 On ch=1 n=f#4 v=39
313822 On ch=1 n=a3 v=16
313826 On ch=1 n=c#3 v=25
314192 Par ch=1 c=64 v=0
314362 Par ch=1 c=64 v=127
314402 On ch=1 n=a3 v=0
314405 On ch=1 n=g#3 v=23
314408 On ch=1 n=e4 v=44
314492 On ch=1 n=f#4 v=0
314668 Par ch=1 c=64 v=0
314852 Par ch=1 c=64 v=127
315062 On ch=1 n=g#3 v=0
315072 On ch=1 n=d#4 v=34
315088 On ch=1 n=e4 v=0
315114 On ch=1 n=f#3 v=15
315130 Par ch=1 c=64 v=0
315344 Par ch=1 c=64 v=127
315426 On ch=1 n=d#4 v=0
315536 On ch=1 n=c#5 v=0
315764 On ch=1 n=f#3 v=0
315878 On ch=1 n=c#4 v=11
315886 On ch=1 n=e3 v=28
315946 On ch=1 n=c#6 v=60
315956 On ch=1 n=c#5 v=37
316128 Par ch=1 c=64 v=0
316236 Par ch=1 c=64 v=127
316250 On ch=1 n=c#5 v=0
316308 On ch=1 n=c#6 v=0
316402 On ch=1 n=d#6 v=76
316422 On ch=1 n=d#5 v=50
316480 On ch=1 n=c#4 v=0
316488 On ch=1 n=e3 v=0
316568 On ch=1 n=c#3 v=0
316574 On ch=1 n=d#5 v=0
316746 On ch=1 n=d#6 v=0
316984 On ch=1 n=e6 v=79
316990 On ch=1 n=a#2 v=41
316992 On ch=1 n=c#6 v=52
316994 On ch=1 n=e5 v=56
316996 On ch=1 n=g#5 v=42
317050 Par ch=1 c=64 v=0
317220 Par ch=1 c=64 v=127
317242 On ch=1 n=a#2 v=0
317462 On ch=1 n=c#4 v=35
317768 On ch=1 n=e4 v=48
317947 On ch=1 n=c#4 v=0
318056 On ch=1 n=g#4 v=46
318082 On ch=1 n=e4 v=0
318496 On ch=1 n=c#5 v=47
318830 On ch=1 n=e6 v=0
318844 On ch=1 n=e5 v=0
319062 On ch=1 n=c#5 v=0
319112 On ch=1 n=d#6 v=69
319118 On ch=1 n=d#5 v=64
319144 On ch=1 n=c#6 v=0
319300 On ch=1 n=g#4 v=0
319334 On ch=1 n=d#5 v=0
319412 On ch=1 n=d#6 v=0
319478 On ch=1 n=e6 v=71
319484 On ch=1 n=e5 v=72
319498 On ch=1 n=g#5 v=0
319700 On ch=1 n=e6 v=0
319738 On ch=1 n=e5 v=0
319954 On ch=1 n=d#6 v=67
319954 On ch=1 n=d#5 v=62
319962 On ch=1 n=c#6 v=43
319966 On ch=1 n=g5 v=52
319972 On ch=1 n=d#3 v=49
319984 Par ch=1 c=64 v=0
320196 On ch=1 n=d#3 v=0
320200 Par ch=1 c=64 v=127
320360 On ch=1 n=c#4 v=60
320656 On ch=1 n=g4 v=62
321004 On ch=1 n=a#4 v=48
321062 On ch=1 n=c#4 v=0
321310 On ch=1 n=d#5 v=0
321488 On ch=1 n=g4 v=0
321491 On ch=1 n=c#5 v=47
321540 On ch=1 n=g5 v=0
321712 On ch=1 n=c#6 v=0
321894 On ch=1 n=g5 v=2
321896 On ch=1 n=c#5 v=0
322006 On ch=1 n=a#4 v=0
322024 On ch=1 n=d#6 v=0
322138 On ch=1 n=g5 v=0
322228 On ch=1 n=c#6 v=78
322234 On ch=1 n=c#5 v=68
322540 On ch=1 n=c#5 v=0
322618 On ch=1 n=c#6 v=0
322714 On ch=1 n=d#6 v=90
322730 On ch=1 n=d#5 v=73
323020 On ch=1 n=d#5 v=0
323108 On ch=1 n=d#6 v=0
323236 On ch=1 n=f#6 v=82
323238 On ch=1 n=f#5 v=64
323240 On ch=1 n=d#2 v=86
323248 On ch=1 n=a5 v=51
323248 On ch=1 n=c#6 v=53
323274 Par ch=1 c=64 v=0
323472 On ch=1 n=d#2 v=0
323488 Par ch=1 c=64 v=127
323716 On ch=1 n=c#4 v=70
324106 On ch=1 n=f#4 v=79
324454 On ch=1 n=a4 v=69
324518 On ch=1 n=f#4 v=0
324702 On ch=1 n=c#4 v=0
324976 On ch=1 n=c#5 v=55
325070 On ch=1 n=a4 v=0
325320 On ch=1 n=f#6 v=0
325342 On ch=1 n=f#5 v=0
325552 On ch=1 n=a5 v=0
325586 On ch=1 n=e6 v=79
325608 On ch=1 n=e5 v=52
325618 On ch=1 n=c#6 v=0
325880 On ch=1 n=e5 v=0
326034 On ch=1 n=c#5 v=0
326130 On ch=1 n=d#6 v=86
326136 On ch=1 n=d#5 v=79
326190 On ch=1 n=e6 v=0
326446 On ch=1 n=d#5 v=0
326578 On ch=1 n=e6 v=90
326588 On ch=1 n=e5 v=81
326638 On ch=1 n=d#6 v=0
326860 On ch=1 n=e5 v=0
326902 On ch=1 n=e6 v=0
327096 On ch=1 n=f#6 v=83
327100 On ch=1 n=g#5 v=54
327110 On ch=1 n=f#5 v=70
327114 On ch=1 n=g#2 v=34
327120 On ch=1 n=c#6 v=44
327144 Par ch=1 c=64 v=0
327360 Par ch=1 c=64 v=127
327374 On ch=1 n=g#2 v=0
327484 On ch=1 n=g#5 v=0
327526 On ch=1 n=f#6 v=0
327570 On ch=1 n=f#5 v=0
327726 On ch=1 n=e6 v=73
327742 On ch=1 n=e5 v=57
327760 On ch=1 n=c#4 v=29
327820 On ch=1 n=c#6 v=0
327962 On ch=1 n=e5 v=0
328256 On ch=1 n=d#6 v=69
328266 On ch=1 n=d#5 v=58
328276 On ch=1 n=g#4 v=32
328296 On ch=1 n=e6 v=0
328534 On ch=1 n=c#4 v=0
328554 On ch=1 n=g#4 v=0
328582 On ch=1 n=d#5 v=0
328812 On ch=1 n=d#6 v=0
328856 On ch=1 n=e6 v=64
328874 On ch=1 n=c#5 v=46
328874 On ch=1 n=e5 v=56
329064 On ch=1 n=c#5 v=0
329186 On ch=1 n=e6 v=0
329290 On ch=1 n=e5 v=0
329610 On ch=1 n=d#6 v=46
329618 On ch=1 n=d#5 v=38
329630 On ch=1 n=f#5 v=31
329634 On ch=1 n=g#3 v=33
329644 On ch=1 n=c6 v=33
329710 Par ch=1 c=64 v=0
330002 Par ch=1 c=64 v=127
330212 On ch=1 n=g#3 v=0
330414 On ch=1 n=g#4 v=17
330426 On ch=1 n=d#4 v=27
330652 On ch=1 n=d#4 v=0
330768 On ch=1 n=g#4 v=0
331398 On ch=1 n=f#4 v=29
331410 On ch=1 n=c5 v=19
331802 On ch=1 n=d#6 v=0
331822 On ch=1 n=d#5 v=0
332368 On ch=1 n=c6 v=0
332802 On ch=1 n=c#6 v=34
332828 On ch=1 n=c#5 v=16
333134 On ch=1 n=f#5 v=0
333140 On ch=1 n=c5 v=0
333254 On ch=1 n=c#5 v=0
333284 On ch=1 n=f#4 v=0
333376 On ch=1 n=c#6 v=0
334240 On ch=1 n=c#6 v=23
334248 On ch=1 n=e5 v=28
334250 On ch=1 n=c#5 v=19
334260 On ch=1 n=c#3 v=20
334268 On ch=1 n=g#5 v=19
334458 Par ch=1 c=64 v=0
334766 Par ch=1 c=64 v=127
334854 On ch=1 n=c#3 v=0
336026 On ch=1 n=g#4 v=12
336031 On ch=1 n=g#3 v=22
336034 On ch=1 n=e4 v=26
338272 On ch=1 n=c#4 v=25
342624 On ch=1 n=g#3 v=0
343930 On ch=1 n=c#5 v=0
343972 On ch=1 n=g#4 v=0
344000 On ch=1 n=e4 v=0
344040 On ch=1 n=e5 v=0
344062 On ch=1 n=c#6 v=0
344096 On ch=1 n=g#5 v=0
344114 On ch=1 n=c#4 v=0
345576 Par ch=1 c=64 v=0
345576 Meta TrkEnd
TrkEnd
