MFile 0 1 480
MTrk
0 SMPTE 96 0 0 0 0
0 TimeSig 4/4 24 8
0 KeySig 0 major
0 Tempo 500000
0 Par ch=1 c=64 v=127
0 Par ch=1 c=64 v=0
0 Par ch=1 c=64 v=127
0 On ch=1 n=c#6 v=21
322 On ch=1 n=c6 v=29
338 On ch=1 n=d#3 v=15
370 Par ch=1 c=64 v=0
380 Off ch=1 n=c#6 v=64
590 On ch=1 n=f#5 v=17
632 Par ch=1 c=64 v=127
682 Off ch=1 n=c6 v=64
748 Off ch=1 n=d#3 v=64
790 On ch=1 n=c5 v=38
884 Off ch=1 n=c5 v=64
914 Off ch=1 n=f#5 v=64
948 On ch=1 n=c6 v=48
1164 On ch=1 n=a#5 v=44
1166 Off ch=1 n=c6 v=64
1169 Par ch=1 c=64 v=0
1180 On ch=1 n=c#3 v=31
1384 On ch=1 n=f5 v=29
1384 Par ch=1 c=64 v=127
1390 Off ch=1 n=c#3 v=64
1508 Off ch=1 n=f5 v=64
1554 On ch=1 n=a#4 v=27
1618 Off ch=1 n=a#4 v=64
1746 On ch=1 n=e4 v=45
1848 Off ch=1 n=e4 v=64
1936 On ch=1 n=f4 v=63
2094 On ch=1 n=a#4 v=27
2122 Par ch=1 c=64 v=0
2292 Par ch=1 c=64 v=127
2324 On ch=1 n=f5 v=35
2336 Off ch=1 n=f4 v=64
2336 Off ch=1 n=a#4 v=64
2348 Off ch=1 n=a#5 v=64
2468 Off ch=1 n=f5 v=64
2536 On ch=1 n=a#5 v=72
2790 On ch=1 n=c6 v=66
2792 On ch=1 n=d#3 v=21
2844 Par ch=1 c=64 v=0
2864 Off ch=1 n=a#5 v=64
3004 On ch=1 n=f#5 v=39
3106 Par ch=1 c=64 v=127
3194 On ch=1 n=c5 v=55
3250 Off ch=1 n=c5 v=64
3258 Off ch=1 n=f#5 v=64
3294 Off ch=1 n=d#3 v=64
3308 Off ch=1 n=c6 v=64
3386 On ch=1 n=c6 v=63
3598 Par ch=1 c=64 v=0
3598 On ch=1 n=f6 v=67
3601 On ch=1 n=c#3 v=23
3642 Off ch=1 n=c6 v=64
3794 On ch=1 n=a#5 v=46
3836 Off ch=1 n=c#3 v=64
3842 Par ch=1 c=64 v=127
4044 On ch=1 n=f5 v=41
4056 Off ch=1 n=a#5 v=64
4158 Off ch=1 n=f5 v=64
4246 On ch=1 n=a4 v=39
4376 Off ch=1 n=a4 v=64
4432 On ch=1 n=a#4 v=47
4630 On ch=1 n=f5 v=57
4692 Off ch=1 n=a#4 v=64
4714 Off ch=1 n=f6 v=64
4728 Off ch=1 n=f5 v=64
4810 On ch=1 n=a#5 v=63
4856 Off ch=1 n=a#5 v=64
4992 On ch=1 n=f6 v=91
5250 On ch=1 n=g#6 v=84
5272 Par ch=1 c=64 v=0
5274 On ch=1 n=a#2 v=39
5334 Off ch=1 n=f6 v=64
5566 On ch=1 n=c#6 v=37
5596 Par ch=1 c=64 v=127
5668 Off ch=1 n=a#2 v=64
5686 Off ch=1 n=g#6 v=64
5768 Off ch=1 n=c#6 v=64
5792 On ch=1 n=g#5 v=41
5870 Off ch=1 n=g#5 v=64
6024 On ch=1 n=g#6 v=66
6210 Par ch=1 c=64 v=0
6252 On ch=1 n=f#6 v=52
6254 On ch=1 n=d#3 v=28
6274 Off ch=1 n=g#6 v=64
6460 On ch=1 n=c#6 v=30
6494 Off ch=1 n=d#3 v=64
6502 Par ch=1 c=64 v=127
6556 Off ch=1 n=c#6 v=64
6628 On ch=1 n=f#5 v=25
6718 Off ch=1 n=f#5 v=64
6824 On ch=1 n=a4 v=31
6918 Off ch=1 n=a4 v=64
7028 On ch=1 n=a#4 v=26
7236 On ch=1 n=c#5 v=35
7300 Par ch=1 c=64 v=0
7468 On ch=1 n=a#5 v=26
7468 Par ch=1 c=64 v=127
7522 Off ch=1 n=f#6 v=64
7536 Off ch=1 n=a#5 v=64
7584 Off ch=1 n=c#5 v=64
7638 Off ch=1 n=a#4 v=64
7702 On ch=1 n=c#6 v=37
8008 Par ch=1 c=64 v=0
8008 On ch=1 n=f#6 v=38
8028 On ch=1 n=g#2 v=14
8076 Off ch=1 n=c#6 v=64
8312 On ch=1 n=c6 v=15
8314 Par ch=1 c=64 v=127
8464 Off ch=1 n=c6 v=64
8472 Off ch=1 n=f#6 v=64
8534 On ch=1 n=f#5 v=14
8582 Off ch=1 n=g#2 v=64
8650 Off ch=1 n=f#5 v=64
8794 On ch=1 n=f#6 v=25
9054 Off ch=1 n=f#6 v=64
9096 On ch=1 n=f6 v=25
9114 Par ch=1 c=64 v=0
9116 On ch=1 n=c#3 v=12
9374 Par ch=1 c=64 v=127
9384 On ch=1 n=c6 v=21
9412 Off ch=1 n=c#3 v=64
9612 On ch=1 n=f5 v=20
9682 Off ch=1 n=c6 v=64
9722 Off ch=1 n=f5 v=64
9826 On ch=1 n=g4 v=33
9902 Off ch=1 n=g4 v=64
10014 On ch=1 n=g#4 v=36
10248 On ch=1 n=c5 v=34
10370 Off ch=1 n=f6 v=64
10470 On ch=1 n=g#5 v=52
10532 Off ch=1 n=g#5 v=64
10556 Off ch=1 n=c5 v=64
10652 Off ch=1 n=g#4 v=64
10704 On ch=1 n=c6 v=66
11004 On ch=1 n=f6 v=80
11007 On ch=1 n=f#2 v=53
11064 Par ch=1 c=64 v=0
11152 Off ch=1 n=c6 v=64
11242 On ch=1 n=a#5 v=51
11326 Par ch=1 c=64 v=127
11378 Off ch=1 n=f#2 v=64
11386 Off ch=1 n=f6 v=64
11442 On ch=1 n=f5 v=55
11546 Off ch=1 n=a#5 v=64
11576 Off ch=1 n=f5 v=64
11630 On ch=1 n=f6 v=78
11834 Par ch=1 c=64 v=0
11844 On ch=1 n=d#6 v=73
11850 On ch=1 n=c3 v=52
11912 Off ch=1 n=f6 v=64
12070 On ch=1 n=a#5 v=39
12248 Par ch=1 c=64 v=127
12290 On ch=1 n=d#5 v=50
12292 Off ch=1 n=a#5 v=64
12382 Off ch=1 n=c3 v=64
12385 Off ch=1 n=d#6 v=64
12390 Off ch=1 n=d#5 v=64
12516 On ch=1 n=c#6 v=49
12694 On ch=1 n=c6 v=59
12712 On ch=1 n=d#3 v=26
12715 Off ch=1 n=c#6 v=64
12724 Par ch=1 c=64 v=0
12876 On ch=1 n=f#5 v=35
12940 Off ch=1 n=d#3 v=64
12940 Par ch=1 c=64 v=127
13066 On ch=1 n=c5 v=42
13160 Off ch=1 n=c5 v=64
13168 Off ch=1 n=f#5 v=64
13254 On ch=1 n=f4 v=61
13428 Off ch=1 n=f4 v=64
13450 On ch=1 n=f#4 v=63
13654 On ch=1 n=a#4 v=48
13662 Par ch=1 c=64 v=0
13826 Off ch=1 n=f#4 v=64
13829 Par ch=1 c=64 v=127
13880 Off ch=1 n=a#4 v=64
13890 On ch=1 n=f#5 v=55
13954 Off ch=1 n=c6 v=64
13976 Off ch=1 n=f#5 v=64
14134 On ch=1 n=f6 v=87
14446 On ch=1 n=d#6 v=73
14462 Par ch=1 c=64 v=0
14470 On ch=1 n=f2 v=40
14516 Off ch=1 n=f6 v=64
14764 On ch=1 n=a5 v=44
14952 Par ch=1 c=64 v=127
15010 On ch=1 n=d#5 v=51
15030 Off ch=1 n=a5 v=64
15126 Off ch=1 n=d#5 v=64
15144 Off ch=1 n=d#6 v=64
15236 On ch=1 n=c#6 v=56
15478 On ch=1 n=c6 v=50
15506 Par ch=1 c=64 v=0
15509 Off ch=1 n=c#6 v=64
15509 On ch=1 n=f3 v=28
15689 Off ch=1 n=f2 v=64
15716 On ch=1 n=a5 v=25
15736 Par ch=1 c=64 v=127
15780 Off ch=1 n=f3 v=64
15922 On ch=1 n=d#5 v=32
15984 Off ch=1 n=a5 v=64
16018 Off ch=1 n=d#5 v=64
16162 On ch=1 n=e4 v=41
16402 On ch=1 n=f4 v=61
16430 Off ch=1 n=e4 v=64
16520 Par ch=1 c=64 v=0
16606 On ch=1 n=a4 v=46
16732 Off ch=1 n=f4 v=64
16780 Par ch=1 c=64 v=127
16834 Off ch=1 n=c6 v=64
16842 On ch=1 n=f5 v=62
16876 Off ch=1 n=a4 v=64
17100 On ch=1 n=f#6 v=88
17276 Off ch=1 n=f5 v=64
17446 On ch=1 n=f6 v=88
17462 Off ch=1 n=f#6 v=64
17706 On ch=1 n=c6 v=41
17718 Par ch=1 c=64 v=0
17868 Off ch=1 n=c6 v=64
17890 On ch=1 n=a5 v=31
17918 Par ch=1 c=64 v=127
18060 Off ch=1 n=a5 v=64
18102 On ch=1 n=f5 v=27
18200 Off ch=1 n=f5 v=64
18280 On ch=1 n=e6 v=80
18476 Off ch=1 n=f6 v=64
18528 On ch=1 n=c6 v=25
18652 Off ch=1 n=c6 v=64
18712 On ch=1 n=a5 v=33
18778 Par ch=1 c=64 v=0
18932 On ch=1 n=f5 v=21
18932 Par ch=1 c=64 v=127
19072 Off ch=1 n=a5 v=64
19092 On ch=1 n=d#6 v=74
19136 Off ch=1 n=f5 v=64
19286 Off ch=1 n=e6 v=64
19312 On ch=1 n=c6 v=32
19512 On ch=1 n=a5 v=32
19608 Par ch=1 c=64 v=0
19690 Off ch=1 n=a5 v=64
19714 Par ch=1 c=64 v=127
19744 On ch=1 n=f5 v=15
19764 Off ch=1 n=c6 v=64
19794 Off ch=1 n=d#6 v=64
19838 Off ch=1 n=f5 v=64
19936 On ch=1 n=c#6 v=66
20202 On ch=1 n=a5 v=32
20222 Par ch=1 c=64 v=0
20406 On ch=1 n=f#5 v=26
20438 Par ch=1 c=64 v=127
20602 On ch=1 n=c#5 v=44
20812 On ch=1 n=a4 v=36
20970 Off ch=1 n=a4 v=64
21026 On ch=1 n=f#4 v=41
21168 Off ch=1 n=f#4 v=64
21218 On ch=1 n=c#4 v=48
21268 Off ch=1 n=c#4 v=64
21406 On ch=1 n=a3 v=55
21574 Off ch=1 n=a3 v=64
21614 On ch=1 n=f#3 v=48
21762 Off ch=1 n=f#3 v=64
21826 On ch=1 n=c#3 v=34
21880 Off ch=1 n=c#3 v=64
22026 On ch=1 n=a2 v=37
22178 Off ch=1 n=a2 v=64
22222 On ch=1 n=f#2 v=46
22490 Off ch=1 n=f#2 v=64
22506 On ch=1 n=d#2 v=44
22572 Par ch=1 c=64 v=0
22792 Off ch=1 n=d#2 v=64
22820 Par ch=1 c=64 v=127
22820 On ch=1 n=d#3 v=28
22966 Off ch=1 n=d#3 v=64
23080 On ch=1 n=f#3 v=23
23206 Off ch=1 n=f#3 v=64
23290 On ch=1 n=a3 v=23
23466 Off ch=1 n=a3 v=64
23528 On ch=1 n=d#4 v=29
23728 Off ch=1 n=f#5 v=64
23732 Off ch=1 n=d#4 v=64
23806 On ch=1 n=f#4 v=21
23818 Off ch=1 n=c#5 v=64
23948 Off ch=1 n=c#6 v=64
23974 Off ch=1 n=a5 v=64
23988 Off ch=1 n=f#4 v=64
24122 On ch=1 n=a4 v=35
24304 Off ch=1 n=a4 v=64
24416 On ch=1 n=c#6 v=42
24786 On ch=1 n=c6 v=49
24800 On ch=1 n=d#3 v=19
24816 Par ch=1 c=64 v=0
24830 Off ch=1 n=c#6 v=64
25094 On ch=1 n=f#5 v=21
25124 Par ch=1 c=64 v=127
25180 Off ch=1 n=c6 v=64
25294 Off ch=1 n=d#3 v=64
25336 On ch=1 n=c5 v=28
25412 Off ch=1 n=f#5 v=64
25462 Off ch=1 n=c5 v=64
25546 On ch=1 n=c6 v=42
25760 On ch=1 n=a#5 v=41
25765 Off ch=1 n=c6 v=64
25768 Par ch=1 c=64 v=0
25776 On ch=1 n=c#3 v=23
26004 On ch=1 n=f5 v=28
26014 Par ch=1 c=64 v=127
26018 Off ch=1 n=c#3 v=64
26194 On ch=1 n=a#4 v=26
26236 Off ch=1 n=f5 v=64
26296 Off ch=1 n=a#4 v=64
26412 On ch=1 n=e4 v=48
26430 Off ch=1 n=a#5 v=64
26564 Off ch=1 n=e4 v=64
26614 On ch=1 n=f4 v=74
26800 On ch=1 n=a#4 v=38
26842 Off ch=1 n=f4 v=64
26926 Off ch=1 n=a#4 v=64
27000 On ch=1 n=f5 v=59
27102 Off ch=1 n=f5 v=64
27164 On ch=1 n=a#5 v=72
27390 On ch=1 n=c6 v=79
27406 On ch=1 n=d#3 v=47
27414 Par ch=1 c=64 v=0
27480 Off ch=1 n=a#5 v=64
27586 On ch=1 n=f#5 v=51
27688 Par ch=1 c=64 v=127
27736 Off ch=1 n=d#3 v=64
27778 On ch=1 n=c5 v=66
27820 Off ch=1 n=f#5 v=64
27830 Off ch=1 n=c5 v=64
27834 Off ch=1 n=c6 v=64
27946 On ch=1 n=c6 v=80
28152 On ch=1 n=c#3 v=39
28154 On ch=1 n=f6 v=75
28166 Par ch=1 c=64 v=0
28202 Off ch=1 n=c6 v=64
28360 On ch=1 n=c6 v=61
28378 Off ch=1 n=c#3 v=64
28396 Par ch=1 c=64 v=127
28548 On ch=1 n=f5 v=59
28556 Off ch=1 n=c6 v=64
28672 Off ch=1 n=f5 v=64
28738 On ch=1 n=a4 v=41
28878 Off ch=1 n=a4 v=64
28948 On ch=1 n=a#4 v=35
29118 Par ch=1 c=64 v=0
29128 On ch=1 n=f5 v=51
29286 Par ch=1 c=64 v=127
29314 Off ch=1 n=f6 v=64
29336 On ch=1 n=a#5 v=66
29364 Off ch=1 n=f5 v=64
29430 Off ch=1 n=a#5 v=64
29494 Off ch=1 n=a#4 v=64
29562 On ch=1 n=f6 v=92
29848 On ch=1 n=a#6 v=76
29882 On ch=1 n=c3 v=44
29902 Par ch=1 c=64 v=0
29948 Off ch=1 n=f6 v=64
30136 On ch=1 n=e6 v=45
30162 Par ch=1 c=64 v=127
30268 Off ch=1 n=c3 v=64
30304 Off ch=1 n=a#6 v=64
30366 On ch=1 n=a#5 v=46
30398 Off ch=1 n=e6 v=64
30504 Off ch=1 n=a#5 v=64
30566 On ch=1 n=a#6 v=76
30700 Off ch=1 n=a#6 v=64
30776 On ch=1 n=a6 v=79
30794 On ch=1 n=f3 v=42
30794 Par ch=1 c=64 v=0
30976 On ch=1 n=d#6 v=41
31010 Off ch=1 n=f3 v=64
31024 Par ch=1 c=64 v=127
31164 On ch=1 n=a5 v=41
31192 Off ch=1 n=d#6 v=64
31272 Off ch=1 n=a5 v=64
31370 On ch=1 n=b4 v=45
31580 Off ch=1 n=b4 v=64
31586 On ch=1 n=c5 v=49
31668 Par ch=1 c=64 v=0
31782 On ch=1 n=d#5 v=52
31806 Par ch=1 c=64 v=127
31832 Off ch=1 n=c5 v=64
31878 Off ch=1 n=a6 v=64
31898 Off ch=1 n=d#5 v=64
31994 On ch=1 n=c6 v=57
32056 Off ch=1 n=c6 v=64
32216 On ch=1 n=f6 v=87
32484 Par ch=1 c=64 v=0
32500 On ch=1 n=g#6 v=81
32516 On ch=1 n=a#2 v=42
32580 Off ch=1 n=f6 v=64
32780 On ch=1 n=d6 v=46
32790 Par ch=1 c=64 v=127
32882 Off ch=1 n=a#2 v=64
32924 Off ch=1 n=g#6 v=64
32994 Off ch=1 n=d6 v=64
33002 On ch=1 n=g#5 v=40
33102 Off ch=1 n=g#5 v=64
33208 On ch=1 n=g#6 v=68
33404 Par ch=1 c=64 v=0
33406 On ch=1 n=d#3 v=28
33412 On ch=1 n=g6 v=70
33440 Off ch=1 n=g#6 v=64
33620 On ch=1 n=c#6 v=36
33640 Off ch=1 n=d#3 v=64
33666 Par ch=1 c=64 v=127
33716 Off ch=1 n=c#6 v=64
33824 On ch=1 n=g5 v=25
33928 Off ch=1 n=g5 v=64
34040 On ch=1 n=a4 v=19
34136 Off ch=1 n=a4 v=64
34238 On ch=1 n=a#4 v=19
34452 Off ch=1 n=g6 v=64
34455 On ch=1 n=c#5 v=38
34682 On ch=1 n=a#5 v=27
34740 Off ch=1 n=a#5 v=64
34818 Off ch=1 n=c#5 v=64
34868 Off ch=1 n=a#4 v=64
34922 On ch=1 n=d#6 v=51
35204 On ch=1 n=g#2 v=38
35210 On ch=1 n=f#6 v=54
35218 Par ch=1 c=64 v=0
35288 Off ch=1 n=d#6 v=64
35476 On ch=1 n=c6 v=31
35496 Par ch=1 c=64 v=127
35592 Off ch=1 n=c6 v=64
35598 Off ch=1 n=f#6 v=64
35614 Off ch=1 n=g#2 v=64
35640 On ch=1 n=f#5 v=32
35764 Off ch=1 n=f#5 v=64
35814 On ch=1 n=f#6 v=62
36010 On ch=1 n=c#3 v=35
36010 On ch=1 n=f6 v=69
36018 Par ch=1 c=64 v=0
36032 Off ch=1 n=f#6 v=64
36250 On ch=1 n=b5 v=44
36448 On ch=1 n=f5 v=36
36480 Off ch=1 n=b5 v=64
36494 Par ch=1 c=64 v=127
36518 Off ch=1 n=f6 v=64
36532 Off ch=1 n=f5 v=64
36622 On ch=1 n=d#6 v=58
36788 On ch=1 n=c#6 v=61
36796 On ch=1 n=c#4 v=34
36812 Off ch=1 n=d#6 v=64
36816 Par ch=1 c=64 v=0
36982 Off ch=1 n=c#3 v=64
36994 On ch=1 n=b5 v=47
37016 Par ch=1 c=64 v=127
37068 Off ch=1 n=c#4 v=64
37178 On ch=1 n=f5 v=43
37184 Off ch=1 n=b5 v=64
37266 Off ch=1 n=f5 v=64
37396 On ch=1 n=g4 v=27
37558 On ch=1 n=g#4 v=45
37568 Off ch=1 n=g4 v=64
37762 On ch=1 n=b4 v=54
37868 Off ch=1 n=c#6 v=64
37952 Off ch=1 n=g#4 v=64
37962 On ch=1 n=g#5 v=67
37965 Off ch=1 n=b4 v=64
38014 Off ch=1 n=g#5 v=64
38212 On ch=1 n=e6 v=84
38506 On ch=1 n=f6 v=83
38522 Par ch=1 c=64 v=0
38526 On ch=1 n=c3 v=35
38566 Off ch=1 n=e6 v=64
38770 On ch=1 n=g#5 v=29
38814 Par ch=1 c=64 v=127
38844 Off ch=1 n=c3 v=64
38920 Off ch=1 n=f6 v=64
38996 On ch=1 n=f5 v=40
39096 Off ch=1 n=g#5 v=64
39124 Off ch=1 n=f5 v=64
39180 On ch=1 n=c#6 v=56
39380 On ch=1 n=c6 v=59
39416 On ch=1 n=c4 v=21
39438 Off ch=1 n=c#6 v=64
39444 Par ch=1 c=64 v=0
39584 On ch=1 n=g#5 v=31
39628 Par ch=1 c=64 v=127
39654 Off ch=1 n=c4 v=64
39778 On ch=1 n=f5 v=25
39834 Off ch=1 n=g#5 v=64
39876 Off ch=1 n=f5 v=64
39930 On ch=1 n=e4 v=24
40148 Off ch=1 n=e4 v=64
40156 On ch=1 n=f4 v=65
40228 Par ch=1 c=64 v=0
40352 On ch=1 n=g#4 v=45
40410 Off ch=1 n=f4 v=64
40458 Par ch=1 c=64 v=127
40502 Off ch=1 n=g#4 v=64
40566 On ch=1 n=f5 v=52
40584 Off ch=1 n=c6 v=64
40766 Off ch=1 n=f5 v=64
40768 On ch=1 n=c6 v=94
41048 On ch=1 n=c#6 v=80
41134 Par ch=1 c=64 v=0
41142 Off ch=1 n=c6 v=64
41284 On ch=1 n=g5 v=41
41426 Par ch=1 c=64 v=127
41462 On ch=1 n=e5 v=45
41492 Off ch=1 n=g5 v=64
41560 Off ch=1 n=e5 v=64
41658 On ch=1 n=c5 v=39
41836 On ch=1 n=a#5 v=68
41876 Off ch=1 n=c5 v=64
41942 Off ch=1 n=c#6 v=64
42026 Par ch=1 c=64 v=0
42050 On ch=1 n=g5 v=39
42176 Off ch=1 n=g5 v=64
42210 Par ch=1 c=64 v=127
42213 On ch=1 n=c#5 v=48
42360 Off ch=1 n=c#5 v=64
42428 On ch=1 n=c5 v=42
42596 On ch=1 n=g5 v=79
42634 Off ch=1 n=c5 v=64
42728 Off ch=1 n=a#5 v=64
42824 On ch=1 n=e5 v=38
42994 On ch=1 n=a#4 v=34
43008 Par ch=1 c=64 v=0
43042 Off ch=1 n=e5 v=64
43176 Par ch=1 c=64 v=127
43184 On ch=1 n=c5 v=50
43244 Off ch=1 n=a#4 v=64
43450 On ch=1 n=a#5 v=77
43452 Off ch=1 n=c5 v=64
43720 On ch=1 n=f5 v=49
43794 Off ch=1 n=g5 v=64
43924 On ch=1 n=c5 v=55
43976 Par ch=1 c=64 v=0
44094 On ch=1 n=f4 v=91
44146 Par ch=1 c=64 v=127
44214 Off ch=1 n=f5 v=64
44274 Off ch=1 n=c5 v=64
44312 Off ch=1 n=f4 v=64
44312 On ch=1 n=c4 v=68
44502 On ch=1 n=g#3 v=74
44530 Off ch=1 n=c4 v=64
44656 Off ch=1 n=g#3 v=64
44724 On ch=1 n=g#5 v=88
44742 On ch=1 n=f3 v=80
44762 Off ch=1 n=a#5 v=64
44960 Off ch=1 n=f3 v=64
44982 On ch=1 n=g#6 v=92
45004 On ch=1 n=c3 v=72
45052 Off ch=1 n=g#5 v=64
45186 Off ch=1 n=c3 v=64
45306 On ch=1 n=g#2 v=79
45306 On ch=1 n=f#6 v=90
45426 Off ch=1 n=g#6 v=64
45490 Par ch=1 c=64 v=0
45596 On ch=1 n=c6 v=73
45648 On ch=1 n=g#3 v=65
45710 Off ch=1 n=g#2 v=64
45774 Par ch=1 c=64 v=127
45820 Off ch=1 n=g#3 v=64
45826 On ch=1 n=f#5 v=67
45872 Off ch=1 n=f#6 v=64
45896 Off ch=1 n=c6 v=64
46040 Off ch=1 n=f#5 v=64
46060 On ch=1 n=f#6 v=81
46318 On ch=1 n=f6 v=85
46324 On ch=1 n=c#3 v=50
46328 Par ch=1 c=64 v=0
46404 Off ch=1 n=f#6 v=64
46584 On ch=1 n=b5 v=51
46758 Par ch=1 c=64 v=127
46806 On ch=1 n=f5 v=49
46824 Off ch=1 n=b5 v=64
46894 Off ch=1 n=f5 v=64
46946 Off ch=1 n=c#3 v=64
47002 On ch=1 n=d#6 v=68
47048 Off ch=1 n=f6 v=64
47196 On ch=1 n=c#6 v=67
47212 On ch=1 n=c#4 v=41
47218 Par ch=1 c=64 v=0
47266 Off ch=1 n=d#6 v=64
47400 On ch=1 n=b5 v=51
47450 Par ch=1 c=64 v=127
47480 Off ch=1 n=c#4 v=64
47580 Off ch=1 n=b5 v=64
47594 On ch=1 n=f5 v=36
47700 Off ch=1 n=f5 v=64
47804 On ch=1 n=g4 v=41
47980 Off ch=1 n=g4 v=64
47986 On ch=1 n=g#4 v=44
48032 Par ch=1 c=64 v=0
48218 Par ch=1 c=64 v=127
48221 On ch=1 n=b4 v=40
48284 Off ch=1 n=b4 v=64
48312 Off ch=1 n=g#4 v=64
48334 Off ch=1 n=c#6 v=64
48444 On ch=1 n=g#5 v=45
48504 Off ch=1 n=g#5 v=64
48698 On ch=1 n=d6 v=66
48956 Par ch=1 c=64 v=0
49000 On ch=1 n=c#6 v=51
49012 On ch=1 n=c#3 v=22
49086 Off ch=1 n=d6 v=64
49240 On ch=1 n=g#5 v=33
49400 Par ch=1 c=64 v=127
49474 Off ch=1 n=g#5 v=64
49484 On ch=1 n=f5 v=21
49566 Off ch=1 n=c#6 v=64
49610 Off ch=1 n=f5 v=64
49710 On ch=1 n=c6 v=38
49936 On ch=1 n=b5 v=46
49952 Off ch=1 n=c6 v=64
49952 Par ch=1 c=64 v=0
49955 On ch=1 n=c#4 v=24
50114 Off ch=1 n=c#3 v=64
50142 On ch=1 n=g#5 v=26
50184 Par ch=1 c=64 v=127
50232 Off ch=1 n=c#4 v=64
50400 On ch=1 n=d5 v=38
50530 Off ch=1 n=d5 v=64
50568 On ch=1 n=e4 v=33
50660 Off ch=1 n=g#5 v=64
50788 Off ch=1 n=e4 v=64
50806 On ch=1 n=f4 v=50
50876 Par ch=1 c=64 v=0
51004 On ch=1 n=g#4 v=35
51066 Off ch=1 n=f4 v=64
51094 Off ch=1 n=b5 v=64
51106 Par ch=1 c=64 v=127
51164 Off ch=1 n=g#4 v=64
51264 On ch=1 n=f5 v=34
51420 Off ch=1 n=f5 v=64
51508 On ch=1 n=c#6 v=54
51646 Off ch=1 n=c#6 v=64
51822 On ch=1 n=b5 v=88
52058 On ch=1 n=g#5 v=35
52282 On ch=1 n=d5 v=38
52370 Off ch=1 n=g#5 v=64
52442 Par ch=1 c=64 v=0
52454 On ch=1 n=f#2 v=21
52562 Off ch=1 n=d5 v=64
52612 Par ch=1 c=64 v=127
52746 On ch=1 n=a5 v=54
52816 Off ch=1 n=f#2 v=64
52840 Off ch=1 n=b5 v=64
53000 On ch=1 n=f#5 v=16
53134 Par ch=1 c=64 v=0
53162 On ch=1 n=c#5 v=42
53344 Off ch=1 n=f#5 v=64
53360 On ch=1 n=f#2 v=21
53380 Par ch=1 c=64 v=127
53424 Off ch=1 n=c#5 v=64
53602 On ch=1 n=g#5 v=50
53610 Off ch=1 n=f#2 v=64
53710 Off ch=1 n=a5 v=64
53850 On ch=1 n=f5 v=26
54096 On ch=1 n=b4 v=28
54118 Par ch=1 c=64 v=0
54238 Off ch=1 n=f5 v=64
54318 Par ch=1 c=64 v=127
54356 On ch=1 n=f#2 v=18
54430 Off ch=1 n=b4 v=64
54710 On ch=1 n=f#5 v=39
54762 Par ch=1 c=64 v=0
54880 Off ch=1 n=g#5 v=64
54992 Par ch=1 c=64 v=127
55050 On ch=1 n=d5 v=33
55066 Off ch=1 n=f#2 v=64
55372 On ch=1 n=a4 v=37
55634 On ch=1 n=f#4 v=45
55814 Off ch=1 n=f#4 v=64
55890 On ch=1 n=d4 v=36
56106 Off ch=1 n=d4 v=64
56128 On ch=1 n=a3 v=30
56332 Off ch=1 n=a3 v=64
56364 On ch=1 n=f#3 v=36
56458 Off ch=1 n=f#3 v=64
56598 On ch=1 n=d3 v=40
56798 Off ch=1 n=d3 v=64
56918 On ch=1 n=a2 v=28
56946 On ch=1 n=c#5 v=50
57210 Off ch=1 n=a2 v=64
57222 On ch=1 n=f#2 v=31
57230 Off ch=1 n=d5 v=64
57442 Off ch=1 n=f#2 v=64
57486 On ch=1 n=a2 v=40
57670 Off ch=1 n=a2 v=64
57774 On ch=1 n=d3 v=26
58058 Off ch=1 n=d3 v=64
58100 On ch=1 n=f#3 v=29
58142 Par ch=1 c=64 v=0
58280 Par ch=1 c=64 v=127
58492 On ch=1 n=a3 v=22
58494 Off ch=1 n=f#3 v=64
58870 Off ch=1 n=a3 v=64
58918 On ch=1 n=d4 v=10
59434 Off ch=1 n=d4 v=64
59500 On ch=1 n=f#4 v=21
59698 Off ch=1 n=a4 v=64
59792 Off ch=1 n=f#5 v=64
59794 Off ch=1 n=f#4 v=64
59890 Off ch=1 n=c#5 v=64
60872 On ch=1 n=f5 v=40
60878 On ch=1 n=g#2 v=9
60882 On ch=1 n=g#4 v=21
60898 On ch=1 n=c5 v=20
60924 Par ch=1 c=64 v=0
61174 Off ch=1 n=c5 v=64
61184 Par ch=1 c=64 v=127
61328 Off ch=1 n=g#4 v=64
61592 On ch=1 n=d#5 v=39
61616 On ch=1 n=f#4 v=29
61626 Off ch=1 n=f5 v=64
61682 On ch=1 n=c5 v=8
61724 Par ch=1 c=64 v=0
61876 Par ch=1 c=64 v=127
61928 Off ch=1 n=c5 v=64
61994 Off ch=1 n=f#4 v=64
62000 Off ch=1 n=d#5 v=64
62134 Off ch=1 n=g#2 v=64
62170 On ch=1 n=f#4 v=42
62176 On ch=1 n=d#5 v=69
62184 On ch=1 n=c#3 v=26
62220 On ch=1 n=c5 v=10
62452 Off ch=1 n=c5 v=64
62646 Off ch=1 n=f#4 v=64
62722 On ch=1 n=c#5 v=62
62736 On ch=1 n=f4 v=66
62830 Par ch=1 c=64 v=0
62972 Off ch=1 n=d#5 v=64
63230 Par ch=1 c=64 v=127
63386 On ch=1 n=g3 v=46
63598 Par ch=1 c=64 v=0
63782 Par ch=1 c=64 v=127
63850 Off ch=1 n=c#3 v=64
63878 On ch=1 n=g#3 v=55
63904 Par ch=1 c=64 v=0
63918 Off ch=1 n=g3 v=64
64058 Off ch=1 n=f4 v=64
64074 Par ch=1 c=64 v=127
64172 Off ch=1 n=c#5 v=64
64520 On ch=1 n=c#6 v=77
64540 On ch=1 n=g#4 v=38
64544 On ch=1 n=f5 v=48
64688 Par ch=1 c=64 v=0
64812 Par ch=1 c=64 v=127
64850 Off ch=1 n=f5 v=64
64984 On ch=1 n=d#6 v=79
64990 On ch=1 n=f#5 v=48
65016 On ch=1 n=c6 v=39
65048 Off ch=1 n=c#6 v=64
65058 Par ch=1 c=64 v=0
65098 Off ch=1 n=c6 v=64
65202 On ch=1 n=c6 v=2
65242 Par ch=1 c=64 v=127
65296 Off ch=1 n=d#6 v=64
65298 Off ch=1 n=f#5 v=64
65300 Off ch=1 n=c6 v=64
65442 On ch=1 n=d#6 v=75
65452 On ch=1 n=f#5 v=41
65452 On ch=1 n=c#4 v=40
65454 On ch=1 n=c6 v=46
65466 Off ch=1 n=g#3 v=64
65548 Par ch=1 c=64 v=0
65688 Par ch=1 c=64 v=127
65714 Off ch=1 n=c6 v=64
65744 Off ch=1 n=f#5 v=64
65744 On ch=1 n=f5 v=55
65806 Off ch=1 n=f5 v=64
65870 On ch=1 n=f6 v=71
65880 Off ch=1 n=d#6 v=64
66077 On ch=1 n=g#6 v=73
66564 Par ch=1 c=64 v=0
66632 On ch=1 n=c5 v=48
66808 Par ch=1 c=64 v=127
67122 On ch=1 n=c#5 v=28
67192 Par ch=1 c=64 v=0
67204 Off ch=1 n=c5 v=64
67384 Off ch=1 n=f6 v=64
67424 Par ch=1 c=64 v=127
67638 Off ch=1 n=c#4 v=64
67644 On ch=1 n=f6 v=84
67660 On ch=1 n=c#6 v=47
67668 Off ch=1 n=g#4 v=64
67676 Off ch=1 n=g#6 v=64
67894 On ch=1 n=f#5 v=57
67960 Off ch=1 n=f#5 v=64
68028 On ch=1 n=f#6 v=70
68106 Off ch=1 n=f6 v=64
68128 On ch=1 n=c#4 v=25
68128 On ch=1 n=g#4 v=29
68188 On ch=1 n=a#6 v=62
68238 Par ch=1 c=64 v=0
68422 Par ch=1 c=64 v=127
68428 Off ch=1 n=c#6 v=64
68472 Off ch=1 n=a#6 v=64
68474 Off ch=1 n=f#6 v=64
68586 On ch=1 n=d#6 v=69
68608 On ch=1 n=c6 v=32
68832 On ch=1 n=f5 v=30
68890 Off ch=1 n=f5 v=64
68968 On ch=1 n=f6 v=52
68992 Off ch=1 n=d#6 v=64
69042 Off ch=1 n=c6 v=64
69076 On ch=1 n=g#6 v=64
69160 Par ch=1 c=64 v=0
69390 Par ch=1 c=64 v=127
69472 Off ch=1 n=g#4 v=64
69514 On ch=1 n=g4 v=34
69574 Par ch=1 c=64 v=0
69656 Off ch=1 n=c#5 v=64
69744 Par ch=1 c=64 v=127
69866 Off ch=1 n=g#6 v=64
69876 Off ch=1 n=f6 v=64
69978 On ch=1 n=g#4 v=38
69981 Off ch=1 n=g4 v=64
70158 On ch=1 n=c#5 v=46
70214 Off ch=1 n=c#5 v=64
70274 On ch=1 n=c#6 v=43
70398 On ch=1 n=f6 v=79
70640 Off ch=1 n=f6 v=64
70672 Off ch=1 n=c#6 v=64
70788 On ch=1 n=a#3 v=29
70804 Par ch=1 c=64 v=0
70820 On ch=1 n=f4 v=51
70856 Off ch=1 n=c#4 v=64
70862 On ch=1 n=c6 v=72
70882 On ch=1 n=g#5 v=31
70908 Off ch=1 n=g#4 v=64
70946 Off ch=1 n=g#5 v=64
70974 Par ch=1 c=64 v=127
70998 Off ch=1 n=c6 v=64
71134 On ch=1 n=a#4 v=55
71154 Off ch=1 n=f4 v=64
71240 Off ch=1 n=a#4 v=64
71264 On ch=1 n=a#5 v=47
71344 On ch=1 n=c#6 v=72
71508 Off ch=1 n=a#5 v=64
71528 Off ch=1 n=a#3 v=64
71574 Off ch=1 n=c#6 v=64
71752 On ch=1 n=d#3 v=22
71760 On ch=1 n=g#5 v=56
71768 On ch=1 n=f5 v=44
71818 Par ch=1 c=64 v=0
72170 Par ch=1 c=64 v=127
72198 On ch=1 n=a#3 v=26
72238 Off ch=1 n=d#3 v=64
72568 Off ch=1 n=a#3 v=64
72694 On ch=1 n=d#4 v=29
73052 Off ch=1 n=f5 v=64
73212 On ch=1 n=f#5 v=25
73222 On ch=1 n=d#5 v=25
73228 On ch=1 n=a#4 v=10
73262 Off ch=1 n=d#4 v=64
73290 Off ch=1 n=g#5 v=64
73292 Par ch=1 c=64 v=0
73492 Par ch=1 c=64 v=127
73598 Off ch=1 n=d#5 v=64
73628 Off ch=1 n=f#5 v=64
73750 Off ch=1 n=a#4 v=64
73876 On ch=1 n=f#5 v=23
73906 On ch=1 n=d#5 v=12
74460 On ch=1 n=a#4 v=16
74496 On ch=1 n=a#3 v=10
74624 Off ch=1 n=d#5 v=64
74764 Off ch=1 n=f#5 v=64
74806 Off ch=1 n=a#3 v=64
74866 Off ch=1 n=a#4 v=64
74974 On ch=1 n=g#5 v=37
75018 On ch=1 n=d3 v=28
75021 On ch=1 n=b3 v=26
75024 On ch=1 n=f5 v=21
75052 On ch=1 n=b4 v=22
75230 Par ch=1 c=64 v=0
75412 Par ch=1 c=64 v=127
75414 Off ch=1 n=b3 v=64
75446 Off ch=1 n=b4 v=64
75462 On ch=1 n=a#4 v=34
75494 On ch=1 n=a#3 v=21
75650 Off ch=1 n=d3 v=64
75674 Off ch=1 n=f5 v=64
75704 Off ch=1 n=g#5 v=64
75798 Off ch=1 n=a#3 v=64
75918 On ch=1 n=a4 v=43
75928 On ch=1 n=a3 v=39
75930 On ch=1 n=d#3 v=36
75932 On ch=1 n=f#5 v=42
75936 On ch=1 n=d#5 v=37
75938 Off ch=1 n=a#4 v=64
76166 Par ch=1 c=64 v=0
76320 Par ch=1 c=64 v=127
76342 Off ch=1 n=a3 v=64
76345 On ch=1 n=a#3 v=44
76352 On ch=1 n=a#4 v=52
76398 Off ch=1 n=a4 v=64
76508 Off ch=1 n=d#3 v=64
76511 Off ch=1 n=d#5 v=64
76548 Off ch=1 n=f#5 v=64
76770 On ch=1 n=b4 v=60
76772 On ch=1 n=f#5 v=54
76778 On ch=1 n=d#5 v=57
76778 On ch=1 n=b3 v=56
76782 On ch=1 n=d#3 v=43
76802 Off ch=1 n=a#3 v=64
76824 Off ch=1 n=a#4 v=64
77012 Par ch=1 c=64 v=0
77180 Par ch=1 c=64 v=127
77190 Off ch=1 n=b3 v=64
77202 On ch=1 n=c5 v=68
77206 On ch=1 n=c4 v=48
77216 Off ch=1 n=b4 v=64
77316 Off ch=1 n=d#5 v=64
77354 Off ch=1 n=f#5 v=64
77474 Off ch=1 n=d#3 v=64
77684 On ch=1 n=g#4 v=59
77690 On ch=1 n=f#5 v=53
77696 On ch=1 n=d#4 v=49
77696 On ch=1 n=d#5 v=56
77714 On ch=1 n=f3 v=41
77728 Off ch=1 n=c4 v=64
77764 Off ch=1 n=c5 v=64
77840 Par ch=1 c=64 v=0
78072 Par ch=1 c=64 v=127
78174 On ch=1 n=c#5 v=70
78190 On ch=1 n=c#4 v=54
78296 Off ch=1 n=d#4 v=64
78316 Off ch=1 n=f3 v=64
78414 Off ch=1 n=f#5 v=64
78440 Off ch=1 n=g#4 v=64
78538 Off ch=1 n=d#5 v=64
78638 On ch=1 n=c4 v=41
78644 On ch=1 n=c5 v=59
78644 On ch=1 n=f5 v=59
78644 On ch=1 n=g#4 v=49
78660 Off ch=1 n=c#4 v=64
78664 On ch=1 n=f3 v=45
78704 Off ch=1 n=c#5 v=64
78932 Par ch=1 c=64 v=0
79122 On ch=1 n=c#5 v=67
79128 On ch=1 n=c#4 v=53
79130 Off ch=1 n=c4 v=64
79133 Par ch=1 c=64 v=127
79166 Off ch=1 n=c5 v=64
79288 Off ch=1 n=f5 v=64
79344 Off ch=1 n=g#4 v=64
79366 Off ch=1 n=f3 v=64
79430 Off ch=1 n=c#4 v=64
79542 On ch=1 n=c5 v=67
79542 On ch=1 n=f5 v=60
79542 On ch=1 n=c4 v=44
79548 Off ch=1 n=c#5 v=64
79550 On ch=1 n=c#3 v=51
79554 On ch=1 n=f4 v=67
79762 Par ch=1 c=64 v=0
79952 Off ch=1 n=c4 v=64
79974 On ch=1 n=a#4 v=62
79984 On ch=1 n=a#3 v=53
79992 Par ch=1 c=64 v=127
80068 Off ch=1 n=c5 v=64
80156 Off ch=1 n=f5 v=64
80212 Off ch=1 n=f4 v=64
80254 Off ch=1 n=a#4 v=64
80390 On ch=1 n=a4 v=63
80394 On ch=1 n=f5 v=69
80398 On ch=1 n=a3 v=52
80404 Off ch=1 n=a#3 v=64
80406 On ch=1 n=f4 v=71
80416 On ch=1 n=f#3 v=32
80546 Par ch=1 c=64 v=0
80650 Off ch=1 n=c#3 v=64
80761 Par ch=1 c=64 v=127
80826 On ch=1 n=a#4 v=69
80832 On ch=1 n=a#3 v=55
80874 Off ch=1 n=f4 v=64
80880 Off ch=1 n=a3 v=64
80896 Off ch=1 n=f5 v=64
80946 Off ch=1 n=f#3 v=64
80952 Off ch=1 n=a4 v=64
81148 On ch=1 n=f#3 v=19
81260 On ch=1 n=c#4 v=35
81260 On ch=1 n=c#5 v=57
81262 On ch=1 n=d#5 v=62
81270 On ch=1 n=d#4 v=46
81330 Par ch=1 c=64 v=0
81333 Off ch=1 n=a#3 v=64
81352 Off ch=1 n=a#4 v=64
81622 Par ch=1 c=64 v=127
81646 Off ch=1 n=c#5 v=64
81736 Off ch=1 n=c#4 v=64
81742 On ch=1 n=c4 v=39
81746 On ch=1 n=c5 v=62
81856 Off ch=1 n=f#3 v=64
82006 Off ch=1 n=d#4 v=64
82022 Off ch=1 n=d#5 v=64
82256 On ch=1 n=e5 v=57
82262 On ch=1 n=e4 v=41
82264 On ch=1 n=a#4 v=33
82274 On ch=1 n=f#3 v=26
82276 Off ch=1 n=c4 v=64
82284 On ch=1 n=a#3 v=24
82328 Par ch=1 c=64 v=0
82370 Off ch=1 n=c5 v=64
82830 On ch=1 n=c5 v=47
82842 On ch=1 n=c4 v=25
82882 Off ch=1 n=a#4 v=64
82890 Off ch=1 n=a#3 v=64
83034 Par ch=1 c=64 v=127
83096 Off ch=1 n=c4 v=64
83118 Off ch=1 n=e4 v=64
83140 Off ch=1 n=e5 v=64
83156 Off ch=1 n=f#3 v=64
83184 Off ch=1 n=c5 v=64
83514 On ch=1 n=f5 v=36
83528 On ch=1 n=a#4 v=28
83534 On ch=1 n=f4 v=38
83556 On ch=1 n=c4 v=11
83568 On ch=1 n=f3 v=15
83940 Par ch=1 c=64 v=0
84370 Par ch=1 c=64 v=127
85102 On ch=1 n=a4 v=19
85108 Par ch=1 c=64 v=0
85184 Off ch=1 n=a#4 v=64
85400 Par ch=1 c=64 v=127
85458 Off ch=1 n=f4 v=64
85554 Off ch=1 n=c4 v=64
85554 Off ch=1 n=f3 v=64
85568 Off ch=1 n=f5 v=64
85626 Off ch=1 n=a4 v=64
86234 On ch=1 n=g#2 v=19
86236 On ch=1 n=f5 v=42
86256 On ch=1 n=g#4 v=15
86318 On ch=1 n=c5 v=18
86354 Par ch=1 c=64 v=0
86588 Off ch=1 n=c5 v=64
86600 Par ch=1 c=64 v=127
86636 Off ch=1 n=g#4 v=64
86910 On ch=1 n=d#5 v=54
86940 On ch=1 n=f#4 v=23
86962 Off ch=1 n=f5 v=64
86988 On ch=1 n=c5 v=16
87060 Par ch=1 c=64 v=0
87214 Par ch=1 c=64 v=127
87224 Off ch=1 n=f#4 v=64
87248 Off ch=1 n=d#5 v=64
87248 Off ch=1 n=c5 v=64
87440 On ch=1 n=d#5 v=50
87458 On ch=1 n=c#3 v=32
87462 On ch=1 n=f#4 v=34
87520 On ch=1 n=c5 v=3
87522 Off ch=1 n=g#2 v=64
87612 Par ch=1 c=64 v=0
87798 Par ch=1 c=64 v=127
87824 Off ch=1 n=f#4 v=64
87908 On ch=1 n=c#5 v=52
87936 On ch=1 n=f4 v=50
87946 Off ch=1 n=c5 v=64
88058 Par ch=1 c=64 v=0
88078 Off ch=1 n=d#5 v=64
88336 Par ch=1 c=64 v=127
88362 On ch=1 n=g3 v=38
88520 Par ch=1 c=64 v=0
88536 Off ch=1 n=c#3 v=64
88750 Par ch=1 c=64 v=127
88808 On ch=1 n=g#3 v=46
88822 Off ch=1 n=g3 v=64
88825 Par ch=1 c=64 v=0
88954 Off ch=1 n=f4 v=64
89012 Par ch=1 c=64 v=127
89086 Off ch=1 n=c#5 v=64
89412 On ch=1 n=c#6 v=60
89426 On ch=1 n=g#4 v=25
89452 On ch=1 n=f5 v=26
89564 Par ch=1 c=64 v=0
89688 Par ch=1 c=64 v=127
89696 Off ch=1 n=f5 v=64
89862 On ch=1 n=d#6 v=72
89880 On ch=1 n=f#5 v=29
89888 On ch=1 n=c6 v=41
89898 Off ch=1 n=c#6 v=64
89948 Par ch=1 c=64 v=0
89960 Off ch=1 n=c6 v=64
90102 Par ch=1 c=64 v=127
90140 Off ch=1 n=f#5 v=64
90144 Off ch=1 n=d#6 v=64
90294 On ch=1 n=d#6 v=72
90297 Off ch=1 n=g#3 v=64
90300 On ch=1 n=f#5 v=35
90302 On ch=1 n=c#4 v=38
90302 On ch=1 n=c6 v=45
90348 Par ch=1 c=64 v=0
90532 Par ch=1 c=64 v=127
90544 Off ch=1 n=f#5 v=64
90584 Off ch=1 n=c6 v=64
90594 On ch=1 n=f5 v=47
90654 Off ch=1 n=f5 v=64
90724 On ch=1 n=f6 v=64
90742 Off ch=1 n=d#6 v=64
90922 On ch=1 n=g#6 v=72
91316 Par ch=1 c=64 v=0
91532 Par ch=1 c=64 v=127
91540 On ch=1 n=a#4 v=41
92012 On ch=1 n=b4 v=59
92034 Off ch=1 n=a#4 v=64
92110 Off ch=1 n=f6 v=64
92146 Par ch=1 c=64 v=0
92330 Par ch=1 c=64 v=127
92368 Off ch=1 n=c#4 v=64
92424 Off ch=1 n=g#4 v=64
92432 On ch=1 n=f6 v=84
92444 Off ch=1 n=g#6 v=64
92448 On ch=1 n=c#6 v=43
92632 On ch=1 n=f#5 v=47
92734 Off ch=1 n=f#5 v=64
92782 On ch=1 n=f#6 v=73
92860 Off ch=1 n=f6 v=64
93000 On ch=1 n=g#4 v=21
93010 On ch=1 n=c#4 v=26
93034 Off ch=1 n=c#6 v=64
93046 On ch=1 n=a#6 v=62
93068 Par ch=1 c=64 v=0
93282 Par ch=1 c=64 v=127
93380 Off ch=1 n=a#6 v=64
93432 Off ch=1 n=f#6 v=64
93544 On ch=1 n=d#6 v=57
93547 On ch=1 n=b5 v=32
93708 Off ch=1 n=d#6 v=64
93744 On ch=1 n=f5 v=31
93804 Off ch=1 n=f5 v=64
93866 On ch=1 n=f6 v=64
93876 Off ch=1 n=b5 v=64
93956 On ch=1 n=g#6 v=65
93962 Par ch=1 c=64 v=0
94128 Par ch=1 c=64 v=127
94146 Off ch=1 n=f6 v=64
94196 Off ch=1 n=g#6 v=64
94426 Off ch=1 n=b4 v=64
94440 On ch=1 n=a#4 v=23
95028 On ch=1 n=b4 v=38
95052 Off ch=1 n=a#4 v=64
95188 Par ch=1 c=64 v=0
95296 Par ch=1 c=64 v=127
95308 On ch=1 n=c#5 v=55
95354 Off ch=1 n=c#5 v=64
95412 On ch=1 n=c#6 v=41
95450 Off ch=1 n=c#4 v=64
95536 On ch=1 n=f6 v=69
95570 Off ch=1 n=g#4 v=64
95744 Off ch=1 n=f6 v=64
95846 Off ch=1 n=c#6 v=64
95846 On ch=1 n=c#4 v=25
95884 On ch=1 n=f4 v=35
95966 On ch=1 n=b5 v=74
95978 On ch=1 n=g#5 v=52
96014 Off ch=1 n=b5 v=64
96024 Off ch=1 n=g#5 v=64
96062 Off ch=1 n=b4 v=64
96230 On ch=1 n=a#4 v=44
96268 Off ch=1 n=f4 v=64
96306 Off ch=1 n=a#4 v=64
96376 On ch=1 n=a#5 v=50
96420 Off ch=1 n=c#4 v=64
96478 On ch=1 n=c#6 v=67
96520 Off ch=1 n=a#5 v=64
96986 On ch=1 n=a5 v=47
97002 On ch=1 n=f5 v=27
97002 On ch=1 n=f#3 v=26
97040 Par ch=1 c=64 v=0
97070 Off ch=1 n=c#6 v=64
97464 On ch=1 n=c#4 v=33
97678 Par ch=1 c=64 v=127
97896 Off ch=1 n=c#4 v=64
97922 On ch=1 n=f#4 v=32
97970 Par ch=1 c=64 v=0
98032 Off ch=1 n=f#3 v=64
98108 Par ch=1 c=64 v=127
98162 Off ch=1 n=f#4 v=64
98260 Off ch=1 n=f5 v=64
98340 Off ch=1 n=a5 v=64
98382 On ch=1 n=a#5 v=33
98398 On ch=1 n=c#5 v=15
98406 On ch=1 n=f#5 v=12
98456 Off ch=1 n=c#5 v=64
98546 Off ch=1 n=a#5 v=64
98560 Off ch=1 n=f#5 v=64
99020 On ch=1 n=a#5 v=17
99068 On ch=1 n=f#5 v=11
99152 Par ch=1 c=64 v=0
99414 Par ch=1 c=64 v=127
99734 Off ch=1 n=a#5 v=64
99796 On ch=1 n=c#4 v=36
99799 On ch=1 n=c#5 v=48
99900 Off ch=1 n=f#5 v=64
100148 Off ch=1 n=c#4 v=64
100306 On ch=1 n=a5 v=36
100309 On ch=1 n=d5 v=35
100319 On ch=1 n=d4 v=40
100321 On ch=1 n=f#5 v=27
100323 On ch=1 n=f#3 v=21
100351 Off ch=1 n=c#5 v=64
100471 Par ch=1 c=64 v=0
100747 Off ch=1 n=d4 v=64
100747 Par ch=1 c=64 v=127
100755 On ch=1 n=c#5 v=62
100761 On ch=1 n=c#4 v=38
100825 Off ch=1 n=f#3 v=64
100839 Off ch=1 n=d5 v=64
100873 Off ch=1 n=a5 v=64
100903 Off ch=1 n=f#5 v=64
101185 On ch=1 n=a#5 v=49
101195 On ch=1 n=c4 v=38
101197 On ch=1 n=c5 v=46
101205 On ch=1 n=f#5 v=39
101207 Off ch=1 n=c#4 v=64
101209 On ch=1 n=f#3 v=31
101235 Off ch=1 n=c#5 v=64
101469 Par ch=1 c=64 v=0
101603 On ch=1 n=c#4 v=54
101603 On ch=1 n=c#5 v=62
101645 Off ch=1 n=c4 v=64
101685 Par ch=1 c=64 v=127
101695 Off ch=1 n=f#3 v=64
101751 Off ch=1 n=c5 v=64
101773 Off ch=1 n=a#5 v=64
101803 Off ch=1 n=f#5 v=64
102031 On ch=1 n=a#5 v=69
102035 On ch=1 n=d5 v=64
102037 On ch=1 n=d4 v=58
102041 On ch=1 n=f#5 v=48
102055 Off ch=1 n=c#4 v=64
102057 On ch=1 n=f#3 v=34
102079 Off ch=1 n=c#5 v=64
102253 Par ch=1 c=64 v=0
102423 Par ch=1 c=64 v=127
102463 Off ch=1 n=d5 v=64
102471 On ch=1 n=c#5 v=73
102477 Off ch=1 n=d4 v=64
102483 On ch=1 n=c#4 v=62
102603 Off ch=1 n=f#5 v=64
102655 Off ch=1 n=c#5 v=64
102681 Off ch=1 n=a#5 v=64
102703 Off ch=1 n=f#3 v=64
102719 Off ch=1 n=c#4 v=64
102989 On ch=1 n=b5 v=84
102995 On ch=1 n=d#5 v=57
102997 On ch=1 n=g#5 v=53
103001 On ch=1 n=d#4 v=54
103005 On ch=1 n=f3 v=59
103145 Par ch=1 c=64 v=0
103485 On ch=1 n=c#5 v=68
103515 Off ch=1 n=d#4 v=64
103515 On ch=1 n=c#4 v=59
103697 Par ch=1 c=64 v=127
103707 Off ch=1 n=b5 v=64
103759 Off ch=1 n=g#5 v=64
103759 Off ch=1 n=f3 v=64
103845 Off ch=1 n=c#5 v=64
103863 Off ch=1 n=c#4 v=64
103909 On ch=1 n=a#5 v=67
103917 On ch=1 n=c5 v=64
103921 On ch=1 n=f#3 v=42
103921 On ch=1 n=f#5 v=49
103929 On ch=1 n=c4 v=41
103955 Off ch=1 n=d#5 v=64
104113 Par ch=1 c=64 v=0
104281 Par ch=1 c=64 v=127
104317 On ch=1 n=c#5 v=69
104322 On ch=1 n=c#4 v=57
104331 Off ch=1 n=c4 v=64
104423 Off ch=1 n=a#5 v=64
104471 Off ch=1 n=f#5 v=64
104493 Off ch=1 n=c5 v=64
104703 Off ch=1 n=c#4 v=64
104706 On ch=1 n=d#4 v=66
104715 On ch=1 n=d#5 v=67
104719 On ch=1 n=g5 v=79
104721 On ch=1 n=a#3 v=44
104723 On ch=1 n=g4 v=65
104795 Off ch=1 n=c#5 v=64
104833 Off ch=1 n=f#3 v=64
104881 Par ch=1 c=64 v=0
105065 Par ch=1 c=64 v=127
105117 On ch=1 n=c#5 v=76
105121 Off ch=1 n=g4 v=64
105131 On ch=1 n=c#4 v=57
105145 Off ch=1 n=d#4 v=64
105251 Off ch=1 n=d#5 v=64
105331 Off ch=1 n=g5 v=64
105421 Off ch=1 n=a#3 v=64
105559 On ch=1 n=g#5 v=75
105567 On ch=1 n=g#4 v=38
105571 On ch=1 n=f5 v=63
105595 On ch=1 n=g#3 v=43
105635 Off ch=1 n=c#5 v=64
105681 Par ch=1 c=64 v=0
105885 Off ch=1 n=c#4 v=64
105909 Par ch=1 c=64 v=127
106077 On ch=1 n=c#5 v=69
106107 On ch=1 n=f4 v=72
106135 Off ch=1 n=g#3 v=64
106177 Off ch=1 n=f5 v=64
106191 Off ch=1 n=g#4 v=64
106193 Off ch=1 n=g#5 v=64
106391 Off ch=1 n=c#5 v=64
106595 Off ch=1 n=f4 v=64
106605 On ch=1 n=c5 v=61
106605 On ch=1 n=f#5 v=54
106608 On ch=1 n=f#4 v=48
106649 On ch=1 n=d#4 v=41
106653 On ch=1 n=g#3 v=37
106709 Par ch=1 c=64 v=0
106985 Par ch=1 c=64 v=127
107143 On ch=1 n=a#4 v=43
107165 On ch=1 n=c#4 v=35
107168 Off ch=1 n=d#4 v=64
107191 Off ch=1 n=c5 v=64
107215 Par ch=1 c=64 v=0
107385 Par ch=1 c=64 v=127
107425 Off ch=1 n=f#4 v=64
107615 On ch=1 n=g#4 v=48
107617 Off ch=1 n=c#4 v=64
107647 On ch=1 n=c4 v=22
107723 Par ch=1 c=64 v=0
107785 Off ch=1 n=a#4 v=64
107907 Par ch=1 c=64 v=127
107911 Off ch=1 n=g#3 v=64
108187 Off ch=1 n=c4 v=64
108201 On ch=1 n=c5 v=46
108233 On ch=1 n=g#3 v=28
108329 Off ch=1 n=g#4 v=64
108621 Off ch=1 n=f#5 v=64
109005 On ch=1 n=d#5 v=37
109025 On ch=1 n=f5 v=29
109045 On ch=1 n=f4 v=35
109073 On ch=1 n=c#3 v=20
109183 Off ch=1 n=c5 v=64
109459 Par ch=1 c=64 v=0
109905 Par ch=1 c=64 v=127
110697 On ch=1 n=c#5 v=14
110779 Off ch=1 n=d#5 v=64
110781 Par ch=1 c=64 v=0
111041 Par ch=1 c=64 v=127
111085 Off ch=1 n=f4 v=64
111111 Off ch=1 n=c#3 v=64
111131 Off ch=1 n=g#3 v=64
111199 Off ch=1 n=f5 v=64
111291 Off ch=1 n=c#5 v=64
112139 On ch=1 n=c#6 v=15
112151 On ch=1 n=c#5 v=14
112157 On ch=1 n=c#4 v=11
112323 Off ch=1 n=c#5 v=64
112417 Off ch=1 n=c#4 v=64
112419 Off ch=1 n=c#6 v=64
112451 On ch=1 n=c6 v=31
112457 On ch=1 n=c5 v=23
112473 On ch=1 n=c4 v=15
112533 Par ch=1 c=64 v=0
112711 Off ch=1 n=c6 v=64
112713 Off ch=1 n=c5 v=64
112755 Off ch=1 n=c4 v=64
112793 Par ch=1 c=64 v=127
112871 Par ch=1 c=64 v=0
113085 Par ch=1 c=64 v=127
113113 On ch=1 n=c6 v=39
113143 On ch=1 n=c4 v=21
113149 On ch=1 n=c5 v=7
113211 Off ch=1 n=c6 v=64
113223 Off ch=1 n=c5 v=64
113379 Off ch=1 n=c4 v=64
113397 On ch=1 n=a#5 v=36
113401 On ch=1 n=a#4 v=20
113413 On ch=1 n=a#3 v=23
113607 Par ch=1 c=64 v=0
113869 Par ch=1 c=64 v=127
114023 On ch=1 n=e3 v=42
114167 Off ch=1 n=a#3 v=64
114215 Off ch=1 n=e3 v=64
114249 On ch=1 n=f3 v=46
114257 On ch=1 n=f5 v=27
114299 Par ch=1 c=64 v=0
114321 Off ch=1 n=a#5 v=64
114353 Off ch=1 n=a#4 v=64
114445 On ch=1 n=a3 v=41
114571 Off ch=1 n=f3 v=64
114591 Par ch=1 c=64 v=127
114629 Off ch=1 n=a3 v=64
114697 On ch=1 n=f4 v=31
114859 Off ch=1 n=f4 v=64
114893 On ch=1 n=f3 v=31
114945 Par ch=1 c=64 v=0
115089 Off ch=1 n=f3 v=64
115095 On ch=1 n=f#3 v=41
115155 Off ch=1 n=f5 v=64
115295 On ch=1 n=a#3 v=36
115415 Off ch=1 n=f#3 v=64
115467 Par ch=1 c=64 v=127
115519 On ch=1 n=f#4 v=41
115571 Off ch=1 n=a#3 v=64
115715 Off ch=1 n=f#4 v=64
115718 On ch=1 n=f6 v=63
115927 Par ch=1 c=64 v=0
115941 On ch=1 n=e6 v=59
116005 Off ch=1 n=f6 v=64
116159 On ch=1 n=c#6 v=33
116189 Par ch=1 c=64 v=127
116275 Off ch=1 n=e6 v=64
116403 Off ch=1 n=c#6 v=64
116413 On ch=1 n=e5 v=39
116537 Off ch=1 n=e5 v=64
116609 On ch=1 n=e6 v=45
116623 On ch=1 n=f#4 v=36
116795 Off ch=1 n=f#4 v=64
116803 Par ch=1 c=64 v=0
116815 On ch=1 n=d#6 v=56
116841 Off ch=1 n=e6 v=64
116841 On ch=1 n=g4 v=30
117013 On ch=1 n=c#6 v=48
117021 On ch=1 n=a#4 v=29
117051 Off ch=1 n=g4 v=64
117079 Par ch=1 c=64 v=127
117115 Off ch=1 n=d#6 v=64
117131 Off ch=1 n=a#4 v=64
117209 On ch=1 n=g5 v=35
117212 On ch=1 n=d#5 v=48
117339 Off ch=1 n=d#5 v=64
117367 Off ch=1 n=g5 v=64
117419 On ch=1 n=g4 v=53
117469 Off ch=1 n=c#6 v=64
117571 Par ch=1 c=64 v=0
117597 Off ch=1 n=g4 v=64
117603 On ch=1 n=g#4 v=50
117815 On ch=1 n=c5 v=46
117987 Par ch=1 c=64 v=127
117999 Off ch=1 n=g#4 v=64
118023 On ch=1 n=g#5 v=33
118027 Off ch=1 n=c5 v=64
118229 Off ch=1 n=g#5 v=64
118243 On ch=1 n=g#6 v=50
118431 Par ch=1 c=64 v=0
118499 On ch=1 n=f#6 v=53
118595 Off ch=1 n=g#6 v=64
118723 Par ch=1 c=64 v=127
118731 On ch=1 n=d#6 v=47
118865 Off ch=1 n=f#6 v=64
118937 On ch=1 n=f#5 v=42
118995 Off ch=1 n=d#6 v=64
119091 Off ch=1 n=f#5 v=64
119149 On ch=1 n=g#3 v=41
119163 On ch=1 n=f#6 v=58
119395 On ch=1 n=a3 v=43
119401 Off ch=1 n=g#3 v=64
119401 Par ch=1 c=64 v=0
119401 On ch=1 n=f6 v=65
119463 Off ch=1 n=f#6 v=64
119613 On ch=1 n=d#6 v=59
119615 On ch=1 n=c4 v=40
119645 Par ch=1 c=64 v=127
119715 Off ch=1 n=a3 v=64
119737 Off ch=1 n=c4 v=64
119813 On ch=1 n=a4 v=36
119819 On ch=1 n=f5 v=51
119843 Off ch=1 n=d#6 v=64
119967 Off ch=1 n=f5 v=64
119983 Off ch=1 n=a4 v=64
120005 On ch=1 n=a3 v=57
120019 Off ch=1 n=f6 v=64
120121 Par ch=1 c=64 v=0
120203 On ch=1 n=a#3 v=52
120209 Off ch=1 n=a3 v=64
120413 On ch=1 n=d4 v=64
120633 On ch=1 n=a#4 v=59
120645 Par ch=1 c=64 v=127
120651 Off ch=1 n=a#3 v=64
120661 Off ch=1 n=d4 v=64
120833 Off ch=1 n=a#4 v=64
120836 On ch=1 n=a#6 v=69
121071 On ch=1 n=g#6 v=84
121221 Off ch=1 n=a#6 v=64
121295 On ch=1 n=a#4 v=56
121301 On ch=1 n=f6 v=76
121335 Par ch=1 c=64 v=0
121487 Off ch=1 n=g#6 v=64
121509 On ch=1 n=b4 v=71
121512 On ch=1 n=g#5 v=67
121521 Off ch=1 n=a#4 v=64
121661 Off ch=1 n=f6 v=64
121721 On ch=1 n=d5 v=76
121755 Off ch=1 n=b4 v=64
121755 Off ch=1 n=g#5 v=64
121767 Par ch=1 c=64 v=127
121825 Off ch=1 n=d5 v=64
121931 On ch=1 n=b5 v=87
122117 Off ch=1 n=b5 v=64
122125 On ch=1 n=a#6 v=87
122143 On ch=1 n=b4 v=65
122213 Par ch=1 c=64 v=0
122335 On ch=1 n=c5 v=71
122339 On ch=1 n=g#6 v=89
122369 Off ch=1 n=b4 v=64
122455 Off ch=1 n=a#6 v=64
122547 On ch=1 n=f5 v=71
122557 On ch=1 n=f6 v=89
122585 Off ch=1 n=c5 v=64
122613 Off ch=1 n=g#6 v=64
122643 Par ch=1 c=64 v=127
122699 Off ch=1 n=f5 v=64
122739 Off ch=1 n=f6 v=64
122769 On ch=1 n=c6 v=69
122783 On ch=1 n=g#5 v=69
122925 Off ch=1 n=g#5 v=64
122990 On ch=1 n=c5 v=68
123023 Off ch=1 n=c6 v=64
123135 Par ch=1 c=64 v=0
123209 On ch=1 n=c#5 v=61
123223 Off ch=1 n=c5 v=64
123411 Par ch=1 c=64 v=127
123475 On ch=1 n=a#6 v=58
123503 Off ch=1 n=c#5 v=64
123529 On ch=1 n=f5 v=30
123549 Par ch=1 c=64 v=0
123773 On ch=1 n=g#6 v=57
123777 Off ch=1 n=f5 v=64
123795 Par ch=1 c=64 v=127
123825 Off ch=1 n=a#6 v=64
123851 On ch=1 n=c#6 v=9
123887 Par ch=1 c=64 v=0
124023 On ch=1 n=f6 v=50
124065 Off ch=1 n=g#6 v=64
124071 Par ch=1 c=64 v=127
124171 Off ch=1 n=c#6 v=64
124243 On ch=1 n=b5 v=51
124275 Off ch=1 n=f6 v=64
124385 Off ch=1 n=b5 v=64
124429 On ch=1 n=a#5 v=36
124653 Off ch=1 n=a#5 v=64
124659 On ch=1 n=g#5 v=39
124875 On ch=1 n=f5 v=36
124911 Off ch=1 n=g#5 v=64
125089 Off ch=1 n=f5 v=64
125099 On ch=1 n=b4 v=43
125275 On ch=1 n=a#4 v=44
125297 Off ch=1 n=b4 v=64
125477 On ch=1 n=g#4 v=55
125515 Off ch=1 n=a#4 v=64
125689 On ch=1 n=f4 v=78
125713 Off ch=1 n=g#4 v=64
125871 On ch=1 n=b3 v=62
125911 Off ch=1 n=f4 v=64
126063 On ch=1 n=c3 v=68
126083 Par ch=1 c=64 v=0
126095 Off ch=1 n=b3 v=64
126273 On ch=1 n=c#3 v=63
126339 Off ch=1 n=c3 v=64
126453 Par ch=1 c=64 v=127
126489 On ch=1 n=g#3 v=64
126637 Par ch=1 c=64 v=0
126689 On ch=1 n=b3 v=60
126723 Off ch=1 n=g#3 v=64
126751 Off ch=1 n=c#3 v=64
126837 Par ch=1 c=64 v=127
126867 On ch=1 n=c4 v=68
126895 Off ch=1 n=b3 v=64
127067 On ch=1 n=c#4 v=70
127067 Par ch=1 c=64 v=0
127133 Off ch=1 n=c4 v=64
127205 Par ch=1 c=64 v=127
127267 On ch=1 n=g#4 v=68
127315 Off ch=1 n=c#4 v=64
127467 On ch=1 n=b4 v=65
127483 Par ch=1 c=64 v=0
127527 Off ch=1 n=g#4 v=64
127663 On ch=1 n=c5 v=62
127665 Par ch=1 c=64 v=127
127715 Off ch=1 n=b4 v=64
127759 Par ch=1 c=64 v=0
127874 On ch=1 n=c#5 v=59
127893 Off ch=1 n=c5 v=64
127943 Par ch=1 c=64 v=127
127989 Par ch=1 c=64 v=0
128127 On ch=1 n=g#5 v=31
128205 Par ch=1 c=64 v=127
128289 On ch=1 n=b5 v=58
128313 Off ch=1 n=c#5 v=64
128327 Par ch=1 c=64 v=0
128331 Off ch=1 n=g#5 v=64
128523 On ch=1 n=g#6 v=62
128526 Par ch=1 c=64 v=127
128577 Off ch=1 n=b5 v=64
128635 Par ch=1 c=64 v=0
128783 On ch=1 n=g6 v=58
128803 Par ch=1 c=64 v=127
128849 Par ch=1 c=64 v=0
128857 Off ch=1 n=g#6 v=64
129019 Par ch=1 c=64 v=127
129019 On ch=1 n=e6 v=42
129073 Off ch=1 n=g6 v=64
129173 Par ch=1 c=64 v=0
129231 On ch=1 n=a#5 v=33
129275 Off ch=1 n=e6 v=64
129295 Par ch=1 c=64 v=127
129445 On ch=1 n=g#5 v=31
129461 Off ch=1 n=a#5 v=64
129649 Off ch=1 n=g#5 v=64
129669 On ch=1 n=g5 v=34
129871 Off ch=1 n=g5 v=64
129891 On ch=1 n=e5 v=40
130063 Par ch=1 c=64 v=0
130073 Off ch=1 n=e5 v=64
130097 On ch=1 n=a#4 v=29
130171 Par ch=1 c=64 v=127
130269 On ch=1 n=g#4 v=41
130351 Off ch=1 n=a#4 v=64
130473 Off ch=1 n=g#4 v=64
130497 On ch=1 n=g4 v=42
130699 On ch=1 n=e4 v=56
130715 Off ch=1 n=g4 v=64
130847 Par ch=1 c=64 v=0
130907 On ch=1 n=a#3 v=35
131015 Off ch=1 n=e4 v=64
131125 On ch=1 n=b2 v=56
131141 Off ch=1 n=a#3 v=64
131359 On ch=1 n=c3 v=49
131417 Off ch=1 n=b2 v=64
131601 On ch=1 n=g3 v=52
131661 Off ch=1 n=c3 v=64
131739 Par ch=1 c=64 v=127
131825 Off ch=1 n=g3 v=64
131841 On ch=1 n=a#3 v=58
131960 Off ch=1 n=a#3 v=64
132037 On ch=1 n=b3 v=64
132177 Off ch=1 n=b3 v=64
132249 On ch=1 n=c4 v=70
132397 Off ch=1 n=c4 v=64
132453 On ch=1 n=g4 v=78
132657 On ch=1 n=a#4 v=64
132683 Off ch=1 n=g4 v=64
132789 Off ch=1 n=a#4 v=64
132865 On ch=1 n=b4 v=73
133013 Par ch=1 c=64 v=0
133081 On ch=1 n=c5 v=76
133253 Off ch=1 n=b4 v=64
133305 Par ch=1 c=64 v=127
133310 On ch=1 n=g5 v=79
133353 Off ch=1 n=c5 v=64
133619 Off ch=1 n=g5 v=64
133619 On ch=1 n=c#7 v=92
133641 On ch=1 n=g6 v=59
133641 On ch=1 n=e6 v=51
133641 On ch=1 n=a#6 v=51
133661 On ch=1 n=a#5 v=32
133767 Par ch=1 c=64 v=0
133951 Par ch=1 c=64 v=127
133961 Off ch=1 n=a#5 v=64
134089 On ch=1 n=c7 v=92
134167 Off ch=1 n=c#7 v=64
134305 Par ch=1 c=64 v=0
134417 Off ch=1 n=a#6 v=64
134459 Par ch=1 c=64 v=127
134479 Off ch=1 n=e6 v=64
134483 Off ch=1 n=c7 v=64
134511 On ch=1 n=g5 v=59
134517 On ch=1 n=b4 v=67
134521 On ch=1 n=e5 v=52
134551 Off ch=1 n=g6 v=64
134939 On ch=1 n=c5 v=73
134983 Off ch=1 n=b4 v=64
135027 Par ch=1 c=64 v=0
135185 Off ch=1 n=g5 v=64
135211 Par ch=1 c=64 v=127
135313 Off ch=1 n=c5 v=64
135331 Off ch=1 n=e5 v=64
135359 On ch=1 n=c#6 v=76
135365 On ch=1 n=a#5 v=52
135375 On ch=1 n=d#5 v=56
135381 On ch=1 n=f#5 v=39
135549 Par ch=1 c=64 v=0
135795 Par ch=1 c=64 v=127
135885 On ch=1 n=c6 v=56
135961 Off ch=1 n=c#6 v=64
135964 Par ch=1 c=64 v=0
136179 Par ch=1 c=64 v=127
136287 Off ch=1 n=c6 v=64
136341 Off ch=1 n=a#5 v=64
136357 Off ch=1 n=d#5 v=64
136360 On ch=1 n=b3 v=43
136369 On ch=1 n=f#4 v=47
136383 On ch=1 n=d#4 v=37
136407 Off ch=1 n=f#5 v=64
136517 Par ch=1 c=64 v=0
136717 Par ch=1 c=64 v=127
136823 Par ch=1 c=64 v=0
136837 Off ch=1 n=b3 v=64
136837 On ch=1 n=c4 v=45
137045 Off ch=1 n=f#4 v=64
137055 Par ch=1 c=64 v=127
137107 Off ch=1 n=d#4 v=64
137217 Off ch=1 n=c4 v=64
137413 On ch=1 n=c#5 v=42
137425 On ch=1 n=a4 v=30
137435 On ch=1 n=d#4 v=24
137449 On ch=1 n=f4 v=34
137501 Par ch=1 c=64 v=0
137807 Par ch=1 c=64 v=127
138061 Off ch=1 n=c#5 v=64
138147 On ch=1 n=c5 v=38
138733 On ch=1 n=e2 v=23
138775 Par ch=1 c=64 v=0
139145 Par ch=1 c=64 v=127
139473 Off ch=1 n=e2 v=64
139501 On ch=1 n=f2 v=32
140065 Par ch=1 c=64 v=0
140141 Off ch=1 n=f4 v=64
140359 Par ch=1 c=64 v=127
140455 Off ch=1 n=f2 v=64
140593 On ch=1 n=f3 v=36
140623 Off ch=1 n=c5 v=64
140645 Off ch=1 n=a4 v=64
140653 Off ch=1 n=d#4 v=64
140681 Off ch=1 n=f3 v=64
141157 On ch=1 n=a3 v=23
141503 Off ch=1 n=a3 v=64
141517 On ch=1 n=c4 v=19
141717 Off ch=1 n=c4 v=64
141853 On ch=1 n=d#4 v=21
141853 On ch=1 n=c#7 v=34
142071 Off ch=1 n=d#4 v=64
142155 On ch=1 n=d#6 v=29
142165 Off ch=1 n=c#7 v=64
142183 On ch=1 n=f#4 v=22
142283 Off ch=1 n=d#6 v=64
142315 Off ch=1 n=f#4 v=64
142419 On ch=1 n=c7 v=65
142433 On ch=1 n=a4 v=22
142511 Off ch=1 n=a4 v=64
142665 Off ch=1 n=c7 v=64
142669 On ch=1 n=f#6 v=40
142701 On ch=1 n=c5 v=15
142807 Off ch=1 n=c5 v=64
142897 On ch=1 n=f#5 v=17
142897 On ch=1 n=a#6 v=60
142969 Off ch=1 n=f#6 v=64
143083 Off ch=1 n=f#5 v=64
143129 On ch=1 n=d#5 v=39
143133 Off ch=1 n=a#6 v=64
143143 On ch=1 n=c6 v=33
143191 Off ch=1 n=d#5 v=64
143329 On ch=1 n=f#4 v=41
143333 Off ch=1 n=c6 v=64
143333 On ch=1 n=a6 v=61
143483 Off ch=1 n=f#4 v=64
143527 On ch=1 n=d#6 v=47
143571 On ch=1 n=a4 v=15
143661 Off ch=1 n=a4 v=64
143693 Off ch=1 n=a6 v=64
143717 On ch=1 n=g#6 v=68
143729 On ch=1 n=d#5 v=29
143861 Off ch=1 n=d#6 v=64
143893 Off ch=1 n=g#6 v=64
143935 On ch=1 n=a5 v=40
143943 On ch=1 n=c5 v=21
144017 Off ch=1 n=c5 v=64
144123 On ch=1 n=f#6 v=59
144127 On ch=1 n=d#4 v=43
144139 Off ch=1 n=d#5 v=64
144171 Off ch=1 n=a5 v=64
144313 On ch=1 n=f#4 v=53
144341 On ch=1 n=c6 v=37
144347 Off ch=1 n=f#6 v=64
144377 Off ch=1 n=d#4 v=64
144381 Off ch=1 n=f#4 v=64
144513 On ch=1 n=f6 v=63
144515 On ch=1 n=c5 v=39
144567 Off ch=1 n=c6 v=64
144705 On ch=1 n=f#5 v=40
144713 Off ch=1 n=c5 v=64
144725 On ch=1 n=a4 v=30
144787 Off ch=1 n=a4 v=64
144869 Off ch=1 n=f#5 v=64
144925 On ch=1 n=d#6 v=52
144943 On ch=1 n=c4 v=28
145011 Off ch=1 n=f6 v=64
145119 On ch=1 n=d#4 v=36
145155 On ch=1 n=a5 v=37
145331 Off ch=1 n=d#4 v=64
145343 Off ch=1 n=d#6 v=64
145345 Off ch=1 n=a5 v=64
145347 On ch=1 n=a4 v=32
145533 Off ch=1 n=a4 v=64
145547 Off ch=1 n=c4 v=64
145563 On ch=1 n=f#4 v=51
145767 Off ch=1 n=f#4 v=64
145777 On ch=1 n=d#4 v=51
145963 Off ch=1 n=d#4 v=64
146007 On ch=1 n=c4 v=42
146215 Off ch=1 n=c4 v=64
146227 Par ch=1 c=64 v=0
146249 On ch=1 n=c#6 v=40
146254 On ch=1 n=a3 v=32
146427 Par ch=1 c=64 v=127
146481 Off ch=1 n=a3 v=64
146493 On ch=1 n=f#3 v=35
146505 Par ch=1 c=64 v=0
146511 On ch=1 n=d#5 v=30
146659 Par ch=1 c=64 v=127
146677 Off ch=1 n=c#6 v=64
146757 Off ch=1 n=f#3 v=64
146779 Off ch=1 n=d#5 v=64
146827 On ch=1 n=c6 v=27
146837 On ch=1 n=d#3 v=18
146873 Par ch=1 c=64 v=0
147173 On ch=1 n=a3 v=20
147181 On ch=1 n=f#5 v=10
147197 Off ch=1 n=c6 v=64
147241 Par ch=1 c=64 v=127
147271 Off ch=1 n=d#3 v=64
147593 Off ch=1 n=a3 v=64
147691 On ch=1 n=f#4 v=18
148055 Off ch=1 n=f#5 v=64
148097 Off ch=1 n=f#4 v=64
148701 Par ch=1 c=64 v=0
149195 On ch=1 n=c#6 v=52
149203 On ch=1 n=d#3 v=19
149239 Par ch=1 c=64 v=127
149589 On ch=1 n=g#3 v=20
149603 Off ch=1 n=c#6 v=64
149605 On ch=1 n=f5 v=28
149633 Off ch=1 n=d#3 v=64
150025 Off ch=1 n=f5 v=64
150071 On ch=1 n=b5 v=53
150121 On ch=1 n=f4 v=33
150177 Par ch=1 c=64 v=0
150345 Par ch=1 c=64 v=127
150463 Off ch=1 n=g#3 v=64
150466 Off ch=1 n=f4 v=64
150481 On ch=1 n=g#5 v=30
150531 Off ch=1 n=b5 v=64
150687 Off ch=1 n=g#5 v=64
150741 On ch=1 n=b4 v=31
150817 Off ch=1 n=b4 v=64
150977 On ch=1 n=b5 v=54
151295 On ch=1 n=a#5 v=44
151299 Off ch=1 n=b5 v=64
151329 On ch=1 n=d3 v=23
151345 Par ch=1 c=64 v=0
151575 On ch=1 n=g#5 v=32
151605 Par ch=1 c=64 v=127
151637 Off ch=1 n=d3 v=64
151777 On ch=1 n=a#4 v=31
151907 Off ch=1 n=a#4 v=64
152029 On ch=1 n=e4 v=37
152121 Off ch=1 n=g#5 v=64
152181 Off ch=1 n=e4 v=64
152231 On ch=1 n=f4 v=58
152401 Off ch=1 n=f4 v=64
152407 Off ch=1 n=a#5 v=64
152429 On ch=1 n=g#4 v=41
152497 Off ch=1 n=g#4 v=64
152653 On ch=1 n=f5 v=54
152711 Off ch=1 n=f5 v=64
152847 On ch=1 n=a#5 v=62
153077 On ch=1 n=b5 v=78
153080 Par ch=1 c=64 v=0
153080 On ch=1 n=d#3 v=25
153175 Off ch=1 n=a#5 v=64
153277 On ch=1 n=g#5 v=49
153357 Par ch=1 c=64 v=127
153503 On ch=1 n=b4 v=54
153515 Off ch=1 n=d#3 v=64
153527 Off ch=1 n=g#5 v=64
153545 Off ch=1 n=b4 v=64
153593 Off ch=1 n=b5 v=64
153681 On ch=1 n=b5 v=74
153911 On ch=1 n=f6 v=67
153925 Par ch=1 c=64 v=0
153929 On ch=1 n=d3 v=33
153957 Off ch=1 n=b5 v=64
154109 On ch=1 n=g#5 v=32
154141 Off ch=1 n=d3 v=64
154157 Par ch=1 c=64 v=127
154301 On ch=1 n=f5 v=47
154335 Off ch=1 n=g#5 v=64
154395 Off ch=1 n=f5 v=64
154529 On ch=1 n=a4 v=60
154667 Off ch=1 n=a4 v=64
154719 On ch=1 n=a#4 v=43
154893 Par ch=1 c=64 v=0
154927 On ch=1 n=f5 v=59
155063 Par ch=1 c=64 v=127
155113 Off ch=1 n=f6 v=64
155123 Off ch=1 n=f5 v=64
155133 On ch=1 n=a#5 v=67
155151 Off ch=1 n=a#4 v=64
155239 Off ch=1 n=a#5 v=64
155353 On ch=1 n=f6 v=93
155615 On ch=1 n=g#6 v=82
155633 On ch=1 n=a#2 v=52
155663 Par ch=1 c=64 v=0
155705 Off ch=1 n=f6 v=64
155879 On ch=1 n=d6 v=55
155969 Par ch=1 c=64 v=127
156063 Off ch=1 n=g#6 v=64
156089 On ch=1 n=g#5 v=44
156135 Off ch=1 n=a#2 v=64
156141 Off ch=1 n=d6 v=64
156279 Off ch=1 n=g#5 v=64
156293 On ch=1 n=g#6 v=76
156515 On ch=1 n=f#6 v=70
156525 On ch=1 n=d#3 v=35
156553 Par ch=1 c=64 v=0
156587 Off ch=1 n=g#6 v=64
156741 On ch=1 n=d#6 v=41
156831 Off ch=1 n=d#3 v=64
156845 Par ch=1 c=64 v=127
156985 On ch=1 n=f#5 v=29
156995 Off ch=1 n=d#6 v=64
157111 Off ch=1 n=f#5 v=64
157209 On ch=1 n=a4 v=28
157299 Off ch=1 n=a4 v=64
157435 On ch=1 n=a#4 v=18
157597 Par ch=1 c=64 v=0
157637 On ch=1 n=c#5 v=33
157705 Par ch=1 c=64 v=127
157881 On ch=1 n=a#5 v=35
157901 Off ch=1 n=a#4 v=64
157943 Off ch=1 n=a#5 v=64
157961 Off ch=1 n=f#6 v=64
158007 Off ch=1 n=c#5 v=64
158137 On ch=1 n=c#6 v=55
158501 On ch=1 n=f#6 v=53
158507 On ch=1 n=g#2 v=24
158521 Par ch=1 c=64 v=0
158581 Off ch=1 n=c#6 v=64
158799 On ch=1 n=c6 v=26
158857 Par ch=1 c=64 v=127
158915 Off ch=1 n=c6 v=64
158987 Off ch=1 n=f#6 v=64
159009 Off ch=1 n=g#2 v=64
159031 On ch=1 n=f#5 v=27
159117 Off ch=1 n=f#5 v=64
159271 On ch=1 n=f#6 v=32
159543 Off ch=1 n=f#6 v=64
159545 On ch=1 n=f6 v=33
159555 On ch=1 n=c#3 v=20
159565 Par ch=1 c=64 v=0
159831 On ch=1 n=c6 v=11
159841 Par ch=1 c=64 v=127
159847 Off ch=1 n=c#3 v=64
160023 On ch=1 n=f5 v=19
160171 Off ch=1 n=f5 v=64
160183 Off ch=1 n=c6 v=64
160255 On ch=1 n=g4 v=17
160351 Off ch=1 n=g4 v=64
160429 On ch=1 n=g#4 v=30
160459 Off ch=1 n=f6 v=64
160681 On ch=1 n=c5 v=16
160863 Off ch=1 n=g#4 v=64
160891 On ch=1 n=g#5 v=29
160907 Off ch=1 n=c5 v=64
160985 Off ch=1 n=g#5 v=64
161015 On ch=1 n=g#4 v=15
161099 Off ch=1 n=g#4 v=64
161225 On ch=1 n=c6 v=54
161537 On ch=1 n=f6 v=55
161545 On ch=1 n=f#2 v=30
161607 Off ch=1 n=c6 v=64
161623 Par ch=1 c=64 v=0
161775 On ch=1 n=a#5 v=34
161901 Off ch=1 n=f6 v=64
161955 Off ch=1 n=f#2 v=64
161977 Par ch=1 c=64 v=127
161989 On ch=1 n=f5 v=50
162081 Off ch=1 n=f5 v=64
162119 Off ch=1 n=a#5 v=64
162191 On ch=1 n=f6 v=70
162433 On ch=1 n=d#6 v=57
162455 On ch=1 n=c3 v=31
162477 Off ch=1 n=f6 v=64
162545 Par ch=1 c=64 v=0
162663 On ch=1 n=a#5 v=26
162791 Par ch=1 c=64 v=127
162835 On ch=1 n=d#5 v=43
162843 Off ch=1 n=a#5 v=64
162893 Off ch=1 n=c3 v=64
162903 Off ch=1 n=d#5 v=64
162927 Off ch=1 n=d#6 v=64
163029 On ch=1 n=c#6 v=44
163231 On ch=1 n=c6 v=46
163245 Off ch=1 n=c#6 v=64
163245 On ch=1 n=d#3 v=22
163251 Par ch=1 c=64 v=0
163443 On ch=1 n=f#5 v=25
163485 Off ch=1 n=d#3 v=64
163499 Par ch=1 c=64 v=127
163627 On ch=1 n=c5 v=41
163739 Off ch=1 n=c5 v=64
163815 Off ch=1 n=f#5 v=64
163853 On ch=1 n=f4 v=52
164021 Off ch=1 n=f4 v=64
164053 On ch=1 n=f#4 v=53
164265 On ch=1 n=a#4 v=41
164297 Par ch=1 c=64 v=0
164389 Off ch=1 n=f#4 v=64
164449 Off ch=1 n=c6 v=64
164449 Par ch=1 c=64 v=127
164465 Off ch=1 n=a#4 v=64
164509 On ch=1 n=f#5 v=49
164607 Off ch=1 n=f#5 v=64
164771 On ch=1 n=f6 v=78
165073 On ch=1 n=d#6 v=72
165113 On ch=1 n=f2 v=40
165131 Off ch=1 n=f6 v=64
165203 Par ch=1 c=64 v=0
165365 On ch=1 n=a5 v=29
165541 Par ch=1 c=64 v=127
165579 On ch=1 n=d#5 v=38
165589 Off ch=1 n=a5 v=64
165661 Off ch=1 n=d#5 v=64
165743 Off ch=1 n=d#6 v=64
165795 On ch=1 n=c#6 v=41
166067 On ch=1 n=c6 v=35
166089 Off ch=1 n=c#6 v=64
166105 On ch=1 n=f3 v=26
166108 Par ch=1 c=64 v=0
166195 Off ch=1 n=f2 v=64
166305 On ch=1 n=a5 v=15
166309 Off ch=1 n=f3 v=64
166311 Par ch=1 c=64 v=127
166497 On ch=1 n=d#5 v=30
166553 Off ch=1 n=a5 v=64
166583 Off ch=1 n=d#5 v=64
166733 On ch=1 n=e4 v=19
166783 Off ch=1 n=c6 v=64
166953 Off ch=1 n=e4 v=64
166983 On ch=1 n=f4 v=52
167207 Off ch=1 n=f4 v=64
167213 On ch=1 n=a4 v=41
167357 Off ch=1 n=a4 v=64
167475 On ch=1 n=f5 v=48
167523 Off ch=1 n=f5 v=64
167731 On ch=1 n=f#6 v=81
168025 Off ch=1 n=f#6 v=64
168093 On ch=1 n=f6 v=87
168199 Par ch=1 c=64 v=0
168335 On ch=1 n=c6 v=47
168445 Par ch=1 c=64 v=127
168513 On ch=1 n=a5 v=39
168531 Off ch=1 n=c6 v=64
168645 Off ch=1 n=f6 v=64
168733 Off ch=1 n=a5 v=64
168733 On ch=1 n=f5 v=41
168795 Off ch=1 n=f5 v=64
168915 On ch=1 n=e6 v=84
169127 On ch=1 n=c6 v=48
169307 On ch=1 n=a5 v=37
169315 Off ch=1 n=c6 v=64
169467 Off ch=1 n=a5 v=64
169533 On ch=1 n=f5 v=36
169541 Off ch=1 n=e6 v=64
169599 Off ch=1 n=f5 v=64
169727 On ch=1 n=d#6 v=73
169889 Par ch=1 c=64 v=0
169955 On ch=1 n=c6 v=48
170059 Par ch=1 c=64 v=127
170143 Off ch=1 n=c6 v=64
170145 On ch=1 n=a5 v=33
170265 Off ch=1 n=a5 v=64
170375 Off ch=1 n=d#6 v=64
170377 On ch=1 n=f5 v=39
170457 Off ch=1 n=f5 v=64
170639 On ch=1 n=c#6 v=68
170797 Par ch=1 c=64 v=0
170909 On ch=1 n=a5 v=29
171087 Par ch=1 c=64 v=127
171147 On ch=1 n=f#5 v=25
171361 On ch=1 n=c#5 v=40
171595 On ch=1 n=a4 v=29
171791 Off ch=1 n=a4 v=64
171805 On ch=1 n=f#4 v=44
171947 Off ch=1 n=f#4 v=64
171953 Off ch=1 n=f#5 v=64
172007 On ch=1 n=c#4 v=39
172061 Off ch=1 n=c#4 v=64
172191 On ch=1 n=a3 v=36
172303 Off ch=1 n=a3 v=64
172413 Off ch=1 n=c#5 v=64
172419 On ch=1 n=f#3 v=36
172579 Off ch=1 n=f#3 v=64
172627 On ch=1 n=c#3 v=47
172673 Off ch=1 n=c#3 v=64
172849 On ch=1 n=a2 v=39
172969 Off ch=1 n=a2 v=64
173121 On ch=1 n=f#2 v=41
173261 Off ch=1 n=f#2 v=64
173295 Off ch=1 n=a5 v=64
173491 On ch=1 n=d#2 v=46
173501 Par ch=1 c=64 v=0
173593 Par ch=1 c=64 v=127
173645 Off ch=1 n=c#6 v=64
173873 On ch=1 n=c#7 v=39
174041 Off ch=1 n=c#7 v=64
174047 Off ch=1 n=d#2 v=64
174217 On ch=1 n=d#3 v=27
174233 On ch=1 n=b6 v=72
174327 Off ch=1 n=b6 v=64
174441 Off ch=1 n=d#3 v=64
174539 On ch=1 n=a6 v=54
174561 On ch=1 n=f#3 v=22
174707 Off ch=1 n=f#3 v=64
174801 On ch=1 n=g#6 v=53
174829 On ch=1 n=a3 v=25
174835 Off ch=1 n=a6 v=64
174963 Off ch=1 n=a3 v=64
175019 On ch=1 n=f#6 v=58
175041 On ch=1 n=d#4 v=31
175079 Off ch=1 n=g#6 v=64
175147 Off ch=1 n=d#4 v=64
175249 Off ch=1 n=f#6 v=64
175251 On ch=1 n=f#4 v=46
175257 On ch=1 n=d#6 v=48
175321 Off ch=1 n=f#4 v=64
175421 Off ch=1 n=d#6 v=64
175527 On ch=1 n=c#6 v=54
175543 On ch=1 n=a4 v=40
175597 Off ch=1 n=a4 v=64
175853 Off ch=1 n=c#6 v=64
175899 On ch=1 n=c6 v=57
175907 On ch=1 n=d#3 v=30
176067 Par ch=1 c=64 v=0
176195 On ch=1 n=f#5 v=27
176281 Par ch=1 c=64 v=127
176301 Off ch=1 n=c6 v=64
176411 On ch=1 n=c5 v=34
176527 Off ch=1 n=d#3 v=64
176549 Off ch=1 n=c5 v=64
176601 On ch=1 n=c6 v=46
176647 Off ch=1 n=f#5 v=64
176833 On ch=1 n=c#3 v=24
176839 On ch=1 n=a#5 v=41
176849 Off ch=1 n=c6 v=64
176851 Par ch=1 c=64 v=0
177065 Par ch=1 c=64 v=127
177081 Off ch=1 n=c#3 v=64
177091 On ch=1 n=f5 v=22
177235 Off ch=1 n=f5 v=64
177273 On ch=1 n=a#4 v=20
177367 Off ch=1 n=a#4 v=64
177527 On ch=1 n=e4 v=36
177685 Off ch=1 n=e4 v=64
177731 On ch=1 n=f4 v=56
177911 On ch=1 n=a#4 v=44
177913 Off ch=1 n=f4 v=64
178009 Off ch=1 n=a#5 v=64
178037 Off ch=1 n=a#4 v=64
178077 On ch=1 n=f5 v=37
178205 Off ch=1 n=f5 v=64
178327 On ch=1 n=a#5 v=60
178571 On ch=1 n=c#6 v=62
178579 On ch=1 n=e3 v=54
178587 Par ch=1 c=64 v=0
178631 Off ch=1 n=a#5 v=64
178785 Par ch=1 c=64 v=127
178841 On ch=1 n=f#5 v=21
178881 Off ch=1 n=c#6 v=64
178979 Off ch=1 n=e3 v=64
179005 On ch=1 n=a#4 v=48
179057 Off ch=1 n=f#5 v=64
179063 Off ch=1 n=a#4 v=64
179195 On ch=1 n=c#6 v=66
179403 On ch=1 n=f#6 v=67
179403 On ch=1 n=d#3 v=41
179417 Par ch=1 c=64 v=0
179461 Off ch=1 n=c#6 v=64
179617 On ch=1 n=b5 v=55
179659 Off ch=1 n=d#3 v=64
179662 Par ch=1 c=64 v=127
179751 Off ch=1 n=b5 v=64
179801 On ch=1 n=f#5 v=37
179929 Off ch=1 n=f#5 v=64
180003 On ch=1 n=f4 v=64
180097 Off ch=1 n=f4 v=64
180193 On ch=1 n=f#4 v=52
180355 Off ch=1 n=f#6 v=64
180405 On ch=1 n=b4 v=51
180439 Off ch=1 n=f#4 v=64
180543 Off ch=1 n=b4 v=64
180613 On ch=1 n=f#5 v=55
180669 Off ch=1 n=f#5 v=64
180797 On ch=1 n=d#6 v=72
180983 Par ch=1 c=64 v=0
181015 On ch=1 n=e3 v=59
181019 On ch=1 n=c#6 v=69
181065 Off ch=1 n=d#6 v=64
181167 Par ch=1 c=64 v=127
181241 On ch=1 n=g5 v=55
181249 Off ch=1 n=c#6 v=64
181289 Off ch=1 n=g5 v=64
181309 Off ch=1 n=e3 v=64
181393 On ch=1 n=a#4 v=59
181453 Off ch=1 n=a#4 v=64
181551 On ch=1 n=c#6 v=80
181673 Off ch=1 n=c#6 v=64
181757 On ch=1 n=d#3 v=53
181765 On ch=1 n=b5 v=91
181783 Par ch=1 c=64 v=0
181943 On ch=1 n=f#5 v=53
181961 Off ch=1 n=d#3 v=64
181967 Par ch=1 c=64 v=127
182145 On ch=1 n=b4 v=64
182175 On ch=1 n=g#5 v=11
182247 Off ch=1 n=b4 v=64
182311 Off ch=1 n=f#5 v=64
182311 Off ch=1 n=g#5 v=64
182325 On ch=1 n=f4 v=78
182493 Off ch=1 n=f4 v=64
182519 On ch=1 n=f#4 v=66
182721 On ch=1 n=b4 v=55
182759 Off ch=1 n=f#4 v=64
182789 Off ch=1 n=b5 v=64
182859 Off ch=1 n=b4 v=64
182897 On ch=1 n=f#5 v=68
183005 Off ch=1 n=f#5 v=64
183073 On ch=1 n=b5 v=100
183309 On ch=1 n=f#3 v=56
183349 Par ch=1 c=64 v=0
183351 On ch=1 n=d#6 v=86
183361 On ch=1 n=c6 v=63
183409 Off ch=1 n=b5 v=64
183595 Par ch=1 c=64 v=127
183617 On ch=1 n=g#5 v=66
183671 Off ch=1 n=d#6 v=64
183691 Off ch=1 n=c6 v=64
183731 Off ch=1 n=g#5 v=64
183741 Off ch=1 n=f#3 v=64
183823 On ch=1 n=c5 v=75
183889 Off ch=1 n=c5 v=64
184033 On ch=1 n=d#6 v=83
184261 On ch=1 n=g#6 v=82
184269 On ch=1 n=f3 v=67
184317 Par ch=1 c=64 v=0
184331 Off ch=1 n=d#6 v=64
184477 On ch=1 n=c#6 v=52
184521 Off ch=1 n=f3 v=64
184533 Par ch=1 c=64 v=127
184657 On ch=1 n=g#5 v=55
184695 Off ch=1 n=c#6 v=64
184779 Off ch=1 n=g#5 v=64
184825 On ch=1 n=g4 v=66
185015 On ch=1 n=g#4 v=72
185037 Off ch=1 n=g4 v=64
185219 On ch=1 n=c#5 v=81
185235 Off ch=1 n=g#6 v=64
185295 Off ch=1 n=g#4 v=64
185361 Off ch=1 n=c#5 v=64
185437 On ch=1 n=g#5 v=84
185537 Off ch=1 n=g#5 v=64
185651 On ch=1 n=c#6 v=87
185941 On ch=1 n=g#6 v=87
185957 On ch=1 n=e3 v=88
186007 Par ch=1 c=64 v=0
186021 Off ch=1 n=c#6 v=64
186177 On ch=1 n=c#6 v=70
186207 Par ch=1 c=64 v=127
186333 Off ch=1 n=e3 v=64
186375 Off ch=1 n=g#6 v=64
186375 On ch=1 n=g#5 v=73
186423 Off ch=1 n=c#6 v=64
186437 Off ch=1 n=g#5 v=64
186579 On ch=1 n=g#6 v=93
186851 On ch=1 n=c#7 v=90
186855 On ch=1 n=d#3 v=86
186883 Par ch=1 c=64 v=0
186939 Off ch=1 n=g#6 v=64
187101 On ch=1 n=g6 v=77
187161 Off ch=1 n=d#3 v=64
187161 Par ch=1 c=64 v=127
187289 On ch=1 n=c#6 v=65
187383 Off ch=1 n=g6 v=64
187493 On ch=1 n=a4 v=72
187501 Off ch=1 n=c#6 v=64
187697 On ch=1 n=a#4 v=68
187731 Off ch=1 n=a4 v=64
187785 Off ch=1 n=c#7 v=64
187905 On ch=1 n=c#5 v=78
187957 Off ch=1 n=a#4 v=64
188017 Off ch=1 n=c#5 v=64
188111 On ch=1 n=a#5 v=75
188179 Off ch=1 n=a#5 v=64
188297 On ch=1 n=c#6 v=88
188493 On ch=1 n=f#6 v=86
188493 On ch=1 n=d3 v=91
188605 Par ch=1 c=64 v=0
188629 Off ch=1 n=c#6 v=64
188705 On ch=1 n=c6 v=71
188835 Par ch=1 c=64 v=127
188897 On ch=1 n=f#5 v=65
188909 Off ch=1 n=f#6 v=64
188925 Off ch=1 n=d3 v=64
188957 Off ch=1 n=c6 v=64
189009 Off ch=1 n=f#5 v=64
189075 On ch=1 n=f#6 v=89
189277 On ch=1 n=b6 v=113
189285 On ch=1 n=c#3 v=86
189295 Par ch=1 c=64 v=0
189335 Off ch=1 n=f#6 v=64
189511 On ch=1 n=f6 v=66
189547 Off ch=1 n=c#3 v=64
189557 Par ch=1 c=64 v=127
189673 Off ch=1 n=f6 v=64
189683 On ch=1 n=b5 v=84
189709 Off ch=1 n=b6 v=64
189785 Off ch=1 n=b5 v=64
189843 On ch=1 n=g4 v=85
190013 Off ch=1 n=g4 v=64
190013 On ch=1 n=g#4 v=69
190177 On ch=1 n=b4 v=84
190251 Off ch=1 n=g#4 v=64
190355 Off ch=1 n=b4 v=64
190387 On ch=1 n=g#5 v=84
190489 Off ch=1 n=g#5 v=64
190577 On ch=1 n=b5 v=103
190807 On ch=1 n=e6 v=87
190813 On ch=1 n=c3 v=92
190925 Par ch=1 c=64 v=0
190933 Off ch=1 n=b5 v=64
190995 On ch=1 n=a#5 v=75
191109 Par ch=1 c=64 v=127
191131 Off ch=1 n=c3 v=64
191181 Off ch=1 n=e6 v=64
191189 On ch=1 n=e5 v=90
191251 Off ch=1 n=e5 v=64
191275 Off ch=1 n=a#5 v=64
191375 On ch=1 n=e6 v=100
191579 On ch=1 n=a6 v=108
191585 On ch=1 n=b2 v=104
191645 Off ch=1 n=e6 v=64
191663 Par ch=1 c=64 v=0
191797 On ch=1 n=d#6 v=63
191999 Par ch=1 c=64 v=127
192007 Off ch=1 n=b2 v=64
192010 On ch=1 n=a5 v=72
192111 Off ch=1 n=d#6 v=64
192151 Off ch=1 n=a5 v=64
192243 On ch=1 n=b4 v=83
192453 On ch=1 n=f#6 v=95
192547 Off ch=1 n=a6 v=64
192611 Off ch=1 n=b4 v=64
192659 On ch=1 n=d#6 v=65
192839 On ch=1 n=a5 v=61
192851 Off ch=1 n=d#6 v=64
193007 On ch=1 n=b3 v=79
193027 Off ch=1 n=a5 v=64
193125 Off ch=1 n=b3 v=64
193193 On ch=1 n=d#6 v=92
193265 Off ch=1 n=f#6 v=64
193395 On ch=1 n=a5 v=60
193577 On ch=1 n=f#5 v=69
193587 Off ch=1 n=d#6 v=64
193649 Off ch=1 n=a5 v=64
193709 Off ch=1 n=f#5 v=64
193733 On ch=1 n=b2 v=96
193817 Off ch=1 n=b2 v=64
193921 On ch=1 n=a5 v=91
194113 On ch=1 n=d#5 v=68
194285 On ch=1 n=a4 v=65
194317 Off ch=1 n=d#5 v=64
194433 Off ch=1 n=a4 v=64
194465 On ch=1 n=b3 v=90
194493 Off ch=1 n=a5 v=64
194621 Off ch=1 n=b3 v=64
194657 On ch=1 n=g#5 v=99
194859 On ch=1 n=d#5 v=79
195039 On ch=1 n=a4 v=79
195079 Off ch=1 n=d#5 v=64
195167 Off ch=1 n=a4 v=64
195191 On ch=1 n=b2 v=105
195289 Off ch=1 n=b2 v=64
195319 Off ch=1 n=g#5 v=64
195411 On ch=1 n=f#5 v=95
195625 On ch=1 n=d#5 v=84
195809 On ch=1 n=a4 v=80
195973 Off ch=1 n=d#5 v=64
195983 On ch=1 n=b3 v=84
196007 Off ch=1 n=f#5 v=64
196027 Off ch=1 n=a4 v=64
196131 Off ch=1 n=b3 v=64
196225 Par ch=1 c=64 v=0
196239 On ch=1 n=f5 v=100
196251 On ch=1 n=a4 v=83
196251 On ch=1 n=f3 v=95
196251 On ch=1 n=c4 v=95
196259 On ch=1 n=d#5 v=80
196261 On ch=1 n=c3 v=90
196385 Off ch=1 n=a4 v=64
196419 Off ch=1 n=f3 v=64
196423 Off ch=1 n=d#5 v=64
196425 Par ch=1 c=64 v=127
196427 Off ch=1 n=c4 v=64
196441 Off ch=1 n=f5 v=64
196453 Off ch=1 n=c3 v=64
196661 On ch=1 n=d#7 v=101
197025 On ch=1 n=a6 v=62
197265 On ch=1 n=d#6 v=77
197313 Off ch=1 n=d#7 v=64
197359 Off ch=1 n=a6 v=64
197479 On ch=1 n=f5 v=81
197482 On ch=1 n=c5 v=78
197571 Off ch=1 n=d#6 v=64
197689 Off ch=1 n=f5 v=64
197703 On ch=1 n=a6 v=96
197773 Off ch=1 n=c5 v=64
197921 On ch=1 n=d#6 v=62
198069 Off ch=1 n=a6 v=64
198107 On ch=1 n=a5 v=51
198137 Off ch=1 n=d#6 v=64
198281 On ch=1 n=c5 v=63
198289 On ch=1 n=f4 v=80
198295 Off ch=1 n=a5 v=64
198435 Off ch=1 n=f4 v=64
198461 Off ch=1 n=c5 v=64
198467 On ch=1 n=d#6 v=88
198669 On ch=1 n=a5 v=54
198753 Off ch=1 n=d#6 v=64
198831 Off ch=1 n=a5 v=64
198843 On ch=1 n=d#5 v=73
198981 Off ch=1 n=d#5 v=64
198995 On ch=1 n=f4 v=79
198997 On ch=1 n=c4 v=54
199161 Off ch=1 n=f4 v=64
199201 On ch=1 n=a5 v=87
199235 Off ch=1 n=c4 v=64
199393 On ch=1 n=d#5 v=60
199561 Off ch=1 n=d#5 v=64
199585 On ch=1 n=a4 v=57
199667 Off ch=1 n=a4 v=64
199771 On ch=1 n=c4 v=51
199785 On ch=1 n=f3 v=46
199905 Off ch=1 n=c4 v=64
199973 On ch=1 n=g#5 v=80
200033 Off ch=1 n=f3 v=64
200061 Off ch=1 n=a5 v=64
200191 On ch=1 n=d#5 v=53
200371 Off ch=1 n=d#5 v=64
200397 On ch=1 n=a4 v=46
200565 Off ch=1 n=a4 v=64
200589 On ch=1 n=f2 v=55
200649 Par ch=1 c=64 v=0
200805 Par ch=1 c=64 v=127
200835 On ch=1 n=f#5 v=69
200891 Off ch=1 n=f2 v=64
200959 Off ch=1 n=g#5 v=64
201057 On ch=1 n=d#5 v=53
201205 Off ch=1 n=d#5 v=64
201285 On ch=1 n=a4 v=36
201479 Par ch=1 c=64 v=0
201481 On ch=1 n=c4 v=31
201495 On ch=1 n=f3 v=34
201517 Off ch=1 n=a4 v=64
201619 Par ch=1 c=64 v=127
201753 On ch=1 n=f5 v=57
201849 Par ch=1 c=64 v=0
201865 Off ch=1 n=f#5 v=64
201981 Off ch=1 n=c4 v=64
201987 On ch=1 n=c5 v=35
201989 Par ch=1 c=64 v=127
202031 Off ch=1 n=f3 v=64
202231 Off ch=1 n=c5 v=64
202233 On ch=1 n=a4 v=34
202369 Off ch=1 n=a4 v=64
202465 On ch=1 n=f2 v=32
202751 On ch=1 n=e5 v=48
202801 Par ch=1 c=64 v=0
202853 Off ch=1 n=f5 v=64
202981 Off ch=1 n=f2 v=64
202985 Par ch=1 c=64 v=127
203043 On ch=1 n=c5 v=33
203163 Off ch=1 n=c5 v=64
203341 On ch=1 n=a4 v=23
203485 Off ch=1 n=a4 v=64
203607 On ch=1 n=c4 v=19
203609 On ch=1 n=f3 v=19
204035 On ch=1 n=d#5 v=31
204163 Off ch=1 n=e5 v=64
204169 Par ch=1 c=64 v=0
204337 Par ch=1 c=64 v=127
204507 On ch=1 n=c5 v=9
204771 Off ch=1 n=c4 v=64
204907 Off ch=1 n=f3 v=64
205123 On ch=1 n=a4 v=9
206063 On ch=1 n=f2 v=10
207049 Off ch=1 n=a4 v=64
207313 Off ch=1 n=c5 v=64
207531 Off ch=1 n=f2 v=64
208013 Off ch=1 n=d#5 v=64
208321 On ch=1 n=d5 v=33
208357 On ch=1 n=a4 v=10
208383 On ch=1 n=f3 v=22
208389 On ch=1 n=f4 v=23
209039 On ch=1 n=c5 v=32
209067 On ch=1 n=d#4 v=18
209103 Off ch=1 n=d5 v=64
209131 Par ch=1 c=64 v=0
209269 Par ch=1 c=64 v=127
209281 Off ch=1 n=a4 v=64
209289 Off ch=1 n=f3 v=64
209329 Off ch=1 n=d#4 v=64
209335 Off ch=1 n=f4 v=64
209361 Off ch=1 n=c5 v=64
209605 On ch=1 n=c5 v=43
209629 On ch=1 n=f4 v=33
209632 On ch=1 n=d#4 v=18
209661 On ch=1 n=a4 v=7
209723 On ch=1 n=f3 v=5
209925 Off ch=1 n=d#4 v=64
210115 On ch=1 n=a#4 v=26
210149 On ch=1 n=d4 v=35
210249 Off ch=1 n=c5 v=64
210277 Off ch=1 n=a4 v=64
210285 Par ch=1 c=64 v=0
210499 Par ch=1 c=64 v=127
210593 Off ch=1 n=f3 v=64
210613 On ch=1 n=e3 v=53
211205 On ch=1 n=f3 v=44
211207 Off ch=1 n=e3 v=64
211207 Par ch=1 c=64 v=0
211421 Off ch=1 n=f4 v=64
211453 Par ch=1 c=64 v=127
211531 Off ch=1 n=a#4 v=64
211907 On ch=1 n=e6 v=50
212395 On ch=1 n=f6 v=54
212465 Off ch=1 n=e6 v=64
212827 On ch=1 n=d6 v=45
212969 Off ch=1 n=f6 v=64
213243 On ch=1 n=a#5 v=29
213247 Off ch=1 n=d6 v=64
213711 Off ch=1 n=a#5 v=64
213721 On ch=1 n=f5 v=14
214095 Off ch=1 n=f3 v=64
214219 Off ch=1 n=f5 v=64
214277 On ch=1 n=d5 v=11
214325 Off ch=1 n=d4 v=64
214451 Off ch=1 n=d5 v=64
215091 On ch=1 n=g#4 v=45
215099 On ch=1 n=f5 v=60
215103 On ch=1 n=c#5 v=44
215131 On ch=1 n=f3 v=37
215369 Par ch=1 c=64 v=0
215509 Par ch=1 c=64 v=127
215645 Off ch=1 n=g#4 v=64
215673 On ch=1 n=d#5 v=72
215689 On ch=1 n=c5 v=36
215701 On ch=1 n=a4 v=36
215704 On ch=1 n=f#4 v=48
215787 Off ch=1 n=c#5 v=64
215793 Off ch=1 n=f5 v=64
215831 Par ch=1 c=64 v=0
215949 Off ch=1 n=f3 v=64
215969 Par ch=1 c=64 v=127
215971 Off ch=1 n=a4 v=64
215979 Off ch=1 n=d#5 v=64
215983 Off ch=1 n=f#4 v=64
216013 Off ch=1 n=c5 v=64
216171 On ch=1 n=d#5 v=78
216181 On ch=1 n=f#4 v=44
216195 On ch=1 n=c5 v=47
216195 On ch=1 n=a4 v=52
216229 On ch=1 n=f3 v=31
216437 Off ch=1 n=c5 v=64
216537 Off ch=1 n=f#4 v=64
216661 On ch=1 n=c#5 v=68
216671 On ch=1 n=g#4 v=48
216701 On ch=1 n=f4 v=67
216737 Off ch=1 n=a4 v=64
216819 Off ch=1 n=d#5 v=64
216891 Par ch=1 c=64 v=0
217075 Par ch=1 c=64 v=127
217157 Off ch=1 n=f3 v=64
217169 On ch=1 n=e3 v=67
217671 Off ch=1 n=e3 v=64
217689 On ch=1 n=f3 v=59
217691 Par ch=1 c=64 v=0
217875 Par ch=1 c=64 v=127
217945 Off ch=1 n=g#4 v=64
218005 Off ch=1 n=c#5 v=64
218417 On ch=1 n=g6 v=69
219015 On ch=1 n=g#6 v=68
219117 Off ch=1 n=g6 v=64
219513 On ch=1 n=f6 v=73
219581 Off ch=1 n=g#6 v=64
219917 On ch=1 n=c#6 v=68
219969 Off ch=1 n=f6 v=64
220353 On ch=1 n=g#5 v=59
220477 Off ch=1 n=c#6 v=64
220883 On ch=1 n=f5 v=55
220947 Off ch=1 n=g#5 v=64
221031 Off ch=1 n=f3 v=64
221215 Off ch=1 n=f5 v=64
221465 Off ch=1 n=f4 v=64
221507 On ch=1 n=c#6 v=84
221531 On ch=1 n=f3 v=66
222019 Off ch=1 n=c#6 v=64
222029 On ch=1 n=c6 v=87
222033 On ch=1 n=d#4 v=49
222033 On ch=1 n=a4 v=60
222041 On ch=1 n=f#5 v=49
222047 On ch=1 n=c5 v=55
222069 Par ch=1 c=64 v=0
222079 On ch=1 n=a#5 v=25
222151 Off ch=1 n=a#5 v=64
222225 Off ch=1 n=f3 v=64
222299 Par ch=1 c=64 v=127
222343 Off ch=1 n=c6 v=64
222373 Off ch=1 n=c5 v=64
222377 Off ch=1 n=a4 v=64
222505 On ch=1 n=c6 v=88
222523 On ch=1 n=f3 v=44
222537 Off ch=1 n=f#5 v=64
222553 Off ch=1 n=d#4 v=64
222775 Off ch=1 n=c6 v=64
222957 On ch=1 n=d4 v=37
222967 On ch=1 n=f4 v=73
222973 On ch=1 n=a#5 v=62
222981 On ch=1 n=a#4 v=45
223013 On ch=1 n=f5 v=36
223053 Par ch=1 c=64 v=0
223219 Off ch=1 n=f3 v=64
223253 Par ch=1 c=64 v=127
223583 On ch=1 n=e3 v=81
223869 Off ch=1 n=e3 v=64
224085 On ch=1 n=f3 v=68
224143 Par ch=1 c=64 v=0
224333 Off ch=1 n=a#5 v=64
224343 Par ch=1 c=64 v=127
224525 Off ch=1 n=f4 v=64
224547 On ch=1 n=a#5 v=79
224593 Off ch=1 n=d4 v=64
224661 Off ch=1 n=f5 v=64
224819 Off ch=1 n=a#4 v=64
224951 Off ch=1 n=a#5 v=64
225023 On ch=1 n=c#4 v=51
225031 On ch=1 n=b5 v=91
225057 On ch=1 n=b4 v=43
225057 On ch=1 n=f5 v=46
225075 On ch=1 n=f4 v=36
225111 Par ch=1 c=64 v=0
225343 Par ch=1 c=64 v=127
225505 Off ch=1 n=b5 v=64
225515 Off ch=1 n=f4 v=64
225589 On ch=1 n=b5 v=66
225663 Off ch=1 n=b4 v=64
225759 Off ch=1 n=c#4 v=64
225762 Off ch=1 n=f5 v=64
225905 Off ch=1 n=b5 v=64
226041 On ch=1 n=c6 v=53
226061 On ch=1 n=e5 v=42
226061 On ch=1 n=g4 v=32
226063 On ch=1 n=c4 v=30
226063 On ch=1 n=c5 v=29
226065 Par ch=1 c=64 v=0
226287 Off ch=1 n=f3 v=64
226309 Par ch=1 c=64 v=127
226541 On ch=1 n=e3 v=44
226799 Off ch=1 n=e3 v=64
227045 On ch=1 n=f3 v=33
227109 Par ch=1 c=64 v=0
227371 Par ch=1 c=64 v=127
227417 Off ch=1 n=c6 v=64
227457 Off ch=1 n=g4 v=64
227465 Off ch=1 n=c5 v=64
227489 Off ch=1 n=e5 v=64
227565 Off ch=1 n=c4 v=64
227655 On ch=1 n=c6 v=64
227941 Off ch=1 n=c6 v=64
228127 On ch=1 n=a#5 v=57
228147 On ch=1 n=a#4 v=29
228159 On ch=1 n=e5 v=44
228165 On ch=1 n=c4 v=27
228167 On ch=1 n=g4 v=18
228201 Par ch=1 c=64 v=0
228415 Par ch=1 c=64 v=127
228443 Off ch=1 n=a#5 v=64
228615 On ch=1 n=a#5 v=64
228618 Off ch=1 n=g4 v=64
228625 Off ch=1 n=a#4 v=64
228771 Off ch=1 n=c4 v=64
228827 Off ch=1 n=a#5 v=64
228841 Off ch=1 n=e5 v=64
229263 On ch=1 n=g#5 v=45
229279 On ch=1 n=g#4 v=21
229285 On ch=1 n=c#4 v=17
229289 On ch=1 n=f5 v=33
229301 On ch=1 n=f4 v=42
229353 Par ch=1 c=64 v=0
229583 Par ch=1 c=64 v=127
229589 Off ch=1 n=f3 v=64
229935 On ch=1 n=e3 v=40
230211 Off ch=1 n=e3 v=64
230543 On ch=1 n=f3 v=41
230567 Par ch=1 c=64 v=0
230843 Par ch=1 c=64 v=127
230855 Off ch=1 n=g#5 v=64
231001 Off ch=1 n=f4 v=64
231053 On ch=1 n=g#5 v=47
231095 Off ch=1 n=c#4 v=64
231207 Off ch=1 n=g#4 v=64
231323 Off ch=1 n=g#5 v=64
231565 Par ch=1 c=64 v=0
231583 On ch=1 n=d#5 v=40
231586 On ch=1 n=a4 v=29
231597 On ch=1 n=a5 v=41
231607 On ch=1 n=b3 v=23
231617 On ch=1 n=f4 v=34
231667 Off ch=1 n=f5 v=64
231873 Par ch=1 c=64 v=127
231885 Off ch=1 n=a4 v=64
231969 Off ch=1 n=d#5 v=64
231979 Off ch=1 n=a5 v=64
232103 On ch=1 n=a5 v=31
232119 Off ch=1 n=f4 v=64
232251 Off ch=1 n=b3 v=64
232291 Off ch=1 n=a5 v=64
232689 On ch=1 n=a#5 v=25
232705 On ch=1 n=a#3 v=14
232713 On ch=1 n=a#4 v=8
232717 Par ch=1 c=64 v=0
232735 On ch=1 n=d5 v=18
232737 On ch=1 n=f4 v=44
233009 Par ch=1 c=64 v=127
233377 Off ch=1 n=f3 v=64
233395 Off ch=1 n=f4 v=64
233487 On ch=1 n=e3 v=61
234059 Off ch=1 n=e3 v=64
234069 Par ch=1 c=64 v=0
234107 On ch=1 n=f3 v=46
234407 Par ch=1 c=64 v=127
234475 Off ch=1 n=a#4 v=64
234511 Off ch=1 n=d5 v=64
234755 On ch=1 n=a#4 v=40
234841 Off ch=1 n=a#3 v=64
235395 On ch=1 n=c#5 v=55
235401 On ch=1 n=a#3 v=21
235427 On ch=1 n=f4 v=33
235437 Par ch=1 c=64 v=0
235441 Off ch=1 n=a#5 v=64
235683 Par ch=1 c=64 v=127
235803 Off ch=1 n=c#5 v=64
235939 On ch=1 n=c#5 v=65
236047 Off ch=1 n=a#4 v=64
236093 Off ch=1 n=f4 v=64
236271 Off ch=1 n=c#5 v=64
236513 On ch=1 n=f5 v=40
236515 On ch=1 n=f4 v=50
236518 On ch=1 n=c5 v=38
236521 On ch=1 n=a#4 v=28
236531 On ch=1 n=c4 v=22
236543 Par ch=1 c=64 v=0
236573 Off ch=1 n=a#3 v=64
236973 Par ch=1 c=64 v=127
237311 On ch=1 n=e3 v=40
237325 Off ch=1 n=f3 v=64
237451 Par ch=1 c=64 v=0
237741 Par ch=1 c=64 v=127
238007 Off ch=1 n=e3 v=64
238029 On ch=1 n=f3 v=25
238065 Par ch=1 c=64 v=0
238357 Par ch=1 c=64 v=127
238465 Off ch=1 n=f4 v=64
238497 Off ch=1 n=c5 v=64
238857 On ch=1 n=f4 v=78
239237 Off ch=1 n=f5 v=64
239499 On ch=1 n=c5 v=70
239631 Par ch=1 c=64 v=0
239633 Off ch=1 n=f4 v=64
239769 Par ch=1 c=64 v=127
239873 Off ch=1 n=c5 v=64
239897 On ch=1 n=f4 v=2
240023 Off ch=1 n=c4 v=64
240065 On ch=1 n=c5 v=83
240115 Off ch=1 n=f4 v=64
240205 Off ch=1 n=a#4 v=64
240549 Off ch=1 n=c5 v=64
240889 On ch=1 n=d#5 v=71
240903 On ch=1 n=f#4 v=50
240913 On ch=1 n=a4 v=34
240945 On ch=1 n=f2 v=33
240975 Off ch=1 n=f3 v=64
241075 Par ch=1 c=64 v=0
241567 Par ch=1 c=64 v=127
241921 Off ch=1 n=a4 v=64
242195 Off ch=1 n=f#4 v=64
242711 On ch=1 n=c#5 v=43
242743 On ch=1 n=a4 v=22
242749 On ch=1 n=f4 v=30
242873 Par ch=1 c=64 v=0
242951 Off ch=1 n=d#5 v=64
243151 Par ch=1 c=64 v=127
243539 Off ch=1 n=a4 v=64
243687 Off ch=1 n=f4 v=64
244763 On ch=1 n=c5 v=35
244787 On ch=1 n=a4 v=15
244799 On ch=1 n=d#4 v=15
244963 Par ch=1 c=64 v=0
244973 Off ch=1 n=c#5 v=64
245301 Par ch=1 c=64 v=127
245679 Off ch=1 n=f2 v=64
246829 On ch=1 n=a#1 v=41
247651 Off ch=1 n=a#1 v=64
247683 On ch=1 n=a#2 v=28
247871 Off ch=1 n=a#2 v=64
248299 On ch=1 n=f3 v=28
248529 Off ch=1 n=f3 v=64
248607 Off ch=1 n=d#4 v=64
248699 Off ch=1 n=a4 v=64
248835 On ch=1 n=a#3 v=16
249047 Off ch=1 n=a#3 v=64
249329 Off ch=1 n=c5 v=64
249347 On ch=1 n=a#4 v=20
249351 On ch=1 n=c#4 v=22
249537 Off ch=1 n=c#4 v=64
249899 Off ch=1 n=a#4 v=64
249927 On ch=1 n=f4 v=42
250051 Off ch=1 n=f4 v=64
250529 On ch=1 n=a#4 v=22
250553 On ch=1 n=c#4 v=28
250563 On ch=1 n=a#3 v=11
251129 On ch=1 n=c#5 v=38
251283 Off ch=1 n=c#5 v=64
251733 On ch=1 n=f5 v=28
251851 Off ch=1 n=f5 v=64
251993 Off ch=1 n=a#4 v=64
252291 Off ch=1 n=c#4 v=64
252375 On ch=1 n=a#5 v=30
252427 Off ch=1 n=a#3 v=64
252577 Off ch=1 n=a#5 v=64
253091 On ch=1 n=a#2 v=20
253097 On ch=1 n=c#6 v=36
253235 Off ch=1 n=c#6 v=64
254009 On ch=1 n=f7 v=30
254017 On ch=1 n=f6 v=24
254091 Off ch=1 n=f6 v=64
254175 Off ch=1 n=f7 v=64
254327 Off ch=1 n=a#2 v=64
255837 On ch=1 n=a#7 v=26
255847 On ch=1 n=a#6 v=19
255859 On ch=1 n=c#4 v=12
255881 On ch=1 n=a#2 v=4
255887 On ch=1 n=f3 v=24
256017 Off ch=1 n=f3 v=64
256085 Off ch=1 n=a#6 v=64
256131 Off ch=1 n=c#4 v=64
256225 Off ch=1 n=a#2 v=64
256243 Off ch=1 n=a#7 v=64
258607 Par ch=1 c=64 v=0
261117 Par ch=1 c=64 v=0
261117 Meta TrkEnd
TrkEnd
