MFile 0 1 480
MTrk
0 SMPTE 96 0 0 0 0
0 TimeSig 4/4 24 8
0 Tempo 500000
0 Par ch=1 c=64 v=127
0 On ch=1 n=a#5 v=29
30 On ch=1 n=d#3 v=21
126 On ch=1 n=d#3 v=0
558 On ch=1 n=d#6 v=43
584 On ch=1 n=d#5 v=20
616 On ch=1 n=g4 v=10
652 On ch=1 n=d#4 v=11
664 Par ch=1 c=64 v=0
704 On ch=1 n=a#5 v=0
924 Par ch=1 c=64 v=127
1184 On ch=1 n=d6 v=39
1226 On ch=1 n=g4 v=0
1254 On ch=1 n=d#5 v=0
1302 On ch=1 n=d#4 v=0
1314 On ch=1 n=d#6 v=0
1426 On ch=1 n=d6 v=0
1650 On ch=1 n=d#6 v=38
1670 On ch=1 n=c6 v=27
1686 On ch=1 n=g4 v=21
1696 On ch=1 n=d#5 v=19
1718 On ch=1 n=d#4 v=10
1724 Par ch=1 c=64 v=0
1924 Par ch=1 c=64 v=127
1926 On ch=1 n=g4 v=0
1948 On ch=1 n=d#5 v=0
1948 On ch=1 n=d#6 v=0
1968 On ch=1 n=d#4 v=0
2014 On ch=1 n=c6 v=0
2238 On ch=1 n=a#5 v=26
2250 On ch=1 n=d#6 v=21
2264 On ch=1 n=d#5 v=5
2332 On ch=1 n=g4 v=6
2352 On ch=1 n=d#4 v=7
2508 Par ch=1 c=64 v=0
2738 Par ch=1 c=64 v=127
2854 On ch=1 n=g4 v=0
2930 On ch=1 n=d#4 v=0
2948 On ch=1 n=d#6 v=0
3008 On ch=1 n=d#5 v=0
3392 On ch=1 n=d#6 v=30
3416 On ch=1 n=a#5 v=0
3424 On ch=1 n=g#5 v=21
3426 On ch=1 n=d#3 v=12
3446 On ch=1 n=d#5 v=14
3533 On ch=1 n=d#5 v=0
3562 On ch=1 n=d#3 v=0
3616 On ch=1 n=g#5 v=0
3698 On ch=1 n=g5 v=54
3701 On ch=1 n=d#6 v=0
3966 On ch=1 n=d#4 v=14
4016 On ch=1 n=g5 v=0
4016 On ch=1 n=g4 v=27
4044 On ch=1 n=f5 v=40
4044 Par ch=1 c=64 v=0
4047 On ch=1 n=d#6 v=36
4274 Par ch=1 c=64 v=127
4374 On ch=1 n=f5 v=0
4588 On ch=1 n=d#5 v=42
4688 Par ch=1 c=64 v=0
4754 On ch=1 n=d#6 v=0
4754 On ch=1 n=g4 v=0
4812 Par ch=1 c=64 v=127
4834 On ch=1 n=d#4 v=0
5152 On ch=1 n=d#6 v=29
5168 On ch=1 n=d#5 v=0
5188 On ch=1 n=g4 v=16
5194 On ch=1 n=d#4 v=12
5210 On ch=1 n=g5 v=19
5212 Par ch=1 c=64 v=0
5396 Par ch=1 c=64 v=127
5426 On ch=1 n=g4 v=0
5458 On ch=1 n=d#4 v=0
5461 On ch=1 n=d#6 v=0
5586 On ch=1 n=g5 v=0
5788 On ch=1 n=d#6 v=28
5806 On ch=1 n=d#5 v=20
5824 On ch=1 n=a#5 v=20
5856 On ch=1 n=g4 v=9
5866 On ch=1 n=d#4 v=5
6042 Par ch=1 c=64 v=0
6240 Par ch=1 c=64 v=127
6328 On ch=1 n=g4 v=0
6366 On ch=1 n=d#5 v=0
6422 On ch=1 n=d#4 v=0
6438 On ch=1 n=d#6 v=0
6558 On ch=1 n=a#5 v=0
7056 On ch=1 n=d#5 v=32
7058 On ch=1 n=d#6 v=38
7064 On ch=1 n=c6 v=31
7074 On ch=1 n=g2 v=25
7146 On ch=1 n=g2 v=0
7194 On ch=1 n=d#5 v=0
7326 On ch=1 n=d#6 v=0
7350 On ch=1 n=d6 v=65
7448 On ch=1 n=c6 v=0
7644 On ch=1 n=d#6 v=58
7660 On ch=1 n=d#5 v=24
7664 On ch=1 n=g4 v=30
7666 On ch=1 n=d#4 v=29
7684 On ch=1 n=g3 v=22
7732 Par ch=1 c=64 v=0
7736 On ch=1 n=d6 v=0
7978 Par ch=1 c=64 v=127
8228 On ch=1 n=g4 v=0
8294 On ch=1 n=d6 v=51
8330 On ch=1 n=g3 v=0
8332 On ch=1 n=d#4 v=0
8348 On ch=1 n=d#5 v=0
8386 On ch=1 n=d#6 v=0
8818 On ch=1 n=d6 v=0
8830 On ch=1 n=d#6 v=28
8836 On ch=1 n=c6 v=31
8860 On ch=1 n=g4 v=17
8864 On ch=1 n=d#5 v=14
8874 On ch=1 n=d#4 v=20
8884 Par ch=1 c=64 v=0
8888 On ch=1 n=g3 v=14
9078 On ch=1 n=g4 v=0
9090 On ch=1 n=g3 v=0
9092 On ch=1 n=d#4 v=0
9092 Par ch=1 c=64 v=127
9110 On ch=1 n=d#5 v=0
9120 On ch=1 n=d#6 v=0
9480 On ch=1 n=a#5 v=21
9500 On ch=1 n=d#6 v=11
9502 On ch=1 n=d#5 v=10
9510 On ch=1 n=g4 v=9
9510 On ch=1 n=d#4 v=11
9532 On ch=1 n=g3 v=9
9560 Par ch=1 c=64 v=0
9612 On ch=1 n=c6 v=0
9852 Par ch=1 c=64 v=127
9972 On ch=1 n=d#4 v=0
9972 On ch=1 n=g4 v=0
10174 On ch=1 n=g3 v=0
10242 On ch=1 n=d#5 v=0
10258 On ch=1 n=d#6 v=0
10672 On ch=1 n=g#5 v=20
10678 On ch=1 n=d#6 v=24
10688 On ch=1 n=a#2 v=18
10690 On ch=1 n=d#5 v=21
10706 On ch=1 n=a#5 v=0
10712 Par ch=1 c=64 v=0
10834 Par ch=1 c=64 v=127
10848 On ch=1 n=a#2 v=0
10918 On ch=1 n=g#5 v=0
10974 On ch=1 n=g5 v=43
11048 On ch=1 n=d#6 v=0
11051 On ch=1 n=d#5 v=0
11316 On ch=1 n=a#5 v=34
11318 On ch=1 n=d#6 v=32
11334 On ch=1 n=a#3 v=15
11348 On ch=1 n=g4 v=24
11382 On ch=1 n=g5 v=0
11512 Par ch=1 c=64 v=0
11712 Par ch=1 c=64 v=127
11964 On ch=1 n=d#5 v=41
12048 Par ch=1 c=64 v=0
12122 On ch=1 n=a#5 v=0
12172 Par ch=1 c=64 v=127
12180 On ch=1 n=g4 v=0
12200 On ch=1 n=a#3 v=0
12330 On ch=1 n=d#5 v=0
12398 On ch=1 n=d#6 v=0
12466 On ch=1 n=g5 v=15
12548 On ch=1 n=g#4 v=17
12558 On ch=1 n=g5 v=0
12564 On ch=1 n=d6 v=34
12574 On ch=1 n=a#3 v=15
12580 On ch=1 n=f5 v=21
12588 Par ch=1 c=64 v=0
12818 Par ch=1 c=64 v=127
12898 On ch=1 n=a#3 v=0
12906 On ch=1 n=f5 v=0
12918 On ch=1 n=g#4 v=0
12926 On ch=1 n=d6 v=0
13282 On ch=1 n=d#6 v=24
13302 On ch=1 n=d#5 v=20
13318 On ch=1 n=d#4 v=19
13320 On ch=1 n=g4 v=20
13386 Par ch=1 c=64 v=0
13692 Par ch=1 c=64 v=127
13898 On ch=1 n=d#5 v=0
14074 On ch=1 n=g4 v=0
14458 On ch=1 n=d#4 v=0
14496 On ch=1 n=g5 v=31
14736 On ch=1 n=d#6 v=0
14862 On ch=1 n=d#3 v=17
14862 On ch=1 n=a#5 v=54
14950 On ch=1 n=g5 v=0
15014 On ch=1 n=d#3 v=0
15164 On ch=1 n=a#5 v=0
15164 On ch=1 n=g6 v=83
15306 On ch=1 n=g6 v=0
15484 On ch=1 n=d#4 v=22
15510 On ch=1 n=g#6 v=62
15516 On ch=1 n=g#5 v=35
15528 On ch=1 n=f6 v=38
15552 On ch=1 n=c5 v=25
15630 Par ch=1 c=64 v=0
15876 Par ch=1 c=64 v=127
16148 On ch=1 n=c6 v=44
16184 On ch=1 n=g#6 v=0
16268 On ch=1 n=f6 v=0
16344 On ch=1 n=d#4 v=0
16347 On ch=1 n=g#5 v=0
16498 On ch=1 n=c5 v=0
16700 On ch=1 n=d6 v=36
16702 On ch=1 n=f6 v=42
16720 On ch=1 n=g#4 v=18
16728 On ch=1 n=f5 v=14
16742 On ch=1 n=d#4 v=17
16758 On ch=1 n=c6 v=0
16782 Par ch=1 c=64 v=0
16950 Par ch=1 c=64 v=127
17014 On ch=1 n=d#4 v=0
17020 On ch=1 n=f6 v=0
17042 On ch=1 n=f5 v=0
17076 On ch=1 n=g#4 v=0
17322 On ch=1 n=a#5 v=23
17336 On ch=1 n=g5 v=22
17342 On ch=1 n=a#4 v=11
17342 On ch=1 n=g6 v=38
17380 On ch=1 n=d#4 v=16
17396 Par ch=1 c=64 v=0
17432 On ch=1 n=d6 v=0
17734 Par ch=1 c=64 v=127
17858 On ch=1 n=a#5 v=0
17960 On ch=1 n=a#4 v=0
17960 On ch=1 n=g5 v=0
18066 On ch=1 n=d#4 v=0
18182 On ch=1 n=d#6 v=32
18228 On ch=1 n=g6 v=0
18512 On ch=1 n=d#6 v=0
18512 On ch=1 n=a#5 v=30
18515 On ch=1 n=a#6 v=46
18524 On ch=1 n=g6 v=55
18536 On ch=1 n=d#3 v=19
18672 On ch=1 n=d#3 v=0
18680 On ch=1 n=a#5 v=0
18782 On ch=1 n=a#6 v=0
18814 On ch=1 n=d#6 v=61
18817 On ch=1 n=g6 v=0
19144 On ch=1 n=g#6 v=49
19148 On ch=1 n=g#5 v=32
19164 On ch=1 n=f6 v=36
19182 On ch=1 n=c5 v=22
19196 On ch=1 n=d#4 v=17
19206 On ch=1 n=d#6 v=0
19240 Par ch=1 c=64 v=0
19502 Par ch=1 c=64 v=127
19786 On ch=1 n=c6 v=39
19802 On ch=1 n=g#6 v=0
19826 On ch=1 n=f6 v=0
19888 On ch=1 n=g#5 v=0
19906 On ch=1 n=d#4 v=0
19944 On ch=1 n=c5 v=0
20352 On ch=1 n=f6 v=50
20357 On ch=1 n=d6 v=31
20367 On ch=1 n=g#4 v=10
20371 On ch=1 n=f5 v=14
20387 On ch=1 n=c6 v=0
20390 On ch=1 n=d#4 v=19
20405 Par ch=1 c=64 v=0
20573 Par ch=1 c=64 v=127
20629 On ch=1 n=d#4 v=0
20661 On ch=1 n=f6 v=0
20681 On ch=1 n=f5 v=0
20747 On ch=1 n=g#4 v=0
20909 On ch=1 n=g6 v=43
20919 On ch=1 n=d#6 v=30
20927 On ch=1 n=a#4 v=14
20943 On ch=1 n=g5 v=35
20967 On ch=1 n=d#4 v=10
21017 On ch=1 n=d6 v=0
21019 Par ch=1 c=64 v=0
21281 Par ch=1 c=64 v=127
21429 On ch=1 n=a#4 v=0
21483 On ch=1 n=a#5 v=36
21545 On ch=1 n=d#6 v=0
21567 On ch=1 n=d#4 v=0
21583 On ch=1 n=g5 v=0
21767 On ch=1 n=a#5 v=0
22057 On ch=1 n=d#6 v=57
22065 On ch=1 n=g5 v=25
22073 On ch=1 n=d#3 v=23
22075 On ch=1 n=c6 v=30
22075 On ch=1 n=d#4 v=22
22193 On ch=1 n=g6 v=0
22279 Par ch=1 c=64 v=0
22387 Par ch=1 c=64 v=127
22399 On ch=1 n=g5 v=0
22419 On ch=1 n=d#3 v=0
22445 On ch=1 n=d#4 v=0
22649 On ch=1 n=f6 v=54
22654 On ch=1 n=a#4 v=40
22661 On ch=1 n=d6 v=49
22661 On ch=1 n=a#3 v=35
22669 On ch=1 n=f5 v=24
22703 On ch=1 n=c6 v=0
22741 On ch=1 n=d#6 v=0
22893 Par ch=1 c=64 v=0
23077 Par ch=1 c=64 v=127
23161 On ch=1 n=a#4 v=0
23171 On ch=1 n=a#3 v=0
23223 On ch=1 n=a4 v=44
23229 On ch=1 n=a3 v=41
23411 On ch=1 n=f5 v=0
23449 On ch=1 n=d6 v=0
23519 On ch=1 n=f6 v=0
23683 On ch=1 n=a3 v=0
23685 On ch=1 n=a4 v=0
23797 On ch=1 n=a#6 v=64
23813 On ch=1 n=g4 v=60
23817 On ch=1 n=a#5 v=39
23829 On ch=1 n=d6 v=46
23832 On ch=1 n=g3 v=40
23985 Par ch=1 c=64 v=0
24169 Par ch=1 c=64 v=127
24247 On ch=1 n=g3 v=0
24253 On ch=1 n=g4 v=0
24379 On ch=1 n=f4 v=84
24393 On ch=1 n=f3 v=57
24511 On ch=1 n=d6 v=0
24711 On ch=1 n=a#5 v=0
24909 On ch=1 n=d6 v=80
24919 On ch=1 n=a#5 v=36
24999 Par ch=1 c=64 v=0
25043 On ch=1 n=f4 v=0
25169 Par ch=1 c=64 v=127
25319 On ch=1 n=a#6 v=0
25331 On ch=1 n=a#5 v=0
25537 On ch=1 n=f3 v=0
25539 On ch=1 n=a#5 v=41
25542 On ch=1 n=a6 v=79
25547 On ch=1 n=d#3 v=49
25549 On ch=1 n=f6 v=50
25551 On ch=1 n=d#4 v=50
25643 On ch=1 n=d6 v=0
25737 Par ch=1 c=64 v=0
25799 On ch=1 n=d#4 v=0
25843 Par ch=1 c=64 v=127
25871 On ch=1 n=d#3 v=0
25873 On ch=1 n=d4 v=63
25873 On ch=1 n=d3 v=61
25973 On ch=1 n=a6 v=0
25995 On ch=1 n=a#5 v=0
26005 On ch=1 n=d3 v=0
26053 On ch=1 n=d4 v=0
26271 On ch=1 n=g6 v=79
26283 On ch=1 n=a#5 v=31
26286 On ch=1 n=d#6 v=38
26303 On ch=1 n=f4 v=55
26325 On ch=1 n=f6 v=0
26335 On ch=1 n=f3 v=15
26365 Par ch=1 c=64 v=0
26597 Par ch=1 c=64 v=127
26605 On ch=1 n=d#6 v=0
26749 On ch=1 n=a#5 v=0
26859 On ch=1 n=f6 v=76
26871 On ch=1 n=a5 v=31
26873 On ch=1 n=d6 v=41
26905 Par ch=1 c=64 v=0
26913 On ch=1 n=g6 v=0
27001 On ch=1 n=f4 v=0
27073 Par ch=1 c=64 v=127
27079 On ch=1 n=d6 v=0
27179 On ch=1 n=a5 v=0
27197 On ch=1 n=f3 v=0
27419 On ch=1 n=d#6 v=66
27445 On ch=1 n=a#3 v=35
27447 On ch=1 n=c6 v=23
27461 On ch=1 n=g5 v=18
27467 On ch=1 n=a#2 v=17
27545 On ch=1 n=c6 v=0
27615 On ch=1 n=f6 v=0
27627 On ch=1 n=d#6 v=0
27631 On ch=1 n=g5 v=0
27771 On ch=1 n=d6 v=80
27791 On ch=1 n=f5 v=46
27841 On ch=1 n=f5 v=0
27841 On ch=1 n=a#2 v=0
27849 On ch=1 n=a#3 v=0
28003 On ch=1 n=d#5 v=51
28065 On ch=1 n=d#5 v=0
28099 On ch=1 n=g#5 v=41
28131 On ch=1 n=d6 v=0
28155 On ch=1 n=a#2 v=24
28175 On ch=1 n=a#3 v=10
28197 On ch=1 n=c6 v=43
28421 On ch=1 n=f6 v=53
28503 Par ch=1 c=64 v=0
28747 Par ch=1 c=64 v=127
28777 On ch=1 n=f6 v=0
28901 On ch=1 n=c6 v=0
29233 On ch=1 n=a#5 v=22
29287 Par ch=1 c=64 v=0
29299 On ch=1 n=d5 v=18
29517 On ch=1 n=a#2 v=0
29517 Par ch=1 c=64 v=127
29585 On ch=1 n=a#3 v=0
29593 On ch=1 n=g#5 v=0
29679 On ch=1 n=d5 v=0
30025 On ch=1 n=c6 v=43
30027 On ch=1 n=a#5 v=0
30049 On ch=1 n=g#4 v=16
30057 On ch=1 n=c5 v=26
30075 On ch=1 n=d#5 v=23
30081 On ch=1 n=a#3 v=17
30101 Par ch=1 c=64 v=0
30223 Par ch=1 c=64 v=127
30245 On ch=1 n=c5 v=0
30251 On ch=1 n=d#5 v=0
30269 On ch=1 n=g#4 v=0
30289 On ch=1 n=a#3 v=0
30393 On ch=1 n=a#5 v=52
30427 On ch=1 n=d5 v=18
30431 On ch=1 n=f5 v=24
30463 On ch=1 n=c6 v=0
30503 On ch=1 n=d#3 v=30
30515 Par ch=1 c=64 v=0
30637 On ch=1 n=d5 v=0
30655 On ch=1 n=a#3 v=28
30659 On ch=1 n=f5 v=0
30669 Par ch=1 c=64 v=127
30673 On ch=1 n=d#3 v=0
30729 On ch=1 n=a#5 v=0
30845 On ch=1 n=d#6 v=62
30861 On ch=1 n=d#5 v=43
30951 On ch=1 n=g4 v=34
31283 Par ch=1 c=64 v=0
31421 Par ch=1 c=64 v=127
31495 On ch=1 n=d6 v=61
31589 On ch=1 n=g4 v=0
31615 On ch=1 n=d#6 v=0
31651 On ch=1 n=d#5 v=0
31749 On ch=1 n=a#3 v=0
32039 On ch=1 n=d6 v=0
32049 On ch=1 n=c6 v=44
32052 On ch=1 n=d#6 v=31
32081 On ch=1 n=d#4 v=18
32084 On ch=1 n=d#5 v=14
32087 On ch=1 n=g4 v=20
32129 Par ch=1 c=64 v=0
32297 Par ch=1 c=64 v=127
32323 On ch=1 n=g4 v=0
32333 On ch=1 n=d#6 v=0
32351 On ch=1 n=d#5 v=0
32369 On ch=1 n=d#4 v=0
32685 On ch=1 n=a#5 v=33
32691 On ch=1 n=d#6 v=31
32705 On ch=1 n=d#5 v=16
32743 On ch=1 n=g4 v=23
32755 On ch=1 n=d#4 v=17
32841 On ch=1 n=c6 v=0
32851 Par ch=1 c=64 v=0
33127 Par ch=1 c=64 v=127
33299 On ch=1 n=d#6 v=0
33351 On ch=1 n=g4 v=0
33511 On ch=1 n=d#5 v=0
33575 On ch=1 n=d#4 v=0
33937 On ch=1 n=g#5 v=30
33953 On ch=1 n=d#6 v=17
33955 On ch=1 n=d#5 v=21
33971 On ch=1 n=d#3 v=19
33991 On ch=1 n=a#5 v=0
34127 On ch=1 n=d#3 v=0
34193 On ch=1 n=d#5 v=0
34197 On ch=1 n=g#5 v=0
34257 On ch=1 n=g5 v=41
34347 On ch=1 n=d#6 v=0
34513 On ch=1 n=d#4 v=16
34571 Par ch=1 c=64 v=0
34579 On ch=1 n=g4 v=25
34595 On ch=1 n=f5 v=36
34603 On ch=1 n=d#6 v=28
34613 On ch=1 n=g5 v=0
34771 Par ch=1 c=64 v=127
34883 On ch=1 n=f5 v=0
35171 On ch=1 n=d#5 v=37
35293 Par ch=1 c=64 v=0
35399 On ch=1 n=d#6 v=0
35399 On ch=1 n=g4 v=0
35402 Par ch=1 c=64 v=127
35433 On ch=1 n=d#4 v=0
35733 On ch=1 n=d#6 v=32
35765 On ch=1 n=g4 v=19
35768 On ch=1 n=g5 v=19
35785 On ch=1 n=d#4 v=14
35801 Par ch=1 c=64 v=0
35811 On ch=1 n=d#5 v=0
35969 Par ch=1 c=64 v=127
35997 On ch=1 n=g4 v=0
36067 On ch=1 n=d#4 v=0
36070 On ch=1 n=d#6 v=0
36411 On ch=1 n=d#6 v=27
36414 On ch=1 n=d#5 v=21
36417 On ch=1 n=a#5 v=18
36447 On ch=1 n=g4 v=16
36457 On ch=1 n=d#4 v=10
36507 Par ch=1 c=64 v=0
36515 On ch=1 n=g5 v=0
36723 Par ch=1 c=64 v=127
36991 On ch=1 n=g4 v=0
37033 On ch=1 n=d#5 v=0
37099 On ch=1 n=d#4 v=0
37159 On ch=1 n=d#6 v=0
37637 On ch=1 n=d#6 v=31
37651 On ch=1 n=c6 v=33
37657 On ch=1 n=d#5 v=16
37679 On ch=1 n=c3 v=34
37705 Par ch=1 c=64 v=0
37715 On ch=1 n=a#5 v=0
37859 Par ch=1 c=64 v=127
37925 On ch=1 n=c3 v=0
37935 On ch=1 n=d#5 v=0
37951 On ch=1 n=d6 v=73
38009 On ch=1 n=d#6 v=0
38033 On ch=1 n=c6 v=0
38355 On ch=1 n=d#6 v=62
38387 On ch=1 n=d#5 v=32
38389 On ch=1 n=g4 v=30
38403 On ch=1 n=c4 v=16
38469 On ch=1 n=d6 v=0
38659 Par ch=1 c=64 v=0
38781 Par ch=1 c=64 v=127
39035 On ch=1 n=d6 v=59
39141 On ch=1 n=g4 v=0
39151 On ch=1 n=d#5 v=0
39153 On ch=1 n=d#6 v=0
39217 On ch=1 n=c4 v=0
39611 On ch=1 n=c6 v=48
39617 On ch=1 n=d#6 v=41
39629 On ch=1 n=d#5 v=25
39639 On ch=1 n=g4 v=21
39642 On ch=1 n=c4 v=21
39673 On ch=1 n=d6 v=0
39719 Par ch=1 c=64 v=0
39857 Par ch=1 c=64 v=127
39867 On ch=1 n=g4 v=0
39907 On ch=1 n=d#6 v=0
39921 On ch=1 n=d#5 v=0
39927 On ch=1 n=c4 v=0
40213 On ch=1 n=a#5 v=38
40213 On ch=1 n=d#6 v=37
40221 On ch=1 n=d#5 v=31
40241 On ch=1 n=c4 v=11
40247 On ch=1 n=g4 v=22
40349 Par ch=1 c=64 v=0
40357 On ch=1 n=c6 v=0
40595 Par ch=1 c=64 v=127
40937 On ch=1 n=d#5 v=0
41045 On ch=1 n=d#6 v=0
41079 On ch=1 n=a#5 v=0
41107 On ch=1 n=g4 v=0
41289 On ch=1 n=c4 v=0
41361 On ch=1 n=a5 v=15
41375 On ch=1 n=d#6 v=26
41381 On ch=1 n=d#5 v=24
41397 On ch=1 n=f3 v=27
41455 Par ch=1 c=64 v=0
41609 Par ch=1 c=64 v=127
41647 On ch=1 n=f3 v=0
41691 On ch=1 n=g5 v=45
41735 On ch=1 n=d#6 v=0
41743 On ch=1 n=a5 v=0
41781 On ch=1 n=d#5 v=0
41865 On ch=1 n=g5 v=0
42023 On ch=1 n=a5 v=44
42033 On ch=1 n=d#6 v=39
42045 On ch=1 n=f5 v=27
42059 On ch=1 n=c5 v=24
42093 On ch=1 n=f4 v=33
42285 Par ch=1 c=64 v=0
42453 Par ch=1 c=64 v=127
42605 On ch=1 n=a#5 v=49
42713 On ch=1 n=a5 v=0
42795 On ch=1 n=d#6 v=0
42817 On ch=1 n=f5 v=0
42869 On ch=1 n=c5 v=0
42885 On ch=1 n=f4 v=0
43179 On ch=1 n=c6 v=55
43179 On ch=1 n=d#6 v=52
43209 On ch=1 n=f5 v=17
43212 On ch=1 n=a4 v=26
43222 On ch=1 n=f4 v=36
43258 On ch=1 n=a#5 v=0
43296 Par ch=1 c=64 v=0
43450 Par ch=1 c=64 v=127
43509 On ch=1 n=a4 v=0
43528 On ch=1 n=c6 v=0
43556 On ch=1 n=d#6 v=0
43562 On ch=1 n=f4 v=0
43584 On ch=1 n=f5 v=0
43816 On ch=1 n=d#6 v=55
43826 On ch=1 n=a#5 v=33
43836 On ch=1 n=f6 v=52
43836 On ch=1 n=a#4 v=21
43838 On ch=1 n=f5 v=24
43844 On ch=1 n=a#3 v=23
44034 Par ch=1 c=64 v=0
44248 Par ch=1 c=64 v=127
44294 On ch=1 n=f5 v=0
44302 On ch=1 n=a#5 v=0
44326 On ch=1 n=a#3 v=0
44416 On ch=1 n=a#4 v=0
44418 On ch=1 n=d#6 v=0
44764 On ch=1 n=d6 v=52
44780 On ch=1 n=f6 v=0
44960 On ch=1 n=a#4 v=11
45040 On ch=1 n=d5 v=12
45078 Par ch=1 c=64 v=0
45090 On ch=1 n=g#5 v=21
45106 On ch=1 n=a#6 v=57
45132 On ch=1 n=c6 v=34
45166 On ch=1 n=d6 v=0
45248 Par ch=1 c=64 v=127
45268 On ch=1 n=d5 v=0
45278 On ch=1 n=g#5 v=0
45284 On ch=1 n=c6 v=0
45316 On ch=1 n=a#4 v=0
45424 On ch=1 n=a#5 v=53
45538 Par ch=1 c=64 v=0
45556 On ch=1 n=d#4 v=24
45628 On ch=1 n=a#5 v=0
45650 On ch=1 n=a#4 v=21
45662 Par ch=1 c=64 v=127
45700 On ch=1 n=d#4 v=0
45772 On ch=1 n=a#4 v=0
45868 On ch=1 n=d#7 v=78
45908 On ch=1 n=a#6 v=0
45908 On ch=1 n=d#6 v=19
45924 On ch=1 n=g5 v=45
45986 On ch=1 n=d#6 v=0
46058 On ch=1 n=g5 v=0
46476 On ch=1 n=d7 v=78
46538 On ch=1 n=d#7 v=0
46838 On ch=1 n=d#4 v=20
46934 On ch=1 n=a#4 v=19
46972 On ch=1 n=d#4 v=0
47012 On ch=1 n=a#4 v=0
47054 On ch=1 n=d#7 v=70
47062 On ch=1 n=d#6 v=43
47066 On ch=1 n=d7 v=0
47070 On ch=1 n=c7 v=60
47104 On ch=1 n=g5 v=36
47318 On ch=1 n=g5 v=0
47514 On ch=1 n=d#6 v=0
47536 On ch=1 n=d#7 v=0
47590 On ch=1 n=c7 v=0
47614 On ch=1 n=a#6 v=55
47636 On ch=1 n=d6 v=49
47720 On ch=1 n=d6 v=0
47752 On ch=1 n=a#6 v=0
48170 On ch=1 n=g#6 v=62
48194 On ch=1 n=d#6 v=30
48210 On ch=1 n=c6 v=24
48210 On ch=1 n=a#4 v=16
48268 On ch=1 n=d#4 v=10
48350 Par ch=1 c=64 v=0
48490 Par ch=1 c=64 v=127
48512 On ch=1 n=c6 v=0
48734 On ch=1 n=g6 v=73
48744 On ch=1 n=a#5 v=27
48747 On ch=1 n=g#6 v=0
48798 On ch=1 n=a#4 v=0
48802 On ch=1 n=d#6 v=0
48826 On ch=1 n=d#4 v=0
48904 On ch=1 n=g6 v=0
48908 On ch=1 n=a#5 v=0
49286 On ch=1 n=a#4 v=10
49298 On ch=1 n=f6 v=55
49300 On ch=1 n=d#4 v=18
49320 On ch=1 n=g#5 v=12
49336 On ch=1 n=d#6 v=15
49396 Par ch=1 c=64 v=0
49564 Par ch=1 c=64 v=127
49612 On ch=1 n=d#6 v=0
49615 On ch=1 n=f6 v=0
49790 On ch=1 n=g#5 v=0
49892 On ch=1 n=d#6 v=41
49910 On ch=1 n=g5 v=18
50016 On ch=1 n=a#4 v=0
50046 On ch=1 n=d#4 v=0
50142 On ch=1 n=g5 v=0
50142 On ch=1 n=d#6 v=0
50208 On ch=1 n=f5 v=41
50478 On ch=1 n=f5 v=0
50484 On ch=1 n=d#5 v=34
50490 On ch=1 n=c6 v=41
50528 On ch=1 n=d#4 v=22
50542 On ch=1 n=g4 v=8
50594 Par ch=1 c=64 v=0
50762 Par ch=1 c=64 v=127
50784 On ch=1 n=g5 v=42
50840 Par ch=1 c=64 v=0
50936 On ch=1 n=d#5 v=0
50994 Par ch=1 c=64 v=127
51168 On ch=1 n=a#5 v=47
51192 On ch=1 n=c6 v=0
51224 On ch=1 n=g5 v=0
51362 Par ch=1 c=64 v=0
51500 Par ch=1 c=64 v=127
51510 On ch=1 n=g4 v=0
51540 On ch=1 n=d#4 v=0
51934 On ch=1 n=d#4 v=25
51950 On ch=1 n=g4 v=28
51952 On ch=1 n=a#5 v=0
51972 On ch=1 n=g3 v=25
52606 On ch=1 n=c6 v=54
52614 On ch=1 n=d#5 v=28
52712 On ch=1 n=d#5 v=0
52746 On ch=1 n=g4 v=0
52798 On ch=1 n=d#4 v=0
52900 On ch=1 n=d6 v=76
52942 On ch=1 n=c6 v=0
52978 On ch=1 n=g3 v=0
53230 On ch=1 n=d#6 v=70
53246 On ch=1 n=d#4 v=34
53246 On ch=1 n=a3 v=28
53246 On ch=1 n=g4 v=33
53249 On ch=1 n=d#5 v=43
53268 Par ch=1 c=64 v=0
53280 On ch=1 n=d6 v=0
53836 Par ch=1 c=64 v=127
54010 On ch=1 n=d6 v=76
54066 On ch=1 n=d#5 v=0
54182 On ch=1 n=g4 v=0
54192 On ch=1 n=d#6 v=0
54260 On ch=1 n=d#4 v=0
54602 On ch=1 n=a#3 v=26
54604 On ch=1 n=c6 v=56
54612 On ch=1 n=d#6 v=50
54615 On ch=1 n=d#5 v=35
54615 On ch=1 n=d#4 v=26
54630 On ch=1 n=g4 v=27
54650 Par ch=1 c=64 v=0
54662 On ch=1 n=a3 v=0
54666 On ch=1 n=d6 v=0
55004 Par ch=1 c=64 v=127
55264 Par ch=1 c=64 v=0
55320 On ch=1 n=a#5 v=42
55354 On ch=1 n=c6 v=0
55572 Par ch=1 c=64 v=127
55582 On ch=1 n=d#6 v=0
55610 On ch=1 n=d#5 v=0
55670 On ch=1 n=d#4 v=0
55976 On ch=1 n=d#6 v=40
55988 Par ch=1 c=64 v=0
56004 On ch=1 n=d#4 v=33
56006 On ch=1 n=d#5 v=31
56008 On ch=1 n=g4 v=0
56008 On ch=1 n=c4 v=22
56166 On ch=1 n=a#3 v=0
56370 Par ch=1 c=64 v=127
56690 On ch=1 n=g#5 v=41
56746 On ch=1 n=d#5 v=0
56822 On ch=1 n=a#5 v=0
57054 On ch=1 n=g5 v=41
57098 On ch=1 n=d#6 v=0
57146 On ch=1 n=g#5 v=0
57484 On ch=1 n=a#5 v=47
57504 On ch=1 n=d#6 v=40
57534 On ch=1 n=a#3 v=18
57539 On ch=1 n=g4 v=23
57546 On ch=1 n=g5 v=0
57554 Par ch=1 c=64 v=0
57608 On ch=1 n=c4 v=0
57694 On ch=1 n=d#4 v=0
57862 Par ch=1 c=64 v=127
58176 On ch=1 n=d#5 v=35
58242 On ch=1 n=a#5 v=0
58430 On ch=1 n=g4 v=0
58438 On ch=1 n=a#3 v=0
58750 On ch=1 n=d#6 v=0
58828 On ch=1 n=d#5 v=0
58840 On ch=1 n=g5 v=25
58980 On ch=1 n=g5 v=0
58986 On ch=1 n=g#4 v=23
59010 On ch=1 n=d6 v=38
59014 Par ch=1 c=64 v=0
59020 On ch=1 n=a#3 v=18
59028 On ch=1 n=f5 v=20
59306 Par ch=1 c=64 v=127
59428 On ch=1 n=f5 v=0
59496 On ch=1 n=g#4 v=0
59746 On ch=1 n=d#6 v=33
59772 On ch=1 n=g4 v=25
59778 On ch=1 n=d#5 v=22
59786 On ch=1 n=d#4 v=21
59830 On ch=1 n=d6 v=0
59844 Par ch=1 c=64 v=0
59970 On ch=1 n=a#3 v=0
60520 Par ch=1 c=64 v=127
60804 On ch=1 n=g4 v=0
60814 On ch=1 n=d#4 v=0
60936 On ch=1 n=d#5 v=0
61462 On ch=1 n=d#6 v=0
61488 Par ch=1 c=64 v=0
61498 On ch=1 n=e6 v=20
61506 On ch=1 n=e3 v=27
61518 On ch=1 n=e4 v=19
61526 On ch=1 n=e5 v=16
61620 On ch=1 n=e5 v=0
61626 On ch=1 n=e4 v=0
61656 Par ch=1 c=64 v=127
61772 On ch=1 n=e3 v=0
61816 On ch=1 n=f#6 v=62
61832 On ch=1 n=f#3 v=40
61838 On ch=1 n=e6 v=0
61856 On ch=1 n=f#4 v=38
61866 On ch=1 n=f#5 v=26
61986 On ch=1 n=f#5 v=0
62006 On ch=1 n=f#4 v=0
62030 On ch=1 n=f#3 v=0
62140 On ch=1 n=g#6 v=63
62146 On ch=1 n=g#5 v=29
62154 On ch=1 n=g#4 v=43
62156 On ch=1 n=g#3 v=50
62210 On ch=1 n=f#6 v=0
62210 Par ch=1 c=64 v=0
62470 Par ch=1 c=64 v=127
62536 On ch=1 n=g#4 v=0
62554 On ch=1 n=g#5 v=0
62636 On ch=1 n=g#6 v=0
62706 On ch=1 n=g#3 v=0
62720 On ch=1 n=f#5 v=21
62724 On ch=1 n=f#6 v=49
62728 On ch=1 n=f#4 v=33
62730 On ch=1 n=f#3 v=29
62778 Par ch=1 c=64 v=0
62994 Par ch=1 c=64 v=127
63068 On ch=1 n=f#4 v=0
63104 On ch=1 n=f#6 v=0
63124 On ch=1 n=f#5 v=0
63306 On ch=1 n=f#3 v=0
63330 On ch=1 n=e6 v=27
63358 On ch=1 n=e3 v=37
63364 On ch=1 n=e4 v=27
63366 On ch=1 n=e5 v=23
63378 Par ch=1 c=64 v=0
63622 Par ch=1 c=64 v=127
63646 On ch=1 n=e4 v=0
63652 On ch=1 n=e5 v=0
64018 On ch=1 n=d#6 v=30
64026 On ch=1 n=d#5 v=25
64040 On ch=1 n=e3 v=0
64042 On ch=1 n=d#3 v=30
64054 Par ch=1 c=64 v=0
64066 On ch=1 n=d#4 v=15
64134 On ch=1 n=e6 v=0
64546 Par ch=1 c=64 v=127
64872 On ch=1 n=d#4 v=0
64890 On ch=1 n=d#6 v=0
64982 On ch=1 n=d#5 v=0
65246 On ch=1 n=d#3 v=0
65458 On ch=1 n=d#5 v=31
65458 On ch=1 n=c#4 v=20
65464 On ch=1 n=d#4 v=25
65470 On ch=1 n=c#3 v=20
65480 On ch=1 n=c#5 v=26
65644 On ch=1 n=c#4 v=0
65780 On ch=1 n=d#5 v=0
65792 On ch=1 n=c#3 v=0
65792 On ch=1 n=b2 v=43
65800 On ch=1 n=b3 v=30
65902 On ch=1 n=d#4 v=0
65962 On ch=1 n=b3 v=0
66202 On ch=1 n=d#5 v=33
66216 On ch=1 n=a#3 v=19
66218 On ch=1 n=d#4 v=28
66218 On ch=1 n=b4 v=26
66234 On ch=1 n=b2 v=0
66240 On ch=1 n=a#2 v=30
66266 Par ch=1 c=64 v=0
66318 On ch=1 n=c#5 v=0
66696 Par ch=1 c=64 v=127
66736 On ch=1 n=a#3 v=0
66890 On ch=1 n=a#2 v=0
66904 On ch=1 n=g#3 v=40
66916 On ch=1 n=g#2 v=25
67050 Par ch=1 c=64 v=0
67204 Par ch=1 c=64 v=127
67214 On ch=1 n=d#5 v=0
67254 On ch=1 n=g#2 v=0
67262 On ch=1 n=g#3 v=0
67312 On ch=1 n=d#4 v=0
67542 Par ch=1 c=64 v=0
67545 On ch=1 n=g#4 v=25
67556 On ch=1 n=b3 v=23
67570 On ch=1 n=d#4 v=19
67570 On ch=1 n=b2 v=32
67573 On ch=1 n=d#5 v=33
67756 On ch=1 n=b4 v=0
67850 Par ch=1 c=64 v=127
67948 On ch=1 n=d#5 v=0
67980 On ch=1 n=d#4 v=0
68138 On ch=1 n=b3 v=0
68220 On ch=1 n=b2 v=0
68234 Par ch=1 c=64 v=0
68254 On ch=1 n=d#5 v=31
68257 On ch=1 n=d#4 v=24
68260 On ch=1 n=d#3 v=24
68328 On ch=1 n=g#4 v=0
68954 Par ch=1 c=64 v=127
69104 On ch=1 n=d#5 v=0
69154 On ch=1 n=d#3 v=0
69234 On ch=1 n=d#4 v=0
69744 On ch=1 n=e6 v=34
69760 On ch=1 n=c#5 v=22
69778 On ch=1 n=e5 v=12
69814 Par ch=1 c=64 v=0
69828 On ch=1 n=d#4 v=14
69908 On ch=1 n=e5 v=0
69924 Par ch=1 c=64 v=127
70110 On ch=1 n=f#6 v=53
70132 On ch=1 n=e6 v=0
70136 On ch=1 n=f#5 v=10
70148 On ch=1 n=d#4 v=0
70220 On ch=1 n=c#5 v=0
70246 On ch=1 n=f#5 v=0
70496 On ch=1 n=g#6 v=54
70514 On ch=1 n=g#5 v=25
70522 On ch=1 n=f#6 v=0
70525 On ch=1 n=b4 v=20
70532 On ch=1 n=d#4 v=23
70706 Par ch=1 c=64 v=0
70936 Par ch=1 c=64 v=127
71076 On ch=1 n=g#5 v=0
71198 On ch=1 n=g#6 v=0
71290 On ch=1 n=f#6 v=59
71292 On ch=1 n=f#5 v=31
71460 On ch=1 n=d#4 v=0
71700 On ch=1 n=f#6 v=0
71728 On ch=1 n=b4 v=0
71764 On ch=1 n=f#5 v=0
71966 On ch=1 n=e6 v=44
71969 On ch=1 n=g#4 v=24
71978 On ch=1 n=e5 v=35
72004 On ch=1 n=d#4 v=19
72150 Par ch=1 c=64 v=0
72336 Par ch=1 c=64 v=127
72412 On ch=1 n=e5 v=0
72546 On ch=1 n=d#4 v=0
72556 On ch=1 n=g#4 v=0
72786 On ch=1 n=d#6 v=37
72796 On ch=1 n=d#5 v=38
72816 On ch=1 n=d#4 v=18
72914 On ch=1 n=e6 v=0
73134 Par ch=1 c=64 v=0
73472 Par ch=1 c=64 v=127
73806 On ch=1 n=d#4 v=0
74192 On ch=1 n=d#5 v=0
74288 On ch=1 n=c#4 v=41
74300 On ch=1 n=e6 v=55
74310 On ch=1 n=c#3 v=28
74310 On ch=1 n=e5 v=52
74325 On ch=1 n=d#6 v=0
74463 On ch=1 n=e5 v=0
74689 On ch=1 n=f#6 v=81
74701 On ch=1 n=d#6 v=62
74701 On ch=1 n=f#5 v=46
74715 On ch=1 n=e6 v=0
74893 On ch=1 n=f#5 v=0
74925 On ch=1 n=c#4 v=0
75017 On ch=1 n=c#3 v=0
75067 On ch=1 n=d#6 v=0
75073 On ch=1 n=g#5 v=58
75076 On ch=1 n=g#6 v=79
75079 On ch=1 n=e6 v=63
75085 On ch=1 n=a#3 v=39
75111 On ch=1 n=a#2 v=36
75157 On ch=1 n=f#6 v=0
75237 Par ch=1 c=64 v=0
75513 Par ch=1 c=64 v=127
75767 On ch=1 n=g#5 v=0
75897 On ch=1 n=g#6 v=0
75897 On ch=1 n=f#5 v=56
75905 On ch=1 n=f#6 v=71
75907 On ch=1 n=d#6 v=51
75971 On ch=1 n=e6 v=0
76127 Par ch=1 c=64 v=0
76281 Par ch=1 c=64 v=127
76295 On ch=1 n=d#6 v=0
76349 On ch=1 n=f#6 v=0
76371 On ch=1 n=a#3 v=0
76417 On ch=1 n=f#5 v=0
76595 On ch=1 n=a#2 v=0
76615 On ch=1 n=c#6 v=44
76615 On ch=1 n=e6 v=52
76619 On ch=1 n=g2 v=34
76619 On ch=1 n=e5 v=53
76619 On ch=1 n=g3 v=30
76727 Par ch=1 c=64 v=0
76927 Par ch=1 c=64 v=127
77049 On ch=1 n=e6 v=0
77185 On ch=1 n=e5 v=0
77439 On ch=1 n=d#6 v=46
77439 On ch=1 n=b5 v=50
77449 On ch=1 n=d#5 v=28
77483 On ch=1 n=c#6 v=0
77557 Par ch=1 c=64 v=0
77817 Par ch=1 c=64 v=127
77953 On ch=1 n=g3 v=0
78037 On ch=1 n=d#5 v=0
78049 On ch=1 n=b5 v=0
78239 On ch=1 n=g2 v=0
78399 On ch=1 n=d#6 v=0
78413 On ch=1 n=c#6 v=28
78427 On ch=1 n=g#2 v=10
78427 On ch=1 n=c#5 v=27
78427 On ch=1 n=g#3 v=26
78449 On ch=1 n=a#5 v=17
78509 Par ch=1 c=64 v=0
79123 Par ch=1 c=64 v=127
79203 On ch=1 n=a#5 v=0
79215 On ch=1 n=c#5 v=0
79267 On ch=1 n=c#6 v=0
79845 On ch=1 n=g#5 v=12
79855 On ch=1 n=b5 v=17
79885 On ch=1 n=b4 v=6
80107 Par ch=1 c=64 v=0
80429 Par ch=1 c=64 v=127
80649 On ch=1 n=g#3 v=0
80783 On ch=1 n=b4 v=0
80865 On ch=1 n=g#2 v=0
81053 On ch=1 n=b5 v=0
81315 On ch=1 n=g#5 v=0
81845 On ch=1 n=a#2 v=14
81981 Par ch=1 c=64 v=0
82227 Par ch=1 c=64 v=127
82273 On ch=1 n=a#3 v=20
82287 On ch=1 n=a#2 v=0
82453 On ch=1 n=a#3 v=0
82675 On ch=1 n=a#5 v=28
82693 On ch=1 n=d#4 v=22
82699 On ch=1 n=f#5 v=20
82855 On ch=1 n=d#4 v=0
83045 On ch=1 n=f#4 v=21
83155 On ch=1 n=f#4 v=0
83349 On ch=1 n=a#4 v=30
83645 On ch=1 n=a#4 v=0
83645 On ch=1 n=a#5 v=0
83921 On ch=1 n=g#5 v=28
83923 On ch=1 n=a#2 v=22
83927 On ch=1 n=b5 v=47
83935 On ch=1 n=f#5 v=0
84055 Par ch=1 c=64 v=0
84219 On ch=1 n=a#2 v=0
84222 On ch=1 n=a#3 v=28
84241 Par ch=1 c=64 v=127
84303 On ch=1 n=a#3 v=0
84659 On ch=1 n=b4 v=32
84717 On ch=1 n=b5 v=0
84825 On ch=1 n=g#5 v=0
84975 On ch=1 n=g#4 v=16
85041 On ch=1 n=b4 v=0
85101 On ch=1 n=g#4 v=0
85283 On ch=1 n=g#5 v=35
85319 On ch=1 n=f5 v=23
85539 On ch=1 n=f5 v=0
85803 On ch=1 n=a#2 v=20
85925 On ch=1 n=g#4 v=26
85991 Par ch=1 c=64 v=0
86177 Par ch=1 c=64 v=127
86180 On ch=1 n=g#4 v=0
86217 On ch=1 n=a#2 v=0
86275 On ch=1 n=a#3 v=10
86317 On ch=1 n=g#5 v=0
86499 On ch=1 n=a#3 v=0
86619 On ch=1 n=d4 v=29
86633 On ch=1 n=g#6 v=65
86657 On ch=1 n=f6 v=31
86709 On ch=1 n=d4 v=0
86929 On ch=1 n=f4 v=54
87023 On ch=1 n=f4 v=0
87197 On ch=1 n=f6 v=0
87202 On ch=1 n=g#5 v=70
87527 On ch=1 n=g#5 v=0
87569 On ch=1 n=g#6 v=0
87753 On ch=1 n=a#2 v=32
87777 On ch=1 n=a#6 v=65
87791 On ch=1 n=f#6 v=48
87913 Par ch=1 c=64 v=0
88051 On ch=1 n=a#3 v=35
88054 On ch=1 n=a#2 v=0
88111 Par ch=1 c=64 v=127
88183 On ch=1 n=a#3 v=0
88385 On ch=1 n=a#5 v=27
88387 On ch=1 n=d#4 v=15
88551 On ch=1 n=d#4 v=0
88565 On ch=1 n=a#6 v=0
88571 On ch=1 n=f#6 v=0
88699 On ch=1 n=f#4 v=32
88823 On ch=1 n=f#4 v=0
89133 On ch=1 n=a#5 v=0
89135 On ch=1 n=f#6 v=35
89159 On ch=1 n=d#6 v=26
89399 On ch=1 n=d#6 v=0
89651 On ch=1 n=a#2 v=27
89727 On ch=1 n=f#5 v=28
89729 On ch=1 n=f#6 v=0
89757 Par ch=1 c=64 v=0
89895 Par ch=1 c=64 v=127
89953 On ch=1 n=a#2 v=0
89979 On ch=1 n=f#5 v=0
89989 On ch=1 n=a#3 v=25
90219 On ch=1 n=a#3 v=0
90385 On ch=1 n=b3 v=18
90409 On ch=1 n=f#5 v=50
90467 On ch=1 n=d#5 v=26
90607 On ch=1 n=b3 v=0
90743 On ch=1 n=d#4 v=39
90849 On ch=1 n=d#4 v=0
91027 On ch=1 n=f#4 v=61
91253 On ch=1 n=d#5 v=0
91343 On ch=1 n=f#5 v=0
91385 On ch=1 n=f#4 v=0
91615 On ch=1 n=g#2 v=29
91627 On ch=1 n=f5 v=57
91637 On ch=1 n=d#5 v=40
91639 On ch=1 n=b4 v=47
91739 Par ch=1 c=64 v=0
91895 On ch=1 n=g#2 v=0
91895 On ch=1 n=g#3 v=48
91939 Par ch=1 c=64 v=127
92045 On ch=1 n=g#3 v=0
92165 On ch=1 n=b3 v=33
92191 On ch=1 n=f4 v=55
92317 On ch=1 n=b4 v=0
92353 On ch=1 n=d#5 v=0
92373 On ch=1 n=f4 v=0
92415 On ch=1 n=f5 v=0
92447 On ch=1 n=b3 v=0
92477 On ch=1 n=d#4 v=22
92551 On ch=1 n=d#4 v=0
92777 On ch=1 n=d#5 v=41
92787 On ch=1 n=f5 v=45
92813 On ch=1 n=b4 v=32
92985 On ch=1 n=b4 v=0
93167 On ch=1 n=d#5 v=0
93345 On ch=1 n=f5 v=0
93363 On ch=1 n=g#2 v=38
93643 Par ch=1 c=64 v=0
93691 On ch=1 n=g#3 v=39
93827 On ch=1 n=g#2 v=0
93827 Par ch=1 c=64 v=127
94043 On ch=1 n=g#3 v=0
94063 On ch=1 n=a#3 v=23
94085 On ch=1 n=f6 v=69
94091 On ch=1 n=a#5 v=35
94097 On ch=1 n=c#6 v=36
94369 On ch=1 n=a#3 v=0
94379 On ch=1 n=c#4 v=41
94507 On ch=1 n=c#4 v=0
94659 On ch=1 n=f5 v=47
94733 On ch=1 n=c#6 v=0
94793 On ch=1 n=a#5 v=0
94857 On ch=1 n=f6 v=0
95199 On ch=1 n=f#2 v=60
95215 On ch=1 n=d#6 v=52
95221 On ch=1 n=a#5 v=38
95237 On ch=1 n=c#6 v=29
95267 On ch=1 n=f5 v=0
95303 Par ch=1 c=64 v=0
95507 On ch=1 n=f#3 v=44
95521 On ch=1 n=f#2 v=0
95533 Par ch=1 c=64 v=127
95687 On ch=1 n=f#3 v=0
95797 On ch=1 n=d#5 v=50
95805 On ch=1 n=a#3 v=36
95855 On ch=1 n=d#6 v=0
95881 On ch=1 n=c#6 v=0
95951 On ch=1 n=a#5 v=0
96043 On ch=1 n=a#3 v=0
96099 On ch=1 n=c#4 v=30
96203 On ch=1 n=c#4 v=0
96469 On ch=1 n=d#6 v=38
96475 On ch=1 n=c#6 v=29
96485 On ch=1 n=d#5 v=0
96485 On ch=1 n=a#5 v=26
97019 On ch=1 n=d#6 v=0
97059 On ch=1 n=f#2 v=41
97161 Par ch=1 c=64 v=0
97173 On ch=1 n=a#5 v=0
97225 On ch=1 n=c#6 v=0
97317 Par ch=1 c=64 v=127
97343 On ch=1 n=f#3 v=44
97377 On ch=1 n=f#2 v=0
97519 On ch=1 n=f#3 v=0
97609 On ch=1 n=a#3 v=38
97661 On ch=1 n=a#4 v=41
97669 On ch=1 n=e5 v=69
97669 On ch=1 n=c5 v=49
97753 On ch=1 n=a#3 v=0
97953 On ch=1 n=c4 v=37
98031 On ch=1 n=c4 v=0
98369 On ch=1 n=e4 v=68
98625 On ch=1 n=c5 v=0
98653 On ch=1 n=e4 v=0
98659 On ch=1 n=a#4 v=0
98673 On ch=1 n=e5 v=0
98913 On ch=1 n=f5 v=65
98919 On ch=1 n=a#4 v=47
98925 On ch=1 n=f2 v=38
98925 On ch=1 n=c5 v=56
99067 Par ch=1 c=64 v=0
99189 On ch=1 n=f2 v=0
99195 On ch=1 n=f3 v=58
99237 Par ch=1 c=64 v=127
99253 On ch=1 n=f3 v=0
99471 On ch=1 n=a#3 v=32
99521 On ch=1 n=f4 v=79
99608 On ch=1 n=a#3 v=0
99723 On ch=1 n=c5 v=0
99747 On ch=1 n=a#4 v=0
99813 On ch=1 n=c4 v=44
99921 On ch=1 n=c4 v=0
100039 On ch=1 n=f4 v=0
100347 On ch=1 n=c5 v=74
100359 On ch=1 n=a#4 v=34
100409 On ch=1 n=f5 v=0
100537 On ch=1 n=a#4 v=0
100583 On ch=1 n=c5 v=0
101335 On ch=1 n=d#6 v=53
101349 On ch=1 n=f6 v=58
101353 On ch=1 n=d#4 v=32
101361 On ch=1 n=a5 v=33
101361 On ch=1 n=f5 v=24
101364 On ch=1 n=f3 v=26
101375 On ch=1 n=f4 v=36
101381 On ch=1 n=a3 v=32
101403 Par ch=1 c=64 v=0
101695 Par ch=1 c=64 v=127
101959 On ch=1 n=c#6 v=67
101967 On ch=1 n=c#4 v=44
102129 On ch=1 n=d#6 v=0
102453 On ch=1 n=c#4 v=0
102569 On ch=1 n=c#6 v=0
102589 On ch=1 n=c6 v=71
102607 On ch=1 n=c4 v=51
102709 Par ch=1 c=64 v=0
102869 On ch=1 n=a3 v=0
102909 On ch=1 n=f4 v=0
102911 Par ch=1 c=64 v=127
102913 On ch=1 n=f3 v=0
102927 On ch=1 n=a5 v=0
102931 On ch=1 n=d#4 v=0
102963 On ch=1 n=f6 v=0
103017 On ch=1 n=f5 v=0
103019 On ch=1 n=c4 v=0
103047 On ch=1 n=c6 v=0
103369 On ch=1 n=a#3 v=26
103371 On ch=1 n=d#6 v=56
103375 On ch=1 n=f6 v=55
103381 On ch=1 n=a#5 v=38
103401 On ch=1 n=f3 v=44
103403 On ch=1 n=f5 v=25
103405 On ch=1 n=d#4 v=45
103419 On ch=1 n=f4 v=57
103601 Par ch=1 c=64 v=0
104291 Par ch=1 c=64 v=127
105089 On ch=1 n=c#6 v=30
105099 On ch=1 n=c#4 v=28
105107 Par ch=1 c=64 v=0
105141 On ch=1 n=d#4 v=0
105221 On ch=1 n=d#6 v=0
105415 On ch=1 n=f4 v=0
105417 Par ch=1 c=64 v=127
105457 On ch=1 n=f6 v=0
105493 On ch=1 n=a#3 v=0
105577 On ch=1 n=c#4 v=0
105631 On ch=1 n=f3 v=0
105759 On ch=1 n=f5 v=0
105877 On ch=1 n=a#5 v=0
105905 On ch=1 n=c#6 v=0
105973 On ch=1 n=f#2 v=42
106181 Par ch=1 c=64 v=0
106291 On ch=1 n=f#3 v=38
106373 On ch=1 n=f#2 v=0
106381 Par ch=1 c=64 v=127
106515 On ch=1 n=f#3 v=0
106567 On ch=1 n=a#3 v=33
106583 On ch=1 n=c5 v=54
106585 On ch=1 n=a#4 v=36
106585 On ch=1 n=e5 v=64
106863 On ch=1 n=c4 v=45
106917 On ch=1 n=a#3 v=0
107027 On ch=1 n=c4 v=0
107027 On ch=1 n=e5 v=0
107157 On ch=1 n=e4 v=72
107349 On ch=1 n=e4 v=0
107433 On ch=1 n=a#4 v=0
107731 On ch=1 n=c2 v=76
107759 On ch=1 n=f#5 v=64
107771 On ch=1 n=a#4 v=37
107779 On ch=1 n=d#5 v=61
107887 Par ch=1 c=64 v=0
107911 On ch=1 n=c5 v=0
108053 On ch=1 n=c2 v=0
108071 On ch=1 n=c3 v=64
108117 Par ch=1 c=64 v=127
108189 On ch=1 n=c3 v=0
108419 On ch=1 n=d#3 v=48
108427 On ch=1 n=f#4 v=57
108467 On ch=1 n=d#5 v=0
108483 On ch=1 n=f#5 v=0
108543 On ch=1 n=a#4 v=0
108653 On ch=1 n=f#4 v=0
108681 On ch=1 n=d#3 v=0
108715 On ch=1 n=a#3 v=45
108795 On ch=1 n=a#3 v=0
109031 On ch=1 n=c5 v=59
109035 On ch=1 n=f#4 v=67
109047 On ch=1 n=d#4 v=37
109103 On ch=1 n=d#4 v=0
109161 On ch=1 n=f#4 v=0
109185 On ch=1 n=c5 v=0
109731 On ch=1 n=d#6 v=52
109745 On ch=1 n=f6 v=66
109747 On ch=1 n=a5 v=37
109753 On ch=1 n=d#4 v=37
109755 On ch=1 n=f5 v=27
109777 On ch=1 n=f4 v=48
109783 On ch=1 n=f3 v=30
109793 On ch=1 n=a3 v=33
109855 Par ch=1 c=64 v=0
110315 Par ch=1 c=64 v=127
110473 On ch=1 n=c#6 v=53
110507 On ch=1 n=c#4 v=49
110605 On ch=1 n=d#6 v=0
110811 On ch=1 n=c#4 v=0
111117 On ch=1 n=c6 v=62
111131 On ch=1 n=c#6 v=0
111145 On ch=1 n=c4 v=45
111175 Par ch=1 c=64 v=0
111323 On ch=1 n=a3 v=0
111351 On ch=1 n=f3 v=0
111365 On ch=1 n=f4 v=0
111373 On ch=1 n=f5 v=0
111381 On ch=1 n=f6 v=0
111389 Par ch=1 c=64 v=127
111419 On ch=1 n=a5 v=0
111445 On ch=1 n=c4 v=0
111459 On ch=1 n=c6 v=0
111509 On ch=1 n=d#4 v=0
111925 On ch=1 n=g#6 v=50
111927 On ch=1 n=g#4 v=29
111941 On ch=1 n=a#5 v=20
111951 On ch=1 n=g#5 v=26
111954 On ch=1 n=d6 v=39
111957 On ch=1 n=a#3 v=18
111959 On ch=1 n=g#3 v=32
111987 On ch=1 n=d4 v=34
111990 Par ch=1 c=64 v=0
112267 Par ch=1 c=64 v=127
112451 On ch=1 n=a#5 v=0
112461 On ch=1 n=g#3 v=0
112479 On ch=1 n=g#5 v=0
112521 On ch=1 n=g#6 v=0
112529 On ch=1 n=g#4 v=0
112781 On ch=1 n=f#6 v=38
112787 On ch=1 n=f#5 v=20
112811 On ch=1 n=f#4 v=21
112821 On ch=1 n=f#3 v=12
113083 On ch=1 n=d6 v=0
113155 On ch=1 n=f#3 v=0
113167 On ch=1 n=f#4 v=0
113215 On ch=1 n=f#6 v=0
113253 On ch=1 n=a#3 v=0
113287 On ch=1 n=d4 v=0
113299 On ch=1 n=f#5 v=0
113663 On ch=1 n=a#5 v=2
113801 On ch=1 n=f6 v=16
113833 On ch=1 n=f4 v=27
113833 On ch=1 n=f5 v=7
113843 On ch=1 n=d6 v=3
113847 On ch=1 n=f3 v=18
113849 Par ch=1 c=64 v=0
113945 On ch=1 n=d4 v=2
114073 On ch=1 n=f5 v=0
114079 Par ch=1 c=64 v=127
114099 On ch=1 n=d4 v=0
114099 On ch=1 n=d6 v=0
114111 On ch=1 n=f6 v=0
114119 On ch=1 n=a#5 v=0
114127 On ch=1 n=f4 v=0
114159 On ch=1 n=f3 v=0
115169 On ch=1 n=d#3 v=22
115247 Par ch=1 c=64 v=0
115641 On ch=1 n=a#3 v=24
115663 Par ch=1 c=64 v=127
115819 On ch=1 n=d#3 v=0
115877 On ch=1 n=a#3 v=0
115977 On ch=1 n=d#4 v=27
115979 On ch=1 n=a#5 v=43
116007 On ch=1 n=f#5 v=15
116153 On ch=1 n=d#4 v=0
116231 On ch=1 n=f#4 v=26
116419 On ch=1 n=f#4 v=0
116517 On ch=1 n=a#4 v=31
116719 On ch=1 n=a#4 v=0
116783 On ch=1 n=a#5 v=0
116967 On ch=1 n=g#2 v=31
117029 On ch=1 n=b5 v=53
117045 On ch=1 n=g#5 v=27
117075 Par ch=1 c=64 v=0
117157 On ch=1 n=f#5 v=0
117255 On ch=1 n=g#2 v=0
117275 On ch=1 n=g#3 v=43
117307 Par ch=1 c=64 v=127
117387 On ch=1 n=g#3 v=0
117529 On ch=1 n=b3 v=34
117559 On ch=1 n=b4 v=33
117649 On ch=1 n=b5 v=0
117675 On ch=1 n=b3 v=0
117697 On ch=1 n=g#5 v=0
117827 On ch=1 n=e4 v=51
117893 On ch=1 n=e4 v=0
118181 On ch=1 n=g#5 v=47
118189 On ch=1 n=b4 v=0
118197 On ch=1 n=e5 v=43
118633 On ch=1 n=a#2 v=49
118703 Par ch=1 c=64 v=0
118729 On ch=1 n=g#4 v=52
118869 On ch=1 n=e5 v=0
118872 Par ch=1 c=64 v=127
118887 On ch=1 n=g#4 v=0
118957 On ch=1 n=g#5 v=0
118969 On ch=1 n=a#2 v=0
118997 On ch=1 n=a#3 v=45
119077 On ch=1 n=a#3 v=0
119211 On ch=1 n=c#4 v=53
119263 On ch=1 n=g#6 v=81
119283 On ch=1 n=a#5 v=43
119301 On ch=1 n=e6 v=38
119311 On ch=1 n=c#6 v=21
119337 On ch=1 n=c#4 v=0
119417 On ch=1 n=c#6 v=0
119501 On ch=1 n=e4 v=54
119515 On ch=1 n=a#5 v=0
119555 On ch=1 n=e4 v=0
119749 On ch=1 n=g#5 v=61
119803 On ch=1 n=e6 v=0
119955 On ch=1 n=g#5 v=0
120015 On ch=1 n=g#6 v=0
120217 On ch=1 n=d#3 v=52
120219 On ch=1 n=a#6 v=73
120239 On ch=1 n=g6 v=45
120243 On ch=1 n=c#6 v=41
120347 Par ch=1 c=64 v=0
120487 On ch=1 n=a#3 v=38
120531 On ch=1 n=d#3 v=0
120549 Par ch=1 c=64 v=127
120655 On ch=1 n=a#6 v=0
120657 On ch=1 n=g6 v=0
120741 On ch=1 n=a#3 v=0
120775 On ch=1 n=d#4 v=40
120811 On ch=1 n=a#5 v=36
120901 On ch=1 n=c#6 v=0
120973 On ch=1 n=a#5 v=0
120973 On ch=1 n=d#4 v=0
121093 On ch=1 n=g4 v=36
121189 On ch=1 n=g4 v=0
121471 On ch=1 n=c#6 v=36
121491 On ch=1 n=c#5 v=25
121499 On ch=1 n=a#5 v=21
121983 On ch=1 n=a#5 v=0
121999 On ch=1 n=g#2 v=41
122075 On ch=1 n=c#6 v=0
122177 On ch=1 n=c#5 v=0
122285 Par ch=1 c=64 v=0
122297 On ch=1 n=d#3 v=43
122453 Par ch=1 c=64 v=127
122469 On ch=1 n=d#3 v=0
122543 On ch=1 n=g#2 v=0
122575 On ch=1 n=f#5 v=51
122589 On ch=1 n=g#3 v=48
122591 On ch=1 n=c5 v=39
122603 On ch=1 n=d#5 v=39
122757 On ch=1 n=g#3 v=0
122865 On ch=1 n=c4 v=36
122995 On ch=1 n=c4 v=0
123023 On ch=1 n=f#5 v=0
123091 On ch=1 n=d#5 v=0
123109 On ch=1 n=f#4 v=64
123113 On ch=1 n=c5 v=0
123585 On ch=1 n=g#2 v=52
123607 On ch=1 n=f#5 v=59
123619 On ch=1 n=b4 v=58
123629 On ch=1 n=f#4 v=0
123639 On ch=1 n=d#5 v=43
123775 Par ch=1 c=64 v=0
123857 On ch=1 n=d#3 v=55
123959 Par ch=1 c=64 v=127
123971 On ch=1 n=g#2 v=0
124017 On ch=1 n=d#3 v=0
124057 On ch=1 n=d#5 v=0
124105 On ch=1 n=g#3 v=48
124108 On ch=1 n=f#4 v=57
124185 On ch=1 n=b4 v=0
124188 On ch=1 n=f#5 v=0
124235 On ch=1 n=g#3 v=0
124363 On ch=1 n=b3 v=53
124443 On ch=1 n=f#4 v=0
124446 On ch=1 n=b3 v=0
124661 On ch=1 n=e5 v=63
124665 On ch=1 n=d#5 v=43
124691 On ch=1 n=b4 v=39
125073 On ch=1 n=b4 v=0
125105 On ch=1 n=d#5 v=0
125135 On ch=1 n=a#2 v=69
125159 On ch=1 n=e5 v=0
125343 Par ch=1 c=64 v=0
125437 On ch=1 n=a#3 v=48
125551 Par ch=1 c=64 v=127
125557 On ch=1 n=a#2 v=0
125687 On ch=1 n=a#3 v=0
125749 On ch=1 n=g#6 v=82
125761 On ch=1 n=c#4 v=38
125763 On ch=1 n=a#5 v=49
125787 On ch=1 n=c#6 v=33
125875 On ch=1 n=c#6 v=0
125991 On ch=1 n=c#4 v=0
126019 On ch=1 n=a#5 v=0
126043 On ch=1 n=e4 v=73
126105 On ch=1 n=e4 v=0
126325 On ch=1 n=g#5 v=65
126383 On ch=1 n=g#6 v=0
126727 On ch=1 n=g#5 v=0
126805 On ch=1 n=e6 v=78
126815 On ch=1 n=g2 v=66
126823 On ch=1 n=a#5 v=58
126829 On ch=1 n=c#6 v=48
126893 Par ch=1 c=64 v=0
127083 On ch=1 n=g2 v=0
127107 On ch=1 n=g3 v=51
127125 Par ch=1 c=64 v=127
127199 On ch=1 n=g3 v=0
127439 On ch=1 n=a#3 v=41
127467 On ch=1 n=e5 v=54
127629 On ch=1 n=c#6 v=0
127635 On ch=1 n=a#5 v=0
127679 On ch=1 n=e6 v=0
127713 On ch=1 n=a#3 v=0
127773 On ch=1 n=d#4 v=33
127847 On ch=1 n=d#4 v=0
127891 On ch=1 n=e5 v=0
128065 On ch=1 n=d#6 v=58
128089 On ch=1 n=a#5 v=36
128099 On ch=1 n=c#6 v=28
128441 On ch=1 n=c#6 v=0
128463 On ch=1 n=a#5 v=0
128521 On ch=1 n=d#6 v=0
128585 On ch=1 n=g#2 v=42
128815 Par ch=1 c=64 v=0
128923 On ch=1 n=d#3 v=41
129029 Par ch=1 c=64 v=127
129097 On ch=1 n=d#3 v=0
129151 On ch=1 n=g#2 v=0
129193 On ch=1 n=g#3 v=40
129325 On ch=1 n=d5 v=60
129347 On ch=1 n=b4 v=40
129383 On ch=1 n=g#3 v=0
129581 On ch=1 n=b3 v=34
129705 On ch=1 n=b3 v=0
129921 On ch=1 n=f4 v=70
130241 On ch=1 n=d5 v=0
130355 On ch=1 n=b4 v=0
130419 On ch=1 n=f4 v=0
130433 On ch=1 n=a#4 v=41
130433 On ch=1 n=d#5 v=65
130436 On ch=1 n=f#2 v=40
130551 Par ch=1 c=64 v=0
130713 On ch=1 n=d#3 v=45
130797 Par ch=1 c=64 v=127
130815 On ch=1 n=f#2 v=0
130965 On ch=1 n=d#3 v=0
131005 On ch=1 n=f#3 v=32
131027 On ch=1 n=d#4 v=39
131131 On ch=1 n=a#4 v=0
131161 On ch=1 n=f#3 v=0
131327 On ch=1 n=a#3 v=34
131365 On ch=1 n=d#4 v=0
131431 On ch=1 n=a#3 v=0
131775 On ch=1 n=a#4 v=35
131789 On ch=1 n=f#4 v=41
131792 On ch=1 n=d#5 v=0
131873 On ch=1 n=f#4 v=0
132007 On ch=1 n=a#4 v=0
132619 On ch=1 n=a#5 v=47
132637 On ch=1 n=a#4 v=29
132639 On ch=1 n=g#4 v=30
132641 On ch=1 n=g#5 v=47
132653 On ch=1 n=d5 v=39
132657 On ch=1 n=a#3 v=20
132663 On ch=1 n=d4 v=31
132841 Par ch=1 c=64 v=0
133071 Par ch=1 c=64 v=127
133251 On ch=1 n=f#5 v=50
133253 On ch=1 n=f#4 v=43
133513 On ch=1 n=d5 v=0
133727 On ch=1 n=f#4 v=0
133941 On ch=1 n=f5 v=36
133957 On ch=1 n=f4 v=61
134009 Par ch=1 c=64 v=0
134051 On ch=1 n=g#5 v=0
134085 On ch=1 n=f#5 v=0
134223 Par ch=1 c=64 v=127
134229 On ch=1 n=g#4 v=0
134237 On ch=1 n=d4 v=0
134297 On ch=1 n=a#3 v=0
134297 On ch=1 n=a#4 v=0
134305 On ch=1 n=f4 v=0
134329 On ch=1 n=a#5 v=0
134337 On ch=1 n=f5 v=0
134719 On ch=1 n=g#5 v=47
134727 On ch=1 n=a#5 v=36
134733 On ch=1 n=a#4 v=23
134737 On ch=1 n=d#5 v=44
134753 On ch=1 n=g#4 v=27
134763 On ch=1 n=a#3 v=26
134763 On ch=1 n=d#4 v=27
134991 Par ch=1 c=64 v=0
135545 Par ch=1 c=64 v=127
136387 On ch=1 n=f#5 v=20
136399 On ch=1 n=g#4 v=0
136427 On ch=1 n=f#4 v=25
136435 Par ch=1 c=64 v=0
136521 On ch=1 n=g#5 v=0
136759 Par ch=1 c=64 v=127
136807 On ch=1 n=f#4 v=0
136863 On ch=1 n=d#4 v=0
136909 On ch=1 n=a#3 v=0
136939 On ch=1 n=a#4 v=0
137035 On ch=1 n=d#5 v=0
137165 On ch=1 n=a#5 v=0
137289 On ch=1 n=f#5 v=0
137375 On ch=1 n=g#2 v=26
137465 Par ch=1 c=64 v=0
137681 Par ch=1 c=64 v=127
137703 On ch=1 n=g#2 v=0
137705 On ch=1 n=g#3 v=38
137905 On ch=1 n=g#3 v=0
138023 On ch=1 n=e6 v=60
138023 On ch=1 n=g#5 v=32
138037 On ch=1 n=b5 v=17
138051 On ch=1 n=b3 v=20
138213 On ch=1 n=b3 v=0
138373 On ch=1 n=e4 v=30
138443 On ch=1 n=e4 v=0
138557 On ch=1 n=b5 v=0
138573 On ch=1 n=e6 v=0
138621 On ch=1 n=e5 v=37
138665 On ch=1 n=g#5 v=0
138935 On ch=1 n=e5 v=0
139111 On ch=1 n=d#6 v=52
139121 On ch=1 n=f#5 v=24
139123 On ch=1 n=a#2 v=25
139129 On ch=1 n=a#5 v=16
139171 Par ch=1 c=64 v=0
139447 On ch=1 n=f#3 v=26
139463 Par ch=1 c=64 v=127
139515 On ch=1 n=a#2 v=0
139555 On ch=1 n=f#3 v=0
139749 On ch=1 n=a#3 v=20
139775 On ch=1 n=d#5 v=28
139797 On ch=1 n=f#5 v=0
139855 On ch=1 n=a#5 v=0
139913 On ch=1 n=a#3 v=0
139965 On ch=1 n=d#6 v=0
140103 On ch=1 n=d#4 v=16
140212 On ch=1 n=d#4 v=0
140257 On ch=1 n=d#5 v=0
140537 On ch=1 n=a#5 v=26
140567 On ch=1 n=f#5 v=10
140759 On ch=1 n=a#5 v=0
140767 On ch=1 n=f#5 v=0
141409 On ch=1 n=a#4 v=35
141425 On ch=1 n=g#4 v=36
141427 On ch=1 n=d4 v=36
141441 On ch=1 n=g#3 v=35
141449 On ch=1 n=a#3 v=15
142441 On ch=1 n=f#3 v=55
142485 On ch=1 n=g#3 v=0
142527 On ch=1 n=a#3 v=0
142647 On ch=1 n=d4 v=0
142654 On ch=1 n=g#4 v=0
142661 On ch=1 n=a#4 v=0
142925 On ch=1 n=a#4 v=48
142925 On ch=1 n=g#4 v=48
142937 On ch=1 n=a#3 v=32
142941 On ch=1 n=d4 v=41
143385 On ch=1 n=f3 v=57
143449 On ch=1 n=f#3 v=0
143657 Par ch=1 c=64 v=0
143855 Par ch=1 c=64 v=127
143867 On ch=1 n=d4 v=0
143985 On ch=1 n=g#4 v=0
143995 On ch=1 n=a#4 v=0
144021 On ch=1 n=a#3 v=0
144083 On ch=1 n=f3 v=0
144345 On ch=1 n=c#5 v=59
144351 On ch=1 n=c#4 v=37
144353 On ch=1 n=d#5 v=55
144369 On ch=1 n=g4 v=44
144375 On ch=1 n=d#3 v=31
144383 On ch=1 n=d#4 v=27
144917 Par ch=1 c=64 v=0
145209 Par ch=1 c=64 v=127
145577 Par ch=1 c=64 v=0
145591 On ch=1 n=b4 v=45
145596 On ch=1 n=c#4 v=0
145606 On ch=1 n=b3 v=25
145714 On ch=1 n=c#5 v=0
145850 Par ch=1 c=64 v=127
145882 On ch=1 n=d#5 v=0
145892 On ch=1 n=d#3 v=0
145934 On ch=1 n=d#4 v=0
145958 On ch=1 n=g4 v=0
146370 On ch=1 n=d#5 v=37
146372 Par ch=1 c=64 v=0
146378 On ch=1 n=d#3 v=20
146384 On ch=1 n=d#4 v=22
146398 On ch=1 n=g4 v=25
146618 Par ch=1 c=64 v=127
146786 On ch=1 n=b4 v=0
147338 On ch=1 n=a#4 v=20
147362 On ch=1 n=b3 v=0
147368 On ch=1 n=a#3 v=16
147434 Par ch=1 c=64 v=0
147802 Par ch=1 c=64 v=127
147860 On ch=1 n=g4 v=0
147942 On ch=1 n=d#4 v=0
147968 On ch=1 n=d#3 v=0
148094 On ch=1 n=a#3 v=0
148410 On ch=1 n=d#5 v=0
148744 On ch=1 n=a#4 v=0
148968 On ch=1 n=d#3 v=11
149150 On ch=1 n=a#3 v=14
149210 On ch=1 n=d#3 v=0
149524 On ch=1 n=d#6 v=27
149556 On ch=1 n=d#5 v=20
149586 On ch=1 n=g4 v=21
149596 On ch=1 n=g5 v=15
149698 On ch=1 n=g4 v=0
149720 On ch=1 n=a#3 v=0
149920 On ch=1 n=d#5 v=0
150000 On ch=1 n=d#6 v=0
150184 On ch=1 n=d6 v=47
150184 On ch=1 n=d5 v=34
150230 On ch=1 n=g5 v=0
150252 On ch=1 n=d5 v=0
150324 On ch=1 n=d6 v=0
150700 On ch=1 n=d#7 v=39
150710 On ch=1 n=d#6 v=26
150712 On ch=1 n=c6 v=37
150722 On ch=1 n=d#5 v=30
150728 On ch=1 n=c5 v=31
150748 On ch=1 n=g6 v=21
150768 Par ch=1 c=64 v=0
150952 Par ch=1 c=64 v=127
150964 On ch=1 n=c5 v=0
150980 On ch=1 n=g6 v=0
150980 On ch=1 n=d#6 v=0
150982 On ch=1 n=c6 v=0
150988 On ch=1 n=d#7 v=0
151012 On ch=1 n=d#5 v=0
151292 On ch=1 n=d#7 v=43
151298 On ch=1 n=a#5 v=24
151304 On ch=1 n=d#6 v=26
151316 On ch=1 n=a#4 v=17
151324 On ch=1 n=g6 v=31
151354 On ch=1 n=d#5 v=21
151414 Par ch=1 c=64 v=0
151628 Par ch=1 c=64 v=127
151682 On ch=1 n=d#7 v=0
151698 On ch=1 n=a#5 v=0
151752 On ch=1 n=d#5 v=0
151754 On ch=1 n=g6 v=0
151812 On ch=1 n=d#6 v=0
151814 On ch=1 n=a#4 v=0
152390 On ch=1 n=g#4 v=22
152402 On ch=1 n=g#5 v=25
152414 On ch=1 n=a#3 v=12
152417 On ch=1 n=d#3 v=17
152424 On ch=1 n=d#5 v=24
152542 On ch=1 n=g#4 v=0
152560 On ch=1 n=d#3 v=0
152588 On ch=1 n=a#3 v=0
152628 On ch=1 n=g#5 v=0
152682 On ch=1 n=g5 v=60
152685 On ch=1 n=g4 v=48
152746 On ch=1 n=d#5 v=0
152808 On ch=1 n=g4 v=0
152808 On ch=1 n=g5 v=0
152996 On ch=1 n=f5 v=57
153008 On ch=1 n=d#3 v=25
153010 On ch=1 n=g4 v=34
153012 On ch=1 n=f4 v=51
153020 On ch=1 n=a#3 v=21
153058 Par ch=1 c=64 v=0
153334 Par ch=1 c=64 v=127
153464 On ch=1 n=f4 v=0
153482 On ch=1 n=g4 v=0
153508 On ch=1 n=d#5 v=64
153534 On ch=1 n=f5 v=0
153534 Par ch=1 c=64 v=0
153537 On ch=1 n=d#4 v=41
153672 On ch=1 n=d#3 v=0
153692 On ch=1 n=a#3 v=0
153700 On ch=1 n=d#5 v=0
153702 Par ch=1 c=64 v=127
153728 On ch=1 n=d#4 v=0
154066 On ch=1 n=d#7 v=44
154074 On ch=1 n=d#6 v=30
154074 On ch=1 n=d#5 v=29
154080 On ch=1 n=g5 v=46
154094 On ch=1 n=g6 v=34
154120 On ch=1 n=g4 v=25
154224 Par ch=1 c=64 v=0
154340 On ch=1 n=g4 v=0
154348 On ch=1 n=d#5 v=0
154348 Par ch=1 c=64 v=127
154360 On ch=1 n=g6 v=0
154372 On ch=1 n=d#7 v=0
154374 On ch=1 n=d#6 v=0
154406 On ch=1 n=g5 v=0
154672 On ch=1 n=a#5 v=37
154694 On ch=1 n=d#6 v=26
154696 On ch=1 n=d#7 v=31
154700 On ch=1 n=a#4 v=25
154904 On ch=1 n=a#5 v=0
154920 On ch=1 n=d#6 v=0
154952 On ch=1 n=a#4 v=0
154996 On ch=1 n=d#7 v=0
155784 On ch=1 n=c6 v=58
155796 On ch=1 n=c5 v=34
155812 On ch=1 n=d#4 v=27
155828 On ch=1 n=g3 v=25
155914 On ch=1 n=c5 v=0
155956 On ch=1 n=c6 v=0
155982 On ch=1 n=g3 v=0
156032 On ch=1 n=d#4 v=0
156048 On ch=1 n=d6 v=93
156050 On ch=1 n=d5 v=65
156112 On ch=1 n=d5 v=0
156154 On ch=1 n=d6 v=0
156350 On ch=1 n=d#6 v=78
156355 On ch=1 n=d#5 v=68
156370 On ch=1 n=a#5 v=39
156386 On ch=1 n=d#4 v=29
156402 On ch=1 n=g3 v=19
156468 Par ch=1 c=64 v=0
156698 Par ch=1 c=64 v=127
156826 On ch=1 n=d#5 v=0
156860 On ch=1 n=d#6 v=0
156910 On ch=1 n=d6 v=80
156922 On ch=1 n=g3 v=0
156928 On ch=1 n=d5 v=52
156978 On ch=1 n=d5 v=0
156978 On ch=1 n=d#4 v=0
156992 On ch=1 n=a#5 v=0
157050 On ch=1 n=d6 v=0
157460 On ch=1 n=d#6 v=32
157474 On ch=1 n=d#7 v=40
157474 On ch=1 n=c6 v=59
157477 On ch=1 n=g6 v=44
157488 On ch=1 n=c5 v=32
157492 On ch=1 n=d#5 v=41
157544 Par ch=1 c=64 v=0
157728 Par ch=1 c=64 v=127
157776 On ch=1 n=c5 v=0
157812 On ch=1 n=g6 v=0
157824 On ch=1 n=c6 v=0
157824 On ch=1 n=d#7 v=0
157836 On ch=1 n=d#6 v=0
157840 On ch=1 n=d#5 v=0
158094 On ch=1 n=a#5 v=46
158110 On ch=1 n=d#6 v=34
158120 On ch=1 n=d#7 v=33
158134 On ch=1 n=a#4 v=24
158134 On ch=1 n=d#5 v=34
158154 On ch=1 n=g6 v=32
158174 Par ch=1 c=64 v=0
158388 Par ch=1 c=64 v=127
158468 On ch=1 n=d#7 v=0
158502 On ch=1 n=a#5 v=0
158522 On ch=1 n=g6 v=0
158570 On ch=1 n=d#5 v=0
158586 On ch=1 n=d#6 v=0
158638 On ch=1 n=a#4 v=0
159114 On ch=1 n=g#5 v=41
159130 On ch=1 n=g#4 v=29
159136 On ch=1 n=a#3 v=17
159180 On ch=1 n=a#2 v=10
159206 On ch=1 n=d#5 v=4
159264 On ch=1 n=a#2 v=0
159267 On ch=1 n=g#4 v=0
159316 On ch=1 n=a#3 v=0
159319 On ch=1 n=d#5 v=0
159386 On ch=1 n=g#5 v=0
159398 On ch=1 n=g5 v=49
159408 On ch=1 n=g4 v=46
159478 On ch=1 n=g4 v=0
159538 On ch=1 n=g5 v=0
159614 On ch=1 n=a#3 v=18
159680 On ch=1 n=d#4 v=24
159698 On ch=1 n=a#5 v=57
159724 On ch=1 n=a#4 v=25
159750 On ch=1 n=g4 v=28
159772 Par ch=1 c=64 v=0
160048 Par ch=1 c=64 v=127
160262 On ch=1 n=g4 v=0
160296 On ch=1 n=d#5 v=56
160302 On ch=1 n=a#5 v=0
160374 On ch=1 n=d#4 v=0
160452 On ch=1 n=a#3 v=0
160498 On ch=1 n=d#5 v=0
160612 On ch=1 n=a#4 v=0
160822 On ch=1 n=g5 v=32
160890 On ch=1 n=g5 v=0
160894 Par ch=1 c=64 v=0
160926 On ch=1 n=a#2 v=18
160928 On ch=1 n=g#4 v=25
160930 On ch=1 n=a#3 v=10
160932 On ch=1 n=d5 v=20
160944 On ch=1 n=f5 v=38
161192 On ch=1 n=a#3 v=0
161216 Par ch=1 c=64 v=127
161262 On ch=1 n=d5 v=0
161292 On ch=1 n=a#2 v=0
161364 On ch=1 n=g#4 v=0
161544 On ch=1 n=f5 v=0
161568 On ch=1 n=d#5 v=38
161588 On ch=1 n=a#3 v=12
161588 On ch=1 n=d#3 v=10
161630 Par ch=1 c=64 v=0
161635 On ch=1 n=g4 v=6
161968 Par ch=1 c=64 v=127
162082 On ch=1 n=g4 v=0
162240 On ch=1 n=d#3 v=0
162312 On ch=1 n=d#5 v=0
162654 On ch=1 n=g5 v=33
162762 On ch=1 n=a#3 v=0
162768 On ch=1 n=g5 v=0
162982 On ch=1 n=a#5 v=51
163014 On ch=1 n=d#3 v=21
163024 On ch=1 n=g5 v=24
163130 On ch=1 n=g5 v=0
163133 On ch=1 n=d#3 v=0
163184 On ch=1 n=a#5 v=0
163262 On ch=1 n=g6 v=85
163372 On ch=1 n=g6 v=0
163614 On ch=1 n=g#6 v=73
163628 On ch=1 n=g#5 v=39
163636 On ch=1 n=c5 v=23
163646 On ch=1 n=d#4 v=21
163666 On ch=1 n=f6 v=33
163704 Par ch=1 c=64 v=0
163982 Par ch=1 c=64 v=127
164220 On ch=1 n=g#5 v=0
164220 On ch=1 n=c6 v=54
164264 On ch=1 n=g#6 v=0
164272 On ch=1 n=f6 v=0
164334 On ch=1 n=d#4 v=0
164426 On ch=1 n=c5 v=0
164570 On ch=1 n=c6 v=0
164792 On ch=1 n=f6 v=55
164814 On ch=1 n=f5 v=17
164822 On ch=1 n=g#4 v=15
164830 On ch=1 n=d6 v=20
164848 On ch=1 n=d#4 v=16
164858 Par ch=1 c=64 v=0
165042 Par ch=1 c=64 v=127
165084 On ch=1 n=f5 v=0
165087 On ch=1 n=d#4 v=0
165112 On ch=1 n=f6 v=0
165128 On ch=1 n=g#4 v=0
165414 On ch=1 n=a#5 v=19
165418 On ch=1 n=g6 v=50
165424 On ch=1 n=g5 v=27
165450 On ch=1 n=a#4 v=9
165462 On ch=1 n=d#4 v=22
165472 Par ch=1 c=64 v=0
165506 On ch=1 n=d6 v=0
165748 Par ch=1 c=64 v=127
165856 On ch=1 n=a#4 v=0
165856 On ch=1 n=a#5 v=0
165880 On ch=1 n=g5 v=0
166092 On ch=1 n=d#4 v=0
166210 On ch=1 n=g6 v=0
166256 On ch=1 n=d#6 v=36
166544 On ch=1 n=d#3 v=24
166554 On ch=1 n=a#5 v=33
166554 On ch=1 n=a#6 v=46
166557 On ch=1 n=d#6 v=0
166564 On ch=1 n=g6 v=41
166672 On ch=1 n=d#3 v=0
166754 On ch=1 n=a#6 v=0
166772 On ch=1 n=g6 v=0
166830 On ch=1 n=a#5 v=0
166850 On ch=1 n=d#6 v=50
167094 On ch=1 n=g#5 v=33
167096 On ch=1 n=g#6 v=46
167118 On ch=1 n=f6 v=53
167126 On ch=1 n=c5 v=29
167126 On ch=1 n=d#4 v=28
167164 On ch=1 n=d#6 v=0
167178 Par ch=1 c=64 v=0
167374 On ch=1 n=d#6 v=54
167386 On ch=1 n=f6 v=0
167408 Par ch=1 c=64 v=127
167654 On ch=1 n=f6 v=60
167656 On ch=1 n=d#6 v=0
167814 On ch=1 n=d#4 v=0
167824 On ch=1 n=g#6 v=0
167872 On ch=1 n=f6 v=0
167916 On ch=1 n=c6 v=63
167940 On ch=1 n=g#5 v=0
167982 On ch=1 n=c5 v=0
168170 On ch=1 n=d#6 v=51
168176 On ch=1 n=f6 v=73
168178 On ch=1 n=g#4 v=31
168186 On ch=1 n=f5 v=33
168189 On ch=1 n=c6 v=0
168198 On ch=1 n=d#4 v=30
168238 Par ch=1 c=64 v=0
168408 Par ch=1 c=64 v=127
168444 On ch=1 n=d6 v=73
168454 On ch=1 n=d#4 v=0
168490 On ch=1 n=f6 v=0
168508 On ch=1 n=d#6 v=0
168522 On ch=1 n=f5 v=0
168688 On ch=1 n=g#4 v=0
168691 On ch=1 n=g6 v=79
168696 On ch=1 n=d#6 v=54
168706 On ch=1 n=g5 v=42
168708 On ch=1 n=a#4 v=25
168724 On ch=1 n=d6 v=0
168756 On ch=1 n=d#4 v=34
168776 Par ch=1 c=64 v=0
168962 On ch=1 n=d#6 v=0
168976 On ch=1 n=d6 v=62
169098 Par ch=1 c=64 v=127
169228 On ch=1 n=a#4 v=0
169244 On ch=1 n=d6 v=0
169244 On ch=1 n=d#6 v=52
169350 On ch=1 n=a#4 v=2
169360 Par ch=1 c=64 v=0
169494 On ch=1 n=a#5 v=33
169516 On ch=1 n=g6 v=0
169528 Par ch=1 c=64 v=127
169552 On ch=1 n=a#4 v=0
169572 On ch=1 n=g5 v=0
169580 On ch=1 n=d#6 v=0
169600 On ch=1 n=d#4 v=0
169768 On ch=1 n=d#4 v=50
169774 On ch=1 n=c6 v=51
169782 On ch=1 n=a#5 v=0
169788 On ch=1 n=d#6 v=59
169798 On ch=1 n=d#3 v=35
169801 On ch=1 n=g5 v=27
170020 On ch=1 n=d#3 v=0
170052 On ch=1 n=a#5 v=58
170070 On ch=1 n=c6 v=0
170070 On ch=1 n=d#4 v=0
170102 On ch=1 n=g5 v=0
170122 On ch=1 n=d#6 v=0
170312 On ch=1 n=a#4 v=56
170312 On ch=1 n=f6 v=70
170315 On ch=1 n=d6 v=57
170315 On ch=1 n=f5 v=42
170332 On ch=1 n=a#3 v=43
170356 On ch=1 n=a#5 v=0
170404 Par ch=1 c=64 v=0
170604 On ch=1 n=c6 v=67
170607 On ch=1 n=d6 v=0
170634 Par ch=1 c=64 v=127
170798 On ch=1 n=a#4 v=0
170848 On ch=1 n=a#3 v=0
170864 On ch=1 n=d6 v=75
170864 On ch=1 n=a4 v=63
170874 On ch=1 n=a3 v=52
170890 On ch=1 n=c6 v=0
170926 Par ch=1 c=64 v=0
171110 On ch=1 n=f5 v=0
171112 Par ch=1 c=64 v=127
171120 On ch=1 n=a#5 v=57
171128 On ch=1 n=f6 v=0
171228 On ch=1 n=d6 v=0
171244 On ch=1 n=a4 v=0
171262 On ch=1 n=a3 v=0
171362 On ch=1 n=a#5 v=0
171364 On ch=1 n=d#6 v=68
171366 On ch=1 n=d#5 v=60
171374 On ch=1 n=c6 v=50
171378 On ch=1 n=a#3 v=49
171380 On ch=1 n=g4 v=64
171384 On ch=1 n=g3 v=54
171464 Par ch=1 c=64 v=0
171638 On ch=1 n=a#5 v=57
171664 Par ch=1 c=64 v=127
171674 On ch=1 n=d#5 v=0
171710 On ch=1 n=c6 v=0
171766 On ch=1 n=d#6 v=0
171784 On ch=1 n=g4 v=0
171788 On ch=1 n=g3 v=0
171822 On ch=1 n=a#3 v=0
171904 On ch=1 n=f6 v=78
171904 On ch=1 n=f5 v=59
171904 On ch=1 n=a#3 v=40
171912 On ch=1 n=f4 v=88
171912 On ch=1 n=d6 v=54
171924 On ch=1 n=f3 v=54
171950 On ch=1 n=a#5 v=0
172064 Par ch=1 c=64 v=0
172116 On ch=1 n=d6 v=0
172186 On ch=1 n=c6 v=62
172356 Par ch=1 c=64 v=127
172448 On ch=1 n=d6 v=82
172462 On ch=1 n=c6 v=0
172662 On ch=1 n=f5 v=0
172678 On ch=1 n=d6 v=0
172704 On ch=1 n=a#5 v=69
172710 On ch=1 n=f6 v=0
172742 On ch=1 n=f4 v=0
172774 On ch=1 n=a#5 v=0
172777 On ch=1 n=f3 v=0
172862 On ch=1 n=a#3 v=0
172962 On ch=1 n=a6 v=87
172970 On ch=1 n=a5 v=60
172976 On ch=1 n=d#4 v=73
172980 On ch=1 n=f6 v=64
172986 On ch=1 n=d#3 v=59
173120 On ch=1 n=d#4 v=0
173144 On ch=1 n=d#3 v=0
173148 On ch=1 n=a6 v=0
173240 On ch=1 n=f6 v=0
173240 On ch=1 n=a#5 v=62
173252 On ch=1 n=d4 v=76
173258 On ch=1 n=d3 v=72
173366 On ch=1 n=d3 v=0
173398 On ch=1 n=d4 v=0
173416 On ch=1 n=a#5 v=0
173494 On ch=1 n=a5 v=0
173580 On ch=1 n=g6 v=89
173588 On ch=1 n=a#5 v=54
173592 On ch=1 n=d#6 v=53
173600 Par ch=1 c=64 v=0
173602 On ch=1 n=f4 v=82
173606 On ch=1 n=f3 v=57
173890 On ch=1 n=g5 v=49
173908 On ch=1 n=g6 v=0
173954 Par ch=1 c=64 v=127
173970 On ch=1 n=d#6 v=0
174024 On ch=1 n=a#5 v=0
174126 On ch=1 n=g5 v=0
174142 On ch=1 n=f6 v=86
174142 On ch=1 n=a5 v=51
174158 On ch=1 n=d6 v=62
174184 Par ch=1 c=64 v=0
174272 On ch=1 n=f4 v=0
174322 Par ch=1 c=64 v=127
174374 On ch=1 n=d6 v=0
174394 On ch=1 n=f6 v=0
174432 On ch=1 n=f5 v=54
174436 On ch=1 n=a5 v=0
174440 On ch=1 n=f3 v=0
174552 On ch=1 n=f5 v=0
174762 On ch=1 n=d#6 v=52
174774 On ch=1 n=a#2 v=41
174774 On ch=1 n=g5 v=45
174777 On ch=1 n=a#3 v=32
174784 On ch=1 n=c6 v=42
174974 On ch=1 n=d#6 v=0
174978 On ch=1 n=g5 v=0
175036 On ch=1 n=c6 v=0
175078 On ch=1 n=a#3 v=0
175078 On ch=1 n=a#5 v=52
175086 On ch=1 n=d6 v=69
175098 On ch=1 n=f5 v=39
175140 On ch=1 n=a#2 v=0
175152 On ch=1 n=d6 v=0
175190 On ch=1 n=a#5 v=0
175382 On ch=1 n=g#5 v=43
175386 On ch=1 n=c6 v=62
175386 On ch=1 n=d#5 v=47
175389 On ch=1 n=a#3 v=29
175394 On ch=1 n=f5 v=0
175394 On ch=1 n=a#2 v=29
175397 Par ch=1 c=64 v=0
175638 On ch=1 n=c6 v=0
175658 Par ch=1 c=64 v=127
175714 On ch=1 n=c5 v=37
175768 On ch=1 n=g#5 v=0
175796 On ch=1 n=d#5 v=0
175940 On ch=1 n=c5 v=0
175976 On ch=1 n=a#5 v=34
176018 On ch=1 n=g5 v=28
176022 On ch=1 n=d5 v=28
176288 On ch=1 n=a#4 v=30
176302 On ch=1 n=a#2 v=0
176354 On ch=1 n=a#3 v=0
176416 On ch=1 n=d5 v=0
176432 On ch=1 n=g5 v=0
176444 On ch=1 n=a#5 v=0
176474 On ch=1 n=a#4 v=0
176636 On ch=1 n=a#5 v=60
176672 On ch=1 n=c5 v=29
176688 On ch=1 n=g#5 v=30
176690 On ch=1 n=a#3 v=21
176720 Par ch=1 c=64 v=0
176720 On ch=1 n=d#5 v=15
176872 On ch=1 n=c5 v=0
176888 Par ch=1 c=64 v=127
176920 On ch=1 n=g#5 v=0
176984 On ch=1 n=d#5 v=0
176984 On ch=1 n=g#4 v=23
177014 On ch=1 n=f5 v=25
177024 On ch=1 n=d5 v=19
177038 On ch=1 n=a#3 v=0
177058 On ch=1 n=g#4 v=0
177170 On ch=1 n=d#3 v=27
177180 Par ch=1 c=64 v=0
177238 On ch=1 n=f5 v=0
177296 On ch=1 n=d5 v=0
177334 Par ch=1 c=64 v=127
177346 On ch=1 n=d#3 v=0
177351 On ch=1 n=a#5 v=0
177480 On ch=1 n=d#6 v=71
177490 On ch=1 n=d#5 v=47
177550 On ch=1 n=g4 v=25
178014 On ch=1 n=g4 v=0
178064 On ch=1 n=d6 v=65
178152 On ch=1 n=d#5 v=0
178178 On ch=1 n=d#6 v=0
178590 On ch=1 n=d6 v=0
178602 On ch=1 n=c6 v=42
178604 On ch=1 n=d#6 v=38
178618 On ch=1 n=d#5 v=21
178638 On ch=1 n=d#4 v=19
178640 Par ch=1 c=64 v=0
178652 On ch=1 n=g4 v=20
178854 Par ch=1 c=64 v=127
178882 On ch=1 n=g4 v=0
178902 On ch=1 n=d#4 v=0
178908 On ch=1 n=d#6 v=0
178932 On ch=1 n=d#5 v=0
179228 On ch=1 n=d#6 v=29
179228 On ch=1 n=a#5 v=28
179236 On ch=1 n=d#5 v=23
179274 On ch=1 n=g4 v=18
179284 Par ch=1 c=64 v=0
179289 On ch=1 n=d#4 v=17
179354 On ch=1 n=c6 v=0
179624 Par ch=1 c=64 v=127
179834 On ch=1 n=g4 v=0
179916 On ch=1 n=d#6 v=0
179942 On ch=1 n=d#4 v=0
180052 On ch=1 n=d#5 v=0
180388 On ch=1 n=g#5 v=16
180388 On ch=1 n=d#6 v=27
180396 On ch=1 n=d#3 v=20
180400 On ch=1 n=d#5 v=24
180412 On ch=1 n=a#5 v=0
180534 On ch=1 n=d#3 v=0
180574 On ch=1 n=d#5 v=0
180596 On ch=1 n=g#5 v=0
180704 On ch=1 n=g5 v=40
180784 On ch=1 n=d#6 v=0
180928 On ch=1 n=d#4 v=22
181022 Par ch=1 c=64 v=0
181024 On ch=1 n=g4 v=24
181036 On ch=1 n=f5 v=38
181050 On ch=1 n=g5 v=0
181052 On ch=1 n=d#6 v=26
181268 Par ch=1 c=64 v=127
181352 On ch=1 n=f5 v=0
181604 On ch=1 n=d#5 v=37
181698 Par ch=1 c=64 v=0
181822 On ch=1 n=g4 v=0
181825 On ch=1 n=d#6 v=0
181836 Par ch=1 c=64 v=127
181856 On ch=1 n=d#4 v=0
182180 On ch=1 n=d#6 v=35
182190 On ch=1 n=d#5 v=0
182192 On ch=1 n=g5 v=31
182232 On ch=1 n=g4 v=17
182250 On ch=1 n=d#4 v=15
182266 Par ch=1 c=64 v=0
182436 Par ch=1 c=64 v=127
182480 On ch=1 n=g4 v=0
182514 On ch=1 n=d#6 v=0
182522 On ch=1 n=d#4 v=0
182822 On ch=1 n=d#6 v=34
182836 On ch=1 n=a#5 v=23
182836 On ch=1 n=d#5 v=22
182880 On ch=1 n=g4 v=15
182904 On ch=1 n=d#4 v=12
182912 Par ch=1 c=64 v=0
182962 On ch=1 n=g5 v=0
183188 Par ch=1 c=64 v=127
183428 On ch=1 n=g4 v=0
183524 On ch=1 n=d#5 v=0
183578 On ch=1 n=d#4 v=0
183684 On ch=1 n=d#6 v=0
184098 On ch=1 n=c6 v=42
184102 On ch=1 n=d#6 v=30
184108 On ch=1 n=d#5 v=25
184146 On ch=1 n=c3 v=20
184244 On ch=1 n=a#5 v=0
184247 Par ch=1 c=64 v=0
184386 Par ch=1 c=64 v=127
184418 On ch=1 n=d6 v=67
184440 On ch=1 n=c3 v=0
184476 On ch=1 n=d#6 v=0
184544 On ch=1 n=d#5 v=0
184628 On ch=1 n=c6 v=0
184794 On ch=1 n=g4 v=41
184796 On ch=1 n=d#6 v=62
184802 On ch=1 n=d#5 v=36
184826 On ch=1 n=c4 v=21
184916 On ch=1 n=d6 v=0
185078 Par ch=1 c=64 v=0
185262 Par ch=1 c=64 v=127
185466 On ch=1 n=g4 v=0
185466 On ch=1 n=d6 v=65
185530 On ch=1 n=d#5 v=0
185610 On ch=1 n=d#6 v=0
185656 On ch=1 n=c4 v=0
186074 On ch=1 n=c6 v=46
186082 On ch=1 n=d#6 v=41
186088 On ch=1 n=d#5 v=28
186092 On ch=1 n=d6 v=0
186112 On ch=1 n=c4 v=10
188215 On ch=1 n=f1 v=129
188225 Par ch=1 c=64 v=0
188323 On ch=1 n=g4 v=0
188365 Par ch=1 c=64 v=127
188379 On ch=1 n=d#5 v=0
188382 On ch=1 n=d#6 v=0
188392 On ch=1 n=c4 v=0
188704 On ch=1 n=a#5 v=34
188732 On ch=1 n=d#6 v=34
188736 On ch=1 n=d#5 v=22
188762 On ch=1 n=c4 v=10
188764 On ch=1 n=g4 v=10
188900 On ch=1 n=c6 v=0
189238 Par ch=1 c=64 v=0
189390 Par ch=1 c=64 v=127
189408 On ch=1 n=g4 v=0
189468 On ch=1 n=d#6 v=0
189492 On ch=1 n=c4 v=0
189506 On ch=1 n=d#5 v=0
189618 On ch=1 n=a#5 v=0
189888 On ch=1 n=a5 v=32
189906 On ch=1 n=d#6 v=34
189906 On ch=1 n=d3 v=30
189914 On ch=1 n=d#5 v=25
190182 On ch=1 n=d3 v=0
190264 On ch=1 n=g5 v=55
190274 On ch=1 n=d#6 v=0
190328 On ch=1 n=a5 v=0
190352 On ch=1 n=d#5 v=0
190604 On ch=1 n=d#6 v=46
190604 On ch=1 n=d#5 v=47
190606 On ch=1 n=a5 v=40
190610 On ch=1 n=c5 v=25
190614 On ch=1 n=d4 v=21
190618 On ch=1 n=f#4 v=29
190700 On ch=1 n=g5 v=0
190820 Par ch=1 c=64 v=0
191020 Par ch=1 c=64 v=127
191206 On ch=1 n=d#5 v=0
191206 On ch=1 n=a#5 v=55
191300 On ch=1 n=a5 v=0
191424 On ch=1 n=f#4 v=0
191454 On ch=1 n=d4 v=0
191488 On ch=1 n=c5 v=0
191582 On ch=1 n=a#5 v=0
191582 On ch=1 n=d#6 v=0
191802 On ch=1 n=c6 v=55
191804 On ch=1 n=d6 v=58
191816 On ch=1 n=d5 v=28
191819 On ch=1 n=f#4 v=28
191819 On ch=1 n=a4 v=25
191834 On ch=1 n=d4 v=24
191988 Par ch=1 c=64 v=0
192142 Par ch=1 c=64 v=127
192150 On ch=1 n=a4 v=0
192170 On ch=1 n=f#4 v=0
192172 On ch=1 n=d4 v=0
192182 On ch=1 n=d6 v=0
192228 On ch=1 n=d5 v=0
192460 On ch=1 n=a#5 v=43
192474 On ch=1 n=d6 v=74
192477 On ch=1 n=d5 v=42
192496 On ch=1 n=g3 v=24
192498 On ch=1 n=g4 v=25
192536 On ch=1 n=c6 v=0
192740 Par ch=1 c=64 v=0
192970 Par ch=1 c=64 v=127
192984 On ch=1 n=d5 v=0
193016 On ch=1 n=g3 v=0
193082 On ch=1 n=d6 v=0
193162 On ch=1 n=g4 v=0
193244 On ch=1 n=a#5 v=0
193476 On ch=1 n=d6 v=71
193730 On ch=1 n=a#4 v=12
193778 On ch=1 n=d5 v=16
193832 Par ch=1 c=64 v=0
193870 On ch=1 n=g#5 v=25
193872 On ch=1 n=a#6 v=68
193908 On ch=1 n=c6 v=32
193920 On ch=1 n=d6 v=0
194046 Par ch=1 c=64 v=127
194062 On ch=1 n=d5 v=0
194064 On ch=1 n=g#5 v=0
194080 On ch=1 n=c6 v=0
194104 On ch=1 n=a#4 v=0
194240 On ch=1 n=a#5 v=43
194322 On ch=1 n=d#4 v=24
194338 Par ch=1 c=64 v=0
194440 On ch=1 n=a#4 v=26
194462 On ch=1 n=a#5 v=0
194476 Par ch=1 c=64 v=127
194504 On ch=1 n=d#4 v=0
194606 On ch=1 n=a#4 v=0
194704 On ch=1 n=d#7 v=69
194732 On ch=1 n=d#6 v=34
194760 On ch=1 n=g5 v=38
194768 On ch=1 n=a#6 v=0
195322 On ch=1 n=g5 v=0
195564 On ch=1 n=d7 v=54
195636 On ch=1 n=d#6 v=0
195642 On ch=1 n=d#4 v=31
195658 On ch=1 n=d#7 v=0
195726 On ch=1 n=d#4 v=0
195740 On ch=1 n=a#4 v=19
195874 On ch=1 n=g5 v=19
195900 On ch=1 n=d#6 v=33
195912 On ch=1 n=d#7 v=42
195966 On ch=1 n=d7 v=0
196006 On ch=1 n=g5 v=0
196066 On ch=1 n=a#4 v=0
196186 On ch=1 n=c7 v=66
196216 On ch=1 n=d#7 v=0
196262 On ch=1 n=d#4 v=23
196348 On ch=1 n=a#4 v=24
196374 On ch=1 n=d#4 v=0
196448 On ch=1 n=c7 v=0
196474 On ch=1 n=d#7 v=58
196486 On ch=1 n=g5 v=24
196528 On ch=1 n=d#7 v=0
196604 On ch=1 n=d#6 v=0
196760 On ch=1 n=a#6 v=52
196784 On ch=1 n=d6 v=41
196926 On ch=1 n=d6 v=0
197040 On ch=1 n=g5 v=0
197056 On ch=1 n=d#6 v=54
197100 On ch=1 n=a#6 v=0
197116 On ch=1 n=a#4 v=0
197246 On ch=1 n=d#6 v=0
197334 On ch=1 n=g#6 v=57
197354 On ch=1 n=c6 v=38
197536 On ch=1 n=c6 v=0
197614 On ch=1 n=d#6 v=47
197636 On ch=1 n=a#4 v=17
197668 On ch=1 n=g#6 v=0
197668 On ch=1 n=d#4 v=27
197854 On ch=1 n=d#4 v=0
197868 On ch=1 n=a#4 v=0
197884 On ch=1 n=a#5 v=41
197894 On ch=1 n=g6 v=60
197910 On ch=1 n=d#6 v=0
198148 On ch=1 n=d#4 v=30
198176 On ch=1 n=f6 v=65
198212 On ch=1 n=a#4 v=18
198215 On ch=1 n=g6 v=0
198318 On ch=1 n=a#5 v=0
198452 On ch=1 n=g#5 v=41
198462 On ch=1 n=d6 v=64
198472 On ch=1 n=f6 v=0
198528 Par ch=1 c=64 v=0
198712 Par ch=1 c=64 v=127
198748 On ch=1 n=d#6 v=65
198766 On ch=1 n=d6 v=0
198910 On ch=1 n=g#5 v=0
198916 On ch=1 n=d#4 v=0
198928 On ch=1 n=a#4 v=0
199050 On ch=1 n=g6 v=70
199058 On ch=1 n=g5 v=48
199072 On ch=1 n=d#6 v=0
199138 On ch=1 n=d#4 v=40
199154 On ch=1 n=g5 v=0
199224 On ch=1 n=g6 v=0
199230 On ch=1 n=g#4 v=31
199280 On ch=1 n=d#4 v=0
199372 On ch=1 n=f5 v=34
199378 On ch=1 n=a#6 v=62
199454 On ch=1 n=g#4 v=0
199610 On ch=1 n=f5 v=0
199674 On ch=1 n=d5 v=66
199714 On ch=1 n=d5 v=0
199956 On ch=1 n=d#4 v=25
200008 On ch=1 n=g4 v=54
200048 Par ch=1 c=64 v=0
200060 On ch=1 n=d#5 v=56
200226 On ch=1 n=g4 v=0
200232 On ch=1 n=d#4 v=0
200232 Par ch=1 c=64 v=127
200308 On ch=1 n=d#5 v=0
200402 On ch=1 n=g5 v=54
200610 On ch=1 n=g5 v=0
200758 On ch=1 n=a#5 v=55
200808 On ch=1 n=a#6 v=0
201046 On ch=1 n=c6 v=71
201360 On ch=1 n=d6 v=84
201366 On ch=1 n=d#4 v=44
201374 On ch=1 n=g3 v=48
201378 On ch=1 n=g4 v=49
201432 On ch=1 n=c6 v=0
201576 On ch=1 n=d#4 v=0
201660 On ch=1 n=g4 v=0
201698 On ch=1 n=d6 v=0
201704 On ch=1 n=f6 v=82
201904 On ch=1 n=f6 v=0
201930 On ch=1 n=g3 v=0
202134 On ch=1 n=d#6 v=78
202142 On ch=1 n=d#5 v=53
202144 On ch=1 n=a3 v=48
202152 On ch=1 n=g4 v=47
202170 On ch=1 n=d#4 v=33
202232 On ch=1 n=a#5 v=0
202306 Par ch=1 c=64 v=0
202630 Par ch=1 c=64 v=127
202826 On ch=1 n=d6 v=75
203028 On ch=1 n=d#6 v=0
203058 On ch=1 n=d#5 v=0
203074 On ch=1 n=d#4 v=0
203078 On ch=1 n=g4 v=0
203430 On ch=1 n=a#3 v=44
203438 On ch=1 n=d#6 v=56
203440 On ch=1 n=c6 v=59
203442 On ch=1 n=d#5 v=45
203444 On ch=1 n=g4 v=32
203458 On ch=1 n=d#4 v=39
203490 Par ch=1 c=64 v=0
203504 On ch=1 n=d6 v=0
203568 On ch=1 n=a3 v=0
203904 Par ch=1 c=64 v=127
204182 Par ch=1 c=64 v=0
204198 On ch=1 n=a#5 v=46
204242 On ch=1 n=c6 v=0
204412 Par ch=1 c=64 v=127
204438 On ch=1 n=g4 v=0
204504 On ch=1 n=d#5 v=0
204538 On ch=1 n=d#6 v=0
204540 On ch=1 n=d#4 v=0
204984 On ch=1 n=d#6 v=40
205004 On ch=1 n=d#5 v=29
205012 Par ch=1 c=64 v=0
205012 On ch=1 n=g4 v=22
205018 On ch=1 n=c4 v=17
205040 On ch=1 n=d#4 v=22
205116 On ch=1 n=a#3 v=0
205394 Par ch=1 c=64 v=127
205688 On ch=1 n=g#5 v=41
205708 On ch=1 n=a#5 v=0
205896 On ch=1 n=g4 v=0
205914 On ch=1 n=g#5 v=0
206010 On ch=1 n=g5 v=57
206110 On ch=1 n=d#6 v=0
206220 On ch=1 n=c4 v=0
206320 On ch=1 n=d#5 v=0
206368 On ch=1 n=d#6 v=44
206371 On ch=1 n=a#5 v=39
206378 On ch=1 n=a#3 v=19
206378 Par ch=1 c=64 v=0
206384 On ch=1 n=g4 v=30
206460 On ch=1 n=d#4 v=0
206480 On ch=1 n=g5 v=0
206886 Par ch=1 c=64 v=127
207216 On ch=1 n=d#5 v=41
207316 Par ch=1 c=64 v=0
207398 On ch=1 n=a#5 v=0
207516 Par ch=1 c=64 v=127
207556 On ch=1 n=g4 v=0
207586 On ch=1 n=a#3 v=0
207686 On ch=1 n=d#6 v=0
207854 On ch=1 n=d#5 v=0
207950 On ch=1 n=a#3 v=16
207950 On ch=1 n=g#4 v=10
210065 On ch=1 n=d1 v=10
212187 On ch=1 n=g2 v=52
218395 On ch=1 n=c0 v=131
218395 Par ch=1 c=64 v=127
218525 On ch=1 n=f5 v=21
218565 Par ch=1 c=64 v=0
218655 On ch=1 n=g5 v=0
218719 Par ch=1 c=64 v=127
218949 Par ch=1 c=64 v=0
219303 Par ch=1 c=64 v=127
220015 On ch=1 n=f5 v=0
220205 On ch=1 n=g#4 v=0
220305 On ch=1 n=a#3 v=0
220353 On ch=1 n=g#3 v=44
220407 On ch=1 n=d6 v=0
220407 Par ch=1 c=64 v=0
220515 On ch=1 n=d#4 v=69
220577 Par ch=1 c=64 v=127
220681 On ch=1 n=g#3 v=0
220793 On ch=1 n=c6 v=81
220795 On ch=1 n=d#6 v=79
220797 On ch=1 n=d#5 v=71
220813 On ch=1 n=c5 v=66
221683 On ch=1 n=a#5 v=73
221823 On ch=1 n=d#5 v=0
221867 On ch=1 n=c6 v=0
221945 On ch=1 n=d#6 v=0
221959 On ch=1 n=d#4 v=0
223233 On ch=1 n=d#6 v=53
223235 On ch=1 n=a5 v=54
223241 On ch=1 n=d#5 v=42
223243 On ch=1 n=d#4 v=49
223253 On ch=1 n=c4 v=33
223395 On ch=1 n=a#5 v=0
223403 On ch=1 n=c5 v=0
223405 Par ch=1 c=64 v=0
223635 Par ch=1 c=64 v=127
223981 On ch=1 n=a5 v=0
224253 On ch=1 n=g#5 v=41
224449 Par ch=1 c=64 v=0
224849 Par ch=1 c=64 v=127
225413 On ch=1 n=d#5 v=0
225575 On ch=1 n=d#4 v=0
225635 On ch=1 n=d#6 v=0
225845 On ch=1 n=c4 v=0
226275 On ch=1 n=d#6 v=35
226297 On ch=1 n=g5 v=27
226311 On ch=1 n=a#3 v=18
226313 On ch=1 n=d#5 v=21
226321 On ch=1 n=g4 v=26
226385 Par ch=1 c=64 v=0
226457 On ch=1 n=g#5 v=0
226769 Par ch=1 c=64 v=127
226965 On ch=1 n=d#5 v=0
227003 On ch=1 n=a#5 v=33
227111 On ch=1 n=g5 v=0
227215 Par ch=1 c=64 v=0
227385 Par ch=1 c=64 v=127
227759 On ch=1 n=d#5 v=37
227815 Par ch=1 c=64 v=0
227871 On ch=1 n=a#5 v=0
228029 Par ch=1 c=64 v=127
228119 On ch=1 n=a#3 v=0
228135 On ch=1 n=g4 v=0
228221 On ch=1 n=d#6 v=0
228745 On ch=1 n=d#5 v=0
228793 On ch=1 n=g#4 v=14
228795 On ch=1 n=d6 v=24
228799 On ch=1 n=a#3 v=11
228811 On ch=1 n=g5 v=11
228859 Par ch=1 c=64 v=0
229259 Par ch=1 c=64 v=127
229399 On ch=1 n=f5 v=18
229479 On ch=1 n=g5 v=0
229735 Par ch=1 c=64 v=0
229981 Par ch=1 c=64 v=127
230763 On ch=1 n=f5 v=0
231115 On ch=1 n=g#4 v=0
231431 On ch=1 n=d6 v=0
231461 On ch=1 n=a#3 v=0
231641 On ch=1 n=d#5 v=14
231849 On ch=1 n=d#5 v=0
232439 On ch=1 n=d#6 v=11
232441 On ch=1 n=d#5 v=10
234540 On ch=1 n=c1 v=4
236643 On ch=1 n=a#0 v=129
236731 Par ch=1 c=64 v=0
237023 Par ch=1 c=64 v=127
237167 On ch=1 n=d#5 v=0
237227 On ch=1 n=g4 v=0
237351 On ch=1 n=d#6 v=0
237421 On ch=1 n=d#4 v=0
238731 On ch=1 n=a#4 v=8
238739 On ch=1 n=g4 v=14
238743 On ch=1 n=d#2 v=8
238745 On ch=1 n=a#3 v=7
238745 On ch=1 n=d#3 v=11
239145 On ch=1 n=a#3 v=0
239261 On ch=1 n=g4 v=0
239529 On ch=1 n=d#3 v=0
239533 On ch=1 n=a#4 v=0
239601 On ch=1 n=d#2 v=0
240973 On ch=1 n=g6 v=28
240973 On ch=1 n=g4 v=17
240975 On ch=1 n=d#6 v=23
240977 On ch=1 n=g5 v=24
240979 On ch=1 n=d#4 v=10
240983 On ch=1 n=d#5 v=9
245609 On ch=1 n=g5 v=0
245829 On ch=1 n=d#6 v=0
246211 On ch=1 n=d#5 v=0
246217 On ch=1 n=g4 v=0
246383 On ch=1 n=d#4 v=0
246493 On ch=1 n=g6 v=0
246687 Par ch=1 c=64 v=0
248313 Par ch=1 c=64 v=0
248313 Meta TrkEnd
