MFile 0 1 384
MTrk
0 Meta Copyright "(C) John Sankey 1998"
0 PrCh ch=1 p=6
0 Pb ch=1 v=8192
0 PrCh ch=2 p=6
0 Pb ch=2 v=7602
0 PrCh ch=3 p=6
0 Pb ch=3 v=7920
0 PrCh ch=4 p=6
0 Pb ch=4 v=7839
0 PrCh ch=5 p=6
0 Pb ch=5 v=7632
0 PrCh ch=6 p=6
0 Pb ch=6 v=8112
0 PrCh ch=7 p=6
0 Pb ch=7 v=7567
0 PrCh ch=8 p=6
0 Pb ch=8 v=8062
0 PrCh ch=9 p=6
0 Pb ch=9 v=7680
0 PrCh ch=11 p=6
0 Pb ch=11 v=7728
0 PrCh ch=12 p=6
0 Pb ch=12 v=7984
0 PrCh ch=13 p=6
0 Pb ch=13 v=7639
0 Tempo 500000
110 On ch=3 n=d6 v=127
219 Off ch=3 n=d6 v=127
220 On ch=5 n=e6 v=127
329 Off ch=5 n=e6 v=127
330 On ch=6 n=f6 v=127
439 Off ch=6 n=f6 v=127
440 On ch=8 n=g6 v=127
549 Off ch=8 n=g6 v=127
550 On ch=11 n=a6 v=127
660 On ch=11 n=a5 v=127
767 Off ch=11 n=a6 v=127
768 Off ch=11 n=a5 v=127
769 On ch=2 n=c#6 v=127
879 On ch=11 n=a5 v=127
895 Off ch=2 n=c#6 v=127
988 Off ch=11 n=a5 v=127
989 On ch=3 n=d5 v=127
989 On ch=3 n=d6 v=127
1098 Off ch=3 n=d5 v=127
1099 On ch=5 n=e5 v=127
1208 Off ch=5 n=e5 v=127
1209 On ch=6 n=f5 v=127
1318 Off ch=6 n=f5 v=127
1319 On ch=8 n=g5 v=127
1428 Off ch=8 n=g5 v=127
1429 On ch=11 n=a5 v=127
1539 On ch=11 n=a4 v=127
1555 Off ch=11 n=a5 v=127
1648 Off ch=11 n=a4 v=127
1648 Off ch=3 n=d6 v=127
1649 On ch=2 n=c#5 v=127
1649 On ch=5 n=e6 v=127
1759 On ch=11 n=a4 v=127
1775 Off ch=2 n=c#5 v=127
1868 Off ch=11 n=a4 v=127
1868 Off ch=5 n=e6 v=127
1869 On ch=3 n=d5 v=127
1869 On ch=6 n=f6 v=127
1978 Off ch=6 n=f6 v=127
1979 On ch=3 n=d6 v=127
2088 Off ch=3 n=d6 v=127
2088 Off ch=3 n=d5 v=127
2089 On ch=5 n=e5 v=127
2089 On ch=8 n=g6 v=127
2198 Off ch=8 n=g6 v=127
2199 On ch=5 n=e6 v=127
2308 Off ch=5 n=e6 v=127
2308 Off ch=5 n=e5 v=127
2309 On ch=6 n=f5 v=127
2309 On ch=11 n=a6 v=127
2418 Off ch=11 n=a6 v=127
2419 On ch=6 n=f6 v=127
2528 Off ch=6 n=f6 v=127
2528 Off ch=6 n=f5 v=127
2529 On ch=8 n=g5 v=127
2529 On ch=5 n=e6 v=127
2638 Off ch=5 n=e6 v=127
2639 On ch=3 n=d6 v=127
2748 Off ch=3 n=d6 v=127
2748 Off ch=8 n=g5 v=127
2749 On ch=11 n=a5 v=127
2749 On ch=2 n=c#6 v=127
2967 Off ch=2 n=c#6 v=127
2967 Off ch=11 n=a5 v=127
2968 On ch=11 n=a5 v=127
2968 On ch=11 n=a6 v=127
3186 Off ch=11 n=a6 v=127
3186 Off ch=11 n=a5 v=127
3187 On ch=11 n=a5 v=127
3187 On ch=12 n=a#6 v=127
3241 Off ch=12 n=a#6 v=127
3242 On ch=11 n=a6 v=127
3296 Off ch=11 n=a6 v=127
3297 On ch=12 n=a#6 v=127
3351 Off ch=12 n=a#6 v=127
3352 On ch=11 n=a6 v=127
3406 Off ch=11 n=a6 v=127
3406 Off ch=11 n=a5 v=127
3407 On ch=11 n=a5 v=127
3407 On ch=12 n=a#6 v=127
3461 Off ch=12 n=a#6 v=127
3462 On ch=11 n=a6 v=127
3516 Off ch=11 n=a6 v=127
3517 On ch=12 n=a#6 v=127
3571 Off ch=12 n=a#6 v=127
3572 On ch=11 n=a6 v=127
3626 Off ch=11 n=a5 v=127
3627 On ch=6 n=f5 v=127
3627 On ch=11 n=a5 v=127
3736 Off ch=11 n=a6 v=127
3737 On ch=8 n=g6 v=127
3846 Off ch=8 n=g6 v=127
3846 Off ch=11 n=a5 v=127
3846 Off ch=6 n=f5 v=127
3847 On ch=6 n=f5 v=127
3847 On ch=11 n=a5 v=127
3847 On ch=6 n=f6 v=127
3956 Off ch=6 n=f6 v=127
3957 On ch=5 n=e6 v=127
4066 Off ch=5 n=e6 v=127
4066 Off ch=11 n=a5 v=127
4066 Off ch=6 n=f5 v=127
4067 On ch=6 n=f5 v=127
4067 On ch=11 n=a5 v=127
4067 On ch=3 n=d6 v=127
4176 Off ch=3 n=d6 v=127
4177 On ch=1 n=c6 v=127
4286 Off ch=1 n=c6 v=127
4286 Off ch=11 n=a5 v=127
4286 Off ch=6 n=f5 v=127
4287 On ch=6 n=f5 v=127
4287 On ch=12 n=a#5 v=127
4396 Off ch=12 n=a#5 v=127
4397 On ch=11 n=a5 v=127
4506 Off ch=11 n=a5 v=127
4506 Off ch=6 n=f5 v=127
4507 On ch=8 n=g4 v=127
4507 On ch=12 n=a#5 v=127
4725 Off ch=12 n=a#5 v=127
4725 Off ch=8 n=g4 v=127
4726 On ch=8 n=g5 v=127
4726 On ch=12 n=a#5 v=127
4726 On ch=8 n=g6 v=127
4944 Off ch=8 n=g6 v=127
4944 Off ch=12 n=a#5 v=127
4944 Off ch=8 n=g5 v=127
4945 On ch=12 n=a#5 v=127
4945 On ch=8 n=g5 v=127
4945 On ch=11 n=a6 v=127
4999 Off ch=11 n=a6 v=127
5000 On ch=8 n=g6 v=127
5054 Off ch=8 n=g6 v=127
5055 On ch=11 n=a6 v=127
5109 Off ch=11 n=a6 v=127
5110 On ch=8 n=g6 v=127
5164 Off ch=8 n=g6 v=127
5164 Off ch=8 n=g5 v=127
5164 Off ch=12 n=a#5 v=127
5165 On ch=8 n=g5 v=127
5165 On ch=12 n=a#5 v=127
5165 On ch=11 n=a6 v=127
5219 Off ch=11 n=a6 v=127
5220 On ch=8 n=g6 v=127
5274 Off ch=8 n=g6 v=127
5275 On ch=11 n=a6 v=127
5329 Off ch=11 n=a6 v=127
5330 On ch=8 n=g6 v=127
5384 Off ch=12 n=a#5 v=127
5384 Off ch=8 n=g5 v=127
5385 On ch=8 n=g5 v=127
5385 On ch=5 n=e5 v=127
5494 Off ch=8 n=g6 v=127
5495 On ch=6 n=f6 v=127
5604 Off ch=6 n=f6 v=127
5604 Off ch=5 n=e5 v=127
5604 Off ch=8 n=g5 v=127
5605 On ch=8 n=g5 v=127
5605 On ch=5 n=e5 v=127
5605 On ch=5 n=e6 v=127
5714 Off ch=5 n=e6 v=127
5715 On ch=3 n=d6 v=127
5824 Off ch=3 n=d6 v=127
5824 Off ch=5 n=e5 v=127
5824 Off ch=8 n=g5 v=127
5825 On ch=8 n=g5 v=127
5825 On ch=5 n=e5 v=127
5825 On ch=1 n=c6 v=127
5934 Off ch=1 n=c6 v=127
5935 On ch=12 n=a#5 v=127
6044 Off ch=12 n=a#5 v=127
6044 Off ch=5 n=e5 v=127
6044 Off ch=8 n=g5 v=127
6045 On ch=5 n=e5 v=127
6045 On ch=11 n=a5 v=127
6154 Off ch=11 n=a5 v=127
6155 On ch=8 n=g5 v=127
6264 Off ch=8 n=g5 v=127
6264 Off ch=5 n=e5 v=127
6265 On ch=6 n=f4 v=127
6265 On ch=11 n=a5 v=127
6483 Off ch=11 n=a5 v=127
6483 Off ch=6 n=f4 v=127
6484 On ch=6 n=f5 v=127
6484 On ch=11 n=a5 v=127
6484 On ch=6 n=f6 v=127
6702 Off ch=6 n=f6 v=127
6702 Off ch=11 n=a5 v=127
6702 Off ch=6 n=f5 v=127
6703 On ch=11 n=a5 v=127
6703 On ch=6 n=f5 v=127
6703 On ch=8 n=g6 v=127
6757 Off ch=8 n=g6 v=127
6758 On ch=6 n=f6 v=127
6812 Off ch=6 n=f6 v=127
6813 On ch=8 n=g6 v=127
6867 Off ch=8 n=g6 v=127
6868 On ch=6 n=f6 v=127
6922 Off ch=6 n=f6 v=127
6922 Off ch=6 n=f5 v=127
6922 Off ch=11 n=a5 v=127
6923 On ch=6 n=f5 v=127
6923 On ch=11 n=a5 v=127
6923 On ch=8 n=g6 v=127
6977 Off ch=8 n=g6 v=127
6978 On ch=6 n=f6 v=127
7032 Off ch=6 n=f6 v=127
7033 On ch=8 n=g6 v=127
7087 Off ch=8 n=g6 v=127
7088 On ch=6 n=f6 v=127
7142 Off ch=11 n=a5 v=127
7142 Off ch=6 n=f5 v=127
7143 On ch=6 n=f5 v=127
7143 On ch=3 n=d5 v=127
7252 Off ch=6 n=f6 v=127
7253 On ch=5 n=e6 v=127
7362 Off ch=5 n=e6 v=127
7362 Off ch=3 n=d5 v=127
7362 Off ch=6 n=f5 v=127
7363 On ch=3 n=d5 v=127
7363 On ch=6 n=f5 v=127
7363 On ch=3 n=d6 v=127
7472 Off ch=3 n=d6 v=127
7473 On ch=1 n=c6 v=127
7582 Off ch=1 n=c6 v=127
7582 Off ch=6 n=f5 v=127
7582 Off ch=3 n=d5 v=127
7583 On ch=6 n=f5 v=127
7583 On ch=3 n=d5 v=127
7583 On ch=12 n=a#5 v=127
7692 Off ch=12 n=a#5 v=127
7693 On ch=11 n=a5 v=127
7802 Off ch=11 n=a5 v=127
7802 Off ch=3 n=d5 v=127
7802 Off ch=6 n=f5 v=127
7803 On ch=3 n=d5 v=127
7803 On ch=8 n=g5 v=127
7912 Off ch=8 n=g5 v=127
7913 On ch=6 n=f5 v=127
8022 Off ch=6 n=f5 v=127
8022 Off ch=3 n=d5 v=127
8023 On ch=5 n=e4 v=127
8023 On ch=8 n=g5 v=127
8241 Off ch=8 n=g5 v=127
8241 Off ch=5 n=e4 v=127
8242 On ch=5 n=e5 v=127
8242 On ch=8 n=g5 v=127
8242 On ch=5 n=e6 v=127
8460 Off ch=5 n=e6 v=127
8460 Off ch=8 n=g5 v=127
8460 Off ch=5 n=e5 v=127
8461 On ch=8 n=g5 v=127
8461 On ch=5 n=e5 v=127
8461 On ch=6 n=f6 v=127
8515 Off ch=6 n=f6 v=127
8516 On ch=5 n=e6 v=127
8570 Off ch=5 n=e6 v=127
8571 On ch=6 n=f6 v=127
8625 Off ch=6 n=f6 v=127
8626 On ch=5 n=e6 v=127
8680 Off ch=5 n=e6 v=127
8680 Off ch=5 n=e5 v=127
8680 Off ch=8 n=g5 v=127
8681 On ch=8 n=g5 v=127
8681 On ch=5 n=e5 v=127
8681 On ch=6 n=f6 v=127
8735 Off ch=6 n=f6 v=127
8736 On ch=5 n=e6 v=127
8790 Off ch=5 n=e6 v=127
8791 On ch=6 n=f6 v=127
8845 Off ch=6 n=f6 v=127
8846 On ch=5 n=e6 v=127
8900 Off ch=5 n=e5 v=127
8900 Off ch=8 n=g5 v=127
8901 On ch=11 n=a4 v=127
8901 On ch=5 n=e5 v=127
9010 Off ch=5 n=e6 v=127
9011 On ch=3 n=d6 v=127
9120 Off ch=3 n=d6 v=127
9120 Off ch=5 n=e5 v=127
9120 Off ch=11 n=a4 v=127
9121 On ch=5 n=e5 v=127
9121 On ch=11 n=a4 v=127
9121 On ch=2 n=c#6 v=127
9230 Off ch=2 n=c#6 v=127
9231 On ch=13 n=b5 v=127
9340 Off ch=13 n=b5 v=127
9340 Off ch=11 n=a4 v=127
9340 Off ch=5 n=e5 v=127
9341 On ch=5 n=e5 v=127
9341 On ch=11 n=a4 v=127
9341 On ch=11 n=a5 v=127
9450 Off ch=11 n=a5 v=127
9451 On ch=8 n=g5 v=127
9560 Off ch=8 n=g5 v=127
9560 Off ch=11 n=a4 v=127
9560 Off ch=5 n=e5 v=127
9561 On ch=11 n=a4 v=127
9561 On ch=6 n=f5 v=127
9670 Off ch=6 n=f5 v=127
9671 On ch=5 n=e5 v=127
9780 Off ch=5 n=e5 v=127
9780 Off ch=11 n=a4 v=127
9781 On ch=3 n=d4 v=127
9781 On ch=3 n=d5 v=127
9781 On ch=6 n=f5 v=127
9888 Off ch=3 n=d5 v=127
9889 Off ch=6 n=f5 v=127
9890 On ch=3 n=d5 v=127
9999 Off ch=3 n=d5 v=127
9999 Off ch=3 n=d4 v=127
10000 On ch=5 n=e4 v=127
10000 On ch=8 n=g5 v=127
10109 Off ch=8 n=g5 v=127
10110 On ch=5 n=e5 v=127
10219 Off ch=5 n=e5 v=127
10219 Off ch=5 n=e4 v=127
10220 On ch=6 n=f4 v=127
10220 On ch=11 n=a5 v=127
10329 Off ch=11 n=a5 v=127
10330 On ch=6 n=f5 v=127
10439 Off ch=6 n=f5 v=127
10439 Off ch=6 n=f4 v=127
10440 On ch=8 n=g4 v=127
10440 On ch=5 n=e5 v=127
10549 Off ch=5 n=e5 v=127
10550 On ch=3 n=d5 v=127
10659 Off ch=3 n=d5 v=127
10659 Off ch=8 n=g4 v=127
10660 On ch=11 n=a4 v=127
10660 On ch=2 n=c#5 v=127
10767 Off ch=11 n=a4 v=127
10768 Off ch=2 n=c#5 v=127
10769 On ch=11 n=a4 v=127
10878 Off ch=11 n=a4 v=127
10879 On ch=13 n=b4 v=127
10879 On ch=3 n=d5 v=127
10986 Off ch=13 n=b4 v=127
10987 Off ch=3 n=d5 v=127
10988 On ch=13 n=b4 v=127
11097 Off ch=13 n=b4 v=127
11098 On ch=2 n=c#5 v=127
11098 On ch=5 n=e5 v=127
11205 Off ch=2 n=c#5 v=127
11206 Off ch=5 n=e5 v=127
11207 On ch=2 n=c#5 v=127
11316 Off ch=2 n=c#5 v=127
11317 On ch=3 n=d5 v=127
11317 On ch=6 n=f5 v=127
11424 Off ch=3 n=d5 v=127
11425 Off ch=6 n=f5 v=127
11426 On ch=3 n=d5 v=127
11535 Off ch=3 n=d5 v=127
11536 On ch=5 n=e5 v=127
11536 On ch=8 n=g5 v=127
11643 Off ch=5 n=e5 v=127
11644 Off ch=8 n=g5 v=127
11645 On ch=5 n=e5 v=127
11754 Off ch=5 n=e5 v=127
11755 On ch=6 n=f5 v=127
11755 On ch=11 n=a5 v=127
11862 Off ch=6 n=f5 v=127
11863 Off ch=11 n=a5 v=127
11864 On ch=6 n=f5 v=127
11973 Off ch=6 n=f5 v=127
11974 On ch=8 n=g5 v=127
11974 On ch=13 n=b5 v=127
12081 Off ch=8 n=g5 v=127
12082 Off ch=13 n=b5 v=127
12083 On ch=8 n=g5 v=127
12192 Off ch=8 n=g5 v=127
12193 On ch=11 n=a5 v=127
12193 On ch=2 n=c#6 v=127
12300 Off ch=11 n=a5 v=127
12301 Off ch=2 n=c#6 v=127
12302 On ch=11 n=a5 v=127
12411 Off ch=11 n=a5 v=127
12412 On ch=13 n=b5 v=127
12412 On ch=3 n=d6 v=127
12519 Off ch=13 n=b5 v=127
12520 Off ch=3 n=d6 v=127
12521 On ch=13 n=b5 v=127
12630 Off ch=13 n=b5 v=127
12631 On ch=2 n=c#6 v=127
12631 On ch=5 n=e6 v=127
12738 Off ch=2 n=c#6 v=127
12739 Off ch=5 n=e6 v=127
12740 On ch=2 n=c#6 v=127
12849 Off ch=2 n=c#6 v=127
12850 On ch=3 n=d6 v=127
12850 On ch=6 n=f6 v=127
12957 Off ch=3 n=d6 v=127
12958 Off ch=6 n=f6 v=127
12959 On ch=3 n=d6 v=127
13068 Off ch=3 n=d6 v=127
13069 On ch=5 n=e6 v=127
13069 On ch=8 n=g6 v=127
13176 Off ch=5 n=e6 v=127
13177 Off ch=8 n=g6 v=127
13178 On ch=5 n=e6 v=127
13287 Off ch=5 n=e6 v=127
13288 On ch=6 n=f6 v=127
13288 On ch=11 n=a6 v=127
13397 Off ch=6 n=f6 v=127
13398 On ch=3 n=d6 v=127
13507 Off ch=3 n=d6 v=127
13508 On ch=12 n=a#5 v=127
13617 Off ch=12 n=a#5 v=127
13618 On ch=8 n=g5 v=127
13727 Off ch=8 n=g5 v=127
13728 On ch=5 n=e6 v=127
13781 Off ch=11 n=a6 v=127
13783 On ch=8 n=g6 v=127
13837 Off ch=8 n=g6 v=127
13837 Off ch=5 n=e6 v=127
13838 On ch=2 n=c#6 v=127
13838 On ch=11 n=a6 v=127
13892 Off ch=11 n=a6 v=127
13893 On ch=8 n=g6 v=127
13947 Off ch=8 n=g6 v=127
13947 Off ch=2 n=c#6 v=127
13948 On ch=11 n=a5 v=127
13948 On ch=11 n=a6 v=127
14002 Off ch=11 n=a6 v=127
14003 On ch=8 n=g6 v=127
14057 Off ch=8 n=g6 v=127
14057 Off ch=11 n=a5 v=127
14058 On ch=2 n=c#6 v=127
14058 On ch=6 n=f6 v=127
14112 Off ch=6 n=f6 v=127
14113 On ch=8 n=g6 v=127
14167 Off ch=8 n=g6 v=127
14167 Off ch=2 n=c#6 v=127
14168 On ch=6 n=f6 v=127
14168 On ch=11 n=a6 v=127
14277 Off ch=6 n=f6 v=127
14278 On ch=3 n=d6 v=127
14387 Off ch=3 n=d6 v=127
14388 On ch=12 n=a#5 v=127
14497 Off ch=12 n=a#5 v=127
14498 On ch=8 n=g5 v=127
14607 Off ch=8 n=g5 v=127
14608 On ch=5 n=e6 v=127
14661 Off ch=11 n=a6 v=127
14663 On ch=8 n=g6 v=127
14717 Off ch=8 n=g6 v=127
14717 Off ch=5 n=e6 v=127
14718 On ch=2 n=c#6 v=127
14718 On ch=11 n=a6 v=127
14772 Off ch=11 n=a6 v=127
14773 On ch=8 n=g6 v=127
14827 Off ch=8 n=g6 v=127
14827 Off ch=2 n=c#6 v=127
14828 On ch=11 n=a5 v=127
14828 On ch=11 n=a6 v=127
14882 Off ch=11 n=a6 v=127
14883 On ch=8 n=g6 v=127
14937 Off ch=8 n=g6 v=127
14937 Off ch=11 n=a5 v=127
14938 On ch=2 n=c#6 v=127
14938 On ch=11 n=a6 v=127
14992 Off ch=11 n=a6 v=127
14993 On ch=8 n=g6 v=127
15047 Off ch=8 n=g6 v=127
15047 Off ch=2 n=c#6 v=127
15048 On ch=6 n=f6 v=127
15103 On ch=8 n=g6 v=127
15157 Off ch=8 n=g6 v=127
15157 Off ch=6 n=f6 v=127
15158 On ch=3 n=d6 v=127
15158 On ch=11 n=a6 v=127
15267 Off ch=3 n=d6 v=127
15268 On ch=12 n=a#5 v=127
15377 Off ch=12 n=a#5 v=127
15378 On ch=8 n=g5 v=127
15487 Off ch=8 n=g5 v=127
15488 On ch=5 n=e6 v=127
15541 Off ch=11 n=a6 v=127
15543 On ch=8 n=g6 v=127
15597 Off ch=8 n=g6 v=127
15597 Off ch=5 n=e6 v=127
15598 On ch=2 n=c#6 v=127
15598 On ch=11 n=a6 v=127
15652 Off ch=11 n=a6 v=127
15653 On ch=8 n=g6 v=127
15707 Off ch=8 n=g6 v=127
15707 Off ch=2 n=c#6 v=127
15708 On ch=11 n=a5 v=127
15708 On ch=11 n=a6 v=127
15762 Off ch=11 n=a6 v=127
15763 On ch=8 n=g6 v=127
15817 Off ch=8 n=g6 v=127
15817 Off ch=11 n=a5 v=127
15818 On ch=2 n=c#6 v=127
15818 On ch=6 n=f6 v=127
15872 Off ch=6 n=f6 v=127
15873 On ch=8 n=g6 v=127
15927 Off ch=8 n=g6 v=127
15927 Off ch=2 n=c#6 v=127
15928 On ch=3 n=d5 v=127
15928 On ch=3 n=d6 v=127
15928 On ch=6 n=f6 v=127
16037 Off ch=6 n=f6 v=127
16037 Off ch=3 n=d6 v=127
16038 On ch=3 n=d6 v=127
16147 Off ch=3 n=d6 v=127
16147 Off ch=3 n=d5 v=127
16148 On ch=5 n=e5 v=127
16148 On ch=8 n=g6 v=127
16257 Off ch=8 n=g6 v=127
16258 On ch=5 n=e6 v=127
16367 Off ch=5 n=e6 v=127
16367 Off ch=5 n=e5 v=127
16368 On ch=6 n=f5 v=127
16368 On ch=11 n=a6 v=127
16478 On ch=6 n=f6 v=127
16505 Off ch=11 n=a6 v=127
16586 Off ch=6 n=f6 v=127
16586 Off ch=6 n=f5 v=127
16587 On ch=8 n=g5 v=127
16587 On ch=5 n=e6 v=127
16696 Off ch=5 n=e6 v=127
16697 On ch=3 n=d6 v=127
16806 Off ch=3 n=d6 v=127
16806 Off ch=8 n=g5 v=127
16807 On ch=11 n=a4 v=127
16807 On ch=11 n=a5 v=127
16807 On ch=2 n=c#6 v=127
16914 Off ch=11 n=a5 v=127
16915 Off ch=2 n=c#6 v=127
16916 On ch=11 n=a5 v=127
17025 Off ch=11 n=a5 v=127
17025 Off ch=11 n=a4 v=127
17026 On ch=13 n=b4 v=127
17026 On ch=3 n=d6 v=127
17135 Off ch=3 n=d6 v=127
17136 On ch=13 n=b5 v=127
17245 Off ch=13 n=b5 v=127
17245 Off ch=13 n=b4 v=127
17246 On ch=2 n=c#5 v=127
17246 On ch=5 n=e6 v=127
17356 On ch=8 n=g5 v=127
17383 Off ch=5 n=e6 v=127
17464 Off ch=8 n=g5 v=127
17464 Off ch=2 n=c#5 v=127
17465 On ch=11 n=a4 v=127
17465 On ch=6 n=f5 v=127
17574 Off ch=6 n=f5 v=127
17575 On ch=5 n=e5 v=127
17684 Off ch=5 n=e5 v=127
17684 Off ch=11 n=a4 v=127
17685 On ch=3 n=d5 v=127
17685 On ch=3 n=d4 v=127
17685 On ch=6 n=f5 v=127
17792 Off ch=3 n=d5 v=127
17793 Off ch=6 n=f5 v=127
17794 On ch=3 n=d5 v=127
17903 Off ch=3 n=d5 v=127
17903 Off ch=3 n=d4 v=127
17904 On ch=5 n=e4 v=127
17904 On ch=8 n=g5 v=127
18013 Off ch=8 n=g5 v=127
18014 On ch=5 n=e5 v=127
18123 Off ch=5 n=e5 v=127
18123 Off ch=5 n=e4 v=127
18124 On ch=6 n=f4 v=127
18124 On ch=11 n=a5 v=127
18234 On ch=6 n=f5 v=127
18261 Off ch=11 n=a5 v=127
18342 Off ch=6 n=f5 v=127
18342 Off ch=6 n=f4 v=127
18343 On ch=8 n=g4 v=127
18343 On ch=5 n=e5 v=127
18452 Off ch=5 n=e5 v=127
18453 On ch=3 n=d5 v=127
18562 Off ch=3 n=d5 v=127
18562 Off ch=8 n=g4 v=127
18563 On ch=11 n=a4 v=127
18563 On ch=2 n=c#5 v=127
18670 Off ch=11 n=a4 v=127
18671 Off ch=2 n=c#5 v=127
18672 On ch=11 n=a4 v=127
18781 Off ch=11 n=a4 v=127
18782 On ch=13 n=b4 v=127
18782 On ch=3 n=d5 v=127
18889 Off ch=13 n=b4 v=127
18890 Off ch=3 n=d5 v=127
18891 On ch=13 n=b4 v=127
19000 Off ch=13 n=b4 v=127
19001 On ch=2 n=c#5 v=127
19001 On ch=5 n=e5 v=127
19108 Off ch=2 n=c#5 v=127
19109 Off ch=5 n=e5 v=127
19110 On ch=2 n=c#5 v=127
19219 Off ch=2 n=c#5 v=127
19220 On ch=3 n=d5 v=127
19220 On ch=6 n=f5 v=127
19327 Off ch=3 n=d5 v=127
19328 Off ch=6 n=f5 v=127
19329 On ch=3 n=d5 v=127
19438 Off ch=3 n=d5 v=127
19439 On ch=5 n=e4 v=127
19439 On ch=8 n=g5 v=127
19546 Off ch=8 n=g5 v=127
19547 Off ch=5 n=e4 v=127
19548 On ch=5 n=e5 v=127
19548 On ch=8 n=g5 v=127
19657 Off ch=8 n=g5 v=127
19657 Off ch=5 n=e5 v=127
19658 On ch=3 n=d5 v=127
19658 On ch=6 n=f5 v=127
19767 Off ch=6 n=f5 v=127
19767 Off ch=3 n=d5 v=127
19768 On ch=2 n=c#5 v=127
19768 On ch=5 n=e5 v=127
19877 Off ch=5 n=e5 v=127
19877 Off ch=2 n=c#5 v=127
19878 On ch=3 n=d5 v=127
19878 On ch=6 n=f5 v=127
20096 Off ch=6 n=f5 v=127
20096 Off ch=3 n=d5 v=127
20097 On ch=12 n=a#4 v=127
20097 On ch=11 n=a5 v=127
20151 Off ch=11 n=a5 v=127
20152 On ch=8 n=g5 v=127
20206 Off ch=8 n=g5 v=127
20207 On ch=6 n=f5 v=127
20261 Off ch=6 n=f5 v=127
20262 On ch=8 n=g5 v=127
20316 Off ch=8 n=g5 v=127
20316 Off ch=12 n=a#4 v=127
20317 On ch=11 n=a3 v=127
20317 On ch=11 n=a5 v=127
20426 Off ch=11 n=a5 v=127
20427 On ch=5 n=e5 v=127
20536 Off ch=5 n=e5 v=127
20537 On ch=6 n=f5 v=127
20646 Off ch=6 n=f5 v=127
20647 On ch=3 n=d5 v=127
20756 Off ch=3 n=d5 v=127
20757 On ch=5 n=e5 v=127
20866 Off ch=5 n=e5 v=127
20867 On ch=2 n=c#5 v=127
20976 Off ch=2 n=c#5 v=127
20976 Off ch=11 n=a3 v=127
20977 On ch=3 n=d5 v=127
20977 On ch=6 n=f5 v=127
21086 Off ch=3 n=d5 v=127
21087 On ch=13 n=b4 v=127
21196 Off ch=13 n=b4 v=127
21196 Off ch=6 n=f5 v=127
21197 On ch=2 n=c#5 v=127
21197 On ch=5 n=e5 v=127
21306 Off ch=2 n=c#5 v=127
21307 On ch=11 n=a4 v=127
21416 Off ch=11 n=a4 v=127
21416 Off ch=5 n=e5 v=127
21417 On ch=13 n=b4 v=127
21417 On ch=3 n=d5 v=127
21526 Off ch=13 n=b4 v=127
21527 On ch=9 n=g#4 v=127
21636 Off ch=9 n=g#4 v=127
21636 Off ch=3 n=d5 v=127
21637 On ch=11 n=a4 v=127
21637 On ch=2 n=c#5 v=127
21746 Off ch=11 n=a4 v=127
21747 On ch=5 n=e4 v=127
21856 Off ch=5 n=e4 v=127
21857 On ch=2 n=c#4 v=127
21966 Off ch=2 n=c#4 v=127
21967 On ch=5 n=e4 v=127
22076 Off ch=5 n=e4 v=127
22076 Off ch=2 n=c#5 v=127
22077 On ch=13 n=b3 v=127
22131 Off ch=13 n=b3 v=127
22132 On ch=11 n=a3 v=127
22186 Off ch=11 n=a3 v=127
22187 On ch=13 n=b3 v=127
22241 Off ch=13 n=b3 v=127
22242 On ch=11 n=a3 v=127
22955 On ch=11 n=a5 v=127
23064 Off ch=11 n=a5 v=127
23065 On ch=13 n=b5 v=127
23119 Off ch=11 n=a3 v=127
23174 Off ch=13 n=b5 v=127
23175 On ch=2 n=c#6 v=127
23284 Off ch=2 n=c#6 v=127
23285 On ch=3 n=d6 v=127
23394 Off ch=3 n=d6 v=127
23395 On ch=5 n=e6 v=127
23504 Off ch=5 n=e6 v=127
23505 On ch=2 n=c#6 v=127
23614 Off ch=2 n=c#6 v=127
23615 On ch=6 n=f6 v=127
23724 Off ch=6 n=f6 v=127
23725 On ch=3 n=d6 v=127
23834 Off ch=3 n=d6 v=127
23835 On ch=11 n=a4 v=127
23835 On ch=5 n=e6 v=127
23944 Off ch=11 n=a4 v=127
23945 On ch=13 n=b4 v=127
24054 Off ch=13 n=b4 v=127
24055 On ch=2 n=c#5 v=127
24164 Off ch=2 n=c#5 v=127
24165 On ch=3 n=d5 v=127
24274 Off ch=3 n=d5 v=127
24275 On ch=5 n=e5 v=127
24384 Off ch=5 n=e5 v=127
24385 On ch=2 n=c#5 v=127
24494 Off ch=2 n=c#5 v=127
24494 Off ch=5 n=e6 v=127
24495 On ch=6 n=f5 v=127
24495 On ch=11 n=a5 v=127
24604 Off ch=6 n=f5 v=127
24605 On ch=3 n=d5 v=127
24714 Off ch=3 n=d5 v=127
24714 Off ch=11 n=a5 v=127
24715 On ch=8 n=g5 v=127
24715 On ch=13 n=b5 v=127
24822 Off ch=8 n=g5 v=127
24823 Off ch=13 n=b5 v=127
24824 On ch=8 n=g5 v=127
24933 Off ch=8 n=g5 v=127
24934 On ch=11 n=a5 v=127
24934 On ch=2 n=c#6 v=127
25041 Off ch=11 n=a5 v=127
25042 Off ch=2 n=c#6 v=127
25043 On ch=11 n=a5 v=127
25152 Off ch=11 n=a5 v=127
25153 On ch=13 n=b5 v=127
25153 On ch=3 n=d6 v=127
25260 Off ch=13 n=b5 v=127
25261 Off ch=3 n=d6 v=127
25262 On ch=13 n=b5 v=127
25371 Off ch=13 n=b5 v=127
25372 On ch=2 n=c#6 v=127
25372 On ch=5 n=e6 v=127
25479 Off ch=2 n=c#6 v=127
25480 Off ch=5 n=e6 v=127
25481 On ch=2 n=c#6 v=127
25590 Off ch=2 n=c#6 v=127
25591 On ch=3 n=d5 v=127
25591 On ch=3 n=d6 v=127
25591 On ch=7 n=f#6 v=127
25698 Off ch=3 n=d6 v=127
25699 Off ch=7 n=f#6 v=127
25700 On ch=3 n=d6 v=127
25809 Off ch=3 n=d6 v=127
25809 Off ch=3 n=d5 v=127
25810 On ch=5 n=e5 v=127
25810 On ch=8 n=g6 v=127
25919 Off ch=8 n=g6 v=127
25920 On ch=5 n=e6 v=127
26029 Off ch=5 n=e6 v=127
26029 Off ch=5 n=e5 v=127
26030 On ch=7 n=f#5 v=127
26030 On ch=11 n=a6 v=127
26140 On ch=1 n=c6 v=127
26167 Off ch=11 n=a6 v=127
26248 Off ch=1 n=c6 v=127
26248 Off ch=7 n=f#5 v=127
26249 On ch=3 n=d5 v=127
26249 On ch=12 n=a#5 v=127
26358 Off ch=12 n=a#5 v=127
26359 On ch=11 n=a5 v=127
26468 Off ch=11 n=a5 v=127
26468 Off ch=3 n=d5 v=127
26469 On ch=8 n=g4 v=127
26469 On ch=8 n=g5 v=127
26469 On ch=12 n=a#5 v=127
26576 Off ch=8 n=g5 v=127
26577 Off ch=12 n=a#5 v=127
26578 On ch=8 n=g5 v=127
26687 Off ch=8 n=g5 v=127
26687 Off ch=8 n=g4 v=127
26688 On ch=11 n=a4 v=127
26688 On ch=1 n=c6 v=127
26797 Off ch=1 n=c6 v=127
26798 On ch=11 n=a5 v=127
26907 Off ch=11 n=a5 v=127
26907 Off ch=11 n=a4 v=127
26908 On ch=12 n=a#4 v=127
26908 On ch=3 n=d6 v=127
27018 On ch=12 n=a#5 v=127
27045 Off ch=3 n=d6 v=127
27126 Off ch=12 n=a#5 v=127
27126 Off ch=12 n=a#4 v=127
27127 On ch=1 n=c5 v=127
27127 On ch=11 n=a5 v=127
27236 Off ch=11 n=a5 v=127
27237 On ch=8 n=g5 v=127
27346 Off ch=8 n=g5 v=127
27346 Off ch=1 n=c5 v=127
27347 On ch=3 n=d4 v=127
27347 On ch=3 n=d5 v=127
27347 On ch=7 n=f#5 v=127
27454 Off ch=3 n=d5 v=127
27455 Off ch=7 n=f#5 v=127
27456 On ch=3 n=d5 v=127
27565 Off ch=3 n=d5 v=127
27565 Off ch=3 n=d4 v=127
27566 On ch=5 n=e4 v=127
27566 On ch=8 n=g5 v=127
27675 Off ch=8 n=g5 v=127
27676 On ch=5 n=e5 v=127
27785 Off ch=5 n=e5 v=127
27785 Off ch=5 n=e4 v=127
27786 On ch=7 n=f#4 v=127
27786 On ch=11 n=a5 v=127
27896 On ch=1 n=c5 v=127
27923 Off ch=11 n=a5 v=127
28004 Off ch=1 n=c5 v=127
28004 Off ch=7 n=f#4 v=127
28005 On ch=3 n=d4 v=127
28005 On ch=12 n=a#4 v=127
28114 Off ch=12 n=a#4 v=127
28115 On ch=11 n=a4 v=127
28224 Off ch=11 n=a4 v=127
28224 Off ch=3 n=d4 v=127
28225 On ch=8 n=g4 v=127
28225 On ch=12 n=a#4 v=127
28332 Off ch=8 n=g4 v=127
28333 Off ch=12 n=a#4 v=127
28334 On ch=8 n=g4 v=127
28443 Off ch=8 n=g4 v=127
28444 On ch=11 n=a4 v=127
28444 On ch=1 n=c5 v=127
28551 Off ch=11 n=a4 v=127
28552 Off ch=1 n=c5 v=127
28553 On ch=11 n=a4 v=127
28662 Off ch=11 n=a4 v=127
28663 On ch=12 n=a#4 v=127
28663 On ch=3 n=d5 v=127
28770 Off ch=12 n=a#4 v=127
28771 Off ch=3 n=d5 v=127
28772 On ch=12 n=a#4 v=127
28881 Off ch=12 n=a#4 v=127
28882 On ch=1 n=c5 v=127
28882 On ch=5 n=e5 v=127
28989 Off ch=1 n=c5 v=127
28990 Off ch=5 n=e5 v=127
28991 On ch=1 n=c5 v=127
29100 Off ch=1 n=c5 v=127
29101 On ch=3 n=d5 v=127
29101 On ch=6 n=f5 v=127
29208 Off ch=3 n=d5 v=127
29209 Off ch=6 n=f5 v=127
29210 On ch=3 n=d5 v=127
29319 Off ch=3 n=d5 v=127
29320 On ch=5 n=e5 v=127
29320 On ch=8 n=g5 v=127
29427 Off ch=5 n=e5 v=127
29428 Off ch=8 n=g5 v=127
29429 On ch=5 n=e5 v=127
29538 Off ch=5 n=e5 v=127
29539 On ch=6 n=f5 v=127
29539 On ch=11 n=a5 v=127
29646 Off ch=6 n=f5 v=127
29647 Off ch=11 n=a5 v=127
29648 On ch=6 n=f5 v=127
29757 Off ch=6 n=f5 v=127
29758 On ch=8 n=g5 v=127
29758 On ch=12 n=a#5 v=127
29865 Off ch=8 n=g5 v=127
29866 Off ch=12 n=a#5 v=127
29867 On ch=8 n=g5 v=127
29976 Off ch=8 n=g5 v=127
29977 On ch=11 n=a5 v=127
29977 On ch=1 n=c6 v=127
30086 Off ch=11 n=a5 v=127
30087 On ch=6 n=f5 v=127
30196 Off ch=6 n=f5 v=127
30197 On ch=3 n=d5 v=127
30306 Off ch=3 n=d5 v=127
30307 On ch=12 n=a#4 v=127
30416 Off ch=12 n=a#4 v=127
30417 On ch=8 n=g5 v=127
30470 Off ch=1 n=c6 v=127
30472 On ch=12 n=a#5 v=127
30526 Off ch=12 n=a#5 v=127
30526 Off ch=8 n=g5 v=127
30527 On ch=5 n=e5 v=127
30527 On ch=1 n=c6 v=127
30581 Off ch=1 n=c6 v=127
30582 On ch=12 n=a#5 v=127
30636 Off ch=12 n=a#5 v=127
30636 Off ch=5 n=e5 v=127
30637 On ch=1 n=c5 v=127
30637 On ch=1 n=c6 v=127
30691 Off ch=1 n=c6 v=127
30692 On ch=12 n=a#5 v=127
30746 Off ch=12 n=a#5 v=127
30746 Off ch=1 n=c5 v=127
30747 On ch=5 n=e5 v=127
30747 On ch=1 n=c6 v=127
30801 Off ch=1 n=c6 v=127
30802 On ch=12 n=a#5 v=127
30856 Off ch=12 n=a#5 v=127
30856 Off ch=5 n=e5 v=127
30857 On ch=11 n=a5 v=127
30912 On ch=12 n=a#5 v=127
30966 Off ch=12 n=a#5 v=127
30966 Off ch=11 n=a5 v=127
30967 On ch=6 n=f5 v=127
30967 On ch=1 n=c6 v=127
31076 Off ch=6 n=f5 v=127
31077 On ch=3 n=d5 v=127
31186 Off ch=3 n=d5 v=127
31187 On ch=12 n=a#4 v=127
31296 Off ch=12 n=a#4 v=127
31297 On ch=8 n=g5 v=127
31350 Off ch=1 n=c6 v=127
31352 On ch=12 n=a#5 v=127
31406 Off ch=12 n=a#5 v=127
31406 Off ch=8 n=g5 v=127
31407 On ch=5 n=e5 v=127
31407 On ch=1 n=c6 v=127
31461 Off ch=1 n=c6 v=127
31462 On ch=12 n=a#5 v=127
31516 Off ch=12 n=a#5 v=127
31516 Off ch=5 n=e5 v=127
31517 On ch=1 n=c5 v=127
31517 On ch=1 n=c6 v=127
31571 Off ch=1 n=c6 v=127
31572 On ch=12 n=a#5 v=127
31626 Off ch=12 n=a#5 v=127
31626 Off ch=1 n=c5 v=127
31627 On ch=5 n=e5 v=127
31627 On ch=11 n=a5 v=127
31681 Off ch=11 n=a5 v=127
31682 On ch=12 n=a#5 v=127
31736 Off ch=12 n=a#5 v=127
31736 Off ch=5 n=e5 v=127
31737 On ch=11 n=a5 v=127
31737 On ch=1 n=c6 v=127
31846 Off ch=11 n=a5 v=127
31847 On ch=6 n=f5 v=127
31956 Off ch=6 n=f5 v=127
31956 Off ch=1 n=c6 v=127
31957 On ch=3 n=d5 v=127
31957 On ch=6 n=f6 v=127
31957 On ch=11 n=a6 v=127
32066 Off ch=3 n=d5 v=127
32067 On ch=12 n=a#4 v=127
32176 Off ch=12 n=a#4 v=127
32176 Off ch=11 n=a6 v=127
32176 Off ch=6 n=f6 v=127
32177 On ch=8 n=g5 v=127
32177 On ch=12 n=a#5 v=127
32286 Off ch=8 n=g5 v=127
32287 On ch=5 n=e5 v=127
32396 Off ch=5 n=e5 v=127
32396 Off ch=12 n=a#5 v=127
32397 On ch=1 n=c5 v=127
32397 On ch=5 n=e6 v=127
32397 On ch=8 n=g6 v=127
32506 Off ch=1 n=c5 v=127
32507 On ch=5 n=e5 v=127
32616 Off ch=5 n=e5 v=127
32616 Off ch=8 n=g6 v=127
32616 Off ch=5 n=e6 v=127
32617 On ch=6 n=f5 v=127
32617 On ch=11 n=a5 v=127
32724 Off ch=6 n=f5 v=127
32725 Off ch=11 n=a5 v=127
32726 On ch=6 n=f5 v=127
32835 Off ch=6 n=f5 v=127
32836 On ch=6 n=f4 v=127
32836 On ch=1 n=c6 v=127
32945 Off ch=1 n=c6 v=127
32946 On ch=11 n=a5 v=127
33055 Off ch=11 n=a5 v=127
33055 Off ch=6 n=f4 v=127
33056 On ch=6 n=f4 v=127
33056 On ch=6 n=f6 v=127
33165 Off ch=6 n=f6 v=127
33166 On ch=1 n=c6 v=127
33275 Off ch=1 n=c6 v=127
33276 On ch=6 n=f3 v=127
33276 On ch=11 n=a6 v=127
33385 Off ch=11 n=a6 v=127
33386 On ch=6 n=f6 v=127
33491 Off ch=6 n=f4 v=127
33494 Off ch=6 n=f6 v=127
33494 Off ch=6 n=f3 v=127
33495 On ch=1 n=c4 v=127
33495 On ch=5 n=e6 v=127
33604 Off ch=5 n=e6 v=127
33605 On ch=8 n=g6 v=127
33714 Off ch=8 n=g6 v=127
33714 Off ch=1 n=c4 v=127
33715 On ch=1 n=c5 v=127
33715 On ch=1 n=c6 v=127
33824 Off ch=1 n=c6 v=127
33825 On ch=5 n=e6 v=127
33934 Off ch=5 n=e6 v=127
33934 Off ch=1 n=c5 v=127
33935 On ch=1 n=c5 v=127
33935 On ch=8 n=g5 v=127
34044 Off ch=8 n=g5 v=127
34045 On ch=1 n=c6 v=127
34154 Off ch=1 n=c6 v=127
34154 Off ch=1 n=c5 v=127
34155 On ch=7 n=f#5 v=127
34155 On ch=12 n=a#5 v=127
34264 Off ch=12 n=a#5 v=127
34265 On ch=11 n=a5 v=127
34374 Off ch=11 n=a5 v=127
34374 Off ch=7 n=f#5 v=127
34375 On ch=8 n=g5 v=127
34375 On ch=12 n=a#5 v=127
34482 Off ch=8 n=g5 v=127
34483 Off ch=12 n=a#5 v=127
34484 On ch=8 n=g5 v=127
34593 Off ch=8 n=g5 v=127
34594 On ch=8 n=g4 v=127
34594 On ch=3 n=d6 v=127
34703 Off ch=3 n=d6 v=127
34704 On ch=12 n=a#5 v=127
34813 Off ch=12 n=a#5 v=127
34813 Off ch=8 n=g4 v=127
34814 On ch=8 n=g4 v=127
34814 On ch=8 n=g6 v=127
34923 Off ch=8 n=g6 v=127
34924 On ch=3 n=d6 v=127
35033 Off ch=3 n=d6 v=127
35034 On ch=8 n=g3 v=127
35034 On ch=12 n=a#6 v=127
35143 Off ch=12 n=a#6 v=127
35144 On ch=8 n=g6 v=127
35249 Off ch=8 n=g4 v=127
35252 Off ch=8 n=g6 v=127
35252 Off ch=8 n=g3 v=127
35253 On ch=3 n=d4 v=127
35253 On ch=6 n=f6 v=127
35362 Off ch=6 n=f6 v=127
35363 On ch=11 n=a6 v=127
35472 Off ch=11 n=a6 v=127
35472 Off ch=3 n=d4 v=127
35473 On ch=3 n=d5 v=127
35473 On ch=3 n=d6 v=127
35582 Off ch=3 n=d6 v=127
35583 On ch=6 n=f6 v=127
35692 Off ch=6 n=f6 v=127
35692 Off ch=3 n=d5 v=127
35693 On ch=3 n=d5 v=127
35693 On ch=11 n=a5 v=127
35802 Off ch=11 n=a5 v=127
35803 On ch=3 n=d6 v=127
35912 Off ch=3 n=d6 v=127
35912 Off ch=3 n=d5 v=127
35913 On ch=9 n=g#5 v=127
35913 On ch=1 n=c6 v=127
36022 Off ch=1 n=c6 v=127
36023 On ch=13 n=b5 v=127
36132 Off ch=13 n=b5 v=127
36132 Off ch=9 n=g#5 v=127
36133 On ch=11 n=a5 v=127
36133 On ch=1 n=c6 v=127
36240 Off ch=11 n=a5 v=127
36241 Off ch=1 n=c6 v=127
36242 On ch=11 n=a5 v=127
36351 Off ch=11 n=a5 v=127
36352 On ch=11 n=a4 v=127
36352 On ch=5 n=e6 v=127
36461 Off ch=5 n=e6 v=127
36462 On ch=1 n=c6 v=127
36571 Off ch=1 n=c6 v=127
36571 Off ch=11 n=a4 v=127
36572 On ch=11 n=a4 v=127
36572 On ch=11 n=a6 v=127
36681 Off ch=11 n=a6 v=127
36682 On ch=5 n=e6 v=127
36791 Off ch=5 n=e6 v=127
36792 On ch=11 n=a3 v=127
36792 On ch=1 n=c7 v=127
36901 Off ch=1 n=c7 v=127
36902 On ch=11 n=a6 v=127
37007 Off ch=11 n=a4 v=127
37010 Off ch=11 n=a6 v=127
37010 Off ch=11 n=a3 v=127
37011 On ch=5 n=e4 v=127
37011 On ch=9 n=g#6 v=127
37120 Off ch=9 n=g#6 v=127
37121 On ch=13 n=b6 v=127
37230 Off ch=13 n=b6 v=127
37231 On ch=5 n=e3 v=127
37231 On ch=5 n=e6 v=127
37340 Off ch=5 n=e6 v=127
37341 On ch=9 n=g#6 v=127
37450 Off ch=9 n=g#6 v=127
37450 Off ch=5 n=e3 v=127
37451 On ch=5 n=e3 v=127
37451 On ch=13 n=b5 v=127
37560 Off ch=13 n=b5 v=127
37561 On ch=3 n=d6 v=127
37670 Off ch=3 n=d6 v=127
37670 Off ch=5 n=e3 v=127
37671 On ch=5 n=e3 v=127
37671 On ch=2 n=c#6 v=127
37780 Off ch=2 n=c#6 v=127
37781 On ch=13 n=b5 v=127
37890 Off ch=13 n=b5 v=127
37890 Off ch=5 n=e3 v=127
37890 Off ch=5 n=e4 v=127
37891 On ch=11 n=a3 v=127
37891 On ch=2 n=c#6 v=127
38109 Off ch=2 n=c#6 v=127
38109 Off ch=11 n=a3 v=127
38110 On ch=11 n=a5 v=127
38110 On ch=11 n=a6 v=127
38328 Off ch=11 n=a6 v=127
38328 Off ch=11 n=a5 v=127
38329 On ch=11 n=a5 v=127
38329 On ch=12 n=a#6 v=127
38383 Off ch=12 n=a#6 v=127
38384 On ch=11 n=a6 v=127
38438 Off ch=11 n=a6 v=127
38439 On ch=12 n=a#6 v=127
38493 Off ch=12 n=a#6 v=127
38494 On ch=11 n=a6 v=127
38548 Off ch=11 n=a6 v=127
38548 Off ch=11 n=a5 v=127
38549 On ch=11 n=a5 v=127
38549 On ch=12 n=a#6 v=127
38603 Off ch=12 n=a#6 v=127
38604 On ch=11 n=a6 v=127
38658 Off ch=11 n=a6 v=127
38659 On ch=12 n=a#6 v=127
38713 Off ch=12 n=a#6 v=127
38714 On ch=11 n=a6 v=127
38768 Off ch=11 n=a5 v=127
38769 On ch=6 n=f3 v=127
38878 Off ch=11 n=a6 v=127
38879 On ch=8 n=g6 v=127
38988 Off ch=8 n=g6 v=127
38988 Off ch=6 n=f3 v=127
38989 On ch=11 n=a5 v=127
38989 On ch=6 n=f5 v=127
38989 On ch=6 n=f6 v=127
39098 Off ch=6 n=f6 v=127
39099 On ch=5 n=e6 v=127
39208 Off ch=5 n=e6 v=127
39208 Off ch=6 n=f5 v=127
39208 Off ch=11 n=a5 v=127
39209 On ch=6 n=f5 v=127
39209 On ch=11 n=a5 v=127
39209 On ch=3 n=d6 v=127
39318 Off ch=3 n=d6 v=127
39319 On ch=1 n=c6 v=127
39428 Off ch=1 n=c6 v=127
39428 Off ch=11 n=a5 v=127
39428 Off ch=6 n=f5 v=127
39429 On ch=6 n=f5 v=127
39429 On ch=12 n=a#5 v=127
39538 Off ch=12 n=a#5 v=127
39539 On ch=11 n=a5 v=127
39648 Off ch=11 n=a5 v=127
39648 Off ch=6 n=f5 v=127
39649 On ch=8 n=g3 v=127
39649 On ch=12 n=a#5 v=127
39867 Off ch=12 n=a#5 v=127
39867 Off ch=8 n=g3 v=127
39868 On ch=12 n=a#5 v=127
39868 On ch=8 n=g5 v=127
39868 On ch=8 n=g6 v=127
40086 Off ch=8 n=g6 v=127
40086 Off ch=8 n=g5 v=127
40086 Off ch=12 n=a#5 v=127
40087 On ch=12 n=a#5 v=127
40087 On ch=8 n=g5 v=127
40087 On ch=11 n=a6 v=127
40141 Off ch=11 n=a6 v=127
40142 On ch=8 n=g6 v=127
40196 Off ch=8 n=g6 v=127
40197 On ch=11 n=a6 v=127
40251 Off ch=11 n=a6 v=127
40252 On ch=8 n=g6 v=127
40306 Off ch=8 n=g6 v=127
40306 Off ch=8 n=g5 v=127
40306 Off ch=12 n=a#5 v=127
40307 On ch=12 n=a#5 v=127
40307 On ch=8 n=g5 v=127
40307 On ch=11 n=a6 v=127
40361 Off ch=11 n=a6 v=127
40362 On ch=8 n=g6 v=127
40416 Off ch=8 n=g6 v=127
40417 On ch=11 n=a6 v=127
40471 Off ch=11 n=a6 v=127
40472 On ch=8 n=g6 v=127
40526 Off ch=8 n=g5 v=127
40526 Off ch=12 n=a#5 v=127
40527 On ch=5 n=e3 v=127
40636 Off ch=8 n=g6 v=127
40637 On ch=6 n=f6 v=127
40746 Off ch=6 n=f6 v=127
40746 Off ch=5 n=e3 v=127
40747 On ch=5 n=e5 v=127
40747 On ch=8 n=g5 v=127
40747 On ch=5 n=e6 v=127
40856 Off ch=5 n=e6 v=127
40857 On ch=3 n=d6 v=127
40966 Off ch=3 n=d6 v=127
40966 Off ch=8 n=g5 v=127
40966 Off ch=5 n=e5 v=127
40967 On ch=8 n=g5 v=127
40967 On ch=5 n=e5 v=127
40967 On ch=1 n=c6 v=127
41076 Off ch=1 n=c6 v=127
41077 On ch=12 n=a#5 v=127
41186 Off ch=12 n=a#5 v=127
41186 Off ch=5 n=e5 v=127
41186 Off ch=8 n=g5 v=127
41187 On ch=5 n=e5 v=127
41187 On ch=11 n=a5 v=127
41296 Off ch=11 n=a5 v=127
41297 On ch=8 n=g5 v=127
41406 Off ch=8 n=g5 v=127
41406 Off ch=5 n=e5 v=127
41407 On ch=6 n=f3 v=127
41407 On ch=11 n=a5 v=127
41625 Off ch=11 n=a5 v=127
41625 Off ch=6 n=f3 v=127
41626 On ch=6 n=f5 v=127
41626 On ch=11 n=a5 v=127
41626 On ch=6 n=f6 v=127
41844 Off ch=6 n=f6 v=127
41844 Off ch=11 n=a5 v=127
41844 Off ch=6 n=f5 v=127
41845 On ch=6 n=f5 v=127
41845 On ch=11 n=a5 v=127
41845 On ch=8 n=g6 v=127
41899 Off ch=8 n=g6 v=127
41900 On ch=6 n=f6 v=127
41954 Off ch=6 n=f6 v=127
41955 On ch=8 n=g6 v=127
42009 Off ch=8 n=g6 v=127
42010 On ch=6 n=f6 v=127
42064 Off ch=6 n=f6 v=127
42064 Off ch=11 n=a5 v=127
42064 Off ch=6 n=f5 v=127
42065 On ch=6 n=f5 v=127
42065 On ch=11 n=a5 v=127
42065 On ch=8 n=g6 v=127
42119 Off ch=8 n=g6 v=127
42120 On ch=6 n=f6 v=127
42174 Off ch=6 n=f6 v=127
42175 On ch=8 n=g6 v=127
42229 Off ch=8 n=g6 v=127
42230 On ch=6 n=f6 v=127
42284 Off ch=11 n=a5 v=127
42284 Off ch=6 n=f5 v=127
42285 On ch=3 n=d3 v=127
42394 Off ch=6 n=f6 v=127
42395 On ch=5 n=e6 v=127
42504 Off ch=5 n=e6 v=127
42504 Off ch=3 n=d3 v=127
42505 On ch=3 n=d5 v=127
42505 On ch=6 n=f5 v=127
42505 On ch=3 n=d6 v=127
42614 Off ch=3 n=d6 v=127
42615 On ch=1 n=c6 v=127
42724 Off ch=1 n=c6 v=127
42724 Off ch=6 n=f5 v=127
42724 Off ch=3 n=d5 v=127
42725 On ch=6 n=f5 v=127
42725 On ch=3 n=d5 v=127
42725 On ch=12 n=a#5 v=127
42834 Off ch=12 n=a#5 v=127
42835 On ch=11 n=a5 v=127
42944 Off ch=11 n=a5 v=127
42944 Off ch=3 n=d5 v=127
42944 Off ch=6 n=f5 v=127
42945 On ch=3 n=d5 v=127
42945 On ch=8 n=g5 v=127
43054 Off ch=8 n=g5 v=127
43055 On ch=6 n=f5 v=127
43164 Off ch=6 n=f5 v=127
43164 Off ch=3 n=d5 v=127
43165 On ch=5 n=e3 v=127
43165 On ch=8 n=g5 v=127
43383 Off ch=8 n=g5 v=127
43383 Off ch=5 n=e3 v=127
43384 On ch=8 n=g5 v=127
43384 On ch=5 n=e5 v=127
43384 On ch=5 n=e6 v=127
43602 Off ch=5 n=e6 v=127
43602 Off ch=5 n=e5 v=127
43602 Off ch=8 n=g5 v=127
43603 On ch=8 n=g5 v=127
43603 On ch=5 n=e5 v=127
43603 On ch=6 n=f6 v=127
43657 Off ch=6 n=f6 v=127
43658 On ch=5 n=e6 v=127
43712 Off ch=5 n=e6 v=127
43713 On ch=6 n=f6 v=127
43767 Off ch=6 n=f6 v=127
43768 On ch=5 n=e6 v=127
43822 Off ch=5 n=e6 v=127
43822 Off ch=5 n=e5 v=127
43822 Off ch=8 n=g5 v=127
43823 On ch=8 n=g5 v=127
43823 On ch=5 n=e5 v=127
43823 On ch=6 n=f6 v=127
43877 Off ch=6 n=f6 v=127
43878 On ch=5 n=e6 v=127
43932 Off ch=5 n=e6 v=127
43933 On ch=6 n=f6 v=127
43987 Off ch=6 n=f6 v=127
43988 On ch=5 n=e6 v=127
44042 Off ch=5 n=e5 v=127
44042 Off ch=8 n=g5 v=127
44043 On ch=11 n=a3 v=127
44152 Off ch=5 n=e6 v=127
44153 On ch=3 n=d6 v=127
44262 Off ch=3 n=d6 v=127
44262 Off ch=11 n=a3 v=127
44263 On ch=11 n=a4 v=127
44263 On ch=5 n=e5 v=127
44263 On ch=2 n=c#6 v=127
44372 Off ch=2 n=c#6 v=127
44373 On ch=13 n=b5 v=127
44482 Off ch=13 n=b5 v=127
44482 Off ch=5 n=e5 v=127
44482 Off ch=11 n=a4 v=127
44483 On ch=5 n=e5 v=127
44483 On ch=11 n=a4 v=127
44483 On ch=11 n=a5 v=127
44592 Off ch=11 n=a5 v=127
44593 On ch=8 n=g5 v=127
44702 Off ch=8 n=g5 v=127
44702 Off ch=11 n=a4 v=127
44702 Off ch=5 n=e5 v=127
44703 On ch=11 n=a4 v=127
44703 On ch=6 n=f5 v=127
44812 Off ch=6 n=f5 v=127
44813 On ch=5 n=e5 v=127
44922 Off ch=5 n=e5 v=127
44922 Off ch=11 n=a4 v=127
44923 On ch=3 n=d5 v=127
44923 On ch=6 n=f5 v=127
44923 On ch=3 n=d6 v=127
45030 Off ch=3 n=d5 v=127
45031 Off ch=6 n=f5 v=127
45032 On ch=3 n=d5 v=127
45141 Off ch=3 n=d5 v=127
45142 On ch=5 n=e5 v=127
45142 On ch=8 n=g5 v=127
45249 Off ch=5 n=e5 v=127
45250 Off ch=8 n=g5 v=127
45251 On ch=5 n=e5 v=127
45360 Off ch=5 n=e5 v=127
45361 On ch=6 n=f5 v=127
45361 On ch=11 n=a5 v=127
45468 Off ch=6 n=f5 v=127
45469 Off ch=11 n=a5 v=127
45470 On ch=6 n=f5 v=127
45579 Off ch=6 n=f5 v=127
45580 On ch=8 n=g5 v=127
45580 On ch=12 n=a#5 v=127
45687 Off ch=8 n=g5 v=127
45688 Off ch=12 n=a#5 v=127
45689 On ch=8 n=g5 v=127
45798 Off ch=8 n=g5 v=127
45798 Off ch=3 n=d6 v=127
45799 On ch=3 n=d5 v=127
45799 On ch=3 n=d6 v=127
45799 On ch=6 n=f5 v=127
45906 Off ch=3 n=d5 v=127
45907 Off ch=6 n=f5 v=127
45908 On ch=3 n=d5 v=127
46017 Off ch=3 n=d5 v=127
46018 On ch=5 n=e5 v=127
46018 On ch=8 n=g5 v=127
46125 Off ch=5 n=e5 v=127
46126 Off ch=8 n=g5 v=127
46127 On ch=5 n=e5 v=127
46236 Off ch=5 n=e5 v=127
46237 On ch=6 n=f5 v=127
46237 On ch=11 n=a5 v=127
46344 Off ch=6 n=f5 v=127
46345 Off ch=11 n=a5 v=127
46346 On ch=6 n=f5 v=127
46455 Off ch=6 n=f5 v=127
46456 On ch=8 n=g5 v=127
46456 On ch=12 n=a#5 v=127
46563 Off ch=8 n=g5 v=127
46564 Off ch=12 n=a#5 v=127
46565 On ch=8 n=g5 v=127
46674 Off ch=8 n=g5 v=127
46674 Off ch=3 n=d6 v=127
46675 On ch=3 n=d5 v=127
46675 On ch=3 n=d6 v=127
46675 On ch=6 n=f5 v=127
46782 Off ch=3 n=d5 v=127
46783 Off ch=6 n=f5 v=127
46784 On ch=3 n=d5 v=127
46893 Off ch=3 n=d5 v=127
46894 On ch=5 n=e5 v=127
46894 On ch=8 n=g5 v=127
47001 Off ch=5 n=e5 v=127
47002 Off ch=8 n=g5 v=127
47003 On ch=5 n=e5 v=127
47112 Off ch=5 n=e5 v=127
47113 On ch=6 n=f5 v=127
47113 On ch=11 n=a5 v=127
47220 Off ch=6 n=f5 v=127
47221 Off ch=11 n=a5 v=127
47222 On ch=6 n=f5 v=127
47331 Off ch=6 n=f5 v=127
47332 On ch=8 n=g5 v=127
47332 On ch=12 n=a#5 v=127
47439 Off ch=8 n=g5 v=127
47440 Off ch=12 n=a#5 v=127
47441 On ch=8 n=g5 v=127
47550 Off ch=8 n=g5 v=127
47550 Off ch=3 n=d6 v=127
47551 On ch=6 n=f5 v=127
47551 On ch=11 n=a5 v=127
47660 Off ch=6 n=f5 v=127
47661 On ch=3 n=d5 v=127
47770 Off ch=3 n=d5 v=127
47770 Off ch=11 n=a5 v=127
47771 On ch=12 n=a#4 v=127
47771 On ch=3 n=d6 v=127
47771 On ch=6 n=f6 v=127
47880 Off ch=12 n=a#4 v=127
47881 On ch=8 n=g4 v=127
47990 Off ch=8 n=g4 v=127
47990 Off ch=3 n=d6 v=127
47991 On ch=5 n=e5 v=127
47991 On ch=8 n=g5 v=127
48100 Off ch=5 n=e5 v=127
48101 On ch=2 n=c#5 v=127
48210 Off ch=2 n=c#5 v=127
48210 Off ch=8 n=g5 v=127
48210 Off ch=6 n=f6 v=127
48211 On ch=11 n=a4 v=127
48211 On ch=2 n=c#6 v=127
48211 On ch=5 n=e6 v=127
48320 Off ch=11 n=a4 v=127
48321 On ch=2 n=c#5 v=127
48430 Off ch=2 n=c#5 v=127
48430 Off ch=2 n=c#6 v=127
48431 On ch=6 n=f5 v=127
48431 On ch=11 n=a5 v=127
48540 Off ch=6 n=f5 v=127
48541 Off ch=5 n=e6 v=127
48541 On ch=3 n=d5 v=127
48650 Off ch=3 n=d5 v=127
48650 Off ch=11 n=a5 v=127
48651 On ch=12 n=a#4 v=127
48651 On ch=6 n=f6 v=127
48651 On ch=3 n=d6 v=127
48760 Off ch=12 n=a#4 v=127
48761 On ch=8 n=g4 v=127
48870 Off ch=8 n=g4 v=127
48870 Off ch=3 n=d6 v=127
48871 On ch=5 n=e5 v=127
48871 On ch=8 n=g5 v=127
48980 Off ch=5 n=e5 v=127
48981 On ch=2 n=c#5 v=127
49090 Off ch=2 n=c#5 v=127
49090 Off ch=8 n=g5 v=127
49090 Off ch=6 n=f6 v=127
49091 On ch=11 n=a4 v=127
49091 On ch=2 n=c#6 v=127
49091 On ch=5 n=e6 v=127
49200 Off ch=11 n=a4 v=127
49201 On ch=2 n=c#5 v=127
49310 Off ch=2 n=c#5 v=127
49310 Off ch=2 n=c#6 v=127
49311 On ch=6 n=f5 v=127
49311 On ch=11 n=a5 v=127
49420 Off ch=6 n=f5 v=127
49421 Off ch=5 n=e6 v=127
49421 On ch=3 n=d5 v=127
49530 Off ch=3 n=d5 v=127
49530 Off ch=11 n=a5 v=127
49531 On ch=12 n=a#4 v=127
49531 On ch=6 n=f6 v=127
49531 On ch=3 n=d6 v=127
49640 Off ch=12 n=a#4 v=127
49641 On ch=8 n=g4 v=127
49750 Off ch=8 n=g4 v=127
49750 Off ch=3 n=d6 v=127
49751 On ch=5 n=e5 v=127
49751 On ch=8 n=g5 v=127
49860 Off ch=5 n=e5 v=127
49861 Off ch=6 n=f6 v=127
49861 On ch=2 n=c#5 v=127
49970 Off ch=2 n=c#5 v=127
49970 Off ch=8 n=g5 v=127
49971 On ch=11 n=a4 v=127
49971 On ch=2 n=c#6 v=127
49971 On ch=5 n=e6 v=127
50080 Off ch=11 n=a4 v=127
50081 On ch=2 n=c#5 v=127
50190 Off ch=2 n=c#5 v=127
50190 Off ch=5 n=e6 v=127
50190 Off ch=2 n=c#6 v=127
50191 On ch=3 n=d4 v=127
50191 On ch=3 n=d5 v=127
50191 On ch=6 n=f5 v=127
50191 On ch=3 n=d6 v=127
50298 Off ch=3 n=d5 v=127
50299 Off ch=6 n=f5 v=127
50300 On ch=3 n=d5 v=127
50407 Off ch=3 n=d6 v=127
50408 Off ch=3 n=d5 v=127
50408 Off ch=3 n=d4 v=127
50409 On ch=5 n=e4 v=127
50409 On ch=8 n=g5 v=127
50518 Off ch=8 n=g5 v=127
50519 On ch=5 n=e5 v=127
50628 Off ch=5 n=e5 v=127
50628 Off ch=5 n=e4 v=127
50629 On ch=6 n=f4 v=127
50629 On ch=11 n=a5 v=127
50738 Off ch=11 n=a5 v=127
50739 On ch=6 n=f5 v=127
50848 Off ch=6 n=f5 v=127
50848 Off ch=6 n=f4 v=127
50849 On ch=8 n=g4 v=127
50849 On ch=13 n=b5 v=127
50958 Off ch=13 n=b5 v=127
50959 On ch=8 n=g5 v=127
51068 Off ch=8 n=g5 v=127
51068 Off ch=8 n=g4 v=127
51069 On ch=11 n=a4 v=127
51069 On ch=2 n=c#6 v=127
51178 Off ch=2 n=c#6 v=127
51179 On ch=11 n=a5 v=127
51288 Off ch=11 n=a5 v=127
51288 Off ch=11 n=a4 v=127
51289 On ch=8 n=g4 v=127
51289 On ch=3 n=d6 v=127
51398 Off ch=3 n=d6 v=127
51399 On ch=5 n=e6 v=127
51508 Off ch=5 n=e6 v=127
51508 Off ch=8 n=g4 v=127
51509 On ch=11 n=a4 v=127
51509 On ch=6 n=f6 v=127
51618 Off ch=6 n=f6 v=127
51619 On ch=3 n=d6 v=127
51728 Off ch=3 n=d6 v=127
51729 On ch=11 n=a3 v=127
51729 On ch=5 n=e6 v=127
51838 Off ch=5 n=e6 v=127
51839 On ch=2 n=c#6 v=127
51944 Off ch=11 n=a4 v=127
51947 Off ch=2 n=c#6 v=127
51947 Off ch=11 n=a3 v=127
51948 On ch=3 n=d4 v=127
51948 On ch=3 n=d6 v=127
52057 Off ch=3 n=d6 v=127
52058 On ch=11 n=a5 v=127
52167 Off ch=11 n=a5 v=127
52168 On ch=12 n=a#5 v=127
52277 Off ch=12 n=a#5 v=127
52278 On ch=8 n=g5 v=127
52387 Off ch=8 n=g5 v=127
52388 On ch=11 n=a5 v=127
52497 Off ch=11 n=a5 v=127
52498 On ch=6 n=f5 v=127
52607 Off ch=6 n=f5 v=127
52607 Off ch=3 n=d4 v=127
52608 On ch=8 n=g5 v=127
52608 On ch=12 n=a#5 v=127
52717 Off ch=8 n=g5 v=127
52718 On ch=5 n=e5 v=127
52827 Off ch=5 n=e5 v=127
52827 Off ch=12 n=a#5 v=127
52828 On ch=6 n=f5 v=127
52828 On ch=11 n=a5 v=127
52937 Off ch=6 n=f5 v=127
52938 On ch=3 n=d5 v=127
53047 Off ch=3 n=d5 v=127
53047 Off ch=11 n=a5 v=127
53048 On ch=5 n=e5 v=127
53048 On ch=8 n=g5 v=127
53157 Off ch=5 n=e5 v=127
53158 On ch=2 n=c#5 v=127
53267 Off ch=2 n=c#5 v=127
53267 Off ch=8 n=g5 v=127
53268 On ch=3 n=d5 v=127
53268 On ch=6 n=f5 v=127
53377 Off ch=3 n=d5 v=127
53378 On ch=11 n=a4 v=127
53487 Off ch=11 n=a4 v=127
53488 On ch=6 n=f4 v=127
53597 Off ch=6 n=f4 v=127
53598 Off ch=6 n=f5 v=127
53598 On ch=11 n=a4 v=127
53707 Off ch=11 n=a4 v=127
53708 On ch=5 n=e4 v=127
53762 Off ch=5 n=e4 v=127
53763 On ch=3 n=d4 v=127
53817 Off ch=3 n=d4 v=127
53818 On ch=5 n=e4 v=127
53872 Off ch=5 n=e4 v=127
53873 On ch=3 n=d4 v=127
55587 Off ch=3 n=d4 v=127
59904 Meta TrkEnd
TrkEnd
