MFile 0 1 384
MTrk
0 Meta Copyright "(C) John Sankey 1998"
0 PrCh ch=1 p=6
0 Pb ch=1 v=8192
0 PrCh ch=2 p=6
0 Pb ch=2 v=7602
0 PrCh ch=3 p=6
0 Pb ch=3 v=7920
0 PrCh ch=4 p=6
0 Pb ch=4 v=7839
0 PrCh ch=5 p=6
0 Pb ch=5 v=7632
0 PrCh ch=6 p=6
0 Pb ch=6 v=8112
0 PrCh ch=7 p=6
0 Pb ch=7 v=7567
0 PrCh ch=8 p=6
0 Pb ch=8 v=8062
0 PrCh ch=9 p=6
0 Pb ch=9 v=7680
0 PrCh ch=11 p=6
0 Pb ch=11 v=7728
0 PrCh ch=12 p=6
0 Pb ch=12 v=7984
0 PrCh ch=13 p=6
0 Pb ch=13 v=7639
0 Tempo 500000
128 On ch=8 n=g6 v=127
384 On ch=8 n=g5 v=127
635 Off ch=8 n=g5 v=127
635 Off ch=8 n=g6 v=127
640 On ch=8 n=g5 v=127
891 Off ch=8 n=g5 v=127
896 On ch=8 n=g4 v=127
896 On ch=11 n=a5 v=127
959 Off ch=11 n=a5 v=127
960 On ch=8 n=g5 v=127
1023 Off ch=8 n=g5 v=127
1024 On ch=11 n=a5 v=127
1087 Off ch=11 n=a5 v=127
1088 On ch=8 n=g5 v=127
1151 Off ch=8 n=g5 v=127
1152 On ch=8 n=g3 v=127
1152 On ch=11 n=a5 v=127
1215 Off ch=11 n=a5 v=127
1216 Off ch=8 n=g4 v=127
1216 On ch=8 n=g5 v=127
1279 Off ch=8 n=g5 v=127
1280 On ch=11 n=a5 v=127
1343 Off ch=11 n=a5 v=127
1344 On ch=8 n=g5 v=127
1403 Off ch=8 n=g3 v=127
1407 Off ch=8 n=g5 v=127
1408 On ch=8 n=g3 v=127
1408 On ch=11 n=a5 v=127
1471 Off ch=11 n=a5 v=127
1472 On ch=8 n=g5 v=127
1535 Off ch=8 n=g5 v=127
1536 On ch=11 n=a5 v=127
1599 Off ch=11 n=a5 v=127
1600 On ch=8 n=g5 v=127
1659 Off ch=8 n=g3 v=127
1664 On ch=8 n=g3 v=127
1792 On ch=3 n=d5 v=127
1827 Off ch=8 n=g5 v=127
1920 On ch=13 n=b5 v=127
1952 Off ch=3 n=d5 v=127
2048 On ch=8 n=g5 v=127
2080 Off ch=13 n=b5 v=127
2176 On ch=3 n=d6 v=127
2208 Off ch=8 n=g5 v=127
2304 On ch=13 n=b5 v=127
2336 Off ch=3 n=d6 v=127
2431 Off ch=13 n=b5 v=127
2431 Off ch=8 n=g3 v=127
2432 On ch=8 n=g4 v=127
2432 On ch=8 n=g6 v=127
2559 Off ch=8 n=g4 v=127
2560 On ch=3 n=d4 v=127
2687 Off ch=3 n=d4 v=127
2688 On ch=13 n=b4 v=127
2815 Off ch=13 n=b4 v=127
2816 On ch=8 n=g4 v=127
2943 Off ch=8 n=g4 v=127
2944 On ch=3 n=d5 v=127
3071 Off ch=3 n=d5 v=127
3072 On ch=13 n=b4 v=127
3152 Off ch=8 n=g6 v=127
3199 Off ch=13 n=b4 v=127
3200 On ch=8 n=g5 v=127
3200 On ch=13 n=b5 v=127
3451 Off ch=13 n=b5 v=127
3451 Off ch=8 n=g5 v=127
3456 On ch=11 n=a5 v=127
3456 On ch=1 n=c6 v=127
3707 Off ch=1 n=c6 v=127
3707 Off ch=11 n=a5 v=127
3712 On ch=13 n=b5 v=127
3712 On ch=3 n=d6 v=127
3963 Off ch=13 n=b5 v=127
3968 On ch=11 n=a5 v=127
4032 Off ch=3 n=d6 v=127
4032 On ch=1 n=c6 v=127
4095 Off ch=1 n=c6 v=127
4096 On ch=3 n=d6 v=127
4159 Off ch=3 n=d6 v=127
4160 On ch=1 n=c6 v=127
4219 Off ch=11 n=a5 v=127
4223 Off ch=1 n=c6 v=127
4224 On ch=7 n=f#5 v=127
4224 On ch=3 n=d6 v=127
4287 Off ch=3 n=d6 v=127
4288 On ch=1 n=c6 v=127
4351 Off ch=1 n=c6 v=127
4352 On ch=13 n=b5 v=127
4415 Off ch=13 n=b5 v=127
4416 On ch=1 n=c6 v=127
4475 Off ch=7 n=f#5 v=127
4479 Off ch=1 n=c6 v=127
4480 On ch=8 n=g5 v=127
4480 On ch=13 n=b5 v=127
4731 Off ch=13 n=b5 v=127
4731 Off ch=8 n=g5 v=127
4736 On ch=1 n=c5 v=127
4736 On ch=1 n=c6 v=127
4864 On ch=11 n=a6 v=127
4896 Off ch=1 n=c6 v=127
4987 Off ch=1 n=c5 v=127
4992 On ch=3 n=d5 v=127
4992 On ch=13 n=b5 v=127
5024 Off ch=11 n=a6 v=127
5120 On ch=8 n=g6 v=127
5152 Off ch=13 n=b5 v=127
5243 Off ch=3 n=d5 v=127
5248 On ch=7 n=f#5 v=127
5248 On ch=11 n=a5 v=127
5280 Off ch=8 n=g6 v=127
5376 On ch=7 n=f#6 v=127
5408 Off ch=11 n=a5 v=127
5499 Off ch=7 n=f#5 v=127
5504 On ch=8 n=g5 v=127
5504 On ch=13 n=b5 v=127
5536 Off ch=7 n=f#6 v=127
5632 On ch=8 n=g6 v=127
5664 Off ch=13 n=b5 v=127
5757 Off ch=8 n=g5 v=127
5760 On ch=3 n=d5 v=127
5760 On ch=11 n=a5 v=127
5792 Off ch=8 n=g6 v=127
5888 On ch=7 n=f#6 v=127
5920 Off ch=11 n=a5 v=127
6011 Off ch=3 n=d5 v=127
6015 Off ch=7 n=f#6 v=127
6016 On ch=8 n=g4 v=127
6016 On ch=8 n=g6 v=127
6267 Off ch=8 n=g6 v=127
6267 Off ch=8 n=g4 v=127
6272 On ch=8 n=g5 v=127
6272 On ch=13 n=b5 v=127
6523 Off ch=13 n=b5 v=127
6523 Off ch=8 n=g5 v=127
6528 On ch=11 n=a5 v=127
6528 On ch=1 n=c6 v=127
6779 Off ch=1 n=c6 v=127
6779 Off ch=11 n=a5 v=127
6784 On ch=13 n=b5 v=127
6784 On ch=3 n=d6 v=127
7035 Off ch=13 n=b5 v=127
7040 On ch=11 n=a5 v=127
7104 Off ch=3 n=d6 v=127
7104 On ch=1 n=c6 v=127
7167 Off ch=1 n=c6 v=127
7168 On ch=3 n=d6 v=127
7231 Off ch=3 n=d6 v=127
7232 On ch=1 n=c6 v=127
7291 Off ch=11 n=a5 v=127
7295 Off ch=1 n=c6 v=127
7296 On ch=7 n=f#5 v=127
7296 On ch=3 n=d6 v=127
7359 Off ch=3 n=d6 v=127
7360 On ch=1 n=c6 v=127
7423 Off ch=1 n=c6 v=127
7424 On ch=13 n=b5 v=127
7487 Off ch=13 n=b5 v=127
7488 On ch=1 n=c6 v=127
7547 Off ch=7 n=f#5 v=127
7551 Off ch=1 n=c6 v=127
7552 On ch=8 n=g5 v=127
7552 On ch=13 n=b5 v=127
7803 Off ch=13 n=b5 v=127
7803 Off ch=8 n=g5 v=127
7808 On ch=1 n=c5 v=127
7808 On ch=1 n=c6 v=127
7936 On ch=11 n=a6 v=127
7947 Off ch=1 n=c6 v=127
8059 Off ch=1 n=c5 v=127
8064 On ch=3 n=d5 v=127
8064 On ch=13 n=b5 v=127
8075 Off ch=11 n=a6 v=127
8192 On ch=8 n=g6 v=127
8203 Off ch=13 n=b5 v=127
8315 Off ch=3 n=d5 v=127
8320 On ch=3 n=d4 v=127
8320 On ch=11 n=a5 v=127
8331 Off ch=8 n=g6 v=127
8448 On ch=7 n=f#6 v=127
8459 Off ch=11 n=a5 v=127
8571 Off ch=3 n=d4 v=127
8576 On ch=8 n=g4 v=127
8576 On ch=13 n=b5 v=127
8587 Off ch=7 n=f#6 v=127
8704 On ch=8 n=g6 v=127
8715 Off ch=13 n=b5 v=127
8832 On ch=3 n=d4 v=127
8832 On ch=11 n=a5 v=127
8843 Off ch=8 n=g6 v=127
8960 On ch=7 n=f#6 v=127
8971 Off ch=11 n=a5 v=127
9083 Off ch=3 n=d4 v=127
9083 Off ch=8 n=g4 v=127
9087 Off ch=7 n=f#6 v=127
9088 On ch=8 n=g3 v=127
9088 On ch=8 n=g6 v=127
9339 Off ch=8 n=g6 v=127
9339 Off ch=8 n=g3 v=127
9344 On ch=13 n=b5 v=127
9344 On ch=8 n=g6 v=127
9471 Off ch=13 n=b5 v=127
9472 On ch=3 n=d6 v=127
9595 Off ch=8 n=g6 v=127
9599 Off ch=3 n=d6 v=127
9600 On ch=11 n=a5 v=127
9600 On ch=7 n=f#6 v=127
9727 Off ch=11 n=a5 v=127
9728 On ch=3 n=d6 v=127
9851 Off ch=7 n=f#6 v=127
9855 Off ch=3 n=d6 v=127
9856 On ch=8 n=g5 v=127
9856 On ch=5 n=e6 v=127
9983 Off ch=8 n=g5 v=127
9984 On ch=2 n=c#6 v=127
10107 Off ch=5 n=e6 v=127
10111 Off ch=2 n=c#6 v=127
10112 On ch=7 n=f#5 v=127
10112 On ch=11 n=a6 v=127
10240 On ch=3 n=d6 v=127
10272 Off ch=11 n=a6 v=127
10367 Off ch=3 n=d6 v=127
10368 On ch=5 n=e6 v=127
10496 On ch=2 n=c#6 v=127
10515 Off ch=5 n=e6 v=127
10623 Off ch=2 n=c#6 v=127
10623 Off ch=7 n=f#5 v=127
10624 On ch=3 n=d6 v=127
10752 On ch=11 n=a5 v=127
10879 Off ch=11 n=a5 v=127
10879 Off ch=3 n=d6 v=127
10880 On ch=13 n=b5 v=127
10880 On ch=8 n=g6 v=127
11007 Off ch=13 n=b5 v=127
11008 On ch=3 n=d6 v=127
11131 Off ch=8 n=g6 v=127
11135 Off ch=3 n=d6 v=127
11136 On ch=11 n=a5 v=127
11136 On ch=7 n=f#6 v=127
11263 Off ch=11 n=a5 v=127
11264 On ch=3 n=d6 v=127
11387 Off ch=7 n=f#6 v=127
11391 Off ch=3 n=d6 v=127
11392 On ch=8 n=g5 v=127
11392 On ch=5 n=e6 v=127
11519 Off ch=8 n=g5 v=127
11520 On ch=2 n=c#6 v=127
11643 Off ch=5 n=e6 v=127
11647 Off ch=2 n=c#6 v=127
11648 On ch=7 n=f#5 v=127
11648 On ch=11 n=a6 v=127
11776 On ch=3 n=d6 v=127
11808 Off ch=11 n=a6 v=127
11903 Off ch=3 n=d6 v=127
11904 On ch=5 n=e6 v=127
12032 On ch=2 n=c#6 v=127
12051 Off ch=5 n=e6 v=127
12159 Off ch=2 n=c#6 v=127
12159 Off ch=7 n=f#5 v=127
12160 On ch=3 n=d6 v=127
12288 On ch=11 n=a5 v=127
12415 Off ch=11 n=a5 v=127
12415 Off ch=3 n=d6 v=127
12416 On ch=7 n=f#5 v=127
12416 On ch=3 n=d6 v=127
12543 Off ch=7 n=f#5 v=127
12544 On ch=11 n=a5 v=127
12667 Off ch=3 n=d6 v=127
12671 Off ch=11 n=a5 v=127
12672 On ch=5 n=e5 v=127
12672 On ch=2 n=c#6 v=127
12799 Off ch=5 n=e5 v=127
12800 On ch=11 n=a5 v=127
12923 Off ch=2 n=c#6 v=127
12927 Off ch=11 n=a5 v=127
12928 On ch=3 n=d5 v=127
12928 On ch=13 n=b5 v=127
13055 Off ch=3 n=d5 v=127
13056 On ch=9 n=g#5 v=127
13179 Off ch=13 n=b5 v=127
13183 Off ch=9 n=g#5 v=127
13184 On ch=2 n=c#5 v=127
13184 On ch=5 n=e6 v=127
13312 On ch=11 n=a5 v=127
13344 Off ch=5 n=e6 v=127
13439 Off ch=11 n=a5 v=127
13440 On ch=13 n=b5 v=127
13568 On ch=9 n=g#5 v=127
13587 Off ch=13 n=b5 v=127
13695 Off ch=9 n=g#5 v=127
13695 Off ch=2 n=c#5 v=127
13696 On ch=11 n=a5 v=127
13824 On ch=5 n=e5 v=127
13951 Off ch=5 n=e5 v=127
13951 Off ch=11 n=a5 v=127
13952 On ch=7 n=f#5 v=127
13952 On ch=3 n=d6 v=127
14079 Off ch=7 n=f#5 v=127
14080 On ch=11 n=a5 v=127
14203 Off ch=3 n=d6 v=127
14207 Off ch=11 n=a5 v=127
14208 On ch=5 n=e5 v=127
14208 On ch=2 n=c#6 v=127
14335 Off ch=5 n=e5 v=127
14336 On ch=11 n=a5 v=127
14459 Off ch=2 n=c#6 v=127
14463 Off ch=11 n=a5 v=127
14464 On ch=3 n=d5 v=127
14464 On ch=13 n=b5 v=127
14591 Off ch=3 n=d5 v=127
14592 On ch=9 n=g#5 v=127
14715 Off ch=13 n=b5 v=127
14719 Off ch=9 n=g#5 v=127
14720 On ch=2 n=c#5 v=127
14720 On ch=5 n=e6 v=127
14848 On ch=11 n=a5 v=127
14880 Off ch=5 n=e6 v=127
14975 Off ch=11 n=a5 v=127
14976 On ch=13 n=b5 v=127
15104 On ch=9 n=g#5 v=127
15123 Off ch=13 n=b5 v=127
15231 Off ch=9 n=g#5 v=127
15231 Off ch=2 n=c#5 v=127
15232 On ch=11 n=a5 v=127
15360 On ch=5 n=e5 v=127
15487 Off ch=5 n=e5 v=127
15487 Off ch=11 n=a5 v=127
15488 On ch=13 n=b4 v=127
15488 On ch=3 n=d6 v=127
15615 Off ch=13 n=b4 v=127
15616 On ch=8 n=g5 v=127
15739 Off ch=3 n=d6 v=127
15743 Off ch=8 n=g5 v=127
15744 On ch=11 n=a4 v=127
15744 On ch=11 n=a6 v=127
15871 Off ch=11 n=a4 v=127
15872 On ch=7 n=f#5 v=127
15995 Off ch=11 n=a6 v=127
15999 Off ch=7 n=f#5 v=127
16000 On ch=8 n=g4 v=127
16000 On ch=2 n=c#6 v=127
16127 Off ch=8 n=g4 v=127
16128 On ch=5 n=e5 v=127
16251 Off ch=2 n=c#6 v=127
16255 Off ch=5 n=e5 v=127
16256 On ch=7 n=f#4 v=127
16256 On ch=3 n=d6 v=127
16384 On ch=11 n=a5 v=127
16511 Off ch=11 n=a5 v=127
16512 On ch=7 n=f#5 v=127
16639 Off ch=7 n=f#5 v=127
16640 On ch=3 n=d5 v=127
16767 Off ch=3 n=d5 v=127
16767 Off ch=3 n=d6 v=127
16767 Off ch=7 n=f#4 v=127
16768 On ch=7 n=f#5 v=127
16895 Off ch=7 n=f#5 v=127
16896 On ch=11 n=a5 v=127
17023 Off ch=11 n=a5 v=127
17024 On ch=13 n=b4 v=127
17024 On ch=3 n=d6 v=127
17151 Off ch=13 n=b4 v=127
17152 On ch=8 n=g5 v=127
17275 Off ch=3 n=d6 v=127
17279 Off ch=8 n=g5 v=127
17280 On ch=11 n=a4 v=127
17280 On ch=11 n=a6 v=127
17407 Off ch=11 n=a4 v=127
17408 On ch=7 n=f#5 v=127
17531 Off ch=11 n=a6 v=127
17535 Off ch=7 n=f#5 v=127
17536 On ch=8 n=g4 v=127
17536 On ch=2 n=c#6 v=127
17663 Off ch=8 n=g4 v=127
17664 On ch=5 n=e5 v=127
17787 Off ch=2 n=c#6 v=127
17791 Off ch=5 n=e5 v=127
17792 On ch=7 n=f#4 v=127
17792 On ch=3 n=d6 v=127
17920 On ch=11 n=a5 v=127
18047 Off ch=11 n=a5 v=127
18048 On ch=7 n=f#5 v=127
18175 Off ch=7 n=f#5 v=127
18176 On ch=3 n=d5 v=127
18303 Off ch=3 n=d5 v=127
18303 Off ch=3 n=d6 v=127
18303 Off ch=7 n=f#4 v=127
18304 On ch=7 n=f#5 v=127
18431 Off ch=7 n=f#5 v=127
18432 On ch=11 n=a5 v=127
18539 Off ch=11 n=a5 v=127
18576 On ch=3 n=d6 v=127
18576 On ch=12 n=a#4 v=127
18695 Off ch=12 n=a#4 v=127
18704 On ch=8 n=g5 v=127
18797 Off ch=3 n=d6 v=127
18822 Off ch=8 n=g5 v=127
18831 On ch=11 n=a6 v=127
18831 On ch=11 n=a4 v=127
18950 Off ch=11 n=a4 v=127
18959 On ch=6 n=f5 v=127
19052 Off ch=11 n=a6 v=127
19077 Off ch=6 n=f5 v=127
19086 On ch=2 n=c#6 v=127
19086 On ch=8 n=g4 v=127
19205 Off ch=8 n=g4 v=127
19214 On ch=5 n=e5 v=127
19307 Off ch=2 n=c#6 v=127
19332 Off ch=5 n=e5 v=127
19341 On ch=3 n=d6 v=127
19341 On ch=6 n=f4 v=127
19460 Off ch=3 n=d6 v=127
19469 On ch=11 n=a5 v=127
19588 Off ch=11 n=a5 v=127
19597 On ch=6 n=f5 v=127
19716 Off ch=6 n=f5 v=127
19725 On ch=3 n=d5 v=127
19844 Off ch=3 n=d5 v=127
19844 Off ch=6 n=f4 v=127
19853 On ch=6 n=f5 v=127
19972 Off ch=6 n=f5 v=127
19981 On ch=11 n=a5 v=127
20100 Off ch=11 n=a5 v=127
20109 On ch=3 n=d6 v=127
20109 On ch=12 n=a#4 v=127
20228 Off ch=12 n=a#4 v=127
20237 On ch=8 n=g5 v=127
20330 Off ch=3 n=d6 v=127
20355 Off ch=8 n=g5 v=127
20364 On ch=11 n=a6 v=127
20364 On ch=11 n=a4 v=127
20483 Off ch=11 n=a4 v=127
20492 On ch=6 n=f5 v=127
20585 Off ch=11 n=a6 v=127
20610 Off ch=6 n=f5 v=127
20619 On ch=2 n=c#6 v=127
20619 On ch=8 n=g4 v=127
20738 Off ch=8 n=g4 v=127
20747 On ch=5 n=e5 v=127
20840 Off ch=2 n=c#6 v=127
20865 Off ch=5 n=e5 v=127
20874 On ch=3 n=d6 v=127
20874 On ch=6 n=f4 v=127
20993 Off ch=3 n=d6 v=127
21002 On ch=11 n=a5 v=127
21121 Off ch=11 n=a5 v=127
21130 On ch=6 n=f5 v=127
21249 Off ch=6 n=f5 v=127
21258 On ch=3 n=d5 v=127
21377 Off ch=3 n=d5 v=127
21377 Off ch=6 n=f4 v=127
21386 On ch=6 n=f5 v=127
21505 Off ch=6 n=f5 v=127
21514 On ch=11 n=a5 v=127
21615 Off ch=11 n=a5 v=127
21663 On ch=13 n=b4 v=127
21663 On ch=3 n=d6 v=127
21790 Off ch=13 n=b4 v=127
21791 On ch=8 n=g5 v=127
21914 Off ch=3 n=d6 v=127
21918 Off ch=8 n=g5 v=127
21919 On ch=11 n=a4 v=127
21919 On ch=2 n=c#6 v=127
22046 Off ch=11 n=a4 v=127
22047 On ch=7 n=f#5 v=127
22170 Off ch=2 n=c#6 v=127
22174 Off ch=7 n=f#5 v=127
22175 On ch=8 n=g4 v=127
22175 On ch=13 n=b5 v=127
22302 Off ch=8 n=g4 v=127
22303 On ch=5 n=e5 v=127
22426 Off ch=13 n=b5 v=127
22430 Off ch=5 n=e5 v=127
22431 On ch=7 n=f#4 v=127
22431 On ch=11 n=a5 v=127
22558 Off ch=7 n=f#4 v=127
22559 On ch=3 n=d5 v=127
22682 Off ch=11 n=a5 v=127
22686 Off ch=3 n=d5 v=127
22687 On ch=5 n=e4 v=127
22687 On ch=8 n=g5 v=127
22814 Off ch=5 n=e4 v=127
22815 On ch=2 n=c#5 v=127
22938 Off ch=8 n=g5 v=127
22942 Off ch=2 n=c#5 v=127
22943 On ch=3 n=d4 v=127
22943 On ch=7 n=f#5 v=127
23070 Off ch=3 n=d4 v=127
23071 On ch=3 n=d5 v=127
23194 Off ch=7 n=f#5 v=127
23198 Off ch=3 n=d5 v=127
23199 On ch=8 n=g4 v=127
23199 On ch=8 n=g5 v=127
23327 On ch=5 n=e5 v=127
23346 Off ch=8 n=g5 v=127
23450 Off ch=8 n=g4 v=127
23454 Off ch=5 n=e5 v=127
23455 On ch=11 n=a4 v=127
23455 On ch=7 n=f#5 v=127
23583 On ch=3 n=d5 v=127
23602 Off ch=7 n=f#5 v=127
23706 Off ch=11 n=a4 v=127
23710 Off ch=3 n=d5 v=127
23711 On ch=11 n=a3 v=127
23711 On ch=5 n=e5 v=127
23839 On ch=2 n=c#5 v=127
23858 Off ch=5 n=e5 v=127
23962 Off ch=11 n=a3 v=127
23966 Off ch=2 n=c#5 v=127
23967 On ch=13 n=b3 v=127
23967 On ch=3 n=d5 v=127
24094 Off ch=13 n=b3 v=127
24095 On ch=8 n=g4 v=127
24218 Off ch=3 n=d5 v=127
24222 Off ch=8 n=g4 v=127
24223 On ch=11 n=a3 v=127
24223 On ch=2 n=c#5 v=127
24350 Off ch=11 n=a3 v=127
24351 On ch=7 n=f#4 v=127
24474 Off ch=2 n=c#5 v=127
24478 Off ch=7 n=f#4 v=127
24479 On ch=8 n=g3 v=127
24479 On ch=13 n=b4 v=127
24606 Off ch=8 n=g3 v=127
24607 On ch=5 n=e4 v=127
24730 Off ch=13 n=b4 v=127
24734 Off ch=5 n=e4 v=127
24735 On ch=7 n=f#3 v=127
24735 On ch=11 n=a4 v=127
24862 Off ch=7 n=f#3 v=127
24863 On ch=3 n=d4 v=127
24986 Off ch=11 n=a4 v=127
24990 Off ch=3 n=d4 v=127
24991 On ch=5 n=e3 v=127
24991 On ch=8 n=g5 v=127
25118 Off ch=5 n=e3 v=127
25119 On ch=2 n=c#4 v=127
25242 Off ch=8 n=g5 v=127
25246 Off ch=2 n=c#4 v=127
25247 On ch=3 n=d3 v=127
25247 On ch=7 n=f#5 v=127
25374 Off ch=3 n=d3 v=127
25375 On ch=3 n=d4 v=127
25498 Off ch=7 n=f#5 v=127
25502 Off ch=3 n=d4 v=127
25503 On ch=8 n=g3 v=127
25503 On ch=5 n=e5 v=127
25631 On ch=5 n=e4 v=127
25650 Off ch=8 n=g3 v=127
25754 Off ch=5 n=e5 v=127
25759 On ch=11 n=a3 v=127
25759 On ch=3 n=d5 v=127
25778 Off ch=5 n=e4 v=127
25887 On ch=7 n=f#4 v=127
26014 Off ch=7 n=f#4 v=127
26015 On ch=5 n=e4 v=127
26142 Off ch=3 n=d5 v=127
26143 On ch=2 n=c#5 v=127
26266 Off ch=5 n=e4 v=127
26266 Off ch=11 n=a3 v=127
26270 Off ch=2 n=c#5 v=127
26271 On ch=3 n=d3 v=127
26271 On ch=3 n=d5 v=127
26398 Off ch=3 n=d5 v=127
26399 On ch=11 n=a4 v=127
26526 Off ch=11 n=a4 v=127
26527 On ch=7 n=f#5 v=127
26654 Off ch=7 n=f#5 v=127
26655 On ch=3 n=d5 v=127
26782 Off ch=3 n=d5 v=127
26783 On ch=11 n=a5 v=127
26910 Off ch=11 n=a5 v=127
26911 On ch=7 n=f#5 v=127
27038 Off ch=7 n=f#5 v=127
27038 Off ch=3 n=d3 v=127
27039 On ch=3 n=d3 v=127
27039 On ch=3 n=d6 v=127
27166 Off ch=3 n=d6 v=127
27167 On ch=11 n=a5 v=127
27294 Off ch=11 n=a5 v=127
27295 On ch=7 n=f#6 v=127
27422 Off ch=7 n=f#6 v=127
27423 On ch=3 n=d6 v=127
27550 Off ch=3 n=d6 v=127
27551 On ch=11 n=a6 v=127
27678 Off ch=11 n=a6 v=127
27679 On ch=11 n=a5 v=127
27806 Off ch=11 n=a5 v=127
27806 Off ch=3 n=d3 v=127
27807 On ch=3 n=d3 v=127
27807 On ch=3 n=d6 v=127
28574 Off ch=3 n=d6 v=127
28574 Off ch=3 n=d3 v=127
28575 On ch=3 n=d6 v=127
28831 On ch=3 n=d5 v=127
29082 Off ch=3 n=d5 v=127
29082 Off ch=3 n=d6 v=127
29087 On ch=3 n=d5 v=127
29338 Off ch=3 n=d5 v=127
29343 On ch=3 n=d4 v=127
29343 On ch=5 n=e5 v=127
29406 Off ch=5 n=e5 v=127
29407 On ch=3 n=d5 v=127
29470 Off ch=3 n=d5 v=127
29471 On ch=5 n=e5 v=127
29534 Off ch=5 n=e5 v=127
29535 On ch=3 n=d5 v=127
29598 Off ch=3 n=d5 v=127
29599 On ch=3 n=d3 v=127
29599 On ch=5 n=e5 v=127
29662 Off ch=5 n=e5 v=127
29663 On ch=3 n=d5 v=127
29726 Off ch=3 n=d5 v=127
29727 On ch=5 n=e5 v=127
29790 Off ch=5 n=e5 v=127
29791 On ch=3 n=d5 v=127
29850 Off ch=3 n=d3 v=127
29850 Off ch=3 n=d4 v=127
29854 Off ch=3 n=d5 v=127
29855 On ch=3 n=d3 v=127
29855 On ch=5 n=e5 v=127
29918 Off ch=5 n=e5 v=127
29919 On ch=3 n=d5 v=127
29982 Off ch=3 n=d5 v=127
29983 On ch=5 n=e5 v=127
30046 Off ch=5 n=e5 v=127
30047 On ch=3 n=d5 v=127
30106 Off ch=3 n=d3 v=127
30111 On ch=3 n=d3 v=127
30238 Off ch=3 n=d5 v=127
30239 On ch=11 n=a4 v=127
30366 Off ch=11 n=a4 v=127
30367 On ch=7 n=f#5 v=127
30494 Off ch=7 n=f#5 v=127
30495 On ch=3 n=d5 v=127
30622 Off ch=3 n=d5 v=127
30623 On ch=11 n=a5 v=127
30750 Off ch=11 n=a5 v=127
30751 On ch=7 n=f#5 v=127
30878 Off ch=7 n=f#5 v=127
30878 Off ch=3 n=d3 v=127
30879 On ch=3 n=d4 v=127
30879 On ch=3 n=d6 v=127
31006 Off ch=3 n=d4 v=127
31007 On ch=11 n=a3 v=127
31134 Off ch=11 n=a3 v=127
31135 On ch=7 n=f#4 v=127
31262 Off ch=7 n=f#4 v=127
31263 On ch=3 n=d4 v=127
31390 Off ch=3 n=d4 v=127
31391 On ch=11 n=a4 v=127
31518 Off ch=11 n=a4 v=127
31519 On ch=7 n=f#4 v=127
31646 Off ch=7 n=f#4 v=127
31646 Off ch=3 n=d6 v=127
31647 On ch=3 n=d5 v=127
31647 On ch=7 n=f#5 v=127
31898 Off ch=7 n=f#5 v=127
31898 Off ch=3 n=d5 v=127
31903 On ch=5 n=e5 v=127
31903 On ch=8 n=g5 v=127
32154 Off ch=8 n=g5 v=127
32154 Off ch=5 n=e5 v=127
32159 On ch=7 n=f#5 v=127
32159 On ch=11 n=a5 v=127
32410 Off ch=7 n=f#5 v=127
32415 On ch=5 n=e5 v=127
32479 Off ch=11 n=a5 v=127
32479 On ch=8 n=g5 v=127
32542 Off ch=8 n=g5 v=127
32543 On ch=11 n=a5 v=127
32606 Off ch=11 n=a5 v=127
32607 On ch=8 n=g5 v=127
32666 Off ch=5 n=e5 v=127
32670 Off ch=8 n=g5 v=127
32671 On ch=2 n=c#5 v=127
32671 On ch=11 n=a5 v=127
32734 Off ch=11 n=a5 v=127
32735 On ch=8 n=g5 v=127
32798 Off ch=8 n=g5 v=127
32799 On ch=7 n=f#5 v=127
32862 Off ch=7 n=f#5 v=127
32863 On ch=8 n=g5 v=127
32922 Off ch=2 n=c#5 v=127
32926 Off ch=8 n=g5 v=127
32927 On ch=3 n=d5 v=127
32927 On ch=7 n=f#5 v=127
33178 Off ch=7 n=f#5 v=127
33178 Off ch=3 n=d5 v=127
33183 On ch=8 n=g4 v=127
33183 On ch=8 n=g5 v=127
33311 On ch=5 n=e6 v=127
33343 Off ch=8 n=g5 v=127
33434 Off ch=8 n=g4 v=127
33439 On ch=11 n=a4 v=127
33439 On ch=7 n=f#5 v=127
33471 Off ch=5 n=e6 v=127
33567 On ch=3 n=d6 v=127
33599 Off ch=7 n=f#5 v=127
33690 Off ch=11 n=a4 v=127
33695 On ch=2 n=c#5 v=127
33695 On ch=5 n=e5 v=127
33727 Off ch=3 n=d6 v=127
33823 On ch=2 n=c#6 v=127
33855 Off ch=5 n=e5 v=127
33946 Off ch=2 n=c#5 v=127
33951 On ch=3 n=d5 v=127
33951 On ch=7 n=f#5 v=127
33983 Off ch=2 n=c#6 v=127
34079 On ch=3 n=d6 v=127
34111 Off ch=7 n=f#5 v=127
34202 Off ch=3 n=d5 v=127
34207 On ch=11 n=a4 v=127
34207 On ch=5 n=e5 v=127
34239 Off ch=3 n=d6 v=127
34335 On ch=2 n=c#6 v=127
34367 Off ch=5 n=e5 v=127
34458 Off ch=11 n=a4 v=127
34462 Off ch=2 n=c#6 v=127
34463 On ch=3 n=d4 v=127
34463 On ch=3 n=d6 v=127
34714 Off ch=3 n=d6 v=127
34714 Off ch=3 n=d4 v=127
34719 On ch=3 n=d5 v=127
34719 On ch=7 n=f#5 v=127
34970 Off ch=7 n=f#5 v=127
34970 Off ch=3 n=d5 v=127
34975 On ch=5 n=e5 v=127
34975 On ch=8 n=g5 v=127
35226 Off ch=8 n=g5 v=127
35226 Off ch=5 n=e5 v=127
35231 On ch=7 n=f#5 v=127
35231 On ch=11 n=a5 v=127
35482 Off ch=7 n=f#5 v=127
35487 On ch=5 n=e5 v=127
35551 Off ch=11 n=a5 v=127
35551 On ch=8 n=g5 v=127
35614 Off ch=8 n=g5 v=127
35615 On ch=11 n=a5 v=127
35678 Off ch=11 n=a5 v=127
35679 On ch=8 n=g5 v=127
35738 Off ch=5 n=e5 v=127
35742 Off ch=8 n=g5 v=127
35743 On ch=2 n=c#5 v=127
35743 On ch=11 n=a5 v=127
35806 Off ch=11 n=a5 v=127
35807 On ch=8 n=g5 v=127
35870 Off ch=8 n=g5 v=127
35871 On ch=7 n=f#5 v=127
35934 Off ch=7 n=f#5 v=127
35935 On ch=8 n=g5 v=127
35994 Off ch=2 n=c#5 v=127
35998 Off ch=8 n=g5 v=127
35999 On ch=3 n=d5 v=127
35999 On ch=7 n=f#5 v=127
36250 Off ch=7 n=f#5 v=127
36250 Off ch=3 n=d5 v=127
36255 On ch=8 n=g4 v=127
36255 On ch=8 n=g5 v=127
36383 On ch=5 n=e6 v=127
36394 Off ch=8 n=g5 v=127
36506 Off ch=8 n=g4 v=127
36511 On ch=11 n=a4 v=127
36511 On ch=7 n=f#5 v=127
36522 Off ch=5 n=e6 v=127
36639 On ch=3 n=d6 v=127
36650 Off ch=7 n=f#5 v=127
36762 Off ch=11 n=a4 v=127
36767 On ch=11 n=a3 v=127
36767 On ch=5 n=e5 v=127
36778 Off ch=3 n=d6 v=127
36895 On ch=2 n=c#6 v=127
36906 Off ch=5 n=e5 v=127
37018 Off ch=11 n=a3 v=127
37023 On ch=3 n=d4 v=127
37023 On ch=7 n=f#5 v=127
37034 Off ch=2 n=c#6 v=127
37151 On ch=3 n=d6 v=127
37162 Off ch=7 n=f#5 v=127
37279 On ch=11 n=a3 v=127
37279 On ch=5 n=e5 v=127
37290 Off ch=3 n=d6 v=127
37407 On ch=2 n=c#6 v=127
37418 Off ch=5 n=e5 v=127
37530 Off ch=11 n=a3 v=127
37530 Off ch=3 n=d4 v=127
37534 Off ch=2 n=c#6 v=127
37535 On ch=3 n=d3 v=127
37535 On ch=3 n=d6 v=127
37786 Off ch=3 n=d6 v=127
37786 Off ch=3 n=d3 v=127
37791 On ch=6 n=f5 v=127
37791 On ch=3 n=d6 v=127
37918 Off ch=6 n=f5 v=127
37919 On ch=11 n=a5 v=127
38042 Off ch=3 n=d6 v=127
38046 Off ch=11 n=a5 v=127
38047 On ch=5 n=e5 v=127
38047 On ch=1 n=c6 v=127
38174 Off ch=5 n=e5 v=127
38175 On ch=11 n=a5 v=127
38298 Off ch=1 n=c6 v=127
38302 Off ch=11 n=a5 v=127
38303 On ch=3 n=d5 v=127
38303 On ch=13 n=b5 v=127
38430 Off ch=3 n=d5 v=127
38431 On ch=9 n=g#5 v=127
38554 Off ch=13 n=b5 v=127
38558 Off ch=9 n=g#5 v=127
38559 On ch=1 n=c5 v=127
38559 On ch=5 n=e6 v=127
38687 On ch=11 n=a5 v=127
38719 Off ch=5 n=e6 v=127
38814 Off ch=11 n=a5 v=127
38815 On ch=13 n=b5 v=127
38943 On ch=9 n=g#5 v=127
38962 Off ch=13 n=b5 v=127
39070 Off ch=9 n=g#5 v=127
39070 Off ch=1 n=c5 v=127
39071 On ch=11 n=a5 v=127
39199 On ch=5 n=e5 v=127
39326 Off ch=5 n=e5 v=127
39326 Off ch=11 n=a5 v=127
39327 On ch=6 n=f5 v=127
39327 On ch=3 n=d6 v=127
39454 Off ch=6 n=f5 v=127
39455 On ch=11 n=a5 v=127
39578 Off ch=3 n=d6 v=127
39582 Off ch=11 n=a5 v=127
39583 On ch=5 n=e5 v=127
39583 On ch=1 n=c6 v=127
39710 Off ch=5 n=e5 v=127
39711 On ch=11 n=a5 v=127
39834 Off ch=1 n=c6 v=127
39838 Off ch=11 n=a5 v=127
39839 On ch=3 n=d5 v=127
39839 On ch=13 n=b5 v=127
39966 Off ch=3 n=d5 v=127
39967 On ch=9 n=g#5 v=127
40090 Off ch=13 n=b5 v=127
40094 Off ch=9 n=g#5 v=127
40095 On ch=1 n=c5 v=127
40095 On ch=5 n=e6 v=127
40223 On ch=11 n=a5 v=127
40255 Off ch=5 n=e6 v=127
40350 Off ch=11 n=a5 v=127
40351 On ch=13 n=b5 v=127
40479 On ch=9 n=g#5 v=127
40498 Off ch=13 n=b5 v=127
40606 Off ch=9 n=g#5 v=127
40606 Off ch=1 n=c5 v=127
40607 On ch=11 n=a5 v=127
40735 On ch=5 n=e5 v=127
40862 Off ch=5 n=e5 v=127
40862 Off ch=11 n=a5 v=127
40863 On ch=5 n=e5 v=127
40863 On ch=1 n=c6 v=127
40990 Off ch=5 n=e5 v=127
40991 On ch=8 n=g5 v=127
41114 Off ch=1 n=c6 v=127
41118 Off ch=8 n=g5 v=127
41119 On ch=3 n=d5 v=127
41119 On ch=13 n=b5 v=127
41246 Off ch=3 n=d5 v=127
41247 On ch=8 n=g5 v=127
41370 Off ch=13 n=b5 v=127
41374 Off ch=8 n=g5 v=127
41375 On ch=1 n=c5 v=127
41375 On ch=11 n=a5 v=127
41502 Off ch=1 n=c5 v=127
41503 On ch=7 n=f#5 v=127
41626 Off ch=11 n=a5 v=127
41630 Off ch=7 n=f#5 v=127
41631 On ch=13 n=b4 v=127
41631 On ch=3 n=d6 v=127
41759 On ch=8 n=g5 v=127
41791 Off ch=3 n=d6 v=127
41886 Off ch=8 n=g5 v=127
41887 On ch=11 n=a5 v=127
42015 On ch=7 n=f#5 v=127
42034 Off ch=11 n=a5 v=127
42142 Off ch=7 n=f#5 v=127
42142 Off ch=13 n=b4 v=127
42143 On ch=8 n=g5 v=127
42271 On ch=3 n=d5 v=127
42398 Off ch=3 n=d5 v=127
42398 Off ch=8 n=g5 v=127
42399 On ch=5 n=e5 v=127
42399 On ch=1 n=c6 v=127
42526 Off ch=5 n=e5 v=127
42527 On ch=8 n=g5 v=127
42650 Off ch=1 n=c6 v=127
42654 Off ch=8 n=g5 v=127
42655 On ch=3 n=d5 v=127
42655 On ch=13 n=b5 v=127
42782 Off ch=3 n=d5 v=127
42783 On ch=8 n=g5 v=127
42906 Off ch=13 n=b5 v=127
42910 Off ch=8 n=g5 v=127
42911 On ch=1 n=c5 v=127
42911 On ch=11 n=a5 v=127
43038 Off ch=1 n=c5 v=127
43039 On ch=7 n=f#5 v=127
43162 Off ch=11 n=a5 v=127
43166 Off ch=7 n=f#5 v=127
43167 On ch=13 n=b4 v=127
43167 On ch=3 n=d6 v=127
43295 On ch=8 n=g5 v=127
43327 Off ch=3 n=d6 v=127
43422 Off ch=8 n=g5 v=127
43423 On ch=11 n=a5 v=127
43551 On ch=7 n=f#5 v=127
43570 Off ch=11 n=a5 v=127
43678 Off ch=7 n=f#5 v=127
43678 Off ch=13 n=b4 v=127
43679 On ch=8 n=g5 v=127
43807 On ch=3 n=d5 v=127
43934 Off ch=3 n=d5 v=127
43934 Off ch=8 n=g5 v=127
43935 On ch=5 n=e5 v=127
43935 On ch=8 n=g6 v=127
44062 Off ch=5 n=e5 v=127
44063 On ch=1 n=c6 v=127
44186 Off ch=8 n=g6 v=127
44190 Off ch=1 n=c6 v=127
44191 On ch=3 n=d5 v=127
44191 On ch=7 n=f#6 v=127
44318 Off ch=3 n=d5 v=127
44319 On ch=13 n=b5 v=127
44442 Off ch=7 n=f#6 v=127
44446 Off ch=13 n=b5 v=127
44447 On ch=1 n=c5 v=127
44447 On ch=5 n=e6 v=127
44574 Off ch=1 n=c5 v=127
44575 On ch=11 n=a5 v=127
44698 Off ch=5 n=e6 v=127
44702 Off ch=11 n=a5 v=127
44703 On ch=13 n=b4 v=127
44703 On ch=3 n=d6 v=127
44830 Off ch=13 n=b4 v=127
44831 On ch=8 n=g5 v=127
44954 Off ch=3 n=d6 v=127
44958 Off ch=8 n=g5 v=127
44959 On ch=11 n=a4 v=127
44959 On ch=1 n=c6 v=127
45086 Off ch=11 n=a4 v=127
45087 On ch=7 n=f#5 v=127
45210 Off ch=1 n=c6 v=127
45214 Off ch=7 n=f#5 v=127
45215 On ch=8 n=g4 v=127
45215 On ch=13 n=b5 v=127
45342 Off ch=8 n=g4 v=127
45343 On ch=8 n=g5 v=127
45466 Off ch=13 n=b5 v=127
45470 Off ch=8 n=g5 v=127
45471 On ch=1 n=c5 v=127
45471 On ch=11 n=a5 v=127
45598 Off ch=11 n=a5 v=127
45599 On ch=13 n=b5 v=127
45722 Off ch=1 n=c5 v=127
45726 Off ch=13 n=b5 v=127
45727 On ch=3 n=d5 v=127
45727 On ch=1 n=c6 v=127
45854 Off ch=1 n=c6 v=127
45855 On ch=13 n=b5 v=127
45978 Off ch=3 n=d5 v=127
45982 Off ch=13 n=b5 v=127
45983 On ch=5 n=e5 v=127
45983 On ch=11 n=a5 v=127
46110 Off ch=11 n=a5 v=127
46111 On ch=8 n=g5 v=127
46234 Off ch=5 n=e5 v=127
46238 Off ch=8 n=g5 v=127
46239 On ch=3 n=d5 v=127
46239 On ch=11 n=a5 v=127
46367 On ch=7 n=f#5 v=127
46386 Off ch=11 n=a5 v=127
46494 Off ch=7 n=f#5 v=127
46495 On ch=8 n=g5 v=127
46623 On ch=5 n=e5 v=127
46642 Off ch=8 n=g5 v=127
46750 Off ch=5 n=e5 v=127
46750 Off ch=3 n=d5 v=127
46751 On ch=7 n=f#5 v=127
46879 On ch=3 n=d5 v=127
46943 Off ch=7 n=f#5 v=127
47006 Off ch=3 n=d5 v=127
47007 On ch=5 n=e4 v=127
47007 On ch=8 n=g5 v=127
47134 Off ch=5 n=e4 v=127
47135 On ch=1 n=c5 v=127
47258 Off ch=8 n=g5 v=127
47262 Off ch=1 n=c5 v=127
47263 On ch=3 n=d4 v=127
47263 On ch=3 n=d6 v=127
47390 Off ch=3 n=d4 v=127
47391 On ch=13 n=b4 v=127
47514 Off ch=3 n=d6 v=127
47518 Off ch=13 n=b4 v=127
47519 On ch=1 n=c4 v=127
47519 On ch=7 n=f#5 v=127
47646 Off ch=1 n=c4 v=127
47647 On ch=11 n=a4 v=127
47770 Off ch=7 n=f#5 v=127
47774 Off ch=11 n=a4 v=127
47775 On ch=13 n=b3 v=127
47775 On ch=8 n=g5 v=127
47903 On ch=3 n=d5 v=127
48030 Off ch=3 n=d5 v=127
48031 On ch=13 n=b4 v=127
48158 Off ch=13 n=b4 v=127
48159 Off ch=8 n=g5 v=127
48159 On ch=8 n=g4 v=127
48286 Off ch=8 n=g4 v=127
48286 Off ch=13 n=b3 v=127
48287 On ch=13 n=b4 v=127
48414 Off ch=13 n=b4 v=127
48415 On ch=3 n=d5 v=127
48542 Off ch=3 n=d5 v=127
48543 On ch=5 n=e4 v=127
48543 On ch=8 n=g5 v=127
48670 Off ch=5 n=e4 v=127
48671 On ch=1 n=c5 v=127
48794 Off ch=8 n=g5 v=127
48798 Off ch=1 n=c5 v=127
48799 On ch=3 n=d4 v=127
48799 On ch=3 n=d6 v=127
48926 Off ch=3 n=d4 v=127
48927 On ch=13 n=b4 v=127
49050 Off ch=3 n=d6 v=127
49054 Off ch=13 n=b4 v=127
49055 On ch=1 n=c4 v=127
49055 On ch=7 n=f#5 v=127
49182 Off ch=1 n=c4 v=127
49183 On ch=11 n=a4 v=127
49306 Off ch=7 n=f#5 v=127
49310 Off ch=11 n=a4 v=127
49311 On ch=13 n=b3 v=127
49311 On ch=8 n=g5 v=127
49439 On ch=3 n=d5 v=127
49566 Off ch=3 n=d5 v=127
49567 On ch=13 n=b4 v=127
49694 Off ch=13 n=b4 v=127
49695 Off ch=8 n=g5 v=127
49703 On ch=8 n=g4 v=127
49822 Off ch=13 n=b3 v=127
49830 Off ch=8 n=g4 v=127
49839 On ch=13 n=b4 v=127
49966 Off ch=13 n=b4 v=127
49967 On ch=3 n=d5 v=127
50074 Off ch=3 n=d5 v=127
50095 On ch=4 n=d#4 v=127
50095 On ch=8 n=g5 v=127
50214 Off ch=4 n=d#4 v=127
50223 On ch=1 n=c5 v=127
50316 Off ch=8 n=g5 v=127
50341 Off ch=1 n=c5 v=127
50350 On ch=3 n=d4 v=127
50350 On ch=3 n=d6 v=127
50469 Off ch=3 n=d4 v=127
50478 On ch=12 n=a#4 v=127
50571 Off ch=3 n=d6 v=127
50596 Off ch=12 n=a#4 v=127
50605 On ch=1 n=c4 v=127
50605 On ch=7 n=f#5 v=127
50724 Off ch=1 n=c4 v=127
50733 On ch=11 n=a4 v=127
50826 Off ch=7 n=f#5 v=127
50851 Off ch=11 n=a4 v=127
50860 On ch=12 n=a#3 v=127
50860 On ch=8 n=g5 v=127
50979 Off ch=8 n=g5 v=127
50988 On ch=3 n=d5 v=127
51107 Off ch=3 n=d5 v=127
51116 On ch=12 n=a#4 v=127
51235 Off ch=12 n=a#4 v=127
51244 On ch=8 n=g4 v=127
51363 Off ch=8 n=g4 v=127
51363 Off ch=12 n=a#3 v=127
51372 On ch=12 n=a#4 v=127
51491 Off ch=12 n=a#4 v=127
51500 On ch=3 n=d5 v=127
51619 Off ch=3 n=d5 v=127
51628 On ch=4 n=d#4 v=127
51628 On ch=8 n=g5 v=127
51747 Off ch=4 n=d#4 v=127
51756 On ch=1 n=c5 v=127
51849 Off ch=8 n=g5 v=127
51874 Off ch=1 n=c5 v=127
51883 On ch=3 n=d4 v=127
51883 On ch=3 n=d6 v=127
52002 Off ch=3 n=d4 v=127
52011 On ch=12 n=a#4 v=127
52104 Off ch=3 n=d6 v=127
52129 Off ch=12 n=a#4 v=127
52138 On ch=1 n=c4 v=127
52138 On ch=7 n=f#5 v=127
52257 Off ch=1 n=c4 v=127
52266 On ch=11 n=a4 v=127
52359 Off ch=7 n=f#5 v=127
52384 Off ch=11 n=a4 v=127
52393 On ch=12 n=a#3 v=127
52393 On ch=8 n=g5 v=127
52512 Off ch=8 n=g5 v=127
52521 On ch=3 n=d5 v=127
52640 Off ch=3 n=d5 v=127
52649 On ch=12 n=a#4 v=127
52768 Off ch=12 n=a#4 v=127
52777 On ch=8 n=g4 v=127
52896 Off ch=8 n=g4 v=127
52896 Off ch=12 n=a#3 v=127
52905 On ch=12 n=a#4 v=127
53038 Off ch=12 n=a#4 v=127
53054 On ch=3 n=d5 v=127
53207 Off ch=3 n=d5 v=127
53224 On ch=5 n=e5 v=127
53224 On ch=8 n=g6 v=127
53351 Off ch=5 n=e5 v=127
53352 On ch=1 n=c6 v=127
53475 Off ch=8 n=g6 v=127
53479 Off ch=1 n=c6 v=127
53480 On ch=3 n=d5 v=127
53480 On ch=7 n=f#6 v=127
53607 Off ch=3 n=d5 v=127
53608 On ch=13 n=b5 v=127
53731 Off ch=7 n=f#6 v=127
53735 Off ch=13 n=b5 v=127
53736 On ch=1 n=c5 v=127
53736 On ch=5 n=e6 v=127
53863 Off ch=1 n=c5 v=127
53864 On ch=11 n=a5 v=127
53987 Off ch=5 n=e6 v=127
53991 Off ch=11 n=a5 v=127
53992 On ch=13 n=b4 v=127
53992 On ch=3 n=d6 v=127
54119 Off ch=13 n=b4 v=127
54120 On ch=8 n=g5 v=127
54243 Off ch=3 n=d6 v=127
54247 Off ch=8 n=g5 v=127
54248 On ch=11 n=a4 v=127
54248 On ch=1 n=c6 v=127
54375 Off ch=11 n=a4 v=127
54376 On ch=7 n=f#5 v=127
54499 Off ch=1 n=c6 v=127
54503 Off ch=7 n=f#5 v=127
54504 On ch=8 n=g4 v=127
54504 On ch=13 n=b5 v=127
54631 Off ch=8 n=g4 v=127
54632 On ch=8 n=g5 v=127
54755 Off ch=13 n=b5 v=127
54759 Off ch=8 n=g5 v=127
54760 On ch=1 n=c5 v=127
54760 On ch=1 n=c6 v=127
54888 On ch=11 n=a5 v=127
54907 Off ch=1 n=c6 v=127
55011 Off ch=1 n=c5 v=127
55015 Off ch=11 n=a5 v=127
55016 On ch=3 n=d5 v=127
55016 On ch=13 n=b5 v=127
55144 On ch=8 n=g5 v=127
55163 Off ch=13 n=b5 v=127
55267 Off ch=3 n=d5 v=127
55271 Off ch=8 n=g5 v=127
55272 On ch=3 n=d4 v=127
55272 On ch=11 n=a5 v=127
55400 On ch=7 n=f#5 v=127
55419 Off ch=11 n=a5 v=127
55523 Off ch=3 n=d4 v=127
55527 Off ch=7 n=f#5 v=127
55528 On ch=5 n=e4 v=127
55528 On ch=8 n=g5 v=127
55655 Off ch=5 n=e4 v=127
55656 On ch=1 n=c5 v=127
55779 Off ch=8 n=g5 v=127
55783 Off ch=1 n=c5 v=127
55784 On ch=3 n=d4 v=127
55784 On ch=7 n=f#5 v=127
55911 Off ch=3 n=d4 v=127
55912 On ch=13 n=b4 v=127
56035 Off ch=7 n=f#5 v=127
56039 Off ch=13 n=b4 v=127
56040 On ch=1 n=c4 v=127
56040 On ch=5 n=e5 v=127
56167 Off ch=1 n=c4 v=127
56168 On ch=11 n=a4 v=127
56291 Off ch=5 n=e5 v=127
56295 Off ch=11 n=a4 v=127
56296 On ch=13 n=b3 v=127
56296 On ch=3 n=d5 v=127
56423 Off ch=13 n=b3 v=127
56424 On ch=8 n=g4 v=127
56547 Off ch=3 n=d5 v=127
56551 Off ch=8 n=g4 v=127
56552 On ch=11 n=a3 v=127
56552 On ch=1 n=c5 v=127
56679 Off ch=11 n=a3 v=127
56680 On ch=7 n=f#4 v=127
56803 Off ch=1 n=c5 v=127
56807 Off ch=7 n=f#4 v=127
56808 On ch=8 n=g3 v=127
56808 On ch=13 n=b4 v=127
56935 Off ch=8 n=g3 v=127
56936 On ch=8 n=g4 v=127
57059 Off ch=13 n=b4 v=127
57063 Off ch=8 n=g4 v=127
57064 On ch=1 n=c4 v=127
57064 On ch=11 n=a4 v=127
57191 Off ch=11 n=a4 v=127
57192 On ch=1 n=c5 v=127
57315 Off ch=1 n=c4 v=127
57319 Off ch=1 n=c5 v=127
57320 On ch=3 n=d4 v=127
57320 On ch=13 n=b4 v=127
57447 Off ch=13 n=b4 v=127
57448 On ch=8 n=g5 v=127
57571 Off ch=3 n=d4 v=127
57575 Off ch=8 n=g5 v=127
57576 On ch=3 n=d3 v=127
57576 On ch=11 n=a4 v=127
57703 Off ch=11 n=a4 v=127
57704 On ch=7 n=f#5 v=127
57827 Off ch=3 n=d3 v=127
57831 Off ch=7 n=f#5 v=127
57832 On ch=8 n=g3 v=127
57832 On ch=8 n=g5 v=127
57959 Off ch=8 n=g5 v=127
57960 On ch=3 n=d5 v=127
58087 Off ch=3 n=d5 v=127
58088 On ch=13 n=b4 v=127
58215 Off ch=13 n=b4 v=127
58216 On ch=8 n=g4 v=127
58343 Off ch=8 n=g4 v=127
58344 On ch=13 n=b4 v=127
58471 Off ch=13 n=b4 v=127
58472 On ch=3 n=d5 v=127
58599 Off ch=3 n=d5 v=127
58599 Off ch=8 n=g3 v=127
58600 On ch=8 n=g3 v=127
58600 On ch=8 n=g5 v=127
58728 On ch=3 n=d5 v=127
58760 Off ch=8 n=g5 v=127
58856 On ch=13 n=b5 v=127
58888 Off ch=3 n=d5 v=127
58984 On ch=8 n=g5 v=127
59016 Off ch=13 n=b5 v=127
59112 On ch=3 n=d6 v=127
59144 Off ch=8 n=g5 v=127
59240 On ch=3 n=d5 v=127
59304 Off ch=3 n=d6 v=127
59367 Off ch=3 n=d5 v=127
59367 Off ch=8 n=g3 v=127
59382 On ch=8 n=g3 v=127
59382 On ch=8 n=g5 v=127
60918 Off ch=8 n=g5 v=127
60918 Off ch=8 n=g3 v=127
66048 Meta TrkEnd
TrkEnd
