MFile 0 1 384
MTrk
0 Meta Copyright "(C) John Sankey 1998"
0 PrCh ch=1 p=6
0 Pb ch=1 v=8192
0 PrCh ch=2 p=6
0 Pb ch=2 v=7602
0 PrCh ch=3 p=6
0 Pb ch=3 v=7920
0 PrCh ch=4 p=6
0 Pb ch=4 v=7839
0 PrCh ch=5 p=6
0 Pb ch=5 v=7632
0 PrCh ch=6 p=6
0 Pb ch=6 v=8112
0 PrCh ch=7 p=6
0 Pb ch=7 v=7567
0 PrCh ch=8 p=6
0 Pb ch=8 v=8062
0 PrCh ch=9 p=6
0 Pb ch=9 v=7680
0 PrCh ch=11 p=6
0 Pb ch=11 v=7728
0 PrCh ch=12 p=6
0 Pb ch=12 v=7984
0 PrCh ch=13 p=6
0 Pb ch=13 v=7639
0 Tempo 500000
92 On ch=5 n=e6 v=127
138 On ch=3 n=d6 v=127
160 Off ch=5 n=e6 v=127
184 On ch=1 n=c6 v=127
206 Off ch=3 n=d6 v=127
230 On ch=13 n=b5 v=127
252 Off ch=1 n=c6 v=127
276 On ch=11 n=a5 v=127
298 Off ch=13 n=b5 v=127
460 On ch=5 n=e5 v=127
506 On ch=3 n=d5 v=127
528 Off ch=5 n=e5 v=127
552 On ch=1 n=c5 v=127
574 Off ch=3 n=d5 v=127
598 On ch=13 n=b4 v=127
620 Off ch=1 n=c5 v=127
643 Off ch=11 n=a5 v=127
644 On ch=11 n=a4 v=127
666 Off ch=13 n=b4 v=127
828 On ch=5 n=e4 v=127
874 On ch=3 n=d4 v=127
896 Off ch=5 n=e4 v=127
920 On ch=1 n=c4 v=127
942 Off ch=3 n=d4 v=127
966 On ch=13 n=b3 v=127
988 Off ch=1 n=c4 v=127
1011 Off ch=11 n=a4 v=127
1012 On ch=11 n=a3 v=127
1034 Off ch=13 n=b3 v=127
1196 On ch=11 n=a5 v=127
1379 Off ch=11 n=a5 v=127
1380 On ch=5 n=e5 v=127
1471 Off ch=11 n=a3 v=127
1563 Off ch=5 n=e5 v=127
1564 On ch=1 n=c6 v=127
1564 On ch=11 n=a4 v=127
1747 Off ch=11 n=a4 v=127
1747 Off ch=1 n=c6 v=127
1748 On ch=13 n=b5 v=127
1748 On ch=5 n=e4 v=127
1931 Off ch=13 n=b5 v=127
1932 On ch=11 n=a5 v=127
1932 On ch=1 n=c5 v=127
2115 Off ch=1 n=c5 v=127
2115 Off ch=5 n=e4 v=127
2116 On ch=13 n=b4 v=127
2299 Off ch=11 n=a5 v=127
2300 On ch=9 n=g#5 v=127
2437 Off ch=9 n=g#5 v=127
2483 Off ch=13 n=b4 v=127
2484 On ch=11 n=a4 v=127
2667 Off ch=11 n=a4 v=127
2668 On ch=1 n=c6 v=127
2851 Off ch=1 n=c6 v=127
2852 On ch=11 n=a5 v=127
3035 Off ch=11 n=a5 v=127
3036 On ch=5 n=e6 v=127
3036 On ch=1 n=c5 v=127
3219 Off ch=1 n=c5 v=127
3219 Off ch=5 n=e6 v=127
3220 On ch=3 n=d6 v=127
3220 On ch=8 n=g4 v=127
3403 Off ch=3 n=d6 v=127
3404 On ch=1 n=c6 v=127
3404 On ch=5 n=e5 v=127
3587 Off ch=5 n=e5 v=127
3587 Off ch=8 n=g4 v=127
3588 On ch=3 n=d5 v=127
3771 Off ch=1 n=c6 v=127
3772 On ch=13 n=b5 v=127
3909 Off ch=13 n=b5 v=127
3955 Off ch=3 n=d5 v=127
3956 On ch=1 n=c5 v=127
4140 On ch=1 n=c6 v=127
4224 Off ch=1 n=c5 v=127
4323 Off ch=1 n=c6 v=127
4324 On ch=8 n=g5 v=127
4507 Off ch=8 n=g5 v=127
4508 On ch=3 n=d5 v=127
4508 On ch=6 n=f6 v=127
4691 Off ch=6 n=f6 v=127
4691 Off ch=3 n=d5 v=127
4692 On ch=5 n=e6 v=127
4692 On ch=11 n=a4 v=127
4875 Off ch=5 n=e6 v=127
4876 On ch=6 n=f5 v=127
4876 On ch=3 n=d6 v=127
5059 Off ch=6 n=f5 v=127
5059 Off ch=11 n=a4 v=127
5060 On ch=5 n=e5 v=127
5243 Off ch=3 n=d6 v=127
5244 On ch=2 n=c#6 v=127
5381 Off ch=2 n=c#6 v=127
5427 Off ch=5 n=e5 v=127
5428 On ch=3 n=d5 v=127
5612 On ch=3 n=d6 v=127
5795 Off ch=3 n=d6 v=127
5796 On ch=11 n=a5 v=127
5811 Off ch=3 n=d5 v=127
5979 Off ch=11 n=a5 v=127
5980 On ch=5 n=e5 v=127
5980 On ch=8 n=g6 v=127
6163 Off ch=8 n=g6 v=127
6163 Off ch=5 n=e5 v=127
6164 On ch=13 n=b4 v=127
6164 On ch=7 n=f#6 v=127
6347 Off ch=7 n=f#6 v=127
6348 On ch=5 n=e6 v=127
6348 On ch=8 n=g5 v=127
6531 Off ch=8 n=g5 v=127
6531 Off ch=13 n=b4 v=127
6532 On ch=7 n=f#5 v=127
6715 Off ch=5 n=e6 v=127
6716 On ch=4 n=d#6 v=127
6888 Off ch=4 n=d#6 v=127
6900 Off ch=7 n=f#5 v=127
6901 On ch=5 n=e5 v=127
6901 On ch=5 n=e6 v=127
6992 Off ch=5 n=e6 v=127
6993 On ch=3 n=d6 v=127
7084 Off ch=3 n=d6 v=127
7085 On ch=1 n=c6 v=127
7268 Off ch=5 n=e5 v=127
7269 On ch=4 n=d#5 v=127
7452 Off ch=4 n=d#5 v=127
7452 Off ch=1 n=c6 v=127
7453 On ch=3 n=d5 v=127
7453 On ch=13 n=b5 v=127
7636 Off ch=3 n=d5 v=127
7637 On ch=2 n=c#5 v=127
7820 Off ch=2 n=c#5 v=127
7820 Off ch=13 n=b5 v=127
7821 On ch=1 n=c5 v=127
7821 On ch=11 n=a5 v=127
8004 Off ch=1 n=c5 v=127
8005 On ch=13 n=b4 v=127
8188 Off ch=11 n=a5 v=127
8189 On ch=8 n=g5 v=127
8372 Off ch=13 n=b4 v=127
8373 On ch=12 n=a#4 v=127
8556 Off ch=12 n=a#4 v=127
8556 Off ch=8 n=g5 v=127
8557 On ch=7 n=f#5 v=127
8557 On ch=11 n=a4 v=127
8740 Off ch=11 n=a4 v=127
8741 On ch=9 n=g#4 v=127
8924 Off ch=9 n=g#4 v=127
8924 Off ch=7 n=f#5 v=127
8925 On ch=5 n=e5 v=127
8925 On ch=8 n=g4 v=127
9108 Off ch=8 n=g4 v=127
9109 On ch=7 n=f#4 v=127
9292 Off ch=7 n=f#4 v=127
9292 Off ch=5 n=e5 v=127
9293 On ch=6 n=f4 v=127
9293 On ch=3 n=d5 v=127
9476 Off ch=6 n=f4 v=127
9477 On ch=5 n=e4 v=127
9660 Off ch=3 n=d5 v=127
9661 On ch=1 n=c5 v=127
9844 Off ch=5 n=e4 v=127
9845 On ch=4 n=d#4 v=127
10028 Off ch=4 n=d#4 v=127
10028 Off ch=1 n=c5 v=127
10029 On ch=13 n=b4 v=127
10029 On ch=3 n=d4 v=127
10212 Off ch=3 n=d4 v=127
10213 On ch=2 n=c#4 v=127
10396 Off ch=2 n=c#4 v=127
10396 Off ch=13 n=b4 v=127
10397 On ch=11 n=a4 v=127
10397 On ch=1 n=c4 v=127
10580 Off ch=1 n=c4 v=127
10580 Off ch=11 n=a4 v=127
10581 On ch=13 n=b3 v=127
10765 On ch=1 n=c5 v=127
10933 Off ch=1 n=c5 v=127
10949 On ch=4 n=d#5 v=127
11117 Off ch=4 n=d#5 v=127
11133 On ch=7 n=f#5 v=127
11252 Off ch=13 n=b3 v=127
11301 Off ch=7 n=f#5 v=127
11317 On ch=11 n=a5 v=127
11485 Off ch=11 n=a5 v=127
11501 On ch=1 n=c6 v=127
11669 Off ch=1 n=c6 v=127
11685 On ch=4 n=d#6 v=127
11853 Off ch=4 n=d#6 v=127
11869 On ch=7 n=f#6 v=127
12037 Off ch=7 n=f#6 v=127
12053 On ch=11 n=a6 v=127
12191 Off ch=11 n=a6 v=127
12237 On ch=13 n=b3 v=127
12237 On ch=1 n=c7 v=127
12420 Off ch=13 n=b3 v=127
12421 On ch=2 n=c#4 v=127
12604 Off ch=2 n=c#4 v=127
12604 Off ch=1 n=c7 v=127
12605 On ch=13 n=b6 v=127
12605 On ch=4 n=d#4 v=127
12696 Off ch=13 n=b6 v=127
12697 On ch=11 n=a6 v=127
12788 Off ch=11 n=a6 v=127
12788 Off ch=4 n=d#4 v=127
12789 On ch=8 n=g6 v=127
12789 On ch=5 n=e4 v=127
12972 Off ch=5 n=e4 v=127
12972 Off ch=8 n=g6 v=127
12973 On ch=6 n=f6 v=127
12973 On ch=6 n=f4 v=127
13156 Off ch=6 n=f4 v=127
13156 Off ch=6 n=f6 v=127
13157 On ch=8 n=g4 v=127
13157 On ch=5 n=e6 v=127
13340 Off ch=5 n=e6 v=127
13341 On ch=3 n=d6 v=127
13478 Off ch=3 n=d6 v=127
13524 Off ch=8 n=g4 v=127
13525 On ch=8 n=g4 v=127
13693 Off ch=8 n=g4 v=127
13709 On ch=12 n=a#4 v=127
13877 Off ch=12 n=a#4 v=127
13893 On ch=2 n=c#5 v=127
14061 Off ch=2 n=c#5 v=127
14077 On ch=5 n=e5 v=127
14245 Off ch=5 n=e5 v=127
14261 On ch=8 n=g5 v=127
14429 Off ch=8 n=g5 v=127
14445 On ch=12 n=a#5 v=127
14613 Off ch=12 n=a#5 v=127
14629 On ch=2 n=c#6 v=127
14797 Off ch=2 n=c#6 v=127
14813 On ch=5 n=e6 v=127
14981 Off ch=5 n=e6 v=127
14997 On ch=8 n=g6 v=127
15135 Off ch=8 n=g6 v=127
15181 On ch=12 n=a#6 v=127
15181 On ch=11 n=a3 v=127
15364 Off ch=11 n=a3 v=127
15365 On ch=13 n=b3 v=127
15548 Off ch=13 n=b3 v=127
15548 Off ch=12 n=a#6 v=127
15549 On ch=2 n=c#4 v=127
15549 On ch=11 n=a6 v=127
15640 Off ch=11 n=a6 v=127
15641 On ch=8 n=g6 v=127
15732 Off ch=8 n=g6 v=127
15732 Off ch=2 n=c#4 v=127
15733 On ch=6 n=f6 v=127
15733 On ch=3 n=d4 v=127
15916 Off ch=3 n=d4 v=127
15916 Off ch=6 n=f6 v=127
15917 On ch=5 n=e6 v=127
15917 On ch=5 n=e4 v=127
16100 Off ch=5 n=e4 v=127
16100 Off ch=5 n=e6 v=127
16101 On ch=3 n=d6 v=127
16101 On ch=6 n=f4 v=127
16284 Off ch=3 n=d6 v=127
16285 On ch=1 n=c6 v=127
16422 Off ch=1 n=c6 v=127
16468 Off ch=6 n=f4 v=127
16469 On ch=5 n=e4 v=127
16637 Off ch=5 n=e4 v=127
16653 On ch=9 n=g#4 v=127
16821 Off ch=9 n=g#4 v=127
16837 On ch=13 n=b4 v=127
17005 Off ch=13 n=b4 v=127
17021 On ch=3 n=d5 v=127
17189 Off ch=3 n=d5 v=127
17205 On ch=6 n=f5 v=127
17373 Off ch=6 n=f5 v=127
17389 On ch=9 n=g#5 v=127
17557 Off ch=9 n=g#5 v=127
17573 On ch=13 n=b5 v=127
17741 Off ch=13 n=b5 v=127
17757 On ch=3 n=d6 v=127
17925 Off ch=3 n=d6 v=127
17941 On ch=6 n=f6 v=127
18109 Off ch=6 n=f6 v=127
18125 On ch=9 n=g#6 v=127
18125 On ch=8 n=g3 v=127
18308 Off ch=8 n=g3 v=127
18309 On ch=11 n=a3 v=127
18492 Off ch=11 n=a3 v=127
18492 Off ch=9 n=g#6 v=127
18493 On ch=8 n=g6 v=127
18493 On ch=13 n=b3 v=127
18584 Off ch=8 n=g6 v=127
18585 On ch=6 n=f6 v=127
18676 Off ch=6 n=f6 v=127
18676 Off ch=13 n=b3 v=127
18677 On ch=4 n=d#6 v=127
18677 On ch=1 n=c4 v=127
18860 Off ch=1 n=c4 v=127
18860 Off ch=4 n=d#6 v=127
18861 On ch=3 n=d4 v=127
18861 On ch=3 n=d6 v=127
19044 Off ch=3 n=d6 v=127
19044 Off ch=3 n=d4 v=127
19045 On ch=1 n=c6 v=127
19045 On ch=4 n=d#4 v=127
19228 Off ch=4 n=d#4 v=127
19228 Off ch=1 n=c6 v=127
19229 On ch=3 n=d6 v=127
19229 On ch=6 n=f4 v=127
19412 Off ch=6 n=f4 v=127
19412 Off ch=3 n=d6 v=127
19413 On ch=8 n=g5 v=127
19413 On ch=8 n=g4 v=127
19573 Off ch=8 n=g5 v=127
19597 On ch=13 n=b5 v=127
19597 On ch=8 n=g5 v=127
19780 Off ch=13 n=b5 v=127
19781 On ch=1 n=c6 v=127
19873 Off ch=8 n=g4 v=127
19964 Off ch=1 n=c6 v=127
19964 Off ch=8 n=g5 v=127
19965 On ch=6 n=f4 v=127
19965 On ch=3 n=d6 v=127
20148 Off ch=3 n=d6 v=127
20148 Off ch=6 n=f4 v=127
20149 On ch=8 n=g5 v=127
20149 On ch=5 n=e4 v=127
20309 Off ch=8 n=g5 v=127
20333 On ch=13 n=b5 v=127
20333 On ch=5 n=e5 v=127
20516 Off ch=13 n=b5 v=127
20516 Off ch=5 n=e4 v=127
20517 On ch=1 n=c6 v=127
20700 Off ch=1 n=c6 v=127
20700 Off ch=5 n=e5 v=127
20701 On ch=3 n=d6 v=127
20701 On ch=3 n=d4 v=127
20884 Off ch=3 n=d4 v=127
20884 Off ch=3 n=d6 v=127
20885 On ch=1 n=c4 v=127
20885 On ch=5 n=e5 v=127
21045 Off ch=5 n=e5 v=127
21069 On ch=13 n=b5 v=127
21069 On ch=1 n=c5 v=127
21252 Off ch=13 n=b5 v=127
21252 Off ch=1 n=c4 v=127
21253 On ch=1 n=c6 v=127
21436 Off ch=1 n=c6 v=127
21436 Off ch=1 n=c5 v=127
21437 On ch=3 n=d6 v=127
21437 On ch=13 n=b3 v=127
21620 Off ch=13 n=b3 v=127
21620 Off ch=3 n=d6 v=127
21621 On ch=11 n=a3 v=127
21621 On ch=1 n=c5 v=127
21781 Off ch=1 n=c5 v=127
21805 On ch=13 n=b5 v=127
21805 On ch=11 n=a4 v=127
21988 Off ch=13 n=b5 v=127
21988 Off ch=11 n=a3 v=127
21989 On ch=1 n=c6 v=127
22172 Off ch=1 n=c6 v=127
22172 Off ch=11 n=a4 v=127
22173 On ch=8 n=g3 v=127
22173 On ch=3 n=d6 v=127
22279 Off ch=3 n=d6 v=127
22357 Off ch=8 n=g3 v=127
22358 On ch=6 n=f3 v=127
22358 On ch=11 n=a4 v=127
22541 Off ch=11 n=a4 v=127
22542 On ch=6 n=f4 v=127
22542 On ch=13 n=b4 v=127
22725 Off ch=13 n=b4 v=127
22725 Off ch=6 n=f4 v=127
22725 Off ch=6 n=f3 v=127
22726 On ch=1 n=c5 v=127
22726 On ch=5 n=e4 v=127
22909 Off ch=5 n=e4 v=127
22909 Off ch=1 n=c5 v=127
22910 On ch=3 n=d4 v=127
22910 On ch=3 n=d5 v=127
23093 Off ch=3 n=d5 v=127
23093 Off ch=3 n=d4 v=127
23094 On ch=5 n=e5 v=127
23094 On ch=1 n=c4 v=127
23277 Off ch=1 n=c4 v=127
23277 Off ch=5 n=e5 v=127
23278 On ch=6 n=f5 v=127
23278 On ch=3 n=d4 v=127
23461 Off ch=3 n=d4 v=127
23461 Off ch=6 n=f5 v=127
23462 On ch=8 n=g5 v=127
23462 On ch=5 n=e4 v=127
23645 Off ch=5 n=e4 v=127
23645 Off ch=8 n=g5 v=127
23646 On ch=6 n=f4 v=127
23646 On ch=11 n=a5 v=127
23814 Off ch=6 n=f4 v=127
23818 Off ch=11 n=a5 v=127
23830 On ch=8 n=g3 v=127
23830 On ch=13 n=b5 v=127
24014 On ch=11 n=a5 v=127
24014 On ch=8 n=g4 v=127
24060 Off ch=13 n=b5 v=127
24105 Off ch=11 n=a5 v=127
24106 On ch=8 n=g5 v=127
24197 Off ch=8 n=g5 v=127
24197 Off ch=8 n=g4 v=127
24197 Off ch=8 n=g3 v=127
24198 On ch=8 n=g6 v=127
24198 On ch=5 n=e4 v=127
24381 Off ch=5 n=e4 v=127
24382 On ch=1 n=c6 v=127
24382 On ch=6 n=f4 v=127
24428 Off ch=8 n=g6 v=127
24565 Off ch=6 n=f4 v=127
24565 Off ch=1 n=c6 v=127
24566 On ch=8 n=g4 v=127
24566 On ch=1 n=c6 v=127
24749 Off ch=8 n=g4 v=127
24750 On ch=6 n=f4 v=127
24933 Off ch=6 n=f4 v=127
24933 Off ch=1 n=c6 v=127
24934 On ch=5 n=e6 v=127
24934 On ch=8 n=g4 v=127
24980 On ch=3 n=d6 v=127
25002 Off ch=5 n=e6 v=127
25026 On ch=5 n=e6 v=127
25048 Off ch=3 n=d6 v=127
25072 On ch=3 n=d6 v=127
25094 Off ch=5 n=e6 v=127
25118 On ch=8 n=g3 v=127
25209 Off ch=3 n=d6 v=127
25210 On ch=1 n=c6 v=127
25301 Off ch=1 n=c6 v=127
25301 Off ch=8 n=g3 v=127
25301 Off ch=8 n=g4 v=127
25302 On ch=1 n=c6 v=127
25302 On ch=1 n=c4 v=127
25486 On ch=1 n=c7 v=127
25570 Off ch=1 n=c6 v=127
25669 Off ch=1 n=c7 v=127
25670 On ch=13 n=b6 v=127
25853 Off ch=13 n=b6 v=127
25853 Off ch=1 n=c4 v=127
25854 On ch=12 n=a#6 v=127
26037 Off ch=12 n=a#6 v=127
26038 On ch=11 n=a6 v=127
26221 Off ch=11 n=a6 v=127
26222 On ch=9 n=g#6 v=127
26222 On ch=1 n=c6 v=127
26405 Off ch=1 n=c6 v=127
26406 On ch=13 n=b5 v=127
26589 Off ch=13 n=b5 v=127
26589 Off ch=9 n=g#6 v=127
26590 On ch=8 n=g6 v=127
26590 On ch=12 n=a#5 v=127
26773 Off ch=12 n=a#5 v=127
26774 On ch=11 n=a5 v=127
26957 Off ch=11 n=a5 v=127
26957 Off ch=8 n=g6 v=127
26958 On ch=9 n=g#5 v=127
26958 On ch=6 n=f6 v=127
27141 Off ch=9 n=g#5 v=127
27142 On ch=8 n=g5 v=127
27325 Off ch=6 n=f6 v=127
27326 On ch=4 n=d#6 v=127
27509 Off ch=8 n=g5 v=127
27510 On ch=7 n=f#5 v=127
27693 Off ch=7 n=f#5 v=127
27693 Off ch=4 n=d#6 v=127
27694 On ch=3 n=d6 v=127
27694 On ch=6 n=f5 v=127
27877 Off ch=6 n=f5 v=127
27878 On ch=5 n=e5 v=127
28061 Off ch=5 n=e5 v=127
28061 Off ch=3 n=d6 v=127
28062 On ch=1 n=c6 v=127
28062 On ch=4 n=d#5 v=127
28245 Off ch=4 n=d#5 v=127
28246 On ch=3 n=d4 v=127
28429 Off ch=1 n=c6 v=127
28430 On ch=3 n=d5 v=127
28430 On ch=13 n=b5 v=127
28521 Off ch=3 n=d4 v=127
28613 Off ch=13 n=b5 v=127
28613 Off ch=3 n=d5 v=127
28614 On ch=1 n=c6 v=127
28614 On ch=1 n=c5 v=127
28797 Off ch=1 n=c5 v=127
28797 Off ch=1 n=c6 v=127
28798 On ch=3 n=d6 v=127
28798 On ch=13 n=b4 v=127
28904 Off ch=3 n=d6 v=127
28966 Off ch=13 n=b4 v=127
28982 On ch=5 n=e5 v=127
28982 On ch=1 n=c4 v=127
29165 Off ch=1 n=c4 v=127
29165 Off ch=5 n=e5 v=127
29166 On ch=3 n=d4 v=127
29166 On ch=6 n=f5 v=127
29349 Off ch=6 n=f5 v=127
29349 Off ch=3 n=d4 v=127
29350 On ch=5 n=e4 v=127
29350 On ch=8 n=g5 v=127
29533 Off ch=8 n=g5 v=127
29533 Off ch=5 n=e4 v=127
29534 On ch=6 n=f4 v=127
29534 On ch=11 n=a5 v=127
29706 Off ch=11 n=a5 v=127
29718 Off ch=6 n=f4 v=127
29719 On ch=13 n=b5 v=127
29719 On ch=8 n=g3 v=127
29903 On ch=11 n=a5 v=127
29903 On ch=8 n=g4 v=127
29949 Off ch=13 n=b5 v=127
29994 Off ch=11 n=a5 v=127
29995 On ch=8 n=g5 v=127
30086 Off ch=8 n=g5 v=127
30086 Off ch=8 n=g4 v=127
30086 Off ch=8 n=g3 v=127
30087 On ch=8 n=g6 v=127
30087 On ch=5 n=e4 v=127
30270 Off ch=5 n=e4 v=127
30271 On ch=1 n=c6 v=127
30271 On ch=6 n=f4 v=127
30317 Off ch=8 n=g6 v=127
30454 Off ch=6 n=f4 v=127
30454 Off ch=1 n=c6 v=127
30455 On ch=1 n=c6 v=127
30455 On ch=8 n=g4 v=127
30638 Off ch=8 n=g4 v=127
30639 On ch=6 n=f4 v=127
30822 Off ch=6 n=f4 v=127
30822 Off ch=1 n=c6 v=127
30823 On ch=5 n=e6 v=127
30823 On ch=8 n=g4 v=127
30869 On ch=3 n=d6 v=127
30891 Off ch=5 n=e6 v=127
30915 On ch=5 n=e6 v=127
30937 Off ch=3 n=d6 v=127
30961 On ch=3 n=d6 v=127
30983 Off ch=5 n=e6 v=127
31007 On ch=8 n=g3 v=127
31098 Off ch=3 n=d6 v=127
31099 On ch=1 n=c6 v=127
31190 Off ch=1 n=c6 v=127
31190 Off ch=8 n=g3 v=127
31190 Off ch=8 n=g4 v=127
31191 On ch=1 n=c6 v=127
31191 On ch=1 n=c4 v=127
31374 Off ch=1 n=c6 v=127
31375 On ch=8 n=g6 v=127
31421 On ch=6 n=f6 v=127
31443 Off ch=8 n=g6 v=127
31467 On ch=5 n=e6 v=127
31489 Off ch=6 n=f6 v=127
31513 On ch=3 n=d6 v=127
31535 Off ch=5 n=e6 v=127
31558 Off ch=1 n=c4 v=127
31559 On ch=1 n=c6 v=127
31581 Off ch=3 n=d6 v=127
31743 On ch=8 n=g5 v=127
31789 On ch=6 n=f5 v=127
31811 Off ch=8 n=g5 v=127
31835 On ch=5 n=e5 v=127
31857 Off ch=6 n=f5 v=127
31881 On ch=3 n=d5 v=127
31903 Off ch=5 n=e5 v=127
31926 Off ch=1 n=c6 v=127
31927 On ch=1 n=c5 v=127
31949 Off ch=3 n=d5 v=127
32111 On ch=8 n=g4 v=127
32157 On ch=6 n=f4 v=127
32179 Off ch=8 n=g4 v=127
32203 On ch=5 n=e4 v=127
32225 Off ch=6 n=f4 v=127
32249 On ch=3 n=d4 v=127
32271 Off ch=5 n=e4 v=127
32294 Off ch=1 n=c5 v=127
32295 On ch=1 n=c4 v=127
32317 Off ch=3 n=d4 v=127
32479 On ch=8 n=g3 v=127
32525 On ch=6 n=f3 v=127
32547 Off ch=8 n=g3 v=127
32571 On ch=5 n=e3 v=127
32593 Off ch=6 n=f3 v=127
32617 On ch=3 n=d3 v=127
32639 Off ch=5 n=e3 v=127
32662 Off ch=1 n=c4 v=127
32663 On ch=1 n=c3 v=127
32685 Off ch=3 n=d3 v=127
32847 On ch=1 n=c6 v=127
32847 On ch=1 n=c4 v=127
33030 Off ch=1 n=c4 v=127
33030 Off ch=1 n=c6 v=127
33030 Off ch=1 n=c3 v=127
33031 On ch=8 n=g5 v=127
33214 Off ch=8 n=g5 v=127
33215 On ch=11 n=a5 v=127
33215 On ch=6 n=f6 v=127
33215 On ch=6 n=f4 v=127
33398 Off ch=6 n=f4 v=127
33398 Off ch=6 n=f6 v=127
33398 Off ch=11 n=a5 v=127
33399 On ch=8 n=g4 v=127
33399 On ch=5 n=e6 v=127
33399 On ch=8 n=g5 v=127
33583 On ch=1 n=c6 v=127
33629 Off ch=5 n=e6 v=127
33766 Off ch=1 n=c6 v=127
33766 Off ch=8 n=g5 v=127
33766 Off ch=8 n=g4 v=127
33767 On ch=8 n=g3 v=127
33767 On ch=3 n=d6 v=127
33767 On ch=6 n=f5 v=127
33951 On ch=13 n=b5 v=127
33997 Off ch=3 n=d6 v=127
34134 Off ch=13 n=b5 v=127
34134 Off ch=6 n=f5 v=127
34134 Off ch=8 n=g3 v=127
34135 On ch=1 n=c6 v=127
34135 On ch=5 n=e5 v=127
34135 On ch=1 n=c4 v=127
34653 Off ch=5 n=e5 v=127
34653 Off ch=1 n=c6 v=127
34682 Off ch=1 n=c4 v=127
34688 On ch=8 n=g6 v=127
34734 On ch=6 n=f6 v=127
34756 Off ch=8 n=g6 v=127
34780 On ch=5 n=e6 v=127
34802 Off ch=6 n=f6 v=127
34826 On ch=3 n=d6 v=127
34848 Off ch=5 n=e6 v=127
34872 On ch=1 n=c6 v=127
34894 Off ch=3 n=d6 v=127
35056 On ch=8 n=g5 v=127
35102 On ch=6 n=f5 v=127
35124 Off ch=8 n=g5 v=127
35148 On ch=5 n=e5 v=127
35170 Off ch=6 n=f5 v=127
35194 On ch=3 n=d5 v=127
35216 Off ch=5 n=e5 v=127
35239 Off ch=1 n=c6 v=127
35240 On ch=1 n=c5 v=127
35262 Off ch=3 n=d5 v=127
35424 On ch=8 n=g4 v=127
35470 On ch=6 n=f4 v=127
35492 Off ch=8 n=g4 v=127
35516 On ch=5 n=e4 v=127
35538 Off ch=6 n=f4 v=127
35562 On ch=3 n=d4 v=127
35584 Off ch=5 n=e4 v=127
35607 Off ch=1 n=c5 v=127
35608 On ch=1 n=c4 v=127
35630 Off ch=3 n=d4 v=127
35792 On ch=1 n=c6 v=127
35975 Off ch=1 n=c6 v=127
35975 Off ch=1 n=c4 v=127
35976 On ch=8 n=g5 v=127
36159 Off ch=8 n=g5 v=127
36160 On ch=4 n=d#6 v=127
36160 On ch=1 n=c5 v=127
36343 Off ch=1 n=c5 v=127
36343 Off ch=4 n=d#6 v=127
36344 On ch=3 n=d5 v=127
36344 On ch=4 n=d#6 v=127
36344 On ch=8 n=g5 v=127
36527 Off ch=4 n=d#6 v=127
36528 On ch=3 n=d6 v=127
36711 Off ch=8 n=g5 v=127
36711 Off ch=3 n=d5 v=127
36712 On ch=3 n=d4 v=127
36712 On ch=7 n=f#5 v=127
36895 Off ch=3 n=d6 v=127
36896 On ch=1 n=c6 v=127
37079 Off ch=1 n=c6 v=127
37079 Off ch=7 n=f#5 v=127
37079 Off ch=3 n=d4 v=127
37080 On ch=12 n=a#5 v=127
37080 On ch=8 n=g4 v=127
37263 Off ch=12 n=a#5 v=127
37264 On ch=3 n=d6 v=127
37310 On ch=1 n=c6 v=127
37332 Off ch=3 n=d6 v=127
37356 On ch=12 n=a#5 v=127
37378 Off ch=1 n=c6 v=127
37402 On ch=11 n=a5 v=127
37424 Off ch=12 n=a#5 v=127
37447 Off ch=8 n=g4 v=127
37448 On ch=8 n=g5 v=127
37470 Off ch=11 n=a5 v=127
37632 On ch=3 n=d5 v=127
37678 On ch=1 n=c5 v=127
37700 Off ch=3 n=d5 v=127
37724 On ch=12 n=a#4 v=127
37746 Off ch=1 n=c5 v=127
37770 On ch=11 n=a4 v=127
37792 Off ch=12 n=a#4 v=127
37815 Off ch=8 n=g5 v=127
37816 On ch=8 n=g4 v=127
37838 Off ch=11 n=a4 v=127
38000 On ch=3 n=d4 v=127
38046 On ch=1 n=c4 v=127
38068 Off ch=3 n=d4 v=127
38092 On ch=12 n=a#3 v=127
38114 Off ch=1 n=c4 v=127
38138 On ch=11 n=a3 v=127
38160 Off ch=12 n=a#3 v=127
38183 Off ch=8 n=g4 v=127
38184 On ch=8 n=g3 v=127
38206 Off ch=11 n=a3 v=127
38368 On ch=12 n=a#5 v=127
38368 On ch=8 n=g6 v=127
38368 On ch=8 n=g4 v=127
38551 Off ch=8 n=g4 v=127
38551 Off ch=8 n=g6 v=127
38551 Off ch=12 n=a#5 v=127
38551 Off ch=8 n=g3 v=127
38552 On ch=11 n=a4 v=127
38552 On ch=11 n=a5 v=127
38552 On ch=8 n=g6 v=127
38735 Off ch=8 n=g6 v=127
38735 Off ch=11 n=a5 v=127
38736 On ch=6 n=f6 v=127
38736 On ch=3 n=d6 v=127
38919 Off ch=3 n=d6 v=127
38919 Off ch=6 n=f6 v=127
38919 Off ch=11 n=a4 v=127
38920 On ch=3 n=d6 v=127
38920 On ch=6 n=f6 v=127
38920 On ch=11 n=a3 v=127
39103 Off ch=6 n=f6 v=127
39103 Off ch=3 n=d6 v=127
39104 On ch=5 n=e6 v=127
39104 On ch=2 n=c#6 v=127
39287 Off ch=2 n=c#6 v=127
39287 Off ch=5 n=e6 v=127
39287 Off ch=11 n=a3 v=127
39288 On ch=6 n=f6 v=127
39288 On ch=3 n=d6 v=127
39288 On ch=3 n=d4 v=127
39471 Off ch=3 n=d6 v=127
39471 Off ch=6 n=f6 v=127
39472 On ch=11 n=a6 v=127
39518 On ch=8 n=g6 v=127
39540 Off ch=11 n=a6 v=127
39564 On ch=6 n=f6 v=127
39586 Off ch=8 n=g6 v=127
39610 On ch=5 n=e6 v=127
39632 Off ch=6 n=f6 v=127
39655 Off ch=3 n=d4 v=127
39656 On ch=3 n=d6 v=127
39678 Off ch=5 n=e6 v=127
39840 On ch=11 n=a5 v=127
39886 On ch=8 n=g5 v=127
39908 Off ch=11 n=a5 v=127
39932 On ch=6 n=f5 v=127
39954 Off ch=8 n=g5 v=127
39978 On ch=5 n=e5 v=127
40000 Off ch=6 n=f5 v=127
40023 Off ch=3 n=d6 v=127
40024 On ch=3 n=d5 v=127
40046 Off ch=5 n=e5 v=127
40208 On ch=11 n=a4 v=127
40254 On ch=8 n=g4 v=127
40276 Off ch=11 n=a4 v=127
40300 On ch=6 n=f4 v=127
40322 Off ch=8 n=g4 v=127
40346 On ch=5 n=e4 v=127
40368 Off ch=6 n=f4 v=127
40391 Off ch=3 n=d5 v=127
40392 On ch=3 n=d4 v=127
40414 Off ch=5 n=e4 v=127
40576 On ch=11 n=a3 v=127
40622 On ch=8 n=g3 v=127
40644 Off ch=11 n=a3 v=127
40668 On ch=6 n=f3 v=127
40690 Off ch=8 n=g3 v=127
40714 On ch=5 n=e3 v=127
40736 Off ch=6 n=f3 v=127
40759 Off ch=3 n=d4 v=127
40760 On ch=3 n=d3 v=127
40782 Off ch=5 n=e3 v=127
40944 On ch=3 n=d6 v=127
41127 Off ch=3 n=d6 v=127
41128 On ch=11 n=a5 v=127
41311 Off ch=11 n=a5 v=127
41311 Off ch=3 n=d3 v=127
41312 On ch=3 n=d5 v=127
41312 On ch=6 n=f6 v=127
41495 Off ch=6 n=f6 v=127
41495 Off ch=3 n=d5 v=127
41496 On ch=8 n=g4 v=127
41496 On ch=12 n=a#5 v=127
41496 On ch=6 n=f6 v=127
41679 Off ch=6 n=f6 v=127
41680 On ch=5 n=e6 v=127
41863 Off ch=5 n=e6 v=127
41863 Off ch=12 n=a#5 v=127
41864 On ch=8 n=g3 v=127
41864 On ch=5 n=e6 v=127
41864 On ch=12 n=a#5 v=127
42047 Off ch=5 n=e6 v=127
42047 Off ch=8 n=g4 v=127
42048 On ch=3 n=d6 v=127
42231 Off ch=3 n=d6 v=127
42231 Off ch=12 n=a#5 v=127
42231 Off ch=8 n=g3 v=127
42232 On ch=11 n=a3 v=127
42232 On ch=11 n=a5 v=127
42232 On ch=2 n=c#6 v=127
42369 Off ch=2 n=c#6 v=127
42415 Off ch=11 n=a5 v=127
42416 On ch=11 n=a6 v=127
42599 Off ch=11 n=a6 v=127
42599 Off ch=11 n=a3 v=127
42600 On ch=9 n=g#6 v=127
42783 Off ch=9 n=g#6 v=127
42784 On ch=8 n=g6 v=127
42967 Off ch=8 n=g6 v=127
42968 On ch=7 n=f#6 v=127
43151 Off ch=7 n=f#6 v=127
43152 On ch=6 n=f6 v=127
43152 On ch=11 n=a5 v=127
43335 Off ch=11 n=a5 v=127
43336 On ch=9 n=g#5 v=127
43519 Off ch=9 n=g#5 v=127
43519 Off ch=6 n=f6 v=127
43520 On ch=8 n=g5 v=127
43520 On ch=5 n=e6 v=127
43703 Off ch=8 n=g5 v=127
43704 On ch=7 n=f#5 v=127
43887 Off ch=7 n=f#5 v=127
43887 Off ch=5 n=e6 v=127
43888 On ch=6 n=f5 v=127
43888 On ch=3 n=d6 v=127
44071 Off ch=6 n=f5 v=127
44072 On ch=5 n=e5 v=127
44255 Off ch=3 n=d6 v=127
44256 On ch=1 n=c6 v=127
44439 Off ch=5 n=e5 v=127
44440 On ch=4 n=d#5 v=127
44623 Off ch=4 n=d#5 v=127
44623 Off ch=1 n=c6 v=127
44624 On ch=3 n=d5 v=127
44624 On ch=13 n=b5 v=127
44807 Off ch=3 n=d5 v=127
44808 On ch=2 n=c#5 v=127
44991 Off ch=2 n=c#5 v=127
44991 Off ch=13 n=b5 v=127
44992 On ch=1 n=c5 v=127
44992 On ch=11 n=a5 v=127
45175 Off ch=1 n=c5 v=127
45176 On ch=13 n=b4 v=127
45359 Off ch=13 n=b4 v=127
45359 Off ch=11 n=a5 v=127
45360 On ch=12 n=a#4 v=127
45360 On ch=8 n=g5 v=127
45543 Off ch=12 n=a#4 v=127
45544 On ch=11 n=a4 v=127
45727 Off ch=8 n=g5 v=127
45728 On ch=6 n=f5 v=127
45911 Off ch=11 n=a4 v=127
45912 On ch=9 n=g#4 v=127
46095 Off ch=9 n=g#4 v=127
46095 Off ch=6 n=f5 v=127
46096 On ch=8 n=g4 v=127
46096 On ch=5 n=e5 v=127
46279 Off ch=8 n=g4 v=127
46280 On ch=7 n=f#4 v=127
46463 Off ch=7 n=f#4 v=127
46463 Off ch=5 n=e5 v=127
46464 On ch=6 n=f4 v=127
46464 On ch=3 n=d5 v=127
46601 Off ch=3 n=d5 v=127
46647 Off ch=6 n=f4 v=127
46648 On ch=5 n=e3 v=127
46832 On ch=5 n=e4 v=127
47000 Off ch=5 n=e4 v=127
47012 Off ch=5 n=e3 v=127
47016 On ch=9 n=g#4 v=127
47184 Off ch=9 n=g#4 v=127
47200 On ch=13 n=b4 v=127
47368 Off ch=13 n=b4 v=127
47384 On ch=3 n=d5 v=127
47552 Off ch=3 n=d5 v=127
47568 On ch=6 n=f5 v=127
47736 Off ch=6 n=f5 v=127
47752 On ch=9 n=g#5 v=127
47920 Off ch=9 n=g#5 v=127
47936 On ch=13 n=b5 v=127
48104 Off ch=13 n=b5 v=127
48120 On ch=3 n=d6 v=127
48258 Off ch=3 n=d6 v=127
48304 On ch=6 n=f6 v=127
48304 On ch=5 n=e4 v=127
48487 Off ch=5 n=e4 v=127
48488 On ch=7 n=f#4 v=127
48671 Off ch=7 n=f#4 v=127
48671 Off ch=6 n=f6 v=127
48672 On ch=5 n=e6 v=127
48672 On ch=9 n=g#4 v=127
48763 Off ch=5 n=e6 v=127
48764 On ch=3 n=d6 v=127
48855 Off ch=3 n=d6 v=127
48855 Off ch=9 n=g#4 v=127
48856 On ch=1 n=c6 v=127
48856 On ch=11 n=a4 v=127
49039 Off ch=11 n=a4 v=127
49039 Off ch=1 n=c6 v=127
49040 On ch=13 n=b5 v=127
49040 On ch=13 n=b4 v=127
49223 Off ch=13 n=b4 v=127
49223 Off ch=13 n=b5 v=127
49224 On ch=1 n=c5 v=127
49224 On ch=11 n=a5 v=127
49407 Off ch=11 n=a5 v=127
49408 On ch=8 n=g5 v=127
49545 Off ch=8 n=g5 v=127
49570 Off ch=1 n=c5 v=127
49592 On ch=7 n=f#4 v=127
49760 Off ch=7 n=f#4 v=127
49776 On ch=11 n=a4 v=127
49944 Off ch=11 n=a4 v=127
49960 On ch=1 n=c5 v=127
50128 Off ch=1 n=c5 v=127
50144 On ch=4 n=d#5 v=127
50312 Off ch=4 n=d#5 v=127
50328 On ch=7 n=f#5 v=127
50496 Off ch=7 n=f#5 v=127
50512 On ch=11 n=a5 v=127
50680 Off ch=11 n=a5 v=127
50696 On ch=1 n=c6 v=127
50864 Off ch=1 n=c6 v=127
50880 On ch=4 n=d#6 v=127
51040 Off ch=4 n=d#6 v=127
51064 On ch=1 n=c7 v=127
51248 On ch=3 n=d4 v=127
51431 Off ch=3 n=d4 v=127
51432 On ch=5 n=e4 v=127
51615 Off ch=5 n=e4 v=127
51615 Off ch=1 n=c7 v=127
51616 On ch=12 n=a#6 v=127
51616 On ch=7 n=f#4 v=127
51707 Off ch=12 n=a#6 v=127
51708 On ch=11 n=a6 v=127
51799 Off ch=11 n=a6 v=127
51799 Off ch=7 n=f#4 v=127
51800 On ch=12 n=a#6 v=127
51800 On ch=8 n=g4 v=127
51983 Off ch=8 n=g4 v=127
51983 Off ch=12 n=a#6 v=127
51984 On ch=11 n=a6 v=127
51984 On ch=11 n=a4 v=127
52167 Off ch=11 n=a4 v=127
52167 Off ch=11 n=a6 v=127
52168 On ch=8 n=g6 v=127
52168 On ch=12 n=a#4 v=127
52351 Off ch=8 n=g6 v=127
52352 On ch=6 n=f6 v=127
52489 Off ch=6 n=f6 v=127
52535 Off ch=12 n=a#4 v=127
52536 On ch=5 n=e5 v=127
52720 On ch=8 n=g5 v=127
52804 Off ch=5 n=e5 v=127
52888 Off ch=8 n=g5 v=127
52904 On ch=12 n=a#5 v=127
53072 Off ch=12 n=a#5 v=127
53088 On ch=5 n=e6 v=127
53226 Off ch=5 n=e6 v=127
53272 On ch=12 n=a#6 v=127
53456 On ch=1 n=c4 v=127
53639 Off ch=1 n=c4 v=127
53640 On ch=3 n=d4 v=127
53823 Off ch=3 n=d4 v=127
53823 Off ch=12 n=a#6 v=127
53824 On ch=11 n=a6 v=127
53824 On ch=5 n=e4 v=127
53915 Off ch=11 n=a6 v=127
53916 On ch=9 n=g#6 v=127
54007 Off ch=9 n=g#6 v=127
54007 Off ch=5 n=e4 v=127
54008 On ch=11 n=a6 v=127
54008 On ch=6 n=f4 v=127
54180 Off ch=11 n=a6 v=127
54192 On ch=8 n=g6 v=127
54375 Off ch=6 n=f4 v=127
54376 On ch=5 n=e4 v=127
54559 Off ch=8 n=g6 v=127
54560 On ch=6 n=f6 v=127
54651 Off ch=6 n=f6 v=127
54652 On ch=5 n=e6 v=127
54743 Off ch=5 n=e6 v=127
54743 Off ch=5 n=e4 v=127
54744 On ch=6 n=f6 v=127
54744 On ch=3 n=d4 v=127
54916 Off ch=6 n=f6 v=127
54928 On ch=5 n=e6 v=127
55111 Off ch=3 n=d4 v=127
55112 On ch=1 n=c4 v=127
55295 Off ch=5 n=e6 v=127
55296 On ch=3 n=d6 v=127
55387 Off ch=3 n=d6 v=127
55388 On ch=2 n=c#6 v=127
55479 Off ch=2 n=c#6 v=127
55479 Off ch=1 n=c4 v=127
55480 On ch=3 n=d6 v=127
55480 On ch=13 n=b3 v=127
55652 Off ch=3 n=d6 v=127
55664 On ch=1 n=c6 v=127
55847 Off ch=13 n=b3 v=127
55848 On ch=11 n=a3 v=127
56031 Off ch=1 n=c6 v=127
56032 On ch=13 n=b5 v=127
56123 Off ch=13 n=b5 v=127
56124 On ch=11 n=a5 v=127
56215 Off ch=11 n=a5 v=127
56215 Off ch=11 n=a3 v=127
56216 On ch=5 n=e4 v=127
56216 On ch=9 n=g#5 v=127
56376 Off ch=9 n=g#5 v=127
56400 On ch=9 n=g#6 v=127
56400 On ch=5 n=e5 v=127
56583 Off ch=9 n=g#6 v=127
56584 On ch=11 n=a6 v=127
56676 Off ch=5 n=e4 v=127
56767 Off ch=11 n=a6 v=127
56767 Off ch=5 n=e5 v=127
56768 On ch=13 n=b6 v=127
56768 On ch=3 n=d4 v=127
56951 Off ch=3 n=d4 v=127
56951 Off ch=13 n=b6 v=127
56952 On ch=5 n=e6 v=127
56952 On ch=1 n=c4 v=127
57112 Off ch=5 n=e6 v=127
57136 On ch=1 n=c5 v=127
57136 On ch=9 n=g#6 v=127
57319 Off ch=9 n=g#6 v=127
57319 Off ch=1 n=c4 v=127
57320 On ch=11 n=a6 v=127
57503 Off ch=11 n=a6 v=127
57503 Off ch=1 n=c5 v=127
57504 On ch=13 n=b6 v=127
57504 On ch=13 n=b3 v=127
57687 Off ch=13 n=b3 v=127
57687 Off ch=13 n=b6 v=127
57688 On ch=1 n=c6 v=127
57688 On ch=11 n=a3 v=127
57848 Off ch=1 n=c6 v=127
57872 On ch=11 n=a4 v=127
57872 On ch=9 n=g#6 v=127
58055 Off ch=9 n=g#6 v=127
58055 Off ch=11 n=a3 v=127
58056 On ch=11 n=a6 v=127
58239 Off ch=11 n=a6 v=127
58239 Off ch=11 n=a4 v=127
58240 On ch=13 n=b6 v=127
58240 On ch=8 n=g3 v=127
58423 Off ch=8 n=g3 v=127
58423 Off ch=13 n=b6 v=127
58424 On ch=11 n=a5 v=127
58424 On ch=6 n=f3 v=127
58584 Off ch=11 n=a5 v=127
58608 On ch=6 n=f4 v=127
58608 On ch=9 n=g#6 v=127
58791 Off ch=9 n=g#6 v=127
58791 Off ch=6 n=f3 v=127
58792 On ch=11 n=a6 v=127
58975 Off ch=11 n=a6 v=127
58975 Off ch=6 n=f4 v=127
58976 On ch=5 n=e3 v=127
58976 On ch=13 n=b6 v=127
59091 Off ch=13 n=b6 v=127
59159 Off ch=5 n=e3 v=127
59160 On ch=3 n=d3 v=127
59160 On ch=6 n=f5 v=127
59343 Off ch=6 n=f5 v=127
59343 Off ch=3 n=d3 v=127
59344 On ch=3 n=d5 v=127
59344 On ch=9 n=g#5 v=127
59527 Off ch=9 n=g#5 v=127
59527 Off ch=3 n=d5 v=127
59528 On ch=11 n=a5 v=127
59528 On ch=1 n=c5 v=127
59711 Off ch=1 n=c5 v=127
59711 Off ch=11 n=a5 v=127
59712 On ch=13 n=b4 v=127
59712 On ch=13 n=b5 v=127
59895 Off ch=13 n=b5 v=127
59895 Off ch=13 n=b4 v=127
59896 On ch=1 n=c6 v=127
59896 On ch=11 n=a4 v=127
60079 Off ch=11 n=a4 v=127
60079 Off ch=1 n=c6 v=127
60080 On ch=3 n=d6 v=127
60080 On ch=13 n=b4 v=127
60263 Off ch=13 n=b4 v=127
60263 Off ch=3 n=d6 v=127
60264 On ch=1 n=c5 v=127
60264 On ch=5 n=e6 v=127
60447 Off ch=5 n=e6 v=127
60447 Off ch=1 n=c5 v=127
60448 On ch=3 n=d5 v=127
60448 On ch=6 n=f6 v=127
60616 Off ch=6 n=f6 v=127
60625 Off ch=3 n=d5 v=127
60633 On ch=9 n=g#5 v=127
60633 On ch=5 n=e4 v=127
60817 On ch=3 n=d5 v=127
60817 On ch=11 n=a5 v=127
60863 Off ch=9 n=g#5 v=127
60908 Off ch=11 n=a5 v=127
60909 On ch=13 n=b5 v=127
61000 Off ch=13 n=b5 v=127
61000 Off ch=3 n=d5 v=127
61001 On ch=5 n=e5 v=127
61001 On ch=1 n=c5 v=127
61184 Off ch=1 n=c5 v=127
61184 Off ch=5 n=e4 v=127
61185 On ch=3 n=d6 v=127
61185 On ch=3 n=d5 v=127
61231 Off ch=5 n=e5 v=127
61368 Off ch=3 n=d5 v=127
61369 On ch=5 n=e5 v=127
61369 On ch=1 n=c6 v=127
61369 On ch=11 n=a5 v=127
61414 Off ch=3 n=d6 v=127
61552 Off ch=1 n=c6 v=127
61552 Off ch=5 n=e5 v=127
61553 On ch=3 n=d5 v=127
61553 On ch=3 n=d6 v=127
61736 Off ch=3 n=d6 v=127
61736 Off ch=3 n=d5 v=127
61736 Off ch=11 n=a5 v=127
61737 On ch=1 n=c6 v=127
61737 On ch=9 n=g#5 v=127
61737 On ch=5 n=e5 v=127
61783 On ch=13 n=b5 v=127
61805 Off ch=1 n=c6 v=127
61829 On ch=1 n=c6 v=127
61851 Off ch=13 n=b5 v=127
61875 On ch=13 n=b5 v=127
61897 Off ch=1 n=c6 v=127
61920 Off ch=5 n=e5 v=127
61921 On ch=5 n=e4 v=127
62012 Off ch=13 n=b5 v=127
62104 Off ch=5 n=e4 v=127
62104 Off ch=9 n=g#5 v=127
62105 On ch=11 n=a5 v=127
62105 On ch=11 n=a4 v=127
62289 On ch=11 n=a6 v=127
62373 Off ch=11 n=a5 v=127
62472 Off ch=11 n=a6 v=127
62473 On ch=9 n=g#6 v=127
62565 Off ch=11 n=a4 v=127
62656 Off ch=9 n=g#6 v=127
62657 On ch=8 n=g6 v=127
62840 Off ch=8 n=g6 v=127
62841 On ch=7 n=f#6 v=127
63024 Off ch=7 n=f#6 v=127
63025 On ch=6 n=f6 v=127
63025 On ch=11 n=a5 v=127
63208 Off ch=11 n=a5 v=127
63209 On ch=9 n=g#5 v=127
63392 Off ch=9 n=g#5 v=127
63392 Off ch=6 n=f6 v=127
63393 On ch=8 n=g5 v=127
63393 On ch=5 n=e6 v=127
63576 Off ch=8 n=g5 v=127
63577 On ch=7 n=f#5 v=127
63760 Off ch=7 n=f#5 v=127
63760 Off ch=5 n=e6 v=127
63761 On ch=6 n=f5 v=127
63761 On ch=3 n=d6 v=127
63944 Off ch=6 n=f5 v=127
63945 On ch=5 n=e5 v=127
64128 Off ch=3 n=d6 v=127
64129 On ch=1 n=c6 v=127
64312 Off ch=5 n=e5 v=127
64313 On ch=4 n=d#5 v=127
64496 Off ch=4 n=d#5 v=127
64496 Off ch=1 n=c6 v=127
64497 On ch=13 n=b5 v=127
64497 On ch=3 n=d5 v=127
64680 Off ch=3 n=d5 v=127
64681 On ch=2 n=c#5 v=127
64864 Off ch=2 n=c#5 v=127
64864 Off ch=13 n=b5 v=127
64865 On ch=1 n=c5 v=127
64865 On ch=11 n=a5 v=127
65048 Off ch=1 n=c5 v=127
65049 On ch=13 n=b4 v=127
65049 On ch=3 n=d5 v=127
65232 Off ch=11 n=a5 v=127
65233 On ch=9 n=g#5 v=127
65416 Off ch=9 n=g#5 v=127
65416 Off ch=3 n=d5 v=127
65416 Off ch=13 n=b4 v=127
65417 On ch=11 n=a5 v=127
65417 On ch=11 n=a4 v=127
65417 On ch=1 n=c5 v=127
65600 Off ch=1 n=c5 v=127
65600 Off ch=11 n=a4 v=127
65600 Off ch=11 n=a5 v=127
65601 On ch=3 n=d6 v=127
65601 On ch=3 n=d4 v=127
65784 Off ch=3 n=d4 v=127
65784 Off ch=3 n=d6 v=127
65785 On ch=1 n=c6 v=127
65785 On ch=5 n=e5 v=127
65785 On ch=11 n=a5 v=127
65785 On ch=5 n=e4 v=127
65968 Off ch=5 n=e4 v=127
65968 Off ch=1 n=c6 v=127
65969 On ch=3 n=d4 v=127
65969 On ch=3 n=d6 v=127
66152 Off ch=3 n=d6 v=127
66152 Off ch=3 n=d4 v=127
66152 Off ch=11 n=a5 v=127
66153 On ch=1 n=c6 v=127
66153 On ch=9 n=g#5 v=127
66153 On ch=5 n=e4 v=127
66199 On ch=13 n=b5 v=127
66221 Off ch=1 n=c6 v=127
66245 On ch=1 n=c6 v=127
66267 Off ch=13 n=b5 v=127
66291 On ch=13 n=b5 v=127
66313 Off ch=1 n=c6 v=127
66337 On ch=5 n=e3 v=127
66428 Off ch=13 n=b5 v=127
66520 Off ch=5 n=e3 v=127
66520 Off ch=5 n=e4 v=127
66520 Off ch=9 n=g#5 v=127
66520 Off ch=5 n=e5 v=127
66521 On ch=11 n=a3 v=127
66521 On ch=11 n=a5 v=127
66704 Off ch=11 n=a5 v=127
66705 On ch=5 n=e6 v=127
66751 On ch=3 n=d6 v=127
66773 Off ch=5 n=e6 v=127
66797 On ch=1 n=c6 v=127
66819 Off ch=3 n=d6 v=127
66843 On ch=13 n=b5 v=127
66865 Off ch=1 n=c6 v=127
66888 Off ch=11 n=a3 v=127
66889 On ch=11 n=a5 v=127
66911 Off ch=13 n=b5 v=127
67073 On ch=5 n=e5 v=127
67119 On ch=3 n=d5 v=127
67141 Off ch=5 n=e5 v=127
67165 On ch=1 n=c5 v=127
67187 Off ch=3 n=d5 v=127
67211 On ch=13 n=b4 v=127
67233 Off ch=1 n=c5 v=127
67256 Off ch=11 n=a5 v=127
67257 On ch=11 n=a4 v=127
67279 Off ch=13 n=b4 v=127
67441 On ch=5 n=e4 v=127
67487 On ch=3 n=d4 v=127
67509 Off ch=5 n=e4 v=127
67533 On ch=1 n=c4 v=127
67555 Off ch=3 n=d4 v=127
67579 On ch=13 n=b3 v=127
67601 Off ch=1 n=c4 v=127
67624 Off ch=11 n=a4 v=127
67625 On ch=11 n=a3 v=127
67647 Off ch=13 n=b3 v=127
67809 On ch=11 n=a5 v=127
67809 On ch=6 n=f5 v=127
67809 On ch=3 n=d6 v=127
67809 On ch=3 n=d4 v=127
67992 Off ch=3 n=d4 v=127
67992 Off ch=3 n=d6 v=127
67992 Off ch=6 n=f5 v=127
67992 Off ch=11 n=a5 v=127
67992 Off ch=11 n=a3 v=127
67993 On ch=11 n=a5 v=127
67993 On ch=5 n=e5 v=127
67993 On ch=1 n=c6 v=127
67993 On ch=5 n=e4 v=127
68361 Off ch=1 n=c6 v=127
68361 Off ch=11 n=a5 v=127
68362 On ch=13 n=b5 v=127
68362 On ch=9 n=g#5 v=127
68362 On ch=5 n=e3 v=127
68730 Off ch=5 n=e3 v=127
68730 Off ch=9 n=g#5 v=127
68730 Off ch=13 n=b5 v=127
68730 Off ch=5 n=e4 v=127
68730 Off ch=5 n=e5 v=127
68731 On ch=11 n=a5 v=127
68731 On ch=11 n=a3 v=127
68731 On ch=11 n=a4 v=127
70459 Off ch=11 n=a4 v=127
70459 Off ch=11 n=a3 v=127
70459 Off ch=11 n=a5 v=127
73728 Meta TrkEnd
TrkEnd
