MFile 0 1 384
MTrk
0 Meta Copyright "(C) John Sankey 1998"
0 PrCh ch=1 p=6
0 Pb ch=1 v=8192
0 PrCh ch=2 p=6
0 Pb ch=2 v=7602
0 PrCh ch=3 p=6
0 Pb ch=3 v=7920
0 PrCh ch=4 p=6
0 Pb ch=4 v=7839
0 PrCh ch=5 p=6
0 Pb ch=5 v=7632
0 PrCh ch=6 p=6
0 Pb ch=6 v=8112
0 PrCh ch=7 p=6
0 Pb ch=7 v=7567
0 PrCh ch=8 p=6
0 Pb ch=8 v=8062
0 PrCh ch=9 p=6
0 Pb ch=9 v=7680
0 PrCh ch=11 p=6
0 Pb ch=11 v=7728
0 PrCh ch=12 p=6
0 Pb ch=12 v=7984
0 PrCh ch=13 p=6
0 Pb ch=13 v=7639
0 Tempo 500000
121 On ch=8 n=g5 v=127
192 Off ch=8 n=g5 v=127
234 On ch=8 n=g5 v=127
364 On ch=12 n=a#5 v=127
385 Off ch=8 n=g5 v=127
484 Off ch=12 n=a#5 v=127
485 On ch=11 n=a5 v=127
605 Off ch=11 n=a5 v=127
606 On ch=1 n=c6 v=127
726 Off ch=1 n=c6 v=127
727 On ch=12 n=a#5 v=127
847 Off ch=12 n=a#5 v=127
848 On ch=3 n=d6 v=127
968 Off ch=3 n=d6 v=127
969 On ch=1 n=c6 v=127
1089 Off ch=1 n=c6 v=127
1090 On ch=8 n=g4 v=127
1090 On ch=4 n=d#6 v=127
1201 Off ch=8 n=g4 v=127
1210 Off ch=4 n=d#6 v=127
1211 On ch=8 n=g4 v=127
1211 On ch=3 n=d6 v=127
1331 Off ch=8 n=g4 v=127
1332 On ch=12 n=a#4 v=127
1452 Off ch=12 n=a#4 v=127
1453 On ch=11 n=a4 v=127
1573 Off ch=11 n=a4 v=127
1574 On ch=1 n=c5 v=127
1694 Off ch=1 n=c5 v=127
1695 On ch=12 n=a#4 v=127
1815 Off ch=12 n=a#4 v=127
1816 On ch=3 n=d5 v=127
1936 Off ch=3 n=d5 v=127
1936 Off ch=3 n=d6 v=127
1937 On ch=1 n=c5 v=127
1937 On ch=8 n=g6 v=127
2057 Off ch=1 n=c5 v=127
2058 On ch=4 n=d#5 v=127
2178 Off ch=4 n=d#5 v=127
2178 Off ch=8 n=g6 v=127
2179 On ch=3 n=d5 v=127
2179 On ch=7 n=f#6 v=127
2299 Off ch=3 n=d5 v=127
2300 On ch=7 n=f#5 v=127
2420 Off ch=7 n=f#5 v=127
2420 Off ch=7 n=f#6 v=127
2421 On ch=5 n=e5 v=127
2421 On ch=8 n=g6 v=127
2541 Off ch=5 n=e5 v=127
2542 On ch=8 n=g5 v=127
2662 Off ch=8 n=g5 v=127
2662 Off ch=8 n=g6 v=127
2663 On ch=7 n=f#5 v=127
2663 On ch=11 n=a6 v=127
2783 Off ch=7 n=f#5 v=127
2784 On ch=11 n=a5 v=127
2904 Off ch=11 n=a5 v=127
2904 Off ch=11 n=a6 v=127
2905 On ch=3 n=d5 v=127
2905 On ch=1 n=c6 v=127
3025 Off ch=3 n=d5 v=127
3026 On ch=7 n=f#5 v=127
3146 Off ch=7 n=f#5 v=127
3146 Off ch=1 n=c6 v=127
3147 On ch=8 n=g4 v=127
3147 On ch=12 n=a#5 v=127
3267 Off ch=8 n=g4 v=127
3268 On ch=12 n=a#4 v=127
3388 Off ch=12 n=a#4 v=127
3388 Off ch=12 n=a#5 v=127
3389 On ch=11 n=a4 v=127
3389 On ch=1 n=c6 v=127
3509 Off ch=11 n=a4 v=127
3510 On ch=1 n=c5 v=127
3630 Off ch=1 n=c5 v=127
3630 Off ch=1 n=c6 v=127
3631 On ch=12 n=a#4 v=127
3631 On ch=3 n=d6 v=127
3751 Off ch=12 n=a#4 v=127
3752 On ch=3 n=d5 v=127
3872 Off ch=3 n=d5 v=127
3872 Off ch=3 n=d6 v=127
3873 On ch=1 n=c5 v=127
3873 On ch=8 n=g5 v=127
3993 Off ch=1 n=c5 v=127
3994 On ch=4 n=d#5 v=127
4114 Off ch=4 n=d#5 v=127
4114 Off ch=8 n=g5 v=127
4115 On ch=3 n=d4 v=127
4115 On ch=7 n=f#5 v=127
4235 Off ch=3 n=d4 v=127
4236 On ch=7 n=f#4 v=127
4356 Off ch=7 n=f#4 v=127
4356 Off ch=7 n=f#5 v=127
4357 On ch=5 n=e4 v=127
4357 On ch=8 n=g5 v=127
4477 Off ch=5 n=e4 v=127
4478 On ch=8 n=g4 v=127
4598 Off ch=8 n=g4 v=127
4598 Off ch=8 n=g5 v=127
4599 On ch=7 n=f#4 v=127
4599 On ch=11 n=a5 v=127
4719 Off ch=7 n=f#4 v=127
4720 On ch=11 n=a4 v=127
4840 Off ch=11 n=a4 v=127
4840 Off ch=11 n=a5 v=127
4841 On ch=3 n=d4 v=127
4841 On ch=1 n=c5 v=127
4961 Off ch=3 n=d4 v=127
4962 On ch=7 n=f#4 v=127
5082 Off ch=7 n=f#4 v=127
5082 Off ch=1 n=c5 v=127
5083 On ch=8 n=g3 v=127
5083 On ch=12 n=a#4 v=127
5203 Off ch=8 n=g3 v=127
5204 On ch=12 n=a#3 v=127
5324 Off ch=12 n=a#3 v=127
5324 Off ch=12 n=a#4 v=127
5325 On ch=11 n=a3 v=127
5325 On ch=1 n=c5 v=127
5445 Off ch=11 n=a3 v=127
5446 On ch=1 n=c4 v=127
5566 Off ch=1 n=c4 v=127
5566 Off ch=1 n=c5 v=127
5567 On ch=12 n=a#3 v=127
5567 On ch=3 n=d5 v=127
5687 Off ch=12 n=a#3 v=127
5688 On ch=3 n=d4 v=127
5808 Off ch=3 n=d4 v=127
5808 Off ch=3 n=d5 v=127
5809 On ch=1 n=c4 v=127
5809 On ch=8 n=g5 v=127
5929 Off ch=1 n=c4 v=127
5930 On ch=4 n=d#4 v=127
6050 Off ch=4 n=d#4 v=127
6050 Off ch=8 n=g5 v=127
6051 On ch=3 n=d4 v=127
6051 On ch=7 n=f#5 v=127
6171 Off ch=3 n=d4 v=127
6172 On ch=7 n=f#4 v=127
6292 Off ch=7 n=f#4 v=127
6292 Off ch=7 n=f#5 v=127
6293 On ch=5 n=e4 v=127
6293 On ch=8 n=g5 v=127
6413 Off ch=5 n=e4 v=127
6414 On ch=8 n=g4 v=127
6534 Off ch=8 n=g4 v=127
6534 Off ch=8 n=g5 v=127
6535 On ch=7 n=f#4 v=127
6535 On ch=11 n=a5 v=127
6656 On ch=1 n=c5 v=127
6686 Off ch=11 n=a5 v=127
6776 Off ch=1 n=c5 v=127
6776 Off ch=7 n=f#4 v=127
6777 On ch=3 n=d4 v=127
6777 On ch=12 n=a#4 v=127
6897 Off ch=12 n=a#4 v=127
6898 On ch=11 n=a4 v=127
7018 Off ch=11 n=a4 v=127
7018 Off ch=3 n=d4 v=127
7019 On ch=8 n=g4 v=127
7019 On ch=12 n=a#4 v=127
7140 On ch=3 n=d5 v=127
7170 Off ch=12 n=a#4 v=127
7260 Off ch=3 n=d5 v=127
7260 Off ch=8 n=g4 v=127
7261 On ch=12 n=a#3 v=127
7261 On ch=8 n=g5 v=127
7382 On ch=12 n=a#4 v=127
7502 Off ch=12 n=a#4 v=127
7502 Off ch=12 n=a#3 v=127
7503 On ch=1 n=c4 v=127
7503 On ch=11 n=a4 v=127
7623 Off ch=8 n=g5 v=127
7624 On ch=11 n=a5 v=127
7744 Off ch=11 n=a5 v=127
7744 Off ch=1 n=c4 v=127
7745 On ch=3 n=d4 v=127
7745 On ch=7 n=f#5 v=127
7865 Off ch=11 n=a4 v=127
7866 On ch=1 n=c5 v=127
7986 Off ch=1 n=c5 v=127
7986 Off ch=7 n=f#5 v=127
7986 Off ch=3 n=d4 v=127
7987 On ch=8 n=g3 v=127
7987 On ch=12 n=a#4 v=127
7987 On ch=8 n=g5 v=127
8107 Off ch=12 n=a#4 v=127
8108 On ch=4 n=d#5 v=127
8228 Off ch=4 n=d#5 v=127
8228 Off ch=8 n=g5 v=127
8228 Off ch=8 n=g3 v=127
8229 On ch=8 n=g4 v=127
8229 On ch=3 n=d5 v=127
8349 Off ch=3 n=d5 v=127
8350 On ch=1 n=c5 v=127
8470 Off ch=1 n=c5 v=127
8471 On ch=3 n=d5 v=127
8591 Off ch=8 n=g4 v=127
8592 On ch=12 n=a#4 v=127
8712 Off ch=12 n=a#4 v=127
8712 Off ch=3 n=d5 v=127
8713 On ch=11 n=a4 v=127
8713 On ch=4 n=d#5 v=127
8833 Off ch=11 n=a4 v=127
8834 On ch=8 n=g4 v=127
8954 Off ch=8 n=g4 v=127
8954 Off ch=4 n=d#5 v=127
8955 On ch=11 n=a4 v=127
8955 On ch=6 n=f5 v=127
9075 Off ch=11 n=a4 v=127
9076 On ch=4 n=d#5 v=127
9196 Off ch=4 n=d#5 v=127
9196 Off ch=6 n=f5 v=127
9197 On ch=3 n=d5 v=127
9197 On ch=11 n=a5 v=127
9317 Off ch=3 n=d5 v=127
9318 On ch=1 n=c5 v=127
9438 Off ch=1 n=c5 v=127
9438 Off ch=11 n=a5 v=127
9439 On ch=3 n=d5 v=127
9439 On ch=12 n=a#5 v=127
9559 Off ch=12 n=a#5 v=127
9560 On ch=4 n=d#6 v=127
9680 Off ch=4 n=d#6 v=127
9680 Off ch=3 n=d5 v=127
9681 On ch=11 n=a4 v=127
9681 On ch=3 n=d6 v=127
9801 Off ch=3 n=d6 v=127
9802 On ch=1 n=c6 v=127
9922 Off ch=1 n=c6 v=127
9922 Off ch=11 n=a4 v=127
9923 On ch=12 n=a#4 v=127
9923 On ch=3 n=d6 v=127
10043 Off ch=12 n=a#4 v=127
10044 On ch=3 n=d5 v=127
10164 Off ch=3 n=d5 v=127
10164 Off ch=3 n=d6 v=127
10165 On ch=1 n=c5 v=127
10165 On ch=4 n=d#6 v=127
10285 Off ch=1 n=c5 v=127
10286 On ch=4 n=d#5 v=127
10406 Off ch=4 n=d#5 v=127
10406 Off ch=4 n=d#6 v=127
10407 On ch=3 n=d5 v=127
10407 On ch=6 n=f6 v=127
10527 Off ch=3 n=d5 v=127
10528 On ch=6 n=f5 v=127
10648 Off ch=6 n=f5 v=127
10648 Off ch=6 n=f6 v=127
10649 On ch=4 n=d#5 v=127
10649 On ch=12 n=a#5 v=127
10769 Off ch=4 n=d#5 v=127
10770 On ch=8 n=g5 v=127
10890 Off ch=8 n=g5 v=127
10890 Off ch=12 n=a#5 v=127
10891 On ch=6 n=f5 v=127
10891 On ch=11 n=a5 v=127
11011 Off ch=11 n=a5 v=127
11012 On ch=1 n=c6 v=127
11132 Off ch=1 n=c6 v=127
11132 Off ch=6 n=f5 v=127
11133 On ch=3 n=d5 v=127
11133 On ch=13 n=b5 v=127
11253 Off ch=13 n=b5 v=127
11254 On ch=3 n=d6 v=127
11374 Off ch=3 n=d6 v=127
11374 Off ch=3 n=d5 v=127
11375 On ch=4 n=d#5 v=127
11375 On ch=1 n=c6 v=127
11495 Off ch=4 n=d#5 v=127
11496 On ch=8 n=g5 v=127
11616 Off ch=8 n=g5 v=127
11616 Off ch=1 n=c6 v=127
11617 On ch=13 n=b4 v=127
11617 On ch=3 n=d6 v=127
11737 Off ch=13 n=b4 v=127
11738 On ch=3 n=d5 v=127
11858 Off ch=3 n=d5 v=127
11858 Off ch=3 n=d6 v=127
11859 On ch=1 n=c5 v=127
11859 On ch=4 n=d#6 v=127
11979 Off ch=1 n=c5 v=127
11980 On ch=4 n=d#5 v=127
12100 Off ch=4 n=d#5 v=127
12100 Off ch=4 n=d#6 v=127
12101 On ch=3 n=d5 v=127
12101 On ch=6 n=f6 v=127
12221 Off ch=3 n=d5 v=127
12222 On ch=6 n=f5 v=127
12342 Off ch=6 n=f5 v=127
12342 Off ch=6 n=f6 v=127
12343 On ch=4 n=d#5 v=127
12343 On ch=8 n=g6 v=127
12463 Off ch=4 n=d#5 v=127
12464 On ch=8 n=g5 v=127
12584 Off ch=8 n=g5 v=127
12584 Off ch=8 n=g6 v=127
12585 On ch=6 n=f5 v=127
12585 On ch=1 n=c6 v=127
12705 Off ch=6 n=f5 v=127
12706 On ch=9 n=g#5 v=127
12826 Off ch=9 n=g#5 v=127
12826 Off ch=1 n=c6 v=127
12827 On ch=8 n=g5 v=127
12827 On ch=13 n=b5 v=127
12947 Off ch=13 n=b5 v=127
12948 On ch=3 n=d6 v=127
13068 Off ch=3 n=d6 v=127
13068 Off ch=8 n=g5 v=127
13069 On ch=5 n=e5 v=127
13069 On ch=2 n=c#6 v=127
13189 Off ch=2 n=c#6 v=127
13190 On ch=5 n=e6 v=127
13310 Off ch=5 n=e6 v=127
13310 Off ch=5 n=e5 v=127
13311 On ch=6 n=f5 v=127
13311 On ch=3 n=d6 v=127
13431 Off ch=6 n=f5 v=127
13432 On ch=11 n=a5 v=127
13552 Off ch=11 n=a5 v=127
13552 Off ch=3 n=d6 v=127
13553 On ch=2 n=c#5 v=127
13553 On ch=5 n=e6 v=127
13673 Off ch=2 n=c#5 v=127
13674 On ch=5 n=e5 v=127
13794 Off ch=5 n=e5 v=127
13794 Off ch=5 n=e6 v=127
13795 On ch=3 n=d5 v=127
13795 On ch=6 n=f6 v=127
13915 Off ch=3 n=d5 v=127
13916 On ch=6 n=f5 v=127
14036 Off ch=6 n=f5 v=127
14036 Off ch=6 n=f6 v=127
14037 On ch=5 n=e5 v=127
14037 On ch=8 n=g6 v=127
14157 Off ch=5 n=e5 v=127
14158 On ch=8 n=g5 v=127
14278 Off ch=8 n=g5 v=127
14278 Off ch=8 n=g6 v=127
14279 On ch=6 n=f5 v=127
14279 On ch=11 n=a6 v=127
14399 Off ch=6 n=f5 v=127
14400 On ch=11 n=a5 v=127
14520 Off ch=11 n=a5 v=127
14520 Off ch=11 n=a6 v=127
14521 On ch=8 n=g5 v=127
14521 On ch=3 n=d6 v=127
14641 Off ch=8 n=g5 v=127
14642 On ch=12 n=a#5 v=127
14762 Off ch=12 n=a#5 v=127
14762 Off ch=3 n=d6 v=127
14763 On ch=11 n=a4 v=127
14763 On ch=2 n=c#6 v=127
14883 Off ch=11 n=a4 v=127
14884 On ch=2 n=c#5 v=127
15004 Off ch=2 n=c#5 v=127
15004 Off ch=2 n=c#6 v=127
15005 On ch=13 n=b4 v=127
15005 On ch=3 n=d6 v=127
15125 Off ch=13 n=b4 v=127
15126 On ch=3 n=d5 v=127
15246 Off ch=3 n=d5 v=127
15246 Off ch=3 n=d6 v=127
15247 On ch=2 n=c#5 v=127
15247 On ch=5 n=e6 v=127
15367 Off ch=2 n=c#5 v=127
15368 On ch=5 n=e5 v=127
15488 Off ch=5 n=e5 v=127
15488 Off ch=5 n=e6 v=127
15489 On ch=11 n=a4 v=127
15489 On ch=8 n=g5 v=127
15609 Off ch=11 n=a4 v=127
15610 On ch=2 n=c#5 v=127
15730 Off ch=2 n=c#5 v=127
15730 Off ch=8 n=g5 v=127
15731 On ch=3 n=d4 v=127
15731 On ch=6 n=f5 v=127
15851 Off ch=3 n=d4 v=127
15852 On ch=6 n=f4 v=127
15972 Off ch=6 n=f4 v=127
15972 Off ch=6 n=f5 v=127
15973 On ch=5 n=e4 v=127
15973 On ch=8 n=g5 v=127
16093 Off ch=5 n=e4 v=127
16094 On ch=8 n=g4 v=127
16214 Off ch=8 n=g4 v=127
16214 Off ch=8 n=g5 v=127
16215 On ch=6 n=f4 v=127
16215 On ch=11 n=a5 v=127
16335 Off ch=6 n=f4 v=127
16336 On ch=11 n=a4 v=127
16456 Off ch=11 n=a4 v=127
16456 Off ch=11 n=a5 v=127
16457 On ch=8 n=g4 v=127
16457 On ch=3 n=d5 v=127
16577 Off ch=8 n=g4 v=127
16578 On ch=12 n=a#4 v=127
16698 Off ch=12 n=a#4 v=127
16698 Off ch=3 n=d5 v=127
16699 On ch=11 n=a3 v=127
16699 On ch=2 n=c#5 v=127
16819 Off ch=11 n=a3 v=127
16820 On ch=2 n=c#4 v=127
16940 Off ch=2 n=c#4 v=127
16940 Off ch=2 n=c#5 v=127
16941 On ch=13 n=b3 v=127
16941 On ch=3 n=d5 v=127
17061 Off ch=13 n=b3 v=127
17062 On ch=3 n=d4 v=127
17182 Off ch=3 n=d4 v=127
17182 Off ch=3 n=d5 v=127
17183 On ch=2 n=c#4 v=127
17183 On ch=5 n=e5 v=127
17303 Off ch=5 n=e5 v=127
17304 On ch=8 n=g5 v=127
17424 Off ch=8 n=g5 v=127
17424 Off ch=2 n=c#4 v=127
17425 On ch=11 n=a3 v=127
17425 On ch=6 n=f5 v=127
17545 Off ch=6 n=f5 v=127
17546 On ch=5 n=e5 v=127
17666 Off ch=5 n=e5 v=127
17666 Off ch=11 n=a3 v=127
17667 On ch=3 n=d4 v=127
17667 On ch=6 n=f5 v=127
17787 Off ch=6 n=f5 v=127
17788 On ch=11 n=a5 v=127
17908 Off ch=11 n=a5 v=127
17908 Off ch=3 n=d4 v=127
17909 On ch=6 n=f4 v=127
17909 On ch=3 n=d6 v=127
18030 On ch=6 n=f5 v=127
18150 Off ch=6 n=f5 v=127
18150 Off ch=6 n=f4 v=127
18151 On ch=8 n=g4 v=127
18151 On ch=5 n=e5 v=127
18271 Off ch=3 n=d6 v=127
18272 On ch=5 n=e6 v=127
18392 Off ch=5 n=e6 v=127
18392 Off ch=8 n=g4 v=127
18393 On ch=11 n=a4 v=127
18393 On ch=1 n=c6 v=127
18513 Off ch=5 n=e5 v=127
18514 On ch=8 n=g5 v=127
18634 Off ch=8 n=g5 v=127
18634 Off ch=11 n=a4 v=127
18635 On ch=3 n=d4 v=127
18635 On ch=7 n=f#5 v=127
18755 Off ch=1 n=c6 v=127
18756 On ch=3 n=d6 v=127
18876 Off ch=3 n=d6 v=127
18876 Off ch=7 n=f#5 v=127
18876 Off ch=3 n=d4 v=127
18877 On ch=8 n=g4 v=127
18877 On ch=12 n=a#5 v=127
18998 On ch=8 n=g5 v=127
19118 Off ch=8 n=g5 v=127
19118 Off ch=12 n=a#5 v=127
19118 Off ch=8 n=g4 v=127
19119 On ch=2 n=c#4 v=127
19119 On ch=11 n=a5 v=127
19240 On ch=5 n=e6 v=127
19360 Off ch=5 n=e6 v=127
19360 Off ch=2 n=c#4 v=127
19361 On ch=3 n=d4 v=127
19361 On ch=6 n=f6 v=127
19481 Off ch=11 n=a5 v=127
19482 On ch=3 n=d6 v=127
19602 Off ch=3 n=d6 v=127
19602 Off ch=6 n=f6 v=127
19602 Off ch=3 n=d4 v=127
19603 On ch=11 n=a4 v=127
19603 On ch=2 n=c#6 v=127
19603 On ch=5 n=e6 v=127
19723 Off ch=2 n=c#6 v=127
19724 On ch=5 n=e5 v=127
19844 Off ch=5 n=e5 v=127
19844 Off ch=5 n=e6 v=127
19845 On ch=6 n=f5 v=127
19845 On ch=3 n=d6 v=127
19965 Off ch=6 n=f5 v=127
19966 On ch=3 n=d5 v=127
20086 Off ch=3 n=d5 v=127
20087 On ch=5 n=e5 v=127
20207 Off ch=5 n=e5 v=127
20208 On ch=6 n=f5 v=127
20328 Off ch=6 n=f5 v=127
20329 On ch=8 n=g5 v=127
20449 Off ch=3 n=d6 v=127
20450 On ch=2 n=c#6 v=127
20570 Off ch=2 n=c#6 v=127
20570 Off ch=8 n=g5 v=127
20570 Off ch=11 n=a4 v=127
20571 On ch=3 n=d5 v=127
20571 On ch=3 n=d6 v=127
20692 On ch=12 n=a#5 v=127
20812 Off ch=12 n=a#5 v=127
20813 On ch=7 n=f#5 v=127
20813 On ch=11 n=a5 v=127
20933 Off ch=11 n=a5 v=127
20933 Off ch=7 n=f#5 v=127
20934 Off ch=3 n=d6 v=127
20934 On ch=5 n=e5 v=127
20934 On ch=8 n=g5 v=127
21054 Off ch=8 n=g5 v=127
21054 Off ch=5 n=e5 v=127
21055 On ch=7 n=f#5 v=127
21055 On ch=11 n=a5 v=127
21175 Off ch=11 n=a5 v=127
21175 Off ch=7 n=f#5 v=127
21176 On ch=8 n=g5 v=127
21176 On ch=12 n=a#5 v=127
21296 Off ch=12 n=a#5 v=127
21296 Off ch=8 n=g5 v=127
21297 On ch=11 n=a5 v=127
21297 On ch=1 n=c6 v=127
21417 Off ch=1 n=c6 v=127
21417 Off ch=11 n=a5 v=127
21418 On ch=7 n=f#5 v=127
21418 On ch=11 n=a5 v=127
21538 Off ch=11 n=a5 v=127
21538 Off ch=7 n=f#5 v=127
21538 Off ch=3 n=d5 v=127
21539 On ch=8 n=g5 v=127
21539 On ch=12 n=a#5 v=127
21659 Off ch=12 n=a#5 v=127
21660 On ch=2 n=c#6 v=127
21780 Off ch=2 n=c#6 v=127
21780 Off ch=8 n=g5 v=127
21781 On ch=5 n=e5 v=127
21781 On ch=3 n=d6 v=127
21901 Off ch=3 n=d6 v=127
21902 On ch=5 n=e6 v=127
22022 Off ch=5 n=e6 v=127
22022 Off ch=5 n=e5 v=127
22023 On ch=6 n=f5 v=127
22023 On ch=11 n=a5 v=127
22143 Off ch=11 n=a5 v=127
22144 On ch=8 n=g6 v=127
22264 Off ch=8 n=g6 v=127
22264 Off ch=6 n=f5 v=127
22265 On ch=2 n=c#5 v=127
22265 On ch=6 n=f6 v=127
22385 Off ch=6 n=f6 v=127
22386 On ch=5 n=e6 v=127
22506 Off ch=5 n=e6 v=127
22506 Off ch=2 n=c#5 v=127
22507 On ch=3 n=d5 v=127
22507 On ch=6 n=f6 v=127
22627 Off ch=6 n=f6 v=127
22628 On ch=5 n=e6 v=127
22748 Off ch=5 n=e6 v=127
22748 Off ch=3 n=d5 v=127
22749 On ch=11 n=a4 v=127
22749 On ch=11 n=a5 v=127
22749 On ch=3 n=d6 v=127
22869 Off ch=3 n=d6 v=127
22870 On ch=1 n=c6 v=127
22990 Off ch=1 n=c6 v=127
22990 Off ch=11 n=a4 v=127
22991 On ch=12 n=a#4 v=127
22991 On ch=3 n=d6 v=127
23111 Off ch=3 n=d6 v=127
23112 On ch=5 n=e6 v=127
23232 Off ch=5 n=e6 v=127
23232 Off ch=11 n=a5 v=127
23233 On ch=8 n=g5 v=127
23233 On ch=6 n=f6 v=127
23353 Off ch=6 n=f6 v=127
23354 On ch=8 n=g6 v=127
23474 Off ch=8 n=g6 v=127
23474 Off ch=8 n=g5 v=127
23474 Off ch=12 n=a#4 v=127
23475 On ch=11 n=a3 v=127
23475 On ch=11 n=a6 v=127
23596 On ch=2 n=c#6 v=127
23626 Off ch=11 n=a6 v=127
23716 Off ch=2 n=c#6 v=127
23717 On ch=3 n=d6 v=127
23837 Off ch=3 n=d6 v=127
23838 On ch=5 n=e6 v=127
23958 Off ch=5 n=e6 v=127
23959 On ch=11 n=a5 v=127
24079 Off ch=11 n=a5 v=127
24079 Off ch=11 n=a3 v=127
24080 On ch=6 n=f5 v=127
24080 On ch=3 n=d6 v=127
24200 Off ch=3 n=d6 v=127
24200 Off ch=6 n=f5 v=127
24201 On ch=5 n=e5 v=127
24201 On ch=2 n=c#6 v=127
24321 Off ch=2 n=c#6 v=127
24321 Off ch=5 n=e5 v=127
24322 On ch=3 n=d5 v=127
24322 On ch=13 n=b5 v=127
24442 Off ch=13 n=b5 v=127
24442 Off ch=3 n=d5 v=127
24443 On ch=11 n=a3 v=127
24443 On ch=11 n=a6 v=127
24564 On ch=2 n=c#6 v=127
24594 Off ch=11 n=a6 v=127
24684 Off ch=2 n=c#6 v=127
24685 On ch=3 n=d6 v=127
24805 Off ch=3 n=d6 v=127
24806 On ch=5 n=e6 v=127
24926 Off ch=5 n=e6 v=127
24927 On ch=11 n=a5 v=127
25047 Off ch=11 n=a5 v=127
25047 Off ch=11 n=a3 v=127
25048 On ch=6 n=f5 v=127
25048 On ch=3 n=d6 v=127
25168 Off ch=3 n=d6 v=127
25168 Off ch=6 n=f5 v=127
25169 On ch=5 n=e5 v=127
25169 On ch=2 n=c#6 v=127
25289 Off ch=2 n=c#6 v=127
25289 Off ch=5 n=e5 v=127
25290 On ch=3 n=d5 v=127
25290 On ch=13 n=b5 v=127
25410 Off ch=13 n=b5 v=127
25410 Off ch=3 n=d5 v=127
25411 On ch=11 n=a3 v=127
25411 On ch=11 n=a6 v=127
25532 On ch=2 n=c#6 v=127
25562 Off ch=11 n=a6 v=127
25652 Off ch=2 n=c#6 v=127
25653 On ch=3 n=d6 v=127
25773 Off ch=3 n=d6 v=127
25774 On ch=5 n=e6 v=127
25894 Off ch=5 n=e6 v=127
25895 On ch=11 n=a5 v=127
26015 Off ch=11 n=a5 v=127
26015 Off ch=11 n=a3 v=127
26016 On ch=6 n=f5 v=127
26016 On ch=3 n=d6 v=127
26136 Off ch=3 n=d6 v=127
26136 Off ch=6 n=f5 v=127
26137 On ch=5 n=e5 v=127
26137 On ch=2 n=c#6 v=127
26257 Off ch=2 n=c#6 v=127
26257 Off ch=5 n=e5 v=127
26258 On ch=3 n=d5 v=127
26258 On ch=13 n=b5 v=127
26378 Off ch=13 n=b5 v=127
26378 Off ch=3 n=d5 v=127
26379 On ch=11 n=a5 v=127
26379 On ch=2 n=c#6 v=127
26499 Off ch=11 n=a5 v=127
26500 On ch=5 n=e5 v=127
26620 Off ch=5 n=e5 v=127
26621 On ch=2 n=c#5 v=127
26741 Off ch=2 n=c#5 v=127
26742 On ch=5 n=e5 v=127
26862 Off ch=5 n=e5 v=127
26863 On ch=11 n=a4 v=127
26983 Off ch=11 n=a4 v=127
26983 Off ch=2 n=c#6 v=127
26984 On ch=8 n=g5 v=127
26984 On ch=2 n=c#6 v=127
27104 Off ch=2 n=c#6 v=127
27104 Off ch=8 n=g5 v=127
27105 On ch=6 n=f5 v=127
27105 On ch=3 n=d6 v=127
27225 Off ch=3 n=d6 v=127
27225 Off ch=6 n=f5 v=127
27226 On ch=5 n=e5 v=127
27226 On ch=5 n=e6 v=127
27346 Off ch=5 n=e6 v=127
27346 Off ch=5 n=e5 v=127
27347 On ch=11 n=a4 v=127
27347 On ch=11 n=a5 v=127
27467 Off ch=11 n=a4 v=127
27468 On ch=6 n=f5 v=127
27588 Off ch=6 n=f5 v=127
27589 On ch=5 n=e5 v=127
27589 On ch=11 n=a6 v=127
27709 Off ch=5 n=e5 v=127
27710 On ch=3 n=d5 v=127
27826 Off ch=11 n=a5 v=127
27830 Off ch=3 n=d5 v=127
27831 On ch=11 n=a4 v=127
27951 Off ch=11 n=a4 v=127
27951 Off ch=11 n=a6 v=127
27952 On ch=5 n=e5 v=127
27952 On ch=8 n=g6 v=127
28072 Off ch=8 n=g6 v=127
28072 Off ch=5 n=e5 v=127
28073 On ch=3 n=d5 v=127
28073 On ch=6 n=f6 v=127
28193 Off ch=6 n=f6 v=127
28193 Off ch=3 n=d5 v=127
28194 On ch=2 n=c#5 v=127
28194 On ch=5 n=e6 v=127
28314 Off ch=5 n=e6 v=127
28314 Off ch=2 n=c#5 v=127
28315 On ch=3 n=d5 v=127
28315 On ch=6 n=f6 v=127
28436 On ch=11 n=a5 v=127
28556 Off ch=11 n=a5 v=127
28556 Off ch=6 n=f6 v=127
28556 Off ch=3 n=d5 v=127
28557 On ch=8 n=g4 v=127
28557 On ch=12 n=a#5 v=127
28557 On ch=5 n=e6 v=127
28677 Off ch=5 n=e6 v=127
28678 On ch=3 n=d6 v=127
28798 Off ch=3 n=d6 v=127
28798 Off ch=8 n=g4 v=127
28799 On ch=11 n=a4 v=127
28799 On ch=2 n=c#6 v=127
28919 Off ch=12 n=a#5 v=127
28920 On ch=11 n=a5 v=127
29040 Off ch=2 n=c#6 v=127
29040 Off ch=11 n=a4 v=127
29041 On ch=12 n=a#4 v=127
29041 On ch=3 n=d6 v=127
29161 Off ch=11 n=a5 v=127
29162 On ch=8 n=g5 v=127
29282 Off ch=8 n=g5 v=127
29282 Off ch=3 n=d6 v=127
29282 Off ch=12 n=a#4 v=127
29283 On ch=11 n=a3 v=127
29283 On ch=5 n=e6 v=127
29283 On ch=11 n=a5 v=127
29283 On ch=2 n=c#6 v=127
29403 Off ch=2 n=c#6 v=127
29403 Off ch=11 n=a5 v=127
29403 Off ch=5 n=e6 v=127
29404 On ch=5 n=e5 v=127
29524 Off ch=5 n=e5 v=127
29525 On ch=6 n=f5 v=127
29645 Off ch=6 n=f5 v=127
29646 On ch=8 n=g5 v=127
29766 Off ch=8 n=g5 v=127
29767 On ch=5 n=e5 v=127
29767 On ch=2 n=c#5 v=127
29887 Off ch=11 n=a3 v=127
29888 On ch=11 n=a4 v=127
30008 Off ch=11 n=a4 v=127
30008 Off ch=2 n=c#5 v=127
30008 Off ch=5 n=e5 v=127
30009 On ch=8 n=g4 v=127
30009 On ch=3 n=d5 v=127
30009 On ch=6 n=f5 v=127
30129 Off ch=8 n=g4 v=127
30130 On ch=6 n=f4 v=127
30250 Off ch=6 n=f4 v=127
30250 Off ch=6 n=f5 v=127
30250 Off ch=3 n=d5 v=127
30251 On ch=5 n=e4 v=127
30251 On ch=8 n=g5 v=127
30372 On ch=5 n=e5 v=127
30492 Off ch=5 n=e5 v=127
30492 Off ch=8 n=g5 v=127
30492 Off ch=5 n=e4 v=127
30493 On ch=11 n=a4 v=127
30493 On ch=3 n=d5 v=127
30493 On ch=6 n=f5 v=127
30613 Off ch=6 n=f5 v=127
30613 Off ch=3 n=d5 v=127
30614 On ch=2 n=c#5 v=127
30614 On ch=5 n=e5 v=127
30734 Off ch=5 n=e5 v=127
30734 Off ch=2 n=c#5 v=127
30734 Off ch=11 n=a4 v=127
30735 On ch=3 n=d4 v=127
30735 On ch=6 n=f5 v=127
30735 On ch=3 n=d5 v=127
30855 Off ch=3 n=d5 v=127
30855 Off ch=3 n=d4 v=127
30856 On ch=3 n=d5 v=127
30976 Off ch=3 n=d5 v=127
30976 Off ch=6 n=f5 v=127
30977 On ch=2 n=c#5 v=127
30977 On ch=8 n=g5 v=127
31097 Off ch=2 n=c#5 v=127
31098 On ch=13 n=b4 v=127
31218 Off ch=13 n=b4 v=127
31218 Off ch=8 n=g5 v=127
31219 On ch=11 n=a3 v=127
31219 On ch=11 n=a5 v=127
31340 On ch=2 n=c#5 v=127
31370 Off ch=11 n=a5 v=127
31460 Off ch=2 n=c#5 v=127
31461 On ch=3 n=d5 v=127
31581 Off ch=3 n=d5 v=127
31582 On ch=5 n=e5 v=127
31702 Off ch=5 n=e5 v=127
31703 On ch=11 n=a4 v=127
31823 Off ch=11 n=a4 v=127
31823 Off ch=11 n=a3 v=127
31824 On ch=6 n=f4 v=127
31824 On ch=3 n=d5 v=127
31944 Off ch=3 n=d5 v=127
31944 Off ch=6 n=f4 v=127
31945 On ch=5 n=e4 v=127
31945 On ch=2 n=c#5 v=127
32065 Off ch=2 n=c#5 v=127
32065 Off ch=5 n=e4 v=127
32066 On ch=3 n=d4 v=127
32066 On ch=13 n=b4 v=127
32186 Off ch=13 n=b4 v=127
32186 Off ch=3 n=d4 v=127
32187 On ch=11 n=a3 v=127
32187 On ch=11 n=a5 v=127
32308 On ch=2 n=c#5 v=127
32338 Off ch=11 n=a5 v=127
32428 Off ch=2 n=c#5 v=127
32429 On ch=3 n=d5 v=127
32549 Off ch=3 n=d5 v=127
32550 On ch=5 n=e5 v=127
32670 Off ch=5 n=e5 v=127
32671 On ch=11 n=a4 v=127
32791 Off ch=11 n=a4 v=127
32791 Off ch=11 n=a3 v=127
32792 On ch=6 n=f4 v=127
32792 On ch=3 n=d5 v=127
32912 Off ch=3 n=d5 v=127
32912 Off ch=6 n=f4 v=127
32913 On ch=5 n=e4 v=127
32913 On ch=2 n=c#5 v=127
33033 Off ch=2 n=c#5 v=127
33033 Off ch=5 n=e4 v=127
33034 On ch=3 n=d4 v=127
33034 On ch=13 n=b4 v=127
33154 Off ch=13 n=b4 v=127
33154 Off ch=3 n=d4 v=127
33155 On ch=11 n=a4 v=127
33155 On ch=2 n=c#5 v=127
33275 Off ch=11 n=a4 v=127
33276 On ch=5 n=e4 v=127
33396 Off ch=5 n=e4 v=127
33397 On ch=2 n=c#4 v=127
33517 Off ch=2 n=c#4 v=127
33518 On ch=5 n=e4 v=127
33638 Off ch=5 n=e4 v=127
33639 On ch=11 n=a3 v=127
33759 Off ch=11 n=a3 v=127
33759 Off ch=2 n=c#5 v=127
33760 On ch=8 n=g4 v=127
33760 On ch=2 n=c#5 v=127
33880 Off ch=2 n=c#5 v=127
33880 Off ch=8 n=g4 v=127
33881 On ch=6 n=f4 v=127
33881 On ch=3 n=d5 v=127
34001 Off ch=3 n=d5 v=127
34001 Off ch=6 n=f4 v=127
34002 On ch=5 n=e4 v=127
34002 On ch=5 n=e5 v=127
34122 Off ch=5 n=e5 v=127
34122 Off ch=5 n=e4 v=127
34123 On ch=11 n=a3 v=127
34123 On ch=11 n=a4 v=127
34243 Off ch=11 n=a3 v=127
34244 On ch=6 n=f4 v=127
34364 Off ch=6 n=f4 v=127
34365 On ch=5 n=e4 v=127
34365 On ch=11 n=a5 v=127
34485 Off ch=5 n=e4 v=127
34486 On ch=3 n=d4 v=127
34602 Off ch=11 n=a4 v=127
34606 Off ch=3 n=d4 v=127
34607 On ch=11 n=a3 v=127
34727 Off ch=11 n=a3 v=127
34727 Off ch=11 n=a5 v=127
34728 On ch=5 n=e4 v=127
34728 On ch=8 n=g5 v=127
34848 Off ch=8 n=g5 v=127
34848 Off ch=5 n=e4 v=127
34849 On ch=3 n=d4 v=127
34849 On ch=6 n=f5 v=127
34969 Off ch=6 n=f5 v=127
34969 Off ch=3 n=d4 v=127
34970 On ch=2 n=c#4 v=127
34970 On ch=5 n=e5 v=127
35090 Off ch=5 n=e5 v=127
35090 Off ch=2 n=c#4 v=127
35091 On ch=3 n=d4 v=127
35091 On ch=6 n=f5 v=127
35211 Off ch=6 n=f5 v=127
35212 On ch=11 n=a5 v=127
35332 Off ch=11 n=a5 v=127
35332 Off ch=3 n=d4 v=127
35333 On ch=8 n=g4 v=127
35333 On ch=3 n=d6 v=127
35454 On ch=6 n=f5 v=127
35574 Off ch=6 n=f5 v=127
35574 Off ch=8 n=g4 v=127
35575 On ch=11 n=a4 v=127
35575 On ch=5 n=e5 v=127
35695 Off ch=3 n=d6 v=127
35696 On ch=5 n=e6 v=127
35816 Off ch=5 n=e6 v=127
35816 Off ch=11 n=a4 v=127
35817 On ch=11 n=a3 v=127
35817 On ch=2 n=c#6 v=127
35937 Off ch=5 n=e5 v=127
35938 On ch=8 n=g5 v=127
36058 Off ch=2 n=c#6 v=127
36058 Off ch=11 n=a3 v=127
36059 On ch=3 n=d3 v=127
36059 On ch=3 n=d6 v=127
36179 Off ch=8 n=g5 v=127
36180 On ch=12 n=a#5 v=127
36300 Off ch=12 n=a#5 v=127
36301 On ch=11 n=a5 v=127
36421 Off ch=11 n=a5 v=127
36422 On ch=8 n=g5 v=127
36542 Off ch=8 n=g5 v=127
36542 Off ch=3 n=d6 v=127
36543 On ch=7 n=f#5 v=127
36543 On ch=11 n=a5 v=127
36663 Off ch=7 n=f#5 v=127
36664 On ch=3 n=d5 v=127
36784 Off ch=3 n=d5 v=127
36784 Off ch=11 n=a5 v=127
36785 On ch=8 n=g5 v=127
36785 On ch=5 n=e5 v=127
36905 Off ch=5 n=e5 v=127
36906 On ch=2 n=c#5 v=127
37026 Off ch=2 n=c#5 v=127
37026 Off ch=8 n=g5 v=127
37026 Off ch=3 n=d3 v=127
37027 On ch=3 n=d3 v=127
37027 On ch=3 n=d5 v=127
37027 On ch=7 n=f#5 v=127
37147 Off ch=3 n=d5 v=127
37148 On ch=1 n=c5 v=127
37268 Off ch=1 n=c5 v=127
37268 Off ch=7 n=f#5 v=127
37269 On ch=12 n=a#4 v=127
37269 On ch=3 n=d5 v=127
37389 Off ch=12 n=a#4 v=127
37390 On ch=11 n=a4 v=127
37510 Off ch=11 n=a4 v=127
37511 On ch=8 n=g4 v=127
37631 Off ch=8 n=g4 v=127
37632 On ch=12 n=a#4 v=127
37752 Off ch=12 n=a#4 v=127
37752 Off ch=3 n=d5 v=127
37753 On ch=11 n=a4 v=127
37753 On ch=2 n=c#5 v=127
37873 Off ch=11 n=a4 v=127
37874 On ch=8 n=g4 v=127
37994 Off ch=8 n=g4 v=127
37994 Off ch=2 n=c#5 v=127
37994 Off ch=3 n=d3 v=127
37995 On ch=3 n=d3 v=127
37995 On ch=7 n=f#4 v=127
37995 On ch=3 n=d5 v=127
38115 Off ch=7 n=f#4 v=127
38116 On ch=11 n=a4 v=127
38236 Off ch=11 n=a4 v=127
38237 On ch=8 n=g4 v=127
38357 Off ch=3 n=d5 v=127
38358 On ch=5 n=e5 v=127
38478 Off ch=5 n=e5 v=127
38478 Off ch=8 n=g4 v=127
38479 On ch=7 n=f#5 v=127
38479 On ch=11 n=a4 v=127
38599 Off ch=11 n=a4 v=127
38600 On ch=3 n=d5 v=127
38720 Off ch=3 n=d5 v=127
38721 On ch=12 n=a#4 v=127
38841 Off ch=7 n=f#5 v=127
38842 On ch=8 n=g5 v=127
38962 Off ch=12 n=a#4 v=127
38962 Off ch=3 n=d3 v=127
38963 On ch=3 n=d3 v=127
38963 On ch=2 n=c#5 v=127
39083 Off ch=8 n=g5 v=127
39084 On ch=11 n=a5 v=127
39204 Off ch=2 n=c#5 v=127
39205 On ch=3 n=d5 v=127
39325 Off ch=11 n=a5 v=127
39326 On ch=7 n=f#5 v=127
39446 Off ch=7 n=f#5 v=127
39447 On ch=12 n=a#5 v=127
39567 Off ch=3 n=d5 v=127
39568 On ch=8 n=g5 v=127
39688 Off ch=8 n=g5 v=127
39689 On ch=5 n=e5 v=127
39809 Off ch=12 n=a#5 v=127
39810 On ch=2 n=c#6 v=127
39810 On ch=11 n=a5 v=127
39810 On ch=8 n=g5 v=127
39930 Off ch=8 n=g5 v=127
39930 Off ch=2 n=c#6 v=127
39930 Off ch=5 n=e5 v=127
39931 On ch=3 n=d6 v=127
39931 On ch=7 n=f#5 v=127
39931 On ch=3 n=d5 v=127
40656 Off ch=3 n=d5 v=127
40657 Off ch=7 n=f#5 v=127
40657 Off ch=3 n=d6 v=127
40658 Off ch=11 n=a5 v=127
40658 Off ch=3 n=d3 v=127
40666 On ch=3 n=d5 v=127
40747 Off ch=3 n=d5 v=127
40780 On ch=3 n=d5 v=127
40901 On ch=7 n=f#5 v=127
40931 Off ch=3 n=d5 v=127
41021 Off ch=7 n=f#5 v=127
41022 On ch=5 n=e5 v=127
41142 Off ch=5 n=e5 v=127
41143 On ch=8 n=g5 v=127
41263 Off ch=8 n=g5 v=127
41264 On ch=7 n=f#5 v=127
41384 Off ch=7 n=f#5 v=127
41385 On ch=11 n=a5 v=127
41505 Off ch=11 n=a5 v=127
41506 On ch=8 n=g5 v=127
41626 Off ch=8 n=g5 v=127
41627 On ch=12 n=a#5 v=127
41627 On ch=3 n=d4 v=127
41738 Off ch=3 n=d4 v=127
41747 Off ch=12 n=a#5 v=127
41748 On ch=11 n=a5 v=127
41748 On ch=3 n=d4 v=127
41868 Off ch=3 n=d4 v=127
41869 On ch=7 n=f#4 v=127
41989 Off ch=7 n=f#4 v=127
41990 On ch=5 n=e4 v=127
42110 Off ch=5 n=e4 v=127
42111 On ch=8 n=g4 v=127
42231 Off ch=8 n=g4 v=127
42232 On ch=7 n=f#4 v=127
42352 Off ch=7 n=f#4 v=127
42353 On ch=11 n=a4 v=127
42473 Off ch=11 n=a4 v=127
42473 Off ch=11 n=a5 v=127
42474 On ch=12 n=a#5 v=127
42474 On ch=8 n=g4 v=127
42594 Off ch=8 n=g4 v=127
42595 On ch=12 n=a#4 v=127
42715 Off ch=12 n=a#4 v=127
42715 Off ch=12 n=a#5 v=127
42716 On ch=1 n=c6 v=127
42716 On ch=11 n=a4 v=127
42836 Off ch=11 n=a4 v=127
42837 On ch=1 n=c5 v=127
42957 Off ch=1 n=c5 v=127
42957 Off ch=1 n=c6 v=127
42958 On ch=3 n=d6 v=127
42958 On ch=12 n=a#4 v=127
43078 Off ch=12 n=a#4 v=127
43079 On ch=3 n=d5 v=127
43199 Off ch=3 n=d5 v=127
43199 Off ch=3 n=d6 v=127
43200 On ch=4 n=d#6 v=127
43200 On ch=1 n=c5 v=127
43320 Off ch=1 n=c5 v=127
43321 On ch=4 n=d#5 v=127
43441 Off ch=4 n=d#5 v=127
43441 Off ch=4 n=d#6 v=127
43442 On ch=7 n=f#5 v=127
43442 On ch=3 n=d5 v=127
43562 Off ch=3 n=d5 v=127
43563 On ch=1 n=c5 v=127
43683 Off ch=1 n=c5 v=127
43683 Off ch=7 n=f#5 v=127
43684 On ch=8 n=g5 v=127
43684 On ch=12 n=a#4 v=127
43804 Off ch=12 n=a#4 v=127
43805 On ch=1 n=c5 v=127
43925 Off ch=1 n=c5 v=127
43925 Off ch=8 n=g5 v=127
43926 On ch=11 n=a5 v=127
43926 On ch=11 n=a4 v=127
44046 Off ch=11 n=a4 v=127
44047 On ch=12 n=a#4 v=127
44167 Off ch=12 n=a#4 v=127
44167 Off ch=11 n=a5 v=127
44168 On ch=12 n=a#5 v=127
44168 On ch=8 n=g4 v=127
44288 Off ch=8 n=g4 v=127
44289 On ch=11 n=a4 v=127
44409 Off ch=11 n=a4 v=127
44409 Off ch=12 n=a#5 v=127
44410 On ch=13 n=b5 v=127
44410 On ch=3 n=d5 v=127
44410 On ch=6 n=f4 v=127
44530 Off ch=6 n=f4 v=127
44531 On ch=8 n=g4 v=127
44651 Off ch=8 n=g4 v=127
44651 Off ch=3 n=d5 v=127
44651 Off ch=13 n=b5 v=127
44652 On ch=1 n=c6 v=127
44652 On ch=4 n=d#5 v=127
44652 On ch=4 n=d#4 v=127
44772 Off ch=4 n=d#4 v=127
44773 On ch=6 n=f4 v=127
44893 Off ch=6 n=f4 v=127
44893 Off ch=4 n=d#5 v=127
44893 Off ch=1 n=c6 v=127
44894 On ch=3 n=d6 v=127
44894 On ch=6 n=f5 v=127
44894 On ch=3 n=d4 v=127
45014 Off ch=3 n=d4 v=127
45015 On ch=4 n=d#4 v=127
45135 Off ch=4 n=d#4 v=127
45135 Off ch=6 n=f5 v=127
45135 Off ch=3 n=d6 v=127
45136 On ch=4 n=d#6 v=127
45136 On ch=8 n=g5 v=127
45136 On ch=1 n=c4 v=127
45256 Off ch=1 n=c4 v=127
45257 On ch=3 n=d4 v=127
45377 Off ch=3 n=d4 v=127
45377 Off ch=4 n=d#6 v=127
45378 On ch=8 n=g6 v=127
45378 On ch=12 n=a#3 v=127
45498 Off ch=12 n=a#3 v=127
45499 On ch=1 n=c4 v=127
45619 Off ch=1 n=c4 v=127
45619 Off ch=8 n=g6 v=127
45619 Off ch=8 n=g5 v=127
45620 On ch=6 n=f6 v=127
45620 On ch=9 n=g#3 v=127
45740 Off ch=9 n=g#3 v=127
45741 On ch=12 n=a#3 v=127
45861 Off ch=12 n=a#3 v=127
45861 Off ch=6 n=f6 v=127
45862 On ch=4 n=d#6 v=127
45862 On ch=8 n=g3 v=127
45982 Off ch=8 n=g3 v=127
45983 On ch=9 n=g#3 v=127
46103 Off ch=9 n=g#3 v=127
46103 Off ch=4 n=d#6 v=127
46104 On ch=3 n=d6 v=127
46104 On ch=6 n=f3 v=127
46224 Off ch=6 n=f3 v=127
46225 On ch=9 n=g#3 v=127
46345 Off ch=9 n=g#3 v=127
46345 Off ch=3 n=d6 v=127
46346 On ch=1 n=c6 v=127
46346 On ch=8 n=g3 v=127
46466 Off ch=8 n=g3 v=127
46467 On ch=6 n=f3 v=127
46587 Off ch=6 n=f3 v=127
46587 Off ch=1 n=c6 v=127
46588 On ch=8 n=g6 v=127
46588 On ch=8 n=g3 v=127
46709 On ch=13 n=b5 v=127
46739 Off ch=8 n=g6 v=127
46829 Off ch=13 n=b5 v=127
46830 On ch=1 n=c6 v=127
46950 Off ch=1 n=c6 v=127
46951 On ch=3 n=d6 v=127
47071 Off ch=3 n=d6 v=127
47072 On ch=8 n=g5 v=127
47192 Off ch=8 n=g5 v=127
47192 Off ch=8 n=g3 v=127
47193 On ch=1 n=c6 v=127
47193 On ch=4 n=d#5 v=127
47313 Off ch=4 n=d#5 v=127
47313 Off ch=1 n=c6 v=127
47314 On ch=13 n=b5 v=127
47314 On ch=3 n=d5 v=127
47434 Off ch=3 n=d5 v=127
47434 Off ch=13 n=b5 v=127
47435 On ch=11 n=a5 v=127
47435 On ch=1 n=c5 v=127
47555 Off ch=1 n=c5 v=127
47555 Off ch=11 n=a5 v=127
47556 On ch=8 n=g6 v=127
47556 On ch=8 n=g3 v=127
47677 On ch=13 n=b5 v=127
47707 Off ch=8 n=g6 v=127
47797 Off ch=13 n=b5 v=127
47798 On ch=1 n=c6 v=127
47918 Off ch=1 n=c6 v=127
47919 On ch=3 n=d6 v=127
48039 Off ch=3 n=d6 v=127
48040 On ch=8 n=g5 v=127
48160 Off ch=8 n=g5 v=127
48160 Off ch=8 n=g3 v=127
48161 On ch=1 n=c6 v=127
48161 On ch=4 n=d#5 v=127
48281 Off ch=4 n=d#5 v=127
48281 Off ch=1 n=c6 v=127
48282 On ch=13 n=b5 v=127
48282 On ch=3 n=d5 v=127
48402 Off ch=3 n=d5 v=127
48402 Off ch=13 n=b5 v=127
48403 On ch=11 n=a5 v=127
48403 On ch=1 n=c5 v=127
48523 Off ch=1 n=c5 v=127
48523 Off ch=11 n=a5 v=127
48524 On ch=8 n=g6 v=127
48524 On ch=8 n=g3 v=127
48645 On ch=13 n=b5 v=127
48675 Off ch=8 n=g6 v=127
48765 Off ch=13 n=b5 v=127
48766 On ch=1 n=c6 v=127
48886 Off ch=1 n=c6 v=127
48887 On ch=3 n=d6 v=127
49007 Off ch=3 n=d6 v=127
49008 On ch=8 n=g5 v=127
49128 Off ch=8 n=g5 v=127
49128 Off ch=8 n=g3 v=127
49129 On ch=1 n=c6 v=127
49129 On ch=4 n=d#5 v=127
49249 Off ch=4 n=d#5 v=127
49249 Off ch=1 n=c6 v=127
49250 On ch=13 n=b5 v=127
49250 On ch=3 n=d5 v=127
49370 Off ch=3 n=d5 v=127
49370 Off ch=13 n=b5 v=127
49371 On ch=11 n=a5 v=127
49371 On ch=1 n=c5 v=127
49491 Off ch=1 n=c5 v=127
49491 Off ch=11 n=a5 v=127
49492 On ch=13 n=b5 v=127
49492 On ch=8 n=g5 v=127
49612 Off ch=8 n=g5 v=127
49613 On ch=3 n=d5 v=127
49733 Off ch=3 n=d5 v=127
49734 On ch=13 n=b4 v=127
49854 Off ch=13 n=b4 v=127
49855 On ch=3 n=d5 v=127
49975 Off ch=3 n=d5 v=127
49976 On ch=8 n=g4 v=127
50096 Off ch=8 n=g4 v=127
50096 Off ch=13 n=b5 v=127
50097 On ch=13 n=b5 v=127
50097 On ch=6 n=f5 v=127
50217 Off ch=6 n=f5 v=127
50217 Off ch=13 n=b5 v=127
50218 On ch=1 n=c6 v=127
50218 On ch=4 n=d#5 v=127
50338 Off ch=4 n=d#5 v=127
50338 Off ch=1 n=c6 v=127
50339 On ch=3 n=d6 v=127
50339 On ch=3 n=d5 v=127
50459 Off ch=3 n=d5 v=127
50459 Off ch=3 n=d6 v=127
50460 On ch=8 n=g5 v=127
50460 On ch=8 n=g4 v=127
50580 Off ch=8 n=g4 v=127
50581 On ch=4 n=d#5 v=127
50701 Off ch=4 n=d#5 v=127
50702 On ch=8 n=g6 v=127
50702 On ch=3 n=d5 v=127
50822 Off ch=3 n=d5 v=127
50823 On ch=1 n=c5 v=127
50939 Off ch=8 n=g5 v=127
50943 Off ch=1 n=c5 v=127
50944 On ch=8 n=g4 v=127
51064 Off ch=8 n=g4 v=127
51064 Off ch=8 n=g6 v=127
51065 On ch=6 n=f6 v=127
51065 On ch=3 n=d5 v=127
51185 Off ch=3 n=d5 v=127
51185 Off ch=6 n=f6 v=127
51186 On ch=4 n=d#6 v=127
51186 On ch=1 n=c5 v=127
51306 Off ch=1 n=c5 v=127
51306 Off ch=4 n=d#6 v=127
51307 On ch=3 n=d6 v=127
51307 On ch=13 n=b4 v=127
51427 Off ch=13 n=b4 v=127
51427 Off ch=3 n=d6 v=127
51428 On ch=4 n=d#6 v=127
51428 On ch=1 n=c5 v=127
51549 On ch=8 n=g5 v=127
51669 Off ch=8 n=g5 v=127
51669 Off ch=1 n=c5 v=127
51669 Off ch=4 n=d#6 v=127
51670 On ch=3 n=d6 v=127
51670 On ch=9 n=g#5 v=127
51670 On ch=6 n=f4 v=127
51790 Off ch=3 n=d6 v=127
51791 On ch=1 n=c6 v=127
51911 Off ch=1 n=c6 v=127
51911 Off ch=6 n=f4 v=127
51912 On ch=13 n=b5 v=127
51912 On ch=8 n=g4 v=127
52032 Off ch=9 n=g#5 v=127
52033 On ch=8 n=g5 v=127
52153 Off ch=8 n=g4 v=127
52153 Off ch=13 n=b5 v=127
52154 On ch=1 n=c6 v=127
52154 On ch=9 n=g#4 v=127
52274 Off ch=8 n=g5 v=127
52275 On ch=6 n=f5 v=127
52395 Off ch=6 n=f5 v=127
52395 Off ch=9 n=g#4 v=127
52395 Off ch=1 n=c6 v=127
52396 On ch=3 n=d6 v=127
52396 On ch=13 n=b5 v=127
52396 On ch=8 n=g5 v=127
52396 On ch=8 n=g3 v=127
52516 Off ch=8 n=g5 v=127
52516 Off ch=13 n=b5 v=127
52516 Off ch=3 n=d6 v=127
52517 On ch=3 n=d5 v=127
52637 Off ch=3 n=d5 v=127
52637 Off ch=8 n=g3 v=127
52638 On ch=4 n=d#5 v=127
52638 On ch=8 n=g4 v=127
52758 Off ch=4 n=d#5 v=127
52759 On ch=6 n=f5 v=127
52879 Off ch=6 n=f5 v=127
52880 On ch=13 n=b4 v=127
52880 On ch=3 n=d5 v=127
53000 Off ch=8 n=g4 v=127
53001 On ch=8 n=g4 v=127
53121 Off ch=8 n=g4 v=127
53121 Off ch=3 n=d5 v=127
53121 Off ch=13 n=b4 v=127
53122 On ch=4 n=d#5 v=127
53122 On ch=1 n=c5 v=127
53122 On ch=6 n=f4 v=127
53242 Off ch=6 n=f4 v=127
53243 On ch=4 n=d#4 v=127
53363 Off ch=4 n=d#4 v=127
53363 Off ch=4 n=d#5 v=127
53364 On ch=6 n=f5 v=127
53364 On ch=3 n=d4 v=127
53484 Off ch=1 n=c5 v=127
53485 On ch=3 n=d5 v=127
53605 Off ch=3 n=d5 v=127
53605 Off ch=3 n=d4 v=127
53605 Off ch=6 n=f5 v=127
53606 On ch=8 n=g5 v=127
53606 On ch=4 n=d#5 v=127
53606 On ch=8 n=g4 v=127
53726 Off ch=4 n=d#5 v=127
53727 On ch=3 n=d5 v=127
53847 Off ch=3 n=d5 v=127
53847 Off ch=8 n=g4 v=127
53847 Off ch=8 n=g5 v=127
53848 On ch=8 n=g5 v=127
53848 On ch=4 n=d#5 v=127
53848 On ch=1 n=c4 v=127
53968 Off ch=1 n=c4 v=127
53969 On ch=1 n=c5 v=127
54089 Off ch=1 n=c5 v=127
54089 Off ch=4 n=d#5 v=127
54089 Off ch=8 n=g5 v=127
54090 On ch=11 n=a5 v=127
54090 On ch=7 n=f#5 v=127
54090 On ch=12 n=a#4 v=127
54210 Off ch=12 n=a#4 v=127
54211 On ch=11 n=a4 v=127
54331 Off ch=11 n=a4 v=127
54331 Off ch=7 n=f#5 v=127
54331 Off ch=11 n=a5 v=127
54332 On ch=8 n=g5 v=127
54332 On ch=12 n=a#5 v=127
54332 On ch=8 n=g4 v=127
54452 Off ch=8 n=g4 v=127
54452 Off ch=8 n=g5 v=127
54453 On ch=8 n=g5 v=127
54573 Off ch=8 n=g5 v=127
54573 Off ch=12 n=a#5 v=127
54574 On ch=2 n=c#6 v=127
54574 On ch=7 n=f#5 v=127
54694 Off ch=7 n=f#5 v=127
54695 On ch=5 n=e5 v=127
54815 Off ch=5 n=e5 v=127
54815 Off ch=2 n=c#6 v=127
54816 On ch=3 n=d6 v=127
54816 On ch=7 n=f#5 v=127
54936 Off ch=3 n=d6 v=127
54937 On ch=1 n=c7 v=127
55057 Off ch=1 n=c7 v=127
55057 Off ch=7 n=f#5 v=127
55058 On ch=12 n=a#6 v=127
55058 On ch=3 n=d5 v=127
55178 Off ch=12 n=a#6 v=127
55179 On ch=11 n=a6 v=127
55299 Off ch=11 n=a6 v=127
55299 Off ch=3 n=d5 v=127
55300 On ch=12 n=a#6 v=127
55300 On ch=8 n=g5 v=127
55421 On ch=3 n=d6 v=127
55541 Off ch=3 n=d6 v=127
55541 Off ch=8 n=g5 v=127
55541 Off ch=12 n=a#6 v=127
55542 On ch=11 n=a6 v=127
55542 On ch=4 n=d#6 v=127
55542 On ch=1 n=c5 v=127
55662 Off ch=11 n=a6 v=127
55663 On ch=8 n=g6 v=127
55783 Off ch=8 n=g6 v=127
55783 Off ch=1 n=c5 v=127
55784 On ch=7 n=f#6 v=127
55784 On ch=3 n=d5 v=127
55904 Off ch=4 n=d#6 v=127
55905 On ch=3 n=d6 v=127
56025 Off ch=3 n=d5 v=127
56025 Off ch=7 n=f#6 v=127
56026 On ch=8 n=g6 v=127
56026 On ch=4 n=d#5 v=127
56146 Off ch=3 n=d6 v=127
56147 On ch=1 n=c6 v=127
56267 Off ch=1 n=c6 v=127
56267 Off ch=4 n=d#5 v=127
56267 Off ch=8 n=g6 v=127
56268 On ch=11 n=a6 v=127
56268 On ch=3 n=d3 v=127
56388 Off ch=11 n=a6 v=127
56389 On ch=7 n=f#6 v=127
56509 Off ch=7 n=f#6 v=127
56510 On ch=8 n=g6 v=127
56630 Off ch=8 n=g6 v=127
56631 On ch=11 n=a6 v=127
56751 Off ch=11 n=a6 v=127
56752 On ch=3 n=d6 v=127
56872 Off ch=3 n=d6 v=127
56872 Off ch=3 n=d3 v=127
56873 On ch=8 n=g6 v=127
56873 On ch=12 n=a#5 v=127
56993 Off ch=12 n=a#5 v=127
56993 Off ch=8 n=g6 v=127
56994 On ch=7 n=f#6 v=127
56994 On ch=11 n=a5 v=127
57114 Off ch=11 n=a5 v=127
57114 Off ch=7 n=f#6 v=127
57115 On ch=5 n=e6 v=127
57115 On ch=8 n=g5 v=127
57235 Off ch=8 n=g5 v=127
57235 Off ch=5 n=e6 v=127
57236 On ch=7 n=f#6 v=127
57236 On ch=3 n=d3 v=127
57355 Off ch=7 n=f#6 v=127
57358 On ch=7 n=f#6 v=127
57478 Off ch=7 n=f#6 v=127
57479 On ch=8 n=g6 v=127
57599 Off ch=8 n=g6 v=127
57600 On ch=11 n=a6 v=127
57720 Off ch=11 n=a6 v=127
57721 On ch=3 n=d6 v=127
57841 Off ch=3 n=d6 v=127
57841 Off ch=3 n=d3 v=127
57842 On ch=8 n=g6 v=127
57842 On ch=12 n=a#5 v=127
57962 Off ch=12 n=a#5 v=127
57962 Off ch=8 n=g6 v=127
57963 On ch=7 n=f#6 v=127
57963 On ch=11 n=a5 v=127
58083 Off ch=11 n=a5 v=127
58083 Off ch=7 n=f#6 v=127
58084 On ch=5 n=e6 v=127
58084 On ch=8 n=g5 v=127
58204 Off ch=8 n=g5 v=127
58204 Off ch=5 n=e6 v=127
58205 On ch=7 n=f#6 v=127
58205 On ch=3 n=d4 v=127
58324 Off ch=7 n=f#6 v=127
58327 On ch=7 n=f#6 v=127
58447 Off ch=7 n=f#6 v=127
58448 On ch=8 n=g6 v=127
58568 Off ch=8 n=g6 v=127
58569 On ch=11 n=a6 v=127
58689 Off ch=11 n=a6 v=127
58690 On ch=3 n=d6 v=127
58810 Off ch=3 n=d6 v=127
58810 Off ch=3 n=d4 v=127
58811 On ch=8 n=g6 v=127
58811 On ch=12 n=a#5 v=127
58931 Off ch=12 n=a#5 v=127
58931 Off ch=8 n=g6 v=127
58932 On ch=7 n=f#6 v=127
58932 On ch=11 n=a5 v=127
59052 Off ch=11 n=a5 v=127
59052 Off ch=7 n=f#6 v=127
59053 On ch=5 n=e6 v=127
59053 On ch=8 n=g5 v=127
59173 Off ch=8 n=g5 v=127
59173 Off ch=5 n=e6 v=127
59174 On ch=7 n=f#6 v=127
59174 On ch=3 n=d6 v=127
59294 Off ch=3 n=d6 v=127
59295 On ch=11 n=a5 v=127
59415 Off ch=11 n=a5 v=127
59416 On ch=7 n=f#5 v=127
59536 Off ch=7 n=f#5 v=127
59537 On ch=11 n=a5 v=127
59657 Off ch=11 n=a5 v=127
59658 On ch=3 n=d5 v=127
59778 Off ch=3 n=d5 v=127
59778 Off ch=7 n=f#6 v=127
59779 On ch=7 n=f#6 v=127
59779 On ch=1 n=c6 v=127
59899 Off ch=1 n=c6 v=127
59899 Off ch=7 n=f#6 v=127
59900 On ch=8 n=g6 v=127
59900 On ch=12 n=a#5 v=127
60020 Off ch=12 n=a#5 v=127
60020 Off ch=8 n=g6 v=127
60021 On ch=11 n=a6 v=127
60021 On ch=11 n=a5 v=127
60141 Off ch=11 n=a5 v=127
60141 Off ch=11 n=a6 v=127
60142 On ch=3 n=d6 v=127
60142 On ch=3 n=d5 v=127
60262 Off ch=3 n=d5 v=127
60263 On ch=12 n=a#5 v=127
60383 Off ch=12 n=a#5 v=127
60383 Off ch=3 n=d6 v=127
60384 On ch=8 n=g6 v=127
60384 On ch=11 n=a5 v=127
60504 Off ch=11 n=a5 v=127
60505 On ch=8 n=g5 v=127
60625 Off ch=8 n=g5 v=127
60626 On ch=3 n=d5 v=127
60746 Off ch=3 n=d5 v=127
60746 Off ch=8 n=g6 v=127
60747 On ch=1 n=c7 v=127
60747 On ch=11 n=a5 v=127
60867 Off ch=11 n=a5 v=127
60867 Off ch=1 n=c7 v=127
60868 On ch=12 n=a#6 v=127
60868 On ch=8 n=g5 v=127
60988 Off ch=8 n=g5 v=127
60988 Off ch=12 n=a#6 v=127
60989 On ch=11 n=a6 v=127
60989 On ch=7 n=f#5 v=127
61109 Off ch=7 n=f#5 v=127
61109 Off ch=11 n=a6 v=127
61110 On ch=12 n=a#6 v=127
61110 On ch=8 n=g5 v=127
61231 On ch=3 n=d6 v=127
61351 Off ch=3 n=d6 v=127
61351 Off ch=8 n=g5 v=127
61351 Off ch=12 n=a#6 v=127
61352 On ch=11 n=a6 v=127
61352 On ch=4 n=d#6 v=127
61352 On ch=1 n=c5 v=127
61472 Off ch=11 n=a6 v=127
61473 On ch=8 n=g6 v=127
61593 Off ch=8 n=g6 v=127
61593 Off ch=1 n=c5 v=127
61594 On ch=7 n=f#6 v=127
61594 On ch=3 n=d5 v=127
61714 Off ch=4 n=d#6 v=127
61715 On ch=3 n=d6 v=127
61835 Off ch=3 n=d5 v=127
61835 Off ch=7 n=f#6 v=127
61836 On ch=8 n=g6 v=127
61836 On ch=4 n=d#5 v=127
61956 Off ch=3 n=d6 v=127
61957 On ch=1 n=c6 v=127
62077 Off ch=1 n=c6 v=127
62077 Off ch=4 n=d#5 v=127
62077 Off ch=8 n=g6 v=127
62078 On ch=11 n=a6 v=127
62078 On ch=3 n=d4 v=127
62199 On ch=11 n=a5 v=127
62318 Off ch=11 n=a6 v=127
62319 Off ch=11 n=a5 v=127
62319 Off ch=3 n=d4 v=127
62320 On ch=12 n=a#5 v=127
62320 On ch=3 n=d5 v=127
62440 Off ch=12 n=a#5 v=127
62441 On ch=1 n=c6 v=127
62561 Off ch=1 n=c6 v=127
62562 On ch=11 n=a5 v=127
62562 On ch=7 n=f#5 v=127
62682 Off ch=3 n=d5 v=127
62683 On ch=3 n=d5 v=127
62803 Off ch=3 n=d5 v=127
62803 Off ch=7 n=f#5 v=127
62803 Off ch=11 n=a5 v=127
62804 On ch=8 n=g5 v=127
62804 On ch=12 n=a#5 v=127
62804 On ch=1 n=c5 v=127
62924 Off ch=1 n=c5 v=127
62925 On ch=12 n=a#4 v=127
63045 Off ch=12 n=a#4 v=127
63045 Off ch=12 n=a#5 v=127
63045 Off ch=8 n=g5 v=127
63046 On ch=1 n=c6 v=127
63046 On ch=11 n=a4 v=127
63167 On ch=8 n=g5 v=127
63287 Off ch=11 n=a4 v=127
63287 Off ch=1 n=c6 v=127
63288 On ch=12 n=a#5 v=127
63288 On ch=3 n=d4 v=127
63408 Off ch=12 n=a#5 v=127
63408 Off ch=8 n=g5 v=127
63409 On ch=11 n=a5 v=127
63409 On ch=7 n=f#5 v=127
63529 Off ch=7 n=f#5 v=127
63529 Off ch=11 n=a5 v=127
63529 Off ch=3 n=d4 v=127
63530 On ch=12 n=a#5 v=127
63530 On ch=8 n=g4 v=127
63650 Off ch=8 n=g4 v=127
63651 On ch=8 n=g5 v=127
63771 Off ch=8 n=g5 v=127
63771 Off ch=12 n=a#5 v=127
63772 On ch=1 n=c6 v=127
63772 On ch=6 n=f5 v=127
63892 Off ch=6 n=f5 v=127
63893 On ch=4 n=d#5 v=127
64013 Off ch=4 n=d#5 v=127
64013 Off ch=1 n=c6 v=127
64014 On ch=3 n=d6 v=127
64014 On ch=3 n=d4 v=127
64135 On ch=7 n=f#5 v=127
64165 Off ch=3 n=d6 v=127
64255 Off ch=7 n=f#5 v=127
64256 On ch=8 n=g5 v=127
64376 Off ch=8 n=g5 v=127
64377 On ch=11 n=a5 v=127
64497 Off ch=11 n=a5 v=127
64498 On ch=3 n=d5 v=127
64618 Off ch=3 n=d5 v=127
64618 Off ch=3 n=d4 v=127
64619 On ch=8 n=g5 v=127
64619 On ch=12 n=a#4 v=127
64739 Off ch=12 n=a#4 v=127
64739 Off ch=8 n=g5 v=127
64740 On ch=7 n=f#5 v=127
64740 On ch=11 n=a4 v=127
64860 Off ch=11 n=a4 v=127
64860 Off ch=7 n=f#5 v=127
64861 On ch=5 n=e5 v=127
64861 On ch=8 n=g4 v=127
64981 Off ch=8 n=g4 v=127
64981 Off ch=5 n=e5 v=127
64982 On ch=3 n=d6 v=127
64982 On ch=3 n=d3 v=127
65103 On ch=7 n=f#5 v=127
65133 Off ch=3 n=d6 v=127
65223 Off ch=7 n=f#5 v=127
65224 On ch=8 n=g5 v=127
65344 Off ch=8 n=g5 v=127
65345 On ch=11 n=a5 v=127
65465 Off ch=11 n=a5 v=127
65466 On ch=3 n=d5 v=127
65586 Off ch=3 n=d5 v=127
65586 Off ch=3 n=d3 v=127
65587 On ch=8 n=g5 v=127
65587 On ch=12 n=a#4 v=127
65707 Off ch=12 n=a#4 v=127
65707 Off ch=8 n=g5 v=127
65708 On ch=7 n=f#5 v=127
65708 On ch=11 n=a4 v=127
65828 Off ch=11 n=a4 v=127
65828 Off ch=7 n=f#5 v=127
65829 On ch=5 n=e5 v=127
65829 On ch=8 n=g4 v=127
65949 Off ch=8 n=g4 v=127
65949 Off ch=5 n=e5 v=127
65950 On ch=3 n=d6 v=127
65950 On ch=3 n=d3 v=127
66071 On ch=7 n=f#5 v=127
66101 Off ch=3 n=d6 v=127
66191 Off ch=7 n=f#5 v=127
66192 On ch=8 n=g5 v=127
66312 Off ch=8 n=g5 v=127
66313 On ch=11 n=a5 v=127
66433 Off ch=11 n=a5 v=127
66434 On ch=3 n=d5 v=127
66554 Off ch=3 n=d5 v=127
66554 Off ch=3 n=d3 v=127
66555 On ch=8 n=g5 v=127
66555 On ch=12 n=a#4 v=127
66675 Off ch=12 n=a#4 v=127
66675 Off ch=8 n=g5 v=127
66676 On ch=7 n=f#5 v=127
66676 On ch=11 n=a4 v=127
66796 Off ch=11 n=a4 v=127
66796 Off ch=7 n=f#5 v=127
66797 On ch=5 n=e5 v=127
66797 On ch=8 n=g4 v=127
66917 Off ch=8 n=g4 v=127
66917 Off ch=5 n=e5 v=127
66918 On ch=3 n=d6 v=127
66918 On ch=3 n=d3 v=127
67039 On ch=7 n=f#5 v=127
67069 Off ch=3 n=d6 v=127
67159 Off ch=7 n=f#5 v=127
67160 On ch=8 n=g5 v=127
67280 Off ch=8 n=g5 v=127
67281 On ch=11 n=a5 v=127
67401 Off ch=11 n=a5 v=127
67402 On ch=3 n=d5 v=127
67522 Off ch=3 n=d5 v=127
67522 Off ch=3 n=d3 v=127
67523 On ch=8 n=g5 v=127
67523 On ch=12 n=a#4 v=127
67643 Off ch=12 n=a#4 v=127
67643 Off ch=8 n=g5 v=127
67644 On ch=7 n=f#5 v=127
67644 On ch=11 n=a4 v=127
67764 Off ch=11 n=a4 v=127
67764 Off ch=7 n=f#5 v=127
67765 On ch=5 n=e5 v=127
67765 On ch=8 n=g4 v=127
67885 Off ch=8 n=g4 v=127
67885 Off ch=5 n=e5 v=127
67886 On ch=3 n=d6 v=127
67886 On ch=7 n=f#5 v=127
67886 On ch=3 n=d5 v=127
68006 Off ch=3 n=d5 v=127
68007 On ch=11 n=a4 v=127
68127 Off ch=11 n=a4 v=127
68128 On ch=7 n=f#4 v=127
68248 Off ch=7 n=f#4 v=127
68249 On ch=11 n=a4 v=127
68369 Off ch=11 n=a4 v=127
68370 On ch=3 n=d4 v=127
68490 Off ch=3 n=d4 v=127
68490 Off ch=7 n=f#5 v=127
68490 Off ch=3 n=d6 v=127
68491 On ch=7 n=f#5 v=127
68491 On ch=1 n=c5 v=127
68611 Off ch=1 n=c5 v=127
68611 Off ch=7 n=f#5 v=127
68612 On ch=8 n=g5 v=127
68612 On ch=12 n=a#4 v=127
68732 Off ch=12 n=a#4 v=127
68732 Off ch=8 n=g5 v=127
68733 On ch=11 n=a5 v=127
68733 On ch=11 n=a4 v=127
68853 Off ch=11 n=a4 v=127
68853 Off ch=11 n=a5 v=127
68854 On ch=3 n=d5 v=127
68854 On ch=3 n=d4 v=127
68974 Off ch=3 n=d4 v=127
68975 On ch=12 n=a#4 v=127
69095 Off ch=12 n=a#4 v=127
69096 On ch=3 n=d6 v=127
69096 On ch=11 n=a4 v=127
69216 Off ch=11 n=a4 v=127
69217 On ch=8 n=g4 v=127
69333 Off ch=3 n=d5 v=127
69337 Off ch=8 n=g4 v=127
69338 On ch=3 n=d4 v=127
69458 Off ch=3 n=d4 v=127
69458 Off ch=3 n=d6 v=127
69459 On ch=1 n=c6 v=127
69459 On ch=11 n=a4 v=127
69579 Off ch=11 n=a4 v=127
69579 Off ch=1 n=c6 v=127
69580 On ch=12 n=a#5 v=127
69580 On ch=8 n=g4 v=127
69700 Off ch=8 n=g4 v=127
69700 Off ch=12 n=a#5 v=127
69701 On ch=11 n=a5 v=127
69701 On ch=7 n=f#4 v=127
69821 Off ch=7 n=f#4 v=127
69821 Off ch=11 n=a5 v=127
69822 On ch=12 n=a#5 v=127
69822 On ch=8 n=g4 v=127
69942 Off ch=12 n=a#5 v=127
69943 On ch=3 n=d6 v=127
70063 Off ch=3 n=d6 v=127
70063 Off ch=8 n=g4 v=127
70064 On ch=8 n=g6 v=127
70064 On ch=4 n=d#4 v=127
70185 On ch=1 n=c6 v=127
70305 Off ch=1 n=c6 v=127
70305 Off ch=4 n=d#4 v=127
70306 On ch=12 n=a#5 v=127
70306 On ch=3 n=d4 v=127
70426 Off ch=8 n=g6 v=127
70427 On ch=11 n=a6 v=127
70547 Off ch=3 n=d4 v=127
70547 Off ch=12 n=a#5 v=127
70548 On ch=11 n=a5 v=127
70548 On ch=3 n=d3 v=127
70668 Off ch=11 n=a6 v=127
70669 On ch=7 n=f#6 v=127
70789 Off ch=7 n=f#6 v=127
70789 Off ch=3 n=d3 v=127
70789 Off ch=11 n=a5 v=127
70790 On ch=8 n=g6 v=127
70790 On ch=8 n=g3 v=127
70911 On ch=4 n=d#6 v=127
71031 Off ch=4 n=d#6 v=127
71031 Off ch=8 n=g6 v=127
71032 On ch=3 n=d6 v=127
71152 Off ch=3 n=d6 v=127
71153 On ch=1 n=c6 v=127
71273 Off ch=1 n=c6 v=127
71274 On ch=12 n=a#5 v=127
71394 Off ch=12 n=a#5 v=127
71395 On ch=8 n=g5 v=127
71515 Off ch=8 n=g5 v=127
71516 On ch=11 n=a5 v=127
71636 Off ch=11 n=a5 v=127
71637 On ch=7 n=f#5 v=127
71757 Off ch=7 n=f#5 v=127
71757 Off ch=8 n=g3 v=127
71758 On ch=12 n=a#5 v=127
71758 On ch=8 n=g5 v=127
71758 On ch=8 n=g3 v=127
71878 Off ch=8 n=g5 v=127
71879 On ch=6 n=f5 v=127
71999 Off ch=6 n=f5 v=127
71999 Off ch=12 n=a#5 v=127
72000 On ch=8 n=g5 v=127
72000 On ch=4 n=d#5 v=127
72120 Off ch=4 n=d#5 v=127
72121 On ch=3 n=d5 v=127
72241 Off ch=3 n=d5 v=127
72242 On ch=1 n=c5 v=127
72362 Off ch=1 n=c5 v=127
72363 On ch=4 n=d#5 v=127
72483 Off ch=4 n=d#5 v=127
72483 Off ch=8 n=g5 v=127
72484 On ch=7 n=f#5 v=127
72484 On ch=3 n=d5 v=127
72604 Off ch=3 n=d5 v=127
72605 On ch=1 n=c5 v=127
72725 Off ch=1 n=c5 v=127
72725 Off ch=7 n=f#5 v=127
72725 Off ch=8 n=g3 v=127
72726 On ch=8 n=g5 v=127
72726 On ch=8 n=g3 v=127
72847 On ch=12 n=a#4 v=127
72967 Off ch=12 n=a#4 v=127
72968 On ch=1 n=c5 v=127
73088 Off ch=8 n=g5 v=127
73089 On ch=11 n=a5 v=127
73209 Off ch=11 n=a5 v=127
73210 On ch=12 n=a#5 v=127
73330 Off ch=1 n=c5 v=127
73331 On ch=3 n=d5 v=127
73451 Off ch=12 n=a#5 v=127
73452 On ch=1 n=c6 v=127
73572 Off ch=3 n=d5 v=127
73573 On ch=7 n=f#5 v=127
73693 Off ch=1 n=c6 v=127
73693 Off ch=8 n=g3 v=127
73694 On ch=3 n=d6 v=127
73694 On ch=8 n=g3 v=127
73814 Off ch=7 n=f#5 v=127
73815 On ch=11 n=a5 v=127
73935 Off ch=11 n=a5 v=127
73936 On ch=12 n=a#5 v=127
74056 Off ch=12 n=a#5 v=127
74056 Off ch=3 n=d6 v=127
74057 On ch=3 n=d6 v=127
74057 On ch=8 n=g5 v=127
74177 Off ch=3 n=d6 v=127
74178 On ch=4 n=d#6 v=127
74299 On ch=1 n=c6 v=127
74419 Off ch=4 n=d#6 v=127
74419 Off ch=8 n=g5 v=127
74420 On ch=11 n=a5 v=127
74420 On ch=7 n=f#6 v=127
74541 On ch=3 n=d6 v=127
74661 Off ch=7 n=f#6 v=127
74661 Off ch=11 n=a5 v=127
74661 Off ch=1 n=c6 v=127
74661 Off ch=8 n=g3 v=127
74662 On ch=12 n=a#5 v=127
74662 On ch=8 n=g5 v=127
74662 On ch=8 n=g6 v=127
74662 On ch=8 n=g3 v=127
76117 Off ch=8 n=g3 v=127
76117 Off ch=8 n=g6 v=127
76117 Off ch=8 n=g5 v=127
76117 Off ch=12 n=a#5 v=127
76117 Off ch=3 n=d6 v=127
79872 Meta TrkEnd
TrkEnd
