MFile 0 1 384
MTrk
0 Meta Copyright "(C) John Sankey 1998"
0 PrCh ch=1 p=6
0 Pb ch=1 v=8192
0 PrCh ch=2 p=6
0 Pb ch=2 v=7602
0 PrCh ch=3 p=6
0 Pb ch=3 v=7920
0 PrCh ch=4 p=6
0 Pb ch=4 v=7839
0 PrCh ch=5 p=6
0 Pb ch=5 v=7632
0 PrCh ch=6 p=6
0 Pb ch=6 v=8112
0 PrCh ch=7 p=6
0 Pb ch=7 v=7567
0 PrCh ch=8 p=6
0 Pb ch=8 v=8062
0 PrCh ch=9 p=6
0 Pb ch=9 v=7680
0 PrCh ch=11 p=6
0 Pb ch=11 v=7728
0 PrCh ch=12 p=6
0 Pb ch=12 v=7984
0 PrCh ch=13 p=6
0 Pb ch=13 v=7639
0 Tempo 500000
58 On ch=6 n=f3 v=127
58 On ch=6 n=f5 v=127
349 Off ch=6 n=f5 v=127
349 Off ch=6 n=f3 v=127
365 On ch=11 n=a3 v=127
365 On ch=11 n=a5 v=127
656 Off ch=11 n=a5 v=127
656 Off ch=11 n=a3 v=127
672 On ch=1 n=c4 v=127
672 On ch=1 n=c6 v=127
963 Off ch=1 n=c6 v=127
963 Off ch=1 n=c4 v=127
979 On ch=6 n=f4 v=127
979 On ch=6 n=f6 v=127
1270 Off ch=6 n=f6 v=127
1270 Off ch=6 n=f4 v=127
1286 On ch=11 n=a4 v=127
1286 On ch=1 n=c7 v=127
1577 Off ch=1 n=c7 v=127
1577 Off ch=11 n=a4 v=127
1593 On ch=1 n=c5 v=127
1593 On ch=11 n=a6 v=127
1884 Off ch=11 n=a6 v=127
1884 Off ch=1 n=c5 v=127
1900 On ch=6 n=f5 v=127
1900 On ch=6 n=f6 v=127
2191 Off ch=6 n=f6 v=127
2191 Off ch=6 n=f5 v=127
2207 On ch=11 n=a5 v=127
2207 On ch=6 n=f6 v=127
2498 Off ch=6 n=f6 v=127
2498 Off ch=11 n=a5 v=127
2514 On ch=1 n=c6 v=127
2514 On ch=6 n=f6 v=127
2805 Off ch=6 n=f6 v=127
2805 Off ch=1 n=c6 v=127
2821 On ch=12 n=a#5 v=127
2821 On ch=8 n=g6 v=127
2871 Off ch=8 n=g6 v=127
2871 Off ch=12 n=a#5 v=127
2873 On ch=11 n=a5 v=127
2873 On ch=6 n=f6 v=127
2923 Off ch=6 n=f6 v=127
2923 Off ch=11 n=a5 v=127
2925 On ch=12 n=a#5 v=127
2925 On ch=8 n=g6 v=127
2975 Off ch=8 n=g6 v=127
2975 Off ch=12 n=a#5 v=127
2977 On ch=11 n=a5 v=127
2977 On ch=6 n=f6 v=127
3436 Off ch=6 n=f6 v=127
3436 Off ch=11 n=a5 v=127
3438 On ch=11 n=a5 v=127
3438 On ch=6 n=f6 v=127
3744 Off ch=6 n=f6 v=127
3744 Off ch=11 n=a5 v=127
3746 On ch=6 n=f5 v=127
3746 On ch=11 n=a6 v=127
3847 Off ch=11 n=a6 v=127
3849 On ch=8 n=g6 v=127
3950 Off ch=8 n=g6 v=127
3952 On ch=6 n=f6 v=127
4053 Off ch=6 n=f6 v=127
4053 Off ch=6 n=f5 v=127
4055 On ch=6 n=f5 v=127
4055 On ch=5 n=e6 v=127
4156 Off ch=5 n=e6 v=127
4158 On ch=3 n=d6 v=127
4259 Off ch=3 n=d6 v=127
4261 On ch=1 n=c6 v=127
4362 Off ch=1 n=c6 v=127
4362 Off ch=6 n=f5 v=127
4364 On ch=6 n=f5 v=127
4364 On ch=12 n=a#5 v=127
4465 Off ch=12 n=a#5 v=127
4467 On ch=11 n=a5 v=127
4568 Off ch=11 n=a5 v=127
4570 On ch=8 n=g5 v=127
4671 Off ch=8 n=g5 v=127
4673 On ch=6 n=f4 v=127
4673 On ch=11 n=a5 v=127
4774 Off ch=11 n=a5 v=127
4776 On ch=8 n=g5 v=127
4827 Off ch=6 n=f5 v=127
4877 Off ch=8 n=g5 v=127
4879 On ch=6 n=f5 v=127
4980 Off ch=6 n=f5 v=127
4980 Off ch=6 n=f4 v=127
4982 On ch=6 n=f4 v=127
4982 On ch=5 n=e5 v=127
5083 Off ch=5 n=e5 v=127
5085 On ch=3 n=d5 v=127
5186 Off ch=3 n=d5 v=127
5188 On ch=1 n=c5 v=127
5289 Off ch=1 n=c5 v=127
5289 Off ch=6 n=f4 v=127
5291 On ch=6 n=f4 v=127
5291 On ch=12 n=a#4 v=127
5392 Off ch=12 n=a#4 v=127
5394 On ch=11 n=a4 v=127
5495 Off ch=11 n=a4 v=127
5497 On ch=8 n=g4 v=127
5598 Off ch=8 n=g4 v=127
5600 On ch=6 n=f3 v=127
5600 On ch=11 n=a4 v=127
5701 Off ch=11 n=a4 v=127
5703 On ch=8 n=g4 v=127
5754 Off ch=6 n=f4 v=127
5804 Off ch=8 n=g4 v=127
5806 On ch=6 n=f4 v=127
5907 Off ch=6 n=f4 v=127
5907 Off ch=6 n=f3 v=127
5909 On ch=6 n=f3 v=127
5909 On ch=5 n=e4 v=127
6010 Off ch=5 n=e4 v=127
6012 On ch=3 n=d4 v=127
6113 Off ch=3 n=d4 v=127
6115 On ch=1 n=c4 v=127
6216 Off ch=1 n=c4 v=127
6216 Off ch=6 n=f3 v=127
6218 On ch=6 n=f3 v=127
6218 On ch=12 n=a#3 v=127
6319 Off ch=12 n=a#3 v=127
6321 On ch=11 n=a3 v=127
6422 Off ch=11 n=a3 v=127
6424 On ch=8 n=g3 v=127
6523 Off ch=6 n=f3 v=127
6525 Off ch=8 n=g3 v=127
6527 On ch=8 n=g3 v=127
6577 Off ch=8 n=g3 v=127
6579 On ch=6 n=f3 v=127
6629 Off ch=6 n=f3 v=127
6631 On ch=8 n=g3 v=127
6681 Off ch=8 n=g3 v=127
6683 On ch=6 n=f3 v=127
7449 Off ch=6 n=f3 v=127
7451 On ch=6 n=f4 v=127
7451 On ch=1 n=c5 v=127
7451 On ch=11 n=a5 v=127
7552 Off ch=11 n=a5 v=127
7554 On ch=12 n=a#5 v=127
7655 Off ch=12 n=a#5 v=127
7657 On ch=1 n=c6 v=127
7758 Off ch=1 n=c6 v=127
7758 Off ch=1 n=c5 v=127
7758 Off ch=6 n=f4 v=127
7760 On ch=6 n=f4 v=127
7760 On ch=1 n=c5 v=127
7760 On ch=6 n=f6 v=127
7810 Off ch=6 n=f6 v=127
7812 On ch=4 n=d#6 v=127
7862 Off ch=4 n=d#6 v=127
7864 On ch=6 n=f6 v=127
7914 Off ch=6 n=f6 v=127
7916 On ch=4 n=d#6 v=127
8068 Off ch=1 n=c5 v=127
8068 Off ch=6 n=f4 v=127
8070 On ch=6 n=f4 v=127
8070 On ch=1 n=c5 v=127
8376 Off ch=1 n=c5 v=127
8376 Off ch=6 n=f4 v=127
8376 Off ch=4 n=d#6 v=127
8378 On ch=12 n=a#4 v=127
8378 On ch=3 n=d5 v=127
8378 On ch=6 n=f4 v=127
8378 On ch=3 n=d6 v=127
8479 Off ch=3 n=d6 v=127
8481 On ch=1 n=c6 v=127
8582 Off ch=1 n=c6 v=127
8584 On ch=12 n=a#5 v=127
8685 Off ch=12 n=a#5 v=127
8685 Off ch=6 n=f4 v=127
8685 Off ch=3 n=d5 v=127
8685 Off ch=12 n=a#4 v=127
8687 On ch=12 n=a#4 v=127
8687 On ch=6 n=f4 v=127
8687 On ch=3 n=d5 v=127
8687 On ch=1 n=c6 v=127
8737 Off ch=1 n=c6 v=127
8739 On ch=12 n=a#5 v=127
8790 On ch=1 n=c6 v=127
8798 Off ch=12 n=a#5 v=127
8840 Off ch=1 n=c6 v=127
8842 On ch=12 n=a#5 v=127
8994 Off ch=3 n=d5 v=127
8994 Off ch=6 n=f4 v=127
8994 Off ch=12 n=a#4 v=127
8996 On ch=6 n=f4 v=127
8996 On ch=12 n=a#4 v=127
8996 On ch=3 n=d5 v=127
9302 Off ch=3 n=d5 v=127
9302 Off ch=12 n=a#4 v=127
9302 Off ch=6 n=f4 v=127
9302 Off ch=12 n=a#5 v=127
9304 On ch=12 n=a#4 v=127
9304 On ch=6 n=f4 v=127
9304 On ch=3 n=d5 v=127
9304 On ch=12 n=a#5 v=127
9405 Off ch=12 n=a#5 v=127
9407 On ch=1 n=c6 v=127
9508 Off ch=1 n=c6 v=127
9510 On ch=3 n=d6 v=127
9611 Off ch=3 n=d6 v=127
9611 Off ch=3 n=d5 v=127
9611 Off ch=6 n=f4 v=127
9611 Off ch=12 n=a#4 v=127
9613 On ch=12 n=a#4 v=127
9613 On ch=6 n=f4 v=127
9613 On ch=3 n=d5 v=127
9613 On ch=6 n=f6 v=127
9919 Off ch=3 n=d5 v=127
9919 Off ch=6 n=f4 v=127
9919 Off ch=12 n=a#4 v=127
9921 On ch=12 n=a#4 v=127
9921 On ch=6 n=f4 v=127
9921 On ch=3 n=d5 v=127
10022 Off ch=6 n=f6 v=127
10024 On ch=4 n=d#6 v=127
10125 Off ch=4 n=d#6 v=127
10127 On ch=3 n=d6 v=127
10228 Off ch=3 n=d6 v=127
10228 Off ch=3 n=d5 v=127
10228 Off ch=6 n=f4 v=127
10228 Off ch=12 n=a#4 v=127
10230 On ch=6 n=f5 v=127
10230 On ch=1 n=c5 v=127
10230 On ch=6 n=f4 v=127
10230 On ch=1 n=c6 v=127
10331 Off ch=1 n=c6 v=127
10333 On ch=12 n=a#5 v=127
10434 Off ch=12 n=a#5 v=127
10436 On ch=11 n=a5 v=127
10537 Off ch=11 n=a5 v=127
10537 Off ch=6 n=f4 v=127
10537 Off ch=1 n=c5 v=127
10537 Off ch=6 n=f5 v=127
10539 On ch=6 n=f4 v=127
10539 On ch=6 n=f5 v=127
10539 On ch=1 n=c5 v=127
10539 On ch=12 n=a#5 v=127
10589 Off ch=12 n=a#5 v=127
10591 On ch=11 n=a5 v=127
10641 Off ch=11 n=a5 v=127
10643 On ch=12 n=a#5 v=127
10693 Off ch=12 n=a#5 v=127
10695 On ch=11 n=a5 v=127
10847 Off ch=1 n=c5 v=127
10847 Off ch=6 n=f5 v=127
10847 Off ch=6 n=f4 v=127
10849 On ch=6 n=f4 v=127
10849 On ch=6 n=f5 v=127
10849 On ch=1 n=c5 v=127
11155 Off ch=1 n=c5 v=127
11155 Off ch=6 n=f5 v=127
11155 Off ch=6 n=f4 v=127
11155 Off ch=11 n=a5 v=127
11157 On ch=6 n=f5 v=127
11157 On ch=11 n=a5 v=127
11258 Off ch=11 n=a5 v=127
11260 On ch=12 n=a#5 v=127
11361 Off ch=12 n=a#5 v=127
11363 On ch=1 n=c6 v=127
11464 Off ch=1 n=c6 v=127
11464 Off ch=6 n=f5 v=127
11466 On ch=3 n=d5 v=127
11466 On ch=6 n=f6 v=127
11567 Off ch=3 n=d5 v=127
11569 On ch=5 n=e5 v=127
11670 Off ch=5 n=e5 v=127
11672 On ch=6 n=f5 v=127
11773 Off ch=6 n=f5 v=127
11773 Off ch=6 n=f6 v=127
11775 On ch=8 n=g5 v=127
11775 On ch=13 n=b5 v=127
11876 Off ch=13 n=b5 v=127
11878 On ch=1 n=c6 v=127
11979 Off ch=1 n=c6 v=127
11981 On ch=3 n=d6 v=127
12082 Off ch=3 n=d6 v=127
12082 Off ch=8 n=g5 v=127
12084 On ch=5 n=e5 v=127
12084 On ch=8 n=g6 v=127
12185 Off ch=5 n=e5 v=127
12187 On ch=6 n=f5 v=127
12288 Off ch=6 n=f5 v=127
12290 On ch=8 n=g5 v=127
12391 Off ch=8 n=g5 v=127
12391 Off ch=8 n=g6 v=127
12393 On ch=11 n=a5 v=127
12393 On ch=1 n=c6 v=127
12494 Off ch=1 n=c6 v=127
12496 On ch=3 n=d6 v=127
12597 Off ch=3 n=d6 v=127
12599 On ch=5 n=e6 v=127
12700 Off ch=5 n=e6 v=127
12700 Off ch=11 n=a5 v=127
12702 On ch=6 n=f5 v=127
12702 On ch=11 n=a6 v=127
12803 Off ch=6 n=f5 v=127
12805 On ch=8 n=g5 v=127
12906 Off ch=8 n=g5 v=127
12908 On ch=11 n=a5 v=127
13009 Off ch=11 n=a5 v=127
13009 Off ch=11 n=a6 v=127
13011 On ch=13 n=b5 v=127
13011 On ch=3 n=d6 v=127
13112 Off ch=3 n=d6 v=127
13114 On ch=5 n=e6 v=127
13215 Off ch=5 n=e6 v=127
13217 On ch=6 n=f6 v=127
13318 Off ch=6 n=f6 v=127
13318 Off ch=13 n=b5 v=127
13320 On ch=8 n=g5 v=127
13320 On ch=13 n=b6 v=127
13421 Off ch=13 n=b6 v=127
13423 On ch=11 n=a6 v=127
13524 Off ch=11 n=a6 v=127
13526 On ch=8 n=g6 v=127
13627 Off ch=8 n=g6 v=127
13627 Off ch=8 n=g5 v=127
13629 On ch=13 n=b5 v=127
13629 On ch=6 n=f6 v=127
13730 Off ch=6 n=f6 v=127
13732 On ch=5 n=e6 v=127
13833 Off ch=5 n=e6 v=127
13835 On ch=3 n=d6 v=127
13936 Off ch=3 n=d6 v=127
13936 Off ch=13 n=b5 v=127
13938 On ch=1 n=c6 v=127
13938 On ch=5 n=e6 v=127
14039 Off ch=5 n=e6 v=127
14041 On ch=6 n=f6 v=127
14142 Off ch=6 n=f6 v=127
14144 On ch=8 n=g6 v=127
14245 Off ch=8 n=g6 v=127
14245 Off ch=1 n=c6 v=127
14247 On ch=6 n=f5 v=127
14247 On ch=11 n=a6 v=127
14348 Off ch=11 n=a6 v=127
14350 On ch=8 n=g6 v=127
14451 Off ch=8 n=g6 v=127
14453 On ch=6 n=f6 v=127
14554 Off ch=6 n=f6 v=127
14554 Off ch=6 n=f5 v=127
14556 On ch=7 n=f#5 v=127
14556 On ch=5 n=e6 v=127
14657 Off ch=5 n=e6 v=127
14659 On ch=3 n=d6 v=127
14760 Off ch=3 n=d6 v=127
14762 On ch=1 n=c6 v=127
14863 Off ch=7 n=f#5 v=127
14865 On ch=8 n=g5 v=127
14915 Off ch=1 n=c6 v=127
14917 On ch=13 n=b5 v=127
14967 Off ch=13 n=b5 v=127
14969 On ch=1 n=c6 v=127
15019 Off ch=1 n=c6 v=127
15021 On ch=13 n=b5 v=127
15175 On ch=8 n=g4 v=127
15378 Off ch=13 n=b5 v=127
15380 On ch=11 n=a5 v=127
15476 Off ch=8 n=g5 v=127
15481 Off ch=11 n=a5 v=127
15483 On ch=8 n=g5 v=127
15789 Off ch=8 n=g5 v=127
15789 Off ch=8 n=g4 v=127
15791 On ch=4 n=d#5 v=127
15791 On ch=1 n=c5 v=127
15791 On ch=8 n=g5 v=127
15791 On ch=1 n=c6 v=127
15892 Off ch=1 n=c6 v=127
15894 On ch=3 n=d6 v=127
15995 Off ch=3 n=d6 v=127
15997 On ch=4 n=d#6 v=127
16098 Off ch=4 n=d#6 v=127
16098 Off ch=8 n=g5 v=127
16098 Off ch=1 n=c5 v=127
16098 Off ch=4 n=d#5 v=127
16100 On ch=4 n=d#5 v=127
16100 On ch=1 n=c5 v=127
16100 On ch=8 n=g5 v=127
16100 On ch=8 n=g6 v=127
16406 Off ch=8 n=g5 v=127
16406 Off ch=1 n=c5 v=127
16406 Off ch=4 n=d#5 v=127
16408 On ch=4 n=d#5 v=127
16408 On ch=1 n=c5 v=127
16408 On ch=8 n=g5 v=127
16509 Off ch=8 n=g6 v=127
16511 On ch=6 n=f6 v=127
16612 Off ch=6 n=f6 v=127
16614 On ch=4 n=d#6 v=127
16715 Off ch=4 n=d#6 v=127
16715 Off ch=8 n=g5 v=127
16715 Off ch=1 n=c5 v=127
16715 Off ch=4 n=d#5 v=127
16717 On ch=12 n=a#4 v=127
16717 On ch=8 n=g5 v=127
16717 On ch=3 n=d5 v=127
16717 On ch=4 n=d#6 v=127
16818 Off ch=4 n=d#6 v=127
16820 On ch=3 n=d6 v=127
16921 Off ch=3 n=d6 v=127
16923 On ch=2 n=c#6 v=127
17024 Off ch=2 n=c#6 v=127
17024 Off ch=3 n=d5 v=127
17024 Off ch=8 n=g5 v=127
17024 Off ch=12 n=a#4 v=127
17026 On ch=12 n=a#4 v=127
17026 On ch=3 n=d5 v=127
17026 On ch=8 n=g5 v=127
17026 On ch=2 n=c#6 v=127
17332 Off ch=2 n=c#6 v=127
17332 Off ch=8 n=g5 v=127
17332 Off ch=3 n=d5 v=127
17332 Off ch=12 n=a#4 v=127
17334 On ch=12 n=a#4 v=127
17334 On ch=8 n=g5 v=127
17334 On ch=3 n=d5 v=127
17334 On ch=3 n=d6 v=127
17640 Off ch=3 n=d6 v=127
17640 Off ch=3 n=d5 v=127
17640 Off ch=8 n=g5 v=127
17640 Off ch=12 n=a#4 v=127
17642 On ch=8 n=g5 v=127
17642 On ch=3 n=d5 v=127
17642 On ch=12 n=a#4 v=127
17642 On ch=3 n=d6 v=127
17743 Off ch=3 n=d6 v=127
17745 On ch=4 n=d#6 v=127
17846 Off ch=4 n=d#6 v=127
17848 On ch=6 n=f6 v=127
17949 Off ch=6 n=f6 v=127
17949 Off ch=12 n=a#4 v=127
17949 Off ch=3 n=d5 v=127
17949 Off ch=8 n=g5 v=127
17951 On ch=3 n=d5 v=127
17951 On ch=12 n=a#4 v=127
17951 On ch=8 n=g5 v=127
17951 On ch=8 n=g6 v=127
18257 Off ch=8 n=g5 v=127
18257 Off ch=12 n=a#4 v=127
18257 Off ch=3 n=d5 v=127
18259 On ch=12 n=a#4 v=127
18259 On ch=3 n=d5 v=127
18259 On ch=8 n=g5 v=127
18360 Off ch=8 n=g6 v=127
18362 On ch=6 n=f6 v=127
18463 Off ch=6 n=f6 v=127
18465 On ch=4 n=d#6 v=127
18566 Off ch=4 n=d#6 v=127
18566 Off ch=8 n=g5 v=127
18566 Off ch=3 n=d5 v=127
18566 Off ch=12 n=a#4 v=127
18568 On ch=1 n=c5 v=127
18568 On ch=9 n=g#4 v=127
18568 On ch=8 n=g5 v=127
18568 On ch=3 n=d6 v=127
18669 Off ch=3 n=d6 v=127
18671 On ch=1 n=c6 v=127
18772 Off ch=1 n=c6 v=127
18774 On ch=13 n=b5 v=127
18875 Off ch=13 n=b5 v=127
18875 Off ch=8 n=g5 v=127
18875 Off ch=9 n=g#4 v=127
18875 Off ch=1 n=c5 v=127
18877 On ch=9 n=g#4 v=127
18877 On ch=8 n=g5 v=127
18877 On ch=1 n=c5 v=127
18877 On ch=13 n=b5 v=127
19183 Off ch=13 n=b5 v=127
19183 Off ch=1 n=c5 v=127
19183 Off ch=8 n=g5 v=127
19183 Off ch=9 n=g#4 v=127
19185 On ch=6 n=f5 v=127
19185 On ch=1 n=c5 v=127
19185 On ch=9 n=g#4 v=127
19185 On ch=1 n=c6 v=127
19491 Off ch=1 n=c6 v=127
19491 Off ch=9 n=g#4 v=127
19491 Off ch=1 n=c5 v=127
19491 Off ch=6 n=f5 v=127
19493 On ch=1 n=c5 v=127
19493 On ch=9 n=g#4 v=127
19493 On ch=6 n=f5 v=127
19493 On ch=1 n=c6 v=127
19594 Off ch=1 n=c6 v=127
19596 On ch=3 n=d6 v=127
19697 Off ch=3 n=d6 v=127
19699 On ch=4 n=d#6 v=127
19800 Off ch=4 n=d#6 v=127
19800 Off ch=6 n=f5 v=127
19800 Off ch=9 n=g#4 v=127
19800 Off ch=1 n=c5 v=127
19802 On ch=9 n=g#4 v=127
19802 On ch=6 n=f5 v=127
19802 On ch=1 n=c5 v=127
19802 On ch=6 n=f6 v=127
19903 Off ch=6 n=f6 v=127
19905 On ch=4 n=d#6 v=127
20006 Off ch=4 n=d#6 v=127
20008 On ch=6 n=f6 v=127
20109 Off ch=6 n=f6 v=127
20109 Off ch=1 n=c5 v=127
20109 Off ch=6 n=f5 v=127
20109 Off ch=9 n=g#4 v=127
20111 On ch=6 n=f5 v=127
20111 On ch=1 n=c5 v=127
20111 On ch=9 n=g#4 v=127
20111 On ch=4 n=d#6 v=127
20212 Off ch=4 n=d#6 v=127
20214 On ch=3 n=d6 v=127
20315 Off ch=3 n=d6 v=127
20317 On ch=1 n=c6 v=127
20418 Off ch=1 n=c6 v=127
20418 Off ch=9 n=g#4 v=127
20418 Off ch=1 n=c5 v=127
20418 Off ch=6 n=f5 v=127
20420 On ch=9 n=g#4 v=127
20420 On ch=6 n=f5 v=127
20420 On ch=3 n=d5 v=127
20420 On ch=13 n=b6 v=127
20521 Off ch=13 n=b6 v=127
20523 On ch=11 n=a6 v=127
20624 Off ch=11 n=a6 v=127
20626 On ch=8 n=g6 v=127
20727 Off ch=8 n=g6 v=127
20727 Off ch=3 n=d5 v=127
20727 Off ch=6 n=f5 v=127
20727 Off ch=9 n=g#4 v=127
20729 On ch=3 n=d5 v=127
20729 On ch=9 n=g#4 v=127
20729 On ch=6 n=f5 v=127
20729 On ch=6 n=f6 v=127
20830 Off ch=6 n=f6 v=127
20832 On ch=4 n=d#6 v=127
20933 Off ch=4 n=d#6 v=127
20935 On ch=3 n=d6 v=127
21036 Off ch=3 n=d6 v=127
21036 Off ch=6 n=f5 v=127
21036 Off ch=9 n=g#4 v=127
21036 Off ch=3 n=d5 v=127
21038 On ch=1 n=c5 v=127
21038 On ch=8 n=g5 v=127
21038 On ch=8 n=g4 v=127
21038 On ch=4 n=d#6 v=127
21139 Off ch=4 n=d#6 v=127
21141 On ch=3 n=d6 v=127
21242 Off ch=3 n=d6 v=127
21244 On ch=1 n=c6 v=127
21345 Off ch=1 n=c6 v=127
21345 Off ch=8 n=g4 v=127
21345 Off ch=8 n=g5 v=127
21345 Off ch=1 n=c5 v=127
21347 On ch=8 n=g4 v=127
21347 On ch=6 n=f5 v=127
21347 On ch=3 n=d5 v=127
21347 On ch=13 n=b5 v=127
21448 Off ch=13 n=b5 v=127
21450 On ch=11 n=a5 v=127
21551 Off ch=11 n=a5 v=127
21553 On ch=8 n=g5 v=127
21654 Off ch=8 n=g5 v=127
21654 Off ch=3 n=d5 v=127
21654 Off ch=6 n=f5 v=127
21654 Off ch=8 n=g4 v=127
21656 On ch=3 n=d5 v=127
21656 On ch=8 n=g4 v=127
21656 On ch=6 n=f5 v=127
21757 Off ch=6 n=f5 v=127
21759 On ch=4 n=d#5 v=127
21858 Off ch=3 n=d5 v=127
21860 Off ch=4 n=d#5 v=127
21862 On ch=3 n=d5 v=127
21963 Off ch=3 n=d5 v=127
21963 Off ch=8 n=g4 v=127
21965 On ch=1 n=c5 v=127
21965 On ch=8 n=g4 v=127
21965 On ch=4 n=d#5 v=127
22066 Off ch=4 n=d#5 v=127
22068 On ch=3 n=d5 v=127
22158 Off ch=1 n=c5 v=127
22169 Off ch=3 n=d5 v=127
22171 On ch=1 n=c5 v=127
22272 Off ch=8 n=g4 v=127
22274 On ch=8 n=g4 v=127
22324 Off ch=1 n=c5 v=127
22326 On ch=13 n=b4 v=127
22376 Off ch=13 n=b4 v=127
22378 On ch=1 n=c5 v=127
22428 Off ch=1 n=c5 v=127
22430 On ch=13 n=b4 v=127
22584 On ch=8 n=g3 v=127
22787 Off ch=13 n=b4 v=127
22789 On ch=11 n=a4 v=127
22885 Off ch=8 n=g4 v=127
22890 Off ch=11 n=a4 v=127
22892 On ch=8 n=g4 v=127
23198 Off ch=8 n=g4 v=127
23198 Off ch=8 n=g3 v=127
23200 On ch=8 n=g4 v=127
23200 On ch=3 n=d5 v=127
23200 On ch=8 n=g5 v=127
23301 Off ch=8 n=g5 v=127
23303 On ch=13 n=b5 v=127
23404 Off ch=13 n=b5 v=127
23406 On ch=3 n=d6 v=127
23507 Off ch=3 n=d6 v=127
23507 Off ch=3 n=d5 v=127
23507 Off ch=8 n=g4 v=127
23509 On ch=8 n=g4 v=127
23509 On ch=3 n=d5 v=127
23509 On ch=3 n=d6 v=127
23815 Off ch=3 n=d5 v=127
23815 Off ch=8 n=g4 v=127
23817 On ch=3 n=d5 v=127
23817 On ch=8 n=g4 v=127
24123 Off ch=8 n=g4 v=127
24123 Off ch=3 n=d5 v=127
24123 Off ch=3 n=d6 v=127
24125 On ch=6 n=f4 v=127
24125 On ch=3 n=d5 v=127
24125 On ch=6 n=f5 v=127
24226 Off ch=6 n=f5 v=127
24228 On ch=13 n=b5 v=127
24329 Off ch=13 n=b5 v=127
24331 On ch=3 n=d6 v=127
24432 Off ch=3 n=d6 v=127
24432 Off ch=3 n=d5 v=127
24432 Off ch=6 n=f4 v=127
24434 On ch=3 n=d5 v=127
24434 On ch=6 n=f4 v=127
24434 On ch=3 n=d6 v=127
24740 Off ch=6 n=f4 v=127
24740 Off ch=3 n=d5 v=127
24742 On ch=1 n=c5 v=127
24742 On ch=4 n=d#4 v=127
25048 Off ch=4 n=d#4 v=127
25048 Off ch=1 n=c5 v=127
25048 Off ch=3 n=d6 v=127
25050 On ch=3 n=d4 v=127
25050 On ch=3 n=d5 v=127
25050 On ch=13 n=b4 v=127
25050 On ch=6 n=f5 v=127
25151 Off ch=6 n=f5 v=127
25153 On ch=13 n=b5 v=127
25254 Off ch=13 n=b5 v=127
25256 On ch=6 n=f6 v=127
25357 Off ch=6 n=f6 v=127
25357 Off ch=13 n=b4 v=127
25357 Off ch=3 n=d5 v=127
25357 Off ch=3 n=d4 v=127
25359 On ch=13 n=b4 v=127
25359 On ch=3 n=d4 v=127
25359 On ch=6 n=f6 v=127
25665 Off ch=3 n=d4 v=127
25665 Off ch=13 n=b4 v=127
25667 On ch=9 n=g#4 v=127
25667 On ch=1 n=c4 v=127
25973 Off ch=1 n=c4 v=127
25973 Off ch=9 n=g#4 v=127
25973 Off ch=6 n=f6 v=127
25975 On ch=8 n=g4 v=127
25975 On ch=13 n=b3 v=127
25975 On ch=6 n=f5 v=127
26076 Off ch=6 n=f5 v=127
26078 On ch=13 n=b5 v=127
26179 Off ch=13 n=b5 v=127
26181 On ch=6 n=f6 v=127
26282 Off ch=6 n=f6 v=127
26282 Off ch=13 n=b3 v=127
26282 Off ch=8 n=g4 v=127
26284 On ch=13 n=b3 v=127
26284 On ch=8 n=g4 v=127
26284 On ch=6 n=f6 v=127
26590 Off ch=8 n=g4 v=127
26590 Off ch=13 n=b3 v=127
26592 On ch=1 n=c4 v=127
26592 On ch=11 n=a3 v=127
26592 On ch=8 n=g4 v=127
26898 Off ch=8 n=g4 v=127
26898 Off ch=11 n=a3 v=127
26898 Off ch=1 n=c4 v=127
26898 Off ch=6 n=f6 v=127
26900 On ch=8 n=g4 v=127
26900 On ch=3 n=d4 v=127
26900 On ch=8 n=g3 v=127
26900 On ch=6 n=f5 v=127
27001 Off ch=6 n=f5 v=127
27003 On ch=13 n=b5 v=127
27104 Off ch=13 n=b5 v=127
27106 On ch=3 n=d6 v=127
27207 Off ch=3 n=d6 v=127
27207 Off ch=8 n=g3 v=127
27207 Off ch=3 n=d4 v=127
27207 Off ch=8 n=g4 v=127
27209 On ch=11 n=a3 v=127
27209 On ch=8 n=g4 v=127
27209 On ch=1 n=c4 v=127
27209 On ch=6 n=f6 v=127
27310 Off ch=6 n=f6 v=127
27312 On ch=5 n=e6 v=127
27413 Off ch=5 n=e6 v=127
27415 On ch=3 n=d6 v=127
27516 Off ch=3 n=d6 v=127
27516 Off ch=1 n=c4 v=127
27516 Off ch=8 n=g4 v=127
27516 Off ch=11 n=a3 v=127
27518 On ch=3 n=d4 v=127
27518 On ch=13 n=b3 v=127
27518 On ch=8 n=g4 v=127
27518 On ch=11 n=a6 v=127
27619 Off ch=11 n=a6 v=127
27621 On ch=8 n=g6 v=127
27722 Off ch=8 n=g6 v=127
27724 On ch=6 n=f6 v=127
27825 Off ch=6 n=f6 v=127
27825 Off ch=8 n=g4 v=127
27825 Off ch=13 n=b3 v=127
27825 Off ch=3 n=d4 v=127
27827 On ch=5 n=e4 v=127
27827 On ch=1 n=c5 v=127
27827 On ch=1 n=c4 v=127
27827 On ch=5 n=e6 v=127
27928 Off ch=5 n=e6 v=127
27930 On ch=6 n=f6 v=127
28031 Off ch=6 n=f6 v=127
28033 On ch=8 n=g6 v=127
28134 Off ch=8 n=g6 v=127
28134 Off ch=1 n=c4 v=127
28134 Off ch=1 n=c5 v=127
28134 Off ch=5 n=e4 v=127
28136 On ch=3 n=d4 v=127
28136 On ch=1 n=c5 v=127
28136 On ch=6 n=f4 v=127
28136 On ch=6 n=f6 v=127
28237 Off ch=6 n=f6 v=127
28239 On ch=5 n=e6 v=127
28340 Off ch=5 n=e6 v=127
28342 On ch=3 n=d6 v=127
28443 Off ch=3 n=d6 v=127
28443 Off ch=6 n=f4 v=127
28443 Off ch=1 n=c5 v=127
28443 Off ch=3 n=d4 v=127
28445 On ch=5 n=e4 v=127
28445 On ch=1 n=c5 v=127
28445 On ch=8 n=g4 v=127
28445 On ch=8 n=g6 v=127
28546 Off ch=8 n=g6 v=127
28548 On ch=6 n=f6 v=127
28649 Off ch=6 n=f6 v=127
28651 On ch=5 n=e6 v=127
28752 Off ch=5 n=e6 v=127
28752 Off ch=8 n=g4 v=127
28752 Off ch=1 n=c5 v=127
28752 Off ch=5 n=e4 v=127
28754 On ch=3 n=d5 v=127
28754 On ch=6 n=f4 v=127
28754 On ch=6 n=f5 v=127
28754 On ch=11 n=a6 v=127
28855 Off ch=11 n=a6 v=127
28857 On ch=8 n=g6 v=127
28958 Off ch=8 n=g6 v=127
28960 On ch=6 n=f6 v=127
29061 Off ch=6 n=f6 v=127
29061 Off ch=6 n=f5 v=127
29061 Off ch=6 n=f4 v=127
29061 Off ch=3 n=d5 v=127
29063 On ch=8 n=g4 v=127
29063 On ch=1 n=c5 v=127
29063 On ch=5 n=e5 v=127
29063 On ch=5 n=e6 v=127
29164 Off ch=5 n=e6 v=127
29166 On ch=3 n=d6 v=127
29267 Off ch=3 n=d6 v=127
29269 On ch=1 n=c6 v=127
29370 Off ch=1 n=c6 v=127
29370 Off ch=5 n=e5 v=127
29370 Off ch=1 n=c5 v=127
29372 On ch=3 n=d5 v=127
29372 On ch=13 n=b4 v=127
29372 On ch=3 n=d6 v=127
29473 Off ch=3 n=d6 v=127
29475 On ch=1 n=c6 v=127
29576 Off ch=1 n=c6 v=127
29578 On ch=13 n=b5 v=127
29679 Off ch=13 n=b5 v=127
29679 Off ch=13 n=b4 v=127
29679 Off ch=3 n=d5 v=127
29679 Off ch=8 n=g4 v=127
29681 On ch=1 n=c5 v=127
29681 On ch=1 n=c7 v=127
29782 Off ch=1 n=c7 v=127
29784 On ch=13 n=b6 v=127
29885 Off ch=13 n=b6 v=127
29887 On ch=11 n=a6 v=127
29988 Off ch=11 n=a6 v=127
29988 Off ch=1 n=c5 v=127
29990 On ch=1 n=c5 v=127
29990 On ch=8 n=g6 v=127
30091 Off ch=8 n=g6 v=127
30093 On ch=6 n=f6 v=127
30194 Off ch=6 n=f6 v=127
30196 On ch=5 n=e6 v=127
30297 Off ch=5 n=e6 v=127
30297 Off ch=1 n=c5 v=127
30299 On ch=1 n=c5 v=127
30299 On ch=3 n=d6 v=127
30400 Off ch=3 n=d6 v=127
30402 On ch=1 n=c6 v=127
30503 Off ch=1 n=c6 v=127
30505 On ch=13 n=b5 v=127
30606 Off ch=13 n=b5 v=127
30608 On ch=1 n=c4 v=127
30608 On ch=1 n=c6 v=127
30709 Off ch=1 n=c6 v=127
30711 On ch=13 n=b5 v=127
30762 Off ch=1 n=c5 v=127
30812 Off ch=13 n=b5 v=127
30814 On ch=11 n=a5 v=127
30915 Off ch=11 n=a5 v=127
30915 Off ch=1 n=c4 v=127
30917 On ch=1 n=c4 v=127
30917 On ch=8 n=g5 v=127
31018 Off ch=8 n=g5 v=127
31020 On ch=6 n=f5 v=127
31121 Off ch=6 n=f5 v=127
31123 On ch=5 n=e5 v=127
31224 Off ch=5 n=e5 v=127
31224 Off ch=1 n=c4 v=127
31226 On ch=1 n=c4 v=127
31226 On ch=3 n=d5 v=127
31327 Off ch=3 n=d5 v=127
31329 On ch=1 n=c5 v=127
31430 Off ch=1 n=c5 v=127
31432 On ch=13 n=b4 v=127
31533 Off ch=13 n=b4 v=127
31533 Off ch=1 n=c4 v=127
31535 On ch=1 n=c4 v=127
31535 On ch=1 n=c5 v=127
31636 Off ch=1 n=c5 v=127
31638 On ch=13 n=b4 v=127
31739 Off ch=13 n=b4 v=127
31741 On ch=11 n=a4 v=127
31842 Off ch=11 n=a4 v=127
31844 On ch=1 n=c3 v=127
31844 On ch=8 n=g4 v=127
31945 Off ch=8 n=g4 v=127
31947 On ch=6 n=f4 v=127
31998 Off ch=1 n=c4 v=127
32048 Off ch=6 n=f4 v=127
32050 On ch=5 n=e4 v=127
32151 Off ch=5 n=e4 v=127
32151 Off ch=1 n=c3 v=127
32153 On ch=1 n=c3 v=127
32153 On ch=3 n=d4 v=127
32254 Off ch=3 n=d4 v=127
32256 On ch=1 n=c4 v=127
32357 Off ch=1 n=c4 v=127
32359 On ch=13 n=b3 v=127
32460 Off ch=13 n=b3 v=127
32460 Off ch=1 n=c3 v=127
32462 On ch=1 n=c3 v=127
32462 On ch=1 n=c4 v=127
32563 Off ch=1 n=c4 v=127
32565 On ch=13 n=b3 v=127
32666 Off ch=13 n=b3 v=127
32668 On ch=11 n=a3 v=127
32769 Off ch=11 n=a3 v=127
32771 On ch=8 n=g3 v=127
32872 Off ch=8 n=g3 v=127
32874 On ch=6 n=f3 v=127
32975 Off ch=6 n=f3 v=127
32977 On ch=5 n=e3 v=127
33078 Off ch=5 n=e3 v=127
33078 Off ch=1 n=c3 v=127
33080 On ch=3 n=d3 v=127
33181 Off ch=3 n=d3 v=127
33183 On ch=1 n=c3 v=127
33284 Off ch=1 n=c3 v=127
33286 On ch=13 n=b2 v=127
33387 Off ch=13 n=b2 v=127
33389 On ch=3 n=d3 v=127
33439 Off ch=3 n=d3 v=127
33441 On ch=1 n=c3 v=127
33491 Off ch=1 n=c3 v=127
33493 On ch=3 n=d3 v=127
33543 Off ch=3 n=d3 v=127
33545 On ch=1 n=c3 v=127
34311 Off ch=1 n=c3 v=127
34313 On ch=1 n=c3 v=127
34313 On ch=1 n=c5 v=127
34604 Off ch=1 n=c5 v=127
34604 Off ch=1 n=c3 v=127
34620 On ch=5 n=e3 v=127
34620 On ch=5 n=e5 v=127
34911 Off ch=5 n=e5 v=127
34911 Off ch=5 n=e3 v=127
34927 On ch=8 n=g3 v=127
34927 On ch=8 n=g5 v=127
35218 Off ch=8 n=g5 v=127
35218 Off ch=8 n=g3 v=127
35234 On ch=1 n=c4 v=127
35234 On ch=1 n=c6 v=127
35525 Off ch=1 n=c6 v=127
35525 Off ch=1 n=c4 v=127
35541 On ch=5 n=e4 v=127
35541 On ch=8 n=g6 v=127
35832 Off ch=8 n=g6 v=127
35832 Off ch=5 n=e4 v=127
35848 On ch=8 n=g4 v=127
35848 On ch=5 n=e6 v=127
36139 Off ch=5 n=e6 v=127
36139 Off ch=8 n=g4 v=127
36155 On ch=1 n=c5 v=127
36155 On ch=1 n=c6 v=127
36446 Off ch=1 n=c6 v=127
36446 Off ch=1 n=c5 v=127
36462 On ch=5 n=e5 v=127
36462 On ch=1 n=c7 v=127
36753 Off ch=1 n=c7 v=127
36753 Off ch=5 n=e5 v=127
36769 On ch=8 n=g5 v=127
36769 On ch=1 n=c6 v=127
37060 Off ch=1 n=c6 v=127
37060 Off ch=8 n=g5 v=127
37076 On ch=6 n=f5 v=127
37076 On ch=3 n=d6 v=127
37126 Off ch=3 n=d6 v=127
37126 Off ch=6 n=f5 v=127
37128 On ch=5 n=e5 v=127
37128 On ch=1 n=c6 v=127
37178 Off ch=1 n=c6 v=127
37178 Off ch=5 n=e5 v=127
37180 On ch=6 n=f5 v=127
37180 On ch=3 n=d6 v=127
37230 Off ch=3 n=d6 v=127
37230 Off ch=6 n=f5 v=127
37232 On ch=5 n=e5 v=127
37232 On ch=1 n=c6 v=127
37691 Off ch=1 n=c6 v=127
37691 Off ch=5 n=e5 v=127
37693 On ch=5 n=e5 v=127
37693 On ch=1 n=c6 v=127
37999 Off ch=1 n=c6 v=127
37999 Off ch=5 n=e5 v=127
38001 On ch=8 n=g5 v=127
38001 On ch=5 n=e5 v=127
38001 On ch=12 n=a#6 v=127
38102 Off ch=12 n=a#6 v=127
38104 On ch=11 n=a6 v=127
38205 Off ch=11 n=a6 v=127
38207 On ch=8 n=g6 v=127
38308 Off ch=8 n=g6 v=127
38308 Off ch=5 n=e5 v=127
38308 Off ch=8 n=g5 v=127
38310 On ch=8 n=g5 v=127
38310 On ch=5 n=e5 v=127
38310 On ch=6 n=f6 v=127
38411 Off ch=6 n=f6 v=127
38413 On ch=5 n=e6 v=127
38514 Off ch=5 n=e6 v=127
38516 On ch=3 n=d6 v=127
38617 Off ch=3 n=d6 v=127
38617 Off ch=5 n=e5 v=127
38617 Off ch=8 n=g5 v=127
38619 On ch=8 n=g5 v=127
38619 On ch=5 n=e5 v=127
38619 On ch=2 n=c#6 v=127
38720 Off ch=2 n=c#6 v=127
38722 On ch=12 n=a#5 v=127
38823 Off ch=12 n=a#5 v=127
38825 On ch=11 n=a5 v=127
38926 Off ch=11 n=a5 v=127
38926 Off ch=5 n=e5 v=127
38926 Off ch=8 n=g5 v=127
38928 On ch=8 n=g5 v=127
38928 On ch=5 n=e5 v=127
38928 On ch=12 n=a#6 v=127
39029 Off ch=12 n=a#6 v=127
39031 On ch=11 n=a6 v=127
39132 Off ch=11 n=a6 v=127
39134 On ch=8 n=g6 v=127
39235 Off ch=8 n=g6 v=127
39235 Off ch=5 n=e5 v=127
39235 Off ch=8 n=g5 v=127
39237 On ch=8 n=g5 v=127
39237 On ch=5 n=e5 v=127
39237 On ch=6 n=f6 v=127
39338 Off ch=6 n=f6 v=127
39340 On ch=5 n=e6 v=127
39441 Off ch=5 n=e6 v=127
39443 On ch=3 n=d6 v=127
39544 Off ch=3 n=d6 v=127
39544 Off ch=5 n=e5 v=127
39544 Off ch=8 n=g5 v=127
39546 On ch=5 n=e5 v=127
39546 On ch=8 n=g5 v=127
39546 On ch=2 n=c#6 v=127
39647 Off ch=2 n=c#6 v=127
39649 On ch=12 n=a#5 v=127
39750 Off ch=12 n=a#5 v=127
39752 On ch=11 n=a5 v=127
39853 Off ch=11 n=a5 v=127
39853 Off ch=8 n=g5 v=127
39853 Off ch=5 n=e5 v=127
39855 On ch=8 n=g5 v=127
39855 On ch=2 n=c#6 v=127
39956 Off ch=8 n=g5 v=127
39958 On ch=6 n=f5 v=127
40059 Off ch=6 n=f5 v=127
40061 On ch=5 n=e5 v=127
40162 Off ch=5 n=e5 v=127
40162 Off ch=2 n=c#6 v=127
40164 On ch=6 n=f5 v=127
40164 On ch=3 n=d6 v=127
40265 Off ch=6 n=f5 v=127
40267 On ch=5 n=e5 v=127
40368 Off ch=5 n=e5 v=127
40370 On ch=3 n=d5 v=127
40471 Off ch=3 n=d5 v=127
40471 Off ch=3 n=d6 v=127
40473 On ch=2 n=c#5 v=127
40473 On ch=5 n=e6 v=127
40574 Off ch=2 n=c#5 v=127
40576 On ch=13 n=b4 v=127
40677 Off ch=13 n=b4 v=127
40679 On ch=11 n=a4 v=127
40780 Off ch=11 n=a4 v=127
40780 Off ch=5 n=e6 v=127
40782 On ch=3 n=d5 v=127
40782 On ch=8 n=g6 v=127
40832 Off ch=8 n=g6 v=127
40834 On ch=6 n=f6 v=127
40884 Off ch=6 n=f6 v=127
40886 On ch=8 n=g6 v=127
40936 Off ch=8 n=g6 v=127
40938 On ch=6 n=f6 v=127
41092 On ch=3 n=d4 v=127
41193 Off ch=6 n=f6 v=127
41195 On ch=5 n=e6 v=127
41296 Off ch=5 n=e6 v=127
41298 On ch=3 n=d6 v=127
41399 Off ch=3 n=d6 v=127
41401 On ch=3 n=d6 v=127
41707 Off ch=3 n=d6 v=127
41707 Off ch=3 n=d4 v=127
41707 Off ch=3 n=d5 v=127
41709 On ch=3 n=d3 v=127
41709 On ch=3 n=d5 v=127
42000 Off ch=3 n=d5 v=127
42000 Off ch=3 n=d3 v=127
42016 On ch=6 n=f3 v=127
42016 On ch=6 n=f5 v=127
42307 Off ch=6 n=f5 v=127
42307 Off ch=6 n=f3 v=127
42323 On ch=11 n=a3 v=127
42323 On ch=11 n=a5 v=127
42614 Off ch=11 n=a5 v=127
42614 Off ch=11 n=a3 v=127
42630 On ch=3 n=d4 v=127
42630 On ch=3 n=d6 v=127
42921 Off ch=3 n=d6 v=127
42921 Off ch=3 n=d4 v=127
42937 On ch=6 n=f4 v=127
42937 On ch=11 n=a6 v=127
43228 Off ch=11 n=a6 v=127
43228 Off ch=6 n=f4 v=127
43244 On ch=11 n=a4 v=127
43244 On ch=6 n=f6 v=127
43535 Off ch=6 n=f6 v=127
43535 Off ch=11 n=a4 v=127
43551 On ch=3 n=d5 v=127
43551 On ch=3 n=d6 v=127
43842 Off ch=3 n=d6 v=127
43842 Off ch=3 n=d5 v=127
43858 On ch=6 n=f5 v=127
43858 On ch=3 n=d6 v=127
44149 Off ch=3 n=d6 v=127
44149 Off ch=6 n=f5 v=127
44165 On ch=11 n=a5 v=127
44165 On ch=3 n=d6 v=127
44456 Off ch=3 n=d6 v=127
44456 Off ch=11 n=a5 v=127
44472 On ch=8 n=g5 v=127
44472 On ch=5 n=e6 v=127
44522 Off ch=5 n=e6 v=127
44522 Off ch=8 n=g5 v=127
44524 On ch=6 n=f5 v=127
44524 On ch=3 n=d6 v=127
44574 Off ch=3 n=d6 v=127
44574 Off ch=6 n=f5 v=127
44576 On ch=8 n=g5 v=127
44576 On ch=5 n=e6 v=127
44626 Off ch=5 n=e6 v=127
44626 Off ch=8 n=g5 v=127
44628 On ch=6 n=f5 v=127
44628 On ch=3 n=d6 v=127
45087 Off ch=3 n=d6 v=127
45087 Off ch=6 n=f5 v=127
45089 On ch=6 n=f5 v=127
45089 On ch=3 n=d6 v=127
45395 Off ch=3 n=d6 v=127
45395 Off ch=6 n=f5 v=127
45397 On ch=4 n=d#5 v=127
45397 On ch=1 n=c5 v=127
45397 On ch=11 n=a6 v=127
45498 Off ch=11 n=a6 v=127
45500 On ch=8 n=g6 v=127
45601 Off ch=8 n=g6 v=127
45603 On ch=7 n=f#6 v=127
45704 Off ch=7 n=f#6 v=127
45704 Off ch=1 n=c5 v=127
45704 Off ch=4 n=d#5 v=127
45706 On ch=4 n=d#5 v=127
45706 On ch=1 n=c5 v=127
45706 On ch=4 n=d#6 v=127
45807 Off ch=4 n=d#6 v=127
45809 On ch=3 n=d6 v=127
45910 Off ch=3 n=d6 v=127
45912 On ch=1 n=c6 v=127
46013 Off ch=1 n=c6 v=127
46013 Off ch=1 n=c5 v=127
46013 Off ch=4 n=d#5 v=127
46015 On ch=4 n=d#5 v=127
46015 On ch=1 n=c5 v=127
46015 On ch=12 n=a#5 v=127
46116 Off ch=12 n=a#5 v=127
46118 On ch=11 n=a5 v=127
46219 Off ch=11 n=a5 v=127
46221 On ch=8 n=g5 v=127
46322 Off ch=8 n=g5 v=127
46322 Off ch=1 n=c5 v=127
46322 Off ch=4 n=d#5 v=127
46324 On ch=4 n=d#5 v=127
46324 On ch=1 n=c5 v=127
46324 On ch=11 n=a6 v=127
46425 Off ch=11 n=a6 v=127
46427 On ch=8 n=g6 v=127
46528 Off ch=8 n=g6 v=127
46530 On ch=7 n=f#6 v=127
46631 Off ch=7 n=f#6 v=127
46631 Off ch=1 n=c5 v=127
46631 Off ch=4 n=d#5 v=127
46633 On ch=4 n=d#5 v=127
46633 On ch=1 n=c5 v=127
46633 On ch=4 n=d#6 v=127
46734 Off ch=4 n=d#6 v=127
46736 On ch=3 n=d6 v=127
46837 Off ch=3 n=d6 v=127
46839 On ch=1 n=c6 v=127
46940 Off ch=1 n=c6 v=127
46940 Off ch=1 n=c5 v=127
46940 Off ch=4 n=d#5 v=127
46942 On ch=4 n=d#5 v=127
46942 On ch=1 n=c5 v=127
46942 On ch=12 n=a#5 v=127
47043 Off ch=12 n=a#5 v=127
47045 On ch=11 n=a5 v=127
47146 Off ch=11 n=a5 v=127
47148 On ch=8 n=g5 v=127
47249 Off ch=8 n=g5 v=127
47249 Off ch=1 n=c5 v=127
47249 Off ch=4 n=d#5 v=127
47251 On ch=1 n=c5 v=127
47251 On ch=4 n=d#6 v=127
47251 On ch=7 n=f#5 v=127
47352 Off ch=1 n=c5 v=127
47354 On ch=12 n=a#4 v=127
47455 Off ch=12 n=a#4 v=127
47457 On ch=11 n=a4 v=127
47558 Off ch=11 n=a4 v=127
47558 Off ch=7 n=f#5 v=127
47558 Off ch=4 n=d#6 v=127
47560 On ch=12 n=a#4 v=127
47560 On ch=3 n=d6 v=127
47560 On ch=8 n=g5 v=127
47661 Off ch=12 n=a#4 v=127
47663 On ch=11 n=a4 v=127
47764 Off ch=11 n=a4 v=127
47766 On ch=8 n=g4 v=127
47867 Off ch=8 n=g4 v=127
47867 Off ch=8 n=g5 v=127
47867 Off ch=3 n=d6 v=127
47869 On ch=7 n=f#4 v=127
47869 On ch=1 n=c6 v=127
47869 On ch=11 n=a5 v=127
47970 Off ch=7 n=f#4 v=127
47972 On ch=5 n=e4 v=127
48073 Off ch=5 n=e4 v=127
48075 On ch=3 n=d4 v=127
48176 Off ch=3 n=d4 v=127
48176 Off ch=11 n=a5 v=127
48178 On ch=8 n=g4 v=127
48223 Off ch=1 n=c6 v=127
48229 On ch=12 n=a#5 v=127
48279 Off ch=12 n=a#5 v=127
48281 On ch=1 n=c6 v=127
48331 Off ch=1 n=c6 v=127
48333 On ch=12 n=a#5 v=127
48487 On ch=8 n=g3 v=127
48588 Off ch=12 n=a#5 v=127
48590 On ch=11 n=a5 v=127
48691 Off ch=11 n=a5 v=127
48693 On ch=8 n=g5 v=127
48794 Off ch=8 n=g5 v=127
48796 On ch=8 n=g5 v=127
49102 Off ch=8 n=g5 v=127
49102 Off ch=8 n=g3 v=127
49102 Off ch=8 n=g4 v=127
49104 On ch=8 n=g5 v=127
49104 On ch=12 n=a#6 v=127
49205 Off ch=8 n=g5 v=127
49207 On ch=11 n=a5 v=127
49308 Off ch=11 n=a5 v=127
49310 On ch=12 n=a#5 v=127
49411 Off ch=12 n=a#5 v=127
49411 Off ch=12 n=a#6 v=127
49413 On ch=1 n=c6 v=127
49413 On ch=12 n=a#6 v=127
49514 Off ch=1 n=c6 v=127
49516 On ch=3 n=d6 v=127
49617 Off ch=3 n=d6 v=127
49619 On ch=5 n=e6 v=127
49720 Off ch=5 n=e6 v=127
49720 Off ch=12 n=a#6 v=127
49722 On ch=6 n=f6 v=127
49722 On ch=11 n=a6 v=127
49722 On ch=12 n=a#6 v=127
49823 Off ch=12 n=a#6 v=127
49823 Off ch=11 n=a6 v=127
49825 On ch=8 n=g6 v=127
49924 Off ch=6 n=f6 v=127
49926 Off ch=8 n=g6 v=127
49928 On ch=6 n=f6 v=127
50024 Off ch=6 n=f6 v=127
50030 On ch=11 n=a6 v=127
50030 On ch=6 n=f5 v=127
50131 Off ch=6 n=f5 v=127
50133 On ch=8 n=g5 v=127
50234 Off ch=8 n=g5 v=127
50236 On ch=11 n=a5 v=127
50337 Off ch=11 n=a5 v=127
50337 Off ch=11 n=a6 v=127
50339 On ch=12 n=a#5 v=127
50339 On ch=11 n=a6 v=127
50440 Off ch=12 n=a#5 v=127
50442 On ch=1 n=c6 v=127
50543 Off ch=1 n=c6 v=127
50545 On ch=3 n=d6 v=127
50646 Off ch=3 n=d6 v=127
50646 Off ch=11 n=a6 v=127
50648 On ch=5 n=e6 v=127
50648 On ch=8 n=g6 v=127
50648 On ch=11 n=a6 v=127
50749 Off ch=11 n=a6 v=127
50749 Off ch=8 n=g6 v=127
50751 On ch=6 n=f6 v=127
50850 Off ch=5 n=e6 v=127
50852 Off ch=6 n=f6 v=127
50854 On ch=5 n=e6 v=127
50950 Off ch=5 n=e6 v=127
50956 On ch=5 n=e5 v=127
50956 On ch=8 n=g6 v=127
51057 Off ch=5 n=e5 v=127
51059 On ch=6 n=f5 v=127
51160 Off ch=6 n=f5 v=127
51162 On ch=8 n=g5 v=127
51263 Off ch=8 n=g5 v=127
51263 Off ch=8 n=g6 v=127
51265 On ch=11 n=a5 v=127
51265 On ch=8 n=g6 v=127
51366 Off ch=11 n=a5 v=127
51368 On ch=13 n=b5 v=127
51469 Off ch=13 n=b5 v=127
51471 On ch=2 n=c#6 v=127
51572 Off ch=2 n=c#6 v=127
51572 Off ch=8 n=g6 v=127
51574 On ch=3 n=d6 v=127
51574 On ch=6 n=f6 v=127
51574 On ch=8 n=g6 v=127
51675 Off ch=8 n=g6 v=127
51675 Off ch=6 n=f6 v=127
51677 On ch=5 n=e6 v=127
51776 Off ch=3 n=d6 v=127
51778 Off ch=5 n=e6 v=127
51780 On ch=3 n=d6 v=127
51876 Off ch=3 n=d6 v=127
51882 On ch=7 n=f#5 v=127
51882 On ch=11 n=a5 v=127
51882 On ch=11 n=a6 v=127
51983 Off ch=11 n=a6 v=127
51985 On ch=12 n=a#6 v=127
52086 Off ch=12 n=a#6 v=127
52088 On ch=1 n=c7 v=127
52189 Off ch=1 n=c7 v=127
52189 Off ch=11 n=a5 v=127
52189 Off ch=7 n=f#5 v=127
52191 On ch=12 n=a#5 v=127
52191 On ch=8 n=g5 v=127
52191 On ch=12 n=a#6 v=127
52292 Off ch=12 n=a#6 v=127
52294 On ch=11 n=a6 v=127
52395 Off ch=11 n=a6 v=127
52397 On ch=8 n=g6 v=127
52498 Off ch=8 n=g6 v=127
52498 Off ch=8 n=g5 v=127
52498 Off ch=12 n=a#5 v=127
52500 On ch=1 n=c6 v=127
52500 On ch=11 n=a5 v=127
52500 On ch=7 n=f#6 v=127
52601 Off ch=7 n=f#6 v=127
52603 On ch=5 n=e6 v=127
52704 Off ch=5 n=e6 v=127
52706 On ch=3 n=d6 v=127
52807 Off ch=3 n=d6 v=127
52807 Off ch=11 n=a5 v=127
52807 Off ch=1 n=c6 v=127
52809 On ch=12 n=a#5 v=127
52809 On ch=3 n=d6 v=127
52809 On ch=8 n=g6 v=127
52910 Off ch=8 n=g6 v=127
52912 On ch=11 n=a6 v=127
53013 Off ch=11 n=a6 v=127
53015 On ch=12 n=a#6 v=127
53116 Off ch=12 n=a#6 v=127
53116 Off ch=3 n=d6 v=127
53116 Off ch=12 n=a#5 v=127
53118 On ch=5 n=e5 v=127
53118 On ch=8 n=g5 v=127
53118 On ch=1 n=c6 v=127
53219 Off ch=1 n=c6 v=127
53221 On ch=3 n=d6 v=127
53322 Off ch=3 n=d6 v=127
53324 On ch=5 n=e6 v=127
53425 Off ch=5 n=e6 v=127
53425 Off ch=8 n=g5 v=127
53425 Off ch=5 n=e5 v=127
53427 On ch=1 n=c6 v=127
53427 On ch=11 n=a5 v=127
53427 On ch=6 n=f6 v=127
53528 Off ch=6 n=f6 v=127
53530 On ch=8 n=g6 v=127
53631 Off ch=8 n=g6 v=127
53633 On ch=11 n=a6 v=127
53734 Off ch=11 n=a6 v=127
53734 Off ch=11 n=a5 v=127
53734 Off ch=1 n=c6 v=127
53736 On ch=6 n=f5 v=127
53736 On ch=1 n=c6 v=127
53736 On ch=11 n=a6 v=127
53837 Off ch=11 n=a6 v=127
53839 On ch=12 n=a#6 v=127
53940 Off ch=12 n=a#6 v=127
53942 On ch=1 n=c7 v=127
54043 Off ch=1 n=c7 v=127
54043 Off ch=1 n=c6 v=127
54043 Off ch=6 n=f5 v=127
54045 On ch=12 n=a#5 v=127
54045 On ch=3 n=d6 v=127
54045 On ch=12 n=a#6 v=127
54146 Off ch=12 n=a#6 v=127
54148 On ch=11 n=a6 v=127
54249 Off ch=11 n=a6 v=127
54251 On ch=8 n=g6 v=127
54352 Off ch=8 n=g6 v=127
54352 Off ch=3 n=d6 v=127
54352 Off ch=12 n=a#5 v=127
54354 On ch=12 n=a#5 v=127
54354 On ch=8 n=g5 v=127
54354 On ch=6 n=f6 v=127
54455 Off ch=6 n=f6 v=127
54457 On ch=5 n=e6 v=127
54558 Off ch=5 n=e6 v=127
54560 On ch=3 n=d6 v=127
54661 Off ch=3 n=d6 v=127
54661 Off ch=8 n=g5 v=127
54661 Off ch=12 n=a#5 v=127
54663 On ch=1 n=c6 v=127
54663 On ch=6 n=f6 v=127
54713 Off ch=6 n=f6 v=127
54715 On ch=5 n=e6 v=127
54765 Off ch=5 n=e6 v=127
54767 On ch=6 n=f6 v=127
54817 Off ch=6 n=f6 v=127
54819 On ch=5 n=e6 v=127
54973 On ch=1 n=c5 v=127
55175 Off ch=5 n=e6 v=127
55178 On ch=3 n=d6 v=127
55274 Off ch=1 n=c6 v=127
55279 Off ch=3 n=d6 v=127
55281 On ch=1 n=c6 v=127
55587 Off ch=1 n=c6 v=127
55587 Off ch=1 n=c5 v=127
55589 On ch=9 n=g#5 v=127
55589 On ch=1 n=c6 v=127
55589 On ch=6 n=f5 v=127
55589 On ch=6 n=f6 v=127
55690 Off ch=6 n=f6 v=127
55692 On ch=8 n=g6 v=127
55793 Off ch=8 n=g6 v=127
55795 On ch=9 n=g#6 v=127
55896 Off ch=9 n=g#6 v=127
55896 Off ch=6 n=f5 v=127
55896 Off ch=1 n=c6 v=127
55896 Off ch=9 n=g#5 v=127
55898 On ch=9 n=g#5 v=127
55898 On ch=1 n=c6 v=127
55898 On ch=6 n=f5 v=127
55898 On ch=1 n=c7 v=127
56204 Off ch=6 n=f5 v=127
56204 Off ch=1 n=c6 v=127
56204 Off ch=9 n=g#5 v=127
56206 On ch=9 n=g#5 v=127
56206 On ch=6 n=f5 v=127
56206 On ch=1 n=c6 v=127
56307 Off ch=1 n=c7 v=127
56309 On ch=12 n=a#6 v=127
56410 Off ch=12 n=a#6 v=127
56412 On ch=9 n=g#6 v=127
56513 Off ch=9 n=g#6 v=127
56513 Off ch=1 n=c6 v=127
56513 Off ch=6 n=f5 v=127
56513 Off ch=9 n=g#5 v=127
56515 On ch=4 n=d#5 v=127
56515 On ch=8 n=g5 v=127
56515 On ch=1 n=c6 v=127
56515 On ch=9 n=g#6 v=127
56616 Off ch=9 n=g#6 v=127
56618 On ch=8 n=g6 v=127
56719 Off ch=8 n=g6 v=127
56721 On ch=7 n=f#6 v=127
56822 Off ch=7 n=f#6 v=127
56822 Off ch=1 n=c6 v=127
56822 Off ch=8 n=g5 v=127
56822 Off ch=4 n=d#5 v=127
56824 On ch=4 n=d#5 v=127
56824 On ch=8 n=g5 v=127
56824 On ch=1 n=c6 v=127
56824 On ch=7 n=f#6 v=127
57130 Off ch=7 n=f#6 v=127
57130 Off ch=1 n=c6 v=127
57130 Off ch=8 n=g5 v=127
57130 Off ch=4 n=d#5 v=127
57132 On ch=4 n=d#5 v=127
57132 On ch=1 n=c6 v=127
57132 On ch=8 n=g5 v=127
57132 On ch=8 n=g6 v=127
57438 Off ch=8 n=g6 v=127
57438 Off ch=8 n=g5 v=127
57438 Off ch=1 n=c6 v=127
57438 Off ch=4 n=d#5 v=127
57440 On ch=1 n=c6 v=127
57440 On ch=4 n=d#5 v=127
57440 On ch=8 n=g5 v=127
57440 On ch=8 n=g6 v=127
57541 Off ch=8 n=g6 v=127
57543 On ch=9 n=g#6 v=127
57644 Off ch=9 n=g#6 v=127
57646 On ch=12 n=a#6 v=127
57747 Off ch=12 n=a#6 v=127
57747 Off ch=8 n=g5 v=127
57747 Off ch=4 n=d#5 v=127
57747 Off ch=1 n=c6 v=127
57749 On ch=1 n=c6 v=127
57749 On ch=4 n=d#5 v=127
57749 On ch=8 n=g5 v=127
57749 On ch=1 n=c7 v=127
58055 Off ch=8 n=g5 v=127
58055 Off ch=4 n=d#5 v=127
58055 Off ch=1 n=c6 v=127
58057 On ch=4 n=d#5 v=127
58057 On ch=1 n=c6 v=127
58057 On ch=8 n=g5 v=127
58158 Off ch=1 n=c7 v=127
58160 On ch=12 n=a#6 v=127
58261 Off ch=12 n=a#6 v=127
58263 On ch=9 n=g#6 v=127
58364 Off ch=9 n=g#6 v=127
58364 Off ch=8 n=g5 v=127
58364 Off ch=1 n=c6 v=127
58364 Off ch=4 n=d#5 v=127
58366 On ch=2 n=c#5 v=127
58366 On ch=1 n=c6 v=127
58366 On ch=6 n=f5 v=127
58366 On ch=8 n=g6 v=127
58467 Off ch=8 n=g6 v=127
58469 On ch=6 n=f6 v=127
58570 Off ch=6 n=f6 v=127
58572 On ch=5 n=e6 v=127
58673 Off ch=5 n=e6 v=127
58673 Off ch=6 n=f5 v=127
58673 Off ch=1 n=c6 v=127
58673 Off ch=2 n=c#5 v=127
58675 On ch=1 n=c6 v=127
58675 On ch=6 n=f5 v=127
58675 On ch=2 n=c#5 v=127
58675 On ch=5 n=e6 v=127
58981 Off ch=5 n=e6 v=127
58981 Off ch=2 n=c#5 v=127
58981 Off ch=6 n=f5 v=127
58981 Off ch=1 n=c6 v=127
58983 On ch=2 n=c#5 v=127
58983 On ch=12 n=a#5 v=127
58983 On ch=6 n=f5 v=127
58983 On ch=6 n=f6 v=127
59289 Off ch=6 n=f6 v=127
59289 Off ch=6 n=f5 v=127
59289 Off ch=12 n=a#5 v=127
59289 Off ch=2 n=c#5 v=127
59291 On ch=12 n=a#5 v=127
59291 On ch=6 n=f5 v=127
59291 On ch=2 n=c#5 v=127
59291 On ch=6 n=f6 v=127
59392 Off ch=6 n=f6 v=127
59394 On ch=8 n=g6 v=127
59495 Off ch=8 n=g6 v=127
59497 On ch=9 n=g#6 v=127
59598 Off ch=9 n=g#6 v=127
59598 Off ch=2 n=c#5 v=127
59598 Off ch=6 n=f5 v=127
59598 Off ch=12 n=a#5 v=127
59600 On ch=12 n=a#5 v=127
59600 On ch=6 n=f5 v=127
59600 On ch=2 n=c#5 v=127
59600 On ch=12 n=a#6 v=127
59650 Off ch=12 n=a#6 v=127
59652 On ch=9 n=g#6 v=127
59703 On ch=12 n=a#6 v=127
59713 Off ch=9 n=g#6 v=127
59753 Off ch=12 n=a#6 v=127
59755 On ch=9 n=g#6 v=127
59907 Off ch=2 n=c#5 v=127
59907 Off ch=6 n=f5 v=127
59907 Off ch=12 n=a#5 v=127
59909 On ch=2 n=c#5 v=127
59909 On ch=6 n=f5 v=127
59909 On ch=12 n=a#5 v=127
60010 Off ch=9 n=g#6 v=127
60012 On ch=8 n=g6 v=127
60113 Off ch=8 n=g6 v=127
60115 On ch=6 n=f6 v=127
60216 Off ch=6 n=f6 v=127
60216 Off ch=12 n=a#5 v=127
60216 Off ch=6 n=f5 v=127
60216 Off ch=2 n=c#5 v=127
60218 On ch=8 n=g5 v=127
60218 On ch=1 n=c5 v=127
60218 On ch=12 n=a#5 v=127
60218 On ch=5 n=e6 v=127
60319 Off ch=5 n=e6 v=127
60321 On ch=6 n=f6 v=127
60422 Off ch=6 n=f6 v=127
60424 On ch=8 n=g6 v=127
60525 Off ch=8 n=g6 v=127
60525 Off ch=12 n=a#5 v=127
60525 Off ch=1 n=c5 v=127
60525 Off ch=8 n=g5 v=127
60527 On ch=1 n=c5 v=127
60527 On ch=12 n=a#5 v=127
60527 On ch=8 n=g5 v=127
60527 On ch=1 n=c6 v=127
60628 Off ch=1 n=c6 v=127
60630 On ch=3 n=d6 v=127
60731 Off ch=3 n=d6 v=127
60733 On ch=5 n=e6 v=127
60834 Off ch=5 n=e6 v=127
60834 Off ch=8 n=g5 v=127
60834 Off ch=12 n=a#5 v=127
60834 Off ch=1 n=c5 v=127
60836 On ch=6 n=f5 v=127
60836 On ch=1 n=c5 v=127
60836 On ch=11 n=a5 v=127
60836 On ch=6 n=f6 v=127
60937 Off ch=6 n=f6 v=127
60939 On ch=8 n=g6 v=127
61040 Off ch=8 n=g6 v=127
61042 On ch=11 n=a6 v=127
61143 Off ch=11 n=a6 v=127
61143 Off ch=11 n=a5 v=127
61143 Off ch=1 n=c5 v=127
61143 Off ch=6 n=f5 v=127
61145 On ch=8 n=g5 v=127
61145 On ch=1 n=c5 v=127
61145 On ch=12 n=a#5 v=127
61145 On ch=12 n=a#6 v=127
61246 Off ch=12 n=a#6 v=127
61248 On ch=11 n=a6 v=127
61349 Off ch=11 n=a6 v=127
61351 On ch=8 n=g6 v=127
61452 Off ch=8 n=g6 v=127
61452 Off ch=12 n=a#5 v=127
61452 Off ch=1 n=c5 v=127
61452 Off ch=8 n=g5 v=127
61454 On ch=8 n=g5 v=127
61454 On ch=1 n=c5 v=127
61454 On ch=12 n=a#5 v=127
61454 On ch=1 n=c6 v=127
61555 Off ch=1 n=c6 v=127
61557 On ch=3 n=d6 v=127
61658 Off ch=3 n=d6 v=127
61660 On ch=5 n=e6 v=127
61761 Off ch=5 n=e6 v=127
61761 Off ch=12 n=a#5 v=127
61761 Off ch=1 n=c5 v=127
61761 Off ch=8 n=g5 v=127
61763 On ch=6 n=f5 v=127
61763 On ch=11 n=a5 v=127
61763 On ch=1 n=c5 v=127
61763 On ch=6 n=f6 v=127
61864 Off ch=6 n=f6 v=127
61866 On ch=8 n=g6 v=127
61967 Off ch=8 n=g6 v=127
61969 On ch=11 n=a6 v=127
62070 Off ch=11 n=a6 v=127
62070 Off ch=1 n=c5 v=127
62070 Off ch=11 n=a5 v=127
62070 Off ch=6 n=f5 v=127
62072 On ch=8 n=g5 v=127
62072 On ch=1 n=c5 v=127
62072 On ch=12 n=a#5 v=127
62072 On ch=12 n=a#6 v=127
62173 Off ch=12 n=a#6 v=127
62175 On ch=11 n=a6 v=127
62276 Off ch=11 n=a6 v=127
62278 On ch=8 n=g6 v=127
62379 Off ch=8 n=g6 v=127
62379 Off ch=12 n=a#5 v=127
62379 Off ch=1 n=c5 v=127
62379 Off ch=8 n=g5 v=127
62381 On ch=12 n=a#5 v=127
62381 On ch=1 n=c5 v=127
62381 On ch=8 n=g5 v=127
62381 On ch=1 n=c6 v=127
62482 Off ch=1 n=c6 v=127
62484 On ch=3 n=d6 v=127
62585 Off ch=3 n=d6 v=127
62587 On ch=5 n=e6 v=127
62688 Off ch=5 n=e6 v=127
62688 Off ch=8 n=g5 v=127
62688 Off ch=1 n=c5 v=127
62688 Off ch=12 n=a#5 v=127
62690 On ch=6 n=f5 v=127
62690 On ch=11 n=a5 v=127
62690 On ch=1 n=c5 v=127
62690 On ch=6 n=f6 v=127
62791 Off ch=6 n=f6 v=127
62793 On ch=8 n=g6 v=127
62894 Off ch=8 n=g6 v=127
62896 On ch=11 n=a6 v=127
62997 Off ch=11 n=a6 v=127
62997 Off ch=1 n=c5 v=127
62997 Off ch=11 n=a5 v=127
62997 Off ch=6 n=f5 v=127
62999 On ch=1 n=c5 v=127
62999 On ch=12 n=a#5 v=127
62999 On ch=8 n=g5 v=127
62999 On ch=12 n=a#6 v=127
63100 Off ch=12 n=a#6 v=127
63102 On ch=8 n=g6 v=127
63203 Off ch=8 n=g6 v=127
63205 On ch=12 n=a#6 v=127
63306 Off ch=12 n=a#6 v=127
63306 Off ch=8 n=g5 v=127
63306 Off ch=12 n=a#5 v=127
63306 Off ch=1 n=c5 v=127
63308 On ch=6 n=f5 v=127
63308 On ch=1 n=c5 v=127
63308 On ch=11 n=a5 v=127
63308 On ch=11 n=a6 v=127
63409 Off ch=11 n=a6 v=127
63411 On ch=6 n=f6 v=127
63512 Off ch=6 n=f6 v=127
63514 On ch=11 n=a6 v=127
63615 Off ch=11 n=a6 v=127
63615 Off ch=11 n=a5 v=127
63615 Off ch=1 n=c5 v=127
63615 Off ch=6 n=f5 v=127
63617 On ch=1 n=c5 v=127
63617 On ch=8 n=g5 v=127
63617 On ch=8 n=g6 v=127
63718 Off ch=8 n=g6 v=127
63720 On ch=5 n=e6 v=127
63821 Off ch=5 n=e6 v=127
63823 On ch=8 n=g6 v=127
63924 Off ch=8 n=g6 v=127
63924 Off ch=8 n=g5 v=127
63924 Off ch=1 n=c5 v=127
63926 On ch=3 n=d5 v=127
63926 On ch=6 n=f6 v=127
64027 Off ch=6 n=f6 v=127
64029 On ch=5 n=e6 v=127
64130 Off ch=5 n=e6 v=127
64132 On ch=3 n=d6 v=127
64233 Off ch=3 n=d6 v=127
64233 Off ch=3 n=d5 v=127
64235 On ch=5 n=e5 v=127
64235 On ch=12 n=a#5 v=127
64336 Off ch=12 n=a#5 v=127
64338 On ch=11 n=a5 v=127
64439 Off ch=11 n=a5 v=127
64441 On ch=8 n=g5 v=127
64542 Off ch=8 n=g5 v=127
64542 Off ch=5 n=e5 v=127
64544 On ch=6 n=f5 v=127
64544 On ch=11 n=a5 v=127
64645 Off ch=11 n=a5 v=127
64647 On ch=12 n=a#5 v=127
64748 Off ch=12 n=a#5 v=127
64750 On ch=1 n=c6 v=127
64851 Off ch=1 n=c6 v=127
64851 Off ch=6 n=f5 v=127
64853 On ch=12 n=a#4 v=127
64853 On ch=3 n=d6 v=127
64954 Off ch=3 n=d6 v=127
64956 On ch=1 n=c6 v=127
65057 Off ch=1 n=c6 v=127
65059 On ch=12 n=a#5 v=127
65160 Off ch=12 n=a#5 v=127
65160 Off ch=12 n=a#4 v=127
65162 On ch=1 n=c5 v=127
65162 On ch=11 n=a5 v=127
65263 Off ch=11 n=a5 v=127
65265 On ch=8 n=g5 v=127
65366 Off ch=8 n=g5 v=127
65368 On ch=6 n=f5 v=127
65469 Off ch=6 n=f5 v=127
65471 On ch=1 n=c4 v=127
65471 On ch=8 n=g5 v=127
65572 Off ch=8 n=g5 v=127
65574 On ch=6 n=f5 v=127
65675 Off ch=6 n=f5 v=127
65677 On ch=5 n=e5 v=127
65778 Off ch=5 n=e5 v=127
65778 Off ch=1 n=c4 v=127
65778 Off ch=1 n=c5 v=127
65780 On ch=6 n=f5 v=127
65780 On ch=6 n=f6 v=127
65881 Off ch=6 n=f6 v=127
65883 On ch=5 n=e6 v=127
65984 Off ch=5 n=e6 v=127
65986 On ch=3 n=d6 v=127
66087 Off ch=3 n=d6 v=127
66087 Off ch=6 n=f5 v=127
66089 On ch=6 n=f5 v=127
66089 On ch=1 n=c6 v=127
66190 Off ch=1 n=c6 v=127
66192 On ch=12 n=a#5 v=127
66293 Off ch=12 n=a#5 v=127
66295 On ch=11 n=a5 v=127
66396 Off ch=11 n=a5 v=127
66396 Off ch=6 n=f5 v=127
66398 On ch=6 n=f4 v=127
66398 On ch=8 n=g5 v=127
66499 Off ch=8 n=g5 v=127
66501 On ch=6 n=f5 v=127
66602 Off ch=6 n=f5 v=127
66604 On ch=5 n=e5 v=127
66705 Off ch=5 n=e5 v=127
66705 Off ch=6 n=f4 v=127
66707 On ch=6 n=f4 v=127
66707 On ch=6 n=f5 v=127
66808 Off ch=6 n=f5 v=127
66810 On ch=5 n=e5 v=127
66911 Off ch=5 n=e5 v=127
66913 On ch=3 n=d5 v=127
67014 Off ch=3 n=d5 v=127
67014 Off ch=6 n=f4 v=127
67016 On ch=6 n=f4 v=127
67016 On ch=1 n=c5 v=127
67117 Off ch=1 n=c5 v=127
67119 On ch=12 n=a#4 v=127
67220 Off ch=12 n=a#4 v=127
67222 On ch=11 n=a4 v=127
67323 Off ch=11 n=a4 v=127
67323 Off ch=6 n=f4 v=127
67325 On ch=6 n=f3 v=127
67325 On ch=8 n=g4 v=127
67426 Off ch=8 n=g4 v=127
67428 On ch=6 n=f4 v=127
67529 Off ch=6 n=f4 v=127
67531 On ch=5 n=e4 v=127
67632 Off ch=5 n=e4 v=127
67632 Off ch=6 n=f3 v=127
67634 On ch=6 n=f3 v=127
67634 On ch=6 n=f4 v=127
67735 Off ch=6 n=f4 v=127
67737 On ch=5 n=e4 v=127
67838 Off ch=5 n=e4 v=127
67840 On ch=3 n=d4 v=127
67941 Off ch=3 n=d4 v=127
67941 Off ch=6 n=f3 v=127
67943 On ch=6 n=f3 v=127
67943 On ch=1 n=c4 v=127
68044 Off ch=1 n=c4 v=127
68046 On ch=12 n=a#3 v=127
68147 Off ch=12 n=a#3 v=127
68149 On ch=11 n=a3 v=127
68250 Off ch=11 n=a3 v=127
68250 Off ch=6 n=f3 v=127
68252 On ch=8 n=g3 v=127
68353 Off ch=8 n=g3 v=127
68355 On ch=6 n=f3 v=127
68456 Off ch=6 n=f3 v=127
68458 On ch=5 n=e3 v=127
68559 Off ch=5 n=e3 v=127
68561 On ch=8 n=g3 v=127
68611 Off ch=8 n=g3 v=127
68613 On ch=6 n=f3 v=127
68663 Off ch=6 n=f3 v=127
68665 On ch=8 n=g3 v=127
68715 Off ch=8 n=g3 v=127
68717 On ch=6 n=f3 v=127
70418 Off ch=6 n=f3 v=127
75264 Meta TrkEnd
TrkEnd
