MFile 0 1 384
MTrk
0 Meta Copyright "(C) John Sankey 1998"
0 PrCh ch=1 p=6
0 Pb ch=1 v=8192
0 PrCh ch=2 p=6
0 Pb ch=2 v=7602
0 PrCh ch=3 p=6
0 Pb ch=3 v=7920
0 PrCh ch=4 p=6
0 Pb ch=4 v=7839
0 PrCh ch=5 p=6
0 Pb ch=5 v=7632
0 PrCh ch=6 p=6
0 Pb ch=6 v=8112
0 PrCh ch=7 p=6
0 Pb ch=7 v=7567
0 PrCh ch=8 p=6
0 Pb ch=8 v=8062
0 PrCh ch=9 p=6
0 Pb ch=9 v=7680
0 PrCh ch=11 p=6
0 Pb ch=11 v=7728
0 PrCh ch=12 p=6
0 Pb ch=12 v=7984
0 PrCh ch=13 p=6
0 Pb ch=13 v=7639
0 Tempo 500000
121 On ch=11 n=a5 v=127
364 On ch=11 n=a6 v=127
601 Off ch=11 n=a5 v=127
605 Off ch=11 n=a6 v=127
606 On ch=5 n=e6 v=127
847 Off ch=5 n=e6 v=127
848 On ch=11 n=a4 v=127
848 On ch=3 n=d6 v=127
909 On ch=1 n=c6 v=127
928 Off ch=3 n=d6 v=127
970 On ch=3 n=d6 v=127
989 Off ch=1 n=c6 v=127
1031 On ch=1 n=c6 v=127
1050 Off ch=3 n=d6 v=127
1092 On ch=11 n=a5 v=127
1092 On ch=3 n=d6 v=127
1111 Off ch=1 n=c6 v=127
1153 On ch=1 n=c6 v=127
1172 Off ch=3 n=d6 v=127
1214 On ch=3 n=d6 v=127
1233 Off ch=1 n=c6 v=127
1275 On ch=1 n=c6 v=127
1294 Off ch=3 n=d6 v=127
1331 Off ch=11 n=a4 v=127
1335 Off ch=1 n=c6 v=127
1335 Off ch=11 n=a5 v=127
1336 On ch=13 n=b5 v=127
1336 On ch=5 n=e5 v=127
1500 Off ch=13 n=b5 v=127
1577 Off ch=5 n=e5 v=127
1578 On ch=11 n=a5 v=127
1578 On ch=3 n=d5 v=127
1639 On ch=1 n=c5 v=127
1658 Off ch=3 n=d5 v=127
1700 On ch=3 n=d5 v=127
1719 Off ch=1 n=c5 v=127
1761 On ch=1 n=c5 v=127
1780 Off ch=3 n=d5 v=127
1820 Off ch=11 n=a5 v=127
1821 On ch=5 n=e5 v=127
1821 On ch=3 n=d5 v=127
1840 Off ch=1 n=c5 v=127
1882 On ch=1 n=c5 v=127
1901 Off ch=3 n=d5 v=127
1943 On ch=3 n=d5 v=127
1962 Off ch=1 n=c5 v=127
2004 On ch=1 n=c5 v=127
2023 Off ch=3 n=d5 v=127
2063 Off ch=1 n=c5 v=127
2063 Off ch=5 n=e5 v=127
2064 On ch=9 n=g#5 v=127
2064 On ch=3 n=d6 v=127
2064 On ch=13 n=b4 v=127
2305 Off ch=13 n=b4 v=127
2305 Off ch=3 n=d6 v=127
2305 Off ch=9 n=g#5 v=127
2306 On ch=11 n=a4 v=127
2306 On ch=11 n=a5 v=127
2306 On ch=3 n=d6 v=127
2367 On ch=1 n=c6 v=127
2386 Off ch=3 n=d6 v=127
2428 On ch=3 n=d6 v=127
2447 Off ch=1 n=c6 v=127
2489 On ch=1 n=c6 v=127
2508 Off ch=3 n=d6 v=127
2550 On ch=5 n=e4 v=127
2550 On ch=3 n=d6 v=127
2569 Off ch=1 n=c6 v=127
2609 Off ch=11 n=a4 v=127
2610 On ch=1 n=c6 v=127
2629 Off ch=3 n=d6 v=127
2671 On ch=3 n=d6 v=127
2690 Off ch=1 n=c6 v=127
2732 On ch=1 n=c6 v=127
2751 Off ch=3 n=d6 v=127
2791 Off ch=1 n=c6 v=127
2791 Off ch=5 n=e4 v=127
2791 Off ch=11 n=a5 v=127
2792 On ch=6 n=f5 v=127
2792 On ch=13 n=b5 v=127
2792 On ch=3 n=d5 v=127
2956 Off ch=13 n=b5 v=127
3033 Off ch=3 n=d5 v=127
3033 Off ch=6 n=f5 v=127
3034 On ch=3 n=d5 v=127
3034 On ch=11 n=a5 v=127
3095 On ch=1 n=c5 v=127
3114 Off ch=3 n=d5 v=127
3156 On ch=3 n=d5 v=127
3175 Off ch=1 n=c5 v=127
3217 On ch=1 n=c5 v=127
3236 Off ch=3 n=d5 v=127
3276 Off ch=11 n=a5 v=127
3277 On ch=5 n=e5 v=127
3277 On ch=3 n=d5 v=127
3296 Off ch=1 n=c5 v=127
3338 On ch=1 n=c5 v=127
3357 Off ch=3 n=d5 v=127
3399 On ch=3 n=d5 v=127
3418 Off ch=1 n=c5 v=127
3460 On ch=1 n=c5 v=127
3479 Off ch=3 n=d5 v=127
3519 Off ch=1 n=c5 v=127
3519 Off ch=5 n=e5 v=127
3520 On ch=9 n=g#5 v=127
3520 On ch=3 n=d6 v=127
3520 On ch=13 n=b4 v=127
3761 Off ch=13 n=b4 v=127
3761 Off ch=3 n=d6 v=127
3761 Off ch=9 n=g#5 v=127
3762 On ch=11 n=a4 v=127
3762 On ch=11 n=a5 v=127
3762 On ch=3 n=d6 v=127
3823 On ch=1 n=c6 v=127
3842 Off ch=3 n=d6 v=127
3884 On ch=3 n=d6 v=127
3903 Off ch=1 n=c6 v=127
3945 On ch=1 n=c6 v=127
3964 Off ch=3 n=d6 v=127
4006 On ch=5 n=e4 v=127
4006 On ch=3 n=d6 v=127
4025 Off ch=1 n=c6 v=127
4065 Off ch=11 n=a4 v=127
4066 On ch=1 n=c6 v=127
4085 Off ch=3 n=d6 v=127
4127 On ch=3 n=d6 v=127
4146 Off ch=1 n=c6 v=127
4186 Off ch=3 n=d6 v=127
4187 On ch=1 n=c6 v=127
4246 Off ch=5 n=e4 v=127
4246 Off ch=11 n=a5 v=127
4247 On ch=13 n=b5 v=127
4247 On ch=6 n=f5 v=127
4247 On ch=3 n=d5 v=127
4266 Off ch=1 n=c6 v=127
4449 Off ch=13 n=b5 v=127
4488 Off ch=3 n=d5 v=127
4488 Off ch=6 n=f5 v=127
4489 On ch=1 n=c5 v=127
4489 On ch=11 n=a5 v=127
4489 On ch=5 n=e5 v=127
4730 Off ch=11 n=a5 v=127
4730 Off ch=1 n=c5 v=127
4731 On ch=3 n=d4 v=127
4731 On ch=1 n=c6 v=127
4792 On ch=13 n=b5 v=127
4811 Off ch=1 n=c6 v=127
4853 On ch=1 n=c6 v=127
4872 Off ch=13 n=b5 v=127
4914 On ch=13 n=b5 v=127
4933 Off ch=1 n=c6 v=127
4973 Off ch=3 n=d4 v=127
4973 Off ch=5 n=e5 v=127
4974 On ch=1 n=c6 v=127
4974 On ch=5 n=e4 v=127
4974 On ch=13 n=b4 v=127
4993 Off ch=13 n=b5 v=127
5035 On ch=13 n=b5 v=127
5054 Off ch=1 n=c6 v=127
5096 On ch=11 n=a5 v=127
5115 Off ch=13 n=b5 v=127
5157 On ch=13 n=b5 v=127
5176 Off ch=11 n=a5 v=127
5215 Off ch=13 n=b4 v=127
5216 Off ch=5 n=e4 v=127
5217 On ch=1 n=c6 v=127
5217 On ch=11 n=a4 v=127
5217 On ch=11 n=a3 v=127
5236 Off ch=13 n=b5 v=127
5458 Off ch=1 n=c6 v=127
5459 On ch=13 n=b5 v=127
5579 Off ch=13 n=b5 v=127
5580 On ch=1 n=c6 v=127
5700 Off ch=1 n=c6 v=127
5700 Off ch=11 n=a3 v=127
5700 Off ch=11 n=a4 v=127
5701 On ch=11 n=a5 v=127
5903 Off ch=11 n=a5 v=127
5943 On ch=11 n=a6 v=127
5943 On ch=1 n=c6 v=127
6063 Off ch=1 n=c6 v=127
6064 On ch=5 n=e6 v=127
6184 Off ch=5 n=e6 v=127
6184 Off ch=11 n=a6 v=127
6185 On ch=1 n=c6 v=127
6185 On ch=1 n=c7 v=127
6305 Off ch=1 n=c6 v=127
6306 On ch=11 n=a5 v=127
6426 Off ch=11 n=a5 v=127
6426 Off ch=1 n=c7 v=127
6427 On ch=1 n=c6 v=127
6427 On ch=11 n=a6 v=127
6547 Off ch=1 n=c6 v=127
6548 On ch=5 n=e6 v=127
6668 Off ch=5 n=e6 v=127
6668 Off ch=11 n=a6 v=127
6669 On ch=4 n=d#6 v=127
6669 On ch=11 n=a6 v=127
6910 Off ch=11 n=a6 v=127
6910 Off ch=4 n=d#6 v=127
6911 On ch=9 n=g#6 v=127
6911 On ch=5 n=e6 v=127
7031 Off ch=5 n=e6 v=127
7031 Off ch=9 n=g#6 v=127
7032 On ch=4 n=d#6 v=127
7032 On ch=7 n=f#6 v=127
7152 Off ch=7 n=f#6 v=127
7152 Off ch=4 n=d#6 v=127
7153 On ch=5 n=e6 v=127
7153 On ch=9 n=g#6 v=127
7368 Off ch=9 n=g#6 v=127
7395 Off ch=5 n=e6 v=127
7396 On ch=13 n=b5 v=127
7396 On ch=8 n=g6 v=127
7516 Off ch=13 n=b5 v=127
7517 On ch=3 n=d6 v=127
7637 Off ch=3 n=d6 v=127
7637 Off ch=8 n=g6 v=127
7638 On ch=13 n=b6 v=127
7638 On ch=13 n=b5 v=127
7758 Off ch=13 n=b5 v=127
7759 On ch=8 n=g5 v=127
7879 Off ch=8 n=g5 v=127
7879 Off ch=13 n=b6 v=127
7880 On ch=13 n=b5 v=127
7880 On ch=8 n=g6 v=127
8000 Off ch=13 n=b5 v=127
8001 On ch=3 n=d6 v=127
8121 Off ch=3 n=d6 v=127
8121 Off ch=8 n=g6 v=127
8122 On ch=2 n=c#6 v=127
8122 On ch=8 n=g6 v=127
8363 Off ch=8 n=g6 v=127
8363 Off ch=2 n=c#6 v=127
8364 On ch=6 n=f6 v=127
8364 On ch=3 n=d6 v=127
8484 Off ch=3 n=d6 v=127
8484 Off ch=6 n=f6 v=127
8485 On ch=5 n=e6 v=127
8485 On ch=2 n=c#6 v=127
8605 Off ch=2 n=c#6 v=127
8605 Off ch=5 n=e6 v=127
8606 On ch=6 n=f6 v=127
8606 On ch=3 n=d6 v=127
8833 Off ch=6 n=f6 v=127
8847 Off ch=3 n=d6 v=127
8848 On ch=6 n=f6 v=127
8848 On ch=11 n=a5 v=127
8968 Off ch=11 n=a5 v=127
8969 On ch=1 n=c6 v=127
9089 Off ch=1 n=c6 v=127
9089 Off ch=6 n=f6 v=127
9090 On ch=11 n=a5 v=127
9090 On ch=11 n=a6 v=127
9210 Off ch=11 n=a5 v=127
9211 On ch=6 n=f5 v=127
9331 Off ch=6 n=f5 v=127
9331 Off ch=11 n=a6 v=127
9332 On ch=11 n=a5 v=127
9332 On ch=6 n=f6 v=127
9452 Off ch=11 n=a5 v=127
9453 On ch=1 n=c6 v=127
9573 Off ch=1 n=c6 v=127
9573 Off ch=6 n=f6 v=127
9574 On ch=13 n=b5 v=127
9574 On ch=6 n=f6 v=127
9815 Off ch=6 n=f6 v=127
9815 Off ch=13 n=b5 v=127
9816 On ch=1 n=c6 v=127
9816 On ch=5 n=e6 v=127
9936 Off ch=5 n=e6 v=127
9936 Off ch=1 n=c6 v=127
9937 On ch=13 n=b5 v=127
9937 On ch=3 n=d6 v=127
10057 Off ch=3 n=d6 v=127
10057 Off ch=13 n=b5 v=127
10058 On ch=1 n=c6 v=127
10058 On ch=5 n=e6 v=127
10290 Off ch=5 n=e6 v=127
10290 Off ch=1 n=c6 v=127
10300 On ch=1 n=c6 v=127
10300 On ch=4 n=d#6 v=127
10420 Off ch=1 n=c6 v=127
10421 On ch=8 n=g5 v=127
10541 Off ch=8 n=g5 v=127
10541 Off ch=4 n=d#6 v=127
10542 On ch=7 n=f#5 v=127
10542 On ch=3 n=d6 v=127
10662 Off ch=7 n=f#5 v=127
10663 On ch=11 n=a5 v=127
10783 Off ch=11 n=a5 v=127
10783 Off ch=3 n=d6 v=127
10784 On ch=8 n=g5 v=127
10784 On ch=1 n=c6 v=127
10904 Off ch=8 n=g5 v=127
10905 On ch=7 n=f#5 v=127
11005 Off ch=1 n=c6 v=127
11025 Off ch=7 n=f#5 v=127
11026 On ch=8 n=g5 v=127
11026 On ch=13 n=b5 v=127
11146 Off ch=13 n=b5 v=127
11147 On ch=8 n=g6 v=127
11267 Off ch=8 n=g6 v=127
11267 Off ch=8 n=g5 v=127
11268 On ch=7 n=f#6 v=127
11268 On ch=13 n=b5 v=127
11388 Off ch=7 n=f#6 v=127
11389 On ch=8 n=g6 v=127
11509 Off ch=8 n=g6 v=127
11509 Off ch=13 n=b5 v=127
11510 On ch=7 n=f#6 v=127
11510 On ch=8 n=g5 v=127
11630 Off ch=7 n=f#6 v=127
11631 On ch=8 n=g6 v=127
11745 Off ch=8 n=g6 v=127
11751 Off ch=8 n=g5 v=127
11752 On ch=4 n=d#6 v=127
11752 On ch=1 n=c6 v=127
11872 Off ch=1 n=c6 v=127
11873 On ch=8 n=g5 v=127
11993 Off ch=8 n=g5 v=127
11993 Off ch=4 n=d#6 v=127
11994 On ch=7 n=f#5 v=127
11994 On ch=3 n=d6 v=127
12114 Off ch=7 n=f#5 v=127
12115 On ch=11 n=a5 v=127
12235 Off ch=11 n=a5 v=127
12235 Off ch=3 n=d6 v=127
12236 On ch=8 n=g5 v=127
12236 On ch=1 n=c6 v=127
12356 Off ch=8 n=g5 v=127
12357 On ch=7 n=f#5 v=127
12457 Off ch=1 n=c6 v=127
12477 Off ch=7 n=f#5 v=127
12478 On ch=13 n=b5 v=127
12478 On ch=8 n=g5 v=127
12598 Off ch=13 n=b5 v=127
12599 On ch=8 n=g6 v=127
12719 Off ch=8 n=g6 v=127
12719 Off ch=8 n=g5 v=127
12720 On ch=7 n=f#6 v=127
12720 On ch=13 n=b5 v=127
12840 Off ch=7 n=f#6 v=127
12841 On ch=8 n=g6 v=127
12961 Off ch=8 n=g6 v=127
12961 Off ch=13 n=b5 v=127
12962 On ch=7 n=f#6 v=127
12962 On ch=8 n=g5 v=127
13082 Off ch=7 n=f#6 v=127
13083 On ch=8 n=g6 v=127
13176 Off ch=8 n=g5 v=127
13190 Off ch=8 n=g6 v=127
13204 On ch=4 n=d#6 v=127
13204 On ch=1 n=c6 v=127
13324 Off ch=1 n=c6 v=127
13325 On ch=8 n=g5 v=127
13445 Off ch=8 n=g5 v=127
13445 Off ch=4 n=d#6 v=127
13446 On ch=7 n=f#5 v=127
13446 On ch=3 n=d6 v=127
13566 Off ch=7 n=f#5 v=127
13567 On ch=11 n=a5 v=127
13687 Off ch=11 n=a5 v=127
13687 Off ch=3 n=d6 v=127
13688 On ch=8 n=g5 v=127
13688 On ch=1 n=c6 v=127
13808 Off ch=8 n=g5 v=127
13809 On ch=7 n=f#5 v=127
13929 Off ch=7 n=f#5 v=127
13929 Off ch=1 n=c6 v=127
13930 On ch=8 n=g5 v=127
13930 On ch=13 n=b5 v=127
14050 Off ch=8 n=g5 v=127
14051 On ch=9 n=g#5 v=127
14171 Off ch=9 n=g#5 v=127
14171 Off ch=13 n=b5 v=127
14172 On ch=8 n=g5 v=127
14172 On ch=1 n=c6 v=127
14292 Off ch=8 n=g5 v=127
14293 On ch=6 n=f5 v=127
14413 Off ch=6 n=f5 v=127
14413 Off ch=1 n=c6 v=127
14414 On ch=4 n=d#5 v=127
14414 On ch=3 n=d6 v=127
14534 Off ch=4 n=d#5 v=127
14535 On ch=3 n=d5 v=127
14628 Off ch=3 n=d6 v=127
14655 Off ch=3 n=d5 v=127
14656 On ch=1 n=c5 v=127
14656 On ch=4 n=d#6 v=127
14776 Off ch=4 n=d#6 v=127
14777 On ch=8 n=g6 v=127
14897 Off ch=8 n=g6 v=127
14897 Off ch=1 n=c5 v=127
14898 On ch=4 n=d#5 v=127
14898 On ch=6 n=f6 v=127
15018 Off ch=6 n=f6 v=127
15019 On ch=4 n=d#6 v=127
15139 Off ch=4 n=d#6 v=127
15139 Off ch=4 n=d#5 v=127
15140 On ch=6 n=f5 v=127
15140 On ch=3 n=d6 v=127
15260 Off ch=3 n=d6 v=127
15261 On ch=1 n=c6 v=127
15381 Off ch=1 n=c6 v=127
15381 Off ch=6 n=f5 v=127
15382 On ch=8 n=g5 v=127
15382 On ch=13 n=b5 v=127
15502 Off ch=8 n=g5 v=127
15503 On ch=9 n=g#5 v=127
15623 Off ch=9 n=g#5 v=127
15623 Off ch=13 n=b5 v=127
15624 On ch=8 n=g5 v=127
15624 On ch=1 n=c6 v=127
15744 Off ch=8 n=g5 v=127
15745 On ch=6 n=f5 v=127
15865 Off ch=6 n=f5 v=127
15865 Off ch=1 n=c6 v=127
15866 On ch=4 n=d#5 v=127
15866 On ch=3 n=d6 v=127
15986 Off ch=4 n=d#5 v=127
15987 On ch=3 n=d5 v=127
16080 Off ch=3 n=d6 v=127
16107 Off ch=3 n=d5 v=127
16108 On ch=1 n=c5 v=127
16108 On ch=4 n=d#6 v=127
16228 Off ch=4 n=d#6 v=127
16229 On ch=8 n=g6 v=127
16349 Off ch=8 n=g6 v=127
16349 Off ch=1 n=c5 v=127
16350 On ch=4 n=d#5 v=127
16350 On ch=6 n=f6 v=127
16470 Off ch=6 n=f6 v=127
16471 On ch=4 n=d#6 v=127
16591 Off ch=4 n=d#6 v=127
16591 Off ch=4 n=d#5 v=127
16592 On ch=3 n=d6 v=127
16592 On ch=6 n=f5 v=127
16712 Off ch=3 n=d6 v=127
16713 On ch=1 n=c6 v=127
16833 Off ch=1 n=c6 v=127
16833 Off ch=6 n=f5 v=127
16834 On ch=8 n=g5 v=127
16834 On ch=13 n=b5 v=127
16954 Off ch=8 n=g5 v=127
16955 On ch=9 n=g#5 v=127
17075 Off ch=9 n=g#5 v=127
17076 On ch=8 n=g5 v=127
17196 Off ch=8 n=g5 v=127
17196 Off ch=13 n=b5 v=127
17197 On ch=6 n=f5 v=127
17197 On ch=3 n=d6 v=127
17317 Off ch=3 n=d6 v=127
17317 Off ch=6 n=f5 v=127
17318 On ch=4 n=d#5 v=127
17318 On ch=1 n=c6 v=127
17438 Off ch=1 n=c6 v=127
17438 Off ch=4 n=d#5 v=127
17439 On ch=3 n=d5 v=127
17439 On ch=13 n=b5 v=127
17559 Off ch=13 n=b5 v=127
17559 Off ch=3 n=d5 v=127
17560 On ch=6 n=f5 v=127
17560 On ch=3 n=d6 v=127
17621 On ch=1 n=c6 v=127
17621 On ch=4 n=d#5 v=127
17640 Off ch=3 n=d6 v=127
17640 Off ch=6 n=f5 v=127
17682 On ch=6 n=f5 v=127
17682 On ch=3 n=d6 v=127
17701 Off ch=4 n=d#5 v=127
17701 Off ch=1 n=c6 v=127
17743 On ch=1 n=c6 v=127
17743 On ch=4 n=d#5 v=127
17762 Off ch=3 n=d6 v=127
17762 Off ch=6 n=f5 v=127
17804 On ch=13 n=b5 v=127
17804 On ch=3 n=d5 v=127
17823 Off ch=4 n=d#5 v=127
17823 Off ch=1 n=c6 v=127
18045 Off ch=3 n=d5 v=127
18045 Off ch=13 n=b5 v=127
18046 On ch=1 n=c6 v=127
18046 On ch=4 n=d#5 v=127
18287 Off ch=4 n=d#5 v=127
18287 Off ch=1 n=c6 v=127
18288 On ch=13 n=b5 v=127
18288 On ch=3 n=d5 v=127
18529 Off ch=3 n=d5 v=127
18529 Off ch=13 n=b5 v=127
18530 On ch=4 n=d#5 v=127
18530 On ch=1 n=c6 v=127
18650 Off ch=1 n=c6 v=127
18650 Off ch=4 n=d#5 v=127
18651 On ch=3 n=d6 v=127
18651 On ch=6 n=f5 v=127
18771 Off ch=6 n=f5 v=127
18771 Off ch=3 n=d6 v=127
18772 On ch=4 n=d#6 v=127
18772 On ch=8 n=g5 v=127
18892 Off ch=8 n=g5 v=127
18892 Off ch=4 n=d#6 v=127
18893 On ch=9 n=g#5 v=127
18893 On ch=6 n=f6 v=127
19013 Off ch=6 n=f6 v=127
19013 Off ch=9 n=g#5 v=127
19014 On ch=6 n=f6 v=127
19014 On ch=9 n=g#5 v=127
19075 On ch=4 n=d#6 v=127
19075 On ch=8 n=g5 v=127
19094 Off ch=9 n=g#5 v=127
19094 Off ch=6 n=f6 v=127
19136 On ch=9 n=g#5 v=127
19136 On ch=6 n=f6 v=127
19155 Off ch=8 n=g5 v=127
19155 Off ch=4 n=d#6 v=127
19197 On ch=4 n=d#6 v=127
19197 On ch=8 n=g5 v=127
19216 Off ch=6 n=f6 v=127
19216 Off ch=9 n=g#5 v=127
19258 On ch=6 n=f5 v=127
19258 On ch=3 n=d6 v=127
19277 Off ch=8 n=g5 v=127
19277 Off ch=4 n=d#6 v=127
19499 Off ch=3 n=d6 v=127
19499 Off ch=6 n=f5 v=127
19500 On ch=4 n=d#5 v=127
19500 On ch=1 n=c6 v=127
19741 Off ch=1 n=c6 v=127
19741 Off ch=4 n=d#5 v=127
19742 On ch=3 n=d5 v=127
19742 On ch=13 n=b5 v=127
19983 Off ch=13 n=b5 v=127
19983 Off ch=3 n=d5 v=127
19984 On ch=6 n=f5 v=127
19984 On ch=3 n=d6 v=127
20064 Off ch=3 n=d6 v=127
20064 Off ch=6 n=f5 v=127
20065 On ch=4 n=d#5 v=127
20065 On ch=1 n=c6 v=127
20145 Off ch=1 n=c6 v=127
20145 Off ch=4 n=d#5 v=127
20146 On ch=3 n=d5 v=127
20146 On ch=13 n=b5 v=127
20226 Off ch=13 n=b5 v=127
20226 Off ch=3 n=d5 v=127
20227 On ch=1 n=c6 v=127
20227 On ch=4 n=d#5 v=127
20468 Off ch=4 n=d#5 v=127
20468 Off ch=1 n=c6 v=127
20469 On ch=1 n=c6 v=127
20469 On ch=4 n=d#5 v=127
20530 On ch=3 n=d5 v=127
20530 On ch=13 n=b5 v=127
20549 Off ch=4 n=d#5 v=127
20549 Off ch=1 n=c6 v=127
20591 On ch=1 n=c6 v=127
20591 On ch=4 n=d#5 v=127
20610 Off ch=13 n=b5 v=127
20610 Off ch=3 n=d5 v=127
20652 On ch=13 n=b5 v=127
20652 On ch=3 n=d5 v=127
20671 Off ch=4 n=d#5 v=127
20671 Off ch=1 n=c6 v=127
20713 On ch=4 n=d#5 v=127
20713 On ch=1 n=c6 v=127
20732 Off ch=3 n=d5 v=127
20732 Off ch=13 n=b5 v=127
20833 Off ch=1 n=c6 v=127
20833 Off ch=4 n=d#5 v=127
20834 On ch=6 n=f5 v=127
20834 On ch=3 n=d6 v=127
20954 Off ch=3 n=d6 v=127
20954 Off ch=6 n=f5 v=127
20955 On ch=4 n=d#6 v=127
20955 On ch=8 n=g5 v=127
21196 Off ch=8 n=g5 v=127
21196 Off ch=4 n=d#6 v=127
21197 On ch=3 n=d6 v=127
21197 On ch=6 n=f5 v=127
21438 Off ch=6 n=f5 v=127
21438 Off ch=3 n=d6 v=127
21439 On ch=3 n=d6 v=127
21439 On ch=6 n=f5 v=127
21500 On ch=4 n=d#5 v=127
21500 On ch=1 n=c6 v=127
21519 Off ch=6 n=f5 v=127
21519 Off ch=3 n=d6 v=127
21561 On ch=6 n=f5 v=127
21561 On ch=3 n=d6 v=127
21580 Off ch=1 n=c6 v=127
21580 Off ch=4 n=d#5 v=127
21622 On ch=4 n=d#5 v=127
21622 On ch=1 n=c6 v=127
21641 Off ch=3 n=d6 v=127
21641 Off ch=6 n=f5 v=127
21683 On ch=6 n=f5 v=127
21683 On ch=3 n=d6 v=127
21702 Off ch=1 n=c6 v=127
21702 Off ch=4 n=d#5 v=127
21744 On ch=1 n=c6 v=127
21744 On ch=4 n=d#5 v=127
21763 Off ch=3 n=d6 v=127
21763 Off ch=6 n=f5 v=127
21805 On ch=13 n=b5 v=127
21805 On ch=3 n=d5 v=127
21824 Off ch=4 n=d#5 v=127
21824 Off ch=1 n=c6 v=127
21866 On ch=1 n=c6 v=127
21866 On ch=4 n=d#5 v=127
21885 Off ch=3 n=d5 v=127
21885 Off ch=13 n=b5 v=127
21927 On ch=8 n=g3 v=127
21927 On ch=6 n=f5 v=127
21946 Off ch=4 n=d#5 v=127
21946 Off ch=1 n=c6 v=127
21988 On ch=4 n=d#5 v=127
22007 Off ch=6 n=f5 v=127
22049 On ch=6 n=f5 v=127
22068 Off ch=4 n=d#5 v=127
22110 On ch=4 n=d#5 v=127
22129 Off ch=6 n=f5 v=127
22171 On ch=3 n=d5 v=127
22190 Off ch=4 n=d#5 v=127
22373 Off ch=3 n=d5 v=127
22413 On ch=3 n=d6 v=127
22413 On ch=8 n=g5 v=127
22413 On ch=6 n=f6 v=127
22413 On ch=13 n=b5 v=127
22654 Off ch=13 n=b5 v=127
22654 Off ch=6 n=f6 v=127
22654 Off ch=8 n=g5 v=127
22654 Off ch=3 n=d6 v=127
22654 Off ch=8 n=g3 v=127
22655 On ch=1 n=c6 v=127
22655 On ch=6 n=f6 v=127
22655 On ch=8 n=g3 v=127
22716 On ch=5 n=e6 v=127
22735 Off ch=6 n=f6 v=127
22777 On ch=6 n=f6 v=127
22796 Off ch=5 n=e6 v=127
22838 On ch=5 n=e6 v=127
22857 Off ch=6 n=f6 v=127
22897 Off ch=1 n=c6 v=127
22898 On ch=8 n=g5 v=127
22898 On ch=6 n=f6 v=127
22917 Off ch=5 n=e6 v=127
22959 On ch=5 n=e6 v=127
22978 Off ch=6 n=f6 v=127
23020 On ch=6 n=f6 v=127
23039 Off ch=5 n=e6 v=127
23081 On ch=5 n=e6 v=127
23100 Off ch=6 n=f6 v=127
23140 Off ch=8 n=g5 v=127
23140 Off ch=8 n=g3 v=127
23141 On ch=13 n=b5 v=127
23141 On ch=3 n=d6 v=127
23141 On ch=6 n=f5 v=127
23160 Off ch=5 n=e6 v=127
23382 Off ch=6 n=f5 v=127
23382 Off ch=3 n=d6 v=127
23382 Off ch=13 n=b5 v=127
23383 On ch=5 n=e5 v=127
23383 On ch=1 n=c6 v=127
23624 Off ch=1 n=c6 v=127
23625 On ch=8 n=g5 v=127
23866 Off ch=8 n=g5 v=127
23866 Off ch=5 n=e5 v=127
23867 On ch=3 n=d5 v=127
23867 On ch=13 n=b5 v=127
23867 On ch=6 n=f6 v=127
23867 On ch=3 n=d6 v=127
24108 Off ch=3 n=d6 v=127
24108 Off ch=6 n=f6 v=127
24108 Off ch=13 n=b5 v=127
24108 Off ch=3 n=d5 v=127
24109 On ch=1 n=c5 v=127
24109 On ch=8 n=g5 v=127
24109 On ch=1 n=c6 v=127
24109 On ch=6 n=f6 v=127
24350 Off ch=6 n=f6 v=127
24350 Off ch=8 n=g5 v=127
24350 Off ch=1 n=c5 v=127
24351 On ch=5 n=e6 v=127
24351 On ch=8 n=g4 v=127
24592 Off ch=8 n=g4 v=127
24592 Off ch=5 n=e6 v=127
24592 Off ch=1 n=c6 v=127
24593 On ch=3 n=d5 v=127
24593 On ch=3 n=d6 v=127
24593 On ch=13 n=b5 v=127
24834 Off ch=13 n=b5 v=127
24834 Off ch=3 n=d6 v=127
24834 Off ch=3 n=d5 v=127
24835 On ch=1 n=c6 v=127
24835 On ch=5 n=e5 v=127
25076 Off ch=1 n=c6 v=127
25077 On ch=8 n=g5 v=127
25318 Off ch=8 n=g5 v=127
25318 Off ch=5 n=e5 v=127
25319 On ch=3 n=d6 v=127
25319 On ch=13 n=b5 v=127
25319 On ch=11 n=a6 v=127
25319 On ch=6 n=f5 v=127
25560 Off ch=6 n=f5 v=127
25560 Off ch=11 n=a6 v=127
25560 Off ch=13 n=b5 v=127
25560 Off ch=3 n=d6 v=127
25561 On ch=5 n=e5 v=127
25561 On ch=5 n=e6 v=127
25561 On ch=1 n=c6 v=127
25561 On ch=11 n=a6 v=127
25802 Off ch=11 n=a6 v=127
25802 Off ch=5 n=e5 v=127
25803 On ch=8 n=g6 v=127
25803 On ch=8 n=g4 v=127
26044 Off ch=8 n=g4 v=127
26044 Off ch=8 n=g6 v=127
26044 Off ch=1 n=c6 v=127
26044 Off ch=5 n=e6 v=127
26045 On ch=6 n=f6 v=127
26045 On ch=13 n=b5 v=127
26045 On ch=8 n=g5 v=127
26045 On ch=3 n=d5 v=127
26045 On ch=3 n=d6 v=127
26286 Off ch=3 n=d6 v=127
26286 Off ch=3 n=d5 v=127
26286 Off ch=8 n=g5 v=127
26286 Off ch=13 n=b5 v=127
26286 Off ch=6 n=f6 v=127
26287 On ch=5 n=e6 v=127
26287 On ch=1 n=c5 v=127
26287 On ch=8 n=g5 v=127
26528 Off ch=8 n=g5 v=127
26528 Off ch=1 n=c5 v=127
26528 Off ch=5 n=e6 v=127
26529 On ch=11 n=a4 v=127
26529 On ch=3 n=d6 v=127
26649 Off ch=3 n=d6 v=127
26650 On ch=1 n=c6 v=127
26770 Off ch=11 n=a4 v=127
26771 On ch=1 n=c7 v=127
26771 On ch=6 n=f4 v=127
26890 Off ch=1 n=c6 v=127
27013 Off ch=6 n=f4 v=127
27013 Off ch=1 n=c7 v=127
27014 On ch=1 n=c6 v=127
27014 On ch=8 n=g4 v=127
27134 Off ch=1 n=c6 v=127
27135 On ch=3 n=d6 v=127
27255 Off ch=3 n=d6 v=127
27256 On ch=5 n=e6 v=127
27317 On ch=3 n=d6 v=127
27336 Off ch=5 n=e6 v=127
27378 On ch=5 n=e6 v=127
27397 Off ch=3 n=d6 v=127
27439 On ch=3 n=d6 v=127
27458 Off ch=5 n=e6 v=127
27500 On ch=5 n=e6 v=127
27500 On ch=8 n=g3 v=127
27519 Off ch=3 n=d6 v=127
27561 On ch=3 n=d6 v=127
27580 Off ch=5 n=e6 v=127
27622 On ch=1 n=c6 v=127
27641 Off ch=3 n=d6 v=127
27742 Off ch=8 n=g3 v=127
27742 Off ch=8 n=g4 v=127
27743 On ch=1 n=c4 v=127
27743 On ch=1 n=c5 v=127
27799 Off ch=1 n=c6 v=127
27986 On ch=1 n=c7 v=127
27986 On ch=5 n=e6 v=127
28227 Off ch=5 n=e6 v=127
28227 Off ch=1 n=c7 v=127
28227 Off ch=1 n=c5 v=127
28227 Off ch=1 n=c4 v=127
28228 On ch=1 n=c6 v=127
28228 On ch=11 n=a6 v=127
28469 Off ch=11 n=a6 v=127
28469 Off ch=1 n=c6 v=127
28470 On ch=6 n=f3 v=127
28470 On ch=6 n=f6 v=127
28470 On ch=6 n=f4 v=127
28470 On ch=11 n=a5 v=127
28711 Off ch=11 n=a5 v=127
28711 Off ch=6 n=f6 v=127
28712 On ch=3 n=d6 v=127
28712 On ch=6 n=f5 v=127
28953 Off ch=6 n=f5 v=127
28953 Off ch=3 n=d6 v=127
28953 Off ch=6 n=f4 v=127
28953 Off ch=6 n=f3 v=127
28954 On ch=8 n=g3 v=127
28954 On ch=8 n=g4 v=127
28954 On ch=3 n=d5 v=127
28954 On ch=13 n=b5 v=127
29181 Off ch=13 n=b5 v=127
29181 Off ch=3 n=d5 v=127
29195 Off ch=8 n=g4 v=127
29195 Off ch=8 n=g3 v=127
29196 On ch=6 n=f4 v=127
29257 On ch=5 n=e4 v=127
29276 Off ch=6 n=f4 v=127
29318 On ch=6 n=f4 v=127
29337 Off ch=5 n=e4 v=127
29379 On ch=5 n=e4 v=127
29398 Off ch=6 n=f4 v=127
29440 On ch=1 n=c7 v=127
29440 On ch=5 n=e6 v=127
29440 On ch=3 n=d4 v=127
29459 Off ch=5 n=e4 v=127
29681 Off ch=3 n=d4 v=127
29681 Off ch=5 n=e6 v=127
29681 Off ch=1 n=c7 v=127
29682 On ch=11 n=a6 v=127
29682 On ch=1 n=c6 v=127
29682 On ch=1 n=c4 v=127
29923 Off ch=1 n=c4 v=127
29923 Off ch=1 n=c6 v=127
29923 Off ch=11 n=a6 v=127
29924 On ch=11 n=a5 v=127
29924 On ch=6 n=f6 v=127
29924 On ch=6 n=f3 v=127
29924 On ch=6 n=f4 v=127
30165 Off ch=6 n=f6 v=127
30165 Off ch=11 n=a5 v=127
30166 On ch=3 n=d6 v=127
30166 On ch=6 n=f5 v=127
30407 Off ch=6 n=f5 v=127
30407 Off ch=3 n=d6 v=127
30407 Off ch=6 n=f4 v=127
30407 Off ch=6 n=f3 v=127
30408 On ch=8 n=g3 v=127
30408 On ch=8 n=g4 v=127
30408 On ch=3 n=d5 v=127
30408 On ch=13 n=b5 v=127
30635 Off ch=13 n=b5 v=127
30635 Off ch=3 n=d5 v=127
30649 Off ch=8 n=g4 v=127
30649 Off ch=8 n=g3 v=127
30650 On ch=6 n=f4 v=127
30711 On ch=5 n=e4 v=127
30730 Off ch=6 n=f4 v=127
30772 On ch=6 n=f4 v=127
30791 Off ch=5 n=e4 v=127
30833 On ch=5 n=e4 v=127
30852 Off ch=6 n=f4 v=127
30894 On ch=1 n=c7 v=127
30894 On ch=5 n=e6 v=127
30894 On ch=3 n=d4 v=127
30913 Off ch=5 n=e4 v=127
31135 Off ch=3 n=d4 v=127
31135 Off ch=5 n=e6 v=127
31135 Off ch=1 n=c7 v=127
31136 On ch=11 n=a6 v=127
31136 On ch=1 n=c6 v=127
31136 On ch=1 n=c4 v=127
31377 Off ch=1 n=c4 v=127
31377 Off ch=1 n=c6 v=127
31377 Off ch=11 n=a6 v=127
31378 On ch=11 n=a5 v=127
31378 On ch=6 n=f6 v=127
31378 On ch=6 n=f3 v=127
31378 On ch=6 n=f4 v=127
31619 Off ch=6 n=f6 v=127
31619 Off ch=11 n=a5 v=127
31620 On ch=3 n=d6 v=127
31620 On ch=6 n=f5 v=127
31861 Off ch=6 n=f5 v=127
31861 Off ch=3 n=d6 v=127
31861 Off ch=6 n=f4 v=127
31861 Off ch=6 n=f3 v=127
31862 On ch=8 n=g3 v=127
31862 On ch=8 n=g4 v=127
31862 On ch=13 n=b5 v=127
31862 On ch=3 n=d5 v=127
32103 Off ch=3 n=d5 v=127
32103 Off ch=13 n=b5 v=127
32103 Off ch=8 n=g4 v=127
32103 Off ch=8 n=g3 v=127
32104 On ch=6 n=f4 v=127
32104 On ch=5 n=e5 v=127
32104 On ch=1 n=c6 v=127
32165 On ch=5 n=e4 v=127
32184 Off ch=6 n=f4 v=127
32224 Off ch=1 n=c6 v=127
32225 On ch=3 n=d6 v=127
32225 On ch=6 n=f4 v=127
32244 Off ch=5 n=e4 v=127
32286 On ch=5 n=e4 v=127
32305 Off ch=6 n=f4 v=127
32345 Off ch=3 n=d6 v=127
32346 On ch=5 n=e6 v=127
32346 On ch=6 n=f4 v=127
32365 Off ch=5 n=e4 v=127
32407 On ch=5 n=e4 v=127
32426 Off ch=6 n=f4 v=127
32466 Off ch=5 n=e6 v=127
32467 On ch=3 n=d4 v=127
32467 On ch=6 n=f6 v=127
32486 Off ch=5 n=e4 v=127
32587 Off ch=6 n=f6 v=127
32587 Off ch=3 n=d4 v=127
32588 On ch=8 n=g6 v=127
32588 On ch=1 n=c4 v=127
32669 On ch=6 n=f6 v=127
32702 Off ch=8 n=g6 v=127
32749 Off ch=6 n=f6 v=127
32750 On ch=5 n=e6 v=127
32830 Off ch=5 n=e6 v=127
32830 Off ch=1 n=c4 v=127
32830 Off ch=5 n=e5 v=127
32831 On ch=6 n=f6 v=127
32831 On ch=6 n=f4 v=127
32912 On ch=5 n=e6 v=127
32945 Off ch=6 n=f6 v=127
32992 Off ch=5 n=e6 v=127
32993 On ch=3 n=d6 v=127
33073 Off ch=3 n=d6 v=127
33073 Off ch=6 n=f4 v=127
33074 On ch=5 n=e6 v=127
33074 On ch=8 n=g4 v=127
33155 On ch=3 n=d6 v=127
33188 Off ch=5 n=e6 v=127
33235 Off ch=3 n=d6 v=127
33236 On ch=1 n=c6 v=127
33316 Off ch=1 n=c6 v=127
33317 On ch=3 n=d6 v=127
33317 On ch=8 n=g3 v=127
33398 On ch=1 n=c6 v=127
33431 Off ch=3 n=d6 v=127
33478 Off ch=1 n=c6 v=127
33479 On ch=13 n=b5 v=127
33555 Off ch=8 n=g4 v=127
33559 Off ch=13 n=b5 v=127
33559 Off ch=8 n=g3 v=127
33560 On ch=1 n=c4 v=127
33560 On ch=1 n=c5 v=127
33803 On ch=1 n=c7 v=127
33803 On ch=4 n=d#6 v=127
34044 Off ch=4 n=d#6 v=127
34044 Off ch=1 n=c7 v=127
34045 On ch=1 n=c6 v=127
34045 On ch=9 n=g#6 v=127
34286 Off ch=9 n=g#6 v=127
34286 Off ch=1 n=c6 v=127
34286 Off ch=1 n=c5 v=127
34286 Off ch=1 n=c4 v=127
34287 On ch=6 n=f6 v=127
34287 On ch=9 n=g#5 v=127
34287 On ch=6 n=f3 v=127
34287 On ch=6 n=f4 v=127
34528 Off ch=9 n=g#5 v=127
34528 Off ch=6 n=f6 v=127
34529 On ch=6 n=f5 v=127
34529 On ch=3 n=d6 v=127
34770 Off ch=3 n=d6 v=127
34770 Off ch=6 n=f5 v=127
34770 Off ch=6 n=f4 v=127
34770 Off ch=6 n=f3 v=127
34771 On ch=13 n=b5 v=127
34771 On ch=3 n=d5 v=127
34771 On ch=8 n=g3 v=127
34771 On ch=8 n=g4 v=127
34998 Off ch=3 n=d5 v=127
34998 Off ch=13 n=b5 v=127
35012 Off ch=8 n=g4 v=127
35012 Off ch=8 n=g3 v=127
35013 On ch=6 n=f4 v=127
35074 On ch=4 n=d#4 v=127
35093 Off ch=6 n=f4 v=127
35135 On ch=6 n=f4 v=127
35154 Off ch=4 n=d#4 v=127
35196 On ch=4 n=d#4 v=127
35215 Off ch=6 n=f4 v=127
35257 On ch=3 n=d4 v=127
35257 On ch=1 n=c7 v=127
35257 On ch=4 n=d#6 v=127
35276 Off ch=4 n=d#4 v=127
35498 Off ch=4 n=d#6 v=127
35498 Off ch=1 n=c7 v=127
35498 Off ch=3 n=d4 v=127
35499 On ch=1 n=c6 v=127
35499 On ch=9 n=g#6 v=127
35499 On ch=1 n=c4 v=127
35740 Off ch=1 n=c4 v=127
35740 Off ch=9 n=g#6 v=127
35740 Off ch=1 n=c6 v=127
35741 On ch=9 n=g#5 v=127
35741 On ch=6 n=f6 v=127
35741 On ch=6 n=f3 v=127
35741 On ch=6 n=f4 v=127
35982 Off ch=6 n=f6 v=127
35982 Off ch=9 n=g#5 v=127
35983 On ch=6 n=f5 v=127
35983 On ch=3 n=d6 v=127
36224 Off ch=3 n=d6 v=127
36224 Off ch=6 n=f5 v=127
36224 Off ch=6 n=f4 v=127
36224 Off ch=6 n=f3 v=127
36225 On ch=3 n=d5 v=127
36225 On ch=13 n=b5 v=127
36225 On ch=8 n=g3 v=127
36225 On ch=8 n=g4 v=127
36452 Off ch=13 n=b5 v=127
36452 Off ch=3 n=d5 v=127
36466 Off ch=8 n=g4 v=127
36466 Off ch=8 n=g3 v=127
36467 On ch=6 n=f4 v=127
36528 On ch=4 n=d#4 v=127
36547 Off ch=6 n=f4 v=127
36589 On ch=6 n=f4 v=127
36608 Off ch=4 n=d#4 v=127
36650 On ch=4 n=d#4 v=127
36669 Off ch=6 n=f4 v=127
36711 On ch=3 n=d4 v=127
36711 On ch=1 n=c7 v=127
36711 On ch=4 n=d#6 v=127
36730 Off ch=4 n=d#4 v=127
36952 Off ch=4 n=d#6 v=127
36952 Off ch=1 n=c7 v=127
36952 Off ch=3 n=d4 v=127
36953 On ch=1 n=c4 v=127
36953 On ch=1 n=c6 v=127
36953 On ch=9 n=g#6 v=127
37194 Off ch=9 n=g#6 v=127
37194 Off ch=1 n=c6 v=127
37194 Off ch=1 n=c4 v=127
37195 On ch=6 n=f3 v=127
37195 On ch=6 n=f4 v=127
37195 On ch=9 n=g#5 v=127
37195 On ch=6 n=f6 v=127
37436 Off ch=6 n=f6 v=127
37436 Off ch=9 n=g#5 v=127
37437 On ch=6 n=f5 v=127
37437 On ch=3 n=d6 v=127
37678 Off ch=3 n=d6 v=127
37678 Off ch=6 n=f5 v=127
37678 Off ch=6 n=f4 v=127
37678 Off ch=6 n=f3 v=127
37679 On ch=3 n=d5 v=127
37679 On ch=13 n=b5 v=127
37679 On ch=8 n=g3 v=127
37679 On ch=8 n=g4 v=127
37920 Off ch=8 n=g4 v=127
37920 Off ch=8 n=g3 v=127
37920 Off ch=13 n=b5 v=127
37920 Off ch=3 n=d5 v=127
37921 On ch=4 n=d#5 v=127
37921 On ch=1 n=c6 v=127
37921 On ch=6 n=f4 v=127
37982 On ch=4 n=d#4 v=127
38001 Off ch=6 n=f4 v=127
38041 Off ch=1 n=c6 v=127
38042 On ch=6 n=f4 v=127
38042 On ch=3 n=d6 v=127
38061 Off ch=4 n=d#4 v=127
38103 On ch=4 n=d#4 v=127
38122 Off ch=6 n=f4 v=127
38162 Off ch=3 n=d6 v=127
38163 On ch=3 n=d4 v=127
38163 On ch=4 n=d#6 v=127
38182 Off ch=4 n=d#4 v=127
38283 Off ch=4 n=d#6 v=127
38284 On ch=6 n=f6 v=127
38404 Off ch=6 n=f6 v=127
38404 Off ch=3 n=d4 v=127
38404 Off ch=4 n=d#5 v=127
38405 On ch=8 n=g6 v=127
38405 On ch=1 n=c4 v=127
38486 On ch=6 n=f6 v=127
38519 Off ch=8 n=g6 v=127
38566 Off ch=6 n=f6 v=127
38567 On ch=4 n=d#6 v=127
38647 Off ch=4 n=d#6 v=127
38647 Off ch=1 n=c4 v=127
38648 On ch=6 n=f6 v=127
38648 On ch=6 n=f4 v=127
38729 On ch=4 n=d#6 v=127
38762 Off ch=6 n=f6 v=127
38809 Off ch=4 n=d#6 v=127
38810 On ch=3 n=d6 v=127
38890 Off ch=3 n=d6 v=127
38890 Off ch=6 n=f4 v=127
38891 On ch=4 n=d#6 v=127
38891 On ch=8 n=g4 v=127
38972 On ch=3 n=d6 v=127
39005 Off ch=4 n=d#6 v=127
39052 Off ch=3 n=d6 v=127
39053 On ch=1 n=c6 v=127
39133 Off ch=1 n=c6 v=127
39134 On ch=3 n=d6 v=127
39134 On ch=8 n=g3 v=127
39215 On ch=1 n=c6 v=127
39248 Off ch=3 n=d6 v=127
39295 Off ch=1 n=c6 v=127
39296 On ch=13 n=b5 v=127
39372 Off ch=8 n=g4 v=127
39376 Off ch=13 n=b5 v=127
39376 Off ch=8 n=g3 v=127
39377 On ch=1 n=c6 v=127
39377 On ch=1 n=c3 v=127
39498 On ch=8 n=g6 v=127
39591 Off ch=1 n=c6 v=127
39618 Off ch=8 n=g6 v=127
39619 On ch=1 n=c4 v=127
39619 On ch=5 n=e6 v=127
39739 Off ch=5 n=e6 v=127
39739 Off ch=1 n=c3 v=127
39740 On ch=1 n=c6 v=127
39860 Off ch=1 n=c6 v=127
39861 On ch=1 n=c5 v=127
39861 On ch=8 n=g6 v=127
39981 Off ch=1 n=c4 v=127
39982 On ch=5 n=e6 v=127
40012 Off ch=8 n=g6 v=127
40102 Off ch=5 n=e6 v=127
40102 Off ch=1 n=c5 v=127
40103 On ch=1 n=c3 v=127
40103 On ch=11 n=a6 v=127
40224 On ch=6 n=f6 v=127
40285 Off ch=11 n=a6 v=127
40344 Off ch=6 n=f6 v=127
40345 On ch=1 n=c6 v=127
40345 On ch=1 n=c4 v=127
40465 Off ch=1 n=c6 v=127
40465 Off ch=1 n=c3 v=127
40466 On ch=6 n=f6 v=127
40586 Off ch=6 n=f6 v=127
40587 On ch=13 n=b6 v=127
40587 On ch=1 n=c5 v=127
40707 Off ch=1 n=c4 v=127
40708 On ch=8 n=g6 v=127
40738 Off ch=13 n=b6 v=127
40828 Off ch=8 n=g6 v=127
40828 Off ch=1 n=c5 v=127
40829 On ch=1 n=c3 v=127
40829 On ch=1 n=c7 v=127
40950 On ch=8 n=g6 v=127
41011 Off ch=1 n=c7 v=127
41070 Off ch=8 n=g6 v=127
41071 On ch=5 n=e6 v=127
41071 On ch=1 n=c4 v=127
41191 Off ch=5 n=e6 v=127
41191 Off ch=1 n=c3 v=127
41192 On ch=1 n=c6 v=127
41312 Off ch=1 n=c6 v=127
41313 On ch=8 n=g6 v=127
41313 On ch=1 n=c5 v=127
41433 Off ch=1 n=c4 v=127
41434 On ch=5 n=e6 v=127
41464 Off ch=8 n=g6 v=127
41554 Off ch=5 n=e6 v=127
41554 Off ch=1 n=c5 v=127
41555 On ch=11 n=a6 v=127
41555 On ch=1 n=c3 v=127
41676 On ch=6 n=f6 v=127
41737 Off ch=11 n=a6 v=127
41796 Off ch=6 n=f6 v=127
41797 On ch=1 n=c4 v=127
41797 On ch=1 n=c6 v=127
41917 Off ch=1 n=c6 v=127
41917 Off ch=1 n=c3 v=127
41918 On ch=6 n=f6 v=127
42038 Off ch=6 n=f6 v=127
42039 On ch=13 n=b6 v=127
42039 On ch=1 n=c5 v=127
42159 Off ch=1 n=c4 v=127
42160 On ch=8 n=g6 v=127
42190 Off ch=13 n=b6 v=127
42280 Off ch=8 n=g6 v=127
42280 Off ch=1 n=c5 v=127
42281 On ch=1 n=c7 v=127
42281 On ch=1 n=c3 v=127
42402 On ch=8 n=g6 v=127
42463 Off ch=1 n=c7 v=127
42522 Off ch=8 n=g6 v=127
42523 On ch=5 n=e6 v=127
42523 On ch=1 n=c4 v=127
42643 Off ch=5 n=e6 v=127
42643 Off ch=1 n=c3 v=127
42644 On ch=1 n=c6 v=127
42764 Off ch=1 n=c6 v=127
42765 On ch=8 n=g6 v=127
42765 On ch=1 n=c5 v=127
42885 Off ch=1 n=c4 v=127
42886 On ch=5 n=e6 v=127
42916 Off ch=8 n=g6 v=127
43006 Off ch=5 n=e6 v=127
43006 Off ch=1 n=c5 v=127
43007 On ch=11 n=a6 v=127
43007 On ch=1 n=c3 v=127
43128 On ch=6 n=f6 v=127
43189 Off ch=11 n=a6 v=127
43248 Off ch=6 n=f6 v=127
43249 On ch=1 n=c6 v=127
43249 On ch=1 n=c4 v=127
43369 Off ch=1 n=c6 v=127
43369 Off ch=1 n=c3 v=127
43370 On ch=6 n=f6 v=127
43490 Off ch=6 n=f6 v=127
43491 On ch=13 n=b6 v=127
43491 On ch=1 n=c5 v=127
43611 Off ch=13 n=b6 v=127
43611 Off ch=1 n=c4 v=127
43612 On ch=8 n=g6 v=127
43732 Off ch=8 n=g6 v=127
43732 Off ch=1 n=c5 v=127
43733 On ch=1 n=c7 v=127
43733 On ch=1 n=c4 v=127
43853 Off ch=1 n=c7 v=127
43854 On ch=13 n=b6 v=127
43974 Off ch=13 n=b6 v=127
43974 Off ch=1 n=c4 v=127
43975 On ch=3 n=d4 v=127
43975 On ch=11 n=a6 v=127
44095 Off ch=11 n=a6 v=127
44096 On ch=8 n=g6 v=127
44216 Off ch=8 n=g6 v=127
44216 Off ch=3 n=d4 v=127
44217 On ch=6 n=f6 v=127
44217 On ch=5 n=e4 v=127
44337 Off ch=6 n=f6 v=127
44338 On ch=5 n=e6 v=127
44458 Off ch=5 n=e6 v=127
44458 Off ch=5 n=e4 v=127
44459 On ch=3 n=d6 v=127
44459 On ch=6 n=f4 v=127
44539 Off ch=3 n=d6 v=127
44540 On ch=5 n=e6 v=127
44620 Off ch=5 n=e6 v=127
44621 On ch=6 n=f6 v=127
44701 Off ch=6 n=f6 v=127
44701 Off ch=6 n=f4 v=127
44702 On ch=5 n=e6 v=127
44702 On ch=8 n=g4 v=127
44822 Off ch=5 n=e6 v=127
44823 On ch=3 n=d6 v=127
44943 Off ch=3 n=d6 v=127
44944 On ch=8 n=g3 v=127
44944 On ch=1 n=c6 v=127
45064 Off ch=1 n=c6 v=127
45065 On ch=13 n=b5 v=127
45141 Off ch=13 n=b5 v=127
45181 Off ch=8 n=g4 v=127
45185 Off ch=8 n=g3 v=127
45186 On ch=1 n=c3 v=127
45307 On ch=8 n=g6 v=127
45427 Off ch=8 n=g6 v=127
45428 On ch=1 n=c4 v=127
45428 On ch=5 n=e6 v=127
45548 Off ch=5 n=e6 v=127
45548 Off ch=1 n=c3 v=127
45549 On ch=1 n=c6 v=127
45669 Off ch=1 n=c6 v=127
45670 On ch=1 n=c5 v=127
45670 On ch=8 n=g6 v=127
45790 Off ch=1 n=c4 v=127
45791 On ch=5 n=e6 v=127
45872 Off ch=8 n=g6 v=127
45911 Off ch=5 n=e6 v=127
45911 Off ch=1 n=c5 v=127
45912 On ch=1 n=c3 v=127
45912 On ch=11 n=a6 v=127
46033 On ch=6 n=f6 v=127
46153 Off ch=6 n=f6 v=127
46154 On ch=1 n=c6 v=127
46154 On ch=1 n=c4 v=127
46164 Off ch=11 n=a6 v=127
46274 Off ch=1 n=c6 v=127
46274 Off ch=1 n=c3 v=127
46275 On ch=6 n=f6 v=127
46395 Off ch=6 n=f6 v=127
46396 On ch=13 n=b6 v=127
46396 On ch=1 n=c5 v=127
46516 Off ch=1 n=c4 v=127
46517 On ch=8 n=g6 v=127
46598 Off ch=13 n=b6 v=127
46637 Off ch=8 n=g6 v=127
46637 Off ch=1 n=c5 v=127
46638 On ch=1 n=c7 v=127
46638 On ch=1 n=c3 v=127
46759 On ch=8 n=g6 v=127
46879 Off ch=8 n=g6 v=127
46880 On ch=5 n=e6 v=127
46880 On ch=1 n=c4 v=127
46890 Off ch=1 n=c7 v=127
47000 Off ch=5 n=e6 v=127
47000 Off ch=1 n=c3 v=127
47001 On ch=1 n=c6 v=127
47121 Off ch=1 n=c6 v=127
47122 On ch=8 n=g6 v=127
47122 On ch=1 n=c5 v=127
47242 Off ch=1 n=c4 v=127
47243 On ch=5 n=e6 v=127
47324 Off ch=8 n=g6 v=127
47363 Off ch=5 n=e6 v=127
47363 Off ch=1 n=c5 v=127
47364 On ch=11 n=a6 v=127
47364 On ch=1 n=c3 v=127
47485 On ch=6 n=f6 v=127
47605 Off ch=6 n=f6 v=127
47606 On ch=1 n=c6 v=127
47606 On ch=1 n=c4 v=127
47616 Off ch=11 n=a6 v=127
47726 Off ch=1 n=c6 v=127
47726 Off ch=1 n=c3 v=127
47727 On ch=6 n=f6 v=127
47847 Off ch=6 n=f6 v=127
47848 On ch=13 n=b6 v=127
47848 On ch=1 n=c5 v=127
47968 Off ch=1 n=c4 v=127
47969 On ch=8 n=g6 v=127
48050 Off ch=13 n=b6 v=127
48089 Off ch=8 n=g6 v=127
48089 Off ch=1 n=c5 v=127
48090 On ch=1 n=c7 v=127
48090 On ch=1 n=c3 v=127
48211 On ch=8 n=g6 v=127
48273 Off ch=1 n=c7 v=127
48331 Off ch=8 n=g6 v=127
48332 On ch=5 n=e6 v=127
48332 On ch=1 n=c4 v=127
48452 Off ch=5 n=e6 v=127
48452 Off ch=1 n=c3 v=127
48453 On ch=1 n=c6 v=127
48573 Off ch=1 n=c6 v=127
48574 On ch=8 n=g6 v=127
48574 On ch=1 n=c5 v=127
48694 Off ch=1 n=c4 v=127
48695 On ch=5 n=e6 v=127
48776 Off ch=8 n=g6 v=127
48815 Off ch=5 n=e6 v=127
48815 Off ch=1 n=c5 v=127
48816 On ch=11 n=a6 v=127
48816 On ch=1 n=c3 v=127
48937 On ch=6 n=f6 v=127
49005 Off ch=11 n=a6 v=127
49057 Off ch=6 n=f6 v=127
49058 On ch=1 n=c6 v=127
49058 On ch=1 n=c4 v=127
49178 Off ch=1 n=c6 v=127
49178 Off ch=1 n=c3 v=127
49179 On ch=6 n=f6 v=127
49299 Off ch=6 n=f6 v=127
49300 On ch=13 n=b6 v=127
49300 On ch=1 n=c5 v=127
49414 Off ch=13 n=b6 v=127
49420 Off ch=1 n=c4 v=127
49421 On ch=8 n=g6 v=127
49535 Off ch=8 n=g6 v=127
49541 Off ch=1 n=c5 v=127
49542 On ch=1 n=c7 v=127
49542 On ch=1 n=c3 v=127
49662 Off ch=1 n=c7 v=127
49663 On ch=13 n=b6 v=127
49783 Off ch=13 n=b6 v=127
49783 Off ch=1 n=c3 v=127
49784 On ch=11 n=a6 v=127
49784 On ch=3 n=d3 v=127
49904 Off ch=11 n=a6 v=127
49905 On ch=8 n=g6 v=127
50025 Off ch=8 n=g6 v=127
50025 Off ch=3 n=d3 v=127
50026 On ch=6 n=f6 v=127
50026 On ch=5 n=e3 v=127
50146 Off ch=6 n=f6 v=127
50147 On ch=5 n=e6 v=127
50267 Off ch=5 n=e6 v=127
50267 Off ch=5 n=e3 v=127
50268 On ch=3 n=d6 v=127
50268 On ch=6 n=f3 v=127
50388 Off ch=3 n=d6 v=127
50389 On ch=1 n=c6 v=127
50509 Off ch=1 n=c6 v=127
50509 Off ch=6 n=f3 v=127
50510 On ch=8 n=g3 v=127
50510 On ch=13 n=b5 v=127
50630 Off ch=13 n=b5 v=127
50631 On ch=11 n=a5 v=127
50751 Off ch=11 n=a5 v=127
50751 Off ch=8 n=g3 v=127
50752 On ch=13 n=b3 v=127
50752 On ch=8 n=g5 v=127
50872 Off ch=8 n=g5 v=127
50873 On ch=6 n=f5 v=127
50993 Off ch=6 n=f5 v=127
50993 Off ch=13 n=b3 v=127
50994 On ch=1 n=c4 v=127
50994 On ch=5 n=e5 v=127
51114 Off ch=5 n=e5 v=127
51115 On ch=3 n=d5 v=127
51235 Off ch=3 n=d5 v=127
51235 Off ch=1 n=c4 v=127
51236 On ch=1 n=c5 v=127
51236 On ch=3 n=d4 v=127
51356 Off ch=1 n=c5 v=127
51357 On ch=13 n=b4 v=127
51477 Off ch=13 n=b4 v=127
51477 Off ch=3 n=d4 v=127
51478 On ch=1 n=c5 v=127
51478 On ch=5 n=e4 v=127
51703 Off ch=1 n=c5 v=127
51719 Off ch=5 n=e4 v=127
51720 On ch=3 n=d6 v=127
51720 On ch=6 n=f4 v=127
51800 Off ch=3 n=d6 v=127
51801 On ch=5 n=e6 v=127
51881 Off ch=5 n=e6 v=127
51882 On ch=6 n=f6 v=127
51962 Off ch=6 n=f6 v=127
51962 Off ch=6 n=f4 v=127
51963 On ch=5 n=e6 v=127
51963 On ch=8 n=g4 v=127
52083 Off ch=5 n=e6 v=127
52084 On ch=3 n=d6 v=127
52204 Off ch=3 n=d6 v=127
52205 On ch=1 n=c6 v=127
52205 On ch=8 n=g3 v=127
52325 Off ch=1 n=c6 v=127
52326 Off ch=8 n=g4 v=127
52326 On ch=13 n=b5 v=127
52446 Off ch=13 n=b5 v=127
52446 Off ch=8 n=g3 v=127
52447 On ch=13 n=b5 v=127
52447 On ch=1 n=c3 v=127
52447 On ch=1 n=c4 v=127
52688 Off ch=13 n=b5 v=127
52689 On ch=1 n=c6 v=127
53163 Off ch=1 n=c6 v=127
53173 Off ch=1 n=c4 v=127
53173 Off ch=1 n=c3 v=127
53174 On ch=1 n=c6 v=127
53417 On ch=1 n=c7 v=127
53654 Off ch=1 n=c6 v=127
53658 Off ch=1 n=c7 v=127
53659 On ch=8 n=g6 v=127
53900 Off ch=8 n=g6 v=127
53901 On ch=6 n=f6 v=127
53901 On ch=1 n=c5 v=127
53962 On ch=5 n=e6 v=127
53981 Off ch=6 n=f6 v=127
54023 On ch=6 n=f6 v=127
54042 Off ch=5 n=e6 v=127
54084 On ch=5 n=e6 v=127
54103 Off ch=6 n=f6 v=127
54145 On ch=6 n=f6 v=127
54145 On ch=1 n=c6 v=127
54164 Off ch=5 n=e6 v=127
54206 On ch=5 n=e6 v=127
54225 Off ch=6 n=f6 v=127
54267 On ch=6 n=f6 v=127
54286 Off ch=5 n=e6 v=127
54328 On ch=5 n=e6 v=127
54347 Off ch=6 n=f6 v=127
54384 Off ch=1 n=c5 v=127
54388 Off ch=5 n=e6 v=127
54388 Off ch=1 n=c6 v=127
54389 On ch=8 n=g5 v=127
54389 On ch=3 n=d6 v=127
54553 Off ch=3 n=d6 v=127
54630 Off ch=8 n=g5 v=127
54631 On ch=6 n=f5 v=127
54631 On ch=1 n=c6 v=127
54692 On ch=5 n=e5 v=127
54711 Off ch=6 n=f5 v=127
54753 On ch=6 n=f5 v=127
54772 Off ch=5 n=e5 v=127
54814 On ch=5 n=e5 v=127
54833 Off ch=6 n=f5 v=127
54873 Off ch=1 n=c6 v=127
54874 On ch=6 n=f5 v=127
54874 On ch=8 n=g5 v=127
54893 Off ch=5 n=e5 v=127
54935 On ch=5 n=e5 v=127
54954 Off ch=6 n=f5 v=127
54996 On ch=6 n=f5 v=127
55015 Off ch=5 n=e5 v=127
55057 On ch=5 n=e5 v=127
55076 Off ch=6 n=f5 v=127
55116 Off ch=5 n=e5 v=127
55116 Off ch=8 n=g5 v=127
55117 On ch=3 n=d6 v=127
55117 On ch=13 n=b5 v=127
55117 On ch=6 n=f6 v=127
55117 On ch=3 n=d5 v=127
55358 Off ch=3 n=d5 v=127
55358 Off ch=6 n=f6 v=127
55358 Off ch=13 n=b5 v=127
55358 Off ch=3 n=d6 v=127
55359 On ch=1 n=c6 v=127
55359 On ch=6 n=f6 v=127
55359 On ch=1 n=c5 v=127
55420 On ch=5 n=e6 v=127
55439 Off ch=6 n=f6 v=127
55481 On ch=6 n=f6 v=127
55500 Off ch=5 n=e6 v=127
55542 On ch=5 n=e6 v=127
55561 Off ch=6 n=f6 v=127
55601 Off ch=1 n=c5 v=127
55602 On ch=8 n=g4 v=127
55602 On ch=6 n=f6 v=127
55621 Off ch=5 n=e6 v=127
55663 On ch=5 n=e6 v=127
55682 Off ch=6 n=f6 v=127
55724 On ch=6 n=f6 v=127
55743 Off ch=5 n=e6 v=127
55785 On ch=5 n=e6 v=127
55804 Off ch=6 n=f6 v=127
55844 Off ch=5 n=e6 v=127
55844 Off ch=8 n=g4 v=127
55844 Off ch=1 n=c6 v=127
55845 On ch=6 n=f5 v=127
55845 On ch=13 n=b5 v=127
55845 On ch=3 n=d6 v=127
56009 Off ch=3 n=d6 v=127
56086 Off ch=13 n=b5 v=127
56086 Off ch=6 n=f5 v=127
56087 On ch=1 n=c6 v=127
56087 On ch=6 n=f5 v=127
56148 On ch=5 n=e5 v=127
56167 Off ch=6 n=f5 v=127
56209 On ch=6 n=f5 v=127
56228 Off ch=5 n=e5 v=127
56270 On ch=5 n=e5 v=127
56289 Off ch=6 n=f5 v=127
56329 Off ch=1 n=c6 v=127
56330 On ch=8 n=g5 v=127
56330 On ch=6 n=f5 v=127
56349 Off ch=5 n=e5 v=127
56391 On ch=5 n=e5 v=127
56410 Off ch=6 n=f5 v=127
56452 On ch=6 n=f5 v=127
56471 Off ch=5 n=e5 v=127
56513 On ch=5 n=e5 v=127
56532 Off ch=6 n=f5 v=127
56572 Off ch=5 n=e5 v=127
56572 Off ch=8 n=g5 v=127
56573 On ch=13 n=b5 v=127
56573 On ch=6 n=f6 v=127
56573 On ch=3 n=d6 v=127
56573 On ch=3 n=d5 v=127
56814 Off ch=3 n=d5 v=127
56814 Off ch=3 n=d6 v=127
56814 Off ch=6 n=f6 v=127
56814 Off ch=13 n=b5 v=127
56815 On ch=1 n=c6 v=127
56815 On ch=6 n=f6 v=127
56815 On ch=1 n=c5 v=127
56876 On ch=5 n=e6 v=127
56895 Off ch=6 n=f6 v=127
56937 On ch=6 n=f6 v=127
56956 Off ch=5 n=e6 v=127
56998 On ch=5 n=e6 v=127
57017 Off ch=6 n=f6 v=127
57057 Off ch=1 n=c5 v=127
57058 On ch=8 n=g4 v=127
57058 On ch=6 n=f6 v=127
57077 Off ch=5 n=e6 v=127
57119 On ch=5 n=e6 v=127
57138 Off ch=6 n=f6 v=127
57180 On ch=6 n=f6 v=127
57199 Off ch=5 n=e6 v=127
57241 On ch=5 n=e6 v=127
57260 Off ch=6 n=f6 v=127
57300 Off ch=5 n=e6 v=127
57300 Off ch=8 n=g4 v=127
57300 Off ch=1 n=c6 v=127
57301 On ch=3 n=d6 v=127
57301 On ch=13 n=b5 v=127
57301 On ch=6 n=f5 v=127
57478 Off ch=3 n=d6 v=127
57542 Off ch=6 n=f5 v=127
57542 Off ch=13 n=b5 v=127
57543 On ch=1 n=c6 v=127
57543 On ch=6 n=f5 v=127
57604 On ch=5 n=e5 v=127
57623 Off ch=6 n=f5 v=127
57665 On ch=6 n=f5 v=127
57684 Off ch=5 n=e5 v=127
57726 On ch=5 n=e5 v=127
57745 Off ch=6 n=f5 v=127
57785 Off ch=1 n=c6 v=127
57786 On ch=8 n=g5 v=127
57786 On ch=6 n=f5 v=127
57805 Off ch=5 n=e5 v=127
57847 On ch=5 n=e5 v=127
57866 Off ch=6 n=f5 v=127
57908 On ch=6 n=f5 v=127
57927 Off ch=5 n=e5 v=127
57969 On ch=5 n=e5 v=127
57988 Off ch=6 n=f5 v=127
58028 Off ch=5 n=e5 v=127
58028 Off ch=8 n=g5 v=127
58029 On ch=3 n=d5 v=127
58029 On ch=13 n=b5 v=127
58029 On ch=6 n=f6 v=127
58029 On ch=3 n=d6 v=127
58270 Off ch=3 n=d6 v=127
58270 Off ch=6 n=f6 v=127
58270 Off ch=13 n=b5 v=127
58270 Off ch=3 n=d5 v=127
58271 On ch=1 n=c6 v=127
58271 On ch=1 n=c5 v=127
58271 On ch=8 n=g5 v=127
58271 On ch=6 n=f6 v=127
58512 Off ch=6 n=f6 v=127
58513 On ch=1 n=c4 v=127
58513 On ch=5 n=e6 v=127
58750 Off ch=1 n=c5 v=127
58754 Off ch=5 n=e6 v=127
58754 Off ch=1 n=c4 v=127
58754 Off ch=8 n=g5 v=127
58754 Off ch=1 n=c6 v=127
58755 On ch=3 n=d6 v=127
58755 On ch=8 n=g5 v=127
58755 On ch=12 n=a#4 v=127
58996 Off ch=12 n=a#4 v=127
58996 Off ch=8 n=g5 v=127
58996 Off ch=3 n=d6 v=127
58997 On ch=3 n=d6 v=127
58997 On ch=11 n=a5 v=127
58997 On ch=11 n=a4 v=127
59058 On ch=2 n=c#6 v=127
59077 Off ch=3 n=d6 v=127
59119 On ch=3 n=d6 v=127
59138 Off ch=2 n=c#6 v=127
59180 On ch=2 n=c#6 v=127
59199 Off ch=3 n=d6 v=127
59241 On ch=11 n=a3 v=127
59241 On ch=3 n=d6 v=127
59260 Off ch=2 n=c#6 v=127
59302 On ch=2 n=c#6 v=127
59321 Off ch=3 n=d6 v=127
59363 On ch=3 n=d6 v=127
59382 Off ch=2 n=c#6 v=127
59424 On ch=2 n=c#6 v=127
59443 Off ch=3 n=d6 v=127
59480 Off ch=11 n=a4 v=127
59484 Off ch=11 n=a3 v=127
59484 Off ch=11 n=a5 v=127
59485 On ch=8 n=g4 v=127
59485 On ch=12 n=a#5 v=127
59485 On ch=5 n=e6 v=127
59504 Off ch=2 n=c#6 v=127
59726 Off ch=5 n=e6 v=127
59726 Off ch=12 n=a#5 v=127
59726 Off ch=8 n=g4 v=127
59727 On ch=3 n=d6 v=127
59727 On ch=8 n=g4 v=127
59788 On ch=6 n=f4 v=127
59807 Off ch=8 n=g4 v=127
59849 On ch=8 n=g4 v=127
59868 Off ch=6 n=f4 v=127
59910 On ch=6 n=f4 v=127
59929 Off ch=8 n=g4 v=127
59969 Off ch=3 n=d6 v=127
59970 On ch=11 n=a5 v=127
59970 On ch=8 n=g4 v=127
59989 Off ch=6 n=f4 v=127
60031 On ch=6 n=f4 v=127
60050 Off ch=8 n=g4 v=127
60092 On ch=8 n=g4 v=127
60111 Off ch=6 n=f4 v=127
60153 On ch=6 n=f4 v=127
60212 Off ch=6 n=f4 v=127
60212 Off ch=8 n=g4 v=127
60212 Off ch=11 n=a5 v=127
60213 On ch=11 n=a5 v=127
60213 On ch=2 n=c#6 v=127
60213 On ch=8 n=g6 v=127
60213 On ch=5 n=e4 v=127
60454 Off ch=5 n=e4 v=127
60454 Off ch=8 n=g6 v=127
60454 Off ch=2 n=c#6 v=127
60454 Off ch=11 n=a5 v=127
60455 On ch=3 n=d6 v=127
60455 On ch=3 n=d4 v=127
60455 On ch=8 n=g6 v=127
60455 On ch=11 n=a5 v=127
60516 On ch=6 n=f6 v=127
60535 Off ch=8 n=g6 v=127
60577 On ch=8 n=g6 v=127
60596 Off ch=6 n=f6 v=127
60638 On ch=6 n=f6 v=127
60657 Off ch=8 n=g6 v=127
60697 Off ch=3 n=d4 v=127
60698 On ch=8 n=g6 v=127
60698 On ch=11 n=a3 v=127
60717 Off ch=6 n=f6 v=127
60759 On ch=6 n=f6 v=127
60778 Off ch=8 n=g6 v=127
60820 On ch=8 n=g6 v=127
60839 Off ch=6 n=f6 v=127
60881 On ch=6 n=f6 v=127
60900 Off ch=8 n=g6 v=127
60940 Off ch=6 n=f6 v=127
60940 Off ch=11 n=a3 v=127
60940 Off ch=3 n=d6 v=127
60941 On ch=2 n=c#6 v=127
60941 On ch=5 n=e6 v=127
60941 On ch=8 n=g5 v=127
61118 Off ch=5 n=e6 v=127
61122 Off ch=8 n=g5 v=127
61183 Off ch=2 n=c#6 v=127
61183 Off ch=11 n=a5 v=127
61184 On ch=3 n=d6 v=127
61184 On ch=8 n=g5 v=127
61245 On ch=6 n=f5 v=127
61264 Off ch=8 n=g5 v=127
61306 On ch=8 n=g5 v=127
61325 Off ch=6 n=f5 v=127
61367 On ch=6 n=f5 v=127
61386 Off ch=8 n=g5 v=127
61426 Off ch=3 n=d6 v=127
61427 On ch=11 n=a5 v=127
61427 On ch=8 n=g5 v=127
61446 Off ch=6 n=f5 v=127
61488 On ch=6 n=f5 v=127
61507 Off ch=8 n=g5 v=127
61549 On ch=8 n=g5 v=127
61568 Off ch=6 n=f5 v=127
61610 On ch=6 n=f5 v=127
61629 Off ch=8 n=g5 v=127
61669 Off ch=6 n=f5 v=127
61669 Off ch=11 n=a5 v=127
61670 On ch=2 n=c#6 v=127
61670 On ch=5 n=e6 v=127
61670 On ch=8 n=g6 v=127
61670 On ch=5 n=e5 v=127
61911 Off ch=5 n=e5 v=127
61911 Off ch=8 n=g6 v=127
61911 Off ch=5 n=e6 v=127
61911 Off ch=2 n=c#6 v=127
61912 On ch=3 n=d6 v=127
61912 On ch=8 n=g6 v=127
61912 On ch=3 n=d5 v=127
61973 On ch=6 n=f6 v=127
61992 Off ch=8 n=g6 v=127
62034 On ch=8 n=g6 v=127
62053 Off ch=6 n=f6 v=127
62095 On ch=6 n=f6 v=127
62114 Off ch=8 n=g6 v=127
62154 Off ch=3 n=d5 v=127
62155 On ch=11 n=a4 v=127
62155 On ch=8 n=g6 v=127
62174 Off ch=6 n=f6 v=127
62216 On ch=6 n=f6 v=127
62235 Off ch=8 n=g6 v=127
62277 On ch=8 n=g6 v=127
62296 Off ch=6 n=f6 v=127
62338 On ch=6 n=f6 v=127
62357 Off ch=8 n=g6 v=127
62397 Off ch=6 n=f6 v=127
62397 Off ch=11 n=a4 v=127
62397 Off ch=3 n=d6 v=127
62398 On ch=5 n=e6 v=127
62398 On ch=2 n=c#6 v=127
62398 On ch=8 n=g5 v=127
62575 Off ch=5 n=e6 v=127
62639 Off ch=8 n=g5 v=127
62639 Off ch=2 n=c#6 v=127
62640 On ch=3 n=d6 v=127
62640 On ch=8 n=g5 v=127
62701 On ch=6 n=f5 v=127
62720 Off ch=8 n=g5 v=127
62762 On ch=8 n=g5 v=127
62781 Off ch=6 n=f5 v=127
62823 On ch=6 n=f5 v=127
62842 Off ch=8 n=g5 v=127
62882 Off ch=3 n=d6 v=127
62883 On ch=11 n=a5 v=127
62883 On ch=8 n=g5 v=127
62902 Off ch=6 n=f5 v=127
62944 On ch=6 n=f5 v=127
62963 Off ch=8 n=g5 v=127
63005 On ch=8 n=g5 v=127
63024 Off ch=6 n=f5 v=127
63066 On ch=6 n=f5 v=127
63085 Off ch=8 n=g5 v=127
63125 Off ch=6 n=f5 v=127
63125 Off ch=11 n=a5 v=127
63126 On ch=2 n=c#6 v=127
63126 On ch=5 n=e6 v=127
63126 On ch=8 n=g6 v=127
63126 On ch=5 n=e5 v=127
63367 Off ch=5 n=e5 v=127
63367 Off ch=8 n=g6 v=127
63367 Off ch=5 n=e6 v=127
63367 Off ch=2 n=c#6 v=127
63368 On ch=11 n=a5 v=127
63368 On ch=3 n=d5 v=127
63368 On ch=5 n=e6 v=127
63368 On ch=8 n=g6 v=127
63609 Off ch=8 n=g6 v=127
63609 Off ch=5 n=e6 v=127
63610 On ch=7 n=f#6 v=127
63610 On ch=3 n=d4 v=127
63847 Off ch=3 n=d5 v=127
63851 Off ch=3 n=d4 v=127
63851 Off ch=7 n=f#6 v=127
63851 Off ch=11 n=a5 v=127
63852 On ch=11 n=a5 v=127
63852 On ch=5 n=e6 v=127
63852 On ch=1 n=c5 v=127
64093 Off ch=1 n=c5 v=127
64093 Off ch=5 n=e6 v=127
64093 Off ch=11 n=a5 v=127
64094 On ch=13 n=b4 v=127
64094 On ch=13 n=b5 v=127
64094 On ch=5 n=e6 v=127
64155 On ch=4 n=d#6 v=127
64174 Off ch=5 n=e6 v=127
64216 On ch=5 n=e6 v=127
64235 Off ch=4 n=d#6 v=127
64277 On ch=4 n=d#6 v=127
64296 Off ch=5 n=e6 v=127
64338 On ch=13 n=b3 v=127
64338 On ch=5 n=e6 v=127
64357 Off ch=4 n=d#6 v=127
64399 On ch=4 n=d#6 v=127
64418 Off ch=5 n=e6 v=127
64460 On ch=5 n=e6 v=127
64479 Off ch=4 n=d#6 v=127
64521 On ch=4 n=d#6 v=127
64540 Off ch=5 n=e6 v=127
64577 Off ch=13 n=b4 v=127
64581 Off ch=13 n=b3 v=127
64581 Off ch=13 n=b5 v=127
64582 On ch=7 n=f#6 v=127
64582 On ch=11 n=a4 v=127
64582 On ch=1 n=c6 v=127
64601 Off ch=4 n=d#6 v=127
64823 Off ch=1 n=c6 v=127
64823 Off ch=11 n=a4 v=127
64823 Off ch=7 n=f#6 v=127
64824 On ch=5 n=e6 v=127
64824 On ch=11 n=a4 v=127
64885 On ch=8 n=g4 v=127
64904 Off ch=11 n=a4 v=127
64946 On ch=11 n=a4 v=127
64965 Off ch=8 n=g4 v=127
65007 On ch=8 n=g4 v=127
65026 Off ch=11 n=a4 v=127
65066 Off ch=5 n=e6 v=127
65067 On ch=11 n=a4 v=127
65067 On ch=13 n=b5 v=127
65086 Off ch=8 n=g4 v=127
65128 On ch=8 n=g4 v=127
65147 Off ch=11 n=a4 v=127
65189 On ch=11 n=a4 v=127
65208 Off ch=8 n=g4 v=127
65250 On ch=8 n=g4 v=127
65269 Off ch=11 n=a4 v=127
65309 Off ch=8 n=g4 v=127
65309 Off ch=13 n=b5 v=127
65310 On ch=7 n=f#4 v=127
65310 On ch=11 n=a6 v=127
65310 On ch=4 n=d#6 v=127
65551 Off ch=4 n=d#6 v=127
65551 Off ch=11 n=a6 v=127
65551 Off ch=7 n=f#4 v=127
65552 On ch=13 n=b5 v=127
65552 On ch=5 n=e6 v=127
65552 On ch=5 n=e4 v=127
65552 On ch=11 n=a6 v=127
65613 On ch=8 n=g6 v=127
65632 Off ch=11 n=a6 v=127
65674 On ch=11 n=a6 v=127
65693 Off ch=8 n=g6 v=127
65735 On ch=8 n=g6 v=127
65754 Off ch=11 n=a6 v=127
65794 Off ch=5 n=e4 v=127
65795 On ch=11 n=a6 v=127
65795 On ch=13 n=b3 v=127
65814 Off ch=8 n=g6 v=127
65856 On ch=8 n=g6 v=127
65875 Off ch=11 n=a6 v=127
65917 On ch=11 n=a6 v=127
65936 Off ch=8 n=g6 v=127
65978 On ch=8 n=g6 v=127
65997 Off ch=11 n=a6 v=127
66037 Off ch=8 n=g6 v=127
66037 Off ch=13 n=b3 v=127
66037 Off ch=5 n=e6 v=127
66038 On ch=7 n=f#6 v=127
66038 On ch=4 n=d#6 v=127
66038 On ch=11 n=a5 v=127
66215 Off ch=7 n=f#6 v=127
66279 Off ch=11 n=a5 v=127
66279 Off ch=4 n=d#6 v=127
66279 Off ch=13 n=b5 v=127
66280 On ch=11 n=a5 v=127
66280 On ch=5 n=e6 v=127
66341 On ch=8 n=g5 v=127
66360 Off ch=11 n=a5 v=127
66402 On ch=11 n=a5 v=127
66421 Off ch=8 n=g5 v=127
66463 On ch=8 n=g5 v=127
66482 Off ch=11 n=a5 v=127
66522 Off ch=5 n=e6 v=127
66523 On ch=13 n=b5 v=127
66523 On ch=11 n=a5 v=127
66542 Off ch=8 n=g5 v=127
66584 On ch=8 n=g5 v=127
66603 Off ch=11 n=a5 v=127
66645 On ch=11 n=a5 v=127
66664 Off ch=8 n=g5 v=127
66706 On ch=8 n=g5 v=127
66725 Off ch=11 n=a5 v=127
66765 Off ch=8 n=g5 v=127
66766 On ch=4 n=d#6 v=127
66766 On ch=11 n=a6 v=127
66766 On ch=7 n=f#5 v=127
67007 Off ch=7 n=f#5 v=127
67007 Off ch=11 n=a6 v=127
67007 Off ch=4 n=d#6 v=127
67007 Off ch=13 n=b5 v=127
67008 On ch=5 n=e5 v=127
67008 On ch=5 n=e6 v=127
67008 On ch=13 n=b5 v=127
67008 On ch=11 n=a6 v=127
67249 Off ch=11 n=a6 v=127
67249 Off ch=5 n=e5 v=127
67250 On ch=11 n=a4 v=127
67250 On ch=8 n=g6 v=127
67491 Off ch=8 n=g6 v=127
67491 Off ch=11 n=a4 v=127
67491 Off ch=13 n=b5 v=127
67491 Off ch=5 n=e6 v=127
67492 On ch=13 n=b4 v=127
67492 On ch=4 n=d#6 v=127
67492 On ch=7 n=f#6 v=127
67719 Off ch=7 n=f#6 v=127
67719 Off ch=4 n=d#6 v=127
67733 Off ch=13 n=b4 v=127
67734 On ch=11 n=a6 v=127
67734 On ch=5 n=e6 v=127
67734 On ch=5 n=e4 v=127
67795 On ch=8 n=g6 v=127
67814 Off ch=11 n=a6 v=127
67856 On ch=11 n=a6 v=127
67875 Off ch=8 n=g6 v=127
67917 On ch=8 n=g6 v=127
67936 Off ch=11 n=a6 v=127
67976 Off ch=5 n=e6 v=127
67977 On ch=7 n=f#6 v=127
67996 Off ch=8 n=g6 v=127
68097 Off ch=7 n=f#6 v=127
68098 On ch=8 n=g6 v=127
68218 Off ch=8 n=g6 v=127
68218 Off ch=5 n=e4 v=127
68219 On ch=5 n=e6 v=127
68434 Off ch=5 n=e6 v=127
68462 On ch=5 n=e6 v=127
68462 On ch=8 n=g5 v=127
68582 Off ch=8 n=g5 v=127
68583 On ch=13 n=b5 v=127
68703 Off ch=13 n=b5 v=127
68703 Off ch=5 n=e6 v=127
68704 On ch=8 n=g5 v=127
68704 On ch=8 n=g6 v=127
68824 Off ch=8 n=g5 v=127
68825 On ch=5 n=e5 v=127
68945 Off ch=5 n=e5 v=127
68945 Off ch=8 n=g6 v=127
68946 On ch=8 n=g5 v=127
68946 On ch=5 n=e6 v=127
69066 Off ch=8 n=g5 v=127
69067 On ch=11 n=a5 v=127
69187 Off ch=11 n=a5 v=127
69187 Off ch=5 n=e6 v=127
69188 On ch=13 n=b5 v=127
69188 On ch=5 n=e6 v=127
69429 Off ch=5 n=e6 v=127
69430 On ch=4 n=d#6 v=127
69550 Off ch=4 n=d#6 v=127
69551 On ch=2 n=c#6 v=127
69671 Off ch=2 n=c#6 v=127
69672 On ch=4 n=d#6 v=127
69869 Off ch=13 n=b5 v=127
69887 Off ch=4 n=d#6 v=127
69915 On ch=7 n=f#5 v=127
69915 On ch=3 n=d6 v=127
70035 Off ch=7 n=f#5 v=127
70036 On ch=13 n=b5 v=127
70156 Off ch=13 n=b5 v=127
70156 Off ch=3 n=d6 v=127
70157 On ch=7 n=f#6 v=127
70157 On ch=7 n=f#5 v=127
70277 Off ch=7 n=f#5 v=127
70278 On ch=3 n=d5 v=127
70398 Off ch=3 n=d5 v=127
70398 Off ch=7 n=f#6 v=127
70399 On ch=3 n=d6 v=127
70399 On ch=7 n=f#5 v=127
70519 Off ch=7 n=f#5 v=127
70520 On ch=8 n=g5 v=127
70640 Off ch=8 n=g5 v=127
70640 Off ch=3 n=d6 v=127
70641 On ch=11 n=a5 v=127
70641 On ch=3 n=d6 v=127
70882 Off ch=3 n=d6 v=127
70883 On ch=1 n=c6 v=127
71003 Off ch=1 n=c6 v=127
71004 On ch=13 n=b5 v=127
71124 Off ch=13 n=b5 v=127
71125 On ch=1 n=c6 v=127
71335 Off ch=11 n=a5 v=127
71362 Off ch=1 n=c6 v=127
71368 On ch=1 n=c6 v=127
71368 On ch=5 n=e5 v=127
71488 Off ch=5 n=e5 v=127
71489 On ch=3 n=d5 v=127
71609 Off ch=3 n=d5 v=127
71609 Off ch=1 n=c6 v=127
71610 On ch=5 n=e6 v=127
71610 On ch=1 n=c5 v=127
71730 Off ch=1 n=c5 v=127
71731 On ch=13 n=b4 v=127
71851 Off ch=13 n=b4 v=127
71851 Off ch=5 n=e6 v=127
71852 On ch=1 n=c6 v=127
71852 On ch=11 n=a4 v=127
71972 Off ch=11 n=a4 v=127
71973 On ch=5 n=e5 v=127
72088 Off ch=1 n=c6 v=127
72093 Off ch=5 n=e5 v=127
72094 On ch=5 n=e5 v=127
72094 On ch=1 n=c6 v=127
72155 On ch=4 n=d#5 v=127
72174 Off ch=5 n=e5 v=127
72216 On ch=5 n=e5 v=127
72235 Off ch=4 n=d#5 v=127
72277 On ch=4 n=d#5 v=127
72296 Off ch=5 n=e5 v=127
72336 Off ch=1 n=c6 v=127
72337 On ch=5 n=e5 v=127
72337 On ch=13 n=b5 v=127
72356 Off ch=4 n=d#5 v=127
72398 On ch=4 n=d#5 v=127
72417 Off ch=5 n=e5 v=127
72457 Off ch=13 n=b5 v=127
72458 On ch=5 n=e5 v=127
72458 On ch=11 n=a5 v=127
72477 Off ch=4 n=d#5 v=127
72519 On ch=4 n=d#5 v=127
72538 Off ch=5 n=e5 v=127
72578 Off ch=11 n=a5 v=127
72579 On ch=5 n=e5 v=127
72579 On ch=13 n=b5 v=127
72598 Off ch=4 n=d#5 v=127
72640 On ch=4 n=d#5 v=127
72659 Off ch=5 n=e5 v=127
72701 On ch=2 n=c#5 v=127
72720 Off ch=4 n=d#5 v=127
72762 On ch=4 n=d#5 v=127
72781 Off ch=2 n=c#5 v=127
72805 Off ch=13 n=b5 v=127
72823 On ch=13 n=b6 v=127
72823 On ch=13 n=b4 v=127
72842 Off ch=4 n=d#5 v=127
72943 Off ch=13 n=b6 v=127
72944 On ch=11 n=a6 v=127
73064 Off ch=11 n=a6 v=127
73064 Off ch=13 n=b4 v=127
73065 On ch=2 n=c#5 v=127
73065 On ch=8 n=g6 v=127
73185 Off ch=8 n=g6 v=127
73186 On ch=7 n=f#6 v=127
73306 Off ch=7 n=f#6 v=127
73306 Off ch=2 n=c#5 v=127
73307 On ch=4 n=d#5 v=127
73307 On ch=5 n=e6 v=127
73427 Off ch=5 n=e6 v=127
73428 On ch=4 n=d#6 v=127
73548 Off ch=4 n=d#6 v=127
73548 Off ch=4 n=d#5 v=127
73549 On ch=5 n=e6 v=127
73549 On ch=5 n=e5 v=127
73669 Off ch=5 n=e5 v=127
73670 On ch=8 n=g5 v=127
73790 Off ch=8 n=g5 v=127
73791 On ch=7 n=f#5 v=127
73877 Off ch=5 n=e6 v=127
73911 Off ch=7 n=f#5 v=127
73912 On ch=5 n=e5 v=127
74032 Off ch=5 n=e5 v=127
74033 On ch=4 n=d#5 v=127
74153 Off ch=4 n=d#5 v=127
74154 On ch=2 n=c#5 v=127
74274 Off ch=2 n=c#5 v=127
74275 On ch=13 n=b4 v=127
74275 On ch=13 n=b6 v=127
74395 Off ch=13 n=b6 v=127
74396 On ch=11 n=a6 v=127
74516 Off ch=11 n=a6 v=127
74516 Off ch=13 n=b4 v=127
74517 On ch=2 n=c#5 v=127
74517 On ch=8 n=g6 v=127
74637 Off ch=8 n=g6 v=127
74638 On ch=7 n=f#6 v=127
74758 Off ch=7 n=f#6 v=127
74758 Off ch=2 n=c#5 v=127
74759 On ch=5 n=e6 v=127
74759 On ch=4 n=d#5 v=127
74879 Off ch=5 n=e6 v=127
74880 On ch=4 n=d#6 v=127
75000 Off ch=4 n=d#6 v=127
75000 Off ch=4 n=d#5 v=127
75001 On ch=5 n=e5 v=127
75001 On ch=5 n=e6 v=127
75121 Off ch=5 n=e5 v=127
75122 On ch=8 n=g5 v=127
75241 Off ch=5 n=e6 v=127
75242 Off ch=8 n=g5 v=127
75243 On ch=7 n=f#5 v=127
75363 Off ch=7 n=f#5 v=127
75364 On ch=5 n=e5 v=127
75484 Off ch=5 n=e5 v=127
75485 On ch=4 n=d#5 v=127
75605 Off ch=4 n=d#5 v=127
75606 On ch=2 n=c#5 v=127
75726 Off ch=2 n=c#5 v=127
75727 On ch=13 n=b4 v=127
75727 On ch=13 n=b6 v=127
75847 Off ch=13 n=b6 v=127
75848 On ch=11 n=a6 v=127
75968 Off ch=11 n=a6 v=127
75968 Off ch=13 n=b4 v=127
75969 On ch=8 n=g6 v=127
75969 On ch=2 n=c#5 v=127
76089 Off ch=8 n=g6 v=127
76090 On ch=7 n=f#6 v=127
76210 Off ch=7 n=f#6 v=127
76210 Off ch=2 n=c#5 v=127
76211 On ch=4 n=d#5 v=127
76211 On ch=5 n=e6 v=127
76331 Off ch=5 n=e6 v=127
76332 On ch=4 n=d#6 v=127
76452 Off ch=4 n=d#6 v=127
76452 Off ch=4 n=d#5 v=127
76453 On ch=5 n=e5 v=127
76453 On ch=5 n=e6 v=127
76573 Off ch=5 n=e5 v=127
76574 On ch=6 n=f5 v=127
76694 Off ch=6 n=f5 v=127
76694 Off ch=5 n=e6 v=127
76695 On ch=5 n=e6 v=127
76695 On ch=8 n=g5 v=127
76815 Off ch=8 n=g5 v=127
76816 On ch=11 n=a5 v=127
76936 Off ch=11 n=a5 v=127
76936 Off ch=5 n=e6 v=127
76937 On ch=12 n=a#5 v=127
76937 On ch=3 n=d6 v=127
77057 Off ch=12 n=a#5 v=127
77058 On ch=8 n=g5 v=127
77178 Off ch=8 n=g5 v=127
77178 Off ch=3 n=d6 v=127
77179 On ch=11 n=a5 v=127
77179 On ch=2 n=c#6 v=127
77299 Off ch=11 n=a5 v=127
77300 On ch=12 n=a#5 v=127
77420 Off ch=12 n=a#5 v=127
77420 Off ch=2 n=c#6 v=127
77421 On ch=11 n=a5 v=127
77421 On ch=3 n=d6 v=127
77541 Off ch=11 n=a5 v=127
77542 On ch=8 n=g5 v=127
77662 Off ch=8 n=g5 v=127
77662 Off ch=3 n=d6 v=127
77663 On ch=6 n=f5 v=127
77663 On ch=5 n=e6 v=127
77783 Off ch=6 n=f5 v=127
77784 On ch=5 n=e5 v=127
77904 Off ch=5 n=e5 v=127
77904 Off ch=5 n=e6 v=127
77905 On ch=3 n=d5 v=127
77905 On ch=6 n=f6 v=127
78025 Off ch=3 n=d5 v=127
78026 On ch=5 n=e5 v=127
78146 Off ch=5 n=e5 v=127
78147 On ch=6 n=f5 v=127
78147 On ch=3 n=d6 v=127
78208 Off ch=6 n=f6 v=127
78267 Off ch=6 n=f5 v=127
78268 On ch=8 n=g5 v=127
78388 Off ch=8 n=g5 v=127
78388 Off ch=3 n=d6 v=127
78389 On ch=1 n=c6 v=127
78389 On ch=11 n=a5 v=127
78509 Off ch=11 n=a5 v=127
78510 On ch=6 n=f5 v=127
78630 Off ch=6 n=f5 v=127
78630 Off ch=1 n=c6 v=127
78631 On ch=13 n=b5 v=127
78631 On ch=8 n=g5 v=127
78751 Off ch=8 n=g5 v=127
78752 On ch=11 n=a5 v=127
78872 Off ch=11 n=a5 v=127
78872 Off ch=13 n=b5 v=127
78873 On ch=8 n=g5 v=127
78873 On ch=1 n=c6 v=127
78993 Off ch=8 n=g5 v=127
78994 On ch=6 n=f5 v=127
79114 Off ch=6 n=f5 v=127
79114 Off ch=1 n=c6 v=127
79115 On ch=5 n=e5 v=127
79115 On ch=3 n=d6 v=127
79235 Off ch=5 n=e5 v=127
79236 On ch=3 n=d5 v=127
79356 Off ch=3 n=d5 v=127
79356 Off ch=3 n=d6 v=127
79357 On ch=1 n=c5 v=127
79357 On ch=5 n=e6 v=127
79477 Off ch=1 n=c5 v=127
79478 On ch=3 n=d5 v=127
79598 Off ch=3 n=d5 v=127
79599 On ch=5 n=e5 v=127
79599 On ch=1 n=c6 v=127
79660 Off ch=5 n=e6 v=127
79719 Off ch=5 n=e5 v=127
79720 On ch=6 n=f5 v=127
79840 Off ch=6 n=f5 v=127
79840 Off ch=1 n=c6 v=127
79841 On ch=8 n=g5 v=127
79841 On ch=13 n=b5 v=127
79961 Off ch=8 n=g5 v=127
79962 On ch=5 n=e5 v=127
80082 Off ch=5 n=e5 v=127
80082 Off ch=13 n=b5 v=127
80083 On ch=6 n=f5 v=127
80083 On ch=11 n=a5 v=127
80203 Off ch=6 n=f5 v=127
80204 On ch=8 n=g5 v=127
80324 Off ch=8 n=g5 v=127
80324 Off ch=11 n=a5 v=127
80325 On ch=13 n=b5 v=127
80325 On ch=6 n=f5 v=127
80445 Off ch=6 n=f5 v=127
80446 On ch=5 n=e5 v=127
80566 Off ch=5 n=e5 v=127
80566 Off ch=13 n=b5 v=127
80567 On ch=3 n=d5 v=127
80567 On ch=1 n=c6 v=127
80687 Off ch=3 n=d5 v=127
80688 On ch=1 n=c5 v=127
80808 Off ch=1 n=c5 v=127
80808 Off ch=1 n=c6 v=127
80809 On ch=13 n=b4 v=127
80809 On ch=3 n=d6 v=127
80929 Off ch=13 n=b4 v=127
80930 On ch=1 n=c5 v=127
81050 Off ch=1 n=c5 v=127
81051 On ch=3 n=d5 v=127
81051 On ch=13 n=b5 v=127
81112 Off ch=3 n=d6 v=127
81171 Off ch=3 n=d5 v=127
81172 On ch=5 n=e5 v=127
81292 Off ch=5 n=e5 v=127
81292 Off ch=13 n=b5 v=127
81293 On ch=6 n=f5 v=127
81293 On ch=11 n=a5 v=127
81413 Off ch=6 n=f5 v=127
81414 On ch=3 n=d5 v=127
81534 Off ch=3 n=d5 v=127
81534 Off ch=11 n=a5 v=127
81535 On ch=5 n=e5 v=127
81535 On ch=9 n=g#5 v=127
81655 Off ch=5 n=e5 v=127
81656 On ch=6 n=f5 v=127
81776 Off ch=6 n=f5 v=127
81776 Off ch=9 n=g#5 v=127
81777 On ch=11 n=a5 v=127
81777 On ch=5 n=e5 v=127
81897 Off ch=5 n=e5 v=127
81898 On ch=3 n=d5 v=127
82018 Off ch=3 n=d5 v=127
82018 Off ch=11 n=a5 v=127
82019 On ch=1 n=c5 v=127
82019 On ch=9 n=g#5 v=127
82139 Off ch=1 n=c5 v=127
82140 On ch=13 n=b4 v=127
82246 Off ch=9 n=g#5 v=127
82260 Off ch=13 n=b4 v=127
82261 On ch=11 n=a4 v=127
82261 On ch=11 n=a5 v=127
82381 Off ch=11 n=a5 v=127
82382 On ch=13 n=b5 v=127
82502 Off ch=13 n=b5 v=127
82502 Off ch=11 n=a4 v=127
82503 On ch=1 n=c6 v=127
82503 On ch=13 n=b4 v=127
82623 Off ch=1 n=c6 v=127
82624 On ch=3 n=d6 v=127
82744 Off ch=3 n=d6 v=127
82744 Off ch=13 n=b4 v=127
82745 On ch=5 n=e6 v=127
82745 On ch=1 n=c5 v=127
82865 Off ch=5 n=e6 v=127
82866 On ch=11 n=a5 v=127
82986 Off ch=11 n=a5 v=127
82986 Off ch=1 n=c5 v=127
82987 On ch=3 n=d5 v=127
82987 On ch=6 n=f6 v=127
83107 Off ch=6 n=f6 v=127
83108 On ch=5 n=e6 v=127
83228 Off ch=5 n=e6 v=127
83228 Off ch=3 n=d5 v=127
83229 On ch=5 n=e5 v=127
83229 On ch=3 n=d6 v=127
83349 Off ch=3 n=d6 v=127
83350 On ch=1 n=c6 v=127
83470 Off ch=1 n=c6 v=127
83470 Off ch=5 n=e5 v=127
83471 On ch=6 n=f5 v=127
83471 On ch=13 n=b5 v=127
83591 Off ch=13 n=b5 v=127
83592 On ch=11 n=a5 v=127
83712 Off ch=11 n=a5 v=127
83712 Off ch=6 n=f5 v=127
83713 On ch=5 n=e5 v=127
83713 On ch=9 n=g#5 v=127
83833 Off ch=5 n=e5 v=127
83834 On ch=7 n=f#5 v=127
83954 Off ch=7 n=f#5 v=127
83954 Off ch=9 n=g#5 v=127
83955 On ch=9 n=g#5 v=127
84075 Off ch=9 n=g#5 v=127
84076 On ch=11 n=a5 v=127
84196 Off ch=11 n=a5 v=127
84197 On ch=13 n=b5 v=127
84317 Off ch=13 n=b5 v=127
84318 On ch=1 n=c6 v=127
84438 Off ch=1 n=c6 v=127
84439 On ch=3 n=d6 v=127
84439 On ch=3 n=d5 v=127
84439 On ch=5 n=e4 v=127
84560 On ch=6 n=f6 v=127
84679 Off ch=3 n=d6 v=127
84680 Off ch=6 n=f6 v=127
84681 On ch=5 n=e6 v=127
84801 Off ch=5 n=e6 v=127
84802 On ch=3 n=d6 v=127
84922 Off ch=3 n=d6 v=127
84923 On ch=1 n=c6 v=127
85043 Off ch=1 n=c6 v=127
85044 On ch=13 n=b5 v=127
85164 Off ch=13 n=b5 v=127
85164 Off ch=5 n=e4 v=127
85164 Off ch=3 n=d5 v=127
85165 On ch=1 n=c6 v=127
85165 On ch=5 n=e4 v=127
85165 On ch=1 n=c5 v=127
85165 On ch=11 n=a4 v=127
85286 On ch=5 n=e6 v=127
85405 Off ch=1 n=c6 v=127
85406 Off ch=5 n=e6 v=127
85407 On ch=3 n=d6 v=127
85527 Off ch=3 n=d6 v=127
85528 On ch=1 n=c6 v=127
85648 Off ch=1 n=c6 v=127
85649 On ch=13 n=b5 v=127
85769 Off ch=13 n=b5 v=127
85770 On ch=11 n=a5 v=127
85890 Off ch=11 n=a5 v=127
85890 Off ch=11 n=a4 v=127
85890 Off ch=1 n=c5 v=127
85890 Off ch=5 n=e4 v=127
85891 On ch=13 n=b5 v=127
85891 On ch=5 n=e4 v=127
85891 On ch=3 n=d5 v=127
85891 On ch=13 n=b4 v=127
86012 On ch=3 n=d6 v=127
86131 Off ch=13 n=b5 v=127
86132 Off ch=3 n=d6 v=127
86133 On ch=1 n=c6 v=127
86253 Off ch=1 n=c6 v=127
86254 On ch=13 n=b5 v=127
86374 Off ch=13 n=b5 v=127
86375 On ch=11 n=a5 v=127
86495 Off ch=11 n=a5 v=127
86496 On ch=9 n=g#5 v=127
86616 Off ch=9 n=g#5 v=127
86616 Off ch=13 n=b4 v=127
86616 Off ch=3 n=d5 v=127
86616 Off ch=5 n=e4 v=127
86617 On ch=11 n=a5 v=127
86617 On ch=5 n=e4 v=127
86617 On ch=1 n=c5 v=127
86617 On ch=11 n=a4 v=127
86738 On ch=1 n=c6 v=127
86857 Off ch=11 n=a5 v=127
86858 Off ch=1 n=c6 v=127
86859 On ch=13 n=b5 v=127
86979 Off ch=13 n=b5 v=127
86980 On ch=11 n=a5 v=127
87100 Off ch=11 n=a5 v=127
87101 On ch=9 n=g#5 v=127
87221 Off ch=9 n=g#5 v=127
87222 On ch=7 n=f#5 v=127
87342 Off ch=7 n=f#5 v=127
87342 Off ch=11 n=a4 v=127
87342 Off ch=1 n=c5 v=127
87342 Off ch=5 n=e4 v=127
87343 On ch=5 n=e4 v=127
87343 On ch=7 n=f#5 v=127
87584 Off ch=7 n=f#5 v=127
87585 On ch=9 n=g#5 v=127
87806 Off ch=9 n=g#5 v=127
87827 On ch=13 n=b5 v=127
87827 On ch=3 n=d6 v=127
88068 Off ch=3 n=d6 v=127
88068 Off ch=13 n=b5 v=127
88069 On ch=11 n=a5 v=127
88069 On ch=3 n=d6 v=127
88130 On ch=1 n=c6 v=127
88149 Off ch=3 n=d6 v=127
88191 On ch=3 n=d6 v=127
88210 Off ch=1 n=c6 v=127
88252 On ch=1 n=c6 v=127
88271 Off ch=3 n=d6 v=127
88311 Off ch=11 n=a5 v=127
88311 Off ch=5 n=e4 v=127
88312 On ch=5 n=e5 v=127
88312 On ch=3 n=d6 v=127
88312 On ch=5 n=e4 v=127
88331 Off ch=1 n=c6 v=127
88373 On ch=1 n=c6 v=127
88392 Off ch=3 n=d6 v=127
88434 On ch=3 n=d6 v=127
88453 Off ch=1 n=c6 v=127
88495 On ch=1 n=c6 v=127
88514 Off ch=3 n=d6 v=127
88554 Off ch=1 n=c6 v=127
88554 Off ch=5 n=e4 v=127
88554 Off ch=5 n=e5 v=127
88555 On ch=6 n=f5 v=127
88555 On ch=13 n=b5 v=127
88555 On ch=3 n=d5 v=127
88744 Off ch=13 n=b5 v=127
88796 Off ch=3 n=d5 v=127
88796 Off ch=6 n=f5 v=127
88797 On ch=3 n=d5 v=127
88797 On ch=11 n=a5 v=127
88858 On ch=1 n=c5 v=127
88877 Off ch=3 n=d5 v=127
88919 On ch=3 n=d5 v=127
88938 Off ch=1 n=c5 v=127
88980 On ch=1 n=c5 v=127
88999 Off ch=3 n=d5 v=127
89039 Off ch=11 n=a5 v=127
89040 On ch=5 n=e5 v=127
89040 On ch=3 n=d5 v=127
89059 Off ch=1 n=c5 v=127
89101 On ch=1 n=c5 v=127
89120 Off ch=3 n=d5 v=127
89162 On ch=3 n=d5 v=127
89181 Off ch=1 n=c5 v=127
89223 On ch=1 n=c5 v=127
89242 Off ch=3 n=d5 v=127
89282 Off ch=1 n=c5 v=127
89282 Off ch=5 n=e5 v=127
89283 On ch=9 n=g#5 v=127
89283 On ch=3 n=d6 v=127
89283 On ch=13 n=b5 v=127
89283 On ch=13 n=b4 v=127
89524 Off ch=13 n=b4 v=127
89524 Off ch=13 n=b5 v=127
89524 Off ch=3 n=d6 v=127
89524 Off ch=9 n=g#5 v=127
89525 On ch=3 n=d6 v=127
89525 On ch=11 n=a5 v=127
89525 On ch=11 n=a4 v=127
89586 On ch=1 n=c6 v=127
89605 Off ch=3 n=d6 v=127
89647 On ch=3 n=d6 v=127
89666 Off ch=1 n=c6 v=127
89708 On ch=1 n=c6 v=127
89727 Off ch=3 n=d6 v=127
89767 Off ch=11 n=a4 v=127
89768 On ch=3 n=d6 v=127
89768 On ch=5 n=e4 v=127
89787 Off ch=1 n=c6 v=127
89829 On ch=1 n=c6 v=127
89848 Off ch=3 n=d6 v=127
89890 On ch=3 n=d6 v=127
89909 Off ch=1 n=c6 v=127
89951 On ch=1 n=c6 v=127
89970 Off ch=3 n=d6 v=127
90010 Off ch=1 n=c6 v=127
90010 Off ch=5 n=e4 v=127
90010 Off ch=11 n=a5 v=127
90011 On ch=3 n=d5 v=127
90011 On ch=9 n=g#5 v=127
90011 On ch=13 n=b5 v=127
90200 Off ch=13 n=b5 v=127
90252 Off ch=9 n=g#5 v=127
90252 Off ch=3 n=d5 v=127
90253 On ch=3 n=d5 v=127
90253 On ch=11 n=a5 v=127
90314 On ch=1 n=c5 v=127
90333 Off ch=3 n=d5 v=127
90375 On ch=3 n=d5 v=127
90394 Off ch=1 n=c5 v=127
90436 On ch=1 n=c5 v=127
90455 Off ch=3 n=d5 v=127
90495 Off ch=11 n=a5 v=127
90496 On ch=3 n=d5 v=127
90496 On ch=5 n=e5 v=127
90515 Off ch=1 n=c5 v=127
90557 On ch=1 n=c5 v=127
90576 Off ch=3 n=d5 v=127
90618 On ch=3 n=d5 v=127
90637 Off ch=1 n=c5 v=127
90679 On ch=1 n=c5 v=127
90698 Off ch=3 n=d5 v=127
90712 Off ch=5 n=e5 v=127
90739 Off ch=1 n=c5 v=127
90740 On ch=13 n=b4 v=127
90740 On ch=9 n=g#5 v=127
90740 On ch=6 n=f6 v=127
90981 Off ch=6 n=f6 v=127
90981 Off ch=9 n=g#5 v=127
90981 Off ch=13 n=b4 v=127
90982 On ch=6 n=f6 v=127
90982 On ch=11 n=a5 v=127
90982 On ch=1 n=c5 v=127
91043 On ch=5 n=e6 v=127
91062 Off ch=6 n=f6 v=127
91104 On ch=6 n=f6 v=127
91123 Off ch=5 n=e6 v=127
91165 On ch=5 n=e6 v=127
91184 Off ch=6 n=f6 v=127
91224 Off ch=1 n=c5 v=127
91225 On ch=6 n=f6 v=127
91225 On ch=5 n=e4 v=127
91244 Off ch=5 n=e6 v=127
91286 On ch=5 n=e6 v=127
91305 Off ch=6 n=f6 v=127
91347 On ch=6 n=f6 v=127
91366 Off ch=5 n=e6 v=127
91408 On ch=5 n=e6 v=127
91427 Off ch=6 n=f6 v=127
91467 Off ch=5 n=e6 v=127
91467 Off ch=5 n=e4 v=127
91467 Off ch=11 n=a5 v=127
91468 On ch=3 n=d6 v=127
91468 On ch=9 n=g#5 v=127
91468 On ch=13 n=b4 v=127
91683 Off ch=3 n=d6 v=127
91710 Off ch=13 n=b4 v=127
91710 Off ch=9 n=g#5 v=127
91711 On ch=1 n=c6 v=127
91711 On ch=11 n=a4 v=127
91831 Off ch=1 n=c6 v=127
91832 On ch=13 n=b5 v=127
91952 Off ch=13 n=b5 v=127
91952 Off ch=11 n=a4 v=127
91953 On ch=11 n=a5 v=127
91953 On ch=6 n=f4 v=127
92194 Off ch=6 n=f4 v=127
92195 On ch=11 n=a6 v=127
92195 On ch=1 n=c4 v=127
92432 Off ch=11 n=a5 v=127
92436 Off ch=1 n=c4 v=127
92436 Off ch=11 n=a6 v=127
92437 On ch=11 n=a5 v=127
92437 On ch=3 n=d4 v=127
92557 Off ch=11 n=a5 v=127
92558 On ch=13 n=b5 v=127
92678 Off ch=13 n=b5 v=127
92678 Off ch=3 n=d4 v=127
92679 On ch=1 n=c6 v=127
92679 On ch=5 n=e4 v=127
92740 On ch=13 n=b5 v=127
92759 Off ch=1 n=c6 v=127
92801 On ch=1 n=c6 v=127
92820 Off ch=13 n=b5 v=127
92862 On ch=13 n=b5 v=127
92881 Off ch=1 n=c6 v=127
92923 On ch=5 n=e3 v=127
92923 On ch=1 n=c6 v=127
92942 Off ch=13 n=b5 v=127
92984 On ch=13 n=b5 v=127
93003 Off ch=1 n=c6 v=127
93045 On ch=11 n=a5 v=127
93064 Off ch=13 n=b5 v=127
93161 Off ch=5 n=e4 v=127
93165 Off ch=11 n=a5 v=127
93165 Off ch=5 n=e3 v=127
93166 On ch=11 n=a3 v=127
93166 On ch=11 n=a4 v=127
93409 On ch=11 n=a6 v=127
93409 On ch=1 n=c6 v=127
93650 Off ch=1 n=c6 v=127
93650 Off ch=11 n=a6 v=127
93651 On ch=11 n=a5 v=127
93651 On ch=6 n=f6 v=127
93798 Off ch=11 n=a4 v=127
93798 Off ch=11 n=a3 v=127
93893 Off ch=6 n=f6 v=127
93893 Off ch=11 n=a5 v=127
93894 On ch=6 n=f5 v=127
93894 On ch=3 n=d6 v=127
93894 On ch=3 n=d3 v=127
93894 On ch=3 n=d4 v=127
94135 Off ch=3 n=d6 v=127
94135 Off ch=6 n=f5 v=127
94136 On ch=3 n=d5 v=127
94136 On ch=13 n=b5 v=127
94377 Off ch=13 n=b5 v=127
94377 Off ch=3 n=d5 v=127
94377 Off ch=3 n=d4 v=127
94377 Off ch=3 n=d3 v=127
94378 On ch=13 n=b4 v=127
94378 On ch=9 n=g#5 v=127
94378 On ch=5 n=e4 v=127
94378 On ch=5 n=e3 v=127
94619 Off ch=5 n=e3 v=127
94619 Off ch=5 n=e4 v=127
94619 Off ch=9 n=g#5 v=127
94619 Off ch=13 n=b4 v=127
94620 On ch=3 n=d4 v=127
94681 On ch=1 n=c4 v=127
94700 Off ch=3 n=d4 v=127
94742 On ch=3 n=d4 v=127
94761 Off ch=1 n=c4 v=127
94803 On ch=1 n=c4 v=127
94822 Off ch=3 n=d4 v=127
94864 On ch=11 n=a6 v=127
94864 On ch=1 n=c6 v=127
94864 On ch=13 n=b3 v=127
94883 Off ch=1 n=c4 v=127
95105 Off ch=13 n=b3 v=127
95105 Off ch=1 n=c6 v=127
95105 Off ch=11 n=a6 v=127
95106 On ch=11 n=a3 v=127
95106 On ch=11 n=a5 v=127
95106 On ch=6 n=f6 v=127
95347 Off ch=6 n=f6 v=127
95347 Off ch=11 n=a5 v=127
95347 Off ch=11 n=a3 v=127
95348 On ch=3 n=d3 v=127
95348 On ch=3 n=d4 v=127
95348 On ch=3 n=d6 v=127
95348 On ch=6 n=f5 v=127
95589 Off ch=6 n=f5 v=127
95589 Off ch=3 n=d6 v=127
95590 On ch=13 n=b5 v=127
95590 On ch=3 n=d5 v=127
95831 Off ch=3 n=d5 v=127
95831 Off ch=13 n=b5 v=127
95831 Off ch=3 n=d4 v=127
95831 Off ch=3 n=d3 v=127
95832 On ch=5 n=e4 v=127
95832 On ch=5 n=e3 v=127
95832 On ch=9 n=g#5 v=127
95832 On ch=13 n=b4 v=127
96073 Off ch=13 n=b4 v=127
96073 Off ch=9 n=g#5 v=127
96073 Off ch=5 n=e3 v=127
96073 Off ch=5 n=e4 v=127
96074 On ch=3 n=d4 v=127
96135 On ch=1 n=c4 v=127
96154 Off ch=3 n=d4 v=127
96196 On ch=3 n=d4 v=127
96215 Off ch=1 n=c4 v=127
96257 On ch=1 n=c4 v=127
96276 Off ch=3 n=d4 v=127
96318 On ch=13 n=b3 v=127
96318 On ch=11 n=a6 v=127
96318 On ch=1 n=c6 v=127
96337 Off ch=1 n=c4 v=127
96559 Off ch=1 n=c6 v=127
96559 Off ch=11 n=a6 v=127
96559 Off ch=13 n=b3 v=127
96560 On ch=6 n=f6 v=127
96560 On ch=11 n=a5 v=127
96560 On ch=11 n=a3 v=127
96801 Off ch=11 n=a3 v=127
96801 Off ch=11 n=a5 v=127
96801 Off ch=6 n=f6 v=127
96802 On ch=6 n=f5 v=127
96802 On ch=3 n=d6 v=127
96802 On ch=3 n=d3 v=127
96802 On ch=3 n=d4 v=127
97043 Off ch=3 n=d6 v=127
97043 Off ch=6 n=f5 v=127
97044 On ch=13 n=b5 v=127
97044 On ch=3 n=d5 v=127
97285 Off ch=3 n=d5 v=127
97285 Off ch=13 n=b5 v=127
97285 Off ch=3 n=d4 v=127
97285 Off ch=3 n=d3 v=127
97286 On ch=9 n=g#5 v=127
97286 On ch=5 n=e4 v=127
97286 On ch=5 n=e3 v=127
97286 On ch=13 n=b4 v=127
97527 Off ch=13 n=b4 v=127
97527 Off ch=5 n=e3 v=127
97527 Off ch=5 n=e4 v=127
97527 Off ch=9 n=g#5 v=127
97528 On ch=11 n=a5 v=127
97528 On ch=1 n=c5 v=127
97528 On ch=3 n=d4 v=127
97589 On ch=1 n=c4 v=127
97608 Off ch=3 n=d4 v=127
97648 Off ch=11 n=a5 v=127
97649 On ch=3 n=d4 v=127
97649 On ch=13 n=b5 v=127
97668 Off ch=1 n=c4 v=127
97710 On ch=1 n=c4 v=127
97729 Off ch=3 n=d4 v=127
97769 Off ch=13 n=b5 v=127
97769 Off ch=1 n=c5 v=127
97770 On ch=1 n=c6 v=127
97770 On ch=13 n=b3 v=127
97789 Off ch=1 n=c4 v=127
97890 Off ch=1 n=c6 v=127
97891 On ch=3 n=d6 v=127
98011 Off ch=3 n=d6 v=127
98011 Off ch=13 n=b3 v=127
98012 On ch=5 n=e6 v=127
98012 On ch=11 n=a3 v=127
98093 On ch=3 n=d6 v=127
98126 Off ch=5 n=e6 v=127
98173 Off ch=3 n=d6 v=127
98174 On ch=1 n=c6 v=127
98254 Off ch=1 n=c6 v=127
98254 Off ch=11 n=a3 v=127
98255 On ch=3 n=d6 v=127
98255 On ch=3 n=d4 v=127
98336 On ch=1 n=c6 v=127
98369 Off ch=3 n=d6 v=127
98416 Off ch=1 n=c6 v=127
98417 On ch=13 n=b5 v=127
98497 Off ch=13 n=b5 v=127
98497 Off ch=3 n=d4 v=127
98498 On ch=1 n=c6 v=127
98498 On ch=5 n=e4 v=127
98579 On ch=13 n=b5 v=127
98612 Off ch=1 n=c6 v=127
98659 Off ch=13 n=b5 v=127
98660 On ch=11 n=a5 v=127
98740 Off ch=11 n=a5 v=127
98741 On ch=13 n=b5 v=127
98741 On ch=5 n=e3 v=127
98822 On ch=11 n=a5 v=127
98855 Off ch=13 n=b5 v=127
98863 Off ch=5 n=e4 v=127
98902 Off ch=11 n=a5 v=127
98903 On ch=9 n=g#5 v=127
98983 Off ch=9 n=g#5 v=127
98983 Off ch=5 n=e3 v=127
98984 On ch=11 n=a5 v=127
98984 On ch=11 n=a2 v=127
99105 On ch=5 n=e6 v=127
99166 Off ch=11 n=a5 v=127
99225 Off ch=5 n=e6 v=127
99226 On ch=11 n=a3 v=127
99226 On ch=1 n=c6 v=127
99346 Off ch=1 n=c6 v=127
99346 Off ch=11 n=a2 v=127
99347 On ch=11 n=a5 v=127
99467 Off ch=11 n=a5 v=127
99468 On ch=11 n=a4 v=127
99468 On ch=5 n=e6 v=127
99588 Off ch=11 n=a3 v=127
99589 On ch=1 n=c6 v=127
99619 Off ch=5 n=e6 v=127
99709 Off ch=1 n=c6 v=127
99709 Off ch=11 n=a4 v=127
99710 On ch=6 n=f6 v=127
99710 On ch=11 n=a2 v=127
99831 On ch=3 n=d6 v=127
99892 Off ch=6 n=f6 v=127
99951 Off ch=3 n=d6 v=127
99952 On ch=11 n=a5 v=127
99952 On ch=11 n=a3 v=127
100072 Off ch=11 n=a5 v=127
100072 Off ch=11 n=a2 v=127
100073 On ch=3 n=d6 v=127
100193 Off ch=3 n=d6 v=127
100194 On ch=9 n=g#6 v=127
100194 On ch=11 n=a4 v=127
100314 Off ch=11 n=a3 v=127
100315 On ch=5 n=e6 v=127
100345 Off ch=9 n=g#6 v=127
100435 Off ch=5 n=e6 v=127
100435 Off ch=11 n=a4 v=127
100436 On ch=11 n=a6 v=127
100436 On ch=11 n=a2 v=127
100557 On ch=5 n=e6 v=127
100618 Off ch=11 n=a6 v=127
100677 Off ch=5 n=e6 v=127
100678 On ch=1 n=c6 v=127
100678 On ch=11 n=a3 v=127
100798 Off ch=1 n=c6 v=127
100798 Off ch=11 n=a2 v=127
100799 On ch=11 n=a5 v=127
100919 Off ch=11 n=a5 v=127
100920 On ch=5 n=e6 v=127
100920 On ch=11 n=a4 v=127
101040 Off ch=11 n=a3 v=127
101041 On ch=1 n=c6 v=127
101071 Off ch=5 n=e6 v=127
101161 Off ch=1 n=c6 v=127
101161 Off ch=11 n=a4 v=127
101162 On ch=6 n=f6 v=127
101162 On ch=11 n=a2 v=127
101283 On ch=3 n=d6 v=127
101344 Off ch=6 n=f6 v=127
101403 Off ch=3 n=d6 v=127
101404 On ch=11 n=a3 v=127
101404 On ch=11 n=a5 v=127
101524 Off ch=11 n=a5 v=127
101524 Off ch=11 n=a2 v=127
101525 On ch=3 n=d6 v=127
101645 Off ch=3 n=d6 v=127
101646 On ch=9 n=g#6 v=127
101646 On ch=11 n=a4 v=127
101766 Off ch=11 n=a3 v=127
101767 On ch=5 n=e6 v=127
101797 Off ch=9 n=g#6 v=127
101887 Off ch=5 n=e6 v=127
101887 Off ch=11 n=a4 v=127
101888 On ch=11 n=a6 v=127
101888 On ch=11 n=a2 v=127
102009 On ch=5 n=e6 v=127
102070 Off ch=11 n=a6 v=127
102129 Off ch=5 n=e6 v=127
102130 On ch=1 n=c6 v=127
102130 On ch=11 n=a3 v=127
102250 Off ch=1 n=c6 v=127
102250 Off ch=11 n=a2 v=127
102251 On ch=11 n=a5 v=127
102371 Off ch=11 n=a5 v=127
102372 On ch=5 n=e6 v=127
102372 On ch=11 n=a4 v=127
102492 Off ch=11 n=a3 v=127
102493 On ch=1 n=c6 v=127
102523 Off ch=5 n=e6 v=127
102613 Off ch=1 n=c6 v=127
102613 Off ch=11 n=a4 v=127
102614 On ch=6 n=f6 v=127
102614 On ch=11 n=a2 v=127
102735 On ch=3 n=d6 v=127
102796 Off ch=6 n=f6 v=127
102855 Off ch=3 n=d6 v=127
102856 On ch=11 n=a5 v=127
102856 On ch=11 n=a3 v=127
102976 Off ch=11 n=a5 v=127
102976 Off ch=11 n=a2 v=127
102977 On ch=3 n=d6 v=127
103097 Off ch=3 n=d6 v=127
103098 On ch=9 n=g#6 v=127
103098 On ch=11 n=a4 v=127
103218 Off ch=9 n=g#6 v=127
103218 Off ch=11 n=a3 v=127
103219 On ch=5 n=e6 v=127
103339 Off ch=5 n=e6 v=127
103339 Off ch=11 n=a4 v=127
103340 On ch=11 n=a6 v=127
103340 On ch=11 n=a3 v=127
103460 Off ch=11 n=a6 v=127
103461 On ch=8 n=g6 v=127
103581 Off ch=8 n=g6 v=127
103581 Off ch=11 n=a3 v=127
103582 On ch=6 n=f6 v=127
103582 On ch=13 n=b3 v=127
103702 Off ch=6 n=f6 v=127
103703 On ch=5 n=e6 v=127
103823 Off ch=5 n=e6 v=127
103823 Off ch=13 n=b3 v=127
103824 On ch=3 n=d6 v=127
103824 On ch=1 n=c4 v=127
103944 Off ch=3 n=d6 v=127
103945 On ch=1 n=c6 v=127
104065 Off ch=1 n=c6 v=127
104065 Off ch=1 n=c4 v=127
104066 On ch=13 n=b5 v=127
104066 On ch=3 n=d4 v=127
104146 Off ch=13 n=b5 v=127
104147 On ch=1 n=c6 v=127
104227 Off ch=1 n=c6 v=127
104228 On ch=3 n=d6 v=127
104308 Off ch=3 n=d6 v=127
104308 Off ch=3 n=d4 v=127
104309 On ch=1 n=c6 v=127
104309 On ch=5 n=e4 v=127
104429 Off ch=1 n=c6 v=127
104430 On ch=13 n=b5 v=127
104550 Off ch=13 n=b5 v=127
104551 On ch=5 n=e3 v=127
104551 On ch=11 n=a5 v=127
104671 Off ch=11 n=a5 v=127
104672 Off ch=5 n=e4 v=127
104672 On ch=9 n=g#5 v=127
104792 Off ch=9 n=g#5 v=127
104792 Off ch=5 n=e3 v=127
104793 On ch=11 n=a2 v=127
104914 On ch=5 n=e6 v=127
105034 Off ch=5 n=e6 v=127
105035 On ch=1 n=c6 v=127
105035 On ch=11 n=a3 v=127
105155 Off ch=1 n=c6 v=127
105155 Off ch=11 n=a2 v=127
105156 On ch=11 n=a5 v=127
105276 Off ch=11 n=a5 v=127
105277 On ch=5 n=e6 v=127
105277 On ch=11 n=a4 v=127
105397 Off ch=11 n=a3 v=127
105398 On ch=1 n=c6 v=127
105428 Off ch=5 n=e6 v=127
105518 Off ch=1 n=c6 v=127
105518 Off ch=11 n=a4 v=127
105519 On ch=6 n=f6 v=127
105519 On ch=11 n=a2 v=127
105640 On ch=3 n=d6 v=127
105760 Off ch=3 n=d6 v=127
105761 On ch=11 n=a5 v=127
105761 On ch=11 n=a3 v=127
105796 Off ch=6 n=f6 v=127
105881 Off ch=11 n=a5 v=127
105881 Off ch=11 n=a2 v=127
105882 On ch=3 n=d6 v=127
106002 Off ch=3 n=d6 v=127
106003 On ch=9 n=g#6 v=127
106003 On ch=11 n=a4 v=127
106123 Off ch=11 n=a3 v=127
106124 On ch=5 n=e6 v=127
106154 Off ch=9 n=g#6 v=127
106244 Off ch=5 n=e6 v=127
106244 Off ch=11 n=a4 v=127
106245 On ch=11 n=a6 v=127
106245 On ch=11 n=a2 v=127
106366 On ch=5 n=e6 v=127
106486 Off ch=5 n=e6 v=127
106487 On ch=1 n=c6 v=127
106487 On ch=11 n=a3 v=127
106522 Off ch=11 n=a6 v=127
106607 Off ch=1 n=c6 v=127
106607 Off ch=11 n=a2 v=127
106608 On ch=11 n=a5 v=127
106728 Off ch=11 n=a5 v=127
106729 On ch=5 n=e6 v=127
106729 On ch=11 n=a4 v=127
106849 Off ch=11 n=a3 v=127
106850 On ch=1 n=c6 v=127
106880 Off ch=5 n=e6 v=127
106970 Off ch=1 n=c6 v=127
106970 Off ch=11 n=a4 v=127
106971 On ch=6 n=f6 v=127
106971 On ch=11 n=a2 v=127
107092 On ch=3 n=d6 v=127
107212 Off ch=3 n=d6 v=127
107213 On ch=11 n=a5 v=127
107213 On ch=11 n=a3 v=127
107248 Off ch=6 n=f6 v=127
107333 Off ch=11 n=a5 v=127
107333 Off ch=11 n=a2 v=127
107334 On ch=3 n=d6 v=127
107454 Off ch=3 n=d6 v=127
107455 On ch=9 n=g#6 v=127
107455 On ch=11 n=a4 v=127
107575 Off ch=11 n=a3 v=127
107576 On ch=5 n=e6 v=127
107606 Off ch=9 n=g#6 v=127
107696 Off ch=5 n=e6 v=127
107696 Off ch=11 n=a4 v=127
107697 On ch=11 n=a6 v=127
107697 On ch=11 n=a2 v=127
107818 On ch=5 n=e6 v=127
107938 Off ch=5 n=e6 v=127
107939 On ch=1 n=c6 v=127
107939 On ch=11 n=a3 v=127
108000 Off ch=11 n=a6 v=127
108059 Off ch=1 n=c6 v=127
108059 Off ch=11 n=a2 v=127
108060 On ch=11 n=a5 v=127
108180 Off ch=11 n=a5 v=127
108181 On ch=5 n=e6 v=127
108181 On ch=11 n=a4 v=127
108301 Off ch=11 n=a3 v=127
108302 On ch=1 n=c6 v=127
108332 Off ch=5 n=e6 v=127
108422 Off ch=1 n=c6 v=127
108422 Off ch=11 n=a4 v=127
108423 On ch=6 n=f6 v=127
108423 On ch=11 n=a2 v=127
108544 On ch=3 n=d6 v=127
108664 Off ch=3 n=d6 v=127
108665 On ch=11 n=a5 v=127
108665 On ch=11 n=a3 v=127
108776 Off ch=6 n=f6 v=127
108785 Off ch=11 n=a5 v=127
108785 Off ch=11 n=a2 v=127
108786 On ch=3 n=d6 v=127
108906 Off ch=3 n=d6 v=127
108907 On ch=9 n=g#6 v=127
108907 On ch=13 n=b6 v=127
108907 On ch=11 n=a4 v=127
109027 Off ch=13 n=b6 v=127
109027 Off ch=9 n=g#6 v=127
109027 Off ch=11 n=a3 v=127
109028 On ch=5 n=e6 v=127
109087 Off ch=11 n=a4 v=127
109140 Off ch=5 n=e6 v=127
109149 On ch=11 n=a3 v=127
109149 On ch=11 n=a6 v=127
109149 On ch=1 n=c7 v=127
109149 On ch=11 n=a2 v=127
109269 Off ch=1 n=c7 v=127
109270 On ch=13 n=b6 v=127
109331 Off ch=11 n=a6 v=127
109390 Off ch=13 n=b6 v=127
109390 Off ch=11 n=a2 v=127
109390 Off ch=11 n=a3 v=127
109391 On ch=13 n=b3 v=127
109391 On ch=11 n=a6 v=127
109391 On ch=13 n=b2 v=127
109511 Off ch=11 n=a6 v=127
109512 On ch=8 n=g6 v=127
109632 Off ch=8 n=g6 v=127
109632 Off ch=13 n=b2 v=127
109632 Off ch=13 n=b3 v=127
109633 On ch=6 n=f6 v=127
109633 On ch=1 n=c4 v=127
109633 On ch=1 n=c3 v=127
109753 Off ch=6 n=f6 v=127
109754 On ch=5 n=e6 v=127
109874 Off ch=5 n=e6 v=127
109874 Off ch=1 n=c3 v=127
109874 Off ch=1 n=c4 v=127
109875 On ch=3 n=d4 v=127
109875 On ch=3 n=d3 v=127
109875 On ch=3 n=d6 v=127
109995 Off ch=3 n=d6 v=127
109996 On ch=1 n=c6 v=127
110116 Off ch=1 n=c6 v=127
110116 Off ch=3 n=d3 v=127
110116 Off ch=3 n=d4 v=127
110117 On ch=13 n=b5 v=127
110117 On ch=5 n=e4 v=127
110117 On ch=5 n=e3 v=127
110237 Off ch=13 n=b5 v=127
110238 On ch=11 n=a5 v=127
110358 Off ch=11 n=a5 v=127
110358 Off ch=5 n=e3 v=127
110358 Off ch=5 n=e4 v=127
110359 On ch=9 n=g#5 v=127
110359 On ch=6 n=f4 v=127
110359 On ch=6 n=f3 v=127
110479 Off ch=9 n=g#5 v=127
110480 On ch=11 n=a5 v=127
110600 Off ch=11 n=a5 v=127
110600 Off ch=6 n=f3 v=127
110600 Off ch=6 n=f4 v=127
110601 On ch=13 n=b5 v=127
110601 On ch=5 n=e3 v=127
110601 On ch=5 n=e4 v=127
110722 On ch=6 n=f5 v=127
110842 Off ch=6 n=f5 v=127
110842 Off ch=5 n=e4 v=127
110842 Off ch=5 n=e3 v=127
110843 On ch=5 n=e5 v=127
110843 On ch=7 n=f#3 v=127
110843 On ch=7 n=f#4 v=127
110954 Off ch=13 n=b5 v=127
110963 Off ch=5 n=e5 v=127
110964 On ch=3 n=d5 v=127
111084 Off ch=3 n=d5 v=127
111084 Off ch=7 n=f#4 v=127
111084 Off ch=7 n=f#3 v=127
111085 On ch=1 n=c5 v=127
111085 On ch=9 n=g#4 v=127
111085 On ch=9 n=g#3 v=127
111205 Off ch=1 n=c5 v=127
111206 On ch=13 n=b4 v=127
111306 Off ch=13 n=b4 v=127
111326 Off ch=9 n=g#3 v=127
111326 Off ch=9 n=g#4 v=127
111337 On ch=11 n=a3 v=127
111337 On ch=11 n=a5 v=127
111337 On ch=1 n=c5 v=127
111337 On ch=11 n=a4 v=127
111518 Off ch=1 n=c5 v=127
111518 Off ch=11 n=a5 v=127
111579 Off ch=11 n=a4 v=127
111579 Off ch=11 n=a3 v=127
111600 On ch=3 n=d4 v=127
111600 On ch=3 n=d3 v=127
111600 On ch=3 n=d5 v=127
111600 On ch=13 n=b5 v=127
111781 Off ch=13 n=b5 v=127
111781 Off ch=3 n=d5 v=127
111842 Off ch=3 n=d3 v=127
111842 Off ch=3 n=d4 v=127
111863 On ch=13 n=b4 v=127
111863 On ch=5 n=e4 v=127
111863 On ch=9 n=g#5 v=127
111863 On ch=5 n=e3 v=127
112044 Off ch=9 n=g#5 v=127
112044 Off ch=13 n=b4 v=127
112105 Off ch=5 n=e3 v=127
112105 Off ch=5 n=e4 v=127
112126 On ch=9 n=g#5 v=127
112126 On ch=11 n=a4 v=127
112126 On ch=11 n=a3 v=127
112528 Off ch=9 n=g#5 v=127
112533 On ch=11 n=a5 v=127
114084 Off ch=11 n=a3 v=127
114084 Off ch=11 n=a4 v=127
114111 Off ch=11 n=a5 v=127
118272 Meta TrkEnd
TrkEnd
