MFile 0 1 384
MTrk
0 Meta Copyright "(C) John Sankey 1998"
0 PrCh ch=1 p=6
0 Pb ch=1 v=8192
0 PrCh ch=2 p=6
0 Pb ch=2 v=7602
0 PrCh ch=3 p=6
0 Pb ch=3 v=7920
0 PrCh ch=4 p=6
0 Pb ch=4 v=7839
0 PrCh ch=5 p=6
0 Pb ch=5 v=7632
0 PrCh ch=6 p=6
0 Pb ch=6 v=8112
0 PrCh ch=7 p=6
0 Pb ch=7 v=7567
0 PrCh ch=8 p=6
0 Pb ch=8 v=8062
0 PrCh ch=9 p=6
0 Pb ch=9 v=7680
0 PrCh ch=11 p=6
0 Pb ch=11 v=7728
0 PrCh ch=12 p=6
0 Pb ch=12 v=7984
0 PrCh ch=13 p=6
0 Pb ch=13 v=7639
0 Tempo 500000
65 On ch=3 n=d5 v=127
65 On ch=8 n=g4 v=127
65 On ch=8 n=g6 v=127
414 On ch=12 n=a#5 v=127
587 Off ch=12 n=a#5 v=127
587 Off ch=8 n=g4 v=127
588 On ch=11 n=a5 v=127
588 On ch=3 n=d4 v=127
936 Off ch=8 n=g6 v=127
937 On ch=11 n=a6 v=127
1110 Off ch=11 n=a6 v=127
1110 Off ch=3 n=d5 v=127
1111 On ch=1 n=c5 v=127
1111 On ch=7 n=f#6 v=127
1459 Off ch=11 n=a5 v=127
1460 On ch=1 n=c6 v=127
1633 Off ch=7 n=f#6 v=127
1633 Off ch=1 n=c5 v=127
1633 Off ch=3 n=d4 v=127
1634 On ch=3 n=d5 v=127
1634 On ch=8 n=g4 v=127
1634 On ch=8 n=g6 v=127
1759 Off ch=1 n=c6 v=127
1983 On ch=3 n=d6 v=127
2156 Off ch=3 n=d6 v=127
2157 On ch=12 n=a#5 v=127
2479 Off ch=8 n=g4 v=127
2499 Off ch=8 n=g6 v=127
2504 Off ch=12 n=a#5 v=127
2505 On ch=1 n=c6 v=127
2505 On ch=11 n=a4 v=127
2678 Off ch=11 n=a4 v=127
2678 Off ch=1 n=c6 v=127
2679 On ch=3 n=d6 v=127
2679 On ch=12 n=a#4 v=127
3027 Off ch=12 n=a#4 v=127
3027 Off ch=3 n=d6 v=127
3028 On ch=5 n=e6 v=127
3028 On ch=8 n=g4 v=127
3201 Off ch=8 n=g4 v=127
3201 Off ch=5 n=e6 v=127
3201 Off ch=3 n=d5 v=127
3202 On ch=1 n=c5 v=127
3202 On ch=11 n=a4 v=127
3202 On ch=6 n=f6 v=127
3551 On ch=1 n=c6 v=127
3724 Off ch=1 n=c6 v=127
3724 Off ch=11 n=a4 v=127
3724 Off ch=1 n=c5 v=127
3725 On ch=12 n=a#5 v=127
3725 On ch=3 n=d5 v=127
3725 On ch=8 n=g4 v=127
4073 Off ch=6 n=f6 v=127
4074 On ch=8 n=g6 v=127
4247 Off ch=8 n=g6 v=127
4247 Off ch=3 n=d5 v=127
4248 On ch=5 n=e5 v=127
4248 On ch=5 n=e6 v=127
4596 Off ch=12 n=a#5 v=127
4597 On ch=12 n=a#5 v=127
4770 Off ch=5 n=e6 v=127
4770 Off ch=5 n=e5 v=127
4770 Off ch=8 n=g4 v=127
4771 On ch=6 n=f5 v=127
4771 On ch=6 n=f4 v=127
4771 On ch=6 n=f6 v=127
4951 Off ch=12 n=a#5 v=127
5120 On ch=1 n=c6 v=127
5293 Off ch=1 n=c6 v=127
5293 Off ch=6 n=f4 v=127
5294 On ch=11 n=a5 v=127
5294 On ch=6 n=f4 v=127
5636 Off ch=6 n=f6 v=127
5641 Off ch=6 n=f4 v=127
5641 Off ch=11 n=a5 v=127
5642 On ch=12 n=a#5 v=127
5642 On ch=8 n=g4 v=127
5815 Off ch=8 n=g4 v=127
5815 Off ch=12 n=a#5 v=127
5816 On ch=1 n=c6 v=127
5816 On ch=11 n=a4 v=127
5996 Off ch=6 n=f5 v=127
6164 Off ch=11 n=a4 v=127
6164 Off ch=1 n=c6 v=127
6165 On ch=3 n=d6 v=127
6165 On ch=12 n=a#4 v=127
6338 Off ch=12 n=a#4 v=127
6338 Off ch=3 n=d6 v=127
6339 On ch=8 n=g5 v=127
6339 On ch=1 n=c5 v=127
6339 On ch=4 n=d#6 v=127
6687 Off ch=8 n=g5 v=127
6688 On ch=11 n=a5 v=127
6861 Off ch=11 n=a5 v=127
6861 Off ch=1 n=c5 v=127
6862 On ch=12 n=a#5 v=127
6862 On ch=3 n=d5 v=127
7210 Off ch=4 n=d#6 v=127
7211 On ch=3 n=d6 v=127
7380 Off ch=3 n=d5 v=127
7384 Off ch=3 n=d6 v=127
7384 Off ch=12 n=a#5 v=127
7385 On ch=8 n=g5 v=127
7385 On ch=4 n=d#5 v=127
7385 On ch=1 n=c6 v=127
7733 Off ch=1 n=c6 v=127
7734 On ch=12 n=a#5 v=127
7907 Off ch=12 n=a#5 v=127
7907 Off ch=8 n=g5 v=127
7908 On ch=6 n=f5 v=127
7908 On ch=11 n=a5 v=127
8256 Off ch=4 n=d#5 v=127
8257 On ch=1 n=c5 v=127
8430 Off ch=1 n=c5 v=127
8430 Off ch=11 n=a5 v=127
8431 On ch=3 n=d5 v=127
8431 On ch=12 n=a#5 v=127
8779 Off ch=6 n=f5 v=127
8780 On ch=6 n=f5 v=127
8953 Off ch=6 n=f5 v=127
8953 Off ch=3 n=d5 v=127
8954 On ch=4 n=d#5 v=127
8954 On ch=1 n=c5 v=127
9129 Off ch=12 n=a#5 v=127
9304 On ch=11 n=a5 v=127
9477 Off ch=1 n=c5 v=127
9477 Off ch=4 n=d#5 v=127
9478 On ch=3 n=d5 v=127
9478 On ch=12 n=a#4 v=127
9826 Off ch=11 n=a5 v=127
9827 On ch=8 n=g5 v=127
10000 Off ch=12 n=a#4 v=127
10000 Off ch=3 n=d5 v=127
10001 On ch=1 n=c5 v=127
10001 On ch=11 n=a4 v=127
10349 Off ch=8 n=g5 v=127
10350 On ch=7 n=f#5 v=127
10523 Off ch=11 n=a4 v=127
10523 Off ch=1 n=c5 v=127
10524 On ch=3 n=d5 v=127
10524 On ch=12 n=a#4 v=127
10524 On ch=8 n=g4 v=127
10872 Off ch=7 n=f#5 v=127
10873 On ch=8 n=g5 v=127
11046 Off ch=8 n=g4 v=127
11046 Off ch=12 n=a#4 v=127
11046 Off ch=3 n=d5 v=127
11047 On ch=3 n=d5 v=127
11047 On ch=11 n=a4 v=127
11047 On ch=3 n=d4 v=127
11395 Off ch=8 n=g5 v=127
11396 On ch=11 n=a5 v=127
11569 Off ch=11 n=a5 v=127
11569 Off ch=3 n=d5 v=127
11570 On ch=3 n=d5 v=127
11919 On ch=1 n=c5 v=127
12091 Off ch=1 n=c5 v=127
12092 Off ch=11 n=a4 v=127
12093 On ch=1 n=c5 v=127
12096 Off ch=3 n=d4 v=127
12266 Off ch=1 n=c5 v=127
12267 Off ch=3 n=d5 v=127
12267 On ch=12 n=a#4 v=127
12440 Off ch=12 n=a#4 v=127
12441 On ch=11 n=a4 v=127
12614 Off ch=11 n=a4 v=127
12615 On ch=3 n=d5 v=127
12615 On ch=8 n=g4 v=127
12615 On ch=12 n=a#4 v=127
12615 On ch=8 n=g6 v=127
12964 On ch=12 n=a#5 v=127
13137 Off ch=12 n=a#5 v=127
13137 Off ch=12 n=a#4 v=127
13137 Off ch=8 n=g4 v=127
13138 On ch=11 n=a5 v=127
13138 On ch=3 n=d4 v=127
13138 On ch=11 n=a4 v=127
13486 Off ch=8 n=g6 v=127
13487 On ch=11 n=a6 v=127
13660 Off ch=11 n=a6 v=127
13660 Off ch=3 n=d5 v=127
13661 On ch=1 n=c5 v=127
13661 On ch=7 n=f#6 v=127
14009 Off ch=11 n=a5 v=127
14010 On ch=1 n=c6 v=127
14183 Off ch=7 n=f#6 v=127
14183 Off ch=1 n=c5 v=127
14183 Off ch=11 n=a4 v=127
14183 Off ch=3 n=d4 v=127
14184 Off ch=1 n=c6 v=127
14184 On ch=3 n=d5 v=127
14184 On ch=8 n=g4 v=127
14184 On ch=8 n=g6 v=127
14533 On ch=3 n=d6 v=127
14706 Off ch=3 n=d6 v=127
14706 Off ch=8 n=g6 v=127
14707 On ch=12 n=a#5 v=127
15055 Off ch=8 n=g4 v=127
15056 On ch=1 n=c6 v=127
15056 On ch=11 n=a4 v=127
15229 Off ch=11 n=a4 v=127
15229 Off ch=1 n=c6 v=127
15230 On ch=3 n=d6 v=127
15230 On ch=12 n=a#4 v=127
15490 Off ch=12 n=a#5 v=127
15577 Off ch=12 n=a#4 v=127
15577 Off ch=3 n=d6 v=127
15578 On ch=5 n=e6 v=127
15578 On ch=8 n=g4 v=127
15751 Off ch=8 n=g4 v=127
15751 Off ch=5 n=e6 v=127
15751 Off ch=3 n=d5 v=127
15752 On ch=1 n=c5 v=127
15752 On ch=11 n=a4 v=127
15752 On ch=6 n=f6 v=127
16101 On ch=1 n=c6 v=127
16274 Off ch=1 n=c6 v=127
16274 Off ch=11 n=a4 v=127
16274 Off ch=1 n=c5 v=127
16275 On ch=12 n=a#5 v=127
16275 On ch=3 n=d5 v=127
16275 On ch=8 n=g4 v=127
16623 Off ch=6 n=f6 v=127
16624 On ch=8 n=g6 v=127
16797 Off ch=8 n=g6 v=127
16797 Off ch=3 n=d5 v=127
16798 On ch=5 n=e5 v=127
16798 On ch=5 n=e6 v=127
17146 Off ch=12 n=a#5 v=127
17147 On ch=12 n=a#5 v=127
17320 Off ch=12 n=a#5 v=127
17320 Off ch=5 n=e6 v=127
17320 Off ch=5 n=e5 v=127
17320 Off ch=8 n=g4 v=127
17321 On ch=6 n=f5 v=127
17321 On ch=6 n=f4 v=127
17321 On ch=11 n=a6 v=127
17670 On ch=11 n=a5 v=127
17843 Off ch=11 n=a5 v=127
17844 On ch=3 n=d6 v=127
18192 Off ch=6 n=f5 v=127
18193 On ch=5 n=e5 v=127
18193 On ch=5 n=e6 v=127
18366 Off ch=5 n=e6 v=127
18366 Off ch=5 n=e5 v=127
18367 On ch=3 n=d5 v=127
18367 On ch=6 n=f6 v=127
18397 Off ch=6 n=f4 v=127
18715 Off ch=3 n=d6 v=127
18716 On ch=11 n=a5 v=127
18889 Off ch=11 n=a5 v=127
18889 Off ch=3 n=d5 v=127
18890 On ch=12 n=a#5 v=127
18890 On ch=3 n=d5 v=127
18890 On ch=8 n=g4 v=127
18891 Off ch=11 n=a6 v=127
19064 Off ch=6 n=f6 v=127
19239 On ch=8 n=g6 v=127
19412 Off ch=8 n=g6 v=127
19413 On ch=5 n=e6 v=127
19761 Off ch=8 n=g4 v=127
19761 Off ch=12 n=a#5 v=127
19762 On ch=11 n=a5 v=127
19762 On ch=11 n=a4 v=127
19935 Off ch=11 n=a4 v=127
19935 Off ch=11 n=a5 v=127
19936 On ch=8 n=g5 v=127
19936 On ch=12 n=a#4 v=127
20231 Off ch=5 n=e6 v=127
20286 On ch=3 n=d6 v=127
20459 Off ch=12 n=a#4 v=127
20459 Off ch=8 n=g5 v=127
20459 Off ch=3 n=d5 v=127
20460 On ch=11 n=a5 v=127
20460 On ch=5 n=e5 v=127
20460 On ch=11 n=a4 v=127
20808 Off ch=3 n=d6 v=127
20809 On ch=5 n=e6 v=127
20982 Off ch=5 n=e6 v=127
20983 On ch=3 n=d6 v=127
21113 Off ch=3 n=d6 v=127
21114 On ch=2 n=c#6 v=127
21244 Off ch=2 n=c#6 v=127
21245 On ch=13 n=b5 v=127
21278 Off ch=5 n=e5 v=127
21326 Off ch=11 n=a5 v=127
21375 Off ch=13 n=b5 v=127
21376 On ch=8 n=g5 v=127
21376 On ch=11 n=a5 v=127
21506 Off ch=11 n=a5 v=127
21506 Off ch=8 n=g5 v=127
21507 On ch=6 n=f5 v=127
21507 On ch=3 n=d6 v=127
21537 Off ch=11 n=a4 v=127
21594 On ch=5 n=e6 v=127
21636 Off ch=3 n=d6 v=127
21681 On ch=6 n=f6 v=127
21723 Off ch=5 n=e6 v=127
21833 Off ch=6 n=f5 v=127
21855 On ch=3 n=d5 v=127
22028 Off ch=3 n=d5 v=127
22029 On ch=12 n=a#5 v=127
22029 On ch=5 n=e5 v=127
22029 On ch=8 n=g4 v=127
22289 Off ch=6 n=f6 v=127
22378 On ch=5 n=e6 v=127
22551 Off ch=8 n=g4 v=127
22551 Off ch=5 n=e5 v=127
22551 Off ch=12 n=a#5 v=127
22552 On ch=11 n=a5 v=127
22552 On ch=6 n=f5 v=127
22552 On ch=11 n=a4 v=127
22900 Off ch=5 n=e6 v=127
22901 On ch=3 n=d6 v=127
23074 Off ch=11 n=a4 v=127
23074 Off ch=6 n=f5 v=127
23074 Off ch=11 n=a5 v=127
23075 On ch=8 n=g5 v=127
23075 On ch=5 n=e5 v=127
23075 On ch=11 n=a4 v=127
23423 Off ch=3 n=d6 v=127
23424 On ch=2 n=c#6 v=127
23593 Off ch=8 n=g5 v=127
23597 Off ch=2 n=c#6 v=127
23597 Off ch=11 n=a4 v=127
23597 Off ch=5 n=e5 v=127
23598 On ch=3 n=d5 v=127
23598 On ch=3 n=d4 v=127
23598 On ch=3 n=d6 v=127
23947 On ch=11 n=a5 v=127
24120 Off ch=11 n=a5 v=127
24120 Off ch=3 n=d6 v=127
24120 Off ch=3 n=d4 v=127
24120 Off ch=3 n=d5 v=127
24121 On ch=3 n=d4 v=127
24121 On ch=6 n=f5 v=127
24469 Off ch=3 n=d4 v=127
24470 On ch=5 n=e5 v=127
24470 On ch=5 n=e4 v=127
24643 Off ch=5 n=e4 v=127
24643 Off ch=5 n=e5 v=127
24644 On ch=3 n=d5 v=127
24644 On ch=6 n=f4 v=127
24992 Off ch=6 n=f4 v=127
24992 Off ch=3 n=d5 v=127
24993 On ch=1 n=c5 v=127
24993 On ch=3 n=d4 v=127
25166 Off ch=3 n=d4 v=127
25166 Off ch=1 n=c5 v=127
25166 Off ch=6 n=f5 v=127
25167 On ch=12 n=a#4 v=127
25167 On ch=8 n=g3 v=127
25516 On ch=8 n=g5 v=127
25689 Off ch=8 n=g5 v=127
25690 On ch=5 n=e5 v=127
26038 Off ch=8 n=g3 v=127
26038 Off ch=12 n=a#4 v=127
26039 On ch=11 n=a4 v=127
26039 On ch=11 n=a3 v=127
26212 Off ch=11 n=a3 v=127
26212 Off ch=11 n=a4 v=127
26213 On ch=8 n=g4 v=127
26213 On ch=12 n=a#3 v=127
26473 Off ch=5 n=e5 v=127
26562 On ch=3 n=d5 v=127
26735 Off ch=12 n=a#3 v=127
26736 On ch=11 n=a3 v=127
27069 Off ch=3 n=d5 v=127
27085 On ch=5 n=e5 v=127
27258 Off ch=5 n=e5 v=127
27259 On ch=2 n=c#5 v=127
27353 Off ch=2 n=c#5 v=127
27354 On ch=13 n=b4 v=127
27448 Off ch=13 n=b4 v=127
27449 On ch=11 n=a4 v=127
27574 Off ch=8 n=g4 v=127
27607 On ch=8 n=g4 v=127
27611 Off ch=11 n=a4 v=127
27683 Off ch=11 n=a3 v=127
27780 Off ch=8 n=g4 v=127
27781 On ch=11 n=a4 v=127
27781 On ch=6 n=f4 v=127
27781 On ch=3 n=d5 v=127
27883 On ch=5 n=e5 v=127
27944 Off ch=3 n=d5 v=127
27985 On ch=6 n=f5 v=127
28046 Off ch=5 n=e5 v=127
28129 On ch=3 n=d4 v=127
28162 Off ch=6 n=f4 v=127
28293 Off ch=3 n=d4 v=127
28303 Off ch=11 n=a4 v=127
28304 On ch=12 n=a#4 v=127
28304 On ch=8 n=g4 v=127
28304 On ch=8 n=g3 v=127
28558 Off ch=6 n=f5 v=127
28653 On ch=5 n=e5 v=127
28826 Off ch=8 n=g3 v=127
28826 Off ch=8 n=g4 v=127
28826 Off ch=12 n=a#4 v=127
28827 On ch=11 n=a4 v=127
28827 On ch=6 n=f4 v=127
28827 On ch=11 n=a3 v=127
29175 Off ch=5 n=e5 v=127
29176 On ch=3 n=d5 v=127
29349 Off ch=6 n=f4 v=127
29349 Off ch=11 n=a4 v=127
29350 On ch=8 n=g4 v=127
29350 On ch=5 n=e4 v=127
29698 Off ch=3 n=d5 v=127
29699 On ch=2 n=c#5 v=127
29872 Off ch=5 n=e4 v=127
29872 Off ch=11 n=a3 v=127
29873 On ch=3 n=d4 v=127
29873 On ch=3 n=d3 v=127
29876 Off ch=2 n=c#5 v=127
30004 Off ch=8 n=g4 v=127
30222 On ch=3 n=d5 v=127
30395 Off ch=3 n=d4 v=127
30396 On ch=11 n=a4 v=127
30396 On ch=7 n=f#4 v=127
30744 Off ch=3 n=d5 v=127
30745 On ch=3 n=d5 v=127
30918 Off ch=7 n=f#4 v=127
30918 Off ch=11 n=a4 v=127
30919 On ch=8 n=g4 v=127
30919 On ch=5 n=e4 v=127
31267 Off ch=3 n=d5 v=127
31268 On ch=2 n=c#5 v=127
31441 Off ch=2 n=c#5 v=127
31441 Off ch=5 n=e4 v=127
31441 Off ch=8 n=g4 v=127
31441 Off ch=3 n=d3 v=127
31442 On ch=11 n=a4 v=127
31442 On ch=7 n=f#4 v=127
31442 On ch=3 n=d3 v=127
31791 On ch=3 n=d5 v=127
31964 Off ch=7 n=f#4 v=127
31964 Off ch=11 n=a4 v=127
31965 On ch=12 n=a#4 v=127
31965 On ch=8 n=g4 v=127
32313 Off ch=3 n=d5 v=127
32314 On ch=3 n=d5 v=127
32487 Off ch=8 n=g4 v=127
32487 Off ch=12 n=a#4 v=127
32488 On ch=8 n=g4 v=127
32488 On ch=5 n=e4 v=127
32836 Off ch=3 n=d5 v=127
32837 On ch=2 n=c#5 v=127
33010 Off ch=3 n=d3 v=127
33011 On ch=3 n=d3 v=127
33011 On ch=3 n=d4 v=127
33205 Off ch=2 n=c#5 v=127
33360 On ch=3 n=d5 v=127
33533 Off ch=5 n=e4 v=127
33533 Off ch=8 n=g4 v=127
33534 On ch=11 n=a4 v=127
33534 On ch=7 n=f#4 v=127
33882 Off ch=3 n=d5 v=127
33883 On ch=3 n=d5 v=127
34056 Off ch=7 n=f#4 v=127
34056 Off ch=11 n=a4 v=127
34057 On ch=12 n=a#4 v=127
34057 On ch=8 n=g4 v=127
34405 Off ch=3 n=d5 v=127
34406 On ch=5 n=e5 v=127
34579 Off ch=8 n=g4 v=127
34579 Off ch=12 n=a#4 v=127
34579 Off ch=3 n=d4 v=127
34579 Off ch=3 n=d3 v=127
34580 On ch=1 n=c5 v=127
34580 On ch=11 n=a4 v=127
34580 On ch=3 n=d3 v=127
34580 On ch=3 n=d4 v=127
34928 Off ch=5 n=e5 v=127
34929 On ch=7 n=f#5 v=127
35102 Off ch=3 n=d4 v=127
35102 Off ch=3 n=d3 v=127
35102 Off ch=11 n=a4 v=127
35102 Off ch=1 n=c5 v=127
35103 On ch=3 n=d5 v=127
35103 On ch=12 n=a#4 v=127
35103 On ch=3 n=d3 v=127
35103 On ch=3 n=d4 v=127
35451 Off ch=7 n=f#5 v=127
35452 On ch=8 n=g5 v=127
35625 Off ch=3 n=d4 v=127
35625 Off ch=3 n=d3 v=127
35625 Off ch=12 n=a#4 v=127
35625 Off ch=3 n=d5 v=127
35626 On ch=4 n=d#5 v=127
35626 On ch=1 n=c5 v=127
35626 On ch=3 n=d3 v=127
35626 On ch=3 n=d4 v=127
35974 Off ch=8 n=g5 v=127
35975 On ch=11 n=a5 v=127
36148 Off ch=3 n=d4 v=127
36148 Off ch=3 n=d3 v=127
36148 Off ch=1 n=c5 v=127
36148 Off ch=4 n=d#5 v=127
36149 On ch=3 n=d5 v=127
36149 On ch=3 n=d4 v=127
36149 On ch=3 n=d3 v=127
36497 Off ch=11 n=a5 v=127
36498 On ch=8 n=g5 v=127
36671 Off ch=8 n=g5 v=127
36672 On ch=8 n=g5 v=127
36845 Off ch=8 n=g5 v=127
36846 On ch=7 n=f#5 v=127
37019 Off ch=7 n=f#5 v=127
37019 Off ch=3 n=d5 v=127
37020 On ch=1 n=c5 v=127
37020 On ch=5 n=e5 v=127
37193 Off ch=5 n=e5 v=127
37193 Off ch=1 n=c5 v=127
37193 Off ch=3 n=d3 v=127
37193 Off ch=3 n=d4 v=127
37194 On ch=12 n=a#4 v=127
37194 On ch=3 n=d5 v=127
37542 Off ch=12 n=a#4 v=127
37552 On ch=11 n=a4 v=127
37707 On ch=3 n=d6 v=127
37707 On ch=12 n=a#4 v=127
37715 Off ch=11 n=a4 v=127
37716 Off ch=3 n=d5 v=127
38056 On ch=3 n=d5 v=127
38229 Off ch=3 n=d5 v=127
38229 Off ch=12 n=a#4 v=127
38230 On ch=11 n=a4 v=127
38230 On ch=1 n=c5 v=127
38230 On ch=5 n=e5 v=127
38578 Off ch=3 n=d6 v=127
38579 On ch=1 n=c6 v=127
38752 Off ch=5 n=e5 v=127
38752 Off ch=1 n=c5 v=127
38752 Off ch=11 n=a4 v=127
38753 On ch=3 n=d4 v=127
38753 On ch=3 n=d5 v=127
38753 On ch=7 n=f#5 v=127
39101 Off ch=1 n=c6 v=127
39102 On ch=1 n=c6 v=127
39275 Off ch=7 n=f#5 v=127
39275 Off ch=3 n=d4 v=127
39276 On ch=8 n=g4 v=127
39276 On ch=8 n=g5 v=127
39624 Off ch=1 n=c6 v=127
39625 On ch=3 n=d6 v=127
39798 Off ch=3 n=d6 v=127
39798 Off ch=8 n=g5 v=127
39799 On ch=12 n=a#5 v=127
40147 Off ch=3 n=d5 v=127
40148 On ch=11 n=a5 v=127
40148 On ch=6 n=f5 v=127
40189 Off ch=8 n=g4 v=127
40317 Off ch=12 n=a#5 v=127
40321 Off ch=6 n=f5 v=127
40321 Off ch=11 n=a5 v=127
40322 On ch=8 n=g5 v=127
40322 On ch=4 n=d#5 v=127
40670 Off ch=4 n=d#5 v=127
40671 On ch=3 n=d5 v=127
40844 Off ch=3 n=d5 v=127
40844 Off ch=8 n=g5 v=127
40845 On ch=8 n=g6 v=127
40845 On ch=4 n=d#5 v=127
41194 On ch=8 n=g5 v=127
41367 Off ch=8 n=g5 v=127
41367 Off ch=4 n=d#5 v=127
41368 On ch=3 n=d5 v=127
41368 On ch=6 n=f5 v=127
41368 On ch=11 n=a5 v=127
41716 Off ch=8 n=g6 v=127
41717 On ch=6 n=f6 v=127
41890 Off ch=11 n=a5 v=127
41890 Off ch=6 n=f5 v=127
41890 Off ch=3 n=d5 v=127
41891 On ch=8 n=g4 v=127
41891 On ch=8 n=g5 v=127
41891 On ch=13 n=b5 v=127
42239 Off ch=6 n=f6 v=127
42240 On ch=6 n=f6 v=127
42413 Off ch=13 n=b5 v=127
42413 Off ch=8 n=g4 v=127
42414 On ch=1 n=c5 v=127
42414 On ch=1 n=c6 v=127
42762 Off ch=6 n=f6 v=127
42763 On ch=8 n=g6 v=127
42936 Off ch=8 n=g6 v=127
42936 Off ch=1 n=c6 v=127
42936 Off ch=8 n=g5 v=127
42937 On ch=4 n=d#6 v=127
43197 Off ch=1 n=c5 v=127
43286 On ch=3 n=d5 v=127
43286 On ch=3 n=d6 v=127
43459 Off ch=3 n=d6 v=127
43459 Off ch=3 n=d5 v=127
43460 On ch=4 n=d#5 v=127
43460 On ch=1 n=c6 v=127
43808 Off ch=1 n=c6 v=127
43808 Off ch=4 n=d#5 v=127
43809 On ch=1 n=c5 v=127
43809 On ch=12 n=a#5 v=127
43982 Off ch=12 n=a#5 v=127
43982 Off ch=1 n=c5 v=127
43983 On ch=6 n=f4 v=127
43983 On ch=6 n=f5 v=127
43983 On ch=9 n=g#5 v=127
44179 Off ch=4 n=d#6 v=127
44332 On ch=6 n=f6 v=127
44505 Off ch=6 n=f6 v=127
44506 On ch=3 n=d6 v=127
44637 Off ch=6 n=f5 v=127
44801 Off ch=6 n=f4 v=127
44854 Off ch=9 n=g#5 v=127
44855 On ch=8 n=g4 v=127
44855 On ch=8 n=g5 v=127
45028 Off ch=8 n=g5 v=127
45028 Off ch=8 n=g4 v=127
45029 On ch=9 n=g#4 v=127
45029 On ch=6 n=f5 v=127
45377 Off ch=3 n=d6 v=127
45378 On ch=1 n=c6 v=127
45551 Off ch=6 n=f5 v=127
45551 Off ch=9 n=g#4 v=127
45552 On ch=8 n=g4 v=127
45552 On ch=3 n=d5 v=127
45552 On ch=8 n=g5 v=127
45900 Off ch=1 n=c6 v=127
45901 On ch=3 n=d6 v=127
46074 Off ch=3 n=d6 v=127
46075 On ch=13 n=b5 v=127
46161 Off ch=13 n=b5 v=127
46162 On ch=11 n=a5 v=127
46229 Off ch=8 n=g5 v=127
46248 Off ch=11 n=a5 v=127
46249 On ch=8 n=g5 v=127
46466 Off ch=3 n=d5 v=127
46467 On ch=6 n=f5 v=127
46509 Off ch=8 n=g5 v=127
46596 Off ch=8 n=g4 v=127
46597 Off ch=6 n=f5 v=127
46597 On ch=1 n=c6 v=127
46597 On ch=4 n=d#5 v=127
46597 On ch=8 n=g5 v=127
46684 On ch=3 n=d6 v=127
46726 Off ch=1 n=c6 v=127
46771 On ch=4 n=d#6 v=127
46813 Off ch=3 n=d6 v=127
46945 On ch=1 n=c5 v=127
46987 Off ch=4 n=d#5 v=127
47118 Off ch=1 n=c5 v=127
47118 Off ch=8 n=g5 v=127
47119 On ch=6 n=f4 v=127
47119 On ch=6 n=f5 v=127
47119 On ch=9 n=g#5 v=127
47379 Off ch=4 n=d#6 v=127
47468 On ch=3 n=d6 v=127
47641 Off ch=9 n=g#5 v=127
47641 Off ch=6 n=f5 v=127
47641 Off ch=6 n=f4 v=127
47642 On ch=8 n=g4 v=127
47642 On ch=4 n=d#5 v=127
47642 On ch=8 n=g5 v=127
47990 Off ch=3 n=d6 v=127
47991 On ch=1 n=c6 v=127
48164 Off ch=8 n=g5 v=127
48164 Off ch=4 n=d#5 v=127
48164 Off ch=8 n=g4 v=127
48165 On ch=8 n=g4 v=127
48165 On ch=3 n=d5 v=127
48165 On ch=6 n=f5 v=127
48513 Off ch=1 n=c6 v=127
48514 On ch=13 n=b5 v=127
48687 Off ch=13 n=b5 v=127
48687 Off ch=3 n=d5 v=127
48687 Off ch=8 n=g4 v=127
48688 On ch=1 n=c6 v=127
48688 On ch=1 n=c4 v=127
48688 On ch=1 n=c5 v=127
48721 Off ch=6 n=f5 v=127
49037 On ch=8 n=g5 v=127
49210 Off ch=8 n=g5 v=127
49211 On ch=4 n=d#5 v=127
49506 Off ch=1 n=c4 v=127
49559 Off ch=4 n=d#5 v=127
49559 Off ch=1 n=c5 v=127
49560 On ch=3 n=d5 v=127
49560 On ch=6 n=f5 v=127
49733 Off ch=6 n=f5 v=127
49733 Off ch=3 n=d5 v=127
49733 Off ch=1 n=c6 v=127
49734 On ch=4 n=d#5 v=127
49734 On ch=8 n=g5 v=127
50082 Off ch=8 n=g5 v=127
50082 Off ch=4 n=d#5 v=127
50083 On ch=1 n=c5 v=127
50083 On ch=11 n=a5 v=127
50233 Off ch=11 n=a5 v=127
50247 Off ch=1 n=c5 v=127
50258 On ch=12 n=a#5 v=127
50258 On ch=3 n=d5 v=127
50607 On ch=6 n=f5 v=127
50780 Off ch=6 n=f5 v=127
50780 Off ch=3 n=d5 v=127
50781 On ch=1 n=c5 v=127
50781 On ch=4 n=d#5 v=127
51129 Off ch=12 n=a#5 v=127
51130 On ch=11 n=a5 v=127
51303 Off ch=11 n=a5 v=127
51303 Off ch=4 n=d#5 v=127
51303 Off ch=1 n=c5 v=127
51304 On ch=3 n=d6 v=127
51304 On ch=12 n=a#4 v=127
51304 On ch=3 n=d5 v=127
51652 Off ch=3 n=d5 v=127
51653 On ch=8 n=g5 v=127
51826 Off ch=12 n=a#4 v=127
51826 Off ch=3 n=d6 v=127
51827 On ch=1 n=c6 v=127
51827 On ch=11 n=a4 v=127
51827 On ch=1 n=c5 v=127
52175 Off ch=8 n=g5 v=127
52176 On ch=7 n=f#5 v=127
52349 Off ch=7 n=f#5 v=127
52349 Off ch=1 n=c5 v=127
52349 Off ch=11 n=a4 v=127
52350 On ch=8 n=g4 v=127
52350 On ch=3 n=d5 v=127
52350 On ch=8 n=g5 v=127
52698 Off ch=1 n=c6 v=127
52699 On ch=12 n=a#5 v=127
52872 Off ch=12 n=a#5 v=127
52872 Off ch=8 n=g5 v=127
52872 Off ch=3 n=d5 v=127
52872 Off ch=8 n=g4 v=127
52873 On ch=6 n=f4 v=127
52873 On ch=3 n=d5 v=127
52873 On ch=11 n=a5 v=127
53222 On ch=3 n=d6 v=127
53395 Off ch=3 n=d6 v=127
53395 Off ch=11 n=a5 v=127
53395 Off ch=3 n=d5 v=127
53395 Off ch=6 n=f4 v=127
53396 On ch=8 n=g6 v=127
53396 On ch=5 n=e4 v=127
53396 On ch=8 n=g4 v=127
53745 On ch=2 n=c#6 v=127
53918 Off ch=2 n=c#6 v=127
53918 Off ch=8 n=g4 v=127
53918 Off ch=5 n=e4 v=127
53919 On ch=3 n=d4 v=127
53919 On ch=11 n=a4 v=127
53919 On ch=3 n=d6 v=127
54267 Off ch=11 n=a4 v=127
54267 Off ch=8 n=g6 v=127
54268 On ch=7 n=f#6 v=127
54268 On ch=1 n=c5 v=127
54441 Off ch=1 n=c5 v=127
54441 Off ch=7 n=f#6 v=127
54442 On ch=8 n=g6 v=127
54442 On ch=12 n=a#4 v=127
54790 Off ch=12 n=a#4 v=127
54790 Off ch=8 n=g6 v=127
54790 Off ch=3 n=d6 v=127
54791 On ch=11 n=a6 v=127
54791 On ch=11 n=a4 v=127
54791 On ch=1 n=c6 v=127
54805 Off ch=3 n=d4 v=127
54965 Off ch=1 n=c6 v=127
54965 Off ch=11 n=a4 v=127
54965 Off ch=11 n=a6 v=127
54966 On ch=3 n=d6 v=127
54966 On ch=8 n=g4 v=127
54966 On ch=3 n=d5 v=127
54966 On ch=12 n=a#5 v=127
55314 Off ch=3 n=d6 v=127
55315 On ch=8 n=g6 v=127
55488 Off ch=12 n=a#5 v=127
55488 Off ch=8 n=g4 v=127
55489 On ch=3 n=d4 v=127
55489 On ch=11 n=a5 v=127
55837 Off ch=8 n=g6 v=127
55838 On ch=5 n=e6 v=127
56011 Off ch=5 n=e6 v=127
56011 Off ch=3 n=d5 v=127
56012 On ch=6 n=f6 v=127
56012 On ch=3 n=d5 v=127
56187 Off ch=3 n=d4 v=127
56360 Off ch=11 n=a5 v=127
56361 On ch=1 n=c6 v=127
56534 Off ch=1 n=c6 v=127
56535 On ch=8 n=g4 v=127
56535 On ch=13 n=b5 v=127
56710 Off ch=6 n=f6 v=127
56885 On ch=8 n=g6 v=127
57049 Off ch=13 n=b5 v=127
57059 Off ch=8 n=g6 v=127
57059 Off ch=8 n=g4 v=127
57059 Off ch=3 n=d5 v=127
57060 On ch=4 n=d#6 v=127
57060 On ch=1 n=c4 v=127
57060 On ch=1 n=c5 v=127
57409 On ch=1 n=c6 v=127
57582 Off ch=1 n=c6 v=127
57582 Off ch=1 n=c4 v=127
57583 On ch=6 n=f4 v=127
57583 On ch=11 n=a5 v=127
57758 Off ch=4 n=d#6 v=127
57933 On ch=6 n=f6 v=127
58106 Off ch=6 n=f6 v=127
58106 Off ch=6 n=f4 v=127
58106 Off ch=1 n=c5 v=127
58107 On ch=3 n=d6 v=127
58107 On ch=12 n=a#4 v=127
58282 Off ch=11 n=a5 v=127
58457 On ch=12 n=a#5 v=127
58630 Off ch=12 n=a#5 v=127
58630 Off ch=12 n=a#4 v=127
58631 On ch=4 n=d#4 v=127
58631 On ch=4 n=d#5 v=127
58631 On ch=8 n=g5 v=127
58806 Off ch=3 n=d6 v=127
58981 On ch=4 n=d#6 v=127
59154 Off ch=4 n=d#6 v=127
59154 Off ch=4 n=d#5 v=127
59154 Off ch=4 n=d#4 v=127
59155 On ch=1 n=c6 v=127
59155 On ch=11 n=a4 v=127
59155 On ch=1 n=c5 v=127
59503 Off ch=8 n=g5 v=127
59504 On ch=11 n=a5 v=127
59677 Off ch=11 n=a5 v=127
59677 Off ch=1 n=c5 v=127
59677 Off ch=11 n=a4 v=127
59678 On ch=3 n=d4 v=127
59678 On ch=3 n=d5 v=127
59678 On ch=7 n=f#5 v=127
59884 Off ch=1 n=c6 v=127
60027 On ch=3 n=d6 v=127
60200 Off ch=3 n=d6 v=127
60200 Off ch=7 n=f#5 v=127
60201 On ch=12 n=a#5 v=127
60201 On ch=8 n=g5 v=127
60386 Off ch=3 n=d4 v=127
60548 Off ch=8 n=g5 v=127
60548 Off ch=12 n=a#5 v=127
60549 On ch=1 n=c6 v=127
60549 On ch=1 n=c5 v=127
60549 On ch=11 n=a5 v=127
60722 Off ch=11 n=a5 v=127
60722 Off ch=1 n=c5 v=127
60722 Off ch=1 n=c6 v=127
60723 On ch=3 n=d6 v=127
60723 On ch=12 n=a#4 v=127
60723 On ch=12 n=a#5 v=127
60854 On ch=11 n=a4 v=127
60887 Off ch=12 n=a#4 v=127
60991 On ch=8 n=g4 v=127
61018 Off ch=11 n=a4 v=127
61246 Off ch=3 n=d6 v=127
61246 Off ch=3 n=d5 v=127
61247 On ch=4 n=d#6 v=127
61247 On ch=1 n=c4 v=127
61247 On ch=1 n=c5 v=127
61250 Off ch=8 n=g4 v=127
61595 Off ch=12 n=a#5 v=127
61596 On ch=11 n=a5 v=127
61769 Off ch=1 n=c5 v=127
61769 Off ch=1 n=c4 v=127
61769 Off ch=4 n=d#6 v=127
61770 On ch=3 n=d6 v=127
61770 On ch=3 n=d4 v=127
61770 On ch=12 n=a#4 v=127
62118 Off ch=11 n=a5 v=127
62119 On ch=8 n=g5 v=127
62292 Off ch=12 n=a#4 v=127
62292 Off ch=3 n=d4 v=127
62292 Off ch=3 n=d6 v=127
62293 On ch=1 n=c6 v=127
62293 On ch=3 n=d4 v=127
62293 On ch=11 n=a4 v=127
62641 Off ch=8 n=g5 v=127
62642 On ch=7 n=f#5 v=127
62796 Off ch=1 n=c6 v=127
62800 Off ch=7 n=f#5 v=127
62815 Off ch=11 n=a4 v=127
62815 Off ch=3 n=d4 v=127
62816 On ch=8 n=g3 v=127
62816 On ch=8 n=g4 v=127
62816 On ch=8 n=g5 v=127
63165 On ch=3 n=d6 v=127
63338 Off ch=3 n=d6 v=127
63339 On ch=12 n=a#5 v=127
63685 Off ch=8 n=g5 v=127
63686 Off ch=8 n=g4 v=127
63686 Off ch=8 n=g3 v=127
63687 On ch=11 n=a4 v=127
63687 On ch=11 n=a5 v=127
63860 Off ch=11 n=a5 v=127
63860 Off ch=11 n=a4 v=127
63861 On ch=12 n=a#4 v=127
63861 On ch=8 n=g5 v=127
63955 Off ch=12 n=a#4 v=127
63956 On ch=11 n=a4 v=127
64050 Off ch=11 n=a4 v=127
64051 On ch=8 n=g4 v=127
64209 On ch=6 n=f5 v=127
64213 Off ch=8 n=g5 v=127
64373 Off ch=6 n=f5 v=127
64380 Off ch=8 n=g4 v=127
64384 On ch=1 n=c4 v=127
64384 On ch=1 n=c5 v=127
64384 On ch=4 n=d#5 v=127
64732 Off ch=12 n=a#5 v=127
64733 On ch=1 n=c6 v=127
64906 Off ch=1 n=c6 v=127
64907 On ch=11 n=a5 v=127
65255 Off ch=4 n=d#5 v=127
65255 Off ch=1 n=c4 v=127
65256 On ch=3 n=d4 v=127
65256 On ch=3 n=d5 v=127
65429 Off ch=3 n=d5 v=127
65429 Off ch=3 n=d4 v=127
65429 Off ch=1 n=c5 v=127
65430 On ch=4 n=d#4 v=127
65430 On ch=1 n=c5 v=127
65778 Off ch=11 n=a5 v=127
65779 On ch=8 n=g5 v=127
65952 Off ch=1 n=c5 v=127
65952 Off ch=4 n=d#4 v=127
65953 On ch=3 n=d4 v=127
65953 On ch=3 n=d5 v=127
66301 Off ch=8 n=g5 v=127
66302 On ch=11 n=a5 v=127
66475 Off ch=11 n=a5 v=127
66476 On ch=7 n=f#5 v=127
66562 Off ch=7 n=f#5 v=127
66563 On ch=5 n=e5 v=127
66638 Off ch=3 n=d5 v=127
66649 Off ch=5 n=e5 v=127
66650 On ch=3 n=d5 v=127
66825 On ch=1 n=c5 v=127
66867 Off ch=3 n=d4 v=127
66911 Off ch=3 n=d5 v=127
66998 Off ch=1 n=c5 v=127
66999 On ch=8 n=g5 v=127
66999 On ch=12 n=a#4 v=127
66999 On ch=3 n=d5 v=127
67086 On ch=11 n=a5 v=127
67128 Off ch=8 n=g5 v=127
67173 On ch=12 n=a#5 v=127
67215 Off ch=11 n=a5 v=127
67347 On ch=8 n=g4 v=127
67389 Off ch=12 n=a#4 v=127
67520 Off ch=8 n=g4 v=127
67520 Off ch=12 n=a#5 v=127
67520 Off ch=3 n=d5 v=127
67521 On ch=1 n=c4 v=127
67521 On ch=1 n=c5 v=127
67521 On ch=4 n=d#5 v=127
67870 On ch=11 n=a5 v=127
68043 Off ch=4 n=d#5 v=127
68043 Off ch=1 n=c5 v=127
68043 Off ch=1 n=c4 v=127
68044 On ch=3 n=d4 v=127
68044 On ch=12 n=a#4 v=127
68044 On ch=3 n=d5 v=127
68392 Off ch=11 n=a5 v=127
68393 On ch=8 n=g5 v=127
68566 Off ch=3 n=d5 v=127
68566 Off ch=12 n=a#4 v=127
68566 Off ch=3 n=d4 v=127
68567 On ch=3 n=d4 v=127
68567 On ch=11 n=a4 v=127
68567 On ch=1 n=c5 v=127
68915 Off ch=8 n=g5 v=127
68916 On ch=7 n=f#5 v=127
69080 Off ch=7 n=f#5 v=127
69090 Off ch=11 n=a4 v=127
69090 Off ch=3 n=d4 v=127
69091 On ch=8 n=g3 v=127
69091 On ch=8 n=g4 v=127
69440 On ch=8 n=g5 v=127
69613 Off ch=8 n=g4 v=127
69613 Off ch=1 n=c5 v=127
69614 On ch=12 n=a#4 v=127
69614 On ch=3 n=d5 v=127
69962 Off ch=8 n=g5 v=127
69963 On ch=8 n=g5 v=127
70136 Off ch=3 n=d5 v=127
70136 Off ch=12 n=a#4 v=127
70137 On ch=11 n=a4 v=127
70137 On ch=1 n=c5 v=127
70485 Off ch=8 n=g5 v=127
70486 On ch=7 n=f#5 v=127
70659 Off ch=1 n=c5 v=127
70659 Off ch=11 n=a4 v=127
70659 Off ch=8 n=g3 v=127
70660 On ch=8 n=g3 v=127
70660 On ch=8 n=g4 v=127
70660 On ch=3 n=d5 v=127
70660 On ch=12 n=a#4 v=127
70772 Off ch=7 n=f#5 v=127
71009 On ch=8 n=g5 v=127
71182 Off ch=12 n=a#4 v=127
71182 Off ch=3 n=d5 v=127
71182 Off ch=8 n=g4 v=127
71183 On ch=1 n=c5 v=127
71183 On ch=4 n=d#5 v=127
71531 Off ch=8 n=g5 v=127
71532 On ch=8 n=g5 v=127
71705 Off ch=4 n=d#5 v=127
71705 Off ch=1 n=c5 v=127
71706 On ch=11 n=a4 v=127
71706 On ch=1 n=c5 v=127
72054 Off ch=8 n=g5 v=127
72055 On ch=7 n=f#5 v=127
72228 Off ch=11 n=a4 v=127
72228 Off ch=8 n=g3 v=127
72229 On ch=8 n=g3 v=127
72229 On ch=8 n=g4 v=127
72518 Off ch=7 n=f#5 v=127
72604 On ch=8 n=g5 v=127
72751 Off ch=8 n=g4 v=127
72751 Off ch=1 n=c5 v=127
72840 On ch=12 n=a#4 v=127
72840 On ch=3 n=d5 v=127
75245 Off ch=8 n=g3 v=127
75294 Off ch=3 n=d5 v=127
75294 Off ch=12 n=a#4 v=127
75384 Off ch=8 n=g5 v=127
81408 Meta TrkEnd
TrkEnd
