MFile 0 1 384
MTrk
0 Meta Copyright "(C) John Sankey 1998"
0 PrCh ch=1 p=6
0 Pb ch=1 v=8192
0 PrCh ch=2 p=6
0 Pb ch=2 v=7602
0 PrCh ch=3 p=6
0 Pb ch=3 v=7920
0 PrCh ch=4 p=6
0 Pb ch=4 v=7839
0 PrCh ch=5 p=6
0 Pb ch=5 v=7632
0 PrCh ch=6 p=6
0 Pb ch=6 v=8112
0 PrCh ch=7 p=6
0 Pb ch=7 v=7567
0 PrCh ch=8 p=6
0 Pb ch=8 v=8062
0 PrCh ch=9 p=6
0 Pb ch=9 v=7680
0 PrCh ch=11 p=6
0 Pb ch=11 v=7728
0 PrCh ch=12 p=6
0 Pb ch=12 v=7984
0 PrCh ch=13 p=6
0 Pb ch=13 v=7639
0 Tempo 500000
107 On ch=11 n=a5 v=127
289 Off ch=11 n=a5 v=127
320 On ch=3 n=d5 v=127
320 On ch=6 n=f5 v=127
320 On ch=3 n=d6 v=127
533 On ch=5 n=e6 v=127
586 Off ch=3 n=d6 v=127
745 Off ch=5 n=e6 v=127
746 On ch=6 n=f6 v=127
958 Off ch=6 n=f6 v=127
958 Off ch=6 n=f5 v=127
958 Off ch=3 n=d5 v=127
959 On ch=5 n=e6 v=127
959 On ch=2 n=c#5 v=127
959 On ch=5 n=e5 v=127
1171 Off ch=5 n=e6 v=127
1172 On ch=11 n=a6 v=127
1384 Off ch=11 n=a6 v=127
1385 On ch=11 n=a5 v=127
1597 Off ch=11 n=a5 v=127
1597 Off ch=5 n=e5 v=127
1597 Off ch=2 n=c#5 v=127
1598 On ch=8 n=g6 v=127
1598 On ch=3 n=d5 v=127
1650 Off ch=8 n=g6 v=127
1651 On ch=6 n=f6 v=127
1703 Off ch=6 n=f6 v=127
1704 On ch=8 n=g6 v=127
1756 Off ch=8 n=g6 v=127
1757 On ch=6 n=f6 v=127
1809 Off ch=6 n=f6 v=127
1809 Off ch=3 n=d5 v=127
1810 On ch=8 n=g6 v=127
1810 On ch=6 n=f5 v=127
1862 Off ch=8 n=g6 v=127
1863 On ch=6 n=f6 v=127
1915 Off ch=6 n=f6 v=127
1916 On ch=8 n=g6 v=127
1968 Off ch=8 n=g6 v=127
1969 On ch=6 n=f6 v=127
2021 Off ch=6 n=f6 v=127
2021 Off ch=6 n=f5 v=127
2022 On ch=8 n=g6 v=127
2022 On ch=11 n=a5 v=127
2074 Off ch=8 n=g6 v=127
2075 On ch=6 n=f6 v=127
2127 Off ch=6 n=f6 v=127
2128 On ch=8 n=g6 v=127
2180 Off ch=8 n=g6 v=127
2181 On ch=6 n=f6 v=127
2233 Off ch=6 n=f6 v=127
2233 Off ch=11 n=a5 v=127
2234 On ch=5 n=e6 v=127
2234 On ch=1 n=c5 v=127
2446 Off ch=1 n=c5 v=127
2447 On ch=5 n=e5 v=127
2659 Off ch=5 n=e5 v=127
2659 Off ch=5 n=e6 v=127
2660 On ch=11 n=a6 v=127
2660 On ch=11 n=a5 v=127
2872 Off ch=11 n=a5 v=127
2872 Off ch=11 n=a6 v=127
2873 On ch=8 n=g6 v=127
2873 On ch=3 n=d5 v=127
2873 On ch=12 n=a#4 v=127
3085 Off ch=8 n=g6 v=127
3086 On ch=12 n=a#6 v=127
3192 Off ch=12 n=a#6 v=127
3193 On ch=11 n=a6 v=127
3299 Off ch=11 n=a6 v=127
3300 On ch=8 n=g6 v=127
3406 Off ch=8 n=g6 v=127
3407 On ch=6 n=f6 v=127
3513 Off ch=6 n=f6 v=127
3513 Off ch=12 n=a#4 v=127
3513 Off ch=3 n=d5 v=127
3514 On ch=5 n=e6 v=127
3514 On ch=3 n=d5 v=127
3514 On ch=5 n=e5 v=127
3514 On ch=8 n=g4 v=127
3726 Off ch=5 n=e6 v=127
3727 On ch=8 n=g6 v=127
3833 Off ch=8 n=g6 v=127
3834 On ch=6 n=f6 v=127
3940 Off ch=6 n=f6 v=127
3941 On ch=5 n=e6 v=127
4047 Off ch=5 n=e6 v=127
4048 On ch=3 n=d6 v=127
4154 Off ch=3 n=d6 v=127
4154 Off ch=8 n=g4 v=127
4154 Off ch=5 n=e5 v=127
4154 Off ch=3 n=d5 v=127
4155 On ch=3 n=d6 v=127
4155 On ch=11 n=a4 v=127
4367 Off ch=11 n=a4 v=127
4368 On ch=2 n=c#5 v=127
4580 Off ch=2 n=c#5 v=127
4580 Off ch=3 n=d6 v=127
4581 On ch=2 n=c#6 v=127
4581 On ch=5 n=e5 v=127
4793 Off ch=5 n=e5 v=127
4794 On ch=11 n=a5 v=127
4900 Off ch=11 n=a5 v=127
4901 Off ch=2 n=c#6 v=127
4901 On ch=8 n=g5 v=127
5007 Off ch=8 n=g5 v=127
5008 On ch=6 n=f5 v=127
5114 Off ch=6 n=f5 v=127
5115 On ch=5 n=e5 v=127
5221 Off ch=5 n=e5 v=127
5222 On ch=11 n=a6 v=127
5222 On ch=3 n=d5 v=127
5434 Off ch=3 n=d5 v=127
5434 Off ch=11 n=a6 v=127
5435 On ch=1 n=c6 v=127
5435 On ch=8 n=g5 v=127
5647 Off ch=1 n=c6 v=127
5648 On ch=12 n=a#5 v=127
5860 Off ch=12 n=a#5 v=127
5860 Off ch=8 n=g5 v=127
5861 On ch=8 n=g6 v=127
5861 On ch=8 n=g5 v=127
6073 Off ch=8 n=g5 v=127
6073 Off ch=8 n=g6 v=127
6074 On ch=12 n=a#5 v=127
6074 On ch=6 n=f5 v=127
6286 Off ch=12 n=a#5 v=127
6287 On ch=11 n=a5 v=127
6499 Off ch=11 n=a5 v=127
6499 Off ch=6 n=f5 v=127
6500 On ch=6 n=f6 v=127
6500 On ch=6 n=f5 v=127
6712 Off ch=6 n=f5 v=127
6712 Off ch=6 n=f6 v=127
6713 On ch=11 n=a5 v=127
6713 On ch=5 n=e5 v=127
6925 Off ch=11 n=a5 v=127
6926 On ch=8 n=g5 v=127
7138 Off ch=8 n=g5 v=127
7138 Off ch=5 n=e5 v=127
7139 On ch=5 n=e6 v=127
7139 On ch=5 n=e5 v=127
7351 Off ch=5 n=e5 v=127
7351 Off ch=5 n=e6 v=127
7352 On ch=8 n=g5 v=127
7352 On ch=3 n=d5 v=127
7564 Off ch=8 n=g5 v=127
7565 On ch=6 n=f5 v=127
7777 Off ch=6 n=f5 v=127
7777 Off ch=3 n=d5 v=127
7778 On ch=3 n=d6 v=127
7778 On ch=3 n=d5 v=127
7990 Off ch=3 n=d5 v=127
7990 Off ch=3 n=d6 v=127
7991 On ch=6 n=f5 v=127
7991 On ch=1 n=c5 v=127
8203 Off ch=6 n=f5 v=127
8204 On ch=5 n=e5 v=127
8416 Off ch=5 n=e5 v=127
8416 Off ch=1 n=c5 v=127
8417 On ch=1 n=c6 v=127
8417 On ch=1 n=c5 v=127
8629 Off ch=1 n=c5 v=127
8629 Off ch=1 n=c6 v=127
8630 On ch=5 n=e5 v=127
8630 On ch=12 n=a#4 v=127
8842 Off ch=5 n=e5 v=127
8843 On ch=3 n=d5 v=127
9055 Off ch=3 n=d5 v=127
9055 Off ch=12 n=a#4 v=127
9056 On ch=12 n=a#5 v=127
9056 On ch=12 n=a#4 v=127
9268 Off ch=12 n=a#4 v=127
9268 Off ch=12 n=a#5 v=127
9269 On ch=1 n=c5 v=127
9269 On ch=11 n=a4 v=127
9481 Off ch=11 n=a4 v=127
9481 Off ch=1 n=c5 v=127
9482 On ch=3 n=d5 v=127
9482 On ch=12 n=a#4 v=127
9588 Off ch=12 n=a#4 v=127
9588 Off ch=3 n=d5 v=127
9589 On ch=5 n=e5 v=127
9589 On ch=1 n=c5 v=127
9695 Off ch=1 n=c5 v=127
9695 Off ch=5 n=e5 v=127
9696 On ch=6 n=f5 v=127
9696 On ch=3 n=d5 v=127
9802 Off ch=3 n=d5 v=127
9802 Off ch=6 n=f5 v=127
9803 On ch=8 n=g5 v=127
9803 On ch=5 n=e5 v=127
9909 Off ch=5 n=e5 v=127
9909 Off ch=8 n=g5 v=127
9910 On ch=11 n=a5 v=127
9910 On ch=6 n=f5 v=127
10119 Off ch=6 n=f5 v=127
10119 Off ch=11 n=a5 v=127
10123 On ch=8 n=g5 v=127
10123 On ch=5 n=e5 v=127
10332 Off ch=8 n=g5 v=127
10335 Off ch=5 n=e5 v=127
10336 On ch=6 n=f5 v=127
10336 On ch=3 n=d5 v=127
10545 Off ch=3 n=d5 v=127
10548 Off ch=6 n=f5 v=127
10549 On ch=5 n=e5 v=127
10549 On ch=1 n=c5 v=127
10655 Off ch=1 n=c5 v=127
10655 Off ch=5 n=e5 v=127
10656 On ch=6 n=f5 v=127
10656 On ch=3 n=d5 v=127
10762 Off ch=3 n=d5 v=127
10762 Off ch=6 n=f5 v=127
10763 On ch=8 n=g5 v=127
10763 On ch=5 n=e5 v=127
10869 Off ch=5 n=e5 v=127
10869 Off ch=8 n=g5 v=127
10870 On ch=11 n=a5 v=127
10870 On ch=6 n=f5 v=127
10976 Off ch=6 n=f5 v=127
10976 Off ch=11 n=a5 v=127
10977 On ch=12 n=a#5 v=127
10977 On ch=8 n=g5 v=127
11083 Off ch=8 n=g5 v=127
11083 Off ch=12 n=a#5 v=127
11084 On ch=1 n=c6 v=127
11084 On ch=11 n=a5 v=127
11190 Off ch=11 n=a5 v=127
11190 Off ch=1 n=c6 v=127
11191 On ch=3 n=d6 v=127
11191 On ch=12 n=a#5 v=127
11400 Off ch=12 n=a#5 v=127
11400 Off ch=3 n=d6 v=127
11404 On ch=1 n=c6 v=127
11404 On ch=11 n=a5 v=127
11613 Off ch=11 n=a5 v=127
11613 Off ch=1 n=c6 v=127
11617 On ch=12 n=a#5 v=127
11617 On ch=8 n=g5 v=127
11826 Off ch=8 n=g5 v=127
11826 Off ch=12 n=a#5 v=127
11830 On ch=11 n=a5 v=127
11830 On ch=6 n=f5 v=127
12042 Off ch=6 n=f5 v=127
12042 Off ch=11 n=a5 v=127
12043 On ch=12 n=a#5 v=127
12043 On ch=8 n=g5 v=127
12149 Off ch=8 n=g5 v=127
12149 Off ch=12 n=a#5 v=127
12150 On ch=1 n=c6 v=127
12150 On ch=11 n=a5 v=127
12256 Off ch=11 n=a5 v=127
12256 Off ch=1 n=c6 v=127
12257 On ch=3 n=d6 v=127
12257 On ch=12 n=a#5 v=127
12363 Off ch=12 n=a#5 v=127
12363 Off ch=3 n=d6 v=127
12364 On ch=5 n=e6 v=127
12364 On ch=1 n=c6 v=127
12470 Off ch=1 n=c6 v=127
12470 Off ch=5 n=e6 v=127
12471 On ch=6 n=f6 v=127
12471 On ch=3 n=d6 v=127
12680 Off ch=3 n=d6 v=127
12680 Off ch=6 n=f6 v=127
12684 On ch=5 n=e6 v=127
12684 On ch=1 n=c6 v=127
12893 Off ch=1 n=c6 v=127
12893 Off ch=5 n=e6 v=127
12897 On ch=3 n=d6 v=127
12897 On ch=12 n=a#5 v=127
13106 Off ch=12 n=a#5 v=127
13106 Off ch=3 n=d6 v=127
13110 On ch=1 n=c6 v=127
13110 On ch=11 n=a5 v=127
13216 Off ch=11 n=a5 v=127
13216 Off ch=1 n=c6 v=127
13217 On ch=3 n=d6 v=127
13217 On ch=12 n=a#5 v=127
13323 Off ch=12 n=a#5 v=127
13323 Off ch=3 n=d6 v=127
13324 On ch=5 n=e6 v=127
13324 On ch=1 n=c6 v=127
13430 Off ch=1 n=c6 v=127
13430 Off ch=5 n=e6 v=127
13431 On ch=6 n=f6 v=127
13431 On ch=3 n=d6 v=127
13537 Off ch=3 n=d6 v=127
13537 Off ch=6 n=f6 v=127
13538 On ch=8 n=g6 v=127
13538 On ch=5 n=e6 v=127
13608 Off ch=5 n=e6 v=127
13608 Off ch=8 n=g6 v=127
13609 On ch=11 n=a6 v=127
13609 On ch=6 n=f6 v=127
13679 Off ch=6 n=f6 v=127
13679 Off ch=11 n=a6 v=127
13680 On ch=12 n=a#6 v=127
13680 On ch=8 n=g6 v=127
13750 Off ch=8 n=g6 v=127
13750 Off ch=12 n=a#6 v=127
13751 On ch=1 n=c7 v=127
13751 On ch=11 n=a6 v=127
13960 Off ch=11 n=a6 v=127
13960 Off ch=1 n=c7 v=127
13964 On ch=12 n=a#6 v=127
13964 On ch=8 n=g6 v=127
14173 Off ch=8 n=g6 v=127
14173 Off ch=12 n=a#6 v=127
14177 On ch=11 n=a6 v=127
14177 On ch=6 n=f6 v=127
14386 Off ch=6 n=f6 v=127
14386 Off ch=11 n=a6 v=127
14390 On ch=11 n=a6 v=127
14390 On ch=1 n=c5 v=127
14442 Off ch=11 n=a6 v=127
14443 On ch=8 n=g6 v=127
14495 Off ch=8 n=g6 v=127
14496 On ch=11 n=a6 v=127
14548 Off ch=11 n=a6 v=127
14549 On ch=8 n=g6 v=127
14601 Off ch=8 n=g6 v=127
14602 On ch=11 n=a6 v=127
14654 Off ch=11 n=a6 v=127
14655 On ch=8 n=g6 v=127
14707 Off ch=8 n=g6 v=127
14708 On ch=11 n=a6 v=127
14760 Off ch=11 n=a6 v=127
14761 On ch=8 n=g6 v=127
14813 Off ch=8 n=g6 v=127
14814 On ch=11 n=a6 v=127
14866 Off ch=11 n=a6 v=127
14867 On ch=8 n=g6 v=127
14919 Off ch=8 n=g6 v=127
14920 On ch=11 n=a6 v=127
14972 Off ch=11 n=a6 v=127
14973 On ch=8 n=g6 v=127
15025 Off ch=1 n=c5 v=127
15026 On ch=8 n=g5 v=127
15026 On ch=5 n=e5 v=127
15238 Off ch=8 n=g6 v=127
15239 On ch=1 n=c7 v=127
15452 On ch=1 n=c6 v=127
15661 Off ch=1 n=c7 v=127
15664 Off ch=1 n=c6 v=127
15664 Off ch=5 n=e5 v=127
15664 Off ch=8 n=g5 v=127
15665 On ch=5 n=e6 v=127
15665 On ch=6 n=f5 v=127
15665 On ch=11 n=a5 v=127
15717 Off ch=5 n=e6 v=127
15718 On ch=3 n=d6 v=127
15770 Off ch=3 n=d6 v=127
15771 On ch=5 n=e6 v=127
15823 Off ch=5 n=e6 v=127
15824 On ch=3 n=d6 v=127
15876 Off ch=3 n=d6 v=127
15877 On ch=5 n=e6 v=127
15929 Off ch=5 n=e6 v=127
15930 On ch=3 n=d6 v=127
15982 Off ch=3 n=d6 v=127
15983 On ch=5 n=e6 v=127
16035 Off ch=5 n=e6 v=127
16036 On ch=3 n=d6 v=127
16088 Off ch=3 n=d6 v=127
16089 On ch=1 n=c6 v=127
16301 Off ch=11 n=a5 v=127
16301 Off ch=6 n=f5 v=127
16302 On ch=8 n=g5 v=127
16302 On ch=5 n=e5 v=127
16514 Off ch=5 n=e5 v=127
16514 Off ch=8 n=g5 v=127
16514 Off ch=1 n=c6 v=127
16515 On ch=1 n=c7 v=127
16515 On ch=3 n=d5 v=127
16727 Off ch=3 n=d5 v=127
16728 On ch=1 n=c6 v=127
16728 On ch=1 n=c5 v=127
16937 Off ch=1 n=c7 v=127
16940 Off ch=1 n=c5 v=127
16940 Off ch=1 n=c6 v=127
16941 On ch=5 n=e6 v=127
16941 On ch=6 n=f5 v=127
16941 On ch=11 n=a5 v=127
16993 Off ch=5 n=e6 v=127
16994 On ch=3 n=d6 v=127
17046 Off ch=3 n=d6 v=127
17047 On ch=5 n=e6 v=127
17099 Off ch=5 n=e6 v=127
17100 On ch=3 n=d6 v=127
17152 Off ch=3 n=d6 v=127
17153 On ch=5 n=e6 v=127
17205 Off ch=5 n=e6 v=127
17206 On ch=3 n=d6 v=127
17258 Off ch=3 n=d6 v=127
17259 On ch=5 n=e6 v=127
17311 Off ch=5 n=e6 v=127
17312 On ch=3 n=d6 v=127
17364 Off ch=3 n=d6 v=127
17365 On ch=1 n=c6 v=127
17577 Off ch=11 n=a5 v=127
17577 Off ch=6 n=f5 v=127
17578 On ch=8 n=g5 v=127
17578 On ch=5 n=e5 v=127
17790 Off ch=5 n=e5 v=127
17790 Off ch=8 n=g5 v=127
17790 Off ch=1 n=c6 v=127
17791 On ch=1 n=c7 v=127
17791 On ch=3 n=d5 v=127
18003 Off ch=3 n=d5 v=127
18003 Off ch=1 n=c7 v=127
18004 On ch=12 n=a#6 v=127
18004 On ch=1 n=c5 v=127
18216 Off ch=1 n=c5 v=127
18216 Off ch=12 n=a#6 v=127
18217 On ch=11 n=a6 v=127
18217 On ch=11 n=a5 v=127
18217 On ch=6 n=f5 v=127
18429 Off ch=11 n=a6 v=127
18430 On ch=8 n=g6 v=127
18642 Off ch=8 n=g6 v=127
18642 Off ch=6 n=f5 v=127
18643 On ch=6 n=f6 v=127
18643 On ch=12 n=a#4 v=127
18855 Off ch=12 n=a#4 v=127
18856 On ch=1 n=c5 v=127
19068 Off ch=6 n=f6 v=127
19069 On ch=8 n=g6 v=127
19281 Off ch=8 n=g6 v=127
19282 Off ch=11 n=a5 v=127
19282 On ch=5 n=e6 v=127
19282 On ch=8 n=g5 v=127
19494 Off ch=8 n=g5 v=127
19494 Off ch=5 n=e6 v=127
19494 Off ch=1 n=c5 v=127
19495 On ch=8 n=g6 v=127
19495 On ch=6 n=f5 v=127
19547 Off ch=8 n=g6 v=127
19548 On ch=6 n=f6 v=127
19600 Off ch=6 n=f6 v=127
19601 On ch=8 n=g6 v=127
19653 Off ch=8 n=g6 v=127
19654 On ch=6 n=f6 v=127
19706 Off ch=6 n=f6 v=127
19706 Off ch=6 n=f5 v=127
19707 On ch=8 n=g6 v=127
19707 On ch=1 n=c5 v=127
19759 Off ch=8 n=g6 v=127
19760 On ch=6 n=f6 v=127
19812 Off ch=6 n=f6 v=127
19813 On ch=8 n=g6 v=127
19865 Off ch=8 n=g6 v=127
19866 On ch=6 n=f6 v=127
19918 Off ch=6 n=f6 v=127
19918 Off ch=1 n=c5 v=127
19919 On ch=8 n=g6 v=127
19919 On ch=6 n=f4 v=127
19971 Off ch=8 n=g6 v=127
19972 On ch=6 n=f6 v=127
20024 Off ch=6 n=f6 v=127
20025 On ch=8 n=g6 v=127
20077 Off ch=8 n=g6 v=127
20078 On ch=6 n=f6 v=127
20130 Off ch=6 n=f4 v=127
20131 On ch=1 n=c4 v=127
20343 Off ch=6 n=f6 v=127
20344 On ch=8 n=g6 v=127
20556 Off ch=8 n=g6 v=127
20557 On ch=1 n=c6 v=127
20769 Off ch=1 n=c6 v=127
20769 Off ch=1 n=c4 v=127
20770 On ch=11 n=a6 v=127
20770 On ch=8 n=g6 v=127
20770 On ch=6 n=f5 v=127
20822 Off ch=8 n=g6 v=127
20823 On ch=6 n=f6 v=127
20875 Off ch=6 n=f6 v=127
20876 On ch=8 n=g6 v=127
20928 Off ch=8 n=g6 v=127
20929 On ch=6 n=f6 v=127
20981 Off ch=6 n=f6 v=127
20981 Off ch=6 n=f5 v=127
20982 On ch=8 n=g6 v=127
20982 On ch=1 n=c5 v=127
21034 Off ch=8 n=g6 v=127
21035 On ch=6 n=f6 v=127
21087 Off ch=6 n=f6 v=127
21088 On ch=8 n=g6 v=127
21140 Off ch=8 n=g6 v=127
21141 On ch=6 n=f6 v=127
21193 Off ch=6 n=f6 v=127
21193 Off ch=1 n=c5 v=127
21194 On ch=8 n=g6 v=127
21194 On ch=6 n=f4 v=127
21246 Off ch=8 n=g6 v=127
21247 On ch=6 n=f6 v=127
21299 Off ch=6 n=f6 v=127
21300 On ch=8 n=g6 v=127
21352 Off ch=8 n=g6 v=127
21353 On ch=6 n=f6 v=127
21405 Off ch=6 n=f4 v=127
21406 On ch=1 n=c4 v=127
21618 Off ch=6 n=f6 v=127
21618 Off ch=11 n=a6 v=127
21619 On ch=8 n=g6 v=127
21831 Off ch=8 n=g6 v=127
21832 On ch=1 n=c6 v=127
22044 Off ch=1 n=c6 v=127
22044 Off ch=1 n=c4 v=127
22045 On ch=11 n=a6 v=127
22045 On ch=8 n=g6 v=127
22045 On ch=6 n=f5 v=127
22097 Off ch=8 n=g6 v=127
22098 On ch=6 n=f6 v=127
22150 Off ch=6 n=f6 v=127
22151 On ch=8 n=g6 v=127
22203 Off ch=8 n=g6 v=127
22204 On ch=6 n=f6 v=127
22256 Off ch=6 n=f6 v=127
22256 Off ch=6 n=f5 v=127
22257 On ch=8 n=g6 v=127
22257 On ch=1 n=c5 v=127
22309 Off ch=8 n=g6 v=127
22310 On ch=6 n=f6 v=127
22362 Off ch=6 n=f6 v=127
22363 On ch=8 n=g6 v=127
22415 Off ch=8 n=g6 v=127
22416 On ch=6 n=f6 v=127
22468 Off ch=6 n=f6 v=127
22468 Off ch=1 n=c5 v=127
22469 On ch=8 n=g6 v=127
22469 On ch=6 n=f4 v=127
22521 Off ch=8 n=g6 v=127
22522 On ch=6 n=f6 v=127
22574 Off ch=6 n=f6 v=127
22575 On ch=8 n=g6 v=127
22627 Off ch=8 n=g6 v=127
22628 On ch=6 n=f6 v=127
22680 Off ch=6 n=f4 v=127
22681 On ch=1 n=c3 v=127
22893 Off ch=6 n=f6 v=127
22893 Off ch=11 n=a6 v=127
22894 On ch=8 n=g6 v=127
23106 Off ch=8 n=g6 v=127
23106 Off ch=1 n=c3 v=127
23107 On ch=1 n=c6 v=127
23107 On ch=5 n=e5 v=127
23319 Off ch=5 n=e5 v=127
23319 Off ch=1 n=c6 v=127
23320 On ch=6 n=f6 v=127
23320 On ch=11 n=a6 v=127
23320 On ch=6 n=f5 v=127
23532 Off ch=11 n=a6 v=127
23532 Off ch=6 n=f6 v=127
23533 On ch=8 n=g6 v=127
23533 On ch=12 n=a#6 v=127
23745 Off ch=12 n=a#6 v=127
23745 Off ch=8 n=g6 v=127
23746 On ch=1 n=c7 v=127
23746 On ch=11 n=a6 v=127
23958 Off ch=6 n=f5 v=127
23959 On ch=3 n=d5 v=127
23959 On ch=6 n=f5 v=127
23959 On ch=12 n=a#4 v=127
24171 Off ch=11 n=a6 v=127
24171 Off ch=1 n=c7 v=127
24172 On ch=12 n=a#6 v=127
24172 On ch=8 n=g6 v=127
24384 Off ch=8 n=g6 v=127
24384 Off ch=12 n=a#6 v=127
24385 On ch=11 n=a6 v=127
24385 On ch=6 n=f6 v=127
24597 Off ch=6 n=f6 v=127
24597 Off ch=11 n=a6 v=127
24597 Off ch=12 n=a#4 v=127
24597 Off ch=6 n=f5 v=127
24597 Off ch=3 n=d5 v=127
24598 On ch=8 n=g6 v=127
24598 On ch=1 n=c5 v=127
24598 On ch=1 n=c4 v=127
24704 Off ch=8 n=g6 v=127
24705 On ch=6 n=f6 v=127
24811 Off ch=6 n=f6 v=127
24812 On ch=5 n=e6 v=127
24918 Off ch=5 n=e6 v=127
24919 On ch=3 n=d6 v=127
25025 Off ch=3 n=d6 v=127
25026 On ch=1 n=c6 v=127
25132 Off ch=1 n=c6 v=127
25133 On ch=12 n=a#5 v=127
25239 Off ch=12 n=a#5 v=127
25240 On ch=11 n=a5 v=127
25346 Off ch=11 n=a5 v=127
25347 On ch=8 n=g5 v=127
25453 Off ch=8 n=g5 v=127
25453 Off ch=1 n=c4 v=127
25453 Off ch=1 n=c5 v=127
25454 On ch=6 n=f5 v=127
25560 Off ch=6 n=f5 v=127
25561 On ch=5 n=e5 v=127
25667 Off ch=5 n=e5 v=127
25668 On ch=3 n=d5 v=127
25774 Off ch=3 n=d5 v=127
25775 On ch=1 n=c5 v=127
25881 Off ch=1 n=c5 v=127
25882 On ch=11 n=a5 v=127
25882 On ch=8 n=g5 v=127
25882 On ch=6 n=f4 v=127
25934 Off ch=8 n=g5 v=127
25935 On ch=6 n=f5 v=127
25987 Off ch=6 n=f5 v=127
25988 On ch=8 n=g5 v=127
26040 Off ch=8 n=g5 v=127
26041 On ch=6 n=f5 v=127
26093 Off ch=6 n=f5 v=127
26093 Off ch=6 n=f4 v=127
26094 On ch=8 n=g5 v=127
26094 On ch=1 n=c4 v=127
26146 Off ch=8 n=g5 v=127
26147 On ch=6 n=f5 v=127
26199 Off ch=6 n=f5 v=127
26200 On ch=8 n=g5 v=127
26252 Off ch=8 n=g5 v=127
26253 On ch=6 n=f5 v=127
26305 Off ch=6 n=f5 v=127
26305 Off ch=1 n=c4 v=127
26306 On ch=8 n=g5 v=127
26306 On ch=6 n=f3 v=127
26358 Off ch=8 n=g5 v=127
26359 On ch=6 n=f5 v=127
26411 Off ch=6 n=f5 v=127
26412 On ch=8 n=g5 v=127
26464 Off ch=8 n=g5 v=127
26465 On ch=6 n=f5 v=127
26517 Off ch=6 n=f3 v=127
26518 On ch=1 n=c3 v=127
26730 Off ch=6 n=f5 v=127
26730 Off ch=11 n=a5 v=127
26731 On ch=8 n=g5 v=127
26943 Off ch=8 n=g5 v=127
26944 On ch=1 n=c5 v=127
27156 Off ch=1 n=c5 v=127
27156 Off ch=1 n=c3 v=127
27157 On ch=11 n=a5 v=127
27157 On ch=8 n=g5 v=127
27157 On ch=6 n=f4 v=127
27209 Off ch=8 n=g5 v=127
27210 On ch=6 n=f5 v=127
27262 Off ch=6 n=f5 v=127
27263 On ch=8 n=g5 v=127
27315 Off ch=8 n=g5 v=127
27316 On ch=6 n=f5 v=127
27368 Off ch=6 n=f5 v=127
27368 Off ch=6 n=f4 v=127
27369 On ch=8 n=g5 v=127
27369 On ch=1 n=c4 v=127
27421 Off ch=8 n=g5 v=127
27422 On ch=6 n=f5 v=127
27474 Off ch=6 n=f5 v=127
27475 On ch=8 n=g5 v=127
27527 Off ch=8 n=g5 v=127
27528 On ch=6 n=f5 v=127
27580 Off ch=6 n=f5 v=127
27580 Off ch=1 n=c4 v=127
27581 On ch=8 n=g5 v=127
27581 On ch=6 n=f3 v=127
27633 Off ch=8 n=g5 v=127
27634 On ch=6 n=f5 v=127
27686 Off ch=6 n=f5 v=127
27687 On ch=8 n=g5 v=127
27739 Off ch=8 n=g5 v=127
27740 On ch=6 n=f5 v=127
27792 Off ch=6 n=f3 v=127
27793 On ch=1 n=c3 v=127
28005 Off ch=6 n=f5 v=127
28005 Off ch=11 n=a5 v=127
28006 On ch=8 n=g5 v=127
28218 Off ch=8 n=g5 v=127
28219 On ch=1 n=c5 v=127
28431 Off ch=1 n=c5 v=127
28431 Off ch=1 n=c3 v=127
28432 On ch=11 n=a5 v=127
28432 On ch=6 n=f5 v=127
28432 On ch=6 n=f4 v=127
28644 Off ch=11 n=a5 v=127
28645 On ch=8 n=g5 v=127
28857 Off ch=8 n=g5 v=127
28857 Off ch=6 n=f4 v=127
28857 Off ch=6 n=f5 v=127
28858 On ch=3 n=d5 v=127
28858 On ch=6 n=f5 v=127
28858 On ch=12 n=a#4 v=127
29070 Off ch=12 n=a#4 v=127
29070 Off ch=6 n=f5 v=127
29070 Off ch=3 n=d5 v=127
29071 On ch=11 n=a5 v=127
29071 On ch=6 n=f5 v=127
29071 On ch=1 n=c5 v=127
29283 Off ch=6 n=f5 v=127
29283 Off ch=11 n=a5 v=127
29284 On ch=8 n=g5 v=127
29284 On ch=12 n=a#5 v=127
29496 Off ch=12 n=a#5 v=127
29496 Off ch=8 n=g5 v=127
29496 Off ch=1 n=c5 v=127
29497 On ch=5 n=e5 v=127
29497 On ch=8 n=g5 v=127
29497 On ch=1 n=c4 v=127
29709 Off ch=1 n=c4 v=127
29709 Off ch=8 n=g5 v=127
29709 Off ch=5 n=e5 v=127
29710 On ch=6 n=f5 v=127
29710 On ch=6 n=f3 v=127
29922 Off ch=6 n=f5 v=127
29923 On ch=8 n=g5 v=127
29975 Off ch=8 n=g5 v=127
29976 On ch=11 n=a5 v=127
30028 Off ch=11 n=a5 v=127
30029 On ch=12 n=a#5 v=127
30081 Off ch=12 n=a#5 v=127
30082 On ch=1 n=c6 v=127
30134 Off ch=1 n=c6 v=127
30135 On ch=3 n=d6 v=127
30187 Off ch=3 n=d6 v=127
30188 On ch=5 n=e6 v=127
30240 Off ch=5 n=e6 v=127
30241 On ch=6 n=f6 v=127
30293 Off ch=6 n=f6 v=127
30294 On ch=8 n=g6 v=127
30346 Off ch=8 n=g6 v=127
30346 Off ch=6 n=f3 v=127
30347 On ch=11 n=a6 v=127
30347 On ch=6 n=f4 v=127
30347 On ch=6 n=f3 v=127
30559 Off ch=11 n=a6 v=127
30560 On ch=1 n=c7 v=127
30773 On ch=1 n=c6 v=127
30982 Off ch=1 n=c7 v=127
30985 Off ch=1 n=c6 v=127
30985 Off ch=6 n=f3 v=127
30985 Off ch=6 n=f4 v=127
30986 On ch=11 n=a6 v=127
30986 On ch=6 n=f3 v=127
30986 On ch=6 n=f4 v=127
31198 Off ch=11 n=a6 v=127
31199 On ch=1 n=c7 v=127
31412 On ch=1 n=c6 v=127
31621 Off ch=1 n=c7 v=127
31624 Off ch=1 n=c6 v=127
31624 Off ch=6 n=f4 v=127
31624 Off ch=6 n=f3 v=127
31625 On ch=11 n=a6 v=127
31625 On ch=6 n=f3 v=127
31625 On ch=6 n=f4 v=127
31837 Off ch=11 n=a6 v=127
31838 On ch=1 n=c7 v=127
32051 On ch=1 n=c6 v=127
32260 Off ch=1 n=c7 v=127
32263 Off ch=1 n=c6 v=127
32263 Off ch=6 n=f4 v=127
32263 Off ch=6 n=f3 v=127
32264 On ch=11 n=a6 v=127
32264 On ch=8 n=g6 v=127
32264 On ch=6 n=f4 v=127
32264 On ch=6 n=f3 v=127
32316 Off ch=8 n=g6 v=127
32317 On ch=6 n=f6 v=127
32369 Off ch=6 n=f6 v=127
32370 On ch=8 n=g6 v=127
32422 Off ch=8 n=g6 v=127
32423 On ch=6 n=f6 v=127
32902 Off ch=11 n=a6 v=127
33329 Off ch=6 n=f6 v=127
33330 On ch=1 n=c5 v=127
33542 Off ch=1 n=c5 v=127
33542 Off ch=6 n=f3 v=127
33542 Off ch=6 n=f4 v=127
33543 On ch=6 n=f5 v=127
33543 On ch=6 n=f4 v=127
33543 On ch=11 n=a4 v=127
33543 On ch=1 n=c5 v=127
33755 Off ch=6 n=f5 v=127
33756 On ch=8 n=g5 v=127
33968 Off ch=8 n=g5 v=127
33969 On ch=11 n=a5 v=127
34181 Off ch=11 n=a5 v=127
34181 Off ch=1 n=c5 v=127
34181 Off ch=11 n=a4 v=127
34181 Off ch=6 n=f4 v=127
34182 On ch=8 n=g5 v=127
34182 On ch=5 n=e4 v=127
34182 On ch=1 n=c5 v=127
34182 On ch=8 n=g4 v=127
34394 Off ch=8 n=g5 v=127
34395 On ch=11 n=a5 v=127
34607 Off ch=11 n=a5 v=127
34608 On ch=12 n=a#5 v=127
34820 Off ch=12 n=a#5 v=127
34820 Off ch=8 n=g4 v=127
34820 Off ch=1 n=c5 v=127
34820 Off ch=5 n=e4 v=127
34821 On ch=11 n=a5 v=127
34821 On ch=1 n=c5 v=127
34821 On ch=11 n=a4 v=127
34821 On ch=6 n=f4 v=127
35033 Off ch=11 n=a5 v=127
35034 On ch=12 n=a#5 v=127
35246 Off ch=12 n=a#5 v=127
35247 On ch=1 n=c6 v=127
35459 Off ch=6 n=f4 v=127
35459 Off ch=11 n=a4 v=127
35459 Off ch=1 n=c5 v=127
35460 On ch=8 n=g4 v=127
35460 On ch=1 n=c5 v=127
35460 On ch=4 n=d#4 v=127
35672 Off ch=1 n=c6 v=127
35673 On ch=3 n=d6 v=127
35885 Off ch=3 n=d6 v=127
35886 On ch=4 n=d#6 v=127
36098 Off ch=4 n=d#6 v=127
36098 Off ch=4 n=d#4 v=127
36098 Off ch=1 n=c5 v=127
36098 Off ch=8 n=g4 v=127
36099 On ch=8 n=g5 v=127
36099 On ch=3 n=d5 v=127
36099 On ch=3 n=d4 v=127
36099 On ch=11 n=a4 v=127
36099 On ch=11 n=a5 v=127
36311 Off ch=11 n=a5 v=127
36311 Off ch=8 n=g5 v=127
36312 On ch=7 n=f#5 v=127
36524 Off ch=7 n=f#5 v=127
36525 On ch=8 n=g5 v=127
36737 Off ch=8 n=g5 v=127
36737 Off ch=11 n=a4 v=127
36737 Off ch=3 n=d4 v=127
36737 Off ch=3 n=d5 v=127
36738 On ch=11 n=a5 v=127
36738 On ch=3 n=d5 v=127
36738 On ch=11 n=a4 v=127
36738 On ch=7 n=f#4 v=127
36950 Off ch=11 n=a5 v=127
36951 On ch=12 n=a#5 v=127
37163 Off ch=12 n=a#5 v=127
37164 On ch=1 n=c6 v=127
37376 Off ch=1 n=c6 v=127
37376 Off ch=7 n=f#4 v=127
37376 Off ch=11 n=a4 v=127
37376 Off ch=3 n=d5 v=127
37377 On ch=12 n=a#5 v=127
37377 On ch=3 n=d5 v=127
37377 On ch=8 n=g4 v=127
37377 On ch=12 n=a#4 v=127
37589 Off ch=12 n=a#5 v=127
37590 On ch=1 n=c6 v=127
37802 Off ch=1 n=c6 v=127
37803 On ch=3 n=d6 v=127
38015 Off ch=12 n=a#4 v=127
38015 Off ch=8 n=g4 v=127
38015 Off ch=3 n=d5 v=127
38016 On ch=3 n=d5 v=127
38016 On ch=6 n=f4 v=127
38016 On ch=11 n=a4 v=127
38228 Off ch=3 n=d6 v=127
38229 On ch=5 n=e6 v=127
38441 Off ch=5 n=e6 v=127
38442 On ch=6 n=f6 v=127
38654 Off ch=6 n=f6 v=127
38654 Off ch=11 n=a4 v=127
38654 Off ch=6 n=f4 v=127
38654 Off ch=3 n=d5 v=127
38655 On ch=11 n=a5 v=127
38655 On ch=5 n=e5 v=127
38655 On ch=13 n=b4 v=127
38655 On ch=5 n=e4 v=127
38655 On ch=13 n=b5 v=127
38867 Off ch=13 n=b5 v=127
38867 Off ch=11 n=a5 v=127
38868 On ch=9 n=g#5 v=127
39080 Off ch=9 n=g#5 v=127
39081 On ch=11 n=a5 v=127
39293 Off ch=11 n=a5 v=127
39293 Off ch=5 n=e4 v=127
39293 Off ch=13 n=b4 v=127
39293 Off ch=5 n=e5 v=127
39294 On ch=13 n=b5 v=127
39294 On ch=9 n=g#4 v=127
39294 On ch=13 n=b4 v=127
39294 On ch=5 n=e5 v=127
39506 Off ch=13 n=b5 v=127
39507 On ch=2 n=c#6 v=127
39719 Off ch=2 n=c#6 v=127
39720 On ch=3 n=d6 v=127
39932 Off ch=3 n=d6 v=127
39932 Off ch=5 n=e5 v=127
39932 Off ch=13 n=b4 v=127
39932 Off ch=9 n=g#4 v=127
39933 On ch=2 n=c#6 v=127
39933 On ch=11 n=a4 v=127
39933 On ch=5 n=e5 v=127
39933 On ch=2 n=c#5 v=127
40145 Off ch=2 n=c#6 v=127
40146 On ch=3 n=d6 v=127
40358 Off ch=3 n=d6 v=127
40359 On ch=5 n=e6 v=127
40571 Off ch=2 n=c#5 v=127
40571 Off ch=5 n=e5 v=127
40571 Off ch=11 n=a4 v=127
40572 On ch=11 n=a4 v=127
40572 On ch=2 n=c#4 v=127
40572 On ch=5 n=e4 v=127
40784 Off ch=5 n=e6 v=127
40785 On ch=6 n=f6 v=127
40997 Off ch=6 n=f6 v=127
40998 On ch=8 n=g6 v=127
41210 Off ch=8 n=g6 v=127
41210 Off ch=5 n=e4 v=127
41210 Off ch=2 n=c#4 v=127
41210 Off ch=11 n=a4 v=127
41211 On ch=8 n=g6 v=127
41211 On ch=3 n=d5 v=127
41211 On ch=11 n=a4 v=127
41211 On ch=3 n=d4 v=127
41317 Off ch=8 n=g6 v=127
41318 On ch=6 n=f6 v=127
41424 Off ch=6 n=f6 v=127
41425 On ch=5 n=e6 v=127
41637 Off ch=5 n=e6 v=127
41638 On ch=3 n=d6 v=127
41850 Off ch=3 n=d6 v=127
41850 Off ch=3 n=d4 v=127
41850 Off ch=11 n=a4 v=127
41850 Off ch=3 n=d5 v=127
41851 On ch=11 n=a6 v=127
41851 On ch=3 n=d5 v=127
41851 On ch=6 n=f4 v=127
42063 Off ch=11 n=a6 v=127
42064 On ch=8 n=g6 v=127
42276 Off ch=8 n=g6 v=127
42276 Off ch=6 n=f4 v=127
42276 Off ch=3 n=d5 v=127
42277 On ch=6 n=f6 v=127
42277 On ch=8 n=g4 v=127
42489 Off ch=8 n=g4 v=127
42490 On ch=11 n=a4 v=127
42543 Off ch=6 n=f6 v=127
42543 On ch=5 n=e6 v=127
42595 Off ch=5 n=e6 v=127
42596 On ch=6 n=f6 v=127
42648 Off ch=6 n=f6 v=127
42649 On ch=5 n=e6 v=127
42701 Off ch=5 n=e6 v=127
42701 Off ch=11 n=a4 v=127
42702 On ch=6 n=f6 v=127
42702 On ch=5 n=e4 v=127
42754 Off ch=6 n=f6 v=127
42755 On ch=5 n=e6 v=127
42807 Off ch=5 n=e6 v=127
42808 On ch=6 n=f6 v=127
42860 Off ch=6 n=f6 v=127
42861 On ch=5 n=e6 v=127
42913 Off ch=5 n=e6 v=127
42913 Off ch=5 n=e4 v=127
42914 On ch=6 n=f6 v=127
42914 On ch=2 n=c#4 v=127
42966 Off ch=6 n=f6 v=127
42967 On ch=5 n=e6 v=127
43019 Off ch=5 n=e6 v=127
43020 On ch=6 n=f6 v=127
43072 Off ch=6 n=f6 v=127
43073 On ch=5 n=e6 v=127
43125 Off ch=2 n=c#4 v=127
43126 On ch=11 n=a3 v=127
43338 Off ch=5 n=e6 v=127
43339 On ch=11 n=a6 v=127
43552 On ch=11 n=a5 v=127
43761 Off ch=11 n=a6 v=127
43764 Off ch=11 n=a5 v=127
43764 Off ch=11 n=a3 v=127
43765 On ch=1 n=c6 v=127
43765 On ch=3 n=d5 v=127
43765 On ch=6 n=f5 v=127
43817 Off ch=1 n=c6 v=127
43818 On ch=12 n=a#5 v=127
43870 Off ch=12 n=a#5 v=127
43871 On ch=1 n=c6 v=127
43923 Off ch=1 n=c6 v=127
43924 On ch=12 n=a#5 v=127
43976 Off ch=12 n=a#5 v=127
43977 On ch=1 n=c6 v=127
44029 Off ch=1 n=c6 v=127
44030 On ch=12 n=a#5 v=127
44082 Off ch=12 n=a#5 v=127
44083 On ch=1 n=c6 v=127
44135 Off ch=1 n=c6 v=127
44136 On ch=12 n=a#5 v=127
44188 Off ch=12 n=a#5 v=127
44189 On ch=11 n=a5 v=127
44401 Off ch=6 n=f5 v=127
44401 Off ch=3 n=d5 v=127
44402 On ch=2 n=c#5 v=127
44402 On ch=5 n=e5 v=127
44614 Off ch=11 n=a5 v=127
44615 On ch=11 n=a6 v=127
44828 On ch=11 n=a5 v=127
45037 Off ch=11 n=a6 v=127
45040 Off ch=11 n=a5 v=127
45040 Off ch=5 n=e5 v=127
45040 Off ch=2 n=c#5 v=127
45041 On ch=1 n=c6 v=127
45041 On ch=3 n=d5 v=127
45041 On ch=6 n=f5 v=127
45093 Off ch=1 n=c6 v=127
45094 On ch=12 n=a#5 v=127
45146 Off ch=12 n=a#5 v=127
45147 On ch=1 n=c6 v=127
45199 Off ch=1 n=c6 v=127
45200 On ch=12 n=a#5 v=127
45252 Off ch=12 n=a#5 v=127
45253 On ch=1 n=c6 v=127
45305 Off ch=1 n=c6 v=127
45306 On ch=12 n=a#5 v=127
45358 Off ch=12 n=a#5 v=127
45359 On ch=1 n=c6 v=127
45411 Off ch=1 n=c6 v=127
45412 On ch=12 n=a#5 v=127
45464 Off ch=12 n=a#5 v=127
45465 On ch=11 n=a5 v=127
45677 Off ch=6 n=f5 v=127
45677 Off ch=3 n=d5 v=127
45678 On ch=7 n=f#5 v=127
45678 On ch=3 n=d5 v=127
45890 Off ch=11 n=a5 v=127
45891 On ch=11 n=a6 v=127
46103 Off ch=11 n=a6 v=127
46104 On ch=7 n=f#6 v=127
46316 Off ch=7 n=f#6 v=127
46316 Off ch=3 n=d5 v=127
46316 Off ch=7 n=f#5 v=127
46317 On ch=8 n=g6 v=127
46317 On ch=4 n=d#5 v=127
46317 On ch=8 n=g5 v=127
46529 Off ch=8 n=g6 v=127
46530 On ch=11 n=a6 v=127
46742 Off ch=11 n=a6 v=127
46743 On ch=12 n=a#6 v=127
46955 Off ch=12 n=a#6 v=127
46955 Off ch=8 n=g5 v=127
46955 Off ch=4 n=d#5 v=127
46956 On ch=1 n=c7 v=127
46956 On ch=1 n=c5 v=127
46956 On ch=11 n=a5 v=127
46956 On ch=4 n=d#5 v=127
47062 Off ch=1 n=c7 v=127
47063 On ch=12 n=a#6 v=127
47169 Off ch=12 n=a#6 v=127
47170 On ch=11 n=a6 v=127
47382 Off ch=11 n=a6 v=127
47383 On ch=8 n=g6 v=127
47595 Off ch=8 n=g6 v=127
47595 Off ch=4 n=d#5 v=127
47595 Off ch=1 n=c5 v=127
47596 On ch=7 n=f#6 v=127
47596 On ch=3 n=d5 v=127
47596 On ch=7 n=f#5 v=127
47808 Off ch=7 n=f#6 v=127
47809 On ch=8 n=g6 v=127
48021 Off ch=8 n=g6 v=127
48022 On ch=11 n=a6 v=127
48233 Off ch=11 n=a5 v=127
48234 Off ch=11 n=a6 v=127
48234 Off ch=7 n=f#5 v=127
48234 Off ch=3 n=d5 v=127
48235 On ch=6 n=f6 v=127
48235 On ch=3 n=d5 v=127
48235 On ch=11 n=a4 v=127
48235 On ch=7 n=f#4 v=127
48341 Off ch=6 n=f6 v=127
48342 On ch=4 n=d#6 v=127
48448 Off ch=4 n=d#6 v=127
48449 On ch=3 n=d6 v=127
48661 Off ch=3 n=d6 v=127
48662 On ch=1 n=c6 v=127
48874 Off ch=1 n=c6 v=127
48874 Off ch=7 n=f#4 v=127
48874 Off ch=11 n=a4 v=127
48874 Off ch=3 n=d5 v=127
48875 On ch=1 n=c6 v=127
48875 On ch=8 n=g4 v=127
49087 Off ch=1 n=c6 v=127
49088 On ch=12 n=a#5 v=127
49300 Off ch=12 n=a#5 v=127
49300 Off ch=8 n=g4 v=127
49301 On ch=8 n=g6 v=127
49301 On ch=8 n=g5 v=127
49513 Off ch=8 n=g5 v=127
49513 Off ch=8 n=g6 v=127
49514 On ch=12 n=a#5 v=127
49514 On ch=6 n=f4 v=127
49726 Off ch=12 n=a#5 v=127
49727 On ch=11 n=a5 v=127
49939 Off ch=11 n=a5 v=127
49939 Off ch=6 n=f4 v=127
49940 On ch=6 n=f6 v=127
49940 On ch=6 n=f5 v=127
50152 Off ch=6 n=f5 v=127
50152 Off ch=6 n=f6 v=127
50153 On ch=11 n=a5 v=127
50153 On ch=5 n=e4 v=127
50365 Off ch=11 n=a5 v=127
50366 On ch=8 n=g5 v=127
50578 Off ch=8 n=g5 v=127
50578 Off ch=5 n=e4 v=127
50579 On ch=5 n=e6 v=127
50579 On ch=5 n=e5 v=127
50791 Off ch=5 n=e5 v=127
50791 Off ch=5 n=e6 v=127
50792 On ch=8 n=g5 v=127
50792 On ch=3 n=d4 v=127
51004 Off ch=8 n=g5 v=127
51005 On ch=6 n=f5 v=127
51217 Off ch=6 n=f5 v=127
51217 Off ch=3 n=d4 v=127
51218 On ch=3 n=d6 v=127
51218 On ch=3 n=d5 v=127
51430 Off ch=3 n=d5 v=127
51430 Off ch=3 n=d6 v=127
51431 On ch=6 n=f5 v=127
51431 On ch=1 n=c4 v=127
51643 Off ch=6 n=f5 v=127
51644 On ch=5 n=e5 v=127
51856 Off ch=5 n=e5 v=127
51856 Off ch=1 n=c4 v=127
51857 On ch=1 n=c6 v=127
51857 On ch=1 n=c5 v=127
52069 Off ch=1 n=c5 v=127
52069 Off ch=1 n=c6 v=127
52070 On ch=5 n=e5 v=127
52070 On ch=12 n=a#3 v=127
52282 Off ch=5 n=e5 v=127
52283 On ch=3 n=d5 v=127
52495 Off ch=3 n=d5 v=127
52495 Off ch=12 n=a#3 v=127
52496 On ch=12 n=a#5 v=127
52496 On ch=12 n=a#4 v=127
52708 Off ch=12 n=a#4 v=127
52708 Off ch=12 n=a#5 v=127
52709 On ch=3 n=d5 v=127
52709 On ch=11 n=a3 v=127
52921 Off ch=3 n=d5 v=127
52922 On ch=1 n=c5 v=127
53134 Off ch=1 n=c5 v=127
53134 Off ch=11 n=a3 v=127
53135 On ch=11 n=a5 v=127
53135 On ch=11 n=a4 v=127
53347 Off ch=11 n=a4 v=127
53347 Off ch=11 n=a5 v=127
53348 On ch=1 n=c5 v=127
53348 On ch=8 n=g3 v=127
53560 Off ch=1 n=c5 v=127
53561 On ch=12 n=a#4 v=127
53773 Off ch=12 n=a#4 v=127
53773 Off ch=8 n=g3 v=127
53774 On ch=8 n=g5 v=127
53774 On ch=8 n=g4 v=127
53986 Off ch=8 n=g4 v=127
53986 Off ch=8 n=g5 v=127
53987 On ch=11 n=a4 v=127
53987 On ch=6 n=f4 v=127
54199 Off ch=6 n=f4 v=127
54199 Off ch=11 n=a4 v=127
54200 On ch=13 n=b4 v=127
54200 On ch=8 n=g4 v=127
54306 Off ch=8 n=g4 v=127
54306 Off ch=13 n=b4 v=127
54307 On ch=2 n=c#5 v=127
54307 On ch=11 n=a4 v=127
54413 Off ch=11 n=a4 v=127
54413 Off ch=2 n=c#5 v=127
54414 On ch=3 n=d5 v=127
54414 On ch=13 n=b4 v=127
54520 Off ch=13 n=b4 v=127
54520 Off ch=3 n=d5 v=127
54521 On ch=5 n=e5 v=127
54521 On ch=2 n=c#5 v=127
54627 Off ch=2 n=c#5 v=127
54627 Off ch=5 n=e5 v=127
54628 On ch=6 n=f5 v=127
54628 On ch=3 n=d5 v=127
54837 Off ch=3 n=d5 v=127
54837 Off ch=6 n=f5 v=127
54841 On ch=5 n=e5 v=127
54841 On ch=2 n=c#5 v=127
55050 Off ch=2 n=c#5 v=127
55050 Off ch=5 n=e5 v=127
55054 On ch=3 n=d5 v=127
55054 On ch=13 n=b4 v=127
55263 Off ch=13 n=b4 v=127
55263 Off ch=3 n=d5 v=127
55267 On ch=2 n=c#5 v=127
55267 On ch=11 n=a4 v=127
55373 Off ch=11 n=a4 v=127
55373 Off ch=2 n=c#5 v=127
55374 On ch=3 n=d5 v=127
55374 On ch=13 n=b4 v=127
55480 Off ch=13 n=b4 v=127
55480 Off ch=3 n=d5 v=127
55481 On ch=5 n=e5 v=127
55481 On ch=2 n=c#5 v=127
55587 Off ch=2 n=c#5 v=127
55587 Off ch=5 n=e5 v=127
55588 On ch=6 n=f5 v=127
55588 On ch=3 n=d5 v=127
55694 Off ch=3 n=d5 v=127
55694 Off ch=6 n=f5 v=127
55695 On ch=8 n=g5 v=127
55695 On ch=5 n=e5 v=127
55801 Off ch=5 n=e5 v=127
55801 Off ch=8 n=g5 v=127
55802 On ch=11 n=a5 v=127
55802 On ch=6 n=f5 v=127
55908 Off ch=6 n=f5 v=127
55908 Off ch=11 n=a5 v=127
55909 On ch=12 n=a#5 v=127
55909 On ch=8 n=g5 v=127
56118 Off ch=8 n=g5 v=127
56118 Off ch=12 n=a#5 v=127
56122 On ch=11 n=a5 v=127
56122 On ch=6 n=f5 v=127
56331 Off ch=6 n=f5 v=127
56331 Off ch=11 n=a5 v=127
56335 On ch=8 n=g5 v=127
56335 On ch=5 n=e5 v=127
56544 Off ch=5 n=e5 v=127
56544 Off ch=8 n=g5 v=127
56548 On ch=11 n=a5 v=127
56548 On ch=6 n=f5 v=127
56760 Off ch=6 n=f5 v=127
56760 Off ch=11 n=a5 v=127
56761 On ch=13 n=b5 v=127
56761 On ch=8 n=g5 v=127
56867 Off ch=8 n=g5 v=127
56867 Off ch=13 n=b5 v=127
56868 On ch=2 n=c#6 v=127
56868 On ch=11 n=a5 v=127
56974 Off ch=11 n=a5 v=127
56974 Off ch=2 n=c#6 v=127
56975 On ch=3 n=d6 v=127
56975 On ch=13 n=b5 v=127
57081 Off ch=13 n=b5 v=127
57081 Off ch=3 n=d6 v=127
57082 On ch=5 n=e6 v=127
57082 On ch=2 n=c#6 v=127
57188 Off ch=2 n=c#6 v=127
57188 Off ch=5 n=e6 v=127
57189 On ch=6 n=f6 v=127
57189 On ch=3 n=d6 v=127
57398 Off ch=3 n=d6 v=127
57398 Off ch=6 n=f6 v=127
57402 On ch=5 n=e6 v=127
57402 On ch=1 n=c6 v=127
57611 Off ch=1 n=c6 v=127
57611 Off ch=5 n=e6 v=127
57615 On ch=3 n=d6 v=127
57615 On ch=12 n=a#5 v=127
57824 Off ch=12 n=a#5 v=127
57824 Off ch=3 n=d6 v=127
57828 On ch=12 n=a#6 v=127
57828 On ch=11 n=a5 v=127
57880 Off ch=12 n=a#6 v=127
57881 On ch=11 n=a6 v=127
57933 Off ch=11 n=a6 v=127
57934 On ch=12 n=a#6 v=127
57986 Off ch=12 n=a#6 v=127
57987 On ch=11 n=a6 v=127
58039 Off ch=11 n=a6 v=127
58039 Off ch=11 n=a5 v=127
58040 On ch=12 n=a#6 v=127
58040 On ch=5 n=e5 v=127
58092 Off ch=12 n=a#6 v=127
58093 On ch=11 n=a6 v=127
58145 Off ch=11 n=a6 v=127
58146 On ch=12 n=a#6 v=127
58198 Off ch=12 n=a#6 v=127
58199 On ch=11 n=a6 v=127
58251 Off ch=11 n=a6 v=127
58251 Off ch=5 n=e5 v=127
58252 On ch=12 n=a#6 v=127
58252 On ch=2 n=c#5 v=127
58304 Off ch=12 n=a#6 v=127
58305 On ch=11 n=a6 v=127
58357 Off ch=11 n=a6 v=127
58358 On ch=12 n=a#6 v=127
58410 Off ch=12 n=a#6 v=127
58411 On ch=11 n=a6 v=127
58463 Off ch=2 n=c#5 v=127
58464 On ch=11 n=a4 v=127
58676 Off ch=11 n=a6 v=127
58677 On ch=11 n=a6 v=127
58889 Off ch=11 n=a6 v=127
58889 Off ch=11 n=a4 v=127
58890 On ch=11 n=a5 v=127
58890 On ch=5 n=e5 v=127
58890 On ch=2 n=c#5 v=127
59102 Off ch=2 n=c#5 v=127
59102 Off ch=5 n=e5 v=127
59102 Off ch=11 n=a5 v=127
59103 On ch=1 n=c6 v=127
59103 On ch=6 n=f5 v=127
59103 On ch=3 n=d5 v=127
59155 Off ch=1 n=c6 v=127
59156 On ch=12 n=a#5 v=127
59208 Off ch=12 n=a#5 v=127
59209 On ch=1 n=c6 v=127
59261 Off ch=1 n=c6 v=127
59262 On ch=12 n=a#5 v=127
59314 Off ch=12 n=a#5 v=127
59315 On ch=1 n=c6 v=127
59367 Off ch=1 n=c6 v=127
59368 On ch=12 n=a#5 v=127
59420 Off ch=12 n=a#5 v=127
59421 On ch=1 n=c6 v=127
59473 Off ch=1 n=c6 v=127
59474 On ch=12 n=a#5 v=127
59526 Off ch=12 n=a#5 v=127
59527 On ch=11 n=a5 v=127
59739 Off ch=3 n=d5 v=127
59739 Off ch=6 n=f5 v=127
59740 On ch=2 n=c#5 v=127
59740 On ch=5 n=e5 v=127
59952 Off ch=11 n=a5 v=127
59953 On ch=11 n=a6 v=127
60165 Off ch=5 n=e5 v=127
60165 Off ch=2 n=c#5 v=127
60166 On ch=11 n=a5 v=127
60166 On ch=11 n=a4 v=127
60375 Off ch=11 n=a6 v=127
60378 Off ch=11 n=a4 v=127
60378 Off ch=11 n=a5 v=127
60379 On ch=1 n=c6 v=127
60379 On ch=6 n=f5 v=127
60379 On ch=3 n=d5 v=127
60431 Off ch=1 n=c6 v=127
60432 On ch=12 n=a#5 v=127
60484 Off ch=12 n=a#5 v=127
60485 On ch=1 n=c6 v=127
60537 Off ch=1 n=c6 v=127
60538 On ch=12 n=a#5 v=127
60590 Off ch=12 n=a#5 v=127
60591 On ch=1 n=c6 v=127
60643 Off ch=1 n=c6 v=127
60644 On ch=12 n=a#5 v=127
60696 Off ch=12 n=a#5 v=127
60697 On ch=1 n=c6 v=127
60749 Off ch=1 n=c6 v=127
60750 On ch=12 n=a#5 v=127
60802 Off ch=12 n=a#5 v=127
60803 On ch=11 n=a5 v=127
61015 Off ch=3 n=d5 v=127
61015 Off ch=6 n=f5 v=127
61016 On ch=2 n=c#5 v=127
61016 On ch=5 n=e5 v=127
61228 Off ch=11 n=a5 v=127
61229 On ch=11 n=a6 v=127
61441 Off ch=11 n=a6 v=127
61441 Off ch=5 n=e5 v=127
61441 Off ch=2 n=c#5 v=127
61442 On ch=8 n=g6 v=127
61442 On ch=11 n=a4 v=127
61654 Off ch=11 n=a4 v=127
61654 Off ch=8 n=g6 v=127
61655 On ch=6 n=f6 v=127
61655 On ch=6 n=f5 v=127
61655 On ch=3 n=d5 v=127
61867 Off ch=6 n=f6 v=127
61868 On ch=5 n=e6 v=127
62080 Off ch=5 n=e6 v=127
62080 Off ch=3 n=d5 v=127
62081 On ch=3 n=d6 v=127
62081 On ch=8 n=g4 v=127
62293 Off ch=8 n=g4 v=127
62294 On ch=11 n=a4 v=127
62506 Off ch=3 n=d6 v=127
62507 On ch=5 n=e6 v=127
62719 Off ch=5 n=e6 v=127
62720 Off ch=6 n=f5 v=127
62720 On ch=2 n=c#6 v=127
62720 On ch=5 n=e5 v=127
62932 Off ch=5 n=e5 v=127
62932 Off ch=2 n=c#6 v=127
62932 Off ch=11 n=a4 v=127
62933 On ch=5 n=e6 v=127
62933 On ch=3 n=d5 v=127
62985 Off ch=5 n=e6 v=127
62986 On ch=3 n=d6 v=127
63038 Off ch=3 n=d6 v=127
63039 On ch=5 n=e6 v=127
63091 Off ch=5 n=e6 v=127
63092 On ch=3 n=d6 v=127
63144 Off ch=3 n=d6 v=127
63144 Off ch=3 n=d5 v=127
63145 On ch=5 n=e6 v=127
63145 On ch=11 n=a4 v=127
63197 Off ch=5 n=e6 v=127
63198 On ch=3 n=d6 v=127
63250 Off ch=3 n=d6 v=127
63251 On ch=5 n=e6 v=127
63303 Off ch=5 n=e6 v=127
63304 On ch=3 n=d6 v=127
63356 Off ch=3 n=d6 v=127
63356 Off ch=11 n=a4 v=127
63357 On ch=5 n=e6 v=127
63357 On ch=3 n=d4 v=127
63409 Off ch=5 n=e6 v=127
63410 On ch=3 n=d6 v=127
63462 Off ch=3 n=d6 v=127
63463 On ch=5 n=e6 v=127
63515 Off ch=5 n=e6 v=127
63516 On ch=3 n=d6 v=127
63568 Off ch=3 n=d4 v=127
63569 On ch=11 n=a3 v=127
63781 Off ch=3 n=d6 v=127
63782 On ch=5 n=e6 v=127
63994 Off ch=5 n=e6 v=127
63995 On ch=11 n=a5 v=127
64207 Off ch=11 n=a5 v=127
64207 Off ch=11 n=a3 v=127
64208 On ch=6 n=f6 v=127
64208 On ch=5 n=e6 v=127
64208 On ch=3 n=d5 v=127
64260 Off ch=5 n=e6 v=127
64261 On ch=3 n=d6 v=127
64313 Off ch=3 n=d6 v=127
64314 On ch=5 n=e6 v=127
64366 Off ch=5 n=e6 v=127
64367 On ch=3 n=d6 v=127
64419 Off ch=3 n=d6 v=127
64419 Off ch=3 n=d5 v=127
64420 On ch=5 n=e6 v=127
64420 On ch=11 n=a4 v=127
64472 Off ch=5 n=e6 v=127
64473 On ch=3 n=d6 v=127
64525 Off ch=3 n=d6 v=127
64526 On ch=5 n=e6 v=127
64578 Off ch=5 n=e6 v=127
64579 On ch=3 n=d6 v=127
64631 Off ch=3 n=d6 v=127
64631 Off ch=11 n=a4 v=127
64632 On ch=5 n=e6 v=127
64632 On ch=3 n=d4 v=127
64684 Off ch=5 n=e6 v=127
64685 On ch=3 n=d6 v=127
64737 Off ch=3 n=d6 v=127
64738 On ch=5 n=e6 v=127
64790 Off ch=5 n=e6 v=127
64791 On ch=3 n=d6 v=127
64843 Off ch=3 n=d4 v=127
64844 On ch=11 n=a3 v=127
65056 Off ch=3 n=d6 v=127
65056 Off ch=6 n=f6 v=127
65057 On ch=5 n=e6 v=127
65269 Off ch=5 n=e6 v=127
65270 On ch=11 n=a5 v=127
65482 Off ch=11 n=a5 v=127
65482 Off ch=11 n=a3 v=127
65483 On ch=6 n=f6 v=127
65483 On ch=5 n=e6 v=127
65483 On ch=3 n=d5 v=127
65535 Off ch=5 n=e6 v=127
65536 On ch=3 n=d6 v=127
65588 Off ch=3 n=d6 v=127
65589 On ch=5 n=e6 v=127
65641 Off ch=5 n=e6 v=127
65642 On ch=3 n=d6 v=127
65694 Off ch=3 n=d6 v=127
65694 Off ch=3 n=d5 v=127
65695 On ch=5 n=e6 v=127
65695 On ch=11 n=a4 v=127
65747 Off ch=5 n=e6 v=127
65748 On ch=3 n=d6 v=127
65800 Off ch=3 n=d6 v=127
65801 On ch=5 n=e6 v=127
65853 Off ch=5 n=e6 v=127
65854 On ch=3 n=d6 v=127
65906 Off ch=3 n=d6 v=127
65906 Off ch=11 n=a4 v=127
65907 On ch=5 n=e6 v=127
65907 On ch=3 n=d4 v=127
65959 Off ch=5 n=e6 v=127
65960 On ch=3 n=d6 v=127
66012 Off ch=3 n=d6 v=127
66013 On ch=5 n=e6 v=127
66065 Off ch=5 n=e6 v=127
66066 On ch=3 n=d6 v=127
66118 Off ch=3 n=d4 v=127
66119 On ch=11 n=a3 v=127
66331 Off ch=3 n=d6 v=127
66331 Off ch=6 n=f6 v=127
66332 On ch=5 n=e6 v=127
66544 Off ch=5 n=e6 v=127
66544 Off ch=11 n=a3 v=127
66545 On ch=11 n=a5 v=127
66545 On ch=2 n=c#5 v=127
66757 Off ch=2 n=c#5 v=127
66757 Off ch=11 n=a5 v=127
66758 On ch=3 n=d6 v=127
66758 On ch=6 n=f6 v=127
66758 On ch=11 n=a4 v=127
66758 On ch=3 n=d5 v=127
66758 On ch=3 n=d4 v=127
66970 Off ch=6 n=f6 v=127
66970 Off ch=3 n=d6 v=127
66971 On ch=5 n=e6 v=127
66971 On ch=8 n=g6 v=127
67183 Off ch=8 n=g6 v=127
67183 Off ch=5 n=e6 v=127
67184 On ch=6 n=f6 v=127
67184 On ch=11 n=a6 v=127
67396 Off ch=3 n=d4 v=127
67396 Off ch=3 n=d5 v=127
67396 Off ch=11 n=a4 v=127
67397 On ch=3 n=d5 v=127
67397 On ch=8 n=g4 v=127
67397 On ch=12 n=a#4 v=127
67609 Off ch=11 n=a6 v=127
67609 Off ch=6 n=f6 v=127
67610 On ch=8 n=g6 v=127
67610 On ch=5 n=e6 v=127
67822 Off ch=5 n=e6 v=127
67822 Off ch=8 n=g6 v=127
67823 On ch=3 n=d6 v=127
67823 On ch=6 n=f6 v=127
68035 Off ch=6 n=f6 v=127
68035 Off ch=3 n=d6 v=127
68035 Off ch=12 n=a#4 v=127
68035 Off ch=8 n=g4 v=127
68035 Off ch=3 n=d5 v=127
68036 On ch=5 n=e6 v=127
68036 On ch=11 n=a4 v=127
68036 On ch=11 n=a3 v=127
68142 Off ch=5 n=e6 v=127
68143 On ch=3 n=d6 v=127
68249 Off ch=3 n=d6 v=127
68250 On ch=2 n=c#6 v=127
68356 Off ch=2 n=c#6 v=127
68357 On ch=13 n=b5 v=127
68463 Off ch=13 n=b5 v=127
68464 On ch=11 n=a5 v=127
68570 Off ch=11 n=a5 v=127
68571 On ch=8 n=g5 v=127
68677 Off ch=8 n=g5 v=127
68678 On ch=6 n=f5 v=127
68784 Off ch=6 n=f5 v=127
68785 On ch=5 n=e5 v=127
68891 Off ch=5 n=e5 v=127
68892 On ch=3 n=d5 v=127
68998 Off ch=3 n=d5 v=127
68999 On ch=2 n=c#5 v=127
69105 Off ch=2 n=c#5 v=127
69106 On ch=13 n=b4 v=127
69128 Off ch=11 n=a4 v=127
69211 Off ch=13 n=b4 v=127
69212 On ch=11 n=a4 v=127
69318 Off ch=11 n=a4 v=127
69318 Off ch=11 n=a3 v=127
69319 On ch=6 n=f5 v=127
69319 On ch=5 n=e5 v=127
69319 On ch=3 n=d4 v=127
69371 Off ch=5 n=e5 v=127
69372 On ch=3 n=d5 v=127
69424 Off ch=3 n=d5 v=127
69425 On ch=5 n=e5 v=127
69477 Off ch=5 n=e5 v=127
69478 On ch=3 n=d5 v=127
69530 Off ch=3 n=d5 v=127
69530 Off ch=3 n=d4 v=127
69531 On ch=5 n=e5 v=127
69531 On ch=11 n=a3 v=127
69583 Off ch=5 n=e5 v=127
69584 On ch=3 n=d5 v=127
69636 Off ch=3 n=d5 v=127
69637 On ch=5 n=e5 v=127
69689 Off ch=5 n=e5 v=127
69690 On ch=3 n=d5 v=127
69742 Off ch=3 n=d5 v=127
69742 Off ch=11 n=a3 v=127
69743 On ch=5 n=e5 v=127
69743 On ch=3 n=d3 v=127
69795 Off ch=5 n=e5 v=127
69796 On ch=3 n=d5 v=127
69848 Off ch=3 n=d5 v=127
69849 On ch=5 n=e5 v=127
69901 Off ch=5 n=e5 v=127
69902 On ch=3 n=d5 v=127
69954 Off ch=3 n=d3 v=127
69955 On ch=11 n=a2 v=127
70167 Off ch=3 n=d5 v=127
70167 Off ch=6 n=f5 v=127
70168 On ch=5 n=e5 v=127
70380 Off ch=5 n=e5 v=127
70381 On ch=11 n=a4 v=127
70593 Off ch=11 n=a4 v=127
70593 Off ch=11 n=a2 v=127
70594 On ch=6 n=f5 v=127
70594 On ch=5 n=e5 v=127
70594 On ch=3 n=d4 v=127
70646 Off ch=5 n=e5 v=127
70647 On ch=3 n=d5 v=127
70699 Off ch=3 n=d5 v=127
70700 On ch=5 n=e5 v=127
70752 Off ch=5 n=e5 v=127
70753 On ch=3 n=d5 v=127
70805 Off ch=3 n=d5 v=127
70805 Off ch=3 n=d4 v=127
70806 On ch=5 n=e5 v=127
70806 On ch=11 n=a3 v=127
70858 Off ch=5 n=e5 v=127
70859 On ch=3 n=d5 v=127
70911 Off ch=3 n=d5 v=127
70912 On ch=5 n=e5 v=127
70964 Off ch=5 n=e5 v=127
70965 On ch=3 n=d5 v=127
71017 Off ch=3 n=d5 v=127
71017 Off ch=11 n=a3 v=127
71018 On ch=5 n=e5 v=127
71018 On ch=3 n=d3 v=127
71070 Off ch=5 n=e5 v=127
71071 On ch=3 n=d5 v=127
71123 Off ch=3 n=d5 v=127
71124 On ch=5 n=e5 v=127
71176 Off ch=5 n=e5 v=127
71177 On ch=3 n=d5 v=127
71229 Off ch=3 n=d3 v=127
71230 On ch=11 n=a2 v=127
71442 Off ch=3 n=d5 v=127
71442 Off ch=6 n=f5 v=127
71443 On ch=5 n=e5 v=127
71655 Off ch=5 n=e5 v=127
71656 On ch=11 n=a4 v=127
71868 Off ch=11 n=a4 v=127
71868 Off ch=11 n=a2 v=127
71869 On ch=3 n=d5 v=127
71869 On ch=6 n=f5 v=127
71869 On ch=3 n=d4 v=127
72081 Off ch=6 n=f5 v=127
72082 On ch=5 n=e5 v=127
72294 Off ch=5 n=e5 v=127
72294 Off ch=3 n=d4 v=127
72294 Off ch=3 n=d5 v=127
72295 On ch=3 n=d5 v=127
72295 On ch=8 n=g4 v=127
72507 Off ch=8 n=g4 v=127
72508 On ch=11 n=a4 v=127
72720 Off ch=3 n=d5 v=127
72721 On ch=5 n=e5 v=127
72933 Off ch=5 n=e5 v=127
72933 Off ch=11 n=a4 v=127
72934 On ch=2 n=c#5 v=127
72934 On ch=11 n=a3 v=127
73146 Off ch=11 n=a3 v=127
73146 Off ch=2 n=c#5 v=127
73147 On ch=3 n=d5 v=127
73147 On ch=3 n=d4 v=127
73359 Off ch=3 n=d5 v=127
73360 On ch=5 n=e5 v=127
73430 Off ch=5 n=e5 v=127
73431 On ch=6 n=f5 v=127
73501 Off ch=6 n=f5 v=127
73502 On ch=8 n=g5 v=127
73572 Off ch=8 n=g5 v=127
73573 On ch=11 n=a5 v=127
73643 Off ch=11 n=a5 v=127
73644 On ch=13 n=b5 v=127
73714 Off ch=13 n=b5 v=127
73715 On ch=2 n=c#6 v=127
73785 Off ch=2 n=c#6 v=127
73785 Off ch=3 n=d4 v=127
73786 On ch=3 n=d6 v=127
73786 On ch=3 n=d3 v=127
73786 On ch=3 n=d4 v=127
73998 Off ch=3 n=d6 v=127
73999 On ch=11 n=a6 v=127
74212 On ch=11 n=a5 v=127
74421 Off ch=11 n=a6 v=127
74424 Off ch=11 n=a5 v=127
74424 Off ch=3 n=d4 v=127
74424 Off ch=3 n=d3 v=127
74425 On ch=3 n=d6 v=127
74425 On ch=3 n=d3 v=127
74425 On ch=3 n=d4 v=127
74637 Off ch=3 n=d6 v=127
74638 On ch=11 n=a6 v=127
74851 On ch=11 n=a5 v=127
75060 Off ch=11 n=a6 v=127
75063 Off ch=11 n=a5 v=127
75063 Off ch=3 n=d4 v=127
75063 Off ch=3 n=d3 v=127
75064 On ch=3 n=d6 v=127
75064 On ch=3 n=d4 v=127
75064 On ch=3 n=d3 v=127
75276 Off ch=3 n=d6 v=127
75277 On ch=11 n=a6 v=127
75490 On ch=11 n=a5 v=127
75699 Off ch=11 n=a6 v=127
75702 Off ch=11 n=a5 v=127
75702 Off ch=3 n=d3 v=127
75702 Off ch=3 n=d4 v=127
75703 On ch=5 n=e6 v=127
75703 On ch=3 n=d4 v=127
75703 On ch=3 n=d3 v=127
75756 On ch=3 n=d6 v=127
75769 Off ch=5 n=e6 v=127
75809 On ch=5 n=e6 v=127
75822 Off ch=3 n=d6 v=127
75862 On ch=3 n=d6 v=127
75875 Off ch=5 n=e6 v=127
77515 Off ch=3 n=d6 v=127
77515 Off ch=3 n=d3 v=127
77515 Off ch=3 n=d4 v=127
78336 Meta TrkEnd
TrkEnd
