MFile 0 1 384
MTrk
0 Meta Copyright "(C) John Sankey 1998"
0 PrCh ch=1 p=6
0 Pb ch=1 v=8192
0 PrCh ch=2 p=6
0 Pb ch=2 v=7602
0 PrCh ch=3 p=6
0 Pb ch=3 v=7920
0 PrCh ch=4 p=6
0 Pb ch=4 v=7839
0 PrCh ch=5 p=6
0 Pb ch=5 v=7632
0 PrCh ch=6 p=6
0 Pb ch=6 v=8112
0 PrCh ch=7 p=6
0 Pb ch=7 v=7567
0 PrCh ch=8 p=6
0 Pb ch=8 v=8062
0 PrCh ch=9 p=6
0 Pb ch=9 v=7680
0 PrCh ch=11 p=6
0 Pb ch=11 v=7728
0 PrCh ch=12 p=6
0 Pb ch=12 v=7984
0 PrCh ch=13 p=6
0 Pb ch=13 v=7639
0 Tempo 500000
64 On ch=11 n=a5 v=127
64 On ch=3 n=d4 v=127
192 On ch=3 n=d6 v=127
317 Off ch=11 n=a5 v=127
318 Off ch=3 n=d6 v=127
319 On ch=6 n=f6 v=127
447 On ch=11 n=a5 v=127
572 Off ch=6 n=f6 v=127
573 Off ch=11 n=a5 v=127
573 Off ch=3 n=d4 v=127
574 On ch=8 n=g5 v=127
574 On ch=5 n=e4 v=127
702 On ch=5 n=e6 v=127
827 Off ch=8 n=g5 v=127
828 Off ch=5 n=e6 v=127
828 Off ch=5 n=e4 v=127
829 On ch=6 n=f5 v=127
829 On ch=6 n=f4 v=127
957 On ch=11 n=a5 v=127
1082 Off ch=6 n=f5 v=127
1083 Off ch=11 n=a5 v=127
1083 Off ch=6 n=f4 v=127
1084 On ch=3 n=d6 v=127
1084 On ch=8 n=g4 v=127
1212 On ch=6 n=f5 v=127
1337 Off ch=3 n=d6 v=127
1338 Off ch=6 n=f5 v=127
1338 Off ch=8 n=g4 v=127
1339 On ch=5 n=e5 v=127
1339 On ch=11 n=a4 v=127
1467 On ch=2 n=c#6 v=127
1592 Off ch=5 n=e5 v=127
1593 Off ch=2 n=c#6 v=127
1593 Off ch=11 n=a4 v=127
1594 On ch=11 n=a5 v=127
1594 On ch=3 n=d4 v=127
1722 On ch=6 n=f6 v=127
1849 Off ch=6 n=f6 v=127
1850 On ch=11 n=a6 v=127
1977 Off ch=11 n=a6 v=127
1978 Off ch=11 n=a5 v=127
1978 On ch=6 n=f6 v=127
2105 Off ch=3 n=d4 v=127
2106 On ch=12 n=a#5 v=127
2106 On ch=5 n=e4 v=127
2231 Off ch=6 n=f6 v=127
2234 On ch=8 n=g6 v=127
2359 Off ch=12 n=a#5 v=127
2360 Off ch=8 n=g6 v=127
2360 Off ch=5 n=e4 v=127
2361 On ch=11 n=a5 v=127
2361 On ch=6 n=f4 v=127
2489 On ch=3 n=d6 v=127
2614 Off ch=11 n=a5 v=127
2615 Off ch=3 n=d6 v=127
2615 Off ch=6 n=f4 v=127
2616 On ch=6 n=f6 v=127
2616 On ch=8 n=g4 v=127
2744 On ch=11 n=a5 v=127
2869 Off ch=6 n=f6 v=127
2870 Off ch=11 n=a5 v=127
2870 Off ch=8 n=g4 v=127
2871 On ch=8 n=g5 v=127
2871 On ch=11 n=a4 v=127
2999 On ch=5 n=e6 v=127
2999 On ch=2 n=c#6 v=127
3063 Off ch=8 n=g5 v=127
3126 Off ch=2 n=c#6 v=127
3126 Off ch=5 n=e6 v=127
3126 Off ch=11 n=a4 v=127
3127 On ch=3 n=d6 v=127
3127 On ch=6 n=f6 v=127
3127 On ch=3 n=d4 v=127
3254 Off ch=3 n=d4 v=127
3255 On ch=6 n=f4 v=127
3382 Off ch=6 n=f4 v=127
3382 Off ch=3 n=d6 v=127
3383 On ch=11 n=a5 v=127
3383 On ch=11 n=a4 v=127
3510 Off ch=11 n=a4 v=127
3511 Off ch=6 n=f6 v=127
3511 On ch=3 n=d5 v=127
3638 Off ch=3 n=d5 v=127
3638 Off ch=11 n=a5 v=127
3639 On ch=5 n=e6 v=127
3639 On ch=1 n=c4 v=127
3766 Off ch=1 n=c4 v=127
3767 On ch=11 n=a4 v=127
3894 Off ch=11 n=a4 v=127
3894 Off ch=5 n=e6 v=127
3895 On ch=3 n=d6 v=127
3895 On ch=12 n=a#3 v=127
4022 Off ch=12 n=a#3 v=127
4023 On ch=3 n=d4 v=127
4150 Off ch=3 n=d4 v=127
4151 On ch=3 n=d5 v=127
4151 On ch=8 n=g4 v=127
4278 Off ch=8 n=g4 v=127
4279 On ch=12 n=a#4 v=127
4402 Off ch=3 n=d6 v=127
4406 Off ch=12 n=a#4 v=127
4406 Off ch=3 n=d5 v=127
4407 On ch=1 n=c6 v=127
4407 On ch=11 n=a3 v=127
4534 Off ch=11 n=a3 v=127
4535 On ch=6 n=f4 v=127
4662 Off ch=6 n=f4 v=127
4662 Off ch=1 n=c6 v=127
4663 On ch=12 n=a#5 v=127
4663 On ch=8 n=g3 v=127
4790 Off ch=8 n=g3 v=127
4791 On ch=8 n=g4 v=127
4918 Off ch=8 n=g4 v=127
4918 Off ch=12 n=a#5 v=127
4919 On ch=11 n=a5 v=127
4919 On ch=6 n=f4 v=127
5046 Off ch=6 n=f4 v=127
5047 On ch=6 n=f5 v=127
5174 Off ch=6 n=f5 v=127
5174 Off ch=11 n=a5 v=127
5175 On ch=8 n=g5 v=127
5175 On ch=5 n=e4 v=127
5302 Off ch=5 n=e4 v=127
5303 On ch=2 n=c#5 v=127
5430 Off ch=2 n=c#5 v=127
5430 Off ch=8 n=g5 v=127
5431 On ch=6 n=f5 v=127
5431 On ch=3 n=d4 v=127
5558 Off ch=3 n=d4 v=127
5559 On ch=11 n=a4 v=127
5686 Off ch=11 n=a4 v=127
5686 Off ch=6 n=f5 v=127
5687 On ch=5 n=e5 v=127
5687 On ch=1 n=c4 v=127
5814 Off ch=1 n=c4 v=127
5815 On ch=11 n=a4 v=127
5942 Off ch=11 n=a4 v=127
5942 Off ch=5 n=e5 v=127
5943 On ch=3 n=d5 v=127
5943 On ch=12 n=a#3 v=127
6070 Off ch=12 n=a#3 v=127
6071 On ch=8 n=g4 v=127
6198 Off ch=8 n=g4 v=127
6198 Off ch=3 n=d5 v=127
6199 On ch=11 n=a5 v=127
6199 On ch=11 n=a3 v=127
6327 On ch=2 n=c#6 v=127
6452 Off ch=11 n=a5 v=127
6453 Off ch=2 n=c#6 v=127
6453 Off ch=11 n=a3 v=127
6454 On ch=5 n=e6 v=127
6454 On ch=11 n=a3 v=127
6582 On ch=11 n=a5 v=127
6707 Off ch=5 n=e6 v=127
6708 Off ch=11 n=a5 v=127
6708 Off ch=11 n=a3 v=127
6709 On ch=8 n=g5 v=127
6709 On ch=11 n=a4 v=127
6837 On ch=5 n=e6 v=127
6962 Off ch=8 n=g5 v=127
6963 Off ch=5 n=e6 v=127
6963 Off ch=11 n=a4 v=127
6964 On ch=6 n=f5 v=127
6964 On ch=12 n=a#4 v=127
7092 On ch=11 n=a5 v=127
7217 Off ch=6 n=f5 v=127
7218 Off ch=11 n=a5 v=127
7218 Off ch=12 n=a#4 v=127
7219 On ch=3 n=d6 v=127
7219 On ch=8 n=g4 v=127
7347 On ch=6 n=f5 v=127
7472 Off ch=3 n=d6 v=127
7473 Off ch=6 n=f5 v=127
7473 Off ch=8 n=g4 v=127
7474 On ch=5 n=e5 v=127
7474 On ch=11 n=a4 v=127
7602 On ch=2 n=c#6 v=127
7727 Off ch=5 n=e5 v=127
7728 Off ch=2 n=c#6 v=127
7728 Off ch=11 n=a4 v=127
7729 On ch=3 n=d6 v=127
7729 On ch=3 n=d4 v=127
7857 On ch=11 n=a5 v=127
7982 Off ch=3 n=d6 v=127
7983 Off ch=11 n=a5 v=127
7983 Off ch=3 n=d4 v=127
7984 On ch=7 n=f#5 v=127
7984 On ch=3 n=d4 v=127
8111 Off ch=7 n=f#5 v=127
8112 On ch=3 n=d5 v=127
8239 Off ch=3 n=d5 v=127
8239 Off ch=3 n=d4 v=127
8240 On ch=4 n=d#5 v=127
8240 On ch=3 n=d4 v=127
8368 On ch=1 n=c6 v=127
8432 Off ch=4 n=d#5 v=127
8495 Off ch=1 n=c6 v=127
8495 Off ch=3 n=d4 v=127
8496 On ch=3 n=d5 v=127
8496 On ch=3 n=d3 v=127
8624 On ch=7 n=f#5 v=127
8749 Off ch=3 n=d5 v=127
8750 Off ch=7 n=f#5 v=127
8750 Off ch=3 n=d3 v=127
8751 On ch=11 n=a5 v=127
8751 On ch=3 n=d3 v=127
8879 On ch=3 n=d5 v=127
9004 Off ch=11 n=a5 v=127
9005 Off ch=3 n=d5 v=127
9005 Off ch=3 n=d3 v=127
9006 On ch=1 n=c5 v=127
9006 On ch=3 n=d3 v=127
9134 On ch=11 n=a5 v=127
9198 Off ch=1 n=c5 v=127
9261 Off ch=11 n=a5 v=127
9261 Off ch=3 n=d3 v=127
9262 On ch=12 n=a#4 v=127
9262 On ch=8 n=g3 v=127
9389 Off ch=8 n=g3 v=127
9390 On ch=12 n=a#3 v=127
9517 Off ch=12 n=a#3 v=127
9517 Off ch=12 n=a#4 v=127
9518 On ch=3 n=d5 v=127
9518 On ch=3 n=d4 v=127
9645 Off ch=3 n=d4 v=127
9646 On ch=8 n=g4 v=127
9773 Off ch=8 n=g4 v=127
9773 Off ch=3 n=d5 v=127
9774 On ch=8 n=g5 v=127
9774 On ch=12 n=a#4 v=127
9901 Off ch=12 n=a#4 v=127
9902 On ch=3 n=d5 v=127
10029 Off ch=3 n=d5 v=127
10029 Off ch=8 n=g5 v=127
10030 On ch=5 n=e5 v=127
10030 On ch=1 n=c3 v=127
10157 Off ch=1 n=c3 v=127
10158 On ch=5 n=e3 v=127
10285 Off ch=5 n=e3 v=127
10286 On ch=1 n=c5 v=127
10286 On ch=8 n=g3 v=127
10413 Off ch=8 n=g3 v=127
10414 Off ch=5 n=e5 v=127
10414 On ch=1 n=c4 v=127
10541 Off ch=1 n=c4 v=127
10541 Off ch=1 n=c5 v=127
10542 On ch=12 n=a#5 v=127
10542 On ch=5 n=e4 v=127
10669 Off ch=5 n=e4 v=127
10670 On ch=8 n=g4 v=127
10797 Off ch=8 n=g4 v=127
10797 Off ch=12 n=a#5 v=127
10798 On ch=11 n=a5 v=127
10798 On ch=6 n=f3 v=127
10925 Off ch=6 n=f3 v=127
10926 On ch=11 n=a3 v=127
11053 Off ch=11 n=a3 v=127
11054 On ch=6 n=f5 v=127
11054 On ch=1 n=c4 v=127
11181 Off ch=1 n=c4 v=127
11182 Off ch=11 n=a5 v=127
11182 On ch=6 n=f4 v=127
11309 Off ch=6 n=f4 v=127
11309 Off ch=6 n=f5 v=127
11310 On ch=4 n=d#6 v=127
11310 On ch=11 n=a4 v=127
11437 Off ch=11 n=a4 v=127
11438 On ch=1 n=c5 v=127
11565 Off ch=1 n=c5 v=127
11565 Off ch=4 n=d#6 v=127
11566 On ch=3 n=d6 v=127
11566 On ch=12 n=a#3 v=127
11693 Off ch=12 n=a#3 v=127
11694 On ch=3 n=d4 v=127
11821 Off ch=3 n=d4 v=127
11822 On ch=6 n=f5 v=127
11822 On ch=6 n=f4 v=127
11949 Off ch=6 n=f4 v=127
11950 Off ch=3 n=d6 v=127
11950 On ch=12 n=a#4 v=127
12077 Off ch=12 n=a#4 v=127
12077 Off ch=6 n=f5 v=127
12078 On ch=6 n=f6 v=127
12078 On ch=3 n=d5 v=127
12205 Off ch=3 n=d5 v=127
12206 On ch=12 n=a#4 v=127
12333 Off ch=12 n=a#4 v=127
12333 Off ch=6 n=f6 v=127
12334 On ch=12 n=a#5 v=127
12334 On ch=8 n=g3 v=127
12461 Off ch=8 n=g3 v=127
12462 On ch=12 n=a#3 v=127
12589 Off ch=12 n=a#3 v=127
12590 On ch=8 n=g5 v=127
12590 On ch=3 n=d4 v=127
12717 Off ch=3 n=d4 v=127
12718 Off ch=12 n=a#5 v=127
12718 On ch=8 n=g4 v=127
12845 Off ch=8 n=g4 v=127
12845 Off ch=8 n=g5 v=127
12846 On ch=8 n=g6 v=127
12846 On ch=12 n=a#4 v=127
12973 Off ch=12 n=a#4 v=127
12974 On ch=3 n=d5 v=127
13101 Off ch=3 n=d5 v=127
13101 Off ch=8 n=g6 v=127
13102 On ch=2 n=c#6 v=127
13102 On ch=11 n=a3 v=127
13230 On ch=11 n=a5 v=127
13262 Off ch=2 n=c#6 v=127
13357 Off ch=11 n=a5 v=127
13357 Off ch=11 n=a3 v=127
13358 On ch=2 n=c#6 v=127
13358 On ch=11 n=a3 v=127
13485 Off ch=2 n=c#6 v=127
13486 On ch=5 n=e6 v=127
13613 Off ch=5 n=e6 v=127
13613 Off ch=11 n=a3 v=127
13614 On ch=11 n=a6 v=127
13614 On ch=11 n=a3 v=127
13742 On ch=11 n=a5 v=127
13867 Off ch=11 n=a6 v=127
13868 Off ch=11 n=a5 v=127
13868 Off ch=11 n=a3 v=127
13869 On ch=12 n=a#5 v=127
13869 On ch=11 n=a3 v=127
13997 On ch=8 n=g6 v=127
14061 Off ch=12 n=a#5 v=127
14124 Off ch=11 n=a3 v=127
14125 On ch=11 n=a5 v=127
14125 On ch=11 n=a3 v=127
14189 Off ch=8 n=g6 v=127
14253 On ch=6 n=f6 v=127
14317 Off ch=11 n=a5 v=127
14380 Off ch=11 n=a3 v=127
14381 On ch=8 n=g5 v=127
14381 On ch=11 n=a3 v=127
14445 Off ch=6 n=f6 v=127
14509 On ch=5 n=e6 v=127
14509 On ch=2 n=c#6 v=127
14541 Off ch=8 n=g5 v=127
14636 Off ch=2 n=c#6 v=127
14636 Off ch=5 n=e6 v=127
14636 Off ch=11 n=a3 v=127
14637 On ch=5 n=e6 v=127
14637 On ch=2 n=c#6 v=127
14637 On ch=3 n=d3 v=127
14892 Off ch=2 n=c#6 v=127
14892 Off ch=5 n=e6 v=127
14893 On ch=3 n=d6 v=127
14893 On ch=6 n=f6 v=127
15277 Off ch=6 n=f6 v=127
15404 Off ch=3 n=d6 v=127
15404 Off ch=3 n=d3 v=127
15405 On ch=6 n=f6 v=127
15405 On ch=3 n=d6 v=127
15532 Off ch=3 n=d6 v=127
15533 On ch=3 n=d5 v=127
15660 Off ch=3 n=d5 v=127
15660 Off ch=6 n=f6 v=127
15661 On ch=5 n=e6 v=127
15661 On ch=11 n=a5 v=127
15788 Off ch=11 n=a5 v=127
15789 On ch=11 n=a4 v=127
15916 Off ch=11 n=a4 v=127
15916 Off ch=5 n=e6 v=127
15917 On ch=3 n=d6 v=127
15917 On ch=3 n=d5 v=127
16044 Off ch=3 n=d5 v=127
16045 On ch=3 n=d4 v=127
16172 Off ch=3 n=d4 v=127
16172 Off ch=3 n=d6 v=127
16173 On ch=5 n=e6 v=127
16173 On ch=11 n=a3 v=127
16237 On ch=11 n=a6 v=127
16257 Off ch=5 n=e6 v=127
16301 On ch=8 n=g6 v=127
16321 Off ch=11 n=a6 v=127
16365 On ch=6 n=f6 v=127
16385 Off ch=8 n=g6 v=127
16429 On ch=5 n=e6 v=127
16449 Off ch=6 n=f6 v=127
16493 On ch=3 n=d6 v=127
16513 Off ch=5 n=e6 v=127
16557 On ch=2 n=c#6 v=127
16577 Off ch=3 n=d6 v=127
16621 On ch=13 n=b5 v=127
16641 Off ch=2 n=c#6 v=127
16685 On ch=11 n=a5 v=127
16705 Off ch=13 n=b5 v=127
16749 On ch=8 n=g6 v=127
16769 Off ch=11 n=a5 v=127
16813 On ch=6 n=f6 v=127
16833 Off ch=8 n=g6 v=127
16877 On ch=5 n=e6 v=127
16897 Off ch=6 n=f6 v=127
16940 Off ch=5 n=e6 v=127
16940 Off ch=11 n=a3 v=127
16941 On ch=6 n=f6 v=127
16941 On ch=3 n=d6 v=127
17068 Off ch=3 n=d6 v=127
17069 On ch=3 n=d5 v=127
17196 Off ch=3 n=d5 v=127
17196 Off ch=6 n=f6 v=127
17197 On ch=5 n=e6 v=127
17197 On ch=11 n=a5 v=127
17324 Off ch=11 n=a5 v=127
17325 On ch=11 n=a4 v=127
17452 Off ch=11 n=a4 v=127
17452 Off ch=5 n=e6 v=127
17453 On ch=3 n=d6 v=127
17453 On ch=3 n=d5 v=127
17580 Off ch=3 n=d5 v=127
17581 On ch=3 n=d4 v=127
17708 Off ch=3 n=d4 v=127
17708 Off ch=3 n=d6 v=127
17709 On ch=5 n=e6 v=127
17709 On ch=11 n=a3 v=127
17773 On ch=11 n=a6 v=127
17793 Off ch=5 n=e6 v=127
17837 On ch=8 n=g6 v=127
17857 Off ch=11 n=a6 v=127
17901 On ch=6 n=f6 v=127
17921 Off ch=8 n=g6 v=127
17965 On ch=5 n=e6 v=127
17985 Off ch=6 n=f6 v=127
18029 On ch=3 n=d6 v=127
18049 Off ch=5 n=e6 v=127
18093 On ch=2 n=c#6 v=127
18113 Off ch=3 n=d6 v=127
18157 On ch=13 n=b5 v=127
18177 Off ch=2 n=c#6 v=127
18221 On ch=11 n=a5 v=127
18241 Off ch=13 n=b5 v=127
18285 On ch=8 n=g6 v=127
18305 Off ch=11 n=a5 v=127
18349 On ch=6 n=f6 v=127
18369 Off ch=8 n=g6 v=127
18413 On ch=5 n=e6 v=127
18433 Off ch=6 n=f6 v=127
18476 Off ch=5 n=e6 v=127
18476 Off ch=11 n=a3 v=127
18477 On ch=6 n=f6 v=127
18477 On ch=3 n=d6 v=127
18604 Off ch=3 n=d6 v=127
18605 On ch=3 n=d5 v=127
18732 Off ch=3 n=d5 v=127
18732 Off ch=6 n=f6 v=127
18733 On ch=5 n=e6 v=127
18733 On ch=11 n=a5 v=127
18860 Off ch=11 n=a5 v=127
18861 On ch=11 n=a4 v=127
18988 Off ch=11 n=a4 v=127
18988 Off ch=5 n=e6 v=127
18989 On ch=3 n=d6 v=127
18989 On ch=3 n=d5 v=127
19116 Off ch=3 n=d5 v=127
19117 On ch=3 n=d4 v=127
19244 Off ch=3 n=d4 v=127
19244 Off ch=3 n=d6 v=127
19245 On ch=5 n=e6 v=127
19245 On ch=11 n=a3 v=127
19309 On ch=11 n=a6 v=127
19329 Off ch=5 n=e6 v=127
19373 On ch=8 n=g6 v=127
19393 Off ch=11 n=a6 v=127
19437 On ch=6 n=f6 v=127
19457 Off ch=8 n=g6 v=127
19501 On ch=5 n=e6 v=127
19521 Off ch=6 n=f6 v=127
19565 On ch=3 n=d6 v=127
19585 Off ch=5 n=e6 v=127
19629 On ch=2 n=c#6 v=127
19649 Off ch=3 n=d6 v=127
19693 On ch=13 n=b5 v=127
19713 Off ch=2 n=c#6 v=127
19757 On ch=11 n=a5 v=127
19777 Off ch=13 n=b5 v=127
19821 On ch=8 n=g5 v=127
19841 Off ch=11 n=a5 v=127
19885 On ch=6 n=f5 v=127
19905 Off ch=8 n=g5 v=127
19949 On ch=5 n=e5 v=127
19969 Off ch=6 n=f5 v=127
20012 Off ch=5 n=e5 v=127
20012 Off ch=11 n=a3 v=127
20013 On ch=6 n=f5 v=127
20013 On ch=3 n=d6 v=127
20013 On ch=3 n=d5 v=127
20140 Off ch=3 n=d5 v=127
20141 On ch=3 n=d4 v=127
20268 Off ch=3 n=d4 v=127
20268 Off ch=3 n=d6 v=127
20268 Off ch=6 n=f5 v=127
20269 On ch=2 n=c#6 v=127
20269 On ch=5 n=e5 v=127
20269 On ch=11 n=a4 v=127
20396 Off ch=11 n=a4 v=127
20397 On ch=11 n=a3 v=127
20524 Off ch=11 n=a3 v=127
20524 Off ch=5 n=e5 v=127
20524 Off ch=2 n=c#6 v=127
20525 On ch=3 n=d6 v=127
20525 On ch=6 n=f5 v=127
20525 On ch=3 n=d4 v=127
20652 Off ch=3 n=d4 v=127
20653 On ch=3 n=d3 v=127
20780 Off ch=3 n=d3 v=127
20780 Off ch=6 n=f5 v=127
20780 Off ch=3 n=d6 v=127
20781 On ch=5 n=e6 v=127
20781 On ch=11 n=a3 v=127
20845 On ch=3 n=d6 v=127
20865 Off ch=5 n=e6 v=127
20909 On ch=2 n=c#6 v=127
20929 Off ch=3 n=d6 v=127
20973 On ch=13 n=b5 v=127
20993 Off ch=2 n=c#6 v=127
21036 Off ch=11 n=a3 v=127
21037 On ch=11 n=a5 v=127
21037 On ch=11 n=a3 v=127
21057 Off ch=13 n=b5 v=127
21101 On ch=8 n=g5 v=127
21121 Off ch=11 n=a5 v=127
21165 On ch=6 n=f5 v=127
21185 Off ch=8 n=g5 v=127
21229 On ch=5 n=e5 v=127
21249 Off ch=6 n=f5 v=127
21292 Off ch=11 n=a3 v=127
21293 On ch=3 n=d5 v=127
21293 On ch=11 n=a4 v=127
21313 Off ch=5 n=e5 v=127
21420 Off ch=3 n=d5 v=127
21421 On ch=2 n=c#5 v=127
21548 Off ch=2 n=c#5 v=127
21548 Off ch=11 n=a4 v=127
21549 On ch=6 n=f5 v=127
21549 On ch=12 n=a#4 v=127
21677 On ch=11 n=a5 v=127
21802 Off ch=6 n=f5 v=127
21803 Off ch=11 n=a5 v=127
21803 Off ch=12 n=a#4 v=127
21804 On ch=3 n=d6 v=127
21804 On ch=8 n=g4 v=127
21932 On ch=6 n=f5 v=127
22057 Off ch=3 n=d6 v=127
22058 Off ch=6 n=f5 v=127
22058 Off ch=8 n=g4 v=127
22059 On ch=5 n=e5 v=127
22059 On ch=11 n=a4 v=127
22187 On ch=2 n=c#6 v=127
22187 On ch=5 n=e6 v=127
22251 Off ch=5 n=e5 v=127
22314 Off ch=5 n=e6 v=127
22314 Off ch=2 n=c#6 v=127
22314 Off ch=11 n=a4 v=127
22315 On ch=6 n=f5 v=127
22315 On ch=3 n=d4 v=127
22443 On ch=6 n=f6 v=127
22443 On ch=3 n=d6 v=127
22507 Off ch=6 n=f5 v=127
22570 Off ch=3 n=d6 v=127
22570 Off ch=6 n=f6 v=127
22570 Off ch=3 n=d4 v=127
22571 On ch=8 n=g5 v=127
22571 On ch=5 n=e4 v=127
22699 On ch=5 n=e6 v=127
22699 On ch=8 n=g6 v=127
22763 Off ch=8 n=g5 v=127
22826 Off ch=8 n=g6 v=127
22826 Off ch=5 n=e6 v=127
22826 Off ch=5 n=e4 v=127
22827 On ch=11 n=a5 v=127
22827 On ch=6 n=f4 v=127
22955 On ch=11 n=a6 v=127
22955 On ch=6 n=f6 v=127
23019 Off ch=11 n=a5 v=127
23082 Off ch=6 n=f6 v=127
23082 Off ch=11 n=a6 v=127
23082 Off ch=6 n=f4 v=127
23083 On ch=12 n=a#5 v=127
23083 On ch=8 n=g4 v=127
23211 On ch=8 n=g6 v=127
23211 On ch=12 n=a#6 v=127
23275 Off ch=12 n=a#5 v=127
23338 Off ch=12 n=a#6 v=127
23338 Off ch=8 n=g6 v=127
23338 Off ch=8 n=g4 v=127
23339 On ch=2 n=c#6 v=127
23339 On ch=11 n=a5 v=127
23339 On ch=11 n=a4 v=127
23466 Off ch=2 n=c#6 v=127
23467 On ch=11 n=a6 v=127
23531 Off ch=11 n=a5 v=127
23594 Off ch=11 n=a4 v=127
23595 On ch=12 n=a#5 v=127
23595 On ch=12 n=a#4 v=127
23627 Off ch=11 n=a6 v=127
23723 On ch=8 n=g6 v=127
23787 Off ch=12 n=a#5 v=127
23850 Off ch=8 n=g6 v=127
23850 Off ch=12 n=a#4 v=127
23851 On ch=11 n=a5 v=127
23851 On ch=11 n=a3 v=127
23915 On ch=11 n=a6 v=127
23935 Off ch=11 n=a5 v=127
23979 On ch=8 n=g6 v=127
23999 Off ch=11 n=a6 v=127
24043 On ch=6 n=f6 v=127
24063 Off ch=8 n=g6 v=127
24107 On ch=5 n=e6 v=127
24127 Off ch=6 n=f6 v=127
24171 On ch=3 n=d6 v=127
24191 Off ch=5 n=e6 v=127
24235 On ch=2 n=c#6 v=127
24255 Off ch=3 n=d6 v=127
24299 On ch=13 n=b5 v=127
24319 Off ch=2 n=c#6 v=127
24363 On ch=11 n=a5 v=127
24383 Off ch=13 n=b5 v=127
24427 On ch=8 n=g5 v=127
24447 Off ch=11 n=a5 v=127
24491 On ch=6 n=f5 v=127
24511 Off ch=8 n=g5 v=127
24555 On ch=5 n=e5 v=127
24575 Off ch=6 n=f5 v=127
24618 Off ch=5 n=e5 v=127
24618 Off ch=11 n=a3 v=127
24619 On ch=6 n=f5 v=127
24619 On ch=3 n=d6 v=127
24619 On ch=3 n=d5 v=127
24746 Off ch=3 n=d5 v=127
24747 On ch=3 n=d4 v=127
24874 Off ch=3 n=d4 v=127
24874 Off ch=3 n=d6 v=127
24874 Off ch=6 n=f5 v=127
24875 On ch=2 n=c#6 v=127
24875 On ch=5 n=e5 v=127
24875 On ch=11 n=a4 v=127
25002 Off ch=11 n=a4 v=127
25003 On ch=11 n=a3 v=127
25130 Off ch=11 n=a3 v=127
25130 Off ch=5 n=e5 v=127
25130 Off ch=2 n=c#6 v=127
25131 On ch=6 n=f5 v=127
25131 On ch=3 n=d6 v=127
25131 On ch=3 n=d4 v=127
25258 Off ch=3 n=d4 v=127
25259 On ch=3 n=d3 v=127
25386 Off ch=3 n=d3 v=127
25386 Off ch=3 n=d6 v=127
25386 Off ch=6 n=f5 v=127
25387 On ch=5 n=e6 v=127
25387 On ch=11 n=a3 v=127
25451 On ch=3 n=d6 v=127
25471 Off ch=5 n=e6 v=127
25515 On ch=2 n=c#6 v=127
25535 Off ch=3 n=d6 v=127
25579 On ch=13 n=b5 v=127
25599 Off ch=2 n=c#6 v=127
25642 Off ch=11 n=a3 v=127
25643 On ch=11 n=a5 v=127
25643 On ch=11 n=a3 v=127
25663 Off ch=13 n=b5 v=127
25707 On ch=8 n=g5 v=127
25727 Off ch=11 n=a5 v=127
25771 On ch=6 n=f5 v=127
25791 Off ch=8 n=g5 v=127
25835 On ch=5 n=e5 v=127
25855 Off ch=6 n=f5 v=127
25898 Off ch=11 n=a3 v=127
25899 On ch=3 n=d5 v=127
25899 On ch=11 n=a4 v=127
25919 Off ch=5 n=e5 v=127
26026 Off ch=3 n=d5 v=127
26027 On ch=2 n=c#5 v=127
26154 Off ch=2 n=c#5 v=127
26154 Off ch=11 n=a4 v=127
26155 On ch=6 n=f5 v=127
26155 On ch=12 n=a#4 v=127
26283 On ch=11 n=a5 v=127
26408 Off ch=6 n=f5 v=127
26409 Off ch=11 n=a5 v=127
26409 Off ch=12 n=a#4 v=127
26410 On ch=3 n=d6 v=127
26410 On ch=8 n=g4 v=127
26538 On ch=6 n=f5 v=127
26663 Off ch=3 n=d6 v=127
26664 Off ch=6 n=f5 v=127
26664 Off ch=8 n=g4 v=127
26665 On ch=5 n=e5 v=127
26665 On ch=11 n=a4 v=127
26793 On ch=2 n=c#6 v=127
26918 Off ch=5 n=e5 v=127
26919 Off ch=2 n=c#6 v=127
26919 Off ch=11 n=a4 v=127
26920 On ch=2 n=c#6 v=127
26920 On ch=3 n=d4 v=127
27175 Off ch=2 n=c#6 v=127
27176 On ch=3 n=d6 v=127
27560 Off ch=3 n=d6 v=127
27687 Off ch=3 n=d4 v=127
27688 On ch=6 n=f5 v=127
27688 On ch=3 n=d4 v=127
27816 On ch=11 n=a5 v=127
27943 Off ch=11 n=a5 v=127
27944 On ch=3 n=d6 v=127
28071 Off ch=3 n=d6 v=127
28072 Off ch=6 n=f5 v=127
28072 On ch=6 n=f6 v=127
28199 Off ch=3 n=d4 v=127
28200 On ch=8 n=g5 v=127
28200 On ch=5 n=e4 v=127
28264 Off ch=6 n=f6 v=127
28328 On ch=5 n=e6 v=127
28392 Off ch=8 n=g5 v=127
28455 Off ch=5 n=e4 v=127
28456 On ch=6 n=f5 v=127
28456 On ch=6 n=f4 v=127
28520 Off ch=5 n=e6 v=127
28584 On ch=3 n=d6 v=127
28648 Off ch=6 n=f5 v=127
28711 Off ch=6 n=f4 v=127
28712 On ch=5 n=e5 v=127
28712 On ch=8 n=g4 v=127
28776 Off ch=3 n=d6 v=127
28840 On ch=1 n=c6 v=127
28904 Off ch=5 n=e5 v=127
28968 On ch=3 n=d5 v=127
28968 On ch=8 n=g3 v=127
29032 Off ch=1 n=c6 v=127
29096 On ch=13 n=b5 v=127
29160 Off ch=3 n=d5 v=127
29219 Off ch=8 n=g4 v=127
29223 Off ch=13 n=b5 v=127
29223 Off ch=8 n=g3 v=127
29224 On ch=5 n=e5 v=127
29224 On ch=1 n=c4 v=127
29352 On ch=8 n=g5 v=127
29479 Off ch=8 n=g5 v=127
29480 On ch=1 n=c6 v=127
29607 Off ch=1 n=c6 v=127
29608 Off ch=5 n=e5 v=127
29608 On ch=5 n=e6 v=127
29735 Off ch=1 n=c4 v=127
29736 On ch=5 n=e5 v=127
29736 On ch=1 n=c4 v=127
29800 Off ch=5 n=e6 v=127
29864 On ch=1 n=c6 v=127
29928 Off ch=5 n=e5 v=127
29991 Off ch=1 n=c4 v=127
29992 On ch=3 n=d5 v=127
29992 On ch=3 n=d4 v=127
30056 Off ch=1 n=c6 v=127
30120 On ch=13 n=b5 v=127
30184 Off ch=3 n=d5 v=127
30247 Off ch=3 n=d4 v=127
30248 On ch=1 n=c5 v=127
30248 On ch=5 n=e4 v=127
30312 Off ch=13 n=b5 v=127
30376 On ch=11 n=a5 v=127
30440 Off ch=1 n=c5 v=127
30504 On ch=13 n=b4 v=127
30504 On ch=5 n=e3 v=127
30568 Off ch=11 n=a5 v=127
30632 On ch=9 n=g#5 v=127
30696 Off ch=13 n=b4 v=127
30755 Off ch=5 n=e4 v=127
30759 Off ch=9 n=g#5 v=127
30759 Off ch=5 n=e3 v=127
30760 On ch=11 n=a5 v=127
30760 On ch=11 n=a3 v=127
30887 Off ch=11 n=a3 v=127
30888 On ch=1 n=c4 v=127
31015 Off ch=1 n=c4 v=127
31016 On ch=5 n=e5 v=127
31016 On ch=5 n=e4 v=127
31143 Off ch=5 n=e4 v=127
31144 Off ch=11 n=a5 v=127
31144 On ch=11 n=a4 v=127
31271 Off ch=11 n=a4 v=127
31271 Off ch=5 n=e5 v=127
31272 On ch=11 n=a5 v=127
31272 On ch=1 n=c6 v=127
31272 On ch=1 n=c5 v=127
31399 Off ch=1 n=c5 v=127
31400 On ch=5 n=e5 v=127
31527 Off ch=5 n=e5 v=127
31527 Off ch=1 n=c6 v=127
31527 Off ch=11 n=a5 v=127
31528 On ch=13 n=b5 v=127
31528 On ch=5 n=e3 v=127
31656 On ch=5 n=e5 v=127
31720 Off ch=13 n=b5 v=127
31783 Off ch=5 n=e5 v=127
31783 Off ch=5 n=e3 v=127
31784 On ch=9 n=g#5 v=127
31784 On ch=5 n=e3 v=127
31911 Off ch=9 n=g#5 v=127
31912 On ch=13 n=b5 v=127
32039 Off ch=13 n=b5 v=127
32039 Off ch=5 n=e3 v=127
32040 On ch=5 n=e6 v=127
32040 On ch=5 n=e3 v=127
32168 On ch=5 n=e5 v=127
32293 Off ch=5 n=e6 v=127
32294 Off ch=5 n=e5 v=127
32294 Off ch=5 n=e3 v=127
32295 On ch=6 n=f5 v=127
32295 On ch=5 n=e3 v=127
32423 On ch=3 n=d6 v=127
32487 Off ch=6 n=f5 v=127
32550 Off ch=5 n=e3 v=127
32551 On ch=5 n=e5 v=127
32551 On ch=5 n=e3 v=127
32615 Off ch=3 n=d6 v=127
32679 On ch=11 n=a5 v=127
32679 On ch=1 n=c6 v=127
32743 Off ch=5 n=e5 v=127
32806 Off ch=1 n=c6 v=127
32806 Off ch=11 n=a5 v=127
32806 Off ch=5 n=e3 v=127
32807 On ch=3 n=d5 v=127
32807 On ch=5 n=e3 v=127
32935 On ch=9 n=g#5 v=127
32935 On ch=13 n=b5 v=127
32999 Off ch=3 n=d5 v=127
33062 Off ch=13 n=b5 v=127
33062 Off ch=9 n=g#5 v=127
33062 Off ch=5 n=e3 v=127
33063 On ch=9 n=g#5 v=127
33063 On ch=13 n=b5 v=127
33063 On ch=11 n=a3 v=127
33318 Off ch=13 n=b5 v=127
33318 Off ch=9 n=g#5 v=127
33319 On ch=1 n=c6 v=127
33319 On ch=11 n=a5 v=127
33703 Off ch=1 n=c6 v=127
33830 Off ch=11 n=a5 v=127
33830 Off ch=11 n=a3 v=127
33831 On ch=1 n=c6 v=127
33831 On ch=11 n=a5 v=127
33958 Off ch=11 n=a5 v=127
33959 On ch=11 n=a4 v=127
34086 Off ch=11 n=a4 v=127
34086 Off ch=1 n=c6 v=127
34087 On ch=13 n=b5 v=127
34087 On ch=5 n=e5 v=127
34214 Off ch=5 n=e5 v=127
34215 On ch=5 n=e4 v=127
34342 Off ch=5 n=e4 v=127
34342 Off ch=13 n=b5 v=127
34343 On ch=11 n=a5 v=127
34343 On ch=11 n=a4 v=127
34470 Off ch=11 n=a4 v=127
34471 On ch=11 n=a3 v=127
34598 Off ch=11 n=a3 v=127
34598 Off ch=11 n=a5 v=127
34599 On ch=13 n=b5 v=127
34599 On ch=5 n=e3 v=127
34663 On ch=5 n=e6 v=127
34683 Off ch=13 n=b5 v=127
34727 On ch=3 n=d6 v=127
34747 Off ch=5 n=e6 v=127
34791 On ch=1 n=c6 v=127
34811 Off ch=3 n=d6 v=127
34855 On ch=13 n=b5 v=127
34875 Off ch=1 n=c6 v=127
34919 On ch=11 n=a5 v=127
34939 Off ch=13 n=b5 v=127
34983 On ch=9 n=g#5 v=127
35003 Off ch=11 n=a5 v=127
35047 On ch=7 n=f#5 v=127
35067 Off ch=9 n=g#5 v=127
35111 On ch=5 n=e5 v=127
35131 Off ch=7 n=f#5 v=127
35175 On ch=3 n=d6 v=127
35195 Off ch=5 n=e5 v=127
35239 On ch=1 n=c6 v=127
35259 Off ch=3 n=d6 v=127
35303 On ch=13 n=b5 v=127
35323 Off ch=1 n=c6 v=127
35366 Off ch=13 n=b5 v=127
35366 Off ch=5 n=e3 v=127
35367 On ch=1 n=c6 v=127
35367 On ch=11 n=a5 v=127
35494 Off ch=11 n=a5 v=127
35495 On ch=11 n=a4 v=127
35622 Off ch=11 n=a4 v=127
35622 Off ch=1 n=c6 v=127
35623 On ch=13 n=b5 v=127
35623 On ch=5 n=e5 v=127
35750 Off ch=5 n=e5 v=127
35751 On ch=5 n=e4 v=127
35878 Off ch=5 n=e4 v=127
35878 Off ch=13 n=b5 v=127
35879 On ch=11 n=a5 v=127
35879 On ch=11 n=a4 v=127
36006 Off ch=11 n=a4 v=127
36007 On ch=11 n=a3 v=127
36134 Off ch=11 n=a3 v=127
36134 Off ch=11 n=a5 v=127
36135 On ch=13 n=b5 v=127
36135 On ch=5 n=e3 v=127
36199 On ch=5 n=e6 v=127
36219 Off ch=13 n=b5 v=127
36263 On ch=3 n=d6 v=127
36283 Off ch=5 n=e6 v=127
36327 On ch=1 n=c6 v=127
36347 Off ch=3 n=d6 v=127
36391 On ch=13 n=b5 v=127
36411 Off ch=1 n=c6 v=127
36455 On ch=11 n=a5 v=127
36475 Off ch=13 n=b5 v=127
36519 On ch=9 n=g#5 v=127
36539 Off ch=11 n=a5 v=127
36583 On ch=7 n=f#5 v=127
36603 Off ch=9 n=g#5 v=127
36647 On ch=5 n=e5 v=127
36667 Off ch=7 n=f#5 v=127
36711 On ch=3 n=d6 v=127
36731 Off ch=5 n=e5 v=127
36775 On ch=1 n=c6 v=127
36795 Off ch=3 n=d6 v=127
36839 On ch=13 n=b5 v=127
36859 Off ch=1 n=c6 v=127
36902 Off ch=13 n=b5 v=127
36902 Off ch=5 n=e3 v=127
36903 On ch=1 n=c6 v=127
36903 On ch=11 n=a4 v=127
37030 Off ch=11 n=a4 v=127
37031 On ch=11 n=a5 v=127
37158 Off ch=1 n=c6 v=127
37159 On ch=12 n=a#5 v=127
37286 Off ch=11 n=a5 v=127
37287 On ch=8 n=g5 v=127
37414 Off ch=12 n=a#5 v=127
37415 On ch=11 n=a5 v=127
37542 Off ch=8 n=g5 v=127
37543 On ch=7 n=f#5 v=127
37670 Off ch=7 n=f#5 v=127
37670 Off ch=11 n=a5 v=127
37671 On ch=12 n=a#5 v=127
37671 On ch=8 n=g5 v=127
37798 Off ch=8 n=g5 v=127
37799 On ch=8 n=g4 v=127
37926 Off ch=8 n=g4 v=127
37926 Off ch=12 n=a#5 v=127
37927 On ch=11 n=a5 v=127
37927 On ch=3 n=d5 v=127
38054 Off ch=3 n=d5 v=127
38055 On ch=3 n=d4 v=127
38182 Off ch=3 n=d4 v=127
38182 Off ch=11 n=a5 v=127
38183 On ch=8 n=g5 v=127
38183 On ch=8 n=g4 v=127
38310 Off ch=8 n=g4 v=127
38311 On ch=8 n=g3 v=127
38438 Off ch=8 n=g3 v=127
38438 Off ch=8 n=g5 v=127
38439 On ch=11 n=a5 v=127
38439 On ch=3 n=d3 v=127
38503 On ch=3 n=d6 v=127
38523 Off ch=11 n=a5 v=127
38567 On ch=1 n=c6 v=127
38587 Off ch=3 n=d6 v=127
38631 On ch=12 n=a#5 v=127
38651 Off ch=1 n=c6 v=127
38695 On ch=11 n=a5 v=127
38715 Off ch=12 n=a#5 v=127
38759 On ch=8 n=g5 v=127
38779 Off ch=11 n=a5 v=127
38823 On ch=7 n=f#5 v=127
38843 Off ch=8 n=g5 v=127
38887 On ch=5 n=e5 v=127
38907 Off ch=7 n=f#5 v=127
38951 On ch=3 n=d5 v=127
38971 Off ch=5 n=e5 v=127
39015 On ch=1 n=c6 v=127
39035 Off ch=3 n=d5 v=127
39079 On ch=12 n=a#5 v=127
39099 Off ch=1 n=c6 v=127
39143 On ch=11 n=a5 v=127
39163 Off ch=12 n=a#5 v=127
39206 Off ch=11 n=a5 v=127
39206 Off ch=3 n=d3 v=127
39207 On ch=12 n=a#5 v=127
39207 On ch=8 n=g5 v=127
39334 Off ch=8 n=g5 v=127
39335 On ch=8 n=g4 v=127
39462 Off ch=8 n=g4 v=127
39462 Off ch=12 n=a#5 v=127
39463 On ch=11 n=a5 v=127
39463 On ch=3 n=d5 v=127
39590 Off ch=3 n=d5 v=127
39591 On ch=3 n=d4 v=127
39718 Off ch=3 n=d4 v=127
39718 Off ch=11 n=a5 v=127
39719 On ch=8 n=g5 v=127
39719 On ch=8 n=g4 v=127
39846 Off ch=8 n=g4 v=127
39847 On ch=8 n=g3 v=127
39974 Off ch=8 n=g3 v=127
39974 Off ch=8 n=g5 v=127
39975 On ch=11 n=a5 v=127
39975 On ch=3 n=d3 v=127
40039 On ch=3 n=d6 v=127
40059 Off ch=11 n=a5 v=127
40103 On ch=1 n=c6 v=127
40123 Off ch=3 n=d6 v=127
40167 On ch=12 n=a#5 v=127
40187 Off ch=1 n=c6 v=127
40231 On ch=11 n=a5 v=127
40251 Off ch=12 n=a#5 v=127
40295 On ch=8 n=g5 v=127
40315 Off ch=11 n=a5 v=127
40359 On ch=7 n=f#5 v=127
40379 Off ch=8 n=g5 v=127
40423 On ch=5 n=e5 v=127
40443 Off ch=7 n=f#5 v=127
40487 On ch=3 n=d5 v=127
40507 Off ch=5 n=e5 v=127
40551 On ch=1 n=c6 v=127
40571 Off ch=3 n=d5 v=127
40615 On ch=12 n=a#5 v=127
40635 Off ch=1 n=c6 v=127
40679 On ch=11 n=a5 v=127
40699 Off ch=12 n=a#5 v=127
40742 Off ch=11 n=a5 v=127
40742 Off ch=3 n=d3 v=127
40743 On ch=12 n=a#5 v=127
40743 On ch=8 n=g4 v=127
40870 Off ch=8 n=g4 v=127
40871 On ch=8 n=g5 v=127
40998 Off ch=12 n=a#5 v=127
40999 On ch=11 n=a5 v=127
41126 Off ch=8 n=g5 v=127
41127 On ch=6 n=f5 v=127
41254 Off ch=11 n=a5 v=127
41255 On ch=8 n=g5 v=127
41382 Off ch=6 n=f5 v=127
41383 On ch=5 n=e5 v=127
41510 Off ch=5 n=e5 v=127
41510 Off ch=8 n=g5 v=127
41511 On ch=11 n=a5 v=127
41511 On ch=6 n=f5 v=127
41638 Off ch=6 n=f5 v=127
41639 On ch=6 n=f4 v=127
41766 Off ch=6 n=f4 v=127
41766 Off ch=11 n=a5 v=127
41767 On ch=8 n=g5 v=127
41767 On ch=1 n=c5 v=127
41894 Off ch=1 n=c5 v=127
41895 On ch=1 n=c4 v=127
42022 Off ch=1 n=c4 v=127
42022 Off ch=8 n=g5 v=127
42023 On ch=6 n=f5 v=127
42023 On ch=6 n=f4 v=127
42150 Off ch=6 n=f4 v=127
42151 On ch=6 n=f3 v=127
42278 Off ch=6 n=f3 v=127
42278 Off ch=6 n=f5 v=127
42279 On ch=8 n=g5 v=127
42279 On ch=1 n=c3 v=127
42343 On ch=1 n=c6 v=127
42363 Off ch=8 n=g5 v=127
42407 On ch=12 n=a#5 v=127
42427 Off ch=1 n=c6 v=127
42471 On ch=11 n=a5 v=127
42491 Off ch=12 n=a#5 v=127
42535 On ch=8 n=g5 v=127
42555 Off ch=11 n=a5 v=127
42599 On ch=6 n=f5 v=127
42619 Off ch=8 n=g5 v=127
42663 On ch=5 n=e5 v=127
42683 Off ch=6 n=f5 v=127
42727 On ch=3 n=d5 v=127
42747 Off ch=5 n=e5 v=127
42791 On ch=1 n=c5 v=127
42811 Off ch=3 n=d5 v=127
42855 On ch=12 n=a#5 v=127
42875 Off ch=1 n=c5 v=127
42919 On ch=11 n=a5 v=127
42939 Off ch=12 n=a#5 v=127
42983 On ch=8 n=g5 v=127
43003 Off ch=11 n=a5 v=127
43046 Off ch=8 n=g5 v=127
43046 Off ch=1 n=c3 v=127
43047 On ch=11 n=a5 v=127
43047 On ch=6 n=f5 v=127
43174 Off ch=6 n=f5 v=127
43175 On ch=6 n=f4 v=127
43302 Off ch=6 n=f4 v=127
43302 Off ch=11 n=a5 v=127
43303 On ch=8 n=g5 v=127
43303 On ch=1 n=c5 v=127
43430 Off ch=1 n=c5 v=127
43431 On ch=1 n=c4 v=127
43558 Off ch=1 n=c4 v=127
43558 Off ch=8 n=g5 v=127
43559 On ch=6 n=f5 v=127
43559 On ch=6 n=f4 v=127
43686 Off ch=6 n=f4 v=127
43687 On ch=6 n=f3 v=127
43814 Off ch=6 n=f3 v=127
43814 Off ch=6 n=f5 v=127
43815 On ch=8 n=g5 v=127
43815 On ch=1 n=c3 v=127
43879 On ch=1 n=c6 v=127
43899 Off ch=8 n=g5 v=127
43943 On ch=12 n=a#5 v=127
43963 Off ch=1 n=c6 v=127
44007 On ch=11 n=a5 v=127
44027 Off ch=12 n=a#5 v=127
44071 On ch=8 n=g5 v=127
44091 Off ch=11 n=a5 v=127
44135 On ch=6 n=f5 v=127
44155 Off ch=8 n=g5 v=127
44199 On ch=5 n=e5 v=127
44219 Off ch=6 n=f5 v=127
44263 On ch=3 n=d5 v=127
44283 Off ch=5 n=e5 v=127
44327 On ch=1 n=c5 v=127
44347 Off ch=3 n=d5 v=127
44391 On ch=12 n=a#5 v=127
44411 Off ch=1 n=c5 v=127
44455 On ch=11 n=a5 v=127
44475 Off ch=12 n=a#5 v=127
44519 On ch=8 n=g5 v=127
44539 Off ch=11 n=a5 v=127
44582 Off ch=8 n=g5 v=127
44582 Off ch=1 n=c3 v=127
44583 On ch=11 n=a5 v=127
44583 On ch=6 n=f4 v=127
44710 Off ch=6 n=f4 v=127
44711 On ch=6 n=f5 v=127
44838 Off ch=11 n=a5 v=127
44839 On ch=8 n=g5 v=127
44966 Off ch=6 n=f5 v=127
44967 On ch=5 n=e5 v=127
45094 Off ch=8 n=g5 v=127
45095 On ch=6 n=f5 v=127
45222 Off ch=5 n=e5 v=127
45223 On ch=3 n=d5 v=127
45350 Off ch=6 n=f5 v=127
45351 On ch=5 n=e5 v=127
45478 Off ch=3 n=d5 v=127
45479 On ch=2 n=c#5 v=127
45606 Off ch=5 n=e5 v=127
45607 On ch=6 n=f5 v=127
45734 Off ch=2 n=c#5 v=127
45735 On ch=3 n=d5 v=127
45862 Off ch=6 n=f5 v=127
45863 On ch=8 n=g5 v=127
45990 Off ch=3 n=d5 v=127
45991 On ch=12 n=a#4 v=127
46118 Off ch=12 n=a#4 v=127
46119 On ch=11 n=a3 v=127
46182 Off ch=8 n=g5 v=127
46183 On ch=11 n=a5 v=127
46247 On ch=8 n=g5 v=127
46267 Off ch=11 n=a5 v=127
46311 On ch=6 n=f5 v=127
46331 Off ch=8 n=g5 v=127
46375 On ch=5 n=e5 v=127
46395 Off ch=6 n=f5 v=127
46439 On ch=3 n=d5 v=127
46459 Off ch=5 n=e5 v=127
46503 On ch=2 n=c#5 v=127
46523 Off ch=3 n=d5 v=127
46567 On ch=13 n=b4 v=127
46587 Off ch=2 n=c#5 v=127
46631 On ch=11 n=a4 v=127
46634 Off ch=13 n=b4 v=127
46758 Off ch=11 n=a4 v=127
46759 On ch=5 n=e6 v=127
46759 On ch=8 n=g6 v=127
46886 Off ch=8 n=g6 v=127
46886 Off ch=5 n=e6 v=127
46886 Off ch=11 n=a3 v=127
46887 On ch=6 n=f6 v=127
46887 On ch=3 n=d6 v=127
47014 Off ch=3 n=d6 v=127
47015 On ch=3 n=d5 v=127
47142 Off ch=3 n=d5 v=127
47142 Off ch=6 n=f6 v=127
47143 On ch=5 n=e6 v=127
47143 On ch=11 n=a5 v=127
47270 Off ch=11 n=a5 v=127
47271 On ch=11 n=a4 v=127
47398 Off ch=11 n=a4 v=127
47398 Off ch=5 n=e6 v=127
47399 On ch=3 n=d6 v=127
47399 On ch=3 n=d5 v=127
47526 Off ch=3 n=d5 v=127
47527 On ch=3 n=d4 v=127
47654 Off ch=3 n=d4 v=127
47654 Off ch=3 n=d6 v=127
47655 On ch=5 n=e6 v=127
47655 On ch=11 n=a3 v=127
47719 On ch=11 n=a6 v=127
47739 Off ch=5 n=e6 v=127
47783 On ch=8 n=g6 v=127
47803 Off ch=11 n=a6 v=127
47847 On ch=6 n=f6 v=127
47867 Off ch=8 n=g6 v=127
47911 On ch=5 n=e6 v=127
47931 Off ch=6 n=f6 v=127
47975 On ch=3 n=d6 v=127
47995 Off ch=5 n=e6 v=127
48039 On ch=2 n=c#6 v=127
48059 Off ch=3 n=d6 v=127
48103 On ch=13 n=b5 v=127
48123 Off ch=2 n=c#6 v=127
48167 On ch=11 n=a5 v=127
48187 Off ch=13 n=b5 v=127
48231 On ch=8 n=g6 v=127
48251 Off ch=11 n=a5 v=127
48295 On ch=6 n=f6 v=127
48315 Off ch=8 n=g6 v=127
48359 On ch=5 n=e6 v=127
48379 Off ch=6 n=f6 v=127
48422 Off ch=5 n=e6 v=127
48422 Off ch=11 n=a3 v=127
48423 On ch=3 n=d6 v=127
48423 On ch=6 n=f6 v=127
48550 Off ch=3 n=d6 v=127
48551 On ch=3 n=d5 v=127
48678 Off ch=3 n=d5 v=127
48678 Off ch=6 n=f6 v=127
48679 On ch=5 n=e6 v=127
48679 On ch=11 n=a5 v=127
48806 Off ch=11 n=a5 v=127
48807 On ch=11 n=a4 v=127
48934 Off ch=11 n=a4 v=127
48934 Off ch=5 n=e6 v=127
48935 On ch=3 n=d6 v=127
48935 On ch=3 n=d5 v=127
49062 Off ch=3 n=d5 v=127
49063 On ch=3 n=d4 v=127
49190 Off ch=3 n=d4 v=127
49190 Off ch=3 n=d6 v=127
49191 On ch=5 n=e6 v=127
49191 On ch=11 n=a3 v=127
49255 On ch=11 n=a6 v=127
49275 Off ch=5 n=e6 v=127
49319 On ch=8 n=g6 v=127
49339 Off ch=11 n=a6 v=127
49383 On ch=6 n=f6 v=127
49403 Off ch=8 n=g6 v=127
49447 On ch=5 n=e6 v=127
49467 Off ch=6 n=f6 v=127
49511 On ch=3 n=d6 v=127
49531 Off ch=5 n=e6 v=127
49575 On ch=2 n=c#6 v=127
49595 Off ch=3 n=d6 v=127
49639 On ch=13 n=b5 v=127
49659 Off ch=2 n=c#6 v=127
49703 On ch=11 n=a5 v=127
49723 Off ch=13 n=b5 v=127
49767 On ch=8 n=g5 v=127
49787 Off ch=11 n=a5 v=127
49831 On ch=6 n=f5 v=127
49851 Off ch=8 n=g5 v=127
49895 On ch=5 n=e5 v=127
49915 Off ch=6 n=f5 v=127
49958 Off ch=5 n=e5 v=127
49958 Off ch=11 n=a3 v=127
49959 On ch=6 n=f5 v=127
49959 On ch=3 n=d6 v=127
49959 On ch=3 n=d5 v=127
50086 Off ch=3 n=d5 v=127
50087 On ch=3 n=d4 v=127
50214 Off ch=3 n=d4 v=127
50214 Off ch=3 n=d6 v=127
50214 Off ch=6 n=f5 v=127
50215 On ch=5 n=e5 v=127
50215 On ch=2 n=c#6 v=127
50215 On ch=11 n=a4 v=127
50342 Off ch=11 n=a4 v=127
50343 On ch=11 n=a3 v=127
50470 Off ch=11 n=a3 v=127
50470 Off ch=2 n=c#6 v=127
50470 Off ch=5 n=e5 v=127
50471 On ch=6 n=f5 v=127
50471 On ch=3 n=d6 v=127
50471 On ch=3 n=d4 v=127
50598 Off ch=3 n=d4 v=127
50599 On ch=3 n=d3 v=127
50726 Off ch=3 n=d3 v=127
50726 Off ch=3 n=d6 v=127
50726 Off ch=6 n=f5 v=127
50727 On ch=5 n=e6 v=127
50727 On ch=11 n=a3 v=127
50791 On ch=3 n=d6 v=127
50811 Off ch=5 n=e6 v=127
50855 On ch=2 n=c#6 v=127
50875 Off ch=3 n=d6 v=127
50919 On ch=13 n=b5 v=127
50939 Off ch=2 n=c#6 v=127
50982 Off ch=11 n=a3 v=127
50983 On ch=11 n=a5 v=127
50983 On ch=11 n=a3 v=127
51003 Off ch=13 n=b5 v=127
51047 On ch=8 n=g5 v=127
51067 Off ch=11 n=a5 v=127
51111 On ch=6 n=f5 v=127
51131 Off ch=8 n=g5 v=127
51175 On ch=5 n=e5 v=127
51195 Off ch=6 n=f5 v=127
51238 Off ch=11 n=a3 v=127
51239 On ch=3 n=d5 v=127
51239 On ch=11 n=a4 v=127
51259 Off ch=5 n=e5 v=127
51366 Off ch=3 n=d5 v=127
51367 On ch=2 n=c#5 v=127
51494 Off ch=2 n=c#5 v=127
51494 Off ch=11 n=a4 v=127
51495 On ch=6 n=f5 v=127
51495 On ch=12 n=a#3 v=127
51495 On ch=12 n=a#4 v=127
51623 On ch=11 n=a5 v=127
51748 Off ch=6 n=f5 v=127
51749 Off ch=11 n=a5 v=127
51749 Off ch=12 n=a#4 v=127
51749 Off ch=12 n=a#3 v=127
51750 On ch=3 n=d6 v=127
51750 On ch=8 n=g3 v=127
51750 On ch=8 n=g4 v=127
51878 On ch=6 n=f5 v=127
52003 Off ch=3 n=d6 v=127
52004 Off ch=6 n=f5 v=127
52004 Off ch=8 n=g4 v=127
52004 Off ch=8 n=g3 v=127
52005 On ch=5 n=e5 v=127
52005 On ch=11 n=a3 v=127
52005 On ch=11 n=a4 v=127
52133 On ch=5 n=e6 v=127
52133 On ch=2 n=c#6 v=127
52197 Off ch=5 n=e5 v=127
52260 Off ch=2 n=c#6 v=127
52260 Off ch=5 n=e6 v=127
52260 Off ch=11 n=a4 v=127
52260 Off ch=11 n=a3 v=127
52261 On ch=6 n=f5 v=127
52261 On ch=3 n=d3 v=127
52261 On ch=3 n=d4 v=127
52389 On ch=3 n=d6 v=127
52389 On ch=6 n=f6 v=127
52453 Off ch=6 n=f5 v=127
52516 Off ch=6 n=f6 v=127
52516 Off ch=3 n=d6 v=127
52516 Off ch=3 n=d4 v=127
52516 Off ch=3 n=d3 v=127
52517 On ch=8 n=g5 v=127
52517 On ch=5 n=e3 v=127
52517 On ch=5 n=e4 v=127
52645 On ch=5 n=e6 v=127
52645 On ch=8 n=g6 v=127
52709 Off ch=8 n=g5 v=127
52772 Off ch=8 n=g6 v=127
52772 Off ch=5 n=e6 v=127
52772 Off ch=5 n=e4 v=127
52772 Off ch=5 n=e3 v=127
52773 On ch=11 n=a5 v=127
52773 On ch=6 n=f3 v=127
52773 On ch=6 n=f4 v=127
52901 On ch=11 n=a6 v=127
52901 On ch=6 n=f6 v=127
52965 Off ch=11 n=a5 v=127
53028 Off ch=6 n=f6 v=127
53028 Off ch=11 n=a6 v=127
53028 Off ch=6 n=f4 v=127
53028 Off ch=6 n=f3 v=127
53029 On ch=12 n=a#5 v=127
53029 On ch=8 n=g3 v=127
53029 On ch=8 n=g4 v=127
53157 On ch=8 n=g6 v=127
53157 On ch=12 n=a#6 v=127
53221 Off ch=12 n=a#5 v=127
53284 Off ch=12 n=a#6 v=127
53284 Off ch=8 n=g6 v=127
53284 Off ch=8 n=g4 v=127
53284 Off ch=8 n=g3 v=127
53285 On ch=11 n=a5 v=127
53285 On ch=2 n=c#6 v=127
53285 On ch=11 n=a3 v=127
53285 On ch=11 n=a4 v=127
53412 Off ch=2 n=c#6 v=127
53413 On ch=11 n=a6 v=127
53477 Off ch=11 n=a5 v=127
53540 Off ch=11 n=a4 v=127
53540 Off ch=11 n=a3 v=127
53541 On ch=12 n=a#5 v=127
53541 On ch=12 n=a#3 v=127
53541 On ch=12 n=a#4 v=127
53605 Off ch=11 n=a6 v=127
53669 On ch=8 n=g6 v=127
53733 Off ch=12 n=a#5 v=127
53796 Off ch=8 n=g6 v=127
53796 Off ch=12 n=a#4 v=127
53796 Off ch=12 n=a#3 v=127
53797 On ch=11 n=a5 v=127
53797 On ch=11 n=a3 v=127
53797 On ch=11 n=a4 v=127
53861 On ch=11 n=a6 v=127
53881 Off ch=11 n=a5 v=127
53925 On ch=8 n=g6 v=127
53945 Off ch=11 n=a6 v=127
53989 On ch=6 n=f6 v=127
54009 Off ch=8 n=g6 v=127
54052 Off ch=11 n=a4 v=127
54052 Off ch=11 n=a3 v=127
54053 On ch=5 n=e6 v=127
54053 On ch=11 n=a3 v=127
54073 Off ch=6 n=f6 v=127
54117 On ch=3 n=d6 v=127
54137 Off ch=5 n=e6 v=127
54181 On ch=2 n=c#6 v=127
54201 Off ch=3 n=d6 v=127
54245 On ch=13 n=b5 v=127
54265 Off ch=2 n=c#6 v=127
54308 Off ch=11 n=a3 v=127
54309 On ch=11 n=a5 v=127
54309 On ch=11 n=a3 v=127
54329 Off ch=13 n=b5 v=127
54373 On ch=8 n=g5 v=127
54393 Off ch=11 n=a5 v=127
54437 On ch=6 n=f5 v=127
54457 Off ch=8 n=g5 v=127
54501 On ch=5 n=e5 v=127
54521 Off ch=6 n=f5 v=127
54564 Off ch=5 n=e5 v=127
54564 Off ch=11 n=a3 v=127
54565 On ch=6 n=f5 v=127
54565 On ch=3 n=d6 v=127
54565 On ch=3 n=d5 v=127
54692 Off ch=3 n=d5 v=127
54693 On ch=3 n=d4 v=127
54820 Off ch=3 n=d4 v=127
54820 Off ch=3 n=d6 v=127
54820 Off ch=6 n=f5 v=127
54821 On ch=2 n=c#6 v=127
54821 On ch=5 n=e5 v=127
54821 On ch=11 n=a4 v=127
54948 Off ch=11 n=a4 v=127
54949 On ch=11 n=a3 v=127
55076 Off ch=11 n=a3 v=127
55076 Off ch=5 n=e5 v=127
55076 Off ch=2 n=c#6 v=127
55077 On ch=6 n=f5 v=127
55077 On ch=3 n=d6 v=127
55077 On ch=3 n=d4 v=127
55204 Off ch=3 n=d4 v=127
55205 On ch=3 n=d3 v=127
55332 Off ch=3 n=d3 v=127
55332 Off ch=3 n=d6 v=127
55332 Off ch=6 n=f5 v=127
55333 On ch=5 n=e6 v=127
55333 On ch=11 n=a3 v=127
55397 On ch=3 n=d6 v=127
55417 Off ch=5 n=e6 v=127
55461 On ch=2 n=c#6 v=127
55481 Off ch=3 n=d6 v=127
55525 On ch=13 n=b5 v=127
55545 Off ch=2 n=c#6 v=127
55588 Off ch=11 n=a3 v=127
55589 On ch=11 n=a5 v=127
55589 On ch=11 n=a3 v=127
55609 Off ch=13 n=b5 v=127
55653 On ch=8 n=g5 v=127
55673 Off ch=11 n=a5 v=127
55717 On ch=6 n=f5 v=127
55737 Off ch=8 n=g5 v=127
55781 On ch=5 n=e5 v=127
55801 Off ch=6 n=f5 v=127
55844 Off ch=11 n=a3 v=127
55845 On ch=3 n=d5 v=127
55845 On ch=11 n=a4 v=127
55865 Off ch=5 n=e5 v=127
55972 Off ch=3 n=d5 v=127
55973 On ch=2 n=c#5 v=127
56100 Off ch=2 n=c#5 v=127
56100 Off ch=11 n=a4 v=127
56101 On ch=6 n=f5 v=127
56101 On ch=12 n=a#4 v=127
56101 On ch=12 n=a#3 v=127
56229 On ch=11 n=a5 v=127
56356 Off ch=11 n=a5 v=127
56356 Off ch=12 n=a#3 v=127
56356 Off ch=12 n=a#4 v=127
56357 On ch=3 n=d6 v=127
56357 On ch=8 n=g4 v=127
56357 On ch=8 n=g3 v=127
56482 Off ch=6 n=f5 v=127
56485 On ch=6 n=f5 v=127
56612 Off ch=6 n=f5 v=127
56612 Off ch=8 n=g3 v=127
56612 Off ch=8 n=g4 v=127
56613 On ch=5 n=e5 v=127
56613 On ch=11 n=a4 v=127
56613 On ch=11 n=a3 v=127
56738 Off ch=3 n=d6 v=127
56741 On ch=2 n=c#6 v=127
56866 Off ch=5 n=e5 v=127
56867 Off ch=2 n=c#6 v=127
56867 Off ch=11 n=a3 v=127
56867 Off ch=11 n=a4 v=127
56882 On ch=3 n=d4 v=127
56882 On ch=3 n=d3 v=127
56882 On ch=5 n=e5 v=127
56922 On ch=3 n=d5 v=127
56935 Off ch=5 n=e5 v=127
56962 On ch=5 n=e5 v=127
56975 Off ch=3 n=d5 v=127
57002 On ch=3 n=d5 v=127
57015 Off ch=5 n=e5 v=127
58602 Off ch=3 n=d5 v=127
58615 Off ch=3 n=d3 v=127
58615 Off ch=3 n=d4 v=127
64512 Meta TrkEnd
TrkEnd
