MFile 0 1 384
MTrk
0 Meta Copyright "(C) John Sankey 1998"
0 PrCh ch=1 p=6
0 Pb ch=1 v=8192
0 PrCh ch=2 p=6
0 Pb ch=2 v=7602
0 PrCh ch=3 p=6
0 Pb ch=3 v=7920
0 PrCh ch=4 p=6
0 Pb ch=4 v=7839
0 PrCh ch=5 p=6
0 Pb ch=5 v=7632
0 PrCh ch=6 p=6
0 Pb ch=6 v=8112
0 PrCh ch=7 p=6
0 Pb ch=7 v=7567
0 PrCh ch=8 p=6
0 Pb ch=8 v=8062
0 PrCh ch=9 p=6
0 Pb ch=9 v=7680
0 PrCh ch=11 p=6
0 Pb ch=11 v=7728
0 PrCh ch=12 p=6
0 Pb ch=12 v=7984
0 PrCh ch=13 p=6
0 Pb ch=13 v=7639
0 Tempo 500000
128 On ch=1 n=c5 v=127
128 On ch=4 n=d#5 v=127
128 On ch=8 n=g5 v=127
639 Off ch=8 n=g5 v=127
639 Off ch=4 n=d#5 v=127
639 Off ch=1 n=c5 v=127
640 On ch=6 n=f5 v=127
640 On ch=3 n=d5 v=127
640 On ch=1 n=c6 v=127
703 Off ch=1 n=c6 v=127
704 On ch=13 n=b5 v=127
767 Off ch=13 n=b5 v=127
768 On ch=1 n=c6 v=127
831 Off ch=1 n=c6 v=127
832 On ch=13 n=b5 v=127
895 Off ch=13 n=b5 v=127
896 On ch=1 n=c6 v=127
959 Off ch=1 n=c6 v=127
960 On ch=13 n=b5 v=127
1023 Off ch=13 n=b5 v=127
1024 On ch=11 n=a5 v=127
1087 Off ch=11 n=a5 v=127
1088 On ch=13 n=b5 v=127
1151 Off ch=13 n=b5 v=127
1151 Off ch=3 n=d5 v=127
1151 Off ch=6 n=f5 v=127
1152 On ch=8 n=g5 v=127
1152 On ch=4 n=d#5 v=127
1152 On ch=1 n=c6 v=127
1407 Off ch=4 n=d#5 v=127
1407 Off ch=8 n=g5 v=127
1408 On ch=3 n=d5 v=127
1408 On ch=6 n=f5 v=127
1663 Off ch=6 n=f5 v=127
1663 Off ch=3 n=d5 v=127
1664 On ch=4 n=d#5 v=127
1664 On ch=1 n=c5 v=127
1872 Off ch=1 n=c6 v=127
1919 Off ch=1 n=c5 v=127
1919 Off ch=4 n=d#5 v=127
1920 On ch=13 n=b4 v=127
1920 On ch=3 n=d5 v=127
1920 On ch=3 n=d6 v=127
2175 Off ch=3 n=d6 v=127
2175 Off ch=3 n=d5 v=127
2175 Off ch=13 n=b4 v=127
2176 On ch=4 n=d#5 v=127
2176 On ch=1 n=c5 v=127
2176 On ch=8 n=g5 v=127
2176 On ch=4 n=d#6 v=127
2431 Off ch=4 n=d#6 v=127
2431 Off ch=1 n=c5 v=127
2431 Off ch=4 n=d#5 v=127
2432 On ch=3 n=d5 v=127
2432 On ch=6 n=f6 v=127
2687 Off ch=6 n=f6 v=127
2687 Off ch=3 n=d5 v=127
2688 On ch=4 n=d#5 v=127
2688 On ch=8 n=g6 v=127
2943 Off ch=8 n=g6 v=127
2943 Off ch=4 n=d#5 v=127
2943 Off ch=8 n=g5 v=127
2944 On ch=6 n=f5 v=127
2944 On ch=1 n=c6 v=127
3199 Off ch=1 n=c6 v=127
3199 Off ch=6 n=f5 v=127
3200 On ch=8 n=g4 v=127
3200 On ch=13 n=b5 v=127
3200 On ch=3 n=d5 v=127
3455 Off ch=13 n=b5 v=127
3455 Off ch=8 n=g4 v=127
3456 On ch=11 n=a4 v=127
3456 On ch=11 n=a5 v=127
3711 Off ch=11 n=a5 v=127
3711 Off ch=11 n=a4 v=127
3712 On ch=13 n=b4 v=127
3712 On ch=8 n=g5 v=127
3967 Off ch=8 n=g5 v=127
3967 Off ch=13 n=b4 v=127
3967 Off ch=3 n=d5 v=127
3968 On ch=8 n=g4 v=127
3968 On ch=6 n=f5 v=127
4223 Off ch=6 n=f5 v=127
4223 Off ch=8 n=g4 v=127
4224 On ch=1 n=c4 v=127
4224 On ch=1 n=c5 v=127
4224 On ch=4 n=d#5 v=127
4479 Off ch=4 n=d#5 v=127
4479 Off ch=1 n=c4 v=127
4480 On ch=3 n=d4 v=127
4480 On ch=6 n=f5 v=127
4735 Off ch=6 n=f5 v=127
4735 Off ch=3 n=d4 v=127
4736 On ch=4 n=d#4 v=127
4736 On ch=8 n=g5 v=127
4991 Off ch=8 n=g5 v=127
4991 Off ch=4 n=d#4 v=127
4991 Off ch=1 n=c5 v=127
4992 On ch=6 n=f4 v=127
4992 On ch=1 n=c5 v=127
5247 Off ch=1 n=c5 v=127
5247 Off ch=6 n=f4 v=127
5248 On ch=8 n=g4 v=127
5248 On ch=8 n=g3 v=127
5248 On ch=13 n=b4 v=127
5503 Off ch=13 n=b4 v=127
5504 On ch=11 n=a4 v=127
5759 Off ch=11 n=a4 v=127
5759 Off ch=8 n=g4 v=127
5760 On ch=8 n=g4 v=127
6015 Off ch=8 n=g3 v=127
6016 On ch=13 n=b4 v=127
6016 On ch=3 n=d5 v=127
6016 On ch=3 n=d6 v=127
6144 Off ch=8 n=g4 v=127
6271 Off ch=3 n=d6 v=127
6271 Off ch=3 n=d5 v=127
6271 Off ch=13 n=b4 v=127
6272 On ch=1 n=c5 v=127
6272 On ch=4 n=d#5 v=127
6272 On ch=4 n=d#6 v=127
6272 On ch=8 n=g5 v=127
6527 Off ch=4 n=d#6 v=127
6527 Off ch=4 n=d#5 v=127
6527 Off ch=1 n=c5 v=127
6528 On ch=3 n=d5 v=127
6528 On ch=6 n=f6 v=127
6783 Off ch=6 n=f6 v=127
6783 Off ch=3 n=d5 v=127
6784 On ch=4 n=d#5 v=127
6784 On ch=8 n=g6 v=127
7039 Off ch=8 n=g6 v=127
7039 Off ch=4 n=d#5 v=127
7039 Off ch=8 n=g5 v=127
7040 On ch=6 n=f5 v=127
7040 On ch=1 n=c6 v=127
7295 Off ch=6 n=f5 v=127
7296 On ch=8 n=g4 v=127
7296 On ch=8 n=g5 v=127
7360 Off ch=1 n=c6 v=127
7360 On ch=13 n=b5 v=127
7423 Off ch=13 n=b5 v=127
7424 On ch=1 n=c6 v=127
7487 Off ch=1 n=c6 v=127
7488 On ch=13 n=b5 v=127
7551 Off ch=13 n=b5 v=127
7552 On ch=11 n=a5 v=127
7807 Off ch=11 n=a5 v=127
7807 Off ch=8 n=g5 v=127
7808 On ch=8 n=g5 v=127
8064 On ch=3 n=d6 v=127
8319 Off ch=3 n=d6 v=127
8319 Off ch=8 n=g4 v=127
8320 On ch=8 n=g6 v=127
8320 On ch=4 n=d#6 v=127
8568 Off ch=8 n=g5 v=127
8576 On ch=8 n=g5 v=127
8704 Off ch=4 n=d#6 v=127
8831 Off ch=8 n=g6 v=127
8832 On ch=6 n=f6 v=127
8832 On ch=3 n=d6 v=127
9083 Off ch=8 n=g5 v=127
9088 On ch=8 n=g5 v=127
9216 Off ch=3 n=d6 v=127
9341 Off ch=8 n=g5 v=127
9342 Off ch=6 n=f6 v=127
9343 On ch=4 n=d#6 v=127
9343 On ch=1 n=c6 v=127
9599 On ch=13 n=b5 v=127
9663 Off ch=1 n=c6 v=127
9726 Off ch=13 n=b5 v=127
9727 On ch=11 n=a5 v=127
9854 Off ch=11 n=a5 v=127
9854 Off ch=4 n=d#6 v=127
9855 On ch=3 n=d6 v=127
9855 On ch=13 n=b5 v=127
9983 On ch=8 n=g5 v=127
10108 Off ch=13 n=b5 v=127
10109 Off ch=8 n=g5 v=127
10110 On ch=13 n=b5 v=127
10237 Off ch=3 n=d6 v=127
10238 On ch=3 n=d6 v=127
10363 Off ch=13 n=b5 v=127
10364 Off ch=3 n=d6 v=127
10365 On ch=8 n=g6 v=127
10365 On ch=4 n=d#6 v=127
10621 On ch=8 n=g5 v=127
10738 Off ch=4 n=d#6 v=127
10875 Off ch=8 n=g6 v=127
10876 On ch=6 n=f6 v=127
10876 On ch=3 n=d6 v=127
11127 Off ch=8 n=g5 v=127
11132 On ch=8 n=g5 v=127
11260 Off ch=3 n=d6 v=127
11385 Off ch=8 n=g5 v=127
11386 Off ch=6 n=f6 v=127
11387 On ch=4 n=d#6 v=127
11387 On ch=1 n=c6 v=127
11643 On ch=13 n=b5 v=127
11707 Off ch=1 n=c6 v=127
11770 Off ch=13 n=b5 v=127
11771 On ch=11 n=a5 v=127
11898 Off ch=11 n=a5 v=127
11898 Off ch=4 n=d#6 v=127
11899 On ch=3 n=d6 v=127
11899 On ch=13 n=b5 v=127
12027 On ch=8 n=g5 v=127
12152 Off ch=13 n=b5 v=127
12153 Off ch=8 n=g5 v=127
12154 On ch=13 n=b5 v=127
12281 Off ch=3 n=d6 v=127
12282 On ch=3 n=d6 v=127
12407 Off ch=13 n=b5 v=127
12408 Off ch=3 n=d6 v=127
12409 On ch=9 n=g#6 v=127
12409 On ch=6 n=f6 v=127
12665 On ch=8 n=g5 v=127
12793 Off ch=6 n=f6 v=127
12920 Off ch=9 n=g#6 v=127
12921 On ch=8 n=g6 v=127
12921 On ch=4 n=d#6 v=127
13172 Off ch=8 n=g5 v=127
13177 On ch=8 n=g5 v=127
13305 Off ch=4 n=d#6 v=127
13430 Off ch=8 n=g5 v=127
13431 Off ch=8 n=g6 v=127
13432 On ch=6 n=f6 v=127
13432 On ch=3 n=d6 v=127
13688 On ch=1 n=c6 v=127
13752 Off ch=3 n=d6 v=127
13815 Off ch=1 n=c6 v=127
13816 On ch=13 n=b5 v=127
13943 Off ch=13 n=b5 v=127
13943 Off ch=6 n=f6 v=127
13944 On ch=4 n=d#6 v=127
13944 On ch=1 n=c6 v=127
14072 On ch=8 n=g5 v=127
14197 Off ch=1 n=c6 v=127
14198 Off ch=8 n=g5 v=127
14199 On ch=1 n=c6 v=127
14326 Off ch=4 n=d#6 v=127
14327 On ch=4 n=d#6 v=127
14452 Off ch=1 n=c6 v=127
14453 Off ch=4 n=d#6 v=127
14454 On ch=9 n=g#6 v=127
14454 On ch=6 n=f6 v=127
14710 On ch=8 n=g5 v=127
14838 Off ch=6 n=f6 v=127
14965 Off ch=9 n=g#6 v=127
14966 On ch=8 n=g6 v=127
14966 On ch=4 n=d#6 v=127
15217 Off ch=8 n=g5 v=127
15222 On ch=8 n=g5 v=127
15350 Off ch=4 n=d#6 v=127
15475 Off ch=8 n=g5 v=127
15476 Off ch=8 n=g6 v=127
15477 On ch=6 n=f6 v=127
15477 On ch=3 n=d6 v=127
15733 On ch=1 n=c6 v=127
15797 Off ch=3 n=d6 v=127
15860 Off ch=1 n=c6 v=127
15861 On ch=13 n=b5 v=127
15988 Off ch=13 n=b5 v=127
15988 Off ch=6 n=f6 v=127
15989 On ch=4 n=d#6 v=127
15989 On ch=1 n=c6 v=127
16116 Off ch=1 n=c6 v=127
16117 On ch=13 n=b5 v=127
16244 Off ch=13 n=b5 v=127
16245 On ch=1 n=c6 v=127
16372 Off ch=1 n=c6 v=127
16373 On ch=3 n=d6 v=127
16500 Off ch=3 n=d6 v=127
16500 Off ch=4 n=d#6 v=127
16501 On ch=1 n=c7 v=127
16501 On ch=4 n=d#6 v=127
16628 Off ch=4 n=d#6 v=127
16629 On ch=3 n=d6 v=127
16756 Off ch=3 n=d6 v=127
16756 Off ch=1 n=c7 v=127
16757 On ch=12 n=a#6 v=127
16757 On ch=1 n=c6 v=127
16884 Off ch=1 n=c6 v=127
16885 On ch=12 n=a#5 v=127
17012 Off ch=12 n=a#5 v=127
17012 Off ch=12 n=a#6 v=127
17013 On ch=11 n=a6 v=127
17013 On ch=1 n=c6 v=127
17140 Off ch=1 n=c6 v=127
17141 On ch=12 n=a#5 v=127
17268 Off ch=12 n=a#5 v=127
17268 Off ch=11 n=a6 v=127
17269 On ch=8 n=g6 v=127
17269 On ch=11 n=a5 v=127
17396 Off ch=11 n=a5 v=127
17397 On ch=8 n=g5 v=127
17524 Off ch=8 n=g5 v=127
17524 Off ch=8 n=g6 v=127
17525 On ch=7 n=f#6 v=127
17525 On ch=11 n=a5 v=127
17652 Off ch=11 n=a5 v=127
17653 On ch=8 n=g5 v=127
17780 Off ch=8 n=g5 v=127
17780 Off ch=7 n=f#6 v=127
17781 On ch=5 n=e6 v=127
17781 On ch=7 n=f#5 v=127
17908 Off ch=7 n=f#5 v=127
17909 On ch=5 n=e5 v=127
18036 Off ch=5 n=e5 v=127
18036 Off ch=5 n=e6 v=127
18037 On ch=3 n=d6 v=127
18037 On ch=7 n=f#5 v=127
18164 Off ch=7 n=f#5 v=127
18165 On ch=3 n=d5 v=127
18292 Off ch=3 n=d5 v=127
18292 Off ch=3 n=d6 v=127
18293 On ch=1 n=c6 v=127
18293 On ch=5 n=e5 v=127
18420 Off ch=5 n=e5 v=127
18421 On ch=7 n=f#5 v=127
18548 Off ch=7 n=f#5 v=127
18548 Off ch=1 n=c6 v=127
18549 On ch=12 n=a#5 v=127
18549 On ch=8 n=g5 v=127
18676 Off ch=8 n=g5 v=127
18677 On ch=3 n=d5 v=127
18804 Off ch=3 n=d5 v=127
18805 On ch=8 n=g5 v=127
18932 Off ch=8 n=g5 v=127
18932 Off ch=12 n=a#5 v=127
18933 On ch=12 n=a#5 v=127
19061 On ch=3 n=d6 v=127
19316 Off ch=3 n=d6 v=127
19316 Off ch=12 n=a#5 v=127
19317 On ch=1 n=c6 v=127
19317 On ch=1 n=c5 v=127
19572 Off ch=1 n=c5 v=127
19573 On ch=3 n=d5 v=127
19637 Off ch=1 n=c6 v=127
19637 On ch=12 n=a#5 v=127
19700 Off ch=12 n=a#5 v=127
19701 On ch=1 n=c6 v=127
19764 Off ch=1 n=c6 v=127
19765 On ch=12 n=a#5 v=127
19828 Off ch=12 n=a#5 v=127
19829 On ch=11 n=a5 v=127
19956 Off ch=11 n=a5 v=127
19957 On ch=8 n=g5 v=127
20084 Off ch=8 n=g5 v=127
20084 Off ch=3 n=d5 v=127
20085 On ch=1 n=c5 v=127
20085 On ch=12 n=a#5 v=127
20148 Off ch=12 n=a#5 v=127
20149 On ch=11 n=a5 v=127
20212 Off ch=11 n=a5 v=127
20213 On ch=12 n=a#5 v=127
20276 Off ch=12 n=a#5 v=127
20277 On ch=11 n=a5 v=127
20340 Off ch=11 n=a5 v=127
20341 On ch=8 n=g5 v=127
20468 Off ch=8 n=g5 v=127
20469 On ch=7 n=f#5 v=127
20596 Off ch=7 n=f#5 v=127
20596 Off ch=1 n=c5 v=127
20597 On ch=12 n=a#4 v=127
20597 On ch=8 n=g5 v=127
20725 On ch=3 n=d5 v=127
20850 Off ch=8 n=g5 v=127
20851 Off ch=3 n=d5 v=127
20852 On ch=8 n=g5 v=127
20979 Off ch=8 n=g5 v=127
20980 On ch=12 n=a#5 v=127
21107 Off ch=12 n=a#5 v=127
21108 On ch=3 n=d6 v=127
21363 Off ch=3 n=d6 v=127
21363 Off ch=12 n=a#4 v=127
21364 On ch=4 n=d#5 v=127
21364 On ch=1 n=c6 v=127
21619 Off ch=4 n=d#5 v=127
21620 On ch=3 n=d5 v=127
21684 Off ch=1 n=c6 v=127
21684 On ch=12 n=a#5 v=127
21747 Off ch=12 n=a#5 v=127
21748 On ch=1 n=c6 v=127
21811 Off ch=1 n=c6 v=127
21812 On ch=12 n=a#5 v=127
21875 Off ch=12 n=a#5 v=127
21876 On ch=11 n=a5 v=127
22003 Off ch=11 n=a5 v=127
22004 On ch=8 n=g5 v=127
22131 Off ch=8 n=g5 v=127
22131 Off ch=3 n=d5 v=127
22132 On ch=1 n=c5 v=127
22132 On ch=12 n=a#5 v=127
22195 Off ch=12 n=a#5 v=127
22196 On ch=11 n=a5 v=127
22259 Off ch=11 n=a5 v=127
22260 On ch=12 n=a#5 v=127
22323 Off ch=12 n=a#5 v=127
22324 On ch=11 n=a5 v=127
22387 Off ch=11 n=a5 v=127
22388 On ch=8 n=g5 v=127
22515 Off ch=8 n=g5 v=127
22516 On ch=7 n=f#5 v=127
22643 Off ch=7 n=f#5 v=127
22643 Off ch=1 n=c5 v=127
22644 On ch=12 n=a#4 v=127
22644 On ch=3 n=d6 v=127
22772 On ch=8 n=g5 v=127
22899 Off ch=8 n=g5 v=127
22900 On ch=12 n=a#5 v=127
23017 Off ch=3 n=d6 v=127
23026 Off ch=12 n=a#5 v=127
23027 On ch=3 n=d6 v=127
23154 Off ch=3 n=d6 v=127
23155 On ch=8 n=g6 v=127
23410 Off ch=8 n=g6 v=127
23410 Off ch=12 n=a#4 v=127
23411 On ch=1 n=c4 v=127
23411 On ch=1 n=c6 v=127
23411 On ch=4 n=d#5 v=127
23666 Off ch=4 n=d#5 v=127
23666 Off ch=1 n=c4 v=127
23667 On ch=3 n=d4 v=127
23667 On ch=3 n=d5 v=127
23731 Off ch=1 n=c6 v=127
23731 On ch=12 n=a#5 v=127
23794 Off ch=12 n=a#5 v=127
23795 On ch=1 n=c6 v=127
23858 Off ch=1 n=c6 v=127
23859 On ch=12 n=a#5 v=127
23922 Off ch=12 n=a#5 v=127
23923 On ch=11 n=a5 v=127
24050 Off ch=11 n=a5 v=127
24051 On ch=8 n=g5 v=127
24178 Off ch=8 n=g5 v=127
24178 Off ch=3 n=d5 v=127
24179 On ch=3 n=d3 v=127
24179 On ch=12 n=a#5 v=127
24242 Off ch=12 n=a#5 v=127
24243 On ch=11 n=a5 v=127
24306 Off ch=11 n=a5 v=127
24307 On ch=12 n=a#5 v=127
24370 Off ch=12 n=a#5 v=127
24371 On ch=11 n=a5 v=127
24434 Off ch=11 n=a5 v=127
24435 On ch=8 n=g5 v=127
24562 Off ch=8 n=g5 v=127
24563 On ch=7 n=f#5 v=127
24690 Off ch=7 n=f#5 v=127
24690 Off ch=3 n=d3 v=127
24690 Off ch=3 n=d4 v=127
24691 On ch=8 n=g3 v=127
24691 On ch=8 n=g5 v=127
24819 On ch=8 n=g6 v=127
24946 Off ch=8 n=g6 v=127
24947 On ch=6 n=f6 v=127
25074 Off ch=6 n=f6 v=127
25075 On ch=4 n=d#6 v=127
25202 Off ch=4 n=d#6 v=127
25203 On ch=3 n=d6 v=127
25330 Off ch=3 n=d6 v=127
25331 Off ch=8 n=g5 v=127
25331 On ch=1 n=c6 v=127
25458 Off ch=1 n=c6 v=127
25459 On ch=13 n=b5 v=127
25586 Off ch=13 n=b5 v=127
25587 On ch=11 n=a5 v=127
25714 Off ch=11 n=a5 v=127
25715 On ch=8 n=g5 v=127
25840 Off ch=8 n=g5 v=127
25843 On ch=8 n=g5 v=127
25971 On ch=6 n=f5 v=127
26098 Off ch=6 n=f5 v=127
26099 On ch=4 n=d#5 v=127
26226 Off ch=4 n=d#5 v=127
26227 On ch=3 n=d5 v=127
26354 Off ch=3 n=d5 v=127
26355 On ch=1 n=c5 v=127
26482 Off ch=1 n=c5 v=127
26483 Off ch=8 n=g5 v=127
26483 On ch=13 n=b4 v=127
26610 Off ch=13 n=b4 v=127
26611 On ch=11 n=a4 v=127
26738 Off ch=11 n=a4 v=127
26739 On ch=8 n=g4 v=127
26866 Off ch=8 n=g3 v=127
26867 On ch=3 n=d4 v=127
26994 Off ch=3 n=d4 v=127
26995 On ch=5 n=e4 v=127
27122 Off ch=5 n=e4 v=127
27123 On ch=7 n=f#4 v=127
27250 Off ch=7 n=f#4 v=127
27250 Off ch=8 n=g4 v=127
27251 On ch=8 n=g4 v=127
27251 On ch=3 n=d6 v=127
27251 On ch=8 n=g5 v=127
27251 On ch=13 n=b5 v=127
27378 Off ch=8 n=g4 v=127
27379 On ch=13 n=b3 v=127
27506 Off ch=13 n=b3 v=127
27507 On ch=1 n=c4 v=127
27634 Off ch=1 n=c4 v=127
27635 On ch=3 n=d4 v=127
27762 Off ch=3 n=d4 v=127
27762 Off ch=13 n=b5 v=127
27762 Off ch=8 n=g5 v=127
27762 Off ch=3 n=d6 v=127
27763 On ch=8 n=g3 v=127
27763 On ch=13 n=b5 v=127
27763 On ch=8 n=g5 v=127
27763 On ch=3 n=d6 v=127
27763 On ch=8 n=g6 v=127
28696 Off ch=8 n=g6 v=127
28696 Off ch=3 n=d6 v=127
28696 Off ch=8 n=g5 v=127
28696 Off ch=13 n=b5 v=127
28785 Off ch=8 n=g3 v=127
28786 On ch=8 n=g4 v=127
28786 On ch=3 n=d5 v=127
28786 On ch=13 n=b5 v=127
29297 Off ch=13 n=b5 v=127
29297 Off ch=3 n=d5 v=127
29297 Off ch=8 n=g4 v=127
29298 On ch=9 n=g#4 v=127
29298 On ch=6 n=f5 v=127
29298 On ch=3 n=d6 v=127
29361 Off ch=3 n=d6 v=127
29362 On ch=1 n=c6 v=127
29425 Off ch=1 n=c6 v=127
29426 On ch=3 n=d6 v=127
29489 Off ch=3 n=d6 v=127
29490 On ch=1 n=c6 v=127
29553 Off ch=1 n=c6 v=127
29554 On ch=3 n=d6 v=127
29617 Off ch=3 n=d6 v=127
29618 On ch=1 n=c6 v=127
29681 Off ch=1 n=c6 v=127
29682 On ch=13 n=b5 v=127
29745 Off ch=13 n=b5 v=127
29746 On ch=1 n=c6 v=127
29809 Off ch=1 n=c6 v=127
29809 Off ch=6 n=f5 v=127
29809 Off ch=9 n=g#4 v=127
29810 On ch=3 n=d5 v=127
29810 On ch=13 n=b4 v=127
29810 On ch=3 n=d6 v=127
30065 Off ch=3 n=d5 v=127
30066 On ch=8 n=g4 v=127
30317 Off ch=13 n=b4 v=127
30321 Off ch=8 n=g4 v=127
30322 On ch=4 n=d#5 v=127
30322 On ch=1 n=c5 v=127
30577 Off ch=3 n=d6 v=127
30578 On ch=4 n=d#6 v=127
30578 On ch=1 n=c6 v=127
30833 Off ch=1 n=c6 v=127
30833 Off ch=4 n=d#6 v=127
30833 Off ch=1 n=c5 v=127
30833 Off ch=4 n=d#5 v=127
30834 On ch=3 n=d5 v=127
30834 On ch=6 n=f5 v=127
30834 On ch=6 n=f6 v=127
30834 On ch=3 n=d6 v=127
31089 Off ch=3 n=d6 v=127
31089 Off ch=6 n=f6 v=127
31090 On ch=4 n=d#6 v=127
31090 On ch=1 n=c6 v=127
31345 Off ch=6 n=f5 v=127
31346 On ch=8 n=g4 v=127
31346 On ch=8 n=g5 v=127
31601 Off ch=1 n=c6 v=127
31601 Off ch=4 n=d#6 v=127
31602 On ch=3 n=d6 v=127
31602 On ch=13 n=b5 v=127
31857 Off ch=13 n=b5 v=127
31857 Off ch=3 n=d6 v=127
31857 Off ch=8 n=g5 v=127
31857 Off ch=8 n=g4 v=127
31857 Off ch=3 n=d5 v=127
31858 On ch=1 n=c5 v=127
31858 On ch=6 n=f6 v=127
31921 Off ch=6 n=f6 v=127
31922 On ch=4 n=d#6 v=127
31985 Off ch=4 n=d#6 v=127
31986 On ch=6 n=f6 v=127
32049 Off ch=6 n=f6 v=127
32050 On ch=4 n=d#6 v=127
32113 Off ch=4 n=d#6 v=127
32114 On ch=3 n=d6 v=127
32241 Off ch=3 n=d6 v=127
32242 On ch=4 n=d#6 v=127
32369 Off ch=4 n=d#6 v=127
32370 On ch=1 n=c6 v=127
32626 On ch=8 n=g5 v=127
32823 Off ch=1 n=c6 v=127
32880 Off ch=8 n=g5 v=127
32880 Off ch=1 n=c5 v=127
32881 On ch=6 n=f6 v=127
32881 On ch=9 n=g#5 v=127
33136 Off ch=9 n=g#5 v=127
33137 On ch=6 n=f5 v=127
33392 Off ch=6 n=f5 v=127
33392 Off ch=6 n=f6 v=127
33393 On ch=4 n=d#6 v=127
33393 On ch=8 n=g5 v=127
33648 Off ch=8 n=g5 v=127
33649 On ch=4 n=d#5 v=127
33904 Off ch=4 n=d#5 v=127
33904 Off ch=4 n=d#6 v=127
33905 On ch=3 n=d6 v=127
33905 On ch=6 n=f5 v=127
34160 Off ch=6 n=f5 v=127
34161 On ch=3 n=d5 v=127
34416 Off ch=3 n=d5 v=127
34416 Off ch=3 n=d6 v=127
34417 On ch=1 n=c6 v=127
34417 On ch=4 n=d#5 v=127
34544 Off ch=4 n=d#5 v=127
34545 On ch=3 n=d5 v=127
34672 Off ch=3 n=d5 v=127
34673 On ch=1 n=c5 v=127
34928 Off ch=1 n=c5 v=127
34928 Off ch=1 n=c6 v=127
34929 On ch=3 n=d6 v=127
34929 On ch=13 n=b4 v=127
35184 Off ch=13 n=b4 v=127
35185 On ch=8 n=g4 v=127
35440 Off ch=8 n=g4 v=127
35440 Off ch=3 n=d6 v=127
35441 On ch=4 n=d#6 v=127
35441 On ch=1 n=c5 v=127
35568 Off ch=4 n=d#6 v=127
35569 On ch=3 n=d6 v=127
35696 Off ch=3 n=d6 v=127
35697 On ch=1 n=c6 v=127
35952 Off ch=1 n=c6 v=127
35952 Off ch=1 n=c5 v=127
35953 On ch=8 n=g4 v=127
35953 On ch=8 n=g6 v=127
36209 On ch=8 n=g5 v=127
36464 Off ch=8 n=g5 v=127
36465 On ch=8 n=g5 v=127
36713 Off ch=8 n=g6 v=127
36716 Off ch=8 n=g5 v=127
36720 Off ch=8 n=g4 v=127
36721 On ch=8 n=g5 v=127
36721 On ch=8 n=g4 v=127
36721 On ch=8 n=g6 v=127
36976 Off ch=8 n=g6 v=127
36976 Off ch=8 n=g4 v=127
36976 Off ch=8 n=g5 v=127
36977 On ch=9 n=g#4 v=127
36977 On ch=6 n=f5 v=127
36977 On ch=6 n=f6 v=127
37104 Off ch=6 n=f6 v=127
37105 On ch=4 n=d#6 v=127
37232 Off ch=4 n=d#6 v=127
37233 On ch=3 n=d6 v=127
37488 Off ch=3 n=d6 v=127
37488 Off ch=6 n=f5 v=127
37488 Off ch=9 n=g#4 v=127
37489 On ch=4 n=d#5 v=127
37489 On ch=8 n=g4 v=127
37489 On ch=4 n=d#6 v=127
37616 Off ch=4 n=d#6 v=127
37617 On ch=3 n=d6 v=127
37744 Off ch=3 n=d6 v=127
37745 On ch=1 n=c6 v=127
38000 Off ch=1 n=c6 v=127
38000 Off ch=8 n=g4 v=127
38000 Off ch=4 n=d#5 v=127
38001 On ch=6 n=f4 v=127
38001 On ch=3 n=d5 v=127
38001 On ch=3 n=d6 v=127
38128 Off ch=3 n=d6 v=127
38129 On ch=1 n=c6 v=127
38256 Off ch=1 n=c6 v=127
38257 On ch=13 n=b5 v=127
38512 Off ch=13 n=b5 v=127
38512 Off ch=3 n=d5 v=127
38512 Off ch=6 n=f4 v=127
38513 On ch=4 n=d#4 v=127
38513 On ch=1 n=c5 v=127
38513 On ch=1 n=c6 v=127
38640 Off ch=1 n=c6 v=127
38641 On ch=3 n=d6 v=127
38768 Off ch=3 n=d6 v=127
38769 On ch=4 n=d#6 v=127
39024 Off ch=4 n=d#6 v=127
39024 Off ch=1 n=c5 v=127
39024 Off ch=4 n=d#4 v=127
39025 On ch=6 n=f4 v=127
39025 On ch=3 n=d4 v=127
39025 On ch=13 n=b4 v=127
39025 On ch=8 n=g4 v=127
39025 On ch=3 n=d6 v=127
39152 Off ch=3 n=d6 v=127
39153 On ch=4 n=d#6 v=127
39280 Off ch=4 n=d#6 v=127
39281 On ch=6 n=f6 v=127
39536 Off ch=13 n=b4 v=127
39536 Off ch=3 n=d4 v=127
39536 Off ch=6 n=f4 v=127
39537 On ch=1 n=c4 v=127
39537 On ch=1 n=c5 v=127
39601 Off ch=6 n=f6 v=127
39601 On ch=4 n=d#6 v=127
39664 Off ch=4 n=d#6 v=127
39665 On ch=6 n=f6 v=127
39728 Off ch=6 n=f6 v=127
39729 On ch=4 n=d#6 v=127
39792 Off ch=4 n=d#6 v=127
39793 On ch=3 n=d6 v=127
39920 Off ch=3 n=d6 v=127
39921 On ch=4 n=d#6 v=127
40048 Off ch=4 n=d#6 v=127
40048 Off ch=1 n=c5 v=127
40048 Off ch=1 n=c4 v=127
40048 Off ch=8 n=g4 v=127
40049 On ch=8 n=g4 v=127
40049 On ch=8 n=g3 v=127
40049 On ch=4 n=d#6 v=127
40176 Off ch=4 n=d#6 v=127
40177 On ch=3 n=d6 v=127
40240 Off ch=3 n=d6 v=127
40241 On ch=4 n=d#6 v=127
40304 Off ch=4 n=d#6 v=127
40305 On ch=3 n=d6 v=127
40368 Off ch=3 n=d6 v=127
40369 On ch=4 n=d#6 v=127
40432 Off ch=4 n=d#6 v=127
40433 On ch=3 n=d6 v=127
40496 Off ch=3 n=d6 v=127
40497 On ch=4 n=d#6 v=127
40560 Off ch=4 n=d#6 v=127
40561 On ch=3 n=d6 v=127
40624 Off ch=3 n=d6 v=127
40625 On ch=4 n=d#6 v=127
40688 Off ch=4 n=d#6 v=127
40689 On ch=3 n=d6 v=127
41329 Off ch=8 n=g3 v=127
41382 Off ch=8 n=g4 v=127
41585 On ch=4 n=d#6 v=127
41712 Off ch=3 n=d6 v=127
41840 Off ch=4 n=d#6 v=127
41841 On ch=9 n=g#6 v=127
41841 On ch=6 n=f6 v=127
42097 On ch=8 n=g5 v=127
42225 Off ch=6 n=f6 v=127
42352 Off ch=9 n=g#6 v=127
42353 On ch=8 n=g6 v=127
42353 On ch=4 n=d#6 v=127
42604 Off ch=8 n=g5 v=127
42609 On ch=8 n=g5 v=127
42737 Off ch=4 n=d#6 v=127
42862 Off ch=8 n=g5 v=127
42863 Off ch=8 n=g6 v=127
42864 On ch=6 n=f6 v=127
42864 On ch=3 n=d6 v=127
43120 On ch=1 n=c6 v=127
43184 Off ch=3 n=d6 v=127
43247 Off ch=1 n=c6 v=127
43248 On ch=13 n=b5 v=127
43375 Off ch=13 n=b5 v=127
43375 Off ch=6 n=f6 v=127
43376 On ch=4 n=d#6 v=127
43376 On ch=1 n=c6 v=127
43504 On ch=8 n=g5 v=127
43629 Off ch=1 n=c6 v=127
43630 Off ch=8 n=g5 v=127
43631 On ch=1 n=c6 v=127
43758 Off ch=4 n=d#6 v=127
43759 On ch=4 n=d#6 v=127
43884 Off ch=1 n=c6 v=127
43885 Off ch=4 n=d#6 v=127
43886 On ch=9 n=g#6 v=127
43886 On ch=6 n=f6 v=127
44142 On ch=8 n=g5 v=127
44270 Off ch=6 n=f6 v=127
44397 Off ch=9 n=g#6 v=127
44398 On ch=8 n=g6 v=127
44398 On ch=4 n=d#6 v=127
44649 Off ch=8 n=g5 v=127
44654 On ch=8 n=g5 v=127
44782 Off ch=4 n=d#6 v=127
44907 Off ch=8 n=g5 v=127
44908 Off ch=8 n=g6 v=127
44909 On ch=6 n=f6 v=127
44909 On ch=3 n=d6 v=127
45165 On ch=1 n=c6 v=127
45229 Off ch=3 n=d6 v=127
45292 Off ch=1 n=c6 v=127
45293 On ch=13 n=b5 v=127
45420 Off ch=13 n=b5 v=127
45420 Off ch=6 n=f6 v=127
45421 On ch=4 n=d#6 v=127
45421 On ch=1 n=c6 v=127
45548 Off ch=1 n=c6 v=127
45549 On ch=12 n=a#5 v=127
45676 Off ch=12 n=a#5 v=127
45677 On ch=9 n=g#5 v=127
45804 Off ch=9 n=g#5 v=127
45805 On ch=8 n=g5 v=127
45874 Off ch=4 n=d#6 v=127
45931 Off ch=8 n=g5 v=127
45932 On ch=6 n=f6 v=127
45932 On ch=9 n=g#5 v=127
46059 Off ch=9 n=g#5 v=127
46060 On ch=8 n=g5 v=127
46187 Off ch=8 n=g5 v=127
46187 Off ch=6 n=f6 v=127
46188 On ch=4 n=d#6 v=127
46188 On ch=6 n=f5 v=127
46315 Off ch=6 n=f5 v=127
46316 On ch=4 n=d#5 v=127
46443 Off ch=4 n=d#5 v=127
46443 Off ch=4 n=d#6 v=127
46444 On ch=3 n=d6 v=127
46444 On ch=6 n=f5 v=127
46571 Off ch=6 n=f5 v=127
46572 On ch=4 n=d#5 v=127
46699 Off ch=4 n=d#5 v=127
46699 Off ch=3 n=d6 v=127
46700 On ch=1 n=c6 v=127
46700 On ch=3 n=d5 v=127
46827 Off ch=3 n=d5 v=127
46828 On ch=1 n=c5 v=127
46955 Off ch=1 n=c5 v=127
46955 Off ch=1 n=c6 v=127
46956 On ch=13 n=b5 v=127
46956 On ch=3 n=d5 v=127
47083 Off ch=3 n=d5 v=127
47084 On ch=1 n=c5 v=127
47211 Off ch=1 n=c5 v=127
47211 Off ch=13 n=b5 v=127
47212 On ch=11 n=a5 v=127
47212 On ch=13 n=b4 v=127
47339 Off ch=13 n=b4 v=127
47340 On ch=11 n=a4 v=127
47467 Off ch=11 n=a4 v=127
47467 Off ch=11 n=a5 v=127
47468 On ch=8 n=g5 v=127
47468 On ch=13 n=b4 v=127
47595 Off ch=13 n=b4 v=127
47596 On ch=8 n=g4 v=127
47723 Off ch=8 n=g4 v=127
47723 Off ch=8 n=g5 v=127
47724 On ch=6 n=f5 v=127
47724 On ch=11 n=a4 v=127
47851 Off ch=11 n=a4 v=127
47852 On ch=13 n=b4 v=127
47979 Off ch=13 n=b4 v=127
47979 Off ch=6 n=f5 v=127
47980 On ch=4 n=d#5 v=127
47980 On ch=1 n=c5 v=127
48107 Off ch=1 n=c5 v=127
48108 On ch=8 n=g4 v=127
48235 Off ch=8 n=g4 v=127
48236 On ch=1 n=c5 v=127
48363 Off ch=1 n=c5 v=127
48363 Off ch=4 n=d#5 v=127
48364 On ch=4 n=d#5 v=127
48492 On ch=8 n=g5 v=127
48747 Off ch=8 n=g5 v=127
48747 Off ch=4 n=d#5 v=127
48748 On ch=6 n=f5 v=127
48748 On ch=6 n=f4 v=127
49003 Off ch=6 n=f4 v=127
49004 On ch=8 n=g4 v=127
49068 Off ch=6 n=f5 v=127
49068 On ch=4 n=d#5 v=127
49131 Off ch=4 n=d#5 v=127
49132 On ch=6 n=f5 v=127
49195 Off ch=6 n=f5 v=127
49196 On ch=4 n=d#5 v=127
49259 Off ch=4 n=d#5 v=127
49260 On ch=3 n=d5 v=127
49387 Off ch=3 n=d5 v=127
49388 On ch=1 n=c5 v=127
49515 Off ch=1 n=c5 v=127
49515 Off ch=8 n=g4 v=127
49516 On ch=6 n=f4 v=127
49516 On ch=4 n=d#5 v=127
49579 Off ch=4 n=d#5 v=127
49580 On ch=3 n=d5 v=127
49643 Off ch=3 n=d5 v=127
49644 On ch=4 n=d#5 v=127
49707 Off ch=4 n=d#5 v=127
49708 On ch=3 n=d5 v=127
49771 Off ch=3 n=d5 v=127
49772 On ch=1 n=c5 v=127
49899 Off ch=1 n=c5 v=127
49900 On ch=13 n=b4 v=127
50027 Off ch=13 n=b4 v=127
50027 Off ch=6 n=f4 v=127
50028 On ch=4 n=d#4 v=127
50028 On ch=1 n=c5 v=127
50028 On ch=1 n=c6 v=127
50156 On ch=8 n=g5 v=127
50281 Off ch=1 n=c6 v=127
50282 Off ch=8 n=g5 v=127
50283 On ch=1 n=c6 v=127
50410 Off ch=1 n=c6 v=127
50411 On ch=4 n=d#6 v=127
50538 Off ch=4 n=d#6 v=127
50539 On ch=8 n=g6 v=127
50794 Off ch=8 n=g6 v=127
50794 Off ch=1 n=c5 v=127
50794 Off ch=4 n=d#4 v=127
50795 On ch=3 n=d5 v=127
50795 On ch=6 n=f4 v=127
50795 On ch=6 n=f6 v=127
51050 Off ch=6 n=f4 v=127
51050 Off ch=3 n=d5 v=127
51051 On ch=8 n=g4 v=127
51051 On ch=4 n=d#5 v=127
51115 Off ch=6 n=f6 v=127
51115 On ch=4 n=d#6 v=127
51178 Off ch=4 n=d#6 v=127
51179 On ch=6 n=f6 v=127
51242 Off ch=6 n=f6 v=127
51243 On ch=4 n=d#6 v=127
51306 Off ch=4 n=d#6 v=127
51307 On ch=3 n=d6 v=127
51434 Off ch=3 n=d6 v=127
51435 On ch=1 n=c6 v=127
51562 Off ch=1 n=c6 v=127
51562 Off ch=4 n=d#5 v=127
51562 Off ch=8 n=g4 v=127
51563 On ch=3 n=d5 v=127
51563 On ch=6 n=f4 v=127
51563 On ch=4 n=d#6 v=127
51626 Off ch=4 n=d#6 v=127
51627 On ch=3 n=d6 v=127
51690 Off ch=3 n=d6 v=127
51691 On ch=4 n=d#6 v=127
51754 Off ch=4 n=d#6 v=127
51755 On ch=3 n=d6 v=127
51818 Off ch=3 n=d6 v=127
51819 On ch=1 n=c6 v=127
51946 Off ch=1 n=c6 v=127
51947 On ch=13 n=b5 v=127
52074 Off ch=13 n=b5 v=127
52074 Off ch=6 n=f4 v=127
52074 Off ch=3 n=d5 v=127
52075 On ch=4 n=d#4 v=127
52075 On ch=1 n=c5 v=127
52075 On ch=8 n=g6 v=127
52203 On ch=1 n=c6 v=127
52330 Off ch=1 n=c6 v=127
52331 On ch=4 n=d#6 v=127
52456 Off ch=8 n=g6 v=127
52457 Off ch=4 n=d#6 v=127
52458 On ch=8 n=g6 v=127
52585 Off ch=8 n=g6 v=127
52586 On ch=1 n=c7 v=127
52841 Off ch=1 n=c7 v=127
52841 Off ch=1 n=c5 v=127
52841 Off ch=4 n=d#4 v=127
52842 On ch=6 n=f4 v=127
52842 On ch=3 n=d5 v=127
52842 On ch=6 n=f6 v=127
53097 Off ch=3 n=d5 v=127
53097 Off ch=6 n=f4 v=127
53098 On ch=8 n=g4 v=127
53162 Off ch=6 n=f6 v=127
53162 On ch=4 n=d#6 v=127
53225 Off ch=4 n=d#6 v=127
53226 On ch=6 n=f6 v=127
53289 Off ch=6 n=f6 v=127
53290 On ch=4 n=d#6 v=127
53353 Off ch=4 n=d#6 v=127
53354 On ch=3 n=d6 v=127
53481 Off ch=3 n=d6 v=127
53482 On ch=1 n=c6 v=127
53609 Off ch=1 n=c6 v=127
53610 On ch=8 n=g3 v=127
53610 On ch=4 n=d#6 v=127
53673 Off ch=4 n=d#6 v=127
53674 On ch=3 n=d6 v=127
53737 Off ch=3 n=d6 v=127
53738 On ch=4 n=d#6 v=127
53801 Off ch=4 n=d#6 v=127
53802 On ch=3 n=d6 v=127
53865 Off ch=3 n=d6 v=127
53866 On ch=1 n=c6 v=127
53993 Off ch=1 n=c6 v=127
53994 On ch=13 n=b5 v=127
54121 Off ch=13 n=b5 v=127
54121 Off ch=8 n=g3 v=127
54121 Off ch=8 n=g4 v=127
54122 On ch=1 n=c4 v=127
54122 On ch=1 n=c6 v=127
54250 On ch=1 n=c7 v=127
54377 Off ch=1 n=c7 v=127
54378 On ch=12 n=a#6 v=127
54505 Off ch=12 n=a#6 v=127
54506 On ch=9 n=g#6 v=127
54633 Off ch=9 n=g#6 v=127
54634 On ch=8 n=g6 v=127
54761 Off ch=8 n=g6 v=127
54762 Off ch=1 n=c6 v=127
54762 On ch=6 n=f6 v=127
54889 Off ch=6 n=f6 v=127
54890 On ch=4 n=d#6 v=127
55017 Off ch=4 n=d#6 v=127
55018 On ch=3 n=d6 v=127
55145 Off ch=3 n=d6 v=127
55146 On ch=1 n=c6 v=127
55273 Off ch=1 n=c6 v=127
55274 On ch=1 n=c6 v=127
55403 On ch=12 n=a#5 v=127
55530 Off ch=12 n=a#5 v=127
55534 On ch=9 n=g#5 v=127
55661 Off ch=9 n=g#5 v=127
55665 On ch=8 n=g5 v=127
55792 Off ch=8 n=g5 v=127
55796 On ch=6 n=f5 v=127
55923 Off ch=6 n=f5 v=127
55927 On ch=4 n=d#5 v=127
56042 Off ch=1 n=c6 v=127
56054 Off ch=4 n=d#5 v=127
56058 On ch=3 n=d5 v=127
56185 Off ch=3 n=d5 v=127
56189 On ch=1 n=c5 v=127
56298 Off ch=1 n=c4 v=127
56322 On ch=8 n=g4 v=127
56450 Off ch=8 n=g4 v=127
56458 On ch=11 n=a4 v=127
56586 Off ch=11 n=a4 v=127
56594 On ch=13 n=b4 v=127
56703 Off ch=1 n=c5 v=127
56722 Off ch=13 n=b4 v=127
56729 On ch=4 n=d#6 v=127
56729 On ch=8 n=g6 v=127
56729 On ch=1 n=c6 v=127
56729 On ch=1 n=c5 v=127
56857 Off ch=1 n=c5 v=127
56880 On ch=4 n=d#4 v=127
57024 Off ch=4 n=d#4 v=127
57029 On ch=6 n=f4 v=127
57173 Off ch=6 n=f4 v=127
57180 On ch=8 n=g4 v=127
57253 Off ch=1 n=c6 v=127
57253 Off ch=8 n=g6 v=127
57253 Off ch=4 n=d#6 v=127
57328 Off ch=8 n=g4 v=127
57348 On ch=1 n=c7 v=127
57348 On ch=4 n=d#6 v=127
57348 On ch=1 n=c6 v=127
57348 On ch=8 n=g6 v=127
57348 On ch=1 n=c3 v=127
59271 Off ch=1 n=c3 v=127
59271 Off ch=8 n=g6 v=127
59271 Off ch=1 n=c6 v=127
59271 Off ch=4 n=d#6 v=127
59271 Off ch=1 n=c7 v=127
64512 Meta TrkEnd
TrkEnd
