MFile 0 1 384
MTrk
0 Meta Copyright "(C) John Sankey 1998"
0 PrCh ch=1 p=6
0 Pb ch=1 v=8192
0 PrCh ch=2 p=6
0 Pb ch=2 v=7602
0 PrCh ch=3 p=6
0 Pb ch=3 v=7920
0 PrCh ch=4 p=6
0 Pb ch=4 v=7839
0 PrCh ch=5 p=6
0 Pb ch=5 v=7632
0 PrCh ch=6 p=6
0 Pb ch=6 v=8112
0 PrCh ch=7 p=6
0 Pb ch=7 v=7567
0 PrCh ch=8 p=6
0 Pb ch=8 v=8062
0 PrCh ch=9 p=6
0 Pb ch=9 v=7680
0 PrCh ch=11 p=6
0 Pb ch=11 v=7728
0 PrCh ch=12 p=6
0 Pb ch=12 v=7984
0 PrCh ch=13 p=6
0 Pb ch=13 v=7639
0 Tempo 500000
115 On ch=8 n=g5 v=127
230 On ch=3 n=d5 v=127
343 Off ch=8 n=g5 v=127
345 On ch=12 n=a#5 v=127
362 Off ch=3 n=d5 v=127
460 On ch=11 n=a5 v=127
477 Off ch=12 n=a#5 v=127
575 On ch=8 n=g5 v=127
592 Off ch=11 n=a5 v=127
690 On ch=3 n=d5 v=127
803 Off ch=8 n=g5 v=127
805 On ch=3 n=d6 v=127
822 Off ch=3 n=d5 v=127
920 On ch=1 n=c6 v=127
937 Off ch=3 n=d6 v=127
1035 On ch=12 n=a#5 v=127
1052 Off ch=1 n=c6 v=127
1150 On ch=8 n=g5 v=127
1208 Off ch=12 n=a#5 v=127
1266 On ch=8 n=g6 v=127
1283 Off ch=8 n=g5 v=127
1381 On ch=6 n=f6 v=127
1398 Off ch=8 n=g6 v=127
1496 On ch=4 n=d#6 v=127
1513 Off ch=6 n=f6 v=127
1611 On ch=8 n=g6 v=127
1628 Off ch=4 n=d#6 v=127
1726 On ch=1 n=c6 v=127
1743 Off ch=8 n=g6 v=127
1841 On ch=4 n=d#6 v=127
1858 Off ch=1 n=c6 v=127
1956 On ch=11 n=a5 v=127
1973 Off ch=4 n=d#6 v=127
2071 On ch=1 n=c6 v=127
2088 Off ch=11 n=a5 v=127
2186 On ch=7 n=f#5 v=127
2203 Off ch=1 n=c6 v=127
2301 On ch=11 n=a5 v=127
2318 Off ch=7 n=f#5 v=127
2416 On ch=3 n=d5 v=127
2433 Off ch=11 n=a5 v=127
2531 On ch=1 n=c6 v=127
2589 Off ch=3 n=d5 v=127
2647 On ch=12 n=a#5 v=127
2664 Off ch=1 n=c6 v=127
2762 On ch=11 n=a5 v=127
2779 Off ch=12 n=a#5 v=127
2877 On ch=8 n=g4 v=127
2877 On ch=12 n=a#5 v=127
2894 Off ch=11 n=a5 v=127
2992 On ch=3 n=d4 v=127
3009 Off ch=8 n=g4 v=127
3106 Off ch=12 n=a#5 v=127
3107 On ch=12 n=a#4 v=127
3107 On ch=8 n=g5 v=127
3124 Off ch=3 n=d4 v=127
3222 On ch=11 n=a4 v=127
3239 Off ch=12 n=a#4 v=127
3337 On ch=8 n=g4 v=127
3354 Off ch=11 n=a4 v=127
3452 On ch=3 n=d4 v=127
3469 Off ch=8 n=g4 v=127
3515 Off ch=8 n=g5 v=127
3568 On ch=3 n=d5 v=127
3568 On ch=7 n=f#5 v=127
3585 Off ch=3 n=d4 v=127
3683 On ch=1 n=c5 v=127
3700 Off ch=3 n=d5 v=127
3797 Off ch=7 n=f#5 v=127
3798 On ch=12 n=a#4 v=127
3798 On ch=8 n=g5 v=127
3815 Off ch=1 n=c5 v=127
3913 On ch=8 n=g4 v=127
3930 Off ch=12 n=a#4 v=127
4027 Off ch=8 n=g5 v=127
4028 On ch=8 n=g5 v=127
4028 On ch=12 n=a#5 v=127
4045 Off ch=8 n=g4 v=127
4143 On ch=6 n=f5 v=127
4160 Off ch=8 n=g5 v=127
4258 On ch=4 n=d#5 v=127
4275 Off ch=6 n=f5 v=127
4373 On ch=8 n=g5 v=127
4390 Off ch=4 n=d#5 v=127
4487 Off ch=12 n=a#5 v=127
4488 On ch=1 n=c5 v=127
4488 On ch=1 n=c6 v=127
4505 Off ch=8 n=g5 v=127
4603 On ch=4 n=d#5 v=127
4620 Off ch=1 n=c5 v=127
4718 On ch=11 n=a4 v=127
4735 Off ch=4 n=d#5 v=127
4833 On ch=1 n=c5 v=127
4850 Off ch=11 n=a4 v=127
4947 Off ch=1 n=c6 v=127
4948 On ch=7 n=f#4 v=127
4948 On ch=3 n=d6 v=127
4965 Off ch=1 n=c5 v=127
5063 On ch=11 n=a4 v=127
5080 Off ch=7 n=f#4 v=127
5178 On ch=3 n=d4 v=127
5195 Off ch=11 n=a4 v=127
5293 On ch=1 n=c5 v=127
5310 Off ch=3 n=d4 v=127
5407 Off ch=3 n=d6 v=127
5408 On ch=12 n=a#4 v=127
5408 On ch=7 n=f#5 v=127
5425 Off ch=1 n=c5 v=127
5523 On ch=11 n=a4 v=127
5540 Off ch=12 n=a#4 v=127
5637 Off ch=7 n=f#5 v=127
5638 On ch=12 n=a#4 v=127
5638 On ch=8 n=g5 v=127
5655 Off ch=11 n=a4 v=127
5753 On ch=11 n=a4 v=127
5770 Off ch=12 n=a#4 v=127
5868 On ch=8 n=g4 v=127
5885 Off ch=11 n=a4 v=127
5982 Off ch=8 n=g5 v=127
5983 On ch=8 n=g6 v=127
6097 Off ch=8 n=g4 v=127
6098 On ch=1 n=c5 v=127
6098 On ch=4 n=d#6 v=127
6098 On ch=6 n=f6 v=127
6115 Off ch=8 n=g6 v=127
6213 On ch=3 n=d6 v=127
6230 Off ch=6 n=f6 v=127
6230 Off ch=4 n=d#6 v=127
6327 Off ch=1 n=c5 v=127
6328 On ch=7 n=f#5 v=127
6328 On ch=1 n=c6 v=127
6345 Off ch=3 n=d6 v=127
6443 On ch=11 n=a6 v=127
6460 Off ch=1 n=c6 v=127
6557 Off ch=7 n=f#5 v=127
6558 On ch=8 n=g5 v=127
6558 On ch=1 n=c6 v=127
6558 On ch=12 n=a#5 v=127
6575 Off ch=11 n=a6 v=127
6673 On ch=11 n=a5 v=127
6690 Off ch=12 n=a#5 v=127
6690 Off ch=1 n=c6 v=127
6787 Off ch=8 n=g5 v=127
6788 On ch=12 n=a#4 v=127
6788 On ch=8 n=g5 v=127
6805 Off ch=11 n=a5 v=127
6903 On ch=8 n=g6 v=127
6920 Off ch=8 n=g5 v=127
7017 Off ch=12 n=a#4 v=127
7018 On ch=1 n=c5 v=127
7018 On ch=6 n=f6 v=127
7018 On ch=4 n=d#6 v=127
7035 Off ch=8 n=g6 v=127
7133 On ch=3 n=d6 v=127
7150 Off ch=4 n=d#6 v=127
7150 Off ch=6 n=f6 v=127
7247 Off ch=1 n=c5 v=127
7248 On ch=7 n=f#5 v=127
7248 On ch=1 n=c6 v=127
7265 Off ch=3 n=d6 v=127
7363 On ch=11 n=a6 v=127
7380 Off ch=1 n=c6 v=127
7477 Off ch=7 n=f#5 v=127
7478 On ch=8 n=g5 v=127
7478 On ch=1 n=c6 v=127
7478 On ch=12 n=a#5 v=127
7495 Off ch=11 n=a6 v=127
7593 On ch=11 n=a5 v=127
7610 Off ch=12 n=a#5 v=127
7610 Off ch=1 n=c6 v=127
7707 Off ch=8 n=g5 v=127
7708 On ch=12 n=a#4 v=127
7708 On ch=8 n=g5 v=127
7725 Off ch=11 n=a5 v=127
7823 On ch=8 n=g6 v=127
7840 Off ch=8 n=g5 v=127
7937 Off ch=12 n=a#4 v=127
7938 On ch=1 n=c5 v=127
7938 On ch=4 n=d#6 v=127
7938 On ch=6 n=f6 v=127
7955 Off ch=8 n=g6 v=127
8053 On ch=3 n=d6 v=127
8070 Off ch=6 n=f6 v=127
8070 Off ch=4 n=d#6 v=127
8167 Off ch=1 n=c5 v=127
8168 On ch=7 n=f#5 v=127
8168 On ch=1 n=c6 v=127
8185 Off ch=3 n=d6 v=127
8283 On ch=11 n=a6 v=127
8300 Off ch=1 n=c6 v=127
8397 Off ch=7 n=f#5 v=127
8398 On ch=8 n=g5 v=127
8398 On ch=12 n=a#5 v=127
8398 On ch=1 n=c6 v=127
8415 Off ch=11 n=a6 v=127
8513 On ch=11 n=a5 v=127
8530 Off ch=1 n=c6 v=127
8530 Off ch=12 n=a#5 v=127
8627 Off ch=8 n=g5 v=127
8628 On ch=12 n=a#4 v=127
8628 On ch=8 n=g5 v=127
8645 Off ch=11 n=a5 v=127
8743 On ch=8 n=g6 v=127
8760 Off ch=8 n=g5 v=127
8857 Off ch=12 n=a#4 v=127
8858 On ch=11 n=a4 v=127
8858 On ch=2 n=c#6 v=127
8858 On ch=3 n=d6 v=127
8875 Off ch=8 n=g6 v=127
8973 On ch=13 n=b5 v=127
8990 Off ch=3 n=d6 v=127
8990 Off ch=2 n=c#6 v=127
9087 Off ch=11 n=a4 v=127
9088 On ch=2 n=c#5 v=127
9088 On ch=11 n=a5 v=127
9105 Off ch=13 n=b5 v=127
9203 On ch=8 n=g6 v=127
9220 Off ch=11 n=a5 v=127
9317 Off ch=2 n=c#5 v=127
9318 On ch=3 n=d5 v=127
9318 On ch=6 n=f6 v=127
9335 Off ch=8 n=g6 v=127
9433 On ch=5 n=e6 v=127
9450 Off ch=6 n=f6 v=127
9547 Off ch=3 n=d5 v=127
9548 On ch=8 n=g4 v=127
9548 On ch=8 n=g6 v=127
9565 Off ch=5 n=e6 v=127
9663 On ch=3 n=d6 v=127
9680 Off ch=8 n=g6 v=127
9776 Off ch=3 n=d6 v=127
9777 Off ch=8 n=g4 v=127
9778 On ch=11 n=a4 v=127
9778 On ch=2 n=c#6 v=127
9778 On ch=3 n=d6 v=127
9893 On ch=13 n=b5 v=127
9910 Off ch=3 n=d6 v=127
9910 Off ch=2 n=c#6 v=127
10007 Off ch=11 n=a4 v=127
10008 On ch=2 n=c#5 v=127
10008 On ch=11 n=a5 v=127
10025 Off ch=13 n=b5 v=127
10123 On ch=8 n=g6 v=127
10140 Off ch=11 n=a5 v=127
10237 Off ch=2 n=c#5 v=127
10238 On ch=3 n=d5 v=127
10238 On ch=6 n=f6 v=127
10255 Off ch=8 n=g6 v=127
10353 On ch=5 n=e6 v=127
10370 Off ch=6 n=f6 v=127
10467 Off ch=3 n=d5 v=127
10468 On ch=8 n=g4 v=127
10468 On ch=8 n=g6 v=127
10485 Off ch=5 n=e6 v=127
10583 On ch=3 n=d6 v=127
10600 Off ch=8 n=g6 v=127
10696 Off ch=3 n=d6 v=127
10697 Off ch=8 n=g4 v=127
10698 On ch=11 n=a4 v=127
10698 On ch=2 n=c#6 v=127
10698 On ch=3 n=d6 v=127
10813 On ch=13 n=b5 v=127
10830 Off ch=3 n=d6 v=127
10830 Off ch=2 n=c#6 v=127
10927 Off ch=11 n=a4 v=127
10928 On ch=2 n=c#5 v=127
10928 On ch=11 n=a5 v=127
10945 Off ch=13 n=b5 v=127
11043 On ch=8 n=g6 v=127
11060 Off ch=11 n=a5 v=127
11157 Off ch=2 n=c#5 v=127
11158 On ch=3 n=d5 v=127
11158 On ch=6 n=f6 v=127
11175 Off ch=8 n=g6 v=127
11273 On ch=11 n=a5 v=127
11387 Off ch=6 n=f6 v=127
11387 Off ch=3 n=d5 v=127
11388 On ch=8 n=g4 v=127
11388 On ch=5 n=e6 v=127
11388 On ch=12 n=a#5 v=127
11405 Off ch=11 n=a5 v=127
11503 On ch=3 n=d6 v=127
11520 Off ch=5 n=e6 v=127
11617 Off ch=8 n=g4 v=127
11618 On ch=11 n=a4 v=127
11618 On ch=2 n=c#6 v=127
11635 Off ch=3 n=d6 v=127
11732 Off ch=12 n=a#5 v=127
11733 On ch=11 n=a5 v=127
11847 Off ch=2 n=c#6 v=127
11847 Off ch=11 n=a4 v=127
11848 On ch=12 n=a#4 v=127
11848 On ch=3 n=d6 v=127
11962 Off ch=11 n=a5 v=127
11963 On ch=8 n=g5 v=127
12077 Off ch=12 n=a#4 v=127
12078 On ch=11 n=a3 v=127
12095 Off ch=8 n=g5 v=127
12192 Off ch=3 n=d6 v=127
12193 On ch=5 n=e6 v=127
12307 Off ch=11 n=a3 v=127
12308 On ch=11 n=a4 v=127
12397 Off ch=5 n=e6 v=127
12423 On ch=11 n=a5 v=127
12537 Off ch=11 n=a4 v=127
12538 On ch=8 n=g4 v=127
12538 On ch=1 n=c6 v=127
12538 On ch=12 n=a#5 v=127
12555 Off ch=11 n=a5 v=127
12653 On ch=11 n=a5 v=127
12670 Off ch=12 n=a#5 v=127
12670 Off ch=1 n=c6 v=127
12768 On ch=3 n=d5 v=127
12768 On ch=12 n=a#5 v=127
12785 Off ch=11 n=a5 v=127
12883 On ch=3 n=d6 v=127
12900 Off ch=12 n=a#5 v=127
12997 Off ch=8 n=g4 v=127
12998 On ch=11 n=a4 v=127
12998 On ch=2 n=c#6 v=127
13015 Off ch=3 n=d6 v=127
13113 On ch=3 n=d6 v=127
13130 Off ch=2 n=c#6 v=127
13227 Off ch=3 n=d5 v=127
13228 On ch=5 n=e5 v=127
13228 On ch=5 n=e6 v=127
13245 Off ch=3 n=d6 v=127
13343 On ch=11 n=a5 v=127
13360 Off ch=5 n=e6 v=127
13457 Off ch=11 n=a4 v=127
13458 On ch=8 n=g4 v=127
13458 On ch=12 n=a#5 v=127
13458 On ch=1 n=c6 v=127
13475 Off ch=11 n=a5 v=127
13573 On ch=11 n=a5 v=127
13590 Off ch=1 n=c6 v=127
13590 Off ch=12 n=a#5 v=127
13687 Off ch=5 n=e5 v=127
13688 On ch=3 n=d5 v=127
13688 On ch=12 n=a#5 v=127
13705 Off ch=11 n=a5 v=127
13803 On ch=3 n=d6 v=127
13820 Off ch=12 n=a#5 v=127
13917 Off ch=8 n=g4 v=127
13918 On ch=11 n=a4 v=127
13918 On ch=2 n=c#6 v=127
13935 Off ch=3 n=d6 v=127
14033 On ch=3 n=d6 v=127
14050 Off ch=2 n=c#6 v=127
14147 Off ch=3 n=d5 v=127
14148 On ch=5 n=e5 v=127
14148 On ch=5 n=e6 v=127
14165 Off ch=3 n=d6 v=127
14263 On ch=11 n=a5 v=127
14280 Off ch=5 n=e6 v=127
14377 Off ch=11 n=a4 v=127
14378 On ch=8 n=g4 v=127
14378 On ch=12 n=a#5 v=127
14378 On ch=1 n=c6 v=127
14395 Off ch=11 n=a5 v=127
14493 On ch=11 n=a5 v=127
14510 Off ch=1 n=c6 v=127
14510 Off ch=12 n=a#5 v=127
14607 Off ch=5 n=e5 v=127
14608 On ch=3 n=d5 v=127
14608 On ch=12 n=a#5 v=127
14625 Off ch=11 n=a5 v=127
14723 On ch=3 n=d6 v=127
14740 Off ch=12 n=a#5 v=127
14837 Off ch=3 n=d5 v=127
14837 Off ch=8 n=g4 v=127
14838 On ch=11 n=a4 v=127
14838 On ch=2 n=c#6 v=127
14855 Off ch=3 n=d6 v=127
14953 On ch=3 n=d6 v=127
14970 Off ch=2 n=c#6 v=127
15068 On ch=5 n=e6 v=127
15085 Off ch=3 n=d6 v=127
15183 On ch=11 n=a6 v=127
15200 Off ch=5 n=e6 v=127
15298 On ch=11 n=a5 v=127
15356 Off ch=11 n=a6 v=127
15412 Off ch=11 n=a4 v=127
15413 On ch=11 n=a4 v=127
15527 Off ch=11 n=a5 v=127
15528 On ch=11 n=a5 v=127
15545 Off ch=11 n=a4 v=127
15643 On ch=6 n=f6 v=127
15660 Off ch=11 n=a5 v=127
15758 On ch=11 n=a4 v=127
15758 On ch=3 n=d6 v=127
15758 On ch=2 n=c#6 v=127
15775 Off ch=6 n=f6 v=127
15873 On ch=13 n=b5 v=127
15890 Off ch=2 n=c#6 v=127
15890 Off ch=3 n=d6 v=127
15988 On ch=11 n=a5 v=127
16005 Off ch=13 n=b5 v=127
16103 On ch=11 n=a6 v=127
16120 Off ch=11 n=a5 v=127
16218 On ch=11 n=a5 v=127
16276 Off ch=11 n=a6 v=127
16332 Off ch=11 n=a4 v=127
16333 On ch=11 n=a4 v=127
16447 Off ch=11 n=a5 v=127
16448 On ch=11 n=a5 v=127
16465 Off ch=11 n=a4 v=127
16563 On ch=5 n=e6 v=127
16580 Off ch=11 n=a5 v=127
16678 On ch=11 n=a4 v=127
16678 On ch=2 n=c#6 v=127
16678 On ch=3 n=d6 v=127
16695 Off ch=5 n=e6 v=127
16793 On ch=13 n=b5 v=127
16810 Off ch=3 n=d6 v=127
16810 Off ch=2 n=c#6 v=127
16908 On ch=11 n=a5 v=127
16925 Off ch=13 n=b5 v=127
17023 On ch=11 n=a6 v=127
17040 Off ch=11 n=a5 v=127
17138 On ch=11 n=a5 v=127
17196 Off ch=11 n=a6 v=127
17252 Off ch=11 n=a4 v=127
17253 On ch=11 n=a4 v=127
17367 Off ch=11 n=a5 v=127
17368 On ch=11 n=a5 v=127
17385 Off ch=11 n=a4 v=127
17483 On ch=3 n=d6 v=127
17500 Off ch=11 n=a5 v=127
17597 Off ch=3 n=d6 v=127
17598 On ch=11 n=a4 v=127
17598 On ch=3 n=d6 v=127
17598 On ch=2 n=c#6 v=127
17713 On ch=13 n=b5 v=127
17730 Off ch=2 n=c#6 v=127
17730 Off ch=3 n=d6 v=127
17828 On ch=11 n=a5 v=127
17845 Off ch=13 n=b5 v=127
17943 On ch=11 n=a6 v=127
17960 Off ch=11 n=a5 v=127
18058 On ch=11 n=a5 v=127
18116 Off ch=11 n=a6 v=127
18172 Off ch=11 n=a4 v=127
18173 On ch=11 n=a4 v=127
18287 Off ch=11 n=a5 v=127
18288 On ch=11 n=a5 v=127
18305 Off ch=11 n=a4 v=127
18403 On ch=6 n=f6 v=127
18420 Off ch=11 n=a5 v=127
18518 On ch=11 n=a4 v=127
18518 On ch=2 n=c#6 v=127
18518 On ch=3 n=d6 v=127
18535 Off ch=6 n=f6 v=127
18633 On ch=13 n=b5 v=127
18650 Off ch=3 n=d6 v=127
18650 Off ch=2 n=c#6 v=127
18748 On ch=11 n=a5 v=127
18765 Off ch=13 n=b5 v=127
18863 On ch=11 n=a6 v=127
18880 Off ch=11 n=a5 v=127
18978 On ch=11 n=a5 v=127
19036 Off ch=11 n=a6 v=127
19092 Off ch=11 n=a4 v=127
19093 On ch=11 n=a4 v=127
19207 Off ch=11 n=a5 v=127
19208 On ch=11 n=a5 v=127
19225 Off ch=11 n=a4 v=127
19323 On ch=5 n=e6 v=127
19340 Off ch=11 n=a5 v=127
19438 On ch=11 n=a4 v=127
19438 On ch=3 n=d6 v=127
19438 On ch=2 n=c#6 v=127
19455 Off ch=5 n=e6 v=127
19553 On ch=13 n=b5 v=127
19570 Off ch=2 n=c#6 v=127
19570 Off ch=3 n=d6 v=127
19668 On ch=11 n=a5 v=127
19685 Off ch=13 n=b5 v=127
19783 On ch=11 n=a6 v=127
19800 Off ch=11 n=a5 v=127
19898 On ch=11 n=a5 v=127
19956 Off ch=11 n=a6 v=127
20012 Off ch=11 n=a4 v=127
20013 On ch=11 n=a4 v=127
20127 Off ch=11 n=a5 v=127
20128 On ch=11 n=a5 v=127
20145 Off ch=11 n=a4 v=127
20243 On ch=3 n=d6 v=127
20260 Off ch=11 n=a5 v=127
20357 Off ch=3 n=d6 v=127
20358 On ch=11 n=a4 v=127
20358 On ch=2 n=c#6 v=127
20358 On ch=3 n=d6 v=127
20473 On ch=13 n=b5 v=127
20490 Off ch=3 n=d6 v=127
20490 Off ch=2 n=c#6 v=127
20588 On ch=11 n=a5 v=127
20605 Off ch=13 n=b5 v=127
20703 On ch=11 n=a6 v=127
20720 Off ch=11 n=a5 v=127
20817 Off ch=11 n=a4 v=127
20818 On ch=11 n=a5 v=127
20932 Off ch=11 n=a6 v=127
20933 On ch=8 n=g6 v=127
21047 Off ch=11 n=a5 v=127
21048 On ch=8 n=g5 v=127
21048 On ch=6 n=f6 v=127
21065 Off ch=8 n=g6 v=127
21163 On ch=5 n=e6 v=127
21180 Off ch=6 n=f6 v=127
21276 Off ch=5 n=e6 v=127
21277 Off ch=8 n=g5 v=127
21278 On ch=6 n=f5 v=127
21278 On ch=11 n=a5 v=127
21278 On ch=3 n=d6 v=127
21278 On ch=5 n=e6 v=127
21393 On ch=2 n=c#6 v=127
21410 Off ch=5 n=e6 v=127
21410 Off ch=3 n=d6 v=127
21507 Off ch=6 n=f5 v=127
21508 On ch=6 n=f5 v=127
21508 On ch=3 n=d6 v=127
21525 Off ch=2 n=c#6 v=127
21623 On ch=6 n=f6 v=127
21640 Off ch=3 n=d6 v=127
21737 Off ch=6 n=f5 v=127
21737 Off ch=11 n=a5 v=127
21738 On ch=12 n=a#5 v=127
21738 On ch=8 n=g5 v=127
21738 On ch=3 n=d6 v=127
21755 Off ch=6 n=f6 v=127
21853 On ch=2 n=c#6 v=127
21870 Off ch=3 n=d6 v=127
21967 Off ch=8 n=g5 v=127
21968 On ch=8 n=g5 v=127
21968 On ch=3 n=d6 v=127
21985 Off ch=2 n=c#6 v=127
22083 On ch=6 n=f6 v=127
22100 Off ch=3 n=d6 v=127
22197 Off ch=8 n=g5 v=127
22197 Off ch=12 n=a#5 v=127
22198 On ch=11 n=a5 v=127
22198 On ch=6 n=f5 v=127
22198 On ch=3 n=d6 v=127
22215 Off ch=6 n=f6 v=127
22313 On ch=2 n=c#6 v=127
22330 Off ch=3 n=d6 v=127
22427 Off ch=6 n=f5 v=127
22428 On ch=6 n=f5 v=127
22428 On ch=3 n=d6 v=127
22445 Off ch=2 n=c#6 v=127
22543 On ch=6 n=f6 v=127
22560 Off ch=3 n=d6 v=127
22657 Off ch=6 n=f5 v=127
22657 Off ch=11 n=a5 v=127
22658 On ch=12 n=a#5 v=127
22658 On ch=8 n=g5 v=127
22658 On ch=3 n=d6 v=127
22675 Off ch=6 n=f6 v=127
22773 On ch=2 n=c#6 v=127
22790 Off ch=3 n=d6 v=127
22887 Off ch=8 n=g5 v=127
22888 On ch=8 n=g5 v=127
22888 On ch=3 n=d6 v=127
22905 Off ch=2 n=c#6 v=127
23003 On ch=6 n=f6 v=127
23020 Off ch=3 n=d6 v=127
23117 Off ch=8 n=g5 v=127
23117 Off ch=12 n=a#5 v=127
23118 On ch=6 n=f5 v=127
23118 On ch=11 n=a5 v=127
23118 On ch=3 n=d6 v=127
23135 Off ch=6 n=f6 v=127
23233 On ch=2 n=c#6 v=127
23250 Off ch=3 n=d6 v=127
23347 Off ch=6 n=f5 v=127
23348 On ch=6 n=f5 v=127
23348 On ch=3 n=d6 v=127
23365 Off ch=2 n=c#6 v=127
23463 On ch=6 n=f6 v=127
23480 Off ch=3 n=d6 v=127
23577 Off ch=6 n=f5 v=127
23577 Off ch=11 n=a5 v=127
23578 On ch=12 n=a#5 v=127
23578 On ch=8 n=g5 v=127
23578 On ch=3 n=d6 v=127
23595 Off ch=6 n=f6 v=127
23693 On ch=2 n=c#6 v=127
23710 Off ch=3 n=d6 v=127
23807 Off ch=8 n=g5 v=127
23808 On ch=8 n=g5 v=127
23808 On ch=3 n=d6 v=127
23825 Off ch=2 n=c#6 v=127
23923 On ch=6 n=f6 v=127
23940 Off ch=3 n=d6 v=127
24037 Off ch=12 n=a#5 v=127
24038 On ch=3 n=d6 v=127
24055 Off ch=6 n=f6 v=127
24152 Off ch=8 n=g5 v=127
24153 On ch=3 n=d5 v=127
24267 Off ch=3 n=d6 v=127
24268 On ch=12 n=a#4 v=127
24268 On ch=3 n=d6 v=127
24268 On ch=6 n=f5 v=127
24285 Off ch=3 n=d5 v=127
24383 On ch=3 n=d5 v=127
24400 Off ch=12 n=a#4 v=127
24497 Off ch=6 n=f5 v=127
24497 Off ch=3 n=d6 v=127
24498 On ch=11 n=a4 v=127
24498 On ch=3 n=d6 v=127
24498 On ch=6 n=f5 v=127
24515 Off ch=3 n=d5 v=127
24613 On ch=3 n=d5 v=127
24630 Off ch=11 n=a4 v=127
24727 Off ch=6 n=f5 v=127
24727 Off ch=3 n=d6 v=127
24728 On ch=8 n=g4 v=127
24728 On ch=3 n=d6 v=127
24728 On ch=8 n=g5 v=127
24745 Off ch=3 n=d5 v=127
24843 On ch=3 n=d5 v=127
24860 Off ch=8 n=g4 v=127
24957 Off ch=8 n=g5 v=127
24957 Off ch=3 n=d6 v=127
24958 On ch=6 n=f4 v=127
24958 On ch=11 n=a5 v=127
24958 On ch=3 n=d6 v=127
24975 Off ch=3 n=d5 v=127
25073 On ch=3 n=d5 v=127
25090 Off ch=6 n=f4 v=127
25187 Off ch=3 n=d6 v=127
25187 Off ch=11 n=a5 v=127
25188 On ch=12 n=a#4 v=127
25188 On ch=3 n=d6 v=127
25188 On ch=6 n=f5 v=127
25205 Off ch=3 n=d5 v=127
25303 On ch=3 n=d5 v=127
25320 Off ch=12 n=a#4 v=127
25417 Off ch=6 n=f5 v=127
25417 Off ch=3 n=d6 v=127
25418 On ch=11 n=a4 v=127
25418 On ch=6 n=f5 v=127
25418 On ch=3 n=d6 v=127
25435 Off ch=3 n=d5 v=127
25533 On ch=3 n=d5 v=127
25550 Off ch=11 n=a4 v=127
25647 Off ch=3 n=d6 v=127
25647 Off ch=6 n=f5 v=127
25648 On ch=8 n=g4 v=127
25648 On ch=3 n=d6 v=127
25648 On ch=8 n=g5 v=127
25665 Off ch=3 n=d5 v=127
25763 On ch=3 n=d5 v=127
25780 Off ch=8 n=g4 v=127
25877 Off ch=8 n=g5 v=127
25877 Off ch=3 n=d6 v=127
25878 On ch=6 n=f4 v=127
25878 On ch=11 n=a5 v=127
25878 On ch=3 n=d6 v=127
25895 Off ch=3 n=d5 v=127
25993 On ch=3 n=d5 v=127
26010 Off ch=6 n=f4 v=127
26107 Off ch=3 n=d6 v=127
26107 Off ch=11 n=a5 v=127
26108 On ch=12 n=a#4 v=127
26108 On ch=3 n=d6 v=127
26108 On ch=6 n=f5 v=127
26125 Off ch=3 n=d5 v=127
26223 On ch=3 n=d5 v=127
26240 Off ch=12 n=a#4 v=127
26337 Off ch=6 n=f5 v=127
26337 Off ch=3 n=d6 v=127
26338 On ch=11 n=a4 v=127
26338 On ch=6 n=f5 v=127
26338 On ch=3 n=d6 v=127
26355 Off ch=3 n=d5 v=127
26453 On ch=3 n=d5 v=127
26470 Off ch=11 n=a4 v=127
26567 Off ch=3 n=d6 v=127
26567 Off ch=6 n=f5 v=127
26568 On ch=8 n=g4 v=127
26568 On ch=8 n=g5 v=127
26568 On ch=3 n=d6 v=127
26585 Off ch=3 n=d5 v=127
26683 On ch=3 n=d5 v=127
26700 Off ch=8 n=g4 v=127
26797 Off ch=3 n=d6 v=127
26797 Off ch=8 n=g5 v=127
26798 On ch=6 n=f4 v=127
26798 On ch=3 n=d6 v=127
26798 On ch=11 n=a5 v=127
26815 Off ch=3 n=d5 v=127
26913 On ch=3 n=d5 v=127
26930 Off ch=6 n=f4 v=127
27027 Off ch=11 n=a5 v=127
27027 Off ch=3 n=d6 v=127
27028 On ch=12 n=a#4 v=127
27028 On ch=6 n=f6 v=127
27028 On ch=6 n=f5 v=127
27045 Off ch=3 n=d5 v=127
27143 On ch=3 n=d5 v=127
27160 Off ch=12 n=a#4 v=127
27257 Off ch=6 n=f5 v=127
27257 Off ch=6 n=f6 v=127
27258 On ch=11 n=a4 v=127
27258 On ch=6 n=f5 v=127
27258 On ch=6 n=f6 v=127
27275 Off ch=3 n=d5 v=127
27373 On ch=3 n=d5 v=127
27390 Off ch=11 n=a4 v=127
27487 Off ch=6 n=f6 v=127
27487 Off ch=6 n=f5 v=127
27488 On ch=8 n=g4 v=127
27488 On ch=8 n=g5 v=127
27488 On ch=6 n=f6 v=127
27505 Off ch=3 n=d5 v=127
27603 On ch=3 n=d5 v=127
27620 Off ch=8 n=g4 v=127
27717 Off ch=6 n=f6 v=127
27717 Off ch=8 n=g5 v=127
27718 On ch=6 n=f4 v=127
27718 On ch=11 n=a5 v=127
27718 On ch=6 n=f6 v=127
27735 Off ch=3 n=d5 v=127
27833 On ch=3 n=d5 v=127
27850 Off ch=6 n=f4 v=127
27947 Off ch=6 n=f6 v=127
27947 Off ch=11 n=a5 v=127
27948 On ch=12 n=a#4 v=127
27948 On ch=6 n=f5 v=127
27948 On ch=6 n=f6 v=127
27965 Off ch=3 n=d5 v=127
28063 On ch=3 n=d5 v=127
28080 Off ch=12 n=a#4 v=127
28177 Off ch=6 n=f6 v=127
28177 Off ch=6 n=f5 v=127
28178 On ch=11 n=a4 v=127
28178 On ch=6 n=f5 v=127
28178 On ch=6 n=f6 v=127
28195 Off ch=3 n=d5 v=127
28293 On ch=3 n=d5 v=127
28310 Off ch=11 n=a4 v=127
28407 Off ch=6 n=f6 v=127
28407 Off ch=6 n=f5 v=127
28408 On ch=8 n=g4 v=127
28408 On ch=6 n=f6 v=127
28408 On ch=8 n=g5 v=127
28425 Off ch=3 n=d5 v=127
28523 On ch=3 n=d5 v=127
28540 Off ch=8 n=g4 v=127
28637 Off ch=8 n=g5 v=127
28637 Off ch=6 n=f6 v=127
28638 On ch=6 n=f4 v=127
28638 On ch=6 n=f6 v=127
28638 On ch=11 n=a5 v=127
28655 Off ch=3 n=d5 v=127
28753 On ch=3 n=d5 v=127
28770 Off ch=6 n=f4 v=127
28867 Off ch=11 n=a5 v=127
28867 Off ch=6 n=f6 v=127
28868 On ch=12 n=a#4 v=127
28868 On ch=6 n=f5 v=127
28868 On ch=6 n=f6 v=127
28885 Off ch=3 n=d5 v=127
28983 On ch=3 n=d5 v=127
29000 Off ch=12 n=a#4 v=127
29097 Off ch=6 n=f6 v=127
29097 Off ch=6 n=f5 v=127
29098 On ch=11 n=a4 v=127
29098 On ch=6 n=f6 v=127
29098 On ch=6 n=f5 v=127
29115 Off ch=3 n=d5 v=127
29213 On ch=3 n=d5 v=127
29230 Off ch=11 n=a4 v=127
29327 Off ch=6 n=f5 v=127
29327 Off ch=6 n=f6 v=127
29328 On ch=8 n=g4 v=127
29328 On ch=6 n=f6 v=127
29328 On ch=8 n=g5 v=127
29345 Off ch=3 n=d5 v=127
29443 On ch=3 n=d5 v=127
29460 Off ch=8 n=g4 v=127
29557 Off ch=8 n=g5 v=127
29557 Off ch=6 n=f6 v=127
29558 On ch=6 n=f4 v=127
29558 On ch=6 n=f6 v=127
29558 On ch=11 n=a5 v=127
29575 Off ch=3 n=d5 v=127
29673 On ch=3 n=d5 v=127
29690 Off ch=6 n=f4 v=127
29787 Off ch=11 n=a5 v=127
29787 Off ch=6 n=f6 v=127
29788 On ch=6 n=f4 v=127
29788 On ch=11 n=a5 v=127
29788 On ch=11 n=a6 v=127
29805 Off ch=3 n=d5 v=127
29903 On ch=3 n=d5 v=127
29920 Off ch=6 n=f4 v=127
30017 Off ch=11 n=a6 v=127
30017 Off ch=11 n=a5 v=127
30018 On ch=5 n=e4 v=127
30018 On ch=11 n=a6 v=127
30018 On ch=11 n=a5 v=127
30035 Off ch=3 n=d5 v=127
30133 On ch=2 n=c#5 v=127
30150 Off ch=5 n=e4 v=127
30247 Off ch=11 n=a5 v=127
30247 Off ch=11 n=a6 v=127
30248 On ch=3 n=d4 v=127
30248 On ch=13 n=b5 v=127
30248 On ch=11 n=a6 v=127
30265 Off ch=2 n=c#5 v=127
30363 On ch=3 n=d5 v=127
30380 Off ch=3 n=d4 v=127
30477 Off ch=11 n=a6 v=127
30477 Off ch=13 n=b5 v=127
30478 On ch=11 n=a4 v=127
30478 On ch=11 n=a6 v=127
30478 On ch=2 n=c#6 v=127
30495 Off ch=3 n=d5 v=127
30593 On ch=5 n=e5 v=127
30610 Off ch=11 n=a4 v=127
30707 Off ch=2 n=c#6 v=127
30707 Off ch=11 n=a6 v=127
30708 On ch=6 n=f4 v=127
30708 On ch=11 n=a6 v=127
30708 On ch=11 n=a5 v=127
30725 Off ch=5 n=e5 v=127
30823 On ch=3 n=d5 v=127
30840 Off ch=6 n=f4 v=127
30937 Off ch=11 n=a5 v=127
30937 Off ch=11 n=a6 v=127
30938 On ch=5 n=e4 v=127
30938 On ch=11 n=a5 v=127
30938 On ch=11 n=a6 v=127
30955 Off ch=3 n=d5 v=127
31053 On ch=2 n=c#5 v=127
31070 Off ch=5 n=e4 v=127
31167 Off ch=11 n=a6 v=127
31167 Off ch=11 n=a5 v=127
31168 On ch=3 n=d4 v=127
31168 On ch=11 n=a6 v=127
31168 On ch=13 n=b5 v=127
31185 Off ch=2 n=c#5 v=127
31283 On ch=3 n=d5 v=127
31300 Off ch=3 n=d4 v=127
31397 Off ch=13 n=b5 v=127
31397 Off ch=11 n=a6 v=127
31398 On ch=11 n=a4 v=127
31398 On ch=11 n=a6 v=127
31398 On ch=2 n=c#6 v=127
31415 Off ch=3 n=d5 v=127
31513 On ch=5 n=e5 v=127
31530 Off ch=11 n=a4 v=127
31627 Off ch=2 n=c#6 v=127
31627 Off ch=11 n=a6 v=127
31628 On ch=6 n=f4 v=127
31628 On ch=11 n=a6 v=127
31628 On ch=11 n=a5 v=127
31645 Off ch=5 n=e5 v=127
31743 On ch=3 n=d5 v=127
31760 Off ch=6 n=f4 v=127
31857 Off ch=11 n=a5 v=127
31857 Off ch=11 n=a6 v=127
31858 On ch=5 n=e4 v=127
31858 On ch=11 n=a6 v=127
31858 On ch=11 n=a5 v=127
31875 Off ch=3 n=d5 v=127
31973 On ch=2 n=c#5 v=127
31990 Off ch=5 n=e4 v=127
32087 Off ch=11 n=a5 v=127
32087 Off ch=11 n=a6 v=127
32088 On ch=3 n=d4 v=127
32088 On ch=11 n=a6 v=127
32088 On ch=13 n=b5 v=127
32105 Off ch=2 n=c#5 v=127
32203 On ch=3 n=d5 v=127
32220 Off ch=3 n=d4 v=127
32317 Off ch=13 n=b5 v=127
32317 Off ch=11 n=a6 v=127
32318 On ch=11 n=a4 v=127
32318 On ch=11 n=a6 v=127
32318 On ch=2 n=c#6 v=127
32335 Off ch=3 n=d5 v=127
32433 On ch=8 n=g6 v=127
32450 Off ch=11 n=a6 v=127
32547 Off ch=2 n=c#6 v=127
32547 Off ch=11 n=a4 v=127
32548 On ch=8 n=g4 v=127
32548 On ch=3 n=d6 v=127
32548 On ch=6 n=f6 v=127
32565 Off ch=8 n=g6 v=127
32663 On ch=5 n=e6 v=127
32680 Off ch=6 n=f6 v=127
32777 Off ch=3 n=d6 v=127
32777 Off ch=8 n=g4 v=127
32778 On ch=11 n=a4 v=127
32778 On ch=11 n=a6 v=127
32778 On ch=6 n=f6 v=127
32795 Off ch=5 n=e6 v=127
32893 On ch=3 n=d6 v=127
32910 Off ch=6 n=f6 v=127
33007 Off ch=11 n=a6 v=127
33008 On ch=11 n=a3 v=127
33008 On ch=8 n=g6 v=127
33008 On ch=5 n=e6 v=127
33025 Off ch=3 n=d6 v=127
33123 On ch=2 n=c#6 v=127
33140 Off ch=5 n=e6 v=127
33234 Off ch=11 n=a4 v=127
33236 Off ch=11 n=a3 v=127
33237 Off ch=8 n=g6 v=127
33238 On ch=3 n=d6 v=127
33255 Off ch=2 n=c#6 v=127
33353 On ch=3 n=d5 v=127
33467 Off ch=3 n=d6 v=127
33468 On ch=6 n=f5 v=127
33468 On ch=6 n=f6 v=127
33485 Off ch=3 n=d5 v=127
33583 On ch=11 n=a5 v=127
33600 Off ch=6 n=f5 v=127
33698 On ch=8 n=g3 v=127
33715 Off ch=11 n=a5 v=127
33812 Off ch=6 n=f6 v=127
33813 On ch=12 n=a#5 v=127
33928 On ch=5 n=e6 v=127
33945 Off ch=12 n=a#5 v=127
34043 On ch=3 n=d6 v=127
34060 Off ch=5 n=e6 v=127
34157 Off ch=8 n=g3 v=127
34158 On ch=11 n=a4 v=127
34158 On ch=2 n=c#6 v=127
34175 Off ch=3 n=d6 v=127
34273 On ch=11 n=a5 v=127
34386 Off ch=2 n=c#6 v=127
34387 Off ch=11 n=a4 v=127
34388 On ch=12 n=a#4 v=127
34388 On ch=8 n=g5 v=127
34405 Off ch=11 n=a5 v=127
34503 On ch=3 n=d6 v=127
34520 Off ch=8 n=g5 v=127
34617 Off ch=12 n=a#4 v=127
34618 On ch=11 n=a4 v=127
34618 On ch=2 n=c#6 v=127
34635 Off ch=3 n=d6 v=127
34733 On ch=11 n=a5 v=127
34846 Off ch=2 n=c#6 v=127
34847 Off ch=11 n=a4 v=127
34848 On ch=8 n=g4 v=127
34848 On ch=12 n=a#5 v=127
34865 Off ch=11 n=a5 v=127
34963 On ch=3 n=d6 v=127
34980 Off ch=12 n=a#5 v=127
35076 Off ch=8 n=g4 v=127
35078 On ch=5 n=e6 v=127
35078 On ch=2 n=c#6 v=127
35095 Off ch=3 n=d6 v=127
35193 On ch=3 n=d5 v=127
35307 Off ch=2 n=c#6 v=127
35307 Off ch=5 n=e6 v=127
35308 On ch=6 n=f5 v=127
35308 On ch=6 n=f6 v=127
35308 On ch=3 n=d6 v=127
35325 Off ch=3 n=d5 v=127
35423 On ch=11 n=a5 v=127
35440 Off ch=6 n=f5 v=127
35538 On ch=8 n=g3 v=127
35555 Off ch=11 n=a5 v=127
35652 Off ch=3 n=d6 v=127
35652 Off ch=6 n=f6 v=127
35653 On ch=12 n=a#5 v=127
35768 On ch=5 n=e6 v=127
35785 Off ch=12 n=a#5 v=127
35883 On ch=3 n=d6 v=127
35900 Off ch=5 n=e6 v=127
35997 Off ch=8 n=g3 v=127
35998 On ch=11 n=a4 v=127
35998 On ch=2 n=c#6 v=127
36015 Off ch=3 n=d6 v=127
36113 On ch=11 n=a5 v=127
36226 Off ch=2 n=c#6 v=127
36227 Off ch=11 n=a4 v=127
36228 On ch=12 n=a#4 v=127
36228 On ch=8 n=g5 v=127
36245 Off ch=11 n=a5 v=127
36343 On ch=3 n=d6 v=127
36360 Off ch=8 n=g5 v=127
36457 Off ch=12 n=a#4 v=127
36458 On ch=11 n=a4 v=127
36458 On ch=2 n=c#6 v=127
36475 Off ch=3 n=d6 v=127
36573 On ch=11 n=a5 v=127
36686 Off ch=2 n=c#6 v=127
36687 Off ch=11 n=a4 v=127
36688 On ch=8 n=g4 v=127
36688 On ch=12 n=a#5 v=127
36705 Off ch=11 n=a5 v=127
36803 On ch=3 n=d6 v=127
36820 Off ch=12 n=a#5 v=127
36916 Off ch=8 n=g4 v=127
36918 On ch=5 n=e6 v=127
36918 On ch=2 n=c#6 v=127
36935 Off ch=3 n=d6 v=127
37033 On ch=3 n=d5 v=127
37147 Off ch=2 n=c#6 v=127
37147 Off ch=5 n=e6 v=127
37148 On ch=6 n=f5 v=127
37148 On ch=6 n=f6 v=127
37148 On ch=3 n=d6 v=127
37165 Off ch=3 n=d5 v=127
37263 On ch=11 n=a5 v=127
37280 Off ch=6 n=f5 v=127
37378 On ch=8 n=g3 v=127
37395 Off ch=11 n=a5 v=127
37492 Off ch=3 n=d6 v=127
37492 Off ch=6 n=f6 v=127
37493 On ch=12 n=a#5 v=127
37608 On ch=5 n=e6 v=127
37625 Off ch=12 n=a#5 v=127
37723 On ch=3 n=d6 v=127
37740 Off ch=5 n=e6 v=127
37837 Off ch=8 n=g3 v=127
37838 On ch=11 n=a4 v=127
37838 On ch=2 n=c#6 v=127
37855 Off ch=3 n=d6 v=127
37953 On ch=11 n=a5 v=127
38066 Off ch=2 n=c#6 v=127
38067 Off ch=11 n=a4 v=127
38068 On ch=12 n=a#4 v=127
38068 On ch=8 n=g5 v=127
38085 Off ch=11 n=a5 v=127
38183 On ch=3 n=d6 v=127
38200 Off ch=8 n=g5 v=127
38297 Off ch=12 n=a#4 v=127
38298 On ch=11 n=a4 v=127
38298 On ch=2 n=c#6 v=127
38315 Off ch=3 n=d6 v=127
38413 On ch=11 n=a5 v=127
38526 Off ch=2 n=c#6 v=127
38527 Off ch=11 n=a4 v=127
38528 On ch=8 n=g4 v=127
38528 On ch=12 n=a#5 v=127
38545 Off ch=11 n=a5 v=127
38643 On ch=3 n=d6 v=127
38660 Off ch=12 n=a#5 v=127
38756 Off ch=8 n=g4 v=127
38758 On ch=5 n=e6 v=127
38758 On ch=2 n=c#6 v=127
38775 Off ch=3 n=d6 v=127
38873 On ch=2 n=c#5 v=127
38987 Off ch=2 n=c#6 v=127
38987 Off ch=5 n=e6 v=127
38988 On ch=5 n=e5 v=127
38988 On ch=8 n=g6 v=127
39005 Off ch=2 n=c#5 v=127
39103 On ch=8 n=g5 v=127
39120 Off ch=5 n=e5 v=127
39218 On ch=11 n=a3 v=127
39235 Off ch=8 n=g5 v=127
39332 Off ch=8 n=g6 v=127
39333 On ch=8 n=g6 v=127
39333 On ch=5 n=e6 v=127
39448 On ch=6 n=f6 v=127
39448 On ch=3 n=d6 v=127
39465 Off ch=5 n=e6 v=127
39465 Off ch=8 n=g6 v=127
39563 On ch=5 n=e6 v=127
39580 Off ch=3 n=d6 v=127
39580 Off ch=6 n=f6 v=127
39677 Off ch=11 n=a3 v=127
39678 On ch=3 n=d4 v=127
39678 On ch=6 n=f6 v=127
39678 On ch=11 n=a6 v=127
39695 Off ch=5 n=e6 v=127
39793 On ch=3 n=d6 v=127
39810 Off ch=6 n=f6 v=127
39907 Off ch=11 n=a6 v=127
39907 Off ch=3 n=d4 v=127
39908 On ch=8 n=g4 v=127
39908 On ch=12 n=a#6 v=127
39908 On ch=8 n=g6 v=127
39925 Off ch=3 n=d6 v=127
40023 On ch=5 n=e6 v=127
40040 Off ch=8 n=g6 v=127
40137 Off ch=12 n=a#6 v=127
40137 Off ch=8 n=g4 v=127
40138 On ch=11 n=a4 v=127
40138 On ch=11 n=a6 v=127
40138 On ch=6 n=f6 v=127
40155 Off ch=5 n=e6 v=127
40253 On ch=3 n=d6 v=127
40270 Off ch=6 n=f6 v=127
40367 Off ch=11 n=a6 v=127
40368 On ch=11 n=a3 v=127
40368 On ch=8 n=g6 v=127
40368 On ch=5 n=e6 v=127
40385 Off ch=3 n=d6 v=127
40483 On ch=2 n=c#6 v=127
40500 Off ch=5 n=e6 v=127
40594 Off ch=11 n=a4 v=127
40598 Off ch=8 n=g6 v=127
40598 Off ch=11 n=a3 v=127
40599 On ch=3 n=d4 v=127
40599 On ch=3 n=d6 v=127
40599 On ch=6 n=f6 v=127
40616 Off ch=2 n=c#6 v=127
40714 On ch=11 n=a5 v=127
40731 Off ch=3 n=d6 v=127
40828 Off ch=3 n=d4 v=127
40829 On ch=8 n=g4 v=127
40829 On ch=12 n=a#5 v=127
40829 On ch=8 n=g5 v=127
40846 Off ch=11 n=a5 v=127
40943 Off ch=6 n=f6 v=127
40944 On ch=5 n=e6 v=127
40961 Off ch=12 n=a#5 v=127
41058 Off ch=8 n=g5 v=127
41058 Off ch=8 n=g4 v=127
41059 On ch=11 n=a4 v=127
41059 On ch=6 n=f5 v=127
41059 On ch=11 n=a5 v=127
41076 Off ch=5 n=e6 v=127
41174 On ch=3 n=d6 v=127
41191 Off ch=11 n=a5 v=127
41288 Off ch=6 n=f5 v=127
41289 On ch=11 n=a3 v=127
41289 On ch=8 n=g5 v=127
41289 On ch=5 n=e5 v=127
41306 Off ch=3 n=d6 v=127
41404 On ch=2 n=c#6 v=127
41421 Off ch=8 n=g5 v=127
41515 Off ch=11 n=a4 v=127
41519 Off ch=5 n=e5 v=127
41519 Off ch=11 n=a3 v=127
41520 On ch=3 n=d4 v=127
41520 On ch=3 n=d6 v=127
41520 On ch=6 n=f5 v=127
41537 Off ch=2 n=c#6 v=127
41635 On ch=11 n=a5 v=127
41652 Off ch=3 n=d6 v=127
41749 Off ch=6 n=f5 v=127
41749 Off ch=3 n=d4 v=127
41750 On ch=8 n=g4 v=127
41750 On ch=8 n=g5 v=127
41750 On ch=12 n=a#5 v=127
41767 Off ch=11 n=a5 v=127
41865 On ch=5 n=e5 v=127
41882 Off ch=8 n=g5 v=127
41979 Off ch=12 n=a#5 v=127
41979 Off ch=8 n=g4 v=127
41980 On ch=11 n=a4 v=127
41980 On ch=6 n=f5 v=127
41980 On ch=11 n=a5 v=127
41997 Off ch=5 n=e5 v=127
42095 On ch=3 n=d5 v=127
42112 Off ch=6 n=f5 v=127
42209 Off ch=11 n=a5 v=127
42210 On ch=11 n=a3 v=127
42210 On ch=8 n=g5 v=127
42210 On ch=5 n=e5 v=127
42227 Off ch=3 n=d5 v=127
42325 On ch=2 n=c#5 v=127
42342 Off ch=5 n=e5 v=127
42436 Off ch=11 n=a4 v=127
42440 Off ch=11 n=a3 v=127
42441 On ch=3 n=d4 v=127
42441 On ch=3 n=d5 v=127
42458 Off ch=2 n=c#5 v=127
42555 Off ch=8 n=g5 v=127
42556 On ch=11 n=a5 v=127
42671 On ch=7 n=f#5 v=127
42688 Off ch=11 n=a5 v=127
42786 On ch=8 n=g5 v=127
42803 Off ch=7 n=f#5 v=127
42901 On ch=11 n=a5 v=127
42918 Off ch=8 n=g5 v=127
43015 Off ch=3 n=d5 v=127
43015 Off ch=3 n=d4 v=127
43016 On ch=1 n=c5 v=127
43131 On ch=12 n=a#4 v=127
43148 Off ch=1 n=c5 v=127
43246 On ch=11 n=a4 v=127
43263 Off ch=12 n=a#4 v=127
43361 On ch=12 n=a#4 v=127
43378 Off ch=11 n=a4 v=127
43475 Off ch=11 n=a5 v=127
43476 On ch=8 n=g5 v=127
43590 Off ch=12 n=a#4 v=127
43591 On ch=11 n=a4 v=127
43705 Off ch=8 n=g5 v=127
43706 On ch=7 n=f#5 v=127
43820 Off ch=11 n=a4 v=127
43821 On ch=12 n=a#4 v=127
43935 Off ch=7 n=f#5 v=127
43936 On ch=8 n=g5 v=127
44050 Off ch=12 n=a#4 v=127
44051 On ch=2 n=c#5 v=127
44165 Off ch=8 n=g5 v=127
44166 On ch=5 n=e5 v=127
44270 Off ch=5 n=e5 v=127
44278 Off ch=2 n=c#5 v=127
44280 On ch=3 n=d5 v=127
44395 On ch=11 n=a4 v=127
44412 Off ch=3 n=d5 v=127
44510 On ch=7 n=f#5 v=127
44527 Off ch=11 n=a4 v=127
44625 On ch=5 n=e5 v=127
44642 Off ch=7 n=f#5 v=127
44740 On ch=3 n=d5 v=127
44757 Off ch=5 n=e5 v=127
44855 On ch=11 n=a4 v=127
44872 Off ch=3 n=d5 v=127
44970 On ch=11 n=a5 v=127
44987 Off ch=11 n=a4 v=127
45085 On ch=8 n=g5 v=127
45102 Off ch=11 n=a5 v=127
45200 On ch=7 n=f#5 v=127
45217 Off ch=8 n=g5 v=127
45315 On ch=3 n=d5 v=127
45332 Off ch=7 n=f#5 v=127
45430 On ch=1 n=c6 v=127
45447 Off ch=3 n=d5 v=127
45545 On ch=12 n=a#5 v=127
45562 Off ch=1 n=c6 v=127
45660 On ch=11 n=a5 v=127
45677 Off ch=12 n=a#5 v=127
45775 On ch=7 n=f#5 v=127
45792 Off ch=11 n=a5 v=127
45890 On ch=4 n=d#6 v=127
45907 Off ch=7 n=f#5 v=127
46005 On ch=3 n=d6 v=127
46022 Off ch=4 n=d#6 v=127
46120 On ch=7 n=f#4 v=127
46120 On ch=1 n=c6 v=127
46137 Off ch=3 n=d6 v=127
46235 On ch=3 n=d4 v=127
46252 Off ch=7 n=f#4 v=127
46350 On ch=11 n=a4 v=127
46367 Off ch=3 n=d4 v=127
46465 On ch=8 n=g4 v=127
46482 Off ch=11 n=a4 v=127
46580 On ch=7 n=f#4 v=127
46597 Off ch=8 n=g4 v=127
46695 On ch=3 n=d4 v=127
46712 Off ch=7 n=f#4 v=127
46809 Off ch=1 n=c6 v=127
46810 On ch=1 n=c5 v=127
46810 On ch=7 n=f#5 v=127
46827 Off ch=3 n=d4 v=127
46925 On ch=12 n=a#4 v=127
46925 On ch=8 n=g5 v=127
46942 Off ch=7 n=f#5 v=127
46942 Off ch=1 n=c5 v=127
47040 On ch=11 n=a4 v=127
47040 On ch=11 n=a5 v=127
47057 Off ch=8 n=g5 v=127
47057 Off ch=12 n=a#4 v=127
47155 On ch=8 n=g4 v=127
47155 On ch=12 n=a#5 v=127
47172 Off ch=11 n=a5 v=127
47172 Off ch=11 n=a4 v=127
47270 On ch=7 n=f#4 v=127
47270 On ch=1 n=c6 v=127
47287 Off ch=12 n=a#5 v=127
47287 Off ch=8 n=g4 v=127
47385 On ch=4 n=d#4 v=127
47402 Off ch=7 n=f#4 v=127
47500 On ch=3 n=d4 v=127
47517 Off ch=4 n=d#4 v=127
47615 On ch=1 n=c4 v=127
47632 Off ch=3 n=d4 v=127
47729 Off ch=1 n=c6 v=127
47730 On ch=12 n=a#3 v=127
47730 On ch=3 n=d6 v=127
47747 Off ch=1 n=c4 v=127
47845 On ch=11 n=a3 v=127
47845 On ch=1 n=c6 v=127
47862 Off ch=3 n=d6 v=127
47862 Off ch=12 n=a#3 v=127
47960 On ch=8 n=g3 v=127
47960 On ch=12 n=a#5 v=127
47977 Off ch=1 n=c6 v=127
47977 Off ch=11 n=a3 v=127
48075 On ch=11 n=a5 v=127
48092 Off ch=12 n=a#5 v=127
48189 Off ch=8 n=g3 v=127
48190 On ch=8 n=g4 v=127
48190 On ch=8 n=g5 v=127
48207 Off ch=11 n=a5 v=127
48305 On ch=4 n=d#6 v=127
48322 Off ch=8 n=g5 v=127
48419 Off ch=8 n=g4 v=127
48420 On ch=11 n=a4 v=127
48420 On ch=1 n=c6 v=127
48437 Off ch=4 n=d#6 v=127
48535 On ch=12 n=a#5 v=127
48552 Off ch=1 n=c6 v=127
48649 Off ch=11 n=a4 v=127
48650 On ch=6 n=f4 v=127
48650 On ch=11 n=a5 v=127
48667 Off ch=12 n=a#5 v=127
48765 On ch=6 n=f6 v=127
48782 Off ch=11 n=a5 v=127
48879 Off ch=6 n=f4 v=127
48880 On ch=12 n=a#4 v=127
48880 On ch=3 n=d6 v=127
48897 Off ch=6 n=f6 v=127
48995 On ch=1 n=c6 v=127
49012 Off ch=3 n=d6 v=127
49109 Off ch=12 n=a#4 v=127
49110 On ch=4 n=d#4 v=127
49110 On ch=12 n=a#5 v=127
49127 Off ch=1 n=c6 v=127
49225 On ch=8 n=g6 v=127
49242 Off ch=12 n=a#5 v=127
49339 Off ch=4 n=d#4 v=127
49340 On ch=6 n=f4 v=127
49340 On ch=1 n=c6 v=127
49357 Off ch=8 n=g6 v=127
49455 On ch=12 n=a#5 v=127
49472 Off ch=1 n=c6 v=127
49569 Off ch=6 n=f4 v=127
49570 On ch=11 n=a4 v=127
49570 On ch=11 n=a5 v=127
49587 Off ch=12 n=a#5 v=127
49685 On ch=6 n=f6 v=127
49702 Off ch=11 n=a5 v=127
49799 Off ch=11 n=a4 v=127
49800 On ch=12 n=a#4 v=127
49800 On ch=3 n=d6 v=127
49817 Off ch=6 n=f6 v=127
49915 On ch=1 n=c6 v=127
49932 Off ch=3 n=d6 v=127
50029 Off ch=12 n=a#4 v=127
50030 On ch=4 n=d#4 v=127
50030 On ch=12 n=a#5 v=127
50047 Off ch=1 n=c6 v=127
50145 On ch=8 n=g6 v=127
50162 Off ch=12 n=a#5 v=127
50259 Off ch=4 n=d#4 v=127
50260 On ch=6 n=f4 v=127
50260 On ch=1 n=c6 v=127
50277 Off ch=8 n=g6 v=127
50375 On ch=12 n=a#5 v=127
50392 Off ch=1 n=c6 v=127
50489 Off ch=6 n=f4 v=127
50490 On ch=11 n=a4 v=127
50490 On ch=11 n=a5 v=127
50507 Off ch=12 n=a#5 v=127
50605 On ch=6 n=f6 v=127
50622 Off ch=11 n=a5 v=127
50719 Off ch=11 n=a4 v=127
50720 On ch=3 n=d6 v=127
50737 Off ch=6 n=f6 v=127
50835 On ch=12 n=a#4 v=127
50949 Off ch=3 n=d6 v=127
50950 On ch=8 n=g4 v=127
50950 On ch=12 n=a#6 v=127
50950 On ch=12 n=a#5 v=127
50967 Off ch=12 n=a#4 v=127
51065 On ch=12 n=a#4 v=127
51082 Off ch=8 n=g4 v=127
51179 Off ch=12 n=a#5 v=127
51179 Off ch=12 n=a#6 v=127
51180 On ch=6 n=f4 v=127
51180 On ch=12 n=a#6 v=127
51180 On ch=12 n=a#5 v=127
51197 Off ch=12 n=a#4 v=127
51295 On ch=12 n=a#4 v=127
51312 Off ch=6 n=f4 v=127
51409 Off ch=12 n=a#5 v=127
51409 Off ch=12 n=a#6 v=127
51410 On ch=4 n=d#4 v=127
51410 On ch=12 n=a#6 v=127
51410 On ch=1 n=c6 v=127
51427 Off ch=12 n=a#4 v=127
51525 On ch=12 n=a#4 v=127
51542 Off ch=4 n=d#4 v=127
51639 Off ch=1 n=c6 v=127
51639 Off ch=12 n=a#6 v=127
51640 On ch=3 n=d4 v=127
51640 On ch=12 n=a#6 v=127
51640 On ch=3 n=d6 v=127
51657 Off ch=12 n=a#4 v=127
51755 On ch=12 n=a#4 v=127
51772 Off ch=3 n=d4 v=127
51869 Off ch=3 n=d6 v=127
51869 Off ch=12 n=a#6 v=127
51870 On ch=8 n=g4 v=127
51870 On ch=12 n=a#5 v=127
51870 On ch=12 n=a#6 v=127
51887 Off ch=12 n=a#4 v=127
51985 On ch=12 n=a#4 v=127
52002 Off ch=8 n=g4 v=127
52099 Off ch=12 n=a#6 v=127
52099 Off ch=12 n=a#5 v=127
52100 On ch=6 n=f4 v=127
52100 On ch=12 n=a#6 v=127
52100 On ch=12 n=a#5 v=127
52117 Off ch=12 n=a#4 v=127
52215 On ch=12 n=a#4 v=127
52232 Off ch=6 n=f4 v=127
52329 Off ch=12 n=a#5 v=127
52329 Off ch=12 n=a#6 v=127
52330 On ch=4 n=d#4 v=127
52330 On ch=12 n=a#6 v=127
52330 On ch=1 n=c6 v=127
52347 Off ch=12 n=a#4 v=127
52445 On ch=12 n=a#4 v=127
52462 Off ch=4 n=d#4 v=127
52559 Off ch=1 n=c6 v=127
52559 Off ch=12 n=a#6 v=127
52560 On ch=3 n=d4 v=127
52560 On ch=12 n=a#6 v=127
52560 On ch=3 n=d6 v=127
52577 Off ch=12 n=a#4 v=127
52675 On ch=12 n=a#4 v=127
52692 Off ch=3 n=d4 v=127
52789 Off ch=3 n=d6 v=127
52789 Off ch=12 n=a#6 v=127
52790 On ch=8 n=g4 v=127
52790 On ch=12 n=a#6 v=127
52790 On ch=12 n=a#5 v=127
52807 Off ch=12 n=a#4 v=127
52905 On ch=12 n=a#4 v=127
52922 Off ch=8 n=g4 v=127
53019 Off ch=12 n=a#5 v=127
53019 Off ch=12 n=a#6 v=127
53020 On ch=6 n=f4 v=127
53020 On ch=12 n=a#6 v=127
53020 On ch=12 n=a#5 v=127
53037 Off ch=12 n=a#4 v=127
53135 On ch=12 n=a#4 v=127
53152 Off ch=6 n=f4 v=127
53249 Off ch=12 n=a#5 v=127
53249 Off ch=12 n=a#6 v=127
53250 On ch=4 n=d#4 v=127
53250 On ch=12 n=a#6 v=127
53250 On ch=1 n=c6 v=127
53267 Off ch=12 n=a#4 v=127
53365 On ch=12 n=a#4 v=127
53382 Off ch=4 n=d#4 v=127
53479 Off ch=1 n=c6 v=127
53479 Off ch=12 n=a#6 v=127
53480 On ch=3 n=d4 v=127
53480 On ch=12 n=a#6 v=127
53480 On ch=3 n=d6 v=127
53497 Off ch=12 n=a#4 v=127
53595 On ch=12 n=a#4 v=127
53612 Off ch=3 n=d4 v=127
53709 Off ch=3 n=d6 v=127
53709 Off ch=12 n=a#6 v=127
53710 On ch=2 n=c#4 v=127
53710 On ch=12 n=a#6 v=127
53710 On ch=6 n=f6 v=127
53727 Off ch=12 n=a#4 v=127
53825 On ch=12 n=a#4 v=127
53842 Off ch=2 n=c#4 v=127
53939 Off ch=6 n=f6 v=127
53939 Off ch=12 n=a#6 v=127
53940 On ch=1 n=c4 v=127
53940 On ch=12 n=a#6 v=127
53940 On ch=5 n=e6 v=127
53957 Off ch=12 n=a#4 v=127
54055 On ch=1 n=c5 v=127
54072 Off ch=1 n=c4 v=127
54169 Off ch=5 n=e6 v=127
54169 Off ch=12 n=a#6 v=127
54170 On ch=3 n=d4 v=127
54170 On ch=12 n=a#6 v=127
54170 On ch=6 n=f6 v=127
54187 Off ch=1 n=c5 v=127
54285 On ch=12 n=a#4 v=127
54302 Off ch=3 n=d4 v=127
54399 Off ch=6 n=f6 v=127
54399 Off ch=12 n=a#6 v=127
54400 On ch=1 n=c4 v=127
54400 On ch=12 n=a#6 v=127
54400 On ch=5 n=e6 v=127
54417 Off ch=12 n=a#4 v=127
54515 On ch=1 n=c5 v=127
54532 Off ch=1 n=c4 v=127
54629 Off ch=5 n=e6 v=127
54629 Off ch=12 n=a#6 v=127
54630 On ch=3 n=d4 v=127
54630 On ch=12 n=a#6 v=127
54630 On ch=6 n=f6 v=127
54647 Off ch=1 n=c5 v=127
54745 On ch=12 n=a#4 v=127
54762 Off ch=3 n=d4 v=127
54859 Off ch=6 n=f6 v=127
54859 Off ch=12 n=a#6 v=127
54860 On ch=1 n=c4 v=127
54860 On ch=12 n=a#6 v=127
54860 On ch=5 n=e6 v=127
54877 Off ch=12 n=a#4 v=127
54975 On ch=1 n=c5 v=127
54992 Off ch=1 n=c4 v=127
55089 Off ch=5 n=e6 v=127
55089 Off ch=12 n=a#6 v=127
55090 On ch=3 n=d4 v=127
55090 On ch=12 n=a#6 v=127
55090 On ch=6 n=f6 v=127
55107 Off ch=1 n=c5 v=127
55205 On ch=12 n=a#4 v=127
55222 Off ch=3 n=d4 v=127
55319 Off ch=6 n=f6 v=127
55319 Off ch=12 n=a#6 v=127
55320 On ch=1 n=c4 v=127
55320 On ch=12 n=a#6 v=127
55320 On ch=5 n=e6 v=127
55337 Off ch=12 n=a#4 v=127
55435 On ch=1 n=c5 v=127
55452 Off ch=1 n=c4 v=127
55549 Off ch=5 n=e6 v=127
55549 Off ch=12 n=a#6 v=127
55550 On ch=1 n=c4 v=127
55550 On ch=12 n=a#6 v=127
55550 On ch=5 n=e6 v=127
55567 Off ch=1 n=c5 v=127
55665 On ch=1 n=c5 v=127
55682 Off ch=1 n=c4 v=127
55779 Off ch=5 n=e6 v=127
55779 Off ch=12 n=a#6 v=127
55780 On ch=2 n=c#4 v=127
55780 On ch=6 n=f6 v=127
55780 On ch=9 n=g#6 v=127
55797 Off ch=1 n=c5 v=127
55895 On ch=1 n=c5 v=127
55912 Off ch=2 n=c#4 v=127
56009 Off ch=9 n=g#6 v=127
56009 Off ch=6 n=f6 v=127
56010 On ch=5 n=e4 v=127
56010 On ch=8 n=g6 v=127
56027 Off ch=1 n=c5 v=127
56125 On ch=1 n=c5 v=127
56142 Off ch=5 n=e4 v=127
56239 Off ch=8 n=g6 v=127
56240 On ch=6 n=f4 v=127
56240 On ch=9 n=g#6 v=127
56257 Off ch=1 n=c5 v=127
56355 On ch=1 n=c5 v=127
56372 Off ch=6 n=f4 v=127
56469 Off ch=9 n=g#6 v=127
56470 On ch=9 n=g#4 v=127
56470 On ch=1 n=c7 v=127
56470 On ch=1 n=c6 v=127
56487 Off ch=1 n=c5 v=127
56585 On ch=1 n=c5 v=127
56602 Off ch=9 n=g#4 v=127
56699 Off ch=1 n=c6 v=127
56699 Off ch=1 n=c7 v=127
56700 On ch=8 n=g4 v=127
56700 On ch=1 n=c7 v=127
56700 On ch=1 n=c6 v=127
56717 Off ch=1 n=c5 v=127
56815 On ch=1 n=c5 v=127
56832 Off ch=8 n=g4 v=127
56929 Off ch=1 n=c6 v=127
56929 Off ch=1 n=c7 v=127
56930 On ch=6 n=f4 v=127
56930 On ch=1 n=c7 v=127
56930 On ch=3 n=d6 v=127
56947 Off ch=1 n=c5 v=127
57045 On ch=1 n=c5 v=127
57062 Off ch=6 n=f4 v=127
57159 Off ch=3 n=d6 v=127
57159 Off ch=1 n=c7 v=127
57160 On ch=4 n=d#4 v=127
57160 On ch=4 n=d#6 v=127
57160 On ch=1 n=c7 v=127
57177 Off ch=1 n=c5 v=127
57275 On ch=1 n=c5 v=127
57292 Off ch=4 n=d#4 v=127
57389 Off ch=1 n=c7 v=127
57389 Off ch=4 n=d#6 v=127
57390 On ch=9 n=g#4 v=127
57390 On ch=1 n=c6 v=127
57390 On ch=1 n=c7 v=127
57407 Off ch=1 n=c5 v=127
57505 On ch=1 n=c5 v=127
57522 Off ch=9 n=g#4 v=127
57619 Off ch=1 n=c7 v=127
57619 Off ch=1 n=c6 v=127
57620 On ch=8 n=g4 v=127
57620 On ch=1 n=c7 v=127
57620 On ch=1 n=c6 v=127
57637 Off ch=1 n=c5 v=127
57735 On ch=1 n=c5 v=127
57752 Off ch=8 n=g4 v=127
57849 Off ch=1 n=c6 v=127
57849 Off ch=1 n=c7 v=127
57850 On ch=6 n=f4 v=127
57850 On ch=1 n=c7 v=127
57850 On ch=3 n=d6 v=127
57867 Off ch=1 n=c5 v=127
57965 On ch=1 n=c5 v=127
57982 Off ch=6 n=f4 v=127
58079 Off ch=3 n=d6 v=127
58079 Off ch=1 n=c7 v=127
58080 On ch=4 n=d#4 v=127
58080 On ch=1 n=c7 v=127
58080 On ch=4 n=d#6 v=127
58097 Off ch=1 n=c5 v=127
58195 On ch=1 n=c5 v=127
58212 Off ch=4 n=d#4 v=127
58309 Off ch=4 n=d#6 v=127
58309 Off ch=1 n=c7 v=127
58310 On ch=9 n=g#4 v=127
58310 On ch=1 n=c7 v=127
58310 On ch=1 n=c6 v=127
58327 Off ch=1 n=c5 v=127
58425 On ch=1 n=c5 v=127
58442 Off ch=9 n=g#4 v=127
58539 Off ch=1 n=c6 v=127
58539 Off ch=1 n=c7 v=127
58540 On ch=8 n=g4 v=127
58540 On ch=1 n=c7 v=127
58540 On ch=1 n=c6 v=127
58557 Off ch=1 n=c5 v=127
58655 On ch=1 n=c5 v=127
58672 Off ch=8 n=g4 v=127
58769 Off ch=1 n=c6 v=127
58769 Off ch=1 n=c7 v=127
58770 On ch=6 n=f4 v=127
58770 On ch=1 n=c7 v=127
58770 On ch=3 n=d6 v=127
58787 Off ch=1 n=c5 v=127
58885 On ch=1 n=c5 v=127
58902 Off ch=6 n=f4 v=127
58999 Off ch=3 n=d6 v=127
58999 Off ch=1 n=c7 v=127
59000 On ch=4 n=d#4 v=127
59000 On ch=1 n=c7 v=127
59000 On ch=4 n=d#6 v=127
59017 Off ch=1 n=c5 v=127
59115 On ch=1 n=c5 v=127
59132 Off ch=4 n=d#4 v=127
59229 Off ch=4 n=d#6 v=127
59229 Off ch=1 n=c7 v=127
59230 On ch=8 n=g4 v=127
59230 On ch=4 n=d#6 v=127
59230 On ch=1 n=c7 v=127
59247 Off ch=1 n=c5 v=127
59345 On ch=1 n=c5 v=127
59362 Off ch=8 n=g4 v=127
59459 Off ch=1 n=c7 v=127
59459 Off ch=4 n=d#6 v=127
59460 On ch=7 n=f#4 v=127
59460 On ch=3 n=d6 v=127
59460 On ch=1 n=c7 v=127
59477 Off ch=1 n=c5 v=127
59575 On ch=1 n=c5 v=127
59592 Off ch=7 n=f#4 v=127
59689 Off ch=1 n=c7 v=127
59689 Off ch=3 n=d6 v=127
59690 On ch=8 n=g4 v=127
59690 On ch=1 n=c7 v=127
59690 On ch=4 n=d#6 v=127
59707 Off ch=1 n=c5 v=127
59805 On ch=1 n=c5 v=127
59822 Off ch=8 n=g4 v=127
59919 Off ch=4 n=d#6 v=127
59919 Off ch=1 n=c7 v=127
59920 On ch=7 n=f#4 v=127
59920 On ch=1 n=c7 v=127
59920 On ch=3 n=d6 v=127
59937 Off ch=1 n=c5 v=127
60035 On ch=1 n=c5 v=127
60052 Off ch=7 n=f#4 v=127
60149 Off ch=3 n=d6 v=127
60149 Off ch=1 n=c7 v=127
60150 On ch=8 n=g4 v=127
60150 On ch=4 n=d#6 v=127
60150 On ch=1 n=c7 v=127
60167 Off ch=1 n=c5 v=127
60265 On ch=1 n=c5 v=127
60282 Off ch=8 n=g4 v=127
60379 Off ch=1 n=c7 v=127
60379 Off ch=4 n=d#6 v=127
60380 On ch=7 n=f#4 v=127
60380 On ch=1 n=c7 v=127
60380 On ch=3 n=d6 v=127
60397 Off ch=1 n=c5 v=127
60495 On ch=1 n=c5 v=127
60512 Off ch=7 n=f#4 v=127
60609 Off ch=3 n=d6 v=127
60609 Off ch=1 n=c7 v=127
60610 On ch=8 n=g4 v=127
60610 On ch=1 n=c7 v=127
60610 On ch=4 n=d#6 v=127
60627 Off ch=1 n=c5 v=127
60725 On ch=1 n=c5 v=127
60742 Off ch=8 n=g4 v=127
60839 Off ch=4 n=d#6 v=127
60839 Off ch=1 n=c7 v=127
60840 On ch=7 n=f#4 v=127
60840 On ch=3 n=d6 v=127
60840 On ch=1 n=c7 v=127
60857 Off ch=1 n=c5 v=127
60955 On ch=3 n=d5 v=127
60972 Off ch=7 n=f#4 v=127
61069 Off ch=1 n=c7 v=127
61069 Off ch=3 n=d6 v=127
61070 On ch=3 n=d4 v=127
61070 On ch=3 n=d6 v=127
61070 On ch=1 n=c7 v=127
61087 Off ch=3 n=d5 v=127
61185 On ch=3 n=d5 v=127
61202 Off ch=3 n=d4 v=127
61299 Off ch=1 n=c7 v=127
61299 Off ch=3 n=d6 v=127
61300 On ch=5 n=e4 v=127
61300 On ch=3 n=d6 v=127
61300 On ch=12 n=a#6 v=127
61317 Off ch=3 n=d5 v=127
61415 On ch=3 n=d5 v=127
61432 Off ch=5 n=e4 v=127
61529 Off ch=12 n=a#6 v=127
61529 Off ch=3 n=d6 v=127
61530 On ch=7 n=f#4 v=127
61530 On ch=3 n=d6 v=127
61530 On ch=11 n=a6 v=127
61547 Off ch=3 n=d5 v=127
61645 On ch=3 n=d5 v=127
61662 Off ch=7 n=f#4 v=127
61759 Off ch=11 n=a6 v=127
61759 Off ch=3 n=d6 v=127
61760 On ch=8 n=g4 v=127
61760 On ch=12 n=a#6 v=127
61760 On ch=3 n=d6 v=127
61777 Off ch=3 n=d5 v=127
61875 On ch=11 n=a6 v=127
61892 Off ch=3 n=d6 v=127
61892 Off ch=12 n=a#6 v=127
61989 Off ch=8 n=g4 v=127
61990 On ch=1 n=c5 v=127
61990 On ch=1 n=c7 v=127
62007 Off ch=11 n=a6 v=127
62105 On ch=12 n=a#6 v=127
62122 Off ch=1 n=c7 v=127
62220 On ch=1 n=c4 v=127
62220 On ch=11 n=a6 v=127
62237 Off ch=12 n=a#6 v=127
62335 On ch=8 n=g6 v=127
62352 Off ch=11 n=a6 v=127
62446 Off ch=1 n=c5 v=127
62450 Off ch=1 n=c4 v=127
62451 On ch=1 n=c5 v=127
62451 On ch=7 n=f#6 v=127
62468 Off ch=8 n=g6 v=127
62566 On ch=8 n=g6 v=127
62583 Off ch=7 n=f#6 v=127
62680 Off ch=1 n=c5 v=127
62681 On ch=3 n=d5 v=127
62681 On ch=7 n=f#6 v=127
62698 Off ch=8 n=g6 v=127
62796 On ch=4 n=d#6 v=127
62813 Off ch=7 n=f#6 v=127
62911 On ch=3 n=d4 v=127
62911 On ch=3 n=d6 v=127
62928 Off ch=4 n=d#6 v=127
63026 On ch=4 n=d#6 v=127
63043 Off ch=3 n=d6 v=127
63137 Off ch=3 n=d5 v=127
63141 Off ch=3 n=d4 v=127
63142 On ch=3 n=d5 v=127
63142 On ch=3 n=d6 v=127
63159 Off ch=4 n=d#6 v=127
63257 On ch=1 n=c6 v=127
63274 Off ch=3 n=d6 v=127
63371 Off ch=3 n=d5 v=127
63372 On ch=7 n=f#5 v=127
63372 On ch=12 n=a#5 v=127
63389 Off ch=1 n=c6 v=127
63487 On ch=1 n=c6 v=127
63504 Off ch=12 n=a#5 v=127
63601 Off ch=7 n=f#5 v=127
63602 On ch=8 n=g5 v=127
63602 On ch=12 n=a#5 v=127
63619 Off ch=1 n=c6 v=127
63717 On ch=11 n=a5 v=127
63734 Off ch=12 n=a#5 v=127
63831 Off ch=8 n=g5 v=127
63832 On ch=8 n=g4 v=127
63832 On ch=1 n=c6 v=127
63849 Off ch=11 n=a5 v=127
63947 On ch=12 n=a#5 v=127
63964 Off ch=1 n=c6 v=127
64061 Off ch=8 n=g4 v=127
64062 On ch=1 n=c4 v=127
64062 On ch=11 n=a5 v=127
64079 Off ch=12 n=a#5 v=127
64177 On ch=8 n=g5 v=127
64194 Off ch=11 n=a5 v=127
64291 Off ch=1 n=c4 v=127
64292 On ch=1 n=c5 v=127
64292 On ch=7 n=f#5 v=127
64309 Off ch=8 n=g5 v=127
64407 On ch=8 n=g5 v=127
64424 Off ch=7 n=f#5 v=127
64521 Off ch=1 n=c5 v=127
64522 On ch=3 n=d4 v=127
64522 On ch=7 n=f#5 v=127
64539 Off ch=8 n=g5 v=127
64637 On ch=8 n=g5 v=127
64654 Off ch=7 n=f#5 v=127
64752 On ch=11 n=a5 v=127
64769 Off ch=8 n=g5 v=127
64867 On ch=3 n=d6 v=127
64884 Off ch=11 n=a5 v=127
64982 On ch=3 n=d5 v=127
65040 Off ch=3 n=d6 v=127
65096 Off ch=3 n=d4 v=127
65097 On ch=3 n=d4 v=127
65211 Off ch=3 n=d5 v=127
65212 On ch=3 n=d5 v=127
65229 Off ch=3 n=d4 v=127
65327 On ch=12 n=a#5 v=127
65344 Off ch=3 n=d5 v=127
65442 On ch=3 n=d4 v=127
65442 On ch=8 n=g5 v=127
65442 On ch=7 n=f#5 v=127
65459 Off ch=12 n=a#5 v=127
65557 On ch=5 n=e5 v=127
65574 Off ch=7 n=f#5 v=127
65574 Off ch=8 n=g5 v=127
65672 On ch=3 n=d5 v=127
65689 Off ch=5 n=e5 v=127
65787 On ch=3 n=d6 v=127
65804 Off ch=3 n=d5 v=127
65902 On ch=3 n=d5 v=127
65960 Off ch=3 n=d6 v=127
66016 Off ch=3 n=d4 v=127
66017 On ch=3 n=d4 v=127
66131 Off ch=3 n=d5 v=127
66132 On ch=3 n=d5 v=127
66149 Off ch=3 n=d4 v=127
66247 On ch=11 n=a5 v=127
66264 Off ch=3 n=d5 v=127
66362 On ch=3 n=d4 v=127
66362 On ch=8 n=g5 v=127
66362 On ch=7 n=f#5 v=127
66379 Off ch=11 n=a5 v=127
66477 On ch=5 n=e5 v=127
66494 Off ch=7 n=f#5 v=127
66494 Off ch=8 n=g5 v=127
66592 On ch=3 n=d5 v=127
66609 Off ch=5 n=e5 v=127
66707 On ch=3 n=d6 v=127
66724 Off ch=3 n=d5 v=127
66822 On ch=3 n=d5 v=127
66880 Off ch=3 n=d6 v=127
66936 Off ch=3 n=d4 v=127
66937 On ch=3 n=d4 v=127
67051 Off ch=3 n=d5 v=127
67052 On ch=3 n=d5 v=127
67069 Off ch=3 n=d4 v=127
67167 On ch=8 n=g5 v=127
67184 Off ch=3 n=d5 v=127
67281 Off ch=8 n=g5 v=127
67282 On ch=3 n=d4 v=127
67282 On ch=8 n=g5 v=127
67282 On ch=7 n=f#5 v=127
67397 On ch=5 n=e5 v=127
67414 Off ch=7 n=f#5 v=127
67414 Off ch=8 n=g5 v=127
67512 On ch=3 n=d5 v=127
67529 Off ch=5 n=e5 v=127
67627 On ch=3 n=d6 v=127
67644 Off ch=3 n=d5 v=127
67742 On ch=3 n=d5 v=127
67800 Off ch=3 n=d6 v=127
67856 Off ch=3 n=d4 v=127
67857 On ch=3 n=d4 v=127
67971 Off ch=3 n=d5 v=127
67972 On ch=3 n=d5 v=127
67989 Off ch=3 n=d4 v=127
68087 On ch=12 n=a#5 v=127
68104 Off ch=3 n=d5 v=127
68202 On ch=3 n=d4 v=127
68202 On ch=7 n=f#5 v=127
68202 On ch=8 n=g5 v=127
68219 Off ch=12 n=a#5 v=127
68317 On ch=5 n=e5 v=127
68334 Off ch=8 n=g5 v=127
68334 Off ch=7 n=f#5 v=127
68432 On ch=3 n=d5 v=127
68449 Off ch=5 n=e5 v=127
68547 On ch=3 n=d6 v=127
68564 Off ch=3 n=d5 v=127
68662 On ch=3 n=d5 v=127
68720 Off ch=3 n=d6 v=127
68776 Off ch=3 n=d4 v=127
68777 On ch=3 n=d4 v=127
68891 Off ch=3 n=d5 v=127
68892 On ch=3 n=d5 v=127
68909 Off ch=3 n=d4 v=127
69007 On ch=11 n=a5 v=127
69024 Off ch=3 n=d5 v=127
69122 On ch=3 n=d4 v=127
69122 On ch=8 n=g5 v=127
69122 On ch=7 n=f#5 v=127
69139 Off ch=11 n=a5 v=127
69237 On ch=5 n=e5 v=127
69254 Off ch=7 n=f#5 v=127
69254 Off ch=8 n=g5 v=127
69352 On ch=3 n=d5 v=127
69369 Off ch=5 n=e5 v=127
69467 On ch=3 n=d6 v=127
69484 Off ch=3 n=d5 v=127
69582 On ch=3 n=d5 v=127
69640 Off ch=3 n=d6 v=127
69696 Off ch=3 n=d4 v=127
69697 On ch=3 n=d4 v=127
69811 Off ch=3 n=d5 v=127
69812 On ch=3 n=d5 v=127
69829 Off ch=3 n=d4 v=127
69927 On ch=8 n=g5 v=127
69944 Off ch=3 n=d5 v=127
70041 Off ch=8 n=g5 v=127
70042 On ch=3 n=d4 v=127
70042 On ch=8 n=g5 v=127
70042 On ch=7 n=f#5 v=127
70157 On ch=5 n=e5 v=127
70174 Off ch=7 n=f#5 v=127
70174 Off ch=8 n=g5 v=127
70272 On ch=3 n=d5 v=127
70289 Off ch=5 n=e5 v=127
70387 On ch=3 n=d6 v=127
70404 Off ch=3 n=d5 v=127
70501 Off ch=3 n=d4 v=127
70502 On ch=3 n=d5 v=127
70616 Off ch=3 n=d6 v=127
70617 On ch=1 n=c6 v=127
70731 Off ch=3 n=d5 v=127
70732 On ch=1 n=c5 v=127
70732 On ch=12 n=a#5 v=127
70749 Off ch=1 n=c6 v=127
70847 On ch=11 n=a5 v=127
70864 Off ch=12 n=a#5 v=127
70960 Off ch=11 n=a5 v=127
70961 Off ch=1 n=c5 v=127
70962 On ch=3 n=d5 v=127
70962 On ch=12 n=a#4 v=127
70962 On ch=11 n=a5 v=127
70962 On ch=8 n=g5 v=127
71077 On ch=7 n=f#5 v=127
71094 Off ch=8 n=g5 v=127
71094 Off ch=11 n=a5 v=127
71191 Off ch=12 n=a#4 v=127
71192 On ch=12 n=a#4 v=127
71192 On ch=8 n=g5 v=127
71209 Off ch=7 n=f#5 v=127
71307 On ch=12 n=a#5 v=127
71324 Off ch=8 n=g5 v=127
71421 Off ch=12 n=a#4 v=127
71421 Off ch=3 n=d5 v=127
71422 On ch=4 n=d#5 v=127
71422 On ch=1 n=c5 v=127
71422 On ch=8 n=g5 v=127
71439 Off ch=12 n=a#5 v=127
71537 On ch=7 n=f#5 v=127
71554 Off ch=8 n=g5 v=127
71651 Off ch=1 n=c5 v=127
71652 On ch=1 n=c5 v=127
71652 On ch=8 n=g5 v=127
71669 Off ch=7 n=f#5 v=127
71767 On ch=12 n=a#5 v=127
71784 Off ch=8 n=g5 v=127
71881 Off ch=1 n=c5 v=127
71881 Off ch=4 n=d#5 v=127
71882 On ch=3 n=d5 v=127
71882 On ch=12 n=a#4 v=127
71882 On ch=8 n=g5 v=127
71899 Off ch=12 n=a#5 v=127
71997 On ch=7 n=f#5 v=127
72014 Off ch=8 n=g5 v=127
72111 Off ch=12 n=a#4 v=127
72112 On ch=12 n=a#4 v=127
72112 On ch=8 n=g5 v=127
72129 Off ch=7 n=f#5 v=127
72227 On ch=12 n=a#5 v=127
72244 Off ch=8 n=g5 v=127
72341 Off ch=12 n=a#4 v=127
72341 Off ch=3 n=d5 v=127
72342 On ch=4 n=d#5 v=127
72342 On ch=1 n=c5 v=127
72342 On ch=8 n=g5 v=127
72359 Off ch=12 n=a#5 v=127
72457 On ch=7 n=f#5 v=127
72474 Off ch=8 n=g5 v=127
72571 Off ch=1 n=c5 v=127
72572 On ch=1 n=c5 v=127
72572 On ch=8 n=g5 v=127
72589 Off ch=7 n=f#5 v=127
72687 On ch=12 n=a#5 v=127
72704 Off ch=8 n=g5 v=127
72801 Off ch=1 n=c5 v=127
72801 Off ch=4 n=d#5 v=127
72802 On ch=8 n=g5 v=127
72819 Off ch=12 n=a#5 v=127
72917 On ch=8 n=g4 v=127
73030 Off ch=8 n=g5 v=127
73032 On ch=4 n=d#4 v=127
73032 On ch=8 n=g5 v=127
73032 On ch=12 n=a#4 v=127
73049 Off ch=8 n=g4 v=127
73147 On ch=8 n=g4 v=127
73164 Off ch=4 n=d#4 v=127
73260 Off ch=8 n=g5 v=127
73261 Off ch=12 n=a#4 v=127
73262 On ch=3 n=d4 v=127
73262 On ch=8 n=g5 v=127
73262 On ch=12 n=a#4 v=127
73279 Off ch=8 n=g4 v=127
73377 On ch=8 n=g4 v=127
73394 Off ch=3 n=d4 v=127
73490 Off ch=8 n=g5 v=127
73491 Off ch=12 n=a#4 v=127
73492 On ch=1 n=c4 v=127
73492 On ch=8 n=g5 v=127
73492 On ch=1 n=c5 v=127
73509 Off ch=8 n=g4 v=127
73607 On ch=8 n=g4 v=127
73624 Off ch=1 n=c4 v=127
73720 Off ch=8 n=g5 v=127
73721 Off ch=1 n=c5 v=127
73722 On ch=12 n=a#3 v=127
73722 On ch=8 n=g5 v=127
73722 On ch=3 n=d5 v=127
73739 Off ch=8 n=g4 v=127
73837 On ch=8 n=g4 v=127
73854 Off ch=12 n=a#3 v=127
73950 Off ch=8 n=g5 v=127
73951 Off ch=3 n=d5 v=127
73952 On ch=4 n=d#4 v=127
73952 On ch=8 n=g5 v=127
73952 On ch=12 n=a#4 v=127
73969 Off ch=8 n=g4 v=127
74067 On ch=8 n=g4 v=127
74084 Off ch=4 n=d#4 v=127
74180 Off ch=8 n=g5 v=127
74181 Off ch=12 n=a#4 v=127
74182 On ch=3 n=d4 v=127
74182 On ch=12 n=a#4 v=127
74182 On ch=8 n=g5 v=127
74199 Off ch=8 n=g4 v=127
74297 On ch=8 n=g4 v=127
74314 Off ch=3 n=d4 v=127
74410 Off ch=8 n=g5 v=127
74411 Off ch=12 n=a#4 v=127
74412 On ch=1 n=c4 v=127
74412 On ch=8 n=g5 v=127
74412 On ch=1 n=c5 v=127
74429 Off ch=8 n=g4 v=127
74527 On ch=8 n=g4 v=127
74544 Off ch=1 n=c4 v=127
74640 Off ch=8 n=g5 v=127
74641 Off ch=1 n=c5 v=127
74642 On ch=12 n=a#3 v=127
74642 On ch=8 n=g5 v=127
74642 On ch=3 n=d5 v=127
74659 Off ch=8 n=g4 v=127
74757 On ch=8 n=g4 v=127
74774 Off ch=12 n=a#3 v=127
74870 Off ch=8 n=g5 v=127
74871 Off ch=3 n=d5 v=127
74872 On ch=4 n=d#4 v=127
74872 On ch=8 n=g5 v=127
74872 On ch=12 n=a#4 v=127
74889 Off ch=8 n=g4 v=127
74987 On ch=8 n=g4 v=127
75004 Off ch=4 n=d#4 v=127
75100 Off ch=8 n=g5 v=127
75101 Off ch=12 n=a#4 v=127
75102 On ch=3 n=d4 v=127
75102 On ch=12 n=a#4 v=127
75102 On ch=8 n=g5 v=127
75119 Off ch=8 n=g4 v=127
75217 On ch=8 n=g4 v=127
75234 Off ch=3 n=d4 v=127
75330 Off ch=8 n=g5 v=127
75331 Off ch=12 n=a#4 v=127
75332 On ch=1 n=c4 v=127
75332 On ch=1 n=c5 v=127
75332 On ch=8 n=g5 v=127
75349 Off ch=8 n=g4 v=127
75447 On ch=8 n=g4 v=127
75464 Off ch=1 n=c4 v=127
75560 Off ch=8 n=g5 v=127
75561 Off ch=1 n=c5 v=127
75562 On ch=12 n=a#3 v=127
75562 On ch=8 n=g5 v=127
75562 On ch=3 n=d5 v=127
75579 Off ch=8 n=g4 v=127
75677 On ch=8 n=g4 v=127
75694 Off ch=12 n=a#3 v=127
75790 Off ch=8 n=g5 v=127
75791 Off ch=3 n=d5 v=127
75792 On ch=4 n=d#4 v=127
75792 On ch=12 n=a#4 v=127
75792 On ch=8 n=g5 v=127
75809 Off ch=8 n=g4 v=127
75907 On ch=8 n=g4 v=127
75924 Off ch=4 n=d#4 v=127
76020 Off ch=8 n=g5 v=127
76021 Off ch=12 n=a#4 v=127
76022 On ch=3 n=d4 v=127
76022 On ch=8 n=g5 v=127
76022 On ch=12 n=a#4 v=127
76039 Off ch=8 n=g4 v=127
76137 On ch=8 n=g4 v=127
76154 Off ch=3 n=d4 v=127
76250 Off ch=8 n=g5 v=127
76251 Off ch=12 n=a#4 v=127
76252 On ch=1 n=c4 v=127
76252 On ch=8 n=g5 v=127
76252 On ch=1 n=c5 v=127
76269 Off ch=8 n=g4 v=127
76367 On ch=8 n=g4 v=127
76384 Off ch=1 n=c4 v=127
76480 Off ch=8 n=g5 v=127
76481 Off ch=1 n=c5 v=127
76482 On ch=12 n=a#3 v=127
76482 On ch=8 n=g5 v=127
76482 On ch=3 n=d5 v=127
76499 Off ch=8 n=g4 v=127
76597 On ch=8 n=g4 v=127
76614 Off ch=12 n=a#3 v=127
76711 Off ch=3 n=d5 v=127
76711 Off ch=8 n=g5 v=127
76712 On ch=12 n=a#3 v=127
76712 On ch=3 n=d5 v=127
76712 On ch=3 n=d6 v=127
76729 Off ch=8 n=g4 v=127
76827 On ch=8 n=g4 v=127
76844 Off ch=12 n=a#3 v=127
76941 Off ch=3 n=d6 v=127
76941 Off ch=3 n=d5 v=127
76942 On ch=11 n=a3 v=127
76942 On ch=3 n=d5 v=127
76942 On ch=3 n=d6 v=127
76959 Off ch=8 n=g4 v=127
77057 On ch=7 n=f#4 v=127
77074 Off ch=11 n=a3 v=127
77171 Off ch=3 n=d6 v=127
77171 Off ch=3 n=d5 v=127
77172 On ch=8 n=g3 v=127
77172 On ch=5 n=e5 v=127
77172 On ch=3 n=d6 v=127
77189 Off ch=7 n=f#4 v=127
77287 On ch=8 n=g4 v=127
77304 Off ch=8 n=g3 v=127
77401 Off ch=3 n=d6 v=127
77401 Off ch=5 n=e5 v=127
77402 On ch=3 n=d4 v=127
77402 On ch=3 n=d6 v=127
77402 On ch=7 n=f#5 v=127
77419 Off ch=8 n=g4 v=127
77517 On ch=11 n=a4 v=127
77534 Off ch=3 n=d4 v=127
77631 Off ch=7 n=f#5 v=127
77631 Off ch=3 n=d6 v=127
77632 On ch=12 n=a#3 v=127
77632 On ch=3 n=d5 v=127
77632 On ch=3 n=d6 v=127
77649 Off ch=11 n=a4 v=127
77747 On ch=8 n=g4 v=127
77764 Off ch=12 n=a#3 v=127
77861 Off ch=3 n=d6 v=127
77861 Off ch=3 n=d5 v=127
77862 On ch=11 n=a3 v=127
77862 On ch=3 n=d6 v=127
77862 On ch=3 n=d5 v=127
77879 Off ch=8 n=g4 v=127
77977 On ch=7 n=f#4 v=127
77994 Off ch=11 n=a3 v=127
78091 Off ch=3 n=d5 v=127
78091 Off ch=3 n=d6 v=127
78092 On ch=8 n=g3 v=127
78092 On ch=5 n=e5 v=127
78092 On ch=3 n=d6 v=127
78109 Off ch=7 n=f#4 v=127
78207 On ch=8 n=g4 v=127
78224 Off ch=8 n=g3 v=127
78321 Off ch=3 n=d6 v=127
78321 Off ch=5 n=e5 v=127
78322 On ch=3 n=d4 v=127
78322 On ch=7 n=f#5 v=127
78322 On ch=3 n=d6 v=127
78339 Off ch=8 n=g4 v=127
78437 On ch=11 n=a4 v=127
78454 Off ch=3 n=d4 v=127
78551 Off ch=3 n=d6 v=127
78551 Off ch=7 n=f#5 v=127
78552 On ch=12 n=a#3 v=127
78552 On ch=3 n=d5 v=127
78552 On ch=3 n=d6 v=127
78569 Off ch=11 n=a4 v=127
78667 On ch=8 n=g4 v=127
78684 Off ch=12 n=a#3 v=127
78781 Off ch=3 n=d6 v=127
78781 Off ch=3 n=d5 v=127
78782 On ch=11 n=a3 v=127
78782 On ch=3 n=d6 v=127
78782 On ch=3 n=d5 v=127
78799 Off ch=8 n=g4 v=127
78897 On ch=7 n=f#4 v=127
78914 Off ch=11 n=a3 v=127
79011 Off ch=3 n=d5 v=127
79011 Off ch=3 n=d6 v=127
79012 On ch=8 n=g3 v=127
79012 On ch=5 n=e5 v=127
79012 On ch=3 n=d6 v=127
79029 Off ch=7 n=f#4 v=127
79127 On ch=8 n=g4 v=127
79144 Off ch=8 n=g3 v=127
79241 Off ch=3 n=d6 v=127
79241 Off ch=5 n=e5 v=127
79242 On ch=3 n=d4 v=127
79242 On ch=3 n=d6 v=127
79242 On ch=7 n=f#5 v=127
79259 Off ch=8 n=g4 v=127
79357 On ch=1 n=c6 v=127
79374 Off ch=7 n=f#5 v=127
79374 Off ch=3 n=d6 v=127
79471 Off ch=3 n=d4 v=127
79472 On ch=1 n=c4 v=127
79472 On ch=12 n=a#5 v=127
79489 Off ch=1 n=c6 v=127
79587 On ch=11 n=a5 v=127
79604 Off ch=12 n=a#5 v=127
79701 Off ch=1 n=c4 v=127
79702 On ch=3 n=d4 v=127
79702 On ch=3 n=d6 v=127
79702 On ch=12 n=a#5 v=127
79719 Off ch=11 n=a5 v=127
79817 On ch=8 n=g5 v=127
79834 Off ch=12 n=a#5 v=127
79931 Off ch=3 n=d6 v=127
79932 On ch=3 n=d3 v=127
79932 On ch=1 n=c6 v=127
79932 On ch=11 n=a5 v=127
79949 Off ch=8 n=g5 v=127
80047 On ch=7 n=f#5 v=127
80064 Off ch=11 n=a5 v=127
80158 Off ch=3 n=d4 v=127
80160 Off ch=3 n=d3 v=127
80161 Off ch=1 n=c6 v=127
80162 On ch=8 n=g5 v=127
80179 Off ch=7 n=f#5 v=127
80275 Off ch=8 n=g5 v=127
80277 On ch=8 n=g5 v=127
80392 On ch=12 n=a#5 v=127
80392 On ch=12 n=a#6 v=127
80392 On ch=8 n=g6 v=127
80409 Off ch=8 n=g5 v=127
80507 On ch=3 n=d6 v=127
80524 Off ch=12 n=a#5 v=127
80622 On ch=1 n=c3 v=127
80639 Off ch=3 n=d6 v=127
80736 Off ch=8 n=g6 v=127
80736 Off ch=12 n=a#6 v=127
80737 On ch=4 n=d#6 v=127
80852 On ch=11 n=a6 v=127
80869 Off ch=4 n=d#6 v=127
80967 On ch=8 n=g6 v=127
80984 Off ch=11 n=a6 v=127
81081 Off ch=1 n=c3 v=127
81082 On ch=3 n=d5 v=127
81082 On ch=7 n=f#6 v=127
81099 Off ch=8 n=g6 v=127
81197 On ch=3 n=d6 v=127
81310 Off ch=7 n=f#6 v=127
81311 Off ch=3 n=d5 v=127
81312 On ch=4 n=d#5 v=127
81312 On ch=1 n=c6 v=127
81329 Off ch=3 n=d6 v=127
81427 On ch=8 n=g6 v=127
81444 Off ch=1 n=c6 v=127
81541 Off ch=4 n=d#5 v=127
81542 On ch=3 n=d5 v=127
81542 On ch=7 n=f#6 v=127
81559 Off ch=8 n=g6 v=127
81657 On ch=3 n=d6 v=127
81770 Off ch=7 n=f#6 v=127
81771 Off ch=3 n=d5 v=127
81772 On ch=1 n=c5 v=127
81772 On ch=4 n=d#6 v=127
81789 Off ch=3 n=d6 v=127
81887 On ch=8 n=g6 v=127
81904 Off ch=4 n=d#6 v=127
82002 On ch=11 n=a6 v=127
82002 On ch=7 n=f#6 v=127
82019 Off ch=8 n=g6 v=127
82116 Off ch=1 n=c5 v=127
82117 On ch=8 n=g5 v=127
82231 Off ch=7 n=f#6 v=127
82231 Off ch=11 n=a6 v=127
82232 On ch=12 n=a#5 v=127
82232 On ch=12 n=a#6 v=127
82232 On ch=8 n=g6 v=127
82249 Off ch=8 n=g5 v=127
82347 On ch=3 n=d6 v=127
82364 Off ch=12 n=a#5 v=127
82462 On ch=1 n=c3 v=127
82479 Off ch=3 n=d6 v=127
82576 Off ch=8 n=g6 v=127
82576 Off ch=12 n=a#6 v=127
82577 On ch=4 n=d#6 v=127
82692 On ch=11 n=a6 v=127
82709 Off ch=4 n=d#6 v=127
82807 On ch=8 n=g6 v=127
82824 Off ch=11 n=a6 v=127
82921 Off ch=1 n=c3 v=127
82922 On ch=3 n=d5 v=127
82922 On ch=7 n=f#6 v=127
82939 Off ch=8 n=g6 v=127
83037 On ch=3 n=d6 v=127
83150 Off ch=7 n=f#6 v=127
83151 Off ch=3 n=d5 v=127
83152 On ch=4 n=d#5 v=127
83152 On ch=1 n=c6 v=127
83169 Off ch=3 n=d6 v=127
83267 On ch=8 n=g6 v=127
83284 Off ch=1 n=c6 v=127
83381 Off ch=4 n=d#5 v=127
83382 On ch=3 n=d5 v=127
83382 On ch=7 n=f#6 v=127
83399 Off ch=8 n=g6 v=127
83497 On ch=3 n=d6 v=127
83610 Off ch=7 n=f#6 v=127
83611 Off ch=3 n=d5 v=127
83612 On ch=1 n=c5 v=127
83612 On ch=4 n=d#6 v=127
83629 Off ch=3 n=d6 v=127
83727 On ch=8 n=g6 v=127
83744 Off ch=4 n=d#6 v=127
83842 On ch=11 n=a6 v=127
83842 On ch=7 n=f#6 v=127
83859 Off ch=8 n=g6 v=127
83956 Off ch=1 n=c5 v=127
83957 On ch=7 n=f#5 v=127
84071 Off ch=7 n=f#6 v=127
84071 Off ch=11 n=a6 v=127
84072 On ch=11 n=a5 v=127
84072 On ch=1 n=c7 v=127
84072 On ch=11 n=a6 v=127
84089 Off ch=7 n=f#5 v=127
84187 On ch=1 n=c6 v=127
84204 Off ch=11 n=a5 v=127
84302 On ch=3 n=d3 v=127
84319 Off ch=1 n=c6 v=127
84416 Off ch=11 n=a6 v=127
84416 Off ch=1 n=c7 v=127
84417 On ch=1 n=c7 v=127
84417 On ch=11 n=a6 v=127
84532 On ch=8 n=g6 v=127
84532 On ch=12 n=a#6 v=127
84549 Off ch=11 n=a6 v=127
84549 Off ch=1 n=c7 v=127
84647 On ch=7 n=f#6 v=127
84647 On ch=11 n=a6 v=127
84664 Off ch=12 n=a#6 v=127
84664 Off ch=8 n=g6 v=127
84761 Off ch=3 n=d3 v=127
84762 On ch=8 n=g4 v=127
84762 On ch=12 n=a#6 v=127
84762 On ch=8 n=g6 v=127
84779 Off ch=11 n=a6 v=127
84779 Off ch=7 n=f#6 v=127
84877 On ch=3 n=d6 v=127
84894 Off ch=8 n=g6 v=127
84991 Off ch=12 n=a#6 v=127
84991 Off ch=8 n=g4 v=127
84992 On ch=1 n=c5 v=127
84992 On ch=4 n=d#6 v=127
84992 On ch=1 n=c6 v=127
85009 Off ch=3 n=d6 v=127
85107 On ch=11 n=a6 v=127
85124 Off ch=4 n=d#6 v=127
85221 Off ch=1 n=c6 v=127
85221 Off ch=1 n=c5 v=127
85222 On ch=3 n=d5 v=127
85222 On ch=12 n=a#5 v=127
85222 On ch=3 n=d6 v=127
85239 Off ch=11 n=a6 v=127
85337 On ch=8 n=g6 v=127
85354 Off ch=3 n=d6 v=127
85451 Off ch=12 n=a#5 v=127
85452 On ch=3 n=d4 v=127
85452 On ch=1 n=c6 v=127
85452 On ch=11 n=a5 v=127
85469 Off ch=8 n=g6 v=127
85567 On ch=7 n=f#6 v=127
85584 Off ch=1 n=c6 v=127
85678 Off ch=3 n=d5 v=127
85682 Off ch=11 n=a5 v=127
85682 Off ch=3 n=d4 v=127
85683 On ch=8 n=g4 v=127
85683 On ch=8 n=g6 v=127
85683 On ch=12 n=a#5 v=127
85700 Off ch=7 n=f#6 v=127
85798 On ch=3 n=d6 v=127
85815 Off ch=8 n=g6 v=127
85912 Off ch=12 n=a#5 v=127
85912 Off ch=8 n=g4 v=127
85913 On ch=1 n=c5 v=127
85913 On ch=4 n=d#6 v=127
85913 On ch=1 n=c6 v=127
85930 Off ch=3 n=d6 v=127
86028 On ch=11 n=a5 v=127
86045 Off ch=1 n=c6 v=127
86142 Off ch=4 n=d#6 v=127
86142 Off ch=1 n=c5 v=127
86143 On ch=3 n=d5 v=127
86143 On ch=3 n=d6 v=127
86143 On ch=12 n=a#5 v=127
86160 Off ch=11 n=a5 v=127
86258 On ch=8 n=g5 v=127
86275 Off ch=12 n=a#5 v=127
86372 Off ch=3 n=d6 v=127
86373 On ch=3 n=d4 v=127
86373 On ch=1 n=c6 v=127
86373 On ch=11 n=a5 v=127
86390 Off ch=8 n=g5 v=127
86488 On ch=7 n=f#5 v=127
86505 Off ch=11 n=a5 v=127
86599 Off ch=3 n=d5 v=127
86603 Off ch=1 n=c6 v=127
86603 Off ch=3 n=d4 v=127
86604 On ch=8 n=g4 v=127
86604 On ch=12 n=a#5 v=127
86604 On ch=8 n=g5 v=127
86621 Off ch=7 n=f#5 v=127
86719 On ch=3 n=d5 v=127
86736 Off ch=8 n=g5 v=127
86833 Off ch=12 n=a#5 v=127
86833 Off ch=8 n=g4 v=127
86834 On ch=1 n=c4 v=127
86834 On ch=4 n=d#5 v=127
86834 On ch=1 n=c5 v=127
86851 Off ch=3 n=d5 v=127
86949 On ch=11 n=a5 v=127
86966 Off ch=4 n=d#5 v=127
87063 Off ch=1 n=c5 v=127
87063 Off ch=1 n=c4 v=127
87064 On ch=3 n=d4 v=127
87064 On ch=3 n=d5 v=127
87081 Off ch=11 n=a5 v=127
87179 On ch=8 n=g5 v=127
87196 Off ch=3 n=d5 v=127
87294 On ch=3 n=d3 v=127
87294 On ch=1 n=c5 v=127
87311 Off ch=8 n=g5 v=127
87409 On ch=7 n=f#5 v=127
87426 Off ch=1 n=c5 v=127
87520 Off ch=3 n=d4 v=127
87524 Off ch=3 n=d3 v=127
87525 On ch=8 n=g3 v=127
87639 Off ch=7 n=f#5 v=127
87640 On ch=8 n=g5 v=127
87755 On ch=3 n=d5 v=127
87772 Off ch=8 n=g5 v=127
87870 On ch=12 n=a#4 v=127
87887 Off ch=3 n=d5 v=127
87985 On ch=11 n=a4 v=127
88002 Off ch=12 n=a#4 v=127
88022 Off ch=11 n=a4 v=127
88023 On ch=8 n=g4 v=127
88060 Off ch=8 n=g4 v=127
88061 On ch=11 n=a4 v=127
88098 Off ch=11 n=a4 v=127
88099 On ch=8 n=g4 v=127
89642 Off ch=8 n=g4 v=127
89642 Off ch=8 n=g3 v=127
95232 Meta TrkEnd
TrkEnd
