MFile 0 1 384
MTrk
0 Meta Copyright "(C) John Sankey 1998"
0 PrCh ch=1 p=6
0 Pb ch=1 v=8192
0 PrCh ch=2 p=6
0 Pb ch=2 v=7602
0 PrCh ch=3 p=6
0 Pb ch=3 v=7920
0 PrCh ch=4 p=6
0 Pb ch=4 v=7839
0 PrCh ch=5 p=6
0 Pb ch=5 v=7632
0 PrCh ch=6 p=6
0 Pb ch=6 v=8112
0 PrCh ch=7 p=6
0 Pb ch=7 v=7567
0 PrCh ch=8 p=6
0 Pb ch=8 v=8062
0 PrCh ch=9 p=6
0 Pb ch=9 v=7680
0 PrCh ch=11 p=6
0 Pb ch=11 v=7728
0 PrCh ch=12 p=6
0 Pb ch=12 v=7984
0 PrCh ch=13 p=6
0 Pb ch=13 v=7639
0 Tempo 500000
110 On ch=8 n=g6 v=127
329 On ch=3 n=d6 v=127
384 Off ch=8 n=g6 v=127
545 Off ch=3 n=d6 v=127
548 On ch=1 n=c6 v=127
599 Off ch=1 n=c6 v=127
602 On ch=13 n=b5 v=127
653 Off ch=13 n=b5 v=127
656 On ch=1 n=c6 v=127
707 Off ch=1 n=c6 v=127
710 On ch=13 n=b5 v=127
761 Off ch=13 n=b5 v=127
764 On ch=11 n=a5 v=127
870 Off ch=11 n=a5 v=127
873 On ch=8 n=g5 v=127
979 Off ch=8 n=g5 v=127
982 On ch=7 n=f#5 v=127
1088 Off ch=7 n=f#5 v=127
1091 On ch=5 n=e5 v=127
1197 Off ch=5 n=e5 v=127
1200 On ch=3 n=d5 v=127
1306 Off ch=3 n=d5 v=127
1309 On ch=1 n=c5 v=127
1415 Off ch=1 n=c5 v=127
1418 On ch=8 n=g4 v=127
1418 On ch=13 n=b4 v=127
1524 Off ch=13 n=b4 v=127
1527 On ch=1 n=c5 v=127
1633 Off ch=1 n=c5 v=127
1633 Off ch=8 n=g4 v=127
1636 On ch=3 n=d4 v=127
1636 On ch=3 n=d5 v=127
1852 Off ch=3 n=d4 v=127
1855 On ch=1 n=c4 v=127
1906 Off ch=1 n=c4 v=127
1909 On ch=13 n=b3 v=127
1960 Off ch=13 n=b3 v=127
1963 On ch=1 n=c4 v=127
2014 Off ch=1 n=c4 v=127
2017 On ch=13 n=b3 v=127
2068 Off ch=13 n=b3 v=127
2068 Off ch=3 n=d5 v=127
2071 On ch=11 n=a3 v=127
2071 On ch=8 n=g5 v=127
2177 Off ch=11 n=a3 v=127
2180 On ch=8 n=g3 v=127
2286 Off ch=8 n=g3 v=127
2286 Off ch=8 n=g5 v=127
2289 On ch=3 n=d4 v=127
2289 On ch=7 n=f#5 v=127
2395 Off ch=7 n=f#5 v=127
2398 On ch=1 n=c6 v=127
2504 Off ch=1 n=c6 v=127
2507 On ch=11 n=a5 v=127
2613 Off ch=11 n=a5 v=127
2616 On ch=5 n=e6 v=127
2722 Off ch=5 n=e6 v=127
2725 On ch=3 n=d3 v=127
2725 On ch=3 n=d6 v=127
2831 Off ch=3 n=d6 v=127
2834 On ch=8 n=g6 v=127
2940 Off ch=8 n=g6 v=127
2942 Off ch=3 n=d4 v=127
2943 On ch=7 n=f#6 v=127
3049 Off ch=7 n=f#6 v=127
3052 On ch=1 n=c7 v=127
3158 Off ch=1 n=c7 v=127
3158 Off ch=3 n=d3 v=127
3161 On ch=8 n=g3 v=127
3161 On ch=13 n=b6 v=127
3267 Off ch=13 n=b6 v=127
3270 On ch=11 n=a6 v=127
3376 Off ch=11 n=a6 v=127
3379 On ch=8 n=g4 v=127
3379 On ch=8 n=g6 v=127
3485 Off ch=8 n=g6 v=127
3488 Off ch=8 n=g3 v=127
3488 On ch=7 n=f#6 v=127
3594 Off ch=7 n=f#6 v=127
3594 Off ch=8 n=g4 v=127
3597 On ch=1 n=c4 v=127
3597 On ch=8 n=g6 v=127
3648 Off ch=1 n=c4 v=127
3651 On ch=13 n=b3 v=127
3702 Off ch=13 n=b3 v=127
3705 On ch=1 n=c4 v=127
3756 Off ch=1 n=c4 v=127
3759 On ch=13 n=b3 v=127
3810 Off ch=13 n=b3 v=127
3813 On ch=11 n=a3 v=127
3813 On ch=8 n=g5 v=127
3919 Off ch=11 n=a3 v=127
3922 Off ch=8 n=g6 v=127
3922 On ch=8 n=g3 v=127
4028 Off ch=8 n=g3 v=127
4028 Off ch=8 n=g5 v=127
4031 On ch=3 n=d4 v=127
4031 On ch=7 n=f#5 v=127
4137 Off ch=7 n=f#5 v=127
4140 On ch=1 n=c6 v=127
4246 Off ch=1 n=c6 v=127
4249 On ch=11 n=a5 v=127
4355 Off ch=11 n=a5 v=127
4358 On ch=5 n=e6 v=127
4464 Off ch=5 n=e6 v=127
4467 On ch=3 n=d3 v=127
4467 On ch=3 n=d6 v=127
4573 Off ch=3 n=d6 v=127
4576 On ch=8 n=g6 v=127
4682 Off ch=8 n=g6 v=127
4684 Off ch=3 n=d4 v=127
4685 On ch=7 n=f#6 v=127
4791 Off ch=7 n=f#6 v=127
4794 On ch=1 n=c7 v=127
4900 Off ch=1 n=c7 v=127
4900 Off ch=3 n=d3 v=127
4903 On ch=8 n=g3 v=127
4903 On ch=13 n=b6 v=127
5009 Off ch=13 n=b6 v=127
5012 On ch=11 n=a6 v=127
5118 Off ch=11 n=a6 v=127
5121 On ch=8 n=g4 v=127
5121 On ch=8 n=g6 v=127
5227 Off ch=8 n=g6 v=127
5230 Off ch=8 n=g3 v=127
5230 On ch=7 n=f#6 v=127
5336 Off ch=7 n=f#6 v=127
5336 Off ch=8 n=g4 v=127
5339 On ch=1 n=c5 v=127
5339 On ch=8 n=g6 v=127
5390 Off ch=1 n=c5 v=127
5393 On ch=13 n=b4 v=127
5444 Off ch=13 n=b4 v=127
5447 On ch=1 n=c5 v=127
5498 Off ch=1 n=c5 v=127
5501 On ch=13 n=b4 v=127
5552 Off ch=13 n=b4 v=127
5552 Off ch=8 n=g6 v=127
5555 On ch=11 n=a4 v=127
5555 On ch=3 n=d6 v=127
5661 Off ch=11 n=a4 v=127
5664 On ch=8 n=g4 v=127
5770 Off ch=8 n=g4 v=127
5770 Off ch=3 n=d6 v=127
5773 On ch=1 n=c5 v=127
5773 On ch=5 n=e6 v=127
5883 On ch=5 n=e5 v=127
5989 Off ch=5 n=e5 v=127
5992 On ch=5 n=e5 v=127
6098 Off ch=5 n=e5 v=127
6101 On ch=5 n=e5 v=127
6206 Off ch=5 n=e6 v=127
6207 Off ch=5 n=e5 v=127
6207 Off ch=1 n=c5 v=127
6210 On ch=1 n=c6 v=127
6210 On ch=5 n=e5 v=127
6316 Off ch=5 n=e5 v=127
6316 Off ch=1 n=c6 v=127
6319 On ch=1 n=c6 v=127
6319 On ch=5 n=e5 v=127
6425 Off ch=5 n=e5 v=127
6425 Off ch=1 n=c6 v=127
6428 On ch=1 n=c6 v=127
6428 On ch=5 n=e5 v=127
6534 Off ch=5 n=e5 v=127
6534 Off ch=1 n=c6 v=127
6537 On ch=5 n=e6 v=127
6537 On ch=8 n=g5 v=127
6643 Off ch=8 n=g5 v=127
6643 Off ch=5 n=e6 v=127
6646 On ch=1 n=c6 v=127
6646 On ch=5 n=e5 v=127
6862 Off ch=5 n=e5 v=127
6862 Off ch=1 n=c6 v=127
6865 On ch=1 n=c5 v=127
6865 On ch=5 n=e6 v=127
7081 Off ch=5 n=e6 v=127
7081 Off ch=1 n=c5 v=127
7084 On ch=3 n=d5 v=127
7084 On ch=7 n=f#6 v=127
7135 Off ch=7 n=f#6 v=127
7135 Off ch=3 n=d5 v=127
7138 On ch=1 n=c5 v=127
7138 On ch=5 n=e6 v=127
7189 Off ch=5 n=e6 v=127
7189 Off ch=1 n=c5 v=127
7192 On ch=3 n=d5 v=127
7192 On ch=7 n=f#6 v=127
7243 Off ch=7 n=f#6 v=127
7243 Off ch=3 n=d5 v=127
7246 On ch=1 n=c5 v=127
7246 On ch=5 n=e6 v=127
7297 Off ch=5 n=e6 v=127
7297 Off ch=1 n=c5 v=127
7300 On ch=13 n=b4 v=127
7300 On ch=3 n=d6 v=127
7406 Off ch=3 n=d6 v=127
7406 Off ch=13 n=b4 v=127
7409 On ch=11 n=a4 v=127
7409 On ch=1 n=c6 v=127
7515 Off ch=1 n=c6 v=127
7515 Off ch=11 n=a4 v=127
7518 On ch=8 n=g4 v=127
7518 On ch=3 n=d6 v=127
7628 On ch=3 n=d5 v=127
7734 Off ch=3 n=d5 v=127
7737 On ch=3 n=d5 v=127
7843 Off ch=3 n=d5 v=127
7846 On ch=3 n=d5 v=127
7951 Off ch=3 n=d6 v=127
7952 Off ch=3 n=d5 v=127
7952 Off ch=8 n=g4 v=127
7955 On ch=13 n=b5 v=127
7955 On ch=3 n=d5 v=127
8061 Off ch=3 n=d5 v=127
8061 Off ch=13 n=b5 v=127
8064 On ch=13 n=b5 v=127
8064 On ch=3 n=d5 v=127
8170 Off ch=3 n=d5 v=127
8170 Off ch=13 n=b5 v=127
8173 On ch=13 n=b5 v=127
8173 On ch=3 n=d5 v=127
8279 Off ch=3 n=d5 v=127
8279 Off ch=13 n=b5 v=127
8282 On ch=3 n=d6 v=127
8282 On ch=8 n=g5 v=127
8388 Off ch=8 n=g5 v=127
8388 Off ch=3 n=d6 v=127
8391 On ch=13 n=b5 v=127
8391 On ch=3 n=d5 v=127
8607 Off ch=3 n=d5 v=127
8607 Off ch=13 n=b5 v=127
8610 On ch=13 n=b4 v=127
8610 On ch=3 n=d6 v=127
8826 Off ch=3 n=d6 v=127
8826 Off ch=13 n=b4 v=127
8829 On ch=1 n=c5 v=127
8829 On ch=5 n=e6 v=127
8880 Off ch=5 n=e6 v=127
8880 Off ch=1 n=c5 v=127
8883 On ch=13 n=b4 v=127
8883 On ch=3 n=d6 v=127
8934 Off ch=3 n=d6 v=127
8934 Off ch=13 n=b4 v=127
8937 On ch=1 n=c5 v=127
8937 On ch=5 n=e6 v=127
8988 Off ch=5 n=e6 v=127
8988 Off ch=1 n=c5 v=127
8991 On ch=13 n=b4 v=127
8991 On ch=3 n=d6 v=127
9042 Off ch=3 n=d6 v=127
9042 Off ch=13 n=b4 v=127
9045 On ch=11 n=a4 v=127
9045 On ch=1 n=c6 v=127
9151 Off ch=1 n=c6 v=127
9151 Off ch=11 n=a4 v=127
9154 On ch=8 n=g4 v=127
9154 On ch=13 n=b5 v=127
9260 Off ch=13 n=b5 v=127
9260 Off ch=8 n=g4 v=127
9263 On ch=3 n=d4 v=127
9263 On ch=1 n=c6 v=127
9373 On ch=3 n=d5 v=127
9479 Off ch=3 n=d5 v=127
9482 On ch=3 n=d5 v=127
9588 Off ch=3 n=d5 v=127
9591 On ch=3 n=d5 v=127
9696 Off ch=1 n=c6 v=127
9697 Off ch=3 n=d5 v=127
9697 Off ch=3 n=d4 v=127
9700 On ch=11 n=a5 v=127
9700 On ch=3 n=d5 v=127
9806 Off ch=3 n=d5 v=127
9806 Off ch=11 n=a5 v=127
9809 On ch=11 n=a5 v=127
9809 On ch=3 n=d5 v=127
9915 Off ch=3 n=d5 v=127
9915 Off ch=11 n=a5 v=127
9918 On ch=11 n=a5 v=127
9918 On ch=3 n=d5 v=127
10024 Off ch=3 n=d5 v=127
10024 Off ch=11 n=a5 v=127
10027 On ch=1 n=c6 v=127
10027 On ch=7 n=f#5 v=127
10133 Off ch=7 n=f#5 v=127
10133 Off ch=1 n=c6 v=127
10136 On ch=11 n=a5 v=127
10136 On ch=3 n=d5 v=127
10352 Off ch=3 n=d5 v=127
10352 Off ch=11 n=a5 v=127
10355 On ch=11 n=a4 v=127
10355 On ch=3 n=d4 v=127
10355 On ch=1 n=c6 v=127
10571 Off ch=1 n=c6 v=127
10571 Off ch=3 n=d4 v=127
10571 Off ch=11 n=a4 v=127
10574 On ch=13 n=b4 v=127
10574 On ch=3 n=d4 v=127
10574 On ch=3 n=d6 v=127
10625 Off ch=3 n=d6 v=127
10625 Off ch=13 n=b4 v=127
10628 On ch=11 n=a4 v=127
10628 On ch=1 n=c6 v=127
10679 Off ch=1 n=c6 v=127
10679 Off ch=11 n=a4 v=127
10682 On ch=13 n=b4 v=127
10682 On ch=3 n=d6 v=127
10733 Off ch=3 n=d6 v=127
10733 Off ch=13 n=b4 v=127
10736 On ch=11 n=a4 v=127
10736 On ch=1 n=c6 v=127
10787 Off ch=1 n=c6 v=127
10787 Off ch=11 n=a4 v=127
10790 On ch=8 n=g4 v=127
10790 On ch=13 n=b5 v=127
10896 Off ch=13 n=b5 v=127
10896 Off ch=8 n=g4 v=127
10899 On ch=7 n=f#4 v=127
10899 On ch=11 n=a5 v=127
11005 Off ch=11 n=a5 v=127
11005 Off ch=7 n=f#4 v=127
11007 Off ch=3 n=d4 v=127
11008 On ch=8 n=g3 v=127
11008 On ch=13 n=b5 v=127
11114 Off ch=13 n=b5 v=127
11117 On ch=8 n=g4 v=127
11223 Off ch=8 n=g4 v=127
11226 On ch=8 n=g4 v=127
11332 Off ch=8 n=g4 v=127
11335 On ch=8 n=g4 v=127
11441 Off ch=8 n=g4 v=127
11441 Off ch=8 n=g3 v=127
11444 On ch=13 n=b5 v=127
11444 On ch=8 n=g4 v=127
11550 Off ch=8 n=g4 v=127
11550 Off ch=13 n=b5 v=127
11553 On ch=13 n=b5 v=127
11553 On ch=8 n=g4 v=127
11659 Off ch=8 n=g4 v=127
11659 Off ch=13 n=b5 v=127
11662 On ch=13 n=b5 v=127
11662 On ch=8 n=g4 v=127
11768 Off ch=8 n=g4 v=127
11768 Off ch=13 n=b5 v=127
11771 On ch=3 n=d6 v=127
11771 On ch=13 n=b4 v=127
11877 Off ch=13 n=b4 v=127
11877 Off ch=3 n=d6 v=127
11880 On ch=13 n=b5 v=127
11880 On ch=8 n=g4 v=127
12096 Off ch=8 n=g4 v=127
12096 Off ch=13 n=b5 v=127
12099 On ch=8 n=g4 v=127
12099 On ch=13 n=b5 v=127
12315 Off ch=13 n=b5 v=127
12315 Off ch=8 n=g4 v=127
12318 On ch=11 n=a4 v=127
12318 On ch=1 n=c6 v=127
12369 Off ch=1 n=c6 v=127
12369 Off ch=11 n=a4 v=127
12372 On ch=8 n=g4 v=127
12372 On ch=13 n=b5 v=127
12423 Off ch=13 n=b5 v=127
12423 Off ch=8 n=g4 v=127
12426 On ch=11 n=a4 v=127
12426 On ch=1 n=c6 v=127
12477 Off ch=1 n=c6 v=127
12477 Off ch=11 n=a4 v=127
12480 On ch=8 n=g4 v=127
12480 On ch=13 n=b5 v=127
12531 Off ch=13 n=b5 v=127
12531 Off ch=8 n=g4 v=127
12534 On ch=7 n=f#4 v=127
12534 On ch=11 n=a5 v=127
12640 Off ch=11 n=a5 v=127
12640 Off ch=7 n=f#4 v=127
12643 On ch=5 n=e4 v=127
12643 On ch=8 n=g5 v=127
12749 Off ch=8 n=g5 v=127
12749 Off ch=5 n=e4 v=127
12752 On ch=3 n=d3 v=127
12752 On ch=3 n=d6 v=127
12858 Off ch=3 n=d6 v=127
12861 On ch=11 n=a5 v=127
12967 Off ch=11 n=a5 v=127
12970 On ch=3 n=d4 v=127
12970 On ch=7 n=f#5 v=127
13076 Off ch=7 n=f#5 v=127
13079 Off ch=3 n=d3 v=127
13079 On ch=3 n=d5 v=127
13185 Off ch=3 n=d5 v=127
13188 On ch=3 n=d3 v=127
13188 On ch=13 n=b5 v=127
13294 Off ch=13 n=b5 v=127
13297 Off ch=3 n=d4 v=127
13297 On ch=3 n=d5 v=127
13403 Off ch=3 n=d5 v=127
13406 On ch=3 n=d4 v=127
13406 On ch=13 n=b4 v=127
13512 Off ch=13 n=b4 v=127
13515 Off ch=3 n=d3 v=127
13515 On ch=8 n=g4 v=127
13621 Off ch=8 n=g4 v=127
13624 On ch=3 n=d3 v=127
13624 On ch=3 n=d6 v=127
13730 Off ch=3 n=d6 v=127
13733 Off ch=3 n=d4 v=127
13733 On ch=11 n=a5 v=127
13839 Off ch=11 n=a5 v=127
13842 On ch=3 n=d4 v=127
13842 On ch=7 n=f#5 v=127
13948 Off ch=7 n=f#5 v=127
13951 Off ch=3 n=d3 v=127
13951 On ch=3 n=d5 v=127
14057 Off ch=3 n=d5 v=127
14060 On ch=3 n=d3 v=127
14060 On ch=13 n=b5 v=127
14166 Off ch=13 n=b5 v=127
14169 Off ch=3 n=d4 v=127
14169 On ch=3 n=d5 v=127
14275 Off ch=3 n=d5 v=127
14278 On ch=3 n=d4 v=127
14278 On ch=13 n=b4 v=127
14384 Off ch=13 n=b4 v=127
14387 Off ch=3 n=d3 v=127
14387 On ch=8 n=g4 v=127
14493 Off ch=8 n=g4 v=127
14493 Off ch=3 n=d4 v=127
14496 On ch=3 n=d3 v=127
14496 On ch=3 n=d6 v=127
14712 Off ch=3 n=d6 v=127
14715 On ch=3 n=d5 v=127
15044 On ch=1 n=c6 v=127
15149 Off ch=3 n=d5 v=127
15150 Off ch=1 n=c6 v=127
15150 Off ch=3 n=d3 v=127
15153 On ch=7 n=f#5 v=127
15153 On ch=12 n=a#5 v=127
15259 Off ch=12 n=a#5 v=127
15262 On ch=11 n=a5 v=127
15368 Off ch=11 n=a5 v=127
15368 Off ch=7 n=f#5 v=127
15371 On ch=8 n=g5 v=127
15371 On ch=12 n=a#5 v=127
15477 Off ch=12 n=a#5 v=127
15480 On ch=11 n=a5 v=127
15586 Off ch=11 n=a5 v=127
15586 Off ch=8 n=g5 v=127
15589 On ch=8 n=g5 v=127
15589 On ch=3 n=d6 v=127
15695 Off ch=3 n=d6 v=127
15698 On ch=2 n=c#6 v=127
15804 Off ch=2 n=c#6 v=127
15804 Off ch=8 n=g5 v=127
15807 On ch=12 n=a#5 v=127
15807 On ch=8 n=g6 v=127
15913 Off ch=8 n=g6 v=127
15916 On ch=6 n=f6 v=127
16022 Off ch=6 n=f6 v=127
16022 Off ch=12 n=a#5 v=127
16025 On ch=12 n=a#5 v=127
16025 On ch=5 n=e6 v=127
16131 Off ch=5 n=e6 v=127
16134 On ch=3 n=d6 v=127
16240 Off ch=3 n=d6 v=127
16240 Off ch=12 n=a#5 v=127
16243 On ch=11 n=a4 v=127
16243 On ch=11 n=a6 v=127
16353 On ch=2 n=c#6 v=127
16459 Off ch=2 n=c#6 v=127
16460 Off ch=11 n=a6 v=127
16462 On ch=3 n=d6 v=127
16568 Off ch=3 n=d6 v=127
16571 On ch=5 n=e6 v=127
16677 Off ch=5 n=e6 v=127
16680 On ch=11 n=a5 v=127
16786 Off ch=11 n=a5 v=127
16789 On ch=1 n=c6 v=127
16895 Off ch=1 n=c6 v=127
16895 Off ch=11 n=a4 v=127
16898 On ch=7 n=f#5 v=127
16898 On ch=12 n=a#5 v=127
17004 Off ch=12 n=a#5 v=127
17007 On ch=11 n=a5 v=127
17113 Off ch=11 n=a5 v=127
17113 Off ch=7 n=f#5 v=127
17116 On ch=8 n=g5 v=127
17116 On ch=12 n=a#5 v=127
17222 Off ch=12 n=a#5 v=127
17225 On ch=11 n=a5 v=127
17331 Off ch=11 n=a5 v=127
17331 Off ch=8 n=g5 v=127
17334 On ch=8 n=g5 v=127
17334 On ch=3 n=d6 v=127
17440 Off ch=3 n=d6 v=127
17443 On ch=2 n=c#6 v=127
17549 Off ch=2 n=c#6 v=127
17549 Off ch=8 n=g5 v=127
17552 On ch=12 n=a#5 v=127
17552 On ch=8 n=g6 v=127
17658 Off ch=8 n=g6 v=127
17661 On ch=6 n=f6 v=127
17767 Off ch=6 n=f6 v=127
17767 Off ch=12 n=a#5 v=127
17770 On ch=12 n=a#5 v=127
17770 On ch=5 n=e6 v=127
17876 Off ch=5 n=e6 v=127
17879 On ch=3 n=d6 v=127
17985 Off ch=3 n=d6 v=127
17985 Off ch=12 n=a#5 v=127
17988 On ch=11 n=a4 v=127
17988 On ch=11 n=a6 v=127
18098 On ch=2 n=c#6 v=127
18204 Off ch=2 n=c#6 v=127
18205 Off ch=11 n=a6 v=127
18207 On ch=3 n=d6 v=127
18313 Off ch=3 n=d6 v=127
18316 On ch=5 n=e6 v=127
18422 Off ch=5 n=e6 v=127
18425 On ch=11 n=a5 v=127
18641 Off ch=11 n=a5 v=127
18641 Off ch=11 n=a4 v=127
18644 On ch=2 n=c#6 v=127
18644 On ch=11 n=a6 v=127
18750 Off ch=11 n=a6 v=127
18753 On ch=5 n=e6 v=127
18859 Off ch=5 n=e6 v=127
18859 Off ch=2 n=c#6 v=127
18862 On ch=3 n=d6 v=127
18862 On ch=5 n=e6 v=127
18968 Off ch=5 n=e6 v=127
18971 On ch=6 n=f6 v=127
19077 Off ch=6 n=f6 v=127
19077 Off ch=3 n=d6 v=127
19080 On ch=12 n=a#5 v=127
19080 On ch=11 n=a6 v=127
19186 Off ch=11 n=a6 v=127
19189 On ch=3 n=d6 v=127
19295 Off ch=3 n=d6 v=127
19295 Off ch=12 n=a#5 v=127
19298 On ch=8 n=g5 v=127
19298 On ch=3 n=d6 v=127
19404 Off ch=3 n=d6 v=127
19407 On ch=5 n=e6 v=127
19513 Off ch=5 n=e6 v=127
19513 Off ch=8 n=g5 v=127
19516 On ch=11 n=a5 v=127
19516 On ch=11 n=a6 v=127
19622 Off ch=11 n=a6 v=127
19625 On ch=5 n=e6 v=127
19731 Off ch=5 n=e6 v=127
19731 Off ch=11 n=a5 v=127
19734 On ch=3 n=d6 v=127
19734 On ch=5 n=e6 v=127
19840 Off ch=5 n=e6 v=127
19843 On ch=6 n=f6 v=127
19949 Off ch=6 n=f6 v=127
19949 Off ch=3 n=d6 v=127
19952 On ch=12 n=a#5 v=127
19952 On ch=11 n=a6 v=127
20058 Off ch=11 n=a6 v=127
20061 On ch=3 n=d6 v=127
20167 Off ch=3 n=d6 v=127
20167 Off ch=12 n=a#5 v=127
20170 On ch=8 n=g5 v=127
20170 On ch=3 n=d6 v=127
20276 Off ch=3 n=d6 v=127
20279 On ch=5 n=e6 v=127
20385 Off ch=5 n=e6 v=127
20385 Off ch=8 n=g5 v=127
20388 On ch=11 n=a5 v=127
20388 On ch=11 n=a6 v=127
20494 Off ch=11 n=a6 v=127
20497 On ch=5 n=e6 v=127
20603 Off ch=5 n=e6 v=127
20603 Off ch=11 n=a5 v=127
20606 On ch=3 n=d6 v=127
20606 On ch=5 n=e6 v=127
20712 Off ch=5 n=e6 v=127
20715 On ch=6 n=f6 v=127
20821 Off ch=6 n=f6 v=127
20821 Off ch=3 n=d6 v=127
20824 On ch=12 n=a#5 v=127
20824 On ch=11 n=a6 v=127
20930 Off ch=11 n=a6 v=127
20933 On ch=3 n=d6 v=127
21039 Off ch=3 n=d6 v=127
21039 Off ch=12 n=a#5 v=127
21042 On ch=8 n=g5 v=127
21042 On ch=3 n=d6 v=127
21148 Off ch=3 n=d6 v=127
21151 On ch=5 n=e6 v=127
21257 Off ch=5 n=e6 v=127
21257 Off ch=8 n=g5 v=127
21260 On ch=11 n=a5 v=127
21260 On ch=11 n=a6 v=127
21366 Off ch=11 n=a6 v=127
21369 On ch=2 n=c#6 v=127
21475 Off ch=2 n=c#6 v=127
21475 Off ch=11 n=a5 v=127
21478 On ch=6 n=f5 v=127
21478 On ch=2 n=c#6 v=127
21584 Off ch=2 n=c#6 v=127
21587 On ch=3 n=d6 v=127
21693 Off ch=3 n=d6 v=127
21693 Off ch=6 n=f5 v=127
21696 On ch=3 n=d5 v=127
21696 On ch=11 n=a6 v=127
21802 Off ch=11 n=a6 v=127
21805 On ch=11 n=a5 v=127
21911 Off ch=11 n=a5 v=127
21911 Off ch=3 n=d5 v=127
21914 On ch=8 n=g5 v=127
21914 On ch=11 n=a5 v=127
22020 Off ch=11 n=a5 v=127
22023 On ch=12 n=a#5 v=127
22129 Off ch=12 n=a#5 v=127
22129 Off ch=8 n=g5 v=127
22132 On ch=5 n=e5 v=127
22132 On ch=11 n=a6 v=127
22238 Off ch=11 n=a6 v=127
22241 On ch=8 n=g5 v=127
22347 Off ch=8 n=g5 v=127
22347 Off ch=5 n=e5 v=127
22350 On ch=6 n=f5 v=127
22350 On ch=8 n=g5 v=127
22456 Off ch=8 n=g5 v=127
22459 On ch=11 n=a5 v=127
22565 Off ch=11 n=a5 v=127
22565 Off ch=6 n=f5 v=127
22568 On ch=3 n=d5 v=127
22568 On ch=11 n=a6 v=127
22674 Off ch=11 n=a6 v=127
22677 On ch=6 n=f5 v=127
22783 Off ch=6 n=f5 v=127
22783 Off ch=3 n=d5 v=127
22786 On ch=5 n=e5 v=127
22786 On ch=6 n=f5 v=127
22892 Off ch=6 n=f5 v=127
22895 On ch=8 n=g5 v=127
23001 Off ch=8 n=g5 v=127
23001 Off ch=5 n=e5 v=127
23004 On ch=2 n=c#5 v=127
23004 On ch=11 n=a6 v=127
23110 Off ch=11 n=a6 v=127
23113 On ch=5 n=e5 v=127
23219 Off ch=5 n=e5 v=127
23219 Off ch=2 n=c#5 v=127
23222 On ch=3 n=d5 v=127
23222 On ch=5 n=e5 v=127
23328 Off ch=5 n=e5 v=127
23331 On ch=6 n=f5 v=127
23437 Off ch=6 n=f5 v=127
23437 Off ch=3 n=d5 v=127
23440 On ch=1 n=c5 v=127
23440 On ch=6 n=f5 v=127
23546 Off ch=6 n=f5 v=127
23549 On ch=8 n=g5 v=127
23655 Off ch=8 n=g5 v=127
23655 Off ch=1 n=c5 v=127
23658 On ch=12 n=a#4 v=127
23658 On ch=8 n=g5 v=127
23764 Off ch=8 n=g5 v=127
23767 On ch=6 n=f5 v=127
23873 Off ch=6 n=f5 v=127
23876 On ch=12 n=a#3 v=127
23876 On ch=5 n=e5 v=127
23908 Off ch=12 n=a#4 v=127
23982 Off ch=5 n=e5 v=127
23985 On ch=3 n=d5 v=127
24091 Off ch=3 n=d5 v=127
24091 Off ch=12 n=a#3 v=127
24094 On ch=11 n=a3 v=127
24094 On ch=11 n=a5 v=127
24200 Off ch=11 n=a5 v=127
24203 On ch=2 n=c#6 v=127
24309 Off ch=2 n=c#6 v=127
24312 On ch=11 n=a4 v=127
24312 On ch=13 n=b5 v=127
24418 Off ch=13 n=b5 v=127
24421 Off ch=11 n=a3 v=127
24421 On ch=11 n=a5 v=127
24527 Off ch=11 n=a5 v=127
24527 Off ch=11 n=a4 v=127
24530 On ch=12 n=a#4 v=127
24530 On ch=8 n=g6 v=127
24636 Off ch=8 n=g6 v=127
24639 On ch=6 n=f6 v=127
24745 Off ch=6 n=f6 v=127
24748 On ch=12 n=a#3 v=127
24748 On ch=5 n=e6 v=127
24854 Off ch=5 n=e6 v=127
24857 Off ch=12 n=a#4 v=127
24857 On ch=3 n=d6 v=127
24963 Off ch=3 n=d6 v=127
24963 Off ch=12 n=a#3 v=127
24966 On ch=11 n=a3 v=127
24966 On ch=11 n=a6 v=127
25072 Off ch=11 n=a6 v=127
25075 On ch=2 n=c#6 v=127
25181 Off ch=2 n=c#6 v=127
25184 On ch=3 n=d6 v=127
25290 Off ch=3 n=d6 v=127
25293 On ch=5 n=e6 v=127
25399 Off ch=5 n=e6 v=127
25402 On ch=11 n=a5 v=127
25512 On ch=11 n=a6 v=127
25618 Off ch=11 n=a6 v=127
25619 Off ch=11 n=a5 v=127
25621 On ch=8 n=g6 v=127
25727 Off ch=8 n=g6 v=127
25730 On ch=7 n=f#6 v=127
25836 Off ch=7 n=f#6 v=127
25836 Off ch=11 n=a3 v=127
25839 On ch=8 n=g4 v=127
25839 On ch=5 n=e4 v=127
25839 On ch=11 n=a3 v=127
25839 On ch=8 n=g6 v=127
25949 On ch=5 n=e6 v=127
25976 Off ch=8 n=g6 v=127
26055 Off ch=5 n=e6 v=127
26058 On ch=2 n=c#6 v=127
26164 Off ch=2 n=c#6 v=127
26167 On ch=8 n=g5 v=127
26273 Off ch=8 n=g5 v=127
26276 On ch=5 n=e5 v=127
26382 Off ch=5 n=e5 v=127
26385 On ch=8 n=g6 v=127
26491 Off ch=8 n=g6 v=127
26494 On ch=7 n=f#6 v=127
26600 Off ch=7 n=f#6 v=127
26603 On ch=5 n=e6 v=127
26709 Off ch=5 n=e6 v=127
26709 Off ch=11 n=a3 v=127
26709 Off ch=5 n=e4 v=127
26709 Off ch=8 n=g4 v=127
26712 On ch=11 n=a4 v=127
26712 On ch=3 n=d4 v=127
26712 On ch=7 n=f#4 v=127
26712 On ch=11 n=a3 v=127
26712 On ch=7 n=f#6 v=127
26822 On ch=3 n=d6 v=127
26849 Off ch=7 n=f#6 v=127
26928 Off ch=3 n=d6 v=127
26931 On ch=11 n=a5 v=127
27037 Off ch=11 n=a5 v=127
27040 On ch=7 n=f#5 v=127
27146 Off ch=7 n=f#5 v=127
27149 On ch=3 n=d5 v=127
27255 Off ch=3 n=d5 v=127
27258 On ch=7 n=f#6 v=127
27364 Off ch=7 n=f#6 v=127
27367 On ch=5 n=e6 v=127
27473 Off ch=5 n=e6 v=127
27476 On ch=3 n=d6 v=127
27582 Off ch=3 n=d6 v=127
27582 Off ch=11 n=a3 v=127
27582 Off ch=7 n=f#4 v=127
27582 Off ch=3 n=d4 v=127
27582 Off ch=11 n=a4 v=127
27585 On ch=11 n=a4 v=127
27585 On ch=5 n=e4 v=127
27585 On ch=11 n=a3 v=127
27585 On ch=5 n=e6 v=127
27695 On ch=2 n=c#6 v=127
27722 Off ch=5 n=e6 v=127
27801 Off ch=2 n=c#6 v=127
27804 On ch=8 n=g5 v=127
27910 Off ch=8 n=g5 v=127
27913 On ch=5 n=e5 v=127
28019 Off ch=5 n=e5 v=127
28022 On ch=2 n=c#5 v=127
28128 Off ch=2 n=c#5 v=127
28131 On ch=5 n=e6 v=127
28237 Off ch=5 n=e6 v=127
28240 On ch=3 n=d6 v=127
28346 Off ch=3 n=d6 v=127
28349 On ch=2 n=c#6 v=127
28455 Off ch=2 n=c#6 v=127
28455 Off ch=11 n=a3 v=127
28455 Off ch=5 n=e4 v=127
28455 Off ch=11 n=a4 v=127
28458 On ch=3 n=d4 v=127
28458 On ch=5 n=e4 v=127
28458 On ch=13 n=b4 v=127
28458 On ch=11 n=a3 v=127
28458 On ch=3 n=d6 v=127
28568 On ch=13 n=b5 v=127
28595 Off ch=3 n=d6 v=127
28674 Off ch=13 n=b5 v=127
28677 On ch=9 n=g#5 v=127
28783 Off ch=9 n=g#5 v=127
28786 On ch=3 n=d5 v=127
28892 Off ch=3 n=d5 v=127
28894 Off ch=13 n=b4 v=127
28895 On ch=13 n=b4 v=127
29001 Off ch=13 n=b4 v=127
29004 On ch=3 n=d6 v=127
29110 Off ch=3 n=d6 v=127
29113 On ch=2 n=c#6 v=127
29219 Off ch=2 n=c#6 v=127
29222 On ch=13 n=b5 v=127
29328 Off ch=13 n=b5 v=127
29328 Off ch=11 n=a3 v=127
29328 Off ch=5 n=e4 v=127
29328 Off ch=3 n=d4 v=127
29331 On ch=11 n=a4 v=127
29331 On ch=5 n=e4 v=127
29331 On ch=8 n=g4 v=127
29331 On ch=11 n=a3 v=127
29331 On ch=2 n=c#6 v=127
29441 On ch=11 n=a5 v=127
29468 Off ch=2 n=c#6 v=127
29547 Off ch=11 n=a5 v=127
29550 On ch=5 n=e5 v=127
29656 Off ch=5 n=e5 v=127
29659 On ch=2 n=c#5 v=127
29765 Off ch=2 n=c#5 v=127
29767 Off ch=11 n=a4 v=127
29768 On ch=11 n=a4 v=127
29874 Off ch=11 n=a4 v=127
29877 On ch=8 n=g5 v=127
29983 Off ch=8 n=g5 v=127
29983 Off ch=11 n=a3 v=127
29983 Off ch=8 n=g4 v=127
29983 Off ch=5 n=e4 v=127
29986 On ch=2 n=c#4 v=127
29986 On ch=11 n=a4 v=127
29986 On ch=7 n=f#5 v=127
30092 Off ch=7 n=f#5 v=127
30095 On ch=5 n=e5 v=127
30201 Off ch=5 n=e5 v=127
30201 Off ch=2 n=c#4 v=127
30204 On ch=3 n=d4 v=127
30204 On ch=7 n=f#5 v=127
30314 On ch=3 n=d5 v=127
30341 Off ch=7 n=f#5 v=127
30419 Off ch=11 n=a4 v=127
30420 Off ch=3 n=d5 v=127
30420 Off ch=3 n=d4 v=127
30423 On ch=8 n=g4 v=127
30423 On ch=5 n=e5 v=127
30533 On ch=13 n=b5 v=127
30560 Off ch=5 n=e5 v=127
30639 Off ch=13 n=b5 v=127
30639 Off ch=8 n=g4 v=127
30642 On ch=11 n=a4 v=127
30642 On ch=11 n=a5 v=127
30752 On ch=3 n=d5 v=127
30779 Off ch=11 n=a5 v=127
30858 Off ch=3 n=d5 v=127
30861 On ch=11 n=a3 v=127
30861 On ch=5 n=e5 v=127
30971 On ch=2 n=c#5 v=127
30998 Off ch=5 n=e5 v=127
31076 Off ch=11 n=a4 v=127
31077 Off ch=2 n=c#5 v=127
31077 Off ch=11 n=a3 v=127
31080 On ch=3 n=d4 v=127
31080 On ch=3 n=d5 v=127
31190 On ch=3 n=d6 v=127
31296 Off ch=3 n=d6 v=127
31296 Off ch=3 n=d4 v=127
31297 Off ch=3 n=d5 v=127
31299 On ch=8 n=g4 v=127
31299 On ch=2 n=c#6 v=127
31405 Off ch=2 n=c#6 v=127
31408 On ch=13 n=b5 v=127
31514 Off ch=13 n=b5 v=127
31514 Off ch=8 n=g4 v=127
31517 On ch=11 n=a4 v=127
31517 On ch=2 n=c#6 v=127
31627 On ch=8 n=g6 v=127
31654 Off ch=2 n=c#6 v=127
31733 Off ch=8 n=g6 v=127
31733 Off ch=11 n=a4 v=127
31736 On ch=2 n=c#5 v=127
31736 On ch=7 n=f#6 v=127
31842 Off ch=7 n=f#6 v=127
31845 On ch=5 n=e6 v=127
31951 Off ch=5 n=e6 v=127
31951 Off ch=2 n=c#5 v=127
31954 On ch=3 n=d5 v=127
31954 On ch=7 n=f#6 v=127
32064 On ch=3 n=d6 v=127
32091 Off ch=7 n=f#6 v=127
32170 Off ch=3 n=d6 v=127
32170 Off ch=3 n=d5 v=127
32173 On ch=8 n=g5 v=127
32173 On ch=5 n=e6 v=127
32279 Off ch=5 n=e6 v=127
32282 On ch=13 n=b6 v=127
32388 Off ch=13 n=b6 v=127
32388 Off ch=8 n=g5 v=127
32391 On ch=11 n=a5 v=127
32391 On ch=11 n=a6 v=127
32501 On ch=3 n=d6 v=127
32528 Off ch=11 n=a6 v=127
32607 Off ch=3 n=d6 v=127
32607 Off ch=11 n=a5 v=127
32610 On ch=11 n=a4 v=127
32610 On ch=5 n=e6 v=127
32716 Off ch=5 n=e6 v=127
32719 On ch=2 n=c#6 v=127
32825 Off ch=2 n=c#6 v=127
32825 Off ch=11 n=a4 v=127
32828 On ch=3 n=d4 v=127
32828 On ch=3 n=d6 v=127
32934 Off ch=3 n=d4 v=127
32937 On ch=3 n=d5 v=127
33043 Off ch=3 n=d5 v=127
33046 On ch=7 n=f#5 v=127
33046 On ch=11 n=a6 v=127
33152 Off ch=7 n=f#5 v=127
33155 Off ch=3 n=d6 v=127
33155 On ch=11 n=a5 v=127
33261 Off ch=11 n=a5 v=127
33264 On ch=13 n=b4 v=127
33370 Off ch=13 n=b4 v=127
33370 Off ch=11 n=a6 v=127
33373 On ch=13 n=b5 v=127
33373 On ch=8 n=g6 v=127
33479 Off ch=8 n=g6 v=127
33479 Off ch=13 n=b5 v=127
33482 On ch=2 n=c#5 v=127
33482 On ch=7 n=f#6 v=127
33588 Off ch=7 n=f#6 v=127
33588 Off ch=2 n=c#5 v=127
33591 On ch=2 n=c#6 v=127
33591 On ch=5 n=e6 v=127
33697 Off ch=5 n=e6 v=127
33697 Off ch=2 n=c#6 v=127
33700 On ch=3 n=d4 v=127
33700 On ch=7 n=f#6 v=127
33806 Off ch=7 n=f#6 v=127
33806 Off ch=3 n=d4 v=127
33809 On ch=3 n=d5 v=127
33809 On ch=13 n=b6 v=127
33915 Off ch=13 n=b6 v=127
33915 Off ch=3 n=d5 v=127
33918 On ch=7 n=f#5 v=127
33918 On ch=11 n=a6 v=127
34024 Off ch=7 n=f#5 v=127
34027 On ch=11 n=a5 v=127
34133 Off ch=11 n=a5 v=127
34136 On ch=13 n=b4 v=127
34242 Off ch=13 n=b4 v=127
34242 Off ch=11 n=a6 v=127
34245 On ch=13 n=b5 v=127
34245 On ch=8 n=g6 v=127
34351 Off ch=8 n=g6 v=127
34351 Off ch=13 n=b5 v=127
34354 On ch=2 n=c#5 v=127
34354 On ch=7 n=f#6 v=127
34460 Off ch=7 n=f#6 v=127
34460 Off ch=2 n=c#5 v=127
34463 On ch=2 n=c#6 v=127
34463 On ch=5 n=e6 v=127
34569 Off ch=5 n=e6 v=127
34569 Off ch=2 n=c#6 v=127
34572 On ch=3 n=d4 v=127
34572 On ch=7 n=f#6 v=127
34678 Off ch=7 n=f#6 v=127
34678 Off ch=3 n=d4 v=127
34681 On ch=3 n=d5 v=127
34681 On ch=13 n=b6 v=127
34787 Off ch=13 n=b6 v=127
34787 Off ch=3 n=d5 v=127
34790 On ch=7 n=f#5 v=127
34790 On ch=11 n=a6 v=127
34896 Off ch=7 n=f#5 v=127
34899 On ch=11 n=a5 v=127
35005 Off ch=11 n=a5 v=127
35008 On ch=13 n=b4 v=127
35114 Off ch=13 n=b4 v=127
35114 Off ch=11 n=a6 v=127
35117 On ch=13 n=b5 v=127
35117 On ch=8 n=g6 v=127
35223 Off ch=8 n=g6 v=127
35223 Off ch=13 n=b5 v=127
35226 On ch=2 n=c#5 v=127
35226 On ch=7 n=f#6 v=127
35332 Off ch=7 n=f#6 v=127
35332 Off ch=2 n=c#5 v=127
35335 On ch=2 n=c#6 v=127
35335 On ch=5 n=e6 v=127
35441 Off ch=5 n=e6 v=127
35441 Off ch=2 n=c#6 v=127
35444 On ch=3 n=d5 v=127
35444 On ch=7 n=f#6 v=127
35554 On ch=3 n=d6 v=127
35581 Off ch=7 n=f#6 v=127
35660 Off ch=3 n=d6 v=127
35660 Off ch=3 n=d5 v=127
35663 On ch=8 n=g4 v=127
35663 On ch=5 n=e6 v=127
35769 Off ch=5 n=e6 v=127
35772 On ch=13 n=b6 v=127
35878 Off ch=13 n=b6 v=127
35878 Off ch=8 n=g4 v=127
35881 On ch=11 n=a4 v=127
35881 On ch=11 n=a6 v=127
35991 On ch=3 n=d6 v=127
36018 Off ch=11 n=a6 v=127
36097 Off ch=3 n=d6 v=127
36100 On ch=11 n=a3 v=127
36100 On ch=5 n=e6 v=127
36210 On ch=2 n=c#6 v=127
36226 Off ch=5 n=e6 v=127
36315 Off ch=11 n=a4 v=127
36316 Off ch=2 n=c#6 v=127
36316 Off ch=11 n=a3 v=127
36319 On ch=3 n=d3 v=127
36319 On ch=3 n=d6 v=127
36425 Off ch=3 n=d3 v=127
36428 On ch=3 n=d4 v=127
36428 On ch=13 n=b5 v=127
36455 Off ch=3 n=d6 v=127
36534 Off ch=13 n=b5 v=127
36534 Off ch=3 n=d4 v=127
36537 On ch=7 n=f#4 v=127
36537 On ch=11 n=a5 v=127
36643 Off ch=7 n=f#4 v=127
36646 On ch=11 n=a4 v=127
36752 Off ch=11 n=a4 v=127
36755 On ch=13 n=b3 v=127
36861 Off ch=13 n=b3 v=127
36861 Off ch=11 n=a5 v=127
36864 On ch=8 n=g4 v=127
36864 On ch=8 n=g6 v=127
36970 Off ch=8 n=g6 v=127
36970 Off ch=8 n=g4 v=127
36973 On ch=2 n=c#4 v=127
36973 On ch=7 n=f#6 v=127
37079 Off ch=7 n=f#6 v=127
37079 Off ch=2 n=c#4 v=127
37082 On ch=11 n=a4 v=127
37082 On ch=5 n=e6 v=127
37188 Off ch=5 n=e6 v=127
37188 Off ch=11 n=a4 v=127
37191 On ch=3 n=d3 v=127
37191 On ch=7 n=f#6 v=127
37297 Off ch=3 n=d3 v=127
37300 On ch=3 n=d4 v=127
37300 On ch=13 n=b5 v=127
37327 Off ch=7 n=f#6 v=127
37406 Off ch=13 n=b5 v=127
37406 Off ch=3 n=d4 v=127
37409 On ch=7 n=f#4 v=127
37409 On ch=11 n=a5 v=127
37515 Off ch=7 n=f#4 v=127
37518 On ch=11 n=a4 v=127
37624 Off ch=11 n=a4 v=127
37627 On ch=13 n=b3 v=127
37733 Off ch=13 n=b3 v=127
37733 Off ch=11 n=a5 v=127
37736 On ch=8 n=g4 v=127
37736 On ch=8 n=g6 v=127
37842 Off ch=8 n=g6 v=127
37842 Off ch=8 n=g4 v=127
37845 On ch=2 n=c#4 v=127
37845 On ch=7 n=f#6 v=127
37951 Off ch=7 n=f#6 v=127
37951 Off ch=2 n=c#4 v=127
37954 On ch=11 n=a4 v=127
37954 On ch=5 n=e6 v=127
38060 Off ch=5 n=e6 v=127
38060 Off ch=11 n=a4 v=127
38063 On ch=3 n=d3 v=127
38063 On ch=7 n=f#6 v=127
38169 Off ch=3 n=d3 v=127
38172 On ch=3 n=d4 v=127
38172 On ch=13 n=b5 v=127
38199 Off ch=7 n=f#6 v=127
38278 Off ch=13 n=b5 v=127
38278 Off ch=3 n=d4 v=127
38281 On ch=7 n=f#4 v=127
38281 On ch=11 n=a5 v=127
38387 Off ch=7 n=f#4 v=127
38390 On ch=11 n=a4 v=127
38496 Off ch=11 n=a4 v=127
38499 On ch=13 n=b3 v=127
38605 Off ch=13 n=b3 v=127
38605 Off ch=11 n=a5 v=127
38608 On ch=8 n=g4 v=127
38608 On ch=8 n=g6 v=127
38714 Off ch=8 n=g6 v=127
38714 Off ch=8 n=g4 v=127
38717 On ch=2 n=c#4 v=127
38717 On ch=7 n=f#6 v=127
38823 Off ch=7 n=f#6 v=127
38823 Off ch=2 n=c#4 v=127
38826 On ch=11 n=a4 v=127
38826 On ch=5 n=e6 v=127
38932 Off ch=5 n=e6 v=127
38932 Off ch=11 n=a4 v=127
38935 On ch=7 n=f#3 v=127
38935 On ch=11 n=a5 v=127
38935 On ch=11 n=a6 v=127
39041 Off ch=7 n=f#3 v=127
39044 On ch=3 n=d4 v=127
39150 Off ch=3 n=d4 v=127
39150 Off ch=11 n=a6 v=127
39150 Off ch=11 n=a5 v=127
39153 On ch=8 n=g3 v=127
39153 On ch=11 n=a6 v=127
39153 On ch=13 n=b5 v=127
39259 Off ch=8 n=g3 v=127
39262 On ch=5 n=e4 v=127
39368 Off ch=5 n=e4 v=127
39368 Off ch=13 n=b5 v=127
39368 Off ch=11 n=a6 v=127
39371 On ch=11 n=a3 v=127
39371 On ch=2 n=c#6 v=127
39371 On ch=11 n=a6 v=127
39477 Off ch=11 n=a3 v=127
39480 On ch=7 n=f#4 v=127
39586 Off ch=7 n=f#4 v=127
39586 Off ch=11 n=a6 v=127
39586 Off ch=2 n=c#6 v=127
39589 On ch=13 n=b3 v=127
39589 On ch=3 n=d6 v=127
39589 On ch=11 n=a6 v=127
39695 Off ch=13 n=b3 v=127
39698 On ch=8 n=g4 v=127
39804 Off ch=8 n=g4 v=127
39804 Off ch=11 n=a6 v=127
39804 Off ch=3 n=d6 v=127
39807 On ch=2 n=c#4 v=127
39807 On ch=5 n=e6 v=127
39807 On ch=11 n=a6 v=127
39913 Off ch=2 n=c#4 v=127
39916 On ch=11 n=a4 v=127
40022 Off ch=11 n=a4 v=127
40022 Off ch=11 n=a6 v=127
40022 Off ch=5 n=e6 v=127
40025 On ch=3 n=d4 v=127
40025 On ch=11 n=a6 v=127
40025 On ch=7 n=f#6 v=127
40131 Off ch=3 n=d4 v=127
40134 On ch=13 n=b4 v=127
40240 Off ch=13 n=b4 v=127
40240 Off ch=7 n=f#6 v=127
40240 Off ch=11 n=a6 v=127
40243 On ch=5 n=e4 v=127
40243 On ch=11 n=a6 v=127
40243 On ch=8 n=g6 v=127
40349 Off ch=5 n=e4 v=127
40352 On ch=2 n=c#5 v=127
40458 Off ch=2 n=c#5 v=127
40458 Off ch=8 n=g6 v=127
40458 Off ch=11 n=a6 v=127
40461 On ch=7 n=f#4 v=127
40461 On ch=11 n=a6 v=127
40461 On ch=7 n=f#6 v=127
40567 Off ch=7 n=f#4 v=127
40570 On ch=3 n=d5 v=127
40676 Off ch=3 n=d5 v=127
40676 Off ch=7 n=f#6 v=127
40676 Off ch=11 n=a6 v=127
40679 On ch=8 n=g4 v=127
40679 On ch=11 n=a6 v=127
40679 On ch=5 n=e6 v=127
40785 Off ch=8 n=g4 v=127
40788 On ch=5 n=e5 v=127
40894 Off ch=5 n=e5 v=127
40894 Off ch=5 n=e6 v=127
40894 Off ch=11 n=a6 v=127
40897 On ch=11 n=a4 v=127
40897 On ch=11 n=a6 v=127
40897 On ch=2 n=c#6 v=127
41003 Off ch=11 n=a4 v=127
41006 On ch=7 n=f#5 v=127
41112 Off ch=7 n=f#5 v=127
41112 Off ch=2 n=c#6 v=127
41112 Off ch=11 n=a6 v=127
41115 On ch=13 n=b4 v=127
41115 On ch=3 n=d6 v=127
41115 On ch=11 n=a6 v=127
41221 Off ch=13 n=b4 v=127
41224 On ch=8 n=g5 v=127
41330 Off ch=8 n=g5 v=127
41330 Off ch=11 n=a6 v=127
41330 Off ch=3 n=d6 v=127
41333 On ch=2 n=c#5 v=127
41333 On ch=5 n=e6 v=127
41333 On ch=11 n=a6 v=127
41439 Off ch=2 n=c#5 v=127
41442 On ch=11 n=a5 v=127
41548 Off ch=11 n=a5 v=127
41548 Off ch=11 n=a6 v=127
41548 Off ch=5 n=e6 v=127
41551 On ch=3 n=d5 v=127
41551 On ch=11 n=a6 v=127
41551 On ch=7 n=f#6 v=127
41657 Off ch=7 n=f#6 v=127
41657 Off ch=11 n=a6 v=127
41660 On ch=5 n=e6 v=127
41660 On ch=8 n=g6 v=127
41766 Off ch=8 n=g6 v=127
41766 Off ch=5 n=e6 v=127
41766 Off ch=3 n=d5 v=127
41769 On ch=8 n=g4 v=127
41769 On ch=3 n=d6 v=127
41769 On ch=7 n=f#6 v=127
41875 Off ch=7 n=f#6 v=127
41875 Off ch=3 n=d6 v=127
41878 On ch=2 n=c#6 v=127
41878 On ch=5 n=e6 v=127
41984 Off ch=5 n=e6 v=127
41984 Off ch=2 n=c#6 v=127
41984 Off ch=8 n=g4 v=127
41987 On ch=11 n=a4 v=127
41987 On ch=7 n=f#6 v=127
41987 On ch=3 n=d6 v=127
42203 Off ch=3 n=d6 v=127
42203 Off ch=7 n=f#6 v=127
42206 On ch=11 n=a3 v=127
42206 On ch=7 n=f#6 v=127
42206 On ch=3 n=d6 v=127
42261 On ch=5 n=e6 v=127
42261 On ch=2 n=c#6 v=127
42269 Off ch=3 n=d6 v=127
42269 Off ch=7 n=f#6 v=127
42316 On ch=7 n=f#6 v=127
42316 On ch=3 n=d6 v=127
42324 Off ch=2 n=c#6 v=127
42324 Off ch=5 n=e6 v=127
42371 On ch=5 n=e6 v=127
42371 On ch=2 n=c#6 v=127
42379 Off ch=3 n=d6 v=127
42379 Off ch=7 n=f#6 v=127
42421 Off ch=11 n=a4 v=127
42422 Off ch=11 n=a3 v=127
42425 On ch=3 n=d4 v=127
42425 On ch=11 n=a5 v=127
42433 Off ch=2 n=c#6 v=127
42433 Off ch=5 n=e6 v=127
42535 On ch=7 n=f#6 v=127
42535 On ch=3 n=d6 v=127
42562 Off ch=11 n=a5 v=127
42641 Off ch=3 n=d6 v=127
42641 Off ch=7 n=f#6 v=127
42641 Off ch=3 n=d4 v=127
42644 On ch=8 n=g4 v=127
42644 On ch=13 n=b5 v=127
42754 On ch=8 n=g6 v=127
42754 On ch=5 n=e6 v=127
42781 Off ch=13 n=b5 v=127
42860 Off ch=5 n=e6 v=127
42860 Off ch=8 n=g6 v=127
42860 Off ch=8 n=g4 v=127
42863 On ch=11 n=a4 v=127
42863 On ch=11 n=a5 v=127
42973 On ch=7 n=f#6 v=127
42973 On ch=3 n=d6 v=127
43000 Off ch=11 n=a5 v=127
43079 Off ch=3 n=d6 v=127
43079 Off ch=7 n=f#6 v=127
43082 On ch=11 n=a3 v=127
43082 On ch=8 n=g5 v=127
43192 On ch=5 n=e6 v=127
43192 On ch=2 n=c#6 v=127
43219 Off ch=8 n=g5 v=127
43297 Off ch=11 n=a4 v=127
43298 Off ch=2 n=c#6 v=127
43298 Off ch=5 n=e6 v=127
43298 Off ch=11 n=a3 v=127
43301 On ch=3 n=d4 v=127
43301 On ch=11 n=a5 v=127
43411 On ch=3 n=d6 v=127
43411 On ch=7 n=f#6 v=127
43438 Off ch=11 n=a5 v=127
43517 Off ch=7 n=f#6 v=127
43517 Off ch=3 n=d6 v=127
43517 Off ch=3 n=d4 v=127
43520 On ch=8 n=g4 v=127
43520 On ch=13 n=b5 v=127
43630 On ch=8 n=g6 v=127
43630 On ch=5 n=e6 v=127
43657 Off ch=13 n=b5 v=127
43736 Off ch=5 n=e6 v=127
43736 Off ch=8 n=g6 v=127
43736 Off ch=8 n=g4 v=127
43739 On ch=11 n=a4 v=127
43739 On ch=11 n=a5 v=127
43849 On ch=7 n=f#6 v=127
43849 On ch=3 n=d6 v=127
43876 Off ch=11 n=a5 v=127
43955 Off ch=3 n=d6 v=127
43955 Off ch=7 n=f#6 v=127
43958 On ch=11 n=a3 v=127
43958 On ch=8 n=g5 v=127
44068 On ch=5 n=e6 v=127
44068 On ch=2 n=c#6 v=127
44095 Off ch=8 n=g5 v=127
44173 Off ch=11 n=a4 v=127
44174 Off ch=2 n=c#6 v=127
44174 Off ch=5 n=e6 v=127
44174 Off ch=11 n=a3 v=127
44177 On ch=3 n=d4 v=127
44177 On ch=11 n=a5 v=127
44287 On ch=3 n=d6 v=127
44287 On ch=7 n=f#6 v=127
44314 Off ch=11 n=a5 v=127
44393 Off ch=7 n=f#6 v=127
44393 Off ch=3 n=d6 v=127
44393 Off ch=3 n=d4 v=127
44396 On ch=8 n=g4 v=127
44396 On ch=8 n=g5 v=127
44506 On ch=5 n=e6 v=127
44533 Off ch=8 n=g5 v=127
44612 Off ch=8 n=g4 v=127
44615 On ch=11 n=a4 v=127
44615 On ch=7 n=f#5 v=127
44642 Off ch=5 n=e6 v=127
44724 On ch=3 n=d6 v=127
44751 Off ch=7 n=f#5 v=127
44833 On ch=11 n=a3 v=127
44833 On ch=5 n=e5 v=127
44860 Off ch=3 n=d6 v=127
44942 Off ch=11 n=a4 v=127
44942 On ch=2 n=c#6 v=127
44969 Off ch=5 n=e5 v=127
45033 Off ch=2 n=c#6 v=127
45048 Off ch=11 n=a3 v=127
45051 On ch=3 n=d3 v=127
45161 On ch=7 n=f#5 v=127
45267 Off ch=7 n=f#5 v=127
45270 On ch=3 n=d5 v=127
45380 On ch=11 n=a5 v=127
45407 Off ch=3 n=d5 v=127
45488 Off ch=3 n=d3 v=127
45489 On ch=7 n=f#5 v=127
45516 Off ch=11 n=a5 v=127
45598 On ch=3 n=d6 v=127
45625 Off ch=7 n=f#5 v=127
45707 On ch=11 n=a5 v=127
45734 Off ch=3 n=d6 v=127
45816 On ch=7 n=f#6 v=127
45843 Off ch=11 n=a5 v=127
45925 On ch=3 n=d6 v=127
45952 Off ch=7 n=f#6 v=127
46034 On ch=11 n=a6 v=127
46089 Off ch=3 n=d6 v=127
46140 Off ch=11 n=a6 v=127
46143 On ch=7 n=f#6 v=127
46249 Off ch=7 n=f#6 v=127
46252 On ch=3 n=d6 v=127
46358 Off ch=3 n=d6 v=127
46361 On ch=11 n=a5 v=127
46467 Off ch=11 n=a5 v=127
46470 On ch=7 n=f#5 v=127
46576 Off ch=7 n=f#5 v=127
46579 On ch=3 n=d5 v=127
46685 Off ch=3 n=d5 v=127
46688 On ch=11 n=a4 v=127
46794 Off ch=11 n=a4 v=127
46797 On ch=3 n=d3 v=127
47235 Off ch=3 n=d3 v=127
47236 On ch=3 n=d6 v=127
47455 On ch=11 n=a6 v=127
47510 Off ch=3 n=d6 v=127
47671 Off ch=11 n=a6 v=127
47674 On ch=8 n=g6 v=127
47725 Off ch=8 n=g6 v=127
47728 On ch=7 n=f#6 v=127
47779 Off ch=7 n=f#6 v=127
47782 On ch=8 n=g6 v=127
47833 Off ch=8 n=g6 v=127
47836 On ch=7 n=f#6 v=127
47887 Off ch=7 n=f#6 v=127
47890 On ch=5 n=e6 v=127
47996 Off ch=5 n=e6 v=127
47999 On ch=3 n=d6 v=127
48105 Off ch=3 n=d6 v=127
48108 On ch=2 n=c#6 v=127
48214 Off ch=2 n=c#6 v=127
48217 On ch=13 n=b5 v=127
48323 Off ch=13 n=b5 v=127
48326 On ch=11 n=a5 v=127
48432 Off ch=11 n=a5 v=127
48435 On ch=8 n=g5 v=127
48541 Off ch=8 n=g5 v=127
48544 On ch=3 n=d5 v=127
48544 On ch=7 n=f#5 v=127
48650 Off ch=7 n=f#5 v=127
48653 On ch=8 n=g5 v=127
48759 Off ch=8 n=g5 v=127
48759 Off ch=3 n=d5 v=127
48762 On ch=11 n=a4 v=127
48762 On ch=11 n=a5 v=127
48978 Off ch=11 n=a4 v=127
48981 On ch=8 n=g4 v=127
49032 Off ch=8 n=g4 v=127
49035 On ch=7 n=f#4 v=127
49086 Off ch=7 n=f#4 v=127
49089 On ch=8 n=g4 v=127
49140 Off ch=8 n=g4 v=127
49143 On ch=7 n=f#4 v=127
49194 Off ch=7 n=f#4 v=127
49194 Off ch=11 n=a5 v=127
49197 On ch=5 n=e4 v=127
49197 On ch=3 n=d5 v=127
49303 Off ch=5 n=e4 v=127
49306 On ch=3 n=d4 v=127
49412 Off ch=3 n=d4 v=127
49412 Off ch=3 n=d5 v=127
49415 On ch=11 n=a4 v=127
49415 On ch=2 n=c#5 v=127
49521 Off ch=2 n=c#5 v=127
49524 On ch=7 n=f#5 v=127
49630 Off ch=7 n=f#5 v=127
49633 On ch=5 n=e5 v=127
49739 Off ch=5 n=e5 v=127
49742 On ch=11 n=a5 v=127
49848 Off ch=11 n=a5 v=127
49851 On ch=11 n=a3 v=127
49851 On ch=8 n=g5 v=127
49957 Off ch=8 n=g5 v=127
49960 On ch=3 n=d6 v=127
50066 Off ch=3 n=d6 v=127
50068 Off ch=11 n=a4 v=127
50069 On ch=2 n=c#6 v=127
50175 Off ch=2 n=c#6 v=127
50178 On ch=8 n=g6 v=127
50284 Off ch=8 n=g6 v=127
50284 Off ch=11 n=a3 v=127
50287 On ch=3 n=d3 v=127
50287 On ch=7 n=f#6 v=127
50393 Off ch=7 n=f#6 v=127
50396 On ch=5 n=e6 v=127
50502 Off ch=5 n=e6 v=127
50502 Off ch=3 n=d3 v=127
50505 On ch=3 n=d4 v=127
50505 On ch=3 n=d6 v=127
50611 Off ch=3 n=d6 v=127
50614 On ch=2 n=c#6 v=127
50720 Off ch=2 n=c#6 v=127
50720 Off ch=3 n=d4 v=127
50723 On ch=8 n=g4 v=127
50723 On ch=3 n=d6 v=127
50774 Off ch=8 n=g4 v=127
50777 On ch=7 n=f#4 v=127
50828 Off ch=7 n=f#4 v=127
50831 On ch=8 n=g4 v=127
50882 Off ch=8 n=g4 v=127
50885 On ch=7 n=f#4 v=127
50936 Off ch=7 n=f#4 v=127
50939 On ch=5 n=e4 v=127
50939 On ch=3 n=d5 v=127
51045 Off ch=5 n=e4 v=127
51048 Off ch=3 n=d6 v=127
51048 On ch=3 n=d4 v=127
51154 Off ch=3 n=d4 v=127
51154 Off ch=3 n=d5 v=127
51157 On ch=11 n=a4 v=127
51157 On ch=2 n=c#5 v=127
51263 Off ch=2 n=c#5 v=127
51266 On ch=7 n=f#5 v=127
51372 Off ch=7 n=f#5 v=127
51375 On ch=5 n=e5 v=127
51481 Off ch=5 n=e5 v=127
51484 On ch=11 n=a5 v=127
51590 Off ch=11 n=a5 v=127
51593 On ch=11 n=a3 v=127
51593 On ch=8 n=g5 v=127
51699 Off ch=8 n=g5 v=127
51702 On ch=3 n=d6 v=127
51808 Off ch=3 n=d6 v=127
51810 Off ch=11 n=a4 v=127
51811 On ch=2 n=c#6 v=127
51917 Off ch=2 n=c#6 v=127
51920 On ch=8 n=g6 v=127
52026 Off ch=8 n=g6 v=127
52026 Off ch=11 n=a3 v=127
52029 On ch=3 n=d3 v=127
52029 On ch=7 n=f#6 v=127
52135 Off ch=7 n=f#6 v=127
52138 On ch=5 n=e6 v=127
52244 Off ch=5 n=e6 v=127
52244 Off ch=3 n=d3 v=127
52247 On ch=3 n=d4 v=127
52247 On ch=3 n=d6 v=127
52353 Off ch=3 n=d6 v=127
52356 On ch=2 n=c#6 v=127
52462 Off ch=2 n=c#6 v=127
52462 Off ch=3 n=d4 v=127
52465 On ch=8 n=g4 v=127
52465 On ch=3 n=d6 v=127
52516 Off ch=8 n=g4 v=127
52519 On ch=7 n=f#4 v=127
52570 Off ch=7 n=f#4 v=127
52573 On ch=8 n=g4 v=127
52624 Off ch=8 n=g4 v=127
52627 On ch=7 n=f#4 v=127
52678 Off ch=7 n=f#4 v=127
52678 Off ch=3 n=d6 v=127
52681 On ch=5 n=e4 v=127
52681 On ch=11 n=a5 v=127
52787 Off ch=5 n=e4 v=127
52790 On ch=3 n=d4 v=127
52896 Off ch=3 n=d4 v=127
52896 Off ch=11 n=a5 v=127
52899 On ch=8 n=g4 v=127
52899 On ch=13 n=b5 v=127
53009 On ch=3 n=d5 v=127
53115 Off ch=3 n=d5 v=127
53118 On ch=3 n=d5 v=127
53224 Off ch=3 n=d5 v=127
53227 On ch=3 n=d5 v=127
53332 Off ch=13 n=b5 v=127
53333 Off ch=3 n=d5 v=127
53333 Off ch=8 n=g4 v=127
53336 On ch=13 n=b5 v=127
53336 On ch=3 n=d5 v=127
53442 Off ch=3 n=d5 v=127
53442 Off ch=13 n=b5 v=127
53445 On ch=13 n=b5 v=127
53445 On ch=3 n=d5 v=127
53551 Off ch=3 n=d5 v=127
53551 Off ch=13 n=b5 v=127
53554 On ch=13 n=b5 v=127
53554 On ch=3 n=d5 v=127
53660 Off ch=3 n=d5 v=127
53660 Off ch=13 n=b5 v=127
53663 On ch=3 n=d6 v=127
53663 On ch=8 n=g5 v=127
53769 Off ch=8 n=g5 v=127
53769 Off ch=3 n=d6 v=127
53772 On ch=13 n=b5 v=127
53772 On ch=3 n=d5 v=127
53988 Off ch=3 n=d5 v=127
53988 Off ch=13 n=b5 v=127
53991 On ch=8 n=g4 v=127
53991 On ch=13 n=b5 v=127
54207 Off ch=13 n=b5 v=127
54207 Off ch=8 n=g4 v=127
54210 On ch=11 n=a4 v=127
54210 On ch=2 n=c#6 v=127
54261 Off ch=2 n=c#6 v=127
54261 Off ch=11 n=a4 v=127
54264 On ch=8 n=g4 v=127
54264 On ch=13 n=b5 v=127
54315 Off ch=13 n=b5 v=127
54315 Off ch=8 n=g4 v=127
54318 On ch=11 n=a4 v=127
54318 On ch=2 n=c#6 v=127
54369 Off ch=2 n=c#6 v=127
54369 Off ch=11 n=a4 v=127
54372 On ch=8 n=g4 v=127
54372 On ch=13 n=b5 v=127
54423 Off ch=13 n=b5 v=127
54423 Off ch=8 n=g4 v=127
54426 On ch=7 n=f#4 v=127
54426 On ch=11 n=a5 v=127
54532 Off ch=11 n=a5 v=127
54532 Off ch=7 n=f#4 v=127
54535 On ch=5 n=e4 v=127
54535 On ch=8 n=g5 v=127
54641 Off ch=8 n=g5 v=127
54641 Off ch=5 n=e4 v=127
54644 On ch=3 n=d4 v=127
54644 On ch=11 n=a5 v=127
54754 On ch=3 n=d5 v=127
54860 Off ch=3 n=d5 v=127
54863 On ch=3 n=d5 v=127
54969 Off ch=3 n=d5 v=127
54972 On ch=3 n=d5 v=127
55077 Off ch=11 n=a5 v=127
55078 Off ch=3 n=d5 v=127
55078 Off ch=3 n=d4 v=127
55081 On ch=11 n=a5 v=127
55081 On ch=3 n=d5 v=127
55187 Off ch=3 n=d5 v=127
55187 Off ch=11 n=a5 v=127
55190 On ch=11 n=a5 v=127
55190 On ch=3 n=d5 v=127
55296 Off ch=3 n=d5 v=127
55296 Off ch=11 n=a5 v=127
55299 On ch=11 n=a5 v=127
55299 On ch=3 n=d5 v=127
55405 Off ch=3 n=d5 v=127
55405 Off ch=11 n=a5 v=127
55408 On ch=3 n=d6 v=127
55408 On ch=7 n=f#5 v=127
55514 Off ch=7 n=f#5 v=127
55514 Off ch=3 n=d6 v=127
55517 On ch=11 n=a5 v=127
55517 On ch=3 n=d5 v=127
55733 Off ch=3 n=d5 v=127
55733 Off ch=11 n=a5 v=127
55736 On ch=7 n=f#5 v=127
55736 On ch=11 n=a6 v=127
55952 Off ch=11 n=a6 v=127
55952 Off ch=7 n=f#5 v=127
55955 On ch=8 n=g5 v=127
55955 On ch=13 n=b6 v=127
56006 Off ch=13 n=b6 v=127
56006 Off ch=8 n=g5 v=127
56009 On ch=7 n=f#5 v=127
56009 On ch=11 n=a6 v=127
56060 Off ch=11 n=a6 v=127
56060 Off ch=7 n=f#5 v=127
56063 On ch=8 n=g5 v=127
56063 On ch=13 n=b6 v=127
56114 Off ch=13 n=b6 v=127
56114 Off ch=8 n=g5 v=127
56117 On ch=7 n=f#5 v=127
56117 On ch=11 n=a6 v=127
56168 Off ch=11 n=a6 v=127
56168 Off ch=7 n=f#5 v=127
56171 On ch=5 n=e5 v=127
56171 On ch=8 n=g6 v=127
56277 Off ch=8 n=g6 v=127
56277 Off ch=5 n=e5 v=127
56280 On ch=3 n=d5 v=127
56280 On ch=7 n=f#6 v=127
56386 Off ch=7 n=f#6 v=127
56386 Off ch=3 n=d5 v=127
56389 On ch=5 n=e5 v=127
56389 On ch=11 n=a4 v=127
56389 On ch=8 n=g6 v=127
56496 Off ch=5 n=e5 v=127
56498 On ch=5 n=e5 v=127
56498 On ch=8 n=g5 v=127
56604 Off ch=8 n=g5 v=127
56604 Off ch=5 n=e5 v=127
56607 On ch=5 n=e5 v=127
56607 On ch=8 n=g5 v=127
56713 Off ch=8 n=g5 v=127
56713 Off ch=5 n=e5 v=127
56716 On ch=8 n=g5 v=127
56716 On ch=5 n=e5 v=127
56821 Off ch=8 n=g6 v=127
56822 Off ch=5 n=e5 v=127
56822 Off ch=8 n=g5 v=127
56822 Off ch=11 n=a4 v=127
56825 On ch=2 n=c#6 v=127
56825 On ch=5 n=e5 v=127
56825 On ch=8 n=g5 v=127
56931 Off ch=8 n=g5 v=127
56931 Off ch=5 n=e5 v=127
56931 Off ch=2 n=c#6 v=127
56934 On ch=2 n=c#6 v=127
56934 On ch=8 n=g5 v=127
56934 On ch=5 n=e5 v=127
57040 Off ch=5 n=e5 v=127
57040 Off ch=8 n=g5 v=127
57040 Off ch=2 n=c#6 v=127
57043 On ch=2 n=c#6 v=127
57043 On ch=5 n=e5 v=127
57043 On ch=8 n=g5 v=127
57149 Off ch=8 n=g5 v=127
57149 Off ch=5 n=e5 v=127
57149 Off ch=2 n=c#6 v=127
57152 On ch=5 n=e6 v=127
57152 On ch=8 n=g5 v=127
57152 On ch=5 n=e5 v=127
57258 Off ch=5 n=e5 v=127
57258 Off ch=8 n=g5 v=127
57258 Off ch=5 n=e6 v=127
57261 On ch=2 n=c#6 v=127
57261 On ch=5 n=e5 v=127
57261 On ch=8 n=g5 v=127
57477 Off ch=8 n=g5 v=127
57477 Off ch=5 n=e5 v=127
57477 Off ch=2 n=c#6 v=127
57480 On ch=5 n=e5 v=127
57480 On ch=11 n=a4 v=127
57480 On ch=8 n=g6 v=127
57696 Off ch=8 n=g6 v=127
57696 Off ch=11 n=a4 v=127
57696 Off ch=5 n=e5 v=127
57699 On ch=7 n=f#5 v=127
57699 On ch=11 n=a4 v=127
57699 On ch=11 n=a6 v=127
57750 Off ch=11 n=a6 v=127
57750 Off ch=7 n=f#5 v=127
57753 On ch=5 n=e5 v=127
57753 On ch=8 n=g6 v=127
57804 Off ch=8 n=g6 v=127
57804 Off ch=5 n=e5 v=127
57807 On ch=7 n=f#5 v=127
57807 On ch=11 n=a6 v=127
57858 Off ch=11 n=a6 v=127
57858 Off ch=7 n=f#5 v=127
57861 On ch=5 n=e5 v=127
57861 On ch=8 n=g6 v=127
57912 Off ch=8 n=g6 v=127
57912 Off ch=5 n=e5 v=127
57915 On ch=3 n=d5 v=127
57915 On ch=7 n=f#6 v=127
58021 Off ch=7 n=f#6 v=127
58021 Off ch=3 n=d5 v=127
58024 On ch=2 n=c#5 v=127
58024 On ch=5 n=e6 v=127
58130 Off ch=5 n=e6 v=127
58130 Off ch=2 n=c#5 v=127
58132 Off ch=11 n=a4 v=127
58133 On ch=3 n=d4 v=127
58133 On ch=7 n=f#6 v=127
58243 On ch=3 n=d5 v=127
58243 On ch=7 n=f#5 v=127
58349 Off ch=7 n=f#5 v=127
58349 Off ch=3 n=d5 v=127
58352 On ch=3 n=d5 v=127
58352 On ch=7 n=f#5 v=127
58458 Off ch=7 n=f#5 v=127
58458 Off ch=3 n=d5 v=127
58461 On ch=7 n=f#5 v=127
58461 On ch=3 n=d5 v=127
58566 Off ch=7 n=f#6 v=127
58567 Off ch=3 n=d5 v=127
58567 Off ch=7 n=f#5 v=127
58567 Off ch=3 n=d4 v=127
58570 On ch=3 n=d6 v=127
58570 On ch=3 n=d5 v=127
58570 On ch=7 n=f#5 v=127
58676 Off ch=7 n=f#5 v=127
58676 Off ch=3 n=d5 v=127
58676 Off ch=3 n=d6 v=127
58679 On ch=3 n=d6 v=127
58679 On ch=3 n=d5 v=127
58679 On ch=7 n=f#5 v=127
58785 Off ch=7 n=f#5 v=127
58785 Off ch=3 n=d5 v=127
58785 Off ch=3 n=d6 v=127
58788 On ch=3 n=d6 v=127
58788 On ch=3 n=d5 v=127
58788 On ch=7 n=f#5 v=127
58894 Off ch=7 n=f#5 v=127
58894 Off ch=3 n=d5 v=127
58894 Off ch=3 n=d6 v=127
58897 On ch=7 n=f#6 v=127
58897 On ch=3 n=d5 v=127
58897 On ch=7 n=f#5 v=127
59003 Off ch=7 n=f#5 v=127
59003 Off ch=3 n=d5 v=127
59003 Off ch=7 n=f#6 v=127
59006 On ch=3 n=d6 v=127
59006 On ch=3 n=d5 v=127
59006 On ch=7 n=f#5 v=127
59222 Off ch=7 n=f#5 v=127
59222 Off ch=3 n=d5 v=127
59222 Off ch=3 n=d6 v=127
59225 On ch=3 n=d5 v=127
59225 On ch=7 n=f#6 v=127
59441 Off ch=7 n=f#6 v=127
59441 Off ch=3 n=d5 v=127
59444 On ch=5 n=e5 v=127
59444 On ch=8 n=g6 v=127
59495 Off ch=8 n=g6 v=127
59495 Off ch=5 n=e5 v=127
59498 On ch=3 n=d5 v=127
59498 On ch=7 n=f#6 v=127
59549 Off ch=7 n=f#6 v=127
59549 Off ch=3 n=d5 v=127
59552 On ch=5 n=e5 v=127
59552 On ch=8 n=g6 v=127
59603 Off ch=8 n=g6 v=127
59603 Off ch=5 n=e5 v=127
59606 On ch=3 n=d5 v=127
59606 On ch=7 n=f#6 v=127
59657 Off ch=7 n=f#6 v=127
59657 Off ch=3 n=d5 v=127
59660 On ch=2 n=c#5 v=127
59660 On ch=5 n=e6 v=127
59766 Off ch=5 n=e6 v=127
59766 Off ch=2 n=c#5 v=127
59769 On ch=13 n=b4 v=127
59769 On ch=3 n=d6 v=127
59875 Off ch=3 n=d6 v=127
59875 Off ch=13 n=b4 v=127
59878 On ch=11 n=a3 v=127
59878 On ch=11 n=a6 v=127
59984 Off ch=11 n=a6 v=127
59987 On ch=5 n=e6 v=127
60093 Off ch=5 n=e6 v=127
60096 On ch=11 n=a4 v=127
60096 On ch=2 n=c#6 v=127
60202 Off ch=2 n=c#6 v=127
60205 Off ch=11 n=a3 v=127
60205 On ch=11 n=a5 v=127
60311 Off ch=11 n=a5 v=127
60314 On ch=11 n=a3 v=127
60314 On ch=7 n=f#6 v=127
60420 Off ch=7 n=f#6 v=127
60423 Off ch=11 n=a4 v=127
60423 On ch=3 n=d6 v=127
60529 Off ch=3 n=d6 v=127
60532 On ch=11 n=a4 v=127
60532 On ch=11 n=a5 v=127
60638 Off ch=11 n=a5 v=127
60641 Off ch=11 n=a3 v=127
60641 On ch=7 n=f#5 v=127
60747 Off ch=7 n=f#5 v=127
60750 On ch=11 n=a3 v=127
60750 On ch=5 n=e6 v=127
60856 Off ch=5 n=e6 v=127
60859 Off ch=11 n=a4 v=127
60859 On ch=2 n=c#6 v=127
60965 Off ch=2 n=c#6 v=127
60968 On ch=11 n=a4 v=127
60968 On ch=8 n=g5 v=127
61074 Off ch=8 n=g5 v=127
61077 Off ch=11 n=a3 v=127
61077 On ch=5 n=e5 v=127
61183 Off ch=5 n=e5 v=127
61186 On ch=11 n=a3 v=127
61186 On ch=3 n=d6 v=127
61292 Off ch=3 n=d6 v=127
61295 Off ch=11 n=a4 v=127
61295 On ch=11 n=a5 v=127
61401 Off ch=11 n=a5 v=127
61404 On ch=11 n=a4 v=127
61404 On ch=7 n=f#5 v=127
61510 Off ch=7 n=f#5 v=127
61513 Off ch=11 n=a3 v=127
61513 On ch=3 n=d5 v=127
61619 Off ch=3 n=d5 v=127
61619 Off ch=11 n=a4 v=127
61622 On ch=11 n=a3 v=127
61622 On ch=3 n=d6 v=127
61673 Off ch=3 n=d6 v=127
61676 On ch=2 n=c#6 v=127
61727 Off ch=2 n=c#6 v=127
61730 On ch=3 n=d6 v=127
61781 Off ch=3 n=d6 v=127
61784 On ch=2 n=c#6 v=127
61835 Off ch=2 n=c#6 v=127
61838 On ch=13 n=b5 v=127
61944 Off ch=13 n=b5 v=127
61947 On ch=11 n=a5 v=127
62038 Off ch=11 n=a5 v=127
62053 Off ch=11 n=a3 v=127
62056 On ch=11 n=a4 v=127
62166 On ch=3 n=d6 v=127
62272 Off ch=3 n=d6 v=127
62272 Off ch=11 n=a4 v=127
62275 On ch=9 n=g#5 v=127
62275 On ch=1 n=c6 v=127
62381 Off ch=1 n=c6 v=127
62384 On ch=13 n=b5 v=127
62490 Off ch=13 n=b5 v=127
62490 Off ch=9 n=g#5 v=127
62493 On ch=11 n=a5 v=127
62493 On ch=1 n=c6 v=127
62599 Off ch=1 n=c6 v=127
62602 On ch=13 n=b5 v=127
62708 Off ch=13 n=b5 v=127
62708 Off ch=11 n=a5 v=127
62711 On ch=11 n=a5 v=127
62711 On ch=5 n=e6 v=127
62817 Off ch=5 n=e6 v=127
62820 On ch=4 n=d#6 v=127
62926 Off ch=4 n=d#6 v=127
62926 Off ch=11 n=a5 v=127
62929 On ch=1 n=c6 v=127
62929 On ch=11 n=a6 v=127
63035 Off ch=11 n=a6 v=127
63038 On ch=8 n=g6 v=127
63144 Off ch=8 n=g6 v=127
63144 Off ch=1 n=c6 v=127
63147 On ch=1 n=c6 v=127
63147 On ch=7 n=f#6 v=127
63253 Off ch=7 n=f#6 v=127
63256 On ch=5 n=e6 v=127
63362 Off ch=5 n=e6 v=127
63362 Off ch=1 n=c6 v=127
63365 On ch=13 n=b5 v=127
63365 On ch=13 n=b6 v=127
63475 On ch=4 n=d#6 v=127
63581 Off ch=4 n=d#6 v=127
63582 Off ch=13 n=b6 v=127
63584 On ch=5 n=e6 v=127
63690 Off ch=5 n=e6 v=127
63693 On ch=7 n=f#6 v=127
63799 Off ch=7 n=f#6 v=127
63801 Off ch=13 n=b5 v=127
63802 On ch=13 n=b5 v=127
63908 Off ch=13 n=b5 v=127
63911 On ch=3 n=d6 v=127
64017 Off ch=3 n=d6 v=127
64020 On ch=9 n=g#5 v=127
64020 On ch=1 n=c6 v=127
64126 Off ch=1 n=c6 v=127
64129 On ch=13 n=b5 v=127
64235 Off ch=13 n=b5 v=127
64235 Off ch=9 n=g#5 v=127
64238 On ch=11 n=a5 v=127
64238 On ch=1 n=c6 v=127
64344 Off ch=1 n=c6 v=127
64347 On ch=13 n=b5 v=127
64453 Off ch=13 n=b5 v=127
64453 Off ch=11 n=a5 v=127
64456 On ch=11 n=a5 v=127
64456 On ch=5 n=e6 v=127
64562 Off ch=5 n=e6 v=127
64565 On ch=4 n=d#6 v=127
64671 Off ch=4 n=d#6 v=127
64671 Off ch=11 n=a5 v=127
64674 On ch=1 n=c6 v=127
64674 On ch=11 n=a6 v=127
64780 Off ch=11 n=a6 v=127
64783 On ch=8 n=g6 v=127
64889 Off ch=8 n=g6 v=127
64889 Off ch=1 n=c6 v=127
64892 On ch=1 n=c6 v=127
64892 On ch=7 n=f#6 v=127
64998 Off ch=7 n=f#6 v=127
65001 On ch=5 n=e6 v=127
65107 Off ch=5 n=e6 v=127
65107 Off ch=1 n=c6 v=127
65110 On ch=13 n=b5 v=127
65110 On ch=13 n=b6 v=127
65220 On ch=4 n=d#6 v=127
65326 Off ch=4 n=d#6 v=127
65327 Off ch=13 n=b6 v=127
65329 On ch=5 n=e6 v=127
65435 Off ch=5 n=e6 v=127
65438 On ch=7 n=f#6 v=127
65544 Off ch=7 n=f#6 v=127
65546 Off ch=13 n=b5 v=127
65547 On ch=13 n=b5 v=127
65763 Off ch=13 n=b5 v=127
65766 On ch=9 n=g#5 v=127
65766 On ch=13 n=b6 v=127
65876 On ch=13 n=b5 v=127
65982 Off ch=13 n=b5 v=127
65982 Off ch=9 n=g#5 v=127
65983 Off ch=13 n=b6 v=127
65985 On ch=11 n=a5 v=127
65985 On ch=13 n=b5 v=127
66091 Off ch=13 n=b5 v=127
66094 On ch=1 n=c6 v=127
66200 Off ch=11 n=a5 v=127
66203 On ch=6 n=f5 v=127
66203 On ch=11 n=a6 v=127
66258 Off ch=1 n=c6 v=127
66313 On ch=11 n=a5 v=127
66368 Off ch=11 n=a6 v=127
66419 Off ch=11 n=a5 v=127
66419 Off ch=6 n=f5 v=127
66422 On ch=3 n=d5 v=127
66422 On ch=11 n=a5 v=127
66528 Off ch=11 n=a5 v=127
66531 On ch=13 n=b5 v=127
66637 Off ch=3 n=d5 v=127
66640 On ch=5 n=e5 v=127
66640 On ch=13 n=b6 v=127
66747 Off ch=13 n=b5 v=127
66749 On ch=13 n=b5 v=127
66855 Off ch=13 n=b5 v=127
66855 Off ch=5 n=e5 v=127
66856 Off ch=13 n=b6 v=127
66858 On ch=11 n=a5 v=127
66858 On ch=13 n=b5 v=127
66964 Off ch=13 n=b5 v=127
66967 On ch=1 n=c6 v=127
67073 Off ch=11 n=a5 v=127
67076 On ch=6 n=f5 v=127
67076 On ch=11 n=a6 v=127
67131 Off ch=1 n=c6 v=127
67186 On ch=11 n=a5 v=127
67292 Off ch=11 n=a5 v=127
67292 Off ch=6 n=f5 v=127
67293 Off ch=11 n=a6 v=127
67295 On ch=3 n=d5 v=127
67295 On ch=11 n=a5 v=127
67401 Off ch=11 n=a5 v=127
67404 On ch=13 n=b5 v=127
67510 Off ch=3 n=d5 v=127
67513 On ch=5 n=e5 v=127
67513 On ch=13 n=b6 v=127
67620 Off ch=13 n=b5 v=127
67622 On ch=13 n=b5 v=127
67728 Off ch=13 n=b5 v=127
67728 Off ch=5 n=e5 v=127
67729 Off ch=13 n=b6 v=127
67731 On ch=11 n=a4 v=127
67731 On ch=13 n=b5 v=127
67837 Off ch=13 n=b5 v=127
67840 On ch=1 n=c6 v=127
67946 Off ch=1 n=c6 v=127
67946 Off ch=11 n=a4 v=127
67949 On ch=11 n=a5 v=127
67949 On ch=1 n=c6 v=127
68055 Off ch=1 n=c6 v=127
68058 On ch=5 n=e6 v=127
68164 Off ch=5 n=e6 v=127
68164 Off ch=11 n=a5 v=127
68167 On ch=7 n=f#5 v=127
68167 On ch=5 n=e6 v=127
68273 Off ch=5 n=e6 v=127
68276 On ch=3 n=d6 v=127
68382 Off ch=3 n=d6 v=127
68382 Off ch=7 n=f#5 v=127
68385 On ch=3 n=d5 v=127
68385 On ch=3 n=d6 v=127
68491 Off ch=3 n=d6 v=127
68494 On ch=1 n=c6 v=127
68600 Off ch=1 n=c6 v=127
68600 Off ch=3 n=d5 v=127
68603 On ch=8 n=g5 v=127
68603 On ch=1 n=c6 v=127
68709 Off ch=1 n=c6 v=127
68712 On ch=13 n=b5 v=127
68818 Off ch=8 n=g5 v=127
68821 On ch=5 n=e5 v=127
68821 On ch=13 n=b6 v=127
68927 Off ch=13 n=b6 v=127
68928 Off ch=13 n=b5 v=127
68930 On ch=8 n=g5 v=127
69036 Off ch=8 n=g5 v=127
69036 Off ch=5 n=e5 v=127
69039 On ch=1 n=c5 v=127
69039 On ch=8 n=g5 v=127
69145 Off ch=8 n=g5 v=127
69148 On ch=11 n=a5 v=127
69254 Off ch=1 n=c5 v=127
69257 On ch=3 n=d5 v=127
69257 On ch=11 n=a6 v=127
69364 Off ch=11 n=a5 v=127
69366 On ch=11 n=a5 v=127
69472 Off ch=11 n=a5 v=127
69472 Off ch=3 n=d5 v=127
69473 Off ch=11 n=a6 v=127
69475 On ch=8 n=g5 v=127
69475 On ch=11 n=a5 v=127
69581 Off ch=11 n=a5 v=127
69584 On ch=13 n=b5 v=127
69690 Off ch=8 n=g5 v=127
69693 On ch=5 n=e5 v=127
69693 On ch=13 n=b6 v=127
69800 Off ch=13 n=b5 v=127
69802 On ch=8 n=g5 v=127
69908 Off ch=8 n=g5 v=127
69908 Off ch=5 n=e5 v=127
69909 Off ch=13 n=b6 v=127
69911 On ch=1 n=c5 v=127
69911 On ch=8 n=g5 v=127
70017 Off ch=8 n=g5 v=127
70020 On ch=11 n=a5 v=127
70126 Off ch=1 n=c5 v=127
70129 On ch=3 n=d5 v=127
70129 On ch=11 n=a6 v=127
70236 Off ch=11 n=a5 v=127
70238 On ch=11 n=a5 v=127
70344 Off ch=11 n=a5 v=127
70344 Off ch=3 n=d5 v=127
70345 Off ch=11 n=a6 v=127
70347 On ch=8 n=g4 v=127
70347 On ch=11 n=a5 v=127
70453 Off ch=11 n=a5 v=127
70456 On ch=13 n=b5 v=127
70562 Off ch=13 n=b5 v=127
70562 Off ch=8 n=g4 v=127
70565 On ch=6 n=f5 v=127
70565 On ch=13 n=b5 v=127
70671 Off ch=13 n=b5 v=127
70674 On ch=1 n=c6 v=127
70780 Off ch=1 n=c6 v=127
70780 Off ch=6 n=f5 v=127
70783 On ch=4 n=d#5 v=127
70783 On ch=1 n=c6 v=127
70889 Off ch=1 n=c6 v=127
70892 On ch=3 n=d6 v=127
70998 Off ch=3 n=d6 v=127
70998 Off ch=4 n=d#5 v=127
71001 On ch=3 n=d5 v=127
71001 On ch=3 n=d6 v=127
71107 Off ch=3 n=d6 v=127
71110 On ch=4 n=d#6 v=127
71216 Off ch=4 n=d#6 v=127
71216 Off ch=3 n=d5 v=127
71219 On ch=1 n=c5 v=127
71219 On ch=4 n=d#6 v=127
71325 Off ch=4 n=d#6 v=127
71328 On ch=8 n=g6 v=127
71434 Off ch=8 n=g6 v=127
71434 Off ch=1 n=c5 v=127
71437 On ch=12 n=a#5 v=127
71437 On ch=8 n=g6 v=127
71543 Off ch=8 n=g6 v=127
71546 On ch=11 n=a6 v=127
71652 Off ch=11 n=a6 v=127
71652 Off ch=12 n=a#5 v=127
71655 On ch=11 n=a5 v=127
71655 On ch=11 n=a6 v=127
71761 Off ch=11 n=a6 v=127
71764 On ch=2 n=c#6 v=127
71870 Off ch=2 n=c#6 v=127
71870 Off ch=11 n=a5 v=127
71873 On ch=8 n=g5 v=127
71873 On ch=2 n=c#6 v=127
71979 Off ch=2 n=c#6 v=127
71982 On ch=3 n=d6 v=127
72088 Off ch=3 n=d6 v=127
72088 Off ch=8 n=g5 v=127
72091 On ch=7 n=f#5 v=127
72091 On ch=3 n=d6 v=127
72197 Off ch=3 n=d6 v=127
72200 On ch=11 n=a5 v=127
72306 Off ch=11 n=a5 v=127
72306 Off ch=7 n=f#5 v=127
72309 On ch=3 n=d5 v=127
72309 On ch=11 n=a5 v=127
72415 Off ch=11 n=a5 v=127
72418 On ch=12 n=a#5 v=127
72524 Off ch=12 n=a#5 v=127
72524 Off ch=3 n=d5 v=127
72527 On ch=4 n=d#5 v=127
72527 On ch=12 n=a#5 v=127
72633 Off ch=12 n=a#5 v=127
72636 On ch=7 n=f#5 v=127
72742 Off ch=7 n=f#5 v=127
72742 Off ch=4 n=d#5 v=127
72745 On ch=1 n=c5 v=127
72745 On ch=7 n=f#5 v=127
72851 Off ch=7 n=f#5 v=127
72854 On ch=8 n=g5 v=127
72960 Off ch=8 n=g5 v=127
72960 Off ch=1 n=c5 v=127
72963 On ch=3 n=d4 v=127
72963 On ch=11 n=a5 v=127
73073 On ch=3 n=d6 v=127
73179 Off ch=3 n=d6 v=127
73180 Off ch=11 n=a5 v=127
73182 On ch=11 n=a5 v=127
73288 Off ch=11 n=a5 v=127
73291 On ch=7 n=f#5 v=127
73397 Off ch=7 n=f#5 v=127
73400 On ch=3 n=d5 v=127
73510 On ch=3 n=d6 v=127
73616 Off ch=3 n=d6 v=127
73617 Off ch=3 n=d5 v=127
73619 On ch=1 n=c6 v=127
73725 Off ch=1 n=c6 v=127
73728 On ch=13 n=b5 v=127
73834 Off ch=13 n=b5 v=127
73834 Off ch=3 n=d4 v=127
73837 On ch=11 n=a4 v=127
73837 On ch=1 n=c5 v=127
73837 On ch=3 n=d4 v=127
73837 On ch=1 n=c6 v=127
73947 On ch=11 n=a5 v=127
74053 Off ch=11 n=a5 v=127
74054 Off ch=1 n=c6 v=127
74056 On ch=7 n=f#5 v=127
74162 Off ch=7 n=f#5 v=127
74163 Off ch=1 n=c5 v=127
74165 On ch=1 n=c5 v=127
74271 Off ch=1 n=c5 v=127
74273 Off ch=11 n=a4 v=127
74274 On ch=11 n=a4 v=127
74380 Off ch=11 n=a4 v=127
74383 On ch=1 n=c6 v=127
74489 Off ch=1 n=c6 v=127
74492 On ch=13 n=b5 v=127
74598 Off ch=13 n=b5 v=127
74601 On ch=11 n=a5 v=127
74707 Off ch=11 n=a5 v=127
74707 Off ch=3 n=d4 v=127
74710 On ch=13 n=b4 v=127
74710 On ch=8 n=g4 v=127
74710 On ch=3 n=d4 v=127
74710 On ch=13 n=b5 v=127
74820 On ch=8 n=g5 v=127
74926 Off ch=8 n=g5 v=127
74927 Off ch=13 n=b5 v=127
74929 On ch=3 n=d5 v=127
75035 Off ch=3 n=d5 v=127
75036 Off ch=13 n=b4 v=127
75038 On ch=13 n=b4 v=127
75144 Off ch=13 n=b4 v=127
75146 Off ch=8 n=g4 v=127
75147 On ch=8 n=g4 v=127
75253 Off ch=8 n=g4 v=127
75256 On ch=13 n=b5 v=127
75362 Off ch=13 n=b5 v=127
75365 On ch=11 n=a5 v=127
75471 Off ch=11 n=a5 v=127
75474 On ch=8 n=g5 v=127
75580 Off ch=8 n=g5 v=127
75580 Off ch=3 n=d4 v=127
75583 On ch=3 n=d4 v=127
75583 On ch=3 n=d3 v=127
75583 On ch=11 n=a3 v=127
75583 On ch=11 n=a5 v=127
75693 On ch=7 n=f#5 v=127
75799 Off ch=7 n=f#5 v=127
75800 Off ch=11 n=a5 v=127
75802 On ch=3 n=d5 v=127
75908 Off ch=3 n=d5 v=127
75911 On ch=11 n=a4 v=127
76017 Off ch=11 n=a4 v=127
76020 On ch=7 n=f#4 v=127
76126 Off ch=7 n=f#4 v=127
76129 On ch=11 n=a5 v=127
76235 Off ch=11 n=a5 v=127
76238 On ch=8 n=g5 v=127
76344 Off ch=8 n=g5 v=127
76347 On ch=7 n=f#5 v=127
76453 Off ch=7 n=f#5 v=127
76453 Off ch=11 n=a3 v=127
76453 Off ch=3 n=d3 v=127
76453 Off ch=3 n=d4 v=127
76456 On ch=5 n=e4 v=127
76456 On ch=2 n=c#4 v=127
76456 On ch=3 n=d3 v=127
76456 On ch=8 n=g5 v=127
76566 On ch=5 n=e5 v=127
76621 Off ch=8 n=g5 v=127
76672 Off ch=5 n=e5 v=127
76675 On ch=2 n=c#5 v=127
76781 Off ch=2 n=c#5 v=127
76784 On ch=8 n=g4 v=127
76890 Off ch=8 n=g4 v=127
76892 Off ch=5 n=e4 v=127
76893 On ch=5 n=e4 v=127
76999 Off ch=5 n=e4 v=127
77002 On ch=8 n=g5 v=127
77108 Off ch=8 n=g5 v=127
77111 On ch=7 n=f#5 v=127
77217 Off ch=7 n=f#5 v=127
77220 On ch=5 n=e5 v=127
77326 Off ch=5 n=e5 v=127
77326 Off ch=3 n=d3 v=127
77326 Off ch=2 n=c#4 v=127
77329 On ch=11 n=a3 v=127
77329 On ch=3 n=d4 v=127
77329 On ch=3 n=d3 v=127
77329 On ch=7 n=f#5 v=127
77435 Off ch=7 n=f#5 v=127
77438 On ch=3 n=d6 v=127
77544 Off ch=3 n=d6 v=127
77547 On ch=2 n=c#6 v=127
77653 Off ch=2 n=c#6 v=127
77656 On ch=13 n=b5 v=127
77762 Off ch=13 n=b5 v=127
77762 Off ch=3 n=d3 v=127
77762 Off ch=3 n=d4 v=127
77762 Off ch=11 n=a3 v=127
77765 On ch=5 n=e4 v=127
77765 On ch=3 n=d3 v=127
77765 On ch=2 n=c#4 v=127
77765 On ch=2 n=c#6 v=127
77871 Off ch=2 n=c#6 v=127
77874 On ch=8 n=g6 v=127
77980 Off ch=8 n=g6 v=127
77983 On ch=7 n=f#6 v=127
78089 Off ch=7 n=f#6 v=127
78092 On ch=5 n=e6 v=127
78198 Off ch=5 n=e6 v=127
78198 Off ch=2 n=c#4 v=127
78198 Off ch=3 n=d3 v=127
78198 Off ch=5 n=e4 v=127
78201 On ch=11 n=a3 v=127
78201 On ch=3 n=d4 v=127
78201 On ch=3 n=d3 v=127
78201 On ch=11 n=a6 v=127
78307 Off ch=11 n=a6 v=127
78310 On ch=7 n=f#6 v=127
78416 Off ch=7 n=f#6 v=127
78419 On ch=3 n=d6 v=127
78525 Off ch=3 n=d6 v=127
78528 On ch=11 n=a5 v=127
78634 Off ch=11 n=a5 v=127
78637 On ch=3 n=d5 v=127
78853 Off ch=3 n=d5 v=127
78853 Off ch=3 n=d3 v=127
78853 Off ch=3 n=d4 v=127
78853 Off ch=11 n=a3 v=127
78856 On ch=3 n=d5 v=127
78856 On ch=3 n=d6 v=127
78962 Off ch=3 n=d6 v=127
78965 On ch=11 n=a5 v=127
79071 Off ch=11 n=a5 v=127
79071 Off ch=3 n=d5 v=127
79074 On ch=8 n=g5 v=127
79074 On ch=11 n=a5 v=127
79180 Off ch=11 n=a5 v=127
79183 On ch=12 n=a#5 v=127
79289 Off ch=12 n=a#5 v=127
79289 Off ch=8 n=g5 v=127
79292 On ch=4 n=d#5 v=127
79292 On ch=3 n=d6 v=127
79398 Off ch=3 n=d6 v=127
79401 On ch=8 n=g5 v=127
79507 Off ch=8 n=g5 v=127
79507 Off ch=4 n=d#5 v=127
79510 On ch=1 n=c5 v=127
79510 On ch=8 n=g5 v=127
79616 Off ch=8 n=g5 v=127
79619 On ch=11 n=a5 v=127
79725 Off ch=11 n=a5 v=127
79725 Off ch=1 n=c5 v=127
79728 On ch=3 n=d5 v=127
79728 On ch=3 n=d6 v=127
79834 Off ch=3 n=d6 v=127
79837 On ch=7 n=f#5 v=127
79943 Off ch=7 n=f#5 v=127
79943 Off ch=3 n=d5 v=127
79946 On ch=12 n=a#4 v=127
79946 On ch=7 n=f#5 v=127
80052 Off ch=7 n=f#5 v=127
80055 On ch=8 n=g5 v=127
80161 Off ch=8 n=g5 v=127
80161 Off ch=12 n=a#4 v=127
80164 On ch=8 n=g4 v=127
80164 On ch=12 n=a#6 v=127
80270 Off ch=12 n=a#6 v=127
80273 On ch=3 n=d6 v=127
80379 Off ch=3 n=d6 v=127
80379 Off ch=8 n=g4 v=127
80382 On ch=1 n=c5 v=127
80382 On ch=3 n=d6 v=127
80488 Off ch=3 n=d6 v=127
80491 On ch=4 n=d#6 v=127
80597 Off ch=4 n=d#6 v=127
80597 Off ch=1 n=c5 v=127
80600 On ch=11 n=a4 v=127
80600 On ch=1 n=c7 v=127
80706 Off ch=1 n=c7 v=127
80709 On ch=7 n=f#6 v=127
80815 Off ch=7 n=f#6 v=127
80815 Off ch=11 n=a4 v=127
80818 On ch=12 n=a#4 v=127
80818 On ch=7 n=f#6 v=127
80924 Off ch=7 n=f#6 v=127
80927 On ch=8 n=g6 v=127
81033 Off ch=8 n=g6 v=127
81033 Off ch=12 n=a#4 v=127
81036 On ch=8 n=g4 v=127
81036 On ch=3 n=d6 v=127
81142 Off ch=3 n=d6 v=127
81145 On ch=8 n=g5 v=127
81251 Off ch=8 n=g5 v=127
81251 Off ch=8 n=g4 v=127
81254 On ch=1 n=c5 v=127
81254 On ch=8 n=g5 v=127
81360 Off ch=8 n=g5 v=127
81363 On ch=11 n=a5 v=127
81469 Off ch=11 n=a5 v=127
81469 Off ch=1 n=c5 v=127
81472 On ch=11 n=a4 v=127
81472 On ch=3 n=d6 v=127
81578 Off ch=3 n=d6 v=127
81581 On ch=7 n=f#5 v=127
81687 Off ch=7 n=f#5 v=127
81687 Off ch=11 n=a4 v=127
81690 On ch=12 n=a#4 v=127
81690 On ch=7 n=f#5 v=127
81796 Off ch=7 n=f#5 v=127
81799 On ch=8 n=g5 v=127
81905 Off ch=8 n=g5 v=127
81905 Off ch=12 n=a#4 v=127
81908 On ch=8 n=g4 v=127
81908 On ch=12 n=a#6 v=127
82014 Off ch=12 n=a#6 v=127
82017 On ch=3 n=d6 v=127
82123 Off ch=3 n=d6 v=127
82123 Off ch=8 n=g4 v=127
82126 On ch=1 n=c6 v=127
82126 On ch=3 n=d6 v=127
82232 Off ch=3 n=d6 v=127
82235 On ch=4 n=d#6 v=127
82341 Off ch=4 n=d#6 v=127
82341 Off ch=1 n=c6 v=127
82344 On ch=11 n=a5 v=127
82344 On ch=1 n=c7 v=127
82450 Off ch=1 n=c7 v=127
82453 On ch=1 n=c6 v=127
82559 Off ch=1 n=c6 v=127
82559 Off ch=11 n=a5 v=127
82562 On ch=12 n=a#5 v=127
82562 On ch=1 n=c6 v=127
82668 Off ch=1 n=c6 v=127
82671 On ch=3 n=d6 v=127
82777 Off ch=3 n=d6 v=127
82777 Off ch=12 n=a#5 v=127
82780 On ch=8 n=g5 v=127
82780 On ch=12 n=a#6 v=127
82886 Off ch=12 n=a#6 v=127
82889 On ch=12 n=a#5 v=127
82995 Off ch=12 n=a#5 v=127
82995 Off ch=8 n=g5 v=127
82998 On ch=11 n=a5 v=127
82998 On ch=12 n=a#5 v=127
83104 Off ch=12 n=a#5 v=127
83107 On ch=1 n=c6 v=127
83213 Off ch=1 n=c6 v=127
83213 Off ch=11 n=a5 v=127
83216 On ch=7 n=f#5 v=127
83216 On ch=11 n=a6 v=127
83322 Off ch=11 n=a6 v=127
83325 On ch=11 n=a5 v=127
83431 Off ch=11 n=a5 v=127
83431 Off ch=7 n=f#5 v=127
83434 On ch=8 n=g5 v=127
83434 On ch=11 n=a5 v=127
83540 Off ch=11 n=a5 v=127
83543 On ch=13 n=b5 v=127
83649 Off ch=13 n=b5 v=127
83649 Off ch=8 n=g5 v=127
83652 On ch=13 n=b4 v=127
83652 On ch=3 n=d6 v=127
83758 Off ch=3 n=d6 v=127
83761 On ch=8 n=g5 v=127
83867 Off ch=8 n=g5 v=127
83867 Off ch=13 n=b4 v=127
83870 On ch=1 n=c5 v=127
83870 On ch=8 n=g5 v=127
83976 Off ch=8 n=g5 v=127
83979 On ch=11 n=a5 v=127
84085 Off ch=11 n=a5 v=127
84085 Off ch=1 n=c5 v=127
84088 On ch=11 n=a4 v=127
84088 On ch=3 n=d6 v=127
84194 Off ch=3 n=d6 v=127
84197 On ch=7 n=f#5 v=127
84303 Off ch=7 n=f#5 v=127
84303 Off ch=11 n=a4 v=127
84306 On ch=13 n=b4 v=127
84306 On ch=7 n=f#5 v=127
84412 Off ch=7 n=f#5 v=127
84415 On ch=8 n=g5 v=127
84521 Off ch=8 n=g5 v=127
84521 Off ch=13 n=b4 v=127
84524 On ch=8 n=g4 v=127
84524 On ch=3 n=d6 v=127
84630 Off ch=3 n=d6 v=127
84633 On ch=13 n=b5 v=127
84739 Off ch=13 n=b5 v=127
84739 Off ch=8 n=g4 v=127
84742 On ch=1 n=c5 v=127
84742 On ch=5 n=e6 v=127
84848 Off ch=5 n=e6 v=127
84851 On ch=1 n=c6 v=127
84957 Off ch=1 n=c6 v=127
84957 Off ch=1 n=c5 v=127
84960 On ch=11 n=a4 v=127
84960 On ch=7 n=f#6 v=127
85066 Off ch=7 n=f#6 v=127
85069 On ch=3 n=d6 v=127
85175 Off ch=3 n=d6 v=127
85175 Off ch=11 n=a4 v=127
85178 On ch=13 n=b4 v=127
85178 On ch=8 n=g6 v=127
85288 On ch=8 n=g5 v=127
85394 Off ch=8 n=g5 v=127
85394 Off ch=13 n=b4 v=127
85395 Off ch=8 n=g6 v=127
85397 On ch=1 n=c5 v=127
85397 On ch=11 n=a5 v=127
85503 Off ch=11 n=a5 v=127
85506 On ch=5 n=e6 v=127
85612 Off ch=5 n=e6 v=127
85612 Off ch=1 n=c5 v=127
85615 On ch=3 n=d5 v=127
85615 On ch=3 n=d6 v=127
85721 Off ch=3 n=d6 v=127
85724 On ch=8 n=g5 v=127
85830 Off ch=8 n=g5 v=127
85833 On ch=3 n=d4 v=127
85833 On ch=11 n=a5 v=127
85939 Off ch=11 n=a5 v=127
85942 Off ch=3 n=d5 v=127
85942 On ch=7 n=f#5 v=127
86048 Off ch=7 n=f#5 v=127
86048 Off ch=3 n=d4 v=127
86051 On ch=8 n=g3 v=127
86051 On ch=8 n=g5 v=127
86157 Off ch=8 n=g3 v=127
86160 On ch=8 n=g4 v=127
86266 Off ch=8 n=g4 v=127
86266 Off ch=8 n=g5 v=127
86269 On ch=13 n=b4 v=127
86269 On ch=3 n=d6 v=127
86375 Off ch=13 n=b4 v=127
86378 On ch=3 n=d5 v=127
86484 Off ch=3 n=d5 v=127
86487 On ch=5 n=e4 v=127
86593 Off ch=5 n=e4 v=127
86593 Off ch=3 n=d6 v=127
86596 On ch=1 n=c5 v=127
86596 On ch=1 n=c6 v=127
86702 Off ch=1 n=c6 v=127
86702 Off ch=1 n=c5 v=127
86705 On ch=7 n=f#4 v=127
86705 On ch=13 n=b5 v=127
86811 Off ch=13 n=b5 v=127
86811 Off ch=7 n=f#4 v=127
86814 On ch=3 n=d5 v=127
86814 On ch=11 n=a5 v=127
86920 Off ch=11 n=a5 v=127
86920 Off ch=3 n=d5 v=127
86923 On ch=8 n=g3 v=127
86923 On ch=13 n=b5 v=127
87029 Off ch=13 n=b5 v=127
87029 Off ch=8 n=g3 v=127
87032 On ch=8 n=g4 v=127
87032 On ch=5 n=e6 v=127
87138 Off ch=5 n=e6 v=127
87138 Off ch=8 n=g4 v=127
87141 On ch=13 n=b4 v=127
87141 On ch=3 n=d6 v=127
87247 Off ch=13 n=b4 v=127
87250 On ch=3 n=d5 v=127
87356 Off ch=3 n=d5 v=127
87359 On ch=5 n=e4 v=127
87465 Off ch=5 n=e4 v=127
87465 Off ch=3 n=d6 v=127
87468 On ch=1 n=c5 v=127
87468 On ch=1 n=c6 v=127
87574 Off ch=1 n=c6 v=127
87574 Off ch=1 n=c5 v=127
87577 On ch=7 n=f#4 v=127
87577 On ch=13 n=b5 v=127
87683 Off ch=13 n=b5 v=127
87683 Off ch=7 n=f#4 v=127
87686 On ch=3 n=d5 v=127
87686 On ch=11 n=a5 v=127
87792 Off ch=11 n=a5 v=127
87792 Off ch=3 n=d5 v=127
87795 On ch=8 n=g3 v=127
87795 On ch=13 n=b5 v=127
87901 Off ch=13 n=b5 v=127
87901 Off ch=8 n=g3 v=127
87904 On ch=8 n=g4 v=127
87904 On ch=5 n=e6 v=127
88010 Off ch=5 n=e6 v=127
88010 Off ch=8 n=g4 v=127
88013 On ch=13 n=b4 v=127
88013 On ch=3 n=d6 v=127
88119 Off ch=13 n=b4 v=127
88122 On ch=3 n=d5 v=127
88228 Off ch=3 n=d5 v=127
88231 On ch=5 n=e4 v=127
88337 Off ch=5 n=e4 v=127
88337 Off ch=3 n=d6 v=127
88340 On ch=1 n=c5 v=127
88340 On ch=1 n=c6 v=127
88446 Off ch=1 n=c6 v=127
88446 Off ch=1 n=c5 v=127
88449 On ch=7 n=f#4 v=127
88449 On ch=13 n=b5 v=127
88555 Off ch=13 n=b5 v=127
88555 Off ch=7 n=f#4 v=127
88558 On ch=3 n=d5 v=127
88558 On ch=11 n=a5 v=127
88664 Off ch=11 n=a5 v=127
88664 Off ch=3 n=d5 v=127
88667 On ch=8 n=g4 v=127
88667 On ch=13 n=b5 v=127
88777 On ch=8 n=g5 v=127
88832 Off ch=13 n=b5 v=127
88883 Off ch=8 n=g5 v=127
88883 Off ch=8 n=g4 v=127
88886 On ch=1 n=c4 v=127
88886 On ch=11 n=a5 v=127
88992 Off ch=11 n=a5 v=127
88995 On ch=5 n=e6 v=127
89101 Off ch=5 n=e6 v=127
89101 Off ch=1 n=c4 v=127
89104 On ch=3 n=d4 v=127
89104 On ch=3 n=d6 v=127
89210 Off ch=3 n=d6 v=127
89213 On ch=8 n=g5 v=127
89319 Off ch=8 n=g5 v=127
89322 On ch=3 n=d3 v=127
89322 On ch=11 n=a5 v=127
89428 Off ch=11 n=a5 v=127
89431 Off ch=3 n=d4 v=127
89431 On ch=7 n=f#5 v=127
89537 Off ch=7 n=f#5 v=127
89537 Off ch=3 n=d3 v=127
89540 On ch=8 n=g3 v=127
89540 On ch=8 n=g5 v=127
89646 Off ch=8 n=g5 v=127
89646 Off ch=8 n=g3 v=127
89649 On ch=8 n=g4 v=127
89649 On ch=11 n=a6 v=127
89755 Off ch=11 n=a6 v=127
89755 Off ch=8 n=g4 v=127
89758 On ch=13 n=b4 v=127
89758 On ch=8 n=g6 v=127
89864 Off ch=13 n=b4 v=127
89867 On ch=3 n=d5 v=127
89973 Off ch=3 n=d5 v=127
89976 On ch=5 n=e4 v=127
90082 Off ch=5 n=e4 v=127
90082 Off ch=8 n=g6 v=127
90085 On ch=1 n=c5 v=127
90085 On ch=1 n=c6 v=127
90191 Off ch=1 n=c6 v=127
90191 Off ch=1 n=c5 v=127
90194 On ch=7 n=f#4 v=127
90194 On ch=13 n=b5 v=127
90300 Off ch=13 n=b5 v=127
90300 Off ch=7 n=f#4 v=127
90303 On ch=3 n=d5 v=127
90303 On ch=11 n=a5 v=127
90409 Off ch=11 n=a5 v=127
90409 Off ch=3 n=d5 v=127
90412 On ch=8 n=g3 v=127
90412 On ch=13 n=b5 v=127
90518 Off ch=13 n=b5 v=127
90518 Off ch=8 n=g3 v=127
90521 On ch=8 n=g4 v=127
90521 On ch=11 n=a6 v=127
90627 Off ch=11 n=a6 v=127
90627 Off ch=8 n=g4 v=127
90630 On ch=13 n=b4 v=127
90630 On ch=8 n=g6 v=127
90736 Off ch=13 n=b4 v=127
90739 On ch=3 n=d5 v=127
90845 Off ch=3 n=d5 v=127
90848 On ch=5 n=e4 v=127
90954 Off ch=5 n=e4 v=127
90954 Off ch=8 n=g6 v=127
90957 On ch=1 n=c5 v=127
90957 On ch=1 n=c6 v=127
91063 Off ch=1 n=c6 v=127
91063 Off ch=1 n=c5 v=127
91066 On ch=7 n=f#4 v=127
91066 On ch=13 n=b5 v=127
91172 Off ch=13 n=b5 v=127
91172 Off ch=7 n=f#4 v=127
91175 On ch=3 n=d5 v=127
91175 On ch=11 n=a5 v=127
91281 Off ch=11 n=a5 v=127
91281 Off ch=3 n=d5 v=127
91284 On ch=8 n=g3 v=127
91284 On ch=13 n=b5 v=127
91390 Off ch=13 n=b5 v=127
91390 Off ch=8 n=g3 v=127
91393 On ch=8 n=g4 v=127
91393 On ch=11 n=a6 v=127
91499 Off ch=11 n=a6 v=127
91499 Off ch=8 n=g4 v=127
91502 On ch=13 n=b4 v=127
91502 On ch=8 n=g6 v=127
91608 Off ch=13 n=b4 v=127
91611 On ch=3 n=d5 v=127
91717 Off ch=3 n=d5 v=127
91720 On ch=5 n=e4 v=127
91826 Off ch=5 n=e4 v=127
91826 Off ch=8 n=g6 v=127
91829 On ch=1 n=c5 v=127
91829 On ch=1 n=c6 v=127
91935 Off ch=1 n=c6 v=127
91935 Off ch=1 n=c5 v=127
91938 On ch=7 n=f#4 v=127
91938 On ch=13 n=b5 v=127
92044 Off ch=13 n=b5 v=127
92044 Off ch=7 n=f#4 v=127
92047 On ch=3 n=d5 v=127
92047 On ch=11 n=a5 v=127
92153 Off ch=11 n=a5 v=127
92153 Off ch=3 n=d5 v=127
92156 On ch=13 n=b3 v=127
92156 On ch=3 n=d5 v=127
92156 On ch=3 n=d6 v=127
92262 Off ch=13 n=b3 v=127
92265 On ch=8 n=g4 v=127
92371 Off ch=8 n=g4 v=127
92371 Off ch=3 n=d6 v=127
92371 Off ch=3 n=d5 v=127
92374 On ch=1 n=c4 v=127
92374 On ch=5 n=e5 v=127
92374 On ch=3 n=d6 v=127
92480 Off ch=1 n=c4 v=127
92483 On ch=11 n=a4 v=127
92589 Off ch=11 n=a4 v=127
92589 Off ch=3 n=d6 v=127
92589 Off ch=5 n=e5 v=127
92592 On ch=3 n=d4 v=127
92592 On ch=3 n=d6 v=127
92592 On ch=7 n=f#5 v=127
92698 Off ch=3 n=d4 v=127
92701 On ch=13 n=b4 v=127
92807 Off ch=13 n=b4 v=127
92807 Off ch=7 n=f#5 v=127
92807 Off ch=3 n=d6 v=127
92810 On ch=5 n=e4 v=127
92810 On ch=3 n=d6 v=127
92810 On ch=8 n=g5 v=127
92916 Off ch=5 n=e4 v=127
92919 On ch=1 n=c5 v=127
93025 Off ch=1 n=c5 v=127
93025 Off ch=8 n=g5 v=127
93025 Off ch=3 n=d6 v=127
93028 On ch=7 n=f#4 v=127
93028 On ch=11 n=a5 v=127
93028 On ch=3 n=d6 v=127
93134 Off ch=7 n=f#4 v=127
93137 On ch=3 n=d5 v=127
93243 Off ch=3 n=d5 v=127
93243 Off ch=3 n=d6 v=127
93243 Off ch=11 n=a5 v=127
93246 On ch=8 n=g4 v=127
93246 On ch=13 n=b5 v=127
93246 On ch=3 n=d6 v=127
93352 Off ch=8 n=g4 v=127
93355 On ch=5 n=e5 v=127
93461 Off ch=5 n=e5 v=127
93461 Off ch=3 n=d6 v=127
93461 Off ch=13 n=b5 v=127
93464 On ch=11 n=a4 v=127
93464 On ch=1 n=c6 v=127
93464 On ch=3 n=d6 v=127
93570 Off ch=11 n=a4 v=127
93573 On ch=7 n=f#5 v=127
93679 Off ch=7 n=f#5 v=127
93679 Off ch=3 n=d6 v=127
93679 Off ch=1 n=c6 v=127
93682 On ch=13 n=b4 v=127
93682 On ch=13 n=b5 v=127
93682 On ch=3 n=d6 v=127
93788 Off ch=13 n=b4 v=127
93791 On ch=8 n=g5 v=127
93897 Off ch=8 n=g5 v=127
93897 Off ch=3 n=d6 v=127
93897 Off ch=13 n=b5 v=127
93900 On ch=1 n=c5 v=127
93900 On ch=11 n=a5 v=127
93900 On ch=3 n=d6 v=127
94006 Off ch=1 n=c5 v=127
94007 Off ch=11 n=a5 v=127
94009 On ch=11 n=a5 v=127
94115 Off ch=11 n=a5 v=127
94115 Off ch=3 n=d6 v=127
94118 On ch=3 n=d5 v=127
94118 On ch=3 n=d6 v=127
94224 Off ch=3 n=d5 v=127
94227 On ch=13 n=b5 v=127
94333 Off ch=13 n=b5 v=127
94333 Off ch=3 n=d6 v=127
94336 On ch=5 n=e5 v=127
94336 On ch=3 n=d6 v=127
94442 Off ch=5 n=e5 v=127
94445 On ch=1 n=c6 v=127
94551 Off ch=1 n=c6 v=127
94551 Off ch=3 n=d6 v=127
94554 On ch=7 n=f#5 v=127
94554 On ch=1 n=c7 v=127
94554 On ch=11 n=a6 v=127
94660 Off ch=7 n=f#5 v=127
94663 On ch=3 n=d6 v=127
94769 Off ch=3 n=d6 v=127
94769 Off ch=11 n=a6 v=127
94769 Off ch=1 n=c7 v=127
94772 On ch=8 n=g5 v=127
94772 On ch=3 n=d6 v=127
94882 On ch=8 n=g6 v=127
94882 On ch=13 n=b6 v=127
94937 Off ch=3 n=d6 v=127
94988 Off ch=13 n=b6 v=127
94988 Off ch=8 n=g6 v=127
94988 Off ch=8 n=g5 v=127
94991 On ch=1 n=c5 v=127
94991 On ch=5 n=e6 v=127
95101 On ch=11 n=a6 v=127
95101 On ch=1 n=c7 v=127
95156 Off ch=5 n=e6 v=127
95207 Off ch=1 n=c7 v=127
95207 Off ch=11 n=a6 v=127
95207 Off ch=1 n=c5 v=127
95210 On ch=3 n=d5 v=127
95210 On ch=3 n=d6 v=127
95320 On ch=8 n=g6 v=127
95320 On ch=13 n=b6 v=127
95375 Off ch=3 n=d6 v=127
95426 Off ch=13 n=b6 v=127
95426 Off ch=8 n=g6 v=127
95429 On ch=3 n=d4 v=127
95429 On ch=1 n=c6 v=127
95539 On ch=11 n=a6 v=127
95539 On ch=7 n=f#6 v=127
95594 Off ch=1 n=c6 v=127
95644 Off ch=3 n=d5 v=127
95645 Off ch=7 n=f#6 v=127
95645 Off ch=11 n=a6 v=127
95645 Off ch=3 n=d4 v=127
95648 On ch=8 n=g5 v=127
95648 On ch=3 n=d6 v=127
95758 On ch=13 n=b6 v=127
95758 On ch=8 n=g6 v=127
95813 Off ch=3 n=d6 v=127
95864 Off ch=8 n=g6 v=127
95864 Off ch=13 n=b6 v=127
95864 Off ch=8 n=g5 v=127
95867 On ch=1 n=c5 v=127
95867 On ch=5 n=e6 v=127
95977 On ch=11 n=a6 v=127
95977 On ch=1 n=c7 v=127
96032 Off ch=5 n=e6 v=127
96083 Off ch=1 n=c7 v=127
96083 Off ch=11 n=a6 v=127
96083 Off ch=1 n=c5 v=127
96086 On ch=3 n=d5 v=127
96086 On ch=3 n=d6 v=127
96196 On ch=13 n=b6 v=127
96196 On ch=8 n=g6 v=127
96251 Off ch=3 n=d6 v=127
96302 Off ch=8 n=g6 v=127
96302 Off ch=13 n=b6 v=127
96305 On ch=3 n=d4 v=127
96305 On ch=1 n=c6 v=127
96415 On ch=11 n=a6 v=127
96415 On ch=7 n=f#6 v=127
96470 Off ch=1 n=c6 v=127
96520 Off ch=3 n=d5 v=127
96521 Off ch=7 n=f#6 v=127
96521 Off ch=11 n=a6 v=127
96521 Off ch=3 n=d4 v=127
96524 On ch=8 n=g5 v=127
96524 On ch=3 n=d6 v=127
96524 On ch=13 n=b5 v=127
96630 Off ch=13 n=b5 v=127
96630 Off ch=3 n=d6 v=127
96633 On ch=13 n=b6 v=127
96739 Off ch=8 n=g5 v=127
96742 On ch=1 n=c5 v=127
96742 On ch=1 n=c6 v=127
96742 On ch=11 n=a5 v=127
96769 Off ch=13 n=b6 v=127
96848 Off ch=11 n=a5 v=127
96848 Off ch=1 n=c6 v=127
96851 On ch=11 n=a6 v=127
96957 Off ch=1 n=c5 v=127
96960 On ch=3 n=d5 v=127
96960 On ch=8 n=g5 v=127
96960 On ch=13 n=b5 v=127
96987 Off ch=11 n=a6 v=127
97066 Off ch=13 n=b5 v=127
97066 Off ch=8 n=g5 v=127
97069 On ch=8 n=g6 v=127
97179 On ch=3 n=d4 v=127
97179 On ch=11 n=a5 v=127
97206 Off ch=8 n=g6 v=127
97285 Off ch=11 n=a5 v=127
97288 Off ch=3 n=d5 v=127
97288 On ch=7 n=f#6 v=127
97394 Off ch=7 n=f#6 v=127
97394 Off ch=3 n=d4 v=127
97397 On ch=8 n=g3 v=127
97397 On ch=8 n=g6 v=127
97503 Off ch=8 n=g6 v=127
97506 On ch=3 n=d6 v=127
97612 Off ch=3 n=d6 v=127
97615 On ch=13 n=b5 v=127
97721 Off ch=13 n=b5 v=127
97724 On ch=8 n=g5 v=127
97830 Off ch=8 n=g5 v=127
97833 On ch=3 n=d5 v=127
97939 Off ch=3 n=d5 v=127
97942 On ch=13 n=b4 v=127
98048 Off ch=13 n=b4 v=127
98051 On ch=8 n=g4 v=127
98157 Off ch=8 n=g4 v=127
98160 On ch=3 n=d4 v=127
98266 Off ch=3 n=d4 v=127
98266 Off ch=8 n=g3 v=127
98281 On ch=8 n=g3 v=127
99488 Off ch=8 n=g3 v=127
101376 Meta TrkEnd
TrkEnd
