MFile 0 1 384
MTrk
0 Meta Copyright "(C) John Sankey 1998"
0 PrCh ch=1 p=6
0 Pb ch=1 v=8192
0 PrCh ch=2 p=6
0 Pb ch=2 v=7602
0 PrCh ch=3 p=6
0 Pb ch=3 v=7920
0 PrCh ch=4 p=6
0 Pb ch=4 v=7839
0 PrCh ch=5 p=6
0 Pb ch=5 v=7632
0 PrCh ch=6 p=6
0 Pb ch=6 v=8112
0 PrCh ch=7 p=6
0 Pb ch=7 v=7567
0 PrCh ch=8 p=6
0 Pb ch=8 v=8062
0 PrCh ch=9 p=6
0 Pb ch=9 v=7680
0 PrCh ch=11 p=6
0 Pb ch=11 v=7728
0 PrCh ch=12 p=6
0 Pb ch=12 v=7984
0 PrCh ch=13 p=6
0 Pb ch=13 v=7639
0 Tempo 500000
55 On ch=3 n=d6 v=127
102 Off ch=3 n=d6 v=127
103 On ch=5 n=e6 v=127
150 Off ch=5 n=e6 v=127
152 On ch=7 n=f#6 v=127
199 Off ch=7 n=f#6 v=127
201 On ch=8 n=g6 v=127
347 On ch=3 n=d6 v=127
491 Off ch=3 n=d6 v=127
493 On ch=13 n=b5 v=127
637 Off ch=13 n=b5 v=127
639 On ch=8 n=g5 v=127
784 Off ch=8 n=g6 v=127
785 On ch=3 n=d5 v=127
929 Off ch=3 n=d5 v=127
931 On ch=13 n=b4 v=127
1075 Off ch=13 n=b4 v=127
1077 On ch=8 n=g4 v=127
1222 Off ch=8 n=g5 v=127
1223 On ch=3 n=d4 v=127
1367 Off ch=3 n=d4 v=127
1369 On ch=13 n=b3 v=127
1513 Off ch=13 n=b3 v=127
1515 On ch=8 n=g3 v=127
1660 Off ch=8 n=g4 v=127
1661 On ch=8 n=g6 v=127
1805 Off ch=8 n=g6 v=127
1807 On ch=3 n=d6 v=127
1951 Off ch=3 n=d6 v=127
1951 Off ch=8 n=g3 v=127
1953 On ch=1 n=c6 v=127
2147 On ch=5 n=e6 v=127
2194 Off ch=5 n=e6 v=127
2196 On ch=7 n=f#6 v=127
2243 Off ch=7 n=f#6 v=127
2245 On ch=8 n=g6 v=127
2291 Off ch=8 n=g6 v=127
2293 On ch=11 n=a6 v=127
2340 Off ch=11 n=a6 v=127
2342 On ch=13 n=b6 v=127
2389 Off ch=13 n=b6 v=127
2389 Off ch=1 n=c6 v=127
2391 On ch=11 n=a5 v=127
2391 On ch=1 n=c7 v=127
2537 On ch=11 n=a6 v=127
2608 Off ch=1 n=c7 v=127
2681 Off ch=11 n=a6 v=127
2683 On ch=7 n=f#6 v=127
2827 Off ch=7 n=f#6 v=127
2827 Off ch=11 n=a5 v=127
2829 On ch=13 n=b5 v=127
3023 On ch=3 n=d6 v=127
3070 Off ch=3 n=d6 v=127
3072 On ch=5 n=e6 v=127
3119 Off ch=5 n=e6 v=127
3121 On ch=7 n=f#6 v=127
3167 Off ch=7 n=f#6 v=127
3169 On ch=8 n=g6 v=127
3216 Off ch=8 n=g6 v=127
3218 On ch=11 n=a6 v=127
3265 Off ch=11 n=a6 v=127
3265 Off ch=13 n=b5 v=127
3267 On ch=8 n=g5 v=127
3267 On ch=13 n=b6 v=127
3413 On ch=8 n=g6 v=127
3484 Off ch=13 n=b6 v=127
3557 Off ch=8 n=g6 v=127
3559 On ch=5 n=e6 v=127
3703 Off ch=5 n=e6 v=127
3703 Off ch=8 n=g5 v=127
3705 On ch=11 n=a5 v=127
3899 On ch=1 n=c6 v=127
3946 Off ch=1 n=c6 v=127
3948 On ch=3 n=d6 v=127
3995 Off ch=3 n=d6 v=127
3997 On ch=5 n=e6 v=127
4043 Off ch=5 n=e6 v=127
4045 On ch=7 n=f#6 v=127
4092 Off ch=7 n=f#6 v=127
4094 On ch=8 n=g6 v=127
4141 Off ch=8 n=g6 v=127
4141 Off ch=11 n=a5 v=127
4143 On ch=7 n=f#5 v=127
4143 On ch=11 n=a6 v=127
4289 On ch=7 n=f#6 v=127
4360 Off ch=11 n=a6 v=127
4433 Off ch=7 n=f#6 v=127
4435 On ch=3 n=d6 v=127
4579 Off ch=3 n=d6 v=127
4579 Off ch=7 n=f#5 v=127
4581 On ch=8 n=g5 v=127
4775 On ch=13 n=b5 v=127
4822 Off ch=13 n=b5 v=127
4824 On ch=1 n=c6 v=127
4871 Off ch=1 n=c6 v=127
4873 On ch=3 n=d6 v=127
4919 Off ch=3 n=d6 v=127
4921 On ch=5 n=e6 v=127
4968 Off ch=5 n=e6 v=127
4970 On ch=7 n=f#6 v=127
5017 Off ch=7 n=f#6 v=127
5017 Off ch=8 n=g5 v=127
5019 On ch=13 n=b5 v=127
5019 On ch=8 n=g6 v=127
5165 On ch=3 n=d6 v=127
5236 Off ch=8 n=g6 v=127
5309 Off ch=3 n=d6 v=127
5311 On ch=7 n=f#6 v=127
5455 Off ch=13 n=b5 v=127
5457 On ch=1 n=c6 v=127
5601 Off ch=7 n=f#6 v=127
5603 On ch=5 n=e6 v=127
5747 Off ch=5 n=e6 v=127
5747 Off ch=1 n=c6 v=127
5749 On ch=13 n=b5 v=127
5749 On ch=3 n=d6 v=127
5893 Off ch=13 n=b5 v=127
5895 On ch=11 n=a5 v=127
6039 Off ch=3 n=d6 v=127
6041 On ch=1 n=c6 v=127
6185 Off ch=1 n=c6 v=127
6185 Off ch=11 n=a5 v=127
6187 On ch=8 n=g5 v=127
6187 On ch=13 n=b5 v=127
6331 Off ch=13 n=b5 v=127
6331 Off ch=8 n=g5 v=127
6333 On ch=3 n=d5 v=127
6333 On ch=13 n=b5 v=127
6379 Off ch=13 n=b5 v=127
6381 On ch=11 n=a5 v=127
6428 Off ch=11 n=a5 v=127
6430 On ch=13 n=b5 v=127
6477 Off ch=13 n=b5 v=127
6477 Off ch=3 n=d5 v=127
6479 On ch=11 n=a4 v=127
6479 On ch=11 n=a5 v=127
6623 Off ch=11 n=a4 v=127
6625 On ch=7 n=f#4 v=127
6769 Off ch=7 n=f#4 v=127
6771 On ch=3 n=d3 v=127
6915 Off ch=11 n=a5 v=127
6917 On ch=3 n=d6 v=127
7061 Off ch=3 n=d6 v=127
7063 On ch=3 n=d5 v=127
7207 Off ch=3 n=d5 v=127
7207 Off ch=3 n=d3 v=127
7209 On ch=3 n=d5 v=127
7209 On ch=1 n=c6 v=127
7255 Off ch=1 n=c6 v=127
7257 On ch=13 n=b5 v=127
7304 Off ch=13 n=b5 v=127
7306 On ch=1 n=c6 v=127
7353 Off ch=1 n=c6 v=127
7353 Off ch=3 n=d5 v=127
7355 On ch=13 n=b4 v=127
7355 On ch=13 n=b5 v=127
7499 Off ch=13 n=b4 v=127
7501 On ch=8 n=g4 v=127
7645 Off ch=8 n=g4 v=127
7647 On ch=3 n=d3 v=127
7791 Off ch=13 n=b5 v=127
7793 On ch=3 n=d6 v=127
7937 Off ch=3 n=d6 v=127
7939 On ch=3 n=d5 v=127
8083 Off ch=3 n=d5 v=127
8083 Off ch=3 n=d3 v=127
8085 On ch=3 n=d5 v=127
8085 On ch=13 n=b5 v=127
8131 Off ch=13 n=b5 v=127
8133 On ch=11 n=a5 v=127
8180 Off ch=11 n=a5 v=127
8182 On ch=13 n=b5 v=127
8229 Off ch=13 n=b5 v=127
8229 Off ch=3 n=d5 v=127
8231 On ch=11 n=a4 v=127
8231 On ch=11 n=a5 v=127
8375 Off ch=11 n=a4 v=127
8377 On ch=7 n=f#4 v=127
8521 Off ch=7 n=f#4 v=127
8523 On ch=3 n=d3 v=127
8667 Off ch=11 n=a5 v=127
8669 On ch=3 n=d6 v=127
8813 Off ch=3 n=d6 v=127
8815 On ch=3 n=d5 v=127
8959 Off ch=3 n=d5 v=127
8959 Off ch=3 n=d3 v=127
8961 On ch=3 n=d5 v=127
8961 On ch=1 n=c6 v=127
9007 Off ch=1 n=c6 v=127
9009 On ch=13 n=b5 v=127
9056 Off ch=13 n=b5 v=127
9058 On ch=1 n=c6 v=127
9105 Off ch=1 n=c6 v=127
9105 Off ch=3 n=d5 v=127
9107 On ch=13 n=b4 v=127
9107 On ch=13 n=b5 v=127
9251 Off ch=13 n=b4 v=127
9253 On ch=8 n=g4 v=127
9397 Off ch=8 n=g4 v=127
9399 On ch=3 n=d3 v=127
9543 Off ch=13 n=b5 v=127
9545 On ch=3 n=d6 v=127
9689 Off ch=3 n=d6 v=127
9691 On ch=3 n=d5 v=127
9835 Off ch=3 n=d5 v=127
9835 Off ch=3 n=d3 v=127
9837 On ch=3 n=d5 v=127
9837 On ch=13 n=b5 v=127
9883 Off ch=13 n=b5 v=127
9885 On ch=11 n=a5 v=127
9932 Off ch=11 n=a5 v=127
9934 On ch=13 n=b5 v=127
9981 Off ch=13 n=b5 v=127
9981 Off ch=3 n=d5 v=127
9983 On ch=11 n=a4 v=127
9983 On ch=11 n=a5 v=127
10127 Off ch=11 n=a4 v=127
10129 On ch=7 n=f#4 v=127
10273 Off ch=7 n=f#4 v=127
10275 On ch=3 n=d3 v=127
10419 Off ch=11 n=a5 v=127
10421 On ch=3 n=d6 v=127
10565 Off ch=3 n=d6 v=127
10567 On ch=11 n=a5 v=127
10711 Off ch=11 n=a5 v=127
10711 Off ch=3 n=d3 v=127
10713 On ch=8 n=g5 v=127
10907 On ch=13 n=b5 v=127
10954 Off ch=13 n=b5 v=127
10956 On ch=2 n=c#6 v=127
11003 Off ch=2 n=c#6 v=127
11005 On ch=3 n=d6 v=127
11051 Off ch=3 n=d6 v=127
11053 On ch=5 n=e6 v=127
11100 Off ch=5 n=e6 v=127
11102 On ch=7 n=f#6 v=127
11149 Off ch=7 n=f#6 v=127
11149 Off ch=8 n=g5 v=127
11151 On ch=5 n=e5 v=127
11151 On ch=8 n=g6 v=127
11297 On ch=5 n=e6 v=127
11368 Off ch=8 n=g6 v=127
11441 Off ch=5 n=e6 v=127
11443 On ch=2 n=c#6 v=127
11587 Off ch=2 n=c#6 v=127
11587 Off ch=5 n=e5 v=127
11589 On ch=7 n=f#5 v=127
11783 On ch=11 n=a5 v=127
11830 Off ch=11 n=a5 v=127
11832 On ch=13 n=b5 v=127
11879 Off ch=13 n=b5 v=127
11881 On ch=2 n=c#6 v=127
11927 Off ch=2 n=c#6 v=127
11929 On ch=3 n=d6 v=127
11976 Off ch=3 n=d6 v=127
11978 On ch=5 n=e6 v=127
12025 Off ch=5 n=e6 v=127
12025 Off ch=7 n=f#5 v=127
12027 On ch=3 n=d5 v=127
12027 On ch=7 n=f#6 v=127
12173 On ch=3 n=d6 v=127
12244 Off ch=7 n=f#6 v=127
12317 Off ch=3 n=d6 v=127
12319 On ch=13 n=b5 v=127
12463 Off ch=13 n=b5 v=127
12463 Off ch=3 n=d5 v=127
12465 On ch=5 n=e5 v=127
12659 On ch=8 n=g5 v=127
12706 Off ch=8 n=g5 v=127
12708 On ch=11 n=a5 v=127
12755 Off ch=11 n=a5 v=127
12757 On ch=13 n=b5 v=127
12803 Off ch=13 n=b5 v=127
12805 On ch=2 n=c#6 v=127
12852 Off ch=2 n=c#6 v=127
12854 On ch=3 n=d6 v=127
12901 Off ch=3 n=d6 v=127
12901 Off ch=5 n=e5 v=127
12903 On ch=2 n=c#5 v=127
12903 On ch=5 n=e6 v=127
13049 On ch=2 n=c#6 v=127
13120 Off ch=5 n=e6 v=127
13193 Off ch=2 n=c#6 v=127
13195 On ch=11 n=a5 v=127
13339 Off ch=11 n=a5 v=127
13339 Off ch=2 n=c#5 v=127
13341 On ch=3 n=d5 v=127
13535 On ch=7 n=f#5 v=127
13582 Off ch=7 n=f#5 v=127
13584 On ch=8 n=g5 v=127
13631 Off ch=8 n=g5 v=127
13633 On ch=11 n=a5 v=127
13679 Off ch=11 n=a5 v=127
13681 On ch=13 n=b5 v=127
13728 Off ch=13 n=b5 v=127
13730 On ch=2 n=c#6 v=127
13777 Off ch=2 n=c#6 v=127
13777 Off ch=3 n=d5 v=127
13779 On ch=7 n=f#5 v=127
13779 On ch=3 n=d6 v=127
13925 On ch=11 n=a5 v=127
13996 Off ch=3 n=d6 v=127
14069 Off ch=11 n=a5 v=127
14071 On ch=2 n=c#6 v=127
14215 Off ch=2 n=c#6 v=127
14215 Off ch=7 n=f#5 v=127
14217 On ch=8 n=g5 v=127
14217 On ch=13 n=b5 v=127
14361 Off ch=13 n=b5 v=127
14363 On ch=8 n=g6 v=127
14507 Off ch=8 n=g6 v=127
14509 On ch=7 n=f#6 v=127
14653 Off ch=8 n=g5 v=127
14655 On ch=9 n=g#5 v=127
14799 Off ch=7 n=f#6 v=127
14801 On ch=5 n=e6 v=127
14945 Off ch=5 n=e6 v=127
14947 On ch=3 n=d6 v=127
15091 Off ch=9 n=g#5 v=127
15093 On ch=11 n=a5 v=127
15139 Off ch=3 n=d6 v=127
15141 On ch=2 n=c#6 v=127
15188 Off ch=2 n=c#6 v=127
15190 On ch=3 n=d6 v=127
15237 Off ch=3 n=d6 v=127
15239 On ch=2 n=c#6 v=127
15532 On ch=11 n=a4 v=127
15724 Off ch=2 n=c#6 v=127
15726 On ch=3 n=d6 v=127
15750 Off ch=11 n=a5 v=127
15773 Off ch=3 n=d6 v=127
15775 On ch=5 n=e6 v=127
15822 Off ch=5 n=e6 v=127
15824 On ch=6 n=f6 v=127
15870 Off ch=6 n=f6 v=127
15872 On ch=8 n=g6 v=127
15919 Off ch=8 n=g6 v=127
15921 On ch=11 n=a6 v=127
15968 Off ch=11 n=a6 v=127
15970 On ch=12 n=a#6 v=127
16114 Off ch=12 n=a#6 v=127
16116 On ch=11 n=a6 v=127
16260 Off ch=11 n=a6 v=127
16262 On ch=8 n=g6 v=127
16406 Off ch=8 n=g6 v=127
16408 On ch=6 n=f6 v=127
16552 Off ch=6 n=f6 v=127
16554 On ch=5 n=e6 v=127
16698 Off ch=5 n=e6 v=127
16700 On ch=3 n=d6 v=127
16844 Off ch=3 n=d6 v=127
16846 Off ch=11 n=a4 v=127
16846 On ch=2 n=c#6 v=127
16990 Off ch=2 n=c#6 v=127
16992 On ch=3 n=d6 v=127
17136 Off ch=3 n=d6 v=127
17138 On ch=5 n=e6 v=127
17282 Off ch=5 n=e6 v=127
17284 On ch=11 n=a5 v=127
17430 On ch=2 n=c#5 v=127
17476 Off ch=2 n=c#5 v=127
17478 On ch=3 n=d5 v=127
17525 Off ch=3 n=d5 v=127
17527 On ch=5 n=e5 v=127
17574 Off ch=5 n=e5 v=127
17576 On ch=6 n=f5 v=127
17622 Off ch=6 n=f5 v=127
17624 On ch=8 n=g5 v=127
17649 Off ch=11 n=a5 v=127
17671 Off ch=8 n=g5 v=127
17673 On ch=11 n=a5 v=127
17720 Off ch=11 n=a5 v=127
17722 On ch=12 n=a#5 v=127
17722 On ch=8 n=g6 v=127
17866 Off ch=8 n=g6 v=127
17866 Off ch=12 n=a#5 v=127
17868 On ch=11 n=a5 v=127
17868 On ch=6 n=f6 v=127
18012 Off ch=6 n=f6 v=127
18012 Off ch=11 n=a5 v=127
18014 On ch=8 n=g5 v=127
18014 On ch=5 n=e6 v=127
18158 Off ch=5 n=e6 v=127
18158 Off ch=8 n=g5 v=127
18160 On ch=6 n=f5 v=127
18160 On ch=3 n=d6 v=127
18304 Off ch=3 n=d6 v=127
18304 Off ch=6 n=f5 v=127
18306 On ch=5 n=e5 v=127
18306 On ch=2 n=c#6 v=127
18450 Off ch=2 n=c#6 v=127
18450 Off ch=5 n=e5 v=127
18452 On ch=3 n=d5 v=127
18452 On ch=3 n=d6 v=127
18596 Off ch=3 n=d6 v=127
18596 Off ch=3 n=d5 v=127
18598 On ch=2 n=c#5 v=127
18598 On ch=5 n=e6 v=127
18742 Off ch=2 n=c#5 v=127
18744 On ch=3 n=d5 v=127
18888 Off ch=3 n=d5 v=127
18890 On ch=5 n=e5 v=127
19034 Off ch=5 n=e5 v=127
19036 On ch=11 n=a4 v=127
19180 Off ch=5 n=e6 v=127
19182 On ch=2 n=c#6 v=127
19228 Off ch=2 n=c#6 v=127
19230 On ch=3 n=d6 v=127
19277 Off ch=3 n=d6 v=127
19279 On ch=5 n=e6 v=127
19326 Off ch=5 n=e6 v=127
19328 On ch=7 n=f#6 v=127
19374 Off ch=7 n=f#6 v=127
19376 On ch=8 n=g6 v=127
19423 Off ch=8 n=g6 v=127
19425 On ch=11 n=a6 v=127
19472 Off ch=11 n=a6 v=127
19472 Off ch=11 n=a4 v=127
19474 On ch=8 n=g5 v=127
19474 On ch=12 n=a#6 v=127
19618 Off ch=12 n=a#6 v=127
19618 Off ch=8 n=g5 v=127
19620 On ch=6 n=f5 v=127
19620 On ch=11 n=a6 v=127
19764 Off ch=11 n=a6 v=127
19764 Off ch=6 n=f5 v=127
19766 On ch=5 n=e5 v=127
19766 On ch=8 n=g6 v=127
19910 Off ch=8 n=g6 v=127
19910 Off ch=5 n=e5 v=127
19912 On ch=3 n=d5 v=127
19912 On ch=6 n=f6 v=127
20056 Off ch=6 n=f6 v=127
20056 Off ch=3 n=d5 v=127
20058 On ch=1 n=c5 v=127
20058 On ch=5 n=e6 v=127
20202 Off ch=5 n=e6 v=127
20202 Off ch=1 n=c5 v=127
20204 On ch=12 n=a#4 v=127
20204 On ch=3 n=d6 v=127
20348 Off ch=3 n=d6 v=127
20348 Off ch=12 n=a#4 v=127
20350 On ch=11 n=a6 v=127
20350 On ch=11 n=a5 v=127
20496 On ch=11 n=a3 v=127
20640 Off ch=11 n=a3 v=127
20642 On ch=13 n=b3 v=127
20786 Off ch=13 n=b3 v=127
20788 On ch=2 n=c#4 v=127
20932 Off ch=11 n=a5 v=127
20932 Off ch=11 n=a6 v=127
20934 On ch=11 n=a6 v=127
20934 On ch=11 n=a5 v=127
21078 Off ch=2 n=c#4 v=127
21080 On ch=3 n=d4 v=127
21224 Off ch=3 n=d4 v=127
21226 On ch=5 n=e4 v=127
21370 Off ch=11 n=a5 v=127
21370 Off ch=11 n=a6 v=127
21372 On ch=11 n=a5 v=127
21372 On ch=11 n=a6 v=127
21516 Off ch=5 n=e4 v=127
21518 On ch=7 n=f#4 v=127
21662 Off ch=7 n=f#4 v=127
21664 On ch=8 n=g4 v=127
21808 Off ch=11 n=a6 v=127
21808 Off ch=11 n=a5 v=127
21810 On ch=11 n=a5 v=127
21810 On ch=11 n=a6 v=127
21954 Off ch=8 n=g4 v=127
21956 On ch=11 n=a4 v=127
22100 Off ch=11 n=a4 v=127
22102 On ch=13 n=b4 v=127
22246 Off ch=11 n=a6 v=127
22246 Off ch=11 n=a5 v=127
22248 On ch=11 n=a5 v=127
22248 On ch=11 n=a6 v=127
22392 Off ch=13 n=b4 v=127
22394 On ch=2 n=c#5 v=127
22538 Off ch=2 n=c#5 v=127
22540 On ch=3 n=d5 v=127
22684 Off ch=11 n=a6 v=127
22684 Off ch=11 n=a5 v=127
22686 On ch=11 n=a5 v=127
22686 On ch=11 n=a6 v=127
22830 Off ch=3 n=d5 v=127
22832 On ch=5 n=e5 v=127
22976 Off ch=5 n=e5 v=127
22978 On ch=7 n=f#5 v=127
23122 Off ch=11 n=a6 v=127
23122 Off ch=11 n=a5 v=127
23124 On ch=11 n=a5 v=127
23124 On ch=11 n=a6 v=127
23268 Off ch=7 n=f#5 v=127
23270 On ch=8 n=g5 v=127
23406 Off ch=11 n=a5 v=127
23414 Off ch=8 n=g5 v=127
23416 On ch=11 n=a5 v=127
23560 Off ch=11 n=a6 v=127
23562 On ch=11 n=a6 v=127
23706 Off ch=11 n=a5 v=127
23708 On ch=13 n=b5 v=127
23852 Off ch=13 n=b5 v=127
23854 On ch=2 n=c#6 v=127
23998 Off ch=11 n=a6 v=127
24000 On ch=8 n=g6 v=127
24144 Off ch=8 n=g6 v=127
24144 Off ch=2 n=c#6 v=127
24146 On ch=3 n=d6 v=127
24146 On ch=7 n=f#6 v=127
24290 Off ch=7 n=f#6 v=127
24290 Off ch=3 n=d6 v=127
24292 On ch=8 n=g5 v=127
24292 On ch=8 n=g6 v=127
24436 Off ch=8 n=g6 v=127
24438 On ch=7 n=f#6 v=127
24582 Off ch=7 n=f#6 v=127
24582 Off ch=8 n=g5 v=127
24584 On ch=11 n=a5 v=127
24584 On ch=5 n=e6 v=127
24728 Off ch=5 n=e6 v=127
24728 Off ch=11 n=a5 v=127
24730 On ch=11 n=a6 v=127
24730 On ch=11 n=a5 v=127
24876 On ch=11 n=a3 v=127
25020 Off ch=11 n=a3 v=127
25022 On ch=13 n=b3 v=127
25166 Off ch=13 n=b3 v=127
25166 Off ch=11 n=a5 v=127
25166 Off ch=11 n=a6 v=127
25168 On ch=2 n=c#4 v=127
25168 On ch=11 n=a5 v=127
25168 On ch=11 n=a6 v=127
25312 Off ch=2 n=c#4 v=127
25314 On ch=2 n=c#4 v=127
25458 Off ch=2 n=c#4 v=127
25460 On ch=3 n=d4 v=127
25604 Off ch=3 n=d4 v=127
25604 Off ch=11 n=a6 v=127
25604 Off ch=11 n=a5 v=127
25606 On ch=5 n=e4 v=127
25606 On ch=11 n=a5 v=127
25606 On ch=11 n=a6 v=127
25750 Off ch=5 n=e4 v=127
25752 On ch=5 n=e4 v=127
25896 Off ch=5 n=e4 v=127
25898 On ch=7 n=f#4 v=127
26042 Off ch=7 n=f#4 v=127
26042 Off ch=11 n=a6 v=127
26042 Off ch=11 n=a5 v=127
26044 On ch=8 n=g4 v=127
26044 On ch=11 n=a6 v=127
26044 On ch=11 n=a5 v=127
26188 Off ch=8 n=g4 v=127
26190 On ch=8 n=g4 v=127
26334 Off ch=8 n=g4 v=127
26336 On ch=11 n=a4 v=127
26480 Off ch=11 n=a4 v=127
26480 Off ch=11 n=a5 v=127
26480 Off ch=11 n=a6 v=127
26482 On ch=13 n=b4 v=127
26482 On ch=11 n=a5 v=127
26482 On ch=11 n=a6 v=127
26626 Off ch=13 n=b4 v=127
26628 On ch=13 n=b4 v=127
26772 Off ch=13 n=b4 v=127
26774 On ch=2 n=c#5 v=127
26918 Off ch=2 n=c#5 v=127
26918 Off ch=11 n=a6 v=127
26918 Off ch=11 n=a5 v=127
26920 On ch=3 n=d5 v=127
26920 On ch=11 n=a5 v=127
26920 On ch=11 n=a6 v=127
27064 Off ch=3 n=d5 v=127
27066 On ch=3 n=d5 v=127
27210 Off ch=3 n=d5 v=127
27212 On ch=5 n=e5 v=127
27356 Off ch=5 n=e5 v=127
27356 Off ch=11 n=a6 v=127
27356 Off ch=11 n=a5 v=127
27358 On ch=7 n=f#5 v=127
27358 On ch=11 n=a6 v=127
27358 On ch=11 n=a5 v=127
27502 Off ch=7 n=f#5 v=127
27504 On ch=7 n=f#5 v=127
27648 Off ch=7 n=f#5 v=127
27650 On ch=8 n=g5 v=127
27794 Off ch=8 n=g5 v=127
27794 Off ch=11 n=a5 v=127
27794 Off ch=11 n=a6 v=127
27796 On ch=11 n=a5 v=127
27796 On ch=11 n=a6 v=127
27940 Off ch=11 n=a5 v=127
27942 On ch=11 n=a5 v=127
28086 Off ch=11 n=a5 v=127
28088 On ch=13 n=b5 v=127
28232 Off ch=13 n=b5 v=127
28232 Off ch=11 n=a6 v=127
28234 On ch=2 n=c#6 v=127
28234 On ch=11 n=a6 v=127
28378 Off ch=11 n=a6 v=127
28380 On ch=8 n=g6 v=127
28524 Off ch=8 n=g6 v=127
28524 Off ch=2 n=c#6 v=127
28526 On ch=3 n=d6 v=127
28526 On ch=7 n=f#6 v=127
28670 Off ch=7 n=f#6 v=127
28670 Off ch=3 n=d6 v=127
28672 On ch=8 n=g5 v=127
28672 On ch=8 n=g6 v=127
28816 Off ch=8 n=g6 v=127
28818 On ch=7 n=f#6 v=127
28962 Off ch=7 n=f#6 v=127
28962 Off ch=8 n=g5 v=127
28964 On ch=11 n=a5 v=127
28964 On ch=5 n=e6 v=127
29108 Off ch=5 n=e6 v=127
29108 Off ch=11 n=a5 v=127
29110 On ch=3 n=d5 v=127
29110 On ch=7 n=f#6 v=127
29254 Off ch=7 n=f#6 v=127
29256 On ch=3 n=d6 v=127
29400 Off ch=3 n=d6 v=127
29400 Off ch=3 n=d5 v=127
29402 On ch=8 n=g5 v=127
29402 On ch=13 n=b6 v=127
29546 Off ch=13 n=b6 v=127
29546 Off ch=8 n=g5 v=127
29548 On ch=11 n=a5 v=127
29548 On ch=7 n=f#6 v=127
29594 Off ch=7 n=f#6 v=127
29596 On ch=5 n=e6 v=127
29643 Off ch=5 n=e6 v=127
29645 On ch=7 n=f#6 v=127
29692 Off ch=7 n=f#6 v=127
29694 On ch=5 n=e6 v=127
29838 Off ch=11 n=a5 v=127
29840 On ch=11 n=a4 v=127
29886 Off ch=5 n=e6 v=127
29888 On ch=3 n=d6 v=127
29935 Off ch=3 n=d6 v=127
29937 On ch=5 n=e6 v=127
29984 Off ch=5 n=e6 v=127
29984 Off ch=11 n=a4 v=127
29986 On ch=3 n=d5 v=127
29986 On ch=7 n=f#6 v=127
30130 Off ch=7 n=f#6 v=127
30132 On ch=3 n=d6 v=127
30276 Off ch=3 n=d6 v=127
30276 Off ch=3 n=d5 v=127
30278 On ch=8 n=g5 v=127
30278 On ch=13 n=b6 v=127
30422 Off ch=13 n=b6 v=127
30422 Off ch=8 n=g5 v=127
30424 On ch=11 n=a5 v=127
30424 On ch=7 n=f#6 v=127
30470 Off ch=7 n=f#6 v=127
30472 On ch=5 n=e6 v=127
30519 Off ch=5 n=e6 v=127
30521 On ch=7 n=f#6 v=127
30568 Off ch=7 n=f#6 v=127
30570 On ch=5 n=e6 v=127
30714 Off ch=11 n=a5 v=127
30716 On ch=11 n=a4 v=127
30762 Off ch=5 n=e6 v=127
30764 On ch=3 n=d6 v=127
30811 Off ch=3 n=d6 v=127
30813 On ch=5 n=e6 v=127
30860 Off ch=5 n=e6 v=127
30860 Off ch=11 n=a4 v=127
30862 On ch=3 n=d5 v=127
30862 On ch=7 n=f#6 v=127
31006 Off ch=7 n=f#6 v=127
31008 On ch=3 n=d6 v=127
31152 Off ch=3 n=d6 v=127
31152 Off ch=3 n=d5 v=127
31154 On ch=8 n=g5 v=127
31154 On ch=13 n=b6 v=127
31298 Off ch=13 n=b6 v=127
31298 Off ch=8 n=g5 v=127
31300 On ch=11 n=a5 v=127
31300 On ch=7 n=f#6 v=127
31346 Off ch=7 n=f#6 v=127
31348 On ch=5 n=e6 v=127
31395 Off ch=5 n=e6 v=127
31397 On ch=7 n=f#6 v=127
31444 Off ch=7 n=f#6 v=127
31446 On ch=5 n=e6 v=127
31590 Off ch=11 n=a5 v=127
31592 On ch=11 n=a4 v=127
31642 Off ch=5 n=e6 v=127
31642 On ch=3 n=d6 v=127
31689 Off ch=3 n=d6 v=127
31690 On ch=2 n=c#6 v=127
31736 Off ch=11 n=a4 v=127
31737 Off ch=2 n=c#6 v=127
31738 On ch=3 n=d6 v=127
31884 On ch=11 n=a5 v=127
32028 Off ch=11 n=a5 v=127
32030 On ch=7 n=f#5 v=127
32174 Off ch=7 n=f#5 v=127
32176 On ch=3 n=d5 v=127
32320 Off ch=3 n=d5 v=127
32322 On ch=11 n=a4 v=127
32466 Off ch=11 n=a4 v=127
32468 On ch=7 n=f#4 v=127
32612 Off ch=7 n=f#4 v=127
32614 On ch=3 n=d4 v=127
32758 Off ch=3 n=d4 v=127
32760 On ch=11 n=a3 v=127
32904 Off ch=11 n=a3 v=127
32906 On ch=7 n=f#3 v=127
33050 Off ch=7 n=f#3 v=127
33052 Off ch=3 n=d6 v=127
33052 On ch=3 n=d3 v=127
33345 On ch=11 n=a5 v=127
33391 Off ch=11 n=a5 v=127
33393 On ch=13 n=b5 v=127
33440 Off ch=13 n=b5 v=127
33442 On ch=2 n=c#6 v=127
33489 Off ch=2 n=c#6 v=127
33490 Off ch=3 n=d3 v=127
33491 On ch=3 n=d6 v=127
33637 On ch=11 n=a5 v=127
33781 Off ch=11 n=a5 v=127
33783 On ch=7 n=f#5 v=127
33927 Off ch=7 n=f#5 v=127
33929 On ch=3 n=d5 v=127
34074 Off ch=3 n=d6 v=127
34075 On ch=11 n=a4 v=127
34219 Off ch=11 n=a4 v=127
34221 On ch=7 n=f#4 v=127
34365 Off ch=7 n=f#4 v=127
34367 On ch=3 n=d4 v=127
34512 Off ch=3 n=d5 v=127
34513 On ch=11 n=a3 v=127
34657 Off ch=11 n=a3 v=127
34659 On ch=7 n=f#3 v=127
34803 Off ch=7 n=f#3 v=127
34805 On ch=3 n=d3 v=127
34950 Off ch=3 n=d4 v=127
34951 On ch=3 n=d6 v=127
35095 Off ch=3 n=d6 v=127
35097 On ch=11 n=a5 v=127
35241 Off ch=11 n=a5 v=127
35241 Off ch=3 n=d3 v=127
35243 On ch=8 n=g5 v=127
35437 On ch=13 n=b5 v=127
35484 Off ch=13 n=b5 v=127
35486 On ch=2 n=c#6 v=127
35533 Off ch=2 n=c#6 v=127
35535 On ch=3 n=d6 v=127
35581 Off ch=3 n=d6 v=127
35583 On ch=5 n=e6 v=127
35630 Off ch=5 n=e6 v=127
35632 On ch=7 n=f#6 v=127
35679 Off ch=7 n=f#6 v=127
35679 Off ch=8 n=g5 v=127
35681 On ch=5 n=e5 v=127
35681 On ch=8 n=g6 v=127
35827 On ch=5 n=e6 v=127
35898 Off ch=8 n=g6 v=127
35971 Off ch=5 n=e6 v=127
35973 On ch=2 n=c#6 v=127
36117 Off ch=2 n=c#6 v=127
36117 Off ch=5 n=e5 v=127
36119 On ch=7 n=f#5 v=127
36313 On ch=11 n=a5 v=127
36360 Off ch=11 n=a5 v=127
36362 On ch=13 n=b5 v=127
36409 Off ch=13 n=b5 v=127
36411 On ch=2 n=c#6 v=127
36457 Off ch=2 n=c#6 v=127
36459 On ch=3 n=d6 v=127
36506 Off ch=3 n=d6 v=127
36508 On ch=5 n=e6 v=127
36555 Off ch=5 n=e6 v=127
36555 Off ch=7 n=f#5 v=127
36557 On ch=3 n=d5 v=127
36557 On ch=7 n=f#6 v=127
36703 On ch=3 n=d6 v=127
36774 Off ch=7 n=f#6 v=127
36847 Off ch=3 n=d6 v=127
36849 On ch=13 n=b5 v=127
36993 Off ch=13 n=b5 v=127
36993 Off ch=3 n=d5 v=127
36995 On ch=5 n=e5 v=127
37189 On ch=8 n=g5 v=127
37236 Off ch=8 n=g5 v=127
37238 On ch=11 n=a5 v=127
37285 Off ch=11 n=a5 v=127
37287 On ch=13 n=b5 v=127
37333 Off ch=13 n=b5 v=127
37335 On ch=2 n=c#6 v=127
37382 Off ch=2 n=c#6 v=127
37384 On ch=3 n=d6 v=127
37431 Off ch=3 n=d6 v=127
37433 On ch=5 n=e6 v=127
37577 Off ch=5 n=e6 v=127
37579 On ch=3 n=d6 v=127
37723 Off ch=3 n=d6 v=127
37723 Off ch=5 n=e5 v=127
37725 On ch=7 n=f#5 v=127
37725 On ch=2 n=c#6 v=127
37869 Off ch=2 n=c#6 v=127
37869 Off ch=7 n=f#5 v=127
37871 On ch=8 n=g5 v=127
37871 On ch=13 n=b5 v=127
38015 Off ch=13 n=b5 v=127
38017 On ch=12 n=a#5 v=127
38161 Off ch=12 n=a#5 v=127
38161 Off ch=8 n=g5 v=127
38163 On ch=7 n=f#5 v=127
38163 On ch=13 n=b5 v=127
38307 Off ch=13 n=b5 v=127
38307 Off ch=7 n=f#5 v=127
38309 On ch=5 n=e5 v=127
38309 On ch=5 n=e6 v=127
38453 Off ch=5 n=e6 v=127
38455 On ch=3 n=d6 v=127
38599 Off ch=3 n=d6 v=127
38599 Off ch=5 n=e5 v=127
38601 On ch=7 n=f#5 v=127
38601 On ch=2 n=c#6 v=127
38745 Off ch=2 n=c#6 v=127
38745 Off ch=7 n=f#5 v=127
38747 On ch=8 n=g5 v=127
38747 On ch=13 n=b5 v=127
38891 Off ch=13 n=b5 v=127
38893 On ch=12 n=a#5 v=127
39037 Off ch=12 n=a#5 v=127
39037 Off ch=8 n=g5 v=127
39039 On ch=7 n=f#5 v=127
39039 On ch=13 n=b5 v=127
39183 Off ch=13 n=b5 v=127
39183 Off ch=7 n=f#5 v=127
39185 On ch=5 n=e5 v=127
39185 On ch=5 n=e6 v=127
39329 Off ch=5 n=e6 v=127
39331 On ch=3 n=d6 v=127
39475 Off ch=3 n=d6 v=127
39475 Off ch=5 n=e5 v=127
39477 On ch=7 n=f#5 v=127
39477 On ch=2 n=c#6 v=127
39621 Off ch=2 n=c#6 v=127
39621 Off ch=7 n=f#5 v=127
39623 On ch=8 n=g5 v=127
39623 On ch=13 n=b6 v=127
39623 On ch=13 n=b5 v=127
39767 Off ch=13 n=b6 v=127
39769 On ch=11 n=a6 v=127
39913 Off ch=11 n=a6 v=127
39915 On ch=8 n=g6 v=127
40057 Off ch=13 n=b5 v=127
40059 Off ch=8 n=g6 v=127
40059 Off ch=8 n=g5 v=127
40061 On ch=11 n=a5 v=127
40061 On ch=7 n=f#6 v=127
40205 Off ch=7 n=f#6 v=127
40207 On ch=8 n=g6 v=127
40351 Off ch=8 n=g6 v=127
40353 On ch=5 n=e6 v=127
40497 Off ch=5 n=e6 v=127
40497 Off ch=11 n=a5 v=127
40499 On ch=13 n=b5 v=127
40499 On ch=4 n=d#6 v=127
40643 Off ch=4 n=d#6 v=127
40693 On ch=1 n=c6 v=127
40740 Off ch=1 n=c6 v=127
40742 On ch=4 n=d#6 v=127
40789 Off ch=4 n=d#6 v=127
40791 On ch=5 n=e6 v=127
40837 Off ch=5 n=e6 v=127
40839 On ch=7 n=f#6 v=127
40886 Off ch=7 n=f#6 v=127
40888 On ch=8 n=g6 v=127
40935 Off ch=8 n=g6 v=127
40937 On ch=11 n=a6 v=127
41081 Off ch=11 n=a6 v=127
41083 On ch=8 n=g6 v=127
41227 Off ch=8 n=g6 v=127
41227 Off ch=13 n=b5 v=127
41229 On ch=13 n=b5 v=127
41229 On ch=7 n=f#6 v=127
41373 Off ch=7 n=f#6 v=127
41373 Off ch=13 n=b5 v=127
41375 On ch=1 n=c6 v=127
41375 On ch=5 n=e6 v=127
41519 Off ch=5 n=e6 v=127
41521 On ch=4 n=d#6 v=127
41665 Off ch=4 n=d#6 v=127
41665 Off ch=1 n=c6 v=127
41667 On ch=13 n=b5 v=127
41667 On ch=5 n=e6 v=127
41811 Off ch=5 n=e6 v=127
41811 Off ch=13 n=b5 v=127
41813 On ch=11 n=a5 v=127
41813 On ch=11 n=a6 v=127
41957 Off ch=11 n=a6 v=127
41959 On ch=8 n=g6 v=127
42103 Off ch=8 n=g6 v=127
42103 Off ch=11 n=a5 v=127
42105 On ch=13 n=b5 v=127
42105 On ch=7 n=f#6 v=127
42249 Off ch=7 n=f#6 v=127
42249 Off ch=13 n=b5 v=127
42251 On ch=1 n=c6 v=127
42251 On ch=5 n=e6 v=127
42395 Off ch=5 n=e6 v=127
42397 On ch=4 n=d#6 v=127
42541 Off ch=4 n=d#6 v=127
42541 Off ch=1 n=c6 v=127
42543 On ch=13 n=b5 v=127
42543 On ch=5 n=e6 v=127
42687 Off ch=5 n=e6 v=127
42687 Off ch=13 n=b5 v=127
42689 On ch=11 n=a5 v=127
42689 On ch=11 n=a6 v=127
42833 Off ch=11 n=a6 v=127
42835 On ch=8 n=g6 v=127
42979 Off ch=8 n=g6 v=127
42979 Off ch=11 n=a5 v=127
42981 On ch=13 n=b5 v=127
42981 On ch=7 n=f#6 v=127
43125 Off ch=7 n=f#6 v=127
43125 Off ch=13 n=b5 v=127
43127 On ch=8 n=g5 v=127
43127 On ch=13 n=b6 v=127
43271 Off ch=13 n=b6 v=127
43273 On ch=11 n=a6 v=127
43417 Off ch=11 n=a6 v=127
43417 Off ch=8 n=g5 v=127
43419 On ch=5 n=e5 v=127
43419 On ch=8 n=g6 v=127
43563 Off ch=8 n=g6 v=127
43563 Off ch=5 n=e5 v=127
43565 On ch=11 n=a5 v=127
43565 On ch=7 n=f#6 v=127
43709 Off ch=7 n=f#6 v=127
43709 Off ch=11 n=a5 v=127
43711 On ch=13 n=b5 v=127
43711 On ch=8 n=g6 v=127
43855 Off ch=8 n=g6 v=127
43855 Off ch=13 n=b5 v=127
43857 On ch=1 n=c6 v=127
43857 On ch=5 n=e6 v=127
43994 Off ch=1 n=c6 v=127
44001 Off ch=5 n=e6 v=127
44003 On ch=13 n=b5 v=127
44003 On ch=13 n=b6 v=127
44149 On ch=13 n=b3 v=127
44293 Off ch=13 n=b3 v=127
44295 On ch=2 n=c#4 v=127
44439 Off ch=2 n=c#4 v=127
44441 On ch=4 n=d#4 v=127
44585 Off ch=13 n=b6 v=127
44585 Off ch=13 n=b5 v=127
44587 On ch=13 n=b6 v=127
44587 On ch=13 n=b5 v=127
44731 Off ch=4 n=d#4 v=127
44733 On ch=5 n=e4 v=127
44877 Off ch=5 n=e4 v=127
44879 On ch=7 n=f#4 v=127
45023 Off ch=13 n=b5 v=127
45023 Off ch=13 n=b6 v=127
45025 On ch=13 n=b5 v=127
45025 On ch=13 n=b6 v=127
45169 Off ch=7 n=f#4 v=127
45171 On ch=8 n=g4 v=127
45315 Off ch=8 n=g4 v=127
45317 On ch=11 n=a4 v=127
45461 Off ch=13 n=b6 v=127
45461 Off ch=13 n=b5 v=127
45463 On ch=13 n=b5 v=127
45463 On ch=13 n=b6 v=127
45607 Off ch=11 n=a4 v=127
45609 On ch=13 n=b4 v=127
45753 Off ch=13 n=b4 v=127
45755 On ch=2 n=c#5 v=127
45899 Off ch=13 n=b6 v=127
45899 Off ch=13 n=b5 v=127
45901 On ch=13 n=b5 v=127
45901 On ch=13 n=b6 v=127
46045 Off ch=2 n=c#5 v=127
46047 On ch=4 n=d#5 v=127
46191 Off ch=4 n=d#5 v=127
46193 On ch=5 n=e5 v=127
46337 Off ch=13 n=b6 v=127
46337 Off ch=13 n=b5 v=127
46339 On ch=13 n=b6 v=127
46339 On ch=13 n=b5 v=127
46483 Off ch=5 n=e5 v=127
46485 On ch=7 n=f#5 v=127
46629 Off ch=7 n=f#5 v=127
46631 On ch=8 n=g5 v=127
46775 Off ch=13 n=b5 v=127
46775 Off ch=13 n=b6 v=127
46777 On ch=13 n=b5 v=127
46777 On ch=13 n=b6 v=127
46921 Off ch=8 n=g5 v=127
46923 On ch=11 n=a5 v=127
47004 Off ch=13 n=b5 v=127
47067 Off ch=11 n=a5 v=127
47069 On ch=13 n=b5 v=127
47213 Off ch=13 n=b6 v=127
47215 On ch=13 n=b6 v=127
47359 Off ch=13 n=b5 v=127
47361 On ch=2 n=c#6 v=127
47505 Off ch=2 n=c#6 v=127
47507 On ch=4 n=d#6 v=127
47651 Off ch=13 n=b6 v=127
47653 On ch=11 n=a6 v=127
47797 Off ch=11 n=a6 v=127
47797 Off ch=4 n=d#6 v=127
47799 On ch=5 n=e6 v=127
47799 On ch=8 n=g6 v=127
47943 Off ch=8 n=g6 v=127
47943 Off ch=5 n=e6 v=127
47945 On ch=11 n=a5 v=127
47945 On ch=11 n=a6 v=127
48089 Off ch=11 n=a6 v=127
48091 On ch=8 n=g6 v=127
48235 Off ch=8 n=g6 v=127
48235 Off ch=11 n=a5 v=127
48237 On ch=13 n=b5 v=127
48237 On ch=7 n=f#6 v=127
48381 Off ch=7 n=f#6 v=127
48381 Off ch=13 n=b5 v=127
48383 On ch=5 n=e5 v=127
48383 On ch=8 n=g6 v=127
48575 Off ch=8 n=g6 v=127
48577 On ch=5 n=e6 v=127
48624 Off ch=5 n=e6 v=127
48626 On ch=7 n=f#6 v=127
48673 Off ch=7 n=f#6 v=127
48675 On ch=8 n=g6 v=127
48721 Off ch=8 n=g6 v=127
48723 On ch=11 n=a6 v=127
48770 Off ch=11 n=a6 v=127
48772 On ch=13 n=b6 v=127
48819 Off ch=13 n=b6 v=127
48821 On ch=1 n=c7 v=127
48965 Off ch=5 n=e5 v=127
48967 On ch=1 n=c6 v=127
49111 Off ch=1 n=c6 v=127
49113 On ch=11 n=a5 v=127
49257 Off ch=11 n=a5 v=127
49259 On ch=3 n=d4 v=127
49451 Off ch=1 n=c7 v=127
49453 On ch=3 n=d6 v=127
49500 Off ch=3 n=d6 v=127
49502 On ch=5 n=e6 v=127
49549 Off ch=5 n=e6 v=127
49551 On ch=7 n=f#6 v=127
49597 Off ch=7 n=f#6 v=127
49599 On ch=8 n=g6 v=127
49646 Off ch=8 n=g6 v=127
49648 On ch=11 n=a6 v=127
49695 Off ch=11 n=a6 v=127
49697 On ch=13 n=b6 v=127
49841 Off ch=3 n=d4 v=127
49843 On ch=13 n=b5 v=127
49987 Off ch=13 n=b5 v=127
49989 On ch=8 n=g5 v=127
50133 Off ch=8 n=g5 v=127
50135 On ch=1 n=c4 v=127
50327 Off ch=13 n=b6 v=127
50329 On ch=1 n=c6 v=127
50376 Off ch=1 n=c6 v=127
50378 On ch=3 n=d6 v=127
50425 Off ch=3 n=d6 v=127
50427 On ch=5 n=e6 v=127
50473 Off ch=5 n=e6 v=127
50475 On ch=7 n=f#6 v=127
50522 Off ch=7 n=f#6 v=127
50524 On ch=8 n=g6 v=127
50571 Off ch=8 n=g6 v=127
50573 On ch=11 n=a6 v=127
50717 Off ch=1 n=c4 v=127
50719 On ch=11 n=a5 v=127
50863 Off ch=11 n=a5 v=127
50865 On ch=7 n=f#5 v=127
51009 Off ch=7 n=f#5 v=127
51011 On ch=13 n=b3 v=127
51203 Off ch=11 n=a6 v=127
51205 On ch=13 n=b5 v=127
51252 Off ch=13 n=b5 v=127
51254 On ch=1 n=c6 v=127
51301 Off ch=1 n=c6 v=127
51303 On ch=3 n=d6 v=127
51349 Off ch=3 n=d6 v=127
51351 On ch=5 n=e6 v=127
51398 Off ch=5 n=e6 v=127
51400 On ch=7 n=f#6 v=127
51447 Off ch=7 n=f#6 v=127
51449 On ch=8 n=g6 v=127
51593 Off ch=13 n=b3 v=127
51595 On ch=8 n=g5 v=127
51739 Off ch=8 n=g5 v=127
51741 On ch=5 n=e5 v=127
51885 Off ch=5 n=e5 v=127
51887 On ch=11 n=a3 v=127
52079 Off ch=8 n=g6 v=127
52081 On ch=11 n=a5 v=127
52128 Off ch=11 n=a5 v=127
52130 On ch=13 n=b5 v=127
52177 Off ch=13 n=b5 v=127
52179 On ch=1 n=c6 v=127
52225 Off ch=1 n=c6 v=127
52227 On ch=3 n=d6 v=127
52274 Off ch=3 n=d6 v=127
52276 On ch=5 n=e6 v=127
52323 Off ch=5 n=e6 v=127
52325 On ch=7 n=f#6 v=127
52469 Off ch=11 n=a3 v=127
52471 On ch=7 n=f#5 v=127
52615 Off ch=7 n=f#5 v=127
52617 On ch=3 n=d5 v=127
52761 Off ch=3 n=d5 v=127
52763 On ch=8 n=g3 v=127
52907 Off ch=7 n=f#6 v=127
52909 On ch=8 n=g5 v=127
52980 Off ch=8 n=g5 v=127
52982 On ch=11 n=a5 v=127
53053 Off ch=11 n=a5 v=127
53055 On ch=13 n=b5 v=127
53126 Off ch=13 n=b5 v=127
53128 On ch=1 n=c6 v=127
53199 Off ch=1 n=c6 v=127
53199 Off ch=8 n=g3 v=127
53201 On ch=13 n=b4 v=127
53201 On ch=3 n=d6 v=127
53345 Off ch=3 n=d6 v=127
53345 Off ch=13 n=b4 v=127
53347 On ch=11 n=a4 v=127
53347 On ch=1 n=c6 v=127
53491 Off ch=1 n=c6 v=127
53491 Off ch=11 n=a4 v=127
53493 On ch=8 n=g4 v=127
53493 On ch=13 n=b5 v=127
53637 Off ch=13 n=b5 v=127
53637 Off ch=8 n=g4 v=127
53639 On ch=1 n=c5 v=127
53639 On ch=5 n=e6 v=127
53783 Off ch=5 n=e6 v=127
53783 Off ch=1 n=c5 v=127
53785 On ch=13 n=b4 v=127
53785 On ch=3 n=d6 v=127
53929 Off ch=3 n=d6 v=127
53929 Off ch=13 n=b4 v=127
53931 On ch=11 n=a4 v=127
53931 On ch=1 n=c6 v=127
54075 Off ch=1 n=c6 v=127
54075 Off ch=11 n=a4 v=127
54077 On ch=8 n=g4 v=127
54077 On ch=13 n=b5 v=127
54221 Off ch=13 n=b5 v=127
54221 Off ch=8 n=g4 v=127
54223 On ch=7 n=f#4 v=127
54223 On ch=11 n=a5 v=127
54367 Off ch=11 n=a5 v=127
54367 Off ch=7 n=f#4 v=127
54369 On ch=5 n=e4 v=127
54369 On ch=8 n=g5 v=127
54513 Off ch=8 n=g5 v=127
54513 Off ch=5 n=e4 v=127
54515 On ch=3 n=d5 v=127
54515 On ch=13 n=b5 v=127
54561 Off ch=13 n=b5 v=127
54563 On ch=11 n=a5 v=127
54610 Off ch=11 n=a5 v=127
54612 On ch=13 n=b5 v=127
54659 Off ch=13 n=b5 v=127
54659 Off ch=3 n=d5 v=127
54661 On ch=11 n=a4 v=127
54661 On ch=11 n=a5 v=127
54805 Off ch=11 n=a4 v=127
54807 On ch=7 n=f#4 v=127
54951 Off ch=7 n=f#4 v=127
54953 On ch=3 n=d3 v=127
55097 Off ch=11 n=a5 v=127
55099 On ch=3 n=d6 v=127
55243 Off ch=3 n=d6 v=127
55245 On ch=3 n=d5 v=127
55389 Off ch=3 n=d5 v=127
55389 Off ch=3 n=d3 v=127
55391 On ch=3 n=d5 v=127
55391 On ch=1 n=c6 v=127
55437 Off ch=1 n=c6 v=127
55439 On ch=13 n=b5 v=127
55486 Off ch=13 n=b5 v=127
55488 On ch=1 n=c6 v=127
55535 Off ch=1 n=c6 v=127
55535 Off ch=3 n=d5 v=127
55537 On ch=13 n=b4 v=127
55537 On ch=13 n=b5 v=127
55681 Off ch=13 n=b4 v=127
55683 On ch=8 n=g4 v=127
55827 Off ch=8 n=g4 v=127
55829 On ch=3 n=d3 v=127
55973 Off ch=13 n=b5 v=127
55975 On ch=3 n=d6 v=127
56119 Off ch=3 n=d6 v=127
56121 On ch=3 n=d5 v=127
56265 Off ch=3 n=d5 v=127
56265 Off ch=3 n=d3 v=127
56267 On ch=3 n=d5 v=127
56267 On ch=13 n=b5 v=127
56313 Off ch=13 n=b5 v=127
56315 On ch=11 n=a5 v=127
56362 Off ch=11 n=a5 v=127
56364 On ch=13 n=b5 v=127
56411 Off ch=13 n=b5 v=127
56411 Off ch=3 n=d5 v=127
56413 On ch=11 n=a4 v=127
56413 On ch=11 n=a5 v=127
56557 Off ch=11 n=a4 v=127
56559 On ch=7 n=f#4 v=127
56703 Off ch=7 n=f#4 v=127
56705 On ch=3 n=d3 v=127
56849 Off ch=11 n=a5 v=127
56851 On ch=3 n=d6 v=127
56995 Off ch=3 n=d6 v=127
56997 On ch=3 n=d5 v=127
57141 Off ch=3 n=d5 v=127
57141 Off ch=3 n=d3 v=127
57143 On ch=3 n=d5 v=127
57143 On ch=1 n=c6 v=127
57189 Off ch=1 n=c6 v=127
57191 On ch=13 n=b5 v=127
57238 Off ch=13 n=b5 v=127
57240 On ch=1 n=c6 v=127
57287 Off ch=1 n=c6 v=127
57287 Off ch=3 n=d5 v=127
57289 On ch=13 n=b4 v=127
57289 On ch=13 n=b5 v=127
57433 Off ch=13 n=b4 v=127
57435 On ch=8 n=g4 v=127
57579 Off ch=8 n=g4 v=127
57581 On ch=3 n=d3 v=127
57725 Off ch=13 n=b5 v=127
57727 On ch=3 n=d6 v=127
57871 Off ch=3 n=d6 v=127
57873 On ch=3 n=d5 v=127
58017 Off ch=3 n=d5 v=127
58017 Off ch=3 n=d3 v=127
58019 On ch=3 n=d3 v=127
58019 On ch=13 n=b5 v=127
58065 Off ch=13 n=b5 v=127
58067 On ch=11 n=a5 v=127
58114 Off ch=11 n=a5 v=127
58116 On ch=13 n=b5 v=127
58163 Off ch=13 n=b5 v=127
58165 On ch=11 n=a5 v=127
58453 Off ch=3 n=d3 v=127
58455 Off ch=11 n=a5 v=127
58457 On ch=1 n=c7 v=127
58601 Off ch=1 n=c7 v=127
58603 On ch=12 n=a#6 v=127
58747 Off ch=12 n=a#6 v=127
58749 On ch=11 n=a6 v=127
58893 Off ch=11 n=a6 v=127
58895 On ch=4 n=d#5 v=127
58895 On ch=8 n=g6 v=127
59039 Off ch=8 n=g6 v=127
59041 On ch=7 n=f#6 v=127
59185 Off ch=7 n=f#6 v=127
59185 Off ch=4 n=d#5 v=127
59187 On ch=3 n=d5 v=127
59187 On ch=8 n=g6 v=127
59331 Off ch=8 n=g6 v=127
59331 Off ch=3 n=d5 v=127
59333 On ch=1 n=c5 v=127
59333 On ch=1 n=c7 v=127
59477 Off ch=1 n=c7 v=127
59479 On ch=12 n=a#6 v=127
59623 Off ch=12 n=a#6 v=127
59623 Off ch=1 n=c5 v=127
59625 On ch=3 n=d5 v=127
59625 On ch=11 n=a6 v=127
59769 Off ch=11 n=a6 v=127
59769 Off ch=3 n=d5 v=127
59771 On ch=4 n=d#5 v=127
59771 On ch=8 n=g6 v=127
59915 Off ch=8 n=g6 v=127
59917 On ch=7 n=f#6 v=127
60061 Off ch=7 n=f#6 v=127
60061 Off ch=4 n=d#5 v=127
60063 On ch=3 n=d5 v=127
60063 On ch=8 n=g6 v=127
60207 Off ch=8 n=g6 v=127
60207 Off ch=3 n=d5 v=127
60209 On ch=1 n=c5 v=127
60209 On ch=1 n=c7 v=127
60353 Off ch=1 n=c7 v=127
60355 On ch=12 n=a#6 v=127
60499 Off ch=12 n=a#6 v=127
60499 Off ch=1 n=c5 v=127
60501 On ch=3 n=d5 v=127
60501 On ch=11 n=a6 v=127
60645 Off ch=11 n=a6 v=127
60645 Off ch=3 n=d5 v=127
60647 On ch=4 n=d#5 v=127
60647 On ch=8 n=g6 v=127
60791 Off ch=8 n=g6 v=127
60791 Off ch=4 n=d#5 v=127
60793 On ch=3 n=d5 v=127
60793 On ch=7 n=f#6 v=127
60937 Off ch=7 n=f#6 v=127
60937 Off ch=3 n=d5 v=127
60939 On ch=1 n=c5 v=127
60939 On ch=8 n=g6 v=127
61083 Off ch=8 n=g6 v=127
61083 Off ch=1 n=c5 v=127
61085 On ch=12 n=a#4 v=127
61085 On ch=3 n=d6 v=127
61229 Off ch=3 n=d6 v=127
61229 Off ch=12 n=a#4 v=127
61231 On ch=11 n=a4 v=127
61231 On ch=1 n=c6 v=127
61375 Off ch=1 n=c6 v=127
61375 Off ch=11 n=a4 v=127
61377 On ch=8 n=g4 v=127
61377 On ch=12 n=a#5 v=127
61521 Off ch=12 n=a#5 v=127
61521 Off ch=8 n=g4 v=127
61523 On ch=7 n=f#4 v=127
61523 On ch=11 n=a5 v=127
61667 Off ch=11 n=a5 v=127
61667 Off ch=7 n=f#4 v=127
61669 On ch=5 n=e4 v=127
61669 On ch=13 n=b5 v=127
61813 Off ch=13 n=b5 v=127
61813 Off ch=5 n=e4 v=127
61815 On ch=3 n=d4 v=127
61815 On ch=1 n=c6 v=127
61959 Off ch=1 n=c6 v=127
61959 Off ch=3 n=d4 v=127
61961 On ch=8 n=g4 v=127
61961 On ch=13 n=b5 v=127
62105 Off ch=13 n=b5 v=127
62105 Off ch=8 n=g4 v=127
62107 On ch=7 n=f#4 v=127
62107 On ch=11 n=a5 v=127
62251 Off ch=11 n=a5 v=127
62251 Off ch=7 n=f#4 v=127
62253 On ch=5 n=e4 v=127
62253 On ch=8 n=g5 v=127
62390 Off ch=5 n=e4 v=127
62397 Off ch=8 n=g5 v=127
62399 On ch=3 n=d6 v=127
62399 On ch=3 n=d5 v=127
62545 On ch=3 n=d3 v=127
62689 Off ch=3 n=d3 v=127
62691 On ch=5 n=e3 v=127
62835 Off ch=5 n=e3 v=127
62837 On ch=7 n=f#3 v=127
62981 Off ch=3 n=d5 v=127
62981 Off ch=3 n=d6 v=127
62983 On ch=3 n=d5 v=127
62983 On ch=3 n=d6 v=127
63127 Off ch=7 n=f#3 v=127
63129 On ch=8 n=g3 v=127
63273 Off ch=8 n=g3 v=127
63275 On ch=11 n=a3 v=127
63419 Off ch=3 n=d6 v=127
63419 Off ch=3 n=d5 v=127
63421 On ch=3 n=d6 v=127
63421 On ch=3 n=d5 v=127
63565 Off ch=11 n=a3 v=127
63567 On ch=13 n=b3 v=127
63711 Off ch=13 n=b3 v=127
63713 On ch=1 n=c4 v=127
63857 Off ch=3 n=d5 v=127
63857 Off ch=3 n=d6 v=127
63859 On ch=3 n=d6 v=127
63859 On ch=3 n=d5 v=127
64003 Off ch=1 n=c4 v=127
64005 On ch=3 n=d4 v=127
64149 Off ch=3 n=d4 v=127
64151 On ch=5 n=e4 v=127
64295 Off ch=3 n=d5 v=127
64295 Off ch=3 n=d6 v=127
64297 On ch=3 n=d5 v=127
64297 On ch=3 n=d6 v=127
64441 Off ch=5 n=e4 v=127
64443 On ch=7 n=f#4 v=127
64587 Off ch=7 n=f#4 v=127
64589 On ch=8 n=g4 v=127
64733 Off ch=3 n=d6 v=127
64733 Off ch=3 n=d5 v=127
64735 On ch=3 n=d6 v=127
64735 On ch=3 n=d5 v=127
64879 Off ch=8 n=g4 v=127
64881 On ch=11 n=a4 v=127
65025 Off ch=11 n=a4 v=127
65027 On ch=13 n=b4 v=127
65171 Off ch=3 n=d5 v=127
65171 Off ch=3 n=d6 v=127
65173 On ch=3 n=d6 v=127
65173 On ch=3 n=d5 v=127
65317 Off ch=13 n=b4 v=127
65319 On ch=1 n=c5 v=127
65399 Off ch=3 n=d5 v=127
65463 Off ch=1 n=c5 v=127
65465 On ch=3 n=d5 v=127
65609 Off ch=3 n=d6 v=127
65611 On ch=3 n=d6 v=127
65755 Off ch=3 n=d5 v=127
65757 On ch=5 n=e5 v=127
65901 Off ch=5 n=e5 v=127
65903 On ch=7 n=f#5 v=127
66047 Off ch=3 n=d6 v=127
66049 On ch=1 n=c6 v=127
66193 Off ch=1 n=c6 v=127
66193 Off ch=7 n=f#5 v=127
66195 On ch=8 n=g5 v=127
66195 On ch=13 n=b5 v=127
66339 Off ch=13 n=b5 v=127
66339 Off ch=8 n=g5 v=127
66341 On ch=1 n=c5 v=127
66341 On ch=11 n=a5 v=127
66485 Off ch=11 n=a5 v=127
66485 Off ch=1 n=c5 v=127
66487 On ch=3 n=d5 v=127
66487 On ch=13 n=b5 v=127
66631 Off ch=13 n=b5 v=127
66631 Off ch=3 n=d5 v=127
66633 On ch=5 n=e5 v=127
66633 On ch=8 n=g5 v=127
66770 Off ch=5 n=e5 v=127
66777 Off ch=8 n=g5 v=127
66779 On ch=3 n=d6 v=127
66779 On ch=3 n=d5 v=127
66925 On ch=3 n=d3 v=127
67069 Off ch=3 n=d3 v=127
67071 On ch=5 n=e3 v=127
67215 Off ch=5 n=e3 v=127
67215 Off ch=3 n=d5 v=127
67215 Off ch=3 n=d6 v=127
67217 On ch=7 n=f#3 v=127
67217 On ch=3 n=d5 v=127
67217 On ch=3 n=d6 v=127
67361 Off ch=7 n=f#3 v=127
67363 On ch=7 n=f#3 v=127
67507 Off ch=7 n=f#3 v=127
67509 On ch=8 n=g3 v=127
67653 Off ch=8 n=g3 v=127
67653 Off ch=3 n=d6 v=127
67653 Off ch=3 n=d5 v=127
67655 On ch=11 n=a3 v=127
67655 On ch=3 n=d5 v=127
67655 On ch=3 n=d6 v=127
67799 Off ch=11 n=a3 v=127
67801 On ch=11 n=a3 v=127
67945 Off ch=11 n=a3 v=127
67947 On ch=13 n=b3 v=127
68091 Off ch=13 n=b3 v=127
68091 Off ch=3 n=d6 v=127
68091 Off ch=3 n=d5 v=127
68093 On ch=1 n=c4 v=127
68093 On ch=3 n=d5 v=127
68093 On ch=3 n=d6 v=127
68237 Off ch=1 n=c4 v=127
68239 On ch=1 n=c4 v=127
68383 Off ch=1 n=c4 v=127
68385 On ch=3 n=d4 v=127
68529 Off ch=3 n=d4 v=127
68529 Off ch=3 n=d6 v=127
68529 Off ch=3 n=d5 v=127
68531 On ch=5 n=e4 v=127
68531 On ch=3 n=d5 v=127
68531 On ch=3 n=d6 v=127
68675 Off ch=5 n=e4 v=127
68677 On ch=5 n=e4 v=127
68821 Off ch=5 n=e4 v=127
68823 On ch=7 n=f#4 v=127
68967 Off ch=7 n=f#4 v=127
68967 Off ch=3 n=d6 v=127
68967 Off ch=3 n=d5 v=127
68969 On ch=8 n=g4 v=127
68969 On ch=3 n=d5 v=127
68969 On ch=3 n=d6 v=127
69113 Off ch=8 n=g4 v=127
69115 On ch=8 n=g4 v=127
69259 Off ch=8 n=g4 v=127
69261 On ch=11 n=a4 v=127
69405 Off ch=11 n=a4 v=127
69405 Off ch=3 n=d6 v=127
69405 Off ch=3 n=d5 v=127
69407 On ch=13 n=b4 v=127
69407 On ch=3 n=d6 v=127
69407 On ch=3 n=d5 v=127
69551 Off ch=13 n=b4 v=127
69553 On ch=13 n=b4 v=127
69697 Off ch=13 n=b4 v=127
69699 On ch=1 n=c5 v=127
69843 Off ch=1 n=c5 v=127
69843 Off ch=3 n=d5 v=127
69843 Off ch=3 n=d6 v=127
69845 On ch=3 n=d5 v=127
69845 On ch=3 n=d6 v=127
69989 Off ch=3 n=d5 v=127
69991 On ch=3 n=d5 v=127
70135 Off ch=3 n=d5 v=127
70137 On ch=5 n=e5 v=127
70281 Off ch=5 n=e5 v=127
70283 On ch=7 n=f#5 v=127
70427 Off ch=3 n=d6 v=127
70429 On ch=1 n=c6 v=127
70573 Off ch=1 n=c6 v=127
70573 Off ch=7 n=f#5 v=127
70575 On ch=8 n=g5 v=127
70575 On ch=13 n=b5 v=127
70719 Off ch=13 n=b5 v=127
70719 Off ch=8 n=g5 v=127
70721 On ch=1 n=c5 v=127
70721 On ch=1 n=c6 v=127
70865 Off ch=1 n=c6 v=127
70867 On ch=13 n=b5 v=127
71011 Off ch=13 n=b5 v=127
71011 Off ch=1 n=c5 v=127
71013 On ch=3 n=d5 v=127
71013 On ch=11 n=a5 v=127
71157 Off ch=11 n=a5 v=127
71157 Off ch=3 n=d5 v=127
71159 On ch=8 n=g4 v=127
71159 On ch=13 n=b5 v=127
71303 Off ch=13 n=b5 v=127
71305 On ch=8 n=g5 v=127
71449 Off ch=8 n=g4 v=127
71451 On ch=13 n=b4 v=127
71451 On ch=8 n=g6 v=127
71595 Off ch=8 n=g6 v=127
71595 Off ch=13 n=b4 v=127
71596 Off ch=8 n=g5 v=127
71597 On ch=1 n=c5 v=127
71597 On ch=13 n=b5 v=127
71643 Off ch=13 n=b5 v=127
71645 On ch=11 n=a5 v=127
71692 Off ch=11 n=a5 v=127
71694 On ch=13 n=b5 v=127
71741 Off ch=13 n=b5 v=127
71743 On ch=11 n=a5 v=127
71887 Off ch=1 n=c5 v=127
71889 On ch=3 n=d5 v=127
71935 Off ch=11 n=a5 v=127
71937 On ch=8 n=g5 v=127
71984 Off ch=8 n=g5 v=127
71986 On ch=11 n=a5 v=127
72033 Off ch=11 n=a5 v=127
72033 Off ch=3 n=d5 v=127
72035 On ch=8 n=g4 v=127
72035 On ch=13 n=b5 v=127
72179 Off ch=13 n=b5 v=127
72181 On ch=8 n=g5 v=127
72325 Off ch=8 n=g4 v=127
72327 On ch=13 n=b4 v=127
72327 On ch=8 n=g6 v=127
72471 Off ch=8 n=g6 v=127
72471 Off ch=13 n=b4 v=127
72472 Off ch=8 n=g5 v=127
72473 On ch=1 n=c5 v=127
72473 On ch=13 n=b5 v=127
72519 Off ch=13 n=b5 v=127
72521 On ch=11 n=a5 v=127
72568 Off ch=11 n=a5 v=127
72570 On ch=13 n=b5 v=127
72617 Off ch=13 n=b5 v=127
72619 On ch=11 n=a5 v=127
72763 Off ch=1 n=c5 v=127
72765 On ch=3 n=d5 v=127
72811 Off ch=11 n=a5 v=127
72813 On ch=8 n=g5 v=127
72860 Off ch=8 n=g5 v=127
72862 On ch=11 n=a5 v=127
72909 Off ch=11 n=a5 v=127
72909 Off ch=3 n=d5 v=127
72911 On ch=8 n=g4 v=127
72911 On ch=13 n=b5 v=127
73055 Off ch=13 n=b5 v=127
73057 On ch=8 n=g5 v=127
73201 Off ch=8 n=g5 v=127
73201 Off ch=8 n=g4 v=127
73203 On ch=13 n=b3 v=127
73203 On ch=13 n=b6 v=127
73347 Off ch=13 n=b6 v=127
73347 Off ch=13 n=b3 v=127
73349 On ch=1 n=c4 v=127
73349 On ch=13 n=b6 v=127
73395 Off ch=13 n=b6 v=127
73397 On ch=11 n=a6 v=127
73444 Off ch=11 n=a6 v=127
73446 On ch=13 n=b6 v=127
73493 Off ch=13 n=b6 v=127
73495 On ch=11 n=a6 v=127
73639 Off ch=1 n=c4 v=127
73641 On ch=3 n=d4 v=127
73785 Off ch=3 n=d4 v=127
73785 Off ch=11 n=a6 v=127
73787 On ch=8 n=g3 v=127
73787 On ch=8 n=g6 v=127
73931 Off ch=8 n=g6 v=127
73933 On ch=3 n=d6 v=127
74077 Off ch=3 n=d6 v=127
74079 On ch=13 n=b5 v=127
74223 Off ch=13 n=b5 v=127
74225 On ch=8 n=g5 v=127
74369 Off ch=8 n=g5 v=127
74371 On ch=3 n=d5 v=127
74515 Off ch=3 n=d5 v=127
74522 On ch=13 n=b4 v=127
74663 Off ch=8 n=g3 v=127
74684 Off ch=13 n=b4 v=127
74709 On ch=8 n=g3 v=127
76423 Off ch=8 n=g3 v=127
81408 Meta TrkEnd
TrkEnd
