MFile 0 1 384
MTrk
0 Meta Copyright "(C) John Sankey 1998"
0 PrCh ch=1 p=6
0 Pb ch=1 v=8192
0 PrCh ch=2 p=6
0 Pb ch=2 v=7602
0 PrCh ch=3 p=6
0 Pb ch=3 v=7920
0 PrCh ch=4 p=6
0 Pb ch=4 v=7839
0 PrCh ch=5 p=6
0 Pb ch=5 v=7632
0 PrCh ch=6 p=6
0 Pb ch=6 v=8112
0 PrCh ch=7 p=6
0 Pb ch=7 v=7567
0 PrCh ch=8 p=6
0 Pb ch=8 v=8062
0 PrCh ch=9 p=6
0 Pb ch=9 v=7680
0 PrCh ch=11 p=6
0 Pb ch=11 v=7728
0 PrCh ch=12 p=6
0 Pb ch=12 v=7984
0 PrCh ch=13 p=6
0 Pb ch=13 v=7639
0 Tempo 500000
115 On ch=13 n=b6 v=127
115 On ch=8 n=g6 v=127
345 On ch=8 n=g5 v=127
345 On ch=5 n=e5 v=127
574 Off ch=5 n=e5 v=127
574 Off ch=8 n=g5 v=127
574 Off ch=8 n=g6 v=127
574 Off ch=13 n=b6 v=127
575 On ch=11 n=a5 v=127
575 On ch=7 n=f#5 v=127
805 On ch=8 n=g6 v=127
805 On ch=13 n=b6 v=127
920 Off ch=7 n=f#5 v=127
920 Off ch=11 n=a5 v=127
1035 On ch=13 n=b5 v=127
1035 On ch=8 n=g5 v=127
1264 Off ch=8 n=g5 v=127
1264 Off ch=13 n=b5 v=127
1264 Off ch=13 n=b6 v=127
1264 Off ch=8 n=g6 v=127
1265 On ch=2 n=c#6 v=127
1265 On ch=11 n=a5 v=127
1494 Off ch=11 n=a5 v=127
1494 Off ch=2 n=c#6 v=127
1495 On ch=13 n=b4 v=127
1495 On ch=13 n=b5 v=127
1495 On ch=4 n=d#6 v=127
1610 On ch=7 n=f#6 v=127
1627 Off ch=4 n=d#6 v=127
1724 Off ch=13 n=b5 v=127
1724 Off ch=13 n=b4 v=127
1725 On ch=2 n=c#5 v=127
1725 On ch=11 n=a5 v=127
1742 Off ch=7 n=f#6 v=127
1840 On ch=5 n=e6 v=127
1857 Off ch=11 n=a5 v=127
1954 Off ch=2 n=c#5 v=127
1955 On ch=4 n=d#5 v=127
1955 On ch=13 n=b5 v=127
1972 Off ch=5 n=e6 v=127
2070 On ch=7 n=f#6 v=127
2087 Off ch=13 n=b5 v=127
2184 Off ch=4 n=d#5 v=127
2185 On ch=5 n=e5 v=127
2185 On ch=11 n=a6 v=127
2202 Off ch=7 n=f#6 v=127
2242 Off ch=11 n=a6 v=127
2243 On ch=8 n=g6 v=127
2299 Off ch=8 n=g6 v=127
2300 On ch=11 n=a6 v=127
2356 Off ch=11 n=a6 v=127
2357 On ch=8 n=g6 v=127
2413 Off ch=8 n=g6 v=127
2413 Off ch=5 n=e5 v=127
2414 On ch=13 n=b4 v=127
2414 On ch=7 n=f#6 v=127
2529 On ch=8 n=g6 v=127
2546 Off ch=7 n=f#6 v=127
2643 Off ch=13 n=b4 v=127
2644 On ch=5 n=e4 v=127
2644 On ch=5 n=e6 v=127
2661 Off ch=8 n=g6 v=127
2817 Off ch=5 n=e6 v=127
2864 Off ch=5 n=e4 v=127
2875 On ch=13 n=b6 v=127
2875 On ch=8 n=g6 v=127
3105 On ch=5 n=e5 v=127
3105 On ch=8 n=g5 v=127
3220 Off ch=8 n=g6 v=127
3220 Off ch=13 n=b6 v=127
3334 Off ch=8 n=g5 v=127
3334 Off ch=5 n=e5 v=127
3335 On ch=7 n=f#5 v=127
3335 On ch=11 n=a5 v=127
3565 On ch=13 n=b6 v=127
3565 On ch=8 n=g6 v=127
3680 Off ch=11 n=a5 v=127
3680 Off ch=7 n=f#5 v=127
3795 On ch=8 n=g5 v=127
3795 On ch=13 n=b5 v=127
3910 Off ch=8 n=g6 v=127
3910 Off ch=13 n=b6 v=127
4024 Off ch=13 n=b5 v=127
4024 Off ch=8 n=g5 v=127
4025 On ch=2 n=c#6 v=127
4025 On ch=11 n=a5 v=127
4254 Off ch=11 n=a5 v=127
4254 Off ch=2 n=c#6 v=127
4255 On ch=13 n=b5 v=127
4255 On ch=4 n=d#6 v=127
4370 On ch=7 n=f#6 v=127
4387 Off ch=4 n=d#6 v=127
4484 Off ch=13 n=b5 v=127
4485 On ch=4 n=d#5 v=127
4485 On ch=13 n=b5 v=127
4502 Off ch=7 n=f#6 v=127
4600 On ch=11 n=a6 v=127
4617 Off ch=13 n=b5 v=127
4714 Off ch=4 n=d#5 v=127
4715 On ch=5 n=e5 v=127
4715 On ch=13 n=b5 v=127
4732 Off ch=11 n=a6 v=127
4830 On ch=5 n=e6 v=127
4830 On ch=8 n=g6 v=127
4847 Off ch=13 n=b5 v=127
4943 Off ch=8 n=g6 v=127
4943 Off ch=5 n=e6 v=127
4944 Off ch=5 n=e5 v=127
4945 On ch=13 n=b4 v=127
4945 On ch=8 n=g6 v=127
4945 On ch=5 n=e6 v=127
5174 Off ch=5 n=e6 v=127
5174 Off ch=8 n=g6 v=127
5175 On ch=8 n=g6 v=127
5175 On ch=4 n=d#6 v=127
5231 Off ch=8 n=g6 v=127
5232 On ch=7 n=f#6 v=127
5288 Off ch=7 n=f#6 v=127
5289 On ch=8 n=g6 v=127
5345 Off ch=8 n=g6 v=127
5346 On ch=7 n=f#6 v=127
5519 Off ch=4 n=d#6 v=127
5610 Off ch=7 n=f#6 v=127
5633 Off ch=13 n=b4 v=127
5634 On ch=13 n=b5 v=127
5634 On ch=8 n=g6 v=127
5749 On ch=3 n=d6 v=127
5766 Off ch=13 n=b5 v=127
5863 Off ch=8 n=g6 v=127
5864 On ch=1 n=c6 v=127
5864 On ch=11 n=a6 v=127
5881 Off ch=3 n=d6 v=127
5979 On ch=5 n=e6 v=127
5996 Off ch=1 n=c6 v=127
6093 Off ch=11 n=a6 v=127
6094 On ch=3 n=d6 v=127
6094 On ch=7 n=f#6 v=127
6111 Off ch=5 n=e6 v=127
6209 On ch=1 n=c6 v=127
6226 Off ch=3 n=d6 v=127
6323 Off ch=7 n=f#6 v=127
6324 On ch=13 n=b5 v=127
6324 On ch=8 n=g6 v=127
6341 Off ch=1 n=c6 v=127
6439 On ch=3 n=d6 v=127
6456 Off ch=13 n=b5 v=127
6553 Off ch=8 n=g6 v=127
6554 On ch=1 n=c6 v=127
6554 On ch=11 n=a6 v=127
6571 Off ch=3 n=d6 v=127
6669 On ch=5 n=e6 v=127
6686 Off ch=1 n=c6 v=127
6783 Off ch=11 n=a6 v=127
6784 On ch=3 n=d6 v=127
6784 On ch=7 n=f#6 v=127
6801 Off ch=5 n=e6 v=127
6899 On ch=1 n=c6 v=127
6916 Off ch=3 n=d6 v=127
7013 Off ch=7 n=f#6 v=127
7014 On ch=13 n=b5 v=127
7014 On ch=8 n=g6 v=127
7031 Off ch=1 n=c6 v=127
7129 On ch=3 n=d6 v=127
7146 Off ch=13 n=b5 v=127
7243 Off ch=8 n=g6 v=127
7244 On ch=1 n=c6 v=127
7244 On ch=11 n=a6 v=127
7261 Off ch=3 n=d6 v=127
7359 On ch=5 n=e6 v=127
7376 Off ch=1 n=c6 v=127
7473 Off ch=11 n=a6 v=127
7474 On ch=3 n=d6 v=127
7474 On ch=7 n=f#6 v=127
7491 Off ch=5 n=e6 v=127
7589 On ch=1 n=c6 v=127
7606 Off ch=3 n=d6 v=127
7703 Off ch=7 n=f#6 v=127
7704 On ch=13 n=b5 v=127
7704 On ch=8 n=g6 v=127
7721 Off ch=1 n=c6 v=127
7819 On ch=1 n=c6 v=127
7836 Off ch=13 n=b5 v=127
7933 Off ch=8 n=g6 v=127
7934 On ch=11 n=a5 v=127
7934 On ch=7 n=f#6 v=127
7951 Off ch=1 n=c6 v=127
8049 On ch=13 n=b5 v=127
8066 Off ch=11 n=a5 v=127
8163 Off ch=7 n=f#6 v=127
8164 On ch=8 n=g5 v=127
8164 On ch=5 n=e6 v=127
8181 Off ch=13 n=b5 v=127
8279 On ch=11 n=a5 v=127
8296 Off ch=8 n=g5 v=127
8393 Off ch=5 n=e6 v=127
8394 On ch=7 n=f#5 v=127
8394 On ch=3 n=d6 v=127
8411 Off ch=11 n=a5 v=127
8509 On ch=11 n=a5 v=127
8526 Off ch=7 n=f#5 v=127
8623 Off ch=3 n=d6 v=127
8624 On ch=8 n=g5 v=127
8624 On ch=5 n=e6 v=127
8641 Off ch=11 n=a5 v=127
8739 On ch=13 n=b5 v=127
8756 Off ch=8 n=g5 v=127
8853 Off ch=5 n=e6 v=127
8854 On ch=11 n=a5 v=127
8854 On ch=2 n=c#6 v=127
8871 Off ch=13 n=b5 v=127
8969 On ch=8 n=g5 v=127
8986 Off ch=11 n=a5 v=127
9083 Off ch=2 n=c#6 v=127
9084 On ch=7 n=f#5 v=127
9084 On ch=3 n=d6 v=127
9101 Off ch=8 n=g5 v=127
9199 On ch=11 n=a5 v=127
9216 Off ch=7 n=f#5 v=127
9313 Off ch=3 n=d6 v=127
9314 On ch=8 n=g5 v=127
9314 On ch=5 n=e6 v=127
9331 Off ch=11 n=a5 v=127
9429 On ch=13 n=b5 v=127
9446 Off ch=8 n=g5 v=127
9543 Off ch=5 n=e6 v=127
9544 On ch=11 n=a5 v=127
9544 On ch=2 n=c#6 v=127
9561 Off ch=13 n=b5 v=127
9659 On ch=8 n=g5 v=127
9676 Off ch=11 n=a5 v=127
9773 Off ch=2 n=c#6 v=127
9774 On ch=7 n=f#5 v=127
9774 On ch=3 n=d6 v=127
9791 Off ch=8 n=g5 v=127
9889 On ch=11 n=a5 v=127
9906 Off ch=7 n=f#5 v=127
10003 Off ch=3 n=d6 v=127
10004 On ch=8 n=g5 v=127
10004 On ch=5 n=e6 v=127
10021 Off ch=11 n=a5 v=127
10119 On ch=13 n=b5 v=127
10136 Off ch=8 n=g5 v=127
10233 Off ch=5 n=e6 v=127
10234 On ch=11 n=a5 v=127
10234 On ch=2 n=c#6 v=127
10251 Off ch=13 n=b5 v=127
10349 On ch=8 n=g5 v=127
10366 Off ch=11 n=a5 v=127
10463 Off ch=2 n=c#6 v=127
10464 On ch=7 n=f#5 v=127
10464 On ch=3 n=d6 v=127
10481 Off ch=8 n=g5 v=127
10579 On ch=3 n=d5 v=127
10596 Off ch=7 n=f#5 v=127
10693 Off ch=3 n=d6 v=127
10694 On ch=5 n=e5 v=127
10694 On ch=1 n=c6 v=127
10711 Off ch=3 n=d5 v=127
10809 On ch=7 n=f#5 v=127
10826 Off ch=5 n=e5 v=127
10923 Off ch=1 n=c6 v=127
10924 On ch=8 n=g5 v=127
10924 On ch=13 n=b5 v=127
10941 Off ch=7 n=f#5 v=127
11039 On ch=7 n=f#5 v=127
11056 Off ch=8 n=g5 v=127
11153 Off ch=13 n=b5 v=127
11154 On ch=5 n=e5 v=127
11154 On ch=1 n=c6 v=127
11171 Off ch=7 n=f#5 v=127
11269 On ch=1 n=c5 v=127
11286 Off ch=5 n=e5 v=127
11383 Off ch=1 n=c6 v=127
11384 On ch=7 n=f#5 v=127
11384 On ch=3 n=d6 v=127
11401 Off ch=1 n=c5 v=127
11499 On ch=3 n=d5 v=127
11516 Off ch=7 n=f#5 v=127
11613 Off ch=3 n=d6 v=127
11614 On ch=8 n=g5 v=127
11614 On ch=5 n=e6 v=127
11631 Off ch=3 n=d5 v=127
11729 On ch=5 n=e5 v=127
11746 Off ch=8 n=g5 v=127
11843 Off ch=5 n=e6 v=127
11844 On ch=7 n=f#5 v=127
11844 On ch=3 n=d6 v=127
11861 Off ch=5 n=e5 v=127
11959 On ch=3 n=d5 v=127
11976 Off ch=7 n=f#5 v=127
12073 Off ch=3 n=d6 v=127
12074 On ch=5 n=e5 v=127
12074 On ch=1 n=c6 v=127
12091 Off ch=3 n=d5 v=127
12189 On ch=7 n=f#5 v=127
12206 Off ch=5 n=e5 v=127
12303 Off ch=1 n=c6 v=127
12304 On ch=8 n=g5 v=127
12304 On ch=13 n=b5 v=127
12321 Off ch=7 n=f#5 v=127
12419 On ch=7 n=f#5 v=127
12436 Off ch=8 n=g5 v=127
12533 Off ch=13 n=b5 v=127
12534 On ch=5 n=e5 v=127
12534 On ch=1 n=c6 v=127
12551 Off ch=7 n=f#5 v=127
12649 On ch=1 n=c5 v=127
12690 Off ch=5 n=e5 v=127
12763 Off ch=1 n=c6 v=127
12764 On ch=7 n=f#5 v=127
12764 On ch=3 n=d6 v=127
12805 Off ch=1 n=c5 v=127
12879 On ch=3 n=d5 v=127
12920 Off ch=7 n=f#5 v=127
12993 Off ch=3 n=d6 v=127
12994 On ch=8 n=g5 v=127
12994 On ch=5 n=e6 v=127
13035 Off ch=3 n=d5 v=127
13109 On ch=5 n=e5 v=127
13162 Off ch=8 n=g5 v=127
13223 Off ch=5 n=e6 v=127
13224 On ch=7 n=f#5 v=127
13224 On ch=3 n=d6 v=127
13277 Off ch=5 n=e5 v=127
13339 On ch=3 n=d5 v=127
13404 Off ch=7 n=f#5 v=127
13453 Off ch=3 n=d6 v=127
13454 On ch=8 n=g5 v=127
13454 On ch=5 n=e6 v=127
13519 Off ch=3 n=d5 v=127
13569 On ch=3 n=d5 v=127
13646 Off ch=8 n=g5 v=127
13683 Off ch=5 n=e6 v=127
13684 On ch=11 n=a5 v=127
13684 On ch=7 n=f#6 v=127
13761 Off ch=3 n=d5 v=127
13799 On ch=3 n=d5 v=127
13876 Off ch=11 n=a5 v=127
13913 Off ch=7 n=f#6 v=127
13914 On ch=13 n=b5 v=127
13914 On ch=3 n=d6 v=127
13914 On ch=8 n=g6 v=127
13991 Off ch=3 n=d5 v=127
14029 On ch=3 n=d5 v=127
14046 Off ch=13 n=b5 v=127
14143 Off ch=8 n=g6 v=127
14144 On ch=11 n=a5 v=127
14144 On ch=7 n=f#6 v=127
14258 Off ch=3 n=d5 v=127
14259 On ch=3 n=d5 v=127
14276 Off ch=11 n=a5 v=127
14373 Off ch=7 n=f#6 v=127
14374 On ch=13 n=b5 v=127
14374 On ch=8 n=g6 v=127
14488 Off ch=3 n=d5 v=127
14489 On ch=3 n=d5 v=127
14506 Off ch=13 n=b5 v=127
14603 Off ch=8 n=g6 v=127
14603 Off ch=3 n=d6 v=127
14604 On ch=11 n=a5 v=127
14604 On ch=7 n=f#6 v=127
14604 On ch=3 n=d6 v=127
14718 Off ch=3 n=d5 v=127
14719 On ch=3 n=d5 v=127
14736 Off ch=11 n=a5 v=127
14833 Off ch=7 n=f#6 v=127
14834 On ch=8 n=g5 v=127
14834 On ch=8 n=g6 v=127
14948 Off ch=3 n=d5 v=127
14949 On ch=3 n=d5 v=127
14966 Off ch=8 n=g5 v=127
15063 Off ch=8 n=g6 v=127
15064 On ch=7 n=f#5 v=127
15064 On ch=11 n=a6 v=127
15178 Off ch=3 n=d5 v=127
15179 On ch=3 n=d5 v=127
15196 Off ch=7 n=f#5 v=127
15293 Off ch=11 n=a6 v=127
15293 Off ch=3 n=d6 v=127
15294 On ch=8 n=g5 v=127
15294 On ch=13 n=b6 v=127
15294 On ch=3 n=d6 v=127
15408 Off ch=3 n=d5 v=127
15409 On ch=3 n=d5 v=127
15426 Off ch=8 n=g5 v=127
15523 Off ch=13 n=b6 v=127
15524 On ch=7 n=f#5 v=127
15524 On ch=11 n=a6 v=127
15638 Off ch=3 n=d5 v=127
15639 On ch=3 n=d5 v=127
15656 Off ch=7 n=f#5 v=127
15753 Off ch=11 n=a6 v=127
15754 On ch=8 n=g5 v=127
15754 On ch=13 n=b6 v=127
15868 Off ch=3 n=d5 v=127
15869 On ch=3 n=d5 v=127
15886 Off ch=8 n=g5 v=127
15983 Off ch=13 n=b6 v=127
15983 Off ch=3 n=d6 v=127
15984 On ch=7 n=f#5 v=127
15984 On ch=11 n=a6 v=127
15984 On ch=3 n=d6 v=127
16098 Off ch=3 n=d5 v=127
16099 On ch=3 n=d5 v=127
16116 Off ch=7 n=f#5 v=127
16213 Off ch=11 n=a6 v=127
16214 On ch=8 n=g5 v=127
16214 On ch=8 n=g6 v=127
16328 Off ch=3 n=d5 v=127
16329 On ch=3 n=d5 v=127
16346 Off ch=8 n=g5 v=127
16443 Off ch=8 n=g6 v=127
16444 On ch=11 n=a5 v=127
16444 On ch=7 n=f#6 v=127
16558 Off ch=3 n=d5 v=127
16559 On ch=3 n=d5 v=127
16576 Off ch=11 n=a5 v=127
16673 Off ch=7 n=f#6 v=127
16673 Off ch=3 n=d6 v=127
16674 On ch=13 n=b5 v=127
16674 On ch=3 n=d6 v=127
16674 On ch=8 n=g6 v=127
16788 Off ch=3 n=d5 v=127
16789 On ch=3 n=d5 v=127
16806 Off ch=13 n=b5 v=127
16903 Off ch=8 n=g6 v=127
16904 On ch=11 n=a5 v=127
16904 On ch=7 n=f#6 v=127
17018 Off ch=3 n=d5 v=127
17019 On ch=3 n=d5 v=127
17036 Off ch=11 n=a5 v=127
17133 Off ch=7 n=f#6 v=127
17134 On ch=13 n=b5 v=127
17134 On ch=8 n=g6 v=127
17248 Off ch=3 n=d5 v=127
17249 On ch=3 n=d5 v=127
17266 Off ch=13 n=b5 v=127
17363 Off ch=8 n=g6 v=127
17363 Off ch=3 n=d6 v=127
17364 On ch=11 n=a5 v=127
17364 On ch=7 n=f#6 v=127
17364 On ch=3 n=d6 v=127
17478 Off ch=3 n=d5 v=127
17479 On ch=3 n=d5 v=127
17496 Off ch=11 n=a5 v=127
17593 Off ch=7 n=f#6 v=127
17594 On ch=8 n=g5 v=127
17594 On ch=8 n=g6 v=127
17708 Off ch=3 n=d5 v=127
17709 On ch=3 n=d5 v=127
17726 Off ch=8 n=g5 v=127
17823 Off ch=8 n=g6 v=127
17824 On ch=7 n=f#5 v=127
17824 On ch=11 n=a6 v=127
17938 Off ch=3 n=d5 v=127
17939 On ch=3 n=d5 v=127
17956 Off ch=7 n=f#5 v=127
18053 Off ch=11 n=a6 v=127
18053 Off ch=3 n=d6 v=127
18054 On ch=8 n=g5 v=127
18054 On ch=13 n=b6 v=127
18054 On ch=3 n=d6 v=127
18168 Off ch=3 n=d5 v=127
18169 On ch=3 n=d5 v=127
18186 Off ch=8 n=g5 v=127
18283 Off ch=13 n=b6 v=127
18284 On ch=7 n=f#5 v=127
18284 On ch=11 n=a6 v=127
18398 Off ch=3 n=d5 v=127
18399 On ch=3 n=d5 v=127
18416 Off ch=7 n=f#5 v=127
18513 Off ch=11 n=a6 v=127
18514 On ch=8 n=g5 v=127
18514 On ch=13 n=b6 v=127
18628 Off ch=3 n=d5 v=127
18629 On ch=3 n=d5 v=127
18646 Off ch=8 n=g5 v=127
18743 Off ch=13 n=b6 v=127
18743 Off ch=3 n=d6 v=127
18744 On ch=3 n=d6 v=127
18859 On ch=7 n=f#6 v=127
18876 Off ch=3 n=d6 v=127
18974 On ch=3 n=d6 v=127
18974 On ch=5 n=e6 v=127
18991 Off ch=7 n=f#6 v=127
19089 On ch=8 n=g6 v=127
19106 Off ch=5 n=e6 v=127
19195 Off ch=3 n=d5 v=127
19205 On ch=3 n=d5 v=127
19205 On ch=7 n=f#6 v=127
19222 Off ch=8 n=g6 v=127
19320 On ch=11 n=a6 v=127
19337 Off ch=7 n=f#6 v=127
19434 Off ch=3 n=d5 v=127
19435 On ch=3 n=d5 v=127
19435 On ch=8 n=g6 v=127
19452 Off ch=11 n=a6 v=127
19550 On ch=13 n=b6 v=127
19567 Off ch=8 n=g6 v=127
19664 Off ch=3 n=d6 v=127
19665 On ch=3 n=d6 v=127
19665 On ch=7 n=f#6 v=127
19682 Off ch=13 n=b6 v=127
19780 On ch=11 n=a6 v=127
19797 Off ch=7 n=f#6 v=127
19894 Off ch=3 n=d5 v=127
19895 On ch=3 n=d5 v=127
19895 On ch=5 n=e6 v=127
19912 Off ch=11 n=a6 v=127
20010 On ch=8 n=g6 v=127
20027 Off ch=5 n=e6 v=127
20124 Off ch=3 n=d5 v=127
20124 Off ch=3 n=d6 v=127
20125 On ch=3 n=d5 v=127
20125 On ch=3 n=d6 v=127
20142 Off ch=8 n=g6 v=127
20240 On ch=7 n=f#6 v=127
20257 Off ch=3 n=d6 v=127
20355 On ch=3 n=d6 v=127
20355 On ch=5 n=e6 v=127
20372 Off ch=7 n=f#6 v=127
20470 On ch=8 n=g6 v=127
20487 Off ch=5 n=e6 v=127
20584 Off ch=3 n=d5 v=127
20585 On ch=3 n=d5 v=127
20585 On ch=7 n=f#6 v=127
20602 Off ch=8 n=g6 v=127
20700 On ch=11 n=a6 v=127
20717 Off ch=7 n=f#6 v=127
20814 Off ch=3 n=d5 v=127
20815 On ch=3 n=d5 v=127
20815 On ch=8 n=g6 v=127
20832 Off ch=11 n=a6 v=127
20930 On ch=13 n=b6 v=127
20947 Off ch=8 n=g6 v=127
21044 Off ch=3 n=d6 v=127
21045 On ch=3 n=d6 v=127
21045 On ch=7 n=f#6 v=127
21062 Off ch=13 n=b6 v=127
21160 On ch=11 n=a6 v=127
21177 Off ch=7 n=f#6 v=127
21274 Off ch=3 n=d5 v=127
21275 On ch=3 n=d5 v=127
21275 On ch=5 n=e6 v=127
21292 Off ch=11 n=a6 v=127
21390 On ch=8 n=g6 v=127
21407 Off ch=5 n=e6 v=127
21503 Off ch=3 n=d6 v=127
21504 Off ch=3 n=d5 v=127
21505 On ch=3 n=d5 v=127
21505 On ch=3 n=d6 v=127
21522 Off ch=8 n=g6 v=127
21620 On ch=7 n=f#6 v=127
21637 Off ch=3 n=d6 v=127
21735 On ch=1 n=c6 v=127
21752 Off ch=7 n=f#6 v=127
21850 On ch=5 n=e6 v=127
21867 Off ch=1 n=c6 v=127
21965 On ch=13 n=b5 v=127
21982 Off ch=5 n=e6 v=127
22080 On ch=3 n=d6 v=127
22097 Off ch=13 n=b5 v=127
22195 On ch=3 n=d4 v=127
22195 On ch=1 n=c6 v=127
22212 Off ch=3 n=d6 v=127
22310 On ch=5 n=e6 v=127
22327 Off ch=1 n=c6 v=127
22424 Off ch=3 n=d5 v=127
22425 On ch=3 n=d5 v=127
22425 On ch=13 n=b5 v=127
22442 Off ch=5 n=e6 v=127
22540 On ch=3 n=d6 v=127
22557 Off ch=13 n=b5 v=127
22654 Off ch=3 n=d4 v=127
22655 On ch=3 n=d4 v=127
22655 On ch=11 n=a5 v=127
22672 Off ch=3 n=d6 v=127
22770 On ch=1 n=c6 v=127
22787 Off ch=11 n=a5 v=127
22884 Off ch=3 n=d4 v=127
22885 On ch=3 n=d4 v=127
22885 On ch=13 n=b5 v=127
22902 Off ch=1 n=c6 v=127
23000 On ch=3 n=d6 v=127
23017 Off ch=13 n=b5 v=127
23114 Off ch=3 n=d5 v=127
23115 On ch=3 n=d5 v=127
23115 On ch=11 n=a5 v=127
23132 Off ch=3 n=d6 v=127
23230 On ch=1 n=c6 v=127
23247 Off ch=11 n=a5 v=127
23344 Off ch=3 n=d4 v=127
23345 On ch=3 n=d4 v=127
23345 On ch=8 n=g5 v=127
23362 Off ch=1 n=c6 v=127
23460 On ch=13 n=b5 v=127
23477 Off ch=8 n=g5 v=127
23574 Off ch=3 n=d4 v=127
23575 On ch=3 n=d4 v=127
23575 On ch=11 n=a5 v=127
23592 Off ch=13 n=b5 v=127
23690 On ch=1 n=c6 v=127
23707 Off ch=11 n=a5 v=127
23804 Off ch=3 n=d5 v=127
23805 On ch=3 n=d5 v=127
23805 On ch=8 n=g5 v=127
23822 Off ch=1 n=c6 v=127
23920 On ch=13 n=b5 v=127
23937 Off ch=8 n=g5 v=127
24034 Off ch=3 n=d4 v=127
24035 On ch=3 n=d4 v=127
24035 On ch=7 n=f#5 v=127
24052 Off ch=13 n=b5 v=127
24150 On ch=11 n=a5 v=127
24167 Off ch=7 n=f#5 v=127
24264 Off ch=3 n=d4 v=127
24265 On ch=3 n=d4 v=127
24265 On ch=8 n=g5 v=127
24282 Off ch=11 n=a5 v=127
24380 On ch=13 n=b5 v=127
24397 Off ch=8 n=g5 v=127
24494 Off ch=3 n=d5 v=127
24495 On ch=3 n=d5 v=127
24495 On ch=11 n=a5 v=127
24512 Off ch=13 n=b5 v=127
24610 On ch=1 n=c6 v=127
24627 Off ch=11 n=a5 v=127
24724 Off ch=3 n=d4 v=127
24725 On ch=3 n=d4 v=127
24725 On ch=13 n=b5 v=127
24742 Off ch=1 n=c6 v=127
24840 On ch=3 n=d6 v=127
24857 Off ch=13 n=b5 v=127
24954 Off ch=3 n=d4 v=127
24955 On ch=3 n=d4 v=127
24955 On ch=11 n=a5 v=127
24972 Off ch=3 n=d6 v=127
25070 On ch=1 n=c6 v=127
25087 Off ch=11 n=a5 v=127
25184 Off ch=3 n=d5 v=127
25185 On ch=3 n=d5 v=127
25185 On ch=8 n=g5 v=127
25202 Off ch=1 n=c6 v=127
25300 On ch=13 n=b5 v=127
25317 Off ch=8 n=g5 v=127
25414 Off ch=3 n=d4 v=127
25415 On ch=3 n=d4 v=127
25415 On ch=7 n=f#5 v=127
25432 Off ch=13 n=b5 v=127
25530 On ch=11 n=a5 v=127
25547 Off ch=7 n=f#5 v=127
25644 Off ch=3 n=d4 v=127
25645 On ch=3 n=d4 v=127
25645 On ch=8 n=g5 v=127
25662 Off ch=11 n=a5 v=127
25760 On ch=13 n=b5 v=127
25777 Off ch=8 n=g5 v=127
25874 Off ch=3 n=d5 v=127
25875 On ch=3 n=d5 v=127
25875 On ch=11 n=a5 v=127
25892 Off ch=13 n=b5 v=127
25990 On ch=1 n=c6 v=127
26007 Off ch=11 n=a5 v=127
26104 Off ch=3 n=d4 v=127
26105 On ch=3 n=d4 v=127
26105 On ch=13 n=b5 v=127
26122 Off ch=1 n=c6 v=127
26220 On ch=3 n=d6 v=127
26237 Off ch=13 n=b5 v=127
26334 Off ch=3 n=d4 v=127
26335 On ch=3 n=d4 v=127
26335 On ch=11 n=a5 v=127
26352 Off ch=3 n=d6 v=127
26450 On ch=1 n=c6 v=127
26467 Off ch=11 n=a5 v=127
26564 Off ch=3 n=d5 v=127
26565 On ch=3 n=d5 v=127
26565 On ch=8 n=g5 v=127
26582 Off ch=1 n=c6 v=127
26680 On ch=13 n=b5 v=127
26697 Off ch=8 n=g5 v=127
26794 Off ch=3 n=d4 v=127
26795 On ch=3 n=d4 v=127
26795 On ch=7 n=f#5 v=127
26812 Off ch=13 n=b5 v=127
26910 Off ch=3 n=d5 v=127
26910 On ch=11 n=a5 v=127
26927 Off ch=7 n=f#5 v=127
27024 Off ch=11 n=a5 v=127
27024 Off ch=3 n=d4 v=127
27025 On ch=8 n=g4 v=127
27025 On ch=8 n=g5 v=127
27140 On ch=3 n=d4 v=127
27157 Off ch=8 n=g4 v=127
27254 Off ch=8 n=g5 v=127
27255 On ch=8 n=g4 v=127
27272 Off ch=3 n=d4 v=127
27370 On ch=13 n=b4 v=127
27387 Off ch=8 n=g4 v=127
27485 On ch=3 n=d5 v=127
27502 Off ch=13 n=b4 v=127
27600 On ch=8 n=g4 v=127
27617 Off ch=3 n=d5 v=127
27715 On ch=13 n=b4 v=127
27732 Off ch=8 n=g4 v=127
27830 On ch=3 n=d5 v=127
27847 Off ch=13 n=b4 v=127
27945 On ch=8 n=g5 v=127
27962 Off ch=3 n=d5 v=127
28060 On ch=3 n=d5 v=127
28077 Off ch=8 n=g5 v=127
28175 On ch=8 n=g5 v=127
28192 Off ch=3 n=d5 v=127
28290 On ch=13 n=b5 v=127
28307 Off ch=8 n=g5 v=127
28405 On ch=8 n=g3 v=127
28405 On ch=3 n=d6 v=127
28422 Off ch=13 n=b5 v=127
28520 On ch=8 n=g5 v=127
28537 Off ch=3 n=d6 v=127
28635 On ch=13 n=b5 v=127
28652 Off ch=8 n=g5 v=127
28750 On ch=3 n=d6 v=127
28767 Off ch=13 n=b5 v=127
28865 On ch=8 n=g6 v=127
28882 Off ch=3 n=d6 v=127
28980 On ch=3 n=d6 v=127
28997 Off ch=8 n=g6 v=127
29094 Off ch=8 n=g3 v=127
29095 On ch=1 n=c5 v=127
29095 On ch=1 n=c4 v=127
29095 On ch=5 n=e6 v=127
29112 Off ch=3 n=d6 v=127
29210 On ch=1 n=c6 v=127
29227 Off ch=5 n=e6 v=127
29324 Off ch=1 n=c4 v=127
29324 Off ch=1 n=c5 v=127
29325 On ch=3 n=d4 v=127
29325 On ch=3 n=d5 v=127
29325 On ch=13 n=b4 v=127
29325 On ch=13 n=b5 v=127
29342 Off ch=1 n=c6 v=127
29440 On ch=8 n=g6 v=127
29457 Off ch=13 n=b5 v=127
29554 Off ch=13 n=b4 v=127
29554 Off ch=3 n=d5 v=127
29555 On ch=1 n=c5 v=127
29555 On ch=11 n=a4 v=127
29555 On ch=11 n=a5 v=127
29613 Off ch=8 n=g6 v=127
29671 On ch=7 n=f#6 v=127
29688 Off ch=11 n=a5 v=127
29785 Off ch=7 n=f#6 v=127
29785 Off ch=11 n=a4 v=127
29785 Off ch=1 n=c5 v=127
29785 Off ch=3 n=d4 v=127
29786 On ch=8 n=g4 v=127
29786 On ch=8 n=g3 v=127
29786 On ch=8 n=g6 v=127
29786 On ch=13 n=b6 v=127
29901 On ch=3 n=d6 v=127
30015 Off ch=13 n=b6 v=127
30015 Off ch=8 n=g6 v=127
30015 Off ch=8 n=g3 v=127
30015 Off ch=8 n=g4 v=127
30016 On ch=13 n=b4 v=127
30016 On ch=13 n=b3 v=127
30016 On ch=5 n=e6 v=127
30033 Off ch=3 n=d6 v=127
30131 On ch=3 n=d6 v=127
30148 Off ch=5 n=e6 v=127
30245 Off ch=13 n=b3 v=127
30245 Off ch=13 n=b4 v=127
30246 On ch=8 n=g3 v=127
30246 On ch=8 n=g4 v=127
30246 On ch=1 n=c6 v=127
30263 Off ch=3 n=d6 v=127
30361 On ch=13 n=b5 v=127
30378 Off ch=1 n=c6 v=127
30475 Off ch=8 n=g4 v=127
30475 Off ch=8 n=g3 v=127
30476 On ch=11 n=a3 v=127
30476 On ch=11 n=a4 v=127
30476 On ch=7 n=f#6 v=127
30476 On ch=11 n=a6 v=127
30493 Off ch=13 n=b5 v=127
30591 On ch=1 n=c6 v=127
30680 Off ch=11 n=a4 v=127
30680 Off ch=11 n=a3 v=127
30705 Off ch=11 n=a6 v=127
30705 Off ch=7 n=f#6 v=127
30706 On ch=7 n=f#3 v=127
30706 On ch=7 n=f#4 v=127
30706 On ch=3 n=d6 v=127
30723 Off ch=1 n=c6 v=127
30821 On ch=1 n=c6 v=127
30838 Off ch=3 n=d6 v=127
30910 Off ch=7 n=f#4 v=127
30910 Off ch=7 n=f#3 v=127
30936 On ch=3 n=d3 v=127
30936 On ch=3 n=d4 v=127
30936 On ch=13 n=b5 v=127
30953 Off ch=1 n=c6 v=127
31051 On ch=11 n=a5 v=127
31068 Off ch=13 n=b5 v=127
31140 Off ch=3 n=d4 v=127
31140 Off ch=3 n=d3 v=127
31166 On ch=8 n=g3 v=127
31166 On ch=8 n=g4 v=127
31166 On ch=13 n=b6 v=127
31166 On ch=8 n=g6 v=127
31183 Off ch=11 n=a5 v=127
31281 On ch=3 n=d6 v=127
31395 Off ch=8 n=g6 v=127
31395 Off ch=13 n=b6 v=127
31395 Off ch=8 n=g4 v=127
31395 Off ch=8 n=g3 v=127
31396 On ch=13 n=b3 v=127
31396 On ch=13 n=b4 v=127
31396 On ch=5 n=e6 v=127
31413 Off ch=3 n=d6 v=127
31511 On ch=3 n=d6 v=127
31528 Off ch=5 n=e6 v=127
31625 Off ch=13 n=b4 v=127
31625 Off ch=13 n=b3 v=127
31626 On ch=8 n=g3 v=127
31626 On ch=8 n=g4 v=127
31626 On ch=1 n=c6 v=127
31643 Off ch=3 n=d6 v=127
31741 On ch=13 n=b5 v=127
31758 Off ch=1 n=c6 v=127
31855 Off ch=8 n=g4 v=127
31855 Off ch=8 n=g3 v=127
31856 On ch=11 n=a4 v=127
31856 On ch=11 n=a3 v=127
31856 On ch=7 n=f#6 v=127
31856 On ch=11 n=a6 v=127
31873 Off ch=13 n=b5 v=127
31971 On ch=1 n=c6 v=127
32060 Off ch=11 n=a3 v=127
32060 Off ch=11 n=a4 v=127
32085 Off ch=11 n=a6 v=127
32085 Off ch=7 n=f#6 v=127
32086 On ch=7 n=f#4 v=127
32086 On ch=7 n=f#3 v=127
32086 On ch=3 n=d6 v=127
32103 Off ch=1 n=c6 v=127
32201 On ch=1 n=c6 v=127
32218 Off ch=3 n=d6 v=127
32290 Off ch=7 n=f#3 v=127
32290 Off ch=7 n=f#4 v=127
32316 On ch=3 n=d3 v=127
32316 On ch=3 n=d4 v=127
32316 On ch=13 n=b5 v=127
32333 Off ch=1 n=c6 v=127
32431 On ch=11 n=a5 v=127
32448 Off ch=13 n=b5 v=127
32520 Off ch=3 n=d4 v=127
32520 Off ch=3 n=d3 v=127
32546 On ch=8 n=g3 v=127
32546 On ch=8 n=g4 v=127
32546 On ch=8 n=g6 v=127
32546 On ch=13 n=b6 v=127
32563 Off ch=11 n=a5 v=127
32661 On ch=3 n=d6 v=127
32719 Off ch=13 n=b6 v=127
32719 Off ch=8 n=g6 v=127
32775 Off ch=8 n=g4 v=127
32775 Off ch=8 n=g3 v=127
32776 On ch=13 n=b3 v=127
32776 On ch=13 n=b4 v=127
32776 On ch=5 n=e6 v=127
32793 Off ch=3 n=d6 v=127
32891 On ch=3 n=d6 v=127
32908 Off ch=5 n=e6 v=127
33005 Off ch=13 n=b4 v=127
33005 Off ch=13 n=b3 v=127
33006 On ch=8 n=g3 v=127
33006 On ch=8 n=g4 v=127
33006 On ch=1 n=c6 v=127
33023 Off ch=3 n=d6 v=127
33121 On ch=13 n=b5 v=127
33138 Off ch=1 n=c6 v=127
33235 Off ch=8 n=g4 v=127
33235 Off ch=8 n=g3 v=127
33236 On ch=11 n=a4 v=127
33236 On ch=11 n=a3 v=127
33236 On ch=11 n=a6 v=127
33236 On ch=7 n=f#6 v=127
33253 Off ch=13 n=b5 v=127
33351 On ch=1 n=c6 v=127
33409 Off ch=7 n=f#6 v=127
33409 Off ch=11 n=a6 v=127
33440 Off ch=11 n=a3 v=127
33440 Off ch=11 n=a4 v=127
33466 On ch=7 n=f#4 v=127
33466 On ch=7 n=f#3 v=127
33466 On ch=3 n=d6 v=127
33483 Off ch=1 n=c6 v=127
33581 On ch=1 n=c6 v=127
33598 Off ch=3 n=d6 v=127
33670 Off ch=7 n=f#3 v=127
33670 Off ch=7 n=f#4 v=127
33696 On ch=3 n=d3 v=127
33696 On ch=3 n=d4 v=127
33696 On ch=13 n=b5 v=127
33713 Off ch=1 n=c6 v=127
33811 On ch=11 n=a5 v=127
33828 Off ch=13 n=b5 v=127
33900 Off ch=3 n=d4 v=127
33900 Off ch=3 n=d3 v=127
33926 On ch=8 n=g3 v=127
33926 On ch=8 n=g4 v=127
33926 On ch=13 n=b5 v=127
33943 Off ch=11 n=a5 v=127
34041 On ch=8 n=g5 v=127
34155 Off ch=13 n=b5 v=127
34155 Off ch=8 n=g4 v=127
34155 Off ch=8 n=g3 v=127
34156 On ch=11 n=a4 v=127
34156 On ch=11 n=a3 v=127
34156 On ch=13 n=b5 v=127
34173 Off ch=8 n=g5 v=127
34271 On ch=3 n=d6 v=127
34288 Off ch=13 n=b5 v=127
34385 Off ch=11 n=a3 v=127
34385 Off ch=11 n=a4 v=127
34386 On ch=13 n=b4 v=127
34386 On ch=13 n=b3 v=127
34386 On ch=8 n=g6 v=127
34403 Off ch=3 n=d6 v=127
34501 On ch=3 n=d6 v=127
34518 Off ch=8 n=g6 v=127
34615 Off ch=13 n=b3 v=127
34615 Off ch=13 n=b4 v=127
34616 On ch=1 n=c5 v=127
34616 On ch=1 n=c4 v=127
34616 On ch=5 n=e6 v=127
34633 Off ch=3 n=d6 v=127
34731 On ch=1 n=c6 v=127
34748 Off ch=5 n=e6 v=127
34845 Off ch=1 n=c4 v=127
34845 Off ch=1 n=c5 v=127
34846 On ch=3 n=d4 v=127
34846 On ch=3 n=d5 v=127
34846 On ch=13 n=b5 v=127
34863 Off ch=1 n=c6 v=127
34961 On ch=8 n=g6 v=127
34978 Off ch=13 n=b5 v=127
35075 Off ch=3 n=d5 v=127
35076 On ch=1 n=c5 v=127
35076 On ch=11 n=a5 v=127
35093 Off ch=8 n=g6 v=127
35191 On ch=7 n=f#6 v=127
35208 Off ch=11 n=a5 v=127
35305 Off ch=1 n=c5 v=127
35305 Off ch=3 n=d4 v=127
35306 On ch=8 n=g3 v=127
35306 On ch=8 n=g6 v=127
35323 Off ch=7 n=f#6 v=127
35421 On ch=13 n=b6 v=127
35438 Off ch=8 n=g6 v=127
35536 On ch=3 n=d6 v=127
35553 Off ch=13 n=b6 v=127
35651 On ch=8 n=g6 v=127
35668 Off ch=3 n=d6 v=127
35766 On ch=13 n=b5 v=127
35783 Off ch=8 n=g6 v=127
35881 On ch=3 n=d6 v=127
35898 Off ch=13 n=b5 v=127
35995 Off ch=8 n=g3 v=127
35996 On ch=8 n=g3 v=127
35996 On ch=8 n=g5 v=127
36013 Off ch=3 n=d6 v=127
36111 On ch=13 n=b5 v=127
36128 Off ch=8 n=g5 v=127
36226 On ch=3 n=d5 v=127
36243 Off ch=13 n=b5 v=127
36341 On ch=8 n=g5 v=127
36358 Off ch=3 n=d5 v=127
36456 On ch=13 n=b4 v=127
36473 Off ch=8 n=g5 v=127
36571 On ch=3 n=d5 v=127
36588 Off ch=13 n=b4 v=127
36685 Off ch=8 n=g3 v=127
36686 On ch=11 n=a3 v=127
36703 Off ch=3 n=d5 v=127
36743 Off ch=11 n=a3 v=127
36744 On ch=8 n=g3 v=127
36800 Off ch=8 n=g3 v=127
36801 On ch=11 n=a3 v=127
36857 Off ch=11 n=a3 v=127
36858 On ch=8 n=g3 v=127
37376 On ch=13 n=b6 v=127
37376 On ch=8 n=g6 v=127
37384 Off ch=8 n=g3 v=127
37606 On ch=13 n=b4 v=127
37606 On ch=8 n=g4 v=127
37835 Off ch=8 n=g4 v=127
37835 Off ch=13 n=b4 v=127
37836 On ch=11 n=a4 v=127
37836 On ch=1 n=c5 v=127
37844 Off ch=8 n=g6 v=127
37844 Off ch=13 n=b6 v=127
38066 On ch=13 n=b6 v=127
38066 On ch=8 n=g6 v=127
38181 Off ch=1 n=c5 v=127
38181 Off ch=11 n=a4 v=127
38296 On ch=3 n=d5 v=127
38296 On ch=13 n=b4 v=127
38469 Off ch=8 n=g6 v=127
38469 Off ch=13 n=b6 v=127
38525 Off ch=13 n=b4 v=127
38525 Off ch=3 n=d5 v=127
38526 On ch=2 n=c#5 v=127
38526 On ch=5 n=e5 v=127
38755 Off ch=5 n=e5 v=127
38755 Off ch=2 n=c#5 v=127
38756 On ch=3 n=d5 v=127
38756 On ch=7 n=f#5 v=127
38871 On ch=3 n=d6 v=127
38888 Off ch=7 n=f#5 v=127
38985 Off ch=3 n=d5 v=127
38986 On ch=5 n=e5 v=127
38986 On ch=8 n=g5 v=127
39087 Off ch=3 n=d6 v=127
39101 On ch=5 n=e6 v=127
39118 Off ch=8 n=g5 v=127
39215 Off ch=5 n=e6 v=127
39215 Off ch=5 n=e5 v=127
39216 On ch=11 n=a4 v=127
39216 On ch=3 n=d6 v=127
39216 On ch=5 n=e6 v=127
39331 On ch=2 n=c#6 v=127
39348 Off ch=5 n=e6 v=127
39348 Off ch=3 n=d6 v=127
39445 Off ch=11 n=a4 v=127
39446 On ch=3 n=d5 v=127
39446 On ch=3 n=d6 v=127
39463 Off ch=2 n=c#6 v=127
39561 On ch=11 n=a5 v=127
39578 Off ch=3 n=d6 v=127
39675 Off ch=3 n=d5 v=127
39676 On ch=11 n=a4 v=127
39676 On ch=7 n=f#5 v=127
39693 Off ch=11 n=a5 v=127
39791 On ch=3 n=d5 v=127
39808 Off ch=7 n=f#5 v=127
39905 Off ch=11 n=a4 v=127
39906 On ch=3 n=d3 v=127
39923 Off ch=3 n=d5 v=127
40135 Off ch=3 n=d3 v=127
40136 On ch=7 n=f#6 v=127
40136 On ch=11 n=a6 v=127
40366 On ch=7 n=f#5 v=127
40366 On ch=3 n=d5 v=127
40595 Off ch=3 n=d5 v=127
40595 Off ch=7 n=f#5 v=127
40595 Off ch=11 n=a6 v=127
40595 Off ch=7 n=f#6 v=127
40596 On ch=5 n=e5 v=127
40596 On ch=8 n=g5 v=127
40826 On ch=7 n=f#6 v=127
40826 On ch=11 n=a6 v=127
40941 Off ch=8 n=g5 v=127
40941 Off ch=5 n=e5 v=127
41056 On ch=11 n=a5 v=127
41056 On ch=7 n=f#5 v=127
41171 Off ch=11 n=a6 v=127
41171 Off ch=7 n=f#6 v=127
41285 Off ch=7 n=f#5 v=127
41285 Off ch=11 n=a5 v=127
41286 On ch=9 n=g#5 v=127
41286 On ch=13 n=b5 v=127
41515 Off ch=13 n=b5 v=127
41515 Off ch=9 n=g#5 v=127
41516 On ch=11 n=a5 v=127
41516 On ch=1 n=c6 v=127
41631 On ch=1 n=c7 v=127
41648 Off ch=1 n=c6 v=127
41745 Off ch=11 n=a5 v=127
41746 On ch=13 n=b5 v=127
41746 On ch=3 n=d6 v=127
41835 Off ch=1 n=c7 v=127
41861 On ch=13 n=b6 v=127
41878 Off ch=3 n=d6 v=127
41975 Off ch=13 n=b6 v=127
41975 Off ch=13 n=b5 v=127
41976 On ch=5 n=e5 v=127
41976 On ch=11 n=a6 v=127
41976 On ch=13 n=b6 v=127
42091 On ch=9 n=g#6 v=127
42108 Off ch=13 n=b6 v=127
42108 Off ch=11 n=a6 v=127
42205 Off ch=5 n=e5 v=127
42206 On ch=11 n=a5 v=127
42206 On ch=11 n=a6 v=127
42223 Off ch=9 n=g#6 v=127
42321 On ch=5 n=e6 v=127
42338 Off ch=11 n=a6 v=127
42435 Off ch=11 n=a5 v=127
42436 On ch=5 n=e5 v=127
42436 On ch=1 n=c6 v=127
42453 Off ch=5 n=e6 v=127
42551 On ch=11 n=a5 v=127
42568 Off ch=1 n=c6 v=127
42665 Off ch=5 n=e5 v=127
42666 On ch=11 n=a3 v=127
42683 Off ch=11 n=a5 v=127
42895 Off ch=11 n=a3 v=127
42896 On ch=1 n=c6 v=127
42896 On ch=11 n=a5 v=127
42896 On ch=5 n=e6 v=127
43011 On ch=1 n=c7 v=127
43028 Off ch=5 n=e6 v=127
43125 Off ch=11 n=a5 v=127
43125 Off ch=1 n=c6 v=127
43126 On ch=13 n=b5 v=127
43126 On ch=8 n=g5 v=127
43126 On ch=5 n=e6 v=127
43143 Off ch=1 n=c7 v=127
43241 On ch=13 n=b6 v=127
43258 Off ch=5 n=e6 v=127
43355 Off ch=8 n=g5 v=127
43355 Off ch=13 n=b5 v=127
43356 On ch=11 n=a5 v=127
43356 On ch=7 n=f#5 v=127
43356 On ch=4 n=d#6 v=127
43373 Off ch=13 n=b6 v=127
43471 On ch=11 n=a6 v=127
43488 Off ch=4 n=d#6 v=127
43585 Off ch=7 n=f#5 v=127
43585 Off ch=11 n=a5 v=127
43586 On ch=1 n=c6 v=127
43586 On ch=11 n=a5 v=127
43586 On ch=5 n=e6 v=127
43603 Off ch=11 n=a6 v=127
43701 On ch=1 n=c7 v=127
43718 Off ch=5 n=e6 v=127
43815 Off ch=11 n=a5 v=127
43815 Off ch=1 n=c6 v=127
43816 On ch=13 n=b5 v=127
43816 On ch=8 n=g5 v=127
43816 On ch=5 n=e6 v=127
43833 Off ch=1 n=c7 v=127
43931 On ch=13 n=b6 v=127
43948 Off ch=5 n=e6 v=127
44045 Off ch=8 n=g5 v=127
44045 Off ch=13 n=b5 v=127
44046 On ch=7 n=f#5 v=127
44046 On ch=11 n=a5 v=127
44046 On ch=4 n=d#6 v=127
44063 Off ch=13 n=b6 v=127
44161 On ch=11 n=a6 v=127
44178 Off ch=4 n=d#6 v=127
44275 Off ch=11 n=a5 v=127
44275 Off ch=7 n=f#5 v=127
44276 On ch=1 n=c6 v=127
44276 On ch=11 n=a5 v=127
44276 On ch=5 n=e6 v=127
44293 Off ch=11 n=a6 v=127
44391 On ch=1 n=c7 v=127
44408 Off ch=5 n=e6 v=127
44505 Off ch=11 n=a5 v=127
44505 Off ch=1 n=c6 v=127
44506 On ch=8 n=g5 v=127
44506 On ch=13 n=b5 v=127
44506 On ch=5 n=e6 v=127
44523 Off ch=1 n=c7 v=127
44621 On ch=13 n=b6 v=127
44638 Off ch=5 n=e6 v=127
44735 Off ch=13 n=b5 v=127
44735 Off ch=8 n=g5 v=127
44736 On ch=7 n=f#5 v=127
44736 On ch=11 n=a5 v=127
44736 On ch=4 n=d#6 v=127
44753 Off ch=13 n=b6 v=127
44851 On ch=11 n=a6 v=127
44868 Off ch=4 n=d#6 v=127
44965 Off ch=11 n=a5 v=127
44965 Off ch=7 n=f#5 v=127
44966 On ch=8 n=g5 v=127
44966 On ch=5 n=e5 v=127
44966 On ch=1 n=c6 v=127
44983 Off ch=11 n=a6 v=127
45081 On ch=8 n=g6 v=127
45098 Off ch=1 n=c6 v=127
45195 Off ch=5 n=e5 v=127
45195 Off ch=8 n=g5 v=127
45196 On ch=3 n=d5 v=127
45196 On ch=7 n=f#5 v=127
45196 On ch=13 n=b5 v=127
45213 Off ch=8 n=g6 v=127
45311 On ch=7 n=f#6 v=127
45328 Off ch=13 n=b5 v=127
45425 Off ch=7 n=f#5 v=127
45425 Off ch=3 n=d5 v=127
45426 On ch=1 n=c5 v=127
45426 On ch=5 n=e5 v=127
45426 On ch=11 n=a5 v=127
45443 Off ch=7 n=f#6 v=127
45541 On ch=5 n=e6 v=127
45558 Off ch=11 n=a5 v=127
45655 Off ch=5 n=e5 v=127
45655 Off ch=1 n=c5 v=127
45656 On ch=8 n=g5 v=127
45656 On ch=5 n=e5 v=127
45656 On ch=1 n=c6 v=127
45673 Off ch=5 n=e6 v=127
45771 On ch=8 n=g6 v=127
45788 Off ch=1 n=c6 v=127
45885 Off ch=5 n=e5 v=127
45885 Off ch=8 n=g5 v=127
45886 On ch=7 n=f#5 v=127
45886 On ch=3 n=d5 v=127
45886 On ch=13 n=b5 v=127
45903 Off ch=8 n=g6 v=127
46001 On ch=7 n=f#6 v=127
46018 Off ch=13 n=b5 v=127
46115 Off ch=3 n=d5 v=127
46115 Off ch=7 n=f#5 v=127
46116 On ch=1 n=c5 v=127
46116 On ch=5 n=e5 v=127
46116 On ch=11 n=a5 v=127
46133 Off ch=7 n=f#6 v=127
46231 On ch=5 n=e6 v=127
46248 Off ch=11 n=a5 v=127
46345 Off ch=5 n=e5 v=127
46345 Off ch=1 n=c5 v=127
46346 On ch=8 n=g5 v=127
46346 On ch=5 n=e5 v=127
46346 On ch=1 n=c6 v=127
46363 Off ch=5 n=e6 v=127
46461 On ch=8 n=g6 v=127
46478 Off ch=1 n=c6 v=127
46575 Off ch=5 n=e5 v=127
46575 Off ch=8 n=g5 v=127
46576 On ch=7 n=f#5 v=127
46576 On ch=3 n=d5 v=127
46576 On ch=13 n=b5 v=127
46593 Off ch=8 n=g6 v=127
46691 On ch=7 n=f#6 v=127
46708 Off ch=13 n=b5 v=127
46805 Off ch=3 n=d5 v=127
46805 Off ch=7 n=f#5 v=127
46806 On ch=5 n=e5 v=127
46806 On ch=1 n=c5 v=127
46806 On ch=11 n=a5 v=127
46823 Off ch=7 n=f#6 v=127
46921 On ch=5 n=e6 v=127
46938 Off ch=11 n=a5 v=127
47035 Off ch=1 n=c5 v=127
47035 Off ch=5 n=e5 v=127
47036 On ch=13 n=b4 v=127
47036 On ch=4 n=d#6 v=127
47053 Off ch=5 n=e6 v=127
47151 On ch=13 n=b5 v=127
47168 Off ch=4 n=d#6 v=127
47265 Off ch=13 n=b4 v=127
47266 On ch=5 n=e5 v=127
47266 On ch=2 n=c#5 v=127
47266 On ch=5 n=e6 v=127
47283 Off ch=13 n=b5 v=127
47381 On ch=13 n=b5 v=127
47398 Off ch=5 n=e6 v=127
47495 Off ch=2 n=c#5 v=127
47495 Off ch=5 n=e5 v=127
47496 On ch=4 n=d#5 v=127
47496 On ch=7 n=f#5 v=127
47496 On ch=7 n=f#6 v=127
47513 Off ch=13 n=b5 v=127
47611 On ch=13 n=b5 v=127
47628 Off ch=7 n=f#6 v=127
47725 Off ch=7 n=f#5 v=127
47725 Off ch=4 n=d#5 v=127
47726 On ch=5 n=e5 v=127
47726 On ch=8 n=g5 v=127
47726 On ch=8 n=g6 v=127
47743 Off ch=13 n=b5 v=127
47841 On ch=13 n=b5 v=127
47858 Off ch=8 n=g6 v=127
47955 Off ch=8 n=g5 v=127
47955 Off ch=5 n=e5 v=127
47956 On ch=11 n=a4 v=127
47956 On ch=7 n=f#5 v=127
47956 On ch=11 n=a6 v=127
47973 Off ch=13 n=b5 v=127
48071 On ch=5 n=e5 v=127
48071 On ch=8 n=g6 v=127
48088 Off ch=11 n=a6 v=127
48088 Off ch=7 n=f#5 v=127
48186 On ch=4 n=d#5 v=127
48186 On ch=7 n=f#6 v=127
48203 Off ch=8 n=g6 v=127
48203 Off ch=5 n=e5 v=127
48301 On ch=2 n=c#5 v=127
48301 On ch=5 n=e6 v=127
48318 Off ch=7 n=f#6 v=127
48318 Off ch=4 n=d#5 v=127
48415 Off ch=11 n=a4 v=127
48416 On ch=13 n=b4 v=127
48416 On ch=13 n=b6 v=127
48433 Off ch=5 n=e6 v=127
48433 Off ch=2 n=c#5 v=127
48531 On ch=7 n=f#6 v=127
48644 Off ch=13 n=b6 v=127
48645 Off ch=13 n=b4 v=127
48646 On ch=7 n=f#4 v=127
48646 On ch=4 n=d#6 v=127
48663 Off ch=7 n=f#6 v=127
48761 On ch=13 n=b5 v=127
48778 Off ch=4 n=d#6 v=127
48875 Off ch=7 n=f#4 v=127
48876 On ch=13 n=b3 v=127
48893 Off ch=13 n=b5 v=127
49105 Off ch=13 n=b3 v=127
49106 On ch=8 n=g5 v=127
49106 On ch=5 n=e6 v=127
49221 On ch=13 n=b5 v=127
49238 Off ch=8 n=g5 v=127
49335 Off ch=5 n=e6 v=127
49336 On ch=11 n=a5 v=127
49336 On ch=7 n=f#6 v=127
49353 Off ch=13 n=b5 v=127
49451 On ch=1 n=c6 v=127
49468 Off ch=11 n=a5 v=127
49565 Off ch=7 n=f#6 v=127
49566 On ch=13 n=b5 v=127
49566 On ch=4 n=d#6 v=127
49583 Off ch=1 n=c6 v=127
49681 On ch=11 n=a5 v=127
49698 Off ch=13 n=b5 v=127
49795 Off ch=4 n=d#6 v=127
49796 On ch=8 n=g5 v=127
49796 On ch=5 n=e6 v=127
49813 Off ch=11 n=a5 v=127
49911 On ch=13 n=b5 v=127
49928 Off ch=8 n=g5 v=127
50025 Off ch=5 n=e6 v=127
50026 On ch=11 n=a5 v=127
50026 On ch=7 n=f#6 v=127
50043 Off ch=13 n=b5 v=127
50141 On ch=1 n=c6 v=127
50158 Off ch=11 n=a5 v=127
50255 Off ch=7 n=f#6 v=127
50256 On ch=13 n=b5 v=127
50256 On ch=4 n=d#6 v=127
50273 Off ch=1 n=c6 v=127
50371 On ch=11 n=a5 v=127
50388 Off ch=13 n=b5 v=127
50485 Off ch=4 n=d#6 v=127
50486 On ch=8 n=g5 v=127
50486 On ch=5 n=e6 v=127
50503 Off ch=11 n=a5 v=127
50601 On ch=13 n=b5 v=127
50618 Off ch=8 n=g5 v=127
50715 Off ch=5 n=e6 v=127
50716 On ch=11 n=a5 v=127
50716 On ch=7 n=f#6 v=127
50733 Off ch=13 n=b5 v=127
50831 On ch=1 n=c6 v=127
50848 Off ch=11 n=a5 v=127
50945 Off ch=7 n=f#6 v=127
50946 On ch=13 n=b5 v=127
50946 On ch=4 n=d#6 v=127
50963 Off ch=1 n=c6 v=127
51061 On ch=11 n=a5 v=127
51078 Off ch=13 n=b5 v=127
51175 Off ch=4 n=d#6 v=127
51176 On ch=8 n=g5 v=127
51176 On ch=5 n=e6 v=127
51193 Off ch=11 n=a5 v=127
51291 On ch=11 n=a5 v=127
51308 Off ch=8 n=g5 v=127
51405 Off ch=5 n=e6 v=127
51406 On ch=7 n=f#5 v=127
51406 On ch=3 n=d6 v=127
51423 Off ch=11 n=a5 v=127
51521 On ch=8 n=g5 v=127
51538 Off ch=7 n=f#5 v=127
51635 Off ch=3 n=d6 v=127
51636 On ch=5 n=e5 v=127
51636 On ch=1 n=c6 v=127
51653 Off ch=8 n=g5 v=127
51751 On ch=7 n=f#5 v=127
51768 Off ch=5 n=e5 v=127
51865 Off ch=1 n=c6 v=127
51866 On ch=4 n=d#5 v=127
51866 On ch=13 n=b5 v=127
51883 Off ch=7 n=f#5 v=127
51981 On ch=7 n=f#5 v=127
51998 Off ch=4 n=d#5 v=127
52095 Off ch=13 n=b5 v=127
52096 On ch=5 n=e5 v=127
52096 On ch=1 n=c6 v=127
52113 Off ch=7 n=f#5 v=127
52211 On ch=8 n=g5 v=127
52228 Off ch=5 n=e5 v=127
52325 Off ch=1 n=c6 v=127
52326 On ch=7 n=f#5 v=127
52326 On ch=11 n=a5 v=127
52343 Off ch=8 n=g5 v=127
52441 On ch=5 n=e5 v=127
52458 Off ch=7 n=f#5 v=127
52555 Off ch=11 n=a5 v=127
52556 On ch=4 n=d#5 v=127
52556 On ch=13 n=b5 v=127
52573 Off ch=5 n=e5 v=127
52671 On ch=7 n=f#5 v=127
52688 Off ch=4 n=d#5 v=127
52785 Off ch=13 n=b5 v=127
52786 On ch=5 n=e5 v=127
52786 On ch=1 n=c6 v=127
52803 Off ch=7 n=f#5 v=127
52901 On ch=8 n=g5 v=127
52918 Off ch=5 n=e5 v=127
53015 Off ch=1 n=c6 v=127
53016 On ch=7 n=f#5 v=127
53016 On ch=11 n=a5 v=127
53033 Off ch=8 n=g5 v=127
53131 On ch=5 n=e5 v=127
53148 Off ch=7 n=f#5 v=127
53245 Off ch=11 n=a5 v=127
53246 On ch=4 n=d#5 v=127
53246 On ch=13 n=b5 v=127
53263 Off ch=5 n=e5 v=127
53361 On ch=7 n=f#5 v=127
53378 Off ch=4 n=d#5 v=127
53475 Off ch=13 n=b5 v=127
53476 On ch=5 n=e5 v=127
53476 On ch=1 n=c6 v=127
53493 Off ch=7 n=f#5 v=127
53591 On ch=8 n=g5 v=127
53608 Off ch=5 n=e5 v=127
53705 Off ch=1 n=c6 v=127
53706 On ch=7 n=f#5 v=127
53706 On ch=11 n=a5 v=127
53723 Off ch=8 n=g5 v=127
53821 On ch=5 n=e5 v=127
53838 Off ch=7 n=f#5 v=127
53935 Off ch=11 n=a5 v=127
53936 On ch=4 n=d#5 v=127
53936 On ch=13 n=b5 v=127
53953 Off ch=5 n=e5 v=127
54051 On ch=13 n=b4 v=127
54068 Off ch=4 n=d#5 v=127
54165 Off ch=13 n=b5 v=127
54166 On ch=5 n=e5 v=127
54166 On ch=2 n=c#6 v=127
54183 Off ch=13 n=b4 v=127
54281 On ch=13 n=b4 v=127
54298 Off ch=5 n=e5 v=127
54395 Off ch=2 n=c#6 v=127
54396 On ch=7 n=f#5 v=127
54396 On ch=4 n=d#6 v=127
54413 Off ch=13 n=b4 v=127
54511 On ch=13 n=b4 v=127
54528 Off ch=7 n=f#5 v=127
54625 Off ch=4 n=d#6 v=127
54626 On ch=8 n=g5 v=127
54626 On ch=5 n=e6 v=127
54626 On ch=13 n=b5 v=127
54643 Off ch=13 n=b4 v=127
54741 On ch=13 n=b4 v=127
54758 Off ch=8 n=g5 v=127
54855 Off ch=5 n=e6 v=127
54856 On ch=7 n=f#5 v=127
54856 On ch=4 n=d#6 v=127
54873 Off ch=13 n=b4 v=127
54971 On ch=13 n=b4 v=127
54988 Off ch=7 n=f#5 v=127
55085 Off ch=4 n=d#6 v=127
55086 On ch=8 n=g5 v=127
55086 On ch=5 n=e6 v=127
55103 Off ch=13 n=b4 v=127
55201 On ch=13 n=b4 v=127
55218 Off ch=8 n=g5 v=127
55315 Off ch=5 n=e6 v=127
55315 Off ch=13 n=b5 v=127
55316 On ch=7 n=f#5 v=127
55316 On ch=4 n=d#6 v=127
55316 On ch=13 n=b5 v=127
55333 Off ch=13 n=b4 v=127
55431 On ch=13 n=b4 v=127
55448 Off ch=7 n=f#5 v=127
55545 Off ch=4 n=d#6 v=127
55546 On ch=5 n=e5 v=127
55546 On ch=5 n=e6 v=127
55563 Off ch=13 n=b4 v=127
55661 On ch=13 n=b4 v=127
55678 Off ch=5 n=e5 v=127
55775 Off ch=5 n=e6 v=127
55776 On ch=4 n=d#5 v=127
55776 On ch=7 n=f#6 v=127
55793 Off ch=13 n=b4 v=127
55891 On ch=13 n=b4 v=127
55908 Off ch=4 n=d#5 v=127
56005 Off ch=7 n=f#6 v=127
56005 Off ch=13 n=b5 v=127
56006 On ch=5 n=e5 v=127
56006 On ch=8 n=g6 v=127
56006 On ch=13 n=b5 v=127
56023 Off ch=13 n=b4 v=127
56121 On ch=13 n=b4 v=127
56138 Off ch=5 n=e5 v=127
56235 Off ch=8 n=g6 v=127
56236 On ch=4 n=d#5 v=127
56236 On ch=7 n=f#6 v=127
56253 Off ch=13 n=b4 v=127
56351 On ch=13 n=b4 v=127
56368 Off ch=4 n=d#5 v=127
56465 Off ch=7 n=f#6 v=127
56466 On ch=5 n=e5 v=127
56466 On ch=8 n=g6 v=127
56483 Off ch=13 n=b4 v=127
56581 On ch=13 n=b4 v=127
56598 Off ch=5 n=e5 v=127
56695 Off ch=8 n=g6 v=127
56695 Off ch=13 n=b5 v=127
56696 On ch=4 n=d#5 v=127
56696 On ch=7 n=f#6 v=127
56696 On ch=13 n=b5 v=127
56713 Off ch=13 n=b4 v=127
56811 On ch=13 n=b4 v=127
56828 Off ch=4 n=d#5 v=127
56925 Off ch=7 n=f#6 v=127
56926 On ch=5 n=e5 v=127
56926 On ch=5 n=e6 v=127
56943 Off ch=13 n=b4 v=127
57041 On ch=13 n=b4 v=127
57058 Off ch=5 n=e5 v=127
57155 Off ch=5 n=e6 v=127
57156 On ch=7 n=f#5 v=127
57156 On ch=4 n=d#6 v=127
57173 Off ch=13 n=b4 v=127
57271 On ch=13 n=b4 v=127
57288 Off ch=7 n=f#5 v=127
57385 Off ch=4 n=d#6 v=127
57385 Off ch=13 n=b5 v=127
57386 On ch=8 n=g5 v=127
57386 On ch=13 n=b5 v=127
57386 On ch=5 n=e6 v=127
57403 Off ch=13 n=b4 v=127
57501 On ch=13 n=b4 v=127
57518 Off ch=8 n=g5 v=127
57615 Off ch=5 n=e6 v=127
57616 On ch=7 n=f#5 v=127
57616 On ch=4 n=d#6 v=127
57633 Off ch=13 n=b4 v=127
57731 On ch=13 n=b4 v=127
57748 Off ch=7 n=f#5 v=127
57845 Off ch=4 n=d#6 v=127
57846 On ch=8 n=g5 v=127
57846 On ch=5 n=e6 v=127
57863 Off ch=13 n=b4 v=127
57961 On ch=13 n=b4 v=127
57978 Off ch=8 n=g5 v=127
58075 Off ch=5 n=e6 v=127
58075 Off ch=13 n=b5 v=127
58076 On ch=7 n=f#5 v=127
58076 On ch=4 n=d#6 v=127
58076 On ch=13 n=b5 v=127
58093 Off ch=13 n=b4 v=127
58191 On ch=13 n=b4 v=127
58208 Off ch=7 n=f#5 v=127
58305 Off ch=4 n=d#6 v=127
58306 On ch=5 n=e5 v=127
58306 On ch=5 n=e6 v=127
58323 Off ch=13 n=b4 v=127
58421 On ch=13 n=b4 v=127
58438 Off ch=5 n=e5 v=127
58535 Off ch=5 n=e6 v=127
58536 On ch=4 n=d#5 v=127
58536 On ch=7 n=f#6 v=127
58553 Off ch=13 n=b4 v=127
58651 On ch=13 n=b4 v=127
58668 Off ch=4 n=d#5 v=127
58765 Off ch=7 n=f#6 v=127
58765 Off ch=13 n=b5 v=127
58766 On ch=5 n=e5 v=127
58766 On ch=8 n=g6 v=127
58766 On ch=13 n=b5 v=127
58783 Off ch=13 n=b4 v=127
58881 On ch=13 n=b4 v=127
58898 Off ch=5 n=e5 v=127
58995 Off ch=8 n=g6 v=127
58996 On ch=4 n=d#5 v=127
58996 On ch=7 n=f#6 v=127
59013 Off ch=13 n=b4 v=127
59111 On ch=13 n=b4 v=127
59128 Off ch=4 n=d#5 v=127
59225 Off ch=7 n=f#6 v=127
59226 On ch=5 n=e5 v=127
59226 On ch=8 n=g6 v=127
59243 Off ch=13 n=b4 v=127
59341 On ch=13 n=b4 v=127
59358 Off ch=5 n=e5 v=127
59455 Off ch=8 n=g6 v=127
59455 Off ch=13 n=b5 v=127
59456 On ch=13 n=b5 v=127
59571 On ch=4 n=d#6 v=127
59588 Off ch=13 n=b5 v=127
59686 On ch=13 n=b5 v=127
59686 On ch=2 n=c#6 v=127
59703 Off ch=4 n=d#6 v=127
59801 On ch=5 n=e6 v=127
59818 Off ch=2 n=c#6 v=127
59907 Off ch=13 n=b4 v=127
59917 On ch=13 n=b4 v=127
59917 On ch=4 n=d#6 v=127
59934 Off ch=5 n=e6 v=127
60032 On ch=7 n=f#6 v=127
60049 Off ch=4 n=d#6 v=127
60146 Off ch=13 n=b4 v=127
60147 On ch=13 n=b4 v=127
60147 On ch=5 n=e6 v=127
60164 Off ch=7 n=f#6 v=127
60262 On ch=8 n=g6 v=127
60279 Off ch=5 n=e6 v=127
60376 Off ch=13 n=b5 v=127
60377 On ch=13 n=b5 v=127
60377 On ch=3 n=d6 v=127
60394 Off ch=8 n=g6 v=127
60492 On ch=7 n=f#6 v=127
60509 Off ch=3 n=d6 v=127
60606 Off ch=13 n=b4 v=127
60607 On ch=13 n=b4 v=127
60607 On ch=1 n=c6 v=127
60624 Off ch=7 n=f#6 v=127
60722 On ch=5 n=e6 v=127
60739 Off ch=1 n=c6 v=127
60836 Off ch=13 n=b4 v=127
60836 Off ch=13 n=b5 v=127
60837 On ch=13 n=b4 v=127
60837 On ch=13 n=b5 v=127
60854 Off ch=5 n=e6 v=127
60952 On ch=4 n=d#6 v=127
60969 Off ch=13 n=b5 v=127
61067 On ch=13 n=b5 v=127
61067 On ch=2 n=c#6 v=127
61084 Off ch=4 n=d#6 v=127
61182 On ch=5 n=e6 v=127
61199 Off ch=2 n=c#6 v=127
61296 Off ch=13 n=b4 v=127
61297 On ch=13 n=b4 v=127
61297 On ch=4 n=d#6 v=127
61314 Off ch=5 n=e6 v=127
61412 On ch=7 n=f#6 v=127
61429 Off ch=4 n=d#6 v=127
61526 Off ch=13 n=b4 v=127
61527 On ch=13 n=b4 v=127
61527 On ch=5 n=e6 v=127
61544 Off ch=7 n=f#6 v=127
61642 On ch=8 n=g6 v=127
61659 Off ch=5 n=e6 v=127
61756 Off ch=13 n=b5 v=127
61757 On ch=13 n=b5 v=127
61757 On ch=3 n=d6 v=127
61774 Off ch=8 n=g6 v=127
61872 On ch=7 n=f#6 v=127
61889 Off ch=3 n=d6 v=127
61986 Off ch=13 n=b4 v=127
61987 On ch=13 n=b4 v=127
61987 On ch=1 n=c6 v=127
62004 Off ch=7 n=f#6 v=127
62102 Off ch=13 n=b5 v=127
62102 On ch=5 n=e6 v=127
62119 Off ch=1 n=c6 v=127
62216 Off ch=13 n=b4 v=127
62217 On ch=13 n=b4 v=127
62217 On ch=13 n=b5 v=127
62234 Off ch=5 n=e6 v=127
62332 On ch=4 n=d#6 v=127
62349 Off ch=13 n=b5 v=127
62447 On ch=11 n=a5 v=127
62464 Off ch=4 n=d#6 v=127
62562 On ch=1 n=c6 v=127
62579 Off ch=11 n=a5 v=127
62677 On ch=8 n=g5 v=127
62694 Off ch=1 n=c6 v=127
62792 On ch=13 n=b5 v=127
62809 Off ch=8 n=g5 v=127
62907 On ch=13 n=b3 v=127
62907 On ch=11 n=a5 v=127
62924 Off ch=13 n=b5 v=127
63022 On ch=1 n=c6 v=127
63039 Off ch=11 n=a5 v=127
63136 Off ch=13 n=b4 v=127
63137 On ch=13 n=b4 v=127
63137 On ch=8 n=g5 v=127
63154 Off ch=1 n=c6 v=127
63252 On ch=13 n=b5 v=127
63269 Off ch=8 n=g5 v=127
63366 Off ch=13 n=b3 v=127
63367 On ch=13 n=b3 v=127
63367 On ch=7 n=f#5 v=127
63384 Off ch=13 n=b5 v=127
63482 On ch=11 n=a5 v=127
63499 Off ch=7 n=f#5 v=127
63596 Off ch=13 n=b3 v=127
63597 On ch=13 n=b3 v=127
63597 On ch=8 n=g5 v=127
63614 Off ch=11 n=a5 v=127
63712 On ch=13 n=b5 v=127
63729 Off ch=8 n=g5 v=127
63826 Off ch=13 n=b4 v=127
63827 On ch=13 n=b4 v=127
63827 On ch=7 n=f#5 v=127
63844 Off ch=13 n=b5 v=127
63942 On ch=11 n=a5 v=127
63959 Off ch=7 n=f#5 v=127
64056 Off ch=13 n=b3 v=127
64057 On ch=13 n=b3 v=127
64057 On ch=5 n=e5 v=127
64074 Off ch=11 n=a5 v=127
64172 On ch=8 n=g5 v=127
64189 Off ch=5 n=e5 v=127
64286 Off ch=13 n=b3 v=127
64287 On ch=13 n=b3 v=127
64287 On ch=7 n=f#5 v=127
64304 Off ch=8 n=g5 v=127
64402 On ch=11 n=a5 v=127
64419 Off ch=7 n=f#5 v=127
64516 Off ch=13 n=b4 v=127
64517 On ch=13 n=b4 v=127
64517 On ch=5 n=e5 v=127
64534 Off ch=11 n=a5 v=127
64632 On ch=8 n=g5 v=127
64649 Off ch=5 n=e5 v=127
64746 Off ch=13 n=b3 v=127
64747 On ch=13 n=b3 v=127
64747 On ch=4 n=d#5 v=127
64764 Off ch=8 n=g5 v=127
64862 On ch=7 n=f#5 v=127
64879 Off ch=4 n=d#5 v=127
64976 Off ch=13 n=b3 v=127
64977 On ch=13 n=b3 v=127
64977 On ch=5 n=e5 v=127
64994 Off ch=7 n=f#5 v=127
65092 On ch=8 n=g5 v=127
65109 Off ch=5 n=e5 v=127
65206 Off ch=13 n=b4 v=127
65207 On ch=13 n=b4 v=127
65207 On ch=7 n=f#5 v=127
65224 Off ch=8 n=g5 v=127
65322 On ch=11 n=a5 v=127
65339 Off ch=7 n=f#5 v=127
65436 Off ch=13 n=b3 v=127
65437 On ch=13 n=b3 v=127
65437 On ch=8 n=g5 v=127
65454 Off ch=11 n=a5 v=127
65552 On ch=13 n=b5 v=127
65569 Off ch=8 n=g5 v=127
65666 Off ch=13 n=b3 v=127
65667 On ch=13 n=b3 v=127
65667 On ch=7 n=f#5 v=127
65684 Off ch=13 n=b5 v=127
65782 On ch=11 n=a5 v=127
65799 Off ch=7 n=f#5 v=127
65896 Off ch=13 n=b4 v=127
65897 On ch=13 n=b4 v=127
65897 On ch=5 n=e5 v=127
65914 Off ch=11 n=a5 v=127
66012 On ch=8 n=g5 v=127
66029 Off ch=5 n=e5 v=127
66126 Off ch=13 n=b3 v=127
66127 On ch=13 n=b3 v=127
66127 On ch=4 n=d#5 v=127
66144 Off ch=8 n=g5 v=127
66242 On ch=7 n=f#5 v=127
66259 Off ch=4 n=d#5 v=127
66356 Off ch=13 n=b3 v=127
66357 On ch=13 n=b3 v=127
66357 On ch=5 n=e5 v=127
66374 Off ch=7 n=f#5 v=127
66472 On ch=8 n=g5 v=127
66489 Off ch=5 n=e5 v=127
66586 Off ch=13 n=b4 v=127
66587 On ch=13 n=b4 v=127
66587 On ch=7 n=f#5 v=127
66604 Off ch=8 n=g5 v=127
66702 On ch=11 n=a5 v=127
66719 Off ch=7 n=f#5 v=127
66816 Off ch=13 n=b3 v=127
66817 On ch=13 n=b3 v=127
66817 On ch=8 n=g5 v=127
66834 Off ch=11 n=a5 v=127
66932 On ch=13 n=b5 v=127
66949 Off ch=8 n=g5 v=127
67046 Off ch=13 n=b3 v=127
67047 On ch=13 n=b3 v=127
67047 On ch=7 n=f#5 v=127
67064 Off ch=13 n=b5 v=127
67162 On ch=11 n=a5 v=127
67179 Off ch=7 n=f#5 v=127
67276 Off ch=13 n=b4 v=127
67277 On ch=13 n=b4 v=127
67277 On ch=5 n=e5 v=127
67294 Off ch=11 n=a5 v=127
67392 On ch=8 n=g5 v=127
67409 Off ch=5 n=e5 v=127
67506 Off ch=13 n=b3 v=127
67507 On ch=13 n=b3 v=127
67507 On ch=4 n=d#5 v=127
67524 Off ch=8 n=g5 v=127
67622 Off ch=13 n=b4 v=127
67622 On ch=7 n=f#5 v=127
67639 Off ch=4 n=d#5 v=127
67736 Off ch=7 n=f#5 v=127
67736 Off ch=13 n=b3 v=127
67737 On ch=5 n=e4 v=127
67737 On ch=5 n=e5 v=127
67852 On ch=13 n=b3 v=127
67869 Off ch=5 n=e4 v=127
67967 On ch=5 n=e4 v=127
67984 Off ch=13 n=b3 v=127
68082 On ch=8 n=g4 v=127
68099 Off ch=5 n=e4 v=127
68196 Off ch=5 n=e5 v=127
68197 On ch=13 n=b4 v=127
68214 Off ch=8 n=g4 v=127
68312 On ch=5 n=e4 v=127
68329 Off ch=13 n=b4 v=127
68427 On ch=8 n=g4 v=127
68444 Off ch=5 n=e4 v=127
68542 On ch=13 n=b4 v=127
68559 Off ch=8 n=g4 v=127
68657 On ch=5 n=e5 v=127
68674 Off ch=13 n=b4 v=127
68772 On ch=13 n=b4 v=127
68789 Off ch=5 n=e5 v=127
68887 On ch=5 n=e5 v=127
68904 Off ch=13 n=b4 v=127
69002 On ch=8 n=g5 v=127
69019 Off ch=5 n=e5 v=127
69117 On ch=5 n=e3 v=127
69117 On ch=13 n=b5 v=127
69134 Off ch=8 n=g5 v=127
69232 On ch=5 n=e5 v=127
69249 Off ch=13 n=b5 v=127
69347 On ch=8 n=g5 v=127
69364 Off ch=5 n=e5 v=127
69462 On ch=13 n=b5 v=127
69479 Off ch=8 n=g5 v=127
69577 On ch=5 n=e6 v=127
69594 Off ch=13 n=b5 v=127
69692 On ch=13 n=b5 v=127
69781 Off ch=5 n=e6 v=127
69806 Off ch=5 n=e3 v=127
69807 On ch=11 n=a4 v=127
69807 On ch=11 n=a6 v=127
69872 Off ch=13 n=b5 v=127
69922 On ch=7 n=f#6 v=127
70011 Off ch=11 n=a6 v=127
70036 Off ch=11 n=a4 v=127
70037 On ch=13 n=b4 v=127
70037 On ch=13 n=b6 v=127
70054 Off ch=7 n=f#6 v=127
70152 On ch=5 n=e6 v=127
70241 Off ch=13 n=b6 v=127
70266 Off ch=13 n=b4 v=127
70267 On ch=13 n=b3 v=127
70267 On ch=7 n=f#6 v=127
70284 Off ch=5 n=e6 v=127
70382 On ch=4 n=d#6 v=127
70399 Off ch=7 n=f#6 v=127
70496 Off ch=13 n=b3 v=127
70497 On ch=5 n=e3 v=127
70497 On ch=5 n=e4 v=127
70497 On ch=5 n=e6 v=127
70497 On ch=8 n=g6 v=127
70514 Off ch=4 n=d#6 v=127
70612 On ch=13 n=b5 v=127
70726 Off ch=8 n=g6 v=127
70726 Off ch=5 n=e6 v=127
70726 Off ch=5 n=e4 v=127
70726 Off ch=5 n=e3 v=127
70727 On ch=8 n=g3 v=127
70727 On ch=8 n=g4 v=127
70727 On ch=1 n=c6 v=127
70744 Off ch=13 n=b5 v=127
70842 On ch=13 n=b5 v=127
70859 Off ch=1 n=c6 v=127
70956 Off ch=8 n=g4 v=127
70956 Off ch=8 n=g3 v=127
70957 On ch=5 n=e3 v=127
70957 On ch=5 n=e4 v=127
70957 On ch=11 n=a5 v=127
70974 Off ch=13 n=b5 v=127
71072 On ch=8 n=g5 v=127
71089 Off ch=11 n=a5 v=127
71186 Off ch=5 n=e4 v=127
71186 Off ch=5 n=e3 v=127
71187 On ch=7 n=f#4 v=127
71187 On ch=7 n=f#3 v=127
71187 On ch=11 n=a6 v=127
71187 On ch=7 n=f#6 v=127
71204 Off ch=8 n=g5 v=127
71302 On ch=11 n=a5 v=127
71391 Off ch=7 n=f#3 v=127
71391 Off ch=7 n=f#4 v=127
71416 Off ch=7 n=f#6 v=127
71416 Off ch=11 n=a6 v=127
71417 On ch=4 n=d#3 v=127
71417 On ch=4 n=d#4 v=127
71417 On ch=13 n=b5 v=127
71434 Off ch=11 n=a5 v=127
71532 On ch=11 n=a5 v=127
71549 Off ch=13 n=b5 v=127
71621 Off ch=4 n=d#4 v=127
71621 Off ch=4 n=d#3 v=127
71647 On ch=13 n=b3 v=127
71647 On ch=13 n=b2 v=127
71647 On ch=8 n=g5 v=127
71664 Off ch=11 n=a5 v=127
71762 On ch=7 n=f#5 v=127
71779 Off ch=8 n=g5 v=127
71851 Off ch=13 n=b2 v=127
71851 Off ch=13 n=b3 v=127
71877 On ch=5 n=e4 v=127
71877 On ch=5 n=e3 v=127
71877 On ch=5 n=e6 v=127
71877 On ch=8 n=g6 v=127
71894 Off ch=7 n=f#5 v=127
71992 On ch=13 n=b5 v=127
72106 Off ch=8 n=g6 v=127
72106 Off ch=5 n=e6 v=127
72106 Off ch=5 n=e3 v=127
72106 Off ch=5 n=e4 v=127
72107 On ch=8 n=g4 v=127
72107 On ch=8 n=g3 v=127
72107 On ch=1 n=c6 v=127
72124 Off ch=13 n=b5 v=127
72222 On ch=13 n=b5 v=127
72239 Off ch=1 n=c6 v=127
72336 Off ch=8 n=g3 v=127
72336 Off ch=8 n=g4 v=127
72337 On ch=5 n=e3 v=127
72337 On ch=5 n=e4 v=127
72337 On ch=11 n=a5 v=127
72354 Off ch=13 n=b5 v=127
72452 On ch=8 n=g5 v=127
72469 Off ch=11 n=a5 v=127
72566 Off ch=5 n=e4 v=127
72566 Off ch=5 n=e3 v=127
72567 On ch=7 n=f#4 v=127
72567 On ch=7 n=f#3 v=127
72567 On ch=11 n=a6 v=127
72567 On ch=7 n=f#6 v=127
72584 Off ch=8 n=g5 v=127
72682 On ch=11 n=a5 v=127
72771 Off ch=7 n=f#3 v=127
72771 Off ch=7 n=f#4 v=127
72796 Off ch=7 n=f#6 v=127
72796 Off ch=11 n=a6 v=127
72797 On ch=4 n=d#3 v=127
72797 On ch=4 n=d#4 v=127
72797 On ch=13 n=b5 v=127
72814 Off ch=11 n=a5 v=127
72912 On ch=11 n=a5 v=127
72929 Off ch=13 n=b5 v=127
73001 Off ch=4 n=d#4 v=127
73001 Off ch=4 n=d#3 v=127
73027 On ch=13 n=b3 v=127
73027 On ch=13 n=b2 v=127
73027 On ch=8 n=g5 v=127
73044 Off ch=11 n=a5 v=127
73142 On ch=7 n=f#5 v=127
73159 Off ch=8 n=g5 v=127
73231 Off ch=13 n=b2 v=127
73231 Off ch=13 n=b3 v=127
73257 On ch=5 n=e4 v=127
73257 On ch=5 n=e3 v=127
73257 On ch=5 n=e6 v=127
73257 On ch=8 n=g6 v=127
73274 Off ch=7 n=f#5 v=127
73372 On ch=13 n=b5 v=127
73430 Off ch=8 n=g6 v=127
73430 Off ch=5 n=e6 v=127
73486 Off ch=5 n=e3 v=127
73486 Off ch=5 n=e4 v=127
73487 On ch=8 n=g3 v=127
73487 On ch=8 n=g4 v=127
73487 On ch=1 n=c6 v=127
73504 Off ch=13 n=b5 v=127
73602 On ch=13 n=b5 v=127
73619 Off ch=1 n=c6 v=127
73716 Off ch=8 n=g4 v=127
73716 Off ch=8 n=g3 v=127
73717 On ch=5 n=e3 v=127
73717 On ch=5 n=e4 v=127
73717 On ch=11 n=a5 v=127
73734 Off ch=13 n=b5 v=127
73832 On ch=8 n=g5 v=127
73849 Off ch=11 n=a5 v=127
73946 Off ch=5 n=e4 v=127
73946 Off ch=5 n=e3 v=127
73947 On ch=7 n=f#3 v=127
73947 On ch=7 n=f#4 v=127
73947 On ch=7 n=f#6 v=127
73947 On ch=11 n=a6 v=127
73964 Off ch=8 n=g5 v=127
74062 On ch=11 n=a5 v=127
74120 Off ch=11 n=a6 v=127
74120 Off ch=7 n=f#6 v=127
74151 Off ch=7 n=f#4 v=127
74151 Off ch=7 n=f#3 v=127
74177 On ch=4 n=d#3 v=127
74177 On ch=4 n=d#4 v=127
74177 On ch=13 n=b5 v=127
74194 Off ch=11 n=a5 v=127
74292 On ch=11 n=a5 v=127
74309 Off ch=13 n=b5 v=127
74381 Off ch=4 n=d#4 v=127
74381 Off ch=4 n=d#3 v=127
74407 On ch=13 n=b3 v=127
74407 On ch=13 n=b2 v=127
74407 On ch=8 n=g5 v=127
74424 Off ch=11 n=a5 v=127
74522 On ch=7 n=f#5 v=127
74539 Off ch=8 n=g5 v=127
74611 Off ch=13 n=b2 v=127
74611 Off ch=13 n=b3 v=127
74637 On ch=5 n=e3 v=127
74637 On ch=5 n=e4 v=127
74637 On ch=8 n=g5 v=127
74654 Off ch=7 n=f#5 v=127
74752 On ch=5 n=e5 v=127
74769 Off ch=8 n=g5 v=127
74866 Off ch=5 n=e4 v=127
74866 Off ch=5 n=e3 v=127
74867 On ch=7 n=f#3 v=127
74867 On ch=7 n=f#4 v=127
74867 On ch=8 n=g5 v=127
74884 Off ch=5 n=e5 v=127
74982 On ch=13 n=b5 v=127
74999 Off ch=8 n=g5 v=127
75096 Off ch=7 n=f#4 v=127
75096 Off ch=7 n=f#3 v=127
75097 On ch=8 n=g3 v=127
75097 On ch=8 n=g4 v=127
75097 On ch=5 n=e6 v=127
75114 Off ch=13 n=b5 v=127
75212 On ch=13 n=b5 v=127
75229 Off ch=5 n=e6 v=127
75326 Off ch=8 n=g4 v=127
75326 Off ch=8 n=g3 v=127
75327 On ch=11 n=a4 v=127
75327 On ch=11 n=a3 v=127
75327 On ch=11 n=a6 v=127
75344 Off ch=13 n=b5 v=127
75442 On ch=7 n=f#6 v=127
75459 Off ch=11 n=a6 v=127
75556 Off ch=11 n=a3 v=127
75556 Off ch=11 n=a4 v=127
75557 On ch=13 n=b4 v=127
75557 On ch=13 n=b3 v=127
75557 On ch=13 n=b6 v=127
75574 Off ch=7 n=f#6 v=127
75672 On ch=5 n=e6 v=127
75689 Off ch=13 n=b6 v=127
75761 Off ch=13 n=b4 v=127
75787 On ch=13 n=b2 v=127
75787 On ch=7 n=f#6 v=127
75804 Off ch=5 n=e6 v=127
75902 On ch=4 n=d#6 v=127
75919 Off ch=7 n=f#6 v=127
75965 Off ch=13 n=b3 v=127
76017 Off ch=13 n=b2 v=127
76018 On ch=5 n=e3 v=127
76018 On ch=5 n=e6 v=127
76035 Off ch=4 n=d#6 v=127
76133 On ch=8 n=g6 v=127
76150 Off ch=5 n=e6 v=127
76248 On ch=5 n=e6 v=127
76265 Off ch=8 n=g6 v=127
76363 On ch=13 n=b5 v=127
76380 Off ch=5 n=e6 v=127
76478 On ch=8 n=g5 v=127
76495 Off ch=13 n=b5 v=127
76593 On ch=5 n=e5 v=127
76610 Off ch=8 n=g5 v=127
76708 On ch=13 n=b4 v=127
76725 Off ch=5 n=e5 v=127
76823 On ch=8 n=g4 v=127
76840 Off ch=13 n=b4 v=127
76938 On ch=5 n=e4 v=127
76955 Off ch=8 n=g4 v=127
77053 On ch=13 n=b3 v=127
77070 Off ch=5 n=e4 v=127
77167 Off ch=5 n=e3 v=127
77185 Off ch=13 n=b3 v=127
77185 On ch=5 n=e3 v=127
78552 Off ch=5 n=e3 v=127
82944 Meta TrkEnd
TrkEnd
